tick,type,numerator,denominator,clocks_per_click,notated_32nd_notes_per_beat,time,meta,track,key,tempo,program,channel,control,value,note,velocity
0,time_signature,1,8,12,8,0,1,0,,,,,,,,
0,control_change,,,,,0,0,1,,,,0,64,0,,
0,control_change,,,,,0,0,1,,,,0,64,0,,
0,program_change,,,,,0,0,1,,,1,0,,,,
0,track_name,,,,,0,1,1,,,,,,,,
0,set_tempo,,,,,0,1,0,,333333,,,,,,
0,key_signature,,,,,0,1,0,Ebm,,,,,,,
512,control_change,,,,,0,0,1,,,,0,64,0,,
512,control_change,,,,,512,0,1,,,,0,64,0,,
768,note_on,,,,,0,0,1,,,,0,,,70,49
768,note_on,,,,,256,0,1,,,,0,,,58,35
768,set_tempo,,,,,768,1,0,,375000,,,,,,
1024,set_tempo,,,,,0,1,0,,333333,,,,,,
1024,note_on,,,,,0,0,1,,,,0,,,39,38
1024,note_on,,,,,0,0,1,,,,0,,,70,57
1024,note_on,,,,,0,0,1,,,,0,,,58,43
1024,note_off,,,,,0,0,1,,,,0,,,70,0
1024,note_off,,,,,0,0,1,,,,0,,,58,0
1024,control_change,,,,,256,0,1,,,,0,64,0,,
1024,control_change,,,,,0,0,1,,,,0,64,0,,
1024,time_signature,2,4,24,8,256,1,0,,,,,,,,
1313,control_change,,,,,289,0,1,,,,0,64,127,,
1365,note_on,,,,,52,0,1,,,,0,,,46,33
1707,note_on,,,,,342,0,1,,,,0,,,51,33
2048,note_off,,,,,0,0,1,,,,0,,,70,0
2048,note_off,,,,,341,0,1,,,,0,,,58,0
2048,note_off,,,,,0,0,1,,,,0,,,51,0
2048,note_on,,,,,0,0,1,,,,0,,,66,51
2048,note_on,,,,,0,0,1,,,,0,,,39,33
2048,note_off,,,,,0,0,1,,,,0,,,39,0
2048,note_off,,,,,0,0,1,,,,0,,,46,0
2074,control_change,,,,,26,0,1,,,,0,64,0,,
2284,control_change,,,,,210,0,1,,,,0,64,0,,
2389,note_on,,,,,105,0,1,,,,0,,,46,33
2521,control_change,,,,,132,0,1,,,,0,64,127,,
2560,note_off,,,,,39,0,1,,,,0,,,66,0
2731,note_on,,,,,171,0,1,,,,0,,,51,33
2816,note_on,,,,,0,0,1,,,,0,,,70,49
2816,note_on,,,,,85,0,1,,,,0,,,58,35
2816,set_tempo,,,,,1792,1,0,,375000,,,,,,
2862,control_change,,,,,46,0,1,,,,0,64,0,,
3072,note_on,,,,,0,0,1,,,,0,,,38,38
3072,note_on,,,,,0,0,1,,,,0,,,70,57
3072,note_on,,,,,0,0,1,,,,0,,,58,43
3072,note_off,,,,,0,0,1,,,,0,,,51,0
3072,set_tempo,,,,,256,1,0,,333333,,,,,,
3072,control_change,,,,,0,0,1,,,,0,64,0,,
3072,note_off,,,,,0,0,1,,,,0,,,39,0
3072,note_off,,,,,0,0,1,,,,0,,,70,0
3072,control_change,,,,,0,0,1,,,,0,64,0,,
3072,note_off,,,,,0,0,1,,,,0,,,58,0
3072,control_change,,,,,210,0,1,,,,0,64,0,,
3072,note_off,,,,,0,0,1,,,,0,,,46,0
3361,control_change,,,,,289,0,1,,,,0,64,127,,
3413,note_on,,,,,52,0,1,,,,0,,,46,33
3755,note_on,,,,,342,0,1,,,,0,,,50,33
4096,note_off,,,,,0,0,1,,,,0,,,46,0
4096,note_on,,,,,0,0,1,,,,0,,,38,33
4096,note_off,,,,,341,0,1,,,,0,,,58,0
4096,note_off,,,,,0,0,1,,,,0,,,70,0
4096,note_off,,,,,0,0,1,,,,0,,,38,0
4096,note_on,,,,,0,0,1,,,,0,,,65,51
4096,note_off,,,,,0,0,1,,,,0,,,50,0
4122,control_change,,,,,26,0,1,,,,0,64,0,,
4332,control_change,,,,,210,0,1,,,,0,64,0,,
4437,note_on,,,,,105,0,1,,,,0,,,46,33
4569,control_change,,,,,132,0,1,,,,0,64,127,,
4608,note_off,,,,,39,0,1,,,,0,,,65,0
4779,note_on,,,,,171,0,1,,,,0,,,50,33
4864,note_on,,,,,85,0,1,,,,0,,,70,49
4910,control_change,,,,,46,0,1,,,,0,64,0,,
5120,control_change,,,,,210,0,1,,,,0,64,0,,
5120,control_change,,,,,0,0,1,,,,0,64,0,,
5120,note_off,,,,,0,0,1,,,,0,,,70,0
5120,note_off,,,,,0,0,1,,,,0,,,38,0
5120,note_off,,,,,0,0,1,,,,0,,,46,0
5120,note_off,,,,,0,0,1,,,,0,,,50,0
5120,note_on,,,,,0,0,1,,,,0,,,58,43
5120,note_on,,,,,0,0,1,,,,0,,,68,57
5120,set_tempo,,,,,2048,1,0,,333333,,,,,,
5120,note_on,,,,,0,0,1,,,,0,,,41,38
5282,control_change,,,,,162,0,1,,,,0,64,127,,
5461,note_on,,,,,179,0,1,,,,0,,,46,33
5803,note_on,,,,,342,0,1,,,,0,,,53,33
5888,note_on,,,,,0,0,1,,,,0,,,70,49
5888,note_off,,,,,0,0,1,,,,0,,,68,0
5888,note_off,,,,,85,0,1,,,,0,,,58,0
6144,note_off,,,,,256,0,1,,,,0,,,70,0
6144,note_off,,,,,0,0,1,,,,0,,,53,0
6144,note_off,,,,,0,0,1,,,,0,,,46,0
6144,note_off,,,,,0,0,1,,,,0,,,41,0
6144,note_on,,,,,0,0,1,,,,0,,,41,33
6144,note_on,,,,,0,0,1,,,,0,,,68,53
6144,note_on,,,,,0,0,1,,,,0,,,58,39
6144,set_tempo,,,,,1024,1,0,,333333,,,,,,
6485,note_on,,,,,341,0,1,,,,0,,,46,33
6827,note_on,,,,,342,0,1,,,,0,,,53,33
6912,note_off,,,,,0,0,1,,,,0,,,68,0
6912,note_on,,,,,0,0,1,,,,0,,,70,49
6912,note_off,,,,,85,0,1,,,,0,,,58,0
7006,control_change,,,,,94,0,1,,,,0,64,0,,
7168,set_tempo,,,,,1024,1,0,,333333,,,,,,
7168,control_change,,,,,162,0,1,,,,0,64,0,,
7168,note_off,,,,,0,0,1,,,,0,,,70,0
7168,note_off,,,,,0,0,1,,,,0,,,41,0
7168,note_off,,,,,0,0,1,,,,0,,,46,0
7168,note_off,,,,,0,0,1,,,,0,,,53,0
7168,note_on,,,,,0,0,1,,,,0,,,58,39
7168,note_on,,,,,0,0,1,,,,0,,,66,53
7168,note_on,,,,,0,0,1,,,,0,,,39,38
7168,control_change,,,,,0,0,1,,,,0,64,0,,
7376,control_change,,,,,208,0,1,,,,0,64,127,,
7509,note_on,,,,,133,0,1,,,,0,,,46,33
7851,note_on,,,,,342,0,1,,,,0,,,51,33
8192,note_off,,,,,0,0,1,,,,0,,,66,0
8192,note_off,,,,,0,0,1,,,,0,,,39,0
8192,note_off,,,,,0,0,1,,,,0,,,46,0
8192,note_off,,,,,0,0,1,,,,0,,,51,0
8192,note_on,,,,,0,0,1,,,,0,,,39,33
8192,note_off,,,,,341,0,1,,,,0,,,58,0
8237,control_change,,,,,45,0,1,,,,0,64,0,,
8533,note_on,,,,,296,0,1,,,,0,,,46,33
8563,control_change,,,,,30,0,1,,,,0,64,127,,
8875,note_on,,,,,312,0,1,,,,0,,,51,33
8960,set_tempo,,,,,1792,1,0,,375000,,,,,,
8960,note_on,,,,,0,0,1,,,,0,,,70,49
8960,note_on,,,,,85,0,1,,,,0,,,58,35
9127,control_change,,,,,167,0,1,,,,0,64,0,,
9216,note_on,,,,,0,0,1,,,,0,,,42,38
9216,note_on,,,,,0,0,1,,,,0,,,70,57
9216,note_on,,,,,0,0,1,,,,0,,,58,43
9216,note_off,,,,,0,0,1,,,,0,,,46,0
9216,note_off,,,,,0,0,1,,,,0,,,39,0
9216,note_off,,,,,0,0,1,,,,0,,,70,0
9216,note_off,,,,,0,0,1,,,,0,,,58,0
9216,control_change,,,,,0,0,1,,,,0,64,0,,
9216,control_change,,,,,89,0,1,,,,0,64,0,,
9216,note_off,,,,,0,0,1,,,,0,,,51,0
9216,set_tempo,,,,,256,1,0,,333333,,,,,,
9424,control_change,,,,,208,0,1,,,,0,64,127,,
9557,note_on,,,,,133,0,1,,,,0,,,46,33
9728,note_off,,,,,0,0,1,,,,0,,,70,0
9728,note_off,,,,,171,0,1,,,,0,,,58,0
9728,set_tempo,,,,,512,1,0,,375000,,,,,,
9810,control_change,,,,,82,0,1,,,,0,64,0,,
9899,note_on,,,,,89,0,1,,,,0,,,51,33
10240,note_on,,,,,341,0,1,,,,0,,,66,45
10240,note_off,,,,,0,0,1,,,,0,,,42,0
10240,set_tempo,,,,,512,1,0,,333333,,,,,,
10240,note_off,,,,,0,0,1,,,,0,,,46,0
10240,note_off,,,,,0,0,1,,,,0,,,51,0
10240,note_on,,,,,0,0,1,,,,0,,,78,59
10240,note_on,,,,,0,0,1,,,,0,,,42,33
10433,control_change,,,,,193,0,1,,,,0,64,127,,
10581,note_on,,,,,148,0,1,,,,0,,,46,33
10923,note_on,,,,,342,0,1,,,,0,,,51,33
11264,control_change,,,,,341,0,1,,,,0,64,0,,
11264,control_change,,,,,0,0,1,,,,0,64,127,,
11264,note_off,,,,,0,0,1,,,,0,,,42,0
11264,note_off,,,,,0,0,1,,,,0,,,46,0
11264,note_off,,,,,0,0,1,,,,0,,,51,0
11264,note_on,,,,,0,0,1,,,,0,,,44,38
11472,control_change,,,,,208,0,1,,,,0,64,0,,
11605,note_on,,,,,133,0,1,,,,0,,,47,33
11709,control_change,,,,,104,0,1,,,,0,64,127,,
11947,note_on,,,,,238,0,1,,,,0,,,53,33
12288,note_off,,,,,341,0,1,,,,0,,,66,0
12288,note_off,,,,,0,0,1,,,,0,,,78,0
12288,note_off,,,,,0,0,1,,,,0,,,47,0
12288,note_on,,,,,0,0,1,,,,0,,,65,39
12288,note_off,,,,,0,0,1,,,,0,,,53,0
12288,note_on,,,,,0,0,1,,,,0,,,77,53
12288,note_on,,,,,0,0,1,,,,0,,,44,33
12288,note_off,,,,,0,0,1,,,,0,,,44,0
12333,control_change,,,,,45,0,1,,,,0,64,0,,
12629,note_on,,,,,296,0,1,,,,0,,,47,33
12816,note_off,,,,,187,0,1,,,,0,,,65,0
12816,note_off,,,,,0,0,1,,,,0,,,77,0
12971,note_on,,,,,155,0,1,,,,0,,,53,33
13056,note_on,,,,,85,0,1,,,,0,,,63,35
13056,set_tempo,,,,,2816,1,0,,375000,,,,,,
13056,note_on,,,,,0,0,1,,,,0,,,75,49
13143,note_off,,,,,0,0,1,,,,0,,,75,0
13143,note_off,,,,,87,0,1,,,,0,,,63,0
13312,note_off,,,,,0,0,1,,,,0,,,47,0
13312,note_off,,,,,0,0,1,,,,0,,,44,0
13312,control_change,,,,,0,0,1,,,,0,64,0,,
13312,control_change,,,,,169,0,1,,,,0,64,0,,
13312,note_on,,,,,0,0,1,,,,0,,,46,38
13312,note_off,,,,,0,0,1,,,,0,,,53,0
13312,note_on,,,,,0,0,1,,,,0,,,74,57
13312,note_on,,,,,0,0,1,,,,0,,,62,43
13312,set_tempo,,,,,256,1,0,,333333,,,,,,
13653,note_on,,,,,341,0,1,,,,0,,,53,33
13680,note_off,,,,,0,0,1,,,,0,,,74,0
13680,note_off,,,,,27,0,1,,,,0,,,62,0
13995,note_on,,,,,315,0,1,,,,0,,,56,33
14080,note_on,,,,,0,0,1,,,,0,,,77,49
14080,note_on,,,,,85,0,1,,,,0,,,65,35
14080,set_tempo,,,,,768,1,0,,375000,,,,,,
14167,note_off,,,,,87,0,1,,,,0,,,65,0
14167,note_off,,,,,0,0,1,,,,0,,,77,0
14336,note_off,,,,,0,0,1,,,,0,,,56,0
14336,note_off,,,,,0,0,1,,,,0,,,53,0
14336,note_on,,,,,0,0,1,,,,0,,,46,33
14336,note_on,,,,,0,0,1,,,,0,,,74,53
14336,note_on,,,,,169,0,1,,,,0,,,62,39
14336,note_off,,,,,0,0,1,,,,0,,,46,0
14336,set_tempo,,,,,256,1,0,,333333,,,,,,
14677,note_on,,,,,341,0,1,,,,0,,,53,33
14864,note_off,,,,,0,0,1,,,,0,,,74,0
14864,note_off,,,,,187,0,1,,,,0,,,62,0
15019,note_on,,,,,155,0,1,,,,0,,,56,33
15104,note_on,,,,,85,0,1,,,,0,,,65,35
15104,note_on,,,,,0,0,1,,,,0,,,77,49
15104,set_tempo,,,,,768,1,0,,375000,,,,,,
15191,note_off,,,,,0,0,1,,,,0,,,77,0
15191,note_off,,,,,87,0,1,,,,0,,,65,0
15360,control_change,,,,,0,0,1,,,,0,64,0,,
15360,note_off,,,,,0,0,1,,,,0,,,53,0
15360,note_off,,,,,0,0,1,,,,0,,,46,0
15360,note_on,,,,,0,0,1,,,,0,,,75,53
15360,control_change,,,,,169,0,1,,,,0,64,0,,
15360,note_on,,,,,0,0,1,,,,0,,,39,50
15360,note_off,,,,,0,0,1,,,,0,,,56,0
15360,note_on,,,,,0,0,1,,,,0,,,63,39
15360,set_tempo,,,,,256,1,0,,333333,,,,,,
15701,note_on,,,,,341,0,1,,,,0,,,46,45
16043,note_on,,,,,342,0,1,,,,0,,,51,45
16384,note_off,,,,,341,0,1,,,,0,,,63,0
16384,note_off,,,,,0,0,1,,,,0,,,75,0
16384,note_off,,,,,0,0,1,,,,0,,,39,0
16384,note_off,,,,,0,0,1,,,,0,,,46,0
16384,note_off,,,,,0,0,1,,,,0,,,51,0
16384,note_on,,,,,0,0,1,,,,0,,,39,45
16725,note_on,,,,,341,0,1,,,,0,,,46,45
17067,note_on,,,,,342,0,1,,,,0,,,51,45
17152,note_on,,,,,85,0,1,,,,0,,,70,54
17152,set_tempo,,,,,1792,1,0,,375000,,,,,,
17152,note_on,,,,,0,0,1,,,,0,,,82,66
17408,note_on,,,,,0,0,1,,,,0,,,39,62
17408,note_on,,,,,0,0,1,,,,0,,,82,72
17408,note_on,,,,,0,0,1,,,,0,,,70,58
17408,note_off,,,,,0,0,1,,,,0,,,51,0
17408,control_change,,,,,256,0,1,,,,0,64,0,,
17408,control_change,,,,,0,0,1,,,,0,64,0,,
17408,note_off,,,,,0,0,1,,,,0,,,70,0
17408,note_off,,,,,0,0,1,,,,0,,,82,0
17408,note_off,,,,,0,0,1,,,,0,,,46,0
17408,note_off,,,,,0,0,1,,,,0,,,39,0
17408,control_change,,,,,0,0,1,,,,0,64,0,,
17408,set_tempo,,,,,256,1,0,,333333,,,,,,
17697,control_change,,,,,289,0,1,,,,0,64,127,,
17749,note_on,,,,,52,0,1,,,,0,,,46,50
18091,note_on,,,,,342,0,1,,,,0,,,51,50
18432,note_on,,,,,0,0,1,,,,0,,,39,50
18432,note_on,,,,,0,0,1,,,,0,,,78,66
18432,note_off,,,,,0,0,1,,,,0,,,51,0
18432,note_off,,,,,0,0,1,,,,0,,,46,0
18432,note_off,,,,,0,0,1,,,,0,,,39,0
18432,note_off,,,,,0,0,1,,,,0,,,82,0
18432,note_off,,,,,341,0,1,,,,0,,,70,0
18458,control_change,,,,,26,0,1,,,,0,64,0,,
18668,control_change,,,,,210,0,1,,,,0,64,0,,
18773,note_on,,,,,105,0,1,,,,0,,,46,50
18905,control_change,,,,,132,0,1,,,,0,64,127,,
18944,note_off,,,,,39,0,1,,,,0,,,78,0
19115,note_on,,,,,171,0,1,,,,0,,,51,50
19200,set_tempo,,,,,1792,1,0,,375000,,,,,,
19200,note_on,,,,,0,0,1,,,,0,,,82,64
19200,note_on,,,,,85,0,1,,,,0,,,70,50
19246,control_change,,,,,46,0,1,,,,0,64,0,,
19456,note_off,,,,,0,0,1,,,,0,,,82,0
19456,note_off,,,,,0,0,1,,,,0,,,70,0
19456,control_change,,,,,0,0,1,,,,0,64,0,,
19456,control_change,,,,,0,0,1,,,,0,64,0,,
19456,control_change,,,,,0,0,1,,,,0,64,0,,
19456,note_off,,,,,0,0,1,,,,0,,,51,0
19456,control_change,,,,,210,0,1,,,,0,64,0,,
19456,note_on,,,,,0,0,1,,,,0,,,70,58
19456,set_tempo,,,,,256,1,0,,333333,,,,,,
19456,note_on,,,,,0,0,1,,,,0,,,82,72
19456,note_on,,,,,0,0,1,,,,0,,,38,62
19456,note_off,,,,,0,0,1,,,,0,,,39,0
19456,note_off,,,,,0,0,1,,,,0,,,46,0
19745,control_change,,,,,289,0,1,,,,0,64,127,,
19797,note_on,,,,,52,0,1,,,,0,,,46,50
20139,note_on,,,,,342,0,1,,,,0,,,50,50
20373,control_change,,,,,234,0,1,,,,0,64,127,,
20480,note_off,,,,,107,0,1,,,,0,,,70,0
20480,note_off,,,,,0,0,1,,,,0,,,82,0
20480,note_off,,,,,0,0,1,,,,0,,,38,0
20480,note_off,,,,,0,0,1,,,,0,,,46,0
20480,note_off,,,,,0,0,1,,,,0,,,50,0
20480,note_on,,,,,0,0,1,,,,0,,,77,66
20480,note_on,,,,,0,0,1,,,,0,,,38,50
20716,control_change,,,,,236,0,1,,,,0,64,0,,
20821,note_on,,,,,105,0,1,,,,0,,,46,50
20953,control_change,,,,,132,0,1,,,,0,64,127,,
20992,note_off,,,,,39,0,1,,,,0,,,77,0
21163,note_on,,,,,171,0,1,,,,0,,,50,50
21248,note_on,,,,,85,0,1,,,,0,,,82,64
21294,control_change,,,,,46,0,1,,,,0,64,0,,
21504,set_tempo,,,,,2048,1,0,,333333,,,,,,
21504,note_on,,,,,0,0,1,,,,0,,,41,62
21504,note_on,,,,,0,0,1,,,,0,,,80,72
21504,note_on,,,,,0,0,1,,,,0,,,70,58
21504,note_off,,,,,0,0,1,,,,0,,,50,0
21504,note_off,,,,,0,0,1,,,,0,,,46,0
21504,note_off,,,,,0,0,1,,,,0,,,38,0
21504,control_change,,,,,210,0,1,,,,0,64,0,,
21504,control_change,,,,,0,0,1,,,,0,64,0,,
21504,control_change,,,,,0,0,1,,,,0,64,0,,
21504,note_off,,,,,0,0,1,,,,0,,,82,0
21666,control_change,,,,,162,0,1,,,,0,64,127,,
21845,note_on,,,,,179,0,1,,,,0,,,46,50
22187,note_on,,,,,342,0,1,,,,0,,,53,50
22272,note_off,,,,,85,0,1,,,,0,,,70,0
22272,note_off,,,,,0,0,1,,,,0,,,80,0
22272,note_on,,,,,0,0,1,,,,0,,,82,64
22528,note_off,,,,,0,0,1,,,,0,,,41,0
22528,note_off,,,,,0,0,1,,,,0,,,53,0
22528,note_off,,,,,0,0,1,,,,0,,,46,0
22528,note_on,,,,,0,0,1,,,,0,,,41,50
22528,set_tempo,,,,,1024,1,0,,333333,,,,,,
22528,note_on,,,,,0,0,1,,,,0,,,80,68
22528,note_off,,,,,256,0,1,,,,0,,,82,0
22528,note_on,,,,,0,0,1,,,,0,,,70,54
22869,note_on,,,,,341,0,1,,,,0,,,46,50
23211,note_on,,,,,342,0,1,,,,0,,,53,50
23296,note_on,,,,,0,0,1,,,,0,,,82,64
23296,note_off,,,,,85,0,1,,,,0,,,70,0
23296,note_off,,,,,0,0,1,,,,0,,,80,0
23390,control_change,,,,,94,0,1,,,,0,64,0,,
23552,note_off,,,,,0,0,1,,,,0,,,41,0
23552,note_off,,,,,0,0,1,,,,0,,,82,0
23552,control_change,,,,,0,0,1,,,,0,64,0,,
23552,control_change,,,,,0,0,1,,,,0,64,0,,
23552,control_change,,,,,162,0,1,,,,0,64,0,,
23552,set_tempo,,,,,1024,1,0,,333333,,,,,,
23552,note_on,,,,,0,0,1,,,,0,,,70,54
23552,note_on,,,,,0,0,1,,,,0,,,39,62
23552,note_off,,,,,0,0,1,,,,0,,,46,0
23552,note_on,,,,,0,0,1,,,,0,,,78,68
23552,note_off,,,,,0,0,1,,,,0,,,53,0
23760,control_change,,,,,208,0,1,,,,0,64,127,,
23893,note_on,,,,,133,0,1,,,,0,,,46,50
24235,note_on,,,,,342,0,1,,,,0,,,51,50
24576,note_off,,,,,0,0,1,,,,0,,,46,0
24576,note_off,,,,,0,0,1,,,,0,,,51,0
24576,note_on,,,,,0,0,1,,,,0,,,39,50
24576,note_off,,,,,0,0,1,,,,0,,,39,0
24576,note_off,,,,,341,0,1,,,,0,,,70,0
24576,note_off,,,,,0,0,1,,,,0,,,78,0
24621,control_change,,,,,45,0,1,,,,0,64,0,,
24917,note_on,,,,,296,0,1,,,,0,,,46,50
24947,control_change,,,,,30,0,1,,,,0,64,127,,
25259,note_on,,,,,312,0,1,,,,0,,,51,50
25344,set_tempo,,,,,1792,1,0,,375000,,,,,,
25344,note_on,,,,,85,0,1,,,,0,,,70,54
25344,note_on,,,,,0,0,1,,,,0,,,82,68
25511,control_change,,,,,167,0,1,,,,0,64,0,,
25600,note_off,,,,,0,0,1,,,,0,,,82,0
25600,note_on,,,,,0,0,1,,,,0,,,70,62
25600,note_off,,,,,0,0,1,,,,0,,,51,0
25600,note_off,,,,,0,0,1,,,,0,,,46,0
25600,note_off,,,,,0,0,1,,,,0,,,39,0
25600,note_off,,,,,0,0,1,,,,0,,,70,0
25600,control_change,,,,,89,0,1,,,,0,64,0,,
25600,control_change,,,,,0,0,1,,,,0,64,0,,
25600,note_on,,,,,0,0,1,,,,0,,,82,76
25600,set_tempo,,,,,256,1,0,,333333,,,,,,
25600,control_change,,,,,0,0,1,,,,0,64,0,,
25600,note_on,,,,,0,0,1,,,,0,,,42,62
25808,control_change,,,,,208,0,1,,,,0,64,127,,
25941,note_on,,,,,133,0,1,,,,0,,,46,50
26112,note_off,,,,,171,0,1,,,,0,,,70,0
26112,note_off,,,,,0,0,1,,,,0,,,82,0
26112,set_tempo,,,,,512,1,0,,375000,,,,,,
26194,control_change,,,,,82,0,1,,,,0,64,0,,
26283,note_on,,,,,89,0,1,,,,0,,,51,50
26413,control_change,,,,,130,0,1,,,,0,64,127,,
26624,note_off,,,,,0,0,1,,,,0,,,51,0
26624,note_off,,,,,0,0,1,,,,0,,,46,0
26624,note_off,,,,,0,0,1,,,,0,,,42,0
26624,note_on,,,,,0,0,1,,,,0,,,42,50
26624,set_tempo,,,,,512,1,0,,333333,,,,,,
26624,note_on,,,,,211,0,1,,,,0,,,78,64
26624,note_on,,,,,0,0,1,,,,0,,,90,78
26965,note_on,,,,,341,0,1,,,,0,,,46,50
27307,note_on,,,,,342,0,1,,,,0,,,51,50
27648,note_on,,,,,0,0,1,,,,0,,,44,62
27648,note_off,,,,,0,0,1,,,,0,,,51,0
27648,note_off,,,,,0,0,1,,,,0,,,42,0
27648,note_off,,,,,0,0,1,,,,0,,,46,0
27648,control_change,,,,,0,0,1,,,,0,64,127,,
27648,control_change,,,,,341,0,1,,,,0,64,0,,
27648,control_change,,,,,0,0,1,,,,0,64,0,,
27856,control_change,,,,,208,0,1,,,,0,64,0,,
27989,note_on,,,,,133,0,1,,,,0,,,47,50
28093,control_change,,,,,104,0,1,,,,0,64,127,,
28331,note_on,,,,,238,0,1,,,,0,,,53,50
28672,note_off,,,,,0,0,1,,,,0,,,53,0
28672,note_on,,,,,0,0,1,,,,0,,,77,58
28672,note_on,,,,,0,0,1,,,,0,,,44,50
28672,note_on,,,,,0,0,1,,,,0,,,89,72
28672,note_off,,,,,0,0,1,,,,0,,,44,0
28672,note_off,,,,,0,0,1,,,,0,,,47,0
28672,note_off,,,,,341,0,1,,,,0,,,78,0
28672,note_off,,,,,0,0,1,,,,0,,,90,0
28717,control_change,,,,,45,0,1,,,,0,64,0,,
29013,note_on,,,,,296,0,1,,,,0,,,47,50
29355,note_on,,,,,342,0,1,,,,0,,,53,50
29440,set_tempo,,,,,2816,1,0,,375000,,,,,,
29440,note_off,,,,,85,0,1,,,,0,,,77,0
29440,note_off,,,,,0,0,1,,,,0,,,89,0
29440,note_on,,,,,0,0,1,,,,0,,,75,54
29440,note_on,,,,,0,0,1,,,,0,,,87,68
29696,control_change,,,,,0,0,1,,,,0,64,0,,
29696,control_change,,,,,256,0,1,,,,0,64,0,,
29696,control_change,,,,,0,0,1,,,,0,64,0,,
29696,set_tempo,,,,,256,1,0,,333333,,,,,,
29696,note_off,,,,,0,0,1,,,,0,,,87,0
29696,note_off,,,,,0,0,1,,,,0,,,44,0
29696,note_off,,,,,0,0,1,,,,0,,,47,0
29696,note_off,,,,,0,0,1,,,,0,,,53,0
29696,note_on,,,,,0,0,1,,,,0,,,74,62
29696,note_on,,,,,0,0,1,,,,0,,,86,76
29696,note_on,,,,,0,0,1,,,,0,,,46,62
29696,note_off,,,,,0,0,1,,,,0,,,75,0
30037,note_on,,,,,341,0,1,,,,0,,,53,50
30379,note_on,,,,,342,0,1,,,,0,,,56,50
30464,note_off,,,,,85,0,1,,,,0,,,74,0
30464,set_tempo,,,,,768,1,0,,375000,,,,,,
30464,note_off,,,,,0,0,1,,,,0,,,86,0
30464,note_on,,,,,0,0,1,,,,0,,,77,54
30464,note_on,,,,,0,0,1,,,,0,,,89,68
30720,note_off,,,,,256,0,1,,,,0,,,77,0
30720,note_off,,,,,0,0,1,,,,0,,,53,0
30720,set_tempo,,,,,256,1,0,,333333,,,,,,
30720,note_off,,,,,0,0,1,,,,0,,,89,0
30720,note_on,,,,,0,0,1,,,,0,,,46,50
30720,note_off,,,,,0,0,1,,,,0,,,46,0
30720,note_on,,,,,0,0,1,,,,0,,,74,58
30720,note_on,,,,,0,0,1,,,,0,,,86,72
30720,note_off,,,,,0,0,1,,,,0,,,56,0
31061,note_on,,,,,341,0,1,,,,0,,,53,50
31403,note_on,,,,,342,0,1,,,,0,,,56,50
31488,note_on,,,,,0,0,1,,,,0,,,77,54
31488,set_tempo,,,,,768,1,0,,375000,,,,,,
31488,note_off,,,,,85,0,1,,,,0,,,74,0
31488,note_off,,,,,0,0,1,,,,0,,,86,0
31488,note_on,,,,,0,0,1,,,,0,,,89,68
31744,note_off,,,,,0,0,1,,,,0,,,89,0
31744,note_off,,,,,0,0,1,,,,0,,,77,0
31744,control_change,,,,,0,0,1,,,,0,64,0,,
31744,note_on,,,,,0,0,1,,,,0,,,54,53
31744,note_on,,,,,0,0,1,,,,0,,,51,44
31744,control_change,,,,,256,0,1,,,,0,64,0,,
31744,note_on,,,,,0,0,1,,,,0,,,75,54
31744,note_off,,,,,0,0,1,,,,0,,,56,0
31744,note_off,,,,,0,0,1,,,,0,,,46,0
31744,note_on,,,,,0,0,1,,,,0,,,87,66
31744,note_off,,,,,0,0,1,,,,0,,,53,0
32768,note_off,,,,,1024,0,1,,,,0,,,75,0
32768,note_off,,,,,0,0,1,,,,0,,,87,0
32768,note_off,,,,,0,0,1,,,,0,,,51,0
32768,note_off,,,,,0,0,1,,,,0,,,54,0
33792,set_tempo,,,,,2304,1,0,,375000,,,,,,
33792,note_on,,,,,0,0,1,,,,0,,,39,32
33792,note_on,,,,,0,0,1,,,,0,,,70,44
33792,control_change,,,,,0,0,1,,,,0,64,0,,
33792,control_change,,,,,1024,0,1,,,,0,64,0,,
34096,control_change,,,,,304,0,1,,,,0,64,127,,
34123,control_change,,,,,0,0,1,,,,0,64,127,,
34123,control_change,,,,,27,0,1,,,,0,64,127,,
34133,set_tempo,,,,,341,1,0,,333333,,,,,,
34133,note_on,,,,,10,0,1,,,,0,,,66,43
34133,note_on,,,,,0,0,1,,,,0,,,46,31
34475,note_on,,,,,0,0,1,,,,0,,,51,30
34475,note_off,,,,,342,0,1,,,,0,,,66,0
34475,note_off,,,,,0,0,1,,,,0,,,39,0
34475,note_off,,,,,0,0,1,,,,0,,,46,0
34475,note_on,,,,,0,0,1,,,,0,,,58,42
34475,note_off,,,,,0,0,1,,,,0,,,70,0
34816,note_off,,,,,0,0,1,,,,0,,,51,0
34816,note_on,,,,,0,0,1,,,,0,,,39,39
34816,note_on,,,,,0,0,1,,,,0,,,70,51
34816,note_off,,,,,341,0,1,,,,0,,,58,0
35157,note_on,,,,,0,0,1,,,,0,,,46,38
35157,note_off,,,,,0,0,1,,,,0,,,39,0
35157,note_off,,,,,341,0,1,,,,0,,,70,0
35157,note_on,,,,,0,0,1,,,,0,,,66,50
35499,note_on,,,,,0,0,1,,,,0,,,58,48
35499,note_on,,,,,0,0,1,,,,0,,,51,36
35499,note_off,,,,,0,0,1,,,,0,,,46,0
35499,note_off,,,,,342,0,1,,,,0,,,66,0
35840,note_on,,,,,0,0,1,,,,0,,,70,57
35840,control_change,,,,,341,0,1,,,,0,64,127,,
35840,control_change,,,,,0,0,1,,,,0,64,127,,
35840,note_off,,,,,0,0,1,,,,0,,,58,0
35840,note_off,,,,,0,0,1,,,,0,,,51,0
35840,note_on,,,,,0,0,1,,,,0,,,39,45
36181,note_on,,,,,0,0,1,,,,0,,,66,57
36181,note_off,,,,,341,0,1,,,,0,,,70,0
36181,note_off,,,,,0,0,1,,,,0,,,39,0
36181,note_on,,,,,0,0,1,,,,0,,,46,45
36523,note_off,,,,,0,0,1,,,,0,,,46,0
36523,note_on,,,,,0,0,1,,,,0,,,58,53
36523,note_off,,,,,342,0,1,,,,0,,,66,0
36523,note_on,,,,,0,0,1,,,,0,,,51,41
36864,note_off,,,,,341,0,1,,,,0,,,58,0
36864,note_on,,,,,0,0,1,,,,0,,,70,65
36864,note_on,,,,,0,0,1,,,,0,,,39,53
36864,note_off,,,,,0,0,1,,,,0,,,51,0
37205,note_off,,,,,341,0,1,,,,0,,,70,0
37205,note_on,,,,,0,0,1,,,,0,,,66,63
37205,note_on,,,,,0,0,1,,,,0,,,46,51
37205,note_off,,,,,0,0,1,,,,0,,,39,0
37547,note_off,,,,,0,0,1,,,,0,,,46,0
37547,set_tempo,,,,,3414,1,0,,600000,,,,,,
37547,note_on,,,,,0,0,1,,,,0,,,51,49
37547,note_on,,,,,0,0,1,,,,0,,,58,61
37547,note_off,,,,,342,0,1,,,,0,,,66,0
37750,control_change,,,,,0,0,1,,,,0,64,0,,
37750,control_change,,,,,203,0,1,,,,0,64,0,,
37808,note_off,,,,,0,0,1,,,,0,,,51,0
37808,note_off,,,,,58,0,1,,,,0,,,58,0
37888,set_tempo,,,,,341,1,0,,333333,,,,,,
37888,note_on,,,,,0,0,1,,,,0,,,73,80
37888,control_change,,,,,0,0,1,,,,0,64,0,,
37888,control_change,,,,,80,0,1,,,,0,64,0,,
37888,control_change,,,,,0,0,1,,,,0,64,0,,
37888,note_on,,,,,0,0,1,,,,0,,,61,64
37888,note_on,,,,,0,0,1,,,,0,,,66,64
37888,note_on,,,,,0,0,1,,,,0,,,34,64
37888,note_on,,,,,0,0,1,,,,0,,,42,64
37888,note_on,,,,,0,0,1,,,,0,,,46,80
38400,control_change,,,,,512,0,1,,,,0,64,127,,
38400,control_change,,,,,0,0,1,,,,0,64,127,,
39936,control_change,,,,,0,0,1,,,,0,64,0,,
39936,control_change,,,,,1536,0,1,,,,0,64,0,,
40960,set_tempo,,,,,3072,1,0,,375000,,,,,,
40960,note_off,,,,,0,0,1,,,,0,,,73,0
40960,note_off,,,,,0,0,1,,,,0,,,66,0
40960,note_off,,,,,1024,0,1,,,,0,,,61,0
40960,note_on,,,,,0,0,1,,,,0,,,71,60
41472,note_on,,,,,512,0,1,,,,0,,,70,55
41512,note_off,,,,,40,0,1,,,,0,,,71,0
41904,note_off,,,,,392,0,1,,,,0,,,70,0
41984,note_on,,,,,0,0,1,,,,0,,,37,32
41984,note_off,,,,,0,0,1,,,,0,,,34,0
41984,control_change,,,,,0,0,1,,,,0,64,0,,
41984,control_change,,,,,0,0,1,,,,0,64,0,,
41984,control_change,,,,,0,0,1,,,,0,64,0,,
41984,control_change,,,,,80,0,1,,,,0,64,0,,
41984,note_on,,,,,0,0,1,,,,0,,,68,44
41984,set_tempo,,,,,1024,1,0,,375000,,,,,,
41984,note_off,,,,,0,0,1,,,,0,,,42,0
41984,note_off,,,,,0,0,1,,,,0,,,46,0
42288,control_change,,,,,304,0,1,,,,0,64,127,,
42325,set_tempo,,,,,341,1,0,,333333,,,,,,
42325,note_on,,,,,0,0,1,,,,0,,,44,31
42325,note_on,,,,,37,0,1,,,,0,,,65,43
42667,note_off,,,,,0,0,1,,,,0,,,44,0
42667,note_off,,,,,0,0,1,,,,0,,,37,0
42667,note_off,,,,,0,0,1,,,,0,,,68,0
42667,note_off,,,,,342,0,1,,,,0,,,65,0
42667,note_on,,,,,0,0,1,,,,0,,,49,30
42667,note_on,,,,,0,0,1,,,,0,,,61,42
43008,note_off,,,,,341,0,1,,,,0,,,61,0
43008,note_on,,,,,0,0,1,,,,0,,,68,51
43008,note_off,,,,,0,0,1,,,,0,,,49,0
43008,note_on,,,,,0,0,1,,,,0,,,37,39
43349,note_off,,,,,0,0,1,,,,0,,,37,0
43349,note_on,,,,,0,0,1,,,,0,,,44,38
43349,note_on,,,,,0,0,1,,,,0,,,65,50
43349,note_off,,,,,341,0,1,,,,0,,,68,0
43691,note_on,,,,,0,0,1,,,,0,,,61,48
43691,note_off,,,,,342,0,1,,,,0,,,65,0
43691,note_on,,,,,0,0,1,,,,0,,,49,36
43691,note_off,,,,,0,0,1,,,,0,,,44,0
44032,note_off,,,,,0,0,1,,,,0,,,49,0
44032,control_change,,,,,341,0,1,,,,0,64,127,,
44032,control_change,,,,,0,0,1,,,,0,64,127,,
44032,note_off,,,,,0,0,1,,,,0,,,61,0
44032,note_on,,,,,0,0,1,,,,0,,,68,57
44032,note_on,,,,,0,0,1,,,,0,,,37,45
44373,note_on,,,,,0,0,1,,,,0,,,65,57
44373,note_off,,,,,341,0,1,,,,0,,,68,0
44373,note_on,,,,,0,0,1,,,,0,,,44,45
44373,note_off,,,,,0,0,1,,,,0,,,37,0
44715,note_on,,,,,0,0,1,,,,0,,,61,53
44715,note_off,,,,,342,0,1,,,,0,,,65,0
44715,note_off,,,,,0,0,1,,,,0,,,44,0
44715,note_on,,,,,0,0,1,,,,0,,,49,41
45056,note_off,,,,,0,0,1,,,,0,,,49,0
45056,note_on,,,,,0,0,1,,,,0,,,37,53
45056,note_on,,,,,0,0,1,,,,0,,,68,65
45056,note_off,,,,,341,0,1,,,,0,,,61,0
45397,note_off,,,,,0,0,1,,,,0,,,37,0
45397,note_on,,,,,0,0,1,,,,0,,,44,51
45397,note_on,,,,,0,0,1,,,,0,,,65,63
45397,note_off,,,,,341,0,1,,,,0,,,68,0
45739,note_on,,,,,0,0,1,,,,0,,,61,61
45739,note_on,,,,,0,0,1,,,,0,,,49,49
45739,note_off,,,,,0,0,1,,,,0,,,44,0
45739,set_tempo,,,,,3414,1,0,,600000,,,,,,
45739,note_off,,,,,342,0,1,,,,0,,,65,0
45942,control_change,,,,,203,0,1,,,,0,64,0,,
45942,control_change,,,,,0,0,1,,,,0,64,0,,
46000,note_off,,,,,58,0,1,,,,0,,,61,0
46000,note_off,,,,,0,0,1,,,,0,,,49,0
46080,set_tempo,,,,,341,1,0,,333333,,,,,,
46080,control_change,,,,,80,0,1,,,,0,64,0,,
46080,note_on,,,,,0,0,1,,,,0,,,44,80
46080,note_on,,,,,0,0,1,,,,0,,,39,64
46080,note_on,,,,,0,0,1,,,,0,,,32,64
46080,note_on,,,,,0,0,1,,,,0,,,71,78
46080,note_on,,,,,0,0,1,,,,0,,,68,64
46080,note_on,,,,,0,0,1,,,,0,,,63,64
46080,note_on,,,,,0,0,1,,,,0,,,59,64
46080,control_change,,,,,0,0,1,,,,0,64,0,,
46080,control_change,,,,,0,0,1,,,,0,64,0,,
46080,control_change,,,,,0,0,1,,,,0,64,0,,
46080,control_change,,,,,0,0,1,,,,0,64,0,,
46080,control_change,,,,,0,0,1,,,,0,64,0,,
46592,control_change,,,,,512,0,1,,,,0,64,127,,
46592,control_change,,,,,0,0,1,,,,0,64,127,,
48128,control_change,,,,,1536,0,1,,,,0,64,0,,
48128,control_change,,,,,0,0,1,,,,0,64,0,,
49152,note_off,,,,,1024,0,1,,,,0,,,59,0
49152,note_off,,,,,0,0,1,,,,0,,,71,0
49152,note_off,,,,,0,0,1,,,,0,,,68,0
49152,note_off,,,,,0,0,1,,,,0,,,63,0
49152,note_on,,,,,0,0,1,,,,0,,,70,60
49152,set_tempo,,,,,3072,1,0,,375000,,,,,,
49664,note_off,,,,,512,0,1,,,,0,,,70,0
49664,note_on,,,,,0,0,1,,,,0,,,68,55
50176,control_change,,,,,512,0,1,,,,0,64,0,,
50176,control_change,,,,,0,0,1,,,,0,64,0,,
50176,control_change,,,,,0,0,1,,,,0,64,0,,
50176,control_change,,,,,0,0,1,,,,0,64,0,,
50176,control_change,,,,,0,0,1,,,,0,64,0,,
50176,control_change,,,,,0,0,1,,,,0,64,0,,
50176,note_off,,,,,0,0,1,,,,0,,,68,0
50176,note_off,,,,,0,0,1,,,,0,,,32,0
50176,note_off,,,,,0,0,1,,,,0,,,39,0
50176,note_off,,,,,0,0,1,,,,0,,,44,0
50176,note_on,,,,,0,0,1,,,,0,,,66,49
50176,note_on,,,,,0,0,1,,,,0,,,39,32
50176,set_tempo,,,,,1024,1,0,,375000,,,,,,
50480,control_change,,,,,304,0,1,,,,0,64,127,,
50517,set_tempo,,,,,341,1,0,,333333,,,,,,
50517,note_on,,,,,37,0,1,,,,0,,,63,43
50517,note_on,,,,,0,0,1,,,,0,,,46,31
50859,note_on,,,,,0,0,1,,,,0,,,58,42
50859,note_on,,,,,0,0,1,,,,0,,,51,30
50859,note_off,,,,,0,0,1,,,,0,,,39,0
50859,note_off,,,,,0,0,1,,,,0,,,46,0
50859,note_off,,,,,342,0,1,,,,0,,,63,0
51200,note_off,,,,,341,0,1,,,,0,,,58,0
51200,note_off,,,,,0,0,1,,,,0,,,66,0
51200,note_off,,,,,0,0,1,,,,0,,,51,0
51200,note_on,,,,,0,0,1,,,,0,,,66,51
51200,note_on,,,,,0,0,1,,,,0,,,39,39
51541,note_off,,,,,0,0,1,,,,0,,,39,0
51541,note_off,,,,,341,0,1,,,,0,,,66,0
51541,note_on,,,,,0,0,1,,,,0,,,63,50
51541,note_on,,,,,0,0,1,,,,0,,,46,38
51883,note_off,,,,,342,0,1,,,,0,,,63,0
51883,note_on,,,,,0,0,1,,,,0,,,58,48
51883,note_on,,,,,0,0,1,,,,0,,,51,36
51883,note_off,,,,,0,0,1,,,,0,,,46,0
52224,note_off,,,,,0,0,1,,,,0,,,58,0
52224,control_change,,,,,341,0,1,,,,0,64,127,,
52224,note_on,,,,,0,0,1,,,,0,,,39,45
52224,control_change,,,,,0,0,1,,,,0,64,127,,
52224,note_on,,,,,0,0,1,,,,0,,,66,57
52224,note_off,,,,,0,0,1,,,,0,,,51,0
52565,note_on,,,,,0,0,1,,,,0,,,46,45
52565,note_on,,,,,0,0,1,,,,0,,,63,57
52565,note_off,,,,,341,0,1,,,,0,,,66,0
52565,note_off,,,,,0,0,1,,,,0,,,39,0
52907,note_on,,,,,0,0,1,,,,0,,,51,41
52907,note_off,,,,,0,0,1,,,,0,,,46,0
52907,note_on,,,,,0,0,1,,,,0,,,58,53
52907,note_off,,,,,342,0,1,,,,0,,,63,0
53248,note_off,,,,,0,0,1,,,,0,,,51,0
53248,note_on,,,,,0,0,1,,,,0,,,39,53
53248,note_on,,,,,0,0,1,,,,0,,,66,65
53248,note_off,,,,,341,0,1,,,,0,,,58,0
53589,note_off,,,,,0,0,1,,,,0,,,39,0
53589,note_on,,,,,0,0,1,,,,0,,,46,51
53589,note_on,,,,,0,0,1,,,,0,,,63,63
53589,note_off,,,,,341,0,1,,,,0,,,66,0
53931,note_off,,,,,0,0,1,,,,0,,,46,0
53931,note_on,,,,,0,0,1,,,,0,,,51,49
53931,note_on,,,,,0,0,1,,,,0,,,58,61
53931,note_off,,,,,342,0,1,,,,0,,,63,0
53931,set_tempo,,,,,3414,1,0,,600000,,,,,,
54134,control_change,,,,,0,0,1,,,,0,64,0,,
54134,control_change,,,,,203,0,1,,,,0,64,0,,
54192,note_off,,,,,58,0,1,,,,0,,,58,0
54192,note_off,,,,,0,0,1,,,,0,,,51,0
54272,note_on,,,,,0,0,1,,,,0,,,58,64
54272,control_change,,,,,80,0,1,,,,0,64,0,,
54272,control_change,,,,,0,0,1,,,,0,64,0,,
54272,control_change,,,,,0,0,1,,,,0,64,0,,
54272,control_change,,,,,0,0,1,,,,0,64,0,,
54272,control_change,,,,,0,0,1,,,,0,64,0,,
54272,control_change,,,,,0,0,1,,,,0,64,0,,
54272,control_change,,,,,0,0,1,,,,0,64,0,,
54272,control_change,,,,,0,0,1,,,,0,64,0,,
54272,set_tempo,,,,,341,1,0,,333333,,,,,,
54272,note_on,,,,,0,0,1,,,,0,,,63,64
54272,note_on,,,,,0,0,1,,,,0,,,70,76
54272,note_on,,,,,0,0,1,,,,0,,,42,56
54272,note_on,,,,,0,0,1,,,,0,,,51,56
54272,note_on,,,,,0,0,1,,,,0,,,54,72
54784,control_change,,,,,512,0,1,,,,0,64,127,,
54784,control_change,,,,,0,0,1,,,,0,64,127,,
56320,control_change,,,,,0,0,1,,,,0,64,0,,
56320,control_change,,,,,1536,0,1,,,,0,64,0,,
56320,control_change,,,,,0,0,1,,,,0,64,0,,
56320,control_change,,,,,0,0,1,,,,0,64,0,,
57344,note_on,,,,,0,0,1,,,,0,,,51,44
57344,note_on,,,,,0,0,1,,,,0,,,39,35
57344,note_on,,,,,0,0,1,,,,0,,,68,54
57344,note_off,,,,,0,0,1,,,,0,,,54,0
57344,note_off,,,,,0,0,1,,,,0,,,51,0
57344,note_off,,,,,0,0,1,,,,0,,,42,0
57344,note_off,,,,,0,0,1,,,,0,,,70,0
57344,note_off,,,,,0,0,1,,,,0,,,63,0
57344,note_off,,,,,1024,0,1,,,,0,,,58,0
57344,set_tempo,,,,,3072,1,0,,375000,,,,,,
57856,note_on,,,,,0,0,1,,,,0,,,66,50
57856,note_off,,,,,512,0,1,,,,0,,,68,0
58368,note_off,,,,,0,0,1,,,,0,,,51,0
58368,control_change,,,,,512,0,1,,,,0,64,0,,
58368,control_change,,,,,0,0,1,,,,0,64,0,,
58368,note_off,,,,,0,0,1,,,,0,,,66,0
58368,note_off,,,,,0,0,1,,,,0,,,39,0
58368,note_on,,,,,0,0,1,,,,0,,,65,44
58368,note_on,,,,,0,0,1,,,,0,,,34,35
58528,control_change,,,,,160,0,1,,,,0,64,127,,
58709,note_off,,,,,181,0,1,,,,0,,,65,0
58709,note_on,,,,,0,0,1,,,,0,,,62,41
58709,set_tempo,,,,,1365,1,0,,333333,,,,,,
58880,note_off,,,,,171,0,1,,,,0,,,34,0
58880,note_on,,,,,0,0,1,,,,0,,,46,35
59051,note_off,,,,,171,0,1,,,,0,,,62,0
59051,note_on,,,,,0,0,1,,,,0,,,58,37
59272,control_change,,,,,221,0,1,,,,0,64,0,,
59379,control_change,,,,,107,0,1,,,,0,64,0,,
59392,note_off,,,,,13,0,1,,,,0,,,58,0
59392,note_on,,,,,0,0,1,,,,0,,,66,53
59392,note_on,,,,,0,0,1,,,,0,,,33,44
59392,set_tempo,,,,,683,1,0,,428571,,,,,,
59392,note_off,,,,,0,0,1,,,,0,,,46,0
59565,control_change,,,,,173,0,1,,,,0,64,127,,
59733,set_tempo,,,,,341,1,0,,333333,,,,,,
59733,note_on,,,,,168,0,1,,,,0,,,63,43
59904,note_on,,,,,0,0,1,,,,0,,,45,35
59904,note_off,,,,,171,0,1,,,,0,,,33,0
60075,note_off,,,,,0,0,1,,,,0,,,66,0
60075,note_on,,,,,0,0,1,,,,0,,,58,38
60075,note_off,,,,,171,0,1,,,,0,,,63,0
60416,note_off,,,,,0,0,1,,,,0,,,45,0
60416,note_off,,,,,0,0,1,,,,0,,,58,0
60416,control_change,,,,,0,0,1,,,,0,64,127,,
60416,control_change,,,,,341,0,1,,,,0,64,0,,
60416,note_on,,,,,0,0,1,,,,0,,,34,35
60416,note_on,,,,,0,0,1,,,,0,,,65,44
60496,control_change,,,,,80,0,1,,,,0,64,0,,
60682,control_change,,,,,186,0,1,,,,0,64,127,,
60757,note_off,,,,,75,0,1,,,,0,,,65,0
60757,note_on,,,,,0,0,1,,,,0,,,62,41
60928,note_off,,,,,171,0,1,,,,0,,,34,0
60928,note_on,,,,,0,0,1,,,,0,,,46,35
61099,note_on,,,,,0,0,1,,,,0,,,58,37
61099,note_off,,,,,171,0,1,,,,0,,,62,0
61320,control_change,,,,,221,0,1,,,,0,64,0,,
61427,control_change,,,,,107,0,1,,,,0,64,0,,
61440,note_off,,,,,0,0,1,,,,0,,,46,0
61440,note_on,,,,,0,0,1,,,,0,,,33,44
61440,note_on,,,,,0,0,1,,,,0,,,66,53
61440,set_tempo,,,,,1707,1,0,,375000,,,,,,
61440,note_off,,,,,13,0,1,,,,0,,,58,0
61639,control_change,,,,,199,0,1,,,,0,64,127,,
61781,set_tempo,,,,,341,1,0,,333333,,,,,,
61781,note_on,,,,,142,0,1,,,,0,,,63,43
61952,note_off,,,,,171,0,1,,,,0,,,33,0
61952,note_on,,,,,0,0,1,,,,0,,,45,35
62123,note_off,,,,,171,0,1,,,,0,,,63,0
62123,note_off,,,,,0,0,1,,,,0,,,66,0
62123,note_on,,,,,0,0,1,,,,0,,,58,38
62464,control_change,,,,,341,0,1,,,,0,64,0,,
62464,note_on,,,,,0,0,1,,,,0,,,34,35
62464,note_on,,,,,0,0,1,,,,0,,,65,46
62464,note_off,,,,,0,0,1,,,,0,,,45,0
62464,note_off,,,,,0,0,1,,,,0,,,58,0
62464,control_change,,,,,0,0,1,,,,0,64,0,,
62464,control_change,,,,,0,0,1,,,,0,64,127,,
62544,control_change,,,,,80,0,1,,,,0,64,0,,
62730,control_change,,,,,186,0,1,,,,0,64,127,,
62805,note_off,,,,,75,0,1,,,,0,,,65,0
62805,note_on,,,,,0,0,1,,,,0,,,62,43
62976,note_on,,,,,0,0,1,,,,0,,,46,34
62976,note_off,,,,,171,0,1,,,,0,,,34,0
63147,note_off,,,,,171,0,1,,,,0,,,62,0
63147,note_on,,,,,0,0,1,,,,0,,,58,38
63475,control_change,,,,,328,0,1,,,,0,64,0,,
63488,note_off,,,,,13,0,1,,,,0,,,58,0
63488,note_on,,,,,0,0,1,,,,0,,,65,44
63488,note_on,,,,,0,0,1,,,,0,,,44,35
63488,note_off,,,,,0,0,1,,,,0,,,46,0
63687,control_change,,,,,199,0,1,,,,0,64,127,,
63829,note_off,,,,,142,0,1,,,,0,,,65,0
63829,note_on,,,,,0,0,1,,,,0,,,62,41
64000,note_on,,,,,171,0,1,,,,0,,,46,25
64171,note_on,,,,,0,0,1,,,,0,,,58,36
64171,note_off,,,,,171,0,1,,,,0,,,62,0
64512,control_change,,,,,341,0,1,,,,0,64,0,,
64512,control_change,,,,,0,0,1,,,,0,64,127,,
64512,control_change,,,,,0,0,1,,,,0,64,0,,
64512,note_off,,,,,0,0,1,,,,0,,,58,0
64512,note_off,,,,,0,0,1,,,,0,,,44,0
64512,note_off,,,,,0,0,1,,,,0,,,46,0
64512,note_on,,,,,0,0,1,,,,0,,,66,42
64512,note_on,,,,,0,0,1,,,,0,,,42,33
64592,control_change,,,,,80,0,1,,,,0,64,0,,
64778,control_change,,,,,186,0,1,,,,0,64,127,,
64853,note_off,,,,,75,0,1,,,,0,,,66,0
64853,note_on,,,,,0,0,1,,,,0,,,63,39
65024,note_on,,,,,171,0,1,,,,0,,,46,23
65195,note_off,,,,,171,0,1,,,,0,,,63,0
65195,note_on,,,,,0,0,1,,,,0,,,58,34
65523,control_change,,,,,328,0,1,,,,0,64,0,,
65536,note_off,,,,,13,0,1,,,,0,,,58,0
65536,note_on,,,,,0,0,1,,,,0,,,68,40
65536,set_tempo,,,,,3755,1,0,,375000,,,,,,
65536,note_off,,,,,0,0,1,,,,0,,,46,0
65536,note_off,,,,,0,0,1,,,,0,,,42,0
65536,note_on,,,,,0,0,1,,,,0,,,41,30
65735,control_change,,,,,199,0,1,,,,0,64,127,,
65877,note_off,,,,,142,0,1,,,,0,,,68,0
65877,note_on,,,,,0,0,1,,,,0,,,65,37
66048,note_on,,,,,171,0,1,,,,0,,,46,20
66219,note_off,,,,,171,0,1,,,,0,,,65,0
66219,note_on,,,,,0,0,1,,,,0,,,58,33
66560,control_change,,,,,341,0,1,,,,0,64,0,,
66560,control_change,,,,,0,0,1,,,,0,64,0,,
66560,control_change,,,,,0,0,1,,,,0,64,0,,
66560,note_off,,,,,0,0,1,,,,0,,,58,0
66560,note_off,,,,,0,0,1,,,,0,,,41,0
66560,note_off,,,,,0,0,1,,,,0,,,46,0
66560,note_on,,,,,0,0,1,,,,0,,,70,38
66560,note_on,,,,,0,0,1,,,,0,,,39,24
66560,control_change,,,,,0,0,1,,,,0,64,0,,
66560,set_tempo,,,,,1024,1,0,,428571,,,,,,
66864,control_change,,,,,304,0,1,,,,0,64,127,,
66901,set_tempo,,,,,341,1,0,,333333,,,,,,
66901,note_off,,,,,37,0,1,,,,0,,,70,0
66901,note_on,,,,,0,0,1,,,,0,,,46,21
66901,note_off,,,,,0,0,1,,,,0,,,39,0
66901,note_on,,,,,0,0,1,,,,0,,,66,35
67243,note_off,,,,,342,0,1,,,,0,,,66,0
67243,note_on,,,,,0,0,1,,,,0,,,58,31
67243,note_on,,,,,0,0,1,,,,0,,,51,17
67243,note_off,,,,,0,0,1,,,,0,,,46,0
67584,note_off,,,,,341,0,1,,,,0,,,58,0
67584,note_on,,,,,0,0,1,,,,0,,,70,37
67584,note_on,,,,,0,0,1,,,,0,,,39,23
67584,note_off,,,,,0,0,1,,,,0,,,51,0
67925,note_on,,,,,0,0,1,,,,0,,,66,33
67925,note_on,,,,,0,0,1,,,,0,,,46,19
67925,note_off,,,,,0,0,1,,,,0,,,39,0
67925,note_off,,,,,341,0,1,,,,0,,,70,0
68267,note_off,,,,,342,0,1,,,,0,,,66,0
68267,note_on,,,,,0,0,1,,,,0,,,58,30
68267,note_on,,,,,0,0,1,,,,0,,,51,16
68267,note_off,,,,,0,0,1,,,,0,,,46,0
68608,note_on,,,,,0,0,1,,,,0,,,70,40
68608,note_off,,,,,0,0,1,,,,0,,,51,0
68608,control_change,,,,,0,0,1,,,,0,64,127,,
68608,control_change,,,,,341,0,1,,,,0,64,127,,
68608,note_off,,,,,0,0,1,,,,0,,,58,0
68608,note_on,,,,,0,0,1,,,,0,,,39,26
68949,note_off,,,,,341,0,1,,,,0,,,70,0
68949,note_on,,,,,0,0,1,,,,0,,,66,35
68949,note_on,,,,,0,0,1,,,,0,,,46,21
68949,note_off,,,,,0,0,1,,,,0,,,39,0
69291,note_off,,,,,342,0,1,,,,0,,,66,0
69291,note_on,,,,,0,0,1,,,,0,,,58,31
69291,note_off,,,,,0,0,1,,,,0,,,46,0
69291,note_on,,,,,0,0,1,,,,0,,,51,17
69632,note_on,,,,,0,0,1,,,,0,,,70,38
69632,note_off,,,,,0,0,1,,,,0,,,51,0
69632,note_on,,,,,0,0,1,,,,0,,,39,24
69632,note_off,,,,,341,0,1,,,,0,,,58,0
69973,note_off,,,,,0,0,1,,,,0,,,39,0
69973,note_on,,,,,0,0,1,,,,0,,,46,20
69973,note_on,,,,,0,0,1,,,,0,,,66,34
69973,note_off,,,,,341,0,1,,,,0,,,70,0
70315,note_on,,,,,0,0,1,,,,0,,,51,15
70315,note_on,,,,,0,0,1,,,,0,,,58,29
70315,note_off,,,,,342,0,1,,,,0,,,66,0
70315,note_off,,,,,0,0,1,,,,0,,,46,0
70445,control_change,,,,,130,0,1,,,,0,64,0,,
70518,control_change,,,,,73,0,1,,,,0,64,0,,
70656,note_off,,,,,0,0,1,,,,0,,,58,0
70656,control_change,,,,,0,0,1,,,,0,64,0,,
70656,control_change,,,,,138,0,1,,,,0,64,0,,
70656,note_on,,,,,0,0,1,,,,0,,,61,32
70656,note_on,,,,,0,0,1,,,,0,,,66,32
70656,note_off,,,,,0,0,1,,,,0,,,51,0
70656,note_on,,,,,0,0,1,,,,0,,,34,30
70656,note_on,,,,,0,0,1,,,,0,,,46,42
70656,set_tempo,,,,,3755,1,0,,375000,,,,,,
70656,note_on,,,,,0,0,1,,,,0,,,73,47
71028,note_off,,,,,372,0,1,,,,0,,,61,0
71028,note_off,,,,,0,0,1,,,,0,,,66,0
71028,note_off,,,,,0,0,1,,,,0,,,73,0
71028,note_off,,,,,0,0,1,,,,0,,,34,0
71028,note_off,,,,,0,0,1,,,,0,,,46,0
71168,note_on,,,,,0,0,1,,,,0,,,54,37
71168,note_on,,,,,0,0,1,,,,0,,,49,25
71168,note_on,,,,,0,0,1,,,,0,,,46,25
71168,note_on,,,,,0,0,1,,,,0,,,66,29
71168,note_on,,,,,140,0,1,,,,0,,,61,29
71168,note_on,,,,,0,0,1,,,,0,,,73,44
71168,set_tempo,,,,,512,1,0,,352941,,,,,,
71540,note_off,,,,,372,0,1,,,,0,,,61,0
71540,note_off,,,,,0,0,1,,,,0,,,73,0
71540,note_off,,,,,0,0,1,,,,0,,,46,0
71540,note_off,,,,,0,0,1,,,,0,,,49,0
71540,note_off,,,,,0,0,1,,,,0,,,54,0
71540,note_off,,,,,0,0,1,,,,0,,,66,0
71680,note_on,,,,,140,0,1,,,,0,,,61,27
71680,note_on,,,,,0,0,1,,,,0,,,73,42
71680,note_on,,,,,0,0,1,,,,0,,,46,25
71680,note_on,,,,,0,0,1,,,,0,,,49,25
71680,note_on,,,,,0,0,1,,,,0,,,54,37
71680,note_on,,,,,0,0,1,,,,0,,,66,27
72052,note_off,,,,,372,0,1,,,,0,,,61,0
72052,note_off,,,,,0,0,1,,,,0,,,66,0
72052,note_off,,,,,0,0,1,,,,0,,,73,0
72052,note_off,,,,,0,0,1,,,,0,,,54,0
72052,note_off,,,,,0,0,1,,,,0,,,49,0
72052,note_off,,,,,0,0,1,,,,0,,,46,0
72192,note_on,,,,,140,0,1,,,,0,,,61,24
72192,note_on,,,,,0,0,1,,,,0,,,66,24
72192,note_on,,,,,0,0,1,,,,0,,,73,39
72192,note_on,,,,,0,0,1,,,,0,,,46,25
72192,note_on,,,,,0,0,1,,,,0,,,54,37
72192,note_on,,,,,0,0,1,,,,0,,,49,25
72192,set_tempo,,,,,1024,1,0,,461538,,,,,,
72564,note_off,,,,,0,0,1,,,,0,,,54,0
72564,note_off,,,,,0,0,1,,,,0,,,49,0
72564,note_off,,,,,0,0,1,,,,0,,,46,0
72564,note_off,,,,,0,0,1,,,,0,,,73,0
72564,note_off,,,,,0,0,1,,,,0,,,66,0
72564,note_off,,,,,372,0,1,,,,0,,,61,0
72704,set_tempo,,,,,512,1,0,,428571,,,,,,
72704,note_on,,,,,0,0,1,,,,0,,,54,25
72704,note_on,,,,,0,0,1,,,,0,,,49,13
72704,note_on,,,,,0,0,1,,,,0,,,46,13
72704,note_on,,,,,0,0,1,,,,0,,,73,42
72704,note_on,,,,,0,0,1,,,,0,,,66,27
72704,note_on,,,,,0,0,1,,,,0,,,61,27
72704,control_change,,,,,0,0,1,,,,0,64,0,,
72704,control_change,,,,,140,0,1,,,,0,64,0,,
73728,note_off,,,,,0,0,1,,,,0,,,66,0
73728,note_off,,,,,1024,0,1,,,,0,,,61,0
73728,note_on,,,,,0,0,1,,,,0,,,71,40
73728,note_off,,,,,0,0,1,,,,0,,,54,0
73728,note_off,,,,,0,0,1,,,,0,,,49,0
73728,note_off,,,,,0,0,1,,,,0,,,46,0
73728,set_tempo,,,,,1024,1,0,,375000,,,,,,
73728,note_off,,,,,0,0,1,,,,0,,,73,0
74240,note_on,,,,,512,0,1,,,,0,,,70,33
74280,note_off,,,,,40,0,1,,,,0,,,71,0
74672,note_off,,,,,392,0,1,,,,0,,,70,0
74752,control_change,,,,,0,0,1,,,,0,64,0,,
74752,control_change,,,,,0,0,1,,,,0,64,0,,
74752,control_change,,,,,0,0,1,,,,0,64,0,,
74752,control_change,,,,,0,0,1,,,,0,64,0,,
74752,control_change,,,,,80,0,1,,,,0,64,0,,
74752,control_change,,,,,0,0,1,,,,0,64,0,,
74752,note_on,,,,,0,0,1,,,,0,,,37,24
74752,set_tempo,,,,,1024,1,0,,428571,,,,,,
74752,note_on,,,,,0,0,1,,,,0,,,68,38
75056,control_change,,,,,304,0,1,,,,0,64,127,,
75093,set_tempo,,,,,341,1,0,,333333,,,,,,
75093,note_off,,,,,37,0,1,,,,0,,,68,0
75093,note_on,,,,,0,0,1,,,,0,,,65,35
75093,note_on,,,,,0,0,1,,,,0,,,44,21
75093,note_off,,,,,0,0,1,,,,0,,,37,0
75435,note_off,,,,,342,0,1,,,,0,,,65,0
75435,note_on,,,,,0,0,1,,,,0,,,61,31
75435,note_on,,,,,0,0,1,,,,0,,,49,17
75435,note_off,,,,,0,0,1,,,,0,,,44,0
75776,note_off,,,,,341,0,1,,,,0,,,61,0
75776,note_on,,,,,0,0,1,,,,0,,,68,37
75776,note_on,,,,,0,0,1,,,,0,,,37,23
75776,note_off,,,,,0,0,1,,,,0,,,49,0
76117,note_on,,,,,0,0,1,,,,0,,,44,19
76117,note_off,,,,,0,0,1,,,,0,,,37,0
76117,note_on,,,,,0,0,1,,,,0,,,65,33
76117,note_off,,,,,341,0,1,,,,0,,,68,0
76459,note_off,,,,,342,0,1,,,,0,,,65,0
76459,note_on,,,,,0,0,1,,,,0,,,61,30
76459,note_on,,,,,0,0,1,,,,0,,,49,16
76459,note_off,,,,,0,0,1,,,,0,,,44,0
76800,control_change,,,,,341,0,1,,,,0,64,127,,
76800,control_change,,,,,0,0,1,,,,0,64,127,,
76800,note_off,,,,,0,0,1,,,,0,,,61,0
76800,note_on,,,,,0,0,1,,,,0,,,68,40
76800,note_on,,,,,0,0,1,,,,0,,,37,26
76800,note_off,,,,,0,0,1,,,,0,,,49,0
77141,note_off,,,,,0,0,1,,,,0,,,37,0
77141,note_on,,,,,0,0,1,,,,0,,,44,21
77141,note_on,,,,,0,0,1,,,,0,,,65,35
77141,note_off,,,,,341,0,1,,,,0,,,68,0
77483,note_on,,,,,0,0,1,,,,0,,,49,17
77483,note_off,,,,,0,0,1,,,,0,,,44,0
77483,note_on,,,,,0,0,1,,,,0,,,61,31
77483,note_off,,,,,342,0,1,,,,0,,,65,0
77824,note_on,,,,,0,0,1,,,,0,,,68,38
77824,note_off,,,,,341,0,1,,,,0,,,61,0
77824,note_on,,,,,0,0,1,,,,0,,,37,24
77824,note_off,,,,,0,0,1,,,,0,,,49,0
78165,note_off,,,,,0,0,1,,,,0,,,37,0
78165,note_off,,,,,341,0,1,,,,0,,,68,0
78165,note_on,,,,,0,0,1,,,,0,,,44,20
78165,note_on,,,,,0,0,1,,,,0,,,65,34
78507,note_off,,,,,342,0,1,,,,0,,,65,0
78507,note_on,,,,,0,0,1,,,,0,,,61,29
78507,note_on,,,,,0,0,1,,,,0,,,49,15
78507,note_off,,,,,0,0,1,,,,0,,,44,0
78667,control_change,,,,,160,0,1,,,,0,64,0,,
78710,control_change,,,,,43,0,1,,,,0,64,0,,
78848,control_change,,,,,138,0,1,,,,0,64,0,,
78848,control_change,,,,,0,0,1,,,,0,64,0,,
78848,set_tempo,,,,,3755,1,0,,375000,,,,,,
78848,note_off,,,,,0,0,1,,,,0,,,61,0
78848,note_off,,,,,0,0,1,,,,0,,,49,0
78848,note_on,,,,,0,0,1,,,,0,,,59,32
78848,note_on,,,,,0,0,1,,,,0,,,63,32
78848,note_on,,,,,0,0,1,,,,0,,,71,51
78848,note_on,,,,,0,0,1,,,,0,,,32,30
78848,note_on,,,,,0,0,1,,,,0,,,44,42
78848,control_change,,,,,0,0,1,,,,0,64,0,,
78848,control_change,,,,,0,0,1,,,,0,64,0,,
79220,note_off,,,,,372,0,1,,,,0,,,59,0
79220,note_off,,,,,0,0,1,,,,0,,,63,0
79220,note_off,,,,,0,0,1,,,,0,,,32,0
79220,note_off,,,,,0,0,1,,,,0,,,44,0
79220,note_off,,,,,0,0,1,,,,0,,,71,0
79360,note_on,,,,,0,0,1,,,,0,,,51,25
79360,note_on,,,,,0,0,1,,,,0,,,44,25
79360,note_on,,,,,0,0,1,,,,0,,,71,48
79360,note_on,,,,,0,0,1,,,,0,,,63,29
79360,note_on,,,,,140,0,1,,,,0,,,59,29
79360,set_tempo,,,,,512,1,0,,352941,,,,,,
79360,note_on,,,,,0,0,1,,,,0,,,56,37
79732,note_off,,,,,0,0,1,,,,0,,,56,0
79732,note_off,,,,,0,0,1,,,,0,,,63,0
79732,note_off,,,,,0,0,1,,,,0,,,71,0
79732,note_off,,,,,0,0,1,,,,0,,,51,0
79732,note_off,,,,,0,0,1,,,,0,,,44,0
79732,note_off,,,,,372,0,1,,,,0,,,59,0
79872,note_on,,,,,140,0,1,,,,0,,,59,27
79872,note_on,,,,,0,0,1,,,,0,,,63,27
79872,note_on,,,,,0,0,1,,,,0,,,71,46
79872,note_on,,,,,0,0,1,,,,0,,,44,25
79872,note_on,,,,,0,0,1,,,,0,,,51,25
79872,note_on,,,,,0,0,1,,,,0,,,56,37
80244,note_off,,,,,0,0,1,,,,0,,,44,0
80244,note_off,,,,,372,0,1,,,,0,,,59,0
80244,note_off,,,,,0,0,1,,,,0,,,63,0
80244,note_off,,,,,0,0,1,,,,0,,,71,0
80244,note_off,,,,,0,0,1,,,,0,,,51,0
80244,note_off,,,,,0,0,1,,,,0,,,56,0
80384,note_on,,,,,0,0,1,,,,0,,,56,37
80384,note_on,,,,,0,0,1,,,,0,,,51,25
80384,note_on,,,,,0,0,1,,,,0,,,44,25
80384,note_on,,,,,0,0,1,,,,0,,,71,43
80384,note_on,,,,,0,0,1,,,,0,,,63,24
80384,note_on,,,,,140,0,1,,,,0,,,59,24
80384,set_tempo,,,,,1024,1,0,,461538,,,,,,
80756,note_off,,,,,0,0,1,,,,0,,,71,0
80756,note_off,,,,,0,0,1,,,,0,,,63,0
80756,note_off,,,,,372,0,1,,,,0,,,59,0
80756,note_off,,,,,0,0,1,,,,0,,,51,0
80756,note_off,,,,,0,0,1,,,,0,,,44,0
80756,note_off,,,,,0,0,1,,,,0,,,56,0
80896,note_on,,,,,0,0,1,,,,0,,,44,13
80896,note_on,,,,,0,0,1,,,,0,,,71,42
80896,note_on,,,,,0,0,1,,,,0,,,63,27
80896,note_on,,,,,0,0,1,,,,0,,,59,27
80896,control_change,,,,,0,0,1,,,,0,64,0,,
80896,control_change,,,,,0,0,1,,,,0,64,0,,
80896,control_change,,,,,0,0,1,,,,0,64,0,,
80896,control_change,,,,,140,0,1,,,,0,64,0,,
80896,note_on,,,,,0,0,1,,,,0,,,56,25
80896,note_on,,,,,0,0,1,,,,0,,,51,13
80896,set_tempo,,,,,512,1,0,,400000,,,,,,
81920,set_tempo,,,,,1024,1,0,,375000,,,,,,
81920,note_on,,,,,0,0,1,,,,0,,,70,40
81920,note_off,,,,,0,0,1,,,,0,,,56,0
81920,note_off,,,,,0,0,1,,,,0,,,51,0
81920,note_off,,,,,0,0,1,,,,0,,,44,0
81920,note_off,,,,,0,0,1,,,,0,,,71,0
81920,note_off,,,,,1024,0,1,,,,0,,,59,0
81920,note_off,,,,,0,0,1,,,,0,,,63,0
82432,note_on,,,,,512,0,1,,,,0,,,68,33
82472,note_off,,,,,40,0,1,,,,0,,,70,0
82864,note_off,,,,,392,0,1,,,,0,,,68,0
82944,control_change,,,,,0,0,1,,,,0,64,0,,
82944,note_on,,,,,0,0,1,,,,0,,,39,24
82944,note_on,,,,,0,0,1,,,,0,,,66,38
82944,control_change,,,,,0,0,1,,,,0,64,0,,
82944,set_tempo,,,,,1024,1,0,,428571,,,,,,
82944,control_change,,,,,0,0,1,,,,0,64,0,,
82944,control_change,,,,,80,0,1,,,,0,64,0,,
82944,control_change,,,,,0,0,1,,,,0,64,0,,
82944,control_change,,,,,0,0,1,,,,0,64,0,,
82944,control_change,,,,,0,0,1,,,,0,64,0,,
82944,control_change,,,,,0,0,1,,,,0,64,0,,
83248,control_change,,,,,304,0,1,,,,0,64,127,,
83285,note_on,,,,,0,0,1,,,,0,,,46,21
83285,note_off,,,,,0,0,1,,,,0,,,39,0
83285,set_tempo,,,,,341,1,0,,333333,,,,,,
83285,note_off,,,,,37,0,1,,,,0,,,66,0
83285,note_on,,,,,0,0,1,,,,0,,,63,35
83627,note_off,,,,,342,0,1,,,,0,,,63,0
83627,note_on,,,,,0,0,1,,,,0,,,51,17
83627,note_off,,,,,0,0,1,,,,0,,,46,0
83627,note_on,,,,,0,0,1,,,,0,,,58,31
83968,note_off,,,,,341,0,1,,,,0,,,58,0
83968,note_on,,,,,0,0,1,,,,0,,,66,37
83968,note_on,,,,,0,0,1,,,,0,,,39,23
83968,note_off,,,,,0,0,1,,,,0,,,51,0
84309,note_on,,,,,0,0,1,,,,0,,,63,33
84309,note_off,,,,,341,0,1,,,,0,,,66,0
84309,note_on,,,,,0,0,1,,,,0,,,46,19
84309,note_off,,,,,0,0,1,,,,0,,,39,0
84651,note_off,,,,,0,0,1,,,,0,,,46,0
84651,note_on,,,,,0,0,1,,,,0,,,51,16
84651,note_off,,,,,342,0,1,,,,0,,,63,0
84651,note_on,,,,,0,0,1,,,,0,,,58,30
84992,note_off,,,,,0,0,1,,,,0,,,58,0
84992,control_change,,,,,0,0,1,,,,0,64,127,,
84992,control_change,,,,,341,0,1,,,,0,64,127,,
84992,note_on,,,,,0,0,1,,,,0,,,66,40
84992,note_on,,,,,0,0,1,,,,0,,,39,26
84992,note_off,,,,,0,0,1,,,,0,,,51,0
85333,note_off,,,,,0,0,1,,,,0,,,39,0
85333,note_on,,,,,0,0,1,,,,0,,,46,21
85333,note_on,,,,,0,0,1,,,,0,,,63,35
85333,note_off,,,,,341,0,1,,,,0,,,66,0
85675,note_on,,,,,0,0,1,,,,0,,,51,17
85675,note_off,,,,,0,0,1,,,,0,,,46,0
85675,note_off,,,,,342,0,1,,,,0,,,63,0
85675,note_on,,,,,0,0,1,,,,0,,,58,31
86016,note_on,,,,,0,0,1,,,,0,,,66,38
86016,note_on,,,,,0,0,1,,,,0,,,39,24
86016,note_off,,,,,0,0,1,,,,0,,,51,0
86016,note_off,,,,,341,0,1,,,,0,,,58,0
86357,note_off,,,,,341,0,1,,,,0,,,66,0
86357,note_on,,,,,0,0,1,,,,0,,,63,34
86357,note_on,,,,,0,0,1,,,,0,,,46,20
86357,note_off,,,,,0,0,1,,,,0,,,39,0
86699,note_off,,,,,342,0,1,,,,0,,,63,0
86699,note_off,,,,,0,0,1,,,,0,,,46,0
86699,note_on,,,,,0,0,1,,,,0,,,58,29
86699,note_on,,,,,0,0,1,,,,0,,,51,15
86859,control_change,,,,,160,0,1,,,,0,64,0,,
86902,control_change,,,,,43,0,1,,,,0,64,0,,
87040,note_off,,,,,0,0,1,,,,0,,,51,0
87040,note_on,,,,,0,0,1,,,,0,,,58,32
87040,note_on,,,,,0,0,1,,,,0,,,70,51
87040,note_on,,,,,0,0,1,,,,0,,,63,32
87040,note_on,,,,,0,0,1,,,,0,,,42,30
87040,note_on,,,,,0,0,1,,,,0,,,51,42
87040,note_on,,,,,0,0,1,,,,0,,,54,30
87040,control_change,,,,,0,0,1,,,,0,64,0,,
87040,control_change,,,,,0,0,1,,,,0,64,0,,
87040,note_off,,,,,0,0,1,,,,0,,,58,0
87040,control_change,,,,,0,0,1,,,,0,64,0,,
87040,control_change,,,,,0,0,1,,,,0,64,0,,
87040,control_change,,,,,138,0,1,,,,0,64,0,,
87040,set_tempo,,,,,3755,1,0,,461538,,,,,,
87040,control_change,,,,,0,0,1,,,,0,64,0,,
87552,note_on,,,,,0,0,1,,,,0,,,54,37
87552,note_on,,,,,0,0,1,,,,0,,,51,25
87552,note_on,,,,,0,0,1,,,,0,,,42,25
87552,note_on,,,,,0,0,1,,,,0,,,70,48
87552,note_on,,,,,0,0,1,,,,0,,,63,29
87552,note_on,,,,,0,0,1,,,,0,,,58,29
87552,note_off,,,,,0,0,1,,,,0,,,54,0
87552,note_off,,,,,0,0,1,,,,0,,,51,0
87552,note_off,,,,,0,0,1,,,,0,,,70,0
87552,note_off,,,,,0,0,1,,,,0,,,63,0
87552,note_off,,,,,512,0,1,,,,0,,,58,0
87552,set_tempo,,,,,512,1,0,,352941,,,,,,
87552,note_off,,,,,0,0,1,,,,0,,,42,0
88064,note_on,,,,,0,0,1,,,,0,,,70,46
88064,note_on,,,,,0,0,1,,,,0,,,58,27
88064,note_on,,,,,0,0,1,,,,0,,,63,27
88064,note_off,,,,,0,0,1,,,,0,,,51,0
88064,note_off,,,,,0,0,1,,,,0,,,54,0
88064,note_off,,,,,0,0,1,,,,0,,,42,0
88064,note_on,,,,,0,0,1,,,,0,,,51,25
88064,note_off,,,,,0,0,1,,,,0,,,63,0
88064,note_off,,,,,512,0,1,,,,0,,,58,0
88064,note_on,,,,,0,0,1,,,,0,,,42,25
88064,note_on,,,,,0,0,1,,,,0,,,54,37
88064,note_off,,,,,0,0,1,,,,0,,,70,0
88576,note_on,,,,,0,0,1,,,,0,,,58,28
88576,note_on,,,,,0,0,1,,,,0,,,63,28
88576,note_on,,,,,0,0,1,,,,0,,,42,25
88576,note_off,,,,,0,0,1,,,,0,,,54,0
88576,note_on,,,,,0,0,1,,,,0,,,70,47
88576,note_on,,,,,0,0,1,,,,0,,,51,25
88576,note_off,,,,,0,0,1,,,,0,,,51,0
88576,note_on,,,,,0,0,1,,,,0,,,54,37
88576,note_off,,,,,0,0,1,,,,0,,,70,0
88576,note_off,,,,,0,0,1,,,,0,,,63,0
88576,note_off,,,,,512,0,1,,,,0,,,58,0
88576,set_tempo,,,,,1024,1,0,,461538,,,,,,
88576,note_off,,,,,0,0,1,,,,0,,,42,0
89088,note_on,,,,,0,0,1,,,,0,,,42,13
89088,note_on,,,,,0,0,1,,,,0,,,63,32
89088,note_on,,,,,0,0,1,,,,0,,,58,32
89088,note_off,,,,,0,0,1,,,,0,,,54,0
89088,note_off,,,,,0,0,1,,,,0,,,51,0
89088,note_off,,,,,0,0,1,,,,0,,,42,0
89088,note_off,,,,,0,0,1,,,,0,,,70,0
89088,note_off,,,,,0,0,1,,,,0,,,63,0
89088,control_change,,,,,0,0,1,,,,0,64,0,,
89088,control_change,,,,,0,0,1,,,,0,64,0,,
89088,control_change,,,,,0,0,1,,,,0,64,0,,
89088,control_change,,,,,0,0,1,,,,0,64,0,,
89088,control_change,,,,,0,0,1,,,,0,64,0,,
89088,control_change,,,,,512,0,1,,,,0,64,0,,
89088,set_tempo,,,,,512,1,0,,428571,,,,,,
89088,note_on,,,,,0,0,1,,,,0,,,51,13
89088,note_off,,,,,0,0,1,,,,0,,,58,0
89088,note_on,,,,,0,0,1,,,,0,,,54,25
89088,note_on,,,,,0,0,1,,,,0,,,70,47
90112,set_tempo,,,,,1024,1,0,,400000,,,,,,
90112,note_off,,,,,0,0,1,,,,0,,,63,0
90112,note_off,,,,,0,0,1,,,,0,,,70,0
90112,note_off,,,,,0,0,1,,,,0,,,42,0
90112,note_off,,,,,0,0,1,,,,0,,,51,0
90112,note_off,,,,,0,0,1,,,,0,,,54,0
90112,note_on,,,,,0,0,1,,,,0,,,58,31
90112,note_on,,,,,0,0,1,,,,0,,,63,31
90112,note_on,,,,,0,0,1,,,,0,,,68,40
90112,note_on,,,,,0,0,1,,,,0,,,39,17
90112,note_on,,,,,0,0,1,,,,0,,,51,24
90112,note_off,,,,,1024,0,1,,,,0,,,58,0
90624,note_on,,,,,512,0,1,,,,0,,,66,33
90664,note_off,,,,,40,0,1,,,,0,,,68,0
91056,note_off,,,,,392,0,1,,,,0,,,58,0
91056,note_off,,,,,0,0,1,,,,0,,,63,0
91056,note_off,,,,,0,0,1,,,,0,,,66,0
91136,control_change,,,,,80,0,1,,,,0,64,0,,
91136,control_change,,,,,0,0,1,,,,0,64,127,,
91136,control_change,,,,,0,0,1,,,,0,64,0,,
91136,control_change,,,,,0,0,1,,,,0,64,0,,
91136,note_off,,,,,0,0,1,,,,0,,,39,0
91136,note_off,,,,,0,0,1,,,,0,,,51,0
91136,note_on,,,,,0,0,1,,,,0,,,65,40
91136,note_on,,,,,0,0,1,,,,0,,,34,22
91136,set_tempo,,,,,1024,1,0,,428571,,,,,,
91216,control_change,,,,,80,0,1,,,,0,64,0,,
91402,control_change,,,,,186,0,1,,,,0,64,127,,
91477,note_on,,,,,75,0,1,,,,0,,,62,28
91477,set_tempo,,,,,341,1,0,,352941,,,,,,
91648,note_off,,,,,171,0,1,,,,0,,,34,0
91819,note_on,,,,,0,0,1,,,,0,,,58,25
91819,note_off,,,,,171,0,1,,,,0,,,62,0
92147,control_change,,,,,328,0,1,,,,0,64,0,,
92160,note_on,,,,,0,0,1,,,,0,,,46,45
92160,note_off,,,,,13,0,1,,,,0,,,58,0
92160,note_on,,,,,0,0,1,,,,0,,,70,43
92210,note_off,,,,,50,0,1,,,,0,,,65,0
92359,control_change,,,,,149,0,1,,,,0,64,127,,
92501,note_on,,,,,142,0,1,,,,0,,,62,31
92843,note_off,,,,,342,0,1,,,,0,,,62,0
92843,note_on,,,,,0,0,1,,,,0,,,58,28
93184,control_change,,,,,0,0,1,,,,0,64,0,,
93184,control_change,,,,,341,0,1,,,,0,64,0,,
93184,control_change,,,,,0,0,1,,,,0,64,127,,
93184,note_off,,,,,0,0,1,,,,0,,,58,0
93184,control_change,,,,,0,0,1,,,,0,64,0,,
93184,note_on,,,,,0,0,1,,,,0,,,69,46
93234,note_off,,,,,50,0,1,,,,0,,,70,0
93264,control_change,,,,,30,0,1,,,,0,64,0,,
93450,control_change,,,,,186,0,1,,,,0,64,127,,
93525,note_on,,,,,75,0,1,,,,0,,,62,34
93867,note_off,,,,,342,0,1,,,,0,,,62,0
93867,note_on,,,,,0,0,1,,,,0,,,58,30
94195,control_change,,,,,328,0,1,,,,0,64,0,,
94208,set_tempo,,,,,2731,1,0,,352941,,,,,,
94208,note_off,,,,,13,0,1,,,,0,,,58,0
94208,note_on,,,,,0,0,1,,,,0,,,68,48
94258,note_off,,,,,50,0,1,,,,0,,,69,0
94407,control_change,,,,,149,0,1,,,,0,64,127,,
94549,note_on,,,,,142,0,1,,,,0,,,62,36
94891,note_off,,,,,342,0,1,,,,0,,,62,0
94891,note_on,,,,,0,0,1,,,,0,,,58,33
95232,set_tempo,,,,,1024,1,0,,375000,,,,,,
95232,note_off,,,,,0,0,1,,,,0,,,58,0
95232,control_change,,,,,0,0,1,,,,0,64,0,,
95232,control_change,,,,,341,0,1,,,,0,64,0,,
95232,control_change,,,,,0,0,1,,,,0,64,127,,
95232,control_change,,,,,0,0,1,,,,0,64,0,,
95232,note_on,,,,,0,0,1,,,,0,,,67,51
95282,note_off,,,,,50,0,1,,,,0,,,68,0
95312,control_change,,,,,30,0,1,,,,0,64,0,,
95498,control_change,,,,,186,0,1,,,,0,64,127,,
95573,note_on,,,,,75,0,1,,,,0,,,63,39
95915,note_off,,,,,342,0,1,,,,0,,,63,0
95915,note_on,,,,,0,0,1,,,,0,,,58,36
96243,control_change,,,,,328,0,1,,,,0,64,0,,
96256,note_off,,,,,13,0,1,,,,0,,,58,0
96256,note_on,,,,,0,0,1,,,,0,,,72,53
96256,note_on,,,,,0,0,1,,,,0,,,56,32
96256,set_tempo,,,,,1024,1,0,,461538,,,,,,
96306,note_off,,,,,50,0,1,,,,0,,,67,0
96455,control_change,,,,,149,0,1,,,,0,64,127,,
96597,note_on,,,,,142,0,1,,,,0,,,63,39
96597,set_tempo,,,,,341,1,0,,375000,,,,,,
96939,note_off,,,,,342,0,1,,,,0,,,63,0
96939,note_on,,,,,0,0,1,,,,0,,,58,33
97280,note_on,,,,,0,0,1,,,,0,,,55,28
97280,note_on,,,,,0,0,1,,,,0,,,70,49
97280,control_change,,,,,341,0,1,,,,0,64,0,,
97280,control_change,,,,,0,0,1,,,,0,64,127,,
97280,control_change,,,,,0,0,1,,,,0,64,0,,
97280,control_change,,,,,0,0,1,,,,0,64,0,,
97280,note_off,,,,,0,0,1,,,,0,,,58,0
97330,note_off,,,,,0,0,1,,,,0,,,56,0
97330,note_off,,,,,50,0,1,,,,0,,,72,0
97360,control_change,,,,,30,0,1,,,,0,64,0,,
97546,control_change,,,,,186,0,1,,,,0,64,127,,
97621,note_on,,,,,75,0,1,,,,0,,,63,34
97621,set_tempo,,,,,1024,1,0,,352941,,,,,,
97963,note_off,,,,,342,0,1,,,,0,,,63,0
97963,note_on,,,,,0,0,1,,,,0,,,58,29
98291,control_change,,,,,328,0,1,,,,0,64,0,,
98304,note_on,,,,,0,0,1,,,,0,,,67,44
98304,set_tempo,,,,,683,1,0,,333333,,,,,,
98304,note_off,,,,,13,0,1,,,,0,,,58,0
98304,note_on,,,,,0,0,1,,,,0,,,51,25
98354,note_off,,,,,50,0,1,,,,0,,,70,0
98354,note_off,,,,,0,0,1,,,,0,,,55,0
98503,control_change,,,,,149,0,1,,,,0,64,127,,
98645,note_on,,,,,142,0,1,,,,0,,,63,27
98987,note_off,,,,,342,0,1,,,,0,,,63,0
98987,note_on,,,,,0,0,1,,,,0,,,58,21
99328,control_change,,,,,0,0,1,,,,0,64,0,,
99328,control_change,,,,,0,0,1,,,,0,64,127,,
99328,set_tempo,,,,,1024,1,0,,428571,,,,,,
99328,note_on,,,,,0,0,1,,,,0,,,34,22
99328,note_on,,,,,0,0,1,,,,0,,,65,40
99328,note_off,,,,,0,0,1,,,,0,,,46,0
99328,control_change,,,,,0,0,1,,,,0,64,0,,
99328,control_change,,,,,0,0,1,,,,0,64,0,,
99328,control_change,,,,,0,0,1,,,,0,64,0,,
99328,control_change,,,,,341,0,1,,,,0,64,0,,
99328,note_off,,,,,0,0,1,,,,0,,,58,0
99378,note_off,,,,,50,0,1,,,,0,,,67,0
99378,note_off,,,,,0,0,1,,,,0,,,51,0
99408,control_change,,,,,30,0,1,,,,0,64,0,,
99594,control_change,,,,,186,0,1,,,,0,64,127,,
99669,set_tempo,,,,,341,1,0,,333333,,,,,,
99669,note_on,,,,,75,0,1,,,,0,,,62,28
99840,note_off,,,,,171,0,1,,,,0,,,34,0
100011,note_off,,,,,171,0,1,,,,0,,,62,0
100011,note_on,,,,,0,0,1,,,,0,,,58,25
100339,control_change,,,,,328,0,1,,,,0,64,0,,
100352,note_on,,,,,0,0,1,,,,0,,,70,43
100352,note_off,,,,,13,0,1,,,,0,,,58,0
100352,note_on,,,,,0,0,1,,,,0,,,46,41
100402,note_off,,,,,50,0,1,,,,0,,,65,0
100551,control_change,,,,,149,0,1,,,,0,64,127,,
100693,note_on,,,,,142,0,1,,,,0,,,62,31
101035,note_on,,,,,0,0,1,,,,0,,,58,28
101035,note_off,,,,,342,0,1,,,,0,,,62,0
101376,control_change,,,,,0,0,1,,,,0,64,0,,
101376,control_change,,,,,341,0,1,,,,0,64,0,,
101376,note_on,,,,,0,0,1,,,,0,,,69,46
101376,note_off,,,,,0,0,1,,,,0,,,58,0
101376,control_change,,,,,0,0,1,,,,0,64,0,,
101376,control_change,,,,,0,0,1,,,,0,64,0,,
101376,control_change,,,,,0,0,1,,,,0,64,127,,
101376,control_change,,,,,0,0,1,,,,0,64,0,,
101426,note_off,,,,,50,0,1,,,,0,,,70,0
101456,control_change,,,,,30,0,1,,,,0,64,0,,
101642,control_change,,,,,186,0,1,,,,0,64,127,,
101717,note_on,,,,,75,0,1,,,,0,,,62,34
102059,note_on,,,,,0,0,1,,,,0,,,58,30
102059,note_off,,,,,342,0,1,,,,0,,,62,0
102387,control_change,,,,,328,0,1,,,,0,64,0,,
102400,note_on,,,,,0,0,1,,,,0,,,68,48
102400,note_off,,,,,13,0,1,,,,0,,,58,0
102450,note_off,,,,,50,0,1,,,,0,,,69,0
102599,control_change,,,,,149,0,1,,,,0,64,127,,
102741,note_on,,,,,142,0,1,,,,0,,,62,36
103083,note_off,,,,,342,0,1,,,,0,,,62,0
103083,note_on,,,,,0,0,1,,,,0,,,58,33
103424,control_change,,,,,341,0,1,,,,0,64,0,,
103424,control_change,,,,,0,0,1,,,,0,64,0,,
103424,control_change,,,,,0,0,1,,,,0,64,127,,
103424,control_change,,,,,0,0,1,,,,0,64,0,,
103424,control_change,,,,,0,0,1,,,,0,64,0,,
103424,control_change,,,,,0,0,1,,,,0,64,0,,
103424,note_off,,,,,0,0,1,,,,0,,,58,0
103424,note_on,,,,,0,0,1,,,,0,,,67,51
103474,note_off,,,,,50,0,1,,,,0,,,68,0
103504,control_change,,,,,30,0,1,,,,0,64,0,,
103690,control_change,,,,,186,0,1,,,,0,64,127,,
103765,note_on,,,,,75,0,1,,,,0,,,63,39
104107,note_off,,,,,342,0,1,,,,0,,,63,0
104107,note_on,,,,,0,0,1,,,,0,,,58,36
104435,control_change,,,,,328,0,1,,,,0,64,0,,
104448,note_off,,,,,13,0,1,,,,0,,,58,0
104448,note_on,,,,,0,0,1,,,,0,,,72,53
104448,note_on,,,,,0,0,1,,,,0,,,56,32
104448,set_tempo,,,,,4779,1,0,,400000,,,,,,
104498,note_off,,,,,50,0,1,,,,0,,,67,0
104647,control_change,,,,,149,0,1,,,,0,64,127,,
104789,note_on,,,,,142,0,1,,,,0,,,63,39
104789,set_tempo,,,,,341,1,0,,375000,,,,,,
105131,note_on,,,,,0,0,1,,,,0,,,58,33
105131,note_off,,,,,342,0,1,,,,0,,,63,0
105472,note_on,,,,,0,0,1,,,,0,,,70,49
105472,note_on,,,,,0,0,1,,,,0,,,55,28
105472,note_off,,,,,0,0,1,,,,0,,,58,0
105472,control_change,,,,,0,0,1,,,,0,64,0,,
105472,control_change,,,,,0,0,1,,,,0,64,0,,
105472,control_change,,,,,0,0,1,,,,0,64,0,,
105472,control_change,,,,,0,0,1,,,,0,64,127,,
105472,control_change,,,,,0,0,1,,,,0,64,0,,
105472,control_change,,,,,341,0,1,,,,0,64,0,,
105522,note_off,,,,,0,0,1,,,,0,,,56,0
105522,note_off,,,,,50,0,1,,,,0,,,72,0
105552,control_change,,,,,30,0,1,,,,0,64,0,,
105738,control_change,,,,,186,0,1,,,,0,64,127,,
105813,set_tempo,,,,,1024,1,0,,352941,,,,,,
105813,note_on,,,,,75,0,1,,,,0,,,63,34
106155,note_off,,,,,342,0,1,,,,0,,,63,0
106155,note_on,,,,,0,0,1,,,,0,,,58,29
106483,control_change,,,,,328,0,1,,,,0,64,0,,
106496,note_on,,,,,0,0,1,,,,0,,,51,25
106496,note_on,,,,,0,0,1,,,,0,,,67,44
106496,note_off,,,,,13,0,1,,,,0,,,58,0
106496,set_tempo,,,,,683,1,0,,333333,,,,,,
106546,note_off,,,,,0,0,1,,,,0,,,55,0
106546,note_off,,,,,50,0,1,,,,0,,,70,0
106695,control_change,,,,,149,0,1,,,,0,64,127,,
106837,note_on,,,,,142,0,1,,,,0,,,63,27
107179,note_off,,,,,342,0,1,,,,0,,,63,0
107179,note_on,,,,,0,0,1,,,,0,,,58,21
107520,set_tempo,,,,,1024,1,0,,428571,,,,,,
107520,control_change,,,,,0,0,1,,,,0,64,0,,
107520,control_change,,,,,0,0,1,,,,0,64,0,,
107520,control_change,,,,,341,0,1,,,,0,64,0,,
107520,control_change,,,,,0,0,1,,,,0,64,0,,
107520,control_change,,,,,0,0,1,,,,0,64,0,,
107520,control_change,,,,,0,0,1,,,,0,64,127,,
107520,control_change,,,,,0,0,1,,,,0,64,0,,
107520,control_change,,,,,0,0,1,,,,0,64,0,,
107520,note_off,,,,,0,0,1,,,,0,,,58,0
107520,note_off,,,,,0,0,1,,,,0,,,46,0
107520,note_on,,,,,0,0,1,,,,0,,,65,40
107520,note_on,,,,,0,0,1,,,,0,,,34,22
107570,note_off,,,,,0,0,1,,,,0,,,51,0
107570,note_off,,,,,50,0,1,,,,0,,,67,0
107600,control_change,,,,,30,0,1,,,,0,64,0,,
107786,control_change,,,,,186,0,1,,,,0,64,127,,
107861,set_tempo,,,,,341,1,0,,333333,,,,,,
107861,note_on,,,,,75,0,1,,,,0,,,62,28
108032,note_off,,,,,171,0,1,,,,0,,,34,0
108203,note_on,,,,,0,0,1,,,,0,,,58,25
108203,note_off,,,,,171,0,1,,,,0,,,62,0
108531,control_change,,,,,328,0,1,,,,0,64,0,,
108544,note_off,,,,,13,0,1,,,,0,,,58,0
108544,note_on,,,,,0,0,1,,,,0,,,46,33
108544,note_on,,,,,0,0,1,,,,0,,,70,43
108594,note_off,,,,,50,0,1,,,,0,,,65,0
108743,control_change,,,,,149,0,1,,,,0,64,127,,
108885,note_on,,,,,142,0,1,,,,0,,,62,31
109227,note_off,,,,,342,0,1,,,,0,,,62,0
109227,note_on,,,,,0,0,1,,,,0,,,58,28
109568,note_on,,,,,0,0,1,,,,0,,,69,46
109568,note_off,,,,,0,0,1,,,,0,,,58,0
109568,control_change,,,,,0,0,1,,,,0,64,0,,
109568,control_change,,,,,0,0,1,,,,0,64,0,,
109568,control_change,,,,,0,0,1,,,,0,64,127,,
109568,control_change,,,,,0,0,1,,,,0,64,0,,
109568,control_change,,,,,0,0,1,,,,0,64,0,,
109568,control_change,,,,,341,0,1,,,,0,64,0,,
109568,control_change,,,,,0,0,1,,,,0,64,0,,
109568,control_change,,,,,0,0,1,,,,0,64,0,,
109618,note_off,,,,,50,0,1,,,,0,,,70,0
109648,control_change,,,,,30,0,1,,,,0,64,0,,
109834,control_change,,,,,186,0,1,,,,0,64,127,,
109909,note_on,,,,,75,0,1,,,,0,,,62,34
110251,note_on,,,,,0,0,1,,,,0,,,58,30
110251,note_off,,,,,342,0,1,,,,0,,,62,0
110579,control_change,,,,,328,0,1,,,,0,64,0,,
110592,note_on,,,,,0,0,1,,,,0,,,53,28
110592,note_on,,,,,0,0,1,,,,0,,,68,48
110592,note_off,,,,,13,0,1,,,,0,,,58,0
110642,note_off,,,,,50,0,1,,,,0,,,69,0
110791,control_change,,,,,149,0,1,,,,0,64,127,,
110933,note_on,,,,,142,0,1,,,,0,,,62,35
111275,note_on,,,,,0,0,1,,,,0,,,58,32
111275,note_off,,,,,342,0,1,,,,0,,,62,0
111616,control_change,,,,,0,0,1,,,,0,64,0,,
111616,note_on,,,,,0,0,1,,,,0,,,52,33
111616,note_on,,,,,0,0,1,,,,0,,,67,51
111616,note_off,,,,,0,0,1,,,,0,,,58,0
111616,control_change,,,,,0,0,1,,,,0,64,0,,
111616,control_change,,,,,0,0,1,,,,0,64,0,,
111616,control_change,,,,,0,0,1,,,,0,64,0,,
111616,set_tempo,,,,,3755,1,0,,400000,,,,,,
111616,control_change,,,,,0,0,1,,,,0,64,127,,
111616,control_change,,,,,0,0,1,,,,0,64,0,,
111616,control_change,,,,,0,0,1,,,,0,64,0,,
111616,control_change,,,,,341,0,1,,,,0,64,0,,
111656,note_off,,,,,40,0,1,,,,0,,,53,0
111666,note_off,,,,,10,0,1,,,,0,,,68,0
111696,control_change,,,,,30,0,1,,,,0,64,0,,
111882,control_change,,,,,186,0,1,,,,0,64,127,,
111957,set_tempo,,,,,341,1,0,,352941,,,,,,
111957,note_on,,,,,75,0,1,,,,0,,,61,35
112299,note_off,,,,,342,0,1,,,,0,,,61,0
112299,note_on,,,,,0,0,1,,,,0,,,58,32
112627,control_change,,,,,328,0,1,,,,0,64,0,,
112640,note_on,,,,,0,0,1,,,,0,,,53,29
112640,note_on,,,,,0,0,1,,,,0,,,68,48
112640,note_off,,,,,13,0,1,,,,0,,,58,0
112640,set_tempo,,,,,683,1,0,,375000,,,,,,
112680,note_off,,,,,40,0,1,,,,0,,,52,0
112690,note_off,,,,,10,0,1,,,,0,,,67,0
112839,control_change,,,,,149,0,1,,,,0,64,127,,
112981,note_on,,,,,142,0,1,,,,0,,,62,32
113323,note_on,,,,,0,0,1,,,,0,,,58,26
113323,set_tempo,,,,,683,1,0,,400000,,,,,,
113323,note_off,,,,,342,0,1,,,,0,,,62,0
113664,control_change,,,,,0,0,1,,,,0,64,0,,
113664,control_change,,,,,0,0,1,,,,0,64,0,,
113664,control_change,,,,,341,0,1,,,,0,64,0,,
113664,control_change,,,,,0,0,1,,,,0,64,0,,
113664,control_change,,,,,0,0,1,,,,0,64,0,,
113664,control_change,,,,,0,0,1,,,,0,64,127,,
113664,control_change,,,,,0,0,1,,,,0,64,0,,
113664,control_change,,,,,0,0,1,,,,0,64,0,,
113664,set_tempo,,,,,341,1,0,,428571,,,,,,
113664,note_off,,,,,0,0,1,,,,0,,,58,0
113664,note_on,,,,,0,0,1,,,,0,,,67,40
113664,note_on,,,,,0,0,1,,,,0,,,55,26
113704,note_off,,,,,40,0,1,,,,0,,,53,0
113714,note_off,,,,,10,0,1,,,,0,,,68,0
113744,control_change,,,,,30,0,1,,,,0,64,0,,
113930,control_change,,,,,186,0,1,,,,0,64,127,,
114005,note_on,,,,,75,0,1,,,,0,,,63,27
114005,set_tempo,,,,,341,1,0,,461538,,,,,,
114347,note_off,,,,,342,0,1,,,,0,,,63,0
114347,note_on,,,,,0,0,1,,,,0,,,58,17
114675,control_change,,,,,328,0,1,,,,0,64,0,,
114688,set_tempo,,,,,683,1,0,,500000,,,,,,
114688,note_off,,,,,13,0,1,,,,0,,,58,0
114688,note_on,,,,,0,0,1,,,,0,,,65,32
114688,note_on,,,,,0,0,1,,,,0,,,56,14
114728,note_off,,,,,40,0,1,,,,0,,,55,0
114738,note_off,,,,,10,0,1,,,,0,,,67,0
114887,control_change,,,,,149,0,1,,,,0,64,127,,
115029,set_tempo,,,,,341,1,0,,545454,,,,,,
115029,note_on,,,,,142,0,1,,,,0,,,62,16
115287,control_change,,,,,258,0,1,,,,0,64,0,,
115371,note_off,,,,,84,0,1,,,,0,,,62,0
115371,note_on,,,,,0,0,1,,,,0,,,58,12
115712,note_off,,,,,0,0,1,,,,0,,,58,0
115712,key_signature,,,,,683,1,0,Eb,,,,,,,
115712,set_tempo,,,,,0,1,0,,333333,,,,,,
115712,control_change,,,,,341,0,1,,,,0,64,0,,
115712,note_off,,,,,0,0,1,,,,0,,,46,0
115712,control_change,,,,,0,0,1,,,,0,64,0,,
115752,note_off,,,,,40,0,1,,,,0,,,56,0
115762,note_off,,,,,10,0,1,,,,0,,,65,0
117760,control_change,,,,,0,0,1,,,,0,64,0,,
117760,control_change,,,,,1998,0,1,,,,0,64,0,,
119552,set_tempo,,,,,3840,1,0,,375000,,,,,,
119552,note_on,,,,,0,0,1,,,,0,,,70,43
119552,note_on,,,,,1792,0,1,,,,0,,,58,34
119808,note_on,,,,,0,0,1,,,,0,,,39,31
119808,note_on,,,,,0,0,1,,,,0,,,70,50
119808,control_change,,,,,256,0,1,,,,0,64,0,,
119808,control_change,,,,,0,0,1,,,,0,64,0,,
119808,control_change,,,,,0,0,1,,,,0,64,0,,
119808,control_change,,,,,0,0,1,,,,0,64,0,,
119808,note_off,,,,,0,0,1,,,,0,,,58,0
119808,note_off,,,,,0,0,1,,,,0,,,70,0
119808,note_on,,,,,0,0,1,,,,0,,,58,36
119808,set_tempo,,,,,256,1,0,,333333,,,,,,
120097,control_change,,,,,289,0,1,,,,0,64,127,,
120149,note_on,,,,,52,0,1,,,,0,,,46,26
120491,note_on,,,,,342,0,1,,,,0,,,51,26
120832,note_on,,,,,0,0,1,,,,0,,,39,26
120832,note_off,,,,,341,0,1,,,,0,,,58,0
120832,note_off,,,,,0,0,1,,,,0,,,70,0
120832,note_off,,,,,0,0,1,,,,0,,,39,0
120832,note_off,,,,,0,0,1,,,,0,,,46,0
120832,note_off,,,,,0,0,1,,,,0,,,51,0
120832,note_on,,,,,0,0,1,,,,0,,,67,40
120858,control_change,,,,,26,0,1,,,,0,64,0,,
121068,control_change,,,,,210,0,1,,,,0,64,0,,
121173,note_on,,,,,105,0,1,,,,0,,,46,26
121305,control_change,,,,,132,0,1,,,,0,64,127,,
121344,note_off,,,,,39,0,1,,,,0,,,67,0
121515,note_on,,,,,171,0,1,,,,0,,,51,26
121600,note_on,,,,,85,0,1,,,,0,,,58,28
121600,note_on,,,,,0,0,1,,,,0,,,70,42
121600,set_tempo,,,,,1792,1,0,,375000,,,,,,
121646,control_change,,,,,46,0,1,,,,0,64,0,,
121856,note_on,,,,,0,0,1,,,,0,,,38,31
121856,note_off,,,,,0,0,1,,,,0,,,51,0
121856,note_off,,,,,0,0,1,,,,0,,,46,0
121856,note_off,,,,,0,0,1,,,,0,,,39,0
121856,note_off,,,,,0,0,1,,,,0,,,70,0
121856,control_change,,,,,0,0,1,,,,0,64,0,,
121856,control_change,,,,,0,0,1,,,,0,64,0,,
121856,control_change,,,,,0,0,1,,,,0,64,0,,
121856,note_on,,,,,0,0,1,,,,0,,,58,36
121856,control_change,,,,,210,0,1,,,,0,64,0,,
121856,note_off,,,,,0,0,1,,,,0,,,58,0
121856,note_on,,,,,0,0,1,,,,0,,,70,50
121856,control_change,,,,,0,0,1,,,,0,64,0,,
121856,set_tempo,,,,,256,1,0,,333333,,,,,,
122145,control_change,,,,,289,0,1,,,,0,64,127,,
122197,note_on,,,,,52,0,1,,,,0,,,46,26
122539,note_on,,,,,342,0,1,,,,0,,,50,26
122880,note_on,,,,,0,0,1,,,,0,,,38,26
122880,note_off,,,,,0,0,1,,,,0,,,50,0
122880,note_on,,,,,0,0,1,,,,0,,,65,40
122880,note_off,,,,,0,0,1,,,,0,,,38,0
122880,note_off,,,,,0,0,1,,,,0,,,70,0
122880,note_off,,,,,341,0,1,,,,0,,,58,0
122880,note_off,,,,,0,0,1,,,,0,,,46,0
122906,control_change,,,,,26,0,1,,,,0,64,0,,
123116,control_change,,,,,210,0,1,,,,0,64,0,,
123221,note_on,,,,,105,0,1,,,,0,,,46,26
123353,control_change,,,,,132,0,1,,,,0,64,127,,
123392,note_off,,,,,39,0,1,,,,0,,,65,0
123563,note_on,,,,,171,0,1,,,,0,,,50,26
123648,note_on,,,,,85,0,1,,,,0,,,70,42
123694,control_change,,,,,46,0,1,,,,0,64,0,,
123904,set_tempo,,,,,2048,1,0,,333333,,,,,,
123904,note_on,,,,,0,0,1,,,,0,,,68,50
123904,control_change,,,,,210,0,1,,,,0,64,0,,
123904,control_change,,,,,0,0,1,,,,0,64,0,,
123904,control_change,,,,,0,0,1,,,,0,64,0,,
123904,note_on,,,,,0,0,1,,,,0,,,41,31
123904,control_change,,,,,0,0,1,,,,0,64,0,,
123904,note_off,,,,,0,0,1,,,,0,,,70,0
123904,note_off,,,,,0,0,1,,,,0,,,38,0
123904,note_off,,,,,0,0,1,,,,0,,,46,0
123904,note_off,,,,,0,0,1,,,,0,,,50,0
123904,note_on,,,,,0,0,1,,,,0,,,58,36
124066,control_change,,,,,162,0,1,,,,0,64,127,,
124245,note_on,,,,,179,0,1,,,,0,,,46,26
124587,note_on,,,,,342,0,1,,,,0,,,53,26
124672,note_off,,,,,85,0,1,,,,0,,,58,0
124672,note_off,,,,,0,0,1,,,,0,,,68,0
124672,note_on,,,,,0,0,1,,,,0,,,70,42
124928,note_off,,,,,0,0,1,,,,0,,,53,0
124928,set_tempo,,,,,1024,1,0,,333333,,,,,,
124928,note_off,,,,,256,0,1,,,,0,,,70,0
124928,note_on,,,,,0,0,1,,,,0,,,58,32
124928,note_on,,,,,0,0,1,,,,0,,,68,46
124928,note_off,,,,,0,0,1,,,,0,,,46,0
124928,note_on,,,,,0,0,1,,,,0,,,41,26
124928,note_off,,,,,0,0,1,,,,0,,,41,0
125269,note_on,,,,,341,0,1,,,,0,,,46,26
125611,note_on,,,,,342,0,1,,,,0,,,53,26
125696,note_on,,,,,0,0,1,,,,0,,,70,42
125696,note_off,,,,,85,0,1,,,,0,,,58,0
125696,note_off,,,,,0,0,1,,,,0,,,68,0
125790,control_change,,,,,94,0,1,,,,0,64,0,,
125952,control_change,,,,,0,0,1,,,,0,64,0,,
125952,control_change,,,,,162,0,1,,,,0,64,0,,
125952,set_tempo,,,,,1024,1,0,,333333,,,,,,
125952,control_change,,,,,0,0,1,,,,0,64,0,,
125952,control_change,,,,,0,0,1,,,,0,64,0,,
125952,note_off,,,,,0,0,1,,,,0,,,70,0
125952,note_off,,,,,0,0,1,,,,0,,,41,0
125952,note_off,,,,,0,0,1,,,,0,,,46,0
125952,note_off,,,,,0,0,1,,,,0,,,53,0
125952,note_on,,,,,0,0,1,,,,0,,,58,32
125952,note_on,,,,,0,0,1,,,,0,,,67,46
125952,note_on,,,,,0,0,1,,,,0,,,39,31
126160,control_change,,,,,208,0,1,,,,0,64,127,,
126293,note_on,,,,,133,0,1,,,,0,,,46,26
126635,note_on,,,,,342,0,1,,,,0,,,51,26
126976,note_off,,,,,0,0,1,,,,0,,,51,0
126976,note_off,,,,,341,0,1,,,,0,,,58,0
126976,note_off,,,,,0,0,1,,,,0,,,67,0
126976,note_off,,,,,0,0,1,,,,0,,,39,0
126976,note_off,,,,,0,0,1,,,,0,,,46,0
126976,note_on,,,,,0,0,1,,,,0,,,39,26
127021,control_change,,,,,45,0,1,,,,0,64,0,,
127317,note_on,,,,,296,0,1,,,,0,,,46,26
127347,control_change,,,,,30,0,1,,,,0,64,127,,
127659,note_on,,,,,312,0,1,,,,0,,,51,26
127744,note_on,,,,,0,0,1,,,,0,,,70,42
127744,set_tempo,,,,,1792,1,0,,375000,,,,,,
127744,note_on,,,,,85,0,1,,,,0,,,58,28
127911,control_change,,,,,167,0,1,,,,0,64,0,,
128000,note_on,,,,,0,0,1,,,,0,,,43,31
128000,control_change,,,,,89,0,1,,,,0,64,0,,
128000,note_on,,,,,0,0,1,,,,0,,,58,36
128000,note_on,,,,,0,0,1,,,,0,,,70,50
128000,note_off,,,,,0,0,1,,,,0,,,51,0
128000,note_off,,,,,0,0,1,,,,0,,,46,0
128000,note_off,,,,,0,0,1,,,,0,,,39,0
128000,set_tempo,,,,,256,1,0,,333333,,,,,,
128000,note_off,,,,,0,0,1,,,,0,,,58,0
128000,control_change,,,,,0,0,1,,,,0,64,0,,
128000,control_change,,,,,0,0,1,,,,0,64,0,,
128000,control_change,,,,,0,0,1,,,,0,64,0,,
128000,note_off,,,,,0,0,1,,,,0,,,70,0
128208,control_change,,,,,208,0,1,,,,0,64,127,,
128341,note_on,,,,,133,0,1,,,,0,,,46,26
128512,set_tempo,,,,,512,1,0,,375000,,,,,,
128512,note_off,,,,,171,0,1,,,,0,,,58,0
128512,note_off,,,,,0,0,1,,,,0,,,70,0
128594,control_change,,,,,82,0,1,,,,0,64,0,,
128683,note_on,,,,,89,0,1,,,,0,,,51,26
129024,note_off,,,,,0,0,1,,,,0,,,51,0
129024,note_off,,,,,0,0,1,,,,0,,,46,0
129024,note_off,,,,,0,0,1,,,,0,,,43,0
129024,note_on,,,,,0,0,1,,,,0,,,43,26
129024,note_on,,,,,0,0,1,,,,0,,,79,52
129024,note_on,,,,,341,0,1,,,,0,,,67,38
129024,set_tempo,,,,,512,1,0,,333333,,,,,,
129217,control_change,,,,,193,0,1,,,,0,64,127,,
129365,note_on,,,,,148,0,1,,,,0,,,46,26
129707,note_on,,,,,342,0,1,,,,0,,,51,26
130048,note_off,,,,,0,0,1,,,,0,,,46,0
130048,note_off,,,,,0,0,1,,,,0,,,43,0
130048,control_change,,,,,0,0,1,,,,0,64,0,,
130048,control_change,,,,,0,0,1,,,,0,64,127,,
130048,control_change,,,,,0,0,1,,,,0,64,0,,
130048,control_change,,,,,341,0,1,,,,0,64,0,,
130048,note_off,,,,,0,0,1,,,,0,,,51,0
130048,note_on,,,,,0,0,1,,,,0,,,44,31
130256,control_change,,,,,208,0,1,,,,0,64,0,,
130389,note_on,,,,,133,0,1,,,,0,,,48,26
130493,control_change,,,,,104,0,1,,,,0,64,127,,
130731,note_on,,,,,238,0,1,,,,0,,,53,27
131072,note_off,,,,,341,0,1,,,,0,,,67,0
131072,note_on,,,,,0,0,1,,,,0,,,44,27
131072,note_off,,,,,0,0,1,,,,0,,,79,0
131072,note_on,,,,,0,0,1,,,,0,,,65,33
131072,note_off,,,,,0,0,1,,,,0,,,53,0
131072,note_off,,,,,0,0,1,,,,0,,,48,0
131072,note_on,,,,,0,0,1,,,,0,,,77,47
131072,note_off,,,,,0,0,1,,,,0,,,44,0
131117,control_change,,,,,45,0,1,,,,0,64,0,,
131344,note_off,,,,,227,0,1,,,,0,,,65,0
131344,note_off,,,,,0,0,1,,,,0,,,77,0
131413,note_on,,,,,69,0,1,,,,0,,,48,27
131584,note_on,,,,,0,0,1,,,,0,,,75,45
131584,note_on,,,,,171,0,1,,,,0,,,63,30
131755,note_on,,,,,171,0,1,,,,0,,,53,27
131856,note_off,,,,,101,0,1,,,,0,,,63,0
131856,note_off,,,,,0,0,1,,,,0,,,75,0
132096,note_off,,,,,0,0,1,,,,0,,,44,0
132096,note_on,,,,,0,0,1,,,,0,,,46,33
132096,note_off,,,,,0,0,1,,,,0,,,53,0
132096,note_off,,,,,0,0,1,,,,0,,,48,0
132096,note_on,,,,,0,0,1,,,,0,,,74,53
132096,control_change,,,,,0,0,1,,,,0,64,0,,
132096,control_change,,,,,0,0,1,,,,0,64,0,,
132096,control_change,,,,,240,0,1,,,,0,64,0,,
132096,set_tempo,,,,,3072,1,0,,333333,,,,,,
132096,control_change,,,,,0,0,1,,,,0,64,0,,
132096,note_on,,,,,0,0,1,,,,0,,,62,38
132437,note_on,,,,,341,0,1,,,,0,,,53,28
132464,note_off,,,,,0,0,1,,,,0,,,74,0
132464,note_off,,,,,27,0,1,,,,0,,,62,0
132779,note_on,,,,,315,0,1,,,,0,,,56,28
132864,note_on,,,,,85,0,1,,,,0,,,65,30
132864,note_on,,,,,0,0,1,,,,0,,,77,45
132864,set_tempo,,,,,768,1,0,,375000,,,,,,
132951,note_off,,,,,87,0,1,,,,0,,,65,0
132951,note_off,,,,,0,0,1,,,,0,,,77,0
133120,note_off,,,,,0,0,1,,,,0,,,53,0
133120,set_tempo,,,,,256,1,0,,333333,,,,,,
133120,note_off,,,,,0,0,1,,,,0,,,46,0
133120,note_off,,,,,0,0,1,,,,0,,,56,0
133120,note_on,,,,,0,0,1,,,,0,,,74,50
133120,note_on,,,,,169,0,1,,,,0,,,62,35
133120,note_on,,,,,0,0,1,,,,0,,,46,28
133461,note_on,,,,,341,0,1,,,,0,,,53,28
133648,note_off,,,,,0,0,1,,,,0,,,74,0
133648,note_off,,,,,187,0,1,,,,0,,,62,0
133803,note_on,,,,,155,0,1,,,,0,,,56,28
133888,note_on,,,,,85,0,1,,,,0,,,65,31
133888,note_on,,,,,0,0,1,,,,0,,,77,46
133888,set_tempo,,,,,768,1,0,,375000,,,,,,
133975,note_off,,,,,87,0,1,,,,0,,,65,0
133975,note_off,,,,,0,0,1,,,,0,,,77,0
134144,set_tempo,,,,,256,1,0,,333333,,,,,,
134144,note_on,,,,,0,0,1,,,,0,,,39,50
134144,control_change,,,,,169,0,1,,,,0,64,0,,
134144,note_off,,,,,0,0,1,,,,0,,,46,0
134144,control_change,,,,,0,0,1,,,,0,64,0,,
134144,control_change,,,,,0,0,1,,,,0,64,0,,
134144,note_off,,,,,0,0,1,,,,0,,,53,0
134144,note_off,,,,,0,0,1,,,,0,,,56,0
134144,control_change,,,,,0,0,1,,,,0,64,0,,
134144,note_on,,,,,0,0,1,,,,0,,,75,53
134144,note_on,,,,,0,0,1,,,,0,,,63,39
134485,note_on,,,,,341,0,1,,,,0,,,46,45
134827,note_on,,,,,342,0,1,,,,0,,,51,45
135168,note_off,,,,,341,0,1,,,,0,,,63,0
135168,note_off,,,,,0,0,1,,,,0,,,75,0
135168,note_off,,,,,0,0,1,,,,0,,,39,0
135168,note_off,,,,,0,0,1,,,,0,,,46,0
135168,note_off,,,,,0,0,1,,,,0,,,51,0
135168,note_on,,,,,0,0,1,,,,0,,,39,45
135509,note_on,,,,,341,0,1,,,,0,,,46,45
135851,note_on,,,,,342,0,1,,,,0,,,51,45
135936,note_on,,,,,85,0,1,,,,0,,,70,54
135936,set_tempo,,,,,1792,1,0,,375000,,,,,,
135936,note_on,,,,,0,0,1,,,,0,,,82,66
136192,note_on,,,,,0,0,1,,,,0,,,39,62
136192,control_change,,,,,0,0,1,,,,0,64,0,,
136192,control_change,,,,,0,0,1,,,,0,64,0,,
136192,control_change,,,,,0,0,1,,,,0,64,0,,
136192,note_off,,,,,0,0,1,,,,0,,,82,0
136192,note_off,,,,,0,0,1,,,,0,,,39,0
136192,note_off,,,,,0,0,1,,,,0,,,46,0
136192,note_off,,,,,0,0,1,,,,0,,,51,0
136192,note_on,,,,,0,0,1,,,,0,,,70,58
136192,note_on,,,,,0,0,1,,,,0,,,82,72
136192,control_change,,,,,256,0,1,,,,0,64,0,,
136192,control_change,,,,,0,0,1,,,,0,64,0,,
136192,note_off,,,,,0,0,1,,,,0,,,70,0
136192,set_tempo,,,,,256,1,0,,333333,,,,,,
136481,control_change,,,,,289,0,1,,,,0,64,127,,
136533,note_on,,,,,52,0,1,,,,0,,,46,50
136875,note_on,,,,,342,0,1,,,,0,,,51,50
137216,note_off,,,,,341,0,1,,,,0,,,70,0
137216,note_off,,,,,0,0,1,,,,0,,,82,0
137216,note_off,,,,,0,0,1,,,,0,,,39,0
137216,note_off,,,,,0,0,1,,,,0,,,46,0
137216,note_off,,,,,0,0,1,,,,0,,,51,0
137216,note_on,,,,,0,0,1,,,,0,,,79,66
137216,note_on,,,,,0,0,1,,,,0,,,39,50
137242,control_change,,,,,26,0,1,,,,0,64,0,,
137452,control_change,,,,,210,0,1,,,,0,64,0,,
137557,note_on,,,,,105,0,1,,,,0,,,46,50
137689,control_change,,,,,132,0,1,,,,0,64,127,,
137728,note_off,,,,,39,0,1,,,,0,,,79,0
137899,note_on,,,,,171,0,1,,,,0,,,51,50
137984,note_on,,,,,85,0,1,,,,0,,,70,50
137984,note_on,,,,,0,0,1,,,,0,,,82,66
137984,set_tempo,,,,,1792,1,0,,375000,,,,,,
138030,control_change,,,,,46,0,1,,,,0,64,0,,
138240,control_change,,,,,0,0,1,,,,0,64,0,,
138240,set_tempo,,,,,256,1,0,,333333,,,,,,
138240,control_change,,,,,0,0,1,,,,0,64,0,,
138240,control_change,,,,,0,0,1,,,,0,64,0,,
138240,control_change,,,,,0,0,1,,,,0,64,0,,
138240,note_off,,,,,0,0,1,,,,0,,,70,0
138240,note_off,,,,,0,0,1,,,,0,,,82,0
138240,note_off,,,,,0,0,1,,,,0,,,39,0
138240,note_off,,,,,0,0,1,,,,0,,,46,0
138240,control_change,,,,,210,0,1,,,,0,64,0,,
138240,note_off,,,,,0,0,1,,,,0,,,51,0
138240,note_on,,,,,0,0,1,,,,0,,,82,72
138240,note_on,,,,,0,0,1,,,,0,,,38,62
138240,note_on,,,,,0,0,1,,,,0,,,70,58
138240,control_change,,,,,0,0,1,,,,0,64,0,,
138529,control_change,,,,,289,0,1,,,,0,64,127,,
138581,note_on,,,,,52,0,1,,,,0,,,46,50
138923,note_on,,,,,342,0,1,,,,0,,,50,50
139157,control_change,,,,,234,0,1,,,,0,64,127,,
139264,note_off,,,,,107,0,1,,,,0,,,70,0
139264,note_off,,,,,0,0,1,,,,0,,,82,0
139264,note_off,,,,,0,0,1,,,,0,,,38,0
139264,note_off,,,,,0,0,1,,,,0,,,50,0
139264,note_on,,,,,0,0,1,,,,0,,,77,66
139264,note_on,,,,,0,0,1,,,,0,,,38,50
139264,note_off,,,,,0,0,1,,,,0,,,46,0
139500,control_change,,,,,236,0,1,,,,0,64,0,,
139605,note_on,,,,,105,0,1,,,,0,,,46,50
139737,control_change,,,,,132,0,1,,,,0,64,127,,
139776,note_off,,,,,39,0,1,,,,0,,,77,0
139947,note_on,,,,,171,0,1,,,,0,,,50,50
140032,note_on,,,,,85,0,1,,,,0,,,82,64
140078,control_change,,,,,46,0,1,,,,0,64,0,,
140288,note_on,,,,,0,0,1,,,,0,,,80,72
140288,note_off,,,,,0,0,1,,,,0,,,46,0
140288,note_off,,,,,0,0,1,,,,0,,,38,0
140288,note_off,,,,,0,0,1,,,,0,,,82,0
140288,control_change,,,,,0,0,1,,,,0,64,0,,
140288,note_on,,,,,0,0,1,,,,0,,,41,62
140288,control_change,,,,,0,0,1,,,,0,64,0,,
140288,note_off,,,,,0,0,1,,,,0,,,50,0
140288,control_change,,,,,210,0,1,,,,0,64,0,,
140288,control_change,,,,,0,0,1,,,,0,64,0,,
140288,note_on,,,,,0,0,1,,,,0,,,70,58
140288,control_change,,,,,0,0,1,,,,0,64,0,,
140288,set_tempo,,,,,2048,1,0,,333333,,,,,,
140450,control_change,,,,,162,0,1,,,,0,64,127,,
140629,note_on,,,,,179,0,1,,,,0,,,46,50
140971,note_on,,,,,342,0,1,,,,0,,,53,50
141056,note_on,,,,,0,0,1,,,,0,,,82,64
141056,note_off,,,,,0,0,1,,,,0,,,80,0
141056,note_off,,,,,85,0,1,,,,0,,,70,0
141312,note_off,,,,,0,0,1,,,,0,,,53,0
141312,note_off,,,,,0,0,1,,,,0,,,46,0
141312,note_off,,,,,0,0,1,,,,0,,,41,0
141312,note_on,,,,,0,0,1,,,,0,,,41,50
141312,note_on,,,,,0,0,1,,,,0,,,80,68
141312,note_on,,,,,0,0,1,,,,0,,,70,54
141312,note_off,,,,,256,0,1,,,,0,,,82,0
141312,set_tempo,,,,,1024,1,0,,333333,,,,,,
141653,note_on,,,,,341,0,1,,,,0,,,46,50
141995,note_on,,,,,342,0,1,,,,0,,,53,50
142080,note_on,,,,,0,0,1,,,,0,,,82,64
142080,note_off,,,,,0,0,1,,,,0,,,80,0
142080,note_off,,,,,85,0,1,,,,0,,,70,0
142174,control_change,,,,,94,0,1,,,,0,64,0,,
142336,note_off,,,,,0,0,1,,,,0,,,53,0
142336,control_change,,,,,0,0,1,,,,0,64,0,,
142336,control_change,,,,,162,0,1,,,,0,64,0,,
142336,set_tempo,,,,,1024,1,0,,333333,,,,,,
142336,note_on,,,,,0,0,1,,,,0,,,70,54
142336,control_change,,,,,0,0,1,,,,0,64,0,,
142336,note_on,,,,,0,0,1,,,,0,,,39,62
142336,control_change,,,,,0,0,1,,,,0,64,0,,
142336,note_on,,,,,0,0,1,,,,0,,,79,68
142336,control_change,,,,,0,0,1,,,,0,64,0,,
142336,note_off,,,,,0,0,1,,,,0,,,82,0
142336,note_off,,,,,0,0,1,,,,0,,,41,0
142336,note_off,,,,,0,0,1,,,,0,,,46,0
142544,control_change,,,,,208,0,1,,,,0,64,127,,
142677,note_on,,,,,133,0,1,,,,0,,,46,50
143019,note_on,,,,,342,0,1,,,,0,,,51,50
143360,note_off,,,,,0,0,1,,,,0,,,79,0
143360,note_off,,,,,0,0,1,,,,0,,,46,0
143360,note_off,,,,,0,0,1,,,,0,,,51,0
143360,note_on,,,,,0,0,1,,,,0,,,39,50
143360,note_off,,,,,341,0,1,,,,0,,,70,0
143360,note_off,,,,,0,0,1,,,,0,,,39,0
143405,control_change,,,,,45,0,1,,,,0,64,0,,
143701,note_on,,,,,296,0,1,,,,0,,,46,50
143731,control_change,,,,,30,0,1,,,,0,64,127,,
144043,note_on,,,,,312,0,1,,,,0,,,51,50
144128,note_on,,,,,0,0,1,,,,0,,,82,68
144128,note_on,,,,,85,0,1,,,,0,,,70,54
144128,set_tempo,,,,,1792,1,0,,375000,,,,,,
144295,control_change,,,,,167,0,1,,,,0,64,0,,
144384,note_off,,,,,0,0,1,,,,0,,,46,0
144384,set_tempo,,,,,256,1,0,,333333,,,,,,
144384,control_change,,,,,0,0,1,,,,0,64,0,,
144384,control_change,,,,,0,0,1,,,,0,64,0,,
144384,control_change,,,,,0,0,1,,,,0,64,0,,
144384,control_change,,,,,0,0,1,,,,0,64,0,,
144384,note_off,,,,,0,0,1,,,,0,,,82,0
144384,note_off,,,,,0,0,1,,,,0,,,39,0
144384,note_off,,,,,0,0,1,,,,0,,,51,0
144384,note_on,,,,,0,0,1,,,,0,,,70,62
144384,note_on,,,,,0,0,1,,,,0,,,82,76
144384,note_on,,,,,0,0,1,,,,0,,,43,62
144384,note_off,,,,,0,0,1,,,,0,,,70,0
144384,control_change,,,,,89,0,1,,,,0,64,0,,
144592,control_change,,,,,208,0,1,,,,0,64,127,,
144725,note_on,,,,,133,0,1,,,,0,,,46,50
144896,note_off,,,,,0,0,1,,,,0,,,82,0
144896,note_off,,,,,171,0,1,,,,0,,,70,0
144896,set_tempo,,,,,512,1,0,,375000,,,,,,
144978,control_change,,,,,82,0,1,,,,0,64,0,,
145067,note_on,,,,,89,0,1,,,,0,,,51,50
145197,control_change,,,,,130,0,1,,,,0,64,127,,
145408,set_tempo,,,,,512,1,0,,333333,,,,,,
145408,note_off,,,,,0,0,1,,,,0,,,51,0
145408,note_off,,,,,0,0,1,,,,0,,,46,0
145408,note_off,,,,,0,0,1,,,,0,,,43,0
145408,note_on,,,,,0,0,1,,,,0,,,43,50
145408,note_on,,,,,0,0,1,,,,0,,,91,78
145408,note_on,,,,,211,0,1,,,,0,,,79,64
145749,note_on,,,,,341,0,1,,,,0,,,46,50
146091,note_on,,,,,342,0,1,,,,0,,,51,50
146432,note_on,,,,,0,0,1,,,,0,,,44,62
146432,note_off,,,,,0,0,1,,,,0,,,51,0
146432,note_off,,,,,0,0,1,,,,0,,,46,0
146432,note_off,,,,,0,0,1,,,,0,,,43,0
146432,control_change,,,,,0,0,1,,,,0,64,0,,
146432,control_change,,,,,0,0,1,,,,0,64,0,,
146432,control_change,,,,,0,0,1,,,,0,64,127,,
146432,control_change,,,,,0,0,1,,,,0,64,0,,
146432,control_change,,,,,341,0,1,,,,0,64,0,,
146640,control_change,,,,,208,0,1,,,,0,64,0,,
146773,note_on,,,,,133,0,1,,,,0,,,48,50
146877,control_change,,,,,104,0,1,,,,0,64,127,,
147115,note_on,,,,,238,0,1,,,,0,,,53,50
147456,note_off,,,,,341,0,1,,,,0,,,79,0
147456,note_off,,,,,0,0,1,,,,0,,,91,0
147456,note_off,,,,,0,0,1,,,,0,,,44,0
147456,note_off,,,,,0,0,1,,,,0,,,48,0
147456,note_off,,,,,0,0,1,,,,0,,,53,0
147456,note_on,,,,,0,0,1,,,,0,,,77,58
147456,note_on,,,,,0,0,1,,,,0,,,89,72
147456,note_on,,,,,0,0,1,,,,0,,,44,50
147501,control_change,,,,,45,0,1,,,,0,64,0,,
147797,note_on,,,,,296,0,1,,,,0,,,48,50
147968,note_off,,,,,0,0,1,,,,0,,,89,0
147968,note_off,,,,,171,0,1,,,,0,,,77,0
147968,note_on,,,,,0,0,1,,,,0,,,87,68
147968,note_on,,,,,0,0,1,,,,0,,,75,56
148139,note_on,,,,,171,0,1,,,,0,,,53,50
148480,control_change,,,,,341,0,1,,,,0,64,0,,
148480,control_change,,,,,0,0,1,,,,0,64,0,,
148480,control_change,,,,,0,0,1,,,,0,64,0,,
148480,control_change,,,,,0,0,1,,,,0,64,0,,
148480,control_change,,,,,0,0,1,,,,0,64,0,,
148480,note_off,,,,,0,0,1,,,,0,,,75,0
148480,note_off,,,,,0,0,1,,,,0,,,44,0
148480,note_off,,,,,0,0,1,,,,0,,,48,0
148480,note_off,,,,,0,0,1,,,,0,,,53,0
148480,note_on,,,,,0,0,1,,,,0,,,74,62
148480,note_on,,,,,0,0,1,,,,0,,,46,62
148480,note_on,,,,,0,0,1,,,,0,,,86,76
148480,note_off,,,,,0,0,1,,,,0,,,87,0
148480,set_tempo,,,,,3072,1,0,,333333,,,,,,
148821,note_on,,,,,341,0,1,,,,0,,,53,50
149163,note_on,,,,,342,0,1,,,,0,,,56,50
149248,set_tempo,,,,,768,1,0,,375000,,,,,,
149248,note_on,,,,,0,0,1,,,,0,,,89,68
149248,note_on,,,,,0,0,1,,,,0,,,77,54
149248,note_off,,,,,0,0,1,,,,0,,,86,0
149248,note_off,,,,,85,0,1,,,,0,,,74,0
149504,note_on,,,,,0,0,1,,,,0,,,46,50
149504,note_on,,,,,0,0,1,,,,0,,,86,72
149504,note_on,,,,,0,0,1,,,,0,,,74,58
149504,note_off,,,,,0,0,1,,,,0,,,53,0
149504,note_off,,,,,0,0,1,,,,0,,,46,0
149504,note_off,,,,,0,0,1,,,,0,,,89,0
149504,note_off,,,,,256,0,1,,,,0,,,77,0
149504,note_off,,,,,0,0,1,,,,0,,,56,0
149504,set_tempo,,,,,256,1,0,,333333,,,,,,
149845,note_on,,,,,341,0,1,,,,0,,,53,50
150187,note_on,,,,,342,0,1,,,,0,,,56,50
150272,note_on,,,,,0,0,1,,,,0,,,89,68
150272,note_off,,,,,0,0,1,,,,0,,,86,0
150272,note_off,,,,,85,0,1,,,,0,,,74,0
150272,set_tempo,,,,,768,1,0,,375000,,,,,,
150272,note_on,,,,,0,0,1,,,,0,,,77,54
150528,set_tempo,,,,,256,1,0,,333333,,,,,,
150528,note_on,,,,,0,0,1,,,,0,,,75,49
150528,note_on,,,,,0,0,1,,,,0,,,87,64
150528,note_off,,,,,0,0,1,,,,0,,,46,0
150528,note_on,,,,,0,0,1,,,,0,,,51,51
150528,note_off,,,,,0,0,1,,,,0,,,56,0
150528,control_change,,,,,256,0,1,,,,0,64,0,,
150528,control_change,,,,,0,0,1,,,,0,64,0,,
150528,note_off,,,,,0,0,1,,,,0,,,77,0
150528,note_off,,,,,0,0,1,,,,0,,,89,0
150528,note_off,,,,,0,0,1,,,,0,,,53,0
150805,control_change,,,,,277,0,1,,,,0,64,127,,
150869,note_on,,,,,64,0,1,,,,0,,,55,49
151211,note_off,,,,,342,0,1,,,,0,,,55,0
151211,note_on,,,,,0,0,1,,,,0,,,63,46
151386,control_change,,,,,175,0,1,,,,0,64,0,,
151432,note_off,,,,,46,0,1,,,,0,,,75,0
151432,note_off,,,,,0,0,1,,,,0,,,87,0
151552,note_off,,,,,0,0,1,,,,0,,,63,0
151552,note_off,,,,,0,0,1,,,,0,,,51,0
151552,note_on,,,,,0,0,1,,,,0,,,53,54
151552,note_on,,,,,0,0,1,,,,0,,,87,66
151552,note_on,,,,,120,0,1,,,,0,,,75,50
151801,control_change,,,,,249,0,1,,,,0,64,127,,
151893,note_on,,,,,92,0,1,,,,0,,,56,51
152235,note_off,,,,,342,0,1,,,,0,,,56,0
152235,note_on,,,,,0,0,1,,,,0,,,63,48
152382,control_change,,,,,147,0,1,,,,0,64,0,,
152456,note_off,,,,,74,0,1,,,,0,,,75,0
152456,note_off,,,,,0,0,1,,,,0,,,87,0
152576,note_on,,,,,0,0,1,,,,0,,,54,56
152576,note_on,,,,,0,0,1,,,,0,,,87,68
152576,note_on,,,,,0,0,1,,,,0,,,75,52
152576,note_off,,,,,0,0,1,,,,0,,,63,0
152576,note_off,,,,,0,0,1,,,,0,,,53,0
152576,control_change,,,,,0,0,1,,,,0,64,0,,
152576,control_change,,,,,120,0,1,,,,0,64,0,,
152576,control_change,,,,,0,0,1,,,,0,64,0,,
152853,control_change,,,,,277,0,1,,,,0,64,127,,
152917,note_on,,,,,64,0,1,,,,0,,,57,53
153259,note_off,,,,,342,0,1,,,,0,,,57,0
153259,note_on,,,,,0,0,1,,,,0,,,63,50
153434,control_change,,,,,175,0,1,,,,0,64,0,,
153480,note_off,,,,,46,0,1,,,,0,,,75,0
153480,note_off,,,,,0,0,1,,,,0,,,87,0
153600,note_on,,,,,120,0,1,,,,0,,,75,54
153600,note_on,,,,,0,0,1,,,,0,,,87,70
153600,note_on,,,,,0,0,1,,,,0,,,55,59
153600,note_off,,,,,0,0,1,,,,0,,,63,0
153600,note_off,,,,,0,0,1,,,,0,,,54,0
153849,control_change,,,,,249,0,1,,,,0,64,127,,
153941,note_on,,,,,92,0,1,,,,0,,,58,56
154283,note_on,,,,,0,0,1,,,,0,,,63,52
154283,note_off,,,,,342,0,1,,,,0,,,58,0
154430,control_change,,,,,147,0,1,,,,0,64,0,,
154504,note_off,,,,,0,0,1,,,,0,,,87,0
154504,note_off,,,,,74,0,1,,,,0,,,75,0
154624,control_change,,,,,0,0,1,,,,0,64,0,,
154624,set_tempo,,,,,4096,1,0,,375000,,,,,,
154624,control_change,,,,,0,0,1,,,,0,64,0,,
154624,note_off,,,,,0,0,1,,,,0,,,55,0
154624,note_off,,,,,0,0,1,,,,0,,,63,0
154624,note_on,,,,,0,0,1,,,,0,,,77,51
154624,note_on,,,,,0,0,1,,,,0,,,89,67
154624,note_on,,,,,0,0,1,,,,0,,,56,61
154624,control_change,,,,,0,0,1,,,,0,64,0,,
154624,control_change,,,,,0,0,1,,,,0,64,0,,
154624,control_change,,,,,120,0,1,,,,0,64,0,,
154624,control_change,,,,,0,0,1,,,,0,64,0,,
154901,control_change,,,,,277,0,1,,,,0,64,127,,
154901,control_change,,,,,0,0,1,,,,0,64,127,,
154901,control_change,,,,,0,0,1,,,,0,64,127,,
154965,note_on,,,,,64,0,1,,,,0,,,63,58
155056,note_off,,,,,0,0,1,,,,0,,,89,0
155056,note_off,,,,,91,0,1,,,,0,,,77,0
155136,note_on,,,,,80,0,1,,,,0,,,77,52
155136,note_on,,,,,0,0,1,,,,0,,,89,68
155136,set_tempo,,,,,512,1,0,,333333,,,,,,
155307,note_on,,,,,0,0,1,,,,0,,,65,54
155307,note_off,,,,,171,0,1,,,,0,,,63,0
155355,control_change,,,,,48,0,1,,,,0,64,127,,
155482,control_change,,,,,0,0,1,,,,0,64,0,,
155482,control_change,,,,,127,0,1,,,,0,64,0,,
155568,note_off,,,,,86,0,1,,,,0,,,77,0
155568,note_off,,,,,0,0,1,,,,0,,,89,0
155648,note_off,,,,,0,0,1,,,,0,,,65,0
155648,note_on,,,,,0,0,1,,,,0,,,58,64
155648,note_on,,,,,0,0,1,,,,0,,,89,69
155648,note_on,,,,,80,0,1,,,,0,,,77,53
155648,note_off,,,,,0,0,1,,,,0,,,56,0
155897,control_change,,,,,249,0,1,,,,0,64,127,,
155897,control_change,,,,,0,0,1,,,,0,64,127,,
155989,note_on,,,,,92,0,1,,,,0,,,63,61
156080,note_off,,,,,91,0,1,,,,0,,,77,0
156080,note_off,,,,,0,0,1,,,,0,,,89,0
156160,note_on,,,,,80,0,1,,,,0,,,77,54
156160,note_on,,,,,0,0,1,,,,0,,,89,70
156331,note_off,,,,,171,0,1,,,,0,,,63,0
156331,note_on,,,,,0,0,1,,,,0,,,65,56
156478,control_change,,,,,0,0,1,,,,0,64,0,,
156478,control_change,,,,,0,0,1,,,,0,64,0,,
156478,control_change,,,,,147,0,1,,,,0,64,0,,
156592,note_off,,,,,0,0,1,,,,0,,,89,0
156592,note_off,,,,,114,0,1,,,,0,,,77,0
156672,control_change,,,,,0,0,1,,,,0,64,0,,
156672,control_change,,,,,0,0,1,,,,0,64,0,,
156672,control_change,,,,,0,0,1,,,,0,64,0,,
156672,note_off,,,,,0,0,1,,,,0,,,58,0
156672,note_off,,,,,0,0,1,,,,0,,,65,0
156672,note_on,,,,,0,0,1,,,,0,,,77,55
156672,note_on,,,,,0,0,1,,,,0,,,89,72
156672,note_on,,,,,0,0,1,,,,0,,,59,66
156672,control_change,,,,,0,0,1,,,,0,64,0,,
156672,control_change,,,,,0,0,1,,,,0,64,0,,
156672,control_change,,,,,0,0,1,,,,0,64,0,,
156672,control_change,,,,,0,0,1,,,,0,64,0,,
156672,control_change,,,,,0,0,1,,,,0,64,0,,
156672,control_change,,,,,80,0,1,,,,0,64,0,,
156949,control_change,,,,,0,0,1,,,,0,64,127,,
156949,control_change,,,,,0,0,1,,,,0,64,127,,
156949,control_change,,,,,277,0,1,,,,0,64,127,,
156949,control_change,,,,,0,0,1,,,,0,64,127,,
157013,note_on,,,,,64,0,1,,,,0,,,63,63
157104,note_off,,,,,91,0,1,,,,0,,,77,0
157104,note_off,,,,,0,0,1,,,,0,,,89,0
157184,note_on,,,,,80,0,1,,,,0,,,77,55
157184,note_on,,,,,0,0,1,,,,0,,,89,72
157355,note_off,,,,,171,0,1,,,,0,,,63,0
157355,note_on,,,,,0,0,1,,,,0,,,65,58
157403,control_change,,,,,48,0,1,,,,0,64,127,,
157530,control_change,,,,,0,0,1,,,,0,64,0,,
157530,control_change,,,,,0,0,1,,,,0,64,0,,
157530,control_change,,,,,127,0,1,,,,0,64,0,,
157616,note_off,,,,,86,0,1,,,,0,,,77,0
157616,note_off,,,,,0,0,1,,,,0,,,89,0
157696,note_on,,,,,80,0,1,,,,0,,,77,56
157696,note_on,,,,,0,0,1,,,,0,,,89,74
157696,note_off,,,,,0,0,1,,,,0,,,59,0
157696,note_off,,,,,0,0,1,,,,0,,,65,0
157696,note_on,,,,,0,0,1,,,,0,,,57,68
157945,control_change,,,,,249,0,1,,,,0,64,127,,
157945,control_change,,,,,0,0,1,,,,0,64,127,,
157945,control_change,,,,,0,0,1,,,,0,64,127,,
158037,note_on,,,,,92,0,1,,,,0,,,63,65
158128,note_off,,,,,91,0,1,,,,0,,,77,0
158128,note_off,,,,,0,0,1,,,,0,,,89,0
158208,note_on,,,,,0,0,1,,,,0,,,89,74
158208,note_on,,,,,80,0,1,,,,0,,,77,57
158379,note_off,,,,,171,0,1,,,,0,,,63,0
158379,note_on,,,,,0,0,1,,,,0,,,65,61
158526,control_change,,,,,0,0,1,,,,0,64,0,,
158526,control_change,,,,,0,0,1,,,,0,64,0,,
158526,control_change,,,,,147,0,1,,,,0,64,0,,
158526,control_change,,,,,0,0,1,,,,0,64,0,,
158592,note_on,,,,,66,0,1,,,,0,,,93,58
158640,note_off,,,,,48,0,1,,,,0,,,77,0
158640,note_off,,,,,0,0,1,,,,0,,,89,0
158720,note_off,,,,,0,0,1,,,,0,,,65,0
158720,note_off,,,,,0,0,1,,,,0,,,93,0
158720,note_on,,,,,0,0,1,,,,0,,,84,58
158720,control_change,,,,,0,0,1,,,,0,64,0,,
158720,note_on,,,,,0,0,1,,,,0,,,96,76
158720,note_off,,,,,0,0,1,,,,0,,,57,0
158720,set_tempo,,,,,3584,1,0,,428571,,,,,,
158720,note_on,,,,,0,0,1,,,,0,,,34,57
158720,control_change,,,,,80,0,1,,,,0,64,0,,
158720,note_on,,,,,0,0,1,,,,0,,,46,73
158875,control_change,,,,,155,0,1,,,,0,64,127,,
159232,note_off,,,,,357,0,1,,,,0,,,84,0
159232,note_off,,,,,0,0,1,,,,0,,,96,0
159232,note_off,,,,,0,0,1,,,,0,,,34,0
159232,note_off,,,,,0,0,1,,,,0,,,46,0
159403,control_change,,,,,171,0,1,,,,0,64,0,,
159744,set_tempo,,,,,1024,1,0,,375000,,,,,,
159744,note_on,,,,,341,0,1,,,,0,,,82,56
159744,note_on,,,,,0,0,1,,,,0,,,94,74
159744,note_on,,,,,0,0,1,,,,0,,,58,52
159744,note_on,,,,,0,0,1,,,,0,,,62,52
159744,note_on,,,,,0,0,1,,,,0,,,68,64
159899,control_change,,,,,155,0,1,,,,0,64,127,,
160613,control_change,,,,,714,0,1,,,,0,64,0,,
160768,control_change,,,,,155,0,1,,,,0,64,0,,
160768,control_change,,,,,0,0,1,,,,0,64,0,,
160942,note_off,,,,,174,0,1,,,,0,,,82,0
160942,note_off,,,,,0,0,1,,,,0,,,94,0
161280,note_on,,,,,0,0,1,,,,0,,,92,68
161280,note_on,,,,,338,0,1,,,,0,,,80,52
161454,note_off,,,,,0,0,1,,,,0,,,92,0
161454,note_off,,,,,174,0,1,,,,0,,,80,0
161792,note_on,,,,,338,0,1,,,,0,,,79,51
161792,note_on,,,,,0,0,1,,,,0,,,91,67
161966,note_off,,,,,174,0,1,,,,0,,,79,0
161966,note_off,,,,,0,0,1,,,,0,,,91,0
162304,note_on,,,,,338,0,1,,,,0,,,77,50
162304,note_on,,,,,0,0,1,,,,0,,,89,65
162478,note_off,,,,,174,0,1,,,,0,,,77,0
162478,note_off,,,,,0,0,1,,,,0,,,89,0
162816,note_off,,,,,0,0,1,,,,0,,,58,0
162816,note_off,,,,,0,0,1,,,,0,,,62,0
162816,control_change,,,,,0,0,1,,,,0,64,0,,
162816,note_off,,,,,0,0,1,,,,0,,,68,0
162816,control_change,,,,,0,0,1,,,,0,64,0,,
162816,note_on,,,,,0,0,1,,,,0,,,87,64
162816,control_change,,,,,338,0,1,,,,0,64,0,,
162816,note_on,,,,,0,0,1,,,,0,,,39,42
162816,set_tempo,,,,,3072,1,0,,333333,,,,,,
162816,note_on,,,,,0,0,1,,,,0,,,75,49
162816,control_change,,,,,0,0,1,,,,0,64,0,,
163093,control_change,,,,,277,0,1,,,,0,64,127,,
163157,note_on,,,,,64,0,1,,,,0,,,43,40
163499,note_off,,,,,342,0,1,,,,0,,,43,0
163499,note_on,,,,,0,0,1,,,,0,,,51,37
163674,control_change,,,,,175,0,1,,,,0,64,0,,
163720,note_off,,,,,46,0,1,,,,0,,,75,0
163720,note_off,,,,,0,0,1,,,,0,,,87,0
163840,note_on,,,,,120,0,1,,,,0,,,63,43
163840,note_on,,,,,0,0,1,,,,0,,,75,59
163840,note_on,,,,,0,0,1,,,,0,,,41,44
163840,note_off,,,,,0,0,1,,,,0,,,39,0
163840,note_off,,,,,0,0,1,,,,0,,,51,0
164089,control_change,,,,,249,0,1,,,,0,64,127,,
164181,note_on,,,,,92,0,1,,,,0,,,44,41
164523,note_on,,,,,0,0,1,,,,0,,,51,38
164523,note_off,,,,,342,0,1,,,,0,,,44,0
164670,control_change,,,,,147,0,1,,,,0,64,0,,
164744,note_off,,,,,0,0,1,,,,0,,,75,0
164744,note_off,,,,,74,0,1,,,,0,,,63,0
164864,note_on,,,,,0,0,1,,,,0,,,42,46
164864,control_change,,,,,120,0,1,,,,0,64,0,,
164864,control_change,,,,,0,0,1,,,,0,64,0,,
164864,control_change,,,,,0,0,1,,,,0,64,0,,
164864,control_change,,,,,0,0,1,,,,0,64,0,,
164864,control_change,,,,,0,0,1,,,,0,64,0,,
164864,note_off,,,,,0,0,1,,,,0,,,41,0
164864,note_off,,,,,0,0,1,,,,0,,,51,0
164864,note_on,,,,,0,0,1,,,,0,,,63,45
164864,note_on,,,,,0,0,1,,,,0,,,75,61
165141,control_change,,,,,277,0,1,,,,0,64,127,,
165205,note_on,,,,,64,0,1,,,,0,,,45,42
165547,note_on,,,,,0,0,1,,,,0,,,51,39
165547,note_off,,,,,342,0,1,,,,0,,,45,0
165722,control_change,,,,,175,0,1,,,,0,64,0,,
165768,note_off,,,,,46,0,1,,,,0,,,63,0
165768,note_off,,,,,0,0,1,,,,0,,,75,0
165888,note_on,,,,,120,0,1,,,,0,,,63,47
165888,note_on,,,,,0,0,1,,,,0,,,75,63
165888,note_on,,,,,0,0,1,,,,0,,,43,48
165888,note_off,,,,,0,0,1,,,,0,,,42,0
165888,note_off,,,,,0,0,1,,,,0,,,51,0
166137,control_change,,,,,249,0,1,,,,0,64,127,,
166229,note_on,,,,,92,0,1,,,,0,,,46,45
166571,note_on,,,,,0,0,1,,,,0,,,51,40
166571,note_off,,,,,342,0,1,,,,0,,,46,0
166718,control_change,,,,,147,0,1,,,,0,64,0,,
166792,note_off,,,,,0,0,1,,,,0,,,75,0
166792,note_off,,,,,74,0,1,,,,0,,,63,0
166912,note_on,,,,,0,0,1,,,,0,,,65,44
166912,set_tempo,,,,,4096,1,0,,375000,,,,,,
166912,control_change,,,,,120,0,1,,,,0,64,0,,
166912,control_change,,,,,0,0,1,,,,0,64,0,,
166912,control_change,,,,,0,0,1,,,,0,64,0,,
166912,control_change,,,,,0,0,1,,,,0,64,0,,
166912,control_change,,,,,0,0,1,,,,0,64,0,,
166912,note_off,,,,,0,0,1,,,,0,,,43,0
166912,note_off,,,,,0,0,1,,,,0,,,51,0
166912,note_on,,,,,0,0,1,,,,0,,,44,49
166912,note_on,,,,,0,0,1,,,,0,,,77,60
167189,control_change,,,,,277,0,1,,,,0,64,127,,
167253,note_on,,,,,64,0,1,,,,0,,,51,46
167344,note_off,,,,,91,0,1,,,,0,,,65,0
167344,note_off,,,,,0,0,1,,,,0,,,77,0
167424,note_on,,,,,80,0,1,,,,0,,,65,45
167424,note_on,,,,,0,0,1,,,,0,,,77,61
167424,set_tempo,,,,,512,1,0,,333333,,,,,,
167595,note_off,,,,,171,0,1,,,,0,,,51,0
167595,note_on,,,,,0,0,1,,,,0,,,53,42
167770,control_change,,,,,175,0,1,,,,0,64,0,,
167856,note_off,,,,,86,0,1,,,,0,,,65,0
167856,note_off,,,,,0,0,1,,,,0,,,77,0
167936,note_off,,,,,0,0,1,,,,0,,,53,0
167936,note_on,,,,,80,0,1,,,,0,,,65,46
167936,note_on,,,,,0,0,1,,,,0,,,77,62
167936,note_on,,,,,0,0,1,,,,0,,,46,51
167936,note_off,,,,,0,0,1,,,,0,,,44,0
168185,control_change,,,,,249,0,1,,,,0,64,127,,
168277,note_on,,,,,92,0,1,,,,0,,,51,48
168368,note_off,,,,,91,0,1,,,,0,,,65,0
168368,note_off,,,,,0,0,1,,,,0,,,77,0
168448,note_on,,,,,80,0,1,,,,0,,,65,47
168448,note_on,,,,,0,0,1,,,,0,,,77,63
168619,note_off,,,,,171,0,1,,,,0,,,51,0
168619,note_on,,,,,0,0,1,,,,0,,,53,43
168766,control_change,,,,,147,0,1,,,,0,64,0,,
168880,note_off,,,,,114,0,1,,,,0,,,65,0
168880,note_off,,,,,0,0,1,,,,0,,,77,0
168960,note_on,,,,,0,0,1,,,,0,,,65,48
168960,note_on,,,,,0,0,1,,,,0,,,77,65
168960,control_change,,,,,0,0,1,,,,0,64,0,,
168960,note_on,,,,,0,0,1,,,,0,,,47,52
168960,note_off,,,,,0,0,1,,,,0,,,53,0
168960,note_off,,,,,0,0,1,,,,0,,,46,0
168960,control_change,,,,,80,0,1,,,,0,64,0,,
168960,control_change,,,,,0,0,1,,,,0,64,0,,
168960,control_change,,,,,0,0,1,,,,0,64,0,,
168960,control_change,,,,,0,0,1,,,,0,64,0,,
169237,control_change,,,,,277,0,1,,,,0,64,127,,
169301,note_on,,,,,64,0,1,,,,0,,,51,49
169392,note_off,,,,,91,0,1,,,,0,,,65,0
169392,note_off,,,,,0,0,1,,,,0,,,77,0
169472,note_on,,,,,80,0,1,,,,0,,,65,48
169472,note_on,,,,,0,0,1,,,,0,,,77,65
169643,note_off,,,,,171,0,1,,,,0,,,51,0
169643,note_on,,,,,0,0,1,,,,0,,,53,44
169818,control_change,,,,,175,0,1,,,,0,64,0,,
169904,note_off,,,,,0,0,1,,,,0,,,77,0
169904,note_off,,,,,86,0,1,,,,0,,,65,0
169984,note_on,,,,,80,0,1,,,,0,,,65,49
169984,note_off,,,,,0,0,1,,,,0,,,47,0
169984,note_on,,,,,0,0,1,,,,0,,,77,67
169984,note_off,,,,,0,0,1,,,,0,,,53,0
169984,note_on,,,,,0,0,1,,,,0,,,46,53
170233,control_change,,,,,249,0,1,,,,0,64,127,,
170325,note_on,,,,,92,0,1,,,,0,,,51,50
170416,note_off,,,,,91,0,1,,,,0,,,65,0
170416,note_off,,,,,0,0,1,,,,0,,,77,0
170496,note_on,,,,,0,0,1,,,,0,,,77,67
170496,note_on,,,,,80,0,1,,,,0,,,65,50
170667,note_on,,,,,0,0,1,,,,0,,,53,46
170667,note_off,,,,,171,0,1,,,,0,,,51,0
170814,control_change,,,,,147,0,1,,,,0,64,0,,
170928,note_off,,,,,114,0,1,,,,0,,,65,0
170928,note_off,,,,,0,0,1,,,,0,,,77,0
171008,control_change,,,,,0,0,1,,,,0,64,0,,
171008,control_change,,,,,80,0,1,,,,0,64,0,,
171008,control_change,,,,,0,0,1,,,,0,64,0,,
171008,control_change,,,,,0,0,1,,,,0,64,0,,
171008,control_change,,,,,0,0,1,,,,0,64,0,,
171008,note_off,,,,,0,0,1,,,,0,,,46,0
171008,note_off,,,,,0,0,1,,,,0,,,53,0
171008,note_on,,,,,0,0,1,,,,0,,,65,44
171008,note_on,,,,,0,0,1,,,,0,,,77,60
171008,note_on,,,,,0,0,1,,,,0,,,45,47
171285,control_change,,,,,277,0,1,,,,0,64,127,,
171349,note_on,,,,,64,0,1,,,,0,,,51,45
171520,note_off,,,,,171,0,1,,,,0,,,65,0
171520,note_on,,,,,0,0,1,,,,0,,,65,45
171520,note_off,,,,,0,0,1,,,,0,,,77,0
171520,note_on,,,,,0,0,1,,,,0,,,77,61
171691,note_on,,,,,0,0,1,,,,0,,,53,42
171691,note_off,,,,,171,0,1,,,,0,,,51,0
171866,control_change,,,,,175,0,1,,,,0,64,0,,
172032,note_on,,,,,0,0,1,,,,0,,,46,50
172032,note_off,,,,,166,0,1,,,,0,,,65,0
172032,note_off,,,,,0,0,1,,,,0,,,77,0
172032,note_off,,,,,0,0,1,,,,0,,,45,0
172032,note_off,,,,,0,0,1,,,,0,,,53,0
172032,note_on,,,,,0,0,1,,,,0,,,65,46
172032,note_on,,,,,0,0,1,,,,0,,,77,62
172281,control_change,,,,,249,0,1,,,,0,64,127,,
172373,note_on,,,,,92,0,1,,,,0,,,51,47
172544,note_off,,,,,171,0,1,,,,0,,,65,0
172544,note_off,,,,,0,0,1,,,,0,,,77,0
172544,note_on,,,,,0,0,1,,,,0,,,65,47
172544,note_on,,,,,0,0,1,,,,0,,,77,63
172715,note_off,,,,,171,0,1,,,,0,,,51,0
172715,note_on,,,,,0,0,1,,,,0,,,53,44
172862,control_change,,,,,147,0,1,,,,0,64,0,,
173056,note_off,,,,,0,0,1,,,,0,,,53,0
173056,note_on,,,,,0,0,1,,,,0,,,65,48
173056,note_on,,,,,0,0,1,,,,0,,,77,65
173056,note_on,,,,,0,0,1,,,,0,,,48,52
173056,note_off,,,,,0,0,1,,,,0,,,46,0
173056,note_off,,,,,0,0,1,,,,0,,,77,0
173056,note_off,,,,,0,0,1,,,,0,,,65,0
173056,control_change,,,,,0,0,1,,,,0,64,0,,
173056,control_change,,,,,0,0,1,,,,0,64,0,,
173056,control_change,,,,,0,0,1,,,,0,64,0,,
173056,control_change,,,,,194,0,1,,,,0,64,0,,
173056,control_change,,,,,0,0,1,,,,0,64,0,,
173333,control_change,,,,,277,0,1,,,,0,64,127,,
173397,note_on,,,,,64,0,1,,,,0,,,51,49
173568,note_on,,,,,0,0,1,,,,0,,,77,65
173568,note_off,,,,,0,0,1,,,,0,,,77,0
173568,note_off,,,,,171,0,1,,,,0,,,65,0
173568,note_on,,,,,0,0,1,,,,0,,,65,48
173739,note_off,,,,,171,0,1,,,,0,,,51,0
173739,note_on,,,,,0,0,1,,,,0,,,53,46
173914,control_change,,,,,175,0,1,,,,0,64,0,,
174080,note_off,,,,,166,0,1,,,,0,,,65,0
174080,note_off,,,,,0,0,1,,,,0,,,77,0
174080,note_off,,,,,0,0,1,,,,0,,,48,0
174080,note_off,,,,,0,0,1,,,,0,,,53,0
174080,note_on,,,,,0,0,1,,,,0,,,65,49
174080,note_on,,,,,0,0,1,,,,0,,,77,67
174080,note_on,,,,,0,0,1,,,,0,,,45,55
174329,control_change,,,,,249,0,1,,,,0,64,127,,
174421,note_on,,,,,92,0,1,,,,0,,,51,52
174592,note_off,,,,,171,0,1,,,,0,,,65,0
174592,note_off,,,,,0,0,1,,,,0,,,77,0
174592,note_on,,,,,0,0,1,,,,0,,,65,50
174592,note_on,,,,,0,0,1,,,,0,,,77,67
174763,note_on,,,,,0,0,1,,,,0,,,53,48
174763,note_off,,,,,171,0,1,,,,0,,,51,0
174910,control_change,,,,,147,0,1,,,,0,64,0,,
175104,note_on,,,,,0,0,1,,,,0,,,46,47
175104,note_on,,,,,0,0,1,,,,0,,,79,60
175104,note_on,,,,,0,0,1,,,,0,,,67,44
175104,note_off,,,,,0,0,1,,,,0,,,53,0
175104,note_off,,,,,0,0,1,,,,0,,,45,0
175104,note_off,,,,,0,0,1,,,,0,,,77,0
175104,note_off,,,,,0,0,1,,,,0,,,65,0
175104,control_change,,,,,0,0,1,,,,0,64,0,,
175104,control_change,,,,,0,0,1,,,,0,64,0,,
175104,control_change,,,,,0,0,1,,,,0,64,0,,
175104,control_change,,,,,194,0,1,,,,0,64,0,,
175104,control_change,,,,,0,0,1,,,,0,64,0,,
175381,control_change,,,,,277,0,1,,,,0,64,127,,
175445,note_on,,,,,64,0,1,,,,0,,,52,45
175616,note_on,,,,,0,0,1,,,,0,,,79,61
175616,note_off,,,,,171,0,1,,,,0,,,67,0
175616,note_off,,,,,0,0,1,,,,0,,,79,0
175616,note_on,,,,,0,0,1,,,,0,,,67,45
175787,note_on,,,,,0,0,1,,,,0,,,55,41
175787,note_off,,,,,171,0,1,,,,0,,,52,0
175962,control_change,,,,,175,0,1,,,,0,64,0,,
176128,note_on,,,,,0,0,1,,,,0,,,67,46
176128,note_on,,,,,0,0,1,,,,0,,,48,51
176128,note_on,,,,,0,0,1,,,,0,,,79,62
176128,note_off,,,,,0,0,1,,,,0,,,55,0
176128,note_off,,,,,0,0,1,,,,0,,,46,0
176128,note_off,,,,,0,0,1,,,,0,,,79,0
176128,note_off,,,,,166,0,1,,,,0,,,67,0
176377,control_change,,,,,249,0,1,,,,0,64,127,,
176469,note_on,,,,,92,0,1,,,,0,,,52,49
176640,note_on,,,,,0,0,1,,,,0,,,79,63
176640,note_off,,,,,0,0,1,,,,0,,,79,0
176640,note_on,,,,,0,0,1,,,,0,,,67,47
176640,note_off,,,,,171,0,1,,,,0,,,67,0
176811,note_off,,,,,171,0,1,,,,0,,,52,0
176811,note_on,,,,,0,0,1,,,,0,,,55,45
176958,control_change,,,,,147,0,1,,,,0,64,0,,
177152,note_on,,,,,0,0,1,,,,0,,,79,65
177152,note_off,,,,,0,0,1,,,,0,,,79,0
177152,note_on,,,,,0,0,1,,,,0,,,49,55
177152,note_on,,,,,0,0,1,,,,0,,,67,48
177152,note_off,,,,,0,0,1,,,,0,,,55,0
177152,note_off,,,,,0,0,1,,,,0,,,67,0
177152,note_off,,,,,0,0,1,,,,0,,,48,0
177152,control_change,,,,,0,0,1,,,,0,64,0,,
177152,control_change,,,,,0,0,1,,,,0,64,0,,
177152,control_change,,,,,0,0,1,,,,0,64,0,,
177152,control_change,,,,,194,0,1,,,,0,64,0,,
177152,control_change,,,,,0,0,1,,,,0,64,0,,
177429,control_change,,,,,277,0,1,,,,0,64,127,,
177493,note_on,,,,,64,0,1,,,,0,,,52,53
177664,note_on,,,,,0,0,1,,,,0,,,79,65
177664,note_off,,,,,0,0,1,,,,0,,,79,0
177664,note_on,,,,,0,0,1,,,,0,,,67,48
177664,note_off,,,,,171,0,1,,,,0,,,67,0
177835,note_off,,,,,171,0,1,,,,0,,,52,0
177835,note_on,,,,,0,0,1,,,,0,,,55,49
178010,control_change,,,,,175,0,1,,,,0,64,0,,
178176,note_on,,,,,0,0,1,,,,0,,,48,59
178176,note_off,,,,,166,0,1,,,,0,,,67,0
178176,note_off,,,,,0,0,1,,,,0,,,79,0
178176,note_off,,,,,0,0,1,,,,0,,,49,0
178176,note_off,,,,,0,0,1,,,,0,,,55,0
178176,note_on,,,,,0,0,1,,,,0,,,67,49
178176,note_on,,,,,0,0,1,,,,0,,,79,67
178425,control_change,,,,,249,0,1,,,,0,64,127,,
178517,note_on,,,,,92,0,1,,,,0,,,52,57
178688,note_off,,,,,171,0,1,,,,0,,,67,0
178688,note_on,,,,,0,0,1,,,,0,,,67,50
178688,note_on,,,,,0,0,1,,,,0,,,79,67
178688,note_off,,,,,0,0,1,,,,0,,,79,0
178859,note_off,,,,,171,0,1,,,,0,,,52,0
178859,note_on,,,,,0,0,1,,,,0,,,55,53
179006,control_change,,,,,147,0,1,,,,0,64,0,,
179200,note_on,,,,,0,0,1,,,,0,,,46,54
179200,control_change,,,,,194,0,1,,,,0,64,0,,
179200,control_change,,,,,0,0,1,,,,0,64,0,,
179200,note_off,,,,,0,0,1,,,,0,,,67,0
179200,note_off,,,,,0,0,1,,,,0,,,79,0
179200,note_off,,,,,0,0,1,,,,0,,,48,0
179200,note_off,,,,,0,0,1,,,,0,,,55,0
179200,note_on,,,,,0,0,1,,,,0,,,67,51
179200,note_on,,,,,0,0,1,,,,0,,,79,67
179541,note_on,,,,,341,0,1,,,,0,,,52,51
179712,note_on,,,,,0,0,1,,,,0,,,79,68
179712,note_on,,,,,0,0,1,,,,0,,,67,52
179712,note_off,,,,,0,0,1,,,,0,,,79,0
179712,note_off,,,,,171,0,1,,,,0,,,67,0
179883,note_off,,,,,171,0,1,,,,0,,,52,0
179883,note_on,,,,,0,0,1,,,,0,,,55,47
180224,note_off,,,,,0,0,1,,,,0,,,55,0
180224,note_on,,,,,0,0,1,,,,0,,,79,69
180224,note_off,,,,,341,0,1,,,,0,,,67,0
180224,note_off,,,,,0,0,1,,,,0,,,79,0
180224,note_off,,,,,0,0,1,,,,0,,,46,0
180224,note_on,,,,,0,0,1,,,,0,,,48,58
180224,note_on,,,,,0,0,1,,,,0,,,67,53
180565,note_on,,,,,341,0,1,,,,0,,,52,56
180736,note_off,,,,,0,0,1,,,,0,,,79,0
180736,note_on,,,,,0,0,1,,,,0,,,67,54
180736,note_on,,,,,0,0,1,,,,0,,,79,70
180736,note_off,,,,,171,0,1,,,,0,,,67,0
180907,note_off,,,,,171,0,1,,,,0,,,52,0
180907,note_on,,,,,0,0,1,,,,0,,,55,51
181248,note_on,,,,,0,0,1,,,,0,,,49,63
181248,note_on,,,,,0,0,1,,,,0,,,79,72
181248,note_on,,,,,0,0,1,,,,0,,,67,55
181248,note_off,,,,,0,0,1,,,,0,,,55,0
181248,note_off,,,,,0,0,1,,,,0,,,48,0
181248,note_off,,,,,0,0,1,,,,0,,,79,0
181248,note_off,,,,,0,0,1,,,,0,,,67,0
181248,control_change,,,,,0,0,1,,,,0,64,0,,
181248,control_change,,,,,341,0,1,,,,0,64,0,,
181589,note_on,,,,,341,0,1,,,,0,,,52,60
181760,note_on,,,,,0,0,1,,,,0,,,79,72
181760,note_off,,,,,171,0,1,,,,0,,,67,0
181760,note_off,,,,,0,0,1,,,,0,,,79,0
181760,note_on,,,,,0,0,1,,,,0,,,67,55
181931,note_on,,,,,0,0,1,,,,0,,,55,55
181931,note_off,,,,,171,0,1,,,,0,,,52,0
182272,note_off,,,,,341,0,1,,,,0,,,67,0
182272,note_off,,,,,0,0,1,,,,0,,,79,0
182272,note_off,,,,,0,0,1,,,,0,,,49,0
182272,note_off,,,,,0,0,1,,,,0,,,55,0
182272,note_on,,,,,0,0,1,,,,0,,,67,56
182272,note_on,,,,,0,0,1,,,,0,,,79,74
182272,note_on,,,,,0,0,1,,,,0,,,46,67
182613,note_on,,,,,341,0,1,,,,0,,,52,64
182784,note_off,,,,,171,0,1,,,,0,,,67,0
182784,note_off,,,,,0,0,1,,,,0,,,79,0
182784,note_on,,,,,0,0,1,,,,0,,,67,57
182784,note_on,,,,,0,0,1,,,,0,,,79,74
182955,note_off,,,,,171,0,1,,,,0,,,52,0
182955,note_on,,,,,0,0,1,,,,0,,,55,60
183296,note_on,,,,,0,0,1,,,,0,,,80,80
183296,note_on,,,,,0,0,1,,,,0,,,48,52
183296,note_on,,,,,0,0,1,,,,0,,,68,64
183296,note_on,,,,,0,0,1,,,,0,,,56,64
183296,note_on,,,,,0,0,1,,,,0,,,51,52
183296,note_off,,,,,0,0,1,,,,0,,,55,0
183296,set_tempo,,,,,15872,1,0,,375000,,,,,,
183296,note_off,,,,,0,0,1,,,,0,,,79,0
183296,note_off,,,,,0,0,1,,,,0,,,67,0
183296,control_change,,,,,0,0,1,,,,0,64,0,,
183296,control_change,,,,,341,0,1,,,,0,64,0,,
183296,note_off,,,,,0,0,1,,,,0,,,46,0
183808,note_off,,,,,0,0,1,,,,0,,,56,0
183808,note_off,,,,,0,0,1,,,,0,,,48,0
183808,note_off,,,,,0,0,1,,,,0,,,51,0
183808,note_off,,,,,512,0,1,,,,0,,,68,0
183808,note_off,,,,,0,0,1,,,,0,,,80,0
184320,note_on,,,,,0,0,1,,,,0,,,56,70
184320,set_tempo,,,,,1024,1,0,,333333,,,,,,
184320,note_on,,,,,512,0,1,,,,0,,,72,64
184320,note_on,,,,,0,0,1,,,,0,,,75,64
184320,note_on,,,,,0,0,1,,,,0,,,80,64
184320,note_on,,,,,0,0,1,,,,0,,,84,80
184320,note_on,,,,,0,0,1,,,,0,,,44,58
184320,note_on,,,,,0,0,1,,,,0,,,51,58
185344,control_change,,,,,0,0,1,,,,0,64,0,,
185344,control_change,,,,,1024,0,1,,,,0,64,0,,
187392,control_change,,,,,2048,0,1,,,,0,64,0,,
187392,control_change,,,,,0,0,1,,,,0,64,0,,
187392,note_off,,,,,0,0,1,,,,0,,,72,0
187392,note_off,,,,,0,0,1,,,,0,,,75,0
187392,note_off,,,,,0,0,1,,,,0,,,80,0
187392,note_off,,,,,0,0,1,,,,0,,,84,0
187392,note_off,,,,,0,0,1,,,,0,,,44,0
187392,note_off,,,,,0,0,1,,,,0,,,51,0
187392,note_off,,,,,0,0,1,,,,0,,,56,0
187392,note_on,,,,,0,0,1,,,,0,,,70,64
187392,note_on,,,,,0,0,1,,,,0,,,82,80
187392,note_on,,,,,0,0,1,,,,0,,,46,52
187392,note_on,,,,,0,0,1,,,,0,,,55,52
187392,note_on,,,,,0,0,1,,,,0,,,58,64
188176,note_off,,,,,0,0,1,,,,0,,,55,0
188176,note_off,,,,,0,0,1,,,,0,,,46,0
188176,note_off,,,,,0,0,1,,,,0,,,58,0
188176,note_off,,,,,784,0,1,,,,0,,,70,0
188176,note_off,,,,,0,0,1,,,,0,,,82,0
188416,note_on,,,,,240,0,1,,,,0,,,68,59
188416,note_on,,,,,0,0,1,,,,0,,,80,75
188416,note_on,,,,,0,0,1,,,,0,,,46,46
188416,note_on,,,,,0,0,1,,,,0,,,53,46
188416,note_on,,,,,0,0,1,,,,0,,,56,58
188688,note_off,,,,,0,0,1,,,,0,,,53,0
188688,note_off,,,,,0,0,1,,,,0,,,46,0
188688,note_off,,,,,0,0,1,,,,0,,,56,0
188688,note_off,,,,,272,0,1,,,,0,,,68,0
188688,note_off,,,,,0,0,1,,,,0,,,80,0
188928,note_on,,,,,240,0,1,,,,0,,,67,59
188928,note_on,,,,,0,0,1,,,,0,,,79,75
188928,note_on,,,,,0,0,1,,,,0,,,46,46
188928,note_on,,,,,0,0,1,,,,0,,,51,46
188928,note_on,,,,,0,0,1,,,,0,,,55,58
189200,note_off,,,,,0,0,1,,,,0,,,55,0
189200,note_off,,,,,0,0,1,,,,0,,,46,0
189200,note_off,,,,,0,0,1,,,,0,,,51,0
189200,note_off,,,,,272,0,1,,,,0,,,67,0
189200,note_off,,,,,0,0,1,,,,0,,,79,0
189440,note_on,,,,,0,0,1,,,,0,,,80,77
189440,control_change,,,,,240,0,1,,,,0,64,0,,
189440,control_change,,,,,0,0,1,,,,0,64,0,,
189440,note_on,,,,,0,0,1,,,,0,,,68,61
189440,note_on,,,,,0,0,1,,,,0,,,46,48
189440,note_on,,,,,0,0,1,,,,0,,,53,48
189440,note_on,,,,,0,0,1,,,,0,,,56,60
189814,note_off,,,,,0,0,1,,,,0,,,56,0
189814,note_off,,,,,0,0,1,,,,0,,,53,0
189814,note_off,,,,,0,0,1,,,,0,,,80,0
189814,note_off,,,,,374,0,1,,,,0,,,68,0
189814,note_off,,,,,0,0,1,,,,0,,,46,0
190464,note_on,,,,,650,0,1,,,,0,,,70,64
190464,note_on,,,,,0,0,1,,,,0,,,82,80
190464,note_on,,,,,0,0,1,,,,0,,,46,52
190464,note_on,,,,,0,0,1,,,,0,,,50,52
190464,note_on,,,,,0,0,1,,,,0,,,58,64
190838,note_off,,,,,0,0,1,,,,0,,,50,0
190838,note_off,,,,,0,0,1,,,,0,,,58,0
190838,note_off,,,,,0,0,1,,,,0,,,46,0
190838,note_off,,,,,374,0,1,,,,0,,,70,0
190838,note_off,,,,,0,0,1,,,,0,,,82,0
191488,note_on,,,,,0,0,1,,,,0,,,55,52
191488,note_on,,,,,0,0,1,,,,0,,,51,52
191488,note_on,,,,,0,0,1,,,,0,,,79,80
191488,set_tempo,,,,,7168,1,0,,428571,,,,,,
191488,control_change,,,,,0,0,1,,,,0,64,0,,
191488,control_change,,,,,650,0,1,,,,0,64,0,,
191488,note_on,,,,,0,0,1,,,,0,,,67,64
191872,note_off,,,,,384,0,1,,,,0,,,67,0
191872,note_off,,,,,0,0,1,,,,0,,,79,0
191872,note_off,,,,,0,0,1,,,,0,,,51,0
191872,note_off,,,,,0,0,1,,,,0,,,55,0
192512,note_on,,,,,0,0,1,,,,0,,,56,74
192512,note_on,,,,,0,0,1,,,,0,,,51,62
192512,note_on,,,,,0,0,1,,,,0,,,44,62
192512,set_tempo,,,,,1024,1,0,,333333,,,,,,
192512,note_on,,,,,0,0,1,,,,0,,,84,75
192512,note_on,,,,,0,0,1,,,,0,,,80,75
192512,note_on,,,,,640,0,1,,,,0,,,75,75
192512,note_on,,,,,0,0,1,,,,0,,,87,91
193536,control_change,,,,,1024,0,1,,,,0,64,0,,
193536,control_change,,,,,0,0,1,,,,0,64,0,,
195584,note_on,,,,,0,0,1,,,,0,,,58,64
195584,note_on,,,,,0,0,1,,,,0,,,55,52
195584,note_on,,,,,0,0,1,,,,0,,,46,52
195584,note_on,,,,,0,0,1,,,,0,,,70,64
195584,note_off,,,,,0,0,1,,,,0,,,56,0
195584,note_on,,,,,0,0,1,,,,0,,,82,80
195584,note_off,,,,,0,0,1,,,,0,,,44,0
195584,note_off,,,,,0,0,1,,,,0,,,87,0
195584,control_change,,,,,2048,0,1,,,,0,64,0,,
195584,note_off,,,,,0,0,1,,,,0,,,84,0
195584,note_off,,,,,0,0,1,,,,0,,,80,0
195584,note_off,,,,,0,0,1,,,,0,,,75,0
195584,note_off,,,,,0,0,1,,,,0,,,51,0
195584,control_change,,,,,0,0,1,,,,0,64,0,,
196368,note_off,,,,,0,0,1,,,,0,,,58,0
196368,note_off,,,,,0,0,1,,,,0,,,46,0
196368,note_off,,,,,0,0,1,,,,0,,,82,0
196368,note_off,,,,,0,0,1,,,,0,,,55,0
196368,note_off,,,,,784,0,1,,,,0,,,70,0
196608,note_on,,,,,0,0,1,,,,0,,,56,58
196608,note_on,,,,,0,0,1,,,,0,,,53,46
196608,note_on,,,,,0,0,1,,,,0,,,80,75
196608,note_on,,,,,240,0,1,,,,0,,,68,59
196608,note_on,,,,,0,0,1,,,,0,,,46,46
196880,note_off,,,,,272,0,1,,,,0,,,68,0
196880,note_off,,,,,0,0,1,,,,0,,,80,0
196880,note_off,,,,,0,0,1,,,,0,,,46,0
196880,note_off,,,,,0,0,1,,,,0,,,56,0
196880,note_off,,,,,0,0,1,,,,0,,,53,0
197120,note_on,,,,,240,0,1,,,,0,,,67,59
197120,note_on,,,,,0,0,1,,,,0,,,79,75
197120,note_on,,,,,0,0,1,,,,0,,,46,46
197120,note_on,,,,,0,0,1,,,,0,,,51,46
197120,note_on,,,,,0,0,1,,,,0,,,55,58
197392,note_off,,,,,0,0,1,,,,0,,,55,0
197392,note_off,,,,,0,0,1,,,,0,,,51,0
197392,note_off,,,,,0,0,1,,,,0,,,79,0
197392,note_off,,,,,0,0,1,,,,0,,,46,0
197392,note_off,,,,,272,0,1,,,,0,,,67,0
197632,note_on,,,,,0,0,1,,,,0,,,56,60
197632,note_on,,,,,0,0,1,,,,0,,,53,48
197632,control_change,,,,,0,0,1,,,,0,64,0,,
197632,note_on,,,,,0,0,1,,,,0,,,80,77
197632,note_on,,,,,0,0,1,,,,0,,,68,61
197632,control_change,,,,,240,0,1,,,,0,64,0,,
197632,note_on,,,,,0,0,1,,,,0,,,46,48
198006,note_off,,,,,374,0,1,,,,0,,,68,0
198006,note_off,,,,,0,0,1,,,,0,,,80,0
198006,note_off,,,,,0,0,1,,,,0,,,46,0
198006,note_off,,,,,0,0,1,,,,0,,,53,0
198006,note_off,,,,,0,0,1,,,,0,,,56,0
198656,note_on,,,,,650,0,1,,,,0,,,70,64
198656,note_on,,,,,0,0,1,,,,0,,,82,80
198656,note_on,,,,,0,0,1,,,,0,,,46,52
198656,note_on,,,,,0,0,1,,,,0,,,50,52
198656,note_on,,,,,0,0,1,,,,0,,,58,64
199680,note_on,,,,,0,0,1,,,,0,,,55,64
199680,note_on,,,,,0,0,1,,,,0,,,51,52
199680,control_change,,,,,1024,0,1,,,,0,64,0,,
199680,note_on,,,,,0,0,1,,,,0,,,67,64
199680,note_off,,,,,0,0,1,,,,0,,,50,0
199680,control_change,,,,,0,0,1,,,,0,64,0,,
199680,note_on,,,,,0,0,1,,,,0,,,79,80
199730,note_off,,,,,50,0,1,,,,0,,,70,0
199730,note_off,,,,,0,0,1,,,,0,,,82,0
199730,note_off,,,,,0,0,1,,,,0,,,58,0
200464,note_off,,,,,0,0,1,,,,0,,,51,0
200464,note_off,,,,,0,0,1,,,,0,,,55,0
200464,note_off,,,,,734,0,1,,,,0,,,67,0
200464,note_off,,,,,0,0,1,,,,0,,,46,0
200464,note_off,,,,,0,0,1,,,,0,,,79,0
200704,note_on,,,,,0,0,1,,,,0,,,46,46
200704,note_on,,,,,0,0,1,,,,0,,,53,46
200704,note_on,,,,,0,0,1,,,,0,,,56,58
200704,note_on,,,,,0,0,1,,,,0,,,80,75
200704,note_on,,,,,240,0,1,,,,0,,,68,59
200976,note_off,,,,,272,0,1,,,,0,,,68,0
200976,note_off,,,,,0,0,1,,,,0,,,80,0
200976,note_off,,,,,0,0,1,,,,0,,,46,0
200976,note_off,,,,,0,0,1,,,,0,,,53,0
200976,note_off,,,,,0,0,1,,,,0,,,56,0
201216,note_on,,,,,0,0,1,,,,0,,,55,58
201216,note_on,,,,,0,0,1,,,,0,,,51,46
201216,note_on,,,,,240,0,1,,,,0,,,67,59
201216,note_on,,,,,0,0,1,,,,0,,,79,75
201216,note_on,,,,,0,0,1,,,,0,,,46,46
201488,note_off,,,,,272,0,1,,,,0,,,67,0
201488,note_off,,,,,0,0,1,,,,0,,,79,0
201488,note_off,,,,,0,0,1,,,,0,,,46,0
201488,note_off,,,,,0,0,1,,,,0,,,51,0
201488,note_off,,,,,0,0,1,,,,0,,,55,0
201728,control_change,,,,,240,0,1,,,,0,64,0,,
201728,control_change,,,,,0,0,1,,,,0,64,0,,
201728,note_on,,,,,0,0,1,,,,0,,,68,61
201728,note_on,,,,,0,0,1,,,,0,,,80,77
201728,note_on,,,,,0,0,1,,,,0,,,53,48
201728,note_on,,,,,0,0,1,,,,0,,,46,48
201728,note_on,,,,,0,0,1,,,,0,,,56,60
202102,note_off,,,,,374,0,1,,,,0,,,68,0
202102,note_off,,,,,0,0,1,,,,0,,,80,0
202102,note_off,,,,,0,0,1,,,,0,,,46,0
202102,note_off,,,,,0,0,1,,,,0,,,53,0
202102,note_off,,,,,0,0,1,,,,0,,,56,0
202752,note_on,,,,,0,0,1,,,,0,,,82,85
202752,set_tempo,,,,,10240,1,0,,375000,,,,,,
202752,note_on,,,,,650,0,1,,,,0,,,70,69
202752,note_on,,,,,0,0,1,,,,0,,,46,57
202752,note_on,,,,,0,0,1,,,,0,,,50,57
202752,note_on,,,,,0,0,1,,,,0,,,58,69
203776,note_on,,,,,0,0,1,,,,0,,,79,80
203776,note_on,,,,,0,0,1,,,,0,,,67,64
203776,note_off,,,,,0,0,1,,,,0,,,50,0
203776,control_change,,,,,0,0,1,,,,0,64,0,,
203776,set_tempo,,,,,1024,1,0,,333333,,,,,,
203776,note_on,,,,,0,0,1,,,,0,,,51,52
203776,control_change,,,,,1024,0,1,,,,0,64,0,,
203776,note_on,,,,,0,0,1,,,,0,,,55,64
203826,note_off,,,,,50,0,1,,,,0,,,70,0
203826,note_off,,,,,0,0,1,,,,0,,,58,0
203826,note_off,,,,,0,0,1,,,,0,,,82,0
204560,note_off,,,,,734,0,1,,,,0,,,67,0
204560,note_off,,,,,0,0,1,,,,0,,,79,0
204560,note_off,,,,,0,0,1,,,,0,,,46,0
204560,note_off,,,,,0,0,1,,,,0,,,51,0
204560,note_off,,,,,0,0,1,,,,0,,,55,0
204800,note_on,,,,,0,0,1,,,,0,,,56,58
204800,note_on,,,,,0,0,1,,,,0,,,53,46
204800,note_on,,,,,0,0,1,,,,0,,,46,46
204800,note_on,,,,,0,0,1,,,,0,,,80,75
204800,note_on,,,,,240,0,1,,,,0,,,68,59
205072,note_off,,,,,272,0,1,,,,0,,,68,0
205072,note_off,,,,,0,0,1,,,,0,,,80,0
205072,note_off,,,,,0,0,1,,,,0,,,46,0
205072,note_off,,,,,0,0,1,,,,0,,,53,0
205072,note_off,,,,,0,0,1,,,,0,,,56,0
205312,note_on,,,,,0,0,1,,,,0,,,51,46
205312,note_on,,,,,0,0,1,,,,0,,,46,46
205312,note_on,,,,,0,0,1,,,,0,,,79,75
205312,note_on,,,,,0,0,1,,,,0,,,55,58
205312,note_on,,,,,240,0,1,,,,0,,,67,59
205584,note_off,,,,,0,0,1,,,,0,,,51,0
205584,note_off,,,,,0,0,1,,,,0,,,55,0
205584,note_off,,,,,0,0,1,,,,0,,,79,0
205584,note_off,,,,,0,0,1,,,,0,,,46,0
205584,note_off,,,,,272,0,1,,,,0,,,67,0
205824,control_change,,,,,240,0,1,,,,0,64,0,,
205824,control_change,,,,,0,0,1,,,,0,64,0,,
205824,note_on,,,,,0,0,1,,,,0,,,68,61
205824,note_on,,,,,0,0,1,,,,0,,,80,77
205824,note_on,,,,,0,0,1,,,,0,,,46,48
205824,note_on,,,,,0,0,1,,,,0,,,53,48
205824,note_on,,,,,0,0,1,,,,0,,,56,60
206198,note_off,,,,,0,0,1,,,,0,,,56,0
206198,note_off,,,,,0,0,1,,,,0,,,53,0
206198,note_off,,,,,0,0,1,,,,0,,,46,0
206198,note_off,,,,,0,0,1,,,,0,,,80,0
206198,note_off,,,,,374,0,1,,,,0,,,68,0
206848,set_tempo,,,,,3072,1,0,,375000,,,,,,
206848,note_on,,,,,650,0,1,,,,0,,,70,69
206848,note_on,,,,,0,0,1,,,,0,,,82,85
206848,note_on,,,,,0,0,1,,,,0,,,46,57
206848,note_on,,,,,0,0,1,,,,0,,,50,57
206848,note_on,,,,,0,0,1,,,,0,,,58,69
207872,note_on,,,,,0,0,1,,,,0,,,55,59
207872,note_on,,,,,0,0,1,,,,0,,,51,59
207872,note_on,,,,,0,0,1,,,,0,,,79,74
207872,note_on,,,,,0,0,1,,,,0,,,67,58
207872,control_change,,,,,0,0,1,,,,0,64,0,,
207872,control_change,,,,,1024,0,1,,,,0,64,0,,
207872,note_off,,,,,0,0,1,,,,0,,,50,0
207922,note_off,,,,,50,0,1,,,,0,,,70,0
207922,note_off,,,,,0,0,1,,,,0,,,82,0
207922,note_off,,,,,0,0,1,,,,0,,,46,0
207922,note_off,,,,,0,0,1,,,,0,,,58,0
208656,note_off,,,,,0,0,1,,,,0,,,51,0
208656,note_off,,,,,0,0,1,,,,0,,,55,0
208656,note_off,,,,,0,0,1,,,,0,,,79,0
208656,note_off,,,,,734,0,1,,,,0,,,67,0
208896,set_tempo,,,,,2048,1,0,,333333,,,,,,
208896,note_on,,,,,240,0,1,,,,0,,,70,69
208896,note_on,,,,,0,0,1,,,,0,,,74,69
208896,note_on,,,,,0,0,1,,,,0,,,77,69
208896,note_on,,,,,0,0,1,,,,0,,,82,85
208896,note_on,,,,,0,0,1,,,,0,,,39,58
208896,note_on,,,,,0,0,1,,,,0,,,46,58
208896,note_on,,,,,0,0,1,,,,0,,,51,70
209920,control_change,,,,,1024,0,1,,,,0,64,0,,
209920,control_change,,,,,0,0,1,,,,0,64,0,,
210244,note_off,,,,,0,0,1,,,,0,,,46,0
210244,note_off,,,,,0,0,1,,,,0,,,51,0
210244,note_off,,,,,0,0,1,,,,0,,,39,0
210244,note_off,,,,,0,0,1,,,,0,,,82,0
210244,note_off,,,,,0,0,1,,,,0,,,77,0
210244,note_off,,,,,0,0,1,,,,0,,,74,0
210244,note_off,,,,,324,0,1,,,,0,,,70,0
210944,note_on,,,,,700,0,1,,,,0,,,70,60
210944,note_on,,,,,0,0,1,,,,0,,,74,60
210944,note_on,,,,,0,0,1,,,,0,,,77,60
210944,note_on,,,,,0,0,1,,,,0,,,82,75
210944,note_on,,,,,0,0,1,,,,0,,,39,52
210944,note_on,,,,,0,0,1,,,,0,,,46,52
210944,note_on,,,,,0,0,1,,,,0,,,51,64
211268,note_off,,,,,0,0,1,,,,0,,,51,0
211268,note_off,,,,,0,0,1,,,,0,,,46,0
211268,note_off,,,,,0,0,1,,,,0,,,39,0
211268,note_off,,,,,324,0,1,,,,0,,,70,0
211268,note_off,,,,,0,0,1,,,,0,,,77,0
211268,note_off,,,,,0,0,1,,,,0,,,74,0
211268,note_off,,,,,0,0,1,,,,0,,,82,0
211968,note_on,,,,,0,0,1,,,,0,,,46,47
211968,set_tempo,,,,,3072,1,0,,375000,,,,,,
211968,note_on,,,,,0,0,1,,,,0,,,51,59
211968,note_on,,,,,0,0,1,,,,0,,,39,47
211968,note_on,,,,,0,0,1,,,,0,,,79,58
211968,note_on,,,,,0,0,1,,,,0,,,75,74
211968,note_on,,,,,0,0,1,,,,0,,,70,58
211968,control_change,,,,,0,0,1,,,,0,64,0,,
211968,control_change,,,,,700,0,1,,,,0,64,0,,
212352,note_off,,,,,384,0,1,,,,0,,,70,0
212352,note_off,,,,,0,0,1,,,,0,,,75,0
212352,note_off,,,,,0,0,1,,,,0,,,79,0
212352,note_off,,,,,0,0,1,,,,0,,,39,0
212352,note_off,,,,,0,0,1,,,,0,,,46,0
212352,note_off,,,,,0,0,1,,,,0,,,51,0
212992,set_tempo,,,,,1024,1,0,,333333,,,,,,
212992,note_on,,,,,0,0,1,,,,0,,,51,63
212992,note_on,,,,,0,0,1,,,,0,,,46,51
212992,note_on,,,,,0,0,1,,,,0,,,62,62
212992,note_on,,,,,0,0,1,,,,0,,,70,78
212992,note_on,,,,,0,0,1,,,,0,,,65,62
212992,note_on,,,,,640,0,1,,,,0,,,58,62
212992,note_on,,,,,0,0,1,,,,0,,,39,51
214016,control_change,,,,,1024,0,1,,,,0,64,0,,
214016,control_change,,,,,0,0,1,,,,0,64,0,,
214340,note_off,,,,,0,0,1,,,,0,,,46,0
214340,note_off,,,,,0,0,1,,,,0,,,39,0
214340,note_off,,,,,0,0,1,,,,0,,,51,0
214340,note_off,,,,,0,0,1,,,,0,,,65,0
214340,note_off,,,,,324,0,1,,,,0,,,58,0
214340,note_off,,,,,0,0,1,,,,0,,,70,0
214340,note_off,,,,,0,0,1,,,,0,,,62,0
215040,note_on,,,,,700,0,1,,,,0,,,58,53
215040,note_on,,,,,0,0,1,,,,0,,,62,53
215040,note_on,,,,,0,0,1,,,,0,,,65,53
215040,note_on,,,,,0,0,1,,,,0,,,70,68
215040,note_on,,,,,0,0,1,,,,0,,,39,33
215040,note_on,,,,,0,0,1,,,,0,,,46,33
215040,note_on,,,,,0,0,1,,,,0,,,51,45
215364,note_off,,,,,0,0,1,,,,0,,,51,0
215364,note_off,,,,,0,0,1,,,,0,,,46,0
215364,note_off,,,,,324,0,1,,,,0,,,58,0
215364,note_off,,,,,0,0,1,,,,0,,,70,0
215364,note_off,,,,,0,0,1,,,,0,,,65,0
215364,note_off,,,,,0,0,1,,,,0,,,62,0
215364,note_off,,,,,0,0,1,,,,0,,,39,0
216064,note_on,,,,,0,0,1,,,,0,,,46,35
216064,note_on,,,,,0,0,1,,,,0,,,39,35
216064,note_on,,,,,0,0,1,,,,0,,,51,44
216064,note_on,,,,,0,0,1,,,,0,,,63,52
216064,note_on,,,,,0,0,1,,,,0,,,58,52
216064,control_change,,,,,0,0,1,,,,0,64,0,,
216064,control_change,,,,,700,0,1,,,,0,64,0,,
216064,note_on,,,,,0,0,1,,,,0,,,67,64
216448,note_off,,,,,384,0,1,,,,0,,,58,0
216448,note_off,,,,,0,0,1,,,,0,,,63,0
216448,note_off,,,,,0,0,1,,,,0,,,67,0
216448,note_off,,,,,0,0,1,,,,0,,,39,0
216448,note_off,,,,,0,0,1,,,,0,,,46,0
216448,note_off,,,,,0,0,1,,,,0,,,51,0
217088,note_on,,,,,0,0,1,,,,0,,,39,36
217088,note_on,,,,,0,0,1,,,,0,,,46,45
217088,note_on,,,,,0,0,1,,,,0,,,53,45
217088,note_on,,,,,640,0,1,,,,0,,,50,45
217088,note_on,,,,,0,0,1,,,,0,,,58,57
217712,note_off,,,,,624,0,1,,,,0,,,50,0
217712,note_off,,,,,0,0,1,,,,0,,,53,0
217712,note_off,,,,,0,0,1,,,,0,,,58,0
217712,note_off,,,,,0,0,1,,,,0,,,39,0
217712,note_off,,,,,0,0,1,,,,0,,,46,0
218112,control_change,,,,,400,0,1,,,,0,64,0,,
218112,control_change,,,,,0,0,1,,,,0,64,0,,
218112,note_on,,,,,0,0,1,,,,0,,,51,36
218112,note_on,,,,,0,0,1,,,,0,,,39,28
218112,note_on,,,,,0,0,1,,,,0,,,55,48
218112,note_on,,,,,0,0,1,,,,0,,,46,37
218736,note_off,,,,,0,0,1,,,,0,,,39,0
218736,note_off,,,,,0,0,1,,,,0,,,55,0
218736,note_off,,,,,624,0,1,,,,0,,,51,0
218736,note_off,,,,,0,0,1,,,,0,,,46,0
219136,note_on,,,,,0,0,1,,,,0,,,58,52
219136,note_on,,,,,400,0,1,,,,0,,,50,40
219136,note_on,,,,,0,0,1,,,,0,,,53,40
219136,note_on,,,,,0,0,1,,,,0,,,39,29
219136,note_on,,,,,0,0,1,,,,0,,,46,38
219760,note_off,,,,,624,0,1,,,,0,,,50,0
219760,note_off,,,,,0,0,1,,,,0,,,53,0
219760,note_off,,,,,0,0,1,,,,0,,,58,0
219760,note_off,,,,,0,0,1,,,,0,,,39,0
219760,note_off,,,,,0,0,1,,,,0,,,46,0
220160,control_change,,,,,400,0,1,,,,0,64,0,,
220160,control_change,,,,,0,0,1,,,,0,64,0,,
220160,note_on,,,,,0,0,1,,,,0,,,51,31
220160,note_on,,,,,0,0,1,,,,0,,,55,43
220160,note_on,,,,,0,0,1,,,,0,,,39,20
220160,note_on,,,,,0,0,1,,,,0,,,46,29
220784,note_off,,,,,0,0,1,,,,0,,,46,0
220784,note_off,,,,,624,0,1,,,,0,,,51,0
220784,note_off,,,,,0,0,1,,,,0,,,55,0
220784,note_off,,,,,0,0,1,,,,0,,,39,0
221184,note_on,,,,,400,0,1,,,,0,,,50,35
221184,note_on,,,,,0,0,1,,,,0,,,53,35
221184,note_on,,,,,0,0,1,,,,0,,,58,47
221184,note_on,,,,,0,0,1,,,,0,,,39,22
221184,note_on,,,,,0,0,1,,,,0,,,46,31
221808,note_off,,,,,0,0,1,,,,0,,,46,0
221808,note_off,,,,,0,0,1,,,,0,,,58,0
221808,note_off,,,,,624,0,1,,,,0,,,50,0
221808,note_off,,,,,0,0,1,,,,0,,,53,0
221808,note_off,,,,,0,0,1,,,,0,,,39,0
222208,control_change,,,,,400,0,1,,,,0,64,0,,
222208,control_change,,,,,0,0,1,,,,0,64,0,,
222208,note_on,,,,,0,0,1,,,,0,,,51,26
222208,note_on,,,,,0,0,1,,,,0,,,55,38
222208,note_on,,,,,0,0,1,,,,0,,,39,13
222208,note_on,,,,,0,0,1,,,,0,,,46,22
223232,note_off,,,,,0,0,1,,,,0,,,46,0
223232,set_tempo,,,,,10240,1,0,,428571,,,,,,
223232,note_off,,,,,0,0,1,,,,0,,,55,0
223232,note_off,,,,,1024,0,1,,,,0,,,51,0
223232,note_off,,,,,0,0,1,,,,0,,,39,0
224256,control_change,,,,,1024,0,1,,,,0,64,0,,
224256,control_change,,,,,0,0,1,,,,0,64,0,,
224256,note_on,,,,,0,0,1,,,,0,,,70,44
224256,note_on,,,,,0,0,1,,,,0,,,39,32
224256,set_tempo,,,,,0,1,0,,375000,,,,,,
224256,key_signature,,,,,1024,1,0,Ebm,,,,,,,
224560,control_change,,,,,304,0,1,,,,0,64,127,,
224587,control_change,,,,,0,0,1,,,,0,64,127,,
224587,control_change,,,,,27,0,1,,,,0,64,127,,
224597,note_on,,,,,10,0,1,,,,0,,,66,43
224597,set_tempo,,,,,341,1,0,,333333,,,,,,
224597,note_on,,,,,0,0,1,,,,0,,,46,31
224939,note_off,,,,,342,0,1,,,,0,,,66,0
224939,note_off,,,,,0,0,1,,,,0,,,70,0
224939,note_off,,,,,0,0,1,,,,0,,,39,0
224939,note_off,,,,,0,0,1,,,,0,,,46,0
224939,note_on,,,,,0,0,1,,,,0,,,58,42
224939,note_on,,,,,0,0,1,,,,0,,,51,30
225280,note_off,,,,,0,0,1,,,,0,,,51,0
225280,note_on,,,,,0,0,1,,,,0,,,70,51
225280,note_off,,,,,341,0,1,,,,0,,,58,0
225280,note_on,,,,,0,0,1,,,,0,,,39,39
225621,note_off,,,,,341,0,1,,,,0,,,70,0
225621,note_on,,,,,0,0,1,,,,0,,,66,50
225621,note_on,,,,,0,0,1,,,,0,,,46,38
225621,note_off,,,,,0,0,1,,,,0,,,39,0
225963,note_off,,,,,342,0,1,,,,0,,,66,0
225963,note_on,,,,,0,0,1,,,,0,,,58,48
225963,note_on,,,,,0,0,1,,,,0,,,51,36
225963,note_off,,,,,0,0,1,,,,0,,,46,0
226304,note_off,,,,,0,0,1,,,,0,,,51,0
226304,note_on,,,,,0,0,1,,,,0,,,39,45
226304,control_change,,,,,341,0,1,,,,0,64,127,,
226304,control_change,,,,,0,0,1,,,,0,64,127,,
226304,note_off,,,,,0,0,1,,,,0,,,58,0
226304,note_on,,,,,0,0,1,,,,0,,,70,57
226645,note_off,,,,,341,0,1,,,,0,,,70,0
226645,note_on,,,,,0,0,1,,,,0,,,66,57
226645,note_off,,,,,0,0,1,,,,0,,,39,0
226645,note_on,,,,,0,0,1,,,,0,,,46,45
226987,note_on,,,,,0,0,1,,,,0,,,51,41
226987,note_on,,,,,0,0,1,,,,0,,,58,53
226987,note_off,,,,,342,0,1,,,,0,,,66,0
226987,note_off,,,,,0,0,1,,,,0,,,46,0
227328,note_off,,,,,341,0,1,,,,0,,,58,0
227328,note_on,,,,,0,0,1,,,,0,,,39,53
227328,note_off,,,,,0,0,1,,,,0,,,51,0
227328,note_on,,,,,0,0,1,,,,0,,,70,65
227669,note_off,,,,,0,0,1,,,,0,,,39,0
227669,note_off,,,,,341,0,1,,,,0,,,70,0
227669,note_on,,,,,0,0,1,,,,0,,,66,63
227669,note_on,,,,,0,0,1,,,,0,,,46,51
228011,note_off,,,,,0,0,1,,,,0,,,46,0
228011,note_off,,,,,342,0,1,,,,0,,,66,0
228011,set_tempo,,,,,3414,1,0,,600000,,,,,,
228011,note_on,,,,,0,0,1,,,,0,,,51,49
228011,note_on,,,,,0,0,1,,,,0,,,58,61
228214,control_change,,,,,0,0,1,,,,0,64,0,,
228214,control_change,,,,,203,0,1,,,,0,64,0,,
228272,note_off,,,,,58,0,1,,,,0,,,58,0
228272,note_off,,,,,0,0,1,,,,0,,,51,0
228352,note_on,,,,,0,0,1,,,,0,,,61,64
228352,control_change,,,,,0,0,1,,,,0,64,0,,
228352,control_change,,,,,80,0,1,,,,0,64,0,,
228352,set_tempo,,,,,341,1,0,,333333,,,,,,
228352,control_change,,,,,0,0,1,,,,0,64,0,,
228352,note_on,,,,,0,0,1,,,,0,,,66,64
228352,note_on,,,,,0,0,1,,,,0,,,73,80
228352,note_on,,,,,0,0,1,,,,0,,,34,64
228352,note_on,,,,,0,0,1,,,,0,,,42,64
228352,note_on,,,,,0,0,1,,,,0,,,46,80
228864,control_change,,,,,0,0,1,,,,0,64,127,,
228864,control_change,,,,,512,0,1,,,,0,64,127,,
230400,control_change,,,,,0,0,1,,,,0,64,0,,
230400,control_change,,,,,1536,0,1,,,,0,64,0,,
231424,set_tempo,,,,,3072,1,0,,375000,,,,,,
231424,note_on,,,,,0,0,1,,,,0,,,71,60
231424,note_off,,,,,0,0,1,,,,0,,,66,0
231424,note_off,,,,,1024,0,1,,,,0,,,61,0
231424,note_off,,,,,0,0,1,,,,0,,,73,0
231936,note_on,,,,,512,0,1,,,,0,,,70,55
231976,note_off,,,,,40,0,1,,,,0,,,71,0
232368,note_off,,,,,392,0,1,,,,0,,,70,0
232448,note_off,,,,,0,0,1,,,,0,,,42,0
232448,note_on,,,,,0,0,1,,,,0,,,68,44
232448,control_change,,,,,80,0,1,,,,0,64,0,,
232448,control_change,,,,,0,0,1,,,,0,64,0,,
232448,control_change,,,,,0,0,1,,,,0,64,0,,
232448,control_change,,,,,0,0,1,,,,0,64,0,,
232448,note_off,,,,,0,0,1,,,,0,,,34,0
232448,set_tempo,,,,,1024,1,0,,375000,,,,,,
232448,note_off,,,,,0,0,1,,,,0,,,46,0
232448,note_on,,,,,0,0,1,,,,0,,,37,32
232752,control_change,,,,,304,0,1,,,,0,64,127,,
232789,note_on,,,,,37,0,1,,,,0,,,65,43
232789,note_on,,,,,0,0,1,,,,0,,,44,31
232789,set_tempo,,,,,341,1,0,,333333,,,,,,
233131,note_on,,,,,0,0,1,,,,0,,,61,42
233131,note_off,,,,,0,0,1,,,,0,,,44,0
233131,note_off,,,,,0,0,1,,,,0,,,37,0
233131,note_off,,,,,0,0,1,,,,0,,,68,0
233131,note_off,,,,,342,0,1,,,,0,,,65,0
233131,note_on,,,,,0,0,1,,,,0,,,49,30
233472,note_off,,,,,341,0,1,,,,0,,,61,0
233472,note_on,,,,,0,0,1,,,,0,,,68,51
233472,note_on,,,,,0,0,1,,,,0,,,37,39
233472,note_off,,,,,0,0,1,,,,0,,,49,0
233813,note_off,,,,,341,0,1,,,,0,,,68,0
233813,note_on,,,,,0,0,1,,,,0,,,65,50
233813,note_on,,,,,0,0,1,,,,0,,,44,38
233813,note_off,,,,,0,0,1,,,,0,,,37,0
234155,note_off,,,,,342,0,1,,,,0,,,65,0
234155,note_on,,,,,0,0,1,,,,0,,,61,48
234155,note_on,,,,,0,0,1,,,,0,,,49,36
234155,note_off,,,,,0,0,1,,,,0,,,44,0
234496,control_change,,,,,341,0,1,,,,0,64,127,,
234496,control_change,,,,,0,0,1,,,,0,64,127,,
234496,note_off,,,,,0,0,1,,,,0,,,61,0
234496,note_off,,,,,0,0,1,,,,0,,,49,0
234496,note_on,,,,,0,0,1,,,,0,,,68,57
234496,note_on,,,,,0,0,1,,,,0,,,37,45
234837,note_off,,,,,0,0,1,,,,0,,,37,0
234837,note_off,,,,,341,0,1,,,,0,,,68,0
234837,note_on,,,,,0,0,1,,,,0,,,65,57
234837,note_on,,,,,0,0,1,,,,0,,,44,45
235179,note_on,,,,,0,0,1,,,,0,,,49,41
235179,note_off,,,,,342,0,1,,,,0,,,65,0
235179,note_off,,,,,0,0,1,,,,0,,,44,0
235179,note_on,,,,,0,0,1,,,,0,,,61,53
235520,note_off,,,,,0,0,1,,,,0,,,49,0
235520,note_on,,,,,0,0,1,,,,0,,,37,53
235520,note_off,,,,,341,0,1,,,,0,,,61,0
235520,note_on,,,,,0,0,1,,,,0,,,68,65
235861,note_on,,,,,0,0,1,,,,0,,,44,51
235861,note_on,,,,,0,0,1,,,,0,,,65,63
235861,note_off,,,,,341,0,1,,,,0,,,68,0
235861,note_off,,,,,0,0,1,,,,0,,,37,0
236203,note_off,,,,,342,0,1,,,,0,,,65,0
236203,note_off,,,,,0,0,1,,,,0,,,44,0
236203,note_on,,,,,0,0,1,,,,0,,,49,49
236203,note_on,,,,,0,0,1,,,,0,,,61,61
236203,set_tempo,,,,,3414,1,0,,600000,,,,,,
236406,control_change,,,,,0,0,1,,,,0,64,0,,
236406,control_change,,,,,203,0,1,,,,0,64,0,,
236464,note_off,,,,,0,0,1,,,,0,,,49,0
236464,note_off,,,,,58,0,1,,,,0,,,61,0
236544,note_on,,,,,0,0,1,,,,0,,,71,78
236544,control_change,,,,,0,0,1,,,,0,64,0,,
236544,control_change,,,,,0,0,1,,,,0,64,0,,
236544,control_change,,,,,80,0,1,,,,0,64,0,,
236544,note_on,,,,,0,0,1,,,,0,,,32,64
236544,control_change,,,,,0,0,1,,,,0,64,0,,
236544,note_on,,,,,0,0,1,,,,0,,,39,64
236544,control_change,,,,,0,0,1,,,,0,64,0,,
236544,set_tempo,,,,,341,1,0,,333333,,,,,,
236544,control_change,,,,,0,0,1,,,,0,64,0,,
236544,note_on,,,,,0,0,1,,,,0,,,59,64
236544,note_on,,,,,0,0,1,,,,0,,,63,64
236544,note_on,,,,,0,0,1,,,,0,,,68,64
236544,note_on,,,,,0,0,1,,,,0,,,44,80
237056,control_change,,,,,0,0,1,,,,0,64,127,,
237056,control_change,,,,,512,0,1,,,,0,64,127,,
238592,control_change,,,,,1536,0,1,,,,0,64,0,,
238592,control_change,,,,,0,0,1,,,,0,64,0,,
239616,note_on,,,,,0,0,1,,,,0,,,70,60
239616,note_off,,,,,0,0,1,,,,0,,,71,0
239616,note_off,,,,,0,0,1,,,,0,,,68,0
239616,note_off,,,,,0,0,1,,,,0,,,63,0
239616,note_off,,,,,1024,0,1,,,,0,,,59,0
239616,set_tempo,,,,,3072,1,0,,375000,,,,,,
240128,note_off,,,,,512,0,1,,,,0,,,70,0
240128,note_on,,,,,0,0,1,,,,0,,,68,55
240640,control_change,,,,,0,0,1,,,,0,64,0,,
240640,control_change,,,,,0,0,1,,,,0,64,0,,
240640,note_off,,,,,0,0,1,,,,0,,,68,0
240640,note_off,,,,,0,0,1,,,,0,,,32,0
240640,note_off,,,,,0,0,1,,,,0,,,39,0
240640,note_off,,,,,0,0,1,,,,0,,,44,0
240640,note_on,,,,,0,0,1,,,,0,,,66,49
240640,note_on,,,,,0,0,1,,,,0,,,39,32
240640,control_change,,,,,0,0,1,,,,0,64,0,,
240640,set_tempo,,,,,1024,1,0,,375000,,,,,,
240640,control_change,,,,,0,0,1,,,,0,64,0,,
240640,control_change,,,,,512,0,1,,,,0,64,0,,
240640,control_change,,,,,0,0,1,,,,0,64,0,,
240944,control_change,,,,,304,0,1,,,,0,64,127,,
240981,set_tempo,,,,,341,1,0,,333333,,,,,,
240981,note_on,,,,,37,0,1,,,,0,,,63,43
240981,note_on,,,,,0,0,1,,,,0,,,46,31
241323,note_off,,,,,342,0,1,,,,0,,,63,0
241323,note_on,,,,,0,0,1,,,,0,,,58,42
241323,note_on,,,,,0,0,1,,,,0,,,51,30
241323,note_off,,,,,0,0,1,,,,0,,,39,0
241323,note_off,,,,,0,0,1,,,,0,,,46,0
241664,note_on,,,,,0,0,1,,,,0,,,39,39
241664,note_on,,,,,0,0,1,,,,0,,,66,51
241664,note_off,,,,,0,0,1,,,,0,,,51,0
241664,note_off,,,,,341,0,1,,,,0,,,58,0
241664,note_off,,,,,0,0,1,,,,0,,,66,0
242005,note_on,,,,,0,0,1,,,,0,,,46,38
242005,note_on,,,,,0,0,1,,,,0,,,63,50
242005,note_off,,,,,0,0,1,,,,0,,,39,0
242005,note_off,,,,,341,0,1,,,,0,,,66,0
242347,note_off,,,,,0,0,1,,,,0,,,46,0
242347,note_off,,,,,342,0,1,,,,0,,,63,0
242347,note_on,,,,,0,0,1,,,,0,,,58,48
242347,note_on,,,,,0,0,1,,,,0,,,51,36
242688,note_on,,,,,0,0,1,,,,0,,,39,45
242688,note_off,,,,,0,0,1,,,,0,,,51,0
242688,note_off,,,,,0,0,1,,,,0,,,58,0
242688,control_change,,,,,0,0,1,,,,0,64,127,,
242688,control_change,,,,,341,0,1,,,,0,64,127,,
242688,note_on,,,,,0,0,1,,,,0,,,66,57
243029,note_off,,,,,0,0,1,,,,0,,,39,0
243029,note_off,,,,,341,0,1,,,,0,,,66,0
243029,note_on,,,,,0,0,1,,,,0,,,63,57
243029,note_on,,,,,0,0,1,,,,0,,,46,45
243371,note_off,,,,,0,0,1,,,,0,,,46,0
243371,note_on,,,,,0,0,1,,,,0,,,51,41
243371,note_off,,,,,342,0,1,,,,0,,,63,0
243371,note_on,,,,,0,0,1,,,,0,,,58,53
243712,note_off,,,,,0,0,1,,,,0,,,51,0
243712,note_on,,,,,0,0,1,,,,0,,,39,53
243712,note_on,,,,,0,0,1,,,,0,,,66,65
243712,note_off,,,,,341,0,1,,,,0,,,58,0
244053,note_on,,,,,0,0,1,,,,0,,,63,63
244053,note_on,,,,,0,0,1,,,,0,,,46,51
244053,note_off,,,,,341,0,1,,,,0,,,66,0
244053,note_off,,,,,0,0,1,,,,0,,,39,0
244395,set_tempo,,,,,3414,1,0,,600000,,,,,,
244395,note_on,,,,,0,0,1,,,,0,,,51,49
244395,note_on,,,,,0,0,1,,,,0,,,58,61
244395,note_off,,,,,342,0,1,,,,0,,,63,0
244395,note_off,,,,,0,0,1,,,,0,,,46,0
244598,control_change,,,,,203,0,1,,,,0,64,0,,
244598,control_change,,,,,0,0,1,,,,0,64,0,,
244656,note_off,,,,,58,0,1,,,,0,,,58,0
244656,note_off,,,,,0,0,1,,,,0,,,51,0
244736,note_on,,,,,0,0,1,,,,0,,,42,56
244736,note_on,,,,,0,0,1,,,,0,,,54,72
244736,note_on,,,,,0,0,1,,,,0,,,51,56
244736,note_on,,,,,0,0,1,,,,0,,,70,76
244736,note_on,,,,,0,0,1,,,,0,,,63,64
244736,note_on,,,,,0,0,1,,,,0,,,58,64
244736,control_change,,,,,0,0,1,,,,0,64,0,,
244736,control_change,,,,,0,0,1,,,,0,64,0,,
244736,control_change,,,,,0,0,1,,,,0,64,0,,
244736,set_tempo,,,,,341,1,0,,333333,,,,,,
244736,control_change,,,,,0,0,1,,,,0,64,0,,
244736,control_change,,,,,0,0,1,,,,0,64,0,,
244736,control_change,,,,,0,0,1,,,,0,64,0,,
244736,control_change,,,,,80,0,1,,,,0,64,0,,
244736,control_change,,,,,0,0,1,,,,0,64,0,,
245248,control_change,,,,,0,0,1,,,,0,64,127,,
245248,control_change,,,,,512,0,1,,,,0,64,127,,
246784,control_change,,,,,0,0,1,,,,0,64,0,,
246784,control_change,,,,,0,0,1,,,,0,64,0,,
246784,control_change,,,,,1536,0,1,,,,0,64,0,,
246784,control_change,,,,,0,0,1,,,,0,64,0,,
247808,set_tempo,,,,,3072,1,0,,375000,,,,,,
247808,note_off,,,,,1024,0,1,,,,0,,,58,0
247808,note_off,,,,,0,0,1,,,,0,,,63,0
247808,note_off,,,,,0,0,1,,,,0,,,70,0
247808,note_off,,,,,0,0,1,,,,0,,,42,0
247808,note_off,,,,,0,0,1,,,,0,,,51,0
247808,note_off,,,,,0,0,1,,,,0,,,54,0
247808,note_on,,,,,0,0,1,,,,0,,,68,54
247808,note_on,,,,,0,0,1,,,,0,,,39,35
247808,note_on,,,,,0,0,1,,,,0,,,51,44
248320,note_on,,,,,0,0,1,,,,0,,,66,50
248320,note_off,,,,,512,0,1,,,,0,,,68,0
248832,note_on,,,,,0,0,1,,,,0,,,34,35
248832,control_change,,,,,0,0,1,,,,0,64,0,,
248832,note_on,,,,,0,0,1,,,,0,,,65,44
248832,note_off,,,,,0,0,1,,,,0,,,51,0
248832,note_off,,,,,0,0,1,,,,0,,,66,0
248832,note_off,,,,,0,0,1,,,,0,,,39,0
248832,control_change,,,,,512,0,1,,,,0,64,0,,
248992,control_change,,,,,160,0,1,,,,0,64,127,,
249173,set_tempo,,,,,1365,1,0,,333333,,,,,,
249173,note_off,,,,,181,0,1,,,,0,,,65,0
249173,note_on,,,,,0,0,1,,,,0,,,62,41
249344,note_on,,,,,0,0,1,,,,0,,,46,35
249344,note_off,,,,,171,0,1,,,,0,,,34,0
249515,note_off,,,,,171,0,1,,,,0,,,62,0
249515,note_on,,,,,0,0,1,,,,0,,,58,37
249736,control_change,,,,,221,0,1,,,,0,64,0,,
249843,control_change,,,,,107,0,1,,,,0,64,0,,
249856,note_on,,,,,0,0,1,,,,0,,,66,53
249856,note_on,,,,,0,0,1,,,,0,,,33,44
249856,note_off,,,,,0,0,1,,,,0,,,46,0
249856,set_tempo,,,,,683,1,0,,428571,,,,,,
249856,note_off,,,,,13,0,1,,,,0,,,58,0
250029,control_change,,,,,173,0,1,,,,0,64,127,,
250197,note_on,,,,,168,0,1,,,,0,,,63,43
250197,set_tempo,,,,,341,1,0,,333333,,,,,,
250368,note_off,,,,,171,0,1,,,,0,,,33,0
250368,note_on,,,,,0,0,1,,,,0,,,45,35
250539,note_off,,,,,171,0,1,,,,0,,,63,0
250539,note_off,,,,,0,0,1,,,,0,,,66,0
250539,note_on,,,,,0,0,1,,,,0,,,58,38
250880,control_change,,,,,0,0,1,,,,0,64,127,,
250880,control_change,,,,,341,0,1,,,,0,64,0,,
250880,note_off,,,,,0,0,1,,,,0,,,58,0
250880,note_off,,,,,0,0,1,,,,0,,,45,0
250880,note_on,,,,,0,0,1,,,,0,,,65,44
250880,note_on,,,,,0,0,1,,,,0,,,34,35
250960,control_change,,,,,80,0,1,,,,0,64,0,,
251146,control_change,,,,,186,0,1,,,,0,64,127,,
251221,note_on,,,,,0,0,1,,,,0,,,62,41
251221,note_off,,,,,75,0,1,,,,0,,,65,0
251392,note_off,,,,,171,0,1,,,,0,,,34,0
251392,note_on,,,,,0,0,1,,,,0,,,46,35
251563,note_off,,,,,171,0,1,,,,0,,,62,0
251563,note_on,,,,,0,0,1,,,,0,,,58,37
251784,control_change,,,,,221,0,1,,,,0,64,0,,
251891,control_change,,,,,107,0,1,,,,0,64,0,,
251904,set_tempo,,,,,1707,1,0,,375000,,,,,,
251904,note_on,,,,,0,0,1,,,,0,,,33,44
251904,note_off,,,,,0,0,1,,,,0,,,46,0
251904,note_off,,,,,13,0,1,,,,0,,,58,0
251904,note_on,,,,,0,0,1,,,,0,,,66,53
252103,control_change,,,,,199,0,1,,,,0,64,127,,
252245,set_tempo,,,,,341,1,0,,333333,,,,,,
252245,note_on,,,,,142,0,1,,,,0,,,63,43
252416,note_on,,,,,0,0,1,,,,0,,,45,35
252416,note_off,,,,,171,0,1,,,,0,,,33,0
252587,note_off,,,,,171,0,1,,,,0,,,63,0
252587,note_off,,,,,0,0,1,,,,0,,,66,0
252587,note_on,,,,,0,0,1,,,,0,,,58,38
252928,control_change,,,,,341,0,1,,,,0,64,0,,
252928,control_change,,,,,0,0,1,,,,0,64,0,,
252928,note_off,,,,,0,0,1,,,,0,,,58,0
252928,note_off,,,,,0,0,1,,,,0,,,45,0
252928,note_on,,,,,0,0,1,,,,0,,,65,46
252928,note_on,,,,,0,0,1,,,,0,,,34,35
252928,control_change,,,,,0,0,1,,,,0,64,127,,
253008,control_change,,,,,80,0,1,,,,0,64,0,,
253194,control_change,,,,,186,0,1,,,,0,64,127,,
253269,note_off,,,,,75,0,1,,,,0,,,65,0
253269,note_on,,,,,0,0,1,,,,0,,,62,43
253440,note_on,,,,,0,0,1,,,,0,,,46,34
253440,note_off,,,,,171,0,1,,,,0,,,34,0
253611,note_off,,,,,171,0,1,,,,0,,,62,0
253611,note_on,,,,,0,0,1,,,,0,,,58,38
253939,control_change,,,,,328,0,1,,,,0,64,0,,
253952,note_off,,,,,13,0,1,,,,0,,,58,0
253952,note_on,,,,,0,0,1,,,,0,,,65,44
253952,note_on,,,,,0,0,1,,,,0,,,44,35
253952,note_off,,,,,0,0,1,,,,0,,,46,0
254151,control_change,,,,,199,0,1,,,,0,64,127,,
254293,note_off,,,,,142,0,1,,,,0,,,65,0
254293,note_on,,,,,0,0,1,,,,0,,,62,41
254464,note_on,,,,,171,0,1,,,,0,,,46,25
254635,note_off,,,,,171,0,1,,,,0,,,62,0
254635,note_on,,,,,0,0,1,,,,0,,,58,36
254976,note_on,,,,,0,0,1,,,,0,,,42,33
254976,note_on,,,,,0,0,1,,,,0,,,66,42
254976,note_off,,,,,0,0,1,,,,0,,,46,0
254976,control_change,,,,,0,0,1,,,,0,64,0,,
254976,note_off,,,,,0,0,1,,,,0,,,58,0
254976,control_change,,,,,0,0,1,,,,0,64,127,,
254976,control_change,,,,,341,0,1,,,,0,64,0,,
254976,note_off,,,,,0,0,1,,,,0,,,44,0
255056,control_change,,,,,80,0,1,,,,0,64,0,,
255242,control_change,,,,,186,0,1,,,,0,64,127,,
255317,note_off,,,,,75,0,1,,,,0,,,66,0
255317,note_on,,,,,0,0,1,,,,0,,,63,39
255488,note_on,,,,,171,0,1,,,,0,,,46,23
255659,note_off,,,,,171,0,1,,,,0,,,63,0
255659,note_on,,,,,0,0,1,,,,0,,,58,34
255987,control_change,,,,,328,0,1,,,,0,64,0,,
256000,set_tempo,,,,,3755,1,0,,375000,,,,,,
256000,note_off,,,,,0,0,1,,,,0,,,46,0
256000,note_off,,,,,0,0,1,,,,0,,,42,0
256000,note_on,,,,,0,0,1,,,,0,,,41,30
256000,note_off,,,,,13,0,1,,,,0,,,58,0
256000,note_on,,,,,0,0,1,,,,0,,,68,40
256199,control_change,,,,,199,0,1,,,,0,64,127,,
256341,note_on,,,,,0,0,1,,,,0,,,65,37
256341,note_off,,,,,142,0,1,,,,0,,,68,0
256512,note_on,,,,,171,0,1,,,,0,,,46,20
256683,note_off,,,,,171,0,1,,,,0,,,65,0
256683,note_on,,,,,0,0,1,,,,0,,,58,33
257024,control_change,,,,,0,0,1,,,,0,64,0,,
257024,control_change,,,,,0,0,1,,,,0,64,0,,
257024,note_off,,,,,0,0,1,,,,0,,,58,0
257024,note_off,,,,,0,0,1,,,,0,,,41,0
257024,note_on,,,,,0,0,1,,,,0,,,70,38
257024,note_on,,,,,0,0,1,,,,0,,,39,24
257024,control_change,,,,,341,0,1,,,,0,64,0,,
257024,set_tempo,,,,,1024,1,0,,428571,,,,,,
257024,control_change,,,,,0,0,1,,,,0,64,0,,
257024,note_off,,,,,0,0,1,,,,0,,,46,0
257328,control_change,,,,,304,0,1,,,,0,64,127,,
257365,set_tempo,,,,,341,1,0,,333333,,,,,,
257365,note_on,,,,,0,0,1,,,,0,,,46,21
257365,note_off,,,,,0,0,1,,,,0,,,39,0
257365,note_on,,,,,0,0,1,,,,0,,,66,35
257365,note_off,,,,,37,0,1,,,,0,,,70,0
257707,note_on,,,,,0,0,1,,,,0,,,51,17
257707,note_off,,,,,0,0,1,,,,0,,,46,0
257707,note_on,,,,,0,0,1,,,,0,,,58,31
257707,note_off,,,,,342,0,1,,,,0,,,66,0
258048,note_off,,,,,341,0,1,,,,0,,,58,0
258048,note_on,,,,,0,0,1,,,,0,,,70,37
258048,note_on,,,,,0,0,1,,,,0,,,39,23
258048,note_off,,,,,0,0,1,,,,0,,,51,0
258389,note_off,,,,,341,0,1,,,,0,,,70,0
258389,note_on,,,,,0,0,1,,,,0,,,66,33
258389,note_on,,,,,0,0,1,,,,0,,,46,19
258389,note_off,,,,,0,0,1,,,,0,,,39,0
258731,note_off,,,,,0,0,1,,,,0,,,46,0
258731,note_on,,,,,0,0,1,,,,0,,,58,30
258731,note_off,,,,,342,0,1,,,,0,,,66,0
258731,note_on,,,,,0,0,1,,,,0,,,51,16
259072,note_off,,,,,0,0,1,,,,0,,,58,0
259072,control_change,,,,,0,0,1,,,,0,64,127,,
259072,control_change,,,,,341,0,1,,,,0,64,127,,
259072,note_on,,,,,0,0,1,,,,0,,,39,26
259072,note_on,,,,,0,0,1,,,,0,,,70,40
259072,note_off,,,,,0,0,1,,,,0,,,51,0
259413,note_on,,,,,0,0,1,,,,0,,,46,21
259413,note_off,,,,,0,0,1,,,,0,,,39,0
259413,note_off,,,,,341,0,1,,,,0,,,70,0
259413,note_on,,,,,0,0,1,,,,0,,,66,35
259755,note_off,,,,,342,0,1,,,,0,,,66,0
259755,note_on,,,,,0,0,1,,,,0,,,58,31
259755,note_off,,,,,0,0,1,,,,0,,,46,0
259755,note_on,,,,,0,0,1,,,,0,,,51,17
260096,note_off,,,,,341,0,1,,,,0,,,58,0
260096,note_on,,,,,0,0,1,,,,0,,,70,38
260096,note_on,,,,,0,0,1,,,,0,,,39,24
260096,note_off,,,,,0,0,1,,,,0,,,51,0
260437,note_off,,,,,341,0,1,,,,0,,,70,0
260437,note_off,,,,,0,0,1,,,,0,,,39,0
260437,note_on,,,,,0,0,1,,,,0,,,46,20
260437,note_on,,,,,0,0,1,,,,0,,,66,34
260779,note_on,,,,,0,0,1,,,,0,,,51,15
260779,note_off,,,,,0,0,1,,,,0,,,46,0
260779,note_off,,,,,342,0,1,,,,0,,,66,0
260779,note_on,,,,,0,0,1,,,,0,,,58,29
260909,control_change,,,,,130,0,1,,,,0,64,0,,
260982,control_change,,,,,73,0,1,,,,0,64,0,,
261120,set_tempo,,,,,3755,1,0,,375000,,,,,,
261120,control_change,,,,,0,0,1,,,,0,64,0,,
261120,control_change,,,,,138,0,1,,,,0,64,0,,
261120,note_on,,,,,0,0,1,,,,0,,,66,32
261120,note_on,,,,,0,0,1,,,,0,,,73,47
261120,note_on,,,,,0,0,1,,,,0,,,61,32
261120,note_off,,,,,0,0,1,,,,0,,,51,0
261120,note_off,,,,,0,0,1,,,,0,,,58,0
261120,note_on,,,,,0,0,1,,,,0,,,34,30
261120,note_on,,,,,0,0,1,,,,0,,,46,42
261492,note_off,,,,,0,0,1,,,,0,,,34,0
261492,note_off,,,,,0,0,1,,,,0,,,73,0
261492,note_off,,,,,372,0,1,,,,0,,,61,0
261492,note_off,,,,,0,0,1,,,,0,,,46,0
261492,note_off,,,,,0,0,1,,,,0,,,66,0
261632,note_on,,,,,140,0,1,,,,0,,,61,29
261632,note_on,,,,,0,0,1,,,,0,,,66,29
261632,note_on,,,,,0,0,1,,,,0,,,73,44
261632,note_on,,,,,0,0,1,,,,0,,,54,37
261632,note_on,,,,,0,0,1,,,,0,,,46,25
261632,set_tempo,,,,,512,1,0,,352941,,,,,,
261632,note_on,,,,,0,0,1,,,,0,,,49,25
262004,note_off,,,,,0,0,1,,,,0,,,66,0
262004,note_off,,,,,0,0,1,,,,0,,,54,0
262004,note_off,,,,,0,0,1,,,,0,,,49,0
262004,note_off,,,,,0,0,1,,,,0,,,46,0
262004,note_off,,,,,0,0,1,,,,0,,,73,0
262004,note_off,,,,,372,0,1,,,,0,,,61,0
262144,note_on,,,,,0,0,1,,,,0,,,49,25
262144,note_on,,,,,0,0,1,,,,0,,,46,25
262144,note_on,,,,,0,0,1,,,,0,,,73,42
262144,note_on,,,,,0,0,1,,,,0,,,66,27
262144,note_on,,,,,140,0,1,,,,0,,,61,27
262144,note_on,,,,,0,0,1,,,,0,,,54,37
262516,note_off,,,,,0,0,1,,,,0,,,73,0
262516,note_off,,,,,372,0,1,,,,0,,,61,0
262516,note_off,,,,,0,0,1,,,,0,,,54,0
262516,note_off,,,,,0,0,1,,,,0,,,49,0
262516,note_off,,,,,0,0,1,,,,0,,,66,0
262516,note_off,,,,,0,0,1,,,,0,,,46,0
262656,note_on,,,,,0,0,1,,,,0,,,54,37
262656,note_on,,,,,140,0,1,,,,0,,,61,24
262656,note_on,,,,,0,0,1,,,,0,,,66,24
262656,note_on,,,,,0,0,1,,,,0,,,73,39
262656,note_on,,,,,0,0,1,,,,0,,,46,25
262656,note_on,,,,,0,0,1,,,,0,,,49,25
262656,set_tempo,,,,,1024,1,0,,461538,,,,,,
263028,note_off,,,,,0,0,1,,,,0,,,54,0
263028,note_off,,,,,0,0,1,,,,0,,,49,0
263028,note_off,,,,,0,0,1,,,,0,,,66,0
263028,note_off,,,,,0,0,1,,,,0,,,73,0
263028,note_off,,,,,372,0,1,,,,0,,,61,0
263028,note_off,,,,,0,0,1,,,,0,,,46,0
263168,note_on,,,,,0,0,1,,,,0,,,61,27
263168,control_change,,,,,140,0,1,,,,0,64,0,,
263168,set_tempo,,,,,512,1,0,,428571,,,,,,
263168,control_change,,,,,0,0,1,,,,0,64,0,,
263168,note_on,,,,,0,0,1,,,,0,,,66,27
263168,note_on,,,,,0,0,1,,,,0,,,46,13
263168,note_on,,,,,0,0,1,,,,0,,,73,42
263168,note_on,,,,,0,0,1,,,,0,,,54,25
263168,note_on,,,,,0,0,1,,,,0,,,49,13
264192,note_off,,,,,0,0,1,,,,0,,,54,0
264192,set_tempo,,,,,1024,1,0,,375000,,,,,,
264192,note_off,,,,,1024,0,1,,,,0,,,61,0
264192,note_off,,,,,0,0,1,,,,0,,,66,0
264192,note_off,,,,,0,0,1,,,,0,,,73,0
264192,note_off,,,,,0,0,1,,,,0,,,46,0
264192,note_off,,,,,0,0,1,,,,0,,,49,0
264192,note_on,,,,,0,0,1,,,,0,,,71,40
264704,note_on,,,,,512,0,1,,,,0,,,70,33
264744,note_off,,,,,40,0,1,,,,0,,,71,0
265136,note_off,,,,,392,0,1,,,,0,,,70,0
265216,control_change,,,,,0,0,1,,,,0,64,0,,
265216,control_change,,,,,80,0,1,,,,0,64,0,,
265216,note_on,,,,,0,0,1,,,,0,,,37,24
265216,control_change,,,,,0,0,1,,,,0,64,0,,
265216,note_on,,,,,0,0,1,,,,0,,,68,38
265216,control_change,,,,,0,0,1,,,,0,64,0,,
265216,control_change,,,,,0,0,1,,,,0,64,0,,
265216,set_tempo,,,,,1024,1,0,,428571,,,,,,
265216,control_change,,,,,0,0,1,,,,0,64,0,,
265520,control_change,,,,,304,0,1,,,,0,64,127,,
265557,set_tempo,,,,,341,1,0,,333333,,,,,,
265557,note_off,,,,,37,0,1,,,,0,,,68,0
265557,note_on,,,,,0,0,1,,,,0,,,65,35
265557,note_on,,,,,0,0,1,,,,0,,,44,21
265557,note_off,,,,,0,0,1,,,,0,,,37,0
265899,note_off,,,,,342,0,1,,,,0,,,65,0
265899,note_on,,,,,0,0,1,,,,0,,,61,31
265899,note_on,,,,,0,0,1,,,,0,,,49,17
265899,note_off,,,,,0,0,1,,,,0,,,44,0
266240,note_off,,,,,341,0,1,,,,0,,,61,0
266240,note_on,,,,,0,0,1,,,,0,,,37,23
266240,note_off,,,,,0,0,1,,,,0,,,49,0
266240,note_on,,,,,0,0,1,,,,0,,,68,37
266581,note_off,,,,,341,0,1,,,,0,,,68,0
266581,note_on,,,,,0,0,1,,,,0,,,65,33
266581,note_on,,,,,0,0,1,,,,0,,,44,19
266581,note_off,,,,,0,0,1,,,,0,,,37,0
266923,note_off,,,,,0,0,1,,,,0,,,44,0
266923,note_off,,,,,342,0,1,,,,0,,,65,0
266923,note_on,,,,,0,0,1,,,,0,,,61,30
266923,note_on,,,,,0,0,1,,,,0,,,49,16
267264,note_on,,,,,0,0,1,,,,0,,,68,40
267264,control_change,,,,,341,0,1,,,,0,64,127,,
267264,control_change,,,,,0,0,1,,,,0,64,127,,
267264,note_off,,,,,0,0,1,,,,0,,,61,0
267264,note_off,,,,,0,0,1,,,,0,,,49,0
267264,note_on,,,,,0,0,1,,,,0,,,37,26
267605,note_off,,,,,341,0,1,,,,0,,,68,0
267605,note_on,,,,,0,0,1,,,,0,,,65,35
267605,note_on,,,,,0,0,1,,,,0,,,44,21
267605,note_off,,,,,0,0,1,,,,0,,,37,0
267947,note_off,,,,,0,0,1,,,,0,,,44,0
267947,note_off,,,,,342,0,1,,,,0,,,65,0
267947,note_on,,,,,0,0,1,,,,0,,,61,31
267947,note_on,,,,,0,0,1,,,,0,,,49,17
268288,note_on,,,,,0,0,1,,,,0,,,37,24
268288,note_off,,,,,341,0,1,,,,0,,,61,0
268288,note_on,,,,,0,0,1,,,,0,,,68,38
268288,note_off,,,,,0,0,1,,,,0,,,49,0
268629,note_off,,,,,341,0,1,,,,0,,,68,0
268629,note_on,,,,,0,0,1,,,,0,,,65,34
268629,note_on,,,,,0,0,1,,,,0,,,44,20
268629,note_off,,,,,0,0,1,,,,0,,,37,0
268971,note_off,,,,,342,0,1,,,,0,,,65,0
268971,note_on,,,,,0,0,1,,,,0,,,61,29
268971,note_on,,,,,0,0,1,,,,0,,,49,15
268971,note_off,,,,,0,0,1,,,,0,,,44,0
269131,control_change,,,,,160,0,1,,,,0,64,0,,
269174,control_change,,,,,43,0,1,,,,0,64,0,,
269312,set_tempo,,,,,3755,1,0,,375000,,,,,,
269312,note_on,,,,,0,0,1,,,,0,,,32,30
269312,note_on,,,,,0,0,1,,,,0,,,71,51
269312,control_change,,,,,0,0,1,,,,0,64,0,,
269312,control_change,,,,,0,0,1,,,,0,64,0,,
269312,control_change,,,,,0,0,1,,,,0,64,0,,
269312,note_off,,,,,0,0,1,,,,0,,,61,0
269312,note_off,,,,,0,0,1,,,,0,,,49,0
269312,note_on,,,,,0,0,1,,,,0,,,59,32
269312,control_change,,,,,138,0,1,,,,0,64,0,,
269312,note_on,,,,,0,0,1,,,,0,,,63,32
269312,note_on,,,,,0,0,1,,,,0,,,44,42
269684,note_off,,,,,0,0,1,,,,0,,,44,0
269684,note_off,,,,,0,0,1,,,,0,,,32,0
269684,note_off,,,,,0,0,1,,,,0,,,71,0
269684,note_off,,,,,0,0,1,,,,0,,,63,0
269684,note_off,,,,,372,0,1,,,,0,,,59,0
269824,note_on,,,,,0,0,1,,,,0,,,71,48
269824,note_on,,,,,140,0,1,,,,0,,,59,29
269824,note_on,,,,,0,0,1,,,,0,,,51,25
269824,note_on,,,,,0,0,1,,,,0,,,56,37
269824,note_on,,,,,0,0,1,,,,0,,,63,29
269824,note_on,,,,,0,0,1,,,,0,,,44,25
269824,set_tempo,,,,,512,1,0,,352941,,,,,,
270196,note_off,,,,,0,0,1,,,,0,,,63,0
270196,note_off,,,,,372,0,1,,,,0,,,59,0
270196,note_off,,,,,0,0,1,,,,0,,,71,0
270196,note_off,,,,,0,0,1,,,,0,,,44,0
270196,note_off,,,,,0,0,1,,,,0,,,51,0
270196,note_off,,,,,0,0,1,,,,0,,,56,0
270336,note_on,,,,,140,0,1,,,,0,,,59,27
270336,note_on,,,,,0,0,1,,,,0,,,63,27
270336,note_on,,,,,0,0,1,,,,0,,,71,46
270336,note_on,,,,,0,0,1,,,,0,,,44,25
270336,note_on,,,,,0,0,1,,,,0,,,51,25
270336,note_on,,,,,0,0,1,,,,0,,,56,37
270708,note_off,,,,,0,0,1,,,,0,,,51,0
270708,note_off,,,,,372,0,1,,,,0,,,59,0
270708,note_off,,,,,0,0,1,,,,0,,,63,0
270708,note_off,,,,,0,0,1,,,,0,,,71,0
270708,note_off,,,,,0,0,1,,,,0,,,44,0
270708,note_off,,,,,0,0,1,,,,0,,,56,0
270848,note_on,,,,,0,0,1,,,,0,,,56,37
270848,set_tempo,,,,,1024,1,0,,461538,,,,,,
270848,note_on,,,,,140,0,1,,,,0,,,59,24
270848,note_on,,,,,0,0,1,,,,0,,,63,24
270848,note_on,,,,,0,0,1,,,,0,,,71,43
270848,note_on,,,,,0,0,1,,,,0,,,44,25
270848,note_on,,,,,0,0,1,,,,0,,,51,25
271220,note_off,,,,,0,0,1,,,,0,,,51,0
271220,note_off,,,,,0,0,1,,,,0,,,71,0
271220,note_off,,,,,0,0,1,,,,0,,,56,0
271220,note_off,,,,,0,0,1,,,,0,,,63,0
271220,note_off,,,,,372,0,1,,,,0,,,59,0
271220,note_off,,,,,0,0,1,,,,0,,,44,0
271360,note_on,,,,,0,0,1,,,,0,,,44,13
271360,note_on,,,,,0,0,1,,,,0,,,56,25
271360,note_on,,,,,0,0,1,,,,0,,,51,13
271360,note_on,,,,,0,0,1,,,,0,,,71,42
271360,note_on,,,,,0,0,1,,,,0,,,63,27
271360,note_on,,,,,0,0,1,,,,0,,,59,27
271360,control_change,,,,,0,0,1,,,,0,64,0,,
271360,control_change,,,,,0,0,1,,,,0,64,0,,
271360,control_change,,,,,0,0,1,,,,0,64,0,,
271360,control_change,,,,,140,0,1,,,,0,64,0,,
271360,set_tempo,,,,,512,1,0,,400000,,,,,,
272384,set_tempo,,,,,1024,1,0,,375000,,,,,,
272384,note_off,,,,,0,0,1,,,,0,,,71,0
272384,note_off,,,,,1024,0,1,,,,0,,,59,0
272384,note_off,,,,,0,0,1,,,,0,,,63,0
272384,note_off,,,,,0,0,1,,,,0,,,44,0
272384,note_off,,,,,0,0,1,,,,0,,,51,0
272384,note_off,,,,,0,0,1,,,,0,,,56,0
272384,note_on,,,,,0,0,1,,,,0,,,70,40
272896,note_on,,,,,512,0,1,,,,0,,,68,33
272936,note_off,,,,,40,0,1,,,,0,,,70,0
273328,note_off,,,,,392,0,1,,,,0,,,68,0
273408,note_on,,,,,0,0,1,,,,0,,,66,38
273408,set_tempo,,,,,1024,1,0,,428571,,,,,,
273408,note_on,,,,,0,0,1,,,,0,,,39,24
273408,control_change,,,,,0,0,1,,,,0,64,0,,
273408,control_change,,,,,0,0,1,,,,0,64,0,,
273408,control_change,,,,,0,0,1,,,,0,64,0,,
273408,control_change,,,,,0,0,1,,,,0,64,0,,
273408,control_change,,,,,0,0,1,,,,0,64,0,,
273408,control_change,,,,,0,0,1,,,,0,64,0,,
273408,control_change,,,,,80,0,1,,,,0,64,0,,
273408,control_change,,,,,0,0,1,,,,0,64,0,,
273712,control_change,,,,,304,0,1,,,,0,64,127,,
273749,set_tempo,,,,,341,1,0,,333333,,,,,,
273749,note_off,,,,,0,0,1,,,,0,,,39,0
273749,note_on,,,,,0,0,1,,,,0,,,63,35
273749,note_off,,,,,37,0,1,,,,0,,,66,0
273749,note_on,,,,,0,0,1,,,,0,,,46,21
274091,note_off,,,,,342,0,1,,,,0,,,63,0
274091,note_on,,,,,0,0,1,,,,0,,,58,31
274091,note_on,,,,,0,0,1,,,,0,,,51,17
274091,note_off,,,,,0,0,1,,,,0,,,46,0
274432,note_off,,,,,341,0,1,,,,0,,,58,0
274432,note_on,,,,,0,0,1,,,,0,,,66,37
274432,note_on,,,,,0,0,1,,,,0,,,39,23
274432,note_off,,,,,0,0,1,,,,0,,,51,0
274773,note_on,,,,,0,0,1,,,,0,,,46,19
274773,note_off,,,,,0,0,1,,,,0,,,39,0
274773,note_on,,,,,0,0,1,,,,0,,,63,33
274773,note_off,,,,,341,0,1,,,,0,,,66,0
275115,note_off,,,,,342,0,1,,,,0,,,63,0
275115,note_on,,,,,0,0,1,,,,0,,,58,30
275115,note_on,,,,,0,0,1,,,,0,,,51,16
275115,note_off,,,,,0,0,1,,,,0,,,46,0
275456,note_on,,,,,0,0,1,,,,0,,,66,40
275456,control_change,,,,,341,0,1,,,,0,64,127,,
275456,control_change,,,,,0,0,1,,,,0,64,127,,
275456,note_off,,,,,0,0,1,,,,0,,,58,0
275456,note_off,,,,,0,0,1,,,,0,,,51,0
275456,note_on,,,,,0,0,1,,,,0,,,39,26
275797,note_off,,,,,341,0,1,,,,0,,,66,0
275797,note_on,,,,,0,0,1,,,,0,,,63,35
275797,note_on,,,,,0,0,1,,,,0,,,46,21
275797,note_off,,,,,0,0,1,,,,0,,,39,0
276139,note_off,,,,,342,0,1,,,,0,,,63,0
276139,note_on,,,,,0,0,1,,,,0,,,58,31
276139,note_on,,,,,0,0,1,,,,0,,,51,17
276139,note_off,,,,,0,0,1,,,,0,,,46,0
276480,note_off,,,,,0,0,1,,,,0,,,51,0
276480,note_off,,,,,341,0,1,,,,0,,,58,0
276480,note_on,,,,,0,0,1,,,,0,,,66,38
276480,note_on,,,,,0,0,1,,,,0,,,39,24
276821,note_off,,,,,0,0,1,,,,0,,,39,0
276821,note_on,,,,,0,0,1,,,,0,,,63,34
276821,note_on,,,,,0,0,1,,,,0,,,46,20
276821,note_off,,,,,341,0,1,,,,0,,,66,0
277163,note_off,,,,,342,0,1,,,,0,,,63,0
277163,note_on,,,,,0,0,1,,,,0,,,58,29
277163,note_on,,,,,0,0,1,,,,0,,,51,15
277163,note_off,,,,,0,0,1,,,,0,,,46,0
277323,control_change,,,,,160,0,1,,,,0,64,0,,
277366,control_change,,,,,43,0,1,,,,0,64,0,,
277504,note_on,,,,,0,0,1,,,,0,,,70,51
277504,note_on,,,,,0,0,1,,,,0,,,63,32
277504,set_tempo,,,,,3755,1,0,,461538,,,,,,
277504,note_on,,,,,0,0,1,,,,0,,,42,30
277504,note_on,,,,,0,0,1,,,,0,,,51,42
277504,note_on,,,,,0,0,1,,,,0,,,54,30
277504,note_off,,,,,0,0,1,,,,0,,,58,0
277504,control_change,,,,,0,0,1,,,,0,64,0,,
277504,note_on,,,,,0,0,1,,,,0,,,58,32
277504,control_change,,,,,0,0,1,,,,0,64,0,,
277504,control_change,,,,,0,0,1,,,,0,64,0,,
277504,control_change,,,,,0,0,1,,,,0,64,0,,
277504,control_change,,,,,138,0,1,,,,0,64,0,,
277504,control_change,,,,,0,0,1,,,,0,64,0,,
277504,note_off,,,,,0,0,1,,,,0,,,51,0
278016,note_on,,,,,0,0,1,,,,0,,,54,37
278016,note_off,,,,,0,0,1,,,,0,,,63,0
278016,note_off,,,,,0,0,1,,,,0,,,70,0
278016,note_off,,,,,0,0,1,,,,0,,,42,0
278016,note_off,,,,,0,0,1,,,,0,,,51,0
278016,note_off,,,,,0,0,1,,,,0,,,54,0
278016,note_on,,,,,0,0,1,,,,0,,,58,29
278016,note_on,,,,,0,0,1,,,,0,,,63,29
278016,note_on,,,,,0,0,1,,,,0,,,70,48
278016,note_on,,,,,0,0,1,,,,0,,,42,25
278016,note_on,,,,,0,0,1,,,,0,,,51,25
278016,note_off,,,,,512,0,1,,,,0,,,58,0
278016,set_tempo,,,,,512,1,0,,352941,,,,,,
278528,note_off,,,,,0,0,1,,,,0,,,54,0
278528,note_on,,,,,0,0,1,,,,0,,,42,25
278528,note_off,,,,,512,0,1,,,,0,,,58,0
278528,note_off,,,,,0,0,1,,,,0,,,63,0
278528,note_off,,,,,0,0,1,,,,0,,,70,0
278528,note_off,,,,,0,0,1,,,,0,,,42,0
278528,note_off,,,,,0,0,1,,,,0,,,51,0
278528,note_on,,,,,0,0,1,,,,0,,,58,27
278528,note_on,,,,,0,0,1,,,,0,,,63,27
278528,note_on,,,,,0,0,1,,,,0,,,70,46
278528,note_on,,,,,0,0,1,,,,0,,,51,25
278528,note_on,,,,,0,0,1,,,,0,,,54,37
279040,note_off,,,,,0,0,1,,,,0,,,51,0
279040,note_off,,,,,0,0,1,,,,0,,,42,0
279040,note_off,,,,,0,0,1,,,,0,,,70,0
279040,note_on,,,,,0,0,1,,,,0,,,63,28
279040,note_off,,,,,512,0,1,,,,0,,,58,0
279040,note_off,,,,,0,0,1,,,,0,,,54,0
279040,note_off,,,,,0,0,1,,,,0,,,63,0
279040,note_on,,,,,0,0,1,,,,0,,,58,28
279040,note_on,,,,,0,0,1,,,,0,,,51,25
279040,note_on,,,,,0,0,1,,,,0,,,42,25
279040,note_on,,,,,0,0,1,,,,0,,,54,37
279040,set_tempo,,,,,1024,1,0,,461538,,,,,,
279040,note_on,,,,,0,0,1,,,,0,,,70,47
279552,note_off,,,,,0,0,1,,,,0,,,54,0
279552,note_on,,,,,0,0,1,,,,0,,,63,32
279552,note_on,,,,,0,0,1,,,,0,,,70,47
279552,note_on,,,,,0,0,1,,,,0,,,42,13
279552,note_on,,,,,0,0,1,,,,0,,,51,13
279552,note_on,,,,,0,0,1,,,,0,,,54,25
279552,note_off,,,,,0,0,1,,,,0,,,51,0
279552,note_off,,,,,0,0,1,,,,0,,,70,0
279552,note_off,,,,,0,0,1,,,,0,,,63,0
279552,note_off,,,,,0,0,1,,,,0,,,58,0
279552,control_change,,,,,0,0,1,,,,0,64,0,,
279552,control_change,,,,,0,0,1,,,,0,64,0,,
279552,control_change,,,,,0,0,1,,,,0,64,0,,
279552,control_change,,,,,0,0,1,,,,0,64,0,,
279552,control_change,,,,,0,0,1,,,,0,64,0,,
279552,note_off,,,,,0,0,1,,,,0,,,42,0
279552,note_on,,,,,0,0,1,,,,0,,,58,32
279552,control_change,,,,,512,0,1,,,,0,64,0,,
279552,set_tempo,,,,,512,1,0,,428571,,,,,,
280576,note_on,,,,,0,0,1,,,,0,,,68,40
280576,note_on,,,,,0,0,1,,,,0,,,51,24
280576,note_on,,,,,0,0,1,,,,0,,,39,17
280576,note_on,,,,,0,0,1,,,,0,,,63,31
280576,note_on,,,,,0,0,1,,,,0,,,58,31
280576,note_off,,,,,0,0,1,,,,0,,,54,0
280576,note_off,,,,,0,0,1,,,,0,,,42,0
280576,note_off,,,,,0,0,1,,,,0,,,51,0
280576,note_off,,,,,0,0,1,,,,0,,,63,0
280576,note_off,,,,,1024,0,1,,,,0,,,58,0
280576,set_tempo,,,,,1024,1,0,,400000,,,,,,
280576,note_off,,,,,0,0,1,,,,0,,,70,0
281088,note_on,,,,,512,0,1,,,,0,,,66,33
281128,note_off,,,,,40,0,1,,,,0,,,68,0
281520,note_off,,,,,0,0,1,,,,0,,,63,0
281520,note_off,,,,,392,0,1,,,,0,,,58,0
281520,note_off,,,,,0,0,1,,,,0,,,66,0
281600,control_change,,,,,0,0,1,,,,0,64,0,,
281600,control_change,,,,,0,0,1,,,,0,64,127,,
281600,control_change,,,,,0,0,1,,,,0,64,0,,
281600,note_off,,,,,0,0,1,,,,0,,,39,0
281600,note_on,,,,,0,0,1,,,,0,,,65,40
281600,note_off,,,,,0,0,1,,,,0,,,51,0
281600,set_tempo,,,,,1024,1,0,,428571,,,,,,
281600,control_change,,,,,80,0,1,,,,0,64,0,,
281600,note_on,,,,,0,0,1,,,,0,,,34,22
281680,control_change,,,,,80,0,1,,,,0,64,0,,
281866,control_change,,,,,186,0,1,,,,0,64,127,,
281941,note_on,,,,,75,0,1,,,,0,,,62,28
281941,set_tempo,,,,,341,1,0,,352941,,,,,,
282112,note_off,,,,,171,0,1,,,,0,,,34,0
282283,note_off,,,,,171,0,1,,,,0,,,62,0
282283,note_on,,,,,0,0,1,,,,0,,,58,25
282611,control_change,,,,,328,0,1,,,,0,64,0,,
282624,note_off,,,,,13,0,1,,,,0,,,58,0
282624,note_on,,,,,0,0,1,,,,0,,,70,43
282624,note_on,,,,,0,0,1,,,,0,,,46,45
282674,note_off,,,,,50,0,1,,,,0,,,65,0
282823,control_change,,,,,149,0,1,,,,0,64,127,,
282965,note_on,,,,,142,0,1,,,,0,,,62,31
283307,note_off,,,,,342,0,1,,,,0,,,62,0
283307,note_on,,,,,0,0,1,,,,0,,,58,28
283648,control_change,,,,,341,0,1,,,,0,64,0,,
283648,control_change,,,,,0,0,1,,,,0,64,127,,
283648,control_change,,,,,0,0,1,,,,0,64,0,,
283648,control_change,,,,,0,0,1,,,,0,64,0,,
283648,note_off,,,,,0,0,1,,,,0,,,58,0
283648,note_on,,,,,0,0,1,,,,0,,,69,46
283698,note_off,,,,,50,0,1,,,,0,,,70,0
283728,control_change,,,,,30,0,1,,,,0,64,0,,
283914,control_change,,,,,186,0,1,,,,0,64,127,,
283989,note_on,,,,,75,0,1,,,,0,,,62,34
284331,note_off,,,,,342,0,1,,,,0,,,62,0
284331,note_on,,,,,0,0,1,,,,0,,,58,30
284659,control_change,,,,,328,0,1,,,,0,64,0,,
284672,set_tempo,,,,,2731,1,0,,352941,,,,,,
284672,note_off,,,,,13,0,1,,,,0,,,58,0
284672,note_on,,,,,0,0,1,,,,0,,,68,48
284722,note_off,,,,,50,0,1,,,,0,,,69,0
284871,control_change,,,,,149,0,1,,,,0,64,127,,
285013,note_on,,,,,142,0,1,,,,0,,,62,36
285355,note_off,,,,,342,0,1,,,,0,,,62,0
285355,note_on,,,,,0,0,1,,,,0,,,58,33
285696,note_on,,,,,0,0,1,,,,0,,,67,51
285696,note_off,,,,,0,0,1,,,,0,,,58,0
285696,control_change,,,,,0,0,1,,,,0,64,0,,
285696,set_tempo,,,,,1024,1,0,,375000,,,,,,
285696,control_change,,,,,0,0,1,,,,0,64,127,,
285696,control_change,,,,,341,0,1,,,,0,64,0,,
285696,control_change,,,,,0,0,1,,,,0,64,0,,
285746,note_off,,,,,50,0,1,,,,0,,,68,0
285776,control_change,,,,,30,0,1,,,,0,64,0,,
285962,control_change,,,,,186,0,1,,,,0,64,127,,
286037,note_on,,,,,75,0,1,,,,0,,,63,39
286379,note_off,,,,,342,0,1,,,,0,,,63,0
286379,note_on,,,,,0,0,1,,,,0,,,58,36
286707,control_change,,,,,328,0,1,,,,0,64,0,,
286720,note_on,,,,,0,0,1,,,,0,,,72,53
286720,note_on,,,,,0,0,1,,,,0,,,56,32
286720,set_tempo,,,,,1024,1,0,,461538,,,,,,
286720,note_off,,,,,13,0,1,,,,0,,,58,0
286770,note_off,,,,,50,0,1,,,,0,,,67,0
286919,control_change,,,,,149,0,1,,,,0,64,127,,
287061,note_on,,,,,142,0,1,,,,0,,,63,39
287061,set_tempo,,,,,341,1,0,,375000,,,,,,
287403,note_on,,,,,0,0,1,,,,0,,,58,33
287403,note_off,,,,,342,0,1,,,,0,,,63,0
287744,control_change,,,,,341,0,1,,,,0,64,0,,
287744,control_change,,,,,0,0,1,,,,0,64,0,,
287744,control_change,,,,,0,0,1,,,,0,64,0,,
287744,note_off,,,,,0,0,1,,,,0,,,58,0
287744,note_on,,,,,0,0,1,,,,0,,,70,49
287744,note_on,,,,,0,0,1,,,,0,,,55,28
287744,control_change,,,,,0,0,1,,,,0,64,127,,
287794,note_off,,,,,0,0,1,,,,0,,,56,0
287794,note_off,,,,,50,0,1,,,,0,,,72,0
287824,control_change,,,,,30,0,1,,,,0,64,0,,
288010,control_change,,,,,186,0,1,,,,0,64,127,,
288085,note_on,,,,,75,0,1,,,,0,,,63,34
288085,set_tempo,,,,,1024,1,0,,352941,,,,,,
288427,note_off,,,,,342,0,1,,,,0,,,63,0
288427,note_on,,,,,0,0,1,,,,0,,,58,29
288755,control_change,,,,,328,0,1,,,,0,64,0,,
288768,note_off,,,,,13,0,1,,,,0,,,58,0
288768,note_on,,,,,0,0,1,,,,0,,,67,44
288768,note_on,,,,,0,0,1,,,,0,,,51,25
288768,set_tempo,,,,,683,1,0,,333333,,,,,,
288818,note_off,,,,,50,0,1,,,,0,,,70,0
288818,note_off,,,,,0,0,1,,,,0,,,55,0
288967,control_change,,,,,149,0,1,,,,0,64,127,,
289109,note_on,,,,,142,0,1,,,,0,,,63,27
289451,note_off,,,,,342,0,1,,,,0,,,63,0
289451,note_on,,,,,0,0,1,,,,0,,,58,21
289792,set_tempo,,,,,1024,1,0,,428571,,,,,,
289792,note_on,,,,,0,0,1,,,,0,,,34,22
289792,note_on,,,,,0,0,1,,,,0,,,65,40
289792,control_change,,,,,0,0,1,,,,0,64,127,,
289792,note_off,,,,,0,0,1,,,,0,,,58,0
289792,control_change,,,,,0,0,1,,,,0,64,0,,
289792,control_change,,,,,0,0,1,,,,0,64,0,,
289792,control_change,,,,,0,0,1,,,,0,64,0,,
289792,control_change,,,,,0,0,1,,,,0,64,0,,
289792,control_change,,,,,341,0,1,,,,0,64,0,,
289792,note_off,,,,,0,0,1,,,,0,,,46,0
289842,note_off,,,,,50,0,1,,,,0,,,67,0
289842,note_off,,,,,0,0,1,,,,0,,,51,0
289872,control_change,,,,,30,0,1,,,,0,64,0,,
290058,control_change,,,,,186,0,1,,,,0,64,127,,
290133,set_tempo,,,,,341,1,0,,333333,,,,,,
290133,note_on,,,,,75,0,1,,,,0,,,62,28
290304,note_off,,,,,171,0,1,,,,0,,,34,0
290475,note_on,,,,,0,0,1,,,,0,,,58,25
290475,note_off,,,,,171,0,1,,,,0,,,62,0
290803,control_change,,,,,328,0,1,,,,0,64,0,,
290816,note_off,,,,,13,0,1,,,,0,,,58,0
290816,note_on,,,,,0,0,1,,,,0,,,46,41
290816,note_on,,,,,0,0,1,,,,0,,,70,43
290866,note_off,,,,,50,0,1,,,,0,,,65,0
291015,control_change,,,,,149,0,1,,,,0,64,127,,
291157,note_on,,,,,142,0,1,,,,0,,,62,31
291499,note_off,,,,,342,0,1,,,,0,,,62,0
291499,note_on,,,,,0,0,1,,,,0,,,58,28
291840,control_change,,,,,0,0,1,,,,0,64,0,,
291840,control_change,,,,,341,0,1,,,,0,64,0,,
291840,control_change,,,,,0,0,1,,,,0,64,0,,
291840,control_change,,,,,0,0,1,,,,0,64,127,,
291840,control_change,,,,,0,0,1,,,,0,64,0,,
291840,control_change,,,,,0,0,1,,,,0,64,0,,
291840,note_on,,,,,0,0,1,,,,0,,,69,46
291840,note_off,,,,,0,0,1,,,,0,,,58,0
291890,note_off,,,,,50,0,1,,,,0,,,70,0
291920,control_change,,,,,30,0,1,,,,0,64,0,,
292106,control_change,,,,,186,0,1,,,,0,64,127,,
292181,note_on,,,,,75,0,1,,,,0,,,62,34
292523,note_off,,,,,342,0,1,,,,0,,,62,0
292523,note_on,,,,,0,0,1,,,,0,,,58,30
292851,control_change,,,,,328,0,1,,,,0,64,0,,
292864,note_off,,,,,13,0,1,,,,0,,,58,0
292864,note_on,,,,,0,0,1,,,,0,,,68,48
292914,note_off,,,,,50,0,1,,,,0,,,69,0
293063,control_change,,,,,149,0,1,,,,0,64,127,,
293205,note_on,,,,,142,0,1,,,,0,,,62,36
293547,note_off,,,,,342,0,1,,,,0,,,62,0
293547,note_on,,,,,0,0,1,,,,0,,,58,33
293888,control_change,,,,,341,0,1,,,,0,64,0,,
293888,control_change,,,,,0,0,1,,,,0,64,0,,
293888,control_change,,,,,0,0,1,,,,0,64,127,,
293888,control_change,,,,,0,0,1,,,,0,64,0,,
293888,note_off,,,,,0,0,1,,,,0,,,58,0
293888,control_change,,,,,0,0,1,,,,0,64,0,,
293888,control_change,,,,,0,0,1,,,,0,64,0,,
293888,note_on,,,,,0,0,1,,,,0,,,67,51
293938,note_off,,,,,50,0,1,,,,0,,,68,0
293968,control_change,,,,,30,0,1,,,,0,64,0,,
294154,control_change,,,,,186,0,1,,,,0,64,127,,
294229,note_on,,,,,75,0,1,,,,0,,,63,39
294571,note_off,,,,,342,0,1,,,,0,,,63,0
294571,note_on,,,,,0,0,1,,,,0,,,58,36
294899,control_change,,,,,328,0,1,,,,0,64,0,,
294912,note_off,,,,,13,0,1,,,,0,,,58,0
294912,note_on,,,,,0,0,1,,,,0,,,72,53
294912,note_on,,,,,0,0,1,,,,0,,,56,32
294912,set_tempo,,,,,4779,1,0,,400000,,,,,,
294962,note_off,,,,,50,0,1,,,,0,,,67,0
295111,control_change,,,,,149,0,1,,,,0,64,127,,
295253,set_tempo,,,,,341,1,0,,375000,,,,,,
295253,note_on,,,,,142,0,1,,,,0,,,63,39
295595,note_on,,,,,0,0,1,,,,0,,,58,33
295595,note_off,,,,,342,0,1,,,,0,,,63,0
295936,control_change,,,,,0,0,1,,,,0,64,0,,
295936,control_change,,,,,0,0,1,,,,0,64,0,,
295936,control_change,,,,,0,0,1,,,,0,64,0,,
295936,note_off,,,,,0,0,1,,,,0,,,58,0
295936,note_on,,,,,0,0,1,,,,0,,,70,49
295936,note_on,,,,,0,0,1,,,,0,,,55,28
295936,control_change,,,,,0,0,1,,,,0,64,0,,
295936,control_change,,,,,0,0,1,,,,0,64,127,,
295936,control_change,,,,,341,0,1,,,,0,64,0,,
295986,note_off,,,,,50,0,1,,,,0,,,72,0
295986,note_off,,,,,0,0,1,,,,0,,,56,0
296016,control_change,,,,,30,0,1,,,,0,64,0,,
296202,control_change,,,,,186,0,1,,,,0,64,127,,
296277,set_tempo,,,,,1024,1,0,,352941,,,,,,
296277,note_on,,,,,75,0,1,,,,0,,,63,34
296619,note_off,,,,,342,0,1,,,,0,,,63,0
296619,note_on,,,,,0,0,1,,,,0,,,58,29
296947,control_change,,,,,328,0,1,,,,0,64,0,,
296960,note_off,,,,,13,0,1,,,,0,,,58,0
296960,note_on,,,,,0,0,1,,,,0,,,67,44
296960,note_on,,,,,0,0,1,,,,0,,,51,25
296960,set_tempo,,,,,683,1,0,,333333,,,,,,
297010,note_off,,,,,50,0,1,,,,0,,,70,0
297010,note_off,,,,,0,0,1,,,,0,,,55,0
297159,control_change,,,,,149,0,1,,,,0,64,127,,
297301,note_on,,,,,142,0,1,,,,0,,,63,27
297643,note_off,,,,,342,0,1,,,,0,,,63,0
297643,note_on,,,,,0,0,1,,,,0,,,58,21
297984,control_change,,,,,341,0,1,,,,0,64,0,,
297984,control_change,,,,,0,0,1,,,,0,64,0,,
297984,control_change,,,,,0,0,1,,,,0,64,0,,
297984,set_tempo,,,,,1024,1,0,,428571,,,,,,
297984,control_change,,,,,0,0,1,,,,0,64,0,,
297984,note_on,,,,,0,0,1,,,,0,,,34,22
297984,note_on,,,,,0,0,1,,,,0,,,65,40
297984,note_off,,,,,0,0,1,,,,0,,,46,0
297984,control_change,,,,,0,0,1,,,,0,64,127,,
297984,control_change,,,,,0,0,1,,,,0,64,0,,
297984,control_change,,,,,0,0,1,,,,0,64,0,,
297984,control_change,,,,,0,0,1,,,,0,64,0,,
297984,note_off,,,,,0,0,1,,,,0,,,58,0
298034,note_off,,,,,50,0,1,,,,0,,,67,0
298034,note_off,,,,,0,0,1,,,,0,,,51,0
298064,control_change,,,,,30,0,1,,,,0,64,0,,
298250,control_change,,,,,186,0,1,,,,0,64,127,,
298325,set_tempo,,,,,341,1,0,,333333,,,,,,
298325,note_on,,,,,75,0,1,,,,0,,,62,28
298496,note_off,,,,,171,0,1,,,,0,,,34,0
298667,note_on,,,,,0,0,1,,,,0,,,58,25
298667,note_off,,,,,171,0,1,,,,0,,,62,0
298995,control_change,,,,,328,0,1,,,,0,64,0,,
299008,note_off,,,,,13,0,1,,,,0,,,58,0
299008,note_on,,,,,0,0,1,,,,0,,,70,43
299008,note_on,,,,,0,0,1,,,,0,,,46,33
299058,note_off,,,,,50,0,1,,,,0,,,65,0
299207,control_change,,,,,149,0,1,,,,0,64,127,,
299349,note_on,,,,,142,0,1,,,,0,,,62,31
299691,note_on,,,,,0,0,1,,,,0,,,58,28
299691,note_off,,,,,342,0,1,,,,0,,,62,0
300032,control_change,,,,,341,0,1,,,,0,64,0,,
300032,control_change,,,,,0,0,1,,,,0,64,0,,
300032,control_change,,,,,0,0,1,,,,0,64,0,,
300032,control_change,,,,,0,0,1,,,,0,64,127,,
300032,control_change,,,,,0,0,1,,,,0,64,0,,
300032,control_change,,,,,0,0,1,,,,0,64,0,,
300032,control_change,,,,,0,0,1,,,,0,64,0,,
300032,control_change,,,,,0,0,1,,,,0,64,0,,
300032,note_off,,,,,0,0,1,,,,0,,,58,0
300032,note_on,,,,,0,0,1,,,,0,,,69,46
300082,note_off,,,,,50,0,1,,,,0,,,70,0
300112,control_change,,,,,30,0,1,,,,0,64,0,,
300298,control_change,,,,,186,0,1,,,,0,64,127,,
300373,note_on,,,,,75,0,1,,,,0,,,62,34
300715,note_off,,,,,342,0,1,,,,0,,,62,0
300715,note_on,,,,,0,0,1,,,,0,,,58,30
301043,control_change,,,,,328,0,1,,,,0,64,0,,
301056,note_off,,,,,13,0,1,,,,0,,,58,0
301056,note_on,,,,,0,0,1,,,,0,,,53,28
301056,note_on,,,,,0,0,1,,,,0,,,68,48
301106,note_off,,,,,50,0,1,,,,0,,,69,0
301255,control_change,,,,,149,0,1,,,,0,64,127,,
301397,note_on,,,,,142,0,1,,,,0,,,62,35
301739,note_on,,,,,0,0,1,,,,0,,,58,32
301739,note_off,,,,,342,0,1,,,,0,,,62,0
302080,note_on,,,,,0,0,1,,,,0,,,67,51
302080,control_change,,,,,0,0,1,,,,0,64,0,,
302080,control_change,,,,,0,0,1,,,,0,64,0,,
302080,control_change,,,,,0,0,1,,,,0,64,127,,
302080,control_change,,,,,0,0,1,,,,0,64,0,,
302080,control_change,,,,,0,0,1,,,,0,64,0,,
302080,control_change,,,,,341,0,1,,,,0,64,0,,
302080,note_off,,,,,0,0,1,,,,0,,,58,0
302080,set_tempo,,,,,3755,1,0,,400000,,,,,,
302080,control_change,,,,,0,0,1,,,,0,64,0,,
302080,control_change,,,,,0,0,1,,,,0,64,0,,
302080,note_on,,,,,0,0,1,,,,0,,,52,33
302120,note_off,,,,,40,0,1,,,,0,,,53,0
302130,note_off,,,,,10,0,1,,,,0,,,68,0
302160,control_change,,,,,30,0,1,,,,0,64,0,,
302346,control_change,,,,,186,0,1,,,,0,64,127,,
302421,set_tempo,,,,,341,1,0,,352941,,,,,,
302421,note_on,,,,,75,0,1,,,,0,,,61,35
302763,note_on,,,,,0,0,1,,,,0,,,58,32
302763,note_off,,,,,342,0,1,,,,0,,,61,0
303091,control_change,,,,,328,0,1,,,,0,64,0,,
303104,set_tempo,,,,,683,1,0,,375000,,,,,,
303104,note_on,,,,,0,0,1,,,,0,,,53,29
303104,note_on,,,,,0,0,1,,,,0,,,68,48
303104,note_off,,,,,13,0,1,,,,0,,,58,0
303144,note_off,,,,,40,0,1,,,,0,,,52,0
303154,note_off,,,,,10,0,1,,,,0,,,67,0
303303,control_change,,,,,149,0,1,,,,0,64,127,,
303445,note_on,,,,,142,0,1,,,,0,,,62,32
303787,note_on,,,,,0,0,1,,,,0,,,58,26
303787,note_off,,,,,342,0,1,,,,0,,,62,0
303787,set_tempo,,,,,683,1,0,,400000,,,,,,
304128,control_change,,,,,0,0,1,,,,0,64,0,,
304128,note_on,,,,,0,0,1,,,,0,,,55,26
304128,note_on,,,,,0,0,1,,,,0,,,67,40
304128,note_off,,,,,0,0,1,,,,0,,,58,0
304128,control_change,,,,,0,0,1,,,,0,64,0,,
304128,control_change,,,,,0,0,1,,,,0,64,0,,
304128,control_change,,,,,0,0,1,,,,0,64,0,,
304128,control_change,,,,,0,0,1,,,,0,64,127,,
304128,control_change,,,,,0,0,1,,,,0,64,0,,
304128,control_change,,,,,0,0,1,,,,0,64,0,,
304128,control_change,,,,,341,0,1,,,,0,64,0,,
304128,set_tempo,,,,,341,1,0,,428571,,,,,,
304168,note_off,,,,,40,0,1,,,,0,,,53,0
304178,note_off,,,,,10,0,1,,,,0,,,68,0
304208,control_change,,,,,30,0,1,,,,0,64,0,,
304394,control_change,,,,,186,0,1,,,,0,64,127,,
304469,note_on,,,,,75,0,1,,,,0,,,63,27
304469,set_tempo,,,,,341,1,0,,461538,,,,,,
304811,note_on,,,,,0,0,1,,,,0,,,58,17
304811,note_off,,,,,342,0,1,,,,0,,,63,0
305139,control_change,,,,,328,0,1,,,,0,64,0,,
305152,note_on,,,,,0,0,1,,,,0,,,56,14
305152,note_on,,,,,0,0,1,,,,0,,,65,32
305152,note_off,,,,,13,0,1,,,,0,,,58,0
305152,set_tempo,,,,,683,1,0,,500000,,,,,,
305192,note_off,,,,,40,0,1,,,,0,,,55,0
305202,note_off,,,,,10,0,1,,,,0,,,67,0
305351,control_change,,,,,149,0,1,,,,0,64,127,,
305493,set_tempo,,,,,341,1,0,,545454,,,,,,
305493,note_on,,,,,142,0,1,,,,0,,,62,16
305751,control_change,,,,,258,0,1,,,,0,64,0,,
305835,note_on,,,,,0,0,1,,,,0,,,58,12
305835,note_off,,,,,84,0,1,,,,0,,,62,0
306176,note_off,,,,,0,0,1,,,,0,,,58,0
306176,control_change,,,,,0,0,1,,,,0,64,0,,
306176,control_change,,,,,341,0,1,,,,0,64,0,,
306176,key_signature,,,,,683,1,0,Eb,,,,,,,
306176,note_off,,,,,0,0,1,,,,0,,,46,0
306176,set_tempo,,,,,0,1,0,,333333,,,,,,
306216,note_off,,,,,40,0,1,,,,0,,,56,0
306226,note_off,,,,,10,0,1,,,,0,,,65,0
308224,control_change,,,,,1998,0,1,,,,0,64,0,,
308224,control_change,,,,,0,0,1,,,,0,64,0,,
310016,set_tempo,,,,,3840,1,0,,375000,,,,,,
310016,note_on,,,,,1792,0,1,,,,0,,,58,34
310016,note_on,,,,,0,0,1,,,,0,,,70,43
310272,control_change,,,,,256,0,1,,,,0,64,0,,
310272,note_off,,,,,0,0,1,,,,0,,,70,0
310272,note_off,,,,,0,0,1,,,,0,,,58,0
310272,control_change,,,,,0,0,1,,,,0,64,0,,
310272,control_change,,,,,0,0,1,,,,0,64,0,,
310272,control_change,,,,,0,0,1,,,,0,64,0,,
310272,note_on,,,,,0,0,1,,,,0,,,70,50
310272,note_on,,,,,0,0,1,,,,0,,,39,31
310272,set_tempo,,,,,256,1,0,,333333,,,,,,
310272,note_on,,,,,0,0,1,,,,0,,,58,36
310561,control_change,,,,,289,0,1,,,,0,64,127,,
310613,note_on,,,,,52,0,1,,,,0,,,46,26
310955,note_on,,,,,342,0,1,,,,0,,,51,26
311296,note_off,,,,,0,0,1,,,,0,,,70,0
311296,note_off,,,,,0,0,1,,,,0,,,39,0
311296,note_off,,,,,0,0,1,,,,0,,,46,0
311296,note_on,,,,,0,0,1,,,,0,,,67,40
311296,note_on,,,,,0,0,1,,,,0,,,39,26
311296,note_off,,,,,0,0,1,,,,0,,,51,0
311296,note_off,,,,,341,0,1,,,,0,,,58,0
311322,control_change,,,,,26,0,1,,,,0,64,0,,
311532,control_change,,,,,210,0,1,,,,0,64,0,,
311637,note_on,,,,,105,0,1,,,,0,,,46,26
311769,control_change,,,,,132,0,1,,,,0,64,127,,
311808,note_off,,,,,39,0,1,,,,0,,,67,0
311979,note_on,,,,,171,0,1,,,,0,,,51,26
312064,set_tempo,,,,,1792,1,0,,375000,,,,,,
312064,note_on,,,,,0,0,1,,,,0,,,70,42
312064,note_on,,,,,85,0,1,,,,0,,,58,28
312110,control_change,,,,,46,0,1,,,,0,64,0,,
312320,control_change,,,,,0,0,1,,,,0,64,0,,
312320,note_on,,,,,0,0,1,,,,0,,,70,50
312320,note_on,,,,,0,0,1,,,,0,,,58,36
312320,note_off,,,,,0,0,1,,,,0,,,51,0
312320,note_off,,,,,0,0,1,,,,0,,,46,0
312320,note_off,,,,,0,0,1,,,,0,,,39,0
312320,note_off,,,,,0,0,1,,,,0,,,70,0
312320,note_on,,,,,0,0,1,,,,0,,,38,31
312320,set_tempo,,,,,256,1,0,,333333,,,,,,
312320,control_change,,,,,210,0,1,,,,0,64,0,,
312320,note_off,,,,,0,0,1,,,,0,,,58,0
312320,control_change,,,,,0,0,1,,,,0,64,0,,
312320,control_change,,,,,0,0,1,,,,0,64,0,,
312320,control_change,,,,,0,0,1,,,,0,64,0,,
312609,control_change,,,,,289,0,1,,,,0,64,127,,
312661,note_on,,,,,52,0,1,,,,0,,,46,26
313003,note_on,,,,,342,0,1,,,,0,,,50,26
313344,note_on,,,,,0,0,1,,,,0,,,38,26
313344,note_on,,,,,0,0,1,,,,0,,,65,40
313344,note_off,,,,,0,0,1,,,,0,,,50,0
313344,note_off,,,,,0,0,1,,,,0,,,46,0
313344,note_off,,,,,0,0,1,,,,0,,,38,0
313344,note_off,,,,,341,0,1,,,,0,,,58,0
313344,note_off,,,,,0,0,1,,,,0,,,70,0
313370,control_change,,,,,26,0,1,,,,0,64,0,,
313580,control_change,,,,,210,0,1,,,,0,64,0,,
313685,note_on,,,,,105,0,1,,,,0,,,46,26
313817,control_change,,,,,132,0,1,,,,0,64,127,,
313856,note_off,,,,,39,0,1,,,,0,,,65,0
314027,note_on,,,,,171,0,1,,,,0,,,50,26
314112,note_on,,,,,85,0,1,,,,0,,,70,42
314158,control_change,,,,,46,0,1,,,,0,64,0,,
314368,control_change,,,,,0,0,1,,,,0,64,0,,
314368,note_off,,,,,0,0,1,,,,0,,,38,0
314368,note_off,,,,,0,0,1,,,,0,,,46,0
314368,note_off,,,,,0,0,1,,,,0,,,50,0
314368,note_on,,,,,0,0,1,,,,0,,,58,36
314368,note_on,,,,,0,0,1,,,,0,,,68,50
314368,note_on,,,,,0,0,1,,,,0,,,41,31
314368,note_off,,,,,0,0,1,,,,0,,,70,0
314368,control_change,,,,,0,0,1,,,,0,64,0,,
314368,control_change,,,,,0,0,1,,,,0,64,0,,
314368,set_tempo,,,,,2048,1,0,,333333,,,,,,
314368,control_change,,,,,210,0,1,,,,0,64,0,,
314530,control_change,,,,,162,0,1,,,,0,64,127,,
314709,note_on,,,,,179,0,1,,,,0,,,46,26
315051,note_on,,,,,342,0,1,,,,0,,,53,26
315136,note_off,,,,,0,0,1,,,,0,,,68,0
315136,note_on,,,,,0,0,1,,,,0,,,70,42
315136,note_off,,,,,85,0,1,,,,0,,,58,0
315392,note_off,,,,,256,0,1,,,,0,,,70,0
315392,note_on,,,,,0,0,1,,,,0,,,58,32
315392,note_on,,,,,0,0,1,,,,0,,,68,46
315392,note_on,,,,,0,0,1,,,,0,,,41,26
315392,note_off,,,,,0,0,1,,,,0,,,41,0
315392,note_off,,,,,0,0,1,,,,0,,,53,0
315392,note_off,,,,,0,0,1,,,,0,,,46,0
315392,set_tempo,,,,,1024,1,0,,333333,,,,,,
315733,note_on,,,,,341,0,1,,,,0,,,46,26
316075,note_on,,,,,342,0,1,,,,0,,,53,26
316160,note_off,,,,,85,0,1,,,,0,,,58,0
316160,note_off,,,,,0,0,1,,,,0,,,68,0
316160,note_on,,,,,0,0,1,,,,0,,,70,42
316254,control_change,,,,,94,0,1,,,,0,64,0,,
316416,note_off,,,,,0,0,1,,,,0,,,46,0
316416,note_off,,,,,0,0,1,,,,0,,,41,0
316416,note_on,,,,,0,0,1,,,,0,,,39,31
316416,note_on,,,,,0,0,1,,,,0,,,67,46
316416,note_on,,,,,0,0,1,,,,0,,,58,32
316416,note_off,,,,,0,0,1,,,,0,,,53,0
316416,note_off,,,,,0,0,1,,,,0,,,70,0
316416,control_change,,,,,0,0,1,,,,0,64,0,,
316416,control_change,,,,,0,0,1,,,,0,64,0,,
316416,control_change,,,,,162,0,1,,,,0,64,0,,
316416,control_change,,,,,0,0,1,,,,0,64,0,,
316416,set_tempo,,,,,1024,1,0,,333333,,,,,,
316624,control_change,,,,,208,0,1,,,,0,64,127,,
316757,note_on,,,,,133,0,1,,,,0,,,46,26
317099,note_on,,,,,342,0,1,,,,0,,,51,26
317440,note_on,,,,,0,0,1,,,,0,,,39,26
317440,note_off,,,,,0,0,1,,,,0,,,51,0
317440,note_off,,,,,0,0,1,,,,0,,,39,0
317440,note_off,,,,,0,0,1,,,,0,,,67,0
317440,note_off,,,,,0,0,1,,,,0,,,46,0
317440,note_off,,,,,341,0,1,,,,0,,,58,0
317485,control_change,,,,,45,0,1,,,,0,64,0,,
317781,note_on,,,,,296,0,1,,,,0,,,46,26
317811,control_change,,,,,30,0,1,,,,0,64,127,,
318123,note_on,,,,,312,0,1,,,,0,,,51,26
318208,set_tempo,,,,,1792,1,0,,375000,,,,,,
318208,note_on,,,,,85,0,1,,,,0,,,58,28
318208,note_on,,,,,0,0,1,,,,0,,,70,42
318375,control_change,,,,,167,0,1,,,,0,64,0,,
318464,note_off,,,,,0,0,1,,,,0,,,51,0
318464,note_off,,,,,0,0,1,,,,0,,,70,0
318464,note_on,,,,,0,0,1,,,,0,,,58,36
318464,note_on,,,,,0,0,1,,,,0,,,70,50
318464,note_on,,,,,0,0,1,,,,0,,,43,31
318464,note_off,,,,,0,0,1,,,,0,,,39,0
318464,note_off,,,,,0,0,1,,,,0,,,58,0
318464,note_off,,,,,0,0,1,,,,0,,,46,0
318464,control_change,,,,,0,0,1,,,,0,64,0,,
318464,control_change,,,,,0,0,1,,,,0,64,0,,
318464,control_change,,,,,89,0,1,,,,0,64,0,,
318464,set_tempo,,,,,256,1,0,,333333,,,,,,
318464,control_change,,,,,0,0,1,,,,0,64,0,,
318672,control_change,,,,,208,0,1,,,,0,64,127,,
318805,note_on,,,,,133,0,1,,,,0,,,46,26
318976,set_tempo,,,,,512,1,0,,375000,,,,,,
318976,note_off,,,,,171,0,1,,,,0,,,58,0
318976,note_off,,,,,0,0,1,,,,0,,,70,0
319058,control_change,,,,,82,0,1,,,,0,64,0,,
319147,note_on,,,,,89,0,1,,,,0,,,51,26
319488,note_off,,,,,0,0,1,,,,0,,,51,0
319488,note_off,,,,,0,0,1,,,,0,,,46,0
319488,note_on,,,,,0,0,1,,,,0,,,43,26
319488,note_off,,,,,0,0,1,,,,0,,,43,0
319488,note_on,,,,,341,0,1,,,,0,,,67,38
319488,set_tempo,,,,,512,1,0,,333333,,,,,,
319488,note_on,,,,,0,0,1,,,,0,,,79,52
319681,control_change,,,,,193,0,1,,,,0,64,127,,
319829,note_on,,,,,148,0,1,,,,0,,,46,26
320171,note_on,,,,,342,0,1,,,,0,,,51,26
320512,note_on,,,,,0,0,1,,,,0,,,44,31
320512,note_off,,,,,0,0,1,,,,0,,,51,0
320512,note_off,,,,,0,0,1,,,,0,,,46,0
320512,note_off,,,,,0,0,1,,,,0,,,43,0
320512,control_change,,,,,0,0,1,,,,0,64,127,,
320512,control_change,,,,,0,0,1,,,,0,64,0,,
320512,control_change,,,,,341,0,1,,,,0,64,0,,
320512,control_change,,,,,0,0,1,,,,0,64,0,,
320720,control_change,,,,,208,0,1,,,,0,64,0,,
320853,note_on,,,,,133,0,1,,,,0,,,48,26
320957,control_change,,,,,104,0,1,,,,0,64,127,,
321195,note_on,,,,,238,0,1,,,,0,,,53,27
321536,note_on,,,,,0,0,1,,,,0,,,44,27
321536,note_off,,,,,341,0,1,,,,0,,,67,0
321536,note_off,,,,,0,0,1,,,,0,,,79,0
321536,note_off,,,,,0,0,1,,,,0,,,44,0
321536,note_off,,,,,0,0,1,,,,0,,,48,0
321536,note_off,,,,,0,0,1,,,,0,,,53,0
321536,note_on,,,,,0,0,1,,,,0,,,65,33
321536,note_on,,,,,0,0,1,,,,0,,,77,47
321581,control_change,,,,,45,0,1,,,,0,64,0,,
321808,note_off,,,,,227,0,1,,,,0,,,65,0
321808,note_off,,,,,0,0,1,,,,0,,,77,0
321877,note_on,,,,,69,0,1,,,,0,,,48,27
322048,note_on,,,,,0,0,1,,,,0,,,75,45
322048,note_on,,,,,171,0,1,,,,0,,,63,30
322219,note_on,,,,,171,0,1,,,,0,,,53,27
322320,note_off,,,,,0,0,1,,,,0,,,75,0
322320,note_off,,,,,101,0,1,,,,0,,,63,0
322560,set_tempo,,,,,3072,1,0,,333333,,,,,,
322560,note_on,,,,,0,0,1,,,,0,,,74,53
322560,note_on,,,,,0,0,1,,,,0,,,46,33
322560,control_change,,,,,0,0,1,,,,0,64,0,,
322560,control_change,,,,,0,0,1,,,,0,64,0,,
322560,control_change,,,,,0,0,1,,,,0,64,0,,
322560,note_off,,,,,0,0,1,,,,0,,,44,0
322560,note_off,,,,,0,0,1,,,,0,,,48,0
322560,note_off,,,,,0,0,1,,,,0,,,53,0
322560,note_on,,,,,0,0,1,,,,0,,,62,38
322560,control_change,,,,,240,0,1,,,,0,64,0,,
322901,note_on,,,,,341,0,1,,,,0,,,53,28
322928,note_off,,,,,0,0,1,,,,0,,,74,0
322928,note_off,,,,,27,0,1,,,,0,,,62,0
323243,note_on,,,,,315,0,1,,,,0,,,56,28
323328,note_on,,,,,85,0,1,,,,0,,,65,30
323328,note_on,,,,,0,0,1,,,,0,,,77,45
323328,set_tempo,,,,,768,1,0,,375000,,,,,,
323415,note_off,,,,,87,0,1,,,,0,,,65,0
323415,note_off,,,,,0,0,1,,,,0,,,77,0
323584,set_tempo,,,,,256,1,0,,333333,,,,,,
323584,note_off,,,,,0,0,1,,,,0,,,56,0
323584,note_on,,,,,0,0,1,,,,0,,,46,28
323584,note_off,,,,,0,0,1,,,,0,,,46,0
323584,note_on,,,,,0,0,1,,,,0,,,74,50
323584,note_on,,,,,169,0,1,,,,0,,,62,35
323584,note_off,,,,,0,0,1,,,,0,,,53,0
323925,note_on,,,,,341,0,1,,,,0,,,53,28
324112,note_off,,,,,187,0,1,,,,0,,,62,0
324112,note_off,,,,,0,0,1,,,,0,,,74,0
324267,note_on,,,,,155,0,1,,,,0,,,56,28
324352,note_on,,,,,85,0,1,,,,0,,,65,31
324352,note_on,,,,,0,0,1,,,,0,,,77,46
324352,set_tempo,,,,,768,1,0,,375000,,,,,,
324439,note_off,,,,,87,0,1,,,,0,,,65,0
324439,note_off,,,,,0,0,1,,,,0,,,77,0
324608,note_on,,,,,0,0,1,,,,0,,,39,50
324608,set_tempo,,,,,256,1,0,,333333,,,,,,
324608,note_on,,,,,0,0,1,,,,0,,,75,53
324608,control_change,,,,,0,0,1,,,,0,64,0,,
324608,note_off,,,,,0,0,1,,,,0,,,56,0
324608,note_off,,,,,0,0,1,,,,0,,,53,0
324608,note_on,,,,,0,0,1,,,,0,,,63,39
324608,control_change,,,,,169,0,1,,,,0,64,0,,
324608,control_change,,,,,0,0,1,,,,0,64,0,,
324608,note_off,,,,,0,0,1,,,,0,,,46,0
324608,control_change,,,,,0,0,1,,,,0,64,0,,
324949,note_on,,,,,341,0,1,,,,0,,,46,45
325291,note_on,,,,,342,0,1,,,,0,,,51,45
325632,note_off,,,,,341,0,1,,,,0,,,63,0
325632,note_off,,,,,0,0,1,,,,0,,,75,0
325632,note_off,,,,,0,0,1,,,,0,,,39,0
325632,note_off,,,,,0,0,1,,,,0,,,46,0
325632,note_off,,,,,0,0,1,,,,0,,,51,0
325632,note_on,,,,,0,0,1,,,,0,,,39,45
325973,note_on,,,,,341,0,1,,,,0,,,46,45
326315,note_on,,,,,342,0,1,,,,0,,,51,45
326400,note_on,,,,,0,0,1,,,,0,,,82,66
326400,note_on,,,,,85,0,1,,,,0,,,70,54
326400,set_tempo,,,,,1792,1,0,,375000,,,,,,
326656,set_tempo,,,,,256,1,0,,333333,,,,,,
326656,note_on,,,,,0,0,1,,,,0,,,39,62
326656,note_on,,,,,0,0,1,,,,0,,,82,72
326656,note_on,,,,,0,0,1,,,,0,,,70,58
326656,note_off,,,,,0,0,1,,,,0,,,46,0
326656,note_off,,,,,0,0,1,,,,0,,,39,0
326656,note_off,,,,,0,0,1,,,,0,,,82,0
326656,control_change,,,,,256,0,1,,,,0,64,0,,
326656,control_change,,,,,0,0,1,,,,0,64,0,,
326656,note_off,,,,,0,0,1,,,,0,,,70,0
326656,control_change,,,,,0,0,1,,,,0,64,0,,
326656,control_change,,,,,0,0,1,,,,0,64,0,,
326656,control_change,,,,,0,0,1,,,,0,64,0,,
326656,note_off,,,,,0,0,1,,,,0,,,51,0
326945,control_change,,,,,289,0,1,,,,0,64,127,,
326997,note_on,,,,,52,0,1,,,,0,,,46,50
327339,note_on,,,,,342,0,1,,,,0,,,51,50
327680,note_off,,,,,0,0,1,,,,0,,,39,0
327680,note_on,,,,,0,0,1,,,,0,,,39,50
327680,note_off,,,,,0,0,1,,,,0,,,51,0
327680,note_off,,,,,0,0,1,,,,0,,,46,0
327680,note_off,,,,,0,0,1,,,,0,,,82,0
327680,note_off,,,,,341,0,1,,,,0,,,70,0
327680,note_on,,,,,0,0,1,,,,0,,,79,66
327706,control_change,,,,,26,0,1,,,,0,64,0,,
327916,control_change,,,,,210,0,1,,,,0,64,0,,
328021,note_on,,,,,105,0,1,,,,0,,,46,50
328153,control_change,,,,,132,0,1,,,,0,64,127,,
328192,note_off,,,,,39,0,1,,,,0,,,79,0
328363,note_on,,,,,171,0,1,,,,0,,,51,50
328448,note_on,,,,,0,0,1,,,,0,,,82,66
328448,set_tempo,,,,,1792,1,0,,375000,,,,,,
328448,note_on,,,,,85,0,1,,,,0,,,70,50
328494,control_change,,,,,46,0,1,,,,0,64,0,,
328704,note_on,,,,,0,0,1,,,,0,,,38,62
328704,note_on,,,,,0,0,1,,,,0,,,82,72
328704,note_on,,,,,0,0,1,,,,0,,,70,58
328704,note_off,,,,,0,0,1,,,,0,,,51,0
328704,note_off,,,,,0,0,1,,,,0,,,39,0
328704,set_tempo,,,,,256,1,0,,333333,,,,,,
328704,note_off,,,,,0,0,1,,,,0,,,70,0
328704,control_change,,,,,0,0,1,,,,0,64,0,,
328704,control_change,,,,,0,0,1,,,,0,64,0,,
328704,control_change,,,,,0,0,1,,,,0,64,0,,
328704,control_change,,,,,0,0,1,,,,0,64,0,,
328704,control_change,,,,,0,0,1,,,,0,64,0,,
328704,control_change,,,,,210,0,1,,,,0,64,0,,
328704,note_off,,,,,0,0,1,,,,0,,,46,0
328704,note_off,,,,,0,0,1,,,,0,,,82,0
328993,control_change,,,,,289,0,1,,,,0,64,127,,
329045,note_on,,,,,52,0,1,,,,0,,,46,50
329387,note_on,,,,,342,0,1,,,,0,,,50,50
329621,control_change,,,,,234,0,1,,,,0,64,127,,
329728,note_on,,,,,0,0,1,,,,0,,,77,66
329728,note_off,,,,,107,0,1,,,,0,,,70,0
329728,note_off,,,,,0,0,1,,,,0,,,82,0
329728,note_off,,,,,0,0,1,,,,0,,,38,0
329728,note_off,,,,,0,0,1,,,,0,,,46,0
329728,note_off,,,,,0,0,1,,,,0,,,50,0
329728,note_on,,,,,0,0,1,,,,0,,,38,50
329964,control_change,,,,,236,0,1,,,,0,64,0,,
330069,note_on,,,,,105,0,1,,,,0,,,46,50
330201,control_change,,,,,132,0,1,,,,0,64,127,,
330240,note_off,,,,,39,0,1,,,,0,,,77,0
330411,note_on,,,,,171,0,1,,,,0,,,50,50
330496,note_on,,,,,85,0,1,,,,0,,,82,64
330542,control_change,,,,,46,0,1,,,,0,64,0,,
330752,control_change,,,,,0,0,1,,,,0,64,0,,
330752,set_tempo,,,,,2048,1,0,,333333,,,,,,
330752,control_change,,,,,0,0,1,,,,0,64,0,,
330752,note_off,,,,,0,0,1,,,,0,,,50,0
330752,note_on,,,,,0,0,1,,,,0,,,80,72
330752,note_on,,,,,0,0,1,,,,0,,,70,58
330752,control_change,,,,,210,0,1,,,,0,64,0,,
330752,note_off,,,,,0,0,1,,,,0,,,46,0
330752,note_off,,,,,0,0,1,,,,0,,,38,0
330752,note_off,,,,,0,0,1,,,,0,,,82,0
330752,control_change,,,,,0,0,1,,,,0,64,0,,
330752,control_change,,,,,0,0,1,,,,0,64,0,,
330752,note_on,,,,,0,0,1,,,,0,,,41,62
330914,control_change,,,,,162,0,1,,,,0,64,127,,
331093,note_on,,,,,179,0,1,,,,0,,,46,50
331435,note_on,,,,,342,0,1,,,,0,,,53,50
331520,note_off,,,,,85,0,1,,,,0,,,70,0
331520,note_on,,,,,0,0,1,,,,0,,,82,64
331520,note_off,,,,,0,0,1,,,,0,,,80,0
331776,note_off,,,,,0,0,1,,,,0,,,46,0
331776,note_on,,,,,0,0,1,,,,0,,,41,50
331776,note_on,,,,,0,0,1,,,,0,,,80,68
331776,note_on,,,,,0,0,1,,,,0,,,70,54
331776,note_off,,,,,256,0,1,,,,0,,,82,0
331776,set_tempo,,,,,1024,1,0,,333333,,,,,,
331776,note_off,,,,,0,0,1,,,,0,,,53,0
331776,note_off,,,,,0,0,1,,,,0,,,41,0
332117,note_on,,,,,341,0,1,,,,0,,,46,50
332459,note_on,,,,,342,0,1,,,,0,,,53,50
332544,note_on,,,,,0,0,1,,,,0,,,82,64
332544,note_off,,,,,0,0,1,,,,0,,,80,0
332544,note_off,,,,,85,0,1,,,,0,,,70,0
332638,control_change,,,,,94,0,1,,,,0,64,0,,
332800,note_off,,,,,0,0,1,,,,0,,,82,0
332800,control_change,,,,,0,0,1,,,,0,64,0,,
332800,set_tempo,,,,,1024,1,0,,333333,,,,,,
332800,control_change,,,,,0,0,1,,,,0,64,0,,
332800,control_change,,,,,162,0,1,,,,0,64,0,,
332800,control_change,,,,,0,0,1,,,,0,64,0,,
332800,control_change,,,,,0,0,1,,,,0,64,0,,
332800,note_off,,,,,0,0,1,,,,0,,,41,0
332800,note_off,,,,,0,0,1,,,,0,,,46,0
332800,note_off,,,,,0,0,1,,,,0,,,53,0
332800,note_on,,,,,0,0,1,,,,0,,,70,54
332800,note_on,,,,,0,0,1,,,,0,,,79,68
332800,note_on,,,,,0,0,1,,,,0,,,39,62
333008,control_change,,,,,208,0,1,,,,0,64,127,,
333141,note_on,,,,,133,0,1,,,,0,,,46,50
333483,note_on,,,,,342,0,1,,,,0,,,51,50
333824,note_off,,,,,0,0,1,,,,0,,,79,0
333824,note_off,,,,,0,0,1,,,,0,,,39,0
333824,note_off,,,,,341,0,1,,,,0,,,70,0
333824,note_on,,,,,0,0,1,,,,0,,,39,50
333824,note_off,,,,,0,0,1,,,,0,,,51,0
333824,note_off,,,,,0,0,1,,,,0,,,46,0
333869,control_change,,,,,45,0,1,,,,0,64,0,,
334165,note_on,,,,,296,0,1,,,,0,,,46,50
334195,control_change,,,,,30,0,1,,,,0,64,127,,
334507,note_on,,,,,312,0,1,,,,0,,,51,50
334592,note_on,,,,,0,0,1,,,,0,,,82,68
334592,note_on,,,,,85,0,1,,,,0,,,70,54
334592,set_tempo,,,,,1792,1,0,,375000,,,,,,
334759,control_change,,,,,167,0,1,,,,0,64,0,,
334848,set_tempo,,,,,256,1,0,,333333,,,,,,
334848,note_off,,,,,0,0,1,,,,0,,,46,0
334848,note_on,,,,,0,0,1,,,,0,,,43,62
334848,control_change,,,,,89,0,1,,,,0,64,0,,
334848,control_change,,,,,0,0,1,,,,0,64,0,,
334848,control_change,,,,,0,0,1,,,,0,64,0,,
334848,control_change,,,,,0,0,1,,,,0,64,0,,
334848,control_change,,,,,0,0,1,,,,0,64,0,,
334848,note_off,,,,,0,0,1,,,,0,,,70,0
334848,note_off,,,,,0,0,1,,,,0,,,82,0
334848,note_off,,,,,0,0,1,,,,0,,,39,0
334848,note_off,,,,,0,0,1,,,,0,,,51,0
334848,note_on,,,,,0,0,1,,,,0,,,70,62
334848,note_on,,,,,0,0,1,,,,0,,,82,76
335056,control_change,,,,,208,0,1,,,,0,64,127,,
335189,note_on,,,,,133,0,1,,,,0,,,46,50
335360,set_tempo,,,,,512,1,0,,375000,,,,,,
335360,note_off,,,,,171,0,1,,,,0,,,70,0
335360,note_off,,,,,0,0,1,,,,0,,,82,0
335442,control_change,,,,,82,0,1,,,,0,64,0,,
335531,note_on,,,,,89,0,1,,,,0,,,51,50
335661,control_change,,,,,130,0,1,,,,0,64,127,,
335872,note_on,,,,,211,0,1,,,,0,,,79,64
335872,note_on,,,,,0,0,1,,,,0,,,91,78
335872,note_off,,,,,0,0,1,,,,0,,,51,0
335872,set_tempo,,,,,512,1,0,,333333,,,,,,
335872,note_off,,,,,0,0,1,,,,0,,,46,0
335872,note_off,,,,,0,0,1,,,,0,,,43,0
335872,note_on,,,,,0,0,1,,,,0,,,43,50
336213,note_on,,,,,341,0,1,,,,0,,,46,50
336555,note_on,,,,,342,0,1,,,,0,,,51,50
336896,control_change,,,,,341,0,1,,,,0,64,0,,
336896,note_off,,,,,0,0,1,,,,0,,,51,0
336896,note_off,,,,,0,0,1,,,,0,,,46,0
336896,note_off,,,,,0,0,1,,,,0,,,43,0
336896,control_change,,,,,0,0,1,,,,0,64,0,,
336896,control_change,,,,,0,0,1,,,,0,64,127,,
336896,control_change,,,,,0,0,1,,,,0,64,0,,
336896,note_on,,,,,0,0,1,,,,0,,,44,62
336896,control_change,,,,,0,0,1,,,,0,64,0,,
337104,control_change,,,,,208,0,1,,,,0,64,0,,
337237,note_on,,,,,133,0,1,,,,0,,,48,50
337341,control_change,,,,,104,0,1,,,,0,64,127,,
337579,note_on,,,,,238,0,1,,,,0,,,53,50
337920,note_on,,,,,0,0,1,,,,0,,,44,50
337920,note_on,,,,,0,0,1,,,,0,,,89,72
337920,note_on,,,,,0,0,1,,,,0,,,77,58
337920,note_off,,,,,0,0,1,,,,0,,,53,0
337920,note_off,,,,,0,0,1,,,,0,,,48,0
337920,note_off,,,,,0,0,1,,,,0,,,44,0
337920,note_off,,,,,0,0,1,,,,0,,,91,0
337920,note_off,,,,,341,0,1,,,,0,,,79,0
337965,control_change,,,,,45,0,1,,,,0,64,0,,
338261,note_on,,,,,296,0,1,,,,0,,,48,50
338432,note_off,,,,,171,0,1,,,,0,,,77,0
338432,note_off,,,,,0,0,1,,,,0,,,89,0
338432,note_on,,,,,0,0,1,,,,0,,,75,56
338432,note_on,,,,,0,0,1,,,,0,,,87,68
338603,note_on,,,,,171,0,1,,,,0,,,53,50
338944,note_off,,,,,0,0,1,,,,0,,,48,0
338944,note_on,,,,,0,0,1,,,,0,,,86,76
338944,control_change,,,,,341,0,1,,,,0,64,0,,
338944,control_change,,,,,0,0,1,,,,0,64,0,,
338944,control_change,,,,,0,0,1,,,,0,64,0,,
338944,control_change,,,,,0,0,1,,,,0,64,0,,
338944,set_tempo,,,,,3072,1,0,,333333,,,,,,
338944,note_on,,,,,0,0,1,,,,0,,,74,62
338944,note_off,,,,,0,0,1,,,,0,,,53,0
338944,note_on,,,,,0,0,1,,,,0,,,46,62
338944,note_off,,,,,0,0,1,,,,0,,,44,0
338944,note_off,,,,,0,0,1,,,,0,,,87,0
338944,note_off,,,,,0,0,1,,,,0,,,75,0
338944,control_change,,,,,0,0,1,,,,0,64,0,,
339285,note_on,,,,,341,0,1,,,,0,,,53,50
339627,note_on,,,,,342,0,1,,,,0,,,56,50
339712,note_on,,,,,0,0,1,,,,0,,,89,68
339712,note_on,,,,,0,0,1,,,,0,,,77,54
339712,note_off,,,,,85,0,1,,,,0,,,74,0
339712,set_tempo,,,,,768,1,0,,375000,,,,,,
339712,note_off,,,,,0,0,1,,,,0,,,86,0
339968,set_tempo,,,,,256,1,0,,333333,,,,,,
339968,note_on,,,,,0,0,1,,,,0,,,74,58
339968,note_on,,,,,0,0,1,,,,0,,,46,50
339968,note_on,,,,,0,0,1,,,,0,,,86,72
339968,note_off,,,,,0,0,1,,,,0,,,56,0
339968,note_off,,,,,0,0,1,,,,0,,,53,0
339968,note_off,,,,,0,0,1,,,,0,,,46,0
339968,note_off,,,,,0,0,1,,,,0,,,89,0
339968,note_off,,,,,256,0,1,,,,0,,,77,0
340309,note_on,,,,,341,0,1,,,,0,,,53,50
340651,note_on,,,,,342,0,1,,,,0,,,56,50
340736,note_on,,,,,0,0,1,,,,0,,,77,54
340736,note_off,,,,,0,0,1,,,,0,,,86,0
340736,note_off,,,,,85,0,1,,,,0,,,74,0
340736,set_tempo,,,,,768,1,0,,375000,,,,,,
340736,note_on,,,,,0,0,1,,,,0,,,89,68
340992,set_tempo,,,,,256,1,0,,333333,,,,,,
340992,control_change,,,,,256,0,1,,,,0,64,0,,
340992,control_change,,,,,0,0,1,,,,0,64,0,,
340992,note_on,,,,,0,0,1,,,,0,,,51,51
340992,note_on,,,,,0,0,1,,,,0,,,87,64
340992,note_on,,,,,0,0,1,,,,0,,,75,49
340992,note_off,,,,,0,0,1,,,,0,,,77,0
340992,note_off,,,,,0,0,1,,,,0,,,53,0
340992,note_off,,,,,0,0,1,,,,0,,,46,0
340992,note_off,,,,,0,0,1,,,,0,,,89,0
340992,note_off,,,,,0,0,1,,,,0,,,56,0
341269,control_change,,,,,277,0,1,,,,0,64,127,,
341333,note_on,,,,,64,0,1,,,,0,,,55,49
341675,note_off,,,,,342,0,1,,,,0,,,55,0
341675,note_on,,,,,0,0,1,,,,0,,,63,46
341850,control_change,,,,,175,0,1,,,,0,64,0,,
341896,note_off,,,,,46,0,1,,,,0,,,75,0
341896,note_off,,,,,0,0,1,,,,0,,,87,0
342016,note_off,,,,,0,0,1,,,,0,,,51,0
342016,note_on,,,,,120,0,1,,,,0,,,75,50
342016,note_on,,,,,0,0,1,,,,0,,,87,66
342016,note_on,,,,,0,0,1,,,,0,,,53,54
342016,note_off,,,,,0,0,1,,,,0,,,63,0
342265,control_change,,,,,249,0,1,,,,0,64,127,,
342357,note_on,,,,,92,0,1,,,,0,,,56,51
342699,note_off,,,,,342,0,1,,,,0,,,56,0
342699,note_on,,,,,0,0,1,,,,0,,,63,48
342846,control_change,,,,,147,0,1,,,,0,64,0,,
342920,note_off,,,,,74,0,1,,,,0,,,75,0
342920,note_off,,,,,0,0,1,,,,0,,,87,0
343040,control_change,,,,,120,0,1,,,,0,64,0,,
343040,note_on,,,,,0,0,1,,,,0,,,54,56
343040,note_off,,,,,0,0,1,,,,0,,,63,0
343040,note_off,,,,,0,0,1,,,,0,,,53,0
343040,note_on,,,,,0,0,1,,,,0,,,75,52
343040,control_change,,,,,0,0,1,,,,0,64,0,,
343040,note_on,,,,,0,0,1,,,,0,,,87,68
343040,control_change,,,,,0,0,1,,,,0,64,0,,
343317,control_change,,,,,277,0,1,,,,0,64,127,,
343381,note_on,,,,,64,0,1,,,,0,,,57,53
343723,note_off,,,,,342,0,1,,,,0,,,57,0
343723,note_on,,,,,0,0,1,,,,0,,,63,50
343898,control_change,,,,,175,0,1,,,,0,64,0,,
343944,note_off,,,,,46,0,1,,,,0,,,75,0
343944,note_off,,,,,0,0,1,,,,0,,,87,0
344064,note_off,,,,,0,0,1,,,,0,,,54,0
344064,note_on,,,,,0,0,1,,,,0,,,55,59
344064,note_on,,,,,0,0,1,,,,0,,,87,70
344064,note_on,,,,,120,0,1,,,,0,,,75,54
344064,note_off,,,,,0,0,1,,,,0,,,63,0
344313,control_change,,,,,249,0,1,,,,0,64,127,,
344405,note_on,,,,,92,0,1,,,,0,,,58,56
344747,note_on,,,,,0,0,1,,,,0,,,63,52
344747,note_off,,,,,342,0,1,,,,0,,,58,0
344894,control_change,,,,,147,0,1,,,,0,64,0,,
344968,note_off,,,,,74,0,1,,,,0,,,75,0
344968,note_off,,,,,0,0,1,,,,0,,,87,0
345088,note_off,,,,,0,0,1,,,,0,,,55,0
345088,note_on,,,,,0,0,1,,,,0,,,77,51
345088,control_change,,,,,120,0,1,,,,0,64,0,,
345088,control_change,,,,,0,0,1,,,,0,64,0,,
345088,control_change,,,,,0,0,1,,,,0,64,0,,
345088,control_change,,,,,0,0,1,,,,0,64,0,,
345088,control_change,,,,,0,0,1,,,,0,64,0,,
345088,control_change,,,,,0,0,1,,,,0,64,0,,
345088,set_tempo,,,,,4096,1,0,,375000,,,,,,
345088,note_on,,,,,0,0,1,,,,0,,,89,67
345088,note_on,,,,,0,0,1,,,,0,,,56,61
345088,note_off,,,,,0,0,1,,,,0,,,63,0
345365,control_change,,,,,0,0,1,,,,0,64,127,,
345365,control_change,,,,,277,0,1,,,,0,64,127,,
345365,control_change,,,,,0,0,1,,,,0,64,127,,
345429,note_on,,,,,64,0,1,,,,0,,,63,58
345520,note_off,,,,,91,0,1,,,,0,,,77,0
345520,note_off,,,,,0,0,1,,,,0,,,89,0
345600,set_tempo,,,,,512,1,0,,333333,,,,,,
345600,note_on,,,,,80,0,1,,,,0,,,77,52
345600,note_on,,,,,0,0,1,,,,0,,,89,68
345771,note_off,,,,,171,0,1,,,,0,,,63,0
345771,note_on,,,,,0,0,1,,,,0,,,65,54
345819,control_change,,,,,48,0,1,,,,0,64,127,,
345946,control_change,,,,,0,0,1,,,,0,64,0,,
345946,control_change,,,,,127,0,1,,,,0,64,0,,
346032,note_off,,,,,0,0,1,,,,0,,,89,0
346032,note_off,,,,,86,0,1,,,,0,,,77,0
346112,note_on,,,,,0,0,1,,,,0,,,58,64
346112,note_on,,,,,0,0,1,,,,0,,,89,69
346112,note_on,,,,,80,0,1,,,,0,,,77,53
346112,note_off,,,,,0,0,1,,,,0,,,56,0
346112,note_off,,,,,0,0,1,,,,0,,,65,0
346361,control_change,,,,,0,0,1,,,,0,64,127,,
346361,control_change,,,,,249,0,1,,,,0,64,127,,
346453,note_on,,,,,92,0,1,,,,0,,,63,61
346544,note_off,,,,,0,0,1,,,,0,,,89,0
346544,note_off,,,,,91,0,1,,,,0,,,77,0
346624,note_on,,,,,0,0,1,,,,0,,,89,70
346624,note_on,,,,,80,0,1,,,,0,,,77,54
346795,note_on,,,,,0,0,1,,,,0,,,65,56
346795,note_off,,,,,171,0,1,,,,0,,,63,0
346942,control_change,,,,,147,0,1,,,,0,64,0,,
346942,control_change,,,,,0,0,1,,,,0,64,0,,
346942,control_change,,,,,0,0,1,,,,0,64,0,,
347056,note_off,,,,,114,0,1,,,,0,,,77,0
347056,note_off,,,,,0,0,1,,,,0,,,89,0
347136,control_change,,,,,0,0,1,,,,0,64,0,,
347136,control_change,,,,,0,0,1,,,,0,64,0,,
347136,control_change,,,,,0,0,1,,,,0,64,0,,
347136,control_change,,,,,0,0,1,,,,0,64,0,,
347136,control_change,,,,,0,0,1,,,,0,64,0,,
347136,control_change,,,,,0,0,1,,,,0,64,0,,
347136,note_on,,,,,0,0,1,,,,0,,,89,72
347136,note_off,,,,,0,0,1,,,,0,,,58,0
347136,note_off,,,,,0,0,1,,,,0,,,65,0
347136,note_on,,,,,0,0,1,,,,0,,,59,66
347136,note_on,,,,,0,0,1,,,,0,,,77,55
347136,control_change,,,,,0,0,1,,,,0,64,0,,
347136,control_change,,,,,80,0,1,,,,0,64,0,,
347136,control_change,,,,,0,0,1,,,,0,64,0,,
347413,control_change,,,,,0,0,1,,,,0,64,127,,
347413,control_change,,,,,0,0,1,,,,0,64,127,,
347413,control_change,,,,,277,0,1,,,,0,64,127,,
347413,control_change,,,,,0,0,1,,,,0,64,127,,
347477,note_on,,,,,64,0,1,,,,0,,,63,63
347568,note_off,,,,,0,0,1,,,,0,,,89,0
347568,note_off,,,,,91,0,1,,,,0,,,77,0
347648,note_on,,,,,80,0,1,,,,0,,,77,55
347648,note_on,,,,,0,0,1,,,,0,,,89,72
347819,note_on,,,,,0,0,1,,,,0,,,65,58
347819,note_off,,,,,171,0,1,,,,0,,,63,0
347867,control_change,,,,,48,0,1,,,,0,64,127,,
347994,control_change,,,,,0,0,1,,,,0,64,0,,
347994,control_change,,,,,0,0,1,,,,0,64,0,,
347994,control_change,,,,,127,0,1,,,,0,64,0,,
348080,note_off,,,,,0,0,1,,,,0,,,89,0
348080,note_off,,,,,86,0,1,,,,0,,,77,0
348160,note_on,,,,,80,0,1,,,,0,,,77,56
348160,note_on,,,,,0,0,1,,,,0,,,89,74
348160,note_on,,,,,0,0,1,,,,0,,,57,68
348160,note_off,,,,,0,0,1,,,,0,,,59,0
348160,note_off,,,,,0,0,1,,,,0,,,65,0
348409,control_change,,,,,249,0,1,,,,0,64,127,,
348409,control_change,,,,,0,0,1,,,,0,64,127,,
348409,control_change,,,,,0,0,1,,,,0,64,127,,
348501,note_on,,,,,92,0,1,,,,0,,,63,65
348592,note_off,,,,,0,0,1,,,,0,,,89,0
348592,note_off,,,,,91,0,1,,,,0,,,77,0
348672,note_on,,,,,0,0,1,,,,0,,,89,74
348672,note_on,,,,,80,0,1,,,,0,,,77,57
348843,note_off,,,,,171,0,1,,,,0,,,63,0
348843,note_on,,,,,0,0,1,,,,0,,,65,61
348990,control_change,,,,,147,0,1,,,,0,64,0,,
348990,control_change,,,,,0,0,1,,,,0,64,0,,
348990,control_change,,,,,0,0,1,,,,0,64,0,,
348990,control_change,,,,,0,0,1,,,,0,64,0,,
349056,note_on,,,,,66,0,1,,,,0,,,93,58
349104,note_off,,,,,48,0,1,,,,0,,,77,0
349104,note_off,,,,,0,0,1,,,,0,,,89,0
349184,note_off,,,,,0,0,1,,,,0,,,93,0
349184,note_on,,,,,0,0,1,,,,0,,,46,73
349184,note_on,,,,,0,0,1,,,,0,,,84,58
349184,note_on,,,,,0,0,1,,,,0,,,96,76
349184,note_off,,,,,0,0,1,,,,0,,,65,0
349184,note_on,,,,,0,0,1,,,,0,,,34,57
349184,control_change,,,,,0,0,1,,,,0,64,0,,
349184,control_change,,,,,80,0,1,,,,0,64,0,,
349184,set_tempo,,,,,3584,1,0,,428571,,,,,,
349184,note_off,,,,,0,0,1,,,,0,,,57,0
349339,control_change,,,,,155,0,1,,,,0,64,127,,
349696,note_off,,,,,357,0,1,,,,0,,,84,0
349696,note_off,,,,,0,0,1,,,,0,,,96,0
349696,note_off,,,,,0,0,1,,,,0,,,34,0
349696,note_off,,,,,0,0,1,,,,0,,,46,0
349867,control_change,,,,,171,0,1,,,,0,64,0,,
350208,note_on,,,,,341,0,1,,,,0,,,82,56
350208,set_tempo,,,,,1024,1,0,,375000,,,,,,
350208,note_on,,,,,0,0,1,,,,0,,,94,74
350208,note_on,,,,,0,0,1,,,,0,,,58,52
350208,note_on,,,,,0,0,1,,,,0,,,62,52
350208,note_on,,,,,0,0,1,,,,0,,,68,64
350363,control_change,,,,,155,0,1,,,,0,64,127,,
351077,control_change,,,,,714,0,1,,,,0,64,0,,
351232,control_change,,,,,155,0,1,,,,0,64,0,,
351232,control_change,,,,,0,0,1,,,,0,64,0,,
351406,note_off,,,,,174,0,1,,,,0,,,82,0
351406,note_off,,,,,0,0,1,,,,0,,,94,0
351744,note_on,,,,,338,0,1,,,,0,,,80,52
351744,note_on,,,,,0,0,1,,,,0,,,92,68
351918,note_off,,,,,174,0,1,,,,0,,,80,0
351918,note_off,,,,,0,0,1,,,,0,,,92,0
352256,note_on,,,,,338,0,1,,,,0,,,79,51
352256,note_on,,,,,0,0,1,,,,0,,,91,67
352430,note_off,,,,,174,0,1,,,,0,,,79,0
352430,note_off,,,,,0,0,1,,,,0,,,91,0
352768,note_on,,,,,338,0,1,,,,0,,,77,50
352768,note_on,,,,,0,0,1,,,,0,,,89,65
352942,note_off,,,,,174,0,1,,,,0,,,77,0
352942,note_off,,,,,0,0,1,,,,0,,,89,0
353280,note_on,,,,,0,0,1,,,,0,,,87,64
353280,note_on,,,,,0,0,1,,,,0,,,75,49
353280,set_tempo,,,,,3072,1,0,,333333,,,,,,
353280,note_off,,,,,0,0,1,,,,0,,,68,0
353280,note_on,,,,,0,0,1,,,,0,,,39,42
353280,note_off,,,,,0,0,1,,,,0,,,62,0
353280,control_change,,,,,0,0,1,,,,0,64,0,,
353280,control_change,,,,,0,0,1,,,,0,64,0,,
353280,note_off,,,,,0,0,1,,,,0,,,58,0
353280,control_change,,,,,338,0,1,,,,0,64,0,,
353280,control_change,,,,,0,0,1,,,,0,64,0,,
353557,control_change,,,,,277,0,1,,,,0,64,127,,
353621,note_on,,,,,64,0,1,,,,0,,,43,40
353963,note_off,,,,,342,0,1,,,,0,,,43,0
353963,note_on,,,,,0,0,1,,,,0,,,51,37
354138,control_change,,,,,175,0,1,,,,0,64,0,,
354184,note_off,,,,,46,0,1,,,,0,,,75,0
354184,note_off,,,,,0,0,1,,,,0,,,87,0
354304,note_off,,,,,0,0,1,,,,0,,,51,0
354304,note_off,,,,,0,0,1,,,,0,,,39,0
354304,note_on,,,,,120,0,1,,,,0,,,63,43
354304,note_on,,,,,0,0,1,,,,0,,,75,59
354304,note_on,,,,,0,0,1,,,,0,,,41,44
354553,control_change,,,,,249,0,1,,,,0,64,127,,
354645,note_on,,,,,92,0,1,,,,0,,,44,41
354987,note_off,,,,,342,0,1,,,,0,,,44,0
354987,note_on,,,,,0,0,1,,,,0,,,51,38
355134,control_change,,,,,147,0,1,,,,0,64,0,,
355208,note_off,,,,,0,0,1,,,,0,,,75,0
355208,note_off,,,,,74,0,1,,,,0,,,63,0
355328,note_on,,,,,0,0,1,,,,0,,,63,45
355328,note_on,,,,,0,0,1,,,,0,,,42,46
355328,note_off,,,,,0,0,1,,,,0,,,51,0
355328,note_off,,,,,0,0,1,,,,0,,,41,0
355328,note_on,,,,,0,0,1,,,,0,,,75,61
355328,control_change,,,,,0,0,1,,,,0,64,0,,
355328,control_change,,,,,0,0,1,,,,0,64,0,,
355328,control_change,,,,,0,0,1,,,,0,64,0,,
355328,control_change,,,,,0,0,1,,,,0,64,0,,
355328,control_change,,,,,120,0,1,,,,0,64,0,,
355605,control_change,,,,,277,0,1,,,,0,64,127,,
355669,note_on,,,,,64,0,1,,,,0,,,45,42
356011,note_on,,,,,0,0,1,,,,0,,,51,39
356011,note_off,,,,,342,0,1,,,,0,,,45,0
356186,control_change,,,,,175,0,1,,,,0,64,0,,
356232,note_off,,,,,46,0,1,,,,0,,,63,0
356232,note_off,,,,,0,0,1,,,,0,,,75,0
356352,note_off,,,,,0,0,1,,,,0,,,42,0
356352,note_on,,,,,120,0,1,,,,0,,,63,47
356352,note_on,,,,,0,0,1,,,,0,,,75,63
356352,note_on,,,,,0,0,1,,,,0,,,43,48
356352,note_off,,,,,0,0,1,,,,0,,,51,0
356601,control_change,,,,,249,0,1,,,,0,64,127,,
356693,note_on,,,,,92,0,1,,,,0,,,46,45
357035,note_off,,,,,342,0,1,,,,0,,,46,0
357035,note_on,,,,,0,0,1,,,,0,,,51,40
357182,control_change,,,,,147,0,1,,,,0,64,0,,
357256,note_off,,,,,74,0,1,,,,0,,,63,0
357256,note_off,,,,,0,0,1,,,,0,,,75,0
357376,note_on,,,,,0,0,1,,,,0,,,77,60
357376,note_on,,,,,0,0,1,,,,0,,,65,44
357376,note_off,,,,,0,0,1,,,,0,,,51,0
357376,note_off,,,,,0,0,1,,,,0,,,43,0
357376,control_change,,,,,0,0,1,,,,0,64,0,,
357376,control_change,,,,,0,0,1,,,,0,64,0,,
357376,set_tempo,,,,,4096,1,0,,375000,,,,,,
357376,control_change,,,,,0,0,1,,,,0,64,0,,
357376,control_change,,,,,120,0,1,,,,0,64,0,,
357376,control_change,,,,,0,0,1,,,,0,64,0,,
357376,note_on,,,,,0,0,1,,,,0,,,44,49
357653,control_change,,,,,277,0,1,,,,0,64,127,,
357717,note_on,,,,,64,0,1,,,,0,,,51,46
357808,note_off,,,,,0,0,1,,,,0,,,77,0
357808,note_off,,,,,91,0,1,,,,0,,,65,0
357888,set_tempo,,,,,512,1,0,,333333,,,,,,
357888,note_on,,,,,0,0,1,,,,0,,,77,61
357888,note_on,,,,,80,0,1,,,,0,,,65,45
358059,note_on,,,,,0,0,1,,,,0,,,53,42
358059,note_off,,,,,171,0,1,,,,0,,,51,0
358234,control_change,,,,,175,0,1,,,,0,64,0,,
358320,note_off,,,,,0,0,1,,,,0,,,77,0
358320,note_off,,,,,86,0,1,,,,0,,,65,0
358400,note_off,,,,,0,0,1,,,,0,,,53,0
358400,note_off,,,,,0,0,1,,,,0,,,44,0
358400,note_on,,,,,0,0,1,,,,0,,,77,62
358400,note_on,,,,,80,0,1,,,,0,,,65,46
358400,note_on,,,,,0,0,1,,,,0,,,46,51
358649,control_change,,,,,249,0,1,,,,0,64,127,,
358741,note_on,,,,,92,0,1,,,,0,,,51,48
358832,note_off,,,,,0,0,1,,,,0,,,77,0
358832,note_off,,,,,91,0,1,,,,0,,,65,0
358912,note_on,,,,,0,0,1,,,,0,,,77,63
358912,note_on,,,,,80,0,1,,,,0,,,65,47
359083,note_off,,,,,171,0,1,,,,0,,,51,0
359083,note_on,,,,,0,0,1,,,,0,,,53,43
359230,control_change,,,,,147,0,1,,,,0,64,0,,
359344,note_off,,,,,114,0,1,,,,0,,,65,0
359344,note_off,,,,,0,0,1,,,,0,,,77,0
359424,control_change,,,,,0,0,1,,,,0,64,0,,
359424,control_change,,,,,80,0,1,,,,0,64,0,,
359424,control_change,,,,,0,0,1,,,,0,64,0,,
359424,control_change,,,,,0,0,1,,,,0,64,0,,
359424,control_change,,,,,0,0,1,,,,0,64,0,,
359424,note_off,,,,,0,0,1,,,,0,,,53,0
359424,note_on,,,,,0,0,1,,,,0,,,65,48
359424,note_on,,,,,0,0,1,,,,0,,,77,65
359424,note_on,,,,,0,0,1,,,,0,,,47,52
359424,note_off,,,,,0,0,1,,,,0,,,46,0
359701,control_change,,,,,277,0,1,,,,0,64,127,,
359765,note_on,,,,,64,0,1,,,,0,,,51,49
359856,note_off,,,,,0,0,1,,,,0,,,77,0
359856,note_off,,,,,91,0,1,,,,0,,,65,0
359936,note_on,,,,,80,0,1,,,,0,,,65,48
359936,note_on,,,,,0,0,1,,,,0,,,77,65
360107,note_off,,,,,171,0,1,,,,0,,,51,0
360107,note_on,,,,,0,0,1,,,,0,,,53,44
360282,control_change,,,,,175,0,1,,,,0,64,0,,
360368,note_off,,,,,86,0,1,,,,0,,,65,0
360368,note_off,,,,,0,0,1,,,,0,,,77,0
360448,note_on,,,,,0,0,1,,,,0,,,77,67
360448,note_on,,,,,80,0,1,,,,0,,,65,49
360448,note_off,,,,,0,0,1,,,,0,,,53,0
360448,note_off,,,,,0,0,1,,,,0,,,47,0
360448,note_on,,,,,0,0,1,,,,0,,,46,53
360697,control_change,,,,,249,0,1,,,,0,64,127,,
360789,note_on,,,,,92,0,1,,,,0,,,51,50
360880,note_off,,,,,0,0,1,,,,0,,,77,0
360880,note_off,,,,,91,0,1,,,,0,,,65,0
360960,note_on,,,,,0,0,1,,,,0,,,77,67
360960,note_on,,,,,80,0,1,,,,0,,,65,50
361131,note_on,,,,,0,0,1,,,,0,,,53,46
361131,note_off,,,,,171,0,1,,,,0,,,51,0
361278,control_change,,,,,147,0,1,,,,0,64,0,,
361392,note_off,,,,,114,0,1,,,,0,,,65,0
361392,note_off,,,,,0,0,1,,,,0,,,77,0
361472,control_change,,,,,80,0,1,,,,0,64,0,,
361472,control_change,,,,,0,0,1,,,,0,64,0,,
361472,control_change,,,,,0,0,1,,,,0,64,0,,
361472,control_change,,,,,0,0,1,,,,0,64,0,,
361472,control_change,,,,,0,0,1,,,,0,64,0,,
361472,note_off,,,,,0,0,1,,,,0,,,46,0
361472,note_off,,,,,0,0,1,,,,0,,,53,0
361472,note_on,,,,,0,0,1,,,,0,,,65,44
361472,note_on,,,,,0,0,1,,,,0,,,77,60
361472,note_on,,,,,0,0,1,,,,0,,,45,47
361749,control_change,,,,,277,0,1,,,,0,64,127,,
361813,note_on,,,,,64,0,1,,,,0,,,51,45
361984,note_off,,,,,0,0,1,,,,0,,,77,0
361984,note_on,,,,,0,0,1,,,,0,,,77,61
361984,note_on,,,,,0,0,1,,,,0,,,65,45
361984,note_off,,,,,171,0,1,,,,0,,,65,0
362155,note_on,,,,,0,0,1,,,,0,,,53,42
362155,note_off,,,,,171,0,1,,,,0,,,51,0
362330,control_change,,,,,175,0,1,,,,0,64,0,,
362496,note_on,,,,,0,0,1,,,,0,,,46,50
362496,note_on,,,,,0,0,1,,,,0,,,77,62
362496,note_on,,,,,0,0,1,,,,0,,,65,46
362496,note_off,,,,,0,0,1,,,,0,,,53,0
362496,note_off,,,,,166,0,1,,,,0,,,65,0
362496,note_off,,,,,0,0,1,,,,0,,,77,0
362496,note_off,,,,,0,0,1,,,,0,,,45,0
362745,control_change,,,,,249,0,1,,,,0,64,127,,
362837,note_on,,,,,92,0,1,,,,0,,,51,47
363008,note_off,,,,,171,0,1,,,,0,,,65,0
363008,note_on,,,,,0,0,1,,,,0,,,65,47
363008,note_on,,,,,0,0,1,,,,0,,,77,63
363008,note_off,,,,,0,0,1,,,,0,,,77,0
363179,note_on,,,,,0,0,1,,,,0,,,53,44
363179,note_off,,,,,171,0,1,,,,0,,,51,0
363326,control_change,,,,,147,0,1,,,,0,64,0,,
363520,control_change,,,,,194,0,1,,,,0,64,0,,
363520,control_change,,,,,0,0,1,,,,0,64,0,,
363520,control_change,,,,,0,0,1,,,,0,64,0,,
363520,control_change,,,,,0,0,1,,,,0,64,0,,
363520,note_off,,,,,0,0,1,,,,0,,,65,0
363520,note_off,,,,,0,0,1,,,,0,,,77,0
363520,note_off,,,,,0,0,1,,,,0,,,46,0
363520,note_off,,,,,0,0,1,,,,0,,,53,0
363520,note_on,,,,,0,0,1,,,,0,,,65,48
363520,note_on,,,,,0,0,1,,,,0,,,77,65
363520,control_change,,,,,0,0,1,,,,0,64,0,,
363520,note_on,,,,,0,0,1,,,,0,,,48,52
363797,control_change,,,,,277,0,1,,,,0,64,127,,
363861,note_on,,,,,64,0,1,,,,0,,,51,49
364032,note_on,,,,,0,0,1,,,,0,,,77,65
364032,note_on,,,,,0,0,1,,,,0,,,65,48
364032,note_off,,,,,0,0,1,,,,0,,,77,0
364032,note_off,,,,,171,0,1,,,,0,,,65,0
364203,note_off,,,,,171,0,1,,,,0,,,51,0
364203,note_on,,,,,0,0,1,,,,0,,,53,46
364378,control_change,,,,,175,0,1,,,,0,64,0,,
364544,note_off,,,,,0,0,1,,,,0,,,53,0
364544,note_off,,,,,166,0,1,,,,0,,,65,0
364544,note_off,,,,,0,0,1,,,,0,,,77,0
364544,note_off,,,,,0,0,1,,,,0,,,48,0
364544,note_on,,,,,0,0,1,,,,0,,,65,49
364544,note_on,,,,,0,0,1,,,,0,,,77,67
364544,note_on,,,,,0,0,1,,,,0,,,45,55
364793,control_change,,,,,249,0,1,,,,0,64,127,,
364885,note_on,,,,,92,0,1,,,,0,,,51,52
365056,note_off,,,,,171,0,1,,,,0,,,65,0
365056,note_off,,,,,0,0,1,,,,0,,,77,0
365056,note_on,,,,,0,0,1,,,,0,,,65,50
365056,note_on,,,,,0,0,1,,,,0,,,77,67
365227,note_off,,,,,171,0,1,,,,0,,,51,0
365227,note_on,,,,,0,0,1,,,,0,,,53,48
365374,control_change,,,,,147,0,1,,,,0,64,0,,
365568,control_change,,,,,0,0,1,,,,0,64,0,,
365568,control_change,,,,,0,0,1,,,,0,64,0,,
365568,control_change,,,,,0,0,1,,,,0,64,0,,
365568,control_change,,,,,0,0,1,,,,0,64,0,,
365568,note_off,,,,,0,0,1,,,,0,,,65,0
365568,note_off,,,,,0,0,1,,,,0,,,77,0
365568,control_change,,,,,194,0,1,,,,0,64,0,,
365568,note_on,,,,,0,0,1,,,,0,,,46,47
365568,note_on,,,,,0,0,1,,,,0,,,67,44
365568,note_off,,,,,0,0,1,,,,0,,,45,0
365568,note_on,,,,,0,0,1,,,,0,,,79,60
365568,note_off,,,,,0,0,1,,,,0,,,53,0
365845,control_change,,,,,277,0,1,,,,0,64,127,,
365909,note_on,,,,,64,0,1,,,,0,,,52,45
366080,note_on,,,,,0,0,1,,,,0,,,79,61
366080,note_on,,,,,0,0,1,,,,0,,,67,45
366080,note_off,,,,,0,0,1,,,,0,,,79,0
366080,note_off,,,,,171,0,1,,,,0,,,67,0
366251,note_on,,,,,0,0,1,,,,0,,,55,41
366251,note_off,,,,,171,0,1,,,,0,,,52,0
366426,control_change,,,,,175,0,1,,,,0,64,0,,
366592,note_off,,,,,166,0,1,,,,0,,,67,0
366592,note_on,,,,,0,0,1,,,,0,,,48,51
366592,note_on,,,,,0,0,1,,,,0,,,79,62
366592,note_on,,,,,0,0,1,,,,0,,,67,46
366592,note_off,,,,,0,0,1,,,,0,,,55,0
366592,note_off,,,,,0,0,1,,,,0,,,46,0
366592,note_off,,,,,0,0,1,,,,0,,,79,0
366841,control_change,,,,,249,0,1,,,,0,64,127,,
366933,note_on,,,,,92,0,1,,,,0,,,52,49
367104,note_off,,,,,171,0,1,,,,0,,,67,0
367104,note_off,,,,,0,0,1,,,,0,,,79,0
367104,note_on,,,,,0,0,1,,,,0,,,79,63
367104,note_on,,,,,0,0,1,,,,0,,,67,47
367275,note_off,,,,,171,0,1,,,,0,,,52,0
367275,note_on,,,,,0,0,1,,,,0,,,55,45
367422,control_change,,,,,147,0,1,,,,0,64,0,,
367616,note_off,,,,,0,0,1,,,,0,,,48,0
367616,control_change,,,,,194,0,1,,,,0,64,0,,
367616,control_change,,,,,0,0,1,,,,0,64,0,,
367616,control_change,,,,,0,0,1,,,,0,64,0,,
367616,control_change,,,,,0,0,1,,,,0,64,0,,
367616,control_change,,,,,0,0,1,,,,0,64,0,,
367616,note_off,,,,,0,0,1,,,,0,,,67,0
367616,note_off,,,,,0,0,1,,,,0,,,79,0
367616,note_on,,,,,0,0,1,,,,0,,,67,48
367616,note_on,,,,,0,0,1,,,,0,,,79,65
367616,note_on,,,,,0,0,1,,,,0,,,49,55
367616,note_off,,,,,0,0,1,,,,0,,,55,0
367893,control_change,,,,,277,0,1,,,,0,64,127,,
367957,note_on,,,,,64,0,1,,,,0,,,52,53
368128,note_off,,,,,171,0,1,,,,0,,,67,0
368128,note_off,,,,,0,0,1,,,,0,,,79,0
368128,note_on,,,,,0,0,1,,,,0,,,67,48
368128,note_on,,,,,0,0,1,,,,0,,,79,65
368299,note_off,,,,,171,0,1,,,,0,,,52,0
368299,note_on,,,,,0,0,1,,,,0,,,55,49
368474,control_change,,,,,175,0,1,,,,0,64,0,,
368640,note_on,,,,,0,0,1,,,,0,,,79,67
368640,note_off,,,,,0,0,1,,,,0,,,55,0
368640,note_off,,,,,0,0,1,,,,0,,,49,0
368640,note_off,,,,,0,0,1,,,,0,,,79,0
368640,note_off,,,,,166,0,1,,,,0,,,67,0
368640,note_on,,,,,0,0,1,,,,0,,,48,59
368640,note_on,,,,,0,0,1,,,,0,,,67,49
368889,control_change,,,,,249,0,1,,,,0,64,127,,
368981,note_on,,,,,92,0,1,,,,0,,,52,57
369152,note_off,,,,,171,0,1,,,,0,,,67,0
369152,note_off,,,,,0,0,1,,,,0,,,79,0
369152,note_on,,,,,0,0,1,,,,0,,,67,50
369152,note_on,,,,,0,0,1,,,,0,,,79,67
369323,note_on,,,,,0,0,1,,,,0,,,55,53
369323,note_off,,,,,171,0,1,,,,0,,,52,0
369470,control_change,,,,,147,0,1,,,,0,64,0,,
369664,control_change,,,,,0,0,1,,,,0,64,0,,
369664,note_off,,,,,0,0,1,,,,0,,,67,0
369664,note_off,,,,,0,0,1,,,,0,,,79,0
369664,note_off,,,,,0,0,1,,,,0,,,48,0
369664,note_off,,,,,0,0,1,,,,0,,,55,0
369664,note_on,,,,,0,0,1,,,,0,,,67,51
369664,note_on,,,,,0,0,1,,,,0,,,79,67
369664,note_on,,,,,0,0,1,,,,0,,,46,54
369664,control_change,,,,,194,0,1,,,,0,64,0,,
370005,note_on,,,,,341,0,1,,,,0,,,52,51
370176,note_off,,,,,0,0,1,,,,0,,,79,0
370176,note_on,,,,,0,0,1,,,,0,,,67,52
370176,note_on,,,,,0,0,1,,,,0,,,79,68
370176,note_off,,,,,171,0,1,,,,0,,,67,0
370347,note_on,,,,,0,0,1,,,,0,,,55,47
370347,note_off,,,,,171,0,1,,,,0,,,52,0
370688,note_off,,,,,341,0,1,,,,0,,,67,0
370688,note_off,,,,,0,0,1,,,,0,,,79,0
370688,note_on,,,,,0,0,1,,,,0,,,48,58
370688,note_on,,,,,0,0,1,,,,0,,,79,69
370688,note_on,,,,,0,0,1,,,,0,,,67,53
370688,note_off,,,,,0,0,1,,,,0,,,55,0
370688,note_off,,,,,0,0,1,,,,0,,,46,0
371029,note_on,,,,,341,0,1,,,,0,,,52,56
371200,note_on,,,,,0,0,1,,,,0,,,79,70
371200,note_on,,,,,0,0,1,,,,0,,,67,54
371200,note_off,,,,,0,0,1,,,,0,,,79,0
371200,note_off,,,,,171,0,1,,,,0,,,67,0
371371,note_on,,,,,0,0,1,,,,0,,,55,51
371371,note_off,,,,,171,0,1,,,,0,,,52,0
371712,note_on,,,,,0,0,1,,,,0,,,79,72
371712,control_change,,,,,0,0,1,,,,0,64,0,,
371712,note_off,,,,,0,0,1,,,,0,,,67,0
371712,control_change,,,,,341,0,1,,,,0,64,0,,
371712,note_on,,,,,0,0,1,,,,0,,,67,55
371712,note_off,,,,,0,0,1,,,,0,,,48,0
371712,note_off,,,,,0,0,1,,,,0,,,55,0
371712,note_on,,,,,0,0,1,,,,0,,,49,63
371712,note_off,,,,,0,0,1,,,,0,,,79,0
372053,note_on,,,,,341,0,1,,,,0,,,52,60
372224,note_off,,,,,171,0,1,,,,0,,,67,0
372224,note_on,,,,,0,0,1,,,,0,,,67,55
372224,note_on,,,,,0,0,1,,,,0,,,79,72
372224,note_off,,,,,0,0,1,,,,0,,,79,0
372395,note_off,,,,,171,0,1,,,,0,,,52,0
372395,note_on,,,,,0,0,1,,,,0,,,55,55
372736,note_off,,,,,341,0,1,,,,0,,,67,0
372736,note_off,,,,,0,0,1,,,,0,,,55,0
372736,note_on,,,,,0,0,1,,,,0,,,67,56
372736,note_on,,,,,0,0,1,,,,0,,,79,74
372736,note_on,,,,,0,0,1,,,,0,,,46,67
372736,note_off,,,,,0,0,1,,,,0,,,79,0
372736,note_off,,,,,0,0,1,,,,0,,,49,0
373077,note_on,,,,,341,0,1,,,,0,,,52,64
373248,note_on,,,,,0,0,1,,,,0,,,79,74
373248,note_off,,,,,171,0,1,,,,0,,,67,0
373248,note_off,,,,,0,0,1,,,,0,,,79,0
373248,note_on,,,,,0,0,1,,,,0,,,67,57
373419,note_on,,,,,0,0,1,,,,0,,,55,60
373419,note_off,,,,,171,0,1,,,,0,,,52,0
373760,control_change,,,,,341,0,1,,,,0,64,0,,
373760,note_on,,,,,0,0,1,,,,0,,,51,52
373760,note_on,,,,,0,0,1,,,,0,,,48,52
373760,note_on,,,,,0,0,1,,,,0,,,80,80
373760,note_on,,,,,0,0,1,,,,0,,,68,64
373760,note_on,,,,,0,0,1,,,,0,,,56,64
373760,note_off,,,,,0,0,1,,,,0,,,46,0
373760,note_off,,,,,0,0,1,,,,0,,,79,0
373760,note_off,,,,,0,0,1,,,,0,,,67,0
373760,control_change,,,,,0,0,1,,,,0,64,0,,
373760,set_tempo,,,,,15872,1,0,,375000,,,,,,
373760,note_off,,,,,0,0,1,,,,0,,,55,0
374272,note_off,,,,,0,0,1,,,,0,,,51,0
374272,note_off,,,,,0,0,1,,,,0,,,56,0
374272,note_off,,,,,0,0,1,,,,0,,,80,0
374272,note_off,,,,,0,0,1,,,,0,,,48,0
374272,note_off,,,,,512,0,1,,,,0,,,68,0
374784,note_on,,,,,512,0,1,,,,0,,,72,64
374784,note_on,,,,,0,0,1,,,,0,,,75,64
374784,note_on,,,,,0,0,1,,,,0,,,80,64
374784,note_on,,,,,0,0,1,,,,0,,,84,80
374784,note_on,,,,,0,0,1,,,,0,,,51,58
374784,note_on,,,,,0,0,1,,,,0,,,56,70
374784,note_on,,,,,0,0,1,,,,0,,,44,58
374784,set_tempo,,,,,1024,1,0,,333333,,,,,,
375808,control_change,,,,,1024,0,1,,,,0,64,0,,
375808,control_change,,,,,0,0,1,,,,0,64,0,,
377856,control_change,,,,,2048,0,1,,,,0,64,0,,
377856,control_change,,,,,0,0,1,,,,0,64,0,,
377856,note_off,,,,,0,0,1,,,,0,,,72,0
377856,note_off,,,,,0,0,1,,,,0,,,75,0
377856,note_off,,,,,0,0,1,,,,0,,,80,0
377856,note_off,,,,,0,0,1,,,,0,,,84,0
377856,note_off,,,,,0,0,1,,,,0,,,44,0
377856,note_off,,,,,0,0,1,,,,0,,,51,0
377856,note_off,,,,,0,0,1,,,,0,,,56,0
377856,note_on,,,,,0,0,1,,,,0,,,70,64
377856,note_on,,,,,0,0,1,,,,0,,,82,80
377856,note_on,,,,,0,0,1,,,,0,,,46,52
377856,note_on,,,,,0,0,1,,,,0,,,55,52
377856,note_on,,,,,0,0,1,,,,0,,,58,64
378640,note_off,,,,,784,0,1,,,,0,,,70,0
378640,note_off,,,,,0,0,1,,,,0,,,55,0
378640,note_off,,,,,0,0,1,,,,0,,,82,0
378640,note_off,,,,,0,0,1,,,,0,,,58,0
378640,note_off,,,,,0,0,1,,,,0,,,46,0
378880,note_on,,,,,240,0,1,,,,0,,,68,59
378880,note_on,,,,,0,0,1,,,,0,,,56,58
378880,note_on,,,,,0,0,1,,,,0,,,80,75
378880,note_on,,,,,0,0,1,,,,0,,,46,46
378880,note_on,,,,,0,0,1,,,,0,,,53,46
379152,note_off,,,,,272,0,1,,,,0,,,68,0
379152,note_off,,,,,0,0,1,,,,0,,,80,0
379152,note_off,,,,,0,0,1,,,,0,,,46,0
379152,note_off,,,,,0,0,1,,,,0,,,53,0
379152,note_off,,,,,0,0,1,,,,0,,,56,0
379392,note_on,,,,,0,0,1,,,,0,,,79,75
379392,note_on,,,,,0,0,1,,,,0,,,46,46
379392,note_on,,,,,0,0,1,,,,0,,,51,46
379392,note_on,,,,,0,0,1,,,,0,,,55,58
379392,note_on,,,,,240,0,1,,,,0,,,67,59
379664,note_off,,,,,272,0,1,,,,0,,,67,0
379664,note_off,,,,,0,0,1,,,,0,,,46,0
379664,note_off,,,,,0,0,1,,,,0,,,51,0
379664,note_off,,,,,0,0,1,,,,0,,,55,0
379664,note_off,,,,,0,0,1,,,,0,,,79,0
379904,control_change,,,,,240,0,1,,,,0,64,0,,
379904,note_on,,,,,0,0,1,,,,0,,,68,61
379904,note_on,,,,,0,0,1,,,,0,,,80,77
379904,note_on,,,,,0,0,1,,,,0,,,46,48
379904,note_on,,,,,0,0,1,,,,0,,,53,48
379904,note_on,,,,,0,0,1,,,,0,,,56,60
379904,control_change,,,,,0,0,1,,,,0,64,0,,
380278,note_off,,,,,0,0,1,,,,0,,,80,0
380278,note_off,,,,,0,0,1,,,,0,,,46,0
380278,note_off,,,,,0,0,1,,,,0,,,53,0
380278,note_off,,,,,374,0,1,,,,0,,,68,0
380278,note_off,,,,,0,0,1,,,,0,,,56,0
380928,note_on,,,,,0,0,1,,,,0,,,82,80
380928,note_on,,,,,0,0,1,,,,0,,,46,52
380928,note_on,,,,,0,0,1,,,,0,,,50,52
380928,note_on,,,,,0,0,1,,,,0,,,58,64
380928,note_on,,,,,650,0,1,,,,0,,,70,64
381302,note_off,,,,,0,0,1,,,,0,,,82,0
381302,note_off,,,,,0,0,1,,,,0,,,46,0
381302,note_off,,,,,0,0,1,,,,0,,,50,0
381302,note_off,,,,,0,0,1,,,,0,,,58,0
381302,note_off,,,,,374,0,1,,,,0,,,70,0
381952,note_on,,,,,0,0,1,,,,0,,,55,52
381952,note_on,,,,,0,0,1,,,,0,,,51,52
381952,note_on,,,,,0,0,1,,,,0,,,79,80
381952,note_on,,,,,0,0,1,,,,0,,,67,64
381952,control_change,,,,,0,0,1,,,,0,64,0,,
381952,control_change,,,,,650,0,1,,,,0,64,0,,
381952,set_tempo,,,,,7168,1,0,,428571,,,,,,
382336,note_off,,,,,0,0,1,,,,0,,,55,0
382336,note_off,,,,,0,0,1,,,,0,,,51,0
382336,note_off,,,,,0,0,1,,,,0,,,79,0
382336,note_off,,,,,384,0,1,,,,0,,,67,0
382976,set_tempo,,,,,1024,1,0,,333333,,,,,,
382976,note_on,,,,,0,0,1,,,,0,,,80,75
382976,note_on,,,,,640,0,1,,,,0,,,75,75
382976,note_on,,,,,0,0,1,,,,0,,,44,62
382976,note_on,,,,,0,0,1,,,,0,,,87,91
382976,note_on,,,,,0,0,1,,,,0,,,51,62
382976,note_on,,,,,0,0,1,,,,0,,,56,74
382976,note_on,,,,,0,0,1,,,,0,,,84,75
384000,control_change,,,,,1024,0,1,,,,0,64,0,,
384000,control_change,,,,,0,0,1,,,,0,64,0,,
386048,note_off,,,,,0,0,1,,,,0,,,51,0
386048,control_change,,,,,2048,0,1,,,,0,64,0,,
386048,control_change,,,,,0,0,1,,,,0,64,0,,
386048,note_off,,,,,0,0,1,,,,0,,,56,0
386048,note_off,,,,,0,0,1,,,,0,,,75,0
386048,note_off,,,,,0,0,1,,,,0,,,80,0
386048,note_off,,,,,0,0,1,,,,0,,,84,0
386048,note_off,,,,,0,0,1,,,,0,,,87,0
386048,note_on,,,,,0,0,1,,,,0,,,55,52
386048,note_on,,,,,0,0,1,,,,0,,,46,52
386048,note_on,,,,,0,0,1,,,,0,,,82,80
386048,note_off,,,,,0,0,1,,,,0,,,44,0
386048,note_on,,,,,0,0,1,,,,0,,,58,64
386048,note_on,,,,,0,0,1,,,,0,,,70,64
386832,note_off,,,,,784,0,1,,,,0,,,70,0
386832,note_off,,,,,0,0,1,,,,0,,,55,0
386832,note_off,,,,,0,0,1,,,,0,,,46,0
386832,note_off,,,,,0,0,1,,,,0,,,58,0
386832,note_off,,,,,0,0,1,,,,0,,,82,0
387072,note_on,,,,,240,0,1,,,,0,,,68,59
387072,note_on,,,,,0,0,1,,,,0,,,80,75
387072,note_on,,,,,0,0,1,,,,0,,,46,46
387072,note_on,,,,,0,0,1,,,,0,,,53,46
387072,note_on,,,,,0,0,1,,,,0,,,56,58
387344,note_off,,,,,0,0,1,,,,0,,,56,0
387344,note_off,,,,,0,0,1,,,,0,,,53,0
387344,note_off,,,,,0,0,1,,,,0,,,80,0
387344,note_off,,,,,272,0,1,,,,0,,,68,0
387344,note_off,,,,,0,0,1,,,,0,,,46,0
387584,note_on,,,,,0,0,1,,,,0,,,55,58
387584,note_on,,,,,240,0,1,,,,0,,,67,59
387584,note_on,,,,,0,0,1,,,,0,,,79,75
387584,note_on,,,,,0,0,1,,,,0,,,46,46
387584,note_on,,,,,0,0,1,,,,0,,,51,46
387856,note_off,,,,,0,0,1,,,,0,,,51,0
387856,note_off,,,,,272,0,1,,,,0,,,67,0
387856,note_off,,,,,0,0,1,,,,0,,,55,0
387856,note_off,,,,,0,0,1,,,,0,,,46,0
387856,note_off,,,,,0,0,1,,,,0,,,79,0
388096,note_on,,,,,0,0,1,,,,0,,,56,60
388096,note_on,,,,,0,0,1,,,,0,,,53,48
388096,note_on,,,,,0,0,1,,,,0,,,46,48
388096,note_on,,,,,0,0,1,,,,0,,,80,77
388096,note_on,,,,,0,0,1,,,,0,,,68,61
388096,control_change,,,,,0,0,1,,,,0,64,0,,
388096,control_change,,,,,240,0,1,,,,0,64,0,,
388470,note_off,,,,,0,0,1,,,,0,,,56,0
388470,note_off,,,,,0,0,1,,,,0,,,53,0
388470,note_off,,,,,0,0,1,,,,0,,,46,0
388470,note_off,,,,,0,0,1,,,,0,,,80,0
388470,note_off,,,,,374,0,1,,,,0,,,68,0
389120,note_on,,,,,650,0,1,,,,0,,,70,64
389120,note_on,,,,,0,0,1,,,,0,,,50,52
389120,note_on,,,,,0,0,1,,,,0,,,58,64
389120,note_on,,,,,0,0,1,,,,0,,,82,80
389120,note_on,,,,,0,0,1,,,,0,,,46,52
390144,control_change,,,,,0,0,1,,,,0,64,0,,
390144,note_on,,,,,0,0,1,,,,0,,,67,64
390144,note_on,,,,,0,0,1,,,,0,,,79,80
390144,note_on,,,,,0,0,1,,,,0,,,51,52
390144,note_on,,,,,0,0,1,,,,0,,,55,64
390144,note_off,,,,,0,0,1,,,,0,,,50,0
390144,control_change,,,,,1024,0,1,,,,0,64,0,,
390194,note_off,,,,,0,0,1,,,,0,,,58,0
390194,note_off,,,,,0,0,1,,,,0,,,82,0
390194,note_off,,,,,50,0,1,,,,0,,,70,0
390928,note_off,,,,,0,0,1,,,,0,,,51,0
390928,note_off,,,,,0,0,1,,,,0,,,46,0
390928,note_off,,,,,734,0,1,,,,0,,,67,0
390928,note_off,,,,,0,0,1,,,,0,,,55,0
390928,note_off,,,,,0,0,1,,,,0,,,79,0
391168,note_on,,,,,240,0,1,,,,0,,,68,59
391168,note_on,,,,,0,0,1,,,,0,,,80,75
391168,note_on,,,,,0,0,1,,,,0,,,46,46
391168,note_on,,,,,0,0,1,,,,0,,,53,46
391168,note_on,,,,,0,0,1,,,,0,,,56,58
391440,note_off,,,,,0,0,1,,,,0,,,80,0
391440,note_off,,,,,0,0,1,,,,0,,,46,0
391440,note_off,,,,,0,0,1,,,,0,,,53,0
391440,note_off,,,,,0,0,1,,,,0,,,56,0
391440,note_off,,,,,272,0,1,,,,0,,,68,0
391680,note_on,,,,,0,0,1,,,,0,,,55,58
391680,note_on,,,,,0,0,1,,,,0,,,46,46
391680,note_on,,,,,0,0,1,,,,0,,,79,75
391680,note_on,,,,,240,0,1,,,,0,,,67,59
391680,note_on,,,,,0,0,1,,,,0,,,51,46
391952,note_off,,,,,272,0,1,,,,0,,,67,0
391952,note_off,,,,,0,0,1,,,,0,,,79,0
391952,note_off,,,,,0,0,1,,,,0,,,51,0
391952,note_off,,,,,0,0,1,,,,0,,,55,0
391952,note_off,,,,,0,0,1,,,,0,,,46,0
392192,control_change,,,,,240,0,1,,,,0,64,0,,
392192,control_change,,,,,0,0,1,,,,0,64,0,,
392192,note_on,,,,,0,0,1,,,,0,,,80,77
392192,note_on,,,,,0,0,1,,,,0,,,46,48
392192,note_on,,,,,0,0,1,,,,0,,,53,48
392192,note_on,,,,,0,0,1,,,,0,,,56,60
392192,note_on,,,,,0,0,1,,,,0,,,68,61
392566,note_off,,,,,374,0,1,,,,0,,,68,0
392566,note_off,,,,,0,0,1,,,,0,,,46,0
392566,note_off,,,,,0,0,1,,,,0,,,53,0
392566,note_off,,,,,0,0,1,,,,0,,,56,0
392566,note_off,,,,,0,0,1,,,,0,,,80,0
393216,note_on,,,,,650,0,1,,,,0,,,70,69
393216,set_tempo,,,,,10240,1,0,,375000,,,,,,
393216,note_on,,,,,0,0,1,,,,0,,,46,57
393216,note_on,,,,,0,0,1,,,,0,,,50,57
393216,note_on,,,,,0,0,1,,,,0,,,82,85
393216,note_on,,,,,0,0,1,,,,0,,,58,69
394240,control_change,,,,,0,0,1,,,,0,64,0,,
394240,note_off,,,,,0,0,1,,,,0,,,50,0
394240,note_on,,,,,0,0,1,,,,0,,,67,64
394240,note_on,,,,,0,0,1,,,,0,,,79,80
394240,note_on,,,,,0,0,1,,,,0,,,51,52
394240,note_on,,,,,0,0,1,,,,0,,,55,64
394240,control_change,,,,,1024,0,1,,,,0,64,0,,
394240,set_tempo,,,,,1024,1,0,,333333,,,,,,
394290,note_off,,,,,0,0,1,,,,0,,,58,0
394290,note_off,,,,,0,0,1,,,,0,,,82,0
394290,note_off,,,,,50,0,1,,,,0,,,70,0
395024,note_off,,,,,0,0,1,,,,0,,,55,0
395024,note_off,,,,,0,0,1,,,,0,,,51,0
395024,note_off,,,,,0,0,1,,,,0,,,46,0
395024,note_off,,,,,0,0,1,,,,0,,,79,0
395024,note_off,,,,,734,0,1,,,,0,,,67,0
395264,note_on,,,,,0,0,1,,,,0,,,56,58
395264,note_on,,,,,0,0,1,,,,0,,,53,46
395264,note_on,,,,,0,0,1,,,,0,,,46,46
395264,note_on,,,,,0,0,1,,,,0,,,80,75
395264,note_on,,,,,240,0,1,,,,0,,,68,59
395536,note_off,,,,,0,0,1,,,,0,,,56,0
395536,note_off,,,,,0,0,1,,,,0,,,53,0
395536,note_off,,,,,0,0,1,,,,0,,,80,0
395536,note_off,,,,,272,0,1,,,,0,,,68,0
395536,note_off,,,,,0,0,1,,,,0,,,46,0
395776,note_on,,,,,240,0,1,,,,0,,,67,59
395776,note_on,,,,,0,0,1,,,,0,,,79,75
395776,note_on,,,,,0,0,1,,,,0,,,46,46
395776,note_on,,,,,0,0,1,,,,0,,,51,46
395776,note_on,,,,,0,0,1,,,,0,,,55,58
396048,note_off,,,,,272,0,1,,,,0,,,67,0
396048,note_off,,,,,0,0,1,,,,0,,,79,0
396048,note_off,,,,,0,0,1,,,,0,,,46,0
396048,note_off,,,,,0,0,1,,,,0,,,51,0
396048,note_off,,,,,0,0,1,,,,0,,,55,0
396288,control_change,,,,,240,0,1,,,,0,64,0,,
396288,control_change,,,,,0,0,1,,,,0,64,0,,
396288,note_on,,,,,0,0,1,,,,0,,,80,77
396288,note_on,,,,,0,0,1,,,,0,,,68,61
396288,note_on,,,,,0,0,1,,,,0,,,46,48
396288,note_on,,,,,0,0,1,,,,0,,,56,60
396288,note_on,,,,,0,0,1,,,,0,,,53,48
396662,note_off,,,,,0,0,1,,,,0,,,80,0
396662,note_off,,,,,0,0,1,,,,0,,,46,0
396662,note_off,,,,,0,0,1,,,,0,,,53,0
396662,note_off,,,,,0,0,1,,,,0,,,56,0
396662,note_off,,,,,374,0,1,,,,0,,,68,0
397312,note_on,,,,,0,0,1,,,,0,,,50,57
397312,set_tempo,,,,,3072,1,0,,375000,,,,,,
397312,note_on,,,,,0,0,1,,,,0,,,82,85
397312,note_on,,,,,650,0,1,,,,0,,,70,69
397312,note_on,,,,,0,0,1,,,,0,,,46,57
397312,note_on,,,,,0,0,1,,,,0,,,58,69
398336,control_change,,,,,1024,0,1,,,,0,64,0,,
398336,control_change,,,,,0,0,1,,,,0,64,0,,
398336,note_on,,,,,0,0,1,,,,0,,,67,58
398336,note_on,,,,,0,0,1,,,,0,,,79,74
398336,note_on,,,,,0,0,1,,,,0,,,51,59
398336,note_on,,,,,0,0,1,,,,0,,,55,59
398336,note_off,,,,,0,0,1,,,,0,,,50,0
398386,note_off,,,,,0,0,1,,,,0,,,58,0
398386,note_off,,,,,0,0,1,,,,0,,,46,0
398386,note_off,,,,,0,0,1,,,,0,,,82,0
398386,note_off,,,,,50,0,1,,,,0,,,70,0
399120,note_off,,,,,0,0,1,,,,0,,,55,0
399120,note_off,,,,,0,0,1,,,,0,,,51,0
399120,note_off,,,,,0,0,1,,,,0,,,79,0
399120,note_off,,,,,734,0,1,,,,0,,,67,0
399360,note_on,,,,,0,0,1,,,,0,,,51,70
399360,note_on,,,,,0,0,1,,,,0,,,46,58
399360,note_on,,,,,0,0,1,,,,0,,,39,58
399360,note_on,,,,,0,0,1,,,,0,,,82,85
399360,note_on,,,,,0,0,1,,,,0,,,77,69
399360,note_on,,,,,0,0,1,,,,0,,,74,69
399360,note_on,,,,,240,0,1,,,,0,,,70,69
399360,set_tempo,,,,,2048,1,0,,333333,,,,,,
400384,control_change,,,,,1024,0,1,,,,0,64,0,,
400384,control_change,,,,,0,0,1,,,,0,64,0,,
400708,note_off,,,,,0,0,1,,,,0,,,51,0
400708,note_off,,,,,0,0,1,,,,0,,,46,0
400708,note_off,,,,,0,0,1,,,,0,,,39,0
400708,note_off,,,,,0,0,1,,,,0,,,82,0
400708,note_off,,,,,0,0,1,,,,0,,,77,0
400708,note_off,,,,,0,0,1,,,,0,,,74,0
400708,note_off,,,,,324,0,1,,,,0,,,70,0
401408,note_on,,,,,0,0,1,,,,0,,,39,52
401408,note_on,,,,,0,0,1,,,,0,,,82,75
401408,note_on,,,,,0,0,1,,,,0,,,77,60
401408,note_on,,,,,0,0,1,,,,0,,,74,60
401408,note_on,,,,,700,0,1,,,,0,,,70,60
401408,note_on,,,,,0,0,1,,,,0,,,51,64
401408,note_on,,,,,0,0,1,,,,0,,,46,52
401732,note_off,,,,,0,0,1,,,,0,,,51,0
401732,note_off,,,,,0,0,1,,,,0,,,46,0
401732,note_off,,,,,0,0,1,,,,0,,,39,0
401732,note_off,,,,,0,0,1,,,,0,,,82,0
401732,note_off,,,,,0,0,1,,,,0,,,77,0
401732,note_off,,,,,324,0,1,,,,0,,,70,0
401732,note_off,,,,,0,0,1,,,,0,,,74,0
402432,note_on,,,,,0,0,1,,,,0,,,51,59
402432,note_on,,,,,0,0,1,,,,0,,,46,47
402432,note_on,,,,,0,0,1,,,,0,,,39,47
402432,note_on,,,,,0,0,1,,,,0,,,79,58
402432,note_on,,,,,0,0,1,,,,0,,,75,74
402432,note_on,,,,,0,0,1,,,,0,,,70,58
402432,control_change,,,,,0,0,1,,,,0,64,0,,
402432,control_change,,,,,700,0,1,,,,0,64,0,,
402432,set_tempo,,,,,3072,1,0,,375000,,,,,,
402816,note_off,,,,,0,0,1,,,,0,,,51,0
402816,note_off,,,,,0,0,1,,,,0,,,46,0
402816,note_off,,,,,0,0,1,,,,0,,,39,0
402816,note_off,,,,,0,0,1,,,,0,,,79,0
402816,note_off,,,,,0,0,1,,,,0,,,75,0
402816,note_off,,,,,384,0,1,,,,0,,,70,0
403456,note_on,,,,,0,0,1,,,,0,,,70,78
403456,note_on,,,,,640,0,1,,,,0,,,58,62
403456,set_tempo,,,,,1024,1,0,,333333,,,,,,
403456,note_on,,,,,0,0,1,,,,0,,,62,62
403456,note_on,,,,,0,0,1,,,,0,,,39,51
403456,note_on,,,,,0,0,1,,,,0,,,51,63
403456,note_on,,,,,0,0,1,,,,0,,,46,51
403456,note_on,,,,,0,0,1,,,,0,,,65,62
404480,control_change,,,,,1024,0,1,,,,0,64,0,,
404480,control_change,,,,,0,0,1,,,,0,64,0,,
404804,note_off,,,,,324,0,1,,,,0,,,58,0
404804,note_off,,,,,0,0,1,,,,0,,,65,0
404804,note_off,,,,,0,0,1,,,,0,,,70,0
404804,note_off,,,,,0,0,1,,,,0,,,39,0
404804,note_off,,,,,0,0,1,,,,0,,,46,0
404804,note_off,,,,,0,0,1,,,,0,,,51,0
404804,note_off,,,,,0,0,1,,,,0,,,62,0
405504,note_on,,,,,0,0,1,,,,0,,,51,45
405504,note_on,,,,,0,0,1,,,,0,,,46,33
405504,note_on,,,,,0,0,1,,,,0,,,39,33
405504,note_on,,,,,0,0,1,,,,0,,,70,68
405504,note_on,,,,,0,0,1,,,,0,,,65,53
405504,note_on,,,,,0,0,1,,,,0,,,62,53
405504,note_on,,,,,700,0,1,,,,0,,,58,53
405828,note_off,,,,,0,0,1,,,,0,,,46,0
405828,note_off,,,,,0,0,1,,,,0,,,62,0
405828,note_off,,,,,324,0,1,,,,0,,,58,0
405828,note_off,,,,,0,0,1,,,,0,,,65,0
405828,note_off,,,,,0,0,1,,,,0,,,70,0
405828,note_off,,,,,0,0,1,,,,0,,,39,0
405828,note_off,,,,,0,0,1,,,,0,,,51,0
406528,note_on,,,,,0,0,1,,,,0,,,46,35
406528,note_on,,,,,0,0,1,,,,0,,,39,35
406528,note_on,,,,,0,0,1,,,,0,,,67,64
406528,note_on,,,,,0,0,1,,,,0,,,63,52
406528,note_on,,,,,0,0,1,,,,0,,,58,52
406528,control_change,,,,,0,0,1,,,,0,64,0,,
406528,control_change,,,,,700,0,1,,,,0,64,0,,
406528,note_on,,,,,0,0,1,,,,0,,,51,44
406912,note_off,,,,,384,0,1,,,,0,,,58,0
406912,note_off,,,,,0,0,1,,,,0,,,67,0
406912,note_off,,,,,0,0,1,,,,0,,,39,0
406912,note_off,,,,,0,0,1,,,,0,,,46,0
406912,note_off,,,,,0,0,1,,,,0,,,51,0
406912,note_off,,,,,0,0,1,,,,0,,,63,0
407552,note_on,,,,,640,0,1,,,,0,,,50,45
407552,note_on,,,,,0,0,1,,,,0,,,53,45
407552,note_on,,,,,0,0,1,,,,0,,,58,57
407552,note_on,,,,,0,0,1,,,,0,,,39,36
407552,note_on,,,,,0,0,1,,,,0,,,46,45
408176,note_off,,,,,624,0,1,,,,0,,,50,0
408176,note_off,,,,,0,0,1,,,,0,,,53,0
408176,note_off,,,,,0,0,1,,,,0,,,46,0
408176,note_off,,,,,0,0,1,,,,0,,,58,0
408176,note_off,,,,,0,0,1,,,,0,,,39,0
408576,note_on,,,,,0,0,1,,,,0,,,46,37
408576,note_on,,,,,0,0,1,,,,0,,,39,28
408576,note_on,,,,,0,0,1,,,,0,,,55,48
408576,note_on,,,,,0,0,1,,,,0,,,51,36
408576,control_change,,,,,400,0,1,,,,0,64,0,,
408576,control_change,,,,,0,0,1,,,,0,64,0,,
409200,note_off,,,,,0,0,1,,,,0,,,46,0
409200,note_off,,,,,0,0,1,,,,0,,,39,0
409200,note_off,,,,,0,0,1,,,,0,,,55,0
409200,note_off,,,,,624,0,1,,,,0,,,51,0
409600,note_on,,,,,0,0,1,,,,0,,,46,38
409600,note_on,,,,,0,0,1,,,,0,,,39,29
409600,note_on,,,,,0,0,1,,,,0,,,53,40
409600,note_on,,,,,400,0,1,,,,0,,,50,40
409600,note_on,,,,,0,0,1,,,,0,,,58,52
410224,note_off,,,,,0,0,1,,,,0,,,46,0
410224,note_off,,,,,0,0,1,,,,0,,,39,0
410224,note_off,,,,,0,0,1,,,,0,,,58,0
410224,note_off,,,,,0,0,1,,,,0,,,53,0
410224,note_off,,,,,624,0,1,,,,0,,,50,0
410624,note_on,,,,,0,0,1,,,,0,,,46,29
410624,control_change,,,,,400,0,1,,,,0,64,0,,
410624,note_on,,,,,0,0,1,,,,0,,,39,20
410624,note_on,,,,,0,0,1,,,,0,,,55,43
410624,control_change,,,,,0,0,1,,,,0,64,0,,
410624,note_on,,,,,0,0,1,,,,0,,,51,31
411248,note_off,,,,,0,0,1,,,,0,,,46,0
411248,note_off,,,,,0,0,1,,,,0,,,39,0
411248,note_off,,,,,0,0,1,,,,0,,,55,0
411248,note_off,,,,,624,0,1,,,,0,,,51,0
411648,note_on,,,,,0,0,1,,,,0,,,53,35
411648,note_on,,,,,0,0,1,,,,0,,,39,22
411648,note_on,,,,,0,0,1,,,,0,,,46,31
411648,note_on,,,,,400,0,1,,,,0,,,50,35
411648,note_on,,,,,0,0,1,,,,0,,,58,47
412272,note_off,,,,,0,0,1,,,,0,,,46,0
412272,note_off,,,,,0,0,1,,,,0,,,58,0
412272,note_off,,,,,0,0,1,,,,0,,,39,0
412272,note_off,,,,,624,0,1,,,,0,,,50,0
412272,note_off,,,,,0,0,1,,,,0,,,53,0
412672,control_change,,,,,400,0,1,,,,0,64,0,,
412672,control_change,,,,,0,0,1,,,,0,64,0,,
412672,note_on,,,,,0,0,1,,,,0,,,51,31
412672,note_on,,,,,0,0,1,,,,0,,,55,43
412672,note_on,,,,,0,0,1,,,,0,,,39,20
412672,note_on,,,,,0,0,1,,,,0,,,46,29
413296,note_off,,,,,0,0,1,,,,0,,,55,0
413296,note_off,,,,,0,0,1,,,,0,,,39,0
413296,note_off,,,,,0,0,1,,,,0,,,46,0
413296,note_off,,,,,624,0,1,,,,0,,,51,0
413696,note_on,,,,,0,0,1,,,,0,,,46,31
413696,note_on,,,,,0,0,1,,,,0,,,39,22
413696,note_on,,,,,400,0,1,,,,0,,,50,35
413696,note_on,,,,,0,0,1,,,,0,,,53,35
413696,note_on,,,,,0,0,1,,,,0,,,58,47
414320,note_off,,,,,0,0,1,,,,0,,,58,0
414320,note_off,,,,,0,0,1,,,,0,,,46,0
414320,note_off,,,,,0,0,1,,,,0,,,39,0
414320,note_off,,,,,0,0,1,,,,0,,,53,0
414320,note_off,,,,,624,0,1,,,,0,,,50,0
414720,note_on,,,,,0,0,1,,,,0,,,46,23
414720,note_on,,,,,0,0,1,,,,0,,,55,40
414720,note_on,,,,,0,0,1,,,,0,,,51,27
414720,control_change,,,,,0,0,1,,,,0,64,0,,
414720,control_change,,,,,400,0,1,,,,0,64,0,,
414720,note_on,,,,,0,0,1,,,,0,,,39,14
415744,note_off,,,,,0,0,1,,,,0,,,46,0
415744,note_off,,,,,0,0,1,,,,0,,,39,0
415744,note_off,,,,,1024,0,1,,,,0,,,51,0
415744,note_off,,,,,0,0,1,,,,0,,,55,0
416768,note_on,,,,,0,0,1,,,,0,,,46,22
416768,note_on,,,,,0,0,1,,,,0,,,39,13
416768,note_on,,,,,0,0,1,,,,0,,,55,38
416768,note_on,,,,,0,0,1,,,,0,,,51,26
416768,control_change,,,,,0,0,1,,,,0,64,0,,
416768,control_change,,,,,1024,0,1,,,,0,64,0,,
417792,note_off,,,,,0,0,1,,,,0,,,55,0
417792,note_off,,,,,1024,0,1,,,,0,,,51,0
417792,note_off,,,,,0,0,1,,,,0,,,39,0
417792,note_off,,,,,0,0,1,,,,0,,,46,0
418816,control_change,,,,,1024,0,1,,,,0,64,0,,
418816,note_on,,,,,0,0,1,,,,0,,,46,21
418816,note_on,,,,,0,0,1,,,,0,,,39,12
418816,note_on,,,,,0,0,1,,,,0,,,55,36
418816,note_on,,,,,0,0,1,,,,0,,,51,25
418816,control_change,,,,,0,0,1,,,,0,64,0,,
419840,note_off,,,,,0,0,1,,,,0,,,55,0
419840,note_off,,,,,1024,0,1,,,,0,,,51,0
419840,note_off,,,,,0,0,1,,,,0,,,39,0
419840,note_off,,,,,0,0,1,,,,0,,,46,0
420864,note_on,,,,,0,0,1,,,,0,,,55,34
420864,control_change,,,,,0,0,1,,,,0,64,0,,
420864,note_on,,,,,0,0,1,,,,0,,,46,20
420864,note_on,,,,,0,0,1,,,,0,,,39,12
420864,note_on,,,,,0,0,1,,,,0,,,51,23
420864,control_change,,,,,1024,0,1,,,,0,64,0,,
421888,note_off,,,,,0,0,1,,,,0,,,46,0
421888,note_off,,,,,0,0,1,,,,0,,,39,0
421888,note_off,,,,,0,0,1,,,,0,,,55,0
421888,note_off,,,,,1024,0,1,,,,0,,,51,0
422912,note_on,,,,,0,0,1,,,,0,,,51,22
422912,control_change,,,,,0,0,1,,,,0,64,0,,
422912,control_change,,,,,1024,0,1,,,,0,64,0,,
422912,note_on,,,,,0,0,1,,,,0,,,39,9
422912,note_on,,,,,0,0,1,,,,0,,,46,18
422912,set_tempo,,,,,19456,1,0,,375000,,,,,,
422912,note_on,,,,,0,0,1,,,,0,,,54,35
423936,note_off,,,,,1024,0,1,,,,0,,,51,0
423936,note_off,,,,,0,0,1,,,,0,,,54,0
423936,note_off,,,,,0,0,1,,,,0,,,39,0
423936,note_off,,,,,0,0,1,,,,0,,,46,0
424960,control_change,,,,,0,0,1,,,,0,64,0,,
424960,note_on,,,,,0,0,1,,,,0,,,51,19
424960,note_on,,,,,0,0,1,,,,0,,,54,31
424960,note_on,,,,,0,0,1,,,,0,,,39,7
424960,note_on,,,,,0,0,1,,,,0,,,46,16
424960,set_tempo,,,,,2048,1,0,,400000,,,,,,
424960,control_change,,,,,1024,0,1,,,,0,64,0,,
425984,note_off,,,,,0,0,1,,,,0,,,46,0
425984,note_off,,,,,0,0,1,,,,0,,,39,0
425984,note_off,,,,,0,0,1,,,,0,,,54,0
425984,note_off,,,,,1024,0,1,,,,0,,,51,0
427008,set_tempo,,,,,2048,1,0,,428571,,,,,,
427008,note_on,,,,,0,0,1,,,,0,,,54,26
427008,note_on,,,,,0,0,1,,,,0,,,52,17
427008,control_change,,,,,0,0,1,,,,0,64,0,,
427008,control_change,,,,,1024,0,1,,,,0,64,0,,
427008,note_on,,,,,0,0,1,,,,0,,,46,13
427008,note_on,,,,,0,0,1,,,,0,,,37,5
428032,note_off,,,,,1024,0,1,,,,0,,,52,0
428032,note_off,,,,,0,0,1,,,,0,,,37,0
428032,note_off,,,,,0,0,1,,,,0,,,46,0
428032,note_off,,,,,0,0,1,,,,0,,,54,0
429056,control_change,,,,,1024,0,1,,,,0,64,0,,
429056,control_change,,,,,0,0,1,,,,0,64,0,,
429056,note_on,,,,,0,0,1,,,,0,,,52,10
429056,note_on,,,,,0,0,1,,,,0,,,54,19
429056,note_on,,,,,0,0,1,,,,0,,,37,5
429056,note_on,,,,,0,0,1,,,,0,,,46,11
429056,set_tempo,,,,,2048,1,0,,600000,,,,,,
430080,note_off,,,,,0,0,1,,,,0,,,37,0
430080,set_tempo,,,,,1024,1,0,,857142,,,,,,
430080,note_off,,,,,1024,0,1,,,,0,,,52,0
430080,note_off,,,,,0,0,1,,,,0,,,54,0
430080,note_off,,,,,0,0,1,,,,0,,,46,0
430765,control_change,,,,,685,0,1,,,,0,64,127,,
430848,note_on,,,,,0,0,1,,,,0,,,47,16
430848,note_on,,,,,0,0,1,,,,0,,,42,16
430848,note_on,,,,,0,0,1,,,,0,,,35,16
430848,note_on,,,,,0,0,1,,,,0,,,66,34
430848,note_on,,,,,0,0,1,,,,0,,,63,18
430848,note_on,,,,,83,0,1,,,,0,,,54,18
431104,note_off,,,,,0,0,1,,,,0,,,35,0
431104,note_off,,,,,0,0,1,,,,0,,,66,0
431104,note_on,,,,,0,0,1,,,,0,,,42,14
431104,note_on,,,,,0,0,1,,,,0,,,35,14
431104,note_on,,,,,0,0,1,,,,0,,,66,43
431104,note_on,,,,,0,0,1,,,,0,,,63,29
431104,note_on,,,,,0,0,1,,,,0,,,54,29
431104,note_off,,,,,0,0,1,,,,0,,,47,0
431104,note_off,,,,,0,0,1,,,,0,,,42,0
431104,note_off,,,,,0,0,1,,,,0,,,63,0
431104,note_on,,,,,0,0,1,,,,0,,,47,26
431104,control_change,,,,,0,0,1,,,,0,64,127,,
431104,control_change,,,,,256,0,1,,,,0,64,0,,
431104,time_signature,2,2,48,8,1024,1,0,,,,,,,,
431104,key_signature,,,,,0,1,0,B,,,,,,,
431104,set_tempo,,,,,0,1,0,,857142,,,,,,
431104,note_off,,,,,0,0,1,,,,0,,,54,0
431206,control_change,,,,,102,0,1,,,,0,64,0,,
431358,control_change,,,,,152,0,1,,,,0,64,127,,
433152,note_off,,,,,1794,0,1,,,,0,,,63,0
433152,note_on,,,,,0,0,1,,,,0,,,59,25
433152,note_on,,,,,0,0,1,,,,0,,,51,25
433152,note_on,,,,,0,0,1,,,,0,,,63,39
433192,note_off,,,,,40,0,1,,,,0,,,54,0
433192,note_off,,,,,0,0,1,,,,0,,,66,0
433226,control_change,,,,,34,0,1,,,,0,64,0,,
433372,control_change,,,,,146,0,1,,,,0,64,127,,
433664,set_tempo,,,,,2560,1,0,,857142,,,,,,
433664,note_on,,,,,292,0,1,,,,0,,,64,35
433704,note_off,,,,,40,0,1,,,,0,,,63,0
433835,set_tempo,,,,,171,1,0,,750000,,,,,,
433835,note_on,,,,,131,0,1,,,,0,,,63,33
433863,control_change,,,,,28,0,1,,,,0,64,0,,
433875,note_off,,,,,12,0,1,,,,0,,,64,0
433998,control_change,,,,,123,0,1,,,,0,64,127,,
434005,note_on,,,,,7,0,1,,,,0,,,61,32
434176,set_tempo,,,,,341,1,0,,923076,,,,,,
434176,note_off,,,,,171,0,1,,,,0,,,63,0
434176,note_on,,,,,0,0,1,,,,0,,,63,30
434216,note_off,,,,,40,0,1,,,,0,,,61,0
434252,control_change,,,,,36,0,1,,,,0,64,0,,
434404,control_change,,,,,152,0,1,,,,0,64,127,,
434688,note_on,,,,,284,0,1,,,,0,,,52,34
434688,note_on,,,,,0,0,1,,,,0,,,61,34
434688,note_on,,,,,0,0,1,,,,0,,,64,48
434728,note_off,,,,,0,0,1,,,,0,,,59,0
434728,note_off,,,,,40,0,1,,,,0,,,51,0
434728,note_off,,,,,0,0,1,,,,0,,,63,0
434760,control_change,,,,,32,0,1,,,,0,64,0,,
434912,control_change,,,,,152,0,1,,,,0,64,127,,
435200,note_on,,,,,0,0,1,,,,0,,,35,21
435200,control_change,,,,,288,0,1,,,,0,64,0,,
435200,control_change,,,,,0,0,1,,,,0,64,127,,
435200,note_off,,,,,0,0,1,,,,0,,,64,0
435200,note_off,,,,,0,0,1,,,,0,,,35,0
435200,note_off,,,,,0,0,1,,,,0,,,42,0
435200,note_off,,,,,0,0,1,,,,0,,,47,0
435200,note_on,,,,,0,0,1,,,,0,,,56,37
435200,note_on,,,,,0,0,1,,,,0,,,64,37
435200,note_on,,,,,0,0,1,,,,0,,,68,51
435200,note_on,,,,,0,0,1,,,,0,,,47,33
435200,set_tempo,,,,,1024,1,0,,1090909,,,,,,
435240,note_off,,,,,0,0,1,,,,0,,,61,0
435240,note_off,,,,,40,0,1,,,,0,,,52,0
435302,control_change,,,,,62,0,1,,,,0,64,0,,
435403,control_change,,,,,101,0,1,,,,0,64,127,,
435968,note_off,,,,,565,0,1,,,,0,,,56,0
435968,note_off,,,,,0,0,1,,,,0,,,64,0
435968,note_off,,,,,0,0,1,,,,0,,,68,0
435968,note_on,,,,,0,0,1,,,,0,,,54,29
435968,note_on,,,,,0,0,1,,,,0,,,63,29
435968,note_on,,,,,0,0,1,,,,0,,,66,43
436224,note_on,,,,,0,0,1,,,,0,,,63,28
436224,note_on,,,,,0,0,1,,,,0,,,66,42
436224,note_on,,,,,0,0,1,,,,0,,,54,28
436224,set_tempo,,,,,1024,1,0,,1000000,,,,,,
436224,note_off,,,,,0,0,1,,,,0,,,63,0
436224,note_off,,,,,256,0,1,,,,0,,,54,0
436224,note_off,,,,,0,0,1,,,,0,,,66,0
436317,control_change,,,,,93,0,1,,,,0,64,0,,
436571,control_change,,,,,254,0,1,,,,0,64,127,,
437760,note_on,,,,,0,0,1,,,,0,,,66,40
437760,note_on,,,,,0,0,1,,,,0,,,54,32
437760,note_on,,,,,0,0,1,,,,0,,,63,30
437760,note_off,,,,,0,0,1,,,,0,,,63,0
437760,note_off,,,,,1189,0,1,,,,0,,,54,0
437760,note_off,,,,,0,0,1,,,,0,,,66,0
437760,set_tempo,,,,,1536,1,0,,1000000,,,,,,
438272,note_off,,,,,512,0,1,,,,0,,,54,0
438272,note_off,,,,,0,0,1,,,,0,,,63,0
438272,note_off,,,,,0,0,1,,,,0,,,66,0
438272,note_on,,,,,0,0,1,,,,0,,,52,38
438272,note_on,,,,,0,0,1,,,,0,,,64,47
438272,note_on,,,,,0,0,1,,,,0,,,61,35
438272,set_tempo,,,,,512,1,0,,857142,,,,,,
438297,control_change,,,,,25,0,1,,,,0,64,0,,
438500,control_change,,,,,203,0,1,,,,0,64,127,,
438784,note_off,,,,,284,0,1,,,,0,,,52,0
438784,note_off,,,,,0,0,1,,,,0,,,64,0
438784,note_on,,,,,0,0,1,,,,0,,,51,35
438784,note_on,,,,,0,0,1,,,,0,,,59,32
438784,note_on,,,,,0,0,1,,,,0,,,63,44
438784,set_tempo,,,,,512,1,0,,1090909,,,,,,
438784,note_off,,,,,0,0,1,,,,0,,,61,0
438873,control_change,,,,,89,0,1,,,,0,64,0,,
439042,control_change,,,,,169,0,1,,,,0,64,127,,
439296,control_change,,,,,254,0,1,,,,0,64,0,,
439296,set_tempo,,,,,512,1,0,,1000000,,,,,,
439296,note_off,,,,,0,0,1,,,,0,,,63,0
439296,note_off,,,,,0,0,1,,,,0,,,35,0
439296,note_off,,,,,0,0,1,,,,0,,,47,0
439296,note_on,,,,,0,0,1,,,,0,,,52,34
439296,note_on,,,,,0,0,1,,,,0,,,61,34
439296,note_on,,,,,0,0,1,,,,0,,,64,48
439296,note_on,,,,,0,0,1,,,,0,,,34,11
439296,note_on,,,,,0,0,1,,,,0,,,42,11
439296,note_on,,,,,0,0,1,,,,0,,,46,23
439296,note_off,,,,,0,0,1,,,,0,,,59,0
439296,control_change,,,,,0,0,1,,,,0,64,127,,
439296,note_off,,,,,0,0,1,,,,0,,,51,0
439431,control_change,,,,,135,0,1,,,,0,64,0,,
439651,control_change,,,,,220,0,1,,,,0,64,127,,
440120,note_on,,,,,469,0,1,,,,0,,,64,26
440220,note_on,,,,,100,0,1,,,,0,,,73,26
440320,set_tempo,,,,,1024,1,0,,857142,,,,,,
440320,note_on,,,,,100,0,1,,,,0,,,76,40
441344,note_off,,,,,0,0,1,,,,0,,,76,0
441344,note_off,,,,,1024,0,1,,,,0,,,52,0
441344,note_off,,,,,0,0,1,,,,0,,,61,0
441344,note_off,,,,,0,0,1,,,,0,,,64,0
441344,note_off,,,,,0,0,1,,,,0,,,64,0
441344,note_off,,,,,0,0,1,,,,0,,,73,0
441344,note_off,,,,,0,0,1,,,,0,,,34,0
441344,note_off,,,,,0,0,1,,,,0,,,42,0
441344,note_off,,,,,0,0,1,,,,0,,,46,0
441344,note_on,,,,,0,0,1,,,,0,,,30,10
441344,note_on,,,,,0,0,1,,,,0,,,42,22
441856,note_on,,,,,512,0,1,,,,0,,,52,29
441856,note_on,,,,,0,0,1,,,,0,,,61,26
441856,set_tempo,,,,,1536,1,0,,923076,,,,,,
441856,note_on,,,,,0,0,1,,,,0,,,64,38
442368,note_off,,,,,0,0,1,,,,0,,,61,0
442368,note_on,,,,,0,0,1,,,,0,,,51,33
442368,note_on,,,,,0,0,1,,,,0,,,59,30
442368,note_on,,,,,0,0,1,,,,0,,,63,42
442368,note_off,,,,,0,0,1,,,,0,,,64,0
442368,note_off,,,,,512,0,1,,,,0,,,52,0
442427,control_change,,,,,59,0,1,,,,0,64,0,,
442596,control_change,,,,,169,0,1,,,,0,64,127,,
442880,set_tempo,,,,,1024,1,0,,1000000,,,,,,
442880,note_off,,,,,284,0,1,,,,0,,,51,0
442880,note_on,,,,,0,0,1,,,,0,,,49,31
442880,note_on,,,,,0,0,1,,,,0,,,58,28
442880,note_on,,,,,0,0,1,,,,0,,,61,40
442880,note_off,,,,,0,0,1,,,,0,,,63,0
442880,note_off,,,,,0,0,1,,,,0,,,59,0
442986,control_change,,,,,106,0,1,,,,0,64,0,,
443189,control_change,,,,,203,0,1,,,,0,64,127,,
443392,note_off,,,,,0,0,1,,,,0,,,42,0
443392,note_off,,,,,0,0,1,,,,0,,,30,0
443392,note_off,,,,,0,0,1,,,,0,,,58,0
443392,note_on,,,,,0,0,1,,,,0,,,59,23
443392,control_change,,,,,0,0,1,,,,0,64,127,,
443392,control_change,,,,,203,0,1,,,,0,64,0,,
443392,note_on,,,,,0,0,1,,,,0,,,63,37
443392,note_on,,,,,0,0,1,,,,0,,,35,9
443392,note_on,,,,,0,0,1,,,,0,,,42,9
443392,note_on,,,,,0,0,1,,,,0,,,47,21
443392,note_on,,,,,0,0,1,,,,0,,,51,23
443392,note_off,,,,,0,0,1,,,,0,,,49,0
443392,note_off,,,,,0,0,1,,,,0,,,61,0
443392,set_tempo,,,,,512,1,0,,1200000,,,,,,
443494,control_change,,,,,102,0,1,,,,0,64,0,,
443697,control_change,,,,,203,0,1,,,,0,64,127,,
444216,note_on,,,,,519,0,1,,,,0,,,63,22
444316,note_on,,,,,100,0,1,,,,0,,,71,14
444374,note_off,,,,,58,0,1,,,,0,,,63,0
444416,note_on,,,,,42,0,1,,,,0,,,75,28
445440,note_off,,,,,0,0,1,,,,0,,,75,0
445440,note_off,,,,,1024,0,1,,,,0,,,71,0
445440,set_tempo,,,,,2048,1,0,,857142,,,,,,
446464,note_off,,,,,0,0,1,,,,0,,,63,0
446464,note_off,,,,,1024,0,1,,,,0,,,51,0
446464,note_off,,,,,0,0,1,,,,0,,,59,0
446506,control_change,,,,,42,0,1,,,,0,64,0,,
446794,control_change,,,,,288,0,1,,,,0,64,127,,
447232,note_on,,,,,438,0,1,,,,0,,,54,35
447232,note_on,,,,,0,0,1,,,,0,,,66,47
447232,note_on,,,,,0,0,1,,,,0,,,63,35
447488,control_change,,,,,256,0,1,,,,0,64,0,,
447488,control_change,,,,,0,0,1,,,,0,64,127,,
447488,note_off,,,,,0,0,1,,,,0,,,54,0
447488,note_off,,,,,0,0,1,,,,0,,,63,0
447488,note_off,,,,,0,0,1,,,,0,,,66,0
447488,note_off,,,,,0,0,1,,,,0,,,42,0
447488,note_off,,,,,0,0,1,,,,0,,,47,0
447488,note_on,,,,,0,0,1,,,,0,,,54,34
447488,note_on,,,,,0,0,1,,,,0,,,63,34
447488,note_on,,,,,0,0,1,,,,0,,,66,48
447488,note_on,,,,,0,0,1,,,,0,,,35,21
447488,note_on,,,,,0,0,1,,,,0,,,42,21
447488,note_on,,,,,0,0,1,,,,0,,,47,33
447488,note_off,,,,,0,0,1,,,,0,,,35,0
447488,set_tempo,,,,,2048,1,0,,857142,,,,,,
447590,control_change,,,,,102,0,1,,,,0,64,0,,
447742,control_change,,,,,152,0,1,,,,0,64,127,,
449536,note_on,,,,,0,0,1,,,,0,,,59,25
449536,note_on,,,,,0,0,1,,,,0,,,51,25
449536,note_on,,,,,0,0,1,,,,0,,,63,39
449536,note_off,,,,,1794,0,1,,,,0,,,63,0
449576,note_off,,,,,0,0,1,,,,0,,,66,0
449576,note_off,,,,,40,0,1,,,,0,,,54,0
449610,control_change,,,,,34,0,1,,,,0,64,0,,
449756,control_change,,,,,146,0,1,,,,0,64,127,,
450048,note_on,,,,,292,0,1,,,,0,,,64,35
450048,set_tempo,,,,,2560,1,0,,857142,,,,,,
450088,note_off,,,,,40,0,1,,,,0,,,63,0
450219,note_on,,,,,131,0,1,,,,0,,,63,33
450219,set_tempo,,,,,171,1,0,,750000,,,,,,
450247,control_change,,,,,28,0,1,,,,0,64,0,,
450259,note_off,,,,,12,0,1,,,,0,,,64,0
450382,control_change,,,,,123,0,1,,,,0,64,127,,
450389,note_on,,,,,7,0,1,,,,0,,,61,32
450560,set_tempo,,,,,341,1,0,,923076,,,,,,
450560,note_off,,,,,171,0,1,,,,0,,,63,0
450560,note_on,,,,,0,0,1,,,,0,,,63,30
450600,note_off,,,,,40,0,1,,,,0,,,61,0
450636,control_change,,,,,36,0,1,,,,0,64,0,,
450788,control_change,,,,,152,0,1,,,,0,64,127,,
451072,note_on,,,,,284,0,1,,,,0,,,52,34
451072,note_on,,,,,0,0,1,,,,0,,,64,48
451072,set_tempo,,,,,512,1,0,,1090909,,,,,,
451072,note_on,,,,,0,0,1,,,,0,,,61,34
451112,note_off,,,,,40,0,1,,,,0,,,51,0
451112,note_off,,,,,0,0,1,,,,0,,,59,0
451112,note_off,,,,,0,0,1,,,,0,,,63,0
451144,control_change,,,,,32,0,1,,,,0,64,0,,
451296,control_change,,,,,152,0,1,,,,0,64,127,,
451584,control_change,,,,,288,0,1,,,,0,64,0,,
451584,control_change,,,,,0,0,1,,,,0,64,0,,
451584,control_change,,,,,0,0,1,,,,0,64,0,,
451584,note_off,,,,,0,0,1,,,,0,,,35,0
451584,note_off,,,,,0,0,1,,,,0,,,42,0
451584,note_off,,,,,0,0,1,,,,0,,,47,0
451584,note_on,,,,,0,0,1,,,,0,,,56,37
451584,note_on,,,,,0,0,1,,,,0,,,64,37
451584,control_change,,,,,0,0,1,,,,0,64,127,,
451584,note_on,,,,,0,0,1,,,,0,,,68,51
451584,note_on,,,,,0,0,1,,,,0,,,35,21
451584,note_off,,,,,0,0,1,,,,0,,,64,0
451584,note_on,,,,,0,0,1,,,,0,,,47,33
451624,note_off,,,,,0,0,1,,,,0,,,61,0
451624,note_off,,,,,40,0,1,,,,0,,,52,0
451686,control_change,,,,,62,0,1,,,,0,64,0,,
451787,control_change,,,,,101,0,1,,,,0,64,127,,
452352,note_on,,,,,0,0,1,,,,0,,,54,29
452352,set_tempo,,,,,1280,1,0,,1000000,,,,,,
452352,note_off,,,,,565,0,1,,,,0,,,56,0
452352,note_on,,,,,0,0,1,,,,0,,,66,43
452352,note_on,,,,,0,0,1,,,,0,,,63,29
452352,note_off,,,,,0,0,1,,,,0,,,68,0
452352,note_off,,,,,0,0,1,,,,0,,,64,0
452608,set_tempo,,,,,256,1,0,,857142,,,,,,
452608,note_on,,,,,0,0,1,,,,0,,,66,42
452608,note_on,,,,,0,0,1,,,,0,,,63,28
452608,note_on,,,,,0,0,1,,,,0,,,54,28
452608,note_off,,,,,0,0,1,,,,0,,,66,0
452608,note_off,,,,,0,0,1,,,,0,,,63,0
452608,note_off,,,,,256,0,1,,,,0,,,54,0
452701,control_change,,,,,93,0,1,,,,0,64,0,,
452955,control_change,,,,,254,0,1,,,,0,64,127,,
454128,control_change,,,,,1173,0,1,,,,0,64,127,,
455424,note_off,,,,,0,0,1,,,,0,,,66,0
455424,note_on,,,,,0,0,1,,,,0,,,66,44
455424,note_off,,,,,0,0,1,,,,0,,,63,0
455424,note_off,,,,,1296,0,1,,,,0,,,54,0
455424,set_tempo,,,,,2816,1,0,,1000000,,,,,,
455424,note_on,,,,,0,0,1,,,,0,,,54,31
455424,note_on,,,,,0,0,1,,,,0,,,63,31
455680,note_on,,,,,0,0,1,,,,0,,,44,13
455680,control_change,,,,,256,0,1,,,,0,64,0,,
455680,note_off,,,,,0,0,1,,,,0,,,66,0
455680,note_off,,,,,0,0,1,,,,0,,,35,0
455680,note_off,,,,,0,0,1,,,,0,,,47,0
455680,note_on,,,,,0,0,1,,,,0,,,56,34
455680,note_on,,,,,0,0,1,,,,0,,,64,34
455680,note_off,,,,,0,0,1,,,,0,,,54,0
455680,control_change,,,,,0,0,1,,,,0,64,127,,
455680,note_off,,,,,0,0,1,,,,0,,,63,0
455680,note_on,,,,,0,0,1,,,,0,,,47,25
455680,set_tempo,,,,,256,1,0,,857142,,,,,,
455680,note_on,,,,,0,0,1,,,,0,,,68,49
455680,note_on,,,,,0,0,1,,,,0,,,35,13
455931,control_change,,,,,251,0,1,,,,0,64,0,,
456391,control_change,,,,,460,0,1,,,,0,64,127,,
457728,note_off,,,,,1337,0,1,,,,0,,,56,0
457728,note_off,,,,,0,0,1,,,,0,,,64,0
457728,note_off,,,,,0,0,1,,,,0,,,68,0
457728,note_on,,,,,0,0,1,,,,0,,,64,36
457728,note_on,,,,,0,0,1,,,,0,,,68,50
457728,note_on,,,,,0,0,1,,,,0,,,56,36
457728,set_tempo,,,,,2048,1,0,,1200000,,,,,,
458496,set_tempo,,,,,768,1,0,,923076,,,,,,
458496,note_on,,,,,0,0,1,,,,0,,,70,50
458496,note_on,,,,,0,0,1,,,,0,,,66,36
458496,note_off,,,,,768,0,1,,,,0,,,56,0
458496,note_off,,,,,0,0,1,,,,0,,,64,0
458496,note_off,,,,,0,0,1,,,,0,,,68,0
458496,note_on,,,,,0,0,1,,,,0,,,58,36
458752,note_off,,,,,256,0,1,,,,0,,,58,0
458752,note_off,,,,,0,0,1,,,,0,,,66,0
458752,note_off,,,,,0,0,1,,,,0,,,70,0
458752,note_on,,,,,0,0,1,,,,0,,,59,41
458752,note_on,,,,,0,0,1,,,,0,,,68,41
458752,note_on,,,,,0,0,1,,,,0,,,71,56
458752,set_tempo,,,,,256,1,0,,857142,,,,,,
458815,control_change,,,,,63,0,1,,,,0,64,0,,
459233,control_change,,,,,418,0,1,,,,0,64,127,,
459520,note_on,,,,,0,0,1,,,,0,,,70,45
459520,note_on,,,,,0,0,1,,,,0,,,61,45
459520,note_off,,,,,0,0,1,,,,0,,,71,0
459520,note_off,,,,,0,0,1,,,,0,,,68,0
459520,note_off,,,,,287,0,1,,,,0,,,59,0
459520,note_on,,,,,0,0,1,,,,0,,,73,61
459776,note_off,,,,,0,0,1,,,,0,,,73,0
459776,note_on,,,,,0,0,1,,,,0,,,42,24
459776,note_on,,,,,0,0,1,,,,0,,,35,24
459776,note_on,,,,,0,0,1,,,,0,,,75,67
459776,set_tempo,,,,,1024,1,0,,1000000,,,,,,
459776,note_on,,,,,0,0,1,,,,0,,,47,36
459776,control_change,,,,,256,0,1,,,,0,64,0,,
459776,control_change,,,,,0,0,1,,,,0,64,127,,
459776,note_off,,,,,0,0,1,,,,0,,,61,0
459776,note_off,,,,,0,0,1,,,,0,,,70,0
459776,note_on,,,,,0,0,1,,,,0,,,71,52
459776,note_off,,,,,0,0,1,,,,0,,,35,0
459776,note_off,,,,,0,0,1,,,,0,,,44,0
459776,note_off,,,,,0,0,1,,,,0,,,47,0
459776,note_on,,,,,0,0,1,,,,0,,,63,52
459985,control_change,,,,,209,0,1,,,,0,64,0,,
460288,note_off,,,,,0,0,1,,,,0,,,71,0
460288,note_off,,,,,0,0,1,,,,0,,,75,0
460288,note_off,,,,,303,0,1,,,,0,,,63,0
460800,note_on,,,,,512,0,1,,,,0,,,66,55
460800,note_on,,,,,0,0,1,,,,0,,,78,71
460800,note_on,,,,,0,0,1,,,,0,,,75,55
460800,set_tempo,,,,,1024,1,0,,857142,,,,,,
461030,control_change,,,,,230,0,1,,,,0,64,127,,
462848,set_tempo,,,,,2048,1,0,,923076,,,,,,
462848,note_off,,,,,1818,0,1,,,,0,,,66,0
462848,note_off,,,,,0,0,1,,,,0,,,75,0
462848,note_off,,,,,0,0,1,,,,0,,,78,0
462848,note_on,,,,,0,0,1,,,,0,,,66,56
462848,note_on,,,,,0,0,1,,,,0,,,75,56
462848,note_on,,,,,0,0,1,,,,0,,,78,70
463360,note_on,,,,,0,0,1,,,,0,,,80,72
463360,note_on,,,,,0,0,1,,,,0,,,77,58
463360,note_on,,,,,0,0,1,,,,0,,,68,58
463360,note_off,,,,,0,0,1,,,,0,,,78,0
463360,note_off,,,,,512,0,1,,,,0,,,66,0
463360,set_tempo,,,,,512,1,0,,1090909,,,,,,
463360,note_off,,,,,0,0,1,,,,0,,,75,0
463454,control_change,,,,,94,0,1,,,,0,64,0,,
463663,control_change,,,,,209,0,1,,,,0,64,127,,
463872,note_off,,,,,0,0,1,,,,0,,,47,0
463872,note_on,,,,,0,0,1,,,,0,,,42,28
463872,note_on,,,,,0,0,1,,,,0,,,34,28
463872,note_on,,,,,0,0,1,,,,0,,,82,74
463872,note_on,,,,,0,0,1,,,,0,,,78,60
463872,note_on,,,,,0,0,1,,,,0,,,70,60
463872,note_on,,,,,0,0,1,,,,0,,,46,40
463872,note_off,,,,,0,0,1,,,,0,,,42,0
463872,note_off,,,,,0,0,1,,,,0,,,77,0
463872,note_off,,,,,0,0,1,,,,0,,,80,0
463872,note_off,,,,,0,0,1,,,,0,,,68,0
463872,control_change,,,,,0,0,1,,,,0,64,127,,
463872,control_change,,,,,209,0,1,,,,0,64,0,,
463872,note_off,,,,,0,0,1,,,,0,,,35,0
464123,control_change,,,,,251,0,1,,,,0,64,0,,
464474,note_off,,,,,351,0,1,,,,0,,,34,0
464474,note_off,,,,,0,0,1,,,,0,,,42,0
464474,note_off,,,,,0,0,1,,,,0,,,46,0
464499,control_change,,,,,25,0,1,,,,0,64,127,,
464896,note_on,,,,,0,0,1,,,,0,,,54,38
464896,note_on,,,,,397,0,1,,,,0,,,46,38
464896,note_on,,,,,0,0,1,,,,0,,,58,52
464896,set_tempo,,,,,1536,1,0,,1000000,,,,,,
465408,note_off,,,,,512,0,1,,,,0,,,70,0
465408,note_off,,,,,0,0,1,,,,0,,,78,0
465408,note_off,,,,,0,0,1,,,,0,,,82,0
465408,note_on,,,,,0,0,1,,,,0,,,68,48
465408,note_on,,,,,0,0,1,,,,0,,,77,48
465408,note_on,,,,,0,0,1,,,,0,,,80,62
465664,note_on,,,,,0,0,1,,,,0,,,78,62
465664,note_on,,,,,0,0,1,,,,0,,,75,48
465664,note_on,,,,,0,0,1,,,,0,,,66,48
465664,note_off,,,,,256,0,1,,,,0,,,68,0
465664,note_off,,,,,0,0,1,,,,0,,,77,0
465664,note_off,,,,,0,0,1,,,,0,,,80,0
465920,note_on,,,,,0,0,1,,,,0,,,75,54
465920,note_on,,,,,0,0,1,,,,0,,,66,54
465920,note_on,,,,,0,0,1,,,,0,,,78,68
465920,note_off,,,,,0,0,1,,,,0,,,78,0
465920,control_change,,,,,256,0,1,,,,0,64,0,,
465920,note_off,,,,,0,0,1,,,,0,,,66,0
465920,note_off,,,,,0,0,1,,,,0,,,75,0
466296,control_change,,,,,376,0,1,,,,0,64,127,,
466944,note_on,,,,,0,0,1,,,,0,,,58,40
466944,note_on,,,,,0,0,1,,,,0,,,56,26
466944,note_on,,,,,0,0,1,,,,0,,,46,26
466944,note_on,,,,,0,0,1,,,,0,,,74,44
466944,note_on,,,,,0,0,1,,,,0,,,65,44
466944,note_off,,,,,0,0,1,,,,0,,,58,0
466944,note_on,,,,,0,0,1,,,,0,,,77,58
466944,note_off,,,,,0,0,1,,,,0,,,46,0
466944,note_off,,,,,0,0,1,,,,0,,,78,0
466944,note_off,,,,,0,0,1,,,,0,,,75,0
466944,note_off,,,,,648,0,1,,,,0,,,66,0
466944,set_tempo,,,,,2048,1,0,,1276595,,,,,,
466944,note_off,,,,,0,0,1,,,,0,,,54,0
467090,control_change,,,,,146,0,1,,,,0,64,0,,
467508,control_change,,,,,418,0,1,,,,0,64,127,,
467968,note_on,,,,,0,0,1,,,,0,,,70,44
467968,note_on,,,,,0,0,1,,,,0,,,46,26
467968,note_on,,,,,0,0,1,,,,0,,,34,14
467968,note_on,,,,,0,0,1,,,,0,,,82,57
467968,note_on,,,,,0,0,1,,,,0,,,78,44
467968,note_on,,,,,0,0,1,,,,0,,,73,44
467968,note_off,,,,,0,0,1,,,,0,,,58,0
467968,set_tempo,,,,,1024,1,0,,1000000,,,,,,
467968,note_off,,,,,0,0,1,,,,0,,,46,0
467968,control_change,,,,,460,0,1,,,,0,64,0,,
467968,control_change,,,,,0,0,1,,,,0,64,127,,
467968,control_change,,,,,0,0,1,,,,0,64,0,,
467968,note_off,,,,,0,0,1,,,,0,,,56,0
467968,note_off,,,,,0,0,1,,,,0,,,74,0
467968,note_off,,,,,0,0,1,,,,0,,,77,0
467968,note_off,,,,,0,0,1,,,,0,,,65,0
468219,control_change,,,,,251,0,1,,,,0,64,0,,
468570,note_off,,,,,351,0,1,,,,0,,,34,0
468570,note_off,,,,,0,0,1,,,,0,,,46,0
468595,control_change,,,,,25,0,1,,,,0,64,127,,
468992,note_on,,,,,397,0,1,,,,0,,,49,24
468992,note_on,,,,,0,0,1,,,,0,,,54,24
468992,note_on,,,,,0,0,1,,,,0,,,58,24
468992,note_on,,,,,0,0,1,,,,0,,,61,36
469504,note_on,,,,,0,0,1,,,,0,,,68,30
469504,note_on,,,,,0,0,1,,,,0,,,80,44
469504,note_on,,,,,0,0,1,,,,0,,,73,30
469504,note_off,,,,,0,0,1,,,,0,,,82,0
469504,note_off,,,,,0,0,1,,,,0,,,78,0
469504,note_off,,,,,0,0,1,,,,0,,,73,0
469504,note_off,,,,,512,0,1,,,,0,,,70,0
469760,note_on,,,,,0,0,1,,,,0,,,73,30
469760,note_on,,,,,0,0,1,,,,0,,,66,30
469760,note_off,,,,,0,0,1,,,,0,,,80,0
469760,note_on,,,,,0,0,1,,,,0,,,78,44
469760,note_off,,,,,256,0,1,,,,0,,,68,0
469760,note_off,,,,,0,0,1,,,,0,,,73,0
470016,set_tempo,,,,,2048,1,0,,1090909,,,,,,
470016,note_on,,,,,0,0,1,,,,0,,,78,49
470016,note_on,,,,,0,0,1,,,,0,,,73,28
470016,note_on,,,,,0,0,1,,,,0,,,66,28
470016,note_off,,,,,0,0,1,,,,0,,,78,0
470016,note_off,,,,,0,0,1,,,,0,,,73,0
470016,note_off,,,,,0,0,1,,,,0,,,66,0
470016,control_change,,,,,256,0,1,,,,0,64,0,,
470392,control_change,,,,,376,0,1,,,,0,64,127,,
471040,note_on,,,,,0,0,1,,,,0,,,68,22
471040,note_off,,,,,0,0,1,,,,0,,,73,0
471040,note_off,,,,,648,0,1,,,,0,,,66,0
471040,note_on,,,,,0,0,1,,,,0,,,61,26
471040,note_on,,,,,0,0,1,,,,0,,,59,12
471040,note_on,,,,,0,0,1,,,,0,,,49,12
471040,note_on,,,,,0,0,1,,,,0,,,77,42
471040,note_on,,,,,0,0,1,,,,0,,,73,22
471040,note_off,,,,,0,0,1,,,,0,,,61,0
471040,note_off,,,,,0,0,1,,,,0,,,58,0
471040,note_off,,,,,0,0,1,,,,0,,,54,0
471040,note_off,,,,,0,0,1,,,,0,,,49,0
471040,note_on,,,,,0,0,1,,,,0,,,65,22
471040,note_off,,,,,0,0,1,,,,0,,,78,0
471186,control_change,,,,,146,0,1,,,,0,64,0,,
471604,control_change,,,,,418,0,1,,,,0,64,127,,
472064,note_on,,,,,0,0,1,,,,0,,,61,22
472064,note_on,,,,,0,0,1,,,,0,,,58,10
472064,note_on,,,,,0,0,1,,,,0,,,54,10
472064,note_on,,,,,0,0,1,,,,0,,,78,42
472064,note_on,,,,,0,0,1,,,,0,,,73,24
472064,note_on,,,,,0,0,1,,,,0,,,70,24
472064,note_on,,,,,0,0,1,,,,0,,,66,24
472064,set_tempo,,,,,2048,1,0,,923076,,,,,,
472064,note_off,,,,,0,0,1,,,,0,,,59,0
472064,control_change,,,,,460,0,1,,,,0,64,0,,
472064,control_change,,,,,0,0,1,,,,0,64,127,,
472064,note_off,,,,,0,0,1,,,,0,,,65,0
472064,note_off,,,,,0,0,1,,,,0,,,61,0
472064,note_off,,,,,0,0,1,,,,0,,,73,0
472064,note_off,,,,,0,0,1,,,,0,,,49,0
472064,note_off,,,,,0,0,1,,,,0,,,77,0
472064,note_off,,,,,0,0,1,,,,0,,,68,0
472287,control_change,,,,,223,0,1,,,,0,64,0,,
472623,control_change,,,,,336,0,1,,,,0,64,127,,
473600,note_on,,,,,977,0,1,,,,0,,,65,16
473600,note_on,,,,,0,0,1,,,,0,,,77,38
473600,set_tempo,,,,,1536,1,0,,1000000,,,,,,
473640,note_off,,,,,40,0,1,,,,0,,,66,0
473640,note_off,,,,,0,0,1,,,,0,,,70,0
473640,note_off,,,,,0,0,1,,,,0,,,73,0
473640,note_off,,,,,0,0,1,,,,0,,,78,0
474112,set_tempo,,,,,512,1,0,,1200000,,,,,,
474112,note_off,,,,,0,0,1,,,,0,,,61,0
474112,note_off,,,,,0,0,1,,,,0,,,58,0
474112,control_change,,,,,472,0,1,,,,0,64,0,,
474112,note_on,,,,,0,0,1,,,,0,,,64,21
474112,note_on,,,,,0,0,1,,,,0,,,76,43
474112,note_off,,,,,0,0,1,,,,0,,,54,0
474152,note_off,,,,,40,0,1,,,,0,,,65,0
474152,note_off,,,,,0,0,1,,,,0,,,77,0
474624,set_tempo,,,,,512,1,0,,1000000,,,,,,
474624,note_on,,,,,472,0,1,,,,0,,,61,19
474624,note_on,,,,,0,0,1,,,,0,,,73,41
474664,note_off,,,,,0,0,1,,,,0,,,76,0
474664,note_off,,,,,40,0,1,,,,0,,,64,0
475136,note_on,,,,,0,0,1,,,,0,,,70,39
475136,note_on,,,,,472,0,1,,,,0,,,58,17
475136,set_tempo,,,,,512,1,0,,1090909,,,,,,
475176,note_off,,,,,40,0,1,,,,0,,,61,0
475176,note_off,,,,,0,0,1,,,,0,,,73,0
475648,set_tempo,,,,,512,1,0,,1333333,,,,,,
475648,note_on,,,,,472,0,1,,,,0,,,56,15
475648,note_on,,,,,0,0,1,,,,0,,,68,37
475688,note_off,,,,,0,0,1,,,,0,,,70,0
475688,note_off,,,,,40,0,1,,,,0,,,58,0
476160,note_on,,,,,0,0,1,,,,0,,,35,14
476160,control_change,,,,,472,0,1,,,,0,64,0,,
476160,control_change,,,,,0,0,1,,,,0,64,127,,
476160,note_on,,,,,0,0,1,,,,0,,,54,29
476160,note_on,,,,,0,0,1,,,,0,,,63,29
476160,note_on,,,,,0,0,1,,,,0,,,66,43
476160,set_tempo,,,,,512,1,0,,857142,,,,,,
476160,note_on,,,,,0,0,1,,,,0,,,42,14
476160,note_on,,,,,0,0,1,,,,0,,,47,26
476200,note_off,,,,,40,0,1,,,,0,,,56,0
476200,note_off,,,,,0,0,1,,,,0,,,68,0
476262,control_change,,,,,62,0,1,,,,0,64,0,,
476414,control_change,,,,,152,0,1,,,,0,64,127,,
478208,note_on,,,,,0,0,1,,,,0,,,51,25
478208,note_on,,,,,0,0,1,,,,0,,,63,39
478208,note_off,,,,,1794,0,1,,,,0,,,63,0
478208,note_on,,,,,0,0,1,,,,0,,,59,25
478248,note_off,,,,,40,0,1,,,,0,,,54,0
478248,note_off,,,,,0,0,1,,,,0,,,66,0
478282,control_change,,,,,34,0,1,,,,0,64,0,,
478428,control_change,,,,,146,0,1,,,,0,64,127,,
478720,set_tempo,,,,,2560,1,0,,857142,,,,,,
478720,note_on,,,,,292,0,1,,,,0,,,64,35
478760,note_off,,,,,40,0,1,,,,0,,,63,0
478891,note_on,,,,,131,0,1,,,,0,,,63,33
478891,set_tempo,,,,,171,1,0,,750000,,,,,,
478919,control_change,,,,,28,0,1,,,,0,64,0,,
478931,note_off,,,,,12,0,1,,,,0,,,64,0
479054,control_change,,,,,123,0,1,,,,0,64,127,,
479061,note_on,,,,,7,0,1,,,,0,,,61,32
479232,note_on,,,,,0,0,1,,,,0,,,63,30
479232,note_off,,,,,171,0,1,,,,0,,,63,0
479232,set_tempo,,,,,341,1,0,,923076,,,,,,
479272,note_off,,,,,40,0,1,,,,0,,,61,0
479308,control_change,,,,,36,0,1,,,,0,64,0,,
479460,control_change,,,,,152,0,1,,,,0,64,127,,
479744,note_on,,,,,0,0,1,,,,0,,,64,48
479744,note_on,,,,,284,0,1,,,,0,,,52,34
479744,note_on,,,,,0,0,1,,,,0,,,61,34
479784,note_off,,,,,0,0,1,,,,0,,,63,0
479784,note_off,,,,,0,0,1,,,,0,,,59,0
479784,note_off,,,,,40,0,1,,,,0,,,51,0
479816,control_change,,,,,32,0,1,,,,0,64,0,,
479968,control_change,,,,,152,0,1,,,,0,64,127,,
480256,note_on,,,,,0,0,1,,,,0,,,35,21
480256,note_on,,,,,0,0,1,,,,0,,,64,37
480256,note_on,,,,,0,0,1,,,,0,,,56,37
480256,note_off,,,,,0,0,1,,,,0,,,47,0
480256,note_off,,,,,0,0,1,,,,0,,,42,0
480256,note_off,,,,,0,0,1,,,,0,,,35,0
480256,note_off,,,,,0,0,1,,,,0,,,64,0
480256,control_change,,,,,0,0,1,,,,0,64,127,,
480256,control_change,,,,,288,0,1,,,,0,64,0,,
480256,set_tempo,,,,,1024,1,0,,1090909,,,,,,
480256,note_on,,,,,0,0,1,,,,0,,,47,33
480256,note_on,,,,,0,0,1,,,,0,,,68,51
480296,note_off,,,,,40,0,1,,,,0,,,52,0
480296,note_off,,,,,0,0,1,,,,0,,,61,0
480358,control_change,,,,,62,0,1,,,,0,64,0,,
480459,control_change,,,,,101,0,1,,,,0,64,127,,
481024,note_on,,,,,0,0,1,,,,0,,,66,43
481024,note_on,,,,,0,0,1,,,,0,,,63,29
481024,note_on,,,,,0,0,1,,,,0,,,54,29
481024,note_off,,,,,0,0,1,,,,0,,,68,0
481024,note_off,,,,,0,0,1,,,,0,,,64,0
481024,note_off,,,,,565,0,1,,,,0,,,56,0
481280,set_tempo,,,,,1024,1,0,,1000000,,,,,,
481280,note_off,,,,,256,0,1,,,,0,,,54,0
481280,note_on,,,,,0,0,1,,,,0,,,54,28
481280,note_off,,,,,0,0,1,,,,0,,,66,0
481280,note_on,,,,,0,0,1,,,,0,,,63,28
481280,note_on,,,,,0,0,1,,,,0,,,66,42
481280,note_off,,,,,0,0,1,,,,0,,,63,0
481373,control_change,,,,,93,0,1,,,,0,64,0,,
481627,control_change,,,,,254,0,1,,,,0,64,127,,
482816,note_on,,,,,0,0,1,,,,0,,,66,40
482816,note_on,,,,,0,0,1,,,,0,,,63,30
482816,note_on,,,,,0,0,1,,,,0,,,54,32
482816,note_off,,,,,0,0,1,,,,0,,,66,0
482816,note_off,,,,,0,0,1,,,,0,,,63,0
482816,note_off,,,,,1189,0,1,,,,0,,,54,0
482816,set_tempo,,,,,1536,1,0,,1000000,,,,,,
483328,set_tempo,,,,,512,1,0,,857142,,,,,,
483328,note_on,,,,,0,0,1,,,,0,,,52,38
483328,note_on,,,,,0,0,1,,,,0,,,64,47
483328,note_on,,,,,0,0,1,,,,0,,,61,35
483328,note_off,,,,,0,0,1,,,,0,,,66,0
483328,note_off,,,,,0,0,1,,,,0,,,63,0
483328,note_off,,,,,512,0,1,,,,0,,,54,0
483353,control_change,,,,,25,0,1,,,,0,64,0,,
483556,control_change,,,,,203,0,1,,,,0,64,127,,
483840,note_on,,,,,0,0,1,,,,0,,,63,44
483840,note_on,,,,,0,0,1,,,,0,,,59,32
483840,note_on,,,,,0,0,1,,,,0,,,51,35
483840,note_off,,,,,0,0,1,,,,0,,,61,0
483840,note_off,,,,,284,0,1,,,,0,,,52,0
483840,set_tempo,,,,,512,1,0,,1090909,,,,,,
483840,note_off,,,,,0,0,1,,,,0,,,64,0
483929,control_change,,,,,89,0,1,,,,0,64,0,,
484098,control_change,,,,,169,0,1,,,,0,64,127,,
484352,note_off,,,,,0,0,1,,,,0,,,47,0
484352,note_off,,,,,0,0,1,,,,0,,,51,0
484352,note_off,,,,,0,0,1,,,,0,,,59,0
484352,set_tempo,,,,,512,1,0,,1000000,,,,,,
484352,note_off,,,,,0,0,1,,,,0,,,63,0
484352,note_off,,,,,0,0,1,,,,0,,,35,0
484352,note_on,,,,,0,0,1,,,,0,,,52,34
484352,note_on,,,,,0,0,1,,,,0,,,61,34
484352,note_on,,,,,0,0,1,,,,0,,,64,48
484352,note_on,,,,,0,0,1,,,,0,,,34,11
484352,note_on,,,,,0,0,1,,,,0,,,42,11
484352,note_on,,,,,0,0,1,,,,0,,,46,23
484352,control_change,,,,,0,0,1,,,,0,64,127,,
484352,control_change,,,,,254,0,1,,,,0,64,0,,
484487,control_change,,,,,135,0,1,,,,0,64,0,,
484707,control_change,,,,,220,0,1,,,,0,64,127,,
485176,note_on,,,,,469,0,1,,,,0,,,64,26
485276,note_on,,,,,100,0,1,,,,0,,,73,26
485376,note_on,,,,,100,0,1,,,,0,,,76,40
485376,set_tempo,,,,,1024,1,0,,857142,,,,,,
486400,note_off,,,,,0,0,1,,,,0,,,76,0
486400,note_off,,,,,0,0,1,,,,0,,,61,0
486400,note_on,,,,,0,0,1,,,,0,,,30,10
486400,note_off,,,,,0,0,1,,,,0,,,46,0
486400,note_off,,,,,0,0,1,,,,0,,,42,0
486400,note_off,,,,,0,0,1,,,,0,,,34,0
486400,note_on,,,,,0,0,1,,,,0,,,42,22
486400,note_off,,,,,0,0,1,,,,0,,,64,0
486400,note_off,,,,,0,0,1,,,,0,,,64,0
486400,note_off,,,,,1024,0,1,,,,0,,,52,0
486400,note_off,,,,,0,0,1,,,,0,,,73,0
486912,set_tempo,,,,,1536,1,0,,923076,,,,,,
486912,note_on,,,,,512,0,1,,,,0,,,52,29
486912,note_on,,,,,0,0,1,,,,0,,,61,26
486912,note_on,,,,,0,0,1,,,,0,,,64,38
487424,note_off,,,,,512,0,1,,,,0,,,52,0
487424,note_off,,,,,0,0,1,,,,0,,,61,0
487424,note_off,,,,,0,0,1,,,,0,,,64,0
487424,note_on,,,,,0,0,1,,,,0,,,51,33
487424,note_on,,,,,0,0,1,,,,0,,,59,30
487424,note_on,,,,,0,0,1,,,,0,,,63,42
487483,control_change,,,,,59,0,1,,,,0,64,0,,
487652,control_change,,,,,169,0,1,,,,0,64,127,,
487936,note_on,,,,,0,0,1,,,,0,,,61,40
487936,note_on,,,,,0,0,1,,,,0,,,58,28
487936,note_on,,,,,0,0,1,,,,0,,,49,31
487936,note_off,,,,,0,0,1,,,,0,,,63,0
487936,note_off,,,,,0,0,1,,,,0,,,59,0
487936,note_off,,,,,284,0,1,,,,0,,,51,0
487936,set_tempo,,,,,1024,1,0,,1000000,,,,,,
488042,control_change,,,,,106,0,1,,,,0,64,0,,
488245,control_change,,,,,203,0,1,,,,0,64,127,,
488448,control_change,,,,,203,0,1,,,,0,64,0,,
488448,set_tempo,,,,,512,1,0,,1200000,,,,,,
488448,control_change,,,,,0,0,1,,,,0,64,127,,
488448,note_off,,,,,0,0,1,,,,0,,,49,0
488448,note_off,,,,,0,0,1,,,,0,,,58,0
488448,note_off,,,,,0,0,1,,,,0,,,61,0
488448,note_off,,,,,0,0,1,,,,0,,,30,0
488448,note_off,,,,,0,0,1,,,,0,,,42,0
488448,note_on,,,,,0,0,1,,,,0,,,51,23
488448,note_on,,,,,0,0,1,,,,0,,,59,23
488448,note_on,,,,,0,0,1,,,,0,,,63,37
488448,note_on,,,,,0,0,1,,,,0,,,35,9
488448,note_on,,,,,0,0,1,,,,0,,,42,9
488448,note_on,,,,,0,0,1,,,,0,,,47,21
488550,control_change,,,,,102,0,1,,,,0,64,0,,
488753,control_change,,,,,203,0,1,,,,0,64,127,,
489272,note_on,,,,,519,0,1,,,,0,,,63,22
489372,note_on,,,,,100,0,1,,,,0,,,71,14
489430,note_off,,,,,58,0,1,,,,0,,,63,0
489472,note_on,,,,,42,0,1,,,,0,,,75,28
490496,note_off,,,,,0,0,1,,,,0,,,75,0
490496,note_off,,,,,1024,0,1,,,,0,,,71,0
490496,set_tempo,,,,,2048,1,0,,857142,,,,,,
491520,note_off,,,,,1024,0,1,,,,0,,,51,0
491520,note_off,,,,,0,0,1,,,,0,,,59,0
491520,note_off,,,,,0,0,1,,,,0,,,63,0
491562,control_change,,,,,42,0,1,,,,0,64,0,,
491850,control_change,,,,,288,0,1,,,,0,64,127,,
492288,note_on,,,,,0,0,1,,,,0,,,66,47
492288,note_on,,,,,0,0,1,,,,0,,,63,35
492288,note_on,,,,,438,0,1,,,,0,,,54,35
492544,note_off,,,,,0,0,1,,,,0,,,35,0
492544,control_change,,,,,256,0,1,,,,0,64,0,,
492544,control_change,,,,,0,0,1,,,,0,64,127,,
492544,note_off,,,,,0,0,1,,,,0,,,42,0
492544,note_off,,,,,0,0,1,,,,0,,,47,0
492544,note_on,,,,,0,0,1,,,,0,,,54,34
492544,note_on,,,,,0,0,1,,,,0,,,63,34
492544,note_on,,,,,0,0,1,,,,0,,,66,48
492544,note_on,,,,,0,0,1,,,,0,,,35,21
492544,note_off,,,,,0,0,1,,,,0,,,63,0
492544,note_off,,,,,0,0,1,,,,0,,,66,0
492544,note_on,,,,,0,0,1,,,,0,,,47,33
492544,set_tempo,,,,,2048,1,0,,857142,,,,,,
492544,note_off,,,,,0,0,1,,,,0,,,54,0
492544,note_on,,,,,0,0,1,,,,0,,,42,21
492646,control_change,,,,,102,0,1,,,,0,64,0,,
492798,control_change,,,,,152,0,1,,,,0,64,127,,
494592,note_off,,,,,1794,0,1,,,,0,,,63,0
494592,note_on,,,,,0,0,1,,,,0,,,63,39
494592,note_on,,,,,0,0,1,,,,0,,,51,25
494592,note_on,,,,,0,0,1,,,,0,,,59,25
494632,note_off,,,,,0,0,1,,,,0,,,66,0
494632,note_off,,,,,40,0,1,,,,0,,,54,0
494666,control_change,,,,,34,0,1,,,,0,64,0,,
494812,control_change,,,,,146,0,1,,,,0,64,127,,
495104,set_tempo,,,,,2560,1,0,,857142,,,,,,
495104,note_on,,,,,292,0,1,,,,0,,,64,35
495144,note_off,,,,,40,0,1,,,,0,,,63,0
495275,note_on,,,,,131,0,1,,,,0,,,63,33
495275,set_tempo,,,,,171,1,0,,750000,,,,,,
495303,control_change,,,,,28,0,1,,,,0,64,0,,
495315,note_off,,,,,12,0,1,,,,0,,,64,0
495438,control_change,,,,,123,0,1,,,,0,64,127,,
495445,note_on,,,,,7,0,1,,,,0,,,61,32
495616,set_tempo,,,,,341,1,0,,923076,,,,,,
495616,note_off,,,,,171,0,1,,,,0,,,63,0
495616,note_on,,,,,0,0,1,,,,0,,,63,30
495656,note_off,,,,,40,0,1,,,,0,,,61,0
495692,control_change,,,,,36,0,1,,,,0,64,0,,
495844,control_change,,,,,152,0,1,,,,0,64,127,,
496128,note_on,,,,,284,0,1,,,,0,,,52,34
496128,note_on,,,,,0,0,1,,,,0,,,61,34
496128,note_on,,,,,0,0,1,,,,0,,,64,48
496128,set_tempo,,,,,512,1,0,,1090909,,,,,,
496168,note_off,,,,,40,0,1,,,,0,,,51,0
496168,note_off,,,,,0,0,1,,,,0,,,59,0
496168,note_off,,,,,0,0,1,,,,0,,,63,0
496200,control_change,,,,,32,0,1,,,,0,64,0,,
496352,control_change,,,,,152,0,1,,,,0,64,127,,
496640,control_change,,,,,0,0,1,,,,0,64,127,,
496640,note_on,,,,,0,0,1,,,,0,,,47,33
496640,note_on,,,,,0,0,1,,,,0,,,35,21
496640,note_on,,,,,0,0,1,,,,0,,,68,51
496640,note_on,,,,,0,0,1,,,,0,,,64,37
496640,note_on,,,,,0,0,1,,,,0,,,56,37
496640,control_change,,,,,0,0,1,,,,0,64,0,,
496640,note_off,,,,,0,0,1,,,,0,,,42,0
496640,note_off,,,,,0,0,1,,,,0,,,35,0
496640,note_off,,,,,0,0,1,,,,0,,,64,0
496640,control_change,,,,,0,0,1,,,,0,64,0,,
496640,control_change,,,,,288,0,1,,,,0,64,0,,
496640,note_off,,,,,0,0,1,,,,0,,,47,0
496680,note_off,,,,,40,0,1,,,,0,,,52,0
496680,note_off,,,,,0,0,1,,,,0,,,61,0
496742,control_change,,,,,62,0,1,,,,0,64,0,,
496843,control_change,,,,,101,0,1,,,,0,64,127,,
497408,note_on,,,,,0,0,1,,,,0,,,54,29
497408,note_on,,,,,0,0,1,,,,0,,,63,29
497408,note_on,,,,,0,0,1,,,,0,,,66,43
497408,note_off,,,,,0,0,1,,,,0,,,64,0
497408,note_off,,,,,0,0,1,,,,0,,,68,0
497408,note_off,,,,,565,0,1,,,,0,,,56,0
497408,set_tempo,,,,,1280,1,0,,1000000,,,,,,
497664,note_on,,,,,0,0,1,,,,0,,,54,28
497664,set_tempo,,,,,256,1,0,,857142,,,,,,
497664,note_off,,,,,256,0,1,,,,0,,,54,0
497664,note_off,,,,,0,0,1,,,,0,,,63,0
497664,note_on,,,,,0,0,1,,,,0,,,66,42
497664,note_on,,,,,0,0,1,,,,0,,,63,28
497664,note_off,,,,,0,0,1,,,,0,,,66,0
497757,control_change,,,,,93,0,1,,,,0,64,0,,
498011,control_change,,,,,254,0,1,,,,0,64,127,,
499184,control_change,,,,,1173,0,1,,,,0,64,127,,
500480,note_on,,,,,0,0,1,,,,0,,,66,44
500480,note_off,,,,,1296,0,1,,,,0,,,54,0
500480,note_off,,,,,0,0,1,,,,0,,,63,0
500480,note_on,,,,,0,0,1,,,,0,,,63,31
500480,note_off,,,,,0,0,1,,,,0,,,66,0
500480,note_on,,,,,0,0,1,,,,0,,,54,31
500480,set_tempo,,,,,2816,1,0,,1000000,,,,,,
500736,note_off,,,,,0,0,1,,,,0,,,54,0
500736,note_on,,,,,0,0,1,,,,0,,,47,25
500736,note_on,,,,,0,0,1,,,,0,,,44,13
500736,note_on,,,,,0,0,1,,,,0,,,35,13
500736,note_on,,,,,0,0,1,,,,0,,,68,49
500736,note_on,,,,,0,0,1,,,,0,,,64,34
500736,note_on,,,,,0,0,1,,,,0,,,56,34
500736,note_off,,,,,0,0,1,,,,0,,,47,0
500736,note_off,,,,,0,0,1,,,,0,,,35,0
500736,note_off,,,,,0,0,1,,,,0,,,66,0
500736,note_off,,,,,0,0,1,,,,0,,,63,0
500736,control_change,,,,,0,0,1,,,,0,64,127,,
500736,control_change,,,,,256,0,1,,,,0,64,0,,
500736,set_tempo,,,,,256,1,0,,857142,,,,,,
500987,control_change,,,,,251,0,1,,,,0,64,0,,
501447,control_change,,,,,460,0,1,,,,0,64,127,,
502784,note_on,,,,,0,0,1,,,,0,,,68,50
502784,note_on,,,,,0,0,1,,,,0,,,64,36
502784,note_on,,,,,0,0,1,,,,0,,,56,36
502784,note_off,,,,,0,0,1,,,,0,,,68,0
502784,note_off,,,,,0,0,1,,,,0,,,64,0
502784,note_off,,,,,1337,0,1,,,,0,,,56,0
502784,set_tempo,,,,,2048,1,0,,1200000,,,,,,
503552,note_off,,,,,768,0,1,,,,0,,,56,0
503552,set_tempo,,,,,768,1,0,,923076,,,,,,
503552,note_on,,,,,0,0,1,,,,0,,,70,50
503552,note_on,,,,,0,0,1,,,,0,,,66,36
503552,note_on,,,,,0,0,1,,,,0,,,58,36
503552,note_off,,,,,0,0,1,,,,0,,,68,0
503552,note_off,,,,,0,0,1,,,,0,,,64,0
503808,note_on,,,,,0,0,1,,,,0,,,59,41
503808,note_on,,,,,0,0,1,,,,0,,,68,41
503808,note_off,,,,,256,0,1,,,,0,,,58,0
503808,note_off,,,,,0,0,1,,,,0,,,66,0
503808,note_off,,,,,0,0,1,,,,0,,,70,0
503808,note_on,,,,,0,0,1,,,,0,,,71,56
503808,set_tempo,,,,,256,1,0,,857142,,,,,,
503871,control_change,,,,,63,0,1,,,,0,64,0,,
504289,control_change,,,,,418,0,1,,,,0,64,127,,
504576,note_on,,,,,0,0,1,,,,0,,,73,61
504576,note_on,,,,,0,0,1,,,,0,,,70,45
504576,note_on,,,,,0,0,1,,,,0,,,61,45
504576,note_off,,,,,0,0,1,,,,0,,,71,0
504576,note_off,,,,,0,0,1,,,,0,,,68,0
504576,note_off,,,,,287,0,1,,,,0,,,59,0
504832,note_off,,,,,0,0,1,,,,0,,,70,0
504832,note_off,,,,,0,0,1,,,,0,,,73,0
504832,note_on,,,,,0,0,1,,,,0,,,42,24
504832,note_on,,,,,0,0,1,,,,0,,,35,24
504832,note_on,,,,,0,0,1,,,,0,,,75,67
504832,note_on,,,,,0,0,1,,,,0,,,71,52
504832,note_on,,,,,0,0,1,,,,0,,,63,52
504832,note_off,,,,,0,0,1,,,,0,,,47,0
504832,note_off,,,,,0,0,1,,,,0,,,44,0
504832,note_off,,,,,0,0,1,,,,0,,,35,0
504832,note_on,,,,,0,0,1,,,,0,,,47,36
504832,note_off,,,,,0,0,1,,,,0,,,61,0
504832,control_change,,,,,256,0,1,,,,0,64,0,,
504832,control_change,,,,,0,0,1,,,,0,64,127,,
504832,set_tempo,,,,,1024,1,0,,1000000,,,,,,
505041,control_change,,,,,209,0,1,,,,0,64,0,,
505344,note_off,,,,,0,0,1,,,,0,,,75,0
505344,note_off,,,,,0,0,1,,,,0,,,71,0
505344,note_off,,,,,303,0,1,,,,0,,,63,0
505856,set_tempo,,,,,1024,1,0,,857142,,,,,,
505856,note_on,,,,,0,0,1,,,,0,,,78,71
505856,note_on,,,,,0,0,1,,,,0,,,75,55
505856,note_on,,,,,512,0,1,,,,0,,,66,55
506086,control_change,,,,,230,0,1,,,,0,64,127,,
507904,note_off,,,,,1818,0,1,,,,0,,,66,0
507904,note_on,,,,,0,0,1,,,,0,,,78,70
507904,note_on,,,,,0,0,1,,,,0,,,75,56
507904,note_on,,,,,0,0,1,,,,0,,,66,56
507904,set_tempo,,,,,2048,1,0,,923076,,,,,,
507904,note_off,,,,,0,0,1,,,,0,,,78,0
507904,note_off,,,,,0,0,1,,,,0,,,75,0
508416,note_off,,,,,0,0,1,,,,0,,,75,0
508416,note_off,,,,,512,0,1,,,,0,,,66,0
508416,note_on,,,,,0,0,1,,,,0,,,80,72
508416,set_tempo,,,,,512,1,0,,1090909,,,,,,
508416,note_off,,,,,0,0,1,,,,0,,,78,0
508416,note_on,,,,,0,0,1,,,,0,,,77,58
508416,note_on,,,,,0,0,1,,,,0,,,68,58
508510,control_change,,,,,94,0,1,,,,0,64,0,,
508719,control_change,,,,,209,0,1,,,,0,64,127,,
508928,note_off,,,,,0,0,1,,,,0,,,42,0
508928,note_off,,,,,0,0,1,,,,0,,,47,0
508928,note_on,,,,,0,0,1,,,,0,,,70,60
508928,note_on,,,,,0,0,1,,,,0,,,42,28
508928,note_on,,,,,0,0,1,,,,0,,,34,28
508928,note_on,,,,,0,0,1,,,,0,,,82,74
508928,note_on,,,,,0,0,1,,,,0,,,78,60
508928,note_off,,,,,0,0,1,,,,0,,,35,0
508928,note_on,,,,,0,0,1,,,,0,,,46,40
508928,note_off,,,,,0,0,1,,,,0,,,80,0
508928,control_change,,,,,0,0,1,,,,0,64,127,,
508928,note_off,,,,,0,0,1,,,,0,,,68,0
508928,control_change,,,,,209,0,1,,,,0,64,0,,
508928,note_off,,,,,0,0,1,,,,0,,,77,0
509179,control_change,,,,,251,0,1,,,,0,64,0,,
509530,note_off,,,,,0,0,1,,,,0,,,46,0
509530,note_off,,,,,0,0,1,,,,0,,,42,0
509530,note_off,,,,,351,0,1,,,,0,,,34,0
509555,control_change,,,,,25,0,1,,,,0,64,127,,
509952,note_on,,,,,397,0,1,,,,0,,,46,38
509952,note_on,,,,,0,0,1,,,,0,,,58,52
509952,set_tempo,,,,,1536,1,0,,1000000,,,,,,
509952,note_on,,,,,0,0,1,,,,0,,,54,38
510464,note_off,,,,,0,0,1,,,,0,,,82,0
510464,note_off,,,,,0,0,1,,,,0,,,78,0
510464,note_off,,,,,512,0,1,,,,0,,,70,0
510464,note_on,,,,,0,0,1,,,,0,,,80,62
510464,note_on,,,,,0,0,1,,,,0,,,68,48
510464,note_on,,,,,0,0,1,,,,0,,,77,48
510720,note_off,,,,,256,0,1,,,,0,,,68,0
510720,note_off,,,,,0,0,1,,,,0,,,80,0
510720,note_on,,,,,0,0,1,,,,0,,,66,48
510720,note_on,,,,,0,0,1,,,,0,,,75,48
510720,note_on,,,,,0,0,1,,,,0,,,78,62
510720,note_off,,,,,0,0,1,,,,0,,,77,0
510976,note_on,,,,,0,0,1,,,,0,,,66,54
510976,control_change,,,,,256,0,1,,,,0,64,0,,
510976,note_off,,,,,0,0,1,,,,0,,,66,0
510976,note_off,,,,,0,0,1,,,,0,,,75,0
510976,note_off,,,,,0,0,1,,,,0,,,78,0
510976,note_on,,,,,0,0,1,,,,0,,,75,54
510976,note_on,,,,,0,0,1,,,,0,,,78,68
511352,control_change,,,,,376,0,1,,,,0,64,127,,
512000,note_on,,,,,0,0,1,,,,0,,,77,58
512000,note_on,,,,,0,0,1,,,,0,,,46,26
512000,set_tempo,,,,,2048,1,0,,1276595,,,,,,
512000,note_on,,,,,0,0,1,,,,0,,,58,40
512000,note_on,,,,,0,0,1,,,,0,,,74,44
512000,note_on,,,,,0,0,1,,,,0,,,56,26
512000,note_on,,,,,0,0,1,,,,0,,,65,44
512000,note_off,,,,,0,0,1,,,,0,,,78,0
512000,note_off,,,,,0,0,1,,,,0,,,54,0
512000,note_off,,,,,0,0,1,,,,0,,,46,0
512000,note_off,,,,,0,0,1,,,,0,,,75,0
512000,note_off,,,,,648,0,1,,,,0,,,66,0
512000,note_off,,,,,0,0,1,,,,0,,,58,0
512146,control_change,,,,,146,0,1,,,,0,64,0,,
512564,control_change,,,,,418,0,1,,,,0,64,127,,
513024,note_on,,,,,0,0,1,,,,0,,,70,44
513024,note_on,,,,,0,0,1,,,,0,,,46,26
513024,note_on,,,,,0,0,1,,,,0,,,34,14
513024,note_on,,,,,0,0,1,,,,0,,,82,57
513024,note_on,,,,,0,0,1,,,,0,,,78,44
513024,note_on,,,,,0,0,1,,,,0,,,73,44
513024,note_off,,,,,0,0,1,,,,0,,,58,0
513024,note_off,,,,,0,0,1,,,,0,,,46,0
513024,note_off,,,,,0,0,1,,,,0,,,77,0
513024,note_off,,,,,0,0,1,,,,0,,,74,0
513024,note_off,,,,,0,0,1,,,,0,,,65,0
513024,control_change,,,,,0,0,1,,,,0,64,0,,
513024,control_change,,,,,0,0,1,,,,0,64,127,,
513024,control_change,,,,,460,0,1,,,,0,64,0,,
513024,note_off,,,,,0,0,1,,,,0,,,56,0
513024,set_tempo,,,,,1024,1,0,,1000000,,,,,,
513275,control_change,,,,,251,0,1,,,,0,64,0,,
513626,note_off,,,,,0,0,1,,,,0,,,46,0
513626,note_off,,,,,351,0,1,,,,0,,,34,0
513651,control_change,,,,,25,0,1,,,,0,64,127,,
514048,note_on,,,,,397,0,1,,,,0,,,49,24
514048,note_on,,,,,0,0,1,,,,0,,,54,24
514048,note_on,,,,,0,0,1,,,,0,,,58,24
514048,note_on,,,,,0,0,1,,,,0,,,61,36
514560,note_off,,,,,0,0,1,,,,0,,,78,0
514560,note_on,,,,,0,0,1,,,,0,,,80,44
514560,note_on,,,,,0,0,1,,,,0,,,73,30
514560,note_off,,,,,512,0,1,,,,0,,,70,0
514560,note_off,,,,,0,0,1,,,,0,,,82,0
514560,note_off,,,,,0,0,1,,,,0,,,73,0
514560,note_on,,,,,0,0,1,,,,0,,,68,30
514816,note_off,,,,,256,0,1,,,,0,,,68,0
514816,note_off,,,,,0,0,1,,,,0,,,73,0
514816,note_off,,,,,0,0,1,,,,0,,,80,0
514816,note_on,,,,,0,0,1,,,,0,,,66,30
514816,note_on,,,,,0,0,1,,,,0,,,73,30
514816,note_on,,,,,0,0,1,,,,0,,,78,44
515072,note_on,,,,,0,0,1,,,,0,,,66,28
515072,note_off,,,,,0,0,1,,,,0,,,78,0
515072,note_on,,,,,0,0,1,,,,0,,,73,28
515072,note_off,,,,,0,0,1,,,,0,,,66,0
515072,note_off,,,,,0,0,1,,,,0,,,73,0
515072,note_on,,,,,0,0,1,,,,0,,,78,49
515072,control_change,,,,,256,0,1,,,,0,64,0,,
515072,set_tempo,,,,,2048,1,0,,1090909,,,,,,
515448,control_change,,,,,376,0,1,,,,0,64,127,,
516096,note_on,,,,,0,0,1,,,,0,,,61,26
516096,note_on,,,,,0,0,1,,,,0,,,59,12
516096,note_on,,,,,0,0,1,,,,0,,,49,12
516096,note_on,,,,,0,0,1,,,,0,,,77,42
516096,note_on,,,,,0,0,1,,,,0,,,73,22
516096,note_on,,,,,0,0,1,,,,0,,,68,22
516096,note_off,,,,,648,0,1,,,,0,,,66,0
516096,note_off,,,,,0,0,1,,,,0,,,61,0
516096,note_off,,,,,0,0,1,,,,0,,,58,0
516096,note_off,,,,,0,0,1,,,,0,,,54,0
516096,note_off,,,,,0,0,1,,,,0,,,49,0
516096,note_off,,,,,0,0,1,,,,0,,,78,0
516096,note_off,,,,,0,0,1,,,,0,,,73,0
516096,note_on,,,,,0,0,1,,,,0,,,65,22
516242,control_change,,,,,146,0,1,,,,0,64,0,,
516660,control_change,,,,,418,0,1,,,,0,64,127,,
517120,note_on,,,,,0,0,1,,,,0,,,70,22
517120,note_on,,,,,0,0,1,,,,0,,,73,22
517120,note_on,,,,,0,0,1,,,,0,,,61,22
517120,note_on,,,,,0,0,1,,,,0,,,54,10
517120,note_on,,,,,0,0,1,,,,0,,,58,10
517120,note_on,,,,,0,0,1,,,,0,,,66,22
517120,note_on,,,,,0,0,1,,,,0,,,78,36
517120,note_off,,,,,0,0,1,,,,0,,,61,0
517120,note_off,,,,,0,0,1,,,,0,,,77,0
517120,note_off,,,,,0,0,1,,,,0,,,49,0
517120,note_off,,,,,0,0,1,,,,0,,,73,0
517120,note_off,,,,,0,0,1,,,,0,,,68,0
517120,note_off,,,,,0,0,1,,,,0,,,65,0
517120,set_tempo,,,,,2048,1,0,,1000000,,,,,,
517120,control_change,,,,,0,0,1,,,,0,64,127,,
517120,control_change,,,,,0,0,1,,,,0,64,0,,
517120,control_change,,,,,460,0,1,,,,0,64,0,,
517120,note_off,,,,,0,0,1,,,,0,,,59,0
517120,control_change,,,,,0,0,1,,,,0,64,0,,
517343,control_change,,,,,223,0,1,,,,0,64,0,,
517679,control_change,,,,,336,0,1,,,,0,64,127,,
518768,control_change,,,,,1089,0,1,,,,0,64,127,,
519867,control_change,,,,,1099,0,1,,,,0,64,0,,
520192,note_off,,,,,0,0,1,,,,0,,,73,0
520192,note_off,,,,,0,0,1,,,,0,,,78,0
520192,note_off,,,,,0,0,1,,,,0,,,54,0
520192,note_off,,,,,0,0,1,,,,0,,,58,0
520192,note_off,,,,,0,0,1,,,,0,,,61,0
520192,note_off,,,,,0,0,1,,,,0,,,70,0
520192,note_off,,,,,325,0,1,,,,0,,,66,0
520417,control_change,,,,,225,0,1,,,,0,64,127,,
520960,note_on,,,,,0,0,1,,,,0,,,61,26
520960,note_on,,,,,0,0,1,,,,0,,,56,14
520960,note_on,,,,,0,0,1,,,,0,,,53,14
520960,note_on,,,,,0,0,1,,,,0,,,73,40
520960,note_on,,,,,543,0,1,,,,0,,,71,28
520960,note_on,,,,,0,0,1,,,,0,,,59,14
521216,note_on,,,,,0,0,1,,,,0,,,53,14
521216,note_on,,,,,0,0,1,,,,0,,,61,26
521216,note_on,,,,,0,0,1,,,,0,,,59,14
521216,note_on,,,,,0,0,1,,,,0,,,56,14
521216,note_on,,,,,0,0,1,,,,0,,,73,47
521216,note_off,,,,,0,0,1,,,,0,,,56,0
521216,note_off,,,,,0,0,1,,,,0,,,61,0
521216,note_off,,,,,0,0,1,,,,0,,,59,0
521216,note_off,,,,,0,0,1,,,,0,,,73,0
521216,note_off,,,,,0,0,1,,,,0,,,71,0
521216,control_change,,,,,0,0,1,,,,0,64,127,,
521216,control_change,,,,,256,0,1,,,,0,64,0,,
521216,note_on,,,,,0,0,1,,,,0,,,71,35
521216,note_off,,,,,0,0,1,,,,0,,,53,0
521374,control_change,,,,,158,0,1,,,,0,64,0,,
521610,control_change,,,,,236,0,1,,,,0,64,127,,
523008,note_off,,,,,1398,0,1,,,,0,,,73,0
523008,note_on,,,,,0,0,1,,,,0,,,74,45
523264,set_tempo,,,,,6144,1,0,,1333333,,,,,,
523264,note_off,,,,,256,0,1,,,,0,,,71,0
523264,note_on,,,,,0,0,1,,,,0,,,62,26
523264,note_on,,,,,0,0,1,,,,0,,,59,14
523264,note_on,,,,,0,0,1,,,,0,,,53,14
523264,note_on,,,,,0,0,1,,,,0,,,71,43
523264,note_on,,,,,0,0,1,,,,0,,,73,43
523264,note_on,,,,,0,0,1,,,,0,,,56,14
523264,note_off,,,,,0,0,1,,,,0,,,59,0
523264,note_off,,,,,0,0,1,,,,0,,,56,0
523264,note_off,,,,,0,0,1,,,,0,,,53,0
523264,note_off,,,,,0,0,1,,,,0,,,74,0
523264,note_off,,,,,0,0,1,,,,0,,,61,0
523290,control_change,,,,,26,0,1,,,,0,64,0,,
523349,note_off,,,,,59,0,1,,,,0,,,73,0
523349,note_on,,,,,0,0,1,,,,0,,,74,43
523435,note_off,,,,,86,0,1,,,,0,,,74,0
523435,note_on,,,,,0,0,1,,,,0,,,76,43
523520,note_off,,,,,85,0,1,,,,0,,,76,0
523520,note_on,,,,,0,0,1,,,,0,,,74,43
523776,set_tempo,,,,,512,1,0,,923076,,,,,,
524052,control_change,,,,,532,0,1,,,,0,64,127,,
525056,note_off,,,,,1004,0,1,,,,0,,,74,0
525056,note_on,,,,,0,0,1,,,,0,,,73,40
525056,set_tempo,,,,,1280,1,0,,1090909,,,,,,
525312,set_tempo,,,,,256,1,0,,600000,,,,,,
525312,note_on,,,,,0,0,1,,,,0,,,61,21
525312,note_on,,,,,0,0,1,,,,0,,,56,9
525312,note_on,,,,,0,0,1,,,,0,,,53,9
525312,note_on,,,,,0,0,1,,,,0,,,73,40
525312,note_on,,,,,0,0,1,,,,0,,,71,28
525312,note_on,,,,,0,0,1,,,,0,,,59,9
525312,note_off,,,,,0,0,1,,,,0,,,59,0
525312,control_change,,,,,256,0,1,,,,0,64,0,,
525312,control_change,,,,,0,0,1,,,,0,64,127,,
525312,note_off,,,,,0,0,1,,,,0,,,71,0
525312,note_off,,,,,0,0,1,,,,0,,,62,0
525312,note_off,,,,,0,0,1,,,,0,,,53,0
525312,note_off,,,,,0,0,1,,,,0,,,56,0
525312,note_off,,,,,0,0,1,,,,0,,,73,0
525358,control_change,,,,,46,0,1,,,,0,64,0,,
525433,control_change,,,,,75,0,1,,,,0,64,127,,
526336,note_off,,,,,903,0,1,,,,0,,,71,0
526336,note_on,,,,,0,0,1,,,,0,,,75,22
526336,set_tempo,,,,,1024,1,0,,2000000,,,,,,
526336,note_off,,,,,0,0,1,,,,0,,,73,0
526377,note_off,,,,,41,0,1,,,,0,,,75,0
526384,note_on,,,,,7,0,1,,,,0,,,77,27
526418,set_tempo,,,,,82,1,0,,1500000,,,,,,
526418,note_off,,,,,34,0,1,,,,0,,,77,0
526419,note_on,,,,,1,0,1,,,,0,,,78,26
526459,note_off,,,,,40,0,1,,,,0,,,78,0
526459,note_on,,,,,0,0,1,,,,0,,,80,24
526500,note_off,,,,,41,0,1,,,,0,,,80,0
526503,note_on,,,,,3,0,1,,,,0,,,82,30
526538,note_on,,,,,35,0,1,,,,0,,,83,27
526541,note_off,,,,,3,0,1,,,,0,,,82,0
526578,note_on,,,,,37,0,1,,,,0,,,85,34
526582,set_tempo,,,,,164,1,0,,1333333,,,,,,
526582,note_off,,,,,4,0,1,,,,0,,,83,0
526615,note_on,,,,,33,0,1,,,,0,,,87,34
526623,note_off,,,,,8,0,1,,,,0,,,85,0
526656,note_on,,,,,33,0,1,,,,0,,,89,34
526664,note_off,,,,,8,0,1,,,,0,,,87,0
526705,note_off,,,,,41,0,1,,,,0,,,89,0
526707,note_on,,,,,2,0,1,,,,0,,,90,30
526746,note_off,,,,,39,0,1,,,,0,,,90,0
526747,note_on,,,,,1,0,1,,,,0,,,92,30
526786,note_off,,,,,39,0,1,,,,0,,,92,0
526794,note_on,,,,,8,0,1,,,,0,,,94,32
526827,set_tempo,,,,,245,1,0,,2000000,,,,,,
526827,note_off,,,,,33,0,1,,,,0,,,94,0
526828,note_on,,,,,1,0,1,,,,0,,,95,37
526868,note_off,,,,,40,0,1,,,,0,,,95,0
526868,set_tempo,,,,,41,1,0,,1500000,,,,,,
526876,note_on,,,,,8,0,1,,,,0,,,94,32
526909,note_off,,,,,33,0,1,,,,0,,,94,0
526913,note_on,,,,,4,0,1,,,,0,,,92,33
526949,note_on,,,,,36,0,1,,,,0,,,90,34
526950,note_off,,,,,1,0,1,,,,0,,,92,0
526991,set_tempo,,,,,123,1,0,,1333333,,,,,,
526991,note_off,,,,,41,0,1,,,,0,,,90,0
526997,note_on,,,,,6,0,1,,,,0,,,89,30
527032,note_off,,,,,35,0,1,,,,0,,,89,0
527032,note_on,,,,,0,0,1,,,,0,,,87,31
527073,note_off,,,,,41,0,1,,,,0,,,87,0
527081,note_on,,,,,8,0,1,,,,0,,,85,31
527112,note_on,,,,,31,0,1,,,,0,,,83,28
527114,note_off,,,,,2,0,1,,,,0,,,85,0
527155,note_off,,,,,41,0,1,,,,0,,,83,0
527155,note_on,,,,,0,0,1,,,,0,,,82,30
527196,note_off,,,,,41,0,1,,,,0,,,82,0
527196,set_tempo,,,,,205,1,0,,1500000,,,,,,
527197,note_on,,,,,1,0,1,,,,0,,,80,27
527237,note_off,,,,,40,0,1,,,,0,,,80,0
527245,note_on,,,,,8,0,1,,,,0,,,78,22
527275,note_on,,,,,30,0,1,,,,0,,,77,24
527278,set_tempo,,,,,82,1,0,,2000000,,,,,,
527278,note_off,,,,,3,0,1,,,,0,,,78,0
527319,note_off,,,,,41,0,1,,,,0,,,77,0
527327,note_on,,,,,8,0,1,,,,0,,,75,19
527360,set_tempo,,,,,82,1,0,,1000000,,,,,,
527360,note_off,,,,,33,0,1,,,,0,,,75,0
527360,note_on,,,,,0,0,1,,,,0,,,73,26
527467,control_change,,,,,107,0,1,,,,0,64,0,,
527872,note_off,,,,,405,0,1,,,,0,,,73,0
527872,note_off,,,,,0,0,1,,,,0,,,53,0
527872,note_off,,,,,0,0,1,,,,0,,,56,0
527872,note_off,,,,,0,0,1,,,,0,,,59,0
527872,note_off,,,,,0,0,1,,,,0,,,61,0
528962,control_change,,,,,1090,0,1,,,,0,64,127,,
529152,note_on,,,,,0,0,1,,,,0,,,58,18
529152,note_on,,,,,190,0,1,,,,0,,,70,28
529152,note_on,,,,,0,0,1,,,,0,,,54,18
529152,note_on,,,,,0,0,1,,,,0,,,73,40
529152,note_on,,,,,0,0,1,,,,0,,,61,30
529408,note_on,,,,,0,0,1,,,,0,,,73,47
529408,note_on,,,,,0,0,1,,,,0,,,61,14
529408,note_on,,,,,0,0,1,,,,0,,,70,35
529408,note_off,,,,,0,0,1,,,,0,,,61,0
529408,note_off,,,,,0,0,1,,,,0,,,58,0
529408,note_off,,,,,0,0,1,,,,0,,,54,0
529408,note_off,,,,,0,0,1,,,,0,,,73,0
529408,note_off,,,,,0,0,1,,,,0,,,70,0
529408,control_change,,,,,0,0,1,,,,0,64,127,,
529408,control_change,,,,,0,0,1,,,,0,64,0,,
529408,control_change,,,,,256,0,1,,,,0,64,0,,
529408,note_on,,,,,0,0,1,,,,0,,,54,14
529408,note_on,,,,,0,0,1,,,,0,,,58,14
529408,control_change,,,,,0,0,1,,,,0,64,0,,
529566,control_change,,,,,158,0,1,,,,0,64,0,,
529802,control_change,,,,,236,0,1,,,,0,64,127,,
531200,note_on,,,,,0,0,1,,,,0,,,75,45
531200,note_off,,,,,1398,0,1,,,,0,,,73,0
531456,note_off,,,,,0,0,1,,,,0,,,75,0
531456,note_off,,,,,0,0,1,,,,0,,,54,0
531456,note_off,,,,,0,0,1,,,,0,,,58,0
531456,note_off,,,,,0,0,1,,,,0,,,61,0
531456,note_on,,,,,0,0,1,,,,0,,,73,43
531456,note_on,,,,,0,0,1,,,,0,,,70,43
531456,note_on,,,,,0,0,1,,,,0,,,54,14
531456,note_on,,,,,0,0,1,,,,0,,,58,14
531456,note_on,,,,,0,0,1,,,,0,,,63,21
531456,set_tempo,,,,,4096,1,0,,1333333,,,,,,
531456,note_off,,,,,256,0,1,,,,0,,,70,0
531482,control_change,,,,,26,0,1,,,,0,64,0,,
531541,note_on,,,,,59,0,1,,,,0,,,75,43
531561,note_off,,,,,20,0,1,,,,0,,,73,0
531627,note_on,,,,,66,0,1,,,,0,,,77,43
531647,note_off,,,,,20,0,1,,,,0,,,75,0
531712,note_on,,,,,65,0,1,,,,0,,,75,43
531732,note_off,,,,,20,0,1,,,,0,,,77,0
531968,set_tempo,,,,,512,1,0,,923076,,,,,,
532244,control_change,,,,,512,0,1,,,,0,64,127,,
533248,note_off,,,,,1004,0,1,,,,0,,,75,0
533248,note_on,,,,,0,0,1,,,,0,,,73,31
533248,set_tempo,,,,,1280,1,0,,1090909,,,,,,
533504,set_tempo,,,,,256,1,0,,600000,,,,,,
533504,note_on,,,,,0,0,1,,,,0,,,73,27
533504,note_on,,,,,0,0,1,,,,0,,,61,14
533504,note_on,,,,,0,0,1,,,,0,,,58,14
533504,note_on,,,,,0,0,1,,,,0,,,54,14
533504,note_off,,,,,0,0,1,,,,0,,,63,0
533504,note_off,,,,,0,0,1,,,,0,,,58,0
533504,control_change,,,,,0,0,1,,,,0,64,0,,
533504,control_change,,,,,256,0,1,,,,0,64,0,,
533504,note_on,,,,,0,0,1,,,,0,,,70,15
533504,control_change,,,,,0,0,1,,,,0,64,127,,
533504,control_change,,,,,0,0,1,,,,0,64,0,,
533504,note_off,,,,,0,0,1,,,,0,,,70,0
533504,note_off,,,,,0,0,1,,,,0,,,73,0
533504,note_off,,,,,0,0,1,,,,0,,,54,0
533550,control_change,,,,,46,0,1,,,,0,64,0,,
533625,control_change,,,,,75,0,1,,,,0,64,127,,
534528,note_off,,,,,903,0,1,,,,0,,,70,0
534528,note_off,,,,,0,0,1,,,,0,,,73,0
534528,note_on,,,,,0,0,1,,,,0,,,75,20
534528,set_tempo,,,,,1024,1,0,,2000000,,,,,,
534573,note_on,,,,,0,0,1,,,,0,,,77,21
534573,note_off,,,,,45,0,1,,,,0,,,75,0
534617,note_off,,,,,44,0,1,,,,0,,,77,0
534617,note_on,,,,,0,0,1,,,,0,,,78,22
534662,set_tempo,,,,,134,1,0,,1500000,,,,,,
534662,note_on,,,,,0,0,1,,,,0,,,80,24
534662,note_off,,,,,45,0,1,,,,0,,,78,0
534706,note_on,,,,,0,0,1,,,,0,,,82,25
534706,note_off,,,,,44,0,1,,,,0,,,80,0
534751,note_on,,,,,0,0,1,,,,0,,,83,26
534751,note_off,,,,,45,0,1,,,,0,,,82,0
534795,note_on,,,,,0,0,1,,,,0,,,85,27
534795,note_off,,,,,44,0,1,,,,0,,,83,0
534795,set_tempo,,,,,133,1,0,,1333333,,,,,,
534840,note_off,,,,,45,0,1,,,,0,,,85,0
534840,note_on,,,,,0,0,1,,,,0,,,87,28
534884,note_on,,,,,0,0,1,,,,0,,,89,29
534884,note_off,,,,,44,0,1,,,,0,,,87,0
534929,note_off,,,,,45,0,1,,,,0,,,89,0
534929,note_on,,,,,0,0,1,,,,0,,,90,31
534973,note_on,,,,,0,0,1,,,,0,,,92,32
534973,note_off,,,,,44,0,1,,,,0,,,90,0
535018,note_off,,,,,45,0,1,,,,0,,,92,0
535018,set_tempo,,,,,223,1,0,,2000000,,,,,,
535019,note_on,,,,,1,0,1,,,,0,,,94,33
535062,note_off,,,,,43,0,1,,,,0,,,94,0
535062,note_on,,,,,0,0,1,,,,0,,,92,32
535107,note_on,,,,,0,0,1,,,,0,,,90,31
535107,note_off,,,,,45,0,1,,,,0,,,92,0
535107,set_tempo,,,,,89,1,0,,1333333,,,,,,
535151,note_on,,,,,0,0,1,,,,0,,,89,30
535151,note_off,,,,,44,0,1,,,,0,,,90,0
535196,note_on,,,,,0,0,1,,,,0,,,87,29
535196,note_off,,,,,45,0,1,,,,0,,,89,0
535240,note_on,,,,,0,0,1,,,,0,,,85,28
535240,note_off,,,,,44,0,1,,,,0,,,87,0
535285,set_tempo,,,,,178,1,0,,1500000,,,,,,
535285,note_on,,,,,0,0,1,,,,0,,,83,26
535285,note_off,,,,,45,0,1,,,,0,,,85,0
535329,note_on,,,,,0,0,1,,,,0,,,82,25
535329,note_off,,,,,44,0,1,,,,0,,,83,0
535374,note_on,,,,,0,0,1,,,,0,,,80,24
535374,note_off,,,,,45,0,1,,,,0,,,82,0
535418,note_on,,,,,0,0,1,,,,0,,,78,23
535418,note_off,,,,,44,0,1,,,,0,,,80,0
535418,set_tempo,,,,,133,1,0,,2000000,,,,,,
535463,note_off,,,,,45,0,1,,,,0,,,78,0
535463,note_on,,,,,0,0,1,,,,0,,,77,22
535507,note_off,,,,,44,0,1,,,,0,,,77,0
535507,note_on,,,,,0,0,1,,,,0,,,75,21
535552,set_tempo,,,,,134,1,0,,1000000,,,,,,
535552,note_off,,,,,45,0,1,,,,0,,,75,0
535552,note_on,,,,,0,0,1,,,,0,,,73,20
535659,control_change,,,,,107,0,1,,,,0,64,0,,
536064,note_off,,,,,405,0,1,,,,0,,,73,0
536064,note_off,,,,,0,0,1,,,,0,,,58,0
536064,note_off,,,,,0,0,1,,,,0,,,61,0
536064,note_on,,,,,0,0,1,,,,0,,,49,30
536064,note_off,,,,,0,0,1,,,,0,,,54,0
536064,set_tempo,,,,,512,1,0,,1090909,,,,,,
536576,set_tempo,,,,,512,1,0,,1333333,,,,,,
536576,note_off,,,,,512,0,1,,,,0,,,49,0
536576,note_on,,,,,0,0,1,,,,0,,,47,25
536832,set_tempo,,,,,256,1,0,,1090909,,,,,,
536832,note_on,,,,,256,0,1,,,,0,,,46,22
536872,note_off,,,,,40,0,1,,,,0,,,47,0
536960,note_off,,,,,88,0,1,,,,0,,,46,0
537088,note_on,,,,,128,0,1,,,,0,,,44,20
537154,control_change,,,,,66,0,1,,,,0,64,127,,
537344,note_on,,,,,0,0,1,,,,0,,,61,33
537344,note_on,,,,,190,0,1,,,,0,,,59,21
537344,note_on,,,,,0,0,1,,,,0,,,42,17
537384,note_off,,,,,40,0,1,,,,0,,,44,0
537472,note_off,,,,,88,0,1,,,,0,,,42,0
537596,note_on,,,,,124,0,1,,,,0,,,59,25
537600,control_change,,,,,4,0,1,,,,0,64,0,,
537600,control_change,,,,,0,0,1,,,,0,64,127,,
537600,note_off,,,,,0,0,1,,,,0,,,59,0
537600,note_off,,,,,0,0,1,,,,0,,,61,0
537600,note_on,,,,,0,0,1,,,,0,,,41,33
537600,note_on,,,,,0,0,1,,,,0,,,49,21
537600,set_tempo,,,,,768,1,0,,1000000,,,,,,
537656,control_change,,,,,56,0,1,,,,0,64,0,,
537664,note_off,,,,,8,0,1,,,,0,,,59,0
537671,note_on,,,,,7,0,1,,,,0,,,61,40
537704,control_change,,,,,33,0,1,,,,0,64,127,,
537728,note_on,,,,,0,0,1,,,,0,,,59,11
537728,note_off,,,,,24,0,1,,,,0,,,61,0
537786,note_on,,,,,58,0,1,,,,0,,,61,22
537792,note_off,,,,,6,0,1,,,,0,,,59,0
537856,note_off,,,,,64,0,1,,,,0,,,61,0
537857,note_on,,,,,1,0,1,,,,0,,,59,21
537915,note_on,,,,,58,0,1,,,,0,,,61,20
537920,note_off,,,,,5,0,1,,,,0,,,59,0
537984,note_off,,,,,64,0,1,,,,0,,,61,0
537988,note_on,,,,,4,0,1,,,,0,,,59,16
538048,note_off,,,,,60,0,1,,,,0,,,59,0
538051,note_on,,,,,3,0,1,,,,0,,,61,17
538112,note_off,,,,,61,0,1,,,,0,,,61,0
538115,note_on,,,,,3,0,1,,,,0,,,59,19
538172,note_on,,,,,57,0,1,,,,0,,,61,28
538176,note_off,,,,,4,0,1,,,,0,,,59,0
538240,note_off,,,,,64,0,1,,,,0,,,61,0
538246,note_on,,,,,6,0,1,,,,0,,,59,16
538303,note_on,,,,,57,0,1,,,,0,,,61,25
538304,note_off,,,,,1,0,1,,,,0,,,59,0
538365,note_on,,,,,61,0,1,,,,0,,,59,24
538368,note_off,,,,,3,0,1,,,,0,,,61,0
538423,note_on,,,,,55,0,1,,,,0,,,61,22
538432,note_off,,,,,9,0,1,,,,0,,,59,0
538496,note_off,,,,,64,0,1,,,,0,,,61,0
538497,note_on,,,,,1,0,1,,,,0,,,59,25
538555,note_on,,,,,58,0,1,,,,0,,,61,22
538560,note_off,,,,,5,0,1,,,,0,,,59,0
538624,note_off,,,,,64,0,1,,,,0,,,61,0
538625,note_on,,,,,1,0,1,,,,0,,,59,22
538681,note_on,,,,,56,0,1,,,,0,,,61,30
538688,note_off,,,,,7,0,1,,,,0,,,59,0
538746,note_on,,,,,58,0,1,,,,0,,,59,23
538752,note_off,,,,,6,0,1,,,,0,,,61,0
538816,note_off,,,,,64,0,1,,,,0,,,59,0
538822,note_on,,,,,6,0,1,,,,0,,,61,28
538879,note_on,,,,,57,0,1,,,,0,,,59,19
538880,note_off,,,,,1,0,1,,,,0,,,61,0
538937,note_on,,,,,57,0,1,,,,0,,,61,28
538944,note_off,,,,,7,0,1,,,,0,,,59,0
539007,note_on,,,,,63,0,1,,,,0,,,59,29
539008,note_off,,,,,1,0,1,,,,0,,,61,0
539072,note_off,,,,,64,0,1,,,,0,,,59,0
539078,note_on,,,,,6,0,1,,,,0,,,61,24
539136,note_off,,,,,58,0,1,,,,0,,,61,0
539142,note_on,,,,,6,0,1,,,,0,,,59,29
539200,note_off,,,,,58,0,1,,,,0,,,59,0
539209,note_on,,,,,9,0,1,,,,0,,,61,28
539264,note_off,,,,,55,0,1,,,,0,,,61,0
539270,note_on,,,,,6,0,1,,,,0,,,59,27
539323,note_on,,,,,53,0,1,,,,0,,,61,34
539328,note_off,,,,,5,0,1,,,,0,,,59,0
539384,note_on,,,,,56,0,1,,,,0,,,59,23
539392,note_off,,,,,8,0,1,,,,0,,,61,0
539456,note_off,,,,,64,0,1,,,,0,,,59,0
539456,note_on,,,,,0,0,1,,,,0,,,61,29
539515,note_on,,,,,59,0,1,,,,0,,,59,24
539520,note_off,,,,,5,0,1,,,,0,,,61,0
539581,note_on,,,,,61,0,1,,,,0,,,61,32
539584,note_off,,,,,3,0,1,,,,0,,,59,0
539648,note_on,,,,,0,0,1,,,,0,,,41,33
539648,note_on,,,,,0,0,1,,,,0,,,50,21
539648,note_off,,,,,0,0,1,,,,0,,,49,0
539648,note_off,,,,,64,0,1,,,,0,,,61,0
539648,note_off,,,,,0,0,1,,,,0,,,41,0
539653,control_change,,,,,5,0,1,,,,0,64,0,,
539657,note_on,,,,,4,0,1,,,,0,,,59,29
539712,note_off,,,,,55,0,1,,,,0,,,59,0
539719,control_change,,,,,7,0,1,,,,0,64,127,,
539720,note_on,,,,,1,0,1,,,,0,,,62,38
539772,note_on,,,,,52,0,1,,,,0,,,59,25
539776,note_off,,,,,4,0,1,,,,0,,,62,0
539840,note_on,,,,,0,0,1,,,,0,,,62,33
539840,note_off,,,,,64,0,1,,,,0,,,59,0
539895,note_on,,,,,55,0,1,,,,0,,,59,32
539904,note_off,,,,,9,0,1,,,,0,,,62,0
539968,note_on,,,,,0,0,1,,,,0,,,62,29
539968,note_off,,,,,64,0,1,,,,0,,,59,0
540032,note_off,,,,,64,0,1,,,,0,,,62,0
540037,note_on,,,,,5,0,1,,,,0,,,59,21
540092,note_on,,,,,55,0,1,,,,0,,,62,31
540096,note_off,,,,,4,0,1,,,,0,,,59,0
540153,note_on,,,,,57,0,1,,,,0,,,59,22
540160,note_off,,,,,7,0,1,,,,0,,,62,0
540224,note_off,,,,,64,0,1,,,,0,,,59,0
540233,note_on,,,,,9,0,1,,,,0,,,62,33
540283,note_on,,,,,50,0,1,,,,0,,,59,28
540288,note_off,,,,,5,0,1,,,,0,,,62,0
540352,note_off,,,,,64,0,1,,,,0,,,59,0
540356,note_on,,,,,4,0,1,,,,0,,,62,28
540416,note_off,,,,,60,0,1,,,,0,,,62,0
540421,note_on,,,,,5,0,1,,,,0,,,59,24
540480,note_off,,,,,59,0,1,,,,0,,,59,0
540488,note_on,,,,,8,0,1,,,,0,,,62,25
540544,note_on,,,,,0,0,1,,,,0,,,59,25
540544,note_off,,,,,56,0,1,,,,0,,,62,0
540603,note_on,,,,,59,0,1,,,,0,,,62,32
540608,note_off,,,,,5,0,1,,,,0,,,59,0
540664,note_on,,,,,56,0,1,,,,0,,,59,22
540672,note_off,,,,,8,0,1,,,,0,,,62,0
540736,note_off,,,,,64,0,1,,,,0,,,59,0
540742,note_on,,,,,6,0,1,,,,0,,,62,31
540800,note_off,,,,,58,0,1,,,,0,,,62,0
540809,note_on,,,,,9,0,1,,,,0,,,59,25
540860,note_on,,,,,51,0,1,,,,0,,,62,21
540864,note_off,,,,,4,0,1,,,,0,,,59,0
540928,note_off,,,,,64,0,1,,,,0,,,62,0
540935,note_on,,,,,7,0,1,,,,0,,,59,19
540983,note_on,,,,,48,0,1,,,,0,,,62,25
540992,note_off,,,,,9,0,1,,,,0,,,59,0
541047,note_on,,,,,55,0,1,,,,0,,,59,24
541056,note_off,,,,,9,0,1,,,,0,,,62,0
541115,note_on,,,,,59,0,1,,,,0,,,62,26
541120,note_off,,,,,5,0,1,,,,0,,,59,0
541184,note_off,,,,,64,0,1,,,,0,,,62,0
541189,note_on,,,,,5,0,1,,,,0,,,59,22
541241,note_on,,,,,52,0,1,,,,0,,,62,24
541248,note_off,,,,,7,0,1,,,,0,,,59,0
541312,note_off,,,,,64,0,1,,,,0,,,62,0
541315,note_on,,,,,3,0,1,,,,0,,,59,16
541376,note_off,,,,,61,0,1,,,,0,,,59,0
541384,note_on,,,,,8,0,1,,,,0,,,62,27
541440,note_off,,,,,56,0,1,,,,0,,,62,0
541441,note_on,,,,,1,0,1,,,,0,,,59,19
541504,note_off,,,,,63,0,1,,,,0,,,59,0
541511,note_on,,,,,7,0,1,,,,0,,,62,21
541568,note_off,,,,,57,0,1,,,,0,,,62,0
541577,note_on,,,,,9,0,1,,,,0,,,59,12
541632,set_tempo,,,,,4032,1,0,,2000000,,,,,,
541632,note_off,,,,,55,0,1,,,,0,,,59,0
541641,note_on,,,,,9,0,1,,,,0,,,62,25
541692,note_on,,,,,51,0,1,,,,0,,,41,19
541696,note_on,,,,,0,0,1,,,,0,,,61,26
541696,note_on,,,,,0,0,1,,,,0,,,59,14
541696,note_off,,,,,0,0,1,,,,0,,,50,0
541696,note_off,,,,,0,0,1,,,,0,,,41,0
541696,control_change,,,,,4,0,1,,,,0,64,0,,
541696,control_change,,,,,0,0,1,,,,0,64,0,,
541696,control_change,,,,,0,0,1,,,,0,64,127,,
541696,note_off,,,,,0,0,1,,,,0,,,62,0
541696,set_tempo,,,,,64,1,0,,1200000,,,,,,
541752,control_change,,,,,56,0,1,,,,0,64,0,,
541760,note_off,,,,,8,0,1,,,,0,,,41,0
541767,note_on,,,,,7,0,1,,,,0,,,49,11
541800,control_change,,,,,33,0,1,,,,0,64,127,,
541824,note_off,,,,,24,0,1,,,,0,,,49,0
541824,note_on,,,,,0,0,1,,,,0,,,41,4
541882,note_on,,,,,58,0,1,,,,0,,,49,10
541888,note_off,,,,,6,0,1,,,,0,,,41,0
541952,note_off,,,,,64,0,1,,,,0,,,49,0
541953,note_on,,,,,1,0,1,,,,0,,,41,14
542011,note_on,,,,,58,0,1,,,,0,,,49,8
542016,note_off,,,,,5,0,1,,,,0,,,41,0
542080,note_off,,,,,64,0,1,,,,0,,,49,0
542084,note_on,,,,,4,0,1,,,,0,,,41,9
542144,note_off,,,,,60,0,1,,,,0,,,41,0
542147,note_on,,,,,3,0,1,,,,0,,,49,5
542208,note_off,,,,,0,0,1,,,,0,,,49,0
542208,note_on,,,,,61,0,1,,,,0,,,63,22
542208,set_tempo,,,,,512,1,0,,857142,,,,,,
542211,note_on,,,,,3,0,1,,,,0,,,41,11
542268,note_on,,,,,57,0,1,,,,0,,,49,15
542272,note_off,,,,,4,0,1,,,,0,,,41,0
542310,note_off,,,,,38,0,1,,,,0,,,63,0
542310,note_on,,,,,0,0,1,,,,0,,,65,24
542336,note_off,,,,,26,0,1,,,,0,,,49,0
542342,note_on,,,,,6,0,1,,,,0,,,41,8
542399,note_on,,,,,57,0,1,,,,0,,,49,12
542400,note_off,,,,,1,0,1,,,,0,,,41,0
542413,note_off,,,,,13,0,1,,,,0,,,65,0
542413,note_on,,,,,0,0,1,,,,0,,,66,26
542461,note_on,,,,,48,0,1,,,,0,,,41,16
542464,note_off,,,,,3,0,1,,,,0,,,49,0
542515,note_off,,,,,51,0,1,,,,0,,,66,0
542515,note_on,,,,,0,0,1,,,,0,,,68,28
542519,note_on,,,,,4,0,1,,,,0,,,49,9
542528,note_off,,,,,9,0,1,,,,0,,,41,0
542592,note_off,,,,,64,0,1,,,,0,,,49,0
542593,note_on,,,,,1,0,1,,,,0,,,41,17
542618,note_off,,,,,25,0,1,,,,0,,,68,0
542618,note_on,,,,,0,0,1,,,,0,,,70,30
542651,note_on,,,,,33,0,1,,,,0,,,49,9
542656,note_off,,,,,5,0,1,,,,0,,,41,0
542720,note_off,,,,,64,0,1,,,,0,,,59,0
542720,note_off,,,,,0,0,1,,,,0,,,61,0
542720,note_off,,,,,0,0,1,,,,0,,,70,0
542720,note_off,,,,,0,0,1,,,,0,,,49,0
542720,note_on,,,,,0,0,1,,,,0,,,68,34
542720,note_on,,,,,0,0,1,,,,0,,,71,48
542720,set_tempo,,,,,512,1,0,,1200000,,,,,,
542721,note_on,,,,,1,0,1,,,,0,,,41,14
542777,note_on,,,,,56,0,1,,,,0,,,49,16
542784,note_off,,,,,7,0,1,,,,0,,,41,0
542842,note_on,,,,,58,0,1,,,,0,,,41,14
542848,note_off,,,,,6,0,1,,,,0,,,49,0
542912,note_off,,,,,64,0,1,,,,0,,,41,0
542918,note_on,,,,,6,0,1,,,,0,,,49,14
542975,note_on,,,,,57,0,1,,,,0,,,41,10
542976,note_off,,,,,1,0,1,,,,0,,,49,0
543033,note_on,,,,,57,0,1,,,,0,,,49,14
543040,note_off,,,,,7,0,1,,,,0,,,41,0
543103,note_on,,,,,63,0,1,,,,0,,,41,19
543104,note_off,,,,,1,0,1,,,,0,,,49,0
543168,note_off,,,,,64,0,1,,,,0,,,41,0
543174,note_on,,,,,6,0,1,,,,0,,,49,10
543232,note_on,,,,,58,0,1,,,,0,,,70,33
543232,note_off,,,,,0,0,1,,,,0,,,49,0
543232,set_tempo,,,,,512,1,0,,857142,,,,,,
543238,note_on,,,,,6,0,1,,,,0,,,41,19
543296,note_off,,,,,58,0,1,,,,0,,,41,0
543305,note_on,,,,,9,0,1,,,,0,,,49,13
543334,note_off,,,,,29,0,1,,,,0,,,70,0
543334,note_on,,,,,0,0,1,,,,0,,,68,30
543360,note_off,,,,,26,0,1,,,,0,,,49,0
543366,note_on,,,,,6,0,1,,,,0,,,41,17
543419,note_on,,,,,53,0,1,,,,0,,,49,18
543424,note_off,,,,,5,0,1,,,,0,,,41,0
543437,note_off,,,,,13,0,1,,,,0,,,68,0
543437,note_on,,,,,0,0,1,,,,0,,,66,26
543480,note_on,,,,,43,0,1,,,,0,,,41,13
543488,note_off,,,,,8,0,1,,,,0,,,49,0
543539,note_off,,,,,51,0,1,,,,0,,,66,0
543539,note_on,,,,,0,0,1,,,,0,,,65,23
543552,note_off,,,,,13,0,1,,,,0,,,41,0
543552,note_on,,,,,0,0,1,,,,0,,,49,14
543611,note_on,,,,,59,0,1,,,,0,,,41,14
543616,note_off,,,,,5,0,1,,,,0,,,49,0
543642,note_off,,,,,26,0,1,,,,0,,,65,0
543642,note_on,,,,,0,0,1,,,,0,,,63,20
543677,note_on,,,,,35,0,1,,,,0,,,49,16
543680,note_off,,,,,3,0,1,,,,0,,,41,0
543744,note_off,,,,,0,0,1,,,,0,,,49,0
543744,set_tempo,,,,,512,1,0,,1000000,,,,,,
543744,note_on,,,,,0,0,1,,,,0,,,59,23
543744,note_on,,,,,0,0,1,,,,0,,,61,36
543744,note_off,,,,,64,0,1,,,,0,,,63,0
543744,note_off,,,,,0,0,1,,,,0,,,68,0
543744,note_off,,,,,0,0,1,,,,0,,,71,0
543749,control_change,,,,,5,0,1,,,,0,64,0,,
543753,note_on,,,,,4,0,1,,,,0,,,41,18
543808,note_off,,,,,55,0,1,,,,0,,,41,0
543815,control_change,,,,,7,0,1,,,,0,64,127,,
543816,note_on,,,,,1,0,1,,,,0,,,49,18
543868,note_on,,,,,52,0,1,,,,0,,,41,15
543872,note_off,,,,,4,0,1,,,,0,,,49,0
543936,note_off,,,,,64,0,1,,,,0,,,41,0
543936,note_on,,,,,0,0,1,,,,0,,,49,17
543991,note_on,,,,,55,0,1,,,,0,,,41,21
544000,note_off,,,,,9,0,1,,,,0,,,49,0
544064,note_off,,,,,64,0,1,,,,0,,,41,0
544064,note_on,,,,,0,0,1,,,,0,,,49,14
544128,note_off,,,,,64,0,1,,,,0,,,49,0
544133,note_on,,,,,5,0,1,,,,0,,,41,12
544188,note_on,,,,,55,0,1,,,,0,,,49,16
544192,note_off,,,,,4,0,1,,,,0,,,41,0
544249,note_on,,,,,57,0,1,,,,0,,,41,13
544256,note_off,,,,,7,0,1,,,,0,,,49,0
544320,note_off,,,,,64,0,1,,,,0,,,41,0
544329,note_on,,,,,9,0,1,,,,0,,,49,18
544379,note_on,,,,,50,0,1,,,,0,,,41,18
544384,note_off,,,,,5,0,1,,,,0,,,49,0
544448,note_off,,,,,64,0,1,,,,0,,,41,0
544452,note_on,,,,,4,0,1,,,,0,,,49,13
544512,note_off,,,,,60,0,1,,,,0,,,49,0
544517,note_on,,,,,5,0,1,,,,0,,,41,15
544576,note_off,,,,,59,0,1,,,,0,,,41,0
544584,note_on,,,,,8,0,1,,,,0,,,49,11
544640,note_off,,,,,56,0,1,,,,0,,,49,0
544640,note_on,,,,,0,0,1,,,,0,,,41,16
544699,note_on,,,,,59,0,1,,,,0,,,49,18
544704,note_off,,,,,5,0,1,,,,0,,,41,0
544760,note_on,,,,,56,0,1,,,,0,,,41,13
544768,note_off,,,,,0,0,1,,,,0,,,49,0
544768,note_off,,,,,0,0,1,,,,0,,,61,0
544768,note_off,,,,,8,0,1,,,,0,,,59,0
544832,note_off,,,,,64,0,1,,,,0,,,41,0
544838,note_on,,,,,6,0,1,,,,0,,,49,17
544896,note_off,,,,,58,0,1,,,,0,,,49,0
544905,note_on,,,,,9,0,1,,,,0,,,41,16
544956,note_on,,,,,51,0,1,,,,0,,,49,8
544960,note_off,,,,,4,0,1,,,,0,,,41,0
545024,note_off,,,,,64,0,1,,,,0,,,49,0
545031,note_on,,,,,7,0,1,,,,0,,,41,11
545079,note_on,,,,,48,0,1,,,,0,,,49,12
545088,note_off,,,,,9,0,1,,,,0,,,41,0
545143,note_on,,,,,55,0,1,,,,0,,,41,16
545152,note_off,,,,,9,0,1,,,,0,,,49,0
545211,note_on,,,,,59,0,1,,,,0,,,49,13
545216,note_off,,,,,5,0,1,,,,0,,,41,0
545280,note_off,,,,,64,0,1,,,,0,,,49,0
545285,note_on,,,,,5,0,1,,,,0,,,41,14
545337,note_on,,,,,52,0,1,,,,0,,,49,11
545344,note_off,,,,,7,0,1,,,,0,,,41,0
545408,note_off,,,,,64,0,1,,,,0,,,49,0
545411,note_on,,,,,3,0,1,,,,0,,,41,9
545472,note_off,,,,,61,0,1,,,,0,,,41,0
545480,note_on,,,,,8,0,1,,,,0,,,49,14
545536,note_on,,,,,56,0,1,,,,0,,,58,26
545536,note_on,,,,,0,0,1,,,,0,,,61,38
545536,note_off,,,,,0,0,1,,,,0,,,49,0
545537,note_on,,,,,1,0,1,,,,0,,,41,12
545600,note_off,,,,,63,0,1,,,,0,,,41,0
545607,note_on,,,,,7,0,1,,,,0,,,49,9
545664,note_off,,,,,57,0,1,,,,0,,,49,0
545673,note_on,,,,,9,0,1,,,,0,,,41,5
545728,note_off,,,,,55,0,1,,,,0,,,41,0
545737,note_on,,,,,9,0,1,,,,0,,,49,13
545790,note_on,,,,,53,0,1,,,,0,,,58,17
545792,note_on,,,,,0,0,1,,,,0,,,42,33
545792,control_change,,,,,0,0,1,,,,0,64,127,,
545792,control_change,,,,,0,0,1,,,,0,64,0,,
545792,note_off,,,,,0,0,1,,,,0,,,58,0
545792,control_change,,,,,2,0,1,,,,0,64,0,,
545792,control_change,,,,,0,0,1,,,,0,64,0,,
545792,note_off,,,,,0,0,1,,,,0,,,49,0
545792,set_tempo,,,,,2048,1,0,,1000000,,,,,,
545792,note_off,,,,,0,0,1,,,,0,,,61,0
545792,note_on,,,,,0,0,1,,,,0,,,49,21
545848,control_change,,,,,56,0,1,,,,0,64,0,,
545851,note_on,,,,,3,0,1,,,,0,,,61,30
545856,note_off,,,,,5,0,1,,,,0,,,58,0
545896,control_change,,,,,40,0,1,,,,0,64,127,,
545918,note_on,,,,,22,0,1,,,,0,,,58,20
545920,note_off,,,,,2,0,1,,,,0,,,61,0
545984,note_on,,,,,0,0,1,,,,0,,,61,24
545984,note_off,,,,,64,0,1,,,,0,,,58,0
546048,note_off,,,,,64,0,1,,,,0,,,61,0
546051,note_on,,,,,3,0,1,,,,0,,,58,15
546112,note_off,,,,,61,0,1,,,,0,,,58,0
546117,note_on,,,,,5,0,1,,,,0,,,61,24
546176,note_off,,,,,59,0,1,,,,0,,,61,0
546176,note_on,,,,,0,0,1,,,,0,,,58,21
546240,note_off,,,,,64,0,1,,,,0,,,58,0
546243,note_on,,,,,3,0,1,,,,0,,,61,30
546304,note_on,,,,,0,0,1,,,,0,,,58,14
546304,note_off,,,,,61,0,1,,,,0,,,61,0
546368,note_off,,,,,64,0,1,,,,0,,,58,0
546371,note_on,,,,,3,0,1,,,,0,,,61,28
546426,note_on,,,,,55,0,1,,,,0,,,58,18
546432,note_off,,,,,6,0,1,,,,0,,,61,0
546496,note_off,,,,,64,0,1,,,,0,,,58,0
546498,note_on,,,,,2,0,1,,,,0,,,61,33
546560,note_on,,,,,0,0,1,,,,0,,,58,17
546560,note_off,,,,,62,0,1,,,,0,,,61,0
546619,note_on,,,,,59,0,1,,,,0,,,61,25
546624,note_off,,,,,5,0,1,,,,0,,,58,0
546688,note_off,,,,,64,0,1,,,,0,,,61,0
546694,note_on,,,,,6,0,1,,,,0,,,58,23
546752,note_off,,,,,58,0,1,,,,0,,,58,0
546756,note_on,,,,,4,0,1,,,,0,,,61,26
546816,note_off,,,,,60,0,1,,,,0,,,61,0
546818,note_on,,,,,2,0,1,,,,0,,,58,26
546872,note_on,,,,,54,0,1,,,,0,,,61,35
546880,note_off,,,,,8,0,1,,,,0,,,58,0
546944,note_off,,,,,64,0,1,,,,0,,,61,0
546944,note_on,,,,,0,0,1,,,,0,,,58,24
547000,note_on,,,,,56,0,1,,,,0,,,61,27
547008,note_off,,,,,8,0,1,,,,0,,,58,0
547072,note_off,,,,,64,0,1,,,,0,,,61,0
547077,note_on,,,,,5,0,1,,,,0,,,58,27
547134,note_on,,,,,57,0,1,,,,0,,,61,36
547136,note_off,,,,,2,0,1,,,,0,,,58,0
547200,note_off,,,,,64,0,1,,,,0,,,61,0
547202,note_on,,,,,2,0,1,,,,0,,,58,24
547264,note_on,,,,,0,0,1,,,,0,,,61,31
547264,note_off,,,,,62,0,1,,,,0,,,58,0
547328,note_off,,,,,64,0,1,,,,0,,,61,0
547331,note_on,,,,,3,0,1,,,,0,,,58,28
547388,note_on,,,,,57,0,1,,,,0,,,61,30
547392,note_off,,,,,4,0,1,,,,0,,,58,0
547456,note_off,,,,,64,0,1,,,,0,,,61,0
547459,note_on,,,,,3,0,1,,,,0,,,58,27
547512,note_on,,,,,53,0,1,,,,0,,,61,37
547520,note_off,,,,,8,0,1,,,,0,,,58,0
547582,note_on,,,,,62,0,1,,,,0,,,58,29
547584,note_off,,,,,2,0,1,,,,0,,,61,0
547648,note_off,,,,,64,0,1,,,,0,,,58,0
547651,note_on,,,,,3,0,1,,,,0,,,61,40
547712,note_off,,,,,61,0,1,,,,0,,,61,0
547720,note_on,,,,,8,0,1,,,,0,,,58,24
547776,note_off,,,,,56,0,1,,,,0,,,58,0
547783,note_on,,,,,7,0,1,,,,0,,,61,35
547833,note_on,,,,,50,0,1,,,,0,,,57,30
547840,note_on,,,,,0,0,1,,,,0,,,42,33
547840,note_off,,,,,0,0,1,,,,0,,,42,0
547840,note_off,,,,,7,0,1,,,,0,,,61,0
547840,note_on,,,,,0,0,1,,,,0,,,48,27
547840,note_off,,,,,0,0,1,,,,0,,,49,0
547845,control_change,,,,,5,0,1,,,,0,64,0,,
547904,note_off,,,,,59,0,1,,,,0,,,57,0
547911,control_change,,,,,7,0,1,,,,0,64,127,,
547913,note_on,,,,,2,0,1,,,,0,,,63,33
547968,note_off,,,,,55,0,1,,,,0,,,63,0
547974,note_on,,,,,6,0,1,,,,0,,,57,28
548032,note_off,,,,,58,0,1,,,,0,,,57,0
548032,note_on,,,,,0,0,1,,,,0,,,63,35
548096,note_off,,,,,64,0,1,,,,0,,,63,0
548098,note_on,,,,,2,0,1,,,,0,,,57,29
548155,note_on,,,,,57,0,1,,,,0,,,63,29
548160,note_off,,,,,5,0,1,,,,0,,,57,0
548215,note_on,,,,,55,0,1,,,,0,,,57,31
548224,note_off,,,,,9,0,1,,,,0,,,63,0
548281,note_on,,,,,57,0,1,,,,0,,,63,29
548288,note_off,,,,,7,0,1,,,,0,,,57,0
548350,note_on,,,,,62,0,1,,,,0,,,57,30
548352,note_off,,,,,2,0,1,,,,0,,,63,0
548416,note_on,,,,,0,0,1,,,,0,,,63,31
548416,note_off,,,,,64,0,1,,,,0,,,57,0
548480,note_off,,,,,64,0,1,,,,0,,,63,0
548487,note_on,,,,,7,0,1,,,,0,,,57,30
548537,note_on,,,,,50,0,1,,,,0,,,63,26
548544,note_off,,,,,7,0,1,,,,0,,,57,0
548608,note_off,,,,,64,0,1,,,,0,,,63,0
548614,note_on,,,,,6,0,1,,,,0,,,57,23
548664,note_on,,,,,50,0,1,,,,0,,,63,29
548672,note_off,,,,,8,0,1,,,,0,,,57,0
548736,note_off,,,,,64,0,1,,,,0,,,63,0
548741,note_on,,,,,5,0,1,,,,0,,,57,24
548799,note_on,,,,,58,0,1,,,,0,,,63,27
548800,note_off,,,,,1,0,1,,,,0,,,57,0
548855,note_on,,,,,55,0,1,,,,0,,,57,22
548864,note_off,,,,,9,0,1,,,,0,,,63,0
548928,note_off,,,,,64,0,1,,,,0,,,57,0
548936,note_on,,,,,8,0,1,,,,0,,,63,29
548992,note_off,,,,,56,0,1,,,,0,,,63,0
548997,note_on,,,,,5,0,1,,,,0,,,57,17
549056,note_off,,,,,59,0,1,,,,0,,,57,0
549058,note_on,,,,,2,0,1,,,,0,,,63,29
549120,note_on,,,,,0,0,1,,,,0,,,57,19
549120,note_off,,,,,62,0,1,,,,0,,,63,0
549176,note_on,,,,,56,0,1,,,,0,,,63,33
549184,note_off,,,,,8,0,1,,,,0,,,57,0
549244,note_on,,,,,60,0,1,,,,0,,,57,16
549248,note_off,,,,,4,0,1,,,,0,,,63,0
549312,note_off,,,,,64,0,1,,,,0,,,57,0
549319,note_on,,,,,7,0,1,,,,0,,,63,24
549376,note_off,,,,,57,0,1,,,,0,,,63,0
549382,note_on,,,,,6,0,1,,,,0,,,57,15
549434,note_on,,,,,52,0,1,,,,0,,,63,23
549440,note_off,,,,,6,0,1,,,,0,,,57,0
549504,note_on,,,,,0,0,1,,,,0,,,57,21
549504,note_off,,,,,64,0,1,,,,0,,,63,0
549568,note_on,,,,,0,0,1,,,,0,,,63,29
549568,note_off,,,,,64,0,1,,,,0,,,57,0
549628,note_on,,,,,60,0,1,,,,0,,,57,15
549632,note_off,,,,,4,0,1,,,,0,,,63,0
549688,note_on,,,,,56,0,1,,,,0,,,63,28
549696,note_off,,,,,8,0,1,,,,0,,,57,0
549755,note_on,,,,,59,0,1,,,,0,,,57,15
549760,note_off,,,,,5,0,1,,,,0,,,63,0
549815,note_on,,,,,55,0,1,,,,0,,,63,22
549824,note_off,,,,,9,0,1,,,,0,,,57,0
549884,note_on,,,,,60,0,1,,,,0,,,42,22
549888,note_off,,,,,0,0,1,,,,0,,,42,0
549888,note_off,,,,,0,0,1,,,,0,,,63,0
549888,control_change,,,,,0,0,1,,,,0,64,0,,
549888,control_change,,,,,0,0,1,,,,0,64,0,,
549888,control_change,,,,,0,0,1,,,,0,64,127,,
549888,control_change,,,,,0,0,1,,,,0,64,0,,
549888,control_change,,,,,4,0,1,,,,0,64,0,,
549888,note_on,,,,,0,0,1,,,,0,,,58,16
549888,note_on,,,,,0,0,1,,,,0,,,61,28
549888,set_tempo,,,,,4096,1,0,,1200000,,,,,,
549888,note_off,,,,,0,0,1,,,,0,,,48,0
549944,control_change,,,,,56,0,1,,,,0,64,0,,
549952,note_off,,,,,8,0,1,,,,0,,,42,0
549959,note_on,,,,,7,0,1,,,,0,,,49,11
549992,control_change,,,,,33,0,1,,,,0,64,127,,
550016,note_on,,,,,0,0,1,,,,0,,,42,4
550016,note_off,,,,,24,0,1,,,,0,,,49,0
550074,note_on,,,,,58,0,1,,,,0,,,49,10
550080,note_off,,,,,6,0,1,,,,0,,,42,0
550144,note_off,,,,,64,0,1,,,,0,,,49,0
550145,note_on,,,,,1,0,1,,,,0,,,42,14
550203,note_on,,,,,58,0,1,,,,0,,,49,8
550208,note_off,,,,,5,0,1,,,,0,,,42,0
550272,note_off,,,,,64,0,1,,,,0,,,49,0
550276,note_on,,,,,4,0,1,,,,0,,,42,9
550336,note_off,,,,,60,0,1,,,,0,,,42,0
550339,note_on,,,,,3,0,1,,,,0,,,49,5
550400,set_tempo,,,,,512,1,0,,857142,,,,,,
550400,note_off,,,,,61,0,1,,,,0,,,49,0
550403,note_on,,,,,3,0,1,,,,0,,,42,11
550460,note_on,,,,,57,0,1,,,,0,,,49,15
550464,note_off,,,,,4,0,1,,,,0,,,42,0
550502,note_on,,,,,38,0,1,,,,0,,,63,24
550528,note_off,,,,,26,0,1,,,,0,,,49,0
550534,note_on,,,,,6,0,1,,,,0,,,42,8
550591,note_on,,,,,57,0,1,,,,0,,,49,12
550592,note_off,,,,,1,0,1,,,,0,,,42,0
550605,note_on,,,,,0,0,1,,,,0,,,65,26
550605,note_off,,,,,13,0,1,,,,0,,,63,0
550653,note_on,,,,,48,0,1,,,,0,,,42,16
550656,note_off,,,,,3,0,1,,,,0,,,49,0
550707,note_on,,,,,0,0,1,,,,0,,,66,28
550707,note_off,,,,,51,0,1,,,,0,,,65,0
550711,note_on,,,,,4,0,1,,,,0,,,49,9
550720,note_off,,,,,9,0,1,,,,0,,,42,0
550784,note_off,,,,,64,0,1,,,,0,,,49,0
550785,note_on,,,,,1,0,1,,,,0,,,42,17
550810,note_on,,,,,0,0,1,,,,0,,,68,30
550810,note_off,,,,,25,0,1,,,,0,,,66,0
550843,note_on,,,,,33,0,1,,,,0,,,49,9
550848,note_off,,,,,5,0,1,,,,0,,,42,0
550912,note_off,,,,,0,0,1,,,,0,,,68,0
550912,note_off,,,,,0,0,1,,,,0,,,61,0
550912,note_off,,,,,64,0,1,,,,0,,,58,0
550912,note_on,,,,,0,0,1,,,,0,,,66,34
550912,set_tempo,,,,,512,1,0,,1200000,,,,,,
550912,note_off,,,,,0,0,1,,,,0,,,49,0
550912,note_on,,,,,0,0,1,,,,0,,,70,48
550913,note_on,,,,,1,0,1,,,,0,,,42,14
550969,note_on,,,,,56,0,1,,,,0,,,49,16
550976,note_off,,,,,7,0,1,,,,0,,,42,0
551034,note_on,,,,,58,0,1,,,,0,,,42,14
551040,note_off,,,,,6,0,1,,,,0,,,49,0
551104,note_off,,,,,64,0,1,,,,0,,,42,0
551110,note_on,,,,,6,0,1,,,,0,,,49,14
551167,note_on,,,,,57,0,1,,,,0,,,42,10
551168,note_off,,,,,1,0,1,,,,0,,,49,0
551225,note_on,,,,,57,0,1,,,,0,,,49,14
551232,note_off,,,,,7,0,1,,,,0,,,42,0
551295,note_on,,,,,63,0,1,,,,0,,,42,19
551296,note_off,,,,,1,0,1,,,,0,,,49,0
551360,note_off,,,,,64,0,1,,,,0,,,42,0
551366,note_on,,,,,6,0,1,,,,0,,,49,10
551424,note_off,,,,,58,0,1,,,,0,,,49,0
551424,set_tempo,,,,,512,1,0,,857142,,,,,,
551430,note_on,,,,,6,0,1,,,,0,,,42,19
551488,note_off,,,,,58,0,1,,,,0,,,42,0
551497,note_on,,,,,9,0,1,,,,0,,,49,13
551526,note_on,,,,,29,0,1,,,,0,,,68,30
551552,note_off,,,,,26,0,1,,,,0,,,49,0
551558,note_on,,,,,6,0,1,,,,0,,,42,17
551611,note_on,,,,,53,0,1,,,,0,,,49,18
551616,note_off,,,,,5,0,1,,,,0,,,42,0
551629,note_on,,,,,0,0,1,,,,0,,,66,26
551629,note_off,,,,,13,0,1,,,,0,,,68,0
551672,note_on,,,,,43,0,1,,,,0,,,42,13
551680,note_off,,,,,8,0,1,,,,0,,,49,0
551731,note_on,,,,,0,0,1,,,,0,,,65,23
551731,note_off,,,,,51,0,1,,,,0,,,66,0
551744,note_on,,,,,0,0,1,,,,0,,,49,14
551744,note_off,,,,,13,0,1,,,,0,,,42,0
551803,note_on,,,,,59,0,1,,,,0,,,42,14
551808,note_off,,,,,5,0,1,,,,0,,,49,0
551834,note_on,,,,,0,0,1,,,,0,,,63,20
551834,note_off,,,,,26,0,1,,,,0,,,65,0
551869,note_on,,,,,35,0,1,,,,0,,,49,16
551872,note_off,,,,,3,0,1,,,,0,,,42,0
551936,note_off,,,,,64,0,1,,,,0,,,63,0
551936,note_off,,,,,0,0,1,,,,0,,,66,0
551936,note_off,,,,,0,0,1,,,,0,,,70,0
551936,note_off,,,,,0,0,1,,,,0,,,49,0
551936,note_on,,,,,0,0,1,,,,0,,,61,36
551936,note_on,,,,,0,0,1,,,,0,,,58,23
551936,set_tempo,,,,,512,1,0,,1000000,,,,,,
551941,control_change,,,,,5,0,1,,,,0,64,0,,
551945,note_on,,,,,4,0,1,,,,0,,,42,18
552000,note_off,,,,,55,0,1,,,,0,,,42,0
552007,control_change,,,,,7,0,1,,,,0,64,127,,
552008,note_on,,,,,1,0,1,,,,0,,,49,18
552060,note_on,,,,,52,0,1,,,,0,,,42,15
552064,note_off,,,,,4,0,1,,,,0,,,49,0
552128,note_off,,,,,64,0,1,,,,0,,,42,0
552128,note_on,,,,,0,0,1,,,,0,,,49,17
552183,note_on,,,,,55,0,1,,,,0,,,42,21
552192,note_off,,,,,9,0,1,,,,0,,,49,0
552256,note_on,,,,,0,0,1,,,,0,,,49,14
552256,note_off,,,,,64,0,1,,,,0,,,42,0
552320,note_off,,,,,64,0,1,,,,0,,,49,0
552325,note_on,,,,,5,0,1,,,,0,,,42,12
552380,note_on,,,,,55,0,1,,,,0,,,49,16
552384,note_off,,,,,4,0,1,,,,0,,,42,0
552441,note_on,,,,,57,0,1,,,,0,,,42,13
552448,note_off,,,,,7,0,1,,,,0,,,49,0
552512,note_off,,,,,64,0,1,,,,0,,,42,0
552521,note_on,,,,,9,0,1,,,,0,,,49,18
552571,note_on,,,,,50,0,1,,,,0,,,42,18
552576,note_off,,,,,5,0,1,,,,0,,,49,0
552640,note_off,,,,,64,0,1,,,,0,,,42,0
552644,note_on,,,,,4,0,1,,,,0,,,49,13
552704,note_off,,,,,60,0,1,,,,0,,,49,0
552709,note_on,,,,,5,0,1,,,,0,,,42,15
552768,note_off,,,,,59,0,1,,,,0,,,42,0
552776,note_on,,,,,8,0,1,,,,0,,,49,11
552832,note_on,,,,,0,0,1,,,,0,,,42,16
552832,note_off,,,,,56,0,1,,,,0,,,49,0
552891,note_on,,,,,59,0,1,,,,0,,,49,18
552896,note_off,,,,,5,0,1,,,,0,,,42,0
552952,note_on,,,,,56,0,1,,,,0,,,42,13
552960,note_off,,,,,0,0,1,,,,0,,,49,0
552960,note_off,,,,,0,0,1,,,,0,,,61,0
552960,note_off,,,,,8,0,1,,,,0,,,58,0
553024,note_off,,,,,64,0,1,,,,0,,,42,0
553030,note_on,,,,,6,0,1,,,,0,,,49,17
553088,note_off,,,,,58,0,1,,,,0,,,49,0
553097,note_on,,,,,9,0,1,,,,0,,,42,16
553148,note_on,,,,,51,0,1,,,,0,,,49,8
553152,note_off,,,,,4,0,1,,,,0,,,42,0
553216,note_off,,,,,64,0,1,,,,0,,,49,0
553223,note_on,,,,,7,0,1,,,,0,,,42,11
553271,note_on,,,,,48,0,1,,,,0,,,49,12
553280,note_off,,,,,9,0,1,,,,0,,,42,0
553335,note_on,,,,,55,0,1,,,,0,,,42,16
553344,note_off,,,,,9,0,1,,,,0,,,49,0
553403,note_on,,,,,59,0,1,,,,0,,,49,13
553408,note_off,,,,,5,0,1,,,,0,,,42,0
553472,note_off,,,,,64,0,1,,,,0,,,49,0
553477,note_on,,,,,5,0,1,,,,0,,,42,14
553529,note_on,,,,,52,0,1,,,,0,,,49,11
553536,note_off,,,,,7,0,1,,,,0,,,42,0
553600,note_off,,,,,64,0,1,,,,0,,,49,0
553603,note_on,,,,,3,0,1,,,,0,,,42,9
553664,note_off,,,,,61,0,1,,,,0,,,42,0
553672,note_on,,,,,8,0,1,,,,0,,,49,14
553728,note_on,,,,,56,0,1,,,,0,,,54,57
553728,note_off,,,,,0,0,1,,,,0,,,49,0
553728,note_on,,,,,0,0,1,,,,0,,,61,70
553728,note_on,,,,,0,0,1,,,,0,,,58,57
553729,note_on,,,,,1,0,1,,,,0,,,42,12
553792,note_off,,,,,63,0,1,,,,0,,,42,0
553799,note_on,,,,,7,0,1,,,,0,,,49,9
553856,note_off,,,,,57,0,1,,,,0,,,49,0
553865,note_on,,,,,9,0,1,,,,0,,,42,5
553920,note_off,,,,,55,0,1,,,,0,,,42,0
553929,note_on,,,,,9,0,1,,,,0,,,49,13
553984,note_on,,,,,0,0,1,,,,0,,,47,62
553984,control_change,,,,,55,0,1,,,,0,64,0,,
553984,note_on,,,,,0,0,1,,,,0,,,66,75
553984,note_on,,,,,0,0,1,,,,0,,,62,69
553984,note_on,,,,,0,0,1,,,,0,,,59,60
553984,note_on,,,,,0,0,1,,,,0,,,54,60
553984,note_off,,,,,0,0,1,,,,0,,,49,0
553984,note_off,,,,,0,0,1,,,,0,,,61,0
553984,note_off,,,,,0,0,1,,,,0,,,58,0
553984,note_off,,,,,0,0,1,,,,0,,,54,0
553984,control_change,,,,,0,0,1,,,,0,64,127,,
553984,note_on,,,,,0,0,1,,,,0,,,35,50
553984,note_on,,,,,0,0,1,,,,0,,,42,50
554263,control_change,,,,,279,0,1,,,,0,64,0,,
554696,note_off,,,,,0,0,1,,,,0,,,59,0
554696,note_off,,,,,433,0,1,,,,0,,,54,0
554696,note_off,,,,,0,0,1,,,,0,,,62,0
554696,note_off,,,,,0,0,1,,,,0,,,66,0
555008,note_on,,,,,0,0,1,,,,0,,,78,79
555008,note_on,,,,,312,0,1,,,,0,,,66,64
555008,note_on,,,,,0,0,1,,,,0,,,71,64
555008,note_on,,,,,0,0,1,,,,0,,,74,64
555380,control_change,,,,,372,0,1,,,,0,64,127,,
557056,note_off,,,,,0,0,1,,,,0,,,74,0
557056,note_off,,,,,1676,0,1,,,,0,,,66,0
557056,note_on,,,,,0,0,1,,,,0,,,74,67
557056,note_on,,,,,0,0,1,,,,0,,,71,52
557056,note_on,,,,,0,0,1,,,,0,,,66,52
557056,note_off,,,,,0,0,1,,,,0,,,78,0
557056,note_off,,,,,0,0,1,,,,0,,,71,0
557056,set_tempo,,,,,5120,1,0,,1090909,,,,,,
557242,control_change,,,,,186,0,1,,,,0,64,0,,
557615,control_change,,,,,373,0,1,,,,0,64,127,,
558080,note_on,,,,,0,0,1,,,,0,,,65,42
558080,control_change,,,,,465,0,1,,,,0,64,0,,
558080,note_on,,,,,0,0,1,,,,0,,,49,35
558080,note_on,,,,,0,0,1,,,,0,,,71,42
558080,note_on,,,,,0,0,1,,,,0,,,73,57
558080,set_tempo,,,,,1024,1,0,,1000000,,,,,,
558080,note_on,,,,,0,0,1,,,,0,,,44,26
558080,control_change,,,,,0,0,1,,,,0,64,127,,
558080,note_on,,,,,0,0,1,,,,0,,,37,26
558080,note_off,,,,,0,0,1,,,,0,,,71,0
558080,note_off,,,,,0,0,1,,,,0,,,74,0
558080,note_off,,,,,0,0,1,,,,0,,,35,0
558080,note_off,,,,,0,0,1,,,,0,,,42,0
558080,note_off,,,,,0,0,1,,,,0,,,47,0
558080,note_off,,,,,0,0,1,,,,0,,,66,0
558313,control_change,,,,,233,0,1,,,,0,64,0,,
558732,control_change,,,,,419,0,1,,,,0,64,127,,
560128,note_off,,,,,0,0,1,,,,0,,,44,0
560128,note_on,,,,,0,0,1,,,,0,,,70,36
560128,control_change,,,,,1396,0,1,,,,0,64,0,,
560128,note_off,,,,,0,0,1,,,,0,,,65,0
560128,note_off,,,,,0,0,1,,,,0,,,71,0
560128,note_off,,,,,0,0,1,,,,0,,,49,0
560128,note_on,,,,,0,0,1,,,,0,,,66,36
560128,note_off,,,,,0,0,1,,,,0,,,37,0
560128,note_on,,,,,0,0,1,,,,0,,,37,22
560128,note_on,,,,,0,0,1,,,,0,,,46,22
560128,note_on,,,,,0,0,1,,,,0,,,49,31
560128,note_off,,,,,0,0,1,,,,0,,,73,0
560128,note_on,,,,,0,0,1,,,,0,,,73,50
560500,control_change,,,,,372,0,1,,,,0,64,127,,
561152,note_off,,,,,652,0,1,,,,0,,,66,0
561152,note_off,,,,,0,0,1,,,,0,,,70,0
561152,note_off,,,,,0,0,1,,,,0,,,73,0
561152,note_off,,,,,0,0,1,,,,0,,,49,0
561152,note_on,,,,,0,0,1,,,,0,,,61,34
561152,note_on,,,,,0,0,1,,,,0,,,66,34
561152,note_on,,,,,0,0,1,,,,0,,,71,48
561152,note_on,,,,,0,0,1,,,,0,,,49,29
561152,note_off,,,,,0,0,1,,,,0,,,46,0
561152,set_tempo,,,,,3072,1,0,,1090909,,,,,,
561292,control_change,,,,,140,0,1,,,,0,64,0,,
561664,set_tempo,,,,,512,1,0,,1000000,,,,,,
561664,note_on,,,,,372,0,1,,,,0,,,70,47
561704,note_off,,,,,40,0,1,,,,0,,,71,0
562176,note_on,,,,,0,0,1,,,,0,,,51,26
562176,note_on,,,,,0,0,1,,,,0,,,37,26
562176,note_on,,,,,0,0,1,,,,0,,,73,51
562176,note_on,,,,,0,0,1,,,,0,,,63,32
562176,note_on,,,,,0,0,1,,,,0,,,68,32
562176,note_off,,,,,0,0,1,,,,0,,,49,0
562176,note_off,,,,,0,0,1,,,,0,,,37,0
562176,note_off,,,,,0,0,1,,,,0,,,66,0
562176,note_off,,,,,0,0,1,,,,0,,,61,0
562176,control_change,,,,,472,0,1,,,,0,64,0,,
562176,control_change,,,,,0,0,1,,,,0,64,0,,
562216,note_off,,,,,40,0,1,,,,0,,,70,0
562595,control_change,,,,,379,0,1,,,,0,64,127,,
563968,note_on,,,,,0,0,1,,,,0,,,53,23
563968,note_on,,,,,0,0,1,,,,0,,,71,42
563968,note_on,,,,,0,0,1,,,,0,,,65,23
563968,note_off,,,,,0,0,1,,,,0,,,51,0
563968,note_off,,,,,0,0,1,,,,0,,,73,0
563968,note_off,,,,,1373,0,1,,,,0,,,63,0
563968,set_tempo,,,,,2304,1,0,,1200000,,,,,,
564224,note_off,,,,,0,0,1,,,,0,,,53,0
564224,note_off,,,,,0,0,1,,,,0,,,71,0
564224,note_off,,,,,0,0,1,,,,0,,,65,0
564224,note_off,,,,,256,0,1,,,,0,,,68,0
564224,note_on,,,,,0,0,1,,,,0,,,66,23
564224,set_tempo,,,,,256,1,0,,1000000,,,,,,
564224,note_on,,,,,0,0,1,,,,0,,,54,22
564224,note_on,,,,,0,0,1,,,,0,,,70,42
564271,control_change,,,,,47,0,1,,,,0,64,0,,
564643,control_change,,,,,372,0,1,,,,0,64,127,,
565248,note_off,,,,,605,0,1,,,,0,,,66,0
565248,note_off,,,,,0,0,1,,,,0,,,70,0
565248,note_off,,,,,0,0,1,,,,0,,,37,0
565248,note_on,,,,,0,0,1,,,,0,,,59,22
565248,note_on,,,,,0,0,1,,,,0,,,61,22
565248,note_on,,,,,0,0,1,,,,0,,,65,22
565248,note_on,,,,,0,0,1,,,,0,,,68,36
565248,note_on,,,,,0,0,1,,,,0,,,37,11
565248,note_on,,,,,0,0,1,,,,0,,,49,20
565248,note_off,,,,,0,0,1,,,,0,,,54,0
565248,set_tempo,,,,,1024,1,0,,1090909,,,,,,
565434,control_change,,,,,186,0,1,,,,0,64,0,,
565807,control_change,,,,,373,0,1,,,,0,64,127,,
566272,note_on,,,,,0,0,1,,,,0,,,54,20
566272,note_on,,,,,0,0,1,,,,0,,,49,13
566272,note_on,,,,,0,0,1,,,,0,,,42,13
566272,note_on,,,,,0,0,1,,,,0,,,66,35
566272,control_change,,,,,465,0,1,,,,0,64,0,,
566272,note_on,,,,,0,0,1,,,,0,,,61,23
566272,note_off,,,,,0,0,1,,,,0,,,59,0
566272,note_off,,,,,0,0,1,,,,0,,,49,0
566272,note_off,,,,,0,0,1,,,,0,,,37,0
566272,note_off,,,,,0,0,1,,,,0,,,68,0
566272,note_off,,,,,0,0,1,,,,0,,,65,0
566272,note_off,,,,,0,0,1,,,,0,,,61,0
566272,note_on,,,,,0,0,1,,,,0,,,58,23
566272,control_change,,,,,0,0,1,,,,0,64,127,,
566505,control_change,,,,,233,0,1,,,,0,64,0,,
566831,control_change,,,,,326,0,1,,,,0,64,127,,
568320,set_tempo,,,,,3072,1,0,,1333333,,,,,,
568320,note_on,,,,,0,0,1,,,,0,,,54,12
568320,note_on,,,,,0,0,1,,,,0,,,49,5
568320,note_on,,,,,0,0,1,,,,0,,,42,5
568320,note_on,,,,,0,0,1,,,,0,,,66,30
568320,note_on,,,,,0,0,1,,,,0,,,64,18
568320,note_on,,,,,0,0,1,,,,0,,,58,18
568320,note_off,,,,,0,0,1,,,,0,,,54,0
568320,note_off,,,,,0,0,1,,,,0,,,49,0
568320,note_off,,,,,0,0,1,,,,0,,,42,0
568320,note_off,,,,,0,0,1,,,,0,,,66,0
568320,note_off,,,,,0,0,1,,,,0,,,61,0
568320,note_off,,,,,1489,0,1,,,,0,,,58,0
570182,control_change,,,,,1862,0,1,,,,0,64,0,,
570368,note_off,,,,,0,0,1,,,,0,,,58,0
570368,note_off,,,,,0,0,1,,,,0,,,64,0
570368,note_off,,,,,0,0,1,,,,0,,,66,0
570368,note_off,,,,,0,0,1,,,,0,,,42,0
570368,note_off,,,,,0,0,1,,,,0,,,49,0
570368,note_off,,,,,0,0,1,,,,0,,,54,0
570368,note_on,,,,,0,0,1,,,,0,,,54,27
570368,note_on,,,,,0,0,1,,,,0,,,63,27
570368,note_on,,,,,0,0,1,,,,0,,,66,38
570368,note_on,,,,,0,0,1,,,,0,,,35,17
570368,note_on,,,,,0,0,1,,,,0,,,42,17
570368,control_change,,,,,0,0,1,,,,0,64,127,,
570368,note_on,,,,,0,0,1,,,,0,,,47,26
570368,control_change,,,,,186,0,1,,,,0,64,0,,
570368,set_tempo,,,,,2048,1,0,,1000000,,,,,,
570470,control_change,,,,,102,0,1,,,,0,64,0,,
570622,control_change,,,,,152,0,1,,,,0,64,127,,
572416,note_on,,,,,0,0,1,,,,0,,,51,23
572416,note_off,,,,,1794,0,1,,,,0,,,63,0
572416,note_on,,,,,0,0,1,,,,0,,,59,23
572416,note_on,,,,,0,0,1,,,,0,,,63,35
572456,note_off,,,,,0,0,1,,,,0,,,66,0
572456,note_off,,,,,40,0,1,,,,0,,,54,0
572490,control_change,,,,,34,0,1,,,,0,64,0,,
572636,control_change,,,,,146,0,1,,,,0,64,127,,
572928,note_on,,,,,292,0,1,,,,0,,,64,33
572928,set_tempo,,,,,2560,1,0,,857142,,,,,,
572968,note_off,,,,,40,0,1,,,,0,,,63,0
573099,note_on,,,,,131,0,1,,,,0,,,63,31
573099,set_tempo,,,,,171,1,0,,750000,,,,,,
573127,control_change,,,,,28,0,1,,,,0,64,0,,
573139,note_off,,,,,12,0,1,,,,0,,,64,0
573262,control_change,,,,,123,0,1,,,,0,64,127,,
573269,note_on,,,,,7,0,1,,,,0,,,61,30
573440,set_tempo,,,,,341,1,0,,1000000,,,,,,
573440,note_on,,,,,0,0,1,,,,0,,,63,29
573440,note_off,,,,,171,0,1,,,,0,,,63,0
573480,note_off,,,,,40,0,1,,,,0,,,61,0
573516,control_change,,,,,36,0,1,,,,0,64,0,,
573668,control_change,,,,,152,0,1,,,,0,64,127,,
573952,note_on,,,,,0,0,1,,,,0,,,64,47
573952,set_tempo,,,,,512,1,0,,1090909,,,,,,
573952,note_on,,,,,0,0,1,,,,0,,,61,33
573952,note_on,,,,,284,0,1,,,,0,,,52,33
573992,note_off,,,,,0,0,1,,,,0,,,63,0
573992,note_off,,,,,0,0,1,,,,0,,,59,0
573992,note_off,,,,,40,0,1,,,,0,,,51,0
574024,control_change,,,,,32,0,1,,,,0,64,0,,
574176,control_change,,,,,152,0,1,,,,0,64,127,,
574464,control_change,,,,,0,0,1,,,,0,64,0,,
574464,control_change,,,,,0,0,1,,,,0,64,127,,
574464,control_change,,,,,0,0,1,,,,0,64,0,,
574464,note_off,,,,,0,0,1,,,,0,,,42,0
574464,note_off,,,,,0,0,1,,,,0,,,64,0
574464,note_off,,,,,0,0,1,,,,0,,,35,0
574464,note_on,,,,,0,0,1,,,,0,,,64,37
574464,note_off,,,,,0,0,1,,,,0,,,47,0
574464,set_tempo,,,,,512,1,0,,1090909,,,,,,
574464,note_on,,,,,0,0,1,,,,0,,,68,51
574464,note_on,,,,,0,0,1,,,,0,,,35,26
574464,note_on,,,,,0,0,1,,,,0,,,45,33
574464,note_on,,,,,0,0,1,,,,0,,,47,21
574464,control_change,,,,,288,0,1,,,,0,64,0,,
574464,note_on,,,,,0,0,1,,,,0,,,56,37
574504,note_off,,,,,40,0,1,,,,0,,,52,0
574504,note_off,,,,,0,0,1,,,,0,,,61,0
574566,control_change,,,,,62,0,1,,,,0,64,0,,
574667,control_change,,,,,101,0,1,,,,0,64,127,,
575232,note_off,,,,,565,0,1,,,,0,,,56,0
575232,note_off,,,,,0,0,1,,,,0,,,64,0
575232,note_off,,,,,0,0,1,,,,0,,,68,0
575232,note_on,,,,,0,0,1,,,,0,,,54,29
575232,note_on,,,,,0,0,1,,,,0,,,63,29
575232,note_on,,,,,0,0,1,,,,0,,,66,43
575488,set_tempo,,,,,1024,1,0,,1000000,,,,,,
575488,note_off,,,,,256,0,1,,,,0,,,54,0
575488,note_off,,,,,0,0,1,,,,0,,,63,0
575488,note_off,,,,,0,0,1,,,,0,,,66,0
575488,note_on,,,,,0,0,1,,,,0,,,54,28
575488,note_on,,,,,0,0,1,,,,0,,,66,42
575488,note_on,,,,,0,0,1,,,,0,,,63,28
575581,control_change,,,,,93,0,1,,,,0,64,0,,
575835,control_change,,,,,254,0,1,,,,0,64,127,,
577024,note_on,,,,,0,0,1,,,,0,,,63,40
577024,set_tempo,,,,,1536,1,0,,1000000,,,,,,
577024,note_on,,,,,0,0,1,,,,0,,,66,32
577024,note_on,,,,,0,0,1,,,,0,,,59,30
577024,note_on,,,,,0,0,1,,,,0,,,54,32
577024,note_off,,,,,0,0,1,,,,0,,,66,0
577024,note_off,,,,,0,0,1,,,,0,,,63,0
577024,note_off,,,,,1189,0,1,,,,0,,,54,0
577536,set_tempo,,,,,512,1,0,,857142,,,,,,
577536,note_on,,,,,0,0,1,,,,0,,,59,35
577536,note_on,,,,,0,0,1,,,,0,,,52,38
577536,note_off,,,,,512,0,1,,,,0,,,54,0
577536,note_off,,,,,0,0,1,,,,0,,,59,0
577536,note_off,,,,,0,0,1,,,,0,,,66,0
577536,note_off,,,,,0,0,1,,,,0,,,63,0
577536,note_on,,,,,0,0,1,,,,0,,,64,47
577561,control_change,,,,,25,0,1,,,,0,64,0,,
577764,control_change,,,,,203,0,1,,,,0,64,127,,
578048,note_off,,,,,0,0,1,,,,0,,,64,0
578048,note_on,,,,,0,0,1,,,,0,,,51,35
578048,note_off,,,,,284,0,1,,,,0,,,52,0
578048,note_on,,,,,0,0,1,,,,0,,,63,44
578048,set_tempo,,,,,512,1,0,,1090909,,,,,,
578048,note_off,,,,,0,0,1,,,,0,,,59,0
578048,note_on,,,,,0,0,1,,,,0,,,59,32
578137,control_change,,,,,89,0,1,,,,0,64,0,,
578306,control_change,,,,,169,0,1,,,,0,64,127,,
578560,set_tempo,,,,,512,1,0,,1000000,,,,,,
578560,control_change,,,,,0,0,1,,,,0,64,0,,
578560,control_change,,,,,254,0,1,,,,0,64,0,,
578560,note_on,,,,,0,0,1,,,,0,,,47,23
578560,note_on,,,,,0,0,1,,,,0,,,44,11
578560,note_on,,,,,0,0,1,,,,0,,,35,11
578560,note_on,,,,,0,0,1,,,,0,,,64,48
578560,note_on,,,,,0,0,1,,,,0,,,59,34
578560,note_off,,,,,0,0,1,,,,0,,,47,0
578560,note_on,,,,,0,0,1,,,,0,,,52,34
578560,note_off,,,,,0,0,1,,,,0,,,35,0
578560,note_off,,,,,0,0,1,,,,0,,,63,0
578560,note_off,,,,,0,0,1,,,,0,,,59,0
578560,note_off,,,,,0,0,1,,,,0,,,51,0
578560,control_change,,,,,0,0,1,,,,0,64,127,,
578560,control_change,,,,,0,0,1,,,,0,64,0,,
578560,note_off,,,,,0,0,1,,,,0,,,45,0
578695,control_change,,,,,135,0,1,,,,0,64,0,,
578915,control_change,,,,,220,0,1,,,,0,64,127,,
579384,note_on,,,,,469,0,1,,,,0,,,64,25
579484,note_on,,,,,100,0,1,,,,0,,,71,19
579584,set_tempo,,,,,1024,1,0,,857142,,,,,,
579584,note_on,,,,,100,0,1,,,,0,,,76,33
579608,note_off,,,,,24,0,1,,,,0,,,64,0
580458,note_on,,,,,850,0,1,,,,0,,,68,18
580488,note_off,,,,,30,0,1,,,,0,,,76,0
580533,note_on,,,,,45,0,1,,,,0,,,76,18
580598,note_off,,,,,65,0,1,,,,0,,,52,0
580598,note_off,,,,,0,0,1,,,,0,,,59,0
580608,note_off,,,,,10,0,1,,,,0,,,71,0
580608,note_on,,,,,0,0,1,,,,0,,,80,30
581120,note_on,,,,,512,0,1,,,,0,,,52,30
581120,note_on,,,,,0,0,1,,,,0,,,59,30
581120,note_on,,,,,0,0,1,,,,0,,,64,44
581120,set_tempo,,,,,1536,1,0,,923076,,,,,,
581622,note_off,,,,,502,0,1,,,,0,,,64,0
581632,set_tempo,,,,,512,1,0,,857142,,,,,,
581632,note_on,,,,,0,0,1,,,,0,,,59,28
581632,note_on,,,,,0,0,1,,,,0,,,51,28
581632,note_on,,,,,0,0,1,,,,0,,,63,42
581632,note_off,,,,,0,0,1,,,,0,,,59,0
581632,note_off,,,,,0,0,1,,,,0,,,52,0
581632,note_off,,,,,10,0,1,,,,0,,,68,0
581632,note_off,,,,,0,0,1,,,,0,,,80,0
581632,note_off,,,,,0,0,1,,,,0,,,76,0
581632,note_off,,,,,0,0,1,,,,0,,,64,0
581691,control_change,,,,,59,0,1,,,,0,64,0,,
581860,control_change,,,,,169,0,1,,,,0,64,127,,
582144,note_off,,,,,0,0,1,,,,0,,,63,0
582144,note_on,,,,,0,0,1,,,,0,,,49,26
582144,note_on,,,,,0,0,1,,,,0,,,59,26
582144,note_on,,,,,0,0,1,,,,0,,,61,40
582144,note_off,,,,,284,0,1,,,,0,,,51,0
582144,set_tempo,,,,,512,1,0,,1000000,,,,,,
582144,note_off,,,,,0,0,1,,,,0,,,59,0
582250,control_change,,,,,106,0,1,,,,0,64,0,,
582453,control_change,,,,,203,0,1,,,,0,64,127,,
582656,note_on,,,,,0,0,1,,,,0,,,59,23
582656,set_tempo,,,,,512,1,0,,1200000,,,,,,
582656,note_on,,,,,0,0,1,,,,0,,,47,21
582656,note_on,,,,,0,0,1,,,,0,,,42,9
582656,note_on,,,,,0,0,1,,,,0,,,35,9
582656,note_on,,,,,0,0,1,,,,0,,,63,37
582656,note_on,,,,,0,0,1,,,,0,,,51,23
582656,note_off,,,,,0,0,1,,,,0,,,44,0
582656,control_change,,,,,0,0,1,,,,0,64,0,,
582656,control_change,,,,,0,0,1,,,,0,64,127,,
582656,control_change,,,,,0,0,1,,,,0,64,0,,
582656,note_off,,,,,0,0,1,,,,0,,,47,0
582656,control_change,,,,,203,0,1,,,,0,64,0,,
582656,note_off,,,,,0,0,1,,,,0,,,59,0
582656,note_off,,,,,0,0,1,,,,0,,,49,0
582656,note_off,,,,,0,0,1,,,,0,,,35,0
582656,note_off,,,,,0,0,1,,,,0,,,61,0
582758,control_change,,,,,102,0,1,,,,0,64,0,,
582961,control_change,,,,,203,0,1,,,,0,64,127,,
583480,note_on,,,,,519,0,1,,,,0,,,63,22
583580,note_on,,,,,100,0,1,,,,0,,,71,14
583614,note_off,,,,,34,0,1,,,,0,,,63,0
583680,note_on,,,,,66,0,1,,,,0,,,75,28
583680,set_tempo,,,,,1024,1,0,,1000000,,,,,,
584484,note_off,,,,,804,0,1,,,,0,,,75,0
584554,note_on,,,,,70,0,1,,,,0,,,66,22
584629,note_on,,,,,75,0,1,,,,0,,,75,22
584694,note_off,,,,,0,0,1,,,,0,,,59,0
584694,note_off,,,,,65,0,1,,,,0,,,51,0
584704,note_off,,,,,10,0,1,,,,0,,,71,0
584704,note_on,,,,,0,0,1,,,,0,,,78,34
585216,set_tempo,,,,,1536,1,0,,923076,,,,,,
585216,note_on,,,,,0,0,1,,,,0,,,63,65
585216,note_on,,,,,0,0,1,,,,0,,,59,50
585216,note_on,,,,,512,0,1,,,,0,,,51,50
585718,note_off,,,,,502,0,1,,,,0,,,63,0
585728,note_off,,,,,0,0,1,,,,0,,,59,0
585728,note_off,,,,,0,0,1,,,,0,,,63,0
585728,note_on,,,,,0,0,1,,,,0,,,52,53
585728,note_on,,,,,0,0,1,,,,0,,,59,53
585728,note_on,,,,,0,0,1,,,,0,,,64,68
585728,note_off,,,,,0,0,1,,,,0,,,78,0
585728,note_off,,,,,10,0,1,,,,0,,,66,0
585728,note_off,,,,,0,0,1,,,,0,,,51,0
585728,note_off,,,,,0,0,1,,,,0,,,75,0
585770,control_change,,,,,42,0,1,,,,0,64,0,,
586058,control_change,,,,,288,0,1,,,,0,64,127,,
586240,set_tempo,,,,,1024,1,0,,1000000,,,,,,
586240,note_on,,,,,0,0,1,,,,0,,,54,57
586240,note_on,,,,,0,0,1,,,,0,,,66,72
586240,note_on,,,,,0,0,1,,,,0,,,59,57
586240,note_off,,,,,0,0,1,,,,0,,,64,0
586240,note_off,,,,,0,0,1,,,,0,,,59,0
586240,note_off,,,,,182,0,1,,,,0,,,52,0
586752,note_off,,,,,0,0,1,,,,0,,,59,0
586752,note_off,,,,,0,0,1,,,,0,,,54,0
586752,control_change,,,,,512,0,1,,,,0,64,0,,
586752,note_on,,,,,0,0,1,,,,0,,,47,64
586752,note_on,,,,,0,0,1,,,,0,,,40,52
586752,control_change,,,,,0,0,1,,,,0,64,127,,
586752,note_on,,,,,0,0,1,,,,0,,,67,75
586752,note_on,,,,,0,0,1,,,,0,,,55,60
586752,note_off,,,,,0,0,1,,,,0,,,47,0
586752,note_off,,,,,0,0,1,,,,0,,,42,0
586752,note_on,,,,,0,0,1,,,,0,,,59,60
586752,note_off,,,,,0,0,1,,,,0,,,35,0
586752,note_off,,,,,0,0,1,,,,0,,,66,0
586752,note_on,,,,,0,0,1,,,,0,,,35,52
586904,control_change,,,,,152,0,1,,,,0,64,0,,
587283,control_change,,,,,379,0,1,,,,0,64,127,,
587776,note_on,,,,,0,0,1,,,,0,,,79,69
587776,note_on,,,,,0,0,1,,,,0,,,76,57
587776,note_on,,,,,493,0,1,,,,0,,,67,57
587800,note_off,,,,,24,0,1,,,,0,,,67,0
588780,note_off,,,,,0,0,1,,,,0,,,59,0
588780,note_off,,,,,980,0,1,,,,0,,,55,0
588800,note_off,,,,,20,0,1,,,,0,,,76,0
588800,note_on,,,,,0,0,1,,,,0,,,71,62
588800,note_on,,,,,0,0,1,,,,0,,,79,62
588800,note_on,,,,,0,0,1,,,,0,,,83,74
588800,note_off,,,,,0,0,1,,,,0,,,79,0
589312,set_tempo,,,,,3072,1,0,,923076,,,,,,
589312,note_on,,,,,0,0,1,,,,0,,,67,68
589312,note_on,,,,,512,0,1,,,,0,,,55,53
589312,note_on,,,,,0,0,1,,,,0,,,59,53
589804,note_off,,,,,492,0,1,,,,0,,,67,0
589824,note_off,,,,,0,0,1,,,,0,,,67,0
589824,note_off,,,,,20,0,1,,,,0,,,71,0
589824,note_off,,,,,0,0,1,,,,0,,,79,0
589824,note_off,,,,,0,0,1,,,,0,,,83,0
589824,note_off,,,,,0,0,1,,,,0,,,59,0
589824,note_off,,,,,0,0,1,,,,0,,,55,0
589824,note_on,,,,,0,0,1,,,,0,,,66,70
589824,note_on,,,,,0,0,1,,,,0,,,59,55
589824,note_on,,,,,0,0,1,,,,0,,,54,55
589976,control_change,,,,,152,0,1,,,,0,64,0,,
590203,control_change,,,,,227,0,1,,,,0,64,127,,
590336,note_on,,,,,0,0,1,,,,0,,,52,57
590336,note_off,,,,,0,0,1,,,,0,,,59,0
590336,note_on,,,,,0,0,1,,,,0,,,64,72
590336,set_tempo,,,,,1024,1,0,,1090909,,,,,,
590336,note_off,,,,,133,0,1,,,,0,,,54,0
590336,note_off,,,,,0,0,1,,,,0,,,66,0
590336,note_on,,,,,0,0,1,,,,0,,,59,57
590507,control_change,,,,,171,0,1,,,,0,64,0,,
590658,control_change,,,,,151,0,1,,,,0,64,127,,
590848,note_on,,,,,0,0,1,,,,0,,,54,61
590848,set_tempo,,,,,512,1,0,,1000000,,,,,,
590848,control_change,,,,,190,0,1,,,,0,64,0,,
590848,control_change,,,,,0,0,1,,,,0,64,127,,
590848,note_off,,,,,0,0,1,,,,0,,,52,0
590848,note_off,,,,,0,0,1,,,,0,,,59,0
590848,note_off,,,,,0,0,1,,,,0,,,64,0
590848,note_off,,,,,0,0,1,,,,0,,,47,0
590848,note_off,,,,,0,0,1,,,,0,,,40,0
590848,note_off,,,,,0,0,1,,,,0,,,35,0
590848,note_on,,,,,0,0,1,,,,0,,,35,52
590848,note_on,,,,,0,0,1,,,,0,,,59,61
590848,note_on,,,,,0,0,1,,,,0,,,66,75
590848,note_on,,,,,0,0,1,,,,0,,,47,57
590848,note_on,,,,,0,0,1,,,,0,,,38,66
591028,control_change,,,,,180,0,1,,,,0,64,0,,
591253,control_change,,,,,225,0,1,,,,0,64,127,,
591872,note_on,,,,,0,0,1,,,,0,,,71,58
591872,note_on,,,,,619,0,1,,,,0,,,66,58
591872,note_on,,,,,0,0,1,,,,0,,,78,70
592896,note_on,,,,,0,0,1,,,,0,,,83,71
592896,note_on,,,,,0,0,1,,,,0,,,78,59
592896,note_on,,,,,0,0,1,,,,0,,,71,59
592896,note_off,,,,,1024,0,1,,,,0,,,54,0
592896,note_off,,,,,0,0,1,,,,0,,,78,0
592896,note_off,,,,,0,0,1,,,,0,,,71,0
592896,note_off,,,,,0,0,1,,,,0,,,66,0
592896,note_off,,,,,0,0,1,,,,0,,,66,0
592896,note_off,,,,,0,0,1,,,,0,,,59,0
593920,note_off,,,,,1024,0,1,,,,0,,,71,0
593920,note_off,,,,,0,0,1,,,,0,,,78,0
593920,note_off,,,,,0,0,1,,,,0,,,83,0
593920,note_on,,,,,0,0,1,,,,0,,,54,45
593920,note_on,,,,,0,0,1,,,,0,,,59,45
593920,note_on,,,,,0,0,1,,,,0,,,66,59
593954,control_change,,,,,34,0,1,,,,0,64,0,,
594359,control_change,,,,,405,0,1,,,,0,64,127,,
594944,control_change,,,,,585,0,1,,,,0,64,0,,
594944,note_on,,,,,0,0,1,,,,0,,,53,39
594944,note_on,,,,,0,0,1,,,,0,,,65,53
594944,note_on,,,,,0,0,1,,,,0,,,49,37
594944,note_off,,,,,0,0,1,,,,0,,,47,0
594944,note_off,,,,,0,0,1,,,,0,,,38,0
594944,note_off,,,,,0,0,1,,,,0,,,35,0
594944,note_off,,,,,0,0,1,,,,0,,,66,0
594944,note_off,,,,,0,0,1,,,,0,,,54,0
594944,control_change,,,,,0,0,1,,,,0,64,127,,
594944,note_on,,,,,0,0,1,,,,0,,,37,25
594944,note_on,,,,,0,0,1,,,,0,,,44,25
594944,set_tempo,,,,,4096,1,0,,1090909,,,,,,
595122,control_change,,,,,178,0,1,,,,0,64,0,,
595371,control_change,,,,,249,0,1,,,,0,64,127,,
595627,control_change,,,,,256,0,1,,,,0,64,127,,
595768,note_on,,,,,141,0,1,,,,0,,,59,38
595868,note_on,,,,,100,0,1,,,,0,,,65,38
595968,note_off,,,,,0,0,1,,,,0,,,59,0
595968,set_tempo,,,,,1024,1,0,,1000000,,,,,,
595968,note_off,,,,,100,0,1,,,,0,,,53,0
595968,note_off,,,,,0,0,1,,,,0,,,65,0
595968,note_on,,,,,0,0,1,,,,0,,,73,52
596871,note_off,,,,,903,0,1,,,,0,,,65,0
596939,control_change,,,,,68,0,1,,,,0,64,0,,
596992,note_on,,,,,0,0,1,,,,0,,,73,50
596992,note_on,,,,,0,0,1,,,,0,,,64,29
596992,note_on,,,,,0,0,1,,,,0,,,58,29
596992,note_off,,,,,0,0,1,,,,0,,,49,0
596992,note_on,,,,,0,0,1,,,,0,,,42,25
596992,note_off,,,,,0,0,1,,,,0,,,37,0
596992,note_off,,,,,0,0,1,,,,0,,,73,0
596992,note_off,,,,,53,0,1,,,,0,,,59,0
596992,set_tempo,,,,,1024,1,0,,1200000,,,,,,
596992,note_off,,,,,0,0,1,,,,0,,,44,0
596992,note_on,,,,,0,0,1,,,,0,,,30,13
597330,control_change,,,,,338,0,1,,,,0,64,127,,
597504,note_on,,,,,0,0,1,,,,0,,,70,53
597504,note_off,,,,,174,0,1,,,,0,,,73,0
597504,set_tempo,,,,,512,1,0,,923076,,,,,,
598016,note_off,,,,,0,0,1,,,,0,,,70,0
598016,note_on,,,,,0,0,1,,,,0,,,66,53
598016,note_off,,,,,512,0,1,,,,0,,,64,0
598185,control_change,,,,,169,0,1,,,,0,64,0,,
598528,note_on,,,,,343,0,1,,,,0,,,64,48
598568,note_off,,,,,40,0,1,,,,0,,,66,0
599040,note_on,,,,,0,0,1,,,,0,,,47,35
599040,note_on,,,,,0,0,1,,,,0,,,42,23
599040,note_on,,,,,0,0,1,,,,0,,,35,23
599040,note_on,,,,,0,0,1,,,,0,,,63,53
599040,note_on,,,,,0,0,1,,,,0,,,57,38
599040,note_off,,,,,0,0,1,,,,0,,,30,0
599040,note_off,,,,,0,0,1,,,,0,,,58,0
599040,control_change,,,,,0,0,1,,,,0,64,0,,
599040,control_change,,,,,472,0,1,,,,0,64,0,,
599040,set_tempo,,,,,1536,1,0,,923076,,,,,,
599040,note_off,,,,,0,0,1,,,,0,,,42,0
599080,note_off,,,,,40,0,1,,,,0,,,64,0
599177,control_change,,,,,97,0,1,,,,0,64,127,,
599296,note_off,,,,,119,0,1,,,,0,,,63,0
599296,note_on,,,,,0,0,1,,,,0,,,64,44
599296,set_tempo,,,,,256,1,0,,2000000,,,,,,
599360,note_off,,,,,64,0,1,,,,0,,,64,0
599360,note_on,,,,,0,0,1,,,,0,,,63,43
599424,note_off,,,,,64,0,1,,,,0,,,63,0
599424,note_on,,,,,0,0,1,,,,0,,,61,41
599488,note_off,,,,,64,0,1,,,,0,,,61,0
599488,note_on,,,,,0,0,1,,,,0,,,63,40
599552,note_on,,,,,0,0,1,,,,0,,,71,50
599552,note_off,,,,,64,0,1,,,,0,,,63,0
599552,set_tempo,,,,,256,1,0,,1000000,,,,,,
599645,control_change,,,,,93,0,1,,,,0,64,0,,
599840,control_change,,,,,195,0,1,,,,0,64,127,,
600064,note_on,,,,,0,0,1,,,,0,,,64,29
600064,note_off,,,,,0,0,1,,,,0,,,71,0
600064,note_off,,,,,224,0,1,,,,0,,,57,0
600064,note_off,,,,,0,0,1,,,,0,,,47,0
600064,set_tempo,,,,,512,1,0,,1200000,,,,,,
600064,note_off,,,,,0,0,1,,,,0,,,35,0
600064,note_off,,,,,0,0,1,,,,0,,,42,0
600064,note_on,,,,,0,0,1,,,,0,,,47,25
600064,note_on,,,,,0,0,1,,,,0,,,40,13
600064,note_on,,,,,0,0,1,,,,0,,,56,29
600064,note_on,,,,,0,0,1,,,,0,,,68,43
600152,control_change,,,,,88,0,1,,,,0,64,0,,
600308,control_change,,,,,156,0,1,,,,0,64,127,,
600576,note_on,,,,,0,0,1,,,,0,,,49,33
600576,note_on,,,,,0,0,1,,,,0,,,61,26
600576,note_off,,,,,0,0,1,,,,0,,,68,0
600576,note_off,,,,,0,0,1,,,,0,,,47,0
600576,note_on,,,,,0,0,1,,,,0,,,64,40
600576,note_off,,,,,268,0,1,,,,0,,,64,0
600678,control_change,,,,,102,0,1,,,,0,64,0,,
600834,control_change,,,,,156,0,1,,,,0,64,127,,
601088,note_on,,,,,0,0,1,,,,0,,,54,32
601088,note_on,,,,,0,0,1,,,,0,,,63,38
601088,note_on,,,,,0,0,1,,,,0,,,59,24
601088,note_off,,,,,0,0,1,,,,0,,,49,0
601088,note_off,,,,,0,0,1,,,,0,,,40,0
601088,note_off,,,,,0,0,1,,,,0,,,56,0
601088,note_off,,,,,0,0,1,,,,0,,,64,0
601088,note_off,,,,,254,0,1,,,,0,,,61,0
601088,note_on,,,,,0,0,1,,,,0,,,42,20
601088,note_on,,,,,0,0,1,,,,0,,,51,20
601108,control_change,,,,,20,0,1,,,,0,64,0,,
601303,control_change,,,,,195,0,1,,,,0,64,127,,
602112,set_tempo,,,,,2048,1,0,,1500000,,,,,,
602112,note_on,,,,,0,0,1,,,,0,,,42,30
602112,note_on,,,,,0,0,1,,,,0,,,54,25
602112,note_off,,,,,809,0,1,,,,0,,,59,0
602112,note_off,,,,,0,0,1,,,,0,,,42,0
602112,note_off,,,,,0,0,1,,,,0,,,51,0
602112,note_off,,,,,0,0,1,,,,0,,,54,0
602112,note_on,,,,,0,0,1,,,,0,,,59,32
602112,note_on,,,,,0,0,1,,,,0,,,63,46
602112,note_on,,,,,0,0,1,,,,0,,,52,30
602112,note_off,,,,,0,0,1,,,,0,,,63,0
602141,control_change,,,,,29,0,1,,,,0,64,0,,
602368,note_on,,,,,227,0,1,,,,0,,,58,31
602368,set_tempo,,,,,256,1,0,,1090909,,,,,,
602368,note_on,,,,,0,0,1,,,,0,,,61,44
602408,note_off,,,,,0,0,1,,,,0,,,63,0
602408,note_off,,,,,40,0,1,,,,0,,,59,0
602624,note_on,,,,,0,0,1,,,,0,,,59,42
602624,note_on,,,,,216,0,1,,,,0,,,56,29
602664,note_off,,,,,40,0,1,,,,0,,,58,0
602664,note_off,,,,,0,0,1,,,,0,,,61,0
602880,set_tempo,,,,,512,1,0,,1500000,,,,,,
602880,note_on,,,,,216,0,1,,,,0,,,58,23
602880,note_on,,,,,0,0,1,,,,0,,,61,36
602920,note_off,,,,,40,0,1,,,,0,,,56,0
602920,note_off,,,,,0,0,1,,,,0,,,59,0
602995,control_change,,,,,75,0,1,,,,0,64,127,,
603136,note_off,,,,,0,0,1,,,,0,,,58,0
603136,control_change,,,,,141,0,1,,,,0,64,0,,
603136,control_change,,,,,0,0,1,,,,0,64,127,,
603136,note_on,,,,,0,0,1,,,,0,,,54,18
603136,note_off,,,,,0,0,1,,,,0,,,61,0
603136,note_off,,,,,0,0,1,,,,0,,,42,0
603136,note_off,,,,,0,0,1,,,,0,,,52,0
603136,note_off,,,,,0,0,1,,,,0,,,54,0
603136,note_on,,,,,0,0,1,,,,0,,,58,32
603136,note_on,,,,,0,0,1,,,,0,,,61,46
603136,set_tempo,,,,,256,1,0,,1090909,,,,,,
603136,note_on,,,,,0,0,1,,,,0,,,47,23
603136,note_on,,,,,0,0,1,,,,0,,,52,30
603256,control_change,,,,,120,0,1,,,,0,64,0,,
603437,control_change,,,,,181,0,1,,,,0,64,127,,
605184,note_off,,,,,0,0,1,,,,0,,,58,0
605184,control_change,,,,,1747,0,1,,,,0,64,0,,
605184,note_off,,,,,0,0,1,,,,0,,,61,0
605184,note_off,,,,,0,0,1,,,,0,,,52,0
605184,note_on,,,,,0,0,1,,,,0,,,59,17
605184,note_on,,,,,0,0,1,,,,0,,,63,31
605184,note_on,,,,,0,0,1,,,,0,,,51,16
605405,control_change,,,,,221,0,1,,,,0,64,127,,
606208,note_off,,,,,803,0,1,,,,0,,,59,0
606208,note_off,,,,,0,0,1,,,,0,,,63,0
606208,note_off,,,,,0,0,1,,,,0,,,51,0
606208,note_off,,,,,0,0,1,,,,0,,,54,0
606208,note_off,,,,,0,0,1,,,,0,,,47,0
606308,control_change,,,,,100,0,1,,,,0,64,0,,
606951,control_change,,,,,643,0,1,,,,0,64,127,,
606976,note_on,,,,,25,0,1,,,,0,,,66,58
606976,note_on,,,,,0,0,1,,,,0,,,71,58
606976,note_on,,,,,0,0,1,,,,0,,,78,72
607232,note_off,,,,,0,0,1,,,,0,,,78,0
607232,note_on,,,,,0,0,1,,,,0,,,52,52
607232,note_on,,,,,0,0,1,,,,0,,,47,52
607232,note_on,,,,,0,0,1,,,,0,,,40,52
607232,control_change,,,,,0,0,1,,,,0,64,0,,
607232,note_on,,,,,0,0,1,,,,0,,,79,80
607232,note_on,,,,,0,0,1,,,,0,,,67,65
607232,note_on,,,,,0,0,1,,,,0,,,71,65
607232,control_change,,,,,256,0,1,,,,0,64,0,,
607232,note_off,,,,,0,0,1,,,,0,,,66,0
607232,control_change,,,,,0,0,1,,,,0,64,0,,
607232,control_change,,,,,0,0,1,,,,0,64,127,,
607232,note_off,,,,,0,0,1,,,,0,,,71,0
607384,control_change,,,,,152,0,1,,,,0,64,0,,
607763,control_change,,,,,379,0,1,,,,0,64,127,,
608256,note_on,,,,,493,0,1,,,,0,,,79,63
608256,note_on,,,,,0,0,1,,,,0,,,91,75
608256,note_on,,,,,0,0,1,,,,0,,,88,63
608280,note_off,,,,,24,0,1,,,,0,,,79,0
609260,note_off,,,,,980,0,1,,,,0,,,67,0
609260,note_off,,,,,0,0,1,,,,0,,,71,0
609280,note_off,,,,,20,0,1,,,,0,,,79,0
609280,note_off,,,,,0,0,1,,,,0,,,88,0
609280,note_on,,,,,0,0,1,,,,0,,,95,80
609280,note_on,,,,,0,0,1,,,,0,,,91,68
609280,note_off,,,,,0,0,1,,,,0,,,91,0
609280,note_on,,,,,0,0,1,,,,0,,,83,68
609792,note_on,,,,,512,0,1,,,,0,,,67,53
609792,note_on,,,,,0,0,1,,,,0,,,71,53
609792,note_on,,,,,0,0,1,,,,0,,,79,72
609792,set_tempo,,,,,6656,1,0,,923076,,,,,,
610304,note_on,,,,,0,0,1,,,,0,,,66,55
610304,note_on,,,,,0,0,1,,,,0,,,78,70
610304,note_on,,,,,0,0,1,,,,0,,,71,55
610304,note_off,,,,,0,0,1,,,,0,,,79,0
610304,note_off,,,,,0,0,1,,,,0,,,71,0
610304,note_off,,,,,0,0,1,,,,0,,,67,0
610304,note_off,,,,,0,0,1,,,,0,,,95,0
610304,note_off,,,,,0,0,1,,,,0,,,91,0
610304,note_off,,,,,512,0,1,,,,0,,,83,0
610456,control_change,,,,,152,0,1,,,,0,64,0,,
610683,control_change,,,,,227,0,1,,,,0,64,127,,
610816,note_on,,,,,0,0,1,,,,0,,,64,57
610816,note_off,,,,,0,0,1,,,,0,,,78,0
610816,note_on,,,,,0,0,1,,,,0,,,76,72
610816,note_off,,,,,133,0,1,,,,0,,,66,0
610816,set_tempo,,,,,1024,1,0,,1090909,,,,,,
610816,note_off,,,,,0,0,1,,,,0,,,71,0
610816,note_on,,,,,0,0,1,,,,0,,,71,57
610987,control_change,,,,,171,0,1,,,,0,64,0,,
611138,control_change,,,,,151,0,1,,,,0,64,127,,
611328,control_change,,,,,190,0,1,,,,0,64,0,,
611328,note_on,,,,,0,0,1,,,,0,,,50,57
611328,note_on,,,,,0,0,1,,,,0,,,47,66
611328,note_on,,,,,0,0,1,,,,0,,,38,52
611328,note_on,,,,,0,0,1,,,,0,,,78,75
611328,note_on,,,,,0,0,1,,,,0,,,71,61
611328,note_on,,,,,0,0,1,,,,0,,,66,61
611328,note_off,,,,,0,0,1,,,,0,,,52,0
611328,note_off,,,,,0,0,1,,,,0,,,40,0
611328,note_off,,,,,0,0,1,,,,0,,,76,0
611328,note_off,,,,,0,0,1,,,,0,,,71,0
611328,note_off,,,,,0,0,1,,,,0,,,64,0
611328,control_change,,,,,0,0,1,,,,0,64,0,,
611328,control_change,,,,,0,0,1,,,,0,64,127,,
611328,control_change,,,,,0,0,1,,,,0,64,0,,
611328,note_off,,,,,0,0,1,,,,0,,,47,0
611328,set_tempo,,,,,512,1,0,,1000000,,,,,,
611508,control_change,,,,,180,0,1,,,,0,64,0,,
611733,control_change,,,,,225,0,1,,,,0,64,127,,
612352,note_on,,,,,619,0,1,,,,0,,,78,55
612352,note_on,,,,,0,0,1,,,,0,,,83,55
612352,note_on,,,,,0,0,1,,,,0,,,90,67
613376,note_on,,,,,0,0,1,,,,0,,,95,72
613376,note_off,,,,,1024,0,1,,,,0,,,66,0
613376,note_off,,,,,0,0,1,,,,0,,,71,0
613376,note_off,,,,,0,0,1,,,,0,,,78,0
613376,note_off,,,,,0,0,1,,,,0,,,78,0
613376,note_off,,,,,0,0,1,,,,0,,,83,0
613376,note_off,,,,,0,0,1,,,,0,,,90,0
613376,note_on,,,,,0,0,1,,,,0,,,83,60
613376,note_on,,,,,0,0,1,,,,0,,,90,60
614400,note_off,,,,,0,0,1,,,,0,,,90,0
614400,note_off,,,,,1024,0,1,,,,0,,,83,0
614400,note_on,,,,,0,0,1,,,,0,,,66,51
614400,note_on,,,,,0,0,1,,,,0,,,71,51
614400,note_on,,,,,0,0,1,,,,0,,,78,65
614400,note_off,,,,,0,0,1,,,,0,,,95,0
614434,control_change,,,,,34,0,1,,,,0,64,0,,
614839,control_change,,,,,405,0,1,,,,0,64,127,,
615424,note_on,,,,,0,0,1,,,,0,,,65,45
615424,set_tempo,,,,,4096,1,0,,1090909,,,,,,
615424,note_off,,,,,0,0,1,,,,0,,,50,0
615424,note_off,,,,,0,0,1,,,,0,,,78,0
615424,note_off,,,,,0,0,1,,,,0,,,71,0
615424,control_change,,,,,0,0,1,,,,0,64,127,,
615424,control_change,,,,,0,0,1,,,,0,64,0,,
615424,control_change,,,,,0,0,1,,,,0,64,0,,
615424,control_change,,,,,585,0,1,,,,0,64,0,,
615424,note_off,,,,,0,0,1,,,,0,,,38,0
615424,note_off,,,,,0,0,1,,,,0,,,66,0
615424,note_on,,,,,0,0,1,,,,0,,,77,64
615424,note_on,,,,,0,0,1,,,,0,,,71,45
615424,note_on,,,,,0,0,1,,,,0,,,44,33
615424,note_on,,,,,0,0,1,,,,0,,,37,33
615424,note_off,,,,,0,0,1,,,,0,,,47,0
615424,note_on,,,,,0,0,1,,,,0,,,49,45
615602,control_change,,,,,178,0,1,,,,0,64,0,,
615851,control_change,,,,,249,0,1,,,,0,64,127,,
616107,control_change,,,,,256,0,1,,,,0,64,127,,
616248,note_on,,,,,141,0,1,,,,0,,,71,44
616348,note_on,,,,,100,0,1,,,,0,,,77,44
616448,note_off,,,,,0,0,1,,,,0,,,77,0
616448,set_tempo,,,,,1024,1,0,,1000000,,,,,,
616448,note_off,,,,,100,0,1,,,,0,,,65,0
616448,note_off,,,,,0,0,1,,,,0,,,71,0
616448,note_on,,,,,0,0,1,,,,0,,,85,58
617232,note_on,,,,,784,0,1,,,,0,,,70,41
617351,note_off,,,,,119,0,1,,,,0,,,77,0
617352,note_on,,,,,1,0,1,,,,0,,,76,41
617419,control_change,,,,,67,0,1,,,,0,64,0,,
617472,note_on,,,,,0,0,1,,,,0,,,30,30
617472,note_off,,,,,0,0,1,,,,0,,,85,0
617472,note_on,,,,,0,0,1,,,,0,,,42,42
617472,note_on,,,,,0,0,1,,,,0,,,85,62
617472,note_off,,,,,0,0,1,,,,0,,,49,0
617472,note_off,,,,,53,0,1,,,,0,,,71,0
617472,note_off,,,,,0,0,1,,,,0,,,37,0
617472,set_tempo,,,,,1024,1,0,,1200000,,,,,,
617472,note_off,,,,,0,0,1,,,,0,,,44,0
617810,control_change,,,,,338,0,1,,,,0,64,127,,
617984,note_off,,,,,174,0,1,,,,0,,,85,0
617984,note_on,,,,,0,0,1,,,,0,,,82,59
617984,set_tempo,,,,,512,1,0,,923076,,,,,,
618496,note_off,,,,,512,0,1,,,,0,,,76,0
618496,note_off,,,,,0,0,1,,,,0,,,82,0
618496,note_on,,,,,0,0,1,,,,0,,,78,59
618665,control_change,,,,,169,0,1,,,,0,64,0,,
619008,note_on,,,,,343,0,1,,,,0,,,76,54
619048,note_off,,,,,40,0,1,,,,0,,,78,0
619520,control_change,,,,,0,0,1,,,,0,64,0,,
619520,set_tempo,,,,,1536,1,0,,923076,,,,,,
619520,control_change,,,,,0,0,1,,,,0,64,0,,
619520,note_off,,,,,0,0,1,,,,0,,,70,0
619520,note_off,,,,,0,0,1,,,,0,,,30,0
619520,note_off,,,,,0,0,1,,,,0,,,42,0
619520,note_on,,,,,0,0,1,,,,0,,,69,38
619520,note_on,,,,,0,0,1,,,,0,,,75,53
619520,note_on,,,,,0,0,1,,,,0,,,35,31
619520,note_on,,,,,0,0,1,,,,0,,,42,31
619520,note_on,,,,,0,0,1,,,,0,,,47,43
619520,control_change,,,,,0,0,1,,,,0,64,0,,
619520,control_change,,,,,472,0,1,,,,0,64,0,,
619560,note_off,,,,,40,0,1,,,,0,,,76,0
619657,control_change,,,,,97,0,1,,,,0,64,127,,
619776,set_tempo,,,,,256,1,0,,2000000,,,,,,
619776,note_off,,,,,119,0,1,,,,0,,,75,0
619776,note_on,,,,,0,0,1,,,,0,,,76,48
619840,note_off,,,,,64,0,1,,,,0,,,76,0
619840,note_on,,,,,0,0,1,,,,0,,,75,47
619904,note_on,,,,,0,0,1,,,,0,,,73,45
619904,note_off,,,,,64,0,1,,,,0,,,75,0
619968,note_off,,,,,64,0,1,,,,0,,,73,0
619968,note_on,,,,,0,0,1,,,,0,,,75,44
620032,note_off,,,,,64,0,1,,,,0,,,75,0
620032,note_on,,,,,0,0,1,,,,0,,,83,54
620032,set_tempo,,,,,256,1,0,,1000000,,,,,,
620125,control_change,,,,,93,0,1,,,,0,64,0,,
620320,control_change,,,,,195,0,1,,,,0,64,127,,
620544,note_on,,,,,0,0,1,,,,0,,,47,25
620544,note_on,,,,,0,0,1,,,,0,,,40,13
620544,note_off,,,,,0,0,1,,,,0,,,35,0
620544,note_on,,,,,0,0,1,,,,0,,,76,36
620544,note_off,,,,,0,0,1,,,,0,,,47,0
620544,note_off,,,,,0,0,1,,,,0,,,42,0
620544,note_off,,,,,0,0,1,,,,0,,,83,0
620544,note_on,,,,,0,0,1,,,,0,,,80,50
620544,note_on,,,,,0,0,1,,,,0,,,68,36
620544,note_off,,,,,224,0,1,,,,0,,,69,0
620544,set_tempo,,,,,512,1,0,,1200000,,,,,,
620632,control_change,,,,,88,0,1,,,,0,64,0,,
620788,control_change,,,,,156,0,1,,,,0,64,127,,
621056,note_on,,,,,0,0,1,,,,0,,,64,33
621056,note_off,,,,,0,0,1,,,,0,,,47,0
621056,note_on,,,,,0,0,1,,,,0,,,49,33
621056,note_on,,,,,0,0,1,,,,0,,,76,47
621056,note_on,,,,,0,0,1,,,,0,,,73,33
621056,note_off,,,,,268,0,1,,,,0,,,76,0
621096,note_off,,,,,40,0,1,,,,0,,,68,0
621096,note_off,,,,,0,0,1,,,,0,,,80,0
621158,control_change,,,,,62,0,1,,,,0,64,0,,
621314,control_change,,,,,156,0,1,,,,0,64,127,,
621568,note_on,,,,,0,0,1,,,,0,,,71,31
621568,note_on,,,,,254,0,1,,,,0,,,63,31
621568,note_on,,,,,0,0,1,,,,0,,,75,45
621568,note_on,,,,,0,0,1,,,,0,,,42,20
621568,note_on,,,,,0,0,1,,,,0,,,51,20
621568,note_on,,,,,0,0,1,,,,0,,,54,32
621588,control_change,,,,,20,0,1,,,,0,64,0,,
621608,note_off,,,,,20,0,1,,,,0,,,64,0
621608,note_off,,,,,0,0,1,,,,0,,,76,0
621608,note_off,,,,,0,0,1,,,,0,,,40,0
621608,note_off,,,,,0,0,1,,,,0,,,49,0
621608,note_off,,,,,0,0,1,,,,0,,,73,0
621783,control_change,,,,,175,0,1,,,,0,64,127,,
622592,note_on,,,,,0,0,1,,,,0,,,63,39
622592,note_on,,,,,0,0,1,,,,0,,,54,25
622592,note_on,,,,,0,0,1,,,,0,,,52,30
622592,note_on,,,,,0,0,1,,,,0,,,42,30
622592,note_on,,,,,0,0,1,,,,0,,,75,53
622592,note_on,,,,,0,0,1,,,,0,,,71,39
622592,set_tempo,,,,,2048,1,0,,1500000,,,,,,
622592,note_off,,,,,0,0,1,,,,0,,,42,0
622592,note_off,,,,,0,0,1,,,,0,,,75,0
622592,note_off,,,,,0,0,1,,,,0,,,71,0
622592,note_off,,,,,0,0,1,,,,0,,,54,0
622592,note_off,,,,,809,0,1,,,,0,,,63,0
622592,note_off,,,,,0,0,1,,,,0,,,51,0
622621,control_change,,,,,29,0,1,,,,0,64,0,,
622848,note_on,,,,,0,0,1,,,,0,,,73,52
622848,note_on,,,,,227,0,1,,,,0,,,61,38
622848,note_on,,,,,0,0,1,,,,0,,,70,37
622848,set_tempo,,,,,256,1,0,,1090909,,,,,,
622888,note_off,,,,,40,0,1,,,,0,,,63,0
622888,note_off,,,,,0,0,1,,,,0,,,71,0
622888,note_off,,,,,0,0,1,,,,0,,,75,0
623104,note_on,,,,,216,0,1,,,,0,,,59,36
623104,note_on,,,,,0,0,1,,,,0,,,68,35
623104,note_on,,,,,0,0,1,,,,0,,,71,50
623144,note_off,,,,,40,0,1,,,,0,,,61,0
623144,note_off,,,,,0,0,1,,,,0,,,70,0
623144,note_off,,,,,0,0,1,,,,0,,,73,0
623360,set_tempo,,,,,512,1,0,,1500000,,,,,,
623360,note_on,,,,,0,0,1,,,,0,,,73,44
623360,note_on,,,,,216,0,1,,,,0,,,61,30
623360,note_on,,,,,0,0,1,,,,0,,,70,29
623400,note_off,,,,,40,0,1,,,,0,,,59,0
623400,note_off,,,,,0,0,1,,,,0,,,68,0
623400,note_off,,,,,0,0,1,,,,0,,,71,0
623475,control_change,,,,,75,0,1,,,,0,64,127,,
623616,note_on,,,,,0,0,1,,,,0,,,61,35
623616,note_on,,,,,0,0,1,,,,0,,,54,18
623616,note_on,,,,,0,0,1,,,,0,,,52,30
623616,note_on,,,,,0,0,1,,,,0,,,42,23
623616,note_on,,,,,0,0,1,,,,0,,,70,35
623616,note_off,,,,,0,0,1,,,,0,,,54,0
623616,control_change,,,,,141,0,1,,,,0,64,0,,
623616,note_off,,,,,0,0,1,,,,0,,,42,0
623616,note_off,,,,,0,0,1,,,,0,,,73,0
623616,note_off,,,,,0,0,1,,,,0,,,70,0
623616,note_off,,,,,0,0,1,,,,0,,,61,0
623616,control_change,,,,,0,0,1,,,,0,64,0,,
623616,control_change,,,,,0,0,1,,,,0,64,127,,
623616,note_off,,,,,0,0,1,,,,0,,,52,0
623616,note_on,,,,,0,0,1,,,,0,,,73,49
623616,control_change,,,,,0,0,1,,,,0,64,0,,
623616,set_tempo,,,,,256,1,0,,1090909,,,,,,
623736,control_change,,,,,120,0,1,,,,0,64,0,,
623917,control_change,,,,,181,0,1,,,,0,64,127,,
625664,note_off,,,,,0,0,1,,,,0,,,73,0
625664,control_change,,,,,1747,0,1,,,,0,64,0,,
625664,note_off,,,,,0,0,1,,,,0,,,61,0
625664,note_off,,,,,0,0,1,,,,0,,,52,0
625664,note_on,,,,,0,0,1,,,,0,,,59,17
625664,note_on,,,,,0,0,1,,,,0,,,71,31
625664,note_on,,,,,0,0,1,,,,0,,,47,16
625664,note_off,,,,,0,0,1,,,,0,,,42,0
625664,note_on,,,,,0,0,1,,,,0,,,51,16
625664,note_off,,,,,0,0,1,,,,0,,,70,0
625885,control_change,,,,,221,0,1,,,,0,64,127,,
626688,note_off,,,,,0,0,1,,,,0,,,71,0
626688,note_off,,,,,0,0,1,,,,0,,,51,0
626688,note_off,,,,,0,0,1,,,,0,,,54,0
626688,note_off,,,,,803,0,1,,,,0,,,59,0
626688,note_off,,,,,0,0,1,,,,0,,,47,0
626788,control_change,,,,,100,0,1,,,,0,64,0,,
627431,control_change,,,,,643,0,1,,,,0,64,127,,
627456,note_on,,,,,0,0,1,,,,0,,,56,21
627456,note_on,,,,,25,0,1,,,,0,,,71,32
627456,note_on,,,,,0,0,1,,,,0,,,73,44
627456,note_on,,,,,0,0,1,,,,0,,,53,21
627456,note_on,,,,,0,0,1,,,,0,,,59,21
627456,note_on,,,,,0,0,1,,,,0,,,61,33
627712,control_change,,,,,0,0,1,,,,0,64,127,,
627712,note_off,,,,,0,0,1,,,,0,,,71,0
627712,note_off,,,,,0,0,1,,,,0,,,53,0
627712,note_off,,,,,0,0,1,,,,0,,,73,0
627712,note_on,,,,,0,0,1,,,,0,,,61,26
627712,note_on,,,,,0,0,1,,,,0,,,59,14
627712,note_on,,,,,0,0,1,,,,0,,,56,14
627712,note_on,,,,,0,0,1,,,,0,,,53,14
627712,control_change,,,,,256,0,1,,,,0,64,0,,
627712,note_on,,,,,0,0,1,,,,0,,,71,35
627712,note_off,,,,,0,0,1,,,,0,,,61,0
627712,note_off,,,,,0,0,1,,,,0,,,59,0
627712,note_on,,,,,0,0,1,,,,0,,,73,47
627712,note_off,,,,,0,0,1,,,,0,,,56,0
627870,control_change,,,,,158,0,1,,,,0,64,0,,
628106,control_change,,,,,236,0,1,,,,0,64,127,,
629504,note_on,,,,,0,0,1,,,,0,,,74,45
629504,note_off,,,,,1398,0,1,,,,0,,,73,0
629760,note_off,,,,,0,0,1,,,,0,,,74,0
629760,note_off,,,,,0,0,1,,,,0,,,53,0
629760,note_off,,,,,0,0,1,,,,0,,,59,0
629760,note_off,,,,,0,0,1,,,,0,,,61,0
629760,note_on,,,,,0,0,1,,,,0,,,73,43
629760,note_on,,,,,0,0,1,,,,0,,,71,43
629760,note_on,,,,,0,0,1,,,,0,,,53,14
629760,note_on,,,,,0,0,1,,,,0,,,56,14
629760,note_on,,,,,0,0,1,,,,0,,,59,14
629760,note_on,,,,,0,0,1,,,,0,,,62,26
629760,note_off,,,,,256,0,1,,,,0,,,71,0
629760,note_off,,,,,0,0,1,,,,0,,,56,0
629760,set_tempo,,,,,6144,1,0,,1333333,,,,,,
629786,control_change,,,,,26,0,1,,,,0,64,0,,
629845,note_off,,,,,59,0,1,,,,0,,,73,0
629845,note_on,,,,,0,0,1,,,,0,,,74,43
629931,note_off,,,,,86,0,1,,,,0,,,74,0
629931,note_on,,,,,0,0,1,,,,0,,,76,43
630016,note_off,,,,,85,0,1,,,,0,,,76,0
630016,note_on,,,,,0,0,1,,,,0,,,74,43
630272,set_tempo,,,,,512,1,0,,923076,,,,,,
630548,control_change,,,,,532,0,1,,,,0,64,127,,
631552,note_on,,,,,0,0,1,,,,0,,,73,40
631552,note_off,,,,,1004,0,1,,,,0,,,74,0
631552,set_tempo,,,,,1280,1,0,,1090909,,,,,,
631808,note_on,,,,,0,0,1,,,,0,,,59,9
631808,control_change,,,,,0,0,1,,,,0,64,127,,
631808,note_off,,,,,0,0,1,,,,0,,,71,0
631808,note_off,,,,,0,0,1,,,,0,,,73,0
631808,note_off,,,,,0,0,1,,,,0,,,53,0
631808,note_off,,,,,0,0,1,,,,0,,,56,0
631808,note_off,,,,,0,0,1,,,,0,,,59,0
631808,note_off,,,,,0,0,1,,,,0,,,62,0
631808,note_on,,,,,0,0,1,,,,0,,,71,28
631808,note_on,,,,,0,0,1,,,,0,,,73,40
631808,control_change,,,,,256,0,1,,,,0,64,0,,
631808,set_tempo,,,,,256,1,0,,600000,,,,,,
631808,note_on,,,,,0,0,1,,,,0,,,56,9
631808,note_on,,,,,0,0,1,,,,0,,,53,9
631808,note_on,,,,,0,0,1,,,,0,,,61,21
631854,control_change,,,,,46,0,1,,,,0,64,0,,
631929,control_change,,,,,75,0,1,,,,0,64,127,,
632832,set_tempo,,,,,1024,1,0,,2000000,,,,,,
632832,note_off,,,,,903,0,1,,,,0,,,71,0
632832,note_off,,,,,0,0,1,,,,0,,,73,0
632832,note_on,,,,,0,0,1,,,,0,,,75,22
632873,note_off,,,,,41,0,1,,,,0,,,75,0
632880,note_on,,,,,7,0,1,,,,0,,,77,27
632914,note_off,,,,,34,0,1,,,,0,,,77,0
632914,set_tempo,,,,,82,1,0,,1500000,,,,,,
632915,note_on,,,,,1,0,1,,,,0,,,78,26
632955,note_off,,,,,40,0,1,,,,0,,,78,0
632955,note_on,,,,,0,0,1,,,,0,,,80,24
632996,note_off,,,,,41,0,1,,,,0,,,80,0
632999,note_on,,,,,3,0,1,,,,0,,,82,30
633034,note_on,,,,,35,0,1,,,,0,,,83,27
633037,note_off,,,,,3,0,1,,,,0,,,82,0
633074,note_on,,,,,37,0,1,,,,0,,,85,34
633078,note_off,,,,,4,0,1,,,,0,,,83,0
633078,set_tempo,,,,,164,1,0,,1333333,,,,,,
633111,note_on,,,,,33,0,1,,,,0,,,87,34
633119,note_off,,,,,8,0,1,,,,0,,,85,0
633152,note_on,,,,,33,0,1,,,,0,,,89,34
633160,note_off,,,,,8,0,1,,,,0,,,87,0
633201,note_off,,,,,41,0,1,,,,0,,,89,0
633203,note_on,,,,,2,0,1,,,,0,,,90,30
633242,note_off,,,,,39,0,1,,,,0,,,90,0
633243,note_on,,,,,1,0,1,,,,0,,,92,30
633282,note_off,,,,,39,0,1,,,,0,,,92,0
633290,note_on,,,,,8,0,1,,,,0,,,94,32
633323,note_off,,,,,33,0,1,,,,0,,,94,0
633323,set_tempo,,,,,245,1,0,,2000000,,,,,,
633324,note_on,,,,,1,0,1,,,,0,,,95,37
633364,note_off,,,,,40,0,1,,,,0,,,95,0
633364,set_tempo,,,,,41,1,0,,1500000,,,,,,
633372,note_on,,,,,8,0,1,,,,0,,,94,32
633405,note_off,,,,,33,0,1,,,,0,,,94,0
633409,note_on,,,,,4,0,1,,,,0,,,92,33
633445,note_on,,,,,36,0,1,,,,0,,,90,34
633446,note_off,,,,,1,0,1,,,,0,,,92,0
633487,note_off,,,,,41,0,1,,,,0,,,90,0
633487,set_tempo,,,,,123,1,0,,1333333,,,,,,
633493,note_on,,,,,6,0,1,,,,0,,,89,30
633528,note_off,,,,,35,0,1,,,,0,,,89,0
633528,note_on,,,,,0,0,1,,,,0,,,87,31
633569,note_off,,,,,41,0,1,,,,0,,,87,0
633577,note_on,,,,,8,0,1,,,,0,,,85,31
633608,note_on,,,,,31,0,1,,,,0,,,83,28
633610,note_off,,,,,2,0,1,,,,0,,,85,0
633651,note_on,,,,,0,0,1,,,,0,,,82,30
633651,note_off,,,,,41,0,1,,,,0,,,83,0
633692,note_off,,,,,41,0,1,,,,0,,,82,0
633692,set_tempo,,,,,205,1,0,,1500000,,,,,,
633693,note_on,,,,,1,0,1,,,,0,,,80,27
633733,note_off,,,,,40,0,1,,,,0,,,80,0
633741,note_on,,,,,8,0,1,,,,0,,,78,22
633771,note_on,,,,,30,0,1,,,,0,,,77,24
633774,note_off,,,,,3,0,1,,,,0,,,78,0
633774,set_tempo,,,,,82,1,0,,2000000,,,,,,
633815,note_off,,,,,41,0,1,,,,0,,,77,0
633823,note_on,,,,,8,0,1,,,,0,,,75,19
633856,note_on,,,,,0,0,1,,,,0,,,73,26
633856,note_off,,,,,33,0,1,,,,0,,,75,0
633856,set_tempo,,,,,82,1,0,,1000000,,,,,,
633963,control_change,,,,,107,0,1,,,,0,64,0,,
634368,note_off,,,,,405,0,1,,,,0,,,73,0
634368,note_off,,,,,0,0,1,,,,0,,,61,0
634368,note_off,,,,,0,0,1,,,,0,,,53,0
634368,note_off,,,,,0,0,1,,,,0,,,56,0
634368,note_off,,,,,0,0,1,,,,0,,,59,0
635458,control_change,,,,,1090,0,1,,,,0,64,127,,
635648,note_on,,,,,190,0,1,,,,0,,,70,28
635648,note_on,,,,,0,0,1,,,,0,,,73,40
635648,note_on,,,,,0,0,1,,,,0,,,54,18
635648,note_on,,,,,0,0,1,,,,0,,,61,30
635648,note_on,,,,,0,0,1,,,,0,,,58,18
635904,control_change,,,,,256,0,1,,,,0,64,0,,
635904,note_on,,,,,0,0,1,,,,0,,,58,14
635904,note_on,,,,,0,0,1,,,,0,,,61,14
635904,control_change,,,,,0,0,1,,,,0,64,0,,
635904,control_change,,,,,0,0,1,,,,0,64,0,,
635904,note_on,,,,,0,0,1,,,,0,,,54,14
635904,note_on,,,,,0,0,1,,,,0,,,73,47
635904,note_on,,,,,0,0,1,,,,0,,,70,35
635904,note_off,,,,,0,0,1,,,,0,,,61,0
635904,note_off,,,,,0,0,1,,,,0,,,58,0
635904,note_off,,,,,0,0,1,,,,0,,,54,0
635904,note_off,,,,,0,0,1,,,,0,,,73,0
635904,note_off,,,,,0,0,1,,,,0,,,70,0
635904,control_change,,,,,0,0,1,,,,0,64,127,,
636062,control_change,,,,,158,0,1,,,,0,64,0,,
636298,control_change,,,,,236,0,1,,,,0,64,127,,
637696,note_off,,,,,1398,0,1,,,,0,,,73,0
637696,note_on,,,,,0,0,1,,,,0,,,75,45
637952,note_off,,,,,0,0,1,,,,0,,,58,0
637952,set_tempo,,,,,4096,1,0,,1333333,,,,,,
637952,note_on,,,,,0,0,1,,,,0,,,63,21
637952,note_on,,,,,0,0,1,,,,0,,,58,14
637952,note_off,,,,,256,0,1,,,,0,,,70,0
637952,note_off,,,,,0,0,1,,,,0,,,75,0
637952,note_off,,,,,0,0,1,,,,0,,,54,0
637952,note_on,,,,,0,0,1,,,,0,,,54,14
637952,note_off,,,,,0,0,1,,,,0,,,61,0
637952,note_on,,,,,0,0,1,,,,0,,,73,43
637952,note_on,,,,,0,0,1,,,,0,,,70,43
637978,control_change,,,,,26,0,1,,,,0,64,0,,
638037,note_on,,,,,59,0,1,,,,0,,,75,43
638057,note_off,,,,,20,0,1,,,,0,,,73,0
638123,note_on,,,,,66,0,1,,,,0,,,77,43
638143,note_off,,,,,20,0,1,,,,0,,,75,0
638208,note_on,,,,,65,0,1,,,,0,,,75,43
638228,note_off,,,,,20,0,1,,,,0,,,77,0
638464,set_tempo,,,,,512,1,0,,923076,,,,,,
638740,control_change,,,,,512,0,1,,,,0,64,127,,
639744,note_off,,,,,1004,0,1,,,,0,,,75,0
639744,note_on,,,,,0,0,1,,,,0,,,73,31
639744,set_tempo,,,,,1280,1,0,,1090909,,,,,,
640000,note_on,,,,,0,0,1,,,,0,,,58,14
640000,note_on,,,,,0,0,1,,,,0,,,61,14
640000,note_on,,,,,0,0,1,,,,0,,,54,14
640000,note_on,,,,,0,0,1,,,,0,,,73,27
640000,note_on,,,,,0,0,1,,,,0,,,70,15
640000,note_off,,,,,0,0,1,,,,0,,,63,0
640000,note_off,,,,,0,0,1,,,,0,,,58,0
640000,note_off,,,,,0,0,1,,,,0,,,54,0
640000,control_change,,,,,256,0,1,,,,0,64,0,,
640000,note_off,,,,,0,0,1,,,,0,,,70,0
640000,control_change,,,,,0,0,1,,,,0,64,0,,
640000,control_change,,,,,0,0,1,,,,0,64,127,,
640000,control_change,,,,,0,0,1,,,,0,64,0,,
640000,set_tempo,,,,,256,1,0,,600000,,,,,,
640000,note_off,,,,,0,0,1,,,,0,,,73,0
640046,control_change,,,,,46,0,1,,,,0,64,0,,
640121,control_change,,,,,75,0,1,,,,0,64,127,,
641024,set_tempo,,,,,1024,1,0,,2000000,,,,,,
641024,note_on,,,,,0,0,1,,,,0,,,75,20
641024,note_off,,,,,903,0,1,,,,0,,,70,0
641024,note_off,,,,,0,0,1,,,,0,,,73,0
641069,note_off,,,,,45,0,1,,,,0,,,75,0
641069,note_on,,,,,0,0,1,,,,0,,,77,21
641113,note_off,,,,,44,0,1,,,,0,,,77,0
641113,note_on,,,,,0,0,1,,,,0,,,78,22
641158,set_tempo,,,,,134,1,0,,1500000,,,,,,
641158,note_on,,,,,0,0,1,,,,0,,,80,24
641158,note_off,,,,,45,0,1,,,,0,,,78,0
641202,note_on,,,,,0,0,1,,,,0,,,82,25
641202,note_off,,,,,44,0,1,,,,0,,,80,0
641247,note_off,,,,,45,0,1,,,,0,,,82,0
641247,note_on,,,,,0,0,1,,,,0,,,83,26
641291,note_off,,,,,44,0,1,,,,0,,,83,0
641291,note_on,,,,,0,0,1,,,,0,,,85,27
641291,set_tempo,,,,,133,1,0,,1333333,,,,,,
641336,note_off,,,,,45,0,1,,,,0,,,85,0
641336,note_on,,,,,0,0,1,,,,0,,,87,28
641380,note_off,,,,,44,0,1,,,,0,,,87,0
641380,note_on,,,,,0,0,1,,,,0,,,89,29
641425,note_on,,,,,0,0,1,,,,0,,,90,31
641425,note_off,,,,,45,0,1,,,,0,,,89,0
641469,note_off,,,,,44,0,1,,,,0,,,90,0
641469,note_on,,,,,0,0,1,,,,0,,,92,32
641514,note_off,,,,,45,0,1,,,,0,,,92,0
641514,set_tempo,,,,,223,1,0,,2000000,,,,,,
641515,note_on,,,,,1,0,1,,,,0,,,94,33
641558,note_off,,,,,43,0,1,,,,0,,,94,0
641558,note_on,,,,,0,0,1,,,,0,,,92,32
641603,note_on,,,,,0,0,1,,,,0,,,90,31
641603,set_tempo,,,,,89,1,0,,1333333,,,,,,
641603,note_off,,,,,45,0,1,,,,0,,,92,0
641647,note_on,,,,,0,0,1,,,,0,,,89,30
641647,note_off,,,,,44,0,1,,,,0,,,90,0
641692,note_off,,,,,45,0,1,,,,0,,,89,0
641692,note_on,,,,,0,0,1,,,,0,,,87,29
641736,note_off,,,,,44,0,1,,,,0,,,87,0
641736,note_on,,,,,0,0,1,,,,0,,,85,28
641781,note_off,,,,,45,0,1,,,,0,,,85,0
641781,note_on,,,,,0,0,1,,,,0,,,83,26
641781,set_tempo,,,,,178,1,0,,1500000,,,,,,
641825,note_off,,,,,44,0,1,,,,0,,,83,0
641825,note_on,,,,,0,0,1,,,,0,,,82,25
641870,note_off,,,,,45,0,1,,,,0,,,82,0
641870,note_on,,,,,0,0,1,,,,0,,,80,24
641914,set_tempo,,,,,133,1,0,,2000000,,,,,,
641914,note_off,,,,,44,0,1,,,,0,,,80,0
641914,note_on,,,,,0,0,1,,,,0,,,78,23
641959,note_on,,,,,0,0,1,,,,0,,,77,22
641959,note_off,,,,,45,0,1,,,,0,,,78,0
642003,note_on,,,,,0,0,1,,,,0,,,75,21
642003,note_off,,,,,44,0,1,,,,0,,,77,0
642048,set_tempo,,,,,134,1,0,,1000000,,,,,,
642048,note_on,,,,,0,0,1,,,,0,,,73,20
642048,note_off,,,,,45,0,1,,,,0,,,75,0
642155,control_change,,,,,107,0,1,,,,0,64,0,,
642560,note_on,,,,,0,0,1,,,,0,,,49,30
642560,note_off,,,,,0,0,1,,,,0,,,61,0
642560,note_off,,,,,0,0,1,,,,0,,,58,0
642560,note_off,,,,,0,0,1,,,,0,,,54,0
642560,note_off,,,,,405,0,1,,,,0,,,73,0
642560,set_tempo,,,,,512,1,0,,1090909,,,,,,
643072,set_tempo,,,,,512,1,0,,1333333,,,,,,
643072,note_off,,,,,512,0,1,,,,0,,,49,0
643072,note_on,,,,,0,0,1,,,,0,,,47,25
643328,set_tempo,,,,,256,1,0,,1090909,,,,,,
643328,note_on,,,,,256,0,1,,,,0,,,46,22
643368,note_off,,,,,40,0,1,,,,0,,,47,0
643456,note_off,,,,,88,0,1,,,,0,,,46,0
643584,note_on,,,,,128,0,1,,,,0,,,44,20
643650,control_change,,,,,66,0,1,,,,0,64,127,,
643840,note_on,,,,,190,0,1,,,,0,,,59,21
643840,note_on,,,,,0,0,1,,,,0,,,61,33
643840,note_on,,,,,0,0,1,,,,0,,,42,17
643880,note_off,,,,,40,0,1,,,,0,,,44,0
643968,note_off,,,,,88,0,1,,,,0,,,42,0
644092,note_on,,,,,124,0,1,,,,0,,,59,25
644096,note_on,,,,,0,0,1,,,,0,,,49,21
644096,note_on,,,,,0,0,1,,,,0,,,41,33
644096,set_tempo,,,,,768,1,0,,1000000,,,,,,
644096,note_off,,,,,0,0,1,,,,0,,,61,0
644096,control_change,,,,,0,0,1,,,,0,64,127,,
644096,control_change,,,,,4,0,1,,,,0,64,0,,
644096,note_off,,,,,0,0,1,,,,0,,,59,0
644152,control_change,,,,,56,0,1,,,,0,64,0,,
644160,note_off,,,,,8,0,1,,,,0,,,59,0
644167,note_on,,,,,7,0,1,,,,0,,,61,40
644200,control_change,,,,,33,0,1,,,,0,64,127,,
644224,note_off,,,,,24,0,1,,,,0,,,61,0
644224,note_on,,,,,0,0,1,,,,0,,,59,11
644282,note_on,,,,,58,0,1,,,,0,,,61,22
644288,note_off,,,,,6,0,1,,,,0,,,59,0
644352,note_off,,,,,64,0,1,,,,0,,,61,0
644353,note_on,,,,,1,0,1,,,,0,,,59,21
644411,note_on,,,,,58,0,1,,,,0,,,61,20
644416,note_off,,,,,5,0,1,,,,0,,,59,0
644480,note_off,,,,,64,0,1,,,,0,,,61,0
644484,note_on,,,,,4,0,1,,,,0,,,59,16
644544,note_off,,,,,60,0,1,,,,0,,,59,0
644547,note_on,,,,,3,0,1,,,,0,,,61,17
644608,note_off,,,,,61,0,1,,,,0,,,61,0
644611,note_on,,,,,3,0,1,,,,0,,,59,19
644668,note_on,,,,,57,0,1,,,,0,,,61,28
644672,note_off,,,,,4,0,1,,,,0,,,59,0
644736,note_off,,,,,64,0,1,,,,0,,,61,0
644742,note_on,,,,,6,0,1,,,,0,,,59,16
644799,note_on,,,,,57,0,1,,,,0,,,61,25
644800,note_off,,,,,1,0,1,,,,0,,,59,0
644861,note_on,,,,,61,0,1,,,,0,,,59,24
644864,note_off,,,,,3,0,1,,,,0,,,61,0
644919,note_on,,,,,55,0,1,,,,0,,,61,22
644928,note_off,,,,,9,0,1,,,,0,,,59,0
644992,note_off,,,,,64,0,1,,,,0,,,61,0
644993,note_on,,,,,1,0,1,,,,0,,,59,25
645051,note_on,,,,,58,0,1,,,,0,,,61,22
645056,note_off,,,,,5,0,1,,,,0,,,59,0
645120,note_off,,,,,64,0,1,,,,0,,,61,0
645121,note_on,,,,,1,0,1,,,,0,,,59,22
645177,note_on,,,,,56,0,1,,,,0,,,61,30
645184,note_off,,,,,7,0,1,,,,0,,,59,0
645242,note_on,,,,,58,0,1,,,,0,,,59,23
645248,note_off,,,,,6,0,1,,,,0,,,61,0
645312,note_off,,,,,64,0,1,,,,0,,,59,0
645318,note_on,,,,,6,0,1,,,,0,,,61,28
645375,note_on,,,,,57,0,1,,,,0,,,59,19
645376,note_off,,,,,1,0,1,,,,0,,,61,0
645433,note_on,,,,,57,0,1,,,,0,,,61,28
645440,note_off,,,,,7,0,1,,,,0,,,59,0
645503,note_on,,,,,63,0,1,,,,0,,,59,29
645504,note_off,,,,,1,0,1,,,,0,,,61,0
645568,note_off,,,,,64,0,1,,,,0,,,59,0
645574,note_on,,,,,6,0,1,,,,0,,,61,24
645632,note_off,,,,,58,0,1,,,,0,,,61,0
645638,note_on,,,,,6,0,1,,,,0,,,59,29
645696,note_off,,,,,58,0,1,,,,0,,,59,0
645705,note_on,,,,,9,0,1,,,,0,,,61,28
645760,note_off,,,,,55,0,1,,,,0,,,61,0
645766,note_on,,,,,6,0,1,,,,0,,,59,27
645819,note_on,,,,,53,0,1,,,,0,,,61,34
645824,note_off,,,,,5,0,1,,,,0,,,59,0
645880,note_on,,,,,56,0,1,,,,0,,,59,23
645888,note_off,,,,,8,0,1,,,,0,,,61,0
645952,note_on,,,,,0,0,1,,,,0,,,61,29
645952,note_off,,,,,64,0,1,,,,0,,,59,0
646011,note_on,,,,,59,0,1,,,,0,,,59,24
646016,note_off,,,,,5,0,1,,,,0,,,61,0
646077,note_on,,,,,61,0,1,,,,0,,,61,32
646080,note_off,,,,,3,0,1,,,,0,,,59,0
646144,note_off,,,,,64,0,1,,,,0,,,61,0
646144,note_off,,,,,0,0,1,,,,0,,,41,0
646144,note_off,,,,,0,0,1,,,,0,,,49,0
646144,note_on,,,,,0,0,1,,,,0,,,41,33
646144,note_on,,,,,0,0,1,,,,0,,,50,21
646149,control_change,,,,,5,0,1,,,,0,64,0,,
646153,note_on,,,,,4,0,1,,,,0,,,59,29
646208,note_off,,,,,55,0,1,,,,0,,,59,0
646215,control_change,,,,,7,0,1,,,,0,64,127,,
646216,note_on,,,,,1,0,1,,,,0,,,62,38
646268,note_on,,,,,52,0,1,,,,0,,,59,25
646272,note_off,,,,,4,0,1,,,,0,,,62,0
646336,note_on,,,,,0,0,1,,,,0,,,62,33
646336,note_off,,,,,64,0,1,,,,0,,,59,0
646391,note_on,,,,,55,0,1,,,,0,,,59,32
646400,note_off,,,,,9,0,1,,,,0,,,62,0
646464,note_off,,,,,64,0,1,,,,0,,,59,0
646464,note_on,,,,,0,0,1,,,,0,,,62,29
646528,note_off,,,,,64,0,1,,,,0,,,62,0
646533,note_on,,,,,5,0,1,,,,0,,,59,21
646588,note_on,,,,,55,0,1,,,,0,,,62,31
646592,note_off,,,,,4,0,1,,,,0,,,59,0
646649,note_on,,,,,57,0,1,,,,0,,,59,22
646656,note_off,,,,,7,0,1,,,,0,,,62,0
646720,note_off,,,,,64,0,1,,,,0,,,59,0
646729,note_on,,,,,9,0,1,,,,0,,,62,33
646779,note_on,,,,,50,0,1,,,,0,,,59,28
646784,note_off,,,,,5,0,1,,,,0,,,62,0
646848,note_off,,,,,64,0,1,,,,0,,,59,0
646852,note_on,,,,,4,0,1,,,,0,,,62,28
646912,note_off,,,,,60,0,1,,,,0,,,62,0
646917,note_on,,,,,5,0,1,,,,0,,,59,24
646976,note_off,,,,,59,0,1,,,,0,,,59,0
646984,note_on,,,,,8,0,1,,,,0,,,62,25
647040,note_off,,,,,56,0,1,,,,0,,,62,0
647040,note_on,,,,,0,0,1,,,,0,,,59,25
647099,note_on,,,,,59,0,1,,,,0,,,62,32
647104,note_off,,,,,5,0,1,,,,0,,,59,0
647160,note_on,,,,,56,0,1,,,,0,,,59,22
647168,note_off,,,,,8,0,1,,,,0,,,62,0
647232,note_off,,,,,64,0,1,,,,0,,,59,0
647238,note_on,,,,,6,0,1,,,,0,,,62,31
647296,note_off,,,,,58,0,1,,,,0,,,62,0
647305,note_on,,,,,9,0,1,,,,0,,,59,25
647356,note_on,,,,,51,0,1,,,,0,,,62,21
647360,note_off,,,,,4,0,1,,,,0,,,59,0
647424,note_off,,,,,64,0,1,,,,0,,,62,0
647431,note_on,,,,,7,0,1,,,,0,,,59,19
647479,note_on,,,,,48,0,1,,,,0,,,62,25
647488,note_off,,,,,9,0,1,,,,0,,,59,0
647543,note_on,,,,,55,0,1,,,,0,,,59,24
647552,note_off,,,,,9,0,1,,,,0,,,62,0
647611,note_on,,,,,59,0,1,,,,0,,,62,26
647616,note_off,,,,,5,0,1,,,,0,,,59,0
647680,note_off,,,,,64,0,1,,,,0,,,62,0
647685,note_on,,,,,5,0,1,,,,0,,,59,22
647737,note_on,,,,,52,0,1,,,,0,,,62,24
647744,note_off,,,,,7,0,1,,,,0,,,59,0
647808,note_off,,,,,64,0,1,,,,0,,,62,0
647811,note_on,,,,,3,0,1,,,,0,,,59,16
647872,note_off,,,,,61,0,1,,,,0,,,59,0
647880,note_on,,,,,8,0,1,,,,0,,,62,27
647936,note_off,,,,,56,0,1,,,,0,,,62,0
647937,note_on,,,,,1,0,1,,,,0,,,59,19
648000,note_off,,,,,63,0,1,,,,0,,,59,0
648007,note_on,,,,,7,0,1,,,,0,,,62,21
648064,note_off,,,,,57,0,1,,,,0,,,62,0
648073,note_on,,,,,9,0,1,,,,0,,,59,12
648128,note_off,,,,,55,0,1,,,,0,,,59,0
648128,set_tempo,,,,,4032,1,0,,2000000,,,,,,
648137,note_on,,,,,9,0,1,,,,0,,,62,25
648188,note_on,,,,,51,0,1,,,,0,,,41,19
648192,note_on,,,,,0,0,1,,,,0,,,59,14
648192,note_off,,,,,0,0,1,,,,0,,,50,0
648192,note_off,,,,,0,0,1,,,,0,,,41,0
648192,note_off,,,,,0,0,1,,,,0,,,62,0
648192,control_change,,,,,0,0,1,,,,0,64,0,,
648192,control_change,,,,,0,0,1,,,,0,64,127,,
648192,control_change,,,,,4,0,1,,,,0,64,0,,
648192,note_on,,,,,0,0,1,,,,0,,,61,26
648192,set_tempo,,,,,64,1,0,,1200000,,,,,,
648248,control_change,,,,,56,0,1,,,,0,64,0,,
648256,note_off,,,,,8,0,1,,,,0,,,41,0
648263,note_on,,,,,7,0,1,,,,0,,,49,11
648296,control_change,,,,,33,0,1,,,,0,64,127,,
648320,note_off,,,,,24,0,1,,,,0,,,49,0
648320,note_on,,,,,0,0,1,,,,0,,,41,4
648378,note_on,,,,,58,0,1,,,,0,,,49,10
648384,note_off,,,,,6,0,1,,,,0,,,41,0
648448,note_off,,,,,64,0,1,,,,0,,,49,0
648449,note_on,,,,,1,0,1,,,,0,,,41,14
648507,note_on,,,,,58,0,1,,,,0,,,49,8
648512,note_off,,,,,5,0,1,,,,0,,,41,0
648576,note_off,,,,,64,0,1,,,,0,,,49,0
648580,note_on,,,,,4,0,1,,,,0,,,41,9
648640,note_off,,,,,60,0,1,,,,0,,,41,0
648643,note_on,,,,,3,0,1,,,,0,,,49,5
648704,set_tempo,,,,,512,1,0,,857142,,,,,,
648704,note_off,,,,,0,0,1,,,,0,,,49,0
648704,note_on,,,,,61,0,1,,,,0,,,63,22
648707,note_on,,,,,3,0,1,,,,0,,,41,11
648764,note_on,,,,,57,0,1,,,,0,,,49,15
648768,note_off,,,,,4,0,1,,,,0,,,41,0
648806,note_on,,,,,0,0,1,,,,0,,,65,24
648806,note_off,,,,,38,0,1,,,,0,,,63,0
648832,note_off,,,,,26,0,1,,,,0,,,49,0
648838,note_on,,,,,6,0,1,,,,0,,,41,8
648895,note_on,,,,,57,0,1,,,,0,,,49,12
648896,note_off,,,,,1,0,1,,,,0,,,41,0
648909,note_off,,,,,13,0,1,,,,0,,,65,0
648909,note_on,,,,,0,0,1,,,,0,,,66,26
648957,note_on,,,,,48,0,1,,,,0,,,41,16
648960,note_off,,,,,3,0,1,,,,0,,,49,0
649011,note_off,,,,,51,0,1,,,,0,,,66,0
649011,note_on,,,,,0,0,1,,,,0,,,68,28
649015,note_on,,,,,4,0,1,,,,0,,,49,9
649024,note_off,,,,,9,0,1,,,,0,,,41,0
649088,note_off,,,,,64,0,1,,,,0,,,49,0
649089,note_on,,,,,1,0,1,,,,0,,,41,17
649114,note_on,,,,,0,0,1,,,,0,,,70,30
649114,note_off,,,,,25,0,1,,,,0,,,68,0
649147,note_on,,,,,33,0,1,,,,0,,,49,9
649152,note_off,,,,,5,0,1,,,,0,,,41,0
649216,note_off,,,,,0,0,1,,,,0,,,49,0
649216,note_on,,,,,0,0,1,,,,0,,,71,48
649216,note_on,,,,,0,0,1,,,,0,,,68,34
649216,note_off,,,,,0,0,1,,,,0,,,70,0
649216,set_tempo,,,,,512,1,0,,1200000,,,,,,
649216,note_off,,,,,64,0,1,,,,0,,,59,0
649216,note_off,,,,,0,0,1,,,,0,,,61,0
649217,note_on,,,,,1,0,1,,,,0,,,41,14
649273,note_on,,,,,56,0,1,,,,0,,,49,16
649280,note_off,,,,,7,0,1,,,,0,,,41,0
649338,note_on,,,,,58,0,1,,,,0,,,41,14
649344,note_off,,,,,6,0,1,,,,0,,,49,0
649408,note_off,,,,,64,0,1,,,,0,,,41,0
649414,note_on,,,,,6,0,1,,,,0,,,49,14
649471,note_on,,,,,57,0,1,,,,0,,,41,10
649472,note_off,,,,,1,0,1,,,,0,,,49,0
649529,note_on,,,,,57,0,1,,,,0,,,49,14
649536,note_off,,,,,7,0,1,,,,0,,,41,0
649599,note_on,,,,,63,0,1,,,,0,,,41,19
649600,note_off,,,,,1,0,1,,,,0,,,49,0
649664,note_off,,,,,64,0,1,,,,0,,,41,0
649670,note_on,,,,,6,0,1,,,,0,,,49,10
649728,set_tempo,,,,,512,1,0,,857142,,,,,,
649728,note_off,,,,,0,0,1,,,,0,,,49,0
649728,note_on,,,,,58,0,1,,,,0,,,70,33
649734,note_on,,,,,6,0,1,,,,0,,,41,19
649792,note_off,,,,,58,0,1,,,,0,,,41,0
649801,note_on,,,,,9,0,1,,,,0,,,49,13
649830,note_off,,,,,29,0,1,,,,0,,,70,0
649830,note_on,,,,,0,0,1,,,,0,,,68,30
649856,note_off,,,,,26,0,1,,,,0,,,49,0
649862,note_on,,,,,6,0,1,,,,0,,,41,17
649915,note_on,,,,,53,0,1,,,,0,,,49,18
649920,note_off,,,,,5,0,1,,,,0,,,41,0
649933,note_on,,,,,0,0,1,,,,0,,,66,26
649933,note_off,,,,,13,0,1,,,,0,,,68,0
649976,note_on,,,,,43,0,1,,,,0,,,41,13
649984,note_off,,,,,8,0,1,,,,0,,,49,0
650035,note_off,,,,,51,0,1,,,,0,,,66,0
650035,note_on,,,,,0,0,1,,,,0,,,65,23
650048,note_off,,,,,13,0,1,,,,0,,,41,0
650048,note_on,,,,,0,0,1,,,,0,,,49,14
650107,note_on,,,,,59,0,1,,,,0,,,41,14
650112,note_off,,,,,5,0,1,,,,0,,,49,0
650138,note_off,,,,,26,0,1,,,,0,,,65,0
650138,note_on,,,,,0,0,1,,,,0,,,63,20
650173,note_on,,,,,35,0,1,,,,0,,,49,16
650176,note_off,,,,,3,0,1,,,,0,,,41,0
650240,note_off,,,,,0,0,1,,,,0,,,71,0
650240,note_off,,,,,64,0,1,,,,0,,,63,0
650240,note_off,,,,,0,0,1,,,,0,,,68,0
650240,note_on,,,,,0,0,1,,,,0,,,59,23
650240,note_on,,,,,0,0,1,,,,0,,,61,36
650240,set_tempo,,,,,512,1,0,,1000000,,,,,,
650240,note_off,,,,,0,0,1,,,,0,,,49,0
650245,control_change,,,,,5,0,1,,,,0,64,0,,
650249,note_on,,,,,4,0,1,,,,0,,,41,18
650304,note_off,,,,,55,0,1,,,,0,,,41,0
650311,control_change,,,,,7,0,1,,,,0,64,127,,
650312,note_on,,,,,1,0,1,,,,0,,,49,18
650364,note_on,,,,,52,0,1,,,,0,,,41,15
650368,note_off,,,,,4,0,1,,,,0,,,49,0
650432,note_off,,,,,64,0,1,,,,0,,,41,0
650432,note_on,,,,,0,0,1,,,,0,,,49,17
650487,note_on,,,,,55,0,1,,,,0,,,41,21
650496,note_off,,,,,9,0,1,,,,0,,,49,0
650560,note_on,,,,,0,0,1,,,,0,,,49,14
650560,note_off,,,,,64,0,1,,,,0,,,41,0
650624,note_off,,,,,64,0,1,,,,0,,,49,0
650629,note_on,,,,,5,0,1,,,,0,,,41,12
650684,note_on,,,,,55,0,1,,,,0,,,49,16
650688,note_off,,,,,4,0,1,,,,0,,,41,0
650745,note_on,,,,,57,0,1,,,,0,,,41,13
650752,note_off,,,,,7,0,1,,,,0,,,49,0
650816,note_off,,,,,64,0,1,,,,0,,,41,0
650825,note_on,,,,,9,0,1,,,,0,,,49,18
650875,note_on,,,,,50,0,1,,,,0,,,41,18
650880,note_off,,,,,5,0,1,,,,0,,,49,0
650944,note_off,,,,,64,0,1,,,,0,,,41,0
650948,note_on,,,,,4,0,1,,,,0,,,49,13
651008,note_off,,,,,60,0,1,,,,0,,,49,0
651013,note_on,,,,,5,0,1,,,,0,,,41,15
651072,note_off,,,,,59,0,1,,,,0,,,41,0
651080,note_on,,,,,8,0,1,,,,0,,,49,11
651136,note_off,,,,,56,0,1,,,,0,,,49,0
651136,note_on,,,,,0,0,1,,,,0,,,41,16
651195,note_on,,,,,59,0,1,,,,0,,,49,18
651200,note_off,,,,,5,0,1,,,,0,,,41,0
651256,note_on,,,,,56,0,1,,,,0,,,41,13
651264,note_off,,,,,0,0,1,,,,0,,,61,0
651264,note_off,,,,,0,0,1,,,,0,,,49,0
651264,note_off,,,,,8,0,1,,,,0,,,59,0
651328,note_off,,,,,64,0,1,,,,0,,,41,0
651334,note_on,,,,,6,0,1,,,,0,,,49,17
651392,note_off,,,,,58,0,1,,,,0,,,49,0
651401,note_on,,,,,9,0,1,,,,0,,,41,16
651452,note_on,,,,,51,0,1,,,,0,,,49,8
651456,note_off,,,,,4,0,1,,,,0,,,41,0
651520,note_off,,,,,64,0,1,,,,0,,,49,0
651527,note_on,,,,,7,0,1,,,,0,,,41,11
651575,note_on,,,,,48,0,1,,,,0,,,49,12
651584,note_off,,,,,9,0,1,,,,0,,,41,0
651639,note_on,,,,,55,0,1,,,,0,,,41,16
651648,note_off,,,,,9,0,1,,,,0,,,49,0
651707,note_on,,,,,59,0,1,,,,0,,,49,13
651712,note_off,,,,,5,0,1,,,,0,,,41,0
651776,note_off,,,,,64,0,1,,,,0,,,49,0
651781,note_on,,,,,5,0,1,,,,0,,,41,14
651833,note_on,,,,,52,0,1,,,,0,,,49,11
651840,note_off,,,,,7,0,1,,,,0,,,41,0
651904,note_off,,,,,64,0,1,,,,0,,,49,0
651907,note_on,,,,,3,0,1,,,,0,,,41,9
651968,note_off,,,,,61,0,1,,,,0,,,41,0
651976,note_on,,,,,8,0,1,,,,0,,,49,14
652032,note_on,,,,,56,0,1,,,,0,,,58,26
652032,note_on,,,,,0,0,1,,,,0,,,61,38
652032,note_off,,,,,0,0,1,,,,0,,,49,0
652033,note_on,,,,,1,0,1,,,,0,,,41,12
652096,note_off,,,,,63,0,1,,,,0,,,41,0
652103,note_on,,,,,7,0,1,,,,0,,,49,9
652160,note_off,,,,,57,0,1,,,,0,,,49,0
652169,note_on,,,,,9,0,1,,,,0,,,41,5
652224,note_off,,,,,55,0,1,,,,0,,,41,0
652233,note_on,,,,,9,0,1,,,,0,,,49,13
652286,note_on,,,,,53,0,1,,,,0,,,58,17
652288,note_on,,,,,0,0,1,,,,0,,,49,21
652288,note_on,,,,,0,0,1,,,,0,,,42,33
652288,note_off,,,,,0,0,1,,,,0,,,49,0
652288,note_off,,,,,0,0,1,,,,0,,,61,0
652288,note_off,,,,,0,0,1,,,,0,,,58,0
652288,set_tempo,,,,,2048,1,0,,1000000,,,,,,
652288,control_change,,,,,0,0,1,,,,0,64,127,,
652288,control_change,,,,,0,0,1,,,,0,64,0,,
652288,control_change,,,,,2,0,1,,,,0,64,0,,
652288,control_change,,,,,0,0,1,,,,0,64,0,,
652344,control_change,,,,,56,0,1,,,,0,64,0,,
652347,note_on,,,,,3,0,1,,,,0,,,61,30
652352,note_off,,,,,5,0,1,,,,0,,,58,0
652392,control_change,,,,,40,0,1,,,,0,64,127,,
652414,note_on,,,,,22,0,1,,,,0,,,58,20
652416,note_off,,,,,2,0,1,,,,0,,,61,0
652480,note_off,,,,,64,0,1,,,,0,,,58,0
652480,note_on,,,,,0,0,1,,,,0,,,61,24
652544,note_off,,,,,64,0,1,,,,0,,,61,0
652547,note_on,,,,,3,0,1,,,,0,,,58,15
652608,note_off,,,,,61,0,1,,,,0,,,58,0
652613,note_on,,,,,5,0,1,,,,0,,,61,24
652672,note_off,,,,,59,0,1,,,,0,,,61,0
652672,note_on,,,,,0,0,1,,,,0,,,58,21
652736,note_off,,,,,64,0,1,,,,0,,,58,0
652739,note_on,,,,,3,0,1,,,,0,,,61,30
652800,note_off,,,,,61,0,1,,,,0,,,61,0
652800,note_on,,,,,0,0,1,,,,0,,,58,14
652864,note_off,,,,,64,0,1,,,,0,,,58,0
652867,note_on,,,,,3,0,1,,,,0,,,61,28
652922,note_on,,,,,55,0,1,,,,0,,,58,18
652928,note_off,,,,,6,0,1,,,,0,,,61,0
652992,note_off,,,,,64,0,1,,,,0,,,58,0
652994,note_on,,,,,2,0,1,,,,0,,,61,33
653056,note_off,,,,,62,0,1,,,,0,,,61,0
653056,note_on,,,,,0,0,1,,,,0,,,58,17
653115,note_on,,,,,59,0,1,,,,0,,,61,25
653120,note_off,,,,,5,0,1,,,,0,,,58,0
653184,note_off,,,,,64,0,1,,,,0,,,61,0
653190,note_on,,,,,6,0,1,,,,0,,,58,23
653248,note_off,,,,,58,0,1,,,,0,,,58,0
653252,note_on,,,,,4,0,1,,,,0,,,61,26
653312,note_off,,,,,60,0,1,,,,0,,,61,0
653314,note_on,,,,,2,0,1,,,,0,,,58,26
653368,note_on,,,,,54,0,1,,,,0,,,61,35
653376,note_off,,,,,8,0,1,,,,0,,,58,0
653440,note_on,,,,,0,0,1,,,,0,,,58,24
653440,note_off,,,,,64,0,1,,,,0,,,61,0
653496,note_on,,,,,56,0,1,,,,0,,,61,27
653504,note_off,,,,,8,0,1,,,,0,,,58,0
653568,note_off,,,,,64,0,1,,,,0,,,61,0
653573,note_on,,,,,5,0,1,,,,0,,,58,27
653630,note_on,,,,,57,0,1,,,,0,,,61,36
653632,note_off,,,,,2,0,1,,,,0,,,58,0
653696,note_off,,,,,64,0,1,,,,0,,,61,0
653698,note_on,,,,,2,0,1,,,,0,,,58,24
653760,note_off,,,,,62,0,1,,,,0,,,58,0
653760,note_on,,,,,0,0,1,,,,0,,,61,31
653824,note_off,,,,,64,0,1,,,,0,,,61,0
653827,note_on,,,,,3,0,1,,,,0,,,58,28
653884,note_on,,,,,57,0,1,,,,0,,,61,30
653888,note_off,,,,,4,0,1,,,,0,,,58,0
653952,note_off,,,,,64,0,1,,,,0,,,61,0
653955,note_on,,,,,3,0,1,,,,0,,,58,27
654008,note_on,,,,,53,0,1,,,,0,,,61,37
654016,note_off,,,,,8,0,1,,,,0,,,58,0
654078,note_on,,,,,62,0,1,,,,0,,,58,29
654080,note_off,,,,,2,0,1,,,,0,,,61,0
654144,note_off,,,,,64,0,1,,,,0,,,58,0
654147,note_on,,,,,3,0,1,,,,0,,,61,40
654208,note_off,,,,,61,0,1,,,,0,,,61,0
654216,note_on,,,,,8,0,1,,,,0,,,58,24
654272,note_off,,,,,56,0,1,,,,0,,,58,0
654279,note_on,,,,,7,0,1,,,,0,,,61,35
654329,note_on,,,,,50,0,1,,,,0,,,57,30
654336,note_off,,,,,7,0,1,,,,0,,,61,0
654336,note_off,,,,,0,0,1,,,,0,,,42,0
654336,note_off,,,,,0,0,1,,,,0,,,49,0
654336,note_on,,,,,0,0,1,,,,0,,,42,33
654336,note_on,,,,,0,0,1,,,,0,,,48,27
654341,control_change,,,,,5,0,1,,,,0,64,0,,
654400,note_off,,,,,59,0,1,,,,0,,,57,0
654407,control_change,,,,,7,0,1,,,,0,64,127,,
654409,note_on,,,,,2,0,1,,,,0,,,63,33
654464,note_off,,,,,55,0,1,,,,0,,,63,0
654470,note_on,,,,,6,0,1,,,,0,,,57,28
654528,note_off,,,,,58,0,1,,,,0,,,57,0
654528,note_on,,,,,0,0,1,,,,0,,,63,35
654592,note_off,,,,,64,0,1,,,,0,,,63,0
654594,note_on,,,,,2,0,1,,,,0,,,57,29
654651,note_on,,,,,57,0,1,,,,0,,,63,29
654656,note_off,,,,,5,0,1,,,,0,,,57,0
654711,note_on,,,,,55,0,1,,,,0,,,57,31
654720,note_off,,,,,9,0,1,,,,0,,,63,0
654777,note_on,,,,,57,0,1,,,,0,,,63,29
654784,note_off,,,,,7,0,1,,,,0,,,57,0
654846,note_on,,,,,62,0,1,,,,0,,,57,30
654848,note_off,,,,,2,0,1,,,,0,,,63,0
654912,note_on,,,,,0,0,1,,,,0,,,63,31
654912,note_off,,,,,64,0,1,,,,0,,,57,0
654976,note_off,,,,,64,0,1,,,,0,,,63,0
654983,note_on,,,,,7,0,1,,,,0,,,57,30
655033,note_on,,,,,50,0,1,,,,0,,,63,26
655040,note_off,,,,,7,0,1,,,,0,,,57,0
655104,note_off,,,,,64,0,1,,,,0,,,63,0
655110,note_on,,,,,6,0,1,,,,0,,,57,23
655160,note_on,,,,,50,0,1,,,,0,,,63,29
655168,note_off,,,,,8,0,1,,,,0,,,57,0
655232,note_off,,,,,64,0,1,,,,0,,,63,0
655237,note_on,,,,,5,0,1,,,,0,,,57,24
655295,note_on,,,,,58,0,1,,,,0,,,63,27
655296,note_off,,,,,1,0,1,,,,0,,,57,0
655351,note_on,,,,,55,0,1,,,,0,,,57,22
655360,note_off,,,,,9,0,1,,,,0,,,63,0
655424,note_off,,,,,64,0,1,,,,0,,,57,0
655432,note_on,,,,,8,0,1,,,,0,,,63,29
655488,note_off,,,,,56,0,1,,,,0,,,63,0
655493,note_on,,,,,5,0,1,,,,0,,,57,17
655552,note_off,,,,,59,0,1,,,,0,,,57,0
655554,note_on,,,,,2,0,1,,,,0,,,63,29
655616,note_off,,,,,62,0,1,,,,0,,,63,0
655616,note_on,,,,,0,0,1,,,,0,,,57,19
655672,note_on,,,,,56,0,1,,,,0,,,63,33
655680,note_off,,,,,8,0,1,,,,0,,,57,0
655740,note_on,,,,,60,0,1,,,,0,,,57,16
655744,note_off,,,,,4,0,1,,,,0,,,63,0
655808,note_off,,,,,64,0,1,,,,0,,,57,0
655815,note_on,,,,,7,0,1,,,,0,,,63,24
655872,note_off,,,,,57,0,1,,,,0,,,63,0
655878,note_on,,,,,6,0,1,,,,0,,,57,15
655930,note_on,,,,,52,0,1,,,,0,,,63,23
655936,note_off,,,,,6,0,1,,,,0,,,57,0
656000,note_off,,,,,64,0,1,,,,0,,,63,0
656000,note_on,,,,,0,0,1,,,,0,,,57,21
656064,note_off,,,,,64,0,1,,,,0,,,57,0
656064,note_on,,,,,0,0,1,,,,0,,,63,29
656124,note_on,,,,,60,0,1,,,,0,,,57,15
656128,note_off,,,,,4,0,1,,,,0,,,63,0
656184,note_on,,,,,56,0,1,,,,0,,,63,28
656192,note_off,,,,,8,0,1,,,,0,,,57,0
656251,note_on,,,,,59,0,1,,,,0,,,57,15
656256,note_off,,,,,5,0,1,,,,0,,,63,0
656311,note_on,,,,,55,0,1,,,,0,,,63,22
656320,note_off,,,,,9,0,1,,,,0,,,57,0
656380,note_on,,,,,60,0,1,,,,0,,,42,22
656384,note_off,,,,,0,0,1,,,,0,,,48,0
656384,note_off,,,,,0,0,1,,,,0,,,42,0
656384,note_on,,,,,0,0,1,,,,0,,,61,28
656384,note_on,,,,,0,0,1,,,,0,,,58,16
656384,note_off,,,,,0,0,1,,,,0,,,63,0
656384,set_tempo,,,,,4096,1,0,,1200000,,,,,,
656384,control_change,,,,,0,0,1,,,,0,64,0,,
656384,control_change,,,,,0,0,1,,,,0,64,127,,
656384,control_change,,,,,0,0,1,,,,0,64,0,,
656384,control_change,,,,,4,0,1,,,,0,64,0,,
656384,control_change,,,,,0,0,1,,,,0,64,0,,
656440,control_change,,,,,56,0,1,,,,0,64,0,,
656448,note_off,,,,,8,0,1,,,,0,,,42,0
656455,note_on,,,,,7,0,1,,,,0,,,49,11
656488,control_change,,,,,33,0,1,,,,0,64,127,,
656512,note_off,,,,,24,0,1,,,,0,,,49,0
656512,note_on,,,,,0,0,1,,,,0,,,42,4
656570,note_on,,,,,58,0,1,,,,0,,,49,10
656576,note_off,,,,,6,0,1,,,,0,,,42,0
656640,note_off,,,,,64,0,1,,,,0,,,49,0
656641,note_on,,,,,1,0,1,,,,0,,,42,14
656699,note_on,,,,,58,0,1,,,,0,,,49,8
656704,note_off,,,,,5,0,1,,,,0,,,42,0
656768,note_off,,,,,64,0,1,,,,0,,,49,0
656772,note_on,,,,,4,0,1,,,,0,,,42,9
656832,note_off,,,,,60,0,1,,,,0,,,42,0
656835,note_on,,,,,3,0,1,,,,0,,,49,5
656896,note_off,,,,,61,0,1,,,,0,,,49,0
656896,set_tempo,,,,,512,1,0,,857142,,,,,,
656899,note_on,,,,,3,0,1,,,,0,,,42,11
656956,note_on,,,,,57,0,1,,,,0,,,49,15
656960,note_off,,,,,4,0,1,,,,0,,,42,0
656998,note_on,,,,,38,0,1,,,,0,,,63,24
657024,note_off,,,,,26,0,1,,,,0,,,49,0
657030,note_on,,,,,6,0,1,,,,0,,,42,8
657087,note_on,,,,,57,0,1,,,,0,,,49,12
657088,note_off,,,,,1,0,1,,,,0,,,42,0
657101,note_on,,,,,0,0,1,,,,0,,,65,26
657101,note_off,,,,,13,0,1,,,,0,,,63,0
657149,note_on,,,,,48,0,1,,,,0,,,42,16
657152,note_off,,,,,3,0,1,,,,0,,,49,0
657203,note_on,,,,,0,0,1,,,,0,,,66,28
657203,note_off,,,,,51,0,1,,,,0,,,65,0
657207,note_on,,,,,4,0,1,,,,0,,,49,9
657216,note_off,,,,,9,0,1,,,,0,,,42,0
657280,note_off,,,,,64,0,1,,,,0,,,49,0
657281,note_on,,,,,1,0,1,,,,0,,,42,17
657306,note_off,,,,,25,0,1,,,,0,,,66,0
657306,note_on,,,,,0,0,1,,,,0,,,68,30
657339,note_on,,,,,33,0,1,,,,0,,,49,9
657344,note_off,,,,,5,0,1,,,,0,,,42,0
657408,note_on,,,,,0,0,1,,,,0,,,66,34
657408,set_tempo,,,,,512,1,0,,1200000,,,,,,
657408,note_on,,,,,0,0,1,,,,0,,,70,48
657408,note_off,,,,,0,0,1,,,,0,,,61,0
657408,note_off,,,,,64,0,1,,,,0,,,58,0
657408,note_off,,,,,0,0,1,,,,0,,,68,0
657408,note_off,,,,,0,0,1,,,,0,,,49,0
657409,note_on,,,,,1,0,1,,,,0,,,42,14
657465,note_on,,,,,56,0,1,,,,0,,,49,16
657472,note_off,,,,,7,0,1,,,,0,,,42,0
657530,note_on,,,,,58,0,1,,,,0,,,42,14
657536,note_off,,,,,6,0,1,,,,0,,,49,0
657600,note_off,,,,,64,0,1,,,,0,,,42,0
657606,note_on,,,,,6,0,1,,,,0,,,49,14
657663,note_on,,,,,57,0,1,,,,0,,,42,10
657664,note_off,,,,,1,0,1,,,,0,,,49,0
657721,note_on,,,,,57,0,1,,,,0,,,49,14
657728,note_off,,,,,7,0,1,,,,0,,,42,0
657791,note_on,,,,,63,0,1,,,,0,,,42,19
657792,note_off,,,,,1,0,1,,,,0,,,49,0
657856,note_off,,,,,64,0,1,,,,0,,,42,0
657862,note_on,,,,,6,0,1,,,,0,,,49,10
657920,set_tempo,,,,,512,1,0,,857142,,,,,,
657920,note_off,,,,,58,0,1,,,,0,,,49,0
657926,note_on,,,,,6,0,1,,,,0,,,42,19
657984,note_off,,,,,58,0,1,,,,0,,,42,0
657993,note_on,,,,,9,0,1,,,,0,,,49,13
658022,note_on,,,,,29,0,1,,,,0,,,68,30
658048,note_off,,,,,26,0,1,,,,0,,,49,0
658054,note_on,,,,,6,0,1,,,,0,,,42,17
658107,note_on,,,,,53,0,1,,,,0,,,49,18
658112,note_off,,,,,5,0,1,,,,0,,,42,0
658125,note_off,,,,,13,0,1,,,,0,,,68,0
658125,note_on,,,,,0,0,1,,,,0,,,66,26
658168,note_on,,,,,43,0,1,,,,0,,,42,13
658176,note_off,,,,,8,0,1,,,,0,,,49,0
658227,note_off,,,,,51,0,1,,,,0,,,66,0
658227,note_on,,,,,0,0,1,,,,0,,,65,23
658240,note_on,,,,,0,0,1,,,,0,,,49,14
658240,note_off,,,,,13,0,1,,,,0,,,42,0
658299,note_on,,,,,59,0,1,,,,0,,,42,14
658304,note_off,,,,,5,0,1,,,,0,,,49,0
658330,note_off,,,,,26,0,1,,,,0,,,65,0
658330,note_on,,,,,0,0,1,,,,0,,,63,20
658365,note_on,,,,,35,0,1,,,,0,,,49,16
658368,note_off,,,,,3,0,1,,,,0,,,42,0
658432,note_on,,,,,0,0,1,,,,0,,,61,36
658432,note_off,,,,,0,0,1,,,,0,,,49,0
658432,note_off,,,,,0,0,1,,,,0,,,70,0
658432,note_off,,,,,64,0,1,,,,0,,,63,0
658432,note_off,,,,,0,0,1,,,,0,,,66,0
658432,note_on,,,,,0,0,1,,,,0,,,58,23
658432,set_tempo,,,,,512,1,0,,1000000,,,,,,
658437,control_change,,,,,5,0,1,,,,0,64,0,,
658441,note_on,,,,,4,0,1,,,,0,,,42,18
658496,note_off,,,,,55,0,1,,,,0,,,42,0
658503,control_change,,,,,7,0,1,,,,0,64,127,,
658504,note_on,,,,,1,0,1,,,,0,,,49,18
658556,note_on,,,,,52,0,1,,,,0,,,42,15
658560,note_off,,,,,4,0,1,,,,0,,,49,0
658624,note_off,,,,,64,0,1,,,,0,,,42,0
658624,note_on,,,,,0,0,1,,,,0,,,49,17
658679,note_on,,,,,55,0,1,,,,0,,,42,21
658688,note_off,,,,,9,0,1,,,,0,,,49,0
658752,note_off,,,,,64,0,1,,,,0,,,42,0
658752,note_on,,,,,0,0,1,,,,0,,,49,14
658816,note_off,,,,,64,0,1,,,,0,,,49,0
658821,note_on,,,,,5,0,1,,,,0,,,42,12
658876,note_on,,,,,55,0,1,,,,0,,,49,16
658880,note_off,,,,,4,0,1,,,,0,,,42,0
658937,note_on,,,,,57,0,1,,,,0,,,42,13
658944,note_off,,,,,7,0,1,,,,0,,,49,0
659008,note_off,,,,,64,0,1,,,,0,,,42,0
659017,note_on,,,,,9,0,1,,,,0,,,49,18
659067,note_on,,,,,50,0,1,,,,0,,,42,18
659072,note_off,,,,,5,0,1,,,,0,,,49,0
659136,note_off,,,,,64,0,1,,,,0,,,42,0
659140,note_on,,,,,4,0,1,,,,0,,,49,13
659200,note_off,,,,,60,0,1,,,,0,,,49,0
659205,note_on,,,,,5,0,1,,,,0,,,42,15
659264,note_off,,,,,59,0,1,,,,0,,,42,0
659272,note_on,,,,,8,0,1,,,,0,,,49,11
659328,note_off,,,,,56,0,1,,,,0,,,49,0
659328,note_on,,,,,0,0,1,,,,0,,,42,16
659387,note_on,,,,,59,0,1,,,,0,,,49,18
659392,note_off,,,,,5,0,1,,,,0,,,42,0
659448,note_on,,,,,56,0,1,,,,0,,,42,13
659456,note_off,,,,,8,0,1,,,,0,,,58,0
659456,note_off,,,,,0,0,1,,,,0,,,61,0
659456,note_off,,,,,0,0,1,,,,0,,,49,0
659520,note_off,,,,,64,0,1,,,,0,,,42,0
659526,note_on,,,,,6,0,1,,,,0,,,49,17
659584,note_off,,,,,58,0,1,,,,0,,,49,0
659593,note_on,,,,,9,0,1,,,,0,,,42,16
659644,note_on,,,,,51,0,1,,,,0,,,49,8
659648,note_off,,,,,4,0,1,,,,0,,,42,0
659712,note_off,,,,,64,0,1,,,,0,,,49,0
659719,note_on,,,,,7,0,1,,,,0,,,42,11
659767,note_on,,,,,48,0,1,,,,0,,,49,12
659776,note_off,,,,,9,0,1,,,,0,,,42,0
659831,note_on,,,,,55,0,1,,,,0,,,42,16
659840,note_off,,,,,9,0,1,,,,0,,,49,0
659899,note_on,,,,,59,0,1,,,,0,,,49,13
659904,note_off,,,,,5,0,1,,,,0,,,42,0
659968,note_off,,,,,64,0,1,,,,0,,,49,0
659973,note_on,,,,,5,0,1,,,,0,,,42,14
660025,note_on,,,,,52,0,1,,,,0,,,49,11
660032,note_off,,,,,7,0,1,,,,0,,,42,0
660096,note_off,,,,,64,0,1,,,,0,,,49,0
660099,note_on,,,,,3,0,1,,,,0,,,42,9
660160,note_off,,,,,61,0,1,,,,0,,,42,0
660168,note_on,,,,,8,0,1,,,,0,,,49,14
660224,note_on,,,,,56,0,1,,,,0,,,54,57
660224,note_on,,,,,0,0,1,,,,0,,,61,70
660224,note_on,,,,,0,0,1,,,,0,,,58,57
660224,note_off,,,,,0,0,1,,,,0,,,49,0
660225,note_on,,,,,1,0,1,,,,0,,,42,12
660288,note_off,,,,,63,0,1,,,,0,,,42,0
660295,note_on,,,,,7,0,1,,,,0,,,49,9
660352,note_off,,,,,57,0,1,,,,0,,,49,0
660361,note_on,,,,,9,0,1,,,,0,,,42,5
660416,note_off,,,,,55,0,1,,,,0,,,42,0
660425,note_on,,,,,9,0,1,,,,0,,,49,13
660480,note_on,,,,,0,0,1,,,,0,,,42,50
660480,note_on,,,,,0,0,1,,,,0,,,59,60
660480,control_change,,,,,55,0,1,,,,0,64,0,,
660480,control_change,,,,,0,0,1,,,,0,64,127,,
660480,note_off,,,,,0,0,1,,,,0,,,54,0
660480,note_off,,,,,0,0,1,,,,0,,,58,0
660480,note_off,,,,,0,0,1,,,,0,,,49,0
660480,note_on,,,,,0,0,1,,,,0,,,54,60
660480,note_off,,,,,0,0,1,,,,0,,,61,0
660480,note_on,,,,,0,0,1,,,,0,,,66,75
660480,note_on,,,,,0,0,1,,,,0,,,35,50
660480,note_on,,,,,0,0,1,,,,0,,,47,62
660480,note_on,,,,,0,0,1,,,,0,,,62,69
660759,control_change,,,,,279,0,1,,,,0,64,0,,
661192,note_off,,,,,0,0,1,,,,0,,,66,0
661192,note_off,,,,,0,0,1,,,,0,,,62,0
661192,note_off,,,,,0,0,1,,,,0,,,59,0
661192,note_off,,,,,433,0,1,,,,0,,,54,0
661504,note_on,,,,,0,0,1,,,,0,,,71,64
661504,note_on,,,,,312,0,1,,,,0,,,66,64
661504,note_on,,,,,0,0,1,,,,0,,,74,64
661504,note_on,,,,,0,0,1,,,,0,,,78,79
661876,control_change,,,,,372,0,1,,,,0,64,127,,
663552,note_off,,,,,0,0,1,,,,0,,,78,0
663552,note_off,,,,,1676,0,1,,,,0,,,66,0
663552,note_off,,,,,0,0,1,,,,0,,,71,0
663552,note_off,,,,,0,0,1,,,,0,,,74,0
663552,note_on,,,,,0,0,1,,,,0,,,66,52
663552,note_on,,,,,0,0,1,,,,0,,,71,52
663552,note_on,,,,,0,0,1,,,,0,,,74,67
663552,set_tempo,,,,,5120,1,0,,1090909,,,,,,
663738,control_change,,,,,186,0,1,,,,0,64,0,,
664111,control_change,,,,,373,0,1,,,,0,64,127,,
664576,set_tempo,,,,,1024,1,0,,1000000,,,,,,
664576,control_change,,,,,465,0,1,,,,0,64,0,,
664576,note_on,,,,,0,0,1,,,,0,,,44,26
664576,control_change,,,,,0,0,1,,,,0,64,127,,
664576,note_off,,,,,0,0,1,,,,0,,,66,0
664576,note_off,,,,,0,0,1,,,,0,,,71,0
664576,note_off,,,,,0,0,1,,,,0,,,74,0
664576,note_off,,,,,0,0,1,,,,0,,,35,0
664576,note_off,,,,,0,0,1,,,,0,,,42,0
664576,note_off,,,,,0,0,1,,,,0,,,47,0
664576,note_on,,,,,0,0,1,,,,0,,,65,42
664576,note_on,,,,,0,0,1,,,,0,,,71,42
664576,note_on,,,,,0,0,1,,,,0,,,73,57
664576,note_on,,,,,0,0,1,,,,0,,,49,35
664576,note_on,,,,,0,0,1,,,,0,,,37,26
664809,control_change,,,,,233,0,1,,,,0,64,0,,
665228,control_change,,,,,419,0,1,,,,0,64,127,,
666624,control_change,,,,,1396,0,1,,,,0,64,0,,
666624,note_on,,,,,0,0,1,,,,0,,,46,22
666624,note_on,,,,,0,0,1,,,,0,,,37,22
666624,note_on,,,,,0,0,1,,,,0,,,73,50
666624,note_on,,,,,0,0,1,,,,0,,,66,36
666624,note_off,,,,,0,0,1,,,,0,,,49,0
666624,note_off,,,,,0,0,1,,,,0,,,37,0
666624,note_off,,,,,0,0,1,,,,0,,,73,0
666624,note_off,,,,,0,0,1,,,,0,,,71,0
666624,note_off,,,,,0,0,1,,,,0,,,65,0
666624,note_on,,,,,0,0,1,,,,0,,,49,31
666624,note_off,,,,,0,0,1,,,,0,,,44,0
666624,note_on,,,,,0,0,1,,,,0,,,70,36
666996,control_change,,,,,372,0,1,,,,0,64,127,,
667648,note_on,,,,,0,0,1,,,,0,,,61,34
667648,note_on,,,,,0,0,1,,,,0,,,49,29
667648,note_on,,,,,0,0,1,,,,0,,,71,48
667648,note_on,,,,,0,0,1,,,,0,,,66,34
667648,note_off,,,,,0,0,1,,,,0,,,49,0
667648,note_off,,,,,0,0,1,,,,0,,,46,0
667648,note_off,,,,,0,0,1,,,,0,,,73,0
667648,note_off,,,,,0,0,1,,,,0,,,70,0
667648,note_off,,,,,652,0,1,,,,0,,,66,0
667648,set_tempo,,,,,3072,1,0,,1090909,,,,,,
667788,control_change,,,,,140,0,1,,,,0,64,0,,
668160,set_tempo,,,,,512,1,0,,1000000,,,,,,
668160,note_on,,,,,372,0,1,,,,0,,,70,47
668200,note_off,,,,,40,0,1,,,,0,,,71,0
668672,control_change,,,,,0,0,1,,,,0,64,0,,
668672,note_on,,,,,0,0,1,,,,0,,,51,26
668672,note_on,,,,,0,0,1,,,,0,,,37,26
668672,note_off,,,,,0,0,1,,,,0,,,61,0
668672,note_on,,,,,0,0,1,,,,0,,,73,51
668672,note_on,,,,,0,0,1,,,,0,,,68,32
668672,note_off,,,,,0,0,1,,,,0,,,49,0
668672,note_off,,,,,0,0,1,,,,0,,,37,0
668672,note_off,,,,,0,0,1,,,,0,,,66,0
668672,note_on,,,,,0,0,1,,,,0,,,63,32
668672,control_change,,,,,472,0,1,,,,0,64,0,,
668712,note_off,,,,,40,0,1,,,,0,,,70,0
669091,control_change,,,,,379,0,1,,,,0,64,127,,
670464,note_off,,,,,0,0,1,,,,0,,,73,0
670464,note_off,,,,,0,0,1,,,,0,,,51,0
670464,note_on,,,,,0,0,1,,,,0,,,65,23
670464,note_on,,,,,0,0,1,,,,0,,,71,42
670464,note_on,,,,,0,0,1,,,,0,,,53,23
670464,set_tempo,,,,,2304,1,0,,1200000,,,,,,
670464,note_off,,,,,1373,0,1,,,,0,,,63,0
670720,note_off,,,,,256,0,1,,,,0,,,68,0
670720,note_off,,,,,0,0,1,,,,0,,,65,0
670720,note_off,,,,,0,0,1,,,,0,,,71,0
670720,note_off,,,,,0,0,1,,,,0,,,53,0
670720,note_on,,,,,0,0,1,,,,0,,,70,42
670720,note_on,,,,,0,0,1,,,,0,,,54,22
670720,note_on,,,,,0,0,1,,,,0,,,66,23
670720,set_tempo,,,,,256,1,0,,1000000,,,,,,
670767,control_change,,,,,47,0,1,,,,0,64,0,,
671139,control_change,,,,,372,0,1,,,,0,64,127,,
671744,note_on,,,,,0,0,1,,,,0,,,49,20
671744,note_on,,,,,0,0,1,,,,0,,,68,36
671744,note_on,,,,,0,0,1,,,,0,,,65,22
671744,note_on,,,,,0,0,1,,,,0,,,61,22
671744,note_on,,,,,0,0,1,,,,0,,,59,22
671744,note_off,,,,,0,0,1,,,,0,,,54,0
671744,note_off,,,,,0,0,1,,,,0,,,37,0
671744,note_off,,,,,0,0,1,,,,0,,,70,0
671744,note_off,,,,,605,0,1,,,,0,,,66,0
671744,note_on,,,,,0,0,1,,,,0,,,37,11
671744,set_tempo,,,,,1024,1,0,,1090909,,,,,,
671930,control_change,,,,,186,0,1,,,,0,64,0,,
672303,control_change,,,,,373,0,1,,,,0,64,127,,
672768,note_off,,,,,0,0,1,,,,0,,,68,0
672768,note_off,,,,,0,0,1,,,,0,,,65,0
672768,note_on,,,,,0,0,1,,,,0,,,58,23
672768,note_off,,,,,0,0,1,,,,0,,,59,0
672768,control_change,,,,,0,0,1,,,,0,64,127,,
672768,control_change,,,,,465,0,1,,,,0,64,0,,
672768,note_off,,,,,0,0,1,,,,0,,,61,0
672768,note_on,,,,,0,0,1,,,,0,,,61,23
672768,note_on,,,,,0,0,1,,,,0,,,66,35
672768,note_on,,,,,0,0,1,,,,0,,,42,13
672768,note_on,,,,,0,0,1,,,,0,,,49,13
672768,note_on,,,,,0,0,1,,,,0,,,54,20
672768,note_off,,,,,0,0,1,,,,0,,,37,0
672768,note_off,,,,,0,0,1,,,,0,,,49,0
673001,control_change,,,,,233,0,1,,,,0,64,0,,
673327,control_change,,,,,326,0,1,,,,0,64,127,,
674816,note_on,,,,,0,0,1,,,,0,,,49,5
674816,note_off,,,,,0,0,1,,,,0,,,42,0
674816,note_off,,,,,0,0,1,,,,0,,,49,0
674816,note_off,,,,,0,0,1,,,,0,,,54,0
674816,note_on,,,,,0,0,1,,,,0,,,58,18
674816,note_on,,,,,0,0,1,,,,0,,,64,18
674816,note_on,,,,,0,0,1,,,,0,,,66,30
674816,note_on,,,,,0,0,1,,,,0,,,42,5
674816,note_on,,,,,0,0,1,,,,0,,,54,12
674816,note_off,,,,,0,0,1,,,,0,,,66,0
674816,note_off,,,,,0,0,1,,,,0,,,61,0
674816,note_off,,,,,1489,0,1,,,,0,,,58,0
674816,set_tempo,,,,,3072,1,0,,1333333,,,,,,
676678,control_change,,,,,1862,0,1,,,,0,64,0,,
676864,note_on,,,,,0,0,1,,,,0,,,47,26
676864,note_on,,,,,0,0,1,,,,0,,,42,17
676864,note_on,,,,,0,0,1,,,,0,,,35,17
676864,note_on,,,,,0,0,1,,,,0,,,66,38
676864,note_on,,,,,0,0,1,,,,0,,,63,27
676864,note_off,,,,,0,0,1,,,,0,,,54,0
676864,note_off,,,,,0,0,1,,,,0,,,49,0
676864,note_off,,,,,0,0,1,,,,0,,,42,0
676864,note_off,,,,,0,0,1,,,,0,,,66,0
676864,note_off,,,,,0,0,1,,,,0,,,64,0
676864,note_on,,,,,0,0,1,,,,0,,,54,27
676864,control_change,,,,,0,0,1,,,,0,64,127,,
676864,control_change,,,,,186,0,1,,,,0,64,0,,
676864,note_off,,,,,0,0,1,,,,0,,,58,0
676864,set_tempo,,,,,2048,1,0,,1000000,,,,,,
676966,control_change,,,,,102,0,1,,,,0,64,0,,
677118,control_change,,,,,152,0,1,,,,0,64,127,,
678912,note_on,,,,,0,0,1,,,,0,,,51,23
678912,note_off,,,,,1794,0,1,,,,0,,,63,0
678912,note_on,,,,,0,0,1,,,,0,,,63,35
678912,note_on,,,,,0,0,1,,,,0,,,59,23
678952,note_off,,,,,40,0,1,,,,0,,,54,0
678952,note_off,,,,,0,0,1,,,,0,,,66,0
678986,control_change,,,,,34,0,1,,,,0,64,0,,
679132,control_change,,,,,146,0,1,,,,0,64,127,,
679424,set_tempo,,,,,2560,1,0,,857142,,,,,,
679424,note_on,,,,,292,0,1,,,,0,,,64,33
679464,note_off,,,,,40,0,1,,,,0,,,63,0
679595,set_tempo,,,,,171,1,0,,750000,,,,,,
679595,note_on,,,,,131,0,1,,,,0,,,63,31
679623,control_change,,,,,28,0,1,,,,0,64,0,,
679635,note_off,,,,,12,0,1,,,,0,,,64,0
679758,control_change,,,,,123,0,1,,,,0,64,127,,
679765,note_on,,,,,7,0,1,,,,0,,,61,30
679936,note_on,,,,,0,0,1,,,,0,,,63,29
679936,note_off,,,,,171,0,1,,,,0,,,63,0
679936,set_tempo,,,,,341,1,0,,1000000,,,,,,
679976,note_off,,,,,40,0,1,,,,0,,,61,0
680012,control_change,,,,,36,0,1,,,,0,64,0,,
680164,control_change,,,,,152,0,1,,,,0,64,127,,
680448,set_tempo,,,,,512,1,0,,1090909,,,,,,
680448,note_on,,,,,284,0,1,,,,0,,,52,33
680448,note_on,,,,,0,0,1,,,,0,,,61,33
680448,note_on,,,,,0,0,1,,,,0,,,64,47
680488,note_off,,,,,40,0,1,,,,0,,,51,0
680488,note_off,,,,,0,0,1,,,,0,,,59,0
680488,note_off,,,,,0,0,1,,,,0,,,63,0
680520,control_change,,,,,32,0,1,,,,0,64,0,,
680672,control_change,,,,,152,0,1,,,,0,64,127,,
680960,note_on,,,,,0,0,1,,,,0,,,64,37
680960,note_on,,,,,0,0,1,,,,0,,,68,51
680960,note_on,,,,,0,0,1,,,,0,,,35,26
680960,set_tempo,,,,,512,1,0,,1090909,,,,,,
680960,note_on,,,,,0,0,1,,,,0,,,56,37
680960,note_on,,,,,0,0,1,,,,0,,,47,21
680960,note_on,,,,,0,0,1,,,,0,,,45,33
680960,note_off,,,,,0,0,1,,,,0,,,47,0
680960,note_off,,,,,0,0,1,,,,0,,,42,0
680960,note_off,,,,,0,0,1,,,,0,,,35,0
680960,note_off,,,,,0,0,1,,,,0,,,64,0
680960,control_change,,,,,0,0,1,,,,0,64,0,,
680960,control_change,,,,,0,0,1,,,,0,64,127,,
680960,control_change,,,,,0,0,1,,,,0,64,0,,
680960,control_change,,,,,288,0,1,,,,0,64,0,,
681000,note_off,,,,,40,0,1,,,,0,,,52,0
681000,note_off,,,,,0,0,1,,,,0,,,61,0
681062,control_change,,,,,62,0,1,,,,0,64,0,,
681163,control_change,,,,,101,0,1,,,,0,64,127,,
681728,note_off,,,,,565,0,1,,,,0,,,56,0
681728,note_off,,,,,0,0,1,,,,0,,,64,0
681728,note_off,,,,,0,0,1,,,,0,,,68,0
681728,note_on,,,,,0,0,1,,,,0,,,54,29
681728,note_on,,,,,0,0,1,,,,0,,,63,29
681728,note_on,,,,,0,0,1,,,,0,,,66,43
681984,set_tempo,,,,,1024,1,0,,1000000,,,,,,
681984,note_off,,,,,256,0,1,,,,0,,,54,0
681984,note_off,,,,,0,0,1,,,,0,,,63,0
681984,note_off,,,,,0,0,1,,,,0,,,66,0
681984,note_on,,,,,0,0,1,,,,0,,,63,28
681984,note_on,,,,,0,0,1,,,,0,,,66,42
681984,note_on,,,,,0,0,1,,,,0,,,54,28
682077,control_change,,,,,93,0,1,,,,0,64,0,,
682331,control_change,,,,,254,0,1,,,,0,64,127,,
683520,note_on,,,,,0,0,1,,,,0,,,59,30
683520,note_on,,,,,0,0,1,,,,0,,,63,40
683520,note_on,,,,,0,0,1,,,,0,,,66,32
683520,set_tempo,,,,,1536,1,0,,1000000,,,,,,
683520,note_off,,,,,0,0,1,,,,0,,,63,0
683520,note_off,,,,,1189,0,1,,,,0,,,54,0
683520,note_on,,,,,0,0,1,,,,0,,,54,32
683520,note_off,,,,,0,0,1,,,,0,,,66,0
684032,note_off,,,,,0,0,1,,,,0,,,59,0
684032,note_off,,,,,0,0,1,,,,0,,,63,0
684032,note_off,,,,,0,0,1,,,,0,,,66,0
684032,note_on,,,,,0,0,1,,,,0,,,52,38
684032,note_on,,,,,0,0,1,,,,0,,,59,35
684032,note_on,,,,,0,0,1,,,,0,,,64,47
684032,note_off,,,,,512,0,1,,,,0,,,54,0
684032,set_tempo,,,,,512,1,0,,857142,,,,,,
684057,control_change,,,,,25,0,1,,,,0,64,0,,
684260,control_change,,,,,203,0,1,,,,0,64,127,,
684544,set_tempo,,,,,512,1,0,,1090909,,,,,,
684544,note_on,,,,,0,0,1,,,,0,,,63,44
684544,note_on,,,,,0,0,1,,,,0,,,59,32
684544,note_on,,,,,0,0,1,,,,0,,,51,35
684544,note_off,,,,,0,0,1,,,,0,,,64,0
684544,note_off,,,,,0,0,1,,,,0,,,59,0
684544,note_off,,,,,284,0,1,,,,0,,,52,0
684633,control_change,,,,,89,0,1,,,,0,64,0,,
684802,control_change,,,,,169,0,1,,,,0,64,127,,
685056,set_tempo,,,,,512,1,0,,1000000,,,,,,
685056,note_on,,,,,0,0,1,,,,0,,,47,23
685056,note_on,,,,,0,0,1,,,,0,,,44,11
685056,note_on,,,,,0,0,1,,,,0,,,35,11
685056,note_on,,,,,0,0,1,,,,0,,,64,48
685056,note_on,,,,,0,0,1,,,,0,,,59,34
685056,note_on,,,,,0,0,1,,,,0,,,52,34
685056,note_off,,,,,0,0,1,,,,0,,,63,0
685056,note_off,,,,,0,0,1,,,,0,,,45,0
685056,control_change,,,,,254,0,1,,,,0,64,0,,
685056,control_change,,,,,0,0,1,,,,0,64,0,,
685056,note_off,,,,,0,0,1,,,,0,,,47,0
685056,note_off,,,,,0,0,1,,,,0,,,51,0
685056,control_change,,,,,0,0,1,,,,0,64,0,,
685056,note_off,,,,,0,0,1,,,,0,,,59,0
685056,note_off,,,,,0,0,1,,,,0,,,35,0
685056,control_change,,,,,0,0,1,,,,0,64,127,,
685191,control_change,,,,,135,0,1,,,,0,64,0,,
685411,control_change,,,,,220,0,1,,,,0,64,127,,
685880,note_on,,,,,469,0,1,,,,0,,,64,25
685980,note_on,,,,,100,0,1,,,,0,,,71,19
686080,set_tempo,,,,,1024,1,0,,857142,,,,,,
686080,note_on,,,,,100,0,1,,,,0,,,76,33
686104,note_off,,,,,24,0,1,,,,0,,,64,0
686954,note_on,,,,,850,0,1,,,,0,,,68,18
686984,note_off,,,,,30,0,1,,,,0,,,76,0
687029,note_on,,,,,45,0,1,,,,0,,,76,18
687094,note_off,,,,,65,0,1,,,,0,,,52,0
687094,note_off,,,,,0,0,1,,,,0,,,59,0
687104,note_on,,,,,0,0,1,,,,0,,,80,30
687104,note_off,,,,,10,0,1,,,,0,,,71,0
687616,set_tempo,,,,,1536,1,0,,923076,,,,,,
687616,note_on,,,,,512,0,1,,,,0,,,52,30
687616,note_on,,,,,0,0,1,,,,0,,,59,30
687616,note_on,,,,,0,0,1,,,,0,,,64,44
688118,note_off,,,,,502,0,1,,,,0,,,64,0
688128,note_off,,,,,0,0,1,,,,0,,,64,0
688128,note_off,,,,,10,0,1,,,,0,,,68,0
688128,note_off,,,,,0,0,1,,,,0,,,52,0
688128,set_tempo,,,,,512,1,0,,857142,,,,,,
688128,note_off,,,,,0,0,1,,,,0,,,80,0
688128,note_off,,,,,0,0,1,,,,0,,,76,0
688128,note_off,,,,,0,0,1,,,,0,,,59,0
688128,note_on,,,,,0,0,1,,,,0,,,63,42
688128,note_on,,,,,0,0,1,,,,0,,,59,28
688128,note_on,,,,,0,0,1,,,,0,,,51,28
688187,control_change,,,,,59,0,1,,,,0,64,0,,
688356,control_change,,,,,169,0,1,,,,0,64,127,,
688640,note_off,,,,,0,0,1,,,,0,,,63,0
688640,note_off,,,,,284,0,1,,,,0,,,51,0
688640,note_on,,,,,0,0,1,,,,0,,,59,26
688640,note_on,,,,,0,0,1,,,,0,,,61,40
688640,set_tempo,,,,,512,1,0,,1000000,,,,,,
688640,note_off,,,,,0,0,1,,,,0,,,59,0
688640,note_on,,,,,0,0,1,,,,0,,,49,26
688746,control_change,,,,,106,0,1,,,,0,64,0,,
688949,control_change,,,,,203,0,1,,,,0,64,127,,
689152,note_on,,,,,0,0,1,,,,0,,,42,9
689152,note_on,,,,,0,0,1,,,,0,,,47,21
689152,set_tempo,,,,,512,1,0,,1200000,,,,,,
689152,note_on,,,,,0,0,1,,,,0,,,35,9
689152,note_off,,,,,0,0,1,,,,0,,,59,0
689152,note_on,,,,,0,0,1,,,,0,,,59,23
689152,note_on,,,,,0,0,1,,,,0,,,51,23
689152,note_off,,,,,0,0,1,,,,0,,,47,0
689152,note_off,,,,,0,0,1,,,,0,,,44,0
689152,note_off,,,,,0,0,1,,,,0,,,35,0
689152,note_off,,,,,0,0,1,,,,0,,,61,0
689152,note_off,,,,,0,0,1,,,,0,,,49,0
689152,control_change,,,,,0,0,1,,,,0,64,0,,
689152,control_change,,,,,0,0,1,,,,0,64,127,,
689152,control_change,,,,,203,0,1,,,,0,64,0,,
689152,note_on,,,,,0,0,1,,,,0,,,63,37
689152,control_change,,,,,0,0,1,,,,0,64,0,,
689254,control_change,,,,,102,0,1,,,,0,64,0,,
689457,control_change,,,,,203,0,1,,,,0,64,127,,
689976,note_on,,,,,519,0,1,,,,0,,,63,22
690076,note_on,,,,,100,0,1,,,,0,,,71,14
690110,note_off,,,,,34,0,1,,,,0,,,63,0
690176,note_on,,,,,66,0,1,,,,0,,,75,28
690176,set_tempo,,,,,1024,1,0,,1000000,,,,,,
690980,note_off,,,,,804,0,1,,,,0,,,75,0
691050,note_on,,,,,70,0,1,,,,0,,,66,22
691125,note_on,,,,,75,0,1,,,,0,,,75,22
691190,note_off,,,,,65,0,1,,,,0,,,51,0
691190,note_off,,,,,0,0,1,,,,0,,,59,0
691200,note_on,,,,,0,0,1,,,,0,,,78,34
691200,note_off,,,,,10,0,1,,,,0,,,71,0
691712,note_on,,,,,0,0,1,,,,0,,,59,50
691712,note_on,,,,,0,0,1,,,,0,,,63,65
691712,set_tempo,,,,,1536,1,0,,923076,,,,,,
691712,note_on,,,,,512,0,1,,,,0,,,51,50
692214,note_off,,,,,502,0,1,,,,0,,,63,0
692224,note_off,,,,,0,0,1,,,,0,,,78,0
692224,note_off,,,,,0,0,1,,,,0,,,51,0
692224,note_off,,,,,0,0,1,,,,0,,,59,0
692224,note_on,,,,,0,0,1,,,,0,,,64,68
692224,note_on,,,,,0,0,1,,,,0,,,59,53
692224,note_on,,,,,0,0,1,,,,0,,,52,53
692224,note_off,,,,,0,0,1,,,,0,,,63,0
692224,note_off,,,,,10,0,1,,,,0,,,66,0
692224,note_off,,,,,0,0,1,,,,0,,,75,0
692266,control_change,,,,,42,0,1,,,,0,64,0,,
692554,control_change,,,,,288,0,1,,,,0,64,127,,
692736,note_on,,,,,0,0,1,,,,0,,,66,72
692736,note_on,,,,,0,0,1,,,,0,,,59,57
692736,note_on,,,,,0,0,1,,,,0,,,54,57
692736,note_off,,,,,0,0,1,,,,0,,,64,0
692736,note_off,,,,,0,0,1,,,,0,,,59,0
692736,note_off,,,,,182,0,1,,,,0,,,52,0
692736,set_tempo,,,,,1024,1,0,,1000000,,,,,,
693248,note_on,,,,,0,0,1,,,,0,,,47,64
693248,note_off,,,,,0,0,1,,,,0,,,47,0
693248,note_on,,,,,0,0,1,,,,0,,,35,52
693248,note_on,,,,,0,0,1,,,,0,,,67,75
693248,note_on,,,,,0,0,1,,,,0,,,59,60
693248,note_on,,,,,0,0,1,,,,0,,,55,60
693248,note_off,,,,,0,0,1,,,,0,,,42,0
693248,note_off,,,,,0,0,1,,,,0,,,35,0
693248,note_off,,,,,0,0,1,,,,0,,,66,0
693248,note_off,,,,,0,0,1,,,,0,,,59,0
693248,note_off,,,,,0,0,1,,,,0,,,54,0
693248,control_change,,,,,512,0,1,,,,0,64,0,,
693248,note_on,,,,,0,0,1,,,,0,,,40,52
693248,control_change,,,,,0,0,1,,,,0,64,127,,
693400,control_change,,,,,152,0,1,,,,0,64,0,,
693779,control_change,,,,,379,0,1,,,,0,64,127,,
694272,note_on,,,,,0,0,1,,,,0,,,79,69
694272,note_on,,,,,0,0,1,,,,0,,,76,57
694272,note_on,,,,,493,0,1,,,,0,,,67,57
694296,note_off,,,,,24,0,1,,,,0,,,67,0
695276,note_off,,,,,980,0,1,,,,0,,,55,0
695276,note_off,,,,,0,0,1,,,,0,,,59,0
695296,note_off,,,,,20,0,1,,,,0,,,76,0
695296,note_off,,,,,0,0,1,,,,0,,,79,0
695296,note_on,,,,,0,0,1,,,,0,,,71,62
695296,note_on,,,,,0,0,1,,,,0,,,79,62
695296,note_on,,,,,0,0,1,,,,0,,,83,74
695808,note_on,,,,,512,0,1,,,,0,,,55,53
695808,set_tempo,,,,,3072,1,0,,923076,,,,,,
695808,note_on,,,,,0,0,1,,,,0,,,59,53
695808,note_on,,,,,0,0,1,,,,0,,,67,68
696300,note_off,,,,,492,0,1,,,,0,,,67,0
696320,note_on,,,,,0,0,1,,,,0,,,66,70
696320,note_on,,,,,0,0,1,,,,0,,,59,55
696320,note_on,,,,,0,0,1,,,,0,,,54,55
696320,note_off,,,,,0,0,1,,,,0,,,67,0
696320,note_off,,,,,0,0,1,,,,0,,,59,0
696320,note_off,,,,,0,0,1,,,,0,,,55,0
696320,note_off,,,,,0,0,1,,,,0,,,83,0
696320,note_off,,,,,0,0,1,,,,0,,,79,0
696320,note_off,,,,,20,0,1,,,,0,,,71,0
696472,control_change,,,,,152,0,1,,,,0,64,0,,
696699,control_change,,,,,227,0,1,,,,0,64,127,,
696832,note_on,,,,,0,0,1,,,,0,,,52,57
696832,note_on,,,,,0,0,1,,,,0,,,59,57
696832,note_off,,,,,0,0,1,,,,0,,,66,0
696832,note_off,,,,,0,0,1,,,,0,,,59,0
696832,note_on,,,,,0,0,1,,,,0,,,64,72
696832,set_tempo,,,,,1024,1,0,,1090909,,,,,,
696832,note_off,,,,,133,0,1,,,,0,,,54,0
697003,control_change,,,,,171,0,1,,,,0,64,0,,
697154,control_change,,,,,151,0,1,,,,0,64,127,,
697344,note_off,,,,,0,0,1,,,,0,,,40,0
697344,control_change,,,,,190,0,1,,,,0,64,0,,
697344,control_change,,,,,0,0,1,,,,0,64,127,,
697344,note_off,,,,,0,0,1,,,,0,,,52,0
697344,note_off,,,,,0,0,1,,,,0,,,59,0
697344,note_off,,,,,0,0,1,,,,0,,,64,0
697344,note_off,,,,,0,0,1,,,,0,,,35,0
697344,set_tempo,,,,,512,1,0,,1000000,,,,,,
697344,note_on,,,,,0,0,1,,,,0,,,54,61
697344,note_on,,,,,0,0,1,,,,0,,,59,61
697344,note_on,,,,,0,0,1,,,,0,,,66,75
697344,note_on,,,,,0,0,1,,,,0,,,35,52
697344,note_on,,,,,0,0,1,,,,0,,,38,66
697344,note_on,,,,,0,0,1,,,,0,,,47,57
697344,note_off,,,,,0,0,1,,,,0,,,47,0
697524,control_change,,,,,180,0,1,,,,0,64,0,,
697749,control_change,,,,,225,0,1,,,,0,64,127,,
698368,note_on,,,,,619,0,1,,,,0,,,66,58
698368,note_on,,,,,0,0,1,,,,0,,,78,70
698368,note_on,,,,,0,0,1,,,,0,,,71,58
699392,note_on,,,,,0,0,1,,,,0,,,83,71
699392,note_on,,,,,0,0,1,,,,0,,,78,59
699392,note_on,,,,,0,0,1,,,,0,,,71,59
699392,note_off,,,,,1024,0,1,,,,0,,,54,0
699392,note_off,,,,,0,0,1,,,,0,,,71,0
699392,note_off,,,,,0,0,1,,,,0,,,66,0
699392,note_off,,,,,0,0,1,,,,0,,,66,0
699392,note_off,,,,,0,0,1,,,,0,,,59,0
699392,note_off,,,,,0,0,1,,,,0,,,78,0
700416,note_off,,,,,1024,0,1,,,,0,,,71,0
700416,note_off,,,,,0,0,1,,,,0,,,78,0
700416,note_off,,,,,0,0,1,,,,0,,,83,0
700416,note_on,,,,,0,0,1,,,,0,,,54,45
700416,note_on,,,,,0,0,1,,,,0,,,59,45
700416,note_on,,,,,0,0,1,,,,0,,,66,59
700450,control_change,,,,,34,0,1,,,,0,64,0,,
700855,control_change,,,,,405,0,1,,,,0,64,127,,
701440,note_off,,,,,0,0,1,,,,0,,,54,0
701440,note_off,,,,,0,0,1,,,,0,,,66,0
701440,note_off,,,,,0,0,1,,,,0,,,35,0
701440,note_off,,,,,0,0,1,,,,0,,,38,0
701440,note_off,,,,,0,0,1,,,,0,,,47,0
701440,note_on,,,,,0,0,1,,,,0,,,53,39
701440,note_on,,,,,0,0,1,,,,0,,,65,53
701440,note_on,,,,,0,0,1,,,,0,,,37,25
701440,note_on,,,,,0,0,1,,,,0,,,44,25
701440,note_on,,,,,0,0,1,,,,0,,,49,37
701440,set_tempo,,,,,4096,1,0,,1090909,,,,,,
701440,control_change,,,,,585,0,1,,,,0,64,0,,
701440,control_change,,,,,0,0,1,,,,0,64,127,,
701618,control_change,,,,,178,0,1,,,,0,64,0,,
701867,control_change,,,,,249,0,1,,,,0,64,127,,
702123,control_change,,,,,256,0,1,,,,0,64,127,,
702264,note_on,,,,,141,0,1,,,,0,,,59,38
702364,note_on,,,,,100,0,1,,,,0,,,65,38
702464,note_off,,,,,100,0,1,,,,0,,,53,0
702464,note_off,,,,,0,0,1,,,,0,,,59,0
702464,note_off,,,,,0,0,1,,,,0,,,65,0
702464,note_on,,,,,0,0,1,,,,0,,,73,52
702464,set_tempo,,,,,1024,1,0,,1000000,,,,,,
703367,note_off,,,,,903,0,1,,,,0,,,65,0
703435,control_change,,,,,68,0,1,,,,0,64,0,,
703488,note_off,,,,,0,0,1,,,,0,,,49,0
703488,note_on,,,,,0,0,1,,,,0,,,58,29
703488,note_on,,,,,0,0,1,,,,0,,,64,29
703488,note_on,,,,,0,0,1,,,,0,,,73,50
703488,note_on,,,,,0,0,1,,,,0,,,30,13
703488,note_on,,,,,0,0,1,,,,0,,,42,25
703488,note_off,,,,,53,0,1,,,,0,,,59,0
703488,note_off,,,,,0,0,1,,,,0,,,73,0
703488,note_off,,,,,0,0,1,,,,0,,,37,0
703488,set_tempo,,,,,1024,1,0,,1200000,,,,,,
703488,note_off,,,,,0,0,1,,,,0,,,44,0
703826,control_change,,,,,338,0,1,,,,0,64,127,,
704000,note_off,,,,,174,0,1,,,,0,,,73,0
704000,note_on,,,,,0,0,1,,,,0,,,70,53
704000,set_tempo,,,,,512,1,0,,923076,,,,,,
704512,note_on,,,,,0,0,1,,,,0,,,66,53
704512,note_off,,,,,512,0,1,,,,0,,,64,0
704512,note_off,,,,,0,0,1,,,,0,,,70,0
704681,control_change,,,,,169,0,1,,,,0,64,0,,
705024,note_on,,,,,343,0,1,,,,0,,,64,48
705064,note_off,,,,,40,0,1,,,,0,,,66,0
705536,control_change,,,,,0,0,1,,,,0,64,0,,
705536,set_tempo,,,,,1536,1,0,,923076,,,,,,
705536,control_change,,,,,472,0,1,,,,0,64,0,,
705536,note_off,,,,,0,0,1,,,,0,,,58,0
705536,note_on,,,,,0,0,1,,,,0,,,42,23
705536,note_on,,,,,0,0,1,,,,0,,,35,23
705536,note_on,,,,,0,0,1,,,,0,,,63,53
705536,note_on,,,,,0,0,1,,,,0,,,57,38
705536,note_off,,,,,0,0,1,,,,0,,,42,0
705536,note_off,,,,,0,0,1,,,,0,,,30,0
705536,note_on,,,,,0,0,1,,,,0,,,47,35
705576,note_off,,,,,40,0,1,,,,0,,,64,0
705673,control_change,,,,,97,0,1,,,,0,64,127,,
705792,set_tempo,,,,,256,1,0,,2000000,,,,,,
705792,note_on,,,,,0,0,1,,,,0,,,64,44
705792,note_off,,,,,119,0,1,,,,0,,,63,0
705856,note_on,,,,,0,0,1,,,,0,,,63,43
705856,note_off,,,,,64,0,1,,,,0,,,64,0
705920,note_on,,,,,0,0,1,,,,0,,,61,41
705920,note_off,,,,,64,0,1,,,,0,,,63,0
705984,note_on,,,,,0,0,1,,,,0,,,63,40
705984,note_off,,,,,64,0,1,,,,0,,,61,0
706048,note_off,,,,,64,0,1,,,,0,,,63,0
706048,set_tempo,,,,,256,1,0,,1000000,,,,,,
706048,note_on,,,,,0,0,1,,,,0,,,71,50
706141,control_change,,,,,93,0,1,,,,0,64,0,,
706336,control_change,,,,,195,0,1,,,,0,64,127,,
706560,note_on,,,,,0,0,1,,,,0,,,56,29
706560,note_off,,,,,0,0,1,,,,0,,,42,0
706560,note_off,,,,,0,0,1,,,,0,,,35,0
706560,note_on,,,,,0,0,1,,,,0,,,68,43
706560,note_off,,,,,0,0,1,,,,0,,,71,0
706560,note_off,,,,,224,0,1,,,,0,,,57,0
706560,note_on,,,,,0,0,1,,,,0,,,64,29
706560,note_off,,,,,0,0,1,,,,0,,,47,0
706560,set_tempo,,,,,512,1,0,,1200000,,,,,,
706560,note_on,,,,,0,0,1,,,,0,,,47,25
706560,note_on,,,,,0,0,1,,,,0,,,40,13
706648,control_change,,,,,88,0,1,,,,0,64,0,,
706804,control_change,,,,,156,0,1,,,,0,64,127,,
707072,note_on,,,,,0,0,1,,,,0,,,61,26
707072,note_off,,,,,0,0,1,,,,0,,,47,0
707072,note_off,,,,,0,0,1,,,,0,,,68,0
707072,note_off,,,,,268,0,1,,,,0,,,64,0
707072,note_on,,,,,0,0,1,,,,0,,,64,40
707072,note_on,,,,,0,0,1,,,,0,,,49,33
707174,control_change,,,,,102,0,1,,,,0,64,0,,
707330,control_change,,,,,156,0,1,,,,0,64,127,,
707584,note_on,,,,,0,0,1,,,,0,,,51,20
707584,note_on,,,,,0,0,1,,,,0,,,42,20
707584,note_on,,,,,0,0,1,,,,0,,,63,38
707584,note_on,,,,,0,0,1,,,,0,,,59,24
707584,note_off,,,,,0,0,1,,,,0,,,40,0
707584,note_off,,,,,0,0,1,,,,0,,,56,0
707584,note_off,,,,,0,0,1,,,,0,,,64,0
707584,note_off,,,,,254,0,1,,,,0,,,61,0
707584,note_on,,,,,0,0,1,,,,0,,,54,32
707584,note_off,,,,,0,0,1,,,,0,,,49,0
707604,control_change,,,,,20,0,1,,,,0,64,0,,
707799,control_change,,,,,195,0,1,,,,0,64,127,,
708608,set_tempo,,,,,2048,1,0,,1500000,,,,,,
708608,note_on,,,,,0,0,1,,,,0,,,42,30
708608,note_on,,,,,0,0,1,,,,0,,,52,30
708608,note_on,,,,,0,0,1,,,,0,,,63,46
708608,note_on,,,,,0,0,1,,,,0,,,59,32
708608,note_off,,,,,0,0,1,,,,0,,,54,0
708608,note_off,,,,,0,0,1,,,,0,,,51,0
708608,note_off,,,,,0,0,1,,,,0,,,42,0
708608,note_off,,,,,0,0,1,,,,0,,,63,0
708608,note_off,,,,,809,0,1,,,,0,,,59,0
708608,note_on,,,,,0,0,1,,,,0,,,54,25
708637,control_change,,,,,29,0,1,,,,0,64,0,,
708864,note_on,,,,,227,0,1,,,,0,,,58,31
708864,note_on,,,,,0,0,1,,,,0,,,61,44
708864,set_tempo,,,,,256,1,0,,1090909,,,,,,
708904,note_off,,,,,0,0,1,,,,0,,,63,0
708904,note_off,,,,,40,0,1,,,,0,,,59,0
709120,note_on,,,,,0,0,1,,,,0,,,59,42
709120,note_on,,,,,216,0,1,,,,0,,,56,29
709160,note_off,,,,,0,0,1,,,,0,,,61,0
709160,note_off,,,,,40,0,1,,,,0,,,58,0
709376,note_on,,,,,0,0,1,,,,0,,,61,36
709376,note_on,,,,,216,0,1,,,,0,,,58,23
709376,set_tempo,,,,,512,1,0,,1500000,,,,,,
709416,note_off,,,,,0,0,1,,,,0,,,59,0
709416,note_off,,,,,40,0,1,,,,0,,,56,0
709491,control_change,,,,,75,0,1,,,,0,64,127,,
709632,note_on,,,,,0,0,1,,,,0,,,58,32
709632,note_on,,,,,0,0,1,,,,0,,,54,18
709632,note_on,,,,,0,0,1,,,,0,,,52,30
709632,note_on,,,,,0,0,1,,,,0,,,47,23
709632,note_on,,,,,0,0,1,,,,0,,,61,46
709632,note_off,,,,,0,0,1,,,,0,,,54,0
709632,note_off,,,,,0,0,1,,,,0,,,52,0
709632,note_off,,,,,0,0,1,,,,0,,,42,0
709632,note_off,,,,,0,0,1,,,,0,,,61,0
709632,note_off,,,,,0,0,1,,,,0,,,58,0
709632,control_change,,,,,0,0,1,,,,0,64,127,,
709632,control_change,,,,,141,0,1,,,,0,64,0,,
709632,set_tempo,,,,,256,1,0,,1090909,,,,,,
709752,control_change,,,,,120,0,1,,,,0,64,0,,
709933,control_change,,,,,181,0,1,,,,0,64,127,,
711680,note_on,,,,,0,0,1,,,,0,,,51,16
711680,note_on,,,,,0,0,1,,,,0,,,63,31
711680,note_on,,,,,0,0,1,,,,0,,,59,17
711680,note_off,,,,,0,0,1,,,,0,,,52,0
711680,note_off,,,,,0,0,1,,,,0,,,61,0
711680,note_off,,,,,0,0,1,,,,0,,,58,0
711680,control_change,,,,,1747,0,1,,,,0,64,0,,
711901,control_change,,,,,221,0,1,,,,0,64,127,,
712704,note_off,,,,,0,0,1,,,,0,,,54,0
712704,note_off,,,,,0,0,1,,,,0,,,51,0
712704,note_off,,,,,0,0,1,,,,0,,,47,0
712704,note_off,,,,,0,0,1,,,,0,,,63,0
712704,note_off,,,,,803,0,1,,,,0,,,59,0
712804,control_change,,,,,100,0,1,,,,0,64,0,,
713447,control_change,,,,,643,0,1,,,,0,64,127,,
713472,note_on,,,,,0,0,1,,,,0,,,71,58
713472,note_on,,,,,25,0,1,,,,0,,,66,58
713472,note_on,,,,,0,0,1,,,,0,,,78,72
713728,note_on,,,,,0,0,1,,,,0,,,71,65
713728,note_on,,,,,0,0,1,,,,0,,,67,65
713728,note_off,,,,,0,0,1,,,,0,,,78,0
713728,note_off,,,,,0,0,1,,,,0,,,71,0
713728,note_off,,,,,0,0,1,,,,0,,,66,0
713728,control_change,,,,,0,0,1,,,,0,64,0,,
713728,control_change,,,,,0,0,1,,,,0,64,127,,
713728,control_change,,,,,0,0,1,,,,0,64,0,,
713728,control_change,,,,,256,0,1,,,,0,64,0,,
713728,note_on,,,,,0,0,1,,,,0,,,47,52
713728,note_on,,,,,0,0,1,,,,0,,,52,52
713728,note_on,,,,,0,0,1,,,,0,,,40,52
713728,note_on,,,,,0,0,1,,,,0,,,79,80
713880,control_change,,,,,152,0,1,,,,0,64,0,,
714259,control_change,,,,,379,0,1,,,,0,64,127,,
714752,note_on,,,,,0,0,1,,,,0,,,91,75
714752,note_on,,,,,0,0,1,,,,0,,,88,63
714752,note_on,,,,,493,0,1,,,,0,,,79,63
714776,note_off,,,,,24,0,1,,,,0,,,79,0
715756,note_off,,,,,0,0,1,,,,0,,,71,0
715756,note_off,,,,,980,0,1,,,,0,,,67,0
715776,note_on,,,,,0,0,1,,,,0,,,91,68
715776,note_off,,,,,20,0,1,,,,0,,,79,0
715776,note_off,,,,,0,0,1,,,,0,,,88,0
715776,note_off,,,,,0,0,1,,,,0,,,91,0
715776,note_on,,,,,0,0,1,,,,0,,,83,68
715776,note_on,,,,,0,0,1,,,,0,,,95,80
716288,note_on,,,,,0,0,1,,,,0,,,79,72
716288,set_tempo,,,,,6656,1,0,,923076,,,,,,
716288,note_on,,,,,512,0,1,,,,0,,,67,53
716288,note_on,,,,,0,0,1,,,,0,,,71,53
716800,note_on,,,,,0,0,1,,,,0,,,66,55
716800,note_off,,,,,512,0,1,,,,0,,,83,0
716800,note_off,,,,,0,0,1,,,,0,,,91,0
716800,note_off,,,,,0,0,1,,,,0,,,95,0
716800,note_off,,,,,0,0,1,,,,0,,,71,0
716800,note_on,,,,,0,0,1,,,,0,,,78,70
716800,note_on,,,,,0,0,1,,,,0,,,71,55
716800,note_off,,,,,0,0,1,,,,0,,,79,0
716800,note_off,,,,,0,0,1,,,,0,,,67,0
716952,control_change,,,,,152,0,1,,,,0,64,0,,
717179,control_change,,,,,227,0,1,,,,0,64,127,,
717312,set_tempo,,,,,1024,1,0,,1090909,,,,,,
717312,note_off,,,,,133,0,1,,,,0,,,66,0
717312,note_off,,,,,0,0,1,,,,0,,,71,0
717312,note_off,,,,,0,0,1,,,,0,,,78,0
717312,note_on,,,,,0,0,1,,,,0,,,64,57
717312,note_on,,,,,0,0,1,,,,0,,,71,57
717312,note_on,,,,,0,0,1,,,,0,,,76,72
717483,control_change,,,,,171,0,1,,,,0,64,0,,
717634,control_change,,,,,151,0,1,,,,0,64,127,,
717824,note_off,,,,,0,0,1,,,,0,,,47,0
717824,control_change,,,,,190,0,1,,,,0,64,0,,
717824,control_change,,,,,0,0,1,,,,0,64,127,,
717824,control_change,,,,,0,0,1,,,,0,64,0,,
717824,note_off,,,,,0,0,1,,,,0,,,64,0
717824,note_off,,,,,0,0,1,,,,0,,,71,0
717824,note_off,,,,,0,0,1,,,,0,,,76,0
717824,set_tempo,,,,,512,1,0,,1000000,,,,,,
717824,control_change,,,,,0,0,1,,,,0,64,0,,
717824,note_on,,,,,0,0,1,,,,0,,,66,61
717824,note_off,,,,,0,0,1,,,,0,,,52,0
717824,note_on,,,,,0,0,1,,,,0,,,71,61
717824,note_on,,,,,0,0,1,,,,0,,,38,52
717824,note_on,,,,,0,0,1,,,,0,,,47,66
717824,note_on,,,,,0,0,1,,,,0,,,50,57
717824,note_on,,,,,0,0,1,,,,0,,,78,75
717824,note_off,,,,,0,0,1,,,,0,,,40,0
718004,control_change,,,,,180,0,1,,,,0,64,0,,
718229,control_change,,,,,225,0,1,,,,0,64,127,,
718848,note_on,,,,,619,0,1,,,,0,,,78,55
718848,note_on,,,,,0,0,1,,,,0,,,83,55
718848,note_on,,,,,0,0,1,,,,0,,,90,67
719872,note_on,,,,,0,0,1,,,,0,,,95,72
719872,note_off,,,,,0,0,1,,,,0,,,90,0
719872,note_on,,,,,0,0,1,,,,0,,,90,60
719872,note_off,,,,,1024,0,1,,,,0,,,66,0
719872,note_off,,,,,0,0,1,,,,0,,,71,0
719872,note_off,,,,,0,0,1,,,,0,,,78,0
719872,note_off,,,,,0,0,1,,,,0,,,78,0
719872,note_off,,,,,0,0,1,,,,0,,,83,0
719872,note_on,,,,,0,0,1,,,,0,,,83,60
720896,note_off,,,,,1024,0,1,,,,0,,,83,0
720896,note_on,,,,,0,0,1,,,,0,,,71,51
720896,note_off,,,,,0,0,1,,,,0,,,90,0
720896,note_on,,,,,0,0,1,,,,0,,,78,65
720896,note_on,,,,,0,0,1,,,,0,,,66,51
720896,note_off,,,,,0,0,1,,,,0,,,95,0
720930,control_change,,,,,34,0,1,,,,0,64,0,,
721335,control_change,,,,,405,0,1,,,,0,64,127,,
721920,note_off,,,,,0,0,1,,,,0,,,47,0
721920,note_on,,,,,0,0,1,,,,0,,,49,45
721920,note_on,,,,,0,0,1,,,,0,,,44,33
721920,note_on,,,,,0,0,1,,,,0,,,37,33
721920,note_on,,,,,0,0,1,,,,0,,,77,64
721920,note_on,,,,,0,0,1,,,,0,,,71,45
721920,note_on,,,,,0,0,1,,,,0,,,65,45
721920,note_off,,,,,0,0,1,,,,0,,,50,0
721920,note_off,,,,,0,0,1,,,,0,,,38,0
721920,set_tempo,,,,,4096,1,0,,1090909,,,,,,
721920,note_off,,,,,0,0,1,,,,0,,,71,0
721920,note_off,,,,,0,0,1,,,,0,,,66,0
721920,control_change,,,,,0,0,1,,,,0,64,0,,
721920,control_change,,,,,0,0,1,,,,0,64,127,,
721920,control_change,,,,,0,0,1,,,,0,64,0,,
721920,control_change,,,,,585,0,1,,,,0,64,0,,
721920,note_off,,,,,0,0,1,,,,0,,,78,0
722098,control_change,,,,,178,0,1,,,,0,64,0,,
722347,control_change,,,,,249,0,1,,,,0,64,127,,
722603,control_change,,,,,256,0,1,,,,0,64,127,,
722744,note_on,,,,,141,0,1,,,,0,,,71,44
722844,note_on,,,,,100,0,1,,,,0,,,77,44
722944,note_off,,,,,0,0,1,,,,0,,,77,0
722944,note_on,,,,,0,0,1,,,,0,,,85,58
722944,set_tempo,,,,,1024,1,0,,1000000,,,,,,
722944,note_off,,,,,100,0,1,,,,0,,,65,0
722944,note_off,,,,,0,0,1,,,,0,,,71,0
723728,note_on,,,,,784,0,1,,,,0,,,70,41
723847,note_off,,,,,119,0,1,,,,0,,,77,0
723848,note_on,,,,,1,0,1,,,,0,,,76,41
723915,control_change,,,,,67,0,1,,,,0,64,0,,
723968,note_off,,,,,0,0,1,,,,0,,,49,0
723968,note_on,,,,,0,0,1,,,,0,,,42,42
723968,note_off,,,,,0,0,1,,,,0,,,44,0
723968,note_off,,,,,0,0,1,,,,0,,,37,0
723968,note_on,,,,,0,0,1,,,,0,,,85,62
723968,note_off,,,,,0,0,1,,,,0,,,85,0
723968,note_off,,,,,53,0,1,,,,0,,,71,0
723968,set_tempo,,,,,1024,1,0,,1200000,,,,,,
723968,note_on,,,,,0,0,1,,,,0,,,30,30
724306,control_change,,,,,338,0,1,,,,0,64,127,,
724480,note_on,,,,,0,0,1,,,,0,,,82,59
724480,note_off,,,,,174,0,1,,,,0,,,85,0
724480,set_tempo,,,,,512,1,0,,923076,,,,,,
724992,note_on,,,,,0,0,1,,,,0,,,78,59
724992,note_off,,,,,0,0,1,,,,0,,,82,0
724992,note_off,,,,,512,0,1,,,,0,,,76,0
725161,control_change,,,,,169,0,1,,,,0,64,0,,
725504,note_on,,,,,343,0,1,,,,0,,,76,54
725544,note_off,,,,,40,0,1,,,,0,,,78,0
726016,control_change,,,,,0,0,1,,,,0,64,0,,
726016,control_change,,,,,472,0,1,,,,0,64,0,,
726016,note_on,,,,,0,0,1,,,,0,,,47,43
726016,note_on,,,,,0,0,1,,,,0,,,42,31
726016,note_on,,,,,0,0,1,,,,0,,,35,31
726016,note_on,,,,,0,0,1,,,,0,,,75,53
726016,note_on,,,,,0,0,1,,,,0,,,69,38
726016,set_tempo,,,,,1536,1,0,,923076,,,,,,
726016,note_off,,,,,0,0,1,,,,0,,,30,0
726016,control_change,,,,,0,0,1,,,,0,64,0,,
726016,note_off,,,,,0,0,1,,,,0,,,42,0
726016,note_off,,,,,0,0,1,,,,0,,,70,0
726016,control_change,,,,,0,0,1,,,,0,64,0,,
726056,note_off,,,,,40,0,1,,,,0,,,76,0
726153,control_change,,,,,97,0,1,,,,0,64,127,,
726272,note_off,,,,,119,0,1,,,,0,,,75,0
726272,note_on,,,,,0,0,1,,,,0,,,76,48
726272,set_tempo,,,,,256,1,0,,2000000,,,,,,
726336,note_off,,,,,64,0,1,,,,0,,,76,0
726336,note_on,,,,,0,0,1,,,,0,,,75,47
726400,note_off,,,,,64,0,1,,,,0,,,75,0
726400,note_on,,,,,0,0,1,,,,0,,,73,45
726464,note_off,,,,,64,0,1,,,,0,,,73,0
726464,note_on,,,,,0,0,1,,,,0,,,75,44
726528,set_tempo,,,,,256,1,0,,1000000,,,,,,
726528,note_off,,,,,64,0,1,,,,0,,,75,0
726528,note_on,,,,,0,0,1,,,,0,,,83,54
726621,control_change,,,,,93,0,1,,,,0,64,0,,
726816,control_change,,,,,195,0,1,,,,0,64,127,,
727040,note_off,,,,,0,0,1,,,,0,,,35,0
727040,note_off,,,,,224,0,1,,,,0,,,69,0
727040,note_on,,,,,0,0,1,,,,0,,,47,25
727040,note_on,,,,,0,0,1,,,,0,,,40,13
727040,note_on,,,,,0,0,1,,,,0,,,80,50
727040,note_off,,,,,0,0,1,,,,0,,,83,0
727040,note_on,,,,,0,0,1,,,,0,,,68,36
727040,note_off,,,,,0,0,1,,,,0,,,47,0
727040,note_off,,,,,0,0,1,,,,0,,,42,0
727040,set_tempo,,,,,512,1,0,,1200000,,,,,,
727040,note_on,,,,,0,0,1,,,,0,,,76,36
727128,control_change,,,,,88,0,1,,,,0,64,0,,
727284,control_change,,,,,156,0,1,,,,0,64,127,,
727552,note_off,,,,,268,0,1,,,,0,,,76,0
727552,note_on,,,,,0,0,1,,,,0,,,64,33
727552,note_on,,,,,0,0,1,,,,0,,,73,33
727552,note_on,,,,,0,0,1,,,,0,,,76,47
727552,note_on,,,,,0,0,1,,,,0,,,49,33
727552,note_off,,,,,0,0,1,,,,0,,,47,0
727592,note_off,,,,,40,0,1,,,,0,,,68,0
727592,note_off,,,,,0,0,1,,,,0,,,80,0
727654,control_change,,,,,62,0,1,,,,0,64,0,,
727810,control_change,,,,,156,0,1,,,,0,64,127,,
728064,note_on,,,,,254,0,1,,,,0,,,63,31
728064,note_on,,,,,0,0,1,,,,0,,,71,31
728064,note_on,,,,,0,0,1,,,,0,,,75,45
728064,note_on,,,,,0,0,1,,,,0,,,42,20
728064,note_on,,,,,0,0,1,,,,0,,,54,32
728064,note_on,,,,,0,0,1,,,,0,,,51,20
728084,control_change,,,,,20,0,1,,,,0,64,0,,
728104,note_off,,,,,0,0,1,,,,0,,,49,0
728104,note_off,,,,,0,0,1,,,,0,,,40,0
728104,note_off,,,,,0,0,1,,,,0,,,76,0
728104,note_off,,,,,20,0,1,,,,0,,,64,0
728104,note_off,,,,,0,0,1,,,,0,,,73,0
728279,control_change,,,,,175,0,1,,,,0,64,127,,
729088,note_off,,,,,0,0,1,,,,0,,,75,0
729088,note_on,,,,,0,0,1,,,,0,,,54,25
729088,note_on,,,,,0,0,1,,,,0,,,52,30
729088,note_on,,,,,0,0,1,,,,0,,,42,30
729088,set_tempo,,,,,2048,1,0,,1500000,,,,,,
729088,note_on,,,,,0,0,1,,,,0,,,75,53
729088,note_on,,,,,0,0,1,,,,0,,,71,39
729088,note_off,,,,,809,0,1,,,,0,,,63,0
729088,note_off,,,,,0,0,1,,,,0,,,71,0
729088,note_on,,,,,0,0,1,,,,0,,,63,39
729088,note_off,,,,,0,0,1,,,,0,,,42,0
729088,note_off,,,,,0,0,1,,,,0,,,51,0
729088,note_off,,,,,0,0,1,,,,0,,,54,0
729117,control_change,,,,,29,0,1,,,,0,64,0,,
729344,note_on,,,,,227,0,1,,,,0,,,61,38
729344,note_on,,,,,0,0,1,,,,0,,,73,52
729344,note_on,,,,,0,0,1,,,,0,,,70,37
729344,set_tempo,,,,,256,1,0,,1090909,,,,,,
729384,note_off,,,,,0,0,1,,,,0,,,75,0
729384,note_off,,,,,0,0,1,,,,0,,,71,0
729384,note_off,,,,,40,0,1,,,,0,,,63,0
729600,note_on,,,,,0,0,1,,,,0,,,68,35
729600,note_on,,,,,0,0,1,,,,0,,,71,50
729600,note_on,,,,,216,0,1,,,,0,,,59,36
729640,note_off,,,,,0,0,1,,,,0,,,73,0
729640,note_off,,,,,40,0,1,,,,0,,,61,0
729640,note_off,,,,,0,0,1,,,,0,,,70,0
729856,set_tempo,,,,,512,1,0,,1500000,,,,,,
729856,note_on,,,,,216,0,1,,,,0,,,61,30
729856,note_on,,,,,0,0,1,,,,0,,,70,29
729856,note_on,,,,,0,0,1,,,,0,,,73,44
729896,note_off,,,,,0,0,1,,,,0,,,68,0
729896,note_off,,,,,40,0,1,,,,0,,,59,0
729896,note_off,,,,,0,0,1,,,,0,,,71,0
729971,control_change,,,,,75,0,1,,,,0,64,127,,
730112,note_on,,,,,0,0,1,,,,0,,,70,39
730112,note_on,,,,,0,0,1,,,,0,,,73,53
730112,note_on,,,,,0,0,1,,,,0,,,42,23
730112,note_off,,,,,0,0,1,,,,0,,,54,0
730112,note_on,,,,,0,0,1,,,,0,,,61,39
730112,note_on,,,,,0,0,1,,,,0,,,54,18
730112,note_on,,,,,0,0,1,,,,0,,,52,30
730112,note_off,,,,,0,0,1,,,,0,,,52,0
730112,note_off,,,,,0,0,1,,,,0,,,70,0
730112,note_off,,,,,0,0,1,,,,0,,,73,0
730112,note_off,,,,,0,0,1,,,,0,,,61,0
730112,control_change,,,,,0,0,1,,,,0,64,0,,
730112,control_change,,,,,141,0,1,,,,0,64,0,,
730112,note_off,,,,,0,0,1,,,,0,,,42,0
732160,note_on,,,,,0,0,1,,,,0,,,72,32
732160,note_on,,,,,2048,0,1,,,,0,,,60,20
732160,note_on,,,,,0,0,1,,,,0,,,69,20
732160,note_on,,,,,0,0,1,,,,0,,,51,16
732200,note_off,,,,,0,0,1,,,,0,,,70,0
732200,note_off,,,,,0,0,1,,,,0,,,52,0
732200,note_off,,,,,0,0,1,,,,0,,,73,0
732200,note_off,,,,,40,0,1,,,,0,,,61,0
733952,note_on,,,,,0,0,1,,,,0,,,60,27
733952,note_on,,,,,0,0,1,,,,0,,,41,15
733952,note_on,,,,,0,0,1,,,,0,,,51,15
733952,note_on,,,,,0,0,1,,,,0,,,53,15
733952,note_on,,,,,0,0,1,,,,0,,,69,39
733952,note_off,,,,,0,0,1,,,,0,,,54,0
733952,note_on,,,,,0,0,1,,,,0,,,72,27
733952,note_off,,,,,0,0,1,,,,0,,,42,0
733952,note_off,,,,,0,0,1,,,,0,,,72,0
733952,note_off,,,,,0,0,1,,,,0,,,69,0
733952,note_off,,,,,1752,0,1,,,,0,,,60,0
733952,note_off,,,,,0,0,1,,,,0,,,51,0
734208,note_on,,,,,0,0,1,,,,0,,,53,4
734208,note_on,,,,,0,0,1,,,,0,,,51,16
734208,note_on,,,,,0,0,1,,,,0,,,41,9
734208,note_on,,,,,0,0,1,,,,0,,,72,39
734208,note_on,,,,,0,0,1,,,,0,,,69,25
734208,note_on,,,,,0,0,1,,,,0,,,60,25
734208,note_off,,,,,0,0,1,,,,0,,,53,0
734208,note_off,,,,,0,0,1,,,,0,,,51,0
734208,note_off,,,,,0,0,1,,,,0,,,41,0
734208,note_off,,,,,0,0,1,,,,0,,,69,0
734208,note_off,,,,,0,0,1,,,,0,,,60,0
734208,control_change,,,,,0,0,1,,,,0,64,0,,
734208,control_change,,,,,256,0,1,,,,0,64,0,,
734208,note_off,,,,,0,0,1,,,,0,,,72,0
736256,note_on,,,,,0,0,1,,,,0,,,71,27
736256,note_on,,,,,2048,0,1,,,,0,,,59,15
736256,note_on,,,,,0,0,1,,,,0,,,68,15
736256,note_on,,,,,0,0,1,,,,0,,,50,10
736296,note_off,,,,,0,0,1,,,,0,,,72,0
736296,note_off,,,,,0,0,1,,,,0,,,69,0
736296,note_off,,,,,0,0,1,,,,0,,,51,0
736296,note_off,,,,,40,0,1,,,,0,,,60,0
737192,control_change,,,,,896,0,1,,,,0,64,127,,
738304,key_signature,,,,,8448,1,0,Ebm,,,,,,,
738304,note_on,,,,,0,0,1,,,,0,,,41,19
738304,note_on,,,,,0,0,1,,,,0,,,71,30
738304,note_off,,,,,0,0,1,,,,0,,,53,0
738304,note_off,,,,,0,0,1,,,,0,,,50,0
738304,note_off,,,,,0,0,1,,,,0,,,71,0
738304,note_off,,,,,0,0,1,,,,0,,,41,0
738304,note_off,,,,,0,0,1,,,,0,,,59,0
738304,control_change,,,,,0,0,1,,,,0,64,127,,
738304,control_change,,,,,1112,0,1,,,,0,64,127,,
738304,set_tempo,,,,,0,1,0,,1200000,,,,,,
738304,note_off,,,,,0,0,1,,,,0,,,68,0
738645,set_tempo,,,,,341,1,0,,750000,,,,,,
738645,note_off,,,,,341,0,1,,,,0,,,71,0
738645,note_on,,,,,0,0,1,,,,0,,,68,22
738645,note_on,,,,,0,0,1,,,,0,,,47,16
738645,note_off,,,,,0,0,1,,,,0,,,41,0
738987,note_off,,,,,0,0,1,,,,0,,,47,0
738987,set_tempo,,,,,342,1,0,,625000,,,,,,
738987,note_on,,,,,0,0,1,,,,0,,,59,26
738987,note_on,,,,,0,0,1,,,,0,,,50,13
738987,note_off,,,,,342,0,1,,,,0,,,68,0
739328,note_off,,,,,341,0,1,,,,0,,,59,0
739328,note_on,,,,,0,0,1,,,,0,,,71,32
739328,note_on,,,,,0,0,1,,,,0,,,41,20
739328,note_off,,,,,0,0,1,,,,0,,,50,0
739669,note_off,,,,,341,0,1,,,,0,,,71,0
739669,note_on,,,,,0,0,1,,,,0,,,68,24
739669,note_on,,,,,0,0,1,,,,0,,,47,17
739669,note_off,,,,,0,0,1,,,,0,,,41,0
740011,note_off,,,,,342,0,1,,,,0,,,68,0
740011,note_on,,,,,0,0,1,,,,0,,,59,27
740011,note_on,,,,,0,0,1,,,,0,,,50,14
740011,note_off,,,,,0,0,1,,,,0,,,47,0
740352,note_off,,,,,0,0,1,,,,0,,,50,0
740352,note_off,,,,,341,0,1,,,,0,,,59,0
740352,note_on,,,,,0,0,1,,,,0,,,71,34
740352,note_on,,,,,0,0,1,,,,0,,,41,21
740693,note_off,,,,,341,0,1,,,,0,,,71,0
740693,note_on,,,,,0,0,1,,,,0,,,68,25
740693,note_on,,,,,0,0,1,,,,0,,,47,18
740693,note_off,,,,,0,0,1,,,,0,,,41,0
741035,note_off,,,,,342,0,1,,,,0,,,68,0
741035,note_on,,,,,0,0,1,,,,0,,,59,27
741035,note_on,,,,,0,0,1,,,,0,,,50,14
741035,note_off,,,,,0,0,1,,,,0,,,47,0
741376,note_off,,,,,0,0,1,,,,0,,,50,0
741376,note_on,,,,,0,0,1,,,,0,,,71,35
741376,note_on,,,,,0,0,1,,,,0,,,41,22
741376,note_off,,,,,341,0,1,,,,0,,,59,0
741376,set_tempo,,,,,2389,1,0,,600000,,,,,,
741717,note_off,,,,,341,0,1,,,,0,,,71,0
741717,note_on,,,,,0,0,1,,,,0,,,47,19
741717,note_on,,,,,0,0,1,,,,0,,,68,26
741717,note_off,,,,,0,0,1,,,,0,,,41,0
742059,note_off,,,,,342,0,1,,,,0,,,68,0
742059,note_on,,,,,0,0,1,,,,0,,,50,14
742059,note_on,,,,,0,0,1,,,,0,,,59,28
742059,note_off,,,,,0,0,1,,,,0,,,47,0
742400,control_change,,,,,341,0,1,,,,0,64,127,,
742400,control_change,,,,,0,0,1,,,,0,64,127,,
742400,note_off,,,,,0,0,1,,,,0,,,59,0
742400,note_off,,,,,0,0,1,,,,0,,,50,0
742400,note_on,,,,,0,0,1,,,,0,,,41,23
742400,note_on,,,,,0,0,1,,,,0,,,71,37
742741,note_off,,,,,341,0,1,,,,0,,,71,0
742741,note_on,,,,,0,0,1,,,,0,,,68,25
742741,note_on,,,,,0,0,1,,,,0,,,47,19
742741,note_off,,,,,0,0,1,,,,0,,,41,0
743083,note_on,,,,,0,0,1,,,,0,,,50,15
743083,note_on,,,,,0,0,1,,,,0,,,59,27
743083,note_off,,,,,342,0,1,,,,0,,,68,0
743083,note_off,,,,,0,0,1,,,,0,,,47,0
743424,note_off,,,,,341,0,1,,,,0,,,59,0
743424,note_on,,,,,0,0,1,,,,0,,,41,21
743424,note_on,,,,,0,0,1,,,,0,,,71,32
743424,note_off,,,,,0,0,1,,,,0,,,50,0
743765,note_off,,,,,341,0,1,,,,0,,,71,0
743765,note_on,,,,,0,0,1,,,,0,,,68,22
743765,note_on,,,,,0,0,1,,,,0,,,47,17
743765,note_off,,,,,0,0,1,,,,0,,,41,0
744107,note_off,,,,,342,0,1,,,,0,,,68,0
744107,note_on,,,,,0,0,1,,,,0,,,50,14
744107,note_off,,,,,0,0,1,,,,0,,,47,0
744107,note_on,,,,,0,0,1,,,,0,,,59,25
744448,note_off,,,,,341,0,1,,,,0,,,59,0
744448,note_on,,,,,0,0,1,,,,0,,,71,29
744448,note_on,,,,,0,0,1,,,,0,,,41,19
744448,note_off,,,,,0,0,1,,,,0,,,50,0
744789,note_on,,,,,0,0,1,,,,0,,,68,20
744789,note_off,,,,,341,0,1,,,,0,,,71,0
744789,note_on,,,,,0,0,1,,,,0,,,47,15
744789,note_off,,,,,0,0,1,,,,0,,,41,0
745131,note_off,,,,,342,0,1,,,,0,,,68,0
745131,note_on,,,,,0,0,1,,,,0,,,59,21
745131,note_on,,,,,0,0,1,,,,0,,,50,11
745131,note_off,,,,,0,0,1,,,,0,,,47,0
745472,note_off,,,,,341,0,1,,,,0,,,59,0
745472,note_on,,,,,0,0,1,,,,0,,,71,25
745472,note_on,,,,,0,0,1,,,,0,,,41,17
745472,note_off,,,,,0,0,1,,,,0,,,50,0
745813,note_off,,,,,341,0,1,,,,0,,,71,0
745813,note_on,,,,,0,0,1,,,,0,,,68,17
745813,note_on,,,,,0,0,1,,,,0,,,47,13
746155,note_off,,,,,0,0,1,,,,0,,,47,0
746155,note_on,,,,,342,0,1,,,,0,,,59,18
746155,note_on,,,,,0,0,1,,,,0,,,50,10
746496,control_change,,,,,0,0,1,,,,0,64,127,,
746496,note_on,,,,,0,0,1,,,,0,,,41,19
746496,control_change,,,,,341,0,1,,,,0,64,0,,
746496,note_off,,,,,0,0,1,,,,0,,,50,0
746496,note_off,,,,,0,0,1,,,,0,,,41,0
746496,note_off,,,,,0,0,1,,,,0,,,59,0
746496,note_on,,,,,0,0,1,,,,0,,,70,24
746660,control_change,,,,,164,0,1,,,,0,64,0,,
746837,note_off,,,,,177,0,1,,,,0,,,68,0
746837,note_off,,,,,0,0,1,,,,0,,,70,0
746837,note_on,,,,,0,0,1,,,,0,,,68,18
746837,note_on,,,,,0,0,1,,,,0,,,46,16
746837,note_off,,,,,0,0,1,,,,0,,,41,0
746851,control_change,,,,,14,0,1,,,,0,64,127,,
747179,note_off,,,,,328,0,1,,,,0,,,68,0
747179,note_on,,,,,0,0,1,,,,0,,,58,20
747179,note_on,,,,,0,0,1,,,,0,,,50,13
747179,note_off,,,,,0,0,1,,,,0,,,46,0
747520,note_on,,,,,0,0,1,,,,0,,,70,24
747520,note_on,,,,,0,0,1,,,,0,,,41,18
747520,note_off,,,,,341,0,1,,,,0,,,58,0
747520,note_off,,,,,0,0,1,,,,0,,,50,0
747861,note_off,,,,,341,0,1,,,,0,,,70,0
747861,note_on,,,,,0,0,1,,,,0,,,68,17
747861,note_on,,,,,0,0,1,,,,0,,,46,15
747861,note_off,,,,,0,0,1,,,,0,,,41,0
748203,note_off,,,,,342,0,1,,,,0,,,68,0
748203,note_on,,,,,0,0,1,,,,0,,,58,19
748203,note_off,,,,,0,0,1,,,,0,,,46,0
748203,note_on,,,,,0,0,1,,,,0,,,50,12
748544,note_off,,,,,341,0,1,,,,0,,,58,0
748544,note_on,,,,,0,0,1,,,,0,,,70,23
748544,note_on,,,,,0,0,1,,,,0,,,41,17
748544,note_off,,,,,0,0,1,,,,0,,,50,0
748885,note_off,,,,,0,0,1,,,,0,,,41,0
748885,note_on,,,,,0,0,1,,,,0,,,68,16
748885,note_off,,,,,341,0,1,,,,0,,,70,0
748885,note_on,,,,,0,0,1,,,,0,,,46,14
749227,note_off,,,,,342,0,1,,,,0,,,68,0
749227,note_on,,,,,0,0,1,,,,0,,,58,17
749227,note_on,,,,,0,0,1,,,,0,,,50,11
749227,note_off,,,,,0,0,1,,,,0,,,46,0
749568,note_off,,,,,341,0,1,,,,0,,,58,0
749568,note_on,,,,,0,0,1,,,,0,,,70,21
749568,note_on,,,,,0,0,1,,,,0,,,41,16
749568,note_off,,,,,0,0,1,,,,0,,,50,0
749909,note_off,,,,,341,0,1,,,,0,,,70,0
749909,note_on,,,,,0,0,1,,,,0,,,68,15
749909,note_on,,,,,0,0,1,,,,0,,,46,14
749909,note_off,,,,,0,0,1,,,,0,,,41,0
750251,note_on,,,,,0,0,1,,,,0,,,58,16
750251,note_off,,,,,342,0,1,,,,0,,,68,0
750251,note_on,,,,,0,0,1,,,,0,,,50,10
750251,note_off,,,,,0,0,1,,,,0,,,46,0
750592,note_off,,,,,0,0,1,,,,0,,,58,0
750592,note_on,,,,,0,0,1,,,,0,,,41,16
750592,note_on,,,,,0,0,1,,,,0,,,70,20
750592,note_off,,,,,0,0,1,,,,0,,,50,0
750592,control_change,,,,,0,0,1,,,,0,64,127,,
750592,control_change,,,,,341,0,1,,,,0,64,127,,
750592,set_tempo,,,,,9216,1,0,,625000,,,,,,
750933,note_on,,,,,0,0,1,,,,0,,,46,13
750933,note_on,,,,,0,0,1,,,,0,,,68,14
750933,note_off,,,,,341,0,1,,,,0,,,70,0
750933,note_off,,,,,0,0,1,,,,0,,,41,0
751275,note_on,,,,,0,0,1,,,,0,,,58,16
751275,note_off,,,,,342,0,1,,,,0,,,68,0
751275,note_off,,,,,0,0,1,,,,0,,,46,0
751275,note_on,,,,,0,0,1,,,,0,,,50,10
751616,set_tempo,,,,,1024,1,0,,750000,,,,,,
751616,note_on,,,,,0,0,1,,,,0,,,70,18
751616,note_off,,,,,0,0,1,,,,0,,,50,0
751616,note_on,,,,,0,0,1,,,,0,,,41,15
751616,note_off,,,,,341,0,1,,,,0,,,58,0
751957,note_off,,,,,341,0,1,,,,0,,,70,0
751957,note_on,,,,,0,0,1,,,,0,,,68,13
751957,note_on,,,,,0,0,1,,,,0,,,46,12
751957,note_off,,,,,0,0,1,,,,0,,,41,0
752299,note_off,,,,,342,0,1,,,,0,,,68,0
752299,note_on,,,,,0,0,1,,,,0,,,58,15
752299,note_on,,,,,0,0,1,,,,0,,,50,10
752299,note_off,,,,,0,0,1,,,,0,,,46,0
752640,note_off,,,,,341,0,1,,,,0,,,58,0
752640,note_on,,,,,0,0,1,,,,0,,,70,17
752640,note_on,,,,,0,0,1,,,,0,,,41,14
752640,note_off,,,,,0,0,1,,,,0,,,50,0
752640,set_tempo,,,,,1024,1,0,,857142,,,,,,
752981,note_on,,,,,0,0,1,,,,0,,,46,12
752981,note_off,,,,,0,0,1,,,,0,,,41,0
752981,note_on,,,,,0,0,1,,,,0,,,68,12
752981,note_off,,,,,341,0,1,,,,0,,,70,0
753323,note_off,,,,,0,0,1,,,,0,,,46,0
753323,note_on,,,,,0,0,1,,,,0,,,50,8
753323,note_on,,,,,0,0,1,,,,0,,,58,13
753323,note_off,,,,,342,0,1,,,,0,,,68,0
753664,note_off,,,,,0,0,1,,,,0,,,50,0
753664,note_on,,,,,0,0,1,,,,0,,,41,13
753664,note_on,,,,,0,0,1,,,,0,,,70,15
753664,note_off,,,,,341,0,1,,,,0,,,58,0
753664,set_tempo,,,,,1024,1,0,,1000000,,,,,,
754005,note_off,,,,,0,0,1,,,,0,,,41,0
754005,note_on,,,,,0,0,1,,,,0,,,46,11
754005,note_on,,,,,0,0,1,,,,0,,,68,11
754005,note_off,,,,,341,0,1,,,,0,,,70,0
754005,set_tempo,,,,,341,1,0,,1090909,,,,,,
754347,note_off,,,,,0,0,1,,,,0,,,46,0
754347,note_on,,,,,0,0,1,,,,0,,,50,8
754347,note_on,,,,,0,0,1,,,,0,,,58,12
754347,note_off,,,,,342,0,1,,,,0,,,68,0
754347,set_tempo,,,,,342,1,0,,1500000,,,,,,
754688,note_off,,,,,0,0,1,,,,0,,,58,0
754688,control_change,,,,,0,0,1,,,,0,64,127,,
754688,control_change,,,,,341,0,1,,,,0,64,0,,
754688,note_off,,,,,0,0,1,,,,0,,,50,0
754688,note_on,,,,,0,0,1,,,,0,,,68,10
754688,note_on,,,,,0,0,1,,,,0,,,70,22
754688,note_on,,,,,0,0,1,,,,0,,,41,12
754688,note_on,,,,,0,0,1,,,,0,,,46,12
754688,note_on,,,,,0,0,1,,,,0,,,50,12
754688,note_on,,,,,0,0,1,,,,0,,,58,10
754852,control_change,,,,,164,0,1,,,,0,64,0,,
755125,control_change,,,,,273,0,1,,,,0,64,127,,
757637,control_change,,,,,2512,0,1,,,,0,64,0,,
757760,note_off,,,,,123,0,1,,,,0,,,58,0
757760,note_off,,,,,0,0,1,,,,0,,,50,0
757760,note_off,,,,,0,0,1,,,,0,,,46,0
757760,note_off,,,,,0,0,1,,,,0,,,68,0
757760,note_off,,,,,0,0,1,,,,0,,,41,0
757760,note_off,,,,,0,0,1,,,,0,,,70,0
758528,set_tempo,,,,,4181,1,0,,375000,,,,,,
758528,note_on,,,,,0,0,1,,,,0,,,70,37
758528,note_on,,,,,768,0,1,,,,0,,,58,25
758784,time_signature,2,4,24,8,256,1,0,,,,,,,,
758784,set_tempo,,,,,0,1,0,,333333,,,,,,
758784,note_on,,,,,0,0,1,,,,0,,,39,26
758784,note_on,,,,,0,0,1,,,,0,,,70,42
758784,note_on,,,,,0,0,1,,,,0,,,58,30
758784,note_off,,,,,0,0,1,,,,0,,,70,0
758784,note_off,,,,,0,0,1,,,,0,,,58,0
758784,control_change,,,,,0,0,1,,,,0,64,0,,
758784,control_change,,,,,256,0,1,,,,0,64,0,,
759073,control_change,,,,,289,0,1,,,,0,64,127,,
759125,note_on,,,,,52,0,1,,,,0,,,46,23
759467,note_on,,,,,342,0,1,,,,0,,,51,23
759808,note_off,,,,,341,0,1,,,,0,,,58,0
759808,note_on,,,,,0,0,1,,,,0,,,39,23
759808,note_on,,,,,0,0,1,,,,0,,,66,38
759808,note_off,,,,,0,0,1,,,,0,,,51,0
759808,note_off,,,,,0,0,1,,,,0,,,46,0
759808,note_off,,,,,0,0,1,,,,0,,,39,0
759808,note_off,,,,,0,0,1,,,,0,,,70,0
759834,control_change,,,,,26,0,1,,,,0,64,0,,
760044,control_change,,,,,210,0,1,,,,0,64,0,,
760149,note_on,,,,,105,0,1,,,,0,,,46,23
760281,control_change,,,,,132,0,1,,,,0,64,127,,
760320,note_off,,,,,39,0,1,,,,0,,,66,0
760491,note_on,,,,,171,0,1,,,,0,,,51,23
760576,set_tempo,,,,,1792,1,0,,375000,,,,,,
760576,note_on,,,,,85,0,1,,,,0,,,58,25
760576,note_on,,,,,0,0,1,,,,0,,,70,37
760622,control_change,,,,,46,0,1,,,,0,64,0,,
760832,set_tempo,,,,,256,1,0,,333333,,,,,,
760832,note_on,,,,,0,0,1,,,,0,,,38,28
760832,note_on,,,,,0,0,1,,,,0,,,70,44
760832,note_on,,,,,0,0,1,,,,0,,,58,32
760832,note_off,,,,,0,0,1,,,,0,,,51,0
760832,note_off,,,,,0,0,1,,,,0,,,46,0
760832,note_off,,,,,0,0,1,,,,0,,,39,0
760832,control_change,,,,,210,0,1,,,,0,64,0,,
760832,control_change,,,,,0,0,1,,,,0,64,0,,
760832,control_change,,,,,0,0,1,,,,0,64,0,,
760832,note_off,,,,,0,0,1,,,,0,,,58,0
760832,note_off,,,,,0,0,1,,,,0,,,70,0
761121,control_change,,,,,289,0,1,,,,0,64,127,,
761173,note_on,,,,,52,0,1,,,,0,,,46,24
761515,note_on,,,,,342,0,1,,,,0,,,50,24
761856,note_on,,,,,0,0,1,,,,0,,,38,24
761856,note_on,,,,,0,0,1,,,,0,,,65,40
761856,note_off,,,,,0,0,1,,,,0,,,50,0
761856,note_off,,,,,341,0,1,,,,0,,,58,0
761856,note_off,,,,,0,0,1,,,,0,,,38,0
761856,note_off,,,,,0,0,1,,,,0,,,70,0
761856,note_off,,,,,0,0,1,,,,0,,,46,0
761882,control_change,,,,,26,0,1,,,,0,64,0,,
762092,control_change,,,,,210,0,1,,,,0,64,0,,
762197,note_on,,,,,105,0,1,,,,0,,,46,25
762329,control_change,,,,,132,0,1,,,,0,64,127,,
762368,note_off,,,,,39,0,1,,,,0,,,65,0
762539,note_on,,,,,171,0,1,,,,0,,,50,25
762624,note_on,,,,,85,0,1,,,,0,,,70,39
762670,control_change,,,,,46,0,1,,,,0,64,0,,
762880,note_off,,,,,0,0,1,,,,0,,,50,0
762880,note_on,,,,,0,0,1,,,,0,,,68,46
762880,note_on,,,,,0,0,1,,,,0,,,41,33
762880,note_on,,,,,0,0,1,,,,0,,,58,34
762880,note_off,,,,,0,0,1,,,,0,,,46,0
762880,control_change,,,,,210,0,1,,,,0,64,0,,
762880,note_off,,,,,0,0,1,,,,0,,,70,0
762880,control_change,,,,,0,0,1,,,,0,64,0,,
762880,set_tempo,,,,,2048,1,0,,333333,,,,,,
762880,note_off,,,,,0,0,1,,,,0,,,38,0
763042,control_change,,,,,162,0,1,,,,0,64,127,,
763221,note_on,,,,,179,0,1,,,,0,,,46,29
763563,note_on,,,,,342,0,1,,,,0,,,53,29
763648,note_off,,,,,85,0,1,,,,0,,,58,0
763648,note_off,,,,,0,0,1,,,,0,,,68,0
763648,note_on,,,,,0,0,1,,,,0,,,70,44
763904,note_off,,,,,0,0,1,,,,0,,,53,0
763904,note_off,,,,,0,0,1,,,,0,,,41,0
763904,note_on,,,,,0,0,1,,,,0,,,41,30
763904,note_off,,,,,0,0,1,,,,0,,,46,0
763904,note_on,,,,,0,0,1,,,,0,,,58,35
763904,note_off,,,,,256,0,1,,,,0,,,70,0
763904,set_tempo,,,,,1024,1,0,,333333,,,,,,
763904,note_on,,,,,0,0,1,,,,0,,,68,48
764245,note_on,,,,,341,0,1,,,,0,,,46,30
764587,note_on,,,,,342,0,1,,,,0,,,53,30
764672,note_off,,,,,85,0,1,,,,0,,,58,0
764672,note_off,,,,,0,0,1,,,,0,,,68,0
764672,note_on,,,,,0,0,1,,,,0,,,70,45
764766,control_change,,,,,94,0,1,,,,0,64,0,,
764928,control_change,,,,,0,0,1,,,,0,64,0,,
764928,note_off,,,,,0,0,1,,,,0,,,70,0
764928,note_off,,,,,0,0,1,,,,0,,,41,0
764928,note_off,,,,,0,0,1,,,,0,,,46,0
764928,note_off,,,,,0,0,1,,,,0,,,53,0
764928,note_on,,,,,0,0,1,,,,0,,,58,36
764928,control_change,,,,,162,0,1,,,,0,64,0,,
764928,note_on,,,,,0,0,1,,,,0,,,39,35
764928,note_on,,,,,0,0,1,,,,0,,,66,49
764928,set_tempo,,,,,1024,1,0,,333333,,,,,,
765136,control_change,,,,,208,0,1,,,,0,64,127,,
765269,note_on,,,,,133,0,1,,,,0,,,46,31
765611,note_on,,,,,342,0,1,,,,0,,,51,31
765952,note_on,,,,,0,0,1,,,,0,,,39,31
765952,note_off,,,,,0,0,1,,,,0,,,51,0
765952,note_off,,,,,0,0,1,,,,0,,,46,0
765952,note_off,,,,,0,0,1,,,,0,,,39,0
765952,note_off,,,,,0,0,1,,,,0,,,66,0
765952,note_off,,,,,341,0,1,,,,0,,,58,0
765997,control_change,,,,,45,0,1,,,,0,64,0,,
766293,note_on,,,,,296,0,1,,,,0,,,46,31
766323,control_change,,,,,30,0,1,,,,0,64,127,,
766635,note_on,,,,,312,0,1,,,,0,,,51,31
766720,note_on,,,,,0,0,1,,,,0,,,70,47
766720,set_tempo,,,,,1792,1,0,,375000,,,,,,
766720,note_on,,,,,85,0,1,,,,0,,,58,34
766887,control_change,,,,,167,0,1,,,,0,64,0,,
766976,note_off,,,,,0,0,1,,,,0,,,58,0
766976,set_tempo,,,,,256,1,0,,333333,,,,,,
766976,control_change,,,,,0,0,1,,,,0,64,0,,
766976,note_on,,,,,0,0,1,,,,0,,,42,36
766976,note_on,,,,,0,0,1,,,,0,,,70,55
766976,note_on,,,,,0,0,1,,,,0,,,58,41
766976,note_off,,,,,0,0,1,,,,0,,,51,0
766976,note_off,,,,,0,0,1,,,,0,,,46,0
766976,note_off,,,,,0,0,1,,,,0,,,70,0
766976,control_change,,,,,89,0,1,,,,0,64,0,,
766976,note_off,,,,,0,0,1,,,,0,,,39,0
767184,control_change,,,,,208,0,1,,,,0,64,127,,
767317,note_on,,,,,133,0,1,,,,0,,,46,32
767488,note_off,,,,,171,0,1,,,,0,,,58,0
767488,note_off,,,,,0,0,1,,,,0,,,70,0
767488,set_tempo,,,,,512,1,0,,375000,,,,,,
767570,control_change,,,,,82,0,1,,,,0,64,0,,
767659,note_on,,,,,89,0,1,,,,0,,,51,32
768000,set_tempo,,,,,512,1,0,,333333,,,,,,
768000,note_off,,,,,0,0,1,,,,0,,,42,0
768000,note_off,,,,,0,0,1,,,,0,,,51,0
768000,note_off,,,,,0,0,1,,,,0,,,46,0
768000,note_on,,,,,0,0,1,,,,0,,,42,32
768000,note_on,,,,,0,0,1,,,,0,,,78,58
768000,note_on,,,,,341,0,1,,,,0,,,66,44
768193,control_change,,,,,193,0,1,,,,0,64,127,,
768341,note_on,,,,,148,0,1,,,,0,,,46,33
768683,note_on,,,,,342,0,1,,,,0,,,51,33
769024,control_change,,,,,0,0,1,,,,0,64,127,,
769024,note_off,,,,,0,0,1,,,,0,,,51,0
769024,note_off,,,,,0,0,1,,,,0,,,46,0
769024,note_off,,,,,0,0,1,,,,0,,,42,0
769024,control_change,,,,,341,0,1,,,,0,64,0,,
769024,note_on,,,,,0,0,1,,,,0,,,44,38
769232,control_change,,,,,208,0,1,,,,0,64,0,,
769365,note_on,,,,,133,0,1,,,,0,,,47,33
769469,control_change,,,,,104,0,1,,,,0,64,127,,
769707,note_on,,,,,238,0,1,,,,0,,,53,33
770048,note_off,,,,,0,0,1,,,,0,,,53,0
770048,note_on,,,,,0,0,1,,,,0,,,65,39
770048,note_off,,,,,0,0,1,,,,0,,,44,0
770048,note_on,,,,,0,0,1,,,,0,,,44,33
770048,note_off,,,,,0,0,1,,,,0,,,78,0
770048,note_off,,,,,341,0,1,,,,0,,,66,0
770048,note_off,,,,,0,0,1,,,,0,,,47,0
770048,note_on,,,,,0,0,1,,,,0,,,77,53
770093,control_change,,,,,45,0,1,,,,0,64,0,,
770389,note_on,,,,,296,0,1,,,,0,,,47,33
770576,note_off,,,,,187,0,1,,,,0,,,65,0
770576,note_off,,,,,0,0,1,,,,0,,,77,0
770731,note_on,,,,,155,0,1,,,,0,,,53,33
770816,set_tempo,,,,,2816,1,0,,375000,,,,,,
770816,note_on,,,,,85,0,1,,,,0,,,63,35
770816,note_on,,,,,0,0,1,,,,0,,,75,49
770903,note_off,,,,,87,0,1,,,,0,,,63,0
770903,note_off,,,,,0,0,1,,,,0,,,75,0
771072,control_change,,,,,169,0,1,,,,0,64,0,,
771072,note_on,,,,,0,0,1,,,,0,,,74,57
771072,note_on,,,,,0,0,1,,,,0,,,62,43
771072,note_off,,,,,0,0,1,,,,0,,,53,0
771072,note_off,,,,,0,0,1,,,,0,,,47,0
771072,note_off,,,,,0,0,1,,,,0,,,44,0
771072,set_tempo,,,,,256,1,0,,333333,,,,,,
771072,note_on,,,,,0,0,1,,,,0,,,46,38
771072,control_change,,,,,0,0,1,,,,0,64,0,,
771413,note_on,,,,,341,0,1,,,,0,,,53,33
771440,note_off,,,,,0,0,1,,,,0,,,74,0
771440,note_off,,,,,27,0,1,,,,0,,,62,0
771755,note_on,,,,,315,0,1,,,,0,,,56,33
771840,note_on,,,,,0,0,1,,,,0,,,77,49
771840,set_tempo,,,,,768,1,0,,375000,,,,,,
771840,note_on,,,,,85,0,1,,,,0,,,65,35
771927,note_off,,,,,87,0,1,,,,0,,,65,0
771927,note_off,,,,,0,0,1,,,,0,,,77,0
772096,note_off,,,,,0,0,1,,,,0,,,56,0
772096,note_off,,,,,0,0,1,,,,0,,,53,0
772096,set_tempo,,,,,256,1,0,,333333,,,,,,
772096,note_on,,,,,0,0,1,,,,0,,,46,33
772096,note_on,,,,,0,0,1,,,,0,,,74,53
772096,note_on,,,,,169,0,1,,,,0,,,62,39
772096,note_off,,,,,0,0,1,,,,0,,,46,0
772437,note_on,,,,,341,0,1,,,,0,,,53,33
772624,note_off,,,,,187,0,1,,,,0,,,62,0
772624,note_off,,,,,0,0,1,,,,0,,,74,0
772779,note_on,,,,,155,0,1,,,,0,,,56,33
772864,note_on,,,,,85,0,1,,,,0,,,65,35
772864,note_on,,,,,0,0,1,,,,0,,,77,49
772864,set_tempo,,,,,768,1,0,,375000,,,,,,
772951,note_off,,,,,87,0,1,,,,0,,,65,0
772951,note_off,,,,,0,0,1,,,,0,,,77,0
773120,note_off,,,,,0,0,1,,,,0,,,46,0
773120,note_off,,,,,0,0,1,,,,0,,,53,0
773120,note_off,,,,,0,0,1,,,,0,,,56,0
773120,note_on,,,,,0,0,1,,,,0,,,63,39
773120,note_on,,,,,0,0,1,,,,0,,,75,53
773120,note_on,,,,,0,0,1,,,,0,,,39,50
773120,set_tempo,,,,,256,1,0,,333333,,,,,,
773120,control_change,,,,,169,0,1,,,,0,64,0,,
773120,control_change,,,,,0,0,1,,,,0,64,0,,
773461,note_on,,,,,341,0,1,,,,0,,,46,45
773803,note_on,,,,,342,0,1,,,,0,,,51,45
774144,note_on,,,,,0,0,1,,,,0,,,39,45
774144,note_off,,,,,0,0,1,,,,0,,,39,0
774144,note_off,,,,,341,0,1,,,,0,,,63,0
774144,note_off,,,,,0,0,1,,,,0,,,75,0
774144,note_off,,,,,0,0,1,,,,0,,,51,0
774144,note_off,,,,,0,0,1,,,,0,,,46,0
774485,note_on,,,,,341,0,1,,,,0,,,46,45
774827,note_on,,,,,342,0,1,,,,0,,,51,45
774912,note_on,,,,,0,0,1,,,,0,,,82,66
774912,note_on,,,,,85,0,1,,,,0,,,70,54
774912,set_tempo,,,,,1792,1,0,,375000,,,,,,
775168,control_change,,,,,256,0,1,,,,0,64,0,,
775168,note_on,,,,,0,0,1,,,,0,,,39,62
775168,note_on,,,,,0,0,1,,,,0,,,82,72
775168,note_on,,,,,0,0,1,,,,0,,,70,58
775168,note_off,,,,,0,0,1,,,,0,,,46,0
775168,note_off,,,,,0,0,1,,,,0,,,39,0
775168,note_off,,,,,0,0,1,,,,0,,,82,0
775168,note_off,,,,,0,0,1,,,,0,,,70,0
775168,control_change,,,,,0,0,1,,,,0,64,0,,
775168,control_change,,,,,0,0,1,,,,0,64,0,,
775168,note_off,,,,,0,0,1,,,,0,,,51,0
775168,set_tempo,,,,,256,1,0,,333333,,,,,,
775457,control_change,,,,,289,0,1,,,,0,64,127,,
775509,note_on,,,,,52,0,1,,,,0,,,46,50
775851,note_on,,,,,342,0,1,,,,0,,,51,50
776192,note_off,,,,,0,0,1,,,,0,,,51,0
776192,note_on,,,,,0,0,1,,,,0,,,78,66
776192,note_on,,,,,0,0,1,,,,0,,,39,50
776192,note_off,,,,,0,0,1,,,,0,,,39,0
776192,note_off,,,,,0,0,1,,,,0,,,82,0
776192,note_off,,,,,341,0,1,,,,0,,,70,0
776192,note_off,,,,,0,0,1,,,,0,,,46,0
776218,control_change,,,,,26,0,1,,,,0,64,0,,
776428,control_change,,,,,210,0,1,,,,0,64,0,,
776533,note_on,,,,,105,0,1,,,,0,,,46,50
776665,control_change,,,,,132,0,1,,,,0,64,127,,
776704,note_off,,,,,39,0,1,,,,0,,,78,0
776875,note_on,,,,,171,0,1,,,,0,,,51,50
776960,note_on,,,,,85,0,1,,,,0,,,70,50
776960,set_tempo,,,,,1792,1,0,,375000,,,,,,
776960,note_on,,,,,0,0,1,,,,0,,,82,64
777006,control_change,,,,,46,0,1,,,,0,64,0,,
777216,note_off,,,,,0,0,1,,,,0,,,46,0
777216,control_change,,,,,0,0,1,,,,0,64,0,,
777216,note_off,,,,,0,0,1,,,,0,,,39,0
777216,control_change,,,,,0,0,1,,,,0,64,0,,
777216,control_change,,,,,0,0,1,,,,0,64,0,,
777216,control_change,,,,,210,0,1,,,,0,64,0,,
777216,note_off,,,,,0,0,1,,,,0,,,82,0
777216,set_tempo,,,,,256,1,0,,333333,,,,,,
777216,note_off,,,,,0,0,1,,,,0,,,70,0
777216,note_on,,,,,0,0,1,,,,0,,,38,62
777216,note_on,,,,,0,0,1,,,,0,,,82,72
777216,note_on,,,,,0,0,1,,,,0,,,70,58
777216,note_off,,,,,0,0,1,,,,0,,,51,0
777505,control_change,,,,,289,0,1,,,,0,64,127,,
777557,note_on,,,,,52,0,1,,,,0,,,46,50
777899,note_on,,,,,342,0,1,,,,0,,,50,50
778133,control_change,,,,,234,0,1,,,,0,64,127,,
778240,note_off,,,,,0,0,1,,,,0,,,50,0
778240,note_on,,,,,0,0,1,,,,0,,,38,50
778240,note_on,,,,,0,0,1,,,,0,,,77,66
778240,note_off,,,,,0,0,1,,,,0,,,46,0
778240,note_off,,,,,0,0,1,,,,0,,,38,0
778240,note_off,,,,,0,0,1,,,,0,,,82,0
778240,note_off,,,,,107,0,1,,,,0,,,70,0
778476,control_change,,,,,236,0,1,,,,0,64,0,,
778581,note_on,,,,,105,0,1,,,,0,,,46,50
778713,control_change,,,,,132,0,1,,,,0,64,127,,
778752,note_off,,,,,39,0,1,,,,0,,,77,0
778923,note_on,,,,,171,0,1,,,,0,,,50,50
779008,note_on,,,,,85,0,1,,,,0,,,82,64
779054,control_change,,,,,46,0,1,,,,0,64,0,,
779264,note_off,,,,,0,0,1,,,,0,,,46,0
779264,set_tempo,,,,,2048,1,0,,333333,,,,,,
779264,control_change,,,,,210,0,1,,,,0,64,0,,
779264,control_change,,,,,0,0,1,,,,0,64,0,,
779264,note_off,,,,,0,0,1,,,,0,,,38,0
779264,control_change,,,,,0,0,1,,,,0,64,0,,
779264,note_on,,,,,0,0,1,,,,0,,,41,62
779264,note_on,,,,,0,0,1,,,,0,,,80,72
779264,note_on,,,,,0,0,1,,,,0,,,70,58
779264,note_off,,,,,0,0,1,,,,0,,,50,0
779264,note_off,,,,,0,0,1,,,,0,,,82,0
779426,control_change,,,,,162,0,1,,,,0,64,127,,
779605,note_on,,,,,179,0,1,,,,0,,,46,50
779947,note_on,,,,,342,0,1,,,,0,,,53,50
780032,note_on,,,,,0,0,1,,,,0,,,82,64
780032,note_off,,,,,0,0,1,,,,0,,,80,0
780032,note_off,,,,,85,0,1,,,,0,,,70,0
780288,note_off,,,,,256,0,1,,,,0,,,82,0
780288,set_tempo,,,,,1024,1,0,,333333,,,,,,
780288,note_off,,,,,0,0,1,,,,0,,,41,0
780288,note_off,,,,,0,0,1,,,,0,,,46,0
780288,note_off,,,,,0,0,1,,,,0,,,53,0
780288,note_on,,,,,0,0,1,,,,0,,,70,54
780288,note_on,,,,,0,0,1,,,,0,,,41,50
780288,note_on,,,,,0,0,1,,,,0,,,80,68
780629,note_on,,,,,341,0,1,,,,0,,,46,50
780971,note_on,,,,,342,0,1,,,,0,,,53,50
781056,note_off,,,,,0,0,1,,,,0,,,80,0
781056,note_on,,,,,0,0,1,,,,0,,,82,64
781056,note_off,,,,,85,0,1,,,,0,,,70,0
781150,control_change,,,,,94,0,1,,,,0,64,0,,
781312,set_tempo,,,,,1024,1,0,,333333,,,,,,
781312,note_on,,,,,0,0,1,,,,0,,,39,62
781312,note_on,,,,,0,0,1,,,,0,,,78,68
781312,note_off,,,,,0,0,1,,,,0,,,46,0
781312,note_on,,,,,0,0,1,,,,0,,,70,54
781312,control_change,,,,,0,0,1,,,,0,64,0,,
781312,control_change,,,,,0,0,1,,,,0,64,0,,
781312,note_off,,,,,0,0,1,,,,0,,,82,0
781312,note_off,,,,,0,0,1,,,,0,,,41,0
781312,note_off,,,,,0,0,1,,,,0,,,53,0
781312,control_change,,,,,162,0,1,,,,0,64,0,,
781520,control_change,,,,,208,0,1,,,,0,64,127,,
781653,note_on,,,,,133,0,1,,,,0,,,46,50
781995,note_on,,,,,342,0,1,,,,0,,,51,50
782336,note_on,,,,,0,0,1,,,,0,,,39,50
782336,note_off,,,,,0,0,1,,,,0,,,51,0
782336,note_off,,,,,0,0,1,,,,0,,,46,0
782336,note_off,,,,,0,0,1,,,,0,,,39,0
782336,note_off,,,,,0,0,1,,,,0,,,78,0
782336,note_off,,,,,341,0,1,,,,0,,,70,0
782381,control_change,,,,,45,0,1,,,,0,64,0,,
782677,note_on,,,,,296,0,1,,,,0,,,46,50
782707,control_change,,,,,30,0,1,,,,0,64,127,,
783019,note_on,,,,,312,0,1,,,,0,,,51,50
783104,note_on,,,,,0,0,1,,,,0,,,82,68
783104,note_on,,,,,85,0,1,,,,0,,,70,54
783104,set_tempo,,,,,1792,1,0,,375000,,,,,,
783271,control_change,,,,,167,0,1,,,,0,64,0,,
783360,set_tempo,,,,,256,1,0,,333333,,,,,,
783360,control_change,,,,,89,0,1,,,,0,64,0,,
783360,control_change,,,,,0,0,1,,,,0,64,0,,
783360,control_change,,,,,0,0,1,,,,0,64,0,,
783360,note_off,,,,,0,0,1,,,,0,,,70,0
783360,note_off,,,,,0,0,1,,,,0,,,82,0
783360,note_off,,,,,0,0,1,,,,0,,,39,0
783360,note_off,,,,,0,0,1,,,,0,,,46,0
783360,note_off,,,,,0,0,1,,,,0,,,51,0
783360,note_on,,,,,0,0,1,,,,0,,,70,62
783360,note_on,,,,,0,0,1,,,,0,,,82,76
783360,note_on,,,,,0,0,1,,,,0,,,42,62
783568,control_change,,,,,208,0,1,,,,0,64,127,,
783701,note_on,,,,,133,0,1,,,,0,,,46,50
783872,note_off,,,,,171,0,1,,,,0,,,70,0
783872,set_tempo,,,,,512,1,0,,375000,,,,,,
783872,note_off,,,,,0,0,1,,,,0,,,82,0
783954,control_change,,,,,82,0,1,,,,0,64,0,,
784043,note_on,,,,,89,0,1,,,,0,,,51,50
784173,control_change,,,,,130,0,1,,,,0,64,127,,
784384,set_tempo,,,,,512,1,0,,333333,,,,,,
784384,note_on,,,,,211,0,1,,,,0,,,78,64
784384,note_on,,,,,0,0,1,,,,0,,,90,78
784384,note_on,,,,,0,0,1,,,,0,,,42,50
784384,note_off,,,,,0,0,1,,,,0,,,42,0
784384,note_off,,,,,0,0,1,,,,0,,,46,0
784384,note_off,,,,,0,0,1,,,,0,,,51,0
784725,note_on,,,,,341,0,1,,,,0,,,46,50
785067,note_on,,,,,342,0,1,,,,0,,,51,50
785408,control_change,,,,,0,0,1,,,,0,64,127,,
785408,control_change,,,,,0,0,1,,,,0,64,0,,
785408,note_on,,,,,0,0,1,,,,0,,,44,62
785408,note_off,,,,,0,0,1,,,,0,,,51,0
785408,note_off,,,,,0,0,1,,,,0,,,46,0
785408,note_off,,,,,0,0,1,,,,0,,,42,0
785408,control_change,,,,,341,0,1,,,,0,64,0,,
785616,control_change,,,,,208,0,1,,,,0,64,0,,
785749,note_on,,,,,133,0,1,,,,0,,,47,50
785853,control_change,,,,,104,0,1,,,,0,64,127,,
786091,note_on,,,,,238,0,1,,,,0,,,53,50
786432,note_off,,,,,0,0,1,,,,0,,,44,0
786432,note_off,,,,,0,0,1,,,,0,,,90,0
786432,note_off,,,,,341,0,1,,,,0,,,78,0
786432,note_off,,,,,0,0,1,,,,0,,,47,0
786432,note_on,,,,,0,0,1,,,,0,,,77,58
786432,note_off,,,,,0,0,1,,,,0,,,53,0
786432,note_on,,,,,0,0,1,,,,0,,,44,50
786432,note_on,,,,,0,0,1,,,,0,,,89,72
786477,control_change,,,,,45,0,1,,,,0,64,0,,
786773,note_on,,,,,296,0,1,,,,0,,,47,50
787115,note_on,,,,,342,0,1,,,,0,,,53,50
787200,note_off,,,,,0,0,1,,,,0,,,89,0
787200,note_off,,,,,85,0,1,,,,0,,,77,0
787200,note_on,,,,,0,0,1,,,,0,,,87,68
787200,note_on,,,,,0,0,1,,,,0,,,75,54
787200,set_tempo,,,,,2816,1,0,,375000,,,,,,
787456,note_on,,,,,0,0,1,,,,0,,,74,62
787456,set_tempo,,,,,256,1,0,,333333,,,,,,
787456,note_on,,,,,0,0,1,,,,0,,,86,76
787456,control_change,,,,,0,0,1,,,,0,64,0,,
787456,control_change,,,,,0,0,1,,,,0,64,0,,
787456,control_change,,,,,256,0,1,,,,0,64,0,,
787456,note_off,,,,,0,0,1,,,,0,,,87,0
787456,note_on,,,,,0,0,1,,,,0,,,46,62
787456,note_off,,,,,0,0,1,,,,0,,,47,0
787456,note_off,,,,,0,0,1,,,,0,,,53,0
787456,note_off,,,,,0,0,1,,,,0,,,75,0
787456,note_off,,,,,0,0,1,,,,0,,,44,0
787797,note_on,,,,,341,0,1,,,,0,,,53,50
788139,note_on,,,,,342,0,1,,,,0,,,56,50
788224,note_off,,,,,0,0,1,,,,0,,,86,0
788224,note_on,,,,,0,0,1,,,,0,,,77,54
788224,note_on,,,,,0,0,1,,,,0,,,89,68
788224,note_off,,,,,85,0,1,,,,0,,,74,0
788224,set_tempo,,,,,768,1,0,,375000,,,,,,
788480,note_off,,,,,0,0,1,,,,0,,,56,0
788480,note_on,,,,,0,0,1,,,,0,,,46,50
788480,note_on,,,,,0,0,1,,,,0,,,86,72
788480,note_on,,,,,0,0,1,,,,0,,,74,58
788480,note_off,,,,,0,0,1,,,,0,,,53,0
788480,note_off,,,,,0,0,1,,,,0,,,46,0
788480,note_off,,,,,0,0,1,,,,0,,,89,0
788480,note_off,,,,,256,0,1,,,,0,,,77,0
788480,set_tempo,,,,,256,1,0,,333333,,,,,,
788821,note_on,,,,,341,0,1,,,,0,,,53,50
789163,note_on,,,,,342,0,1,,,,0,,,56,50
789248,note_off,,,,,85,0,1,,,,0,,,74,0
789248,set_tempo,,,,,768,1,0,,375000,,,,,,
789248,note_on,,,,,0,0,1,,,,0,,,89,68
789248,note_off,,,,,0,0,1,,,,0,,,86,0
789248,note_on,,,,,0,0,1,,,,0,,,77,54
789504,note_off,,,,,0,0,1,,,,0,,,77,0
789504,note_off,,,,,0,0,1,,,,0,,,89,0
789504,note_on,,,,,0,0,1,,,,0,,,54,53
789504,note_on,,,,,0,0,1,,,,0,,,51,44
789504,note_on,,,,,0,0,1,,,,0,,,87,66
789504,note_on,,,,,0,0,1,,,,0,,,75,54
789504,control_change,,,,,0,0,1,,,,0,64,0,,
789504,note_off,,,,,0,0,1,,,,0,,,53,0
789504,control_change,,,,,256,0,1,,,,0,64,0,,
789504,note_off,,,,,0,0,1,,,,0,,,46,0
789504,note_off,,,,,0,0,1,,,,0,,,56,0
790528,note_off,,,,,0,0,1,,,,0,,,87,0
790528,note_off,,,,,0,0,1,,,,0,,,51,0
790528,note_off,,,,,0,0,1,,,,0,,,54,0
790528,note_off,,,,,1024,0,1,,,,0,,,75,0
791552,set_tempo,,,,,2304,1,0,,375000,,,,,,
791552,control_change,,,,,1024,0,1,,,,0,64,0,,
791552,control_change,,,,,0,0,1,,,,0,64,0,,
791552,note_on,,,,,0,0,1,,,,0,,,70,44
791552,note_on,,,,,0,0,1,,,,0,,,39,32
791856,control_change,,,,,304,0,1,,,,0,64,127,,
791883,control_change,,,,,27,0,1,,,,0,64,127,,
791883,control_change,,,,,0,0,1,,,,0,64,127,,
791893,set_tempo,,,,,341,1,0,,333333,,,,,,
791893,note_on,,,,,10,0,1,,,,0,,,66,43
791893,note_on,,,,,0,0,1,,,,0,,,46,31
792235,note_off,,,,,342,0,1,,,,0,,,66,0
792235,note_off,,,,,0,0,1,,,,0,,,70,0
792235,note_off,,,,,0,0,1,,,,0,,,39,0
792235,note_off,,,,,0,0,1,,,,0,,,46,0
792235,note_on,,,,,0,0,1,,,,0,,,58,42
792235,note_on,,,,,0,0,1,,,,0,,,51,30
792576,note_off,,,,,0,0,1,,,,0,,,51,0
792576,note_on,,,,,0,0,1,,,,0,,,39,39
792576,note_off,,,,,341,0,1,,,,0,,,58,0
792576,note_on,,,,,0,0,1,,,,0,,,70,51
792917,note_off,,,,,341,0,1,,,,0,,,70,0
792917,note_on,,,,,0,0,1,,,,0,,,66,50
792917,note_on,,,,,0,0,1,,,,0,,,46,38
792917,note_off,,,,,0,0,1,,,,0,,,39,0
793259,note_off,,,,,342,0,1,,,,0,,,66,0
793259,note_on,,,,,0,0,1,,,,0,,,58,48
793259,note_off,,,,,0,0,1,,,,0,,,46,0
793259,note_on,,,,,0,0,1,,,,0,,,51,36
793600,note_on,,,,,0,0,1,,,,0,,,39,45
793600,note_off,,,,,0,0,1,,,,0,,,51,0
793600,note_off,,,,,0,0,1,,,,0,,,58,0
793600,control_change,,,,,0,0,1,,,,0,64,127,,
793600,control_change,,,,,341,0,1,,,,0,64,127,,
793600,note_on,,,,,0,0,1,,,,0,,,70,57
793941,note_off,,,,,341,0,1,,,,0,,,70,0
793941,note_on,,,,,0,0,1,,,,0,,,66,57
793941,note_on,,,,,0,0,1,,,,0,,,46,45
793941,note_off,,,,,0,0,1,,,,0,,,39,0
794283,note_off,,,,,342,0,1,,,,0,,,66,0
794283,note_on,,,,,0,0,1,,,,0,,,58,53
794283,note_on,,,,,0,0,1,,,,0,,,51,41
794283,note_off,,,,,0,0,1,,,,0,,,46,0
794624,note_on,,,,,0,0,1,,,,0,,,70,65
794624,note_on,,,,,0,0,1,,,,0,,,39,53
794624,note_off,,,,,0,0,1,,,,0,,,51,0
794624,note_off,,,,,341,0,1,,,,0,,,58,0
794965,note_off,,,,,341,0,1,,,,0,,,70,0
794965,note_on,,,,,0,0,1,,,,0,,,66,63
794965,note_off,,,,,0,0,1,,,,0,,,39,0
794965,note_on,,,,,0,0,1,,,,0,,,46,51
795307,note_off,,,,,342,0,1,,,,0,,,66,0
795307,note_on,,,,,0,0,1,,,,0,,,58,61
795307,note_on,,,,,0,0,1,,,,0,,,51,49
795307,note_off,,,,,0,0,1,,,,0,,,46,0
795307,set_tempo,,,,,3414,1,0,,600000,,,,,,
795510,control_change,,,,,0,0,1,,,,0,64,0,,
795510,control_change,,,,,203,0,1,,,,0,64,0,,
795568,note_off,,,,,0,0,1,,,,0,,,51,0
795568,note_off,,,,,58,0,1,,,,0,,,58,0
795648,note_on,,,,,0,0,1,,,,0,,,61,64
795648,note_on,,,,,0,0,1,,,,0,,,46,80
795648,note_on,,,,,0,0,1,,,,0,,,42,64
795648,note_on,,,,,0,0,1,,,,0,,,34,64
795648,note_on,,,,,0,0,1,,,,0,,,73,80
795648,note_on,,,,,0,0,1,,,,0,,,66,64
795648,control_change,,,,,0,0,1,,,,0,64,0,,
795648,control_change,,,,,0,0,1,,,,0,64,0,,
795648,control_change,,,,,80,0,1,,,,0,64,0,,
795648,set_tempo,,,,,341,1,0,,333333,,,,,,
796160,control_change,,,,,0,0,1,,,,0,64,127,,
796160,control_change,,,,,512,0,1,,,,0,64,127,,
797696,control_change,,,,,1536,0,1,,,,0,64,0,,
797696,control_change,,,,,0,0,1,,,,0,64,0,,
798720,note_on,,,,,0,0,1,,,,0,,,71,60
798720,note_off,,,,,0,0,1,,,,0,,,66,0
798720,note_off,,,,,1024,0,1,,,,0,,,61,0
798720,set_tempo,,,,,3072,1,0,,375000,,,,,,
798720,note_off,,,,,0,0,1,,,,0,,,73,0
799232,note_on,,,,,512,0,1,,,,0,,,70,55
799272,note_off,,,,,40,0,1,,,,0,,,71,0
799664,note_off,,,,,392,0,1,,,,0,,,70,0
799744,control_change,,,,,80,0,1,,,,0,64,0,,
799744,control_change,,,,,0,0,1,,,,0,64,0,,
799744,control_change,,,,,0,0,1,,,,0,64,0,,
799744,note_off,,,,,0,0,1,,,,0,,,34,0
799744,note_off,,,,,0,0,1,,,,0,,,42,0
799744,note_off,,,,,0,0,1,,,,0,,,46,0
799744,note_on,,,,,0,0,1,,,,0,,,68,44
799744,note_on,,,,,0,0,1,,,,0,,,37,32
799744,set_tempo,,,,,1024,1,0,,375000,,,,,,
799744,control_change,,,,,0,0,1,,,,0,64,0,,
800048,control_change,,,,,304,0,1,,,,0,64,127,,
800085,note_on,,,,,0,0,1,,,,0,,,44,31
800085,set_tempo,,,,,341,1,0,,333333,,,,,,
800085,note_on,,,,,37,0,1,,,,0,,,65,43
800427,note_off,,,,,0,0,1,,,,0,,,68,0
800427,note_off,,,,,342,0,1,,,,0,,,65,0
800427,note_off,,,,,0,0,1,,,,0,,,37,0
800427,note_off,,,,,0,0,1,,,,0,,,44,0
800427,note_on,,,,,0,0,1,,,,0,,,61,42
800427,note_on,,,,,0,0,1,,,,0,,,49,30
800768,note_off,,,,,341,0,1,,,,0,,,61,0
800768,note_on,,,,,0,0,1,,,,0,,,68,51
800768,note_on,,,,,0,0,1,,,,0,,,37,39
800768,note_off,,,,,0,0,1,,,,0,,,49,0
801109,note_off,,,,,341,0,1,,,,0,,,68,0
801109,note_on,,,,,0,0,1,,,,0,,,65,50
801109,note_on,,,,,0,0,1,,,,0,,,44,38
801109,note_off,,,,,0,0,1,,,,0,,,37,0
801451,note_off,,,,,0,0,1,,,,0,,,44,0
801451,note_off,,,,,342,0,1,,,,0,,,65,0
801451,note_on,,,,,0,0,1,,,,0,,,49,36
801451,note_on,,,,,0,0,1,,,,0,,,61,48
801792,note_on,,,,,0,0,1,,,,0,,,37,45
801792,note_on,,,,,0,0,1,,,,0,,,68,57
801792,note_off,,,,,0,0,1,,,,0,,,49,0
801792,note_off,,,,,0,0,1,,,,0,,,61,0
801792,control_change,,,,,0,0,1,,,,0,64,127,,
801792,control_change,,,,,341,0,1,,,,0,64,127,,
802133,note_off,,,,,0,0,1,,,,0,,,37,0
802133,note_on,,,,,0,0,1,,,,0,,,44,45
802133,note_on,,,,,0,0,1,,,,0,,,65,57
802133,note_off,,,,,341,0,1,,,,0,,,68,0
802475,note_on,,,,,0,0,1,,,,0,,,49,41
802475,note_on,,,,,0,0,1,,,,0,,,61,53
802475,note_off,,,,,342,0,1,,,,0,,,65,0
802475,note_off,,,,,0,0,1,,,,0,,,44,0
802816,note_off,,,,,0,0,1,,,,0,,,49,0
802816,note_on,,,,,0,0,1,,,,0,,,37,53
802816,note_on,,,,,0,0,1,,,,0,,,68,65
802816,note_off,,,,,341,0,1,,,,0,,,61,0
803157,note_off,,,,,0,0,1,,,,0,,,37,0
803157,note_on,,,,,0,0,1,,,,0,,,44,51
803157,note_on,,,,,0,0,1,,,,0,,,65,63
803157,note_off,,,,,341,0,1,,,,0,,,68,0
803499,set_tempo,,,,,3414,1,0,,600000,,,,,,
803499,note_off,,,,,0,0,1,,,,0,,,44,0
803499,note_on,,,,,0,0,1,,,,0,,,49,49
803499,note_on,,,,,0,0,1,,,,0,,,61,61
803499,note_off,,,,,342,0,1,,,,0,,,65,0
803702,control_change,,,,,203,0,1,,,,0,64,0,,
803702,control_change,,,,,0,0,1,,,,0,64,0,,
803760,note_off,,,,,0,0,1,,,,0,,,49,0
803760,note_off,,,,,58,0,1,,,,0,,,61,0
803840,control_change,,,,,0,0,1,,,,0,64,0,,
803840,control_change,,,,,0,0,1,,,,0,64,0,,
803840,control_change,,,,,0,0,1,,,,0,64,0,,
803840,control_change,,,,,0,0,1,,,,0,64,0,,
803840,control_change,,,,,0,0,1,,,,0,64,0,,
803840,note_on,,,,,0,0,1,,,,0,,,59,64
803840,note_on,,,,,0,0,1,,,,0,,,63,64
803840,note_on,,,,,0,0,1,,,,0,,,68,64
803840,note_on,,,,,0,0,1,,,,0,,,71,78
803840,note_on,,,,,0,0,1,,,,0,,,39,64
803840,note_on,,,,,0,0,1,,,,0,,,44,80
803840,note_on,,,,,0,0,1,,,,0,,,32,64
803840,control_change,,,,,80,0,1,,,,0,64,0,,
803840,set_tempo,,,,,341,1,0,,333333,,,,,,
804352,control_change,,,,,0,0,1,,,,0,64,127,,
804352,control_change,,,,,512,0,1,,,,0,64,127,,
805888,control_change,,,,,1536,0,1,,,,0,64,0,,
805888,control_change,,,,,0,0,1,,,,0,64,0,,
806912,note_on,,,,,0,0,1,,,,0,,,70,60
806912,note_off,,,,,0,0,1,,,,0,,,71,0
806912,note_off,,,,,0,0,1,,,,0,,,68,0
806912,note_off,,,,,0,0,1,,,,0,,,63,0
806912,note_off,,,,,1024,0,1,,,,0,,,59,0
806912,set_tempo,,,,,3072,1,0,,375000,,,,,,
807424,note_on,,,,,0,0,1,,,,0,,,68,55
807424,note_off,,,,,512,0,1,,,,0,,,70,0
807936,note_off,,,,,0,0,1,,,,0,,,44,0
807936,note_off,,,,,0,0,1,,,,0,,,68,0
807936,control_change,,,,,0,0,1,,,,0,64,0,,
807936,control_change,,,,,0,0,1,,,,0,64,0,,
807936,control_change,,,,,0,0,1,,,,0,64,0,,
807936,control_change,,,,,0,0,1,,,,0,64,0,,
807936,control_change,,,,,0,0,1,,,,0,64,0,,
807936,control_change,,,,,512,0,1,,,,0,64,0,,
807936,note_off,,,,,0,0,1,,,,0,,,32,0
807936,note_on,,,,,0,0,1,,,,0,,,66,49
807936,note_on,,,,,0,0,1,,,,0,,,39,32
807936,set_tempo,,,,,1024,1,0,,375000,,,,,,
807936,note_off,,,,,0,0,1,,,,0,,,39,0
808240,control_change,,,,,304,0,1,,,,0,64,127,,
808277,set_tempo,,,,,341,1,0,,333333,,,,,,
808277,note_on,,,,,37,0,1,,,,0,,,63,43
808277,note_on,,,,,0,0,1,,,,0,,,46,31
808619,note_on,,,,,0,0,1,,,,0,,,58,42
808619,note_off,,,,,342,0,1,,,,0,,,63,0
808619,note_off,,,,,0,0,1,,,,0,,,46,0
808619,note_on,,,,,0,0,1,,,,0,,,51,30
808619,note_off,,,,,0,0,1,,,,0,,,39,0
808960,note_on,,,,,0,0,1,,,,0,,,39,39
808960,note_on,,,,,0,0,1,,,,0,,,66,51
808960,note_off,,,,,0,0,1,,,,0,,,51,0
808960,note_off,,,,,0,0,1,,,,0,,,66,0
808960,note_off,,,,,341,0,1,,,,0,,,58,0
809301,note_off,,,,,0,0,1,,,,0,,,39,0
809301,note_off,,,,,341,0,1,,,,0,,,66,0
809301,note_on,,,,,0,0,1,,,,0,,,63,50
809301,note_on,,,,,0,0,1,,,,0,,,46,38
809643,note_off,,,,,0,0,1,,,,0,,,46,0
809643,note_on,,,,,0,0,1,,,,0,,,51,36
809643,note_on,,,,,0,0,1,,,,0,,,58,48
809643,note_off,,,,,342,0,1,,,,0,,,63,0
809984,note_on,,,,,0,0,1,,,,0,,,66,57
809984,note_off,,,,,0,0,1,,,,0,,,58,0
809984,control_change,,,,,0,0,1,,,,0,64,127,,
809984,control_change,,,,,341,0,1,,,,0,64,127,,
809984,note_off,,,,,0,0,1,,,,0,,,51,0
809984,note_on,,,,,0,0,1,,,,0,,,39,45
810325,note_on,,,,,0,0,1,,,,0,,,46,45
810325,note_off,,,,,341,0,1,,,,0,,,66,0
810325,note_on,,,,,0,0,1,,,,0,,,63,57
810325,note_off,,,,,0,0,1,,,,0,,,39,0
810667,note_off,,,,,0,0,1,,,,0,,,46,0
810667,note_on,,,,,0,0,1,,,,0,,,51,41
810667,note_on,,,,,0,0,1,,,,0,,,58,53
810667,note_off,,,,,342,0,1,,,,0,,,63,0
811008,note_off,,,,,0,0,1,,,,0,,,51,0
811008,note_on,,,,,0,0,1,,,,0,,,39,53
811008,note_on,,,,,0,0,1,,,,0,,,66,65
811008,note_off,,,,,341,0,1,,,,0,,,58,0
811349,note_off,,,,,341,0,1,,,,0,,,66,0
811349,note_on,,,,,0,0,1,,,,0,,,46,51
811349,note_off,,,,,0,0,1,,,,0,,,39,0
811349,note_on,,,,,0,0,1,,,,0,,,63,63
811691,note_off,,,,,342,0,1,,,,0,,,63,0
811691,note_on,,,,,0,0,1,,,,0,,,58,61
811691,note_on,,,,,0,0,1,,,,0,,,51,49
811691,note_off,,,,,0,0,1,,,,0,,,46,0
811691,set_tempo,,,,,3414,1,0,,600000,,,,,,
811894,control_change,,,,,203,0,1,,,,0,64,0,,
811894,control_change,,,,,0,0,1,,,,0,64,0,,
811952,note_off,,,,,0,0,1,,,,0,,,51,0
811952,note_off,,,,,58,0,1,,,,0,,,58,0
812032,note_on,,,,,0,0,1,,,,0,,,42,56
812032,note_on,,,,,0,0,1,,,,0,,,54,72
812032,note_on,,,,,0,0,1,,,,0,,,51,56
812032,note_on,,,,,0,0,1,,,,0,,,70,76
812032,note_on,,,,,0,0,1,,,,0,,,63,64
812032,note_on,,,,,0,0,1,,,,0,,,58,64
812032,control_change,,,,,0,0,1,,,,0,64,0,,
812032,control_change,,,,,0,0,1,,,,0,64,0,,
812032,control_change,,,,,0,0,1,,,,0,64,0,,
812032,control_change,,,,,0,0,1,,,,0,64,0,,
812032,control_change,,,,,0,0,1,,,,0,64,0,,
812032,control_change,,,,,0,0,1,,,,0,64,0,,
812032,control_change,,,,,80,0,1,,,,0,64,0,,
812032,set_tempo,,,,,341,1,0,,333333,,,,,,
812032,control_change,,,,,0,0,1,,,,0,64,0,,
812544,control_change,,,,,0,0,1,,,,0,64,127,,
812544,control_change,,,,,512,0,1,,,,0,64,127,,
814080,control_change,,,,,0,0,1,,,,0,64,0,,
814080,control_change,,,,,0,0,1,,,,0,64,0,,
814080,control_change,,,,,0,0,1,,,,0,64,0,,
814080,control_change,,,,,1536,0,1,,,,0,64,0,,
815104,note_off,,,,,1024,0,1,,,,0,,,58,0
815104,note_on,,,,,0,0,1,,,,0,,,39,35
815104,note_off,,,,,0,0,1,,,,0,,,42,0
815104,note_on,,,,,0,0,1,,,,0,,,68,54
815104,note_off,,,,,0,0,1,,,,0,,,54,0
815104,set_tempo,,,,,3072,1,0,,375000,,,,,,
815104,note_off,,,,,0,0,1,,,,0,,,63,0
815104,note_off,,,,,0,0,1,,,,0,,,51,0
815104,note_on,,,,,0,0,1,,,,0,,,51,44
815104,note_off,,,,,0,0,1,,,,0,,,70,0
815616,note_on,,,,,0,0,1,,,,0,,,66,50
815616,note_off,,,,,512,0,1,,,,0,,,68,0
816128,control_change,,,,,512,0,1,,,,0,64,0,,
816128,control_change,,,,,0,0,1,,,,0,64,0,,
816128,note_off,,,,,0,0,1,,,,0,,,66,0
816128,note_off,,,,,0,0,1,,,,0,,,51,0
816128,note_on,,,,,0,0,1,,,,0,,,34,35
816128,note_on,,,,,0,0,1,,,,0,,,65,44
816128,note_off,,,,,0,0,1,,,,0,,,39,0
816288,control_change,,,,,160,0,1,,,,0,64,127,,
816469,set_tempo,,,,,1365,1,0,,333333,,,,,,
816469,note_off,,,,,181,0,1,,,,0,,,65,0
816469,note_on,,,,,0,0,1,,,,0,,,62,41
816640,note_off,,,,,171,0,1,,,,0,,,34,0
816640,note_on,,,,,0,0,1,,,,0,,,46,35
816811,note_off,,,,,171,0,1,,,,0,,,62,0
816811,note_on,,,,,0,0,1,,,,0,,,58,37
817032,control_change,,,,,221,0,1,,,,0,64,0,,
817139,control_change,,,,,107,0,1,,,,0,64,0,,
817152,set_tempo,,,,,683,1,0,,428571,,,,,,
817152,note_off,,,,,0,0,1,,,,0,,,46,0
817152,note_on,,,,,0,0,1,,,,0,,,66,53
817152,note_off,,,,,13,0,1,,,,0,,,58,0
817152,note_on,,,,,0,0,1,,,,0,,,33,44
817325,control_change,,,,,173,0,1,,,,0,64,127,,
817493,set_tempo,,,,,341,1,0,,333333,,,,,,
817493,note_off,,,,,168,0,1,,,,0,,,66,0
817493,note_on,,,,,0,0,1,,,,0,,,63,43
817664,note_off,,,,,171,0,1,,,,0,,,33,0
817664,note_on,,,,,0,0,1,,,,0,,,45,35
817835,note_on,,,,,0,0,1,,,,0,,,58,38
817835,note_off,,,,,171,0,1,,,,0,,,63,0
818176,note_on,,,,,0,0,1,,,,0,,,34,35
818176,control_change,,,,,341,0,1,,,,0,64,0,,
818176,control_change,,,,,0,0,1,,,,0,64,127,,
818176,note_off,,,,,0,0,1,,,,0,,,58,0
818176,note_off,,,,,0,0,1,,,,0,,,45,0
818176,note_on,,,,,0,0,1,,,,0,,,65,44
818256,control_change,,,,,80,0,1,,,,0,64,0,,
818442,control_change,,,,,186,0,1,,,,0,64,127,,
818517,note_on,,,,,0,0,1,,,,0,,,62,41
818517,note_off,,,,,75,0,1,,,,0,,,65,0
818688,note_off,,,,,171,0,1,,,,0,,,34,0
818688,note_on,,,,,0,0,1,,,,0,,,46,35
818859,note_on,,,,,0,0,1,,,,0,,,58,37
818859,note_off,,,,,171,0,1,,,,0,,,62,0
819080,control_change,,,,,221,0,1,,,,0,64,0,,
819187,control_change,,,,,107,0,1,,,,0,64,0,,
819200,set_tempo,,,,,1707,1,0,,375000,,,,,,
819200,note_on,,,,,0,0,1,,,,0,,,33,44
819200,note_on,,,,,0,0,1,,,,0,,,66,53
819200,note_off,,,,,0,0,1,,,,0,,,46,0
819200,note_off,,,,,13,0,1,,,,0,,,58,0
819399,control_change,,,,,199,0,1,,,,0,64,127,,
819541,note_off,,,,,142,0,1,,,,0,,,66,0
819541,note_on,,,,,0,0,1,,,,0,,,63,43
819541,set_tempo,,,,,341,1,0,,333333,,,,,,
819712,note_off,,,,,171,0,1,,,,0,,,33,0
819712,note_on,,,,,0,0,1,,,,0,,,45,35
819883,note_off,,,,,171,0,1,,,,0,,,63,0
819883,note_on,,,,,0,0,1,,,,0,,,58,38
820224,note_on,,,,,0,0,1,,,,0,,,65,46
820224,note_on,,,,,0,0,1,,,,0,,,34,35
820224,note_off,,,,,0,0,1,,,,0,,,45,0
820224,note_off,,,,,0,0,1,,,,0,,,58,0
820224,control_change,,,,,0,0,1,,,,0,64,127,,
820224,control_change,,,,,341,0,1,,,,0,64,0,,
820224,control_change,,,,,0,0,1,,,,0,64,0,,
820304,control_change,,,,,80,0,1,,,,0,64,0,,
820490,control_change,,,,,186,0,1,,,,0,64,127,,
820565,note_off,,,,,75,0,1,,,,0,,,65,0
820565,note_on,,,,,0,0,1,,,,0,,,62,43
820736,note_off,,,,,171,0,1,,,,0,,,34,0
820736,note_on,,,,,0,0,1,,,,0,,,46,34
820907,note_on,,,,,0,0,1,,,,0,,,58,38
820907,note_off,,,,,171,0,1,,,,0,,,62,0
821235,control_change,,,,,328,0,1,,,,0,64,0,,
821248,note_off,,,,,13,0,1,,,,0,,,58,0
821248,note_on,,,,,0,0,1,,,,0,,,65,44
821248,note_on,,,,,0,0,1,,,,0,,,44,35
821248,note_off,,,,,0,0,1,,,,0,,,46,0
821447,control_change,,,,,199,0,1,,,,0,64,127,,
821589,note_off,,,,,142,0,1,,,,0,,,65,0
821589,note_on,,,,,0,0,1,,,,0,,,62,41
821760,note_on,,,,,171,0,1,,,,0,,,46,25
821931,note_on,,,,,0,0,1,,,,0,,,58,36
821931,note_off,,,,,171,0,1,,,,0,,,62,0
822272,control_change,,,,,341,0,1,,,,0,64,0,,
822272,control_change,,,,,0,0,1,,,,0,64,127,,
822272,control_change,,,,,0,0,1,,,,0,64,0,,
822272,note_off,,,,,0,0,1,,,,0,,,58,0
822272,note_off,,,,,0,0,1,,,,0,,,44,0
822272,note_off,,,,,0,0,1,,,,0,,,46,0
822272,note_on,,,,,0,0,1,,,,0,,,66,42
822272,note_on,,,,,0,0,1,,,,0,,,42,33
822352,control_change,,,,,80,0,1,,,,0,64,0,,
822538,control_change,,,,,186,0,1,,,,0,64,127,,
822613,note_off,,,,,75,0,1,,,,0,,,66,0
822613,note_on,,,,,0,0,1,,,,0,,,63,39
822784,note_on,,,,,171,0,1,,,,0,,,46,23
822955,note_off,,,,,171,0,1,,,,0,,,63,0
822955,note_on,,,,,0,0,1,,,,0,,,58,34
823283,control_change,,,,,328,0,1,,,,0,64,0,,
823296,note_off,,,,,0,0,1,,,,0,,,46,0
823296,note_off,,,,,0,0,1,,,,0,,,42,0
823296,set_tempo,,,,,3755,1,0,,375000,,,,,,
823296,note_on,,,,,0,0,1,,,,0,,,41,30
823296,note_off,,,,,13,0,1,,,,0,,,58,0
823296,note_on,,,,,0,0,1,,,,0,,,68,40
823495,control_change,,,,,199,0,1,,,,0,64,127,,
823637,note_off,,,,,142,0,1,,,,0,,,68,0
823637,note_on,,,,,0,0,1,,,,0,,,65,37
823808,note_on,,,,,171,0,1,,,,0,,,46,20
823979,note_off,,,,,171,0,1,,,,0,,,65,0
823979,note_on,,,,,0,0,1,,,,0,,,58,33
824320,note_off,,,,,0,0,1,,,,0,,,46,0
824320,note_on,,,,,0,0,1,,,,0,,,39,24
824320,note_on,,,,,0,0,1,,,,0,,,70,38
824320,note_off,,,,,0,0,1,,,,0,,,41,0
824320,set_tempo,,,,,1024,1,0,,428571,,,,,,
824320,control_change,,,,,0,0,1,,,,0,64,0,,
824320,control_change,,,,,0,0,1,,,,0,64,0,,
824320,control_change,,,,,0,0,1,,,,0,64,0,,
824320,control_change,,,,,341,0,1,,,,0,64,0,,
824320,note_off,,,,,0,0,1,,,,0,,,58,0
824624,control_change,,,,,304,0,1,,,,0,64,127,,
824661,note_off,,,,,0,0,1,,,,0,,,39,0
824661,set_tempo,,,,,341,1,0,,333333,,,,,,
824661,note_on,,,,,0,0,1,,,,0,,,66,35
824661,note_on,,,,,0,0,1,,,,0,,,46,21
824661,note_off,,,,,37,0,1,,,,0,,,70,0
825003,note_on,,,,,0,0,1,,,,0,,,51,17
825003,note_off,,,,,0,0,1,,,,0,,,46,0
825003,note_off,,,,,342,0,1,,,,0,,,66,0
825003,note_on,,,,,0,0,1,,,,0,,,58,31
825344,note_off,,,,,341,0,1,,,,0,,,58,0
825344,note_on,,,,,0,0,1,,,,0,,,70,37
825344,note_on,,,,,0,0,1,,,,0,,,39,23
825344,note_off,,,,,0,0,1,,,,0,,,51,0
825685,note_off,,,,,0,0,1,,,,0,,,39,0
825685,note_on,,,,,0,0,1,,,,0,,,46,19
825685,note_off,,,,,341,0,1,,,,0,,,70,0
825685,note_on,,,,,0,0,1,,,,0,,,66,33
826027,note_off,,,,,342,0,1,,,,0,,,66,0
826027,note_on,,,,,0,0,1,,,,0,,,58,30
826027,note_on,,,,,0,0,1,,,,0,,,51,16
826027,note_off,,,,,0,0,1,,,,0,,,46,0
826368,note_on,,,,,0,0,1,,,,0,,,39,26
826368,note_on,,,,,0,0,1,,,,0,,,70,40
826368,note_off,,,,,0,0,1,,,,0,,,58,0
826368,control_change,,,,,0,0,1,,,,0,64,127,,
826368,note_off,,,,,0,0,1,,,,0,,,51,0
826368,control_change,,,,,341,0,1,,,,0,64,127,,
826709,note_off,,,,,341,0,1,,,,0,,,70,0
826709,note_on,,,,,0,0,1,,,,0,,,66,35
826709,note_on,,,,,0,0,1,,,,0,,,46,21
826709,note_off,,,,,0,0,1,,,,0,,,39,0
827051,note_off,,,,,342,0,1,,,,0,,,66,0
827051,note_on,,,,,0,0,1,,,,0,,,58,31
827051,note_on,,,,,0,0,1,,,,0,,,51,17
827051,note_off,,,,,0,0,1,,,,0,,,46,0
827392,note_on,,,,,0,0,1,,,,0,,,70,38
827392,note_on,,,,,0,0,1,,,,0,,,39,24
827392,note_off,,,,,0,0,1,,,,0,,,51,0
827392,note_off,,,,,341,0,1,,,,0,,,58,0
827733,note_on,,,,,0,0,1,,,,0,,,66,34
827733,note_off,,,,,0,0,1,,,,0,,,39,0
827733,note_on,,,,,0,0,1,,,,0,,,46,20
827733,note_off,,,,,341,0,1,,,,0,,,70,0
828075,note_off,,,,,0,0,1,,,,0,,,46,0
828075,note_on,,,,,0,0,1,,,,0,,,51,15
828075,note_on,,,,,0,0,1,,,,0,,,58,29
828075,note_off,,,,,342,0,1,,,,0,,,66,0
828205,control_change,,,,,130,0,1,,,,0,64,0,,
828278,control_change,,,,,73,0,1,,,,0,64,0,,
828416,set_tempo,,,,,3755,1,0,,375000,,,,,,
828416,note_off,,,,,0,0,1,,,,0,,,51,0
828416,note_on,,,,,0,0,1,,,,0,,,61,32
828416,note_on,,,,,0,0,1,,,,0,,,66,32
828416,note_on,,,,,0,0,1,,,,0,,,73,47
828416,note_on,,,,,0,0,1,,,,0,,,34,30
828416,note_on,,,,,0,0,1,,,,0,,,46,42
828416,note_off,,,,,0,0,1,,,,0,,,58,0
828416,control_change,,,,,0,0,1,,,,0,64,0,,
828416,control_change,,,,,138,0,1,,,,0,64,0,,
828678,note_off,,,,,0,0,1,,,,0,,,66,0
828678,note_off,,,,,0,0,1,,,,0,,,46,0
828678,note_off,,,,,0,0,1,,,,0,,,34,0
828678,note_off,,,,,0,0,1,,,,0,,,73,0
828678,note_off,,,,,262,0,1,,,,0,,,61,0
828928,note_on,,,,,0,0,1,,,,0,,,73,44
828928,note_on,,,,,0,0,1,,,,0,,,66,29
828928,note_on,,,,,250,0,1,,,,0,,,61,29
828928,note_on,,,,,0,0,1,,,,0,,,54,37
828928,set_tempo,,,,,512,1,0,,352941,,,,,,
828928,note_on,,,,,0,0,1,,,,0,,,46,25
828928,note_on,,,,,0,0,1,,,,0,,,49,25
829190,note_off,,,,,0,0,1,,,,0,,,54,0
829190,note_off,,,,,0,0,1,,,,0,,,49,0
829190,note_off,,,,,0,0,1,,,,0,,,46,0
829190,note_off,,,,,0,0,1,,,,0,,,73,0
829190,note_off,,,,,0,0,1,,,,0,,,66,0
829190,note_off,,,,,262,0,1,,,,0,,,61,0
829440,note_on,,,,,0,0,1,,,,0,,,73,42
829440,note_on,,,,,0,0,1,,,,0,,,54,37
829440,note_on,,,,,0,0,1,,,,0,,,49,25
829440,note_on,,,,,250,0,1,,,,0,,,61,27
829440,note_on,,,,,0,0,1,,,,0,,,66,27
829440,note_on,,,,,0,0,1,,,,0,,,46,25
829702,note_off,,,,,0,0,1,,,,0,,,73,0
829702,note_off,,,,,0,0,1,,,,0,,,66,0
829702,note_off,,,,,262,0,1,,,,0,,,61,0
829702,note_off,,,,,0,0,1,,,,0,,,46,0
829702,note_off,,,,,0,0,1,,,,0,,,54,0
829702,note_off,,,,,0,0,1,,,,0,,,49,0
829952,note_on,,,,,250,0,1,,,,0,,,61,24
829952,note_on,,,,,0,0,1,,,,0,,,73,39
829952,note_on,,,,,0,0,1,,,,0,,,46,25
829952,note_on,,,,,0,0,1,,,,0,,,49,25
829952,note_on,,,,,0,0,1,,,,0,,,54,37
829952,note_on,,,,,0,0,1,,,,0,,,66,24
829952,set_tempo,,,,,1024,1,0,,461538,,,,,,
830214,note_off,,,,,262,0,1,,,,0,,,61,0
830214,note_off,,,,,0,0,1,,,,0,,,66,0
830214,note_off,,,,,0,0,1,,,,0,,,73,0
830214,note_off,,,,,0,0,1,,,,0,,,46,0
830214,note_off,,,,,0,0,1,,,,0,,,49,0
830214,note_off,,,,,0,0,1,,,,0,,,54,0
830464,note_on,,,,,0,0,1,,,,0,,,61,27
830464,note_on,,,,,0,0,1,,,,0,,,66,27
830464,note_on,,,,,0,0,1,,,,0,,,73,42
830464,note_on,,,,,0,0,1,,,,0,,,46,13
830464,note_on,,,,,0,0,1,,,,0,,,49,13
830464,control_change,,,,,0,0,1,,,,0,64,0,,
830464,note_on,,,,,0,0,1,,,,0,,,54,25
830464,set_tempo,,,,,512,1,0,,428571,,,,,,
830464,control_change,,,,,250,0,1,,,,0,64,0,,
831488,note_off,,,,,0,0,1,,,,0,,,73,0
831488,note_on,,,,,0,0,1,,,,0,,,71,40
831488,note_off,,,,,0,0,1,,,,0,,,54,0
831488,note_off,,,,,0,0,1,,,,0,,,49,0
831488,note_off,,,,,0,0,1,,,,0,,,66,0
831488,note_off,,,,,0,0,1,,,,0,,,46,0
831488,note_off,,,,,1024,0,1,,,,0,,,61,0
831488,set_tempo,,,,,1024,1,0,,375000,,,,,,
832000,note_on,,,,,512,0,1,,,,0,,,70,33
832040,note_off,,,,,40,0,1,,,,0,,,71,0
832432,note_off,,,,,392,0,1,,,,0,,,70,0
832512,control_change,,,,,80,0,1,,,,0,64,0,,
832512,note_on,,,,,0,0,1,,,,0,,,68,38
832512,set_tempo,,,,,1024,1,0,,428571,,,,,,
832512,note_on,,,,,0,0,1,,,,0,,,37,24
832512,control_change,,,,,0,0,1,,,,0,64,0,,
832512,control_change,,,,,0,0,1,,,,0,64,0,,
832512,control_change,,,,,0,0,1,,,,0,64,0,,
832512,control_change,,,,,0,0,1,,,,0,64,0,,
832512,control_change,,,,,0,0,1,,,,0,64,0,,
832816,control_change,,,,,304,0,1,,,,0,64,127,,
832853,note_off,,,,,0,0,1,,,,0,,,37,0
832853,note_on,,,,,0,0,1,,,,0,,,65,35
832853,note_on,,,,,0,0,1,,,,0,,,44,21
832853,set_tempo,,,,,341,1,0,,333333,,,,,,
832853,note_off,,,,,37,0,1,,,,0,,,68,0
833195,note_off,,,,,342,0,1,,,,0,,,65,0
833195,note_on,,,,,0,0,1,,,,0,,,61,31
833195,note_on,,,,,0,0,1,,,,0,,,49,17
833195,note_off,,,,,0,0,1,,,,0,,,44,0
833536,note_off,,,,,341,0,1,,,,0,,,61,0
833536,note_on,,,,,0,0,1,,,,0,,,68,37
833536,note_on,,,,,0,0,1,,,,0,,,37,23
833536,note_off,,,,,0,0,1,,,,0,,,49,0
833877,note_off,,,,,0,0,1,,,,0,,,37,0
833877,note_off,,,,,341,0,1,,,,0,,,68,0
833877,note_on,,,,,0,0,1,,,,0,,,65,33
833877,note_on,,,,,0,0,1,,,,0,,,44,19
834219,note_off,,,,,0,0,1,,,,0,,,44,0
834219,note_on,,,,,0,0,1,,,,0,,,49,16
834219,note_on,,,,,0,0,1,,,,0,,,61,30
834219,note_off,,,,,342,0,1,,,,0,,,65,0
834560,note_on,,,,,0,0,1,,,,0,,,37,26
834560,note_on,,,,,0,0,1,,,,0,,,68,40
834560,note_off,,,,,0,0,1,,,,0,,,61,0
834560,note_off,,,,,0,0,1,,,,0,,,49,0
834560,control_change,,,,,341,0,1,,,,0,64,127,,
834560,control_change,,,,,0,0,1,,,,0,64,127,,
834901,note_off,,,,,341,0,1,,,,0,,,68,0
834901,note_on,,,,,0,0,1,,,,0,,,65,35
834901,note_on,,,,,0,0,1,,,,0,,,44,21
834901,note_off,,,,,0,0,1,,,,0,,,37,0
835243,note_off,,,,,342,0,1,,,,0,,,65,0
835243,note_on,,,,,0,0,1,,,,0,,,61,31
835243,note_on,,,,,0,0,1,,,,0,,,49,17
835243,note_off,,,,,0,0,1,,,,0,,,44,0
835584,note_on,,,,,0,0,1,,,,0,,,37,24
835584,note_on,,,,,0,0,1,,,,0,,,68,38
835584,note_off,,,,,0,0,1,,,,0,,,49,0
835584,note_off,,,,,341,0,1,,,,0,,,61,0
835925,note_off,,,,,341,0,1,,,,0,,,68,0
835925,note_on,,,,,0,0,1,,,,0,,,65,34
835925,note_on,,,,,0,0,1,,,,0,,,44,20
835925,note_off,,,,,0,0,1,,,,0,,,37,0
836267,note_off,,,,,342,0,1,,,,0,,,65,0
836267,note_on,,,,,0,0,1,,,,0,,,61,29
836267,note_on,,,,,0,0,1,,,,0,,,49,15
836267,note_off,,,,,0,0,1,,,,0,,,44,0
836427,control_change,,,,,160,0,1,,,,0,64,0,,
836470,control_change,,,,,43,0,1,,,,0,64,0,,
836608,note_on,,,,,0,0,1,,,,0,,,32,30
836608,note_on,,,,,0,0,1,,,,0,,,59,32
836608,note_on,,,,,0,0,1,,,,0,,,71,51
836608,note_on,,,,,0,0,1,,,,0,,,63,32
836608,note_off,,,,,0,0,1,,,,0,,,49,0
836608,set_tempo,,,,,3755,1,0,,375000,,,,,,
836608,control_change,,,,,0,0,1,,,,0,64,0,,
836608,control_change,,,,,0,0,1,,,,0,64,0,,
836608,control_change,,,,,0,0,1,,,,0,64,0,,
836608,control_change,,,,,138,0,1,,,,0,64,0,,
836608,note_off,,,,,0,0,1,,,,0,,,61,0
836608,note_on,,,,,0,0,1,,,,0,,,44,42
836870,note_off,,,,,262,0,1,,,,0,,,59,0
836870,note_off,,,,,0,0,1,,,,0,,,44,0
836870,note_off,,,,,0,0,1,,,,0,,,32,0
836870,note_off,,,,,0,0,1,,,,0,,,71,0
836870,note_off,,,,,0,0,1,,,,0,,,63,0
837120,note_on,,,,,250,0,1,,,,0,,,59,29
837120,note_on,,,,,0,0,1,,,,0,,,63,29
837120,note_on,,,,,0,0,1,,,,0,,,71,48
837120,note_on,,,,,0,0,1,,,,0,,,44,25
837120,note_on,,,,,0,0,1,,,,0,,,51,25
837120,note_on,,,,,0,0,1,,,,0,,,56,37
837120,set_tempo,,,,,512,1,0,,352941,,,,,,
837382,note_off,,,,,0,0,1,,,,0,,,56,0
837382,note_off,,,,,0,0,1,,,,0,,,44,0
837382,note_off,,,,,0,0,1,,,,0,,,51,0
837382,note_off,,,,,0,0,1,,,,0,,,63,0
837382,note_off,,,,,262,0,1,,,,0,,,59,0
837382,note_off,,,,,0,0,1,,,,0,,,71,0
837632,note_on,,,,,250,0,1,,,,0,,,59,27
837632,note_on,,,,,0,0,1,,,,0,,,63,27
837632,note_on,,,,,0,0,1,,,,0,,,71,46
837632,note_on,,,,,0,0,1,,,,0,,,44,25
837632,note_on,,,,,0,0,1,,,,0,,,51,25
837632,note_on,,,,,0,0,1,,,,0,,,56,37
837894,note_off,,,,,0,0,1,,,,0,,,56,0
837894,note_off,,,,,0,0,1,,,,0,,,51,0
837894,note_off,,,,,0,0,1,,,,0,,,44,0
837894,note_off,,,,,0,0,1,,,,0,,,71,0
837894,note_off,,,,,0,0,1,,,,0,,,63,0
837894,note_off,,,,,262,0,1,,,,0,,,59,0
838144,note_on,,,,,250,0,1,,,,0,,,59,24
838144,note_on,,,,,0,0,1,,,,0,,,63,24
838144,note_on,,,,,0,0,1,,,,0,,,71,43
838144,note_on,,,,,0,0,1,,,,0,,,44,25
838144,note_on,,,,,0,0,1,,,,0,,,51,25
838144,note_on,,,,,0,0,1,,,,0,,,56,37
838144,set_tempo,,,,,1024,1,0,,461538,,,,,,
838406,note_off,,,,,0,0,1,,,,0,,,56,0
838406,note_off,,,,,0,0,1,,,,0,,,51,0
838406,note_off,,,,,0,0,1,,,,0,,,63,0
838406,note_off,,,,,0,0,1,,,,0,,,71,0
838406,note_off,,,,,262,0,1,,,,0,,,59,0
838406,note_off,,,,,0,0,1,,,,0,,,44,0
838656,set_tempo,,,,,512,1,0,,400000,,,,,,
838656,note_on,,,,,0,0,1,,,,0,,,51,13
838656,note_on,,,,,0,0,1,,,,0,,,56,25
838656,note_on,,,,,0,0,1,,,,0,,,44,13
838656,control_change,,,,,0,0,1,,,,0,64,0,,
838656,note_on,,,,,0,0,1,,,,0,,,63,27
838656,note_on,,,,,0,0,1,,,,0,,,59,27
838656,control_change,,,,,0,0,1,,,,0,64,0,,
838656,note_on,,,,,0,0,1,,,,0,,,71,42
838656,control_change,,,,,0,0,1,,,,0,64,0,,
838656,control_change,,,,,250,0,1,,,,0,64,0,,
839680,set_tempo,,,,,1024,1,0,,375000,,,,,,
839680,note_off,,,,,0,0,1,,,,0,,,56,0
839680,note_on,,,,,0,0,1,,,,0,,,70,40
839680,note_off,,,,,0,0,1,,,,0,,,44,0
839680,note_off,,,,,0,0,1,,,,0,,,71,0
839680,note_off,,,,,0,0,1,,,,0,,,63,0
839680,note_off,,,,,1024,0,1,,,,0,,,59,0
839680,note_off,,,,,0,0,1,,,,0,,,51,0
840192,note_on,,,,,512,0,1,,,,0,,,68,33
840232,note_off,,,,,40,0,1,,,,0,,,70,0
840624,note_off,,,,,392,0,1,,,,0,,,68,0
840704,note_on,,,,,0,0,1,,,,0,,,39,24
840704,set_tempo,,,,,1024,1,0,,428571,,,,,,
840704,note_on,,,,,0,0,1,,,,0,,,66,38
840704,control_change,,,,,0,0,1,,,,0,64,0,,
840704,control_change,,,,,0,0,1,,,,0,64,0,,
840704,control_change,,,,,0,0,1,,,,0,64,0,,
840704,control_change,,,,,0,0,1,,,,0,64,0,,
840704,control_change,,,,,0,0,1,,,,0,64,0,,
840704,control_change,,,,,0,0,1,,,,0,64,0,,
840704,control_change,,,,,80,0,1,,,,0,64,0,,
840704,control_change,,,,,0,0,1,,,,0,64,0,,
841008,control_change,,,,,304,0,1,,,,0,64,127,,
841045,note_off,,,,,37,0,1,,,,0,,,66,0
841045,note_on,,,,,0,0,1,,,,0,,,63,35
841045,note_on,,,,,0,0,1,,,,0,,,46,21
841045,note_off,,,,,0,0,1,,,,0,,,39,0
841045,set_tempo,,,,,341,1,0,,333333,,,,,,
841387,note_on,,,,,0,0,1,,,,0,,,51,17
841387,note_off,,,,,0,0,1,,,,0,,,46,0
841387,note_on,,,,,0,0,1,,,,0,,,58,31
841387,note_off,,,,,342,0,1,,,,0,,,63,0
841728,note_off,,,,,0,0,1,,,,0,,,51,0
841728,note_on,,,,,0,0,1,,,,0,,,39,23
841728,note_off,,,,,341,0,1,,,,0,,,58,0
841728,note_on,,,,,0,0,1,,,,0,,,66,37
842069,note_off,,,,,341,0,1,,,,0,,,66,0
842069,note_on,,,,,0,0,1,,,,0,,,63,33
842069,note_on,,,,,0,0,1,,,,0,,,46,19
842069,note_off,,,,,0,0,1,,,,0,,,39,0
842411,note_on,,,,,0,0,1,,,,0,,,51,16
842411,note_off,,,,,0,0,1,,,,0,,,46,0
842411,note_off,,,,,342,0,1,,,,0,,,63,0
842411,note_on,,,,,0,0,1,,,,0,,,58,30
842752,control_change,,,,,341,0,1,,,,0,64,127,,
842752,control_change,,,,,0,0,1,,,,0,64,127,,
842752,note_off,,,,,0,0,1,,,,0,,,58,0
842752,note_off,,,,,0,0,1,,,,0,,,51,0
842752,note_on,,,,,0,0,1,,,,0,,,66,40
842752,note_on,,,,,0,0,1,,,,0,,,39,26
843093,note_off,,,,,0,0,1,,,,0,,,39,0
843093,note_on,,,,,0,0,1,,,,0,,,46,21
843093,note_on,,,,,0,0,1,,,,0,,,63,35
843093,note_off,,,,,341,0,1,,,,0,,,66,0
843435,note_off,,,,,0,0,1,,,,0,,,46,0
843435,note_off,,,,,342,0,1,,,,0,,,63,0
843435,note_on,,,,,0,0,1,,,,0,,,58,31
843435,note_on,,,,,0,0,1,,,,0,,,51,17
843776,note_off,,,,,341,0,1,,,,0,,,58,0
843776,note_on,,,,,0,0,1,,,,0,,,66,38
843776,note_on,,,,,0,0,1,,,,0,,,39,24
843776,note_off,,,,,0,0,1,,,,0,,,51,0
844117,note_off,,,,,341,0,1,,,,0,,,66,0
844117,note_on,,,,,0,0,1,,,,0,,,63,34
844117,note_on,,,,,0,0,1,,,,0,,,46,20
844117,note_off,,,,,0,0,1,,,,0,,,39,0
844459,note_off,,,,,0,0,1,,,,0,,,46,0
844459,note_on,,,,,0,0,1,,,,0,,,51,15
844459,note_on,,,,,0,0,1,,,,0,,,58,29
844459,note_off,,,,,342,0,1,,,,0,,,63,0
844619,control_change,,,,,160,0,1,,,,0,64,0,,
844662,control_change,,,,,43,0,1,,,,0,64,0,,
844800,control_change,,,,,0,0,1,,,,0,64,0,,
844800,control_change,,,,,138,0,1,,,,0,64,0,,
844800,note_on,,,,,0,0,1,,,,0,,,54,30
844800,note_on,,,,,0,0,1,,,,0,,,51,42
844800,note_on,,,,,0,0,1,,,,0,,,42,30
844800,note_on,,,,,0,0,1,,,,0,,,63,32
844800,note_on,,,,,0,0,1,,,,0,,,58,32
844800,note_off,,,,,0,0,1,,,,0,,,51,0
844800,note_off,,,,,0,0,1,,,,0,,,58,0
844800,control_change,,,,,0,0,1,,,,0,64,0,,
844800,control_change,,,,,0,0,1,,,,0,64,0,,
844800,control_change,,,,,0,0,1,,,,0,64,0,,
844800,control_change,,,,,0,0,1,,,,0,64,0,,
844800,note_on,,,,,0,0,1,,,,0,,,70,51
844800,set_tempo,,,,,3755,1,0,,461538,,,,,,
845312,note_on,,,,,0,0,1,,,,0,,,54,37
845312,note_off,,,,,0,0,1,,,,0,,,70,0
845312,note_on,,,,,0,0,1,,,,0,,,63,29
845312,note_on,,,,,0,0,1,,,,0,,,58,29
845312,note_off,,,,,0,0,1,,,,0,,,54,0
845312,note_off,,,,,0,0,1,,,,0,,,51,0
845312,note_off,,,,,0,0,1,,,,0,,,42,0
845312,note_off,,,,,0,0,1,,,,0,,,63,0
845312,note_off,,,,,512,0,1,,,,0,,,58,0
845312,note_on,,,,,0,0,1,,,,0,,,70,48
845312,note_on,,,,,0,0,1,,,,0,,,42,25
845312,note_on,,,,,0,0,1,,,,0,,,51,25
845312,set_tempo,,,,,512,1,0,,352941,,,,,,
845824,note_off,,,,,0,0,1,,,,0,,,70,0
845824,note_on,,,,,0,0,1,,,,0,,,54,37
845824,note_on,,,,,0,0,1,,,,0,,,51,25
845824,note_on,,,,,0,0,1,,,,0,,,42,25
845824,note_on,,,,,0,0,1,,,,0,,,70,46
845824,note_on,,,,,0,0,1,,,,0,,,63,27
845824,note_on,,,,,0,0,1,,,,0,,,58,27
845824,note_off,,,,,0,0,1,,,,0,,,54,0
845824,note_off,,,,,512,0,1,,,,0,,,58,0
845824,note_off,,,,,0,0,1,,,,0,,,63,0
845824,note_off,,,,,0,0,1,,,,0,,,51,0
845824,note_off,,,,,0,0,1,,,,0,,,42,0
846336,set_tempo,,,,,1024,1,0,,461538,,,,,,
846336,note_off,,,,,0,0,1,,,,0,,,51,0
846336,note_on,,,,,0,0,1,,,,0,,,58,28
846336,note_on,,,,,0,0,1,,,,0,,,63,28
846336,note_on,,,,,0,0,1,,,,0,,,70,47
846336,note_on,,,,,0,0,1,,,,0,,,42,25
846336,note_on,,,,,0,0,1,,,,0,,,51,25
846336,note_on,,,,,0,0,1,,,,0,,,54,37
846336,note_off,,,,,0,0,1,,,,0,,,42,0
846336,note_off,,,,,0,0,1,,,,0,,,70,0
846336,note_off,,,,,0,0,1,,,,0,,,54,0
846336,note_off,,,,,512,0,1,,,,0,,,58,0
846336,note_off,,,,,0,0,1,,,,0,,,63,0
846848,note_on,,,,,0,0,1,,,,0,,,54,25
846848,note_on,,,,,0,0,1,,,,0,,,51,13
846848,note_on,,,,,0,0,1,,,,0,,,42,13
846848,note_on,,,,,0,0,1,,,,0,,,70,47
846848,note_on,,,,,0,0,1,,,,0,,,63,32
846848,note_on,,,,,0,0,1,,,,0,,,58,32
846848,note_off,,,,,0,0,1,,,,0,,,54,0
846848,note_off,,,,,0,0,1,,,,0,,,51,0
846848,note_off,,,,,0,0,1,,,,0,,,42,0
846848,note_off,,,,,0,0,1,,,,0,,,70,0
846848,note_off,,,,,0,0,1,,,,0,,,63,0
846848,note_off,,,,,0,0,1,,,,0,,,58,0
846848,control_change,,,,,0,0,1,,,,0,64,0,,
846848,control_change,,,,,0,0,1,,,,0,64,0,,
846848,control_change,,,,,0,0,1,,,,0,64,0,,
846848,control_change,,,,,0,0,1,,,,0,64,0,,
846848,control_change,,,,,512,0,1,,,,0,64,0,,
846848,set_tempo,,,,,512,1,0,,428571,,,,,,
846848,control_change,,,,,0,0,1,,,,0,64,0,,
847872,note_on,,,,,0,0,1,,,,0,,,51,24
847872,note_on,,,,,0,0,1,,,,0,,,39,17
847872,note_on,,,,,0,0,1,,,,0,,,68,40
847872,note_on,,,,,0,0,1,,,,0,,,63,31
847872,note_on,,,,,0,0,1,,,,0,,,58,31
847872,note_off,,,,,0,0,1,,,,0,,,54,0
847872,note_off,,,,,0,0,1,,,,0,,,42,0
847872,note_off,,,,,0,0,1,,,,0,,,70,0
847872,note_off,,,,,0,0,1,,,,0,,,51,0
847872,note_off,,,,,1024,0,1,,,,0,,,58,0
847872,note_off,,,,,0,0,1,,,,0,,,63,0
847872,set_tempo,,,,,1024,1,0,,461538,,,,,,
848384,note_on,,,,,512,0,1,,,,0,,,66,33
848424,note_off,,,,,40,0,1,,,,0,,,68,0
848816,note_off,,,,,0,0,1,,,,0,,,66,0
848816,note_off,,,,,392,0,1,,,,0,,,58,0
848816,note_off,,,,,0,0,1,,,,0,,,63,0
848896,note_off,,,,,0,0,1,,,,0,,,39,0
848896,control_change,,,,,80,0,1,,,,0,64,0,,
848896,control_change,,,,,0,0,1,,,,0,64,127,,
848896,control_change,,,,,0,0,1,,,,0,64,0,,
848896,control_change,,,,,0,0,1,,,,0,64,0,,
848896,note_off,,,,,0,0,1,,,,0,,,51,0
848896,note_on,,,,,0,0,1,,,,0,,,65,40
848896,note_on,,,,,0,0,1,,,,0,,,34,22
848976,control_change,,,,,80,0,1,,,,0,64,0,,
849162,control_change,,,,,186,0,1,,,,0,64,127,,
849237,note_on,,,,,75,0,1,,,,0,,,62,28
849237,set_tempo,,,,,1365,1,0,,352941,,,,,,
849408,note_off,,,,,171,0,1,,,,0,,,34,0
849579,note_off,,,,,171,0,1,,,,0,,,62,0
849579,note_on,,,,,0,0,1,,,,0,,,58,25
849907,control_change,,,,,328,0,1,,,,0,64,0,,
849920,note_on,,,,,0,0,1,,,,0,,,46,45
849920,note_on,,,,,0,0,1,,,,0,,,70,43
849920,note_off,,,,,13,0,1,,,,0,,,58,0
849970,note_off,,,,,50,0,1,,,,0,,,65,0
850119,control_change,,,,,149,0,1,,,,0,64,127,,
850261,note_on,,,,,142,0,1,,,,0,,,62,31
850603,note_off,,,,,342,0,1,,,,0,,,62,0
850603,note_on,,,,,0,0,1,,,,0,,,58,28
850944,note_off,,,,,0,0,1,,,,0,,,58,0
850944,note_on,,,,,0,0,1,,,,0,,,69,46
850944,control_change,,,,,0,0,1,,,,0,64,0,,
850944,control_change,,,,,0,0,1,,,,0,64,0,,
850944,control_change,,,,,341,0,1,,,,0,64,0,,
850944,control_change,,,,,0,0,1,,,,0,64,127,,
850994,note_off,,,,,50,0,1,,,,0,,,70,0
851024,control_change,,,,,30,0,1,,,,0,64,0,,
851210,control_change,,,,,186,0,1,,,,0,64,127,,
851285,note_on,,,,,75,0,1,,,,0,,,62,34
851627,note_off,,,,,342,0,1,,,,0,,,62,0
851627,note_on,,,,,0,0,1,,,,0,,,58,30
851955,control_change,,,,,328,0,1,,,,0,64,0,,
851968,set_tempo,,,,,2731,1,0,,352941,,,,,,
851968,note_off,,,,,13,0,1,,,,0,,,58,0
851968,note_on,,,,,0,0,1,,,,0,,,68,48
852018,note_off,,,,,50,0,1,,,,0,,,69,0
852167,control_change,,,,,149,0,1,,,,0,64,127,,
852309,note_on,,,,,142,0,1,,,,0,,,62,36
852651,note_off,,,,,342,0,1,,,,0,,,62,0
852651,note_on,,,,,0,0,1,,,,0,,,58,33
852992,control_change,,,,,0,0,1,,,,0,64,127,,
852992,control_change,,,,,0,0,1,,,,0,64,0,,
852992,note_off,,,,,0,0,1,,,,0,,,58,0
852992,control_change,,,,,0,0,1,,,,0,64,0,,
852992,note_on,,,,,0,0,1,,,,0,,,67,51
852992,set_tempo,,,,,1024,1,0,,375000,,,,,,
852992,control_change,,,,,341,0,1,,,,0,64,0,,
853042,note_off,,,,,50,0,1,,,,0,,,68,0
853072,control_change,,,,,30,0,1,,,,0,64,0,,
853258,control_change,,,,,186,0,1,,,,0,64,127,,
853333,note_on,,,,,75,0,1,,,,0,,,63,39
853675,note_on,,,,,0,0,1,,,,0,,,58,36
853675,note_off,,,,,342,0,1,,,,0,,,63,0
854003,control_change,,,,,328,0,1,,,,0,64,0,,
854016,note_on,,,,,0,0,1,,,,0,,,56,32
854016,note_off,,,,,13,0,1,,,,0,,,58,0
854016,set_tempo,,,,,1024,1,0,,461538,,,,,,
854016,note_on,,,,,0,0,1,,,,0,,,72,53
854066,note_off,,,,,50,0,1,,,,0,,,67,0
854215,control_change,,,,,149,0,1,,,,0,64,127,,
854357,set_tempo,,,,,341,1,0,,375000,,,,,,
854357,note_on,,,,,142,0,1,,,,0,,,63,39
854699,note_off,,,,,342,0,1,,,,0,,,63,0
854699,note_on,,,,,0,0,1,,,,0,,,58,33
855040,note_off,,,,,0,0,1,,,,0,,,58,0
855040,control_change,,,,,341,0,1,,,,0,64,0,,
855040,control_change,,,,,0,0,1,,,,0,64,127,,
855040,control_change,,,,,0,0,1,,,,0,64,0,,
855040,control_change,,,,,0,0,1,,,,0,64,0,,
855040,note_on,,,,,0,0,1,,,,0,,,70,49
855040,note_on,,,,,0,0,1,,,,0,,,55,28
855090,note_off,,,,,50,0,1,,,,0,,,72,0
855090,note_off,,,,,0,0,1,,,,0,,,56,0
855120,control_change,,,,,30,0,1,,,,0,64,0,,
855306,control_change,,,,,186,0,1,,,,0,64,127,,
855381,set_tempo,,,,,1024,1,0,,352941,,,,,,
855381,note_on,,,,,75,0,1,,,,0,,,63,34
855723,note_off,,,,,342,0,1,,,,0,,,63,0
855723,note_on,,,,,0,0,1,,,,0,,,58,29
856051,control_change,,,,,328,0,1,,,,0,64,0,,
856064,note_off,,,,,13,0,1,,,,0,,,58,0
856064,note_on,,,,,0,0,1,,,,0,,,67,44
856064,note_on,,,,,0,0,1,,,,0,,,51,25
856064,set_tempo,,,,,683,1,0,,333333,,,,,,
856114,note_off,,,,,50,0,1,,,,0,,,70,0
856114,note_off,,,,,0,0,1,,,,0,,,55,0
856263,control_change,,,,,149,0,1,,,,0,64,127,,
856405,note_on,,,,,142,0,1,,,,0,,,63,27
856747,note_on,,,,,0,0,1,,,,0,,,58,21
856747,note_off,,,,,342,0,1,,,,0,,,63,0
857088,set_tempo,,,,,1024,1,0,,428571,,,,,,
857088,note_on,,,,,0,0,1,,,,0,,,34,22
857088,note_off,,,,,0,0,1,,,,0,,,46,0
857088,note_off,,,,,0,0,1,,,,0,,,58,0
857088,note_on,,,,,0,0,1,,,,0,,,65,40
857088,control_change,,,,,0,0,1,,,,0,64,0,,
857088,control_change,,,,,0,0,1,,,,0,64,0,,
857088,control_change,,,,,0,0,1,,,,0,64,127,,
857088,control_change,,,,,0,0,1,,,,0,64,0,,
857088,control_change,,,,,341,0,1,,,,0,64,0,,
857088,control_change,,,,,0,0,1,,,,0,64,0,,
857138,note_off,,,,,50,0,1,,,,0,,,67,0
857138,note_off,,,,,0,0,1,,,,0,,,51,0
857168,control_change,,,,,30,0,1,,,,0,64,0,,
857354,control_change,,,,,186,0,1,,,,0,64,127,,
857429,set_tempo,,,,,341,1,0,,333333,,,,,,
857429,note_on,,,,,75,0,1,,,,0,,,62,28
857600,note_off,,,,,171,0,1,,,,0,,,34,0
857771,note_on,,,,,0,0,1,,,,0,,,58,25
857771,note_off,,,,,171,0,1,,,,0,,,62,0
858099,control_change,,,,,328,0,1,,,,0,64,0,,
858112,note_off,,,,,13,0,1,,,,0,,,58,0
858112,note_on,,,,,0,0,1,,,,0,,,70,43
858112,note_on,,,,,0,0,1,,,,0,,,46,41
858162,note_off,,,,,50,0,1,,,,0,,,65,0
858311,control_change,,,,,149,0,1,,,,0,64,127,,
858453,note_on,,,,,142,0,1,,,,0,,,62,31
858795,note_on,,,,,0,0,1,,,,0,,,58,28
858795,note_off,,,,,342,0,1,,,,0,,,62,0
859136,control_change,,,,,0,0,1,,,,0,64,0,,
859136,control_change,,,,,0,0,1,,,,0,64,0,,
859136,control_change,,,,,0,0,1,,,,0,64,0,,
859136,control_change,,,,,0,0,1,,,,0,64,0,,
859136,note_off,,,,,0,0,1,,,,0,,,58,0
859136,note_on,,,,,0,0,1,,,,0,,,69,46
859136,control_change,,,,,341,0,1,,,,0,64,0,,
859136,control_change,,,,,0,0,1,,,,0,64,127,,
859186,note_off,,,,,50,0,1,,,,0,,,70,0
859216,control_change,,,,,30,0,1,,,,0,64,0,,
859402,control_change,,,,,186,0,1,,,,0,64,127,,
859477,note_on,,,,,75,0,1,,,,0,,,62,34
859819,note_on,,,,,0,0,1,,,,0,,,58,30
859819,note_off,,,,,342,0,1,,,,0,,,62,0
860147,control_change,,,,,328,0,1,,,,0,64,0,,
860160,note_off,,,,,13,0,1,,,,0,,,58,0
860160,note_on,,,,,0,0,1,,,,0,,,68,48
860210,note_off,,,,,50,0,1,,,,0,,,69,0
860359,control_change,,,,,149,0,1,,,,0,64,127,,
860501,note_on,,,,,142,0,1,,,,0,,,62,36
860843,note_off,,,,,342,0,1,,,,0,,,62,0
860843,note_on,,,,,0,0,1,,,,0,,,58,33
861184,control_change,,,,,341,0,1,,,,0,64,0,,
861184,control_change,,,,,0,0,1,,,,0,64,0,,
861184,control_change,,,,,0,0,1,,,,0,64,127,,
861184,control_change,,,,,0,0,1,,,,0,64,0,,
861184,control_change,,,,,0,0,1,,,,0,64,0,,
861184,control_change,,,,,0,0,1,,,,0,64,0,,
861184,note_off,,,,,0,0,1,,,,0,,,58,0
861184,note_on,,,,,0,0,1,,,,0,,,67,51
861234,note_off,,,,,50,0,1,,,,0,,,68,0
861264,control_change,,,,,30,0,1,,,,0,64,0,,
861450,control_change,,,,,186,0,1,,,,0,64,127,,
861525,note_on,,,,,75,0,1,,,,0,,,63,39
861867,note_off,,,,,342,0,1,,,,0,,,63,0
861867,note_on,,,,,0,0,1,,,,0,,,58,36
862195,control_change,,,,,328,0,1,,,,0,64,0,,
862208,note_off,,,,,13,0,1,,,,0,,,58,0
862208,note_on,,,,,0,0,1,,,,0,,,72,53
862208,note_on,,,,,0,0,1,,,,0,,,56,37
862208,set_tempo,,,,,4779,1,0,,400000,,,,,,
862258,note_off,,,,,50,0,1,,,,0,,,67,0
862407,control_change,,,,,149,0,1,,,,0,64,127,,
862549,set_tempo,,,,,341,1,0,,375000,,,,,,
862549,note_on,,,,,142,0,1,,,,0,,,63,39
862891,note_on,,,,,0,0,1,,,,0,,,58,33
862891,note_off,,,,,342,0,1,,,,0,,,63,0
863232,control_change,,,,,0,0,1,,,,0,64,0,,
863232,control_change,,,,,0,0,1,,,,0,64,127,,
863232,control_change,,,,,0,0,1,,,,0,64,0,,
863232,control_change,,,,,341,0,1,,,,0,64,0,,
863232,control_change,,,,,0,0,1,,,,0,64,0,,
863232,note_on,,,,,0,0,1,,,,0,,,55,33
863232,note_on,,,,,0,0,1,,,,0,,,70,49
863232,note_off,,,,,0,0,1,,,,0,,,58,0
863232,control_change,,,,,0,0,1,,,,0,64,0,,
863282,note_off,,,,,50,0,1,,,,0,,,72,0
863282,note_off,,,,,0,0,1,,,,0,,,56,0
863312,control_change,,,,,30,0,1,,,,0,64,0,,
863498,control_change,,,,,186,0,1,,,,0,64,127,,
863573,note_on,,,,,75,0,1,,,,0,,,63,34
863573,set_tempo,,,,,1024,1,0,,352941,,,,,,
863915,note_off,,,,,342,0,1,,,,0,,,63,0
863915,note_on,,,,,0,0,1,,,,0,,,58,29
864243,control_change,,,,,328,0,1,,,,0,64,0,,
864256,set_tempo,,,,,683,1,0,,333333,,,,,,
864256,note_on,,,,,0,0,1,,,,0,,,51,25
864256,note_on,,,,,0,0,1,,,,0,,,67,44
864256,note_off,,,,,13,0,1,,,,0,,,58,0
864306,note_off,,,,,0,0,1,,,,0,,,55,0
864306,note_off,,,,,50,0,1,,,,0,,,70,0
864455,control_change,,,,,149,0,1,,,,0,64,127,,
864597,note_on,,,,,142,0,1,,,,0,,,63,27
864939,note_off,,,,,342,0,1,,,,0,,,63,0
864939,note_on,,,,,0,0,1,,,,0,,,58,21
865280,control_change,,,,,0,0,1,,,,0,64,0,,
865280,control_change,,,,,0,0,1,,,,0,64,0,,
865280,control_change,,,,,0,0,1,,,,0,64,0,,
865280,control_change,,,,,0,0,1,,,,0,64,0,,
865280,note_off,,,,,0,0,1,,,,0,,,58,0
865280,note_off,,,,,0,0,1,,,,0,,,46,0
865280,set_tempo,,,,,1024,1,0,,428571,,,,,,
865280,control_change,,,,,0,0,1,,,,0,64,0,,
865280,control_change,,,,,0,0,1,,,,0,64,0,,
865280,control_change,,,,,0,0,1,,,,0,64,127,,
865280,note_on,,,,,0,0,1,,,,0,,,34,22
865280,note_on,,,,,0,0,1,,,,0,,,65,40
865280,control_change,,,,,341,0,1,,,,0,64,0,,
865330,note_off,,,,,0,0,1,,,,0,,,51,0
865330,note_off,,,,,50,0,1,,,,0,,,67,0
865360,control_change,,,,,30,0,1,,,,0,64,0,,
865546,control_change,,,,,186,0,1,,,,0,64,127,,
865621,set_tempo,,,,,341,1,0,,333333,,,,,,
865621,note_on,,,,,75,0,1,,,,0,,,62,28
865792,note_off,,,,,171,0,1,,,,0,,,34,0
865963,note_on,,,,,0,0,1,,,,0,,,58,25
865963,note_off,,,,,171,0,1,,,,0,,,62,0
866291,control_change,,,,,328,0,1,,,,0,64,0,,
866304,note_on,,,,,0,0,1,,,,0,,,70,43
866304,note_off,,,,,13,0,1,,,,0,,,58,0
866304,note_on,,,,,0,0,1,,,,0,,,46,33
866354,note_off,,,,,50,0,1,,,,0,,,65,0
866503,control_change,,,,,149,0,1,,,,0,64,127,,
866645,note_on,,,,,142,0,1,,,,0,,,62,31
866987,note_off,,,,,342,0,1,,,,0,,,62,0
866987,note_on,,,,,0,0,1,,,,0,,,58,28
867328,note_on,,,,,0,0,1,,,,0,,,69,46
867328,note_off,,,,,0,0,1,,,,0,,,58,0
867328,control_change,,,,,0,0,1,,,,0,64,0,,
867328,control_change,,,,,0,0,1,,,,0,64,0,,
867328,control_change,,,,,0,0,1,,,,0,64,0,,
867328,control_change,,,,,0,0,1,,,,0,64,127,,
867328,control_change,,,,,0,0,1,,,,0,64,0,,
867328,control_change,,,,,0,0,1,,,,0,64,0,,
867328,control_change,,,,,341,0,1,,,,0,64,0,,
867328,control_change,,,,,0,0,1,,,,0,64,0,,
867378,note_off,,,,,50,0,1,,,,0,,,70,0
867408,control_change,,,,,30,0,1,,,,0,64,0,,
867594,control_change,,,,,186,0,1,,,,0,64,127,,
867669,note_on,,,,,75,0,1,,,,0,,,62,34
868011,note_off,,,,,342,0,1,,,,0,,,62,0
868011,note_on,,,,,0,0,1,,,,0,,,58,30
868339,control_change,,,,,328,0,1,,,,0,64,0,,
868352,note_on,,,,,0,0,1,,,,0,,,53,33
868352,note_off,,,,,13,0,1,,,,0,,,58,0
868352,note_on,,,,,0,0,1,,,,0,,,68,48
868402,note_off,,,,,50,0,1,,,,0,,,69,0
868551,control_change,,,,,149,0,1,,,,0,64,127,,
868693,note_on,,,,,142,0,1,,,,0,,,62,35
869035,note_on,,,,,0,0,1,,,,0,,,58,32
869035,note_off,,,,,342,0,1,,,,0,,,62,0
869376,control_change,,,,,0,0,1,,,,0,64,0,,
869376,control_change,,,,,0,0,1,,,,0,64,0,,
869376,control_change,,,,,0,0,1,,,,0,64,127,,
869376,control_change,,,,,0,0,1,,,,0,64,0,,
869376,control_change,,,,,0,0,1,,,,0,64,0,,
869376,control_change,,,,,341,0,1,,,,0,64,0,,
869376,note_on,,,,,0,0,1,,,,0,,,67,51
869376,note_off,,,,,0,0,1,,,,0,,,58,0
869376,set_tempo,,,,,3755,1,0,,400000,,,,,,
869376,note_on,,,,,0,0,1,,,,0,,,52,38
869376,control_change,,,,,0,0,1,,,,0,64,0,,
869376,control_change,,,,,0,0,1,,,,0,64,0,,
869416,note_off,,,,,40,0,1,,,,0,,,53,0
869426,note_off,,,,,10,0,1,,,,0,,,68,0
869456,control_change,,,,,30,0,1,,,,0,64,0,,
869642,control_change,,,,,186,0,1,,,,0,64,127,,
869717,set_tempo,,,,,341,1,0,,375000,,,,,,
869717,note_on,,,,,75,0,1,,,,0,,,61,35
870059,note_on,,,,,0,0,1,,,,0,,,58,32
870059,note_off,,,,,342,0,1,,,,0,,,61,0
870387,control_change,,,,,328,0,1,,,,0,64,0,,
870400,set_tempo,,,,,683,1,0,,400000,,,,,,
870400,note_on,,,,,0,0,1,,,,0,,,53,34
870400,note_on,,,,,0,0,1,,,,0,,,68,48
870400,note_off,,,,,13,0,1,,,,0,,,58,0
870440,note_off,,,,,40,0,1,,,,0,,,52,0
870450,note_off,,,,,10,0,1,,,,0,,,67,0
870599,control_change,,,,,149,0,1,,,,0,64,127,,
870741,note_on,,,,,142,0,1,,,,0,,,62,32
871083,note_on,,,,,0,0,1,,,,0,,,58,26
871083,note_off,,,,,342,0,1,,,,0,,,62,0
871083,set_tempo,,,,,683,1,0,,428571,,,,,,
871424,set_tempo,,,,,341,1,0,,461538,,,,,,
871424,note_on,,,,,0,0,1,,,,0,,,55,31
871424,control_change,,,,,0,0,1,,,,0,64,0,,
871424,control_change,,,,,341,0,1,,,,0,64,0,,
871424,control_change,,,,,0,0,1,,,,0,64,0,,
871424,control_change,,,,,0,0,1,,,,0,64,0,,
871424,control_change,,,,,0,0,1,,,,0,64,127,,
871424,control_change,,,,,0,0,1,,,,0,64,0,,
871424,control_change,,,,,0,0,1,,,,0,64,0,,
871424,control_change,,,,,0,0,1,,,,0,64,0,,
871424,note_off,,,,,0,0,1,,,,0,,,58,0
871424,note_on,,,,,0,0,1,,,,0,,,67,40
871464,note_off,,,,,40,0,1,,,,0,,,53,0
871474,note_off,,,,,10,0,1,,,,0,,,68,0
871504,control_change,,,,,30,0,1,,,,0,64,0,,
871690,control_change,,,,,186,0,1,,,,0,64,127,,
871765,set_tempo,,,,,341,1,0,,500000,,,,,,
871765,note_on,,,,,75,0,1,,,,0,,,63,27
872107,note_on,,,,,0,0,1,,,,0,,,58,17
872107,note_off,,,,,342,0,1,,,,0,,,63,0
872435,control_change,,,,,328,0,1,,,,0,64,0,,
872448,note_on,,,,,0,0,1,,,,0,,,56,19
872448,note_off,,,,,13,0,1,,,,0,,,58,0
872448,note_on,,,,,0,0,1,,,,0,,,65,32
872448,set_tempo,,,,,683,1,0,,545454,,,,,,
872488,note_off,,,,,40,0,1,,,,0,,,55,0
872498,note_off,,,,,10,0,1,,,,0,,,67,0
872647,control_change,,,,,149,0,1,,,,0,64,127,,
872789,note_on,,,,,142,0,1,,,,0,,,62,16
872789,set_tempo,,,,,341,1,0,,625000,,,,,,
873047,control_change,,,,,258,0,1,,,,0,64,0,,
873131,note_on,,,,,0,0,1,,,,0,,,58,12
873131,note_off,,,,,84,0,1,,,,0,,,62,0
873472,key_signature,,,,,683,1,0,Eb,,,,,,,
873472,set_tempo,,,,,0,1,0,,333333,,,,,,
873472,note_off,,,,,0,0,1,,,,0,,,58,0
873472,control_change,,,,,341,0,1,,,,0,64,0,,
873472,control_change,,,,,0,0,1,,,,0,64,0,,
873472,note_off,,,,,0,0,1,,,,0,,,46,0
873512,note_off,,,,,40,0,1,,,,0,,,56,0
873522,note_off,,,,,10,0,1,,,,0,,,65,0
875520,control_change,,,,,1998,0,1,,,,0,64,0,,
875520,control_change,,,,,0,0,1,,,,0,64,0,,
877312,note_on,,,,,0,0,1,,,,0,,,70,43
877312,set_tempo,,,,,3840,1,0,,375000,,,,,,
877312,note_on,,,,,1792,0,1,,,,0,,,58,34
877568,control_change,,,,,256,0,1,,,,0,64,0,,
877568,control_change,,,,,0,0,1,,,,0,64,0,,
877568,control_change,,,,,0,0,1,,,,0,64,0,,
877568,control_change,,,,,0,0,1,,,,0,64,0,,
877568,note_off,,,,,0,0,1,,,,0,,,58,0
877568,note_off,,,,,0,0,1,,,,0,,,70,0
877568,note_on,,,,,0,0,1,,,,0,,,70,50
877568,note_on,,,,,0,0,1,,,,0,,,39,31
877568,note_on,,,,,0,0,1,,,,0,,,58,36
877568,set_tempo,,,,,256,1,0,,333333,,,,,,
877857,control_change,,,,,289,0,1,,,,0,64,127,,
877909,note_on,,,,,52,0,1,,,,0,,,46,26
878251,note_on,,,,,342,0,1,,,,0,,,51,26
878592,note_off,,,,,341,0,1,,,,0,,,58,0
878592,note_off,,,,,0,0,1,,,,0,,,70,0
878592,note_off,,,,,0,0,1,,,,0,,,39,0
878592,note_off,,,,,0,0,1,,,,0,,,46,0
878592,note_off,,,,,0,0,1,,,,0,,,51,0
878592,note_on,,,,,0,0,1,,,,0,,,67,40
878592,note_on,,,,,0,0,1,,,,0,,,39,26
878618,control_change,,,,,26,0,1,,,,0,64,0,,
878828,control_change,,,,,210,0,1,,,,0,64,0,,
878933,note_on,,,,,105,0,1,,,,0,,,46,26
879065,control_change,,,,,132,0,1,,,,0,64,127,,
879104,note_off,,,,,39,0,1,,,,0,,,67,0
879275,note_on,,,,,171,0,1,,,,0,,,51,26
879360,set_tempo,,,,,1792,1,0,,375000,,,,,,
879360,note_on,,,,,0,0,1,,,,0,,,70,42
879360,note_on,,,,,85,0,1,,,,0,,,58,28
879406,control_change,,,,,46,0,1,,,,0,64,0,,
879616,set_tempo,,,,,256,1,0,,333333,,,,,,
879616,control_change,,,,,210,0,1,,,,0,64,0,,
879616,note_off,,,,,0,0,1,,,,0,,,46,0
879616,control_change,,,,,0,0,1,,,,0,64,0,,
879616,control_change,,,,,0,0,1,,,,0,64,0,,
879616,control_change,,,,,0,0,1,,,,0,64,0,,
879616,control_change,,,,,0,0,1,,,,0,64,0,,
879616,note_off,,,,,0,0,1,,,,0,,,58,0
879616,note_off,,,,,0,0,1,,,,0,,,70,0
879616,note_off,,,,,0,0,1,,,,0,,,39,0
879616,note_off,,,,,0,0,1,,,,0,,,51,0
879616,note_on,,,,,0,0,1,,,,0,,,58,36
879616,note_on,,,,,0,0,1,,,,0,,,70,50
879616,note_on,,,,,0,0,1,,,,0,,,38,31
879905,control_change,,,,,289,0,1,,,,0,64,127,,
879957,note_on,,,,,52,0,1,,,,0,,,46,26
880299,note_on,,,,,342,0,1,,,,0,,,50,26
880640,note_on,,,,,0,0,1,,,,0,,,38,26
880640,note_on,,,,,0,0,1,,,,0,,,65,40
880640,note_off,,,,,0,0,1,,,,0,,,50,0
880640,note_off,,,,,0,0,1,,,,0,,,38,0
880640,note_off,,,,,0,0,1,,,,0,,,70,0
880640,note_off,,,,,341,0,1,,,,0,,,58,0
880640,note_off,,,,,0,0,1,,,,0,,,46,0
880666,control_change,,,,,26,0,1,,,,0,64,0,,
880876,control_change,,,,,210,0,1,,,,0,64,0,,
880981,note_on,,,,,105,0,1,,,,0,,,46,26
881113,control_change,,,,,132,0,1,,,,0,64,127,,
881152,note_off,,,,,39,0,1,,,,0,,,65,0
881323,note_on,,,,,171,0,1,,,,0,,,50,26
881408,note_on,,,,,85,0,1,,,,0,,,70,42
881454,control_change,,,,,46,0,1,,,,0,64,0,,
881664,control_change,,,,,0,0,1,,,,0,64,0,,
881664,control_change,,,,,0,0,1,,,,0,64,0,,
881664,set_tempo,,,,,2048,1,0,,333333,,,,,,
881664,control_change,,,,,210,0,1,,,,0,64,0,,
881664,control_change,,,,,0,0,1,,,,0,64,0,,
881664,note_off,,,,,0,0,1,,,,0,,,70,0
881664,note_off,,,,,0,0,1,,,,0,,,38,0
881664,note_off,,,,,0,0,1,,,,0,,,46,0
881664,note_off,,,,,0,0,1,,,,0,,,50,0
881664,note_on,,,,,0,0,1,,,,0,,,58,36
881664,note_on,,,,,0,0,1,,,,0,,,68,50
881664,note_on,,,,,0,0,1,,,,0,,,41,31
881826,control_change,,,,,162,0,1,,,,0,64,127,,
882005,note_on,,,,,179,0,1,,,,0,,,46,26
882347,note_on,,,,,342,0,1,,,,0,,,53,26
882432,note_off,,,,,85,0,1,,,,0,,,58,0
882432,note_off,,,,,0,0,1,,,,0,,,68,0
882432,note_on,,,,,0,0,1,,,,0,,,70,42
882688,note_off,,,,,0,0,1,,,,0,,,46,0
882688,note_off,,,,,0,0,1,,,,0,,,53,0
882688,note_off,,,,,0,0,1,,,,0,,,41,0
882688,note_on,,,,,0,0,1,,,,0,,,41,26
882688,note_on,,,,,0,0,1,,,,0,,,58,32
882688,set_tempo,,,,,1024,1,0,,333333,,,,,,
882688,note_off,,,,,256,0,1,,,,0,,,70,0
882688,note_on,,,,,0,0,1,,,,0,,,68,46
883029,note_on,,,,,341,0,1,,,,0,,,46,26
883371,note_on,,,,,342,0,1,,,,0,,,53,26
883456,note_off,,,,,85,0,1,,,,0,,,58,0
883456,note_off,,,,,0,0,1,,,,0,,,68,0
883456,note_on,,,,,0,0,1,,,,0,,,70,42
883550,control_change,,,,,94,0,1,,,,0,64,0,,
883712,control_change,,,,,0,0,1,,,,0,64,0,,
883712,note_off,,,,,0,0,1,,,,0,,,70,0
883712,note_off,,,,,0,0,1,,,,0,,,41,0
883712,note_off,,,,,0,0,1,,,,0,,,53,0
883712,note_on,,,,,0,0,1,,,,0,,,58,32
883712,note_off,,,,,0,0,1,,,,0,,,46,0
883712,set_tempo,,,,,1024,1,0,,333333,,,,,,
883712,control_change,,,,,162,0,1,,,,0,64,0,,
883712,control_change,,,,,0,0,1,,,,0,64,0,,
883712,note_on,,,,,0,0,1,,,,0,,,39,31
883712,note_on,,,,,0,0,1,,,,0,,,67,46
883712,control_change,,,,,0,0,1,,,,0,64,0,,
883920,control_change,,,,,208,0,1,,,,0,64,127,,
884053,note_on,,,,,133,0,1,,,,0,,,46,26
884395,note_on,,,,,342,0,1,,,,0,,,51,26
884736,note_off,,,,,341,0,1,,,,0,,,58,0
884736,note_off,,,,,0,0,1,,,,0,,,67,0
884736,note_off,,,,,0,0,1,,,,0,,,39,0
884736,note_off,,,,,0,0,1,,,,0,,,46,0
884736,note_off,,,,,0,0,1,,,,0,,,51,0
884736,note_on,,,,,0,0,1,,,,0,,,39,26
884781,control_change,,,,,45,0,1,,,,0,64,0,,
885077,note_on,,,,,296,0,1,,,,0,,,46,26
885107,control_change,,,,,30,0,1,,,,0,64,127,,
885419,note_on,,,,,312,0,1,,,,0,,,51,26
885504,note_on,,,,,85,0,1,,,,0,,,58,28
885504,note_on,,,,,0,0,1,,,,0,,,70,42
885504,set_tempo,,,,,1792,1,0,,375000,,,,,,
885671,control_change,,,,,167,0,1,,,,0,64,0,,
885760,control_change,,,,,89,0,1,,,,0,64,0,,
885760,control_change,,,,,0,0,1,,,,0,64,0,,
885760,control_change,,,,,0,0,1,,,,0,64,0,,
885760,control_change,,,,,0,0,1,,,,0,64,0,,
885760,note_off,,,,,0,0,1,,,,0,,,58,0
885760,note_off,,,,,0,0,1,,,,0,,,70,0
885760,note_off,,,,,0,0,1,,,,0,,,39,0
885760,note_off,,,,,0,0,1,,,,0,,,46,0
885760,note_off,,,,,0,0,1,,,,0,,,51,0
885760,note_on,,,,,0,0,1,,,,0,,,58,36
885760,note_on,,,,,0,0,1,,,,0,,,43,31
885760,note_on,,,,,0,0,1,,,,0,,,70,50
885760,set_tempo,,,,,256,1,0,,333333,,,,,,
885968,control_change,,,,,208,0,1,,,,0,64,127,,
886101,note_on,,,,,133,0,1,,,,0,,,46,26
886272,note_off,,,,,171,0,1,,,,0,,,58,0
886272,note_off,,,,,0,0,1,,,,0,,,70,0
886272,set_tempo,,,,,512,1,0,,375000,,,,,,
886354,control_change,,,,,82,0,1,,,,0,64,0,,
886443,note_on,,,,,89,0,1,,,,0,,,51,26
886784,note_off,,,,,0,0,1,,,,0,,,51,0
886784,note_off,,,,,0,0,1,,,,0,,,46,0
886784,note_on,,,,,0,0,1,,,,0,,,43,26
886784,note_on,,,,,0,0,1,,,,0,,,79,52
886784,set_tempo,,,,,512,1,0,,333333,,,,,,
886784,note_on,,,,,341,0,1,,,,0,,,67,38
886784,note_off,,,,,0,0,1,,,,0,,,43,0
886977,control_change,,,,,193,0,1,,,,0,64,127,,
887125,note_on,,,,,148,0,1,,,,0,,,46,26
887467,note_on,,,,,342,0,1,,,,0,,,51,26
887808,control_change,,,,,341,0,1,,,,0,64,0,,
887808,control_change,,,,,0,0,1,,,,0,64,0,,
887808,control_change,,,,,0,0,1,,,,0,64,127,,
887808,control_change,,,,,0,0,1,,,,0,64,0,,
887808,note_off,,,,,0,0,1,,,,0,,,46,0
887808,note_off,,,,,0,0,1,,,,0,,,51,0
887808,note_on,,,,,0,0,1,,,,0,,,44,31
887808,note_off,,,,,0,0,1,,,,0,,,43,0
888016,control_change,,,,,208,0,1,,,,0,64,0,,
888149,note_on,,,,,133,0,1,,,,0,,,48,26
888253,control_change,,,,,104,0,1,,,,0,64,127,,
888491,note_on,,,,,238,0,1,,,,0,,,53,27
888832,note_off,,,,,341,0,1,,,,0,,,67,0
888832,note_off,,,,,0,0,1,,,,0,,,44,0
888832,note_off,,,,,0,0,1,,,,0,,,48,0
888832,note_off,,,,,0,0,1,,,,0,,,53,0
888832,note_on,,,,,0,0,1,,,,0,,,65,33
888832,note_on,,,,,0,0,1,,,,0,,,77,47
888832,note_on,,,,,0,0,1,,,,0,,,44,27
888832,note_off,,,,,0,0,1,,,,0,,,79,0
888877,control_change,,,,,45,0,1,,,,0,64,0,,
889104,note_off,,,,,0,0,1,,,,0,,,77,0
889104,note_off,,,,,227,0,1,,,,0,,,65,0
889173,note_on,,,,,69,0,1,,,,0,,,48,27
889344,note_on,,,,,0,0,1,,,,0,,,75,45
889344,note_on,,,,,171,0,1,,,,0,,,63,30
889515,note_on,,,,,171,0,1,,,,0,,,53,27
889616,note_off,,,,,0,0,1,,,,0,,,75,0
889616,note_off,,,,,101,0,1,,,,0,,,63,0
889856,control_change,,,,,0,0,1,,,,0,64,0,,
889856,control_change,,,,,0,0,1,,,,0,64,0,,
889856,control_change,,,,,240,0,1,,,,0,64,0,,
889856,note_off,,,,,0,0,1,,,,0,,,44,0
889856,note_off,,,,,0,0,1,,,,0,,,48,0
889856,note_off,,,,,0,0,1,,,,0,,,53,0
889856,note_on,,,,,0,0,1,,,,0,,,62,38
889856,note_on,,,,,0,0,1,,,,0,,,74,53
889856,note_on,,,,,0,0,1,,,,0,,,46,33
889856,control_change,,,,,0,0,1,,,,0,64,0,,
889856,set_tempo,,,,,3072,1,0,,333333,,,,,,
890197,note_on,,,,,341,0,1,,,,0,,,53,28
890224,note_off,,,,,27,0,1,,,,0,,,62,0
890224,note_off,,,,,0,0,1,,,,0,,,74,0
890539,note_on,,,,,315,0,1,,,,0,,,56,28
890624,note_on,,,,,85,0,1,,,,0,,,65,30
890624,note_on,,,,,0,0,1,,,,0,,,77,45
890624,set_tempo,,,,,768,1,0,,375000,,,,,,
890711,note_off,,,,,0,0,1,,,,0,,,77,0
890711,note_off,,,,,87,0,1,,,,0,,,65,0
890880,note_off,,,,,0,0,1,,,,0,,,56,0
890880,note_off,,,,,0,0,1,,,,0,,,53,0
890880,note_off,,,,,0,0,1,,,,0,,,46,0
890880,note_on,,,,,0,0,1,,,,0,,,46,28
890880,note_on,,,,,0,0,1,,,,0,,,74,50
890880,set_tempo,,,,,256,1,0,,333333,,,,,,
890880,note_on,,,,,169,0,1,,,,0,,,62,35
891221,note_on,,,,,341,0,1,,,,0,,,53,28
891408,note_off,,,,,0,0,1,,,,0,,,74,0
891408,note_off,,,,,187,0,1,,,,0,,,62,0
891563,note_on,,,,,155,0,1,,,,0,,,56,28
891648,note_on,,,,,0,0,1,,,,0,,,77,46
891648,set_tempo,,,,,768,1,0,,375000,,,,,,
891648,note_on,,,,,85,0,1,,,,0,,,65,31
891735,note_off,,,,,0,0,1,,,,0,,,77,0
891735,note_off,,,,,87,0,1,,,,0,,,65,0
891904,control_change,,,,,169,0,1,,,,0,64,0,,
891904,control_change,,,,,0,0,1,,,,0,64,0,,
891904,control_change,,,,,0,0,1,,,,0,64,0,,
891904,control_change,,,,,0,0,1,,,,0,64,0,,
891904,note_off,,,,,0,0,1,,,,0,,,46,0
891904,note_off,,,,,0,0,1,,,,0,,,53,0
891904,note_off,,,,,0,0,1,,,,0,,,56,0
891904,note_on,,,,,0,0,1,,,,0,,,75,53
891904,set_tempo,,,,,256,1,0,,333333,,,,,,
891904,note_on,,,,,0,0,1,,,,0,,,39,50
891904,note_on,,,,,0,0,1,,,,0,,,63,39
892245,note_on,,,,,341,0,1,,,,0,,,46,45
892587,note_on,,,,,342,0,1,,,,0,,,51,45
892928,note_off,,,,,341,0,1,,,,0,,,63,0
892928,note_off,,,,,0,0,1,,,,0,,,75,0
892928,note_off,,,,,0,0,1,,,,0,,,39,0
892928,note_off,,,,,0,0,1,,,,0,,,46,0
892928,note_off,,,,,0,0,1,,,,0,,,51,0
892928,note_on,,,,,0,0,1,,,,0,,,39,45
893269,note_on,,,,,341,0,1,,,,0,,,46,45
893611,note_on,,,,,342,0,1,,,,0,,,51,45
893696,set_tempo,,,,,1792,1,0,,375000,,,,,,
893696,note_on,,,,,85,0,1,,,,0,,,70,54
893696,note_on,,,,,0,0,1,,,,0,,,82,66
893952,note_on,,,,,0,0,1,,,,0,,,82,72
893952,note_on,,,,,0,0,1,,,,0,,,39,62
893952,note_on,,,,,0,0,1,,,,0,,,70,58
893952,note_off,,,,,0,0,1,,,,0,,,51,0
893952,note_off,,,,,0,0,1,,,,0,,,46,0
893952,note_off,,,,,0,0,1,,,,0,,,82,0
893952,note_off,,,,,0,0,1,,,,0,,,70,0
893952,control_change,,,,,0,0,1,,,,0,64,0,,
893952,control_change,,,,,0,0,1,,,,0,64,0,,
893952,note_off,,,,,0,0,1,,,,0,,,39,0
893952,control_change,,,,,0,0,1,,,,0,64,0,,
893952,control_change,,,,,256,0,1,,,,0,64,0,,
893952,control_change,,,,,0,0,1,,,,0,64,0,,
893952,set_tempo,,,,,256,1,0,,333333,,,,,,
894241,control_change,,,,,289,0,1,,,,0,64,127,,
894293,note_on,,,,,52,0,1,,,,0,,,46,50
894635,note_on,,,,,342,0,1,,,,0,,,51,50
894976,note_off,,,,,0,0,1,,,,0,,,39,0
894976,note_on,,,,,0,0,1,,,,0,,,39,50
894976,note_off,,,,,341,0,1,,,,0,,,70,0
894976,note_off,,,,,0,0,1,,,,0,,,82,0
894976,note_on,,,,,0,0,1,,,,0,,,79,66
894976,note_off,,,,,0,0,1,,,,0,,,46,0
894976,note_off,,,,,0,0,1,,,,0,,,51,0
895002,control_change,,,,,26,0,1,,,,0,64,0,,
895212,control_change,,,,,210,0,1,,,,0,64,0,,
895317,note_on,,,,,105,0,1,,,,0,,,46,50
895449,control_change,,,,,132,0,1,,,,0,64,127,,
895488,note_off,,,,,39,0,1,,,,0,,,79,0
895659,note_on,,,,,171,0,1,,,,0,,,51,50
895744,note_on,,,,,85,0,1,,,,0,,,70,50
895744,note_on,,,,,0,0,1,,,,0,,,82,66
895744,set_tempo,,,,,1792,1,0,,375000,,,,,,
895790,control_change,,,,,46,0,1,,,,0,64,0,,
896000,note_off,,,,,0,0,1,,,,0,,,39,0
896000,note_off,,,,,0,0,1,,,,0,,,82,0
896000,note_off,,,,,0,0,1,,,,0,,,46,0
896000,note_off,,,,,0,0,1,,,,0,,,51,0
896000,note_on,,,,,0,0,1,,,,0,,,70,58
896000,note_on,,,,,0,0,1,,,,0,,,82,72
896000,note_on,,,,,0,0,1,,,,0,,,38,62
896000,note_off,,,,,0,0,1,,,,0,,,70,0
896000,control_change,,,,,0,0,1,,,,0,64,0,,
896000,control_change,,,,,0,0,1,,,,0,64,0,,
896000,control_change,,,,,0,0,1,,,,0,64,0,,
896000,control_change,,,,,0,0,1,,,,0,64,0,,
896000,control_change,,,,,210,0,1,,,,0,64,0,,
896000,control_change,,,,,0,0,1,,,,0,64,0,,
896000,set_tempo,,,,,256,1,0,,333333,,,,,,
896289,control_change,,,,,289,0,1,,,,0,64,127,,
896341,note_on,,,,,52,0,1,,,,0,,,46,50
896683,note_on,,,,,342,0,1,,,,0,,,50,50
896917,control_change,,,,,234,0,1,,,,0,64,127,,
897024,note_on,,,,,0,0,1,,,,0,,,77,66
897024,note_off,,,,,0,0,1,,,,0,,,50,0
897024,note_off,,,,,0,0,1,,,,0,,,46,0
897024,note_on,,,,,0,0,1,,,,0,,,38,50
897024,note_off,,,,,107,0,1,,,,0,,,70,0
897024,note_off,,,,,0,0,1,,,,0,,,82,0
897024,note_off,,,,,0,0,1,,,,0,,,38,0
897260,control_change,,,,,236,0,1,,,,0,64,0,,
897365,note_on,,,,,105,0,1,,,,0,,,46,50
897497,control_change,,,,,132,0,1,,,,0,64,127,,
897536,note_off,,,,,39,0,1,,,,0,,,77,0
897707,note_on,,,,,171,0,1,,,,0,,,50,50
897792,note_on,,,,,85,0,1,,,,0,,,82,64
897838,control_change,,,,,46,0,1,,,,0,64,0,,
898048,note_off,,,,,0,0,1,,,,0,,,38,0
898048,note_on,,,,,0,0,1,,,,0,,,80,72
898048,note_on,,,,,0,0,1,,,,0,,,70,58
898048,note_off,,,,,0,0,1,,,,0,,,50,0
898048,note_off,,,,,0,0,1,,,,0,,,46,0
898048,set_tempo,,,,,2048,1,0,,333333,,,,,,
898048,note_off,,,,,0,0,1,,,,0,,,82,0
898048,control_change,,,,,0,0,1,,,,0,64,0,,
898048,control_change,,,,,0,0,1,,,,0,64,0,,
898048,control_change,,,,,0,0,1,,,,0,64,0,,
898048,control_change,,,,,0,0,1,,,,0,64,0,,
898048,control_change,,,,,210,0,1,,,,0,64,0,,
898048,note_on,,,,,0,0,1,,,,0,,,41,62
898210,control_change,,,,,162,0,1,,,,0,64,127,,
898389,note_on,,,,,179,0,1,,,,0,,,46,50
898731,note_on,,,,,342,0,1,,,,0,,,53,50
898816,note_off,,,,,85,0,1,,,,0,,,70,0
898816,note_off,,,,,0,0,1,,,,0,,,80,0
898816,note_on,,,,,0,0,1,,,,0,,,82,64
899072,note_on,,,,,0,0,1,,,,0,,,80,68
899072,note_on,,,,,0,0,1,,,,0,,,70,54
899072,note_on,,,,,0,0,1,,,,0,,,41,50
899072,note_off,,,,,0,0,1,,,,0,,,41,0
899072,set_tempo,,,,,1024,1,0,,333333,,,,,,
899072,note_off,,,,,0,0,1,,,,0,,,53,0
899072,note_off,,,,,256,0,1,,,,0,,,82,0
899072,note_off,,,,,0,0,1,,,,0,,,46,0
899413,note_on,,,,,341,0,1,,,,0,,,46,50
899755,note_on,,,,,342,0,1,,,,0,,,53,50
899840,note_on,,,,,0,0,1,,,,0,,,82,64
899840,note_off,,,,,0,0,1,,,,0,,,80,0
899840,note_off,,,,,85,0,1,,,,0,,,70,0
899934,control_change,,,,,94,0,1,,,,0,64,0,,
900096,set_tempo,,,,,1024,1,0,,333333,,,,,,
900096,control_change,,,,,162,0,1,,,,0,64,0,,
900096,control_change,,,,,0,0,1,,,,0,64,0,,
900096,control_change,,,,,0,0,1,,,,0,64,0,,
900096,control_change,,,,,0,0,1,,,,0,64,0,,
900096,control_change,,,,,0,0,1,,,,0,64,0,,
900096,note_off,,,,,0,0,1,,,,0,,,82,0
900096,note_off,,,,,0,0,1,,,,0,,,41,0
900096,note_off,,,,,0,0,1,,,,0,,,53,0
900096,note_on,,,,,0,0,1,,,,0,,,70,54
900096,note_on,,,,,0,0,1,,,,0,,,79,68
900096,note_on,,,,,0,0,1,,,,0,,,39,62
900096,note_off,,,,,0,0,1,,,,0,,,46,0
900304,control_change,,,,,208,0,1,,,,0,64,127,,
900437,note_on,,,,,133,0,1,,,,0,,,46,50
900779,note_on,,,,,342,0,1,,,,0,,,51,50
901120,note_off,,,,,341,0,1,,,,0,,,70,0
901120,note_off,,,,,0,0,1,,,,0,,,79,0
901120,note_off,,,,,0,0,1,,,,0,,,39,0
901120,note_off,,,,,0,0,1,,,,0,,,46,0
901120,note_off,,,,,0,0,1,,,,0,,,51,0
901120,note_on,,,,,0,0,1,,,,0,,,39,50
901165,control_change,,,,,45,0,1,,,,0,64,0,,
901461,note_on,,,,,296,0,1,,,,0,,,46,50
901491,control_change,,,,,30,0,1,,,,0,64,127,,
901803,note_on,,,,,312,0,1,,,,0,,,51,50
901888,note_on,,,,,85,0,1,,,,0,,,70,54
901888,note_on,,,,,0,0,1,,,,0,,,82,68
901888,set_tempo,,,,,1792,1,0,,375000,,,,,,
902055,control_change,,,,,167,0,1,,,,0,64,0,,
902144,note_on,,,,,0,0,1,,,,0,,,43,62
902144,note_on,,,,,0,0,1,,,,0,,,82,76
902144,note_on,,,,,0,0,1,,,,0,,,70,62
902144,note_off,,,,,0,0,1,,,,0,,,51,0
902144,note_off,,,,,0,0,1,,,,0,,,46,0
902144,note_off,,,,,0,0,1,,,,0,,,39,0
902144,control_change,,,,,0,0,1,,,,0,64,0,,
902144,note_off,,,,,0,0,1,,,,0,,,70,0
902144,control_change,,,,,0,0,1,,,,0,64,0,,
902144,control_change,,,,,0,0,1,,,,0,64,0,,
902144,control_change,,,,,0,0,1,,,,0,64,0,,
902144,control_change,,,,,89,0,1,,,,0,64,0,,
902144,note_off,,,,,0,0,1,,,,0,,,82,0
902144,set_tempo,,,,,256,1,0,,333333,,,,,,
902352,control_change,,,,,208,0,1,,,,0,64,127,,
902485,note_on,,,,,133,0,1,,,,0,,,46,50
902656,set_tempo,,,,,512,1,0,,375000,,,,,,
902656,note_off,,,,,0,0,1,,,,0,,,82,0
902656,note_off,,,,,171,0,1,,,,0,,,70,0
902738,control_change,,,,,82,0,1,,,,0,64,0,,
902827,note_on,,,,,89,0,1,,,,0,,,51,50
902957,control_change,,,,,130,0,1,,,,0,64,127,,
903168,note_on,,,,,211,0,1,,,,0,,,79,64
903168,note_on,,,,,0,0,1,,,,0,,,91,78
903168,note_on,,,,,0,0,1,,,,0,,,43,50
903168,note_off,,,,,0,0,1,,,,0,,,43,0
903168,note_off,,,,,0,0,1,,,,0,,,46,0
903168,note_off,,,,,0,0,1,,,,0,,,51,0
903168,set_tempo,,,,,512,1,0,,333333,,,,,,
903509,note_on,,,,,341,0,1,,,,0,,,46,50
903851,note_on,,,,,342,0,1,,,,0,,,51,50
904192,note_on,,,,,0,0,1,,,,0,,,44,62
904192,note_off,,,,,0,0,1,,,,0,,,51,0
904192,control_change,,,,,0,0,1,,,,0,64,0,,
904192,note_off,,,,,0,0,1,,,,0,,,43,0
904192,control_change,,,,,0,0,1,,,,0,64,0,,
904192,control_change,,,,,0,0,1,,,,0,64,127,,
904192,control_change,,,,,0,0,1,,,,0,64,0,,
904192,control_change,,,,,341,0,1,,,,0,64,0,,
904192,note_off,,,,,0,0,1,,,,0,,,46,0
904400,control_change,,,,,208,0,1,,,,0,64,0,,
904533,note_on,,,,,133,0,1,,,,0,,,48,50
904637,control_change,,,,,104,0,1,,,,0,64,127,,
904875,note_on,,,,,238,0,1,,,,0,,,53,50
905216,note_on,,,,,0,0,1,,,,0,,,44,50
905216,note_on,,,,,0,0,1,,,,0,,,89,72
905216,note_off,,,,,0,0,1,,,,0,,,91,0
905216,note_off,,,,,0,0,1,,,,0,,,53,0
905216,note_off,,,,,0,0,1,,,,0,,,44,0
905216,note_off,,,,,0,0,1,,,,0,,,48,0
905216,note_on,,,,,0,0,1,,,,0,,,77,58
905216,note_off,,,,,341,0,1,,,,0,,,79,0
905261,control_change,,,,,45,0,1,,,,0,64,0,,
905557,note_on,,,,,296,0,1,,,,0,,,48,50
905728,note_on,,,,,0,0,1,,,,0,,,75,56
905728,note_on,,,,,0,0,1,,,,0,,,87,68
905728,note_off,,,,,171,0,1,,,,0,,,77,0
905728,note_off,,,,,0,0,1,,,,0,,,89,0
905899,note_on,,,,,171,0,1,,,,0,,,53,50
906240,set_tempo,,,,,3072,1,0,,333333,,,,,,
906240,note_on,,,,,0,0,1,,,,0,,,46,62
906240,note_on,,,,,0,0,1,,,,0,,,86,76
906240,note_on,,,,,0,0,1,,,,0,,,74,62
906240,note_off,,,,,0,0,1,,,,0,,,53,0
906240,note_off,,,,,0,0,1,,,,0,,,48,0
906240,note_off,,,,,0,0,1,,,,0,,,87,0
906240,note_off,,,,,0,0,1,,,,0,,,75,0
906240,control_change,,,,,0,0,1,,,,0,64,0,,
906240,control_change,,,,,0,0,1,,,,0,64,0,,
906240,control_change,,,,,0,0,1,,,,0,64,0,,
906240,control_change,,,,,0,0,1,,,,0,64,0,,
906240,control_change,,,,,341,0,1,,,,0,64,0,,
906240,note_off,,,,,0,0,1,,,,0,,,44,0
906581,note_on,,,,,341,0,1,,,,0,,,53,50
906923,note_on,,,,,342,0,1,,,,0,,,56,50
907008,set_tempo,,,,,768,1,0,,375000,,,,,,
907008,note_on,,,,,0,0,1,,,,0,,,77,54
907008,note_off,,,,,85,0,1,,,,0,,,74,0
907008,note_off,,,,,0,0,1,,,,0,,,86,0
907008,note_on,,,,,0,0,1,,,,0,,,89,68
907264,note_off,,,,,0,0,1,,,,0,,,53,0
907264,note_off,,,,,0,0,1,,,,0,,,89,0
907264,set_tempo,,,,,256,1,0,,333333,,,,,,
907264,note_off,,,,,0,0,1,,,,0,,,46,0
907264,note_off,,,,,256,0,1,,,,0,,,77,0
907264,note_on,,,,,0,0,1,,,,0,,,46,50
907264,note_on,,,,,0,0,1,,,,0,,,86,72
907264,note_on,,,,,0,0,1,,,,0,,,74,58
907264,note_off,,,,,0,0,1,,,,0,,,56,0
907605,note_on,,,,,341,0,1,,,,0,,,53,50
907947,note_on,,,,,342,0,1,,,,0,,,56,50
908032,note_off,,,,,0,0,1,,,,0,,,86,0
908032,note_on,,,,,0,0,1,,,,0,,,77,54
908032,set_tempo,,,,,768,1,0,,375000,,,,,,
908032,note_off,,,,,85,0,1,,,,0,,,74,0
908032,note_on,,,,,0,0,1,,,,0,,,89,68
908288,note_on,,,,,0,0,1,,,,0,,,51,51
908288,set_tempo,,,,,256,1,0,,333333,,,,,,
908288,note_on,,,,,0,0,1,,,,0,,,75,49
908288,note_off,,,,,0,0,1,,,,0,,,56,0
908288,note_off,,,,,0,0,1,,,,0,,,89,0
908288,note_off,,,,,0,0,1,,,,0,,,77,0
908288,control_change,,,,,0,0,1,,,,0,64,0,,
908288,control_change,,,,,0,0,1,,,,0,64,0,,
908288,control_change,,,,,0,0,1,,,,0,64,0,,
908288,control_change,,,,,256,0,1,,,,0,64,0,,
908288,note_on,,,,,0,0,1,,,,0,,,87,64
908288,note_off,,,,,0,0,1,,,,0,,,46,0
908288,note_off,,,,,0,0,1,,,,0,,,53,0
908565,control_change,,,,,0,0,1,,,,0,64,127,,
908565,control_change,,,,,277,0,1,,,,0,64,127,,
908629,note_on,,,,,64,0,1,,,,0,,,55,49
908971,note_on,,,,,0,0,1,,,,0,,,63,46
908971,note_off,,,,,342,0,1,,,,0,,,55,0
909019,control_change,,,,,48,0,1,,,,0,64,127,,
909146,control_change,,,,,127,0,1,,,,0,64,0,,
909192,note_off,,,,,46,0,1,,,,0,,,75,0
909192,note_off,,,,,0,0,1,,,,0,,,87,0
909312,note_on,,,,,120,0,1,,,,0,,,75,50
909312,note_off,,,,,0,0,1,,,,0,,,63,0
909312,note_off,,,,,0,0,1,,,,0,,,51,0
909312,note_on,,,,,0,0,1,,,,0,,,53,54
909312,note_on,,,,,0,0,1,,,,0,,,87,66
909561,control_change,,,,,249,0,1,,,,0,64,127,,
909653,note_on,,,,,92,0,1,,,,0,,,56,51
909995,note_on,,,,,0,0,1,,,,0,,,63,48
909995,note_off,,,,,342,0,1,,,,0,,,56,0
910142,control_change,,,,,0,0,1,,,,0,64,0,,
910142,control_change,,,,,147,0,1,,,,0,64,0,,
910216,note_off,,,,,0,0,1,,,,0,,,87,0
910216,note_off,,,,,74,0,1,,,,0,,,75,0
910336,note_on,,,,,0,0,1,,,,0,,,54,56
910336,note_on,,,,,0,0,1,,,,0,,,75,52
910336,note_off,,,,,0,0,1,,,,0,,,63,0
910336,control_change,,,,,120,0,1,,,,0,64,0,,
910336,control_change,,,,,0,0,1,,,,0,64,0,,
910336,note_off,,,,,0,0,1,,,,0,,,53,0
910336,control_change,,,,,0,0,1,,,,0,64,0,,
910336,control_change,,,,,0,0,1,,,,0,64,0,,
910336,control_change,,,,,0,0,1,,,,0,64,0,,
910336,control_change,,,,,0,0,1,,,,0,64,0,,
910336,control_change,,,,,0,0,1,,,,0,64,0,,
910336,note_on,,,,,0,0,1,,,,0,,,87,68
910613,control_change,,,,,0,0,1,,,,0,64,127,,
910613,control_change,,,,,277,0,1,,,,0,64,127,,
910613,control_change,,,,,0,0,1,,,,0,64,127,,
910677,note_on,,,,,64,0,1,,,,0,,,57,53
911019,note_off,,,,,342,0,1,,,,0,,,57,0
911019,note_on,,,,,0,0,1,,,,0,,,63,50
911067,control_change,,,,,48,0,1,,,,0,64,127,,
911194,control_change,,,,,0,0,1,,,,0,64,0,,
911194,control_change,,,,,127,0,1,,,,0,64,0,,
911240,note_off,,,,,0,0,1,,,,0,,,87,0
911240,note_off,,,,,46,0,1,,,,0,,,75,0
911360,note_off,,,,,0,0,1,,,,0,,,54,0
911360,note_off,,,,,0,0,1,,,,0,,,63,0
911360,note_on,,,,,0,0,1,,,,0,,,55,59
911360,note_on,,,,,0,0,1,,,,0,,,87,70
911360,note_on,,,,,120,0,1,,,,0,,,75,54
911609,control_change,,,,,0,0,1,,,,0,64,127,,
911609,control_change,,,,,249,0,1,,,,0,64,127,,
911701,note_on,,,,,92,0,1,,,,0,,,58,56
912043,note_on,,,,,0,0,1,,,,0,,,63,52
912043,note_off,,,,,342,0,1,,,,0,,,58,0
912190,control_change,,,,,147,0,1,,,,0,64,0,,
912190,control_change,,,,,0,0,1,,,,0,64,0,,
912190,control_change,,,,,0,0,1,,,,0,64,0,,
912264,note_off,,,,,0,0,1,,,,0,,,87,0
912264,note_off,,,,,74,0,1,,,,0,,,75,0
912384,control_change,,,,,0,0,1,,,,0,64,0,,
912384,control_change,,,,,0,0,1,,,,0,64,0,,
912384,control_change,,,,,120,0,1,,,,0,64,0,,
912384,note_off,,,,,0,0,1,,,,0,,,55,0
912384,note_on,,,,,0,0,1,,,,0,,,77,51
912384,note_on,,,,,0,0,1,,,,0,,,56,61
912384,note_on,,,,,0,0,1,,,,0,,,89,67
912384,set_tempo,,,,,4096,1,0,,375000,,,,,,
912384,note_off,,,,,0,0,1,,,,0,,,63,0
912661,control_change,,,,,277,0,1,,,,0,64,127,,
912725,note_on,,,,,64,0,1,,,,0,,,63,58
912816,note_off,,,,,0,0,1,,,,0,,,89,0
912816,note_off,,,,,91,0,1,,,,0,,,77,0
912896,set_tempo,,,,,512,1,0,,333333,,,,,,
912896,note_on,,,,,80,0,1,,,,0,,,77,52
912896,note_on,,,,,0,0,1,,,,0,,,89,68
913067,note_off,,,,,171,0,1,,,,0,,,63,0
913067,note_on,,,,,0,0,1,,,,0,,,65,54
913242,control_change,,,,,175,0,1,,,,0,64,0,,
913328,note_off,,,,,86,0,1,,,,0,,,77,0
913328,note_off,,,,,0,0,1,,,,0,,,89,0
913408,note_off,,,,,0,0,1,,,,0,,,65,0
913408,note_on,,,,,0,0,1,,,,0,,,58,64
913408,note_on,,,,,80,0,1,,,,0,,,77,53
913408,note_off,,,,,0,0,1,,,,0,,,56,0
913408,note_on,,,,,0,0,1,,,,0,,,89,69
913657,control_change,,,,,249,0,1,,,,0,64,127,,
913749,note_on,,,,,92,0,1,,,,0,,,63,61
913840,note_off,,,,,91,0,1,,,,0,,,77,0
913840,note_off,,,,,0,0,1,,,,0,,,89,0
913920,note_on,,,,,80,0,1,,,,0,,,77,54
913920,note_on,,,,,0,0,1,,,,0,,,89,70
914091,note_on,,,,,0,0,1,,,,0,,,65,56
914091,note_off,,,,,171,0,1,,,,0,,,63,0
914238,control_change,,,,,147,0,1,,,,0,64,0,,
914352,note_off,,,,,0,0,1,,,,0,,,89,0
914352,note_off,,,,,114,0,1,,,,0,,,77,0
914432,note_on,,,,,0,0,1,,,,0,,,89,72
914432,note_on,,,,,0,0,1,,,,0,,,59,66
914432,note_off,,,,,0,0,1,,,,0,,,65,0
914432,control_change,,,,,0,0,1,,,,0,64,0,,
914432,control_change,,,,,0,0,1,,,,0,64,0,,
914432,note_on,,,,,0,0,1,,,,0,,,77,55
914432,note_off,,,,,0,0,1,,,,0,,,58,0
914432,control_change,,,,,80,0,1,,,,0,64,0,,
914709,control_change,,,,,277,0,1,,,,0,64,127,,
914773,note_on,,,,,64,0,1,,,,0,,,63,63
914864,note_off,,,,,91,0,1,,,,0,,,77,0
914864,note_off,,,,,0,0,1,,,,0,,,89,0
914944,note_on,,,,,80,0,1,,,,0,,,77,55
914944,note_on,,,,,0,0,1,,,,0,,,89,72
915115,note_off,,,,,171,0,1,,,,0,,,63,0
915115,note_on,,,,,0,0,1,,,,0,,,65,58
915290,control_change,,,,,175,0,1,,,,0,64,0,,
915376,note_off,,,,,86,0,1,,,,0,,,77,0
915376,note_off,,,,,0,0,1,,,,0,,,89,0
915456,note_off,,,,,0,0,1,,,,0,,,65,0
915456,note_off,,,,,0,0,1,,,,0,,,59,0
915456,note_on,,,,,80,0,1,,,,0,,,77,56
915456,note_on,,,,,0,0,1,,,,0,,,89,74
915456,note_on,,,,,0,0,1,,,,0,,,57,68
915705,control_change,,,,,249,0,1,,,,0,64,127,,
915797,note_on,,,,,92,0,1,,,,0,,,63,65
915888,note_off,,,,,0,0,1,,,,0,,,89,0
915888,note_off,,,,,91,0,1,,,,0,,,77,0
915968,note_on,,,,,0,0,1,,,,0,,,89,74
915968,note_on,,,,,80,0,1,,,,0,,,77,57
916139,note_off,,,,,171,0,1,,,,0,,,63,0
916139,note_on,,,,,0,0,1,,,,0,,,65,61
916286,control_change,,,,,147,0,1,,,,0,64,0,,
916352,note_on,,,,,66,0,1,,,,0,,,93,58
916400,note_off,,,,,48,0,1,,,,0,,,77,0
916400,note_off,,,,,0,0,1,,,,0,,,89,0
916480,set_tempo,,,,,3584,1,0,,428571,,,,,,
916480,note_on,,,,,0,0,1,,,,0,,,46,73
916480,note_on,,,,,0,0,1,,,,0,,,34,57
916480,note_on,,,,,0,0,1,,,,0,,,96,76
916480,note_on,,,,,0,0,1,,,,0,,,84,58
916480,note_off,,,,,0,0,1,,,,0,,,93,0
916480,note_off,,,,,0,0,1,,,,0,,,65,0
916480,control_change,,,,,0,0,1,,,,0,64,0,,
916480,control_change,,,,,80,0,1,,,,0,64,0,,
916480,note_off,,,,,0,0,1,,,,0,,,57,0
916635,control_change,,,,,155,0,1,,,,0,64,127,,
916992,note_off,,,,,0,0,1,,,,0,,,46,0
916992,note_off,,,,,357,0,1,,,,0,,,84,0
916992,note_off,,,,,0,0,1,,,,0,,,96,0
916992,note_off,,,,,0,0,1,,,,0,,,34,0
917163,control_change,,,,,171,0,1,,,,0,64,0,,
917504,note_on,,,,,0,0,1,,,,0,,,94,74
917504,note_on,,,,,0,0,1,,,,0,,,68,64
917504,note_on,,,,,0,0,1,,,,0,,,58,52
917504,note_on,,,,,0,0,1,,,,0,,,62,52
917504,set_tempo,,,,,1024,1,0,,375000,,,,,,
917504,note_on,,,,,341,0,1,,,,0,,,82,56
917659,control_change,,,,,155,0,1,,,,0,64,127,,
918373,control_change,,,,,714,0,1,,,,0,64,0,,
918528,control_change,,,,,155,0,1,,,,0,64,0,,
918528,control_change,,,,,0,0,1,,,,0,64,0,,
918702,note_off,,,,,174,0,1,,,,0,,,82,0
918702,note_off,,,,,0,0,1,,,,0,,,94,0
918751,control_change,,,,,49,0,1,,,,0,64,127,,
919040,note_on,,,,,289,0,1,,,,0,,,80,52
919040,note_on,,,,,0,0,1,,,,0,,,92,68
919214,note_off,,,,,174,0,1,,,,0,,,80,0
919214,note_off,,,,,0,0,1,,,,0,,,92,0
919552,note_on,,,,,338,0,1,,,,0,,,79,51
919552,note_on,,,,,0,0,1,,,,0,,,91,67
919726,note_off,,,,,0,0,1,,,,0,,,91,0
919726,note_off,,,,,174,0,1,,,,0,,,79,0
920064,note_on,,,,,338,0,1,,,,0,,,77,50
920064,note_on,,,,,0,0,1,,,,0,,,89,65
920238,note_off,,,,,174,0,1,,,,0,,,77,0
920238,note_off,,,,,0,0,1,,,,0,,,89,0
920315,control_change,,,,,77,0,1,,,,0,64,0,,
920576,set_tempo,,,,,3072,1,0,,333333,,,,,,
920576,note_on,,,,,0,0,1,,,,0,,,87,64
920576,note_on,,,,,0,0,1,,,,0,,,75,49
920576,note_off,,,,,0,0,1,,,,0,,,68,0
920576,note_off,,,,,0,0,1,,,,0,,,62,0
920576,note_on,,,,,0,0,1,,,,0,,,39,42
920576,control_change,,,,,0,0,1,,,,0,64,0,,
920576,control_change,,,,,0,0,1,,,,0,64,0,,
920576,control_change,,,,,0,0,1,,,,0,64,0,,
920576,control_change,,,,,261,0,1,,,,0,64,0,,
920576,note_off,,,,,0,0,1,,,,0,,,58,0
920853,control_change,,,,,277,0,1,,,,0,64,127,,
920917,note_on,,,,,64,0,1,,,,0,,,43,33
921259,note_on,,,,,0,0,1,,,,0,,,51,30
921259,note_off,,,,,342,0,1,,,,0,,,43,0
921434,control_change,,,,,175,0,1,,,,0,64,0,,
921480,note_off,,,,,46,0,1,,,,0,,,75,0
921480,note_off,,,,,0,0,1,,,,0,,,87,0
921600,note_off,,,,,0,0,1,,,,0,,,51,0
921600,note_on,,,,,120,0,1,,,,0,,,63,35
921600,note_on,,,,,0,0,1,,,,0,,,75,51
921600,note_on,,,,,0,0,1,,,,0,,,41,44
921600,note_off,,,,,0,0,1,,,,0,,,39,0
921849,control_change,,,,,249,0,1,,,,0,64,127,,
921941,note_on,,,,,92,0,1,,,,0,,,44,34
922283,note_off,,,,,342,0,1,,,,0,,,44,0
922283,note_on,,,,,0,0,1,,,,0,,,51,31
922430,control_change,,,,,147,0,1,,,,0,64,0,,
922504,note_off,,,,,74,0,1,,,,0,,,63,0
922504,note_off,,,,,0,0,1,,,,0,,,75,0
922624,note_on,,,,,0,0,1,,,,0,,,63,37
922624,note_off,,,,,0,0,1,,,,0,,,51,0
922624,set_tempo,,,,,2048,1,0,,375000,,,,,,
922624,note_on,,,,,0,0,1,,,,0,,,75,53
922624,note_off,,,,,0,0,1,,,,0,,,41,0
922624,note_on,,,,,0,0,1,,,,0,,,42,54
922624,control_change,,,,,0,0,1,,,,0,64,0,,
922624,control_change,,,,,0,0,1,,,,0,64,0,,
922624,control_change,,,,,0,0,1,,,,0,64,0,,
922624,control_change,,,,,120,0,1,,,,0,64,0,,
922624,control_change,,,,,0,0,1,,,,0,64,0,,
922901,control_change,,,,,277,0,1,,,,0,64,127,,
922965,note_on,,,,,64,0,1,,,,0,,,45,35
923307,note_off,,,,,342,0,1,,,,0,,,45,0
923307,note_on,,,,,0,0,1,,,,0,,,51,32
923482,control_change,,,,,175,0,1,,,,0,64,0,,
923528,note_off,,,,,0,0,1,,,,0,,,75,0
923528,note_off,,,,,46,0,1,,,,0,,,63,0
923648,note_on,,,,,120,0,1,,,,0,,,63,39
923648,note_on,,,,,0,0,1,,,,0,,,75,55
923648,note_on,,,,,0,0,1,,,,0,,,43,48
923648,note_off,,,,,0,0,1,,,,0,,,42,0
923648,note_off,,,,,0,0,1,,,,0,,,51,0
923648,set_tempo,,,,,1024,1,0,,352941,,,,,,
923897,control_change,,,,,249,0,1,,,,0,64,127,,
923989,note_on,,,,,92,0,1,,,,0,,,46,38
924331,note_on,,,,,0,0,1,,,,0,,,51,33
924331,note_off,,,,,342,0,1,,,,0,,,46,0
924478,control_change,,,,,147,0,1,,,,0,64,0,,
924552,note_off,,,,,74,0,1,,,,0,,,63,0
924552,note_off,,,,,0,0,1,,,,0,,,75,0
924672,set_tempo,,,,,1024,1,0,,375000,,,,,,
924672,note_on,,,,,0,0,1,,,,0,,,77,60
924672,note_on,,,,,0,0,1,,,,0,,,44,49
924672,note_on,,,,,0,0,1,,,,0,,,65,44
924672,control_change,,,,,0,0,1,,,,0,64,0,,
924672,note_off,,,,,0,0,1,,,,0,,,43,0
924672,control_change,,,,,0,0,1,,,,0,64,0,,
924672,control_change,,,,,0,0,1,,,,0,64,0,,
924672,control_change,,,,,120,0,1,,,,0,64,0,,
924672,note_off,,,,,0,0,1,,,,0,,,51,0
924672,control_change,,,,,0,0,1,,,,0,64,0,,
924949,control_change,,,,,277,0,1,,,,0,64,127,,
925013,note_on,,,,,64,0,1,,,,0,,,51,46
925104,note_off,,,,,91,0,1,,,,0,,,65,0
925104,note_off,,,,,0,0,1,,,,0,,,77,0
925184,set_tempo,,,,,512,1,0,,333333,,,,,,
925184,note_on,,,,,80,0,1,,,,0,,,65,45
925184,note_on,,,,,0,0,1,,,,0,,,77,61
925355,note_off,,,,,171,0,1,,,,0,,,51,0
925355,note_on,,,,,0,0,1,,,,0,,,53,42
925530,control_change,,,,,175,0,1,,,,0,64,0,,
925616,note_off,,,,,86,0,1,,,,0,,,65,0
925616,note_off,,,,,0,0,1,,,,0,,,77,0
925696,note_on,,,,,80,0,1,,,,0,,,65,46
925696,note_on,,,,,0,0,1,,,,0,,,77,62
925696,note_on,,,,,0,0,1,,,,0,,,46,51
925696,note_off,,,,,0,0,1,,,,0,,,44,0
925696,note_off,,,,,0,0,1,,,,0,,,53,0
925945,control_change,,,,,249,0,1,,,,0,64,127,,
926037,note_on,,,,,92,0,1,,,,0,,,51,48
926128,note_off,,,,,91,0,1,,,,0,,,65,0
926128,note_off,,,,,0,0,1,,,,0,,,77,0
926208,note_on,,,,,0,0,1,,,,0,,,77,63
926208,note_on,,,,,80,0,1,,,,0,,,65,47
926379,note_on,,,,,0,0,1,,,,0,,,53,43
926379,note_off,,,,,171,0,1,,,,0,,,51,0
926526,control_change,,,,,147,0,1,,,,0,64,0,,
926640,note_off,,,,,114,0,1,,,,0,,,65,0
926640,note_off,,,,,0,0,1,,,,0,,,77,0
926720,note_on,,,,,0,0,1,,,,0,,,77,65
926720,note_on,,,,,0,0,1,,,,0,,,47,52
926720,note_on,,,,,0,0,1,,,,0,,,65,48
926720,control_change,,,,,80,0,1,,,,0,64,0,,
926720,control_change,,,,,0,0,1,,,,0,64,0,,
926720,note_off,,,,,0,0,1,,,,0,,,46,0
926720,control_change,,,,,0,0,1,,,,0,64,0,,
926720,control_change,,,,,0,0,1,,,,0,64,0,,
926720,note_off,,,,,0,0,1,,,,0,,,53,0
926720,control_change,,,,,0,0,1,,,,0,64,0,,
926997,control_change,,,,,277,0,1,,,,0,64,127,,
927061,note_on,,,,,64,0,1,,,,0,,,51,49
927152,note_off,,,,,91,0,1,,,,0,,,65,0
927152,note_off,,,,,0,0,1,,,,0,,,77,0
927232,note_on,,,,,80,0,1,,,,0,,,65,48
927232,note_on,,,,,0,0,1,,,,0,,,77,65
927403,note_off,,,,,171,0,1,,,,0,,,51,0
927403,note_on,,,,,0,0,1,,,,0,,,53,44
927578,control_change,,,,,175,0,1,,,,0,64,0,,
927664,note_off,,,,,86,0,1,,,,0,,,65,0
927664,note_off,,,,,0,0,1,,,,0,,,77,0
927744,note_on,,,,,0,0,1,,,,0,,,46,53
927744,note_off,,,,,0,0,1,,,,0,,,47,0
927744,note_off,,,,,0,0,1,,,,0,,,53,0
927744,note_on,,,,,80,0,1,,,,0,,,65,49
927744,note_on,,,,,0,0,1,,,,0,,,77,67
927993,control_change,,,,,249,0,1,,,,0,64,127,,
928085,note_on,,,,,92,0,1,,,,0,,,51,50
928176,note_off,,,,,0,0,1,,,,0,,,77,0
928176,note_off,,,,,91,0,1,,,,0,,,65,0
928256,note_on,,,,,0,0,1,,,,0,,,77,67
928256,note_on,,,,,80,0,1,,,,0,,,65,50
928427,note_off,,,,,171,0,1,,,,0,,,51,0
928427,note_on,,,,,0,0,1,,,,0,,,53,46
928574,control_change,,,,,147,0,1,,,,0,64,0,,
928688,note_off,,,,,114,0,1,,,,0,,,65,0
928688,note_off,,,,,0,0,1,,,,0,,,77,0
928768,control_change,,,,,80,0,1,,,,0,64,0,,
928768,control_change,,,,,0,0,1,,,,0,64,0,,
928768,control_change,,,,,0,0,1,,,,0,64,0,,
928768,control_change,,,,,0,0,1,,,,0,64,0,,
928768,note_on,,,,,0,0,1,,,,0,,,45,47
928768,control_change,,,,,0,0,1,,,,0,64,0,,
928768,note_off,,,,,0,0,1,,,,0,,,46,0
928768,note_off,,,,,0,0,1,,,,0,,,53,0
928768,note_on,,,,,0,0,1,,,,0,,,65,44
928768,note_on,,,,,0,0,1,,,,0,,,77,60
929045,control_change,,,,,277,0,1,,,,0,64,127,,
929109,note_on,,,,,64,0,1,,,,0,,,51,45
929280,note_on,,,,,0,0,1,,,,0,,,77,61
929280,note_off,,,,,171,0,1,,,,0,,,65,0
929280,note_off,,,,,0,0,1,,,,0,,,77,0
929280,note_on,,,,,0,0,1,,,,0,,,65,45
929451,note_on,,,,,0,0,1,,,,0,,,53,42
929451,note_off,,,,,171,0,1,,,,0,,,51,0
929626,control_change,,,,,175,0,1,,,,0,64,0,,
929792,note_off,,,,,166,0,1,,,,0,,,65,0
929792,note_off,,,,,0,0,1,,,,0,,,77,0
929792,note_off,,,,,0,0,1,,,,0,,,45,0
929792,note_off,,,,,0,0,1,,,,0,,,53,0
929792,note_on,,,,,0,0,1,,,,0,,,65,46
929792,note_on,,,,,0,0,1,,,,0,,,77,62
929792,note_on,,,,,0,0,1,,,,0,,,46,50
930041,control_change,,,,,249,0,1,,,,0,64,127,,
930133,note_on,,,,,92,0,1,,,,0,,,51,47
930304,note_on,,,,,0,0,1,,,,0,,,77,63
930304,note_off,,,,,171,0,1,,,,0,,,65,0
930304,note_off,,,,,0,0,1,,,,0,,,77,0
930304,note_on,,,,,0,0,1,,,,0,,,65,47
930475,note_off,,,,,171,0,1,,,,0,,,51,0
930475,note_on,,,,,0,0,1,,,,0,,,53,44
930622,control_change,,,,,147,0,1,,,,0,64,0,,
930816,note_off,,,,,0,0,1,,,,0,,,46,0
930816,note_on,,,,,0,0,1,,,,0,,,77,65
930816,note_on,,,,,0,0,1,,,,0,,,65,48
930816,note_off,,,,,0,0,1,,,,0,,,53,0
930816,note_off,,,,,0,0,1,,,,0,,,77,0
930816,note_on,,,,,0,0,1,,,,0,,,48,52
930816,control_change,,,,,0,0,1,,,,0,64,0,,
930816,control_change,,,,,0,0,1,,,,0,64,0,,
930816,control_change,,,,,0,0,1,,,,0,64,0,,
930816,control_change,,,,,0,0,1,,,,0,64,0,,
930816,note_off,,,,,0,0,1,,,,0,,,65,0
930816,control_change,,,,,194,0,1,,,,0,64,0,,
931093,control_change,,,,,277,0,1,,,,0,64,127,,
931157,note_on,,,,,64,0,1,,,,0,,,51,49
931328,note_off,,,,,171,0,1,,,,0,,,65,0
931328,note_off,,,,,0,0,1,,,,0,,,77,0
931328,note_on,,,,,0,0,1,,,,0,,,65,48
931328,note_on,,,,,0,0,1,,,,0,,,77,65
931499,note_off,,,,,171,0,1,,,,0,,,51,0
931499,note_on,,,,,0,0,1,,,,0,,,53,46
931674,control_change,,,,,175,0,1,,,,0,64,0,,
931840,note_on,,,,,0,0,1,,,,0,,,45,55
931840,note_on,,,,,0,0,1,,,,0,,,77,67
931840,note_on,,,,,0,0,1,,,,0,,,65,49
931840,note_off,,,,,0,0,1,,,,0,,,53,0
931840,note_off,,,,,0,0,1,,,,0,,,48,0
931840,note_off,,,,,0,0,1,,,,0,,,77,0
931840,note_off,,,,,166,0,1,,,,0,,,65,0
932089,control_change,,,,,249,0,1,,,,0,64,127,,
932181,note_on,,,,,92,0,1,,,,0,,,51,52
932352,note_off,,,,,171,0,1,,,,0,,,65,0
932352,note_off,,,,,0,0,1,,,,0,,,77,0
932352,note_on,,,,,0,0,1,,,,0,,,65,50
932352,note_on,,,,,0,0,1,,,,0,,,77,67
932523,note_on,,,,,0,0,1,,,,0,,,53,48
932523,note_off,,,,,171,0,1,,,,0,,,51,0
932670,control_change,,,,,147,0,1,,,,0,64,0,,
932864,note_off,,,,,0,0,1,,,,0,,,45,0
932864,note_on,,,,,0,0,1,,,,0,,,46,47
932864,note_on,,,,,0,0,1,,,,0,,,79,48
932864,note_on,,,,,0,0,1,,,,0,,,67,35
932864,note_off,,,,,0,0,1,,,,0,,,53,0
932864,note_off,,,,,0,0,1,,,,0,,,65,0
932864,control_change,,,,,0,0,1,,,,0,64,0,,
932864,control_change,,,,,0,0,1,,,,0,64,0,,
932864,control_change,,,,,0,0,1,,,,0,64,0,,
932864,control_change,,,,,0,0,1,,,,0,64,0,,
932864,control_change,,,,,194,0,1,,,,0,64,0,,
932864,note_off,,,,,0,0,1,,,,0,,,77,0
933141,control_change,,,,,277,0,1,,,,0,64,127,,
933205,note_on,,,,,64,0,1,,,,0,,,52,45
933376,note_on,,,,,0,0,1,,,,0,,,79,53
933376,note_off,,,,,0,0,1,,,,0,,,79,0
933376,note_off,,,,,171,0,1,,,,0,,,67,0
933376,note_on,,,,,0,0,1,,,,0,,,67,39
933547,note_off,,,,,171,0,1,,,,0,,,52,0
933547,note_on,,,,,0,0,1,,,,0,,,55,41
933722,control_change,,,,,175,0,1,,,,0,64,0,,
933888,note_on,,,,,0,0,1,,,,0,,,79,58
933888,note_on,,,,,0,0,1,,,,0,,,48,51
933888,note_on,,,,,0,0,1,,,,0,,,67,43
933888,note_off,,,,,0,0,1,,,,0,,,55,0
933888,note_off,,,,,0,0,1,,,,0,,,46,0
933888,note_off,,,,,0,0,1,,,,0,,,79,0
933888,note_off,,,,,166,0,1,,,,0,,,67,0
934137,control_change,,,,,249,0,1,,,,0,64,127,,
934229,note_on,,,,,92,0,1,,,,0,,,52,49
934400,note_off,,,,,171,0,1,,,,0,,,67,0
934400,note_off,,,,,0,0,1,,,,0,,,79,0
934400,note_on,,,,,0,0,1,,,,0,,,67,47
934400,note_on,,,,,0,0,1,,,,0,,,79,63
934571,note_off,,,,,171,0,1,,,,0,,,52,0
934571,note_on,,,,,0,0,1,,,,0,,,55,45
934718,control_change,,,,,147,0,1,,,,0,64,0,,
934912,note_off,,,,,0,0,1,,,,0,,,55,0
934912,note_on,,,,,0,0,1,,,,0,,,49,55
934912,note_on,,,,,0,0,1,,,,0,,,79,65
934912,note_on,,,,,0,0,1,,,,0,,,67,48
934912,note_off,,,,,0,0,1,,,,0,,,48,0
934912,control_change,,,,,194,0,1,,,,0,64,0,,
934912,note_off,,,,,0,0,1,,,,0,,,67,0
934912,control_change,,,,,0,0,1,,,,0,64,0,,
934912,control_change,,,,,0,0,1,,,,0,64,0,,
934912,control_change,,,,,0,0,1,,,,0,64,0,,
934912,control_change,,,,,0,0,1,,,,0,64,0,,
934912,note_off,,,,,0,0,1,,,,0,,,79,0
935189,control_change,,,,,277,0,1,,,,0,64,127,,
935253,note_on,,,,,64,0,1,,,,0,,,52,53
935424,note_off,,,,,171,0,1,,,,0,,,67,0
935424,note_off,,,,,0,0,1,,,,0,,,79,0
935424,note_on,,,,,0,0,1,,,,0,,,67,48
935424,note_on,,,,,0,0,1,,,,0,,,79,65
935595,note_off,,,,,171,0,1,,,,0,,,52,0
935595,note_on,,,,,0,0,1,,,,0,,,55,49
935770,control_change,,,,,175,0,1,,,,0,64,0,,
935936,note_off,,,,,166,0,1,,,,0,,,67,0
935936,note_off,,,,,0,0,1,,,,0,,,79,0
935936,note_off,,,,,0,0,1,,,,0,,,49,0
935936,note_on,,,,,0,0,1,,,,0,,,67,49
935936,note_on,,,,,0,0,1,,,,0,,,48,59
935936,note_on,,,,,0,0,1,,,,0,,,79,67
935936,note_off,,,,,0,0,1,,,,0,,,55,0
936185,control_change,,,,,249,0,1,,,,0,64,127,,
936277,note_on,,,,,92,0,1,,,,0,,,52,57
936448,note_off,,,,,171,0,1,,,,0,,,67,0
936448,note_on,,,,,0,0,1,,,,0,,,67,50
936448,note_off,,,,,0,0,1,,,,0,,,79,0
936448,note_on,,,,,0,0,1,,,,0,,,79,67
936619,note_off,,,,,171,0,1,,,,0,,,52,0
936619,note_on,,,,,0,0,1,,,,0,,,55,53
936766,control_change,,,,,147,0,1,,,,0,64,0,,
936960,note_on,,,,,0,0,1,,,,0,,,46,54
936960,note_on,,,,,0,0,1,,,,0,,,67,51
936960,note_off,,,,,0,0,1,,,,0,,,55,0
936960,note_on,,,,,0,0,1,,,,0,,,79,67
936960,note_off,,,,,0,0,1,,,,0,,,79,0
936960,note_off,,,,,0,0,1,,,,0,,,67,0
936960,control_change,,,,,0,0,1,,,,0,64,0,,
936960,control_change,,,,,194,0,1,,,,0,64,0,,
936960,note_off,,,,,0,0,1,,,,0,,,48,0
937301,note_on,,,,,341,0,1,,,,0,,,52,51
937472,note_off,,,,,171,0,1,,,,0,,,67,0
937472,note_off,,,,,0,0,1,,,,0,,,79,0
937472,note_on,,,,,0,0,1,,,,0,,,67,52
937472,note_on,,,,,0,0,1,,,,0,,,79,68
937643,note_off,,,,,171,0,1,,,,0,,,52,0
937643,note_on,,,,,0,0,1,,,,0,,,55,47
937984,note_on,,,,,0,0,1,,,,0,,,79,69
937984,note_on,,,,,0,0,1,,,,0,,,67,53
937984,note_on,,,,,0,0,1,,,,0,,,48,58
937984,note_off,,,,,0,0,1,,,,0,,,46,0
937984,note_off,,,,,0,0,1,,,,0,,,79,0
937984,note_off,,,,,341,0,1,,,,0,,,67,0
937984,note_off,,,,,0,0,1,,,,0,,,55,0
938325,note_on,,,,,341,0,1,,,,0,,,52,56
938496,note_off,,,,,171,0,1,,,,0,,,67,0
938496,note_off,,,,,0,0,1,,,,0,,,79,0
938496,note_on,,,,,0,0,1,,,,0,,,67,54
938496,note_on,,,,,0,0,1,,,,0,,,79,70
938667,note_off,,,,,171,0,1,,,,0,,,52,0
938667,note_on,,,,,0,0,1,,,,0,,,55,51
939008,note_on,,,,,0,0,1,,,,0,,,49,63
939008,note_on,,,,,0,0,1,,,,0,,,79,72
939008,note_on,,,,,0,0,1,,,,0,,,67,55
939008,note_off,,,,,0,0,1,,,,0,,,55,0
939008,note_off,,,,,0,0,1,,,,0,,,48,0
939008,note_off,,,,,0,0,1,,,,0,,,67,0
939008,control_change,,,,,0,0,1,,,,0,64,0,,
939008,control_change,,,,,341,0,1,,,,0,64,0,,
939008,note_off,,,,,0,0,1,,,,0,,,79,0
939349,note_on,,,,,341,0,1,,,,0,,,52,60
939520,note_off,,,,,171,0,1,,,,0,,,67,0
939520,note_off,,,,,0,0,1,,,,0,,,79,0
939520,note_on,,,,,0,0,1,,,,0,,,67,55
939520,note_on,,,,,0,0,1,,,,0,,,79,72
939691,note_off,,,,,171,0,1,,,,0,,,52,0
939691,note_on,,,,,0,0,1,,,,0,,,55,55
940032,note_on,,,,,0,0,1,,,,0,,,67,56
940032,note_off,,,,,0,0,1,,,,0,,,55,0
940032,note_on,,,,,0,0,1,,,,0,,,46,67
940032,note_off,,,,,0,0,1,,,,0,,,79,0
940032,note_off,,,,,0,0,1,,,,0,,,49,0
940032,note_on,,,,,0,0,1,,,,0,,,79,74
940032,note_off,,,,,341,0,1,,,,0,,,67,0
940373,note_on,,,,,341,0,1,,,,0,,,52,64
940544,note_off,,,,,0,0,1,,,,0,,,79,0
940544,note_on,,,,,0,0,1,,,,0,,,67,57
940544,note_on,,,,,0,0,1,,,,0,,,79,74
940544,note_off,,,,,171,0,1,,,,0,,,67,0
940715,note_off,,,,,171,0,1,,,,0,,,52,0
940715,note_on,,,,,0,0,1,,,,0,,,55,60
941056,set_tempo,,,,,15872,1,0,,375000,,,,,,
941056,note_on,,,,,0,0,1,,,,0,,,56,64
941056,note_on,,,,,0,0,1,,,,0,,,51,52
941056,note_on,,,,,0,0,1,,,,0,,,48,52
941056,note_on,,,,,0,0,1,,,,0,,,80,80
941056,note_off,,,,,0,0,1,,,,0,,,46,0
941056,note_off,,,,,0,0,1,,,,0,,,79,0
941056,note_off,,,,,0,0,1,,,,0,,,67,0
941056,control_change,,,,,0,0,1,,,,0,64,0,,
941056,control_change,,,,,341,0,1,,,,0,64,0,,
941056,note_off,,,,,0,0,1,,,,0,,,55,0
941056,note_on,,,,,0,0,1,,,,0,,,68,64
941568,note_off,,,,,512,0,1,,,,0,,,68,0
941568,note_off,,,,,0,0,1,,,,0,,,80,0
941568,note_off,,,,,0,0,1,,,,0,,,48,0
941568,note_off,,,,,0,0,1,,,,0,,,51,0
941568,note_off,,,,,0,0,1,,,,0,,,56,0
942080,note_on,,,,,0,0,1,,,,0,,,51,58
942080,set_tempo,,,,,1024,1,0,,333333,,,,,,
942080,note_on,,,,,0,0,1,,,,0,,,56,70
942080,note_on,,,,,0,0,1,,,,0,,,44,58
942080,note_on,,,,,0,0,1,,,,0,,,80,64
942080,note_on,,,,,512,0,1,,,,0,,,72,64
942080,note_on,,,,,0,0,1,,,,0,,,75,64
942080,note_on,,,,,0,0,1,,,,0,,,84,80
943104,control_change,,,,,1024,0,1,,,,0,64,0,,
943104,control_change,,,,,0,0,1,,,,0,64,0,,
945152,control_change,,,,,0,0,1,,,,0,64,0,,
945152,note_on,,,,,0,0,1,,,,0,,,58,64
945152,control_change,,,,,2048,0,1,,,,0,64,0,,
945152,note_on,,,,,0,0,1,,,,0,,,46,52
945152,note_on,,,,,0,0,1,,,,0,,,70,64
945152,note_on,,,,,0,0,1,,,,0,,,55,52
945152,note_off,,,,,0,0,1,,,,0,,,51,0
945152,note_off,,,,,0,0,1,,,,0,,,44,0
945152,note_off,,,,,0,0,1,,,,0,,,84,0
945152,note_off,,,,,0,0,1,,,,0,,,80,0
945152,note_off,,,,,0,0,1,,,,0,,,75,0
945152,note_off,,,,,0,0,1,,,,0,,,72,0
945152,note_off,,,,,0,0,1,,,,0,,,56,0
945152,note_on,,,,,0,0,1,,,,0,,,82,80
945936,note_off,,,,,0,0,1,,,,0,,,55,0
945936,note_off,,,,,784,0,1,,,,0,,,70,0
945936,note_off,,,,,0,0,1,,,,0,,,82,0
945936,note_off,,,,,0,0,1,,,,0,,,46,0
945936,note_off,,,,,0,0,1,,,,0,,,58,0
946176,note_on,,,,,0,0,1,,,,0,,,80,75
946176,note_on,,,,,240,0,1,,,,0,,,68,59
946176,note_on,,,,,0,0,1,,,,0,,,53,46
946176,note_on,,,,,0,0,1,,,,0,,,46,46
946176,note_on,,,,,0,0,1,,,,0,,,56,58
946448,note_off,,,,,272,0,1,,,,0,,,68,0
946448,note_off,,,,,0,0,1,,,,0,,,80,0
946448,note_off,,,,,0,0,1,,,,0,,,46,0
946448,note_off,,,,,0,0,1,,,,0,,,53,0
946448,note_off,,,,,0,0,1,,,,0,,,56,0
946688,note_on,,,,,0,0,1,,,,0,,,51,46
946688,note_on,,,,,0,0,1,,,,0,,,46,46
946688,note_on,,,,,0,0,1,,,,0,,,79,75
946688,note_on,,,,,0,0,1,,,,0,,,55,58
946688,note_on,,,,,240,0,1,,,,0,,,67,59
946960,note_off,,,,,272,0,1,,,,0,,,67,0
946960,note_off,,,,,0,0,1,,,,0,,,79,0
946960,note_off,,,,,0,0,1,,,,0,,,46,0
946960,note_off,,,,,0,0,1,,,,0,,,51,0
946960,note_off,,,,,0,0,1,,,,0,,,55,0
947200,note_on,,,,,0,0,1,,,,0,,,56,60
947200,control_change,,,,,240,0,1,,,,0,64,0,,
947200,control_change,,,,,0,0,1,,,,0,64,0,,
947200,note_on,,,,,0,0,1,,,,0,,,68,61
947200,note_on,,,,,0,0,1,,,,0,,,80,77
947200,note_on,,,,,0,0,1,,,,0,,,53,48
947200,note_on,,,,,0,0,1,,,,0,,,46,48
947574,note_off,,,,,0,0,1,,,,0,,,53,0
947574,note_off,,,,,0,0,1,,,,0,,,56,0
947574,note_off,,,,,0,0,1,,,,0,,,80,0
947574,note_off,,,,,0,0,1,,,,0,,,46,0
947574,note_off,,,,,374,0,1,,,,0,,,68,0
948224,note_on,,,,,650,0,1,,,,0,,,70,64
948224,note_on,,,,,0,0,1,,,,0,,,82,80
948224,note_on,,,,,0,0,1,,,,0,,,46,52
948224,note_on,,,,,0,0,1,,,,0,,,50,52
948224,note_on,,,,,0,0,1,,,,0,,,58,64
948598,note_off,,,,,374,0,1,,,,0,,,70,0
948598,note_off,,,,,0,0,1,,,,0,,,82,0
948598,note_off,,,,,0,0,1,,,,0,,,46,0
948598,note_off,,,,,0,0,1,,,,0,,,50,0
948598,note_off,,,,,0,0,1,,,,0,,,58,0
949248,note_on,,,,,0,0,1,,,,0,,,79,80
949248,note_on,,,,,0,0,1,,,,0,,,67,64
949248,control_change,,,,,0,0,1,,,,0,64,0,,
949248,note_on,,,,,0,0,1,,,,0,,,51,52
949248,set_tempo,,,,,7168,1,0,,428571,,,,,,
949248,control_change,,,,,650,0,1,,,,0,64,0,,
949248,note_on,,,,,0,0,1,,,,0,,,55,52
949632,note_off,,,,,0,0,1,,,,0,,,51,0
949632,note_off,,,,,0,0,1,,,,0,,,79,0
949632,note_off,,,,,0,0,1,,,,0,,,55,0
949632,note_off,,,,,384,0,1,,,,0,,,67,0
950272,note_on,,,,,0,0,1,,,,0,,,51,62
950272,set_tempo,,,,,1024,1,0,,333333,,,,,,
950272,note_on,,,,,0,0,1,,,,0,,,56,74
950272,note_on,,,,,640,0,1,,,,0,,,75,75
950272,note_on,,,,,0,0,1,,,,0,,,80,75
950272,note_on,,,,,0,0,1,,,,0,,,84,75
950272,note_on,,,,,0,0,1,,,,0,,,87,91
950272,note_on,,,,,0,0,1,,,,0,,,44,62
951296,control_change,,,,,0,0,1,,,,0,64,0,,
951296,control_change,,,,,1024,0,1,,,,0,64,0,,
953344,note_off,,,,,0,0,1,,,,0,,,75,0
953344,control_change,,,,,2048,0,1,,,,0,64,0,,
953344,note_on,,,,,0,0,1,,,,0,,,58,64
953344,note_on,,,,,0,0,1,,,,0,,,55,52
953344,note_on,,,,,0,0,1,,,,0,,,82,80
953344,note_on,,,,,0,0,1,,,,0,,,70,64
953344,note_on,,,,,0,0,1,,,,0,,,46,52
953344,note_off,,,,,0,0,1,,,,0,,,51,0
953344,note_off,,,,,0,0,1,,,,0,,,44,0
953344,note_off,,,,,0,0,1,,,,0,,,87,0
953344,note_off,,,,,0,0,1,,,,0,,,84,0
953344,note_off,,,,,0,0,1,,,,0,,,80,0
953344,note_off,,,,,0,0,1,,,,0,,,56,0
953344,control_change,,,,,0,0,1,,,,0,64,0,,
954128,note_off,,,,,784,0,1,,,,0,,,70,0
954128,note_off,,,,,0,0,1,,,,0,,,82,0
954128,note_off,,,,,0,0,1,,,,0,,,46,0
954128,note_off,,,,,0,0,1,,,,0,,,55,0
954128,note_off,,,,,0,0,1,,,,0,,,58,0
954368,note_on,,,,,0,0,1,,,,0,,,56,58
954368,note_on,,,,,0,0,1,,,,0,,,53,46
954368,note_on,,,,,0,0,1,,,,0,,,80,75
954368,note_on,,,,,240,0,1,,,,0,,,68,59
954368,note_on,,,,,0,0,1,,,,0,,,46,46
954640,note_off,,,,,272,0,1,,,,0,,,68,0
954640,note_off,,,,,0,0,1,,,,0,,,80,0
954640,note_off,,,,,0,0,1,,,,0,,,46,0
954640,note_off,,,,,0,0,1,,,,0,,,53,0
954640,note_off,,,,,0,0,1,,,,0,,,56,0
954880,note_on,,,,,0,0,1,,,,0,,,51,46
954880,note_on,,,,,0,0,1,,,,0,,,55,58
954880,note_on,,,,,0,0,1,,,,0,,,79,75
954880,note_on,,,,,240,0,1,,,,0,,,67,59
954880,note_on,,,,,0,0,1,,,,0,,,46,46
955152,note_off,,,,,272,0,1,,,,0,,,67,0
955152,note_off,,,,,0,0,1,,,,0,,,79,0
955152,note_off,,,,,0,0,1,,,,0,,,46,0
955152,note_off,,,,,0,0,1,,,,0,,,51,0
955152,note_off,,,,,0,0,1,,,,0,,,55,0
955392,control_change,,,,,240,0,1,,,,0,64,0,,
955392,note_on,,,,,0,0,1,,,,0,,,46,48
955392,note_on,,,,,0,0,1,,,,0,,,68,61
955392,note_on,,,,,0,0,1,,,,0,,,80,77
955392,note_on,,,,,0,0,1,,,,0,,,53,48
955392,control_change,,,,,0,0,1,,,,0,64,0,,
955392,note_on,,,,,0,0,1,,,,0,,,56,60
955766,note_off,,,,,0,0,1,,,,0,,,56,0
955766,note_off,,,,,0,0,1,,,,0,,,53,0
955766,note_off,,,,,374,0,1,,,,0,,,68,0
955766,note_off,,,,,0,0,1,,,,0,,,80,0
955766,note_off,,,,,0,0,1,,,,0,,,46,0
956416,note_on,,,,,650,0,1,,,,0,,,70,64
956416,note_on,,,,,0,0,1,,,,0,,,82,80
956416,note_on,,,,,0,0,1,,,,0,,,46,52
956416,note_on,,,,,0,0,1,,,,0,,,50,52
956416,note_on,,,,,0,0,1,,,,0,,,58,64
957440,note_on,,,,,0,0,1,,,,0,,,55,64
957440,note_on,,,,,0,0,1,,,,0,,,51,52
957440,note_on,,,,,0,0,1,,,,0,,,79,80
957440,note_on,,,,,0,0,1,,,,0,,,67,64
957440,control_change,,,,,1024,0,1,,,,0,64,0,,
957440,note_off,,,,,0,0,1,,,,0,,,50,0
957440,control_change,,,,,0,0,1,,,,0,64,0,,
957490,note_off,,,,,50,0,1,,,,0,,,70,0
957490,note_off,,,,,0,0,1,,,,0,,,82,0
957490,note_off,,,,,0,0,1,,,,0,,,58,0
958224,note_off,,,,,0,0,1,,,,0,,,51,0
958224,note_off,,,,,0,0,1,,,,0,,,55,0
958224,note_off,,,,,0,0,1,,,,0,,,46,0
958224,note_off,,,,,734,0,1,,,,0,,,67,0
958224,note_off,,,,,0,0,1,,,,0,,,79,0
958464,note_on,,,,,0,0,1,,,,0,,,56,58
958464,note_on,,,,,0,0,1,,,,0,,,46,46
958464,note_on,,,,,0,0,1,,,,0,,,80,75
958464,note_on,,,,,240,0,1,,,,0,,,68,59
958464,note_on,,,,,0,0,1,,,,0,,,53,46
958736,note_off,,,,,272,0,1,,,,0,,,68,0
958736,note_off,,,,,0,0,1,,,,0,,,80,0
958736,note_off,,,,,0,0,1,,,,0,,,46,0
958736,note_off,,,,,0,0,1,,,,0,,,53,0
958736,note_off,,,,,0,0,1,,,,0,,,56,0
958976,note_on,,,,,0,0,1,,,,0,,,55,58
958976,note_on,,,,,0,0,1,,,,0,,,46,46
958976,note_on,,,,,0,0,1,,,,0,,,79,75
958976,note_on,,,,,0,0,1,,,,0,,,51,46
958976,note_on,,,,,240,0,1,,,,0,,,67,59
959248,note_off,,,,,272,0,1,,,,0,,,67,0
959248,note_off,,,,,0,0,1,,,,0,,,79,0
959248,note_off,,,,,0,0,1,,,,0,,,46,0
959248,note_off,,,,,0,0,1,,,,0,,,51,0
959248,note_off,,,,,0,0,1,,,,0,,,55,0
959488,note_on,,,,,0,0,1,,,,0,,,56,60
959488,control_change,,,,,240,0,1,,,,0,64,0,,
959488,control_change,,,,,0,0,1,,,,0,64,0,,
959488,note_on,,,,,0,0,1,,,,0,,,68,61
959488,note_on,,,,,0,0,1,,,,0,,,80,77
959488,note_on,,,,,0,0,1,,,,0,,,46,48
959488,note_on,,,,,0,0,1,,,,0,,,53,48
959862,note_off,,,,,0,0,1,,,,0,,,56,0
959862,note_off,,,,,0,0,1,,,,0,,,46,0
959862,note_off,,,,,0,0,1,,,,0,,,53,0
959862,note_off,,,,,374,0,1,,,,0,,,68,0
959862,note_off,,,,,0,0,1,,,,0,,,80,0
960512,note_on,,,,,650,0,1,,,,0,,,70,69
960512,note_on,,,,,0,0,1,,,,0,,,82,85
960512,note_on,,,,,0,0,1,,,,0,,,46,57
960512,note_on,,,,,0,0,1,,,,0,,,50,57
960512,note_on,,,,,0,0,1,,,,0,,,58,69
960512,set_tempo,,,,,10240,1,0,,375000,,,,,,
961536,note_on,,,,,0,0,1,,,,0,,,51,52
961536,set_tempo,,,,,1024,1,0,,333333,,,,,,
961536,note_on,,,,,0,0,1,,,,0,,,55,64
961536,note_on,,,,,0,0,1,,,,0,,,79,80
961536,control_change,,,,,1024,0,1,,,,0,64,0,,
961536,note_off,,,,,0,0,1,,,,0,,,50,0
961536,control_change,,,,,0,0,1,,,,0,64,0,,
961536,note_on,,,,,0,0,1,,,,0,,,67,64
961586,note_off,,,,,50,0,1,,,,0,,,70,0
961586,note_off,,,,,0,0,1,,,,0,,,82,0
961586,note_off,,,,,0,0,1,,,,0,,,58,0
962320,note_off,,,,,734,0,1,,,,0,,,67,0
962320,note_off,,,,,0,0,1,,,,0,,,79,0
962320,note_off,,,,,0,0,1,,,,0,,,46,0
962320,note_off,,,,,0,0,1,,,,0,,,51,0
962320,note_off,,,,,0,0,1,,,,0,,,55,0
962560,set_tempo,,,,,1024,1,0,,352941,,,,,,
962560,note_on,,,,,0,0,1,,,,0,,,56,58
962560,note_on,,,,,240,0,1,,,,0,,,68,59
962560,note_on,,,,,0,0,1,,,,0,,,46,46
962560,note_on,,,,,0,0,1,,,,0,,,80,75
962560,note_on,,,,,0,0,1,,,,0,,,53,46
962832,note_off,,,,,272,0,1,,,,0,,,68,0
962832,note_off,,,,,0,0,1,,,,0,,,80,0
962832,note_off,,,,,0,0,1,,,,0,,,46,0
962832,note_off,,,,,0,0,1,,,,0,,,53,0
962832,note_off,,,,,0,0,1,,,,0,,,56,0
963072,note_on,,,,,240,0,1,,,,0,,,67,59
963072,note_on,,,,,0,0,1,,,,0,,,79,75
963072,note_on,,,,,0,0,1,,,,0,,,46,46
963072,note_on,,,,,0,0,1,,,,0,,,51,46
963072,note_on,,,,,0,0,1,,,,0,,,55,58
963344,note_off,,,,,0,0,1,,,,0,,,55,0
963344,note_off,,,,,0,0,1,,,,0,,,51,0
963344,note_off,,,,,0,0,1,,,,0,,,79,0
963344,note_off,,,,,272,0,1,,,,0,,,67,0
963344,note_off,,,,,0,0,1,,,,0,,,46,0
963584,control_change,,,,,240,0,1,,,,0,64,0,,
963584,control_change,,,,,0,0,1,,,,0,64,0,,
963584,note_on,,,,,0,0,1,,,,0,,,68,61
963584,note_on,,,,,0,0,1,,,,0,,,80,77
963584,note_on,,,,,0,0,1,,,,0,,,46,48
963584,note_on,,,,,0,0,1,,,,0,,,56,60
963584,note_on,,,,,0,0,1,,,,0,,,53,48
963958,note_off,,,,,0,0,1,,,,0,,,80,0
963958,note_off,,,,,0,0,1,,,,0,,,46,0
963958,note_off,,,,,0,0,1,,,,0,,,53,0
963958,note_off,,,,,0,0,1,,,,0,,,56,0
963958,note_off,,,,,374,0,1,,,,0,,,68,0
964608,set_tempo,,,,,2048,1,0,,375000,,,,,,
964608,note_on,,,,,0,0,1,,,,0,,,58,69
964608,note_on,,,,,0,0,1,,,,0,,,50,57
964608,note_on,,,,,0,0,1,,,,0,,,46,57
964608,note_on,,,,,650,0,1,,,,0,,,70,69
964608,note_on,,,,,0,0,1,,,,0,,,82,85
965632,control_change,,,,,1024,0,1,,,,0,64,0,,
965632,note_on,,,,,0,0,1,,,,0,,,55,59
965632,note_on,,,,,0,0,1,,,,0,,,79,74
965632,note_on,,,,,0,0,1,,,,0,,,51,59
965632,note_on,,,,,0,0,1,,,,0,,,67,58
965632,note_off,,,,,0,0,1,,,,0,,,50,0
965632,control_change,,,,,0,0,1,,,,0,64,0,,
965682,note_off,,,,,50,0,1,,,,0,,,70,0
965682,note_off,,,,,0,0,1,,,,0,,,82,0
965682,note_off,,,,,0,0,1,,,,0,,,46,0
965682,note_off,,,,,0,0,1,,,,0,,,58,0
966416,note_off,,,,,734,0,1,,,,0,,,67,0
966416,note_off,,,,,0,0,1,,,,0,,,79,0
966416,note_off,,,,,0,0,1,,,,0,,,51,0
966416,note_off,,,,,0,0,1,,,,0,,,55,0
966656,note_on,,,,,0,0,1,,,,0,,,39,58
966656,note_on,,,,,0,0,1,,,,0,,,51,70
966656,note_on,,,,,0,0,1,,,,0,,,82,85
966656,note_on,,,,,0,0,1,,,,0,,,46,58
966656,note_on,,,,,0,0,1,,,,0,,,74,69
966656,note_on,,,,,240,0,1,,,,0,,,70,69
966656,set_tempo,,,,,2048,1,0,,333333,,,,,,
966656,note_on,,,,,0,0,1,,,,0,,,77,69
967680,control_change,,,,,1024,0,1,,,,0,64,0,,
967680,control_change,,,,,0,0,1,,,,0,64,0,,
968004,note_off,,,,,324,0,1,,,,0,,,70,0
968004,note_off,,,,,0,0,1,,,,0,,,74,0
968004,note_off,,,,,0,0,1,,,,0,,,77,0
968004,note_off,,,,,0,0,1,,,,0,,,82,0
968004,note_off,,,,,0,0,1,,,,0,,,39,0
968004,note_off,,,,,0,0,1,,,,0,,,46,0
968004,note_off,,,,,0,0,1,,,,0,,,51,0
968704,note_on,,,,,0,0,1,,,,0,,,51,64
968704,note_on,,,,,0,0,1,,,,0,,,46,52
968704,note_on,,,,,0,0,1,,,,0,,,39,52
968704,note_on,,,,,0,0,1,,,,0,,,74,60
968704,note_on,,,,,0,0,1,,,,0,,,77,60
968704,note_on,,,,,700,0,1,,,,0,,,70,60
968704,note_on,,,,,0,0,1,,,,0,,,82,75
969028,note_off,,,,,324,0,1,,,,0,,,70,0
969028,note_off,,,,,0,0,1,,,,0,,,74,0
969028,note_off,,,,,0,0,1,,,,0,,,77,0
969028,note_off,,,,,0,0,1,,,,0,,,82,0
969028,note_off,,,,,0,0,1,,,,0,,,39,0
969028,note_off,,,,,0,0,1,,,,0,,,46,0
969028,note_off,,,,,0,0,1,,,,0,,,51,0
969728,note_on,,,,,0,0,1,,,,0,,,39,47
969728,note_on,,,,,0,0,1,,,,0,,,46,47
969728,note_on,,,,,0,0,1,,,,0,,,79,58
969728,note_on,,,,,0,0,1,,,,0,,,51,59
969728,note_on,,,,,0,0,1,,,,0,,,70,58
969728,control_change,,,,,0,0,1,,,,0,64,0,,
969728,control_change,,,,,700,0,1,,,,0,64,0,,
969728,set_tempo,,,,,3072,1,0,,375000,,,,,,
969728,note_on,,,,,0,0,1,,,,0,,,75,74
970112,note_off,,,,,384,0,1,,,,0,,,70,0
970112,note_off,,,,,0,0,1,,,,0,,,75,0
970112,note_off,,,,,0,0,1,,,,0,,,79,0
970112,note_off,,,,,0,0,1,,,,0,,,39,0
970112,note_off,,,,,0,0,1,,,,0,,,46,0
970112,note_off,,,,,0,0,1,,,,0,,,51,0
970752,note_on,,,,,0,0,1,,,,0,,,51,63
970752,note_on,,,,,0,0,1,,,,0,,,46,51
970752,note_on,,,,,0,0,1,,,,0,,,39,51
970752,note_on,,,,,0,0,1,,,,0,,,65,62
970752,note_on,,,,,0,0,1,,,,0,,,62,62
970752,note_on,,,,,640,0,1,,,,0,,,58,62
970752,set_tempo,,,,,1024,1,0,,333333,,,,,,
970752,note_on,,,,,0,0,1,,,,0,,,70,78
971776,control_change,,,,,1024,0,1,,,,0,64,0,,
971776,control_change,,,,,0,0,1,,,,0,64,0,,
972100,note_off,,,,,324,0,1,,,,0,,,58,0
972100,note_off,,,,,0,0,1,,,,0,,,62,0
972100,note_off,,,,,0,0,1,,,,0,,,65,0
972100,note_off,,,,,0,0,1,,,,0,,,70,0
972100,note_off,,,,,0,0,1,,,,0,,,39,0
972100,note_off,,,,,0,0,1,,,,0,,,46,0
972100,note_off,,,,,0,0,1,,,,0,,,51,0
972800,note_on,,,,,0,0,1,,,,0,,,51,45
972800,note_on,,,,,0,0,1,,,,0,,,39,33
972800,note_on,,,,,0,0,1,,,,0,,,46,33
972800,note_on,,,,,0,0,1,,,,0,,,65,53
972800,note_on,,,,,0,0,1,,,,0,,,62,53
972800,note_on,,,,,700,0,1,,,,0,,,58,53
972800,note_on,,,,,0,0,1,,,,0,,,70,68
973124,note_off,,,,,324,0,1,,,,0,,,58,0
973124,note_off,,,,,0,0,1,,,,0,,,62,0
973124,note_off,,,,,0,0,1,,,,0,,,65,0
973124,note_off,,,,,0,0,1,,,,0,,,70,0
973124,note_off,,,,,0,0,1,,,,0,,,39,0
973124,note_off,,,,,0,0,1,,,,0,,,46,0
973124,note_off,,,,,0,0,1,,,,0,,,51,0
973824,note_on,,,,,0,0,1,,,,0,,,51,44
973824,note_on,,,,,0,0,1,,,,0,,,39,35
973824,note_on,,,,,0,0,1,,,,0,,,46,35
973824,note_on,,,,,0,0,1,,,,0,,,63,52
973824,note_on,,,,,0,0,1,,,,0,,,58,52
973824,control_change,,,,,0,0,1,,,,0,64,0,,
973824,control_change,,,,,700,0,1,,,,0,64,0,,
973824,note_on,,,,,0,0,1,,,,0,,,67,64
974208,note_off,,,,,0,0,1,,,,0,,,46,0
974208,note_off,,,,,0,0,1,,,,0,,,51,0
974208,note_off,,,,,0,0,1,,,,0,,,67,0
974208,note_off,,,,,0,0,1,,,,0,,,63,0
974208,note_off,,,,,384,0,1,,,,0,,,58,0
974208,note_off,,,,,0,0,1,,,,0,,,39,0
974848,note_on,,,,,640,0,1,,,,0,,,50,45
974848,note_on,,,,,0,0,1,,,,0,,,53,45
974848,note_on,,,,,0,0,1,,,,0,,,58,57
974848,note_on,,,,,0,0,1,,,,0,,,39,36
974848,note_on,,,,,0,0,1,,,,0,,,46,45
975472,note_off,,,,,624,0,1,,,,0,,,50,0
975472,note_off,,,,,0,0,1,,,,0,,,58,0
975472,note_off,,,,,0,0,1,,,,0,,,53,0
975472,note_off,,,,,0,0,1,,,,0,,,46,0
975472,note_off,,,,,0,0,1,,,,0,,,39,0
975872,note_on,,,,,0,0,1,,,,0,,,46,37
975872,note_on,,,,,0,0,1,,,,0,,,39,28
975872,control_change,,,,,0,0,1,,,,0,64,0,,
975872,note_on,,,,,0,0,1,,,,0,,,51,36
975872,note_on,,,,,0,0,1,,,,0,,,55,48
975872,control_change,,,,,400,0,1,,,,0,64,0,,
976496,note_off,,,,,0,0,1,,,,0,,,39,0
976496,note_off,,,,,0,0,1,,,,0,,,46,0
976496,note_off,,,,,624,0,1,,,,0,,,51,0
976496,note_off,,,,,0,0,1,,,,0,,,55,0
976896,note_on,,,,,400,0,1,,,,0,,,50,40
976896,note_on,,,,,0,0,1,,,,0,,,53,40
976896,note_on,,,,,0,0,1,,,,0,,,58,52
976896,note_on,,,,,0,0,1,,,,0,,,39,29
976896,note_on,,,,,0,0,1,,,,0,,,46,38
977520,note_off,,,,,0,0,1,,,,0,,,46,0
977520,note_off,,,,,0,0,1,,,,0,,,39,0
977520,note_off,,,,,624,0,1,,,,0,,,50,0
977520,note_off,,,,,0,0,1,,,,0,,,58,0
977520,note_off,,,,,0,0,1,,,,0,,,53,0
977920,control_change,,,,,400,0,1,,,,0,64,0,,
977920,control_change,,,,,0,0,1,,,,0,64,0,,
977920,note_on,,,,,0,0,1,,,,0,,,51,31
977920,note_on,,,,,0,0,1,,,,0,,,55,43
977920,note_on,,,,,0,0,1,,,,0,,,39,20
977920,note_on,,,,,0,0,1,,,,0,,,46,29
978544,note_off,,,,,0,0,1,,,,0,,,46,0
978544,note_off,,,,,0,0,1,,,,0,,,39,0
978544,note_off,,,,,624,0,1,,,,0,,,51,0
978544,note_off,,,,,0,0,1,,,,0,,,55,0
978944,note_on,,,,,400,0,1,,,,0,,,50,35
978944,note_on,,,,,0,0,1,,,,0,,,53,35
978944,note_on,,,,,0,0,1,,,,0,,,58,47
978944,note_on,,,,,0,0,1,,,,0,,,39,22
978944,note_on,,,,,0,0,1,,,,0,,,46,31
979568,note_off,,,,,624,0,1,,,,0,,,50,0
979568,note_off,,,,,0,0,1,,,,0,,,53,0
979568,note_off,,,,,0,0,1,,,,0,,,58,0
979568,note_off,,,,,0,0,1,,,,0,,,39,0
979568,note_off,,,,,0,0,1,,,,0,,,46,0
979968,note_on,,,,,0,0,1,,,,0,,,46,29
979968,note_on,,,,,0,0,1,,,,0,,,39,20
979968,control_change,,,,,0,0,1,,,,0,64,0,,
979968,note_on,,,,,0,0,1,,,,0,,,51,31
979968,control_change,,,,,400,0,1,,,,0,64,0,,
979968,note_on,,,,,0,0,1,,,,0,,,55,43
980592,note_off,,,,,624,0,1,,,,0,,,51,0
980592,note_off,,,,,0,0,1,,,,0,,,55,0
980592,note_off,,,,,0,0,1,,,,0,,,39,0
980592,note_off,,,,,0,0,1,,,,0,,,46,0
980992,note_on,,,,,0,0,1,,,,0,,,39,22
980992,note_on,,,,,0,0,1,,,,0,,,46,31
980992,note_on,,,,,0,0,1,,,,0,,,53,35
980992,note_on,,,,,0,0,1,,,,0,,,58,47
980992,note_on,,,,,400,0,1,,,,0,,,50,35
981616,note_off,,,,,0,0,1,,,,0,,,46,0
981616,note_off,,,,,0,0,1,,,,0,,,58,0
981616,note_off,,,,,0,0,1,,,,0,,,53,0
981616,note_off,,,,,624,0,1,,,,0,,,50,0
981616,note_off,,,,,0,0,1,,,,0,,,39,0
982016,note_on,,,,,0,0,1,,,,0,,,39,14
982016,note_on,,,,,0,0,1,,,,0,,,46,23
982016,note_on,,,,,400,0,1,,,,0,,,51,27
982016,note_on,,,,,0,0,1,,,,0,,,55,40
982393,control_change,,,,,377,0,1,,,,0,64,127,,
983040,note_off,,,,,647,0,1,,,,0,,,51,0
983040,note_off,,,,,0,0,1,,,,0,,,55,0
983040,note_off,,,,,0,0,1,,,,0,,,39,0
983040,note_off,,,,,0,0,1,,,,0,,,46,0
983256,control_change,,,,,216,0,1,,,,0,64,0,,
984064,note_on,,,,,0,0,1,,,,0,,,46,20
984064,note_on,,,,,0,0,1,,,,0,,,39,12
984064,note_on,,,,,0,0,1,,,,0,,,51,24
984064,control_change,,,,,0,0,1,,,,0,64,0,,
984064,note_on,,,,,0,0,1,,,,0,,,55,35
984064,control_change,,,,,808,0,1,,,,0,64,0,,
984441,control_change,,,,,377,0,1,,,,0,64,127,,
985088,note_off,,,,,647,0,1,,,,0,,,51,0
985088,note_off,,,,,0,0,1,,,,0,,,55,0
985088,note_off,,,,,0,0,1,,,,0,,,39,0
985088,note_off,,,,,0,0,1,,,,0,,,46,0
985304,control_change,,,,,216,0,1,,,,0,64,0,,
986112,control_change,,,,,808,0,1,,,,0,64,0,,
986112,control_change,,,,,0,0,1,,,,0,64,0,,
986112,note_on,,,,,0,0,1,,,,0,,,46,17
986112,note_on,,,,,0,0,1,,,,0,,,51,16
986112,note_on,,,,,0,0,1,,,,0,,,39,10
986112,note_on,,,,,0,0,1,,,,0,,,55,30
986489,control_change,,,,,377,0,1,,,,0,64,127,,
987136,note_off,,,,,647,0,1,,,,0,,,51,0
987136,note_off,,,,,0,0,1,,,,0,,,55,0
987136,note_off,,,,,0,0,1,,,,0,,,39,0
987136,note_off,,,,,0,0,1,,,,0,,,46,0
987352,control_change,,,,,216,0,1,,,,0,64,0,,
988160,note_on,,,,,0,0,1,,,,0,,,46,15
988160,note_on,,,,,0,0,1,,,,0,,,39,9
988160,control_change,,,,,0,0,1,,,,0,64,0,,
988160,control_change,,,,,808,0,1,,,,0,64,0,,
988160,note_on,,,,,0,0,1,,,,0,,,55,25
988160,note_on,,,,,0,0,1,,,,0,,,51,13
988537,control_change,,,,,377,0,1,,,,0,64,127,,
989184,note_off,,,,,647,0,1,,,,0,,,51,0
989184,note_off,,,,,0,0,1,,,,0,,,55,0
989184,note_off,,,,,0,0,1,,,,0,,,39,0
989184,note_off,,,,,0,0,1,,,,0,,,46,0
989400,control_change,,,,,216,0,1,,,,0,64,0,,
990208,set_tempo,,,,,0,1,0,,375000,,,,,,
990208,key_signature,,,,,19456,1,0,Ebm,,,,,,,
990208,note_on,,,,,0,0,1,,,,0,,,46,18
990208,control_change,,,,,808,0,1,,,,0,64,0,,
990208,control_change,,,,,0,0,1,,,,0,64,0,,
990208,control_change,,,,,0,0,1,,,,0,64,0,,
990208,control_change,,,,,0,0,1,,,,0,64,0,,
990208,note_on,,,,,0,0,1,,,,0,,,58,22
990208,note_on,,,,,0,0,1,,,,0,,,61,22
990208,note_on,,,,,0,0,1,,,,0,,,63,35
990208,note_on,,,,,0,0,1,,,,0,,,39,9
990208,note_on,,,,,0,0,1,,,,0,,,55,22
990585,control_change,,,,,377,0,1,,,,0,64,127,,
991232,note_off,,,,,0,0,1,,,,0,,,58,0
991232,note_off,,,,,0,0,1,,,,0,,,63,0
991232,note_off,,,,,0,0,1,,,,0,,,46,0
991232,note_off,,,,,0,0,1,,,,0,,,39,0
991232,note_off,,,,,647,0,1,,,,0,,,55,0
991232,note_off,,,,,0,0,1,,,,0,,,61,0
991448,control_change,,,,,216,0,1,,,,0,64,0,,
992256,note_on,,,,,0,0,1,,,,0,,,46,16
992256,note_on,,,,,0,0,1,,,,0,,,39,7
992256,note_on,,,,,0,0,1,,,,0,,,63,31
992256,note_on,,,,,0,0,1,,,,0,,,61,19
992256,note_on,,,,,0,0,1,,,,0,,,58,22
992256,note_on,,,,,0,0,1,,,,0,,,55,19
992256,control_change,,,,,0,0,1,,,,0,64,0,,
992256,control_change,,,,,0,0,1,,,,0,64,0,,
992256,control_change,,,,,808,0,1,,,,0,64,0,,
992256,control_change,,,,,0,0,1,,,,0,64,0,,
992256,set_tempo,,,,,2048,1,0,,400000,,,,,,
992633,control_change,,,,,377,0,1,,,,0,64,127,,
993280,note_off,,,,,647,0,1,,,,0,,,55,0
993280,note_off,,,,,0,0,1,,,,0,,,58,0
993280,note_off,,,,,0,0,1,,,,0,,,61,0
993280,note_off,,,,,0,0,1,,,,0,,,63,0
993280,note_off,,,,,0,0,1,,,,0,,,39,0
993280,note_off,,,,,0,0,1,,,,0,,,46,0
993496,control_change,,,,,216,0,1,,,,0,64,0,,
994304,control_change,,,,,808,0,1,,,,0,64,0,,
994304,control_change,,,,,0,0,1,,,,0,64,0,,
994304,control_change,,,,,0,0,1,,,,0,64,0,,
994304,control_change,,,,,0,0,1,,,,0,64,0,,
994304,note_on,,,,,0,0,1,,,,0,,,55,17
994304,note_on,,,,,0,0,1,,,,0,,,58,17
994304,note_on,,,,,0,0,1,,,,0,,,61,21
994304,note_on,,,,,0,0,1,,,,0,,,39,5
994304,note_on,,,,,0,0,1,,,,0,,,46,13
994304,note_on,,,,,0,0,1,,,,0,,,63,26
994304,set_tempo,,,,,2048,1,0,,428571,,,,,,
994681,control_change,,,,,377,0,1,,,,0,64,127,,
995328,note_off,,,,,647,0,1,,,,0,,,55,0
995328,note_off,,,,,0,0,1,,,,0,,,58,0
995328,note_off,,,,,0,0,1,,,,0,,,61,0
995328,note_off,,,,,0,0,1,,,,0,,,63,0
995328,note_off,,,,,0,0,1,,,,0,,,39,0
995328,note_off,,,,,0,0,1,,,,0,,,46,0
995544,control_change,,,,,216,0,1,,,,0,64,0,,
996352,control_change,,,,,808,0,1,,,,0,64,0,,
996352,control_change,,,,,0,0,1,,,,0,64,0,,
996352,control_change,,,,,0,0,1,,,,0,64,0,,
996352,note_on,,,,,0,0,1,,,,0,,,55,10
996352,set_tempo,,,,,2048,1,0,,600000,,,,,,
996352,note_on,,,,,0,0,1,,,,0,,,39,5
996352,note_on,,,,,0,0,1,,,,0,,,63,19
996352,note_on,,,,,0,0,1,,,,0,,,61,13
996352,note_on,,,,,0,0,1,,,,0,,,58,12
996352,control_change,,,,,0,0,1,,,,0,64,0,,
996352,note_on,,,,,0,0,1,,,,0,,,46,11
996729,control_change,,,,,377,0,1,,,,0,64,127,,
997376,note_off,,,,,0,0,1,,,,0,,,58,0
997376,set_tempo,,,,,1024,1,0,,857142,,,,,,
997376,note_off,,,,,0,0,1,,,,0,,,46,0
997376,note_off,,,,,647,0,1,,,,0,,,55,0
997376,note_off,,,,,0,0,1,,,,0,,,39,0
997376,note_off,,,,,0,0,1,,,,0,,,61,0
997376,note_off,,,,,0,0,1,,,,0,,,63,0
997592,control_change,,,,,216,0,1,,,,0,64,0,,
998059,note_on,,,,,0,0,1,,,,0,,,51,16
998059,note_on,,,,,0,0,1,,,,0,,,44,16
998059,note_on,,,,,0,0,1,,,,0,,,63,31
998059,note_on,,,,,467,0,1,,,,0,,,60,19
998400,control_change,,,,,341,0,1,,,,0,64,0,,
998400,note_off,,,,,0,0,1,,,,0,,,44,0
998400,control_change,,,,,0,0,1,,,,0,64,0,,
998400,note_on,,,,,0,0,1,,,,0,,,51,15
998400,note_on,,,,,0,0,1,,,,0,,,44,22
998400,note_on,,,,,0,0,1,,,,0,,,63,44
998400,control_change,,,,,0,0,1,,,,0,64,0,,
998400,note_off,,,,,0,0,1,,,,0,,,60,0
998400,note_off,,,,,0,0,1,,,,0,,,63,0
998400,note_on,,,,,0,0,1,,,,0,,,60,25
998400,control_change,,,,,0,0,1,,,,0,64,0,,
998400,note_off,,,,,0,0,1,,,,0,,,51,0
998400,key_signature,,,,,1024,1,0,Ab,,,,,,,
998400,set_tempo,,,,,0,1,0,,750000,,,,,,
998604,control_change,,,,,204,0,1,,,,0,64,127,,
999424,note_on,,,,,0,0,1,,,,0,,,37,27
999424,note_off,,,,,0,0,1,,,,0,,,51,0
999424,note_off,,,,,0,0,1,,,,0,,,44,0
999424,note_on,,,,,0,0,1,,,,0,,,49,15
999424,note_on,,,,,0,0,1,,,,0,,,44,15
999424,set_tempo,,,,,1024,1,0,,857142,,,,,,
999424,note_on,,,,,0,0,1,,,,0,,,65,40
999424,note_on,,,,,820,0,1,,,,0,,,61,21
999430,control_change,,,,,6,0,1,,,,0,64,0,,
999464,note_off,,,,,0,0,1,,,,0,,,63,0
999464,note_off,,,,,34,0,1,,,,0,,,60,0
999647,control_change,,,,,183,0,1,,,,0,64,127,,
1000109,control_change,,,,,462,0,1,,,,0,64,127,,
1000448,set_tempo,,,,,1024,1,0,,750000,,,,,,
1000448,control_change,,,,,0,0,1,,,,0,64,127,,
1000448,note_off,,,,,0,0,1,,,,0,,,37,0
1000448,note_off,,,,,0,0,1,,,,0,,,44,0
1000448,control_change,,,,,339,0,1,,,,0,64,0,,
1000448,note_on,,,,,0,0,1,,,,0,,,60,20
1000448,note_off,,,,,0,0,1,,,,0,,,49,0
1000448,note_on,,,,,0,0,1,,,,0,,,63,39
1000448,note_on,,,,,0,0,1,,,,0,,,44,25
1000448,note_on,,,,,0,0,1,,,,0,,,51,13
1000488,note_off,,,,,40,0,1,,,,0,,,61,0
1000488,note_off,,,,,0,0,1,,,,0,,,65,0
1000512,control_change,,,,,24,0,1,,,,0,64,0,,
1000664,control_change,,,,,152,0,1,,,,0,64,127,,
1001472,note_off,,,,,0,0,1,,,,0,,,63,0
1001472,set_tempo,,,,,1024,1,0,,857142,,,,,,
1001472,note_off,,,,,0,0,1,,,,0,,,51,0
1001472,note_on,,,,,0,0,1,,,,0,,,68,25
1001472,note_on,,,,,0,0,1,,,,0,,,72,44
1001472,note_on,,,,,0,0,1,,,,0,,,44,30
1001472,note_off,,,,,808,0,1,,,,0,,,60,0
1001472,note_off,,,,,0,0,1,,,,0,,,44,0
1001478,control_change,,,,,6,0,1,,,,0,64,0,,
1001580,control_change,,,,,102,0,1,,,,0,64,127,,
1001813,note_on,,,,,0,0,1,,,,0,,,70,42
1001813,note_on,,,,,0,0,1,,,,0,,,46,28
1001813,note_on,,,,,233,0,1,,,,0,,,67,23
1001813,set_tempo,,,,,341,1,0,,750000,,,,,,
1001853,note_off,,,,,0,0,1,,,,0,,,44,0
1001853,note_off,,,,,0,0,1,,,,0,,,72,0
1001853,note_off,,,,,40,0,1,,,,0,,,68,0
1001873,control_change,,,,,20,0,1,,,,0,64,0,,
1001974,control_change,,,,,101,0,1,,,,0,64,127,,
1002155,note_on,,,,,0,0,1,,,,0,,,48,26
1002155,note_on,,,,,0,0,1,,,,0,,,68,40
1002155,note_on,,,,,181,0,1,,,,0,,,65,21
1002195,note_off,,,,,0,0,1,,,,0,,,46,0
1002195,note_off,,,,,0,0,1,,,,0,,,70,0
1002195,note_off,,,,,40,0,1,,,,0,,,67,0
1002216,control_change,,,,,21,0,1,,,,0,64,0,,
1002305,control_change,,,,,89,0,1,,,,0,64,127,,
1002496,control_change,,,,,0,0,1,,,,0,64,127,,
1002496,note_on,,,,,0,0,1,,,,0,,,49,27
1002496,note_on,,,,,0,0,1,,,,0,,,67,44
1002496,note_on,,,,,0,0,1,,,,0,,,63,25
1002496,control_change,,,,,191,0,1,,,,0,64,0,,
1002496,set_tempo,,,,,683,1,0,,857142,,,,,,
1002536,note_off,,,,,0,0,1,,,,0,,,48,0
1002536,note_off,,,,,40,0,1,,,,0,,,65,0
1002536,note_off,,,,,0,0,1,,,,0,,,68,0
1002572,control_change,,,,,36,0,1,,,,0,64,0,,
1002623,control_change,,,,,51,0,1,,,,0,64,0,,
1002739,control_change,,,,,116,0,1,,,,0,64,127,,
1002837,set_tempo,,,,,341,1,0,,750000,,,,,,
1002837,note_on,,,,,98,0,1,,,,0,,,61,23
1002837,note_on,,,,,0,0,1,,,,0,,,65,42
1002837,note_on,,,,,0,0,1,,,,0,,,53,29
1002877,note_off,,,,,40,0,1,,,,0,,,63,0
1002877,note_off,,,,,0,0,1,,,,0,,,67,0
1002877,note_off,,,,,0,0,1,,,,0,,,49,0
1002878,control_change,,,,,1,0,1,,,,0,64,0,,
1002959,control_change,,,,,81,0,1,,,,0,64,0,,
1003075,control_change,,,,,116,0,1,,,,0,64,127,,
1003179,note_on,,,,,104,0,1,,,,0,,,64,39
1003179,note_on,,,,,0,0,1,,,,0,,,58,32
1003219,note_off,,,,,40,0,1,,,,0,,,65,0
1003219,note_off,,,,,0,0,1,,,,0,,,53,0
1003259,control_change,,,,,40,0,1,,,,0,64,0,,
1003306,control_change,,,,,47,0,1,,,,0,64,0,,
1003375,control_change,,,,,69,0,1,,,,0,64,127,,
1003520,note_on,,,,,145,0,1,,,,0,,,65,39
1003520,note_on,,,,,0,0,1,,,,0,,,56,31
1003539,control_change,,,,,19,0,1,,,,0,64,0,,
1003560,note_off,,,,,21,0,1,,,,0,,,64,0
1003560,note_off,,,,,0,0,1,,,,0,,,58,0
1003615,control_change,,,,,55,0,1,,,,0,64,127,,
1003618,control_change,,,,,3,0,1,,,,0,64,0,,
1003757,control_change,,,,,139,0,1,,,,0,64,127,,
1003861,note_on,,,,,0,0,1,,,,0,,,67,35
1003861,note_on,,,,,0,0,1,,,,0,,,53,24
1003861,note_on,,,,,104,0,1,,,,0,,,63,19
1003901,note_off,,,,,0,0,1,,,,0,,,56,0
1003901,note_off,,,,,0,0,1,,,,0,,,65,0
1003901,note_off,,,,,40,0,1,,,,0,,,61,0
1003933,control_change,,,,,32,0,1,,,,0,64,0,,
1004012,control_change,,,,,79,0,1,,,,0,64,0,,
1004116,control_change,,,,,104,0,1,,,,0,64,127,,
1004203,set_tempo,,,,,1366,1,0,,857142,,,,,,
1004203,note_on,,,,,87,0,1,,,,0,,,65,18
1004203,note_on,,,,,0,0,1,,,,0,,,49,15
1004203,note_on,,,,,0,0,1,,,,0,,,68,34
1004243,note_off,,,,,0,0,1,,,,0,,,67,0
1004243,note_off,,,,,40,0,1,,,,0,,,63,0
1004243,note_off,,,,,0,0,1,,,,0,,,53,0
1004277,control_change,,,,,34,0,1,,,,0,64,0,,
1004391,control_change,,,,,114,0,1,,,,0,64,127,,
1004544,note_on,,,,,0,0,1,,,,0,,,60,18
1004544,control_change,,,,,153,0,1,,,,0,64,0,,
1004544,control_change,,,,,0,0,1,,,,0,64,127,,
1004544,note_off,,,,,0,0,1,,,,0,,,65,0
1004544,note_off,,,,,0,0,1,,,,0,,,68,0
1004544,note_off,,,,,0,0,1,,,,0,,,49,0
1004544,note_on,,,,,0,0,1,,,,0,,,44,18
1004544,set_tempo,,,,,341,1,0,,750000,,,,,,
1004544,note_on,,,,,0,0,1,,,,0,,,63,37
1004618,control_change,,,,,74,0,1,,,,0,64,0,,
1004688,control_change,,,,,70,0,1,,,,0,64,0,,
1004977,control_change,,,,,289,0,1,,,,0,64,127,,
1005568,note_off,,,,,0,0,1,,,,0,,,44,0
1005568,note_on,,,,,591,0,1,,,,0,,,61,25
1005568,note_on,,,,,0,0,1,,,,0,,,37,22
1005568,note_on,,,,,0,0,1,,,,0,,,44,13
1005568,note_on,,,,,0,0,1,,,,0,,,65,44
1005568,set_tempo,,,,,1024,1,0,,857142,,,,,,
1005575,control_change,,,,,7,0,1,,,,0,64,0,,
1005608,note_off,,,,,0,0,1,,,,0,,,63,0
1005608,note_off,,,,,33,0,1,,,,0,,,60,0
1005689,control_change,,,,,81,0,1,,,,0,64,0,,
1005886,control_change,,,,,197,0,1,,,,0,64,127,,
1006251,note_off,,,,,0,0,1,,,,0,,,44,0
1006251,note_on,,,,,0,0,1,,,,0,,,51,15
1006251,note_on,,,,,0,0,1,,,,0,,,44,24
1006251,note_on,,,,,0,0,1,,,,0,,,63,37
1006251,note_on,,,,,365,0,1,,,,0,,,60,18
1006251,note_off,,,,,0,0,1,,,,0,,,37,0
1006291,note_off,,,,,0,0,1,,,,0,,,65,0
1006291,note_off,,,,,40,0,1,,,,0,,,61,0
1006297,control_change,,,,,6,0,1,,,,0,64,0,,
1006418,control_change,,,,,121,0,1,,,,0,64,0,,
1006488,control_change,,,,,70,0,1,,,,0,64,127,,
1006592,set_tempo,,,,,1024,1,0,,750000,,,,,,
1006592,note_on,,,,,0,0,1,,,,0,,,51,18
1006592,control_change,,,,,0,0,1,,,,0,64,0,,
1006592,control_change,,,,,104,0,1,,,,0,64,0,,
1006592,note_on,,,,,0,0,1,,,,0,,,61,37
1006592,note_on,,,,,0,0,1,,,,0,,,58,18
1006592,note_off,,,,,0,0,1,,,,0,,,51,0
1006592,note_on,,,,,0,0,1,,,,0,,,43,25
1006592,note_off,,,,,0,0,1,,,,0,,,63,0
1006592,note_off,,,,,0,0,1,,,,0,,,60,0
1006592,control_change,,,,,0,0,1,,,,0,64,0,,
1006592,note_off,,,,,0,0,1,,,,0,,,44,0
1006592,control_change,,,,,0,0,1,,,,0,64,0,,
1006796,control_change,,,,,204,0,1,,,,0,64,127,,
1007616,note_on,,,,,820,0,1,,,,0,,,57,22
1007616,note_on,,,,,0,0,1,,,,0,,,60,22
1007616,note_on,,,,,0,0,1,,,,0,,,63,42
1007616,note_on,,,,,0,0,1,,,,0,,,42,20
1007616,note_on,,,,,0,0,1,,,,0,,,51,28
1007616,note_off,,,,,0,0,1,,,,0,,,51,0
1007616,note_off,,,,,0,0,1,,,,0,,,43,0
1007616,set_tempo,,,,,1024,1,0,,923076,,,,,,
1007622,control_change,,,,,6,0,1,,,,0,64,0,,
1007656,note_off,,,,,0,0,1,,,,0,,,61,0
1007656,note_off,,,,,34,0,1,,,,0,,,58,0
1007839,control_change,,,,,183,0,1,,,,0,64,127,,
1008301,control_change,,,,,462,0,1,,,,0,64,127,,
1008640,set_tempo,,,,,1024,1,0,,750000,,,,,,
1008640,note_on,,,,,0,0,1,,,,0,,,51,12
1008640,note_on,,,,,0,0,1,,,,0,,,43,20
1008640,note_on,,,,,0,0,1,,,,0,,,61,35
1008640,note_off,,,,,0,0,1,,,,0,,,51,0
1008640,note_off,,,,,0,0,1,,,,0,,,42,0
1008640,control_change,,,,,0,0,1,,,,0,64,0,,
1008640,control_change,,,,,0,0,1,,,,0,64,127,,
1008640,control_change,,,,,339,0,1,,,,0,64,0,,
1008640,note_on,,,,,0,0,1,,,,0,,,58,16
1008680,note_off,,,,,0,0,1,,,,0,,,63,0
1008680,note_off,,,,,0,0,1,,,,0,,,60,0
1008680,note_off,,,,,40,0,1,,,,0,,,57,0
1008704,control_change,,,,,24,0,1,,,,0,64,0,,
1008856,control_change,,,,,152,0,1,,,,0,64,127,,
1009664,note_off,,,,,0,0,1,,,,0,,,43,0
1009664,note_off,,,,,0,0,1,,,,0,,,61,0
1009664,note_off,,,,,808,0,1,,,,0,,,58,0
1009664,note_on,,,,,0,0,1,,,,0,,,73,42
1009664,set_tempo,,,,,1024,1,0,,923076,,,,,,
1009664,note_off,,,,,0,0,1,,,,0,,,51,0
1009664,note_on,,,,,0,0,1,,,,0,,,43,21
1009664,note_on,,,,,0,0,1,,,,0,,,70,27
1009670,control_change,,,,,6,0,1,,,,0,64,0,,
1009772,control_change,,,,,102,0,1,,,,0,64,127,,
1010005,set_tempo,,,,,341,1,0,,857142,,,,,,
1010005,note_on,,,,,233,0,1,,,,0,,,68,24
1010005,note_on,,,,,0,0,1,,,,0,,,72,41
1010005,note_on,,,,,0,0,1,,,,0,,,46,23
1010045,note_off,,,,,40,0,1,,,,0,,,70,0
1010045,note_off,,,,,0,0,1,,,,0,,,73,0
1010045,note_off,,,,,0,0,1,,,,0,,,43,0
1010065,control_change,,,,,20,0,1,,,,0,64,0,,
1010166,control_change,,,,,101,0,1,,,,0,64,127,,
1010347,note_on,,,,,181,0,1,,,,0,,,67,21
1010347,note_on,,,,,0,0,1,,,,0,,,48,25
1010347,set_tempo,,,,,342,1,0,,800000,,,,,,
1010347,note_on,,,,,0,0,1,,,,0,,,70,40
1010387,note_off,,,,,0,0,1,,,,0,,,72,0
1010387,note_off,,,,,0,0,1,,,,0,,,46,0
1010387,note_off,,,,,40,0,1,,,,0,,,68,0
1010408,control_change,,,,,21,0,1,,,,0,64,0,,
1010497,control_change,,,,,89,0,1,,,,0,64,127,,
1010688,control_change,,,,,191,0,1,,,,0,64,0,,
1010688,control_change,,,,,0,0,1,,,,0,64,127,,
1010688,control_change,,,,,0,0,1,,,,0,64,0,,
1010688,note_on,,,,,0,0,1,,,,0,,,65,21
1010688,note_on,,,,,0,0,1,,,,0,,,68,40
1010688,note_on,,,,,0,0,1,,,,0,,,49,27
1010728,note_off,,,,,40,0,1,,,,0,,,67,0
1010728,note_off,,,,,0,0,1,,,,0,,,48,0
1010728,note_off,,,,,0,0,1,,,,0,,,70,0
1010764,control_change,,,,,36,0,1,,,,0,64,0,,
1010815,control_change,,,,,51,0,1,,,,0,64,0,,
1010931,control_change,,,,,116,0,1,,,,0,64,127,,
1011029,set_tempo,,,,,682,1,0,,750000,,,,,,
1011029,note_on,,,,,98,0,1,,,,0,,,63,20
1011029,note_on,,,,,0,0,1,,,,0,,,67,39
1011029,note_on,,,,,0,0,1,,,,0,,,51,29
1011069,note_off,,,,,40,0,1,,,,0,,,65,0
1011069,note_off,,,,,0,0,1,,,,0,,,68,0
1011069,note_off,,,,,0,0,1,,,,0,,,49,0
1011070,control_change,,,,,1,0,1,,,,0,64,0,,
1011151,control_change,,,,,81,0,1,,,,0,64,0,,
1011267,control_change,,,,,116,0,1,,,,0,64,127,,
1011371,set_tempo,,,,,342,1,0,,800000,,,,,,
1011371,note_off,,,,,104,0,1,,,,0,,,63,0
1011371,note_on,,,,,0,0,1,,,,0,,,61,15
1011371,note_on,,,,,0,0,1,,,,0,,,65,34
1011371,note_on,,,,,0,0,1,,,,0,,,53,26
1011411,note_off,,,,,0,0,1,,,,0,,,51,0
1011411,note_off,,,,,40,0,1,,,,0,,,67,0
1011451,control_change,,,,,40,0,1,,,,0,64,0,,
1011498,control_change,,,,,47,0,1,,,,0,64,0,,
1011567,control_change,,,,,69,0,1,,,,0,64,127,,
1011712,set_tempo,,,,,341,1,0,,1000000,,,,,,
1011712,note_on,,,,,0,0,1,,,,0,,,43,22
1011712,note_on,,,,,0,0,1,,,,0,,,64,37
1011712,note_on,,,,,0,0,1,,,,0,,,60,18
1011712,note_off,,,,,145,0,1,,,,0,,,61,0
1011731,control_change,,,,,19,0,1,,,,0,64,0,,
1011752,note_off,,,,,0,0,1,,,,0,,,53,0
1011752,note_off,,,,,21,0,1,,,,0,,,65,0
1011807,control_change,,,,,55,0,1,,,,0,64,127,,
1011810,control_change,,,,,3,0,1,,,,0,64,0,,
1011949,control_change,,,,,139,0,1,,,,0,64,127,,
1012053,note_on,,,,,0,0,1,,,,0,,,65,36
1012053,note_on,,,,,104,0,1,,,,0,,,61,17
1012053,note_on,,,,,0,0,1,,,,0,,,46,19
1012053,set_tempo,,,,,341,1,0,,857142,,,,,,
1012093,note_off,,,,,40,0,1,,,,0,,,60,0
1012093,note_off,,,,,0,0,1,,,,0,,,64,0
1012093,note_off,,,,,0,0,1,,,,0,,,43,0
1012125,control_change,,,,,32,0,1,,,,0,64,0,,
1012204,control_change,,,,,79,0,1,,,,0,64,0,,
1012308,control_change,,,,,104,0,1,,,,0,64,127,,
1012395,note_on,,,,,0,0,1,,,,0,,,58,13
1012395,note_on,,,,,0,0,1,,,,0,,,61,32
1012395,note_on,,,,,0,0,1,,,,0,,,51,14
1012395,note_off,,,,,87,0,1,,,,0,,,61,0
1012435,note_off,,,,,40,0,1,,,,0,,,65,0
1012435,note_off,,,,,0,0,1,,,,0,,,46,0
1012469,control_change,,,,,34,0,1,,,,0,64,0,,
1012583,control_change,,,,,114,0,1,,,,0,64,127,,
1012736,note_off,,,,,0,0,1,,,,0,,,61,0
1012736,control_change,,,,,153,0,1,,,,0,64,0,,
1012736,set_tempo,,,,,683,1,0,,750000,,,,,,
1012736,note_on,,,,,0,0,1,,,,0,,,51,10
1012736,note_on,,,,,0,0,1,,,,0,,,44,17
1012736,note_on,,,,,0,0,1,,,,0,,,60,29
1012736,note_on,,,,,0,0,1,,,,0,,,56,10
1012736,note_off,,,,,0,0,1,,,,0,,,51,0
1012736,note_off,,,,,0,0,1,,,,0,,,58,0
1012736,control_change,,,,,0,0,1,,,,0,64,127,,
1012891,control_change,,,,,155,0,1,,,,0,64,0,,
1012968,control_change,,,,,77,0,1,,,,0,64,0,,
1013316,control_change,,,,,348,0,1,,,,0,64,127,,
1013741,control_change,,,,,425,0,1,,,,0,64,0,,
1013760,note_on,,,,,0,0,1,,,,0,,,44,30
1013760,note_on,,,,,0,0,1,,,,0,,,75,50
1013760,note_on,,,,,0,0,1,,,,0,,,72,36
1013760,note_off,,,,,0,0,1,,,,0,,,44,0
1013760,note_off,,,,,0,0,1,,,,0,,,60,0
1013760,note_off,,,,,19,0,1,,,,0,,,56,0
1013760,note_off,,,,,0,0,1,,,,0,,,51,0
1013760,set_tempo,,,,,1024,1,0,,857142,,,,,,
1014050,control_change,,,,,290,0,1,,,,0,64,127,,
1014101,note_on,,,,,0,0,1,,,,0,,,68,39
1014101,set_tempo,,,,,341,1,0,,750000,,,,,,
1014101,note_off,,,,,0,0,1,,,,0,,,44,0
1014101,note_on,,,,,0,0,1,,,,0,,,51,25
1014101,note_off,,,,,51,0,1,,,,0,,,72,0
1014101,note_off,,,,,0,0,1,,,,0,,,75,0
1014443,note_off,,,,,342,0,1,,,,0,,,68,0
1014443,note_on,,,,,0,0,1,,,,0,,,63,34
1014443,note_on,,,,,0,0,1,,,,0,,,60,26
1014443,note_off,,,,,0,0,1,,,,0,,,51,0
1014784,note_off,,,,,0,0,1,,,,0,,,63,0
1014784,note_on,,,,,0,0,1,,,,0,,,77,40
1014784,note_on,,,,,0,0,1,,,,0,,,80,54
1014784,note_on,,,,,0,0,1,,,,0,,,37,34
1014784,control_change,,,,,0,0,1,,,,0,64,0,,
1014784,control_change,,,,,0,0,1,,,,0,64,127,,
1014784,note_off,,,,,0,0,1,,,,0,,,60,0
1014784,set_tempo,,,,,683,1,0,,857142,,,,,,
1014784,control_change,,,,,341,0,1,,,,0,64,0,,
1014939,control_change,,,,,155,0,1,,,,0,64,0,,
1015093,control_change,,,,,154,0,1,,,,0,64,127,,
1015467,note_on,,,,,0,0,1,,,,0,,,73,43
1015467,note_on,,,,,0,0,1,,,,0,,,53,29
1015467,note_on,,,,,0,0,1,,,,0,,,44,20
1015467,note_off,,,,,0,0,1,,,,0,,,37,0
1015467,note_off,,,,,0,0,1,,,,0,,,80,0
1015467,set_tempo,,,,,683,1,0,,750000,,,,,,
1015467,note_off,,,,,374,0,1,,,,0,,,77,0
1015789,control_change,,,,,322,0,1,,,,0,64,0,,
1015808,note_on,,,,,0,0,1,,,,0,,,80,54
1015808,set_tempo,,,,,341,1,0,,923076,,,,,,
1015808,note_off,,,,,0,0,1,,,,0,,,44,0
1015808,note_off,,,,,0,0,1,,,,0,,,53,0
1015808,note_off,,,,,19,0,1,,,,0,,,73,0
1015808,note_on,,,,,0,0,1,,,,0,,,77,40
1015808,note_on,,,,,0,0,1,,,,0,,,37,34
1016098,control_change,,,,,290,0,1,,,,0,64,127,,
1016149,note_on,,,,,0,0,1,,,,0,,,44,25
1016149,note_on,,,,,0,0,1,,,,0,,,73,44
1016149,note_off,,,,,0,0,1,,,,0,,,37,0
1016149,set_tempo,,,,,341,1,0,,750000,,,,,,
1016149,note_off,,,,,51,0,1,,,,0,,,77,0
1016149,note_off,,,,,0,0,1,,,,0,,,80,0
1016491,note_off,,,,,342,0,1,,,,0,,,73,0
1016491,note_on,,,,,0,0,1,,,,0,,,68,41
1016491,note_on,,,,,0,0,1,,,,0,,,53,25
1016491,note_off,,,,,0,0,1,,,,0,,,44,0
1016832,note_on,,,,,0,0,1,,,,0,,,44,28
1016832,note_on,,,,,0,0,1,,,,0,,,72,34
1016832,note_on,,,,,0,0,1,,,,0,,,75,48
1016832,note_off,,,,,0,0,1,,,,0,,,53,0
1016832,set_tempo,,,,,683,1,0,,857142,,,,,,
1016832,control_change,,,,,0,0,1,,,,0,64,0,,
1016832,control_change,,,,,0,0,1,,,,0,64,127,,
1016832,control_change,,,,,341,0,1,,,,0,64,0,,
1016832,note_off,,,,,0,0,1,,,,0,,,68,0
1016987,control_change,,,,,155,0,1,,,,0,64,0,,
1017141,control_change,,,,,154,0,1,,,,0,64,127,,
1017515,set_tempo,,,,,683,1,0,,750000,,,,,,
1017515,note_off,,,,,374,0,1,,,,0,,,72,0
1017515,note_off,,,,,0,0,1,,,,0,,,75,0
1017515,note_off,,,,,0,0,1,,,,0,,,44,0
1017515,note_on,,,,,0,0,1,,,,0,,,68,44
1017515,note_on,,,,,0,0,1,,,,0,,,51,21
1017515,note_on,,,,,0,0,1,,,,0,,,60,30
1017837,control_change,,,,,322,0,1,,,,0,64,0,,
1017856,note_on,,,,,0,0,1,,,,0,,,72,36
1017856,note_off,,,,,19,0,1,,,,0,,,68,0
1017856,note_on,,,,,0,0,1,,,,0,,,44,30
1017856,note_off,,,,,0,0,1,,,,0,,,51,0
1017856,set_tempo,,,,,341,1,0,,857142,,,,,,
1017856,note_off,,,,,0,0,1,,,,0,,,60,0
1017856,note_on,,,,,0,0,1,,,,0,,,75,50
1018146,control_change,,,,,290,0,1,,,,0,64,127,,
1018197,set_tempo,,,,,341,1,0,,750000,,,,,,
1018197,note_on,,,,,0,0,1,,,,0,,,51,21
1018197,note_on,,,,,0,0,1,,,,0,,,68,40
1018197,note_off,,,,,0,0,1,,,,0,,,44,0
1018197,note_off,,,,,0,0,1,,,,0,,,75,0
1018197,note_off,,,,,51,0,1,,,,0,,,72,0
1018539,note_off,,,,,0,0,1,,,,0,,,51,0
1018539,note_on,,,,,0,0,1,,,,0,,,63,37
1018539,note_off,,,,,342,0,1,,,,0,,,68,0
1018539,note_on,,,,,0,0,1,,,,0,,,60,21
1018539,set_tempo,,,,,342,1,0,,923076,,,,,,
1018880,note_off,,,,,0,0,1,,,,0,,,60,0
1018880,set_tempo,,,,,341,1,0,,1000000,,,,,,
1018880,control_change,,,,,341,0,1,,,,0,64,0,,
1018880,control_change,,,,,0,0,1,,,,0,64,127,,
1018880,control_change,,,,,0,0,1,,,,0,64,0,,
1018880,note_off,,,,,0,0,1,,,,0,,,63,0
1018880,control_change,,,,,0,0,1,,,,0,64,0,,
1018880,note_on,,,,,0,0,1,,,,0,,,67,33
1018880,note_on,,,,,0,0,1,,,,0,,,73,33
1018880,note_on,,,,,0,0,1,,,,0,,,77,57
1018880,note_on,,,,,0,0,1,,,,0,,,39,30
1018956,control_change,,,,,76,0,1,,,,0,64,0,,
1019033,control_change,,,,,77,0,1,,,,0,64,127,,
1019221,note_off,,,,,0,0,1,,,,0,,,39,0
1019221,note_off,,,,,0,0,1,,,,0,,,77,0
1019221,set_tempo,,,,,341,1,0,,750000,,,,,,
1019221,note_off,,,,,0,0,1,,,,0,,,73,0
1019221,note_on,,,,,0,0,1,,,,0,,,67,34
1019221,note_on,,,,,0,0,1,,,,0,,,75,55
1019221,note_on,,,,,0,0,1,,,,0,,,73,32
1019221,note_off,,,,,188,0,1,,,,0,,,67,0
1019221,note_on,,,,,0,0,1,,,,0,,,51,23
1019262,control_change,,,,,41,0,1,,,,0,64,0,,
1019351,control_change,,,,,89,0,1,,,,0,64,127,,
1019563,note_off,,,,,212,0,1,,,,0,,,67,0
1019563,note_off,,,,,0,0,1,,,,0,,,73,0
1019563,note_off,,,,,0,0,1,,,,0,,,75,0
1019563,note_off,,,,,0,0,1,,,,0,,,51,0
1019563,note_on,,,,,0,0,1,,,,0,,,73,53
1019563,note_on,,,,,0,0,1,,,,0,,,51,24
1019563,note_on,,,,,0,0,1,,,,0,,,67,39
1019643,control_change,,,,,80,0,1,,,,0,64,0,,
1019707,control_change,,,,,64,0,1,,,,0,64,127,,
1019904,note_off,,,,,197,0,1,,,,0,,,67,0
1019904,note_off,,,,,0,0,1,,,,0,,,73,0
1019904,note_off,,,,,0,0,1,,,,0,,,51,0
1019904,note_on,,,,,0,0,1,,,,0,,,67,40
1019904,note_on,,,,,0,0,1,,,,0,,,61,40
1019904,note_on,,,,,0,0,1,,,,0,,,51,26
1019904,note_on,,,,,0,0,1,,,,0,,,72,54
1019923,control_change,,,,,19,0,1,,,,0,64,0,,
1019999,control_change,,,,,76,0,1,,,,0,64,127,,
1020245,note_off,,,,,246,0,1,,,,0,,,61,0
1020245,note_on,,,,,0,0,1,,,,0,,,51,24
1020245,note_on,,,,,0,0,1,,,,0,,,70,51
1020245,note_on,,,,,0,0,1,,,,0,,,67,37
1020245,note_on,,,,,0,0,1,,,,0,,,61,37
1020245,note_off,,,,,0,0,1,,,,0,,,51,0
1020245,note_off,,,,,0,0,1,,,,0,,,72,0
1020245,note_off,,,,,0,0,1,,,,0,,,67,0
1020317,control_change,,,,,72,0,1,,,,0,64,0,,
1020406,control_change,,,,,89,0,1,,,,0,64,127,,
1020587,note_on,,,,,0,0,1,,,,0,,,51,22
1020587,note_on,,,,,0,0,1,,,,0,,,65,35
1020587,note_off,,,,,181,0,1,,,,0,,,61,0
1020587,note_off,,,,,0,0,1,,,,0,,,67,0
1020587,note_off,,,,,0,0,1,,,,0,,,70,0
1020587,note_on,,,,,0,0,1,,,,0,,,61,35
1020587,note_off,,,,,0,0,1,,,,0,,,51,0
1020587,note_on,,,,,0,0,1,,,,0,,,68,49
1020661,control_change,,,,,74,0,1,,,,0,64,0,,
1020775,control_change,,,,,114,0,1,,,,0,64,127,,
1020928,control_change,,,,,153,0,1,,,,0,64,0,,
1020928,control_change,,,,,0,0,1,,,,0,64,127,,
1020928,control_change,,,,,0,0,1,,,,0,64,0,,
1020928,control_change,,,,,0,0,1,,,,0,64,0,,
1020928,note_off,,,,,0,0,1,,,,0,,,61,0
1020928,set_tempo,,,,,1707,1,0,,923076,,,,,,
1020928,note_off,,,,,0,0,1,,,,0,,,65,0
1020928,note_on,,,,,0,0,1,,,,0,,,58,34
1020928,note_on,,,,,0,0,1,,,,0,,,61,34
1020928,note_on,,,,,0,0,1,,,,0,,,63,34
1020928,note_on,,,,,0,0,1,,,,0,,,68,48
1020928,note_on,,,,,0,0,1,,,,0,,,51,22
1020928,note_off,,,,,0,0,1,,,,0,,,51,0
1020928,note_off,,,,,0,0,1,,,,0,,,68,0
1021004,control_change,,,,,76,0,1,,,,0,64,0,,
1021081,control_change,,,,,77,0,1,,,,0,64,127,,
1021269,note_off,,,,,0,0,1,,,,0,,,61,0
1021269,note_off,,,,,188,0,1,,,,0,,,58,0
1021269,note_off,,,,,0,0,1,,,,0,,,63,0
1021269,note_off,,,,,0,0,1,,,,0,,,68,0
1021269,note_off,,,,,0,0,1,,,,0,,,51,0
1021269,note_on,,,,,0,0,1,,,,0,,,58,32
1021269,note_on,,,,,0,0,1,,,,0,,,61,32
1021269,note_on,,,,,0,0,1,,,,0,,,63,32
1021269,note_on,,,,,0,0,1,,,,0,,,67,46
1021269,note_on,,,,,0,0,1,,,,0,,,51,19
1021269,set_tempo,,,,,341,1,0,,857142,,,,,,
1021310,control_change,,,,,41,0,1,,,,0,64,0,,
1021399,control_change,,,,,89,0,1,,,,0,64,127,,
1021611,note_off,,,,,0,0,1,,,,0,,,61,0
1021611,note_off,,,,,0,0,1,,,,0,,,63,0
1021611,note_off,,,,,0,0,1,,,,0,,,67,0
1021611,note_off,,,,,0,0,1,,,,0,,,51,0
1021611,note_on,,,,,0,0,1,,,,0,,,58,31
1021611,note_on,,,,,0,0,1,,,,0,,,61,31
1021611,note_on,,,,,0,0,1,,,,0,,,51,18
1021611,note_off,,,,,212,0,1,,,,0,,,58,0
1021611,note_on,,,,,0,0,1,,,,0,,,65,45
1021691,control_change,,,,,80,0,1,,,,0,64,0,,
1021755,control_change,,,,,64,0,1,,,,0,64,127,,
1021952,set_tempo,,,,,683,1,0,,923076,,,,,,
1021952,note_on,,,,,0,0,1,,,,0,,,51,15
1021952,note_on,,,,,0,0,1,,,,0,,,65,43
1021952,note_on,,,,,0,0,1,,,,0,,,61,29
1021952,note_on,,,,,0,0,1,,,,0,,,55,29
1021952,note_off,,,,,0,0,1,,,,0,,,51,0
1021952,note_off,,,,,0,0,1,,,,0,,,65,0
1021952,note_off,,,,,0,0,1,,,,0,,,61,0
1021952,note_off,,,,,197,0,1,,,,0,,,58,0
1021952,note_on,,,,,0,0,1,,,,0,,,39,22
1021971,control_change,,,,,19,0,1,,,,0,64,0,,
1022047,control_change,,,,,76,0,1,,,,0,64,127,,
1022293,note_off,,,,,0,0,1,,,,0,,,65,0
1022293,note_off,,,,,0,0,1,,,,0,,,51,0
1022293,note_off,,,,,0,0,1,,,,0,,,39,0
1022293,note_on,,,,,0,0,1,,,,0,,,63,36
1022293,note_off,,,,,0,0,1,,,,0,,,61,0
1022293,note_off,,,,,246,0,1,,,,0,,,55,0
1022293,note_on,,,,,0,0,1,,,,0,,,39,19
1022293,note_on,,,,,0,0,1,,,,0,,,51,12
1022293,note_on,,,,,0,0,1,,,,0,,,55,22
1022293,note_on,,,,,0,0,1,,,,0,,,61,22
1022365,control_change,,,,,72,0,1,,,,0,64,0,,
1022454,control_change,,,,,89,0,1,,,,0,64,127,,
1022635,note_off,,,,,181,0,1,,,,0,,,55,0
1022635,note_off,,,,,0,0,1,,,,0,,,63,0
1022635,note_off,,,,,0,0,1,,,,0,,,39,0
1022635,note_off,,,,,0,0,1,,,,0,,,51,0
1022635,set_tempo,,,,,683,1,0,,1000000,,,,,,
1022635,note_on,,,,,0,0,1,,,,0,,,55,21
1022635,note_on,,,,,0,0,1,,,,0,,,61,35
1022635,note_on,,,,,0,0,1,,,,0,,,39,16
1022635,note_on,,,,,0,0,1,,,,0,,,51,9
1022635,note_off,,,,,0,0,1,,,,0,,,61,0
1022709,control_change,,,,,74,0,1,,,,0,64,0,,
1022823,control_change,,,,,114,0,1,,,,0,64,127,,
1022976,control_change,,,,,153,0,1,,,,0,64,0,,
1022976,control_change,,,,,0,0,1,,,,0,64,0,,
1022976,note_off,,,,,0,0,1,,,,0,,,55,0
1022976,control_change,,,,,0,0,1,,,,0,64,127,,
1022976,note_on,,,,,0,0,1,,,,0,,,51,10
1022976,control_change,,,,,0,0,1,,,,0,64,0,,
1022976,note_on,,,,,0,0,1,,,,0,,,60,37
1022976,note_on,,,,,0,0,1,,,,0,,,44,17
1022976,note_off,,,,,0,0,1,,,,0,,,51,0
1022976,note_off,,,,,0,0,1,,,,0,,,39,0
1022976,note_off,,,,,0,0,1,,,,0,,,61,0
1022976,set_tempo,,,,,341,1,0,,750000,,,,,,
1022976,note_on,,,,,0,0,1,,,,0,,,56,23
1023180,control_change,,,,,204,0,1,,,,0,64,127,,
1023245,control_change,,,,,65,0,1,,,,0,64,0,,
1023353,control_change,,,,,108,0,1,,,,0,64,0,,
1023569,control_change,,,,,216,0,1,,,,0,64,127,,
1024000,note_on,,,,,0,0,1,,,,0,,,37,20
1024000,note_on,,,,,0,0,1,,,,0,,,65,40
1024000,note_on,,,,,431,0,1,,,,0,,,61,26
1024000,note_off,,,,,0,0,1,,,,0,,,51,0
1024000,note_on,,,,,0,0,1,,,,0,,,44,8
1024000,note_off,,,,,0,0,1,,,,0,,,44,0
1024000,note_on,,,,,0,0,1,,,,0,,,49,8
1024000,set_tempo,,,,,1024,1,0,,923076,,,,,,
1024006,control_change,,,,,6,0,1,,,,0,64,0,,
1024040,note_off,,,,,0,0,1,,,,0,,,60,0
1024040,note_off,,,,,34,0,1,,,,0,,,56,0
1024162,control_change,,,,,122,0,1,,,,0,64,0,,
1024685,control_change,,,,,523,0,1,,,,0,64,127,,
1025024,note_on,,,,,0,0,1,,,,0,,,63,39
1025024,note_on,,,,,0,0,1,,,,0,,,60,20
1025024,note_off,,,,,0,0,1,,,,0,,,49,0
1025024,note_off,,,,,0,0,1,,,,0,,,44,0
1025024,note_off,,,,,0,0,1,,,,0,,,37,0
1025024,control_change,,,,,339,0,1,,,,0,64,0,,
1025024,note_on,,,,,0,0,1,,,,0,,,51,13
1025024,control_change,,,,,0,0,1,,,,0,64,127,,
1025024,note_on,,,,,0,0,1,,,,0,,,44,25
1025024,set_tempo,,,,,1024,1,0,,750000,,,,,,
1025064,note_off,,,,,0,0,1,,,,0,,,65,0
1025064,note_off,,,,,40,0,1,,,,0,,,61,0
1025088,control_change,,,,,24,0,1,,,,0,64,0,,
1025240,control_change,,,,,152,0,1,,,,0,64,127,,
1026048,note_off,,,,,808,0,1,,,,0,,,60,0
1026048,note_on,,,,,0,0,1,,,,0,,,72,44
1026048,note_on,,,,,0,0,1,,,,0,,,68,25
1026048,note_off,,,,,0,0,1,,,,0,,,51,0
1026048,note_off,,,,,0,0,1,,,,0,,,44,0
1026048,note_off,,,,,0,0,1,,,,0,,,63,0
1026048,note_on,,,,,0,0,1,,,,0,,,44,30
1026048,set_tempo,,,,,1024,1,0,,857142,,,,,,
1026054,control_change,,,,,6,0,1,,,,0,64,0,,
1026156,control_change,,,,,102,0,1,,,,0,64,127,,
1026389,note_on,,,,,233,0,1,,,,0,,,67,23
1026389,note_on,,,,,0,0,1,,,,0,,,70,42
1026389,note_on,,,,,0,0,1,,,,0,,,46,28
1026389,set_tempo,,,,,341,1,0,,750000,,,,,,
1026429,note_off,,,,,40,0,1,,,,0,,,68,0
1026429,note_off,,,,,0,0,1,,,,0,,,72,0
1026429,note_off,,,,,0,0,1,,,,0,,,44,0
1026449,control_change,,,,,20,0,1,,,,0,64,0,,
1026550,control_change,,,,,101,0,1,,,,0,64,127,,
1026731,note_on,,,,,0,0,1,,,,0,,,48,26
1026731,note_on,,,,,181,0,1,,,,0,,,65,21
1026731,note_on,,,,,0,0,1,,,,0,,,68,40
1026771,note_off,,,,,40,0,1,,,,0,,,67,0
1026771,note_off,,,,,0,0,1,,,,0,,,70,0
1026771,note_off,,,,,0,0,1,,,,0,,,46,0
1026792,control_change,,,,,21,0,1,,,,0,64,0,,
1026881,control_change,,,,,89,0,1,,,,0,64,127,,
1027072,control_change,,,,,191,0,1,,,,0,64,0,,
1027072,note_on,,,,,0,0,1,,,,0,,,63,25
1027072,note_on,,,,,0,0,1,,,,0,,,67,44
1027072,note_on,,,,,0,0,1,,,,0,,,49,27
1027072,set_tempo,,,,,683,1,0,,857142,,,,,,
1027072,control_change,,,,,0,0,1,,,,0,64,127,,
1027112,note_off,,,,,40,0,1,,,,0,,,65,0
1027112,note_off,,,,,0,0,1,,,,0,,,68,0
1027112,note_off,,,,,0,0,1,,,,0,,,48,0
1027148,control_change,,,,,36,0,1,,,,0,64,0,,
1027199,control_change,,,,,51,0,1,,,,0,64,0,,
1027315,control_change,,,,,116,0,1,,,,0,64,127,,
1027413,set_tempo,,,,,341,1,0,,750000,,,,,,
1027413,note_on,,,,,0,0,1,,,,0,,,53,29
1027413,note_on,,,,,98,0,1,,,,0,,,61,23
1027413,note_on,,,,,0,0,1,,,,0,,,65,42
1027453,note_off,,,,,0,0,1,,,,0,,,49,0
1027453,note_off,,,,,0,0,1,,,,0,,,67,0
1027453,note_off,,,,,40,0,1,,,,0,,,63,0
1027454,control_change,,,,,1,0,1,,,,0,64,0,,
1027535,control_change,,,,,81,0,1,,,,0,64,0,,
1027651,control_change,,,,,116,0,1,,,,0,64,127,,
1027755,note_on,,,,,0,0,1,,,,0,,,58,32
1027755,note_on,,,,,104,0,1,,,,0,,,64,39
1027795,note_off,,,,,0,0,1,,,,0,,,53,0
1027795,note_off,,,,,40,0,1,,,,0,,,65,0
1027835,control_change,,,,,40,0,1,,,,0,64,0,,
1027882,control_change,,,,,47,0,1,,,,0,64,0,,
1027951,control_change,,,,,69,0,1,,,,0,64,127,,
1028096,note_on,,,,,0,0,1,,,,0,,,56,31
1028096,note_on,,,,,145,0,1,,,,0,,,65,39
1028115,control_change,,,,,19,0,1,,,,0,64,0,,
1028136,note_off,,,,,0,0,1,,,,0,,,58,0
1028136,note_off,,,,,21,0,1,,,,0,,,64,0
1028191,control_change,,,,,55,0,1,,,,0,64,127,,
1028194,control_change,,,,,3,0,1,,,,0,64,0,,
1028333,control_change,,,,,139,0,1,,,,0,64,127,,
1028437,note_on,,,,,0,0,1,,,,0,,,53,24
1028437,note_on,,,,,0,0,1,,,,0,,,67,35
1028437,note_on,,,,,104,0,1,,,,0,,,63,19
1028477,note_off,,,,,0,0,1,,,,0,,,56,0
1028477,note_off,,,,,0,0,1,,,,0,,,65,0
1028477,note_off,,,,,40,0,1,,,,0,,,61,0
1028509,control_change,,,,,32,0,1,,,,0,64,0,,
1028588,control_change,,,,,79,0,1,,,,0,64,0,,
1028692,control_change,,,,,104,0,1,,,,0,64,127,,
1028779,note_on,,,,,0,0,1,,,,0,,,68,34
1028779,note_on,,,,,87,0,1,,,,0,,,65,18
1028779,set_tempo,,,,,1366,1,0,,857142,,,,,,
1028779,note_on,,,,,0,0,1,,,,0,,,49,15
1028819,note_off,,,,,0,0,1,,,,0,,,53,0
1028819,note_off,,,,,0,0,1,,,,0,,,67,0
1028819,note_off,,,,,40,0,1,,,,0,,,63,0
1028853,control_change,,,,,34,0,1,,,,0,64,0,,
1028967,control_change,,,,,114,0,1,,,,0,64,127,,
1029120,note_off,,,,,0,0,1,,,,0,,,49,0
1029120,note_off,,,,,0,0,1,,,,0,,,68,0
1029120,note_off,,,,,0,0,1,,,,0,,,65,0
1029120,control_change,,,,,0,0,1,,,,0,64,127,,
1029120,control_change,,,,,153,0,1,,,,0,64,0,,
1029120,note_on,,,,,0,0,1,,,,0,,,63,37
1029120,set_tempo,,,,,341,1,0,,750000,,,,,,
1029120,note_on,,,,,0,0,1,,,,0,,,60,18
1029120,note_on,,,,,0,0,1,,,,0,,,44,18
1029194,control_change,,,,,74,0,1,,,,0,64,0,,
1029264,control_change,,,,,70,0,1,,,,0,64,0,,
1029553,control_change,,,,,289,0,1,,,,0,64,127,,
1030144,note_on,,,,,591,0,1,,,,0,,,61,25
1030144,note_on,,,,,0,0,1,,,,0,,,65,44
1030144,note_on,,,,,0,0,1,,,,0,,,37,22
1030144,note_off,,,,,0,0,1,,,,0,,,44,0
1030144,note_on,,,,,0,0,1,,,,0,,,44,13
1030144,set_tempo,,,,,1024,1,0,,857142,,,,,,
1030151,control_change,,,,,7,0,1,,,,0,64,0,,
1030184,note_off,,,,,0,0,1,,,,0,,,63,0
1030184,note_off,,,,,33,0,1,,,,0,,,60,0
1030265,control_change,,,,,81,0,1,,,,0,64,0,,
1030462,control_change,,,,,197,0,1,,,,0,64,127,,
1030827,note_on,,,,,0,0,1,,,,0,,,44,24
1030827,note_off,,,,,0,0,1,,,,0,,,44,0
1030827,note_on,,,,,365,0,1,,,,0,,,60,18
1030827,note_on,,,,,0,0,1,,,,0,,,63,37
1030827,note_off,,,,,0,0,1,,,,0,,,37,0
1030827,note_on,,,,,0,0,1,,,,0,,,51,15
1030867,note_off,,,,,0,0,1,,,,0,,,65,0
1030867,note_off,,,,,40,0,1,,,,0,,,61,0
1030873,control_change,,,,,6,0,1,,,,0,64,0,,
1030994,control_change,,,,,121,0,1,,,,0,64,0,,
1031064,control_change,,,,,70,0,1,,,,0,64,127,,
1031168,note_off,,,,,0,0,1,,,,0,,,44,0
1031168,note_off,,,,,0,0,1,,,,0,,,60,0
1031168,note_on,,,,,0,0,1,,,,0,,,51,18
1031168,note_on,,,,,0,0,1,,,,0,,,43,25
1031168,note_on,,,,,0,0,1,,,,0,,,61,37
1031168,note_on,,,,,0,0,1,,,,0,,,58,18
1031168,note_off,,,,,0,0,1,,,,0,,,63,0
1031168,note_off,,,,,0,0,1,,,,0,,,51,0
1031168,control_change,,,,,0,0,1,,,,0,64,0,,
1031168,control_change,,,,,0,0,1,,,,0,64,0,,
1031168,set_tempo,,,,,1024,1,0,,750000,,,,,,
1031168,control_change,,,,,104,0,1,,,,0,64,0,,
1031168,control_change,,,,,0,0,1,,,,0,64,0,,
1031372,control_change,,,,,204,0,1,,,,0,64,127,,
1032192,note_on,,,,,0,0,1,,,,0,,,51,28
1032192,note_on,,,,,0,0,1,,,,0,,,42,20
1032192,note_on,,,,,0,0,1,,,,0,,,63,42
1032192,note_on,,,,,820,0,1,,,,0,,,57,22
1032192,note_on,,,,,0,0,1,,,,0,,,60,22
1032192,set_tempo,,,,,1024,1,0,,923076,,,,,,
1032192,note_off,,,,,0,0,1,,,,0,,,43,0
1032192,note_off,,,,,0,0,1,,,,0,,,51,0
1032198,control_change,,,,,6,0,1,,,,0,64,0,,
1032232,note_off,,,,,34,0,1,,,,0,,,58,0
1032232,note_off,,,,,0,0,1,,,,0,,,61,0
1032415,control_change,,,,,183,0,1,,,,0,64,127,,
1032877,control_change,,,,,462,0,1,,,,0,64,127,,
1033216,note_off,,,,,0,0,1,,,,0,,,42,0
1033216,note_on,,,,,0,0,1,,,,0,,,43,20
1033216,note_on,,,,,0,0,1,,,,0,,,61,35
1033216,note_on,,,,,0,0,1,,,,0,,,58,16
1033216,note_off,,,,,0,0,1,,,,0,,,51,0
1033216,note_on,,,,,0,0,1,,,,0,,,51,12
1033216,control_change,,,,,0,0,1,,,,0,64,0,,
1033216,control_change,,,,,0,0,1,,,,0,64,127,,
1033216,control_change,,,,,339,0,1,,,,0,64,0,,
1033216,set_tempo,,,,,1024,1,0,,750000,,,,,,
1033256,note_off,,,,,40,0,1,,,,0,,,57,0
1033256,note_off,,,,,0,0,1,,,,0,,,60,0
1033256,note_off,,,,,0,0,1,,,,0,,,63,0
1033280,control_change,,,,,24,0,1,,,,0,64,0,,
1033432,control_change,,,,,152,0,1,,,,0,64,127,,
1034240,note_on,,,,,0,0,1,,,,0,,,43,21
1034240,note_on,,,,,0,0,1,,,,0,,,73,42
1034240,note_on,,,,,0,0,1,,,,0,,,70,27
1034240,note_off,,,,,0,0,1,,,,0,,,51,0
1034240,note_off,,,,,0,0,1,,,,0,,,43,0
1034240,note_off,,,,,808,0,1,,,,0,,,58,0
1034240,set_tempo,,,,,1024,1,0,,923076,,,,,,
1034240,note_off,,,,,0,0,1,,,,0,,,61,0
1034246,control_change,,,,,6,0,1,,,,0,64,0,,
1034348,control_change,,,,,102,0,1,,,,0,64,127,,
1034581,note_on,,,,,0,0,1,,,,0,,,72,41
1034581,set_tempo,,,,,341,1,0,,857142,,,,,,
1034581,note_on,,,,,233,0,1,,,,0,,,68,24
1034581,note_on,,,,,0,0,1,,,,0,,,46,23
1034621,note_off,,,,,40,0,1,,,,0,,,70,0
1034621,note_off,,,,,0,0,1,,,,0,,,43,0
1034621,note_off,,,,,0,0,1,,,,0,,,73,0
1034641,control_change,,,,,20,0,1,,,,0,64,0,,
1034742,control_change,,,,,101,0,1,,,,0,64,127,,
1034923,set_tempo,,,,,342,1,0,,800000,,,,,,
1034923,note_on,,,,,181,0,1,,,,0,,,67,21
1034923,note_on,,,,,0,0,1,,,,0,,,70,40
1034923,note_on,,,,,0,0,1,,,,0,,,48,25
1034963,note_off,,,,,40,0,1,,,,0,,,68,0
1034963,note_off,,,,,0,0,1,,,,0,,,72,0
1034963,note_off,,,,,0,0,1,,,,0,,,46,0
1034984,control_change,,,,,21,0,1,,,,0,64,0,,
1035073,control_change,,,,,89,0,1,,,,0,64,127,,
1035264,note_on,,,,,0,0,1,,,,0,,,49,27
1035264,note_on,,,,,0,0,1,,,,0,,,68,40
1035264,note_on,,,,,0,0,1,,,,0,,,65,21
1035264,control_change,,,,,191,0,1,,,,0,64,0,,
1035264,control_change,,,,,0,0,1,,,,0,64,127,,
1035264,control_change,,,,,0,0,1,,,,0,64,0,,
1035304,note_off,,,,,0,0,1,,,,0,,,48,0
1035304,note_off,,,,,40,0,1,,,,0,,,67,0
1035304,note_off,,,,,0,0,1,,,,0,,,70,0
1035340,control_change,,,,,36,0,1,,,,0,64,0,,
1035391,control_change,,,,,51,0,1,,,,0,64,0,,
1035507,control_change,,,,,116,0,1,,,,0,64,127,,
1035605,note_on,,,,,0,0,1,,,,0,,,51,29
1035605,note_on,,,,,0,0,1,,,,0,,,67,39
1035605,set_tempo,,,,,682,1,0,,750000,,,,,,
1035605,note_on,,,,,98,0,1,,,,0,,,63,20
1035645,note_off,,,,,40,0,1,,,,0,,,65,0
1035645,note_off,,,,,0,0,1,,,,0,,,68,0
1035645,note_off,,,,,0,0,1,,,,0,,,49,0
1035646,control_change,,,,,1,0,1,,,,0,64,0,,
1035727,control_change,,,,,81,0,1,,,,0,64,0,,
1035843,control_change,,,,,116,0,1,,,,0,64,127,,
1035947,set_tempo,,,,,342,1,0,,800000,,,,,,
1035947,note_off,,,,,104,0,1,,,,0,,,63,0
1035947,note_on,,,,,0,0,1,,,,0,,,61,15
1035947,note_on,,,,,0,0,1,,,,0,,,65,34
1035947,note_on,,,,,0,0,1,,,,0,,,53,26
1035987,note_off,,,,,40,0,1,,,,0,,,67,0
1035987,note_off,,,,,0,0,1,,,,0,,,51,0
1036027,control_change,,,,,40,0,1,,,,0,64,0,,
1036074,control_change,,,,,47,0,1,,,,0,64,0,,
1036143,control_change,,,,,69,0,1,,,,0,64,127,,
1036288,note_on,,,,,0,0,1,,,,0,,,60,18
1036288,note_on,,,,,0,0,1,,,,0,,,64,37
1036288,note_on,,,,,0,0,1,,,,0,,,43,22
1036288,note_off,,,,,145,0,1,,,,0,,,61,0
1036288,set_tempo,,,,,341,1,0,,1000000,,,,,,
1036307,control_change,,,,,19,0,1,,,,0,64,0,,
1036328,note_off,,,,,21,0,1,,,,0,,,65,0
1036328,note_off,,,,,0,0,1,,,,0,,,53,0
1036383,control_change,,,,,55,0,1,,,,0,64,127,,
1036386,control_change,,,,,3,0,1,,,,0,64,0,,
1036525,control_change,,,,,139,0,1,,,,0,64,127,,
1036629,set_tempo,,,,,341,1,0,,857142,,,,,,
1036629,note_on,,,,,0,0,1,,,,0,,,46,19
1036629,note_on,,,,,0,0,1,,,,0,,,65,36
1036629,note_on,,,,,104,0,1,,,,0,,,61,17
1036669,note_off,,,,,0,0,1,,,,0,,,43,0
1036669,note_off,,,,,0,0,1,,,,0,,,64,0
1036669,note_off,,,,,40,0,1,,,,0,,,60,0
1036701,control_change,,,,,32,0,1,,,,0,64,0,,
1036780,control_change,,,,,79,0,1,,,,0,64,0,,
1036884,control_change,,,,,104,0,1,,,,0,64,127,,
1036971,note_off,,,,,87,0,1,,,,0,,,61,0
1036971,note_on,,,,,0,0,1,,,,0,,,61,32
1036971,note_on,,,,,0,0,1,,,,0,,,51,14
1036971,note_on,,,,,0,0,1,,,,0,,,58,13
1037011,note_off,,,,,40,0,1,,,,0,,,65,0
1037011,note_off,,,,,0,0,1,,,,0,,,46,0
1037045,control_change,,,,,34,0,1,,,,0,64,0,,
1037159,control_change,,,,,114,0,1,,,,0,64,127,,
1037312,note_on,,,,,0,0,1,,,,0,,,56,10
1037312,note_off,,,,,0,0,1,,,,0,,,51,0
1037312,note_on,,,,,0,0,1,,,,0,,,60,29
1037312,note_on,,,,,0,0,1,,,,0,,,51,10
1037312,note_off,,,,,0,0,1,,,,0,,,61,0
1037312,note_off,,,,,0,0,1,,,,0,,,58,0
1037312,note_on,,,,,0,0,1,,,,0,,,44,17
1037312,control_change,,,,,153,0,1,,,,0,64,0,,
1037312,set_tempo,,,,,683,1,0,,750000,,,,,,
1037312,control_change,,,,,0,0,1,,,,0,64,127,,
1037467,control_change,,,,,155,0,1,,,,0,64,0,,
1037544,control_change,,,,,77,0,1,,,,0,64,0,,
1037892,control_change,,,,,348,0,1,,,,0,64,127,,
1038317,control_change,,,,,425,0,1,,,,0,64,0,,
1038336,note_off,,,,,0,0,1,,,,0,,,51,0
1038336,note_on,,,,,0,0,1,,,,0,,,75,50
1038336,note_on,,,,,0,0,1,,,,0,,,72,36
1038336,note_on,,,,,0,0,1,,,,0,,,44,30
1038336,note_off,,,,,0,0,1,,,,0,,,44,0
1038336,note_off,,,,,19,0,1,,,,0,,,56,0
1038336,note_off,,,,,0,0,1,,,,0,,,60,0
1038336,set_tempo,,,,,1024,1,0,,857142,,,,,,
1038626,control_change,,,,,290,0,1,,,,0,64,127,,
1038677,set_tempo,,,,,341,1,0,,750000,,,,,,
1038677,note_off,,,,,51,0,1,,,,0,,,72,0
1038677,note_off,,,,,0,0,1,,,,0,,,75,0
1038677,note_off,,,,,0,0,1,,,,0,,,44,0
1038677,note_on,,,,,0,0,1,,,,0,,,68,39
1038677,note_on,,,,,0,0,1,,,,0,,,51,25
1039019,note_on,,,,,0,0,1,,,,0,,,60,26
1039019,note_on,,,,,0,0,1,,,,0,,,63,34
1039019,note_off,,,,,0,0,1,,,,0,,,51,0
1039019,note_off,,,,,342,0,1,,,,0,,,68,0
1039360,set_tempo,,,,,683,1,0,,857142,,,,,,
1039360,control_change,,,,,341,0,1,,,,0,64,0,,
1039360,control_change,,,,,0,0,1,,,,0,64,127,,
1039360,control_change,,,,,0,0,1,,,,0,64,0,,
1039360,note_off,,,,,0,0,1,,,,0,,,63,0
1039360,note_off,,,,,0,0,1,,,,0,,,60,0
1039360,note_on,,,,,0,0,1,,,,0,,,77,40
1039360,note_on,,,,,0,0,1,,,,0,,,80,54
1039360,note_on,,,,,0,0,1,,,,0,,,37,34
1039515,control_change,,,,,155,0,1,,,,0,64,0,,
1039669,control_change,,,,,154,0,1,,,,0,64,127,,
1040043,note_on,,,,,0,0,1,,,,0,,,44,20
1040043,note_on,,,,,0,0,1,,,,0,,,53,29
1040043,note_on,,,,,0,0,1,,,,0,,,73,43
1040043,set_tempo,,,,,683,1,0,,750000,,,,,,
1040043,note_off,,,,,0,0,1,,,,0,,,80,0
1040043,note_off,,,,,374,0,1,,,,0,,,77,0
1040043,note_off,,,,,0,0,1,,,,0,,,37,0
1040365,control_change,,,,,322,0,1,,,,0,64,0,,
1040384,note_off,,,,,19,0,1,,,,0,,,73,0
1040384,note_on,,,,,0,0,1,,,,0,,,77,40
1040384,note_on,,,,,0,0,1,,,,0,,,80,54
1040384,note_on,,,,,0,0,1,,,,0,,,37,34
1040384,note_off,,,,,0,0,1,,,,0,,,44,0
1040384,set_tempo,,,,,341,1,0,,923076,,,,,,
1040384,note_off,,,,,0,0,1,,,,0,,,53,0
1040674,control_change,,,,,290,0,1,,,,0,64,127,,
1040725,note_off,,,,,51,0,1,,,,0,,,77,0
1040725,note_off,,,,,0,0,1,,,,0,,,37,0
1040725,set_tempo,,,,,341,1,0,,750000,,,,,,
1040725,note_off,,,,,0,0,1,,,,0,,,80,0
1040725,note_on,,,,,0,0,1,,,,0,,,73,44
1040725,note_on,,,,,0,0,1,,,,0,,,44,25
1041067,note_on,,,,,0,0,1,,,,0,,,53,25
1041067,note_on,,,,,0,0,1,,,,0,,,68,41
1041067,note_off,,,,,342,0,1,,,,0,,,73,0
1041067,note_off,,,,,0,0,1,,,,0,,,44,0
1041408,control_change,,,,,0,0,1,,,,0,64,0,,
1041408,note_off,,,,,0,0,1,,,,0,,,68,0
1041408,note_off,,,,,0,0,1,,,,0,,,53,0
1041408,note_on,,,,,0,0,1,,,,0,,,72,34
1041408,note_on,,,,,0,0,1,,,,0,,,75,48
1041408,note_on,,,,,0,0,1,,,,0,,,44,28
1041408,control_change,,,,,341,0,1,,,,0,64,0,,
1041408,control_change,,,,,0,0,1,,,,0,64,127,,
1041408,set_tempo,,,,,683,1,0,,857142,,,,,,
1041563,control_change,,,,,155,0,1,,,,0,64,0,,
1041717,control_change,,,,,154,0,1,,,,0,64,127,,
1042091,set_tempo,,,,,683,1,0,,750000,,,,,,
1042091,note_off,,,,,0,0,1,,,,0,,,44,0
1042091,note_on,,,,,0,0,1,,,,0,,,51,21
1042091,note_on,,,,,0,0,1,,,,0,,,68,44
1042091,note_off,,,,,0,0,1,,,,0,,,75,0
1042091,note_on,,,,,0,0,1,,,,0,,,60,30
1042091,note_off,,,,,374,0,1,,,,0,,,72,0
1042413,control_change,,,,,322,0,1,,,,0,64,0,,
1042432,set_tempo,,,,,341,1,0,,857142,,,,,,
1042432,note_on,,,,,0,0,1,,,,0,,,75,50
1042432,note_off,,,,,19,0,1,,,,0,,,68,0
1042432,note_on,,,,,0,0,1,,,,0,,,72,36
1042432,note_off,,,,,0,0,1,,,,0,,,60,0
1042432,note_off,,,,,0,0,1,,,,0,,,51,0
1042432,note_on,,,,,0,0,1,,,,0,,,44,30
1042722,control_change,,,,,290,0,1,,,,0,64,127,,
1042773,note_off,,,,,51,0,1,,,,0,,,72,0
1042773,note_off,,,,,0,0,1,,,,0,,,75,0
1042773,note_off,,,,,0,0,1,,,,0,,,44,0
1042773,note_on,,,,,0,0,1,,,,0,,,68,40
1042773,note_on,,,,,0,0,1,,,,0,,,51,21
1042773,set_tempo,,,,,341,1,0,,750000,,,,,,
1043115,note_off,,,,,0,0,1,,,,0,,,51,0
1043115,note_on,,,,,0,0,1,,,,0,,,60,21
1043115,note_on,,,,,0,0,1,,,,0,,,63,37
1043115,note_off,,,,,342,0,1,,,,0,,,68,0
1043115,set_tempo,,,,,342,1,0,,923076,,,,,,
1043456,set_tempo,,,,,341,1,0,,1000000,,,,,,
1043456,control_change,,,,,0,0,1,,,,0,64,0,,
1043456,control_change,,,,,341,0,1,,,,0,64,0,,
1043456,control_change,,,,,0,0,1,,,,0,64,127,,
1043456,control_change,,,,,0,0,1,,,,0,64,0,,
1043456,note_off,,,,,0,0,1,,,,0,,,63,0
1043456,note_off,,,,,0,0,1,,,,0,,,60,0
1043456,note_on,,,,,0,0,1,,,,0,,,67,33
1043456,note_on,,,,,0,0,1,,,,0,,,73,33
1043456,note_on,,,,,0,0,1,,,,0,,,77,57
1043456,note_on,,,,,0,0,1,,,,0,,,39,30
1043532,control_change,,,,,76,0,1,,,,0,64,0,,
1043609,control_change,,,,,77,0,1,,,,0,64,127,,
1043797,note_off,,,,,188,0,1,,,,0,,,67,0
1043797,note_on,,,,,0,0,1,,,,0,,,75,55
1043797,note_off,,,,,0,0,1,,,,0,,,73,0
1043797,note_off,,,,,0,0,1,,,,0,,,77,0
1043797,note_off,,,,,0,0,1,,,,0,,,39,0
1043797,note_on,,,,,0,0,1,,,,0,,,67,34
1043797,note_on,,,,,0,0,1,,,,0,,,51,23
1043797,set_tempo,,,,,341,1,0,,750000,,,,,,
1043797,note_on,,,,,0,0,1,,,,0,,,73,32
1043838,control_change,,,,,41,0,1,,,,0,64,0,,
1043927,control_change,,,,,89,0,1,,,,0,64,127,,
1044139,note_off,,,,,0,0,1,,,,0,,,75,0
1044139,note_on,,,,,0,0,1,,,,0,,,73,53
1044139,note_on,,,,,0,0,1,,,,0,,,67,39
1044139,note_off,,,,,0,0,1,,,,0,,,51,0
1044139,note_off,,,,,0,0,1,,,,0,,,73,0
1044139,note_off,,,,,212,0,1,,,,0,,,67,0
1044139,note_on,,,,,0,0,1,,,,0,,,51,24
1044219,control_change,,,,,80,0,1,,,,0,64,0,,
1044283,control_change,,,,,64,0,1,,,,0,64,127,,
1044480,note_on,,,,,0,0,1,,,,0,,,72,54
1044480,note_off,,,,,197,0,1,,,,0,,,67,0
1044480,note_off,,,,,0,0,1,,,,0,,,73,0
1044480,note_off,,,,,0,0,1,,,,0,,,51,0
1044480,note_on,,,,,0,0,1,,,,0,,,61,40
1044480,note_on,,,,,0,0,1,,,,0,,,67,40
1044480,note_on,,,,,0,0,1,,,,0,,,51,26
1044499,control_change,,,,,19,0,1,,,,0,64,0,,
1044575,control_change,,,,,76,0,1,,,,0,64,127,,
1044821,note_on,,,,,0,0,1,,,,0,,,51,24
1044821,note_on,,,,,0,0,1,,,,0,,,70,51
1044821,note_on,,,,,0,0,1,,,,0,,,67,37
1044821,note_on,,,,,0,0,1,,,,0,,,61,37
1044821,note_off,,,,,0,0,1,,,,0,,,51,0
1044821,note_off,,,,,0,0,1,,,,0,,,67,0
1044821,note_off,,,,,246,0,1,,,,0,,,61,0
1044821,note_off,,,,,0,0,1,,,,0,,,72,0
1044893,control_change,,,,,72,0,1,,,,0,64,0,,
1044982,control_change,,,,,89,0,1,,,,0,64,127,,
1045163,note_off,,,,,0,0,1,,,,0,,,70,0
1045163,note_off,,,,,0,0,1,,,,0,,,67,0
1045163,note_off,,,,,0,0,1,,,,0,,,51,0
1045163,note_on,,,,,0,0,1,,,,0,,,61,35
1045163,note_on,,,,,0,0,1,,,,0,,,65,35
1045163,note_on,,,,,0,0,1,,,,0,,,68,49
1045163,note_on,,,,,0,0,1,,,,0,,,51,22
1045163,note_off,,,,,181,0,1,,,,0,,,61,0
1045237,control_change,,,,,74,0,1,,,,0,64,0,,
1045351,control_change,,,,,114,0,1,,,,0,64,127,,
1045504,note_off,,,,,0,0,1,,,,0,,,61,0
1045504,note_off,,,,,0,0,1,,,,0,,,68,0
1045504,note_on,,,,,0,0,1,,,,0,,,58,34
1045504,note_on,,,,,0,0,1,,,,0,,,61,34
1045504,note_on,,,,,0,0,1,,,,0,,,63,34
1045504,note_on,,,,,0,0,1,,,,0,,,68,48
1045504,note_on,,,,,0,0,1,,,,0,,,51,22
1045504,note_off,,,,,0,0,1,,,,0,,,65,0
1045504,control_change,,,,,0,0,1,,,,0,64,0,,
1045504,note_off,,,,,0,0,1,,,,0,,,51,0
1045504,control_change,,,,,0,0,1,,,,0,64,127,,
1045504,control_change,,,,,153,0,1,,,,0,64,0,,
1045504,set_tempo,,,,,1707,1,0,,923076,,,,,,
1045504,control_change,,,,,0,0,1,,,,0,64,0,,
1045580,control_change,,,,,76,0,1,,,,0,64,0,,
1045657,control_change,,,,,77,0,1,,,,0,64,127,,
1045845,note_off,,,,,0,0,1,,,,0,,,68,0
1045845,note_off,,,,,0,0,1,,,,0,,,51,0
1045845,note_on,,,,,0,0,1,,,,0,,,58,32
1045845,note_on,,,,,0,0,1,,,,0,,,61,32
1045845,note_on,,,,,0,0,1,,,,0,,,63,32
1045845,note_on,,,,,0,0,1,,,,0,,,67,46
1045845,note_on,,,,,0,0,1,,,,0,,,51,19
1045845,note_off,,,,,0,0,1,,,,0,,,63,0
1045845,note_off,,,,,188,0,1,,,,0,,,58,0
1045845,set_tempo,,,,,341,1,0,,857142,,,,,,
1045845,note_off,,,,,0,0,1,,,,0,,,61,0
1045886,control_change,,,,,41,0,1,,,,0,64,0,,
1045975,control_change,,,,,89,0,1,,,,0,64,127,,
1046187,note_on,,,,,0,0,1,,,,0,,,65,45
1046187,note_on,,,,,0,0,1,,,,0,,,51,18
1046187,note_on,,,,,0,0,1,,,,0,,,61,31
1046187,note_off,,,,,0,0,1,,,,0,,,51,0
1046187,note_off,,,,,0,0,1,,,,0,,,67,0
1046187,note_off,,,,,0,0,1,,,,0,,,63,0
1046187,note_on,,,,,0,0,1,,,,0,,,58,31
1046187,note_off,,,,,212,0,1,,,,0,,,58,0
1046187,note_off,,,,,0,0,1,,,,0,,,61,0
1046187,set_tempo,,,,,342,1,0,,923076,,,,,,
1046267,control_change,,,,,80,0,1,,,,0,64,0,,
1046331,control_change,,,,,64,0,1,,,,0,64,127,,
1046528,note_on,,,,,0,0,1,,,,0,,,39,15
1046528,note_off,,,,,197,0,1,,,,0,,,58,0
1046528,note_off,,,,,0,0,1,,,,0,,,61,0
1046528,note_off,,,,,0,0,1,,,,0,,,65,0
1046528,note_off,,,,,0,0,1,,,,0,,,51,0
1046528,note_on,,,,,0,0,1,,,,0,,,55,23
1046528,note_on,,,,,0,0,1,,,,0,,,61,23
1046528,note_on,,,,,0,0,1,,,,0,,,65,37
1046528,set_tempo,,,,,341,1,0,,1090909,,,,,,
1046528,note_on,,,,,0,0,1,,,,0,,,51,8
1046547,control_change,,,,,19,0,1,,,,0,64,0,,
1046623,control_change,,,,,76,0,1,,,,0,64,127,,
1046869,note_on,,,,,0,0,1,,,,0,,,55,16
1046869,note_on,,,,,0,0,1,,,,0,,,63,30
1046869,note_on,,,,,0,0,1,,,,0,,,39,12
1046869,note_off,,,,,0,0,1,,,,0,,,51,0
1046869,note_on,,,,,0,0,1,,,,0,,,51,5
1046869,note_off,,,,,0,0,1,,,,0,,,39,0
1046869,note_on,,,,,0,0,1,,,,0,,,61,16
1046869,note_off,,,,,0,0,1,,,,0,,,61,0
1046869,note_off,,,,,246,0,1,,,,0,,,55,0
1046869,set_tempo,,,,,341,1,0,,1333333,,,,,,
1046869,note_off,,,,,0,0,1,,,,0,,,65,0
1046941,control_change,,,,,72,0,1,,,,0,64,0,,
1047030,control_change,,,,,89,0,1,,,,0,64,127,,
1047211,note_on,,,,,0,0,1,,,,0,,,61,29
1047211,set_tempo,,,,,342,1,0,,1500000,,,,,,
1047211,note_off,,,,,181,0,1,,,,0,,,55,0
1047211,note_off,,,,,0,0,1,,,,0,,,61,0
1047211,note_off,,,,,0,0,1,,,,0,,,63,0
1047211,note_off,,,,,0,0,1,,,,0,,,39,0
1047211,note_off,,,,,0,0,1,,,,0,,,51,0
1047211,note_on,,,,,0,0,1,,,,0,,,55,15
1047211,note_on,,,,,0,0,1,,,,0,,,39,9
1047211,note_on,,,,,0,0,1,,,,0,,,51,2
1047285,control_change,,,,,74,0,1,,,,0,64,0,,
1047399,control_change,,,,,114,0,1,,,,0,64,127,,
1047552,set_tempo,,,,,341,1,0,,750000,,,,,,
1047552,control_change,,,,,153,0,1,,,,0,64,0,,
1047552,note_off,,,,,0,0,1,,,,0,,,51,0
1047552,note_off,,,,,0,0,1,,,,0,,,39,0
1047552,note_off,,,,,0,0,1,,,,0,,,61,0
1047552,note_off,,,,,0,0,1,,,,0,,,55,0
1047552,control_change,,,,,0,0,1,,,,0,64,0,,
1049600,set_tempo,,,,,2048,1,0,,857142,,,,,,
1049600,note_on,,,,,0,0,1,,,,0,,,56,24
1049600,control_change,,,,,0,0,1,,,,0,64,0,,
1049600,note_on,,,,,0,0,1,,,,0,,,71,42
1049600,control_change,,,,,2048,0,1,,,,0,64,0,,
1049600,note_on,,,,,0,0,1,,,,0,,,68,21
1049761,control_change,,,,,161,0,1,,,,0,64,127,,
1049941,note_off,,,,,180,0,1,,,,0,,,56,0
1049941,note_on,,,,,0,0,1,,,,0,,,59,18
1049941,set_tempo,,,,,341,1,0,,750000,,,,,,
1050283,note_off,,,,,342,0,1,,,,0,,,59,0
1050283,note_on,,,,,0,0,1,,,,0,,,63,18
1050624,note_on,,,,,341,0,1,,,,0,,,73,27
1050624,note_on,,,,,0,0,1,,,,0,,,76,53
1050624,note_on,,,,,0,0,1,,,,0,,,49,24
1050624,note_off,,,,,0,0,1,,,,0,,,63,0
1050624,set_tempo,,,,,683,1,0,,857142,,,,,,
1050644,control_change,,,,,20,0,1,,,,0,64,0,,
1050664,note_off,,,,,0,0,1,,,,0,,,71,0
1050664,note_off,,,,,20,0,1,,,,0,,,68,0
1050805,control_change,,,,,141,0,1,,,,0,64,127,,
1050965,note_on,,,,,0,0,1,,,,0,,,56,18
1050965,set_tempo,,,,,341,1,0,,750000,,,,,,
1050965,note_off,,,,,160,0,1,,,,0,,,49,0
1051307,note_on,,,,,342,0,1,,,,0,,,71,22
1051307,note_on,,,,,0,0,1,,,,0,,,75,43
1051307,note_on,,,,,0,0,1,,,,0,,,61,18
1051307,note_off,,,,,0,0,1,,,,0,,,56,0
1051347,note_off,,,,,40,0,1,,,,0,,,73,0
1051347,note_off,,,,,0,0,1,,,,0,,,76,0
1051534,note_off,,,,,187,0,1,,,,0,,,71,0
1051534,note_on,,,,,0,0,1,,,,0,,,75,44
1051534,set_tempo,,,,,569,1,0,,857142,,,,,,
1051534,note_off,,,,,0,0,1,,,,0,,,75,0
1051534,note_on,,,,,0,0,1,,,,0,,,71,23
1051648,control_change,,,,,114,0,1,,,,0,64,0,,
1051648,note_on,,,,,0,0,1,,,,0,,,54,24
1051648,control_change,,,,,0,0,1,,,,0,64,127,,
1051648,note_off,,,,,0,0,1,,,,0,,,71,0
1051648,note_on,,,,,0,0,1,,,,0,,,70,28
1051648,note_off,,,,,0,0,1,,,,0,,,75,0
1051648,note_off,,,,,0,0,1,,,,0,,,61,0
1051648,note_on,,,,,0,0,1,,,,0,,,73,49
1051789,control_change,,,,,141,0,1,,,,0,64,0,,
1051869,control_change,,,,,80,0,1,,,,0,64,127,,
1051989,note_on,,,,,120,0,1,,,,0,,,68,23
1051989,note_on,,,,,0,0,1,,,,0,,,71,44
1051989,note_on,,,,,0,0,1,,,,0,,,61,18
1051989,note_off,,,,,0,0,1,,,,0,,,54,0
1051989,set_tempo,,,,,455,1,0,,750000,,,,,,
1052029,note_off,,,,,0,0,1,,,,0,,,73,0
1052029,note_off,,,,,0,0,1,,,,0,,,70,0
1052029,control_change,,,,,40,0,1,,,,0,64,0,,
1052150,control_change,,,,,121,0,1,,,,0,64,127,,
1052331,note_off,,,,,0,0,1,,,,0,,,61,0
1052331,note_on,,,,,181,0,1,,,,0,,,70,25
1052331,note_on,,,,,0,0,1,,,,0,,,64,18
1052331,note_on,,,,,0,0,1,,,,0,,,73,46
1052351,control_change,,,,,20,0,1,,,,0,64,0,,
1052371,note_off,,,,,20,0,1,,,,0,,,68,0
1052371,note_off,,,,,0,0,1,,,,0,,,71,0
1052491,control_change,,,,,120,0,1,,,,0,64,127,,
1052672,note_on,,,,,0,0,1,,,,0,,,75,46
1052672,note_off,,,,,0,0,1,,,,0,,,64,0
1052672,note_on,,,,,0,0,1,,,,0,,,47,24
1052672,note_on,,,,,181,0,1,,,,0,,,71,25
1052692,control_change,,,,,20,0,1,,,,0,64,0,,
1052712,note_off,,,,,20,0,1,,,,0,,,70,0
1052712,note_off,,,,,0,0,1,,,,0,,,73,0
1052893,control_change,,,,,181,0,1,,,,0,64,127,,
1053013,note_on,,,,,0,0,1,,,,0,,,54,18
1053013,note_off,,,,,120,0,1,,,,0,,,47,0
1053355,note_on,,,,,0,0,1,,,,0,,,63,18
1053355,set_tempo,,,,,1366,1,0,,857142,,,,,,
1053355,note_off,,,,,342,0,1,,,,0,,,71,0
1053355,note_on,,,,,0,0,1,,,,0,,,71,41
1053355,note_off,,,,,0,0,1,,,,0,,,54,0
1053355,note_off,,,,,0,0,1,,,,0,,,75,0
1053582,note_on,,,,,0,0,1,,,,0,,,71,44
1053582,note_off,,,,,227,0,1,,,,0,,,71,0
1053696,note_on,,,,,0,0,1,,,,0,,,70,49
1053696,set_tempo,,,,,341,1,0,,923076,,,,,,
1053696,note_on,,,,,0,0,1,,,,0,,,49,24
1053696,note_off,,,,,0,0,1,,,,0,,,71,0
1053696,control_change,,,,,0,0,1,,,,0,64,0,,
1053696,control_change,,,,,0,0,1,,,,0,64,127,,
1053696,control_change,,,,,114,0,1,,,,0,64,0,,
1053696,note_off,,,,,0,0,1,,,,0,,,63,0
1053696,note_on,,,,,0,0,1,,,,0,,,64,25
1053837,control_change,,,,,141,0,1,,,,0,64,0,,
1053917,control_change,,,,,80,0,1,,,,0,64,127,,
1054037,set_tempo,,,,,341,1,0,,750000,,,,,,
1054037,note_on,,,,,0,0,1,,,,0,,,52,18
1054037,note_on,,,,,120,0,1,,,,0,,,69,43
1054077,note_off,,,,,0,0,1,,,,0,,,70,0
1054077,control_change,,,,,40,0,1,,,,0,64,0,,
1054198,control_change,,,,,121,0,1,,,,0,64,127,,
1054379,note_off,,,,,0,0,1,,,,0,,,49,0
1054379,note_on,,,,,181,0,1,,,,0,,,70,44
1054379,note_on,,,,,0,0,1,,,,0,,,58,18
1054399,control_change,,,,,20,0,1,,,,0,64,0,,
1054419,note_off,,,,,20,0,1,,,,0,,,69,0
1054539,control_change,,,,,120,0,1,,,,0,64,127,,
1054720,note_on,,,,,181,0,1,,,,0,,,73,49
1054720,note_off,,,,,0,0,1,,,,0,,,58,0
1054720,note_on,,,,,0,0,1,,,,0,,,46,24
1054740,control_change,,,,,20,0,1,,,,0,64,0,,
1054760,note_off,,,,,20,0,1,,,,0,,,70,0
1054941,control_change,,,,,181,0,1,,,,0,64,127,,
1055061,note_on,,,,,120,0,1,,,,0,,,58,18
1055403,note_off,,,,,0,0,1,,,,0,,,52,0
1055403,note_off,,,,,0,0,1,,,,0,,,58,0
1055403,note_on,,,,,0,0,1,,,,0,,,61,18
1055403,set_tempo,,,,,1366,1,0,,857142,,,,,,
1055403,note_on,,,,,342,0,1,,,,0,,,70,42
1055403,note_off,,,,,0,0,1,,,,0,,,46,0
1055443,note_off,,,,,40,0,1,,,,0,,,73,0
1055744,note_on,,,,,0,0,1,,,,0,,,68,46
1055744,note_on,,,,,0,0,1,,,,0,,,63,25
1055744,note_off,,,,,0,0,1,,,,0,,,61,0
1055744,control_change,,,,,0,0,1,,,,0,64,127,,
1055744,control_change,,,,,301,0,1,,,,0,64,0,,
1055744,note_on,,,,,0,0,1,,,,0,,,51,24
1055744,control_change,,,,,0,0,1,,,,0,64,0,,
1055744,note_off,,,,,0,0,1,,,,0,,,64,0
1055784,note_off,,,,,40,0,1,,,,0,,,70,0
1055885,control_change,,,,,101,0,1,,,,0,64,0,,
1055965,control_change,,,,,80,0,1,,,,0,64,127,,
1055972,control_change,,,,,7,0,1,,,,0,64,127,,
1056085,set_tempo,,,,,682,1,0,,750000,,,,,,
1056085,note_on,,,,,0,0,1,,,,0,,,56,18
1056085,note_off,,,,,113,0,1,,,,0,,,51,0
1056427,note_on,,,,,0,0,1,,,,0,,,59,18
1056427,note_off,,,,,342,0,1,,,,0,,,56,0
1056768,note_on,,,,,0,0,1,,,,0,,,51,18
1056768,note_off,,,,,0,0,1,,,,0,,,59,0
1056768,note_on,,,,,341,0,1,,,,0,,,67,33
1056768,set_tempo,,,,,683,1,0,,923076,,,,,,
1056788,control_change,,,,,20,0,1,,,,0,64,0,,
1056808,note_off,,,,,20,0,1,,,,0,,,68,0
1056989,control_change,,,,,181,0,1,,,,0,64,127,,
1057109,set_tempo,,,,,341,1,0,,750000,,,,,,
1057109,note_on,,,,,0,0,1,,,,0,,,55,18
1057109,note_off,,,,,0,0,1,,,,0,,,51,0
1057109,note_on,,,,,120,0,1,,,,0,,,75,46
1057149,note_off,,,,,40,0,1,,,,0,,,67,0
1057451,note_on,,,,,302,0,1,,,,0,,,73,43
1057451,note_off,,,,,0,0,1,,,,0,,,55,0
1057451,note_on,,,,,0,0,1,,,,0,,,58,18
1057491,note_off,,,,,40,0,1,,,,0,,,75,0
1057792,note_on,,,,,0,0,1,,,,0,,,71,42
1057792,note_off,,,,,0,0,1,,,,0,,,63,0
1057792,note_on,,,,,0,0,1,,,,0,,,68,21
1057792,note_on,,,,,0,0,1,,,,0,,,56,24
1057792,note_off,,,,,0,0,1,,,,0,,,58,0
1057792,control_change,,,,,0,0,1,,,,0,64,0,,
1057792,set_tempo,,,,,683,1,0,,857142,,,,,,
1057792,control_change,,,,,301,0,1,,,,0,64,0,,
1057832,note_off,,,,,40,0,1,,,,0,,,73,0
1057953,control_change,,,,,121,0,1,,,,0,64,127,,
1058133,set_tempo,,,,,341,1,0,,750000,,,,,,
1058133,note_off,,,,,180,0,1,,,,0,,,56,0
1058133,note_on,,,,,0,0,1,,,,0,,,59,18
1058475,note_off,,,,,342,0,1,,,,0,,,59,0
1058475,note_on,,,,,0,0,1,,,,0,,,63,18
1058816,set_tempo,,,,,683,1,0,,857142,,,,,,
1058816,note_on,,,,,341,0,1,,,,0,,,73,27
1058816,note_on,,,,,0,0,1,,,,0,,,49,24
1058816,note_off,,,,,0,0,1,,,,0,,,63,0
1058816,note_on,,,,,0,0,1,,,,0,,,76,53
1058836,control_change,,,,,20,0,1,,,,0,64,0,,
1058856,note_off,,,,,20,0,1,,,,0,,,68,0
1058856,note_off,,,,,0,0,1,,,,0,,,71,0
1058997,control_change,,,,,141,0,1,,,,0,64,127,,
1059157,note_on,,,,,0,0,1,,,,0,,,56,18
1059157,note_off,,,,,160,0,1,,,,0,,,49,0
1059157,set_tempo,,,,,341,1,0,,750000,,,,,,
1059499,note_off,,,,,0,0,1,,,,0,,,56,0
1059499,note_on,,,,,0,0,1,,,,0,,,61,18
1059499,note_on,,,,,342,0,1,,,,0,,,71,22
1059499,note_on,,,,,0,0,1,,,,0,,,75,43
1059539,note_off,,,,,40,0,1,,,,0,,,73,0
1059539,note_off,,,,,0,0,1,,,,0,,,76,0
1059726,note_on,,,,,0,0,1,,,,0,,,75,44
1059726,set_tempo,,,,,569,1,0,,857142,,,,,,
1059726,note_off,,,,,0,0,1,,,,0,,,75,0
1059726,note_off,,,,,187,0,1,,,,0,,,71,0
1059726,note_on,,,,,0,0,1,,,,0,,,71,23
1059840,note_on,,,,,0,0,1,,,,0,,,54,24
1059840,note_on,,,,,0,0,1,,,,0,,,73,49
1059840,note_on,,,,,0,0,1,,,,0,,,70,28
1059840,note_off,,,,,0,0,1,,,,0,,,71,0
1059840,note_off,,,,,0,0,1,,,,0,,,75,0
1059840,control_change,,,,,0,0,1,,,,0,64,127,,
1059840,control_change,,,,,114,0,1,,,,0,64,0,,
1059840,note_off,,,,,0,0,1,,,,0,,,61,0
1059981,control_change,,,,,141,0,1,,,,0,64,0,,
1060061,control_change,,,,,80,0,1,,,,0,64,127,,
1060181,note_off,,,,,0,0,1,,,,0,,,54,0
1060181,set_tempo,,,,,455,1,0,,750000,,,,,,
1060181,note_on,,,,,0,0,1,,,,0,,,71,44
1060181,note_on,,,,,120,0,1,,,,0,,,68,23
1060181,note_on,,,,,0,0,1,,,,0,,,61,18
1060221,control_change,,,,,40,0,1,,,,0,64,0,,
1060221,note_off,,,,,0,0,1,,,,0,,,73,0
1060221,note_off,,,,,0,0,1,,,,0,,,70,0
1060342,control_change,,,,,121,0,1,,,,0,64,127,,
1060523,note_on,,,,,181,0,1,,,,0,,,70,25
1060523,note_on,,,,,0,0,1,,,,0,,,73,46
1060523,note_on,,,,,0,0,1,,,,0,,,64,18
1060523,note_off,,,,,0,0,1,,,,0,,,61,0
1060543,control_change,,,,,20,0,1,,,,0,64,0,,
1060563,note_off,,,,,20,0,1,,,,0,,,68,0
1060563,note_off,,,,,0,0,1,,,,0,,,71,0
1060683,control_change,,,,,120,0,1,,,,0,64,127,,
1060864,note_on,,,,,0,0,1,,,,0,,,75,46
1060864,note_on,,,,,181,0,1,,,,0,,,71,25
1060864,note_off,,,,,0,0,1,,,,0,,,64,0
1060864,note_on,,,,,0,0,1,,,,0,,,47,24
1060884,control_change,,,,,20,0,1,,,,0,64,0,,
1060904,note_off,,,,,0,0,1,,,,0,,,73,0
1060904,note_off,,,,,20,0,1,,,,0,,,70,0
1061085,control_change,,,,,181,0,1,,,,0,64,127,,
1061205,note_on,,,,,0,0,1,,,,0,,,54,18
1061205,note_off,,,,,120,0,1,,,,0,,,47,0
1061547,set_tempo,,,,,1366,1,0,,857142,,,,,,
1061547,note_off,,,,,0,0,1,,,,0,,,75,0
1061547,note_off,,,,,0,0,1,,,,0,,,54,0
1061547,note_on,,,,,0,0,1,,,,0,,,71,45
1061547,note_on,,,,,0,0,1,,,,0,,,63,18
1061547,note_off,,,,,342,0,1,,,,0,,,71,0
1061774,note_off,,,,,227,0,1,,,,0,,,71,0
1061774,note_on,,,,,0,0,1,,,,0,,,73,48
1061888,control_change,,,,,0,0,1,,,,0,64,127,,
1061888,control_change,,,,,114,0,1,,,,0,64,0,,
1061888,control_change,,,,,0,0,1,,,,0,64,0,,
1061888,note_on,,,,,0,0,1,,,,0,,,56,24
1061888,note_on,,,,,0,0,1,,,,0,,,71,50
1061888,control_change,,,,,0,0,1,,,,0,64,0,,
1061888,set_tempo,,,,,341,1,0,,923076,,,,,,
1061888,note_off,,,,,0,0,1,,,,0,,,63,0
1061888,note_off,,,,,0,0,1,,,,0,,,73,0
1061888,control_change,,,,,0,0,1,,,,0,64,0,,
1062029,control_change,,,,,141,0,1,,,,0,64,0,,
1062109,control_change,,,,,80,0,1,,,,0,64,127,,
1062229,note_on,,,,,0,0,1,,,,0,,,70,47
1062229,note_on,,,,,0,0,1,,,,0,,,59,18
1062229,note_off,,,,,0,0,1,,,,0,,,56,0
1062229,set_tempo,,,,,341,1,0,,750000,,,,,,
1062229,note_off,,,,,120,0,1,,,,0,,,71,0
1062269,control_change,,,,,40,0,1,,,,0,64,0,,
1062390,control_change,,,,,121,0,1,,,,0,64,127,,
1062571,note_off,,,,,181,0,1,,,,0,,,70,0
1062571,note_on,,,,,0,0,1,,,,0,,,64,18
1062571,note_on,,,,,0,0,1,,,,0,,,71,52
1062571,set_tempo,,,,,342,1,0,,923076,,,,,,
1062591,control_change,,,,,20,0,1,,,,0,64,0,,
1062731,control_change,,,,,140,0,1,,,,0,64,127,,
1062912,note_on,,,,,0,0,1,,,,0,,,52,24
1062912,note_on,,,,,0,0,1,,,,0,,,80,57
1062912,set_tempo,,,,,341,1,0,,857142,,,,,,
1062912,note_on,,,,,0,0,1,,,,0,,,71,36
1062912,note_off,,,,,181,0,1,,,,0,,,71,0
1062932,control_change,,,,,20,0,1,,,,0,64,0,,
1063133,control_change,,,,,201,0,1,,,,0,64,127,,
1063253,note_on,,,,,0,0,1,,,,0,,,59,18
1063253,note_off,,,,,120,0,1,,,,0,,,59,0
1063253,set_tempo,,,,,341,1,0,,750000,,,,,,
1063253,note_off,,,,,0,0,1,,,,0,,,64,0
1063595,note_off,,,,,342,0,1,,,,0,,,80,0
1063595,note_on,,,,,0,0,1,,,,0,,,76,46
1063595,set_tempo,,,,,342,1,0,,857142,,,,,,
1063595,note_off,,,,,0,0,1,,,,0,,,52,0
1063595,note_on,,,,,0,0,1,,,,0,,,68,18
1063936,note_on,,,,,0,0,1,,,,0,,,71,29
1063936,note_off,,,,,0,0,1,,,,0,,,76,0
1063936,note_on,,,,,0,0,1,,,,0,,,54,24
1063936,note_off,,,,,0,0,1,,,,0,,,71,0
1063936,control_change,,,,,0,0,1,,,,0,64,0,,
1063936,control_change,,,,,0,0,1,,,,0,64,0,,
1063936,control_change,,,,,0,0,1,,,,0,64,127,,
1063936,control_change,,,,,0,0,1,,,,0,64,0,,
1063936,control_change,,,,,341,0,1,,,,0,64,0,,
1063936,note_off,,,,,0,0,1,,,,0,,,68,0
1063936,note_off,,,,,0,0,1,,,,0,,,59,0
1063936,note_on,,,,,0,0,1,,,,0,,,75,50
1064077,control_change,,,,,141,0,1,,,,0,64,0,,
1064157,control_change,,,,,80,0,1,,,,0,64,127,,
1064164,control_change,,,,,7,0,1,,,,0,64,127,,
1064277,set_tempo,,,,,682,1,0,,750000,,,,,,
1064277,note_on,,,,,0,0,1,,,,0,,,59,18
1064277,note_off,,,,,113,0,1,,,,0,,,54,0
1064619,note_on,,,,,0,0,1,,,,0,,,63,18
1064619,note_off,,,,,342,0,1,,,,0,,,59,0
1064960,note_on,,,,,0,0,1,,,,0,,,54,18
1064960,note_on,,,,,0,0,1,,,,0,,,73,33
1064960,note_on,,,,,0,0,1,,,,0,,,70,19
1064960,note_off,,,,,0,0,1,,,,0,,,63,0
1064960,note_off,,,,,341,0,1,,,,0,,,71,0
1064960,note_off,,,,,0,0,1,,,,0,,,75,0
1064980,control_change,,,,,20,0,1,,,,0,64,0,,
1065181,control_change,,,,,201,0,1,,,,0,64,127,,
1065301,note_off,,,,,120,0,1,,,,0,,,54,0
1065301,note_on,,,,,0,0,1,,,,0,,,58,20
1065301,set_tempo,,,,,1024,1,0,,857142,,,,,,
1065643,note_on,,,,,0,0,1,,,,0,,,61,22
1065643,note_off,,,,,0,0,1,,,,0,,,58,0
1065643,note_on,,,,,0,0,1,,,,0,,,76,54
1065643,set_tempo,,,,,342,1,0,,1090909,,,,,,
1065643,note_off,,,,,342,0,1,,,,0,,,73,0
1065984,note_off,,,,,0,0,1,,,,0,,,70,0
1065984,control_change,,,,,0,0,1,,,,0,64,0,,
1065984,note_off,,,,,0,0,1,,,,0,,,76,0
1065984,note_off,,,,,0,0,1,,,,0,,,61,0
1065984,note_on,,,,,0,0,1,,,,0,,,70,41
1065984,note_on,,,,,0,0,1,,,,0,,,76,60
1065984,control_change,,,,,0,0,1,,,,0,64,0,,
1065984,control_change,,,,,0,0,1,,,,0,64,127,,
1065984,control_change,,,,,341,0,1,,,,0,64,0,,
1065984,note_on,,,,,0,0,1,,,,0,,,61,27
1065984,set_tempo,,,,,341,1,0,,750000,,,,,,
1065984,note_on,,,,,0,0,1,,,,0,,,55,21
1066048,control_change,,,,,64,0,1,,,,0,64,0,,
1066200,control_change,,,,,152,0,1,,,,0,64,127,,
1067008,set_tempo,,,,,1024,1,0,,857142,,,,,,
1067014,control_change,,,,,814,0,1,,,,0,64,0,,
1067116,control_change,,,,,102,0,1,,,,0,64,127,,
1067349,note_off,,,,,0,0,1,,,,0,,,61,0
1067349,note_on,,,,,0,0,1,,,,0,,,63,29
1067349,set_tempo,,,,,341,1,0,,800000,,,,,,
1067349,note_on,,,,,0,0,1,,,,0,,,75,49
1067349,note_off,,,,,233,0,1,,,,0,,,76,0
1067409,control_change,,,,,60,0,1,,,,0,64,0,,
1067510,control_change,,,,,101,0,1,,,,0,64,127,,
1067691,note_off,,,,,0,0,1,,,,0,,,63,0
1067691,note_off,,,,,181,0,1,,,,0,,,75,0
1067691,note_on,,,,,0,0,1,,,,0,,,73,47
1067691,note_on,,,,,0,0,1,,,,0,,,64,27
1067752,control_change,,,,,61,0,1,,,,0,64,0,,
1067841,control_change,,,,,89,0,1,,,,0,64,127,,
1068032,note_off,,,,,0,0,1,,,,0,,,55,0
1068032,note_on,,,,,0,0,1,,,,0,,,71,48
1068032,note_off,,,,,0,0,1,,,,0,,,70,0
1068032,control_change,,,,,0,0,1,,,,0,64,0,,
1068032,control_change,,,,,0,0,1,,,,0,64,0,,
1068032,control_change,,,,,0,0,1,,,,0,64,0,,
1068032,control_change,,,,,0,0,1,,,,0,64,127,,
1068032,control_change,,,,,191,0,1,,,,0,64,0,,
1068032,note_off,,,,,0,0,1,,,,0,,,73,0
1068032,note_on,,,,,0,0,1,,,,0,,,56,15
1068032,note_on,,,,,0,0,1,,,,0,,,63,24
1068032,set_tempo,,,,,683,1,0,,923076,,,,,,
1068032,note_off,,,,,0,0,1,,,,0,,,64,0
1068032,note_on,,,,,0,0,1,,,,0,,,68,29
1068108,control_change,,,,,76,0,1,,,,0,64,0,,
1068185,control_change,,,,,77,0,1,,,,0,64,127,,
1068373,set_tempo,,,,,341,1,0,,800000,,,,,,
1068373,note_off,,,,,188,0,1,,,,0,,,71,0
1068373,note_on,,,,,0,0,1,,,,0,,,70,47
1068414,control_change,,,,,41,0,1,,,,0,64,0,,
1068503,control_change,,,,,89,0,1,,,,0,64,127,,
1068715,note_off,,,,,212,0,1,,,,0,,,68,0
1068715,note_on,,,,,0,0,1,,,,0,,,68,46
1068715,note_off,,,,,0,0,1,,,,0,,,70,0
1068795,control_change,,,,,80,0,1,,,,0,64,0,,
1068800,note_off,,,,,0,0,1,,,,0,,,63,0
1068800,note_off,,,,,5,0,1,,,,0,,,56,0
1068859,control_change,,,,,59,0,1,,,,0,64,127,,
1069056,note_off,,,,,197,0,1,,,,0,,,68,0
1069056,note_on,,,,,0,0,1,,,,0,,,56,27
1069056,note_on,,,,,0,0,1,,,,0,,,52,18
1069056,set_tempo,,,,,683,1,0,,923076,,,,,,
1069056,note_on,,,,,0,0,1,,,,0,,,67,49
1069056,note_on,,,,,0,0,1,,,,0,,,62,37
1069075,control_change,,,,,19,0,1,,,,0,64,0,,
1069151,control_change,,,,,76,0,1,,,,0,64,127,,
1069397,note_on,,,,,0,0,1,,,,0,,,68,44
1069397,note_off,,,,,246,0,1,,,,0,,,67,0
1069397,set_tempo,,,,,341,1,0,,857142,,,,,,
1069469,control_change,,,,,72,0,1,,,,0,64,0,,
1069558,control_change,,,,,89,0,1,,,,0,64,127,,
1069739,note_off,,,,,181,0,1,,,,0,,,68,0
1069739,note_on,,,,,0,0,1,,,,0,,,70,40
1069813,control_change,,,,,74,0,1,,,,0,64,0,,
1069927,control_change,,,,,114,0,1,,,,0,64,127,,
1070080,note_off,,,,,0,0,1,,,,0,,,70,0
1070080,note_off,,,,,0,0,1,,,,0,,,62,0
1070080,control_change,,,,,0,0,1,,,,0,64,0,,
1070080,control_change,,,,,0,0,1,,,,0,64,0,,
1070080,control_change,,,,,0,0,1,,,,0,64,0,,
1070080,control_change,,,,,0,0,1,,,,0,64,127,,
1070080,set_tempo,,,,,683,1,0,,923076,,,,,,
1070080,note_off,,,,,0,0,1,,,,0,,,52,0
1070080,note_on,,,,,0,0,1,,,,0,,,55,20
1070080,note_on,,,,,0,0,1,,,,0,,,51,15
1070080,note_on,,,,,0,0,1,,,,0,,,63,41
1070080,control_change,,,,,153,0,1,,,,0,64,0,,
1070080,note_off,,,,,0,0,1,,,,0,,,56,0
1070144,control_change,,,,,64,0,1,,,,0,64,0,,
1070296,control_change,,,,,152,0,1,,,,0,64,127,,
1070592,note_off,,,,,296,0,1,,,,0,,,51,0
1070592,note_off,,,,,0,0,1,,,,0,,,55,0
1070763,set_tempo,,,,,683,1,0,,1090909,,,,,,
1070763,note_off,,,,,171,0,1,,,,0,,,63,0
1070763,note_on,,,,,0,0,1,,,,0,,,64,51
1070796,control_change,,,,,33,0,1,,,,0,64,0,,
1071104,note_on,,,,,308,0,1,,,,0,,,58,31
1071104,note_on,,,,,0,0,1,,,,0,,,49,24
1071104,note_on,,,,,0,0,1,,,,0,,,43,17
1071110,control_change,,,,,6,0,1,,,,0,64,0,,
1071207,control_change,,,,,97,0,1,,,,0,64,0,,
1071301,control_change,,,,,94,0,1,,,,0,64,127,,
1071445,set_tempo,,,,,682,1,0,,857142,,,,,,
1071445,note_off,,,,,0,0,1,,,,0,,,49,0
1071445,note_on,,,,,0,0,1,,,,0,,,63,42
1071445,note_on,,,,,0,0,1,,,,0,,,51,23
1071445,note_off,,,,,144,0,1,,,,0,,,64,0
1071505,control_change,,,,,60,0,1,,,,0,64,0,,
1071600,control_change,,,,,95,0,1,,,,0,64,0,,
1071694,control_change,,,,,94,0,1,,,,0,64,127,,
1071787,note_off,,,,,0,0,1,,,,0,,,51,0
1071787,note_off,,,,,93,0,1,,,,0,,,63,0
1071787,note_on,,,,,0,0,1,,,,0,,,61,40
1071787,note_on,,,,,0,0,1,,,,0,,,52,21
1071848,control_change,,,,,61,0,1,,,,0,64,0,,
1071921,control_change,,,,,73,0,1,,,,0,64,0,,
1072025,control_change,,,,,104,0,1,,,,0,64,127,,
1072128,note_off,,,,,0,0,1,,,,0,,,61,0
1072128,note_off,,,,,0,0,1,,,,0,,,43,0
1072128,note_off,,,,,0,0,1,,,,0,,,52,0
1072128,note_on,,,,,0,0,1,,,,0,,,59,41
1072128,note_on,,,,,0,0,1,,,,0,,,51,15
1072128,note_on,,,,,0,0,1,,,,0,,,44,6
1072128,note_on,,,,,0,0,1,,,,0,,,56,31
1072128,control_change,,,,,0,0,1,,,,0,64,0,,
1072128,note_off,,,,,0,0,1,,,,0,,,58,0
1072128,control_change,,,,,0,0,1,,,,0,64,0,,
1072128,set_tempo,,,,,683,1,0,,1000000,,,,,,
1072128,control_change,,,,,103,0,1,,,,0,64,0,,
1072128,control_change,,,,,0,0,1,,,,0,64,0,,
1072128,control_change,,,,,0,0,1,,,,0,64,127,,
1072128,control_change,,,,,0,0,1,,,,0,64,0,,
1072128,control_change,,,,,0,0,1,,,,0,64,0,,
1072204,control_change,,,,,76,0,1,,,,0,64,0,,
1072281,control_change,,,,,77,0,1,,,,0,64,127,,
1072469,set_tempo,,,,,341,1,0,,857142,,,,,,
1072469,note_off,,,,,188,0,1,,,,0,,,59,0
1072469,note_on,,,,,0,0,1,,,,0,,,58,39
1072510,control_change,,,,,41,0,1,,,,0,64,0,,
1072599,control_change,,,,,89,0,1,,,,0,64,127,,
1072811,note_off,,,,,212,0,1,,,,0,,,56,0
1072811,note_off,,,,,0,0,1,,,,0,,,58,0
1072811,note_on,,,,,0,0,1,,,,0,,,56,36
1072891,control_change,,,,,80,0,1,,,,0,64,0,,
1072896,note_off,,,,,0,0,1,,,,0,,,51,0
1072896,note_off,,,,,5,0,1,,,,0,,,44,0
1072955,control_change,,,,,59,0,1,,,,0,64,127,,
1073152,note_on,,,,,0,0,1,,,,0,,,44,21
1073152,note_on,,,,,0,0,1,,,,0,,,40,12
1073152,set_tempo,,,,,683,1,0,,1000000,,,,,,
1073152,note_on,,,,,0,0,1,,,,0,,,55,37
1073152,note_off,,,,,197,0,1,,,,0,,,56,0
1073152,note_on,,,,,0,0,1,,,,0,,,50,28
1073171,control_change,,,,,19,0,1,,,,0,64,0,,
1073247,control_change,,,,,76,0,1,,,,0,64,127,,
1073493,set_tempo,,,,,341,1,0,,857142,,,,,,
1073493,note_on,,,,,0,0,1,,,,0,,,56,32
1073493,note_off,,,,,246,0,1,,,,0,,,55,0
1073565,control_change,,,,,72,0,1,,,,0,64,0,,
1073654,control_change,,,,,89,0,1,,,,0,64,127,,
1073835,note_off,,,,,181,0,1,,,,0,,,56,0
1073835,note_on,,,,,0,0,1,,,,0,,,58,28
1073909,control_change,,,,,74,0,1,,,,0,64,0,,
1074023,control_change,,,,,114,0,1,,,,0,64,127,,
1074176,control_change,,,,,0,0,1,,,,0,64,0,,
1074176,control_change,,,,,153,0,1,,,,0,64,0,,
1074176,note_off,,,,,0,0,1,,,,0,,,58,0
1074176,note_off,,,,,0,0,1,,,,0,,,40,0
1074176,note_off,,,,,0,0,1,,,,0,,,44,0
1074176,note_on,,,,,0,0,1,,,,0,,,51,24
1074176,note_on,,,,,0,0,1,,,,0,,,39,11
1074176,note_on,,,,,0,0,1,,,,0,,,43,11
1074176,note_off,,,,,0,0,1,,,,0,,,50,0
1074176,control_change,,,,,0,0,1,,,,0,64,127,,
1074176,set_tempo,,,,,683,1,0,,857142,,,,,,
1074259,control_change,,,,,83,0,1,,,,0,64,0,,
1074502,control_change,,,,,243,0,1,,,,0,64,0,,
1075000,note_off,,,,,0,0,1,,,,0,,,39,0
1075000,note_off,,,,,0,0,1,,,,0,,,43,0
1075000,note_off,,,,,498,0,1,,,,0,,,51,0
1075200,note_on,,,,,200,0,1,,,,0,,,52,26
1075200,note_on,,,,,0,0,1,,,,0,,,40,17
1075200,set_tempo,,,,,1024,1,0,,800000,,,,,,
1076224,set_tempo,,,,,1024,1,0,,750000,,,,,,
1076224,control_change,,,,,1024,0,1,,,,0,64,0,,
1076224,control_change,,,,,0,0,1,,,,0,64,0,,
1076224,note_on,,,,,0,0,1,,,,0,,,51,28
1076224,note_on,,,,,0,0,1,,,,0,,,39,17
1076264,note_off,,,,,0,0,1,,,,0,,,40,0
1076264,note_off,,,,,40,0,1,,,,0,,,52,0
1076550,control_change,,,,,286,0,1,,,,0,64,127,,
1077248,note_on,,,,,0,0,1,,,,0,,,61,33
1077248,note_on,,,,,0,0,1,,,,0,,,51,19
1077248,note_on,,,,,0,0,1,,,,0,,,55,19
1077248,note_on,,,,,0,0,1,,,,0,,,39,10
1077248,note_off,,,,,0,0,1,,,,0,,,39,0
1077248,set_tempo,,,,,1024,1,0,,857142,,,,,,
1077248,note_off,,,,,698,0,1,,,,0,,,51,0
1077248,note_on,,,,,0,0,1,,,,0,,,51,17
1078272,set_tempo,,,,,1024,1,0,,750000,,,,,,
1078272,control_change,,,,,0,0,1,,,,0,64,0,,
1078272,control_change,,,,,1024,0,1,,,,0,64,0,,
1078272,note_on,,,,,0,0,1,,,,0,,,44,22
1078272,note_on,,,,,0,0,1,,,,0,,,60,37
1078272,note_on,,,,,0,0,1,,,,0,,,56,23
1078272,note_off,,,,,0,0,1,,,,0,,,51,0
1078272,note_off,,,,,0,0,1,,,,0,,,39,0
1078272,note_on,,,,,0,0,1,,,,0,,,51,10
1078272,note_off,,,,,0,0,1,,,,0,,,55,0
1078272,note_off,,,,,0,0,1,,,,0,,,51,0
1078272,control_change,,,,,0,0,1,,,,0,64,0,,
1078272,control_change,,,,,0,0,1,,,,0,64,0,,
1078272,note_off,,,,,0,0,1,,,,0,,,61,0
1078476,control_change,,,,,204,0,1,,,,0,64,127,,
1078541,control_change,,,,,65,0,1,,,,0,64,0,,
1078703,control_change,,,,,162,0,1,,,,0,64,127,,
1079296,note_off,,,,,0,0,1,,,,0,,,51,0
1079296,note_off,,,,,0,0,1,,,,0,,,44,0
1079296,note_on,,,,,0,0,1,,,,0,,,49,7
1079296,note_on,,,,,0,0,1,,,,0,,,44,7
1079296,note_on,,,,,593,0,1,,,,0,,,61,19
1079296,set_tempo,,,,,1024,1,0,,857142,,,,,,
1079296,note_on,,,,,0,0,1,,,,0,,,65,33
1079296,note_on,,,,,0,0,1,,,,0,,,37,19
1079302,control_change,,,,,6,0,1,,,,0,64,0,,
1079336,note_off,,,,,34,0,1,,,,0,,,56,0
1079336,note_off,,,,,0,0,1,,,,0,,,60,0
1079519,control_change,,,,,183,0,1,,,,0,64,127,,
1079981,control_change,,,,,462,0,1,,,,0,64,127,,
1080320,set_tempo,,,,,1024,1,0,,750000,,,,,,
1080320,control_change,,,,,339,0,1,,,,0,64,0,,
1080320,control_change,,,,,0,0,1,,,,0,64,127,,
1080320,note_off,,,,,0,0,1,,,,0,,,37,0
1080320,note_off,,,,,0,0,1,,,,0,,,44,0
1080320,note_off,,,,,0,0,1,,,,0,,,49,0
1080320,note_on,,,,,0,0,1,,,,0,,,60,15
1080320,note_on,,,,,0,0,1,,,,0,,,63,34
1080320,note_on,,,,,0,0,1,,,,0,,,44,20
1080320,note_on,,,,,0,0,1,,,,0,,,51,8
1080360,note_off,,,,,0,0,1,,,,0,,,65,0
1080360,note_off,,,,,40,0,1,,,,0,,,61,0
1080384,control_change,,,,,24,0,1,,,,0,64,0,,
1080536,control_change,,,,,152,0,1,,,,0,64,127,,
1081344,note_on,,,,,0,0,1,,,,0,,,72,39
1081344,note_off,,,,,808,0,1,,,,0,,,60,0
1081344,note_off,,,,,0,0,1,,,,0,,,63,0
1081344,note_off,,,,,0,0,1,,,,0,,,44,0
1081344,note_off,,,,,0,0,1,,,,0,,,51,0
1081344,note_on,,,,,0,0,1,,,,0,,,68,20
1081344,set_tempo,,,,,1024,1,0,,857142,,,,,,
1081344,note_on,,,,,0,0,1,,,,0,,,44,25
1081350,control_change,,,,,6,0,1,,,,0,64,0,,
1081452,control_change,,,,,102,0,1,,,,0,64,127,,
1081685,note_on,,,,,0,0,1,,,,0,,,46,23
1081685,note_on,,,,,0,0,1,,,,0,,,70,37
1081685,set_tempo,,,,,341,1,0,,750000,,,,,,
1081685,note_on,,,,,233,0,1,,,,0,,,67,18
1081725,note_off,,,,,0,0,1,,,,0,,,72,0
1081725,note_off,,,,,40,0,1,,,,0,,,68,0
1081725,note_off,,,,,0,0,1,,,,0,,,44,0
1081745,control_change,,,,,20,0,1,,,,0,64,0,,
1081846,control_change,,,,,101,0,1,,,,0,64,127,,
1082027,note_on,,,,,0,0,1,,,,0,,,68,35
1082027,note_on,,,,,181,0,1,,,,0,,,65,16
1082027,note_on,,,,,0,0,1,,,,0,,,48,21
1082067,note_off,,,,,0,0,1,,,,0,,,46,0
1082067,note_off,,,,,0,0,1,,,,0,,,70,0
1082067,note_off,,,,,40,0,1,,,,0,,,67,0
1082088,control_change,,,,,21,0,1,,,,0,64,0,,
1082177,control_change,,,,,89,0,1,,,,0,64,127,,
1082368,set_tempo,,,,,683,1,0,,857142,,,,,,
1082368,control_change,,,,,191,0,1,,,,0,64,0,,
1082368,control_change,,,,,0,0,1,,,,0,64,127,,
1082368,note_on,,,,,0,0,1,,,,0,,,67,39
1082368,note_on,,,,,0,0,1,,,,0,,,49,22
1082368,note_on,,,,,0,0,1,,,,0,,,63,20
1082408,note_off,,,,,40,0,1,,,,0,,,65,0
1082408,note_off,,,,,0,0,1,,,,0,,,68,0
1082408,note_off,,,,,0,0,1,,,,0,,,48,0
1082444,control_change,,,,,36,0,1,,,,0,64,0,,
1082495,control_change,,,,,51,0,1,,,,0,64,0,,
1082611,control_change,,,,,116,0,1,,,,0,64,127,,
1082709,note_on,,,,,0,0,1,,,,0,,,53,24
1082709,note_on,,,,,0,0,1,,,,0,,,65,37
1082709,set_tempo,,,,,341,1,0,,750000,,,,,,
1082709,note_on,,,,,98,0,1,,,,0,,,61,18
1082749,note_off,,,,,40,0,1,,,,0,,,63,0
1082749,note_off,,,,,0,0,1,,,,0,,,67,0
1082749,note_off,,,,,0,0,1,,,,0,,,49,0
1082750,control_change,,,,,1,0,1,,,,0,64,0,,
1082831,control_change,,,,,81,0,1,,,,0,64,0,,
1082947,control_change,,,,,116,0,1,,,,0,64,127,,
1083051,note_on,,,,,0,0,1,,,,0,,,58,27
1083051,note_on,,,,,104,0,1,,,,0,,,64,34
1083091,note_off,,,,,0,0,1,,,,0,,,53,0
1083091,note_off,,,,,40,0,1,,,,0,,,65,0
1083131,control_change,,,,,40,0,1,,,,0,64,0,,
1083178,control_change,,,,,47,0,1,,,,0,64,0,,
1083247,control_change,,,,,69,0,1,,,,0,64,127,,
1083392,note_on,,,,,145,0,1,,,,0,,,65,34
1083392,note_on,,,,,0,0,1,,,,0,,,56,26
1083411,control_change,,,,,19,0,1,,,,0,64,0,,
1083432,note_off,,,,,0,0,1,,,,0,,,58,0
1083432,note_off,,,,,21,0,1,,,,0,,,64,0
1083487,control_change,,,,,55,0,1,,,,0,64,127,,
1083490,control_change,,,,,3,0,1,,,,0,64,0,,
1083629,control_change,,,,,139,0,1,,,,0,64,127,,
1083733,note_on,,,,,0,0,1,,,,0,,,67,30
1083733,note_on,,,,,0,0,1,,,,0,,,53,19
1083733,note_on,,,,,104,0,1,,,,0,,,63,14
1083773,note_off,,,,,0,0,1,,,,0,,,56,0
1083773,note_off,,,,,0,0,1,,,,0,,,65,0
1083773,note_off,,,,,40,0,1,,,,0,,,61,0
1083805,control_change,,,,,32,0,1,,,,0,64,0,,
1083884,control_change,,,,,79,0,1,,,,0,64,0,,
1083988,control_change,,,,,104,0,1,,,,0,64,127,,
1084075,note_on,,,,,87,0,1,,,,0,,,65,13
1084075,set_tempo,,,,,1366,1,0,,857142,,,,,,
1084075,note_on,,,,,0,0,1,,,,0,,,49,10
1084075,note_on,,,,,0,0,1,,,,0,,,68,29
1084115,note_off,,,,,40,0,1,,,,0,,,63,0
1084115,note_off,,,,,0,0,1,,,,0,,,67,0
1084115,note_off,,,,,0,0,1,,,,0,,,53,0
1084149,control_change,,,,,34,0,1,,,,0,64,0,,
1084263,control_change,,,,,114,0,1,,,,0,64,127,,
1084416,note_on,,,,,0,0,1,,,,0,,,63,37
1084416,note_off,,,,,0,0,1,,,,0,,,49,0
1084416,note_off,,,,,0,0,1,,,,0,,,68,0
1084416,note_off,,,,,0,0,1,,,,0,,,65,0
1084416,note_on,,,,,0,0,1,,,,0,,,44,18
1084416,control_change,,,,,153,0,1,,,,0,64,0,,
1084416,control_change,,,,,0,0,1,,,,0,64,127,,
1084416,note_on,,,,,0,0,1,,,,0,,,60,18
1084416,set_tempo,,,,,341,1,0,,750000,,,,,,
1084490,control_change,,,,,74,0,1,,,,0,64,0,,
1084560,control_change,,,,,70,0,1,,,,0,64,0,,
1084849,control_change,,,,,289,0,1,,,,0,64,127,,
1085440,set_tempo,,,,,1024,1,0,,857142,,,,,,
1085440,note_off,,,,,0,0,1,,,,0,,,44,0
1085440,note_on,,,,,0,0,1,,,,0,,,37,22
1085440,note_on,,,,,0,0,1,,,,0,,,44,13
1085440,note_on,,,,,591,0,1,,,,0,,,61,25
1085440,note_on,,,,,0,0,1,,,,0,,,65,44
1085447,control_change,,,,,7,0,1,,,,0,64,0,,
1085480,note_off,,,,,33,0,1,,,,0,,,60,0
1085480,note_off,,,,,0,0,1,,,,0,,,63,0
1085561,control_change,,,,,81,0,1,,,,0,64,0,,
1085758,control_change,,,,,197,0,1,,,,0,64,127,,
1086123,note_on,,,,,0,0,1,,,,0,,,44,24
1086123,note_on,,,,,0,0,1,,,,0,,,51,15
1086123,note_on,,,,,0,0,1,,,,0,,,63,37
1086123,note_off,,,,,0,0,1,,,,0,,,37,0
1086123,note_on,,,,,365,0,1,,,,0,,,60,18
1086123,note_off,,,,,0,0,1,,,,0,,,44,0
1086163,note_off,,,,,0,0,1,,,,0,,,65,0
1086163,note_off,,,,,40,0,1,,,,0,,,61,0
1086169,control_change,,,,,6,0,1,,,,0,64,0,,
1086290,control_change,,,,,121,0,1,,,,0,64,0,,
1086360,control_change,,,,,70,0,1,,,,0,64,127,,
1086464,set_tempo,,,,,1024,1,0,,800000,,,,,,
1086464,note_on,,,,,0,0,1,,,,0,,,53,14
1086464,note_on,,,,,0,0,1,,,,0,,,46,25
1086464,note_on,,,,,0,0,1,,,,0,,,61,39
1086464,note_on,,,,,0,0,1,,,,0,,,58,25
1086464,note_off,,,,,0,0,1,,,,0,,,51,0
1086464,note_off,,,,,0,0,1,,,,0,,,44,0
1086464,note_off,,,,,0,0,1,,,,0,,,63,0
1086464,note_off,,,,,0,0,1,,,,0,,,60,0
1086464,control_change,,,,,0,0,1,,,,0,64,0,,
1086464,control_change,,,,,0,0,1,,,,0,64,0,,
1086464,control_change,,,,,0,0,1,,,,0,64,0,,
1086464,control_change,,,,,0,0,1,,,,0,64,0,,
1086464,control_change,,,,,0,0,1,,,,0,64,0,,
1086464,control_change,,,,,104,0,1,,,,0,64,0,,
1086668,control_change,,,,,204,0,1,,,,0,64,127,,
1087488,note_on,,,,,0,0,1,,,,0,,,53,14
1087488,note_on,,,,,0,0,1,,,,0,,,41,25
1087488,note_on,,,,,0,0,1,,,,0,,,65,44
1087488,note_on,,,,,0,0,1,,,,0,,,60,22
1087488,set_tempo,,,,,1024,1,0,,923076,,,,,,
1087488,note_off,,,,,0,0,1,,,,0,,,53,0
1087488,note_off,,,,,0,0,1,,,,0,,,46,0
1087488,note_off,,,,,820,0,1,,,,0,,,58,0
1087488,note_on,,,,,0,0,1,,,,0,,,57,22
1087488,note_off,,,,,0,0,1,,,,0,,,61,0
1087494,control_change,,,,,6,0,1,,,,0,64,0,,
1087711,control_change,,,,,217,0,1,,,,0,64,127,,
1088173,control_change,,,,,462,0,1,,,,0,64,127,,
1088512,control_change,,,,,339,0,1,,,,0,64,0,,
1088512,control_change,,,,,0,0,1,,,,0,64,0,,
1088512,control_change,,,,,0,0,1,,,,0,64,127,,
1088512,control_change,,,,,0,0,1,,,,0,64,0,,
1088512,note_off,,,,,0,0,1,,,,0,,,57,0
1088512,note_off,,,,,0,0,1,,,,0,,,60,0
1088512,note_off,,,,,0,0,1,,,,0,,,65,0
1088512,note_off,,,,,0,0,1,,,,0,,,41,0
1088512,note_off,,,,,0,0,1,,,,0,,,53,0
1088512,note_on,,,,,0,0,1,,,,0,,,58,11
1088512,note_on,,,,,0,0,1,,,,0,,,53,14
1088512,note_on,,,,,0,0,1,,,,0,,,46,13
1088512,note_on,,,,,0,0,1,,,,0,,,61,32
1088512,set_tempo,,,,,1024,1,0,,750000,,,,,,
1088576,control_change,,,,,64,0,1,,,,0,64,0,,
1088728,control_change,,,,,152,0,1,,,,0,64,127,,
1089536,note_on,,,,,0,0,1,,,,0,,,54,19
1089536,set_tempo,,,,,1024,1,0,,923076,,,,,,
1089536,note_on,,,,,0,0,1,,,,0,,,57,21
1089536,note_off,,,,,0,0,1,,,,0,,,53,0
1089536,note_on,,,,,0,0,1,,,,0,,,60,40
1089536,note_off,,,,,0,0,1,,,,0,,,61,0
1089536,note_off,,,,,808,0,1,,,,0,,,58,0
1089536,note_off,,,,,0,0,1,,,,0,,,46,0
1089542,control_change,,,,,6,0,1,,,,0,64,0,,
1089644,control_change,,,,,102,0,1,,,,0,64,127,,
1089877,set_tempo,,,,,341,1,0,,750000,,,,,,
1089877,note_off,,,,,233,0,1,,,,0,,,57,0
1089877,note_off,,,,,0,0,1,,,,0,,,60,0
1089877,note_off,,,,,0,0,1,,,,0,,,54,0
1089877,note_on,,,,,0,0,1,,,,0,,,58,21
1089877,note_on,,,,,0,0,1,,,,0,,,61,41
1089877,note_on,,,,,0,0,1,,,,0,,,53,20
1089937,control_change,,,,,60,0,1,,,,0,64,0,,
1090038,control_change,,,,,101,0,1,,,,0,64,127,,
1090219,note_off,,,,,0,0,1,,,,0,,,61,0
1090219,note_off,,,,,0,0,1,,,,0,,,53,0
1090219,note_on,,,,,0,0,1,,,,0,,,60,22
1090219,note_on,,,,,0,0,1,,,,0,,,63,43
1090219,note_on,,,,,0,0,1,,,,0,,,45,21
1090219,note_off,,,,,181,0,1,,,,0,,,58,0
1090280,control_change,,,,,61,0,1,,,,0,64,0,,
1090369,control_change,,,,,89,0,1,,,,0,64,127,,
1090560,note_on,,,,,0,0,1,,,,0,,,46,22
1090560,note_on,,,,,0,0,1,,,,0,,,61,43
1090560,note_on,,,,,0,0,1,,,,0,,,58,22
1090560,note_off,,,,,0,0,1,,,,0,,,45,0
1090560,control_change,,,,,0,0,1,,,,0,64,0,,
1090560,note_off,,,,,0,0,1,,,,0,,,60,0
1090560,control_change,,,,,0,0,1,,,,0,64,127,,
1090560,control_change,,,,,0,0,1,,,,0,64,0,,
1090560,control_change,,,,,191,0,1,,,,0,64,0,,
1090560,note_off,,,,,0,0,1,,,,0,,,63,0
1090560,set_tempo,,,,,683,1,0,,923076,,,,,,
1090636,control_change,,,,,76,0,1,,,,0,64,0,,
1090687,control_change,,,,,51,0,1,,,,0,64,0,,
1090803,control_change,,,,,116,0,1,,,,0,64,127,,
1090901,set_tempo,,,,,341,1,0,,750000,,,,,,
1090901,note_off,,,,,98,0,1,,,,0,,,58,0
1090901,note_on,,,,,0,0,1,,,,0,,,48,23
1090901,note_off,,,,,0,0,1,,,,0,,,61,0
1090901,note_on,,,,,0,0,1,,,,0,,,73,47
1090901,note_off,,,,,0,0,1,,,,0,,,46,0
1090901,note_on,,,,,0,0,1,,,,0,,,70,26
1090942,control_change,,,,,41,0,1,,,,0,64,0,,
1091023,control_change,,,,,81,0,1,,,,0,64,0,,
1091139,control_change,,,,,116,0,1,,,,0,64,127,,
1091243,note_off,,,,,0,0,1,,,,0,,,73,0
1091243,note_off,,,,,0,0,1,,,,0,,,48,0
1091243,note_on,,,,,0,0,1,,,,0,,,68,24
1091243,note_on,,,,,0,0,1,,,,0,,,72,45
1091243,note_on,,,,,0,0,1,,,,0,,,49,24
1091243,note_off,,,,,104,0,1,,,,0,,,70,0
1091323,control_change,,,,,80,0,1,,,,0,64,0,,
1091370,control_change,,,,,47,0,1,,,,0,64,0,,
1091439,control_change,,,,,69,0,1,,,,0,64,127,,
1091499,note_off,,,,,60,0,1,,,,0,,,68,0
1091499,note_off,,,,,0,0,1,,,,0,,,72,0
1091499,note_on,,,,,0,0,1,,,,0,,,72,46
1091584,set_tempo,,,,,683,1,0,,1000000,,,,,,
1091584,note_on,,,,,0,0,1,,,,0,,,51,25
1091584,note_off,,,,,85,0,1,,,,0,,,72,0
1091584,note_on,,,,,0,0,1,,,,0,,,67,27
1091584,note_on,,,,,0,0,1,,,,0,,,70,48
1091584,note_off,,,,,0,0,1,,,,0,,,49,0
1091603,control_change,,,,,19,0,1,,,,0,64,0,,
1091679,control_change,,,,,76,0,1,,,,0,64,127,,
1091682,control_change,,,,,3,0,1,,,,0,64,0,,
1091821,control_change,,,,,139,0,1,,,,0,64,127,,
1091925,note_off,,,,,0,0,1,,,,0,,,70,0
1091925,note_off,,,,,0,0,1,,,,0,,,51,0
1091925,note_on,,,,,0,0,1,,,,0,,,65,22
1091925,note_on,,,,,0,0,1,,,,0,,,53,21
1091925,set_tempo,,,,,341,1,0,,857142,,,,,,
1091925,note_off,,,,,104,0,1,,,,0,,,67,0
1091925,note_on,,,,,0,0,1,,,,0,,,68,43
1091997,control_change,,,,,72,0,1,,,,0,64,0,,
1092076,control_change,,,,,79,0,1,,,,0,64,0,,
1092180,control_change,,,,,104,0,1,,,,0,64,127,,
1092267,note_off,,,,,0,0,1,,,,0,,,53,0
1092267,note_on,,,,,0,0,1,,,,0,,,67,21
1092267,note_on,,,,,0,0,1,,,,0,,,70,42
1092267,note_on,,,,,0,0,1,,,,0,,,51,16
1092267,note_off,,,,,87,0,1,,,,0,,,65,0
1092267,note_off,,,,,0,0,1,,,,0,,,68,0
1092341,control_change,,,,,74,0,1,,,,0,64,0,,
1092455,control_change,,,,,114,0,1,,,,0,64,127,,
1092608,note_off,,,,,0,0,1,,,,0,,,67,0
1092608,control_change,,,,,0,0,1,,,,0,64,0,,
1092608,note_off,,,,,0,0,1,,,,0,,,51,0
1092608,control_change,,,,,0,0,1,,,,0,64,0,,
1092608,control_change,,,,,153,0,1,,,,0,64,0,,
1092608,note_on,,,,,0,0,1,,,,0,,,68,23
1092608,note_on,,,,,0,0,1,,,,0,,,72,44
1092608,note_on,,,,,0,0,1,,,,0,,,44,12
1092608,note_off,,,,,0,0,1,,,,0,,,70,0
1092608,control_change,,,,,0,0,1,,,,0,64,127,,
1092763,control_change,,,,,155,0,1,,,,0,64,0,,
1092917,control_change,,,,,154,0,1,,,,0,64,127,,
1093291,note_off,,,,,374,0,1,,,,0,,,68,0
1093291,set_tempo,,,,,1366,1,0,,857142,,,,,,
1093291,note_off,,,,,0,0,1,,,,0,,,72,0
1093291,note_on,,,,,0,0,1,,,,0,,,63,45
1093291,note_on,,,,,0,0,1,,,,0,,,51,13
1093291,note_on,,,,,0,0,1,,,,0,,,60,21
1093486,control_change,,,,,195,0,1,,,,0,64,0,,
1093613,control_change,,,,,127,0,1,,,,0,64,0,,
1093632,note_off,,,,,19,0,1,,,,0,,,63,0
1093632,note_on,,,,,0,0,1,,,,0,,,77,55
1093632,note_on,,,,,0,0,1,,,,0,,,44,21
1093632,note_off,,,,,0,0,1,,,,0,,,44,0
1093632,note_off,,,,,0,0,1,,,,0,,,51,0
1093632,note_off,,,,,0,0,1,,,,0,,,60,0
1093632,set_tempo,,,,,341,1,0,,1200000,,,,,,
1093757,control_change,,,,,125,0,1,,,,0,64,127,,
1093803,set_tempo,,,,,171,1,0,,857142,,,,,,
1093803,note_on,,,,,46,0,1,,,,0,,,75,48
1093833,note_off,,,,,30,0,1,,,,0,,,77,0
1093904,control_change,,,,,71,0,1,,,,0,64,127,,
1093973,note_on,,,,,0,0,1,,,,0,,,51,21
1093973,note_on,,,,,69,0,1,,,,0,,,73,47
1094003,note_off,,,,,30,0,1,,,,0,,,75,0
1094144,note_on,,,,,141,0,1,,,,0,,,72,45
1094174,note_off,,,,,30,0,1,,,,0,,,73,0
1094315,note_off,,,,,0,0,1,,,,0,,,51,0
1094315,note_on,,,,,141,0,1,,,,0,,,70,44
1094315,note_on,,,,,0,0,1,,,,0,,,60,21
1094345,note_off,,,,,30,0,1,,,,0,,,72,0
1094485,note_on,,,,,140,0,1,,,,0,,,68,43
1094485,set_tempo,,,,,682,1,0,,923076,,,,,,
1094515,note_off,,,,,30,0,1,,,,0,,,70,0
1094656,note_on,,,,,0,0,1,,,,0,,,77,61
1094656,note_off,,,,,0,0,1,,,,0,,,44,0
1094656,control_change,,,,,0,0,1,,,,0,64,0,,
1094656,control_change,,,,,0,0,1,,,,0,64,0,,
1094656,control_change,,,,,0,0,1,,,,0,64,127,,
1094656,control_change,,,,,0,0,1,,,,0,64,0,,
1094656,control_change,,,,,0,0,1,,,,0,64,127,,
1094656,control_change,,,,,141,0,1,,,,0,64,0,,
1094656,note_on,,,,,0,0,1,,,,0,,,73,43
1094656,set_tempo,,,,,171,1,0,,857142,,,,,,
1094656,note_off,,,,,0,0,1,,,,0,,,60,0
1094656,note_on,,,,,0,0,1,,,,0,,,37,21
1094686,note_off,,,,,30,0,1,,,,0,,,68,0
1094811,control_change,,,,,0,0,1,,,,0,64,0,,
1094811,control_change,,,,,125,0,1,,,,0,64,0,,
1094965,control_change,,,,,0,0,1,,,,0,64,127,,
1094965,control_change,,,,,154,0,1,,,,0,64,127,,
1095339,note_off,,,,,0,0,1,,,,0,,,37,0
1095339,note_on,,,,,0,0,1,,,,0,,,53,21
1095339,note_off,,,,,374,0,1,,,,0,,,73,0
1095339,note_off,,,,,0,0,1,,,,0,,,77,0
1095339,set_tempo,,,,,683,1,0,,857142,,,,,,
1095339,note_on,,,,,0,0,1,,,,0,,,68,49
1095339,note_on,,,,,0,0,1,,,,0,,,44,13
1095534,control_change,,,,,195,0,1,,,,0,64,0,,
1095534,control_change,,,,,0,0,1,,,,0,64,0,,
1095661,control_change,,,,,127,0,1,,,,0,64,0,,
1095661,control_change,,,,,0,0,1,,,,0,64,0,,
1095680,note_off,,,,,19,0,1,,,,0,,,68,0
1095680,note_on,,,,,0,0,1,,,,0,,,37,21
1095680,note_off,,,,,0,0,1,,,,0,,,44,0
1095680,note_off,,,,,0,0,1,,,,0,,,53,0
1095680,note_on,,,,,0,0,1,,,,0,,,82,51
1095680,set_tempo,,,,,341,1,0,,1090909,,,,,,
1095805,control_change,,,,,125,0,1,,,,0,64,127,,
1095805,control_change,,,,,0,0,1,,,,0,64,127,,
1095851,set_tempo,,,,,171,1,0,,857142,,,,,,
1095851,note_on,,,,,46,0,1,,,,0,,,80,53
1095881,note_off,,,,,30,0,1,,,,0,,,82,0
1095904,control_change,,,,,23,0,1,,,,0,64,127,,
1096021,note_on,,,,,0,0,1,,,,0,,,44,21
1096021,note_on,,,,,117,0,1,,,,0,,,79,51
1096051,note_off,,,,,30,0,1,,,,0,,,80,0
1096192,note_on,,,,,141,0,1,,,,0,,,77,50
1096192,set_tempo,,,,,341,1,0,,800000,,,,,,
1096222,note_off,,,,,30,0,1,,,,0,,,79,0
1096363,note_on,,,,,0,0,1,,,,0,,,53,21
1096363,note_on,,,,,141,0,1,,,,0,,,75,48
1096363,note_off,,,,,0,0,1,,,,0,,,44,0
1096393,note_off,,,,,30,0,1,,,,0,,,77,0
1096533,note_on,,,,,140,0,1,,,,0,,,73,47
1096563,note_off,,,,,30,0,1,,,,0,,,75,0
1096704,set_tempo,,,,,512,1,0,,750000,,,,,,
1096704,note_off,,,,,0,0,1,,,,0,,,37,0
1096704,control_change,,,,,0,0,1,,,,0,64,0,,
1096704,control_change,,,,,0,0,1,,,,0,64,0,,
1096704,control_change,,,,,0,0,1,,,,0,64,0,,
1096704,control_change,,,,,0,0,1,,,,0,64,127,,
1096704,control_change,,,,,0,0,1,,,,0,64,0,,
1096704,control_change,,,,,141,0,1,,,,0,64,0,,
1096704,note_on,,,,,0,0,1,,,,0,,,44,26
1096704,note_on,,,,,0,0,1,,,,0,,,75,56
1096704,note_off,,,,,0,0,1,,,,0,,,53,0
1096704,control_change,,,,,0,0,1,,,,0,64,127,,
1096704,note_on,,,,,0,0,1,,,,0,,,72,38
1096734,note_off,,,,,30,0,1,,,,0,,,73,0
1096859,control_change,,,,,0,0,1,,,,0,64,0,,
1096859,control_change,,,,,125,0,1,,,,0,64,0,,
1097013,control_change,,,,,0,0,1,,,,0,64,127,,
1097013,control_change,,,,,154,0,1,,,,0,64,127,,
1097387,note_off,,,,,374,0,1,,,,0,,,72,0
1097387,note_on,,,,,0,0,1,,,,0,,,60,24
1097387,note_on,,,,,0,0,1,,,,0,,,68,44
1097387,note_off,,,,,0,0,1,,,,0,,,44,0
1097387,note_off,,,,,0,0,1,,,,0,,,75,0
1097387,note_on,,,,,0,0,1,,,,0,,,51,24
1097387,set_tempo,,,,,683,1,0,,857142,,,,,,
1097582,control_change,,,,,195,0,1,,,,0,64,0,,
1097582,control_change,,,,,0,0,1,,,,0,64,0,,
1097709,control_change,,,,,127,0,1,,,,0,64,0,,
1097709,control_change,,,,,0,0,1,,,,0,64,0,,
1097728,note_on,,,,,0,0,1,,,,0,,,77,53
1097728,note_off,,,,,0,0,1,,,,0,,,60,0
1097728,note_off,,,,,0,0,1,,,,0,,,51,0
1097728,note_on,,,,,0,0,1,,,,0,,,44,24
1097728,note_off,,,,,19,0,1,,,,0,,,68,0
1097728,set_tempo,,,,,341,1,0,,1090909,,,,,,
1097853,control_change,,,,,125,0,1,,,,0,64,127,,
1097853,control_change,,,,,0,0,1,,,,0,64,127,,
1097899,note_on,,,,,46,0,1,,,,0,,,75,55
1097899,set_tempo,,,,,171,1,0,,1000000,,,,,,
1097929,note_off,,,,,30,0,1,,,,0,,,77,0
1097952,control_change,,,,,23,0,1,,,,0,64,127,,
1098069,set_tempo,,,,,170,1,0,,800000,,,,,,
1098069,note_on,,,,,117,0,1,,,,0,,,73,53
1098069,note_on,,,,,0,0,1,,,,0,,,51,23
1098099,note_off,,,,,30,0,1,,,,0,,,75,0
1098240,note_on,,,,,141,0,1,,,,0,,,72,51
1098270,note_off,,,,,30,0,1,,,,0,,,73,0
1098411,note_on,,,,,0,0,1,,,,0,,,60,22
1098411,note_off,,,,,0,0,1,,,,0,,,51,0
1098411,note_on,,,,,141,0,1,,,,0,,,70,50
1098441,note_off,,,,,30,0,1,,,,0,,,72,0
1098581,note_on,,,,,140,0,1,,,,0,,,68,49
1098611,note_off,,,,,30,0,1,,,,0,,,70,0
1098752,control_change,,,,,141,0,1,,,,0,64,0,,
1098752,note_on,,,,,0,0,1,,,,0,,,39,21
1098752,note_on,,,,,0,0,1,,,,0,,,67,52
1098752,control_change,,,,,0,0,1,,,,0,64,0,,
1098752,note_off,,,,,0,0,1,,,,0,,,44,0
1098752,set_tempo,,,,,683,1,0,,1090909,,,,,,
1098752,note_off,,,,,0,0,1,,,,0,,,60,0
1098782,note_off,,,,,30,0,1,,,,0,,,68,0
1098872,control_change,,,,,90,0,1,,,,0,64,127,,
1098923,note_on,,,,,51,0,1,,,,0,,,77,56
1098923,set_tempo,,,,,171,1,0,,857142,,,,,,
1098953,note_off,,,,,30,0,1,,,,0,,,67,0
1099093,note_on,,,,,140,0,1,,,,0,,,75,54
1099093,note_on,,,,,0,0,1,,,,0,,,46,21
1099123,note_off,,,,,30,0,1,,,,0,,,77,0
1099264,note_on,,,,,141,0,1,,,,0,,,73,53
1099264,set_tempo,,,,,341,1,0,,750000,,,,,,
1099294,note_off,,,,,30,0,1,,,,0,,,75,0
1099389,control_change,,,,,95,0,1,,,,0,64,0,,
1099435,note_on,,,,,46,0,1,,,,0,,,72,51
1099435,note_off,,,,,0,0,1,,,,0,,,46,0
1099435,note_off,,,,,0,0,1,,,,0,,,39,0
1099435,note_on,,,,,0,0,1,,,,0,,,55,20
1099465,note_off,,,,,30,0,1,,,,0,,,73,0
1099561,control_change,,,,,96,0,1,,,,0,64,127,,
1099605,note_on,,,,,44,0,1,,,,0,,,70,51
1099635,note_off,,,,,30,0,1,,,,0,,,72,0
1099776,note_off,,,,,0,0,1,,,,0,,,55,0
1099776,note_on,,,,,0,0,1,,,,0,,,39,19
1099776,note_on,,,,,141,0,1,,,,0,,,68,49
1099806,note_off,,,,,30,0,1,,,,0,,,70,0
1099905,control_change,,,,,99,0,1,,,,0,64,0,,
1099947,note_on,,,,,42,0,1,,,,0,,,67,48
1099977,note_off,,,,,30,0,1,,,,0,,,68,0
1100117,note_on,,,,,140,0,1,,,,0,,,65,47
1100117,note_on,,,,,0,0,1,,,,0,,,46,18
1100147,note_off,,,,,30,0,1,,,,0,,,67,0
1100288,note_on,,,,,141,0,1,,,,0,,,63,46
1100318,note_off,,,,,30,0,1,,,,0,,,65,0
1100459,note_on,,,,,141,0,1,,,,0,,,61,44
1100459,note_off,,,,,0,0,1,,,,0,,,39,0
1100459,note_off,,,,,0,0,1,,,,0,,,46,0
1100459,note_on,,,,,0,0,1,,,,0,,,55,17
1100489,note_off,,,,,30,0,1,,,,0,,,63,0
1100629,note_on,,,,,140,0,1,,,,0,,,60,43
1100659,note_off,,,,,30,0,1,,,,0,,,61,0
1100800,control_change,,,,,141,0,1,,,,0,64,0,,
1100800,control_change,,,,,0,0,1,,,,0,64,0,,
1100800,note_off,,,,,0,0,1,,,,0,,,55,0
1100800,note_on,,,,,0,0,1,,,,0,,,58,41
1100800,note_on,,,,,0,0,1,,,,0,,,39,17
1100800,set_tempo,,,,,1536,1,0,,1090909,,,,,,
1100830,note_off,,,,,30,0,1,,,,0,,,60,0
1100971,set_tempo,,,,,171,1,0,,800000,,,,,,
1100971,note_off,,,,,141,0,1,,,,0,,,58,0
1100971,note_on,,,,,0,0,1,,,,0,,,60,36
1101141,note_on,,,,,0,0,1,,,,0,,,46,16
1101141,note_off,,,,,0,0,1,,,,0,,,39,0
1101141,note_off,,,,,170,0,1,,,,0,,,60,0
1101141,note_on,,,,,0,0,1,,,,0,,,61,35
1101312,note_on,,,,,0,0,1,,,,0,,,60,34
1101312,note_off,,,,,171,0,1,,,,0,,,61,0
1101483,note_off,,,,,0,0,1,,,,0,,,46,0
1101483,note_on,,,,,0,0,1,,,,0,,,58,33
1101483,note_off,,,,,171,0,1,,,,0,,,60,0
1101483,note_on,,,,,0,0,1,,,,0,,,55,15
1101653,note_off,,,,,170,0,1,,,,0,,,58,0
1101653,note_on,,,,,0,0,1,,,,0,,,56,32
1101804,note_off,,,,,151,0,1,,,,0,,,55,0
1101824,note_on,,,,,0,0,1,,,,0,,,55,31
1101824,note_off,,,,,20,0,1,,,,0,,,56,0
1101995,note_off,,,,,171,0,1,,,,0,,,55,0
1101995,note_on,,,,,0,0,1,,,,0,,,53,30
1102165,note_on,,,,,0,0,1,,,,0,,,51,30
1102165,note_off,,,,,170,0,1,,,,0,,,53,0
1102336,note_off,,,,,171,0,1,,,,0,,,51,0
1102336,note_on,,,,,0,0,1,,,,0,,,49,29
1102507,note_off,,,,,171,0,1,,,,0,,,49,0
1102507,note_on,,,,,0,0,1,,,,0,,,48,28
1102677,note_off,,,,,170,0,1,,,,0,,,48,0
1102677,note_on,,,,,0,0,1,,,,0,,,46,27
1102848,note_on,,,,,0,0,1,,,,0,,,48,19
1102848,control_change,,,,,171,0,1,,,,0,64,0,,
1102848,control_change,,,,,0,0,1,,,,0,64,0,,
1102848,note_off,,,,,0,0,1,,,,0,,,46,0
1102848,set_tempo,,,,,1877,1,0,,857142,,,,,,
1102848,note_on,,,,,0,0,1,,,,0,,,51,19
1102848,note_on,,,,,0,0,1,,,,0,,,56,32
1102848,note_on,,,,,0,0,1,,,,0,,,32,19
1102848,note_on,,,,,0,0,1,,,,0,,,44,13
1103267,control_change,,,,,419,0,1,,,,0,64,127,,
1103872,set_tempo,,,,,1024,1,0,,923076,,,,,,
1103872,note_on,,,,,0,0,1,,,,0,,,44,9
1103872,note_on,,,,,0,0,1,,,,0,,,37,15
1103872,control_change,,,,,605,0,1,,,,0,64,0,,
1103872,note_on,,,,,0,0,1,,,,0,,,53,15
1103872,note_off,,,,,0,0,1,,,,0,,,32,0
1103872,note_off,,,,,0,0,1,,,,0,,,56,0
1103872,note_off,,,,,0,0,1,,,,0,,,51,0
1103872,note_off,,,,,0,0,1,,,,0,,,48,0
1103872,note_off,,,,,0,0,1,,,,0,,,44,0
1103872,note_on,,,,,0,0,1,,,,0,,,56,28
1103872,note_on,,,,,0,0,1,,,,0,,,49,15
1104291,control_change,,,,,419,0,1,,,,0,64,127,,
1104896,note_on,,,,,0,0,1,,,,0,,,48,14
1104896,note_on,,,,,0,0,1,,,,0,,,56,27
1104896,note_off,,,,,0,0,1,,,,0,,,37,0
1104896,note_off,,,,,0,0,1,,,,0,,,56,0
1104896,note_on,,,,,0,0,1,,,,0,,,32,14
1104896,note_on,,,,,0,0,1,,,,0,,,44,8
1104896,note_on,,,,,0,0,1,,,,0,,,51,14
1104896,set_tempo,,,,,1024,1,0,,857142,,,,,,
1104896,note_off,,,,,0,0,1,,,,0,,,44,0
1104896,control_change,,,,,605,0,1,,,,0,64,0,,
1104896,control_change,,,,,0,0,1,,,,0,64,0,,
1104896,note_off,,,,,0,0,1,,,,0,,,49,0
1104896,note_off,,,,,0,0,1,,,,0,,,53,0
1105011,control_change,,,,,115,0,1,,,,0,64,127,,
1105792,note_on,,,,,0,0,1,,,,0,,,56,19
1105792,note_off,,,,,781,0,1,,,,0,,,56,0
1105920,note_off,,,,,128,0,1,,,,0,,,48,0
1105920,note_off,,,,,0,0,1,,,,0,,,44,0
1105920,note_on,,,,,0,0,1,,,,0,,,46,19
1105920,note_on,,,,,0,0,1,,,,0,,,51,19
1105920,note_on,,,,,0,0,1,,,,0,,,55,32
1105920,note_off,,,,,0,0,1,,,,0,,,51,0
1105920,note_off,,,,,0,0,1,,,,0,,,56,0
1105920,note_on,,,,,0,0,1,,,,0,,,39,19
1105920,set_tempo,,,,,1024,1,0,,923076,,,,,,
1105920,note_off,,,,,0,0,1,,,,0,,,32,0
1105963,control_change,,,,,43,0,1,,,,0,64,0,,
1106104,control_change,,,,,141,0,1,,,,0,64,127,,
1106261,note_on,,,,,157,0,1,,,,0,,,53,26
1106261,set_tempo,,,,,341,1,0,,857142,,,,,,
1106301,note_off,,,,,40,0,1,,,,0,,,46,0
1106301,note_off,,,,,0,0,1,,,,0,,,51,0
1106301,note_off,,,,,0,0,1,,,,0,,,55,0
1106603,note_on,,,,,302,0,1,,,,0,,,46,13
1106603,note_on,,,,,0,0,1,,,,0,,,51,13
1106603,note_on,,,,,0,0,1,,,,0,,,55,26
1106603,note_on,,,,,0,0,1,,,,0,,,39,13
1106603,note_off,,,,,0,0,1,,,,0,,,39,0
1106635,control_change,,,,,32,0,1,,,,0,64,0,,
1106643,note_off,,,,,8,0,1,,,,0,,,53,0
1106944,control_change,,,,,301,0,1,,,,0,64,0,,
1106944,control_change,,,,,0,0,1,,,,0,64,0,,
1106944,note_off,,,,,0,0,1,,,,0,,,39,0
1106944,note_on,,,,,0,0,1,,,,0,,,56,29
1106944,note_on,,,,,0,0,1,,,,0,,,32,25
1106944,set_tempo,,,,,683,1,0,,923076,,,,,,
1106984,note_off,,,,,0,0,1,,,,0,,,55,0
1106984,note_off,,,,,40,0,1,,,,0,,,46,0
1106984,note_off,,,,,0,0,1,,,,0,,,51,0
1107087,control_change,,,,,103,0,1,,,,0,64,127,,
1107285,note_off,,,,,198,0,1,,,,0,,,56,0
1107285,note_on,,,,,0,0,1,,,,0,,,51,22
1107285,note_on,,,,,0,0,1,,,,0,,,39,22
1107285,note_off,,,,,0,0,1,,,,0,,,32,0
1107285,set_tempo,,,,,341,1,0,,857142,,,,,,
1107627,note_off,,,,,342,0,1,,,,0,,,51,0
1107627,note_on,,,,,0,0,1,,,,0,,,44,21
1107627,note_on,,,,,0,0,1,,,,0,,,48,21
1107627,note_off,,,,,0,0,1,,,,0,,,39,0
1107968,note_on,,,,,0,0,1,,,,0,,,56,26
1107968,note_on,,,,,0,0,1,,,,0,,,37,22
1107968,note_off,,,,,0,0,1,,,,0,,,48,0
1107968,control_change,,,,,341,0,1,,,,0,64,0,,
1107968,set_tempo,,,,,683,1,0,,923076,,,,,,
1108159,control_change,,,,,191,0,1,,,,0,64,127,,
1108309,note_off,,,,,0,0,1,,,,0,,,37,0
1108309,note_on,,,,,0,0,1,,,,0,,,40,19
1108309,note_on,,,,,0,0,1,,,,0,,,52,19
1108309,note_off,,,,,150,0,1,,,,0,,,56,0
1108309,note_off,,,,,0,0,1,,,,0,,,44,0
1108651,note_off,,,,,0,0,1,,,,0,,,40,0
1108651,note_on,,,,,0,0,1,,,,0,,,44,18
1108651,note_on,,,,,0,0,1,,,,0,,,49,18
1108651,note_off,,,,,342,0,1,,,,0,,,52,0
1108992,control_change,,,,,0,0,1,,,,0,64,0,,
1108992,control_change,,,,,0,0,1,,,,0,64,0,,
1108992,note_off,,,,,0,0,1,,,,0,,,49,0
1108992,control_change,,,,,341,0,1,,,,0,64,0,,
1108992,note_on,,,,,0,0,1,,,,0,,,39,20
1108992,set_tempo,,,,,1024,1,0,,1000000,,,,,,
1108992,note_on,,,,,0,0,1,,,,0,,,56,24
1109135,control_change,,,,,143,0,1,,,,0,64,127,,
1109333,note_off,,,,,198,0,1,,,,0,,,56,0
1109333,note_on,,,,,0,0,1,,,,0,,,51,17
1109333,note_on,,,,,0,0,1,,,,0,,,44,17
1109333,note_off,,,,,0,0,1,,,,0,,,39,0
1109333,note_off,,,,,0,0,1,,,,0,,,44,0
1109675,note_on,,,,,342,0,1,,,,0,,,48,16
1109675,note_off,,,,,0,0,1,,,,0,,,44,0
1109675,note_on,,,,,0,0,1,,,,0,,,39,16
1110016,set_tempo,,,,,1024,1,0,,1200000,,,,,,
1110016,note_off,,,,,0,0,1,,,,0,,,39,0
1110016,note_on,,,,,0,0,1,,,,0,,,55,21
1110016,note_off,,,,,0,0,1,,,,0,,,48,0
1110016,control_change,,,,,341,0,1,,,,0,64,0,,
1110016,note_on,,,,,0,0,1,,,,0,,,39,15
1110207,control_change,,,,,191,0,1,,,,0,64,127,,
1110357,note_off,,,,,150,0,1,,,,0,,,51,0
1110357,note_off,,,,,0,0,1,,,,0,,,55,0
1110357,note_on,,,,,0,0,1,,,,0,,,51,14
1110357,note_on,,,,,0,0,1,,,,0,,,43,10
1110357,note_off,,,,,0,0,1,,,,0,,,39,0
1110357,set_tempo,,,,,341,1,0,,1333333,,,,,,
1110699,note_on,,,,,0,0,1,,,,0,,,39,9
1110699,note_on,,,,,0,0,1,,,,0,,,46,13
1110699,note_off,,,,,342,0,1,,,,0,,,51,0
1110699,note_off,,,,,0,0,1,,,,0,,,43,0
1111040,control_change,,,,,341,0,1,,,,0,64,0,,
1111040,control_change,,,,,0,0,1,,,,0,64,0,,
1111040,note_off,,,,,0,0,1,,,,0,,,46,0
1111040,note_off,,,,,0,0,1,,,,0,,,39,0
1113088,set_tempo,,,,,2731,1,0,,857142,,,,,,
1113088,control_change,,,,,2048,0,1,,,,0,64,0,,
1113088,note_on,,,,,0,0,1,,,,0,,,56,24
1113088,note_on,,,,,0,0,1,,,,0,,,71,42
1113088,note_on,,,,,0,0,1,,,,0,,,68,21
1113088,control_change,,,,,0,0,1,,,,0,64,0,,
1113249,control_change,,,,,161,0,1,,,,0,64,127,,
1113429,note_off,,,,,180,0,1,,,,0,,,56,0
1113429,set_tempo,,,,,341,1,0,,750000,,,,,,
1113429,note_on,,,,,0,0,1,,,,0,,,59,18
1113771,note_off,,,,,342,0,1,,,,0,,,59,0
1113771,note_on,,,,,0,0,1,,,,0,,,63,18
1114112,note_on,,,,,341,0,1,,,,0,,,73,27
1114112,note_on,,,,,0,0,1,,,,0,,,49,24
1114112,note_off,,,,,0,0,1,,,,0,,,63,0
1114112,note_on,,,,,0,0,1,,,,0,,,76,53
1114112,set_tempo,,,,,683,1,0,,857142,,,,,,
1114132,control_change,,,,,20,0,1,,,,0,64,0,,
1114152,note_off,,,,,0,0,1,,,,0,,,71,0
1114152,note_off,,,,,20,0,1,,,,0,,,68,0
1114293,control_change,,,,,141,0,1,,,,0,64,127,,
1114453,note_on,,,,,0,0,1,,,,0,,,56,18
1114453,note_off,,,,,160,0,1,,,,0,,,49,0
1114453,set_tempo,,,,,341,1,0,,750000,,,,,,
1114795,note_on,,,,,0,0,1,,,,0,,,61,18
1114795,note_off,,,,,0,0,1,,,,0,,,56,0
1114795,note_on,,,,,342,0,1,,,,0,,,71,22
1114795,note_on,,,,,0,0,1,,,,0,,,75,43
1114835,note_off,,,,,0,0,1,,,,0,,,76,0
1114835,note_off,,,,,40,0,1,,,,0,,,73,0
1115022,note_on,,,,,0,0,1,,,,0,,,71,23
1115022,note_off,,,,,0,0,1,,,,0,,,75,0
1115022,set_tempo,,,,,569,1,0,,857142,,,,,,
1115022,note_on,,,,,0,0,1,,,,0,,,75,44
1115022,note_off,,,,,187,0,1,,,,0,,,71,0
1115136,control_change,,,,,114,0,1,,,,0,64,0,,
1115136,control_change,,,,,0,0,1,,,,0,64,127,,
1115136,note_off,,,,,0,0,1,,,,0,,,71,0
1115136,note_off,,,,,0,0,1,,,,0,,,75,0
1115136,note_off,,,,,0,0,1,,,,0,,,61,0
1115136,note_on,,,,,0,0,1,,,,0,,,73,49
1115136,note_on,,,,,0,0,1,,,,0,,,54,24
1115136,note_on,,,,,0,0,1,,,,0,,,70,28
1115277,control_change,,,,,141,0,1,,,,0,64,0,,
1115357,control_change,,,,,80,0,1,,,,0,64,127,,
1115477,set_tempo,,,,,455,1,0,,750000,,,,,,
1115477,note_off,,,,,0,0,1,,,,0,,,54,0
1115477,note_on,,,,,0,0,1,,,,0,,,61,18
1115477,note_on,,,,,0,0,1,,,,0,,,71,44
1115477,note_on,,,,,120,0,1,,,,0,,,68,23
1115517,note_off,,,,,0,0,1,,,,0,,,73,0
1115517,note_off,,,,,0,0,1,,,,0,,,70,0
1115517,control_change,,,,,40,0,1,,,,0,64,0,,
1115638,control_change,,,,,121,0,1,,,,0,64,127,,
1115819,note_on,,,,,181,0,1,,,,0,,,70,25
1115819,note_on,,,,,0,0,1,,,,0,,,64,18
1115819,note_on,,,,,0,0,1,,,,0,,,73,46
1115819,note_off,,,,,0,0,1,,,,0,,,61,0
1115839,control_change,,,,,20,0,1,,,,0,64,0,,
1115859,note_off,,,,,0,0,1,,,,0,,,71,0
1115859,note_off,,,,,20,0,1,,,,0,,,68,0
1115979,control_change,,,,,120,0,1,,,,0,64,127,,
1116160,note_off,,,,,0,0,1,,,,0,,,64,0
1116160,note_on,,,,,0,0,1,,,,0,,,47,24
1116160,note_on,,,,,0,0,1,,,,0,,,75,46
1116160,note_on,,,,,181,0,1,,,,0,,,71,25
1116180,control_change,,,,,20,0,1,,,,0,64,0,,
1116200,note_off,,,,,0,0,1,,,,0,,,73,0
1116200,note_off,,,,,20,0,1,,,,0,,,70,0
1116381,control_change,,,,,181,0,1,,,,0,64,127,,
1116501,note_off,,,,,120,0,1,,,,0,,,47,0
1116501,note_on,,,,,0,0,1,,,,0,,,54,18
1116843,note_on,,,,,0,0,1,,,,0,,,63,18
1116843,note_on,,,,,0,0,1,,,,0,,,71,41
1116843,note_off,,,,,0,0,1,,,,0,,,54,0
1116843,note_off,,,,,0,0,1,,,,0,,,75,0
1116843,note_off,,,,,342,0,1,,,,0,,,71,0
1116843,set_tempo,,,,,1366,1,0,,857142,,,,,,
1117070,note_on,,,,,0,0,1,,,,0,,,71,44
1117070,note_off,,,,,227,0,1,,,,0,,,71,0
1117184,control_change,,,,,0,0,1,,,,0,64,127,,
1117184,control_change,,,,,114,0,1,,,,0,64,0,,
1117184,note_on,,,,,0,0,1,,,,0,,,70,49
1117184,set_tempo,,,,,341,1,0,,923076,,,,,,
1117184,note_off,,,,,0,0,1,,,,0,,,63,0
1117184,note_on,,,,,0,0,1,,,,0,,,64,25
1117184,note_on,,,,,0,0,1,,,,0,,,49,24
1117184,control_change,,,,,0,0,1,,,,0,64,0,,
1117184,note_off,,,,,0,0,1,,,,0,,,71,0
1117325,control_change,,,,,141,0,1,,,,0,64,0,,
1117405,control_change,,,,,80,0,1,,,,0,64,127,,
1117525,set_tempo,,,,,341,1,0,,750000,,,,,,
1117525,note_on,,,,,120,0,1,,,,0,,,69,43
1117525,note_on,,,,,0,0,1,,,,0,,,52,18
1117565,note_off,,,,,0,0,1,,,,0,,,70,0
1117565,control_change,,,,,40,0,1,,,,0,64,0,,
1117686,control_change,,,,,121,0,1,,,,0,64,127,,
1117867,note_on,,,,,0,0,1,,,,0,,,58,18
1117867,note_off,,,,,0,0,1,,,,0,,,49,0
1117867,note_on,,,,,181,0,1,,,,0,,,70,44
1117887,control_change,,,,,20,0,1,,,,0,64,0,,
1117907,note_off,,,,,20,0,1,,,,0,,,69,0
1118027,control_change,,,,,120,0,1,,,,0,64,127,,
1118208,note_off,,,,,0,0,1,,,,0,,,58,0
1118208,note_on,,,,,0,0,1,,,,0,,,46,24
1118208,note_on,,,,,181,0,1,,,,0,,,73,49
1118228,control_change,,,,,20,0,1,,,,0,64,0,,
1118248,note_off,,,,,20,0,1,,,,0,,,70,0
1118429,control_change,,,,,181,0,1,,,,0,64,127,,
1118549,note_on,,,,,120,0,1,,,,0,,,58,18
1118891,note_on,,,,,342,0,1,,,,0,,,70,42
1118891,note_off,,,,,0,0,1,,,,0,,,46,0
1118891,note_off,,,,,0,0,1,,,,0,,,52,0
1118891,note_off,,,,,0,0,1,,,,0,,,58,0
1118891,set_tempo,,,,,1366,1,0,,857142,,,,,,
1118891,note_on,,,,,0,0,1,,,,0,,,61,18
1118931,note_off,,,,,40,0,1,,,,0,,,73,0
1119232,note_on,,,,,0,0,1,,,,0,,,51,24
1119232,note_on,,,,,0,0,1,,,,0,,,68,46
1119232,note_on,,,,,0,0,1,,,,0,,,63,25
1119232,note_off,,,,,0,0,1,,,,0,,,61,0
1119232,control_change,,,,,0,0,1,,,,0,64,0,,
1119232,control_change,,,,,0,0,1,,,,0,64,127,,
1119232,control_change,,,,,301,0,1,,,,0,64,0,,
1119232,note_off,,,,,0,0,1,,,,0,,,64,0
1119272,note_off,,,,,40,0,1,,,,0,,,70,0
1119373,control_change,,,,,101,0,1,,,,0,64,0,,
1119453,control_change,,,,,80,0,1,,,,0,64,127,,
1119460,control_change,,,,,7,0,1,,,,0,64,127,,
1119573,set_tempo,,,,,682,1,0,,750000,,,,,,
1119573,note_off,,,,,113,0,1,,,,0,,,51,0
1119573,note_on,,,,,0,0,1,,,,0,,,56,18
1119915,note_off,,,,,342,0,1,,,,0,,,56,0
1119915,note_on,,,,,0,0,1,,,,0,,,59,18
1120256,set_tempo,,,,,683,1,0,,923076,,,,,,
1120256,note_on,,,,,341,0,1,,,,0,,,67,33
1120256,note_off,,,,,0,0,1,,,,0,,,59,0
1120256,note_on,,,,,0,0,1,,,,0,,,51,18
1120276,control_change,,,,,20,0,1,,,,0,64,0,,
1120296,note_off,,,,,20,0,1,,,,0,,,68,0
1120477,control_change,,,,,181,0,1,,,,0,64,127,,
1120597,set_tempo,,,,,341,1,0,,750000,,,,,,
1120597,note_on,,,,,120,0,1,,,,0,,,75,46
1120597,note_off,,,,,0,0,1,,,,0,,,51,0
1120597,note_on,,,,,0,0,1,,,,0,,,55,18
1120637,note_off,,,,,40,0,1,,,,0,,,67,0
1120939,note_on,,,,,302,0,1,,,,0,,,73,43
1120939,note_off,,,,,0,0,1,,,,0,,,55,0
1120939,note_on,,,,,0,0,1,,,,0,,,58,18
1120979,note_off,,,,,40,0,1,,,,0,,,75,0
1121280,note_on,,,,,0,0,1,,,,0,,,56,24
1121280,note_on,,,,,0,0,1,,,,0,,,71,42
1121280,note_off,,,,,0,0,1,,,,0,,,58,0
1121280,note_off,,,,,0,0,1,,,,0,,,63,0
1121280,control_change,,,,,0,0,1,,,,0,64,0,,
1121280,set_tempo,,,,,683,1,0,,857142,,,,,,
1121280,note_on,,,,,0,0,1,,,,0,,,68,21
1121280,control_change,,,,,301,0,1,,,,0,64,0,,
1121320,note_off,,,,,40,0,1,,,,0,,,73,0
1121441,control_change,,,,,121,0,1,,,,0,64,127,,
1121621,set_tempo,,,,,341,1,0,,750000,,,,,,
1121621,note_off,,,,,180,0,1,,,,0,,,56,0
1121621,note_on,,,,,0,0,1,,,,0,,,59,18
1121963,note_off,,,,,342,0,1,,,,0,,,59,0
1121963,note_on,,,,,0,0,1,,,,0,,,63,18
1122304,note_off,,,,,0,0,1,,,,0,,,63,0
1122304,note_on,,,,,0,0,1,,,,0,,,49,24
1122304,note_on,,,,,0,0,1,,,,0,,,76,53
1122304,note_on,,,,,341,0,1,,,,0,,,73,27
1122304,set_tempo,,,,,683,1,0,,857142,,,,,,
1122324,control_change,,,,,20,0,1,,,,0,64,0,,
1122344,note_off,,,,,20,0,1,,,,0,,,68,0
1122344,note_off,,,,,0,0,1,,,,0,,,71,0
1122485,control_change,,,,,141,0,1,,,,0,64,127,,
1122645,set_tempo,,,,,341,1,0,,750000,,,,,,
1122645,note_off,,,,,160,0,1,,,,0,,,49,0
1122645,note_on,,,,,0,0,1,,,,0,,,56,18
1122987,note_on,,,,,0,0,1,,,,0,,,61,18
1122987,note_off,,,,,0,0,1,,,,0,,,56,0
1122987,note_on,,,,,0,0,1,,,,0,,,75,43
1122987,note_on,,,,,342,0,1,,,,0,,,71,22
1123027,note_off,,,,,40,0,1,,,,0,,,73,0
1123027,note_off,,,,,0,0,1,,,,0,,,76,0
1123214,note_on,,,,,0,0,1,,,,0,,,75,44
1123214,note_on,,,,,0,0,1,,,,0,,,71,23
1123214,set_tempo,,,,,569,1,0,,857142,,,,,,
1123214,note_off,,,,,187,0,1,,,,0,,,71,0
1123214,note_off,,,,,0,0,1,,,,0,,,75,0
1123328,control_change,,,,,114,0,1,,,,0,64,0,,
1123328,control_change,,,,,0,0,1,,,,0,64,127,,
1123328,note_off,,,,,0,0,1,,,,0,,,75,0
1123328,note_off,,,,,0,0,1,,,,0,,,61,0
1123328,note_on,,,,,0,0,1,,,,0,,,70,28
1123328,note_on,,,,,0,0,1,,,,0,,,73,49
1123328,note_on,,,,,0,0,1,,,,0,,,54,24
1123328,note_off,,,,,0,0,1,,,,0,,,71,0
1123469,control_change,,,,,141,0,1,,,,0,64,0,,
1123549,control_change,,,,,80,0,1,,,,0,64,127,,
1123669,note_off,,,,,0,0,1,,,,0,,,54,0
1123669,set_tempo,,,,,455,1,0,,750000,,,,,,
1123669,note_on,,,,,120,0,1,,,,0,,,68,23
1123669,note_on,,,,,0,0,1,,,,0,,,61,18
1123669,note_on,,,,,0,0,1,,,,0,,,71,44
1123709,note_off,,,,,0,0,1,,,,0,,,73,0
1123709,control_change,,,,,40,0,1,,,,0,64,0,,
1123709,note_off,,,,,0,0,1,,,,0,,,70,0
1123830,control_change,,,,,121,0,1,,,,0,64,127,,
1124011,note_on,,,,,181,0,1,,,,0,,,70,25
1124011,note_on,,,,,0,0,1,,,,0,,,73,46
1124011,note_on,,,,,0,0,1,,,,0,,,64,18
1124011,note_off,,,,,0,0,1,,,,0,,,61,0
1124031,control_change,,,,,20,0,1,,,,0,64,0,,
1124051,note_off,,,,,20,0,1,,,,0,,,68,0
1124051,note_off,,,,,0,0,1,,,,0,,,71,0
1124171,control_change,,,,,120,0,1,,,,0,64,127,,
1124352,note_on,,,,,181,0,1,,,,0,,,71,25
1124352,note_on,,,,,0,0,1,,,,0,,,75,46
1124352,note_off,,,,,0,0,1,,,,0,,,64,0
1124352,note_on,,,,,0,0,1,,,,0,,,47,24
1124372,control_change,,,,,20,0,1,,,,0,64,0,,
1124392,note_off,,,,,0,0,1,,,,0,,,73,0
1124392,note_off,,,,,20,0,1,,,,0,,,70,0
1124573,control_change,,,,,181,0,1,,,,0,64,127,,
1124693,note_off,,,,,120,0,1,,,,0,,,47,0
1124693,note_on,,,,,0,0,1,,,,0,,,54,18
1125035,note_off,,,,,342,0,1,,,,0,,,71,0
1125035,note_off,,,,,0,0,1,,,,0,,,75,0
1125035,note_off,,,,,0,0,1,,,,0,,,54,0
1125035,note_on,,,,,0,0,1,,,,0,,,71,45
1125035,note_on,,,,,0,0,1,,,,0,,,63,18
1125035,set_tempo,,,,,1366,1,0,,857142,,,,,,
1125262,note_on,,,,,0,0,1,,,,0,,,73,48
1125262,note_off,,,,,227,0,1,,,,0,,,71,0
1125376,note_on,,,,,0,0,1,,,,0,,,56,24
1125376,control_change,,,,,0,0,1,,,,0,64,127,,
1125376,control_change,,,,,0,0,1,,,,0,64,0,,
1125376,control_change,,,,,114,0,1,,,,0,64,0,,
1125376,note_off,,,,,0,0,1,,,,0,,,73,0
1125376,control_change,,,,,0,0,1,,,,0,64,0,,
1125376,note_off,,,,,0,0,1,,,,0,,,63,0
1125376,set_tempo,,,,,341,1,0,,923076,,,,,,
1125376,note_on,,,,,0,0,1,,,,0,,,71,50
1125376,control_change,,,,,0,0,1,,,,0,64,0,,
1125517,control_change,,,,,141,0,1,,,,0,64,0,,
1125597,control_change,,,,,80,0,1,,,,0,64,127,,
1125717,note_off,,,,,120,0,1,,,,0,,,71,0
1125717,note_on,,,,,0,0,1,,,,0,,,59,18
1125717,note_off,,,,,0,0,1,,,,0,,,56,0
1125717,note_on,,,,,0,0,1,,,,0,,,70,47
1125717,set_tempo,,,,,341,1,0,,750000,,,,,,
1125757,control_change,,,,,40,0,1,,,,0,64,0,,
1125878,control_change,,,,,121,0,1,,,,0,64,127,,
1126059,note_off,,,,,181,0,1,,,,0,,,70,0
1126059,set_tempo,,,,,342,1,0,,923076,,,,,,
1126059,note_on,,,,,0,0,1,,,,0,,,71,52
1126059,note_on,,,,,0,0,1,,,,0,,,64,18
1126079,control_change,,,,,20,0,1,,,,0,64,0,,
1126219,control_change,,,,,140,0,1,,,,0,64,127,,
1126400,note_on,,,,,0,0,1,,,,0,,,52,24
1126400,note_on,,,,,0,0,1,,,,0,,,80,57
1126400,set_tempo,,,,,341,1,0,,857142,,,,,,
1126400,note_on,,,,,0,0,1,,,,0,,,71,36
1126400,note_off,,,,,181,0,1,,,,0,,,71,0
1126420,control_change,,,,,20,0,1,,,,0,64,0,,
1126621,control_change,,,,,201,0,1,,,,0,64,127,,
1126741,note_off,,,,,120,0,1,,,,0,,,59,0
1126741,note_off,,,,,0,0,1,,,,0,,,64,0
1126741,set_tempo,,,,,341,1,0,,750000,,,,,,
1126741,note_on,,,,,0,0,1,,,,0,,,59,18
1127083,note_on,,,,,0,0,1,,,,0,,,68,18
1127083,note_on,,,,,0,0,1,,,,0,,,76,46
1127083,note_off,,,,,342,0,1,,,,0,,,80,0
1127083,note_off,,,,,0,0,1,,,,0,,,52,0
1127083,set_tempo,,,,,342,1,0,,857142,,,,,,
1127424,note_on,,,,,0,0,1,,,,0,,,71,29
1127424,note_on,,,,,0,0,1,,,,0,,,75,50
1127424,note_on,,,,,0,0,1,,,,0,,,54,24
1127424,note_off,,,,,0,0,1,,,,0,,,68,0
1127424,note_off,,,,,0,0,1,,,,0,,,59,0
1127424,note_off,,,,,0,0,1,,,,0,,,71,0
1127424,control_change,,,,,0,0,1,,,,0,64,0,,
1127424,note_off,,,,,0,0,1,,,,0,,,76,0
1127424,control_change,,,,,0,0,1,,,,0,64,127,,
1127424,control_change,,,,,0,0,1,,,,0,64,0,,
1127424,control_change,,,,,0,0,1,,,,0,64,0,,
1127424,control_change,,,,,341,0,1,,,,0,64,0,,
1127565,control_change,,,,,141,0,1,,,,0,64,0,,
1127645,control_change,,,,,80,0,1,,,,0,64,127,,
1127652,control_change,,,,,7,0,1,,,,0,64,127,,
1127765,set_tempo,,,,,682,1,0,,750000,,,,,,
1127765,note_off,,,,,113,0,1,,,,0,,,54,0
1127765,note_on,,,,,0,0,1,,,,0,,,59,18
1128107,note_off,,,,,342,0,1,,,,0,,,59,0
1128107,note_on,,,,,0,0,1,,,,0,,,63,18
1128448,note_on,,,,,0,0,1,,,,0,,,73,33
1128448,note_on,,,,,0,0,1,,,,0,,,70,19
1128448,note_off,,,,,0,0,1,,,,0,,,63,0
1128448,note_off,,,,,0,0,1,,,,0,,,75,0
1128448,note_on,,,,,0,0,1,,,,0,,,54,18
1128448,note_off,,,,,341,0,1,,,,0,,,71,0
1128468,control_change,,,,,20,0,1,,,,0,64,0,,
1128669,control_change,,,,,201,0,1,,,,0,64,127,,
1128789,set_tempo,,,,,1024,1,0,,857142,,,,,,
1128789,note_off,,,,,120,0,1,,,,0,,,54,0
1128789,note_on,,,,,0,0,1,,,,0,,,58,20
1129131,note_off,,,,,0,0,1,,,,0,,,58,0
1129131,note_on,,,,,0,0,1,,,,0,,,61,22
1129131,note_on,,,,,0,0,1,,,,0,,,76,54
1129131,note_off,,,,,342,0,1,,,,0,,,73,0
1129131,set_tempo,,,,,342,1,0,,1090909,,,,,,
1129472,note_on,,,,,0,0,1,,,,0,,,55,21
1129472,note_on,,,,,0,0,1,,,,0,,,61,27
1129472,note_on,,,,,0,0,1,,,,0,,,76,60
1129472,note_on,,,,,0,0,1,,,,0,,,70,41
1129472,note_off,,,,,0,0,1,,,,0,,,61,0
1129472,note_off,,,,,0,0,1,,,,0,,,76,0
1129472,control_change,,,,,341,0,1,,,,0,64,0,,
1129472,control_change,,,,,0,0,1,,,,0,64,0,,
1129472,control_change,,,,,0,0,1,,,,0,64,0,,
1129472,control_change,,,,,0,0,1,,,,0,64,127,,
1129472,set_tempo,,,,,341,1,0,,750000,,,,,,
1129472,note_off,,,,,0,0,1,,,,0,,,70,0
1129536,control_change,,,,,64,0,1,,,,0,64,0,,
1129688,control_change,,,,,152,0,1,,,,0,64,127,,
1130496,set_tempo,,,,,1024,1,0,,857142,,,,,,
1130502,control_change,,,,,814,0,1,,,,0,64,0,,
1130604,control_change,,,,,102,0,1,,,,0,64,127,,
1130837,note_off,,,,,233,0,1,,,,0,,,76,0
1130837,note_on,,,,,0,0,1,,,,0,,,75,49
1130837,note_on,,,,,0,0,1,,,,0,,,63,29
1130837,note_off,,,,,0,0,1,,,,0,,,61,0
1130837,set_tempo,,,,,341,1,0,,800000,,,,,,
1130897,control_change,,,,,60,0,1,,,,0,64,0,,
1130998,control_change,,,,,101,0,1,,,,0,64,127,,
1131179,note_off,,,,,181,0,1,,,,0,,,75,0
1131179,note_on,,,,,0,0,1,,,,0,,,73,47
1131179,note_on,,,,,0,0,1,,,,0,,,64,27
1131179,note_off,,,,,0,0,1,,,,0,,,63,0
1131240,control_change,,,,,61,0,1,,,,0,64,0,,
1131329,control_change,,,,,89,0,1,,,,0,64,127,,
1131520,control_change,,,,,0,0,1,,,,0,64,127,,
1131520,set_tempo,,,,,683,1,0,,923076,,,,,,
1131520,control_change,,,,,191,0,1,,,,0,64,0,,
1131520,note_on,,,,,0,0,1,,,,0,,,63,24
1131520,note_on,,,,,0,0,1,,,,0,,,56,15
1131520,note_on,,,,,0,0,1,,,,0,,,71,48
1131520,note_on,,,,,0,0,1,,,,0,,,68,29
1131520,note_off,,,,,0,0,1,,,,0,,,70,0
1131520,note_off,,,,,0,0,1,,,,0,,,55,0
1131520,note_off,,,,,0,0,1,,,,0,,,64,0
1131520,control_change,,,,,0,0,1,,,,0,64,0,,
1131520,control_change,,,,,0,0,1,,,,0,64,0,,
1131520,control_change,,,,,0,0,1,,,,0,64,0,,
1131520,note_off,,,,,0,0,1,,,,0,,,73,0
1131596,control_change,,,,,76,0,1,,,,0,64,0,,
1131673,control_change,,,,,77,0,1,,,,0,64,127,,
1131861,note_off,,,,,188,0,1,,,,0,,,71,0
1131861,note_on,,,,,0,0,1,,,,0,,,70,47
1131861,set_tempo,,,,,341,1,0,,800000,,,,,,
1131902,control_change,,,,,41,0,1,,,,0,64,0,,
1131991,control_change,,,,,89,0,1,,,,0,64,127,,
1132203,note_off,,,,,212,0,1,,,,0,,,68,0
1132203,note_off,,,,,0,0,1,,,,0,,,70,0
1132203,note_on,,,,,0,0,1,,,,0,,,68,46
1132283,control_change,,,,,80,0,1,,,,0,64,0,,
1132288,note_off,,,,,5,0,1,,,,0,,,56,0
1132288,note_off,,,,,0,0,1,,,,0,,,63,0
1132347,control_change,,,,,59,0,1,,,,0,64,127,,
1132544,note_on,,,,,0,0,1,,,,0,,,56,27
1132544,note_on,,,,,0,0,1,,,,0,,,62,37
1132544,set_tempo,,,,,683,1,0,,923076,,,,,,
1132544,note_off,,,,,197,0,1,,,,0,,,68,0
1132544,note_on,,,,,0,0,1,,,,0,,,52,18
1132544,note_on,,,,,0,0,1,,,,0,,,67,49
1132563,control_change,,,,,19,0,1,,,,0,64,0,,
1132639,control_change,,,,,76,0,1,,,,0,64,127,,
1132885,note_off,,,,,246,0,1,,,,0,,,67,0
1132885,note_on,,,,,0,0,1,,,,0,,,68,44
1132885,set_tempo,,,,,341,1,0,,857142,,,,,,
1132957,control_change,,,,,72,0,1,,,,0,64,0,,
1133046,control_change,,,,,89,0,1,,,,0,64,127,,
1133227,note_off,,,,,181,0,1,,,,0,,,68,0
1133227,note_on,,,,,0,0,1,,,,0,,,70,40
1133301,control_change,,,,,74,0,1,,,,0,64,0,,
1133415,control_change,,,,,114,0,1,,,,0,64,127,,
1133568,control_change,,,,,0,0,1,,,,0,64,127,,
1133568,note_on,,,,,0,0,1,,,,0,,,55,20
1133568,control_change,,,,,153,0,1,,,,0,64,0,,
1133568,note_on,,,,,0,0,1,,,,0,,,51,15
1133568,note_off,,,,,0,0,1,,,,0,,,56,0
1133568,note_off,,,,,0,0,1,,,,0,,,52,0
1133568,note_off,,,,,0,0,1,,,,0,,,70,0
1133568,note_off,,,,,0,0,1,,,,0,,,62,0
1133568,control_change,,,,,0,0,1,,,,0,64,0,,
1133568,control_change,,,,,0,0,1,,,,0,64,0,,
1133568,control_change,,,,,0,0,1,,,,0,64,0,,
1133568,note_on,,,,,0,0,1,,,,0,,,63,41
1133568,set_tempo,,,,,683,1,0,,923076,,,,,,
1133632,control_change,,,,,64,0,1,,,,0,64,0,,
1133784,control_change,,,,,152,0,1,,,,0,64,127,,
1134080,note_off,,,,,296,0,1,,,,0,,,51,0
1134080,note_off,,,,,0,0,1,,,,0,,,55,0
1134251,note_on,,,,,0,0,1,,,,0,,,64,51
1134251,note_off,,,,,171,0,1,,,,0,,,63,0
1134251,set_tempo,,,,,683,1,0,,1090909,,,,,,
1134284,control_change,,,,,33,0,1,,,,0,64,0,,
1134592,note_on,,,,,308,0,1,,,,0,,,58,31
1134592,note_on,,,,,0,0,1,,,,0,,,49,24
1134592,note_on,,,,,0,0,1,,,,0,,,43,17
1134598,control_change,,,,,6,0,1,,,,0,64,0,,
1134695,control_change,,,,,97,0,1,,,,0,64,0,,
1134789,control_change,,,,,94,0,1,,,,0,64,127,,
1134933,set_tempo,,,,,682,1,0,,857142,,,,,,
1134933,note_on,,,,,0,0,1,,,,0,,,51,23
1134933,note_on,,,,,0,0,1,,,,0,,,63,42
1134933,note_off,,,,,0,0,1,,,,0,,,49,0
1134933,note_off,,,,,144,0,1,,,,0,,,64,0
1134993,control_change,,,,,60,0,1,,,,0,64,0,,
1135088,control_change,,,,,95,0,1,,,,0,64,0,,
1135182,control_change,,,,,94,0,1,,,,0,64,127,,
1135275,note_off,,,,,0,0,1,,,,0,,,51,0
1135275,note_on,,,,,0,0,1,,,,0,,,52,21
1135275,note_on,,,,,0,0,1,,,,0,,,61,40
1135275,note_off,,,,,93,0,1,,,,0,,,63,0
1135336,control_change,,,,,61,0,1,,,,0,64,0,,
1135409,control_change,,,,,73,0,1,,,,0,64,0,,
1135513,control_change,,,,,104,0,1,,,,0,64,127,,
1135616,note_on,,,,,0,0,1,,,,0,,,51,15
1135616,set_tempo,,,,,683,1,0,,1000000,,,,,,
1135616,note_on,,,,,0,0,1,,,,0,,,44,6
1135616,note_off,,,,,0,0,1,,,,0,,,43,0
1135616,note_on,,,,,0,0,1,,,,0,,,56,31
1135616,note_off,,,,,0,0,1,,,,0,,,52,0
1135616,note_off,,,,,0,0,1,,,,0,,,61,0
1135616,note_off,,,,,0,0,1,,,,0,,,58,0
1135616,control_change,,,,,0,0,1,,,,0,64,0,,
1135616,control_change,,,,,0,0,1,,,,0,64,0,,
1135616,control_change,,,,,0,0,1,,,,0,64,0,,
1135616,control_change,,,,,0,0,1,,,,0,64,127,,
1135616,control_change,,,,,0,0,1,,,,0,64,0,,
1135616,control_change,,,,,103,0,1,,,,0,64,0,,
1135616,note_on,,,,,0,0,1,,,,0,,,59,41
1135616,control_change,,,,,0,0,1,,,,0,64,0,,
1135692,control_change,,,,,76,0,1,,,,0,64,0,,
1135769,control_change,,,,,77,0,1,,,,0,64,127,,
1135957,note_off,,,,,188,0,1,,,,0,,,59,0
1135957,note_on,,,,,0,0,1,,,,0,,,58,39
1135957,set_tempo,,,,,341,1,0,,857142,,,,,,
1135998,control_change,,,,,41,0,1,,,,0,64,0,,
1136087,control_change,,,,,89,0,1,,,,0,64,127,,
1136299,note_off,,,,,0,0,1,,,,0,,,58,0
1136299,note_off,,,,,212,0,1,,,,0,,,56,0
1136299,note_on,,,,,0,0,1,,,,0,,,56,36
1136379,control_change,,,,,80,0,1,,,,0,64,0,,
1136384,note_off,,,,,5,0,1,,,,0,,,44,0
1136384,note_off,,,,,0,0,1,,,,0,,,51,0
1136443,control_change,,,,,59,0,1,,,,0,64,127,,
1136640,set_tempo,,,,,683,1,0,,1000000,,,,,,
1136640,note_on,,,,,0,0,1,,,,0,,,40,12
1136640,note_on,,,,,0,0,1,,,,0,,,44,21
1136640,note_on,,,,,0,0,1,,,,0,,,55,37
1136640,note_on,,,,,0,0,1,,,,0,,,50,28
1136640,note_off,,,,,197,0,1,,,,0,,,56,0
1136659,control_change,,,,,19,0,1,,,,0,64,0,,
1136735,control_change,,,,,76,0,1,,,,0,64,127,,
1136981,note_on,,,,,0,0,1,,,,0,,,56,32
1136981,set_tempo,,,,,341,1,0,,857142,,,,,,
1136981,note_off,,,,,246,0,1,,,,0,,,55,0
1137053,control_change,,,,,72,0,1,,,,0,64,0,,
1137142,control_change,,,,,89,0,1,,,,0,64,127,,
1137323,note_off,,,,,181,0,1,,,,0,,,56,0
1137323,note_on,,,,,0,0,1,,,,0,,,58,28
1137397,control_change,,,,,74,0,1,,,,0,64,0,,
1137511,control_change,,,,,114,0,1,,,,0,64,127,,
1137664,note_off,,,,,0,0,1,,,,0,,,58,0
1137664,note_on,,,,,0,0,1,,,,0,,,43,11
1137664,control_change,,,,,153,0,1,,,,0,64,0,,
1137664,control_change,,,,,0,0,1,,,,0,64,0,,
1137664,control_change,,,,,0,0,1,,,,0,64,127,,
1137664,note_off,,,,,0,0,1,,,,0,,,50,0
1137664,set_tempo,,,,,683,1,0,,857142,,,,,,
1137664,note_off,,,,,0,0,1,,,,0,,,40,0
1137664,note_off,,,,,0,0,1,,,,0,,,44,0
1137664,note_on,,,,,0,0,1,,,,0,,,51,24
1137664,note_on,,,,,0,0,1,,,,0,,,39,11
1137747,control_change,,,,,83,0,1,,,,0,64,0,,
1137990,control_change,,,,,243,0,1,,,,0,64,0,,
1138488,note_off,,,,,498,0,1,,,,0,,,51,0
1138488,note_off,,,,,0,0,1,,,,0,,,43,0
1138488,note_off,,,,,0,0,1,,,,0,,,39,0
1138688,note_on,,,,,200,0,1,,,,0,,,52,26
1138688,note_on,,,,,0,0,1,,,,0,,,40,17
1138688,set_tempo,,,,,1024,1,0,,800000,,,,,,
1139712,set_tempo,,,,,1024,1,0,,750000,,,,,,
1139712,control_change,,,,,1024,0,1,,,,0,64,0,,
1139712,control_change,,,,,0,0,1,,,,0,64,0,,
1139712,note_on,,,,,0,0,1,,,,0,,,51,28
1139712,note_on,,,,,0,0,1,,,,0,,,39,17
1139752,note_off,,,,,40,0,1,,,,0,,,52,0
1139752,note_off,,,,,0,0,1,,,,0,,,40,0
1140038,control_change,,,,,286,0,1,,,,0,64,127,,
1140736,set_tempo,,,,,1024,1,0,,857142,,,,,,
1140736,note_off,,,,,698,0,1,,,,0,,,51,0
1140736,note_on,,,,,0,0,1,,,,0,,,51,19
1140736,note_on,,,,,0,0,1,,,,0,,,55,19
1140736,note_on,,,,,0,0,1,,,,0,,,61,33
1140736,note_on,,,,,0,0,1,,,,0,,,51,17
1140736,note_off,,,,,0,0,1,,,,0,,,39,0
1140736,note_on,,,,,0,0,1,,,,0,,,39,10
1141760,control_change,,,,,0,0,1,,,,0,64,0,,
1141760,control_change,,,,,1024,0,1,,,,0,64,0,,
1141760,note_on,,,,,0,0,1,,,,0,,,51,10
1141760,note_on,,,,,0,0,1,,,,0,,,44,22
1141760,note_on,,,,,0,0,1,,,,0,,,60,37
1141760,note_off,,,,,0,0,1,,,,0,,,51,0
1141760,note_off,,,,,0,0,1,,,,0,,,39,0
1141760,note_on,,,,,0,0,1,,,,0,,,56,23
1141760,note_off,,,,,0,0,1,,,,0,,,55,0
1141760,note_off,,,,,0,0,1,,,,0,,,51,0
1141760,control_change,,,,,0,0,1,,,,0,64,0,,
1141760,control_change,,,,,0,0,1,,,,0,64,0,,
1141760,set_tempo,,,,,1024,1,0,,750000,,,,,,
1141760,note_off,,,,,0,0,1,,,,0,,,61,0
1141964,control_change,,,,,204,0,1,,,,0,64,127,,
1142029,control_change,,,,,65,0,1,,,,0,64,0,,
1142191,control_change,,,,,162,0,1,,,,0,64,127,,
1142784,note_off,,,,,0,0,1,,,,0,,,51,0
1142784,set_tempo,,,,,1024,1,0,,857142,,,,,,
1142784,note_off,,,,,0,0,1,,,,0,,,44,0
1142784,note_on,,,,,593,0,1,,,,0,,,61,19
1142784,note_on,,,,,0,0,1,,,,0,,,44,7
1142784,note_on,,,,,0,0,1,,,,0,,,37,19
1142784,note_on,,,,,0,0,1,,,,0,,,65,33
1142784,note_on,,,,,0,0,1,,,,0,,,49,7
1142790,control_change,,,,,6,0,1,,,,0,64,0,,
1142824,note_off,,,,,34,0,1,,,,0,,,56,0
1142824,note_off,,,,,0,0,1,,,,0,,,60,0
1143007,control_change,,,,,183,0,1,,,,0,64,127,,
1143469,control_change,,,,,462,0,1,,,,0,64,127,,
1143808,set_tempo,,,,,1024,1,0,,750000,,,,,,
1143808,note_on,,,,,0,0,1,,,,0,,,51,8
1143808,note_on,,,,,0,0,1,,,,0,,,44,20
1143808,note_on,,,,,0,0,1,,,,0,,,63,34
1143808,note_off,,,,,0,0,1,,,,0,,,49,0
1143808,note_off,,,,,0,0,1,,,,0,,,44,0
1143808,note_on,,,,,0,0,1,,,,0,,,60,15
1143808,control_change,,,,,339,0,1,,,,0,64,0,,
1143808,control_change,,,,,0,0,1,,,,0,64,127,,
1143808,note_off,,,,,0,0,1,,,,0,,,37,0
1143848,note_off,,,,,40,0,1,,,,0,,,61,0
1143848,note_off,,,,,0,0,1,,,,0,,,65,0
1143872,control_change,,,,,24,0,1,,,,0,64,0,,
1144024,control_change,,,,,152,0,1,,,,0,64,127,,
1144832,note_off,,,,,808,0,1,,,,0,,,60,0
1144832,note_off,,,,,0,0,1,,,,0,,,63,0
1144832,note_off,,,,,0,0,1,,,,0,,,51,0
1144832,note_on,,,,,0,0,1,,,,0,,,68,20
1144832,note_on,,,,,0,0,1,,,,0,,,72,39
1144832,note_on,,,,,0,0,1,,,,0,,,44,25
1144832,set_tempo,,,,,1024,1,0,,857142,,,,,,
1144832,note_off,,,,,0,0,1,,,,0,,,44,0
1144838,control_change,,,,,6,0,1,,,,0,64,0,,
1144940,control_change,,,,,102,0,1,,,,0,64,127,,
1145173,note_on,,,,,0,0,1,,,,0,,,46,23
1145173,note_on,,,,,0,0,1,,,,0,,,70,37
1145173,note_on,,,,,233,0,1,,,,0,,,67,18
1145173,set_tempo,,,,,341,1,0,,750000,,,,,,
1145213,note_off,,,,,0,0,1,,,,0,,,72,0
1145213,note_off,,,,,0,0,1,,,,0,,,44,0
1145213,note_off,,,,,40,0,1,,,,0,,,68,0
1145233,control_change,,,,,20,0,1,,,,0,64,0,,
1145334,control_change,,,,,101,0,1,,,,0,64,127,,
1145515,note_on,,,,,0,0,1,,,,0,,,68,35
1145515,note_on,,,,,0,0,1,,,,0,,,48,21
1145515,note_on,,,,,181,0,1,,,,0,,,65,16
1145555,note_off,,,,,0,0,1,,,,0,,,46,0
1145555,note_off,,,,,0,0,1,,,,0,,,70,0
1145555,note_off,,,,,40,0,1,,,,0,,,67,0
1145576,control_change,,,,,21,0,1,,,,0,64,0,,
1145665,control_change,,,,,89,0,1,,,,0,64,127,,
1145856,control_change,,,,,0,0,1,,,,0,64,127,,
1145856,set_tempo,,,,,683,1,0,,857142,,,,,,
1145856,note_on,,,,,0,0,1,,,,0,,,49,22
1145856,control_change,,,,,191,0,1,,,,0,64,0,,
1145856,note_on,,,,,0,0,1,,,,0,,,63,20
1145856,note_on,,,,,0,0,1,,,,0,,,67,39
1145896,note_off,,,,,40,0,1,,,,0,,,65,0
1145896,note_off,,,,,0,0,1,,,,0,,,68,0
1145896,note_off,,,,,0,0,1,,,,0,,,48,0
1145932,control_change,,,,,36,0,1,,,,0,64,0,,
1145983,control_change,,,,,51,0,1,,,,0,64,0,,
1146099,control_change,,,,,116,0,1,,,,0,64,127,,
1146197,set_tempo,,,,,341,1,0,,750000,,,,,,
1146197,note_on,,,,,0,0,1,,,,0,,,65,37
1146197,note_on,,,,,0,0,1,,,,0,,,53,24
1146197,note_on,,,,,98,0,1,,,,0,,,61,18
1146237,note_off,,,,,0,0,1,,,,0,,,67,0
1146237,note_off,,,,,40,0,1,,,,0,,,63,0
1146237,note_off,,,,,0,0,1,,,,0,,,49,0
1146238,control_change,,,,,1,0,1,,,,0,64,0,,
1146319,control_change,,,,,81,0,1,,,,0,64,0,,
1146435,control_change,,,,,116,0,1,,,,0,64,127,,
1146539,note_on,,,,,104,0,1,,,,0,,,64,34
1146539,note_on,,,,,0,0,1,,,,0,,,58,27
1146579,note_off,,,,,40,0,1,,,,0,,,65,0
1146579,note_off,,,,,0,0,1,,,,0,,,53,0
1146619,control_change,,,,,40,0,1,,,,0,64,0,,
1146666,control_change,,,,,47,0,1,,,,0,64,0,,
1146735,control_change,,,,,69,0,1,,,,0,64,127,,
1146880,note_on,,,,,145,0,1,,,,0,,,65,34
1146880,note_on,,,,,0,0,1,,,,0,,,56,26
1146899,control_change,,,,,19,0,1,,,,0,64,0,,
1146920,note_off,,,,,21,0,1,,,,0,,,64,0
1146920,note_off,,,,,0,0,1,,,,0,,,58,0
1146975,control_change,,,,,55,0,1,,,,0,64,127,,
1146978,control_change,,,,,3,0,1,,,,0,64,0,,
1147117,control_change,,,,,139,0,1,,,,0,64,127,,
1147221,note_on,,,,,104,0,1,,,,0,,,63,14
1147221,note_on,,,,,0,0,1,,,,0,,,67,30
1147221,note_on,,,,,0,0,1,,,,0,,,53,19
1147261,note_off,,,,,40,0,1,,,,0,,,61,0
1147261,note_off,,,,,0,0,1,,,,0,,,65,0
1147261,note_off,,,,,0,0,1,,,,0,,,56,0
1147293,control_change,,,,,32,0,1,,,,0,64,0,,
1147372,control_change,,,,,79,0,1,,,,0,64,0,,
1147476,control_change,,,,,104,0,1,,,,0,64,127,,
1147563,note_on,,,,,0,0,1,,,,0,,,68,29
1147563,note_on,,,,,87,0,1,,,,0,,,65,13
1147563,set_tempo,,,,,1366,1,0,,857142,,,,,,
1147563,note_on,,,,,0,0,1,,,,0,,,49,10
1147603,note_off,,,,,40,0,1,,,,0,,,63,0
1147603,note_off,,,,,0,0,1,,,,0,,,67,0
1147603,note_off,,,,,0,0,1,,,,0,,,53,0
1147637,control_change,,,,,34,0,1,,,,0,64,0,,
1147751,control_change,,,,,114,0,1,,,,0,64,127,,
1147904,set_tempo,,,,,341,1,0,,750000,,,,,,
1147904,note_on,,,,,0,0,1,,,,0,,,44,18
1147904,control_change,,,,,153,0,1,,,,0,64,0,,
1147904,note_on,,,,,0,0,1,,,,0,,,60,18
1147904,note_off,,,,,0,0,1,,,,0,,,49,0
1147904,control_change,,,,,0,0,1,,,,0,64,127,,
1147904,note_on,,,,,0,0,1,,,,0,,,63,37
1147904,note_off,,,,,0,0,1,,,,0,,,68,0
1147904,note_off,,,,,0,0,1,,,,0,,,65,0
1147978,control_change,,,,,74,0,1,,,,0,64,0,,
1148048,control_change,,,,,70,0,1,,,,0,64,0,,
1148337,control_change,,,,,289,0,1,,,,0,64,127,,
1148928,note_on,,,,,0,0,1,,,,0,,,37,22
1148928,note_on,,,,,0,0,1,,,,0,,,44,13
1148928,note_off,,,,,0,0,1,,,,0,,,44,0
1148928,note_on,,,,,591,0,1,,,,0,,,61,25
1148928,set_tempo,,,,,1024,1,0,,857142,,,,,,
1148928,note_on,,,,,0,0,1,,,,0,,,65,44
1148935,control_change,,,,,7,0,1,,,,0,64,0,,
1148968,note_off,,,,,0,0,1,,,,0,,,63,0
1148968,note_off,,,,,33,0,1,,,,0,,,60,0
1149049,control_change,,,,,81,0,1,,,,0,64,0,,
1149246,control_change,,,,,197,0,1,,,,0,64,127,,
1149611,note_off,,,,,0,0,1,,,,0,,,44,0
1149611,note_on,,,,,0,0,1,,,,0,,,51,15
1149611,note_off,,,,,0,0,1,,,,0,,,37,0
1149611,note_on,,,,,0,0,1,,,,0,,,44,24
1149611,note_on,,,,,0,0,1,,,,0,,,63,37
1149611,note_on,,,,,365,0,1,,,,0,,,60,18
1149651,note_off,,,,,40,0,1,,,,0,,,61,0
1149651,note_off,,,,,0,0,1,,,,0,,,65,0
1149657,control_change,,,,,6,0,1,,,,0,64,0,,
1149778,control_change,,,,,121,0,1,,,,0,64,0,,
1149848,control_change,,,,,70,0,1,,,,0,64,127,,
1149952,note_on,,,,,0,0,1,,,,0,,,53,14
1149952,note_on,,,,,0,0,1,,,,0,,,46,25
1149952,note_on,,,,,0,0,1,,,,0,,,61,39
1149952,note_on,,,,,0,0,1,,,,0,,,58,25
1149952,note_off,,,,,0,0,1,,,,0,,,51,0
1149952,note_off,,,,,0,0,1,,,,0,,,44,0
1149952,note_off,,,,,0,0,1,,,,0,,,63,0
1149952,control_change,,,,,0,0,1,,,,0,64,0,,
1149952,set_tempo,,,,,1024,1,0,,800000,,,,,,
1149952,control_change,,,,,0,0,1,,,,0,64,0,,
1149952,control_change,,,,,0,0,1,,,,0,64,0,,
1149952,control_change,,,,,0,0,1,,,,0,64,0,,
1149952,control_change,,,,,0,0,1,,,,0,64,0,,
1149952,control_change,,,,,104,0,1,,,,0,64,0,,
1149952,note_off,,,,,0,0,1,,,,0,,,60,0
1150156,control_change,,,,,204,0,1,,,,0,64,127,,
1150976,note_off,,,,,820,0,1,,,,0,,,58,0
1150976,note_off,,,,,0,0,1,,,,0,,,61,0
1150976,note_off,,,,,0,0,1,,,,0,,,46,0
1150976,note_on,,,,,0,0,1,,,,0,,,60,22
1150976,note_on,,,,,0,0,1,,,,0,,,57,22
1150976,note_on,,,,,0,0,1,,,,0,,,65,44
1150976,note_on,,,,,0,0,1,,,,0,,,41,25
1150976,note_off,,,,,0,0,1,,,,0,,,53,0
1150976,note_on,,,,,0,0,1,,,,0,,,53,14
1150976,set_tempo,,,,,1024,1,0,,923076,,,,,,
1150982,control_change,,,,,6,0,1,,,,0,64,0,,
1151199,control_change,,,,,217,0,1,,,,0,64,127,,
1151661,control_change,,,,,462,0,1,,,,0,64,127,,
1152000,set_tempo,,,,,1024,1,0,,750000,,,,,,
1152000,note_on,,,,,0,0,1,,,,0,,,46,13
1152000,note_on,,,,,0,0,1,,,,0,,,61,32
1152000,note_on,,,,,0,0,1,,,,0,,,58,11
1152000,note_off,,,,,0,0,1,,,,0,,,53,0
1152000,note_off,,,,,0,0,1,,,,0,,,41,0
1152000,note_on,,,,,0,0,1,,,,0,,,53,14
1152000,note_off,,,,,0,0,1,,,,0,,,60,0
1152000,note_off,,,,,0,0,1,,,,0,,,57,0
1152000,control_change,,,,,0,0,1,,,,0,64,0,,
1152000,control_change,,,,,0,0,1,,,,0,64,127,,
1152000,note_off,,,,,0,0,1,,,,0,,,65,0
1152000,control_change,,,,,0,0,1,,,,0,64,0,,
1152000,control_change,,,,,339,0,1,,,,0,64,0,,
1152064,control_change,,,,,64,0,1,,,,0,64,0,,
1152216,control_change,,,,,152,0,1,,,,0,64,127,,
1153024,note_on,,,,,0,0,1,,,,0,,,57,21
1153024,note_on,,,,,0,0,1,,,,0,,,60,40
1153024,note_on,,,,,0,0,1,,,,0,,,54,19
1153024,note_off,,,,,0,0,1,,,,0,,,61,0
1153024,note_off,,,,,0,0,1,,,,0,,,53,0
1153024,note_off,,,,,808,0,1,,,,0,,,58,0
1153024,set_tempo,,,,,1024,1,0,,923076,,,,,,
1153024,note_off,,,,,0,0,1,,,,0,,,46,0
1153030,control_change,,,,,6,0,1,,,,0,64,0,,
1153132,control_change,,,,,102,0,1,,,,0,64,127,,
1153365,set_tempo,,,,,341,1,0,,750000,,,,,,
1153365,note_on,,,,,0,0,1,,,,0,,,58,21
1153365,note_on,,,,,0,0,1,,,,0,,,61,41
1153365,note_off,,,,,233,0,1,,,,0,,,57,0
1153365,note_on,,,,,0,0,1,,,,0,,,53,20
1153365,note_off,,,,,0,0,1,,,,0,,,54,0
1153365,note_off,,,,,0,0,1,,,,0,,,60,0
1153425,control_change,,,,,60,0,1,,,,0,64,0,,
1153526,control_change,,,,,101,0,1,,,,0,64,127,,
1153707,note_off,,,,,181,0,1,,,,0,,,58,0
1153707,note_off,,,,,0,0,1,,,,0,,,53,0
1153707,note_on,,,,,0,0,1,,,,0,,,60,22
1153707,note_on,,,,,0,0,1,,,,0,,,63,43
1153707,note_on,,,,,0,0,1,,,,0,,,45,21
1153707,note_off,,,,,0,0,1,,,,0,,,61,0
1153768,control_change,,,,,61,0,1,,,,0,64,0,,
1153857,control_change,,,,,89,0,1,,,,0,64,127,,
1154048,control_change,,,,,0,0,1,,,,0,64,0,,
1154048,note_on,,,,,0,0,1,,,,0,,,46,22
1154048,note_on,,,,,0,0,1,,,,0,,,58,22
1154048,note_off,,,,,0,0,1,,,,0,,,45,0
1154048,note_off,,,,,0,0,1,,,,0,,,63,0
1154048,note_on,,,,,0,0,1,,,,0,,,61,43
1154048,control_change,,,,,0,0,1,,,,0,64,0,,
1154048,control_change,,,,,0,0,1,,,,0,64,127,,
1154048,set_tempo,,,,,683,1,0,,923076,,,,,,
1154048,control_change,,,,,191,0,1,,,,0,64,0,,
1154048,note_off,,,,,0,0,1,,,,0,,,60,0
1154124,control_change,,,,,76,0,1,,,,0,64,0,,
1154175,control_change,,,,,51,0,1,,,,0,64,0,,
1154291,control_change,,,,,116,0,1,,,,0,64,127,,
1154389,set_tempo,,,,,341,1,0,,750000,,,,,,
1154389,note_on,,,,,0,0,1,,,,0,,,48,23
1154389,note_on,,,,,0,0,1,,,,0,,,73,47
1154389,note_off,,,,,0,0,1,,,,0,,,46,0
1154389,note_off,,,,,0,0,1,,,,0,,,61,0
1154389,note_off,,,,,98,0,1,,,,0,,,58,0
1154389,note_on,,,,,0,0,1,,,,0,,,70,26
1154430,control_change,,,,,41,0,1,,,,0,64,0,,
1154511,control_change,,,,,81,0,1,,,,0,64,0,,
1154627,control_change,,,,,116,0,1,,,,0,64,127,,
1154731,note_on,,,,,0,0,1,,,,0,,,49,24
1154731,note_on,,,,,0,0,1,,,,0,,,72,45
1154731,note_off,,,,,0,0,1,,,,0,,,73,0
1154731,note_off,,,,,0,0,1,,,,0,,,48,0
1154731,note_off,,,,,104,0,1,,,,0,,,70,0
1154731,note_on,,,,,0,0,1,,,,0,,,68,24
1154811,control_change,,,,,80,0,1,,,,0,64,0,,
1154858,control_change,,,,,47,0,1,,,,0,64,0,,
1154927,control_change,,,,,69,0,1,,,,0,64,127,,
1154987,note_off,,,,,60,0,1,,,,0,,,68,0
1154987,note_off,,,,,0,0,1,,,,0,,,72,0
1154987,note_on,,,,,0,0,1,,,,0,,,72,46
1155072,note_off,,,,,0,0,1,,,,0,,,49,0
1155072,set_tempo,,,,,683,1,0,,1000000,,,,,,
1155072,note_on,,,,,0,0,1,,,,0,,,70,48
1155072,note_on,,,,,0,0,1,,,,0,,,67,27
1155072,note_off,,,,,85,0,1,,,,0,,,72,0
1155072,note_on,,,,,0,0,1,,,,0,,,51,25
1155091,control_change,,,,,19,0,1,,,,0,64,0,,
1155167,control_change,,,,,76,0,1,,,,0,64,127,,
1155170,control_change,,,,,3,0,1,,,,0,64,0,,
1155309,control_change,,,,,139,0,1,,,,0,64,127,,
1155413,note_off,,,,,0,0,1,,,,0,,,51,0
1155413,note_off,,,,,104,0,1,,,,0,,,67,0
1155413,note_on,,,,,0,0,1,,,,0,,,65,22
1155413,note_on,,,,,0,0,1,,,,0,,,68,43
1155413,note_on,,,,,0,0,1,,,,0,,,53,21
1155413,note_off,,,,,0,0,1,,,,0,,,70,0
1155413,set_tempo,,,,,341,1,0,,857142,,,,,,
1155485,control_change,,,,,72,0,1,,,,0,64,0,,
1155564,control_change,,,,,79,0,1,,,,0,64,0,,
1155668,control_change,,,,,104,0,1,,,,0,64,127,,
1155755,note_off,,,,,0,0,1,,,,0,,,68,0
1155755,note_off,,,,,87,0,1,,,,0,,,65,0
1155755,note_off,,,,,0,0,1,,,,0,,,53,0
1155755,note_on,,,,,0,0,1,,,,0,,,51,16
1155755,note_on,,,,,0,0,1,,,,0,,,70,42
1155755,note_on,,,,,0,0,1,,,,0,,,67,21
1155829,control_change,,,,,74,0,1,,,,0,64,0,,
1155943,control_change,,,,,114,0,1,,,,0,64,127,,
1156096,note_off,,,,,0,0,1,,,,0,,,51,0
1156096,control_change,,,,,0,0,1,,,,0,64,0,,
1156096,control_change,,,,,0,0,1,,,,0,64,127,,
1156096,control_change,,,,,0,0,1,,,,0,64,0,,
1156096,control_change,,,,,153,0,1,,,,0,64,0,,
1156096,note_off,,,,,0,0,1,,,,0,,,70,0
1156096,note_on,,,,,0,0,1,,,,0,,,68,23
1156096,note_on,,,,,0,0,1,,,,0,,,72,44
1156096,note_on,,,,,0,0,1,,,,0,,,44,12
1156096,note_off,,,,,0,0,1,,,,0,,,67,0
1156251,control_change,,,,,155,0,1,,,,0,64,0,,
1156405,control_change,,,,,154,0,1,,,,0,64,127,,
1156779,note_off,,,,,374,0,1,,,,0,,,68,0
1156779,note_on,,,,,0,0,1,,,,0,,,63,45
1156779,note_on,,,,,0,0,1,,,,0,,,51,13
1156779,note_on,,,,,0,0,1,,,,0,,,60,21
1156779,note_off,,,,,0,0,1,,,,0,,,72,0
1156779,set_tempo,,,,,1366,1,0,,857142,,,,,,
1156974,control_change,,,,,195,0,1,,,,0,64,0,,
1157101,control_change,,,,,127,0,1,,,,0,64,0,,
1157120,note_off,,,,,0,0,1,,,,0,,,60,0
1157120,note_off,,,,,19,0,1,,,,0,,,63,0
1157120,note_on,,,,,0,0,1,,,,0,,,77,55
1157120,set_tempo,,,,,341,1,0,,1200000,,,,,,
1157120,note_off,,,,,0,0,1,,,,0,,,44,0
1157120,note_off,,,,,0,0,1,,,,0,,,51,0
1157120,note_on,,,,,0,0,1,,,,0,,,44,21
1157245,control_change,,,,,125,0,1,,,,0,64,127,,
1157291,set_tempo,,,,,171,1,0,,857142,,,,,,
1157291,note_on,,,,,46,0,1,,,,0,,,75,48
1157321,note_off,,,,,30,0,1,,,,0,,,77,0
1157392,control_change,,,,,71,0,1,,,,0,64,127,,
1157461,note_on,,,,,69,0,1,,,,0,,,73,47
1157461,note_on,,,,,0,0,1,,,,0,,,51,21
1157491,note_off,,,,,30,0,1,,,,0,,,75,0
1157632,note_on,,,,,141,0,1,,,,0,,,72,45
1157662,note_off,,,,,30,0,1,,,,0,,,73,0
1157803,note_off,,,,,0,0,1,,,,0,,,51,0
1157803,note_on,,,,,0,0,1,,,,0,,,60,21
1157803,note_on,,,,,141,0,1,,,,0,,,70,44
1157833,note_off,,,,,30,0,1,,,,0,,,72,0
1157973,note_on,,,,,140,0,1,,,,0,,,68,43
1157973,set_tempo,,,,,682,1,0,,923076,,,,,,
1158003,note_off,,,,,30,0,1,,,,0,,,70,0
1158144,note_on,,,,,0,0,1,,,,0,,,73,43
1158144,note_off,,,,,0,0,1,,,,0,,,60,0
1158144,note_off,,,,,0,0,1,,,,0,,,44,0
1158144,control_change,,,,,0,0,1,,,,0,64,0,,
1158144,control_change,,,,,0,0,1,,,,0,64,0,,
1158144,control_change,,,,,0,0,1,,,,0,64,127,,
1158144,control_change,,,,,0,0,1,,,,0,64,127,,
1158144,control_change,,,,,141,0,1,,,,0,64,0,,
1158144,control_change,,,,,0,0,1,,,,0,64,0,,
1158144,note_on,,,,,0,0,1,,,,0,,,37,21
1158144,note_on,,,,,0,0,1,,,,0,,,77,61
1158144,set_tempo,,,,,171,1,0,,857142,,,,,,
1158174,note_off,,,,,30,0,1,,,,0,,,68,0
1158299,control_change,,,,,0,0,1,,,,0,64,0,,
1158299,control_change,,,,,125,0,1,,,,0,64,0,,
1158453,control_change,,,,,0,0,1,,,,0,64,127,,
1158453,control_change,,,,,154,0,1,,,,0,64,127,,
1158827,note_off,,,,,374,0,1,,,,0,,,73,0
1158827,set_tempo,,,,,683,1,0,,857142,,,,,,
1158827,note_on,,,,,0,0,1,,,,0,,,53,21
1158827,note_on,,,,,0,0,1,,,,0,,,44,13
1158827,note_off,,,,,0,0,1,,,,0,,,37,0
1158827,note_on,,,,,0,0,1,,,,0,,,68,49
1158827,note_off,,,,,0,0,1,,,,0,,,77,0
1159022,control_change,,,,,195,0,1,,,,0,64,0,,
1159022,control_change,,,,,0,0,1,,,,0,64,0,,
1159149,control_change,,,,,127,0,1,,,,0,64,0,,
1159149,control_change,,,,,0,0,1,,,,0,64,0,,
1159168,set_tempo,,,,,341,1,0,,1090909,,,,,,
1159168,note_on,,,,,0,0,1,,,,0,,,82,51
1159168,note_off,,,,,0,0,1,,,,0,,,53,0
1159168,note_off,,,,,19,0,1,,,,0,,,68,0
1159168,note_on,,,,,0,0,1,,,,0,,,37,21
1159168,note_off,,,,,0,0,1,,,,0,,,44,0
1159293,control_change,,,,,0,0,1,,,,0,64,127,,
1159293,control_change,,,,,125,0,1,,,,0,64,127,,
1159339,set_tempo,,,,,171,1,0,,857142,,,,,,
1159339,note_on,,,,,46,0,1,,,,0,,,80,53
1159369,note_off,,,,,30,0,1,,,,0,,,82,0
1159392,control_change,,,,,23,0,1,,,,0,64,127,,
1159509,note_on,,,,,0,0,1,,,,0,,,44,21
1159509,note_on,,,,,117,0,1,,,,0,,,79,51
1159539,note_off,,,,,30,0,1,,,,0,,,80,0
1159680,set_tempo,,,,,341,1,0,,800000,,,,,,
1159680,note_on,,,,,141,0,1,,,,0,,,77,50
1159710,note_off,,,,,30,0,1,,,,0,,,79,0
1159851,note_on,,,,,141,0,1,,,,0,,,75,48
1159851,note_off,,,,,0,0,1,,,,0,,,44,0
1159851,note_on,,,,,0,0,1,,,,0,,,53,21
1159881,note_off,,,,,30,0,1,,,,0,,,77,0
1160021,note_on,,,,,140,0,1,,,,0,,,73,47
1160051,note_off,,,,,30,0,1,,,,0,,,75,0
1160192,set_tempo,,,,,512,1,0,,750000,,,,,,
1160192,control_change,,,,,141,0,1,,,,0,64,0,,
1160192,note_on,,,,,0,0,1,,,,0,,,72,38
1160192,control_change,,,,,0,0,1,,,,0,64,127,,
1160192,control_change,,,,,0,0,1,,,,0,64,0,,
1160192,control_change,,,,,0,0,1,,,,0,64,127,,
1160192,control_change,,,,,0,0,1,,,,0,64,0,,
1160192,control_change,,,,,0,0,1,,,,0,64,0,,
1160192,control_change,,,,,0,0,1,,,,0,64,0,,
1160192,note_off,,,,,0,0,1,,,,0,,,37,0
1160192,note_off,,,,,0,0,1,,,,0,,,53,0
1160192,note_on,,,,,0,0,1,,,,0,,,75,56
1160192,note_on,,,,,0,0,1,,,,0,,,44,26
1160222,note_off,,,,,30,0,1,,,,0,,,73,0
1160347,control_change,,,,,125,0,1,,,,0,64,0,,
1160347,control_change,,,,,0,0,1,,,,0,64,0,,
1160501,control_change,,,,,154,0,1,,,,0,64,127,,
1160501,control_change,,,,,0,0,1,,,,0,64,127,,
1160875,note_on,,,,,0,0,1,,,,0,,,60,24
1160875,note_on,,,,,0,0,1,,,,0,,,51,24
1160875,note_on,,,,,0,0,1,,,,0,,,68,44
1160875,note_off,,,,,374,0,1,,,,0,,,72,0
1160875,note_off,,,,,0,0,1,,,,0,,,75,0
1160875,note_off,,,,,0,0,1,,,,0,,,44,0
1160875,set_tempo,,,,,683,1,0,,857142,,,,,,
1161070,control_change,,,,,195,0,1,,,,0,64,0,,
1161070,control_change,,,,,0,0,1,,,,0,64,0,,
1161197,control_change,,,,,127,0,1,,,,0,64,0,,
1161197,control_change,,,,,0,0,1,,,,0,64,0,,
1161216,note_off,,,,,0,0,1,,,,0,,,51,0
1161216,set_tempo,,,,,341,1,0,,1090909,,,,,,
1161216,note_off,,,,,0,0,1,,,,0,,,60,0
1161216,note_on,,,,,0,0,1,,,,0,,,77,53
1161216,note_off,,,,,19,0,1,,,,0,,,68,0
1161216,note_on,,,,,0,0,1,,,,0,,,44,24
1161341,control_change,,,,,0,0,1,,,,0,64,127,,
1161341,control_change,,,,,125,0,1,,,,0,64,127,,
1161387,note_on,,,,,46,0,1,,,,0,,,75,55
1161387,set_tempo,,,,,171,1,0,,1000000,,,,,,
1161417,note_off,,,,,30,0,1,,,,0,,,77,0
1161440,control_change,,,,,23,0,1,,,,0,64,127,,
1161557,note_on,,,,,0,0,1,,,,0,,,51,23
1161557,note_on,,,,,117,0,1,,,,0,,,73,53
1161557,set_tempo,,,,,170,1,0,,800000,,,,,,
1161587,note_off,,,,,30,0,1,,,,0,,,75,0
1161728,note_on,,,,,141,0,1,,,,0,,,72,51
1161758,note_off,,,,,30,0,1,,,,0,,,73,0
1161899,note_on,,,,,0,0,1,,,,0,,,60,22
1161899,note_off,,,,,0,0,1,,,,0,,,51,0
1161899,note_on,,,,,141,0,1,,,,0,,,70,50
1161929,note_off,,,,,30,0,1,,,,0,,,72,0
1162069,note_on,,,,,140,0,1,,,,0,,,68,49
1162099,note_off,,,,,30,0,1,,,,0,,,70,0
1162240,control_change,,,,,141,0,1,,,,0,64,0,,
1162240,note_off,,,,,0,0,1,,,,0,,,44,0
1162240,control_change,,,,,0,0,1,,,,0,64,0,,
1162240,note_on,,,,,0,0,1,,,,0,,,67,52
1162240,note_on,,,,,0,0,1,,,,0,,,39,21
1162240,set_tempo,,,,,683,1,0,,1090909,,,,,,
1162240,note_off,,,,,0,0,1,,,,0,,,60,0
1162270,note_off,,,,,30,0,1,,,,0,,,68,0
1162360,control_change,,,,,90,0,1,,,,0,64,127,,
1162411,set_tempo,,,,,171,1,0,,857142,,,,,,
1162411,note_on,,,,,51,0,1,,,,0,,,77,56
1162441,note_off,,,,,30,0,1,,,,0,,,67,0
1162581,note_on,,,,,140,0,1,,,,0,,,75,54
1162581,note_on,,,,,0,0,1,,,,0,,,46,21
1162611,note_off,,,,,30,0,1,,,,0,,,77,0
1162752,note_on,,,,,141,0,1,,,,0,,,73,53
1162752,set_tempo,,,,,341,1,0,,750000,,,,,,
1162782,note_off,,,,,30,0,1,,,,0,,,75,0
1162877,control_change,,,,,95,0,1,,,,0,64,0,,
1162923,note_on,,,,,0,0,1,,,,0,,,55,20
1162923,note_off,,,,,0,0,1,,,,0,,,46,0
1162923,note_off,,,,,0,0,1,,,,0,,,39,0
1162923,note_on,,,,,46,0,1,,,,0,,,72,51
1162953,note_off,,,,,30,0,1,,,,0,,,73,0
1163049,control_change,,,,,96,0,1,,,,0,64,127,,
1163093,note_on,,,,,44,0,1,,,,0,,,70,51
1163123,note_off,,,,,30,0,1,,,,0,,,72,0
1163264,note_on,,,,,0,0,1,,,,0,,,39,19
1163264,note_on,,,,,141,0,1,,,,0,,,68,49
1163264,note_off,,,,,0,0,1,,,,0,,,55,0
1163294,note_off,,,,,30,0,1,,,,0,,,70,0
1163393,control_change,,,,,99,0,1,,,,0,64,0,,
1163435,note_on,,,,,42,0,1,,,,0,,,67,48
1163465,note_off,,,,,30,0,1,,,,0,,,68,0
1163605,note_on,,,,,140,0,1,,,,0,,,65,47
1163605,note_on,,,,,0,0,1,,,,0,,,46,18
1163635,note_off,,,,,30,0,1,,,,0,,,67,0
1163776,note_on,,,,,141,0,1,,,,0,,,63,46
1163806,note_off,,,,,30,0,1,,,,0,,,65,0
1163947,note_on,,,,,0,0,1,,,,0,,,55,17
1163947,note_off,,,,,0,0,1,,,,0,,,46,0
1163947,note_off,,,,,0,0,1,,,,0,,,39,0
1163947,note_on,,,,,141,0,1,,,,0,,,61,44
1163977,note_off,,,,,30,0,1,,,,0,,,63,0
1164117,note_on,,,,,140,0,1,,,,0,,,60,43
1164147,note_off,,,,,30,0,1,,,,0,,,61,0
1164288,control_change,,,,,141,0,1,,,,0,64,0,,
1164288,note_off,,,,,0,0,1,,,,0,,,55,0
1164288,note_on,,,,,0,0,1,,,,0,,,58,41
1164288,set_tempo,,,,,1536,1,0,,1090909,,,,,,
1164288,control_change,,,,,0,0,1,,,,0,64,0,,
1164288,note_on,,,,,0,0,1,,,,0,,,39,17
1164318,note_off,,,,,30,0,1,,,,0,,,60,0
1164459,set_tempo,,,,,171,1,0,,800000,,,,,,
1164459,note_on,,,,,0,0,1,,,,0,,,60,36
1164459,note_off,,,,,141,0,1,,,,0,,,58,0
1164629,note_on,,,,,0,0,1,,,,0,,,46,16
1164629,note_on,,,,,0,0,1,,,,0,,,61,35
1164629,note_off,,,,,170,0,1,,,,0,,,60,0
1164629,note_off,,,,,0,0,1,,,,0,,,39,0
1164800,note_off,,,,,171,0,1,,,,0,,,61,0
1164800,note_on,,,,,0,0,1,,,,0,,,60,34
1164971,note_off,,,,,0,0,1,,,,0,,,46,0
1164971,note_on,,,,,0,0,1,,,,0,,,55,15
1164971,note_off,,,,,171,0,1,,,,0,,,60,0
1164971,note_on,,,,,0,0,1,,,,0,,,58,33
1165141,note_off,,,,,170,0,1,,,,0,,,58,0
1165141,note_on,,,,,0,0,1,,,,0,,,56,32
1165292,note_off,,,,,151,0,1,,,,0,,,55,0
1165312,note_off,,,,,20,0,1,,,,0,,,56,0
1165312,note_on,,,,,0,0,1,,,,0,,,55,31
1165483,note_on,,,,,0,0,1,,,,0,,,53,30
1165483,note_off,,,,,171,0,1,,,,0,,,55,0
1165653,note_off,,,,,170,0,1,,,,0,,,53,0
1165653,note_on,,,,,0,0,1,,,,0,,,51,30
1165824,note_off,,,,,171,0,1,,,,0,,,51,0
1165824,note_on,,,,,0,0,1,,,,0,,,49,29
1165995,note_off,,,,,171,0,1,,,,0,,,49,0
1165995,note_on,,,,,0,0,1,,,,0,,,48,28
1166165,note_off,,,,,170,0,1,,,,0,,,48,0
1166165,note_on,,,,,0,0,1,,,,0,,,46,27
1166336,note_on,,,,,0,0,1,,,,0,,,44,13
1166336,note_on,,,,,0,0,1,,,,0,,,32,19
1166336,note_on,,,,,0,0,1,,,,0,,,56,32
1166336,note_on,,,,,0,0,1,,,,0,,,51,19
1166336,note_off,,,,,0,0,1,,,,0,,,46,0
1166336,control_change,,,,,0,0,1,,,,0,64,0,,
1166336,control_change,,,,,171,0,1,,,,0,64,0,,
1166336,note_on,,,,,0,0,1,,,,0,,,48,19
1166336,set_tempo,,,,,1877,1,0,,857142,,,,,,
1166755,control_change,,,,,419,0,1,,,,0,64,127,,
1167360,note_on,,,,,0,0,1,,,,0,,,49,15
1167360,set_tempo,,,,,1024,1,0,,923076,,,,,,
1167360,note_off,,,,,0,0,1,,,,0,,,44,0
1167360,note_on,,,,,0,0,1,,,,0,,,53,15
1167360,note_on,,,,,0,0,1,,,,0,,,56,28
1167360,note_on,,,,,0,0,1,,,,0,,,37,15
1167360,note_on,,,,,0,0,1,,,,0,,,44,9
1167360,control_change,,,,,605,0,1,,,,0,64,0,,
1167360,note_off,,,,,0,0,1,,,,0,,,48,0
1167360,note_off,,,,,0,0,1,,,,0,,,51,0
1167360,note_off,,,,,0,0,1,,,,0,,,56,0
1167360,note_off,,,,,0,0,1,,,,0,,,32,0
1167779,control_change,,,,,419,0,1,,,,0,64,127,,
1168384,note_on,,,,,0,0,1,,,,0,,,48,14
1168384,note_on,,,,,0,0,1,,,,0,,,51,14
1168384,note_on,,,,,0,0,1,,,,0,,,56,27
1168384,note_on,,,,,0,0,1,,,,0,,,32,14
1168384,note_on,,,,,0,0,1,,,,0,,,44,8
1168384,note_off,,,,,0,0,1,,,,0,,,44,0
1168384,note_off,,,,,0,0,1,,,,0,,,37,0
1168384,note_off,,,,,0,0,1,,,,0,,,56,0
1168384,note_off,,,,,0,0,1,,,,0,,,53,0
1168384,control_change,,,,,0,0,1,,,,0,64,0,,
1168384,control_change,,,,,605,0,1,,,,0,64,0,,
1168384,set_tempo,,,,,1024,1,0,,857142,,,,,,
1168384,note_off,,,,,0,0,1,,,,0,,,49,0
1168499,control_change,,,,,115,0,1,,,,0,64,127,,
1169280,note_off,,,,,781,0,1,,,,0,,,56,0
1169280,note_on,,,,,0,0,1,,,,0,,,56,19
1169408,note_off,,,,,0,0,1,,,,0,,,44,0
1169408,note_on,,,,,0,0,1,,,,0,,,39,19
1169408,note_on,,,,,0,0,1,,,,0,,,55,32
1169408,note_on,,,,,0,0,1,,,,0,,,51,19
1169408,note_on,,,,,0,0,1,,,,0,,,46,19
1169408,note_off,,,,,0,0,1,,,,0,,,32,0
1169408,note_off,,,,,0,0,1,,,,0,,,56,0
1169408,note_off,,,,,128,0,1,,,,0,,,48,0
1169408,set_tempo,,,,,1024,1,0,,923076,,,,,,
1169408,note_off,,,,,0,0,1,,,,0,,,51,0
1169451,control_change,,,,,43,0,1,,,,0,64,0,,
1169592,control_change,,,,,141,0,1,,,,0,64,127,,
1169749,set_tempo,,,,,341,1,0,,857142,,,,,,
1169749,note_on,,,,,157,0,1,,,,0,,,53,26
1169789,note_off,,,,,40,0,1,,,,0,,,46,0
1169789,note_off,,,,,0,0,1,,,,0,,,51,0
1169789,note_off,,,,,0,0,1,,,,0,,,55,0
1170091,note_on,,,,,302,0,1,,,,0,,,46,13
1170091,note_on,,,,,0,0,1,,,,0,,,55,26
1170091,note_on,,,,,0,0,1,,,,0,,,39,13
1170091,note_off,,,,,0,0,1,,,,0,,,39,0
1170091,note_on,,,,,0,0,1,,,,0,,,51,13
1170123,control_change,,,,,32,0,1,,,,0,64,0,,
1170131,note_off,,,,,8,0,1,,,,0,,,53,0
1170432,control_change,,,,,301,0,1,,,,0,64,0,,
1170432,control_change,,,,,0,0,1,,,,0,64,0,,
1170432,note_on,,,,,0,0,1,,,,0,,,56,29
1170432,note_on,,,,,0,0,1,,,,0,,,32,25
1170432,set_tempo,,,,,683,1,0,,923076,,,,,,
1170432,note_off,,,,,0,0,1,,,,0,,,39,0
1170472,note_off,,,,,40,0,1,,,,0,,,46,0
1170472,note_off,,,,,0,0,1,,,,0,,,55,0
1170472,note_off,,,,,0,0,1,,,,0,,,51,0
1170575,control_change,,,,,103,0,1,,,,0,64,127,,
1170773,set_tempo,,,,,341,1,0,,857142,,,,,,
1170773,note_off,,,,,198,0,1,,,,0,,,56,0
1170773,note_on,,,,,0,0,1,,,,0,,,51,22
1170773,note_on,,,,,0,0,1,,,,0,,,39,22
1170773,note_off,,,,,0,0,1,,,,0,,,32,0
1171115,note_off,,,,,342,0,1,,,,0,,,51,0
1171115,note_on,,,,,0,0,1,,,,0,,,48,21
1171115,note_on,,,,,0,0,1,,,,0,,,44,21
1171115,note_off,,,,,0,0,1,,,,0,,,39,0
1171456,set_tempo,,,,,683,1,0,,923076,,,,,,
1171456,control_change,,,,,341,0,1,,,,0,64,0,,
1171456,note_on,,,,,0,0,1,,,,0,,,56,26
1171456,note_on,,,,,0,0,1,,,,0,,,37,22
1171456,note_off,,,,,0,0,1,,,,0,,,48,0
1171647,control_change,,,,,191,0,1,,,,0,64,127,,
1171797,note_off,,,,,150,0,1,,,,0,,,56,0
1171797,note_on,,,,,0,0,1,,,,0,,,52,19
1171797,note_on,,,,,0,0,1,,,,0,,,40,19
1171797,note_off,,,,,0,0,1,,,,0,,,37,0
1171797,note_off,,,,,0,0,1,,,,0,,,44,0
1172139,note_on,,,,,0,0,1,,,,0,,,44,18
1172139,note_off,,,,,342,0,1,,,,0,,,52,0
1172139,note_off,,,,,0,0,1,,,,0,,,40,0
1172139,note_on,,,,,0,0,1,,,,0,,,49,18
1172480,control_change,,,,,341,0,1,,,,0,64,0,,
1172480,control_change,,,,,0,0,1,,,,0,64,0,,
1172480,control_change,,,,,0,0,1,,,,0,64,0,,
1172480,note_off,,,,,0,0,1,,,,0,,,49,0
1172480,note_on,,,,,0,0,1,,,,0,,,56,24
1172480,note_on,,,,,0,0,1,,,,0,,,39,20
1172480,set_tempo,,,,,1024,1,0,,1000000,,,,,,
1172623,control_change,,,,,143,0,1,,,,0,64,127,,
1172821,note_off,,,,,198,0,1,,,,0,,,56,0
1172821,note_on,,,,,0,0,1,,,,0,,,51,17
1172821,note_on,,,,,0,0,1,,,,0,,,44,17
1172821,note_off,,,,,0,0,1,,,,0,,,39,0
1172821,note_off,,,,,0,0,1,,,,0,,,44,0
1173163,note_on,,,,,0,0,1,,,,0,,,39,16
1173163,note_off,,,,,0,0,1,,,,0,,,44,0
1173163,note_on,,,,,342,0,1,,,,0,,,48,16
1173504,note_on,,,,,0,0,1,,,,0,,,39,15
1173504,note_off,,,,,0,0,1,,,,0,,,39,0
1173504,note_off,,,,,0,0,1,,,,0,,,48,0
1173504,control_change,,,,,341,0,1,,,,0,64,0,,
1173504,note_on,,,,,0,0,1,,,,0,,,55,21
1173504,set_tempo,,,,,1024,1,0,,1200000,,,,,,
1173695,control_change,,,,,191,0,1,,,,0,64,127,,
1173845,note_off,,,,,150,0,1,,,,0,,,51,0
1173845,set_tempo,,,,,341,1,0,,1333333,,,,,,
1173845,note_on,,,,,0,0,1,,,,0,,,43,10
1173845,note_off,,,,,0,0,1,,,,0,,,55,0
1173845,note_off,,,,,0,0,1,,,,0,,,39,0
1173845,note_on,,,,,0,0,1,,,,0,,,51,14
1174187,note_off,,,,,0,0,1,,,,0,,,43,0
1174187,note_on,,,,,0,0,1,,,,0,,,39,9
1174187,note_on,,,,,0,0,1,,,,0,,,46,13
1174187,note_off,,,,,342,0,1,,,,0,,,51,0
1174528,note_off,,,,,0,0,1,,,,0,,,39,0
1174528,control_change,,,,,0,0,1,,,,0,64,0,,
1174528,note_off,,,,,0,0,1,,,,0,,,46,0
1174528,control_change,,,,,341,0,1,,,,0,64,0,,
1176576,control_change,,,,,0,0,1,,,,0,64,0,,
1176576,control_change,,,,,2048,0,1,,,,0,64,0,,
1176576,note_on,,,,,0,0,1,,,,0,,,35,18
1176576,set_tempo,,,,,2731,1,0,,923076,,,,,,
1176576,note_on,,,,,0,0,1,,,,0,,,68,24
1176771,control_change,,,,,195,0,1,,,,0,64,127,,
1176917,note_on,,,,,0,0,1,,,,0,,,63,17
1176917,note_on,,,,,0,0,1,,,,0,,,44,14
1176917,note_off,,,,,0,0,1,,,,0,,,35,0
1176917,note_off,,,,,146,0,1,,,,0,,,68,0
1176917,set_tempo,,,,,341,1,0,,750000,,,,,,
1177259,note_on,,,,,342,0,1,,,,0,,,56,15
1177259,note_on,,,,,0,0,1,,,,0,,,47,14
1177600,note_on,,,,,0,0,1,,,,0,,,68,27
1177600,set_tempo,,,,,683,1,0,,1000000,,,,,,
1177600,control_change,,,,,341,0,1,,,,0,64,0,,
1177600,note_off,,,,,0,0,1,,,,0,,,63,0
1177600,note_off,,,,,0,0,1,,,,0,,,47,0
1177600,note_on,,,,,0,0,1,,,,0,,,37,20
1177819,control_change,,,,,219,0,1,,,,0,64,127,,
1177941,note_off,,,,,0,0,1,,,,0,,,44,0
1177941,note_off,,,,,0,0,1,,,,0,,,37,0
1177941,note_off,,,,,0,0,1,,,,0,,,68,0
1177941,note_on,,,,,0,0,1,,,,0,,,64,19
1177941,note_on,,,,,0,0,1,,,,0,,,44,15
1177941,set_tempo,,,,,341,1,0,,750000,,,,,,
1177941,note_off,,,,,122,0,1,,,,0,,,56,0
1178283,note_on,,,,,0,0,1,,,,0,,,49,15
1178283,note_on,,,,,0,0,1,,,,0,,,56,17
1178283,note_off,,,,,342,0,1,,,,0,,,64,0
1178624,control_change,,,,,341,0,1,,,,0,64,0,,
1178624,control_change,,,,,0,0,1,,,,0,64,127,,
1178624,note_on,,,,,0,0,1,,,,0,,,68,30
1178624,note_on,,,,,0,0,1,,,,0,,,37,17
1178746,control_change,,,,,122,0,1,,,,0,64,0,,
1178917,control_change,,,,,171,0,1,,,,0,64,127,,
1178965,note_on,,,,,0,0,1,,,,0,,,64,21
1178965,note_off,,,,,48,0,1,,,,0,,,56,0
1178965,note_off,,,,,0,0,1,,,,0,,,68,0
1178965,note_off,,,,,0,0,1,,,,0,,,37,0
1178965,note_off,,,,,0,0,1,,,,0,,,44,0
1178965,note_off,,,,,0,0,1,,,,0,,,49,0
1178965,note_on,,,,,0,0,1,,,,0,,,44,17
1179307,note_off,,,,,342,0,1,,,,0,,,64,0
1179307,note_on,,,,,0,0,1,,,,0,,,49,18
1179307,note_on,,,,,0,0,1,,,,0,,,56,19
1179648,note_on,,,,,0,0,1,,,,0,,,68,32
1179648,note_off,,,,,0,0,1,,,,0,,,49,0
1179648,note_on,,,,,0,0,1,,,,0,,,35,24
1179648,control_change,,,,,341,0,1,,,,0,64,0,,
1179843,control_change,,,,,195,0,1,,,,0,64,127,,
1179989,note_off,,,,,0,0,1,,,,0,,,44,0
1179989,note_off,,,,,146,0,1,,,,0,,,56,0
1179989,note_off,,,,,0,0,1,,,,0,,,68,0
1179989,note_off,,,,,0,0,1,,,,0,,,35,0
1179989,note_on,,,,,0,0,1,,,,0,,,63,24
1179989,note_on,,,,,0,0,1,,,,0,,,44,18
1180331,note_off,,,,,342,0,1,,,,0,,,63,0
1180331,note_on,,,,,0,0,1,,,,0,,,56,20
1180331,note_on,,,,,0,0,1,,,,0,,,47,19
1180672,note_on,,,,,0,0,1,,,,0,,,34,26
1180672,note_on,,,,,0,0,1,,,,0,,,68,35
1180672,note_off,,,,,0,0,1,,,,0,,,47,0
1180672,control_change,,,,,341,0,1,,,,0,64,0,,
1180672,control_change,,,,,0,0,1,,,,0,64,127,,
1180672,control_change,,,,,0,0,1,,,,0,64,0,,
1180794,control_change,,,,,122,0,1,,,,0,64,0,,
1180965,control_change,,,,,171,0,1,,,,0,64,127,,
1181013,note_off,,,,,0,0,1,,,,0,,,44,0
1181013,note_on,,,,,0,0,1,,,,0,,,41,21
1181013,note_off,,,,,0,0,1,,,,0,,,34,0
1181013,note_on,,,,,0,0,1,,,,0,,,62,26
1181013,note_off,,,,,48,0,1,,,,0,,,56,0
1181013,note_off,,,,,0,0,1,,,,0,,,68,0
1181355,note_off,,,,,342,0,1,,,,0,,,62,0
1181355,note_on,,,,,0,0,1,,,,0,,,56,24
1181355,note_on,,,,,0,0,1,,,,0,,,46,22
1181696,control_change,,,,,341,0,1,,,,0,64,0,,
1181696,note_on,,,,,0,0,1,,,,0,,,70,41
1181696,note_on,,,,,0,0,1,,,,0,,,34,24
1181891,control_change,,,,,195,0,1,,,,0,64,127,,
1182037,set_tempo,,,,,4096,1,0,,857142,,,,,,
1182037,note_on,,,,,0,0,1,,,,0,,,41,25
1182037,note_on,,,,,0,0,1,,,,0,,,62,31
1182037,note_off,,,,,0,0,1,,,,0,,,46,0
1182037,note_off,,,,,0,0,1,,,,0,,,70,0
1182037,note_off,,,,,0,0,1,,,,0,,,34,0
1182037,note_off,,,,,146,0,1,,,,0,,,56,0
1182037,note_off,,,,,0,0,1,,,,0,,,41,0
1182379,set_tempo,,,,,342,1,0,,923076,,,,,,
1182379,note_off,,,,,342,0,1,,,,0,,,62,0
1182379,note_on,,,,,0,0,1,,,,0,,,56,26
1182379,note_on,,,,,0,0,1,,,,0,,,46,27
1182720,note_on,,,,,0,0,1,,,,0,,,34,28
1182720,note_on,,,,,0,0,1,,,,0,,,71,53
1182720,control_change,,,,,341,0,1,,,,0,64,0,,
1182720,control_change,,,,,0,0,1,,,,0,64,127,,
1182720,set_tempo,,,,,341,1,0,,1200000,,,,,,
1182720,control_change,,,,,0,0,1,,,,0,64,0,,
1182842,control_change,,,,,122,0,1,,,,0,64,0,,
1183013,control_change,,,,,171,0,1,,,,0,64,127,,
1183061,note_on,,,,,0,0,1,,,,0,,,41,19
1183061,note_on,,,,,0,0,1,,,,0,,,62,33
1183061,set_tempo,,,,,341,1,0,,1000000,,,,,,
1183061,note_off,,,,,0,0,1,,,,0,,,34,0
1183061,note_off,,,,,0,0,1,,,,0,,,71,0
1183061,note_off,,,,,48,0,1,,,,0,,,56,0
1183061,note_off,,,,,0,0,1,,,,0,,,41,0
1183403,note_on,,,,,342,0,1,,,,0,,,56,25
1183403,note_off,,,,,0,0,1,,,,0,,,46,0
1183403,note_on,,,,,0,0,1,,,,0,,,46,15
1183403,set_tempo,,,,,342,1,0,,1090909,,,,,,
1183744,control_change,,,,,341,0,1,,,,0,64,0,,
1183744,note_on,,,,,0,0,1,,,,0,,,70,37
1183744,note_on,,,,,0,0,1,,,,0,,,34,20
1183744,set_tempo,,,,,341,1,0,,1333333,,,,,,
1183939,control_change,,,,,195,0,1,,,,0,64,127,,
1184085,set_tempo,,,,,341,1,0,,2000000,,,,,,
1184085,note_on,,,,,0,0,1,,,,0,,,41,12
1184085,note_off,,,,,0,0,1,,,,0,,,41,0
1184085,note_off,,,,,0,0,1,,,,0,,,34,0
1184085,note_off,,,,,0,0,1,,,,0,,,62,0
1184085,note_off,,,,,146,0,1,,,,0,,,56,0
1184085,note_on,,,,,0,0,1,,,,0,,,62,19
1184085,note_off,,,,,0,0,1,,,,0,,,70,0
1184427,note_off,,,,,342,0,1,,,,0,,,62,0
1184427,note_on,,,,,0,0,1,,,,0,,,56,10
1184427,note_on,,,,,0,0,1,,,,0,,,46,6
1184427,note_off,,,,,0,0,1,,,,0,,,46,0
1184427,set_tempo,,,,,342,1,0,,1500000,,,,,,
1184768,control_change,,,,,341,0,1,,,,0,64,0,,
1184768,control_change,,,,,0,0,1,,,,0,64,127,,
1184768,note_off,,,,,0,0,1,,,,0,,,41,0
1184768,note_off,,,,,0,0,1,,,,0,,,46,0
1184768,note_off,,,,,0,0,1,,,,0,,,56,0
1184768,time_signature,2,2,48,8,341,1,0,,,,,,,,
1184768,key_signature,,,,,0,1,0,Ebm,,,,,,,
1184932,control_change,,,,,164,0,1,,,,0,64,0,,
1185205,control_change,,,,,273,0,1,,,,0,64,127,,
1187717,control_change,,,,,2512,0,1,,,,0,64,0,,
1188608,note_on,,,,,0,0,1,,,,0,,,70,39
1188608,note_on,,,,,891,0,1,,,,0,,,58,27
1188608,set_tempo,,,,,3840,1,0,,375000,,,,,,
1188864,note_on,,,,,0,0,1,,,,0,,,58,30
1188864,note_on,,,,,0,0,1,,,,0,,,39,26
1188864,set_tempo,,,,,0,1,0,,333333,,,,,,
1188864,time_signature,2,4,24,8,256,1,0,,,,,,,,
1188864,note_off,,,,,0,0,1,,,,0,,,70,0
1188864,control_change,,,,,256,0,1,,,,0,64,0,,
1188864,control_change,,,,,0,0,1,,,,0,64,0,,
1188864,note_on,,,,,0,0,1,,,,0,,,70,42
1188864,note_off,,,,,0,0,1,,,,0,,,58,0
1189153,control_change,,,,,289,0,1,,,,0,64,127,,
1189205,note_on,,,,,52,0,1,,,,0,,,46,23
1189547,note_on,,,,,342,0,1,,,,0,,,51,23
1189888,note_on,,,,,0,0,1,,,,0,,,39,23
1189888,note_off,,,,,0,0,1,,,,0,,,51,0
1189888,note_off,,,,,0,0,1,,,,0,,,46,0
1189888,note_off,,,,,0,0,1,,,,0,,,39,0
1189888,note_on,,,,,0,0,1,,,,0,,,66,38
1189888,note_off,,,,,341,0,1,,,,0,,,58,0
1189888,note_off,,,,,0,0,1,,,,0,,,70,0
1189914,control_change,,,,,26,0,1,,,,0,64,0,,
1190124,control_change,,,,,210,0,1,,,,0,64,0,,
1190229,note_on,,,,,105,0,1,,,,0,,,46,23
1190361,control_change,,,,,132,0,1,,,,0,64,127,,
1190400,note_off,,,,,39,0,1,,,,0,,,66,0
1190571,note_on,,,,,171,0,1,,,,0,,,51,23
1190656,note_on,,,,,85,0,1,,,,0,,,58,25
1190656,note_on,,,,,0,0,1,,,,0,,,70,37
1190656,set_tempo,,,,,1792,1,0,,375000,,,,,,
1190702,control_change,,,,,46,0,1,,,,0,64,0,,
1190912,note_off,,,,,0,0,1,,,,0,,,46,0
1190912,note_on,,,,,0,0,1,,,,0,,,70,44
1190912,note_on,,,,,0,0,1,,,,0,,,58,32
1190912,note_on,,,,,0,0,1,,,,0,,,38,28
1190912,note_off,,,,,0,0,1,,,,0,,,39,0
1190912,note_off,,,,,0,0,1,,,,0,,,51,0
1190912,note_off,,,,,0,0,1,,,,0,,,58,0
1190912,note_off,,,,,0,0,1,,,,0,,,70,0
1190912,set_tempo,,,,,256,1,0,,333333,,,,,,
1190912,control_change,,,,,210,0,1,,,,0,64,0,,
1190912,control_change,,,,,0,0,1,,,,0,64,0,,
1190912,control_change,,,,,0,0,1,,,,0,64,0,,
1191201,control_change,,,,,289,0,1,,,,0,64,127,,
1191253,note_on,,,,,52,0,1,,,,0,,,46,24
1191595,note_on,,,,,342,0,1,,,,0,,,50,24
1191936,note_off,,,,,341,0,1,,,,0,,,58,0
1191936,note_off,,,,,0,0,1,,,,0,,,70,0
1191936,note_off,,,,,0,0,1,,,,0,,,38,0
1191936,note_off,,,,,0,0,1,,,,0,,,46,0
1191936,note_off,,,,,0,0,1,,,,0,,,50,0
1191936,note_on,,,,,0,0,1,,,,0,,,65,40
1191936,note_on,,,,,0,0,1,,,,0,,,38,24
1191962,control_change,,,,,26,0,1,,,,0,64,0,,
1192172,control_change,,,,,210,0,1,,,,0,64,0,,
1192277,note_on,,,,,105,0,1,,,,0,,,46,25
1192409,control_change,,,,,132,0,1,,,,0,64,127,,
1192448,note_off,,,,,39,0,1,,,,0,,,65,0
1192619,note_on,,,,,171,0,1,,,,0,,,50,25
1192704,note_on,,,,,85,0,1,,,,0,,,70,39
1192750,control_change,,,,,46,0,1,,,,0,64,0,,
1192960,control_change,,,,,210,0,1,,,,0,64,0,,
1192960,control_change,,,,,0,0,1,,,,0,64,0,,
1192960,note_off,,,,,0,0,1,,,,0,,,70,0
1192960,note_off,,,,,0,0,1,,,,0,,,38,0
1192960,note_off,,,,,0,0,1,,,,0,,,46,0
1192960,note_off,,,,,0,0,1,,,,0,,,50,0
1192960,note_on,,,,,0,0,1,,,,0,,,58,34
1192960,note_on,,,,,0,0,1,,,,0,,,68,46
1192960,note_on,,,,,0,0,1,,,,0,,,41,33
1192960,set_tempo,,,,,2048,1,0,,333333,,,,,,
1193122,control_change,,,,,162,0,1,,,,0,64,127,,
1193301,note_on,,,,,179,0,1,,,,0,,,46,29
1193643,note_on,,,,,342,0,1,,,,0,,,53,29
1193728,note_on,,,,,0,0,1,,,,0,,,70,44
1193728,note_off,,,,,0,0,1,,,,0,,,68,0
1193728,note_off,,,,,85,0,1,,,,0,,,58,0
1193984,note_off,,,,,256,0,1,,,,0,,,70,0
1193984,note_on,,,,,0,0,1,,,,0,,,68,48
1193984,note_on,,,,,0,0,1,,,,0,,,41,30
1193984,note_off,,,,,0,0,1,,,,0,,,41,0
1193984,note_off,,,,,0,0,1,,,,0,,,46,0
1193984,note_off,,,,,0,0,1,,,,0,,,53,0
1193984,note_on,,,,,0,0,1,,,,0,,,58,35
1193984,set_tempo,,,,,1024,1,0,,333333,,,,,,
1194325,note_on,,,,,341,0,1,,,,0,,,46,30
1194667,note_on,,,,,342,0,1,,,,0,,,53,30
1194752,note_off,,,,,0,0,1,,,,0,,,68,0
1194752,note_on,,,,,0,0,1,,,,0,,,70,45
1194752,note_off,,,,,85,0,1,,,,0,,,58,0
1194846,control_change,,,,,94,0,1,,,,0,64,0,,
1195008,set_tempo,,,,,1024,1,0,,333333,,,,,,
1195008,note_on,,,,,0,0,1,,,,0,,,39,35
1195008,note_on,,,,,0,0,1,,,,0,,,66,49
1195008,note_off,,,,,0,0,1,,,,0,,,70,0
1195008,note_off,,,,,0,0,1,,,,0,,,53,0
1195008,note_off,,,,,0,0,1,,,,0,,,46,0
1195008,note_on,,,,,0,0,1,,,,0,,,58,36
1195008,note_off,,,,,0,0,1,,,,0,,,41,0
1195008,control_change,,,,,0,0,1,,,,0,64,0,,
1195008,control_change,,,,,162,0,1,,,,0,64,0,,
1195216,control_change,,,,,208,0,1,,,,0,64,127,,
1195349,note_on,,,,,133,0,1,,,,0,,,46,31
1195691,note_on,,,,,342,0,1,,,,0,,,51,31
1196032,note_off,,,,,341,0,1,,,,0,,,58,0
1196032,note_off,,,,,0,0,1,,,,0,,,66,0
1196032,note_off,,,,,0,0,1,,,,0,,,39,0
1196032,note_off,,,,,0,0,1,,,,0,,,46,0
1196032,note_off,,,,,0,0,1,,,,0,,,51,0
1196032,note_on,,,,,0,0,1,,,,0,,,39,31
1196077,control_change,,,,,45,0,1,,,,0,64,0,,
1196373,note_on,,,,,296,0,1,,,,0,,,46,31
1196403,control_change,,,,,30,0,1,,,,0,64,127,,
1196715,note_on,,,,,312,0,1,,,,0,,,51,31
1196800,note_on,,,,,85,0,1,,,,0,,,58,34
1196800,set_tempo,,,,,1792,1,0,,375000,,,,,,
1196800,note_on,,,,,0,0,1,,,,0,,,70,47
1196967,control_change,,,,,167,0,1,,,,0,64,0,,
1197056,set_tempo,,,,,256,1,0,,333333,,,,,,
1197056,note_on,,,,,0,0,1,,,,0,,,42,36
1197056,note_on,,,,,0,0,1,,,,0,,,70,55
1197056,note_off,,,,,0,0,1,,,,0,,,39,0
1197056,note_off,,,,,0,0,1,,,,0,,,51,0
1197056,control_change,,,,,89,0,1,,,,0,64,0,,
1197056,note_on,,,,,0,0,1,,,,0,,,58,41
1197056,note_off,,,,,0,0,1,,,,0,,,58,0
1197056,note_off,,,,,0,0,1,,,,0,,,70,0
1197056,note_off,,,,,0,0,1,,,,0,,,46,0
1197056,control_change,,,,,0,0,1,,,,0,64,0,,
1197264,control_change,,,,,208,0,1,,,,0,64,127,,
1197397,note_on,,,,,133,0,1,,,,0,,,46,32
1197568,note_off,,,,,171,0,1,,,,0,,,58,0
1197568,note_off,,,,,0,0,1,,,,0,,,70,0
1197568,set_tempo,,,,,512,1,0,,375000,,,,,,
1197650,control_change,,,,,82,0,1,,,,0,64,0,,
1197739,note_on,,,,,89,0,1,,,,0,,,51,32
1198080,set_tempo,,,,,512,1,0,,333333,,,,,,
1198080,note_on,,,,,341,0,1,,,,0,,,66,44
1198080,note_off,,,,,0,0,1,,,,0,,,51,0
1198080,note_off,,,,,0,0,1,,,,0,,,46,0
1198080,note_off,,,,,0,0,1,,,,0,,,42,0
1198080,note_on,,,,,0,0,1,,,,0,,,42,32
1198080,note_on,,,,,0,0,1,,,,0,,,78,58
1198273,control_change,,,,,193,0,1,,,,0,64,127,,
1198421,note_on,,,,,148,0,1,,,,0,,,46,33
1198763,note_on,,,,,342,0,1,,,,0,,,51,33
1199104,note_on,,,,,0,0,1,,,,0,,,44,38
1199104,note_off,,,,,0,0,1,,,,0,,,51,0
1199104,control_change,,,,,0,0,1,,,,0,64,127,,
1199104,note_off,,,,,0,0,1,,,,0,,,42,0
1199104,control_change,,,,,341,0,1,,,,0,64,0,,
1199104,note_off,,,,,0,0,1,,,,0,,,46,0
1199312,control_change,,,,,208,0,1,,,,0,64,0,,
1199445,note_on,,,,,133,0,1,,,,0,,,47,33
1199549,control_change,,,,,104,0,1,,,,0,64,127,,
1199787,note_on,,,,,238,0,1,,,,0,,,53,33
1200128,note_off,,,,,341,0,1,,,,0,,,66,0
1200128,note_off,,,,,0,0,1,,,,0,,,78,0
1200128,note_off,,,,,0,0,1,,,,0,,,44,0
1200128,note_off,,,,,0,0,1,,,,0,,,53,0
1200128,note_on,,,,,0,0,1,,,,0,,,65,39
1200128,note_on,,,,,0,0,1,,,,0,,,77,53
1200128,note_on,,,,,0,0,1,,,,0,,,44,33
1200128,note_off,,,,,0,0,1,,,,0,,,47,0
1200173,control_change,,,,,45,0,1,,,,0,64,0,,
1200469,note_on,,,,,296,0,1,,,,0,,,47,33
1200656,note_off,,,,,187,0,1,,,,0,,,65,0
1200656,note_off,,,,,0,0,1,,,,0,,,77,0
1200811,note_on,,,,,155,0,1,,,,0,,,53,33
1200896,note_on,,,,,85,0,1,,,,0,,,63,35
1200896,note_on,,,,,0,0,1,,,,0,,,75,49
1200896,set_tempo,,,,,2816,1,0,,375000,,,,,,
1200983,note_off,,,,,0,0,1,,,,0,,,75,0
1200983,note_off,,,,,87,0,1,,,,0,,,63,0
1201152,note_off,,,,,0,0,1,,,,0,,,47,0
1201152,note_off,,,,,0,0,1,,,,0,,,44,0
1201152,note_on,,,,,0,0,1,,,,0,,,62,43
1201152,control_change,,,,,169,0,1,,,,0,64,0,,
1201152,note_on,,,,,0,0,1,,,,0,,,74,57
1201152,note_on,,,,,0,0,1,,,,0,,,46,38
1201152,set_tempo,,,,,256,1,0,,333333,,,,,,
1201152,note_off,,,,,0,0,1,,,,0,,,53,0
1201152,control_change,,,,,0,0,1,,,,0,64,0,,
1201493,note_on,,,,,341,0,1,,,,0,,,53,33
1201520,note_off,,,,,27,0,1,,,,0,,,62,0
1201520,note_off,,,,,0,0,1,,,,0,,,74,0
1201835,note_on,,,,,315,0,1,,,,0,,,56,33
1201920,set_tempo,,,,,768,1,0,,375000,,,,,,
1201920,note_on,,,,,85,0,1,,,,0,,,65,35
1201920,note_on,,,,,0,0,1,,,,0,,,77,49
1202007,note_off,,,,,87,0,1,,,,0,,,65,0
1202007,note_off,,,,,0,0,1,,,,0,,,77,0
1202176,note_off,,,,,0,0,1,,,,0,,,56,0
1202176,set_tempo,,,,,256,1,0,,333333,,,,,,
1202176,note_on,,,,,169,0,1,,,,0,,,62,39
1202176,note_on,,,,,0,0,1,,,,0,,,74,53
1202176,note_on,,,,,0,0,1,,,,0,,,46,33
1202176,note_off,,,,,0,0,1,,,,0,,,46,0
1202176,note_off,,,,,0,0,1,,,,0,,,53,0
1202517,note_on,,,,,341,0,1,,,,0,,,53,33
1202704,note_off,,,,,0,0,1,,,,0,,,74,0
1202704,note_off,,,,,187,0,1,,,,0,,,62,0
1202859,note_on,,,,,155,0,1,,,,0,,,56,33
1202944,note_on,,,,,85,0,1,,,,0,,,65,35
1202944,set_tempo,,,,,768,1,0,,375000,,,,,,
1202944,note_on,,,,,0,0,1,,,,0,,,77,49
1203031,note_off,,,,,87,0,1,,,,0,,,65,0
1203031,note_off,,,,,0,0,1,,,,0,,,77,0
1203200,set_tempo,,,,,256,1,0,,333333,,,,,,
1203200,note_on,,,,,0,0,1,,,,0,,,39,50
1203200,note_on,,,,,0,0,1,,,,0,,,75,53
1203200,note_on,,,,,0,0,1,,,,0,,,63,39
1203200,note_off,,,,,0,0,1,,,,0,,,53,0
1203200,note_off,,,,,0,0,1,,,,0,,,46,0
1203200,control_change,,,,,0,0,1,,,,0,64,0,,
1203200,control_change,,,,,169,0,1,,,,0,64,0,,
1203200,note_off,,,,,0,0,1,,,,0,,,56,0
1203541,note_on,,,,,341,0,1,,,,0,,,46,45
1203883,note_on,,,,,342,0,1,,,,0,,,51,45
1204224,note_off,,,,,0,0,1,,,,0,,,46,0
1204224,note_off,,,,,0,0,1,,,,0,,,39,0
1204224,note_on,,,,,0,0,1,,,,0,,,39,45
1204224,note_off,,,,,0,0,1,,,,0,,,51,0
1204224,note_off,,,,,341,0,1,,,,0,,,63,0
1204224,note_off,,,,,0,0,1,,,,0,,,75,0
1204565,note_on,,,,,341,0,1,,,,0,,,46,45
1204907,note_on,,,,,342,0,1,,,,0,,,51,45
1204992,set_tempo,,,,,1792,1,0,,375000,,,,,,
1204992,note_on,,,,,85,0,1,,,,0,,,70,54
1204992,note_on,,,,,0,0,1,,,,0,,,82,66
1205248,control_change,,,,,0,0,1,,,,0,64,0,,
1205248,note_off,,,,,0,0,1,,,,0,,,51,0
1205248,note_off,,,,,0,0,1,,,,0,,,46,0
1205248,note_off,,,,,0,0,1,,,,0,,,39,0
1205248,note_off,,,,,0,0,1,,,,0,,,82,0
1205248,note_off,,,,,0,0,1,,,,0,,,70,0
1205248,control_change,,,,,256,0,1,,,,0,64,0,,
1205248,control_change,,,,,0,0,1,,,,0,64,0,,
1205248,note_on,,,,,0,0,1,,,,0,,,70,58
1205248,set_tempo,,,,,256,1,0,,333333,,,,,,
1205248,note_on,,,,,0,0,1,,,,0,,,39,62
1205248,note_on,,,,,0,0,1,,,,0,,,82,72
1205537,control_change,,,,,289,0,1,,,,0,64,127,,
1205589,note_on,,,,,52,0,1,,,,0,,,46,50
1205931,note_on,,,,,342,0,1,,,,0,,,51,50
1206272,note_on,,,,,0,0,1,,,,0,,,78,66
1206272,note_on,,,,,0,0,1,,,,0,,,39,50
1206272,note_off,,,,,0,0,1,,,,0,,,51,0
1206272,note_off,,,,,0,0,1,,,,0,,,39,0
1206272,note_off,,,,,0,0,1,,,,0,,,46,0
1206272,note_off,,,,,341,0,1,,,,0,,,70,0
1206272,note_off,,,,,0,0,1,,,,0,,,82,0
1206298,control_change,,,,,26,0,1,,,,0,64,0,,
1206508,control_change,,,,,210,0,1,,,,0,64,0,,
1206613,note_on,,,,,105,0,1,,,,0,,,46,50
1206745,control_change,,,,,132,0,1,,,,0,64,127,,
1206784,note_off,,,,,39,0,1,,,,0,,,78,0
1206955,note_on,,,,,171,0,1,,,,0,,,51,50
1207040,note_on,,,,,0,0,1,,,,0,,,82,64
1207040,note_on,,,,,85,0,1,,,,0,,,70,50
1207040,set_tempo,,,,,1792,1,0,,375000,,,,,,
1207086,control_change,,,,,46,0,1,,,,0,64,0,,
1207296,set_tempo,,,,,256,1,0,,333333,,,,,,
1207296,note_off,,,,,0,0,1,,,,0,,,39,0
1207296,control_change,,,,,210,0,1,,,,0,64,0,,
1207296,control_change,,,,,0,0,1,,,,0,64,0,,
1207296,control_change,,,,,0,0,1,,,,0,64,0,,
1207296,control_change,,,,,0,0,1,,,,0,64,0,,
1207296,note_off,,,,,0,0,1,,,,0,,,70,0
1207296,note_off,,,,,0,0,1,,,,0,,,82,0
1207296,note_off,,,,,0,0,1,,,,0,,,51,0
1207296,note_off,,,,,0,0,1,,,,0,,,46,0
1207296,note_on,,,,,0,0,1,,,,0,,,82,72
1207296,note_on,,,,,0,0,1,,,,0,,,38,62
1207296,note_on,,,,,0,0,1,,,,0,,,70,58
1207585,control_change,,,,,289,0,1,,,,0,64,127,,
1207637,note_on,,,,,52,0,1,,,,0,,,46,50
1207979,note_on,,,,,342,0,1,,,,0,,,50,50
1208213,control_change,,,,,234,0,1,,,,0,64,127,,
1208320,note_on,,,,,0,0,1,,,,0,,,38,50
1208320,note_on,,,,,0,0,1,,,,0,,,77,66
1208320,note_off,,,,,0,0,1,,,,0,,,46,0
1208320,note_off,,,,,0,0,1,,,,0,,,50,0
1208320,note_off,,,,,0,0,1,,,,0,,,82,0
1208320,note_off,,,,,107,0,1,,,,0,,,70,0
1208320,note_off,,,,,0,0,1,,,,0,,,38,0
1208556,control_change,,,,,236,0,1,,,,0,64,0,,
1208661,note_on,,,,,105,0,1,,,,0,,,46,50
1208793,control_change,,,,,132,0,1,,,,0,64,127,,
1208832,note_off,,,,,39,0,1,,,,0,,,77,0
1209003,note_on,,,,,171,0,1,,,,0,,,50,50
1209088,note_on,,,,,85,0,1,,,,0,,,82,64
1209134,control_change,,,,,46,0,1,,,,0,64,0,,
1209344,note_on,,,,,0,0,1,,,,0,,,70,58
1209344,note_on,,,,,0,0,1,,,,0,,,80,72
1209344,control_change,,,,,0,0,1,,,,0,64,0,,
1209344,note_off,,,,,0,0,1,,,,0,,,50,0
1209344,note_on,,,,,0,0,1,,,,0,,,41,62
1209344,note_off,,,,,0,0,1,,,,0,,,46,0
1209344,set_tempo,,,,,2048,1,0,,333333,,,,,,
1209344,note_off,,,,,0,0,1,,,,0,,,82,0
1209344,control_change,,,,,0,0,1,,,,0,64,0,,
1209344,note_off,,,,,0,0,1,,,,0,,,38,0
1209344,control_change,,,,,210,0,1,,,,0,64,0,,
1209506,control_change,,,,,162,0,1,,,,0,64,127,,
1209685,note_on,,,,,179,0,1,,,,0,,,46,50
1210027,note_on,,,,,342,0,1,,,,0,,,53,50
1210112,note_off,,,,,0,0,1,,,,0,,,80,0
1210112,note_on,,,,,0,0,1,,,,0,,,82,64
1210112,note_off,,,,,85,0,1,,,,0,,,70,0
1210368,set_tempo,,,,,1024,1,0,,333333,,,,,,
1210368,note_off,,,,,256,0,1,,,,0,,,82,0
1210368,note_on,,,,,0,0,1,,,,0,,,70,54
1210368,note_on,,,,,0,0,1,,,,0,,,80,68
1210368,note_on,,,,,0,0,1,,,,0,,,41,50
1210368,note_off,,,,,0,0,1,,,,0,,,53,0
1210368,note_off,,,,,0,0,1,,,,0,,,46,0
1210368,note_off,,,,,0,0,1,,,,0,,,41,0
1210709,note_on,,,,,341,0,1,,,,0,,,46,50
1211051,note_on,,,,,342,0,1,,,,0,,,53,50
1211136,note_off,,,,,0,0,1,,,,0,,,80,0
1211136,note_on,,,,,0,0,1,,,,0,,,82,64
1211136,note_off,,,,,85,0,1,,,,0,,,70,0
1211230,control_change,,,,,94,0,1,,,,0,64,0,,
1211392,note_on,,,,,0,0,1,,,,0,,,39,62
1211392,note_on,,,,,0,0,1,,,,0,,,78,68
1211392,note_on,,,,,0,0,1,,,,0,,,70,54
1211392,note_off,,,,,0,0,1,,,,0,,,46,0
1211392,note_off,,,,,0,0,1,,,,0,,,53,0
1211392,note_off,,,,,0,0,1,,,,0,,,82,0
1211392,control_change,,,,,0,0,1,,,,0,64,0,,
1211392,control_change,,,,,0,0,1,,,,0,64,0,,
1211392,control_change,,,,,162,0,1,,,,0,64,0,,
1211392,note_off,,,,,0,0,1,,,,0,,,41,0
1211392,set_tempo,,,,,1024,1,0,,333333,,,,,,
1211600,control_change,,,,,208,0,1,,,,0,64,127,,
1211733,note_on,,,,,133,0,1,,,,0,,,46,50
1212075,note_on,,,,,342,0,1,,,,0,,,51,50
1212416,note_off,,,,,0,0,1,,,,0,,,51,0
1212416,note_on,,,,,0,0,1,,,,0,,,39,50
1212416,note_off,,,,,0,0,1,,,,0,,,46,0
1212416,note_off,,,,,0,0,1,,,,0,,,78,0
1212416,note_off,,,,,341,0,1,,,,0,,,70,0
1212416,note_off,,,,,0,0,1,,,,0,,,39,0
1212461,control_change,,,,,45,0,1,,,,0,64,0,,
1212757,note_on,,,,,296,0,1,,,,0,,,46,50
1212787,control_change,,,,,30,0,1,,,,0,64,127,,
1213099,note_on,,,,,312,0,1,,,,0,,,51,50
1213184,set_tempo,,,,,1792,1,0,,375000,,,,,,
1213184,note_on,,,,,85,0,1,,,,0,,,70,54
1213184,note_on,,,,,0,0,1,,,,0,,,82,68
1213351,control_change,,,,,167,0,1,,,,0,64,0,,
1213440,control_change,,,,,0,0,1,,,,0,64,0,,
1213440,control_change,,,,,0,0,1,,,,0,64,0,,
1213440,note_off,,,,,0,0,1,,,,0,,,70,0
1213440,note_off,,,,,0,0,1,,,,0,,,82,0
1213440,note_off,,,,,0,0,1,,,,0,,,39,0
1213440,note_off,,,,,0,0,1,,,,0,,,46,0
1213440,note_off,,,,,0,0,1,,,,0,,,51,0
1213440,control_change,,,,,89,0,1,,,,0,64,0,,
1213440,note_on,,,,,0,0,1,,,,0,,,82,76
1213440,note_on,,,,,0,0,1,,,,0,,,42,62
1213440,set_tempo,,,,,256,1,0,,333333,,,,,,
1213440,note_on,,,,,0,0,1,,,,0,,,70,62
1213648,control_change,,,,,208,0,1,,,,0,64,127,,
1213781,note_on,,,,,133,0,1,,,,0,,,46,50
1213952,set_tempo,,,,,512,1,0,,375000,,,,,,
1213952,note_off,,,,,171,0,1,,,,0,,,70,0
1213952,note_off,,,,,0,0,1,,,,0,,,82,0
1214034,control_change,,,,,82,0,1,,,,0,64,0,,
1214123,note_on,,,,,89,0,1,,,,0,,,51,50
1214253,control_change,,,,,130,0,1,,,,0,64,127,,
1214464,note_off,,,,,0,0,1,,,,0,,,51,0
1214464,note_off,,,,,0,0,1,,,,0,,,46,0
1214464,note_on,,,,,0,0,1,,,,0,,,42,50
1214464,note_on,,,,,0,0,1,,,,0,,,90,78
1214464,note_off,,,,,0,0,1,,,,0,,,42,0
1214464,set_tempo,,,,,512,1,0,,333333,,,,,,
1214464,note_on,,,,,211,0,1,,,,0,,,78,64
1214805,note_on,,,,,341,0,1,,,,0,,,46,50
1215147,note_on,,,,,342,0,1,,,,0,,,51,50
1215488,note_off,,,,,0,0,1,,,,0,,,42,0
1215488,control_change,,,,,341,0,1,,,,0,64,0,,
1215488,control_change,,,,,0,0,1,,,,0,64,127,,
1215488,control_change,,,,,0,0,1,,,,0,64,0,,
1215488,note_off,,,,,0,0,1,,,,0,,,46,0
1215488,note_off,,,,,0,0,1,,,,0,,,51,0
1215488,note_on,,,,,0,0,1,,,,0,,,44,62
1215696,control_change,,,,,208,0,1,,,,0,64,0,,
1215829,note_on,,,,,133,0,1,,,,0,,,47,50
1215933,control_change,,,,,104,0,1,,,,0,64,127,,
1216171,note_on,,,,,238,0,1,,,,0,,,53,50
1216512,note_on,,,,,0,0,1,,,,0,,,77,58
1216512,note_on,,,,,0,0,1,,,,0,,,89,72
1216512,note_off,,,,,0,0,1,,,,0,,,53,0
1216512,note_on,,,,,0,0,1,,,,0,,,44,50
1216512,note_off,,,,,0,0,1,,,,0,,,47,0
1216512,note_off,,,,,341,0,1,,,,0,,,78,0
1216512,note_off,,,,,0,0,1,,,,0,,,90,0
1216512,note_off,,,,,0,0,1,,,,0,,,44,0
1216557,control_change,,,,,45,0,1,,,,0,64,0,,
1216853,note_on,,,,,296,0,1,,,,0,,,47,50
1217195,note_on,,,,,342,0,1,,,,0,,,53,50
1217280,set_tempo,,,,,2816,1,0,,375000,,,,,,
1217280,note_off,,,,,85,0,1,,,,0,,,77,0
1217280,note_off,,,,,0,0,1,,,,0,,,89,0
1217280,note_on,,,,,0,0,1,,,,0,,,75,54
1217280,note_on,,,,,0,0,1,,,,0,,,87,68
1217536,note_on,,,,,0,0,1,,,,0,,,46,62
1217536,note_on,,,,,0,0,1,,,,0,,,86,76
1217536,note_on,,,,,0,0,1,,,,0,,,74,62
1217536,note_off,,,,,0,0,1,,,,0,,,53,0
1217536,note_off,,,,,0,0,1,,,,0,,,47,0
1217536,note_off,,,,,0,0,1,,,,0,,,44,0
1217536,note_off,,,,,0,0,1,,,,0,,,87,0
1217536,control_change,,,,,0,0,1,,,,0,64,0,,
1217536,control_change,,,,,0,0,1,,,,0,64,0,,
1217536,control_change,,,,,256,0,1,,,,0,64,0,,
1217536,set_tempo,,,,,256,1,0,,333333,,,,,,
1217536,note_off,,,,,0,0,1,,,,0,,,75,0
1217877,note_on,,,,,341,0,1,,,,0,,,53,50
1218219,note_on,,,,,342,0,1,,,,0,,,56,50
1218304,set_tempo,,,,,768,1,0,,375000,,,,,,
1218304,note_off,,,,,85,0,1,,,,0,,,74,0
1218304,note_off,,,,,0,0,1,,,,0,,,86,0
1218304,note_on,,,,,0,0,1,,,,0,,,77,54
1218304,note_on,,,,,0,0,1,,,,0,,,89,68
1218560,note_off,,,,,256,0,1,,,,0,,,77,0
1218560,note_off,,,,,0,0,1,,,,0,,,89,0
1218560,note_off,,,,,0,0,1,,,,0,,,56,0
1218560,note_off,,,,,0,0,1,,,,0,,,53,0
1218560,note_off,,,,,0,0,1,,,,0,,,46,0
1218560,note_on,,,,,0,0,1,,,,0,,,74,58
1218560,note_on,,,,,0,0,1,,,,0,,,86,72
1218560,note_on,,,,,0,0,1,,,,0,,,46,50
1218560,set_tempo,,,,,256,1,0,,333333,,,,,,
1218901,note_on,,,,,341,0,1,,,,0,,,53,50
1219243,note_on,,,,,342,0,1,,,,0,,,56,50
1219328,note_on,,,,,0,0,1,,,,0,,,89,68
1219328,note_off,,,,,0,0,1,,,,0,,,86,0
1219328,note_off,,,,,85,0,1,,,,0,,,74,0
1219328,set_tempo,,,,,768,1,0,,375000,,,,,,
1219328,note_on,,,,,0,0,1,,,,0,,,77,54
1219584,note_on,,,,,0,0,1,,,,0,,,87,66
1219584,note_on,,,,,0,0,1,,,,0,,,54,53
1219584,note_on,,,,,0,0,1,,,,0,,,51,44
1219584,note_on,,,,,0,0,1,,,,0,,,75,54
1219584,note_off,,,,,0,0,1,,,,0,,,89,0
1219584,note_off,,,,,0,0,1,,,,0,,,53,0
1219584,note_off,,,,,0,0,1,,,,0,,,46,0
1219584,note_off,,,,,0,0,1,,,,0,,,77,0
1219584,control_change,,,,,0,0,1,,,,0,64,0,,
1219584,control_change,,,,,256,0,1,,,,0,64,0,,
1219584,note_off,,,,,0,0,1,,,,0,,,56,0
1220608,note_off,,,,,1024,0,1,,,,0,,,75,0
1220608,note_off,,,,,0,0,1,,,,0,,,87,0
1220608,note_off,,,,,0,0,1,,,,0,,,51,0
1220608,note_off,,,,,0,0,1,,,,0,,,54,0
1221632,note_on,,,,,0,0,1,,,,0,,,39,32
1221632,set_tempo,,,,,2304,1,0,,375000,,,,,,
1221632,control_change,,,,,0,0,1,,,,0,64,0,,
1221632,control_change,,,,,1024,0,1,,,,0,64,0,,
1221632,note_on,,,,,0,0,1,,,,0,,,70,44
1221936,control_change,,,,,304,0,1,,,,0,64,127,,
1221963,control_change,,,,,27,0,1,,,,0,64,127,,
1221963,control_change,,,,,0,0,1,,,,0,64,127,,
1221973,set_tempo,,,,,341,1,0,,333333,,,,,,
1221973,note_on,,,,,10,0,1,,,,0,,,66,43
1221973,note_on,,,,,0,0,1,,,,0,,,46,31
1222315,note_off,,,,,342,0,1,,,,0,,,66,0
1222315,note_off,,,,,0,0,1,,,,0,,,70,0
1222315,note_off,,,,,0,0,1,,,,0,,,39,0
1222315,note_off,,,,,0,0,1,,,,0,,,46,0
1222315,note_on,,,,,0,0,1,,,,0,,,58,42
1222315,note_on,,,,,0,0,1,,,,0,,,51,30
1222656,note_off,,,,,341,0,1,,,,0,,,58,0
1222656,note_on,,,,,0,0,1,,,,0,,,70,51
1222656,note_on,,,,,0,0,1,,,,0,,,39,39
1222656,note_off,,,,,0,0,1,,,,0,,,51,0
1222997,note_off,,,,,0,0,1,,,,0,,,39,0
1222997,note_on,,,,,0,0,1,,,,0,,,46,38
1222997,note_off,,,,,341,0,1,,,,0,,,70,0
1222997,note_on,,,,,0,0,1,,,,0,,,66,50
1223339,note_on,,,,,0,0,1,,,,0,,,58,48
1223339,note_on,,,,,0,0,1,,,,0,,,51,36
1223339,note_off,,,,,0,0,1,,,,0,,,46,0
1223339,note_off,,,,,342,0,1,,,,0,,,66,0
1223680,control_change,,,,,341,0,1,,,,0,64,127,,
1223680,note_on,,,,,0,0,1,,,,0,,,39,45
1223680,control_change,,,,,0,0,1,,,,0,64,127,,
1223680,note_off,,,,,0,0,1,,,,0,,,58,0
1223680,note_off,,,,,0,0,1,,,,0,,,51,0
1223680,note_on,,,,,0,0,1,,,,0,,,70,57
1224021,note_off,,,,,341,0,1,,,,0,,,70,0
1224021,note_on,,,,,0,0,1,,,,0,,,66,57
1224021,note_on,,,,,0,0,1,,,,0,,,46,45
1224021,note_off,,,,,0,0,1,,,,0,,,39,0
1224363,note_on,,,,,0,0,1,,,,0,,,58,53
1224363,note_off,,,,,0,0,1,,,,0,,,46,0
1224363,note_off,,,,,342,0,1,,,,0,,,66,0
1224363,note_on,,,,,0,0,1,,,,0,,,51,41
1224704,note_off,,,,,0,0,1,,,,0,,,51,0
1224704,note_on,,,,,0,0,1,,,,0,,,70,65
1224704,note_off,,,,,341,0,1,,,,0,,,58,0
1224704,note_on,,,,,0,0,1,,,,0,,,39,53
1225045,note_off,,,,,0,0,1,,,,0,,,39,0
1225045,note_off,,,,,341,0,1,,,,0,,,70,0
1225045,note_on,,,,,0,0,1,,,,0,,,66,63
1225045,note_on,,,,,0,0,1,,,,0,,,46,51
1225387,note_off,,,,,342,0,1,,,,0,,,66,0
1225387,note_on,,,,,0,0,1,,,,0,,,58,61
1225387,note_on,,,,,0,0,1,,,,0,,,51,49
1225387,note_off,,,,,0,0,1,,,,0,,,46,0
1225387,set_tempo,,,,,3414,1,0,,600000,,,,,,
1225590,control_change,,,,,203,0,1,,,,0,64,0,,
1225590,control_change,,,,,0,0,1,,,,0,64,0,,
1225648,note_off,,,,,58,0,1,,,,0,,,58,0
1225648,note_off,,,,,0,0,1,,,,0,,,51,0
1225728,note_on,,,,,0,0,1,,,,0,,,73,80
1225728,note_on,,,,,0,0,1,,,,0,,,34,64
1225728,note_on,,,,,0,0,1,,,,0,,,42,64
1225728,note_on,,,,,0,0,1,,,,0,,,46,80
1225728,note_on,,,,,0,0,1,,,,0,,,66,64
1225728,control_change,,,,,0,0,1,,,,0,64,0,,
1225728,note_on,,,,,0,0,1,,,,0,,,61,64
1225728,control_change,,,,,80,0,1,,,,0,64,0,,
1225728,set_tempo,,,,,341,1,0,,333333,,,,,,
1225728,control_change,,,,,0,0,1,,,,0,64,0,,
1226240,control_change,,,,,512,0,1,,,,0,64,127,,
1226240,control_change,,,,,0,0,1,,,,0,64,127,,
1227776,control_change,,,,,1536,0,1,,,,0,64,0,,
1227776,control_change,,,,,0,0,1,,,,0,64,0,,
1228800,note_on,,,,,0,0,1,,,,0,,,71,60
1228800,set_tempo,,,,,3072,1,0,,375000,,,,,,
1228800,note_off,,,,,1024,0,1,,,,0,,,61,0
1228800,note_off,,,,,0,0,1,,,,0,,,66,0
1228800,note_off,,,,,0,0,1,,,,0,,,73,0
1229312,note_on,,,,,512,0,1,,,,0,,,70,55
1229352,note_off,,,,,40,0,1,,,,0,,,71,0
1229744,note_off,,,,,392,0,1,,,,0,,,70,0
1229824,control_change,,,,,80,0,1,,,,0,64,0,,
1229824,control_change,,,,,0,0,1,,,,0,64,0,,
1229824,control_change,,,,,0,0,1,,,,0,64,0,,
1229824,control_change,,,,,0,0,1,,,,0,64,0,,
1229824,note_off,,,,,0,0,1,,,,0,,,34,0
1229824,note_off,,,,,0,0,1,,,,0,,,42,0
1229824,note_off,,,,,0,0,1,,,,0,,,46,0
1229824,note_on,,,,,0,0,1,,,,0,,,68,44
1229824,note_on,,,,,0,0,1,,,,0,,,37,32
1229824,set_tempo,,,,,1024,1,0,,375000,,,,,,
1230128,control_change,,,,,304,0,1,,,,0,64,127,,
1230165,note_on,,,,,37,0,1,,,,0,,,65,43
1230165,set_tempo,,,,,341,1,0,,333333,,,,,,
1230165,note_on,,,,,0,0,1,,,,0,,,44,31
1230507,note_on,,,,,0,0,1,,,,0,,,61,42
1230507,note_on,,,,,0,0,1,,,,0,,,49,30
1230507,note_off,,,,,0,0,1,,,,0,,,44,0
1230507,note_off,,,,,342,0,1,,,,0,,,65,0
1230507,note_off,,,,,0,0,1,,,,0,,,68,0
1230507,note_off,,,,,0,0,1,,,,0,,,37,0
1230848,note_off,,,,,341,0,1,,,,0,,,61,0
1230848,note_on,,,,,0,0,1,,,,0,,,68,51
1230848,note_on,,,,,0,0,1,,,,0,,,37,39
1230848,note_off,,,,,0,0,1,,,,0,,,49,0
1231189,note_off,,,,,341,0,1,,,,0,,,68,0
1231189,note_on,,,,,0,0,1,,,,0,,,65,50
1231189,note_on,,,,,0,0,1,,,,0,,,44,38
1231189,note_off,,,,,0,0,1,,,,0,,,37,0
1231531,note_off,,,,,342,0,1,,,,0,,,65,0
1231531,note_on,,,,,0,0,1,,,,0,,,61,48
1231531,note_on,,,,,0,0,1,,,,0,,,49,36
1231531,note_off,,,,,0,0,1,,,,0,,,44,0
1231872,note_on,,,,,0,0,1,,,,0,,,37,45
1231872,note_on,,,,,0,0,1,,,,0,,,68,57
1231872,note_off,,,,,0,0,1,,,,0,,,61,0
1231872,control_change,,,,,0,0,1,,,,0,64,127,,
1231872,control_change,,,,,341,0,1,,,,0,64,127,,
1231872,note_off,,,,,0,0,1,,,,0,,,49,0
1232213,note_off,,,,,341,0,1,,,,0,,,68,0
1232213,note_on,,,,,0,0,1,,,,0,,,65,57
1232213,note_on,,,,,0,0,1,,,,0,,,44,45
1232213,note_off,,,,,0,0,1,,,,0,,,37,0
1232555,note_off,,,,,342,0,1,,,,0,,,65,0
1232555,note_on,,,,,0,0,1,,,,0,,,61,53
1232555,note_on,,,,,0,0,1,,,,0,,,49,41
1232555,note_off,,,,,0,0,1,,,,0,,,44,0
1232896,note_off,,,,,0,0,1,,,,0,,,49,0
1232896,note_on,,,,,0,0,1,,,,0,,,68,65
1232896,note_on,,,,,0,0,1,,,,0,,,37,53
1232896,note_off,,,,,341,0,1,,,,0,,,61,0
1233237,note_off,,,,,341,0,1,,,,0,,,68,0
1233237,note_on,,,,,0,0,1,,,,0,,,65,63
1233237,note_on,,,,,0,0,1,,,,0,,,44,51
1233237,note_off,,,,,0,0,1,,,,0,,,37,0
1233579,set_tempo,,,,,3414,1,0,,600000,,,,,,
1233579,note_off,,,,,0,0,1,,,,0,,,44,0
1233579,note_on,,,,,0,0,1,,,,0,,,61,61
1233579,note_off,,,,,342,0,1,,,,0,,,65,0
1233579,note_on,,,,,0,0,1,,,,0,,,49,49
1233782,control_change,,,,,203,0,1,,,,0,64,0,,
1233782,control_change,,,,,0,0,1,,,,0,64,0,,
1233840,note_off,,,,,58,0,1,,,,0,,,61,0
1233840,note_off,,,,,0,0,1,,,,0,,,49,0
1233920,note_on,,,,,0,0,1,,,,0,,,44,80
1233920,note_on,,,,,0,0,1,,,,0,,,39,64
1233920,note_on,,,,,0,0,1,,,,0,,,32,64
1233920,note_on,,,,,0,0,1,,,,0,,,68,64
1233920,note_on,,,,,0,0,1,,,,0,,,63,64
1233920,control_change,,,,,0,0,1,,,,0,64,0,,
1233920,control_change,,,,,0,0,1,,,,0,64,0,,
1233920,control_change,,,,,0,0,1,,,,0,64,0,,
1233920,control_change,,,,,0,0,1,,,,0,64,0,,
1233920,control_change,,,,,0,0,1,,,,0,64,0,,
1233920,note_on,,,,,0,0,1,,,,0,,,59,64
1233920,control_change,,,,,80,0,1,,,,0,64,0,,
1233920,note_on,,,,,0,0,1,,,,0,,,71,78
1233920,set_tempo,,,,,341,1,0,,333333,,,,,,
1234432,control_change,,,,,0,0,1,,,,0,64,127,,
1234432,control_change,,,,,512,0,1,,,,0,64,127,,
1235968,control_change,,,,,1536,0,1,,,,0,64,0,,
1235968,control_change,,,,,0,0,1,,,,0,64,0,,
1236992,note_off,,,,,1024,0,1,,,,0,,,59,0
1236992,note_off,,,,,0,0,1,,,,0,,,63,0
1236992,note_off,,,,,0,0,1,,,,0,,,68,0
1236992,note_off,,,,,0,0,1,,,,0,,,71,0
1236992,note_on,,,,,0,0,1,,,,0,,,70,60
1236992,set_tempo,,,,,3072,1,0,,375000,,,,,,
1237504,note_off,,,,,512,0,1,,,,0,,,70,0
1237504,note_on,,,,,0,0,1,,,,0,,,68,55
1238016,control_change,,,,,0,0,1,,,,0,64,0,,
1238016,control_change,,,,,0,0,1,,,,0,64,0,,
1238016,control_change,,,,,0,0,1,,,,0,64,0,,
1238016,note_off,,,,,0,0,1,,,,0,,,32,0
1238016,control_change,,,,,0,0,1,,,,0,64,0,,
1238016,control_change,,,,,512,0,1,,,,0,64,0,,
1238016,control_change,,,,,0,0,1,,,,0,64,0,,
1238016,note_off,,,,,0,0,1,,,,0,,,68,0
1238016,note_off,,,,,0,0,1,,,,0,,,39,0
1238016,note_off,,,,,0,0,1,,,,0,,,44,0
1238016,note_on,,,,,0,0,1,,,,0,,,66,49
1238016,note_on,,,,,0,0,1,,,,0,,,39,32
1238016,set_tempo,,,,,1024,1,0,,375000,,,,,,
1238320,control_change,,,,,304,0,1,,,,0,64,127,,
1238357,set_tempo,,,,,341,1,0,,333333,,,,,,
1238357,note_on,,,,,37,0,1,,,,0,,,63,43
1238357,note_on,,,,,0,0,1,,,,0,,,46,31
1238699,note_off,,,,,342,0,1,,,,0,,,63,0
1238699,note_on,,,,,0,0,1,,,,0,,,58,42
1238699,note_off,,,,,0,0,1,,,,0,,,39,0
1238699,note_off,,,,,0,0,1,,,,0,,,46,0
1238699,note_on,,,,,0,0,1,,,,0,,,51,30
1239040,note_off,,,,,0,0,1,,,,0,,,66,0
1239040,note_off,,,,,0,0,1,,,,0,,,51,0
1239040,note_on,,,,,0,0,1,,,,0,,,66,51
1239040,note_on,,,,,0,0,1,,,,0,,,39,39
1239040,note_off,,,,,341,0,1,,,,0,,,58,0
1239381,note_off,,,,,341,0,1,,,,0,,,66,0
1239381,note_on,,,,,0,0,1,,,,0,,,63,50
1239381,note_on,,,,,0,0,1,,,,0,,,46,38
1239381,note_off,,,,,0,0,1,,,,0,,,39,0
1239723,note_off,,,,,0,0,1,,,,0,,,46,0
1239723,note_off,,,,,342,0,1,,,,0,,,63,0
1239723,note_on,,,,,0,0,1,,,,0,,,58,48
1239723,note_on,,,,,0,0,1,,,,0,,,51,36
1240064,note_on,,,,,0,0,1,,,,0,,,39,45
1240064,control_change,,,,,341,0,1,,,,0,64,127,,
1240064,control_change,,,,,0,0,1,,,,0,64,127,,
1240064,note_off,,,,,0,0,1,,,,0,,,58,0
1240064,note_off,,,,,0,0,1,,,,0,,,51,0
1240064,note_on,,,,,0,0,1,,,,0,,,66,57
1240405,note_on,,,,,0,0,1,,,,0,,,63,57
1240405,note_off,,,,,341,0,1,,,,0,,,66,0
1240405,note_on,,,,,0,0,1,,,,0,,,46,45
1240405,note_off,,,,,0,0,1,,,,0,,,39,0
1240747,note_on,,,,,0,0,1,,,,0,,,58,53
1240747,note_on,,,,,0,0,1,,,,0,,,51,41
1240747,note_off,,,,,0,0,1,,,,0,,,46,0
1240747,note_off,,,,,342,0,1,,,,0,,,63,0
1241088,note_off,,,,,341,0,1,,,,0,,,58,0
1241088,note_on,,,,,0,0,1,,,,0,,,66,65
1241088,note_on,,,,,0,0,1,,,,0,,,39,53
1241088,note_off,,,,,0,0,1,,,,0,,,51,0
1241429,note_off,,,,,341,0,1,,,,0,,,66,0
1241429,note_on,,,,,0,0,1,,,,0,,,63,63
1241429,note_on,,,,,0,0,1,,,,0,,,46,51
1241429,note_off,,,,,0,0,1,,,,0,,,39,0
1241771,note_off,,,,,0,0,1,,,,0,,,46,0
1241771,note_on,,,,,0,0,1,,,,0,,,51,49
1241771,set_tempo,,,,,3414,1,0,,600000,,,,,,
1241771,note_off,,,,,342,0,1,,,,0,,,63,0
1241771,note_on,,,,,0,0,1,,,,0,,,58,61
1241974,control_change,,,,,203,0,1,,,,0,64,0,,
1241974,control_change,,,,,0,0,1,,,,0,64,0,,
1242032,note_off,,,,,0,0,1,,,,0,,,51,0
1242032,note_off,,,,,58,0,1,,,,0,,,58,0
1242112,note_on,,,,,0,0,1,,,,0,,,63,64
1242112,note_on,,,,,0,0,1,,,,0,,,51,56
1242112,note_on,,,,,0,0,1,,,,0,,,42,56
1242112,note_on,,,,,0,0,1,,,,0,,,70,76
1242112,note_on,,,,,0,0,1,,,,0,,,58,64
1242112,control_change,,,,,0,0,1,,,,0,64,0,,
1242112,control_change,,,,,0,0,1,,,,0,64,0,,
1242112,control_change,,,,,0,0,1,,,,0,64,0,,
1242112,note_on,,,,,0,0,1,,,,0,,,54,72
1242112,control_change,,,,,0,0,1,,,,0,64,0,,
1242112,control_change,,,,,0,0,1,,,,0,64,0,,
1242112,control_change,,,,,0,0,1,,,,0,64,0,,
1242112,control_change,,,,,80,0,1,,,,0,64,0,,
1242112,set_tempo,,,,,341,1,0,,333333,,,,,,
1242112,control_change,,,,,0,0,1,,,,0,64,0,,
1242624,control_change,,,,,512,0,1,,,,0,64,127,,
1242624,control_change,,,,,0,0,1,,,,0,64,127,,
1244160,control_change,,,,,0,0,1,,,,0,64,0,,
1244160,control_change,,,,,0,0,1,,,,0,64,0,,
1244160,control_change,,,,,0,0,1,,,,0,64,0,,
1244160,control_change,,,,,1536,0,1,,,,0,64,0,,
1245184,note_on,,,,,0,0,1,,,,0,,,51,44
1245184,set_tempo,,,,,3072,1,0,,375000,,,,,,
1245184,note_off,,,,,1024,0,1,,,,0,,,58,0
1245184,note_off,,,,,0,0,1,,,,0,,,63,0
1245184,note_off,,,,,0,0,1,,,,0,,,70,0
1245184,note_off,,,,,0,0,1,,,,0,,,42,0
1245184,note_off,,,,,0,0,1,,,,0,,,51,0
1245184,note_off,,,,,0,0,1,,,,0,,,54,0
1245184,note_on,,,,,0,0,1,,,,0,,,68,54
1245184,note_on,,,,,0,0,1,,,,0,,,39,35
1245696,note_on,,,,,0,0,1,,,,0,,,66,50
1245696,note_off,,,,,512,0,1,,,,0,,,68,0
1246208,control_change,,,,,0,0,1,,,,0,64,0,,
1246208,control_change,,,,,512,0,1,,,,0,64,0,,
1246208,note_off,,,,,0,0,1,,,,0,,,66,0
1246208,note_off,,,,,0,0,1,,,,0,,,39,0
1246208,note_off,,,,,0,0,1,,,,0,,,51,0
1246208,note_on,,,,,0,0,1,,,,0,,,65,44
1246208,note_on,,,,,0,0,1,,,,0,,,34,35
1246368,control_change,,,,,160,0,1,,,,0,64,127,,
1246549,note_off,,,,,181,0,1,,,,0,,,65,0
1246549,note_on,,,,,0,0,1,,,,0,,,62,41
1246549,set_tempo,,,,,1365,1,0,,333333,,,,,,
1246720,note_off,,,,,171,0,1,,,,0,,,34,0
1246720,note_on,,,,,0,0,1,,,,0,,,46,35
1246891,note_off,,,,,171,0,1,,,,0,,,62,0
1246891,note_on,,,,,0,0,1,,,,0,,,58,37
1247112,control_change,,,,,221,0,1,,,,0,64,0,,
1247219,control_change,,,,,107,0,1,,,,0,64,0,,
1247232,note_on,,,,,0,0,1,,,,0,,,66,53
1247232,note_on,,,,,0,0,1,,,,0,,,33,44
1247232,note_off,,,,,0,0,1,,,,0,,,46,0
1247232,set_tempo,,,,,683,1,0,,428571,,,,,,
1247232,note_off,,,,,13,0,1,,,,0,,,58,0
1247405,control_change,,,,,173,0,1,,,,0,64,127,,
1247573,note_off,,,,,168,0,1,,,,0,,,66,0
1247573,note_on,,,,,0,0,1,,,,0,,,63,43
1247573,set_tempo,,,,,341,1,0,,333333,,,,,,
1247744,note_off,,,,,171,0,1,,,,0,,,33,0
1247744,note_on,,,,,0,0,1,,,,0,,,45,35
1247915,note_off,,,,,171,0,1,,,,0,,,63,0
1247915,note_on,,,,,0,0,1,,,,0,,,58,38
1248256,note_off,,,,,0,0,1,,,,0,,,45,0
1248256,note_off,,,,,0,0,1,,,,0,,,58,0
1248256,note_on,,,,,0,0,1,,,,0,,,65,44
1248256,note_on,,,,,0,0,1,,,,0,,,34,35
1248256,control_change,,,,,0,0,1,,,,0,64,127,,
1248256,control_change,,,,,341,0,1,,,,0,64,0,,
1248336,control_change,,,,,80,0,1,,,,0,64,0,,
1248522,control_change,,,,,186,0,1,,,,0,64,127,,
1248597,note_off,,,,,75,0,1,,,,0,,,65,0
1248597,note_on,,,,,0,0,1,,,,0,,,62,41
1248768,note_off,,,,,171,0,1,,,,0,,,34,0
1248768,note_on,,,,,0,0,1,,,,0,,,46,35
1248939,note_on,,,,,0,0,1,,,,0,,,58,37
1248939,note_off,,,,,171,0,1,,,,0,,,62,0
1249160,control_change,,,,,221,0,1,,,,0,64,0,,
1249267,control_change,,,,,107,0,1,,,,0,64,0,,
1249280,note_off,,,,,13,0,1,,,,0,,,58,0
1249280,note_on,,,,,0,0,1,,,,0,,,66,53
1249280,note_on,,,,,0,0,1,,,,0,,,33,44
1249280,note_off,,,,,0,0,1,,,,0,,,46,0
1249280,set_tempo,,,,,1707,1,0,,375000,,,,,,
1249479,control_change,,,,,199,0,1,,,,0,64,127,,
1249621,set_tempo,,,,,341,1,0,,333333,,,,,,
1249621,note_off,,,,,142,0,1,,,,0,,,66,0
1249621,note_on,,,,,0,0,1,,,,0,,,63,43
1249792,note_off,,,,,171,0,1,,,,0,,,33,0
1249792,note_on,,,,,0,0,1,,,,0,,,45,35
1249963,note_off,,,,,171,0,1,,,,0,,,63,0
1249963,note_on,,,,,0,0,1,,,,0,,,58,38
1250304,control_change,,,,,341,0,1,,,,0,64,0,,
1250304,control_change,,,,,0,0,1,,,,0,64,127,,
1250304,control_change,,,,,0,0,1,,,,0,64,0,,
1250304,note_off,,,,,0,0,1,,,,0,,,58,0
1250304,note_off,,,,,0,0,1,,,,0,,,45,0
1250304,note_on,,,,,0,0,1,,,,0,,,65,46
1250304,note_on,,,,,0,0,1,,,,0,,,34,35
1250384,control_change,,,,,80,0,1,,,,0,64,0,,
1250570,control_change,,,,,186,0,1,,,,0,64,127,,
1250645,note_on,,,,,0,0,1,,,,0,,,62,43
1250645,note_off,,,,,75,0,1,,,,0,,,65,0
1250816,note_off,,,,,171,0,1,,,,0,,,34,0
1250816,note_on,,,,,0,0,1,,,,0,,,46,34
1250987,note_off,,,,,171,0,1,,,,0,,,62,0
1250987,note_on,,,,,0,0,1,,,,0,,,58,38
1251315,control_change,,,,,328,0,1,,,,0,64,0,,
1251328,note_off,,,,,13,0,1,,,,0,,,58,0
1251328,note_on,,,,,0,0,1,,,,0,,,44,35
1251328,note_on,,,,,0,0,1,,,,0,,,65,44
1251328,note_off,,,,,0,0,1,,,,0,,,46,0
1251527,control_change,,,,,199,0,1,,,,0,64,127,,
1251669,note_off,,,,,142,0,1,,,,0,,,65,0
1251669,note_on,,,,,0,0,1,,,,0,,,62,41
1251840,note_on,,,,,171,0,1,,,,0,,,46,25
1252011,note_off,,,,,171,0,1,,,,0,,,62,0
1252011,note_on,,,,,0,0,1,,,,0,,,58,36
1252352,note_on,,,,,0,0,1,,,,0,,,66,42
1252352,control_change,,,,,341,0,1,,,,0,64,0,,
1252352,control_change,,,,,0,0,1,,,,0,64,127,,
1252352,control_change,,,,,0,0,1,,,,0,64,0,,
1252352,note_off,,,,,0,0,1,,,,0,,,58,0
1252352,note_off,,,,,0,0,1,,,,0,,,44,0
1252352,note_off,,,,,0,0,1,,,,0,,,46,0
1252352,note_on,,,,,0,0,1,,,,0,,,42,33
1252432,control_change,,,,,80,0,1,,,,0,64,0,,
1252618,control_change,,,,,186,0,1,,,,0,64,127,,
1252693,note_off,,,,,75,0,1,,,,0,,,66,0
1252693,note_on,,,,,0,0,1,,,,0,,,63,39
1252864,note_on,,,,,171,0,1,,,,0,,,46,23
1253035,note_off,,,,,171,0,1,,,,0,,,63,0
1253035,note_on,,,,,0,0,1,,,,0,,,58,34
1253363,control_change,,,,,328,0,1,,,,0,64,0,,
1253376,note_on,,,,,0,0,1,,,,0,,,68,40
1253376,note_on,,,,,0,0,1,,,,0,,,41,30
1253376,note_off,,,,,0,0,1,,,,0,,,46,0
1253376,note_off,,,,,0,0,1,,,,0,,,42,0
1253376,note_off,,,,,13,0,1,,,,0,,,58,0
1253376,set_tempo,,,,,3755,1,0,,375000,,,,,,
1253575,control_change,,,,,199,0,1,,,,0,64,127,,
1253717,note_off,,,,,142,0,1,,,,0,,,68,0
1253717,note_on,,,,,0,0,1,,,,0,,,65,37
1253888,note_on,,,,,171,0,1,,,,0,,,46,20
1254059,note_off,,,,,171,0,1,,,,0,,,65,0
1254059,note_on,,,,,0,0,1,,,,0,,,58,33
1254400,note_off,,,,,0,0,1,,,,0,,,58,0
1254400,control_change,,,,,341,0,1,,,,0,64,0,,
1254400,control_change,,,,,0,0,1,,,,0,64,0,,
1254400,control_change,,,,,0,0,1,,,,0,64,0,,
1254400,control_change,,,,,0,0,1,,,,0,64,0,,
1254400,note_off,,,,,0,0,1,,,,0,,,46,0
1254400,note_on,,,,,0,0,1,,,,0,,,70,38
1254400,note_on,,,,,0,0,1,,,,0,,,39,24
1254400,note_off,,,,,0,0,1,,,,0,,,41,0
1254400,set_tempo,,,,,1024,1,0,,428571,,,,,,
1254704,control_change,,,,,304,0,1,,,,0,64,127,,
1254741,note_off,,,,,37,0,1,,,,0,,,70,0
1254741,note_on,,,,,0,0,1,,,,0,,,66,35
1254741,note_on,,,,,0,0,1,,,,0,,,46,21
1254741,note_off,,,,,0,0,1,,,,0,,,39,0
1254741,set_tempo,,,,,341,1,0,,333333,,,,,,
1255083,note_off,,,,,0,0,1,,,,0,,,46,0
1255083,note_on,,,,,0,0,1,,,,0,,,51,17
1255083,note_on,,,,,0,0,1,,,,0,,,58,31
1255083,note_off,,,,,342,0,1,,,,0,,,66,0
1255424,note_on,,,,,0,0,1,,,,0,,,70,37
1255424,note_off,,,,,341,0,1,,,,0,,,58,0
1255424,note_on,,,,,0,0,1,,,,0,,,39,23
1255424,note_off,,,,,0,0,1,,,,0,,,51,0
1255765,note_on,,,,,0,0,1,,,,0,,,46,19
1255765,note_off,,,,,0,0,1,,,,0,,,39,0
1255765,note_on,,,,,0,0,1,,,,0,,,66,33
1255765,note_off,,,,,341,0,1,,,,0,,,70,0
1256107,note_off,,,,,0,0,1,,,,0,,,46,0
1256107,note_on,,,,,0,0,1,,,,0,,,58,30
1256107,note_off,,,,,342,0,1,,,,0,,,66,0
1256107,note_on,,,,,0,0,1,,,,0,,,51,16
1256448,control_change,,,,,341,0,1,,,,0,64,127,,
1256448,control_change,,,,,0,0,1,,,,0,64,127,,
1256448,note_off,,,,,0,0,1,,,,0,,,51,0
1256448,note_on,,,,,0,0,1,,,,0,,,70,40
1256448,note_on,,,,,0,0,1,,,,0,,,39,26
1256448,note_off,,,,,0,0,1,,,,0,,,58,0
1256789,note_off,,,,,341,0,1,,,,0,,,70,0
1256789,note_on,,,,,0,0,1,,,,0,,,66,35
1256789,note_on,,,,,0,0,1,,,,0,,,46,21
1256789,note_off,,,,,0,0,1,,,,0,,,39,0
1257131,note_off,,,,,0,0,1,,,,0,,,46,0
1257131,note_off,,,,,342,0,1,,,,0,,,66,0
1257131,note_on,,,,,0,0,1,,,,0,,,58,31
1257131,note_on,,,,,0,0,1,,,,0,,,51,17
1257472,note_off,,,,,341,0,1,,,,0,,,58,0
1257472,note_on,,,,,0,0,1,,,,0,,,70,38
1257472,note_on,,,,,0,0,1,,,,0,,,39,24
1257472,note_off,,,,,0,0,1,,,,0,,,51,0
1257813,note_off,,,,,341,0,1,,,,0,,,70,0
1257813,note_on,,,,,0,0,1,,,,0,,,66,34
1257813,note_on,,,,,0,0,1,,,,0,,,46,20
1257813,note_off,,,,,0,0,1,,,,0,,,39,0
1258155,note_off,,,,,342,0,1,,,,0,,,66,0
1258155,note_on,,,,,0,0,1,,,,0,,,58,29
1258155,note_on,,,,,0,0,1,,,,0,,,51,15
1258155,note_off,,,,,0,0,1,,,,0,,,46,0
1258285,control_change,,,,,130,0,1,,,,0,64,0,,
1258358,control_change,,,,,73,0,1,,,,0,64,0,,
1258496,control_change,,,,,0,0,1,,,,0,64,0,,
1258496,note_off,,,,,0,0,1,,,,0,,,58,0
1258496,note_off,,,,,0,0,1,,,,0,,,51,0
1258496,note_on,,,,,0,0,1,,,,0,,,61,32
1258496,note_on,,,,,0,0,1,,,,0,,,66,32
1258496,note_on,,,,,0,0,1,,,,0,,,73,47
1258496,note_on,,,,,0,0,1,,,,0,,,34,30
1258496,note_on,,,,,0,0,1,,,,0,,,46,42
1258496,control_change,,,,,138,0,1,,,,0,64,0,,
1258496,set_tempo,,,,,3755,1,0,,375000,,,,,,
1258868,note_off,,,,,0,0,1,,,,0,,,66,0
1258868,note_off,,,,,0,0,1,,,,0,,,73,0
1258868,note_off,,,,,0,0,1,,,,0,,,34,0
1258868,note_off,,,,,0,0,1,,,,0,,,46,0
1258868,note_off,,,,,372,0,1,,,,0,,,61,0
1258906,control_change,,,,,38,0,1,,,,0,64,127,,
1259008,note_on,,,,,102,0,1,,,,0,,,61,29
1259008,note_on,,,,,0,0,1,,,,0,,,66,29
1259008,note_on,,,,,0,0,1,,,,0,,,73,44
1259008,note_on,,,,,0,0,1,,,,0,,,46,25
1259008,note_on,,,,,0,0,1,,,,0,,,49,25
1259008,set_tempo,,,,,512,1,0,,352941,,,,,,
1259008,note_on,,,,,0,0,1,,,,0,,,54,37
1259380,note_off,,,,,0,0,1,,,,0,,,49,0
1259380,note_off,,,,,372,0,1,,,,0,,,61,0
1259380,note_off,,,,,0,0,1,,,,0,,,66,0
1259380,note_off,,,,,0,0,1,,,,0,,,73,0
1259380,note_off,,,,,0,0,1,,,,0,,,46,0
1259380,note_off,,,,,0,0,1,,,,0,,,54,0
1259520,note_on,,,,,140,0,1,,,,0,,,61,27
1259520,note_on,,,,,0,0,1,,,,0,,,66,27
1259520,note_on,,,,,0,0,1,,,,0,,,73,42
1259520,note_on,,,,,0,0,1,,,,0,,,46,25
1259520,note_on,,,,,0,0,1,,,,0,,,49,25
1259520,note_on,,,,,0,0,1,,,,0,,,54,37
1259892,note_off,,,,,372,0,1,,,,0,,,61,0
1259892,note_off,,,,,0,0,1,,,,0,,,66,0
1259892,note_off,,,,,0,0,1,,,,0,,,73,0
1259892,note_off,,,,,0,0,1,,,,0,,,46,0
1259892,note_off,,,,,0,0,1,,,,0,,,49,0
1259892,note_off,,,,,0,0,1,,,,0,,,54,0
1260032,set_tempo,,,,,1024,1,0,,461538,,,,,,
1260032,note_on,,,,,0,0,1,,,,0,,,54,37
1260032,note_on,,,,,0,0,1,,,,0,,,73,39
1260032,note_on,,,,,0,0,1,,,,0,,,46,25
1260032,note_on,,,,,140,0,1,,,,0,,,61,24
1260032,note_on,,,,,0,0,1,,,,0,,,49,25
1260032,note_on,,,,,0,0,1,,,,0,,,66,24
1260283,control_change,,,,,251,0,1,,,,0,64,0,,
1260404,note_off,,,,,0,0,1,,,,0,,,66,0
1260404,note_off,,,,,0,0,1,,,,0,,,73,0
1260404,note_off,,,,,0,0,1,,,,0,,,46,0
1260404,note_off,,,,,0,0,1,,,,0,,,49,0
1260404,note_off,,,,,0,0,1,,,,0,,,54,0
1260404,note_off,,,,,121,0,1,,,,0,,,61,0
1260544,set_tempo,,,,,512,1,0,,428571,,,,,,
1260544,note_on,,,,,0,0,1,,,,0,,,49,13
1260544,note_on,,,,,0,0,1,,,,0,,,54,25
1260544,note_on,,,,,0,0,1,,,,0,,,46,13
1260544,control_change,,,,,140,0,1,,,,0,64,0,,
1260544,control_change,,,,,0,0,1,,,,0,64,0,,
1260544,note_on,,,,,0,0,1,,,,0,,,73,42
1260544,note_on,,,,,0,0,1,,,,0,,,61,27
1260544,note_on,,,,,0,0,1,,,,0,,,66,27
1261568,note_on,,,,,0,0,1,,,,0,,,71,40
1261568,note_off,,,,,0,0,1,,,,0,,,49,0
1261568,note_off,,,,,0,0,1,,,,0,,,46,0
1261568,note_off,,,,,0,0,1,,,,0,,,54,0
1261568,note_off,,,,,0,0,1,,,,0,,,66,0
1261568,note_off,,,,,1024,0,1,,,,0,,,61,0
1261568,set_tempo,,,,,1024,1,0,,375000,,,,,,
1261568,note_off,,,,,0,0,1,,,,0,,,73,0
1262080,note_on,,,,,512,0,1,,,,0,,,70,33
1262120,note_off,,,,,40,0,1,,,,0,,,71,0
1262512,note_off,,,,,392,0,1,,,,0,,,70,0
1262592,set_tempo,,,,,1024,1,0,,428571,,,,,,
1262592,control_change,,,,,80,0,1,,,,0,64,0,,
1262592,control_change,,,,,0,0,1,,,,0,64,0,,
1262592,control_change,,,,,0,0,1,,,,0,64,0,,
1262592,control_change,,,,,0,0,1,,,,0,64,0,,
1262592,control_change,,,,,0,0,1,,,,0,64,0,,
1262592,note_on,,,,,0,0,1,,,,0,,,68,38
1262592,control_change,,,,,0,0,1,,,,0,64,0,,
1262592,note_on,,,,,0,0,1,,,,0,,,37,24
1262896,control_change,,,,,304,0,1,,,,0,64,127,,
1262933,note_off,,,,,37,0,1,,,,0,,,68,0
1262933,note_on,,,,,0,0,1,,,,0,,,65,35
1262933,note_on,,,,,0,0,1,,,,0,,,44,21
1262933,note_off,,,,,0,0,1,,,,0,,,37,0
1262933,set_tempo,,,,,341,1,0,,333333,,,,,,
1263275,note_off,,,,,342,0,1,,,,0,,,65,0
1263275,note_on,,,,,0,0,1,,,,0,,,61,31
1263275,note_on,,,,,0,0,1,,,,0,,,49,17
1263275,note_off,,,,,0,0,1,,,,0,,,44,0
1263616,note_off,,,,,341,0,1,,,,0,,,61,0
1263616,note_on,,,,,0,0,1,,,,0,,,68,37
1263616,note_on,,,,,0,0,1,,,,0,,,37,23
1263616,note_off,,,,,0,0,1,,,,0,,,49,0
1263957,note_off,,,,,0,0,1,,,,0,,,37,0
1263957,note_on,,,,,0,0,1,,,,0,,,65,33
1263957,note_off,,,,,341,0,1,,,,0,,,68,0
1263957,note_on,,,,,0,0,1,,,,0,,,44,19
1264299,note_off,,,,,342,0,1,,,,0,,,65,0
1264299,note_on,,,,,0,0,1,,,,0,,,61,30
1264299,note_on,,,,,0,0,1,,,,0,,,49,16
1264299,note_off,,,,,0,0,1,,,,0,,,44,0
1264640,note_on,,,,,0,0,1,,,,0,,,37,26
1264640,control_change,,,,,341,0,1,,,,0,64,127,,
1264640,control_change,,,,,0,0,1,,,,0,64,127,,
1264640,note_off,,,,,0,0,1,,,,0,,,61,0
1264640,note_off,,,,,0,0,1,,,,0,,,49,0
1264640,note_on,,,,,0,0,1,,,,0,,,68,40
1264981,note_off,,,,,0,0,1,,,,0,,,37,0
1264981,note_on,,,,,0,0,1,,,,0,,,44,21
1264981,note_off,,,,,341,0,1,,,,0,,,68,0
1264981,note_on,,,,,0,0,1,,,,0,,,65,35
1265323,note_off,,,,,342,0,1,,,,0,,,65,0
1265323,note_on,,,,,0,0,1,,,,0,,,61,31
1265323,note_on,,,,,0,0,1,,,,0,,,49,17
1265323,note_off,,,,,0,0,1,,,,0,,,44,0
1265664,note_off,,,,,0,0,1,,,,0,,,49,0
1265664,note_on,,,,,0,0,1,,,,0,,,68,38
1265664,note_on,,,,,0,0,1,,,,0,,,37,24
1265664,note_off,,,,,341,0,1,,,,0,,,61,0
1266005,note_off,,,,,341,0,1,,,,0,,,68,0
1266005,note_on,,,,,0,0,1,,,,0,,,65,34
1266005,note_on,,,,,0,0,1,,,,0,,,44,20
1266005,note_off,,,,,0,0,1,,,,0,,,37,0
1266347,note_on,,,,,0,0,1,,,,0,,,49,15
1266347,note_off,,,,,0,0,1,,,,0,,,44,0
1266347,note_off,,,,,342,0,1,,,,0,,,65,0
1266347,note_on,,,,,0,0,1,,,,0,,,61,29
1266507,control_change,,,,,160,0,1,,,,0,64,0,,
1266550,control_change,,,,,43,0,1,,,,0,64,0,,
1266688,note_on,,,,,0,0,1,,,,0,,,59,32
1266688,note_on,,,,,0,0,1,,,,0,,,44,42
1266688,note_on,,,,,0,0,1,,,,0,,,32,30
1266688,note_on,,,,,0,0,1,,,,0,,,71,51
1266688,note_on,,,,,0,0,1,,,,0,,,63,32
1266688,set_tempo,,,,,3755,1,0,,375000,,,,,,
1266688,note_off,,,,,0,0,1,,,,0,,,49,0
1266688,control_change,,,,,0,0,1,,,,0,64,0,,
1266688,note_off,,,,,0,0,1,,,,0,,,61,0
1266688,control_change,,,,,138,0,1,,,,0,64,0,,
1266688,control_change,,,,,0,0,1,,,,0,64,0,,
1266688,control_change,,,,,0,0,1,,,,0,64,0,,
1266688,control_change,,,,,0,0,1,,,,0,64,0,,
1267060,note_off,,,,,372,0,1,,,,0,,,59,0
1267060,note_off,,,,,0,0,1,,,,0,,,63,0
1267060,note_off,,,,,0,0,1,,,,0,,,71,0
1267060,note_off,,,,,0,0,1,,,,0,,,32,0
1267060,note_off,,,,,0,0,1,,,,0,,,44,0
1267098,control_change,,,,,38,0,1,,,,0,64,127,,
1267200,note_on,,,,,102,0,1,,,,0,,,59,29
1267200,note_on,,,,,0,0,1,,,,0,,,63,29
1267200,note_on,,,,,0,0,1,,,,0,,,44,25
1267200,note_on,,,,,0,0,1,,,,0,,,51,25
1267200,note_on,,,,,0,0,1,,,,0,,,56,37
1267200,note_on,,,,,0,0,1,,,,0,,,71,48
1267200,set_tempo,,,,,512,1,0,,352941,,,,,,
1267572,note_off,,,,,0,0,1,,,,0,,,71,0
1267572,note_off,,,,,0,0,1,,,,0,,,44,0
1267572,note_off,,,,,0,0,1,,,,0,,,51,0
1267572,note_off,,,,,0,0,1,,,,0,,,56,0
1267572,note_off,,,,,0,0,1,,,,0,,,63,0
1267572,note_off,,,,,372,0,1,,,,0,,,59,0
1267712,note_on,,,,,140,0,1,,,,0,,,59,27
1267712,note_on,,,,,0,0,1,,,,0,,,63,27
1267712,note_on,,,,,0,0,1,,,,0,,,71,46
1267712,note_on,,,,,0,0,1,,,,0,,,44,25
1267712,note_on,,,,,0,0,1,,,,0,,,51,25
1267712,note_on,,,,,0,0,1,,,,0,,,56,37
1268084,note_off,,,,,0,0,1,,,,0,,,56,0
1268084,note_off,,,,,372,0,1,,,,0,,,59,0
1268084,note_off,,,,,0,0,1,,,,0,,,63,0
1268084,note_off,,,,,0,0,1,,,,0,,,71,0
1268084,note_off,,,,,0,0,1,,,,0,,,44,0
1268084,note_off,,,,,0,0,1,,,,0,,,51,0
1268224,set_tempo,,,,,1024,1,0,,461538,,,,,,
1268224,note_on,,,,,140,0,1,,,,0,,,59,24
1268224,note_on,,,,,0,0,1,,,,0,,,63,24
1268224,note_on,,,,,0,0,1,,,,0,,,44,25
1268224,note_on,,,,,0,0,1,,,,0,,,51,25
1268224,note_on,,,,,0,0,1,,,,0,,,56,37
1268224,note_on,,,,,0,0,1,,,,0,,,71,43
1268475,control_change,,,,,251,0,1,,,,0,64,0,,
1268596,note_off,,,,,0,0,1,,,,0,,,51,0
1268596,note_off,,,,,121,0,1,,,,0,,,59,0
1268596,note_off,,,,,0,0,1,,,,0,,,63,0
1268596,note_off,,,,,0,0,1,,,,0,,,71,0
1268596,note_off,,,,,0,0,1,,,,0,,,44,0
1268596,note_off,,,,,0,0,1,,,,0,,,56,0
1268736,control_change,,,,,0,0,1,,,,0,64,0,,
1268736,note_on,,,,,0,0,1,,,,0,,,56,25
1268736,note_on,,,,,0,0,1,,,,0,,,51,13
1268736,note_on,,,,,0,0,1,,,,0,,,71,42
1268736,control_change,,,,,0,0,1,,,,0,64,0,,
1268736,control_change,,,,,0,0,1,,,,0,64,0,,
1268736,note_on,,,,,0,0,1,,,,0,,,63,27
1268736,note_on,,,,,0,0,1,,,,0,,,44,13
1268736,note_on,,,,,0,0,1,,,,0,,,59,27
1268736,control_change,,,,,140,0,1,,,,0,64,0,,
1268736,set_tempo,,,,,512,1,0,,400000,,,,,,
1269760,set_tempo,,,,,1024,1,0,,375000,,,,,,
1269760,note_off,,,,,1024,0,1,,,,0,,,59,0
1269760,note_off,,,,,0,0,1,,,,0,,,63,0
1269760,note_off,,,,,0,0,1,,,,0,,,71,0
1269760,note_off,,,,,0,0,1,,,,0,,,44,0
1269760,note_off,,,,,0,0,1,,,,0,,,51,0
1269760,note_off,,,,,0,0,1,,,,0,,,56,0
1269760,note_on,,,,,0,0,1,,,,0,,,70,40
1270272,note_on,,,,,512,0,1,,,,0,,,68,33
1270312,note_off,,,,,40,0,1,,,,0,,,70,0
1270704,note_off,,,,,392,0,1,,,,0,,,68,0
1270784,control_change,,,,,80,0,1,,,,0,64,0,,
1270784,control_change,,,,,0,0,1,,,,0,64,0,,
1270784,control_change,,,,,0,0,1,,,,0,64,0,,
1270784,control_change,,,,,0,0,1,,,,0,64,0,,
1270784,control_change,,,,,0,0,1,,,,0,64,0,,
1270784,control_change,,,,,0,0,1,,,,0,64,0,,
1270784,note_on,,,,,0,0,1,,,,0,,,66,38
1270784,note_on,,,,,0,0,1,,,,0,,,39,24
1270784,set_tempo,,,,,1024,1,0,,428571,,,,,,
1270784,control_change,,,,,0,0,1,,,,0,64,0,,
1270784,control_change,,,,,0,0,1,,,,0,64,0,,
1271088,control_change,,,,,304,0,1,,,,0,64,127,,
1271125,set_tempo,,,,,341,1,0,,333333,,,,,,
1271125,note_off,,,,,37,0,1,,,,0,,,66,0
1271125,note_on,,,,,0,0,1,,,,0,,,63,35
1271125,note_on,,,,,0,0,1,,,,0,,,46,21
1271125,note_off,,,,,0,0,1,,,,0,,,39,0
1271467,note_off,,,,,0,0,1,,,,0,,,46,0
1271467,note_off,,,,,342,0,1,,,,0,,,63,0
1271467,note_on,,,,,0,0,1,,,,0,,,58,31
1271467,note_on,,,,,0,0,1,,,,0,,,51,17
1271808,note_off,,,,,341,0,1,,,,0,,,58,0
1271808,note_on,,,,,0,0,1,,,,0,,,66,37
1271808,note_on,,,,,0,0,1,,,,0,,,39,23
1271808,note_off,,,,,0,0,1,,,,0,,,51,0
1272149,note_off,,,,,341,0,1,,,,0,,,66,0
1272149,note_on,,,,,0,0,1,,,,0,,,63,33
1272149,note_on,,,,,0,0,1,,,,0,,,46,19
1272149,note_off,,,,,0,0,1,,,,0,,,39,0
1272491,note_off,,,,,342,0,1,,,,0,,,63,0
1272491,note_on,,,,,0,0,1,,,,0,,,58,30
1272491,note_on,,,,,0,0,1,,,,0,,,51,16
1272491,note_off,,,,,0,0,1,,,,0,,,46,0
1272832,note_on,,,,,0,0,1,,,,0,,,39,26
1272832,note_on,,,,,0,0,1,,,,0,,,66,40
1272832,note_off,,,,,0,0,1,,,,0,,,51,0
1272832,control_change,,,,,341,0,1,,,,0,64,127,,
1272832,control_change,,,,,0,0,1,,,,0,64,127,,
1272832,note_off,,,,,0,0,1,,,,0,,,58,0
1273173,note_off,,,,,341,0,1,,,,0,,,66,0
1273173,note_on,,,,,0,0,1,,,,0,,,63,35
1273173,note_on,,,,,0,0,1,,,,0,,,46,21
1273173,note_off,,,,,0,0,1,,,,0,,,39,0
1273515,note_on,,,,,0,0,1,,,,0,,,58,31
1273515,note_off,,,,,342,0,1,,,,0,,,63,0
1273515,note_on,,,,,0,0,1,,,,0,,,51,17
1273515,note_off,,,,,0,0,1,,,,0,,,46,0
1273856,note_off,,,,,341,0,1,,,,0,,,58,0
1273856,note_on,,,,,0,0,1,,,,0,,,66,38
1273856,note_on,,,,,0,0,1,,,,0,,,39,24
1273856,note_off,,,,,0,0,1,,,,0,,,51,0
1274197,note_off,,,,,341,0,1,,,,0,,,66,0
1274197,note_on,,,,,0,0,1,,,,0,,,63,34
1274197,note_on,,,,,0,0,1,,,,0,,,46,20
1274197,note_off,,,,,0,0,1,,,,0,,,39,0
1274539,note_off,,,,,0,0,1,,,,0,,,46,0
1274539,note_on,,,,,0,0,1,,,,0,,,51,15
1274539,note_off,,,,,342,0,1,,,,0,,,63,0
1274539,note_on,,,,,0,0,1,,,,0,,,58,29
1274699,control_change,,,,,160,0,1,,,,0,64,0,,
1274742,control_change,,,,,43,0,1,,,,0,64,0,,
1274880,note_off,,,,,0,0,1,,,,0,,,51,0
1274880,note_on,,,,,0,0,1,,,,0,,,51,42
1274880,note_on,,,,,0,0,1,,,,0,,,54,30
1274880,set_tempo,,,,,3755,1,0,,461538,,,,,,
1274880,note_on,,,,,0,0,1,,,,0,,,63,32
1274880,note_on,,,,,0,0,1,,,,0,,,58,32
1274880,note_off,,,,,0,0,1,,,,0,,,58,0
1274880,note_on,,,,,0,0,1,,,,0,,,70,51
1274880,control_change,,,,,0,0,1,,,,0,64,0,,
1274880,control_change,,,,,0,0,1,,,,0,64,0,,
1274880,control_change,,,,,0,0,1,,,,0,64,0,,
1274880,control_change,,,,,0,0,1,,,,0,64,0,,
1274880,note_on,,,,,0,0,1,,,,0,,,42,30
1274880,control_change,,,,,0,0,1,,,,0,64,0,,
1274880,control_change,,,,,138,0,1,,,,0,64,0,,
1275392,note_on,,,,,0,0,1,,,,0,,,54,37
1275392,note_on,,,,,0,0,1,,,,0,,,51,25
1275392,note_on,,,,,0,0,1,,,,0,,,42,25
1275392,note_on,,,,,0,0,1,,,,0,,,70,48
1275392,note_on,,,,,0,0,1,,,,0,,,63,29
1275392,note_off,,,,,0,0,1,,,,0,,,63,0
1275392,note_off,,,,,0,0,1,,,,0,,,54,0
1275392,note_off,,,,,0,0,1,,,,0,,,51,0
1275392,note_off,,,,,0,0,1,,,,0,,,42,0
1275392,note_off,,,,,0,0,1,,,,0,,,70,0
1275392,note_off,,,,,512,0,1,,,,0,,,58,0
1275392,set_tempo,,,,,512,1,0,,352941,,,,,,
1275392,note_on,,,,,0,0,1,,,,0,,,58,29
1275904,note_on,,,,,0,0,1,,,,0,,,54,37
1275904,note_on,,,,,0,0,1,,,,0,,,51,25
1275904,note_on,,,,,0,0,1,,,,0,,,42,25
1275904,note_on,,,,,0,0,1,,,,0,,,70,46
1275904,note_on,,,,,0,0,1,,,,0,,,63,27
1275904,note_on,,,,,0,0,1,,,,0,,,58,27
1275904,note_off,,,,,0,0,1,,,,0,,,51,0
1275904,note_off,,,,,0,0,1,,,,0,,,42,0
1275904,note_off,,,,,0,0,1,,,,0,,,70,0
1275904,note_off,,,,,0,0,1,,,,0,,,63,0
1275904,note_off,,,,,0,0,1,,,,0,,,54,0
1275904,note_off,,,,,512,0,1,,,,0,,,58,0
1276416,note_off,,,,,512,0,1,,,,0,,,58,0
1276416,note_off,,,,,0,0,1,,,,0,,,63,0
1276416,note_off,,,,,0,0,1,,,,0,,,70,0
1276416,note_off,,,,,0,0,1,,,,0,,,42,0
1276416,note_off,,,,,0,0,1,,,,0,,,51,0
1276416,note_on,,,,,0,0,1,,,,0,,,58,28
1276416,set_tempo,,,,,1024,1,0,,461538,,,,,,
1276416,note_on,,,,,0,0,1,,,,0,,,51,25
1276416,note_on,,,,,0,0,1,,,,0,,,42,25
1276416,note_off,,,,,0,0,1,,,,0,,,54,0
1276416,note_on,,,,,0,0,1,,,,0,,,54,37
1276416,note_on,,,,,0,0,1,,,,0,,,63,28
1276416,note_on,,,,,0,0,1,,,,0,,,70,47
1276928,note_on,,,,,0,0,1,,,,0,,,51,13
1276928,note_on,,,,,0,0,1,,,,0,,,54,25
1276928,note_off,,,,,0,0,1,,,,0,,,42,0
1276928,note_on,,,,,0,0,1,,,,0,,,42,13
1276928,note_on,,,,,0,0,1,,,,0,,,70,47
1276928,note_on,,,,,0,0,1,,,,0,,,63,32
1276928,note_on,,,,,0,0,1,,,,0,,,58,32
1276928,note_off,,,,,0,0,1,,,,0,,,54,0
1276928,note_off,,,,,0,0,1,,,,0,,,51,0
1276928,note_off,,,,,0,0,1,,,,0,,,70,0
1276928,note_off,,,,,0,0,1,,,,0,,,58,0
1276928,control_change,,,,,0,0,1,,,,0,64,0,,
1276928,control_change,,,,,0,0,1,,,,0,64,0,,
1276928,control_change,,,,,0,0,1,,,,0,64,0,,
1276928,control_change,,,,,0,0,1,,,,0,64,0,,
1276928,control_change,,,,,0,0,1,,,,0,64,0,,
1276928,control_change,,,,,512,0,1,,,,0,64,0,,
1276928,set_tempo,,,,,512,1,0,,428571,,,,,,
1276928,note_off,,,,,0,0,1,,,,0,,,63,0
1277952,note_on,,,,,0,0,1,,,,0,,,58,31
1277952,note_on,,,,,0,0,1,,,,0,,,68,40
1277952,note_on,,,,,0,0,1,,,,0,,,51,24
1277952,note_on,,,,,0,0,1,,,,0,,,63,31
1277952,note_off,,,,,0,0,1,,,,0,,,54,0
1277952,note_on,,,,,0,0,1,,,,0,,,39,17
1277952,note_off,,,,,0,0,1,,,,0,,,42,0
1277952,note_off,,,,,1024,0,1,,,,0,,,58,0
1277952,set_tempo,,,,,1024,1,0,,461538,,,,,,
1277952,note_off,,,,,0,0,1,,,,0,,,51,0
1277952,note_off,,,,,0,0,1,,,,0,,,70,0
1277952,note_off,,,,,0,0,1,,,,0,,,63,0
1278464,note_on,,,,,512,0,1,,,,0,,,66,33
1278504,note_off,,,,,40,0,1,,,,0,,,68,0
1278896,note_off,,,,,392,0,1,,,,0,,,58,0
1278896,note_off,,,,,0,0,1,,,,0,,,63,0
1278896,note_off,,,,,0,0,1,,,,0,,,66,0
1278976,note_on,,,,,0,0,1,,,,0,,,34,22
1278976,note_on,,,,,0,0,1,,,,0,,,65,40
1278976,note_off,,,,,0,0,1,,,,0,,,51,0
1278976,note_off,,,,,0,0,1,,,,0,,,39,0
1278976,control_change,,,,,0,0,1,,,,0,64,127,,
1278976,control_change,,,,,80,0,1,,,,0,64,0,,
1278976,control_change,,,,,0,0,1,,,,0,64,0,,
1278976,control_change,,,,,0,0,1,,,,0,64,0,,
1279056,control_change,,,,,80,0,1,,,,0,64,0,,
1279242,control_change,,,,,186,0,1,,,,0,64,127,,
1279317,set_tempo,,,,,1365,1,0,,352941,,,,,,
1279317,note_on,,,,,75,0,1,,,,0,,,62,28
1279488,note_off,,,,,171,0,1,,,,0,,,34,0
1279659,note_off,,,,,171,0,1,,,,0,,,62,0
1279659,note_on,,,,,0,0,1,,,,0,,,58,25
1279987,control_change,,,,,328,0,1,,,,0,64,0,,
1280000,note_on,,,,,0,0,1,,,,0,,,70,43
1280000,note_on,,,,,0,0,1,,,,0,,,46,45
1280000,note_off,,,,,13,0,1,,,,0,,,58,0
1280050,note_off,,,,,50,0,1,,,,0,,,65,0
1280199,control_change,,,,,149,0,1,,,,0,64,127,,
1280341,note_on,,,,,142,0,1,,,,0,,,62,31
1280683,note_off,,,,,342,0,1,,,,0,,,62,0
1280683,note_on,,,,,0,0,1,,,,0,,,58,28
1281024,control_change,,,,,341,0,1,,,,0,64,0,,
1281024,control_change,,,,,0,0,1,,,,0,64,127,,
1281024,control_change,,,,,0,0,1,,,,0,64,0,,
1281024,control_change,,,,,0,0,1,,,,0,64,0,,
1281024,note_off,,,,,0,0,1,,,,0,,,58,0
1281024,note_on,,,,,0,0,1,,,,0,,,69,46
1281074,note_off,,,,,50,0,1,,,,0,,,70,0
1281104,control_change,,,,,30,0,1,,,,0,64,0,,
1281290,control_change,,,,,186,0,1,,,,0,64,127,,
1281365,note_on,,,,,75,0,1,,,,0,,,62,34
1281707,note_off,,,,,342,0,1,,,,0,,,62,0
1281707,note_on,,,,,0,0,1,,,,0,,,58,30
1282035,control_change,,,,,328,0,1,,,,0,64,0,,
1282048,set_tempo,,,,,2731,1,0,,352941,,,,,,
1282048,note_off,,,,,13,0,1,,,,0,,,58,0
1282048,note_on,,,,,0,0,1,,,,0,,,68,48
1282098,note_off,,,,,50,0,1,,,,0,,,69,0
1282247,control_change,,,,,149,0,1,,,,0,64,127,,
1282389,note_on,,,,,142,0,1,,,,0,,,62,36
1282731,note_on,,,,,0,0,1,,,,0,,,58,33
1282731,note_off,,,,,342,0,1,,,,0,,,62,0
1283072,set_tempo,,,,,1024,1,0,,375000,,,,,,
1283072,note_on,,,,,0,0,1,,,,0,,,67,51
1283072,note_off,,,,,0,0,1,,,,0,,,58,0
1283072,control_change,,,,,341,0,1,,,,0,64,0,,
1283072,control_change,,,,,0,0,1,,,,0,64,127,,
1283072,control_change,,,,,0,0,1,,,,0,64,0,,
1283072,control_change,,,,,0,0,1,,,,0,64,0,,
1283122,note_off,,,,,50,0,1,,,,0,,,68,0
1283152,control_change,,,,,30,0,1,,,,0,64,0,,
1283338,control_change,,,,,186,0,1,,,,0,64,127,,
1283413,note_on,,,,,75,0,1,,,,0,,,63,39
1283755,note_off,,,,,342,0,1,,,,0,,,63,0
1283755,note_on,,,,,0,0,1,,,,0,,,58,36
1284083,control_change,,,,,328,0,1,,,,0,64,0,,
1284096,note_off,,,,,13,0,1,,,,0,,,58,0
1284096,note_on,,,,,0,0,1,,,,0,,,56,32
1284096,note_on,,,,,0,0,1,,,,0,,,72,53
1284096,set_tempo,,,,,1024,1,0,,461538,,,,,,
1284146,note_off,,,,,50,0,1,,,,0,,,67,0
1284295,control_change,,,,,149,0,1,,,,0,64,127,,
1284437,set_tempo,,,,,341,1,0,,375000,,,,,,
1284437,note_on,,,,,142,0,1,,,,0,,,63,39
1284779,note_on,,,,,0,0,1,,,,0,,,58,33
1284779,note_off,,,,,342,0,1,,,,0,,,63,0
1285120,note_off,,,,,0,0,1,,,,0,,,58,0
1285120,control_change,,,,,0,0,1,,,,0,64,0,,
1285120,control_change,,,,,0,0,1,,,,0,64,0,,
1285120,control_change,,,,,0,0,1,,,,0,64,127,,
1285120,note_on,,,,,0,0,1,,,,0,,,55,28
1285120,note_on,,,,,0,0,1,,,,0,,,70,49
1285120,control_change,,,,,341,0,1,,,,0,64,0,,
1285170,note_off,,,,,50,0,1,,,,0,,,72,0
1285170,note_off,,,,,0,0,1,,,,0,,,56,0
1285200,control_change,,,,,30,0,1,,,,0,64,0,,
1285386,control_change,,,,,186,0,1,,,,0,64,127,,
1285461,set_tempo,,,,,1024,1,0,,352941,,,,,,
1285461,note_on,,,,,75,0,1,,,,0,,,63,34
1285803,note_off,,,,,342,0,1,,,,0,,,63,0
1285803,note_on,,,,,0,0,1,,,,0,,,58,29
1286131,control_change,,,,,328,0,1,,,,0,64,0,,
1286144,note_on,,,,,0,0,1,,,,0,,,67,44
1286144,set_tempo,,,,,683,1,0,,333333,,,,,,
1286144,note_off,,,,,13,0,1,,,,0,,,58,0
1286144,note_on,,,,,0,0,1,,,,0,,,51,25
1286194,note_off,,,,,0,0,1,,,,0,,,55,0
1286194,note_off,,,,,50,0,1,,,,0,,,70,0
1286343,control_change,,,,,149,0,1,,,,0,64,127,,
1286485,note_on,,,,,142,0,1,,,,0,,,63,27
1286827,note_on,,,,,0,0,1,,,,0,,,58,21
1286827,note_off,,,,,342,0,1,,,,0,,,63,0
1287168,note_off,,,,,0,0,1,,,,0,,,46,0
1287168,note_on,,,,,0,0,1,,,,0,,,65,40
1287168,set_tempo,,,,,1024,1,0,,428571,,,,,,
1287168,note_off,,,,,0,0,1,,,,0,,,58,0
1287168,note_on,,,,,0,0,1,,,,0,,,34,22
1287168,control_change,,,,,0,0,1,,,,0,64,0,,
1287168,control_change,,,,,0,0,1,,,,0,64,0,,
1287168,control_change,,,,,0,0,1,,,,0,64,0,,
1287168,control_change,,,,,0,0,1,,,,0,64,127,,
1287168,control_change,,,,,0,0,1,,,,0,64,0,,
1287168,control_change,,,,,341,0,1,,,,0,64,0,,
1287218,note_off,,,,,50,0,1,,,,0,,,67,0
1287218,note_off,,,,,0,0,1,,,,0,,,51,0
1287248,control_change,,,,,30,0,1,,,,0,64,0,,
1287434,control_change,,,,,186,0,1,,,,0,64,127,,
1287509,note_on,,,,,75,0,1,,,,0,,,62,28
1287509,set_tempo,,,,,341,1,0,,333333,,,,,,
1287680,note_off,,,,,171,0,1,,,,0,,,34,0
1287851,note_on,,,,,0,0,1,,,,0,,,58,25
1287851,note_off,,,,,171,0,1,,,,0,,,62,0
1288179,control_change,,,,,328,0,1,,,,0,64,0,,
1288192,note_off,,,,,13,0,1,,,,0,,,58,0
1288192,note_on,,,,,0,0,1,,,,0,,,70,43
1288192,note_on,,,,,0,0,1,,,,0,,,46,41
1288242,note_off,,,,,50,0,1,,,,0,,,65,0
1288391,control_change,,,,,149,0,1,,,,0,64,127,,
1288533,note_on,,,,,142,0,1,,,,0,,,62,31
1288875,note_on,,,,,0,0,1,,,,0,,,58,28
1288875,note_off,,,,,342,0,1,,,,0,,,62,0
1289216,control_change,,,,,341,0,1,,,,0,64,0,,
1289216,control_change,,,,,0,0,1,,,,0,64,0,,
1289216,control_change,,,,,0,0,1,,,,0,64,127,,
1289216,control_change,,,,,0,0,1,,,,0,64,0,,
1289216,control_change,,,,,0,0,1,,,,0,64,0,,
1289216,control_change,,,,,0,0,1,,,,0,64,0,,
1289216,note_off,,,,,0,0,1,,,,0,,,58,0
1289216,note_on,,,,,0,0,1,,,,0,,,69,46
1289266,note_off,,,,,50,0,1,,,,0,,,70,0
1289296,control_change,,,,,30,0,1,,,,0,64,0,,
1289482,control_change,,,,,186,0,1,,,,0,64,127,,
1289557,note_on,,,,,75,0,1,,,,0,,,62,34
1289899,note_on,,,,,0,0,1,,,,0,,,58,30
1289899,note_off,,,,,342,0,1,,,,0,,,62,0
1290227,control_change,,,,,328,0,1,,,,0,64,0,,
1290240,note_off,,,,,13,0,1,,,,0,,,58,0
1290240,note_on,,,,,0,0,1,,,,0,,,68,48
1290290,note_off,,,,,50,0,1,,,,0,,,69,0
1290439,control_change,,,,,149,0,1,,,,0,64,127,,
1290581,note_on,,,,,142,0,1,,,,0,,,62,36
1290923,note_off,,,,,342,0,1,,,,0,,,62,0
1290923,note_on,,,,,0,0,1,,,,0,,,58,33
1291264,control_change,,,,,0,0,1,,,,0,64,0,,
1291264,control_change,,,,,0,0,1,,,,0,64,0,,
1291264,control_change,,,,,0,0,1,,,,0,64,127,,
1291264,control_change,,,,,0,0,1,,,,0,64,0,,
1291264,note_off,,,,,0,0,1,,,,0,,,58,0
1291264,note_on,,,,,0,0,1,,,,0,,,67,51
1291264,control_change,,,,,0,0,1,,,,0,64,0,,
1291264,control_change,,,,,341,0,1,,,,0,64,0,,
1291314,note_off,,,,,50,0,1,,,,0,,,68,0
1291344,control_change,,,,,30,0,1,,,,0,64,0,,
1291530,control_change,,,,,186,0,1,,,,0,64,127,,
1291605,note_on,,,,,75,0,1,,,,0,,,63,39
1291947,note_off,,,,,342,0,1,,,,0,,,63,0
1291947,note_on,,,,,0,0,1,,,,0,,,58,36
1292275,control_change,,,,,328,0,1,,,,0,64,0,,
1292288,note_on,,,,,0,0,1,,,,0,,,72,53
1292288,set_tempo,,,,,4779,1,0,,400000,,,,,,
1292288,note_off,,,,,13,0,1,,,,0,,,58,0
1292288,note_on,,,,,0,0,1,,,,0,,,56,32
1292338,note_off,,,,,50,0,1,,,,0,,,67,0
1292487,control_change,,,,,149,0,1,,,,0,64,127,,
1292629,set_tempo,,,,,341,1,0,,375000,,,,,,
1292629,note_on,,,,,142,0,1,,,,0,,,63,39
1292971,note_on,,,,,0,0,1,,,,0,,,58,33
1292971,note_off,,,,,342,0,1,,,,0,,,63,0
1293312,note_off,,,,,0,0,1,,,,0,,,58,0
1293312,note_on,,,,,0,0,1,,,,0,,,70,49
1293312,note_on,,,,,0,0,1,,,,0,,,55,28
1293312,control_change,,,,,0,0,1,,,,0,64,0,,
1293312,control_change,,,,,0,0,1,,,,0,64,0,,
1293312,control_change,,,,,0,0,1,,,,0,64,127,,
1293312,control_change,,,,,0,0,1,,,,0,64,0,,
1293312,control_change,,,,,341,0,1,,,,0,64,0,,
1293312,control_change,,,,,0,0,1,,,,0,64,0,,
1293362,note_off,,,,,50,0,1,,,,0,,,72,0
1293362,note_off,,,,,0,0,1,,,,0,,,56,0
1293392,control_change,,,,,30,0,1,,,,0,64,0,,
1293578,control_change,,,,,186,0,1,,,,0,64,127,,
1293653,note_on,,,,,75,0,1,,,,0,,,63,34
1293653,set_tempo,,,,,1024,1,0,,352941,,,,,,
1293995,note_off,,,,,342,0,1,,,,0,,,63,0
1293995,note_on,,,,,0,0,1,,,,0,,,58,29
1294323,control_change,,,,,328,0,1,,,,0,64,0,,
1294336,note_off,,,,,13,0,1,,,,0,,,58,0
1294336,note_on,,,,,0,0,1,,,,0,,,67,44
1294336,note_on,,,,,0,0,1,,,,0,,,51,25
1294336,set_tempo,,,,,683,1,0,,333333,,,,,,
1294386,note_off,,,,,50,0,1,,,,0,,,70,0
1294386,note_off,,,,,0,0,1,,,,0,,,55,0
1294535,control_change,,,,,149,0,1,,,,0,64,127,,
1294677,note_on,,,,,142,0,1,,,,0,,,63,27
1295019,note_on,,,,,0,0,1,,,,0,,,58,21
1295019,note_off,,,,,342,0,1,,,,0,,,63,0
1295360,set_tempo,,,,,1024,1,0,,428571,,,,,,
1295360,note_on,,,,,0,0,1,,,,0,,,34,22
1295360,note_on,,,,,0,0,1,,,,0,,,65,40
1295360,note_off,,,,,0,0,1,,,,0,,,46,0
1295360,note_off,,,,,0,0,1,,,,0,,,58,0
1295360,control_change,,,,,0,0,1,,,,0,64,0,,
1295360,control_change,,,,,0,0,1,,,,0,64,0,,
1295360,control_change,,,,,0,0,1,,,,0,64,0,,
1295360,control_change,,,,,0,0,1,,,,0,64,127,,
1295360,control_change,,,,,0,0,1,,,,0,64,0,,
1295360,control_change,,,,,0,0,1,,,,0,64,0,,
1295360,control_change,,,,,341,0,1,,,,0,64,0,,
1295360,control_change,,,,,0,0,1,,,,0,64,0,,
1295410,note_off,,,,,50,0,1,,,,0,,,67,0
1295410,note_off,,,,,0,0,1,,,,0,,,51,0
1295440,control_change,,,,,30,0,1,,,,0,64,0,,
1295626,control_change,,,,,186,0,1,,,,0,64,127,,
1295701,set_tempo,,,,,341,1,0,,333333,,,,,,
1295701,note_on,,,,,75,0,1,,,,0,,,62,28
1295872,note_off,,,,,171,0,1,,,,0,,,34,0
1296043,note_off,,,,,171,0,1,,,,0,,,62,0
1296043,note_on,,,,,0,0,1,,,,0,,,58,25
1296371,control_change,,,,,328,0,1,,,,0,64,0,,
1296384,note_off,,,,,13,0,1,,,,0,,,58,0
1296384,note_on,,,,,0,0,1,,,,0,,,70,43
1296384,note_on,,,,,0,0,1,,,,0,,,46,33
1296434,note_off,,,,,50,0,1,,,,0,,,65,0
1296583,control_change,,,,,149,0,1,,,,0,64,127,,
1296725,note_on,,,,,142,0,1,,,,0,,,62,31
1297067,note_off,,,,,342,0,1,,,,0,,,62,0
1297067,note_on,,,,,0,0,1,,,,0,,,58,28
1297408,control_change,,,,,0,0,1,,,,0,64,0,,
1297408,control_change,,,,,0,0,1,,,,0,64,0,,
1297408,control_change,,,,,0,0,1,,,,0,64,0,,
1297408,control_change,,,,,341,0,1,,,,0,64,0,,
1297408,control_change,,,,,0,0,1,,,,0,64,127,,
1297408,control_change,,,,,0,0,1,,,,0,64,0,,
1297408,control_change,,,,,0,0,1,,,,0,64,0,,
1297408,control_change,,,,,0,0,1,,,,0,64,0,,
1297408,note_off,,,,,0,0,1,,,,0,,,58,0
1297408,note_on,,,,,0,0,1,,,,0,,,69,46
1297458,note_off,,,,,50,0,1,,,,0,,,70,0
1297488,control_change,,,,,30,0,1,,,,0,64,0,,
1297674,control_change,,,,,186,0,1,,,,0,64,127,,
1297749,note_on,,,,,75,0,1,,,,0,,,62,34
1298091,note_off,,,,,342,0,1,,,,0,,,62,0
1298091,note_on,,,,,0,0,1,,,,0,,,58,30
1298419,control_change,,,,,328,0,1,,,,0,64,0,,
1298432,note_off,,,,,13,0,1,,,,0,,,58,0
1298432,note_on,,,,,0,0,1,,,,0,,,68,48
1298432,note_on,,,,,0,0,1,,,,0,,,53,28
1298482,note_off,,,,,50,0,1,,,,0,,,69,0
1298631,control_change,,,,,149,0,1,,,,0,64,127,,
1298773,note_on,,,,,142,0,1,,,,0,,,62,35
1299115,note_off,,,,,342,0,1,,,,0,,,62,0
1299115,note_on,,,,,0,0,1,,,,0,,,58,32
1299456,control_change,,,,,341,0,1,,,,0,64,0,,
1299456,control_change,,,,,0,0,1,,,,0,64,0,,
1299456,note_off,,,,,0,0,1,,,,0,,,58,0
1299456,note_on,,,,,0,0,1,,,,0,,,67,51
1299456,note_on,,,,,0,0,1,,,,0,,,52,33
1299456,set_tempo,,,,,3755,1,0,,400000,,,,,,
1299496,note_off,,,,,40,0,1,,,,0,,,53,0
1299506,note_off,,,,,10,0,1,,,,0,,,68,0
1299797,note_on,,,,,291,0,1,,,,0,,,61,35
1299797,set_tempo,,,,,341,1,0,,352941,,,,,,
1300139,note_on,,,,,0,0,1,,,,0,,,62,25
1300139,note_on,,,,,0,0,1,,,,0,,,58,25
1300139,note_off,,,,,342,0,1,,,,0,,,61,0
1300480,note_on,,,,,0,0,1,,,,0,,,53,29
1300480,note_off,,,,,341,0,1,,,,0,,,62,0
1300480,note_on,,,,,0,0,1,,,,0,,,61,25
1300480,note_on,,,,,0,0,1,,,,0,,,68,48
1300520,note_off,,,,,40,0,1,,,,0,,,52,0
1300530,note_off,,,,,10,0,1,,,,0,,,67,0
1300821,note_on,,,,,0,0,1,,,,0,,,62,25
1300821,note_off,,,,,291,0,1,,,,0,,,58,0
1300821,note_off,,,,,0,0,1,,,,0,,,61,0
1301163,note_on,,,,,342,0,1,,,,0,,,58,22
1301504,control_change,,,,,0,0,1,,,,0,64,0,,
1301504,note_off,,,,,0,0,1,,,,0,,,62,0
1301504,note_off,,,,,0,0,1,,,,0,,,68,0
1301504,note_on,,,,,0,0,1,,,,0,,,67,36
1301504,note_on,,,,,0,0,1,,,,0,,,55,23
1301504,control_change,,,,,341,0,1,,,,0,64,0,,
1301544,note_off,,,,,40,0,1,,,,0,,,53,0
1301845,note_on,,,,,301,0,1,,,,0,,,63,23
1302187,note_off,,,,,342,0,1,,,,0,,,58,0
1302187,note_on,,,,,0,0,1,,,,0,,,58,13
1302528,note_on,,,,,0,0,1,,,,0,,,56,14
1302528,note_off,,,,,341,0,1,,,,0,,,63,0
1302528,note_on,,,,,0,0,1,,,,0,,,65,28
1302568,note_off,,,,,40,0,1,,,,0,,,55,0
1302578,note_off,,,,,10,0,1,,,,0,,,67,0
1302869,note_off,,,,,291,0,1,,,,0,,,58,0
1302869,note_on,,,,,0,0,1,,,,0,,,62,12
1303211,note_on,,,,,342,0,1,,,,0,,,58,12
1303552,note_off,,,,,0,0,1,,,,0,,,62,0
1303552,note_off,,,,,0,0,1,,,,0,,,46,0
1303552,control_change,,,,,0,0,1,,,,0,64,0,,
1303552,set_tempo,,,,,0,1,0,,333333,,,,,,
1303552,key_signature,,,,,3755,1,0,Eb,,,,,,,
1303552,control_change,,,,,341,0,1,,,,0,64,0,,
1303552,note_off,,,,,0,0,1,,,,0,,,58,0
1303592,note_off,,,,,40,0,1,,,,0,,,56,0
1303602,note_off,,,,,10,0,1,,,,0,,,65,0
1305600,control_change,,,,,0,0,1,,,,0,64,0,,
1305600,control_change,,,,,1998,0,1,,,,0,64,0,,
1307392,set_tempo,,,,,3840,1,0,,375000,,,,,,
1307392,note_on,,,,,1792,0,1,,,,0,,,58,34
1307392,note_on,,,,,0,0,1,,,,0,,,70,43
1307648,note_on,,,,,0,0,1,,,,0,,,70,50
1307648,set_tempo,,,,,256,1,0,,333333,,,,,,
1307648,control_change,,,,,256,0,1,,,,0,64,0,,
1307648,control_change,,,,,0,0,1,,,,0,64,0,,
1307648,control_change,,,,,0,0,1,,,,0,64,0,,
1307648,control_change,,,,,0,0,1,,,,0,64,0,,
1307648,note_off,,,,,0,0,1,,,,0,,,58,0
1307648,note_off,,,,,0,0,1,,,,0,,,70,0
1307648,note_on,,,,,0,0,1,,,,0,,,58,36
1307648,note_on,,,,,0,0,1,,,,0,,,39,31
1307937,control_change,,,,,289,0,1,,,,0,64,127,,
1307989,note_on,,,,,52,0,1,,,,0,,,46,26
1308331,note_on,,,,,342,0,1,,,,0,,,51,26
1308672,note_off,,,,,341,0,1,,,,0,,,58,0
1308672,note_off,,,,,0,0,1,,,,0,,,70,0
1308672,note_off,,,,,0,0,1,,,,0,,,39,0
1308672,note_off,,,,,0,0,1,,,,0,,,46,0
1308672,note_off,,,,,0,0,1,,,,0,,,51,0
1308672,note_on,,,,,0,0,1,,,,0,,,67,40
1308672,note_on,,,,,0,0,1,,,,0,,,39,26
1308698,control_change,,,,,26,0,1,,,,0,64,0,,
1308908,control_change,,,,,210,0,1,,,,0,64,0,,
1309013,note_on,,,,,105,0,1,,,,0,,,46,26
1309145,control_change,,,,,132,0,1,,,,0,64,127,,
1309184,note_off,,,,,39,0,1,,,,0,,,67,0
1309355,note_on,,,,,171,0,1,,,,0,,,51,26
1309440,note_on,,,,,85,0,1,,,,0,,,58,28
1309440,note_on,,,,,0,0,1,,,,0,,,70,42
1309440,set_tempo,,,,,1792,1,0,,375000,,,,,,
1309486,control_change,,,,,46,0,1,,,,0,64,0,,
1309696,note_on,,,,,0,0,1,,,,0,,,38,31
1309696,note_on,,,,,0,0,1,,,,0,,,58,36
1309696,note_off,,,,,0,0,1,,,,0,,,51,0
1309696,note_off,,,,,0,0,1,,,,0,,,46,0
1309696,note_off,,,,,0,0,1,,,,0,,,39,0
1309696,note_on,,,,,0,0,1,,,,0,,,70,50
1309696,note_off,,,,,0,0,1,,,,0,,,58,0
1309696,note_off,,,,,0,0,1,,,,0,,,70,0
1309696,control_change,,,,,210,0,1,,,,0,64,0,,
1309696,control_change,,,,,0,0,1,,,,0,64,0,,
1309696,set_tempo,,,,,256,1,0,,333333,,,,,,
1309696,control_change,,,,,0,0,1,,,,0,64,0,,
1309696,control_change,,,,,0,0,1,,,,0,64,0,,
1309696,control_change,,,,,0,0,1,,,,0,64,0,,
1309985,control_change,,,,,289,0,1,,,,0,64,127,,
1310037,note_on,,,,,52,0,1,,,,0,,,46,26
1310379,note_on,,,,,342,0,1,,,,0,,,50,26
1310720,note_off,,,,,341,0,1,,,,0,,,58,0
1310720,note_off,,,,,0,0,1,,,,0,,,70,0
1310720,note_off,,,,,0,0,1,,,,0,,,38,0
1310720,note_off,,,,,0,0,1,,,,0,,,46,0
1310720,note_off,,,,,0,0,1,,,,0,,,50,0
1310720,note_on,,,,,0,0,1,,,,0,,,65,40
1310720,note_on,,,,,0,0,1,,,,0,,,38,26
1310746,control_change,,,,,26,0,1,,,,0,64,0,,
1310956,control_change,,,,,210,0,1,,,,0,64,0,,
1311061,note_on,,,,,105,0,1,,,,0,,,46,26
1311193,control_change,,,,,132,0,1,,,,0,64,127,,
1311232,note_off,,,,,39,0,1,,,,0,,,65,0
1311403,note_on,,,,,171,0,1,,,,0,,,50,26
1311488,note_on,,,,,85,0,1,,,,0,,,70,42
1311534,control_change,,,,,46,0,1,,,,0,64,0,,
1311744,note_off,,,,,0,0,1,,,,0,,,50,0
1311744,set_tempo,,,,,2048,1,0,,333333,,,,,,
1311744,control_change,,,,,210,0,1,,,,0,64,0,,
1311744,control_change,,,,,0,0,1,,,,0,64,0,,
1311744,control_change,,,,,0,0,1,,,,0,64,0,,
1311744,control_change,,,,,0,0,1,,,,0,64,0,,
1311744,note_off,,,,,0,0,1,,,,0,,,70,0
1311744,note_off,,,,,0,0,1,,,,0,,,38,0
1311744,note_off,,,,,0,0,1,,,,0,,,46,0
1311744,note_on,,,,,0,0,1,,,,0,,,68,50
1311744,note_on,,,,,0,0,1,,,,0,,,41,31
1311744,note_on,,,,,0,0,1,,,,0,,,58,36
1311906,control_change,,,,,162,0,1,,,,0,64,127,,
1312085,note_on,,,,,179,0,1,,,,0,,,46,26
1312427,note_on,,,,,342,0,1,,,,0,,,53,26
1312512,note_off,,,,,85,0,1,,,,0,,,58,0
1312512,note_off,,,,,0,0,1,,,,0,,,68,0
1312512,note_on,,,,,0,0,1,,,,0,,,70,42
1312768,note_off,,,,,0,0,1,,,,0,,,46,0
1312768,note_off,,,,,0,0,1,,,,0,,,53,0
1312768,note_off,,,,,256,0,1,,,,0,,,70,0
1312768,note_on,,,,,0,0,1,,,,0,,,58,32
1312768,note_on,,,,,0,0,1,,,,0,,,68,46
1312768,note_on,,,,,0,0,1,,,,0,,,41,26
1312768,note_off,,,,,0,0,1,,,,0,,,41,0
1312768,set_tempo,,,,,1024,1,0,,333333,,,,,,
1313109,note_on,,,,,341,0,1,,,,0,,,46,26
1313451,note_on,,,,,342,0,1,,,,0,,,53,26
1313536,note_off,,,,,85,0,1,,,,0,,,58,0
1313536,note_off,,,,,0,0,1,,,,0,,,68,0
1313536,note_on,,,,,0,0,1,,,,0,,,70,42
1313630,control_change,,,,,94,0,1,,,,0,64,0,,
1313792,note_off,,,,,0,0,1,,,,0,,,41,0
1313792,control_change,,,,,162,0,1,,,,0,64,0,,
1313792,control_change,,,,,0,0,1,,,,0,64,0,,
1313792,control_change,,,,,0,0,1,,,,0,64,0,,
1313792,control_change,,,,,0,0,1,,,,0,64,0,,
1313792,note_off,,,,,0,0,1,,,,0,,,70,0
1313792,note_off,,,,,0,0,1,,,,0,,,46,0
1313792,note_off,,,,,0,0,1,,,,0,,,53,0
1313792,note_on,,,,,0,0,1,,,,0,,,58,32
1313792,note_on,,,,,0,0,1,,,,0,,,67,46
1313792,set_tempo,,,,,1024,1,0,,333333,,,,,,
1313792,note_on,,,,,0,0,1,,,,0,,,39,31
1314000,control_change,,,,,208,0,1,,,,0,64,127,,
1314133,note_on,,,,,133,0,1,,,,0,,,46,26
1314475,note_on,,,,,342,0,1,,,,0,,,51,26
1314816,note_off,,,,,341,0,1,,,,0,,,58,0
1314816,note_off,,,,,0,0,1,,,,0,,,67,0
1314816,note_off,,,,,0,0,1,,,,0,,,39,0
1314816,note_off,,,,,0,0,1,,,,0,,,46,0
1314816,note_on,,,,,0,0,1,,,,0,,,39,26
1314816,note_off,,,,,0,0,1,,,,0,,,51,0
1314861,control_change,,,,,45,0,1,,,,0,64,0,,
1315157,note_on,,,,,296,0,1,,,,0,,,46,26
1315187,control_change,,,,,30,0,1,,,,0,64,127,,
1315499,note_on,,,,,312,0,1,,,,0,,,51,26
1315584,set_tempo,,,,,1792,1,0,,375000,,,,,,
1315584,note_on,,,,,0,0,1,,,,0,,,70,42
1315584,note_on,,,,,85,0,1,,,,0,,,58,28
1315751,control_change,,,,,167,0,1,,,,0,64,0,,
1315840,set_tempo,,,,,256,1,0,,333333,,,,,,
1315840,control_change,,,,,0,0,1,,,,0,64,0,,
1315840,control_change,,,,,0,0,1,,,,0,64,0,,
1315840,control_change,,,,,0,0,1,,,,0,64,0,,
1315840,note_off,,,,,0,0,1,,,,0,,,58,0
1315840,note_off,,,,,0,0,1,,,,0,,,70,0
1315840,note_off,,,,,0,0,1,,,,0,,,46,0
1315840,note_off,,,,,0,0,1,,,,0,,,39,0
1315840,note_on,,,,,0,0,1,,,,0,,,58,36
1315840,note_off,,,,,0,0,1,,,,0,,,51,0
1315840,note_on,,,,,0,0,1,,,,0,,,43,31
1315840,control_change,,,,,89,0,1,,,,0,64,0,,
1315840,note_on,,,,,0,0,1,,,,0,,,70,50
1316048,control_change,,,,,208,0,1,,,,0,64,127,,
1316181,note_on,,,,,133,0,1,,,,0,,,46,26
1316352,note_off,,,,,171,0,1,,,,0,,,58,0
1316352,set_tempo,,,,,512,1,0,,375000,,,,,,
1316352,note_off,,,,,0,0,1,,,,0,,,70,0
1316434,control_change,,,,,82,0,1,,,,0,64,0,,
1316523,note_on,,,,,89,0,1,,,,0,,,51,26
1316864,set_tempo,,,,,512,1,0,,333333,,,,,,
1316864,note_on,,,,,341,0,1,,,,0,,,67,38
1316864,note_on,,,,,0,0,1,,,,0,,,79,52
1316864,note_on,,,,,0,0,1,,,,0,,,43,26
1316864,note_off,,,,,0,0,1,,,,0,,,43,0
1316864,note_off,,,,,0,0,1,,,,0,,,46,0
1316864,note_off,,,,,0,0,1,,,,0,,,51,0
1317057,control_change,,,,,193,0,1,,,,0,64,127,,
1317205,note_on,,,,,148,0,1,,,,0,,,46,26
1317547,note_on,,,,,342,0,1,,,,0,,,51,26
1317888,control_change,,,,,0,0,1,,,,0,64,0,,
1317888,control_change,,,,,0,0,1,,,,0,64,0,,
1317888,note_off,,,,,0,0,1,,,,0,,,43,0
1317888,note_off,,,,,0,0,1,,,,0,,,46,0
1317888,note_off,,,,,0,0,1,,,,0,,,51,0
1317888,note_on,,,,,0,0,1,,,,0,,,44,31
1317888,control_change,,,,,341,0,1,,,,0,64,0,,
1317888,control_change,,,,,0,0,1,,,,0,64,127,,
1318096,control_change,,,,,208,0,1,,,,0,64,0,,
1318229,note_on,,,,,133,0,1,,,,0,,,48,26
1318333,control_change,,,,,104,0,1,,,,0,64,127,,
1318571,note_on,,,,,238,0,1,,,,0,,,53,27
1318912,note_off,,,,,0,0,1,,,,0,,,79,0
1318912,note_off,,,,,0,0,1,,,,0,,,44,0
1318912,note_off,,,,,0,0,1,,,,0,,,48,0
1318912,note_off,,,,,0,0,1,,,,0,,,53,0
1318912,note_on,,,,,0,0,1,,,,0,,,65,33
1318912,note_on,,,,,0,0,1,,,,0,,,77,47
1318912,note_on,,,,,0,0,1,,,,0,,,44,27
1318912,note_off,,,,,341,0,1,,,,0,,,67,0
1318957,control_change,,,,,45,0,1,,,,0,64,0,,
1319184,note_off,,,,,227,0,1,,,,0,,,65,0
1319184,note_off,,,,,0,0,1,,,,0,,,77,0
1319253,note_on,,,,,69,0,1,,,,0,,,48,27
1319424,note_on,,,,,171,0,1,,,,0,,,63,30
1319424,note_on,,,,,0,0,1,,,,0,,,75,45
1319595,note_on,,,,,171,0,1,,,,0,,,53,27
1319696,note_off,,,,,101,0,1,,,,0,,,63,0
1319696,note_off,,,,,0,0,1,,,,0,,,75,0
1319936,control_change,,,,,240,0,1,,,,0,64,0,,
1319936,control_change,,,,,0,0,1,,,,0,64,0,,
1319936,control_change,,,,,0,0,1,,,,0,64,0,,
1319936,control_change,,,,,0,0,1,,,,0,64,0,,
1319936,note_off,,,,,0,0,1,,,,0,,,44,0
1319936,note_off,,,,,0,0,1,,,,0,,,48,0
1319936,note_off,,,,,0,0,1,,,,0,,,53,0
1319936,note_on,,,,,0,0,1,,,,0,,,62,38
1319936,note_on,,,,,0,0,1,,,,0,,,74,53
1319936,note_on,,,,,0,0,1,,,,0,,,46,33
1319936,set_tempo,,,,,3072,1,0,,333333,,,,,,
1320277,note_on,,,,,341,0,1,,,,0,,,53,28
1320304,note_off,,,,,27,0,1,,,,0,,,62,0
1320304,note_off,,,,,0,0,1,,,,0,,,74,0
1320619,note_on,,,,,315,0,1,,,,0,,,56,28
1320704,note_on,,,,,85,0,1,,,,0,,,65,30
1320704,set_tempo,,,,,768,1,0,,375000,,,,,,
1320704,note_on,,,,,0,0,1,,,,0,,,77,45
1320791,note_off,,,,,87,0,1,,,,0,,,65,0
1320791,note_off,,,,,0,0,1,,,,0,,,77,0
1320960,set_tempo,,,,,256,1,0,,333333,,,,,,
1320960,note_on,,,,,169,0,1,,,,0,,,62,35
1320960,note_on,,,,,0,0,1,,,,0,,,74,50
1320960,note_off,,,,,0,0,1,,,,0,,,46,0
1320960,note_off,,,,,0,0,1,,,,0,,,53,0
1320960,note_off,,,,,0,0,1,,,,0,,,56,0
1320960,note_on,,,,,0,0,1,,,,0,,,46,28
1321301,note_on,,,,,341,0,1,,,,0,,,53,28
1321488,note_off,,,,,187,0,1,,,,0,,,62,0
1321488,note_off,,,,,0,0,1,,,,0,,,74,0
1321643,note_on,,,,,155,0,1,,,,0,,,56,28
1321728,note_on,,,,,85,0,1,,,,0,,,65,31
1321728,note_on,,,,,0,0,1,,,,0,,,77,46
1321728,set_tempo,,,,,768,1,0,,375000,,,,,,
1321815,note_off,,,,,0,0,1,,,,0,,,77,0
1321815,note_off,,,,,87,0,1,,,,0,,,65,0
1321984,set_tempo,,,,,256,1,0,,333333,,,,,,
1321984,note_on,,,,,0,0,1,,,,0,,,39,50
1321984,note_on,,,,,0,0,1,,,,0,,,75,53
1321984,control_change,,,,,0,0,1,,,,0,64,0,,
1321984,note_off,,,,,0,0,1,,,,0,,,56,0
1321984,note_off,,,,,0,0,1,,,,0,,,53,0
1321984,control_change,,,,,0,0,1,,,,0,64,0,,
1321984,control_change,,,,,0,0,1,,,,0,64,0,,
1321984,control_change,,,,,169,0,1,,,,0,64,0,,
1321984,note_on,,,,,0,0,1,,,,0,,,63,39
1321984,note_off,,,,,0,0,1,,,,0,,,46,0
1322325,note_on,,,,,341,0,1,,,,0,,,46,45
1322667,note_on,,,,,342,0,1,,,,0,,,51,45
1323008,note_off,,,,,0,0,1,,,,0,,,39,0
1323008,note_on,,,,,0,0,1,,,,0,,,39,45
1323008,note_off,,,,,0,0,1,,,,0,,,51,0
1323008,note_off,,,,,0,0,1,,,,0,,,46,0
1323008,note_off,,,,,0,0,1,,,,0,,,75,0
1323008,note_off,,,,,341,0,1,,,,0,,,63,0
1323349,note_on,,,,,341,0,1,,,,0,,,46,45
1323691,note_on,,,,,342,0,1,,,,0,,,51,45
1323776,note_on,,,,,0,0,1,,,,0,,,82,66
1323776,note_on,,,,,85,0,1,,,,0,,,70,54
1323776,set_tempo,,,,,1792,1,0,,375000,,,,,,
1324032,note_off,,,,,0,0,1,,,,0,,,51,0
1324032,note_on,,,,,0,0,1,,,,0,,,70,58
1324032,control_change,,,,,0,0,1,,,,0,64,0,,
1324032,note_off,,,,,0,0,1,,,,0,,,46,0
1324032,note_on,,,,,0,0,1,,,,0,,,82,72
1324032,note_off,,,,,0,0,1,,,,0,,,39,0
1324032,control_change,,,,,0,0,1,,,,0,64,0,,
1324032,note_off,,,,,0,0,1,,,,0,,,70,0
1324032,control_change,,,,,0,0,1,,,,0,64,0,,
1324032,control_change,,,,,0,0,1,,,,0,64,0,,
1324032,set_tempo,,,,,256,1,0,,333333,,,,,,
1324032,note_on,,,,,0,0,1,,,,0,,,39,62
1324032,note_off,,,,,0,0,1,,,,0,,,82,0
1324032,control_change,,,,,256,0,1,,,,0,64,0,,
1324321,control_change,,,,,289,0,1,,,,0,64,127,,
1324373,note_on,,,,,52,0,1,,,,0,,,46,50
1324715,note_on,,,,,342,0,1,,,,0,,,51,50
1325056,note_off,,,,,0,0,1,,,,0,,,39,0
1325056,note_off,,,,,0,0,1,,,,0,,,46,0
1325056,note_on,,,,,0,0,1,,,,0,,,39,50
1325056,note_off,,,,,341,0,1,,,,0,,,70,0
1325056,note_off,,,,,0,0,1,,,,0,,,51,0
1325056,note_on,,,,,0,0,1,,,,0,,,79,66
1325056,note_off,,,,,0,0,1,,,,0,,,82,0
1325082,control_change,,,,,26,0,1,,,,0,64,0,,
1325292,control_change,,,,,210,0,1,,,,0,64,0,,
1325397,note_on,,,,,105,0,1,,,,0,,,46,50
1325529,control_change,,,,,132,0,1,,,,0,64,127,,
1325568,note_off,,,,,39,0,1,,,,0,,,79,0
1325739,note_on,,,,,171,0,1,,,,0,,,51,50
1325824,set_tempo,,,,,1792,1,0,,375000,,,,,,
1325824,note_on,,,,,85,0,1,,,,0,,,70,50
1325824,note_on,,,,,0,0,1,,,,0,,,82,66
1325870,control_change,,,,,46,0,1,,,,0,64,0,,
1326080,control_change,,,,,210,0,1,,,,0,64,0,,
1326080,control_change,,,,,0,0,1,,,,0,64,0,,
1326080,control_change,,,,,0,0,1,,,,0,64,0,,
1326080,control_change,,,,,0,0,1,,,,0,64,0,,
1326080,note_off,,,,,0,0,1,,,,0,,,70,0
1326080,note_off,,,,,0,0,1,,,,0,,,82,0
1326080,note_off,,,,,0,0,1,,,,0,,,39,0
1326080,note_off,,,,,0,0,1,,,,0,,,46,0
1326080,note_off,,,,,0,0,1,,,,0,,,51,0
1326080,note_on,,,,,0,0,1,,,,0,,,70,58
1326080,note_on,,,,,0,0,1,,,,0,,,82,72
1326080,note_on,,,,,0,0,1,,,,0,,,38,62
1326080,control_change,,,,,0,0,1,,,,0,64,0,,
1326080,control_change,,,,,0,0,1,,,,0,64,0,,
1326080,set_tempo,,,,,256,1,0,,333333,,,,,,
1326369,control_change,,,,,289,0,1,,,,0,64,127,,
1326421,note_on,,,,,52,0,1,,,,0,,,46,50
1326763,note_on,,,,,342,0,1,,,,0,,,50,50
1326997,control_change,,,,,234,0,1,,,,0,64,127,,
1327104,note_off,,,,,0,0,1,,,,0,,,50,0
1327104,note_off,,,,,0,0,1,,,,0,,,46,0
1327104,note_on,,,,,0,0,1,,,,0,,,38,50
1327104,note_off,,,,,0,0,1,,,,0,,,82,0
1327104,note_off,,,,,107,0,1,,,,0,,,70,0
1327104,note_off,,,,,0,0,1,,,,0,,,38,0
1327104,note_on,,,,,0,0,1,,,,0,,,77,66
1327340,control_change,,,,,236,0,1,,,,0,64,0,,
1327445,note_on,,,,,105,0,1,,,,0,,,46,50
1327577,control_change,,,,,132,0,1,,,,0,64,127,,
1327616,note_off,,,,,39,0,1,,,,0,,,77,0
1327787,note_on,,,,,171,0,1,,,,0,,,50,50
1327872,note_on,,,,,85,0,1,,,,0,,,82,64
1327918,control_change,,,,,46,0,1,,,,0,64,0,,
1328128,control_change,,,,,210,0,1,,,,0,64,0,,
1328128,control_change,,,,,0,0,1,,,,0,64,0,,
1328128,control_change,,,,,0,0,1,,,,0,64,0,,
1328128,control_change,,,,,0,0,1,,,,0,64,0,,
1328128,note_off,,,,,0,0,1,,,,0,,,82,0
1328128,note_off,,,,,0,0,1,,,,0,,,38,0
1328128,note_off,,,,,0,0,1,,,,0,,,46,0
1328128,note_off,,,,,0,0,1,,,,0,,,50,0
1328128,note_on,,,,,0,0,1,,,,0,,,70,58
1328128,note_on,,,,,0,0,1,,,,0,,,80,72
1328128,note_on,,,,,0,0,1,,,,0,,,41,62
1328128,control_change,,,,,0,0,1,,,,0,64,0,,
1328128,set_tempo,,,,,2048,1,0,,333333,,,,,,
1328290,control_change,,,,,162,0,1,,,,0,64,127,,
1328469,note_on,,,,,179,0,1,,,,0,,,46,50
1328811,note_on,,,,,342,0,1,,,,0,,,53,50
1328896,note_off,,,,,85,0,1,,,,0,,,70,0
1328896,note_off,,,,,0,0,1,,,,0,,,80,0
1328896,note_on,,,,,0,0,1,,,,0,,,82,64
1329152,note_off,,,,,256,0,1,,,,0,,,82,0
1329152,note_on,,,,,0,0,1,,,,0,,,41,50
1329152,note_on,,,,,0,0,1,,,,0,,,80,68
1329152,note_off,,,,,0,0,1,,,,0,,,41,0
1329152,note_on,,,,,0,0,1,,,,0,,,70,54
1329152,note_off,,,,,0,0,1,,,,0,,,46,0
1329152,set_tempo,,,,,1024,1,0,,333333,,,,,,
1329152,note_off,,,,,0,0,1,,,,0,,,53,0
1329493,note_on,,,,,341,0,1,,,,0,,,46,50
1329835,note_on,,,,,342,0,1,,,,0,,,53,50
1329920,note_off,,,,,85,0,1,,,,0,,,70,0
1329920,note_off,,,,,0,0,1,,,,0,,,80,0
1329920,note_on,,,,,0,0,1,,,,0,,,82,64
1330014,control_change,,,,,94,0,1,,,,0,64,0,,
1330176,note_off,,,,,0,0,1,,,,0,,,46,0
1330176,control_change,,,,,162,0,1,,,,0,64,0,,
1330176,control_change,,,,,0,0,1,,,,0,64,0,,
1330176,control_change,,,,,0,0,1,,,,0,64,0,,
1330176,control_change,,,,,0,0,1,,,,0,64,0,,
1330176,control_change,,,,,0,0,1,,,,0,64,0,,
1330176,note_off,,,,,0,0,1,,,,0,,,41,0
1330176,note_off,,,,,0,0,1,,,,0,,,82,0
1330176,note_on,,,,,0,0,1,,,,0,,,79,68
1330176,note_on,,,,,0,0,1,,,,0,,,70,54
1330176,set_tempo,,,,,1024,1,0,,333333,,,,,,
1330176,note_off,,,,,0,0,1,,,,0,,,53,0
1330176,note_on,,,,,0,0,1,,,,0,,,39,62
1330384,control_change,,,,,208,0,1,,,,0,64,127,,
1330517,note_on,,,,,133,0,1,,,,0,,,46,50
1330859,note_on,,,,,342,0,1,,,,0,,,51,50
1331200,note_off,,,,,341,0,1,,,,0,,,70,0
1331200,note_off,,,,,0,0,1,,,,0,,,39,0
1331200,note_off,,,,,0,0,1,,,,0,,,46,0
1331200,note_off,,,,,0,0,1,,,,0,,,51,0
1331200,note_on,,,,,0,0,1,,,,0,,,39,50
1331200,note_off,,,,,0,0,1,,,,0,,,79,0
1331245,control_change,,,,,45,0,1,,,,0,64,0,,
1331541,note_on,,,,,296,0,1,,,,0,,,46,50
1331571,control_change,,,,,30,0,1,,,,0,64,127,,
1331883,note_on,,,,,312,0,1,,,,0,,,51,50
1331968,note_on,,,,,0,0,1,,,,0,,,82,68
1331968,set_tempo,,,,,1792,1,0,,375000,,,,,,
1331968,note_on,,,,,85,0,1,,,,0,,,70,54
1332135,control_change,,,,,167,0,1,,,,0,64,0,,
1332224,control_change,,,,,89,0,1,,,,0,64,0,,
1332224,set_tempo,,,,,256,1,0,,333333,,,,,,
1332224,note_on,,,,,0,0,1,,,,0,,,43,62
1332224,note_on,,,,,0,0,1,,,,0,,,82,76
1332224,note_on,,,,,0,0,1,,,,0,,,70,62
1332224,note_off,,,,,0,0,1,,,,0,,,51,0
1332224,note_off,,,,,0,0,1,,,,0,,,46,0
1332224,note_off,,,,,0,0,1,,,,0,,,82,0
1332224,note_off,,,,,0,0,1,,,,0,,,39,0
1332224,control_change,,,,,0,0,1,,,,0,64,0,,
1332224,control_change,,,,,0,0,1,,,,0,64,0,,
1332224,control_change,,,,,0,0,1,,,,0,64,0,,
1332224,control_change,,,,,0,0,1,,,,0,64,0,,
1332224,note_off,,,,,0,0,1,,,,0,,,70,0
1332432,control_change,,,,,208,0,1,,,,0,64,127,,
1332565,note_on,,,,,133,0,1,,,,0,,,46,50
1332736,note_off,,,,,171,0,1,,,,0,,,70,0
1332736,set_tempo,,,,,512,1,0,,375000,,,,,,
1332736,note_off,,,,,0,0,1,,,,0,,,82,0
1332818,control_change,,,,,82,0,1,,,,0,64,0,,
1332907,note_on,,,,,89,0,1,,,,0,,,51,50
1333037,control_change,,,,,130,0,1,,,,0,64,127,,
1333248,set_tempo,,,,,512,1,0,,333333,,,,,,
1333248,note_off,,,,,0,0,1,,,,0,,,51,0
1333248,note_off,,,,,0,0,1,,,,0,,,46,0
1333248,note_on,,,,,0,0,1,,,,0,,,43,50
1333248,note_on,,,,,0,0,1,,,,0,,,91,78
1333248,note_on,,,,,211,0,1,,,,0,,,79,64
1333248,note_off,,,,,0,0,1,,,,0,,,43,0
1333589,note_on,,,,,341,0,1,,,,0,,,46,50
1333931,note_on,,,,,342,0,1,,,,0,,,51,50
1334272,control_change,,,,,0,0,1,,,,0,64,0,,
1334272,control_change,,,,,0,0,1,,,,0,64,127,,
1334272,control_change,,,,,0,0,1,,,,0,64,0,,
1334272,control_change,,,,,0,0,1,,,,0,64,0,,
1334272,note_off,,,,,0,0,1,,,,0,,,43,0
1334272,note_off,,,,,0,0,1,,,,0,,,46,0
1334272,note_off,,,,,0,0,1,,,,0,,,51,0
1334272,control_change,,,,,341,0,1,,,,0,64,0,,
1334272,note_on,,,,,0,0,1,,,,0,,,44,62
1334480,control_change,,,,,208,0,1,,,,0,64,0,,
1334613,note_on,,,,,133,0,1,,,,0,,,48,50
1334717,control_change,,,,,104,0,1,,,,0,64,127,,
1334955,note_on,,,,,238,0,1,,,,0,,,53,50
1335296,note_off,,,,,341,0,1,,,,0,,,79,0
1335296,note_off,,,,,0,0,1,,,,0,,,44,0
1335296,note_off,,,,,0,0,1,,,,0,,,48,0
1335296,note_off,,,,,0,0,1,,,,0,,,53,0
1335296,note_on,,,,,0,0,1,,,,0,,,77,58
1335296,note_on,,,,,0,0,1,,,,0,,,89,72
1335296,note_on,,,,,0,0,1,,,,0,,,44,50
1335296,note_off,,,,,0,0,1,,,,0,,,91,0
1335341,control_change,,,,,45,0,1,,,,0,64,0,,
1335637,note_on,,,,,296,0,1,,,,0,,,48,50
1335808,note_on,,,,,0,0,1,,,,0,,,87,68
1335808,note_on,,,,,0,0,1,,,,0,,,75,56
1335808,note_off,,,,,0,0,1,,,,0,,,89,0
1335808,note_off,,,,,171,0,1,,,,0,,,77,0
1335979,note_on,,,,,171,0,1,,,,0,,,53,50
1336320,note_on,,,,,0,0,1,,,,0,,,46,62
1336320,note_on,,,,,0,0,1,,,,0,,,86,76
1336320,note_on,,,,,0,0,1,,,,0,,,74,62
1336320,note_off,,,,,0,0,1,,,,0,,,53,0
1336320,note_off,,,,,0,0,1,,,,0,,,48,0
1336320,control_change,,,,,0,0,1,,,,0,64,0,,
1336320,note_off,,,,,0,0,1,,,,0,,,87,0
1336320,note_off,,,,,0,0,1,,,,0,,,75,0
1336320,control_change,,,,,0,0,1,,,,0,64,0,,
1336320,control_change,,,,,0,0,1,,,,0,64,0,,
1336320,control_change,,,,,341,0,1,,,,0,64,0,,
1336320,note_off,,,,,0,0,1,,,,0,,,44,0
1336320,control_change,,,,,0,0,1,,,,0,64,0,,
1336320,set_tempo,,,,,3072,1,0,,333333,,,,,,
1336661,note_on,,,,,341,0,1,,,,0,,,53,50
1337003,note_on,,,,,342,0,1,,,,0,,,56,50
1337088,set_tempo,,,,,768,1,0,,375000,,,,,,
1337088,note_on,,,,,0,0,1,,,,0,,,89,68
1337088,note_on,,,,,0,0,1,,,,0,,,77,54
1337088,note_off,,,,,0,0,1,,,,0,,,86,0
1337088,note_off,,,,,85,0,1,,,,0,,,74,0
1337344,note_off,,,,,256,0,1,,,,0,,,77,0
1337344,set_tempo,,,,,256,1,0,,333333,,,,,,
1337344,note_on,,,,,0,0,1,,,,0,,,86,72
1337344,note_on,,,,,0,0,1,,,,0,,,74,58
1337344,note_off,,,,,0,0,1,,,,0,,,56,0
1337344,note_off,,,,,0,0,1,,,,0,,,53,0
1337344,note_off,,,,,0,0,1,,,,0,,,46,0
1337344,note_on,,,,,0,0,1,,,,0,,,46,50
1337344,note_off,,,,,0,0,1,,,,0,,,89,0
1337685,note_on,,,,,341,0,1,,,,0,,,53,50
1338027,note_on,,,,,342,0,1,,,,0,,,56,50
1338112,set_tempo,,,,,768,1,0,,375000,,,,,,
1338112,note_off,,,,,0,0,1,,,,0,,,86,0
1338112,note_off,,,,,85,0,1,,,,0,,,74,0
1338112,note_on,,,,,0,0,1,,,,0,,,77,54
1338112,note_on,,,,,0,0,1,,,,0,,,89,68
1338368,note_off,,,,,0,0,1,,,,0,,,46,0
1338368,note_on,,,,,0,0,1,,,,0,,,87,64
1338368,note_on,,,,,0,0,1,,,,0,,,51,51
1338368,note_off,,,,,0,0,1,,,,0,,,53,0
1338368,set_tempo,,,,,256,1,0,,333333,,,,,,
1338368,note_on,,,,,0,0,1,,,,0,,,75,49
1338368,note_off,,,,,0,0,1,,,,0,,,56,0
1338368,note_off,,,,,0,0,1,,,,0,,,77,0
1338368,control_change,,,,,0,0,1,,,,0,64,0,,
1338368,control_change,,,,,256,0,1,,,,0,64,0,,
1338368,note_off,,,,,0,0,1,,,,0,,,89,0
1338645,control_change,,,,,277,0,1,,,,0,64,127,,
1338709,note_on,,,,,64,0,1,,,,0,,,55,49
1339051,note_on,,,,,0,0,1,,,,0,,,63,46
1339051,note_off,,,,,342,0,1,,,,0,,,55,0
1339226,control_change,,,,,175,0,1,,,,0,64,0,,
1339272,note_off,,,,,0,0,1,,,,0,,,87,0
1339272,note_off,,,,,46,0,1,,,,0,,,75,0
1339392,note_off,,,,,0,0,1,,,,0,,,63,0
1339392,note_off,,,,,0,0,1,,,,0,,,51,0
1339392,note_on,,,,,0,0,1,,,,0,,,87,66
1339392,note_on,,,,,120,0,1,,,,0,,,75,50
1339392,note_on,,,,,0,0,1,,,,0,,,53,54
1339641,control_change,,,,,249,0,1,,,,0,64,127,,
1339733,note_on,,,,,92,0,1,,,,0,,,56,51
1340075,note_on,,,,,0,0,1,,,,0,,,63,48
1340075,note_off,,,,,342,0,1,,,,0,,,56,0
1340222,control_change,,,,,147,0,1,,,,0,64,0,,
1340296,note_off,,,,,74,0,1,,,,0,,,75,0
1340296,note_off,,,,,0,0,1,,,,0,,,87,0
1340416,control_change,,,,,120,0,1,,,,0,64,0,,
1340416,control_change,,,,,0,0,1,,,,0,64,0,,
1340416,note_on,,,,,0,0,1,,,,0,,,54,56
1340416,note_off,,,,,0,0,1,,,,0,,,53,0
1340416,note_off,,,,,0,0,1,,,,0,,,63,0
1340416,note_on,,,,,0,0,1,,,,0,,,75,52
1340416,note_on,,,,,0,0,1,,,,0,,,87,68
1340416,control_change,,,,,0,0,1,,,,0,64,0,,
1340693,control_change,,,,,277,0,1,,,,0,64,127,,
1340757,note_on,,,,,64,0,1,,,,0,,,57,53
1341099,note_off,,,,,342,0,1,,,,0,,,57,0
1341099,note_on,,,,,0,0,1,,,,0,,,63,50
1341274,control_change,,,,,175,0,1,,,,0,64,0,,
1341320,note_off,,,,,46,0,1,,,,0,,,75,0
1341320,note_off,,,,,0,0,1,,,,0,,,87,0
1341440,note_on,,,,,0,0,1,,,,0,,,87,70
1341440,note_on,,,,,120,0,1,,,,0,,,75,54
1341440,note_on,,,,,0,0,1,,,,0,,,55,59
1341440,note_off,,,,,0,0,1,,,,0,,,63,0
1341440,note_off,,,,,0,0,1,,,,0,,,54,0
1341689,control_change,,,,,249,0,1,,,,0,64,127,,
1341781,note_on,,,,,92,0,1,,,,0,,,58,56
1342123,note_off,,,,,342,0,1,,,,0,,,58,0
1342123,note_on,,,,,0,0,1,,,,0,,,63,52
1342270,control_change,,,,,147,0,1,,,,0,64,0,,
1342344,note_off,,,,,74,0,1,,,,0,,,75,0
1342344,note_off,,,,,0,0,1,,,,0,,,87,0
1342464,control_change,,,,,120,0,1,,,,0,64,0,,
1342464,set_tempo,,,,,4096,1,0,,375000,,,,,,
1342464,control_change,,,,,0,0,1,,,,0,64,0,,
1342464,note_off,,,,,0,0,1,,,,0,,,55,0
1342464,note_off,,,,,0,0,1,,,,0,,,63,0
1342464,note_on,,,,,0,0,1,,,,0,,,77,51
1342464,note_on,,,,,0,0,1,,,,0,,,89,67
1342464,note_on,,,,,0,0,1,,,,0,,,56,61
1342464,control_change,,,,,0,0,1,,,,0,64,0,,
1342741,control_change,,,,,277,0,1,,,,0,64,127,,
1342805,note_on,,,,,64,0,1,,,,0,,,63,58
1342896,note_off,,,,,0,0,1,,,,0,,,89,0
1342896,note_off,,,,,91,0,1,,,,0,,,77,0
1342976,set_tempo,,,,,512,1,0,,333333,,,,,,
1342976,note_on,,,,,0,0,1,,,,0,,,89,68
1342976,note_on,,,,,80,0,1,,,,0,,,77,52
1343147,note_on,,,,,0,0,1,,,,0,,,65,54
1343147,note_off,,,,,171,0,1,,,,0,,,63,0
1343195,control_change,,,,,48,0,1,,,,0,64,127,,
1343408,note_off,,,,,0,0,1,,,,0,,,89,0
1343408,note_off,,,,,213,0,1,,,,0,,,77,0
1343488,note_on,,,,,80,0,1,,,,0,,,77,53
1343488,note_off,,,,,0,0,1,,,,0,,,56,0
1343488,note_off,,,,,0,0,1,,,,0,,,65,0
1343488,note_on,,,,,0,0,1,,,,0,,,58,64
1343488,note_on,,,,,0,0,1,,,,0,,,89,69
1343829,note_on,,,,,341,0,1,,,,0,,,63,61
1343920,note_off,,,,,91,0,1,,,,0,,,77,0
1343920,note_off,,,,,0,0,1,,,,0,,,89,0
1344000,note_on,,,,,80,0,1,,,,0,,,77,54
1344000,note_on,,,,,0,0,1,,,,0,,,89,70
1344171,note_on,,,,,0,0,1,,,,0,,,65,56
1344171,note_off,,,,,171,0,1,,,,0,,,63,0
1344318,control_change,,,,,147,0,1,,,,0,64,0,,
1344432,note_off,,,,,0,0,1,,,,0,,,89,0
1344432,note_off,,,,,114,0,1,,,,0,,,77,0
1344512,note_on,,,,,0,0,1,,,,0,,,59,66
1344512,note_on,,,,,0,0,1,,,,0,,,89,72
1344512,control_change,,,,,0,0,1,,,,0,64,0,,
1344512,control_change,,,,,0,0,1,,,,0,64,0,,
1344512,control_change,,,,,0,0,1,,,,0,64,0,,
1344512,control_change,,,,,0,0,1,,,,0,64,0,,
1344512,note_off,,,,,0,0,1,,,,0,,,58,0
1344512,note_off,,,,,0,0,1,,,,0,,,65,0
1344512,note_on,,,,,0,0,1,,,,0,,,77,55
1344512,control_change,,,,,80,0,1,,,,0,64,0,,
1344789,control_change,,,,,0,0,1,,,,0,64,127,,
1344789,control_change,,,,,277,0,1,,,,0,64,127,,
1344853,note_on,,,,,64,0,1,,,,0,,,63,63
1344944,note_off,,,,,91,0,1,,,,0,,,77,0
1344944,note_off,,,,,0,0,1,,,,0,,,89,0
1345024,note_on,,,,,0,0,1,,,,0,,,89,72
1345024,note_on,,,,,80,0,1,,,,0,,,77,55
1345195,note_on,,,,,0,0,1,,,,0,,,65,58
1345195,note_off,,,,,171,0,1,,,,0,,,63,0
1345243,control_change,,,,,48,0,1,,,,0,64,127,,
1345370,control_change,,,,,127,0,1,,,,0,64,0,,
1345456,note_off,,,,,86,0,1,,,,0,,,77,0
1345456,note_off,,,,,0,0,1,,,,0,,,89,0
1345536,note_on,,,,,0,0,1,,,,0,,,57,68
1345536,note_off,,,,,0,0,1,,,,0,,,59,0
1345536,note_off,,,,,0,0,1,,,,0,,,65,0
1345536,note_on,,,,,80,0,1,,,,0,,,77,56
1345536,note_on,,,,,0,0,1,,,,0,,,89,74
1345785,control_change,,,,,249,0,1,,,,0,64,127,,
1345877,note_on,,,,,92,0,1,,,,0,,,63,65
1345968,note_off,,,,,91,0,1,,,,0,,,77,0
1345968,note_off,,,,,0,0,1,,,,0,,,89,0
1346048,note_on,,,,,0,0,1,,,,0,,,89,74
1346048,note_on,,,,,80,0,1,,,,0,,,77,57
1346219,note_on,,,,,0,0,1,,,,0,,,65,61
1346219,note_off,,,,,171,0,1,,,,0,,,63,0
1346366,control_change,,,,,147,0,1,,,,0,64,0,,
1346366,control_change,,,,,0,0,1,,,,0,64,0,,
1346432,note_on,,,,,66,0,1,,,,0,,,93,58
1346480,note_off,,,,,0,0,1,,,,0,,,89,0
1346480,note_off,,,,,48,0,1,,,,0,,,77,0
1346560,control_change,,,,,80,0,1,,,,0,64,0,,
1346560,control_change,,,,,0,0,1,,,,0,64,0,,
1346560,note_off,,,,,0,0,1,,,,0,,,57,0
1346560,note_off,,,,,0,0,1,,,,0,,,65,0
1346560,note_on,,,,,0,0,1,,,,0,,,84,58
1346560,note_on,,,,,0,0,1,,,,0,,,34,57
1346560,note_on,,,,,0,0,1,,,,0,,,96,76
1346560,note_on,,,,,0,0,1,,,,0,,,46,73
1346560,note_off,,,,,0,0,1,,,,0,,,93,0
1346560,set_tempo,,,,,3584,1,0,,428571,,,,,,
1346715,control_change,,,,,155,0,1,,,,0,64,127,,
1347072,note_off,,,,,357,0,1,,,,0,,,84,0
1347072,note_off,,,,,0,0,1,,,,0,,,96,0
1347072,note_off,,,,,0,0,1,,,,0,,,34,0
1347072,note_off,,,,,0,0,1,,,,0,,,46,0
1347243,control_change,,,,,171,0,1,,,,0,64,0,,
1347584,note_on,,,,,341,0,1,,,,0,,,82,56
1347584,note_on,,,,,0,0,1,,,,0,,,94,74
1347584,note_on,,,,,0,0,1,,,,0,,,58,52
1347584,note_on,,,,,0,0,1,,,,0,,,62,52
1347584,note_on,,,,,0,0,1,,,,0,,,68,64
1347584,set_tempo,,,,,1024,1,0,,375000,,,,,,
1347739,control_change,,,,,155,0,1,,,,0,64,127,,
1348453,control_change,,,,,714,0,1,,,,0,64,0,,
1348608,control_change,,,,,155,0,1,,,,0,64,0,,
1348608,control_change,,,,,0,0,1,,,,0,64,0,,
1348782,note_off,,,,,174,0,1,,,,0,,,82,0
1348782,note_off,,,,,0,0,1,,,,0,,,94,0
1349120,note_on,,,,,338,0,1,,,,0,,,80,52
1349120,note_on,,,,,0,0,1,,,,0,,,92,68
1349294,note_off,,,,,174,0,1,,,,0,,,80,0
1349294,note_off,,,,,0,0,1,,,,0,,,92,0
1349632,note_on,,,,,338,0,1,,,,0,,,79,51
1349632,note_on,,,,,0,0,1,,,,0,,,91,67
1349806,note_off,,,,,0,0,1,,,,0,,,91,0
1349806,note_off,,,,,174,0,1,,,,0,,,79,0
1350144,note_on,,,,,338,0,1,,,,0,,,77,50
1350144,note_on,,,,,0,0,1,,,,0,,,89,65
1350318,note_off,,,,,174,0,1,,,,0,,,77,0
1350318,note_off,,,,,0,0,1,,,,0,,,89,0
1350656,note_on,,,,,0,0,1,,,,0,,,87,64
1350656,control_change,,,,,338,0,1,,,,0,64,0,,
1350656,control_change,,,,,0,0,1,,,,0,64,0,,
1350656,control_change,,,,,0,0,1,,,,0,64,0,,
1350656,control_change,,,,,0,0,1,,,,0,64,0,,
1350656,note_off,,,,,0,0,1,,,,0,,,58,0
1350656,note_off,,,,,0,0,1,,,,0,,,62,0
1350656,note_off,,,,,0,0,1,,,,0,,,68,0
1350656,note_on,,,,,0,0,1,,,,0,,,75,49
1350656,note_on,,,,,0,0,1,,,,0,,,39,42
1350656,set_tempo,,,,,3072,1,0,,333333,,,,,,
1350933,control_change,,,,,277,0,1,,,,0,64,127,,
1350997,note_on,,,,,64,0,1,,,,0,,,43,40
1351339,note_off,,,,,342,0,1,,,,0,,,43,0
1351339,note_on,,,,,0,0,1,,,,0,,,51,37
1351514,control_change,,,,,175,0,1,,,,0,64,0,,
1351560,note_off,,,,,46,0,1,,,,0,,,75,0
1351560,note_off,,,,,0,0,1,,,,0,,,87,0
1351680,note_on,,,,,120,0,1,,,,0,,,63,43
1351680,note_on,,,,,0,0,1,,,,0,,,41,44
1351680,note_off,,,,,0,0,1,,,,0,,,51,0
1351680,note_off,,,,,0,0,1,,,,0,,,39,0
1351680,note_on,,,,,0,0,1,,,,0,,,75,59
1351929,control_change,,,,,249,0,1,,,,0,64,127,,
1352021,note_on,,,,,92,0,1,,,,0,,,44,41
1352363,note_on,,,,,0,0,1,,,,0,,,51,38
1352363,note_off,,,,,342,0,1,,,,0,,,44,0
1352510,control_change,,,,,147,0,1,,,,0,64,0,,
1352584,note_off,,,,,0,0,1,,,,0,,,75,0
1352584,note_off,,,,,74,0,1,,,,0,,,63,0
1352704,control_change,,,,,0,0,1,,,,0,64,0,,
1352704,control_change,,,,,120,0,1,,,,0,64,0,,
1352704,control_change,,,,,0,0,1,,,,0,64,0,,
1352704,note_off,,,,,0,0,1,,,,0,,,41,0
1352704,note_off,,,,,0,0,1,,,,0,,,51,0
1352704,note_on,,,,,0,0,1,,,,0,,,63,45
1352704,note_on,,,,,0,0,1,,,,0,,,75,61
1352704,note_on,,,,,0,0,1,,,,0,,,42,46
1352704,control_change,,,,,0,0,1,,,,0,64,0,,
1352704,control_change,,,,,0,0,1,,,,0,64,0,,
1352981,control_change,,,,,277,0,1,,,,0,64,127,,
1353045,note_on,,,,,64,0,1,,,,0,,,45,42
1353387,note_off,,,,,342,0,1,,,,0,,,45,0
1353387,note_on,,,,,0,0,1,,,,0,,,51,39
1353562,control_change,,,,,175,0,1,,,,0,64,0,,
1353608,note_off,,,,,46,0,1,,,,0,,,63,0
1353608,note_off,,,,,0,0,1,,,,0,,,75,0
1353728,note_on,,,,,120,0,1,,,,0,,,63,47
1353728,note_on,,,,,0,0,1,,,,0,,,75,63
1353728,note_on,,,,,0,0,1,,,,0,,,43,48
1353728,note_off,,,,,0,0,1,,,,0,,,42,0
1353728,note_off,,,,,0,0,1,,,,0,,,51,0
1353977,control_change,,,,,249,0,1,,,,0,64,127,,
1354069,note_on,,,,,92,0,1,,,,0,,,46,45
1354411,note_off,,,,,342,0,1,,,,0,,,46,0
1354411,note_on,,,,,0,0,1,,,,0,,,51,40
1354558,control_change,,,,,147,0,1,,,,0,64,0,,
1354632,note_off,,,,,74,0,1,,,,0,,,63,0
1354632,note_off,,,,,0,0,1,,,,0,,,75,0
1354752,control_change,,,,,0,0,1,,,,0,64,0,,
1354752,set_tempo,,,,,4096,1,0,,375000,,,,,,
1354752,control_change,,,,,120,0,1,,,,0,64,0,,
1354752,control_change,,,,,0,0,1,,,,0,64,0,,
1354752,control_change,,,,,0,0,1,,,,0,64,0,,
1354752,control_change,,,,,0,0,1,,,,0,64,0,,
1354752,note_off,,,,,0,0,1,,,,0,,,43,0
1354752,note_off,,,,,0,0,1,,,,0,,,51,0
1354752,note_on,,,,,0,0,1,,,,0,,,65,44
1354752,note_on,,,,,0,0,1,,,,0,,,77,60
1354752,note_on,,,,,0,0,1,,,,0,,,44,49
1355029,control_change,,,,,277,0,1,,,,0,64,127,,
1355093,note_on,,,,,64,0,1,,,,0,,,51,46
1355184,note_off,,,,,91,0,1,,,,0,,,65,0
1355184,note_off,,,,,0,0,1,,,,0,,,77,0
1355264,note_on,,,,,80,0,1,,,,0,,,65,45
1355264,note_on,,,,,0,0,1,,,,0,,,77,61
1355264,set_tempo,,,,,512,1,0,,333333,,,,,,
1355435,note_off,,,,,171,0,1,,,,0,,,51,0
1355435,note_on,,,,,0,0,1,,,,0,,,53,42
1355610,control_change,,,,,175,0,1,,,,0,64,0,,
1355696,note_off,,,,,86,0,1,,,,0,,,65,0
1355696,note_off,,,,,0,0,1,,,,0,,,77,0
1355776,note_on,,,,,80,0,1,,,,0,,,65,46
1355776,note_on,,,,,0,0,1,,,,0,,,77,62
1355776,note_on,,,,,0,0,1,,,,0,,,46,51
1355776,note_off,,,,,0,0,1,,,,0,,,44,0
1355776,note_off,,,,,0,0,1,,,,0,,,53,0
1356025,control_change,,,,,249,0,1,,,,0,64,127,,
1356117,note_on,,,,,92,0,1,,,,0,,,51,48
1356208,note_off,,,,,91,0,1,,,,0,,,65,0
1356208,note_off,,,,,0,0,1,,,,0,,,77,0
1356288,note_on,,,,,80,0,1,,,,0,,,65,47
1356288,note_on,,,,,0,0,1,,,,0,,,77,63
1356459,note_on,,,,,0,0,1,,,,0,,,53,43
1356459,note_off,,,,,171,0,1,,,,0,,,51,0
1356606,control_change,,,,,147,0,1,,,,0,64,0,,
1356720,note_off,,,,,0,0,1,,,,0,,,77,0
1356720,note_off,,,,,114,0,1,,,,0,,,65,0
1356800,control_change,,,,,0,0,1,,,,0,64,0,,
1356800,control_change,,,,,0,0,1,,,,0,64,0,,
1356800,control_change,,,,,0,0,1,,,,0,64,0,,
1356800,note_off,,,,,0,0,1,,,,0,,,46,0
1356800,note_off,,,,,0,0,1,,,,0,,,53,0
1356800,note_on,,,,,0,0,1,,,,0,,,65,48
1356800,note_on,,,,,0,0,1,,,,0,,,47,52
1356800,control_change,,,,,0,0,1,,,,0,64,0,,
1356800,control_change,,,,,80,0,1,,,,0,64,0,,
1356800,note_on,,,,,0,0,1,,,,0,,,77,65
1357077,control_change,,,,,277,0,1,,,,0,64,127,,
1357141,note_on,,,,,64,0,1,,,,0,,,51,49
1357232,note_off,,,,,91,0,1,,,,0,,,65,0
1357232,note_off,,,,,0,0,1,,,,0,,,77,0
1357312,note_on,,,,,80,0,1,,,,0,,,65,45
1357312,note_on,,,,,0,0,1,,,,0,,,77,60
1357483,note_on,,,,,0,0,1,,,,0,,,53,44
1357483,note_off,,,,,171,0,1,,,,0,,,51,0
1357658,control_change,,,,,175,0,1,,,,0,64,0,,
1357744,note_off,,,,,0,0,1,,,,0,,,77,0
1357744,note_off,,,,,86,0,1,,,,0,,,65,0
1357824,note_off,,,,,0,0,1,,,,0,,,53,0
1357824,note_off,,,,,0,0,1,,,,0,,,47,0
1357824,note_on,,,,,80,0,1,,,,0,,,65,39
1357824,note_on,,,,,0,0,1,,,,0,,,77,55
1357824,note_on,,,,,0,0,1,,,,0,,,46,46
1358073,control_change,,,,,249,0,1,,,,0,64,127,,
1358165,note_on,,,,,92,0,1,,,,0,,,51,43
1358256,note_off,,,,,0,0,1,,,,0,,,77,0
1358256,note_off,,,,,91,0,1,,,,0,,,65,0
1358336,note_on,,,,,80,0,1,,,,0,,,65,32
1358336,note_on,,,,,0,0,1,,,,0,,,77,46
1358507,note_off,,,,,171,0,1,,,,0,,,51,0
1358507,note_on,,,,,0,0,1,,,,0,,,53,39
1358654,control_change,,,,,147,0,1,,,,0,64,0,,
1358768,note_off,,,,,114,0,1,,,,0,,,65,0
1358768,note_off,,,,,0,0,1,,,,0,,,77,0
1358848,control_change,,,,,80,0,1,,,,0,64,0,,
1358848,note_on,,,,,0,0,1,,,,0,,,77,48
1358848,note_on,,,,,0,0,1,,,,0,,,45,43
1358848,control_change,,,,,0,0,1,,,,0,64,0,,
1358848,control_change,,,,,0,0,1,,,,0,64,0,,
1358848,control_change,,,,,0,0,1,,,,0,64,0,,
1358848,note_off,,,,,0,0,1,,,,0,,,46,0
1358848,note_off,,,,,0,0,1,,,,0,,,53,0
1358848,note_on,,,,,0,0,1,,,,0,,,65,35
1358848,control_change,,,,,0,0,1,,,,0,64,0,,
1359125,control_change,,,,,277,0,1,,,,0,64,127,,
1359189,note_on,,,,,64,0,1,,,,0,,,51,41
1359360,note_off,,,,,0,0,1,,,,0,,,77,0
1359360,note_on,,,,,0,0,1,,,,0,,,65,39
1359360,note_off,,,,,171,0,1,,,,0,,,65,0
1359360,note_on,,,,,0,0,1,,,,0,,,77,53
1359531,note_on,,,,,0,0,1,,,,0,,,53,38
1359531,note_off,,,,,171,0,1,,,,0,,,51,0
1359706,control_change,,,,,175,0,1,,,,0,64,0,,
1359872,note_on,,,,,0,0,1,,,,0,,,77,58
1359872,note_off,,,,,166,0,1,,,,0,,,65,0
1359872,note_off,,,,,0,0,1,,,,0,,,77,0
1359872,note_off,,,,,0,0,1,,,,0,,,45,0
1359872,note_off,,,,,0,0,1,,,,0,,,53,0
1359872,note_on,,,,,0,0,1,,,,0,,,65,43
1359872,note_on,,,,,0,0,1,,,,0,,,46,50
1360121,control_change,,,,,249,0,1,,,,0,64,127,,
1360213,note_on,,,,,92,0,1,,,,0,,,51,47
1360384,note_off,,,,,171,0,1,,,,0,,,65,0
1360384,note_off,,,,,0,0,1,,,,0,,,77,0
1360384,note_on,,,,,0,0,1,,,,0,,,65,47
1360384,note_on,,,,,0,0,1,,,,0,,,77,63
1360555,note_on,,,,,0,0,1,,,,0,,,53,44
1360555,note_off,,,,,171,0,1,,,,0,,,51,0
1360702,control_change,,,,,147,0,1,,,,0,64,0,,
1360896,control_change,,,,,0,0,1,,,,0,64,0,,
1360896,control_change,,,,,194,0,1,,,,0,64,0,,
1360896,control_change,,,,,0,0,1,,,,0,64,0,,
1360896,control_change,,,,,0,0,1,,,,0,64,0,,
1360896,note_off,,,,,0,0,1,,,,0,,,65,0
1360896,note_off,,,,,0,0,1,,,,0,,,77,0
1360896,note_off,,,,,0,0,1,,,,0,,,46,0
1360896,note_off,,,,,0,0,1,,,,0,,,53,0
1360896,note_on,,,,,0,0,1,,,,0,,,65,48
1360896,note_on,,,,,0,0,1,,,,0,,,77,65
1360896,note_on,,,,,0,0,1,,,,0,,,48,52
1360896,control_change,,,,,0,0,1,,,,0,64,0,,
1361173,control_change,,,,,277,0,1,,,,0,64,127,,
1361237,note_on,,,,,64,0,1,,,,0,,,51,49
1361408,note_on,,,,,0,0,1,,,,0,,,65,45
1361408,note_off,,,,,0,0,1,,,,0,,,77,0
1361408,note_off,,,,,171,0,1,,,,0,,,65,0
1361408,note_on,,,,,0,0,1,,,,0,,,77,60
1361579,note_off,,,,,171,0,1,,,,0,,,51,0
1361579,note_on,,,,,0,0,1,,,,0,,,53,46
1361754,control_change,,,,,175,0,1,,,,0,64,0,,
1361920,note_off,,,,,166,0,1,,,,0,,,65,0
1361920,note_off,,,,,0,0,1,,,,0,,,77,0
1361920,note_off,,,,,0,0,1,,,,0,,,48,0
1361920,note_off,,,,,0,0,1,,,,0,,,53,0
1361920,note_on,,,,,0,0,1,,,,0,,,65,43
1361920,note_on,,,,,0,0,1,,,,0,,,77,58
1361920,note_on,,,,,0,0,1,,,,0,,,45,55
1362169,control_change,,,,,249,0,1,,,,0,64,127,,
1362261,note_on,,,,,92,0,1,,,,0,,,51,52
1362432,note_off,,,,,171,0,1,,,,0,,,65,0
1362432,note_on,,,,,0,0,1,,,,0,,,65,40
1362432,note_on,,,,,0,0,1,,,,0,,,77,54
1362432,note_off,,,,,0,0,1,,,,0,,,77,0
1362603,note_on,,,,,0,0,1,,,,0,,,53,48
1362603,note_off,,,,,171,0,1,,,,0,,,51,0
1362750,control_change,,,,,147,0,1,,,,0,64,0,,
1362944,note_off,,,,,0,0,1,,,,0,,,65,0
1362944,control_change,,,,,0,0,1,,,,0,64,0,,
1362944,control_change,,,,,0,0,1,,,,0,64,0,,
1362944,note_off,,,,,0,0,1,,,,0,,,53,0
1362944,control_change,,,,,0,0,1,,,,0,64,0,,
1362944,control_change,,,,,194,0,1,,,,0,64,0,,
1362944,note_on,,,,,0,0,1,,,,0,,,67,37
1362944,note_on,,,,,0,0,1,,,,0,,,79,51
1362944,note_on,,,,,0,0,1,,,,0,,,46,47
1362944,note_off,,,,,0,0,1,,,,0,,,77,0
1362944,control_change,,,,,0,0,1,,,,0,64,0,,
1362944,note_off,,,,,0,0,1,,,,0,,,45,0
1363221,control_change,,,,,277,0,1,,,,0,64,127,,
1363285,note_on,,,,,64,0,1,,,,0,,,52,45
1363456,note_on,,,,,0,0,1,,,,0,,,79,55
1363456,note_on,,,,,0,0,1,,,,0,,,67,41
1363456,note_off,,,,,0,0,1,,,,0,,,79,0
1363456,note_off,,,,,171,0,1,,,,0,,,67,0
1363627,note_on,,,,,0,0,1,,,,0,,,55,41
1363627,note_off,,,,,171,0,1,,,,0,,,52,0
1363802,control_change,,,,,175,0,1,,,,0,64,0,,
1363968,note_off,,,,,0,0,1,,,,0,,,55,0
1363968,note_off,,,,,0,0,1,,,,0,,,79,0
1363968,note_on,,,,,0,0,1,,,,0,,,67,44
1363968,note_off,,,,,166,0,1,,,,0,,,67,0
1363968,note_off,,,,,0,0,1,,,,0,,,46,0
1363968,note_on,,,,,0,0,1,,,,0,,,79,59
1363968,note_on,,,,,0,0,1,,,,0,,,48,51
1364217,control_change,,,,,249,0,1,,,,0,64,127,,
1364309,note_on,,,,,92,0,1,,,,0,,,52,49
1364480,note_on,,,,,0,0,1,,,,0,,,79,63
1364480,note_off,,,,,171,0,1,,,,0,,,67,0
1364480,note_on,,,,,0,0,1,,,,0,,,67,47
1364480,note_off,,,,,0,0,1,,,,0,,,79,0
1364651,note_off,,,,,171,0,1,,,,0,,,52,0
1364651,note_on,,,,,0,0,1,,,,0,,,55,45
1364798,control_change,,,,,147,0,1,,,,0,64,0,,
1364992,note_off,,,,,0,0,1,,,,0,,,48,0
1364992,note_off,,,,,0,0,1,,,,0,,,67,0
1364992,control_change,,,,,0,0,1,,,,0,64,0,,
1364992,control_change,,,,,0,0,1,,,,0,64,0,,
1364992,control_change,,,,,0,0,1,,,,0,64,0,,
1364992,control_change,,,,,194,0,1,,,,0,64,0,,
1364992,note_off,,,,,0,0,1,,,,0,,,79,0
1364992,control_change,,,,,0,0,1,,,,0,64,0,,
1364992,note_on,,,,,0,0,1,,,,0,,,67,48
1364992,note_on,,,,,0,0,1,,,,0,,,79,65
1364992,note_on,,,,,0,0,1,,,,0,,,49,55
1364992,note_off,,,,,0,0,1,,,,0,,,55,0
1365269,control_change,,,,,277,0,1,,,,0,64,127,,
1365333,note_on,,,,,64,0,1,,,,0,,,52,53
1365504,note_off,,,,,171,0,1,,,,0,,,67,0
1365504,note_off,,,,,0,0,1,,,,0,,,79,0
1365504,note_on,,,,,0,0,1,,,,0,,,67,48
1365504,note_on,,,,,0,0,1,,,,0,,,79,65
1365675,note_off,,,,,171,0,1,,,,0,,,52,0
1365675,note_on,,,,,0,0,1,,,,0,,,55,49
1365850,control_change,,,,,175,0,1,,,,0,64,0,,
1366016,note_off,,,,,0,0,1,,,,0,,,49,0
1366016,note_off,,,,,0,0,1,,,,0,,,55,0
1366016,note_on,,,,,0,0,1,,,,0,,,67,49
1366016,note_on,,,,,0,0,1,,,,0,,,79,67
1366016,note_on,,,,,0,0,1,,,,0,,,48,59
1366016,note_off,,,,,166,0,1,,,,0,,,67,0
1366016,note_off,,,,,0,0,1,,,,0,,,79,0
1366265,control_change,,,,,249,0,1,,,,0,64,127,,
1366357,note_on,,,,,92,0,1,,,,0,,,52,57
1366528,note_off,,,,,0,0,1,,,,0,,,79,0
1366528,note_on,,,,,0,0,1,,,,0,,,67,50
1366528,note_on,,,,,0,0,1,,,,0,,,79,67
1366528,note_off,,,,,171,0,1,,,,0,,,67,0
1366699,note_off,,,,,171,0,1,,,,0,,,52,0
1366699,note_on,,,,,0,0,1,,,,0,,,55,53
1366846,control_change,,,,,147,0,1,,,,0,64,0,,
1367040,control_change,,,,,194,0,1,,,,0,64,0,,
1367040,control_change,,,,,0,0,1,,,,0,64,0,,
1367040,note_off,,,,,0,0,1,,,,0,,,67,0
1367040,note_off,,,,,0,0,1,,,,0,,,79,0
1367040,note_off,,,,,0,0,1,,,,0,,,48,0
1367040,note_off,,,,,0,0,1,,,,0,,,55,0
1367040,note_on,,,,,0,0,1,,,,0,,,67,51
1367040,note_on,,,,,0,0,1,,,,0,,,79,67
1367040,note_on,,,,,0,0,1,,,,0,,,46,54
1367381,note_on,,,,,341,0,1,,,,0,,,52,51
1367552,note_on,,,,,0,0,1,,,,0,,,67,52
1367552,note_on,,,,,0,0,1,,,,0,,,79,68
1367552,note_off,,,,,0,0,1,,,,0,,,79,0
1367552,note_off,,,,,171,0,1,,,,0,,,67,0
1367723,note_off,,,,,171,0,1,,,,0,,,52,0
1367723,note_on,,,,,0,0,1,,,,0,,,55,47
1368064,note_off,,,,,341,0,1,,,,0,,,67,0
1368064,note_off,,,,,0,0,1,,,,0,,,79,0
1368064,note_off,,,,,0,0,1,,,,0,,,46,0
1368064,note_off,,,,,0,0,1,,,,0,,,55,0
1368064,note_on,,,,,0,0,1,,,,0,,,67,53
1368064,note_on,,,,,0,0,1,,,,0,,,79,69
1368064,note_on,,,,,0,0,1,,,,0,,,48,58
1368405,note_on,,,,,341,0,1,,,,0,,,52,56
1368576,note_off,,,,,0,0,1,,,,0,,,79,0
1368576,note_on,,,,,0,0,1,,,,0,,,79,70
1368576,note_off,,,,,171,0,1,,,,0,,,67,0
1368576,note_on,,,,,0,0,1,,,,0,,,67,54
1368747,note_off,,,,,171,0,1,,,,0,,,52,0
1368747,note_on,,,,,0,0,1,,,,0,,,55,51
1369088,note_off,,,,,0,0,1,,,,0,,,55,0
1369088,control_change,,,,,341,0,1,,,,0,64,0,,
1369088,control_change,,,,,0,0,1,,,,0,64,0,,
1369088,note_off,,,,,0,0,1,,,,0,,,67,0
1369088,note_off,,,,,0,0,1,,,,0,,,79,0
1369088,note_off,,,,,0,0,1,,,,0,,,48,0
1369088,note_on,,,,,0,0,1,,,,0,,,67,55
1369088,note_on,,,,,0,0,1,,,,0,,,79,72
1369088,note_on,,,,,0,0,1,,,,0,,,49,63
1369429,note_on,,,,,341,0,1,,,,0,,,52,60
1369600,note_off,,,,,171,0,1,,,,0,,,67,0
1369600,note_off,,,,,0,0,1,,,,0,,,79,0
1369600,note_on,,,,,0,0,1,,,,0,,,67,55
1369600,note_on,,,,,0,0,1,,,,0,,,79,72
1369771,note_off,,,,,171,0,1,,,,0,,,52,0
1369771,note_on,,,,,0,0,1,,,,0,,,55,55
1370112,note_off,,,,,341,0,1,,,,0,,,67,0
1370112,note_off,,,,,0,0,1,,,,0,,,49,0
1370112,note_off,,,,,0,0,1,,,,0,,,79,0
1370112,note_on,,,,,0,0,1,,,,0,,,67,56
1370112,note_on,,,,,0,0,1,,,,0,,,79,74
1370112,note_on,,,,,0,0,1,,,,0,,,46,67
1370112,set_tempo,,,,,14848,1,0,,342857,,,,,,
1370112,note_off,,,,,0,0,1,,,,0,,,55,0
1370453,note_on,,,,,341,0,1,,,,0,,,52,64
1370624,note_off,,,,,171,0,1,,,,0,,,67,0
1370624,note_off,,,,,0,0,1,,,,0,,,79,0
1370624,note_on,,,,,0,0,1,,,,0,,,67,57
1370624,set_tempo,,,,,512,1,0,,352941,,,,,,
1370624,note_on,,,,,0,0,1,,,,0,,,79,74
1370795,note_on,,,,,0,0,1,,,,0,,,55,60
1370795,note_off,,,,,171,0,1,,,,0,,,52,0
1371136,note_on,,,,,0,0,1,,,,0,,,56,64
1371136,note_on,,,,,0,0,1,,,,0,,,51,52
1371136,note_on,,,,,0,0,1,,,,0,,,80,80
1371136,control_change,,,,,341,0,1,,,,0,64,0,,
1371136,control_change,,,,,0,0,1,,,,0,64,0,,
1371136,note_off,,,,,0,0,1,,,,0,,,67,0
1371136,note_off,,,,,0,0,1,,,,0,,,79,0
1371136,note_off,,,,,0,0,1,,,,0,,,46,0
1371136,note_off,,,,,0,0,1,,,,0,,,55,0
1371136,note_on,,,,,0,0,1,,,,0,,,68,64
1371136,note_on,,,,,0,0,1,,,,0,,,48,52
1371136,set_tempo,,,,,512,1,0,,375000,,,,,,
1371648,note_off,,,,,0,0,1,,,,0,,,51,0
1371648,note_off,,,,,512,0,1,,,,0,,,68,0
1371648,note_off,,,,,0,0,1,,,,0,,,56,0
1371648,note_off,,,,,0,0,1,,,,0,,,48,0
1371648,note_off,,,,,0,0,1,,,,0,,,80,0
1372160,note_on,,,,,0,0,1,,,,0,,,51,58
1372160,note_on,,,,,512,0,1,,,,0,,,72,64
1372160,note_on,,,,,0,0,1,,,,0,,,75,64
1372160,note_on,,,,,0,0,1,,,,0,,,80,64
1372160,note_on,,,,,0,0,1,,,,0,,,84,80
1372160,note_on,,,,,0,0,1,,,,0,,,44,58
1372160,note_on,,,,,0,0,1,,,,0,,,56,70
1372160,set_tempo,,,,,1024,1,0,,333333,,,,,,
1373184,control_change,,,,,1024,0,1,,,,0,64,0,,
1373184,control_change,,,,,0,0,1,,,,0,64,0,,
1375232,note_off,,,,,0,0,1,,,,0,,,80,0
1375232,control_change,,,,,2048,0,1,,,,0,64,0,,
1375232,control_change,,,,,0,0,1,,,,0,64,0,,
1375232,note_off,,,,,0,0,1,,,,0,,,72,0
1375232,note_off,,,,,0,0,1,,,,0,,,44,0
1375232,note_off,,,,,0,0,1,,,,0,,,84,0
1375232,note_off,,,,,0,0,1,,,,0,,,75,0
1375232,note_on,,,,,0,0,1,,,,0,,,82,80
1375232,note_off,,,,,0,0,1,,,,0,,,51,0
1375232,set_tempo,,,,,3072,1,0,,352941,,,,,,
1375232,note_on,,,,,0,0,1,,,,0,,,46,52
1375232,note_on,,,,,0,0,1,,,,0,,,55,52
1375232,note_on,,,,,0,0,1,,,,0,,,58,64
1375232,note_on,,,,,0,0,1,,,,0,,,70,64
1375232,note_off,,,,,0,0,1,,,,0,,,56,0
1376016,note_off,,,,,0,0,1,,,,0,,,58,0
1376016,note_off,,,,,0,0,1,,,,0,,,55,0
1376016,note_off,,,,,0,0,1,,,,0,,,46,0
1376016,note_off,,,,,0,0,1,,,,0,,,82,0
1376016,note_off,,,,,784,0,1,,,,0,,,70,0
1376256,note_on,,,,,240,0,1,,,,0,,,68,59
1376256,note_on,,,,,0,0,1,,,,0,,,46,46
1376256,note_on,,,,,0,0,1,,,,0,,,53,46
1376256,note_on,,,,,0,0,1,,,,0,,,56,58
1376256,note_on,,,,,0,0,1,,,,0,,,80,75
1376528,note_off,,,,,272,0,1,,,,0,,,68,0
1376528,note_off,,,,,0,0,1,,,,0,,,80,0
1376528,note_off,,,,,0,0,1,,,,0,,,46,0
1376528,note_off,,,,,0,0,1,,,,0,,,56,0
1376528,note_off,,,,,0,0,1,,,,0,,,53,0
1376568,control_change,,,,,40,0,1,,,,0,64,127,,
1376768,note_on,,,,,200,0,1,,,,0,,,67,59
1376768,note_on,,,,,0,0,1,,,,0,,,79,75
1376768,note_on,,,,,0,0,1,,,,0,,,46,46
1376768,note_on,,,,,0,0,1,,,,0,,,51,46
1376768,note_on,,,,,0,0,1,,,,0,,,55,58
1377040,note_off,,,,,0,0,1,,,,0,,,55,0
1377040,note_off,,,,,0,0,1,,,,0,,,51,0
1377040,note_off,,,,,0,0,1,,,,0,,,79,0
1377040,note_off,,,,,272,0,1,,,,0,,,67,0
1377040,note_off,,,,,0,0,1,,,,0,,,46,0
1377102,control_change,,,,,62,0,1,,,,0,64,0,,
1377280,control_change,,,,,0,0,1,,,,0,64,0,,
1377280,note_on,,,,,0,0,1,,,,0,,,68,61
1377280,note_on,,,,,0,0,1,,,,0,,,46,48
1377280,note_on,,,,,0,0,1,,,,0,,,53,48
1377280,note_on,,,,,0,0,1,,,,0,,,56,60
1377280,note_on,,,,,0,0,1,,,,0,,,80,77
1377280,control_change,,,,,178,0,1,,,,0,64,0,,
1377654,note_off,,,,,0,0,1,,,,0,,,56,0
1377654,note_off,,,,,0,0,1,,,,0,,,53,0
1377654,note_off,,,,,0,0,1,,,,0,,,46,0
1377654,note_off,,,,,0,0,1,,,,0,,,80,0
1377654,note_off,,,,,374,0,1,,,,0,,,68,0
1378304,note_on,,,,,0,0,1,,,,0,,,82,80
1378304,note_on,,,,,0,0,1,,,,0,,,46,52
1378304,note_on,,,,,0,0,1,,,,0,,,50,52
1378304,note_on,,,,,0,0,1,,,,0,,,58,64
1378304,note_on,,,,,650,0,1,,,,0,,,70,64
1378678,note_off,,,,,374,0,1,,,,0,,,70,0
1378678,note_off,,,,,0,0,1,,,,0,,,82,0
1378678,note_off,,,,,0,0,1,,,,0,,,46,0
1378678,note_off,,,,,0,0,1,,,,0,,,58,0
1378678,note_off,,,,,0,0,1,,,,0,,,50,0
1379328,control_change,,,,,650,0,1,,,,0,64,0,,
1379328,control_change,,,,,0,0,1,,,,0,64,0,,
1379328,note_on,,,,,0,0,1,,,,0,,,67,64
1379328,note_on,,,,,0,0,1,,,,0,,,79,80
1379328,note_on,,,,,0,0,1,,,,0,,,51,52
1379328,note_on,,,,,0,0,1,,,,0,,,55,52
1379328,set_tempo,,,,,4096,1,0,,428571,,,,,,
1379712,note_off,,,,,384,0,1,,,,0,,,67,0
1379712,note_off,,,,,0,0,1,,,,0,,,79,0
1379712,note_off,,,,,0,0,1,,,,0,,,51,0
1379712,note_off,,,,,0,0,1,,,,0,,,55,0
1380352,note_on,,,,,0,0,1,,,,0,,,87,91
1380352,note_on,,,,,0,0,1,,,,0,,,56,74
1380352,note_on,,,,,0,0,1,,,,0,,,84,75
1380352,note_on,,,,,0,0,1,,,,0,,,80,75
1380352,note_on,,,,,640,0,1,,,,0,,,75,75
1380352,set_tempo,,,,,1024,1,0,,333333,,,,,,
1380352,note_on,,,,,0,0,1,,,,0,,,44,62
1380352,note_on,,,,,0,0,1,,,,0,,,51,62
1381376,control_change,,,,,0,0,1,,,,0,64,0,,
1381376,control_change,,,,,1024,0,1,,,,0,64,0,,
1383424,note_off,,,,,0,0,1,,,,0,,,87,0
1383424,note_off,,,,,0,0,1,,,,0,,,84,0
1383424,note_off,,,,,0,0,1,,,,0,,,80,0
1383424,note_off,,,,,0,0,1,,,,0,,,51,0
1383424,control_change,,,,,0,0,1,,,,0,64,0,,
1383424,control_change,,,,,2048,0,1,,,,0,64,0,,
1383424,note_off,,,,,0,0,1,,,,0,,,56,0
1383424,note_on,,,,,0,0,1,,,,0,,,70,64
1383424,note_on,,,,,0,0,1,,,,0,,,82,80
1383424,note_on,,,,,0,0,1,,,,0,,,46,52
1383424,note_on,,,,,0,0,1,,,,0,,,55,52
1383424,note_off,,,,,0,0,1,,,,0,,,44,0
1383424,control_change,,,,,0,0,1,,,,0,64,0,,
1383424,note_off,,,,,0,0,1,,,,0,,,75,0
1383424,set_tempo,,,,,3072,1,0,,342857,,,,,,
1383424,note_on,,,,,0,0,1,,,,0,,,58,64
1384208,note_off,,,,,0,0,1,,,,0,,,46,0
1384208,note_off,,,,,0,0,1,,,,0,,,82,0
1384208,note_off,,,,,784,0,1,,,,0,,,70,0
1384208,note_off,,,,,0,0,1,,,,0,,,58,0
1384208,note_off,,,,,0,0,1,,,,0,,,55,0
1384448,note_on,,,,,0,0,1,,,,0,,,80,75
1384448,note_on,,,,,0,0,1,,,,0,,,46,46
1384448,note_on,,,,,0,0,1,,,,0,,,56,58
1384448,note_on,,,,,240,0,1,,,,0,,,68,59
1384448,note_on,,,,,0,0,1,,,,0,,,53,46
1384720,note_off,,,,,272,0,1,,,,0,,,68,0
1384720,note_off,,,,,0,0,1,,,,0,,,80,0
1384720,note_off,,,,,0,0,1,,,,0,,,46,0
1384720,note_off,,,,,0,0,1,,,,0,,,53,0
1384720,note_off,,,,,0,0,1,,,,0,,,56,0
1384760,control_change,,,,,40,0,1,,,,0,64,127,,
1384960,note_on,,,,,0,0,1,,,,0,,,51,46
1384960,note_on,,,,,200,0,1,,,,0,,,67,59
1384960,note_on,,,,,0,0,1,,,,0,,,55,58
1384960,note_on,,,,,0,0,1,,,,0,,,46,46
1384960,note_on,,,,,0,0,1,,,,0,,,79,75
1385232,note_off,,,,,0,0,1,,,,0,,,55,0
1385232,note_off,,,,,0,0,1,,,,0,,,51,0
1385232,note_off,,,,,0,0,1,,,,0,,,46,0
1385232,note_off,,,,,0,0,1,,,,0,,,79,0
1385232,note_off,,,,,272,0,1,,,,0,,,67,0
1385294,control_change,,,,,62,0,1,,,,0,64,0,,
1385472,note_on,,,,,0,0,1,,,,0,,,56,60
1385472,note_on,,,,,0,0,1,,,,0,,,53,48
1385472,note_on,,,,,0,0,1,,,,0,,,46,48
1385472,note_on,,,,,0,0,1,,,,0,,,68,61
1385472,control_change,,,,,0,0,1,,,,0,64,0,,
1385472,control_change,,,,,178,0,1,,,,0,64,0,,
1385472,note_on,,,,,0,0,1,,,,0,,,80,77
1385846,note_off,,,,,0,0,1,,,,0,,,56,0
1385846,note_off,,,,,0,0,1,,,,0,,,53,0
1385846,note_off,,,,,0,0,1,,,,0,,,46,0
1385846,note_off,,,,,0,0,1,,,,0,,,80,0
1385846,note_off,,,,,374,0,1,,,,0,,,68,0
1386496,note_on,,,,,0,0,1,,,,0,,,46,52
1386496,note_on,,,,,0,0,1,,,,0,,,50,52
1386496,note_on,,,,,0,0,1,,,,0,,,58,64
1386496,note_on,,,,,650,0,1,,,,0,,,70,64
1386496,note_on,,,,,0,0,1,,,,0,,,82,80
1387520,note_on,,,,,0,0,1,,,,0,,,79,80
1387520,control_change,,,,,0,0,1,,,,0,64,0,,
1387520,control_change,,,,,1024,0,1,,,,0,64,0,,
1387520,note_on,,,,,0,0,1,,,,0,,,51,52
1387520,note_on,,,,,0,0,1,,,,0,,,55,64
1387520,note_on,,,,,0,0,1,,,,0,,,67,64
1387520,note_off,,,,,0,0,1,,,,0,,,50,0
1387570,note_off,,,,,50,0,1,,,,0,,,70,0
1387570,note_off,,,,,0,0,1,,,,0,,,82,0
1387570,note_off,,,,,0,0,1,,,,0,,,58,0
1388304,note_off,,,,,734,0,1,,,,0,,,67,0
1388304,note_off,,,,,0,0,1,,,,0,,,79,0
1388304,note_off,,,,,0,0,1,,,,0,,,51,0
1388304,note_off,,,,,0,0,1,,,,0,,,55,0
1388304,note_off,,,,,0,0,1,,,,0,,,46,0
1388544,note_on,,,,,240,0,1,,,,0,,,68,59
1388544,note_on,,,,,0,0,1,,,,0,,,80,75
1388544,note_on,,,,,0,0,1,,,,0,,,46,46
1388544,note_on,,,,,0,0,1,,,,0,,,53,46
1388544,note_on,,,,,0,0,1,,,,0,,,56,58
1388816,note_off,,,,,272,0,1,,,,0,,,68,0
1388816,note_off,,,,,0,0,1,,,,0,,,80,0
1388816,note_off,,,,,0,0,1,,,,0,,,53,0
1388816,note_off,,,,,0,0,1,,,,0,,,56,0
1388816,note_off,,,,,0,0,1,,,,0,,,46,0
1389056,note_on,,,,,240,0,1,,,,0,,,67,59
1389056,note_on,,,,,0,0,1,,,,0,,,79,75
1389056,note_on,,,,,0,0,1,,,,0,,,46,46
1389056,note_on,,,,,0,0,1,,,,0,,,51,46
1389056,note_on,,,,,0,0,1,,,,0,,,55,58
1389328,note_off,,,,,0,0,1,,,,0,,,55,0
1389328,note_off,,,,,0,0,1,,,,0,,,51,0
1389328,note_off,,,,,0,0,1,,,,0,,,46,0
1389328,note_off,,,,,0,0,1,,,,0,,,79,0
1389328,note_off,,,,,272,0,1,,,,0,,,67,0
1389568,note_on,,,,,0,0,1,,,,0,,,56,60
1389568,note_on,,,,,0,0,1,,,,0,,,53,48
1389568,note_on,,,,,0,0,1,,,,0,,,46,48
1389568,note_on,,,,,0,0,1,,,,0,,,80,77
1389568,note_on,,,,,0,0,1,,,,0,,,68,61
1389568,control_change,,,,,0,0,1,,,,0,64,0,,
1389568,control_change,,,,,240,0,1,,,,0,64,0,,
1389942,note_off,,,,,374,0,1,,,,0,,,68,0
1389942,note_off,,,,,0,0,1,,,,0,,,80,0
1389942,note_off,,,,,0,0,1,,,,0,,,53,0
1389942,note_off,,,,,0,0,1,,,,0,,,56,0
1389942,note_off,,,,,0,0,1,,,,0,,,46,0
1390592,note_on,,,,,650,0,1,,,,0,,,70,69
1390592,note_on,,,,,0,0,1,,,,0,,,82,85
1390592,note_on,,,,,0,0,1,,,,0,,,46,57
1390592,note_on,,,,,0,0,1,,,,0,,,50,57
1390592,note_on,,,,,0,0,1,,,,0,,,58,69
1390592,set_tempo,,,,,7168,1,0,,375000,,,,,,
1391616,control_change,,,,,1024,0,1,,,,0,64,0,,
1391616,control_change,,,,,0,0,1,,,,0,64,0,,
1391616,note_off,,,,,0,0,1,,,,0,,,50,0
1391616,note_on,,,,,0,0,1,,,,0,,,67,64
1391616,note_on,,,,,0,0,1,,,,0,,,79,80
1391616,note_on,,,,,0,0,1,,,,0,,,51,52
1391616,note_on,,,,,0,0,1,,,,0,,,55,64
1391616,set_tempo,,,,,1024,1,0,,342857,,,,,,
1391666,note_off,,,,,0,0,1,,,,0,,,58,0
1391666,note_off,,,,,0,0,1,,,,0,,,82,0
1391666,note_off,,,,,50,0,1,,,,0,,,70,0
1392400,note_off,,,,,0,0,1,,,,0,,,55,0
1392400,note_off,,,,,0,0,1,,,,0,,,51,0
1392400,note_off,,,,,0,0,1,,,,0,,,46,0
1392400,note_off,,,,,0,0,1,,,,0,,,79,0
1392400,note_off,,,,,734,0,1,,,,0,,,67,0
1392640,note_on,,,,,0,0,1,,,,0,,,46,46
1392640,note_on,,,,,240,0,1,,,,0,,,68,59
1392640,note_on,,,,,0,0,1,,,,0,,,80,75
1392640,note_on,,,,,0,0,1,,,,0,,,53,46
1392640,note_on,,,,,0,0,1,,,,0,,,56,58
1392912,note_off,,,,,272,0,1,,,,0,,,68,0
1392912,note_off,,,,,0,0,1,,,,0,,,46,0
1392912,note_off,,,,,0,0,1,,,,0,,,53,0
1392912,note_off,,,,,0,0,1,,,,0,,,56,0
1392912,note_off,,,,,0,0,1,,,,0,,,80,0
1393152,note_on,,,,,240,0,1,,,,0,,,67,59
1393152,note_on,,,,,0,0,1,,,,0,,,79,75
1393152,note_on,,,,,0,0,1,,,,0,,,46,46
1393152,note_on,,,,,0,0,1,,,,0,,,51,46
1393152,note_on,,,,,0,0,1,,,,0,,,55,58
1393424,note_off,,,,,272,0,1,,,,0,,,67,0
1393424,note_off,,,,,0,0,1,,,,0,,,55,0
1393424,note_off,,,,,0,0,1,,,,0,,,79,0
1393424,note_off,,,,,0,0,1,,,,0,,,51,0
1393424,note_off,,,,,0,0,1,,,,0,,,46,0
1393664,note_on,,,,,0,0,1,,,,0,,,56,60
1393664,note_on,,,,,0,0,1,,,,0,,,53,48
1393664,note_on,,,,,0,0,1,,,,0,,,46,48
1393664,note_on,,,,,0,0,1,,,,0,,,80,77
1393664,note_on,,,,,0,0,1,,,,0,,,68,61
1393664,control_change,,,,,0,0,1,,,,0,64,0,,
1393664,control_change,,,,,240,0,1,,,,0,64,0,,
1394038,note_off,,,,,0,0,1,,,,0,,,53,0
1394038,note_off,,,,,0,0,1,,,,0,,,46,0
1394038,note_off,,,,,0,0,1,,,,0,,,80,0
1394038,note_off,,,,,374,0,1,,,,0,,,68,0
1394038,note_off,,,,,0,0,1,,,,0,,,56,0
1394688,note_on,,,,,0,0,1,,,,0,,,46,57
1394688,note_on,,,,,0,0,1,,,,0,,,58,69
1394688,note_on,,,,,0,0,1,,,,0,,,50,57
1394688,note_on,,,,,0,0,1,,,,0,,,82,85
1394688,note_on,,,,,650,0,1,,,,0,,,70,69
1394688,set_tempo,,,,,3072,1,0,,375000,,,,,,
1395712,note_on,,,,,0,0,1,,,,0,,,55,59
1395712,note_on,,,,,0,0,1,,,,0,,,51,59
1395712,note_on,,,,,0,0,1,,,,0,,,79,74
1395712,note_off,,,,,0,0,1,,,,0,,,50,0
1395712,control_change,,,,,0,0,1,,,,0,64,0,,
1395712,control_change,,,,,1024,0,1,,,,0,64,0,,
1395712,note_on,,,,,0,0,1,,,,0,,,67,58
1395762,note_off,,,,,0,0,1,,,,0,,,58,0
1395762,note_off,,,,,0,0,1,,,,0,,,46,0
1395762,note_off,,,,,0,0,1,,,,0,,,82,0
1395762,note_off,,,,,50,0,1,,,,0,,,70,0
1396496,note_off,,,,,0,0,1,,,,0,,,51,0
1396496,note_off,,,,,0,0,1,,,,0,,,55,0
1396496,note_off,,,,,0,0,1,,,,0,,,79,0
1396496,note_off,,,,,734,0,1,,,,0,,,67,0
1396736,note_on,,,,,0,0,1,,,,0,,,46,58
1396736,note_on,,,,,0,0,1,,,,0,,,82,85
1396736,note_on,,,,,0,0,1,,,,0,,,51,70
1396736,note_on,,,,,0,0,1,,,,0,,,77,69
1396736,note_on,,,,,0,0,1,,,,0,,,74,69
1396736,note_on,,,,,240,0,1,,,,0,,,70,69
1396736,note_on,,,,,0,0,1,,,,0,,,39,58
1396736,set_tempo,,,,,2048,1,0,,342857,,,,,,
1397760,control_change,,,,,1024,0,1,,,,0,64,0,,
1397760,control_change,,,,,0,0,1,,,,0,64,0,,
1398084,note_off,,,,,0,0,1,,,,0,,,39,0
1398084,note_off,,,,,0,0,1,,,,0,,,77,0
1398084,note_off,,,,,0,0,1,,,,0,,,82,0
1398084,note_off,,,,,0,0,1,,,,0,,,46,0
1398084,note_off,,,,,0,0,1,,,,0,,,51,0
1398084,note_off,,,,,324,0,1,,,,0,,,70,0
1398084,note_off,,,,,0,0,1,,,,0,,,74,0
1398784,note_on,,,,,700,0,1,,,,0,,,70,60
1398784,note_on,,,,,0,0,1,,,,0,,,74,60
1398784,note_on,,,,,0,0,1,,,,0,,,77,60
1398784,note_on,,,,,0,0,1,,,,0,,,39,52
1398784,note_on,,,,,0,0,1,,,,0,,,46,52
1398784,note_on,,,,,0,0,1,,,,0,,,51,64
1398784,note_on,,,,,0,0,1,,,,0,,,82,75
1399108,note_off,,,,,0,0,1,,,,0,,,51,0
1399108,note_off,,,,,0,0,1,,,,0,,,46,0
1399108,note_off,,,,,0,0,1,,,,0,,,39,0
1399108,note_off,,,,,324,0,1,,,,0,,,70,0
1399108,note_off,,,,,0,0,1,,,,0,,,74,0
1399108,note_off,,,,,0,0,1,,,,0,,,77,0
1399108,note_off,,,,,0,0,1,,,,0,,,82,0
1399808,set_tempo,,,,,3072,1,0,,375000,,,,,,
1399808,note_on,,,,,0,0,1,,,,0,,,51,59
1399808,note_on,,,,,0,0,1,,,,0,,,39,47
1399808,note_on,,,,,0,0,1,,,,0,,,79,58
1399808,note_on,,,,,0,0,1,,,,0,,,75,74
1399808,note_on,,,,,0,0,1,,,,0,,,70,58
1399808,control_change,,,,,0,0,1,,,,0,64,0,,
1399808,control_change,,,,,700,0,1,,,,0,64,0,,
1399808,note_on,,,,,0,0,1,,,,0,,,46,47
1400192,note_off,,,,,0,0,1,,,,0,,,75,0
1400192,note_off,,,,,0,0,1,,,,0,,,51,0
1400192,note_off,,,,,0,0,1,,,,0,,,46,0
1400192,note_off,,,,,0,0,1,,,,0,,,39,0
1400192,note_off,,,,,0,0,1,,,,0,,,79,0
1400192,note_off,,,,,384,0,1,,,,0,,,70,0
1400832,note_on,,,,,0,0,1,,,,0,,,39,51
1400832,note_on,,,,,0,0,1,,,,0,,,70,78
1400832,note_on,,,,,0,0,1,,,,0,,,65,62
1400832,note_on,,,,,0,0,1,,,,0,,,62,62
1400832,note_on,,,,,0,0,1,,,,0,,,46,51
1400832,note_on,,,,,640,0,1,,,,0,,,58,62
1400832,set_tempo,,,,,1024,1,0,,342857,,,,,,
1400832,note_on,,,,,0,0,1,,,,0,,,51,63
1401856,control_change,,,,,0,0,1,,,,0,64,0,,
1401856,control_change,,,,,1024,0,1,,,,0,64,0,,
1402180,note_off,,,,,324,0,1,,,,0,,,58,0
1402180,note_off,,,,,0,0,1,,,,0,,,62,0
1402180,note_off,,,,,0,0,1,,,,0,,,65,0
1402180,note_off,,,,,0,0,1,,,,0,,,70,0
1402180,note_off,,,,,0,0,1,,,,0,,,39,0
1402180,note_off,,,,,0,0,1,,,,0,,,46,0
1402180,note_off,,,,,0,0,1,,,,0,,,51,0
1402880,note_on,,,,,700,0,1,,,,0,,,58,53
1402880,note_on,,,,,0,0,1,,,,0,,,65,53
1402880,note_on,,,,,0,0,1,,,,0,,,70,68
1402880,note_on,,,,,0,0,1,,,,0,,,39,33
1402880,note_on,,,,,0,0,1,,,,0,,,46,33
1402880,note_on,,,,,0,0,1,,,,0,,,51,45
1402880,note_on,,,,,0,0,1,,,,0,,,62,53
1403204,note_off,,,,,324,0,1,,,,0,,,58,0
1403204,note_off,,,,,0,0,1,,,,0,,,65,0
1403204,note_off,,,,,0,0,1,,,,0,,,62,0
1403204,note_off,,,,,0,0,1,,,,0,,,39,0
1403204,note_off,,,,,0,0,1,,,,0,,,46,0
1403204,note_off,,,,,0,0,1,,,,0,,,51,0
1403204,note_off,,,,,0,0,1,,,,0,,,70,0
1403904,control_change,,,,,0,0,1,,,,0,64,0,,
1403904,note_on,,,,,0,0,1,,,,0,,,58,52
1403904,note_on,,,,,0,0,1,,,,0,,,67,64
1403904,note_on,,,,,0,0,1,,,,0,,,39,35
1403904,note_on,,,,,0,0,1,,,,0,,,46,35
1403904,note_on,,,,,0,0,1,,,,0,,,51,44
1403904,note_on,,,,,0,0,1,,,,0,,,63,52
1403904,control_change,,,,,700,0,1,,,,0,64,0,,
1404288,note_off,,,,,0,0,1,,,,0,,,51,0
1404288,note_off,,,,,384,0,1,,,,0,,,58,0
1404288,note_off,,,,,0,0,1,,,,0,,,63,0
1404288,note_off,,,,,0,0,1,,,,0,,,67,0
1404288,note_off,,,,,0,0,1,,,,0,,,39,0
1404288,note_off,,,,,0,0,1,,,,0,,,46,0
1404928,note_on,,,,,0,0,1,,,,0,,,46,45
1404928,note_on,,,,,0,0,1,,,,0,,,39,36
1404928,note_on,,,,,0,0,1,,,,0,,,58,57
1404928,note_on,,,,,0,0,1,,,,0,,,53,45
1404928,note_on,,,,,640,0,1,,,,0,,,50,45
1405552,note_off,,,,,0,0,1,,,,0,,,46,0
1405552,note_off,,,,,0,0,1,,,,0,,,39,0
1405552,note_off,,,,,0,0,1,,,,0,,,53,0
1405552,note_off,,,,,624,0,1,,,,0,,,50,0
1405552,note_off,,,,,0,0,1,,,,0,,,58,0
1405952,note_on,,,,,0,0,1,,,,0,,,46,37
1405952,control_change,,,,,400,0,1,,,,0,64,0,,
1405952,control_change,,,,,0,0,1,,,,0,64,0,,
1405952,note_on,,,,,0,0,1,,,,0,,,51,36
1405952,note_on,,,,,0,0,1,,,,0,,,55,48
1405952,note_on,,,,,0,0,1,,,,0,,,39,28
1406576,note_off,,,,,624,0,1,,,,0,,,51,0
1406576,note_off,,,,,0,0,1,,,,0,,,55,0
1406576,note_off,,,,,0,0,1,,,,0,,,39,0
1406576,note_off,,,,,0,0,1,,,,0,,,46,0
1406976,note_on,,,,,0,0,1,,,,0,,,53,40
1406976,note_on,,,,,0,0,1,,,,0,,,58,52
1406976,note_on,,,,,0,0,1,,,,0,,,39,29
1406976,note_on,,,,,0,0,1,,,,0,,,46,38
1406976,note_on,,,,,400,0,1,,,,0,,,50,40
1407600,note_off,,,,,624,0,1,,,,0,,,50,0
1407600,note_off,,,,,0,0,1,,,,0,,,53,0
1407600,note_off,,,,,0,0,1,,,,0,,,58,0
1407600,note_off,,,,,0,0,1,,,,0,,,39,0
1407600,note_off,,,,,0,0,1,,,,0,,,46,0
1408000,control_change,,,,,0,0,1,,,,0,64,0,,
1408000,note_on,,,,,0,0,1,,,,0,,,51,31
1408000,note_on,,,,,0,0,1,,,,0,,,55,43
1408000,note_on,,,,,0,0,1,,,,0,,,39,20
1408000,control_change,,,,,400,0,1,,,,0,64,0,,
1408000,note_on,,,,,0,0,1,,,,0,,,46,29
1408624,note_off,,,,,624,0,1,,,,0,,,51,0
1408624,note_off,,,,,0,0,1,,,,0,,,55,0
1408624,note_off,,,,,0,0,1,,,,0,,,39,0
1408624,note_off,,,,,0,0,1,,,,0,,,46,0
1409024,note_on,,,,,0,0,1,,,,0,,,39,22
1409024,note_on,,,,,400,0,1,,,,0,,,50,35
1409024,note_on,,,,,0,0,1,,,,0,,,53,35
1409024,note_on,,,,,0,0,1,,,,0,,,58,47
1409024,note_on,,,,,0,0,1,,,,0,,,46,31
1409648,note_off,,,,,0,0,1,,,,0,,,46,0
1409648,note_off,,,,,0,0,1,,,,0,,,39,0
1409648,note_off,,,,,0,0,1,,,,0,,,58,0
1409648,note_off,,,,,0,0,1,,,,0,,,53,0
1409648,note_off,,,,,624,0,1,,,,0,,,50,0
1410048,note_on,,,,,0,0,1,,,,0,,,55,43
1410048,note_on,,,,,0,0,1,,,,0,,,51,31
1410048,control_change,,,,,0,0,1,,,,0,64,0,,
1410048,control_change,,,,,400,0,1,,,,0,64,0,,
1410048,note_on,,,,,0,0,1,,,,0,,,46,29
1410048,note_on,,,,,0,0,1,,,,0,,,39,20
1410672,note_off,,,,,624,0,1,,,,0,,,51,0
1410672,note_off,,,,,0,0,1,,,,0,,,46,0
1410672,note_off,,,,,0,0,1,,,,0,,,39,0
1410672,note_off,,,,,0,0,1,,,,0,,,55,0
1411072,note_on,,,,,0,0,1,,,,0,,,46,31
1411072,note_on,,,,,0,0,1,,,,0,,,39,22
1411072,note_on,,,,,0,0,1,,,,0,,,58,47
1411072,note_on,,,,,0,0,1,,,,0,,,53,35
1411072,note_on,,,,,400,0,1,,,,0,,,50,35
1411072,set_tempo,,,,,10240,1,0,,400000,,,,,,
1411696,note_off,,,,,624,0,1,,,,0,,,50,0
1411696,note_off,,,,,0,0,1,,,,0,,,53,0
1411696,note_off,,,,,0,0,1,,,,0,,,58,0
1411696,note_off,,,,,0,0,1,,,,0,,,39,0
1411696,note_off,,,,,0,0,1,,,,0,,,46,0
1412096,note_on,,,,,0,0,1,,,,0,,,55,40
1412096,note_on,,,,,0,0,1,,,,0,,,46,23
1412096,note_on,,,,,0,0,1,,,,0,,,39,14
1412096,set_tempo,,,,,1024,1,0,,342857,,,,,,
1412096,note_on,,,,,400,0,1,,,,0,,,51,27
1413120,note_off,,,,,0,0,1,,,,0,,,46,0
1413120,note_off,,,,,0,0,1,,,,0,,,39,0
1413120,note_off,,,,,1024,0,1,,,,0,,,51,0
1413120,note_off,,,,,0,0,1,,,,0,,,55,0
1414144,set_tempo,,,,,2048,1,0,,352941,,,,,,
1414144,control_change,,,,,1024,0,1,,,,0,64,0,,
1414144,control_change,,,,,0,0,1,,,,0,64,0,,
1414144,note_on,,,,,0,0,1,,,,0,,,51,24
1414144,note_on,,,,,0,0,1,,,,0,,,55,35
1414144,note_on,,,,,0,0,1,,,,0,,,39,12
1414144,note_on,,,,,0,0,1,,,,0,,,46,20
1415168,note_off,,,,,1024,0,1,,,,0,,,51,0
1415168,note_off,,,,,0,0,1,,,,0,,,39,0
1415168,note_off,,,,,0,0,1,,,,0,,,46,0
1415168,note_off,,,,,0,0,1,,,,0,,,55,0
1416192,control_change,,,,,1024,0,1,,,,0,64,0,,
1416192,control_change,,,,,0,0,1,,,,0,64,0,,
1416192,note_on,,,,,0,0,1,,,,0,,,51,21
1416192,note_on,,,,,0,0,1,,,,0,,,55,30
1416192,note_on,,,,,0,0,1,,,,0,,,46,17
1416192,note_on,,,,,0,0,1,,,,0,,,39,10
1416192,set_tempo,,,,,2048,1,0,,375000,,,,,,
1417216,note_off,,,,,0,0,1,,,,0,,,39,0
1417216,note_off,,,,,1024,0,1,,,,0,,,51,0
1417216,note_off,,,,,0,0,1,,,,0,,,46,0
1417216,note_off,,,,,0,0,1,,,,0,,,55,0
1418240,control_change,,,,,1024,0,1,,,,0,64,0,,
1418240,note_on,,,,,0,0,1,,,,0,,,46,15
1418240,note_on,,,,,0,0,1,,,,0,,,39,9
1418240,control_change,,,,,0,0,1,,,,0,64,0,,
1418240,note_on,,,,,0,0,1,,,,0,,,55,25
1418240,set_tempo,,,,,2048,1,0,,500000,,,,,,
1418240,note_on,,,,,0,0,1,,,,0,,,51,17
1419264,note_off,,,,,1024,0,1,,,,0,,,51,0
1419264,note_off,,,,,0,0,1,,,,0,,,39,0
1419264,set_tempo,,,,,1024,1,0,,600000,,,,,,
1419264,note_off,,,,,0,0,1,,,,0,,,55,0
1419264,note_off,,,,,0,0,1,,,,0,,,46,0
1420288,note_on,,,,,1024,0,1,,,,0,,,51,11
1420288,note_on,,,,,0,0,1,,,,0,,,55,19
1420288,set_tempo,,,,,1024,1,0,,1500000,,,,,,
1420288,note_on,,,,,0,0,1,,,,0,,,39,3
1420288,note_on,,,,,0,0,1,,,,0,,,46,9
1422336,note_off,,,,,0,0,1,,,,0,,,39,0
1422336,note_off,,,,,0,0,1,,,,0,,,55,0
1422336,set_tempo,,,,,2048,1,0,,270270,,,,,,
1422336,note_off,,,,,0,0,1,,,,0,,,46,0
1422336,note_off,,,,,2048,0,1,,,,0,,,51,0
1424385,end_of_track,,,,,2049,1,0,,,,,,,,
1424385,end_of_track,,,,,2049,1,1,,,,,,,,
