tick,type,numerator,denominator,clocks_per_click,notated_32nd_notes_per_beat,time,meta,track,key,tempo,program,channel,control,value,note,velocity
0,time_signature,1,8,12,8,0,1,0,,,,,,,,
0,control_change,,,,,0,0,1,,,,0,64,0,,
0,control_change,,,,,0,0,1,,,,0,64,0,,
0,program_change,,,,,0,0,1,,,1,0,,,,
0,track_name,,,,,0,1,1,,,,,,,,
0,key_signature,,,,,0,1,0,C,,,,,,,
0,set_tempo,,,,,0,1,0,,400000,,,,,,
512,set_tempo,,,,,512,1,0,,428571,,,,,,
512,note_on,,,,,0,0,1,,,,0,,,79,56
512,note_on,,,,,0,0,1,,,,0,,,67,38
512,control_change,,,,,0,0,1,,,,0,64,0,,
512,control_change,,,,,512,0,1,,,,0,64,0,,
1024,set_tempo,,,,,0,1,0,,400000,,,,,,
1024,time_signature,2,4,24,8,512,1,0,,,,,,,,
1024,note_on,,,,,0,0,1,,,,0,,,55,21
1024,note_on,,,,,0,0,1,,,,0,,,52,28
1024,control_change,,,,,0,0,1,,,,0,64,0,,
1024,control_change,,,,,512,0,1,,,,0,64,0,,
1296,note_off,,,,,0,0,1,,,,0,,,79,0
1296,note_off,,,,,272,0,1,,,,0,,,67,0
1376,note_off,,,,,0,0,1,,,,0,,,55,0
1376,note_off,,,,,80,0,1,,,,0,,,52,0
1536,note_on,,,,,0,0,1,,,,0,,,76,56
1536,note_on,,,,,160,0,1,,,,0,,,64,38
2048,note_on,,,,,0,0,1,,,,0,,,55,21
2048,note_on,,,,,512,0,1,,,,0,,,48,28
2320,note_off,,,,,0,0,1,,,,0,,,76,0
2320,note_off,,,,,272,0,1,,,,0,,,64,0
2400,note_off,,,,,80,0,1,,,,0,,,48,0
2400,note_off,,,,,0,0,1,,,,0,,,55,0
2560,note_on,,,,,160,0,1,,,,0,,,62,38
2560,note_on,,,,,0,0,1,,,,0,,,74,51
3072,note_on,,,,,0,0,1,,,,0,,,47,28
3072,control_change,,,,,512,0,1,,,,0,64,0,,
3072,control_change,,,,,0,0,1,,,,0,64,0,,
3072,note_on,,,,,0,0,1,,,,0,,,55,21
3344,note_off,,,,,0,0,1,,,,0,,,74,0
3344,note_off,,,,,272,0,1,,,,0,,,62,0
3424,note_off,,,,,0,0,1,,,,0,,,55,0
3424,note_off,,,,,80,0,1,,,,0,,,47,0
3584,note_on,,,,,160,0,1,,,,0,,,60,37
3584,note_on,,,,,0,0,1,,,,0,,,72,53
4096,note_on,,,,,512,0,1,,,,0,,,45,28
4096,note_on,,,,,0,0,1,,,,0,,,55,21
4368,note_off,,,,,0,0,1,,,,0,,,72,0
4368,note_off,,,,,272,0,1,,,,0,,,60,0
4448,note_off,,,,,80,0,1,,,,0,,,45,0
4448,note_off,,,,,0,0,1,,,,0,,,55,0
4608,note_on,,,,,0,0,1,,,,0,,,69,46
4608,note_on,,,,,160,0,1,,,,0,,,57,35
5120,note_on,,,,,0,0,1,,,,0,,,55,25
5120,note_on,,,,,0,0,1,,,,0,,,53,32
5120,control_change,,,,,0,0,1,,,,0,64,0,,
5120,control_change,,,,,512,0,1,,,,0,64,0,,
5392,note_off,,,,,0,0,1,,,,0,,,69,0
5392,note_off,,,,,272,0,1,,,,0,,,57,0
5472,note_off,,,,,0,0,1,,,,0,,,55,0
5472,note_off,,,,,80,0,1,,,,0,,,53,0
5632,note_on,,,,,160,0,1,,,,0,,,59,32
5632,note_on,,,,,0,0,1,,,,0,,,71,43
6144,note_on,,,,,0,0,1,,,,0,,,55,21
6144,note_on,,,,,512,0,1,,,,0,,,50,28
6318,note_off,,,,,174,0,1,,,,0,,,50,0
6318,note_off,,,,,0,0,1,,,,0,,,55,0
6416,note_off,,,,,0,0,1,,,,0,,,71,0
6416,note_off,,,,,98,0,1,,,,0,,,59,0
6656,note_on,,,,,0,0,1,,,,0,,,55,24
6656,note_on,,,,,0,0,1,,,,0,,,52,31
6656,note_on,,,,,0,0,1,,,,0,,,72,47
6656,note_on,,,,,240,0,1,,,,0,,,60,34
6830,note_off,,,,,0,0,1,,,,0,,,52,0
6830,note_off,,,,,0,0,1,,,,0,,,72,0
6830,note_off,,,,,174,0,1,,,,0,,,60,0
6830,note_off,,,,,0,0,1,,,,0,,,55,0
7168,note_on,,,,,0,0,1,,,,0,,,74,58
7168,control_change,,,,,0,0,1,,,,0,64,0,,
7168,note_on,,,,,0,0,1,,,,0,,,62,45
7168,note_on,,,,,0,0,1,,,,0,,,53,34
7168,note_on,,,,,0,0,1,,,,0,,,55,27
7168,set_tempo,,,,,6144,1,0,,428571,,,,,,
7168,control_change,,,,,338,0,1,,,,0,64,0,,
7680,set_tempo,,,,,512,1,0,,400000,,,,,,
7680,note_on,,,,,512,0,1,,,,0,,,64,38
7680,note_on,,,,,0,0,1,,,,0,,,76,51
7730,note_off,,,,,0,0,1,,,,0,,,74,0
7730,note_off,,,,,50,0,1,,,,0,,,62,0
7854,note_off,,,,,0,0,1,,,,0,,,76,0
7854,note_off,,,,,124,0,1,,,,0,,,64,0
7952,note_off,,,,,98,0,1,,,,0,,,53,0
7952,note_off,,,,,0,0,1,,,,0,,,55,0
8192,note_on,,,,,0,0,1,,,,0,,,52,28
8192,note_on,,,,,0,0,1,,,,0,,,72,48
8192,note_on,,,,,240,0,1,,,,0,,,60,35
8192,note_on,,,,,0,0,1,,,,0,,,55,21
8366,note_off,,,,,174,0,1,,,,0,,,60,0
8366,note_off,,,,,0,0,1,,,,0,,,72,0
8366,note_off,,,,,0,0,1,,,,0,,,52,0
8366,note_off,,,,,0,0,1,,,,0,,,55,0
8704,note_on,,,,,338,0,1,,,,0,,,62,38
8704,note_on,,,,,0,0,1,,,,0,,,53,31
8704,note_on,,,,,0,0,1,,,,0,,,55,24
8704,note_on,,,,,0,0,1,,,,0,,,74,51
8878,note_off,,,,,174,0,1,,,,0,,,62,0
8878,note_off,,,,,0,0,1,,,,0,,,74,0
8878,note_off,,,,,0,0,1,,,,0,,,53,0
8878,note_off,,,,,0,0,1,,,,0,,,55,0
9216,control_change,,,,,338,0,1,,,,0,64,0,,
9216,control_change,,,,,0,0,1,,,,0,64,0,,
9216,note_on,,,,,0,0,1,,,,0,,,74,58
9216,note_on,,,,,0,0,1,,,,0,,,53,34
9216,note_on,,,,,0,0,1,,,,0,,,62,45
9216,note_on,,,,,0,0,1,,,,0,,,55,27
9728,note_on,,,,,0,0,1,,,,0,,,76,51
9728,note_on,,,,,512,0,1,,,,0,,,64,38
9778,note_off,,,,,0,0,1,,,,0,,,74,0
9778,note_off,,,,,50,0,1,,,,0,,,62,0
9902,note_off,,,,,0,0,1,,,,0,,,76,0
9902,note_off,,,,,124,0,1,,,,0,,,64,0
10000,note_off,,,,,0,0,1,,,,0,,,55,0
10000,note_off,,,,,98,0,1,,,,0,,,53,0
10240,set_tempo,,,,,2560,1,0,,461538,,,,,,
10240,note_on,,,,,0,0,1,,,,0,,,55,21
10240,note_on,,,,,0,0,1,,,,0,,,52,28
10240,note_on,,,,,240,0,1,,,,0,,,60,35
10240,note_on,,,,,0,0,1,,,,0,,,72,48
10414,note_off,,,,,0,0,1,,,,0,,,55,0
10414,note_off,,,,,0,0,1,,,,0,,,72,0
10414,note_off,,,,,174,0,1,,,,0,,,60,0
10414,note_off,,,,,0,0,1,,,,0,,,52,0
10752,note_on,,,,,0,0,1,,,,0,,,81,59
10752,note_on,,,,,338,0,1,,,,0,,,69,46
10752,set_tempo,,,,,512,1,0,,400000,,,,,,
11264,note_on,,,,,0,0,1,,,,0,,,57,25
11264,note_on,,,,,0,0,1,,,,0,,,49,32
11264,control_change,,,,,0,0,1,,,,0,64,0,,
11264,control_change,,,,,512,0,1,,,,0,64,0,,
11536,note_off,,,,,272,0,1,,,,0,,,69,0
11536,note_off,,,,,0,0,1,,,,0,,,81,0
11616,note_off,,,,,80,0,1,,,,0,,,49,0
11616,note_off,,,,,0,0,1,,,,0,,,57,0
11776,note_on,,,,,160,0,1,,,,0,,,65,42
11776,note_on,,,,,0,0,1,,,,0,,,77,55
12288,note_on,,,,,0,0,1,,,,0,,,57,25
12288,note_on,,,,,512,0,1,,,,0,,,50,32
12560,note_off,,,,,272,0,1,,,,0,,,65,0
12560,note_off,,,,,0,0,1,,,,0,,,77,0
12640,note_off,,,,,80,0,1,,,,0,,,50,0
12640,note_off,,,,,0,0,1,,,,0,,,57,0
12800,note_on,,,,,0,0,1,,,,0,,,76,55
12800,note_on,,,,,160,0,1,,,,0,,,64,42
13312,control_change,,,,,0,0,1,,,,0,64,0,,
13312,note_on,,,,,0,0,1,,,,0,,,52,32
13312,note_on,,,,,0,0,1,,,,0,,,57,25
13312,control_change,,,,,512,0,1,,,,0,64,0,,
13584,note_off,,,,,0,0,1,,,,0,,,76,0
13584,note_off,,,,,272,0,1,,,,0,,,64,0
13664,note_off,,,,,0,0,1,,,,0,,,57,0
13664,note_off,,,,,80,0,1,,,,0,,,52,0
13824,note_on,,,,,160,0,1,,,,0,,,62,41
13824,note_on,,,,,0,0,1,,,,0,,,74,53
14336,note_on,,,,,0,0,1,,,,0,,,57,25
14336,note_on,,,,,512,0,1,,,,0,,,53,32
14608,note_off,,,,,272,0,1,,,,0,,,62,0
14608,note_off,,,,,0,0,1,,,,0,,,74,0
14688,note_off,,,,,0,0,1,,,,0,,,57,0
14688,note_off,,,,,80,0,1,,,,0,,,53,0
14848,set_tempo,,,,,4096,1,0,,428571,,,,,,
14848,note_on,,,,,0,0,1,,,,0,,,70,50
14848,note_on,,,,,160,0,1,,,,0,,,58,39
15360,control_change,,,,,0,0,1,,,,0,64,0,,
15360,note_on,,,,,0,0,1,,,,0,,,55,36
15360,note_on,,,,,0,0,1,,,,0,,,57,29
15360,control_change,,,,,512,0,1,,,,0,64,0,,
15360,set_tempo,,,,,512,1,0,,400000,,,,,,
15632,note_off,,,,,272,0,1,,,,0,,,58,0
15632,note_off,,,,,0,0,1,,,,0,,,70,0
15712,note_off,,,,,80,0,1,,,,0,,,55,0
15712,note_off,,,,,0,0,1,,,,0,,,57,0
15872,note_on,,,,,0,0,1,,,,0,,,69,47
15872,note_on,,,,,160,0,1,,,,0,,,57,36
16384,note_on,,,,,0,0,1,,,,0,,,57,25
16384,note_on,,,,,512,0,1,,,,0,,,53,32
16558,note_off,,,,,174,0,1,,,,0,,,53,0
16558,note_off,,,,,0,0,1,,,,0,,,57,0
16656,note_off,,,,,98,0,1,,,,0,,,57,0
16656,note_off,,,,,0,0,1,,,,0,,,69,0
16896,note_on,,,,,0,0,1,,,,0,,,57,28
16896,note_on,,,,,240,0,1,,,,0,,,65,38
16896,note_on,,,,,0,0,1,,,,0,,,77,51
16896,note_on,,,,,0,0,1,,,,0,,,50,35
17070,note_off,,,,,174,0,1,,,,0,,,65,0
17070,note_off,,,,,0,0,1,,,,0,,,77,0
17070,note_off,,,,,0,0,1,,,,0,,,57,0
17070,note_off,,,,,0,0,1,,,,0,,,50,0
17408,set_tempo,,,,,2048,1,0,,444444,,,,,,
17408,control_change,,,,,338,0,1,,,,0,64,0,,
17408,control_change,,,,,0,0,1,,,,0,64,0,,
17408,note_on,,,,,0,0,1,,,,0,,,64,49
17408,note_on,,,,,0,0,1,,,,0,,,76,62
17408,note_on,,,,,0,0,1,,,,0,,,55,38
17408,note_on,,,,,0,0,1,,,,0,,,57,31
17920,set_tempo,,,,,512,1,0,,400000,,,,,,
17920,note_on,,,,,512,0,1,,,,0,,,73,42
17970,note_off,,,,,0,0,1,,,,0,,,76,0
17970,note_off,,,,,50,0,1,,,,0,,,64,0
18094,note_off,,,,,124,0,1,,,,0,,,73,0
18192,note_off,,,,,98,0,1,,,,0,,,55,0
18192,note_off,,,,,0,0,1,,,,0,,,57,0
18432,note_on,,,,,240,0,1,,,,0,,,62,39
18432,note_on,,,,,0,0,1,,,,0,,,74,52
18432,note_on,,,,,0,0,1,,,,0,,,53,32
18432,note_on,,,,,0,0,1,,,,0,,,57,25
18606,note_off,,,,,0,0,1,,,,0,,,53,0
18606,note_off,,,,,174,0,1,,,,0,,,62,0
18606,note_off,,,,,0,0,1,,,,0,,,74,0
18606,note_off,,,,,0,0,1,,,,0,,,57,0
18944,note_on,,,,,0,0,1,,,,0,,,57,28
18944,note_on,,,,,0,0,1,,,,0,,,50,35
18944,note_on,,,,,0,0,1,,,,0,,,77,55
18944,note_on,,,,,338,0,1,,,,0,,,65,42
19118,note_off,,,,,174,0,1,,,,0,,,65,0
19118,note_off,,,,,0,0,1,,,,0,,,77,0
19118,note_off,,,,,0,0,1,,,,0,,,50,0
19118,note_off,,,,,0,0,1,,,,0,,,57,0
19456,note_on,,,,,0,0,1,,,,0,,,57,31
19456,set_tempo,,,,,1536,1,0,,428571,,,,,,
19456,control_change,,,,,338,0,1,,,,0,64,0,,
19456,control_change,,,,,0,0,1,,,,0,64,0,,
19456,note_on,,,,,0,0,1,,,,0,,,64,49
19456,note_on,,,,,0,0,1,,,,0,,,76,62
19456,note_on,,,,,0,0,1,,,,0,,,55,38
19968,note_on,,,,,512,0,1,,,,0,,,73,42
19968,set_tempo,,,,,512,1,0,,400000,,,,,,
20018,note_off,,,,,50,0,1,,,,0,,,64,0
20018,note_off,,,,,0,0,1,,,,0,,,76,0
20142,note_off,,,,,124,0,1,,,,0,,,73,0
20240,note_off,,,,,98,0,1,,,,0,,,55,0
20240,note_off,,,,,0,0,1,,,,0,,,57,0
20480,note_on,,,,,240,0,1,,,,0,,,62,39
20480,note_on,,,,,0,0,1,,,,0,,,74,52
20480,note_on,,,,,0,0,1,,,,0,,,53,32
20480,note_on,,,,,0,0,1,,,,0,,,57,25
20654,note_off,,,,,174,0,1,,,,0,,,62,0
20654,note_off,,,,,0,0,1,,,,0,,,74,0
20992,note_off,,,,,0,0,1,,,,0,,,57,0
20992,note_off,,,,,0,0,1,,,,0,,,53,0
20992,set_tempo,,,,,1024,1,0,,444444,,,,,,
20992,note_on,,,,,338,0,1,,,,0,,,65,60
20992,note_on,,,,,0,0,1,,,,0,,,77,67
21504,note_on,,,,,0,0,1,,,,0,,,53,55
21504,note_on,,,,,0,0,1,,,,0,,,50,43
21504,set_tempo,,,,,512,1,0,,400000,,,,,,
21504,control_change,,,,,0,0,1,,,,0,64,0,,
21504,control_change,,,,,512,0,1,,,,0,64,0,,
21504,note_on,,,,,0,0,1,,,,0,,,46,43
22016,note_off,,,,,512,0,1,,,,0,,,65,0
22016,note_off,,,,,0,0,1,,,,0,,,77,0
22016,note_off,,,,,0,0,1,,,,0,,,46,0
22016,note_off,,,,,0,0,1,,,,0,,,50,0
22016,note_off,,,,,0,0,1,,,,0,,,53,0
22016,note_on,,,,,0,0,1,,,,0,,,65,61
22016,note_on,,,,,0,0,1,,,,0,,,77,67
22528,note_on,,,,,0,0,1,,,,0,,,50,43
22528,note_on,,,,,512,0,1,,,,0,,,46,43
22528,note_on,,,,,0,0,1,,,,0,,,53,55
23040,note_on,,,,,0,0,1,,,,0,,,79,71
23040,note_off,,,,,0,0,1,,,,0,,,77,0
23040,note_off,,,,,0,0,1,,,,0,,,46,0
23040,note_off,,,,,0,0,1,,,,0,,,50,0
23040,note_off,,,,,0,0,1,,,,0,,,53,0
23040,note_on,,,,,0,0,1,,,,0,,,67,65
23040,note_off,,,,,512,0,1,,,,0,,,65,0
23552,set_tempo,,,,,2048,1,0,,428571,,,,,,
23552,note_on,,,,,0,0,1,,,,0,,,55,61
23552,control_change,,,,,0,0,1,,,,0,64,0,,
23552,control_change,,,,,512,0,1,,,,0,64,0,,
23552,note_on,,,,,0,0,1,,,,0,,,46,49
23552,note_on,,,,,0,0,1,,,,0,,,51,49
24064,set_tempo,,,,,512,1,0,,400000,,,,,,
24064,note_on,,,,,0,0,1,,,,0,,,77,64
24064,note_off,,,,,512,0,1,,,,0,,,67,0
24064,note_off,,,,,0,0,1,,,,0,,,55,0
24064,note_on,,,,,0,0,1,,,,0,,,65,58
24064,note_off,,,,,0,0,1,,,,0,,,51,0
24064,note_off,,,,,0,0,1,,,,0,,,79,0
24064,note_off,,,,,0,0,1,,,,0,,,46,0
24576,note_on,,,,,512,0,1,,,,0,,,46,40
24576,note_on,,,,,0,0,1,,,,0,,,50,40
24576,note_on,,,,,0,0,1,,,,0,,,53,52
25088,note_off,,,,,0,0,1,,,,0,,,77,0
25088,note_off,,,,,0,0,1,,,,0,,,46,0
25088,note_off,,,,,0,0,1,,,,0,,,50,0
25088,note_off,,,,,0,0,1,,,,0,,,53,0
25088,note_on,,,,,0,0,1,,,,0,,,74,47
25088,note_off,,,,,512,0,1,,,,0,,,65,0
25344,note_off,,,,,256,0,1,,,,0,,,74,0
25344,note_on,,,,,0,0,1,,,,0,,,77,43
25600,set_tempo,,,,,1536,1,0,,461538,,,,,,
25600,note_on,,,,,0,0,1,,,,0,,,65,33
25600,note_on,,,,,0,0,1,,,,0,,,58,21
25600,note_off,,,,,0,0,1,,,,0,,,77,0
25600,control_change,,,,,0,0,1,,,,0,64,0,,
25600,control_change,,,,,256,0,1,,,,0,64,0,,
25600,note_on,,,,,0,0,1,,,,0,,,62,21
25600,note_on,,,,,0,0,1,,,,0,,,74,47
25745,control_change,,,,,145,0,1,,,,0,64,127,,
25774,note_off,,,,,29,0,1,,,,0,,,58,0
25774,note_off,,,,,0,0,1,,,,0,,,62,0
25774,note_off,,,,,0,0,1,,,,0,,,65,0
25856,note_off,,,,,82,0,1,,,,0,,,74,0
25856,note_on,,,,,0,0,1,,,,0,,,77,43
25856,set_tempo,,,,,256,1,0,,400000,,,,,,
26112,set_tempo,,,,,256,1,0,,387096,,,,,,
26112,note_on,,,,,0,0,1,,,,0,,,65,33
26112,note_on,,,,,0,0,1,,,,0,,,82,43
26112,note_off,,,,,256,0,1,,,,0,,,77,0
26112,note_on,,,,,0,0,1,,,,0,,,58,21
26112,note_on,,,,,0,0,1,,,,0,,,62,21
26286,note_off,,,,,174,0,1,,,,0,,,58,0
26286,note_off,,,,,0,0,1,,,,0,,,62,0
26286,note_off,,,,,0,0,1,,,,0,,,65,0
26368,note_off,,,,,82,0,1,,,,0,,,82,0
26368,note_on,,,,,0,0,1,,,,0,,,86,43
26624,note_on,,,,,0,0,1,,,,0,,,65,33
26624,note_off,,,,,256,0,1,,,,0,,,86,0
26624,note_on,,,,,0,0,1,,,,0,,,82,47
26624,note_on,,,,,0,0,1,,,,0,,,58,21
26624,note_on,,,,,0,0,1,,,,0,,,62,21
26798,note_off,,,,,0,0,1,,,,0,,,62,0
26798,note_off,,,,,0,0,1,,,,0,,,65,0
26798,note_off,,,,,174,0,1,,,,0,,,58,0
26880,note_off,,,,,82,0,1,,,,0,,,82,0
26880,note_on,,,,,0,0,1,,,,0,,,77,43
27136,note_on,,,,,0,0,1,,,,0,,,74,43
27136,note_on,,,,,0,0,1,,,,0,,,65,33
27136,note_on,,,,,0,0,1,,,,0,,,62,21
27136,note_on,,,,,0,0,1,,,,0,,,58,21
27136,note_off,,,,,256,0,1,,,,0,,,77,0
27310,note_off,,,,,0,0,1,,,,0,,,62,0
27310,note_off,,,,,0,0,1,,,,0,,,65,0
27310,note_off,,,,,174,0,1,,,,0,,,58,0
27392,note_on,,,,,0,0,1,,,,0,,,77,43
27392,note_off,,,,,82,0,1,,,,0,,,74,0
27420,control_change,,,,,28,0,1,,,,0,64,0,,
27648,note_on,,,,,0,0,1,,,,0,,,63,21
27648,control_change,,,,,0,0,1,,,,0,64,0,,
27648,control_change,,,,,228,0,1,,,,0,64,0,,
27648,note_on,,,,,0,0,1,,,,0,,,58,21
27648,note_off,,,,,0,0,1,,,,0,,,77,0
27648,note_on,,,,,0,0,1,,,,0,,,75,47
27648,note_on,,,,,0,0,1,,,,0,,,67,33
27822,note_off,,,,,174,0,1,,,,0,,,58,0
27822,note_off,,,,,0,0,1,,,,0,,,63,0
27822,note_off,,,,,0,0,1,,,,0,,,67,0
27904,note_on,,,,,0,0,1,,,,0,,,79,43
27904,note_off,,,,,82,0,1,,,,0,,,75,0
28160,note_on,,,,,0,0,1,,,,0,,,72,43
28160,note_on,,,,,0,0,1,,,,0,,,58,21
28160,note_on,,,,,0,0,1,,,,0,,,60,21
28160,note_on,,,,,0,0,1,,,,0,,,65,33
28160,note_off,,,,,256,0,1,,,,0,,,79,0
28334,note_off,,,,,174,0,1,,,,0,,,58,0
28334,note_off,,,,,0,0,1,,,,0,,,60,0
28334,note_off,,,,,0,0,1,,,,0,,,65,0
28416,note_on,,,,,0,0,1,,,,0,,,81,43
28416,note_off,,,,,82,0,1,,,,0,,,72,0
28672,note_on,,,,,0,0,1,,,,0,,,65,33
28672,note_on,,,,,0,0,1,,,,0,,,58,21
28672,note_on,,,,,0,0,1,,,,0,,,74,47
28672,note_off,,,,,256,0,1,,,,0,,,81,0
28672,note_on,,,,,0,0,1,,,,0,,,62,21
28846,note_off,,,,,0,0,1,,,,0,,,62,0
28846,note_off,,,,,0,0,1,,,,0,,,65,0
28846,note_off,,,,,174,0,1,,,,0,,,58,0
28928,set_tempo,,,,,2816,1,0,,461538,,,,,,
28928,note_on,,,,,0,0,1,,,,0,,,82,47
28928,note_off,,,,,82,0,1,,,,0,,,74,0
29184,note_off,,,,,256,0,1,,,,0,,,82,0
29184,set_tempo,,,,,256,1,0,,428571,,,,,,
29184,note_on,,,,,0,0,1,,,,0,,,68,54
29184,note_on,,,,,0,0,1,,,,0,,,80,66
29696,note_on,,,,,0,0,1,,,,0,,,46,43
29696,control_change,,,,,512,0,1,,,,0,64,0,,
29696,control_change,,,,,0,0,1,,,,0,64,0,,
29696,control_change,,,,,0,0,1,,,,0,64,0,,
29696,set_tempo,,,,,512,1,0,,400000,,,,,,
29696,note_on,,,,,0,0,1,,,,0,,,56,55
29696,note_on,,,,,0,0,1,,,,0,,,53,43
29696,control_change,,,,,0,0,1,,,,0,64,0,,
30208,note_on,,,,,0,0,1,,,,0,,,68,61
30208,note_off,,,,,0,0,1,,,,0,,,56,0
30208,note_off,,,,,0,0,1,,,,0,,,53,0
30208,note_off,,,,,0,0,1,,,,0,,,46,0
30208,note_off,,,,,0,0,1,,,,0,,,80,0
30208,note_off,,,,,512,0,1,,,,0,,,68,0
30208,note_on,,,,,0,0,1,,,,0,,,80,67
30720,note_on,,,,,0,0,1,,,,0,,,56,55
30720,note_on,,,,,512,0,1,,,,0,,,46,43
30720,note_on,,,,,0,0,1,,,,0,,,53,43
31232,note_off,,,,,0,0,1,,,,0,,,53,0
31232,note_off,,,,,512,0,1,,,,0,,,68,0
31232,note_off,,,,,0,0,1,,,,0,,,80,0
31232,note_off,,,,,0,0,1,,,,0,,,46,0
31232,note_off,,,,,0,0,1,,,,0,,,56,0
31232,note_on,,,,,0,0,1,,,,0,,,67,65
31232,note_on,,,,,0,0,1,,,,0,,,79,71
31744,set_tempo,,,,,2048,1,0,,428571,,,,,,
31744,control_change,,,,,512,0,1,,,,0,64,0,,
31744,control_change,,,,,0,0,1,,,,0,64,0,,
31744,control_change,,,,,0,0,1,,,,0,64,0,,
31744,note_on,,,,,0,0,1,,,,0,,,46,49
31744,note_on,,,,,0,0,1,,,,0,,,51,49
31744,note_on,,,,,0,0,1,,,,0,,,55,61
31744,control_change,,,,,0,0,1,,,,0,64,0,,
32256,note_off,,,,,0,0,1,,,,0,,,55,0
32256,note_off,,,,,512,0,1,,,,0,,,67,0
32256,note_off,,,,,0,0,1,,,,0,,,79,0
32256,note_on,,,,,0,0,1,,,,0,,,65,51
32256,note_off,,,,,0,0,1,,,,0,,,46,0
32256,note_off,,,,,0,0,1,,,,0,,,51,0
32256,set_tempo,,,,,512,1,0,,400000,,,,,,
32256,note_on,,,,,0,0,1,,,,0,,,77,63
32768,note_on,,,,,512,0,1,,,,0,,,46,40
32768,note_on,,,,,0,0,1,,,,0,,,50,40
32768,note_on,,,,,0,0,1,,,,0,,,53,52
33280,note_off,,,,,512,0,1,,,,0,,,65,0
33280,note_off,,,,,0,0,1,,,,0,,,77,0
33280,note_off,,,,,0,0,1,,,,0,,,46,0
33280,note_off,,,,,0,0,1,,,,0,,,50,0
33280,note_off,,,,,0,0,1,,,,0,,,53,0
33280,note_on,,,,,0,0,1,,,,0,,,77,47
33536,note_off,,,,,256,0,1,,,,0,,,77,0
33536,note_on,,,,,0,0,1,,,,0,,,80,43
33792,set_tempo,,,,,1536,1,0,,428571,,,,,,
33792,control_change,,,,,0,0,1,,,,0,64,0,,
33792,note_on,,,,,0,0,1,,,,0,,,65,33
33792,note_on,,,,,0,0,1,,,,0,,,62,21
33792,note_on,,,,,0,0,1,,,,0,,,77,47
33792,note_off,,,,,0,0,1,,,,0,,,80,0
33792,control_change,,,,,0,0,1,,,,0,64,0,,
33792,control_change,,,,,0,0,1,,,,0,64,0,,
33792,control_change,,,,,256,0,1,,,,0,64,0,,
33792,note_on,,,,,0,0,1,,,,0,,,58,21
33937,control_change,,,,,145,0,1,,,,0,64,127,,
33966,note_off,,,,,0,0,1,,,,0,,,65,0
33966,note_off,,,,,0,0,1,,,,0,,,62,0
33966,note_off,,,,,29,0,1,,,,0,,,58,0
34048,set_tempo,,,,,256,1,0,,387096,,,,,,
34048,note_off,,,,,82,0,1,,,,0,,,77,0
34048,note_on,,,,,0,0,1,,,,0,,,80,43
34304,note_off,,,,,256,0,1,,,,0,,,80,0
34304,note_on,,,,,0,0,1,,,,0,,,86,43
34304,note_on,,,,,0,0,1,,,,0,,,58,21
34304,note_on,,,,,0,0,1,,,,0,,,62,21
34304,note_on,,,,,0,0,1,,,,0,,,65,33
34478,note_off,,,,,174,0,1,,,,0,,,58,0
34478,note_off,,,,,0,0,1,,,,0,,,65,0
34478,note_off,,,,,0,0,1,,,,0,,,62,0
34560,note_off,,,,,82,0,1,,,,0,,,86,0
34560,note_on,,,,,0,0,1,,,,0,,,89,43
34816,note_on,,,,,0,0,1,,,,0,,,86,47
34816,note_off,,,,,256,0,1,,,,0,,,89,0
34816,note_on,,,,,0,0,1,,,,0,,,65,33
34816,note_on,,,,,0,0,1,,,,0,,,62,21
34816,note_on,,,,,0,0,1,,,,0,,,58,21
34990,note_off,,,,,0,0,1,,,,0,,,65,0
34990,note_off,,,,,174,0,1,,,,0,,,58,0
34990,note_off,,,,,0,0,1,,,,0,,,62,0
35072,note_off,,,,,82,0,1,,,,0,,,86,0
35072,note_on,,,,,0,0,1,,,,0,,,80,43
35328,note_on,,,,,0,0,1,,,,0,,,62,21
35328,note_off,,,,,256,0,1,,,,0,,,80,0
35328,note_on,,,,,0,0,1,,,,0,,,77,43
35328,note_on,,,,,0,0,1,,,,0,,,58,21
35328,note_on,,,,,0,0,1,,,,0,,,65,33
35502,note_off,,,,,174,0,1,,,,0,,,58,0
35502,note_off,,,,,0,0,1,,,,0,,,62,0
35502,note_off,,,,,0,0,1,,,,0,,,65,0
35584,note_off,,,,,82,0,1,,,,0,,,77,0
35584,note_on,,,,,0,0,1,,,,0,,,80,43
35612,control_change,,,,,28,0,1,,,,0,64,0,,
35840,control_change,,,,,228,0,1,,,,0,64,0,,
35840,control_change,,,,,0,0,1,,,,0,64,0,,
35840,control_change,,,,,0,0,1,,,,0,64,0,,
35840,control_change,,,,,0,0,1,,,,0,64,0,,
35840,note_off,,,,,0,0,1,,,,0,,,80,0
35840,note_on,,,,,0,0,1,,,,0,,,81,47
35840,note_on,,,,,0,0,1,,,,0,,,58,21
35840,note_on,,,,,0,0,1,,,,0,,,63,21
35840,note_on,,,,,0,0,1,,,,0,,,66,33
35840,set_tempo,,,,,1792,1,0,,428571,,,,,,
36014,note_off,,,,,174,0,1,,,,0,,,58,0
36014,note_off,,,,,0,0,1,,,,0,,,63,0
36014,note_off,,,,,0,0,1,,,,0,,,66,0
36096,set_tempo,,,,,256,1,0,,400000,,,,,,
36096,note_off,,,,,82,0,1,,,,0,,,81,0
36096,note_on,,,,,0,0,1,,,,0,,,87,43
36352,note_off,,,,,256,0,1,,,,0,,,87,0
36352,note_on,,,,,0,0,1,,,,0,,,66,33
36352,note_on,,,,,0,0,1,,,,0,,,63,21
36352,note_on,,,,,0,0,1,,,,0,,,58,21
36352,note_on,,,,,0,0,1,,,,0,,,84,43
36526,note_off,,,,,0,0,1,,,,0,,,63,0
36526,note_off,,,,,174,0,1,,,,0,,,58,0
36526,note_off,,,,,0,0,1,,,,0,,,66,0
36608,note_on,,,,,0,0,1,,,,0,,,81,43
36608,note_off,,,,,82,0,1,,,,0,,,84,0
36864,note_on,,,,,0,0,1,,,,0,,,58,21
36864,note_on,,,,,0,0,1,,,,0,,,82,47
36864,note_off,,,,,256,0,1,,,,0,,,81,0
36864,note_on,,,,,0,0,1,,,,0,,,65,33
36864,note_on,,,,,0,0,1,,,,0,,,62,21
37038,note_off,,,,,174,0,1,,,,0,,,82,0
37038,note_off,,,,,0,0,1,,,,0,,,65,0
37038,note_off,,,,,0,0,1,,,,0,,,58,0
37038,note_off,,,,,0,0,1,,,,0,,,62,0
37376,note_on,,,,,0,0,1,,,,0,,,79,68
37376,note_on,,,,,338,0,1,,,,0,,,67,56
37376,set_tempo,,,,,1280,1,0,,428571,,,,,,
37888,note_on,,,,,0,0,1,,,,0,,,50,41
37888,note_on,,,,,0,0,1,,,,0,,,47,53
37888,control_change,,,,,0,0,1,,,,0,64,0,,
37888,control_change,,,,,512,0,1,,,,0,64,0,,
37888,set_tempo,,,,,512,1,0,,400000,,,,,,
37888,note_on,,,,,0,0,1,,,,0,,,55,41
38210,note_off,,,,,322,0,1,,,,0,,,67,0
38210,note_off,,,,,0,0,1,,,,0,,,79,0
38250,note_off,,,,,40,0,1,,,,0,,,47,0
38250,note_off,,,,,0,0,1,,,,0,,,50,0
38250,note_off,,,,,0,0,1,,,,0,,,55,0
38400,note_on,,,,,0,0,1,,,,0,,,79,71
38400,note_on,,,,,150,0,1,,,,0,,,67,60
38912,note_on,,,,,512,0,1,,,,0,,,47,56
38912,note_on,,,,,0,0,1,,,,0,,,50,44
38912,note_on,,,,,0,0,1,,,,0,,,55,44
39234,note_off,,,,,322,0,1,,,,0,,,67,0
39234,note_off,,,,,0,0,1,,,,0,,,79,0
39274,note_off,,,,,40,0,1,,,,0,,,47,0
39274,note_off,,,,,0,0,1,,,,0,,,50,0
39274,note_off,,,,,0,0,1,,,,0,,,55,0
39424,note_on,,,,,150,0,1,,,,0,,,65,60
39424,note_on,,,,,0,0,1,,,,0,,,77,71
39936,note_on,,,,,0,0,1,,,,0,,,52,47
39936,note_on,,,,,0,0,1,,,,0,,,55,47
39936,set_tempo,,,,,2048,1,0,,461538,,,,,,
39936,note_on,,,,,0,0,1,,,,0,,,48,59
39936,control_change,,,,,0,0,1,,,,0,64,0,,
39936,control_change,,,,,512,0,1,,,,0,64,0,,
40448,note_on,,,,,0,0,1,,,,0,,,76,68
40448,note_on,,,,,512,0,1,,,,0,,,64,58
40448,set_tempo,,,,,512,1,0,,400000,,,,,,
40498,note_off,,,,,50,0,1,,,,0,,,65,0
40498,note_off,,,,,0,0,1,,,,0,,,77,0
40622,note_off,,,,,124,0,1,,,,0,,,64,0
40622,note_off,,,,,0,0,1,,,,0,,,76,0
40810,note_off,,,,,188,0,1,,,,0,,,48,0
40810,note_off,,,,,0,0,1,,,,0,,,52,0
40810,note_off,,,,,0,0,1,,,,0,,,55,0
40960,note_on,,,,,0,0,1,,,,0,,,55,49
40960,note_on,,,,,0,0,1,,,,0,,,53,49
40960,note_on,,,,,0,0,1,,,,0,,,50,61
40960,note_on,,,,,0,0,1,,,,0,,,74,65
40960,note_on,,,,,150,0,1,,,,0,,,62,55
41134,note_off,,,,,174,0,1,,,,0,,,62,0
41134,note_off,,,,,0,0,1,,,,0,,,50,0
41134,note_off,,,,,0,0,1,,,,0,,,53,0
41134,note_off,,,,,0,0,1,,,,0,,,55,0
41134,note_off,,,,,0,0,1,,,,0,,,74,0
41472,note_on,,,,,338,0,1,,,,0,,,60,53
41472,note_on,,,,,0,0,1,,,,0,,,72,63
41472,note_on,,,,,0,0,1,,,,0,,,52,63
41472,note_on,,,,,0,0,1,,,,0,,,55,51
41646,note_off,,,,,174,0,1,,,,0,,,60,0
41646,note_off,,,,,0,0,1,,,,0,,,72,0
41646,note_off,,,,,0,0,1,,,,0,,,52,0
41646,note_off,,,,,0,0,1,,,,0,,,55,0
41984,note_on,,,,,0,0,1,,,,0,,,71,60
41984,note_on,,,,,0,0,1,,,,0,,,55,52
41984,note_on,,,,,0,0,1,,,,0,,,53,64
41984,note_on,,,,,0,0,1,,,,0,,,59,51
41984,control_change,,,,,338,0,1,,,,0,64,0,,
41984,control_change,,,,,0,0,1,,,,0,64,0,,
42158,note_off,,,,,0,0,1,,,,0,,,71,0
42158,note_off,,,,,174,0,1,,,,0,,,59,0
42346,note_off,,,,,188,0,1,,,,0,,,53,0
42346,note_off,,,,,0,0,1,,,,0,,,55,0
42496,note_on,,,,,150,0,1,,,,0,,,67,64
42496,note_on,,,,,0,0,1,,,,0,,,79,75
43008,note_on,,,,,0,0,1,,,,0,,,55,41
43008,set_tempo,,,,,2560,1,0,,428571,,,,,,
43008,note_on,,,,,512,0,1,,,,0,,,47,53
43008,note_on,,,,,0,0,1,,,,0,,,50,41
43330,note_off,,,,,0,0,1,,,,0,,,79,0
43330,note_off,,,,,322,0,1,,,,0,,,67,0
43370,note_off,,,,,0,0,1,,,,0,,,50,0
43370,note_off,,,,,0,0,1,,,,0,,,55,0
43370,note_off,,,,,40,0,1,,,,0,,,47,0
43520,set_tempo,,,,,512,1,0,,400000,,,,,,
43520,note_on,,,,,150,0,1,,,,0,,,65,60
43520,note_on,,,,,0,0,1,,,,0,,,77,71
44032,control_change,,,,,0,0,1,,,,0,64,0,,
44032,note_on,,,,,0,0,1,,,,0,,,48,57
44032,note_on,,,,,0,0,1,,,,0,,,55,45
44032,note_on,,,,,0,0,1,,,,0,,,52,45
44032,set_tempo,,,,,512,1,0,,428571,,,,,,
44032,control_change,,,,,512,0,1,,,,0,64,0,,
44544,set_tempo,,,,,512,1,0,,400000,,,,,,
44544,note_on,,,,,512,0,1,,,,0,,,64,57
44544,note_on,,,,,0,0,1,,,,0,,,76,67
44594,note_off,,,,,50,0,1,,,,0,,,65,0
44594,note_off,,,,,0,0,1,,,,0,,,77,0
44718,note_off,,,,,0,0,1,,,,0,,,76,0
44718,note_off,,,,,124,0,1,,,,0,,,64,0
44906,note_off,,,,,188,0,1,,,,0,,,48,0
44906,note_off,,,,,0,0,1,,,,0,,,52,0
44906,note_off,,,,,0,0,1,,,,0,,,55,0
45056,note_on,,,,,0,0,1,,,,0,,,55,48
45056,note_on,,,,,0,0,1,,,,0,,,53,48
45056,note_on,,,,,0,0,1,,,,0,,,50,60
45056,note_on,,,,,150,0,1,,,,0,,,62,54
45056,note_on,,,,,0,0,1,,,,0,,,74,64
45230,note_off,,,,,0,0,1,,,,0,,,53,0
45230,note_off,,,,,0,0,1,,,,0,,,55,0
45230,note_off,,,,,0,0,1,,,,0,,,50,0
45230,note_off,,,,,174,0,1,,,,0,,,62,0
45230,note_off,,,,,0,0,1,,,,0,,,74,0
45568,note_on,,,,,338,0,1,,,,0,,,60,51
45568,note_on,,,,,0,0,1,,,,0,,,72,60
45568,note_on,,,,,0,0,1,,,,0,,,52,62
45568,note_on,,,,,0,0,1,,,,0,,,55,50
45742,note_off,,,,,0,0,1,,,,0,,,55,0
45742,note_off,,,,,174,0,1,,,,0,,,60,0
45742,note_off,,,,,0,0,1,,,,0,,,72,0
45742,note_off,,,,,0,0,1,,,,0,,,52,0
46080,note_on,,,,,0,0,1,,,,0,,,81,75
46080,note_on,,,,,0,0,1,,,,0,,,69,64
46080,note_on,,,,,0,0,1,,,,0,,,45,64
46080,control_change,,,,,338,0,1,,,,0,64,0,,
46080,set_tempo,,,,,1536,1,0,,500000,,,,,,
46080,control_change,,,,,0,0,1,,,,0,64,0,,
46080,note_on,,,,,0,0,1,,,,0,,,55,52
46080,note_on,,,,,0,0,1,,,,0,,,48,52
46254,note_off,,,,,174,0,1,,,,0,,,69,0
46254,note_off,,,,,0,0,1,,,,0,,,81,0
46442,note_off,,,,,0,0,1,,,,0,,,48,0
46442,note_off,,,,,0,0,1,,,,0,,,55,0
46442,note_off,,,,,188,0,1,,,,0,,,45,0
46592,note_on,,,,,150,0,1,,,,0,,,67,60
46592,set_tempo,,,,,512,1,0,,400000,,,,,,
46592,note_on,,,,,0,0,1,,,,0,,,79,71
47104,note_on,,,,,512,0,1,,,,0,,,47,68
47104,note_on,,,,,0,0,1,,,,0,,,50,56
47104,note_on,,,,,0,0,1,,,,0,,,55,56
47426,note_off,,,,,322,0,1,,,,0,,,67,0
47426,note_off,,,,,0,0,1,,,,0,,,79,0
47466,note_off,,,,,40,0,1,,,,0,,,47,0
47466,note_off,,,,,0,0,1,,,,0,,,50,0
47466,note_off,,,,,0,0,1,,,,0,,,55,0
47616,note_on,,,,,150,0,1,,,,0,,,65,60
47616,note_on,,,,,0,0,1,,,,0,,,77,71
48128,note_on,,,,,0,0,1,,,,0,,,55,55
48128,note_on,,,,,0,0,1,,,,0,,,52,55
48128,note_on,,,,,0,0,1,,,,0,,,48,67
48128,control_change,,,,,512,0,1,,,,0,64,0,,
48128,control_change,,,,,0,0,1,,,,0,64,0,,
48640,note_on,,,,,512,0,1,,,,0,,,64,62
48640,note_on,,,,,0,0,1,,,,0,,,76,72
48690,note_off,,,,,50,0,1,,,,0,,,65,0
48690,note_off,,,,,0,0,1,,,,0,,,77,0
48814,note_off,,,,,124,0,1,,,,0,,,64,0
48814,note_off,,,,,0,0,1,,,,0,,,76,0
49002,note_off,,,,,188,0,1,,,,0,,,48,0
49002,note_off,,,,,0,0,1,,,,0,,,52,0
49002,note_off,,,,,0,0,1,,,,0,,,55,0
49152,note_on,,,,,0,0,1,,,,0,,,55,55
49152,note_on,,,,,0,0,1,,,,0,,,53,55
49152,note_on,,,,,0,0,1,,,,0,,,74,69
49152,note_on,,,,,150,0,1,,,,0,,,62,59
49152,note_on,,,,,0,0,1,,,,0,,,50,67
49326,note_off,,,,,0,0,1,,,,0,,,55,0
49326,note_off,,,,,0,0,1,,,,0,,,53,0
49326,note_off,,,,,174,0,1,,,,0,,,62,0
49326,note_off,,,,,0,0,1,,,,0,,,74,0
49326,note_off,,,,,0,0,1,,,,0,,,50,0
49664,note_on,,,,,338,0,1,,,,0,,,60,56
49664,note_on,,,,,0,0,1,,,,0,,,72,65
49664,note_on,,,,,0,0,1,,,,0,,,52,67
49664,note_on,,,,,0,0,1,,,,0,,,55,55
49838,note_off,,,,,174,0,1,,,,0,,,60,0
49838,note_off,,,,,0,0,1,,,,0,,,72,0
49838,note_off,,,,,0,0,1,,,,0,,,52,0
49838,note_off,,,,,0,0,1,,,,0,,,55,0
50176,set_tempo,,,,,3584,1,0,,461538,,,,,,
50176,note_on,,,,,0,0,1,,,,0,,,41,64
50176,note_on,,,,,0,0,1,,,,0,,,48,52
50176,note_on,,,,,0,0,1,,,,0,,,59,65
50176,control_change,,,,,0,0,1,,,,0,64,0,,
50176,control_change,,,,,338,0,1,,,,0,64,0,,
50176,note_on,,,,,0,0,1,,,,0,,,71,76
50688,set_tempo,,,,,512,1,0,,400000,,,,,,
50688,note_on,,,,,0,0,1,,,,0,,,69,67
50688,note_on,,,,,512,0,1,,,,0,,,57,57
50738,note_off,,,,,0,0,1,,,,0,,,71,0
50738,note_off,,,,,50,0,1,,,,0,,,59,0
50862,note_off,,,,,124,0,1,,,,0,,,57,0
50862,note_off,,,,,0,0,1,,,,0,,,69,0
51050,note_off,,,,,0,0,1,,,,0,,,48,0
51050,note_off,,,,,188,0,1,,,,0,,,41,0
51200,note_on,,,,,150,0,1,,,,0,,,55,53
51200,note_on,,,,,0,0,1,,,,0,,,67,62
51200,note_on,,,,,0,0,1,,,,0,,,43,64
51200,note_on,,,,,0,0,1,,,,0,,,48,52
51374,note_off,,,,,0,0,1,,,,0,,,48,0
51374,note_off,,,,,0,0,1,,,,0,,,43,0
51374,note_off,,,,,174,0,1,,,,0,,,55,0
51374,note_off,,,,,0,0,1,,,,0,,,67,0
51712,note_on,,,,,338,0,1,,,,0,,,53,49
51712,note_on,,,,,0,0,1,,,,0,,,65,58
51712,note_on,,,,,0,0,1,,,,0,,,45,64
51712,note_on,,,,,0,0,1,,,,0,,,48,52
51886,note_off,,,,,174,0,1,,,,0,,,53,0
51886,note_off,,,,,0,0,1,,,,0,,,65,0
51886,note_off,,,,,0,0,1,,,,0,,,45,0
51886,note_off,,,,,0,0,1,,,,0,,,48,0
52224,note_on,,,,,0,0,1,,,,0,,,48,52
52224,note_on,,,,,0,0,1,,,,0,,,43,64
52224,control_change,,,,,0,0,1,,,,0,64,0,,
52224,note_on,,,,,0,0,1,,,,0,,,60,58
52224,note_on,,,,,0,0,1,,,,0,,,55,58
52224,control_change,,,,,338,0,1,,,,0,64,0,,
52224,note_on,,,,,0,0,1,,,,0,,,64,69
52224,set_tempo,,,,,1536,1,0,,444444,,,,,,
52398,note_off,,,,,0,0,1,,,,0,,,60,0
52398,note_off,,,,,0,0,1,,,,0,,,43,0
52398,note_off,,,,,0,0,1,,,,0,,,64,0
52398,note_off,,,,,174,0,1,,,,0,,,55,0
52398,note_off,,,,,0,0,1,,,,0,,,48,0
52736,note_on,,,,,338,0,1,,,,0,,,55,71
52736,note_on,,,,,0,0,1,,,,0,,,62,71
52736,note_on,,,,,0,0,1,,,,0,,,65,82
52736,note_on,,,,,0,0,1,,,,0,,,43,58
52736,note_on,,,,,0,0,1,,,,0,,,50,70
52736,set_tempo,,,,,512,1,0,,400000,,,,,,
53760,set_tempo,,,,,1024,1,0,,428571,,,,,,
53760,note_on,,,,,0,0,1,,,,0,,,50,61
53760,note_on,,,,,0,0,1,,,,0,,,43,49
53760,note_on,,,,,0,0,1,,,,0,,,47,49
53760,note_on,,,,,0,0,1,,,,0,,,59,57
53760,note_off,,,,,0,0,1,,,,0,,,65,0
53760,note_on,,,,,0,0,1,,,,0,,,62,68
53760,note_off,,,,,0,0,1,,,,0,,,62,0
53760,note_off,,,,,1024,0,1,,,,0,,,55,0
53760,note_off,,,,,0,0,1,,,,0,,,43,0
53760,note_off,,,,,0,0,1,,,,0,,,50,0
53760,note_on,,,,,0,0,1,,,,0,,,55,57
53934,note_off,,,,,0,0,1,,,,0,,,50,0
53934,note_off,,,,,0,0,1,,,,0,,,43,0
53934,note_off,,,,,0,0,1,,,,0,,,62,0
53934,note_off,,,,,0,0,1,,,,0,,,59,0
53934,note_off,,,,,174,0,1,,,,0,,,55,0
53934,note_off,,,,,0,0,1,,,,0,,,47,0
54272,control_change,,,,,338,0,1,,,,0,64,0,,
54272,control_change,,,,,0,0,1,,,,0,64,0,,
54272,note_on,,,,,0,0,1,,,,0,,,55,53
54272,note_on,,,,,0,0,1,,,,0,,,60,64
54272,note_on,,,,,0,0,1,,,,0,,,36,43
54272,note_on,,,,,0,0,1,,,,0,,,48,55
54272,note_on,,,,,0,0,1,,,,0,,,52,53
54446,note_off,,,,,0,0,1,,,,0,,,60,0
54446,note_off,,,,,0,0,1,,,,0,,,48,0
54446,note_off,,,,,0,0,1,,,,0,,,36,0
54446,note_off,,,,,0,0,1,,,,0,,,55,0
54446,note_off,,,,,174,0,1,,,,0,,,52,0
54784,note_on,,,,,338,0,1,,,,0,,,72,50
54784,set_tempo,,,,,1024,1,0,,400000,,,,,,
55040,note_on,,,,,0,0,1,,,,0,,,76,50
55040,note_off,,,,,256,0,1,,,,0,,,72,0
55296,note_off,,,,,256,0,1,,,,0,,,76,0
55296,note_on,,,,,0,0,1,,,,0,,,72,50
55552,note_off,,,,,256,0,1,,,,0,,,72,0
55552,note_on,,,,,0,0,1,,,,0,,,76,50
55808,note_off,,,,,256,0,1,,,,0,,,76,0
55808,set_tempo,,,,,1024,1,0,,461538,,,,,,
55808,note_on,,,,,0,0,1,,,,0,,,81,56
56320,set_tempo,,,,,512,1,0,,400000,,,,,,
56320,control_change,,,,,512,0,1,,,,0,64,0,,
56320,control_change,,,,,0,0,1,,,,0,64,0,,
56320,note_on,,,,,0,0,1,,,,0,,,60,34
56320,note_on,,,,,0,0,1,,,,0,,,65,34
56320,note_on,,,,,0,0,1,,,,0,,,69,46
56832,note_off,,,,,512,0,1,,,,0,,,81,0
56832,note_on,,,,,0,0,1,,,,0,,,79,46
56832,note_off,,,,,0,0,1,,,,0,,,60,0
56832,note_off,,,,,0,0,1,,,,0,,,65,0
56832,note_off,,,,,0,0,1,,,,0,,,69,0
57344,note_on,,,,,512,0,1,,,,0,,,60,29
57344,note_on,,,,,0,0,1,,,,0,,,64,29
57344,note_on,,,,,0,0,1,,,,0,,,67,41
57856,note_off,,,,,512,0,1,,,,0,,,79,0
57856,note_on,,,,,0,0,1,,,,0,,,78,54
57856,note_off,,,,,0,0,1,,,,0,,,60,0
57856,note_off,,,,,0,0,1,,,,0,,,64,0
57856,note_off,,,,,0,0,1,,,,0,,,67,0
57856,set_tempo,,,,,1536,1,0,,461538,,,,,,
58368,set_tempo,,,,,512,1,0,,400000,,,,,,
58368,control_change,,,,,512,0,1,,,,0,64,0,,
58368,control_change,,,,,0,0,1,,,,0,64,0,,
58368,note_on,,,,,0,0,1,,,,0,,,60,27
58368,note_on,,,,,0,0,1,,,,0,,,63,27
58368,note_on,,,,,0,0,1,,,,0,,,66,37
58542,note_off,,,,,0,0,1,,,,0,,,66,0
58542,note_off,,,,,0,0,1,,,,0,,,63,0
58542,note_off,,,,,174,0,1,,,,0,,,60,0
58624,note_off,,,,,82,0,1,,,,0,,,78,0
58624,note_on,,,,,0,0,1,,,,0,,,84,54
58624,set_tempo,,,,,256,1,0,,387096,,,,,,
58880,note_on,,,,,0,0,1,,,,0,,,78,52
58880,note_on,,,,,0,0,1,,,,0,,,60,26
58880,note_on,,,,,0,0,1,,,,0,,,63,26
58880,note_on,,,,,0,0,1,,,,0,,,66,35
58880,note_off,,,,,256,0,1,,,,0,,,84,0
59054,note_off,,,,,174,0,1,,,,0,,,60,0
59054,note_off,,,,,0,0,1,,,,0,,,63,0
59054,note_off,,,,,0,0,1,,,,0,,,66,0
59136,note_off,,,,,82,0,1,,,,0,,,78,0
59136,note_on,,,,,0,0,1,,,,0,,,84,51
59392,note_on,,,,,0,0,1,,,,0,,,60,24
59392,note_off,,,,,256,0,1,,,,0,,,84,0
59392,note_on,,,,,0,0,1,,,,0,,,79,50
59392,note_on,,,,,0,0,1,,,,0,,,67,32
59392,note_on,,,,,0,0,1,,,,0,,,64,24
59566,note_off,,,,,0,0,1,,,,0,,,64,0
59566,note_off,,,,,0,0,1,,,,0,,,67,0
59566,note_off,,,,,174,0,1,,,,0,,,60,0
59648,note_off,,,,,82,0,1,,,,0,,,79,0
59648,note_on,,,,,0,0,1,,,,0,,,84,49
59904,note_off,,,,,256,0,1,,,,0,,,84,0
59904,note_on,,,,,0,0,1,,,,0,,,79,47
60160,note_off,,,,,256,0,1,,,,0,,,79,0
60160,note_on,,,,,0,0,1,,,,0,,,72,46
60416,set_tempo,,,,,1792,1,0,,500000,,,,,,
60416,note_off,,,,,0,0,1,,,,0,,,72,0
60416,control_change,,,,,256,0,1,,,,0,64,0,,
60416,control_change,,,,,0,0,1,,,,0,64,0,,
60416,note_on,,,,,0,0,1,,,,0,,,65,34
60416,note_on,,,,,0,0,1,,,,0,,,81,50
60416,note_on,,,,,0,0,1,,,,0,,,60,34
60416,note_on,,,,,0,0,1,,,,0,,,69,46
60590,note_off,,,,,174,0,1,,,,0,,,81,0
60928,set_tempo,,,,,512,1,0,,400000,,,,,,
60928,note_off,,,,,0,0,1,,,,0,,,65,0
60928,note_off,,,,,0,0,1,,,,0,,,69,0
60928,note_off,,,,,0,0,1,,,,0,,,60,0
60928,note_on,,,,,338,0,1,,,,0,,,79,46
61440,note_on,,,,,0,0,1,,,,0,,,67,41
61440,note_on,,,,,0,0,1,,,,0,,,64,29
61440,note_on,,,,,512,0,1,,,,0,,,60,29
61952,note_on,,,,,0,0,1,,,,0,,,78,54
61952,note_off,,,,,0,0,1,,,,0,,,64,0
61952,note_off,,,,,0,0,1,,,,0,,,67,0
61952,set_tempo,,,,,1024,1,0,,461538,,,,,,
61952,note_off,,,,,512,0,1,,,,0,,,79,0
61952,note_off,,,,,0,0,1,,,,0,,,60,0
62464,set_tempo,,,,,512,1,0,,400000,,,,,,
62464,note_on,,,,,0,0,1,,,,0,,,66,37
62464,note_on,,,,,0,0,1,,,,0,,,63,27
62464,note_on,,,,,0,0,1,,,,0,,,60,27
62464,control_change,,,,,0,0,1,,,,0,64,0,,
62464,control_change,,,,,512,0,1,,,,0,64,0,,
62638,note_off,,,,,0,0,1,,,,0,,,63,0
62638,note_off,,,,,174,0,1,,,,0,,,60,0
62638,note_off,,,,,0,0,1,,,,0,,,66,0
62720,note_off,,,,,82,0,1,,,,0,,,78,0
62720,note_on,,,,,0,0,1,,,,0,,,84,54
62720,set_tempo,,,,,256,1,0,,387096,,,,,,
62976,note_off,,,,,256,0,1,,,,0,,,84,0
62976,note_on,,,,,0,0,1,,,,0,,,66,35
62976,note_on,,,,,0,0,1,,,,0,,,63,26
62976,note_on,,,,,0,0,1,,,,0,,,60,26
62976,note_on,,,,,0,0,1,,,,0,,,78,52
63150,note_off,,,,,0,0,1,,,,0,,,63,0
63150,note_off,,,,,174,0,1,,,,0,,,60,0
63150,note_off,,,,,0,0,1,,,,0,,,66,0
63232,note_on,,,,,0,0,1,,,,0,,,84,51
63232,note_off,,,,,82,0,1,,,,0,,,78,0
63488,note_on,,,,,0,0,1,,,,0,,,67,32
63488,note_on,,,,,0,0,1,,,,0,,,64,24
63488,note_off,,,,,256,0,1,,,,0,,,84,0
63488,note_on,,,,,0,0,1,,,,0,,,60,24
63488,note_on,,,,,0,0,1,,,,0,,,79,50
63662,note_off,,,,,0,0,1,,,,0,,,67,0
63662,note_off,,,,,0,0,1,,,,0,,,64,0
63662,note_off,,,,,174,0,1,,,,0,,,60,0
63744,note_off,,,,,82,0,1,,,,0,,,79,0
63744,note_on,,,,,0,0,1,,,,0,,,84,49
64000,note_off,,,,,256,0,1,,,,0,,,84,0
64000,note_on,,,,,0,0,1,,,,0,,,79,47
64256,note_on,,,,,0,0,1,,,,0,,,72,46
64256,note_off,,,,,256,0,1,,,,0,,,79,0
64512,note_on,,,,,0,0,1,,,,0,,,63,27
64512,note_on,,,,,0,0,1,,,,0,,,56,27
64512,note_on,,,,,0,0,1,,,,0,,,80,55
64512,control_change,,,,,0,0,1,,,,0,64,0,,
64512,control_change,,,,,256,0,1,,,,0,64,0,,
64512,note_on,,,,,0,0,1,,,,0,,,66,37
64512,note_off,,,,,0,0,1,,,,0,,,72,0
64645,control_change,,,,,133,0,1,,,,0,64,127,,
64686,note_off,,,,,0,0,1,,,,0,,,66,0
64686,note_off,,,,,41,0,1,,,,0,,,56,0
64686,note_off,,,,,0,0,1,,,,0,,,63,0
64768,note_off,,,,,82,0,1,,,,0,,,80,0
64768,note_on,,,,,0,0,1,,,,0,,,84,54
65024,note_off,,,,,256,0,1,,,,0,,,84,0
65024,note_on,,,,,0,0,1,,,,0,,,80,52
65024,note_on,,,,,0,0,1,,,,0,,,56,26
65024,note_on,,,,,0,0,1,,,,0,,,63,26
65024,note_on,,,,,0,0,1,,,,0,,,66,35
65198,note_off,,,,,0,0,1,,,,0,,,63,0
65198,note_off,,,,,0,0,1,,,,0,,,66,0
65198,note_off,,,,,174,0,1,,,,0,,,56,0
65280,note_off,,,,,82,0,1,,,,0,,,80,0
65280,note_on,,,,,0,0,1,,,,0,,,84,51
65280,set_tempo,,,,,2560,1,0,,500000,,,,,,
65536,set_tempo,,,,,256,1,0,,400000,,,,,,
65536,note_on,,,,,0,0,1,,,,0,,,65,36
65536,note_on,,,,,0,0,1,,,,0,,,61,24
65536,note_on,,,,,0,0,1,,,,0,,,80,50
65536,note_off,,,,,256,0,1,,,,0,,,84,0
65544,control_change,,,,,8,0,1,,,,0,64,0,,
65710,note_off,,,,,0,0,1,,,,0,,,65,0
65710,note_off,,,,,166,0,1,,,,0,,,61,0
65792,note_on,,,,,0,0,1,,,,0,,,85,49
65792,note_off,,,,,82,0,1,,,,0,,,80,0
66048,note_on,,,,,0,0,1,,,,0,,,80,47
66048,note_off,,,,,256,0,1,,,,0,,,85,0
66304,note_off,,,,,256,0,1,,,,0,,,80,0
66304,note_on,,,,,0,0,1,,,,0,,,73,46
66560,control_change,,,,,256,0,1,,,,0,64,0,,
66560,control_change,,,,,0,0,1,,,,0,64,0,,
66560,note_off,,,,,0,0,1,,,,0,,,73,0
66560,note_on,,,,,0,0,1,,,,0,,,83,46
66560,note_on,,,,,0,0,1,,,,0,,,55,33
66560,note_on,,,,,0,0,1,,,,0,,,59,33
66560,note_on,,,,,0,0,1,,,,0,,,62,45
66643,control_change,,,,,83,0,1,,,,0,64,127,,
66816,note_off,,,,,173,0,1,,,,0,,,83,0
66816,note_on,,,,,0,0,1,,,,0,,,86,48
67072,note_on,,,,,0,0,1,,,,0,,,83,50
67072,note_off,,,,,256,0,1,,,,0,,,86,0
67328,note_off,,,,,256,0,1,,,,0,,,83,0
67328,note_on,,,,,0,0,1,,,,0,,,74,51
67584,note_off,,,,,256,0,1,,,,0,,,74,0
67584,note_off,,,,,0,0,1,,,,0,,,59,0
67584,note_off,,,,,0,0,1,,,,0,,,55,0
67584,note_on,,,,,0,0,1,,,,0,,,64,50
67584,note_on,,,,,0,0,1,,,,0,,,60,38
67584,note_off,,,,,0,0,1,,,,0,,,62,0
67584,note_on,,,,,0,0,1,,,,0,,,84,53
67584,note_on,,,,,0,0,1,,,,0,,,55,38
67615,control_change,,,,,31,0,1,,,,0,64,0,,
67781,control_change,,,,,166,0,1,,,,0,64,127,,
67840,note_on,,,,,0,0,1,,,,0,,,88,55
67840,note_off,,,,,59,0,1,,,,0,,,84,0
68096,note_on,,,,,0,0,1,,,,0,,,84,57
68096,note_off,,,,,256,0,1,,,,0,,,88,0
68352,note_off,,,,,256,0,1,,,,0,,,84,0
68352,note_on,,,,,0,0,1,,,,0,,,76,59
68608,note_off,,,,,0,0,1,,,,0,,,64,0
68608,note_on,,,,,0,0,1,,,,0,,,55,43
68608,control_change,,,,,256,0,1,,,,0,64,0,,
68608,control_change,,,,,0,0,1,,,,0,64,127,,
68608,note_off,,,,,0,0,1,,,,0,,,76,0
68608,note_off,,,,,0,0,1,,,,0,,,55,0
68608,note_on,,,,,0,0,1,,,,0,,,65,55
68608,note_on,,,,,0,0,1,,,,0,,,62,43
68608,note_off,,,,,0,0,1,,,,0,,,60,0
68608,note_on,,,,,0,0,1,,,,0,,,86,61
68669,control_change,,,,,61,0,1,,,,0,64,0,,
68813,control_change,,,,,144,0,1,,,,0,64,127,,
68864,note_off,,,,,51,0,1,,,,0,,,86,0
68864,note_on,,,,,0,0,1,,,,0,,,89,62
69120,note_on,,,,,0,0,1,,,,0,,,86,64
69120,note_off,,,,,256,0,1,,,,0,,,89,0
69376,note_on,,,,,0,0,1,,,,0,,,77,66
69376,note_off,,,,,256,0,1,,,,0,,,86,0
69632,control_change,,,,,256,0,1,,,,0,64,0,,
69632,note_off,,,,,0,0,1,,,,0,,,77,0
69632,note_off,,,,,0,0,1,,,,0,,,55,0
69632,note_off,,,,,0,0,1,,,,0,,,62,0
69632,note_off,,,,,0,0,1,,,,0,,,65,0
69632,note_on,,,,,0,0,1,,,,0,,,83,68
69632,note_on,,,,,0,0,1,,,,0,,,55,48
69632,note_on,,,,,0,0,1,,,,0,,,59,48
69632,note_on,,,,,0,0,1,,,,0,,,67,60
69837,control_change,,,,,205,0,1,,,,0,64,127,,
69888,note_on,,,,,0,0,1,,,,0,,,91,70
69888,note_off,,,,,51,0,1,,,,0,,,83,0
70144,note_on,,,,,0,0,1,,,,0,,,83,71
70144,note_off,,,,,256,0,1,,,,0,,,91,0
70400,note_off,,,,,256,0,1,,,,0,,,83,0
70400,note_on,,,,,0,0,1,,,,0,,,79,73
70656,set_tempo,,,,,5120,1,0,,500000,,,,,,
70656,note_on,,,,,0,0,1,,,,0,,,48,60
70656,note_on,,,,,0,0,1,,,,0,,,77,79
70656,note_off,,,,,0,0,1,,,,0,,,67,0
70656,note_off,,,,,0,0,1,,,,0,,,59,0
70656,note_off,,,,,0,0,1,,,,0,,,55,0
70656,note_off,,,,,0,0,1,,,,0,,,79,0
70656,control_change,,,,,0,0,1,,,,0,64,0,,
70656,control_change,,,,,256,0,1,,,,0,64,0,,
70656,note_on,,,,,0,0,1,,,,0,,,55,48
70678,control_change,,,,,22,0,1,,,,0,64,127,,
70834,control_change,,,,,156,0,1,,,,0,64,0,,
70912,note_on,,,,,78,0,1,,,,0,,,89,71
70912,set_tempo,,,,,256,1,0,,400000,,,,,,
70945,control_change,,,,,33,0,1,,,,0,64,127,,
71168,note_on,,,,,0,0,1,,,,0,,,76,70
71168,note_off,,,,,223,0,1,,,,0,,,77,0
71168,note_off,,,,,0,0,1,,,,0,,,89,0
71424,note_off,,,,,256,0,1,,,,0,,,76,0
71424,note_on,,,,,0,0,1,,,,0,,,88,69
71613,control_change,,,,,189,0,1,,,,0,64,0,,
71680,note_off,,,,,0,0,1,,,,0,,,55,0
71680,note_on,,,,,0,0,1,,,,0,,,74,67
71680,note_on,,,,,0,0,1,,,,0,,,50,60
71680,note_on,,,,,0,0,1,,,,0,,,55,48
71680,note_off,,,,,67,0,1,,,,0,,,88,0
71680,note_off,,,,,0,0,1,,,,0,,,48,0
71854,note_off,,,,,0,0,1,,,,0,,,55,0
71854,note_off,,,,,174,0,1,,,,0,,,50,0
71936,note_off,,,,,82,0,1,,,,0,,,74,0
71936,note_on,,,,,0,0,1,,,,0,,,86,66
72192,note_off,,,,,256,0,1,,,,0,,,86,0
72192,note_on,,,,,0,0,1,,,,0,,,72,65
72192,note_on,,,,,0,0,1,,,,0,,,52,60
72192,note_on,,,,,0,0,1,,,,0,,,55,48
72366,note_off,,,,,0,0,1,,,,0,,,55,0
72366,note_off,,,,,174,0,1,,,,0,,,52,0
72448,note_on,,,,,0,0,1,,,,0,,,84,64
72448,note_off,,,,,82,0,1,,,,0,,,72,0
72704,control_change,,,,,256,0,1,,,,0,64,0,,
72704,control_change,,,,,0,0,1,,,,0,64,0,,
72704,note_off,,,,,0,0,1,,,,0,,,84,0
72704,note_on,,,,,0,0,1,,,,0,,,71,76
72704,note_on,,,,,0,0,1,,,,0,,,41,60
72704,note_on,,,,,0,0,1,,,,0,,,48,48
72867,control_change,,,,,163,0,1,,,,0,64,127,,
72960,note_on,,,,,93,0,1,,,,0,,,83,67
73216,note_off,,,,,256,0,1,,,,0,,,71,0
73216,note_off,,,,,0,0,1,,,,0,,,83,0
73216,note_on,,,,,0,0,1,,,,0,,,69,65
73472,note_on,,,,,0,0,1,,,,0,,,81,64
73472,note_off,,,,,256,0,1,,,,0,,,69,0
73658,control_change,,,,,186,0,1,,,,0,64,0,,
73728,note_off,,,,,70,0,1,,,,0,,,81,0
73728,note_on,,,,,0,0,1,,,,0,,,67,62
73728,note_on,,,,,0,0,1,,,,0,,,43,60
73728,note_on,,,,,0,0,1,,,,0,,,48,48
73728,note_off,,,,,0,0,1,,,,0,,,41,0
73728,note_off,,,,,0,0,1,,,,0,,,48,0
73902,note_off,,,,,0,0,1,,,,0,,,48,0
73902,note_off,,,,,174,0,1,,,,0,,,43,0
73984,note_on,,,,,0,0,1,,,,0,,,79,60
73984,note_off,,,,,82,0,1,,,,0,,,67,0
74240,note_on,,,,,0,0,1,,,,0,,,48,48
74240,note_off,,,,,256,0,1,,,,0,,,79,0
74240,note_on,,,,,0,0,1,,,,0,,,65,59
74240,note_on,,,,,0,0,1,,,,0,,,45,60
74414,note_off,,,,,174,0,1,,,,0,,,45,0
74414,note_off,,,,,0,0,1,,,,0,,,48,0
74496,note_off,,,,,82,0,1,,,,0,,,65,0
74496,note_on,,,,,0,0,1,,,,0,,,77,57
74752,set_tempo,,,,,3840,1,0,,500000,,,,,,
74752,note_on,,,,,0,0,1,,,,0,,,48,52
74752,note_on,,,,,0,0,1,,,,0,,,43,64
74752,note_on,,,,,0,0,1,,,,0,,,76,69
74752,note_on,,,,,0,0,1,,,,0,,,72,58
74752,note_on,,,,,0,0,1,,,,0,,,64,58
74752,note_off,,,,,0,0,1,,,,0,,,77,0
74752,control_change,,,,,0,0,1,,,,0,64,0,,
74752,control_change,,,,,0,0,1,,,,0,64,0,,
74752,control_change,,,,,0,0,1,,,,0,64,0,,
74752,control_change,,,,,256,0,1,,,,0,64,0,,
74926,note_off,,,,,174,0,1,,,,0,,,64,0
74926,note_off,,,,,0,0,1,,,,0,,,72,0
74926,note_off,,,,,0,0,1,,,,0,,,76,0
74926,note_off,,,,,0,0,1,,,,0,,,43,0
74926,note_off,,,,,0,0,1,,,,0,,,48,0
75264,set_tempo,,,,,512,1,0,,400000,,,,,,
75264,note_on,,,,,0,0,1,,,,0,,,65,58
75264,note_on,,,,,0,0,1,,,,0,,,62,70
75264,note_on,,,,,0,0,1,,,,0,,,77,82
75264,note_on,,,,,0,0,1,,,,0,,,74,71
75264,note_on,,,,,338,0,1,,,,0,,,67,71
75264,note_on,,,,,0,0,1,,,,0,,,55,58
75407,control_change,,,,,143,0,1,,,,0,64,127,,
76288,note_off,,,,,0,0,1,,,,0,,,62,0
76288,note_off,,,,,0,0,1,,,,0,,,55,0
76288,note_off,,,,,0,0,1,,,,0,,,77,0
76288,note_off,,,,,0,0,1,,,,0,,,74,0
76288,note_off,,,,,881,0,1,,,,0,,,67,0
76288,note_on,,,,,0,0,1,,,,0,,,67,57
76288,note_on,,,,,0,0,1,,,,0,,,71,57
76288,note_on,,,,,0,0,1,,,,0,,,74,68
76288,note_on,,,,,0,0,1,,,,0,,,55,49
76288,note_on,,,,,0,0,1,,,,0,,,62,61
76288,set_tempo,,,,,1024,1,0,,428571,,,,,,
76288,note_on,,,,,0,0,1,,,,0,,,59,49
76288,note_off,,,,,0,0,1,,,,0,,,65,0
76431,control_change,,,,,143,0,1,,,,0,64,0,,
76462,note_off,,,,,31,0,1,,,,0,,,67,0
76462,note_off,,,,,0,0,1,,,,0,,,71,0
76462,note_off,,,,,0,0,1,,,,0,,,74,0
76462,note_off,,,,,0,0,1,,,,0,,,55,0
76462,note_off,,,,,0,0,1,,,,0,,,62,0
76462,note_off,,,,,0,0,1,,,,0,,,59,0
76800,note_on,,,,,0,0,1,,,,0,,,48,64
76800,note_on,,,,,0,0,1,,,,0,,,60,64
76800,note_on,,,,,0,0,1,,,,0,,,55,52
76800,note_on,,,,,0,0,1,,,,0,,,72,69
76800,note_on,,,,,0,0,1,,,,0,,,67,58
76800,note_on,,,,,0,0,1,,,,0,,,64,58
76800,control_change,,,,,0,0,1,,,,0,64,0,,
76800,control_change,,,,,0,0,1,,,,0,64,0,,
76800,control_change,,,,,338,0,1,,,,0,64,0,,
76800,control_change,,,,,0,0,1,,,,0,64,0,,
76800,set_tempo,,,,,512,1,0,,500000,,,,,,
76974,note_off,,,,,0,0,1,,,,0,,,67,0
76974,note_off,,,,,0,0,1,,,,0,,,60,0
76974,note_off,,,,,0,0,1,,,,0,,,48,0
76974,note_off,,,,,174,0,1,,,,0,,,64,0
76974,note_off,,,,,0,0,1,,,,0,,,55,0
76974,note_off,,,,,0,0,1,,,,0,,,72,0
77312,note_on,,,,,338,0,1,,,,0,,,69,71
77312,note_on,,,,,0,0,1,,,,0,,,77,82
77312,note_on,,,,,0,0,1,,,,0,,,81,71
77312,note_on,,,,,0,0,1,,,,0,,,41,58
77312,note_on,,,,,0,0,1,,,,0,,,48,70
77312,note_on,,,,,0,0,1,,,,0,,,72,71
77312,set_tempo,,,,,512,1,0,,400000,,,,,,
77455,control_change,,,,,143,0,1,,,,0,64,127,,
78336,note_off,,,,,0,0,1,,,,0,,,48,0
78336,note_on,,,,,0,0,1,,,,0,,,72,57
78336,note_on,,,,,0,0,1,,,,0,,,76,68
78336,note_off,,,,,0,0,1,,,,0,,,41,0
78336,note_on,,,,,0,0,1,,,,0,,,79,57
78336,note_on,,,,,0,0,1,,,,0,,,36,49
78336,note_on,,,,,0,0,1,,,,0,,,48,49
78336,note_off,,,,,0,0,1,,,,0,,,81,0
78336,note_off,,,,,0,0,1,,,,0,,,77,0
78336,note_on,,,,,0,0,1,,,,0,,,67,57
78336,note_off,,,,,881,0,1,,,,0,,,69,0
78336,set_tempo,,,,,1024,1,0,,461538,,,,,,
78336,note_off,,,,,0,0,1,,,,0,,,72,0
78479,control_change,,,,,143,0,1,,,,0,64,0,,
78510,note_off,,,,,0,0,1,,,,0,,,48,0
78510,note_off,,,,,0,0,1,,,,0,,,36,0
78510,note_off,,,,,0,0,1,,,,0,,,79,0
78510,note_off,,,,,0,0,1,,,,0,,,76,0
78510,note_off,,,,,0,0,1,,,,0,,,72,0
78510,note_off,,,,,31,0,1,,,,0,,,67,0
78848,note_on,,,,,0,0,1,,,,0,,,64,64
78848,note_on,,,,,0,0,1,,,,0,,,55,64
78848,note_on,,,,,0,0,1,,,,0,,,76,69
78848,note_on,,,,,0,0,1,,,,0,,,72,58
78848,note_on,,,,,0,0,1,,,,0,,,67,58
78848,control_change,,,,,0,0,1,,,,0,64,0,,
78848,note_on,,,,,0,0,1,,,,0,,,60,52
78848,control_change,,,,,0,0,1,,,,0,64,0,,
78848,control_change,,,,,338,0,1,,,,0,64,0,,
78848,set_tempo,,,,,512,1,0,,500000,,,,,,
78848,control_change,,,,,0,0,1,,,,0,64,0,,
79022,note_off,,,,,0,0,1,,,,0,,,60,0
79022,note_off,,,,,0,0,1,,,,0,,,64,0
79022,note_off,,,,,0,0,1,,,,0,,,55,0
79022,note_off,,,,,0,0,1,,,,0,,,76,0
79022,note_off,,,,,174,0,1,,,,0,,,67,0
79022,note_off,,,,,0,0,1,,,,0,,,72,0
79360,note_on,,,,,0,0,1,,,,0,,,77,82
79360,note_on,,,,,0,0,1,,,,0,,,65,58
79360,set_tempo,,,,,512,1,0,,400000,,,,,,
79360,note_on,,,,,338,0,1,,,,0,,,67,71
79360,note_on,,,,,0,0,1,,,,0,,,74,71
79360,note_on,,,,,0,0,1,,,,0,,,62,70
79360,note_on,,,,,0,0,1,,,,0,,,55,58
79503,control_change,,,,,143,0,1,,,,0,64,127,,
80384,note_on,,,,,0,0,1,,,,0,,,62,61
80384,note_on,,,,,0,0,1,,,,0,,,71,57
80384,note_on,,,,,0,0,1,,,,0,,,55,49
80384,note_on,,,,,0,0,1,,,,0,,,74,68
80384,note_off,,,,,0,0,1,,,,0,,,65,0
80384,note_on,,,,,0,0,1,,,,0,,,59,49
80384,note_off,,,,,0,0,1,,,,0,,,62,0
80384,note_on,,,,,0,0,1,,,,0,,,67,57
80384,note_off,,,,,0,0,1,,,,0,,,77,0
80384,note_off,,,,,0,0,1,,,,0,,,74,0
80384,note_off,,,,,881,0,1,,,,0,,,67,0
80384,set_tempo,,,,,1024,1,0,,461538,,,,,,
80384,note_off,,,,,0,0,1,,,,0,,,55,0
80527,control_change,,,,,143,0,1,,,,0,64,0,,
80558,note_off,,,,,0,0,1,,,,0,,,62,0
80558,note_off,,,,,0,0,1,,,,0,,,59,0
80558,note_off,,,,,0,0,1,,,,0,,,74,0
80558,note_off,,,,,0,0,1,,,,0,,,71,0
80558,note_off,,,,,0,0,1,,,,0,,,55,0
80558,note_off,,,,,31,0,1,,,,0,,,67,0
80896,set_tempo,,,,,512,1,0,,545454,,,,,,
80896,note_on,,,,,0,0,1,,,,0,,,60,64
80896,control_change,,,,,338,0,1,,,,0,64,0,,
80896,control_change,,,,,0,0,1,,,,0,64,0,,
80896,control_change,,,,,0,0,1,,,,0,64,0,,
80896,control_change,,,,,0,0,1,,,,0,64,0,,
80896,note_on,,,,,0,0,1,,,,0,,,64,58
80896,note_on,,,,,0,0,1,,,,0,,,67,58
80896,note_on,,,,,0,0,1,,,,0,,,72,69
80896,note_on,,,,,0,0,1,,,,0,,,48,64
80896,note_on,,,,,0,0,1,,,,0,,,55,52
81070,note_off,,,,,0,0,1,,,,0,,,60,0
81070,note_off,,,,,0,0,1,,,,0,,,55,0
81070,note_off,,,,,0,0,1,,,,0,,,72,0
81070,note_off,,,,,0,0,1,,,,0,,,48,0
81070,note_off,,,,,174,0,1,,,,0,,,64,0
81070,note_off,,,,,0,0,1,,,,0,,,67,0
81408,set_tempo,,,,,512,1,0,,400000,,,,,,
81408,note_on,,,,,338,0,1,,,,0,,,72,71
81408,note_on,,,,,0,0,1,,,,0,,,77,71
81408,note_on,,,,,0,0,1,,,,0,,,81,82
81408,note_on,,,,,0,0,1,,,,0,,,84,71
81408,note_on,,,,,0,0,1,,,,0,,,41,58
81408,note_on,,,,,0,0,1,,,,0,,,48,70
81551,control_change,,,,,143,0,1,,,,0,64,127,,
82432,note_on,,,,,0,0,1,,,,0,,,48,49
82432,note_on,,,,,0,0,1,,,,0,,,36,49
82432,note_on,,,,,0,0,1,,,,0,,,84,57
82432,note_on,,,,,0,0,1,,,,0,,,79,68
82432,note_on,,,,,0,0,1,,,,0,,,76,57
82432,note_on,,,,,0,0,1,,,,0,,,72,57
82432,note_off,,,,,0,0,1,,,,0,,,77,0
82432,note_off,,,,,0,0,1,,,,0,,,41,0
82432,note_off,,,,,0,0,1,,,,0,,,84,0
82432,note_off,,,,,0,0,1,,,,0,,,81,0
82432,note_off,,,,,881,0,1,,,,0,,,72,0
82432,set_tempo,,,,,1024,1,0,,500000,,,,,,
82432,note_off,,,,,0,0,1,,,,0,,,48,0
82575,control_change,,,,,143,0,1,,,,0,64,0,,
82606,note_off,,,,,0,0,1,,,,0,,,36,0
82606,note_off,,,,,0,0,1,,,,0,,,84,0
82606,note_off,,,,,0,0,1,,,,0,,,48,0
82606,note_off,,,,,0,0,1,,,,0,,,76,0
82606,note_off,,,,,31,0,1,,,,0,,,72,0
82606,note_off,,,,,0,0,1,,,,0,,,79,0
82944,control_change,,,,,338,0,1,,,,0,64,0,,
82944,control_change,,,,,0,0,1,,,,0,64,0,,
82944,control_change,,,,,0,0,1,,,,0,64,0,,
82944,control_change,,,,,0,0,1,,,,0,64,0,,
82944,note_on,,,,,0,0,1,,,,0,,,67,58
82944,note_on,,,,,0,0,1,,,,0,,,72,58
82944,note_on,,,,,0,0,1,,,,0,,,76,69
82944,note_on,,,,,0,0,1,,,,0,,,55,64
82944,note_on,,,,,0,0,1,,,,0,,,60,52
82944,note_on,,,,,0,0,1,,,,0,,,64,64
83118,note_off,,,,,0,0,1,,,,0,,,64,0
83118,note_off,,,,,0,0,1,,,,0,,,60,0
83118,note_off,,,,,0,0,1,,,,0,,,55,0
83118,note_off,,,,,0,0,1,,,,0,,,76,0
83118,note_off,,,,,174,0,1,,,,0,,,67,0
83118,note_off,,,,,0,0,1,,,,0,,,72,0
83456,note_on,,,,,338,0,1,,,,0,,,67,71
83456,note_on,,,,,0,0,1,,,,0,,,74,71
83456,note_on,,,,,0,0,1,,,,0,,,77,82
83456,note_on,,,,,0,0,1,,,,0,,,55,58
83456,note_on,,,,,0,0,1,,,,0,,,62,70
83456,note_on,,,,,0,0,1,,,,0,,,65,58
83456,set_tempo,,,,,1024,1,0,,428571,,,,,,
83599,control_change,,,,,143,0,1,,,,0,64,127,,
84480,note_on,,,,,0,0,1,,,,0,,,74,68
84480,note_on,,,,,0,0,1,,,,0,,,62,61
84480,note_on,,,,,0,0,1,,,,0,,,59,49
84480,note_on,,,,,0,0,1,,,,0,,,55,49
84480,note_on,,,,,0,0,1,,,,0,,,71,57
84480,note_off,,,,,881,0,1,,,,0,,,67,0
84480,note_off,,,,,0,0,1,,,,0,,,65,0
84480,note_on,,,,,0,0,1,,,,0,,,67,57
84480,note_off,,,,,0,0,1,,,,0,,,74,0
84480,set_tempo,,,,,1024,1,0,,461538,,,,,,
84480,note_off,,,,,0,0,1,,,,0,,,55,0
84480,note_off,,,,,0,0,1,,,,0,,,77,0
84480,note_off,,,,,0,0,1,,,,0,,,62,0
84623,control_change,,,,,143,0,1,,,,0,64,0,,
84654,note_off,,,,,0,0,1,,,,0,,,71,0
84654,note_off,,,,,0,0,1,,,,0,,,74,0
84654,note_off,,,,,0,0,1,,,,0,,,55,0
84654,note_off,,,,,0,0,1,,,,0,,,59,0
84654,note_off,,,,,0,0,1,,,,0,,,62,0
84654,note_off,,,,,31,0,1,,,,0,,,67,0
84992,note_on,,,,,0,0,1,,,,0,,,60,69
84992,note_on,,,,,0,0,1,,,,0,,,55,57
84992,note_on,,,,,0,0,1,,,,0,,,48,57
84992,note_on,,,,,0,0,1,,,,0,,,67,64
84992,note_on,,,,,0,0,1,,,,0,,,64,64
84992,control_change,,,,,338,0,1,,,,0,64,0,,
84992,note_on,,,,,0,0,1,,,,0,,,72,64
84992,control_change,,,,,0,0,1,,,,0,64,0,,
85166,note_off,,,,,0,0,1,,,,0,,,48,0
85166,note_off,,,,,0,0,1,,,,0,,,60,0
85166,note_off,,,,,0,0,1,,,,0,,,55,0
85166,note_off,,,,,0,0,1,,,,0,,,72,0
85166,note_off,,,,,174,0,1,,,,0,,,64,0
85166,note_off,,,,,0,0,1,,,,0,,,67,0
85504,set_tempo,,,,,1024,1,0,,400000,,,,,,
85504,note_on,,,,,338,0,1,,,,0,,,36,40
85760,note_on,,,,,0,0,1,,,,0,,,40,42
85760,note_off,,,,,256,0,1,,,,0,,,36,0
86016,note_off,,,,,256,0,1,,,,0,,,40,0
86016,note_on,,,,,0,0,1,,,,0,,,36,44
86272,note_off,,,,,256,0,1,,,,0,,,36,0
86272,note_on,,,,,0,0,1,,,,0,,,40,45
86528,note_off,,,,,256,0,1,,,,0,,,40,0
86528,note_on,,,,,0,0,1,,,,0,,,45,53
87040,note_on,,,,,0,0,1,,,,0,,,62,47
87040,note_on,,,,,0,0,1,,,,0,,,50,35
87040,control_change,,,,,0,0,1,,,,0,64,0,,
87040,note_on,,,,,0,0,1,,,,0,,,60,35
87040,control_change,,,,,512,0,1,,,,0,64,0,,
87392,note_off,,,,,352,0,1,,,,0,,,50,0
87392,note_off,,,,,0,0,1,,,,0,,,60,0
87392,note_off,,,,,0,0,1,,,,0,,,62,0
87552,note_off,,,,,160,0,1,,,,0,,,45,0
87552,note_on,,,,,0,0,1,,,,0,,,43,52
88064,note_on,,,,,512,0,1,,,,0,,,51,35
88064,note_on,,,,,0,0,1,,,,0,,,60,35
88064,note_on,,,,,0,0,1,,,,0,,,63,47
88416,note_off,,,,,352,0,1,,,,0,,,51,0
88416,note_off,,,,,0,0,1,,,,0,,,60,0
88416,note_off,,,,,0,0,1,,,,0,,,63,0
88576,note_on,,,,,0,0,1,,,,0,,,42,49
88576,note_off,,,,,160,0,1,,,,0,,,43,0
89088,note_on,,,,,0,0,1,,,,0,,,45,45
89088,note_on,,,,,0,0,1,,,,0,,,62,47
89088,note_on,,,,,0,0,1,,,,0,,,60,35
89088,note_on,,,,,0,0,1,,,,0,,,54,47
89088,control_change,,,,,0,0,1,,,,0,64,0,,
89088,control_change,,,,,512,0,1,,,,0,64,0,,
89088,note_off,,,,,0,0,1,,,,0,,,42,0
89088,set_tempo,,,,,3584,1,0,,461538,,,,,,
89262,note_off,,,,,0,0,1,,,,0,,,62,0
89262,note_off,,,,,0,0,1,,,,0,,,60,0
89262,note_off,,,,,174,0,1,,,,0,,,54,0
89344,note_on,,,,,0,0,1,,,,0,,,50,44
89344,note_off,,,,,82,0,1,,,,0,,,45,0
89344,set_tempo,,,,,256,1,0,,400000,,,,,,
89600,note_on,,,,,256,0,1,,,,0,,,54,43
89600,note_on,,,,,0,0,1,,,,0,,,60,31
89600,note_on,,,,,0,0,1,,,,0,,,62,43
89600,note_on,,,,,0,0,1,,,,0,,,45,43
89600,note_off,,,,,0,0,1,,,,0,,,50,0
89774,note_off,,,,,0,0,1,,,,0,,,62,0
89774,note_off,,,,,174,0,1,,,,0,,,54,0
89774,note_off,,,,,0,0,1,,,,0,,,60,0
89856,note_on,,,,,0,0,1,,,,0,,,50,42
89856,note_off,,,,,82,0,1,,,,0,,,45,0
90112,note_on,,,,,0,0,1,,,,0,,,43,41
90112,note_on,,,,,0,0,1,,,,0,,,62,43
90112,note_on,,,,,0,0,1,,,,0,,,59,31
90112,note_on,,,,,256,0,1,,,,0,,,55,43
90112,note_off,,,,,0,0,1,,,,0,,,50,0
90286,note_off,,,,,0,0,1,,,,0,,,59,0
90286,note_off,,,,,174,0,1,,,,0,,,55,0
90286,note_off,,,,,0,0,1,,,,0,,,62,0
90368,note_off,,,,,82,0,1,,,,0,,,43,0
90368,note_on,,,,,0,0,1,,,,0,,,50,40
90624,note_off,,,,,256,0,1,,,,0,,,50,0
90624,note_on,,,,,0,0,1,,,,0,,,43,39
90880,note_on,,,,,0,0,1,,,,0,,,38,38
90880,note_off,,,,,256,0,1,,,,0,,,43,0
91136,set_tempo,,,,,1792,1,0,,500000,,,,,,
91136,note_on,,,,,0,0,1,,,,0,,,46,55
91136,note_on,,,,,0,0,1,,,,0,,,64,47
91136,note_on,,,,,0,0,1,,,,0,,,52,35
91136,note_off,,,,,0,0,1,,,,0,,,38,0
91136,control_change,,,,,0,0,1,,,,0,64,0,,
91136,note_on,,,,,0,0,1,,,,0,,,62,35
91136,control_change,,,,,256,0,1,,,,0,64,0,,
91310,note_off,,,,,174,0,1,,,,0,,,46,0
91648,set_tempo,,,,,512,1,0,,400000,,,,,,
91648,note_off,,,,,338,0,1,,,,0,,,52,0
91648,note_off,,,,,0,0,1,,,,0,,,62,0
91648,note_off,,,,,0,0,1,,,,0,,,64,0
91648,note_on,,,,,0,0,1,,,,0,,,45,52
92160,note_on,,,,,0,0,1,,,,0,,,62,35
92160,note_on,,,,,512,0,1,,,,0,,,53,35
92160,note_on,,,,,0,0,1,,,,0,,,65,47
92672,note_off,,,,,0,0,1,,,,0,,,62,0
92672,note_off,,,,,0,0,1,,,,0,,,65,0
92672,note_off,,,,,0,0,1,,,,0,,,45,0
92672,note_on,,,,,0,0,1,,,,0,,,44,49
92672,note_off,,,,,512,0,1,,,,0,,,53,0
93184,note_on,,,,,0,0,1,,,,0,,,47,45
93184,set_tempo,,,,,1536,1,0,,461538,,,,,,
93184,control_change,,,,,512,0,1,,,,0,64,0,,
93184,control_change,,,,,0,0,1,,,,0,64,0,,
93184,note_off,,,,,0,0,1,,,,0,,,44,0
93184,note_on,,,,,0,0,1,,,,0,,,56,47
93184,note_on,,,,,0,0,1,,,,0,,,62,35
93184,note_on,,,,,0,0,1,,,,0,,,64,47
93358,note_off,,,,,174,0,1,,,,0,,,56,0
93358,note_off,,,,,0,0,1,,,,0,,,62,0
93358,note_off,,,,,0,0,1,,,,0,,,64,0
93440,note_off,,,,,82,0,1,,,,0,,,47,0
93440,note_on,,,,,0,0,1,,,,0,,,52,44
93696,note_on,,,,,0,0,1,,,,0,,,64,43
93696,note_on,,,,,0,0,1,,,,0,,,62,31
93696,note_on,,,,,256,0,1,,,,0,,,56,43
93696,note_off,,,,,0,0,1,,,,0,,,52,0
93696,set_tempo,,,,,512,1,0,,400000,,,,,,
93696,note_on,,,,,0,0,1,,,,0,,,47,43
93870,note_off,,,,,0,0,1,,,,0,,,62,0
93870,note_off,,,,,0,0,1,,,,0,,,64,0
93870,note_off,,,,,174,0,1,,,,0,,,56,0
93952,note_off,,,,,82,0,1,,,,0,,,47,0
93952,note_on,,,,,0,0,1,,,,0,,,52,42
94208,note_off,,,,,0,0,1,,,,0,,,52,0
94208,note_on,,,,,256,0,1,,,,0,,,57,43
94208,note_on,,,,,0,0,1,,,,0,,,61,31
94208,note_on,,,,,0,0,1,,,,0,,,64,43
94208,note_on,,,,,0,0,1,,,,0,,,45,41
94382,note_off,,,,,0,0,1,,,,0,,,64,0
94382,note_off,,,,,0,0,1,,,,0,,,61,0
94382,note_off,,,,,174,0,1,,,,0,,,57,0
94464,note_off,,,,,82,0,1,,,,0,,,45,0
94464,note_on,,,,,0,0,1,,,,0,,,52,40
94720,note_off,,,,,256,0,1,,,,0,,,52,0
94720,note_on,,,,,0,0,1,,,,0,,,45,39
94976,note_off,,,,,256,0,1,,,,0,,,45,0
94976,note_on,,,,,0,0,1,,,,0,,,40,38
95232,note_on,,,,,0,0,1,,,,0,,,48,50
95232,note_on,,,,,0,0,1,,,,0,,,65,52
95232,note_on,,,,,0,0,1,,,,0,,,57,52
95232,note_on,,,,,0,0,1,,,,0,,,63,39
95232,control_change,,,,,0,0,1,,,,0,64,0,,
95232,control_change,,,,,256,0,1,,,,0,64,0,,
95232,note_off,,,,,0,0,1,,,,0,,,40,0
95406,note_off,,,,,174,0,1,,,,0,,,57,0
95406,note_off,,,,,0,0,1,,,,0,,,63,0
95406,note_off,,,,,0,0,1,,,,0,,,65,0
95488,note_off,,,,,82,0,1,,,,0,,,48,0
95488,note_on,,,,,0,0,1,,,,0,,,53,49
95744,note_off,,,,,0,0,1,,,,0,,,53,0
95744,note_on,,,,,0,0,1,,,,0,,,48,48
95744,note_on,,,,,0,0,1,,,,0,,,63,35
95744,note_on,,,,,256,0,1,,,,0,,,57,49
95744,note_on,,,,,0,0,1,,,,0,,,65,49
95918,note_off,,,,,174,0,1,,,,0,,,57,0
95918,note_off,,,,,0,0,1,,,,0,,,63,0
95918,note_off,,,,,0,0,1,,,,0,,,65,0
96000,note_off,,,,,82,0,1,,,,0,,,48,0
96000,note_on,,,,,0,0,1,,,,0,,,53,47
96256,note_on,,,,,0,0,1,,,,0,,,62,36
96256,note_on,,,,,256,0,1,,,,0,,,58,50
96256,note_on,,,,,0,0,1,,,,0,,,65,50
96256,note_on,,,,,0,0,1,,,,0,,,46,47
96256,note_off,,,,,0,0,1,,,,0,,,53,0
96430,note_off,,,,,0,0,1,,,,0,,,65,0
96430,note_off,,,,,174,0,1,,,,0,,,58,0
96430,note_off,,,,,0,0,1,,,,0,,,62,0
96512,note_off,,,,,82,0,1,,,,0,,,46,0
96512,note_on,,,,,0,0,1,,,,0,,,53,46
96768,note_off,,,,,256,0,1,,,,0,,,53,0
96768,note_on,,,,,0,0,1,,,,0,,,46,46
97024,note_off,,,,,256,0,1,,,,0,,,46,0
97024,note_on,,,,,0,0,1,,,,0,,,41,45
97280,note_on,,,,,0,0,1,,,,0,,,48,54
97280,note_on,,,,,0,0,1,,,,0,,,69,57
97280,note_on,,,,,0,0,1,,,,0,,,65,42
97280,set_tempo,,,,,3584,1,0,,428571,,,,,,
97280,note_off,,,,,0,0,1,,,,0,,,41,0
97280,control_change,,,,,0,0,1,,,,0,64,0,,
97280,note_on,,,,,0,0,1,,,,0,,,63,57
97280,control_change,,,,,256,0,1,,,,0,64,0,,
97454,note_off,,,,,174,0,1,,,,0,,,63,0
97454,note_off,,,,,0,0,1,,,,0,,,65,0
97454,note_off,,,,,0,0,1,,,,0,,,69,0
97536,note_off,,,,,82,0,1,,,,0,,,48,0
97536,note_on,,,,,0,0,1,,,,0,,,53,53
97792,set_tempo,,,,,512,1,0,,400000,,,,,,
97792,note_on,,,,,0,0,1,,,,0,,,48,52
97792,note_off,,,,,0,0,1,,,,0,,,53,0
97792,note_on,,,,,0,0,1,,,,0,,,65,38
97792,note_on,,,,,0,0,1,,,,0,,,69,53
97792,note_on,,,,,256,0,1,,,,0,,,63,53
97966,note_off,,,,,0,0,1,,,,0,,,69,0
97966,note_off,,,,,174,0,1,,,,0,,,63,0
97966,note_off,,,,,0,0,1,,,,0,,,65,0
98048,note_off,,,,,82,0,1,,,,0,,,48,0
98048,note_on,,,,,0,0,1,,,,0,,,53,51
98304,note_on,,,,,256,0,1,,,,0,,,62,55
98304,note_on,,,,,0,0,1,,,,0,,,65,39
98304,note_on,,,,,0,0,1,,,,0,,,70,55
98304,note_off,,,,,0,0,1,,,,0,,,53,0
98304,note_on,,,,,0,0,1,,,,0,,,46,51
98478,note_off,,,,,174,0,1,,,,0,,,62,0
98478,note_off,,,,,0,0,1,,,,0,,,65,0
98478,note_off,,,,,0,0,1,,,,0,,,70,0
98560,note_off,,,,,82,0,1,,,,0,,,46,0
98560,note_on,,,,,0,0,1,,,,0,,,53,50
98816,note_off,,,,,256,0,1,,,,0,,,53,0
98816,note_on,,,,,0,0,1,,,,0,,,46,49
99072,note_off,,,,,256,0,1,,,,0,,,46,0
99072,note_on,,,,,0,0,1,,,,0,,,41,48
99328,note_on,,,,,0,0,1,,,,0,,,48,58
99328,note_on,,,,,0,0,1,,,,0,,,75,63
99328,note_on,,,,,0,0,1,,,,0,,,69,47
99328,set_tempo,,,,,1536,1,0,,428571,,,,,,
99328,note_off,,,,,0,0,1,,,,0,,,41,0
99328,control_change,,,,,0,0,1,,,,0,64,0,,
99328,control_change,,,,,256,0,1,,,,0,64,0,,
99328,note_on,,,,,0,0,1,,,,0,,,65,63
99502,note_off,,,,,174,0,1,,,,0,,,65,0
99502,note_off,,,,,0,0,1,,,,0,,,69,0
99502,note_off,,,,,0,0,1,,,,0,,,75,0
99584,note_off,,,,,82,0,1,,,,0,,,48,0
99584,note_on,,,,,0,0,1,,,,0,,,53,57
99840,note_off,,,,,0,0,1,,,,0,,,53,0
99840,note_on,,,,,0,0,1,,,,0,,,48,56
99840,note_on,,,,,0,0,1,,,,0,,,75,58
99840,note_on,,,,,0,0,1,,,,0,,,69,42
99840,note_on,,,,,256,0,1,,,,0,,,65,58
99840,set_tempo,,,,,512,1,0,,400000,,,,,,
100014,note_off,,,,,174,0,1,,,,0,,,65,0
100014,note_off,,,,,0,0,1,,,,0,,,69,0
100014,note_off,,,,,0,0,1,,,,0,,,75,0
100096,note_off,,,,,82,0,1,,,,0,,,48,0
100096,note_on,,,,,0,0,1,,,,0,,,53,55
100352,note_on,,,,,0,0,1,,,,0,,,46,55
100352,note_off,,,,,0,0,1,,,,0,,,53,0
100352,note_on,,,,,0,0,1,,,,0,,,70,43
100352,note_on,,,,,0,0,1,,,,0,,,74,60
100352,note_on,,,,,256,0,1,,,,0,,,65,60
100526,note_off,,,,,0,0,1,,,,0,,,74,0
100526,note_off,,,,,174,0,1,,,,0,,,65,0
100526,note_off,,,,,0,0,1,,,,0,,,70,0
100552,control_change,,,,,26,0,1,,,,0,64,127,,
100608,note_off,,,,,56,0,1,,,,0,,,46,0
100608,note_on,,,,,0,0,1,,,,0,,,53,54
100864,note_off,,,,,256,0,1,,,,0,,,53,0
100864,note_on,,,,,0,0,1,,,,0,,,46,53
100886,control_change,,,,,22,0,1,,,,0,64,0,,
101120,note_off,,,,,234,0,1,,,,0,,,46,0
101120,note_on,,,,,0,0,1,,,,0,,,41,52
101376,set_tempo,,,,,1536,1,0,,428571,,,,,,
101376,note_on,,,,,0,0,1,,,,0,,,48,62
101376,note_on,,,,,0,0,1,,,,0,,,77,73
101376,note_on,,,,,0,0,1,,,,0,,,69,68
101376,note_off,,,,,0,0,1,,,,0,,,41,0
101376,control_change,,,,,0,0,1,,,,0,64,0,,
101376,control_change,,,,,256,0,1,,,,0,64,0,,
101376,note_on,,,,,0,0,1,,,,0,,,75,50
101376,control_change,,,,,0,0,1,,,,0,64,0,,
101550,note_off,,,,,174,0,1,,,,0,,,69,0
101550,note_off,,,,,0,0,1,,,,0,,,75,0
101550,note_off,,,,,0,0,1,,,,0,,,77,0
101632,note_off,,,,,82,0,1,,,,0,,,48,0
101632,note_on,,,,,0,0,1,,,,0,,,53,61
101888,set_tempo,,,,,512,1,0,,400000,,,,,,
101888,note_on,,,,,0,0,1,,,,0,,,77,68
101888,note_on,,,,,0,0,1,,,,0,,,48,60
101888,note_off,,,,,0,0,1,,,,0,,,53,0
101888,note_on,,,,,256,0,1,,,,0,,,69,63
101888,note_on,,,,,0,0,1,,,,0,,,75,46
102062,note_off,,,,,174,0,1,,,,0,,,69,0
102062,note_off,,,,,0,0,1,,,,0,,,75,0
102062,note_off,,,,,0,0,1,,,,0,,,77,0
102144,note_off,,,,,82,0,1,,,,0,,,48,0
102144,note_on,,,,,0,0,1,,,,0,,,53,59
102400,note_on,,,,,256,0,1,,,,0,,,70,65
102400,note_on,,,,,0,0,1,,,,0,,,74,47
102400,note_on,,,,,0,0,1,,,,0,,,77,70
102400,note_on,,,,,0,0,1,,,,0,,,46,58
102400,note_off,,,,,0,0,1,,,,0,,,53,0
102400,set_tempo,,,,,512,1,0,,428571,,,,,,
102574,note_off,,,,,174,0,1,,,,0,,,70,0
102574,note_off,,,,,0,0,1,,,,0,,,74,0
102574,note_off,,,,,0,0,1,,,,0,,,77,0
102600,control_change,,,,,26,0,1,,,,0,64,127,,
102656,note_off,,,,,56,0,1,,,,0,,,46,0
102656,note_on,,,,,0,0,1,,,,0,,,53,57
102912,set_tempo,,,,,512,1,0,,461538,,,,,,
102912,note_on,,,,,0,0,1,,,,0,,,46,56
102912,note_off,,,,,256,0,1,,,,0,,,53,0
103168,note_on,,,,,0,0,1,,,,0,,,41,55
103168,set_tempo,,,,,256,1,0,,500000,,,,,,
103168,note_off,,,,,256,0,1,,,,0,,,46,0
103290,control_change,,,,,122,0,1,,,,0,64,0,,
103424,set_tempo,,,,,256,1,0,,444444,,,,,,
103424,note_on,,,,,0,0,1,,,,0,,,75,66
103424,note_off,,,,,0,0,1,,,,0,,,41,0
103424,note_on,,,,,0,0,1,,,,0,,,79,76
103424,control_change,,,,,0,0,1,,,,0,64,0,,
103424,note_on,,,,,0,0,1,,,,0,,,46,58
103424,control_change,,,,,134,0,1,,,,0,64,0,,
103424,note_on,,,,,0,0,1,,,,0,,,67,61
103612,control_change,,,,,188,0,1,,,,0,64,127,,
103680,note_on,,,,,68,0,1,,,,0,,,51,58
103686,note_off,,,,,0,0,1,,,,0,,,79,0
103686,note_off,,,,,0,0,1,,,,0,,,75,0
103686,note_off,,,,,6,0,1,,,,0,,,67,0
103770,note_off,,,,,84,0,1,,,,0,,,46,0
103819,control_change,,,,,49,0,1,,,,0,64,0,,
103936,note_on,,,,,117,0,1,,,,0,,,67,55
103936,note_on,,,,,0,0,1,,,,0,,,46,52
103936,note_on,,,,,0,0,1,,,,0,,,75,55
103936,note_on,,,,,0,0,1,,,,0,,,79,70
104025,control_change,,,,,89,0,1,,,,0,64,127,,
104026,note_off,,,,,1,0,1,,,,0,,,51,0
104192,note_on,,,,,166,0,1,,,,0,,,39,58
104198,note_off,,,,,0,0,1,,,,0,,,79,0
104198,note_off,,,,,0,0,1,,,,0,,,75,0
104198,note_off,,,,,6,0,1,,,,0,,,67,0
104282,note_off,,,,,84,0,1,,,,0,,,46,0
104345,control_change,,,,,63,0,1,,,,0,64,0,,
104448,set_tempo,,,,,1024,1,0,,400000,,,,,,
104448,note_on,,,,,103,0,1,,,,0,,,68,59
104448,note_on,,,,,0,0,1,,,,0,,,77,59
104448,note_on,,,,,0,0,1,,,,0,,,80,74
104448,note_on,,,,,0,0,1,,,,0,,,46,52
104533,control_change,,,,,85,0,1,,,,0,64,127,,
104538,note_off,,,,,5,0,1,,,,0,,,39,0
104704,note_on,,,,,166,0,1,,,,0,,,51,58
104794,note_off,,,,,90,0,1,,,,0,,,46,0
104960,note_on,,,,,166,0,1,,,,0,,,46,52
105050,note_off,,,,,90,0,1,,,,0,,,51,0
105216,note_on,,,,,166,0,1,,,,0,,,39,58
105222,note_off,,,,,0,0,1,,,,0,,,80,0
105222,note_off,,,,,0,0,1,,,,0,,,77,0
105222,note_off,,,,,6,0,1,,,,0,,,68,0
105306,note_off,,,,,84,0,1,,,,0,,,46,0
105378,control_change,,,,,72,0,1,,,,0,64,0,,
105472,set_tempo,,,,,1024,1,0,,428571,,,,,,
105472,control_change,,,,,94,0,1,,,,0,64,0,,
105472,control_change,,,,,0,0,1,,,,0,64,0,,
105472,control_change,,,,,0,0,1,,,,0,64,0,,
105472,note_on,,,,,0,0,1,,,,0,,,70,62
105472,note_on,,,,,0,0,1,,,,0,,,79,62
105472,note_on,,,,,0,0,1,,,,0,,,82,77
105472,note_on,,,,,0,0,1,,,,0,,,46,58
105562,note_off,,,,,90,0,1,,,,0,,,39,0
105660,control_change,,,,,98,0,1,,,,0,64,127,,
105728,note_on,,,,,68,0,1,,,,0,,,51,58
105734,note_off,,,,,6,0,1,,,,0,,,70,0
105734,note_off,,,,,0,0,1,,,,0,,,79,0
105734,note_off,,,,,0,0,1,,,,0,,,82,0
105818,note_off,,,,,84,0,1,,,,0,,,46,0
105867,control_change,,,,,49,0,1,,,,0,64,0,,
105984,note_on,,,,,117,0,1,,,,0,,,70,56
105984,note_on,,,,,0,0,1,,,,0,,,79,56
105984,note_on,,,,,0,0,1,,,,0,,,82,71
105984,note_on,,,,,0,0,1,,,,0,,,46,52
105984,set_tempo,,,,,512,1,0,,461538,,,,,,
106073,control_change,,,,,89,0,1,,,,0,64,127,,
106074,note_off,,,,,1,0,1,,,,0,,,51,0
106240,note_on,,,,,166,0,1,,,,0,,,39,58
106246,note_off,,,,,0,0,1,,,,0,,,79,0
106246,note_off,,,,,0,0,1,,,,0,,,82,0
106246,note_off,,,,,6,0,1,,,,0,,,70,0
106330,note_off,,,,,84,0,1,,,,0,,,46,0
106393,control_change,,,,,63,0,1,,,,0,64,0,,
106496,set_tempo,,,,,512,1,0,,545454,,,,,,
106496,note_on,,,,,0,0,1,,,,0,,,46,52
106496,note_on,,,,,103,0,1,,,,0,,,72,60
106496,note_on,,,,,0,0,1,,,,0,,,80,60
106496,note_on,,,,,0,0,1,,,,0,,,84,75
106581,control_change,,,,,85,0,1,,,,0,64,127,,
106586,note_off,,,,,5,0,1,,,,0,,,39,0
106752,note_on,,,,,166,0,1,,,,0,,,51,58
106752,set_tempo,,,,,256,1,0,,400000,,,,,,
106842,note_off,,,,,90,0,1,,,,0,,,46,0
107008,note_on,,,,,166,0,1,,,,0,,,46,52
107098,note_off,,,,,90,0,1,,,,0,,,51,0
107264,note_on,,,,,166,0,1,,,,0,,,39,58
107270,note_off,,,,,0,0,1,,,,0,,,84,0
107270,note_off,,,,,0,0,1,,,,0,,,80,0
107270,note_off,,,,,6,0,1,,,,0,,,72,0
107354,note_off,,,,,84,0,1,,,,0,,,46,0
107426,control_change,,,,,72,0,1,,,,0,64,0,,
107520,set_tempo,,,,,768,1,0,,461538,,,,,,
107520,note_on,,,,,0,0,1,,,,0,,,46,58
107520,note_on,,,,,0,0,1,,,,0,,,82,72
107520,note_on,,,,,0,0,1,,,,0,,,79,56
107520,note_on,,,,,0,0,1,,,,0,,,70,56
107520,control_change,,,,,0,0,1,,,,0,64,0,,
107520,control_change,,,,,94,0,1,,,,0,64,0,,
107610,note_off,,,,,90,0,1,,,,0,,,39,0
107670,control_change,,,,,60,0,1,,,,0,64,127,,
107776,note_on,,,,,106,0,1,,,,0,,,51,58
107782,note_off,,,,,0,0,1,,,,0,,,79,0
107782,note_off,,,,,6,0,1,,,,0,,,70,0
107782,note_off,,,,,0,0,1,,,,0,,,82,0
107866,note_off,,,,,84,0,1,,,,0,,,46,0
108032,note_on,,,,,166,0,1,,,,0,,,68,58
108032,note_on,,,,,0,0,1,,,,0,,,80,73
108032,note_on,,,,,0,0,1,,,,0,,,46,52
108032,set_tempo,,,,,512,1,0,,400000,,,,,,
108032,note_on,,,,,0,0,1,,,,0,,,77,58
108122,note_off,,,,,90,0,1,,,,0,,,51,0
108288,note_on,,,,,166,0,1,,,,0,,,39,58
108294,note_off,,,,,6,0,1,,,,0,,,68,0
108294,note_off,,,,,0,0,1,,,,0,,,77,0
108294,note_off,,,,,0,0,1,,,,0,,,80,0
108378,note_off,,,,,84,0,1,,,,0,,,46,0
108544,note_on,,,,,166,0,1,,,,0,,,67,56
108544,note_on,,,,,0,0,1,,,,0,,,75,56
108544,note_on,,,,,0,0,1,,,,0,,,79,71
108544,note_on,,,,,0,0,1,,,,0,,,46,52
108634,note_off,,,,,90,0,1,,,,0,,,39,0
108800,note_on,,,,,166,0,1,,,,0,,,51,58
108800,set_tempo,,,,,768,1,0,,400000,,,,,,
108806,note_off,,,,,0,0,1,,,,0,,,79,0
108806,note_off,,,,,0,0,1,,,,0,,,75,0
108806,note_off,,,,,6,0,1,,,,0,,,67,0
108890,note_off,,,,,84,0,1,,,,0,,,46,0
109056,note_on,,,,,0,0,1,,,,0,,,46,52
109056,note_on,,,,,0,0,1,,,,0,,,77,68
109056,note_on,,,,,0,0,1,,,,0,,,74,54
109056,note_on,,,,,166,0,1,,,,0,,,65,54
109146,note_off,,,,,90,0,1,,,,0,,,51,0
109312,note_on,,,,,166,0,1,,,,0,,,39,58
109318,note_off,,,,,0,0,1,,,,0,,,74,0
109318,note_off,,,,,0,0,1,,,,0,,,77,0
109318,note_off,,,,,6,0,1,,,,0,,,65,0
109402,note_off,,,,,84,0,1,,,,0,,,46,0
109512,control_change,,,,,110,0,1,,,,0,64,0,,
109568,control_change,,,,,56,0,1,,,,0,64,0,,
109568,control_change,,,,,0,0,1,,,,0,64,0,,
109568,note_on,,,,,0,0,1,,,,0,,,65,61
109568,note_on,,,,,0,0,1,,,,0,,,74,61
109568,note_on,,,,,0,0,1,,,,0,,,77,76
109568,note_on,,,,,0,0,1,,,,0,,,46,58
109568,set_tempo,,,,,768,1,0,,461538,,,,,,
109658,note_off,,,,,90,0,1,,,,0,,,39,0
109756,control_change,,,,,98,0,1,,,,0,64,127,,
109824,note_on,,,,,68,0,1,,,,0,,,51,58
109914,note_off,,,,,90,0,1,,,,0,,,46,0
110080,set_tempo,,,,,512,1,0,,400000,,,,,,
110080,note_on,,,,,0,0,1,,,,0,,,46,52
110080,note_on,,,,,0,0,1,,,,0,,,79,67
110080,note_on,,,,,0,0,1,,,,0,,,75,52
110080,note_on,,,,,166,0,1,,,,0,,,67,52
110130,note_off,,,,,0,0,1,,,,0,,,77,0
110130,note_off,,,,,0,0,1,,,,0,,,74,0
110130,note_off,,,,,50,0,1,,,,0,,,65,0
110169,control_change,,,,,39,0,1,,,,0,64,0,,
110170,note_off,,,,,1,0,1,,,,0,,,51,0
110254,note_off,,,,,0,0,1,,,,0,,,79,0
110254,note_off,,,,,0,0,1,,,,0,,,75,0
110254,note_off,,,,,84,0,1,,,,0,,,67,0
110336,note_on,,,,,82,0,1,,,,0,,,39,58
110426,note_off,,,,,90,0,1,,,,0,,,46,0
110592,note_on,,,,,0,0,1,,,,0,,,46,52
110592,note_on,,,,,0,0,1,,,,0,,,79,69
110592,note_on,,,,,166,0,1,,,,0,,,67,54
110592,note_on,,,,,0,0,1,,,,0,,,75,54
110677,control_change,,,,,85,0,1,,,,0,64,127,,
110682,note_off,,,,,5,0,1,,,,0,,,39,0
110848,note_on,,,,,166,0,1,,,,0,,,51,58
110848,set_tempo,,,,,768,1,0,,400000,,,,,,
110938,note_off,,,,,90,0,1,,,,0,,,46,0
111104,note_on,,,,,166,0,1,,,,0,,,46,52
111194,note_off,,,,,90,0,1,,,,0,,,51,0
111360,note_on,,,,,166,0,1,,,,0,,,39,58
111450,note_off,,,,,90,0,1,,,,0,,,46,0
111503,control_change,,,,,53,0,1,,,,0,64,0,,
111616,note_on,,,,,0,0,1,,,,0,,,75,66
111616,note_on,,,,,0,0,1,,,,0,,,67,61
111616,note_off,,,,,0,0,1,,,,0,,,75,0
111616,note_off,,,,,0,0,1,,,,0,,,67,0
111616,control_change,,,,,0,0,1,,,,0,64,0,,
111616,control_change,,,,,113,0,1,,,,0,64,0,,
111616,note_on,,,,,0,0,1,,,,0,,,79,76
111616,note_off,,,,,0,0,1,,,,0,,,79,0
111616,set_tempo,,,,,768,1,0,,500000,,,,,,
111616,note_on,,,,,0,0,1,,,,0,,,46,58
111706,note_off,,,,,90,0,1,,,,0,,,39,0
111804,control_change,,,,,98,0,1,,,,0,64,127,,
111872,note_on,,,,,68,0,1,,,,0,,,51,58
111878,note_off,,,,,6,0,1,,,,0,,,67,0
111878,note_off,,,,,0,0,1,,,,0,,,75,0
111878,note_off,,,,,0,0,1,,,,0,,,79,0
111962,note_off,,,,,84,0,1,,,,0,,,46,0
112011,control_change,,,,,49,0,1,,,,0,64,0,,
112128,note_on,,,,,0,0,1,,,,0,,,75,59
112128,note_on,,,,,0,0,1,,,,0,,,79,74
112128,set_tempo,,,,,512,1,0,,461538,,,,,,
112128,note_on,,,,,0,0,1,,,,0,,,46,52
112128,note_on,,,,,117,0,1,,,,0,,,67,59
112217,control_change,,,,,89,0,1,,,,0,64,127,,
112218,note_off,,,,,1,0,1,,,,0,,,51,0
112384,note_on,,,,,166,0,1,,,,0,,,39,58
112390,note_off,,,,,6,0,1,,,,0,,,67,0
112390,note_off,,,,,0,0,1,,,,0,,,79,0
112390,note_off,,,,,0,0,1,,,,0,,,75,0
112474,note_off,,,,,84,0,1,,,,0,,,46,0
112537,control_change,,,,,63,0,1,,,,0,64,0,,
112640,set_tempo,,,,,512,1,0,,400000,,,,,,
112640,note_on,,,,,0,0,1,,,,0,,,46,52
112640,note_on,,,,,0,0,1,,,,0,,,80,78
112640,note_on,,,,,103,0,1,,,,0,,,68,63
112640,note_on,,,,,0,0,1,,,,0,,,77,63
112725,control_change,,,,,85,0,1,,,,0,64,127,,
112730,note_off,,,,,5,0,1,,,,0,,,39,0
112896,note_on,,,,,166,0,1,,,,0,,,51,58
112986,note_off,,,,,90,0,1,,,,0,,,46,0
113152,note_on,,,,,166,0,1,,,,0,,,46,52
113242,note_off,,,,,90,0,1,,,,0,,,51,0
113408,note_on,,,,,166,0,1,,,,0,,,39,58
113414,note_off,,,,,6,0,1,,,,0,,,68,0
113414,note_off,,,,,0,0,1,,,,0,,,80,0
113414,note_off,,,,,0,0,1,,,,0,,,77,0
113498,note_off,,,,,84,0,1,,,,0,,,46,0
113570,control_change,,,,,72,0,1,,,,0,64,0,,
113664,set_tempo,,,,,1024,1,0,,444444,,,,,,
113664,control_change,,,,,0,0,1,,,,0,64,0,,
113664,note_on,,,,,0,0,1,,,,0,,,46,58
113664,note_on,,,,,0,0,1,,,,0,,,79,62
113664,control_change,,,,,94,0,1,,,,0,64,0,,
113664,control_change,,,,,0,0,1,,,,0,64,0,,
113664,note_on,,,,,0,0,1,,,,0,,,82,77
113664,note_on,,,,,0,0,1,,,,0,,,70,62
113754,note_off,,,,,90,0,1,,,,0,,,39,0
113852,control_change,,,,,98,0,1,,,,0,64,127,,
113920,note_on,,,,,68,0,1,,,,0,,,51,58
113926,note_off,,,,,6,0,1,,,,0,,,70,0
113926,note_off,,,,,0,0,1,,,,0,,,79,0
113926,note_off,,,,,0,0,1,,,,0,,,82,0
114010,note_off,,,,,84,0,1,,,,0,,,46,0
114059,control_change,,,,,49,0,1,,,,0,64,0,,
114176,note_on,,,,,0,0,1,,,,0,,,82,75
114176,set_tempo,,,,,512,1,0,,480000,,,,,,
114176,note_on,,,,,0,0,1,,,,0,,,46,52
114176,note_on,,,,,0,0,1,,,,0,,,79,60
114176,note_on,,,,,117,0,1,,,,0,,,70,60
114265,control_change,,,,,89,0,1,,,,0,64,127,,
114266,note_off,,,,,1,0,1,,,,0,,,51,0
114432,note_on,,,,,166,0,1,,,,0,,,39,58
114438,note_off,,,,,6,0,1,,,,0,,,70,0
114438,note_off,,,,,0,0,1,,,,0,,,79,0
114438,note_off,,,,,0,0,1,,,,0,,,82,0
114522,note_off,,,,,84,0,1,,,,0,,,46,0
114585,control_change,,,,,63,0,1,,,,0,64,0,,
114688,note_on,,,,,0,0,1,,,,0,,,84,79
114688,set_tempo,,,,,512,1,0,,545454,,,,,,
114688,note_on,,,,,103,0,1,,,,0,,,72,64
114688,note_on,,,,,0,0,1,,,,0,,,80,64
114688,note_on,,,,,0,0,1,,,,0,,,46,52
114773,control_change,,,,,85,0,1,,,,0,64,127,,
114778,note_off,,,,,5,0,1,,,,0,,,39,0
114944,note_on,,,,,166,0,1,,,,0,,,51,58
114944,set_tempo,,,,,256,1,0,,400000,,,,,,
115034,note_off,,,,,90,0,1,,,,0,,,46,0
115200,note_on,,,,,166,0,1,,,,0,,,46,52
115290,note_off,,,,,90,0,1,,,,0,,,51,0
115456,note_on,,,,,166,0,1,,,,0,,,39,58
115462,note_off,,,,,6,0,1,,,,0,,,72,0
115462,note_off,,,,,0,0,1,,,,0,,,80,0
115462,note_off,,,,,0,0,1,,,,0,,,84,0
115546,note_off,,,,,84,0,1,,,,0,,,46,0
115618,control_change,,,,,72,0,1,,,,0,64,0,,
115712,set_tempo,,,,,768,1,0,,461538,,,,,,
115712,control_change,,,,,0,0,1,,,,0,64,0,,
115712,note_on,,,,,0,0,1,,,,0,,,70,60
115712,note_on,,,,,0,0,1,,,,0,,,79,60
115712,note_on,,,,,0,0,1,,,,0,,,82,76
115712,note_on,,,,,0,0,1,,,,0,,,46,58
115712,control_change,,,,,94,0,1,,,,0,64,0,,
115802,note_off,,,,,90,0,1,,,,0,,,39,0
115862,control_change,,,,,60,0,1,,,,0,64,127,,
115968,note_on,,,,,106,0,1,,,,0,,,51,58
115974,note_off,,,,,6,0,1,,,,0,,,70,0
115974,note_off,,,,,0,0,1,,,,0,,,79,0
115974,note_off,,,,,0,0,1,,,,0,,,82,0
116058,note_off,,,,,84,0,1,,,,0,,,46,0
116224,note_on,,,,,166,0,1,,,,0,,,68,62
116224,note_on,,,,,0,0,1,,,,0,,,77,62
116224,note_on,,,,,0,0,1,,,,0,,,80,77
116224,note_on,,,,,0,0,1,,,,0,,,46,52
116224,set_tempo,,,,,512,1,0,,400000,,,,,,
116314,note_off,,,,,90,0,1,,,,0,,,51,0
116480,note_on,,,,,166,0,1,,,,0,,,39,58
116486,note_off,,,,,0,0,1,,,,0,,,77,0
116486,note_off,,,,,0,0,1,,,,0,,,80,0
116486,note_off,,,,,6,0,1,,,,0,,,68,0
116570,note_off,,,,,84,0,1,,,,0,,,46,0
116736,note_on,,,,,0,0,1,,,,0,,,46,52
116736,note_on,,,,,166,0,1,,,,0,,,67,60
116736,note_on,,,,,0,0,1,,,,0,,,75,60
116736,note_on,,,,,0,0,1,,,,0,,,79,75
116826,note_off,,,,,90,0,1,,,,0,,,39,0
116992,set_tempo,,,,,768,1,0,,400000,,,,,,
116992,note_on,,,,,166,0,1,,,,0,,,51,58
116998,note_off,,,,,6,0,1,,,,0,,,67,0
116998,note_off,,,,,0,0,1,,,,0,,,75,0
116998,note_off,,,,,0,0,1,,,,0,,,79,0
117082,note_off,,,,,84,0,1,,,,0,,,46,0
117248,note_on,,,,,0,0,1,,,,0,,,77,72
117248,note_on,,,,,0,0,1,,,,0,,,46,52
117248,note_on,,,,,0,0,1,,,,0,,,74,58
117248,note_on,,,,,166,0,1,,,,0,,,65,58
117338,note_off,,,,,90,0,1,,,,0,,,51,0
117504,note_on,,,,,166,0,1,,,,0,,,39,58
117510,note_off,,,,,6,0,1,,,,0,,,65,0
117510,note_off,,,,,0,0,1,,,,0,,,74,0
117510,note_off,,,,,0,0,1,,,,0,,,77,0
117594,note_off,,,,,84,0,1,,,,0,,,46,0
117704,control_change,,,,,110,0,1,,,,0,64,0,,
117760,set_tempo,,,,,768,1,0,,461538,,,,,,
117760,note_on,,,,,0,0,1,,,,0,,,46,58
117760,note_on,,,,,0,0,1,,,,0,,,77,76
117760,note_on,,,,,0,0,1,,,,0,,,74,61
117760,control_change,,,,,0,0,1,,,,0,64,0,,
117760,control_change,,,,,56,0,1,,,,0,64,0,,
117760,note_on,,,,,0,0,1,,,,0,,,65,61
117850,note_off,,,,,90,0,1,,,,0,,,39,0
117948,control_change,,,,,98,0,1,,,,0,64,127,,
118016,note_on,,,,,68,0,1,,,,0,,,51,58
118106,note_off,,,,,90,0,1,,,,0,,,46,0
118272,note_on,,,,,166,0,1,,,,0,,,67,52
118272,note_on,,,,,0,0,1,,,,0,,,75,52
118272,note_on,,,,,0,0,1,,,,0,,,79,67
118272,set_tempo,,,,,512,1,0,,400000,,,,,,
118272,note_on,,,,,0,0,1,,,,0,,,46,52
118322,note_off,,,,,50,0,1,,,,0,,,65,0
118322,note_off,,,,,0,0,1,,,,0,,,74,0
118322,note_off,,,,,0,0,1,,,,0,,,77,0
118361,control_change,,,,,39,0,1,,,,0,64,0,,
118362,note_off,,,,,1,0,1,,,,0,,,51,0
118446,note_off,,,,,0,0,1,,,,0,,,75,0
118446,note_off,,,,,0,0,1,,,,0,,,79,0
118446,note_off,,,,,84,0,1,,,,0,,,67,0
118528,note_on,,,,,82,0,1,,,,0,,,39,58
118618,note_off,,,,,90,0,1,,,,0,,,46,0
118784,note_on,,,,,0,0,1,,,,0,,,46,52
118784,note_on,,,,,0,0,1,,,,0,,,79,69
118784,note_on,,,,,0,0,1,,,,0,,,75,54
118784,note_on,,,,,166,0,1,,,,0,,,67,54
118869,control_change,,,,,85,0,1,,,,0,64,127,,
118874,note_off,,,,,5,0,1,,,,0,,,39,0
119040,note_on,,,,,166,0,1,,,,0,,,51,58
119040,set_tempo,,,,,768,1,0,,400000,,,,,,
119130,note_off,,,,,90,0,1,,,,0,,,46,0
119296,note_on,,,,,166,0,1,,,,0,,,46,52
119386,note_off,,,,,90,0,1,,,,0,,,51,0
119552,note_on,,,,,166,0,1,,,,0,,,39,58
119642,note_off,,,,,90,0,1,,,,0,,,46,0
119695,control_change,,,,,53,0,1,,,,0,64,0,,
119808,note_on,,,,,0,0,1,,,,0,,,79,76
119808,note_on,,,,,0,0,1,,,,0,,,46,67
119808,note_on,,,,,0,0,1,,,,0,,,76,66
119808,control_change,,,,,0,0,1,,,,0,64,0,,
119808,note_off,,,,,0,0,1,,,,0,,,79,0
119808,note_off,,,,,0,0,1,,,,0,,,75,0
119808,note_off,,,,,0,0,1,,,,0,,,67,0
119808,control_change,,,,,0,0,1,,,,0,64,0,,
119808,set_tempo,,,,,768,1,0,,428571,,,,,,
119808,control_change,,,,,113,0,1,,,,0,64,0,,
119808,note_on,,,,,0,0,1,,,,0,,,67,61
119808,control_change,,,,,0,0,1,,,,0,64,0,,
119898,note_off,,,,,90,0,1,,,,0,,,39,0
119996,control_change,,,,,98,0,1,,,,0,64,127,,
120064,note_on,,,,,68,0,1,,,,0,,,48,58
120070,note_off,,,,,6,0,1,,,,0,,,67,0
120070,note_off,,,,,0,0,1,,,,0,,,76,0
120070,note_off,,,,,0,0,1,,,,0,,,79,0
120154,note_off,,,,,84,0,1,,,,0,,,46,0
120203,control_change,,,,,49,0,1,,,,0,64,0,,
120320,note_on,,,,,117,0,1,,,,0,,,67,59
120320,note_on,,,,,0,0,1,,,,0,,,76,59
120320,note_on,,,,,0,0,1,,,,0,,,79,74
120320,note_on,,,,,0,0,1,,,,0,,,46,52
120409,control_change,,,,,89,0,1,,,,0,64,127,,
120410,note_off,,,,,1,0,1,,,,0,,,48,0
120576,note_on,,,,,166,0,1,,,,0,,,36,58
120582,note_off,,,,,6,0,1,,,,0,,,67,0
120582,note_off,,,,,0,0,1,,,,0,,,76,0
120582,note_off,,,,,0,0,1,,,,0,,,79,0
120666,note_off,,,,,84,0,1,,,,0,,,46,0
120729,control_change,,,,,63,0,1,,,,0,64,0,,
120832,note_on,,,,,0,0,1,,,,0,,,81,78
120832,note_on,,,,,0,0,1,,,,0,,,77,63
120832,note_on,,,,,103,0,1,,,,0,,,69,63
120832,note_on,,,,,0,0,1,,,,0,,,45,61
120832,set_tempo,,,,,1024,1,0,,400000,,,,,,
120917,control_change,,,,,85,0,1,,,,0,64,127,,
120922,note_off,,,,,5,0,1,,,,0,,,36,0
121088,note_on,,,,,166,0,1,,,,0,,,48,58
121178,note_off,,,,,90,0,1,,,,0,,,45,0
121344,note_on,,,,,166,0,1,,,,0,,,45,52
121434,note_off,,,,,90,0,1,,,,0,,,48,0
121600,note_on,,,,,166,0,1,,,,0,,,36,58
121606,note_off,,,,,6,0,1,,,,0,,,69,0
121606,note_off,,,,,0,0,1,,,,0,,,81,0
121606,note_off,,,,,0,0,1,,,,0,,,77,0
121690,note_off,,,,,84,0,1,,,,0,,,45,0
121762,control_change,,,,,72,0,1,,,,0,64,0,,
121856,control_change,,,,,0,0,1,,,,0,64,0,,
121856,control_change,,,,,0,0,1,,,,0,64,0,,
121856,control_change,,,,,94,0,1,,,,0,64,0,,
121856,set_tempo,,,,,1024,1,0,,444444,,,,,,
121856,note_on,,,,,0,0,1,,,,0,,,40,67
121856,note_on,,,,,0,0,1,,,,0,,,82,77
121856,note_on,,,,,0,0,1,,,,0,,,79,62
121856,note_on,,,,,0,0,1,,,,0,,,70,62
121856,control_change,,,,,0,0,1,,,,0,64,0,,
121856,control_change,,,,,0,0,1,,,,0,64,0,,
121946,note_off,,,,,90,0,1,,,,0,,,36,0
122044,control_change,,,,,98,0,1,,,,0,64,127,,
122112,note_on,,,,,68,0,1,,,,0,,,48,58
122118,note_off,,,,,0,0,1,,,,0,,,79,0
122118,note_off,,,,,0,0,1,,,,0,,,82,0
122118,note_off,,,,,6,0,1,,,,0,,,70,0
122202,note_off,,,,,84,0,1,,,,0,,,40,0
122251,control_change,,,,,49,0,1,,,,0,64,0,,
122368,set_tempo,,,,,512,1,0,,480000,,,,,,
122368,note_on,,,,,0,0,1,,,,0,,,40,52
122368,note_on,,,,,0,0,1,,,,0,,,79,60
122368,note_on,,,,,117,0,1,,,,0,,,70,60
122368,note_on,,,,,0,0,1,,,,0,,,82,75
122457,control_change,,,,,89,0,1,,,,0,64,127,,
122458,note_off,,,,,1,0,1,,,,0,,,48,0
122624,note_on,,,,,166,0,1,,,,0,,,36,58
122630,note_off,,,,,6,0,1,,,,0,,,70,0
122630,note_off,,,,,0,0,1,,,,0,,,79,0
122630,note_off,,,,,0,0,1,,,,0,,,82,0
122714,note_off,,,,,84,0,1,,,,0,,,40,0
122777,control_change,,,,,63,0,1,,,,0,64,0,,
122880,set_tempo,,,,,512,1,0,,545454,,,,,,
122880,note_on,,,,,103,0,1,,,,0,,,69,64
122880,note_on,,,,,0,0,1,,,,0,,,77,64
122880,note_on,,,,,0,0,1,,,,0,,,81,79
122880,note_on,,,,,0,0,1,,,,0,,,41,61
122965,control_change,,,,,85,0,1,,,,0,64,127,,
122970,note_off,,,,,5,0,1,,,,0,,,36,0
123136,set_tempo,,,,,256,1,0,,400000,,,,,,
123136,note_on,,,,,166,0,1,,,,0,,,48,58
123226,note_off,,,,,90,0,1,,,,0,,,41,0
123392,note_on,,,,,166,0,1,,,,0,,,41,52
123482,note_off,,,,,90,0,1,,,,0,,,48,0
123648,note_on,,,,,166,0,1,,,,0,,,36,58
123654,note_off,,,,,6,0,1,,,,0,,,69,0
123654,note_off,,,,,0,0,1,,,,0,,,77,0
123654,note_off,,,,,0,0,1,,,,0,,,81,0
123738,note_off,,,,,84,0,1,,,,0,,,41,0
123810,control_change,,,,,72,0,1,,,,0,64,0,,
123904,control_change,,,,,94,0,1,,,,0,64,0,,
123904,control_change,,,,,0,0,1,,,,0,64,0,,
123904,control_change,,,,,0,0,1,,,,0,64,0,,
123904,control_change,,,,,0,0,1,,,,0,64,0,,
123904,note_on,,,,,0,0,1,,,,0,,,67,60
123904,note_on,,,,,0,0,1,,,,0,,,76,60
123904,note_on,,,,,0,0,1,,,,0,,,79,76
123904,note_on,,,,,0,0,1,,,,0,,,43,67
123904,set_tempo,,,,,768,1,0,,461538,,,,,,
123994,note_off,,,,,90,0,1,,,,0,,,36,0
124054,control_change,,,,,60,0,1,,,,0,64,127,,
124160,note_on,,,,,106,0,1,,,,0,,,48,58
124166,note_off,,,,,0,0,1,,,,0,,,76,0
124166,note_off,,,,,0,0,1,,,,0,,,79,0
124166,note_off,,,,,6,0,1,,,,0,,,67,0
124250,note_off,,,,,84,0,1,,,,0,,,43,0
124416,note_on,,,,,166,0,1,,,,0,,,65,62
124416,note_on,,,,,0,0,1,,,,0,,,74,62
124416,note_on,,,,,0,0,1,,,,0,,,77,77
124416,note_on,,,,,0,0,1,,,,0,,,43,52
124416,set_tempo,,,,,512,1,0,,400000,,,,,,
124506,note_off,,,,,90,0,1,,,,0,,,48,0
124672,note_on,,,,,166,0,1,,,,0,,,36,58
124678,note_off,,,,,0,0,1,,,,0,,,74,0
124678,note_off,,,,,0,0,1,,,,0,,,77,0
124678,note_off,,,,,6,0,1,,,,0,,,65,0
124762,note_off,,,,,84,0,1,,,,0,,,43,0
124928,note_on,,,,,0,0,1,,,,0,,,44,69
124928,note_on,,,,,0,0,1,,,,0,,,76,75
124928,note_on,,,,,0,0,1,,,,0,,,72,60
124928,note_on,,,,,166,0,1,,,,0,,,64,60
125018,note_off,,,,,90,0,1,,,,0,,,36,0
125184,note_on,,,,,166,0,1,,,,0,,,48,58
125184,set_tempo,,,,,768,1,0,,400000,,,,,,
125190,note_off,,,,,6,0,1,,,,0,,,64,0
125190,note_off,,,,,0,0,1,,,,0,,,76,0
125190,note_off,,,,,0,0,1,,,,0,,,72,0
125274,note_off,,,,,84,0,1,,,,0,,,44,0
125440,note_on,,,,,166,0,1,,,,0,,,62,58
125440,note_on,,,,,0,0,1,,,,0,,,71,58
125440,note_on,,,,,0,0,1,,,,0,,,74,72
125440,note_on,,,,,0,0,1,,,,0,,,44,52
125530,note_off,,,,,90,0,1,,,,0,,,48,0
125696,note_on,,,,,166,0,1,,,,0,,,36,58
125702,note_off,,,,,0,0,1,,,,0,,,74,0
125702,note_off,,,,,6,0,1,,,,0,,,62,0
125702,note_off,,,,,0,0,1,,,,0,,,71,0
125786,note_off,,,,,84,0,1,,,,0,,,44,0
125896,control_change,,,,,110,0,1,,,,0,64,0,,
125952,note_on,,,,,0,0,1,,,,0,,,71,61
125952,note_on,,,,,0,0,1,,,,0,,,62,61
125952,control_change,,,,,0,0,1,,,,0,64,0,,
125952,control_change,,,,,0,0,1,,,,0,64,0,,
125952,control_change,,,,,0,0,1,,,,0,64,0,,
125952,control_change,,,,,56,0,1,,,,0,64,0,,
125952,note_on,,,,,0,0,1,,,,0,,,43,67
125952,set_tempo,,,,,768,1,0,,461538,,,,,,
125952,note_on,,,,,0,0,1,,,,0,,,74,76
126042,note_off,,,,,90,0,1,,,,0,,,36,0
126140,control_change,,,,,98,0,1,,,,0,64,127,,
126208,note_on,,,,,68,0,1,,,,0,,,48,58
126298,note_off,,,,,90,0,1,,,,0,,,43,0
126464,note_on,,,,,166,0,1,,,,0,,,64,52
126464,note_on,,,,,0,0,1,,,,0,,,72,52
126464,note_on,,,,,0,0,1,,,,0,,,43,52
126464,note_on,,,,,0,0,1,,,,0,,,76,67
126464,set_tempo,,,,,512,1,0,,400000,,,,,,
126514,note_off,,,,,0,0,1,,,,0,,,71,0
126514,note_off,,,,,0,0,1,,,,0,,,74,0
126514,note_off,,,,,50,0,1,,,,0,,,62,0
126553,control_change,,,,,39,0,1,,,,0,64,0,,
126554,note_off,,,,,1,0,1,,,,0,,,48,0
126638,note_off,,,,,0,0,1,,,,0,,,76,0
126638,note_off,,,,,0,0,1,,,,0,,,72,0
126638,note_off,,,,,84,0,1,,,,0,,,64,0
126720,note_on,,,,,82,0,1,,,,0,,,36,58
126810,note_off,,,,,90,0,1,,,,0,,,43,0
126976,note_on,,,,,0,0,1,,,,0,,,72,54
126976,note_on,,,,,0,0,1,,,,0,,,76,69
126976,note_on,,,,,0,0,1,,,,0,,,43,52
126976,note_on,,,,,166,0,1,,,,0,,,64,54
127061,control_change,,,,,85,0,1,,,,0,64,127,,
127066,note_off,,,,,5,0,1,,,,0,,,36,0
127232,note_on,,,,,166,0,1,,,,0,,,48,58
127232,set_tempo,,,,,768,1,0,,400000,,,,,,
127322,note_off,,,,,90,0,1,,,,0,,,43,0
127488,note_on,,,,,166,0,1,,,,0,,,43,52
127578,note_off,,,,,90,0,1,,,,0,,,48,0
127744,note_on,,,,,166,0,1,,,,0,,,36,58
127834,note_off,,,,,90,0,1,,,,0,,,43,0
127887,control_change,,,,,53,0,1,,,,0,64,0,,
128000,note_off,,,,,0,0,1,,,,0,,,64,0
128000,note_on,,,,,0,0,1,,,,0,,,79,81
128000,note_off,,,,,0,0,1,,,,0,,,76,0
128000,note_on,,,,,0,0,1,,,,0,,,67,66
128000,note_on,,,,,0,0,1,,,,0,,,76,71
128000,note_on,,,,,0,0,1,,,,0,,,46,72
128000,control_change,,,,,0,0,1,,,,0,64,0,,
128000,control_change,,,,,0,0,1,,,,0,64,0,,
128000,note_off,,,,,0,0,1,,,,0,,,72,0
128000,control_change,,,,,0,0,1,,,,0,64,0,,
128000,control_change,,,,,0,0,1,,,,0,64,0,,
128000,control_change,,,,,113,0,1,,,,0,64,0,,
128000,set_tempo,,,,,768,1,0,,461538,,,,,,
128000,control_change,,,,,0,0,1,,,,0,64,0,,
128090,note_off,,,,,90,0,1,,,,0,,,36,0
128188,control_change,,,,,98,0,1,,,,0,64,127,,
128256,note_on,,,,,0,0,1,,,,0,,,48,63
128256,note_off,,,,,68,0,1,,,,0,,,46,0
128395,control_change,,,,,139,0,1,,,,0,64,0,,
128512,note_on,,,,,0,0,1,,,,0,,,67,64
128512,note_off,,,,,117,0,1,,,,0,,,67,0
128512,note_off,,,,,0,0,1,,,,0,,,76,0
128512,note_off,,,,,0,0,1,,,,0,,,79,0
128512,note_off,,,,,0,0,1,,,,0,,,48,0
128512,note_on,,,,,0,0,1,,,,0,,,76,64
128512,note_on,,,,,0,0,1,,,,0,,,79,79
128512,note_on,,,,,0,0,1,,,,0,,,46,57
128601,control_change,,,,,89,0,1,,,,0,64,127,,
128768,note_on,,,,,0,0,1,,,,0,,,36,63
128768,note_off,,,,,167,0,1,,,,0,,,46,0
128921,control_change,,,,,153,0,1,,,,0,64,0,,
129024,note_on,,,,,0,0,1,,,,0,,,69,68
129024,note_on,,,,,0,0,1,,,,0,,,45,66
129024,note_on,,,,,0,0,1,,,,0,,,81,83
129024,note_off,,,,,0,0,1,,,,0,,,36,0
129024,note_off,,,,,0,0,1,,,,0,,,79,0
129024,note_on,,,,,0,0,1,,,,0,,,77,68
129024,note_off,,,,,103,0,1,,,,0,,,67,0
129024,note_off,,,,,0,0,1,,,,0,,,76,0
129024,set_tempo,,,,,1024,1,0,,400000,,,,,,
129109,control_change,,,,,85,0,1,,,,0,64,127,,
129280,note_on,,,,,0,0,1,,,,0,,,48,63
129280,note_off,,,,,171,0,1,,,,0,,,45,0
129536,note_on,,,,,0,0,1,,,,0,,,45,57
129536,note_off,,,,,256,0,1,,,,0,,,48,0
129792,note_off,,,,,256,0,1,,,,0,,,45,0
129792,note_on,,,,,0,0,1,,,,0,,,36,63
129954,control_change,,,,,162,0,1,,,,0,64,0,,
130048,note_on,,,,,0,0,1,,,,0,,,79,67
130048,note_off,,,,,0,0,1,,,,0,,,69,0
130048,note_on,,,,,0,0,1,,,,0,,,82,82
130048,note_off,,,,,0,0,1,,,,0,,,36,0
130048,note_off,,,,,0,0,1,,,,0,,,81,0
130048,note_off,,,,,0,0,1,,,,0,,,77,0
130048,note_on,,,,,0,0,1,,,,0,,,40,72
130048,note_on,,,,,0,0,1,,,,0,,,70,67
130048,control_change,,,,,0,0,1,,,,0,64,0,,
130048,control_change,,,,,0,0,1,,,,0,64,0,,
130048,control_change,,,,,0,0,1,,,,0,64,0,,
130048,control_change,,,,,0,0,1,,,,0,64,0,,
130048,control_change,,,,,0,0,1,,,,0,64,0,,
130048,control_change,,,,,94,0,1,,,,0,64,0,,
130048,set_tempo,,,,,1024,1,0,,500000,,,,,,
130048,control_change,,,,,0,0,1,,,,0,64,0,,
130236,control_change,,,,,188,0,1,,,,0,64,127,,
130304,note_off,,,,,68,0,1,,,,0,,,40,0
130304,note_on,,,,,0,0,1,,,,0,,,48,63
130443,control_change,,,,,139,0,1,,,,0,64,0,,
130560,note_on,,,,,0,0,1,,,,0,,,79,65
130560,note_on,,,,,0,0,1,,,,0,,,82,80
130560,note_on,,,,,0,0,1,,,,0,,,40,57
130560,note_on,,,,,0,0,1,,,,0,,,70,65
130560,note_off,,,,,0,0,1,,,,0,,,79,0
130560,note_off,,,,,0,0,1,,,,0,,,82,0
130560,note_off,,,,,117,0,1,,,,0,,,70,0
130560,set_tempo,,,,,512,1,0,,480000,,,,,,
130560,note_off,,,,,0,0,1,,,,0,,,48,0
130649,control_change,,,,,89,0,1,,,,0,64,127,,
130816,note_off,,,,,167,0,1,,,,0,,,40,0
130816,note_on,,,,,0,0,1,,,,0,,,36,63
130969,control_change,,,,,153,0,1,,,,0,64,0,,
131072,note_on,,,,,0,0,1,,,,0,,,81,84
131072,set_tempo,,,,,512,1,0,,545454,,,,,,
131072,note_off,,,,,103,0,1,,,,0,,,70,0
131072,note_off,,,,,0,0,1,,,,0,,,79,0
131072,note_on,,,,,0,0,1,,,,0,,,41,66
131072,note_off,,,,,0,0,1,,,,0,,,36,0
131072,note_on,,,,,0,0,1,,,,0,,,77,69
131072,note_off,,,,,0,0,1,,,,0,,,82,0
131072,note_on,,,,,0,0,1,,,,0,,,69,69
131157,control_change,,,,,85,0,1,,,,0,64,127,,
131328,note_off,,,,,171,0,1,,,,0,,,41,0
131328,note_on,,,,,0,0,1,,,,0,,,48,63
131328,set_tempo,,,,,256,1,0,,400000,,,,,,
131584,note_off,,,,,256,0,1,,,,0,,,48,0
131584,note_on,,,,,0,0,1,,,,0,,,41,57
131840,note_off,,,,,256,0,1,,,,0,,,41,0
131840,note_on,,,,,0,0,1,,,,0,,,36,63
132002,control_change,,,,,162,0,1,,,,0,64,0,,
132096,set_tempo,,,,,768,1,0,,461538,,,,,,
132096,note_on,,,,,0,0,1,,,,0,,,43,67
132096,note_on,,,,,0,0,1,,,,0,,,79,76
132096,note_on,,,,,0,0,1,,,,0,,,76,60
132096,note_on,,,,,0,0,1,,,,0,,,67,60
132096,note_off,,,,,0,0,1,,,,0,,,36,0
132096,note_off,,,,,0,0,1,,,,0,,,77,0
132096,note_off,,,,,0,0,1,,,,0,,,69,0
132096,control_change,,,,,0,0,1,,,,0,64,0,,
132096,control_change,,,,,0,0,1,,,,0,64,0,,
132096,control_change,,,,,0,0,1,,,,0,64,0,,
132096,control_change,,,,,0,0,1,,,,0,64,0,,
132096,control_change,,,,,94,0,1,,,,0,64,0,,
132096,note_off,,,,,0,0,1,,,,0,,,81,0
132096,control_change,,,,,0,0,1,,,,0,64,0,,
132246,control_change,,,,,150,0,1,,,,0,64,127,,
132352,note_off,,,,,106,0,1,,,,0,,,43,0
132352,note_on,,,,,0,0,1,,,,0,,,48,58
132608,note_on,,,,,0,0,1,,,,0,,,77,77
132608,set_tempo,,,,,512,1,0,,400000,,,,,,
132608,note_on,,,,,0,0,1,,,,0,,,45,52
132608,note_on,,,,,0,0,1,,,,0,,,74,62
132608,note_off,,,,,0,0,1,,,,0,,,48,0
132608,note_off,,,,,256,0,1,,,,0,,,67,0
132608,note_off,,,,,0,0,1,,,,0,,,76,0
132608,note_on,,,,,0,0,1,,,,0,,,65,62
132608,note_off,,,,,0,0,1,,,,0,,,79,0
132864,note_off,,,,,256,0,1,,,,0,,,45,0
132864,note_on,,,,,0,0,1,,,,0,,,48,58
133120,note_off,,,,,0,0,1,,,,0,,,77,0
133120,note_off,,,,,0,0,1,,,,0,,,48,0
133120,note_on,,,,,0,0,1,,,,0,,,64,60
133120,note_on,,,,,0,0,1,,,,0,,,72,60
133120,note_on,,,,,0,0,1,,,,0,,,76,75
133120,note_on,,,,,0,0,1,,,,0,,,46,69
133120,note_off,,,,,256,0,1,,,,0,,,65,0
133120,note_off,,,,,0,0,1,,,,0,,,74,0
133376,note_off,,,,,256,0,1,,,,0,,,46,0
133376,note_on,,,,,0,0,1,,,,0,,,48,58
133376,set_tempo,,,,,768,1,0,,400000,,,,,,
133632,note_on,,,,,0,0,1,,,,0,,,47,52
133632,note_on,,,,,0,0,1,,,,0,,,65,58
133632,note_on,,,,,0,0,1,,,,0,,,62,58
133632,note_off,,,,,0,0,1,,,,0,,,48,0
133632,note_off,,,,,0,0,1,,,,0,,,72,0
133632,note_off,,,,,256,0,1,,,,0,,,64,0
133632,note_on,,,,,0,0,1,,,,0,,,74,72
133632,note_off,,,,,0,0,1,,,,0,,,76,0
133888,note_off,,,,,256,0,1,,,,0,,,47,0
133888,note_on,,,,,0,0,1,,,,0,,,48,58
134088,control_change,,,,,200,0,1,,,,0,64,0,,
134144,note_on,,,,,0,0,1,,,,0,,,74,76
134144,set_tempo,,,,,768,1,0,,461538,,,,,,
134144,note_on,,,,,0,0,1,,,,0,,,31,67
134144,note_on,,,,,0,0,1,,,,0,,,65,61
134144,note_off,,,,,0,0,1,,,,0,,,48,0
134144,note_off,,,,,0,0,1,,,,0,,,62,0
134144,control_change,,,,,0,0,1,,,,0,64,0,,
134144,control_change,,,,,56,0,1,,,,0,64,0,,
134144,note_on,,,,,0,0,1,,,,0,,,62,61
134144,note_off,,,,,0,0,1,,,,0,,,65,0
134144,note_off,,,,,0,0,1,,,,0,,,74,0
134400,set_tempo,,,,,256,1,0,,400000,,,,,,
134400,note_on,,,,,0,0,1,,,,0,,,43,58
134400,note_off,,,,,256,0,1,,,,0,,,31,0
134656,note_on,,,,,0,0,1,,,,0,,,60,52
134656,note_off,,,,,256,0,1,,,,0,,,62,0
134656,note_off,,,,,0,0,1,,,,0,,,43,0
134656,note_off,,,,,0,0,1,,,,0,,,74,0
134656,note_off,,,,,0,0,1,,,,0,,,65,0
134656,set_tempo,,,,,256,1,0,,400000,,,,,,
134656,note_on,,,,,0,0,1,,,,0,,,36,52
134656,note_on,,,,,0,0,1,,,,0,,,72,67
134656,note_on,,,,,0,0,1,,,,0,,,64,52
134830,note_off,,,,,0,0,1,,,,0,,,72,0
134830,note_off,,,,,0,0,1,,,,0,,,64,0
134830,note_off,,,,,174,0,1,,,,0,,,60,0
134912,note_off,,,,,82,0,1,,,,0,,,36,0
134912,note_on,,,,,0,0,1,,,,0,,,43,58
135168,note_on,,,,,256,0,1,,,,0,,,60,54
135168,note_on,,,,,0,0,1,,,,0,,,72,69
135168,note_on,,,,,0,0,1,,,,0,,,36,69
135168,note_off,,,,,0,0,1,,,,0,,,43,0
135168,note_on,,,,,0,0,1,,,,0,,,64,54
135342,note_off,,,,,174,0,1,,,,0,,,60,0
135342,note_off,,,,,0,0,1,,,,0,,,72,0
135342,note_off,,,,,0,0,1,,,,0,,,64,0
135424,set_tempo,,,,,768,1,0,,400000,,,,,,
135424,note_on,,,,,0,0,1,,,,0,,,43,58
135424,note_off,,,,,82,0,1,,,,0,,,36,0
135680,note_off,,,,,0,0,1,,,,0,,,43,0
135680,note_on,,,,,0,0,1,,,,0,,,74,71
135680,note_on,,,,,0,0,1,,,,0,,,65,59
135680,note_on,,,,,256,0,1,,,,0,,,62,59
135680,note_on,,,,,0,0,1,,,,0,,,31,52
135854,note_off,,,,,174,0,1,,,,0,,,62,0
135854,note_off,,,,,0,0,1,,,,0,,,65,0
135854,note_off,,,,,0,0,1,,,,0,,,74,0
135936,note_on,,,,,0,0,1,,,,0,,,43,58
135936,note_off,,,,,82,0,1,,,,0,,,31,0
136192,note_on,,,,,0,0,1,,,,0,,,62,61
136192,note_on,,,,,0,0,1,,,,0,,,74,76
136192,note_on,,,,,0,0,1,,,,0,,,31,67
136192,note_off,,,,,0,0,1,,,,0,,,43,0
136192,control_change,,,,,0,0,1,,,,0,64,0,,
136192,control_change,,,,,256,0,1,,,,0,64,0,,
136192,note_on,,,,,0,0,1,,,,0,,,65,61
136448,note_off,,,,,256,0,1,,,,0,,,31,0
136448,note_on,,,,,0,0,1,,,,0,,,43,58
136704,note_on,,,,,0,0,1,,,,0,,,36,52
136704,note_on,,,,,0,0,1,,,,0,,,72,67
136704,note_on,,,,,0,0,1,,,,0,,,64,52
136704,note_on,,,,,0,0,1,,,,0,,,60,52
136704,note_off,,,,,0,0,1,,,,0,,,43,0
136704,note_off,,,,,0,0,1,,,,0,,,74,0
136704,note_off,,,,,0,0,1,,,,0,,,65,0
136704,note_off,,,,,256,0,1,,,,0,,,62,0
136878,note_off,,,,,0,0,1,,,,0,,,72,0
136878,note_off,,,,,174,0,1,,,,0,,,60,0
136878,note_off,,,,,0,0,1,,,,0,,,64,0
136960,note_on,,,,,0,0,1,,,,0,,,43,58
136960,note_off,,,,,82,0,1,,,,0,,,36,0
137216,note_on,,,,,0,0,1,,,,0,,,64,54
137216,note_on,,,,,256,0,1,,,,0,,,60,54
137216,note_on,,,,,0,0,1,,,,0,,,72,69
137216,note_on,,,,,0,0,1,,,,0,,,36,69
137216,note_off,,,,,0,0,1,,,,0,,,43,0
137390,note_off,,,,,174,0,1,,,,0,,,60,0
137390,note_off,,,,,0,0,1,,,,0,,,64,0
137390,note_off,,,,,0,0,1,,,,0,,,72,0
137472,note_off,,,,,82,0,1,,,,0,,,36,0
137472,note_on,,,,,0,0,1,,,,0,,,43,58
137728,note_on,,,,,0,0,1,,,,0,,,74,71
137728,set_tempo,,,,,2304,1,0,,428571,,,,,,
137728,note_off,,,,,0,0,1,,,,0,,,43,0
137728,note_on,,,,,256,0,1,,,,0,,,62,59
137728,note_on,,,,,0,0,1,,,,0,,,71,59
137728,note_on,,,,,0,0,1,,,,0,,,43,64
137728,note_on,,,,,0,0,1,,,,0,,,31,52
137902,note_off,,,,,0,0,1,,,,0,,,74,0
137902,note_off,,,,,0,0,1,,,,0,,,71,0
137902,note_off,,,,,174,0,1,,,,0,,,62,0
138240,note_on,,,,,0,0,1,,,,0,,,43,73
138240,note_on,,,,,0,0,1,,,,0,,,31,61
138240,control_change,,,,,338,0,1,,,,0,64,0,,
138240,control_change,,,,,0,0,1,,,,0,64,0,,
138240,note_off,,,,,0,0,1,,,,0,,,31,0
138240,note_off,,,,,0,0,1,,,,0,,,43,0
138240,note_on,,,,,0,0,1,,,,0,,,62,70
138240,note_on,,,,,0,0,1,,,,0,,,71,70
138240,note_on,,,,,0,0,1,,,,0,,,74,82
138414,note_off,,,,,174,0,1,,,,0,,,62,0
138414,note_off,,,,,0,0,1,,,,0,,,74,0
138414,note_off,,,,,0,0,1,,,,0,,,71,0
138414,note_off,,,,,0,0,1,,,,0,,,31,0
138414,note_off,,,,,0,0,1,,,,0,,,43,0
138752,note_on,,,,,0,0,1,,,,0,,,76,86
138752,note_on,,,,,0,0,1,,,,0,,,36,70
138752,note_on,,,,,338,0,1,,,,0,,,64,74
138752,note_on,,,,,0,0,1,,,,0,,,48,82
138752,note_on,,,,,0,0,1,,,,0,,,72,74
138926,note_off,,,,,174,0,1,,,,0,,,64,0
138926,note_off,,,,,0,0,1,,,,0,,,72,0
138926,note_off,,,,,0,0,1,,,,0,,,76,0
138926,note_off,,,,,0,0,1,,,,0,,,36,0
138926,note_off,,,,,0,0,1,,,,0,,,48,0
139264,set_tempo,,,,,1536,1,0,,1500000,,,,,,
140288,control_change,,,,,0,0,1,,,,0,64,0,,
140288,set_tempo,,,,,1024,1,0,,500000,,,,,,
140288,note_on,,,,,0,0,1,,,,0,,,67,43
140288,control_change,,,,,1362,0,1,,,,0,64,0,,
140776,control_change,,,,,488,0,1,,,,0,64,127,,
141312,note_off,,,,,536,0,1,,,,0,,,67,0
141312,note_on,,,,,0,0,1,,,,0,,,67,35
142336,control_change,,,,,1024,0,1,,,,0,64,0,,
142336,control_change,,,,,0,0,1,,,,0,64,127,,
142336,note_off,,,,,0,0,1,,,,0,,,67,0
142336,note_on,,,,,0,0,1,,,,0,,,67,35
142580,control_change,,,,,244,0,1,,,,0,64,0,,
142921,control_change,,,,,341,0,1,,,,0,64,127,,
143360,note_on,,,,,0,0,1,,,,0,,,67,35
143360,note_off,,,,,439,0,1,,,,0,,,67,0
144384,note_on,,,,,0,0,1,,,,0,,,52,19
144384,note_on,,,,,0,0,1,,,,0,,,55,31
144384,set_tempo,,,,,4096,1,0,,545454,,,,,,
144384,note_on,,,,,0,0,1,,,,0,,,67,43
144384,note_on,,,,,0,0,1,,,,0,,,48,19
144384,control_change,,,,,0,0,1,,,,0,64,0,,
144384,control_change,,,,,1024,0,1,,,,0,64,0,,
144384,note_off,,,,,0,0,1,,,,0,,,67,0
144433,control_change,,,,,49,0,1,,,,0,64,127,,
144628,control_change,,,,,195,0,1,,,,0,64,0,,
144969,control_change,,,,,341,0,1,,,,0,64,127,,
145408,control_change,,,,,439,0,1,,,,0,64,0,,
145408,set_tempo,,,,,1024,1,0,,500000,,,,,,
145408,note_off,,,,,0,0,1,,,,0,,,67,0
145408,note_off,,,,,0,0,1,,,,0,,,48,0
145408,note_off,,,,,0,0,1,,,,0,,,52,0
145408,note_off,,,,,0,0,1,,,,0,,,55,0
145408,note_on,,,,,0,0,1,,,,0,,,67,39
145408,note_on,,,,,0,0,1,,,,0,,,49,28
145408,note_on,,,,,0,0,1,,,,0,,,52,16
145408,note_on,,,,,0,0,1,,,,0,,,55,16
145798,control_change,,,,,390,0,1,,,,0,64,127,,
146432,note_on,,,,,0,0,1,,,,0,,,52,14
146432,note_on,,,,,0,0,1,,,,0,,,49,14
146432,note_on,,,,,0,0,1,,,,0,,,67,33
146432,note_off,,,,,0,0,1,,,,0,,,55,0
146432,note_off,,,,,0,0,1,,,,0,,,52,0
146432,control_change,,,,,0,0,1,,,,0,64,0,,
146432,note_off,,,,,0,0,1,,,,0,,,67,0
146432,note_on,,,,,0,0,1,,,,0,,,55,26
146432,control_change,,,,,0,0,1,,,,0,64,0,,
146432,control_change,,,,,634,0,1,,,,0,64,0,,
146432,note_off,,,,,0,0,1,,,,0,,,49,0
146432,set_tempo,,,,,1024,1,0,,600000,,,,,,
146481,control_change,,,,,49,0,1,,,,0,64,127,,
146676,control_change,,,,,195,0,1,,,,0,64,0,,
147017,control_change,,,,,341,0,1,,,,0,64,127,,
147456,set_tempo,,,,,1024,1,0,,705882,,,,,,
147456,note_on,,,,,0,0,1,,,,0,,,56,23
147456,note_on,,,,,0,0,1,,,,0,,,49,15
147456,note_on,,,,,0,0,1,,,,0,,,68,33
147456,note_on,,,,,0,0,1,,,,0,,,53,11
147456,note_off,,,,,0,0,1,,,,0,,,52,0
147456,note_off,,,,,0,0,1,,,,0,,,49,0
147456,note_off,,,,,0,0,1,,,,0,,,67,0
147456,control_change,,,,,439,0,1,,,,0,64,0,,
147456,note_off,,,,,0,0,1,,,,0,,,55,0
147846,control_change,,,,,390,0,1,,,,0,64,127,,
148480,key_signature,,,,,0,1,0,Db,,,,,,,
148480,time_signature,3,2,48,8,1024,1,0,,,,,,,,
148480,note_on,,,,,0,0,1,,,,0,,,53,12
148480,note_on,,,,,0,0,1,,,,0,,,56,26
148480,note_on,,,,,0,0,1,,,,0,,,49,12
148480,note_off,,,,,0,0,1,,,,0,,,68,0
148480,note_off,,,,,0,0,1,,,,0,,,56,0
148480,note_off,,,,,0,0,1,,,,0,,,53,0
148480,control_change,,,,,634,0,1,,,,0,64,0,,
148480,control_change,,,,,0,0,1,,,,0,64,127,,
148480,set_tempo,,,,,0,1,0,,461538,,,,,,
148480,note_off,,,,,0,0,1,,,,0,,,49,0
148480,note_on,,,,,0,0,1,,,,0,,,68,37
148781,control_change,,,,,301,0,1,,,,0,64,0,,
149444,control_change,,,,,663,0,1,,,,0,64,127,,
150528,note_off,,,,,0,0,1,,,,0,,,56,0
150528,set_tempo,,,,,2048,1,0,,428571,,,,,,
150528,note_off,,,,,0,0,1,,,,0,,,49,0
150528,note_off,,,,,1084,0,1,,,,0,,,68,0
150528,note_on,,,,,0,0,1,,,,0,,,68,26
150528,note_on,,,,,0,0,1,,,,0,,,56,9
150528,note_on,,,,,0,0,1,,,,0,,,49,9
150528,note_on,,,,,0,0,1,,,,0,,,53,9
150528,note_off,,,,,0,0,1,,,,0,,,53,0
152576,note_off,,,,,0,0,1,,,,0,,,56,0
152576,note_off,,,,,0,0,1,,,,0,,,49,0
152576,note_on,,,,,0,0,1,,,,0,,,61,20
152576,note_on,,,,,0,0,1,,,,0,,,53,11
152576,note_on,,,,,0,0,1,,,,0,,,73,35
152576,note_off,,,,,2048,0,1,,,,0,,,68,0
152576,note_off,,,,,0,0,1,,,,0,,,53,0
152576,note_on,,,,,0,0,1,,,,0,,,49,11
152636,control_change,,,,,60,0,1,,,,0,64,0,,
153178,control_change,,,,,542,0,1,,,,0,64,127,,
153600,note_off,,,,,0,0,1,,,,0,,,61,0
153600,note_off,,,,,0,0,1,,,,0,,,53,0
153600,note_on,,,,,0,0,1,,,,0,,,53,11
153600,note_off,,,,,0,0,1,,,,0,,,49,0
153600,note_on,,,,,0,0,1,,,,0,,,56,20
153600,note_off,,,,,422,0,1,,,,0,,,73,0
153600,note_on,,,,,0,0,1,,,,0,,,68,35
153600,note_on,,,,,0,0,1,,,,0,,,49,11
154624,note_on,,,,,0,0,1,,,,0,,,56,20
154624,note_on,,,,,0,0,1,,,,0,,,53,11
154624,note_on,,,,,0,0,1,,,,0,,,49,11
154624,note_on,,,,,0,0,1,,,,0,,,68,35
154624,note_off,,,,,0,0,1,,,,0,,,56,0
154624,note_off,,,,,0,0,1,,,,0,,,53,0
154624,note_off,,,,,0,0,1,,,,0,,,68,0
154624,control_change,,,,,0,0,1,,,,0,64,0,,
154624,note_off,,,,,0,0,1,,,,0,,,49,0
154624,control_change,,,,,1024,0,1,,,,0,64,0,,
154624,control_change,,,,,0,0,1,,,,0,64,127,,
154925,control_change,,,,,301,0,1,,,,0,64,0,,
155588,control_change,,,,,663,0,1,,,,0,64,127,,
156672,note_off,,,,,0,0,1,,,,0,,,53,0
156672,note_off,,,,,1084,0,1,,,,0,,,68,0
156672,note_on,,,,,0,0,1,,,,0,,,68,26
156672,note_on,,,,,0,0,1,,,,0,,,49,9
156672,note_on,,,,,0,0,1,,,,0,,,53,9
156672,note_on,,,,,0,0,1,,,,0,,,56,9
156672,note_off,,,,,0,0,1,,,,0,,,49,0
156672,note_off,,,,,0,0,1,,,,0,,,56,0
158720,note_on,,,,,0,0,1,,,,0,,,61,20
158720,note_off,,,,,0,0,1,,,,0,,,49,0
158720,note_off,,,,,0,0,1,,,,0,,,53,0
158720,note_off,,,,,2048,0,1,,,,0,,,68,0
158720,note_on,,,,,0,0,1,,,,0,,,73,35
158720,note_off,,,,,0,0,1,,,,0,,,56,0
158720,note_on,,,,,0,0,1,,,,0,,,49,11
158720,note_on,,,,,0,0,1,,,,0,,,53,11
158720,set_tempo,,,,,8192,1,0,,500000,,,,,,
158780,control_change,,,,,60,0,1,,,,0,64,0,,
159322,control_change,,,,,542,0,1,,,,0,64,127,,
159744,note_on,,,,,0,0,1,,,,0,,,49,11
159744,note_on,,,,,0,0,1,,,,0,,,53,11
159744,note_on,,,,,0,0,1,,,,0,,,56,20
159744,note_off,,,,,0,0,1,,,,0,,,49,0
159744,note_off,,,,,0,0,1,,,,0,,,53,0
159744,note_off,,,,,0,0,1,,,,0,,,61,0
159744,note_on,,,,,0,0,1,,,,0,,,68,35
159744,set_tempo,,,,,1024,1,0,,461538,,,,,,
159744,note_off,,,,,422,0,1,,,,0,,,73,0
160768,note_on,,,,,0,0,1,,,,0,,,49,11
160768,note_on,,,,,0,0,1,,,,0,,,56,20
160768,note_on,,,,,0,0,1,,,,0,,,53,11
160768,note_on,,,,,0,0,1,,,,0,,,68,35
160768,note_off,,,,,0,0,1,,,,0,,,56,0
160768,note_off,,,,,0,0,1,,,,0,,,49,0
160768,note_off,,,,,0,0,1,,,,0,,,68,0
160768,note_off,,,,,0,0,1,,,,0,,,53,0
160768,control_change,,,,,0,0,1,,,,0,64,127,,
160768,control_change,,,,,1024,0,1,,,,0,64,0,,
160768,set_tempo,,,,,1024,1,0,,428571,,,,,,
160768,control_change,,,,,0,0,1,,,,0,64,0,,
161069,control_change,,,,,301,0,1,,,,0,64,0,,
161732,control_change,,,,,663,0,1,,,,0,64,127,,
162816,note_on,,,,,0,0,1,,,,0,,,49,12
162816,note_on,,,,,0,0,1,,,,0,,,56,12
162816,note_off,,,,,0,0,1,,,,0,,,49,0
162816,note_off,,,,,0,0,1,,,,0,,,53,0
162816,note_off,,,,,0,0,1,,,,0,,,56,0
162816,note_off,,,,,1084,0,1,,,,0,,,68,0
162816,note_on,,,,,0,0,1,,,,0,,,68,26
162816,note_on,,,,,0,0,1,,,,0,,,53,12
164864,note_on,,,,,0,0,1,,,,0,,,54,11
164864,note_off,,,,,0,0,1,,,,0,,,53,0
164864,note_off,,,,,0,0,1,,,,0,,,49,0
164864,note_on,,,,,0,0,1,,,,0,,,58,20
164864,note_off,,,,,0,0,1,,,,0,,,56,0
164864,note_on,,,,,0,0,1,,,,0,,,49,11
164864,note_off,,,,,2048,0,1,,,,0,,,68,0
164864,note_on,,,,,0,0,1,,,,0,,,70,35
164864,set_tempo,,,,,4096,1,0,,461538,,,,,,
164924,control_change,,,,,60,0,1,,,,0,64,0,,
165466,control_change,,,,,542,0,1,,,,0,64,127,,
165888,note_on,,,,,0,0,1,,,,0,,,49,11
165888,set_tempo,,,,,1024,1,0,,428571,,,,,,
165888,note_off,,,,,422,0,1,,,,0,,,70,0
165888,note_on,,,,,0,0,1,,,,0,,,68,35
165888,note_on,,,,,0,0,1,,,,0,,,53,11
165888,note_on,,,,,0,0,1,,,,0,,,56,20
165888,note_off,,,,,0,0,1,,,,0,,,49,0
165888,note_off,,,,,0,0,1,,,,0,,,54,0
165888,note_off,,,,,0,0,1,,,,0,,,58,0
166912,note_on,,,,,0,0,1,,,,0,,,66,35
166912,note_on,,,,,0,0,1,,,,0,,,51,11
166912,note_on,,,,,0,0,1,,,,0,,,49,11
166912,note_on,,,,,0,0,1,,,,0,,,54,20
166912,note_off,,,,,0,0,1,,,,0,,,56,0
166912,note_off,,,,,0,0,1,,,,0,,,53,0
166912,control_change,,,,,1024,0,1,,,,0,64,0,,
166912,note_off,,,,,0,0,1,,,,0,,,68,0
166912,control_change,,,,,0,0,1,,,,0,64,0,,
166912,control_change,,,,,0,0,1,,,,0,64,127,,
166912,note_off,,,,,0,0,1,,,,0,,,49,0
167213,control_change,,,,,301,0,1,,,,0,64,0,,
167876,control_change,,,,,663,0,1,,,,0,64,127,,
168960,note_off,,,,,0,0,1,,,,0,,,51,0
168960,note_on,,,,,0,0,1,,,,0,,,54,9
168960,note_off,,,,,0,0,1,,,,0,,,54,0
168960,note_off,,,,,0,0,1,,,,0,,,49,0
168960,note_on,,,,,0,0,1,,,,0,,,51,9
168960,note_on,,,,,0,0,1,,,,0,,,66,26
168960,note_off,,,,,1084,0,1,,,,0,,,66,0
168960,note_on,,,,,0,0,1,,,,0,,,49,9
171008,note_off,,,,,2048,0,1,,,,0,,,66,0
171008,note_on,,,,,0,0,1,,,,0,,,70,35
171008,note_on,,,,,0,0,1,,,,0,,,49,11
171008,note_on,,,,,0,0,1,,,,0,,,54,11
171008,note_on,,,,,0,0,1,,,,0,,,58,20
171008,note_off,,,,,0,0,1,,,,0,,,49,0
171008,note_off,,,,,0,0,1,,,,0,,,51,0
171008,note_off,,,,,0,0,1,,,,0,,,54,0
171068,control_change,,,,,60,0,1,,,,0,64,0,,
171610,control_change,,,,,542,0,1,,,,0,64,127,,
172032,note_off,,,,,0,0,1,,,,0,,,49,0
172032,note_on,,,,,0,0,1,,,,0,,,54,20
172032,note_off,,,,,0,0,1,,,,0,,,54,0
172032,note_on,,,,,0,0,1,,,,0,,,51,11
172032,note_off,,,,,0,0,1,,,,0,,,58,0
172032,note_on,,,,,0,0,1,,,,0,,,66,35
172032,note_off,,,,,422,0,1,,,,0,,,70,0
172032,note_on,,,,,0,0,1,,,,0,,,49,11
173056,note_off,,,,,0,0,1,,,,0,,,66,0
173056,note_on,,,,,0,0,1,,,,0,,,51,11
173056,note_on,,,,,0,0,1,,,,0,,,66,35
173056,note_off,,,,,0,0,1,,,,0,,,54,0
173056,note_on,,,,,0,0,1,,,,0,,,54,20
173056,note_off,,,,,0,0,1,,,,0,,,51,0
173056,note_off,,,,,0,0,1,,,,0,,,49,0
173056,control_change,,,,,0,0,1,,,,0,64,0,,
173056,note_on,,,,,0,0,1,,,,0,,,49,11
173056,control_change,,,,,0,0,1,,,,0,64,127,,
173056,control_change,,,,,1024,0,1,,,,0,64,0,,
173056,control_change,,,,,0,0,1,,,,0,64,127,,
173056,control_change,,,,,0,0,1,,,,0,64,0,,
173056,control_change,,,,,0,0,1,,,,0,64,0,,
173056,control_change,,,,,0,0,1,,,,0,64,0,,
173357,control_change,,,,,0,0,1,,,,0,64,0,,
173357,control_change,,,,,301,0,1,,,,0,64,0,,
174020,control_change,,,,,0,0,1,,,,0,64,127,,
174020,control_change,,,,,663,0,1,,,,0,64,127,,
175104,note_on,,,,,0,0,1,,,,0,,,66,26
175104,note_on,,,,,0,0,1,,,,0,,,49,9
175104,note_on,,,,,0,0,1,,,,0,,,51,9
175104,note_on,,,,,0,0,1,,,,0,,,54,9
175104,note_off,,,,,0,0,1,,,,0,,,49,0
175104,note_off,,,,,0,0,1,,,,0,,,51,0
175104,note_off,,,,,0,0,1,,,,0,,,54,0
175104,note_off,,,,,1084,0,1,,,,0,,,66,0
177152,note_off,,,,,0,0,1,,,,0,,,49,0
177152,note_on,,,,,0,0,1,,,,0,,,54,11
177152,note_off,,,,,0,0,1,,,,0,,,51,0
177152,note_off,,,,,0,0,1,,,,0,,,54,0
177152,note_on,,,,,0,0,1,,,,0,,,58,20
177152,note_on,,,,,0,0,1,,,,0,,,49,11
177152,note_off,,,,,2048,0,1,,,,0,,,66,0
177152,note_on,,,,,0,0,1,,,,0,,,70,35
177212,control_change,,,,,60,0,1,,,,0,64,0,,
177212,control_change,,,,,0,0,1,,,,0,64,0,,
177754,control_change,,,,,542,0,1,,,,0,64,127,,
177754,control_change,,,,,0,0,1,,,,0,64,127,,
178176,note_off,,,,,0,0,1,,,,0,,,58,0
178176,note_off,,,,,0,0,1,,,,0,,,54,0
178176,note_off,,,,,0,0,1,,,,0,,,49,0
178176,note_on,,,,,0,0,1,,,,0,,,56,20
178176,note_on,,,,,0,0,1,,,,0,,,53,11
178176,note_on,,,,,0,0,1,,,,0,,,49,11
178176,note_off,,,,,422,0,1,,,,0,,,70,0
178176,note_on,,,,,0,0,1,,,,0,,,68,35
178432,control_change,,,,,256,0,1,,,,0,64,0,,
178944,control_change,,,,,512,0,1,,,,0,64,127,,
179200,note_off,,,,,0,0,1,,,,0,,,53,0
179200,note_on,,,,,0,0,1,,,,0,,,68,35
179200,note_on,,,,,0,0,1,,,,0,,,49,11
179200,note_on,,,,,0,0,1,,,,0,,,53,11
179200,note_off,,,,,0,0,1,,,,0,,,56,0
179200,note_on,,,,,0,0,1,,,,0,,,56,20
179200,note_off,,,,,0,0,1,,,,0,,,49,0
179200,control_change,,,,,0,0,1,,,,0,64,127,,
179200,control_change,,,,,0,0,1,,,,0,64,0,,
179200,control_change,,,,,0,0,1,,,,0,64,0,,
179200,control_change,,,,,256,0,1,,,,0,64,0,,
179200,note_off,,,,,0,0,1,,,,0,,,68,0
179501,control_change,,,,,301,0,1,,,,0,64,0,,
180164,control_change,,,,,663,0,1,,,,0,64,127,,
181248,note_off,,,,,0,0,1,,,,0,,,56,0
181248,note_off,,,,,0,0,1,,,,0,,,53,0
181248,note_off,,,,,0,0,1,,,,0,,,49,0
181248,note_on,,,,,0,0,1,,,,0,,,56,12
181248,note_on,,,,,0,0,1,,,,0,,,53,12
181248,note_off,,,,,1084,0,1,,,,0,,,68,0
181248,note_on,,,,,0,0,1,,,,0,,,68,26
181248,set_tempo,,,,,15360,1,0,,500000,,,,,,
181248,note_on,,,,,0,0,1,,,,0,,,49,12
183296,note_on,,,,,0,0,1,,,,0,,,49,27
183296,note_off,,,,,0,0,1,,,,0,,,53,0
183296,note_off,,,,,0,0,1,,,,0,,,56,0
183296,note_on,,,,,0,0,1,,,,0,,,53,41
183296,note_on,,,,,0,0,1,,,,0,,,41,27
183296,note_off,,,,,0,0,1,,,,0,,,49,0
183296,note_on,,,,,0,0,1,,,,0,,,68,43
183296,note_on,,,,,0,0,1,,,,0,,,61,43
183296,note_off,,,,,2048,0,1,,,,0,,,68,0
183296,set_tempo,,,,,2048,1,0,,461538,,,,,,
183296,note_on,,,,,0,0,1,,,,0,,,73,57
183356,control_change,,,,,60,0,1,,,,0,64,0,,
183898,control_change,,,,,542,0,1,,,,0,64,127,,
184320,note_on,,,,,0,0,1,,,,0,,,51,21
184320,note_on,,,,,0,0,1,,,,0,,,44,33
184320,note_on,,,,,0,0,1,,,,0,,,72,50
184320,note_on,,,,,0,0,1,,,,0,,,68,36
184320,note_on,,,,,0,0,1,,,,0,,,60,36
184320,note_off,,,,,0,0,1,,,,0,,,53,0
184320,note_off,,,,,0,0,1,,,,0,,,41,0
184320,note_off,,,,,0,0,1,,,,0,,,73,0
184320,note_off,,,,,0,0,1,,,,0,,,68,0
184320,note_off,,,,,422,0,1,,,,0,,,61,0
184320,set_tempo,,,,,1024,1,0,,428571,,,,,,
184320,note_off,,,,,0,0,1,,,,0,,,49,0
184576,control_change,,,,,256,0,1,,,,0,64,0,,
185088,control_change,,,,,512,0,1,,,,0,64,127,,
185344,note_on,,,,,0,0,1,,,,0,,,51,28
185344,note_on,,,,,0,0,1,,,,0,,,44,40
185344,note_on,,,,,0,0,1,,,,0,,,72,52
185344,note_on,,,,,0,0,1,,,,0,,,68,37
185344,note_on,,,,,0,0,1,,,,0,,,60,37
185344,note_off,,,,,0,0,1,,,,0,,,51,0
185344,note_off,,,,,0,0,1,,,,0,,,72,0
185344,note_off,,,,,0,0,1,,,,0,,,44,0
185344,note_off,,,,,0,0,1,,,,0,,,60,0
185344,control_change,,,,,0,0,1,,,,0,64,0,,
185344,control_change,,,,,0,0,1,,,,0,64,0,,
185344,control_change,,,,,0,0,1,,,,0,64,0,,
185344,control_change,,,,,0,0,1,,,,0,64,127,,
185344,control_change,,,,,256,0,1,,,,0,64,0,,
185344,note_off,,,,,0,0,1,,,,0,,,68,0
185645,control_change,,,,,301,0,1,,,,0,64,0,,
186308,control_change,,,,,663,0,1,,,,0,64,127,,
187392,note_on,,,,,0,0,1,,,,0,,,51,21
187392,note_on,,,,,0,0,1,,,,0,,,44,33
187392,note_on,,,,,0,0,1,,,,0,,,72,45
187392,note_on,,,,,0,0,1,,,,0,,,68,30
187392,note_on,,,,,0,0,1,,,,0,,,60,30
187392,note_off,,,,,0,0,1,,,,0,,,72,0
187392,note_off,,,,,0,0,1,,,,0,,,44,0
187392,note_off,,,,,0,0,1,,,,0,,,68,0
187392,note_off,,,,,1084,0,1,,,,0,,,60,0
187392,note_off,,,,,0,0,1,,,,0,,,51,0
189440,note_on,,,,,0,0,1,,,,0,,,56,28
189440,note_on,,,,,0,0,1,,,,0,,,54,40
189440,note_on,,,,,0,0,1,,,,0,,,44,40
189440,note_on,,,,,0,0,1,,,,0,,,75,62
189440,note_on,,,,,0,0,1,,,,0,,,63,43
189440,note_on,,,,,0,0,1,,,,0,,,68,43
189440,note_off,,,,,0,0,1,,,,0,,,44,0
189440,note_off,,,,,0,0,1,,,,0,,,72,0
189440,note_off,,,,,0,0,1,,,,0,,,68,0
189440,note_off,,,,,2048,0,1,,,,0,,,60,0
189440,set_tempo,,,,,5120,1,0,,500000,,,,,,
189440,note_off,,,,,0,0,1,,,,0,,,51,0
189500,control_change,,,,,60,0,1,,,,0,64,0,,
190042,control_change,,,,,542,0,1,,,,0,64,127,,
190464,note_on,,,,,0,0,1,,,,0,,,56,16
190464,note_on,,,,,0,0,1,,,,0,,,53,28
190464,note_on,,,,,0,0,1,,,,0,,,49,28
190464,note_on,,,,,0,0,1,,,,0,,,68,47
190464,note_on,,,,,0,0,1,,,,0,,,65,32
190464,note_on,,,,,0,0,1,,,,0,,,61,32
190464,note_off,,,,,0,0,1,,,,0,,,54,0
190464,note_off,,,,,0,0,1,,,,0,,,44,0
190464,note_off,,,,,0,0,1,,,,0,,,75,0
190464,note_off,,,,,0,0,1,,,,0,,,68,0
190464,note_off,,,,,422,0,1,,,,0,,,63,0
190464,note_off,,,,,0,0,1,,,,0,,,56,0
190464,set_tempo,,,,,1024,1,0,,428571,,,,,,
190720,control_change,,,,,256,0,1,,,,0,64,0,,
191232,control_change,,,,,512,0,1,,,,0,64,127,,
191488,control_change,,,,,256,0,1,,,,0,64,0,,
191488,control_change,,,,,0,0,1,,,,0,64,127,,
191488,control_change,,,,,0,0,1,,,,0,64,0,,
191488,control_change,,,,,0,0,1,,,,0,64,0,,
191488,control_change,,,,,0,0,1,,,,0,64,0,,
191488,note_off,,,,,0,0,1,,,,0,,,61,0
191488,note_off,,,,,0,0,1,,,,0,,,65,0
191488,note_off,,,,,0,0,1,,,,0,,,53,0
191488,note_off,,,,,0,0,1,,,,0,,,56,0
191488,note_on,,,,,0,0,1,,,,0,,,61,28
191488,note_on,,,,,0,0,1,,,,0,,,65,28
191488,note_on,,,,,0,0,1,,,,0,,,68,43
191488,note_on,,,,,0,0,1,,,,0,,,49,29
191488,note_on,,,,,0,0,1,,,,0,,,53,17
191488,note_on,,,,,0,0,1,,,,0,,,56,17
191488,control_change,,,,,0,0,1,,,,0,64,0,,
191488,note_off,,,,,0,0,1,,,,0,,,68,0
191488,note_off,,,,,0,0,1,,,,0,,,49,0
191488,set_tempo,,,,,1024,1,0,,461538,,,,,,
191789,control_change,,,,,301,0,1,,,,0,64,0,,
192452,control_change,,,,,663,0,1,,,,0,64,127,,
193536,note_off,,,,,0,0,1,,,,0,,,65,0
193536,note_off,,,,,0,0,1,,,,0,,,68,0
193536,note_off,,,,,0,0,1,,,,0,,,49,0
193536,note_off,,,,,0,0,1,,,,0,,,53,0
193536,note_off,,,,,0,0,1,,,,0,,,56,0
193536,note_on,,,,,0,0,1,,,,0,,,65,16
193536,note_on,,,,,0,0,1,,,,0,,,68,25
193536,note_on,,,,,0,0,1,,,,0,,,49,12
193536,note_on,,,,,0,0,1,,,,0,,,53,12
193536,note_on,,,,,0,0,1,,,,0,,,56,12
193536,note_off,,,,,1084,0,1,,,,0,,,61,0
193536,note_on,,,,,0,0,1,,,,0,,,61,16
193536,set_tempo,,,,,2048,1,0,,428571,,,,,,
195584,note_on,,,,,0,0,1,,,,0,,,53,22
195584,note_off,,,,,2048,0,1,,,,0,,,61,0
195584,note_off,,,,,0,0,1,,,,0,,,65,0
195584,note_off,,,,,0,0,1,,,,0,,,68,0
195584,note_off,,,,,0,0,1,,,,0,,,49,0
195584,note_off,,,,,0,0,1,,,,0,,,53,0
195584,note_off,,,,,0,0,1,,,,0,,,56,0
195584,note_on,,,,,0,0,1,,,,0,,,65,34
195584,note_on,,,,,0,0,1,,,,0,,,68,22
195584,note_on,,,,,0,0,1,,,,0,,,56,13
195584,set_tempo,,,,,2048,1,0,,461538,,,,,,
195644,control_change,,,,,60,0,1,,,,0,64,0,,
196186,control_change,,,,,542,0,1,,,,0,64,127,,
196608,note_off,,,,,422,0,1,,,,0,,,65,0
196608,note_off,,,,,0,0,1,,,,0,,,68,0
196608,note_off,,,,,0,0,1,,,,0,,,53,0
196608,note_on,,,,,0,0,1,,,,0,,,65,22
196608,note_on,,,,,0,0,1,,,,0,,,68,22
196608,note_on,,,,,0,0,1,,,,0,,,48,22
196608,note_off,,,,,0,0,1,,,,0,,,56,0
196608,note_on,,,,,0,0,1,,,,0,,,60,34
196608,note_on,,,,,0,0,1,,,,0,,,53,13
196608,note_on,,,,,0,0,1,,,,0,,,56,13
196864,control_change,,,,,256,0,1,,,,0,64,0,,
197376,control_change,,,,,512,0,1,,,,0,64,127,,
197632,control_change,,,,,256,0,1,,,,0,64,0,,
197632,control_change,,,,,0,0,1,,,,0,64,127,,
197632,control_change,,,,,0,0,1,,,,0,64,0,,
197632,control_change,,,,,0,0,1,,,,0,64,0,,
197632,control_change,,,,,0,0,1,,,,0,64,0,,
197632,control_change,,,,,0,0,1,,,,0,64,0,,
197632,note_off,,,,,0,0,1,,,,0,,,60,0
197632,note_off,,,,,0,0,1,,,,0,,,65,0
197632,note_off,,,,,0,0,1,,,,0,,,68,0
197632,note_off,,,,,0,0,1,,,,0,,,48,0
197632,note_off,,,,,0,0,1,,,,0,,,53,0
197632,control_change,,,,,0,0,1,,,,0,64,0,,
197632,note_on,,,,,0,0,1,,,,0,,,68,22
197632,set_tempo,,,,,2048,1,0,,428571,,,,,,
197632,note_on,,,,,0,0,1,,,,0,,,48,22
197632,note_on,,,,,0,0,1,,,,0,,,53,13
197632,note_on,,,,,0,0,1,,,,0,,,56,13
197632,note_on,,,,,0,0,1,,,,0,,,65,22
197632,note_on,,,,,0,0,1,,,,0,,,60,34
197632,note_off,,,,,0,0,1,,,,0,,,56,0
197933,control_change,,,,,301,0,1,,,,0,64,0,,
198596,control_change,,,,,663,0,1,,,,0,64,127,,
199680,note_on,,,,,0,0,1,,,,0,,,65,14
199680,note_on,,,,,0,0,1,,,,0,,,60,14
199680,note_off,,,,,0,0,1,,,,0,,,56,0
199680,note_on,,,,,0,0,1,,,,0,,,48,12
199680,note_off,,,,,0,0,1,,,,0,,,48,0
199680,note_off,,,,,0,0,1,,,,0,,,68,0
199680,note_off,,,,,1084,0,1,,,,0,,,60,0
199680,note_on,,,,,0,0,1,,,,0,,,53,12
199680,note_on,,,,,0,0,1,,,,0,,,56,12
199680,note_on,,,,,0,0,1,,,,0,,,68,20
199680,note_off,,,,,0,0,1,,,,0,,,53,0
199680,note_off,,,,,0,0,1,,,,0,,,65,0
201728,note_off,,,,,0,0,1,,,,0,,,53,0
201728,note_on,,,,,0,0,1,,,,0,,,60,22
201728,note_off,,,,,0,0,1,,,,0,,,56,0
201728,note_on,,,,,0,0,1,,,,0,,,48,13
201728,note_off,,,,,0,0,1,,,,0,,,48,0
201728,note_off,,,,,0,0,1,,,,0,,,68,0
201728,note_off,,,,,0,0,1,,,,0,,,65,0
201728,note_off,,,,,2048,0,1,,,,0,,,60,0
201728,set_tempo,,,,,4096,1,0,,500000,,,,,,
201728,note_on,,,,,0,0,1,,,,0,,,52,13
201728,note_on,,,,,0,0,1,,,,0,,,64,22
201728,note_on,,,,,0,0,1,,,,0,,,72,34
201788,control_change,,,,,60,0,1,,,,0,64,0,,
202330,control_change,,,,,542,0,1,,,,0,64,127,,
202752,note_off,,,,,422,0,1,,,,0,,,60,0
202752,note_off,,,,,0,0,1,,,,0,,,72,0
202752,note_off,,,,,0,0,1,,,,0,,,48,0
202752,set_tempo,,,,,1024,1,0,,461538,,,,,,
202752,note_off,,,,,0,0,1,,,,0,,,52,0
202752,note_on,,,,,0,0,1,,,,0,,,60,22
202752,note_on,,,,,0,0,1,,,,0,,,64,22
202752,note_on,,,,,0,0,1,,,,0,,,67,34
202752,note_on,,,,,0,0,1,,,,0,,,48,13
202752,note_on,,,,,0,0,1,,,,0,,,52,13
202752,note_on,,,,,0,0,1,,,,0,,,55,22
202752,note_off,,,,,0,0,1,,,,0,,,64,0
203008,control_change,,,,,256,0,1,,,,0,64,0,,
203520,control_change,,,,,512,0,1,,,,0,64,127,,
203776,control_change,,,,,0,0,1,,,,0,64,0,,
203776,note_on,,,,,0,0,1,,,,0,,,55,22
203776,note_on,,,,,0,0,1,,,,0,,,52,13
203776,note_on,,,,,0,0,1,,,,0,,,48,13
203776,note_on,,,,,0,0,1,,,,0,,,67,34
203776,note_on,,,,,0,0,1,,,,0,,,64,22
203776,note_on,,,,,0,0,1,,,,0,,,60,22
203776,control_change,,,,,0,0,1,,,,0,64,0,,
203776,note_off,,,,,0,0,1,,,,0,,,55,0
203776,note_off,,,,,0,0,1,,,,0,,,48,0
203776,note_off,,,,,0,0,1,,,,0,,,67,0
203776,note_off,,,,,0,0,1,,,,0,,,64,0
203776,control_change,,,,,0,0,1,,,,0,64,0,,
203776,control_change,,,,,0,0,1,,,,0,64,0,,
203776,control_change,,,,,0,0,1,,,,0,64,0,,
203776,note_off,,,,,0,0,1,,,,0,,,52,0
203776,control_change,,,,,0,0,1,,,,0,64,127,,
203776,note_off,,,,,0,0,1,,,,0,,,60,0
203776,set_tempo,,,,,1024,1,0,,428571,,,,,,
203776,control_change,,,,,256,0,1,,,,0,64,0,,
204077,control_change,,,,,301,0,1,,,,0,64,0,,
204740,control_change,,,,,663,0,1,,,,0,64,127,,
205824,note_off,,,,,0,0,1,,,,0,,,64,0
205824,note_off,,,,,0,0,1,,,,0,,,67,0
205824,note_off,,,,,1084,0,1,,,,0,,,60,0
205824,note_off,,,,,0,0,1,,,,0,,,55,0
205824,note_on,,,,,0,0,1,,,,0,,,60,14
205824,note_on,,,,,0,0,1,,,,0,,,64,14
205824,note_on,,,,,0,0,1,,,,0,,,67,20
205824,note_on,,,,,0,0,1,,,,0,,,48,12
205824,note_on,,,,,0,0,1,,,,0,,,52,12
205824,note_on,,,,,0,0,1,,,,0,,,55,12
205824,note_off,,,,,0,0,1,,,,0,,,48,0
205824,note_off,,,,,0,0,1,,,,0,,,52,0
207872,note_off,,,,,2048,0,1,,,,0,,,60,0
207872,note_off,,,,,0,0,1,,,,0,,,64,0
207872,note_off,,,,,0,0,1,,,,0,,,67,0
207872,note_off,,,,,0,0,1,,,,0,,,48,0
207872,note_off,,,,,0,0,1,,,,0,,,52,0
207872,note_off,,,,,0,0,1,,,,0,,,55,0
207872,note_on,,,,,0,0,1,,,,0,,,61,37
207872,note_on,,,,,0,0,1,,,,0,,,65,25
207872,note_on,,,,,0,0,1,,,,0,,,49,24
207872,set_tempo,,,,,4096,1,0,,461538,,,,,,
207872,note_on,,,,,0,0,1,,,,0,,,53,12
207932,control_change,,,,,60,0,1,,,,0,64,0,,
208474,control_change,,,,,542,0,1,,,,0,64,127,,
208896,note_on,,,,,0,0,1,,,,0,,,53,6
208896,note_on,,,,,0,0,1,,,,0,,,49,6
208896,note_on,,,,,0,0,1,,,,0,,,44,18
208896,note_on,,,,,0,0,1,,,,0,,,65,23
208896,note_on,,,,,0,0,1,,,,0,,,61,23
208896,note_on,,,,,0,0,1,,,,0,,,56,35
208896,note_off,,,,,0,0,1,,,,0,,,53,0
208896,note_off,,,,,0,0,1,,,,0,,,49,0
208896,note_off,,,,,0,0,1,,,,0,,,65,0
208896,note_off,,,,,422,0,1,,,,0,,,61,0
209152,control_change,,,,,256,0,1,,,,0,64,0,,
209664,control_change,,,,,512,0,1,,,,0,64,127,,
209920,control_change,,,,,0,0,1,,,,0,64,0,,
209920,note_on,,,,,0,0,1,,,,0,,,53,12
209920,note_on,,,,,0,0,1,,,,0,,,49,12
209920,note_on,,,,,0,0,1,,,,0,,,44,24
209920,note_on,,,,,0,0,1,,,,0,,,65,22
209920,note_on,,,,,0,0,1,,,,0,,,61,22
209920,note_off,,,,,0,0,1,,,,0,,,53,0
209920,control_change,,,,,0,0,1,,,,0,64,0,,
209920,note_off,,,,,0,0,1,,,,0,,,49,0
209920,note_off,,,,,0,0,1,,,,0,,,44,0
209920,note_off,,,,,0,0,1,,,,0,,,65,0
209920,note_off,,,,,0,0,1,,,,0,,,61,0
209920,note_off,,,,,0,0,1,,,,0,,,56,0
209920,control_change,,,,,0,0,1,,,,0,64,0,,
209920,control_change,,,,,0,0,1,,,,0,64,0,,
209920,control_change,,,,,0,0,1,,,,0,64,0,,
209920,note_on,,,,,0,0,1,,,,0,,,56,34
209920,control_change,,,,,256,0,1,,,,0,64,0,,
209920,control_change,,,,,0,0,1,,,,0,64,127,,
209920,set_tempo,,,,,2048,1,0,,428571,,,,,,
210221,control_change,,,,,301,0,1,,,,0,64,0,,
210884,control_change,,,,,663,0,1,,,,0,64,127,,
211968,note_on,,,,,0,0,1,,,,0,,,53,17
211968,note_on,,,,,0,0,1,,,,0,,,49,5
211968,note_on,,,,,0,0,1,,,,0,,,44,5
211968,note_on,,,,,0,0,1,,,,0,,,65,25
211968,note_on,,,,,0,0,1,,,,0,,,61,18
211968,note_on,,,,,0,0,1,,,,0,,,56,18
211968,note_off,,,,,0,0,1,,,,0,,,53,0
211968,note_off,,,,,0,0,1,,,,0,,,49,0
211968,note_off,,,,,0,0,1,,,,0,,,65,0
211968,note_off,,,,,0,0,1,,,,0,,,61,0
211968,note_off,,,,,1084,0,1,,,,0,,,56,0
211968,note_off,,,,,0,0,1,,,,0,,,44,0
214016,note_on,,,,,0,0,1,,,,0,,,48,12
214016,note_on,,,,,0,0,1,,,,0,,,44,12
214016,note_on,,,,,0,0,1,,,,0,,,63,33
214016,note_on,,,,,0,0,1,,,,0,,,51,24
214016,note_on,,,,,0,0,1,,,,0,,,60,21
214016,note_on,,,,,0,0,1,,,,0,,,56,21
214016,note_off,,,,,0,0,1,,,,0,,,53,0
214016,note_off,,,,,0,0,1,,,,0,,,49,0
214016,note_off,,,,,0,0,1,,,,0,,,44,0
214016,note_off,,,,,0,0,1,,,,0,,,65,0
214016,note_off,,,,,0,0,1,,,,0,,,61,0
214016,set_tempo,,,,,4096,1,0,,461538,,,,,,
214016,note_off,,,,,2048,0,1,,,,0,,,56,0
214076,control_change,,,,,60,0,1,,,,0,64,0,,
214618,control_change,,,,,542,0,1,,,,0,64,127,,
215040,note_on,,,,,0,0,1,,,,0,,,63,30
215040,note_on,,,,,0,0,1,,,,0,,,60,18
215040,note_on,,,,,0,0,1,,,,0,,,56,18
215040,note_off,,,,,0,0,1,,,,0,,,51,0
215040,note_off,,,,,0,0,1,,,,0,,,48,0
215040,note_off,,,,,0,0,1,,,,0,,,44,0
215040,note_off,,,,,0,0,1,,,,0,,,63,0
215040,note_off,,,,,0,0,1,,,,0,,,60,0
215040,note_off,,,,,422,0,1,,,,0,,,56,0
215040,note_on,,,,,0,0,1,,,,0,,,48,5
215040,note_on,,,,,0,0,1,,,,0,,,51,17
215040,note_on,,,,,0,0,1,,,,0,,,44,5
215040,set_tempo,,,,,1024,1,0,,500000,,,,,,
215296,control_change,,,,,256,0,1,,,,0,64,0,,
215808,control_change,,,,,512,0,1,,,,0,64,127,,
216064,set_tempo,,,,,1024,1,0,,428571,,,,,,
216064,note_off,,,,,0,0,1,,,,0,,,56,0
216064,note_off,,,,,0,0,1,,,,0,,,60,0
216064,note_off,,,,,0,0,1,,,,0,,,63,0
216064,note_off,,,,,0,0,1,,,,0,,,44,0
216064,note_off,,,,,0,0,1,,,,0,,,48,0
216064,note_off,,,,,0,0,1,,,,0,,,51,0
216064,note_on,,,,,0,0,1,,,,0,,,49,18
216064,note_on,,,,,0,0,1,,,,0,,,53,18
216064,note_on,,,,,0,0,1,,,,0,,,56,18
216064,note_on,,,,,0,0,1,,,,0,,,37,12
216064,note_on,,,,,0,0,1,,,,0,,,44,12
216064,control_change,,,,,0,0,1,,,,0,64,0,,
216064,control_change,,,,,0,0,1,,,,0,64,0,,
216064,note_on,,,,,0,0,1,,,,0,,,61,30
216064,control_change,,,,,0,0,1,,,,0,64,0,,
216064,control_change,,,,,0,0,1,,,,0,64,0,,
216064,control_change,,,,,0,0,1,,,,0,64,127,,
216064,control_change,,,,,256,0,1,,,,0,64,0,,
216064,control_change,,,,,0,0,1,,,,0,64,0,,
216365,control_change,,,,,301,0,1,,,,0,64,0,,
217028,control_change,,,,,663,0,1,,,,0,64,127,,
218112,note_off,,,,,0,0,1,,,,0,,,56,0
218112,note_off,,,,,0,0,1,,,,0,,,61,0
218112,note_off,,,,,0,0,1,,,,0,,,44,0
218112,note_on,,,,,0,0,1,,,,0,,,53,11
218112,note_on,,,,,0,0,1,,,,0,,,56,11
218112,note_on,,,,,0,0,1,,,,0,,,61,23
218112,note_on,,,,,0,0,1,,,,0,,,37,5
218112,note_on,,,,,0,0,1,,,,0,,,44,5
218112,note_on,,,,,0,0,1,,,,0,,,49,11
218112,note_off,,,,,0,0,1,,,,0,,,53,0
218112,note_off,,,,,0,0,1,,,,0,,,37,0
218112,set_tempo,,,,,2048,1,0,,500000,,,,,,
218112,note_off,,,,,1084,0,1,,,,0,,,49,0
220160,note_on,,,,,0,0,1,,,,0,,,61,32
220160,note_on,,,,,0,0,1,,,,0,,,53,14
220160,note_on,,,,,0,0,1,,,,0,,,49,14
220160,note_on,,,,,0,0,1,,,,0,,,80,42
220160,note_off,,,,,0,0,1,,,,0,,,44,0
220160,note_off,,,,,0,0,1,,,,0,,,37,0
220160,note_off,,,,,0,0,1,,,,0,,,61,0
220160,note_off,,,,,0,0,1,,,,0,,,56,0
220160,note_off,,,,,0,0,1,,,,0,,,53,0
220160,note_off,,,,,2048,0,1,,,,0,,,49,0
220220,control_change,,,,,60,0,1,,,,0,64,0,,
220672,note_on,,,,,0,0,1,,,,0,,,85,40
220672,set_tempo,,,,,2560,1,0,,428571,,,,,,
220672,note_off,,,,,452,0,1,,,,0,,,80,0
220762,control_change,,,,,90,0,1,,,,0,64,127,,
221184,note_off,,,,,422,0,1,,,,0,,,85,0
221184,note_on,,,,,0,0,1,,,,0,,,77,38
221184,note_on,,,,,0,0,1,,,,0,,,53,14
221184,note_on,,,,,0,0,1,,,,0,,,56,32
221184,note_off,,,,,0,0,1,,,,0,,,49,0
221184,note_off,,,,,0,0,1,,,,0,,,53,0
221184,note_off,,,,,0,0,1,,,,0,,,61,0
221184,note_on,,,,,0,0,1,,,,0,,,49,14
221440,control_change,,,,,256,0,1,,,,0,64,0,,
221696,set_tempo,,,,,1024,1,0,,461538,,,,,,
221696,note_off,,,,,256,0,1,,,,0,,,77,0
221696,note_on,,,,,0,0,1,,,,0,,,80,36
221952,control_change,,,,,256,0,1,,,,0,64,127,,
222208,note_on,,,,,0,0,1,,,,0,,,49,14
222208,note_on,,,,,0,0,1,,,,0,,,80,45
222208,note_off,,,,,0,0,1,,,,0,,,56,0
222208,note_off,,,,,0,0,1,,,,0,,,53,0
222208,note_off,,,,,0,0,1,,,,0,,,49,0
222208,note_off,,,,,0,0,1,,,,0,,,80,0
222208,control_change,,,,,0,0,1,,,,0,64,127,,
222208,note_on,,,,,0,0,1,,,,0,,,56,32
222208,note_on,,,,,0,0,1,,,,0,,,53,14
222208,set_tempo,,,,,512,1,0,,428571,,,,,,
222208,control_change,,,,,256,0,1,,,,0,64,0,,
222388,control_change,,,,,180,0,1,,,,0,64,0,,
222639,control_change,,,,,251,0,1,,,,0,64,127,,
223232,set_tempo,,,,,1024,1,0,,461538,,,,,,
223232,note_on,,,,,593,0,1,,,,0,,,77,33
223282,note_off,,,,,50,0,1,,,,0,,,80,0
223358,control_change,,,,,76,0,1,,,,0,64,0,,
223744,note_off,,,,,386,0,1,,,,0,,,77,0
224256,note_on,,,,,0,0,1,,,,0,,,49,6
224256,set_tempo,,,,,1024,1,0,,428571,,,,,,
224256,note_on,,,,,512,0,1,,,,0,,,80,39
224256,note_off,,,,,0,0,1,,,,0,,,49,0
224256,note_off,,,,,0,0,1,,,,0,,,53,0
224256,note_off,,,,,0,0,1,,,,0,,,56,0
224256,note_on,,,,,0,0,1,,,,0,,,56,15
224256,note_on,,,,,0,0,1,,,,0,,,53,6
224292,control_change,,,,,36,0,1,,,,0,64,127,,
225280,note_on,,,,,988,0,1,,,,0,,,68,24
225330,note_off,,,,,50,0,1,,,,0,,,80,0
225442,control_change,,,,,112,0,1,,,,0,64,0,,
225792,note_off,,,,,350,0,1,,,,0,,,68,0
226304,note_on,,,,,0,0,1,,,,0,,,49,14
226304,note_on,,,,,0,0,1,,,,0,,,54,14
226304,note_on,,,,,0,0,1,,,,0,,,58,32
226304,note_off,,,,,0,0,1,,,,0,,,56,0
226304,note_off,,,,,0,0,1,,,,0,,,53,0
226304,set_tempo,,,,,2048,1,0,,461538,,,,,,
226304,note_on,,,,,512,0,1,,,,0,,,78,42
226304,note_off,,,,,0,0,1,,,,0,,,49,0
226340,control_change,,,,,36,0,1,,,,0,64,127,,
226816,set_tempo,,,,,512,1,0,,413793,,,,,,
226816,note_off,,,,,476,0,1,,,,0,,,78,0
226816,note_on,,,,,0,0,1,,,,0,,,82,40
227328,note_on,,,,,0,0,1,,,,0,,,56,32
227328,note_off,,,,,0,0,1,,,,0,,,58,0
227328,note_off,,,,,0,0,1,,,,0,,,54,0
227328,note_on,,,,,0,0,1,,,,0,,,53,14
227328,note_off,,,,,0,0,1,,,,0,,,49,0
227328,note_on,,,,,0,0,1,,,,0,,,77,38
227328,note_on,,,,,0,0,1,,,,0,,,49,14
227328,note_off,,,,,512,0,1,,,,0,,,82,0
227382,control_change,,,,,54,0,1,,,,0,64,0,,
227669,control_change,,,,,287,0,1,,,,0,64,127,,
227840,note_off,,,,,171,0,1,,,,0,,,77,0
227840,note_on,,,,,0,0,1,,,,0,,,80,36
228352,note_on,,,,,0,0,1,,,,0,,,54,32
228352,note_on,,,,,0,0,1,,,,0,,,51,20
228352,note_on,,,,,0,0,1,,,,0,,,49,20
228352,note_on,,,,,0,0,1,,,,0,,,78,45
228352,note_off,,,,,0,0,1,,,,0,,,56,0
228352,note_off,,,,,0,0,1,,,,0,,,53,0
228352,set_tempo,,,,,1536,1,0,,461538,,,,,,
228352,note_off,,,,,0,0,1,,,,0,,,80,0
228352,control_change,,,,,0,0,1,,,,0,64,0,,
228352,control_change,,,,,0,0,1,,,,0,64,127,,
228352,control_change,,,,,512,0,1,,,,0,64,0,,
228352,note_off,,,,,0,0,1,,,,0,,,49,0
228532,control_change,,,,,180,0,1,,,,0,64,0,,
228783,control_change,,,,,251,0,1,,,,0,64,127,,
229376,note_on,,,,,593,0,1,,,,0,,,75,33
229376,set_tempo,,,,,1024,1,0,,428571,,,,,,
229426,note_off,,,,,50,0,1,,,,0,,,78,0
229502,control_change,,,,,76,0,1,,,,0,64,0,,
229888,note_off,,,,,386,0,1,,,,0,,,75,0
230400,note_on,,,,,0,0,1,,,,0,,,54,18
230400,note_on,,,,,0,0,1,,,,0,,,51,9
230400,note_on,,,,,0,0,1,,,,0,,,49,9
230400,note_off,,,,,0,0,1,,,,0,,,51,0
230400,note_off,,,,,0,0,1,,,,0,,,49,0
230400,note_on,,,,,512,0,1,,,,0,,,78,39
230400,note_off,,,,,0,0,1,,,,0,,,54,0
230436,control_change,,,,,36,0,1,,,,0,64,127,,
231424,note_on,,,,,988,0,1,,,,0,,,66,24
231474,note_off,,,,,50,0,1,,,,0,,,78,0
231586,control_change,,,,,112,0,1,,,,0,64,0,,
231936,note_off,,,,,350,0,1,,,,0,,,66,0
232448,note_on,,,,,0,0,1,,,,0,,,58,32
232448,set_tempo,,,,,3072,1,0,,428571,,,,,,
232448,note_on,,,,,0,0,1,,,,0,,,49,20
232448,note_on,,,,,0,0,1,,,,0,,,54,20
232448,note_off,,,,,0,0,1,,,,0,,,51,0
232448,note_off,,,,,0,0,1,,,,0,,,49,0
232448,note_on,,,,,512,0,1,,,,0,,,78,42
232448,note_off,,,,,0,0,1,,,,0,,,54,0
232484,control_change,,,,,36,0,1,,,,0,64,127,,
232960,note_on,,,,,0,0,1,,,,0,,,82,40
232960,note_off,,,,,476,0,1,,,,0,,,78,0
233472,note_off,,,,,512,0,1,,,,0,,,82,0
233472,note_on,,,,,0,0,1,,,,0,,,75,37
233472,note_on,,,,,0,0,1,,,,0,,,49,20
233472,note_on,,,,,0,0,1,,,,0,,,51,20
233472,note_on,,,,,0,0,1,,,,0,,,54,32
233472,note_off,,,,,0,0,1,,,,0,,,49,0
233472,note_off,,,,,0,0,1,,,,0,,,54,0
233472,note_off,,,,,0,0,1,,,,0,,,58,0
233526,control_change,,,,,54,0,1,,,,0,64,0,,
233813,control_change,,,,,287,0,1,,,,0,64,127,,
233984,note_off,,,,,171,0,1,,,,0,,,75,0
233984,note_on,,,,,0,0,1,,,,0,,,78,35
234496,note_off,,,,,0,0,1,,,,0,,,78,0
234496,note_on,,,,,0,0,1,,,,0,,,54,32
234496,note_on,,,,,0,0,1,,,,0,,,51,20
234496,note_on,,,,,0,0,1,,,,0,,,49,20
234496,note_on,,,,,0,0,1,,,,0,,,78,45
234496,note_off,,,,,0,0,1,,,,0,,,54,0
234496,note_off,,,,,0,0,1,,,,0,,,51,0
234496,control_change,,,,,0,0,1,,,,0,64,127,,
234496,control_change,,,,,512,0,1,,,,0,64,0,,
234496,note_off,,,,,0,0,1,,,,0,,,49,0
234496,control_change,,,,,0,0,1,,,,0,64,0,,
234676,control_change,,,,,180,0,1,,,,0,64,0,,
234927,control_change,,,,,251,0,1,,,,0,64,127,,
235520,note_on,,,,,593,0,1,,,,0,,,75,33
235570,note_off,,,,,50,0,1,,,,0,,,78,0
235646,control_change,,,,,76,0,1,,,,0,64,0,,
236032,note_off,,,,,386,0,1,,,,0,,,75,0
236544,note_off,,,,,0,0,1,,,,0,,,49,0
236544,note_off,,,,,0,0,1,,,,0,,,54,0
236544,note_on,,,,,0,0,1,,,,0,,,49,14
236544,note_on,,,,,0,0,1,,,,0,,,51,14
236544,note_on,,,,,0,0,1,,,,0,,,54,23
236544,note_on,,,,,512,0,1,,,,0,,,78,39
236544,note_off,,,,,0,0,1,,,,0,,,51,0
236580,control_change,,,,,36,0,1,,,,0,64,127,,
237568,note_on,,,,,988,0,1,,,,0,,,66,24
237618,note_off,,,,,50,0,1,,,,0,,,78,0
237730,control_change,,,,,112,0,1,,,,0,64,0,,
238080,note_off,,,,,350,0,1,,,,0,,,66,0
238592,note_on,,,,,0,0,1,,,,0,,,58,32
238592,note_on,,,,,512,0,1,,,,0,,,78,43
238592,note_off,,,,,0,0,1,,,,0,,,49,0
238592,note_off,,,,,0,0,1,,,,0,,,51,0
238592,note_off,,,,,0,0,1,,,,0,,,54,0
238592,note_on,,,,,0,0,1,,,,0,,,49,20
238592,note_on,,,,,0,0,1,,,,0,,,54,20
238628,control_change,,,,,36,0,1,,,,0,64,127,,
239104,note_off,,,,,476,0,1,,,,0,,,78,0
239104,note_on,,,,,0,0,1,,,,0,,,82,40
239104,set_tempo,,,,,6656,1,0,,413793,,,,,,
239616,note_on,,,,,0,0,1,,,,0,,,49,20
239616,note_off,,,,,0,0,1,,,,0,,,58,0
239616,note_off,,,,,0,0,1,,,,0,,,54,0
239616,note_off,,,,,0,0,1,,,,0,,,49,0
239616,note_on,,,,,0,0,1,,,,0,,,56,32
239616,note_off,,,,,512,0,1,,,,0,,,82,0
239616,note_on,,,,,0,0,1,,,,0,,,77,38
239616,note_on,,,,,0,0,1,,,,0,,,53,20
239670,control_change,,,,,54,0,1,,,,0,64,0,,
239957,control_change,,,,,287,0,1,,,,0,64,127,,
240128,note_on,,,,,0,0,1,,,,0,,,80,35
240128,note_off,,,,,171,0,1,,,,0,,,77,0
240640,control_change,,,,,0,0,1,,,,0,64,0,,
240640,control_change,,,,,0,0,1,,,,0,64,127,,
240640,control_change,,,,,512,0,1,,,,0,64,0,,
240640,note_off,,,,,0,0,1,,,,0,,,49,0
240640,note_off,,,,,0,0,1,,,,0,,,53,0
240640,note_off,,,,,0,0,1,,,,0,,,56,0
240640,note_on,,,,,0,0,1,,,,0,,,80,45
240640,note_on,,,,,0,0,1,,,,0,,,49,20
240640,note_on,,,,,0,0,1,,,,0,,,53,20
240640,note_on,,,,,0,0,1,,,,0,,,56,32
240640,set_tempo,,,,,1536,1,0,,461538,,,,,,
240640,note_off,,,,,0,0,1,,,,0,,,80,0
240820,control_change,,,,,180,0,1,,,,0,64,0,,
241071,control_change,,,,,251,0,1,,,,0,64,127,,
241664,note_off,,,,,593,0,1,,,,0,,,80,0
241664,note_on,,,,,0,0,1,,,,0,,,77,33
241664,set_tempo,,,,,1024,1,0,,428571,,,,,,
241790,control_change,,,,,126,0,1,,,,0,64,0,,
242176,note_off,,,,,386,0,1,,,,0,,,77,0
242688,note_on,,,,,0,0,1,,,,0,,,49,14
242688,note_on,,,,,0,0,1,,,,0,,,56,23
242688,note_on,,,,,0,0,1,,,,0,,,53,14
242688,note_off,,,,,0,0,1,,,,0,,,56,0
242688,note_off,,,,,0,0,1,,,,0,,,53,0
242688,note_off,,,,,0,0,1,,,,0,,,49,0
242688,note_on,,,,,512,0,1,,,,0,,,80,39
242724,control_change,,,,,36,0,1,,,,0,64,127,,
243712,note_off,,,,,988,0,1,,,,0,,,80,0
243712,note_on,,,,,0,0,1,,,,0,,,68,25
243874,control_change,,,,,162,0,1,,,,0,64,0,,
244224,note_off,,,,,350,0,1,,,,0,,,68,0
244736,set_tempo,,,,,3072,1,0,,461538,,,,,,
244736,note_off,,,,,0,0,1,,,,0,,,49,0
244736,note_on,,,,,0,0,1,,,,0,,,53,53
244736,note_on,,,,,0,0,1,,,,0,,,49,39
244736,note_on,,,,,0,0,1,,,,0,,,41,39
244736,note_on,,,,,0,0,1,,,,0,,,80,69
244736,note_on,,,,,512,0,1,,,,0,,,73,57
244736,note_off,,,,,0,0,1,,,,0,,,56,0
244736,note_off,,,,,0,0,1,,,,0,,,53,0
244772,control_change,,,,,36,0,1,,,,0,64,127,,
245248,note_on,,,,,0,0,1,,,,0,,,85,68
245248,note_off,,,,,0,0,1,,,,0,,,80,0
245248,set_tempo,,,,,512,1,0,,413793,,,,,,
245248,note_off,,,,,476,0,1,,,,0,,,73,0
245760,note_on,,,,,0,0,1,,,,0,,,44,45
245760,note_on,,,,,0,0,1,,,,0,,,80,66
245760,note_on,,,,,0,0,1,,,,0,,,72,54
245760,note_off,,,,,512,0,1,,,,0,,,85,0
245760,note_off,,,,,0,0,1,,,,0,,,41,0
245760,note_off,,,,,0,0,1,,,,0,,,49,0
245760,note_on,,,,,0,0,1,,,,0,,,51,33
245760,note_off,,,,,0,0,1,,,,0,,,53,0
245814,control_change,,,,,54,0,1,,,,0,64,0,,
246101,control_change,,,,,287,0,1,,,,0,64,127,,
246272,set_tempo,,,,,1024,1,0,,461538,,,,,,
246272,note_on,,,,,0,0,1,,,,0,,,84,65
246272,note_off,,,,,0,0,1,,,,0,,,80,0
246272,note_off,,,,,171,0,1,,,,0,,,72,0
246784,note_on,,,,,0,0,1,,,,0,,,51,40
246784,note_off,,,,,0,0,1,,,,0,,,84,0
246784,note_off,,,,,0,0,1,,,,0,,,44,0
246784,note_off,,,,,0,0,1,,,,0,,,51,0
246784,note_on,,,,,0,0,1,,,,0,,,72,57
246784,note_on,,,,,0,0,1,,,,0,,,80,69
246784,note_on,,,,,0,0,1,,,,0,,,44,52
246784,control_change,,,,,0,0,1,,,,0,64,0,,
246784,control_change,,,,,0,0,1,,,,0,64,0,,
246784,control_change,,,,,0,0,1,,,,0,64,127,,
246784,control_change,,,,,512,0,1,,,,0,64,0,,
246964,control_change,,,,,180,0,1,,,,0,64,0,,
247215,control_change,,,,,251,0,1,,,,0,64,127,,
247650,control_change,,,,,435,0,1,,,,0,64,127,,
247808,set_tempo,,,,,1536,1,0,,428571,,,,,,
247808,note_off,,,,,158,0,1,,,,0,,,72,0
247808,note_off,,,,,0,0,1,,,,0,,,80,0
247808,note_on,,,,,0,0,1,,,,0,,,84,57
248320,note_off,,,,,512,0,1,,,,0,,,84,0
248832,note_off,,,,,0,0,1,,,,0,,,51,0
248832,note_on,,,,,0,0,1,,,,0,,,51,33
248832,note_on,,,,,0,0,1,,,,0,,,44,45
248832,note_on,,,,,0,0,1,,,,0,,,80,62
248832,note_on,,,,,512,0,1,,,,0,,,72,50
248832,note_off,,,,,0,0,1,,,,0,,,44,0
248868,control_change,,,,,36,0,1,,,,0,64,127,,
249856,note_off,,,,,988,0,1,,,,0,,,72,0
249856,note_off,,,,,0,0,1,,,,0,,,80,0
249856,note_on,,,,,0,0,1,,,,0,,,84,50
250018,control_change,,,,,162,0,1,,,,0,64,0,,
250368,note_off,,,,,350,0,1,,,,0,,,84,0
250880,set_tempo,,,,,3072,1,0,,461538,,,,,,
250880,note_off,,,,,0,0,1,,,,0,,,51,0
250880,note_off,,,,,0,0,1,,,,0,,,44,0
250880,note_on,,,,,0,0,1,,,,0,,,56,40
250880,note_on,,,,,0,0,1,,,,0,,,54,52
250880,note_on,,,,,0,0,1,,,,0,,,44,52
250880,note_on,,,,,0,0,1,,,,0,,,80,69
250880,note_on,,,,,512,0,1,,,,0,,,75,57
250916,control_change,,,,,36,0,1,,,,0,64,127,,
251392,set_tempo,,,,,512,1,0,,428571,,,,,,
251392,note_off,,,,,476,0,1,,,,0,,,75,0
251392,note_off,,,,,0,0,1,,,,0,,,80,0
251392,note_on,,,,,0,0,1,,,,0,,,87,68
251904,note_off,,,,,0,0,1,,,,0,,,56,0
251904,note_on,,,,,0,0,1,,,,0,,,53,40
251904,note_off,,,,,0,0,1,,,,0,,,54,0
251904,note_off,,,,,0,0,1,,,,0,,,44,0
251904,note_on,,,,,0,0,1,,,,0,,,56,28
251904,note_on,,,,,0,0,1,,,,0,,,49,40
251904,note_on,,,,,0,0,1,,,,0,,,73,54
251904,note_off,,,,,512,0,1,,,,0,,,87,0
251904,note_on,,,,,0,0,1,,,,0,,,80,66
251958,control_change,,,,,54,0,1,,,,0,64,0,,
252245,control_change,,,,,287,0,1,,,,0,64,127,,
252416,note_off,,,,,171,0,1,,,,0,,,73,0
252416,note_off,,,,,0,0,1,,,,0,,,80,0
252416,note_on,,,,,0,0,1,,,,0,,,85,65
252928,note_off,,,,,0,0,1,,,,0,,,49,0
252928,note_off,,,,,0,0,1,,,,0,,,53,0
252928,note_off,,,,,0,0,1,,,,0,,,56,0
252928,note_on,,,,,0,0,1,,,,0,,,73,50
252928,note_off,,,,,0,0,1,,,,0,,,85,0
252928,note_on,,,,,0,0,1,,,,0,,,49,41
252928,note_on,,,,,0,0,1,,,,0,,,53,29
252928,note_on,,,,,0,0,1,,,,0,,,56,29
252928,note_on,,,,,0,0,1,,,,0,,,80,62
252928,control_change,,,,,0,0,1,,,,0,64,0,,
252928,control_change,,,,,0,0,1,,,,0,64,0,,
252928,control_change,,,,,0,0,1,,,,0,64,127,,
252928,control_change,,,,,0,0,1,,,,0,64,0,,
252928,control_change,,,,,0,0,1,,,,0,64,0,,
252928,control_change,,,,,0,0,1,,,,0,64,127,,
252928,control_change,,,,,512,0,1,,,,0,64,0,,
252928,set_tempo,,,,,1536,1,0,,461538,,,,,,
253108,control_change,,,,,180,0,1,,,,0,64,0,,
253108,control_change,,,,,0,0,1,,,,0,64,0,,
253359,control_change,,,,,251,0,1,,,,0,64,127,,
253359,control_change,,,,,0,0,1,,,,0,64,127,,
253873,control_change,,,,,514,0,1,,,,0,64,127,,
253952,note_on,,,,,0,0,1,,,,0,,,85,50
253952,set_tempo,,,,,1024,1,0,,428571,,,,,,
253952,note_off,,,,,79,0,1,,,,0,,,73,0
253952,note_off,,,,,0,0,1,,,,0,,,80,0
254464,note_off,,,,,512,0,1,,,,0,,,85,0
254976,note_off,,,,,0,0,1,,,,0,,,49,0
254976,note_off,,,,,0,0,1,,,,0,,,53,0
254976,note_off,,,,,0,0,1,,,,0,,,56,0
254976,note_on,,,,,0,0,1,,,,0,,,56,19
254976,note_on,,,,,512,0,1,,,,0,,,73,43
254976,note_on,,,,,0,0,1,,,,0,,,49,31
254976,note_on,,,,,0,0,1,,,,0,,,80,55
254976,note_on,,,,,0,0,1,,,,0,,,53,19
256000,note_off,,,,,1024,0,1,,,,0,,,73,0
256000,note_off,,,,,0,0,1,,,,0,,,80,0
256000,note_on,,,,,0,0,1,,,,0,,,85,43
256162,control_change,,,,,162,0,1,,,,0,64,0,,
256162,control_change,,,,,0,0,1,,,,0,64,0,,
256512,note_off,,,,,350,0,1,,,,0,,,85,0
257024,note_on,,,,,0,0,1,,,,0,,,53,13
257024,note_on,,,,,0,0,1,,,,0,,,48,22
257024,note_off,,,,,0,0,1,,,,0,,,56,0
257024,note_off,,,,,0,0,1,,,,0,,,53,0
257024,note_off,,,,,0,0,1,,,,0,,,49,0
257024,note_on,,,,,512,0,1,,,,0,,,77,52
257024,set_tempo,,,,,3072,1,0,,461538,,,,,,
257024,note_on,,,,,0,0,1,,,,0,,,56,22
257060,control_change,,,,,0,0,1,,,,0,64,127,,
257060,control_change,,,,,36,0,1,,,,0,64,127,,
257536,set_tempo,,,,,512,1,0,,428571,,,,,,
257536,note_off,,,,,476,0,1,,,,0,,,77,0
257536,note_on,,,,,0,0,1,,,,0,,,80,50
258048,note_off,,,,,0,0,1,,,,0,,,53,0
258048,note_off,,,,,0,0,1,,,,0,,,48,0
258048,note_on,,,,,0,0,1,,,,0,,,56,13
258048,note_off,,,,,0,0,1,,,,0,,,56,0
258048,note_on,,,,,0,0,1,,,,0,,,48,22
258048,note_on,,,,,0,0,1,,,,0,,,77,49
258048,note_off,,,,,512,0,1,,,,0,,,80,0
258048,note_on,,,,,0,0,1,,,,0,,,53,13
258102,control_change,,,,,54,0,1,,,,0,64,0,,
258102,control_change,,,,,0,0,1,,,,0,64,0,,
258389,control_change,,,,,287,0,1,,,,0,64,127,,
258389,control_change,,,,,0,0,1,,,,0,64,127,,
258560,note_off,,,,,171,0,1,,,,0,,,77,0
258560,note_on,,,,,0,0,1,,,,0,,,80,47
259072,note_off,,,,,0,0,1,,,,0,,,56,0
259072,note_on,,,,,0,0,1,,,,0,,,56,29
259072,note_on,,,,,0,0,1,,,,0,,,53,15
259072,note_on,,,,,0,0,1,,,,0,,,48,15
259072,note_off,,,,,0,0,1,,,,0,,,53,0
259072,note_on,,,,,0,0,1,,,,0,,,80,52
259072,note_off,,,,,0,0,1,,,,0,,,80,0
259072,control_change,,,,,0,0,1,,,,0,64,0,,
259072,note_off,,,,,0,0,1,,,,0,,,48,0
259072,control_change,,,,,0,0,1,,,,0,64,127,,
259072,control_change,,,,,0,0,1,,,,0,64,0,,
259072,control_change,,,,,512,0,1,,,,0,64,0,,
259252,control_change,,,,,180,0,1,,,,0,64,0,,
259503,control_change,,,,,251,0,1,,,,0,64,127,,
260096,note_on,,,,,0,0,1,,,,0,,,77,40
260096,set_tempo,,,,,2560,1,0,,461538,,,,,,
260096,note_off,,,,,593,0,1,,,,0,,,80,0
260222,control_change,,,,,126,0,1,,,,0,64,0,,
260608,note_off,,,,,386,0,1,,,,0,,,77,0
261120,set_tempo,,,,,1024,1,0,,428571,,,,,,
261120,note_on,,,,,0,0,1,,,,0,,,56,23
261120,note_on,,,,,0,0,1,,,,0,,,53,9
261120,note_off,,,,,0,0,1,,,,0,,,53,0
261120,note_off,,,,,0,0,1,,,,0,,,56,0
261120,note_off,,,,,0,0,1,,,,0,,,48,0
261120,note_on,,,,,512,0,1,,,,0,,,80,44
261120,note_on,,,,,0,0,1,,,,0,,,48,9
261156,control_change,,,,,36,0,1,,,,0,64,127,,
262144,note_off,,,,,988,0,1,,,,0,,,80,0
262144,note_on,,,,,0,0,1,,,,0,,,72,31
262306,control_change,,,,,162,0,1,,,,0,64,0,,
262656,note_off,,,,,350,0,1,,,,0,,,72,0
263168,note_on,,,,,0,0,1,,,,0,,,52,18
263168,set_tempo,,,,,2048,1,0,,461538,,,,,,
263168,note_on,,,,,0,0,1,,,,0,,,55,32
263168,note_on,,,,,0,0,1,,,,0,,,48,18
263168,note_off,,,,,0,0,1,,,,0,,,53,0
263168,note_off,,,,,0,0,1,,,,0,,,48,0
263168,note_on,,,,,512,0,1,,,,0,,,76,52
263168,note_off,,,,,0,0,1,,,,0,,,56,0
263204,control_change,,,,,36,0,1,,,,0,64,127,,
263680,note_off,,,,,476,0,1,,,,0,,,76,0
263680,note_on,,,,,0,0,1,,,,0,,,84,51
263680,set_tempo,,,,,512,1,0,,413793,,,,,,
264192,note_off,,,,,0,0,1,,,,0,,,52,0
264192,note_off,,,,,0,0,1,,,,0,,,55,0
264192,note_on,,,,,0,0,1,,,,0,,,55,26
264192,note_on,,,,,0,0,1,,,,0,,,52,12
264192,note_on,,,,,0,0,1,,,,0,,,48,12
264192,note_on,,,,,0,0,1,,,,0,,,76,49
264192,note_off,,,,,512,0,1,,,,0,,,84,0
264192,note_off,,,,,0,0,1,,,,0,,,48,0
264246,control_change,,,,,54,0,1,,,,0,64,0,,
264533,control_change,,,,,287,0,1,,,,0,64,127,,
264704,note_off,,,,,171,0,1,,,,0,,,76,0
264704,note_on,,,,,0,0,1,,,,0,,,79,48
265216,note_on,,,,,0,0,1,,,,0,,,55,29
265216,note_on,,,,,0,0,1,,,,0,,,52,15
265216,note_on,,,,,0,0,1,,,,0,,,79,52
265216,note_on,,,,,0,0,1,,,,0,,,48,15
265216,note_off,,,,,0,0,1,,,,0,,,52,0
265216,note_off,,,,,0,0,1,,,,0,,,48,0
265216,note_off,,,,,0,0,1,,,,0,,,79,0
265216,control_change,,,,,0,0,1,,,,0,64,0,,
265216,control_change,,,,,512,0,1,,,,0,64,0,,
265216,note_off,,,,,0,0,1,,,,0,,,55,0
265216,control_change,,,,,0,0,1,,,,0,64,0,,
265216,control_change,,,,,0,0,1,,,,0,64,127,,
265396,control_change,,,,,180,0,1,,,,0,64,0,,
265647,control_change,,,,,251,0,1,,,,0,64,127,,
266240,note_off,,,,,593,0,1,,,,0,,,79,0
266240,note_on,,,,,0,0,1,,,,0,,,76,40
266240,set_tempo,,,,,2560,1,0,,461538,,,,,,
266366,control_change,,,,,126,0,1,,,,0,64,0,,
266752,note_off,,,,,386,0,1,,,,0,,,76,0
267264,set_tempo,,,,,1024,1,0,,428571,,,,,,
267264,note_off,,,,,0,0,1,,,,0,,,55,0
267264,note_on,,,,,0,0,1,,,,0,,,52,9
267264,note_on,,,,,0,0,1,,,,0,,,48,9
267264,note_off,,,,,0,0,1,,,,0,,,52,0
267264,note_on,,,,,512,0,1,,,,0,,,79,44
267264,note_on,,,,,0,0,1,,,,0,,,55,23
267264,note_off,,,,,0,0,1,,,,0,,,48,0
267300,control_change,,,,,36,0,1,,,,0,64,127,,
268288,note_off,,,,,988,0,1,,,,0,,,79,0
268288,note_on,,,,,0,0,1,,,,0,,,72,31
268450,control_change,,,,,162,0,1,,,,0,64,0,,
268800,note_off,,,,,350,0,1,,,,0,,,72,0
269312,set_tempo,,,,,2048,1,0,,461538,,,,,,
269312,note_on,,,,,512,0,1,,,,0,,,73,46
269312,note_off,,,,,0,0,1,,,,0,,,48,0
269312,note_off,,,,,0,0,1,,,,0,,,52,0
269312,note_off,,,,,0,0,1,,,,0,,,55,0
269312,note_on,,,,,0,0,1,,,,0,,,49,27
269312,note_on,,,,,0,0,1,,,,0,,,53,18
269348,control_change,,,,,36,0,1,,,,0,64,127,,
269824,note_on,,,,,0,0,1,,,,0,,,77,51
269824,note_off,,,,,476,0,1,,,,0,,,73,0
269824,set_tempo,,,,,512,1,0,,413793,,,,,,
270336,note_off,,,,,0,0,1,,,,0,,,49,0
270336,note_on,,,,,0,0,1,,,,0,,,68,43
270336,note_off,,,,,512,0,1,,,,0,,,77,0
270336,note_on,,,,,0,0,1,,,,0,,,49,12
270336,note_on,,,,,0,0,1,,,,0,,,53,26
270336,note_on,,,,,0,0,1,,,,0,,,44,21
270336,note_off,,,,,0,0,1,,,,0,,,53,0
270390,control_change,,,,,54,0,1,,,,0,64,0,,
270677,control_change,,,,,287,0,1,,,,0,64,127,,
270848,note_off,,,,,171,0,1,,,,0,,,68,0
270848,note_on,,,,,0,0,1,,,,0,,,77,48
271360,control_change,,,,,0,0,1,,,,0,64,0,,
271360,control_change,,,,,512,0,1,,,,0,64,0,,
271360,control_change,,,,,0,0,1,,,,0,64,127,,
271360,note_on,,,,,0,0,1,,,,0,,,49,15
271360,control_change,,,,,0,0,1,,,,0,64,0,,
271360,note_on,,,,,0,0,1,,,,0,,,44,21
271360,note_on,,,,,0,0,1,,,,0,,,68,46
271360,note_off,,,,,0,0,1,,,,0,,,53,0
271360,note_off,,,,,0,0,1,,,,0,,,49,0
271360,note_off,,,,,0,0,1,,,,0,,,44,0
271360,note_off,,,,,0,0,1,,,,0,,,77,0
271360,note_on,,,,,0,0,1,,,,0,,,53,29
271540,control_change,,,,,180,0,1,,,,0,64,0,,
271791,control_change,,,,,251,0,1,,,,0,64,127,,
272384,note_off,,,,,593,0,1,,,,0,,,68,0
272384,set_tempo,,,,,2560,1,0,,461538,,,,,,
272384,note_on,,,,,0,0,1,,,,0,,,77,40
272510,control_change,,,,,126,0,1,,,,0,64,0,,
272896,note_off,,,,,386,0,1,,,,0,,,77,0
273408,set_tempo,,,,,1024,1,0,,428571,,,,,,
273408,note_on,,,,,0,0,1,,,,0,,,44,9
273408,note_on,,,,,512,0,1,,,,0,,,73,41
273408,note_off,,,,,0,0,1,,,,0,,,44,0
273408,note_off,,,,,0,0,1,,,,0,,,49,0
273408,note_off,,,,,0,0,1,,,,0,,,53,0
273408,note_on,,,,,0,0,1,,,,0,,,49,9
273408,note_on,,,,,0,0,1,,,,0,,,53,23
273444,control_change,,,,,36,0,1,,,,0,64,127,,
274432,note_off,,,,,988,0,1,,,,0,,,73,0
274432,note_on,,,,,0,0,1,,,,0,,,77,31
274594,control_change,,,,,162,0,1,,,,0,64,0,,
274944,note_off,,,,,350,0,1,,,,0,,,77,0
275456,note_off,,,,,0,0,1,,,,0,,,44,0
275456,note_on,,,,,512,0,1,,,,0,,,68,28
275456,note_on,,,,,0,0,1,,,,0,,,72,41
275456,set_tempo,,,,,2048,1,0,,461538,,,,,,
275456,note_off,,,,,0,0,1,,,,0,,,53,0
275456,note_on,,,,,0,0,1,,,,0,,,44,12
275456,note_off,,,,,0,0,1,,,,0,,,49,0
275456,note_on,,,,,0,0,1,,,,0,,,48,12
275456,note_on,,,,,0,0,1,,,,0,,,51,26
275492,control_change,,,,,36,0,1,,,,0,64,127,,
275968,set_tempo,,,,,512,1,0,,413793,,,,,,
275968,note_off,,,,,476,0,1,,,,0,,,68,0
275968,note_off,,,,,0,0,1,,,,0,,,72,0
275968,note_on,,,,,0,0,1,,,,0,,,75,40
276480,note_on,,,,,0,0,1,,,,0,,,48,6
276480,note_on,,,,,0,0,1,,,,0,,,51,20
276480,note_on,,,,,0,0,1,,,,0,,,44,6
276480,note_off,,,,,512,0,1,,,,0,,,75,0
276480,note_on,,,,,0,0,1,,,,0,,,72,38
276480,note_on,,,,,0,0,1,,,,0,,,68,25
276480,note_off,,,,,0,0,1,,,,0,,,51,0
276480,note_off,,,,,0,0,1,,,,0,,,44,0
276480,note_off,,,,,0,0,1,,,,0,,,48,0
276534,control_change,,,,,54,0,1,,,,0,64,0,,
276821,control_change,,,,,287,0,1,,,,0,64,127,,
276992,note_off,,,,,171,0,1,,,,0,,,68,0
276992,note_off,,,,,0,0,1,,,,0,,,72,0
276992,note_on,,,,,0,0,1,,,,0,,,75,37
277504,control_change,,,,,512,0,1,,,,0,64,0,,
277504,note_on,,,,,0,0,1,,,,0,,,49,23
277504,note_on,,,,,0,0,1,,,,0,,,44,9
277504,control_change,,,,,0,0,1,,,,0,64,0,,
277504,note_off,,,,,0,0,1,,,,0,,,75,0
277504,note_off,,,,,0,0,1,,,,0,,,44,0
277504,note_off,,,,,0,0,1,,,,0,,,51,0
277504,note_on,,,,,0,0,1,,,,0,,,65,26
277504,note_on,,,,,0,0,1,,,,0,,,68,39
277504,note_on,,,,,0,0,1,,,,0,,,37,9
277504,control_change,,,,,0,0,1,,,,0,64,127,,
277504,control_change,,,,,0,0,1,,,,0,64,0,,
277504,note_off,,,,,0,0,1,,,,0,,,48,0
277504,set_tempo,,,,,1536,1,0,,461538,,,,,,
277684,control_change,,,,,180,0,1,,,,0,64,0,,
277935,control_change,,,,,251,0,1,,,,0,64,127,,
278528,note_off,,,,,593,0,1,,,,0,,,65,0
278528,set_tempo,,,,,1024,1,0,,428571,,,,,,
278528,note_off,,,,,0,0,1,,,,0,,,68,0
278528,note_on,,,,,0,0,1,,,,0,,,73,27
278654,control_change,,,,,126,0,1,,,,0,64,0,,
279040,note_off,,,,,386,0,1,,,,0,,,73,0
279552,note_off,,,,,0,0,1,,,,0,,,49,0
279552,note_on,,,,,0,0,1,,,,0,,,44,3
279552,note_on,,,,,0,0,1,,,,0,,,37,3
279552,note_on,,,,,0,0,1,,,,0,,,68,33
279552,note_on,,,,,512,0,1,,,,0,,,65,20
279552,note_on,,,,,0,0,1,,,,0,,,49,17
279552,set_tempo,,,,,1024,1,0,,428571,,,,,,
279552,note_off,,,,,0,0,1,,,,0,,,37,0
279552,note_off,,,,,0,0,1,,,,0,,,44,0
279588,control_change,,,,,36,0,1,,,,0,64,127,,
280576,set_tempo,,,,,1024,1,0,,500000,,,,,,
280576,note_off,,,,,988,0,1,,,,0,,,65,0
280576,note_off,,,,,0,0,1,,,,0,,,68,0
280576,note_on,,,,,0,0,1,,,,0,,,73,18
280738,control_change,,,,,162,0,1,,,,0,64,0,,
281088,note_off,,,,,350,0,1,,,,0,,,73,0
281600,set_tempo,,,,,1024,1,0,,500000,,,,,,
281600,note_off,,,,,0,0,1,,,,0,,,49,0
281600,note_off,,,,,0,0,1,,,,0,,,44,0
281600,note_off,,,,,0,0,1,,,,0,,,37,0
281600,note_on,,,,,0,0,1,,,,0,,,63,18
281600,note_on,,,,,0,0,1,,,,0,,,59,19
281600,note_on,,,,,0,0,1,,,,0,,,56,12
281600,note_on,,,,,512,0,1,,,,0,,,68,24
281600,note_on,,,,,0,0,1,,,,0,,,80,43
281636,control_change,,,,,36,0,1,,,,0,64,127,,
282624,note_off,,,,,0,0,1,,,,0,,,63,0
282624,note_on,,,,,0,0,1,,,,0,,,68,21
282624,note_on,,,,,0,0,1,,,,0,,,59,19
282624,note_on,,,,,0,0,1,,,,0,,,56,12
282624,note_on,,,,,0,0,1,,,,0,,,75,40
282624,note_off,,,,,0,0,1,,,,0,,,59,0
282624,note_on,,,,,0,0,1,,,,0,,,63,18
282624,note_off,,,,,0,0,1,,,,0,,,80,0
282624,note_off,,,,,988,0,1,,,,0,,,68,0
282624,set_tempo,,,,,1024,1,0,,428571,,,,,,
282624,note_off,,,,,0,0,1,,,,0,,,56,0
282678,control_change,,,,,54,0,1,,,,0,64,0,,
282965,control_change,,,,,287,0,1,,,,0,64,127,,
283648,note_off,,,,,0,0,1,,,,0,,,75,0
283648,note_on,,,,,0,0,1,,,,0,,,59,16
283648,note_on,,,,,0,0,1,,,,0,,,63,23
283648,note_on,,,,,0,0,1,,,,0,,,56,9
283648,note_on,,,,,0,0,1,,,,0,,,75,39
283648,note_on,,,,,0,0,1,,,,0,,,68,19
283648,note_off,,,,,0,0,1,,,,0,,,63,0
283648,note_off,,,,,0,0,1,,,,0,,,59,0
283648,note_off,,,,,0,0,1,,,,0,,,56,0
283648,note_off,,,,,0,0,1,,,,0,,,68,0
283648,control_change,,,,,0,0,1,,,,0,64,0,,
283648,control_change,,,,,0,0,1,,,,0,64,0,,
283648,control_change,,,,,0,0,1,,,,0,64,0,,
283648,control_change,,,,,0,0,1,,,,0,64,127,,
283648,control_change,,,,,0,0,1,,,,0,64,0,,
283648,control_change,,,,,0,0,1,,,,0,64,0,,
283648,control_change,,,,,0,0,1,,,,0,64,127,,
283648,control_change,,,,,0,0,1,,,,0,64,0,,
283648,control_change,,,,,683,0,1,,,,0,64,0,,
283949,control_change,,,,,0,0,1,,,,0,64,0,,
283949,control_change,,,,,301,0,1,,,,0,64,0,,
284612,control_change,,,,,663,0,1,,,,0,64,127,,
284612,control_change,,,,,0,0,1,,,,0,64,127,,
285696,note_off,,,,,1084,0,1,,,,0,,,68,0
285696,note_off,,,,,0,0,1,,,,0,,,75,0
285696,note_off,,,,,0,0,1,,,,0,,,56,0
285696,note_off,,,,,0,0,1,,,,0,,,59,0
285696,note_off,,,,,0,0,1,,,,0,,,63,0
285696,note_on,,,,,0,0,1,,,,0,,,68,19
285696,note_on,,,,,0,0,1,,,,0,,,75,39
285696,note_on,,,,,0,0,1,,,,0,,,56,12
285696,note_on,,,,,0,0,1,,,,0,,,59,19
285696,note_on,,,,,0,0,1,,,,0,,,63,12
287744,note_on,,,,,0,0,1,,,,0,,,59,12
287744,note_on,,,,,0,0,1,,,,0,,,71,22
287744,note_on,,,,,0,0,1,,,,0,,,64,21
287744,note_on,,,,,0,0,1,,,,0,,,76,42
287744,note_on,,,,,0,0,1,,,,0,,,56,12
287744,note_on,,,,,0,0,1,,,,0,,,68,22
287744,note_off,,,,,2048,0,1,,,,0,,,68,0
287744,note_off,,,,,0,0,1,,,,0,,,59,0
287744,note_off,,,,,0,0,1,,,,0,,,56,0
287744,note_off,,,,,0,0,1,,,,0,,,75,0
287744,note_off,,,,,0,0,1,,,,0,,,63,0
287744,set_tempo,,,,,5120,1,0,,461538,,,,,,
287804,control_change,,,,,60,0,1,,,,0,64,0,,
287804,control_change,,,,,0,0,1,,,,0,64,0,,
288346,control_change,,,,,542,0,1,,,,0,64,127,,
288346,control_change,,,,,0,0,1,,,,0,64,127,,
288768,set_tempo,,,,,1024,1,0,,428571,,,,,,
288768,note_off,,,,,422,0,1,,,,0,,,68,0
288768,note_off,,,,,0,0,1,,,,0,,,71,0
288768,note_off,,,,,0,0,1,,,,0,,,76,0
288768,note_off,,,,,0,0,1,,,,0,,,56,0
288768,note_off,,,,,0,0,1,,,,0,,,59,0
288768,note_off,,,,,0,0,1,,,,0,,,64,0
288768,note_on,,,,,0,0,1,,,,0,,,68,22
288768,note_on,,,,,0,0,1,,,,0,,,71,22
288768,note_on,,,,,0,0,1,,,,0,,,75,39
288768,note_on,,,,,0,0,1,,,,0,,,59,12
288768,note_on,,,,,0,0,1,,,,0,,,51,21
288768,note_on,,,,,0,0,1,,,,0,,,63,21
289024,control_change,,,,,256,0,1,,,,0,64,0,,
289536,control_change,,,,,512,0,1,,,,0,64,127,,
289792,set_tempo,,,,,1024,1,0,,461538,,,,,,
289792,note_on,,,,,0,0,1,,,,0,,,63,21
289792,note_on,,,,,0,0,1,,,,0,,,59,12
289792,note_on,,,,,0,0,1,,,,0,,,54,12
289792,note_on,,,,,0,0,1,,,,0,,,75,42
289792,note_on,,,,,0,0,1,,,,0,,,71,25
289792,note_on,,,,,0,0,1,,,,0,,,66,25
289792,note_off,,,,,0,0,1,,,,0,,,59,0
289792,note_off,,,,,0,0,1,,,,0,,,51,0
289792,note_off,,,,,0,0,1,,,,0,,,63,0
289792,note_off,,,,,0,0,1,,,,0,,,71,0
289792,control_change,,,,,256,0,1,,,,0,64,0,,
289792,note_off,,,,,0,0,1,,,,0,,,68,0
289792,control_change,,,,,0,0,1,,,,0,64,0,,
289792,control_change,,,,,0,0,1,,,,0,64,0,,
289792,control_change,,,,,0,0,1,,,,0,64,0,,
289792,control_change,,,,,0,0,1,,,,0,64,127,,
289792,control_change,,,,,0,0,1,,,,0,64,0,,
289792,note_off,,,,,0,0,1,,,,0,,,75,0
290093,control_change,,,,,301,0,1,,,,0,64,0,,
290756,control_change,,,,,663,0,1,,,,0,64,127,,
291840,note_on,,,,,0,0,1,,,,0,,,73,23
291840,set_tempo,,,,,2048,1,0,,428571,,,,,,
291840,note_on,,,,,0,0,1,,,,0,,,61,17
291840,note_on,,,,,0,0,1,,,,0,,,58,8
291840,note_on,,,,,0,0,1,,,,0,,,54,8
291840,note_on,,,,,0,0,1,,,,0,,,70,11
291840,note_off,,,,,0,0,1,,,,0,,,59,0
291840,note_off,,,,,0,0,1,,,,0,,,63,0
291840,note_off,,,,,1084,0,1,,,,0,,,66,0
291840,note_off,,,,,0,0,1,,,,0,,,54,0
291840,note_off,,,,,0,0,1,,,,0,,,75,0
291840,note_off,,,,,0,0,1,,,,0,,,71,0
291840,note_on,,,,,0,0,1,,,,0,,,66,11
291880,control_change,,,,,40,0,1,,,,0,64,0,,
292476,control_change,,,,,596,0,1,,,,0,64,127,,
293888,note_on,,,,,0,0,1,,,,0,,,58,12
293888,note_on,,,,,0,0,1,,,,0,,,55,21
293888,note_on,,,,,0,0,1,,,,0,,,75,43
293888,note_on,,,,,0,0,1,,,,0,,,70,19
293888,note_on,,,,,0,0,1,,,,0,,,63,19
293888,note_off,,,,,0,0,1,,,,0,,,58,0
293888,note_off,,,,,0,0,1,,,,0,,,54,0
293888,note_off,,,,,0,0,1,,,,0,,,73,0
293888,note_off,,,,,0,0,1,,,,0,,,70,0
293888,note_off,,,,,1412,0,1,,,,0,,,66,0
293888,note_off,,,,,0,0,1,,,,0,,,61,0
293888,set_tempo,,,,,2048,1,0,,461538,,,,,,
293948,control_change,,,,,60,0,1,,,,0,64,0,,
294490,control_change,,,,,542,0,1,,,,0,64,127,,
294912,note_on,,,,,0,0,1,,,,0,,,71,35
294912,note_on,,,,,0,0,1,,,,0,,,59,12
294912,note_on,,,,,0,0,1,,,,0,,,56,21
294912,note_on,,,,,0,0,1,,,,0,,,63,14
294912,note_off,,,,,0,0,1,,,,0,,,58,0
294912,note_off,,,,,422,0,1,,,,0,,,63,0
294912,note_off,,,,,0,0,1,,,,0,,,70,0
294912,note_on,,,,,0,0,1,,,,0,,,68,14
294912,set_tempo,,,,,1024,1,0,,428571,,,,,,
294912,note_off,,,,,0,0,1,,,,0,,,55,0
294912,note_off,,,,,0,0,1,,,,0,,,75,0
295168,control_change,,,,,256,0,1,,,,0,64,0,,
295680,control_change,,,,,512,0,1,,,,0,64,127,,
295936,control_change,,,,,256,0,1,,,,0,64,0,,
295936,note_on,,,,,0,0,1,,,,0,,,59,12
295936,note_on,,,,,0,0,1,,,,0,,,56,12
295936,note_on,,,,,0,0,1,,,,0,,,71,35
295936,note_on,,,,,0,0,1,,,,0,,,63,18
295936,note_off,,,,,0,0,1,,,,0,,,59,0
295936,note_off,,,,,0,0,1,,,,0,,,71,0
295936,note_off,,,,,0,0,1,,,,0,,,68,0
295936,note_off,,,,,0,0,1,,,,0,,,63,0
295936,control_change,,,,,0,0,1,,,,0,64,0,,
295936,control_change,,,,,0,0,1,,,,0,64,0,,
295936,note_on,,,,,0,0,1,,,,0,,,68,18
295936,control_change,,,,,0,0,1,,,,0,64,127,,
295936,control_change,,,,,0,0,1,,,,0,64,0,,
295936,control_change,,,,,0,0,1,,,,0,64,0,,
295936,control_change,,,,,0,0,1,,,,0,64,0,,
295936,control_change,,,,,0,0,1,,,,0,64,0,,
295936,control_change,,,,,0,0,1,,,,0,64,127,,
295936,control_change,,,,,0,0,1,,,,0,64,0,,
295936,control_change,,,,,0,0,1,,,,0,64,0,,
295936,note_off,,,,,0,0,1,,,,0,,,56,0
295936,control_change,,,,,0,0,1,,,,0,64,0,,
295936,control_change,,,,,0,0,1,,,,0,64,0,,
295936,control_change,,,,,0,0,1,,,,0,64,0,,
295936,control_change,,,,,0,0,1,,,,0,64,127,,
295936,control_change,,,,,0,0,1,,,,0,64,0,,
295936,control_change,,,,,0,0,1,,,,0,64,0,,
295936,control_change,,,,,0,0,1,,,,0,64,127,,
296237,control_change,,,,,301,0,1,,,,0,64,0,,
296237,control_change,,,,,0,0,1,,,,0,64,0,,
296237,control_change,,,,,0,0,1,,,,0,64,0,,
296237,control_change,,,,,0,0,1,,,,0,64,0,,
296900,control_change,,,,,663,0,1,,,,0,64,127,,
296900,control_change,,,,,0,0,1,,,,0,64,127,,
296900,control_change,,,,,0,0,1,,,,0,64,127,,
296900,control_change,,,,,0,0,1,,,,0,64,127,,
297984,note_off,,,,,0,0,1,,,,0,,,68,0
297984,note_off,,,,,0,0,1,,,,0,,,71,0
297984,note_off,,,,,0,0,1,,,,0,,,56,0
297984,note_off,,,,,0,0,1,,,,0,,,59,0
297984,note_on,,,,,0,0,1,,,,0,,,63,11
297984,note_on,,,,,0,0,1,,,,0,,,71,23
297984,note_on,,,,,0,0,1,,,,0,,,56,8
297984,note_on,,,,,0,0,1,,,,0,,,59,8
297984,note_off,,,,,1084,0,1,,,,0,,,63,0
297984,note_on,,,,,0,0,1,,,,0,,,68,11
300032,note_on,,,,,0,0,1,,,,0,,,73,47
300032,note_off,,,,,0,0,1,,,,0,,,68,0
300032,note_off,,,,,0,0,1,,,,0,,,71,0
300032,note_off,,,,,0,0,1,,,,0,,,56,0
300032,note_off,,,,,0,0,1,,,,0,,,59,0
300032,set_tempo,,,,,5120,1,0,,461538,,,,,,
300032,note_on,,,,,0,0,1,,,,0,,,61,23
300032,note_on,,,,,0,0,1,,,,0,,,68,23
300032,note_on,,,,,0,0,1,,,,0,,,52,21
300032,note_on,,,,,0,0,1,,,,0,,,56,12
300032,note_off,,,,,2048,0,1,,,,0,,,63,0
300092,control_change,,,,,0,0,1,,,,0,64,0,,
300092,control_change,,,,,0,0,1,,,,0,64,0,,
300092,control_change,,,,,60,0,1,,,,0,64,0,,
300092,control_change,,,,,0,0,1,,,,0,64,0,,
300634,control_change,,,,,0,0,1,,,,0,64,127,,
300634,control_change,,,,,0,0,1,,,,0,64,127,,
300634,control_change,,,,,0,0,1,,,,0,64,127,,
300634,control_change,,,,,542,0,1,,,,0,64,127,,
301056,note_on,,,,,0,0,1,,,,0,,,56,12
301056,note_on,,,,,0,0,1,,,,0,,,49,21
301056,note_on,,,,,0,0,1,,,,0,,,71,39
301056,note_on,,,,,0,0,1,,,,0,,,59,21
301056,note_on,,,,,0,0,1,,,,0,,,68,18
301056,note_off,,,,,0,0,1,,,,0,,,52,0
301056,note_off,,,,,0,0,1,,,,0,,,56,0
301056,note_off,,,,,0,0,1,,,,0,,,73,0
301056,note_off,,,,,0,0,1,,,,0,,,68,0
301056,note_off,,,,,422,0,1,,,,0,,,61,0
301056,note_on,,,,,0,0,1,,,,0,,,64,18
301056,set_tempo,,,,,1024,1,0,,428571,,,,,,
301312,control_change,,,,,0,0,1,,,,0,64,0,,
301312,control_change,,,,,256,0,1,,,,0,64,0,,
301824,control_change,,,,,0,0,1,,,,0,64,127,,
301824,control_change,,,,,512,0,1,,,,0,64,127,,
302080,note_on,,,,,0,0,1,,,,0,,,59,21
302080,note_on,,,,,0,0,1,,,,0,,,56,12
302080,note_on,,,,,0,0,1,,,,0,,,51,12
302080,note_on,,,,,0,0,1,,,,0,,,71,39
302080,note_on,,,,,0,0,1,,,,0,,,68,22
302080,note_on,,,,,0,0,1,,,,0,,,63,22
302080,note_off,,,,,0,0,1,,,,0,,,71,0
302080,note_off,,,,,0,0,1,,,,0,,,59,0
302080,note_off,,,,,0,0,1,,,,0,,,56,0
302080,note_off,,,,,0,0,1,,,,0,,,49,0
302080,note_off,,,,,0,0,1,,,,0,,,68,0
302080,control_change,,,,,0,0,1,,,,0,64,0,,
302080,control_change,,,,,0,0,1,,,,0,64,0,,
302080,note_off,,,,,0,0,1,,,,0,,,64,0
302080,control_change,,,,,0,0,1,,,,0,64,0,,
302080,control_change,,,,,0,0,1,,,,0,64,0,,
302080,control_change,,,,,0,0,1,,,,0,64,0,,
302080,control_change,,,,,0,0,1,,,,0,64,127,,
302080,control_change,,,,,256,0,1,,,,0,64,0,,
302080,control_change,,,,,0,0,1,,,,0,64,0,,
302080,control_change,,,,,0,0,1,,,,0,64,127,,
302080,control_change,,,,,0,0,1,,,,0,64,0,,
302080,control_change,,,,,0,0,1,,,,0,64,0,,
302080,control_change,,,,,0,0,1,,,,0,64,0,,
302381,control_change,,,,,301,0,1,,,,0,64,0,,
302381,control_change,,,,,0,0,1,,,,0,64,0,,
303044,control_change,,,,,663,0,1,,,,0,64,127,,
303044,control_change,,,,,0,0,1,,,,0,64,127,,
304128,note_on,,,,,0,0,1,,,,0,,,70,23
304128,note_on,,,,,0,0,1,,,,0,,,58,12
304128,note_on,,,,,0,0,1,,,,0,,,55,12
304128,note_on,,,,,0,0,1,,,,0,,,51,12
304128,note_on,,,,,0,0,1,,,,0,,,67,11
304128,note_off,,,,,1084,0,1,,,,0,,,63,0
304128,note_off,,,,,0,0,1,,,,0,,,59,0
304128,note_off,,,,,0,0,1,,,,0,,,56,0
304128,note_off,,,,,0,0,1,,,,0,,,51,0
304128,note_off,,,,,0,0,1,,,,0,,,71,0
304128,note_off,,,,,0,0,1,,,,0,,,68,0
304128,note_on,,,,,0,0,1,,,,0,,,63,11
304168,control_change,,,,,40,0,1,,,,0,64,0,,
304764,control_change,,,,,596,0,1,,,,0,64,127,,
306176,set_tempo,,,,,5120,1,0,,500000,,,,,,
306176,note_on,,,,,0,0,1,,,,0,,,56,12
306176,note_on,,,,,0,0,1,,,,0,,,68,19
306176,note_on,,,,,0,0,1,,,,0,,,73,43
306176,note_on,,,,,0,0,1,,,,0,,,61,19
306176,note_on,,,,,0,0,1,,,,0,,,52,21
306176,note_off,,,,,0,0,1,,,,0,,,55,0
306176,note_off,,,,,0,0,1,,,,0,,,51,0
306176,note_off,,,,,0,0,1,,,,0,,,70,0
306176,note_off,,,,,0,0,1,,,,0,,,67,0
306176,note_off,,,,,1412,0,1,,,,0,,,63,0
306176,note_off,,,,,0,0,1,,,,0,,,58,0
306236,control_change,,,,,60,0,1,,,,0,64,0,,
306236,control_change,,,,,0,0,1,,,,0,64,0,,
306778,control_change,,,,,542,0,1,,,,0,64,127,,
306778,control_change,,,,,0,0,1,,,,0,64,127,,
307200,note_on,,,,,0,0,1,,,,0,,,59,21
307200,note_on,,,,,0,0,1,,,,0,,,56,12
307200,note_on,,,,,0,0,1,,,,0,,,49,21
307200,note_on,,,,,0,0,1,,,,0,,,71,35
307200,note_off,,,,,0,0,1,,,,0,,,73,0
307200,note_on,,,,,0,0,1,,,,0,,,64,14
307200,note_off,,,,,0,0,1,,,,0,,,56,0
307200,note_off,,,,,0,0,1,,,,0,,,52,0
307200,note_off,,,,,0,0,1,,,,0,,,68,0
307200,note_off,,,,,422,0,1,,,,0,,,61,0
307200,note_on,,,,,0,0,1,,,,0,,,68,14
307200,set_tempo,,,,,1024,1,0,,461538,,,,,,
307456,control_change,,,,,0,0,1,,,,0,64,0,,
307456,control_change,,,,,256,0,1,,,,0,64,0,,
307968,control_change,,,,,512,0,1,,,,0,64,127,,
307968,control_change,,,,,0,0,1,,,,0,64,127,,
308224,note_on,,,,,0,0,1,,,,0,,,59,25
308224,control_change,,,,,0,0,1,,,,0,64,127,,
308224,control_change,,,,,0,0,1,,,,0,64,0,,
308224,note_off,,,,,0,0,1,,,,0,,,64,0
308224,note_off,,,,,0,0,1,,,,0,,,68,0
308224,control_change,,,,,0,0,1,,,,0,64,0,,
308224,note_off,,,,,0,0,1,,,,0,,,71,0
308224,note_off,,,,,0,0,1,,,,0,,,56,0
308224,note_off,,,,,0,0,1,,,,0,,,59,0
308224,note_on,,,,,0,0,1,,,,0,,,63,18
308224,note_on,,,,,0,0,1,,,,0,,,68,18
308224,note_on,,,,,0,0,1,,,,0,,,71,35
308224,note_on,,,,,0,0,1,,,,0,,,51,15
308224,note_on,,,,,0,0,1,,,,0,,,56,15
308224,note_off,,,,,0,0,1,,,,0,,,49,0
308224,control_change,,,,,0,0,1,,,,0,64,0,,
308224,control_change,,,,,0,0,1,,,,0,64,0,,
308224,control_change,,,,,0,0,1,,,,0,64,0,,
308224,control_change,,,,,0,0,1,,,,0,64,127,,
308224,control_change,,,,,0,0,1,,,,0,64,0,,
308224,control_change,,,,,0,0,1,,,,0,64,0,,
308224,control_change,,,,,0,0,1,,,,0,64,127,,
308224,control_change,,,,,0,0,1,,,,0,64,0,,
308224,control_change,,,,,0,0,1,,,,0,64,0,,
308224,control_change,,,,,256,0,1,,,,0,64,0,,
308224,control_change,,,,,0,0,1,,,,0,64,0,,
308224,control_change,,,,,0,0,1,,,,0,64,127,,
308224,control_change,,,,,0,0,1,,,,0,64,0,,
308224,control_change,,,,,0,0,1,,,,0,64,0,,
308224,control_change,,,,,0,0,1,,,,0,64,0,,
308224,control_change,,,,,0,0,1,,,,0,64,0,,
308224,control_change,,,,,0,0,1,,,,0,64,0,,
308525,control_change,,,,,0,0,1,,,,0,64,0,,
308525,control_change,,,,,0,0,1,,,,0,64,0,,
308525,control_change,,,,,301,0,1,,,,0,64,0,,
308525,control_change,,,,,0,0,1,,,,0,64,0,,
309188,control_change,,,,,663,0,1,,,,0,64,127,,
309188,control_change,,,,,0,0,1,,,,0,64,127,,
309188,control_change,,,,,0,0,1,,,,0,64,127,,
309188,control_change,,,,,0,0,1,,,,0,64,127,,
310272,note_on,,,,,0,0,1,,,,0,,,70,18
310272,note_on,,,,,0,0,1,,,,0,,,58,12
310272,note_on,,,,,0,0,1,,,,0,,,55,12
310272,note_on,,,,,0,0,1,,,,0,,,51,12
310272,note_on,,,,,0,0,1,,,,0,,,67,11
310272,note_off,,,,,1084,0,1,,,,0,,,63,0
310272,note_off,,,,,0,0,1,,,,0,,,59,0
310272,note_off,,,,,0,0,1,,,,0,,,56,0
310272,note_off,,,,,0,0,1,,,,0,,,51,0
310272,note_off,,,,,0,0,1,,,,0,,,71,0
310272,note_off,,,,,0,0,1,,,,0,,,68,0
310272,set_tempo,,,,,3072,1,0,,461538,,,,,,
310272,note_on,,,,,0,0,1,,,,0,,,63,11
310312,control_change,,,,,40,0,1,,,,0,64,0,,
310908,control_change,,,,,596,0,1,,,,0,64,127,,
312320,note_off,,,,,1412,0,1,,,,0,,,63,0
312320,note_off,,,,,0,0,1,,,,0,,,67,0
312320,note_off,,,,,0,0,1,,,,0,,,70,0
312320,note_off,,,,,0,0,1,,,,0,,,51,0
312320,note_off,,,,,0,0,1,,,,0,,,55,0
312320,note_off,,,,,0,0,1,,,,0,,,58,0
312320,note_on,,,,,0,0,1,,,,0,,,63,14
312320,note_on,,,,,0,0,1,,,,0,,,51,14
312320,note_on,,,,,0,0,1,,,,0,,,75,33
312320,note_on,,,,,0,0,1,,,,0,,,63,26
312320,note_on,,,,,0,0,1,,,,0,,,67,14
312320,note_on,,,,,0,0,1,,,,0,,,55,14
312380,control_change,,,,,60,0,1,,,,0,64,0,,
312380,control_change,,,,,0,0,1,,,,0,64,0,,
312380,control_change,,,,,0,0,1,,,,0,64,0,,
312380,control_change,,,,,0,0,1,,,,0,64,0,,
312922,control_change,,,,,542,0,1,,,,0,64,127,,
312922,control_change,,,,,0,0,1,,,,0,64,127,,
312922,control_change,,,,,0,0,1,,,,0,64,127,,
312922,control_change,,,,,0,0,1,,,,0,64,127,,
313344,note_on,,,,,0,0,1,,,,0,,,58,26
313344,note_on,,,,,0,0,1,,,,0,,,55,14
313344,note_on,,,,,0,0,1,,,,0,,,51,14
313344,note_on,,,,,0,0,1,,,,0,,,70,33
313344,note_on,,,,,0,0,1,,,,0,,,67,14
313344,note_off,,,,,0,0,1,,,,0,,,55,0
313344,note_off,,,,,0,0,1,,,,0,,,63,0
313344,note_off,,,,,0,0,1,,,,0,,,51,0
313344,set_tempo,,,,,3072,1,0,,428571,,,,,,
313344,note_off,,,,,0,0,1,,,,0,,,67,0
313344,note_off,,,,,422,0,1,,,,0,,,63,0
313344,note_on,,,,,0,0,1,,,,0,,,63,14
313344,note_off,,,,,0,0,1,,,,0,,,75,0
313600,control_change,,,,,256,0,1,,,,0,64,0,,
313600,control_change,,,,,0,0,1,,,,0,64,0,,
313600,control_change,,,,,0,0,1,,,,0,64,0,,
314112,control_change,,,,,0,0,1,,,,0,64,127,,
314112,control_change,,,,,512,0,1,,,,0,64,127,,
314112,control_change,,,,,0,0,1,,,,0,64,127,,
314368,control_change,,,,,256,0,1,,,,0,64,0,,
314368,note_on,,,,,0,0,1,,,,0,,,58,26
314368,note_on,,,,,0,0,1,,,,0,,,51,14
314368,note_on,,,,,0,0,1,,,,0,,,70,33
314368,note_on,,,,,0,0,1,,,,0,,,67,14
314368,note_on,,,,,0,0,1,,,,0,,,63,14
314368,note_off,,,,,0,0,1,,,,0,,,58,0
314368,note_off,,,,,0,0,1,,,,0,,,51,0
314368,note_off,,,,,0,0,1,,,,0,,,55,0
314368,note_off,,,,,0,0,1,,,,0,,,67,0
314368,note_off,,,,,0,0,1,,,,0,,,63,0
314368,control_change,,,,,0,0,1,,,,0,64,0,,
314368,control_change,,,,,0,0,1,,,,0,64,0,,
314368,control_change,,,,,0,0,1,,,,0,64,0,,
314368,control_change,,,,,0,0,1,,,,0,64,127,,
314368,control_change,,,,,0,0,1,,,,0,64,0,,
314368,control_change,,,,,0,0,1,,,,0,64,127,,
314368,control_change,,,,,0,0,1,,,,0,64,0,,
314368,note_off,,,,,0,0,1,,,,0,,,70,0
314368,note_on,,,,,0,0,1,,,,0,,,55,14
314669,control_change,,,,,301,0,1,,,,0,64,0,,
314669,control_change,,,,,0,0,1,,,,0,64,0,,
315332,control_change,,,,,663,0,1,,,,0,64,127,,
315332,control_change,,,,,0,0,1,,,,0,64,127,,
316416,note_off,,,,,0,0,1,,,,0,,,58,0
316416,note_on,,,,,0,0,1,,,,0,,,67,13
316416,note_off,,,,,0,0,1,,,,0,,,51,0
316416,note_off,,,,,0,0,1,,,,0,,,70,0
316416,note_off,,,,,0,0,1,,,,0,,,67,0
316416,note_off,,,,,1084,0,1,,,,0,,,63,0
316416,note_off,,,,,0,0,1,,,,0,,,55,0
316416,note_on,,,,,0,0,1,,,,0,,,63,13
316416,note_on,,,,,0,0,1,,,,0,,,70,22
316416,note_on,,,,,0,0,1,,,,0,,,51,14
316416,note_on,,,,,0,0,1,,,,0,,,58,14
316416,note_on,,,,,0,0,1,,,,0,,,55,14
318464,note_off,,,,,2048,0,1,,,,0,,,63,0
318464,note_off,,,,,0,0,1,,,,0,,,67,0
318464,note_off,,,,,0,0,1,,,,0,,,70,0
318464,note_off,,,,,0,0,1,,,,0,,,51,0
318464,note_off,,,,,0,0,1,,,,0,,,55,0
318464,note_off,,,,,0,0,1,,,,0,,,58,0
318464,note_on,,,,,0,0,1,,,,0,,,66,33
318464,note_on,,,,,0,0,1,,,,0,,,70,24
318464,note_on,,,,,0,0,1,,,,0,,,54,33
318464,note_on,,,,,0,0,1,,,,0,,,58,19
318464,set_tempo,,,,,5120,1,0,,461538,,,,,,
318524,control_change,,,,,60,0,1,,,,0,64,0,,
318524,control_change,,,,,0,0,1,,,,0,64,0,,
319066,control_change,,,,,542,0,1,,,,0,64,127,,
319066,control_change,,,,,0,0,1,,,,0,64,127,,
319488,set_tempo,,,,,1024,1,0,,428571,,,,,,
319488,note_on,,,,,0,0,1,,,,0,,,58,19
319488,note_on,,,,,0,0,1,,,,0,,,54,19
319488,note_on,,,,,0,0,1,,,,0,,,66,19
319488,note_on,,,,,0,0,1,,,,0,,,70,24
319488,note_on,,,,,0,0,1,,,,0,,,49,29
319488,note_off,,,,,0,0,1,,,,0,,,70,0
319488,note_off,,,,,0,0,1,,,,0,,,54,0
319488,note_off,,,,,0,0,1,,,,0,,,58,0
319488,note_off,,,,,422,0,1,,,,0,,,66,0
319488,note_on,,,,,0,0,1,,,,0,,,61,33
319744,control_change,,,,,256,0,1,,,,0,64,0,,
320256,control_change,,,,,512,0,1,,,,0,64,127,,
320512,note_off,,,,,0,0,1,,,,0,,,54,0
320512,note_on,,,,,0,0,1,,,,0,,,54,19
320512,note_on,,,,,0,0,1,,,,0,,,49,29
320512,note_on,,,,,0,0,1,,,,0,,,70,24
320512,note_on,,,,,0,0,1,,,,0,,,66,19
320512,note_on,,,,,0,0,1,,,,0,,,61,33
320512,note_off,,,,,0,0,1,,,,0,,,58,0
320512,note_off,,,,,0,0,1,,,,0,,,49,0
320512,note_on,,,,,0,0,1,,,,0,,,58,19
320512,note_off,,,,,0,0,1,,,,0,,,66,0
320512,control_change,,,,,0,0,1,,,,0,64,127,,
320512,control_change,,,,,0,0,1,,,,0,64,0,,
320512,control_change,,,,,256,0,1,,,,0,64,0,,
320512,control_change,,,,,0,0,1,,,,0,64,127,,
320512,control_change,,,,,0,0,1,,,,0,64,0,,
320512,control_change,,,,,0,0,1,,,,0,64,0,,
320512,note_off,,,,,0,0,1,,,,0,,,70,0
320512,control_change,,,,,0,0,1,,,,0,64,127,,
320512,control_change,,,,,0,0,1,,,,0,64,0,,
320512,control_change,,,,,0,0,1,,,,0,64,0,,
320512,control_change,,,,,0,0,1,,,,0,64,0,,
320512,note_off,,,,,0,0,1,,,,0,,,61,0
320512,control_change,,,,,0,0,1,,,,0,64,0,,
320813,control_change,,,,,0,0,1,,,,0,64,0,,
320813,control_change,,,,,0,0,1,,,,0,64,0,,
320813,control_change,,,,,301,0,1,,,,0,64,0,,
321476,control_change,,,,,663,0,1,,,,0,64,127,,
321476,control_change,,,,,0,0,1,,,,0,64,127,,
321476,control_change,,,,,0,0,1,,,,0,64,127,,
322560,note_off,,,,,0,0,1,,,,0,,,70,0
322560,note_off,,,,,0,0,1,,,,0,,,49,0
322560,note_off,,,,,0,0,1,,,,0,,,66,0
322560,note_off,,,,,1084,0,1,,,,0,,,61,0
322560,note_on,,,,,0,0,1,,,,0,,,58,14
322560,note_off,,,,,0,0,1,,,,0,,,54,0
322560,note_on,,,,,0,0,1,,,,0,,,49,14
322560,note_on,,,,,0,0,1,,,,0,,,70,22
322560,note_on,,,,,0,0,1,,,,0,,,66,13
322560,note_on,,,,,0,0,1,,,,0,,,61,13
322560,note_off,,,,,0,0,1,,,,0,,,58,0
322560,note_on,,,,,0,0,1,,,,0,,,54,14
324608,note_on,,,,,0,0,1,,,,0,,,53,10
324608,note_on,,,,,0,0,1,,,,0,,,56,24
324608,note_on,,,,,0,0,1,,,,0,,,49,10
324608,note_off,,,,,0,0,1,,,,0,,,58,0
324608,note_on,,,,,0,0,1,,,,0,,,65,13
324608,note_on,,,,,0,0,1,,,,0,,,61,13
324608,note_off,,,,,2048,0,1,,,,0,,,61,0
324608,note_off,,,,,0,0,1,,,,0,,,66,0
324608,note_off,,,,,0,0,1,,,,0,,,54,0
324608,note_off,,,,,0,0,1,,,,0,,,70,0
324608,note_off,,,,,0,0,1,,,,0,,,49,0
324608,note_on,,,,,0,0,1,,,,0,,,68,28
324668,control_change,,,,,0,0,1,,,,0,64,0,,
324668,control_change,,,,,60,0,1,,,,0,64,0,,
324668,control_change,,,,,0,0,1,,,,0,64,0,,
325210,control_change,,,,,542,0,1,,,,0,64,127,,
325210,control_change,,,,,0,0,1,,,,0,64,127,,
325210,control_change,,,,,0,0,1,,,,0,64,127,,
325632,note_off,,,,,0,0,1,,,,0,,,65,0
325632,note_on,,,,,0,0,1,,,,0,,,56,26
325632,note_off,,,,,422,0,1,,,,0,,,61,0
325632,note_on,,,,,0,0,1,,,,0,,,53,12
325632,note_on,,,,,0,0,1,,,,0,,,68,35
325632,note_on,,,,,0,0,1,,,,0,,,65,16
325632,note_on,,,,,0,0,1,,,,0,,,61,16
325632,note_off,,,,,0,0,1,,,,0,,,53,0
325632,note_off,,,,,0,0,1,,,,0,,,49,0
325632,note_off,,,,,0,0,1,,,,0,,,68,0
325632,note_on,,,,,0,0,1,,,,0,,,49,12
325632,note_off,,,,,0,0,1,,,,0,,,56,0
325888,control_change,,,,,256,0,1,,,,0,64,0,,
326400,control_change,,,,,512,0,1,,,,0,64,127,,
326656,control_change,,,,,0,0,1,,,,0,64,0,,
326656,note_off,,,,,0,0,1,,,,0,,,49,0
326656,note_off,,,,,0,0,1,,,,0,,,56,0
326656,note_off,,,,,0,0,1,,,,0,,,53,0
326656,control_change,,,,,0,0,1,,,,0,64,0,,
326656,note_off,,,,,0,0,1,,,,0,,,68,0
326656,note_off,,,,,0,0,1,,,,0,,,65,0
326656,note_off,,,,,0,0,1,,,,0,,,61,0
326656,control_change,,,,,0,0,1,,,,0,64,0,,
326656,note_on,,,,,0,0,1,,,,0,,,71,38
326656,note_on,,,,,0,0,1,,,,0,,,49,17
326656,note_on,,,,,0,0,1,,,,0,,,56,17
326656,note_on,,,,,0,0,1,,,,0,,,59,31
326656,control_change,,,,,256,0,1,,,,0,64,0,,
326656,control_change,,,,,0,0,1,,,,0,64,0,,
326656,control_change,,,,,0,0,1,,,,0,64,127,,
326656,control_change,,,,,0,0,1,,,,0,64,0,,
326656,control_change,,,,,0,0,1,,,,0,64,127,,
326656,note_on,,,,,0,0,1,,,,0,,,61,14
326656,note_on,,,,,0,0,1,,,,0,,,68,14
326957,control_change,,,,,301,0,1,,,,0,64,0,,
326957,control_change,,,,,0,0,1,,,,0,64,0,,
327620,control_change,,,,,663,0,1,,,,0,64,127,,
327620,control_change,,,,,0,0,1,,,,0,64,127,,
328704,note_on,,,,,0,0,1,,,,0,,,71,31
328704,note_on,,,,,0,0,1,,,,0,,,49,17
328704,note_on,,,,,0,0,1,,,,0,,,56,17
328704,note_on,,,,,0,0,1,,,,0,,,59,17
328704,note_on,,,,,0,0,1,,,,0,,,61,12
328704,note_off,,,,,0,0,1,,,,0,,,59,0
328704,note_on,,,,,0,0,1,,,,0,,,68,12
328704,note_off,,,,,0,0,1,,,,0,,,56,0
328704,note_off,,,,,0,0,1,,,,0,,,68,0
328704,note_off,,,,,0,0,1,,,,0,,,71,0
328704,note_off,,,,,1084,0,1,,,,0,,,61,0
328704,note_off,,,,,0,0,1,,,,0,,,49,0
330752,note_on,,,,,0,0,1,,,,0,,,49,9
330752,note_on,,,,,0,0,1,,,,0,,,70,35
330752,note_on,,,,,0,0,1,,,,0,,,66,16
330752,note_on,,,,,0,0,1,,,,0,,,61,16
330752,note_off,,,,,0,0,1,,,,0,,,59,0
330752,note_off,,,,,0,0,1,,,,0,,,56,0
330752,note_off,,,,,0,0,1,,,,0,,,49,0
330752,note_off,,,,,0,0,1,,,,0,,,68,0
330752,note_off,,,,,2048,0,1,,,,0,,,61,0
330752,note_on,,,,,0,0,1,,,,0,,,54,9
330752,note_off,,,,,0,0,1,,,,0,,,71,0
330752,note_on,,,,,0,0,1,,,,0,,,58,23
330812,control_change,,,,,0,0,1,,,,0,64,0,,
330812,control_change,,,,,60,0,1,,,,0,64,0,,
331354,control_change,,,,,0,0,1,,,,0,64,127,,
331354,control_change,,,,,542,0,1,,,,0,64,127,,
331776,note_off,,,,,0,0,1,,,,0,,,49,0
331776,note_off,,,,,0,0,1,,,,0,,,58,0
331776,note_on,,,,,0,0,1,,,,0,,,54,13
331776,note_on,,,,,0,0,1,,,,0,,,58,27
331776,note_on,,,,,0,0,1,,,,0,,,61,20
331776,note_off,,,,,0,0,1,,,,0,,,54,0
331776,note_on,,,,,0,0,1,,,,0,,,49,13
331776,note_off,,,,,0,0,1,,,,0,,,70,0
331776,note_off,,,,,422,0,1,,,,0,,,61,0
331776,set_tempo,,,,,12288,1,0,,461538,,,,,,
331776,note_on,,,,,0,0,1,,,,0,,,70,43
331776,note_on,,,,,0,0,1,,,,0,,,66,20
331776,note_off,,,,,0,0,1,,,,0,,,66,0
332032,control_change,,,,,256,0,1,,,,0,64,0,,
332544,control_change,,,,,512,0,1,,,,0,64,127,,
332800,note_on,,,,,0,0,1,,,,0,,,58,16
332800,note_on,,,,,0,0,1,,,,0,,,49,16
332800,note_on,,,,,0,0,1,,,,0,,,73,48
332800,note_on,,,,,0,0,1,,,,0,,,70,28
332800,note_on,,,,,0,0,1,,,,0,,,61,23
332800,note_off,,,,,0,0,1,,,,0,,,58,0
332800,note_off,,,,,0,0,1,,,,0,,,54,0
332800,note_off,,,,,0,0,1,,,,0,,,49,0
332800,note_off,,,,,0,0,1,,,,0,,,61,0
332800,note_off,,,,,0,0,1,,,,0,,,66,0
332800,note_on,,,,,0,0,1,,,,0,,,61,38
332800,control_change,,,,,0,0,1,,,,0,64,0,,
332800,control_change,,,,,0,0,1,,,,0,64,0,,
332800,control_change,,,,,0,0,1,,,,0,64,0,,
332800,control_change,,,,,0,0,1,,,,0,64,0,,
332800,control_change,,,,,0,0,1,,,,0,64,127,,
332800,control_change,,,,,256,0,1,,,,0,64,0,,
332800,set_tempo,,,,,1024,1,0,,461538,,,,,,
332800,note_off,,,,,0,0,1,,,,0,,,70,0
333101,control_change,,,,,301,0,1,,,,0,64,0,,
333764,control_change,,,,,663,0,1,,,,0,64,127,,
334848,note_off,,,,,1084,0,1,,,,0,,,61,0
334848,set_tempo,,,,,2048,1,0,,428571,,,,,,
334848,note_on,,,,,0,0,1,,,,0,,,59,29
334848,note_on,,,,,0,0,1,,,,0,,,56,14
334848,note_on,,,,,0,0,1,,,,0,,,71,40
334848,note_on,,,,,0,0,1,,,,0,,,68,24
334848,note_on,,,,,0,0,1,,,,0,,,49,14
334848,note_off,,,,,0,0,1,,,,0,,,61,0
334848,note_off,,,,,0,0,1,,,,0,,,58,0
334848,note_off,,,,,0,0,1,,,,0,,,49,0
334848,note_off,,,,,0,0,1,,,,0,,,73,0
334848,note_off,,,,,0,0,1,,,,0,,,70,0
334848,note_on,,,,,0,0,1,,,,0,,,61,19
334888,control_change,,,,,40,0,1,,,,0,64,0,,
335484,control_change,,,,,596,0,1,,,,0,64,127,,
335872,note_on,,,,,0,0,1,,,,0,,,61,17
335872,note_on,,,,,0,0,1,,,,0,,,70,38
335872,note_on,,,,,0,0,1,,,,0,,,66,22
335872,note_off,,,,,0,0,1,,,,0,,,59,0
335872,note_on,,,,,0,0,1,,,,0,,,54,13
335872,note_off,,,,,0,0,1,,,,0,,,49,0
335872,note_off,,,,,0,0,1,,,,0,,,71,0
335872,note_off,,,,,0,0,1,,,,0,,,68,0
335872,note_off,,,,,388,0,1,,,,0,,,61,0
335872,note_off,,,,,0,0,1,,,,0,,,56,0
335872,note_on,,,,,0,0,1,,,,0,,,58,28
335872,note_on,,,,,0,0,1,,,,0,,,49,13
336060,control_change,,,,,188,0,1,,,,0,64,0,,
336374,control_change,,,,,314,0,1,,,,0,64,127,,
336896,note_off,,,,,0,0,1,,,,0,,,66,0
336896,note_off,,,,,522,0,1,,,,0,,,61,0
336896,note_on,,,,,0,0,1,,,,0,,,56,12
336896,note_on,,,,,0,0,1,,,,0,,,49,12
336896,note_on,,,,,0,0,1,,,,0,,,71,35
336896,note_on,,,,,0,0,1,,,,0,,,68,20
336896,note_on,,,,,0,0,1,,,,0,,,59,26
336896,note_on,,,,,0,0,1,,,,0,,,61,15
336896,note_off,,,,,0,0,1,,,,0,,,58,0
336896,note_off,,,,,0,0,1,,,,0,,,54,0
336896,note_off,,,,,0,0,1,,,,0,,,49,0
336896,note_on,,,,,0,0,1,,,,0,,,65,20
336896,note_off,,,,,0,0,1,,,,0,,,70,0
336956,control_change,,,,,60,0,1,,,,0,64,0,,
337498,control_change,,,,,542,0,1,,,,0,64,127,,
337878,control_change,,,,,380,0,1,,,,0,64,127,,
338944,note_off,,,,,0,0,1,,,,0,,,68,0
338944,note_on,,,,,0,0,1,,,,0,,,54,12
338944,note_on,,,,,0,0,1,,,,0,,,70,30
338944,note_on,,,,,0,0,1,,,,0,,,66,14
338944,note_on,,,,,0,0,1,,,,0,,,61,14
338944,note_off,,,,,0,0,1,,,,0,,,59,0
338944,note_off,,,,,0,0,1,,,,0,,,56,0
338944,note_off,,,,,0,0,1,,,,0,,,49,0
338944,note_on,,,,,0,0,1,,,,0,,,58,18
338944,note_off,,,,,0,0,1,,,,0,,,65,0
338944,control_change,,,,,0,0,1,,,,0,64,0,,
338944,note_off,,,,,0,0,1,,,,0,,,61,0
338944,control_change,,,,,1066,0,1,,,,0,64,0,,
338944,control_change,,,,,0,0,1,,,,0,64,127,,
338944,control_change,,,,,0,0,1,,,,0,64,0,,
338944,note_off,,,,,0,0,1,,,,0,,,71,0
338944,control_change,,,,,0,0,1,,,,0,64,0,,
338944,control_change,,,,,0,0,1,,,,0,64,0,,
338944,control_change,,,,,0,0,1,,,,0,64,0,,
338944,control_change,,,,,0,0,1,,,,0,64,127,,
339245,control_change,,,,,301,0,1,,,,0,64,0,,
339245,control_change,,,,,0,0,1,,,,0,64,0,,
339908,control_change,,,,,663,0,1,,,,0,64,127,,
339908,control_change,,,,,0,0,1,,,,0,64,127,,
340992,set_tempo,,,,,6144,1,0,,500000,,,,,,
340992,note_on,,,,,0,0,1,,,,0,,,58,15
340992,note_on,,,,,0,0,1,,,,0,,,54,9
340992,note_on,,,,,0,0,1,,,,0,,,70,22
340992,note_off,,,,,0,0,1,,,,0,,,54,0
340992,note_on,,,,,0,0,1,,,,0,,,61,13
340992,note_off,,,,,0,0,1,,,,0,,,58,0
340992,note_off,,,,,0,0,1,,,,0,,,70,0
340992,note_off,,,,,0,0,1,,,,0,,,66,0
340992,note_on,,,,,0,0,1,,,,0,,,66,13
340992,note_off,,,,,1084,0,1,,,,0,,,61,0
343040,set_tempo,,,,,2048,1,0,,461538,,,,,,
343040,note_off,,,,,0,0,1,,,,0,,,54,0
343040,note_off,,,,,2048,0,1,,,,0,,,61,0
343040,note_on,,,,,0,0,1,,,,0,,,54,15
343040,note_on,,,,,0,0,1,,,,0,,,51,15
343040,note_on,,,,,0,0,1,,,,0,,,70,25
343040,note_on,,,,,0,0,1,,,,0,,,66,12
343040,note_on,,,,,0,0,1,,,,0,,,58,15
343040,note_off,,,,,0,0,1,,,,0,,,58,0
343040,note_off,,,,,0,0,1,,,,0,,,70,0
343040,note_off,,,,,0,0,1,,,,0,,,66,0
343040,note_on,,,,,0,0,1,,,,0,,,63,12
343100,control_change,,,,,60,0,1,,,,0,64,0,,
343100,control_change,,,,,0,0,1,,,,0,64,0,,
343642,control_change,,,,,542,0,1,,,,0,64,127,,
343642,control_change,,,,,0,0,1,,,,0,64,127,,
344064,note_on,,,,,0,0,1,,,,0,,,70,25
344064,set_tempo,,,,,1024,1,0,,428571,,,,,,
344064,note_on,,,,,0,0,1,,,,0,,,58,15
344064,note_on,,,,,0,0,1,,,,0,,,54,15
344064,note_on,,,,,0,0,1,,,,0,,,51,15
344064,note_on,,,,,0,0,1,,,,0,,,66,12
344064,note_on,,,,,0,0,1,,,,0,,,63,12
344064,note_off,,,,,0,0,1,,,,0,,,58,0
344064,note_off,,,,,0,0,1,,,,0,,,54,0
344064,note_off,,,,,0,0,1,,,,0,,,51,0
344064,note_off,,,,,0,0,1,,,,0,,,70,0
344064,note_off,,,,,0,0,1,,,,0,,,66,0
344064,note_off,,,,,422,0,1,,,,0,,,63,0
344320,control_change,,,,,256,0,1,,,,0,64,0,,
344832,control_change,,,,,512,0,1,,,,0,64,127,,
345088,note_off,,,,,0,0,1,,,,0,,,66,0
345088,note_off,,,,,0,0,1,,,,0,,,70,0
345088,note_off,,,,,0,0,1,,,,0,,,51,0
345088,note_off,,,,,0,0,1,,,,0,,,54,0
345088,note_off,,,,,0,0,1,,,,0,,,58,0
345088,note_on,,,,,0,0,1,,,,0,,,51,15
345088,note_on,,,,,0,0,1,,,,0,,,66,18
345088,note_on,,,,,0,0,1,,,,0,,,70,27
345088,note_off,,,,,0,0,1,,,,0,,,63,0
345088,note_on,,,,,0,0,1,,,,0,,,54,15
345088,note_on,,,,,0,0,1,,,,0,,,58,15
345088,note_on,,,,,0,0,1,,,,0,,,63,18
345088,control_change,,,,,0,0,1,,,,0,64,0,,
345088,control_change,,,,,0,0,1,,,,0,64,0,,
345088,control_change,,,,,0,0,1,,,,0,64,0,,
345088,control_change,,,,,256,0,1,,,,0,64,0,,
345088,control_change,,,,,0,0,1,,,,0,64,127,,
345088,control_change,,,,,0,0,1,,,,0,64,0,,
345088,control_change,,,,,0,0,1,,,,0,64,0,,
345088,control_change,,,,,0,0,1,,,,0,64,127,,
345088,control_change,,,,,0,0,1,,,,0,64,0,,
345088,control_change,,,,,0,0,1,,,,0,64,0,,
345088,control_change,,,,,0,0,1,,,,0,64,0,,
345088,control_change,,,,,0,0,1,,,,0,64,127,,
345088,control_change,,,,,0,0,1,,,,0,64,0,,
345088,control_change,,,,,0,0,1,,,,0,64,0,,
345088,control_change,,,,,0,0,1,,,,0,64,127,,
345088,control_change,,,,,0,0,1,,,,0,64,0,,
345389,control_change,,,,,0,0,1,,,,0,64,0,,
345389,control_change,,,,,0,0,1,,,,0,64,0,,
345389,control_change,,,,,0,0,1,,,,0,64,0,,
345389,control_change,,,,,301,0,1,,,,0,64,0,,
346052,control_change,,,,,663,0,1,,,,0,64,127,,
346052,control_change,,,,,0,0,1,,,,0,64,127,,
346052,control_change,,,,,0,0,1,,,,0,64,127,,
346052,control_change,,,,,0,0,1,,,,0,64,127,,
347136,note_off,,,,,1084,0,1,,,,0,,,63,0
347136,note_on,,,,,0,0,1,,,,0,,,58,9
347136,note_on,,,,,0,0,1,,,,0,,,54,9
347136,note_on,,,,,0,0,1,,,,0,,,51,9
347136,note_on,,,,,0,0,1,,,,0,,,70,14
347136,note_on,,,,,0,0,1,,,,0,,,66,8
347136,note_on,,,,,0,0,1,,,,0,,,63,8
347136,note_off,,,,,0,0,1,,,,0,,,58,0
347136,note_off,,,,,0,0,1,,,,0,,,54,0
347136,note_off,,,,,0,0,1,,,,0,,,51,0
347136,note_off,,,,,0,0,1,,,,0,,,66,0
347136,note_off,,,,,0,0,1,,,,0,,,70,0
347176,control_change,,,,,40,0,1,,,,0,64,0,,
347772,control_change,,,,,596,0,1,,,,0,64,127,,
349184,note_off,,,,,0,0,1,,,,0,,,51,0
349184,note_off,,,,,0,0,1,,,,0,,,54,0
349184,note_off,,,,,0,0,1,,,,0,,,58,0
349184,note_on,,,,,0,0,1,,,,0,,,63,14
349184,note_on,,,,,0,0,1,,,,0,,,66,14
349184,note_on,,,,,0,0,1,,,,0,,,51,15
349184,note_on,,,,,0,0,1,,,,0,,,54,15
349184,note_on,,,,,0,0,1,,,,0,,,58,15
349184,note_off,,,,,0,0,1,,,,0,,,70,0
349184,note_off,,,,,0,0,1,,,,0,,,66,0
349184,note_on,,,,,0,0,1,,,,0,,,71,27
349184,note_off,,,,,1412,0,1,,,,0,,,63,0
349184,set_tempo,,,,,5120,1,0,,461538,,,,,,
349244,control_change,,,,,0,0,1,,,,0,64,0,,
349244,control_change,,,,,0,0,1,,,,0,64,0,,
349244,control_change,,,,,0,0,1,,,,0,64,0,,
349244,control_change,,,,,60,0,1,,,,0,64,0,,
349786,control_change,,,,,0,0,1,,,,0,64,127,,
349786,control_change,,,,,0,0,1,,,,0,64,127,,
349786,control_change,,,,,542,0,1,,,,0,64,127,,
349786,control_change,,,,,0,0,1,,,,0,64,127,,
350208,note_off,,,,,0,0,1,,,,0,,,51,0
350208,note_off,,,,,0,0,1,,,,0,,,58,0
350208,note_on,,,,,0,0,1,,,,0,,,63,12
350208,note_on,,,,,0,0,1,,,,0,,,66,12
350208,note_on,,,,,0,0,1,,,,0,,,70,25
350208,note_on,,,,,0,0,1,,,,0,,,46,15
350208,note_on,,,,,0,0,1,,,,0,,,54,15
350208,note_on,,,,,0,0,1,,,,0,,,58,15
350208,note_off,,,,,0,0,1,,,,0,,,54,0
350208,note_off,,,,,0,0,1,,,,0,,,66,0
350208,note_off,,,,,0,0,1,,,,0,,,71,0
350208,set_tempo,,,,,1024,1,0,,428571,,,,,,
350208,note_off,,,,,422,0,1,,,,0,,,63,0
350464,control_change,,,,,256,0,1,,,,0,64,0,,
350464,control_change,,,,,0,0,1,,,,0,64,0,,
350464,control_change,,,,,0,0,1,,,,0,64,0,,
350976,control_change,,,,,512,0,1,,,,0,64,127,,
350976,control_change,,,,,0,0,1,,,,0,64,127,,
350976,control_change,,,,,0,0,1,,,,0,64,127,,
351232,note_off,,,,,0,0,1,,,,0,,,70,0
351232,note_off,,,,,0,0,1,,,,0,,,66,0
351232,note_off,,,,,0,0,1,,,,0,,,63,0
351232,control_change,,,,,0,0,1,,,,0,64,0,,
351232,note_off,,,,,0,0,1,,,,0,,,46,0
351232,control_change,,,,,0,0,1,,,,0,64,0,,
351232,note_on,,,,,0,0,1,,,,0,,,53,15
351232,note_on,,,,,0,0,1,,,,0,,,46,15
351232,note_on,,,,,0,0,1,,,,0,,,70,27
351232,note_on,,,,,0,0,1,,,,0,,,65,18
351232,note_off,,,,,0,0,1,,,,0,,,58,0
351232,note_off,,,,,0,0,1,,,,0,,,54,0
351232,note_on,,,,,0,0,1,,,,0,,,58,15
351232,control_change,,,,,0,0,1,,,,0,64,0,,
351232,note_on,,,,,0,0,1,,,,0,,,62,18
351232,control_change,,,,,0,0,1,,,,0,64,0,,
351232,control_change,,,,,0,0,1,,,,0,64,127,,
351232,control_change,,,,,0,0,1,,,,0,64,0,,
351232,control_change,,,,,0,0,1,,,,0,64,127,,
351232,control_change,,,,,256,0,1,,,,0,64,0,,
351232,control_change,,,,,0,0,1,,,,0,64,0,,
351533,control_change,,,,,0,0,1,,,,0,64,0,,
351533,control_change,,,,,301,0,1,,,,0,64,0,,
352196,control_change,,,,,0,0,1,,,,0,64,127,,
352196,control_change,,,,,663,0,1,,,,0,64,127,,
353280,note_off,,,,,0,0,1,,,,0,,,53,0
353280,note_off,,,,,0,0,1,,,,0,,,58,0
353280,note_on,,,,,0,0,1,,,,0,,,70,12
353280,note_on,,,,,0,0,1,,,,0,,,65,7
353280,note_off,,,,,0,0,1,,,,0,,,46,0
353280,note_on,,,,,0,0,1,,,,0,,,46,9
353280,note_on,,,,,0,0,1,,,,0,,,53,9
353280,note_on,,,,,0,0,1,,,,0,,,58,9
353280,note_on,,,,,0,0,1,,,,0,,,62,7
353280,note_off,,,,,0,0,1,,,,0,,,70,0
353280,note_off,,,,,1084,0,1,,,,0,,,62,0
353280,note_off,,,,,0,0,1,,,,0,,,65,0
355328,note_off,,,,,0,0,1,,,,0,,,58,0
355328,set_tempo,,,,,5120,1,0,,500000,,,,,,
355328,note_on,,,,,0,0,1,,,,0,,,66,9
355328,note_on,,,,,0,0,1,,,,0,,,75,29
355328,note_on,,,,,0,0,1,,,,0,,,54,12
355328,note_on,,,,,0,0,1,,,,0,,,58,12
355328,note_off,,,,,2048,0,1,,,,0,,,62,0
355328,note_off,,,,,0,0,1,,,,0,,,65,0
355328,note_off,,,,,0,0,1,,,,0,,,70,0
355328,note_off,,,,,0,0,1,,,,0,,,46,0
355328,note_off,,,,,0,0,1,,,,0,,,53,0
355328,note_on,,,,,0,0,1,,,,0,,,63,9
355388,control_change,,,,,60,0,1,,,,0,64,0,,
355388,control_change,,,,,0,0,1,,,,0,64,0,,
355930,control_change,,,,,542,0,1,,,,0,64,127,,
355930,control_change,,,,,0,0,1,,,,0,64,127,,
356352,note_on,,,,,0,0,1,,,,0,,,51,12
356352,note_on,,,,,0,0,1,,,,0,,,58,12
356352,note_on,,,,,0,0,1,,,,0,,,54,12
356352,note_on,,,,,0,0,1,,,,0,,,70,27
356352,note_on,,,,,0,0,1,,,,0,,,66,9
356352,note_on,,,,,0,0,1,,,,0,,,63,9
356352,note_off,,,,,0,0,1,,,,0,,,58,0
356352,note_off,,,,,0,0,1,,,,0,,,75,0
356352,note_off,,,,,0,0,1,,,,0,,,54,0
356352,note_off,,,,,422,0,1,,,,0,,,63,0
356352,set_tempo,,,,,1024,1,0,,461538,,,,,,
356352,note_off,,,,,0,0,1,,,,0,,,66,0
356608,control_change,,,,,256,0,1,,,,0,64,0,,
357120,control_change,,,,,512,0,1,,,,0,64,127,,
357376,note_off,,,,,0,0,1,,,,0,,,66,0
357376,note_off,,,,,0,0,1,,,,0,,,63,0
357376,control_change,,,,,0,0,1,,,,0,64,0,,
357376,note_off,,,,,0,0,1,,,,0,,,70,0
357376,control_change,,,,,0,0,1,,,,0,64,0,,
357376,control_change,,,,,0,0,1,,,,0,64,0,,
357376,note_off,,,,,0,0,1,,,,0,,,51,0
357376,set_tempo,,,,,1024,1,0,,428571,,,,,,
357376,note_off,,,,,0,0,1,,,,0,,,58,0
357376,control_change,,,,,0,0,1,,,,0,64,0,,
357376,note_on,,,,,0,0,1,,,,0,,,63,9
357376,note_on,,,,,0,0,1,,,,0,,,66,9
357376,note_on,,,,,0,0,1,,,,0,,,70,27
357376,note_on,,,,,0,0,1,,,,0,,,51,12
357376,note_on,,,,,0,0,1,,,,0,,,54,12
357376,note_on,,,,,0,0,1,,,,0,,,58,12
357376,note_off,,,,,0,0,1,,,,0,,,54,0
357376,control_change,,,,,0,0,1,,,,0,64,127,,
357376,control_change,,,,,0,0,1,,,,0,64,127,,
357376,control_change,,,,,0,0,1,,,,0,64,0,,
357376,control_change,,,,,256,0,1,,,,0,64,0,,
357376,control_change,,,,,0,0,1,,,,0,64,0,,
357376,control_change,,,,,0,0,1,,,,0,64,0,,
357376,control_change,,,,,0,0,1,,,,0,64,0,,
357376,control_change,,,,,0,0,1,,,,0,64,127,,
357376,control_change,,,,,0,0,1,,,,0,64,0,,
357376,control_change,,,,,0,0,1,,,,0,64,0,,
357376,control_change,,,,,0,0,1,,,,0,64,0,,
357376,control_change,,,,,0,0,1,,,,0,64,127,,
357376,control_change,,,,,0,0,1,,,,0,64,0,,
357677,control_change,,,,,0,0,1,,,,0,64,0,,
357677,control_change,,,,,0,0,1,,,,0,64,0,,
357677,control_change,,,,,301,0,1,,,,0,64,0,,
357677,control_change,,,,,0,0,1,,,,0,64,0,,
358340,control_change,,,,,663,0,1,,,,0,64,127,,
358340,control_change,,,,,0,0,1,,,,0,64,127,,
358340,control_change,,,,,0,0,1,,,,0,64,127,,
358340,control_change,,,,,0,0,1,,,,0,64,127,,
359424,note_on,,,,,0,0,1,,,,0,,,70,13
359424,note_on,,,,,0,0,1,,,,0,,,58,9
359424,note_on,,,,,0,0,1,,,,0,,,54,9
359424,note_on,,,,,0,0,1,,,,0,,,51,9
359424,note_off,,,,,1084,0,1,,,,0,,,63,0
359424,note_off,,,,,0,0,1,,,,0,,,66,0
359424,note_off,,,,,0,0,1,,,,0,,,70,0
359424,note_off,,,,,0,0,1,,,,0,,,51,0
359424,note_off,,,,,0,0,1,,,,0,,,54,0
359424,note_off,,,,,0,0,1,,,,0,,,58,0
359424,note_on,,,,,0,0,1,,,,0,,,63,4
359424,note_on,,,,,0,0,1,,,,0,,,66,4
359464,control_change,,,,,40,0,1,,,,0,64,0,,
360060,control_change,,,,,596,0,1,,,,0,64,127,,
361472,note_off,,,,,0,0,1,,,,0,,,51,0
361472,note_off,,,,,0,0,1,,,,0,,,54,0
361472,note_off,,,,,0,0,1,,,,0,,,58,0
361472,note_on,,,,,0,0,1,,,,0,,,63,9
361472,note_on,,,,,0,0,1,,,,0,,,66,9
361472,note_off,,,,,0,0,1,,,,0,,,70,0
361472,note_on,,,,,0,0,1,,,,0,,,54,12
361472,note_off,,,,,0,0,1,,,,0,,,66,0
361472,note_on,,,,,0,0,1,,,,0,,,71,27
361472,set_tempo,,,,,4096,1,0,,461538,,,,,,
361472,note_on,,,,,0,0,1,,,,0,,,58,12
361472,note_off,,,,,1412,0,1,,,,0,,,63,0
361472,note_on,,,,,0,0,1,,,,0,,,51,12
361532,control_change,,,,,0,0,1,,,,0,64,0,,
361532,control_change,,,,,0,0,1,,,,0,64,0,,
361532,control_change,,,,,0,0,1,,,,0,64,0,,
361532,control_change,,,,,60,0,1,,,,0,64,0,,
362074,control_change,,,,,542,0,1,,,,0,64,127,,
362074,control_change,,,,,0,0,1,,,,0,64,127,,
362074,control_change,,,,,0,0,1,,,,0,64,127,,
362074,control_change,,,,,0,0,1,,,,0,64,127,,
362496,note_on,,,,,0,0,1,,,,0,,,70,27
362496,note_on,,,,,0,0,1,,,,0,,,66,9
362496,note_on,,,,,0,0,1,,,,0,,,46,12
362496,note_on,,,,,0,0,1,,,,0,,,54,12
362496,note_on,,,,,0,0,1,,,,0,,,58,12
362496,note_on,,,,,0,0,1,,,,0,,,63,9
362496,note_off,,,,,0,0,1,,,,0,,,58,0
362496,note_off,,,,,0,0,1,,,,0,,,54,0
362496,note_off,,,,,0,0,1,,,,0,,,51,0
362496,note_off,,,,,0,0,1,,,,0,,,71,0
362496,note_off,,,,,0,0,1,,,,0,,,66,0
362496,note_off,,,,,422,0,1,,,,0,,,63,0
362752,control_change,,,,,0,0,1,,,,0,64,0,,
362752,control_change,,,,,256,0,1,,,,0,64,0,,
362752,control_change,,,,,0,0,1,,,,0,64,0,,
363264,control_change,,,,,512,0,1,,,,0,64,127,,
363264,control_change,,,,,0,0,1,,,,0,64,127,,
363264,control_change,,,,,0,0,1,,,,0,64,127,,
363520,note_on,,,,,0,0,1,,,,0,,,53,12
363520,note_on,,,,,0,0,1,,,,0,,,58,12
363520,note_on,,,,,0,0,1,,,,0,,,70,27
363520,control_change,,,,,0,0,1,,,,0,64,0,,
363520,note_on,,,,,0,0,1,,,,0,,,65,9
363520,note_on,,,,,0,0,1,,,,0,,,62,9
363520,note_off,,,,,0,0,1,,,,0,,,54,0
363520,note_off,,,,,0,0,1,,,,0,,,46,0
363520,note_off,,,,,0,0,1,,,,0,,,70,0
363520,note_off,,,,,0,0,1,,,,0,,,66,0
363520,note_off,,,,,0,0,1,,,,0,,,63,0
363520,note_on,,,,,0,0,1,,,,0,,,46,12
363520,control_change,,,,,0,0,1,,,,0,64,0,,
363520,note_off,,,,,0,0,1,,,,0,,,58,0
363520,control_change,,,,,0,0,1,,,,0,64,0,,
363520,control_change,,,,,0,0,1,,,,0,64,0,,
363520,control_change,,,,,0,0,1,,,,0,64,0,,
363520,control_change,,,,,0,0,1,,,,0,64,127,,
363520,control_change,,,,,0,0,1,,,,0,64,0,,
363520,control_change,,,,,0,0,1,,,,0,64,127,,
363520,control_change,,,,,256,0,1,,,,0,64,0,,
363520,set_tempo,,,,,2048,1,0,,428571,,,,,,
363520,control_change,,,,,0,0,1,,,,0,64,0,,
363821,control_change,,,,,301,0,1,,,,0,64,0,,
363821,control_change,,,,,0,0,1,,,,0,64,0,,
364484,control_change,,,,,0,0,1,,,,0,64,127,,
364484,control_change,,,,,663,0,1,,,,0,64,127,,
365568,note_on,,,,,0,0,1,,,,0,,,62,9
365568,note_on,,,,,0,0,1,,,,0,,,65,9
365568,note_on,,,,,0,0,1,,,,0,,,46,9
365568,note_on,,,,,0,0,1,,,,0,,,53,9
365568,note_off,,,,,0,0,1,,,,0,,,58,0
365568,note_on,,,,,0,0,1,,,,0,,,70,12
365568,note_on,,,,,0,0,1,,,,0,,,58,9
365568,note_off,,,,,0,0,1,,,,0,,,53,0
365568,note_off,,,,,0,0,1,,,,0,,,65,0
365568,note_off,,,,,0,0,1,,,,0,,,70,0
365568,note_off,,,,,1084,0,1,,,,0,,,62,0
365568,note_off,,,,,0,0,1,,,,0,,,46,0
367616,note_on,,,,,0,0,1,,,,0,,,56,13
367616,note_on,,,,,0,0,1,,,,0,,,53,22
367616,note_on,,,,,0,0,1,,,,0,,,73,34
367616,note_on,,,,,0,0,1,,,,0,,,65,12
367616,note_on,,,,,0,0,1,,,,0,,,61,12
367616,note_off,,,,,0,0,1,,,,0,,,53,0
367616,note_off,,,,,0,0,1,,,,0,,,46,0
367616,note_off,,,,,0,0,1,,,,0,,,58,0
367616,note_off,,,,,0,0,1,,,,0,,,65,0
367616,note_off,,,,,2048,0,1,,,,0,,,62,0
367616,set_tempo,,,,,4096,1,0,,500000,,,,,,
367616,note_off,,,,,0,0,1,,,,0,,,70,0
367676,control_change,,,,,60,0,1,,,,0,64,0,,
367676,control_change,,,,,0,0,1,,,,0,64,0,,
368218,control_change,,,,,542,0,1,,,,0,64,127,,
368218,control_change,,,,,0,0,1,,,,0,64,127,,
368640,note_on,,,,,0,0,1,,,,0,,,61,11
368640,note_on,,,,,0,0,1,,,,0,,,49,22
368640,note_on,,,,,0,0,1,,,,0,,,53,22
368640,note_on,,,,,0,0,1,,,,0,,,56,13
368640,note_on,,,,,0,0,1,,,,0,,,65,11
368640,note_off,,,,,0,0,1,,,,0,,,56,0
368640,note_on,,,,,0,0,1,,,,0,,,68,34
368640,note_off,,,,,0,0,1,,,,0,,,73,0
368640,note_off,,,,,0,0,1,,,,0,,,65,0
368640,note_off,,,,,422,0,1,,,,0,,,61,0
368640,set_tempo,,,,,1024,1,0,,461538,,,,,,
368640,note_off,,,,,0,0,1,,,,0,,,53,0
368896,control_change,,,,,256,0,1,,,,0,64,0,,
369408,control_change,,,,,512,0,1,,,,0,64,127,,
369664,note_on,,,,,0,0,1,,,,0,,,56,13
369664,note_on,,,,,0,0,1,,,,0,,,53,13
369664,note_on,,,,,0,0,1,,,,0,,,49,22
369664,note_on,,,,,0,0,1,,,,0,,,68,34
369664,note_on,,,,,0,0,1,,,,0,,,65,10
369664,note_on,,,,,0,0,1,,,,0,,,61,10
369664,note_off,,,,,0,0,1,,,,0,,,56,0
369664,note_off,,,,,0,0,1,,,,0,,,53,0
369664,note_off,,,,,0,0,1,,,,0,,,49,0
369664,note_off,,,,,0,0,1,,,,0,,,68,0
369664,note_off,,,,,0,0,1,,,,0,,,61,0
369664,control_change,,,,,0,0,1,,,,0,64,0,,
369664,control_change,,,,,0,0,1,,,,0,64,0,,
369664,control_change,,,,,0,0,1,,,,0,64,127,,
369664,control_change,,,,,0,0,1,,,,0,64,0,,
369664,control_change,,,,,256,0,1,,,,0,64,0,,
369664,set_tempo,,,,,1024,1,0,,428571,,,,,,
369664,note_off,,,,,0,0,1,,,,0,,,65,0
369965,control_change,,,,,301,0,1,,,,0,64,0,,
370628,control_change,,,,,663,0,1,,,,0,64,127,,
371712,note_on,,,,,0,0,1,,,,0,,,56,12
371712,note_on,,,,,0,0,1,,,,0,,,65,10
371712,note_on,,,,,0,0,1,,,,0,,,53,12
371712,note_on,,,,,0,0,1,,,,0,,,49,12
371712,note_on,,,,,0,0,1,,,,0,,,68,23
371712,note_on,,,,,0,0,1,,,,0,,,61,10
371712,set_tempo,,,,,2048,1,0,,500000,,,,,,
371712,note_off,,,,,0,0,1,,,,0,,,53,0
371712,note_off,,,,,0,0,1,,,,0,,,49,0
371712,note_off,,,,,0,0,1,,,,0,,,68,0
371712,note_off,,,,,0,0,1,,,,0,,,65,0
371712,note_off,,,,,1084,0,1,,,,0,,,61,0
371712,note_off,,,,,0,0,1,,,,0,,,56,0
373760,note_on,,,,,0,0,1,,,,0,,,61,32
373760,note_on,,,,,0,0,1,,,,0,,,53,14
373760,note_on,,,,,0,0,1,,,,0,,,49,14
373760,note_on,,,,,0,0,1,,,,0,,,85,44
373760,note_on,,,,,0,0,1,,,,0,,,73,27
373760,note_off,,,,,0,0,1,,,,0,,,53,0
373760,note_off,,,,,0,0,1,,,,0,,,49,0
373760,note_off,,,,,0,0,1,,,,0,,,68,0
373760,note_off,,,,,0,0,1,,,,0,,,65,0
373760,note_off,,,,,2048,0,1,,,,0,,,61,0
373760,set_tempo,,,,,2048,1,0,,500000,,,,,,
373760,note_off,,,,,0,0,1,,,,0,,,56,0
373820,control_change,,,,,60,0,1,,,,0,64,0,,
374362,control_change,,,,,542,0,1,,,,0,64,127,,
374784,note_off,,,,,422,0,1,,,,0,,,73,0
374784,note_off,,,,,0,0,1,,,,0,,,85,0
374784,note_on,,,,,0,0,1,,,,0,,,68,22
374784,note_off,,,,,0,0,1,,,,0,,,49,0
374784,note_on,,,,,0,0,1,,,,0,,,80,38
374784,note_on,,,,,0,0,1,,,,0,,,49,14
374784,note_on,,,,,0,0,1,,,,0,,,53,14
374784,note_on,,,,,0,0,1,,,,0,,,56,26
374784,note_off,,,,,0,0,1,,,,0,,,61,0
374784,note_off,,,,,0,0,1,,,,0,,,53,0
374784,set_tempo,,,,,1024,1,0,,461538,,,,,,
375808,note_on,,,,,0,0,1,,,,0,,,49,14
375808,note_on,,,,,0,0,1,,,,0,,,56,29
375808,note_on,,,,,0,0,1,,,,0,,,53,14
375808,note_on,,,,,0,0,1,,,,0,,,80,38
375808,note_on,,,,,0,0,1,,,,0,,,68,22
375808,note_off,,,,,0,0,1,,,,0,,,56,0
375808,note_off,,,,,0,0,1,,,,0,,,53,0
375808,note_off,,,,,0,0,1,,,,0,,,80,0
375808,note_off,,,,,0,0,1,,,,0,,,68,0
375808,note_off,,,,,0,0,1,,,,0,,,49,0
375808,control_change,,,,,0,0,1,,,,0,64,0,,
375808,control_change,,,,,0,0,1,,,,0,64,127,,
375808,control_change,,,,,0,0,1,,,,0,64,0,,
375808,control_change,,,,,1024,0,1,,,,0,64,0,,
375808,set_tempo,,,,,1024,1,0,,428571,,,,,,
375808,control_change,,,,,0,0,1,,,,0,64,0,,
376109,control_change,,,,,301,0,1,,,,0,64,0,,
376772,control_change,,,,,663,0,1,,,,0,64,127,,
377856,note_on,,,,,0,0,1,,,,0,,,68,15
377856,note_on,,,,,0,0,1,,,,0,,,53,12
377856,note_on,,,,,0,0,1,,,,0,,,49,12
377856,note_on,,,,,0,0,1,,,,0,,,56,12
377856,note_on,,,,,0,0,1,,,,0,,,80,32
377856,note_off,,,,,0,0,1,,,,0,,,56,0
377856,note_off,,,,,0,0,1,,,,0,,,80,0
377856,note_off,,,,,0,0,1,,,,0,,,49,0
377856,note_off,,,,,1084,0,1,,,,0,,,68,0
377856,note_off,,,,,0,0,1,,,,0,,,53,0
379904,note_on,,,,,0,0,1,,,,0,,,49,14
379904,note_off,,,,,0,0,1,,,,0,,,56,0
379904,note_on,,,,,0,0,1,,,,0,,,54,14
379904,note_on,,,,,0,0,1,,,,0,,,58,32
379904,note_on,,,,,0,0,1,,,,0,,,82,41
379904,note_off,,,,,0,0,1,,,,0,,,53,0
379904,note_on,,,,,0,0,1,,,,0,,,70,24
379904,note_off,,,,,0,0,1,,,,0,,,80,0
379904,note_off,,,,,2048,0,1,,,,0,,,68,0
379904,set_tempo,,,,,4096,1,0,,461538,,,,,,
379904,note_off,,,,,0,0,1,,,,0,,,49,0
379964,control_change,,,,,60,0,1,,,,0,64,0,,
380506,control_change,,,,,542,0,1,,,,0,64,127,,
380928,note_on,,,,,0,0,1,,,,0,,,53,14
380928,note_on,,,,,0,0,1,,,,0,,,80,38
380928,note_on,,,,,0,0,1,,,,0,,,56,26
380928,note_on,,,,,0,0,1,,,,0,,,49,14
380928,note_on,,,,,0,0,1,,,,0,,,68,22
380928,note_off,,,,,0,0,1,,,,0,,,58,0
380928,note_off,,,,,0,0,1,,,,0,,,49,0
380928,note_off,,,,,0,0,1,,,,0,,,82,0
380928,note_off,,,,,422,0,1,,,,0,,,70,0
380928,set_tempo,,,,,1024,1,0,,428571,,,,,,
380928,note_off,,,,,0,0,1,,,,0,,,54,0
381952,note_off,,,,,0,0,1,,,,0,,,49,0
381952,note_on,,,,,0,0,1,,,,0,,,54,29
381952,note_on,,,,,0,0,1,,,,0,,,51,14
381952,note_on,,,,,0,0,1,,,,0,,,49,14
381952,note_on,,,,,0,0,1,,,,0,,,78,38
381952,note_on,,,,,0,0,1,,,,0,,,66,22
381952,note_off,,,,,0,0,1,,,,0,,,56,0
381952,note_off,,,,,0,0,1,,,,0,,,53,0
381952,note_off,,,,,0,0,1,,,,0,,,68,0
381952,control_change,,,,,0,0,1,,,,0,64,0,,
381952,control_change,,,,,0,0,1,,,,0,64,0,,
381952,control_change,,,,,0,0,1,,,,0,64,127,,
381952,control_change,,,,,0,0,1,,,,0,64,0,,
381952,control_change,,,,,1024,0,1,,,,0,64,0,,
381952,note_off,,,,,0,0,1,,,,0,,,80,0
382253,control_change,,,,,301,0,1,,,,0,64,0,,
382916,control_change,,,,,663,0,1,,,,0,64,127,,
384000,note_on,,,,,0,0,1,,,,0,,,78,32
384000,note_on,,,,,0,0,1,,,,0,,,54,12
384000,note_on,,,,,0,0,1,,,,0,,,66,15
384000,note_on,,,,,0,0,1,,,,0,,,51,12
384000,note_off,,,,,0,0,1,,,,0,,,54,0
384000,note_on,,,,,0,0,1,,,,0,,,49,12
384000,note_off,,,,,0,0,1,,,,0,,,49,0
384000,note_off,,,,,0,0,1,,,,0,,,78,0
384000,note_off,,,,,1084,0,1,,,,0,,,66,0
384000,note_off,,,,,0,0,1,,,,0,,,51,0
386048,note_on,,,,,0,0,1,,,,0,,,58,29
386048,note_on,,,,,0,0,1,,,,0,,,54,15
386048,note_on,,,,,0,0,1,,,,0,,,49,15
386048,note_on,,,,,0,0,1,,,,0,,,82,41
386048,note_off,,,,,0,0,1,,,,0,,,54,0
386048,note_on,,,,,0,0,1,,,,0,,,70,24
386048,note_off,,,,,0,0,1,,,,0,,,49,0
386048,note_off,,,,,0,0,1,,,,0,,,78,0
386048,note_off,,,,,2048,0,1,,,,0,,,66,0
386048,set_tempo,,,,,5120,1,0,,461538,,,,,,
386048,note_off,,,,,0,0,1,,,,0,,,51,0
386108,control_change,,,,,60,0,1,,,,0,64,0,,
386650,control_change,,,,,542,0,1,,,,0,64,127,,
387072,note_on,,,,,0,0,1,,,,0,,,78,38
387072,note_on,,,,,0,0,1,,,,0,,,54,26
387072,note_on,,,,,0,0,1,,,,0,,,51,12
387072,note_on,,,,,0,0,1,,,,0,,,49,12
387072,note_on,,,,,0,0,1,,,,0,,,66,22
387072,set_tempo,,,,,1024,1,0,,428571,,,,,,
387072,note_off,,,,,0,0,1,,,,0,,,54,0
387072,note_off,,,,,0,0,1,,,,0,,,49,0
387072,note_off,,,,,0,0,1,,,,0,,,82,0
387072,note_off,,,,,422,0,1,,,,0,,,70,0
387072,note_off,,,,,0,0,1,,,,0,,,58,0
388096,note_on,,,,,0,0,1,,,,0,,,54,29
388096,note_on,,,,,0,0,1,,,,0,,,51,15
388096,note_on,,,,,0,0,1,,,,0,,,49,15
388096,note_on,,,,,0,0,1,,,,0,,,78,38
388096,note_on,,,,,0,0,1,,,,0,,,66,22
388096,note_off,,,,,0,0,1,,,,0,,,54,0
388096,note_off,,,,,0,0,1,,,,0,,,51,0
388096,note_off,,,,,0,0,1,,,,0,,,78,0
388096,note_off,,,,,0,0,1,,,,0,,,49,0
388096,control_change,,,,,0,0,1,,,,0,64,0,,
388096,control_change,,,,,1024,0,1,,,,0,64,0,,
388096,note_off,,,,,0,0,1,,,,0,,,66,0
388096,control_change,,,,,0,0,1,,,,0,64,127,,
388096,control_change,,,,,0,0,1,,,,0,64,0,,
388096,control_change,,,,,0,0,1,,,,0,64,0,,
388096,control_change,,,,,0,0,1,,,,0,64,127,,
388096,control_change,,,,,0,0,1,,,,0,64,0,,
388096,control_change,,,,,0,0,1,,,,0,64,0,,
388096,control_change,,,,,0,0,1,,,,0,64,0,,
388397,control_change,,,,,301,0,1,,,,0,64,0,,
388397,control_change,,,,,0,0,1,,,,0,64,0,,
389060,control_change,,,,,663,0,1,,,,0,64,127,,
389060,control_change,,,,,0,0,1,,,,0,64,127,,
390144,note_on,,,,,0,0,1,,,,0,,,54,12
390144,note_on,,,,,0,0,1,,,,0,,,49,12
390144,note_on,,,,,0,0,1,,,,0,,,51,12
390144,note_on,,,,,0,0,1,,,,0,,,78,35
390144,note_off,,,,,0,0,1,,,,0,,,78,0
390144,note_off,,,,,0,0,1,,,,0,,,54,0
390144,note_off,,,,,0,0,1,,,,0,,,51,0
390144,note_off,,,,,0,0,1,,,,0,,,49,0
390144,note_off,,,,,1084,0,1,,,,0,,,66,0
390144,note_on,,,,,0,0,1,,,,0,,,66,18
392192,note_on,,,,,0,0,1,,,,0,,,58,34
392192,note_on,,,,,0,0,1,,,,0,,,49,20
392192,note_on,,,,,0,0,1,,,,0,,,82,42
392192,note_on,,,,,0,0,1,,,,0,,,70,25
392192,note_on,,,,,0,0,1,,,,0,,,54,20
392192,note_off,,,,,0,0,1,,,,0,,,51,0
392192,note_off,,,,,0,0,1,,,,0,,,49,0
392192,note_off,,,,,0,0,1,,,,0,,,78,0
392192,note_off,,,,,2048,0,1,,,,0,,,66,0
392192,note_off,,,,,0,0,1,,,,0,,,54,0
392192,set_tempo,,,,,5120,1,0,,500000,,,,,,
392252,control_change,,,,,60,0,1,,,,0,64,0,,
392252,control_change,,,,,0,0,1,,,,0,64,0,,
392794,control_change,,,,,542,0,1,,,,0,64,127,,
392794,control_change,,,,,0,0,1,,,,0,64,127,,
393216,note_off,,,,,422,0,1,,,,0,,,70,0
393216,note_off,,,,,0,0,1,,,,0,,,82,0
393216,note_off,,,,,0,0,1,,,,0,,,58,0
393216,note_off,,,,,0,0,1,,,,0,,,49,0
393216,note_off,,,,,0,0,1,,,,0,,,54,0
393216,note_on,,,,,0,0,1,,,,0,,,68,22
393216,note_on,,,,,0,0,1,,,,0,,,49,17
393216,set_tempo,,,,,1024,1,0,,461538,,,,,,
393216,note_on,,,,,0,0,1,,,,0,,,80,38
393216,note_on,,,,,0,0,1,,,,0,,,56,31
393216,note_on,,,,,0,0,1,,,,0,,,53,17
393472,control_change,,,,,256,0,1,,,,0,64,0,,
393984,control_change,,,,,512,0,1,,,,0,64,127,,
394240,set_tempo,,,,,1024,1,0,,428571,,,,,,
394240,note_on,,,,,0,0,1,,,,0,,,56,29
394240,note_on,,,,,0,0,1,,,,0,,,53,15
394240,note_on,,,,,0,0,1,,,,0,,,49,15
394240,note_on,,,,,0,0,1,,,,0,,,80,38
394240,note_on,,,,,0,0,1,,,,0,,,68,22
394240,note_off,,,,,0,0,1,,,,0,,,56,0
394240,note_off,,,,,0,0,1,,,,0,,,53,0
394240,note_off,,,,,0,0,1,,,,0,,,49,0
394240,control_change,,,,,256,0,1,,,,0,64,0,,
394240,note_off,,,,,0,0,1,,,,0,,,68,0
394240,control_change,,,,,0,0,1,,,,0,64,0,,
394240,control_change,,,,,0,0,1,,,,0,64,0,,
394240,control_change,,,,,0,0,1,,,,0,64,0,,
394240,control_change,,,,,0,0,1,,,,0,64,0,,
394240,control_change,,,,,0,0,1,,,,0,64,127,,
394240,control_change,,,,,0,0,1,,,,0,64,0,,
394240,control_change,,,,,0,0,1,,,,0,64,0,,
394240,control_change,,,,,0,0,1,,,,0,64,0,,
394240,note_off,,,,,0,0,1,,,,0,,,80,0
394240,control_change,,,,,0,0,1,,,,0,64,0,,
394240,control_change,,,,,0,0,1,,,,0,64,127,,
394541,control_change,,,,,0,0,1,,,,0,64,0,,
394541,control_change,,,,,301,0,1,,,,0,64,0,,
395204,control_change,,,,,663,0,1,,,,0,64,127,,
395204,control_change,,,,,0,0,1,,,,0,64,127,,
396288,note_on,,,,,0,0,1,,,,0,,,53,12
396288,note_on,,,,,0,0,1,,,,0,,,56,12
396288,note_on,,,,,0,0,1,,,,0,,,49,12
396288,note_off,,,,,0,0,1,,,,0,,,49,0
396288,note_on,,,,,0,0,1,,,,0,,,68,18
396288,note_off,,,,,0,0,1,,,,0,,,56,0
396288,note_off,,,,,0,0,1,,,,0,,,53,0
396288,note_off,,,,,0,0,1,,,,0,,,80,0
396288,note_off,,,,,1084,0,1,,,,0,,,68,0
396288,note_on,,,,,0,0,1,,,,0,,,80,35
398336,set_tempo,,,,,4096,1,0,,500000,,,,,,
398336,note_on,,,,,0,0,1,,,,0,,,52,46
398336,note_on,,,,,0,0,1,,,,0,,,40,39
398336,note_on,,,,,0,0,1,,,,0,,,49,32
398336,note_on,,,,,0,0,1,,,,0,,,68,48
398336,note_off,,,,,2048,0,1,,,,0,,,68,0
398336,note_off,,,,,0,0,1,,,,0,,,80,0
398336,note_off,,,,,0,0,1,,,,0,,,53,0
398336,note_on,,,,,0,0,1,,,,0,,,73,65
398336,note_off,,,,,0,0,1,,,,0,,,49,0
398336,note_on,,,,,0,0,1,,,,0,,,61,48
398336,note_off,,,,,0,0,1,,,,0,,,56,0
398396,control_change,,,,,60,0,1,,,,0,64,0,,
398396,control_change,,,,,0,0,1,,,,0,64,0,,
398938,control_change,,,,,0,0,1,,,,0,64,127,,
398938,control_change,,,,,542,0,1,,,,0,64,127,,
399360,set_tempo,,,,,1024,1,0,,461538,,,,,,
399360,note_on,,,,,0,0,1,,,,0,,,51,41
399360,note_on,,,,,0,0,1,,,,0,,,72,63
399360,note_on,,,,,0,0,1,,,,0,,,44,31
399360,note_on,,,,,0,0,1,,,,0,,,60,46
399360,note_off,,,,,0,0,1,,,,0,,,52,0
399360,note_off,,,,,0,0,1,,,,0,,,49,0
399360,note_off,,,,,0,0,1,,,,0,,,40,0
399360,note_off,,,,,422,0,1,,,,0,,,61,0
399360,note_off,,,,,0,0,1,,,,0,,,73,0
399360,note_off,,,,,0,0,1,,,,0,,,68,0
399360,note_on,,,,,0,0,1,,,,0,,,68,46
399616,control_change,,,,,256,0,1,,,,0,64,0,,
400128,control_change,,,,,512,0,1,,,,0,64,127,,
400384,note_on,,,,,0,0,1,,,,0,,,44,28
400384,note_on,,,,,0,0,1,,,,0,,,72,64
400384,note_on,,,,,0,0,1,,,,0,,,68,49
400384,note_on,,,,,0,0,1,,,,0,,,60,49
400384,note_off,,,,,0,0,1,,,,0,,,51,0
400384,note_on,,,,,0,0,1,,,,0,,,51,40
400384,set_tempo,,,,,1024,1,0,,428571,,,,,,
400384,note_off,,,,,0,0,1,,,,0,,,72,0
400384,note_off,,,,,0,0,1,,,,0,,,68,0
400384,control_change,,,,,256,0,1,,,,0,64,0,,
400384,control_change,,,,,0,0,1,,,,0,64,127,,
400384,control_change,,,,,0,0,1,,,,0,64,0,,
400384,control_change,,,,,0,0,1,,,,0,64,0,,
400384,control_change,,,,,0,0,1,,,,0,64,127,,
400384,note_off,,,,,0,0,1,,,,0,,,44,0
400384,note_off,,,,,0,0,1,,,,0,,,60,0
400384,control_change,,,,,0,0,1,,,,0,64,0,,
400384,control_change,,,,,0,0,1,,,,0,64,0,,
400384,control_change,,,,,0,0,1,,,,0,64,0,,
400384,control_change,,,,,0,0,1,,,,0,64,0,,
400384,control_change,,,,,0,0,1,,,,0,64,0,,
400685,control_change,,,,,301,0,1,,,,0,64,0,,
400685,control_change,,,,,0,0,1,,,,0,64,0,,
401348,control_change,,,,,663,0,1,,,,0,64,127,,
401348,control_change,,,,,0,0,1,,,,0,64,127,,
402432,note_on,,,,,0,0,1,,,,0,,,51,28
402432,note_on,,,,,0,0,1,,,,0,,,44,16
402432,note_on,,,,,0,0,1,,,,0,,,68,37
402432,note_on,,,,,0,0,1,,,,0,,,60,37
402432,note_off,,,,,0,0,1,,,,0,,,51,0
402432,note_off,,,,,0,0,1,,,,0,,,44,0
402432,note_off,,,,,0,0,1,,,,0,,,72,0
402432,note_off,,,,,0,0,1,,,,0,,,68,0
402432,note_off,,,,,1084,0,1,,,,0,,,60,0
402432,note_on,,,,,0,0,1,,,,0,,,72,52
404480,set_tempo,,,,,4096,1,0,,461538,,,,,,
404480,note_on,,,,,0,0,1,,,,0,,,56,35
404480,note_on,,,,,0,0,1,,,,0,,,68,49
404480,note_on,,,,,0,0,1,,,,0,,,44,35
404480,note_on,,,,,0,0,1,,,,0,,,75,64
404480,note_on,,,,,0,0,1,,,,0,,,63,49
404480,note_off,,,,,0,0,1,,,,0,,,51,0
404480,note_off,,,,,0,0,1,,,,0,,,44,0
404480,note_off,,,,,0,0,1,,,,0,,,72,0
404480,note_off,,,,,0,0,1,,,,0,,,68,0
404480,note_off,,,,,2048,0,1,,,,0,,,60,0
404480,note_on,,,,,0,0,1,,,,0,,,54,47
404540,control_change,,,,,60,0,1,,,,0,64,0,,
404540,control_change,,,,,0,0,1,,,,0,64,0,,
405082,control_change,,,,,542,0,1,,,,0,64,127,,
405082,control_change,,,,,0,0,1,,,,0,64,127,,
405504,set_tempo,,,,,1024,1,0,,428571,,,,,,
405504,note_on,,,,,0,0,1,,,,0,,,56,28
405504,note_off,,,,,0,0,1,,,,0,,,56,0
405504,note_off,,,,,0,0,1,,,,0,,,68,0
405504,note_off,,,,,422,0,1,,,,0,,,63,0
405504,note_off,,,,,0,0,1,,,,0,,,75,0
405504,note_off,,,,,0,0,1,,,,0,,,44,0
405504,note_off,,,,,0,0,1,,,,0,,,54,0
405504,note_on,,,,,0,0,1,,,,0,,,61,41
405504,note_on,,,,,0,0,1,,,,0,,,68,56
405504,note_on,,,,,0,0,1,,,,0,,,49,28
405504,note_on,,,,,0,0,1,,,,0,,,52,40
405760,control_change,,,,,256,0,1,,,,0,64,0,,
406272,control_change,,,,,512,0,1,,,,0,64,127,,
406528,note_off,,,,,0,0,1,,,,0,,,61,0
406528,control_change,,,,,256,0,1,,,,0,64,0,,
406528,control_change,,,,,0,0,1,,,,0,64,0,,
406528,control_change,,,,,0,0,1,,,,0,64,127,,
406528,control_change,,,,,0,0,1,,,,0,64,0,,
406528,control_change,,,,,0,0,1,,,,0,64,0,,
406528,control_change,,,,,0,0,1,,,,0,64,0,,
406528,note_on,,,,,0,0,1,,,,0,,,56,27
406528,note_on,,,,,0,0,1,,,,0,,,52,27
406528,note_on,,,,,0,0,1,,,,0,,,49,39
406528,note_on,,,,,0,0,1,,,,0,,,68,53
406528,note_off,,,,,0,0,1,,,,0,,,56,0
406528,control_change,,,,,0,0,1,,,,0,64,0,,
406528,note_off,,,,,0,0,1,,,,0,,,49,0
406528,note_off,,,,,0,0,1,,,,0,,,68,0
406528,control_change,,,,,0,0,1,,,,0,64,0,,
406528,note_off,,,,,0,0,1,,,,0,,,52,0
406528,note_on,,,,,0,0,1,,,,0,,,61,36
406528,set_tempo,,,,,1024,1,0,,461538,,,,,,
406829,control_change,,,,,301,0,1,,,,0,64,0,,
407492,control_change,,,,,663,0,1,,,,0,64,127,,
408576,note_off,,,,,1084,0,1,,,,0,,,61,0
408576,note_on,,,,,0,0,1,,,,0,,,52,16
408576,note_on,,,,,0,0,1,,,,0,,,49,16
408576,note_on,,,,,0,0,1,,,,0,,,68,36
408576,note_on,,,,,0,0,1,,,,0,,,61,19
408576,note_off,,,,,0,0,1,,,,0,,,56,0
408576,set_tempo,,,,,2048,1,0,,428571,,,,,,
408576,note_on,,,,,0,0,1,,,,0,,,56,16
408576,note_off,,,,,0,0,1,,,,0,,,68,0
408576,note_off,,,,,0,0,1,,,,0,,,49,0
408576,note_off,,,,,0,0,1,,,,0,,,52,0
410624,note_off,,,,,0,0,1,,,,0,,,56,0
410624,note_on,,,,,0,0,1,,,,0,,,64,44
410624,note_on,,,,,0,0,1,,,,0,,,68,32
410624,note_on,,,,,0,0,1,,,,0,,,52,28
410624,note_on,,,,,0,0,1,,,,0,,,56,19
410624,note_off,,,,,0,0,1,,,,0,,,52,0
410624,note_off,,,,,0,0,1,,,,0,,,49,0
410624,note_off,,,,,0,0,1,,,,0,,,68,0
410624,note_off,,,,,2048,0,1,,,,0,,,61,0
410624,set_tempo,,,,,2048,1,0,,461538,,,,,,
410684,control_change,,,,,60,0,1,,,,0,64,0,,
411226,control_change,,,,,542,0,1,,,,0,64,127,,
411648,note_on,,,,,0,0,1,,,,0,,,56,19
411648,note_on,,,,,0,0,1,,,,0,,,52,19
411648,note_on,,,,,0,0,1,,,,0,,,47,28
411648,note_on,,,,,0,0,1,,,,0,,,68,25
411648,note_on,,,,,0,0,1,,,,0,,,64,25
411648,note_on,,,,,0,0,1,,,,0,,,59,37
411648,note_off,,,,,0,0,1,,,,0,,,56,0
411648,note_off,,,,,0,0,1,,,,0,,,68,0
411648,note_off,,,,,422,0,1,,,,0,,,64,0
411648,note_off,,,,,0,0,1,,,,0,,,52,0
411904,control_change,,,,,256,0,1,,,,0,64,0,,
412416,control_change,,,,,512,0,1,,,,0,64,127,,
412672,note_off,,,,,0,0,1,,,,0,,,64,0
412672,note_off,,,,,0,0,1,,,,0,,,68,0
412672,note_off,,,,,0,0,1,,,,0,,,47,0
412672,note_off,,,,,0,0,1,,,,0,,,52,0
412672,note_on,,,,,0,0,1,,,,0,,,59,44
412672,note_on,,,,,0,0,1,,,,0,,,56,18
412672,note_on,,,,,0,0,1,,,,0,,,64,32
412672,note_on,,,,,0,0,1,,,,0,,,68,32
412672,note_on,,,,,0,0,1,,,,0,,,47,30
412672,note_on,,,,,0,0,1,,,,0,,,52,18
412672,note_off,,,,,0,0,1,,,,0,,,59,0
412672,control_change,,,,,0,0,1,,,,0,64,0,,
412672,note_off,,,,,0,0,1,,,,0,,,56,0
412672,control_change,,,,,0,0,1,,,,0,64,0,,
412672,set_tempo,,,,,2048,1,0,,428571,,,,,,
412672,control_change,,,,,256,0,1,,,,0,64,0,,
412672,control_change,,,,,0,0,1,,,,0,64,0,,
412672,control_change,,,,,0,0,1,,,,0,64,0,,
412672,control_change,,,,,0,0,1,,,,0,64,0,,
412672,control_change,,,,,0,0,1,,,,0,64,127,,
412672,control_change,,,,,0,0,1,,,,0,64,0,,
412672,control_change,,,,,0,0,1,,,,0,64,0,,
412973,control_change,,,,,301,0,1,,,,0,64,0,,
413636,control_change,,,,,663,0,1,,,,0,64,127,,
414720,note_off,,,,,0,0,1,,,,0,,,56,0
414720,note_on,,,,,0,0,1,,,,0,,,56,14
414720,note_on,,,,,0,0,1,,,,0,,,52,14
414720,note_on,,,,,0,0,1,,,,0,,,47,14
414720,note_on,,,,,0,0,1,,,,0,,,68,29
414720,note_on,,,,,0,0,1,,,,0,,,64,15
414720,note_on,,,,,0,0,1,,,,0,,,59,15
414720,note_off,,,,,0,0,1,,,,0,,,52,0
414720,note_off,,,,,0,0,1,,,,0,,,68,0
414720,note_off,,,,,0,0,1,,,,0,,,64,0
414720,note_off,,,,,1084,0,1,,,,0,,,59,0
414720,note_off,,,,,0,0,1,,,,0,,,47,0
416768,note_on,,,,,0,0,1,,,,0,,,47,18
416768,note_on,,,,,0,0,1,,,,0,,,59,35
416768,note_off,,,,,0,0,1,,,,0,,,56,0
416768,note_on,,,,,0,0,1,,,,0,,,51,18
416768,note_on,,,,,0,0,1,,,,0,,,63,32
416768,note_on,,,,,0,0,1,,,,0,,,59,32
416768,note_on,,,,,0,0,1,,,,0,,,71,44
416768,note_off,,,,,0,0,1,,,,0,,,52,0
416768,note_off,,,,,0,0,1,,,,0,,,68,0
416768,note_off,,,,,0,0,1,,,,0,,,64,0
416768,note_off,,,,,2048,0,1,,,,0,,,59,0
416768,set_tempo,,,,,4096,1,0,,500000,,,,,,
416768,note_off,,,,,0,0,1,,,,0,,,47,0
416828,control_change,,,,,60,0,1,,,,0,64,0,,
417370,control_change,,,,,542,0,1,,,,0,64,127,,
417792,note_on,,,,,0,0,1,,,,0,,,54,28
417792,note_on,,,,,0,0,1,,,,0,,,51,16
417792,note_on,,,,,0,0,1,,,,0,,,47,16
417792,note_on,,,,,0,0,1,,,,0,,,66,42
417792,note_on,,,,,0,0,1,,,,0,,,63,30
417792,note_off,,,,,0,0,1,,,,0,,,59,0
417792,note_off,,,,,0,0,1,,,,0,,,51,0
417792,note_on,,,,,0,0,1,,,,0,,,59,30
417792,note_off,,,,,0,0,1,,,,0,,,71,0
417792,note_off,,,,,0,0,1,,,,0,,,63,0
417792,note_off,,,,,422,0,1,,,,0,,,59,0
417792,note_off,,,,,0,0,1,,,,0,,,47,0
417792,set_tempo,,,,,1024,1,0,,461538,,,,,,
418048,control_change,,,,,256,0,1,,,,0,64,0,,
418560,control_change,,,,,512,0,1,,,,0,64,127,,
418816,note_on,,,,,0,0,1,,,,0,,,51,18
418816,note_off,,,,,0,0,1,,,,0,,,63,0
418816,note_on,,,,,0,0,1,,,,0,,,66,40
418816,note_on,,,,,0,0,1,,,,0,,,63,28
418816,note_on,,,,,0,0,1,,,,0,,,59,28
418816,note_off,,,,,0,0,1,,,,0,,,54,0
418816,note_off,,,,,0,0,1,,,,0,,,51,0
418816,note_off,,,,,0,0,1,,,,0,,,47,0
418816,note_off,,,,,0,0,1,,,,0,,,66,0
418816,note_on,,,,,0,0,1,,,,0,,,47,18
418816,note_off,,,,,0,0,1,,,,0,,,59,0
418816,note_on,,,,,0,0,1,,,,0,,,54,30
418816,control_change,,,,,0,0,1,,,,0,64,0,,
418816,control_change,,,,,0,0,1,,,,0,64,0,,
418816,control_change,,,,,0,0,1,,,,0,64,0,,
418816,control_change,,,,,0,0,1,,,,0,64,0,,
418816,control_change,,,,,0,0,1,,,,0,64,0,,
418816,control_change,,,,,0,0,1,,,,0,64,127,,
418816,control_change,,,,,0,0,1,,,,0,64,0,,
418816,control_change,,,,,256,0,1,,,,0,64,0,,
418816,set_tempo,,,,,1024,1,0,,428571,,,,,,
418816,control_change,,,,,0,0,1,,,,0,64,0,,
419117,control_change,,,,,301,0,1,,,,0,64,0,,
419780,control_change,,,,,663,0,1,,,,0,64,127,,
420864,note_off,,,,,0,0,1,,,,0,,,63,0
420864,note_off,,,,,0,0,1,,,,0,,,66,0
420864,note_on,,,,,0,0,1,,,,0,,,54,23
420864,note_on,,,,,0,0,1,,,,0,,,51,11
420864,note_on,,,,,0,0,1,,,,0,,,66,33
420864,note_on,,,,,0,0,1,,,,0,,,63,21
420864,note_on,,,,,0,0,1,,,,0,,,47,11
420864,note_off,,,,,0,0,1,,,,0,,,54,0
420864,note_off,,,,,0,0,1,,,,0,,,51,0
420864,note_off,,,,,0,0,1,,,,0,,,47,0
420864,note_off,,,,,1084,0,1,,,,0,,,59,0
420864,note_on,,,,,0,0,1,,,,0,,,59,21
422912,note_on,,,,,0,0,1,,,,0,,,66,23
422912,note_on,,,,,0,0,1,,,,0,,,56,20
422912,note_on,,,,,0,0,1,,,,0,,,54,8
422912,note_on,,,,,0,0,1,,,,0,,,51,8
422912,note_on,,,,,0,0,1,,,,0,,,48,8
422912,note_on,,,,,0,0,1,,,,0,,,68,37
422912,note_on,,,,,0,0,1,,,,0,,,63,23
422912,note_off,,,,,0,0,1,,,,0,,,54,0
422912,note_off,,,,,0,0,1,,,,0,,,51,0
422912,note_off,,,,,0,0,1,,,,0,,,47,0
422912,note_off,,,,,0,0,1,,,,0,,,66,0
422912,note_off,,,,,0,0,1,,,,0,,,63,0
422912,note_off,,,,,2048,0,1,,,,0,,,59,0
422912,set_tempo,,,,,4096,1,0,,500000,,,,,,
422912,note_on,,,,,0,0,1,,,,0,,,60,23
422972,control_change,,,,,60,0,1,,,,0,64,0,,
423514,control_change,,,,,542,0,1,,,,0,64,127,,
423936,note_on,,,,,0,0,1,,,,0,,,68,37
423936,set_tempo,,,,,1024,1,0,,461538,,,,,,
423936,note_on,,,,,0,0,1,,,,0,,,56,20
423936,note_on,,,,,0,0,1,,,,0,,,53,8
423936,note_on,,,,,0,0,1,,,,0,,,49,8
423936,note_on,,,,,0,0,1,,,,0,,,61,23
423936,note_on,,,,,0,0,1,,,,0,,,65,23
423936,note_off,,,,,0,0,1,,,,0,,,54,0
423936,note_off,,,,,0,0,1,,,,0,,,56,0
423936,note_off,,,,,422,0,1,,,,0,,,60,0
423936,note_off,,,,,0,0,1,,,,0,,,66,0
423936,note_off,,,,,0,0,1,,,,0,,,63,0
423936,note_off,,,,,0,0,1,,,,0,,,48,0
423936,note_off,,,,,0,0,1,,,,0,,,51,0
423936,note_off,,,,,0,0,1,,,,0,,,68,0
424192,control_change,,,,,256,0,1,,,,0,64,0,,
424704,control_change,,,,,512,0,1,,,,0,64,127,,
424960,set_tempo,,,,,1024,1,0,,428571,,,,,,
424960,note_on,,,,,0,0,1,,,,0,,,53,25
424960,note_on,,,,,0,0,1,,,,0,,,49,13
424960,note_on,,,,,0,0,1,,,,0,,,44,13
424960,note_on,,,,,0,0,1,,,,0,,,65,42
424960,note_on,,,,,0,0,1,,,,0,,,61,28
424960,note_on,,,,,0,0,1,,,,0,,,56,28
424960,note_off,,,,,0,0,1,,,,0,,,56,0
424960,note_off,,,,,0,0,1,,,,0,,,53,0
424960,note_off,,,,,0,0,1,,,,0,,,49,0
424960,note_off,,,,,0,0,1,,,,0,,,65,0
424960,note_off,,,,,0,0,1,,,,0,,,61,0
424960,control_change,,,,,0,0,1,,,,0,64,0,,
424960,control_change,,,,,0,0,1,,,,0,64,0,,
424960,control_change,,,,,0,0,1,,,,0,64,0,,
424960,control_change,,,,,0,0,1,,,,0,64,0,,
424960,control_change,,,,,0,0,1,,,,0,64,0,,
424960,control_change,,,,,0,0,1,,,,0,64,0,,
424960,control_change,,,,,0,0,1,,,,0,64,127,,
424960,note_off,,,,,0,0,1,,,,0,,,68,0
424960,control_change,,,,,256,0,1,,,,0,64,0,,
424960,control_change,,,,,0,0,1,,,,0,64,0,,
425261,control_change,,,,,301,0,1,,,,0,64,0,,
425924,control_change,,,,,663,0,1,,,,0,64,127,,
427008,note_on,,,,,0,0,1,,,,0,,,44,12
427008,note_on,,,,,0,0,1,,,,0,,,53,12
427008,note_on,,,,,0,0,1,,,,0,,,49,12
427008,note_on,,,,,0,0,1,,,,0,,,65,33
427008,note_off,,,,,1084,0,1,,,,0,,,56,0
427008,note_on,,,,,0,0,1,,,,0,,,56,21
427008,note_off,,,,,0,0,1,,,,0,,,53,0
427008,note_off,,,,,0,0,1,,,,0,,,49,0
427008,note_off,,,,,0,0,1,,,,0,,,44,0
427008,note_on,,,,,0,0,1,,,,0,,,61,21
427008,note_off,,,,,0,0,1,,,,0,,,65,0
427008,note_off,,,,,0,0,1,,,,0,,,61,0
429056,set_tempo,,,,,4096,1,0,,461538,,,,,,
429056,note_on,,,,,0,0,1,,,,0,,,51,16
429056,note_on,,,,,0,0,1,,,,0,,,48,10
429056,note_on,,,,,0,0,1,,,,0,,,44,10
429056,note_on,,,,,0,0,1,,,,0,,,63,35
429056,note_on,,,,,0,0,1,,,,0,,,56,23
429056,note_off,,,,,0,0,1,,,,0,,,53,0
429056,note_off,,,,,0,0,1,,,,0,,,49,0
429056,note_off,,,,,0,0,1,,,,0,,,44,0
429056,note_off,,,,,0,0,1,,,,0,,,65,0
429056,note_off,,,,,0,0,1,,,,0,,,61,0
429056,note_off,,,,,2048,0,1,,,,0,,,56,0
429056,note_on,,,,,0,0,1,,,,0,,,60,23
429116,control_change,,,,,60,0,1,,,,0,64,0,,
429658,control_change,,,,,542,0,1,,,,0,64,127,,
430080,note_on,,,,,0,0,1,,,,0,,,44,10
430080,set_tempo,,,,,1024,1,0,,500000,,,,,,
430080,note_on,,,,,0,0,1,,,,0,,,48,10
430080,note_on,,,,,0,0,1,,,,0,,,63,32
430080,note_on,,,,,0,0,1,,,,0,,,51,16
430080,note_on,,,,,0,0,1,,,,0,,,56,20
430080,note_on,,,,,0,0,1,,,,0,,,60,20
430080,note_off,,,,,0,0,1,,,,0,,,63,0
430080,note_off,,,,,0,0,1,,,,0,,,60,0
430080,note_off,,,,,422,0,1,,,,0,,,56,0
430080,note_off,,,,,0,0,1,,,,0,,,44,0
430080,note_off,,,,,0,0,1,,,,0,,,48,0
430080,note_off,,,,,0,0,1,,,,0,,,51,0
430336,control_change,,,,,256,0,1,,,,0,64,0,,
430848,control_change,,,,,512,0,1,,,,0,64,127,,
431104,note_off,,,,,0,0,1,,,,0,,,51,0
431104,note_on,,,,,0,0,1,,,,0,,,44,18
431104,note_on,,,,,0,0,1,,,,0,,,37,12
431104,note_on,,,,,0,0,1,,,,0,,,61,32
431104,note_on,,,,,0,0,1,,,,0,,,56,20
431104,note_on,,,,,0,0,1,,,,0,,,53,20
431104,note_on,,,,,0,0,1,,,,0,,,49,20
431104,note_off,,,,,0,0,1,,,,0,,,48,0
431104,note_off,,,,,0,0,1,,,,0,,,60,0
431104,note_off,,,,,0,0,1,,,,0,,,63,0
431104,note_off,,,,,0,0,1,,,,0,,,56,0
431104,control_change,,,,,0,0,1,,,,0,64,0,,
431104,control_change,,,,,0,0,1,,,,0,64,0,,
431104,control_change,,,,,0,0,1,,,,0,64,0,,
431104,control_change,,,,,0,0,1,,,,0,64,0,,
431104,control_change,,,,,0,0,1,,,,0,64,0,,
431104,control_change,,,,,0,0,1,,,,0,64,0,,
431104,control_change,,,,,0,0,1,,,,0,64,127,,
431104,control_change,,,,,0,0,1,,,,0,64,0,,
431104,control_change,,,,,256,0,1,,,,0,64,0,,
431104,note_off,,,,,0,0,1,,,,0,,,44,0
431104,set_tempo,,,,,1024,1,0,,461538,,,,,,
431405,control_change,,,,,301,0,1,,,,0,64,0,,
432068,control_change,,,,,663,0,1,,,,0,64,127,,
433152,note_off,,,,,0,0,1,,,,0,,,56,0
433152,note_off,,,,,1084,0,1,,,,0,,,49,0
433152,note_off,,,,,0,0,1,,,,0,,,53,0
433152,set_tempo,,,,,2048,1,0,,500000,,,,,,
433152,note_off,,,,,0,0,1,,,,0,,,61,0
433152,note_off,,,,,0,0,1,,,,0,,,37,0
433152,note_off,,,,,0,0,1,,,,0,,,44,0
433152,note_on,,,,,0,0,1,,,,0,,,49,13
433152,note_on,,,,,0,0,1,,,,0,,,53,13
433152,note_on,,,,,0,0,1,,,,0,,,61,25
433152,note_on,,,,,0,0,1,,,,0,,,37,11
433152,note_on,,,,,0,0,1,,,,0,,,44,11
433152,note_on,,,,,0,0,1,,,,0,,,56,13
435200,note_off,,,,,2048,0,1,,,,0,,,49,0
435200,note_off,,,,,0,0,1,,,,0,,,56,0
435200,note_off,,,,,0,0,1,,,,0,,,61,0
435200,note_off,,,,,0,0,1,,,,0,,,37,0
435200,note_off,,,,,0,0,1,,,,0,,,44,0
435200,note_on,,,,,0,0,1,,,,0,,,75,41
435200,note_on,,,,,0,0,1,,,,0,,,56,9
435200,note_on,,,,,0,0,1,,,,0,,,59,9
435200,note_on,,,,,0,0,1,,,,0,,,63,21
435200,note_off,,,,,0,0,1,,,,0,,,53,0
435200,set_tempo,,,,,2048,1,0,,461538,,,,,,
435260,control_change,,,,,60,0,1,,,,0,64,0,,
435712,note_on,,,,,0,0,1,,,,0,,,77,38
435712,note_off,,,,,452,0,1,,,,0,,,75,0
435712,set_tempo,,,,,512,1,0,,413793,,,,,,
435802,control_change,,,,,90,0,1,,,,0,64,127,,
436224,note_off,,,,,0,0,1,,,,0,,,63,0
436224,note_on,,,,,0,0,1,,,,0,,,59,9
436224,note_on,,,,,0,0,1,,,,0,,,63,21
436224,note_off,,,,,0,0,1,,,,0,,,56,0
436224,note_off,,,,,0,0,1,,,,0,,,59,0
436224,note_on,,,,,0,0,1,,,,0,,,56,9
436224,note_off,,,,,422,0,1,,,,0,,,77,0
436224,note_on,,,,,0,0,1,,,,0,,,79,36
436480,control_change,,,,,256,0,1,,,,0,64,0,,
436736,note_off,,,,,256,0,1,,,,0,,,79,0
436736,note_on,,,,,0,0,1,,,,0,,,80,33
436992,control_change,,,,,256,0,1,,,,0,64,127,,
437248,note_on,,,,,0,0,1,,,,0,,,63,23
437248,note_on,,,,,0,0,1,,,,0,,,59,16
437248,note_on,,,,,0,0,1,,,,0,,,56,9
437248,note_on,,,,,0,0,1,,,,0,,,80,38
437248,note_off,,,,,0,0,1,,,,0,,,63,0
437248,note_off,,,,,0,0,1,,,,0,,,59,0
437248,note_off,,,,,0,0,1,,,,0,,,56,0
437248,note_off,,,,,0,0,1,,,,0,,,80,0
437248,control_change,,,,,0,0,1,,,,0,64,0,,
437248,control_change,,,,,256,0,1,,,,0,64,0,,
437248,control_change,,,,,0,0,1,,,,0,64,127,,
437428,control_change,,,,,180,0,1,,,,0,64,0,,
437679,control_change,,,,,251,0,1,,,,0,64,127,,
438272,set_tempo,,,,,2560,1,0,,461538,,,,,,
438272,note_on,,,,,0,0,1,,,,0,,,75,26
438272,note_off,,,,,593,0,1,,,,0,,,80,0
438398,control_change,,,,,126,0,1,,,,0,64,0,,
438784,note_off,,,,,386,0,1,,,,0,,,75,0
439296,note_on,,,,,512,0,1,,,,0,,,80,38
439296,note_off,,,,,0,0,1,,,,0,,,56,0
439296,note_off,,,,,0,0,1,,,,0,,,63,0
439296,note_on,,,,,0,0,1,,,,0,,,56,12
439296,note_on,,,,,0,0,1,,,,0,,,59,19
439296,note_on,,,,,0,0,1,,,,0,,,63,12
439296,note_off,,,,,0,0,1,,,,0,,,59,0
439296,set_tempo,,,,,1024,1,0,,428571,,,,,,
439332,control_change,,,,,36,0,1,,,,0,64,127,,
440320,note_off,,,,,988,0,1,,,,0,,,80,0
440320,note_on,,,,,0,0,1,,,,0,,,75,17
440482,control_change,,,,,162,0,1,,,,0,64,0,,
440832,note_off,,,,,350,0,1,,,,0,,,75,0
441344,note_on,,,,,0,0,1,,,,0,,,64,21
441344,note_on,,,,,0,0,1,,,,0,,,59,12
441344,note_on,,,,,0,0,1,,,,0,,,56,12
441344,note_off,,,,,0,0,1,,,,0,,,63,0
441344,set_tempo,,,,,2048,1,0,,461538,,,,,,
441344,note_off,,,,,0,0,1,,,,0,,,59,0
441344,note_off,,,,,0,0,1,,,,0,,,56,0
441344,note_on,,,,,512,0,1,,,,0,,,76,38
441380,control_change,,,,,36,0,1,,,,0,64,127,,
441856,note_on,,,,,0,0,1,,,,0,,,80,37
441856,note_off,,,,,476,0,1,,,,0,,,76,0
441856,set_tempo,,,,,512,1,0,,413793,,,,,,
442368,note_off,,,,,0,0,1,,,,0,,,64,0
442368,note_off,,,,,0,0,1,,,,0,,,56,0
442368,note_on,,,,,0,0,1,,,,0,,,63,21
442368,note_on,,,,,0,0,1,,,,0,,,59,12
442368,note_on,,,,,0,0,1,,,,0,,,51,21
442368,note_on,,,,,0,0,1,,,,0,,,75,35
442368,note_off,,,,,0,0,1,,,,0,,,59,0
442368,note_off,,,,,512,0,1,,,,0,,,80,0
442422,control_change,,,,,54,0,1,,,,0,64,0,,
442709,control_change,,,,,287,0,1,,,,0,64,127,,
442880,note_off,,,,,171,0,1,,,,0,,,75,0
442880,note_on,,,,,0,0,1,,,,0,,,83,34
443392,note_off,,,,,0,0,1,,,,0,,,83,0
443392,note_off,,,,,0,0,1,,,,0,,,63,0
443392,note_on,,,,,0,0,1,,,,0,,,78,38
443392,note_on,,,,,0,0,1,,,,0,,,54,12
443392,note_on,,,,,0,0,1,,,,0,,,59,12
443392,note_off,,,,,0,0,1,,,,0,,,59,0
443392,note_on,,,,,0,0,1,,,,0,,,63,21
443392,note_off,,,,,0,0,1,,,,0,,,51,0
443392,control_change,,,,,0,0,1,,,,0,64,0,,
443392,control_change,,,,,512,0,1,,,,0,64,0,,
443392,control_change,,,,,0,0,1,,,,0,64,127,,
443392,control_change,,,,,0,0,1,,,,0,64,0,,
443392,set_tempo,,,,,1536,1,0,,461538,,,,,,
443572,control_change,,,,,180,0,1,,,,0,64,0,,
443823,control_change,,,,,251,0,1,,,,0,64,127,,
444416,note_off,,,,,593,0,1,,,,0,,,78,0
444416,note_on,,,,,0,0,1,,,,0,,,75,26
444416,set_tempo,,,,,1024,1,0,,428571,,,,,,
444542,control_change,,,,,126,0,1,,,,0,64,0,,
444928,note_off,,,,,386,0,1,,,,0,,,75,0
445440,note_on,,,,,0,0,1,,,,0,,,61,17
445440,note_on,,,,,0,0,1,,,,0,,,54,8
445440,note_on,,,,,512,0,1,,,,0,,,78,32
445440,note_off,,,,,0,0,1,,,,0,,,54,0
445440,note_off,,,,,0,0,1,,,,0,,,59,0
445440,note_off,,,,,0,0,1,,,,0,,,63,0
445440,note_on,,,,,0,0,1,,,,0,,,58,8
445476,control_change,,,,,36,0,1,,,,0,64,127,,
446464,note_off,,,,,988,0,1,,,,0,,,78,0
446464,note_on,,,,,0,0,1,,,,0,,,73,11
446626,control_change,,,,,162,0,1,,,,0,64,0,,
446976,note_off,,,,,350,0,1,,,,0,,,73,0
447488,note_off,,,,,0,0,1,,,,0,,,61,0
447488,set_tempo,,,,,3072,1,0,,461538,,,,,,
447488,note_on,,,,,512,0,1,,,,0,,,70,31
447488,note_off,,,,,0,0,1,,,,0,,,54,0
447488,note_off,,,,,0,0,1,,,,0,,,58,0
447488,note_on,,,,,0,0,1,,,,0,,,63,21
447488,note_on,,,,,0,0,1,,,,0,,,55,21
447488,note_on,,,,,0,0,1,,,,0,,,58,12
447524,control_change,,,,,36,0,1,,,,0,64,127,,
448000,note_off,,,,,476,0,1,,,,0,,,70,0
448000,note_on,,,,,0,0,1,,,,0,,,76,37
448512,note_off,,,,,0,0,1,,,,0,,,58,0
448512,note_off,,,,,0,0,1,,,,0,,,63,0
448512,note_off,,,,,0,0,1,,,,0,,,55,0
448512,note_on,,,,,0,0,1,,,,0,,,59,12
448512,note_on,,,,,0,0,1,,,,0,,,56,21
448512,set_tempo,,,,,1024,1,0,,428571,,,,,,
448512,note_off,,,,,512,0,1,,,,0,,,76,0
448512,note_on,,,,,0,0,1,,,,0,,,75,35
448566,control_change,,,,,54,0,1,,,,0,64,0,,
448853,control_change,,,,,287,0,1,,,,0,64,127,,
449024,note_off,,,,,171,0,1,,,,0,,,75,0
449024,note_on,,,,,0,0,1,,,,0,,,73,34
449536,note_on,,,,,0,0,1,,,,0,,,59,12
449536,note_on,,,,,0,0,1,,,,0,,,56,12
449536,note_off,,,,,0,0,1,,,,0,,,59,0
449536,note_on,,,,,0,0,1,,,,0,,,71,38
449536,note_off,,,,,0,0,1,,,,0,,,56,0
449536,control_change,,,,,0,0,1,,,,0,64,127,,
449536,control_change,,,,,0,0,1,,,,0,64,0,,
449536,control_change,,,,,0,0,1,,,,0,64,0,,
449536,control_change,,,,,512,0,1,,,,0,64,0,,
449536,note_off,,,,,0,0,1,,,,0,,,73,0
449716,control_change,,,,,180,0,1,,,,0,64,0,,
449967,control_change,,,,,251,0,1,,,,0,64,127,,
450560,note_on,,,,,0,0,1,,,,0,,,68,22
450560,note_off,,,,,593,0,1,,,,0,,,71,0
450686,control_change,,,,,126,0,1,,,,0,64,0,,
451072,note_off,,,,,386,0,1,,,,0,,,68,0
451584,set_tempo,,,,,3072,1,0,,461538,,,,,,
451584,note_on,,,,,0,0,1,,,,0,,,59,8
451584,note_off,,,,,0,0,1,,,,0,,,56,0
451584,note_on,,,,,0,0,1,,,,0,,,56,8
451584,note_on,,,,,512,0,1,,,,0,,,71,32
451584,note_off,,,,,0,0,1,,,,0,,,59,0
451620,control_change,,,,,36,0,1,,,,0,64,127,,
452608,set_tempo,,,,,1024,1,0,,500000,,,,,,
452608,note_off,,,,,988,0,1,,,,0,,,71,0
452608,note_on,,,,,0,0,1,,,,0,,,80,27
452770,control_change,,,,,162,0,1,,,,0,64,0,,
453120,note_off,,,,,350,0,1,,,,0,,,80,0
453632,note_on,,,,,512,0,1,,,,0,,,73,38
453632,note_off,,,,,0,0,1,,,,0,,,56,0
453632,note_off,,,,,0,0,1,,,,0,,,59,0
453632,note_on,,,,,0,0,1,,,,0,,,52,14
453632,note_on,,,,,0,0,1,,,,0,,,56,14
453632,note_on,,,,,0,0,1,,,,0,,,61,30
453668,control_change,,,,,36,0,1,,,,0,64,127,,
454144,note_on,,,,,0,0,1,,,,0,,,80,37
454144,set_tempo,,,,,1536,1,0,,413793,,,,,,
454144,note_off,,,,,476,0,1,,,,0,,,73,0
454656,note_off,,,,,512,0,1,,,,0,,,80,0
454656,note_on,,,,,0,0,1,,,,0,,,76,35
454656,note_on,,,,,0,0,1,,,,0,,,49,14
454656,note_on,,,,,0,0,1,,,,0,,,56,14
454656,note_on,,,,,0,0,1,,,,0,,,59,30
454656,note_off,,,,,0,0,1,,,,0,,,52,0
454656,note_off,,,,,0,0,1,,,,0,,,56,0
454656,note_off,,,,,0,0,1,,,,0,,,61,0
454710,control_change,,,,,54,0,1,,,,0,64,0,,
454997,control_change,,,,,287,0,1,,,,0,64,127,,
455168,note_off,,,,,171,0,1,,,,0,,,76,0
455168,note_on,,,,,0,0,1,,,,0,,,80,34
455680,set_tempo,,,,,1536,1,0,,461538,,,,,,
455680,note_on,,,,,0,0,1,,,,0,,,59,30
455680,note_on,,,,,0,0,1,,,,0,,,56,12
455680,note_on,,,,,0,0,1,,,,0,,,51,12
455680,note_on,,,,,0,0,1,,,,0,,,75,45
455680,note_off,,,,,0,0,1,,,,0,,,59,0
455680,note_off,,,,,0,0,1,,,,0,,,49,0
455680,note_off,,,,,0,0,1,,,,0,,,80,0
455680,control_change,,,,,0,0,1,,,,0,64,0,,
455680,control_change,,,,,0,0,1,,,,0,64,0,,
455680,control_change,,,,,0,0,1,,,,0,64,127,,
455680,note_off,,,,,0,0,1,,,,0,,,56,0
455680,control_change,,,,,512,0,1,,,,0,64,0,,
455860,control_change,,,,,180,0,1,,,,0,64,0,,
456111,control_change,,,,,251,0,1,,,,0,64,127,,
456704,set_tempo,,,,,1024,1,0,,428571,,,,,,
456704,note_on,,,,,0,0,1,,,,0,,,80,33
456704,note_off,,,,,593,0,1,,,,0,,,75,0
456830,control_change,,,,,126,0,1,,,,0,64,0,,
457216,note_off,,,,,386,0,1,,,,0,,,80,0
457728,note_on,,,,,512,0,1,,,,0,,,75,39
457728,note_off,,,,,0,0,1,,,,0,,,51,0
457728,note_off,,,,,0,0,1,,,,0,,,56,0
457728,note_off,,,,,0,0,1,,,,0,,,59,0
457728,note_on,,,,,0,0,1,,,,0,,,51,12
457728,note_on,,,,,0,0,1,,,,0,,,55,12
457728,note_on,,,,,0,0,1,,,,0,,,58,12
457764,control_change,,,,,36,0,1,,,,0,64,127,,
458752,note_off,,,,,988,0,1,,,,0,,,75,0
458752,note_on,,,,,0,0,1,,,,0,,,79,27
458914,control_change,,,,,162,0,1,,,,0,64,0,,
459264,note_off,,,,,350,0,1,,,,0,,,79,0
459776,note_on,,,,,512,0,1,,,,0,,,73,33
459776,note_off,,,,,0,0,1,,,,0,,,51,0
459776,note_off,,,,,0,0,1,,,,0,,,55,0
459776,note_off,,,,,0,0,1,,,,0,,,58,0
459776,note_on,,,,,0,0,1,,,,0,,,52,12
459776,note_on,,,,,0,0,1,,,,0,,,56,12
459776,note_on,,,,,0,0,1,,,,0,,,61,25
459776,set_tempo,,,,,3072,1,0,,461538,,,,,,
459812,control_change,,,,,36,0,1,,,,0,64,127,,
460288,note_off,,,,,476,0,1,,,,0,,,73,0
460288,note_on,,,,,0,0,1,,,,0,,,80,32
460288,set_tempo,,,,,512,1,0,,428571,,,,,,
460800,note_off,,,,,0,0,1,,,,0,,,61,0
460800,note_on,,,,,0,0,1,,,,0,,,59,25
460800,note_off,,,,,0,0,1,,,,0,,,52,0
460800,note_on,,,,,0,0,1,,,,0,,,49,12
460800,note_on,,,,,0,0,1,,,,0,,,76,30
460800,note_off,,,,,512,0,1,,,,0,,,80,0
460800,note_off,,,,,0,0,1,,,,0,,,56,0
460800,note_on,,,,,0,0,1,,,,0,,,56,12
460854,control_change,,,,,54,0,1,,,,0,64,0,,
461141,control_change,,,,,287,0,1,,,,0,64,127,,
461312,note_off,,,,,171,0,1,,,,0,,,76,0
461312,set_tempo,,,,,1024,1,0,,500000,,,,,,
461312,note_on,,,,,0,0,1,,,,0,,,80,29
461824,control_change,,,,,0,0,1,,,,0,64,0,,
461824,set_tempo,,,,,512,1,0,,461538,,,,,,
461824,control_change,,,,,512,0,1,,,,0,64,127,,
461824,note_on,,,,,0,0,1,,,,0,,,56,12
461824,note_on,,,,,0,0,1,,,,0,,,51,12
461824,note_off,,,,,0,0,1,,,,0,,,59,0
461824,note_on,,,,,0,0,1,,,,0,,,59,25
461824,note_off,,,,,0,0,1,,,,0,,,49,0
461824,control_change,,,,,0,0,1,,,,0,64,0,,
461824,control_change,,,,,0,0,1,,,,0,64,0,,
461824,control_change,,,,,0,0,1,,,,0,64,0,,
461824,control_change,,,,,0,0,1,,,,0,64,127,,
461824,control_change,,,,,0,0,1,,,,0,64,0,,
461824,note_off,,,,,0,0,1,,,,0,,,56,0
461824,note_on,,,,,0,0,1,,,,0,,,75,40
461824,control_change,,,,,0,0,1,,,,0,64,0,,
461824,control_change,,,,,0,0,1,,,,0,64,0,,
461824,note_off,,,,,0,0,1,,,,0,,,80,0
462004,control_change,,,,,0,0,1,,,,0,64,0,,
462004,control_change,,,,,180,0,1,,,,0,64,0,,
462255,control_change,,,,,251,0,1,,,,0,64,127,,
462255,control_change,,,,,0,0,1,,,,0,64,127,,
462848,note_off,,,,,593,0,1,,,,0,,,75,0
462848,note_on,,,,,0,0,1,,,,0,,,80,28
462974,control_change,,,,,126,0,1,,,,0,64,0,,
462974,control_change,,,,,0,0,1,,,,0,64,0,,
463360,note_off,,,,,386,0,1,,,,0,,,80,0
463872,note_on,,,,,0,0,1,,,,0,,,55,12
463872,note_on,,,,,0,0,1,,,,0,,,58,12
463872,note_on,,,,,0,0,1,,,,0,,,51,12
463872,note_off,,,,,0,0,1,,,,0,,,59,0
463872,note_on,,,,,512,0,1,,,,0,,,75,33
463872,note_off,,,,,0,0,1,,,,0,,,51,0
463872,note_off,,,,,0,0,1,,,,0,,,56,0
463908,control_change,,,,,36,0,1,,,,0,64,127,,
463908,control_change,,,,,0,0,1,,,,0,64,127,,
464896,note_off,,,,,988,0,1,,,,0,,,75,0
464896,note_on,,,,,0,0,1,,,,0,,,79,27
464896,set_tempo,,,,,3072,1,0,,500000,,,,,,
465058,control_change,,,,,162,0,1,,,,0,64,0,,
465058,control_change,,,,,0,0,1,,,,0,64,0,,
465408,note_off,,,,,350,0,1,,,,0,,,79,0
465920,note_on,,,,,0,0,1,,,,0,,,55,17
465920,set_tempo,,,,,1024,1,0,,461538,,,,,,
465920,note_on,,,,,0,0,1,,,,0,,,51,17
465920,note_on,,,,,0,0,1,,,,0,,,63,33
465920,note_off,,,,,0,0,1,,,,0,,,55,0
465920,note_on,,,,,512,0,1,,,,0,,,79,39
465920,note_off,,,,,0,0,1,,,,0,,,51,0
465920,note_off,,,,,0,0,1,,,,0,,,58,0
465945,control_change,,,,,25,0,1,,,,0,64,127,,
465956,control_change,,,,,11,0,1,,,,0,64,127,,
465979,control_change,,,,,0,0,1,,,,0,64,127,,
465979,control_change,,,,,23,0,1,,,,0,64,127,,
466432,note_on,,,,,0,0,1,,,,0,,,87,38
466432,note_off,,,,,453,0,1,,,,0,,,79,0
466432,set_tempo,,,,,512,1,0,,428571,,,,,,
466944,note_off,,,,,512,0,1,,,,0,,,87,0
466944,note_on,,,,,0,0,1,,,,0,,,79,36
466944,note_on,,,,,0,0,1,,,,0,,,51,17
466944,note_on,,,,,0,0,1,,,,0,,,55,17
466944,note_on,,,,,0,0,1,,,,0,,,58,33
466944,note_off,,,,,0,0,1,,,,0,,,55,0
466944,note_off,,,,,0,0,1,,,,0,,,51,0
466944,note_off,,,,,0,0,1,,,,0,,,63,0
467456,note_off,,,,,512,0,1,,,,0,,,79,0
467456,note_on,,,,,0,0,1,,,,0,,,82,35
467968,note_off,,,,,0,0,1,,,,0,,,82,0
467968,note_on,,,,,0,0,1,,,,0,,,58,33
467968,note_on,,,,,0,0,1,,,,0,,,55,17
467968,set_tempo,,,,,1536,1,0,,461538,,,,,,
467968,note_on,,,,,0,0,1,,,,0,,,51,17
467968,control_change,,,,,512,0,1,,,,0,64,127,,
467968,control_change,,,,,0,0,1,,,,0,64,127,,
467968,note_on,,,,,0,0,1,,,,0,,,82,44
467968,note_off,,,,,0,0,1,,,,0,,,51,0
467968,note_off,,,,,0,0,1,,,,0,,,55,0
467968,note_off,,,,,0,0,1,,,,0,,,58,0
468992,note_off,,,,,1024,0,1,,,,0,,,82,0
468992,note_on,,,,,0,0,1,,,,0,,,79,32
468992,set_tempo,,,,,1024,1,0,,428571,,,,,,
469175,control_change,,,,,183,0,1,,,,0,64,0,,
469175,control_change,,,,,0,0,1,,,,0,64,0,,
469504,note_off,,,,,329,0,1,,,,0,,,79,0
470016,note_off,,,,,0,0,1,,,,0,,,58,0
470016,note_on,,,,,0,0,1,,,,0,,,51,14
470016,note_on,,,,,0,0,1,,,,0,,,58,14
470016,note_off,,,,,0,0,1,,,,0,,,55,0
470016,note_off,,,,,0,0,1,,,,0,,,51,0
470016,note_on,,,,,0,0,1,,,,0,,,55,14
470016,note_on,,,,,512,0,1,,,,0,,,82,37
470052,control_change,,,,,0,0,1,,,,0,64,127,,
470052,control_change,,,,,36,0,1,,,,0,64,127,,
470052,control_change,,,,,0,0,1,,,,0,64,127,,
470052,control_change,,,,,0,0,1,,,,0,64,127,,
471040,note_off,,,,,988,0,1,,,,0,,,82,0
471040,note_on,,,,,0,0,1,,,,0,,,75,25
471202,control_change,,,,,0,0,1,,,,0,64,0,,
471202,control_change,,,,,0,0,1,,,,0,64,0,,
471202,control_change,,,,,0,0,1,,,,0,64,0,,
471202,control_change,,,,,162,0,1,,,,0,64,0,,
471552,note_off,,,,,350,0,1,,,,0,,,75,0
472064,note_off,,,,,0,0,1,,,,0,,,55,0
472064,note_on,,,,,0,0,1,,,,0,,,54,24
472064,note_off,,,,,0,0,1,,,,0,,,58,0
472064,note_on,,,,,0,0,1,,,,0,,,58,12
472064,note_off,,,,,0,0,1,,,,0,,,51,0
472064,note_on,,,,,512,0,1,,,,0,,,78,30
472064,set_tempo,,,,,3072,1,0,,461538,,,,,,
472100,control_change,,,,,36,0,1,,,,0,64,127,,
472100,control_change,,,,,0,0,1,,,,0,64,127,,
472100,control_change,,,,,0,0,1,,,,0,64,127,,
472100,control_change,,,,,0,0,1,,,,0,64,127,,
472576,note_off,,,,,476,0,1,,,,0,,,78,0
472576,set_tempo,,,,,512,1,0,,428571,,,,,,
472576,note_on,,,,,0,0,1,,,,0,,,82,31
473088,note_on,,,,,0,0,1,,,,0,,,58,12
473088,note_on,,,,,0,0,1,,,,0,,,54,12
473088,note_on,,,,,0,0,1,,,,0,,,49,24
473088,note_off,,,,,0,0,1,,,,0,,,54,0
473088,note_off,,,,,512,0,1,,,,0,,,82,0
473088,note_on,,,,,0,0,1,,,,0,,,73,33
473088,note_off,,,,,0,0,1,,,,0,,,58,0
473142,control_change,,,,,0,0,1,,,,0,64,0,,
473142,control_change,,,,,0,0,1,,,,0,64,0,,
473142,control_change,,,,,0,0,1,,,,0,64,0,,
473142,control_change,,,,,54,0,1,,,,0,64,0,,
473429,control_change,,,,,287,0,1,,,,0,64,127,,
473429,control_change,,,,,0,0,1,,,,0,64,127,,
473429,control_change,,,,,0,0,1,,,,0,64,127,,
473429,control_change,,,,,0,0,1,,,,0,64,127,,
473600,note_off,,,,,171,0,1,,,,0,,,73,0
473600,note_on,,,,,0,0,1,,,,0,,,82,34
474112,control_change,,,,,0,0,1,,,,0,64,0,,
474112,note_on,,,,,0,0,1,,,,0,,,73,21
474112,note_off,,,,,0,0,1,,,,0,,,58,0
474112,note_off,,,,,0,0,1,,,,0,,,54,0
474112,note_off,,,,,0,0,1,,,,0,,,49,0
474112,note_off,,,,,0,0,1,,,,0,,,82,0
474112,control_change,,,,,512,0,1,,,,0,64,0,,
474112,control_change,,,,,0,0,1,,,,0,64,127,,
474112,note_on,,,,,0,0,1,,,,0,,,78,36
474112,note_on,,,,,0,0,1,,,,0,,,54,24
474112,note_on,,,,,0,0,1,,,,0,,,58,12
474112,control_change,,,,,0,0,1,,,,0,64,0,,
474112,note_on,,,,,0,0,1,,,,0,,,49,24
474292,control_change,,,,,180,0,1,,,,0,64,0,,
474543,control_change,,,,,251,0,1,,,,0,64,127,,
475136,note_off,,,,,0,0,1,,,,0,,,78,0
475136,note_on,,,,,0,0,1,,,,0,,,82,24
475136,set_tempo,,,,,2560,1,0,,461538,,,,,,
475136,note_off,,,,,593,0,1,,,,0,,,73,0
475262,control_change,,,,,126,0,1,,,,0,64,0,,
475648,note_off,,,,,386,0,1,,,,0,,,82,0
476160,set_tempo,,,,,1024,1,0,,428571,,,,,,
476160,note_off,,,,,0,0,1,,,,0,,,58,0
476160,note_off,,,,,0,0,1,,,,0,,,49,0
476160,note_on,,,,,0,0,1,,,,0,,,58,12
476160,note_off,,,,,0,0,1,,,,0,,,54,0
476160,note_on,,,,,0,0,1,,,,0,,,49,12
476160,note_on,,,,,0,0,1,,,,0,,,78,30
476160,note_on,,,,,512,0,1,,,,0,,,73,15
476160,note_on,,,,,0,0,1,,,,0,,,54,12
476196,control_change,,,,,36,0,1,,,,0,64,127,,
477184,note_off,,,,,988,0,1,,,,0,,,73,0
477184,note_off,,,,,0,0,1,,,,0,,,78,0
477184,note_on,,,,,0,0,1,,,,0,,,82,15
477346,control_change,,,,,162,0,1,,,,0,64,0,,
477696,note_off,,,,,350,0,1,,,,0,,,82,0
478208,note_off,,,,,0,0,1,,,,0,,,58,0
478208,note_off,,,,,0,0,1,,,,0,,,54,0
478208,note_off,,,,,0,0,1,,,,0,,,49,0
478208,note_on,,,,,0,0,1,,,,0,,,56,29
478208,note_on,,,,,0,0,1,,,,0,,,49,10
478208,note_on,,,,,0,0,1,,,,0,,,77,27
478208,note_on,,,,,512,0,1,,,,0,,,73,16
478208,set_tempo,,,,,2048,1,0,,461538,,,,,,
478208,note_on,,,,,0,0,1,,,,0,,,53,10
478244,control_change,,,,,36,0,1,,,,0,64,127,,
478720,note_on,,,,,0,0,1,,,,0,,,80,29
478720,set_tempo,,,,,512,1,0,,413793,,,,,,
478720,note_off,,,,,476,0,1,,,,0,,,73,0
478720,note_off,,,,,0,0,1,,,,0,,,77,0
479232,note_off,,,,,512,0,1,,,,0,,,80,0
479232,note_on,,,,,0,0,1,,,,0,,,77,30
479232,note_on,,,,,0,0,1,,,,0,,,49,12
479232,note_on,,,,,0,0,1,,,,0,,,53,12
479232,note_on,,,,,0,0,1,,,,0,,,56,29
479232,note_off,,,,,0,0,1,,,,0,,,49,0
479232,note_off,,,,,0,0,1,,,,0,,,53,0
479232,note_off,,,,,0,0,1,,,,0,,,56,0
479232,note_on,,,,,0,0,1,,,,0,,,73,17
479286,control_change,,,,,54,0,1,,,,0,64,0,,
479573,control_change,,,,,287,0,1,,,,0,64,127,,
479744,note_on,,,,,0,0,1,,,,0,,,80,32
479744,note_off,,,,,0,0,1,,,,0,,,77,0
479744,note_off,,,,,171,0,1,,,,0,,,73,0
480256,control_change,,,,,512,0,1,,,,0,64,127,,
480256,note_on,,,,,0,0,1,,,,0,,,59,35
480256,note_on,,,,,0,0,1,,,,0,,,56,17
480256,note_on,,,,,0,0,1,,,,0,,,80,36
480256,note_on,,,,,0,0,1,,,,0,,,73,22
480256,note_off,,,,,0,0,1,,,,0,,,56,0
480256,note_off,,,,,0,0,1,,,,0,,,53,0
480256,note_on,,,,,0,0,1,,,,0,,,49,17
480256,note_off,,,,,0,0,1,,,,0,,,80,0
480256,control_change,,,,,0,0,1,,,,0,64,0,,
480256,control_change,,,,,0,0,1,,,,0,64,0,,
480256,control_change,,,,,0,0,1,,,,0,64,127,,
480256,control_change,,,,,0,0,1,,,,0,64,0,,
480256,control_change,,,,,0,0,1,,,,0,64,0,,
480256,control_change,,,,,0,0,1,,,,0,64,0,,
480256,note_off,,,,,0,0,1,,,,0,,,49,0
480436,control_change,,,,,180,0,1,,,,0,64,0,,
480436,control_change,,,,,0,0,1,,,,0,64,0,,
480687,control_change,,,,,0,0,1,,,,0,64,127,,
480687,control_change,,,,,251,0,1,,,,0,64,127,,
481280,note_off,,,,,593,0,1,,,,0,,,73,0
481280,note_off,,,,,0,0,1,,,,0,,,80,0
481280,note_on,,,,,0,0,1,,,,0,,,83,24
481280,set_tempo,,,,,2560,1,0,,461538,,,,,,
481406,control_change,,,,,126,0,1,,,,0,64,0,,
481406,control_change,,,,,0,0,1,,,,0,64,0,,
481792,note_off,,,,,386,0,1,,,,0,,,83,0
482304,note_off,,,,,0,0,1,,,,0,,,59,0
482304,set_tempo,,,,,1024,1,0,,428571,,,,,,
482304,note_off,,,,,0,0,1,,,,0,,,49,0
482304,note_off,,,,,0,0,1,,,,0,,,56,0
482304,note_on,,,,,0,0,1,,,,0,,,56,10
482304,note_on,,,,,512,0,1,,,,0,,,73,15
482304,note_on,,,,,0,0,1,,,,0,,,80,29
482304,note_on,,,,,0,0,1,,,,0,,,49,10
482304,note_on,,,,,0,0,1,,,,0,,,59,24
482340,control_change,,,,,36,0,1,,,,0,64,127,,
482340,control_change,,,,,0,0,1,,,,0,64,127,,
483328,note_off,,,,,988,0,1,,,,0,,,73,0
483328,note_off,,,,,0,0,1,,,,0,,,80,0
483328,note_on,,,,,0,0,1,,,,0,,,83,15
483490,control_change,,,,,162,0,1,,,,0,64,0,,
483490,control_change,,,,,0,0,1,,,,0,64,0,,
483840,note_off,,,,,350,0,1,,,,0,,,83,0
484340,control_change,,,,,500,0,1,,,,0,64,127,,
484352,set_tempo,,,,,2048,1,0,,461538,,,,,,
484352,note_off,,,,,0,0,1,,,,0,,,56,0
484352,note_off,,,,,0,0,1,,,,0,,,59,0
484352,note_on,,,,,0,0,1,,,,0,,,58,30
484352,note_on,,,,,0,0,1,,,,0,,,54,9
484352,note_on,,,,,12,0,1,,,,0,,,73,14
484352,note_on,,,,,0,0,1,,,,0,,,78,30
484352,note_on,,,,,0,0,1,,,,0,,,49,9
484352,note_off,,,,,0,0,1,,,,0,,,49,0
484377,control_change,,,,,25,0,1,,,,0,64,127,,
484864,set_tempo,,,,,512,1,0,,413793,,,,,,
484864,note_on,,,,,0,0,1,,,,0,,,82,29
484864,note_off,,,,,0,0,1,,,,0,,,78,0
484864,note_off,,,,,487,0,1,,,,0,,,73,0
485376,note_on,,,,,0,0,1,,,,0,,,78,35
485376,note_off,,,,,512,0,1,,,,0,,,82,0
485376,note_on,,,,,0,0,1,,,,0,,,54,13
485376,note_on,,,,,0,0,1,,,,0,,,58,30
485376,note_off,,,,,0,0,1,,,,0,,,49,0
485376,note_off,,,,,0,0,1,,,,0,,,54,0
485376,note_off,,,,,0,0,1,,,,0,,,58,0
485376,note_on,,,,,0,0,1,,,,0,,,73,18
485376,note_on,,,,,0,0,1,,,,0,,,49,13
485888,note_on,,,,,0,0,1,,,,0,,,82,32
485888,note_off,,,,,0,0,1,,,,0,,,78,0
485888,note_off,,,,,512,0,1,,,,0,,,73,0
486400,note_off,,,,,0,0,1,,,,0,,,58,0
486400,note_on,,,,,0,0,1,,,,0,,,73,17
486400,note_on,,,,,0,0,1,,,,0,,,82,38
486400,note_on,,,,,0,0,1,,,,0,,,49,16
486400,note_on,,,,,0,0,1,,,,0,,,58,16
486400,note_on,,,,,0,0,1,,,,0,,,61,37
486400,note_off,,,,,512,0,1,,,,0,,,82,0
486400,note_off,,,,,0,0,1,,,,0,,,49,0
486400,note_off,,,,,0,0,1,,,,0,,,54,0
486436,control_change,,,,,36,0,1,,,,0,64,127,,
486471,control_change,,,,,35,0,1,,,,0,64,127,,
487424,set_tempo,,,,,2560,1,0,,461538,,,,,,
487424,note_on,,,,,0,0,1,,,,0,,,85,33
487424,note_off,,,,,0,0,1,,,,0,,,82,0
487424,note_off,,,,,953,0,1,,,,0,,,73,0
487550,control_change,,,,,0,0,1,,,,0,64,0,,
487550,control_change,,,,,126,0,1,,,,0,64,0,,
487936,note_off,,,,,386,0,1,,,,0,,,85,0
488448,note_off,,,,,0,0,1,,,,0,,,61,0
488448,note_on,,,,,0,0,1,,,,0,,,59,33
488448,note_off,,,,,0,0,1,,,,0,,,49,0
488448,set_tempo,,,,,1024,1,0,,428571,,,,,,
488448,note_on,,,,,0,0,1,,,,0,,,56,14
488448,note_on,,,,,0,0,1,,,,0,,,49,14
488448,note_on,,,,,0,0,1,,,,0,,,80,34
488448,note_on,,,,,512,0,1,,,,0,,,73,13
488448,note_off,,,,,0,0,1,,,,0,,,58,0
488484,control_change,,,,,36,0,1,,,,0,64,127,,
488484,control_change,,,,,0,0,1,,,,0,64,127,,
488960,note_off,,,,,476,0,1,,,,0,,,73,0
488960,note_off,,,,,0,0,1,,,,0,,,80,0
488960,note_on,,,,,0,0,1,,,,0,,,83,30
489049,control_change,,,,,89,0,1,,,,0,64,127,,
489049,control_change,,,,,0,0,1,,,,0,64,127,,
489472,note_off,,,,,0,0,1,,,,0,,,59,0
489472,note_on,,,,,0,0,1,,,,0,,,54,13
489472,note_off,,,,,423,0,1,,,,0,,,83,0
489472,note_on,,,,,0,0,1,,,,0,,,73,11
489472,note_on,,,,,0,0,1,,,,0,,,78,32
489472,note_on,,,,,0,0,1,,,,0,,,49,13
489472,note_on,,,,,0,0,1,,,,0,,,58,32
489472,note_off,,,,,0,0,1,,,,0,,,49,0
489472,note_off,,,,,0,0,1,,,,0,,,56,0
489984,note_off,,,,,512,0,1,,,,0,,,73,0
489984,note_off,,,,,0,0,1,,,,0,,,78,0
489984,note_on,,,,,0,0,1,,,,0,,,82,30
490484,control_change,,,,,500,0,1,,,,0,64,0,,
490484,control_change,,,,,0,0,1,,,,0,64,0,,
490496,note_off,,,,,0,0,1,,,,0,,,58,0
490496,set_tempo,,,,,2048,1,0,,461538,,,,,,
490496,note_off,,,,,0,0,1,,,,0,,,49,0
490496,note_on,,,,,0,0,1,,,,0,,,59,30
490496,note_on,,,,,0,0,1,,,,0,,,56,12
490496,note_on,,,,,0,0,1,,,,0,,,49,12
490496,note_on,,,,,0,0,1,,,,0,,,80,29
490496,note_on,,,,,0,0,1,,,,0,,,73,8
490496,note_off,,,,,12,0,1,,,,0,,,82,0
490496,note_off,,,,,0,0,1,,,,0,,,54,0
490741,control_change,,,,,245,0,1,,,,0,64,127,,
490741,control_change,,,,,0,0,1,,,,0,64,127,,
491520,note_off,,,,,779,0,1,,,,0,,,73,0
491520,note_off,,,,,0,0,1,,,,0,,,80,0
491520,note_on,,,,,0,0,1,,,,0,,,83,18
491574,control_change,,,,,54,0,1,,,,0,64,0,,
491574,control_change,,,,,0,0,1,,,,0,64,0,,
491861,control_change,,,,,287,0,1,,,,0,64,127,,
491861,control_change,,,,,0,0,1,,,,0,64,127,,
492032,note_off,,,,,171,0,1,,,,0,,,83,0
492544,set_tempo,,,,,2048,1,0,,428571,,,,,,
492544,note_on,,,,,0,0,1,,,,0,,,54,12
492544,note_on,,,,,0,0,1,,,,0,,,78,25
492544,note_on,,,,,0,0,1,,,,0,,,73,12
492544,note_off,,,,,0,0,1,,,,0,,,59,0
492544,note_off,,,,,0,0,1,,,,0,,,56,0
492544,note_off,,,,,0,0,1,,,,0,,,49,0
492544,control_change,,,,,0,0,1,,,,0,64,0,,
492544,control_change,,,,,0,0,1,,,,0,64,0,,
492544,control_change,,,,,0,0,1,,,,0,64,127,,
492544,control_change,,,,,512,0,1,,,,0,64,0,,
492544,note_on,,,,,0,0,1,,,,0,,,58,18
492724,control_change,,,,,180,0,1,,,,0,64,0,,
492975,control_change,,,,,251,0,1,,,,0,64,127,,
493568,note_on,,,,,0,0,1,,,,0,,,82,13
493568,note_off,,,,,0,0,1,,,,0,,,78,0
493568,note_off,,,,,593,0,1,,,,0,,,73,0
493694,control_change,,,,,126,0,1,,,,0,64,0,,
494080,note_off,,,,,386,0,1,,,,0,,,82,0
494592,note_on,,,,,0,0,1,,,,0,,,58,15
494592,note_on,,,,,0,0,1,,,,0,,,54,9
494592,note_on,,,,,0,0,1,,,,0,,,78,25
494592,note_on,,,,,512,0,1,,,,0,,,73,12
494592,note_off,,,,,0,0,1,,,,0,,,54,0
494592,note_off,,,,,0,0,1,,,,0,,,58,0
494628,control_change,,,,,36,0,1,,,,0,64,127,,
495616,note_off,,,,,988,0,1,,,,0,,,73,0
495616,note_off,,,,,0,0,1,,,,0,,,78,0
495616,note_on,,,,,0,0,1,,,,0,,,82,11
495778,control_change,,,,,162,0,1,,,,0,64,0,,
496128,note_off,,,,,350,0,1,,,,0,,,82,0
496640,note_on,,,,,512,0,1,,,,0,,,75,34
496640,note_off,,,,,0,0,1,,,,0,,,54,0
496640,note_off,,,,,0,0,1,,,,0,,,58,0
496640,note_on,,,,,0,0,1,,,,0,,,51,15
496640,note_on,,,,,0,0,1,,,,0,,,54,15
496640,set_tempo,,,,,4096,1,0,,500000,,,,,,
496640,note_on,,,,,0,0,1,,,,0,,,58,15
496676,control_change,,,,,36,0,1,,,,0,64,127,,
497152,set_tempo,,,,,512,1,0,,428571,,,,,,
497152,note_on,,,,,0,0,1,,,,0,,,70,32
497152,note_off,,,,,476,0,1,,,,0,,,75,0
497664,set_tempo,,,,,512,1,0,,413793,,,,,,
497664,note_off,,,,,0,0,1,,,,0,,,58,0
497664,note_off,,,,,0,0,1,,,,0,,,54,0
497664,note_off,,,,,0,0,1,,,,0,,,51,0
497664,note_on,,,,,0,0,1,,,,0,,,58,15
497664,note_on,,,,,0,0,1,,,,0,,,54,15
497664,note_on,,,,,0,0,1,,,,0,,,51,15
497664,note_on,,,,,0,0,1,,,,0,,,70,30
497664,note_off,,,,,512,0,1,,,,0,,,70,0
497718,control_change,,,,,54,0,1,,,,0,64,0,,
498005,control_change,,,,,287,0,1,,,,0,64,127,,
498176,note_on,,,,,0,0,1,,,,0,,,66,28
498176,note_off,,,,,171,0,1,,,,0,,,70,0
498688,control_change,,,,,0,0,1,,,,0,64,127,,
498688,control_change,,,,,0,0,1,,,,0,64,0,,
498688,control_change,,,,,0,0,1,,,,0,64,0,,
498688,control_change,,,,,512,0,1,,,,0,64,0,,
498688,control_change,,,,,0,0,1,,,,0,64,0,,
498688,set_tempo,,,,,1024,1,0,,428571,,,,,,
498688,note_off,,,,,0,0,1,,,,0,,,54,0
498688,note_off,,,,,0,0,1,,,,0,,,58,0
498688,note_on,,,,,0,0,1,,,,0,,,70,26
498688,note_on,,,,,0,0,1,,,,0,,,51,15
498688,note_on,,,,,0,0,1,,,,0,,,54,15
498688,note_on,,,,,0,0,1,,,,0,,,58,15
498688,note_off,,,,,0,0,1,,,,0,,,51,0
498688,note_off,,,,,0,0,1,,,,0,,,66,0
498868,control_change,,,,,180,0,1,,,,0,64,0,,
499119,control_change,,,,,251,0,1,,,,0,64,127,,
499712,note_off,,,,,593,0,1,,,,0,,,70,0
499712,note_on,,,,,0,0,1,,,,0,,,66,20
499838,control_change,,,,,126,0,1,,,,0,64,0,,
500224,note_off,,,,,386,0,1,,,,0,,,66,0
500736,note_off,,,,,0,0,1,,,,0,,,51,0
500736,note_off,,,,,0,0,1,,,,0,,,54,0
500736,note_off,,,,,0,0,1,,,,0,,,58,0
500736,note_on,,,,,0,0,1,,,,0,,,54,9
500736,note_on,,,,,0,0,1,,,,0,,,58,9
500736,note_on,,,,,0,0,1,,,,0,,,51,9
500736,note_on,,,,,512,0,1,,,,0,,,70,26
500772,control_change,,,,,36,0,1,,,,0,64,127,,
501760,note_on,,,,,0,0,1,,,,0,,,66,18
501760,note_off,,,,,988,0,1,,,,0,,,70,0
501922,control_change,,,,,162,0,1,,,,0,64,0,,
502272,note_off,,,,,350,0,1,,,,0,,,66,0
502784,note_on,,,,,0,0,1,,,,0,,,54,15
502784,note_on,,,,,0,0,1,,,,0,,,66,36
502784,note_on,,,,,512,0,1,,,,0,,,63,24
502784,note_on,,,,,0,0,1,,,,0,,,58,15
502784,note_off,,,,,0,0,1,,,,0,,,51,0
502784,note_off,,,,,0,0,1,,,,0,,,54,0
502784,note_off,,,,,0,0,1,,,,0,,,58,0
502784,note_on,,,,,0,0,1,,,,0,,,51,15
502784,set_tempo,,,,,4096,1,0,,500000,,,,,,
502820,control_change,,,,,36,0,1,,,,0,64,127,,
503296,note_off,,,,,476,0,1,,,,0,,,63,0
503296,note_off,,,,,0,0,1,,,,0,,,66,0
503296,note_on,,,,,0,0,1,,,,0,,,71,34
503296,set_tempo,,,,,512,1,0,,428571,,,,,,
503808,note_on,,,,,0,0,1,,,,0,,,63,20
503808,note_off,,,,,0,0,1,,,,0,,,54,0
503808,note_off,,,,,0,0,1,,,,0,,,51,0
503808,note_on,,,,,0,0,1,,,,0,,,58,15
503808,note_on,,,,,0,0,1,,,,0,,,54,15
503808,note_off,,,,,0,0,1,,,,0,,,58,0
503808,set_tempo,,,,,512,1,0,,413793,,,,,,
503808,note_off,,,,,512,0,1,,,,0,,,71,0
503808,note_on,,,,,0,0,1,,,,0,,,46,15
503808,note_on,,,,,0,0,1,,,,0,,,66,32
503862,control_change,,,,,54,0,1,,,,0,64,0,,
504149,control_change,,,,,287,0,1,,,,0,64,127,,
504320,note_off,,,,,171,0,1,,,,0,,,63,0
504320,note_off,,,,,0,0,1,,,,0,,,66,0
504320,note_on,,,,,0,0,1,,,,0,,,70,30
504832,note_off,,,,,0,0,1,,,,0,,,70,0
504832,note_off,,,,,0,0,1,,,,0,,,46,0
504832,note_off,,,,,0,0,1,,,,0,,,58,0
504832,note_on,,,,,0,0,1,,,,0,,,58,15
504832,note_on,,,,,0,0,1,,,,0,,,53,15
504832,note_on,,,,,0,0,1,,,,0,,,46,15
504832,note_on,,,,,0,0,1,,,,0,,,65,26
504832,note_on,,,,,0,0,1,,,,0,,,62,14
504832,note_off,,,,,0,0,1,,,,0,,,54,0
504832,control_change,,,,,0,0,1,,,,0,64,0,,
504832,control_change,,,,,0,0,1,,,,0,64,0,,
504832,control_change,,,,,0,0,1,,,,0,64,127,,
504832,control_change,,,,,512,0,1,,,,0,64,0,,
504832,control_change,,,,,0,0,1,,,,0,64,0,,
504832,set_tempo,,,,,1024,1,0,,428571,,,,,,
505012,control_change,,,,,180,0,1,,,,0,64,0,,
505263,control_change,,,,,251,0,1,,,,0,64,127,,
505856,note_on,,,,,0,0,1,,,,0,,,70,20
505856,note_off,,,,,0,0,1,,,,0,,,65,0
505856,note_off,,,,,593,0,1,,,,0,,,62,0
505982,control_change,,,,,126,0,1,,,,0,64,0,,
506368,note_off,,,,,386,0,1,,,,0,,,70,0
506880,note_off,,,,,0,0,1,,,,0,,,46,0
506880,note_on,,,,,512,0,1,,,,0,,,62,14
506880,note_on,,,,,0,0,1,,,,0,,,65,26
506880,note_on,,,,,0,0,1,,,,0,,,46,9
506880,note_on,,,,,0,0,1,,,,0,,,53,9
506880,note_on,,,,,0,0,1,,,,0,,,58,9
506880,note_off,,,,,0,0,1,,,,0,,,58,0
506880,note_off,,,,,0,0,1,,,,0,,,53,0
506916,control_change,,,,,36,0,1,,,,0,64,127,,
507904,note_off,,,,,988,0,1,,,,0,,,62,0
507904,note_off,,,,,0,0,1,,,,0,,,65,0
507904,note_on,,,,,0,0,1,,,,0,,,70,11
508066,control_change,,,,,162,0,1,,,,0,64,0,,
508416,note_off,,,,,350,0,1,,,,0,,,70,0
508928,set_tempo,,,,,4096,1,0,,500000,,,,,,
508928,note_on,,,,,512,0,1,,,,0,,,70,34
508928,note_off,,,,,0,0,1,,,,0,,,46,0
508928,note_off,,,,,0,0,1,,,,0,,,53,0
508928,note_off,,,,,0,0,1,,,,0,,,58,0
508928,note_on,,,,,0,0,1,,,,0,,,54,12
508928,note_on,,,,,0,0,1,,,,0,,,58,12
508964,control_change,,,,,36,0,1,,,,0,64,127,,
509440,set_tempo,,,,,512,1,0,,428571,,,,,,
509440,note_off,,,,,476,0,1,,,,0,,,70,0
509440,note_on,,,,,0,0,1,,,,0,,,75,32
509952,note_off,,,,,0,0,1,,,,0,,,58,0
509952,note_off,,,,,0,0,1,,,,0,,,54,0
509952,note_on,,,,,0,0,1,,,,0,,,54,12
509952,note_on,,,,,0,0,1,,,,0,,,51,12
509952,note_on,,,,,0,0,1,,,,0,,,58,12
509952,note_off,,,,,512,0,1,,,,0,,,75,0
509952,set_tempo,,,,,512,1,0,,413793,,,,,,
509952,note_on,,,,,0,0,1,,,,0,,,66,30
510006,control_change,,,,,54,0,1,,,,0,64,0,,
510293,control_change,,,,,287,0,1,,,,0,64,127,,
510464,note_off,,,,,171,0,1,,,,0,,,66,0
510464,note_on,,,,,0,0,1,,,,0,,,70,28
510976,note_on,,,,,0,0,1,,,,0,,,51,12
510976,note_on,,,,,0,0,1,,,,0,,,70,26
510976,note_off,,,,,0,0,1,,,,0,,,58,0
510976,note_off,,,,,0,0,1,,,,0,,,54,0
510976,note_off,,,,,0,0,1,,,,0,,,51,0
510976,note_off,,,,,0,0,1,,,,0,,,70,0
510976,control_change,,,,,0,0,1,,,,0,64,0,,
510976,control_change,,,,,0,0,1,,,,0,64,0,,
510976,control_change,,,,,0,0,1,,,,0,64,127,,
510976,control_change,,,,,512,0,1,,,,0,64,0,,
510976,set_tempo,,,,,1024,1,0,,428571,,,,,,
510976,note_on,,,,,0,0,1,,,,0,,,54,12
510976,control_change,,,,,0,0,1,,,,0,64,0,,
510976,note_on,,,,,0,0,1,,,,0,,,58,12
511156,control_change,,,,,180,0,1,,,,0,64,0,,
511407,control_change,,,,,251,0,1,,,,0,64,127,,
512000,note_off,,,,,593,0,1,,,,0,,,70,0
512000,note_on,,,,,0,0,1,,,,0,,,66,15
512126,control_change,,,,,126,0,1,,,,0,64,0,,
512512,note_off,,,,,386,0,1,,,,0,,,66,0
513024,note_on,,,,,0,0,1,,,,0,,,54,9
513024,note_on,,,,,0,0,1,,,,0,,,51,9
513024,note_off,,,,,0,0,1,,,,0,,,58,0
513024,note_on,,,,,0,0,1,,,,0,,,58,9
513024,note_off,,,,,0,0,1,,,,0,,,51,0
513024,note_on,,,,,512,0,1,,,,0,,,70,23
513024,note_off,,,,,0,0,1,,,,0,,,54,0
513060,control_change,,,,,36,0,1,,,,0,64,127,,
514048,note_off,,,,,988,0,1,,,,0,,,70,0
514048,note_on,,,,,0,0,1,,,,0,,,63,14
514210,control_change,,,,,162,0,1,,,,0,64,0,,
514560,note_off,,,,,350,0,1,,,,0,,,63,0
515072,note_off,,,,,0,0,1,,,,0,,,58,0
515072,note_off,,,,,0,0,1,,,,0,,,54,0
515072,note_off,,,,,0,0,1,,,,0,,,51,0
515072,note_on,,,,,0,0,1,,,,0,,,58,12
515072,note_on,,,,,0,0,1,,,,0,,,51,12
515072,note_on,,,,,0,0,1,,,,0,,,66,31
515072,note_on,,,,,512,0,1,,,,0,,,63,20
515072,set_tempo,,,,,4096,1,0,,500000,,,,,,
515072,note_on,,,,,0,0,1,,,,0,,,54,12
515108,control_change,,,,,36,0,1,,,,0,64,127,,
515584,note_off,,,,,476,0,1,,,,0,,,63,0
515584,note_off,,,,,0,0,1,,,,0,,,66,0
515584,note_on,,,,,0,0,1,,,,0,,,71,30
515584,set_tempo,,,,,512,1,0,,428571,,,,,,
516096,note_off,,,,,0,0,1,,,,0,,,58,0
516096,note_off,,,,,0,0,1,,,,0,,,54,0
516096,note_on,,,,,0,0,1,,,,0,,,58,12
516096,note_off,,,,,0,0,1,,,,0,,,51,0
516096,note_on,,,,,0,0,1,,,,0,,,46,12
516096,note_on,,,,,0,0,1,,,,0,,,54,12
516096,note_on,,,,,0,0,1,,,,0,,,63,17
516096,note_on,,,,,0,0,1,,,,0,,,66,29
516096,note_off,,,,,512,0,1,,,,0,,,71,0
516150,control_change,,,,,54,0,1,,,,0,64,0,,
516437,control_change,,,,,287,0,1,,,,0,64,127,,
516608,note_off,,,,,171,0,1,,,,0,,,63,0
516608,note_off,,,,,0,0,1,,,,0,,,66,0
516608,note_on,,,,,0,0,1,,,,0,,,70,28
517120,note_on,,,,,0,0,1,,,,0,,,58,12
517120,note_on,,,,,0,0,1,,,,0,,,53,12
517120,note_on,,,,,0,0,1,,,,0,,,46,12
517120,note_on,,,,,0,0,1,,,,0,,,65,22
517120,note_on,,,,,0,0,1,,,,0,,,62,10
517120,note_off,,,,,0,0,1,,,,0,,,58,0
517120,note_off,,,,,0,0,1,,,,0,,,54,0
517120,control_change,,,,,0,0,1,,,,0,64,0,,
517120,note_off,,,,,0,0,1,,,,0,,,70,0
517120,control_change,,,,,0,0,1,,,,0,64,0,,
517120,control_change,,,,,0,0,1,,,,0,64,0,,
517120,control_change,,,,,0,0,1,,,,0,64,0,,
517120,control_change,,,,,0,0,1,,,,0,64,0,,
517120,control_change,,,,,0,0,1,,,,0,64,127,,
517120,control_change,,,,,512,0,1,,,,0,64,0,,
517120,note_off,,,,,0,0,1,,,,0,,,46,0
517120,control_change,,,,,0,0,1,,,,0,64,127,,
517120,control_change,,,,,0,0,1,,,,0,64,0,,
517120,set_tempo,,,,,1536,1,0,,428571,,,,,,
517300,control_change,,,,,0,0,1,,,,0,64,0,,
517300,control_change,,,,,180,0,1,,,,0,64,0,,
517551,control_change,,,,,0,0,1,,,,0,64,127,,
517551,control_change,,,,,251,0,1,,,,0,64,127,,
518144,note_off,,,,,0,0,1,,,,0,,,65,0
518144,note_off,,,,,593,0,1,,,,0,,,62,0
518144,note_on,,,,,0,0,1,,,,0,,,70,13
518270,control_change,,,,,126,0,1,,,,0,64,0,,
518270,control_change,,,,,0,0,1,,,,0,64,0,,
518656,note_off,,,,,386,0,1,,,,0,,,70,0
519168,note_on,,,,,512,0,1,,,,0,,,62,10
519168,note_off,,,,,0,0,1,,,,0,,,58,0
519168,note_off,,,,,0,0,1,,,,0,,,46,0
519168,note_on,,,,,0,0,1,,,,0,,,58,9
519168,note_on,,,,,0,0,1,,,,0,,,53,9
519168,note_off,,,,,0,0,1,,,,0,,,53,0
519168,note_on,,,,,0,0,1,,,,0,,,65,22
519168,note_on,,,,,0,0,1,,,,0,,,46,9
519204,control_change,,,,,36,0,1,,,,0,64,127,,
519204,control_change,,,,,0,0,1,,,,0,64,127,,
520192,note_off,,,,,988,0,1,,,,0,,,62,0
520192,note_off,,,,,0,0,1,,,,0,,,65,0
520192,note_on,,,,,0,0,1,,,,0,,,70,13
520354,control_change,,,,,162,0,1,,,,0,64,0,,
520354,control_change,,,,,0,0,1,,,,0,64,0,,
520704,note_off,,,,,350,0,1,,,,0,,,70,0
521216,note_on,,,,,0,0,1,,,,0,,,53,10
521216,note_off,,,,,0,0,1,,,,0,,,58,0
521216,note_on,,,,,0,0,1,,,,0,,,56,10
521216,note_off,,,,,0,0,1,,,,0,,,53,0
521216,note_on,,,,,0,0,1,,,,0,,,61,22
521216,note_on,,,,,512,0,1,,,,0,,,68,26
521216,set_tempo,,,,,4096,1,0,,500000,,,,,,
521216,note_off,,,,,0,0,1,,,,0,,,46,0
521252,control_change,,,,,36,0,1,,,,0,64,127,,
521252,control_change,,,,,0,0,1,,,,0,64,127,,
521728,set_tempo,,,,,512,1,0,,428571,,,,,,
521728,note_off,,,,,476,0,1,,,,0,,,68,0
521728,note_on,,,,,0,0,1,,,,0,,,73,26
522240,note_off,,,,,0,0,1,,,,0,,,56,0
522240,note_off,,,,,0,0,1,,,,0,,,53,0
522240,note_on,,,,,0,0,1,,,,0,,,56,22
522240,note_off,,,,,0,0,1,,,,0,,,61,0
522240,note_on,,,,,0,0,1,,,,0,,,49,10
522240,note_on,,,,,0,0,1,,,,0,,,65,28
522240,note_off,,,,,512,0,1,,,,0,,,73,0
522240,note_on,,,,,0,0,1,,,,0,,,53,10
522294,control_change,,,,,54,0,1,,,,0,64,0,,
522294,control_change,,,,,0,0,1,,,,0,64,0,,
522581,control_change,,,,,287,0,1,,,,0,64,127,,
522581,control_change,,,,,0,0,1,,,,0,64,127,,
522752,note_on,,,,,0,0,1,,,,0,,,68,28
522752,note_off,,,,,171,0,1,,,,0,,,65,0
523264,note_on,,,,,0,0,1,,,,0,,,49,22
523264,control_change,,,,,512,0,1,,,,0,64,0,,
523264,control_change,,,,,0,0,1,,,,0,64,127,,
523264,control_change,,,,,0,0,1,,,,0,64,0,,
523264,note_off,,,,,0,0,1,,,,0,,,68,0
523264,note_off,,,,,0,0,1,,,,0,,,49,0
523264,note_off,,,,,0,0,1,,,,0,,,53,0
523264,note_off,,,,,0,0,1,,,,0,,,56,0
523264,note_on,,,,,0,0,1,,,,0,,,68,26
523264,note_on,,,,,0,0,1,,,,0,,,56,13
523264,note_on,,,,,0,0,1,,,,0,,,53,13
523444,control_change,,,,,180,0,1,,,,0,64,0,,
523695,control_change,,,,,251,0,1,,,,0,64,127,,
524288,note_off,,,,,593,0,1,,,,0,,,68,0
524288,note_on,,,,,0,0,1,,,,0,,,65,14
524288,set_tempo,,,,,2560,1,0,,461538,,,,,,
524414,control_change,,,,,126,0,1,,,,0,64,0,,
524800,note_off,,,,,386,0,1,,,,0,,,65,0
525312,note_on,,,,,512,0,1,,,,0,,,68,26
525312,note_off,,,,,0,0,1,,,,0,,,49,0
525312,note_off,,,,,0,0,1,,,,0,,,53,0
525312,note_off,,,,,0,0,1,,,,0,,,56,0
525312,note_on,,,,,0,0,1,,,,0,,,49,12
525312,note_on,,,,,0,0,1,,,,0,,,53,12
525312,note_on,,,,,0,0,1,,,,0,,,56,12
525312,set_tempo,,,,,1024,1,0,,428571,,,,,,
525348,control_change,,,,,36,0,1,,,,0,64,127,,
526336,note_on,,,,,0,0,1,,,,0,,,65,5
526336,note_off,,,,,988,0,1,,,,0,,,68,0
526498,control_change,,,,,162,0,1,,,,0,64,0,,
526848,note_off,,,,,350,0,1,,,,0,,,65,0
527360,note_on,,,,,512,0,1,,,,0,,,80,37
527360,note_off,,,,,0,0,1,,,,0,,,49,0
527360,note_off,,,,,0,0,1,,,,0,,,53,0
527360,note_off,,,,,0,0,1,,,,0,,,56,0
527360,note_on,,,,,0,0,1,,,,0,,,49,14
527360,note_on,,,,,0,0,1,,,,0,,,53,14
527360,note_on,,,,,0,0,1,,,,0,,,61,32
527360,set_tempo,,,,,2048,1,0,,500000,,,,,,
527396,control_change,,,,,36,0,1,,,,0,64,127,,
527872,set_tempo,,,,,512,1,0,,461538,,,,,,
527872,note_off,,,,,476,0,1,,,,0,,,80,0
527872,note_on,,,,,0,0,1,,,,0,,,85,39
528384,note_off,,,,,512,0,1,,,,0,,,85,0
528384,note_on,,,,,0,0,1,,,,0,,,77,40
528384,note_off,,,,,0,0,1,,,,0,,,61,0
528384,note_on,,,,,0,0,1,,,,0,,,49,14
528384,note_on,,,,,0,0,1,,,,0,,,53,14
528384,note_on,,,,,0,0,1,,,,0,,,56,26
528384,note_off,,,,,0,0,1,,,,0,,,49,0
528384,note_off,,,,,0,0,1,,,,0,,,53,0
528438,control_change,,,,,54,0,1,,,,0,64,0,,
528725,control_change,,,,,287,0,1,,,,0,64,127,,
528896,note_off,,,,,171,0,1,,,,0,,,77,0
528896,note_on,,,,,0,0,1,,,,0,,,80,42
529408,note_on,,,,,0,0,1,,,,0,,,56,29
529408,set_tempo,,,,,1536,1,0,,461538,,,,,,
529408,note_on,,,,,0,0,1,,,,0,,,53,14
529408,note_on,,,,,0,0,1,,,,0,,,49,14
529408,note_on,,,,,0,0,1,,,,0,,,80,40
529408,note_off,,,,,0,0,1,,,,0,,,53,0
529408,note_off,,,,,0,0,1,,,,0,,,80,0
529408,control_change,,,,,0,0,1,,,,0,64,0,,
529408,control_change,,,,,0,0,1,,,,0,64,0,,
529408,control_change,,,,,0,0,1,,,,0,64,127,,
529408,control_change,,,,,512,0,1,,,,0,64,0,,
529408,note_off,,,,,0,0,1,,,,0,,,56,0
529408,note_off,,,,,0,0,1,,,,0,,,49,0
529588,control_change,,,,,180,0,1,,,,0,64,0,,
529839,control_change,,,,,251,0,1,,,,0,64,127,,
530432,note_off,,,,,593,0,1,,,,0,,,80,0
530432,note_on,,,,,0,0,1,,,,0,,,77,28
530432,set_tempo,,,,,1024,1,0,,428571,,,,,,
530558,control_change,,,,,126,0,1,,,,0,64,0,,
530944,note_off,,,,,386,0,1,,,,0,,,77,0
531456,note_on,,,,,512,0,1,,,,0,,,80,34
531456,note_off,,,,,0,0,1,,,,0,,,49,0
531456,note_off,,,,,0,0,1,,,,0,,,53,0
531456,note_off,,,,,0,0,1,,,,0,,,56,0
531456,note_on,,,,,0,0,1,,,,0,,,49,12
531456,note_on,,,,,0,0,1,,,,0,,,53,12
531456,note_on,,,,,0,0,1,,,,0,,,56,12
531492,control_change,,,,,36,0,1,,,,0,64,127,,
532480,note_off,,,,,988,0,1,,,,0,,,80,0
532480,note_on,,,,,0,0,1,,,,0,,,68,19
532642,control_change,,,,,162,0,1,,,,0,64,0,,
532992,note_off,,,,,350,0,1,,,,0,,,68,0
533504,note_off,,,,,0,0,1,,,,0,,,49,0
533504,set_tempo,,,,,3072,1,0,,428571,,,,,,
533504,note_off,,,,,0,0,1,,,,0,,,53,0
533504,note_off,,,,,0,0,1,,,,0,,,56,0
533504,note_on,,,,,0,0,1,,,,0,,,49,14
533504,note_on,,,,,0,0,1,,,,0,,,54,14
533504,note_on,,,,,0,0,1,,,,0,,,58,32
533504,note_on,,,,,512,0,1,,,,0,,,78,37
533540,control_change,,,,,36,0,1,,,,0,64,127,,
534016,note_off,,,,,476,0,1,,,,0,,,78,0
534016,note_on,,,,,0,0,1,,,,0,,,82,35
534528,note_off,,,,,0,0,1,,,,0,,,54,0
534528,note_on,,,,,0,0,1,,,,0,,,49,14
534528,note_off,,,,,0,0,1,,,,0,,,58,0
534528,note_off,,,,,0,0,1,,,,0,,,49,0
534528,note_on,,,,,0,0,1,,,,0,,,56,26
534528,note_on,,,,,0,0,1,,,,0,,,77,33
534528,note_on,,,,,0,0,1,,,,0,,,53,14
534528,note_off,,,,,512,0,1,,,,0,,,82,0
534582,control_change,,,,,54,0,1,,,,0,64,0,,
534869,control_change,,,,,287,0,1,,,,0,64,127,,
535040,note_off,,,,,171,0,1,,,,0,,,77,0
535040,note_on,,,,,0,0,1,,,,0,,,80,31
535552,note_on,,,,,0,0,1,,,,0,,,54,29
535552,note_on,,,,,0,0,1,,,,0,,,51,14
535552,note_on,,,,,0,0,1,,,,0,,,49,14
535552,note_on,,,,,0,0,1,,,,0,,,78,40
535552,note_off,,,,,0,0,1,,,,0,,,56,0
535552,note_off,,,,,0,0,1,,,,0,,,53,0
535552,note_off,,,,,0,0,1,,,,0,,,49,0
535552,control_change,,,,,0,0,1,,,,0,64,0,,
535552,control_change,,,,,0,0,1,,,,0,64,0,,
535552,control_change,,,,,0,0,1,,,,0,64,127,,
535552,control_change,,,,,512,0,1,,,,0,64,0,,
535552,note_off,,,,,0,0,1,,,,0,,,80,0
535732,control_change,,,,,180,0,1,,,,0,64,0,,
535983,control_change,,,,,251,0,1,,,,0,64,127,,
536576,note_off,,,,,593,0,1,,,,0,,,78,0
536576,note_on,,,,,0,0,1,,,,0,,,75,28
536702,control_change,,,,,126,0,1,,,,0,64,0,,
537088,note_off,,,,,386,0,1,,,,0,,,75,0
537600,note_on,,,,,0,0,1,,,,0,,,49,12
537600,note_on,,,,,0,0,1,,,,0,,,54,12
537600,note_on,,,,,0,0,1,,,,0,,,51,12
537600,note_off,,,,,0,0,1,,,,0,,,54,0
537600,note_off,,,,,0,0,1,,,,0,,,51,0
537600,note_off,,,,,0,0,1,,,,0,,,49,0
537600,note_on,,,,,512,0,1,,,,0,,,78,34
537636,control_change,,,,,36,0,1,,,,0,64,127,,
538624,note_off,,,,,988,0,1,,,,0,,,78,0
538624,note_on,,,,,0,0,1,,,,0,,,66,19
538786,control_change,,,,,162,0,1,,,,0,64,0,,
539136,note_off,,,,,350,0,1,,,,0,,,66,0
539648,note_off,,,,,0,0,1,,,,0,,,54,0
539648,note_on,,,,,0,0,1,,,,0,,,58,29
539648,note_on,,,,,0,0,1,,,,0,,,49,15
539648,note_off,,,,,0,0,1,,,,0,,,51,0
539648,note_on,,,,,0,0,1,,,,0,,,54,15
539648,note_on,,,,,512,0,1,,,,0,,,78,37
539648,note_off,,,,,0,0,1,,,,0,,,49,0
539684,control_change,,,,,36,0,1,,,,0,64,127,,
540160,set_tempo,,,,,6656,1,0,,413793,,,,,,
540160,note_off,,,,,476,0,1,,,,0,,,78,0
540160,note_on,,,,,0,0,1,,,,0,,,82,35
540672,note_off,,,,,0,0,1,,,,0,,,58,0
540672,note_off,,,,,0,0,1,,,,0,,,54,0
540672,note_on,,,,,0,0,1,,,,0,,,51,12
540672,note_off,,,,,0,0,1,,,,0,,,49,0
540672,note_on,,,,,0,0,1,,,,0,,,75,32
540672,note_off,,,,,512,0,1,,,,0,,,82,0
540672,note_on,,,,,0,0,1,,,,0,,,49,12
540672,note_on,,,,,0,0,1,,,,0,,,54,26
540726,control_change,,,,,54,0,1,,,,0,64,0,,
541013,control_change,,,,,287,0,1,,,,0,64,127,,
541184,note_off,,,,,171,0,1,,,,0,,,75,0
541184,note_on,,,,,0,0,1,,,,0,,,78,30
541696,note_off,,,,,0,0,1,,,,0,,,51,0
541696,note_on,,,,,0,0,1,,,,0,,,54,29
541696,note_on,,,,,0,0,1,,,,0,,,51,15
541696,note_on,,,,,0,0,1,,,,0,,,49,15
541696,note_on,,,,,0,0,1,,,,0,,,78,40
541696,note_off,,,,,0,0,1,,,,0,,,54,0
541696,note_off,,,,,0,0,1,,,,0,,,78,0
541696,control_change,,,,,0,0,1,,,,0,64,0,,
541696,control_change,,,,,0,0,1,,,,0,64,0,,
541696,control_change,,,,,0,0,1,,,,0,64,127,,
541696,control_change,,,,,512,0,1,,,,0,64,0,,
541696,set_tempo,,,,,1536,1,0,,461538,,,,,,
541696,note_off,,,,,0,0,1,,,,0,,,49,0
541876,control_change,,,,,180,0,1,,,,0,64,0,,
542127,control_change,,,,,251,0,1,,,,0,64,127,,
542720,note_on,,,,,0,0,1,,,,0,,,75,28
542720,set_tempo,,,,,1024,1,0,,428571,,,,,,
542720,note_off,,,,,593,0,1,,,,0,,,78,0
542846,control_change,,,,,126,0,1,,,,0,64,0,,
543232,note_off,,,,,386,0,1,,,,0,,,75,0
543744,note_on,,,,,512,0,1,,,,0,,,78,34
543744,note_off,,,,,0,0,1,,,,0,,,49,0
543744,note_off,,,,,0,0,1,,,,0,,,51,0
543744,note_off,,,,,0,0,1,,,,0,,,54,0
543744,note_on,,,,,0,0,1,,,,0,,,49,12
543744,note_on,,,,,0,0,1,,,,0,,,51,12
543744,note_on,,,,,0,0,1,,,,0,,,54,12
543780,control_change,,,,,36,0,1,,,,0,64,127,,
544768,note_off,,,,,988,0,1,,,,0,,,78,0
544768,note_on,,,,,0,0,1,,,,0,,,66,19
544930,control_change,,,,,162,0,1,,,,0,64,0,,
545280,note_off,,,,,350,0,1,,,,0,,,66,0
545792,note_on,,,,,0,0,1,,,,0,,,54,20
545792,note_on,,,,,0,0,1,,,,0,,,49,20
545792,note_off,,,,,0,0,1,,,,0,,,54,0
545792,note_off,,,,,0,0,1,,,,0,,,51,0
545792,note_off,,,,,0,0,1,,,,0,,,49,0
545792,note_on,,,,,512,0,1,,,,0,,,78,38
545792,set_tempo,,,,,3072,1,0,,461538,,,,,,
545792,note_on,,,,,0,0,1,,,,0,,,58,34
545828,control_change,,,,,36,0,1,,,,0,64,127,,
546304,note_off,,,,,476,0,1,,,,0,,,78,0
546304,note_on,,,,,0,0,1,,,,0,,,82,35
546304,set_tempo,,,,,512,1,0,,413793,,,,,,
546816,note_on,,,,,0,0,1,,,,0,,,53,17
546816,note_off,,,,,0,0,1,,,,0,,,58,0
546816,note_off,,,,,0,0,1,,,,0,,,49,0
546816,note_off,,,,,0,0,1,,,,0,,,54,0
546816,note_on,,,,,0,0,1,,,,0,,,49,17
546816,note_on,,,,,0,0,1,,,,0,,,77,33
546816,note_off,,,,,512,0,1,,,,0,,,82,0
546816,note_on,,,,,0,0,1,,,,0,,,56,31
546870,control_change,,,,,54,0,1,,,,0,64,0,,
547157,control_change,,,,,287,0,1,,,,0,64,127,,
547328,note_on,,,,,0,0,1,,,,0,,,80,30
547328,note_off,,,,,171,0,1,,,,0,,,77,0
547328,set_tempo,,,,,1024,1,0,,461538,,,,,,
547840,control_change,,,,,0,0,1,,,,0,64,0,,
547840,control_change,,,,,512,0,1,,,,0,64,0,,
547840,note_on,,,,,0,0,1,,,,0,,,56,29
547840,note_on,,,,,0,0,1,,,,0,,,53,15
547840,control_change,,,,,0,0,1,,,,0,64,127,,
547840,note_on,,,,,0,0,1,,,,0,,,80,37
547840,note_off,,,,,0,0,1,,,,0,,,56,0
547840,note_off,,,,,0,0,1,,,,0,,,53,0
547840,note_off,,,,,0,0,1,,,,0,,,49,0
547840,note_off,,,,,0,0,1,,,,0,,,80,0
547840,control_change,,,,,0,0,1,,,,0,64,0,,
547840,control_change,,,,,0,0,1,,,,0,64,0,,
547840,note_on,,,,,0,0,1,,,,0,,,49,15
548020,control_change,,,,,180,0,1,,,,0,64,0,,
548271,control_change,,,,,251,0,1,,,,0,64,127,,
548864,note_off,,,,,593,0,1,,,,0,,,80,0
548864,note_on,,,,,0,0,1,,,,0,,,77,28
548864,set_tempo,,,,,1536,1,0,,428571,,,,,,
548990,control_change,,,,,126,0,1,,,,0,64,0,,
549376,note_off,,,,,386,0,1,,,,0,,,77,0
549888,note_on,,,,,0,0,1,,,,0,,,49,12
549888,note_on,,,,,512,0,1,,,,0,,,80,32
549888,note_off,,,,,0,0,1,,,,0,,,49,0
549888,note_off,,,,,0,0,1,,,,0,,,53,0
549888,note_off,,,,,0,0,1,,,,0,,,56,0
549888,note_on,,,,,0,0,1,,,,0,,,53,12
549888,note_on,,,,,0,0,1,,,,0,,,56,12
549924,control_change,,,,,36,0,1,,,,0,64,127,,
550912,note_off,,,,,988,0,1,,,,0,,,80,0
550912,note_on,,,,,0,0,1,,,,0,,,68,23
551074,control_change,,,,,162,0,1,,,,0,64,0,,
551424,note_off,,,,,350,0,1,,,,0,,,68,0
551936,note_on,,,,,0,0,1,,,,0,,,53,46
551936,set_tempo,,,,,3072,1,0,,461538,,,,,,
551936,note_on,,,,,512,0,1,,,,0,,,73,57
551936,note_on,,,,,0,0,1,,,,0,,,49,32
551936,note_on,,,,,0,0,1,,,,0,,,80,69
551936,note_on,,,,,0,0,1,,,,0,,,41,39
551936,note_off,,,,,0,0,1,,,,0,,,56,0
551936,note_off,,,,,0,0,1,,,,0,,,53,0
551936,note_off,,,,,0,0,1,,,,0,,,49,0
551972,control_change,,,,,36,0,1,,,,0,64,127,,
552448,note_off,,,,,0,0,1,,,,0,,,80,0
552448,set_tempo,,,,,512,1,0,,428571,,,,,,
552448,note_off,,,,,476,0,1,,,,0,,,73,0
552448,note_on,,,,,0,0,1,,,,0,,,85,68
552960,note_on,,,,,0,0,1,,,,0,,,51,41
552960,note_on,,,,,0,0,1,,,,0,,,72,54
552960,note_off,,,,,512,0,1,,,,0,,,85,0
552960,note_on,,,,,0,0,1,,,,0,,,80,66
552960,note_on,,,,,0,0,1,,,,0,,,44,31
552960,note_off,,,,,0,0,1,,,,0,,,41,0
552960,note_off,,,,,0,0,1,,,,0,,,49,0
552960,note_off,,,,,0,0,1,,,,0,,,53,0
553014,control_change,,,,,54,0,1,,,,0,64,0,,
553301,control_change,,,,,287,0,1,,,,0,64,127,,
553472,note_off,,,,,171,0,1,,,,0,,,72,0
553472,note_on,,,,,0,0,1,,,,0,,,84,65
553472,note_off,,,,,0,0,1,,,,0,,,80,0
553984,control_change,,,,,0,0,1,,,,0,64,0,,
553984,control_change,,,,,512,0,1,,,,0,64,0,,
553984,control_change,,,,,0,0,1,,,,0,64,127,,
553984,control_change,,,,,0,0,1,,,,0,64,0,,
553984,control_change,,,,,0,0,1,,,,0,64,0,,
553984,control_change,,,,,0,0,1,,,,0,64,127,,
553984,control_change,,,,,0,0,1,,,,0,64,0,,
553984,set_tempo,,,,,1536,1,0,,461538,,,,,,
553984,control_change,,,,,0,0,1,,,,0,64,0,,
553984,note_on,,,,,0,0,1,,,,0,,,80,62
553984,note_off,,,,,0,0,1,,,,0,,,51,0
553984,note_off,,,,,0,0,1,,,,0,,,84,0
553984,note_on,,,,,0,0,1,,,,0,,,72,50
553984,note_on,,,,,0,0,1,,,,0,,,51,40
553984,note_on,,,,,0,0,1,,,,0,,,44,28
553984,note_off,,,,,0,0,1,,,,0,,,44,0
554164,control_change,,,,,0,0,1,,,,0,64,0,,
554164,control_change,,,,,180,0,1,,,,0,64,0,,
554415,control_change,,,,,0,0,1,,,,0,64,127,,
554415,control_change,,,,,251,0,1,,,,0,64,127,,
555008,note_off,,,,,593,0,1,,,,0,,,72,0
555008,note_off,,,,,0,0,1,,,,0,,,80,0
555008,note_on,,,,,0,0,1,,,,0,,,84,50
555008,set_tempo,,,,,1024,1,0,,428571,,,,,,
555134,control_change,,,,,126,0,1,,,,0,64,0,,
555134,control_change,,,,,0,0,1,,,,0,64,0,,
555520,note_off,,,,,386,0,1,,,,0,,,84,0
556032,note_on,,,,,0,0,1,,,,0,,,44,16
556032,note_on,,,,,0,0,1,,,,0,,,80,55
556032,note_off,,,,,0,0,1,,,,0,,,51,0
556032,note_off,,,,,0,0,1,,,,0,,,44,0
556032,note_on,,,,,0,0,1,,,,0,,,51,28
556032,note_on,,,,,512,0,1,,,,0,,,72,43
556068,control_change,,,,,36,0,1,,,,0,64,127,,
556068,control_change,,,,,0,0,1,,,,0,64,127,,
557056,note_off,,,,,988,0,1,,,,0,,,72,0
557056,note_off,,,,,0,0,1,,,,0,,,80,0
557056,note_on,,,,,0,0,1,,,,0,,,84,43
557218,control_change,,,,,162,0,1,,,,0,64,0,,
557218,control_change,,,,,0,0,1,,,,0,64,0,,
557568,note_off,,,,,350,0,1,,,,0,,,84,0
558080,note_on,,,,,0,0,1,,,,0,,,44,35
558080,note_on,,,,,0,0,1,,,,0,,,54,47
558080,note_on,,,,,0,0,1,,,,0,,,56,35
558080,note_off,,,,,0,0,1,,,,0,,,44,0
558080,note_off,,,,,0,0,1,,,,0,,,51,0
558080,set_tempo,,,,,3072,1,0,,461538,,,,,,
558080,note_on,,,,,512,0,1,,,,0,,,75,59
558080,note_on,,,,,0,0,1,,,,0,,,80,71
558116,control_change,,,,,36,0,1,,,,0,64,127,,
558116,control_change,,,,,0,0,1,,,,0,64,127,,
558592,note_off,,,,,0,0,1,,,,0,,,80,0
558592,note_on,,,,,0,0,1,,,,0,,,87,63
558592,set_tempo,,,,,512,1,0,,428571,,,,,,
558592,note_off,,,,,476,0,1,,,,0,,,75,0
559104,note_off,,,,,0,0,1,,,,0,,,56,0
559104,note_off,,,,,0,0,1,,,,0,,,54,0
559104,note_off,,,,,0,0,1,,,,0,,,44,0
559104,note_on,,,,,0,0,1,,,,0,,,53,40
559104,note_on,,,,,0,0,1,,,,0,,,56,28
559104,note_on,,,,,0,0,1,,,,0,,,77,68
559104,note_on,,,,,0,0,1,,,,0,,,73,56
559104,note_off,,,,,512,0,1,,,,0,,,87,0
559104,note_on,,,,,0,0,1,,,,0,,,49,28
559158,control_change,,,,,0,0,1,,,,0,64,0,,
559158,control_change,,,,,54,0,1,,,,0,64,0,,
559445,control_change,,,,,0,0,1,,,,0,64,127,,
559445,control_change,,,,,287,0,1,,,,0,64,127,,
559616,note_on,,,,,0,0,1,,,,0,,,80,60
559616,note_off,,,,,0,0,1,,,,0,,,77,0
559616,note_off,,,,,171,0,1,,,,0,,,73,0
560128,note_off,,,,,0,0,1,,,,0,,,56,0
560128,note_on,,,,,0,0,1,,,,0,,,56,27
560128,note_on,,,,,0,0,1,,,,0,,,53,27
560128,note_on,,,,,0,0,1,,,,0,,,49,39
560128,note_on,,,,,0,0,1,,,,0,,,77,59
560128,note_off,,,,,0,0,1,,,,0,,,53,0
560128,note_on,,,,,0,0,1,,,,0,,,73,47
560128,note_off,,,,,0,0,1,,,,0,,,80,0
560128,control_change,,,,,0,0,1,,,,0,64,0,,
560128,control_change,,,,,0,0,1,,,,0,64,0,,
560128,control_change,,,,,0,0,1,,,,0,64,127,,
560128,control_change,,,,,512,0,1,,,,0,64,0,,
560128,note_off,,,,,0,0,1,,,,0,,,49,0
560308,control_change,,,,,180,0,1,,,,0,64,0,,
560559,control_change,,,,,251,0,1,,,,0,64,127,,
561152,note_on,,,,,0,0,1,,,,0,,,80,47
561152,note_off,,,,,0,0,1,,,,0,,,77,0
561152,set_tempo,,,,,2560,1,0,,461538,,,,,,
561152,note_off,,,,,593,0,1,,,,0,,,73,0
561278,control_change,,,,,126,0,1,,,,0,64,0,,
561664,note_off,,,,,386,0,1,,,,0,,,80,0
562176,note_off,,,,,0,0,1,,,,0,,,49,0
562176,note_on,,,,,512,0,1,,,,0,,,73,35
562176,note_on,,,,,0,0,1,,,,0,,,77,47
562176,note_on,,,,,0,0,1,,,,0,,,49,29
562176,note_on,,,,,0,0,1,,,,0,,,53,17
562176,note_on,,,,,0,0,1,,,,0,,,56,17
562176,note_off,,,,,0,0,1,,,,0,,,53,0
562176,note_off,,,,,0,0,1,,,,0,,,56,0
562176,set_tempo,,,,,1024,1,0,,428571,,,,,,
562212,control_change,,,,,36,0,1,,,,0,64,127,,
563200,note_off,,,,,988,0,1,,,,0,,,73,0
563200,note_off,,,,,0,0,1,,,,0,,,77,0
563200,note_on,,,,,0,0,1,,,,0,,,80,31
563362,control_change,,,,,162,0,1,,,,0,64,0,,
563712,note_off,,,,,350,0,1,,,,0,,,80,0
564224,note_on,,,,,512,0,1,,,,0,,,61,57
564224,note_on,,,,,0,0,1,,,,0,,,40,35
564224,note_on,,,,,0,0,1,,,,0,,,49,26
564224,note_on,,,,,0,0,1,,,,0,,,52,35
564224,note_off,,,,,0,0,1,,,,0,,,49,0
564224,note_off,,,,,0,0,1,,,,0,,,53,0
564224,note_off,,,,,0,0,1,,,,0,,,56,0
564224,set_tempo,,,,,2048,1,0,,461538,,,,,,
564224,note_on,,,,,0,0,1,,,,0,,,68,39
564260,control_change,,,,,36,0,1,,,,0,64,127,,
564736,note_off,,,,,476,0,1,,,,0,,,68,0
564736,note_on,,,,,0,0,1,,,,0,,,73,50
564736,set_tempo,,,,,512,1,0,,413793,,,,,,
565248,note_on,,,,,0,0,1,,,,0,,,51,26
565248,note_on,,,,,0,0,1,,,,0,,,68,36
565248,note_on,,,,,0,0,1,,,,0,,,44,35
565248,note_off,,,,,0,0,1,,,,0,,,52,0
565248,note_off,,,,,0,0,1,,,,0,,,49,0
565248,note_off,,,,,512,0,1,,,,0,,,61,0
565248,note_off,,,,,0,0,1,,,,0,,,73,0
565248,note_on,,,,,0,0,1,,,,0,,,60,54
565248,note_off,,,,,0,0,1,,,,0,,,40,0
565302,control_change,,,,,54,0,1,,,,0,64,0,,
565589,control_change,,,,,287,0,1,,,,0,64,127,,
565760,note_off,,,,,171,0,1,,,,0,,,68,0
565760,note_on,,,,,0,0,1,,,,0,,,72,47
566272,note_on,,,,,0,0,1,,,,0,,,44,37
566272,note_on,,,,,0,0,1,,,,0,,,68,39
566272,note_on,,,,,0,0,1,,,,0,,,60,57
566272,note_on,,,,,0,0,1,,,,0,,,51,25
566272,note_off,,,,,0,0,1,,,,0,,,44,0
566272,control_change,,,,,512,0,1,,,,0,64,0,,
566272,control_change,,,,,0,0,1,,,,0,64,127,,
566272,note_off,,,,,0,0,1,,,,0,,,51,0
566272,control_change,,,,,0,0,1,,,,0,64,0,,
566272,control_change,,,,,0,0,1,,,,0,64,0,,
566272,note_off,,,,,0,0,1,,,,0,,,60,0
566272,note_off,,,,,0,0,1,,,,0,,,72,0
566452,control_change,,,,,180,0,1,,,,0,64,0,,
566703,control_change,,,,,251,0,1,,,,0,64,127,,
567296,note_off,,,,,593,0,1,,,,0,,,68,0
567296,note_on,,,,,0,0,1,,,,0,,,72,39
567296,set_tempo,,,,,2560,1,0,,461538,,,,,,
567422,control_change,,,,,126,0,1,,,,0,64,0,,
567808,note_off,,,,,386,0,1,,,,0,,,60,0
567808,note_off,,,,,0,0,1,,,,0,,,72,0
568320,note_on,,,,,512,0,1,,,,0,,,60,44
568320,note_on,,,,,0,0,1,,,,0,,,44,30
568320,note_on,,,,,0,0,1,,,,0,,,51,18
568320,note_off,,,,,0,0,1,,,,0,,,44,0
568320,note_off,,,,,0,0,1,,,,0,,,51,0
568320,note_on,,,,,0,0,1,,,,0,,,68,32
568320,set_tempo,,,,,1024,1,0,,428571,,,,,,
568356,control_change,,,,,36,0,1,,,,0,64,127,,
569344,note_off,,,,,988,0,1,,,,0,,,68,0
569344,note_on,,,,,0,0,1,,,,0,,,72,30
569506,control_change,,,,,162,0,1,,,,0,64,0,,
569856,note_off,,,,,350,0,1,,,,0,,,60,0
569856,note_off,,,,,0,0,1,,,,0,,,72,0
570368,note_on,,,,,0,0,1,,,,0,,,44,18
570368,note_off,,,,,0,0,1,,,,0,,,51,0
570368,note_off,,,,,0,0,1,,,,0,,,44,0
570368,note_on,,,,,0,0,1,,,,0,,,56,35
570368,note_on,,,,,0,0,1,,,,0,,,54,18
570368,note_on,,,,,512,0,1,,,,0,,,63,46
570368,set_tempo,,,,,2048,1,0,,461538,,,,,,
570368,note_on,,,,,0,0,1,,,,0,,,68,34
570404,control_change,,,,,36,0,1,,,,0,64,127,,
570880,set_tempo,,,,,512,1,0,,413793,,,,,,
570880,note_off,,,,,476,0,1,,,,0,,,68,0
570880,note_on,,,,,0,0,1,,,,0,,,75,44
571392,note_on,,,,,0,0,1,,,,0,,,64,24
571392,note_off,,,,,512,0,1,,,,0,,,63,0
571392,note_off,,,,,0,0,1,,,,0,,,75,0
571392,note_off,,,,,0,0,1,,,,0,,,44,0
571392,note_off,,,,,0,0,1,,,,0,,,54,0
571392,note_on,,,,,0,0,1,,,,0,,,61,43
571392,note_on,,,,,0,0,1,,,,0,,,49,16
571392,note_off,,,,,0,0,1,,,,0,,,56,0
571392,note_on,,,,,0,0,1,,,,0,,,56,28
571392,note_on,,,,,0,0,1,,,,0,,,52,16
571446,control_change,,,,,54,0,1,,,,0,64,0,,
571733,control_change,,,,,287,0,1,,,,0,64,127,,
571904,note_off,,,,,171,0,1,,,,0,,,64,0
571904,note_on,,,,,0,0,1,,,,0,,,68,41
572416,note_on,,,,,0,0,1,,,,0,,,56,30
572416,note_on,,,,,0,0,1,,,,0,,,52,18
572416,note_on,,,,,0,0,1,,,,0,,,49,18
572416,note_on,,,,,0,0,1,,,,0,,,64,27
572416,note_off,,,,,0,0,1,,,,0,,,56,0
572416,note_off,,,,,0,0,1,,,,0,,,52,0
572416,note_on,,,,,0,0,1,,,,0,,,61,46
572416,note_off,,,,,0,0,1,,,,0,,,68,0
572416,note_off,,,,,0,0,1,,,,0,,,61,0
572416,control_change,,,,,0,0,1,,,,0,64,0,,
572416,control_change,,,,,0,0,1,,,,0,64,0,,
572416,control_change,,,,,0,0,1,,,,0,64,127,,
572416,control_change,,,,,512,0,1,,,,0,64,0,,
572416,note_off,,,,,0,0,1,,,,0,,,49,0
572596,control_change,,,,,180,0,1,,,,0,64,0,,
572847,control_change,,,,,251,0,1,,,,0,64,127,,
573440,set_tempo,,,,,2560,1,0,,461538,,,,,,
573440,note_on,,,,,0,0,1,,,,0,,,68,24
573440,note_off,,,,,593,0,1,,,,0,,,64,0
573566,control_change,,,,,126,0,1,,,,0,64,0,,
573952,note_off,,,,,386,0,1,,,,0,,,61,0
573952,note_off,,,,,0,0,1,,,,0,,,68,0
574464,note_off,,,,,0,0,1,,,,0,,,56,0
574464,note_off,,,,,0,0,1,,,,0,,,52,0
574464,note_off,,,,,0,0,1,,,,0,,,49,0
574464,note_on,,,,,0,0,1,,,,0,,,56,23
574464,note_on,,,,,0,0,1,,,,0,,,52,11
574464,note_on,,,,,0,0,1,,,,0,,,49,11
574464,note_on,,,,,512,0,1,,,,0,,,61,29
574464,note_on,,,,,0,0,1,,,,0,,,64,34
574464,set_tempo,,,,,1024,1,0,,428571,,,,,,
574500,control_change,,,,,36,0,1,,,,0,64,127,,
575488,note_off,,,,,988,0,1,,,,0,,,64,0
575488,note_on,,,,,0,0,1,,,,0,,,68,20
575650,control_change,,,,,162,0,1,,,,0,64,0,,
576000,note_off,,,,,350,0,1,,,,0,,,61,0
576000,note_off,,,,,0,0,1,,,,0,,,68,0
576000,set_tempo,,,,,1536,1,0,,500000,,,,,,
576512,note_off,,,,,0,0,1,,,,0,,,56,0
576512,note_on,,,,,0,0,1,,,,0,,,56,24
576512,note_on,,,,,512,0,1,,,,0,,,76,37
576512,note_off,,,,,0,0,1,,,,0,,,49,0
576512,note_off,,,,,0,0,1,,,,0,,,52,0
576512,note_on,,,,,0,0,1,,,,0,,,52,33
576548,control_change,,,,,36,0,1,,,,0,64,127,,
577024,set_tempo,,,,,1024,1,0,,461538,,,,,,
577024,note_on,,,,,0,0,1,,,,0,,,80,32
577024,note_off,,,,,476,0,1,,,,0,,,76,0
577536,note_on,,,,,0,0,1,,,,0,,,52,24
577536,note_off,,,,,0,0,1,,,,0,,,56,0
577536,note_off,,,,,0,0,1,,,,0,,,52,0
577536,note_on,,,,,0,0,1,,,,0,,,56,24
577536,note_on,,,,,0,0,1,,,,0,,,47,33
577536,set_tempo,,,,,512,1,0,,428571,,,,,,
577536,note_off,,,,,512,0,1,,,,0,,,80,0
577536,note_on,,,,,0,0,1,,,,0,,,71,34
577590,control_change,,,,,54,0,1,,,,0,64,0,,
577877,control_change,,,,,287,0,1,,,,0,64,127,,
578048,note_off,,,,,171,0,1,,,,0,,,71,0
578048,note_on,,,,,0,0,1,,,,0,,,80,29
578560,note_on,,,,,0,0,1,,,,0,,,56,18
578560,note_on,,,,,0,0,1,,,,0,,,52,18
578560,note_on,,,,,0,0,1,,,,0,,,47,30
578560,note_on,,,,,0,0,1,,,,0,,,76,36
578560,note_on,,,,,0,0,1,,,,0,,,71,23
578560,note_off,,,,,0,0,1,,,,0,,,56,0
578560,note_off,,,,,0,0,1,,,,0,,,47,0
578560,note_off,,,,,0,0,1,,,,0,,,52,0
578560,control_change,,,,,0,0,1,,,,0,64,0,,
578560,control_change,,,,,0,0,1,,,,0,64,0,,
578560,control_change,,,,,0,0,1,,,,0,64,127,,
578560,control_change,,,,,512,0,1,,,,0,64,0,,
578560,note_off,,,,,0,0,1,,,,0,,,80,0
578560,set_tempo,,,,,1024,1,0,,461538,,,,,,
578740,control_change,,,,,180,0,1,,,,0,64,0,,
578991,control_change,,,,,251,0,1,,,,0,64,127,,
579584,note_off,,,,,593,0,1,,,,0,,,71,0
579584,note_off,,,,,0,0,1,,,,0,,,76,0
579584,note_on,,,,,0,0,1,,,,0,,,80,24
579584,set_tempo,,,,,1024,1,0,,428571,,,,,,
579710,control_change,,,,,126,0,1,,,,0,64,0,,
580096,note_off,,,,,386,0,1,,,,0,,,80,0
580608,note_off,,,,,0,0,1,,,,0,,,52,0
580608,note_on,,,,,0,0,1,,,,0,,,56,23
580608,note_off,,,,,0,0,1,,,,0,,,47,0
580608,note_on,,,,,0,0,1,,,,0,,,52,11
580608,set_tempo,,,,,1024,1,0,,428571,,,,,,
580608,note_on,,,,,0,0,1,,,,0,,,76,36
580608,note_on,,,,,512,0,1,,,,0,,,71,23
580608,note_off,,,,,0,0,1,,,,0,,,56,0
580608,note_on,,,,,0,0,1,,,,0,,,47,11
580644,control_change,,,,,36,0,1,,,,0,64,127,,
581632,set_tempo,,,,,1024,1,0,,500000,,,,,,
581632,note_off,,,,,988,0,1,,,,0,,,71,0
581632,note_on,,,,,0,0,1,,,,0,,,80,15
581632,note_off,,,,,0,0,1,,,,0,,,76,0
581794,control_change,,,,,162,0,1,,,,0,64,0,,
582144,note_off,,,,,350,0,1,,,,0,,,80,0
582656,note_on,,,,,512,0,1,,,,0,,,75,40
582656,note_off,,,,,0,0,1,,,,0,,,47,0
582656,note_off,,,,,0,0,1,,,,0,,,52,0
582656,note_off,,,,,0,0,1,,,,0,,,56,0
582656,note_on,,,,,0,0,1,,,,0,,,47,18
582656,note_on,,,,,0,0,1,,,,0,,,51,18
582656,note_on,,,,,0,0,1,,,,0,,,59,30
582656,set_tempo,,,,,1024,1,0,,428571,,,,,,
582692,control_change,,,,,36,0,1,,,,0,64,127,,
583168,note_off,,,,,476,0,1,,,,0,,,75,0
583168,note_on,,,,,0,0,1,,,,0,,,83,40
583343,control_change,,,,,175,0,1,,,,0,64,127,,
583680,note_off,,,,,0,0,1,,,,0,,,51,0
583680,note_off,,,,,0,0,1,,,,0,,,59,0
583680,note_off,,,,,0,0,1,,,,0,,,47,0
583680,note_on,,,,,0,0,1,,,,0,,,47,11
583680,note_on,,,,,0,0,1,,,,0,,,51,11
583680,note_on,,,,,0,0,1,,,,0,,,75,40
583680,note_off,,,,,337,0,1,,,,0,,,83,0
583680,note_on,,,,,0,0,1,,,,0,,,54,23
584192,note_off,,,,,512,0,1,,,,0,,,75,0
584192,note_on,,,,,0,0,1,,,,0,,,78,40
584704,note_on,,,,,0,0,1,,,,0,,,75,30
584704,note_on,,,,,0,0,1,,,,0,,,54,18
584704,note_on,,,,,0,0,1,,,,0,,,51,18
584704,note_on,,,,,0,0,1,,,,0,,,47,30
584704,note_off,,,,,0,0,1,,,,0,,,54,0
584704,note_on,,,,,0,0,1,,,,0,,,78,43
584704,note_off,,,,,0,0,1,,,,0,,,47,0
584704,note_off,,,,,0,0,1,,,,0,,,51,0
584704,control_change,,,,,512,0,1,,,,0,64,0,,
584704,control_change,,,,,0,0,1,,,,0,64,0,,
584704,control_change,,,,,0,0,1,,,,0,64,127,,
584704,note_off,,,,,0,0,1,,,,0,,,78,0
584704,control_change,,,,,0,0,1,,,,0,64,0,,
584704,control_change,,,,,0,0,1,,,,0,64,0,,
584884,control_change,,,,,180,0,1,,,,0,64,0,,
585135,control_change,,,,,251,0,1,,,,0,64,127,,
585728,note_off,,,,,593,0,1,,,,0,,,75,0
585728,note_off,,,,,0,0,1,,,,0,,,78,0
585728,note_on,,,,,0,0,1,,,,0,,,71,31
585854,control_change,,,,,126,0,1,,,,0,64,0,,
586240,note_off,,,,,386,0,1,,,,0,,,71,0
586752,note_off,,,,,0,0,1,,,,0,,,54,0
586752,note_off,,,,,0,0,1,,,,0,,,51,0
586752,note_on,,,,,0,0,1,,,,0,,,51,11
586752,note_on,,,,,0,0,1,,,,0,,,54,23
586752,note_on,,,,,0,0,1,,,,0,,,47,11
586752,note_on,,,,,512,0,1,,,,0,,,75,23
586752,note_off,,,,,0,0,1,,,,0,,,47,0
586752,note_on,,,,,0,0,1,,,,0,,,78,36
586788,control_change,,,,,36,0,1,,,,0,64,127,,
587776,note_off,,,,,988,0,1,,,,0,,,75,0
587776,note_off,,,,,0,0,1,,,,0,,,78,0
587776,note_on,,,,,0,0,1,,,,0,,,71,22
587938,control_change,,,,,162,0,1,,,,0,64,0,,
588288,note_off,,,,,350,0,1,,,,0,,,71,0
588800,note_off,,,,,0,0,1,,,,0,,,54,0
588800,note_on,,,,,0,0,1,,,,0,,,78,27
588800,set_tempo,,,,,6144,1,0,,500000,,,,,,
588800,note_on,,,,,512,0,1,,,,0,,,75,27
588800,note_off,,,,,0,0,1,,,,0,,,51,0
588800,note_on,,,,,0,0,1,,,,0,,,80,51
588800,note_on,,,,,0,0,1,,,,0,,,56,21
588800,note_on,,,,,0,0,1,,,,0,,,54,17
588800,note_on,,,,,0,0,1,,,,0,,,51,17
588800,note_on,,,,,0,0,1,,,,0,,,48,17
588800,note_off,,,,,0,0,1,,,,0,,,47,0
588836,control_change,,,,,36,0,1,,,,0,64,127,,
589312,note_off,,,,,476,0,1,,,,0,,,75,0
589312,note_off,,,,,0,0,1,,,,0,,,78,0
589312,note_on,,,,,0,0,1,,,,0,,,68,28
589824,note_on,,,,,0,0,1,,,,0,,,56,23
589824,note_on,,,,,0,0,1,,,,0,,,53,11
589824,note_on,,,,,0,0,1,,,,0,,,49,11
589824,note_on,,,,,0,0,1,,,,0,,,73,27
589824,note_off,,,,,0,0,1,,,,0,,,56,0
589824,note_on,,,,,0,0,1,,,,0,,,77,51
589824,note_off,,,,,0,0,1,,,,0,,,51,0
589824,note_off,,,,,0,0,1,,,,0,,,54,0
589824,note_off,,,,,512,0,1,,,,0,,,68,0
589824,set_tempo,,,,,1024,1,0,,461538,,,,,,
589824,note_off,,,,,0,0,1,,,,0,,,80,0
589824,note_off,,,,,0,0,1,,,,0,,,48,0
589878,control_change,,,,,54,0,1,,,,0,64,0,,
590165,control_change,,,,,287,0,1,,,,0,64,127,,
590336,note_off,,,,,171,0,1,,,,0,,,73,0
590336,note_on,,,,,0,0,1,,,,0,,,68,28
590848,note_on,,,,,0,0,1,,,,0,,,53,23
590848,note_on,,,,,0,0,1,,,,0,,,49,16
590848,note_on,,,,,0,0,1,,,,0,,,44,16
590848,note_on,,,,,0,0,1,,,,0,,,77,49
590848,note_on,,,,,0,0,1,,,,0,,,73,32
590848,note_off,,,,,0,0,1,,,,0,,,56,0
590848,note_off,,,,,0,0,1,,,,0,,,53,0
590848,set_tempo,,,,,1024,1,0,,428571,,,,,,
590848,note_off,,,,,0,0,1,,,,0,,,68,0
590848,control_change,,,,,0,0,1,,,,0,64,0,,
590848,control_change,,,,,0,0,1,,,,0,64,0,,
590848,control_change,,,,,0,0,1,,,,0,64,0,,
590848,control_change,,,,,0,0,1,,,,0,64,127,,
590848,control_change,,,,,512,0,1,,,,0,64,0,,
590848,note_off,,,,,0,0,1,,,,0,,,49,0
590848,note_off,,,,,0,0,1,,,,0,,,77,0
591028,control_change,,,,,180,0,1,,,,0,64,0,,
591279,control_change,,,,,251,0,1,,,,0,64,127,,
591872,note_on,,,,,0,0,1,,,,0,,,68,21
591872,note_off,,,,,593,0,1,,,,0,,,73,0
591872,note_off,,,,,0,0,1,,,,0,,,77,0
591998,control_change,,,,,126,0,1,,,,0,64,0,,
592384,note_off,,,,,386,0,1,,,,0,,,68,0
592896,note_on,,,,,0,0,1,,,,0,,,77,39
592896,note_on,,,,,0,0,1,,,,0,,,44,12
592896,note_on,,,,,0,0,1,,,,0,,,49,12
592896,note_on,,,,,0,0,1,,,,0,,,53,12
592896,note_off,,,,,0,0,1,,,,0,,,44,0
592896,note_off,,,,,0,0,1,,,,0,,,49,0
592896,note_off,,,,,0,0,1,,,,0,,,53,0
592896,note_on,,,,,512,0,1,,,,0,,,73,27
592932,control_change,,,,,36,0,1,,,,0,64,127,,
593920,note_on,,,,,0,0,1,,,,0,,,68,21
593920,note_off,,,,,988,0,1,,,,0,,,73,0
593920,note_off,,,,,0,0,1,,,,0,,,77,0
594082,control_change,,,,,162,0,1,,,,0,64,0,,
594432,note_off,,,,,350,0,1,,,,0,,,68,0
594944,note_on,,,,,512,0,1,,,,0,,,72,22
594944,note_on,,,,,0,0,1,,,,0,,,44,11
594944,note_on,,,,,0,0,1,,,,0,,,48,11
594944,note_on,,,,,0,0,1,,,,0,,,51,18
594944,note_off,,,,,0,0,1,,,,0,,,44,0
594944,note_off,,,,,0,0,1,,,,0,,,49,0
594944,note_off,,,,,0,0,1,,,,0,,,53,0
594944,note_on,,,,,0,0,1,,,,0,,,75,38
594944,set_tempo,,,,,4096,1,0,,461538,,,,,,
594980,control_change,,,,,36,0,1,,,,0,64,127,,
595456,note_off,,,,,0,0,1,,,,0,,,75,0
595456,note_on,,,,,0,0,1,,,,0,,,68,22
595456,note_off,,,,,476,0,1,,,,0,,,72,0
595614,control_change,,,,,158,0,1,,,,0,64,127,,
595968,note_on,,,,,0,0,1,,,,0,,,48,10
595968,note_off,,,,,0,0,1,,,,0,,,51,0
595968,note_off,,,,,0,0,1,,,,0,,,48,0
595968,note_off,,,,,0,0,1,,,,0,,,44,0
595968,note_on,,,,,0,0,1,,,,0,,,51,17
595968,set_tempo,,,,,1024,1,0,,428571,,,,,,
595968,note_on,,,,,0,0,1,,,,0,,,75,38
595968,note_on,,,,,0,0,1,,,,0,,,72,22
595968,note_off,,,,,354,0,1,,,,0,,,68,0
595968,note_on,,,,,0,0,1,,,,0,,,44,10
596480,note_off,,,,,512,0,1,,,,0,,,72,0
596480,note_off,,,,,0,0,1,,,,0,,,75,0
596480,note_on,,,,,0,0,1,,,,0,,,68,22
596992,control_change,,,,,0,0,1,,,,0,64,127,,
596992,control_change,,,,,0,0,1,,,,0,64,0,,
596992,control_change,,,,,0,0,1,,,,0,64,0,,
596992,note_on,,,,,0,0,1,,,,0,,,49,12
596992,note_on,,,,,0,0,1,,,,0,,,44,12
596992,note_on,,,,,0,0,1,,,,0,,,37,12
596992,control_change,,,,,512,0,1,,,,0,64,0,,
596992,note_on,,,,,0,0,1,,,,0,,,65,17
596992,note_on,,,,,0,0,1,,,,0,,,68,29
596992,note_off,,,,,0,0,1,,,,0,,,48,0
596992,note_off,,,,,0,0,1,,,,0,,,44,0
596992,note_off,,,,,0,0,1,,,,0,,,68,0
596992,control_change,,,,,0,0,1,,,,0,64,127,,
596992,control_change,,,,,0,0,1,,,,0,64,0,,
596992,note_off,,,,,0,0,1,,,,0,,,51,0
597172,control_change,,,,,180,0,1,,,,0,64,0,,
597423,control_change,,,,,251,0,1,,,,0,64,127,,
598016,note_off,,,,,0,0,1,,,,0,,,68,0
598016,note_on,,,,,0,0,1,,,,0,,,73,17
598016,note_off,,,,,593,0,1,,,,0,,,65,0
598142,control_change,,,,,126,0,1,,,,0,64,0,,
598528,note_off,,,,,386,0,1,,,,0,,,73,0
599040,note_on,,,,,0,0,1,,,,0,,,44,9
599040,note_on,,,,,512,0,1,,,,0,,,65,13
599040,note_on,,,,,0,0,1,,,,0,,,68,25
599040,note_on,,,,,0,0,1,,,,0,,,37,9
599040,note_on,,,,,0,0,1,,,,0,,,49,9
599040,note_off,,,,,0,0,1,,,,0,,,37,0
599040,note_off,,,,,0,0,1,,,,0,,,44,0
599040,note_off,,,,,0,0,1,,,,0,,,49,0
599076,control_change,,,,,36,0,1,,,,0,64,127,,
600064,note_on,,,,,0,0,1,,,,0,,,73,13
600064,note_off,,,,,988,0,1,,,,0,,,65,0
600064,note_off,,,,,0,0,1,,,,0,,,68,0
600064,set_tempo,,,,,4096,1,0,,500000,,,,,,
600226,control_change,,,,,162,0,1,,,,0,64,0,,
600576,note_off,,,,,350,0,1,,,,0,,,73,0
601088,set_tempo,,,,,1024,1,0,,428571,,,,,,
601088,note_on,,,,,512,0,1,,,,0,,,61,64
601088,note_off,,,,,0,0,1,,,,0,,,44,0
601088,note_off,,,,,0,0,1,,,,0,,,49,0
601088,note_on,,,,,0,0,1,,,,0,,,37,41
601088,note_on,,,,,0,0,1,,,,0,,,49,50
601088,note_off,,,,,0,0,1,,,,0,,,37,0
601124,control_change,,,,,36,0,1,,,,0,64,127,,
601600,note_off,,,,,476,0,1,,,,0,,,61,0
601600,note_on,,,,,0,0,1,,,,0,,,73,60
601735,control_change,,,,,135,0,1,,,,0,64,127,,
602112,note_off,,,,,0,0,1,,,,0,,,37,0
602112,note_off,,,,,0,0,1,,,,0,,,49,0
602112,note_on,,,,,0,0,1,,,,0,,,49,50
602112,note_off,,,,,377,0,1,,,,0,,,73,0
602112,note_on,,,,,0,0,1,,,,0,,,61,58
602112,note_on,,,,,0,0,1,,,,0,,,37,41
602624,note_off,,,,,512,0,1,,,,0,,,61,0
602624,note_on,,,,,0,0,1,,,,0,,,73,56
603136,note_off,,,,,0,0,1,,,,0,,,37,0
603136,note_on,,,,,0,0,1,,,,0,,,37,41
603136,note_on,,,,,0,0,1,,,,0,,,61,64
603136,note_off,,,,,0,0,1,,,,0,,,49,0
603136,note_off,,,,,0,0,1,,,,0,,,73,0
603136,control_change,,,,,0,0,1,,,,0,64,0,,
603136,control_change,,,,,0,0,1,,,,0,64,127,,
603136,control_change,,,,,0,0,1,,,,0,64,0,,
603136,control_change,,,,,512,0,1,,,,0,64,0,,
603136,note_on,,,,,0,0,1,,,,0,,,49,50
603136,control_change,,,,,0,0,1,,,,0,64,0,,
603136,control_change,,,,,0,0,1,,,,0,64,127,,
603136,control_change,,,,,0,0,1,,,,0,64,0,,
603316,control_change,,,,,180,0,1,,,,0,64,0,,
603567,control_change,,,,,251,0,1,,,,0,64,127,,
604160,note_off,,,,,593,0,1,,,,0,,,61,0
604160,note_on,,,,,0,0,1,,,,0,,,73,52
604286,control_change,,,,,126,0,1,,,,0,64,0,,
604672,note_off,,,,,386,0,1,,,,0,,,73,0
605184,note_off,,,,,0,0,1,,,,0,,,49,0
605184,note_on,,,,,512,0,1,,,,0,,,61,64
605184,note_off,,,,,0,0,1,,,,0,,,37,0
605184,note_on,,,,,0,0,1,,,,0,,,37,41
605184,note_on,,,,,0,0,1,,,,0,,,49,50
605220,control_change,,,,,36,0,1,,,,0,64,127,,
606208,note_on,,,,,0,0,1,,,,0,,,73,52
606208,note_off,,,,,988,0,1,,,,0,,,61,0
606370,control_change,,,,,162,0,1,,,,0,64,0,,
606720,note_off,,,,,350,0,1,,,,0,,,73,0
607232,note_off,,,,,0,0,1,,,,0,,,49,0
607232,note_off,,,,,0,0,1,,,,0,,,37,0
607232,note_on,,,,,0,0,1,,,,0,,,56,55
607232,note_on,,,,,0,0,1,,,,0,,,52,43
607232,note_on,,,,,512,0,1,,,,0,,,61,52
607232,note_on,,,,,0,0,1,,,,0,,,68,64
607232,note_on,,,,,0,0,1,,,,0,,,64,52
607232,note_on,,,,,0,0,1,,,,0,,,49,43
607268,control_change,,,,,36,0,1,,,,0,64,127,,
607744,note_on,,,,,0,0,1,,,,0,,,73,61
607744,note_off,,,,,476,0,1,,,,0,,,61,0
607744,note_off,,,,,0,0,1,,,,0,,,64,0
607744,note_off,,,,,0,0,1,,,,0,,,68,0
607879,control_change,,,,,135,0,1,,,,0,64,127,,
608256,note_off,,,,,0,0,1,,,,0,,,49,0
608256,note_off,,,,,0,0,1,,,,0,,,56,0
608256,note_on,,,,,0,0,1,,,,0,,,56,55
608256,note_off,,,,,0,0,1,,,,0,,,52,0
608256,note_on,,,,,0,0,1,,,,0,,,52,43
608256,note_off,,,,,377,0,1,,,,0,,,73,0
608256,note_on,,,,,0,0,1,,,,0,,,68,59
608256,note_on,,,,,0,0,1,,,,0,,,64,47
608256,note_on,,,,,0,0,1,,,,0,,,61,47
608256,note_on,,,,,0,0,1,,,,0,,,49,43
608768,note_off,,,,,512,0,1,,,,0,,,61,0
608768,note_off,,,,,0,0,1,,,,0,,,64,0
608768,note_off,,,,,0,0,1,,,,0,,,68,0
608768,note_on,,,,,0,0,1,,,,0,,,73,57
609280,note_on,,,,,0,0,1,,,,0,,,56,55
609280,note_on,,,,,0,0,1,,,,0,,,52,43
609280,note_on,,,,,0,0,1,,,,0,,,49,43
609280,note_on,,,,,0,0,1,,,,0,,,68,64
609280,note_on,,,,,0,0,1,,,,0,,,64,52
609280,note_on,,,,,0,0,1,,,,0,,,61,52
609280,note_off,,,,,0,0,1,,,,0,,,56,0
609280,note_off,,,,,0,0,1,,,,0,,,52,0
609280,control_change,,,,,0,0,1,,,,0,64,127,,
609280,note_off,,,,,0,0,1,,,,0,,,73,0
609280,control_change,,,,,0,0,1,,,,0,64,0,,
609280,control_change,,,,,0,0,1,,,,0,64,0,,
609280,control_change,,,,,0,0,1,,,,0,64,0,,
609280,control_change,,,,,0,0,1,,,,0,64,0,,
609280,control_change,,,,,0,0,1,,,,0,64,127,,
609280,control_change,,,,,512,0,1,,,,0,64,0,,
609280,note_off,,,,,0,0,1,,,,0,,,49,0
609460,control_change,,,,,180,0,1,,,,0,64,0,,
609711,control_change,,,,,251,0,1,,,,0,64,127,,
610304,note_off,,,,,593,0,1,,,,0,,,61,0
610304,note_off,,,,,0,0,1,,,,0,,,64,0
610304,note_on,,,,,0,0,1,,,,0,,,73,57
610304,note_off,,,,,0,0,1,,,,0,,,68,0
610430,control_change,,,,,126,0,1,,,,0,64,0,,
610816,note_off,,,,,386,0,1,,,,0,,,73,0
611328,note_on,,,,,512,0,1,,,,0,,,61,52
611328,note_on,,,,,0,0,1,,,,0,,,64,52
611328,note_on,,,,,0,0,1,,,,0,,,68,64
611328,note_on,,,,,0,0,1,,,,0,,,49,47
611328,note_on,,,,,0,0,1,,,,0,,,52,47
611328,note_on,,,,,0,0,1,,,,0,,,56,59
611328,note_off,,,,,0,0,1,,,,0,,,49,0
611328,note_off,,,,,0,0,1,,,,0,,,52,0
611328,note_off,,,,,0,0,1,,,,0,,,56,0
611364,control_change,,,,,36,0,1,,,,0,64,127,,
612352,note_off,,,,,0,0,1,,,,0,,,68,0
612352,note_on,,,,,0,0,1,,,,0,,,73,57
612352,note_off,,,,,988,0,1,,,,0,,,61,0
612352,note_off,,,,,0,0,1,,,,0,,,64,0
612514,control_change,,,,,162,0,1,,,,0,64,0,,
612864,note_off,,,,,350,0,1,,,,0,,,73,0
613376,note_on,,,,,512,0,1,,,,0,,,69,75
613376,note_off,,,,,0,0,1,,,,0,,,49,0
613376,note_off,,,,,0,0,1,,,,0,,,52,0
613376,note_off,,,,,0,0,1,,,,0,,,56,0
613376,note_on,,,,,0,0,1,,,,0,,,33,52
613376,set_tempo,,,,,12288,1,0,,413793,,,,,,
613376,note_on,,,,,0,0,1,,,,0,,,45,64
613412,control_change,,,,,36,0,1,,,,0,64,127,,
613888,note_on,,,,,0,0,1,,,,0,,,81,73
613888,note_off,,,,,476,0,1,,,,0,,,69,0
614023,control_change,,,,,135,0,1,,,,0,64,127,,
614400,note_off,,,,,0,0,1,,,,0,,,33,0
614400,note_off,,,,,0,0,1,,,,0,,,45,0
614400,note_on,,,,,0,0,1,,,,0,,,45,64
614400,note_off,,,,,377,0,1,,,,0,,,81,0
614400,note_on,,,,,0,0,1,,,,0,,,69,71
614400,note_on,,,,,0,0,1,,,,0,,,33,52
614912,note_off,,,,,512,0,1,,,,0,,,69,0
614912,note_on,,,,,0,0,1,,,,0,,,81,69
615424,note_on,,,,,0,0,1,,,,0,,,45,64
615424,note_on,,,,,0,0,1,,,,0,,,33,52
615424,note_on,,,,,0,0,1,,,,0,,,69,71
615424,note_off,,,,,0,0,1,,,,0,,,45,0
615424,note_off,,,,,0,0,1,,,,0,,,33,0
615424,note_off,,,,,0,0,1,,,,0,,,81,0
615424,control_change,,,,,0,0,1,,,,0,64,0,,
615424,control_change,,,,,0,0,1,,,,0,64,0,,
615424,control_change,,,,,0,0,1,,,,0,64,0,,
615424,control_change,,,,,0,0,1,,,,0,64,0,,
615424,control_change,,,,,0,0,1,,,,0,64,127,,
615424,control_change,,,,,512,0,1,,,,0,64,0,,
615424,control_change,,,,,0,0,1,,,,0,64,127,,
615604,control_change,,,,,180,0,1,,,,0,64,0,,
615855,control_change,,,,,251,0,1,,,,0,64,127,,
616448,note_on,,,,,0,0,1,,,,0,,,81,61
616448,note_off,,,,,593,0,1,,,,0,,,69,0
616574,control_change,,,,,126,0,1,,,,0,64,0,,
616960,note_off,,,,,386,0,1,,,,0,,,81,0
617472,note_on,,,,,512,0,1,,,,0,,,69,64
617472,note_off,,,,,0,0,1,,,,0,,,33,0
617472,note_off,,,,,0,0,1,,,,0,,,45,0
617472,note_on,,,,,0,0,1,,,,0,,,33,46
617472,note_on,,,,,0,0,1,,,,0,,,45,58
617508,control_change,,,,,36,0,1,,,,0,64,127,,
618496,note_on,,,,,0,0,1,,,,0,,,81,61
618496,note_off,,,,,988,0,1,,,,0,,,69,0
618658,control_change,,,,,162,0,1,,,,0,64,0,,
619008,note_off,,,,,350,0,1,,,,0,,,81,0
619520,note_off,,,,,0,0,1,,,,0,,,45,0
619520,set_tempo,,,,,6144,1,0,,413793,,,,,,
619520,note_off,,,,,0,0,1,,,,0,,,33,0
619520,note_on,,,,,512,0,1,,,,0,,,72,61
619520,note_on,,,,,0,0,1,,,,0,,,52,52
619520,note_on,,,,,0,0,1,,,,0,,,48,52
619520,note_on,,,,,0,0,1,,,,0,,,45,52
619520,note_on,,,,,0,0,1,,,,0,,,81,73
619520,note_on,,,,,0,0,1,,,,0,,,57,64
619520,note_on,,,,,0,0,1,,,,0,,,76,61
619556,control_change,,,,,36,0,1,,,,0,64,127,,
620032,note_off,,,,,476,0,1,,,,0,,,72,0
620032,note_off,,,,,0,0,1,,,,0,,,76,0
620032,note_off,,,,,0,0,1,,,,0,,,81,0
620032,note_on,,,,,0,0,1,,,,0,,,84,61
620167,control_change,,,,,135,0,1,,,,0,64,127,,
620544,note_off,,,,,0,0,1,,,,0,,,57,0
620544,note_off,,,,,0,0,1,,,,0,,,48,0
620544,note_off,,,,,0,0,1,,,,0,,,45,0
620544,note_on,,,,,0,0,1,,,,0,,,52,52
620544,note_off,,,,,0,0,1,,,,0,,,52,0
620544,note_on,,,,,0,0,1,,,,0,,,45,52
620544,note_on,,,,,0,0,1,,,,0,,,48,52
620544,set_tempo,,,,,1024,1,0,,400000,,,,,,
620544,note_off,,,,,377,0,1,,,,0,,,84,0
620544,note_on,,,,,0,0,1,,,,0,,,57,64
620544,note_on,,,,,0,0,1,,,,0,,,76,47
620544,note_on,,,,,0,0,1,,,,0,,,81,71
620544,note_on,,,,,0,0,1,,,,0,,,72,47
621056,note_off,,,,,512,0,1,,,,0,,,72,0
621056,note_off,,,,,0,0,1,,,,0,,,76,0
621056,note_off,,,,,0,0,1,,,,0,,,81,0
621056,note_on,,,,,0,0,1,,,,0,,,84,57
621568,note_on,,,,,0,0,1,,,,0,,,81,73
621568,note_on,,,,,0,0,1,,,,0,,,76,61
621568,note_on,,,,,0,0,1,,,,0,,,72,61
621568,note_off,,,,,0,0,1,,,,0,,,57,0
621568,note_off,,,,,0,0,1,,,,0,,,52,0
621568,note_off,,,,,0,0,1,,,,0,,,48,0
621568,control_change,,,,,0,0,1,,,,0,64,127,,
621568,note_off,,,,,0,0,1,,,,0,,,84,0
621568,control_change,,,,,0,0,1,,,,0,64,0,,
621568,control_change,,,,,0,0,1,,,,0,64,0,,
621568,control_change,,,,,0,0,1,,,,0,64,0,,
621568,control_change,,,,,0,0,1,,,,0,64,127,,
621568,control_change,,,,,512,0,1,,,,0,64,0,,
621568,note_off,,,,,0,0,1,,,,0,,,45,0
621568,control_change,,,,,0,0,1,,,,0,64,0,,
621568,note_on,,,,,0,0,1,,,,0,,,48,52
621568,note_on,,,,,0,0,1,,,,0,,,57,64
621568,set_tempo,,,,,1024,1,0,,413793,,,,,,
621568,note_on,,,,,0,0,1,,,,0,,,45,52
621568,note_on,,,,,0,0,1,,,,0,,,52,52
621748,control_change,,,,,180,0,1,,,,0,64,0,,
621999,control_change,,,,,251,0,1,,,,0,64,127,,
622592,note_off,,,,,0,0,1,,,,0,,,81,0
622592,note_off,,,,,0,0,1,,,,0,,,76,0
622592,note_off,,,,,593,0,1,,,,0,,,72,0
622592,note_on,,,,,0,0,1,,,,0,,,84,61
622718,control_change,,,,,126,0,1,,,,0,64,0,,
623104,note_off,,,,,386,0,1,,,,0,,,84,0
623616,note_on,,,,,0,0,1,,,,0,,,81,73
623616,note_off,,,,,0,0,1,,,,0,,,52,0
623616,note_off,,,,,0,0,1,,,,0,,,48,0
623616,set_tempo,,,,,2048,1,0,,400000,,,,,,
623616,note_off,,,,,0,0,1,,,,0,,,57,0
623616,note_on,,,,,512,0,1,,,,0,,,72,61
623616,note_on,,,,,0,0,1,,,,0,,,76,61
623616,note_off,,,,,0,0,1,,,,0,,,45,0
623616,note_on,,,,,0,0,1,,,,0,,,45,52
623616,note_on,,,,,0,0,1,,,,0,,,48,52
623616,note_on,,,,,0,0,1,,,,0,,,52,52
623616,note_on,,,,,0,0,1,,,,0,,,57,64
623652,control_change,,,,,36,0,1,,,,0,64,127,,
624640,note_on,,,,,0,0,1,,,,0,,,84,61
624640,note_off,,,,,0,0,1,,,,0,,,81,0
624640,note_off,,,,,988,0,1,,,,0,,,72,0
624640,note_off,,,,,0,0,1,,,,0,,,76,0
624802,control_change,,,,,162,0,1,,,,0,64,0,,
625152,note_off,,,,,350,0,1,,,,0,,,84,0
625664,note_off,,,,,0,0,1,,,,0,,,48,0
625664,note_on,,,,,512,0,1,,,,0,,,77,66
625664,note_on,,,,,0,0,1,,,,0,,,79,66
625664,note_on,,,,,0,0,1,,,,0,,,83,66
625664,note_on,,,,,0,0,1,,,,0,,,86,66
625664,note_on,,,,,0,0,1,,,,0,,,89,78
625664,set_tempo,,,,,2048,1,0,,428571,,,,,,
625664,note_on,,,,,0,0,1,,,,0,,,31,64
625664,note_off,,,,,0,0,1,,,,0,,,45,0
625664,note_off,,,,,0,0,1,,,,0,,,52,0
625664,note_off,,,,,0,0,1,,,,0,,,57,0
625700,control_change,,,,,36,0,1,,,,0,64,127,,
626176,note_off,,,,,476,0,1,,,,0,,,31,0
626176,note_on,,,,,0,0,1,,,,0,,,43,64
626311,control_change,,,,,135,0,1,,,,0,64,127,,
626688,note_on,,,,,0,0,1,,,,0,,,31,64
626688,note_on,,,,,0,0,1,,,,0,,,89,78
626688,note_on,,,,,0,0,1,,,,0,,,86,66
626688,note_on,,,,,0,0,1,,,,0,,,83,66
626688,note_on,,,,,0,0,1,,,,0,,,79,66
626688,note_on,,,,,0,0,1,,,,0,,,77,66
626688,note_off,,,,,0,0,1,,,,0,,,43,0
626688,note_off,,,,,0,0,1,,,,0,,,79,0
626688,note_off,,,,,0,0,1,,,,0,,,86,0
626688,note_off,,,,,0,0,1,,,,0,,,83,0
626688,note_off,,,,,377,0,1,,,,0,,,77,0
626688,set_tempo,,,,,1024,1,0,,387096,,,,,,
626688,note_off,,,,,0,0,1,,,,0,,,89,0
627200,note_off,,,,,512,0,1,,,,0,,,31,0
627200,note_on,,,,,0,0,1,,,,0,,,43,64
627712,note_on,,,,,0,0,1,,,,0,,,83,64
627712,note_on,,,,,0,0,1,,,,0,,,86,64
627712,note_on,,,,,0,0,1,,,,0,,,89,81
627712,note_off,,,,,0,0,1,,,,0,,,43,0
627712,note_on,,,,,0,0,1,,,,0,,,43,76
627712,note_on,,,,,0,0,1,,,,0,,,79,64
627712,note_on,,,,,0,0,1,,,,0,,,31,64
627712,note_on,,,,,0,0,1,,,,0,,,77,64
627712,note_off,,,,,0,0,1,,,,0,,,89,0
627712,note_off,,,,,0,0,1,,,,0,,,86,0
627712,note_off,,,,,0,0,1,,,,0,,,83,0
627712,note_off,,,,,0,0,1,,,,0,,,79,0
627712,note_off,,,,,0,0,1,,,,0,,,77,0
627712,control_change,,,,,0,0,1,,,,0,64,127,,
627712,control_change,,,,,512,0,1,,,,0,64,0,,
627712,set_tempo,,,,,1024,1,0,,500000,,,,,,
627894,control_change,,,,,182,0,1,,,,0,64,0,,
628167,control_change,,,,,273,0,1,,,,0,64,127,,
628736,set_tempo,,,,,1024,1,0,,387096,,,,,,
628736,note_on,,,,,0,0,1,,,,0,,,74,64
628736,note_off,,,,,0,0,1,,,,0,,,89,0
628736,note_on,,,,,0,0,1,,,,0,,,86,76
628736,note_off,,,,,0,0,1,,,,0,,,83,0
628736,note_off,,,,,0,0,1,,,,0,,,79,0
628736,note_off,,,,,569,0,1,,,,0,,,77,0
628736,note_off,,,,,0,0,1,,,,0,,,86,0
629760,note_on,,,,,0,0,1,,,,0,,,47,73
629760,note_on,,,,,0,0,1,,,,0,,,35,64
629760,note_off,,,,,0,0,1,,,,0,,,43,0
629760,note_off,,,,,1024,0,1,,,,0,,,31,0
630784,note_off,,,,,1024,0,1,,,,0,,,74,0
630784,note_off,,,,,0,0,1,,,,0,,,86,0
630784,note_on,,,,,0,0,1,,,,0,,,71,59
630784,note_on,,,,,0,0,1,,,,0,,,83,70
631808,note_off,,,,,1024,0,1,,,,0,,,35,0
631808,note_off,,,,,0,0,1,,,,0,,,47,0
631808,note_on,,,,,0,0,1,,,,0,,,38,55
631808,note_on,,,,,0,0,1,,,,0,,,50,67
632832,note_on,,,,,0,0,1,,,,0,,,69,58
632832,note_on,,,,,0,0,1,,,,0,,,81,68
632832,note_off,,,,,0,0,1,,,,0,,,50,0
632832,note_on,,,,,0,0,1,,,,0,,,40,52
632832,note_off,,,,,0,0,1,,,,0,,,83,0
632832,note_off,,,,,1024,0,1,,,,0,,,71,0
632832,note_off,,,,,0,0,1,,,,0,,,38,0
632832,note_on,,,,,0,0,1,,,,0,,,52,64
632855,control_change,,,,,23,0,1,,,,0,64,0,,
633355,control_change,,,,,500,0,1,,,,0,64,127,,
633856,set_tempo,,,,,5120,1,0,,500000,,,,,,
633856,control_change,,,,,0,0,1,,,,0,64,127,,
633856,note_on,,,,,0,0,1,,,,0,,,53,57
633856,note_off,,,,,0,0,1,,,,0,,,69,0
633856,note_off,,,,,0,0,1,,,,0,,,81,0
633856,note_off,,,,,0,0,1,,,,0,,,40,0
633856,note_off,,,,,0,0,1,,,,0,,,52,0
633856,note_on,,,,,0,0,1,,,,0,,,67,57
633856,note_on,,,,,0,0,1,,,,0,,,79,67
633856,note_on,,,,,0,0,1,,,,0,,,41,45
633856,control_change,,,,,501,0,1,,,,0,64,0,,
634230,control_change,,,,,374,0,1,,,,0,64,0,,
634711,control_change,,,,,481,0,1,,,,0,64,127,,
634880,note_on,,,,,0,0,1,,,,0,,,79,61
634880,note_on,,,,,0,0,1,,,,0,,,67,51
634880,set_tempo,,,,,1024,1,0,,387096,,,,,,
634880,note_off,,,,,169,0,1,,,,0,,,67,0
634880,note_off,,,,,0,0,1,,,,0,,,79,0
635904,note_on,,,,,0,0,1,,,,0,,,55,31
635904,note_off,,,,,1024,0,1,,,,0,,,41,0
635904,note_on,,,,,0,0,1,,,,0,,,53,43
635904,note_off,,,,,0,0,1,,,,0,,,53,0
636928,note_off,,,,,1024,0,1,,,,0,,,67,0
636928,note_off,,,,,0,0,1,,,,0,,,79,0
636928,note_on,,,,,0,0,1,,,,0,,,67,50
636928,note_on,,,,,0,0,1,,,,0,,,79,59
637952,note_off,,,,,1024,0,1,,,,0,,,53,0
637952,note_off,,,,,0,0,1,,,,0,,,55,0
637952,note_on,,,,,0,0,1,,,,0,,,53,41
637952,note_on,,,,,0,0,1,,,,0,,,55,29
638976,note_on,,,,,0,0,1,,,,0,,,55,28
638976,note_on,,,,,0,0,1,,,,0,,,53,40
638976,note_on,,,,,0,0,1,,,,0,,,79,54
638976,note_off,,,,,0,0,1,,,,0,,,53,0
638976,note_off,,,,,0,0,1,,,,0,,,55,0
638976,note_off,,,,,0,0,1,,,,0,,,79,0
638976,note_off,,,,,1024,0,1,,,,0,,,67,0
638976,note_on,,,,,0,0,1,,,,0,,,67,44
640000,note_on,,,,,0,0,1,,,,0,,,55,27
640000,note_on,,,,,0,0,1,,,,0,,,53,39
640000,note_on,,,,,0,0,1,,,,0,,,79,58
640000,note_on,,,,,0,0,1,,,,0,,,67,49
640000,note_off,,,,,0,0,1,,,,0,,,79,0
640000,note_off,,,,,0,0,1,,,,0,,,53,0
640000,note_off,,,,,0,0,1,,,,0,,,67,0
640000,control_change,,,,,0,0,1,,,,0,64,0,,
640000,control_change,,,,,0,0,1,,,,0,64,127,,
640000,control_change,,,,,1024,0,1,,,,0,64,0,,
640000,note_off,,,,,0,0,1,,,,0,,,55,0
640374,control_change,,,,,374,0,1,,,,0,64,0,,
640855,control_change,,,,,481,0,1,,,,0,64,127,,
641014,note_off,,,,,159,0,1,,,,0,,,67,0
641014,note_off,,,,,0,0,1,,,,0,,,79,0
641024,note_on,,,,,0,0,1,,,,0,,,79,52
641024,note_on,,,,,10,0,1,,,,0,,,67,43
642048,note_off,,,,,1024,0,1,,,,0,,,53,0
642048,note_off,,,,,0,0,1,,,,0,,,55,0
642048,note_on,,,,,0,0,1,,,,0,,,53,36
642048,note_on,,,,,0,0,1,,,,0,,,55,24
643062,note_off,,,,,1014,0,1,,,,0,,,67,0
643062,note_off,,,,,0,0,1,,,,0,,,79,0
643072,note_on,,,,,10,0,1,,,,0,,,67,42
643072,note_on,,,,,0,0,1,,,,0,,,79,51
644096,note_on,,,,,0,0,1,,,,0,,,55,22
644096,note_off,,,,,1024,0,1,,,,0,,,53,0
644096,note_off,,,,,0,0,1,,,,0,,,55,0
644096,note_on,,,,,0,0,1,,,,0,,,53,34
645110,note_off,,,,,0,0,1,,,,0,,,79,0
645110,note_off,,,,,1014,0,1,,,,0,,,67,0
645120,note_on,,,,,10,0,1,,,,0,,,67,41
645120,note_on,,,,,0,0,1,,,,0,,,79,50
645120,note_on,,,,,0,0,1,,,,0,,,53,33
645120,note_on,,,,,0,0,1,,,,0,,,55,21
645120,note_off,,,,,0,0,1,,,,0,,,53,0
645120,note_off,,,,,0,0,1,,,,0,,,55,0
646134,note_off,,,,,1014,0,1,,,,0,,,67,0
646134,note_off,,,,,0,0,1,,,,0,,,79,0
646144,control_change,,,,,10,0,1,,,,0,64,0,,
646144,control_change,,,,,0,0,1,,,,0,64,127,,
646144,control_change,,,,,0,0,1,,,,0,64,0,,
646144,note_off,,,,,0,0,1,,,,0,,,55,0
646144,note_on,,,,,0,0,1,,,,0,,,79,54
646144,note_off,,,,,0,0,1,,,,0,,,53,0
646144,note_on,,,,,0,0,1,,,,0,,,67,45
646144,note_on,,,,,0,0,1,,,,0,,,53,32
646144,note_on,,,,,0,0,1,,,,0,,,55,20
646518,control_change,,,,,374,0,1,,,,0,64,0,,
646999,control_change,,,,,481,0,1,,,,0,64,127,,
647158,note_off,,,,,0,0,1,,,,0,,,79,0
647158,note_off,,,,,159,0,1,,,,0,,,67,0
647168,note_on,,,,,0,0,1,,,,0,,,79,48
647168,note_on,,,,,10,0,1,,,,0,,,67,40
648192,note_on,,,,,0,0,1,,,,0,,,55,30
648192,note_on,,,,,0,0,1,,,,0,,,49,42
648192,note_off,,,,,0,0,1,,,,0,,,55,0
648192,note_off,,,,,1024,0,1,,,,0,,,53,0
648230,control_change,,,,,38,0,1,,,,0,64,0,,
648737,control_change,,,,,507,0,1,,,,0,64,127,,
649206,note_off,,,,,469,0,1,,,,0,,,67,0
649206,note_off,,,,,0,0,1,,,,0,,,79,0
649216,note_on,,,,,10,0,1,,,,0,,,67,37
649216,note_on,,,,,0,0,1,,,,0,,,79,44
650202,control_change,,,,,986,0,1,,,,0,64,0,,
650240,note_on,,,,,0,0,1,,,,0,,,55,25
650240,note_on,,,,,0,0,1,,,,0,,,50,36
650240,note_off,,,,,0,0,1,,,,0,,,55,0
650240,note_off,,,,,38,0,1,,,,0,,,49,0
650710,control_change,,,,,470,0,1,,,,0,64,127,,
651254,note_off,,,,,0,0,1,,,,0,,,79,0
651254,note_off,,,,,544,0,1,,,,0,,,67,0
651264,note_on,,,,,0,0,1,,,,0,,,79,43
651264,note_on,,,,,10,0,1,,,,0,,,67,36
652288,note_on,,,,,0,0,1,,,,0,,,55,21
652288,note_off,,,,,0,0,1,,,,0,,,55,0
652288,note_off,,,,,0,0,1,,,,0,,,50,0
652288,control_change,,,,,0,0,1,,,,0,64,0,,
652288,control_change,,,,,0,0,1,,,,0,64,0,,
652288,control_change,,,,,1024,0,1,,,,0,64,0,,
652288,control_change,,,,,0,0,1,,,,0,64,127,,
652288,note_on,,,,,0,0,1,,,,0,,,52,30
652662,control_change,,,,,374,0,1,,,,0,64,0,,
653143,control_change,,,,,481,0,1,,,,0,64,127,,
653302,note_off,,,,,0,0,1,,,,0,,,79,0
653302,note_off,,,,,159,0,1,,,,0,,,67,0
653312,note_on,,,,,10,0,1,,,,0,,,67,36
653312,set_tempo,,,,,18432,1,0,,428571,,,,,,
653312,note_on,,,,,0,0,1,,,,0,,,79,43
654336,note_on,,,,,0,0,1,,,,0,,,53,26
654336,note_off,,,,,0,0,1,,,,0,,,55,0
654336,note_off,,,,,1024,0,1,,,,0,,,52,0
654336,note_on,,,,,0,0,1,,,,0,,,55,17
654336,set_tempo,,,,,1024,1,0,,461538,,,,,,
654374,control_change,,,,,38,0,1,,,,0,64,0,,
654881,control_change,,,,,507,0,1,,,,0,64,127,,
655350,note_off,,,,,469,0,1,,,,0,,,67,0
655350,note_off,,,,,0,0,1,,,,0,,,79,0
655360,note_on,,,,,10,0,1,,,,0,,,67,33
655360,set_tempo,,,,,1024,1,0,,500000,,,,,,
655360,note_on,,,,,0,0,1,,,,0,,,79,39
656346,control_change,,,,,986,0,1,,,,0,64,0,,
656384,note_off,,,,,0,0,1,,,,0,,,55,0
656384,note_on,,,,,0,0,1,,,,0,,,53,21
656384,note_on,,,,,0,0,1,,,,0,,,55,13
656384,note_off,,,,,38,0,1,,,,0,,,53,0
656384,set_tempo,,,,,1024,1,0,,666666,,,,,,
656854,control_change,,,,,470,0,1,,,,0,64,127,,
657398,note_off,,,,,544,0,1,,,,0,,,67,0
657398,note_off,,,,,0,0,1,,,,0,,,79,0
657408,note_on,,,,,10,0,1,,,,0,,,67,39
657408,note_on,,,,,0,0,1,,,,0,,,79,51
658432,note_off,,,,,0,0,1,,,,0,,,55,0
658432,note_on,,,,,0,0,1,,,,0,,,52,28
658432,note_on,,,,,0,0,1,,,,0,,,55,21
658432,note_off,,,,,0,0,1,,,,0,,,53,0
658432,set_tempo,,,,,0,1,0,,400000,,,,,,
658432,control_change,,,,,1024,0,1,,,,0,64,0,,
658432,time_signature,2,4,24,8,2048,1,0,,,,,,,,
658432,key_signature,,,,,0,1,0,C,,,,,,,
658432,control_change,,,,,0,0,1,,,,0,64,0,,
658704,note_off,,,,,272,0,1,,,,0,,,67,0
658704,note_off,,,,,0,0,1,,,,0,,,79,0
658784,note_off,,,,,80,0,1,,,,0,,,52,0
658784,note_off,,,,,0,0,1,,,,0,,,55,0
658944,note_on,,,,,160,0,1,,,,0,,,64,38
658944,note_on,,,,,0,0,1,,,,0,,,76,56
659456,note_on,,,,,512,0,1,,,,0,,,48,28
659456,note_on,,,,,0,0,1,,,,0,,,55,21
659728,note_off,,,,,272,0,1,,,,0,,,64,0
659728,note_off,,,,,0,0,1,,,,0,,,76,0
659808,note_off,,,,,80,0,1,,,,0,,,48,0
659808,note_off,,,,,0,0,1,,,,0,,,55,0
659968,note_on,,,,,160,0,1,,,,0,,,62,38
659968,note_on,,,,,0,0,1,,,,0,,,74,51
660480,control_change,,,,,512,0,1,,,,0,64,0,,
660480,control_change,,,,,0,0,1,,,,0,64,0,,
660480,note_on,,,,,0,0,1,,,,0,,,47,28
660480,note_on,,,,,0,0,1,,,,0,,,55,21
660752,note_off,,,,,272,0,1,,,,0,,,62,0
660752,note_off,,,,,0,0,1,,,,0,,,74,0
660832,note_off,,,,,0,0,1,,,,0,,,55,0
660832,note_off,,,,,80,0,1,,,,0,,,47,0
660992,note_on,,,,,160,0,1,,,,0,,,60,37
660992,note_on,,,,,0,0,1,,,,0,,,72,53
661504,note_on,,,,,512,0,1,,,,0,,,45,28
661504,note_on,,,,,0,0,1,,,,0,,,55,21
661776,note_off,,,,,272,0,1,,,,0,,,60,0
661776,note_off,,,,,0,0,1,,,,0,,,72,0
661856,note_off,,,,,80,0,1,,,,0,,,45,0
661856,note_off,,,,,0,0,1,,,,0,,,55,0
662016,note_on,,,,,160,0,1,,,,0,,,57,35
662016,note_on,,,,,0,0,1,,,,0,,,69,46
662528,note_on,,,,,0,0,1,,,,0,,,55,25
662528,control_change,,,,,0,0,1,,,,0,64,0,,
662528,note_on,,,,,0,0,1,,,,0,,,53,32
662528,control_change,,,,,512,0,1,,,,0,64,0,,
662800,note_off,,,,,272,0,1,,,,0,,,57,0
662800,note_off,,,,,0,0,1,,,,0,,,69,0
662880,note_off,,,,,80,0,1,,,,0,,,53,0
662880,note_off,,,,,0,0,1,,,,0,,,55,0
663040,note_on,,,,,160,0,1,,,,0,,,59,32
663040,note_on,,,,,0,0,1,,,,0,,,71,43
663552,note_on,,,,,0,0,1,,,,0,,,55,21
663552,note_on,,,,,512,0,1,,,,0,,,50,28
663726,note_off,,,,,174,0,1,,,,0,,,50,0
663726,note_off,,,,,0,0,1,,,,0,,,55,0
663824,note_off,,,,,98,0,1,,,,0,,,59,0
663824,note_off,,,,,0,0,1,,,,0,,,71,0
664064,note_on,,,,,0,0,1,,,,0,,,55,24
664064,note_on,,,,,240,0,1,,,,0,,,60,34
664064,note_on,,,,,0,0,1,,,,0,,,72,47
664064,note_on,,,,,0,0,1,,,,0,,,52,31
664238,note_off,,,,,0,0,1,,,,0,,,55,0
664238,note_off,,,,,0,0,1,,,,0,,,72,0
664238,note_off,,,,,0,0,1,,,,0,,,52,0
664238,note_off,,,,,174,0,1,,,,0,,,60,0
664576,set_tempo,,,,,6144,1,0,,428571,,,,,,
664576,note_on,,,,,0,0,1,,,,0,,,53,34
664576,note_on,,,,,0,0,1,,,,0,,,55,27
664576,note_on,,,,,0,0,1,,,,0,,,74,58
664576,control_change,,,,,338,0,1,,,,0,64,0,,
664576,control_change,,,,,0,0,1,,,,0,64,0,,
664576,note_on,,,,,0,0,1,,,,0,,,62,45
665088,note_on,,,,,512,0,1,,,,0,,,64,38
665088,note_on,,,,,0,0,1,,,,0,,,76,51
665088,set_tempo,,,,,512,1,0,,400000,,,,,,
665138,note_off,,,,,50,0,1,,,,0,,,62,0
665138,note_off,,,,,0,0,1,,,,0,,,74,0
665262,note_off,,,,,124,0,1,,,,0,,,64,0
665262,note_off,,,,,0,0,1,,,,0,,,76,0
665360,note_off,,,,,0,0,1,,,,0,,,55,0
665360,note_off,,,,,98,0,1,,,,0,,,53,0
665600,note_on,,,,,0,0,1,,,,0,,,72,48
665600,note_on,,,,,0,0,1,,,,0,,,52,28
665600,note_on,,,,,0,0,1,,,,0,,,55,21
665600,note_on,,,,,240,0,1,,,,0,,,60,35
665774,note_off,,,,,174,0,1,,,,0,,,60,0
665774,note_off,,,,,0,0,1,,,,0,,,72,0
665774,note_off,,,,,0,0,1,,,,0,,,52,0
665774,note_off,,,,,0,0,1,,,,0,,,55,0
666112,note_on,,,,,0,0,1,,,,0,,,55,24
666112,note_on,,,,,0,0,1,,,,0,,,74,51
666112,note_on,,,,,338,0,1,,,,0,,,62,38
666112,note_on,,,,,0,0,1,,,,0,,,53,31
666286,note_off,,,,,174,0,1,,,,0,,,62,0
666286,note_off,,,,,0,0,1,,,,0,,,74,0
666286,note_off,,,,,0,0,1,,,,0,,,53,0
666286,note_off,,,,,0,0,1,,,,0,,,55,0
666624,note_on,,,,,0,0,1,,,,0,,,55,27
666624,note_on,,,,,0,0,1,,,,0,,,53,34
666624,note_on,,,,,0,0,1,,,,0,,,74,58
666624,control_change,,,,,0,0,1,,,,0,64,0,,
666624,control_change,,,,,338,0,1,,,,0,64,0,,
666624,note_on,,,,,0,0,1,,,,0,,,62,45
667136,note_on,,,,,512,0,1,,,,0,,,64,38
667136,note_on,,,,,0,0,1,,,,0,,,76,51
667186,note_off,,,,,50,0,1,,,,0,,,62,0
667186,note_off,,,,,0,0,1,,,,0,,,74,0
667310,note_off,,,,,124,0,1,,,,0,,,64,0
667310,note_off,,,,,0,0,1,,,,0,,,76,0
667408,note_off,,,,,0,0,1,,,,0,,,55,0
667408,note_off,,,,,98,0,1,,,,0,,,53,0
667648,note_on,,,,,240,0,1,,,,0,,,60,35
667648,note_on,,,,,0,0,1,,,,0,,,52,28
667648,note_on,,,,,0,0,1,,,,0,,,55,21
667648,set_tempo,,,,,2560,1,0,,461538,,,,,,
667648,note_on,,,,,0,0,1,,,,0,,,72,48
667822,note_off,,,,,0,0,1,,,,0,,,55,0
667822,note_off,,,,,0,0,1,,,,0,,,72,0
667822,note_off,,,,,174,0,1,,,,0,,,60,0
667822,note_off,,,,,0,0,1,,,,0,,,52,0
668160,note_on,,,,,0,0,1,,,,0,,,81,59
668160,set_tempo,,,,,512,1,0,,400000,,,,,,
668160,note_on,,,,,338,0,1,,,,0,,,69,46
668672,note_on,,,,,0,0,1,,,,0,,,57,25
668672,note_on,,,,,0,0,1,,,,0,,,49,32
668672,control_change,,,,,0,0,1,,,,0,64,0,,
668672,control_change,,,,,512,0,1,,,,0,64,0,,
668944,note_off,,,,,0,0,1,,,,0,,,81,0
668944,note_off,,,,,272,0,1,,,,0,,,69,0
669024,note_off,,,,,0,0,1,,,,0,,,57,0
669024,note_off,,,,,80,0,1,,,,0,,,49,0
669184,note_on,,,,,0,0,1,,,,0,,,77,55
669184,note_on,,,,,160,0,1,,,,0,,,65,42
669696,note_on,,,,,0,0,1,,,,0,,,57,25
669696,note_on,,,,,512,0,1,,,,0,,,50,32
669968,note_off,,,,,272,0,1,,,,0,,,65,0
669968,note_off,,,,,0,0,1,,,,0,,,77,0
670048,note_off,,,,,80,0,1,,,,0,,,50,0
670048,note_off,,,,,0,0,1,,,,0,,,57,0
670208,note_on,,,,,160,0,1,,,,0,,,64,42
670208,note_on,,,,,0,0,1,,,,0,,,76,55
670720,note_on,,,,,0,0,1,,,,0,,,57,25
670720,control_change,,,,,0,0,1,,,,0,64,0,,
670720,control_change,,,,,512,0,1,,,,0,64,0,,
670720,note_on,,,,,0,0,1,,,,0,,,52,32
670992,note_off,,,,,0,0,1,,,,0,,,76,0
670992,note_off,,,,,272,0,1,,,,0,,,64,0
671072,note_off,,,,,0,0,1,,,,0,,,57,0
671072,note_off,,,,,80,0,1,,,,0,,,52,0
671232,note_on,,,,,0,0,1,,,,0,,,74,53
671232,note_on,,,,,160,0,1,,,,0,,,62,41
671744,note_on,,,,,512,0,1,,,,0,,,53,32
671744,note_on,,,,,0,0,1,,,,0,,,57,25
672016,note_off,,,,,0,0,1,,,,0,,,74,0
672016,note_off,,,,,272,0,1,,,,0,,,62,0
672096,note_off,,,,,0,0,1,,,,0,,,57,0
672096,note_off,,,,,80,0,1,,,,0,,,53,0
672256,note_on,,,,,160,0,1,,,,0,,,58,39
672256,note_on,,,,,0,0,1,,,,0,,,70,50
672256,set_tempo,,,,,4096,1,0,,428571,,,,,,
672768,control_change,,,,,0,0,1,,,,0,64,0,,
672768,note_on,,,,,0,0,1,,,,0,,,55,36
672768,note_on,,,,,0,0,1,,,,0,,,57,29
672768,control_change,,,,,512,0,1,,,,0,64,0,,
672768,set_tempo,,,,,512,1,0,,400000,,,,,,
673040,note_off,,,,,0,0,1,,,,0,,,70,0
673040,note_off,,,,,272,0,1,,,,0,,,58,0
673120,note_off,,,,,0,0,1,,,,0,,,57,0
673120,note_off,,,,,80,0,1,,,,0,,,55,0
673280,note_on,,,,,0,0,1,,,,0,,,69,47
673280,note_on,,,,,160,0,1,,,,0,,,57,36
673792,note_on,,,,,0,0,1,,,,0,,,57,25
673792,note_on,,,,,512,0,1,,,,0,,,53,32
673966,note_off,,,,,174,0,1,,,,0,,,53,0
673966,note_off,,,,,0,0,1,,,,0,,,57,0
674064,note_off,,,,,98,0,1,,,,0,,,57,0
674064,note_off,,,,,0,0,1,,,,0,,,69,0
674304,note_on,,,,,0,0,1,,,,0,,,57,28
674304,note_on,,,,,0,0,1,,,,0,,,50,35
674304,note_on,,,,,0,0,1,,,,0,,,77,51
674304,note_on,,,,,240,0,1,,,,0,,,65,38
674478,note_off,,,,,174,0,1,,,,0,,,65,0
674478,note_off,,,,,0,0,1,,,,0,,,77,0
674478,note_off,,,,,0,0,1,,,,0,,,57,0
674478,note_off,,,,,0,0,1,,,,0,,,50,0
674816,set_tempo,,,,,2048,1,0,,444444,,,,,,
674816,note_on,,,,,0,0,1,,,,0,,,57,31
674816,note_on,,,,,0,0,1,,,,0,,,55,38
674816,note_on,,,,,0,0,1,,,,0,,,76,62
674816,note_on,,,,,0,0,1,,,,0,,,64,49
674816,control_change,,,,,338,0,1,,,,0,64,0,,
674816,control_change,,,,,0,0,1,,,,0,64,0,,
675328,note_on,,,,,512,0,1,,,,0,,,73,42
675328,set_tempo,,,,,512,1,0,,400000,,,,,,
675378,note_off,,,,,50,0,1,,,,0,,,64,0
675378,note_off,,,,,0,0,1,,,,0,,,76,0
675502,note_off,,,,,124,0,1,,,,0,,,73,0
675600,note_off,,,,,0,0,1,,,,0,,,57,0
675600,note_off,,,,,98,0,1,,,,0,,,55,0
675840,note_on,,,,,0,0,1,,,,0,,,57,25
675840,note_on,,,,,0,0,1,,,,0,,,53,32
675840,note_on,,,,,0,0,1,,,,0,,,74,52
675840,note_on,,,,,240,0,1,,,,0,,,62,39
676014,note_off,,,,,0,0,1,,,,0,,,74,0
676014,note_off,,,,,0,0,1,,,,0,,,57,0
676014,note_off,,,,,174,0,1,,,,0,,,62,0
676014,note_off,,,,,0,0,1,,,,0,,,53,0
676352,note_on,,,,,338,0,1,,,,0,,,65,42
676352,note_on,,,,,0,0,1,,,,0,,,77,55
676352,note_on,,,,,0,0,1,,,,0,,,50,35
676352,note_on,,,,,0,0,1,,,,0,,,57,28
676526,note_off,,,,,174,0,1,,,,0,,,65,0
676526,note_off,,,,,0,0,1,,,,0,,,77,0
676526,note_off,,,,,0,0,1,,,,0,,,50,0
676526,note_off,,,,,0,0,1,,,,0,,,57,0
676864,set_tempo,,,,,1536,1,0,,428571,,,,,,
676864,control_change,,,,,338,0,1,,,,0,64,0,,
676864,control_change,,,,,0,0,1,,,,0,64,0,,
676864,note_on,,,,,0,0,1,,,,0,,,64,49
676864,note_on,,,,,0,0,1,,,,0,,,76,62
676864,note_on,,,,,0,0,1,,,,0,,,55,38
676864,note_on,,,,,0,0,1,,,,0,,,57,31
677376,set_tempo,,,,,512,1,0,,400000,,,,,,
677376,note_on,,,,,512,0,1,,,,0,,,73,42
677426,note_off,,,,,50,0,1,,,,0,,,64,0
677426,note_off,,,,,0,0,1,,,,0,,,76,0
677550,note_off,,,,,124,0,1,,,,0,,,73,0
677648,note_off,,,,,98,0,1,,,,0,,,55,0
677648,note_off,,,,,0,0,1,,,,0,,,57,0
677888,note_on,,,,,240,0,1,,,,0,,,62,39
677888,note_on,,,,,0,0,1,,,,0,,,74,52
677888,note_on,,,,,0,0,1,,,,0,,,53,32
677888,note_on,,,,,0,0,1,,,,0,,,57,25
678062,note_off,,,,,174,0,1,,,,0,,,62,0
678062,note_off,,,,,0,0,1,,,,0,,,74,0
678400,note_off,,,,,0,0,1,,,,0,,,53,0
678400,note_off,,,,,0,0,1,,,,0,,,57,0
678400,note_on,,,,,0,0,1,,,,0,,,77,67
678400,note_on,,,,,338,0,1,,,,0,,,65,60
678400,set_tempo,,,,,1024,1,0,,444444,,,,,,
678912,set_tempo,,,,,512,1,0,,400000,,,,,,
678912,control_change,,,,,512,0,1,,,,0,64,0,,
678912,control_change,,,,,0,0,1,,,,0,64,0,,
678912,note_on,,,,,0,0,1,,,,0,,,46,43
678912,note_on,,,,,0,0,1,,,,0,,,50,43
678912,note_on,,,,,0,0,1,,,,0,,,53,55
679424,note_on,,,,,0,0,1,,,,0,,,65,61
679424,note_on,,,,,0,0,1,,,,0,,,77,67
679424,note_off,,,,,0,0,1,,,,0,,,53,0
679424,note_off,,,,,0,0,1,,,,0,,,50,0
679424,note_off,,,,,0,0,1,,,,0,,,77,0
679424,note_off,,,,,512,0,1,,,,0,,,65,0
679424,note_off,,,,,0,0,1,,,,0,,,46,0
679936,note_on,,,,,512,0,1,,,,0,,,46,43
679936,note_on,,,,,0,0,1,,,,0,,,50,43
679936,note_on,,,,,0,0,1,,,,0,,,53,55
680448,note_off,,,,,0,0,1,,,,0,,,53,0
680448,note_on,,,,,0,0,1,,,,0,,,79,71
680448,note_off,,,,,512,0,1,,,,0,,,65,0
680448,note_off,,,,,0,0,1,,,,0,,,77,0
680448,note_off,,,,,0,0,1,,,,0,,,46,0
680448,note_off,,,,,0,0,1,,,,0,,,50,0
680448,note_on,,,,,0,0,1,,,,0,,,67,65
680960,note_on,,,,,0,0,1,,,,0,,,51,49
680960,note_on,,,,,0,0,1,,,,0,,,55,61
680960,note_on,,,,,0,0,1,,,,0,,,46,49
680960,set_tempo,,,,,2048,1,0,,428571,,,,,,
680960,control_change,,,,,512,0,1,,,,0,64,0,,
680960,control_change,,,,,0,0,1,,,,0,64,0,,
681472,note_on,,,,,0,0,1,,,,0,,,65,58
681472,note_off,,,,,0,0,1,,,,0,,,55,0
681472,note_off,,,,,0,0,1,,,,0,,,51,0
681472,note_on,,,,,0,0,1,,,,0,,,77,64
681472,note_off,,,,,0,0,1,,,,0,,,79,0
681472,note_off,,,,,512,0,1,,,,0,,,67,0
681472,set_tempo,,,,,512,1,0,,400000,,,,,,
681472,note_off,,,,,0,0,1,,,,0,,,46,0
681984,note_on,,,,,512,0,1,,,,0,,,46,40
681984,note_on,,,,,0,0,1,,,,0,,,50,40
681984,note_on,,,,,0,0,1,,,,0,,,53,52
682496,note_off,,,,,512,0,1,,,,0,,,65,0
682496,note_off,,,,,0,0,1,,,,0,,,77,0
682496,note_off,,,,,0,0,1,,,,0,,,50,0
682496,note_off,,,,,0,0,1,,,,0,,,53,0
682496,note_on,,,,,0,0,1,,,,0,,,74,47
682496,note_off,,,,,0,0,1,,,,0,,,46,0
682752,note_off,,,,,256,0,1,,,,0,,,74,0
682752,note_on,,,,,0,0,1,,,,0,,,77,43
683008,control_change,,,,,256,0,1,,,,0,64,0,,
683008,control_change,,,,,0,0,1,,,,0,64,0,,
683008,note_off,,,,,0,0,1,,,,0,,,77,0
683008,note_on,,,,,0,0,1,,,,0,,,74,47
683008,note_on,,,,,0,0,1,,,,0,,,58,21
683008,note_on,,,,,0,0,1,,,,0,,,62,21
683008,note_on,,,,,0,0,1,,,,0,,,65,33
683008,set_tempo,,,,,1536,1,0,,461538,,,,,,
683153,control_change,,,,,145,0,1,,,,0,64,127,,
683182,note_off,,,,,29,0,1,,,,0,,,58,0
683182,note_off,,,,,0,0,1,,,,0,,,62,0
683182,note_off,,,,,0,0,1,,,,0,,,65,0
683264,set_tempo,,,,,256,1,0,,400000,,,,,,
683264,note_off,,,,,82,0,1,,,,0,,,74,0
683264,note_on,,,,,0,0,1,,,,0,,,77,43
683520,note_on,,,,,0,0,1,,,,0,,,65,33
683520,set_tempo,,,,,256,1,0,,387096,,,,,,
683520,note_off,,,,,256,0,1,,,,0,,,77,0
683520,note_on,,,,,0,0,1,,,,0,,,82,43
683520,note_on,,,,,0,0,1,,,,0,,,58,21
683520,note_on,,,,,0,0,1,,,,0,,,62,21
683694,note_off,,,,,0,0,1,,,,0,,,65,0
683694,note_off,,,,,0,0,1,,,,0,,,62,0
683694,note_off,,,,,174,0,1,,,,0,,,58,0
683776,note_off,,,,,82,0,1,,,,0,,,82,0
683776,note_on,,,,,0,0,1,,,,0,,,86,43
684032,note_off,,,,,256,0,1,,,,0,,,86,0
684032,note_on,,,,,0,0,1,,,,0,,,82,47
684032,note_on,,,,,0,0,1,,,,0,,,58,21
684032,note_on,,,,,0,0,1,,,,0,,,62,21
684032,note_on,,,,,0,0,1,,,,0,,,65,33
684206,note_off,,,,,0,0,1,,,,0,,,65,0
684206,note_off,,,,,174,0,1,,,,0,,,58,0
684206,note_off,,,,,0,0,1,,,,0,,,62,0
684288,note_on,,,,,0,0,1,,,,0,,,77,43
684288,note_off,,,,,82,0,1,,,,0,,,82,0
684544,note_on,,,,,0,0,1,,,,0,,,62,21
684544,note_on,,,,,0,0,1,,,,0,,,65,33
684544,note_on,,,,,0,0,1,,,,0,,,58,21
684544,note_on,,,,,0,0,1,,,,0,,,74,43
684544,note_off,,,,,256,0,1,,,,0,,,77,0
684718,note_off,,,,,174,0,1,,,,0,,,58,0
684718,note_off,,,,,0,0,1,,,,0,,,62,0
684718,note_off,,,,,0,0,1,,,,0,,,65,0
684800,note_off,,,,,82,0,1,,,,0,,,74,0
684800,note_on,,,,,0,0,1,,,,0,,,77,43
684828,control_change,,,,,28,0,1,,,,0,64,0,,
685056,note_on,,,,,0,0,1,,,,0,,,67,33
685056,note_on,,,,,0,0,1,,,,0,,,58,21
685056,note_on,,,,,0,0,1,,,,0,,,75,47
685056,note_on,,,,,0,0,1,,,,0,,,63,21
685056,control_change,,,,,0,0,1,,,,0,64,0,,
685056,control_change,,,,,228,0,1,,,,0,64,0,,
685056,note_off,,,,,0,0,1,,,,0,,,77,0
685230,note_off,,,,,174,0,1,,,,0,,,58,0
685230,note_off,,,,,0,0,1,,,,0,,,63,0
685230,note_off,,,,,0,0,1,,,,0,,,67,0
685312,note_off,,,,,82,0,1,,,,0,,,75,0
685312,note_on,,,,,0,0,1,,,,0,,,79,43
685568,note_off,,,,,256,0,1,,,,0,,,79,0
685568,note_on,,,,,0,0,1,,,,0,,,72,43
685568,note_on,,,,,0,0,1,,,,0,,,58,21
685568,note_on,,,,,0,0,1,,,,0,,,60,21
685568,note_on,,,,,0,0,1,,,,0,,,65,33
685742,note_off,,,,,174,0,1,,,,0,,,58,0
685742,note_off,,,,,0,0,1,,,,0,,,65,0
685742,note_off,,,,,0,0,1,,,,0,,,60,0
685824,note_on,,,,,0,0,1,,,,0,,,81,43
685824,note_off,,,,,82,0,1,,,,0,,,72,0
686080,note_on,,,,,0,0,1,,,,0,,,65,33
686080,note_off,,,,,256,0,1,,,,0,,,81,0
686080,note_on,,,,,0,0,1,,,,0,,,62,21
686080,note_on,,,,,0,0,1,,,,0,,,74,47
686080,note_on,,,,,0,0,1,,,,0,,,58,21
686254,note_off,,,,,174,0,1,,,,0,,,58,0
686254,note_off,,,,,0,0,1,,,,0,,,62,0
686254,note_off,,,,,0,0,1,,,,0,,,65,0
686336,note_off,,,,,82,0,1,,,,0,,,74,0
686336,note_on,,,,,0,0,1,,,,0,,,82,47
686336,set_tempo,,,,,2816,1,0,,461538,,,,,,
686592,note_off,,,,,256,0,1,,,,0,,,82,0
686592,note_on,,,,,0,0,1,,,,0,,,68,54
686592,note_on,,,,,0,0,1,,,,0,,,80,66
686592,set_tempo,,,,,256,1,0,,428571,,,,,,
687104,set_tempo,,,,,512,1,0,,400000,,,,,,
687104,note_on,,,,,0,0,1,,,,0,,,53,43
687104,note_on,,,,,0,0,1,,,,0,,,46,43
687104,note_on,,,,,0,0,1,,,,0,,,56,55
687104,control_change,,,,,0,0,1,,,,0,64,0,,
687104,control_change,,,,,0,0,1,,,,0,64,0,,
687104,control_change,,,,,512,0,1,,,,0,64,0,,
687104,control_change,,,,,0,0,1,,,,0,64,0,,
687616,note_off,,,,,512,0,1,,,,0,,,68,0
687616,note_off,,,,,0,0,1,,,,0,,,80,0
687616,note_off,,,,,0,0,1,,,,0,,,46,0
687616,note_off,,,,,0,0,1,,,,0,,,53,0
687616,note_off,,,,,0,0,1,,,,0,,,56,0
687616,note_on,,,,,0,0,1,,,,0,,,68,61
687616,note_on,,,,,0,0,1,,,,0,,,80,67
688128,note_on,,,,,512,0,1,,,,0,,,46,43
688128,note_on,,,,,0,0,1,,,,0,,,53,43
688128,note_on,,,,,0,0,1,,,,0,,,56,55
688640,note_on,,,,,0,0,1,,,,0,,,67,65
688640,note_off,,,,,0,0,1,,,,0,,,56,0
688640,note_on,,,,,0,0,1,,,,0,,,79,71
688640,note_off,,,,,0,0,1,,,,0,,,46,0
688640,note_off,,,,,512,0,1,,,,0,,,68,0
688640,note_off,,,,,0,0,1,,,,0,,,80,0
688640,note_off,,,,,0,0,1,,,,0,,,53,0
689152,note_on,,,,,0,0,1,,,,0,,,55,61
689152,note_on,,,,,0,0,1,,,,0,,,51,49
689152,control_change,,,,,0,0,1,,,,0,64,0,,
689152,control_change,,,,,0,0,1,,,,0,64,0,,
689152,control_change,,,,,0,0,1,,,,0,64,0,,
689152,set_tempo,,,,,2048,1,0,,428571,,,,,,
689152,control_change,,,,,512,0,1,,,,0,64,0,,
689152,note_on,,,,,0,0,1,,,,0,,,46,49
689664,set_tempo,,,,,512,1,0,,400000,,,,,,
689664,note_off,,,,,512,0,1,,,,0,,,67,0
689664,note_off,,,,,0,0,1,,,,0,,,79,0
689664,note_off,,,,,0,0,1,,,,0,,,46,0
689664,note_off,,,,,0,0,1,,,,0,,,51,0
689664,note_off,,,,,0,0,1,,,,0,,,55,0
689664,note_on,,,,,0,0,1,,,,0,,,65,51
689664,note_on,,,,,0,0,1,,,,0,,,77,63
690176,note_on,,,,,512,0,1,,,,0,,,46,40
690176,note_on,,,,,0,0,1,,,,0,,,53,52
690176,note_on,,,,,0,0,1,,,,0,,,50,40
690688,note_off,,,,,0,0,1,,,,0,,,46,0
690688,note_off,,,,,0,0,1,,,,0,,,50,0
690688,note_off,,,,,0,0,1,,,,0,,,53,0
690688,note_on,,,,,0,0,1,,,,0,,,77,47
690688,note_off,,,,,0,0,1,,,,0,,,77,0
690688,note_off,,,,,512,0,1,,,,0,,,65,0
690944,note_off,,,,,256,0,1,,,,0,,,77,0
690944,note_on,,,,,0,0,1,,,,0,,,80,43
691200,control_change,,,,,0,0,1,,,,0,64,0,,
691200,note_on,,,,,0,0,1,,,,0,,,77,47
691200,note_on,,,,,0,0,1,,,,0,,,62,21
691200,control_change,,,,,0,0,1,,,,0,64,0,,
691200,control_change,,,,,256,0,1,,,,0,64,0,,
691200,note_on,,,,,0,0,1,,,,0,,,65,33
691200,control_change,,,,,0,0,1,,,,0,64,0,,
691200,note_on,,,,,0,0,1,,,,0,,,58,21
691200,note_off,,,,,0,0,1,,,,0,,,80,0
691200,set_tempo,,,,,1536,1,0,,428571,,,,,,
691345,control_change,,,,,145,0,1,,,,0,64,127,,
691374,note_off,,,,,29,0,1,,,,0,,,58,0
691374,note_off,,,,,0,0,1,,,,0,,,62,0
691374,note_off,,,,,0,0,1,,,,0,,,65,0
691456,set_tempo,,,,,256,1,0,,387096,,,,,,
691456,note_off,,,,,82,0,1,,,,0,,,77,0
691456,note_on,,,,,0,0,1,,,,0,,,80,43
691712,note_off,,,,,256,0,1,,,,0,,,80,0
691712,note_on,,,,,0,0,1,,,,0,,,86,43
691712,note_on,,,,,0,0,1,,,,0,,,58,21
691712,note_on,,,,,0,0,1,,,,0,,,62,21
691712,note_on,,,,,0,0,1,,,,0,,,65,33
691886,note_off,,,,,174,0,1,,,,0,,,58,0
691886,note_off,,,,,0,0,1,,,,0,,,62,0
691886,note_off,,,,,0,0,1,,,,0,,,65,0
691968,note_on,,,,,0,0,1,,,,0,,,89,43
691968,note_off,,,,,82,0,1,,,,0,,,86,0
692224,note_off,,,,,256,0,1,,,,0,,,89,0
692224,note_on,,,,,0,0,1,,,,0,,,86,47
692224,note_on,,,,,0,0,1,,,,0,,,58,21
692224,note_on,,,,,0,0,1,,,,0,,,62,21
692224,note_on,,,,,0,0,1,,,,0,,,65,33
692398,note_off,,,,,0,0,1,,,,0,,,65,0
692398,note_off,,,,,174,0,1,,,,0,,,58,0
692398,note_off,,,,,0,0,1,,,,0,,,62,0
692480,note_off,,,,,82,0,1,,,,0,,,86,0
692480,note_on,,,,,0,0,1,,,,0,,,80,43
692736,note_off,,,,,256,0,1,,,,0,,,80,0
692736,note_on,,,,,0,0,1,,,,0,,,77,43
692736,note_on,,,,,0,0,1,,,,0,,,58,21
692736,note_on,,,,,0,0,1,,,,0,,,62,21
692736,note_on,,,,,0,0,1,,,,0,,,65,33
692910,note_off,,,,,174,0,1,,,,0,,,58,0
692910,note_off,,,,,0,0,1,,,,0,,,62,0
692910,note_off,,,,,0,0,1,,,,0,,,65,0
692992,note_on,,,,,0,0,1,,,,0,,,80,43
692992,note_off,,,,,82,0,1,,,,0,,,77,0
693020,control_change,,,,,28,0,1,,,,0,64,0,,
693248,set_tempo,,,,,1792,1,0,,428571,,,,,,
693248,control_change,,,,,228,0,1,,,,0,64,0,,
693248,control_change,,,,,0,0,1,,,,0,64,0,,
693248,control_change,,,,,0,0,1,,,,0,64,0,,
693248,control_change,,,,,0,0,1,,,,0,64,0,,
693248,note_off,,,,,0,0,1,,,,0,,,80,0
693248,note_on,,,,,0,0,1,,,,0,,,81,47
693248,note_on,,,,,0,0,1,,,,0,,,58,21
693248,note_on,,,,,0,0,1,,,,0,,,63,21
693248,note_on,,,,,0,0,1,,,,0,,,66,33
693422,note_off,,,,,174,0,1,,,,0,,,58,0
693422,note_off,,,,,0,0,1,,,,0,,,63,0
693422,note_off,,,,,0,0,1,,,,0,,,66,0
693504,set_tempo,,,,,256,1,0,,400000,,,,,,
693504,note_off,,,,,82,0,1,,,,0,,,81,0
693504,note_on,,,,,0,0,1,,,,0,,,87,43
693760,note_off,,,,,256,0,1,,,,0,,,87,0
693760,note_on,,,,,0,0,1,,,,0,,,66,33
693760,note_on,,,,,0,0,1,,,,0,,,84,43
693760,note_on,,,,,0,0,1,,,,0,,,58,21
693760,note_on,,,,,0,0,1,,,,0,,,63,21
693934,note_off,,,,,174,0,1,,,,0,,,58,0
693934,note_off,,,,,0,0,1,,,,0,,,63,0
693934,note_off,,,,,0,0,1,,,,0,,,66,0
694016,note_off,,,,,82,0,1,,,,0,,,84,0
694016,note_on,,,,,0,0,1,,,,0,,,81,43
694272,note_off,,,,,256,0,1,,,,0,,,81,0
694272,note_on,,,,,0,0,1,,,,0,,,82,47
694272,note_on,,,,,0,0,1,,,,0,,,58,21
694272,note_on,,,,,0,0,1,,,,0,,,62,21
694272,note_on,,,,,0,0,1,,,,0,,,65,33
694446,note_off,,,,,174,0,1,,,,0,,,82,0
694446,note_off,,,,,0,0,1,,,,0,,,58,0
694446,note_off,,,,,0,0,1,,,,0,,,65,0
694446,note_off,,,,,0,0,1,,,,0,,,62,0
694784,set_tempo,,,,,1280,1,0,,428571,,,,,,
694784,note_on,,,,,0,0,1,,,,0,,,79,68
694784,note_on,,,,,338,0,1,,,,0,,,67,56
695296,set_tempo,,,,,512,1,0,,400000,,,,,,
695296,note_on,,,,,0,0,1,,,,0,,,47,53
695296,note_on,,,,,0,0,1,,,,0,,,50,41
695296,control_change,,,,,512,0,1,,,,0,64,0,,
695296,control_change,,,,,0,0,1,,,,0,64,0,,
695296,note_on,,,,,0,0,1,,,,0,,,55,41
695618,note_off,,,,,322,0,1,,,,0,,,67,0
695618,note_off,,,,,0,0,1,,,,0,,,79,0
695658,note_off,,,,,40,0,1,,,,0,,,47,0
695658,note_off,,,,,0,0,1,,,,0,,,50,0
695658,note_off,,,,,0,0,1,,,,0,,,55,0
695808,note_on,,,,,150,0,1,,,,0,,,67,60
695808,note_on,,,,,0,0,1,,,,0,,,79,71
696320,note_on,,,,,512,0,1,,,,0,,,47,56
696320,note_on,,,,,0,0,1,,,,0,,,50,44
696320,note_on,,,,,0,0,1,,,,0,,,55,44
696642,note_off,,,,,322,0,1,,,,0,,,67,0
696642,note_off,,,,,0,0,1,,,,0,,,79,0
696682,note_off,,,,,0,0,1,,,,0,,,55,0
696682,note_off,,,,,40,0,1,,,,0,,,47,0
696682,note_off,,,,,0,0,1,,,,0,,,50,0
696832,note_on,,,,,0,0,1,,,,0,,,77,71
696832,note_on,,,,,150,0,1,,,,0,,,65,60
697344,control_change,,,,,512,0,1,,,,0,64,0,,
697344,control_change,,,,,0,0,1,,,,0,64,0,,
697344,note_on,,,,,0,0,1,,,,0,,,48,59
697344,note_on,,,,,0,0,1,,,,0,,,52,47
697344,note_on,,,,,0,0,1,,,,0,,,55,47
697344,set_tempo,,,,,2048,1,0,,461538,,,,,,
697856,set_tempo,,,,,512,1,0,,400000,,,,,,
697856,note_on,,,,,0,0,1,,,,0,,,76,68
697856,note_on,,,,,512,0,1,,,,0,,,64,58
697906,note_off,,,,,50,0,1,,,,0,,,65,0
697906,note_off,,,,,0,0,1,,,,0,,,77,0
698030,note_off,,,,,0,0,1,,,,0,,,76,0
698030,note_off,,,,,124,0,1,,,,0,,,64,0
698218,note_off,,,,,188,0,1,,,,0,,,48,0
698218,note_off,,,,,0,0,1,,,,0,,,52,0
698218,note_off,,,,,0,0,1,,,,0,,,55,0
698368,note_on,,,,,0,0,1,,,,0,,,74,65
698368,note_on,,,,,0,0,1,,,,0,,,53,49
698368,note_on,,,,,0,0,1,,,,0,,,50,61
698368,note_on,,,,,150,0,1,,,,0,,,62,55
698368,note_on,,,,,0,0,1,,,,0,,,55,49
698542,note_off,,,,,0,0,1,,,,0,,,74,0
698542,note_off,,,,,174,0,1,,,,0,,,62,0
698542,note_off,,,,,0,0,1,,,,0,,,55,0
698542,note_off,,,,,0,0,1,,,,0,,,53,0
698542,note_off,,,,,0,0,1,,,,0,,,50,0
698880,note_on,,,,,0,0,1,,,,0,,,52,63
698880,note_on,,,,,0,0,1,,,,0,,,55,51
698880,note_on,,,,,338,0,1,,,,0,,,60,53
698880,note_on,,,,,0,0,1,,,,0,,,72,63
699054,note_off,,,,,0,0,1,,,,0,,,72,0
699054,note_off,,,,,0,0,1,,,,0,,,52,0
699054,note_off,,,,,0,0,1,,,,0,,,55,0
699054,note_off,,,,,174,0,1,,,,0,,,60,0
699392,note_on,,,,,0,0,1,,,,0,,,55,52
699392,note_on,,,,,0,0,1,,,,0,,,59,51
699392,control_change,,,,,338,0,1,,,,0,64,0,,
699392,control_change,,,,,0,0,1,,,,0,64,0,,
699392,note_on,,,,,0,0,1,,,,0,,,53,64
699392,note_on,,,,,0,0,1,,,,0,,,71,60
699566,note_off,,,,,174,0,1,,,,0,,,59,0
699566,note_off,,,,,0,0,1,,,,0,,,71,0
699754,note_off,,,,,0,0,1,,,,0,,,55,0
699754,note_off,,,,,188,0,1,,,,0,,,53,0
699904,note_on,,,,,150,0,1,,,,0,,,67,64
699904,note_on,,,,,0,0,1,,,,0,,,79,75
700416,set_tempo,,,,,2560,1,0,,428571,,,,,,
700416,note_on,,,,,512,0,1,,,,0,,,47,53
700416,note_on,,,,,0,0,1,,,,0,,,50,41
700416,note_on,,,,,0,0,1,,,,0,,,55,41
700738,note_off,,,,,322,0,1,,,,0,,,67,0
700738,note_off,,,,,0,0,1,,,,0,,,79,0
700778,note_off,,,,,0,0,1,,,,0,,,50,0
700778,note_off,,,,,40,0,1,,,,0,,,47,0
700778,note_off,,,,,0,0,1,,,,0,,,55,0
700928,note_on,,,,,150,0,1,,,,0,,,65,60
700928,note_on,,,,,0,0,1,,,,0,,,77,71
700928,set_tempo,,,,,512,1,0,,400000,,,,,,
701440,set_tempo,,,,,512,1,0,,428571,,,,,,
701440,note_on,,,,,0,0,1,,,,0,,,55,45
701440,note_on,,,,,0,0,1,,,,0,,,52,45
701440,note_on,,,,,0,0,1,,,,0,,,48,57
701440,control_change,,,,,512,0,1,,,,0,64,0,,
701440,control_change,,,,,0,0,1,,,,0,64,0,,
701952,note_on,,,,,0,0,1,,,,0,,,76,67
701952,note_on,,,,,512,0,1,,,,0,,,64,57
701952,set_tempo,,,,,512,1,0,,400000,,,,,,
702002,note_off,,,,,0,0,1,,,,0,,,77,0
702002,note_off,,,,,50,0,1,,,,0,,,65,0
702126,note_off,,,,,124,0,1,,,,0,,,64,0
702126,note_off,,,,,0,0,1,,,,0,,,76,0
702314,note_off,,,,,188,0,1,,,,0,,,48,0
702314,note_off,,,,,0,0,1,,,,0,,,52,0
702314,note_off,,,,,0,0,1,,,,0,,,55,0
702464,note_on,,,,,0,0,1,,,,0,,,53,48
702464,note_on,,,,,0,0,1,,,,0,,,55,48
702464,note_on,,,,,0,0,1,,,,0,,,74,64
702464,note_on,,,,,150,0,1,,,,0,,,62,54
702464,note_on,,,,,0,0,1,,,,0,,,50,60
702638,note_off,,,,,174,0,1,,,,0,,,62,0
702638,note_off,,,,,0,0,1,,,,0,,,50,0
702638,note_off,,,,,0,0,1,,,,0,,,53,0
702638,note_off,,,,,0,0,1,,,,0,,,55,0
702638,note_off,,,,,0,0,1,,,,0,,,74,0
702976,note_on,,,,,338,0,1,,,,0,,,60,51
702976,note_on,,,,,0,0,1,,,,0,,,72,60
702976,note_on,,,,,0,0,1,,,,0,,,52,62
702976,note_on,,,,,0,0,1,,,,0,,,55,50
703150,note_off,,,,,0,0,1,,,,0,,,55,0
703150,note_off,,,,,0,0,1,,,,0,,,52,0
703150,note_off,,,,,174,0,1,,,,0,,,60,0
703150,note_off,,,,,0,0,1,,,,0,,,72,0
703488,note_on,,,,,0,0,1,,,,0,,,55,52
703488,note_on,,,,,0,0,1,,,,0,,,45,64
703488,set_tempo,,,,,1536,1,0,,500000,,,,,,
703488,note_on,,,,,0,0,1,,,,0,,,69,64
703488,control_change,,,,,338,0,1,,,,0,64,0,,
703488,note_on,,,,,0,0,1,,,,0,,,81,75
703488,note_on,,,,,0,0,1,,,,0,,,48,52
703488,control_change,,,,,0,0,1,,,,0,64,0,,
703662,note_off,,,,,0,0,1,,,,0,,,81,0
703662,note_off,,,,,174,0,1,,,,0,,,69,0
703850,note_off,,,,,188,0,1,,,,0,,,45,0
703850,note_off,,,,,0,0,1,,,,0,,,48,0
703850,note_off,,,,,0,0,1,,,,0,,,55,0
704000,note_on,,,,,150,0,1,,,,0,,,67,60
704000,note_on,,,,,0,0,1,,,,0,,,79,71
704000,set_tempo,,,,,512,1,0,,400000,,,,,,
704512,note_on,,,,,512,0,1,,,,0,,,47,68
704512,note_on,,,,,0,0,1,,,,0,,,50,56
704512,note_on,,,,,0,0,1,,,,0,,,55,56
704834,note_off,,,,,322,0,1,,,,0,,,67,0
704834,note_off,,,,,0,0,1,,,,0,,,79,0
704874,note_off,,,,,0,0,1,,,,0,,,55,0
704874,note_off,,,,,0,0,1,,,,0,,,50,0
704874,note_off,,,,,40,0,1,,,,0,,,47,0
705024,note_on,,,,,0,0,1,,,,0,,,77,71
705024,note_on,,,,,150,0,1,,,,0,,,65,60
705536,control_change,,,,,512,0,1,,,,0,64,0,,
705536,control_change,,,,,0,0,1,,,,0,64,0,,
705536,note_on,,,,,0,0,1,,,,0,,,48,67
705536,note_on,,,,,0,0,1,,,,0,,,52,55
705536,note_on,,,,,0,0,1,,,,0,,,55,55
706048,note_on,,,,,512,0,1,,,,0,,,64,62
706048,note_on,,,,,0,0,1,,,,0,,,76,72
706098,note_off,,,,,50,0,1,,,,0,,,65,0
706098,note_off,,,,,0,0,1,,,,0,,,77,0
706222,note_off,,,,,124,0,1,,,,0,,,64,0
706222,note_off,,,,,0,0,1,,,,0,,,76,0
706410,note_off,,,,,188,0,1,,,,0,,,48,0
706410,note_off,,,,,0,0,1,,,,0,,,52,0
706410,note_off,,,,,0,0,1,,,,0,,,55,0
706560,note_on,,,,,0,0,1,,,,0,,,55,55
706560,note_on,,,,,150,0,1,,,,0,,,62,59
706560,note_on,,,,,0,0,1,,,,0,,,74,69
706560,note_on,,,,,0,0,1,,,,0,,,50,67
706560,note_on,,,,,0,0,1,,,,0,,,53,55
706734,note_off,,,,,0,0,1,,,,0,,,53,0
706734,note_off,,,,,0,0,1,,,,0,,,50,0
706734,note_off,,,,,0,0,1,,,,0,,,74,0
706734,note_off,,,,,0,0,1,,,,0,,,55,0
706734,note_off,,,,,174,0,1,,,,0,,,62,0
707072,note_on,,,,,0,0,1,,,,0,,,55,55
707072,note_on,,,,,338,0,1,,,,0,,,60,56
707072,note_on,,,,,0,0,1,,,,0,,,72,65
707072,note_on,,,,,0,0,1,,,,0,,,52,67
707246,note_off,,,,,0,0,1,,,,0,,,55,0
707246,note_off,,,,,0,0,1,,,,0,,,52,0
707246,note_off,,,,,0,0,1,,,,0,,,72,0
707246,note_off,,,,,174,0,1,,,,0,,,60,0
707584,note_on,,,,,0,0,1,,,,0,,,48,52
707584,set_tempo,,,,,3584,1,0,,461538,,,,,,
707584,control_change,,,,,338,0,1,,,,0,64,0,,
707584,control_change,,,,,0,0,1,,,,0,64,0,,
707584,note_on,,,,,0,0,1,,,,0,,,59,65
707584,note_on,,,,,0,0,1,,,,0,,,71,76
707584,note_on,,,,,0,0,1,,,,0,,,41,64
708096,set_tempo,,,,,512,1,0,,400000,,,,,,
708096,note_on,,,,,0,0,1,,,,0,,,69,67
708096,note_on,,,,,512,0,1,,,,0,,,57,57
708146,note_off,,,,,50,0,1,,,,0,,,59,0
708146,note_off,,,,,0,0,1,,,,0,,,71,0
708270,note_off,,,,,124,0,1,,,,0,,,57,0
708270,note_off,,,,,0,0,1,,,,0,,,69,0
708458,note_off,,,,,0,0,1,,,,0,,,48,0
708458,note_off,,,,,188,0,1,,,,0,,,41,0
708608,note_on,,,,,0,0,1,,,,0,,,43,64
708608,note_on,,,,,0,0,1,,,,0,,,67,62
708608,note_on,,,,,150,0,1,,,,0,,,55,53
708608,note_on,,,,,0,0,1,,,,0,,,48,52
708782,note_off,,,,,0,0,1,,,,0,,,43,0
708782,note_off,,,,,174,0,1,,,,0,,,55,0
708782,note_off,,,,,0,0,1,,,,0,,,67,0
708782,note_off,,,,,0,0,1,,,,0,,,48,0
709120,note_on,,,,,338,0,1,,,,0,,,53,49
709120,note_on,,,,,0,0,1,,,,0,,,65,58
709120,note_on,,,,,0,0,1,,,,0,,,45,64
709120,note_on,,,,,0,0,1,,,,0,,,48,52
709294,note_off,,,,,174,0,1,,,,0,,,53,0
709294,note_off,,,,,0,0,1,,,,0,,,65,0
709294,note_off,,,,,0,0,1,,,,0,,,45,0
709294,note_off,,,,,0,0,1,,,,0,,,48,0
709632,set_tempo,,,,,1536,1,0,,444444,,,,,,
709632,note_on,,,,,0,0,1,,,,0,,,48,52
709632,note_on,,,,,0,0,1,,,,0,,,64,69
709632,note_on,,,,,0,0,1,,,,0,,,43,64
709632,note_on,,,,,0,0,1,,,,0,,,55,58
709632,control_change,,,,,0,0,1,,,,0,64,0,,
709632,control_change,,,,,338,0,1,,,,0,64,0,,
709632,note_on,,,,,0,0,1,,,,0,,,60,58
709806,note_off,,,,,174,0,1,,,,0,,,55,0
709806,note_off,,,,,0,0,1,,,,0,,,60,0
709806,note_off,,,,,0,0,1,,,,0,,,64,0
709806,note_off,,,,,0,0,1,,,,0,,,43,0
709806,note_off,,,,,0,0,1,,,,0,,,48,0
710144,set_tempo,,,,,512,1,0,,400000,,,,,,
710144,note_on,,,,,0,0,1,,,,0,,,50,70
710144,note_on,,,,,0,0,1,,,,0,,,62,71
710144,note_on,,,,,0,0,1,,,,0,,,65,82
710144,note_on,,,,,338,0,1,,,,0,,,55,71
710144,note_on,,,,,0,0,1,,,,0,,,43,58
711168,note_off,,,,,1024,0,1,,,,0,,,55,0
711168,note_off,,,,,0,0,1,,,,0,,,62,0
711168,note_off,,,,,0,0,1,,,,0,,,43,0
711168,note_off,,,,,0,0,1,,,,0,,,65,0
711168,note_on,,,,,0,0,1,,,,0,,,55,57
711168,note_off,,,,,0,0,1,,,,0,,,50,0
711168,note_on,,,,,0,0,1,,,,0,,,59,57
711168,note_on,,,,,0,0,1,,,,0,,,62,68
711168,note_on,,,,,0,0,1,,,,0,,,43,49
711168,note_on,,,,,0,0,1,,,,0,,,50,61
711168,note_on,,,,,0,0,1,,,,0,,,47,49
711168,set_tempo,,,,,1024,1,0,,428571,,,,,,
711342,note_off,,,,,0,0,1,,,,0,,,59,0
711342,note_off,,,,,174,0,1,,,,0,,,55,0
711342,note_off,,,,,0,0,1,,,,0,,,43,0
711342,note_off,,,,,0,0,1,,,,0,,,47,0
711342,note_off,,,,,0,0,1,,,,0,,,50,0
711342,note_off,,,,,0,0,1,,,,0,,,62,0
711680,note_on,,,,,0,0,1,,,,0,,,48,55
711680,note_on,,,,,0,0,1,,,,0,,,52,53
711680,note_on,,,,,0,0,1,,,,0,,,55,53
711680,note_on,,,,,0,0,1,,,,0,,,60,64
711680,note_on,,,,,0,0,1,,,,0,,,36,43
711680,control_change,,,,,0,0,1,,,,0,64,0,,
711680,control_change,,,,,338,0,1,,,,0,64,0,,
711854,note_off,,,,,0,0,1,,,,0,,,55,0
711854,note_off,,,,,0,0,1,,,,0,,,48,0
711854,note_off,,,,,0,0,1,,,,0,,,36,0
711854,note_off,,,,,0,0,1,,,,0,,,60,0
711854,note_off,,,,,174,0,1,,,,0,,,52,0
712192,note_on,,,,,338,0,1,,,,0,,,72,50
712192,set_tempo,,,,,1024,1,0,,400000,,,,,,
712448,note_off,,,,,256,0,1,,,,0,,,72,0
712448,note_on,,,,,0,0,1,,,,0,,,76,50
712704,note_on,,,,,0,0,1,,,,0,,,72,50
712704,note_off,,,,,256,0,1,,,,0,,,76,0
712960,note_on,,,,,0,0,1,,,,0,,,76,50
712960,note_off,,,,,256,0,1,,,,0,,,72,0
713216,note_off,,,,,256,0,1,,,,0,,,76,0
713216,set_tempo,,,,,1024,1,0,,461538,,,,,,
713216,note_on,,,,,0,0,1,,,,0,,,81,56
713728,control_change,,,,,0,0,1,,,,0,64,0,,
713728,note_on,,,,,0,0,1,,,,0,,,60,34
713728,control_change,,,,,512,0,1,,,,0,64,0,,
713728,set_tempo,,,,,512,1,0,,400000,,,,,,
713728,note_on,,,,,0,0,1,,,,0,,,65,34
713728,note_on,,,,,0,0,1,,,,0,,,69,46
714240,note_off,,,,,0,0,1,,,,0,,,60,0
714240,note_off,,,,,0,0,1,,,,0,,,65,0
714240,note_on,,,,,0,0,1,,,,0,,,79,46
714240,note_off,,,,,0,0,1,,,,0,,,69,0
714240,note_off,,,,,512,0,1,,,,0,,,81,0
714752,note_on,,,,,512,0,1,,,,0,,,60,29
714752,note_on,,,,,0,0,1,,,,0,,,64,29
714752,note_on,,,,,0,0,1,,,,0,,,67,41
715264,note_on,,,,,0,0,1,,,,0,,,78,54
715264,set_tempo,,,,,1536,1,0,,461538,,,,,,
715264,note_off,,,,,512,0,1,,,,0,,,79,0
715264,note_off,,,,,0,0,1,,,,0,,,60,0
715264,note_off,,,,,0,0,1,,,,0,,,64,0
715264,note_off,,,,,0,0,1,,,,0,,,67,0
715776,note_on,,,,,0,0,1,,,,0,,,60,27
715776,control_change,,,,,0,0,1,,,,0,64,0,,
715776,control_change,,,,,512,0,1,,,,0,64,0,,
715776,note_on,,,,,0,0,1,,,,0,,,63,27
715776,set_tempo,,,,,512,1,0,,400000,,,,,,
715776,note_on,,,,,0,0,1,,,,0,,,66,37
715950,note_off,,,,,0,0,1,,,,0,,,63,0
715950,note_off,,,,,174,0,1,,,,0,,,60,0
715950,note_off,,,,,0,0,1,,,,0,,,66,0
716032,set_tempo,,,,,256,1,0,,387096,,,,,,
716032,note_off,,,,,82,0,1,,,,0,,,78,0
716032,note_on,,,,,0,0,1,,,,0,,,84,54
716288,note_off,,,,,256,0,1,,,,0,,,84,0
716288,note_on,,,,,0,0,1,,,,0,,,66,35
716288,note_on,,,,,0,0,1,,,,0,,,63,26
716288,note_on,,,,,0,0,1,,,,0,,,60,26
716288,note_on,,,,,0,0,1,,,,0,,,78,52
716462,note_off,,,,,0,0,1,,,,0,,,66,0
716462,note_off,,,,,0,0,1,,,,0,,,63,0
716462,note_off,,,,,174,0,1,,,,0,,,60,0
716544,note_off,,,,,82,0,1,,,,0,,,78,0
716544,note_on,,,,,0,0,1,,,,0,,,84,51
716800,note_off,,,,,256,0,1,,,,0,,,84,0
716800,note_on,,,,,0,0,1,,,,0,,,79,50
716800,note_on,,,,,0,0,1,,,,0,,,60,24
716800,note_on,,,,,0,0,1,,,,0,,,64,24
716800,note_on,,,,,0,0,1,,,,0,,,67,32
716974,note_off,,,,,174,0,1,,,,0,,,60,0
716974,note_off,,,,,0,0,1,,,,0,,,64,0
716974,note_off,,,,,0,0,1,,,,0,,,67,0
717056,note_on,,,,,0,0,1,,,,0,,,84,49
717056,note_off,,,,,82,0,1,,,,0,,,79,0
717312,note_on,,,,,0,0,1,,,,0,,,79,47
717312,note_off,,,,,256,0,1,,,,0,,,84,0
717568,note_off,,,,,256,0,1,,,,0,,,79,0
717568,note_on,,,,,0,0,1,,,,0,,,72,46
717824,control_change,,,,,256,0,1,,,,0,64,0,,
717824,control_change,,,,,0,0,1,,,,0,64,0,,
717824,note_off,,,,,0,0,1,,,,0,,,72,0
717824,note_on,,,,,0,0,1,,,,0,,,81,50
717824,note_on,,,,,0,0,1,,,,0,,,60,34
717824,note_on,,,,,0,0,1,,,,0,,,65,34
717824,note_on,,,,,0,0,1,,,,0,,,69,46
717824,set_tempo,,,,,1792,1,0,,500000,,,,,,
717998,note_off,,,,,174,0,1,,,,0,,,81,0
718336,note_off,,,,,0,0,1,,,,0,,,69,0
718336,set_tempo,,,,,512,1,0,,400000,,,,,,
718336,note_off,,,,,0,0,1,,,,0,,,65,0
718336,note_on,,,,,338,0,1,,,,0,,,79,46
718336,note_off,,,,,0,0,1,,,,0,,,60,0
718848,note_on,,,,,512,0,1,,,,0,,,60,29
718848,note_on,,,,,0,0,1,,,,0,,,64,29
718848,note_on,,,,,0,0,1,,,,0,,,67,41
719360,note_off,,,,,512,0,1,,,,0,,,79,0
719360,note_on,,,,,0,0,1,,,,0,,,78,54
719360,note_off,,,,,0,0,1,,,,0,,,60,0
719360,note_off,,,,,0,0,1,,,,0,,,64,0
719360,note_off,,,,,0,0,1,,,,0,,,67,0
719360,set_tempo,,,,,1024,1,0,,461538,,,,,,
719872,set_tempo,,,,,512,1,0,,400000,,,,,,
719872,note_on,,,,,0,0,1,,,,0,,,66,37
719872,control_change,,,,,0,0,1,,,,0,64,0,,
719872,note_on,,,,,0,0,1,,,,0,,,60,27
719872,control_change,,,,,512,0,1,,,,0,64,0,,
719872,note_on,,,,,0,0,1,,,,0,,,63,27
720046,note_off,,,,,0,0,1,,,,0,,,63,0
720046,note_off,,,,,174,0,1,,,,0,,,60,0
720046,note_off,,,,,0,0,1,,,,0,,,66,0
720128,note_off,,,,,82,0,1,,,,0,,,78,0
720128,note_on,,,,,0,0,1,,,,0,,,84,54
720128,set_tempo,,,,,256,1,0,,387096,,,,,,
720384,note_off,,,,,256,0,1,,,,0,,,84,0
720384,note_on,,,,,0,0,1,,,,0,,,63,26
720384,note_on,,,,,0,0,1,,,,0,,,60,26
720384,note_on,,,,,0,0,1,,,,0,,,78,52
720384,note_on,,,,,0,0,1,,,,0,,,66,35
720558,note_off,,,,,0,0,1,,,,0,,,63,0
720558,note_off,,,,,174,0,1,,,,0,,,60,0
720558,note_off,,,,,0,0,1,,,,0,,,66,0
720640,note_off,,,,,82,0,1,,,,0,,,78,0
720640,note_on,,,,,0,0,1,,,,0,,,84,51
720896,note_off,,,,,256,0,1,,,,0,,,84,0
720896,note_on,,,,,0,0,1,,,,0,,,79,50
720896,note_on,,,,,0,0,1,,,,0,,,60,24
720896,note_on,,,,,0,0,1,,,,0,,,64,24
720896,note_on,,,,,0,0,1,,,,0,,,67,32
721070,note_off,,,,,0,0,1,,,,0,,,64,0
721070,note_off,,,,,174,0,1,,,,0,,,60,0
721070,note_off,,,,,0,0,1,,,,0,,,67,0
721152,note_off,,,,,82,0,1,,,,0,,,79,0
721152,note_on,,,,,0,0,1,,,,0,,,84,49
721408,note_off,,,,,256,0,1,,,,0,,,84,0
721408,note_on,,,,,0,0,1,,,,0,,,79,47
721664,note_off,,,,,256,0,1,,,,0,,,79,0
721664,note_on,,,,,0,0,1,,,,0,,,72,46
721920,note_on,,,,,0,0,1,,,,0,,,66,37
721920,note_on,,,,,0,0,1,,,,0,,,63,27
721920,note_on,,,,,0,0,1,,,,0,,,56,27
721920,note_on,,,,,0,0,1,,,,0,,,80,55
721920,control_change,,,,,256,0,1,,,,0,64,0,,
721920,control_change,,,,,0,0,1,,,,0,64,0,,
721920,note_off,,,,,0,0,1,,,,0,,,72,0
722053,control_change,,,,,133,0,1,,,,0,64,127,,
722094,note_off,,,,,41,0,1,,,,0,,,56,0
722094,note_off,,,,,0,0,1,,,,0,,,63,0
722094,note_off,,,,,0,0,1,,,,0,,,66,0
722176,note_off,,,,,82,0,1,,,,0,,,80,0
722176,note_on,,,,,0,0,1,,,,0,,,84,54
722432,note_on,,,,,0,0,1,,,,0,,,66,35
722432,note_on,,,,,0,0,1,,,,0,,,56,26
722432,note_off,,,,,256,0,1,,,,0,,,84,0
722432,note_on,,,,,0,0,1,,,,0,,,80,52
722432,note_on,,,,,0,0,1,,,,0,,,63,26
722606,note_off,,,,,0,0,1,,,,0,,,63,0
722606,note_off,,,,,0,0,1,,,,0,,,66,0
722606,note_off,,,,,174,0,1,,,,0,,,56,0
722688,note_off,,,,,82,0,1,,,,0,,,80,0
722688,note_on,,,,,0,0,1,,,,0,,,84,51
722688,set_tempo,,,,,2560,1,0,,500000,,,,,,
722944,note_on,,,,,0,0,1,,,,0,,,65,36
722944,set_tempo,,,,,256,1,0,,400000,,,,,,
722944,note_on,,,,,0,0,1,,,,0,,,80,50
722944,note_off,,,,,256,0,1,,,,0,,,84,0
722944,note_on,,,,,0,0,1,,,,0,,,61,24
722952,control_change,,,,,8,0,1,,,,0,64,0,,
723118,note_off,,,,,166,0,1,,,,0,,,61,0
723118,note_off,,,,,0,0,1,,,,0,,,65,0
723200,note_on,,,,,0,0,1,,,,0,,,85,49
723200,note_off,,,,,82,0,1,,,,0,,,80,0
723456,note_off,,,,,256,0,1,,,,0,,,85,0
723456,note_on,,,,,0,0,1,,,,0,,,80,47
723712,note_off,,,,,256,0,1,,,,0,,,80,0
723712,note_on,,,,,0,0,1,,,,0,,,73,46
723968,note_on,,,,,0,0,1,,,,0,,,59,33
723968,note_on,,,,,0,0,1,,,,0,,,62,45
723968,note_on,,,,,0,0,1,,,,0,,,83,46
723968,note_off,,,,,0,0,1,,,,0,,,73,0
723968,control_change,,,,,0,0,1,,,,0,64,0,,
723968,control_change,,,,,256,0,1,,,,0,64,0,,
723968,note_on,,,,,0,0,1,,,,0,,,55,33
724051,control_change,,,,,83,0,1,,,,0,64,127,,
724224,note_off,,,,,173,0,1,,,,0,,,83,0
724224,note_on,,,,,0,0,1,,,,0,,,86,48
724480,note_off,,,,,256,0,1,,,,0,,,86,0
724480,note_on,,,,,0,0,1,,,,0,,,83,50
724736,note_on,,,,,0,0,1,,,,0,,,74,51
724736,note_off,,,,,256,0,1,,,,0,,,83,0
724992,note_on,,,,,0,0,1,,,,0,,,84,53
724992,note_on,,,,,0,0,1,,,,0,,,55,38
724992,note_on,,,,,0,0,1,,,,0,,,60,38
724992,note_on,,,,,0,0,1,,,,0,,,64,50
724992,note_off,,,,,0,0,1,,,,0,,,55,0
724992,note_off,,,,,256,0,1,,,,0,,,74,0
724992,note_off,,,,,0,0,1,,,,0,,,59,0
724992,note_off,,,,,0,0,1,,,,0,,,62,0
725023,control_change,,,,,31,0,1,,,,0,64,0,,
725189,control_change,,,,,166,0,1,,,,0,64,127,,
725248,note_off,,,,,59,0,1,,,,0,,,84,0
725248,note_on,,,,,0,0,1,,,,0,,,88,55
725504,note_off,,,,,256,0,1,,,,0,,,88,0
725504,note_on,,,,,0,0,1,,,,0,,,84,57
725760,note_off,,,,,256,0,1,,,,0,,,84,0
725760,note_on,,,,,0,0,1,,,,0,,,76,59
726016,control_change,,,,,256,0,1,,,,0,64,0,,
726016,control_change,,,,,0,0,1,,,,0,64,127,,
726016,note_off,,,,,0,0,1,,,,0,,,76,0
726016,note_off,,,,,0,0,1,,,,0,,,60,0
726016,note_off,,,,,0,0,1,,,,0,,,64,0
726016,note_on,,,,,0,0,1,,,,0,,,86,61
726016,note_on,,,,,0,0,1,,,,0,,,55,43
726016,note_on,,,,,0,0,1,,,,0,,,62,43
726016,note_on,,,,,0,0,1,,,,0,,,65,55
726016,note_off,,,,,0,0,1,,,,0,,,55,0
726077,control_change,,,,,61,0,1,,,,0,64,0,,
726221,control_change,,,,,144,0,1,,,,0,64,127,,
726272,note_off,,,,,51,0,1,,,,0,,,86,0
726272,note_on,,,,,0,0,1,,,,0,,,89,62
726528,note_on,,,,,0,0,1,,,,0,,,86,64
726528,note_off,,,,,256,0,1,,,,0,,,89,0
726784,note_off,,,,,256,0,1,,,,0,,,86,0
726784,note_on,,,,,0,0,1,,,,0,,,77,66
727040,control_change,,,,,256,0,1,,,,0,64,0,,
727040,note_off,,,,,0,0,1,,,,0,,,77,0
727040,note_off,,,,,0,0,1,,,,0,,,55,0
727040,note_off,,,,,0,0,1,,,,0,,,62,0
727040,note_off,,,,,0,0,1,,,,0,,,65,0
727040,note_on,,,,,0,0,1,,,,0,,,83,68
727040,note_on,,,,,0,0,1,,,,0,,,59,48
727040,note_on,,,,,0,0,1,,,,0,,,67,60
727040,note_on,,,,,0,0,1,,,,0,,,55,48
727245,control_change,,,,,205,0,1,,,,0,64,127,,
727296,note_off,,,,,51,0,1,,,,0,,,83,0
727296,note_on,,,,,0,0,1,,,,0,,,91,70
727552,note_off,,,,,256,0,1,,,,0,,,91,0
727552,note_on,,,,,0,0,1,,,,0,,,83,71
727808,note_on,,,,,0,0,1,,,,0,,,79,73
727808,note_off,,,,,256,0,1,,,,0,,,83,0
728064,set_tempo,,,,,5120,1,0,,500000,,,,,,
728064,note_off,,,,,0,0,1,,,,0,,,79,0
728064,note_off,,,,,0,0,1,,,,0,,,55,0
728064,control_change,,,,,0,0,1,,,,0,64,0,,
728064,note_off,,,,,0,0,1,,,,0,,,59,0
728064,note_off,,,,,0,0,1,,,,0,,,67,0
728064,note_on,,,,,0,0,1,,,,0,,,77,79
728064,note_on,,,,,0,0,1,,,,0,,,48,60
728064,note_on,,,,,0,0,1,,,,0,,,55,48
728064,control_change,,,,,256,0,1,,,,0,64,0,,
728086,control_change,,,,,22,0,1,,,,0,64,127,,
728242,control_change,,,,,156,0,1,,,,0,64,0,,
728320,note_on,,,,,78,0,1,,,,0,,,89,71
728320,set_tempo,,,,,256,1,0,,400000,,,,,,
728353,control_change,,,,,33,0,1,,,,0,64,127,,
728576,note_off,,,,,223,0,1,,,,0,,,77,0
728576,note_off,,,,,0,0,1,,,,0,,,89,0
728576,note_on,,,,,0,0,1,,,,0,,,76,70
728832,note_off,,,,,256,0,1,,,,0,,,76,0
728832,note_on,,,,,0,0,1,,,,0,,,88,69
729021,control_change,,,,,189,0,1,,,,0,64,0,,
729088,note_on,,,,,0,0,1,,,,0,,,55,48
729088,note_off,,,,,0,0,1,,,,0,,,48,0
729088,note_off,,,,,0,0,1,,,,0,,,55,0
729088,note_off,,,,,67,0,1,,,,0,,,88,0
729088,note_on,,,,,0,0,1,,,,0,,,74,67
729088,note_on,,,,,0,0,1,,,,0,,,50,60
729262,note_off,,,,,174,0,1,,,,0,,,50,0
729262,note_off,,,,,0,0,1,,,,0,,,55,0
729344,note_off,,,,,82,0,1,,,,0,,,74,0
729344,note_on,,,,,0,0,1,,,,0,,,86,66
729600,note_on,,,,,0,0,1,,,,0,,,52,60
729600,note_on,,,,,0,0,1,,,,0,,,72,65
729600,note_off,,,,,256,0,1,,,,0,,,86,0
729600,note_on,,,,,0,0,1,,,,0,,,55,48
729774,note_off,,,,,174,0,1,,,,0,,,52,0
729774,note_off,,,,,0,0,1,,,,0,,,55,0
729856,note_off,,,,,82,0,1,,,,0,,,72,0
729856,note_on,,,,,0,0,1,,,,0,,,84,64
730112,note_on,,,,,0,0,1,,,,0,,,48,48
730112,note_on,,,,,0,0,1,,,,0,,,41,60
730112,control_change,,,,,0,0,1,,,,0,64,0,,
730112,note_off,,,,,0,0,1,,,,0,,,84,0
730112,control_change,,,,,256,0,1,,,,0,64,0,,
730112,note_on,,,,,0,0,1,,,,0,,,71,76
730275,control_change,,,,,163,0,1,,,,0,64,127,,
730368,note_on,,,,,93,0,1,,,,0,,,83,67
730624,note_off,,,,,256,0,1,,,,0,,,71,0
730624,note_off,,,,,0,0,1,,,,0,,,83,0
730624,note_on,,,,,0,0,1,,,,0,,,69,65
730880,note_off,,,,,256,0,1,,,,0,,,69,0
730880,note_on,,,,,0,0,1,,,,0,,,81,64
731066,control_change,,,,,186,0,1,,,,0,64,0,,
731136,note_off,,,,,70,0,1,,,,0,,,81,0
731136,note_on,,,,,0,0,1,,,,0,,,67,62
731136,note_on,,,,,0,0,1,,,,0,,,43,60
731136,note_on,,,,,0,0,1,,,,0,,,48,48
731136,note_off,,,,,0,0,1,,,,0,,,41,0
731136,note_off,,,,,0,0,1,,,,0,,,48,0
731310,note_off,,,,,174,0,1,,,,0,,,43,0
731310,note_off,,,,,0,0,1,,,,0,,,48,0
731392,note_off,,,,,82,0,1,,,,0,,,67,0
731392,note_on,,,,,0,0,1,,,,0,,,79,60
731648,note_on,,,,,0,0,1,,,,0,,,65,59
731648,note_on,,,,,0,0,1,,,,0,,,48,48
731648,note_off,,,,,256,0,1,,,,0,,,79,0
731648,note_on,,,,,0,0,1,,,,0,,,45,60
731822,note_off,,,,,174,0,1,,,,0,,,45,0
731822,note_off,,,,,0,0,1,,,,0,,,48,0
731904,note_off,,,,,82,0,1,,,,0,,,65,0
731904,note_on,,,,,0,0,1,,,,0,,,77,57
732160,control_change,,,,,256,0,1,,,,0,64,0,,
732160,control_change,,,,,0,0,1,,,,0,64,0,,
732160,control_change,,,,,0,0,1,,,,0,64,0,,
732160,control_change,,,,,0,0,1,,,,0,64,0,,
732160,note_off,,,,,0,0,1,,,,0,,,77,0
732160,note_on,,,,,0,0,1,,,,0,,,64,58
732160,note_on,,,,,0,0,1,,,,0,,,76,69
732160,note_on,,,,,0,0,1,,,,0,,,43,64
732160,note_on,,,,,0,0,1,,,,0,,,48,52
732160,note_on,,,,,0,0,1,,,,0,,,72,58
732160,set_tempo,,,,,3840,1,0,,500000,,,,,,
732334,note_off,,,,,0,0,1,,,,0,,,43,0
732334,note_off,,,,,174,0,1,,,,0,,,64,0
732334,note_off,,,,,0,0,1,,,,0,,,72,0
732334,note_off,,,,,0,0,1,,,,0,,,76,0
732334,note_off,,,,,0,0,1,,,,0,,,48,0
732672,note_on,,,,,0,0,1,,,,0,,,65,58
732672,set_tempo,,,,,512,1,0,,400000,,,,,,
732672,note_on,,,,,0,0,1,,,,0,,,62,70
732672,note_on,,,,,0,0,1,,,,0,,,55,58
732672,note_on,,,,,338,0,1,,,,0,,,67,71
732672,note_on,,,,,0,0,1,,,,0,,,74,71
732672,note_on,,,,,0,0,1,,,,0,,,77,82
732815,control_change,,,,,143,0,1,,,,0,64,127,,
733696,note_off,,,,,0,0,1,,,,0,,,65,0
733696,set_tempo,,,,,1024,1,0,,428571,,,,,,
733696,note_on,,,,,0,0,1,,,,0,,,71,57
733696,note_on,,,,,0,0,1,,,,0,,,55,49
733696,note_on,,,,,0,0,1,,,,0,,,59,49
733696,note_on,,,,,0,0,1,,,,0,,,62,61
733696,note_off,,,,,0,0,1,,,,0,,,62,0
733696,note_off,,,,,0,0,1,,,,0,,,55,0
733696,note_on,,,,,0,0,1,,,,0,,,74,68
733696,note_off,,,,,0,0,1,,,,0,,,74,0
733696,note_off,,,,,0,0,1,,,,0,,,77,0
733696,note_on,,,,,0,0,1,,,,0,,,67,57
733696,note_off,,,,,881,0,1,,,,0,,,67,0
733839,control_change,,,,,143,0,1,,,,0,64,0,,
733870,note_off,,,,,31,0,1,,,,0,,,67,0
733870,note_off,,,,,0,0,1,,,,0,,,71,0
733870,note_off,,,,,0,0,1,,,,0,,,74,0
733870,note_off,,,,,0,0,1,,,,0,,,55,0
733870,note_off,,,,,0,0,1,,,,0,,,59,0
733870,note_off,,,,,0,0,1,,,,0,,,62,0
734208,control_change,,,,,0,0,1,,,,0,64,0,,
734208,note_on,,,,,0,0,1,,,,0,,,60,64
734208,note_on,,,,,0,0,1,,,,0,,,55,52
734208,note_on,,,,,0,0,1,,,,0,,,48,64
734208,note_on,,,,,0,0,1,,,,0,,,72,69
734208,note_on,,,,,0,0,1,,,,0,,,67,58
734208,note_on,,,,,0,0,1,,,,0,,,64,58
734208,control_change,,,,,338,0,1,,,,0,64,0,,
734208,control_change,,,,,0,0,1,,,,0,64,0,,
734208,set_tempo,,,,,512,1,0,,500000,,,,,,
734208,control_change,,,,,0,0,1,,,,0,64,0,,
734382,note_off,,,,,0,0,1,,,,0,,,60,0
734382,note_off,,,,,174,0,1,,,,0,,,64,0
734382,note_off,,,,,0,0,1,,,,0,,,67,0
734382,note_off,,,,,0,0,1,,,,0,,,72,0
734382,note_off,,,,,0,0,1,,,,0,,,48,0
734382,note_off,,,,,0,0,1,,,,0,,,55,0
734720,note_on,,,,,0,0,1,,,,0,,,48,70
734720,note_on,,,,,0,0,1,,,,0,,,41,58
734720,note_on,,,,,0,0,1,,,,0,,,81,71
734720,note_on,,,,,0,0,1,,,,0,,,77,82
734720,note_on,,,,,0,0,1,,,,0,,,72,71
734720,set_tempo,,,,,512,1,0,,400000,,,,,,
734720,note_on,,,,,338,0,1,,,,0,,,69,71
734863,control_change,,,,,143,0,1,,,,0,64,127,,
735744,note_off,,,,,0,0,1,,,,0,,,72,0
735744,note_on,,,,,0,0,1,,,,0,,,48,49
735744,note_on,,,,,0,0,1,,,,0,,,36,49
735744,note_on,,,,,0,0,1,,,,0,,,76,68
735744,note_on,,,,,0,0,1,,,,0,,,72,57
735744,note_on,,,,,0,0,1,,,,0,,,67,57
735744,note_on,,,,,0,0,1,,,,0,,,79,57
735744,note_off,,,,,0,0,1,,,,0,,,41,0
735744,note_off,,,,,0,0,1,,,,0,,,81,0
735744,note_off,,,,,0,0,1,,,,0,,,77,0
735744,note_off,,,,,881,0,1,,,,0,,,69,0
735744,set_tempo,,,,,1024,1,0,,461538,,,,,,
735744,note_off,,,,,0,0,1,,,,0,,,48,0
735887,control_change,,,,,143,0,1,,,,0,64,0,,
735918,note_off,,,,,0,0,1,,,,0,,,48,0
735918,note_off,,,,,0,0,1,,,,0,,,36,0
735918,note_off,,,,,0,0,1,,,,0,,,79,0
735918,note_off,,,,,0,0,1,,,,0,,,72,0
735918,note_off,,,,,31,0,1,,,,0,,,67,0
735918,note_off,,,,,0,0,1,,,,0,,,76,0
736256,note_on,,,,,0,0,1,,,,0,,,64,64
736256,note_on,,,,,0,0,1,,,,0,,,60,52
736256,note_on,,,,,0,0,1,,,,0,,,55,64
736256,note_on,,,,,0,0,1,,,,0,,,72,58
736256,note_on,,,,,0,0,1,,,,0,,,76,69
736256,control_change,,,,,0,0,1,,,,0,64,0,,
736256,control_change,,,,,0,0,1,,,,0,64,0,,
736256,control_change,,,,,0,0,1,,,,0,64,0,,
736256,control_change,,,,,338,0,1,,,,0,64,0,,
736256,set_tempo,,,,,512,1,0,,500000,,,,,,
736256,note_on,,,,,0,0,1,,,,0,,,67,58
736430,note_off,,,,,174,0,1,,,,0,,,67,0
736430,note_off,,,,,0,0,1,,,,0,,,72,0
736430,note_off,,,,,0,0,1,,,,0,,,76,0
736430,note_off,,,,,0,0,1,,,,0,,,55,0
736430,note_off,,,,,0,0,1,,,,0,,,60,0
736430,note_off,,,,,0,0,1,,,,0,,,64,0
736768,note_on,,,,,0,0,1,,,,0,,,65,58
736768,note_on,,,,,0,0,1,,,,0,,,55,58
736768,note_on,,,,,0,0,1,,,,0,,,62,70
736768,note_on,,,,,0,0,1,,,,0,,,74,71
736768,note_on,,,,,338,0,1,,,,0,,,67,71
736768,note_on,,,,,0,0,1,,,,0,,,77,82
736768,set_tempo,,,,,512,1,0,,400000,,,,,,
736911,control_change,,,,,143,0,1,,,,0,64,127,,
737792,note_off,,,,,881,0,1,,,,0,,,67,0
737792,note_off,,,,,0,0,1,,,,0,,,74,0
737792,note_off,,,,,0,0,1,,,,0,,,55,0
737792,note_off,,,,,0,0,1,,,,0,,,62,0
737792,note_off,,,,,0,0,1,,,,0,,,65,0
737792,note_on,,,,,0,0,1,,,,0,,,67,57
737792,note_on,,,,,0,0,1,,,,0,,,71,57
737792,note_on,,,,,0,0,1,,,,0,,,74,68
737792,note_on,,,,,0,0,1,,,,0,,,55,49
737792,note_on,,,,,0,0,1,,,,0,,,59,49
737792,note_on,,,,,0,0,1,,,,0,,,62,61
737792,note_off,,,,,0,0,1,,,,0,,,77,0
737792,set_tempo,,,,,1024,1,0,,461538,,,,,,
737935,control_change,,,,,143,0,1,,,,0,64,0,,
737966,note_off,,,,,31,0,1,,,,0,,,67,0
737966,note_off,,,,,0,0,1,,,,0,,,71,0
737966,note_off,,,,,0,0,1,,,,0,,,74,0
737966,note_off,,,,,0,0,1,,,,0,,,55,0
737966,note_off,,,,,0,0,1,,,,0,,,59,0
737966,note_off,,,,,0,0,1,,,,0,,,62,0
738304,note_on,,,,,0,0,1,,,,0,,,67,58
738304,note_on,,,,,0,0,1,,,,0,,,60,64
738304,note_on,,,,,0,0,1,,,,0,,,55,52
738304,note_on,,,,,0,0,1,,,,0,,,48,64
738304,note_on,,,,,0,0,1,,,,0,,,72,69
738304,set_tempo,,,,,512,1,0,,545454,,,,,,
738304,note_on,,,,,0,0,1,,,,0,,,64,58
738304,control_change,,,,,0,0,1,,,,0,64,0,,
738304,control_change,,,,,0,0,1,,,,0,64,0,,
738304,control_change,,,,,0,0,1,,,,0,64,0,,
738304,control_change,,,,,338,0,1,,,,0,64,0,,
738478,note_off,,,,,174,0,1,,,,0,,,64,0
738478,note_off,,,,,0,0,1,,,,0,,,67,0
738478,note_off,,,,,0,0,1,,,,0,,,72,0
738478,note_off,,,,,0,0,1,,,,0,,,48,0
738478,note_off,,,,,0,0,1,,,,0,,,55,0
738478,note_off,,,,,0,0,1,,,,0,,,60,0
738816,set_tempo,,,,,512,1,0,,400000,,,,,,
738816,note_on,,,,,0,0,1,,,,0,,,48,70
738816,note_on,,,,,0,0,1,,,,0,,,84,71
738816,note_on,,,,,0,0,1,,,,0,,,41,58
738816,note_on,,,,,0,0,1,,,,0,,,77,71
738816,note_on,,,,,338,0,1,,,,0,,,72,71
738816,note_on,,,,,0,0,1,,,,0,,,81,82
738959,control_change,,,,,143,0,1,,,,0,64,127,,
739840,set_tempo,,,,,1024,1,0,,500000,,,,,,
739840,note_on,,,,,0,0,1,,,,0,,,48,49
739840,note_on,,,,,0,0,1,,,,0,,,84,57
739840,note_on,,,,,0,0,1,,,,0,,,79,68
739840,note_on,,,,,0,0,1,,,,0,,,76,57
739840,note_on,,,,,0,0,1,,,,0,,,36,49
739840,note_off,,,,,0,0,1,,,,0,,,48,0
739840,note_off,,,,,0,0,1,,,,0,,,41,0
739840,note_off,,,,,0,0,1,,,,0,,,84,0
739840,note_off,,,,,0,0,1,,,,0,,,81,0
739840,note_off,,,,,0,0,1,,,,0,,,77,0
739840,note_off,,,,,881,0,1,,,,0,,,72,0
739840,note_on,,,,,0,0,1,,,,0,,,72,57
739983,control_change,,,,,143,0,1,,,,0,64,0,,
740014,note_off,,,,,0,0,1,,,,0,,,48,0
740014,note_off,,,,,0,0,1,,,,0,,,36,0
740014,note_off,,,,,0,0,1,,,,0,,,79,0
740014,note_off,,,,,0,0,1,,,,0,,,76,0
740014,note_off,,,,,31,0,1,,,,0,,,72,0
740014,note_off,,,,,0,0,1,,,,0,,,84,0
740352,control_change,,,,,338,0,1,,,,0,64,0,,
740352,control_change,,,,,0,0,1,,,,0,64,0,,
740352,control_change,,,,,0,0,1,,,,0,64,0,,
740352,control_change,,,,,0,0,1,,,,0,64,0,,
740352,note_on,,,,,0,0,1,,,,0,,,72,58
740352,note_on,,,,,0,0,1,,,,0,,,55,64
740352,note_on,,,,,0,0,1,,,,0,,,67,58
740352,note_on,,,,,0,0,1,,,,0,,,76,69
740352,note_on,,,,,0,0,1,,,,0,,,60,52
740352,note_on,,,,,0,0,1,,,,0,,,64,64
740526,note_off,,,,,174,0,1,,,,0,,,67,0
740526,note_off,,,,,0,0,1,,,,0,,,72,0
740526,note_off,,,,,0,0,1,,,,0,,,76,0
740526,note_off,,,,,0,0,1,,,,0,,,55,0
740526,note_off,,,,,0,0,1,,,,0,,,60,0
740526,note_off,,,,,0,0,1,,,,0,,,64,0
740864,set_tempo,,,,,1024,1,0,,428571,,,,,,
740864,note_on,,,,,0,0,1,,,,0,,,65,58
740864,note_on,,,,,0,0,1,,,,0,,,55,58
740864,note_on,,,,,0,0,1,,,,0,,,77,82
740864,note_on,,,,,0,0,1,,,,0,,,74,71
740864,note_on,,,,,338,0,1,,,,0,,,67,71
740864,note_on,,,,,0,0,1,,,,0,,,62,70
741007,control_change,,,,,143,0,1,,,,0,64,127,,
741888,note_on,,,,,0,0,1,,,,0,,,74,68
741888,set_tempo,,,,,1024,1,0,,461538,,,,,,
741888,note_on,,,,,0,0,1,,,,0,,,59,49
741888,note_on,,,,,0,0,1,,,,0,,,71,57
741888,note_on,,,,,0,0,1,,,,0,,,62,61
741888,note_off,,,,,0,0,1,,,,0,,,65,0
741888,note_off,,,,,881,0,1,,,,0,,,67,0
741888,note_off,,,,,0,0,1,,,,0,,,74,0
741888,note_on,,,,,0,0,1,,,,0,,,67,57
741888,note_on,,,,,0,0,1,,,,0,,,55,49
741888,note_off,,,,,0,0,1,,,,0,,,62,0
741888,note_off,,,,,0,0,1,,,,0,,,55,0
741888,note_off,,,,,0,0,1,,,,0,,,77,0
742031,control_change,,,,,143,0,1,,,,0,64,0,,
742062,note_off,,,,,31,0,1,,,,0,,,67,0
742062,note_off,,,,,0,0,1,,,,0,,,71,0
742062,note_off,,,,,0,0,1,,,,0,,,74,0
742062,note_off,,,,,0,0,1,,,,0,,,55,0
742062,note_off,,,,,0,0,1,,,,0,,,59,0
742062,note_off,,,,,0,0,1,,,,0,,,62,0
742400,note_on,,,,,0,0,1,,,,0,,,60,69
742400,note_on,,,,,0,0,1,,,,0,,,55,57
742400,note_on,,,,,0,0,1,,,,0,,,48,57
742400,note_on,,,,,0,0,1,,,,0,,,67,64
742400,control_change,,,,,0,0,1,,,,0,64,0,,
742400,control_change,,,,,338,0,1,,,,0,64,0,,
742400,note_on,,,,,0,0,1,,,,0,,,72,64
742400,note_on,,,,,0,0,1,,,,0,,,64,64
742574,note_off,,,,,174,0,1,,,,0,,,64,0
742574,note_off,,,,,0,0,1,,,,0,,,67,0
742574,note_off,,,,,0,0,1,,,,0,,,72,0
742574,note_off,,,,,0,0,1,,,,0,,,48,0
742574,note_off,,,,,0,0,1,,,,0,,,55,0
742574,note_off,,,,,0,0,1,,,,0,,,60,0
742912,set_tempo,,,,,1024,1,0,,400000,,,,,,
742912,note_on,,,,,338,0,1,,,,0,,,36,40
743168,note_off,,,,,256,0,1,,,,0,,,36,0
743168,note_on,,,,,0,0,1,,,,0,,,40,42
743424,note_off,,,,,256,0,1,,,,0,,,40,0
743424,note_on,,,,,0,0,1,,,,0,,,36,44
743680,note_off,,,,,256,0,1,,,,0,,,36,0
743680,note_on,,,,,0,0,1,,,,0,,,40,45
743936,note_on,,,,,0,0,1,,,,0,,,45,53
743936,note_off,,,,,256,0,1,,,,0,,,40,0
744448,note_on,,,,,0,0,1,,,,0,,,60,35
744448,note_on,,,,,0,0,1,,,,0,,,50,35
744448,note_on,,,,,0,0,1,,,,0,,,62,47
744448,control_change,,,,,512,0,1,,,,0,64,0,,
744448,control_change,,,,,0,0,1,,,,0,64,0,,
744800,note_off,,,,,352,0,1,,,,0,,,50,0
744800,note_off,,,,,0,0,1,,,,0,,,60,0
744800,note_off,,,,,0,0,1,,,,0,,,62,0
744960,note_off,,,,,160,0,1,,,,0,,,45,0
744960,note_on,,,,,0,0,1,,,,0,,,43,52
745472,note_on,,,,,512,0,1,,,,0,,,51,35
745472,note_on,,,,,0,0,1,,,,0,,,60,35
745472,note_on,,,,,0,0,1,,,,0,,,63,47
745824,note_off,,,,,352,0,1,,,,0,,,51,0
745824,note_off,,,,,0,0,1,,,,0,,,60,0
745824,note_off,,,,,0,0,1,,,,0,,,63,0
745984,note_on,,,,,0,0,1,,,,0,,,42,49
745984,note_off,,,,,160,0,1,,,,0,,,43,0
746496,set_tempo,,,,,3584,1,0,,461538,,,,,,
746496,control_change,,,,,512,0,1,,,,0,64,0,,
746496,note_off,,,,,0,0,1,,,,0,,,42,0
746496,note_on,,,,,0,0,1,,,,0,,,54,47
746496,note_on,,,,,0,0,1,,,,0,,,60,35
746496,note_on,,,,,0,0,1,,,,0,,,62,47
746496,note_on,,,,,0,0,1,,,,0,,,45,45
746496,control_change,,,,,0,0,1,,,,0,64,0,,
746670,note_off,,,,,174,0,1,,,,0,,,54,0
746670,note_off,,,,,0,0,1,,,,0,,,60,0
746670,note_off,,,,,0,0,1,,,,0,,,62,0
746752,set_tempo,,,,,256,1,0,,400000,,,,,,
746752,note_on,,,,,0,0,1,,,,0,,,50,44
746752,note_off,,,,,82,0,1,,,,0,,,45,0
747008,note_on,,,,,256,0,1,,,,0,,,54,43
747008,note_off,,,,,0,0,1,,,,0,,,50,0
747008,note_on,,,,,0,0,1,,,,0,,,62,43
747008,note_on,,,,,0,0,1,,,,0,,,60,31
747008,note_on,,,,,0,0,1,,,,0,,,45,43
747182,note_off,,,,,174,0,1,,,,0,,,54,0
747182,note_off,,,,,0,0,1,,,,0,,,60,0
747182,note_off,,,,,0,0,1,,,,0,,,62,0
747264,note_off,,,,,82,0,1,,,,0,,,45,0
747264,note_on,,,,,0,0,1,,,,0,,,50,42
747520,note_on,,,,,256,0,1,,,,0,,,55,43
747520,note_on,,,,,0,0,1,,,,0,,,59,31
747520,note_on,,,,,0,0,1,,,,0,,,62,43
747520,note_on,,,,,0,0,1,,,,0,,,43,41
747520,note_off,,,,,0,0,1,,,,0,,,50,0
747694,note_off,,,,,174,0,1,,,,0,,,55,0
747694,note_off,,,,,0,0,1,,,,0,,,62,0
747694,note_off,,,,,0,0,1,,,,0,,,59,0
747776,note_off,,,,,82,0,1,,,,0,,,43,0
747776,note_on,,,,,0,0,1,,,,0,,,50,40
748032,note_off,,,,,256,0,1,,,,0,,,50,0
748032,note_on,,,,,0,0,1,,,,0,,,43,39
748288,note_off,,,,,256,0,1,,,,0,,,43,0
748288,note_on,,,,,0,0,1,,,,0,,,38,38
748544,set_tempo,,,,,1792,1,0,,500000,,,,,,
748544,note_on,,,,,0,0,1,,,,0,,,46,55
748544,note_on,,,,,0,0,1,,,,0,,,62,35
748544,note_on,,,,,0,0,1,,,,0,,,64,47
748544,note_off,,,,,0,0,1,,,,0,,,38,0
748544,control_change,,,,,0,0,1,,,,0,64,0,,
748544,control_change,,,,,256,0,1,,,,0,64,0,,
748544,note_on,,,,,0,0,1,,,,0,,,52,35
748718,note_off,,,,,174,0,1,,,,0,,,46,0
749056,set_tempo,,,,,512,1,0,,400000,,,,,,
749056,note_off,,,,,338,0,1,,,,0,,,52,0
749056,note_off,,,,,0,0,1,,,,0,,,62,0
749056,note_off,,,,,0,0,1,,,,0,,,64,0
749056,note_on,,,,,0,0,1,,,,0,,,45,52
749568,note_on,,,,,512,0,1,,,,0,,,53,35
749568,note_on,,,,,0,0,1,,,,0,,,62,35
749568,note_on,,,,,0,0,1,,,,0,,,65,47
750080,note_off,,,,,0,0,1,,,,0,,,45,0
750080,note_on,,,,,0,0,1,,,,0,,,44,49
750080,note_off,,,,,512,0,1,,,,0,,,53,0
750080,note_off,,,,,0,0,1,,,,0,,,65,0
750080,note_off,,,,,0,0,1,,,,0,,,62,0
750592,note_off,,,,,0,0,1,,,,0,,,44,0
750592,control_change,,,,,0,0,1,,,,0,64,0,,
750592,set_tempo,,,,,1536,1,0,,461538,,,,,,
750592,note_on,,,,,0,0,1,,,,0,,,47,45
750592,control_change,,,,,512,0,1,,,,0,64,0,,
750592,note_on,,,,,0,0,1,,,,0,,,64,47
750592,note_on,,,,,0,0,1,,,,0,,,62,35
750592,note_on,,,,,0,0,1,,,,0,,,56,47
750766,note_off,,,,,174,0,1,,,,0,,,56,0
750766,note_off,,,,,0,0,1,,,,0,,,62,0
750766,note_off,,,,,0,0,1,,,,0,,,64,0
750848,note_off,,,,,82,0,1,,,,0,,,47,0
750848,note_on,,,,,0,0,1,,,,0,,,52,44
751104,set_tempo,,,,,512,1,0,,400000,,,,,,
751104,note_on,,,,,256,0,1,,,,0,,,56,43
751104,note_on,,,,,0,0,1,,,,0,,,62,31
751104,note_on,,,,,0,0,1,,,,0,,,64,43
751104,note_on,,,,,0,0,1,,,,0,,,47,43
751104,note_off,,,,,0,0,1,,,,0,,,52,0
751278,note_off,,,,,174,0,1,,,,0,,,56,0
751278,note_off,,,,,0,0,1,,,,0,,,62,0
751278,note_off,,,,,0,0,1,,,,0,,,64,0
751360,note_on,,,,,0,0,1,,,,0,,,52,42
751360,note_off,,,,,82,0,1,,,,0,,,47,0
751616,note_on,,,,,256,0,1,,,,0,,,57,43
751616,note_on,,,,,0,0,1,,,,0,,,61,31
751616,note_on,,,,,0,0,1,,,,0,,,64,43
751616,note_on,,,,,0,0,1,,,,0,,,45,41
751616,note_off,,,,,0,0,1,,,,0,,,52,0
751790,note_off,,,,,174,0,1,,,,0,,,57,0
751790,note_off,,,,,0,0,1,,,,0,,,61,0
751790,note_off,,,,,0,0,1,,,,0,,,64,0
751872,note_off,,,,,82,0,1,,,,0,,,45,0
751872,note_on,,,,,0,0,1,,,,0,,,52,40
752128,note_off,,,,,256,0,1,,,,0,,,52,0
752128,note_on,,,,,0,0,1,,,,0,,,45,39
752384,note_off,,,,,256,0,1,,,,0,,,45,0
752384,note_on,,,,,0,0,1,,,,0,,,40,38
752640,note_off,,,,,0,0,1,,,,0,,,40,0
752640,control_change,,,,,256,0,1,,,,0,64,0,,
752640,note_on,,,,,0,0,1,,,,0,,,48,50
752640,control_change,,,,,0,0,1,,,,0,64,0,,
752640,note_on,,,,,0,0,1,,,,0,,,63,39
752640,note_on,,,,,0,0,1,,,,0,,,57,52
752640,note_on,,,,,0,0,1,,,,0,,,65,52
752814,note_off,,,,,174,0,1,,,,0,,,57,0
752814,note_off,,,,,0,0,1,,,,0,,,63,0
752814,note_off,,,,,0,0,1,,,,0,,,65,0
752896,note_off,,,,,82,0,1,,,,0,,,48,0
752896,note_on,,,,,0,0,1,,,,0,,,53,49
753152,note_off,,,,,0,0,1,,,,0,,,53,0
753152,note_on,,,,,256,0,1,,,,0,,,57,49
753152,note_on,,,,,0,0,1,,,,0,,,65,49
753152,note_on,,,,,0,0,1,,,,0,,,63,35
753152,note_on,,,,,0,0,1,,,,0,,,48,48
753326,note_off,,,,,174,0,1,,,,0,,,57,0
753326,note_off,,,,,0,0,1,,,,0,,,63,0
753326,note_off,,,,,0,0,1,,,,0,,,65,0
753408,note_off,,,,,82,0,1,,,,0,,,48,0
753408,note_on,,,,,0,0,1,,,,0,,,53,47
753664,note_on,,,,,0,0,1,,,,0,,,62,36
753664,note_on,,,,,0,0,1,,,,0,,,65,50
753664,note_off,,,,,0,0,1,,,,0,,,53,0
753664,note_on,,,,,256,0,1,,,,0,,,58,50
753664,note_on,,,,,0,0,1,,,,0,,,46,47
753838,note_off,,,,,174,0,1,,,,0,,,58,0
753838,note_off,,,,,0,0,1,,,,0,,,62,0
753838,note_off,,,,,0,0,1,,,,0,,,65,0
753920,note_off,,,,,82,0,1,,,,0,,,46,0
753920,note_on,,,,,0,0,1,,,,0,,,53,46
754176,note_off,,,,,256,0,1,,,,0,,,53,0
754176,note_on,,,,,0,0,1,,,,0,,,46,46
754432,note_off,,,,,256,0,1,,,,0,,,46,0
754432,note_on,,,,,0,0,1,,,,0,,,41,45
754688,note_on,,,,,0,0,1,,,,0,,,48,54
754688,note_on,,,,,0,0,1,,,,0,,,69,57
754688,note_on,,,,,0,0,1,,,,0,,,63,57
754688,note_off,,,,,0,0,1,,,,0,,,41,0
754688,note_on,,,,,0,0,1,,,,0,,,65,42
754688,control_change,,,,,256,0,1,,,,0,64,0,,
754688,set_tempo,,,,,3584,1,0,,428571,,,,,,
754688,control_change,,,,,0,0,1,,,,0,64,0,,
754862,note_off,,,,,174,0,1,,,,0,,,63,0
754862,note_off,,,,,0,0,1,,,,0,,,65,0
754862,note_off,,,,,0,0,1,,,,0,,,69,0
754944,note_on,,,,,0,0,1,,,,0,,,53,53
754944,note_off,,,,,82,0,1,,,,0,,,48,0
755200,note_on,,,,,0,0,1,,,,0,,,65,38
755200,note_on,,,,,0,0,1,,,,0,,,48,52
755200,note_on,,,,,0,0,1,,,,0,,,69,53
755200,note_off,,,,,0,0,1,,,,0,,,53,0
755200,set_tempo,,,,,512,1,0,,400000,,,,,,
755200,note_on,,,,,256,0,1,,,,0,,,63,53
755374,note_off,,,,,174,0,1,,,,0,,,63,0
755374,note_off,,,,,0,0,1,,,,0,,,65,0
755374,note_off,,,,,0,0,1,,,,0,,,69,0
755456,note_off,,,,,82,0,1,,,,0,,,48,0
755456,note_on,,,,,0,0,1,,,,0,,,53,51
755712,note_on,,,,,256,0,1,,,,0,,,62,55
755712,note_on,,,,,0,0,1,,,,0,,,65,39
755712,note_on,,,,,0,0,1,,,,0,,,46,51
755712,note_off,,,,,0,0,1,,,,0,,,53,0
755712,note_on,,,,,0,0,1,,,,0,,,70,55
755886,note_off,,,,,0,0,1,,,,0,,,70,0
755886,note_off,,,,,0,0,1,,,,0,,,65,0
755886,note_off,,,,,174,0,1,,,,0,,,62,0
755968,note_off,,,,,82,0,1,,,,0,,,46,0
755968,note_on,,,,,0,0,1,,,,0,,,53,50
756224,note_off,,,,,256,0,1,,,,0,,,53,0
756224,note_on,,,,,0,0,1,,,,0,,,46,49
756480,note_off,,,,,256,0,1,,,,0,,,46,0
756480,note_on,,,,,0,0,1,,,,0,,,41,48
756736,set_tempo,,,,,1536,1,0,,428571,,,,,,
756736,note_on,,,,,0,0,1,,,,0,,,65,63
756736,control_change,,,,,256,0,1,,,,0,64,0,,
756736,control_change,,,,,0,0,1,,,,0,64,0,,
756736,note_off,,,,,0,0,1,,,,0,,,41,0
756736,note_on,,,,,0,0,1,,,,0,,,69,47
756736,note_on,,,,,0,0,1,,,,0,,,75,63
756736,note_on,,,,,0,0,1,,,,0,,,48,58
756910,note_off,,,,,174,0,1,,,,0,,,65,0
756910,note_off,,,,,0,0,1,,,,0,,,69,0
756910,note_off,,,,,0,0,1,,,,0,,,75,0
756992,note_on,,,,,0,0,1,,,,0,,,53,57
756992,note_off,,,,,82,0,1,,,,0,,,48,0
757248,note_on,,,,,256,0,1,,,,0,,,65,58
757248,note_on,,,,,0,0,1,,,,0,,,69,42
757248,note_on,,,,,0,0,1,,,,0,,,75,58
757248,note_on,,,,,0,0,1,,,,0,,,48,56
757248,note_off,,,,,0,0,1,,,,0,,,53,0
757248,set_tempo,,,,,512,1,0,,400000,,,,,,
757422,note_off,,,,,174,0,1,,,,0,,,65,0
757422,note_off,,,,,0,0,1,,,,0,,,69,0
757422,note_off,,,,,0,0,1,,,,0,,,75,0
757504,note_on,,,,,0,0,1,,,,0,,,53,55
757504,note_off,,,,,82,0,1,,,,0,,,48,0
757760,note_on,,,,,256,0,1,,,,0,,,65,60
757760,note_on,,,,,0,0,1,,,,0,,,70,43
757760,note_on,,,,,0,0,1,,,,0,,,74,60
757760,note_on,,,,,0,0,1,,,,0,,,46,55
757760,note_off,,,,,0,0,1,,,,0,,,53,0
757934,note_off,,,,,174,0,1,,,,0,,,65,0
757934,note_off,,,,,0,0,1,,,,0,,,70,0
757934,note_off,,,,,0,0,1,,,,0,,,74,0
757960,control_change,,,,,26,0,1,,,,0,64,127,,
758016,note_on,,,,,0,0,1,,,,0,,,53,54
758016,note_off,,,,,56,0,1,,,,0,,,46,0
758272,note_on,,,,,0,0,1,,,,0,,,46,53
758272,note_off,,,,,256,0,1,,,,0,,,53,0
758294,control_change,,,,,22,0,1,,,,0,64,0,,
758528,note_off,,,,,234,0,1,,,,0,,,46,0
758528,note_on,,,,,0,0,1,,,,0,,,41,52
758784,note_on,,,,,0,0,1,,,,0,,,69,68
758784,set_tempo,,,,,1536,1,0,,428571,,,,,,
758784,control_change,,,,,256,0,1,,,,0,64,0,,
758784,control_change,,,,,0,0,1,,,,0,64,0,,
758784,control_change,,,,,0,0,1,,,,0,64,0,,
758784,note_off,,,,,0,0,1,,,,0,,,41,0
758784,note_on,,,,,0,0,1,,,,0,,,75,50
758784,note_on,,,,,0,0,1,,,,0,,,77,73
758784,note_on,,,,,0,0,1,,,,0,,,48,62
758958,note_off,,,,,0,0,1,,,,0,,,77,0
758958,note_off,,,,,0,0,1,,,,0,,,75,0
758958,note_off,,,,,174,0,1,,,,0,,,69,0
759040,note_on,,,,,0,0,1,,,,0,,,53,61
759040,note_off,,,,,82,0,1,,,,0,,,48,0
759296,note_on,,,,,256,0,1,,,,0,,,69,63
759296,note_off,,,,,0,0,1,,,,0,,,53,0
759296,set_tempo,,,,,512,1,0,,400000,,,,,,
759296,note_on,,,,,0,0,1,,,,0,,,75,46
759296,note_on,,,,,0,0,1,,,,0,,,48,60
759296,note_on,,,,,0,0,1,,,,0,,,77,68
759470,note_off,,,,,0,0,1,,,,0,,,77,0
759470,note_off,,,,,0,0,1,,,,0,,,75,0
759470,note_off,,,,,174,0,1,,,,0,,,69,0
759552,note_off,,,,,82,0,1,,,,0,,,48,0
759552,note_on,,,,,0,0,1,,,,0,,,53,59
759808,note_on,,,,,0,0,1,,,,0,,,77,70
759808,note_on,,,,,0,0,1,,,,0,,,46,58
759808,note_off,,,,,0,0,1,,,,0,,,53,0
759808,note_on,,,,,0,0,1,,,,0,,,74,47
759808,note_on,,,,,256,0,1,,,,0,,,70,65
759808,set_tempo,,,,,512,1,0,,428571,,,,,,
759982,note_off,,,,,174,0,1,,,,0,,,70,0
759982,note_off,,,,,0,0,1,,,,0,,,74,0
759982,note_off,,,,,0,0,1,,,,0,,,77,0
760008,control_change,,,,,26,0,1,,,,0,64,127,,
760064,note_off,,,,,56,0,1,,,,0,,,46,0
760064,note_on,,,,,0,0,1,,,,0,,,53,57
760320,set_tempo,,,,,512,1,0,,461538,,,,,,
760320,note_off,,,,,256,0,1,,,,0,,,53,0
760320,note_on,,,,,0,0,1,,,,0,,,46,56
760576,set_tempo,,,,,256,1,0,,500000,,,,,,
760576,note_on,,,,,0,0,1,,,,0,,,41,55
760576,note_off,,,,,256,0,1,,,,0,,,46,0
760698,control_change,,,,,122,0,1,,,,0,64,0,,
760832,note_on,,,,,0,0,1,,,,0,,,79,76
760832,note_on,,,,,0,0,1,,,,0,,,46,58
760832,note_on,,,,,0,0,1,,,,0,,,75,66
760832,note_off,,,,,0,0,1,,,,0,,,41,0
760832,note_on,,,,,0,0,1,,,,0,,,67,61
760832,control_change,,,,,134,0,1,,,,0,64,0,,
760832,control_change,,,,,0,0,1,,,,0,64,0,,
760832,set_tempo,,,,,256,1,0,,444444,,,,,,
761020,control_change,,,,,188,0,1,,,,0,64,127,,
761088,note_on,,,,,68,0,1,,,,0,,,51,58
761094,note_off,,,,,0,0,1,,,,0,,,79,0
761094,note_off,,,,,6,0,1,,,,0,,,67,0
761094,note_off,,,,,0,0,1,,,,0,,,75,0
761178,note_off,,,,,84,0,1,,,,0,,,46,0
761227,control_change,,,,,49,0,1,,,,0,64,0,,
761344,note_on,,,,,117,0,1,,,,0,,,67,55
761344,note_on,,,,,0,0,1,,,,0,,,75,55
761344,note_on,,,,,0,0,1,,,,0,,,79,70
761344,note_on,,,,,0,0,1,,,,0,,,46,52
761433,control_change,,,,,89,0,1,,,,0,64,127,,
761434,note_off,,,,,1,0,1,,,,0,,,51,0
761600,note_on,,,,,166,0,1,,,,0,,,39,58
761606,note_off,,,,,0,0,1,,,,0,,,79,0
761606,note_off,,,,,6,0,1,,,,0,,,67,0
761606,note_off,,,,,0,0,1,,,,0,,,75,0
761690,note_off,,,,,84,0,1,,,,0,,,46,0
761753,control_change,,,,,63,0,1,,,,0,64,0,,
761856,note_on,,,,,0,0,1,,,,0,,,77,59
761856,note_on,,,,,103,0,1,,,,0,,,68,59
761856,note_on,,,,,0,0,1,,,,0,,,80,74
761856,set_tempo,,,,,1024,1,0,,400000,,,,,,
761856,note_on,,,,,0,0,1,,,,0,,,46,52
761941,control_change,,,,,85,0,1,,,,0,64,127,,
761946,note_off,,,,,5,0,1,,,,0,,,39,0
762112,note_on,,,,,166,0,1,,,,0,,,51,58
762202,note_off,,,,,90,0,1,,,,0,,,46,0
762368,note_on,,,,,166,0,1,,,,0,,,46,52
762458,note_off,,,,,90,0,1,,,,0,,,51,0
762624,note_on,,,,,166,0,1,,,,0,,,39,58
762630,note_off,,,,,6,0,1,,,,0,,,68,0
762630,note_off,,,,,0,0,1,,,,0,,,77,0
762630,note_off,,,,,0,0,1,,,,0,,,80,0
762714,note_off,,,,,84,0,1,,,,0,,,46,0
762786,control_change,,,,,72,0,1,,,,0,64,0,,
762880,note_on,,,,,0,0,1,,,,0,,,46,58
762880,control_change,,,,,94,0,1,,,,0,64,0,,
762880,control_change,,,,,0,0,1,,,,0,64,0,,
762880,control_change,,,,,0,0,1,,,,0,64,0,,
762880,note_on,,,,,0,0,1,,,,0,,,70,62
762880,note_on,,,,,0,0,1,,,,0,,,79,62
762880,note_on,,,,,0,0,1,,,,0,,,82,77
762880,set_tempo,,,,,1024,1,0,,428571,,,,,,
762970,note_off,,,,,90,0,1,,,,0,,,39,0
763068,control_change,,,,,98,0,1,,,,0,64,127,,
763136,note_on,,,,,68,0,1,,,,0,,,51,58
763142,note_off,,,,,0,0,1,,,,0,,,82,0
763142,note_off,,,,,6,0,1,,,,0,,,70,0
763142,note_off,,,,,0,0,1,,,,0,,,79,0
763226,note_off,,,,,84,0,1,,,,0,,,46,0
763275,control_change,,,,,49,0,1,,,,0,64,0,,
763392,note_on,,,,,0,0,1,,,,0,,,46,52
763392,note_on,,,,,0,0,1,,,,0,,,79,56
763392,note_on,,,,,117,0,1,,,,0,,,70,56
763392,note_on,,,,,0,0,1,,,,0,,,82,71
763392,set_tempo,,,,,512,1,0,,461538,,,,,,
763481,control_change,,,,,89,0,1,,,,0,64,127,,
763482,note_off,,,,,1,0,1,,,,0,,,51,0
763648,note_on,,,,,166,0,1,,,,0,,,39,58
763654,note_off,,,,,0,0,1,,,,0,,,82,0
763654,note_off,,,,,6,0,1,,,,0,,,70,0
763654,note_off,,,,,0,0,1,,,,0,,,79,0
763738,note_off,,,,,84,0,1,,,,0,,,46,0
763801,control_change,,,,,63,0,1,,,,0,64,0,,
763904,set_tempo,,,,,512,1,0,,545454,,,,,,
763904,note_on,,,,,103,0,1,,,,0,,,72,60
763904,note_on,,,,,0,0,1,,,,0,,,80,60
763904,note_on,,,,,0,0,1,,,,0,,,84,75
763904,note_on,,,,,0,0,1,,,,0,,,46,52
763989,control_change,,,,,85,0,1,,,,0,64,127,,
763994,note_off,,,,,5,0,1,,,,0,,,39,0
764160,note_on,,,,,166,0,1,,,,0,,,51,58
764160,set_tempo,,,,,256,1,0,,400000,,,,,,
764250,note_off,,,,,90,0,1,,,,0,,,46,0
764416,note_on,,,,,166,0,1,,,,0,,,46,52
764506,note_off,,,,,90,0,1,,,,0,,,51,0
764672,note_on,,,,,166,0,1,,,,0,,,39,58
764678,note_off,,,,,6,0,1,,,,0,,,72,0
764678,note_off,,,,,0,0,1,,,,0,,,80,0
764678,note_off,,,,,0,0,1,,,,0,,,84,0
764762,note_off,,,,,84,0,1,,,,0,,,46,0
764834,control_change,,,,,72,0,1,,,,0,64,0,,
764928,control_change,,,,,94,0,1,,,,0,64,0,,
764928,control_change,,,,,0,0,1,,,,0,64,0,,
764928,note_on,,,,,0,0,1,,,,0,,,70,56
764928,note_on,,,,,0,0,1,,,,0,,,79,56
764928,note_on,,,,,0,0,1,,,,0,,,82,72
764928,note_on,,,,,0,0,1,,,,0,,,46,58
764928,set_tempo,,,,,768,1,0,,461538,,,,,,
765018,note_off,,,,,90,0,1,,,,0,,,39,0
765078,control_change,,,,,60,0,1,,,,0,64,127,,
765184,note_on,,,,,106,0,1,,,,0,,,51,58
765190,note_off,,,,,0,0,1,,,,0,,,79,0
765190,note_off,,,,,0,0,1,,,,0,,,82,0
765190,note_off,,,,,6,0,1,,,,0,,,70,0
765274,note_off,,,,,84,0,1,,,,0,,,46,0
765440,note_on,,,,,0,0,1,,,,0,,,77,58
765440,note_on,,,,,0,0,1,,,,0,,,80,73
765440,set_tempo,,,,,512,1,0,,400000,,,,,,
765440,note_on,,,,,166,0,1,,,,0,,,68,58
765440,note_on,,,,,0,0,1,,,,0,,,46,52
765530,note_off,,,,,90,0,1,,,,0,,,51,0
765696,note_on,,,,,166,0,1,,,,0,,,39,58
765702,note_off,,,,,0,0,1,,,,0,,,80,0
765702,note_off,,,,,0,0,1,,,,0,,,77,0
765702,note_off,,,,,6,0,1,,,,0,,,68,0
765786,note_off,,,,,84,0,1,,,,0,,,46,0
765952,note_on,,,,,0,0,1,,,,0,,,79,71
765952,note_on,,,,,0,0,1,,,,0,,,46,52
765952,note_on,,,,,0,0,1,,,,0,,,75,56
765952,note_on,,,,,166,0,1,,,,0,,,67,56
766042,note_off,,,,,90,0,1,,,,0,,,39,0
766208,note_on,,,,,166,0,1,,,,0,,,51,58
766208,set_tempo,,,,,768,1,0,,400000,,,,,,
766214,note_off,,,,,0,0,1,,,,0,,,79,0
766214,note_off,,,,,0,0,1,,,,0,,,75,0
766214,note_off,,,,,6,0,1,,,,0,,,67,0
766298,note_off,,,,,84,0,1,,,,0,,,46,0
766464,note_on,,,,,0,0,1,,,,0,,,46,52
766464,note_on,,,,,0,0,1,,,,0,,,74,54
766464,note_on,,,,,166,0,1,,,,0,,,65,54
766464,note_on,,,,,0,0,1,,,,0,,,77,68
766554,note_off,,,,,90,0,1,,,,0,,,51,0
766720,note_on,,,,,166,0,1,,,,0,,,39,58
766726,note_off,,,,,6,0,1,,,,0,,,65,0
766726,note_off,,,,,0,0,1,,,,0,,,74,0
766726,note_off,,,,,0,0,1,,,,0,,,77,0
766810,note_off,,,,,84,0,1,,,,0,,,46,0
766920,control_change,,,,,110,0,1,,,,0,64,0,,
766976,note_on,,,,,0,0,1,,,,0,,,74,61
766976,note_on,,,,,0,0,1,,,,0,,,46,58
766976,note_on,,,,,0,0,1,,,,0,,,77,76
766976,control_change,,,,,0,0,1,,,,0,64,0,,
766976,control_change,,,,,56,0,1,,,,0,64,0,,
766976,set_tempo,,,,,768,1,0,,461538,,,,,,
766976,note_on,,,,,0,0,1,,,,0,,,65,61
767066,note_off,,,,,90,0,1,,,,0,,,39,0
767164,control_change,,,,,98,0,1,,,,0,64,127,,
767232,note_on,,,,,68,0,1,,,,0,,,51,58
767322,note_off,,,,,90,0,1,,,,0,,,46,0
767488,note_on,,,,,0,0,1,,,,0,,,46,52
767488,note_on,,,,,0,0,1,,,,0,,,79,67
767488,note_on,,,,,166,0,1,,,,0,,,67,52
767488,set_tempo,,,,,512,1,0,,400000,,,,,,
767488,note_on,,,,,0,0,1,,,,0,,,75,52
767538,note_off,,,,,50,0,1,,,,0,,,65,0
767538,note_off,,,,,0,0,1,,,,0,,,74,0
767538,note_off,,,,,0,0,1,,,,0,,,77,0
767577,control_change,,,,,39,0,1,,,,0,64,0,,
767578,note_off,,,,,1,0,1,,,,0,,,51,0
767662,note_off,,,,,84,0,1,,,,0,,,67,0
767662,note_off,,,,,0,0,1,,,,0,,,79,0
767662,note_off,,,,,0,0,1,,,,0,,,75,0
767744,note_on,,,,,82,0,1,,,,0,,,39,58
767834,note_off,,,,,90,0,1,,,,0,,,46,0
768000,note_on,,,,,166,0,1,,,,0,,,67,54
768000,note_on,,,,,0,0,1,,,,0,,,75,54
768000,note_on,,,,,0,0,1,,,,0,,,79,69
768000,note_on,,,,,0,0,1,,,,0,,,46,52
768085,control_change,,,,,85,0,1,,,,0,64,127,,
768090,note_off,,,,,5,0,1,,,,0,,,39,0
768256,note_on,,,,,166,0,1,,,,0,,,51,58
768256,set_tempo,,,,,768,1,0,,400000,,,,,,
768346,note_off,,,,,90,0,1,,,,0,,,46,0
768512,note_on,,,,,166,0,1,,,,0,,,46,52
768602,note_off,,,,,90,0,1,,,,0,,,51,0
768768,note_on,,,,,166,0,1,,,,0,,,39,58
768858,note_off,,,,,90,0,1,,,,0,,,46,0
768911,control_change,,,,,53,0,1,,,,0,64,0,,
769024,set_tempo,,,,,768,1,0,,500000,,,,,,
769024,note_on,,,,,0,0,1,,,,0,,,79,76
769024,note_on,,,,,0,0,1,,,,0,,,75,66
769024,note_on,,,,,0,0,1,,,,0,,,46,58
769024,note_off,,,,,0,0,1,,,,0,,,79,0
769024,control_change,,,,,113,0,1,,,,0,64,0,,
769024,note_on,,,,,0,0,1,,,,0,,,67,61
769024,note_off,,,,,0,0,1,,,,0,,,67,0
769024,control_change,,,,,0,0,1,,,,0,64,0,,
769024,note_off,,,,,0,0,1,,,,0,,,75,0
769114,note_off,,,,,90,0,1,,,,0,,,39,0
769212,control_change,,,,,98,0,1,,,,0,64,127,,
769280,note_on,,,,,68,0,1,,,,0,,,51,58
769286,note_off,,,,,6,0,1,,,,0,,,67,0
769286,note_off,,,,,0,0,1,,,,0,,,79,0
769286,note_off,,,,,0,0,1,,,,0,,,75,0
769370,note_off,,,,,84,0,1,,,,0,,,46,0
769419,control_change,,,,,49,0,1,,,,0,64,0,,
769536,note_on,,,,,117,0,1,,,,0,,,67,59
769536,note_on,,,,,0,0,1,,,,0,,,79,74
769536,note_on,,,,,0,0,1,,,,0,,,46,52
769536,set_tempo,,,,,512,1,0,,461538,,,,,,
769536,note_on,,,,,0,0,1,,,,0,,,75,59
769625,control_change,,,,,89,0,1,,,,0,64,127,,
769626,note_off,,,,,1,0,1,,,,0,,,51,0
769792,note_on,,,,,166,0,1,,,,0,,,39,58
769798,note_off,,,,,6,0,1,,,,0,,,67,0
769798,note_off,,,,,0,0,1,,,,0,,,79,0
769798,note_off,,,,,0,0,1,,,,0,,,75,0
769882,note_off,,,,,84,0,1,,,,0,,,46,0
769945,control_change,,,,,63,0,1,,,,0,64,0,,
770048,set_tempo,,,,,512,1,0,,400000,,,,,,
770048,note_on,,,,,0,0,1,,,,0,,,46,52
770048,note_on,,,,,0,0,1,,,,0,,,80,78
770048,note_on,,,,,0,0,1,,,,0,,,77,63
770048,note_on,,,,,103,0,1,,,,0,,,68,63
770133,control_change,,,,,85,0,1,,,,0,64,127,,
770138,note_off,,,,,5,0,1,,,,0,,,39,0
770304,note_on,,,,,166,0,1,,,,0,,,51,58
770394,note_off,,,,,90,0,1,,,,0,,,46,0
770560,note_on,,,,,166,0,1,,,,0,,,46,52
770650,note_off,,,,,90,0,1,,,,0,,,51,0
770816,note_on,,,,,166,0,1,,,,0,,,39,58
770822,note_off,,,,,6,0,1,,,,0,,,68,0
770822,note_off,,,,,0,0,1,,,,0,,,77,0
770822,note_off,,,,,0,0,1,,,,0,,,80,0
770906,note_off,,,,,84,0,1,,,,0,,,46,0
770978,control_change,,,,,72,0,1,,,,0,64,0,,
771072,set_tempo,,,,,1024,1,0,,444444,,,,,,
771072,control_change,,,,,94,0,1,,,,0,64,0,,
771072,control_change,,,,,0,0,1,,,,0,64,0,,
771072,note_on,,,,,0,0,1,,,,0,,,70,62
771072,note_on,,,,,0,0,1,,,,0,,,79,62
771072,note_on,,,,,0,0,1,,,,0,,,82,77
771072,note_on,,,,,0,0,1,,,,0,,,46,58
771072,control_change,,,,,0,0,1,,,,0,64,0,,
771162,note_off,,,,,90,0,1,,,,0,,,39,0
771260,control_change,,,,,98,0,1,,,,0,64,127,,
771328,note_on,,,,,68,0,1,,,,0,,,51,58
771334,note_off,,,,,0,0,1,,,,0,,,79,0
771334,note_off,,,,,0,0,1,,,,0,,,82,0
771334,note_off,,,,,6,0,1,,,,0,,,70,0
771418,note_off,,,,,84,0,1,,,,0,,,46,0
771467,control_change,,,,,49,0,1,,,,0,64,0,,
771584,set_tempo,,,,,512,1,0,,480000,,,,,,
771584,note_on,,,,,117,0,1,,,,0,,,70,60
771584,note_on,,,,,0,0,1,,,,0,,,79,60
771584,note_on,,,,,0,0,1,,,,0,,,82,75
771584,note_on,,,,,0,0,1,,,,0,,,46,52
771673,control_change,,,,,89,0,1,,,,0,64,127,,
771674,note_off,,,,,1,0,1,,,,0,,,51,0
771840,note_on,,,,,166,0,1,,,,0,,,39,58
771846,note_off,,,,,6,0,1,,,,0,,,70,0
771846,note_off,,,,,0,0,1,,,,0,,,79,0
771846,note_off,,,,,0,0,1,,,,0,,,82,0
771930,note_off,,,,,84,0,1,,,,0,,,46,0
771993,control_change,,,,,63,0,1,,,,0,64,0,,
772096,note_on,,,,,0,0,1,,,,0,,,46,52
772096,note_on,,,,,103,0,1,,,,0,,,72,64
772096,note_on,,,,,0,0,1,,,,0,,,80,64
772096,note_on,,,,,0,0,1,,,,0,,,84,79
772096,set_tempo,,,,,512,1,0,,545454,,,,,,
772181,control_change,,,,,85,0,1,,,,0,64,127,,
772186,note_off,,,,,5,0,1,,,,0,,,39,0
772352,note_on,,,,,166,0,1,,,,0,,,51,58
772352,set_tempo,,,,,256,1,0,,400000,,,,,,
772442,note_off,,,,,90,0,1,,,,0,,,46,0
772608,note_on,,,,,166,0,1,,,,0,,,46,52
772698,note_off,,,,,90,0,1,,,,0,,,51,0
772864,note_on,,,,,166,0,1,,,,0,,,39,58
772870,note_off,,,,,6,0,1,,,,0,,,72,0
772870,note_off,,,,,0,0,1,,,,0,,,80,0
772870,note_off,,,,,0,0,1,,,,0,,,84,0
772954,note_off,,,,,84,0,1,,,,0,,,46,0
773026,control_change,,,,,72,0,1,,,,0,64,0,,
773120,note_on,,,,,0,0,1,,,,0,,,46,58
773120,note_on,,,,,0,0,1,,,,0,,,82,76
773120,note_on,,,,,0,0,1,,,,0,,,79,60
773120,set_tempo,,,,,768,1,0,,461538,,,,,,
773120,note_on,,,,,0,0,1,,,,0,,,70,60
773120,control_change,,,,,0,0,1,,,,0,64,0,,
773120,control_change,,,,,94,0,1,,,,0,64,0,,
773210,note_off,,,,,90,0,1,,,,0,,,39,0
773270,control_change,,,,,60,0,1,,,,0,64,127,,
773376,note_on,,,,,106,0,1,,,,0,,,51,58
773382,note_off,,,,,0,0,1,,,,0,,,82,0
773382,note_off,,,,,0,0,1,,,,0,,,79,0
773382,note_off,,,,,6,0,1,,,,0,,,70,0
773466,note_off,,,,,84,0,1,,,,0,,,46,0
773632,set_tempo,,,,,512,1,0,,400000,,,,,,
773632,note_on,,,,,166,0,1,,,,0,,,68,62
773632,note_on,,,,,0,0,1,,,,0,,,77,62
773632,note_on,,,,,0,0,1,,,,0,,,80,77
773632,note_on,,,,,0,0,1,,,,0,,,46,52
773722,note_off,,,,,90,0,1,,,,0,,,51,0
773888,note_on,,,,,166,0,1,,,,0,,,39,58
773894,note_off,,,,,6,0,1,,,,0,,,68,0
773894,note_off,,,,,0,0,1,,,,0,,,77,0
773894,note_off,,,,,0,0,1,,,,0,,,80,0
773978,note_off,,,,,84,0,1,,,,0,,,46,0
774144,note_on,,,,,166,0,1,,,,0,,,67,60
774144,note_on,,,,,0,0,1,,,,0,,,75,60
774144,note_on,,,,,0,0,1,,,,0,,,79,75
774144,note_on,,,,,0,0,1,,,,0,,,46,52
774234,note_off,,,,,90,0,1,,,,0,,,39,0
774400,set_tempo,,,,,768,1,0,,400000,,,,,,
774400,note_on,,,,,166,0,1,,,,0,,,51,58
774406,note_off,,,,,6,0,1,,,,0,,,67,0
774406,note_off,,,,,0,0,1,,,,0,,,75,0
774406,note_off,,,,,0,0,1,,,,0,,,79,0
774490,note_off,,,,,84,0,1,,,,0,,,46,0
774656,note_on,,,,,0,0,1,,,,0,,,77,72
774656,note_on,,,,,0,0,1,,,,0,,,74,58
774656,note_on,,,,,0,0,1,,,,0,,,46,52
774656,note_on,,,,,166,0,1,,,,0,,,65,58
774746,note_off,,,,,90,0,1,,,,0,,,51,0
774912,note_on,,,,,166,0,1,,,,0,,,39,58
774918,note_off,,,,,6,0,1,,,,0,,,65,0
774918,note_off,,,,,0,0,1,,,,0,,,74,0
774918,note_off,,,,,0,0,1,,,,0,,,77,0
775002,note_off,,,,,84,0,1,,,,0,,,46,0
775112,control_change,,,,,110,0,1,,,,0,64,0,,
775168,control_change,,,,,56,0,1,,,,0,64,0,,
775168,set_tempo,,,,,768,1,0,,461538,,,,,,
775168,note_on,,,,,0,0,1,,,,0,,,46,58
775168,control_change,,,,,0,0,1,,,,0,64,0,,
775168,note_on,,,,,0,0,1,,,,0,,,65,61
775168,note_on,,,,,0,0,1,,,,0,,,74,61
775168,note_on,,,,,0,0,1,,,,0,,,77,76
775258,note_off,,,,,90,0,1,,,,0,,,39,0
775356,control_change,,,,,98,0,1,,,,0,64,127,,
775424,note_on,,,,,68,0,1,,,,0,,,51,58
775514,note_off,,,,,90,0,1,,,,0,,,46,0
775680,note_on,,,,,0,0,1,,,,0,,,46,52
775680,note_on,,,,,0,0,1,,,,0,,,79,67
775680,set_tempo,,,,,512,1,0,,400000,,,,,,
775680,note_on,,,,,166,0,1,,,,0,,,67,52
775680,note_on,,,,,0,0,1,,,,0,,,75,52
775730,note_off,,,,,50,0,1,,,,0,,,65,0
775730,note_off,,,,,0,0,1,,,,0,,,74,0
775730,note_off,,,,,0,0,1,,,,0,,,77,0
775769,control_change,,,,,39,0,1,,,,0,64,0,,
775770,note_off,,,,,1,0,1,,,,0,,,51,0
775854,note_off,,,,,0,0,1,,,,0,,,75,0
775854,note_off,,,,,84,0,1,,,,0,,,67,0
775854,note_off,,,,,0,0,1,,,,0,,,79,0
775936,note_on,,,,,82,0,1,,,,0,,,39,58
776026,note_off,,,,,90,0,1,,,,0,,,46,0
776192,note_on,,,,,166,0,1,,,,0,,,67,54
776192,note_on,,,,,0,0,1,,,,0,,,75,54
776192,note_on,,,,,0,0,1,,,,0,,,79,69
776192,note_on,,,,,0,0,1,,,,0,,,46,52
776277,control_change,,,,,85,0,1,,,,0,64,127,,
776282,note_off,,,,,5,0,1,,,,0,,,39,0
776448,set_tempo,,,,,768,1,0,,400000,,,,,,
776448,note_on,,,,,166,0,1,,,,0,,,51,58
776538,note_off,,,,,90,0,1,,,,0,,,46,0
776704,note_on,,,,,166,0,1,,,,0,,,46,52
776794,note_off,,,,,90,0,1,,,,0,,,51,0
776960,note_on,,,,,166,0,1,,,,0,,,39,58
777050,note_off,,,,,90,0,1,,,,0,,,46,0
777103,control_change,,,,,53,0,1,,,,0,64,0,,
777216,note_on,,,,,0,0,1,,,,0,,,46,67
777216,note_on,,,,,0,0,1,,,,0,,,79,76
777216,note_on,,,,,0,0,1,,,,0,,,76,66
777216,note_on,,,,,0,0,1,,,,0,,,67,61
777216,note_off,,,,,0,0,1,,,,0,,,79,0
777216,note_off,,,,,0,0,1,,,,0,,,67,0
777216,control_change,,,,,0,0,1,,,,0,64,0,,
777216,control_change,,,,,0,0,1,,,,0,64,0,,
777216,control_change,,,,,0,0,1,,,,0,64,0,,
777216,set_tempo,,,,,768,1,0,,428571,,,,,,
777216,note_off,,,,,0,0,1,,,,0,,,75,0
777216,control_change,,,,,113,0,1,,,,0,64,0,,
777306,note_off,,,,,90,0,1,,,,0,,,39,0
777404,control_change,,,,,98,0,1,,,,0,64,127,,
777472,note_on,,,,,68,0,1,,,,0,,,48,58
777478,note_off,,,,,6,0,1,,,,0,,,67,0
777478,note_off,,,,,0,0,1,,,,0,,,76,0
777478,note_off,,,,,0,0,1,,,,0,,,79,0
777562,note_off,,,,,84,0,1,,,,0,,,46,0
777611,control_change,,,,,49,0,1,,,,0,64,0,,
777728,note_on,,,,,0,0,1,,,,0,,,46,52
777728,note_on,,,,,117,0,1,,,,0,,,67,59
777728,note_on,,,,,0,0,1,,,,0,,,76,59
777728,note_on,,,,,0,0,1,,,,0,,,79,74
777817,control_change,,,,,89,0,1,,,,0,64,127,,
777818,note_off,,,,,1,0,1,,,,0,,,48,0
777984,note_on,,,,,166,0,1,,,,0,,,36,58
777990,note_off,,,,,0,0,1,,,,0,,,79,0
777990,note_off,,,,,6,0,1,,,,0,,,67,0
777990,note_off,,,,,0,0,1,,,,0,,,76,0
778074,note_off,,,,,84,0,1,,,,0,,,46,0
778137,control_change,,,,,63,0,1,,,,0,64,0,,
778240,note_on,,,,,0,0,1,,,,0,,,81,78
778240,note_on,,,,,0,0,1,,,,0,,,45,61
778240,note_on,,,,,0,0,1,,,,0,,,77,63
778240,set_tempo,,,,,1024,1,0,,400000,,,,,,
778240,note_on,,,,,103,0,1,,,,0,,,69,63
778325,control_change,,,,,85,0,1,,,,0,64,127,,
778330,note_off,,,,,5,0,1,,,,0,,,36,0
778496,note_on,,,,,166,0,1,,,,0,,,48,58
778586,note_off,,,,,90,0,1,,,,0,,,45,0
778752,note_on,,,,,166,0,1,,,,0,,,45,52
778842,note_off,,,,,90,0,1,,,,0,,,48,0
779008,note_on,,,,,166,0,1,,,,0,,,36,58
779014,note_off,,,,,0,0,1,,,,0,,,81,0
779014,note_off,,,,,0,0,1,,,,0,,,77,0
779014,note_off,,,,,6,0,1,,,,0,,,69,0
779098,note_off,,,,,84,0,1,,,,0,,,45,0
779170,control_change,,,,,72,0,1,,,,0,64,0,,
779264,note_on,,,,,0,0,1,,,,0,,,40,67
779264,note_on,,,,,0,0,1,,,,0,,,82,77
779264,note_on,,,,,0,0,1,,,,0,,,79,62
779264,note_on,,,,,0,0,1,,,,0,,,70,62
779264,control_change,,,,,0,0,1,,,,0,64,0,,
779264,control_change,,,,,0,0,1,,,,0,64,0,,
779264,control_change,,,,,0,0,1,,,,0,64,0,,
779264,control_change,,,,,94,0,1,,,,0,64,0,,
779264,set_tempo,,,,,1024,1,0,,444444,,,,,,
779264,control_change,,,,,0,0,1,,,,0,64,0,,
779354,note_off,,,,,90,0,1,,,,0,,,36,0
779452,control_change,,,,,98,0,1,,,,0,64,127,,
779520,note_on,,,,,68,0,1,,,,0,,,48,58
779526,note_off,,,,,0,0,1,,,,0,,,82,0
779526,note_off,,,,,6,0,1,,,,0,,,70,0
779526,note_off,,,,,0,0,1,,,,0,,,79,0
779610,note_off,,,,,84,0,1,,,,0,,,40,0
779659,control_change,,,,,49,0,1,,,,0,64,0,,
779776,note_on,,,,,117,0,1,,,,0,,,70,60
779776,note_on,,,,,0,0,1,,,,0,,,79,60
779776,note_on,,,,,0,0,1,,,,0,,,82,75
779776,note_on,,,,,0,0,1,,,,0,,,40,52
779776,set_tempo,,,,,512,1,0,,480000,,,,,,
779865,control_change,,,,,89,0,1,,,,0,64,127,,
779866,note_off,,,,,1,0,1,,,,0,,,48,0
780032,note_on,,,,,166,0,1,,,,0,,,36,58
780038,note_off,,,,,6,0,1,,,,0,,,70,0
780038,note_off,,,,,0,0,1,,,,0,,,79,0
780038,note_off,,,,,0,0,1,,,,0,,,82,0
780122,note_off,,,,,84,0,1,,,,0,,,40,0
780185,control_change,,,,,63,0,1,,,,0,64,0,,
780288,note_on,,,,,103,0,1,,,,0,,,69,64
780288,note_on,,,,,0,0,1,,,,0,,,77,64
780288,note_on,,,,,0,0,1,,,,0,,,81,79
780288,note_on,,,,,0,0,1,,,,0,,,41,61
780288,set_tempo,,,,,512,1,0,,545454,,,,,,
780373,control_change,,,,,85,0,1,,,,0,64,127,,
780378,note_off,,,,,5,0,1,,,,0,,,36,0
780544,note_on,,,,,166,0,1,,,,0,,,48,58
780544,set_tempo,,,,,256,1,0,,400000,,,,,,
780634,note_off,,,,,90,0,1,,,,0,,,41,0
780800,note_on,,,,,166,0,1,,,,0,,,41,52
780890,note_off,,,,,90,0,1,,,,0,,,48,0
781056,note_on,,,,,166,0,1,,,,0,,,36,58
781062,note_off,,,,,6,0,1,,,,0,,,69,0
781062,note_off,,,,,0,0,1,,,,0,,,77,0
781062,note_off,,,,,0,0,1,,,,0,,,81,0
781146,note_off,,,,,84,0,1,,,,0,,,41,0
781218,control_change,,,,,72,0,1,,,,0,64,0,,
781312,note_on,,,,,0,0,1,,,,0,,,43,67
781312,set_tempo,,,,,768,1,0,,461538,,,,,,
781312,control_change,,,,,94,0,1,,,,0,64,0,,
781312,control_change,,,,,0,0,1,,,,0,64,0,,
781312,control_change,,,,,0,0,1,,,,0,64,0,,
781312,control_change,,,,,0,0,1,,,,0,64,0,,
781312,note_on,,,,,0,0,1,,,,0,,,67,60
781312,note_on,,,,,0,0,1,,,,0,,,76,60
781312,note_on,,,,,0,0,1,,,,0,,,79,76
781402,note_off,,,,,90,0,1,,,,0,,,36,0
781462,control_change,,,,,60,0,1,,,,0,64,127,,
781568,note_on,,,,,106,0,1,,,,0,,,48,58
781574,note_off,,,,,6,0,1,,,,0,,,67,0
781574,note_off,,,,,0,0,1,,,,0,,,76,0
781574,note_off,,,,,0,0,1,,,,0,,,79,0
781658,note_off,,,,,84,0,1,,,,0,,,43,0
781824,set_tempo,,,,,512,1,0,,400000,,,,,,
781824,note_on,,,,,166,0,1,,,,0,,,65,62
781824,note_on,,,,,0,0,1,,,,0,,,74,62
781824,note_on,,,,,0,0,1,,,,0,,,77,77
781824,note_on,,,,,0,0,1,,,,0,,,43,52
781914,note_off,,,,,90,0,1,,,,0,,,48,0
782080,note_on,,,,,166,0,1,,,,0,,,36,58
782086,note_off,,,,,6,0,1,,,,0,,,65,0
782086,note_off,,,,,0,0,1,,,,0,,,74,0
782086,note_off,,,,,0,0,1,,,,0,,,77,0
782170,note_off,,,,,84,0,1,,,,0,,,43,0
782336,note_on,,,,,166,0,1,,,,0,,,64,60
782336,note_on,,,,,0,0,1,,,,0,,,72,60
782336,note_on,,,,,0,0,1,,,,0,,,76,75
782336,note_on,,,,,0,0,1,,,,0,,,44,69
782426,note_off,,,,,90,0,1,,,,0,,,36,0
782592,set_tempo,,,,,768,1,0,,400000,,,,,,
782592,note_on,,,,,166,0,1,,,,0,,,48,58
782598,note_off,,,,,6,0,1,,,,0,,,64,0
782598,note_off,,,,,0,0,1,,,,0,,,72,0
782598,note_off,,,,,0,0,1,,,,0,,,76,0
782682,note_off,,,,,84,0,1,,,,0,,,44,0
782848,note_on,,,,,166,0,1,,,,0,,,62,58
782848,note_on,,,,,0,0,1,,,,0,,,71,58
782848,note_on,,,,,0,0,1,,,,0,,,74,72
782848,note_on,,,,,0,0,1,,,,0,,,44,52
782938,note_off,,,,,90,0,1,,,,0,,,48,0
783104,note_on,,,,,166,0,1,,,,0,,,36,58
783110,note_off,,,,,6,0,1,,,,0,,,62,0
783110,note_off,,,,,0,0,1,,,,0,,,71,0
783110,note_off,,,,,0,0,1,,,,0,,,74,0
783194,note_off,,,,,84,0,1,,,,0,,,44,0
783304,control_change,,,,,110,0,1,,,,0,64,0,,
783360,note_on,,,,,0,0,1,,,,0,,,71,61
783360,note_on,,,,,0,0,1,,,,0,,,74,76
783360,note_on,,,,,0,0,1,,,,0,,,43,67
783360,control_change,,,,,0,0,1,,,,0,64,0,,
783360,set_tempo,,,,,768,1,0,,461538,,,,,,
783360,control_change,,,,,0,0,1,,,,0,64,0,,
783360,control_change,,,,,0,0,1,,,,0,64,0,,
783360,note_on,,,,,0,0,1,,,,0,,,62,61
783360,control_change,,,,,56,0,1,,,,0,64,0,,
783450,note_off,,,,,90,0,1,,,,0,,,36,0
783548,control_change,,,,,98,0,1,,,,0,64,127,,
783616,note_on,,,,,68,0,1,,,,0,,,48,58
783706,note_off,,,,,90,0,1,,,,0,,,43,0
783872,note_on,,,,,0,0,1,,,,0,,,43,52
783872,note_on,,,,,0,0,1,,,,0,,,76,67
783872,note_on,,,,,166,0,1,,,,0,,,64,52
783872,note_on,,,,,0,0,1,,,,0,,,72,52
783872,set_tempo,,,,,512,1,0,,400000,,,,,,
783922,note_off,,,,,50,0,1,,,,0,,,62,0
783922,note_off,,,,,0,0,1,,,,0,,,71,0
783922,note_off,,,,,0,0,1,,,,0,,,74,0
783961,control_change,,,,,39,0,1,,,,0,64,0,,
783962,note_off,,,,,1,0,1,,,,0,,,48,0
784046,note_off,,,,,84,0,1,,,,0,,,64,0
784046,note_off,,,,,0,0,1,,,,0,,,72,0
784046,note_off,,,,,0,0,1,,,,0,,,76,0
784128,note_on,,,,,82,0,1,,,,0,,,36,58
784218,note_off,,,,,90,0,1,,,,0,,,43,0
784384,note_on,,,,,166,0,1,,,,0,,,64,54
784384,note_on,,,,,0,0,1,,,,0,,,72,54
784384,note_on,,,,,0,0,1,,,,0,,,43,52
784384,note_on,,,,,0,0,1,,,,0,,,76,69
784469,control_change,,,,,85,0,1,,,,0,64,127,,
784474,note_off,,,,,5,0,1,,,,0,,,36,0
784640,note_on,,,,,166,0,1,,,,0,,,48,58
784640,set_tempo,,,,,768,1,0,,400000,,,,,,
784730,note_off,,,,,90,0,1,,,,0,,,43,0
784896,note_on,,,,,166,0,1,,,,0,,,43,52
784986,note_off,,,,,90,0,1,,,,0,,,48,0
785152,note_on,,,,,166,0,1,,,,0,,,36,58
785242,note_off,,,,,90,0,1,,,,0,,,43,0
785295,control_change,,,,,53,0,1,,,,0,64,0,,
785408,note_off,,,,,0,0,1,,,,0,,,64,0
785408,note_on,,,,,0,0,1,,,,0,,,46,72
785408,note_on,,,,,0,0,1,,,,0,,,79,81
785408,note_on,,,,,0,0,1,,,,0,,,76,71
785408,note_on,,,,,0,0,1,,,,0,,,67,66
785408,note_off,,,,,0,0,1,,,,0,,,76,0
785408,control_change,,,,,0,0,1,,,,0,64,0,,
785408,control_change,,,,,0,0,1,,,,0,64,0,,
785408,control_change,,,,,0,0,1,,,,0,64,0,,
785408,note_off,,,,,0,0,1,,,,0,,,72,0
785408,control_change,,,,,0,0,1,,,,0,64,0,,
785408,control_change,,,,,0,0,1,,,,0,64,0,,
785408,set_tempo,,,,,768,1,0,,461538,,,,,,
785408,control_change,,,,,113,0,1,,,,0,64,0,,
785498,note_off,,,,,90,0,1,,,,0,,,36,0
785596,control_change,,,,,98,0,1,,,,0,64,127,,
785664,note_off,,,,,68,0,1,,,,0,,,46,0
785664,note_on,,,,,0,0,1,,,,0,,,48,63
785803,control_change,,,,,139,0,1,,,,0,64,0,,
785920,note_on,,,,,0,0,1,,,,0,,,46,57
785920,note_on,,,,,0,0,1,,,,0,,,79,79
785920,note_on,,,,,0,0,1,,,,0,,,76,64
785920,note_on,,,,,0,0,1,,,,0,,,67,64
785920,note_off,,,,,0,0,1,,,,0,,,48,0
785920,note_off,,,,,0,0,1,,,,0,,,79,0
785920,note_off,,,,,0,0,1,,,,0,,,76,0
785920,note_off,,,,,117,0,1,,,,0,,,67,0
786009,control_change,,,,,89,0,1,,,,0,64,127,,
786176,note_on,,,,,0,0,1,,,,0,,,36,63
786176,note_off,,,,,167,0,1,,,,0,,,46,0
786329,control_change,,,,,153,0,1,,,,0,64,0,,
786432,note_on,,,,,0,0,1,,,,0,,,77,68
786432,note_on,,,,,0,0,1,,,,0,,,69,68
786432,note_off,,,,,0,0,1,,,,0,,,36,0
786432,note_off,,,,,0,0,1,,,,0,,,79,0
786432,note_off,,,,,0,0,1,,,,0,,,76,0
786432,note_off,,,,,103,0,1,,,,0,,,67,0
786432,note_on,,,,,0,0,1,,,,0,,,81,83
786432,note_on,,,,,0,0,1,,,,0,,,45,66
786432,set_tempo,,,,,1024,1,0,,400000,,,,,,
786517,control_change,,,,,85,0,1,,,,0,64,127,,
786688,note_off,,,,,171,0,1,,,,0,,,45,0
786688,note_on,,,,,0,0,1,,,,0,,,48,63
786944,note_on,,,,,0,0,1,,,,0,,,45,57
786944,note_off,,,,,256,0,1,,,,0,,,48,0
787200,note_off,,,,,256,0,1,,,,0,,,45,0
787200,note_on,,,,,0,0,1,,,,0,,,36,63
787362,control_change,,,,,162,0,1,,,,0,64,0,,
787456,control_change,,,,,0,0,1,,,,0,64,0,,
787456,control_change,,,,,0,0,1,,,,0,64,0,,
787456,control_change,,,,,0,0,1,,,,0,64,0,,
787456,control_change,,,,,0,0,1,,,,0,64,0,,
787456,control_change,,,,,0,0,1,,,,0,64,0,,
787456,control_change,,,,,0,0,1,,,,0,64,0,,
787456,set_tempo,,,,,1024,1,0,,500000,,,,,,
787456,control_change,,,,,94,0,1,,,,0,64,0,,
787456,note_off,,,,,0,0,1,,,,0,,,69,0
787456,note_off,,,,,0,0,1,,,,0,,,77,0
787456,note_off,,,,,0,0,1,,,,0,,,81,0
787456,note_off,,,,,0,0,1,,,,0,,,36,0
787456,note_on,,,,,0,0,1,,,,0,,,70,67
787456,note_on,,,,,0,0,1,,,,0,,,79,67
787456,note_on,,,,,0,0,1,,,,0,,,82,82
787456,note_on,,,,,0,0,1,,,,0,,,40,72
787644,control_change,,,,,188,0,1,,,,0,64,127,,
787712,note_off,,,,,68,0,1,,,,0,,,40,0
787712,note_on,,,,,0,0,1,,,,0,,,48,63
787851,control_change,,,,,139,0,1,,,,0,64,0,,
787968,note_off,,,,,117,0,1,,,,0,,,70,0
787968,note_off,,,,,0,0,1,,,,0,,,79,0
787968,note_off,,,,,0,0,1,,,,0,,,82,0
787968,note_off,,,,,0,0,1,,,,0,,,48,0
787968,note_on,,,,,0,0,1,,,,0,,,70,65
787968,note_on,,,,,0,0,1,,,,0,,,79,65
787968,note_on,,,,,0,0,1,,,,0,,,82,80
787968,set_tempo,,,,,512,1,0,,480000,,,,,,
787968,note_on,,,,,0,0,1,,,,0,,,40,57
788057,control_change,,,,,89,0,1,,,,0,64,127,,
788224,note_on,,,,,0,0,1,,,,0,,,36,63
788224,note_off,,,,,167,0,1,,,,0,,,40,0
788377,control_change,,,,,153,0,1,,,,0,64,0,,
788480,note_off,,,,,103,0,1,,,,0,,,70,0
788480,note_on,,,,,0,0,1,,,,0,,,41,66
788480,note_off,,,,,0,0,1,,,,0,,,79,0
788480,note_on,,,,,0,0,1,,,,0,,,77,69
788480,note_on,,,,,0,0,1,,,,0,,,81,84
788480,note_off,,,,,0,0,1,,,,0,,,36,0
788480,set_tempo,,,,,512,1,0,,545454,,,,,,
788480,note_off,,,,,0,0,1,,,,0,,,82,0
788480,note_on,,,,,0,0,1,,,,0,,,69,69
788565,control_change,,,,,85,0,1,,,,0,64,127,,
788736,set_tempo,,,,,256,1,0,,400000,,,,,,
788736,note_off,,,,,171,0,1,,,,0,,,41,0
788736,note_on,,,,,0,0,1,,,,0,,,48,63
788992,note_off,,,,,256,0,1,,,,0,,,48,0
788992,note_on,,,,,0,0,1,,,,0,,,41,57
789248,note_off,,,,,256,0,1,,,,0,,,41,0
789248,note_on,,,,,0,0,1,,,,0,,,36,63
789410,control_change,,,,,162,0,1,,,,0,64,0,,
789504,control_change,,,,,0,0,1,,,,0,64,0,,
789504,control_change,,,,,0,0,1,,,,0,64,0,,
789504,control_change,,,,,94,0,1,,,,0,64,0,,
789504,note_on,,,,,0,0,1,,,,0,,,79,76
789504,note_on,,,,,0,0,1,,,,0,,,76,60
789504,note_on,,,,,0,0,1,,,,0,,,67,60
789504,note_off,,,,,0,0,1,,,,0,,,36,0
789504,note_on,,,,,0,0,1,,,,0,,,43,67
789504,note_off,,,,,0,0,1,,,,0,,,77,0
789504,note_off,,,,,0,0,1,,,,0,,,81,0
789504,control_change,,,,,0,0,1,,,,0,64,0,,
789504,set_tempo,,,,,768,1,0,,461538,,,,,,
789504,control_change,,,,,0,0,1,,,,0,64,0,,
789504,note_off,,,,,0,0,1,,,,0,,,69,0
789504,control_change,,,,,0,0,1,,,,0,64,0,,
789654,control_change,,,,,150,0,1,,,,0,64,127,,
789760,note_off,,,,,106,0,1,,,,0,,,43,0
789760,note_on,,,,,0,0,1,,,,0,,,48,58
790016,note_off,,,,,0,0,1,,,,0,,,76,0
790016,note_off,,,,,0,0,1,,,,0,,,48,0
790016,note_on,,,,,0,0,1,,,,0,,,65,62
790016,note_on,,,,,0,0,1,,,,0,,,74,62
790016,note_on,,,,,0,0,1,,,,0,,,77,77
790016,note_on,,,,,0,0,1,,,,0,,,45,52
790016,note_off,,,,,256,0,1,,,,0,,,67,0
790016,note_off,,,,,0,0,1,,,,0,,,79,0
790016,set_tempo,,,,,512,1,0,,400000,,,,,,
790272,note_on,,,,,0,0,1,,,,0,,,48,58
790272,note_off,,,,,256,0,1,,,,0,,,45,0
790528,note_on,,,,,0,0,1,,,,0,,,46,69
790528,note_off,,,,,256,0,1,,,,0,,,65,0
790528,note_off,,,,,0,0,1,,,,0,,,74,0
790528,note_off,,,,,0,0,1,,,,0,,,77,0
790528,note_off,,,,,0,0,1,,,,0,,,48,0
790528,note_on,,,,,0,0,1,,,,0,,,64,60
790528,note_on,,,,,0,0,1,,,,0,,,72,60
790528,note_on,,,,,0,0,1,,,,0,,,76,75
790784,note_off,,,,,256,0,1,,,,0,,,46,0
790784,set_tempo,,,,,768,1,0,,400000,,,,,,
790784,note_on,,,,,0,0,1,,,,0,,,48,58
791040,note_off,,,,,256,0,1,,,,0,,,64,0
791040,note_off,,,,,0,0,1,,,,0,,,72,0
791040,note_off,,,,,0,0,1,,,,0,,,76,0
791040,note_off,,,,,0,0,1,,,,0,,,48,0
791040,note_on,,,,,0,0,1,,,,0,,,62,58
791040,note_on,,,,,0,0,1,,,,0,,,74,72
791040,note_on,,,,,0,0,1,,,,0,,,65,58
791040,note_on,,,,,0,0,1,,,,0,,,47,52
791296,note_off,,,,,256,0,1,,,,0,,,47,0
791296,note_on,,,,,0,0,1,,,,0,,,48,58
791496,control_change,,,,,200,0,1,,,,0,64,0,,
791552,note_on,,,,,0,0,1,,,,0,,,65,61
791552,set_tempo,,,,,768,1,0,,461538,,,,,,
791552,control_change,,,,,56,0,1,,,,0,64,0,,
791552,control_change,,,,,0,0,1,,,,0,64,0,,
791552,note_off,,,,,0,0,1,,,,0,,,62,0
791552,note_off,,,,,0,0,1,,,,0,,,65,0
791552,note_off,,,,,0,0,1,,,,0,,,74,0
791552,note_on,,,,,0,0,1,,,,0,,,62,61
791552,note_off,,,,,0,0,1,,,,0,,,48,0
791552,note_on,,,,,0,0,1,,,,0,,,31,67
791552,note_on,,,,,0,0,1,,,,0,,,74,76
791808,note_off,,,,,256,0,1,,,,0,,,31,0
791808,note_on,,,,,0,0,1,,,,0,,,43,58
791808,set_tempo,,,,,256,1,0,,400000,,,,,,
792064,set_tempo,,,,,256,1,0,,400000,,,,,,
792064,note_off,,,,,256,0,1,,,,0,,,62,0
792064,note_off,,,,,0,0,1,,,,0,,,65,0
792064,note_off,,,,,0,0,1,,,,0,,,74,0
792064,note_off,,,,,0,0,1,,,,0,,,43,0
792064,note_on,,,,,0,0,1,,,,0,,,60,52
792064,note_on,,,,,0,0,1,,,,0,,,64,52
792064,note_on,,,,,0,0,1,,,,0,,,72,67
792064,note_on,,,,,0,0,1,,,,0,,,36,52
792238,note_off,,,,,174,0,1,,,,0,,,60,0
792238,note_off,,,,,0,0,1,,,,0,,,72,0
792238,note_off,,,,,0,0,1,,,,0,,,64,0
792320,note_on,,,,,0,0,1,,,,0,,,43,58
792320,note_off,,,,,82,0,1,,,,0,,,36,0
792576,note_on,,,,,0,0,1,,,,0,,,64,54
792576,note_off,,,,,0,0,1,,,,0,,,43,0
792576,note_on,,,,,0,0,1,,,,0,,,36,69
792576,note_on,,,,,0,0,1,,,,0,,,72,69
792576,note_on,,,,,256,0,1,,,,0,,,60,54
792750,note_off,,,,,0,0,1,,,,0,,,72,0
792750,note_off,,,,,0,0,1,,,,0,,,64,0
792750,note_off,,,,,174,0,1,,,,0,,,60,0
792832,set_tempo,,,,,768,1,0,,400000,,,,,,
792832,note_off,,,,,82,0,1,,,,0,,,36,0
792832,note_on,,,,,0,0,1,,,,0,,,43,58
793088,note_on,,,,,256,0,1,,,,0,,,62,59
793088,note_on,,,,,0,0,1,,,,0,,,65,59
793088,note_on,,,,,0,0,1,,,,0,,,74,71
793088,note_on,,,,,0,0,1,,,,0,,,31,52
793088,note_off,,,,,0,0,1,,,,0,,,43,0
793262,note_off,,,,,174,0,1,,,,0,,,62,0
793262,note_off,,,,,0,0,1,,,,0,,,74,0
793262,note_off,,,,,0,0,1,,,,0,,,65,0
793344,note_on,,,,,0,0,1,,,,0,,,43,58
793344,note_off,,,,,82,0,1,,,,0,,,31,0
793600,control_change,,,,,256,0,1,,,,0,64,0,,
793600,note_off,,,,,0,0,1,,,,0,,,43,0
793600,note_on,,,,,0,0,1,,,,0,,,62,61
793600,note_on,,,,,0,0,1,,,,0,,,65,61
793600,note_on,,,,,0,0,1,,,,0,,,74,76
793600,note_on,,,,,0,0,1,,,,0,,,31,67
793600,control_change,,,,,0,0,1,,,,0,64,0,,
793856,note_off,,,,,256,0,1,,,,0,,,31,0
793856,note_on,,,,,0,0,1,,,,0,,,43,58
794112,note_off,,,,,256,0,1,,,,0,,,62,0
794112,note_off,,,,,0,0,1,,,,0,,,65,0
794112,note_off,,,,,0,0,1,,,,0,,,74,0
794112,note_on,,,,,0,0,1,,,,0,,,60,52
794112,note_on,,,,,0,0,1,,,,0,,,72,67
794112,note_on,,,,,0,0,1,,,,0,,,64,52
794112,note_on,,,,,0,0,1,,,,0,,,36,52
794112,note_off,,,,,0,0,1,,,,0,,,43,0
794286,note_off,,,,,174,0,1,,,,0,,,60,0
794286,note_off,,,,,0,0,1,,,,0,,,64,0
794286,note_off,,,,,0,0,1,,,,0,,,72,0
794368,note_off,,,,,82,0,1,,,,0,,,36,0
794368,note_on,,,,,0,0,1,,,,0,,,43,58
794624,note_on,,,,,256,0,1,,,,0,,,60,54
794624,note_on,,,,,0,0,1,,,,0,,,64,54
794624,note_on,,,,,0,0,1,,,,0,,,72,69
794624,note_on,,,,,0,0,1,,,,0,,,36,69
794624,note_off,,,,,0,0,1,,,,0,,,43,0
794798,note_off,,,,,0,0,1,,,,0,,,64,0
794798,note_off,,,,,0,0,1,,,,0,,,72,0
794798,note_off,,,,,174,0,1,,,,0,,,60,0
794880,note_off,,,,,82,0,1,,,,0,,,36,0
794880,note_on,,,,,0,0,1,,,,0,,,43,58
795136,note_on,,,,,256,0,1,,,,0,,,62,59
795136,note_on,,,,,0,0,1,,,,0,,,71,59
795136,set_tempo,,,,,2304,1,0,,428571,,,,,,
795136,note_on,,,,,0,0,1,,,,0,,,74,71
795136,note_on,,,,,0,0,1,,,,0,,,31,52
795136,note_on,,,,,0,0,1,,,,0,,,43,64
795136,note_off,,,,,0,0,1,,,,0,,,43,0
795310,note_off,,,,,0,0,1,,,,0,,,71,0
795310,note_off,,,,,0,0,1,,,,0,,,74,0
795310,note_off,,,,,174,0,1,,,,0,,,62,0
795648,note_on,,,,,0,0,1,,,,0,,,31,64
795648,control_change,,,,,0,0,1,,,,0,64,0,,
795648,note_off,,,,,0,0,1,,,,0,,,31,0
795648,note_off,,,,,0,0,1,,,,0,,,43,0
795648,note_on,,,,,0,0,1,,,,0,,,62,63
795648,set_tempo,,,,,512,1,0,,428571,,,,,,
795648,note_on,,,,,0,0,1,,,,0,,,74,78
795648,control_change,,,,,338,0,1,,,,0,64,0,,
795648,note_on,,,,,0,0,1,,,,0,,,71,63
795904,note_on,,,,,0,0,1,,,,0,,,43,56
795904,note_off,,,,,256,0,1,,,,0,,,31,0
795910,note_off,,,,,6,0,1,,,,0,,,62,0
795910,note_off,,,,,0,0,1,,,,0,,,71,0
795910,note_off,,,,,0,0,1,,,,0,,,74,0
796160,set_tempo,,,,,512,1,0,,413793,,,,,,
796160,note_off,,,,,0,0,1,,,,0,,,43,0
796160,note_on,,,,,250,0,1,,,,0,,,64,55
796160,note_on,,,,,0,0,1,,,,0,,,76,70
796160,note_on,,,,,0,0,1,,,,0,,,72,55
796160,note_on,,,,,0,0,1,,,,0,,,36,57
796416,note_off,,,,,256,0,1,,,,0,,,36,0
796416,note_on,,,,,0,0,1,,,,0,,,43,57
796422,note_off,,,,,6,0,1,,,,0,,,64,0
796422,note_off,,,,,0,0,1,,,,0,,,76,0
796422,note_off,,,,,0,0,1,,,,0,,,72,0
796672,note_off,,,,,0,0,1,,,,0,,,43,0
796672,note_on,,,,,250,0,1,,,,0,,,66,66
796672,note_on,,,,,0,0,1,,,,0,,,75,66
796672,note_on,,,,,0,0,1,,,,0,,,78,81
796672,note_on,,,,,0,0,1,,,,0,,,35,67
796928,note_off,,,,,256,0,1,,,,0,,,35,0
796928,note_on,,,,,0,0,1,,,,0,,,47,59
796934,note_off,,,,,6,0,1,,,,0,,,66,0
796934,note_off,,,,,0,0,1,,,,0,,,75,0
796934,note_off,,,,,0,0,1,,,,0,,,78,0
797184,note_on,,,,,250,0,1,,,,0,,,67,58
797184,note_on,,,,,0,0,1,,,,0,,,76,58
797184,note_on,,,,,0,0,1,,,,0,,,79,73
797184,note_on,,,,,0,0,1,,,,0,,,40,60
797184,note_off,,,,,0,0,1,,,,0,,,47,0
797440,note_off,,,,,256,0,1,,,,0,,,40,0
797440,note_on,,,,,0,0,1,,,,0,,,47,61
797446,note_off,,,,,6,0,1,,,,0,,,67,0
797446,note_off,,,,,0,0,1,,,,0,,,76,0
797446,note_off,,,,,0,0,1,,,,0,,,79,0
797696,control_change,,,,,250,0,1,,,,0,64,0,,
797696,note_off,,,,,0,0,1,,,,0,,,47,0
797696,note_on,,,,,0,0,1,,,,0,,,69,68
797696,set_tempo,,,,,1536,1,0,,400000,,,,,,
797696,note_on,,,,,0,0,1,,,,0,,,78,68
797696,note_on,,,,,0,0,1,,,,0,,,81,83
797696,note_on,,,,,0,0,1,,,,0,,,38,70
797696,control_change,,,,,0,0,1,,,,0,64,0,,
797952,note_off,,,,,256,0,1,,,,0,,,38,0
797952,note_on,,,,,0,0,1,,,,0,,,50,62
797958,note_off,,,,,6,0,1,,,,0,,,69,0
797958,note_off,,,,,0,0,1,,,,0,,,78,0
797958,note_off,,,,,0,0,1,,,,0,,,81,0
798208,note_on,,,,,250,0,1,,,,0,,,71,60
798208,note_on,,,,,0,0,1,,,,0,,,79,60
798208,note_on,,,,,0,0,1,,,,0,,,83,75
798208,note_on,,,,,0,0,1,,,,0,,,43,63
798208,note_off,,,,,0,0,1,,,,0,,,50,0
798464,note_off,,,,,256,0,1,,,,0,,,43,0
798464,note_on,,,,,0,0,1,,,,0,,,50,64
798470,note_off,,,,,6,0,1,,,,0,,,71,0
798470,note_off,,,,,0,0,1,,,,0,,,79,0
798470,note_off,,,,,0,0,1,,,,0,,,83,0
798720,note_on,,,,,0,0,1,,,,0,,,82,71
798720,note_on,,,,,0,0,1,,,,0,,,85,86
798720,note_on,,,,,0,0,1,,,,0,,,42,74
798720,note_off,,,,,0,0,1,,,,0,,,50,0
798720,note_on,,,,,250,0,1,,,,0,,,73,71
798976,note_off,,,,,256,0,1,,,,0,,,42,0
798976,note_on,,,,,0,0,1,,,,0,,,54,65
798982,note_off,,,,,6,0,1,,,,0,,,73,0
798982,note_off,,,,,0,0,1,,,,0,,,82,0
798982,note_off,,,,,0,0,1,,,,0,,,85,0
799232,note_on,,,,,250,0,1,,,,0,,,74,63
799232,note_on,,,,,0,0,1,,,,0,,,83,63
799232,note_on,,,,,0,0,1,,,,0,,,86,78
799232,note_off,,,,,0,0,1,,,,0,,,54,0
799232,note_on,,,,,0,0,1,,,,0,,,47,66
799488,set_tempo,,,,,1792,1,0,,666666,,,,,,
799488,note_on,,,,,0,0,1,,,,0,,,54,67
799488,note_off,,,,,256,0,1,,,,0,,,47,0
799494,note_off,,,,,6,0,1,,,,0,,,74,0
799494,note_off,,,,,0,0,1,,,,0,,,83,0
799494,note_off,,,,,0,0,1,,,,0,,,86,0
799744,control_change,,,,,250,0,1,,,,0,64,0,,
799744,control_change,,,,,0,0,1,,,,0,64,0,,
799744,note_off,,,,,0,0,1,,,,0,,,54,0
799744,note_on,,,,,0,0,1,,,,0,,,86,72
799744,note_on,,,,,0,0,1,,,,0,,,89,87
799744,note_on,,,,,0,0,1,,,,0,,,43,59
799744,note_on,,,,,0,0,1,,,,0,,,47,59
799744,note_on,,,,,0,0,1,,,,0,,,50,59
799744,set_tempo,,,,,256,1,0,,500000,,,,,,
799744,note_on,,,,,0,0,1,,,,0,,,77,72
799744,note_on,,,,,0,0,1,,,,0,,,55,71
800026,control_change,,,,,282,0,1,,,,0,64,127,,
800256,set_tempo,,,,,512,1,0,,387096,,,,,,
800256,note_on,,,,,0,0,1,,,,0,,,88,77
800256,note_off,,,,,0,0,1,,,,0,,,55,0
800256,note_off,,,,,0,0,1,,,,0,,,50,0
800256,note_off,,,,,0,0,1,,,,0,,,47,0
800256,note_off,,,,,0,0,1,,,,0,,,43,0
800256,note_off,,,,,0,0,1,,,,0,,,89,0
800256,note_off,,,,,0,0,1,,,,0,,,86,0
800256,note_off,,,,,230,0,1,,,,0,,,77,0
800512,note_off,,,,,256,0,1,,,,0,,,88,0
800512,note_on,,,,,0,0,1,,,,0,,,86,76
800768,note_on,,,,,0,0,1,,,,0,,,84,74
800768,note_off,,,,,256,0,1,,,,0,,,86,0
801024,note_on,,,,,0,0,1,,,,0,,,83,73
801024,note_off,,,,,256,0,1,,,,0,,,84,0
801280,note_off,,,,,256,0,1,,,,0,,,83,0
801280,note_on,,,,,0,0,1,,,,0,,,81,72
801536,note_off,,,,,256,0,1,,,,0,,,81,0
801536,note_on,,,,,0,0,1,,,,0,,,79,70
801627,control_change,,,,,91,0,1,,,,0,64,0,,
801792,control_change,,,,,165,0,1,,,,0,64,0,,
801792,control_change,,,,,0,0,1,,,,0,64,0,,
801792,note_off,,,,,0,0,1,,,,0,,,79,0
801792,note_on,,,,,0,0,1,,,,0,,,77,69
802048,note_off,,,,,256,0,1,,,,0,,,77,0
802048,note_on,,,,,0,0,1,,,,0,,,76,68
802304,note_off,,,,,256,0,1,,,,0,,,76,0
802304,note_on,,,,,0,0,1,,,,0,,,74,67
802304,note_on,,,,,0,0,1,,,,0,,,31,64
802478,note_off,,,,,174,0,1,,,,0,,,31,0
802560,note_off,,,,,82,0,1,,,,0,,,74,0
802560,note_on,,,,,0,0,1,,,,0,,,72,65
802816,note_on,,,,,0,0,1,,,,0,,,71,64
802816,note_on,,,,,0,0,1,,,,0,,,33,64
802816,note_off,,,,,256,0,1,,,,0,,,72,0
802990,note_off,,,,,174,0,1,,,,0,,,33,0
803072,note_off,,,,,82,0,1,,,,0,,,71,0
803072,note_on,,,,,0,0,1,,,,0,,,69,63
803328,note_off,,,,,256,0,1,,,,0,,,69,0
803328,note_on,,,,,0,0,1,,,,0,,,67,61
803328,note_on,,,,,0,0,1,,,,0,,,35,64
803502,note_off,,,,,174,0,1,,,,0,,,35,0
803584,note_off,,,,,82,0,1,,,,0,,,67,0
803584,note_on,,,,,0,0,1,,,,0,,,65,60
803840,control_change,,,,,256,0,1,,,,0,64,0,,
803840,control_change,,,,,0,0,1,,,,0,64,0,,
803840,control_change,,,,,0,0,1,,,,0,64,0,,
803840,note_off,,,,,0,0,1,,,,0,,,65,0
803840,note_on,,,,,0,0,1,,,,0,,,53,67
803840,note_on,,,,,0,0,1,,,,0,,,65,79
803840,note_on,,,,,0,0,1,,,,0,,,36,60
803840,note_on,,,,,0,0,1,,,,0,,,43,48
803840,control_change,,,,,0,0,1,,,,0,64,0,,
803840,set_tempo,,,,,3584,1,0,,500000,,,,,,
803862,control_change,,,,,22,0,1,,,,0,64,127,,
804018,control_change,,,,,156,0,1,,,,0,64,0,,
804129,control_change,,,,,111,0,1,,,,0,64,127,,
804324,control_change,,,,,195,0,1,,,,0,64,0,,
804352,note_on,,,,,0,0,1,,,,0,,,64,70
804352,set_tempo,,,,,512,1,0,,413793,,,,,,
804352,note_off,,,,,0,0,1,,,,0,,,65,0
804352,note_on,,,,,0,0,1,,,,0,,,52,58
804352,note_off,,,,,28,0,1,,,,0,,,53,0
804526,note_off,,,,,0,0,1,,,,0,,,64,0
804526,note_off,,,,,174,0,1,,,,0,,,52,0
804797,control_change,,,,,271,0,1,,,,0,64,0,,
804864,note_on,,,,,67,0,1,,,,0,,,50,55
804864,note_on,,,,,0,0,1,,,,0,,,62,67
804864,note_on,,,,,0,0,1,,,,0,,,38,60
804864,note_on,,,,,0,0,1,,,,0,,,43,48
804864,note_off,,,,,0,0,1,,,,0,,,36,0
804864,note_off,,,,,0,0,1,,,,0,,,43,0
805038,note_off,,,,,174,0,1,,,,0,,,50,0
805038,note_off,,,,,0,0,1,,,,0,,,38,0
805038,note_off,,,,,0,0,1,,,,0,,,43,0
805038,note_off,,,,,0,0,1,,,,0,,,62,0
805376,note_on,,,,,338,0,1,,,,0,,,48,53
805376,note_on,,,,,0,0,1,,,,0,,,60,65
805376,note_on,,,,,0,0,1,,,,0,,,40,60
805376,note_on,,,,,0,0,1,,,,0,,,43,48
805550,note_off,,,,,0,0,1,,,,0,,,43,0
805550,note_off,,,,,0,0,1,,,,0,,,40,0
805550,note_off,,,,,0,0,1,,,,0,,,60,0
805550,note_off,,,,,174,0,1,,,,0,,,48,0
805888,control_change,,,,,338,0,1,,,,0,64,0,,
805888,control_change,,,,,0,0,1,,,,0,64,0,,
805888,control_change,,,,,0,0,1,,,,0,64,0,,
805888,note_on,,,,,0,0,1,,,,0,,,59,64
805888,control_change,,,,,0,0,1,,,,0,64,0,,
805888,note_on,,,,,0,0,1,,,,0,,,71,76
805888,note_on,,,,,0,0,1,,,,0,,,41,60
805888,note_on,,,,,0,0,1,,,,0,,,48,48
806051,control_change,,,,,163,0,1,,,,0,64,127,,
806372,control_change,,,,,321,0,1,,,,0,64,0,,
806400,note_off,,,,,28,0,1,,,,0,,,59,0
806400,note_off,,,,,0,0,1,,,,0,,,71,0
806400,note_on,,,,,0,0,1,,,,0,,,57,53
806400,note_on,,,,,0,0,1,,,,0,,,69,65
806574,note_off,,,,,174,0,1,,,,0,,,57,0
806574,note_off,,,,,0,0,1,,,,0,,,69,0
806842,control_change,,,,,268,0,1,,,,0,64,0,,
806912,note_on,,,,,70,0,1,,,,0,,,55,50
806912,note_on,,,,,0,0,1,,,,0,,,67,62
806912,note_on,,,,,0,0,1,,,,0,,,43,60
806912,note_on,,,,,0,0,1,,,,0,,,48,48
806912,note_off,,,,,0,0,1,,,,0,,,41,0
806912,note_off,,,,,0,0,1,,,,0,,,48,0
807086,note_off,,,,,174,0,1,,,,0,,,55,0
807086,note_off,,,,,0,0,1,,,,0,,,67,0
807086,note_off,,,,,0,0,1,,,,0,,,43,0
807086,note_off,,,,,0,0,1,,,,0,,,48,0
807424,note_on,,,,,338,0,1,,,,0,,,53,47
807424,note_on,,,,,0,0,1,,,,0,,,45,60
807424,note_on,,,,,0,0,1,,,,0,,,65,59
807424,note_on,,,,,0,0,1,,,,0,,,48,48
807598,note_off,,,,,0,0,1,,,,0,,,65,0
807598,note_off,,,,,0,0,1,,,,0,,,45,0
807598,note_off,,,,,0,0,1,,,,0,,,48,0
807598,note_off,,,,,174,0,1,,,,0,,,53,0
807936,note_on,,,,,0,0,1,,,,0,,,60,58
807936,set_tempo,,,,,3584,1,0,,500000,,,,,,
807936,control_change,,,,,338,0,1,,,,0,64,0,,
807936,control_change,,,,,0,0,1,,,,0,64,0,,
807936,control_change,,,,,0,0,1,,,,0,64,0,,
807936,control_change,,,,,0,0,1,,,,0,64,0,,
807936,control_change,,,,,0,0,1,,,,0,64,0,,
807936,note_on,,,,,0,0,1,,,,0,,,55,58
807936,note_on,,,,,0,0,1,,,,0,,,64,69
807936,note_on,,,,,0,0,1,,,,0,,,48,52
807936,note_on,,,,,0,0,1,,,,0,,,52,64
807936,note_on,,,,,0,0,1,,,,0,,,43,64
808110,note_off,,,,,174,0,1,,,,0,,,55,0
808110,note_off,,,,,0,0,1,,,,0,,,60,0
808110,note_off,,,,,0,0,1,,,,0,,,64,0
808110,note_off,,,,,0,0,1,,,,0,,,43,0
808110,note_off,,,,,0,0,1,,,,0,,,48,0
808110,note_off,,,,,0,0,1,,,,0,,,52,0
808448,note_on,,,,,0,0,1,,,,0,,,65,82
808448,note_on,,,,,0,0,1,,,,0,,,62,71
808448,note_on,,,,,0,0,1,,,,0,,,50,70
808448,note_on,,,,,0,0,1,,,,0,,,53,58
808448,note_on,,,,,338,0,1,,,,0,,,55,71
808448,note_on,,,,,0,0,1,,,,0,,,43,58
808448,set_tempo,,,,,512,1,0,,400000,,,,,,
808591,control_change,,,,,143,0,1,,,,0,64,127,,
809472,note_on,,,,,0,0,1,,,,0,,,50,61
809472,note_on,,,,,0,0,1,,,,0,,,47,49
809472,note_on,,,,,0,0,1,,,,0,,,43,49
809472,note_on,,,,,0,0,1,,,,0,,,62,68
809472,note_on,,,,,0,0,1,,,,0,,,59,57
809472,note_on,,,,,0,0,1,,,,0,,,55,57
809472,note_off,,,,,0,0,1,,,,0,,,53,0
809472,note_off,,,,,0,0,1,,,,0,,,50,0
809472,note_off,,,,,0,0,1,,,,0,,,43,0
809472,note_off,,,,,0,0,1,,,,0,,,65,0
809472,note_off,,,,,0,0,1,,,,0,,,62,0
809472,note_off,,,,,881,0,1,,,,0,,,55,0
809472,set_tempo,,,,,1024,1,0,,428571,,,,,,
809615,control_change,,,,,143,0,1,,,,0,64,0,,
809646,note_off,,,,,0,0,1,,,,0,,,59,0
809646,note_off,,,,,0,0,1,,,,0,,,62,0
809646,note_off,,,,,0,0,1,,,,0,,,43,0
809646,note_off,,,,,0,0,1,,,,0,,,47,0
809646,note_off,,,,,0,0,1,,,,0,,,50,0
809646,note_off,,,,,31,0,1,,,,0,,,55,0
809984,note_on,,,,,0,0,1,,,,0,,,48,40
809984,control_change,,,,,338,0,1,,,,0,64,0,,
809984,note_on,,,,,0,0,1,,,,0,,,52,52
809984,note_on,,,,,0,0,1,,,,0,,,55,52
809984,note_on,,,,,0,0,1,,,,0,,,43,40
809984,note_on,,,,,0,0,1,,,,0,,,36,40
809984,note_on,,,,,0,0,1,,,,0,,,60,64
810158,note_off,,,,,174,0,1,,,,0,,,52,0
810158,note_off,,,,,0,0,1,,,,0,,,36,0
810158,note_off,,,,,0,0,1,,,,0,,,43,0
810158,note_off,,,,,0,0,1,,,,0,,,48,0
810158,note_off,,,,,0,0,1,,,,0,,,60,0
810158,note_off,,,,,0,0,1,,,,0,,,55,0
810496,set_tempo,,,,,1024,1,0,,413793,,,,,,
810496,note_on,,,,,338,0,1,,,,0,,,60,59
810496,note_on,,,,,0,0,1,,,,0,,,48,47
810552,control_change,,,,,56,0,1,,,,0,64,127,,
810752,note_off,,,,,200,0,1,,,,0,,,60,0
810752,note_on,,,,,0,0,1,,,,0,,,64,56
810752,note_off,,,,,0,0,1,,,,0,,,48,0
810752,note_on,,,,,0,0,1,,,,0,,,52,44
811008,note_off,,,,,0,0,1,,,,0,,,52,0
811008,note_on,,,,,0,0,1,,,,0,,,48,48
811008,note_on,,,,,0,0,1,,,,0,,,60,60
811008,note_off,,,,,256,0,1,,,,0,,,64,0
811264,note_on,,,,,0,0,1,,,,0,,,52,49
811264,note_on,,,,,0,0,1,,,,0,,,64,61
811264,note_off,,,,,256,0,1,,,,0,,,60,0
811264,note_off,,,,,0,0,1,,,,0,,,48,0
811520,note_on,,,,,0,0,1,,,,0,,,57,45
811520,note_on,,,,,0,0,1,,,,0,,,69,57
811520,note_off,,,,,256,0,1,,,,0,,,64,0
811520,note_off,,,,,0,0,1,,,,0,,,52,0
811776,note_on,,,,,0,0,1,,,,0,,,64,58
811776,note_on,,,,,0,0,1,,,,0,,,52,46
811776,note_off,,,,,0,0,1,,,,0,,,57,0
811776,note_off,,,,,256,0,1,,,,0,,,69,0
812032,control_change,,,,,256,0,1,,,,0,64,127,,
812032,note_off,,,,,0,0,1,,,,0,,,64,0
812032,note_off,,,,,0,0,1,,,,0,,,52,0
812032,note_on,,,,,0,0,1,,,,0,,,69,63
812032,note_on,,,,,0,0,1,,,,0,,,57,51
812141,control_change,,,,,109,0,1,,,,0,64,0,,
812288,note_off,,,,,147,0,1,,,,0,,,69,0
812288,note_on,,,,,0,0,1,,,,0,,,64,59
812288,note_on,,,,,0,0,1,,,,0,,,52,47
812288,note_off,,,,,0,0,1,,,,0,,,57,0
812359,control_change,,,,,71,0,1,,,,0,64,127,,
812544,note_on,,,,,0,0,1,,,,0,,,60,52
812544,note_off,,,,,0,0,1,,,,0,,,52,0
812544,note_on,,,,,0,0,1,,,,0,,,72,64
812544,note_off,,,,,185,0,1,,,,0,,,64,0
812800,note_off,,,,,256,0,1,,,,0,,,72,0
812800,note_on,,,,,0,0,1,,,,0,,,69,61
812800,note_on,,,,,0,0,1,,,,0,,,57,49
812800,note_off,,,,,0,0,1,,,,0,,,60,0
813056,note_off,,,,,256,0,1,,,,0,,,69,0
813056,note_on,,,,,0,0,1,,,,0,,,72,65
813056,note_on,,,,,0,0,1,,,,0,,,60,53
813056,note_off,,,,,0,0,1,,,,0,,,57,0
813312,note_off,,,,,0,0,1,,,,0,,,60,0
813312,note_on,,,,,0,0,1,,,,0,,,57,50
813312,note_on,,,,,0,0,1,,,,0,,,69,62
813312,note_off,,,,,256,0,1,,,,0,,,72,0
813568,note_on,,,,,0,0,1,,,,0,,,64,54
813568,note_off,,,,,256,0,1,,,,0,,,69,0
813568,note_off,,,,,0,0,1,,,,0,,,57,0
813568,note_on,,,,,0,0,1,,,,0,,,76,66
813824,note_off,,,,,256,0,1,,,,0,,,76,0
813824,note_on,,,,,0,0,1,,,,0,,,72,63
813824,note_on,,,,,0,0,1,,,,0,,,60,51
813824,note_off,,,,,0,0,1,,,,0,,,64,0
814080,control_change,,,,,256,0,1,,,,0,64,127,,
814080,control_change,,,,,0,0,1,,,,0,64,0,,
814080,note_off,,,,,0,0,1,,,,0,,,72,0
814080,note_off,,,,,0,0,1,,,,0,,,60,0
814080,note_on,,,,,0,0,1,,,,0,,,64,56
814080,note_on,,,,,0,0,1,,,,0,,,76,68
814189,control_change,,,,,109,0,1,,,,0,64,0,,
814336,note_off,,,,,147,0,1,,,,0,,,76,0
814336,note_on,,,,,0,0,1,,,,0,,,72,64
814336,note_on,,,,,0,0,1,,,,0,,,60,52
814336,note_off,,,,,0,0,1,,,,0,,,64,0
814407,control_change,,,,,71,0,1,,,,0,64,127,,
814592,note_off,,,,,185,0,1,,,,0,,,72,0
814592,note_on,,,,,0,0,1,,,,0,,,76,69
814592,note_on,,,,,0,0,1,,,,0,,,64,57
814592,note_off,,,,,0,0,1,,,,0,,,60,0
814848,note_on,,,,,0,0,1,,,,0,,,72,66
814848,note_on,,,,,0,0,1,,,,0,,,60,54
814848,note_off,,,,,0,0,1,,,,0,,,64,0
814848,note_off,,,,,256,0,1,,,,0,,,76,0
815104,note_off,,,,,256,0,1,,,,0,,,72,0
815104,note_on,,,,,0,0,1,,,,0,,,64,58
815104,note_off,,,,,0,0,1,,,,0,,,60,0
815104,note_on,,,,,0,0,1,,,,0,,,76,70
815360,note_off,,,,,256,0,1,,,,0,,,76,0
815360,note_on,,,,,0,0,1,,,,0,,,72,67
815360,note_on,,,,,0,0,1,,,,0,,,60,55
815360,note_off,,,,,0,0,1,,,,0,,,64,0
815616,note_off,,,,,256,0,1,,,,0,,,72,0
815616,note_on,,,,,0,0,1,,,,0,,,76,71
815616,note_on,,,,,0,0,1,,,,0,,,64,59
815616,note_off,,,,,0,0,1,,,,0,,,60,0
815872,note_off,,,,,256,0,1,,,,0,,,76,0
815872,note_on,,,,,0,0,1,,,,0,,,60,56
815872,note_off,,,,,0,0,1,,,,0,,,64,0
815872,note_on,,,,,0,0,1,,,,0,,,72,68
816128,control_change,,,,,256,0,1,,,,0,64,127,,
816128,control_change,,,,,0,0,1,,,,0,64,0,,
816128,note_off,,,,,0,0,1,,,,0,,,72,0
816128,note_off,,,,,0,0,1,,,,0,,,60,0
816128,note_on,,,,,0,0,1,,,,0,,,76,78
816128,note_on,,,,,0,0,1,,,,0,,,64,61
816237,control_change,,,,,109,0,1,,,,0,64,0,,
816384,note_off,,,,,0,0,1,,,,0,,,64,0
816384,note_off,,,,,147,0,1,,,,0,,,76,0
816384,note_on,,,,,0,0,1,,,,0,,,72,69
816384,note_on,,,,,0,0,1,,,,0,,,60,57
816455,control_change,,,,,71,0,1,,,,0,64,127,,
816640,note_on,,,,,0,0,1,,,,0,,,77,79
816640,note_off,,,,,0,0,1,,,,0,,,60,0
816640,note_on,,,,,0,0,1,,,,0,,,65,62
816640,note_off,,,,,185,0,1,,,,0,,,72,0
816896,note_off,,,,,256,0,1,,,,0,,,77,0
816896,note_on,,,,,0,0,1,,,,0,,,72,71
816896,note_on,,,,,0,0,1,,,,0,,,60,59
816896,note_off,,,,,0,0,1,,,,0,,,65,0
817152,note_off,,,,,256,0,1,,,,0,,,72,0
817152,note_off,,,,,0,0,1,,,,0,,,60,0
817152,note_on,,,,,0,0,1,,,,0,,,66,63
817152,note_on,,,,,0,0,1,,,,0,,,78,80
817408,note_off,,,,,256,0,1,,,,0,,,78,0
817408,note_on,,,,,0,0,1,,,,0,,,72,72
817408,note_on,,,,,0,0,1,,,,0,,,60,60
817408,note_off,,,,,0,0,1,,,,0,,,66,0
817664,note_on,,,,,0,0,1,,,,0,,,79,81
817664,note_off,,,,,256,0,1,,,,0,,,72,0
817664,note_off,,,,,0,0,1,,,,0,,,60,0
817664,note_on,,,,,0,0,1,,,,0,,,67,64
817920,set_tempo,,,,,7424,1,0,,666666,,,,,,
817920,note_on,,,,,0,0,1,,,,0,,,72,73
817920,note_off,,,,,0,0,1,,,,0,,,67,0
817920,note_on,,,,,0,0,1,,,,0,,,60,61
817920,note_off,,,,,256,0,1,,,,0,,,79,0
818176,note_on,,,,,0,0,1,,,,0,,,44,60
818176,set_tempo,,,,,256,1,0,,413793,,,,,,
818176,control_change,,,,,256,0,1,,,,0,64,127,,
818176,control_change,,,,,0,0,1,,,,0,64,0,,
818176,control_change,,,,,0,0,1,,,,0,64,0,,
818176,note_off,,,,,0,0,1,,,,0,,,72,0
818176,note_off,,,,,0,0,1,,,,0,,,60,0
818176,note_on,,,,,0,0,1,,,,0,,,68,72
818285,control_change,,,,,109,0,1,,,,0,64,0,,
818432,note_off,,,,,147,0,1,,,,0,,,68,0
818432,note_on,,,,,0,0,1,,,,0,,,80,72
818432,note_on,,,,,0,0,1,,,,0,,,56,60
818432,note_off,,,,,0,0,1,,,,0,,,44,0
818503,control_change,,,,,71,0,1,,,,0,64,127,,
818688,note_off,,,,,185,0,1,,,,0,,,80,0
818688,note_on,,,,,0,0,1,,,,0,,,68,67
818688,note_off,,,,,0,0,1,,,,0,,,56,0
818688,note_on,,,,,0,0,1,,,,0,,,44,55
818944,note_off,,,,,256,0,1,,,,0,,,68,0
818944,note_on,,,,,0,0,1,,,,0,,,80,70
818944,note_off,,,,,0,0,1,,,,0,,,44,0
818944,note_on,,,,,0,0,1,,,,0,,,56,58
819200,note_on,,,,,0,0,1,,,,0,,,44,57
819200,note_off,,,,,0,0,1,,,,0,,,56,0
819200,note_off,,,,,256,0,1,,,,0,,,80,0
819200,note_on,,,,,0,0,1,,,,0,,,68,69
819456,note_off,,,,,256,0,1,,,,0,,,68,0
819456,note_on,,,,,0,0,1,,,,0,,,80,71
819456,note_on,,,,,0,0,1,,,,0,,,56,59
819456,note_off,,,,,0,0,1,,,,0,,,44,0
819712,note_on,,,,,0,0,1,,,,0,,,68,66
819712,note_off,,,,,256,0,1,,,,0,,,80,0
819712,note_on,,,,,0,0,1,,,,0,,,44,54
819712,note_off,,,,,0,0,1,,,,0,,,56,0
819968,note_off,,,,,256,0,1,,,,0,,,68,0
819968,note_on,,,,,0,0,1,,,,0,,,80,69
819968,note_on,,,,,0,0,1,,,,0,,,56,57
819968,note_off,,,,,0,0,1,,,,0,,,44,0
820224,note_off,,,,,0,0,1,,,,0,,,80,0
820224,control_change,,,,,256,0,1,,,,0,64,127,,
820224,note_on,,,,,0,0,1,,,,0,,,69,61
820224,note_on,,,,,0,0,1,,,,0,,,45,49
820224,note_off,,,,,0,0,1,,,,0,,,56,0
820224,control_change,,,,,0,0,1,,,,0,64,0,,
820224,control_change,,,,,0,0,1,,,,0,64,0,,
820224,set_tempo,,,,,2048,1,0,,400000,,,,,,
820333,control_change,,,,,109,0,1,,,,0,64,0,,
820480,note_off,,,,,147,0,1,,,,0,,,69,0
820480,note_on,,,,,0,0,1,,,,0,,,81,66
820480,note_on,,,,,0,0,1,,,,0,,,57,54
820480,note_off,,,,,0,0,1,,,,0,,,45,0
820551,control_change,,,,,71,0,1,,,,0,64,127,,
820736,note_off,,,,,185,0,1,,,,0,,,81,0
820736,note_on,,,,,0,0,1,,,,0,,,70,64
820736,note_on,,,,,0,0,1,,,,0,,,46,52
820736,note_off,,,,,0,0,1,,,,0,,,57,0
820992,note_on,,,,,0,0,1,,,,0,,,82,69
820992,note_off,,,,,0,0,1,,,,0,,,46,0
820992,note_on,,,,,0,0,1,,,,0,,,58,57
820992,note_off,,,,,256,0,1,,,,0,,,70,0
821248,note_off,,,,,256,0,1,,,,0,,,82,0
821248,note_on,,,,,0,0,1,,,,0,,,71,67
821248,note_on,,,,,0,0,1,,,,0,,,47,55
821248,note_off,,,,,0,0,1,,,,0,,,58,0
821504,note_off,,,,,256,0,1,,,,0,,,71,0
821504,note_on,,,,,0,0,1,,,,0,,,83,73
821504,note_on,,,,,0,0,1,,,,0,,,59,61
821504,note_off,,,,,0,0,1,,,,0,,,47,0
821760,note_on,,,,,0,0,1,,,,0,,,72,70
821760,note_on,,,,,0,0,1,,,,0,,,48,58
821760,note_off,,,,,256,0,1,,,,0,,,83,0
821760,note_off,,,,,0,0,1,,,,0,,,59,0
822016,set_tempo,,,,,1792,1,0,,666666,,,,,,
822016,note_on,,,,,0,0,1,,,,0,,,84,76
822016,note_on,,,,,0,0,1,,,,0,,,60,64
822016,note_off,,,,,0,0,1,,,,0,,,48,0
822016,note_off,,,,,256,0,1,,,,0,,,72,0
822272,note_on,,,,,0,0,1,,,,0,,,84,77
822272,set_tempo,,,,,256,1,0,,500000,,,,,,
822272,note_on,,,,,0,0,1,,,,0,,,32,62
822272,control_change,,,,,0,0,1,,,,0,64,0,,
822272,control_change,,,,,0,0,1,,,,0,64,0,,
822272,control_change,,,,,256,0,1,,,,0,64,127,,
822272,note_off,,,,,0,0,1,,,,0,,,84,0
822272,note_on,,,,,0,0,1,,,,0,,,75,65
822272,control_change,,,,,0,0,1,,,,0,64,0,,
822272,note_off,,,,,0,0,1,,,,0,,,60,0
822381,control_change,,,,,109,0,1,,,,0,64,0,,
822528,note_off,,,,,147,0,1,,,,0,,,75,0
822528,note_off,,,,,0,0,1,,,,0,,,84,0
822528,note_off,,,,,0,0,1,,,,0,,,32,0
822528,set_tempo,,,,,256,1,0,,400000,,,,,,
822528,note_on,,,,,0,0,1,,,,0,,,87,72
822528,note_on,,,,,0,0,1,,,,0,,,44,69
822599,control_change,,,,,71,0,1,,,,0,64,127,,
822784,note_on,,,,,0,0,1,,,,0,,,75,67
822784,note_on,,,,,0,0,1,,,,0,,,84,79
822784,note_on,,,,,0,0,1,,,,0,,,32,64
822784,note_off,,,,,0,0,1,,,,0,,,44,0
822784,note_off,,,,,185,0,1,,,,0,,,87,0
823040,note_off,,,,,256,0,1,,,,0,,,75,0
823040,note_off,,,,,0,0,1,,,,0,,,84,0
823040,note_off,,,,,0,0,1,,,,0,,,32,0
823040,note_on,,,,,0,0,1,,,,0,,,87,70
823040,note_on,,,,,0,0,1,,,,0,,,44,67
823296,note_on,,,,,0,0,1,,,,0,,,75,69
823296,note_on,,,,,0,0,1,,,,0,,,84,81
823296,note_on,,,,,0,0,1,,,,0,,,32,66
823296,note_off,,,,,0,0,1,,,,0,,,44,0
823296,note_off,,,,,256,0,1,,,,0,,,87,0
823552,note_off,,,,,256,0,1,,,,0,,,75,0
823552,note_off,,,,,0,0,1,,,,0,,,84,0
823552,note_off,,,,,0,0,1,,,,0,,,32,0
823552,note_on,,,,,0,0,1,,,,0,,,44,68
823552,note_on,,,,,0,0,1,,,,0,,,87,71
823808,note_off,,,,,256,0,1,,,,0,,,87,0
823808,note_on,,,,,0,0,1,,,,0,,,32,63
823808,note_off,,,,,0,0,1,,,,0,,,44,0
823808,note_on,,,,,0,0,1,,,,0,,,75,66
823808,note_on,,,,,0,0,1,,,,0,,,84,78
824064,note_off,,,,,256,0,1,,,,0,,,75,0
824064,note_off,,,,,0,0,1,,,,0,,,84,0
824064,note_off,,,,,0,0,1,,,,0,,,32,0
824064,note_on,,,,,0,0,1,,,,0,,,87,69
824064,note_on,,,,,0,0,1,,,,0,,,44,66
824320,control_change,,,,,0,0,1,,,,0,64,0,,
824320,control_change,,,,,0,0,1,,,,0,64,0,,
824320,note_off,,,,,0,0,1,,,,0,,,87,0
824320,note_off,,,,,0,0,1,,,,0,,,44,0
824320,note_on,,,,,0,0,1,,,,0,,,75,69
824320,note_on,,,,,0,0,1,,,,0,,,84,81
824320,note_on,,,,,0,0,1,,,,0,,,32,66
824320,control_change,,,,,0,0,1,,,,0,64,0,,
824320,control_change,,,,,256,0,1,,,,0,64,127,,
824320,set_tempo,,,,,1792,1,0,,387096,,,,,,
824429,control_change,,,,,109,0,1,,,,0,64,0,,
824576,note_off,,,,,147,0,1,,,,0,,,75,0
824576,note_off,,,,,0,0,1,,,,0,,,84,0
824576,note_on,,,,,0,0,1,,,,0,,,44,71
824576,note_on,,,,,0,0,1,,,,0,,,87,74
824576,note_off,,,,,0,0,1,,,,0,,,32,0
824647,control_change,,,,,71,0,1,,,,0,64,127,,
824832,note_off,,,,,185,0,1,,,,0,,,87,0
824832,note_off,,,,,0,0,1,,,,0,,,44,0
824832,note_on,,,,,0,0,1,,,,0,,,32,69
824832,note_on,,,,,0,0,1,,,,0,,,85,84
824832,note_on,,,,,0,0,1,,,,0,,,76,72
825088,note_on,,,,,0,0,1,,,,0,,,88,77
825088,note_off,,,,,256,0,1,,,,0,,,76,0
825088,note_off,,,,,0,0,1,,,,0,,,85,0
825088,note_off,,,,,0,0,1,,,,0,,,32,0
825088,note_on,,,,,0,0,1,,,,0,,,44,74
825344,note_off,,,,,256,0,1,,,,0,,,88,0
825344,note_on,,,,,0,0,1,,,,0,,,86,87
825344,note_on,,,,,0,0,1,,,,0,,,32,72
825344,note_off,,,,,0,0,1,,,,0,,,44,0
825344,set_tempo,,,,,1024,1,0,,400000,,,,,,
825344,note_on,,,,,0,0,1,,,,0,,,77,75
825600,note_off,,,,,256,0,1,,,,0,,,77,0
825600,note_off,,,,,0,0,1,,,,0,,,86,0
825600,note_on,,,,,0,0,1,,,,0,,,89,81
825600,note_on,,,,,0,0,1,,,,0,,,44,78
825600,set_tempo,,,,,256,1,0,,413793,,,,,,
825600,note_off,,,,,0,0,1,,,,0,,,32,0
825856,note_off,,,,,256,0,1,,,,0,,,89,0
825856,note_on,,,,,0,0,1,,,,0,,,78,78
825856,note_on,,,,,0,0,1,,,,0,,,87,90
825856,note_off,,,,,0,0,1,,,,0,,,44,0
825856,note_on,,,,,0,0,1,,,,0,,,32,75
825856,set_tempo,,,,,256,1,0,,428571,,,,,,
826112,note_on,,,,,0,0,1,,,,0,,,44,81
826112,note_on,,,,,0,0,1,,,,0,,,90,84
826112,set_tempo,,,,,256,1,0,,500000,,,,,,
826112,note_off,,,,,0,0,1,,,,0,,,32,0
826112,note_off,,,,,0,0,1,,,,0,,,87,0
826112,note_off,,,,,256,0,1,,,,0,,,78,0
826124,control_change,,,,,12,0,1,,,,0,64,0,,
826368,note_on,,,,,0,0,1,,,,0,,,43,69
826368,note_on,,,,,0,0,1,,,,0,,,31,57
826368,note_on,,,,,0,0,1,,,,0,,,91,91
826368,note_on,,,,,0,0,1,,,,0,,,88,76
826368,note_on,,,,,0,0,1,,,,0,,,79,76
826368,note_off,,,,,0,0,1,,,,0,,,90,0
826368,control_change,,,,,0,0,1,,,,0,64,127,,
826368,control_change,,,,,244,0,1,,,,0,64,0,,
826368,note_off,,,,,0,0,1,,,,0,,,44,0
826424,control_change,,,,,56,0,1,,,,0,64,0,,
826603,control_change,,,,,179,0,1,,,,0,64,127,,
826880,set_tempo,,,,,768,1,0,,545454,,,,,,
826880,note_on,,,,,0,0,1,,,,0,,,96,70
826880,note_off,,,,,0,0,1,,,,0,,,43,0
826880,note_off,,,,,0,0,1,,,,0,,,31,0
826880,note_off,,,,,0,0,1,,,,0,,,91,0
826880,note_off,,,,,0,0,1,,,,0,,,88,0
826880,note_off,,,,,277,0,1,,,,0,,,79,0
827136,note_off,,,,,256,0,1,,,,0,,,96,0
827136,set_tempo,,,,,256,1,0,,428571,,,,,,
827136,note_on,,,,,0,0,1,,,,0,,,95,71
827392,note_on,,,,,0,0,1,,,,0,,,93,71
827392,note_off,,,,,256,0,1,,,,0,,,95,0
827392,set_tempo,,,,,256,1,0,,413793,,,,,,
827648,note_on,,,,,0,0,1,,,,0,,,91,72
827648,note_off,,,,,256,0,1,,,,0,,,93,0
827904,note_off,,,,,256,0,1,,,,0,,,91,0
827904,note_on,,,,,0,0,1,,,,0,,,89,72
828074,note_on,,,,,170,0,1,,,,0,,,43,64
828160,note_on,,,,,0,0,1,,,,0,,,88,73
828160,note_off,,,,,86,0,1,,,,0,,,89,0
828188,note_on,,,,,28,0,1,,,,0,,,50,64
828302,note_on,,,,,114,0,1,,,,0,,,53,64
828416,note_on,,,,,0,0,1,,,,0,,,59,76
828416,note_on,,,,,0,0,1,,,,0,,,86,73
828416,note_off,,,,,0,0,1,,,,0,,,88,0
828416,control_change,,,,,114,0,1,,,,0,64,0,,
828416,control_change,,,,,0,0,1,,,,0,64,127,,
828569,control_change,,,,,153,0,1,,,,0,64,0,,
828672,note_on,,,,,0,0,1,,,,0,,,84,73
828672,note_off,,,,,103,0,1,,,,0,,,86,0
828743,control_change,,,,,71,0,1,,,,0,64,127,,
828928,note_off,,,,,0,0,1,,,,0,,,50,0
828928,note_off,,,,,0,0,1,,,,0,,,59,0
828928,note_off,,,,,0,0,1,,,,0,,,53,0
828928,note_off,,,,,185,0,1,,,,0,,,84,0
828928,note_off,,,,,0,0,1,,,,0,,,43,0
828928,note_on,,,,,0,0,1,,,,0,,,83,72
829184,note_on,,,,,0,0,1,,,,0,,,81,71
829184,note_off,,,,,256,0,1,,,,0,,,83,0
829440,note_on,,,,,0,0,1,,,,0,,,79,70
829440,note_off,,,,,256,0,1,,,,0,,,81,0
829696,note_off,,,,,256,0,1,,,,0,,,79,0
829696,note_on,,,,,0,0,1,,,,0,,,77,69
829723,control_change,,,,,27,0,1,,,,0,64,0,,
829952,note_on,,,,,0,0,1,,,,0,,,76,68
829952,note_off,,,,,229,0,1,,,,0,,,77,0
830208,note_off,,,,,256,0,1,,,,0,,,76,0
830208,note_on,,,,,0,0,1,,,,0,,,74,67
830464,control_change,,,,,256,0,1,,,,0,64,0,,
830464,control_change,,,,,0,0,1,,,,0,64,0,,
830464,note_on,,,,,0,0,1,,,,0,,,72,66
830464,note_on,,,,,0,0,1,,,,0,,,48,56
830464,note_on,,,,,0,0,1,,,,0,,,52,56
830464,note_on,,,,,0,0,1,,,,0,,,60,67
830464,note_off,,,,,0,0,1,,,,0,,,74,0
830464,set_tempo,,,,,3072,1,0,,461538,,,,,,
830716,note_off,,,,,252,0,1,,,,0,,,72,0
830736,note_off,,,,,20,0,1,,,,0,,,48,0
830736,note_off,,,,,0,0,1,,,,0,,,52,0
830736,note_off,,,,,0,0,1,,,,0,,,60,0
830976,note_on,,,,,0,0,1,,,,0,,,79,78
830976,set_tempo,,,,,512,1,0,,413793,,,,,,
830976,note_on,,,,,0,0,1,,,,0,,,74,59
830976,note_on,,,,,240,0,1,,,,0,,,67,59
831488,note_on,,,,,0,0,1,,,,0,,,55,65
831488,note_on,,,,,0,0,1,,,,0,,,50,54
831488,note_on,,,,,512,0,1,,,,0,,,47,54
831740,note_off,,,,,0,0,1,,,,0,,,79,0
831740,note_off,,,,,252,0,1,,,,0,,,67,0
831740,note_off,,,,,0,0,1,,,,0,,,74,0
831760,note_off,,,,,0,0,1,,,,0,,,50,0
831760,note_off,,,,,0,0,1,,,,0,,,55,0
831760,note_off,,,,,20,0,1,,,,0,,,47,0
832000,note_on,,,,,0,0,1,,,,0,,,76,74
832000,note_on,,,,,0,0,1,,,,0,,,72,56
832000,note_on,,,,,240,0,1,,,,0,,,64,56
832512,note_on,,,,,0,0,1,,,,0,,,48,52
832512,control_change,,,,,0,0,1,,,,0,64,0,,
832512,control_change,,,,,512,0,1,,,,0,64,0,,
832512,note_on,,,,,0,0,1,,,,0,,,55,62
832512,set_tempo,,,,,1536,1,0,,400000,,,,,,
832512,note_on,,,,,0,0,1,,,,0,,,52,52
832764,note_off,,,,,252,0,1,,,,0,,,64,0
832764,note_off,,,,,0,0,1,,,,0,,,72,0
832764,note_off,,,,,0,0,1,,,,0,,,76,0
832784,note_off,,,,,0,0,1,,,,0,,,55,0
832784,note_off,,,,,0,0,1,,,,0,,,52,0
832784,note_off,,,,,20,0,1,,,,0,,,48,0
833024,note_on,,,,,240,0,1,,,,0,,,62,53
833024,note_on,,,,,0,0,1,,,,0,,,71,53
833024,note_on,,,,,0,0,1,,,,0,,,67,53
833024,note_on,,,,,0,0,1,,,,0,,,74,71
833536,note_on,,,,,512,0,1,,,,0,,,43,51
833536,note_on,,,,,0,0,1,,,,0,,,53,51
833536,note_on,,,,,0,0,1,,,,0,,,55,60
833788,note_off,,,,,0,0,1,,,,0,,,67,0
833788,note_off,,,,,0,0,1,,,,0,,,71,0
833788,note_off,,,,,0,0,1,,,,0,,,74,0
833788,note_off,,,,,252,0,1,,,,0,,,62,0
833808,note_off,,,,,20,0,1,,,,0,,,43,0
833808,note_off,,,,,0,0,1,,,,0,,,53,0
833808,note_off,,,,,0,0,1,,,,0,,,55,0
834048,note_on,,,,,240,0,1,,,,0,,,60,50
834048,note_on,,,,,0,0,1,,,,0,,,64,50
834048,note_on,,,,,0,0,1,,,,0,,,67,50
834048,note_on,,,,,0,0,1,,,,0,,,72,67
834560,note_on,,,,,0,0,1,,,,0,,,48,56
834560,note_on,,,,,0,0,1,,,,0,,,55,67
834560,note_on,,,,,0,0,1,,,,0,,,52,56
834560,control_change,,,,,0,0,1,,,,0,64,0,,
834560,control_change,,,,,512,0,1,,,,0,64,0,,
834812,note_off,,,,,0,0,1,,,,0,,,72,0
834812,note_off,,,,,0,0,1,,,,0,,,67,0
834812,note_off,,,,,252,0,1,,,,0,,,60,0
834812,note_off,,,,,0,0,1,,,,0,,,64,0
834832,note_off,,,,,0,0,1,,,,0,,,52,0
834832,note_off,,,,,20,0,1,,,,0,,,48,0
834832,note_off,,,,,0,0,1,,,,0,,,55,0
835072,note_on,,,,,0,0,1,,,,0,,,79,78
835072,note_on,,,,,0,0,1,,,,0,,,74,59
835072,note_on,,,,,240,0,1,,,,0,,,67,59
835584,note_on,,,,,0,0,1,,,,0,,,55,65
835584,note_on,,,,,0,0,1,,,,0,,,50,54
835584,note_on,,,,,512,0,1,,,,0,,,47,54
835836,note_off,,,,,252,0,1,,,,0,,,67,0
835836,note_off,,,,,0,0,1,,,,0,,,79,0
835836,note_off,,,,,0,0,1,,,,0,,,74,0
835856,note_off,,,,,0,0,1,,,,0,,,55,0
835856,note_off,,,,,0,0,1,,,,0,,,50,0
835856,note_off,,,,,20,0,1,,,,0,,,47,0
836096,note_on,,,,,0,0,1,,,,0,,,72,56
836096,note_on,,,,,240,0,1,,,,0,,,64,56
836096,note_on,,,,,0,0,1,,,,0,,,76,74
836608,note_on,,,,,0,0,1,,,,0,,,48,52
836608,control_change,,,,,0,0,1,,,,0,64,0,,
836608,note_on,,,,,0,0,1,,,,0,,,55,62
836608,note_on,,,,,0,0,1,,,,0,,,52,52
836608,control_change,,,,,512,0,1,,,,0,64,0,,
836860,note_off,,,,,0,0,1,,,,0,,,72,0
836860,note_off,,,,,252,0,1,,,,0,,,64,0
836860,note_off,,,,,0,0,1,,,,0,,,76,0
836880,note_off,,,,,0,0,1,,,,0,,,52,0
836880,note_off,,,,,0,0,1,,,,0,,,55,0
836880,note_off,,,,,20,0,1,,,,0,,,48,0
837120,note_on,,,,,240,0,1,,,,0,,,62,53
837120,note_on,,,,,0,0,1,,,,0,,,67,53
837120,note_on,,,,,0,0,1,,,,0,,,74,71
837120,note_on,,,,,0,0,1,,,,0,,,71,53
837632,note_on,,,,,512,0,1,,,,0,,,43,51
837632,note_on,,,,,0,0,1,,,,0,,,55,60
837632,note_on,,,,,0,0,1,,,,0,,,53,51
837884,note_off,,,,,0,0,1,,,,0,,,71,0
837884,note_off,,,,,252,0,1,,,,0,,,62,0
837884,note_off,,,,,0,0,1,,,,0,,,67,0
837884,note_off,,,,,0,0,1,,,,0,,,74,0
837904,note_off,,,,,0,0,1,,,,0,,,55,0
837904,note_off,,,,,0,0,1,,,,0,,,53,0
837904,note_off,,,,,20,0,1,,,,0,,,43,0
838144,note_on,,,,,0,0,1,,,,0,,,72,67
838144,note_on,,,,,0,0,1,,,,0,,,67,50
838144,note_on,,,,,0,0,1,,,,0,,,64,50
838144,note_on,,,,,240,0,1,,,,0,,,60,50
838656,note_on,,,,,0,0,1,,,,0,,,55,55
838656,note_on,,,,,0,0,1,,,,0,,,48,43
838656,note_on,,,,,0,0,1,,,,0,,,52,43
838656,set_tempo,,,,,6144,1,0,,387096,,,,,,
838656,control_change,,,,,512,0,1,,,,0,64,0,,
838656,control_change,,,,,0,0,1,,,,0,64,0,,
838908,note_off,,,,,252,0,1,,,,0,,,60,0
838908,note_off,,,,,0,0,1,,,,0,,,64,0
838908,note_off,,,,,0,0,1,,,,0,,,67,0
838908,note_off,,,,,0,0,1,,,,0,,,72,0
838928,note_off,,,,,20,0,1,,,,0,,,48,0
838928,note_off,,,,,0,0,1,,,,0,,,52,0
838928,note_off,,,,,0,0,1,,,,0,,,55,0
839168,note_on,,,,,0,0,1,,,,0,,,71,51
839168,note_on,,,,,240,0,1,,,,0,,,62,51
839168,note_on,,,,,0,0,1,,,,0,,,67,51
839168,note_on,,,,,0,0,1,,,,0,,,74,70
839680,note_on,,,,,512,0,1,,,,0,,,43,45
839680,note_on,,,,,0,0,1,,,,0,,,55,57
839932,note_off,,,,,0,0,1,,,,0,,,74,0
839932,note_off,,,,,0,0,1,,,,0,,,71,0
839932,note_off,,,,,0,0,1,,,,0,,,67,0
839932,note_off,,,,,252,0,1,,,,0,,,62,0
839952,note_off,,,,,0,0,1,,,,0,,,55,0
839952,note_off,,,,,20,0,1,,,,0,,,43,0
840192,note_on,,,,,240,0,1,,,,0,,,64,53
840192,note_on,,,,,0,0,1,,,,0,,,72,53
840192,note_on,,,,,0,0,1,,,,0,,,76,72
840192,note_on,,,,,0,0,1,,,,0,,,67,53
840704,note_on,,,,,0,0,1,,,,0,,,55,59
840704,note_on,,,,,0,0,1,,,,0,,,48,47
840704,control_change,,,,,512,0,1,,,,0,64,0,,
840704,control_change,,,,,0,0,1,,,,0,64,0,,
840956,note_off,,,,,0,0,1,,,,0,,,67,0
840956,note_off,,,,,252,0,1,,,,0,,,64,0
840956,note_off,,,,,0,0,1,,,,0,,,72,0
840956,note_off,,,,,0,0,1,,,,0,,,76,0
840976,note_off,,,,,0,0,1,,,,0,,,55,0
840976,note_off,,,,,20,0,1,,,,0,,,48,0
841216,note_on,,,,,240,0,1,,,,0,,,67,55
841216,note_on,,,,,0,0,1,,,,0,,,71,55
841216,note_on,,,,,0,0,1,,,,0,,,74,55
841216,note_on,,,,,0,0,1,,,,0,,,79,74
841216,set_tempo,,,,,2560,1,0,,375000,,,,,,
841728,note_on,,,,,512,0,1,,,,0,,,43,49
841728,note_on,,,,,0,0,1,,,,0,,,55,61
841980,note_off,,,,,0,0,1,,,,0,,,74,0
841980,note_off,,,,,252,0,1,,,,0,,,67,0
841980,note_off,,,,,0,0,1,,,,0,,,71,0
841980,note_off,,,,,0,0,1,,,,0,,,79,0
842000,note_off,,,,,0,0,1,,,,0,,,55,0
842000,note_off,,,,,20,0,1,,,,0,,,43,0
842240,note_on,,,,,0,0,1,,,,0,,,79,78
842240,note_on,,,,,0,0,1,,,,0,,,76,59
842240,note_on,,,,,0,0,1,,,,0,,,72,59
842240,note_on,,,,,240,0,1,,,,0,,,67,59
842752,note_on,,,,,0,0,1,,,,0,,,48,51
842752,note_on,,,,,0,0,1,,,,0,,,55,63
842752,control_change,,,,,512,0,1,,,,0,64,0,,
842752,control_change,,,,,0,0,1,,,,0,64,0,,
843004,note_off,,,,,252,0,1,,,,0,,,67,0
843004,note_off,,,,,0,0,1,,,,0,,,76,0
843004,note_off,,,,,0,0,1,,,,0,,,79,0
843004,note_off,,,,,0,0,1,,,,0,,,72,0
843024,note_off,,,,,20,0,1,,,,0,,,48,0
843024,note_off,,,,,0,0,1,,,,0,,,55,0
843264,note_on,,,,,0,0,1,,,,0,,,79,62
843264,note_on,,,,,240,0,1,,,,0,,,71,62
843264,note_on,,,,,0,0,1,,,,0,,,74,62
843264,note_on,,,,,0,0,1,,,,0,,,83,82
843776,note_on,,,,,0,0,1,,,,0,,,43,52
843776,note_on,,,,,512,0,1,,,,0,,,41,64
844028,note_off,,,,,0,0,1,,,,0,,,83,0
844028,note_off,,,,,0,0,1,,,,0,,,79,0
844028,note_off,,,,,0,0,1,,,,0,,,74,0
844028,note_off,,,,,252,0,1,,,,0,,,71,0
844288,note_off,,,,,0,0,1,,,,0,,,41,0
844288,note_on,,,,,0,0,1,,,,0,,,84,86
844288,note_off,,,,,0,0,1,,,,0,,,43,0
844288,note_on,,,,,260,0,1,,,,0,,,72,66
844288,note_on,,,,,0,0,1,,,,0,,,79,66
844800,control_change,,,,,0,0,1,,,,0,64,0,,
844800,control_change,,,,,512,0,1,,,,0,64,0,,
844800,note_on,,,,,0,0,1,,,,0,,,43,54
844800,note_on,,,,,0,0,1,,,,0,,,40,66
845052,note_off,,,,,0,0,1,,,,0,,,84,0
845052,note_off,,,,,252,0,1,,,,0,,,72,0
845052,note_off,,,,,0,0,1,,,,0,,,79,0
845312,note_on,,,,,260,0,1,,,,0,,,74,70
845312,note_on,,,,,0,0,1,,,,0,,,83,85
845312,note_off,,,,,0,0,1,,,,0,,,40,0
845312,note_on,,,,,0,0,1,,,,0,,,86,75
845312,note_off,,,,,0,0,1,,,,0,,,43,0
845824,note_on,,,,,0,0,1,,,,0,,,43,56
845824,set_tempo,,,,,4608,1,0,,400000,,,,,,
845824,note_on,,,,,512,0,1,,,,0,,,38,68
846076,note_off,,,,,252,0,1,,,,0,,,74,0
846076,note_off,,,,,0,0,1,,,,0,,,86,0
846076,note_off,,,,,0,0,1,,,,0,,,83,0
846336,note_on,,,,,0,0,1,,,,0,,,88,95
846336,note_off,,,,,0,0,1,,,,0,,,38,0
846336,note_off,,,,,0,0,1,,,,0,,,43,0
846336,note_on,,,,,0,0,1,,,,0,,,84,74
846336,set_tempo,,,,,512,1,0,,461538,,,,,,
846336,note_on,,,,,260,0,1,,,,0,,,76,74
846848,set_tempo,,,,,512,1,0,,413793,,,,,,
846848,control_change,,,,,512,0,1,,,,0,64,0,,
846848,control_change,,,,,0,0,1,,,,0,64,0,,
846848,note_on,,,,,0,0,1,,,,0,,,36,70
846848,note_on,,,,,0,0,1,,,,0,,,43,58
847360,note_off,,,,,512,0,1,,,,0,,,76,0
847360,note_off,,,,,0,0,1,,,,0,,,84,0
847360,note_off,,,,,0,0,1,,,,0,,,88,0
847360,note_off,,,,,0,0,1,,,,0,,,36,0
847360,note_off,,,,,0,0,1,,,,0,,,43,0
848384,note_on,,,,,1024,0,1,,,,0,,,67,72
848384,note_on,,,,,0,0,1,,,,0,,,79,87
848896,note_on,,,,,0,0,1,,,,0,,,43,76
848896,control_change,,,,,0,0,1,,,,0,64,0,,
848896,note_on,,,,,0,0,1,,,,0,,,31,64
848896,control_change,,,,,512,0,1,,,,0,64,0,,
849408,note_off,,,,,512,0,1,,,,0,,,67,0
849408,note_off,,,,,0,0,1,,,,0,,,79,0
849920,note_off,,,,,512,0,1,,,,0,,,31,0
849920,note_off,,,,,0,0,1,,,,0,,,43,0
850432,note_on,,,,,0,0,1,,,,0,,,60,79
850432,note_on,,,,,512,0,1,,,,0,,,52,64
850432,note_on,,,,,0,0,1,,,,0,,,55,64
850944,control_change,,,,,512,0,1,,,,0,64,0,,
850944,control_change,,,,,0,0,1,,,,0,64,0,,
850944,note_on,,,,,0,0,1,,,,0,,,36,64
850944,note_on,,,,,0,0,1,,,,0,,,48,76
851456,note_off,,,,,0,0,1,,,,0,,,60,0
851456,note_off,,,,,0,0,1,,,,0,,,55,0
851456,note_off,,,,,512,0,1,,,,0,,,52,0
851968,note_off,,,,,0,0,1,,,,0,,,48,0
851968,note_off,,,,,512,0,1,,,,0,,,36,0
852992,control_change,,,,,0,0,1,,,,0,64,0,,
852992,control_change,,,,,1024,0,1,,,,0,64,0,,
852992,set_tempo,,,,,6144,1,0,,270270,,,,,,
855040,control_change,,,,,0,0,1,,,,0,64,0,,
855040,control_change,,,,,2048,0,1,,,,0,64,0,,
855041,end_of_track,,,,,2049,1,0,,,,,,,,
855041,end_of_track,,,,,1,1,1,,,,,,,,
