tick,type,numerator,denominator,clocks_per_click,notated_32nd_notes_per_beat,time,meta,track,key,tempo,program,channel,control,value,note,velocity
0,time_signature,1,8,12,8,0,1,0,,,,,,,,
0,control_change,,,,,0,0,1,,,,0,64,0,,
0,control_change,,,,,0,0,1,,,,0,64,0,,
0,program_change,,,,,0,0,1,,,1,0,,,,
0,track_name,,,,,0,1,1,,,,,,,,
0,set_tempo,,,,,0,1,0,,600000,,,,,,
0,key_signature,,,,,0,1,0,Eb,,,,,,,
512,note_on,,,,,0,0,1,,,,0,,,70,38
512,control_change,,,,,0,0,1,,,,0,64,0,,
512,control_change,,,,,512,0,1,,,,0,64,0,,
512,set_tempo,,,,,512,1,0,,923076,,,,,,
748,control_change,,,,,236,0,1,,,,0,64,127,,
1024,set_tempo,,,,,0,1,0,,857142,,,,,,
1024,note_off,,,,,0,0,1,,,,0,,,70,0
1024,note_on,,,,,0,0,1,,,,0,,,67,22
1024,note_on,,,,,0,0,1,,,,0,,,70,40
1024,note_on,,,,,0,0,1,,,,0,,,51,18
1024,control_change,,,,,276,0,1,,,,0,64,0,,
1024,time_signature,6,8,36,8,512,1,0,,,,,,,,
1024,control_change,,,,,0,0,1,,,,0,64,127,,
1246,control_change,,,,,222,0,1,,,,0,64,0,,
1431,control_change,,,,,185,0,1,,,,0,64,127,,
1536,set_tempo,,,,,512,1,0,,625000,,,,,,
1536,note_on,,,,,105,0,1,,,,0,,,58,20
2048,note_on,,,,,0,0,1,,,,0,,,63,20
2048,note_off,,,,,512,0,1,,,,0,,,51,0
2048,note_off,,,,,0,0,1,,,,0,,,58,0
2560,set_tempo,,,,,1024,1,0,,666666,,,,,,
2560,note_off,,,,,512,0,1,,,,0,,,67,0
2560,note_off,,,,,0,0,1,,,,0,,,70,0
2560,note_on,,,,,0,0,1,,,,0,,,51,18
2560,note_on,,,,,0,0,1,,,,0,,,70,41
2560,note_on,,,,,0,0,1,,,,0,,,68,23
2560,note_off,,,,,0,0,1,,,,0,,,63,0
2630,control_change,,,,,70,0,1,,,,0,64,0,,
2944,control_change,,,,,314,0,1,,,,0,64,127,,
3072,note_off,,,,,128,0,1,,,,0,,,70,0
3072,note_on,,,,,0,0,1,,,,0,,,75,46
3072,note_on,,,,,0,0,1,,,,0,,,58,20
3072,set_tempo,,,,,512,1,0,,705882,,,,,,
3584,note_on,,,,,0,0,1,,,,0,,,65,20
3584,note_on,,,,,0,0,1,,,,0,,,74,41
3584,set_tempo,,,,,512,1,0,,750000,,,,,,
3584,note_off,,,,,0,0,1,,,,0,,,58,0
3584,note_off,,,,,512,0,1,,,,0,,,75,0
3677,control_change,,,,,93,0,1,,,,0,64,0,,
3956,control_change,,,,,279,0,1,,,,0,64,127,,
4096,note_off,,,,,0,0,1,,,,0,,,51,0
4096,note_off,,,,,0,0,1,,,,0,,,68,0
4096,note_on,,,,,0,0,1,,,,0,,,67,21
4096,note_on,,,,,0,0,1,,,,0,,,75,43
4096,note_on,,,,,0,0,1,,,,0,,,51,15
4096,control_change,,,,,0,0,1,,,,0,64,127,,
4096,note_off,,,,,0,0,1,,,,0,,,74,0
4096,note_off,,,,,0,0,1,,,,0,,,65,0
4096,control_change,,,,,140,0,1,,,,0,64,0,,
4096,set_tempo,,,,,512,1,0,,705882,,,,,,
4281,control_change,,,,,185,0,1,,,,0,64,0,,
4577,control_change,,,,,296,0,1,,,,0,64,127,,
4608,set_tempo,,,,,512,1,0,,600000,,,,,,
4608,note_on,,,,,31,0,1,,,,0,,,55,18
5120,note_on,,,,,512,0,1,,,,0,,,58,21
5632,note_off,,,,,512,0,1,,,,0,,,75,0
5632,set_tempo,,,,,1024,1,0,,750000,,,,,,
5632,note_on,,,,,0,0,1,,,,0,,,70,29
5632,note_on,,,,,0,0,1,,,,0,,,63,24
6144,note_off,,,,,512,0,1,,,,0,,,67,0
6144,note_off,,,,,0,0,1,,,,0,,,70,0
6144,note_off,,,,,0,0,1,,,,0,,,55,0
6144,note_off,,,,,0,0,1,,,,0,,,63,0
6144,note_on,,,,,0,0,1,,,,0,,,55,20
6144,set_tempo,,,,,512,1,0,,600000,,,,,,
6540,control_change,,,,,396,0,1,,,,0,64,0,,
6656,note_on,,,,,116,0,1,,,,0,,,67,23
6656,note_on,,,,,0,0,1,,,,0,,,70,41
6656,note_on,,,,,0,0,1,,,,0,,,58,16
6656,note_off,,,,,0,0,1,,,,0,,,55,0
6656,set_tempo,,,,,512,1,0,,750000,,,,,,
6656,note_off,,,,,0,0,1,,,,0,,,58,0
6924,control_change,,,,,268,0,1,,,,0,64,127,,
7168,control_change,,,,,0,0,1,,,,0,64,127,,
7168,note_off,,,,,0,0,1,,,,0,,,67,0
7168,note_off,,,,,0,0,1,,,,0,,,70,0
7168,note_off,,,,,0,0,1,,,,0,,,51,0
7168,note_on,,,,,0,0,1,,,,0,,,63,21
7168,note_on,,,,,0,0,1,,,,0,,,67,39
7168,control_change,,,,,244,0,1,,,,0,64,0,,
7168,note_off,,,,,0,0,1,,,,0,,,58,0
7168,set_tempo,,,,,512,1,0,,705882,,,,,,
7168,note_on,,,,,0,0,1,,,,0,,,51,21
7680,set_tempo,,,,,512,1,0,,600000,,,,,,
7680,note_on,,,,,512,0,1,,,,0,,,55,23
7863,control_change,,,,,183,0,1,,,,0,64,0,,
8076,control_change,,,,,213,0,1,,,,0,64,127,,
8192,note_on,,,,,0,0,1,,,,0,,,65,20
8192,note_on,,,,,0,0,1,,,,0,,,68,38
8192,note_on,,,,,0,0,1,,,,0,,,56,25
8192,note_off,,,,,0,0,1,,,,0,,,55,0
8192,note_off,,,,,116,0,1,,,,0,,,63,0
8192,note_off,,,,,0,0,1,,,,0,,,67,0
8192,note_off,,,,,0,0,1,,,,0,,,51,0
8448,note_off,,,,,256,0,1,,,,0,,,68,0
8448,note_on,,,,,0,0,1,,,,0,,,68,38
8448,set_tempo,,,,,768,1,0,,1333333,,,,,,
8533,note_on,,,,,0,0,1,,,,0,,,70,38
8533,note_off,,,,,85,0,1,,,,0,,,68,0
8619,note_off,,,,,86,0,1,,,,0,,,70,0
8619,note_on,,,,,0,0,1,,,,0,,,72,38
8704,note_off,,,,,85,0,1,,,,0,,,65,0
8704,set_tempo,,,,,256,1,0,,750000,,,,,,
8704,note_off,,,,,0,0,1,,,,0,,,56,0
8704,note_off,,,,,0,0,1,,,,0,,,72,0
8704,note_on,,,,,0,0,1,,,,0,,,67,27
8704,note_on,,,,,0,0,1,,,,0,,,70,46
8704,note_on,,,,,0,0,1,,,,0,,,58,27
8717,control_change,,,,,13,0,1,,,,0,64,0,,
8904,control_change,,,,,187,0,1,,,,0,64,127,,
9216,note_on,,,,,0,0,1,,,,0,,,56,23
9216,note_off,,,,,0,0,1,,,,0,,,70,0
9216,note_off,,,,,0,0,1,,,,0,,,58,0
9216,note_on,,,,,0,0,1,,,,0,,,65,25
9216,note_on,,,,,0,0,1,,,,0,,,68,43
9216,set_tempo,,,,,512,1,0,,666666,,,,,,
9216,note_off,,,,,312,0,1,,,,0,,,67,0
9332,control_change,,,,,116,0,1,,,,0,64,0,,
9545,control_change,,,,,213,0,1,,,,0,64,127,,
9728,set_tempo,,,,,512,1,0,,750000,,,,,,
9728,note_on,,,,,0,0,1,,,,0,,,55,20
9728,note_on,,,,,0,0,1,,,,0,,,67,40
9728,note_on,,,,,0,0,1,,,,0,,,63,23
9728,note_off,,,,,0,0,1,,,,0,,,56,0
9728,note_off,,,,,0,0,1,,,,0,,,68,0
9728,note_off,,,,,183,0,1,,,,0,,,65,0
9839,control_change,,,,,111,0,1,,,,0,64,0,,
10000,control_change,,,,,161,0,1,,,,0,64,127,,
10240,note_off,,,,,0,0,1,,,,0,,,67,0
10240,control_change,,,,,240,0,1,,,,0,64,0,,
10240,note_off,,,,,0,0,1,,,,0,,,55,0
10240,note_on,,,,,0,0,1,,,,0,,,63,21
10240,note_on,,,,,0,0,1,,,,0,,,67,39
10240,note_on,,,,,0,0,1,,,,0,,,46,17
10240,note_off,,,,,0,0,1,,,,0,,,63,0
10240,control_change,,,,,0,0,1,,,,0,64,127,,
10240,set_tempo,,,,,512,1,0,,750000,,,,,,
10752,set_tempo,,,,,512,1,0,,600000,,,,,,
10752,note_on,,,,,512,0,1,,,,0,,,55,22
11264,note_on,,,,,512,0,1,,,,0,,,56,26
11304,note_off,,,,,40,0,1,,,,0,,,55,0
11743,control_change,,,,,439,0,1,,,,0,64,0,,
11776,set_tempo,,,,,1024,1,0,,800000,,,,,,
11776,note_on,,,,,0,0,1,,,,0,,,62,16
11776,note_off,,,,,0,0,1,,,,0,,,67,0
11776,note_on,,,,,0,0,1,,,,0,,,65,31
11776,note_on,,,,,0,0,1,,,,0,,,58,29
11776,note_off,,,,,33,0,1,,,,0,,,63,0
11816,note_off,,,,,40,0,1,,,,0,,,56,0
12037,control_change,,,,,221,0,1,,,,0,64,127,,
12288,note_on,,,,,0,0,1,,,,0,,,63,20
12288,note_on,,,,,0,0,1,,,,0,,,67,37
12288,note_on,,,,,0,0,1,,,,0,,,56,24
12288,note_off,,,,,0,0,1,,,,0,,,65,0
12288,note_off,,,,,251,0,1,,,,0,,,62,0
12288,set_tempo,,,,,512,1,0,,666666,,,,,,
12328,note_off,,,,,40,0,1,,,,0,,,58,0
12397,control_change,,,,,69,0,1,,,,0,64,0,,
12544,note_on,,,,,147,0,1,,,,0,,,55,21
12584,note_off,,,,,40,0,1,,,,0,,,56,0
12658,control_change,,,,,74,0,1,,,,0,64,127,,
12800,set_tempo,,,,,512,1,0,,750000,,,,,,
12800,note_off,,,,,142,0,1,,,,0,,,63,0
12800,note_off,,,,,0,0,1,,,,0,,,67,0
12800,note_on,,,,,0,0,1,,,,0,,,65,26
12800,note_on,,,,,0,0,1,,,,0,,,68,44
12800,note_on,,,,,0,0,1,,,,0,,,53,19
12840,note_off,,,,,40,0,1,,,,0,,,55,0
12920,control_change,,,,,80,0,1,,,,0,64,0,,
13083,control_change,,,,,163,0,1,,,,0,64,127,,
13312,control_change,,,,,229,0,1,,,,0,64,0,,
13312,control_change,,,,,0,0,1,,,,0,64,127,,
13312,note_off,,,,,0,0,1,,,,0,,,65,0
13312,note_off,,,,,0,0,1,,,,0,,,68,0
13312,note_off,,,,,0,0,1,,,,0,,,46,0
13312,note_on,,,,,0,0,1,,,,0,,,67,26
13312,note_on,,,,,0,0,1,,,,0,,,70,44
13312,note_on,,,,,0,0,1,,,,0,,,51,18
13352,note_off,,,,,40,0,1,,,,0,,,53,0
13406,control_change,,,,,54,0,1,,,,0,64,0,,
13688,control_change,,,,,282,0,1,,,,0,64,127,,
13824,note_on,,,,,136,0,1,,,,0,,,58,20
13824,set_tempo,,,,,1024,1,0,,600000,,,,,,
14336,note_on,,,,,0,0,1,,,,0,,,63,20
14336,note_off,,,,,0,0,1,,,,0,,,58,0
14336,note_off,,,,,512,0,1,,,,0,,,51,0
14828,note_off,,,,,492,0,1,,,,0,,,63,0
14848,note_on,,,,,0,0,1,,,,0,,,55,25
14848,note_on,,,,,0,0,1,,,,0,,,70,46
14848,note_on,,,,,0,0,1,,,,0,,,63,28
14848,note_off,,,,,0,0,1,,,,0,,,70,0
14848,note_off,,,,,20,0,1,,,,0,,,67,0
14848,set_tempo,,,,,1024,1,0,,750000,,,,,,
14911,control_change,,,,,63,0,1,,,,0,64,0,,
15224,control_change,,,,,313,0,1,,,,0,64,127,,
15360,note_on,,,,,0,0,1,,,,0,,,58,27
15360,note_on,,,,,0,0,1,,,,0,,,75,54
15360,note_off,,,,,136,0,1,,,,0,,,70,0
15360,set_tempo,,,,,512,1,0,,666666,,,,,,
15872,note_on,,,,,0,0,1,,,,0,,,64,32
15872,note_off,,,,,0,0,1,,,,0,,,75,0
15872,note_off,,,,,512,0,1,,,,0,,,63,0
15872,note_on,,,,,0,0,1,,,,0,,,70,32
15872,note_off,,,,,0,0,1,,,,0,,,58,0
15872,set_tempo,,,,,512,1,0,,800000,,,,,,
15872,note_on,,,,,0,0,1,,,,0,,,74,51
15872,note_on,,,,,0,0,1,,,,0,,,62,30
15945,control_change,,,,,73,0,1,,,,0,64,0,,
16102,control_change,,,,,157,0,1,,,,0,64,127,,
16384,control_change,,,,,0,0,1,,,,0,64,127,,
16384,note_off,,,,,0,0,1,,,,0,,,64,0
16384,note_off,,,,,0,0,1,,,,0,,,70,0
16384,note_off,,,,,0,0,1,,,,0,,,74,0
16384,note_off,,,,,0,0,1,,,,0,,,55,0
16384,note_on,,,,,0,0,1,,,,0,,,41,24
16384,note_on,,,,,0,0,1,,,,0,,,74,51
16384,note_on,,,,,0,0,1,,,,0,,,70,32
16384,note_off,,,,,0,0,1,,,,0,,,62,0
16384,note_on,,,,,0,0,1,,,,0,,,65,32
16384,control_change,,,,,282,0,1,,,,0,64,0,,
16384,set_tempo,,,,,512,1,0,,750000,,,,,,
16591,control_change,,,,,207,0,1,,,,0,64,0,,
16764,control_change,,,,,173,0,1,,,,0,64,127,,
16896,set_tempo,,,,,512,1,0,,600000,,,,,,
16896,note_on,,,,,132,0,1,,,,0,,,53,21
17408,note_on,,,,,512,0,1,,,,0,,,57,25
17920,note_on,,,,,0,0,1,,,,0,,,69,22
17920,note_off,,,,,512,0,1,,,,0,,,70,0
17920,note_on,,,,,0,0,1,,,,0,,,63,29
17920,note_on,,,,,0,0,1,,,,0,,,72,44
17920,note_off,,,,,0,0,1,,,,0,,,74,0
17920,set_tempo,,,,,1024,1,0,,705882,,,,,,
17972,control_change,,,,,52,0,1,,,,0,64,0,,
18282,control_change,,,,,310,0,1,,,,0,64,127,,
18432,note_off,,,,,0,0,1,,,,0,,,69,0
18432,note_off,,,,,0,0,1,,,,0,,,72,0
18432,note_off,,,,,0,0,1,,,,0,,,57,0
18432,note_off,,,,,0,0,1,,,,0,,,63,0
18432,note_on,,,,,0,0,1,,,,0,,,57,22
18432,note_off,,,,,150,0,1,,,,0,,,65,0
18432,note_off,,,,,0,0,1,,,,0,,,41,0
18432,set_tempo,,,,,512,1,0,,600000,,,,,,
18766,control_change,,,,,334,0,1,,,,0,64,0,,
18944,note_off,,,,,0,0,1,,,,0,,,57,0
18944,set_tempo,,,,,512,1,0,,666666,,,,,,
18944,note_on,,,,,0,0,1,,,,0,,,53,15
18944,note_on,,,,,0,0,1,,,,0,,,72,53
18944,note_on,,,,,0,0,1,,,,0,,,69,37
18944,note_on,,,,,178,0,1,,,,0,,,65,37
18944,note_off,,,,,0,0,1,,,,0,,,53,0
19145,control_change,,,,,201,0,1,,,,0,64,127,,
19456,note_on,,,,,0,0,1,,,,0,,,65,41
19456,note_off,,,,,0,0,1,,,,0,,,65,0
19456,note_off,,,,,0,0,1,,,,0,,,72,0
19456,note_off,,,,,0,0,1,,,,0,,,53,0
19456,note_on,,,,,0,0,1,,,,0,,,70,41
19456,note_on,,,,,0,0,1,,,,0,,,74,57
19456,note_on,,,,,0,0,1,,,,0,,,46,34
19456,control_change,,,,,311,0,1,,,,0,64,0,,
19456,control_change,,,,,0,0,1,,,,0,64,127,,
19456,note_off,,,,,0,0,1,,,,0,,,69,0
19456,set_tempo,,,,,512,1,0,,750000,,,,,,
19663,control_change,,,,,207,0,1,,,,0,64,0,,
19905,control_change,,,,,242,0,1,,,,0,64,127,,
19968,note_on,,,,,0,0,1,,,,0,,,58,25
19968,note_on,,,,,63,0,1,,,,0,,,53,25
19968,set_tempo,,,,,512,1,0,,600000,,,,,,
20480,set_tempo,,,,,512,1,0,,625000,,,,,,
20480,note_off,,,,,0,0,1,,,,0,,,58,0
20480,note_off,,,,,512,0,1,,,,0,,,46,0
20480,note_off,,,,,0,0,1,,,,0,,,53,0
20480,note_on,,,,,0,0,1,,,,0,,,62,25
20975,control_change,,,,,495,0,1,,,,0,64,0,,
20992,note_off,,,,,17,0,1,,,,0,,,65,0
20992,note_off,,,,,0,0,1,,,,0,,,74,0
20992,note_off,,,,,0,0,1,,,,0,,,62,0
20992,note_on,,,,,0,0,1,,,,0,,,63,37
20992,note_on,,,,,0,0,1,,,,0,,,70,37
20992,note_off,,,,,0,0,1,,,,0,,,70,0
20992,note_on,,,,,0,0,1,,,,0,,,43,34
20992,set_tempo,,,,,512,1,0,,705882,,,,,,
20992,note_on,,,,,0,0,1,,,,0,,,75,61
21389,control_change,,,,,397,0,1,,,,0,64,127,,
21504,set_tempo,,,,,512,1,0,,600000,,,,,,
21504,note_on,,,,,115,0,1,,,,0,,,55,25
22016,note_on,,,,,0,0,1,,,,0,,,58,25
22016,note_off,,,,,0,0,1,,,,0,,,55,0
22016,note_off,,,,,512,0,1,,,,0,,,43,0
22528,note_off,,,,,0,0,1,,,,0,,,58,0
22528,note_on,,,,,0,0,1,,,,0,,,74,53
22528,note_on,,,,,0,0,1,,,,0,,,70,33
22528,note_on,,,,,0,0,1,,,,0,,,65,33
22528,note_off,,,,,0,0,1,,,,0,,,75,0
22528,note_off,,,,,0,0,1,,,,0,,,70,0
22528,note_off,,,,,0,0,1,,,,0,,,63,0
22528,note_on,,,,,0,0,1,,,,0,,,41,35
22528,control_change,,,,,512,0,1,,,,0,64,0,,
22528,set_tempo,,,,,1024,1,0,,705882,,,,,,
22528,control_change,,,,,0,0,1,,,,0,64,127,,
22735,control_change,,,,,207,0,1,,,,0,64,0,,
22942,control_change,,,,,207,0,1,,,,0,64,127,,
23040,set_tempo,,,,,512,1,0,,600000,,,,,,
23040,note_on,,,,,98,0,1,,,,0,,,53,26
23552,note_on,,,,,0,0,1,,,,0,,,58,26
23552,note_off,,,,,512,0,1,,,,0,,,41,0
23552,note_off,,,,,0,0,1,,,,0,,,53,0
23936,note_off,,,,,384,0,1,,,,0,,,74,0
23936,note_on,,,,,0,0,1,,,,0,,,74,40
23936,set_tempo,,,,,896,1,0,,800000,,,,,,
24064,set_tempo,,,,,128,1,0,,750000,,,,,,
24064,note_off,,,,,128,0,1,,,,0,,,65,0
24064,note_off,,,,,0,0,1,,,,0,,,70,0
24064,note_off,,,,,0,0,1,,,,0,,,74,0
24064,note_off,,,,,0,0,1,,,,0,,,58,0
24064,note_on,,,,,0,0,1,,,,0,,,72,52
24064,note_on,,,,,0,0,1,,,,0,,,63,32
24064,note_on,,,,,0,0,1,,,,0,,,69,32
24064,note_on,,,,,0,0,1,,,,0,,,41,31
24116,control_change,,,,,52,0,1,,,,0,64,0,,
24357,control_change,,,,,241,0,1,,,,0,64,127,,
24576,note_on,,,,,0,0,1,,,,0,,,70,46
24576,note_off,,,,,219,0,1,,,,0,,,72,0
24576,set_tempo,,,,,512,1,0,,666666,,,,,,
24576,note_on,,,,,0,0,1,,,,0,,,53,19
25088,note_on,,,,,0,0,1,,,,0,,,57,19
25088,note_on,,,,,0,0,1,,,,0,,,72,44
25088,note_off,,,,,512,0,1,,,,0,,,70,0
25088,set_tempo,,,,,512,1,0,,800000,,,,,,
25088,note_off,,,,,0,0,1,,,,0,,,53,0
25186,control_change,,,,,98,0,1,,,,0,64,0,,
25427,control_change,,,,,241,0,1,,,,0,64,127,,
25600,set_tempo,,,,,512,1,0,,923076,,,,,,
25600,note_on,,,,,0,0,1,,,,0,,,34,22
25600,note_on,,,,,0,0,1,,,,0,,,72,48
25600,note_on,,,,,0,0,1,,,,0,,,69,32
25600,note_on,,,,,0,0,1,,,,0,,,63,32
25600,note_off,,,,,0,0,1,,,,0,,,69,0
25600,note_off,,,,,0,0,1,,,,0,,,63,0
25600,note_off,,,,,0,0,1,,,,0,,,72,0
25600,control_change,,,,,0,0,1,,,,0,64,127,,
25600,control_change,,,,,173,0,1,,,,0,64,0,,
25600,note_off,,,,,0,0,1,,,,0,,,57,0
25600,note_off,,,,,0,0,1,,,,0,,,41,0
25773,control_change,,,,,173,0,1,,,,0,64,0,,
25980,control_change,,,,,207,0,1,,,,0,64,127,,
26112,note_on,,,,,132,0,1,,,,0,,,46,19
26112,set_tempo,,,,,512,1,0,,800000,,,,,,
26624,note_on,,,,,0,0,1,,,,0,,,53,15
26624,set_tempo,,,,,512,1,0,,857142,,,,,,
26624,note_off,,,,,512,0,1,,,,0,,,34,0
27119,control_change,,,,,495,0,1,,,,0,64,0,,
27136,note_on,,,,,0,0,1,,,,0,,,70,28
27136,note_on,,,,,0,0,1,,,,0,,,62,12
27136,note_off,,,,,0,0,1,,,,0,,,69,0
27136,note_off,,,,,17,0,1,,,,0,,,63,0
27136,note_off,,,,,0,0,1,,,,0,,,72,0
27136,note_on,,,,,0,0,1,,,,0,,,58,10
27498,control_change,,,,,362,0,1,,,,0,64,127,,
28160,note_off,,,,,662,0,1,,,,0,,,62,0
28160,set_tempo,,,,,1536,1,0,,857142,,,,,,
28160,note_off,,,,,0,0,1,,,,0,,,70,0
28160,note_off,,,,,0,0,1,,,,0,,,46,0
28160,note_off,,,,,0,0,1,,,,0,,,53,0
28160,note_off,,,,,0,0,1,,,,0,,,58,0
28160,note_on,,,,,0,0,1,,,,0,,,70,40
28672,note_off,,,,,0,0,1,,,,0,,,70,0
28672,note_on,,,,,0,0,1,,,,0,,,67,22
28672,note_on,,,,,0,0,1,,,,0,,,70,40
28672,note_on,,,,,0,0,1,,,,0,,,51,18
28672,control_change,,,,,512,0,1,,,,0,64,0,,
28672,control_change,,,,,0,0,1,,,,0,64,127,,
28672,set_tempo,,,,,512,1,0,,857142,,,,,,
28894,control_change,,,,,222,0,1,,,,0,64,0,,
29079,control_change,,,,,185,0,1,,,,0,64,127,,
29184,note_on,,,,,105,0,1,,,,0,,,58,20
29184,set_tempo,,,,,512,1,0,,625000,,,,,,
29696,note_on,,,,,0,0,1,,,,0,,,63,20
29696,note_off,,,,,512,0,1,,,,0,,,51,0
29696,note_off,,,,,0,0,1,,,,0,,,58,0
30208,set_tempo,,,,,1024,1,0,,666666,,,,,,
30208,note_on,,,,,0,0,1,,,,0,,,51,18
30208,note_off,,,,,512,0,1,,,,0,,,67,0
30208,note_off,,,,,0,0,1,,,,0,,,70,0
30208,note_off,,,,,0,0,1,,,,0,,,63,0
30208,note_on,,,,,0,0,1,,,,0,,,68,23
30208,note_on,,,,,0,0,1,,,,0,,,70,41
30278,control_change,,,,,70,0,1,,,,0,64,0,,
30592,control_change,,,,,314,0,1,,,,0,64,127,,
30720,set_tempo,,,,,512,1,0,,705882,,,,,,
30720,note_off,,,,,128,0,1,,,,0,,,70,0
30720,note_on,,,,,0,0,1,,,,0,,,75,46
30720,note_on,,,,,0,0,1,,,,0,,,58,20
31232,set_tempo,,,,,512,1,0,,750000,,,,,,
31232,note_off,,,,,0,0,1,,,,0,,,58,0
31232,note_on,,,,,0,0,1,,,,0,,,65,20
31232,note_on,,,,,0,0,1,,,,0,,,74,41
31232,note_off,,,,,512,0,1,,,,0,,,75,0
31325,control_change,,,,,93,0,1,,,,0,64,0,,
31604,control_change,,,,,279,0,1,,,,0,64,127,,
31744,set_tempo,,,,,512,1,0,,705882,,,,,,
31744,note_off,,,,,0,0,1,,,,0,,,65,0
31744,note_off,,,,,0,0,1,,,,0,,,68,0
31744,control_change,,,,,140,0,1,,,,0,64,0,,
31744,control_change,,,,,0,0,1,,,,0,64,127,,
31744,note_off,,,,,0,0,1,,,,0,,,74,0
31744,note_off,,,,,0,0,1,,,,0,,,51,0
31744,note_on,,,,,0,0,1,,,,0,,,67,21
31744,note_on,,,,,0,0,1,,,,0,,,75,43
31744,note_on,,,,,0,0,1,,,,0,,,51,15
31929,control_change,,,,,185,0,1,,,,0,64,0,,
32225,control_change,,,,,296,0,1,,,,0,64,127,,
32256,set_tempo,,,,,512,1,0,,600000,,,,,,
32256,note_on,,,,,31,0,1,,,,0,,,55,18
32768,note_on,,,,,512,0,1,,,,0,,,58,21
33280,note_off,,,,,512,0,1,,,,0,,,75,0
33280,note_on,,,,,0,0,1,,,,0,,,70,29
33280,note_on,,,,,0,0,1,,,,0,,,63,24
33280,set_tempo,,,,,1024,1,0,,750000,,,,,,
33792,note_on,,,,,0,0,1,,,,0,,,55,20
33792,note_off,,,,,512,0,1,,,,0,,,67,0
33792,set_tempo,,,,,512,1,0,,600000,,,,,,
33792,note_off,,,,,0,0,1,,,,0,,,70,0
33792,note_off,,,,,0,0,1,,,,0,,,55,0
33792,note_off,,,,,0,0,1,,,,0,,,63,0
34188,control_change,,,,,396,0,1,,,,0,64,0,,
34304,note_off,,,,,0,0,1,,,,0,,,55,0
34304,note_on,,,,,116,0,1,,,,0,,,67,23
34304,set_tempo,,,,,512,1,0,,750000,,,,,,
34304,note_on,,,,,0,0,1,,,,0,,,70,41
34304,note_off,,,,,0,0,1,,,,0,,,58,0
34304,note_on,,,,,0,0,1,,,,0,,,58,16
34572,control_change,,,,,268,0,1,,,,0,64,127,,
34816,set_tempo,,,,,512,1,0,,705882,,,,,,
34816,note_on,,,,,0,0,1,,,,0,,,51,21
34816,note_on,,,,,0,0,1,,,,0,,,63,21
34816,control_change,,,,,244,0,1,,,,0,64,0,,
34816,control_change,,,,,0,0,1,,,,0,64,127,,
34816,note_off,,,,,0,0,1,,,,0,,,67,0
34816,note_off,,,,,0,0,1,,,,0,,,70,0
34816,note_off,,,,,0,0,1,,,,0,,,51,0
34816,note_on,,,,,0,0,1,,,,0,,,67,39
34816,note_off,,,,,0,0,1,,,,0,,,58,0
35328,note_on,,,,,512,0,1,,,,0,,,55,23
35328,set_tempo,,,,,512,1,0,,600000,,,,,,
35511,control_change,,,,,183,0,1,,,,0,64,0,,
35724,control_change,,,,,213,0,1,,,,0,64,127,,
35840,note_off,,,,,0,0,1,,,,0,,,51,0
35840,note_on,,,,,0,0,1,,,,0,,,65,20
35840,note_off,,,,,116,0,1,,,,0,,,63,0
35840,note_off,,,,,0,0,1,,,,0,,,67,0
35840,note_off,,,,,0,0,1,,,,0,,,55,0
35840,note_on,,,,,0,0,1,,,,0,,,68,38
35840,note_on,,,,,0,0,1,,,,0,,,56,25
36096,set_tempo,,,,,768,1,0,,1333333,,,,,,
36096,note_off,,,,,256,0,1,,,,0,,,68,0
36096,note_on,,,,,0,0,1,,,,0,,,68,38
36181,note_off,,,,,85,0,1,,,,0,,,68,0
36181,note_on,,,,,0,0,1,,,,0,,,70,38
36267,note_off,,,,,86,0,1,,,,0,,,70,0
36267,note_on,,,,,0,0,1,,,,0,,,72,38
36352,note_on,,,,,0,0,1,,,,0,,,58,27
36352,note_on,,,,,0,0,1,,,,0,,,70,46
36352,note_on,,,,,0,0,1,,,,0,,,67,27
36352,set_tempo,,,,,256,1,0,,750000,,,,,,
36352,note_off,,,,,0,0,1,,,,0,,,72,0
36352,note_off,,,,,0,0,1,,,,0,,,56,0
36352,note_off,,,,,85,0,1,,,,0,,,65,0
36365,control_change,,,,,13,0,1,,,,0,64,0,,
36552,control_change,,,,,187,0,1,,,,0,64,127,,
36864,note_off,,,,,0,0,1,,,,0,,,58,0
36864,set_tempo,,,,,512,1,0,,666666,,,,,,
36864,note_on,,,,,0,0,1,,,,0,,,65,25
36864,note_on,,,,,0,0,1,,,,0,,,68,43
36864,note_on,,,,,0,0,1,,,,0,,,56,23
36864,note_off,,,,,312,0,1,,,,0,,,67,0
36864,note_off,,,,,0,0,1,,,,0,,,70,0
36980,control_change,,,,,116,0,1,,,,0,64,0,,
37193,control_change,,,,,213,0,1,,,,0,64,127,,
37376,note_off,,,,,183,0,1,,,,0,,,65,0
37376,note_off,,,,,0,0,1,,,,0,,,68,0
37376,note_on,,,,,0,0,1,,,,0,,,67,40
37376,note_on,,,,,0,0,1,,,,0,,,55,20
37376,set_tempo,,,,,512,1,0,,750000,,,,,,
37376,note_on,,,,,0,0,1,,,,0,,,63,23
37376,note_off,,,,,0,0,1,,,,0,,,56,0
37487,control_change,,,,,111,0,1,,,,0,64,0,,
37648,control_change,,,,,161,0,1,,,,0,64,127,,
37888,control_change,,,,,240,0,1,,,,0,64,0,,
37888,note_on,,,,,0,0,1,,,,0,,,46,17
37888,note_on,,,,,0,0,1,,,,0,,,67,39
37888,note_on,,,,,0,0,1,,,,0,,,63,21
37888,note_off,,,,,0,0,1,,,,0,,,55,0
37888,note_off,,,,,0,0,1,,,,0,,,67,0
37888,note_off,,,,,0,0,1,,,,0,,,63,0
37888,control_change,,,,,0,0,1,,,,0,64,127,,
37888,set_tempo,,,,,512,1,0,,750000,,,,,,
38400,note_on,,,,,512,0,1,,,,0,,,55,22
38400,set_tempo,,,,,512,1,0,,600000,,,,,,
38912,note_on,,,,,512,0,1,,,,0,,,56,26
38952,note_off,,,,,40,0,1,,,,0,,,55,0
39391,control_change,,,,,439,0,1,,,,0,64,0,,
39424,note_off,,,,,0,0,1,,,,0,,,67,0
39424,note_off,,,,,33,0,1,,,,0,,,63,0
39424,note_on,,,,,0,0,1,,,,0,,,62,16
39424,note_on,,,,,0,0,1,,,,0,,,65,31
39424,note_on,,,,,0,0,1,,,,0,,,58,29
39424,set_tempo,,,,,1024,1,0,,800000,,,,,,
39464,note_off,,,,,40,0,1,,,,0,,,56,0
39685,control_change,,,,,221,0,1,,,,0,64,127,,
39936,note_off,,,,,251,0,1,,,,0,,,62,0
39936,note_off,,,,,0,0,1,,,,0,,,65,0
39936,note_on,,,,,0,0,1,,,,0,,,63,20
39936,note_on,,,,,0,0,1,,,,0,,,67,37
39936,note_on,,,,,0,0,1,,,,0,,,56,24
39936,set_tempo,,,,,512,1,0,,666666,,,,,,
39976,note_off,,,,,40,0,1,,,,0,,,58,0
40045,control_change,,,,,69,0,1,,,,0,64,0,,
40192,note_on,,,,,147,0,1,,,,0,,,55,21
40232,note_off,,,,,40,0,1,,,,0,,,56,0
40306,control_change,,,,,74,0,1,,,,0,64,127,,
40448,note_off,,,,,142,0,1,,,,0,,,63,0
40448,note_off,,,,,0,0,1,,,,0,,,67,0
40448,note_on,,,,,0,0,1,,,,0,,,65,26
40448,note_on,,,,,0,0,1,,,,0,,,68,44
40448,note_on,,,,,0,0,1,,,,0,,,53,19
40448,set_tempo,,,,,512,1,0,,750000,,,,,,
40488,note_off,,,,,40,0,1,,,,0,,,55,0
40568,control_change,,,,,80,0,1,,,,0,64,0,,
40731,control_change,,,,,163,0,1,,,,0,64,127,,
40960,note_off,,,,,0,0,1,,,,0,,,65,0
40960,note_off,,,,,0,0,1,,,,0,,,68,0
40960,note_off,,,,,0,0,1,,,,0,,,46,0
40960,note_on,,,,,0,0,1,,,,0,,,67,26
40960,note_on,,,,,0,0,1,,,,0,,,70,44
40960,note_on,,,,,0,0,1,,,,0,,,51,18
40960,control_change,,,,,229,0,1,,,,0,64,0,,
40960,control_change,,,,,0,0,1,,,,0,64,127,,
41000,note_off,,,,,40,0,1,,,,0,,,53,0
41054,control_change,,,,,54,0,1,,,,0,64,0,,
41336,control_change,,,,,282,0,1,,,,0,64,127,,
41472,note_on,,,,,136,0,1,,,,0,,,58,20
41472,set_tempo,,,,,1024,1,0,,600000,,,,,,
41984,note_on,,,,,0,0,1,,,,0,,,63,20
41984,note_off,,,,,0,0,1,,,,0,,,58,0
41984,note_off,,,,,512,0,1,,,,0,,,51,0
42476,note_off,,,,,492,0,1,,,,0,,,63,0
42496,note_off,,,,,20,0,1,,,,0,,,67,0
42496,note_off,,,,,0,0,1,,,,0,,,70,0
42496,note_on,,,,,0,0,1,,,,0,,,63,28
42496,note_on,,,,,0,0,1,,,,0,,,70,46
42496,note_on,,,,,0,0,1,,,,0,,,55,25
42496,set_tempo,,,,,1024,1,0,,750000,,,,,,
42559,control_change,,,,,63,0,1,,,,0,64,0,,
42872,control_change,,,,,313,0,1,,,,0,64,127,,
43008,note_on,,,,,0,0,1,,,,0,,,75,54
43008,set_tempo,,,,,512,1,0,,666666,,,,,,
43008,note_on,,,,,0,0,1,,,,0,,,58,27
43008,note_off,,,,,136,0,1,,,,0,,,70,0
43520,note_off,,,,,512,0,1,,,,0,,,63,0
43520,note_off,,,,,0,0,1,,,,0,,,58,0
43520,note_on,,,,,0,0,1,,,,0,,,64,32
43520,note_on,,,,,0,0,1,,,,0,,,70,32
43520,note_on,,,,,0,0,1,,,,0,,,74,51
43520,note_on,,,,,0,0,1,,,,0,,,62,30
43520,note_off,,,,,0,0,1,,,,0,,,75,0
43520,set_tempo,,,,,512,1,0,,800000,,,,,,
43593,control_change,,,,,73,0,1,,,,0,64,0,,
43750,control_change,,,,,157,0,1,,,,0,64,127,,
44032,note_off,,,,,0,0,1,,,,0,,,64,0
44032,control_change,,,,,0,0,1,,,,0,64,127,,
44032,set_tempo,,,,,512,1,0,,750000,,,,,,
44032,control_change,,,,,282,0,1,,,,0,64,0,,
44032,note_off,,,,,0,0,1,,,,0,,,74,0
44032,note_off,,,,,0,0,1,,,,0,,,55,0
44032,note_off,,,,,0,0,1,,,,0,,,62,0
44032,note_on,,,,,0,0,1,,,,0,,,65,32
44032,note_on,,,,,0,0,1,,,,0,,,70,32
44032,note_on,,,,,0,0,1,,,,0,,,74,51
44032,note_on,,,,,0,0,1,,,,0,,,41,24
44032,note_off,,,,,0,0,1,,,,0,,,70,0
44239,control_change,,,,,207,0,1,,,,0,64,0,,
44412,control_change,,,,,173,0,1,,,,0,64,127,,
44544,set_tempo,,,,,512,1,0,,600000,,,,,,
44544,note_on,,,,,132,0,1,,,,0,,,53,21
45056,note_on,,,,,512,0,1,,,,0,,,57,25
45568,note_off,,,,,0,0,1,,,,0,,,74,0
45568,note_off,,,,,512,0,1,,,,0,,,70,0
45568,note_on,,,,,0,0,1,,,,0,,,69,22
45568,note_on,,,,,0,0,1,,,,0,,,72,44
45568,note_on,,,,,0,0,1,,,,0,,,63,29
45568,set_tempo,,,,,1024,1,0,,705882,,,,,,
45620,control_change,,,,,52,0,1,,,,0,64,0,,
45930,control_change,,,,,310,0,1,,,,0,64,127,,
46080,set_tempo,,,,,512,1,0,,600000,,,,,,
46080,note_off,,,,,150,0,1,,,,0,,,65,0
46080,note_off,,,,,0,0,1,,,,0,,,69,0
46080,note_off,,,,,0,0,1,,,,0,,,72,0
46080,note_off,,,,,0,0,1,,,,0,,,41,0
46080,note_off,,,,,0,0,1,,,,0,,,63,0
46080,note_on,,,,,0,0,1,,,,0,,,57,22
46080,note_off,,,,,0,0,1,,,,0,,,57,0
46414,control_change,,,,,334,0,1,,,,0,64,0,,
46592,note_on,,,,,0,0,1,,,,0,,,69,37
46592,note_on,,,,,0,0,1,,,,0,,,72,53
46592,note_on,,,,,0,0,1,,,,0,,,53,15
46592,note_off,,,,,0,0,1,,,,0,,,53,0
46592,note_off,,,,,0,0,1,,,,0,,,57,0
46592,set_tempo,,,,,512,1,0,,666666,,,,,,
46592,note_on,,,,,178,0,1,,,,0,,,65,37
46793,control_change,,,,,201,0,1,,,,0,64,127,,
47104,set_tempo,,,,,512,1,0,,750000,,,,,,
47104,note_on,,,,,0,0,1,,,,0,,,46,34
47104,note_on,,,,,0,0,1,,,,0,,,70,41
47104,note_on,,,,,0,0,1,,,,0,,,65,41
47104,note_off,,,,,0,0,1,,,,0,,,53,0
47104,note_off,,,,,0,0,1,,,,0,,,72,0
47104,note_on,,,,,0,0,1,,,,0,,,74,57
47104,note_off,,,,,0,0,1,,,,0,,,65,0
47104,control_change,,,,,0,0,1,,,,0,64,127,,
47104,control_change,,,,,311,0,1,,,,0,64,0,,
47104,note_off,,,,,0,0,1,,,,0,,,69,0
47311,control_change,,,,,207,0,1,,,,0,64,0,,
47553,control_change,,,,,242,0,1,,,,0,64,127,,
47616,note_on,,,,,63,0,1,,,,0,,,53,25
47616,note_on,,,,,0,0,1,,,,0,,,58,25
47616,set_tempo,,,,,512,1,0,,600000,,,,,,
48128,note_on,,,,,0,0,1,,,,0,,,62,25
48128,set_tempo,,,,,512,1,0,,625000,,,,,,
48128,note_off,,,,,512,0,1,,,,0,,,46,0
48128,note_off,,,,,0,0,1,,,,0,,,53,0
48128,note_off,,,,,0,0,1,,,,0,,,58,0
48623,control_change,,,,,495,0,1,,,,0,64,0,,
48640,note_off,,,,,0,0,1,,,,0,,,70,0
48640,set_tempo,,,,,512,1,0,,705882,,,,,,
48640,note_off,,,,,17,0,1,,,,0,,,65,0
48640,note_on,,,,,0,0,1,,,,0,,,75,61
48640,note_on,,,,,0,0,1,,,,0,,,43,34
48640,note_on,,,,,0,0,1,,,,0,,,63,37
48640,note_off,,,,,0,0,1,,,,0,,,62,0
48640,note_off,,,,,0,0,1,,,,0,,,74,0
48640,note_on,,,,,0,0,1,,,,0,,,70,37
49037,control_change,,,,,397,0,1,,,,0,64,127,,
49152,note_on,,,,,115,0,1,,,,0,,,55,25
49152,set_tempo,,,,,512,1,0,,600000,,,,,,
49664,note_off,,,,,512,0,1,,,,0,,,43,0
49664,note_off,,,,,0,0,1,,,,0,,,55,0
49664,note_on,,,,,0,0,1,,,,0,,,58,25
50176,note_on,,,,,0,0,1,,,,0,,,74,53
50176,note_on,,,,,0,0,1,,,,0,,,70,33
50176,note_off,,,,,0,0,1,,,,0,,,70,0
50176,note_off,,,,,0,0,1,,,,0,,,58,0
50176,note_off,,,,,0,0,1,,,,0,,,75,0
50176,note_off,,,,,0,0,1,,,,0,,,63,0
50176,control_change,,,,,0,0,1,,,,0,64,127,,
50176,note_on,,,,,0,0,1,,,,0,,,65,33
50176,control_change,,,,,512,0,1,,,,0,64,0,,
50176,note_on,,,,,0,0,1,,,,0,,,41,35
50176,set_tempo,,,,,1024,1,0,,705882,,,,,,
50383,control_change,,,,,207,0,1,,,,0,64,0,,
50590,control_change,,,,,207,0,1,,,,0,64,127,,
50688,note_on,,,,,98,0,1,,,,0,,,53,26
50688,set_tempo,,,,,512,1,0,,600000,,,,,,
51200,note_on,,,,,0,0,1,,,,0,,,58,26
51200,note_off,,,,,0,0,1,,,,0,,,53,0
51200,note_off,,,,,512,0,1,,,,0,,,41,0
51584,note_on,,,,,0,0,1,,,,0,,,74,40
51584,note_off,,,,,384,0,1,,,,0,,,74,0
51584,set_tempo,,,,,896,1,0,,800000,,,,,,
51712,note_on,,,,,0,0,1,,,,0,,,72,52
51712,note_off,,,,,0,0,1,,,,0,,,58,0
51712,note_off,,,,,0,0,1,,,,0,,,74,0
51712,note_on,,,,,0,0,1,,,,0,,,69,32
51712,note_on,,,,,0,0,1,,,,0,,,41,31
51712,note_on,,,,,0,0,1,,,,0,,,63,32
51712,note_off,,,,,0,0,1,,,,0,,,70,0
51712,note_off,,,,,128,0,1,,,,0,,,65,0
51712,set_tempo,,,,,128,1,0,,750000,,,,,,
51764,control_change,,,,,52,0,1,,,,0,64,0,,
52005,control_change,,,,,241,0,1,,,,0,64,127,,
52224,note_on,,,,,0,0,1,,,,0,,,53,19
52224,note_on,,,,,0,0,1,,,,0,,,70,46
52224,note_off,,,,,219,0,1,,,,0,,,72,0
52224,set_tempo,,,,,512,1,0,,666666,,,,,,
52736,note_on,,,,,0,0,1,,,,0,,,57,19
52736,note_on,,,,,0,0,1,,,,0,,,72,44
52736,note_off,,,,,512,0,1,,,,0,,,70,0
52736,set_tempo,,,,,512,1,0,,800000,,,,,,
52736,note_off,,,,,0,0,1,,,,0,,,53,0
52834,control_change,,,,,98,0,1,,,,0,64,0,,
53075,control_change,,,,,241,0,1,,,,0,64,127,,
53248,control_change,,,,,173,0,1,,,,0,64,0,,
53248,set_tempo,,,,,512,1,0,,923076,,,,,,
53248,control_change,,,,,0,0,1,,,,0,64,127,,
53248,note_off,,,,,0,0,1,,,,0,,,72,0
53248,note_off,,,,,0,0,1,,,,0,,,63,0
53248,note_off,,,,,0,0,1,,,,0,,,69,0
53248,note_off,,,,,0,0,1,,,,0,,,41,0
53248,note_off,,,,,0,0,1,,,,0,,,57,0
53248,note_on,,,,,0,0,1,,,,0,,,63,32
53248,note_on,,,,,0,0,1,,,,0,,,72,48
53248,note_on,,,,,0,0,1,,,,0,,,34,22
53248,note_on,,,,,0,0,1,,,,0,,,69,32
53421,control_change,,,,,173,0,1,,,,0,64,0,,
53628,control_change,,,,,207,0,1,,,,0,64,127,,
53760,note_on,,,,,132,0,1,,,,0,,,46,19
53760,set_tempo,,,,,512,1,0,,800000,,,,,,
54272,note_off,,,,,512,0,1,,,,0,,,34,0
54272,set_tempo,,,,,512,1,0,,857142,,,,,,
54272,note_on,,,,,0,0,1,,,,0,,,53,15
54767,control_change,,,,,495,0,1,,,,0,64,0,,
54784,note_off,,,,,0,0,1,,,,0,,,72,0
54784,note_on,,,,,0,0,1,,,,0,,,58,10
54784,note_on,,,,,0,0,1,,,,0,,,62,12
54784,note_off,,,,,0,0,1,,,,0,,,69,0
54784,note_on,,,,,0,0,1,,,,0,,,70,28
54784,note_off,,,,,17,0,1,,,,0,,,63,0
55146,control_change,,,,,362,0,1,,,,0,64,127,,
55808,set_tempo,,,,,1536,1,0,,857142,,,,,,
55808,note_on,,,,,0,0,1,,,,0,,,70,40
55808,note_off,,,,,662,0,1,,,,0,,,62,0
55808,note_off,,,,,0,0,1,,,,0,,,70,0
55808,note_off,,,,,0,0,1,,,,0,,,46,0
55808,note_off,,,,,0,0,1,,,,0,,,53,0
55808,note_off,,,,,0,0,1,,,,0,,,58,0
56320,control_change,,,,,512,0,1,,,,0,64,0,,
56320,control_change,,,,,0,0,1,,,,0,64,127,,
56320,note_off,,,,,0,0,1,,,,0,,,70,0
56320,note_on,,,,,0,0,1,,,,0,,,68,21
56320,note_on,,,,,0,0,1,,,,0,,,70,44
56320,note_on,,,,,0,0,1,,,,0,,,46,28
56564,control_change,,,,,244,0,1,,,,0,64,0,,
56809,control_change,,,,,245,0,1,,,,0,64,127,,
56832,set_tempo,,,,,1024,1,0,,600000,,,,,,
56832,note_off,,,,,23,0,1,,,,0,,,46,0
56832,note_on,,,,,0,0,1,,,,0,,,53,22
57344,note_off,,,,,512,0,1,,,,0,,,53,0
57344,note_on,,,,,0,0,1,,,,0,,,58,22
57856,note_off,,,,,512,0,1,,,,0,,,58,0
57856,note_on,,,,,0,0,1,,,,0,,,62,22
57856,set_tempo,,,,,1024,1,0,,705882,,,,,,
58368,note_off,,,,,512,0,1,,,,0,,,70,0
58368,note_on,,,,,0,0,1,,,,0,,,72,44
58368,note_on,,,,,0,0,1,,,,0,,,58,22
58368,note_off,,,,,0,0,1,,,,0,,,62,0
58860,note_off,,,,,492,0,1,,,,0,,,68,0
58880,note_off,,,,,0,0,1,,,,0,,,58,0
58880,note_off,,,,,20,0,1,,,,0,,,72,0
58880,note_on,,,,,0,0,1,,,,0,,,68,26
58880,note_on,,,,,0,0,1,,,,0,,,70,44
58880,note_on,,,,,0,0,1,,,,0,,,53,22
58880,set_tempo,,,,,1024,1,0,,750000,,,,,,
58938,control_change,,,,,58,0,1,,,,0,64,0,,
59113,control_change,,,,,175,0,1,,,,0,64,127,,
59392,control_change,,,,,279,0,1,,,,0,64,0,,
59392,control_change,,,,,0,0,1,,,,0,64,127,,
59392,note_off,,,,,0,0,1,,,,0,,,68,0
59392,note_off,,,,,0,0,1,,,,0,,,70,0
59392,note_off,,,,,0,0,1,,,,0,,,53,0
59392,note_on,,,,,0,0,1,,,,0,,,67,25
59392,note_on,,,,,0,0,1,,,,0,,,70,43
59392,note_on,,,,,0,0,1,,,,0,,,46,28
59559,control_change,,,,,167,0,1,,,,0,64,0,,
59893,control_change,,,,,334,0,1,,,,0,64,127,,
59904,note_on,,,,,11,0,1,,,,0,,,55,22
59904,set_tempo,,,,,1024,1,0,,600000,,,,,,
60416,note_on,,,,,512,0,1,,,,0,,,58,22
60928,set_tempo,,,,,1024,1,0,,705882,,,,,,
60928,note_on,,,,,0,0,1,,,,0,,,67,29
60928,note_on,,,,,0,0,1,,,,0,,,63,11
60928,note_on,,,,,0,0,1,,,,0,,,63,22
60928,note_off,,,,,0,0,1,,,,0,,,70,0
60928,note_off,,,,,512,0,1,,,,0,,,67,0
60928,note_off,,,,,0,0,1,,,,0,,,58,0
60961,control_change,,,,,33,0,1,,,,0,64,0,,
61262,control_change,,,,,301,0,1,,,,0,64,127,,
61440,note_off,,,,,178,0,1,,,,0,,,63,0
61440,set_tempo,,,,,512,1,0,,600000,,,,,,
61440,note_off,,,,,0,0,1,,,,0,,,63,0
61440,note_on,,,,,0,0,1,,,,0,,,58,22
61440,note_off,,,,,0,0,1,,,,0,,,67,0
61696,control_change,,,,,256,0,1,,,,0,64,0,,
61952,note_on,,,,,0,0,1,,,,0,,,75,51
61952,note_on,,,,,0,0,1,,,,0,,,55,22
61952,note_off,,,,,0,0,1,,,,0,,,46,0
61952,note_off,,,,,0,0,1,,,,0,,,55,0
61952,note_off,,,,,0,0,1,,,,0,,,58,0
61952,note_on,,,,,256,0,1,,,,0,,,67,29
61952,set_tempo,,,,,512,1,0,,800000,,,,,,
62130,control_change,,,,,178,0,1,,,,0,64,127,,
62464,note_on,,,,,0,0,1,,,,0,,,46,28
62464,note_on,,,,,0,0,1,,,,0,,,77,59
62464,note_on,,,,,0,0,1,,,,0,,,68,37
62464,note_off,,,,,0,0,1,,,,0,,,55,0
62464,note_off,,,,,0,0,1,,,,0,,,75,0
62464,note_off,,,,,0,0,1,,,,0,,,67,0
62464,control_change,,,,,0,0,1,,,,0,64,127,,
62464,control_change,,,,,334,0,1,,,,0,64,0,,
62639,control_change,,,,,175,0,1,,,,0,64,0,,
62848,control_change,,,,,209,0,1,,,,0,64,127,,
62976,note_on,,,,,128,0,1,,,,0,,,53,22
62976,set_tempo,,,,,1024,1,0,,600000,,,,,,
63476,control_change,,,,,500,0,1,,,,0,64,0,,
63488,note_on,,,,,0,0,1,,,,0,,,74,48
63488,note_on,,,,,0,0,1,,,,0,,,58,22
63488,note_off,,,,,12,0,1,,,,0,,,77,0
63488,set_tempo,,,,,512,1,0,,625000,,,,,,
63791,control_change,,,,,303,0,1,,,,0,64,127,,
64000,note_off,,,,,0,0,1,,,,0,,,58,0
64000,note_off,,,,,0,0,1,,,,0,,,74,0
64000,note_off,,,,,209,0,1,,,,0,,,68,0
64000,note_on,,,,,0,0,1,,,,0,,,62,22
64000,set_tempo,,,,,512,1,0,,750000,,,,,,
64000,note_on,,,,,0,0,1,,,,0,,,65,33
64000,note_on,,,,,0,0,1,,,,0,,,68,51
64035,control_change,,,,,35,0,1,,,,0,64,0,,
64279,control_change,,,,,244,0,1,,,,0,64,127,,
64512,note_off,,,,,0,0,1,,,,0,,,68,0
64512,note_on,,,,,0,0,1,,,,0,,,68,31
64512,note_off,,,,,233,0,1,,,,0,,,65,0
64512,note_on,,,,,0,0,1,,,,0,,,72,51
64512,note_on,,,,,0,0,1,,,,0,,,58,22
64628,control_change,,,,,116,0,1,,,,0,64,0,,
64908,control_change,,,,,280,0,1,,,,0,64,127,,
65024,set_tempo,,,,,1024,1,0,,800000,,,,,,
65024,note_off,,,,,116,0,1,,,,0,,,68,0
65024,note_off,,,,,0,0,1,,,,0,,,53,0
65024,note_off,,,,,0,0,1,,,,0,,,58,0
65024,note_on,,,,,0,0,1,,,,0,,,68,29
65024,note_on,,,,,0,0,1,,,,0,,,70,45
65024,note_on,,,,,0,0,1,,,,0,,,53,22
65024,note_off,,,,,0,0,1,,,,0,,,72,0
65152,control_change,,,,,128,0,1,,,,0,64,0,,
65361,control_change,,,,,209,0,1,,,,0,64,127,,
65536,control_change,,,,,175,0,1,,,,0,64,0,,
65536,note_off,,,,,0,0,1,,,,0,,,68,0
65536,control_change,,,,,0,0,1,,,,0,64,127,,
65536,note_on,,,,,0,0,1,,,,0,,,46,28
65536,note_on,,,,,0,0,1,,,,0,,,70,43
65536,note_off,,,,,0,0,1,,,,0,,,62,0
65536,note_off,,,,,0,0,1,,,,0,,,53,0
65536,note_off,,,,,0,0,1,,,,0,,,46,0
65536,note_on,,,,,0,0,1,,,,0,,,67,25
65536,set_tempo,,,,,512,1,0,,705882,,,,,,
65536,note_off,,,,,0,0,1,,,,0,,,70,0
65699,control_change,,,,,163,0,1,,,,0,64,0,,
65928,control_change,,,,,229,0,1,,,,0,64,127,,
66048,set_tempo,,,,,512,1,0,,600000,,,,,,
66048,note_on,,,,,120,0,1,,,,0,,,55,22
66560,note_on,,,,,512,0,1,,,,0,,,58,22
67039,control_change,,,,,479,0,1,,,,0,64,0,,
67072,note_on,,,,,0,0,1,,,,0,,,67,31
67072,note_on,,,,,0,0,1,,,,0,,,63,22
67072,set_tempo,,,,,1024,1,0,,705882,,,,,,
67072,note_on,,,,,0,0,1,,,,0,,,63,13
67072,note_off,,,,,33,0,1,,,,0,,,67,0
67072,note_off,,,,,0,0,1,,,,0,,,70,0
67268,control_change,,,,,196,0,1,,,,0,64,127,,
67584,note_on,,,,,0,0,1,,,,0,,,58,22
67584,note_off,,,,,0,0,1,,,,0,,,63,0
67584,note_off,,,,,0,0,1,,,,0,,,58,0
67584,note_off,,,,,0,0,1,,,,0,,,67,0
67584,note_off,,,,,316,0,1,,,,0,,,63,0
67584,set_tempo,,,,,512,1,0,,625000,,,,,,
67824,control_change,,,,,240,0,1,,,,0,64,0,,
68096,note_on,,,,,0,0,1,,,,0,,,70,41
68096,note_on,,,,,272,0,1,,,,0,,,67,23
68096,note_off,,,,,0,0,1,,,,0,,,58,0
68096,set_tempo,,,,,512,1,0,,800000,,,,,,
68096,note_on,,,,,0,0,1,,,,0,,,55,22
68096,note_off,,,,,0,0,1,,,,0,,,55,0
68150,control_change,,,,,54,0,1,,,,0,64,127,,
68608,control_change,,,,,0,0,1,,,,0,64,0,,
68608,control_change,,,,,0,0,1,,,,0,64,127,,
68608,control_change,,,,,0,0,1,,,,0,64,0,,
68608,note_off,,,,,0,0,1,,,,0,,,67,0
68608,note_off,,,,,0,0,1,,,,0,,,70,0
68608,note_off,,,,,0,0,1,,,,0,,,46,0
68608,note_off,,,,,0,0,1,,,,0,,,55,0
68608,note_on,,,,,0,0,1,,,,0,,,68,20
68608,note_on,,,,,0,0,1,,,,0,,,70,38
68608,note_on,,,,,0,0,1,,,,0,,,46,18
68608,control_change,,,,,458,0,1,,,,0,64,0,,
68852,control_change,,,,,244,0,1,,,,0,64,0,,
69097,control_change,,,,,245,0,1,,,,0,64,127,,
69120,note_on,,,,,23,0,1,,,,0,,,53,12
69120,set_tempo,,,,,1024,1,0,,600000,,,,,,
69632,note_on,,,,,0,0,1,,,,0,,,58,12
69632,note_off,,,,,512,0,1,,,,0,,,53,0
70144,set_tempo,,,,,1024,1,0,,705882,,,,,,
70144,note_off,,,,,512,0,1,,,,0,,,58,0
70144,note_on,,,,,0,0,1,,,,0,,,62,12
70656,set_tempo,,,,,512,1,0,,750000,,,,,,
70656,note_on,,,,,0,0,1,,,,0,,,71,34
70656,note_on,,,,,0,0,1,,,,0,,,58,12
70656,note_off,,,,,512,0,1,,,,0,,,70,0
71148,note_off,,,,,492,0,1,,,,0,,,68,0
71168,note_on,,,,,0,0,1,,,,0,,,68,16
71168,note_on,,,,,0,0,1,,,,0,,,70,34
71168,note_on,,,,,0,0,1,,,,0,,,53,12
71168,note_off,,,,,0,0,1,,,,0,,,58,0
71168,note_off,,,,,20,0,1,,,,0,,,71,0
71168,set_tempo,,,,,512,1,0,,750000,,,,,,
71226,control_change,,,,,58,0,1,,,,0,64,0,,
71401,control_change,,,,,175,0,1,,,,0,64,127,,
71680,note_on,,,,,0,0,1,,,,0,,,70,38
71680,note_on,,,,,0,0,1,,,,0,,,66,20
71680,note_off,,,,,0,0,1,,,,0,,,62,0
71680,note_off,,,,,0,0,1,,,,0,,,53,0
71680,note_off,,,,,0,0,1,,,,0,,,46,0
71680,note_off,,,,,0,0,1,,,,0,,,70,0
71680,note_off,,,,,0,0,1,,,,0,,,68,0
71680,control_change,,,,,0,0,1,,,,0,64,0,,
71680,control_change,,,,,0,0,1,,,,0,64,127,,
71680,control_change,,,,,0,0,1,,,,0,64,0,,
71680,control_change,,,,,279,0,1,,,,0,64,0,,
71680,note_on,,,,,0,0,1,,,,0,,,46,18
71847,control_change,,,,,167,0,1,,,,0,64,0,,
72181,control_change,,,,,334,0,1,,,,0,64,127,,
72192,note_on,,,,,11,0,1,,,,0,,,54,12
72192,set_tempo,,,,,1024,1,0,,600000,,,,,,
72704,note_on,,,,,512,0,1,,,,0,,,58,12
73216,note_on,,,,,0,0,1,,,,0,,,63,12
73216,note_on,,,,,0,0,1,,,,0,,,75,35
73216,note_off,,,,,512,0,1,,,,0,,,70,0
73216,note_off,,,,,0,0,1,,,,0,,,58,0
73216,set_tempo,,,,,1024,1,0,,666666,,,,,,
73249,control_change,,,,,33,0,1,,,,0,64,0,,
73550,control_change,,,,,301,0,1,,,,0,64,127,,
73728,set_tempo,,,,,512,1,0,,750000,,,,,,
73728,note_on,,,,,0,0,1,,,,0,,,58,12
73728,note_off,,,,,178,0,1,,,,0,,,63,0
73984,control_change,,,,,256,0,1,,,,0,64,0,,
74240,note_on,,,,,0,0,1,,,,0,,,54,12
74240,note_off,,,,,0,0,1,,,,0,,,75,0
74240,note_off,,,,,256,0,1,,,,0,,,66,0
74240,note_on,,,,,0,0,1,,,,0,,,66,20
74240,note_off,,,,,0,0,1,,,,0,,,54,0
74240,set_tempo,,,,,512,1,0,,1000000,,,,,,
74240,note_on,,,,,0,0,1,,,,0,,,78,42
74240,note_off,,,,,0,0,1,,,,0,,,58,0
74418,control_change,,,,,178,0,1,,,,0,64,127,,
74752,control_change,,,,,0,0,1,,,,0,64,127,,
74752,control_change,,,,,334,0,1,,,,0,64,0,,
74752,note_off,,,,,0,0,1,,,,0,,,66,0
74752,note_on,,,,,0,0,1,,,,0,,,47,18
74752,note_on,,,,,0,0,1,,,,0,,,56,18
74752,note_off,,,,,0,0,1,,,,0,,,78,0
74752,set_tempo,,,,,512,1,0,,857142,,,,,,
74752,note_off,,,,,0,0,1,,,,0,,,54,0
74752,note_on,,,,,0,0,1,,,,0,,,68,31
74752,note_on,,,,,0,0,1,,,,0,,,80,47
74752,note_on,,,,,0,0,1,,,,0,,,51,13
74752,note_off,,,,,0,0,1,,,,0,,,46,0
74923,control_change,,,,,171,0,1,,,,0,64,0,,
75230,control_change,,,,,307,0,1,,,,0,64,127,,
75776,note_off,,,,,546,0,1,,,,0,,,68,0
75776,note_off,,,,,0,0,1,,,,0,,,80,0
75776,note_on,,,,,0,0,1,,,,0,,,66,27
75776,note_on,,,,,0,0,1,,,,0,,,54,16
75776,note_on,,,,,0,0,1,,,,0,,,78,43
75776,note_off,,,,,0,0,1,,,,0,,,56,0
75776,set_tempo,,,,,1024,1,0,,800000,,,,,,
76288,note_on,,,,,0,0,1,,,,0,,,53,16
76288,note_on,,,,,0,0,1,,,,0,,,77,41
76288,note_off,,,,,0,0,1,,,,0,,,54,0
76288,note_off,,,,,0,0,1,,,,0,,,78,0
76288,note_on,,,,,0,0,1,,,,0,,,65,25
76288,set_tempo,,,,,512,1,0,,857142,,,,,,
76288,note_off,,,,,512,0,1,,,,0,,,66,0
76322,control_change,,,,,34,0,1,,,,0,64,0,,
76459,control_change,,,,,137,0,1,,,,0,64,127,,
76800,note_on,,,,,0,0,1,,,,0,,,54,18
76800,note_on,,,,,0,0,1,,,,0,,,66,24
76800,set_tempo,,,,,512,1,0,,750000,,,,,,
76800,note_off,,,,,341,0,1,,,,0,,,65,0
76800,note_off,,,,,0,0,1,,,,0,,,77,0
76800,note_off,,,,,0,0,1,,,,0,,,53,0
76800,note_on,,,,,0,0,1,,,,0,,,78,40
76868,control_change,,,,,68,0,1,,,,0,64,0,,
77039,control_change,,,,,171,0,1,,,,0,64,127,,
77312,set_tempo,,,,,512,1,0,,1000000,,,,,,
77312,note_off,,,,,273,0,1,,,,0,,,66,0
77312,note_off,,,,,0,0,1,,,,0,,,78,0
77312,note_off,,,,,0,0,1,,,,0,,,54,0
77312,note_on,,,,,0,0,1,,,,0,,,63,22
77312,note_on,,,,,0,0,1,,,,0,,,75,38
77312,note_on,,,,,0,0,1,,,,0,,,51,8
77312,note_on,,,,,0,0,1,,,,0,,,57,15
77380,control_change,,,,,68,0,1,,,,0,64,0,,
77585,control_change,,,,,205,0,1,,,,0,64,127,,
77824,note_on,,,,,0,0,1,,,,0,,,46,11
77824,note_on,,,,,0,0,1,,,,0,,,74,36
77824,note_off,,,,,0,0,1,,,,0,,,57,0
77824,note_off,,,,,0,0,1,,,,0,,,51,0
77824,note_off,,,,,0,0,1,,,,0,,,51,0
77824,control_change,,,,,239,0,1,,,,0,64,0,,
77824,note_off,,,,,0,0,1,,,,0,,,75,0
77824,note_off,,,,,0,0,1,,,,0,,,63,0
77824,control_change,,,,,0,0,1,,,,0,64,127,,
77824,set_tempo,,,,,512,1,0,,1090909,,,,,,
77824,note_on,,,,,0,0,1,,,,0,,,50,11
77824,note_off,,,,,0,0,1,,,,0,,,47,0
77824,note_on,,,,,0,0,1,,,,0,,,58,18
77824,note_on,,,,,0,0,1,,,,0,,,62,20
78052,control_change,,,,,228,0,1,,,,0,64,0,,
78355,control_change,,,,,303,0,1,,,,0,64,127,,
79360,note_off,,,,,0,0,1,,,,0,,,74,0
79360,note_on,,,,,0,0,1,,,,0,,,53,9
79360,note_off,,,,,1005,0,1,,,,0,,,62,0
79360,note_off,,,,,0,0,1,,,,0,,,50,0
79360,note_on,,,,,0,0,1,,,,0,,,65,11
79360,note_on,,,,,0,0,1,,,,0,,,77,23
79417,control_change,,,,,57,0,1,,,,0,64,0,,
79682,control_change,,,,,265,0,1,,,,0,64,127,,
80384,note_on,,,,,0,0,1,,,,0,,,70,49
80384,note_off,,,,,702,0,1,,,,0,,,65,0
80384,note_off,,,,,0,0,1,,,,0,,,77,0
80384,note_off,,,,,0,0,1,,,,0,,,46,0
80384,note_off,,,,,0,0,1,,,,0,,,53,0
80384,note_off,,,,,0,0,1,,,,0,,,58,0
80384,note_on,,,,,0,0,1,,,,0,,,67,33
80384,set_tempo,,,,,2560,1,0,,1000000,,,,,,
80403,control_change,,,,,19,0,1,,,,0,64,0,,
80706,control_change,,,,,303,0,1,,,,0,64,127,,
80896,note_on,,,,,0,0,1,,,,0,,,70,57
80896,note_on,,,,,0,0,1,,,,0,,,39,21
80896,control_change,,,,,190,0,1,,,,0,64,0,,
80896,note_on,,,,,0,0,1,,,,0,,,67,39
80896,note_off,,,,,0,0,1,,,,0,,,67,0
80896,note_off,,,,,0,0,1,,,,0,,,70,0
80896,note_on,,,,,0,0,1,,,,0,,,51,33
80896,control_change,,,,,0,0,1,,,,0,64,0,,
80927,control_change,,,,,31,0,1,,,,0,64,127,,
81111,control_change,,,,,184,0,1,,,,0,64,0,,
81295,control_change,,,,,184,0,1,,,,0,64,127,,
81408,note_on,,,,,113,0,1,,,,0,,,55,28
81408,set_tempo,,,,,1024,1,0,,600000,,,,,,
81920,note_off,,,,,512,0,1,,,,0,,,39,0
81920,note_off,,,,,0,0,1,,,,0,,,51,0
81920,note_off,,,,,0,0,1,,,,0,,,55,0
81920,note_on,,,,,0,0,1,,,,0,,,58,28
82432,note_off,,,,,512,0,1,,,,0,,,58,0
82432,note_on,,,,,0,0,1,,,,0,,,63,28
82944,set_tempo,,,,,1536,1,0,,750000,,,,,,
82944,note_on,,,,,0,0,1,,,,0,,,58,28
82944,note_off,,,,,0,0,1,,,,0,,,70,0
82944,note_on,,,,,0,0,1,,,,0,,,75,46
82944,note_on,,,,,0,0,1,,,,0,,,79,64
82944,note_off,,,,,512,0,1,,,,0,,,67,0
82944,note_off,,,,,0,0,1,,,,0,,,63,0
83446,control_change,,,,,502,0,1,,,,0,64,0,,
83456,note_off,,,,,0,0,1,,,,0,,,58,0
83456,note_off,,,,,0,0,1,,,,0,,,79,0
83456,set_tempo,,,,,512,1,0,,800000,,,,,,
83456,note_on,,,,,0,0,1,,,,0,,,74,41
83456,note_off,,,,,10,0,1,,,,0,,,75,0
83456,note_on,,,,,0,0,1,,,,0,,,55,28
83456,note_on,,,,,0,0,1,,,,0,,,77,59
83630,control_change,,,,,174,0,1,,,,0,64,127,,
83968,set_tempo,,,,,512,1,0,,750000,,,,,,
83968,note_on,,,,,0,0,1,,,,0,,,32,21
83968,note_on,,,,,0,0,1,,,,0,,,44,33
83968,note_on,,,,,0,0,1,,,,0,,,71,42
83968,note_off,,,,,0,0,1,,,,0,,,55,0
83968,note_off,,,,,0,0,1,,,,0,,,77,0
83968,control_change,,,,,338,0,1,,,,0,64,0,,
83968,control_change,,,,,0,0,1,,,,0,64,0,,
83968,note_off,,,,,0,0,1,,,,0,,,74,0
83968,note_on,,,,,0,0,1,,,,0,,,74,60
84024,control_change,,,,,56,0,1,,,,0,64,127,,
84193,control_change,,,,,169,0,1,,,,0,64,0,,
84363,control_change,,,,,170,0,1,,,,0,64,127,,
84480,set_tempo,,,,,512,1,0,,600000,,,,,,
84480,note_on,,,,,117,0,1,,,,0,,,51,28
84992,note_off,,,,,0,0,1,,,,0,,,51,0
84992,note_off,,,,,512,0,1,,,,0,,,32,0
84992,note_on,,,,,0,0,1,,,,0,,,56,28
85490,control_change,,,,,498,0,1,,,,0,64,0,,
85504,set_tempo,,,,,1024,1,0,,750000,,,,,,
85504,note_on,,,,,0,0,1,,,,0,,,60,28
85504,note_off,,,,,14,0,1,,,,0,,,71,0
85504,note_off,,,,,0,0,1,,,,0,,,74,0
85504,note_off,,,,,0,0,1,,,,0,,,56,0
85504,note_on,,,,,0,0,1,,,,0,,,72,43
85504,note_on,,,,,0,0,1,,,,0,,,75,60
85715,control_change,,,,,211,0,1,,,,0,64,127,,
86016,note_off,,,,,0,0,1,,,,0,,,75,0
86016,note_off,,,,,0,0,1,,,,0,,,60,0
86016,note_on,,,,,0,0,1,,,,0,,,70,41
86016,note_on,,,,,0,0,1,,,,0,,,74,57
86016,note_on,,,,,0,0,1,,,,0,,,56,28
86016,set_tempo,,,,,512,1,0,,600000,,,,,,
86016,note_off,,,,,301,0,1,,,,0,,,72,0
86110,control_change,,,,,94,0,1,,,,0,64,0,,
86307,control_change,,,,,197,0,1,,,,0,64,127,,
86528,set_tempo,,,,,512,1,0,,705882,,,,,,
86528,note_on,,,,,0,0,1,,,,0,,,72,54
86528,note_on,,,,,0,0,1,,,,0,,,51,28
86528,note_on,,,,,0,0,1,,,,0,,,68,39
86528,note_off,,,,,0,0,1,,,,0,,,56,0
86528,note_off,,,,,0,0,1,,,,0,,,74,0
86528,note_off,,,,,221,0,1,,,,0,,,70,0
86589,control_change,,,,,61,0,1,,,,0,64,0,,
86786,control_change,,,,,197,0,1,,,,0,64,127,,
87040,set_tempo,,,,,512,1,0,,750000,,,,,,
87040,note_on,,,,,0,0,1,,,,0,,,34,33
87040,note_off,,,,,0,0,1,,,,0,,,68,0
87040,control_change,,,,,0,0,1,,,,0,64,0,,
87040,control_change,,,,,254,0,1,,,,0,64,0,,
87040,control_change,,,,,0,0,1,,,,0,64,0,,
87040,note_off,,,,,0,0,1,,,,0,,,72,0
87040,note_off,,,,,0,0,1,,,,0,,,44,0
87040,note_off,,,,,0,0,1,,,,0,,,51,0
87040,note_on,,,,,0,0,1,,,,0,,,62,33
87040,note_on,,,,,0,0,1,,,,0,,,67,33
87040,note_on,,,,,0,0,1,,,,0,,,70,51
87096,control_change,,,,,56,0,1,,,,0,64,127,,
87265,control_change,,,,,169,0,1,,,,0,64,0,,
87435,control_change,,,,,170,0,1,,,,0,64,127,,
87552,note_on,,,,,117,0,1,,,,0,,,46,28
87552,set_tempo,,,,,512,1,0,,600000,,,,,,
88064,note_on,,,,,0,0,1,,,,0,,,50,28
88064,note_off,,,,,512,0,1,,,,0,,,34,0
88562,control_change,,,,,498,0,1,,,,0,64,0,,
88576,note_off,,,,,14,0,1,,,,0,,,67,0
88576,note_off,,,,,0,0,1,,,,0,,,50,0
88576,set_tempo,,,,,1024,1,0,,705882,,,,,,
88576,note_on,,,,,0,0,1,,,,0,,,68,35
88576,note_on,,,,,0,0,1,,,,0,,,58,28
88576,note_on,,,,,0,0,1,,,,0,,,72,53
88576,note_off,,,,,0,0,1,,,,0,,,70,0
88787,control_change,,,,,211,0,1,,,,0,64,127,,
89088,note_on,,,,,0,0,1,,,,0,,,50,28
89088,set_tempo,,,,,512,1,0,,625000,,,,,,
89088,note_on,,,,,0,0,1,,,,0,,,70,50
89088,note_on,,,,,0,0,1,,,,0,,,67,34
89088,note_off,,,,,0,0,1,,,,0,,,58,0
89088,note_off,,,,,0,0,1,,,,0,,,72,0
89088,note_off,,,,,301,0,1,,,,0,,,68,0
89182,control_change,,,,,94,0,1,,,,0,64,0,,
89379,control_change,,,,,197,0,1,,,,0,64,127,,
89600,note_on,,,,,0,0,1,,,,0,,,46,28
89600,note_on,,,,,0,0,1,,,,0,,,68,47
89600,note_off,,,,,0,0,1,,,,0,,,50,0
89600,note_off,,,,,0,0,1,,,,0,,,46,0
89600,note_off,,,,,0,0,1,,,,0,,,70,0
89600,note_off,,,,,221,0,1,,,,0,,,67,0
89600,set_tempo,,,,,512,1,0,,750000,,,,,,
89600,note_on,,,,,0,0,1,,,,0,,,65,32
89661,control_change,,,,,61,0,1,,,,0,64,0,,
89858,control_change,,,,,197,0,1,,,,0,64,127,,
90112,note_off,,,,,0,0,1,,,,0,,,65,0
90112,set_tempo,,,,,512,1,0,,800000,,,,,,
90112,note_on,,,,,0,0,1,,,,0,,,39,33
90112,note_on,,,,,0,0,1,,,,0,,,67,46
90112,control_change,,,,,254,0,1,,,,0,64,0,,
90112,control_change,,,,,0,0,1,,,,0,64,0,,
90112,control_change,,,,,0,0,1,,,,0,64,0,,
90112,note_off,,,,,0,0,1,,,,0,,,62,0
90112,note_off,,,,,0,0,1,,,,0,,,68,0
90112,note_off,,,,,0,0,1,,,,0,,,46,0
90112,note_on,,,,,0,0,1,,,,0,,,63,31
90168,control_change,,,,,56,0,1,,,,0,64,127,,
90337,control_change,,,,,169,0,1,,,,0,64,0,,
90507,control_change,,,,,170,0,1,,,,0,64,127,,
90624,set_tempo,,,,,512,1,0,,600000,,,,,,
90624,note_on,,,,,117,0,1,,,,0,,,51,28
91136,note_on,,,,,0,0,1,,,,0,,,55,28
91136,note_off,,,,,512,0,1,,,,0,,,39,0
91634,control_change,,,,,498,0,1,,,,0,64,0,,
91648,set_tempo,,,,,1024,1,0,,800000,,,,,,
91648,note_off,,,,,0,0,1,,,,0,,,55,0
91648,note_off,,,,,0,0,1,,,,0,,,67,0
91648,note_on,,,,,0,0,1,,,,0,,,67,31
91648,note_off,,,,,14,0,1,,,,0,,,63,0
91648,note_on,,,,,0,0,1,,,,0,,,58,28
91648,note_on,,,,,0,0,1,,,,0,,,70,49
91859,control_change,,,,,211,0,1,,,,0,64,127,,
92160,note_off,,,,,0,0,1,,,,0,,,58,0
92160,set_tempo,,,,,512,1,0,,625000,,,,,,
92160,note_on,,,,,0,0,1,,,,0,,,55,33
92160,note_on,,,,,0,0,1,,,,0,,,67,53
92160,note_on,,,,,0,0,1,,,,0,,,63,35
92160,note_off,,,,,0,0,1,,,,0,,,70,0
92160,note_off,,,,,301,0,1,,,,0,,,67,0
92254,control_change,,,,,94,0,1,,,,0,64,0,,
92451,control_change,,,,,197,0,1,,,,0,64,127,,
92672,set_tempo,,,,,512,1,0,,750000,,,,,,
92672,note_off,,,,,0,0,1,,,,0,,,67,0
92672,note_off,,,,,221,0,1,,,,0,,,63,0
92672,note_off,,,,,0,0,1,,,,0,,,51,0
92672,note_off,,,,,0,0,1,,,,0,,,55,0
92672,note_on,,,,,0,0,1,,,,0,,,65,38
92672,note_on,,,,,0,0,1,,,,0,,,68,56
92672,note_on,,,,,0,0,1,,,,0,,,51,37
92733,control_change,,,,,61,0,1,,,,0,64,0,,
92930,control_change,,,,,197,0,1,,,,0,64,127,,
93184,control_change,,,,,0,0,1,,,,0,64,0,,
93184,control_change,,,,,254,0,1,,,,0,64,0,,
93184,note_on,,,,,0,0,1,,,,0,,,39,40
93184,control_change,,,,,0,0,1,,,,0,64,0,,
93184,control_change,,,,,0,0,1,,,,0,64,0,,
93184,note_off,,,,,0,0,1,,,,0,,,65,0
93184,note_off,,,,,0,0,1,,,,0,,,68,0
93184,note_off,,,,,0,0,1,,,,0,,,51,0
93184,note_on,,,,,0,0,1,,,,0,,,67,44
93184,note_on,,,,,0,0,1,,,,0,,,70,62
93215,control_change,,,,,31,0,1,,,,0,64,127,,
93399,control_change,,,,,184,0,1,,,,0,64,0,,
93583,control_change,,,,,184,0,1,,,,0,64,127,,
93696,set_tempo,,,,,1024,1,0,,600000,,,,,,
93696,note_on,,,,,113,0,1,,,,0,,,55,42
94208,note_on,,,,,512,0,1,,,,0,,,58,42
94720,note_off,,,,,512,0,1,,,,0,,,58,0
94720,note_on,,,,,0,0,1,,,,0,,,63,42
95232,note_off,,,,,0,0,1,,,,0,,,63,0
95232,set_tempo,,,,,1536,1,0,,750000,,,,,,
95232,note_off,,,,,512,0,1,,,,0,,,67,0
95232,note_off,,,,,0,0,1,,,,0,,,70,0
95232,note_on,,,,,0,0,1,,,,0,,,58,42
95232,note_on,,,,,0,0,1,,,,0,,,79,69
95232,note_on,,,,,0,0,1,,,,0,,,75,51
95734,control_change,,,,,502,0,1,,,,0,64,0,,
95744,note_on,,,,,0,0,1,,,,0,,,55,42
95744,set_tempo,,,,,512,1,0,,800000,,,,,,
95744,note_off,,,,,10,0,1,,,,0,,,75,0
95744,note_off,,,,,0,0,1,,,,0,,,79,0
95744,note_off,,,,,0,0,1,,,,0,,,55,0
95744,note_off,,,,,0,0,1,,,,0,,,58,0
95744,note_on,,,,,0,0,1,,,,0,,,74,46
95744,note_on,,,,,0,0,1,,,,0,,,77,64
95918,control_change,,,,,174,0,1,,,,0,64,127,,
96256,note_on,,,,,0,0,1,,,,0,,,32,30
96256,set_tempo,,,,,512,1,0,,750000,,,,,,
96256,note_on,,,,,0,0,1,,,,0,,,44,42
96256,note_on,,,,,0,0,1,,,,0,,,74,69
96256,note_on,,,,,0,0,1,,,,0,,,71,51
96256,note_off,,,,,0,0,1,,,,0,,,39,0
96256,note_off,,,,,0,0,1,,,,0,,,55,0
96256,note_off,,,,,0,0,1,,,,0,,,74,0
96256,control_change,,,,,0,0,1,,,,0,64,0,,
96256,control_change,,,,,0,0,1,,,,0,64,0,,
96256,control_change,,,,,0,0,1,,,,0,64,0,,
96256,control_change,,,,,338,0,1,,,,0,64,0,,
96256,note_off,,,,,0,0,1,,,,0,,,77,0
96312,control_change,,,,,56,0,1,,,,0,64,127,,
96481,control_change,,,,,169,0,1,,,,0,64,0,,
96651,control_change,,,,,170,0,1,,,,0,64,127,,
96768,set_tempo,,,,,512,1,0,,600000,,,,,,
96768,note_on,,,,,117,0,1,,,,0,,,51,42
97280,note_off,,,,,512,0,1,,,,0,,,32,0
97280,note_on,,,,,0,0,1,,,,0,,,56,42
97280,note_off,,,,,0,0,1,,,,0,,,51,0
97778,control_change,,,,,498,0,1,,,,0,64,0,,
97792,note_off,,,,,14,0,1,,,,0,,,71,0
97792,note_on,,,,,0,0,1,,,,0,,,72,49
97792,note_on,,,,,0,0,1,,,,0,,,75,66
97792,note_on,,,,,0,0,1,,,,0,,,60,42
97792,note_off,,,,,0,0,1,,,,0,,,74,0
97792,set_tempo,,,,,1024,1,0,,750000,,,,,,
98003,control_change,,,,,211,0,1,,,,0,64,127,,
98304,note_on,,,,,0,0,1,,,,0,,,70,47
98304,note_on,,,,,0,0,1,,,,0,,,56,42
98304,note_off,,,,,0,0,1,,,,0,,,75,0
98304,note_off,,,,,301,0,1,,,,0,,,72,0
98304,set_tempo,,,,,512,1,0,,600000,,,,,,
98304,note_on,,,,,0,0,1,,,,0,,,74,63
98304,note_off,,,,,0,0,1,,,,0,,,56,0
98398,control_change,,,,,94,0,1,,,,0,64,0,,
98595,control_change,,,,,197,0,1,,,,0,64,127,,
98816,set_tempo,,,,,512,1,0,,705882,,,,,,
98816,note_off,,,,,0,0,1,,,,0,,,60,0
98816,note_off,,,,,221,0,1,,,,0,,,70,0
98816,note_off,,,,,0,0,1,,,,0,,,44,0
98816,note_on,,,,,0,0,1,,,,0,,,68,45
98816,note_on,,,,,0,0,1,,,,0,,,72,60
98816,note_on,,,,,0,0,1,,,,0,,,51,42
98816,note_off,,,,,0,0,1,,,,0,,,74,0
98877,control_change,,,,,61,0,1,,,,0,64,0,,
99074,control_change,,,,,197,0,1,,,,0,64,127,,
99328,control_change,,,,,254,0,1,,,,0,64,0,,
99328,control_change,,,,,0,0,1,,,,0,64,0,,
99328,set_tempo,,,,,512,1,0,,750000,,,,,,
99328,control_change,,,,,0,0,1,,,,0,64,0,,
99328,control_change,,,,,0,0,1,,,,0,64,0,,
99328,note_off,,,,,0,0,1,,,,0,,,72,0
99328,note_off,,,,,0,0,1,,,,0,,,51,0
99328,note_off,,,,,0,0,1,,,,0,,,56,0
99328,note_on,,,,,0,0,1,,,,0,,,62,36
99328,note_on,,,,,0,0,1,,,,0,,,67,36
99328,note_on,,,,,0,0,1,,,,0,,,70,58
99328,note_on,,,,,0,0,1,,,,0,,,34,42
99328,note_off,,,,,0,0,1,,,,0,,,68,0
99328,control_change,,,,,0,0,1,,,,0,64,0,,
99384,control_change,,,,,56,0,1,,,,0,64,127,,
99553,control_change,,,,,169,0,1,,,,0,64,0,,
99723,control_change,,,,,170,0,1,,,,0,64,127,,
99840,set_tempo,,,,,512,1,0,,600000,,,,,,
99840,note_on,,,,,117,0,1,,,,0,,,46,37
100352,note_off,,,,,512,0,1,,,,0,,,34,0
100352,note_on,,,,,0,0,1,,,,0,,,50,37
100850,control_change,,,,,498,0,1,,,,0,64,0,,
100864,note_off,,,,,0,0,1,,,,0,,,70,0
100864,set_tempo,,,,,1024,1,0,,705882,,,,,,
100864,note_off,,,,,0,0,1,,,,0,,,50,0
100864,note_on,,,,,0,0,1,,,,0,,,68,42
100864,note_on,,,,,0,0,1,,,,0,,,72,60
100864,note_on,,,,,0,0,1,,,,0,,,58,37
100864,note_off,,,,,14,0,1,,,,0,,,67,0
101075,control_change,,,,,211,0,1,,,,0,64,127,,
101376,set_tempo,,,,,512,1,0,,625000,,,,,,
101376,note_off,,,,,301,0,1,,,,0,,,68,0
101376,note_off,,,,,0,0,1,,,,0,,,72,0
101376,note_off,,,,,0,0,1,,,,0,,,58,0
101376,note_on,,,,,0,0,1,,,,0,,,67,37
101376,note_on,,,,,0,0,1,,,,0,,,70,53
101376,note_on,,,,,0,0,1,,,,0,,,50,37
101470,control_change,,,,,94,0,1,,,,0,64,0,,
101667,control_change,,,,,197,0,1,,,,0,64,127,,
101888,note_off,,,,,221,0,1,,,,0,,,67,0
101888,note_off,,,,,0,0,1,,,,0,,,70,0
101888,note_off,,,,,0,0,1,,,,0,,,50,0
101888,note_on,,,,,0,0,1,,,,0,,,68,39
101888,note_on,,,,,0,0,1,,,,0,,,74,54
101888,note_on,,,,,0,0,1,,,,0,,,53,37
101888,set_tempo,,,,,512,1,0,,800000,,,,,,
101949,control_change,,,,,61,0,1,,,,0,64,0,,
102146,control_change,,,,,197,0,1,,,,0,64,127,,
102400,note_off,,,,,0,0,1,,,,0,,,68,0
102400,note_off,,,,,0,0,1,,,,0,,,62,0
102400,control_change,,,,,254,0,1,,,,0,64,0,,
102400,note_off,,,,,0,0,1,,,,0,,,74,0
102400,control_change,,,,,0,0,1,,,,0,64,127,,
102400,note_on,,,,,0,0,1,,,,0,,,39,29
102400,note_off,,,,,0,0,1,,,,0,,,46,0
102400,note_off,,,,,0,0,1,,,,0,,,53,0
102400,note_on,,,,,0,0,1,,,,0,,,63,31
102400,note_on,,,,,0,0,1,,,,0,,,67,31
102400,note_on,,,,,0,0,1,,,,0,,,75,52
102598,control_change,,,,,198,0,1,,,,0,64,0,,
102829,control_change,,,,,231,0,1,,,,0,64,127,,
102912,note_on,,,,,83,0,1,,,,0,,,46,23
102912,set_tempo,,,,,1024,1,0,,600000,,,,,,
103424,note_on,,,,,0,0,1,,,,0,,,51,21
103424,note_off,,,,,512,0,1,,,,0,,,39,0
103424,note_off,,,,,0,0,1,,,,0,,,46,0
103936,note_off,,,,,512,0,1,,,,0,,,51,0
103936,note_on,,,,,0,0,1,,,,0,,,55,20
104448,note_off,,,,,512,0,1,,,,0,,,55,0
104448,note_on,,,,,0,0,1,,,,0,,,51,18
104960,note_off,,,,,0,0,1,,,,0,,,67,0
104960,note_off,,,,,0,0,1,,,,0,,,75,0
104960,note_off,,,,,512,0,1,,,,0,,,63,0
104960,note_on,,,,,0,0,1,,,,0,,,70,43
104960,set_tempo,,,,,2048,1,0,,750000,,,,,,
104960,note_off,,,,,0,0,1,,,,0,,,51,0
105472,control_change,,,,,512,0,1,,,,0,64,0,,
105472,note_off,,,,,0,0,1,,,,0,,,70,0
105472,note_on,,,,,0,0,1,,,,0,,,68,21
105472,note_on,,,,,0,0,1,,,,0,,,70,44
105472,note_on,,,,,0,0,1,,,,0,,,46,28
105472,control_change,,,,,0,0,1,,,,0,64,127,,
105716,control_change,,,,,244,0,1,,,,0,64,0,,
105961,control_change,,,,,245,0,1,,,,0,64,127,,
105984,note_on,,,,,0,0,1,,,,0,,,53,22
105984,note_off,,,,,23,0,1,,,,0,,,46,0
105984,set_tempo,,,,,1024,1,0,,600000,,,,,,
106496,note_off,,,,,512,0,1,,,,0,,,53,0
106496,note_on,,,,,0,0,1,,,,0,,,58,22
107008,note_on,,,,,0,0,1,,,,0,,,62,22
107008,note_off,,,,,512,0,1,,,,0,,,58,0
107008,set_tempo,,,,,1024,1,0,,705882,,,,,,
107520,note_off,,,,,0,0,1,,,,0,,,62,0
107520,note_on,,,,,0,0,1,,,,0,,,72,44
107520,note_off,,,,,512,0,1,,,,0,,,70,0
107520,note_on,,,,,0,0,1,,,,0,,,58,22
108012,note_off,,,,,492,0,1,,,,0,,,68,0
108032,set_tempo,,,,,1024,1,0,,750000,,,,,,
108032,note_off,,,,,0,0,1,,,,0,,,58,0
108032,note_off,,,,,20,0,1,,,,0,,,72,0
108032,note_on,,,,,0,0,1,,,,0,,,68,26
108032,note_on,,,,,0,0,1,,,,0,,,70,44
108032,note_on,,,,,0,0,1,,,,0,,,53,22
108090,control_change,,,,,58,0,1,,,,0,64,0,,
108265,control_change,,,,,175,0,1,,,,0,64,127,,
108544,note_off,,,,,0,0,1,,,,0,,,68,0
108544,note_on,,,,,0,0,1,,,,0,,,46,28
108544,note_on,,,,,0,0,1,,,,0,,,70,43
108544,note_on,,,,,0,0,1,,,,0,,,67,25
108544,note_off,,,,,0,0,1,,,,0,,,53,0
108544,control_change,,,,,279,0,1,,,,0,64,0,,
108544,control_change,,,,,0,0,1,,,,0,64,127,,
108544,note_off,,,,,0,0,1,,,,0,,,70,0
108711,control_change,,,,,167,0,1,,,,0,64,0,,
109045,control_change,,,,,334,0,1,,,,0,64,127,,
109056,note_on,,,,,11,0,1,,,,0,,,55,22
109056,set_tempo,,,,,1024,1,0,,600000,,,,,,
109568,note_on,,,,,512,0,1,,,,0,,,58,22
110080,note_off,,,,,512,0,1,,,,0,,,67,0
110080,note_off,,,,,0,0,1,,,,0,,,70,0
110080,note_off,,,,,0,0,1,,,,0,,,58,0
110080,note_on,,,,,0,0,1,,,,0,,,63,11
110080,note_on,,,,,0,0,1,,,,0,,,67,29
110080,note_on,,,,,0,0,1,,,,0,,,63,22
110080,set_tempo,,,,,1024,1,0,,705882,,,,,,
110113,control_change,,,,,33,0,1,,,,0,64,0,,
110414,control_change,,,,,301,0,1,,,,0,64,127,,
110592,note_off,,,,,178,0,1,,,,0,,,63,0
110592,note_off,,,,,0,0,1,,,,0,,,67,0
110592,note_off,,,,,0,0,1,,,,0,,,63,0
110592,note_on,,,,,0,0,1,,,,0,,,58,22
110592,set_tempo,,,,,512,1,0,,600000,,,,,,
110848,control_change,,,,,256,0,1,,,,0,64,0,,
111104,note_on,,,,,0,0,1,,,,0,,,55,22
111104,note_on,,,,,256,0,1,,,,0,,,67,29
111104,note_off,,,,,0,0,1,,,,0,,,55,0
111104,note_off,,,,,0,0,1,,,,0,,,46,0
111104,set_tempo,,,,,512,1,0,,800000,,,,,,
111104,note_on,,,,,0,0,1,,,,0,,,75,51
111104,note_off,,,,,0,0,1,,,,0,,,58,0
111282,control_change,,,,,178,0,1,,,,0,64,127,,
111616,control_change,,,,,0,0,1,,,,0,64,127,,
111616,note_on,,,,,0,0,1,,,,0,,,46,28
111616,control_change,,,,,334,0,1,,,,0,64,0,,
111616,note_off,,,,,0,0,1,,,,0,,,67,0
111616,note_off,,,,,0,0,1,,,,0,,,75,0
111616,note_off,,,,,0,0,1,,,,0,,,55,0
111616,note_on,,,,,0,0,1,,,,0,,,68,37
111616,note_on,,,,,0,0,1,,,,0,,,77,59
111791,control_change,,,,,175,0,1,,,,0,64,0,,
112000,control_change,,,,,209,0,1,,,,0,64,127,,
112128,set_tempo,,,,,1024,1,0,,600000,,,,,,
112128,note_on,,,,,128,0,1,,,,0,,,53,22
112628,control_change,,,,,500,0,1,,,,0,64,0,,
112640,note_on,,,,,0,0,1,,,,0,,,58,22
112640,note_on,,,,,0,0,1,,,,0,,,74,48
112640,note_off,,,,,12,0,1,,,,0,,,77,0
112640,set_tempo,,,,,512,1,0,,625000,,,,,,
112943,control_change,,,,,303,0,1,,,,0,64,127,,
113152,set_tempo,,,,,512,1,0,,750000,,,,,,
113152,note_off,,,,,0,0,1,,,,0,,,58,0
113152,note_off,,,,,0,0,1,,,,0,,,74,0
113152,note_on,,,,,0,0,1,,,,0,,,65,33
113152,note_off,,,,,209,0,1,,,,0,,,68,0
113152,note_on,,,,,0,0,1,,,,0,,,68,51
113152,note_on,,,,,0,0,1,,,,0,,,62,22
113187,control_change,,,,,35,0,1,,,,0,64,0,,
113431,control_change,,,,,244,0,1,,,,0,64,127,,
113664,note_off,,,,,233,0,1,,,,0,,,65,0
113664,note_on,,,,,0,0,1,,,,0,,,58,22
113664,note_on,,,,,0,0,1,,,,0,,,72,51
113664,note_on,,,,,0,0,1,,,,0,,,68,31
113664,note_off,,,,,0,0,1,,,,0,,,68,0
113780,control_change,,,,,116,0,1,,,,0,64,0,,
114060,control_change,,,,,280,0,1,,,,0,64,127,,
114176,set_tempo,,,,,1024,1,0,,800000,,,,,,
114176,note_on,,,,,0,0,1,,,,0,,,70,45
114176,note_on,,,,,0,0,1,,,,0,,,68,29
114176,note_off,,,,,0,0,1,,,,0,,,72,0
114176,note_off,,,,,0,0,1,,,,0,,,53,0
114176,note_off,,,,,116,0,1,,,,0,,,68,0
114176,note_off,,,,,0,0,1,,,,0,,,58,0
114176,note_on,,,,,0,0,1,,,,0,,,53,22
114304,control_change,,,,,128,0,1,,,,0,64,0,,
114513,control_change,,,,,209,0,1,,,,0,64,127,,
114688,set_tempo,,,,,512,1,0,,705882,,,,,,
114688,control_change,,,,,175,0,1,,,,0,64,0,,
114688,note_on,,,,,0,0,1,,,,0,,,70,43
114688,note_off,,,,,0,0,1,,,,0,,,70,0
114688,note_off,,,,,0,0,1,,,,0,,,46,0
114688,note_off,,,,,0,0,1,,,,0,,,53,0
114688,note_off,,,,,0,0,1,,,,0,,,62,0
114688,note_on,,,,,0,0,1,,,,0,,,67,25
114688,note_on,,,,,0,0,1,,,,0,,,46,28
114688,note_off,,,,,0,0,1,,,,0,,,68,0
114688,control_change,,,,,0,0,1,,,,0,64,127,,
114851,control_change,,,,,163,0,1,,,,0,64,0,,
115080,control_change,,,,,229,0,1,,,,0,64,127,,
115200,note_on,,,,,120,0,1,,,,0,,,55,22
115200,set_tempo,,,,,512,1,0,,600000,,,,,,
115712,note_on,,,,,512,0,1,,,,0,,,58,22
116191,control_change,,,,,479,0,1,,,,0,64,0,,
116224,note_off,,,,,33,0,1,,,,0,,,67,0
116224,note_off,,,,,0,0,1,,,,0,,,70,0
116224,note_on,,,,,0,0,1,,,,0,,,63,13
116224,note_on,,,,,0,0,1,,,,0,,,67,31
116224,note_on,,,,,0,0,1,,,,0,,,63,22
116224,set_tempo,,,,,1024,1,0,,705882,,,,,,
116420,control_change,,,,,196,0,1,,,,0,64,127,,
116736,note_on,,,,,0,0,1,,,,0,,,58,22
116736,set_tempo,,,,,512,1,0,,625000,,,,,,
116736,note_off,,,,,0,0,1,,,,0,,,63,0
116736,note_off,,,,,0,0,1,,,,0,,,58,0
116736,note_off,,,,,0,0,1,,,,0,,,67,0
116736,note_off,,,,,316,0,1,,,,0,,,63,0
116976,control_change,,,,,240,0,1,,,,0,64,0,,
117248,note_on,,,,,272,0,1,,,,0,,,67,23
117248,set_tempo,,,,,512,1,0,,800000,,,,,,
117248,note_on,,,,,0,0,1,,,,0,,,70,41
117248,note_on,,,,,0,0,1,,,,0,,,55,22
117248,note_off,,,,,0,0,1,,,,0,,,55,0
117248,note_off,,,,,0,0,1,,,,0,,,58,0
117302,control_change,,,,,54,0,1,,,,0,64,127,,
117760,note_on,,,,,0,0,1,,,,0,,,46,18
117760,note_on,,,,,0,0,1,,,,0,,,70,38
117760,note_off,,,,,0,0,1,,,,0,,,55,0
117760,note_off,,,,,0,0,1,,,,0,,,46,0
117760,note_off,,,,,0,0,1,,,,0,,,70,0
117760,note_off,,,,,0,0,1,,,,0,,,67,0
117760,control_change,,,,,0,0,1,,,,0,64,0,,
117760,note_on,,,,,0,0,1,,,,0,,,68,20
117760,control_change,,,,,0,0,1,,,,0,64,0,,
117760,control_change,,,,,458,0,1,,,,0,64,0,,
117760,control_change,,,,,0,0,1,,,,0,64,127,,
118004,control_change,,,,,244,0,1,,,,0,64,0,,
118249,control_change,,,,,245,0,1,,,,0,64,127,,
118272,set_tempo,,,,,1024,1,0,,600000,,,,,,
118272,note_on,,,,,23,0,1,,,,0,,,53,12
118784,note_on,,,,,0,0,1,,,,0,,,58,12
118784,note_off,,,,,512,0,1,,,,0,,,53,0
119296,note_on,,,,,0,0,1,,,,0,,,62,12
119296,note_off,,,,,512,0,1,,,,0,,,58,0
119296,set_tempo,,,,,1024,1,0,,705882,,,,,,
119808,set_tempo,,,,,512,1,0,,750000,,,,,,
119808,note_off,,,,,512,0,1,,,,0,,,70,0
119808,note_on,,,,,0,0,1,,,,0,,,71,34
119808,note_on,,,,,0,0,1,,,,0,,,58,12
120300,note_off,,,,,492,0,1,,,,0,,,68,0
120320,set_tempo,,,,,512,1,0,,750000,,,,,,
120320,note_off,,,,,20,0,1,,,,0,,,71,0
120320,note_on,,,,,0,0,1,,,,0,,,68,16
120320,note_on,,,,,0,0,1,,,,0,,,70,34
120320,note_on,,,,,0,0,1,,,,0,,,53,12
120320,note_off,,,,,0,0,1,,,,0,,,58,0
120378,control_change,,,,,58,0,1,,,,0,64,0,,
120553,control_change,,,,,175,0,1,,,,0,64,127,,
120832,control_change,,,,,0,0,1,,,,0,64,127,,
120832,control_change,,,,,0,0,1,,,,0,64,0,,
120832,note_on,,,,,0,0,1,,,,0,,,46,18
120832,note_on,,,,,0,0,1,,,,0,,,70,38
120832,note_off,,,,,0,0,1,,,,0,,,62,0
120832,note_off,,,,,0,0,1,,,,0,,,53,0
120832,note_on,,,,,0,0,1,,,,0,,,66,20
120832,note_off,,,,,0,0,1,,,,0,,,70,0
120832,note_off,,,,,0,0,1,,,,0,,,68,0
120832,control_change,,,,,0,0,1,,,,0,64,0,,
120832,note_off,,,,,0,0,1,,,,0,,,46,0
120832,control_change,,,,,279,0,1,,,,0,64,0,,
120999,control_change,,,,,167,0,1,,,,0,64,0,,
121333,control_change,,,,,334,0,1,,,,0,64,127,,
121344,set_tempo,,,,,1024,1,0,,600000,,,,,,
121344,note_on,,,,,11,0,1,,,,0,,,54,12
121856,note_on,,,,,512,0,1,,,,0,,,58,12
122368,set_tempo,,,,,1024,1,0,,666666,,,,,,
122368,note_off,,,,,0,0,1,,,,0,,,58,0
122368,note_on,,,,,0,0,1,,,,0,,,75,35
122368,note_off,,,,,512,0,1,,,,0,,,70,0
122368,note_on,,,,,0,0,1,,,,0,,,63,12
122401,control_change,,,,,33,0,1,,,,0,64,0,,
122702,control_change,,,,,301,0,1,,,,0,64,127,,
122880,note_off,,,,,178,0,1,,,,0,,,63,0
122880,note_on,,,,,0,0,1,,,,0,,,58,12
122880,set_tempo,,,,,512,1,0,,750000,,,,,,
123136,control_change,,,,,256,0,1,,,,0,64,0,,
123392,set_tempo,,,,,512,1,0,,1000000,,,,,,
123392,note_on,,,,,0,0,1,,,,0,,,54,12
123392,note_off,,,,,0,0,1,,,,0,,,58,0
123392,note_on,,,,,0,0,1,,,,0,,,66,20
123392,note_off,,,,,0,0,1,,,,0,,,54,0
123392,note_off,,,,,0,0,1,,,,0,,,75,0
123392,note_off,,,,,256,0,1,,,,0,,,66,0
123392,note_on,,,,,0,0,1,,,,0,,,78,42
123570,control_change,,,,,178,0,1,,,,0,64,127,,
123904,note_on,,,,,0,0,1,,,,0,,,51,13
123904,set_tempo,,,,,512,1,0,,857142,,,,,,
123904,note_on,,,,,0,0,1,,,,0,,,47,18
123904,note_on,,,,,0,0,1,,,,0,,,56,18
123904,control_change,,,,,334,0,1,,,,0,64,0,,
123904,control_change,,,,,0,0,1,,,,0,64,127,,
123904,note_on,,,,,0,0,1,,,,0,,,80,47
123904,note_off,,,,,0,0,1,,,,0,,,66,0
123904,note_off,,,,,0,0,1,,,,0,,,78,0
123904,note_off,,,,,0,0,1,,,,0,,,46,0
123904,note_off,,,,,0,0,1,,,,0,,,54,0
123904,note_on,,,,,0,0,1,,,,0,,,68,31
124075,control_change,,,,,171,0,1,,,,0,64,0,,
124382,control_change,,,,,307,0,1,,,,0,64,127,,
124928,note_on,,,,,0,0,1,,,,0,,,54,16
124928,note_on,,,,,0,0,1,,,,0,,,78,43
124928,note_on,,,,,0,0,1,,,,0,,,66,27
124928,set_tempo,,,,,1024,1,0,,800000,,,,,,
124928,note_off,,,,,0,0,1,,,,0,,,80,0
124928,note_off,,,,,0,0,1,,,,0,,,56,0
124928,note_off,,,,,546,0,1,,,,0,,,68,0
125440,note_on,,,,,0,0,1,,,,0,,,53,16
125440,note_off,,,,,512,0,1,,,,0,,,66,0
125440,note_off,,,,,0,0,1,,,,0,,,78,0
125440,note_off,,,,,0,0,1,,,,0,,,54,0
125440,set_tempo,,,,,512,1,0,,857142,,,,,,
125440,note_on,,,,,0,0,1,,,,0,,,77,41
125440,note_on,,,,,0,0,1,,,,0,,,65,25
125474,control_change,,,,,34,0,1,,,,0,64,0,,
125611,control_change,,,,,137,0,1,,,,0,64,127,,
125952,set_tempo,,,,,512,1,0,,750000,,,,,,
125952,note_on,,,,,0,0,1,,,,0,,,54,18
125952,note_off,,,,,341,0,1,,,,0,,,65,0
125952,note_on,,,,,0,0,1,,,,0,,,66,24
125952,note_off,,,,,0,0,1,,,,0,,,77,0
125952,note_off,,,,,0,0,1,,,,0,,,53,0
125952,note_on,,,,,0,0,1,,,,0,,,78,40
126020,control_change,,,,,68,0,1,,,,0,64,0,,
126191,control_change,,,,,171,0,1,,,,0,64,127,,
126464,set_tempo,,,,,512,1,0,,1000000,,,,,,
126464,note_on,,,,,0,0,1,,,,0,,,57,15
126464,note_on,,,,,0,0,1,,,,0,,,51,8
126464,note_off,,,,,0,0,1,,,,0,,,54,0
126464,note_off,,,,,0,0,1,,,,0,,,78,0
126464,note_off,,,,,273,0,1,,,,0,,,66,0
126464,note_on,,,,,0,0,1,,,,0,,,75,38
126464,note_on,,,,,0,0,1,,,,0,,,63,22
126532,control_change,,,,,68,0,1,,,,0,64,0,,
126737,control_change,,,,,205,0,1,,,,0,64,127,,
126976,set_tempo,,,,,512,1,0,,1090909,,,,,,
126976,note_off,,,,,0,0,1,,,,0,,,57,0
126976,note_off,,,,,0,0,1,,,,0,,,51,0
126976,control_change,,,,,239,0,1,,,,0,64,0,,
126976,control_change,,,,,0,0,1,,,,0,64,127,,
126976,note_off,,,,,0,0,1,,,,0,,,63,0
126976,note_off,,,,,0,0,1,,,,0,,,75,0
126976,note_off,,,,,0,0,1,,,,0,,,47,0
126976,note_on,,,,,0,0,1,,,,0,,,74,36
126976,note_on,,,,,0,0,1,,,,0,,,62,20
126976,note_on,,,,,0,0,1,,,,0,,,50,11
126976,note_on,,,,,0,0,1,,,,0,,,46,11
126976,note_off,,,,,0,0,1,,,,0,,,51,0
126976,note_on,,,,,0,0,1,,,,0,,,58,18
127204,control_change,,,,,228,0,1,,,,0,64,0,,
127507,control_change,,,,,303,0,1,,,,0,64,127,,
128512,note_on,,,,,0,0,1,,,,0,,,53,9
128512,note_off,,,,,1005,0,1,,,,0,,,62,0
128512,note_off,,,,,0,0,1,,,,0,,,74,0
128512,note_off,,,,,0,0,1,,,,0,,,50,0
128512,note_on,,,,,0,0,1,,,,0,,,65,11
128512,note_on,,,,,0,0,1,,,,0,,,77,23
128569,control_change,,,,,57,0,1,,,,0,64,0,,
128834,control_change,,,,,265,0,1,,,,0,64,127,,
129536,set_tempo,,,,,2560,1,0,,1000000,,,,,,
129536,note_off,,,,,702,0,1,,,,0,,,65,0
129536,note_off,,,,,0,0,1,,,,0,,,77,0
129536,note_off,,,,,0,0,1,,,,0,,,46,0
129536,note_off,,,,,0,0,1,,,,0,,,53,0
129536,note_off,,,,,0,0,1,,,,0,,,58,0
129536,note_on,,,,,0,0,1,,,,0,,,67,33
129536,note_on,,,,,0,0,1,,,,0,,,70,49
129555,control_change,,,,,19,0,1,,,,0,64,0,,
129858,control_change,,,,,303,0,1,,,,0,64,127,,
130048,note_on,,,,,0,0,1,,,,0,,,70,57
130048,note_on,,,,,0,0,1,,,,0,,,51,33
130048,note_on,,,,,0,0,1,,,,0,,,39,21
130048,note_off,,,,,0,0,1,,,,0,,,70,0
130048,note_on,,,,,0,0,1,,,,0,,,67,39
130048,control_change,,,,,0,0,1,,,,0,64,0,,
130048,control_change,,,,,190,0,1,,,,0,64,0,,
130048,note_off,,,,,0,0,1,,,,0,,,67,0
130079,control_change,,,,,31,0,1,,,,0,64,127,,
130263,control_change,,,,,184,0,1,,,,0,64,0,,
130447,control_change,,,,,184,0,1,,,,0,64,127,,
130560,set_tempo,,,,,1024,1,0,,600000,,,,,,
130560,note_on,,,,,113,0,1,,,,0,,,55,28
131072,note_on,,,,,0,0,1,,,,0,,,58,28
131072,note_off,,,,,0,0,1,,,,0,,,55,0
131072,note_off,,,,,512,0,1,,,,0,,,39,0
131072,note_off,,,,,0,0,1,,,,0,,,51,0
131584,note_off,,,,,512,0,1,,,,0,,,58,0
131584,note_on,,,,,0,0,1,,,,0,,,63,28
132096,note_on,,,,,0,0,1,,,,0,,,79,64
132096,note_on,,,,,0,0,1,,,,0,,,58,28
132096,note_on,,,,,0,0,1,,,,0,,,75,46
132096,note_off,,,,,512,0,1,,,,0,,,67,0
132096,note_off,,,,,0,0,1,,,,0,,,70,0
132096,set_tempo,,,,,1536,1,0,,750000,,,,,,
132096,note_off,,,,,0,0,1,,,,0,,,63,0
132598,control_change,,,,,502,0,1,,,,0,64,0,,
132608,note_off,,,,,10,0,1,,,,0,,,75,0
132608,note_off,,,,,0,0,1,,,,0,,,79,0
132608,note_off,,,,,0,0,1,,,,0,,,58,0
132608,note_on,,,,,0,0,1,,,,0,,,74,41
132608,note_on,,,,,0,0,1,,,,0,,,77,59
132608,note_on,,,,,0,0,1,,,,0,,,55,28
132608,set_tempo,,,,,512,1,0,,800000,,,,,,
132782,control_change,,,,,174,0,1,,,,0,64,127,,
133120,control_change,,,,,0,0,1,,,,0,64,0,,
133120,set_tempo,,,,,512,1,0,,750000,,,,,,
133120,note_on,,,,,0,0,1,,,,0,,,44,33
133120,note_on,,,,,0,0,1,,,,0,,,32,21
133120,note_on,,,,,0,0,1,,,,0,,,74,60
133120,note_on,,,,,0,0,1,,,,0,,,71,42
133120,note_off,,,,,0,0,1,,,,0,,,55,0
133120,note_off,,,,,0,0,1,,,,0,,,77,0
133120,control_change,,,,,338,0,1,,,,0,64,0,,
133120,note_off,,,,,0,0,1,,,,0,,,74,0
133176,control_change,,,,,56,0,1,,,,0,64,127,,
133345,control_change,,,,,169,0,1,,,,0,64,0,,
133515,control_change,,,,,170,0,1,,,,0,64,127,,
133632,set_tempo,,,,,512,1,0,,600000,,,,,,
133632,note_on,,,,,117,0,1,,,,0,,,51,28
134144,note_on,,,,,0,0,1,,,,0,,,56,28
134144,note_off,,,,,512,0,1,,,,0,,,32,0
134144,note_off,,,,,0,0,1,,,,0,,,51,0
134642,control_change,,,,,498,0,1,,,,0,64,0,,
134656,set_tempo,,,,,1024,1,0,,750000,,,,,,
134656,note_off,,,,,14,0,1,,,,0,,,71,0
134656,note_off,,,,,0,0,1,,,,0,,,74,0
134656,note_off,,,,,0,0,1,,,,0,,,56,0
134656,note_on,,,,,0,0,1,,,,0,,,72,43
134656,note_on,,,,,0,0,1,,,,0,,,75,60
134656,note_on,,,,,0,0,1,,,,0,,,60,28
134867,control_change,,,,,211,0,1,,,,0,64,127,,
135168,note_on,,,,,0,0,1,,,,0,,,56,28
135168,note_on,,,,,0,0,1,,,,0,,,74,57
135168,note_off,,,,,0,0,1,,,,0,,,60,0
135168,note_on,,,,,0,0,1,,,,0,,,70,41
135168,note_off,,,,,0,0,1,,,,0,,,75,0
135168,note_off,,,,,301,0,1,,,,0,,,72,0
135168,set_tempo,,,,,512,1,0,,600000,,,,,,
135262,control_change,,,,,94,0,1,,,,0,64,0,,
135459,control_change,,,,,197,0,1,,,,0,64,127,,
135680,note_off,,,,,0,0,1,,,,0,,,74,0
135680,note_on,,,,,0,0,1,,,,0,,,51,28
135680,note_on,,,,,0,0,1,,,,0,,,68,39
135680,note_on,,,,,0,0,1,,,,0,,,72,54
135680,note_off,,,,,221,0,1,,,,0,,,70,0
135680,set_tempo,,,,,512,1,0,,705882,,,,,,
135680,note_off,,,,,0,0,1,,,,0,,,56,0
135741,control_change,,,,,61,0,1,,,,0,64,0,,
135938,control_change,,,,,197,0,1,,,,0,64,127,,
136192,note_on,,,,,0,0,1,,,,0,,,62,33
136192,note_on,,,,,0,0,1,,,,0,,,34,33
136192,note_on,,,,,0,0,1,,,,0,,,70,51
136192,note_on,,,,,0,0,1,,,,0,,,67,33
136192,note_off,,,,,0,0,1,,,,0,,,51,0
136192,set_tempo,,,,,512,1,0,,750000,,,,,,
136192,note_off,,,,,0,0,1,,,,0,,,72,0
136192,note_off,,,,,0,0,1,,,,0,,,68,0
136192,control_change,,,,,0,0,1,,,,0,64,0,,
136192,control_change,,,,,254,0,1,,,,0,64,0,,
136192,note_off,,,,,0,0,1,,,,0,,,44,0
136192,control_change,,,,,0,0,1,,,,0,64,0,,
136248,control_change,,,,,56,0,1,,,,0,64,127,,
136417,control_change,,,,,169,0,1,,,,0,64,0,,
136587,control_change,,,,,170,0,1,,,,0,64,127,,
136704,note_on,,,,,117,0,1,,,,0,,,46,28
136704,set_tempo,,,,,512,1,0,,600000,,,,,,
137216,note_off,,,,,512,0,1,,,,0,,,34,0
137216,note_on,,,,,0,0,1,,,,0,,,50,28
137714,control_change,,,,,498,0,1,,,,0,64,0,,
137728,set_tempo,,,,,1024,1,0,,705882,,,,,,
137728,note_off,,,,,14,0,1,,,,0,,,67,0
137728,note_off,,,,,0,0,1,,,,0,,,70,0
137728,note_off,,,,,0,0,1,,,,0,,,50,0
137728,note_on,,,,,0,0,1,,,,0,,,68,35
137728,note_on,,,,,0,0,1,,,,0,,,72,53
137728,note_on,,,,,0,0,1,,,,0,,,58,28
137939,control_change,,,,,211,0,1,,,,0,64,127,,
138240,note_off,,,,,301,0,1,,,,0,,,68,0
138240,note_off,,,,,0,0,1,,,,0,,,58,0
138240,note_on,,,,,0,0,1,,,,0,,,67,34
138240,note_on,,,,,0,0,1,,,,0,,,70,50
138240,note_on,,,,,0,0,1,,,,0,,,50,28
138240,set_tempo,,,,,512,1,0,,625000,,,,,,
138240,note_off,,,,,0,0,1,,,,0,,,72,0
138334,control_change,,,,,94,0,1,,,,0,64,0,,
138531,control_change,,,,,197,0,1,,,,0,64,127,,
138752,note_on,,,,,0,0,1,,,,0,,,46,28
138752,note_off,,,,,221,0,1,,,,0,,,67,0
138752,note_off,,,,,0,0,1,,,,0,,,70,0
138752,note_off,,,,,0,0,1,,,,0,,,46,0
138752,note_on,,,,,0,0,1,,,,0,,,68,47
138752,note_off,,,,,0,0,1,,,,0,,,50,0
138752,note_on,,,,,0,0,1,,,,0,,,65,32
138752,set_tempo,,,,,512,1,0,,750000,,,,,,
138813,control_change,,,,,61,0,1,,,,0,64,0,,
139010,control_change,,,,,197,0,1,,,,0,64,127,,
139264,note_on,,,,,0,0,1,,,,0,,,67,46
139264,set_tempo,,,,,512,1,0,,800000,,,,,,
139264,control_change,,,,,254,0,1,,,,0,64,0,,
139264,control_change,,,,,0,0,1,,,,0,64,0,,
139264,control_change,,,,,0,0,1,,,,0,64,0,,
139264,note_off,,,,,0,0,1,,,,0,,,62,0
139264,note_off,,,,,0,0,1,,,,0,,,65,0
139264,note_off,,,,,0,0,1,,,,0,,,68,0
139264,note_on,,,,,0,0,1,,,,0,,,39,33
139264,note_on,,,,,0,0,1,,,,0,,,63,31
139264,note_off,,,,,0,0,1,,,,0,,,46,0
139320,control_change,,,,,56,0,1,,,,0,64,127,,
139489,control_change,,,,,169,0,1,,,,0,64,0,,
139659,control_change,,,,,170,0,1,,,,0,64,127,,
139776,note_on,,,,,117,0,1,,,,0,,,51,28
139776,set_tempo,,,,,512,1,0,,600000,,,,,,
140288,note_off,,,,,512,0,1,,,,0,,,39,0
140288,note_on,,,,,0,0,1,,,,0,,,55,28
140786,control_change,,,,,498,0,1,,,,0,64,0,,
140800,set_tempo,,,,,1024,1,0,,800000,,,,,,
140800,note_off,,,,,0,0,1,,,,0,,,55,0
140800,note_off,,,,,0,0,1,,,,0,,,67,0
140800,note_off,,,,,14,0,1,,,,0,,,63,0
140800,note_on,,,,,0,0,1,,,,0,,,70,49
140800,note_on,,,,,0,0,1,,,,0,,,58,28
140800,note_on,,,,,0,0,1,,,,0,,,67,31
141011,control_change,,,,,211,0,1,,,,0,64,127,,
141312,set_tempo,,,,,512,1,0,,625000,,,,,,
141312,note_off,,,,,301,0,1,,,,0,,,67,0
141312,note_on,,,,,0,0,1,,,,0,,,55,33
141312,note_on,,,,,0,0,1,,,,0,,,67,53
141312,note_on,,,,,0,0,1,,,,0,,,63,35
141312,note_off,,,,,0,0,1,,,,0,,,58,0
141312,note_off,,,,,0,0,1,,,,0,,,70,0
141406,control_change,,,,,94,0,1,,,,0,64,0,,
141603,control_change,,,,,197,0,1,,,,0,64,127,,
141824,note_off,,,,,221,0,1,,,,0,,,63,0
141824,note_off,,,,,0,0,1,,,,0,,,67,0
141824,note_off,,,,,0,0,1,,,,0,,,51,0
141824,note_on,,,,,0,0,1,,,,0,,,65,38
141824,note_on,,,,,0,0,1,,,,0,,,68,56
141824,note_on,,,,,0,0,1,,,,0,,,51,37
141824,set_tempo,,,,,512,1,0,,750000,,,,,,
141824,note_off,,,,,0,0,1,,,,0,,,55,0
141885,control_change,,,,,61,0,1,,,,0,64,0,,
142082,control_change,,,,,197,0,1,,,,0,64,127,,
142336,control_change,,,,,0,0,1,,,,0,64,0,,
142336,note_on,,,,,0,0,1,,,,0,,,39,40
142336,note_on,,,,,0,0,1,,,,0,,,67,44
142336,note_off,,,,,0,0,1,,,,0,,,51,0
142336,note_off,,,,,0,0,1,,,,0,,,68,0
142336,note_on,,,,,0,0,1,,,,0,,,70,62
142336,control_change,,,,,0,0,1,,,,0,64,0,,
142336,control_change,,,,,254,0,1,,,,0,64,0,,
142336,note_off,,,,,0,0,1,,,,0,,,65,0
142336,control_change,,,,,0,0,1,,,,0,64,0,,
142367,control_change,,,,,31,0,1,,,,0,64,127,,
142551,control_change,,,,,184,0,1,,,,0,64,0,,
142735,control_change,,,,,184,0,1,,,,0,64,127,,
142848,set_tempo,,,,,1024,1,0,,600000,,,,,,
142848,note_on,,,,,113,0,1,,,,0,,,55,42
143360,note_on,,,,,512,0,1,,,,0,,,58,42
143872,note_off,,,,,512,0,1,,,,0,,,58,0
143872,note_on,,,,,0,0,1,,,,0,,,63,42
144384,set_tempo,,,,,1536,1,0,,750000,,,,,,
144384,note_off,,,,,0,0,1,,,,0,,,70,0
144384,note_off,,,,,512,0,1,,,,0,,,67,0
144384,note_on,,,,,0,0,1,,,,0,,,79,69
144384,note_on,,,,,0,0,1,,,,0,,,58,42
144384,note_on,,,,,0,0,1,,,,0,,,75,51
144384,note_off,,,,,0,0,1,,,,0,,,63,0
144886,control_change,,,,,502,0,1,,,,0,64,0,,
144896,note_off,,,,,0,0,1,,,,0,,,79,0
144896,note_off,,,,,0,0,1,,,,0,,,55,0
144896,note_off,,,,,0,0,1,,,,0,,,58,0
144896,note_on,,,,,0,0,1,,,,0,,,74,46
144896,note_on,,,,,0,0,1,,,,0,,,77,64
144896,note_on,,,,,0,0,1,,,,0,,,55,42
144896,note_off,,,,,10,0,1,,,,0,,,75,0
144896,set_tempo,,,,,512,1,0,,800000,,,,,,
145070,control_change,,,,,174,0,1,,,,0,64,127,,
145408,note_on,,,,,0,0,1,,,,0,,,44,42
145408,note_on,,,,,0,0,1,,,,0,,,32,30
145408,note_on,,,,,0,0,1,,,,0,,,74,69
145408,note_on,,,,,0,0,1,,,,0,,,71,51
145408,control_change,,,,,0,0,1,,,,0,64,0,,
145408,note_off,,,,,0,0,1,,,,0,,,39,0
145408,note_off,,,,,0,0,1,,,,0,,,77,0
145408,control_change,,,,,0,0,1,,,,0,64,0,,
145408,control_change,,,,,338,0,1,,,,0,64,0,,
145408,note_off,,,,,0,0,1,,,,0,,,55,0
145408,control_change,,,,,0,0,1,,,,0,64,0,,
145408,note_off,,,,,0,0,1,,,,0,,,74,0
145408,set_tempo,,,,,512,1,0,,750000,,,,,,
145464,control_change,,,,,56,0,1,,,,0,64,127,,
145633,control_change,,,,,169,0,1,,,,0,64,0,,
145803,control_change,,,,,170,0,1,,,,0,64,127,,
145920,note_on,,,,,117,0,1,,,,0,,,51,42
145920,set_tempo,,,,,512,1,0,,600000,,,,,,
146432,note_off,,,,,512,0,1,,,,0,,,32,0
146432,note_on,,,,,0,0,1,,,,0,,,56,42
146432,note_off,,,,,0,0,1,,,,0,,,51,0
146930,control_change,,,,,498,0,1,,,,0,64,0,,
146944,note_on,,,,,0,0,1,,,,0,,,75,66
146944,set_tempo,,,,,1024,1,0,,750000,,,,,,
146944,note_off,,,,,14,0,1,,,,0,,,71,0
146944,note_off,,,,,0,0,1,,,,0,,,74,0
146944,note_on,,,,,0,0,1,,,,0,,,72,49
146944,note_on,,,,,0,0,1,,,,0,,,60,42
147155,control_change,,,,,211,0,1,,,,0,64,127,,
147456,set_tempo,,,,,512,1,0,,600000,,,,,,
147456,note_on,,,,,0,0,1,,,,0,,,74,63
147456,note_on,,,,,0,0,1,,,,0,,,56,42
147456,note_off,,,,,301,0,1,,,,0,,,72,0
147456,note_off,,,,,0,0,1,,,,0,,,75,0
147456,note_off,,,,,0,0,1,,,,0,,,56,0
147456,note_on,,,,,0,0,1,,,,0,,,70,47
147550,control_change,,,,,94,0,1,,,,0,64,0,,
147747,control_change,,,,,197,0,1,,,,0,64,127,,
147968,set_tempo,,,,,512,1,0,,705882,,,,,,
147968,note_off,,,,,221,0,1,,,,0,,,70,0
147968,note_off,,,,,0,0,1,,,,0,,,74,0
147968,note_off,,,,,0,0,1,,,,0,,,44,0
147968,note_off,,,,,0,0,1,,,,0,,,60,0
147968,note_on,,,,,0,0,1,,,,0,,,68,45
147968,note_on,,,,,0,0,1,,,,0,,,72,60
147968,note_on,,,,,0,0,1,,,,0,,,51,42
148029,control_change,,,,,61,0,1,,,,0,64,0,,
148226,control_change,,,,,197,0,1,,,,0,64,127,,
148480,note_off,,,,,0,0,1,,,,0,,,72,0
148480,note_off,,,,,0,0,1,,,,0,,,68,0
148480,control_change,,,,,0,0,1,,,,0,64,0,,
148480,control_change,,,,,0,0,1,,,,0,64,0,,
148480,note_on,,,,,0,0,1,,,,0,,,62,36
148480,control_change,,,,,0,0,1,,,,0,64,0,,
148480,control_change,,,,,254,0,1,,,,0,64,0,,
148480,note_off,,,,,0,0,1,,,,0,,,56,0
148480,control_change,,,,,0,0,1,,,,0,64,0,,
148480,note_off,,,,,0,0,1,,,,0,,,51,0
148480,note_on,,,,,0,0,1,,,,0,,,70,58
148480,set_tempo,,,,,512,1,0,,750000,,,,,,
148480,note_on,,,,,0,0,1,,,,0,,,34,42
148480,note_on,,,,,0,0,1,,,,0,,,67,36
148536,control_change,,,,,56,0,1,,,,0,64,127,,
148705,control_change,,,,,169,0,1,,,,0,64,0,,
148875,control_change,,,,,170,0,1,,,,0,64,127,,
148992,note_on,,,,,117,0,1,,,,0,,,46,37
148992,set_tempo,,,,,512,1,0,,600000,,,,,,
149504,note_off,,,,,512,0,1,,,,0,,,34,0
149504,note_on,,,,,0,0,1,,,,0,,,50,37
150002,control_change,,,,,498,0,1,,,,0,64,0,,
150016,note_off,,,,,14,0,1,,,,0,,,67,0
150016,note_off,,,,,0,0,1,,,,0,,,70,0
150016,note_off,,,,,0,0,1,,,,0,,,50,0
150016,note_on,,,,,0,0,1,,,,0,,,68,42
150016,note_on,,,,,0,0,1,,,,0,,,72,60
150016,note_on,,,,,0,0,1,,,,0,,,58,37
150016,set_tempo,,,,,1024,1,0,,705882,,,,,,
150227,control_change,,,,,211,0,1,,,,0,64,127,,
150528,set_tempo,,,,,512,1,0,,625000,,,,,,
150528,note_on,,,,,0,0,1,,,,0,,,50,37
150528,note_on,,,,,0,0,1,,,,0,,,70,53
150528,note_off,,,,,301,0,1,,,,0,,,68,0
150528,note_on,,,,,0,0,1,,,,0,,,67,37
150528,note_off,,,,,0,0,1,,,,0,,,58,0
150528,note_off,,,,,0,0,1,,,,0,,,72,0
150622,control_change,,,,,94,0,1,,,,0,64,0,,
150819,control_change,,,,,197,0,1,,,,0,64,127,,
151040,note_off,,,,,0,0,1,,,,0,,,70,0
151040,note_off,,,,,0,0,1,,,,0,,,50,0
151040,note_on,,,,,0,0,1,,,,0,,,68,39
151040,note_on,,,,,0,0,1,,,,0,,,74,54
151040,note_on,,,,,0,0,1,,,,0,,,53,37
151040,set_tempo,,,,,512,1,0,,800000,,,,,,
151040,note_off,,,,,221,0,1,,,,0,,,67,0
151101,control_change,,,,,61,0,1,,,,0,64,0,,
151298,control_change,,,,,197,0,1,,,,0,64,127,,
151552,control_change,,,,,0,0,1,,,,0,64,0,,
151552,control_change,,,,,0,0,1,,,,0,64,127,,
151552,control_change,,,,,0,0,1,,,,0,64,0,,
151552,note_off,,,,,0,0,1,,,,0,,,62,0
151552,note_off,,,,,0,0,1,,,,0,,,68,0
151552,note_off,,,,,0,0,1,,,,0,,,74,0
151552,note_off,,,,,0,0,1,,,,0,,,46,0
151552,note_off,,,,,0,0,1,,,,0,,,53,0
151552,note_on,,,,,0,0,1,,,,0,,,63,31
151552,note_on,,,,,0,0,1,,,,0,,,67,31
151552,note_on,,,,,0,0,1,,,,0,,,75,52
151552,note_on,,,,,0,0,1,,,,0,,,39,26
151552,control_change,,,,,254,0,1,,,,0,64,0,,
151750,control_change,,,,,198,0,1,,,,0,64,0,,
151981,control_change,,,,,231,0,1,,,,0,64,127,,
152064,set_tempo,,,,,1024,1,0,,600000,,,,,,
152064,note_on,,,,,83,0,1,,,,0,,,46,20
152576,note_off,,,,,512,0,1,,,,0,,,39,0
152576,note_off,,,,,0,0,1,,,,0,,,46,0
152576,note_on,,,,,0,0,1,,,,0,,,51,20
153088,note_off,,,,,512,0,1,,,,0,,,51,0
153088,note_on,,,,,0,0,1,,,,0,,,55,20
153600,note_off,,,,,512,0,1,,,,0,,,55,0
153600,note_on,,,,,0,0,1,,,,0,,,51,20
154112,note_off,,,,,512,0,1,,,,0,,,63,0
154112,note_off,,,,,0,0,1,,,,0,,,67,0
154112,note_off,,,,,0,0,1,,,,0,,,51,0
154112,note_on,,,,,0,0,1,,,,0,,,67,27
154112,note_on,,,,,0,0,1,,,,0,,,70,43
154112,note_on,,,,,0,0,1,,,,0,,,46,20
154112,note_off,,,,,0,0,1,,,,0,,,75,0
154112,set_tempo,,,,,2048,1,0,,800000,,,,,,
154624,set_tempo,,,,,512,1,0,,750000,,,,,,
154624,note_on,,,,,0,0,1,,,,0,,,34,26
154624,note_on,,,,,0,0,1,,,,0,,,70,43
154624,note_on,,,,,0,0,1,,,,0,,,68,27
154624,note_off,,,,,0,0,1,,,,0,,,46,0
154624,note_off,,,,,0,0,1,,,,0,,,70,0
154624,note_off,,,,,0,0,1,,,,0,,,67,0
154624,control_change,,,,,0,0,1,,,,0,64,127,,
154624,control_change,,,,,512,0,1,,,,0,64,0,,
154872,control_change,,,,,248,0,1,,,,0,64,0,,
155089,control_change,,,,,217,0,1,,,,0,64,127,,
155136,note_on,,,,,47,0,1,,,,0,,,46,20
155136,set_tempo,,,,,512,1,0,,600000,,,,,,
155648,note_off,,,,,512,0,1,,,,0,,,34,0
155648,note_off,,,,,0,0,1,,,,0,,,46,0
155648,note_on,,,,,0,0,1,,,,0,,,53,20
156160,set_tempo,,,,,1024,1,0,,800000,,,,,,
156160,note_off,,,,,0,0,1,,,,0,,,53,0
156160,note_off,,,,,512,0,1,,,,0,,,70,0
156160,note_on,,,,,0,0,1,,,,0,,,72,46
156160,note_on,,,,,0,0,1,,,,0,,,56,20
156672,note_on,,,,,0,0,1,,,,0,,,70,43
156672,note_on,,,,,0,0,1,,,,0,,,53,20
156672,note_off,,,,,0,0,1,,,,0,,,56,0
156672,set_tempo,,,,,512,1,0,,666666,,,,,,
156672,note_off,,,,,512,0,1,,,,0,,,72,0
157184,note_off,,,,,0,0,1,,,,0,,,53,0
157184,note_on,,,,,0,0,1,,,,0,,,46,20
157184,note_on,,,,,0,0,1,,,,0,,,74,47
157184,note_off,,,,,512,0,1,,,,0,,,70,0
157696,note_on,,,,,0,0,1,,,,0,,,67,27
157696,note_off,,,,,0,0,1,,,,0,,,46,0
157696,note_off,,,,,0,0,1,,,,0,,,74,0
157696,note_off,,,,,0,0,1,,,,0,,,68,0
157696,control_change,,,,,0,0,1,,,,0,64,127,,
157696,control_change,,,,,512,0,1,,,,0,64,0,,
157696,note_on,,,,,0,0,1,,,,0,,,39,26
157696,note_on,,,,,0,0,1,,,,0,,,77,49
157875,control_change,,,,,179,0,1,,,,0,64,0,,
158084,control_change,,,,,209,0,1,,,,0,64,127,,
158208,set_tempo,,,,,1536,1,0,,600000,,,,,,
158208,note_on,,,,,124,0,1,,,,0,,,46,20
158720,note_off,,,,,512,0,1,,,,0,,,46,0
158720,note_on,,,,,0,0,1,,,,0,,,51,20
159232,note_off,,,,,512,0,1,,,,0,,,77,0
159232,note_on,,,,,0,0,1,,,,0,,,75,37
159232,note_on,,,,,0,0,1,,,,0,,,55,20
159232,note_off,,,,,0,0,1,,,,0,,,51,0
159232,set_tempo,,,,,1024,1,0,,705882,,,,,,
159247,control_change,,,,,15,0,1,,,,0,64,0,,
159515,control_change,,,,,268,0,1,,,,0,64,127,,
159744,set_tempo,,,,,512,1,0,,625000,,,,,,
159744,note_on,,,,,229,0,1,,,,0,,,51,20
160256,note_on,,,,,0,0,1,,,,0,,,67,40
160256,note_off,,,,,512,0,1,,,,0,,,67,0
160256,note_off,,,,,0,0,1,,,,0,,,75,0
160256,note_off,,,,,0,0,1,,,,0,,,39,0
160256,note_off,,,,,0,0,1,,,,0,,,51,0
160256,note_off,,,,,0,0,1,,,,0,,,55,0
160256,note_on,,,,,0,0,1,,,,0,,,63,24
160256,note_on,,,,,0,0,1,,,,0,,,46,20
160256,set_tempo,,,,,512,1,0,,800000,,,,,,
160768,note_off,,,,,0,0,1,,,,0,,,63,0
160768,note_off,,,,,0,0,1,,,,0,,,46,0
160768,note_on,,,,,0,0,1,,,,0,,,34,26
160768,note_off,,,,,0,0,1,,,,0,,,67,0
160768,note_on,,,,,0,0,1,,,,0,,,60,27
160768,control_change,,,,,512,0,1,,,,0,64,0,,
160768,control_change,,,,,0,0,1,,,,0,64,127,,
160768,note_on,,,,,0,0,1,,,,0,,,70,43
160927,control_change,,,,,159,0,1,,,,0,64,0,,
161139,control_change,,,,,212,0,1,,,,0,64,127,,
161280,note_on,,,,,141,0,1,,,,0,,,46,20
161280,set_tempo,,,,,1024,1,0,,600000,,,,,,
161792,note_off,,,,,512,0,1,,,,0,,,34,0
161792,note_on,,,,,0,0,1,,,,0,,,50,20
162304,control_change,,,,,512,0,1,,,,0,64,0,,
162304,note_off,,,,,0,0,1,,,,0,,,60,0
162304,note_off,,,,,0,0,1,,,,0,,,70,0
162304,note_off,,,,,0,0,1,,,,0,,,50,0
162304,note_on,,,,,0,0,1,,,,0,,,62,24
162304,note_on,,,,,0,0,1,,,,0,,,53,20
162304,note_on,,,,,0,0,1,,,,0,,,68,39
162304,set_tempo,,,,,1024,1,0,,750000,,,,,,
162516,control_change,,,,,212,0,1,,,,0,64,127,,
162816,note_on,,,,,0,0,1,,,,0,,,67,37
162816,note_on,,,,,0,0,1,,,,0,,,63,23
162816,note_off,,,,,0,0,1,,,,0,,,53,0
162816,note_off,,,,,0,0,1,,,,0,,,68,0
162816,note_off,,,,,300,0,1,,,,0,,,62,0
162816,set_tempo,,,,,512,1,0,,800000,,,,,,
162816,note_on,,,,,0,0,1,,,,0,,,55,20
162940,control_change,,,,,124,0,1,,,,0,64,0,,
163125,control_change,,,,,185,0,1,,,,0,64,127,,
163328,set_tempo,,,,,512,1,0,,857142,,,,,,
163328,note_off,,,,,203,0,1,,,,0,,,63,0
163328,note_on,,,,,0,0,1,,,,0,,,65,34
163328,note_on,,,,,0,0,1,,,,0,,,62,21
163328,note_on,,,,,0,0,1,,,,0,,,56,20
163328,note_off,,,,,0,0,1,,,,0,,,55,0
163328,note_off,,,,,0,0,1,,,,0,,,67,0
163443,control_change,,,,,115,0,1,,,,0,64,0,,
163575,control_change,,,,,132,0,1,,,,0,64,127,,
163840,control_change,,,,,265,0,1,,,,0,64,0,,
163840,control_change,,,,,0,0,1,,,,0,64,0,,
163840,note_off,,,,,0,0,1,,,,0,,,62,0
163840,note_off,,,,,0,0,1,,,,0,,,46,0
163840,note_off,,,,,0,0,1,,,,0,,,56,0
163840,note_on,,,,,0,0,1,,,,0,,,55,20
163840,note_on,,,,,0,0,1,,,,0,,,63,32
163840,note_off,,,,,0,0,1,,,,0,,,65,0
163874,control_change,,,,,34,0,1,,,,0,64,127,,
164147,control_change,,,,,273,0,1,,,,0,64,0,,
164352,set_tempo,,,,,1024,1,0,,923076,,,,,,
164352,note_on,,,,,205,0,1,,,,0,,,51,20
164864,note_on,,,,,512,0,1,,,,0,,,46,17
164864,set_tempo,,,,,512,1,0,,750000,,,,,,
164904,note_off,,,,,40,0,1,,,,0,,,51,0
165376,note_on,,,,,472,0,1,,,,0,,,43,15
165416,note_off,,,,,40,0,1,,,,0,,,46,0
165888,set_tempo,,,,,1024,1,0,,800000,,,,,,
165888,note_on,,,,,472,0,1,,,,0,,,44,13
165928,note_off,,,,,40,0,1,,,,0,,,43,0
166400,note_on,,,,,472,0,1,,,,0,,,41,11
166400,set_tempo,,,,,512,1,0,,857142,,,,,,
166440,note_off,,,,,40,0,1,,,,0,,,44,0
166912,note_off,,,,,0,0,1,,,,0,,,55,0
166912,control_change,,,,,0,0,1,,,,0,64,0,,
166912,note_on,,,,,0,0,1,,,,0,,,55,12
166912,note_on,,,,,0,0,1,,,,0,,,63,27
166912,note_on,,,,,0,0,1,,,,0,,,39,9
166912,set_tempo,,,,,512,1,0,,705882,,,,,,
166912,note_off,,,,,0,0,1,,,,0,,,63,0
166912,control_change,,,,,472,0,1,,,,0,64,0,,
166952,note_off,,,,,40,0,1,,,,0,,,41,0
168448,note_off,,,,,1496,0,1,,,,0,,,55,0
168448,note_off,,,,,0,0,1,,,,0,,,63,0
168448,note_on,,,,,0,0,1,,,,0,,,55,12
168448,note_on,,,,,0,0,1,,,,0,,,51,12
168448,note_on,,,,,0,0,1,,,,0,,,39,12
168448,note_on,,,,,0,0,1,,,,0,,,63,27
168448,note_off,,,,,0,0,1,,,,0,,,39,0
169984,note_on,,,,,0,0,1,,,,0,,,55,12
169984,note_off,,,,,0,0,1,,,,0,,,51,0
169984,note_off,,,,,0,0,1,,,,0,,,39,0
169984,note_off,,,,,0,0,1,,,,0,,,63,0
169984,note_off,,,,,0,0,1,,,,0,,,55,0
169984,control_change,,,,,0,0,1,,,,0,64,0,,
169984,control_change,,,,,1536,0,1,,,,0,64,0,,
169984,note_on,,,,,0,0,1,,,,0,,,39,12
169984,note_on,,,,,0,0,1,,,,0,,,63,27
169984,set_tempo,,,,,3072,1,0,,800000,,,,,,
169984,note_on,,,,,0,0,1,,,,0,,,51,12
171520,note_on,,,,,0,0,1,,,,0,,,50,12
171520,note_on,,,,,0,0,1,,,,0,,,43,12
171520,note_on,,,,,0,0,1,,,,0,,,38,12
171520,note_on,,,,,0,0,1,,,,0,,,63,27
171520,note_on,,,,,0,0,1,,,,0,,,62,21
171520,note_on,,,,,0,0,1,,,,0,,,55,12
171520,note_off,,,,,0,0,1,,,,0,,,51,0
171520,note_off,,,,,0,0,1,,,,0,,,39,0
171520,note_off,,,,,0,0,1,,,,0,,,63,0
171520,note_off,,,,,1536,0,1,,,,0,,,55,0
171520,set_tempo,,,,,1536,1,0,,1000000,,,,,,
173056,note_off,,,,,0,0,1,,,,0,,,50,0
173056,note_off,,,,,0,0,1,,,,0,,,43,0
173056,note_off,,,,,0,0,1,,,,0,,,38,0
173056,note_off,,,,,0,0,1,,,,0,,,63,0
173056,note_off,,,,,0,0,1,,,,0,,,62,0
173056,note_off,,,,,0,0,1,,,,0,,,55,0
173056,control_change,,,,,0,0,1,,,,0,64,0,,
173056,control_change,,,,,1536,0,1,,,,0,64,0,,
173056,note_on,,,,,0,0,1,,,,0,,,63,43
173056,set_tempo,,,,,1536,1,0,,500000,,,,,,
173056,note_on,,,,,0,0,1,,,,0,,,36,22
173056,note_on,,,,,0,0,1,,,,0,,,60,28
173310,control_change,,,,,254,0,1,,,,0,64,127,,
173312,set_tempo,,,,,256,1,0,,461538,,,,,,
173312,note_on,,,,,2,0,1,,,,0,,,43,22
173392,note_off,,,,,80,0,1,,,,0,,,36,0
173568,note_on,,,,,176,0,1,,,,0,,,36,22
173648,note_off,,,,,80,0,1,,,,0,,,43,0
173824,note_on,,,,,176,0,1,,,,0,,,43,22
173904,note_off,,,,,80,0,1,,,,0,,,36,0
174080,note_on,,,,,176,0,1,,,,0,,,36,22
174160,note_off,,,,,80,0,1,,,,0,,,43,0
174336,note_on,,,,,176,0,1,,,,0,,,43,22
174416,note_off,,,,,80,0,1,,,,0,,,36,0
174592,note_on,,,,,0,0,1,,,,0,,,36,22
174592,note_on,,,,,0,0,1,,,,0,,,63,43
174592,note_on,,,,,0,0,1,,,,0,,,60,28
174592,note_off,,,,,176,0,1,,,,0,,,60,0
174592,note_off,,,,,0,0,1,,,,0,,,63,0
174627,control_change,,,,,35,0,1,,,,0,64,0,,
174672,note_off,,,,,45,0,1,,,,0,,,43,0
174811,control_change,,,,,139,0,1,,,,0,64,127,,
174848,note_on,,,,,37,0,1,,,,0,,,43,22
174928,note_off,,,,,80,0,1,,,,0,,,36,0
175104,note_on,,,,,176,0,1,,,,0,,,36,22
175184,note_off,,,,,80,0,1,,,,0,,,43,0
175360,note_on,,,,,176,0,1,,,,0,,,43,22
175440,note_off,,,,,80,0,1,,,,0,,,36,0
175616,note_on,,,,,176,0,1,,,,0,,,36,22
175696,note_off,,,,,80,0,1,,,,0,,,43,0
175872,note_on,,,,,176,0,1,,,,0,,,43,22
175952,note_off,,,,,80,0,1,,,,0,,,36,0
175966,control_change,,,,,14,0,1,,,,0,64,0,,
176128,note_off,,,,,0,0,1,,,,0,,,60,0
176128,control_change,,,,,0,0,1,,,,0,64,0,,
176128,control_change,,,,,162,0,1,,,,0,64,0,,
176128,note_on,,,,,0,0,1,,,,0,,,60,22
176128,set_tempo,,,,,2816,1,0,,545454,,,,,,
176128,note_on,,,,,0,0,1,,,,0,,,63,33
176128,note_on,,,,,0,0,1,,,,0,,,36,22
176128,note_off,,,,,0,0,1,,,,0,,,63,0
176208,note_off,,,,,80,0,1,,,,0,,,43,0
176310,control_change,,,,,102,0,1,,,,0,64,127,,
176384,note_on,,,,,74,0,1,,,,0,,,59,23
176384,note_on,,,,,0,0,1,,,,0,,,43,22
176384,note_on,,,,,0,0,1,,,,0,,,62,35
176384,set_tempo,,,,,256,1,0,,461538,,,,,,
176414,note_off,,,,,0,0,1,,,,0,,,63,0
176414,note_off,,,,,30,0,1,,,,0,,,60,0
176464,note_off,,,,,50,0,1,,,,0,,,36,0
176640,note_on,,,,,0,0,1,,,,0,,,63,36
176640,note_on,,,,,176,0,1,,,,0,,,60,23
176640,note_on,,,,,0,0,1,,,,0,,,36,22
176670,note_off,,,,,30,0,1,,,,0,,,59,0
176670,note_off,,,,,0,0,1,,,,0,,,62,0
176694,control_change,,,,,24,0,1,,,,0,64,0,,
176720,note_off,,,,,26,0,1,,,,0,,,43,0
176856,control_change,,,,,136,0,1,,,,0,64,127,,
176896,note_on,,,,,0,0,1,,,,0,,,43,22
176896,note_on,,,,,0,0,1,,,,0,,,62,38
176896,note_on,,,,,40,0,1,,,,0,,,59,25
176926,note_off,,,,,30,0,1,,,,0,,,60,0
176926,note_off,,,,,0,0,1,,,,0,,,63,0
176976,note_off,,,,,50,0,1,,,,0,,,36,0
177152,note_on,,,,,176,0,1,,,,0,,,60,26
177152,note_on,,,,,0,0,1,,,,0,,,36,22
177152,note_on,,,,,0,0,1,,,,0,,,63,40
177182,note_off,,,,,0,0,1,,,,0,,,62,0
177182,note_off,,,,,30,0,1,,,,0,,,59,0
177232,note_off,,,,,50,0,1,,,,0,,,43,0
177260,control_change,,,,,28,0,1,,,,0,64,0,,
177408,note_on,,,,,148,0,1,,,,0,,,59,26
177408,note_on,,,,,0,0,1,,,,0,,,62,41
177408,note_on,,,,,0,0,1,,,,0,,,43,22
177421,control_change,,,,,13,0,1,,,,0,64,127,,
177438,note_off,,,,,0,0,1,,,,0,,,63,0
177438,note_off,,,,,17,0,1,,,,0,,,60,0
177488,note_off,,,,,50,0,1,,,,0,,,36,0
177664,note_on,,,,,0,0,1,,,,0,,,63,43
177664,note_on,,,,,176,0,1,,,,0,,,60,28
177664,note_on,,,,,0,0,1,,,,0,,,36,22
177694,note_off,,,,,30,0,1,,,,0,,,59,0
177694,note_off,,,,,0,0,1,,,,0,,,62,0
177725,control_change,,,,,31,0,1,,,,0,64,0,,
177744,note_off,,,,,19,0,1,,,,0,,,43,0
177920,note_on,,,,,0,0,1,,,,0,,,44,22
177920,note_on,,,,,176,0,1,,,,0,,,59,27
177920,note_on,,,,,0,0,1,,,,0,,,62,41
177950,note_off,,,,,0,0,1,,,,0,,,63,0
177950,note_off,,,,,30,0,1,,,,0,,,60,0
178000,note_off,,,,,50,0,1,,,,0,,,36,0
178176,note_on,,,,,176,0,1,,,,0,,,60,26
178176,note_on,,,,,0,0,1,,,,0,,,63,40
178176,note_on,,,,,0,0,1,,,,0,,,36,22
178206,note_off,,,,,30,0,1,,,,0,,,59,0
178206,note_off,,,,,0,0,1,,,,0,,,62,0
178256,note_off,,,,,50,0,1,,,,0,,,44,0
178432,note_on,,,,,0,0,1,,,,0,,,44,22
178432,note_on,,,,,0,0,1,,,,0,,,65,38
178432,note_on,,,,,176,0,1,,,,0,,,62,38
178462,note_off,,,,,30,0,1,,,,0,,,60,0
178462,note_off,,,,,0,0,1,,,,0,,,63,0
178512,note_off,,,,,50,0,1,,,,0,,,36,0
178688,note_on,,,,,0,0,1,,,,0,,,63,36
178688,note_on,,,,,176,0,1,,,,0,,,60,24
178688,note_on,,,,,0,0,1,,,,0,,,36,22
178718,note_off,,,,,30,0,1,,,,0,,,62,0
178718,note_off,,,,,0,0,1,,,,0,,,65,0
178768,note_off,,,,,50,0,1,,,,0,,,44,0
178944,note_on,,,,,0,0,1,,,,0,,,44,22
178944,note_on,,,,,0,0,1,,,,0,,,62,34
178944,note_on,,,,,176,0,1,,,,0,,,59,22
178974,note_off,,,,,0,0,1,,,,0,,,63,0
178974,note_off,,,,,30,0,1,,,,0,,,60,0
179024,note_off,,,,,50,0,1,,,,0,,,36,0
179200,note_on,,,,,0,0,1,,,,0,,,60,21
179200,note_on,,,,,0,0,1,,,,0,,,36,22
179200,note_on,,,,,0,0,1,,,,0,,,63,36
179200,control_change,,,,,0,0,1,,,,0,64,0,,
179200,control_change,,,,,176,0,1,,,,0,64,0,,
179230,note_off,,,,,0,0,1,,,,0,,,62,0
179230,note_off,,,,,30,0,1,,,,0,,,59,0
179280,note_off,,,,,50,0,1,,,,0,,,44,0
179456,note_on,,,,,0,0,1,,,,0,,,43,22
179456,note_off,,,,,176,0,1,,,,0,,,36,0
179712,note_on,,,,,0,0,1,,,,0,,,36,22
179712,note_off,,,,,256,0,1,,,,0,,,43,0
179968,note_on,,,,,0,0,1,,,,0,,,43,22
179968,note_off,,,,,256,0,1,,,,0,,,36,0
180224,note_off,,,,,256,0,1,,,,0,,,43,0
180224,note_on,,,,,0,0,1,,,,0,,,36,22
180480,note_on,,,,,0,0,1,,,,0,,,43,22
180480,note_off,,,,,256,0,1,,,,0,,,36,0
180736,note_off,,,,,0,0,1,,,,0,,,63,0
180736,note_off,,,,,0,0,1,,,,0,,,43,0
180736,note_on,,,,,0,0,1,,,,0,,,60,25
180736,note_on,,,,,0,0,1,,,,0,,,63,40
180736,note_off,,,,,256,0,1,,,,0,,,60,0
180736,note_on,,,,,0,0,1,,,,0,,,36,22
180955,control_change,,,,,219,0,1,,,,0,64,127,,
180992,note_off,,,,,37,0,1,,,,0,,,36,0
180992,note_on,,,,,0,0,1,,,,0,,,43,22
181248,note_on,,,,,0,0,1,,,,0,,,36,22
181248,note_on,,,,,256,0,1,,,,0,,,65,42
181248,note_off,,,,,0,0,1,,,,0,,,43,0
181308,note_off,,,,,60,0,1,,,,0,,,63,0
181504,note_off,,,,,196,0,1,,,,0,,,36,0
181504,note_on,,,,,0,0,1,,,,0,,,43,22
181760,note_on,,,,,0,0,1,,,,0,,,36,22
181760,note_on,,,,,256,0,1,,,,0,,,66,44
181760,note_off,,,,,0,0,1,,,,0,,,43,0
181820,note_off,,,,,60,0,1,,,,0,,,65,0
182016,note_on,,,,,0,0,1,,,,0,,,43,22
182016,note_off,,,,,196,0,1,,,,0,,,36,0
182087,control_change,,,,,71,0,1,,,,0,64,0,,
182272,note_off,,,,,0,0,1,,,,0,,,43,0
182272,note_on,,,,,0,0,1,,,,0,,,31,42
182272,note_on,,,,,0,0,1,,,,0,,,62,39
182272,note_on,,,,,0,0,1,,,,0,,,59,39
182272,note_off,,,,,0,0,1,,,,0,,,60,0
182272,control_change,,,,,0,0,1,,,,0,64,0,,
182272,note_on,,,,,0,0,1,,,,0,,,67,55
182272,set_tempo,,,,,5888,1,0,,545454,,,,,,
182272,control_change,,,,,185,0,1,,,,0,64,0,,
182332,note_off,,,,,60,0,1,,,,0,,,66,0
182446,note_off,,,,,114,0,1,,,,0,,,59,0
182446,note_off,,,,,0,0,1,,,,0,,,62,0
182446,note_off,,,,,0,0,1,,,,0,,,67,0
182528,note_on,,,,,82,0,1,,,,0,,,43,33
182588,note_off,,,,,60,0,1,,,,0,,,31,0
182784,set_tempo,,,,,512,1,0,,461538,,,,,,
182784,note_on,,,,,0,0,1,,,,0,,,31,33
182784,note_on,,,,,196,0,1,,,,0,,,55,38
182844,note_off,,,,,60,0,1,,,,0,,,43,0
182958,note_off,,,,,114,0,1,,,,0,,,55,0
183040,note_on,,,,,82,0,1,,,,0,,,43,33
183100,note_off,,,,,60,0,1,,,,0,,,31,0
183296,set_tempo,,,,,512,1,0,,461538,,,,,,
183296,note_on,,,,,196,0,1,,,,0,,,59,37
183296,note_on,,,,,0,0,1,,,,0,,,62,37
183296,note_on,,,,,0,0,1,,,,0,,,67,52
183296,note_on,,,,,0,0,1,,,,0,,,31,42
183356,note_off,,,,,60,0,1,,,,0,,,43,0
183470,note_off,,,,,0,0,1,,,,0,,,67,0
183470,note_off,,,,,0,0,1,,,,0,,,62,0
183470,note_off,,,,,114,0,1,,,,0,,,59,0
183552,note_on,,,,,82,0,1,,,,0,,,43,33
183612,note_off,,,,,60,0,1,,,,0,,,31,0
183808,note_on,,,,,196,0,1,,,,0,,,55,35
183808,note_on,,,,,0,0,1,,,,0,,,31,33
183868,note_off,,,,,60,0,1,,,,0,,,43,0
183982,note_off,,,,,114,0,1,,,,0,,,55,0
184064,note_on,,,,,82,0,1,,,,0,,,43,33
184124,note_off,,,,,60,0,1,,,,0,,,31,0
184320,note_on,,,,,0,0,1,,,,0,,,67,48
184320,note_on,,,,,0,0,1,,,,0,,,31,42
184320,note_on,,,,,0,0,1,,,,0,,,62,34
184320,note_on,,,,,196,0,1,,,,0,,,59,34
184380,note_off,,,,,60,0,1,,,,0,,,43,0
184494,note_off,,,,,114,0,1,,,,0,,,59,0
184494,note_off,,,,,0,0,1,,,,0,,,62,0
184494,note_off,,,,,0,0,1,,,,0,,,67,0
184576,note_on,,,,,82,0,1,,,,0,,,43,33
184636,note_off,,,,,60,0,1,,,,0,,,31,0
184832,note_on,,,,,196,0,1,,,,0,,,55,33
184832,note_on,,,,,0,0,1,,,,0,,,31,33
184892,note_off,,,,,60,0,1,,,,0,,,43,0
185006,note_off,,,,,114,0,1,,,,0,,,55,0
185088,note_on,,,,,82,0,1,,,,0,,,43,33
185148,note_off,,,,,60,0,1,,,,0,,,31,0
185344,set_tempo,,,,,2048,1,0,,500000,,,,,,
185344,note_on,,,,,0,0,1,,,,0,,,36,22
185344,control_change,,,,,196,0,1,,,,0,64,0,,
185344,control_change,,,,,0,0,1,,,,0,64,0,,
185344,control_change,,,,,0,0,1,,,,0,64,0,,
185344,note_on,,,,,0,0,1,,,,0,,,60,28
185344,note_on,,,,,0,0,1,,,,0,,,63,43
185404,note_off,,,,,60,0,1,,,,0,,,43,0
185598,control_change,,,,,194,0,1,,,,0,64,127,,
185600,note_on,,,,,2,0,1,,,,0,,,43,22
185600,set_tempo,,,,,256,1,0,,461538,,,,,,
185680,note_off,,,,,80,0,1,,,,0,,,36,0
185856,note_on,,,,,176,0,1,,,,0,,,36,22
185936,note_off,,,,,80,0,1,,,,0,,,43,0
186112,note_on,,,,,176,0,1,,,,0,,,43,22
186192,note_off,,,,,80,0,1,,,,0,,,36,0
186368,note_on,,,,,176,0,1,,,,0,,,36,22
186448,note_off,,,,,80,0,1,,,,0,,,43,0
186624,note_on,,,,,176,0,1,,,,0,,,43,22
186704,note_off,,,,,80,0,1,,,,0,,,36,0
186880,note_on,,,,,0,0,1,,,,0,,,36,22
186880,note_on,,,,,0,0,1,,,,0,,,63,43
186880,note_off,,,,,176,0,1,,,,0,,,60,0
186880,note_off,,,,,0,0,1,,,,0,,,63,0
186880,note_on,,,,,0,0,1,,,,0,,,60,28
186915,control_change,,,,,35,0,1,,,,0,64,0,,
186960,note_off,,,,,45,0,1,,,,0,,,43,0
187099,control_change,,,,,139,0,1,,,,0,64,127,,
187136,note_on,,,,,37,0,1,,,,0,,,43,22
187216,note_off,,,,,80,0,1,,,,0,,,36,0
187392,note_on,,,,,176,0,1,,,,0,,,36,22
187472,note_off,,,,,80,0,1,,,,0,,,43,0
187648,note_on,,,,,176,0,1,,,,0,,,43,22
187728,note_off,,,,,80,0,1,,,,0,,,36,0
187904,note_on,,,,,176,0,1,,,,0,,,36,22
187984,note_off,,,,,80,0,1,,,,0,,,43,0
188160,note_on,,,,,176,0,1,,,,0,,,43,22
188240,note_off,,,,,80,0,1,,,,0,,,36,0
188254,control_change,,,,,14,0,1,,,,0,64,0,,
188416,note_on,,,,,0,0,1,,,,0,,,36,22
188416,note_on,,,,,0,0,1,,,,0,,,63,33
188416,note_on,,,,,0,0,1,,,,0,,,60,22
188416,note_off,,,,,0,0,1,,,,0,,,63,0
188416,set_tempo,,,,,2816,1,0,,545454,,,,,,
188416,control_change,,,,,0,0,1,,,,0,64,0,,
188416,control_change,,,,,162,0,1,,,,0,64,0,,
188416,note_off,,,,,0,0,1,,,,0,,,60,0
188416,control_change,,,,,0,0,1,,,,0,64,0,,
188496,note_off,,,,,80,0,1,,,,0,,,43,0
188598,control_change,,,,,102,0,1,,,,0,64,127,,
188672,note_on,,,,,0,0,1,,,,0,,,43,22
188672,set_tempo,,,,,256,1,0,,461538,,,,,,
188672,note_on,,,,,74,0,1,,,,0,,,59,23
188672,note_on,,,,,0,0,1,,,,0,,,62,35
188702,note_off,,,,,30,0,1,,,,0,,,60,0
188702,note_off,,,,,0,0,1,,,,0,,,63,0
188752,note_off,,,,,50,0,1,,,,0,,,36,0
188928,note_on,,,,,176,0,1,,,,0,,,60,23
188928,note_on,,,,,0,0,1,,,,0,,,63,36
188928,note_on,,,,,0,0,1,,,,0,,,36,22
188958,note_off,,,,,30,0,1,,,,0,,,59,0
188958,note_off,,,,,0,0,1,,,,0,,,62,0
188982,control_change,,,,,24,0,1,,,,0,64,0,,
189008,note_off,,,,,26,0,1,,,,0,,,43,0
189144,control_change,,,,,136,0,1,,,,0,64,127,,
189184,note_on,,,,,40,0,1,,,,0,,,59,25
189184,note_on,,,,,0,0,1,,,,0,,,62,38
189184,note_on,,,,,0,0,1,,,,0,,,43,22
189214,note_off,,,,,30,0,1,,,,0,,,60,0
189214,note_off,,,,,0,0,1,,,,0,,,63,0
189264,note_off,,,,,50,0,1,,,,0,,,36,0
189440,note_on,,,,,0,0,1,,,,0,,,36,22
189440,note_on,,,,,0,0,1,,,,0,,,63,40
189440,note_on,,,,,176,0,1,,,,0,,,60,26
189470,note_off,,,,,30,0,1,,,,0,,,59,0
189470,note_off,,,,,0,0,1,,,,0,,,62,0
189520,note_off,,,,,50,0,1,,,,0,,,43,0
189548,control_change,,,,,28,0,1,,,,0,64,0,,
189696,note_on,,,,,148,0,1,,,,0,,,59,26
189696,note_on,,,,,0,0,1,,,,0,,,62,41
189696,note_on,,,,,0,0,1,,,,0,,,43,22
189709,control_change,,,,,13,0,1,,,,0,64,127,,
189726,note_off,,,,,17,0,1,,,,0,,,60,0
189726,note_off,,,,,0,0,1,,,,0,,,63,0
189776,note_off,,,,,50,0,1,,,,0,,,36,0
189952,note_on,,,,,0,0,1,,,,0,,,36,22
189952,note_on,,,,,176,0,1,,,,0,,,60,28
189952,note_on,,,,,0,0,1,,,,0,,,63,43
189982,note_off,,,,,30,0,1,,,,0,,,59,0
189982,note_off,,,,,0,0,1,,,,0,,,62,0
190013,control_change,,,,,31,0,1,,,,0,64,0,,
190032,note_off,,,,,19,0,1,,,,0,,,43,0
190208,note_on,,,,,176,0,1,,,,0,,,59,27
190208,note_on,,,,,0,0,1,,,,0,,,62,41
190208,note_on,,,,,0,0,1,,,,0,,,44,22
190238,note_off,,,,,30,0,1,,,,0,,,60,0
190238,note_off,,,,,0,0,1,,,,0,,,63,0
190288,note_off,,,,,50,0,1,,,,0,,,36,0
190464,note_on,,,,,0,0,1,,,,0,,,36,22
190464,note_on,,,,,176,0,1,,,,0,,,60,26
190464,note_on,,,,,0,0,1,,,,0,,,63,40
190494,note_off,,,,,30,0,1,,,,0,,,59,0
190494,note_off,,,,,0,0,1,,,,0,,,62,0
190544,note_off,,,,,50,0,1,,,,0,,,44,0
190720,note_on,,,,,0,0,1,,,,0,,,44,22
190720,note_on,,,,,176,0,1,,,,0,,,62,38
190720,note_on,,,,,0,0,1,,,,0,,,65,38
190750,note_off,,,,,0,0,1,,,,0,,,63,0
190750,note_off,,,,,30,0,1,,,,0,,,60,0
190800,note_off,,,,,50,0,1,,,,0,,,36,0
190976,note_on,,,,,176,0,1,,,,0,,,60,24
190976,note_on,,,,,0,0,1,,,,0,,,63,36
190976,note_on,,,,,0,0,1,,,,0,,,36,22
191006,note_off,,,,,30,0,1,,,,0,,,62,0
191006,note_off,,,,,0,0,1,,,,0,,,65,0
191056,note_off,,,,,50,0,1,,,,0,,,44,0
191232,note_on,,,,,0,0,1,,,,0,,,44,22
191232,note_on,,,,,176,0,1,,,,0,,,59,22
191232,note_on,,,,,0,0,1,,,,0,,,62,34
191262,note_off,,,,,30,0,1,,,,0,,,60,0
191262,note_off,,,,,0,0,1,,,,0,,,63,0
191312,note_off,,,,,50,0,1,,,,0,,,36,0
191488,control_change,,,,,176,0,1,,,,0,64,0,,
191488,control_change,,,,,0,0,1,,,,0,64,0,,
191488,control_change,,,,,0,0,1,,,,0,64,0,,
191488,note_on,,,,,0,0,1,,,,0,,,60,21
191488,note_on,,,,,0,0,1,,,,0,,,63,36
191488,note_on,,,,,0,0,1,,,,0,,,36,22
191518,note_off,,,,,30,0,1,,,,0,,,59,0
191518,note_off,,,,,0,0,1,,,,0,,,62,0
191568,note_off,,,,,50,0,1,,,,0,,,44,0
191744,note_off,,,,,176,0,1,,,,0,,,36,0
191744,note_on,,,,,0,0,1,,,,0,,,43,22
192000,note_off,,,,,256,0,1,,,,0,,,43,0
192000,note_on,,,,,0,0,1,,,,0,,,36,22
192256,note_on,,,,,0,0,1,,,,0,,,43,22
192256,note_off,,,,,256,0,1,,,,0,,,36,0
192512,note_off,,,,,256,0,1,,,,0,,,43,0
192512,note_on,,,,,0,0,1,,,,0,,,36,22
192768,note_off,,,,,256,0,1,,,,0,,,36,0
192768,note_on,,,,,0,0,1,,,,0,,,43,22
193024,note_off,,,,,256,0,1,,,,0,,,60,0
193024,note_off,,,,,0,0,1,,,,0,,,63,0
193024,note_off,,,,,0,0,1,,,,0,,,43,0
193024,note_on,,,,,0,0,1,,,,0,,,60,25
193024,note_on,,,,,0,0,1,,,,0,,,63,40
193024,note_on,,,,,0,0,1,,,,0,,,36,22
193243,control_change,,,,,219,0,1,,,,0,64,127,,
193280,note_on,,,,,0,0,1,,,,0,,,43,22
193280,note_off,,,,,37,0,1,,,,0,,,36,0
193536,note_on,,,,,256,0,1,,,,0,,,65,42
193536,note_off,,,,,0,0,1,,,,0,,,43,0
193536,note_on,,,,,0,0,1,,,,0,,,36,22
193596,note_off,,,,,60,0,1,,,,0,,,63,0
193792,note_off,,,,,196,0,1,,,,0,,,36,0
193792,note_on,,,,,0,0,1,,,,0,,,43,22
194048,note_on,,,,,256,0,1,,,,0,,,66,44
194048,note_off,,,,,0,0,1,,,,0,,,43,0
194048,note_on,,,,,0,0,1,,,,0,,,36,22
194108,note_off,,,,,60,0,1,,,,0,,,65,0
194304,note_on,,,,,0,0,1,,,,0,,,43,22
194304,note_off,,,,,196,0,1,,,,0,,,36,0
194375,control_change,,,,,71,0,1,,,,0,64,0,,
194560,note_on,,,,,0,0,1,,,,0,,,62,39
194560,set_tempo,,,,,5888,1,0,,545454,,,,,,
194560,control_change,,,,,185,0,1,,,,0,64,0,,
194560,control_change,,,,,0,0,1,,,,0,64,0,,
194560,note_off,,,,,0,0,1,,,,0,,,60,0
194560,note_off,,,,,0,0,1,,,,0,,,43,0
194560,note_on,,,,,0,0,1,,,,0,,,59,39
194560,note_on,,,,,0,0,1,,,,0,,,67,55
194560,note_on,,,,,0,0,1,,,,0,,,31,42
194620,note_off,,,,,60,0,1,,,,0,,,66,0
194734,note_off,,,,,0,0,1,,,,0,,,67,0
194734,note_off,,,,,114,0,1,,,,0,,,59,0
194734,note_off,,,,,0,0,1,,,,0,,,62,0
194816,note_on,,,,,82,0,1,,,,0,,,43,33
194876,note_off,,,,,60,0,1,,,,0,,,31,0
195072,note_on,,,,,0,0,1,,,,0,,,31,33
195072,note_on,,,,,196,0,1,,,,0,,,55,38
195072,set_tempo,,,,,512,1,0,,461538,,,,,,
195132,note_off,,,,,60,0,1,,,,0,,,43,0
195246,note_off,,,,,114,0,1,,,,0,,,55,0
195328,note_on,,,,,82,0,1,,,,0,,,43,33
195388,note_off,,,,,60,0,1,,,,0,,,31,0
195584,set_tempo,,,,,512,1,0,,461538,,,,,,
195584,note_on,,,,,196,0,1,,,,0,,,59,44
195584,note_on,,,,,0,0,1,,,,0,,,62,44
195584,note_on,,,,,0,0,1,,,,0,,,68,59
195584,note_on,,,,,0,0,1,,,,0,,,32,49
195644,note_off,,,,,60,0,1,,,,0,,,43,0
195758,note_off,,,,,114,0,1,,,,0,,,59,0
195758,note_off,,,,,0,0,1,,,,0,,,62,0
195758,note_off,,,,,0,0,1,,,,0,,,68,0
195840,note_on,,,,,82,0,1,,,,0,,,43,33
195900,note_off,,,,,60,0,1,,,,0,,,32,0
196096,note_on,,,,,0,0,1,,,,0,,,32,33
196096,note_on,,,,,196,0,1,,,,0,,,56,35
196156,note_off,,,,,60,0,1,,,,0,,,43,0
196270,note_off,,,,,114,0,1,,,,0,,,56,0
196352,note_on,,,,,82,0,1,,,,0,,,43,33
196412,note_off,,,,,60,0,1,,,,0,,,32,0
196608,note_on,,,,,196,0,1,,,,0,,,59,34
196608,note_on,,,,,0,0,1,,,,0,,,62,34
196608,note_on,,,,,0,0,1,,,,0,,,67,48
196608,note_on,,,,,0,0,1,,,,0,,,31,42
196668,note_off,,,,,60,0,1,,,,0,,,43,0
196782,note_off,,,,,114,0,1,,,,0,,,59,0
196782,note_off,,,,,0,0,1,,,,0,,,62,0
196782,note_off,,,,,0,0,1,,,,0,,,67,0
196864,note_on,,,,,82,0,1,,,,0,,,43,33
196924,note_off,,,,,60,0,1,,,,0,,,31,0
197120,note_on,,,,,0,0,1,,,,0,,,31,33
197120,note_on,,,,,196,0,1,,,,0,,,55,33
197180,note_off,,,,,60,0,1,,,,0,,,43,0
197294,note_off,,,,,114,0,1,,,,0,,,55,0
197376,note_on,,,,,82,0,1,,,,0,,,43,33
197436,note_off,,,,,60,0,1,,,,0,,,31,0
197632,note_on,,,,,0,0,1,,,,0,,,64,43
197632,control_change,,,,,196,0,1,,,,0,64,0,,
197632,control_change,,,,,0,0,1,,,,0,64,0,,
197632,note_on,,,,,0,0,1,,,,0,,,61,28
197632,note_on,,,,,0,0,1,,,,0,,,34,22
197632,set_tempo,,,,,2048,1,0,,500000,,,,,,
197692,note_off,,,,,60,0,1,,,,0,,,43,0
197888,note_on,,,,,196,0,1,,,,0,,,43,22
197888,set_tempo,,,,,256,1,0,,461538,,,,,,
197968,note_off,,,,,80,0,1,,,,0,,,34,0
198144,note_on,,,,,176,0,1,,,,0,,,34,22
198224,note_off,,,,,80,0,1,,,,0,,,43,0
198400,note_on,,,,,176,0,1,,,,0,,,43,22
198480,note_off,,,,,80,0,1,,,,0,,,34,0
198600,control_change,,,,,120,0,1,,,,0,64,127,,
198656,note_on,,,,,56,0,1,,,,0,,,34,22
198736,note_off,,,,,80,0,1,,,,0,,,43,0
198912,note_on,,,,,176,0,1,,,,0,,,43,22
198992,note_off,,,,,80,0,1,,,,0,,,34,0
199168,control_change,,,,,176,0,1,,,,0,64,0,,
199168,note_off,,,,,0,0,1,,,,0,,,61,0
199168,note_off,,,,,0,0,1,,,,0,,,64,0
199168,note_on,,,,,0,0,1,,,,0,,,61,28
199168,note_on,,,,,0,0,1,,,,0,,,64,43
199168,note_on,,,,,0,0,1,,,,0,,,34,22
199248,note_off,,,,,80,0,1,,,,0,,,43,0
199424,note_on,,,,,176,0,1,,,,0,,,43,22
199504,note_off,,,,,80,0,1,,,,0,,,34,0
199680,note_on,,,,,176,0,1,,,,0,,,34,22
199760,note_off,,,,,80,0,1,,,,0,,,43,0
199936,note_on,,,,,176,0,1,,,,0,,,43,22
200016,note_off,,,,,80,0,1,,,,0,,,34,0
200192,note_on,,,,,176,0,1,,,,0,,,34,22
200272,note_off,,,,,80,0,1,,,,0,,,43,0
200448,note_on,,,,,176,0,1,,,,0,,,43,22
200528,note_off,,,,,80,0,1,,,,0,,,34,0
200704,set_tempo,,,,,2816,1,0,,545454,,,,,,
200704,note_on,,,,,0,0,1,,,,0,,,34,22
200704,note_on,,,,,0,0,1,,,,0,,,61,22
200704,note_on,,,,,0,0,1,,,,0,,,64,33
200704,note_off,,,,,0,0,1,,,,0,,,61,0
200704,control_change,,,,,0,0,1,,,,0,64,0,,
200704,control_change,,,,,0,0,1,,,,0,64,0,,
200704,control_change,,,,,0,0,1,,,,0,64,0,,
200704,control_change,,,,,176,0,1,,,,0,64,0,,
200704,note_off,,,,,0,0,1,,,,0,,,64,0
200784,note_off,,,,,80,0,1,,,,0,,,43,0
200886,control_change,,,,,102,0,1,,,,0,64,127,,
200960,note_on,,,,,0,0,1,,,,0,,,43,22
200960,note_on,,,,,74,0,1,,,,0,,,60,23
200960,set_tempo,,,,,256,1,0,,461538,,,,,,
200960,note_on,,,,,0,0,1,,,,0,,,63,35
200990,note_off,,,,,30,0,1,,,,0,,,61,0
200990,note_off,,,,,0,0,1,,,,0,,,64,0
201040,note_off,,,,,50,0,1,,,,0,,,34,0
201216,note_on,,,,,176,0,1,,,,0,,,61,24
201216,note_on,,,,,0,0,1,,,,0,,,64,39
201216,note_on,,,,,0,0,1,,,,0,,,34,23
201246,note_off,,,,,0,0,1,,,,0,,,63,0
201246,note_off,,,,,30,0,1,,,,0,,,60,0
201270,control_change,,,,,24,0,1,,,,0,64,0,,
201296,note_off,,,,,26,0,1,,,,0,,,43,0
201432,control_change,,,,,136,0,1,,,,0,64,127,,
201472,note_on,,,,,40,0,1,,,,0,,,60,28
201472,note_on,,,,,0,0,1,,,,0,,,63,42
201472,note_on,,,,,0,0,1,,,,0,,,43,24
201502,note_off,,,,,30,0,1,,,,0,,,61,0
201502,note_off,,,,,0,0,1,,,,0,,,64,0
201552,note_off,,,,,50,0,1,,,,0,,,34,0
201728,note_on,,,,,176,0,1,,,,0,,,61,29
201728,note_on,,,,,0,0,1,,,,0,,,34,25
201728,note_on,,,,,0,0,1,,,,0,,,64,44
201758,note_off,,,,,30,0,1,,,,0,,,60,0
201758,note_off,,,,,0,0,1,,,,0,,,63,0
201808,note_off,,,,,50,0,1,,,,0,,,43,0
201836,control_change,,,,,28,0,1,,,,0,64,0,,
201984,note_on,,,,,148,0,1,,,,0,,,60,30
201984,note_on,,,,,0,0,1,,,,0,,,63,48
201984,note_on,,,,,0,0,1,,,,0,,,43,25
201997,control_change,,,,,13,0,1,,,,0,64,127,,
202014,note_off,,,,,17,0,1,,,,0,,,61,0
202014,note_off,,,,,0,0,1,,,,0,,,64,0
202064,note_off,,,,,50,0,1,,,,0,,,34,0
202240,note_on,,,,,0,0,1,,,,0,,,33,25
202240,note_on,,,,,176,0,1,,,,0,,,61,33
202240,note_on,,,,,0,0,1,,,,0,,,64,51
202270,note_off,,,,,0,0,1,,,,0,,,63,0
202270,note_off,,,,,30,0,1,,,,0,,,60,0
202301,control_change,,,,,31,0,1,,,,0,64,0,,
202320,note_off,,,,,19,0,1,,,,0,,,43,0
202496,note_on,,,,,176,0,1,,,,0,,,60,34
202496,note_on,,,,,0,0,1,,,,0,,,63,50
202496,note_on,,,,,0,0,1,,,,0,,,45,27
202526,note_off,,,,,30,0,1,,,,0,,,61,0
202526,note_off,,,,,0,0,1,,,,0,,,64,0
202576,note_off,,,,,50,0,1,,,,0,,,33,0
202752,note_on,,,,,0,0,1,,,,0,,,33,27
202752,note_on,,,,,176,0,1,,,,0,,,61,33
202752,note_on,,,,,0,0,1,,,,0,,,64,50
202782,note_off,,,,,0,0,1,,,,0,,,63,0
202782,note_off,,,,,30,0,1,,,,0,,,60,0
202832,note_off,,,,,50,0,1,,,,0,,,45,0
203008,note_on,,,,,0,0,1,,,,0,,,65,50
203008,note_on,,,,,0,0,1,,,,0,,,45,28
203008,note_on,,,,,176,0,1,,,,0,,,62,50
203038,note_off,,,,,30,0,1,,,,0,,,61,0
203038,note_off,,,,,0,0,1,,,,0,,,64,0
203088,note_off,,,,,50,0,1,,,,0,,,33,0
203264,note_on,,,,,176,0,1,,,,0,,,61,31
203264,note_on,,,,,0,0,1,,,,0,,,64,48
203264,note_on,,,,,0,0,1,,,,0,,,33,28
203294,note_off,,,,,30,0,1,,,,0,,,62,0
203294,note_off,,,,,0,0,1,,,,0,,,65,0
203344,note_off,,,,,50,0,1,,,,0,,,45,0
203520,note_on,,,,,0,0,1,,,,0,,,45,28
203520,note_on,,,,,176,0,1,,,,0,,,60,29
203520,note_on,,,,,0,0,1,,,,0,,,63,46
203550,note_off,,,,,0,0,1,,,,0,,,64,0
203550,note_off,,,,,30,0,1,,,,0,,,61,0
203600,note_off,,,,,50,0,1,,,,0,,,33,0
203776,control_change,,,,,176,0,1,,,,0,64,0,,
203776,control_change,,,,,0,0,1,,,,0,64,0,,
203776,control_change,,,,,0,0,1,,,,0,64,0,,
203776,control_change,,,,,0,0,1,,,,0,64,0,,
203776,control_change,,,,,0,0,1,,,,0,64,0,,
203776,note_on,,,,,0,0,1,,,,0,,,61,31
203776,note_on,,,,,0,0,1,,,,0,,,64,46
203776,note_on,,,,,0,0,1,,,,0,,,33,30
203806,note_off,,,,,30,0,1,,,,0,,,60,0
203806,note_off,,,,,0,0,1,,,,0,,,63,0
203856,note_off,,,,,50,0,1,,,,0,,,45,0
203958,control_change,,,,,102,0,1,,,,0,64,127,,
204032,note_on,,,,,74,0,1,,,,0,,,45,30
204112,note_off,,,,,80,0,1,,,,0,,,33,0
204288,note_on,,,,,176,0,1,,,,0,,,33,30
204342,control_change,,,,,54,0,1,,,,0,64,0,,
204368,note_off,,,,,26,0,1,,,,0,,,45,0
204504,control_change,,,,,136,0,1,,,,0,64,127,,
204544,note_on,,,,,40,0,1,,,,0,,,45,32
204624,note_off,,,,,80,0,1,,,,0,,,33,0
204800,note_on,,,,,176,0,1,,,,0,,,33,32
204880,note_off,,,,,80,0,1,,,,0,,,45,0
204908,control_change,,,,,28,0,1,,,,0,64,0,,
205056,note_on,,,,,148,0,1,,,,0,,,45,33
205069,control_change,,,,,13,0,1,,,,0,64,127,,
205136,note_off,,,,,67,0,1,,,,0,,,33,0
205312,note_on,,,,,176,0,1,,,,0,,,59,16
205312,note_on,,,,,0,0,1,,,,0,,,62,31
205312,note_on,,,,,0,0,1,,,,0,,,65,54
205312,note_on,,,,,0,0,1,,,,0,,,32,33
205312,set_tempo,,,,,4352,1,0,,545454,,,,,,
205342,note_off,,,,,30,0,1,,,,0,,,61,0
205342,note_off,,,,,0,0,1,,,,0,,,64,0
205373,control_change,,,,,31,0,1,,,,0,64,0,,
205392,note_off,,,,,19,0,1,,,,0,,,45,0
205568,note_on,,,,,176,0,1,,,,0,,,64,52
205568,note_on,,,,,0,0,1,,,,0,,,44,34
205568,set_tempo,,,,,256,1,0,,461538,,,,,,
205583,control_change,,,,,15,0,1,,,,0,64,127,,
205608,note_off,,,,,25,0,1,,,,0,,,65,0
205648,note_off,,,,,40,0,1,,,,0,,,32,0
205824,note_on,,,,,0,0,1,,,,0,,,32,35
205824,note_on,,,,,176,0,1,,,,0,,,65,54
205864,note_off,,,,,40,0,1,,,,0,,,64,0
205904,note_off,,,,,40,0,1,,,,0,,,44,0
206080,note_on,,,,,176,0,1,,,,0,,,67,55
206080,note_on,,,,,0,0,1,,,,0,,,44,35
206120,note_off,,,,,40,0,1,,,,0,,,65,0
206160,note_off,,,,,40,0,1,,,,0,,,32,0
206336,note_on,,,,,176,0,1,,,,0,,,65,57
206336,note_on,,,,,0,0,1,,,,0,,,32,35
206376,note_off,,,,,40,0,1,,,,0,,,67,0
206396,control_change,,,,,20,0,1,,,,0,64,0,,
206416,note_off,,,,,20,0,1,,,,0,,,44,0
206592,note_on,,,,,176,0,1,,,,0,,,64,58
206592,note_on,,,,,0,0,1,,,,0,,,44,37
206632,note_off,,,,,40,0,1,,,,0,,,65,0
206672,note_off,,,,,40,0,1,,,,0,,,32,0
206848,note_on,,,,,0,0,1,,,,0,,,33,38
206848,note_on,,,,,0,0,1,,,,0,,,65,64
206848,control_change,,,,,0,0,1,,,,0,64,0,,
206848,note_on,,,,,0,0,1,,,,0,,,57,48
206848,control_change,,,,,176,0,1,,,,0,64,0,,
206848,note_on,,,,,0,0,1,,,,0,,,62,48
206878,note_off,,,,,30,0,1,,,,0,,,59,0
206878,note_off,,,,,0,0,1,,,,0,,,62,0
206888,note_off,,,,,10,0,1,,,,0,,,64,0
206928,note_off,,,,,40,0,1,,,,0,,,44,0
207104,note_off,,,,,176,0,1,,,,0,,,33,0
207104,note_on,,,,,0,0,1,,,,0,,,45,37
207116,control_change,,,,,12,0,1,,,,0,64,127,,
207360,note_off,,,,,244,0,1,,,,0,,,45,0
207360,note_on,,,,,0,0,1,,,,0,,,33,37
207616,note_off,,,,,256,0,1,,,,0,,,33,0
207616,note_on,,,,,0,0,1,,,,0,,,45,36
207872,note_off,,,,,256,0,1,,,,0,,,45,0
207872,note_on,,,,,0,0,1,,,,0,,,33,36
208128,note_off,,,,,256,0,1,,,,0,,,33,0
208128,note_on,,,,,0,0,1,,,,0,,,45,35
208384,note_on,,,,,0,0,1,,,,0,,,67,48
208384,set_tempo,,,,,2816,1,0,,600000,,,,,,
208384,note_on,,,,,0,0,1,,,,0,,,33,35
208384,note_on,,,,,0,0,1,,,,0,,,69,64
208384,note_on,,,,,0,0,1,,,,0,,,64,48
208384,note_off,,,,,256,0,1,,,,0,,,57,0
208384,note_on,,,,,0,0,1,,,,0,,,57,42
208384,note_on,,,,,0,0,1,,,,0,,,55,42
208384,note_off,,,,,0,0,1,,,,0,,,45,0
208384,note_off,,,,,0,0,1,,,,0,,,65,0
208384,note_off,,,,,0,0,1,,,,0,,,62,0
208384,note_on,,,,,0,0,1,,,,0,,,61,42
208394,control_change,,,,,10,0,1,,,,0,64,0,,
208600,control_change,,,,,206,0,1,,,,0,64,127,,
208640,note_off,,,,,40,0,1,,,,0,,,33,0
208640,set_tempo,,,,,256,1,0,,461538,,,,,,
208640,note_on,,,,,0,0,1,,,,0,,,45,34
208896,note_on,,,,,0,0,1,,,,0,,,33,34
208896,note_off,,,,,256,0,1,,,,0,,,45,0
209152,note_off,,,,,256,0,1,,,,0,,,33,0
209152,note_on,,,,,0,0,1,,,,0,,,45,33
209408,note_off,,,,,256,0,1,,,,0,,,45,0
209408,note_on,,,,,0,0,1,,,,0,,,33,33
209664,note_off,,,,,256,0,1,,,,0,,,33,0
209664,note_on,,,,,0,0,1,,,,0,,,45,32
209920,note_on,,,,,0,0,1,,,,0,,,62,60
209920,note_on,,,,,0,0,1,,,,0,,,57,38
209920,note_on,,,,,0,0,1,,,,0,,,54,38
209920,note_off,,,,,0,0,1,,,,0,,,45,0
209920,note_off,,,,,0,0,1,,,,0,,,69,0
209920,note_off,,,,,0,0,1,,,,0,,,67,0
209920,note_off,,,,,0,0,1,,,,0,,,64,0
209920,note_off,,,,,0,0,1,,,,0,,,61,0
209920,note_on,,,,,0,0,1,,,,0,,,38,32
209920,note_off,,,,,0,0,1,,,,0,,,55,0
209920,control_change,,,,,0,0,1,,,,0,64,127,,
209920,control_change,,,,,256,0,1,,,,0,64,0,,
209920,note_off,,,,,0,0,1,,,,0,,,57,0
210064,control_change,,,,,144,0,1,,,,0,64,0,,
210176,note_off,,,,,112,0,1,,,,0,,,38,0
210176,note_on,,,,,0,0,1,,,,0,,,45,31
210250,control_change,,,,,74,0,1,,,,0,64,127,,
210432,note_on,,,,,0,0,1,,,,0,,,38,31
210432,note_off,,,,,182,0,1,,,,0,,,45,0
210688,note_on,,,,,0,0,1,,,,0,,,45,30
210688,note_off,,,,,256,0,1,,,,0,,,38,0
210944,note_off,,,,,256,0,1,,,,0,,,45,0
210944,note_on,,,,,0,0,1,,,,0,,,38,30
211200,note_off,,,,,256,0,1,,,,0,,,38,0
211200,note_on,,,,,0,0,1,,,,0,,,45,29
211456,set_tempo,,,,,2816,1,0,,500000,,,,,,
211456,note_on,,,,,0,0,1,,,,0,,,38,29
211456,note_on,,,,,0,0,1,,,,0,,,62,55
211456,note_on,,,,,0,0,1,,,,0,,,57,33
211456,note_on,,,,,0,0,1,,,,0,,,54,33
211456,note_off,,,,,0,0,1,,,,0,,,45,0
211456,note_off,,,,,256,0,1,,,,0,,,54,0
211456,note_off,,,,,0,0,1,,,,0,,,57,0
211456,note_off,,,,,0,0,1,,,,0,,,62,0
211712,note_off,,,,,256,0,1,,,,0,,,38,0
211712,note_on,,,,,0,0,1,,,,0,,,45,28
211968,note_off,,,,,256,0,1,,,,0,,,45,0
211968,note_on,,,,,0,0,1,,,,0,,,38,28
212224,note_on,,,,,0,0,1,,,,0,,,45,27
212224,note_off,,,,,256,0,1,,,,0,,,38,0
212480,note_off,,,,,256,0,1,,,,0,,,45,0
212480,note_on,,,,,0,0,1,,,,0,,,38,27
212736,set_tempo,,,,,1280,1,0,,800000,,,,,,
212736,note_off,,,,,256,0,1,,,,0,,,38,0
212736,note_on,,,,,0,0,1,,,,0,,,45,26
212848,control_change,,,,,112,0,1,,,,0,64,0,,
212992,set_tempo,,,,,256,1,0,,625000,,,,,,
212992,note_on,,,,,0,0,1,,,,0,,,31,26
212992,note_on,,,,,0,0,1,,,,0,,,67,44
212992,note_on,,,,,0,0,1,,,,0,,,65,29
212992,note_on,,,,,0,0,1,,,,0,,,62,31
212992,note_on,,,,,0,0,1,,,,0,,,59,31
212992,note_on,,,,,0,0,1,,,,0,,,55,24
212992,note_off,,,,,0,0,1,,,,0,,,62,0
212992,note_off,,,,,0,0,1,,,,0,,,57,0
212992,note_off,,,,,0,0,1,,,,0,,,54,0
212992,control_change,,,,,0,0,1,,,,0,64,0,,
212992,control_change,,,,,144,0,1,,,,0,64,0,,
212992,note_off,,,,,0,0,1,,,,0,,,45,0
213248,note_off,,,,,256,0,1,,,,0,,,31,0
213248,note_on,,,,,0,0,1,,,,0,,,43,25
213248,set_tempo,,,,,256,1,0,,461538,,,,,,
213504,note_on,,,,,0,0,1,,,,0,,,31,25
213504,note_off,,,,,256,0,1,,,,0,,,43,0
213760,note_on,,,,,0,0,1,,,,0,,,43,24
213760,note_off,,,,,256,0,1,,,,0,,,31,0
214016,note_off,,,,,256,0,1,,,,0,,,43,0
214016,note_on,,,,,0,0,1,,,,0,,,31,24
214272,note_off,,,,,256,0,1,,,,0,,,31,0
214272,note_on,,,,,0,0,1,,,,0,,,43,23
214528,note_on,,,,,0,0,1,,,,0,,,31,23
214528,note_on,,,,,0,0,1,,,,0,,,67,39
214528,note_on,,,,,0,0,1,,,,0,,,65,24
214528,note_on,,,,,0,0,1,,,,0,,,62,26
214528,note_on,,,,,0,0,1,,,,0,,,55,19
214528,note_on,,,,,0,0,1,,,,0,,,59,26
214528,note_off,,,,,0,0,1,,,,0,,,67,0
214528,note_off,,,,,0,0,1,,,,0,,,65,0
214528,note_off,,,,,0,0,1,,,,0,,,62,0
214528,note_off,,,,,0,0,1,,,,0,,,59,0
214528,note_off,,,,,256,0,1,,,,0,,,55,0
214528,note_off,,,,,0,0,1,,,,0,,,43,0
214784,note_off,,,,,256,0,1,,,,0,,,31,0
214784,note_on,,,,,0,0,1,,,,0,,,43,22
215040,note_off,,,,,256,0,1,,,,0,,,43,0
215040,note_on,,,,,0,0,1,,,,0,,,31,22
215296,note_on,,,,,0,0,1,,,,0,,,43,21
215296,note_off,,,,,256,0,1,,,,0,,,31,0
215552,note_on,,,,,0,0,1,,,,0,,,31,21
215552,note_off,,,,,256,0,1,,,,0,,,43,0
215808,note_on,,,,,0,0,1,,,,0,,,43,20
215808,note_off,,,,,256,0,1,,,,0,,,31,0
216064,note_off,,,,,0,0,1,,,,0,,,55,0
216064,control_change,,,,,0,0,1,,,,0,64,0,,
216064,control_change,,,,,256,0,1,,,,0,64,0,,
216064,note_off,,,,,0,0,1,,,,0,,,62,0
216064,note_off,,,,,0,0,1,,,,0,,,59,0
216064,note_off,,,,,0,0,1,,,,0,,,65,0
216064,note_off,,,,,0,0,1,,,,0,,,67,0
216064,note_off,,,,,0,0,1,,,,0,,,43,0
216064,note_on,,,,,0,0,1,,,,0,,,60,28
216064,note_on,,,,,0,0,1,,,,0,,,63,43
216064,note_on,,,,,0,0,1,,,,0,,,36,22
216064,set_tempo,,,,,2816,1,0,,500000,,,,,,
216318,control_change,,,,,254,0,1,,,,0,64,127,,
216320,set_tempo,,,,,256,1,0,,461538,,,,,,
216320,note_on,,,,,2,0,1,,,,0,,,43,22
216400,note_off,,,,,80,0,1,,,,0,,,36,0
216576,note_on,,,,,176,0,1,,,,0,,,36,22
216656,note_off,,,,,80,0,1,,,,0,,,43,0
216832,note_on,,,,,176,0,1,,,,0,,,43,22
216912,note_off,,,,,80,0,1,,,,0,,,36,0
217088,note_on,,,,,176,0,1,,,,0,,,36,22
217168,note_off,,,,,80,0,1,,,,0,,,43,0
217344,note_on,,,,,176,0,1,,,,0,,,43,22
217424,note_off,,,,,80,0,1,,,,0,,,36,0
217600,note_off,,,,,176,0,1,,,,0,,,60,0
217600,note_off,,,,,0,0,1,,,,0,,,63,0
217600,note_on,,,,,0,0,1,,,,0,,,60,28
217600,note_on,,,,,0,0,1,,,,0,,,36,22
217600,note_on,,,,,0,0,1,,,,0,,,63,43
217635,control_change,,,,,35,0,1,,,,0,64,0,,
217680,note_off,,,,,45,0,1,,,,0,,,43,0
217819,control_change,,,,,139,0,1,,,,0,64,127,,
217856,note_on,,,,,37,0,1,,,,0,,,43,22
217936,note_off,,,,,80,0,1,,,,0,,,36,0
218112,note_on,,,,,176,0,1,,,,0,,,36,22
218192,note_off,,,,,80,0,1,,,,0,,,43,0
218368,note_on,,,,,176,0,1,,,,0,,,43,22
218448,note_off,,,,,80,0,1,,,,0,,,36,0
218624,note_on,,,,,176,0,1,,,,0,,,36,22
218704,note_off,,,,,80,0,1,,,,0,,,43,0
218880,note_on,,,,,176,0,1,,,,0,,,43,22
218960,note_off,,,,,80,0,1,,,,0,,,36,0
218974,control_change,,,,,14,0,1,,,,0,64,0,,
219136,control_change,,,,,162,0,1,,,,0,64,0,,
219136,control_change,,,,,0,0,1,,,,0,64,0,,
219136,note_off,,,,,0,0,1,,,,0,,,63,0
219136,note_on,,,,,0,0,1,,,,0,,,60,22
219136,note_on,,,,,0,0,1,,,,0,,,63,33
219136,note_on,,,,,0,0,1,,,,0,,,36,22
219136,set_tempo,,,,,2816,1,0,,545454,,,,,,
219136,note_off,,,,,0,0,1,,,,0,,,60,0
219216,note_off,,,,,80,0,1,,,,0,,,43,0
219318,control_change,,,,,102,0,1,,,,0,64,127,,
219392,set_tempo,,,,,256,1,0,,461538,,,,,,
219392,note_on,,,,,0,0,1,,,,0,,,62,35
219392,note_on,,,,,74,0,1,,,,0,,,59,23
219392,note_on,,,,,0,0,1,,,,0,,,43,22
219422,note_off,,,,,30,0,1,,,,0,,,60,0
219422,note_off,,,,,0,0,1,,,,0,,,63,0
219472,note_off,,,,,50,0,1,,,,0,,,36,0
219648,note_on,,,,,0,0,1,,,,0,,,63,36
219648,note_on,,,,,0,0,1,,,,0,,,36,22
219648,note_on,,,,,176,0,1,,,,0,,,60,23
219678,note_off,,,,,0,0,1,,,,0,,,62,0
219678,note_off,,,,,30,0,1,,,,0,,,59,0
219702,control_change,,,,,24,0,1,,,,0,64,0,,
219728,note_off,,,,,26,0,1,,,,0,,,43,0
219864,control_change,,,,,136,0,1,,,,0,64,127,,
219904,note_on,,,,,0,0,1,,,,0,,,43,22
219904,note_on,,,,,40,0,1,,,,0,,,59,25
219904,note_on,,,,,0,0,1,,,,0,,,62,38
219934,note_off,,,,,30,0,1,,,,0,,,60,0
219934,note_off,,,,,0,0,1,,,,0,,,63,0
219984,note_off,,,,,50,0,1,,,,0,,,36,0
220160,note_on,,,,,0,0,1,,,,0,,,36,22
220160,note_on,,,,,0,0,1,,,,0,,,63,40
220160,note_on,,,,,176,0,1,,,,0,,,60,26
220190,note_off,,,,,30,0,1,,,,0,,,59,0
220190,note_off,,,,,0,0,1,,,,0,,,62,0
220240,note_off,,,,,50,0,1,,,,0,,,43,0
220268,control_change,,,,,28,0,1,,,,0,64,0,,
220416,note_on,,,,,148,0,1,,,,0,,,59,26
220416,note_on,,,,,0,0,1,,,,0,,,62,41
220416,note_on,,,,,0,0,1,,,,0,,,43,22
220429,control_change,,,,,13,0,1,,,,0,64,127,,
220446,note_off,,,,,17,0,1,,,,0,,,60,0
220446,note_off,,,,,0,0,1,,,,0,,,63,0
220496,note_off,,,,,50,0,1,,,,0,,,36,0
220672,note_on,,,,,176,0,1,,,,0,,,60,28
220672,note_on,,,,,0,0,1,,,,0,,,63,43
220672,note_on,,,,,0,0,1,,,,0,,,36,22
220702,note_off,,,,,30,0,1,,,,0,,,59,0
220702,note_off,,,,,0,0,1,,,,0,,,62,0
220733,control_change,,,,,31,0,1,,,,0,64,0,,
220752,note_off,,,,,19,0,1,,,,0,,,43,0
220928,note_on,,,,,0,0,1,,,,0,,,44,22
220928,note_on,,,,,0,0,1,,,,0,,,62,41
220928,note_on,,,,,176,0,1,,,,0,,,59,27
220958,note_off,,,,,0,0,1,,,,0,,,63,0
220958,note_off,,,,,30,0,1,,,,0,,,60,0
221008,note_off,,,,,50,0,1,,,,0,,,36,0
221184,note_on,,,,,176,0,1,,,,0,,,60,26
221184,note_on,,,,,0,0,1,,,,0,,,63,40
221184,note_on,,,,,0,0,1,,,,0,,,36,22
221214,note_off,,,,,30,0,1,,,,0,,,59,0
221214,note_off,,,,,0,0,1,,,,0,,,62,0
221264,note_off,,,,,50,0,1,,,,0,,,44,0
221440,note_on,,,,,0,0,1,,,,0,,,44,22
221440,note_on,,,,,176,0,1,,,,0,,,62,38
221440,note_on,,,,,0,0,1,,,,0,,,65,38
221470,note_off,,,,,30,0,1,,,,0,,,60,0
221470,note_off,,,,,0,0,1,,,,0,,,63,0
221520,note_off,,,,,50,0,1,,,,0,,,36,0
221696,note_on,,,,,0,0,1,,,,0,,,36,22
221696,note_on,,,,,0,0,1,,,,0,,,63,36
221696,note_on,,,,,176,0,1,,,,0,,,60,24
221726,note_off,,,,,0,0,1,,,,0,,,65,0
221726,note_off,,,,,30,0,1,,,,0,,,62,0
221776,note_off,,,,,50,0,1,,,,0,,,44,0
221952,note_on,,,,,0,0,1,,,,0,,,44,22
221952,note_on,,,,,0,0,1,,,,0,,,62,34
221952,note_on,,,,,176,0,1,,,,0,,,59,22
221982,note_off,,,,,0,0,1,,,,0,,,63,0
221982,note_off,,,,,30,0,1,,,,0,,,60,0
222032,note_off,,,,,50,0,1,,,,0,,,36,0
222208,control_change,,,,,176,0,1,,,,0,64,0,,
222208,control_change,,,,,0,0,1,,,,0,64,0,,
222208,note_on,,,,,0,0,1,,,,0,,,60,21
222208,note_on,,,,,0,0,1,,,,0,,,63,36
222208,note_on,,,,,0,0,1,,,,0,,,36,22
222238,note_off,,,,,30,0,1,,,,0,,,59,0
222238,note_off,,,,,0,0,1,,,,0,,,62,0
222288,note_off,,,,,50,0,1,,,,0,,,44,0
222464,note_off,,,,,176,0,1,,,,0,,,36,0
222464,note_on,,,,,0,0,1,,,,0,,,43,22
222720,note_off,,,,,256,0,1,,,,0,,,43,0
222720,note_on,,,,,0,0,1,,,,0,,,36,22
222976,note_off,,,,,256,0,1,,,,0,,,36,0
222976,note_on,,,,,0,0,1,,,,0,,,43,22
223232,note_off,,,,,256,0,1,,,,0,,,43,0
223232,note_on,,,,,0,0,1,,,,0,,,36,22
223488,note_on,,,,,0,0,1,,,,0,,,43,22
223488,note_off,,,,,256,0,1,,,,0,,,36,0
223744,note_on,,,,,0,0,1,,,,0,,,36,22
223744,note_on,,,,,0,0,1,,,,0,,,63,40
223744,note_off,,,,,256,0,1,,,,0,,,60,0
223744,note_off,,,,,0,0,1,,,,0,,,63,0
223744,note_off,,,,,0,0,1,,,,0,,,43,0
223744,note_on,,,,,0,0,1,,,,0,,,60,25
223963,control_change,,,,,219,0,1,,,,0,64,127,,
224000,note_off,,,,,37,0,1,,,,0,,,36,0
224000,note_on,,,,,0,0,1,,,,0,,,43,22
224256,note_on,,,,,0,0,1,,,,0,,,36,22
224256,note_off,,,,,0,0,1,,,,0,,,43,0
224256,note_on,,,,,256,0,1,,,,0,,,65,42
224316,note_off,,,,,60,0,1,,,,0,,,63,0
224512,note_off,,,,,196,0,1,,,,0,,,36,0
224512,note_on,,,,,0,0,1,,,,0,,,43,22
224768,note_on,,,,,256,0,1,,,,0,,,66,44
224768,note_off,,,,,0,0,1,,,,0,,,43,0
224768,note_on,,,,,0,0,1,,,,0,,,36,22
224828,note_off,,,,,60,0,1,,,,0,,,65,0
225024,note_off,,,,,196,0,1,,,,0,,,36,0
225024,note_on,,,,,0,0,1,,,,0,,,43,22
225095,control_change,,,,,71,0,1,,,,0,64,0,,
225280,note_off,,,,,0,0,1,,,,0,,,43,0
225280,note_off,,,,,0,0,1,,,,0,,,60,0
225280,control_change,,,,,0,0,1,,,,0,64,0,,
225280,note_on,,,,,0,0,1,,,,0,,,59,39
225280,note_on,,,,,0,0,1,,,,0,,,31,42
225280,note_on,,,,,0,0,1,,,,0,,,67,55
225280,set_tempo,,,,,5888,1,0,,545454,,,,,,
225280,control_change,,,,,185,0,1,,,,0,64,0,,
225280,note_on,,,,,0,0,1,,,,0,,,62,39
225340,note_off,,,,,60,0,1,,,,0,,,66,0
225454,note_off,,,,,0,0,1,,,,0,,,67,0
225454,note_off,,,,,0,0,1,,,,0,,,62,0
225454,note_off,,,,,114,0,1,,,,0,,,59,0
225536,note_on,,,,,82,0,1,,,,0,,,43,33
225596,note_off,,,,,60,0,1,,,,0,,,31,0
225792,set_tempo,,,,,512,1,0,,461538,,,,,,
225792,note_on,,,,,196,0,1,,,,0,,,55,38
225792,note_on,,,,,0,0,1,,,,0,,,31,33
225852,note_off,,,,,60,0,1,,,,0,,,43,0
225966,note_off,,,,,114,0,1,,,,0,,,55,0
226048,note_on,,,,,82,0,1,,,,0,,,43,33
226108,note_off,,,,,60,0,1,,,,0,,,31,0
226304,set_tempo,,,,,512,1,0,,461538,,,,,,
226304,note_on,,,,,196,0,1,,,,0,,,59,37
226304,note_on,,,,,0,0,1,,,,0,,,62,37
226304,note_on,,,,,0,0,1,,,,0,,,67,52
226304,note_on,,,,,0,0,1,,,,0,,,31,42
226364,note_off,,,,,60,0,1,,,,0,,,43,0
226478,note_off,,,,,0,0,1,,,,0,,,62,0
226478,note_off,,,,,0,0,1,,,,0,,,67,0
226478,note_off,,,,,114,0,1,,,,0,,,59,0
226560,note_on,,,,,82,0,1,,,,0,,,43,33
226620,note_off,,,,,60,0,1,,,,0,,,31,0
226816,note_on,,,,,196,0,1,,,,0,,,55,35
226816,note_on,,,,,0,0,1,,,,0,,,31,33
226876,note_off,,,,,60,0,1,,,,0,,,43,0
226990,note_off,,,,,114,0,1,,,,0,,,55,0
227072,note_on,,,,,82,0,1,,,,0,,,43,33
227132,note_off,,,,,60,0,1,,,,0,,,31,0
227328,note_on,,,,,0,0,1,,,,0,,,31,42
227328,note_on,,,,,0,0,1,,,,0,,,67,48
227328,note_on,,,,,196,0,1,,,,0,,,59,34
227328,note_on,,,,,0,0,1,,,,0,,,62,34
227388,note_off,,,,,60,0,1,,,,0,,,43,0
227502,note_off,,,,,0,0,1,,,,0,,,62,0
227502,note_off,,,,,114,0,1,,,,0,,,59,0
227502,note_off,,,,,0,0,1,,,,0,,,67,0
227584,note_on,,,,,82,0,1,,,,0,,,43,33
227644,note_off,,,,,60,0,1,,,,0,,,31,0
227840,note_on,,,,,0,0,1,,,,0,,,31,33
227840,note_on,,,,,196,0,1,,,,0,,,55,33
227900,note_off,,,,,60,0,1,,,,0,,,43,0
228014,note_off,,,,,114,0,1,,,,0,,,55,0
228096,note_on,,,,,82,0,1,,,,0,,,43,33
228156,note_off,,,,,60,0,1,,,,0,,,31,0
228352,set_tempo,,,,,2048,1,0,,500000,,,,,,
228352,control_change,,,,,196,0,1,,,,0,64,0,,
228352,control_change,,,,,0,0,1,,,,0,64,0,,
228352,control_change,,,,,0,0,1,,,,0,64,0,,
228352,note_on,,,,,0,0,1,,,,0,,,60,28
228352,note_on,,,,,0,0,1,,,,0,,,63,43
228352,note_on,,,,,0,0,1,,,,0,,,36,22
228412,note_off,,,,,60,0,1,,,,0,,,43,0
228606,control_change,,,,,194,0,1,,,,0,64,127,,
228608,set_tempo,,,,,256,1,0,,461538,,,,,,
228608,note_on,,,,,2,0,1,,,,0,,,43,22
228688,note_off,,,,,80,0,1,,,,0,,,36,0
228864,note_on,,,,,176,0,1,,,,0,,,36,22
228944,note_off,,,,,80,0,1,,,,0,,,43,0
229120,note_on,,,,,176,0,1,,,,0,,,43,22
229200,note_off,,,,,80,0,1,,,,0,,,36,0
229376,note_on,,,,,176,0,1,,,,0,,,36,22
229456,note_off,,,,,80,0,1,,,,0,,,43,0
229632,note_on,,,,,176,0,1,,,,0,,,43,22
229712,note_off,,,,,80,0,1,,,,0,,,36,0
229888,note_on,,,,,0,0,1,,,,0,,,36,22
229888,note_on,,,,,0,0,1,,,,0,,,63,43
229888,note_off,,,,,0,0,1,,,,0,,,63,0
229888,note_off,,,,,176,0,1,,,,0,,,60,0
229888,note_on,,,,,0,0,1,,,,0,,,60,28
229923,control_change,,,,,35,0,1,,,,0,64,0,,
229968,note_off,,,,,45,0,1,,,,0,,,43,0
230107,control_change,,,,,139,0,1,,,,0,64,127,,
230144,note_on,,,,,37,0,1,,,,0,,,43,22
230224,note_off,,,,,80,0,1,,,,0,,,36,0
230400,note_on,,,,,176,0,1,,,,0,,,36,22
230480,note_off,,,,,80,0,1,,,,0,,,43,0
230656,note_on,,,,,176,0,1,,,,0,,,43,22
230736,note_off,,,,,80,0,1,,,,0,,,36,0
230912,note_on,,,,,176,0,1,,,,0,,,36,22
230992,note_off,,,,,80,0,1,,,,0,,,43,0
231168,note_on,,,,,176,0,1,,,,0,,,43,22
231248,note_off,,,,,80,0,1,,,,0,,,36,0
231262,control_change,,,,,14,0,1,,,,0,64,0,,
231424,note_on,,,,,0,0,1,,,,0,,,36,22
231424,note_on,,,,,0,0,1,,,,0,,,63,33
231424,set_tempo,,,,,2816,1,0,,545454,,,,,,
231424,note_off,,,,,0,0,1,,,,0,,,63,0
231424,note_on,,,,,0,0,1,,,,0,,,60,22
231424,control_change,,,,,0,0,1,,,,0,64,0,,
231424,control_change,,,,,0,0,1,,,,0,64,0,,
231424,control_change,,,,,162,0,1,,,,0,64,0,,
231424,note_off,,,,,0,0,1,,,,0,,,60,0
231504,note_off,,,,,80,0,1,,,,0,,,43,0
231606,control_change,,,,,102,0,1,,,,0,64,127,,
231680,note_on,,,,,74,0,1,,,,0,,,59,23
231680,note_on,,,,,0,0,1,,,,0,,,62,35
231680,note_on,,,,,0,0,1,,,,0,,,43,22
231680,set_tempo,,,,,256,1,0,,461538,,,,,,
231710,note_off,,,,,30,0,1,,,,0,,,60,0
231710,note_off,,,,,0,0,1,,,,0,,,63,0
231760,note_off,,,,,50,0,1,,,,0,,,36,0
231936,note_on,,,,,176,0,1,,,,0,,,60,23
231936,note_on,,,,,0,0,1,,,,0,,,63,36
231936,note_on,,,,,0,0,1,,,,0,,,36,22
231966,note_off,,,,,30,0,1,,,,0,,,59,0
231966,note_off,,,,,0,0,1,,,,0,,,62,0
231990,control_change,,,,,24,0,1,,,,0,64,0,,
232016,note_off,,,,,26,0,1,,,,0,,,43,0
232152,control_change,,,,,136,0,1,,,,0,64,127,,
232192,note_on,,,,,40,0,1,,,,0,,,59,25
232192,note_on,,,,,0,0,1,,,,0,,,62,38
232192,note_on,,,,,0,0,1,,,,0,,,43,22
232222,note_off,,,,,30,0,1,,,,0,,,60,0
232222,note_off,,,,,0,0,1,,,,0,,,63,0
232272,note_off,,,,,50,0,1,,,,0,,,36,0
232448,note_on,,,,,0,0,1,,,,0,,,36,22
232448,note_on,,,,,0,0,1,,,,0,,,63,40
232448,note_on,,,,,176,0,1,,,,0,,,60,26
232478,note_off,,,,,30,0,1,,,,0,,,59,0
232478,note_off,,,,,0,0,1,,,,0,,,62,0
232528,note_off,,,,,50,0,1,,,,0,,,43,0
232556,control_change,,,,,28,0,1,,,,0,64,0,,
232704,note_on,,,,,148,0,1,,,,0,,,59,26
232704,note_on,,,,,0,0,1,,,,0,,,62,41
232704,note_on,,,,,0,0,1,,,,0,,,43,22
232717,control_change,,,,,13,0,1,,,,0,64,127,,
232734,note_off,,,,,17,0,1,,,,0,,,60,0
232734,note_off,,,,,0,0,1,,,,0,,,63,0
232784,note_off,,,,,50,0,1,,,,0,,,36,0
232960,note_on,,,,,176,0,1,,,,0,,,60,28
232960,note_on,,,,,0,0,1,,,,0,,,63,43
232960,note_on,,,,,0,0,1,,,,0,,,36,22
232990,note_off,,,,,0,0,1,,,,0,,,62,0
232990,note_off,,,,,30,0,1,,,,0,,,59,0
233021,control_change,,,,,31,0,1,,,,0,64,0,,
233040,note_off,,,,,19,0,1,,,,0,,,43,0
233216,note_on,,,,,176,0,1,,,,0,,,59,27
233216,note_on,,,,,0,0,1,,,,0,,,62,41
233216,note_on,,,,,0,0,1,,,,0,,,44,22
233246,note_off,,,,,30,0,1,,,,0,,,60,0
233246,note_off,,,,,0,0,1,,,,0,,,63,0
233296,note_off,,,,,50,0,1,,,,0,,,36,0
233472,note_on,,,,,176,0,1,,,,0,,,60,26
233472,note_on,,,,,0,0,1,,,,0,,,63,40
233472,note_on,,,,,0,0,1,,,,0,,,36,22
233502,note_off,,,,,30,0,1,,,,0,,,59,0
233502,note_off,,,,,0,0,1,,,,0,,,62,0
233552,note_off,,,,,50,0,1,,,,0,,,44,0
233728,note_on,,,,,176,0,1,,,,0,,,62,38
233728,note_on,,,,,0,0,1,,,,0,,,65,38
233728,note_on,,,,,0,0,1,,,,0,,,44,22
233758,note_off,,,,,30,0,1,,,,0,,,60,0
233758,note_off,,,,,0,0,1,,,,0,,,63,0
233808,note_off,,,,,50,0,1,,,,0,,,36,0
233984,note_on,,,,,176,0,1,,,,0,,,60,24
233984,note_on,,,,,0,0,1,,,,0,,,63,36
233984,note_on,,,,,0,0,1,,,,0,,,36,22
234014,note_off,,,,,30,0,1,,,,0,,,62,0
234014,note_off,,,,,0,0,1,,,,0,,,65,0
234064,note_off,,,,,50,0,1,,,,0,,,44,0
234240,note_on,,,,,176,0,1,,,,0,,,59,22
234240,note_on,,,,,0,0,1,,,,0,,,44,22
234240,note_on,,,,,0,0,1,,,,0,,,62,34
234270,note_off,,,,,0,0,1,,,,0,,,63,0
234270,note_off,,,,,30,0,1,,,,0,,,60,0
234320,note_off,,,,,50,0,1,,,,0,,,36,0
234496,control_change,,,,,176,0,1,,,,0,64,0,,
234496,control_change,,,,,0,0,1,,,,0,64,0,,
234496,control_change,,,,,0,0,1,,,,0,64,0,,
234496,note_on,,,,,0,0,1,,,,0,,,60,21
234496,note_on,,,,,0,0,1,,,,0,,,63,36
234496,note_on,,,,,0,0,1,,,,0,,,36,22
234526,note_off,,,,,30,0,1,,,,0,,,59,0
234526,note_off,,,,,0,0,1,,,,0,,,62,0
234576,note_off,,,,,50,0,1,,,,0,,,44,0
234752,note_off,,,,,176,0,1,,,,0,,,36,0
234752,note_on,,,,,0,0,1,,,,0,,,43,22
235008,note_on,,,,,0,0,1,,,,0,,,36,22
235008,note_off,,,,,256,0,1,,,,0,,,43,0
235264,note_on,,,,,0,0,1,,,,0,,,43,22
235264,note_off,,,,,256,0,1,,,,0,,,36,0
235520,note_off,,,,,256,0,1,,,,0,,,43,0
235520,note_on,,,,,0,0,1,,,,0,,,36,22
235776,note_off,,,,,256,0,1,,,,0,,,36,0
235776,note_on,,,,,0,0,1,,,,0,,,43,22
236032,note_off,,,,,256,0,1,,,,0,,,60,0
236032,note_off,,,,,0,0,1,,,,0,,,63,0
236032,note_off,,,,,0,0,1,,,,0,,,43,0
236032,note_on,,,,,0,0,1,,,,0,,,60,25
236032,note_on,,,,,0,0,1,,,,0,,,63,40
236032,note_on,,,,,0,0,1,,,,0,,,36,22
236251,control_change,,,,,219,0,1,,,,0,64,127,,
236288,note_on,,,,,0,0,1,,,,0,,,43,22
236288,note_off,,,,,37,0,1,,,,0,,,36,0
236544,note_on,,,,,256,0,1,,,,0,,,65,42
236544,note_off,,,,,0,0,1,,,,0,,,43,0
236544,note_on,,,,,0,0,1,,,,0,,,36,22
236604,note_off,,,,,60,0,1,,,,0,,,63,0
236800,note_off,,,,,196,0,1,,,,0,,,36,0
236800,note_on,,,,,0,0,1,,,,0,,,43,22
237056,note_off,,,,,0,0,1,,,,0,,,43,0
237056,note_on,,,,,0,0,1,,,,0,,,36,22
237056,note_on,,,,,256,0,1,,,,0,,,66,44
237116,note_off,,,,,60,0,1,,,,0,,,65,0
237312,note_off,,,,,196,0,1,,,,0,,,36,0
237312,note_on,,,,,0,0,1,,,,0,,,43,22
237383,control_change,,,,,71,0,1,,,,0,64,0,,
237568,set_tempo,,,,,5888,1,0,,545454,,,,,,
237568,note_on,,,,,0,0,1,,,,0,,,31,42
237568,note_on,,,,,0,0,1,,,,0,,,67,55
237568,note_on,,,,,0,0,1,,,,0,,,62,39
237568,note_on,,,,,0,0,1,,,,0,,,59,39
237568,note_off,,,,,0,0,1,,,,0,,,60,0
237568,control_change,,,,,0,0,1,,,,0,64,0,,
237568,control_change,,,,,185,0,1,,,,0,64,0,,
237568,note_off,,,,,0,0,1,,,,0,,,43,0
237628,note_off,,,,,60,0,1,,,,0,,,66,0
237742,note_off,,,,,114,0,1,,,,0,,,59,0
237742,note_off,,,,,0,0,1,,,,0,,,62,0
237742,note_off,,,,,0,0,1,,,,0,,,67,0
237824,note_on,,,,,82,0,1,,,,0,,,43,33
237884,note_off,,,,,60,0,1,,,,0,,,31,0
238080,note_on,,,,,0,0,1,,,,0,,,31,33
238080,note_on,,,,,196,0,1,,,,0,,,55,38
238080,set_tempo,,,,,512,1,0,,461538,,,,,,
238140,note_off,,,,,60,0,1,,,,0,,,43,0
238254,note_off,,,,,114,0,1,,,,0,,,55,0
238336,note_on,,,,,82,0,1,,,,0,,,43,33
238396,note_off,,,,,60,0,1,,,,0,,,31,0
238592,note_on,,,,,0,0,1,,,,0,,,62,44
238592,note_on,,,,,196,0,1,,,,0,,,59,44
238592,note_on,,,,,0,0,1,,,,0,,,68,59
238592,note_on,,,,,0,0,1,,,,0,,,32,49
238592,set_tempo,,,,,512,1,0,,461538,,,,,,
238652,note_off,,,,,60,0,1,,,,0,,,43,0
238766,note_off,,,,,114,0,1,,,,0,,,59,0
238766,note_off,,,,,0,0,1,,,,0,,,62,0
238766,note_off,,,,,0,0,1,,,,0,,,68,0
238848,note_on,,,,,82,0,1,,,,0,,,43,33
238908,note_off,,,,,60,0,1,,,,0,,,32,0
239104,note_on,,,,,196,0,1,,,,0,,,56,35
239104,note_on,,,,,0,0,1,,,,0,,,32,33
239164,note_off,,,,,60,0,1,,,,0,,,43,0
239278,note_off,,,,,114,0,1,,,,0,,,56,0
239360,note_on,,,,,82,0,1,,,,0,,,43,33
239420,note_off,,,,,60,0,1,,,,0,,,32,0
239616,note_on,,,,,196,0,1,,,,0,,,59,34
239616,note_on,,,,,0,0,1,,,,0,,,62,34
239616,note_on,,,,,0,0,1,,,,0,,,67,48
239616,note_on,,,,,0,0,1,,,,0,,,31,42
239676,note_off,,,,,60,0,1,,,,0,,,43,0
239790,note_off,,,,,114,0,1,,,,0,,,59,0
239790,note_off,,,,,0,0,1,,,,0,,,62,0
239790,note_off,,,,,0,0,1,,,,0,,,67,0
239872,note_on,,,,,82,0,1,,,,0,,,43,33
239932,note_off,,,,,60,0,1,,,,0,,,31,0
240128,note_on,,,,,196,0,1,,,,0,,,55,33
240128,note_on,,,,,0,0,1,,,,0,,,31,33
240188,note_off,,,,,60,0,1,,,,0,,,43,0
240302,note_off,,,,,114,0,1,,,,0,,,55,0
240384,note_on,,,,,82,0,1,,,,0,,,43,33
240444,note_off,,,,,60,0,1,,,,0,,,31,0
240640,note_on,,,,,0,0,1,,,,0,,,34,22
240640,control_change,,,,,196,0,1,,,,0,64,0,,
240640,control_change,,,,,0,0,1,,,,0,64,0,,
240640,note_on,,,,,0,0,1,,,,0,,,61,28
240640,note_on,,,,,0,0,1,,,,0,,,64,43
240640,set_tempo,,,,,2048,1,0,,500000,,,,,,
240700,note_off,,,,,60,0,1,,,,0,,,43,0
240896,set_tempo,,,,,256,1,0,,461538,,,,,,
240896,note_on,,,,,196,0,1,,,,0,,,43,22
240976,note_off,,,,,80,0,1,,,,0,,,34,0
241152,note_on,,,,,176,0,1,,,,0,,,34,22
241232,note_off,,,,,80,0,1,,,,0,,,43,0
241408,note_on,,,,,176,0,1,,,,0,,,43,22
241488,note_off,,,,,80,0,1,,,,0,,,34,0
241608,control_change,,,,,120,0,1,,,,0,64,127,,
241664,note_on,,,,,56,0,1,,,,0,,,34,22
241744,note_off,,,,,80,0,1,,,,0,,,43,0
241920,note_on,,,,,176,0,1,,,,0,,,43,22
242000,note_off,,,,,80,0,1,,,,0,,,34,0
242176,note_on,,,,,0,0,1,,,,0,,,34,22
242176,note_on,,,,,0,0,1,,,,0,,,64,43
242176,note_on,,,,,0,0,1,,,,0,,,61,28
242176,note_off,,,,,0,0,1,,,,0,,,64,0
242176,note_off,,,,,0,0,1,,,,0,,,61,0
242176,control_change,,,,,176,0,1,,,,0,64,0,,
242256,note_off,,,,,80,0,1,,,,0,,,43,0
242432,note_on,,,,,176,0,1,,,,0,,,43,22
242512,note_off,,,,,80,0,1,,,,0,,,34,0
242688,note_on,,,,,176,0,1,,,,0,,,34,22
242768,note_off,,,,,80,0,1,,,,0,,,43,0
242944,note_on,,,,,176,0,1,,,,0,,,43,22
243024,note_off,,,,,80,0,1,,,,0,,,34,0
243200,note_on,,,,,176,0,1,,,,0,,,34,22
243280,note_off,,,,,80,0,1,,,,0,,,43,0
243456,note_on,,,,,176,0,1,,,,0,,,43,22
243536,note_off,,,,,80,0,1,,,,0,,,34,0
243712,control_change,,,,,176,0,1,,,,0,64,0,,
243712,control_change,,,,,0,0,1,,,,0,64,0,,
243712,control_change,,,,,0,0,1,,,,0,64,0,,
243712,control_change,,,,,0,0,1,,,,0,64,0,,
243712,note_off,,,,,0,0,1,,,,0,,,61,0
243712,note_off,,,,,0,0,1,,,,0,,,64,0
243712,note_on,,,,,0,0,1,,,,0,,,61,22
243712,note_on,,,,,0,0,1,,,,0,,,64,33
243712,note_on,,,,,0,0,1,,,,0,,,34,22
243712,set_tempo,,,,,2816,1,0,,545454,,,,,,
243792,note_off,,,,,80,0,1,,,,0,,,43,0
243894,control_change,,,,,102,0,1,,,,0,64,127,,
243968,note_on,,,,,0,0,1,,,,0,,,63,35
243968,note_on,,,,,0,0,1,,,,0,,,43,22
243968,set_tempo,,,,,256,1,0,,461538,,,,,,
243968,note_on,,,,,74,0,1,,,,0,,,60,23
243998,note_off,,,,,30,0,1,,,,0,,,61,0
243998,note_off,,,,,0,0,1,,,,0,,,64,0
244048,note_off,,,,,50,0,1,,,,0,,,34,0
244224,note_on,,,,,176,0,1,,,,0,,,61,24
244224,note_on,,,,,0,0,1,,,,0,,,64,39
244224,note_on,,,,,0,0,1,,,,0,,,34,23
244254,note_off,,,,,30,0,1,,,,0,,,60,0
244254,note_off,,,,,0,0,1,,,,0,,,63,0
244278,control_change,,,,,24,0,1,,,,0,64,0,,
244304,note_off,,,,,26,0,1,,,,0,,,43,0
244440,control_change,,,,,136,0,1,,,,0,64,127,,
244480,note_on,,,,,40,0,1,,,,0,,,60,28
244480,note_on,,,,,0,0,1,,,,0,,,63,42
244480,note_on,,,,,0,0,1,,,,0,,,43,24
244510,note_off,,,,,30,0,1,,,,0,,,61,0
244510,note_off,,,,,0,0,1,,,,0,,,64,0
244560,note_off,,,,,50,0,1,,,,0,,,34,0
244736,note_on,,,,,0,0,1,,,,0,,,34,25
244736,note_on,,,,,176,0,1,,,,0,,,61,29
244736,note_on,,,,,0,0,1,,,,0,,,64,44
244766,note_off,,,,,30,0,1,,,,0,,,60,0
244766,note_off,,,,,0,0,1,,,,0,,,63,0
244816,note_off,,,,,50,0,1,,,,0,,,43,0
244844,control_change,,,,,28,0,1,,,,0,64,0,,
244992,note_on,,,,,148,0,1,,,,0,,,60,30
244992,note_on,,,,,0,0,1,,,,0,,,63,48
244992,note_on,,,,,0,0,1,,,,0,,,43,25
245005,control_change,,,,,13,0,1,,,,0,64,127,,
245022,note_off,,,,,17,0,1,,,,0,,,61,0
245022,note_off,,,,,0,0,1,,,,0,,,64,0
245072,note_off,,,,,50,0,1,,,,0,,,34,0
245248,note_on,,,,,176,0,1,,,,0,,,61,33
245248,note_on,,,,,0,0,1,,,,0,,,64,51
245248,note_on,,,,,0,0,1,,,,0,,,33,25
245278,note_off,,,,,0,0,1,,,,0,,,63,0
245278,note_off,,,,,30,0,1,,,,0,,,60,0
245309,control_change,,,,,31,0,1,,,,0,64,0,,
245328,note_off,,,,,19,0,1,,,,0,,,43,0
245504,note_on,,,,,176,0,1,,,,0,,,60,34
245504,note_on,,,,,0,0,1,,,,0,,,63,50
245504,note_on,,,,,0,0,1,,,,0,,,45,27
245534,note_off,,,,,30,0,1,,,,0,,,61,0
245534,note_off,,,,,0,0,1,,,,0,,,64,0
245584,note_off,,,,,50,0,1,,,,0,,,33,0
245760,note_on,,,,,0,0,1,,,,0,,,33,27
245760,note_on,,,,,0,0,1,,,,0,,,64,50
245760,note_on,,,,,176,0,1,,,,0,,,61,33
245790,note_off,,,,,30,0,1,,,,0,,,60,0
245790,note_off,,,,,0,0,1,,,,0,,,63,0
245840,note_off,,,,,50,0,1,,,,0,,,45,0
246016,note_on,,,,,0,0,1,,,,0,,,65,50
246016,note_on,,,,,0,0,1,,,,0,,,45,28
246016,note_on,,,,,176,0,1,,,,0,,,62,50
246046,note_off,,,,,30,0,1,,,,0,,,61,0
246046,note_off,,,,,0,0,1,,,,0,,,64,0
246096,note_off,,,,,50,0,1,,,,0,,,33,0
246272,note_on,,,,,176,0,1,,,,0,,,61,31
246272,note_on,,,,,0,0,1,,,,0,,,64,48
246272,note_on,,,,,0,0,1,,,,0,,,33,28
246302,note_off,,,,,0,0,1,,,,0,,,65,0
246302,note_off,,,,,30,0,1,,,,0,,,62,0
246352,note_off,,,,,50,0,1,,,,0,,,45,0
246528,note_on,,,,,176,0,1,,,,0,,,60,29
246528,note_on,,,,,0,0,1,,,,0,,,63,46
246528,note_on,,,,,0,0,1,,,,0,,,45,28
246558,note_off,,,,,0,0,1,,,,0,,,64,0
246558,note_off,,,,,30,0,1,,,,0,,,61,0
246608,note_off,,,,,50,0,1,,,,0,,,33,0
246784,control_change,,,,,0,0,1,,,,0,64,0,,
246784,control_change,,,,,0,0,1,,,,0,64,0,,
246784,control_change,,,,,0,0,1,,,,0,64,0,,
246784,control_change,,,,,0,0,1,,,,0,64,0,,
246784,note_on,,,,,0,0,1,,,,0,,,61,31
246784,note_on,,,,,0,0,1,,,,0,,,64,46
246784,note_on,,,,,0,0,1,,,,0,,,33,30
246784,control_change,,,,,176,0,1,,,,0,64,0,,
246814,note_off,,,,,0,0,1,,,,0,,,63,0
246814,note_off,,,,,30,0,1,,,,0,,,60,0
246864,note_off,,,,,50,0,1,,,,0,,,45,0
246966,control_change,,,,,102,0,1,,,,0,64,127,,
247040,note_on,,,,,74,0,1,,,,0,,,45,30
247120,note_off,,,,,80,0,1,,,,0,,,33,0
247296,note_on,,,,,176,0,1,,,,0,,,33,30
247350,control_change,,,,,54,0,1,,,,0,64,0,,
247376,note_off,,,,,26,0,1,,,,0,,,45,0
247512,control_change,,,,,136,0,1,,,,0,64,127,,
247552,note_on,,,,,40,0,1,,,,0,,,45,32
247632,note_off,,,,,80,0,1,,,,0,,,33,0
247808,note_on,,,,,176,0,1,,,,0,,,33,32
247888,note_off,,,,,80,0,1,,,,0,,,45,0
247916,control_change,,,,,28,0,1,,,,0,64,0,,
248064,note_on,,,,,148,0,1,,,,0,,,45,33
248077,control_change,,,,,13,0,1,,,,0,64,127,,
248144,note_off,,,,,67,0,1,,,,0,,,33,0
248320,note_on,,,,,0,0,1,,,,0,,,62,31
248320,note_on,,,,,0,0,1,,,,0,,,65,54
248320,set_tempo,,,,,4352,1,0,,545454,,,,,,
248320,note_on,,,,,176,0,1,,,,0,,,59,16
248320,note_on,,,,,0,0,1,,,,0,,,32,33
248350,note_off,,,,,30,0,1,,,,0,,,61,0
248350,note_off,,,,,0,0,1,,,,0,,,64,0
248381,control_change,,,,,31,0,1,,,,0,64,0,,
248400,note_off,,,,,19,0,1,,,,0,,,45,0
248576,note_on,,,,,0,0,1,,,,0,,,44,34
248576,note_on,,,,,176,0,1,,,,0,,,64,52
248576,set_tempo,,,,,256,1,0,,461538,,,,,,
248591,control_change,,,,,15,0,1,,,,0,64,127,,
248616,note_off,,,,,25,0,1,,,,0,,,65,0
248656,note_off,,,,,40,0,1,,,,0,,,32,0
248832,note_on,,,,,0,0,1,,,,0,,,32,35
248832,note_on,,,,,176,0,1,,,,0,,,65,54
248872,note_off,,,,,40,0,1,,,,0,,,64,0
248912,note_off,,,,,40,0,1,,,,0,,,44,0
249088,note_on,,,,,0,0,1,,,,0,,,44,35
249088,note_on,,,,,176,0,1,,,,0,,,67,55
249128,note_off,,,,,40,0,1,,,,0,,,65,0
249168,note_off,,,,,40,0,1,,,,0,,,32,0
249344,note_on,,,,,0,0,1,,,,0,,,32,35
249344,note_on,,,,,176,0,1,,,,0,,,65,57
249384,note_off,,,,,40,0,1,,,,0,,,67,0
249404,control_change,,,,,20,0,1,,,,0,64,0,,
249424,note_off,,,,,20,0,1,,,,0,,,44,0
249600,note_on,,,,,176,0,1,,,,0,,,64,58
249600,note_on,,,,,0,0,1,,,,0,,,44,37
249640,note_off,,,,,40,0,1,,,,0,,,65,0
249680,note_off,,,,,40,0,1,,,,0,,,32,0
249856,control_change,,,,,176,0,1,,,,0,64,0,,
249856,note_on,,,,,0,0,1,,,,0,,,57,48
249856,note_on,,,,,0,0,1,,,,0,,,62,48
249856,note_on,,,,,0,0,1,,,,0,,,65,64
249856,note_on,,,,,0,0,1,,,,0,,,33,38
249856,control_change,,,,,0,0,1,,,,0,64,0,,
249886,note_off,,,,,30,0,1,,,,0,,,59,0
249886,note_off,,,,,0,0,1,,,,0,,,62,0
249896,note_off,,,,,10,0,1,,,,0,,,64,0
249936,note_off,,,,,40,0,1,,,,0,,,44,0
250112,note_off,,,,,176,0,1,,,,0,,,33,0
250112,note_on,,,,,0,0,1,,,,0,,,45,37
250124,control_change,,,,,12,0,1,,,,0,64,127,,
250368,note_off,,,,,244,0,1,,,,0,,,45,0
250368,note_on,,,,,0,0,1,,,,0,,,33,37
250624,note_off,,,,,256,0,1,,,,0,,,33,0
250624,note_on,,,,,0,0,1,,,,0,,,45,36
250880,note_on,,,,,0,0,1,,,,0,,,33,36
250880,note_off,,,,,256,0,1,,,,0,,,45,0
251136,note_on,,,,,0,0,1,,,,0,,,45,35
251136,note_off,,,,,256,0,1,,,,0,,,33,0
251392,note_on,,,,,0,0,1,,,,0,,,64,48
251392,note_off,,,,,256,0,1,,,,0,,,57,0
251392,note_off,,,,,0,0,1,,,,0,,,45,0
251392,note_on,,,,,0,0,1,,,,0,,,55,42
251392,note_on,,,,,0,0,1,,,,0,,,57,42
251392,note_on,,,,,0,0,1,,,,0,,,61,42
251392,set_tempo,,,,,2816,1,0,,600000,,,,,,
251392,note_on,,,,,0,0,1,,,,0,,,67,48
251392,note_on,,,,,0,0,1,,,,0,,,69,64
251392,note_on,,,,,0,0,1,,,,0,,,33,35
251392,note_off,,,,,0,0,1,,,,0,,,62,0
251392,note_off,,,,,0,0,1,,,,0,,,65,0
251402,control_change,,,,,10,0,1,,,,0,64,0,,
251608,control_change,,,,,206,0,1,,,,0,64,127,,
251648,note_off,,,,,40,0,1,,,,0,,,33,0
251648,note_on,,,,,0,0,1,,,,0,,,45,34
251648,set_tempo,,,,,256,1,0,,461538,,,,,,
251904,note_off,,,,,256,0,1,,,,0,,,45,0
251904,note_on,,,,,0,0,1,,,,0,,,33,34
252160,note_on,,,,,0,0,1,,,,0,,,45,33
252160,note_off,,,,,256,0,1,,,,0,,,33,0
252416,note_on,,,,,0,0,1,,,,0,,,33,33
252416,note_off,,,,,256,0,1,,,,0,,,45,0
252672,note_on,,,,,0,0,1,,,,0,,,45,32
252672,note_off,,,,,256,0,1,,,,0,,,33,0
252928,note_off,,,,,0,0,1,,,,0,,,64,0
252928,note_off,,,,,0,0,1,,,,0,,,61,0
252928,note_off,,,,,0,0,1,,,,0,,,57,0
252928,note_off,,,,,0,0,1,,,,0,,,55,0
252928,control_change,,,,,0,0,1,,,,0,64,0,,
252928,control_change,,,,,0,0,1,,,,0,64,127,,
252928,control_change,,,,,0,0,1,,,,0,64,0,,
252928,control_change,,,,,256,0,1,,,,0,64,0,,
252928,note_off,,,,,0,0,1,,,,0,,,69,0
252928,note_on,,,,,0,0,1,,,,0,,,54,38
252928,note_on,,,,,0,0,1,,,,0,,,57,38
252928,note_on,,,,,0,0,1,,,,0,,,62,60
252928,note_on,,,,,0,0,1,,,,0,,,38,32
252928,note_off,,,,,0,0,1,,,,0,,,67,0
252928,note_off,,,,,0,0,1,,,,0,,,45,0
253072,control_change,,,,,144,0,1,,,,0,64,0,,
253184,note_off,,,,,112,0,1,,,,0,,,38,0
253184,note_on,,,,,0,0,1,,,,0,,,45,31
253258,control_change,,,,,74,0,1,,,,0,64,127,,
253440,note_off,,,,,182,0,1,,,,0,,,45,0
253440,note_on,,,,,0,0,1,,,,0,,,38,30
253696,note_on,,,,,0,0,1,,,,0,,,45,29
253696,note_off,,,,,256,0,1,,,,0,,,38,0
253952,note_off,,,,,256,0,1,,,,0,,,45,0
253952,note_on,,,,,0,0,1,,,,0,,,38,29
254208,note_on,,,,,0,0,1,,,,0,,,45,27
254208,note_off,,,,,256,0,1,,,,0,,,38,0
254464,note_off,,,,,256,0,1,,,,0,,,54,0
254464,note_off,,,,,0,0,1,,,,0,,,57,0
254464,note_off,,,,,0,0,1,,,,0,,,62,0
254464,note_off,,,,,0,0,1,,,,0,,,45,0
254464,note_on,,,,,0,0,1,,,,0,,,57,30
254464,note_on,,,,,0,0,1,,,,0,,,62,56
254464,note_on,,,,,0,0,1,,,,0,,,38,27
254464,note_on,,,,,0,0,1,,,,0,,,54,30
254720,note_off,,,,,256,0,1,,,,0,,,38,0
254720,note_on,,,,,0,0,1,,,,0,,,45,25
254976,note_on,,,,,0,0,1,,,,0,,,38,25
254976,note_off,,,,,256,0,1,,,,0,,,45,0
255193,control_change,,,,,217,0,1,,,,0,64,127,,
255232,note_on,,,,,0,0,1,,,,0,,,45,24
255232,note_off,,,,,39,0,1,,,,0,,,38,0
255488,note_on,,,,,0,0,1,,,,0,,,38,23
255488,note_off,,,,,256,0,1,,,,0,,,45,0
255744,note_off,,,,,256,0,1,,,,0,,,38,0
255744,note_on,,,,,0,0,1,,,,0,,,45,22
256000,control_change,,,,,0,0,1,,,,0,64,127,,
256000,control_change,,,,,0,0,1,,,,0,64,0,,
256000,control_change,,,,,0,0,1,,,,0,64,0,,
256000,note_off,,,,,0,0,1,,,,0,,,54,0
256000,note_off,,,,,0,0,1,,,,0,,,57,0
256000,note_off,,,,,0,0,1,,,,0,,,62,0
256000,note_off,,,,,0,0,1,,,,0,,,45,0
256000,note_on,,,,,0,0,1,,,,0,,,54,30
256000,note_on,,,,,0,0,1,,,,0,,,57,30
256000,note_on,,,,,0,0,1,,,,0,,,38,22
256000,control_change,,,,,0,0,1,,,,0,64,0,,
256000,control_change,,,,,0,0,1,,,,0,64,0,,
256000,note_on,,,,,0,0,1,,,,0,,,62,48
256000,control_change,,,,,256,0,1,,,,0,64,0,,
256144,control_change,,,,,144,0,1,,,,0,64,0,,
256256,note_on,,,,,0,0,1,,,,0,,,45,21
256256,note_off,,,,,112,0,1,,,,0,,,38,0
256330,control_change,,,,,74,0,1,,,,0,64,127,,
256512,note_on,,,,,0,0,1,,,,0,,,38,21
256512,note_off,,,,,182,0,1,,,,0,,,45,0
256768,note_off,,,,,256,0,1,,,,0,,,38,0
256768,note_on,,,,,0,0,1,,,,0,,,45,19
257024,note_off,,,,,256,0,1,,,,0,,,45,0
257024,note_on,,,,,0,0,1,,,,0,,,38,19
257280,note_on,,,,,0,0,1,,,,0,,,45,18
257280,note_off,,,,,256,0,1,,,,0,,,38,0
257536,note_off,,,,,0,0,1,,,,0,,,45,0
257536,note_on,,,,,0,0,1,,,,0,,,38,18
257536,note_off,,,,,0,0,1,,,,0,,,62,0
257536,note_off,,,,,0,0,1,,,,0,,,57,0
257536,note_off,,,,,256,0,1,,,,0,,,54,0
257536,note_on,,,,,0,0,1,,,,0,,,57,23
257536,note_on,,,,,0,0,1,,,,0,,,62,40
257536,note_on,,,,,0,0,1,,,,0,,,54,23
257792,note_on,,,,,0,0,1,,,,0,,,45,17
257792,note_off,,,,,256,0,1,,,,0,,,38,0
258048,note_on,,,,,0,0,1,,,,0,,,38,17
258048,note_off,,,,,256,0,1,,,,0,,,45,0
258265,control_change,,,,,217,0,1,,,,0,64,127,,
258304,note_on,,,,,0,0,1,,,,0,,,45,16
258304,note_off,,,,,39,0,1,,,,0,,,38,0
258560,note_on,,,,,0,0,1,,,,0,,,38,15
258560,note_off,,,,,256,0,1,,,,0,,,45,0
258816,note_on,,,,,0,0,1,,,,0,,,45,14
258816,note_off,,,,,256,0,1,,,,0,,,38,0
258914,control_change,,,,,98,0,1,,,,0,64,0,,
259072,note_off,,,,,0,0,1,,,,0,,,54,0
259072,set_tempo,,,,,7424,1,0,,600000,,,,,,
259072,note_on,,,,,0,0,1,,,,0,,,41,36
259072,note_on,,,,,0,0,1,,,,0,,,62,17
259072,note_on,,,,,0,0,1,,,,0,,,57,9
259072,note_off,,,,,0,0,1,,,,0,,,45,0
259072,note_off,,,,,0,0,1,,,,0,,,62,0
259072,note_off,,,,,0,0,1,,,,0,,,57,0
259072,control_change,,,,,158,0,1,,,,0,64,0,,
259072,control_change,,,,,0,0,1,,,,0,64,0,,
259319,control_change,,,,,0,0,1,,,,0,64,1,,
259319,control_change,,,,,247,0,1,,,,0,64,127,,
259328,note_on,,,,,9,0,1,,,,0,,,69,21
259328,set_tempo,,,,,256,1,0,,461538,,,,,,
259408,note_off,,,,,0,0,1,,,,0,,,62,0
259408,note_off,,,,,80,0,1,,,,0,,,57,0
259584,note_on,,,,,0,0,1,,,,0,,,62,24
259584,note_on,,,,,176,0,1,,,,0,,,57,13
259664,note_off,,,,,80,0,1,,,,0,,,69,0
259840,note_on,,,,,176,0,1,,,,0,,,69,28
259920,note_off,,,,,0,0,1,,,,0,,,62,0
259920,note_off,,,,,80,0,1,,,,0,,,57,0
260096,note_on,,,,,0,0,1,,,,0,,,62,28
260096,note_on,,,,,176,0,1,,,,0,,,57,16
260176,note_off,,,,,80,0,1,,,,0,,,69,0
260352,note_on,,,,,176,0,1,,,,0,,,69,29
260432,note_off,,,,,80,0,1,,,,0,,,57,0
260432,note_off,,,,,0,0,1,,,,0,,,62,0
260608,note_off,,,,,0,0,1,,,,0,,,41,0
260608,note_on,,,,,176,0,1,,,,0,,,57,17
260608,note_on,,,,,0,0,1,,,,0,,,41,42
260608,note_on,,,,,0,0,1,,,,0,,,62,29
260688,note_off,,,,,80,0,1,,,,0,,,69,0
260864,note_on,,,,,176,0,1,,,,0,,,69,30
260944,note_off,,,,,80,0,1,,,,0,,,57,0
260944,note_off,,,,,0,0,1,,,,0,,,62,0
261120,note_on,,,,,176,0,1,,,,0,,,57,19
261120,note_on,,,,,0,0,1,,,,0,,,62,31
261200,note_off,,,,,80,0,1,,,,0,,,69,0
261376,note_on,,,,,176,0,1,,,,0,,,69,31
261456,note_off,,,,,0,0,1,,,,0,,,62,0
261456,note_off,,,,,80,0,1,,,,0,,,57,0
261632,note_on,,,,,176,0,1,,,,0,,,57,20
261632,note_on,,,,,0,0,1,,,,0,,,62,32
261712,note_off,,,,,80,0,1,,,,0,,,69,0
261888,note_on,,,,,176,0,1,,,,0,,,69,32
261968,note_off,,,,,80,0,1,,,,0,,,57,0
261968,note_off,,,,,0,0,1,,,,0,,,62,0
262041,control_change,,,,,73,0,1,,,,0,64,0,,
262144,note_on,,,,,0,0,1,,,,0,,,41,40
262144,set_tempo,,,,,2816,1,0,,545454,,,,,,
262144,note_off,,,,,0,0,1,,,,0,,,41,0
262144,note_on,,,,,0,0,1,,,,0,,,57,21
262144,note_on,,,,,0,0,1,,,,0,,,62,33
262144,control_change,,,,,103,0,1,,,,0,64,0,,
262144,control_change,,,,,0,0,1,,,,0,64,0,,
262224,note_off,,,,,80,0,1,,,,0,,,69,0
262376,control_change,,,,,152,0,1,,,,0,64,127,,
262400,note_on,,,,,24,0,1,,,,0,,,69,33
262400,note_on,,,,,0,0,1,,,,0,,,40,41
262400,set_tempo,,,,,256,1,0,,461538,,,,,,
262440,note_off,,,,,40,0,1,,,,0,,,41,0
262480,note_off,,,,,40,0,1,,,,0,,,57,0
262480,note_off,,,,,0,0,1,,,,0,,,62,0
262656,note_on,,,,,0,0,1,,,,0,,,41,43
262656,note_on,,,,,0,0,1,,,,0,,,62,34
262656,note_on,,,,,176,0,1,,,,0,,,57,22
262696,note_off,,,,,40,0,1,,,,0,,,40,0
262736,note_off,,,,,40,0,1,,,,0,,,69,0
262801,control_change,,,,,65,0,1,,,,0,64,0,,
262912,note_on,,,,,111,0,1,,,,0,,,69,34
262912,note_on,,,,,0,0,1,,,,0,,,40,44
262952,note_off,,,,,40,0,1,,,,0,,,41,0
262975,control_change,,,,,23,0,1,,,,0,64,127,,
262992,note_off,,,,,17,0,1,,,,0,,,57,0
262992,note_off,,,,,0,0,1,,,,0,,,62,0
263168,note_on,,,,,176,0,1,,,,0,,,57,23
263168,note_on,,,,,0,0,1,,,,0,,,41,45
263168,note_on,,,,,0,0,1,,,,0,,,62,35
263208,note_off,,,,,40,0,1,,,,0,,,40,0
263226,control_change,,,,,18,0,1,,,,0,64,0,,
263248,note_off,,,,,22,0,1,,,,0,,,69,0
263424,note_on,,,,,176,0,1,,,,0,,,69,36
263424,note_on,,,,,0,0,1,,,,0,,,40,47
263464,note_off,,,,,40,0,1,,,,0,,,41,0
263504,note_off,,,,,0,0,1,,,,0,,,62,0
263504,note_off,,,,,40,0,1,,,,0,,,57,0
263680,note_on,,,,,0,0,1,,,,0,,,41,48
263680,set_tempo,,,,,1280,1,0,,500000,,,,,,
263680,note_on,,,,,0,0,1,,,,0,,,62,36
263680,note_on,,,,,176,0,1,,,,0,,,57,24
263720,note_off,,,,,40,0,1,,,,0,,,40,0
263760,note_off,,,,,40,0,1,,,,0,,,69,0
263936,note_on,,,,,0,0,1,,,,0,,,40,50
263936,note_on,,,,,176,0,1,,,,0,,,69,37
263936,set_tempo,,,,,256,1,0,,461538,,,,,,
263976,note_off,,,,,40,0,1,,,,0,,,41,0
264016,note_off,,,,,0,0,1,,,,0,,,62,0
264016,note_off,,,,,40,0,1,,,,0,,,57,0
264057,control_change,,,,,41,0,1,,,,0,64,127,,
264192,note_on,,,,,135,0,1,,,,0,,,57,25
264192,note_on,,,,,0,0,1,,,,0,,,62,37
264192,note_on,,,,,0,0,1,,,,0,,,41,51
264232,note_off,,,,,40,0,1,,,,0,,,40,0
264272,note_off,,,,,40,0,1,,,,0,,,69,0
264448,note_on,,,,,176,0,1,,,,0,,,69,38
264448,note_on,,,,,0,0,1,,,,0,,,42,52
264488,note_off,,,,,40,0,1,,,,0,,,41,0
264528,note_off,,,,,40,0,1,,,,0,,,57,0
264528,note_off,,,,,0,0,1,,,,0,,,62,0
264704,note_on,,,,,176,0,1,,,,0,,,57,26
264704,note_on,,,,,0,0,1,,,,0,,,62,38
264704,note_on,,,,,0,0,1,,,,0,,,43,54
264744,note_off,,,,,40,0,1,,,,0,,,42,0
264784,note_off,,,,,40,0,1,,,,0,,,69,0
264888,control_change,,,,,104,0,1,,,,0,64,0,,
264960,note_on,,,,,72,0,1,,,,0,,,69,39
264960,note_on,,,,,0,0,1,,,,0,,,44,55
265000,note_off,,,,,40,0,1,,,,0,,,43,0
265040,note_off,,,,,40,0,1,,,,0,,,57,0
265040,note_off,,,,,0,0,1,,,,0,,,62,0
265216,note_on,,,,,0,0,1,,,,0,,,45,55
265216,note_on,,,,,0,0,1,,,,0,,,64,61
265216,note_on,,,,,0,0,1,,,,0,,,62,50
265216,note_on,,,,,0,0,1,,,,0,,,57,50
265216,control_change,,,,,176,0,1,,,,0,64,0,,
265216,control_change,,,,,0,0,1,,,,0,64,0,,
265256,note_off,,,,,40,0,1,,,,0,,,44,0
265296,note_off,,,,,40,0,1,,,,0,,,69,0
265390,note_off,,,,,94,0,1,,,,0,,,45,0
265472,note_off,,,,,0,0,1,,,,0,,,62,0
265472,note_off,,,,,82,0,1,,,,0,,,57,0
265472,note_off,,,,,0,0,1,,,,0,,,64,0
265472,note_on,,,,,0,0,1,,,,0,,,69,44
265728,note_on,,,,,0,0,1,,,,0,,,33,55
265728,note_on,,,,,0,0,1,,,,0,,,64,44
265728,note_on,,,,,0,0,1,,,,0,,,62,44
265728,note_on,,,,,0,0,1,,,,0,,,57,31
265728,note_off,,,,,256,0,1,,,,0,,,69,0
265902,note_off,,,,,174,0,1,,,,0,,,33,0
265984,note_off,,,,,0,0,1,,,,0,,,62,0
265984,note_on,,,,,0,0,1,,,,0,,,69,44
265984,note_off,,,,,0,0,1,,,,0,,,64,0
265984,note_off,,,,,82,0,1,,,,0,,,57,0
266240,note_on,,,,,0,0,1,,,,0,,,57,50
266240,note_off,,,,,256,0,1,,,,0,,,69,0
266240,note_on,,,,,0,0,1,,,,0,,,64,61
266240,note_on,,,,,0,0,1,,,,0,,,45,55
266240,note_on,,,,,0,0,1,,,,0,,,62,50
266414,note_off,,,,,174,0,1,,,,0,,,45,0
266496,note_on,,,,,0,0,1,,,,0,,,69,44
266496,note_off,,,,,0,0,1,,,,0,,,64,0
266496,note_off,,,,,82,0,1,,,,0,,,57,0
266496,note_off,,,,,0,0,1,,,,0,,,62,0
266752,note_off,,,,,256,0,1,,,,0,,,69,0
266752,note_on,,,,,0,0,1,,,,0,,,57,31
266752,note_on,,,,,0,0,1,,,,0,,,61,31
266752,note_on,,,,,0,0,1,,,,0,,,64,44
266752,note_on,,,,,0,0,1,,,,0,,,33,55
266926,note_off,,,,,174,0,1,,,,0,,,33,0
267008,note_on,,,,,0,0,1,,,,0,,,69,44
267008,note_off,,,,,82,0,1,,,,0,,,57,0
267008,note_off,,,,,0,0,1,,,,0,,,61,0
267008,note_off,,,,,0,0,1,,,,0,,,64,0
267264,note_off,,,,,256,0,1,,,,0,,,69,0
267264,note_on,,,,,0,0,1,,,,0,,,57,50
267264,note_on,,,,,0,0,1,,,,0,,,61,50
267264,note_on,,,,,0,0,1,,,,0,,,64,61
267264,note_on,,,,,0,0,1,,,,0,,,45,55
267438,note_off,,,,,174,0,1,,,,0,,,45,0
267520,note_off,,,,,82,0,1,,,,0,,,57,0
267520,note_off,,,,,0,0,1,,,,0,,,61,0
267520,note_off,,,,,0,0,1,,,,0,,,64,0
267520,note_on,,,,,0,0,1,,,,0,,,69,44
267776,note_off,,,,,256,0,1,,,,0,,,69,0
267776,note_on,,,,,0,0,1,,,,0,,,57,31
267776,note_on,,,,,0,0,1,,,,0,,,61,31
267776,note_on,,,,,0,0,1,,,,0,,,64,44
267776,note_on,,,,,0,0,1,,,,0,,,33,55
267950,note_off,,,,,174,0,1,,,,0,,,33,0
268032,set_tempo,,,,,4096,1,0,,666666,,,,,,
268032,note_off,,,,,0,0,1,,,,0,,,64,0
268032,note_off,,,,,0,0,1,,,,0,,,61,0
268032,note_off,,,,,82,0,1,,,,0,,,57,0
268032,note_on,,,,,0,0,1,,,,0,,,69,44
268288,note_on,,,,,0,0,1,,,,0,,,60,19
268288,note_on,,,,,0,0,1,,,,0,,,44,54
268288,note_on,,,,,0,0,1,,,,0,,,65,31
268288,control_change,,,,,0,0,1,,,,0,64,0,,
268288,control_change,,,,,0,0,1,,,,0,64,0,,
268288,control_change,,,,,0,0,1,,,,0,64,0,,
268288,note_off,,,,,0,0,1,,,,0,,,69,0
268288,control_change,,,,,0,0,1,,,,0,64,0,,
268288,control_change,,,,,256,0,1,,,,0,64,0,,
268288,set_tempo,,,,,256,1,0,,600000,,,,,,
268288,control_change,,,,,0,0,1,,,,0,64,0,,
268535,control_change,,,,,247,0,1,,,,0,64,127,,
268535,control_change,,,,,0,0,1,,,,0,64,1,,
268535,control_change,,,,,0,0,1,,,,0,64,127,,
268535,control_change,,,,,0,0,1,,,,0,64,1,,
268544,set_tempo,,,,,256,1,0,,461538,,,,,,
268544,note_on,,,,,9,0,1,,,,0,,,72,32
268624,note_off,,,,,80,0,1,,,,0,,,60,0
268624,note_off,,,,,0,0,1,,,,0,,,65,0
268800,note_on,,,,,0,0,1,,,,0,,,65,32
268800,note_on,,,,,176,0,1,,,,0,,,60,20
268880,note_off,,,,,80,0,1,,,,0,,,72,0
269056,note_on,,,,,176,0,1,,,,0,,,72,33
269136,note_off,,,,,0,0,1,,,,0,,,65,0
269136,note_off,,,,,80,0,1,,,,0,,,60,0
269312,note_on,,,,,176,0,1,,,,0,,,60,21
269312,note_on,,,,,0,0,1,,,,0,,,65,33
269392,note_off,,,,,80,0,1,,,,0,,,72,0
269568,note_on,,,,,176,0,1,,,,0,,,72,34
269648,note_off,,,,,80,0,1,,,,0,,,60,0
269648,note_off,,,,,0,0,1,,,,0,,,65,0
269824,note_on,,,,,0,0,1,,,,0,,,65,34
269824,note_on,,,,,176,0,1,,,,0,,,60,22
269824,note_on,,,,,0,0,1,,,,0,,,44,54
269824,note_off,,,,,0,0,1,,,,0,,,44,0
269904,note_off,,,,,80,0,1,,,,0,,,72,0
270080,note_on,,,,,176,0,1,,,,0,,,72,35
270160,note_off,,,,,80,0,1,,,,0,,,60,0
270160,note_off,,,,,0,0,1,,,,0,,,65,0
270336,note_on,,,,,176,0,1,,,,0,,,60,24
270336,note_on,,,,,0,0,1,,,,0,,,65,36
270416,note_off,,,,,80,0,1,,,,0,,,72,0
270592,note_on,,,,,176,0,1,,,,0,,,72,36
270672,note_off,,,,,80,0,1,,,,0,,,60,0
270672,note_off,,,,,0,0,1,,,,0,,,65,0
270848,note_on,,,,,176,0,1,,,,0,,,60,25
270848,note_on,,,,,0,0,1,,,,0,,,65,37
270928,note_off,,,,,80,0,1,,,,0,,,72,0
271104,note_on,,,,,176,0,1,,,,0,,,72,37
271184,note_off,,,,,80,0,1,,,,0,,,60,0
271184,note_off,,,,,0,0,1,,,,0,,,65,0
271257,control_change,,,,,0,0,1,,,,0,64,0,,
271257,control_change,,,,,73,0,1,,,,0,64,0,,
271360,note_on,,,,,0,0,1,,,,0,,,60,26
271360,note_off,,,,,0,0,1,,,,0,,,44,0
271360,control_change,,,,,0,0,1,,,,0,64,0,,
271360,control_change,,,,,0,0,1,,,,0,64,0,,
271360,control_change,,,,,0,0,1,,,,0,64,0,,
271360,set_tempo,,,,,2816,1,0,,545454,,,,,,
271360,control_change,,,,,0,0,1,,,,0,64,0,,
271360,control_change,,,,,103,0,1,,,,0,64,0,,
271360,note_on,,,,,0,0,1,,,,0,,,65,38
271360,control_change,,,,,0,0,1,,,,0,64,0,,
271360,note_on,,,,,0,0,1,,,,0,,,44,45
271440,note_off,,,,,80,0,1,,,,0,,,72,0
271592,control_change,,,,,152,0,1,,,,0,64,127,,
271592,control_change,,,,,0,0,1,,,,0,64,127,,
271616,note_on,,,,,0,0,1,,,,0,,,43,46
271616,set_tempo,,,,,256,1,0,,461538,,,,,,
271616,note_on,,,,,24,0,1,,,,0,,,72,38
271656,note_off,,,,,40,0,1,,,,0,,,44,0
271696,note_off,,,,,40,0,1,,,,0,,,60,0
271696,note_off,,,,,0,0,1,,,,0,,,65,0
271872,note_on,,,,,176,0,1,,,,0,,,60,27
271872,note_on,,,,,0,0,1,,,,0,,,65,39
271872,note_on,,,,,0,0,1,,,,0,,,44,48
271912,note_off,,,,,40,0,1,,,,0,,,43,0
271952,note_off,,,,,40,0,1,,,,0,,,72,0
272017,control_change,,,,,65,0,1,,,,0,64,0,,
272017,control_change,,,,,0,0,1,,,,0,64,0,,
272128,note_on,,,,,111,0,1,,,,0,,,72,39
272128,note_on,,,,,0,0,1,,,,0,,,43,49
272168,note_off,,,,,40,0,1,,,,0,,,44,0
272191,control_change,,,,,0,0,1,,,,0,64,127,,
272191,control_change,,,,,23,0,1,,,,0,64,127,,
272208,note_off,,,,,0,0,1,,,,0,,,65,0
272208,note_off,,,,,17,0,1,,,,0,,,60,0
272384,note_on,,,,,176,0,1,,,,0,,,60,28
272384,note_on,,,,,0,0,1,,,,0,,,65,40
272384,note_on,,,,,0,0,1,,,,0,,,44,50
272424,note_off,,,,,40,0,1,,,,0,,,43,0
272442,control_change,,,,,18,0,1,,,,0,64,0,,
272442,control_change,,,,,0,0,1,,,,0,64,0,,
272464,note_off,,,,,22,0,1,,,,0,,,72,0
272640,note_on,,,,,176,0,1,,,,0,,,72,41
272640,note_on,,,,,0,0,1,,,,0,,,43,52
272680,note_off,,,,,40,0,1,,,,0,,,44,0
272720,note_off,,,,,40,0,1,,,,0,,,60,0
272720,note_off,,,,,0,0,1,,,,0,,,65,0
272896,set_tempo,,,,,1280,1,0,,500000,,,,,,
272896,note_on,,,,,176,0,1,,,,0,,,60,29
272896,note_on,,,,,0,0,1,,,,0,,,44,53
272896,note_on,,,,,0,0,1,,,,0,,,65,41
272936,note_off,,,,,40,0,1,,,,0,,,43,0
272976,note_off,,,,,40,0,1,,,,0,,,72,0
273152,note_on,,,,,0,0,1,,,,0,,,43,55
273152,note_on,,,,,176,0,1,,,,0,,,72,42
273152,set_tempo,,,,,256,1,0,,461538,,,,,,
273192,note_off,,,,,40,0,1,,,,0,,,44,0
273232,note_off,,,,,0,0,1,,,,0,,,65,0
273232,note_off,,,,,40,0,1,,,,0,,,60,0
273273,control_change,,,,,0,0,1,,,,0,64,127,,
273273,control_change,,,,,41,0,1,,,,0,64,127,,
273408,note_on,,,,,0,0,1,,,,0,,,44,56
273408,note_on,,,,,0,0,1,,,,0,,,65,42
273408,note_on,,,,,135,0,1,,,,0,,,60,30
273448,note_off,,,,,40,0,1,,,,0,,,43,0
273488,note_off,,,,,40,0,1,,,,0,,,72,0
273664,note_on,,,,,176,0,1,,,,0,,,72,43
273664,note_on,,,,,0,0,1,,,,0,,,45,57
273704,note_off,,,,,40,0,1,,,,0,,,44,0
273744,note_off,,,,,40,0,1,,,,0,,,60,0
273744,note_off,,,,,0,0,1,,,,0,,,65,0
273920,note_on,,,,,176,0,1,,,,0,,,60,31
273920,note_on,,,,,0,0,1,,,,0,,,65,43
273920,note_on,,,,,0,0,1,,,,0,,,46,59
273960,note_off,,,,,40,0,1,,,,0,,,45,0
274000,note_off,,,,,40,0,1,,,,0,,,72,0
274104,control_change,,,,,104,0,1,,,,0,64,0,,
274104,control_change,,,,,0,0,1,,,,0,64,0,,
274176,note_on,,,,,72,0,1,,,,0,,,72,44
274176,note_on,,,,,0,0,1,,,,0,,,47,60
274216,note_off,,,,,40,0,1,,,,0,,,46,0
274256,note_off,,,,,40,0,1,,,,0,,,60,0
274256,note_off,,,,,0,0,1,,,,0,,,65,0
274432,note_on,,,,,0,0,1,,,,0,,,48,60
274432,note_on,,,,,0,0,1,,,,0,,,65,67
274432,note_on,,,,,0,0,1,,,,0,,,67,54
274432,note_on,,,,,0,0,1,,,,0,,,60,55
274432,control_change,,,,,0,0,1,,,,0,64,0,,
274432,control_change,,,,,0,0,1,,,,0,64,0,,
274432,control_change,,,,,0,0,1,,,,0,64,0,,
274432,control_change,,,,,0,0,1,,,,0,64,0,,
274432,control_change,,,,,176,0,1,,,,0,64,0,,
274432,control_change,,,,,0,0,1,,,,0,64,0,,
274472,note_off,,,,,40,0,1,,,,0,,,47,0
274512,note_off,,,,,40,0,1,,,,0,,,72,0
274688,note_off,,,,,176,0,1,,,,0,,,60,0
274688,note_off,,,,,0,0,1,,,,0,,,65,0
274688,note_off,,,,,0,0,1,,,,0,,,67,0
274688,note_on,,,,,0,0,1,,,,0,,,72,49
274944,set_tempo,,,,,1792,1,0,,545454,,,,,,
274944,note_off,,,,,0,0,1,,,,0,,,48,0
274944,note_on,,,,,0,0,1,,,,0,,,60,36
274944,note_on,,,,,0,0,1,,,,0,,,67,49
274944,note_off,,,,,256,0,1,,,,0,,,72,0
274944,note_on,,,,,0,0,1,,,,0,,,36,60
274944,note_on,,,,,0,0,1,,,,0,,,65,49
275200,set_tempo,,,,,256,1,0,,461538,,,,,,
275200,note_on,,,,,0,0,1,,,,0,,,72,49
275200,note_off,,,,,0,0,1,,,,0,,,67,0
275200,note_off,,,,,256,0,1,,,,0,,,60,0
275200,note_off,,,,,0,0,1,,,,0,,,65,0
275456,note_on,,,,,0,0,1,,,,0,,,60,55
275456,note_off,,,,,256,0,1,,,,0,,,72,0
275456,note_on,,,,,0,0,1,,,,0,,,49,60
275456,note_on,,,,,0,0,1,,,,0,,,67,54
275456,note_on,,,,,0,0,1,,,,0,,,65,67
275456,note_off,,,,,0,0,1,,,,0,,,36,0
275712,note_off,,,,,256,0,1,,,,0,,,60,0
275712,note_off,,,,,0,0,1,,,,0,,,65,0
275712,note_off,,,,,0,0,1,,,,0,,,67,0
275712,note_on,,,,,0,0,1,,,,0,,,72,49
275968,note_on,,,,,0,0,1,,,,0,,,60,36
275968,note_on,,,,,0,0,1,,,,0,,,64,36
275968,note_on,,,,,0,0,1,,,,0,,,67,49
275968,note_on,,,,,0,0,1,,,,0,,,37,60
275968,note_off,,,,,0,0,1,,,,0,,,49,0
275968,note_off,,,,,256,0,1,,,,0,,,72,0
276224,note_off,,,,,0,0,1,,,,0,,,64,0
276224,note_off,,,,,256,0,1,,,,0,,,60,0
276224,note_off,,,,,0,0,1,,,,0,,,67,0
276224,note_on,,,,,0,0,1,,,,0,,,72,49
276480,note_on,,,,,0,0,1,,,,0,,,60,55
276480,note_off,,,,,256,0,1,,,,0,,,72,0
276480,note_on,,,,,0,0,1,,,,0,,,48,60
276480,note_on,,,,,0,0,1,,,,0,,,67,54
276480,note_on,,,,,0,0,1,,,,0,,,64,67
276480,note_off,,,,,0,0,1,,,,0,,,37,0
276736,note_off,,,,,256,0,1,,,,0,,,60,0
276736,note_off,,,,,0,0,1,,,,0,,,64,0
276736,note_off,,,,,0,0,1,,,,0,,,67,0
276736,note_on,,,,,0,0,1,,,,0,,,72,49
276992,note_on,,,,,0,0,1,,,,0,,,60,36
276992,note_on,,,,,0,0,1,,,,0,,,64,36
276992,note_on,,,,,0,0,1,,,,0,,,67,49
276992,note_on,,,,,0,0,1,,,,0,,,36,60
276992,note_off,,,,,0,0,1,,,,0,,,48,0
276992,note_off,,,,,256,0,1,,,,0,,,72,0
277248,set_tempo,,,,,2048,1,0,,666666,,,,,,
277248,note_off,,,,,0,0,1,,,,0,,,67,0
277248,note_on,,,,,0,0,1,,,,0,,,72,49
277248,note_off,,,,,0,0,1,,,,0,,,64,0
277248,note_off,,,,,256,0,1,,,,0,,,60,0
277504,control_change,,,,,0,0,1,,,,0,64,0,,
277504,set_tempo,,,,,256,1,0,,545454,,,,,,
277504,control_change,,,,,256,0,1,,,,0,64,0,,
277504,note_on,,,,,0,0,1,,,,0,,,47,51
277504,note_on,,,,,0,0,1,,,,0,,,68,44
277504,note_on,,,,,0,0,1,,,,0,,,63,32
277504,note_off,,,,,0,0,1,,,,0,,,36,0
277504,note_off,,,,,0,0,1,,,,0,,,72,0
277671,control_change,,,,,167,0,1,,,,0,64,127,,
277760,set_tempo,,,,,256,1,0,,461538,,,,,,
277760,note_on,,,,,89,0,1,,,,0,,,75,44
277760,note_on,,,,,0,0,1,,,,0,,,46,52
277760,note_off,,,,,0,0,1,,,,0,,,47,0
277840,note_off,,,,,0,0,1,,,,0,,,68,0
277840,note_off,,,,,80,0,1,,,,0,,,63,0
278016,note_off,,,,,0,0,1,,,,0,,,46,0
278016,note_on,,,,,0,0,1,,,,0,,,68,45
278016,note_on,,,,,0,0,1,,,,0,,,47,54
278016,note_on,,,,,176,0,1,,,,0,,,63,33
278096,note_off,,,,,80,0,1,,,,0,,,75,0
278272,note_on,,,,,176,0,1,,,,0,,,75,45
278272,note_off,,,,,0,0,1,,,,0,,,47,0
278272,note_on,,,,,0,0,1,,,,0,,,48,55
278352,note_off,,,,,0,0,1,,,,0,,,68,0
278352,note_off,,,,,80,0,1,,,,0,,,63,0
278528,note_on,,,,,0,0,1,,,,0,,,68,46
278528,note_on,,,,,0,0,1,,,,0,,,49,56
278528,note_off,,,,,0,0,1,,,,0,,,48,0
278528,note_on,,,,,176,0,1,,,,0,,,63,34
278608,note_off,,,,,80,0,1,,,,0,,,75,0
278784,note_on,,,,,176,0,1,,,,0,,,75,47
278784,note_off,,,,,0,0,1,,,,0,,,49,0
278784,note_on,,,,,0,0,1,,,,0,,,50,58
278864,note_off,,,,,0,0,1,,,,0,,,68,0
278864,note_off,,,,,80,0,1,,,,0,,,63,0
278925,control_change,,,,,61,0,1,,,,0,64,0,,
279040,note_on,,,,,0,0,1,,,,0,,,51,59
279040,note_on,,,,,0,0,1,,,,0,,,67,47
279040,note_on,,,,,115,0,1,,,,0,,,63,35
279040,note_off,,,,,0,0,1,,,,0,,,50,0
279040,note_on,,,,,0,0,1,,,,0,,,70,35
279120,note_off,,,,,80,0,1,,,,0,,,75,0
279214,note_off,,,,,94,0,1,,,,0,,,51,0
279296,note_on,,,,,82,0,1,,,,0,,,75,48
279376,note_off,,,,,0,0,1,,,,0,,,67,0
279376,note_off,,,,,80,0,1,,,,0,,,63,0
279376,note_off,,,,,0,0,1,,,,0,,,70,0
279552,note_on,,,,,0,0,1,,,,0,,,70,36
279552,note_on,,,,,176,0,1,,,,0,,,63,36
279552,note_on,,,,,0,0,1,,,,0,,,67,48
279552,note_on,,,,,0,0,1,,,,0,,,39,56
279632,note_off,,,,,80,0,1,,,,0,,,75,0
279726,note_off,,,,,94,0,1,,,,0,,,39,0
279808,note_on,,,,,82,0,1,,,,0,,,75,49
279888,note_off,,,,,80,0,1,,,,0,,,63,0
279888,note_off,,,,,0,0,1,,,,0,,,67,0
279888,note_off,,,,,0,0,1,,,,0,,,70,0
280064,note_on,,,,,0,0,1,,,,0,,,51,53
280064,note_on,,,,,0,0,1,,,,0,,,67,49
280064,note_on,,,,,176,0,1,,,,0,,,63,37
280064,note_on,,,,,0,0,1,,,,0,,,70,37
280144,note_off,,,,,80,0,1,,,,0,,,75,0
280238,note_off,,,,,94,0,1,,,,0,,,51,0
280320,note_on,,,,,82,0,1,,,,0,,,75,50
280400,note_off,,,,,0,0,1,,,,0,,,70,0
280400,note_off,,,,,0,0,1,,,,0,,,67,0
280400,note_off,,,,,80,0,1,,,,0,,,63,0
280576,note_on,,,,,0,0,1,,,,0,,,47,57
280576,control_change,,,,,0,0,1,,,,0,64,0,,
280576,control_change,,,,,0,0,1,,,,0,64,0,,
280576,control_change,,,,,176,0,1,,,,0,64,0,,
280576,note_on,,,,,0,0,1,,,,0,,,68,50
280576,note_on,,,,,0,0,1,,,,0,,,63,38
280656,note_off,,,,,80,0,1,,,,0,,,75,0
280743,control_change,,,,,87,0,1,,,,0,64,127,,
280832,note_on,,,,,0,0,1,,,,0,,,46,58
280832,note_on,,,,,89,0,1,,,,0,,,75,50
280832,note_off,,,,,0,0,1,,,,0,,,47,0
280912,note_off,,,,,80,0,1,,,,0,,,63,0
280912,note_off,,,,,0,0,1,,,,0,,,68,0
281088,note_off,,,,,0,0,1,,,,0,,,46,0
281088,note_on,,,,,0,0,1,,,,0,,,68,51
281088,note_on,,,,,0,0,1,,,,0,,,47,60
281088,note_on,,,,,176,0,1,,,,0,,,63,39
281168,note_off,,,,,80,0,1,,,,0,,,75,0
281344,note_off,,,,,0,0,1,,,,0,,,47,0
281344,note_on,,,,,176,0,1,,,,0,,,75,51
281344,note_on,,,,,0,0,1,,,,0,,,48,61
281424,note_off,,,,,80,0,1,,,,0,,,63,0
281424,note_off,,,,,0,0,1,,,,0,,,68,0
281600,note_on,,,,,176,0,1,,,,0,,,63,40
281600,note_on,,,,,0,0,1,,,,0,,,68,52
281600,note_on,,,,,0,0,1,,,,0,,,49,62
281600,note_off,,,,,0,0,1,,,,0,,,48,0
281680,note_off,,,,,80,0,1,,,,0,,,75,0
281856,note_on,,,,,0,0,1,,,,0,,,50,64
281856,note_on,,,,,176,0,1,,,,0,,,75,53
281856,note_off,,,,,0,0,1,,,,0,,,49,0
281936,note_off,,,,,0,0,1,,,,0,,,68,0
281936,note_off,,,,,80,0,1,,,,0,,,63,0
281997,control_change,,,,,61,0,1,,,,0,64,0,,
282112,note_on,,,,,115,0,1,,,,0,,,63,41
282112,note_on,,,,,0,0,1,,,,0,,,67,53
282112,note_on,,,,,0,0,1,,,,0,,,70,41
282112,note_on,,,,,0,0,1,,,,0,,,51,65
282112,note_off,,,,,0,0,1,,,,0,,,50,0
282192,note_off,,,,,80,0,1,,,,0,,,75,0
282286,note_off,,,,,94,0,1,,,,0,,,51,0
282368,note_on,,,,,82,0,1,,,,0,,,75,54
282448,note_off,,,,,0,0,1,,,,0,,,67,0
282448,note_off,,,,,80,0,1,,,,0,,,63,0
282448,note_off,,,,,0,0,1,,,,0,,,70,0
282624,note_on,,,,,0,0,1,,,,0,,,39,62
282624,note_on,,,,,0,0,1,,,,0,,,67,54
282624,note_on,,,,,176,0,1,,,,0,,,63,42
282624,note_on,,,,,0,0,1,,,,0,,,70,42
282704,note_off,,,,,80,0,1,,,,0,,,75,0
282798,note_off,,,,,94,0,1,,,,0,,,39,0
282880,note_on,,,,,82,0,1,,,,0,,,75,55
282960,note_off,,,,,0,0,1,,,,0,,,70,0
282960,note_off,,,,,80,0,1,,,,0,,,63,0
282960,note_off,,,,,0,0,1,,,,0,,,67,0
283136,note_on,,,,,176,0,1,,,,0,,,63,43
283136,note_on,,,,,0,0,1,,,,0,,,67,55
283136,note_on,,,,,0,0,1,,,,0,,,70,43
283136,note_on,,,,,0,0,1,,,,0,,,51,59
283216,note_off,,,,,80,0,1,,,,0,,,75,0
283310,note_off,,,,,94,0,1,,,,0,,,51,0
283392,set_tempo,,,,,5632,1,0,,500000,,,,,,
283392,note_on,,,,,82,0,1,,,,0,,,75,56
283472,note_off,,,,,0,0,1,,,,0,,,67,0
283472,note_off,,,,,0,0,1,,,,0,,,70,0
283472,note_off,,,,,80,0,1,,,,0,,,63,0
283648,set_tempo,,,,,256,1,0,,600000,,,,,,
283648,control_change,,,,,176,0,1,,,,0,64,0,,
283648,control_change,,,,,0,0,1,,,,0,64,0,,
283648,note_on,,,,,0,0,1,,,,0,,,48,62
283648,note_on,,,,,0,0,1,,,,0,,,64,43
283648,control_change,,,,,0,0,1,,,,0,64,0,,
283648,control_change,,,,,0,0,1,,,,0,64,0,,
283648,control_change,,,,,0,0,1,,,,0,64,0,,
283648,note_on,,,,,0,0,1,,,,0,,,69,55
283728,note_off,,,,,80,0,1,,,,0,,,75,0
283815,control_change,,,,,87,0,1,,,,0,64,127,,
283904,set_tempo,,,,,256,1,0,,461538,,,,,,
283904,note_on,,,,,0,0,1,,,,0,,,47,63
283904,note_off,,,,,0,0,1,,,,0,,,48,0
283904,note_on,,,,,89,0,1,,,,0,,,76,55
283984,note_off,,,,,0,0,1,,,,0,,,69,0
283984,note_off,,,,,80,0,1,,,,0,,,64,0
284160,note_off,,,,,0,0,1,,,,0,,,47,0
284160,note_on,,,,,0,0,1,,,,0,,,48,65
284160,note_on,,,,,0,0,1,,,,0,,,69,56
284160,note_on,,,,,176,0,1,,,,0,,,64,44
284240,note_off,,,,,80,0,1,,,,0,,,76,0
284416,note_off,,,,,0,0,1,,,,0,,,48,0
284416,note_on,,,,,176,0,1,,,,0,,,76,56
284416,note_on,,,,,0,0,1,,,,0,,,49,66
284496,note_off,,,,,0,0,1,,,,0,,,69,0
284496,note_off,,,,,80,0,1,,,,0,,,64,0
284672,note_off,,,,,0,0,1,,,,0,,,49,0
284672,note_on,,,,,0,0,1,,,,0,,,50,67
284672,note_on,,,,,0,0,1,,,,0,,,69,57
284672,note_on,,,,,176,0,1,,,,0,,,64,45
284752,note_off,,,,,80,0,1,,,,0,,,76,0
284928,note_on,,,,,0,0,1,,,,0,,,51,69
284928,note_off,,,,,0,0,1,,,,0,,,50,0
284928,note_on,,,,,176,0,1,,,,0,,,76,58
285008,note_off,,,,,0,0,1,,,,0,,,69,0
285008,note_off,,,,,80,0,1,,,,0,,,64,0
285069,control_change,,,,,61,0,1,,,,0,64,0,,
285184,note_off,,,,,0,0,1,,,,0,,,51,0
285184,note_on,,,,,0,0,1,,,,0,,,52,70
285184,note_on,,,,,0,0,1,,,,0,,,71,46
285184,note_on,,,,,0,0,1,,,,0,,,68,58
285184,note_on,,,,,115,0,1,,,,0,,,64,46
285264,note_off,,,,,80,0,1,,,,0,,,76,0
285327,control_change,,,,,63,0,1,,,,0,64,127,,
285358,note_off,,,,,31,0,1,,,,0,,,52,0
285440,set_tempo,,,,,1536,1,0,,666666,,,,,,
285440,note_on,,,,,0,0,1,,,,0,,,76,57
285440,note_on,,,,,0,0,1,,,,0,,,68,48
285440,note_on,,,,,82,0,1,,,,0,,,64,48
285520,note_off,,,,,0,0,1,,,,0,,,71,0
285520,note_off,,,,,0,0,1,,,,0,,,68,0
285520,note_off,,,,,80,0,1,,,,0,,,64,0
285607,note_off,,,,,0,0,1,,,,0,,,76,0
285607,note_off,,,,,87,0,1,,,,0,,,64,0
285607,note_off,,,,,0,0,1,,,,0,,,68,0
285696,note_on,,,,,0,0,1,,,,0,,,41,43
285696,note_on,,,,,89,0,1,,,,0,,,65,58
285696,set_tempo,,,,,256,1,0,,461538,,,,,,
285696,note_on,,,,,0,0,1,,,,0,,,53,55
285722,control_change,,,,,26,0,1,,,,0,64,0,,
285865,control_change,,,,,143,0,1,,,,0,64,127,,
285952,note_on,,,,,87,0,1,,,,0,,,77,59
286032,note_off,,,,,80,0,1,,,,0,,,65,0
286208,note_off,,,,,0,0,1,,,,0,,,41,0
286208,note_on,,,,,0,0,1,,,,0,,,54,57
286208,note_on,,,,,0,0,1,,,,0,,,42,45
286208,note_off,,,,,0,0,1,,,,0,,,53,0
286208,note_on,,,,,176,0,1,,,,0,,,66,61
286277,control_change,,,,,69,0,1,,,,0,64,0,,
286288,note_off,,,,,11,0,1,,,,0,,,77,0
286403,control_change,,,,,115,0,1,,,,0,64,127,,
286464,note_on,,,,,61,0,1,,,,0,,,78,62
286544,note_off,,,,,80,0,1,,,,0,,,66,0
286720,note_off,,,,,0,0,1,,,,0,,,54,0
286720,set_tempo,,,,,1024,1,0,,500000,,,,,,
286720,control_change,,,,,176,0,1,,,,0,64,0,,
286720,control_change,,,,,0,0,1,,,,0,64,127,,
286720,note_off,,,,,0,0,1,,,,0,,,42,0
286720,note_on,,,,,0,0,1,,,,0,,,55,59
286720,note_on,,,,,0,0,1,,,,0,,,43,47
286720,note_on,,,,,0,0,1,,,,0,,,67,63
286800,note_off,,,,,80,0,1,,,,0,,,78,0
286834,control_change,,,,,34,0,1,,,,0,64,0,,
286976,note_on,,,,,142,0,1,,,,0,,,79,64
287004,control_change,,,,,28,0,1,,,,0,64,127,,
287026,note_off,,,,,22,0,1,,,,0,,,67,0
287232,note_on,,,,,0,0,1,,,,0,,,44,49
287232,note_off,,,,,0,0,1,,,,0,,,43,0
287232,note_on,,,,,206,0,1,,,,0,,,68,65
287232,note_on,,,,,0,0,1,,,,0,,,56,61
287232,set_tempo,,,,,512,1,0,,461538,,,,,,
287232,note_off,,,,,0,0,1,,,,0,,,55,0
287282,note_off,,,,,50,0,1,,,,0,,,79,0
287289,control_change,,,,,7,0,1,,,,0,64,0,,
287422,control_change,,,,,133,0,1,,,,0,64,127,,
287488,note_on,,,,,66,0,1,,,,0,,,80,66
287538,note_off,,,,,50,0,1,,,,0,,,68,0
287744,note_on,,,,,206,0,1,,,,0,,,69,68
287744,note_off,,,,,0,0,1,,,,0,,,44,0
287744,note_on,,,,,0,0,1,,,,0,,,57,62
287744,note_on,,,,,0,0,1,,,,0,,,45,50
287744,note_off,,,,,0,0,1,,,,0,,,56,0
287782,control_change,,,,,38,0,1,,,,0,64,0,,
287794,note_off,,,,,12,0,1,,,,0,,,80,0
287934,control_change,,,,,140,0,1,,,,0,64,127,,
288000,note_on,,,,,66,0,1,,,,0,,,81,69
288050,note_off,,,,,50,0,1,,,,0,,,69,0
288256,note_on,,,,,206,0,1,,,,0,,,70,70
288256,note_on,,,,,0,0,1,,,,0,,,58,64
288256,note_off,,,,,0,0,1,,,,0,,,57,0
288256,note_off,,,,,0,0,1,,,,0,,,45,0
288256,note_on,,,,,0,0,1,,,,0,,,46,52
288294,control_change,,,,,38,0,1,,,,0,64,0,,
288306,note_off,,,,,12,0,1,,,,0,,,81,0
288503,control_change,,,,,197,0,1,,,,0,64,127,,
288512,note_on,,,,,9,0,1,,,,0,,,82,71
288562,note_off,,,,,50,0,1,,,,0,,,70,0
288768,note_on,,,,,206,0,1,,,,0,,,71,72
288768,note_off,,,,,0,0,1,,,,0,,,46,0
288768,note_off,,,,,0,0,1,,,,0,,,58,0
288768,note_on,,,,,0,0,1,,,,0,,,47,54
288768,note_on,,,,,0,0,1,,,,0,,,59,66
288806,control_change,,,,,38,0,1,,,,0,64,0,,
288818,note_off,,,,,12,0,1,,,,0,,,82,0
288958,control_change,,,,,140,0,1,,,,0,64,127,,
289024,note_on,,,,,66,0,1,,,,0,,,83,73
289074,note_off,,,,,50,0,1,,,,0,,,71,0
289280,note_off,,,,,0,0,1,,,,0,,,59,0
289280,note_off,,,,,0,0,1,,,,0,,,47,0
289280,note_on,,,,,0,0,1,,,,0,,,62,68
289280,note_on,,,,,206,0,1,,,,0,,,74,75
289280,note_on,,,,,0,0,1,,,,0,,,50,56
289330,note_off,,,,,50,0,1,,,,0,,,83,0
289454,note_off,,,,,0,0,1,,,,0,,,62,0
289454,note_off,,,,,124,0,1,,,,0,,,50,0
289536,note_on,,,,,82,0,1,,,,0,,,86,76
289536,set_tempo,,,,,2304,1,0,,625000,,,,,,
289586,note_off,,,,,50,0,1,,,,0,,,74,0
289673,note_off,,,,,87,0,1,,,,0,,,86,0
289792,set_tempo,,,,,256,1,0,,705882,,,,,,
289792,note_on,,,,,0,0,1,,,,0,,,55,56
289792,note_on,,,,,0,0,1,,,,0,,,65,68
289792,control_change,,,,,119,0,1,,,,0,64,0,,
289792,control_change,,,,,0,0,1,,,,0,64,127,,
289792,note_on,,,,,0,0,1,,,,0,,,89,77
289792,note_on,,,,,0,0,1,,,,0,,,59,56
289792,note_on,,,,,0,0,1,,,,0,,,62,56
289903,control_change,,,,,111,0,1,,,,0,64,0,,
289996,control_change,,,,,93,0,1,,,,0,64,127,,
290048,set_tempo,,,,,256,1,0,,461538,,,,,,
290048,note_on,,,,,52,0,1,,,,0,,,88,76
290098,note_off,,,,,50,0,1,,,,0,,,89,0
290304,note_off,,,,,0,0,1,,,,0,,,62,0
290304,note_off,,,,,0,0,1,,,,0,,,59,0
290304,note_off,,,,,0,0,1,,,,0,,,55,0
290304,note_on,,,,,206,0,1,,,,0,,,89,75
290304,note_on,,,,,0,0,1,,,,0,,,59,54
290304,note_on,,,,,0,0,1,,,,0,,,65,66
290304,note_on,,,,,0,0,1,,,,0,,,62,54
290304,note_off,,,,,0,0,1,,,,0,,,65,0
290304,note_on,,,,,0,0,1,,,,0,,,55,54
290354,note_off,,,,,50,0,1,,,,0,,,88,0
290560,note_on,,,,,206,0,1,,,,0,,,88,75
290610,note_off,,,,,50,0,1,,,,0,,,89,0
290816,note_on,,,,,0,0,1,,,,0,,,59,53
290816,note_on,,,,,0,0,1,,,,0,,,62,53
290816,note_off,,,,,0,0,1,,,,0,,,55,0
290816,note_off,,,,,0,0,1,,,,0,,,59,0
290816,note_off,,,,,0,0,1,,,,0,,,62,0
290816,note_on,,,,,0,0,1,,,,0,,,65,65
290816,note_on,,,,,206,0,1,,,,0,,,89,74
290816,note_off,,,,,0,0,1,,,,0,,,65,0
290816,note_on,,,,,0,0,1,,,,0,,,55,53
290866,note_off,,,,,50,0,1,,,,0,,,88,0
291072,note_on,,,,,206,0,1,,,,0,,,88,73
291122,note_off,,,,,50,0,1,,,,0,,,89,0
291328,note_on,,,,,0,0,1,,,,0,,,59,55
291328,note_on,,,,,206,0,1,,,,0,,,89,72
291328,note_off,,,,,0,0,1,,,,0,,,55,0
291328,note_off,,,,,0,0,1,,,,0,,,59,0
291328,note_off,,,,,0,0,1,,,,0,,,65,0
291328,note_off,,,,,0,0,1,,,,0,,,62,0
291328,note_on,,,,,0,0,1,,,,0,,,56,64
291328,note_on,,,,,0,0,1,,,,0,,,62,55
291328,note_on,,,,,0,0,1,,,,0,,,65,67
291347,control_change,,,,,19,0,1,,,,0,64,0,,
291378,note_off,,,,,31,0,1,,,,0,,,88,0
291495,control_change,,,,,117,0,1,,,,0,64,127,,
291584,note_on,,,,,89,0,1,,,,0,,,88,71
291634,note_off,,,,,50,0,1,,,,0,,,89,0
291840,note_on,,,,,0,0,1,,,,0,,,65,62
291840,note_on,,,,,206,0,1,,,,0,,,89,70
291840,note_off,,,,,0,0,1,,,,0,,,59,0
291840,note_off,,,,,0,0,1,,,,0,,,62,0
291840,note_off,,,,,0,0,1,,,,0,,,65,0
291840,note_on,,,,,0,0,1,,,,0,,,56,59
291840,note_on,,,,,0,0,1,,,,0,,,59,50
291840,note_on,,,,,0,0,1,,,,0,,,62,50
291840,note_off,,,,,0,0,1,,,,0,,,56,0
291890,note_off,,,,,50,0,1,,,,0,,,88,0
292096,note_on,,,,,206,0,1,,,,0,,,88,70
292146,note_off,,,,,50,0,1,,,,0,,,89,0
292352,note_on,,,,,0,0,1,,,,0,,,59,48
292352,note_on,,,,,206,0,1,,,,0,,,89,72
292352,note_off,,,,,0,0,1,,,,0,,,56,0
292352,note_off,,,,,0,0,1,,,,0,,,59,0
292352,note_off,,,,,0,0,1,,,,0,,,62,0
292352,note_off,,,,,0,0,1,,,,0,,,65,0
292352,note_on,,,,,0,0,1,,,,0,,,56,57
292352,note_on,,,,,0,0,1,,,,0,,,62,48
292352,note_on,,,,,0,0,1,,,,0,,,65,60
292402,note_off,,,,,50,0,1,,,,0,,,88,0
292608,note_on,,,,,206,0,1,,,,0,,,88,74
292658,note_off,,,,,50,0,1,,,,0,,,89,0
292864,note_off,,,,,0,0,1,,,,0,,,65,0
292864,control_change,,,,,206,0,1,,,,0,64,0,,
292864,control_change,,,,,0,0,1,,,,0,64,127,,
292864,note_off,,,,,0,0,1,,,,0,,,56,0
292864,note_off,,,,,0,0,1,,,,0,,,62,0
292864,note_on,,,,,0,0,1,,,,0,,,89,75
292864,note_on,,,,,0,0,1,,,,0,,,65,57
292864,note_off,,,,,0,0,1,,,,0,,,59,0
292864,note_on,,,,,0,0,1,,,,0,,,62,45
292864,note_on,,,,,0,0,1,,,,0,,,59,45
292864,note_on,,,,,0,0,1,,,,0,,,55,45
292914,note_off,,,,,50,0,1,,,,0,,,88,0
292969,control_change,,,,,55,0,1,,,,0,64,0,,
293108,control_change,,,,,139,0,1,,,,0,64,127,,
293120,note_on,,,,,12,0,1,,,,0,,,88,68
293170,note_off,,,,,50,0,1,,,,0,,,89,0
293376,note_on,,,,,0,0,1,,,,0,,,65,54
293376,note_on,,,,,0,0,1,,,,0,,,62,42
293376,note_on,,,,,0,0,1,,,,0,,,59,42
293376,note_on,,,,,0,0,1,,,,0,,,55,42
293376,note_off,,,,,0,0,1,,,,0,,,62,0
293376,note_on,,,,,206,0,1,,,,0,,,86,67
293376,note_off,,,,,0,0,1,,,,0,,,55,0
293376,note_off,,,,,0,0,1,,,,0,,,59,0
293376,note_off,,,,,0,0,1,,,,0,,,65,0
293426,note_off,,,,,50,0,1,,,,0,,,88,0
293632,note_on,,,,,206,0,1,,,,0,,,84,65
293682,note_off,,,,,50,0,1,,,,0,,,86,0
293888,note_off,,,,,0,0,1,,,,0,,,55,0
293888,note_on,,,,,206,0,1,,,,0,,,83,63
293888,note_off,,,,,0,0,1,,,,0,,,62,0
293888,note_on,,,,,0,0,1,,,,0,,,55,39
293888,note_on,,,,,0,0,1,,,,0,,,59,39
293888,note_on,,,,,0,0,1,,,,0,,,62,39
293888,note_on,,,,,0,0,1,,,,0,,,65,51
293888,note_off,,,,,0,0,1,,,,0,,,59,0
293888,note_off,,,,,0,0,1,,,,0,,,65,0
293938,note_off,,,,,50,0,1,,,,0,,,84,0
294144,note_on,,,,,206,0,1,,,,0,,,81,62
294194,note_off,,,,,50,0,1,,,,0,,,83,0
294365,control_change,,,,,171,0,1,,,,0,64,0,,
294400,note_off,,,,,0,0,1,,,,0,,,59,0
294400,note_off,,,,,0,0,1,,,,0,,,62,0
294400,note_off,,,,,0,0,1,,,,0,,,65,0
294400,note_on,,,,,0,0,1,,,,0,,,55,35
294400,note_on,,,,,0,0,1,,,,0,,,59,35
294400,note_on,,,,,0,0,1,,,,0,,,62,35
294400,note_on,,,,,0,0,1,,,,0,,,65,47
294400,note_off,,,,,0,0,1,,,,0,,,55,0
294400,note_on,,,,,35,0,1,,,,0,,,79,60
294450,note_off,,,,,50,0,1,,,,0,,,81,0
294656,note_on,,,,,206,0,1,,,,0,,,77,58
294706,note_off,,,,,50,0,1,,,,0,,,79,0
294912,note_on,,,,,0,0,1,,,,0,,,62,32
294912,note_on,,,,,0,0,1,,,,0,,,65,44
294912,note_on,,,,,0,0,1,,,,0,,,59,32
294912,note_on,,,,,0,0,1,,,,0,,,55,32
294912,note_off,,,,,0,0,1,,,,0,,,65,0
294912,note_off,,,,,0,0,1,,,,0,,,62,0
294912,note_off,,,,,0,0,1,,,,0,,,59,0
294912,note_off,,,,,0,0,1,,,,0,,,55,0
294912,note_on,,,,,206,0,1,,,,0,,,76,57
294962,note_off,,,,,50,0,1,,,,0,,,77,0
295168,note_on,,,,,206,0,1,,,,0,,,74,55
295218,note_off,,,,,50,0,1,,,,0,,,76,0
295424,note_on,,,,,0,0,1,,,,0,,,65,41
295424,note_off,,,,,0,0,1,,,,0,,,59,0
295424,note_on,,,,,0,0,1,,,,0,,,59,29
295424,note_off,,,,,0,0,1,,,,0,,,55,0
295424,note_off,,,,,0,0,1,,,,0,,,65,0
295424,note_on,,,,,0,0,1,,,,0,,,55,29
295424,note_on,,,,,0,0,1,,,,0,,,62,29
295424,note_off,,,,,0,0,1,,,,0,,,62,0
295424,note_on,,,,,206,0,1,,,,0,,,72,53
295474,note_off,,,,,50,0,1,,,,0,,,74,0
295680,note_on,,,,,206,0,1,,,,0,,,71,52
295730,note_off,,,,,50,0,1,,,,0,,,72,0
295936,note_on,,,,,0,0,1,,,,0,,,53,38
295936,note_on,,,,,0,0,1,,,,0,,,50,26
295936,note_on,,,,,0,0,1,,,,0,,,47,26
295936,note_on,,,,,0,0,1,,,,0,,,43,26
295936,note_off,,,,,0,0,1,,,,0,,,65,0
295936,note_off,,,,,0,0,1,,,,0,,,62,0
295936,note_off,,,,,0,0,1,,,,0,,,55,0
295936,control_change,,,,,0,0,1,,,,0,64,0,,
295936,control_change,,,,,206,0,1,,,,0,64,0,,
295936,note_on,,,,,0,0,1,,,,0,,,69,50
295936,note_off,,,,,0,0,1,,,,0,,,59,0
295986,note_off,,,,,50,0,1,,,,0,,,71,0
296192,note_on,,,,,206,0,1,,,,0,,,67,48
296242,note_off,,,,,50,0,1,,,,0,,,69,0
296448,note_on,,,,,0,0,1,,,,0,,,50,23
296448,note_on,,,,,206,0,1,,,,0,,,65,47
296448,note_off,,,,,0,0,1,,,,0,,,43,0
296448,note_off,,,,,0,0,1,,,,0,,,47,0
296448,note_off,,,,,0,0,1,,,,0,,,50,0
296448,note_on,,,,,0,0,1,,,,0,,,53,35
296448,note_off,,,,,0,0,1,,,,0,,,53,0
296448,note_on,,,,,0,0,1,,,,0,,,47,23
296448,note_on,,,,,0,0,1,,,,0,,,43,23
296498,note_off,,,,,50,0,1,,,,0,,,67,0
296704,note_on,,,,,206,0,1,,,,0,,,64,45
296754,note_off,,,,,50,0,1,,,,0,,,65,0
296960,note_on,,,,,0,0,1,,,,0,,,53,32
296960,note_on,,,,,206,0,1,,,,0,,,62,43
296960,note_off,,,,,0,0,1,,,,0,,,43,0
296960,note_off,,,,,0,0,1,,,,0,,,47,0
296960,note_off,,,,,0,0,1,,,,0,,,50,0
296960,note_off,,,,,0,0,1,,,,0,,,53,0
296960,note_on,,,,,0,0,1,,,,0,,,50,20
296960,note_on,,,,,0,0,1,,,,0,,,43,20
296960,note_on,,,,,0,0,1,,,,0,,,47,20
297010,note_off,,,,,50,0,1,,,,0,,,64,0
297216,note_on,,,,,206,0,1,,,,0,,,60,42
297266,note_off,,,,,50,0,1,,,,0,,,62,0
297472,note_off,,,,,0,0,1,,,,0,,,53,0
297472,note_on,,,,,206,0,1,,,,0,,,59,40
297472,note_off,,,,,0,0,1,,,,0,,,43,0
297472,note_off,,,,,0,0,1,,,,0,,,47,0
297472,note_off,,,,,0,0,1,,,,0,,,50,0
297472,note_on,,,,,0,0,1,,,,0,,,43,28
297522,note_off,,,,,50,0,1,,,,0,,,60,0
297728,note_on,,,,,206,0,1,,,,0,,,57,38
297778,note_off,,,,,50,0,1,,,,0,,,59,0
297984,note_on,,,,,206,0,1,,,,0,,,55,37
297984,note_on,,,,,0,0,1,,,,0,,,43,25
297984,note_off,,,,,0,0,1,,,,0,,,43,0
298034,note_off,,,,,50,0,1,,,,0,,,57,0
298240,note_on,,,,,206,0,1,,,,0,,,53,35
298290,note_off,,,,,50,0,1,,,,0,,,55,0
298496,note_on,,,,,0,0,1,,,,0,,,43,22
298496,note_on,,,,,206,0,1,,,,0,,,52,33
298496,note_off,,,,,0,0,1,,,,0,,,43,0
298546,note_off,,,,,50,0,1,,,,0,,,53,0
298752,note_on,,,,,206,0,1,,,,0,,,50,32
298802,note_off,,,,,50,0,1,,,,0,,,52,0
299008,set_tempo,,,,,8960,1,0,,500000,,,,,,
299008,note_on,,,,,0,0,1,,,,0,,,36,22
299008,note_on,,,,,0,0,1,,,,0,,,48,28
299008,note_off,,,,,0,0,1,,,,0,,,43,0
299008,control_change,,,,,0,0,1,,,,0,64,0,,
299008,control_change,,,,,0,0,1,,,,0,64,0,,
299008,control_change,,,,,206,0,1,,,,0,64,0,,
299008,control_change,,,,,0,0,1,,,,0,64,0,,
299058,note_off,,,,,50,0,1,,,,0,,,50,0
299262,control_change,,,,,204,0,1,,,,0,64,127,,
299264,note_on,,,,,2,0,1,,,,0,,,43,22
299264,set_tempo,,,,,256,1,0,,461538,,,,,,
299344,note_off,,,,,80,0,1,,,,0,,,36,0
299520,note_on,,,,,176,0,1,,,,0,,,36,22
299600,note_off,,,,,80,0,1,,,,0,,,43,0
299776,note_on,,,,,176,0,1,,,,0,,,43,22
299856,note_off,,,,,80,0,1,,,,0,,,36,0
300032,note_on,,,,,176,0,1,,,,0,,,36,22
300112,note_off,,,,,80,0,1,,,,0,,,43,0
300288,note_on,,,,,176,0,1,,,,0,,,43,22
300290,control_change,,,,,2,0,1,,,,0,64,127,,
300368,note_off,,,,,78,0,1,,,,0,,,36,0
300544,note_off,,,,,176,0,1,,,,0,,,48,0
300544,note_on,,,,,0,0,1,,,,0,,,72,28
300544,note_on,,,,,0,0,1,,,,0,,,76,43
300544,note_on,,,,,0,0,1,,,,0,,,36,22
300624,note_off,,,,,80,0,1,,,,0,,,43,0
300800,note_on,,,,,176,0,1,,,,0,,,43,22
300880,note_off,,,,,80,0,1,,,,0,,,36,0
301056,note_on,,,,,176,0,1,,,,0,,,36,22
301136,note_off,,,,,80,0,1,,,,0,,,43,0
301312,note_on,,,,,176,0,1,,,,0,,,43,22
301392,note_off,,,,,80,0,1,,,,0,,,36,0
301568,note_on,,,,,176,0,1,,,,0,,,36,22
301648,note_off,,,,,80,0,1,,,,0,,,43,0
301660,control_change,,,,,12,0,1,,,,0,64,127,,
301824,note_on,,,,,164,0,1,,,,0,,,43,22
301904,note_off,,,,,80,0,1,,,,0,,,36,0
302080,set_tempo,,,,,2816,1,0,,545454,,,,,,
302080,note_off,,,,,0,0,1,,,,0,,,76,0
302080,note_off,,,,,0,0,1,,,,0,,,72,0
302080,control_change,,,,,0,0,1,,,,0,64,0,,
302080,control_change,,,,,0,0,1,,,,0,64,0,,
302080,control_change,,,,,176,0,1,,,,0,64,0,,
302080,note_on,,,,,0,0,1,,,,0,,,76,44
302080,note_on,,,,,0,0,1,,,,0,,,36,22
302080,control_change,,,,,0,0,1,,,,0,64,0,,
302080,note_on,,,,,0,0,1,,,,0,,,72,28
302160,note_off,,,,,80,0,1,,,,0,,,43,0
302187,control_change,,,,,27,0,1,,,,0,64,0,,
302336,set_tempo,,,,,256,1,0,,461538,,,,,,
302336,note_on,,,,,149,0,1,,,,0,,,43,22
302379,control_change,,,,,43,0,1,,,,0,64,127,,
302416,note_off,,,,,37,0,1,,,,0,,,36,0
302592,note_on,,,,,176,0,1,,,,0,,,36,22
302672,note_off,,,,,80,0,1,,,,0,,,43,0
302848,note_on,,,,,176,0,1,,,,0,,,43,22
302928,note_off,,,,,80,0,1,,,,0,,,36,0
303104,note_on,,,,,176,0,1,,,,0,,,36,22
303184,note_off,,,,,80,0,1,,,,0,,,43,0
303360,note_on,,,,,176,0,1,,,,0,,,43,22
303440,note_off,,,,,80,0,1,,,,0,,,36,0
303616,note_off,,,,,176,0,1,,,,0,,,72,0
303616,note_off,,,,,0,0,1,,,,0,,,76,0
303616,note_on,,,,,0,0,1,,,,0,,,72,28
303616,note_on,,,,,0,0,1,,,,0,,,76,43
303616,note_on,,,,,0,0,1,,,,0,,,36,22
303696,note_off,,,,,80,0,1,,,,0,,,43,0
303872,note_on,,,,,176,0,1,,,,0,,,43,22
303952,note_off,,,,,80,0,1,,,,0,,,36,0
304128,note_on,,,,,176,0,1,,,,0,,,36,22
304208,note_off,,,,,80,0,1,,,,0,,,43,0
304384,note_on,,,,,176,0,1,,,,0,,,43,22
304464,note_off,,,,,80,0,1,,,,0,,,36,0
304640,note_on,,,,,176,0,1,,,,0,,,36,22
304720,note_off,,,,,80,0,1,,,,0,,,43,0
304896,note_on,,,,,176,0,1,,,,0,,,43,22
304976,note_off,,,,,80,0,1,,,,0,,,36,0
304990,control_change,,,,,14,0,1,,,,0,64,0,,
305152,note_on,,,,,0,0,1,,,,0,,,72,22
305152,note_off,,,,,0,0,1,,,,0,,,76,0
305152,note_off,,,,,0,0,1,,,,0,,,72,0
305152,note_on,,,,,0,0,1,,,,0,,,36,22
305152,control_change,,,,,0,0,1,,,,0,64,0,,
305152,control_change,,,,,0,0,1,,,,0,64,0,,
305152,control_change,,,,,0,0,1,,,,0,64,0,,
305152,note_on,,,,,0,0,1,,,,0,,,76,33
305152,control_change,,,,,162,0,1,,,,0,64,0,,
305152,set_tempo,,,,,2816,1,0,,545454,,,,,,
305232,note_off,,,,,80,0,1,,,,0,,,43,0
305334,control_change,,,,,102,0,1,,,,0,64,127,,
305408,note_on,,,,,74,0,1,,,,0,,,71,20
305408,note_on,,,,,0,0,1,,,,0,,,75,32
305408,note_on,,,,,0,0,1,,,,0,,,43,23
305408,set_tempo,,,,,256,1,0,,461538,,,,,,
305438,note_off,,,,,30,0,1,,,,0,,,72,0
305438,note_off,,,,,0,0,1,,,,0,,,76,0
305488,note_off,,,,,50,0,1,,,,0,,,36,0
305664,note_on,,,,,176,0,1,,,,0,,,72,23
305664,note_on,,,,,0,0,1,,,,0,,,76,36
305664,note_on,,,,,0,0,1,,,,0,,,36,24
305694,note_off,,,,,0,0,1,,,,0,,,75,0
305694,note_off,,,,,30,0,1,,,,0,,,71,0
305718,control_change,,,,,24,0,1,,,,0,64,0,,
305744,note_off,,,,,26,0,1,,,,0,,,43,0
305880,control_change,,,,,136,0,1,,,,0,64,127,,
305920,note_on,,,,,40,0,1,,,,0,,,71,22
305920,note_on,,,,,0,0,1,,,,0,,,75,35
305920,note_on,,,,,0,0,1,,,,0,,,43,25
305950,note_off,,,,,30,0,1,,,,0,,,72,0
305950,note_off,,,,,0,0,1,,,,0,,,76,0
306000,note_off,,,,,50,0,1,,,,0,,,36,0
306176,note_on,,,,,176,0,1,,,,0,,,72,26
306176,note_on,,,,,0,0,1,,,,0,,,76,40
306176,note_on,,,,,0,0,1,,,,0,,,36,26
306206,note_off,,,,,30,0,1,,,,0,,,71,0
306206,note_off,,,,,0,0,1,,,,0,,,75,0
306284,control_change,,,,,78,0,1,,,,0,64,0,,
306432,note_on,,,,,0,0,1,,,,0,,,43,33
306432,note_on,,,,,0,0,1,,,,0,,,75,38
306432,note_on,,,,,148,0,1,,,,0,,,71,23
306432,note_off,,,,,0,0,1,,,,0,,,43,0
306445,control_change,,,,,13,0,1,,,,0,64,127,,
306462,note_off,,,,,17,0,1,,,,0,,,72,0
306462,note_off,,,,,0,0,1,,,,0,,,76,0
306512,note_off,,,,,50,0,1,,,,0,,,36,0
306688,note_on,,,,,176,0,1,,,,0,,,72,28
306688,note_on,,,,,0,0,1,,,,0,,,76,43
306688,note_on,,,,,0,0,1,,,,0,,,36,29
306718,note_off,,,,,30,0,1,,,,0,,,71,0
306718,note_off,,,,,0,0,1,,,,0,,,75,0
306749,control_change,,,,,31,0,1,,,,0,64,0,,
306944,note_off,,,,,0,0,1,,,,0,,,43,0
306944,note_on,,,,,195,0,1,,,,0,,,71,27
306944,note_on,,,,,0,0,1,,,,0,,,75,41
306944,note_on,,,,,0,0,1,,,,0,,,44,39
306974,note_off,,,,,30,0,1,,,,0,,,72,0
306974,note_off,,,,,0,0,1,,,,0,,,76,0
307024,note_off,,,,,50,0,1,,,,0,,,36,0
307200,note_on,,,,,176,0,1,,,,0,,,72,26
307200,note_on,,,,,0,0,1,,,,0,,,76,40
307200,note_on,,,,,0,0,1,,,,0,,,36,27
307230,note_off,,,,,30,0,1,,,,0,,,71,0
307230,note_off,,,,,0,0,1,,,,0,,,75,0
307456,note_off,,,,,0,0,1,,,,0,,,44,0
307456,note_on,,,,,226,0,1,,,,0,,,74,26
307456,note_on,,,,,0,0,1,,,,0,,,77,38
307456,note_on,,,,,0,0,1,,,,0,,,44,35
307486,note_off,,,,,30,0,1,,,,0,,,72,0
307486,note_off,,,,,0,0,1,,,,0,,,76,0
307536,note_off,,,,,50,0,1,,,,0,,,36,0
307712,note_on,,,,,176,0,1,,,,0,,,72,24
307712,note_on,,,,,0,0,1,,,,0,,,76,36
307712,note_on,,,,,0,0,1,,,,0,,,36,24
307742,note_off,,,,,30,0,1,,,,0,,,74,0
307742,note_off,,,,,0,0,1,,,,0,,,77,0
307968,note_on,,,,,226,0,1,,,,0,,,71,22
307968,note_on,,,,,0,0,1,,,,0,,,75,34
307968,note_on,,,,,0,0,1,,,,0,,,44,32
307968,note_off,,,,,0,0,1,,,,0,,,44,0
307998,note_off,,,,,30,0,1,,,,0,,,72,0
307998,note_off,,,,,0,0,1,,,,0,,,76,0
308048,note_off,,,,,50,0,1,,,,0,,,36,0
308224,control_change,,,,,176,0,1,,,,0,64,0,,
308224,note_on,,,,,0,0,1,,,,0,,,36,22
308224,note_on,,,,,0,0,1,,,,0,,,72,30
308224,note_on,,,,,0,0,1,,,,0,,,76,44
308224,set_tempo,,,,,2816,1,0,,545454,,,,,,
308224,control_change,,,,,0,0,1,,,,0,64,0,,
308254,note_off,,,,,30,0,1,,,,0,,,71,0
308254,note_off,,,,,0,0,1,,,,0,,,75,0
308304,note_off,,,,,50,0,1,,,,0,,,44,0
308437,control_change,,,,,133,0,1,,,,0,64,127,,
308480,note_on,,,,,43,0,1,,,,0,,,43,22
308540,note_off,,,,,60,0,1,,,,0,,,36,0
308736,note_on,,,,,196,0,1,,,,0,,,71,29
308736,note_on,,,,,0,0,1,,,,0,,,79,47
308736,note_on,,,,,0,0,1,,,,0,,,36,22
308736,set_tempo,,,,,512,1,0,,500000,,,,,,
308776,note_off,,,,,40,0,1,,,,0,,,72,0
308776,note_off,,,,,0,0,1,,,,0,,,76,0
308796,note_off,,,,,20,0,1,,,,0,,,43,0
308992,note_on,,,,,196,0,1,,,,0,,,43,22
309052,note_off,,,,,60,0,1,,,,0,,,36,0
309248,note_on,,,,,0,0,1,,,,0,,,36,22
309248,note_on,,,,,0,0,1,,,,0,,,72,39
309248,set_tempo,,,,,512,1,0,,461538,,,,,,
309248,note_on,,,,,196,0,1,,,,0,,,69,25
309288,note_off,,,,,0,0,1,,,,0,,,79,0
309288,note_off,,,,,40,0,1,,,,0,,,71,0
309308,note_off,,,,,20,0,1,,,,0,,,43,0
309504,note_on,,,,,196,0,1,,,,0,,,43,22
309564,note_off,,,,,60,0,1,,,,0,,,36,0
309760,note_on,,,,,0,0,1,,,,0,,,36,22
309760,note_on,,,,,0,0,1,,,,0,,,76,43
309760,note_on,,,,,196,0,1,,,,0,,,67,26
309781,control_change,,,,,21,0,1,,,,0,64,0,,
309800,note_off,,,,,0,0,1,,,,0,,,72,0
309800,note_off,,,,,19,0,1,,,,0,,,69,0
309820,note_off,,,,,20,0,1,,,,0,,,43,0
309973,control_change,,,,,153,0,1,,,,0,64,127,,
310016,note_on,,,,,43,0,1,,,,0,,,43,22
310076,note_off,,,,,60,0,1,,,,0,,,36,0
310272,note_on,,,,,196,0,1,,,,0,,,65,25
310272,note_on,,,,,0,0,1,,,,0,,,69,39
310272,note_on,,,,,0,0,1,,,,0,,,36,22
310312,note_off,,,,,0,0,1,,,,0,,,76,0
310312,note_off,,,,,40,0,1,,,,0,,,67,0
310332,note_off,,,,,20,0,1,,,,0,,,43,0
310379,control_change,,,,,47,0,1,,,,0,64,0,,
310528,note_on,,,,,149,0,1,,,,0,,,43,22
310588,note_off,,,,,60,0,1,,,,0,,,36,0
310592,control_change,,,,,4,0,1,,,,0,64,127,,
310784,note_on,,,,,0,0,1,,,,0,,,36,22
310784,note_on,,,,,192,0,1,,,,0,,,64,24
310784,note_on,,,,,0,0,1,,,,0,,,72,38
310824,note_off,,,,,40,0,1,,,,0,,,65,0
310824,note_off,,,,,0,0,1,,,,0,,,69,0
310844,note_off,,,,,20,0,1,,,,0,,,43,0
310976,control_change,,,,,132,0,1,,,,0,64,0,,
311040,note_on,,,,,64,0,1,,,,0,,,43,22
311100,note_off,,,,,60,0,1,,,,0,,,36,0
311168,control_change,,,,,68,0,1,,,,0,64,127,,
311296,control_change,,,,,128,0,1,,,,0,64,0,,
311296,control_change,,,,,0,0,1,,,,0,64,127,,
311296,note_on,,,,,0,0,1,,,,0,,,62,23
311296,note_on,,,,,0,0,1,,,,0,,,65,39
311296,note_on,,,,,0,0,1,,,,0,,,36,22
311296,set_tempo,,,,,2048,1,0,,500000,,,,,,
311336,note_off,,,,,40,0,1,,,,0,,,64,0
311336,note_off,,,,,0,0,1,,,,0,,,72,0
311356,note_off,,,,,20,0,1,,,,0,,,43,0
311437,control_change,,,,,81,0,1,,,,0,64,0,,
311552,note_on,,,,,115,0,1,,,,0,,,43,22
311612,note_off,,,,,60,0,1,,,,0,,,36,0
311808,note_on,,,,,196,0,1,,,,0,,,60,22
311808,note_on,,,,,0,0,1,,,,0,,,69,36
311808,note_on,,,,,0,0,1,,,,0,,,36,22
311808,set_tempo,,,,,512,1,0,,461538,,,,,,
311848,note_off,,,,,0,0,1,,,,0,,,65,0
311848,note_off,,,,,40,0,1,,,,0,,,62,0
311868,note_off,,,,,20,0,1,,,,0,,,43,0
312064,note_on,,,,,196,0,1,,,,0,,,43,22
312124,note_off,,,,,60,0,1,,,,0,,,36,0
312320,note_on,,,,,196,0,1,,,,0,,,59,21
312320,note_on,,,,,0,0,1,,,,0,,,62,35
312320,note_on,,,,,0,0,1,,,,0,,,36,22
312360,note_off,,,,,40,0,1,,,,0,,,60,0
312360,note_off,,,,,0,0,1,,,,0,,,69,0
312380,note_off,,,,,20,0,1,,,,0,,,43,0
312576,note_on,,,,,196,0,1,,,,0,,,43,22
312636,note_off,,,,,60,0,1,,,,0,,,36,0
312832,note_on,,,,,196,0,1,,,,0,,,57,19
312832,note_on,,,,,0,0,1,,,,0,,,65,33
312832,note_on,,,,,0,0,1,,,,0,,,36,22
312872,note_off,,,,,40,0,1,,,,0,,,59,0
312872,note_off,,,,,0,0,1,,,,0,,,62,0
312892,note_off,,,,,20,0,1,,,,0,,,43,0
313088,note_on,,,,,196,0,1,,,,0,,,43,22
313148,note_off,,,,,60,0,1,,,,0,,,36,0
313344,note_on,,,,,0,0,1,,,,0,,,36,22
313344,set_tempo,,,,,1536,1,0,,500000,,,,,,
313344,note_on,,,,,196,0,1,,,,0,,,55,18
313344,note_on,,,,,0,0,1,,,,0,,,59,32
313384,note_off,,,,,40,0,1,,,,0,,,57,0
313384,note_off,,,,,0,0,1,,,,0,,,65,0
313404,note_off,,,,,20,0,1,,,,0,,,43,0
313600,note_on,,,,,196,0,1,,,,0,,,43,22
313660,note_off,,,,,60,0,1,,,,0,,,36,0
313856,note_on,,,,,0,0,1,,,,0,,,36,22
313856,note_on,,,,,0,0,1,,,,0,,,44,36
313856,note_on,,,,,196,0,1,,,,0,,,53,24
313856,note_on,,,,,0,0,1,,,,0,,,62,43
313856,set_tempo,,,,,512,1,0,,600000,,,,,,
313896,note_off,,,,,40,0,1,,,,0,,,55,0
313896,note_off,,,,,0,0,1,,,,0,,,59,0
313916,note_off,,,,,20,0,1,,,,0,,,43,0
314368,control_change,,,,,452,0,1,,,,0,64,0,,
314368,control_change,,,,,0,0,1,,,,0,64,0,,
314368,control_change,,,,,0,0,1,,,,0,64,0,,
314368,control_change,,,,,0,0,1,,,,0,64,0,,
314368,control_change,,,,,0,0,1,,,,0,64,0,,
314368,note_off,,,,,0,0,1,,,,0,,,44,0
314368,note_off,,,,,0,0,1,,,,0,,,36,0
314368,note_on,,,,,0,0,1,,,,0,,,36,22
314368,note_on,,,,,0,0,1,,,,0,,,60,28
314368,control_change,,,,,0,0,1,,,,0,64,0,,
314368,set_tempo,,,,,512,1,0,,500000,,,,,,
314368,note_on,,,,,0,0,1,,,,0,,,52,28
314408,note_off,,,,,40,0,1,,,,0,,,53,0
314408,note_off,,,,,0,0,1,,,,0,,,62,0
314622,control_change,,,,,214,0,1,,,,0,64,127,,
314624,set_tempo,,,,,256,1,0,,461538,,,,,,
314624,note_on,,,,,2,0,1,,,,0,,,43,29
314704,note_off,,,,,80,0,1,,,,0,,,36,0
314880,note_on,,,,,176,0,1,,,,0,,,36,22
315136,note_on,,,,,0,0,1,,,,0,,,43,26
315136,note_off,,,,,256,0,1,,,,0,,,43,0
315216,note_off,,,,,80,0,1,,,,0,,,36,0
315392,note_on,,,,,176,0,1,,,,0,,,36,22
315648,note_off,,,,,256,0,1,,,,0,,,43,0
315648,note_on,,,,,0,0,1,,,,0,,,43,26
315650,control_change,,,,,2,0,1,,,,0,64,127,,
315728,note_off,,,,,78,0,1,,,,0,,,36,0
315904,note_off,,,,,176,0,1,,,,0,,,52,0
315904,note_off,,,,,0,0,1,,,,0,,,60,0
315904,note_on,,,,,0,0,1,,,,0,,,60,25
315904,note_on,,,,,0,0,1,,,,0,,,36,22
315904,note_on,,,,,0,0,1,,,,0,,,64,40
316160,note_off,,,,,256,0,1,,,,0,,,43,0
316160,note_on,,,,,0,0,1,,,,0,,,42,31
316240,note_off,,,,,80,0,1,,,,0,,,36,0
316416,note_on,,,,,176,0,1,,,,0,,,36,22
316672,note_off,,,,,256,0,1,,,,0,,,42,0
316672,note_on,,,,,0,0,1,,,,0,,,42,26
316752,note_off,,,,,80,0,1,,,,0,,,36,0
316928,note_on,,,,,176,0,1,,,,0,,,36,22
317020,control_change,,,,,92,0,1,,,,0,64,127,,
317184,note_on,,,,,0,0,1,,,,0,,,42,26
317184,note_off,,,,,164,0,1,,,,0,,,42,0
317264,note_off,,,,,80,0,1,,,,0,,,36,0
317440,note_on,,,,,0,0,1,,,,0,,,36,22
317440,control_change,,,,,0,0,1,,,,0,64,0,,
317440,control_change,,,,,0,0,1,,,,0,64,0,,
317440,control_change,,,,,0,0,1,,,,0,64,0,,
317440,control_change,,,,,0,0,1,,,,0,64,0,,
317440,control_change,,,,,0,0,1,,,,0,64,0,,
317440,note_off,,,,,0,0,1,,,,0,,,60,0
317440,note_off,,,,,0,0,1,,,,0,,,64,0
317440,note_on,,,,,0,0,1,,,,0,,,64,44
317440,note_on,,,,,0,0,1,,,,0,,,60,28
317440,control_change,,,,,176,0,1,,,,0,64,0,,
317440,set_tempo,,,,,2816,1,0,,545454,,,,,,
317547,control_change,,,,,107,0,1,,,,0,64,0,,
317696,note_on,,,,,0,0,1,,,,0,,,43,31
317696,note_off,,,,,149,0,1,,,,0,,,42,0
317696,set_tempo,,,,,256,1,0,,461538,,,,,,
317739,control_change,,,,,43,0,1,,,,0,64,127,,
317776,note_off,,,,,37,0,1,,,,0,,,36,0
317952,note_on,,,,,176,0,1,,,,0,,,36,22
318208,note_off,,,,,256,0,1,,,,0,,,43,0
318208,note_on,,,,,0,0,1,,,,0,,,43,26
318288,note_off,,,,,80,0,1,,,,0,,,36,0
318464,note_on,,,,,176,0,1,,,,0,,,36,22
318720,note_off,,,,,256,0,1,,,,0,,,43,0
318720,note_on,,,,,0,0,1,,,,0,,,43,26
318800,note_off,,,,,80,0,1,,,,0,,,36,0
318976,note_off,,,,,0,0,1,,,,0,,,64,0
318976,note_on,,,,,0,0,1,,,,0,,,60,23
318976,note_on,,,,,0,0,1,,,,0,,,36,22
318976,note_off,,,,,176,0,1,,,,0,,,60,0
318976,note_on,,,,,0,0,1,,,,0,,,64,38
319232,note_off,,,,,256,0,1,,,,0,,,43,0
319232,note_on,,,,,0,0,1,,,,0,,,44,31
319312,note_off,,,,,80,0,1,,,,0,,,36,0
319488,note_on,,,,,176,0,1,,,,0,,,36,22
319744,note_off,,,,,256,0,1,,,,0,,,44,0
319744,note_on,,,,,0,0,1,,,,0,,,44,26
319824,note_off,,,,,80,0,1,,,,0,,,36,0
320000,note_on,,,,,176,0,1,,,,0,,,36,22
320256,note_on,,,,,0,0,1,,,,0,,,44,26
320256,note_off,,,,,256,0,1,,,,0,,,44,0
320336,note_off,,,,,80,0,1,,,,0,,,36,0
320350,control_change,,,,,14,0,1,,,,0,64,0,,
320512,control_change,,,,,162,0,1,,,,0,64,0,,
320512,set_tempo,,,,,2816,1,0,,545454,,,,,,
320512,control_change,,,,,0,0,1,,,,0,64,0,,
320512,control_change,,,,,0,0,1,,,,0,64,0,,
320512,control_change,,,,,0,0,1,,,,0,64,0,,
320512,control_change,,,,,0,0,1,,,,0,64,0,,
320512,note_off,,,,,0,0,1,,,,0,,,60,0
320512,control_change,,,,,0,0,1,,,,0,64,0,,
320512,note_on,,,,,0,0,1,,,,0,,,64,33
320512,note_on,,,,,0,0,1,,,,0,,,36,22
320512,note_on,,,,,0,0,1,,,,0,,,60,22
320512,note_off,,,,,0,0,1,,,,0,,,64,0
320592,note_off,,,,,80,0,1,,,,0,,,44,0
320694,control_change,,,,,102,0,1,,,,0,64,127,,
320768,note_on,,,,,74,0,1,,,,0,,,59,20
320768,note_on,,,,,0,0,1,,,,0,,,63,32
320768,note_on,,,,,0,0,1,,,,0,,,43,23
320768,set_tempo,,,,,256,1,0,,461538,,,,,,
320798,note_off,,,,,0,0,1,,,,0,,,64,0
320798,note_off,,,,,30,0,1,,,,0,,,60,0
320848,note_off,,,,,50,0,1,,,,0,,,36,0
321024,note_on,,,,,0,0,1,,,,0,,,36,24
321024,note_on,,,,,0,0,1,,,,0,,,64,36
321024,note_on,,,,,176,0,1,,,,0,,,60,23
321054,note_off,,,,,0,0,1,,,,0,,,63,0
321054,note_off,,,,,30,0,1,,,,0,,,59,0
321078,control_change,,,,,24,0,1,,,,0,64,0,,
321104,note_off,,,,,26,0,1,,,,0,,,43,0
321240,control_change,,,,,136,0,1,,,,0,64,127,,
321280,note_on,,,,,0,0,1,,,,0,,,43,25
321280,note_on,,,,,0,0,1,,,,0,,,63,35
321280,note_on,,,,,40,0,1,,,,0,,,59,22
321310,note_off,,,,,0,0,1,,,,0,,,64,0
321310,note_off,,,,,30,0,1,,,,0,,,60,0
321360,note_off,,,,,50,0,1,,,,0,,,36,0
321536,note_on,,,,,0,0,1,,,,0,,,64,40
321536,note_on,,,,,176,0,1,,,,0,,,60,26
321536,note_on,,,,,0,0,1,,,,0,,,36,26
321566,note_off,,,,,0,0,1,,,,0,,,63,0
321566,note_off,,,,,30,0,1,,,,0,,,59,0
321616,note_off,,,,,50,0,1,,,,0,,,43,0
321644,control_change,,,,,28,0,1,,,,0,64,0,,
321792,note_on,,,,,148,0,1,,,,0,,,59,23
321792,note_on,,,,,0,0,1,,,,0,,,63,38
321792,note_on,,,,,0,0,1,,,,0,,,43,33
321805,control_change,,,,,13,0,1,,,,0,64,127,,
321822,note_off,,,,,0,0,1,,,,0,,,64,0
321822,note_off,,,,,17,0,1,,,,0,,,60,0
321872,note_off,,,,,50,0,1,,,,0,,,36,0
322048,note_on,,,,,176,0,1,,,,0,,,60,28
322048,note_on,,,,,0,0,1,,,,0,,,64,43
322048,note_on,,,,,0,0,1,,,,0,,,36,29
322078,note_off,,,,,30,0,1,,,,0,,,59,0
322078,note_off,,,,,0,0,1,,,,0,,,63,0
322109,control_change,,,,,31,0,1,,,,0,64,0,,
322128,note_off,,,,,19,0,1,,,,0,,,43,0
322304,note_on,,,,,0,0,1,,,,0,,,44,39
322304,note_on,,,,,0,0,1,,,,0,,,63,41
322304,note_on,,,,,176,0,1,,,,0,,,59,27
322334,note_off,,,,,0,0,1,,,,0,,,64,0
322334,note_off,,,,,30,0,1,,,,0,,,60,0
322384,note_off,,,,,50,0,1,,,,0,,,36,0
322560,note_on,,,,,176,0,1,,,,0,,,60,26
322560,note_on,,,,,0,0,1,,,,0,,,64,40
322560,note_on,,,,,0,0,1,,,,0,,,36,27
322590,note_off,,,,,30,0,1,,,,0,,,59,0
322590,note_off,,,,,0,0,1,,,,0,,,63,0
322640,note_off,,,,,50,0,1,,,,0,,,44,0
322816,note_on,,,,,0,0,1,,,,0,,,44,35
322816,note_on,,,,,0,0,1,,,,0,,,65,38
322816,note_on,,,,,176,0,1,,,,0,,,62,38
322846,note_off,,,,,0,0,1,,,,0,,,64,0
322846,note_off,,,,,30,0,1,,,,0,,,60,0
322896,note_off,,,,,50,0,1,,,,0,,,36,0
323072,note_on,,,,,0,0,1,,,,0,,,36,24
323072,note_on,,,,,0,0,1,,,,0,,,64,36
323072,note_on,,,,,176,0,1,,,,0,,,60,24
323102,note_off,,,,,30,0,1,,,,0,,,62,0
323102,note_off,,,,,0,0,1,,,,0,,,65,0
323152,note_off,,,,,50,0,1,,,,0,,,44,0
323328,note_on,,,,,0,0,1,,,,0,,,63,34
323328,note_on,,,,,0,0,1,,,,0,,,44,32
323328,note_on,,,,,176,0,1,,,,0,,,59,22
323358,note_off,,,,,0,0,1,,,,0,,,64,0
323358,note_off,,,,,30,0,1,,,,0,,,60,0
323408,note_off,,,,,50,0,1,,,,0,,,36,0
323584,control_change,,,,,0,0,1,,,,0,64,0,,
323584,control_change,,,,,0,0,1,,,,0,64,0,,
323584,note_on,,,,,0,0,1,,,,0,,,60,30
323584,note_on,,,,,0,0,1,,,,0,,,64,44
323584,set_tempo,,,,,2816,1,0,,600000,,,,,,
323584,note_on,,,,,0,0,1,,,,0,,,36,22
323584,control_change,,,,,176,0,1,,,,0,64,0,,
323584,control_change,,,,,0,0,1,,,,0,64,0,,
323614,note_off,,,,,0,0,1,,,,0,,,63,0
323614,note_off,,,,,30,0,1,,,,0,,,59,0
323664,note_off,,,,,50,0,1,,,,0,,,44,0
323840,note_on,,,,,176,0,1,,,,0,,,43,22
323900,note_off,,,,,60,0,1,,,,0,,,36,0
324096,note_on,,,,,196,0,1,,,,0,,,59,25
324096,note_on,,,,,0,0,1,,,,0,,,67,43
324096,note_on,,,,,0,0,1,,,,0,,,36,22
324096,set_tempo,,,,,512,1,0,,500000,,,,,,
324136,note_off,,,,,40,0,1,,,,0,,,60,0
324136,note_off,,,,,0,0,1,,,,0,,,64,0
324156,note_off,,,,,20,0,1,,,,0,,,43,0
324352,note_on,,,,,196,0,1,,,,0,,,43,22
324412,note_off,,,,,60,0,1,,,,0,,,36,0
324608,note_on,,,,,196,0,1,,,,0,,,57,25
324608,note_on,,,,,0,0,1,,,,0,,,60,39
324608,note_on,,,,,0,0,1,,,,0,,,36,22
324608,set_tempo,,,,,512,1,0,,461538,,,,,,
324648,note_off,,,,,0,0,1,,,,0,,,67,0
324648,note_off,,,,,40,0,1,,,,0,,,59,0
324668,note_off,,,,,20,0,1,,,,0,,,43,0
324864,note_on,,,,,196,0,1,,,,0,,,43,22
324924,note_off,,,,,60,0,1,,,,0,,,36,0
325120,note_on,,,,,0,0,1,,,,0,,,36,22
325120,note_on,,,,,0,0,1,,,,0,,,64,43
325120,note_on,,,,,196,0,1,,,,0,,,55,26
325160,note_off,,,,,40,0,1,,,,0,,,57,0
325160,note_off,,,,,0,0,1,,,,0,,,60,0
325180,note_off,,,,,20,0,1,,,,0,,,43,0
325376,note_on,,,,,196,0,1,,,,0,,,43,22
325436,note_off,,,,,60,0,1,,,,0,,,36,0
325632,note_on,,,,,196,0,1,,,,0,,,53,25
325632,note_on,,,,,0,0,1,,,,0,,,36,22
325632,note_on,,,,,0,0,1,,,,0,,,57,39
325672,note_off,,,,,40,0,1,,,,0,,,55,0
325672,note_off,,,,,0,0,1,,,,0,,,64,0
325692,note_off,,,,,20,0,1,,,,0,,,43,0
325888,note_on,,,,,196,0,1,,,,0,,,43,22
325948,note_off,,,,,60,0,1,,,,0,,,36,0
326144,note_on,,,,,196,0,1,,,,0,,,52,24
326144,note_on,,,,,0,0,1,,,,0,,,60,38
326144,note_on,,,,,0,0,1,,,,0,,,36,22
326184,note_off,,,,,0,0,1,,,,0,,,57,0
326184,note_off,,,,,40,0,1,,,,0,,,53,0
326204,note_off,,,,,20,0,1,,,,0,,,43,0
326400,note_on,,,,,196,0,1,,,,0,,,43,22
326460,note_off,,,,,60,0,1,,,,0,,,36,0
326656,control_change,,,,,196,0,1,,,,0,64,0,,
326656,control_change,,,,,0,0,1,,,,0,64,0,,
326656,control_change,,,,,0,0,1,,,,0,64,0,,
326656,note_on,,,,,0,0,1,,,,0,,,50,23
326656,note_on,,,,,0,0,1,,,,0,,,53,39
326656,set_tempo,,,,,2048,1,0,,500000,,,,,,
326656,note_on,,,,,0,0,1,,,,0,,,36,22
326656,control_change,,,,,0,0,1,,,,0,64,0,,
326696,note_off,,,,,0,0,1,,,,0,,,60,0
326696,note_off,,,,,40,0,1,,,,0,,,52,0
326716,note_off,,,,,20,0,1,,,,0,,,43,0
326912,note_on,,,,,196,0,1,,,,0,,,43,22
326972,note_off,,,,,60,0,1,,,,0,,,36,0
327168,note_on,,,,,196,0,1,,,,0,,,48,22
327168,note_on,,,,,0,0,1,,,,0,,,57,36
327168,note_on,,,,,0,0,1,,,,0,,,36,22
327168,set_tempo,,,,,512,1,0,,461538,,,,,,
327208,note_off,,,,,40,0,1,,,,0,,,50,0
327208,note_off,,,,,0,0,1,,,,0,,,53,0
327228,note_off,,,,,20,0,1,,,,0,,,43,0
327424,note_on,,,,,196,0,1,,,,0,,,43,22
327484,note_off,,,,,60,0,1,,,,0,,,36,0
327680,note_on,,,,,0,0,1,,,,0,,,36,22
327680,note_on,,,,,0,0,1,,,,0,,,50,35
327680,note_on,,,,,196,0,1,,,,0,,,47,21
327720,note_off,,,,,0,0,1,,,,0,,,57,0
327720,note_off,,,,,40,0,1,,,,0,,,48,0
327740,note_off,,,,,20,0,1,,,,0,,,43,0
327936,note_on,,,,,196,0,1,,,,0,,,43,22
327996,note_off,,,,,60,0,1,,,,0,,,36,0
328192,note_on,,,,,196,0,1,,,,0,,,45,19
328192,note_on,,,,,0,0,1,,,,0,,,36,22
328192,note_on,,,,,0,0,1,,,,0,,,53,33
328232,note_off,,,,,40,0,1,,,,0,,,47,0
328232,note_off,,,,,0,0,1,,,,0,,,50,0
328252,note_off,,,,,20,0,1,,,,0,,,43,0
328448,note_on,,,,,196,0,1,,,,0,,,43,22
328508,note_off,,,,,60,0,1,,,,0,,,36,0
328704,set_tempo,,,,,1536,1,0,,500000,,,,,,
328704,note_on,,,,,196,0,1,,,,0,,,43,18
328704,note_on,,,,,0,0,1,,,,0,,,47,32
328704,note_on,,,,,0,0,1,,,,0,,,36,22
328744,note_off,,,,,40,0,1,,,,0,,,45,0
328744,note_off,,,,,0,0,1,,,,0,,,53,0
328764,note_off,,,,,20,0,1,,,,0,,,43,0
328960,note_on,,,,,196,0,1,,,,0,,,43,22
329020,note_off,,,,,60,0,1,,,,0,,,36,0
329216,note_on,,,,,0,0,1,,,,0,,,36,22
329216,set_tempo,,,,,512,1,0,,600000,,,,,,
329216,note_on,,,,,0,0,1,,,,0,,,50,31
329216,note_on,,,,,196,0,1,,,,0,,,41,17
329256,note_off,,,,,0,0,1,,,,0,,,47,0
329256,note_off,,,,,40,0,1,,,,0,,,43,0
329276,note_off,,,,,20,0,1,,,,0,,,43,0
329472,note_on,,,,,0,0,1,,,,0,,,44,33
329472,note_off,,,,,196,0,1,,,,0,,,36,0
329728,control_change,,,,,256,0,1,,,,0,64,0,,
329728,control_change,,,,,0,0,1,,,,0,64,0,,
329728,note_on,,,,,0,0,1,,,,0,,,40,15
329728,note_on,,,,,0,0,1,,,,0,,,48,31
329728,note_on,,,,,0,0,1,,,,0,,,36,22
329728,note_off,,,,,0,0,1,,,,0,,,44,0
329768,note_off,,,,,0,0,1,,,,0,,,50,0
329768,note_off,,,,,40,0,1,,,,0,,,41,0
329984,note_off,,,,,216,0,1,,,,0,,,36,0
329984,note_on,,,,,0,0,1,,,,0,,,43,22
329984,set_tempo,,,,,768,1,0,,461538,,,,,,
330017,control_change,,,,,33,0,1,,,,0,64,127,,
330240,note_off,,,,,223,0,1,,,,0,,,43,0
330240,note_on,,,,,0,0,1,,,,0,,,36,22
330496,note_on,,,,,0,0,1,,,,0,,,43,21
330496,note_off,,,,,256,0,1,,,,0,,,36,0
330752,note_off,,,,,256,0,1,,,,0,,,43,0
330752,note_on,,,,,0,0,1,,,,0,,,36,21
331008,note_off,,,,,256,0,1,,,,0,,,36,0
331008,note_on,,,,,0,0,1,,,,0,,,43,21
331264,note_on,,,,,0,0,1,,,,0,,,36,21
331264,note_on,,,,,0,0,1,,,,0,,,67,31
331264,note_off,,,,,0,0,1,,,,0,,,48,0
331264,note_on,,,,,0,0,1,,,,0,,,64,15
331264,note_off,,,,,256,0,1,,,,0,,,40,0
331264,note_off,,,,,0,0,1,,,,0,,,43,0
331520,note_on,,,,,0,0,1,,,,0,,,43,20
331520,note_off,,,,,256,0,1,,,,0,,,36,0
331776,note_off,,,,,256,0,1,,,,0,,,43,0
331776,note_on,,,,,0,0,1,,,,0,,,36,20
332032,note_off,,,,,256,0,1,,,,0,,,36,0
332032,note_on,,,,,0,0,1,,,,0,,,43,20
332288,note_on,,,,,0,0,1,,,,0,,,36,20
332288,note_off,,,,,256,0,1,,,,0,,,43,0
332544,note_off,,,,,256,0,1,,,,0,,,36,0
332544,note_on,,,,,0,0,1,,,,0,,,43,20
332800,note_on,,,,,0,0,1,,,,0,,,36,19
332800,note_on,,,,,0,0,1,,,,0,,,67,34
332800,note_on,,,,,0,0,1,,,,0,,,64,18
332800,note_off,,,,,0,0,1,,,,0,,,43,0
332800,note_off,,,,,0,0,1,,,,0,,,64,0
332800,control_change,,,,,0,0,1,,,,0,64,127,,
332800,control_change,,,,,256,0,1,,,,0,64,0,,
332800,note_off,,,,,0,0,1,,,,0,,,67,0
332934,control_change,,,,,134,0,1,,,,0,64,0,,
333056,note_off,,,,,122,0,1,,,,0,,,36,0
333056,note_on,,,,,0,0,1,,,,0,,,43,19
333112,control_change,,,,,56,0,1,,,,0,64,127,,
333312,note_on,,,,,0,0,1,,,,0,,,36,19
333312,note_off,,,,,200,0,1,,,,0,,,43,0
333568,note_on,,,,,0,0,1,,,,0,,,43,19
333568,note_off,,,,,256,0,1,,,,0,,,36,0
333824,note_on,,,,,0,0,1,,,,0,,,36,19
333824,note_off,,,,,256,0,1,,,,0,,,43,0
334080,note_on,,,,,0,0,1,,,,0,,,43,18
334080,note_off,,,,,256,0,1,,,,0,,,36,0
334336,note_off,,,,,256,0,1,,,,0,,,64,0
334336,note_off,,,,,0,0,1,,,,0,,,67,0
334336,note_off,,,,,0,0,1,,,,0,,,43,0
334336,note_on,,,,,0,0,1,,,,0,,,64,15
334336,note_on,,,,,0,0,1,,,,0,,,67,31
334336,note_on,,,,,0,0,1,,,,0,,,36,18
334592,note_on,,,,,0,0,1,,,,0,,,43,18
334592,note_off,,,,,256,0,1,,,,0,,,36,0
334848,note_off,,,,,256,0,1,,,,0,,,43,0
334848,note_on,,,,,0,0,1,,,,0,,,36,18
335104,note_off,,,,,256,0,1,,,,0,,,36,0
335104,note_on,,,,,0,0,1,,,,0,,,43,17
335360,set_tempo,,,,,5376,1,0,,500000,,,,,,
335360,note_off,,,,,256,0,1,,,,0,,,43,0
335360,note_on,,,,,0,0,1,,,,0,,,36,17
335616,set_tempo,,,,,256,1,0,,545454,,,,,,
335616,note_off,,,,,256,0,1,,,,0,,,36,0
335616,note_on,,,,,0,0,1,,,,0,,,43,17
335872,note_on,,,,,0,0,1,,,,0,,,35,17
335872,note_on,,,,,0,0,1,,,,0,,,67,31
335872,note_on,,,,,0,0,1,,,,0,,,64,15
335872,note_off,,,,,0,0,1,,,,0,,,43,0
335872,note_off,,,,,0,0,1,,,,0,,,67,0
335872,note_off,,,,,0,0,1,,,,0,,,64,0
335872,control_change,,,,,0,0,1,,,,0,64,0,,
335872,control_change,,,,,0,0,1,,,,0,64,127,,
335872,set_tempo,,,,,256,1,0,,666666,,,,,,
335872,control_change,,,,,256,0,1,,,,0,64,0,,
336006,control_change,,,,,134,0,1,,,,0,64,0,,
336128,set_tempo,,,,,256,1,0,,461538,,,,,,
336128,note_off,,,,,122,0,1,,,,0,,,35,0
336128,note_on,,,,,0,0,1,,,,0,,,47,17
336184,control_change,,,,,56,0,1,,,,0,64,127,,
336384,note_on,,,,,0,0,1,,,,0,,,35,17
336384,note_off,,,,,200,0,1,,,,0,,,47,0
336640,note_off,,,,,256,0,1,,,,0,,,35,0
336640,note_on,,,,,0,0,1,,,,0,,,47,17
336896,note_on,,,,,0,0,1,,,,0,,,35,17
336896,note_off,,,,,256,0,1,,,,0,,,47,0
337152,note_on,,,,,0,0,1,,,,0,,,47,17
337152,note_off,,,,,256,0,1,,,,0,,,35,0
337408,note_off,,,,,256,0,1,,,,0,,,64,0
337408,note_off,,,,,0,0,1,,,,0,,,67,0
337408,note_on,,,,,0,0,1,,,,0,,,35,17
337408,note_off,,,,,0,0,1,,,,0,,,47,0
337408,note_on,,,,,0,0,1,,,,0,,,67,28
337408,note_on,,,,,0,0,1,,,,0,,,64,12
337664,note_on,,,,,0,0,1,,,,0,,,47,17
337664,note_off,,,,,256,0,1,,,,0,,,35,0
337920,note_off,,,,,256,0,1,,,,0,,,47,0
337920,note_on,,,,,0,0,1,,,,0,,,35,17
338176,note_off,,,,,256,0,1,,,,0,,,35,0
338176,note_on,,,,,0,0,1,,,,0,,,47,17
338432,note_off,,,,,256,0,1,,,,0,,,47,0
338432,note_on,,,,,0,0,1,,,,0,,,35,17
338688,note_off,,,,,256,0,1,,,,0,,,35,0
338688,note_on,,,,,0,0,1,,,,0,,,47,17
338944,control_change,,,,,0,0,1,,,,0,64,127,,
338944,note_on,,,,,0,0,1,,,,0,,,35,17
338944,note_on,,,,,0,0,1,,,,0,,,66,31
338944,note_on,,,,,0,0,1,,,,0,,,63,15
338944,note_off,,,,,0,0,1,,,,0,,,47,0
338944,control_change,,,,,256,0,1,,,,0,64,0,,
338944,note_off,,,,,0,0,1,,,,0,,,67,0
338944,control_change,,,,,0,0,1,,,,0,64,0,,
338944,note_off,,,,,0,0,1,,,,0,,,64,0
339078,control_change,,,,,134,0,1,,,,0,64,0,,
339200,note_off,,,,,122,0,1,,,,0,,,35,0
339200,note_on,,,,,0,0,1,,,,0,,,47,17
339256,control_change,,,,,56,0,1,,,,0,64,127,,
339456,note_off,,,,,200,0,1,,,,0,,,47,0
339456,note_on,,,,,0,0,1,,,,0,,,35,17
339712,note_on,,,,,0,0,1,,,,0,,,47,17
339712,note_off,,,,,256,0,1,,,,0,,,35,0
339968,note_off,,,,,256,0,1,,,,0,,,47,0
339968,note_on,,,,,0,0,1,,,,0,,,35,17
340224,note_on,,,,,0,0,1,,,,0,,,47,17
340224,note_off,,,,,256,0,1,,,,0,,,35,0
340480,note_off,,,,,256,0,1,,,,0,,,63,0
340480,note_off,,,,,0,0,1,,,,0,,,66,0
340480,note_off,,,,,0,0,1,,,,0,,,47,0
340480,note_on,,,,,0,0,1,,,,0,,,63,15
340480,note_on,,,,,0,0,1,,,,0,,,66,31
340480,note_on,,,,,0,0,1,,,,0,,,35,17
340736,note_off,,,,,256,0,1,,,,0,,,35,0
340736,note_on,,,,,0,0,1,,,,0,,,47,17
340992,note_on,,,,,0,0,1,,,,0,,,35,17
340992,note_off,,,,,256,0,1,,,,0,,,47,0
341248,set_tempo,,,,,5120,1,0,,500000,,,,,,
341248,note_off,,,,,256,0,1,,,,0,,,35,0
341248,note_on,,,,,0,0,1,,,,0,,,47,17
341504,note_off,,,,,256,0,1,,,,0,,,47,0
341504,note_on,,,,,0,0,1,,,,0,,,35,17
341504,set_tempo,,,,,256,1,0,,545454,,,,,,
341760,set_tempo,,,,,256,1,0,,666666,,,,,,
341760,note_off,,,,,256,0,1,,,,0,,,35,0
341760,note_on,,,,,0,0,1,,,,0,,,47,17
342016,note_on,,,,,0,0,1,,,,0,,,35,17
342016,note_on,,,,,0,0,1,,,,0,,,66,33
342016,note_on,,,,,0,0,1,,,,0,,,62,26
342016,note_off,,,,,0,0,1,,,,0,,,47,0
342016,note_off,,,,,0,0,1,,,,0,,,66,0
342016,note_off,,,,,0,0,1,,,,0,,,63,0
342016,control_change,,,,,0,0,1,,,,0,64,0,,
342016,control_change,,,,,0,0,1,,,,0,64,127,,
342016,control_change,,,,,256,0,1,,,,0,64,0,,
342150,control_change,,,,,134,0,1,,,,0,64,0,,
342272,set_tempo,,,,,512,1,0,,461538,,,,,,
342272,note_off,,,,,122,0,1,,,,0,,,35,0
342272,note_on,,,,,0,0,1,,,,0,,,47,18
342328,control_change,,,,,56,0,1,,,,0,64,127,,
342528,note_off,,,,,200,0,1,,,,0,,,47,0
342528,note_on,,,,,0,0,1,,,,0,,,35,19
342784,note_off,,,,,256,0,1,,,,0,,,35,0
342784,note_on,,,,,0,0,1,,,,0,,,47,20
343040,note_off,,,,,256,0,1,,,,0,,,47,0
343040,note_on,,,,,0,0,1,,,,0,,,35,21
343296,note_off,,,,,256,0,1,,,,0,,,35,0
343296,note_on,,,,,0,0,1,,,,0,,,47,22
343552,note_on,,,,,0,0,1,,,,0,,,35,22
343552,note_off,,,,,256,0,1,,,,0,,,62,0
343552,note_off,,,,,0,0,1,,,,0,,,66,0
343552,note_off,,,,,0,0,1,,,,0,,,47,0
343552,note_on,,,,,0,0,1,,,,0,,,62,25
343552,note_on,,,,,0,0,1,,,,0,,,67,40
343572,control_change,,,,,20,0,1,,,,0,64,0,,
343798,control_change,,,,,226,0,1,,,,0,64,127,,
343808,note_off,,,,,10,0,1,,,,0,,,35,0
343808,note_on,,,,,0,0,1,,,,0,,,47,23
344064,note_off,,,,,256,0,1,,,,0,,,47,0
344064,note_on,,,,,0,0,1,,,,0,,,35,24
344320,note_off,,,,,256,0,1,,,,0,,,35,0
344320,note_on,,,,,0,0,1,,,,0,,,47,25
344576,note_off,,,,,256,0,1,,,,0,,,47,0
344576,note_on,,,,,0,0,1,,,,0,,,35,26
344832,note_off,,,,,256,0,1,,,,0,,,35,0
344832,note_on,,,,,0,0,1,,,,0,,,47,27
345088,note_on,,,,,0,0,1,,,,0,,,62,24
345088,note_on,,,,,0,0,1,,,,0,,,33,28
345088,note_on,,,,,0,0,1,,,,0,,,60,36
345088,note_on,,,,,0,0,1,,,,0,,,67,40
345088,note_off,,,,,0,0,1,,,,0,,,47,0
345088,set_tempo,,,,,2816,1,0,,545454,,,,,,
345088,note_off,,,,,0,0,1,,,,0,,,62,0
345088,control_change,,,,,0,0,1,,,,0,64,127,,
345088,control_change,,,,,256,0,1,,,,0,64,0,,
345088,note_off,,,,,0,0,1,,,,0,,,67,0
345211,control_change,,,,,123,0,1,,,,0,64,0,,
345344,note_off,,,,,133,0,1,,,,0,,,33,0
345344,note_on,,,,,0,0,1,,,,0,,,45,27
345436,control_change,,,,,92,0,1,,,,0,64,127,,
345600,note_off,,,,,0,0,1,,,,0,,,45,0
345600,note_on,,,,,0,0,1,,,,0,,,33,26
345600,set_tempo,,,,,512,1,0,,500000,,,,,,
345600,note_off,,,,,164,0,1,,,,0,,,67,0
345600,note_on,,,,,0,0,1,,,,0,,,66,41
345682,control_change,,,,,82,0,1,,,,0,64,0,,
345856,note_off,,,,,174,0,1,,,,0,,,33,0
345856,note_on,,,,,0,0,1,,,,0,,,45,25
345866,control_change,,,,,10,0,1,,,,0,64,127,,
346112,note_off,,,,,0,0,1,,,,0,,,45,0
346112,note_off,,,,,246,0,1,,,,0,,,66,0
346112,note_on,,,,,0,0,1,,,,0,,,64,38
346112,set_tempo,,,,,512,1,0,,461538,,,,,,
346112,note_on,,,,,0,0,1,,,,0,,,33,24
346214,control_change,,,,,102,0,1,,,,0,64,0,,
346358,control_change,,,,,144,0,1,,,,0,64,127,,
346368,note_on,,,,,0,0,1,,,,0,,,45,23
346368,note_off,,,,,10,0,1,,,,0,,,33,0
346624,control_change,,,,,256,0,1,,,,0,64,0,,
346624,note_off,,,,,0,0,1,,,,0,,,60,0
346624,note_off,,,,,0,0,1,,,,0,,,62,0
346624,note_off,,,,,0,0,1,,,,0,,,64,0
346624,note_off,,,,,0,0,1,,,,0,,,45,0
346624,note_on,,,,,0,0,1,,,,0,,,62,20
346624,note_on,,,,,0,0,1,,,,0,,,66,36
346624,note_on,,,,,0,0,1,,,,0,,,33,22
346624,note_on,,,,,0,0,1,,,,0,,,60,20
346880,note_off,,,,,256,0,1,,,,0,,,33,0
346880,note_on,,,,,0,0,1,,,,0,,,45,21
346931,control_change,,,,,51,0,1,,,,0,64,127,,
347136,note_off,,,,,205,0,1,,,,0,,,45,0
347136,note_on,,,,,0,0,1,,,,0,,,33,20
347392,note_off,,,,,256,0,1,,,,0,,,33,0
347392,note_on,,,,,0,0,1,,,,0,,,45,19
347648,note_off,,,,,256,0,1,,,,0,,,45,0
347648,note_on,,,,,0,0,1,,,,0,,,33,18
347904,note_off,,,,,256,0,1,,,,0,,,33,0
347904,note_on,,,,,0,0,1,,,,0,,,45,17
348160,note_on,,,,,0,0,1,,,,0,,,31,17
348160,note_on,,,,,0,0,1,,,,0,,,67,30
348160,note_on,,,,,0,0,1,,,,0,,,62,14
348160,note_on,,,,,0,0,1,,,,0,,,59,14
348160,note_off,,,,,0,0,1,,,,0,,,45,0
348160,note_off,,,,,0,0,1,,,,0,,,62,0
348160,note_off,,,,,0,0,1,,,,0,,,60,0
348160,control_change,,,,,0,0,1,,,,0,64,127,,
348160,control_change,,,,,256,0,1,,,,0,64,0,,
348160,note_off,,,,,0,0,1,,,,0,,,66,0
348262,control_change,,,,,102,0,1,,,,0,64,0,,
348416,note_off,,,,,154,0,1,,,,0,,,31,0
348416,note_on,,,,,0,0,1,,,,0,,,43,17
348467,control_change,,,,,51,0,1,,,,0,64,127,,
348672,note_off,,,,,205,0,1,,,,0,,,43,0
348672,note_on,,,,,0,0,1,,,,0,,,31,16
348928,note_on,,,,,0,0,1,,,,0,,,43,16
348928,note_off,,,,,256,0,1,,,,0,,,31,0
349184,note_off,,,,,256,0,1,,,,0,,,43,0
349184,note_on,,,,,0,0,1,,,,0,,,31,15
349440,note_off,,,,,256,0,1,,,,0,,,31,0
349440,note_on,,,,,0,0,1,,,,0,,,43,15
349696,note_off,,,,,256,0,1,,,,0,,,43,0
349696,note_on,,,,,0,0,1,,,,0,,,31,12
349718,control_change,,,,,22,0,1,,,,0,64,0,,
349952,note_off,,,,,234,0,1,,,,0,,,31,0
349952,note_on,,,,,0,0,1,,,,0,,,43,14
350208,note_off,,,,,256,0,1,,,,0,,,43,0
350208,note_on,,,,,0,0,1,,,,0,,,31,16
350464,note_off,,,,,256,0,1,,,,0,,,31,0
350464,note_on,,,,,0,0,1,,,,0,,,43,18
350720,note_on,,,,,0,0,1,,,,0,,,31,20
350720,note_off,,,,,256,0,1,,,,0,,,43,0
350976,note_off,,,,,256,0,1,,,,0,,,31,0
350976,note_on,,,,,0,0,1,,,,0,,,43,22
351109,control_change,,,,,133,0,1,,,,0,64,0,,
351232,control_change,,,,,123,0,1,,,,0,64,0,,
351232,control_change,,,,,0,0,1,,,,0,64,0,,
351232,note_off,,,,,0,0,1,,,,0,,,59,0
351232,note_off,,,,,0,0,1,,,,0,,,62,0
351232,note_off,,,,,0,0,1,,,,0,,,67,0
351232,note_off,,,,,0,0,1,,,,0,,,43,0
351232,note_on,,,,,0,0,1,,,,0,,,57,9
351232,note_on,,,,,0,0,1,,,,0,,,62,17
351232,note_on,,,,,0,0,1,,,,0,,,41,36
351232,set_tempo,,,,,5120,1,0,,600000,,,,,,
351479,control_change,,,,,247,0,1,,,,0,64,127,,
351479,control_change,,,,,0,0,1,,,,0,64,1,,
351488,set_tempo,,,,,256,1,0,,461538,,,,,,
351488,note_on,,,,,9,0,1,,,,0,,,69,21
351568,note_off,,,,,0,0,1,,,,0,,,62,0
351568,note_off,,,,,80,0,1,,,,0,,,57,0
351744,note_on,,,,,0,0,1,,,,0,,,62,24
351744,note_on,,,,,176,0,1,,,,0,,,57,13
351824,note_off,,,,,80,0,1,,,,0,,,69,0
352000,note_on,,,,,176,0,1,,,,0,,,69,28
352080,note_off,,,,,0,0,1,,,,0,,,62,0
352080,note_off,,,,,80,0,1,,,,0,,,57,0
352256,note_on,,,,,0,0,1,,,,0,,,62,28
352256,note_on,,,,,176,0,1,,,,0,,,57,16
352336,note_off,,,,,80,0,1,,,,0,,,69,0
352512,note_on,,,,,176,0,1,,,,0,,,69,29
352592,note_off,,,,,80,0,1,,,,0,,,57,0
352592,note_off,,,,,0,0,1,,,,0,,,62,0
352768,note_off,,,,,0,0,1,,,,0,,,41,0
352768,note_on,,,,,0,0,1,,,,0,,,41,42
352768,note_on,,,,,0,0,1,,,,0,,,62,29
352768,note_on,,,,,176,0,1,,,,0,,,57,17
352848,note_off,,,,,80,0,1,,,,0,,,69,0
353024,note_on,,,,,176,0,1,,,,0,,,69,30
353104,note_off,,,,,0,0,1,,,,0,,,62,0
353104,note_off,,,,,80,0,1,,,,0,,,57,0
353280,note_on,,,,,0,0,1,,,,0,,,62,31
353280,note_on,,,,,176,0,1,,,,0,,,57,19
353360,note_off,,,,,80,0,1,,,,0,,,69,0
353536,note_on,,,,,176,0,1,,,,0,,,69,31
353616,note_off,,,,,0,0,1,,,,0,,,62,0
353616,note_off,,,,,80,0,1,,,,0,,,57,0
353792,note_on,,,,,0,0,1,,,,0,,,62,32
353792,note_on,,,,,176,0,1,,,,0,,,57,20
353872,note_off,,,,,80,0,1,,,,0,,,69,0
354048,note_on,,,,,176,0,1,,,,0,,,69,32
354128,note_off,,,,,0,0,1,,,,0,,,62,0
354128,note_off,,,,,80,0,1,,,,0,,,57,0
354201,control_change,,,,,73,0,1,,,,0,64,0,,
354304,control_change,,,,,0,0,1,,,,0,64,0,,
354304,note_on,,,,,0,0,1,,,,0,,,57,21
354304,note_on,,,,,0,0,1,,,,0,,,62,33
354304,note_on,,,,,0,0,1,,,,0,,,41,40
354304,set_tempo,,,,,2816,1,0,,545454,,,,,,
354304,control_change,,,,,103,0,1,,,,0,64,0,,
354304,note_off,,,,,0,0,1,,,,0,,,41,0
354384,note_off,,,,,80,0,1,,,,0,,,69,0
354536,control_change,,,,,152,0,1,,,,0,64,127,,
354560,note_on,,,,,24,0,1,,,,0,,,69,33
354560,note_on,,,,,0,0,1,,,,0,,,40,41
354560,set_tempo,,,,,256,1,0,,461538,,,,,,
354600,note_off,,,,,40,0,1,,,,0,,,41,0
354640,note_off,,,,,0,0,1,,,,0,,,62,0
354640,note_off,,,,,40,0,1,,,,0,,,57,0
354816,note_on,,,,,0,0,1,,,,0,,,41,43
354816,note_on,,,,,0,0,1,,,,0,,,62,34
354816,note_on,,,,,176,0,1,,,,0,,,57,22
354856,note_off,,,,,40,0,1,,,,0,,,40,0
354896,note_off,,,,,40,0,1,,,,0,,,69,0
354961,control_change,,,,,65,0,1,,,,0,64,0,,
355072,note_on,,,,,111,0,1,,,,0,,,69,34
355072,note_on,,,,,0,0,1,,,,0,,,40,44
355112,note_off,,,,,40,0,1,,,,0,,,41,0
355135,control_change,,,,,23,0,1,,,,0,64,127,,
355152,note_off,,,,,0,0,1,,,,0,,,62,0
355152,note_off,,,,,17,0,1,,,,0,,,57,0
355328,note_on,,,,,176,0,1,,,,0,,,57,23
355328,note_on,,,,,0,0,1,,,,0,,,62,35
355328,note_on,,,,,0,0,1,,,,0,,,41,45
355368,note_off,,,,,40,0,1,,,,0,,,40,0
355386,control_change,,,,,18,0,1,,,,0,64,0,,
355408,note_off,,,,,22,0,1,,,,0,,,69,0
355584,note_on,,,,,0,0,1,,,,0,,,40,47
355584,note_on,,,,,176,0,1,,,,0,,,69,36
355624,note_off,,,,,40,0,1,,,,0,,,41,0
355664,note_off,,,,,0,0,1,,,,0,,,62,0
355664,note_off,,,,,40,0,1,,,,0,,,57,0
355840,note_on,,,,,0,0,1,,,,0,,,41,48
355840,note_on,,,,,0,0,1,,,,0,,,62,36
355840,note_on,,,,,176,0,1,,,,0,,,57,24
355840,set_tempo,,,,,1280,1,0,,500000,,,,,,
355880,note_off,,,,,40,0,1,,,,0,,,40,0
355920,note_off,,,,,40,0,1,,,,0,,,69,0
356096,set_tempo,,,,,256,1,0,,461538,,,,,,
356096,note_on,,,,,176,0,1,,,,0,,,69,37
356096,note_on,,,,,0,0,1,,,,0,,,40,50
356136,note_off,,,,,40,0,1,,,,0,,,41,0
356176,note_off,,,,,40,0,1,,,,0,,,57,0
356176,note_off,,,,,0,0,1,,,,0,,,62,0
356217,control_change,,,,,41,0,1,,,,0,64,127,,
356352,note_on,,,,,135,0,1,,,,0,,,57,25
356352,note_on,,,,,0,0,1,,,,0,,,41,51
356352,note_on,,,,,0,0,1,,,,0,,,62,37
356392,note_off,,,,,40,0,1,,,,0,,,40,0
356432,note_off,,,,,40,0,1,,,,0,,,69,0
356608,note_on,,,,,0,0,1,,,,0,,,42,52
356608,note_on,,,,,176,0,1,,,,0,,,69,38
356648,note_off,,,,,40,0,1,,,,0,,,41,0
356688,note_off,,,,,40,0,1,,,,0,,,57,0
356688,note_off,,,,,0,0,1,,,,0,,,62,0
356864,note_on,,,,,0,0,1,,,,0,,,43,54
356864,note_on,,,,,0,0,1,,,,0,,,62,38
356864,note_on,,,,,176,0,1,,,,0,,,57,26
356904,note_off,,,,,40,0,1,,,,0,,,42,0
356944,note_off,,,,,40,0,1,,,,0,,,69,0
357048,control_change,,,,,104,0,1,,,,0,64,0,,
357120,note_on,,,,,72,0,1,,,,0,,,69,39
357120,note_on,,,,,0,0,1,,,,0,,,44,55
357160,note_off,,,,,40,0,1,,,,0,,,43,0
357200,note_off,,,,,40,0,1,,,,0,,,57,0
357200,note_off,,,,,0,0,1,,,,0,,,62,0
357376,control_change,,,,,0,0,1,,,,0,64,0,,
357376,note_on,,,,,0,0,1,,,,0,,,57,50
357376,note_on,,,,,0,0,1,,,,0,,,62,50
357376,note_on,,,,,0,0,1,,,,0,,,64,61
357376,note_on,,,,,0,0,1,,,,0,,,45,55
357376,control_change,,,,,176,0,1,,,,0,64,0,,
357416,note_off,,,,,40,0,1,,,,0,,,44,0
357456,note_off,,,,,40,0,1,,,,0,,,69,0
357550,note_off,,,,,94,0,1,,,,0,,,45,0
357632,note_off,,,,,0,0,1,,,,0,,,62,0
357632,note_off,,,,,82,0,1,,,,0,,,57,0
357632,note_off,,,,,0,0,1,,,,0,,,64,0
357632,note_on,,,,,0,0,1,,,,0,,,69,44
357888,note_on,,,,,0,0,1,,,,0,,,33,55
357888,note_on,,,,,0,0,1,,,,0,,,64,44
357888,note_on,,,,,0,0,1,,,,0,,,62,44
357888,note_on,,,,,0,0,1,,,,0,,,57,31
357888,note_off,,,,,256,0,1,,,,0,,,69,0
358062,note_off,,,,,174,0,1,,,,0,,,33,0
358144,note_off,,,,,82,0,1,,,,0,,,57,0
358144,note_on,,,,,0,0,1,,,,0,,,69,44
358144,note_off,,,,,0,0,1,,,,0,,,64,0
358144,note_off,,,,,0,0,1,,,,0,,,62,0
358400,note_on,,,,,0,0,1,,,,0,,,57,50
358400,note_on,,,,,0,0,1,,,,0,,,62,50
358400,note_on,,,,,0,0,1,,,,0,,,64,61
358400,note_on,,,,,0,0,1,,,,0,,,45,55
358400,note_off,,,,,256,0,1,,,,0,,,69,0
358574,note_off,,,,,174,0,1,,,,0,,,45,0
358656,note_off,,,,,82,0,1,,,,0,,,57,0
358656,note_off,,,,,0,0,1,,,,0,,,62,0
358656,note_off,,,,,0,0,1,,,,0,,,64,0
358656,note_on,,,,,0,0,1,,,,0,,,69,44
358912,note_off,,,,,256,0,1,,,,0,,,69,0
358912,note_on,,,,,0,0,1,,,,0,,,57,31
358912,note_on,,,,,0,0,1,,,,0,,,61,31
358912,note_on,,,,,0,0,1,,,,0,,,64,44
358912,note_on,,,,,0,0,1,,,,0,,,33,55
359086,note_off,,,,,174,0,1,,,,0,,,33,0
359168,note_off,,,,,82,0,1,,,,0,,,57,0
359168,note_off,,,,,0,0,1,,,,0,,,61,0
359168,note_off,,,,,0,0,1,,,,0,,,64,0
359168,note_on,,,,,0,0,1,,,,0,,,69,44
359424,note_off,,,,,256,0,1,,,,0,,,69,0
359424,note_on,,,,,0,0,1,,,,0,,,61,50
359424,note_on,,,,,0,0,1,,,,0,,,64,61
359424,note_on,,,,,0,0,1,,,,0,,,45,55
359424,note_on,,,,,0,0,1,,,,0,,,57,50
359598,note_off,,,,,174,0,1,,,,0,,,45,0
359680,note_off,,,,,82,0,1,,,,0,,,57,0
359680,note_off,,,,,0,0,1,,,,0,,,61,0
359680,note_on,,,,,0,0,1,,,,0,,,69,44
359680,note_off,,,,,0,0,1,,,,0,,,64,0
359936,note_on,,,,,0,0,1,,,,0,,,61,31
359936,note_off,,,,,256,0,1,,,,0,,,69,0
359936,note_on,,,,,0,0,1,,,,0,,,57,31
359936,note_on,,,,,0,0,1,,,,0,,,33,55
359936,note_on,,,,,0,0,1,,,,0,,,64,44
360110,note_off,,,,,174,0,1,,,,0,,,33,0
360192,note_on,,,,,0,0,1,,,,0,,,69,44
360192,note_off,,,,,0,0,1,,,,0,,,64,0
360192,note_off,,,,,0,0,1,,,,0,,,61,0
360192,note_off,,,,,82,0,1,,,,0,,,57,0
360192,set_tempo,,,,,4096,1,0,,666666,,,,,,
360448,control_change,,,,,0,0,1,,,,0,64,0,,
360448,control_change,,,,,0,0,1,,,,0,64,0,,
360448,note_off,,,,,0,0,1,,,,0,,,69,0
360448,note_on,,,,,0,0,1,,,,0,,,60,19
360448,note_on,,,,,0,0,1,,,,0,,,44,54
360448,control_change,,,,,0,0,1,,,,0,64,0,,
360448,control_change,,,,,0,0,1,,,,0,64,0,,
360448,note_on,,,,,0,0,1,,,,0,,,65,31
360448,control_change,,,,,256,0,1,,,,0,64,0,,
360448,control_change,,,,,0,0,1,,,,0,64,0,,
360448,set_tempo,,,,,256,1,0,,600000,,,,,,
360695,control_change,,,,,247,0,1,,,,0,64,127,,
360695,control_change,,,,,0,0,1,,,,0,64,1,,
360695,control_change,,,,,0,0,1,,,,0,64,127,,
360695,control_change,,,,,0,0,1,,,,0,64,1,,
360704,set_tempo,,,,,256,1,0,,461538,,,,,,
360704,note_on,,,,,9,0,1,,,,0,,,72,32
360784,note_off,,,,,0,0,1,,,,0,,,65,0
360784,note_off,,,,,80,0,1,,,,0,,,60,0
360960,note_on,,,,,176,0,1,,,,0,,,60,20
360960,note_on,,,,,0,0,1,,,,0,,,65,32
361040,note_off,,,,,80,0,1,,,,0,,,72,0
361216,note_on,,,,,176,0,1,,,,0,,,72,33
361296,note_off,,,,,80,0,1,,,,0,,,60,0
361296,note_off,,,,,0,0,1,,,,0,,,65,0
361472,note_on,,,,,0,0,1,,,,0,,,65,33
361472,note_on,,,,,176,0,1,,,,0,,,60,21
361552,note_off,,,,,80,0,1,,,,0,,,72,0
361728,note_on,,,,,176,0,1,,,,0,,,72,34
361808,note_off,,,,,80,0,1,,,,0,,,60,0
361808,note_off,,,,,0,0,1,,,,0,,,65,0
361984,note_on,,,,,0,0,1,,,,0,,,44,54
361984,note_on,,,,,0,0,1,,,,0,,,65,34
361984,note_off,,,,,0,0,1,,,,0,,,44,0
361984,note_on,,,,,176,0,1,,,,0,,,60,22
362064,note_off,,,,,80,0,1,,,,0,,,72,0
362240,note_on,,,,,176,0,1,,,,0,,,72,35
362320,note_off,,,,,0,0,1,,,,0,,,65,0
362320,note_off,,,,,80,0,1,,,,0,,,60,0
362496,note_on,,,,,0,0,1,,,,0,,,65,36
362496,note_on,,,,,176,0,1,,,,0,,,60,24
362576,note_off,,,,,80,0,1,,,,0,,,72,0
362752,note_on,,,,,176,0,1,,,,0,,,72,36
362832,note_off,,,,,0,0,1,,,,0,,,65,0
362832,note_off,,,,,80,0,1,,,,0,,,60,0
363008,note_on,,,,,176,0,1,,,,0,,,60,25
363008,note_on,,,,,0,0,1,,,,0,,,65,37
363088,note_off,,,,,80,0,1,,,,0,,,72,0
363264,note_on,,,,,176,0,1,,,,0,,,72,37
363344,note_off,,,,,80,0,1,,,,0,,,60,0
363344,note_off,,,,,0,0,1,,,,0,,,65,0
363417,control_change,,,,,73,0,1,,,,0,64,0,,
363417,control_change,,,,,0,0,1,,,,0,64,0,,
363520,control_change,,,,,0,0,1,,,,0,64,0,,
363520,note_on,,,,,0,0,1,,,,0,,,60,26
363520,note_off,,,,,0,0,1,,,,0,,,44,0
363520,control_change,,,,,0,0,1,,,,0,64,0,,
363520,control_change,,,,,0,0,1,,,,0,64,0,,
363520,note_on,,,,,0,0,1,,,,0,,,65,38
363520,control_change,,,,,0,0,1,,,,0,64,0,,
363520,control_change,,,,,0,0,1,,,,0,64,0,,
363520,control_change,,,,,103,0,1,,,,0,64,0,,
363520,set_tempo,,,,,2816,1,0,,545454,,,,,,
363520,note_on,,,,,0,0,1,,,,0,,,44,45
363600,note_off,,,,,80,0,1,,,,0,,,72,0
363752,control_change,,,,,0,0,1,,,,0,64,127,,
363752,control_change,,,,,152,0,1,,,,0,64,127,,
363776,note_on,,,,,0,0,1,,,,0,,,43,46
363776,note_on,,,,,24,0,1,,,,0,,,72,38
363776,set_tempo,,,,,256,1,0,,461538,,,,,,
363816,note_off,,,,,40,0,1,,,,0,,,44,0
363856,note_off,,,,,0,0,1,,,,0,,,65,0
363856,note_off,,,,,40,0,1,,,,0,,,60,0
364032,note_on,,,,,176,0,1,,,,0,,,60,27
364032,note_on,,,,,0,0,1,,,,0,,,65,39
364032,note_on,,,,,0,0,1,,,,0,,,44,48
364072,note_off,,,,,40,0,1,,,,0,,,43,0
364112,note_off,,,,,40,0,1,,,,0,,,72,0
364177,control_change,,,,,65,0,1,,,,0,64,0,,
364177,control_change,,,,,0,0,1,,,,0,64,0,,
364288,note_on,,,,,111,0,1,,,,0,,,72,39
364288,note_on,,,,,0,0,1,,,,0,,,43,49
364328,note_off,,,,,40,0,1,,,,0,,,44,0
364351,control_change,,,,,23,0,1,,,,0,64,127,,
364351,control_change,,,,,0,0,1,,,,0,64,127,,
364368,note_off,,,,,17,0,1,,,,0,,,60,0
364368,note_off,,,,,0,0,1,,,,0,,,65,0
364544,note_on,,,,,176,0,1,,,,0,,,60,28
364544,note_on,,,,,0,0,1,,,,0,,,65,40
364544,note_on,,,,,0,0,1,,,,0,,,44,50
364584,note_off,,,,,40,0,1,,,,0,,,43,0
364602,control_change,,,,,0,0,1,,,,0,64,0,,
364602,control_change,,,,,18,0,1,,,,0,64,0,,
364624,note_off,,,,,22,0,1,,,,0,,,72,0
364800,note_on,,,,,176,0,1,,,,0,,,72,41
364800,note_on,,,,,0,0,1,,,,0,,,43,52
364840,note_off,,,,,40,0,1,,,,0,,,44,0
364880,note_off,,,,,40,0,1,,,,0,,,60,0
364880,note_off,,,,,0,0,1,,,,0,,,65,0
365056,set_tempo,,,,,1280,1,0,,500000,,,,,,
365056,note_on,,,,,0,0,1,,,,0,,,44,53
365056,note_on,,,,,0,0,1,,,,0,,,65,41
365056,note_on,,,,,176,0,1,,,,0,,,60,29
365096,note_off,,,,,40,0,1,,,,0,,,43,0
365136,note_off,,,,,40,0,1,,,,0,,,72,0
365312,note_on,,,,,176,0,1,,,,0,,,72,42
365312,note_on,,,,,0,0,1,,,,0,,,43,55
365312,set_tempo,,,,,256,1,0,,461538,,,,,,
365352,note_off,,,,,40,0,1,,,,0,,,44,0
365392,note_off,,,,,40,0,1,,,,0,,,60,0
365392,note_off,,,,,0,0,1,,,,0,,,65,0
365433,control_change,,,,,41,0,1,,,,0,64,127,,
365433,control_change,,,,,0,0,1,,,,0,64,127,,
365568,note_on,,,,,0,0,1,,,,0,,,44,56
365568,note_on,,,,,135,0,1,,,,0,,,60,30
365568,note_on,,,,,0,0,1,,,,0,,,65,42
365608,note_off,,,,,40,0,1,,,,0,,,43,0
365648,note_off,,,,,40,0,1,,,,0,,,72,0
365824,note_on,,,,,176,0,1,,,,0,,,72,43
365824,note_on,,,,,0,0,1,,,,0,,,45,57
365864,note_off,,,,,40,0,1,,,,0,,,44,0
365904,note_off,,,,,0,0,1,,,,0,,,65,0
365904,note_off,,,,,40,0,1,,,,0,,,60,0
366080,note_on,,,,,176,0,1,,,,0,,,60,31
366080,note_on,,,,,0,0,1,,,,0,,,65,43
366080,note_on,,,,,0,0,1,,,,0,,,46,59
366120,note_off,,,,,40,0,1,,,,0,,,45,0
366160,note_off,,,,,40,0,1,,,,0,,,72,0
366264,control_change,,,,,0,0,1,,,,0,64,0,,
366264,control_change,,,,,104,0,1,,,,0,64,0,,
366336,note_on,,,,,72,0,1,,,,0,,,72,44
366336,note_on,,,,,0,0,1,,,,0,,,47,60
366376,note_off,,,,,40,0,1,,,,0,,,46,0
366416,note_off,,,,,40,0,1,,,,0,,,60,0
366416,note_off,,,,,0,0,1,,,,0,,,65,0
366592,note_on,,,,,0,0,1,,,,0,,,48,60
366592,note_on,,,,,0,0,1,,,,0,,,67,54
366592,note_on,,,,,0,0,1,,,,0,,,65,67
366592,note_on,,,,,0,0,1,,,,0,,,60,55
366592,control_change,,,,,0,0,1,,,,0,64,0,,
366592,control_change,,,,,0,0,1,,,,0,64,0,,
366592,control_change,,,,,0,0,1,,,,0,64,0,,
366592,control_change,,,,,0,0,1,,,,0,64,0,,
366592,control_change,,,,,176,0,1,,,,0,64,0,,
366592,control_change,,,,,0,0,1,,,,0,64,0,,
366632,note_off,,,,,40,0,1,,,,0,,,47,0
366672,note_off,,,,,40,0,1,,,,0,,,72,0
366848,note_on,,,,,0,0,1,,,,0,,,72,49
366848,note_off,,,,,176,0,1,,,,0,,,60,0
366848,note_off,,,,,0,0,1,,,,0,,,65,0
366848,note_off,,,,,0,0,1,,,,0,,,67,0
367104,note_on,,,,,0,0,1,,,,0,,,60,36
367104,note_on,,,,,0,0,1,,,,0,,,65,49
367104,note_on,,,,,0,0,1,,,,0,,,67,49
367104,note_on,,,,,0,0,1,,,,0,,,36,60
367104,note_off,,,,,0,0,1,,,,0,,,48,0
367104,set_tempo,,,,,1792,1,0,,545454,,,,,,
367104,note_off,,,,,256,0,1,,,,0,,,72,0
367360,note_on,,,,,0,0,1,,,,0,,,72,49
367360,note_off,,,,,0,0,1,,,,0,,,65,0
367360,note_off,,,,,256,0,1,,,,0,,,60,0
367360,note_off,,,,,0,0,1,,,,0,,,67,0
367360,set_tempo,,,,,256,1,0,,461538,,,,,,
367616,note_off,,,,,256,0,1,,,,0,,,72,0
367616,note_on,,,,,0,0,1,,,,0,,,60,55
367616,note_on,,,,,0,0,1,,,,0,,,65,67
367616,note_on,,,,,0,0,1,,,,0,,,67,54
367616,note_on,,,,,0,0,1,,,,0,,,49,60
367616,note_off,,,,,0,0,1,,,,0,,,36,0
367872,note_off,,,,,0,0,1,,,,0,,,65,0
367872,note_off,,,,,0,0,1,,,,0,,,67,0
367872,note_on,,,,,0,0,1,,,,0,,,72,49
367872,note_off,,,,,256,0,1,,,,0,,,60,0
368128,note_off,,,,,256,0,1,,,,0,,,72,0
368128,note_on,,,,,0,0,1,,,,0,,,60,36
368128,note_on,,,,,0,0,1,,,,0,,,64,36
368128,note_on,,,,,0,0,1,,,,0,,,67,49
368128,note_on,,,,,0,0,1,,,,0,,,37,60
368128,note_off,,,,,0,0,1,,,,0,,,49,0
368384,note_off,,,,,256,0,1,,,,0,,,60,0
368384,note_off,,,,,0,0,1,,,,0,,,64,0
368384,note_off,,,,,0,0,1,,,,0,,,67,0
368384,note_on,,,,,0,0,1,,,,0,,,72,49
368640,note_off,,,,,0,0,1,,,,0,,,37,0
368640,note_on,,,,,0,0,1,,,,0,,,67,54
368640,note_on,,,,,0,0,1,,,,0,,,64,67
368640,note_on,,,,,0,0,1,,,,0,,,60,55
368640,note_off,,,,,256,0,1,,,,0,,,72,0
368640,note_on,,,,,0,0,1,,,,0,,,48,60
368896,note_off,,,,,256,0,1,,,,0,,,60,0
368896,note_off,,,,,0,0,1,,,,0,,,64,0
368896,note_off,,,,,0,0,1,,,,0,,,67,0
368896,note_on,,,,,0,0,1,,,,0,,,72,49
369152,note_on,,,,,0,0,1,,,,0,,,36,60
369152,note_off,,,,,0,0,1,,,,0,,,48,0
369152,note_on,,,,,0,0,1,,,,0,,,64,36
369152,note_on,,,,,0,0,1,,,,0,,,60,36
369152,note_off,,,,,256,0,1,,,,0,,,72,0
369152,note_on,,,,,0,0,1,,,,0,,,67,49
369408,note_off,,,,,256,0,1,,,,0,,,60,0
369408,note_off,,,,,0,0,1,,,,0,,,64,0
369408,note_off,,,,,0,0,1,,,,0,,,67,0
369408,note_on,,,,,0,0,1,,,,0,,,72,49
369408,set_tempo,,,,,2048,1,0,,666666,,,,,,
369664,set_tempo,,,,,256,1,0,,545454,,,,,,
369664,note_on,,,,,0,0,1,,,,0,,,47,51
369664,control_change,,,,,0,0,1,,,,0,64,0,,
369664,note_on,,,,,0,0,1,,,,0,,,63,32
369664,note_off,,,,,0,0,1,,,,0,,,36,0
369664,note_off,,,,,0,0,1,,,,0,,,72,0
369664,control_change,,,,,256,0,1,,,,0,64,0,,
369664,note_on,,,,,0,0,1,,,,0,,,68,44
369831,control_change,,,,,167,0,1,,,,0,64,127,,
369920,note_on,,,,,89,0,1,,,,0,,,75,44
369920,note_off,,,,,0,0,1,,,,0,,,47,0
369920,note_on,,,,,0,0,1,,,,0,,,46,52
369920,set_tempo,,,,,256,1,0,,461538,,,,,,
370000,note_off,,,,,80,0,1,,,,0,,,63,0
370000,note_off,,,,,0,0,1,,,,0,,,68,0
370176,note_on,,,,,0,0,1,,,,0,,,47,54
370176,note_off,,,,,0,0,1,,,,0,,,46,0
370176,note_on,,,,,0,0,1,,,,0,,,68,45
370176,note_on,,,,,176,0,1,,,,0,,,63,33
370256,note_off,,,,,80,0,1,,,,0,,,75,0
370432,note_on,,,,,0,0,1,,,,0,,,48,55
370432,note_off,,,,,0,0,1,,,,0,,,47,0
370432,note_on,,,,,176,0,1,,,,0,,,75,45
370512,note_off,,,,,0,0,1,,,,0,,,68,0
370512,note_off,,,,,80,0,1,,,,0,,,63,0
370688,note_off,,,,,0,0,1,,,,0,,,48,0
370688,note_on,,,,,176,0,1,,,,0,,,63,34
370688,note_on,,,,,0,0,1,,,,0,,,49,56
370688,note_on,,,,,0,0,1,,,,0,,,68,46
370768,note_off,,,,,80,0,1,,,,0,,,75,0
370944,note_on,,,,,176,0,1,,,,0,,,75,47
370944,note_off,,,,,0,0,1,,,,0,,,49,0
370944,note_on,,,,,0,0,1,,,,0,,,50,58
371024,note_off,,,,,0,0,1,,,,0,,,68,0
371024,note_off,,,,,80,0,1,,,,0,,,63,0
371085,control_change,,,,,61,0,1,,,,0,64,0,,
371200,note_on,,,,,115,0,1,,,,0,,,63,35
371200,note_on,,,,,0,0,1,,,,0,,,67,47
371200,note_on,,,,,0,0,1,,,,0,,,70,35
371200,note_on,,,,,0,0,1,,,,0,,,51,59
371200,note_off,,,,,0,0,1,,,,0,,,50,0
371280,note_off,,,,,80,0,1,,,,0,,,75,0
371374,note_off,,,,,94,0,1,,,,0,,,51,0
371456,note_on,,,,,82,0,1,,,,0,,,75,48
371536,note_off,,,,,0,0,1,,,,0,,,67,0
371536,note_off,,,,,0,0,1,,,,0,,,70,0
371536,note_off,,,,,80,0,1,,,,0,,,63,0
371712,note_on,,,,,0,0,1,,,,0,,,67,48
371712,note_on,,,,,176,0,1,,,,0,,,63,36
371712,note_on,,,,,0,0,1,,,,0,,,39,56
371712,note_on,,,,,0,0,1,,,,0,,,70,36
371792,note_off,,,,,80,0,1,,,,0,,,75,0
371886,note_off,,,,,94,0,1,,,,0,,,39,0
371968,note_on,,,,,82,0,1,,,,0,,,75,49
372048,note_off,,,,,80,0,1,,,,0,,,63,0
372048,note_off,,,,,0,0,1,,,,0,,,67,0
372048,note_off,,,,,0,0,1,,,,0,,,70,0
372224,note_on,,,,,0,0,1,,,,0,,,67,49
372224,note_on,,,,,176,0,1,,,,0,,,63,37
372224,note_on,,,,,0,0,1,,,,0,,,70,37
372224,note_on,,,,,0,0,1,,,,0,,,51,53
372304,note_off,,,,,80,0,1,,,,0,,,75,0
372398,note_off,,,,,94,0,1,,,,0,,,51,0
372480,note_on,,,,,82,0,1,,,,0,,,75,50
372560,note_off,,,,,80,0,1,,,,0,,,63,0
372560,note_off,,,,,0,0,1,,,,0,,,67,0
372560,note_off,,,,,0,0,1,,,,0,,,70,0
372736,note_on,,,,,0,0,1,,,,0,,,68,50
372736,note_on,,,,,0,0,1,,,,0,,,47,57
372736,control_change,,,,,0,0,1,,,,0,64,0,,
372736,control_change,,,,,176,0,1,,,,0,64,0,,
372736,control_change,,,,,0,0,1,,,,0,64,0,,
372736,note_on,,,,,0,0,1,,,,0,,,63,38
372816,note_off,,,,,80,0,1,,,,0,,,75,0
372903,control_change,,,,,87,0,1,,,,0,64,127,,
372992,note_on,,,,,89,0,1,,,,0,,,75,50
372992,note_off,,,,,0,0,1,,,,0,,,47,0
372992,note_on,,,,,0,0,1,,,,0,,,46,58
373072,note_off,,,,,0,0,1,,,,0,,,68,0
373072,note_off,,,,,80,0,1,,,,0,,,63,0
373248,note_on,,,,,0,0,1,,,,0,,,47,60
373248,note_on,,,,,0,0,1,,,,0,,,68,51
373248,note_on,,,,,176,0,1,,,,0,,,63,39
373248,note_off,,,,,0,0,1,,,,0,,,46,0
373328,note_off,,,,,80,0,1,,,,0,,,75,0
373504,note_on,,,,,176,0,1,,,,0,,,75,51
373504,note_off,,,,,0,0,1,,,,0,,,47,0
373504,note_on,,,,,0,0,1,,,,0,,,48,61
373584,note_off,,,,,80,0,1,,,,0,,,63,0
373584,note_off,,,,,0,0,1,,,,0,,,68,0
373760,note_on,,,,,176,0,1,,,,0,,,63,40
373760,note_off,,,,,0,0,1,,,,0,,,48,0
373760,note_on,,,,,0,0,1,,,,0,,,49,62
373760,note_on,,,,,0,0,1,,,,0,,,68,52
373840,note_off,,,,,80,0,1,,,,0,,,75,0
374016,note_on,,,,,0,0,1,,,,0,,,50,64
374016,note_on,,,,,176,0,1,,,,0,,,75,53
374016,note_off,,,,,0,0,1,,,,0,,,49,0
374096,note_off,,,,,80,0,1,,,,0,,,63,0
374096,note_off,,,,,0,0,1,,,,0,,,68,0
374157,control_change,,,,,61,0,1,,,,0,64,0,,
374272,note_on,,,,,0,0,1,,,,0,,,70,41
374272,note_on,,,,,0,0,1,,,,0,,,67,53
374272,note_off,,,,,0,0,1,,,,0,,,50,0
374272,note_on,,,,,0,0,1,,,,0,,,51,65
374272,note_on,,,,,115,0,1,,,,0,,,63,41
374352,note_off,,,,,80,0,1,,,,0,,,75,0
374446,note_off,,,,,94,0,1,,,,0,,,51,0
374528,note_on,,,,,82,0,1,,,,0,,,75,54
374608,note_off,,,,,80,0,1,,,,0,,,63,0
374608,note_off,,,,,0,0,1,,,,0,,,67,0
374608,note_off,,,,,0,0,1,,,,0,,,70,0
374784,note_on,,,,,176,0,1,,,,0,,,63,42
374784,note_on,,,,,0,0,1,,,,0,,,39,62
374784,note_on,,,,,0,0,1,,,,0,,,70,42
374784,note_on,,,,,0,0,1,,,,0,,,67,54
374864,note_off,,,,,80,0,1,,,,0,,,75,0
374958,note_off,,,,,94,0,1,,,,0,,,39,0
375040,note_on,,,,,82,0,1,,,,0,,,75,55
375120,note_off,,,,,80,0,1,,,,0,,,63,0
375120,note_off,,,,,0,0,1,,,,0,,,67,0
375120,note_off,,,,,0,0,1,,,,0,,,70,0
375296,note_on,,,,,0,0,1,,,,0,,,67,55
375296,note_on,,,,,176,0,1,,,,0,,,63,43
375296,note_on,,,,,0,0,1,,,,0,,,70,43
375296,note_on,,,,,0,0,1,,,,0,,,51,59
375376,note_off,,,,,80,0,1,,,,0,,,75,0
375470,note_off,,,,,94,0,1,,,,0,,,51,0
375552,note_on,,,,,82,0,1,,,,0,,,75,56
375552,set_tempo,,,,,5632,1,0,,500000,,,,,,
375632,note_off,,,,,80,0,1,,,,0,,,63,0
375632,note_off,,,,,0,0,1,,,,0,,,67,0
375632,note_off,,,,,0,0,1,,,,0,,,70,0
375808,control_change,,,,,0,0,1,,,,0,64,0,,
375808,control_change,,,,,176,0,1,,,,0,64,0,,
375808,set_tempo,,,,,256,1,0,,600000,,,,,,
375808,control_change,,,,,0,0,1,,,,0,64,0,,
375808,note_on,,,,,0,0,1,,,,0,,,64,43
375808,note_on,,,,,0,0,1,,,,0,,,69,55
375808,note_on,,,,,0,0,1,,,,0,,,48,62
375808,control_change,,,,,0,0,1,,,,0,64,0,,
375808,control_change,,,,,0,0,1,,,,0,64,0,,
375888,note_off,,,,,80,0,1,,,,0,,,75,0
375975,control_change,,,,,87,0,1,,,,0,64,127,,
376064,note_on,,,,,89,0,1,,,,0,,,76,55
376064,set_tempo,,,,,256,1,0,,461538,,,,,,
376064,note_on,,,,,0,0,1,,,,0,,,47,63
376064,note_off,,,,,0,0,1,,,,0,,,48,0
376144,note_off,,,,,80,0,1,,,,0,,,64,0
376144,note_off,,,,,0,0,1,,,,0,,,69,0
376320,note_on,,,,,176,0,1,,,,0,,,64,44
376320,note_on,,,,,0,0,1,,,,0,,,69,56
376320,note_on,,,,,0,0,1,,,,0,,,48,65
376320,note_off,,,,,0,0,1,,,,0,,,47,0
376400,note_off,,,,,80,0,1,,,,0,,,76,0
376576,note_off,,,,,0,0,1,,,,0,,,48,0
376576,note_on,,,,,0,0,1,,,,0,,,49,66
376576,note_on,,,,,176,0,1,,,,0,,,76,56
376656,note_off,,,,,0,0,1,,,,0,,,69,0
376656,note_off,,,,,80,0,1,,,,0,,,64,0
376832,note_off,,,,,0,0,1,,,,0,,,49,0
376832,note_on,,,,,0,0,1,,,,0,,,50,67
376832,note_on,,,,,176,0,1,,,,0,,,64,45
376832,note_on,,,,,0,0,1,,,,0,,,69,57
376912,note_off,,,,,80,0,1,,,,0,,,76,0
377088,note_off,,,,,0,0,1,,,,0,,,50,0
377088,note_on,,,,,176,0,1,,,,0,,,76,58
377088,note_on,,,,,0,0,1,,,,0,,,51,69
377168,note_off,,,,,0,0,1,,,,0,,,69,0
377168,note_off,,,,,80,0,1,,,,0,,,64,0
377229,control_change,,,,,61,0,1,,,,0,64,0,,
377344,note_on,,,,,115,0,1,,,,0,,,64,46
377344,note_on,,,,,0,0,1,,,,0,,,68,58
377344,note_off,,,,,0,0,1,,,,0,,,51,0
377344,note_on,,,,,0,0,1,,,,0,,,71,46
377344,note_on,,,,,0,0,1,,,,0,,,52,70
377424,note_off,,,,,80,0,1,,,,0,,,76,0
377487,control_change,,,,,63,0,1,,,,0,64,127,,
377518,note_off,,,,,31,0,1,,,,0,,,52,0
377600,note_on,,,,,0,0,1,,,,0,,,68,48
377600,note_on,,,,,0,0,1,,,,0,,,76,57
377600,set_tempo,,,,,1536,1,0,,666666,,,,,,
377600,note_on,,,,,82,0,1,,,,0,,,64,48
377680,note_off,,,,,80,0,1,,,,0,,,64,0
377680,note_off,,,,,0,0,1,,,,0,,,71,0
377680,note_off,,,,,0,0,1,,,,0,,,68,0
377767,note_off,,,,,87,0,1,,,,0,,,64,0
377767,note_off,,,,,0,0,1,,,,0,,,68,0
377767,note_off,,,,,0,0,1,,,,0,,,76,0
377856,set_tempo,,,,,256,1,0,,461538,,,,,,
377856,note_on,,,,,89,0,1,,,,0,,,65,58
377856,note_on,,,,,0,0,1,,,,0,,,41,43
377856,note_on,,,,,0,0,1,,,,0,,,53,55
377882,control_change,,,,,26,0,1,,,,0,64,0,,
378025,control_change,,,,,143,0,1,,,,0,64,127,,
378112,note_on,,,,,87,0,1,,,,0,,,77,59
378192,note_off,,,,,80,0,1,,,,0,,,65,0
378368,note_on,,,,,0,0,1,,,,0,,,54,57
378368,note_on,,,,,0,0,1,,,,0,,,42,45
378368,note_off,,,,,0,0,1,,,,0,,,53,0
378368,note_off,,,,,0,0,1,,,,0,,,41,0
378368,note_on,,,,,176,0,1,,,,0,,,66,61
378437,control_change,,,,,69,0,1,,,,0,64,0,,
378448,note_off,,,,,11,0,1,,,,0,,,77,0
378563,control_change,,,,,115,0,1,,,,0,64,127,,
378624,note_on,,,,,61,0,1,,,,0,,,78,62
378704,note_off,,,,,80,0,1,,,,0,,,66,0
378880,control_change,,,,,0,0,1,,,,0,64,127,,
378880,note_off,,,,,0,0,1,,,,0,,,42,0
378880,note_off,,,,,0,0,1,,,,0,,,54,0
378880,note_on,,,,,0,0,1,,,,0,,,67,63
378880,note_on,,,,,0,0,1,,,,0,,,43,47
378880,note_on,,,,,0,0,1,,,,0,,,55,59
378880,set_tempo,,,,,1024,1,0,,500000,,,,,,
378880,control_change,,,,,176,0,1,,,,0,64,0,,
378960,note_off,,,,,80,0,1,,,,0,,,78,0
378994,control_change,,,,,34,0,1,,,,0,64,0,,
379136,note_on,,,,,142,0,1,,,,0,,,79,64
379164,control_change,,,,,28,0,1,,,,0,64,127,,
379186,note_off,,,,,22,0,1,,,,0,,,67,0
379392,note_off,,,,,0,0,1,,,,0,,,43,0
379392,note_on,,,,,206,0,1,,,,0,,,68,65
379392,note_off,,,,,0,0,1,,,,0,,,55,0
379392,set_tempo,,,,,512,1,0,,461538,,,,,,
379392,note_on,,,,,0,0,1,,,,0,,,56,61
379392,note_on,,,,,0,0,1,,,,0,,,44,49
379442,note_off,,,,,50,0,1,,,,0,,,79,0
379449,control_change,,,,,7,0,1,,,,0,64,0,,
379582,control_change,,,,,133,0,1,,,,0,64,127,,
379648,note_on,,,,,66,0,1,,,,0,,,80,66
379698,note_off,,,,,50,0,1,,,,0,,,68,0
379904,note_on,,,,,206,0,1,,,,0,,,69,68
379904,note_off,,,,,0,0,1,,,,0,,,44,0
379904,note_off,,,,,0,0,1,,,,0,,,56,0
379904,note_on,,,,,0,0,1,,,,0,,,45,50
379904,note_on,,,,,0,0,1,,,,0,,,57,62
379942,control_change,,,,,38,0,1,,,,0,64,0,,
379954,note_off,,,,,12,0,1,,,,0,,,80,0
380094,control_change,,,,,140,0,1,,,,0,64,127,,
380160,note_on,,,,,66,0,1,,,,0,,,81,69
380210,note_off,,,,,50,0,1,,,,0,,,69,0
380416,note_on,,,,,0,0,1,,,,0,,,58,64
380416,note_on,,,,,0,0,1,,,,0,,,46,52
380416,note_off,,,,,0,0,1,,,,0,,,57,0
380416,note_on,,,,,206,0,1,,,,0,,,70,70
380416,note_off,,,,,0,0,1,,,,0,,,45,0
380454,control_change,,,,,38,0,1,,,,0,64,0,,
380466,note_off,,,,,12,0,1,,,,0,,,81,0
380663,control_change,,,,,197,0,1,,,,0,64,127,,
380672,note_on,,,,,9,0,1,,,,0,,,82,71
380722,note_off,,,,,50,0,1,,,,0,,,70,0
380928,note_on,,,,,0,0,1,,,,0,,,59,66
380928,note_on,,,,,0,0,1,,,,0,,,47,54
380928,note_off,,,,,0,0,1,,,,0,,,58,0
380928,note_on,,,,,206,0,1,,,,0,,,71,72
380928,note_off,,,,,0,0,1,,,,0,,,46,0
380966,control_change,,,,,38,0,1,,,,0,64,0,,
380978,note_off,,,,,12,0,1,,,,0,,,82,0
381118,control_change,,,,,140,0,1,,,,0,64,127,,
381184,note_on,,,,,66,0,1,,,,0,,,83,73
381234,note_off,,,,,50,0,1,,,,0,,,71,0
381440,note_off,,,,,0,0,1,,,,0,,,59,0
381440,note_off,,,,,0,0,1,,,,0,,,47,0
381440,note_on,,,,,206,0,1,,,,0,,,74,75
381440,note_on,,,,,0,0,1,,,,0,,,50,56
381440,note_on,,,,,0,0,1,,,,0,,,62,68
381490,note_off,,,,,50,0,1,,,,0,,,83,0
381614,note_off,,,,,124,0,1,,,,0,,,50,0
381614,note_off,,,,,0,0,1,,,,0,,,62,0
381696,note_on,,,,,82,0,1,,,,0,,,86,76
381696,set_tempo,,,,,2304,1,0,,625000,,,,,,
381746,note_off,,,,,50,0,1,,,,0,,,74,0
381833,note_off,,,,,87,0,1,,,,0,,,86,0
381952,set_tempo,,,,,256,1,0,,705882,,,,,,
381952,control_change,,,,,119,0,1,,,,0,64,0,,
381952,control_change,,,,,0,0,1,,,,0,64,127,,
381952,note_on,,,,,0,0,1,,,,0,,,89,77
381952,note_on,,,,,0,0,1,,,,0,,,55,56
381952,note_on,,,,,0,0,1,,,,0,,,59,56
381952,note_on,,,,,0,0,1,,,,0,,,62,56
381952,note_on,,,,,0,0,1,,,,0,,,65,68
382063,control_change,,,,,111,0,1,,,,0,64,0,,
382156,control_change,,,,,93,0,1,,,,0,64,127,,
382208,set_tempo,,,,,256,1,0,,461538,,,,,,
382208,note_on,,,,,52,0,1,,,,0,,,88,76
382258,note_off,,,,,50,0,1,,,,0,,,89,0
382464,note_on,,,,,206,0,1,,,,0,,,89,75
382464,note_off,,,,,0,0,1,,,,0,,,55,0
382464,note_off,,,,,0,0,1,,,,0,,,59,0
382464,note_off,,,,,0,0,1,,,,0,,,62,0
382464,note_off,,,,,0,0,1,,,,0,,,65,0
382464,note_on,,,,,0,0,1,,,,0,,,55,54
382464,note_on,,,,,0,0,1,,,,0,,,59,54
382464,note_on,,,,,0,0,1,,,,0,,,62,54
382464,note_on,,,,,0,0,1,,,,0,,,65,66
382514,note_off,,,,,50,0,1,,,,0,,,88,0
382720,note_on,,,,,206,0,1,,,,0,,,88,75
382770,note_off,,,,,50,0,1,,,,0,,,89,0
382976,note_on,,,,,0,0,1,,,,0,,,62,53
382976,note_on,,,,,0,0,1,,,,0,,,65,65
382976,note_on,,,,,0,0,1,,,,0,,,59,53
382976,note_off,,,,,0,0,1,,,,0,,,65,0
382976,note_on,,,,,0,0,1,,,,0,,,55,53
382976,note_off,,,,,0,0,1,,,,0,,,59,0
382976,note_off,,,,,0,0,1,,,,0,,,55,0
382976,note_on,,,,,206,0,1,,,,0,,,89,74
382976,note_off,,,,,0,0,1,,,,0,,,62,0
383026,note_off,,,,,50,0,1,,,,0,,,88,0
383232,note_on,,,,,206,0,1,,,,0,,,88,73
383282,note_off,,,,,50,0,1,,,,0,,,89,0
383488,note_on,,,,,0,0,1,,,,0,,,65,67
383488,note_on,,,,,0,0,1,,,,0,,,59,55
383488,note_on,,,,,0,0,1,,,,0,,,62,55
383488,note_off,,,,,0,0,1,,,,0,,,65,0
383488,note_on,,,,,0,0,1,,,,0,,,56,64
383488,note_off,,,,,0,0,1,,,,0,,,59,0
383488,note_off,,,,,0,0,1,,,,0,,,55,0
383488,note_on,,,,,206,0,1,,,,0,,,89,72
383488,note_off,,,,,0,0,1,,,,0,,,62,0
383507,control_change,,,,,19,0,1,,,,0,64,0,,
383538,note_off,,,,,31,0,1,,,,0,,,88,0
383655,control_change,,,,,117,0,1,,,,0,64,127,,
383744,note_on,,,,,89,0,1,,,,0,,,88,71
383794,note_off,,,,,50,0,1,,,,0,,,89,0
384000,note_on,,,,,0,0,1,,,,0,,,65,62
384000,note_on,,,,,0,0,1,,,,0,,,62,50
384000,note_on,,,,,0,0,1,,,,0,,,59,50
384000,note_off,,,,,0,0,1,,,,0,,,65,0
384000,note_on,,,,,0,0,1,,,,0,,,56,59
384000,note_off,,,,,0,0,1,,,,0,,,59,0
384000,note_off,,,,,0,0,1,,,,0,,,56,0
384000,note_on,,,,,206,0,1,,,,0,,,89,70
384000,note_off,,,,,0,0,1,,,,0,,,62,0
384050,note_off,,,,,50,0,1,,,,0,,,88,0
384256,note_on,,,,,206,0,1,,,,0,,,88,70
384306,note_off,,,,,50,0,1,,,,0,,,89,0
384512,note_on,,,,,0,0,1,,,,0,,,59,48
384512,note_on,,,,,0,0,1,,,,0,,,56,57
384512,note_off,,,,,0,0,1,,,,0,,,65,0
384512,note_off,,,,,0,0,1,,,,0,,,62,0
384512,note_on,,,,,206,0,1,,,,0,,,89,72
384512,note_off,,,,,0,0,1,,,,0,,,56,0
384512,note_on,,,,,0,0,1,,,,0,,,62,48
384512,note_off,,,,,0,0,1,,,,0,,,59,0
384512,note_on,,,,,0,0,1,,,,0,,,65,60
384562,note_off,,,,,50,0,1,,,,0,,,88,0
384768,note_on,,,,,206,0,1,,,,0,,,88,74
384818,note_off,,,,,50,0,1,,,,0,,,89,0
385024,control_change,,,,,206,0,1,,,,0,64,0,,
385024,control_change,,,,,0,0,1,,,,0,64,127,,
385024,note_off,,,,,0,0,1,,,,0,,,56,0
385024,note_off,,,,,0,0,1,,,,0,,,59,0
385024,note_off,,,,,0,0,1,,,,0,,,62,0
385024,note_off,,,,,0,0,1,,,,0,,,65,0
385024,note_on,,,,,0,0,1,,,,0,,,89,75
385024,note_on,,,,,0,0,1,,,,0,,,55,45
385024,note_on,,,,,0,0,1,,,,0,,,59,45
385024,note_on,,,,,0,0,1,,,,0,,,62,45
385024,note_on,,,,,0,0,1,,,,0,,,65,57
385074,note_off,,,,,50,0,1,,,,0,,,88,0
385129,control_change,,,,,55,0,1,,,,0,64,0,,
385268,control_change,,,,,139,0,1,,,,0,64,127,,
385280,note_on,,,,,12,0,1,,,,0,,,88,68
385330,note_off,,,,,50,0,1,,,,0,,,89,0
385536,note_on,,,,,206,0,1,,,,0,,,86,67
385536,note_off,,,,,0,0,1,,,,0,,,55,0
385536,note_off,,,,,0,0,1,,,,0,,,59,0
385536,note_off,,,,,0,0,1,,,,0,,,62,0
385536,note_off,,,,,0,0,1,,,,0,,,65,0
385536,note_on,,,,,0,0,1,,,,0,,,55,42
385536,note_on,,,,,0,0,1,,,,0,,,59,42
385536,note_on,,,,,0,0,1,,,,0,,,62,42
385536,note_on,,,,,0,0,1,,,,0,,,65,54
385586,note_off,,,,,50,0,1,,,,0,,,88,0
385792,note_on,,,,,206,0,1,,,,0,,,84,65
385842,note_off,,,,,50,0,1,,,,0,,,86,0
386048,note_on,,,,,0,0,1,,,,0,,,59,39
386048,note_on,,,,,0,0,1,,,,0,,,55,39
386048,note_on,,,,,0,0,1,,,,0,,,65,51
386048,note_off,,,,,0,0,1,,,,0,,,65,0
386048,note_on,,,,,0,0,1,,,,0,,,62,39
386048,note_off,,,,,0,0,1,,,,0,,,59,0
386048,note_on,,,,,206,0,1,,,,0,,,83,63
386048,note_off,,,,,0,0,1,,,,0,,,62,0
386048,note_off,,,,,0,0,1,,,,0,,,55,0
386098,note_off,,,,,50,0,1,,,,0,,,84,0
386304,note_on,,,,,206,0,1,,,,0,,,81,62
386354,note_off,,,,,50,0,1,,,,0,,,83,0
386525,control_change,,,,,171,0,1,,,,0,64,0,,
386560,note_on,,,,,35,0,1,,,,0,,,79,60
386560,note_off,,,,,0,0,1,,,,0,,,55,0
386560,note_off,,,,,0,0,1,,,,0,,,59,0
386560,note_off,,,,,0,0,1,,,,0,,,62,0
386560,note_off,,,,,0,0,1,,,,0,,,65,0
386560,note_on,,,,,0,0,1,,,,0,,,55,35
386560,note_on,,,,,0,0,1,,,,0,,,59,35
386560,note_on,,,,,0,0,1,,,,0,,,62,35
386560,note_on,,,,,0,0,1,,,,0,,,65,47
386610,note_off,,,,,50,0,1,,,,0,,,81,0
386816,note_on,,,,,206,0,1,,,,0,,,77,58
386866,note_off,,,,,50,0,1,,,,0,,,79,0
387072,note_on,,,,,0,0,1,,,,0,,,59,32
387072,note_on,,,,,206,0,1,,,,0,,,76,57
387072,note_off,,,,,0,0,1,,,,0,,,55,0
387072,note_off,,,,,0,0,1,,,,0,,,59,0
387072,note_off,,,,,0,0,1,,,,0,,,62,0
387072,note_off,,,,,0,0,1,,,,0,,,65,0
387072,note_on,,,,,0,0,1,,,,0,,,55,32
387072,note_on,,,,,0,0,1,,,,0,,,62,32
387072,note_on,,,,,0,0,1,,,,0,,,65,44
387122,note_off,,,,,50,0,1,,,,0,,,77,0
387328,note_on,,,,,206,0,1,,,,0,,,74,55
387378,note_off,,,,,50,0,1,,,,0,,,76,0
387584,note_on,,,,,0,0,1,,,,0,,,55,29
387584,note_on,,,,,0,0,1,,,,0,,,62,29
387584,note_off,,,,,0,0,1,,,,0,,,65,0
387584,note_on,,,,,0,0,1,,,,0,,,59,29
387584,note_on,,,,,0,0,1,,,,0,,,65,41
387584,note_off,,,,,0,0,1,,,,0,,,62,0
387584,note_off,,,,,0,0,1,,,,0,,,55,0
387584,note_on,,,,,206,0,1,,,,0,,,72,53
387584,note_off,,,,,0,0,1,,,,0,,,59,0
387634,note_off,,,,,50,0,1,,,,0,,,74,0
387840,note_on,,,,,206,0,1,,,,0,,,71,52
387890,note_off,,,,,50,0,1,,,,0,,,72,0
388096,note_on,,,,,0,0,1,,,,0,,,50,26
388096,note_on,,,,,0,0,1,,,,0,,,47,26
388096,note_on,,,,,0,0,1,,,,0,,,43,26
388096,note_on,,,,,0,0,1,,,,0,,,69,50
388096,note_off,,,,,0,0,1,,,,0,,,65,0
388096,note_on,,,,,0,0,1,,,,0,,,53,38
388096,note_off,,,,,0,0,1,,,,0,,,59,0
388096,note_off,,,,,0,0,1,,,,0,,,55,0
388096,control_change,,,,,0,0,1,,,,0,64,0,,
388096,control_change,,,,,206,0,1,,,,0,64,0,,
388096,note_off,,,,,0,0,1,,,,0,,,62,0
388146,note_off,,,,,50,0,1,,,,0,,,71,0
388352,note_on,,,,,206,0,1,,,,0,,,67,48
388402,note_off,,,,,50,0,1,,,,0,,,69,0
388608,note_on,,,,,0,0,1,,,,0,,,53,35
388608,note_on,,,,,0,0,1,,,,0,,,50,23
388608,note_on,,,,,0,0,1,,,,0,,,47,23
388608,note_on,,,,,0,0,1,,,,0,,,43,23
388608,note_off,,,,,0,0,1,,,,0,,,53,0
388608,note_off,,,,,0,0,1,,,,0,,,47,0
388608,note_off,,,,,0,0,1,,,,0,,,43,0
388608,note_on,,,,,206,0,1,,,,0,,,65,47
388608,note_off,,,,,0,0,1,,,,0,,,50,0
388658,note_off,,,,,50,0,1,,,,0,,,67,0
388864,note_on,,,,,206,0,1,,,,0,,,64,45
388914,note_off,,,,,50,0,1,,,,0,,,65,0
389120,note_on,,,,,0,0,1,,,,0,,,53,32
389120,note_on,,,,,0,0,1,,,,0,,,47,20
389120,note_on,,,,,0,0,1,,,,0,,,50,20
389120,note_on,,,,,0,0,1,,,,0,,,43,20
389120,note_off,,,,,0,0,1,,,,0,,,53,0
389120,note_off,,,,,0,0,1,,,,0,,,47,0
389120,note_off,,,,,0,0,1,,,,0,,,43,0
389120,note_on,,,,,206,0,1,,,,0,,,62,43
389120,note_off,,,,,0,0,1,,,,0,,,50,0
389170,note_off,,,,,50,0,1,,,,0,,,64,0
389376,note_on,,,,,206,0,1,,,,0,,,60,42
389426,note_off,,,,,50,0,1,,,,0,,,62,0
389632,note_on,,,,,0,0,1,,,,0,,,43,28
389632,note_off,,,,,0,0,1,,,,0,,,50,0
389632,note_off,,,,,0,0,1,,,,0,,,53,0
389632,note_off,,,,,0,0,1,,,,0,,,43,0
389632,note_on,,,,,206,0,1,,,,0,,,59,40
389632,note_off,,,,,0,0,1,,,,0,,,47,0
389682,note_off,,,,,50,0,1,,,,0,,,60,0
389888,note_on,,,,,206,0,1,,,,0,,,57,38
389938,note_off,,,,,50,0,1,,,,0,,,59,0
390144,note_on,,,,,206,0,1,,,,0,,,55,37
390144,note_off,,,,,0,0,1,,,,0,,,43,0
390144,note_on,,,,,0,0,1,,,,0,,,43,25
390194,note_off,,,,,50,0,1,,,,0,,,57,0
390400,note_on,,,,,206,0,1,,,,0,,,53,35
390450,note_off,,,,,50,0,1,,,,0,,,55,0
390656,note_on,,,,,206,0,1,,,,0,,,52,33
390656,note_off,,,,,0,0,1,,,,0,,,43,0
390656,note_on,,,,,0,0,1,,,,0,,,43,22
390706,note_off,,,,,50,0,1,,,,0,,,53,0
390912,note_on,,,,,206,0,1,,,,0,,,50,32
390962,note_off,,,,,50,0,1,,,,0,,,52,0
391168,set_tempo,,,,,8960,1,0,,500000,,,,,,
391168,control_change,,,,,206,0,1,,,,0,64,0,,
391168,control_change,,,,,0,0,1,,,,0,64,0,,
391168,control_change,,,,,0,0,1,,,,0,64,0,,
391168,control_change,,,,,0,0,1,,,,0,64,0,,
391168,note_off,,,,,0,0,1,,,,0,,,43,0
391168,note_on,,,,,0,0,1,,,,0,,,36,22
391168,note_on,,,,,0,0,1,,,,0,,,48,28
391218,note_off,,,,,50,0,1,,,,0,,,50,0
391422,control_change,,,,,204,0,1,,,,0,64,127,,
391424,note_on,,,,,2,0,1,,,,0,,,43,22
391424,set_tempo,,,,,256,1,0,,461538,,,,,,
391504,note_off,,,,,80,0,1,,,,0,,,36,0
391680,note_on,,,,,176,0,1,,,,0,,,36,22
391760,note_off,,,,,80,0,1,,,,0,,,43,0
391936,note_on,,,,,176,0,1,,,,0,,,43,22
392016,note_off,,,,,80,0,1,,,,0,,,36,0
392192,note_on,,,,,176,0,1,,,,0,,,36,22
392272,note_off,,,,,80,0,1,,,,0,,,43,0
392448,note_on,,,,,176,0,1,,,,0,,,43,22
392450,control_change,,,,,2,0,1,,,,0,64,127,,
392528,note_off,,,,,78,0,1,,,,0,,,36,0
392704,note_off,,,,,176,0,1,,,,0,,,48,0
392704,note_on,,,,,0,0,1,,,,0,,,72,28
392704,note_on,,,,,0,0,1,,,,0,,,76,43
392704,note_on,,,,,0,0,1,,,,0,,,36,22
392784,note_off,,,,,80,0,1,,,,0,,,43,0
392960,note_on,,,,,176,0,1,,,,0,,,43,22
393040,note_off,,,,,80,0,1,,,,0,,,36,0
393216,note_on,,,,,176,0,1,,,,0,,,36,22
393296,note_off,,,,,80,0,1,,,,0,,,43,0
393472,note_on,,,,,176,0,1,,,,0,,,43,22
393552,note_off,,,,,80,0,1,,,,0,,,36,0
393728,note_on,,,,,176,0,1,,,,0,,,36,22
393808,note_off,,,,,80,0,1,,,,0,,,43,0
393820,control_change,,,,,12,0,1,,,,0,64,127,,
393984,note_on,,,,,164,0,1,,,,0,,,43,22
394064,note_off,,,,,80,0,1,,,,0,,,36,0
394240,note_on,,,,,0,0,1,,,,0,,,76,44
394240,note_on,,,,,0,0,1,,,,0,,,36,22
394240,note_on,,,,,0,0,1,,,,0,,,72,28
394240,control_change,,,,,0,0,1,,,,0,64,0,,
394240,note_off,,,,,0,0,1,,,,0,,,72,0
394240,control_change,,,,,0,0,1,,,,0,64,0,,
394240,control_change,,,,,0,0,1,,,,0,64,0,,
394240,control_change,,,,,176,0,1,,,,0,64,0,,
394240,note_off,,,,,0,0,1,,,,0,,,76,0
394240,set_tempo,,,,,2816,1,0,,545454,,,,,,
394320,note_off,,,,,80,0,1,,,,0,,,43,0
394347,control_change,,,,,27,0,1,,,,0,64,0,,
394496,note_on,,,,,149,0,1,,,,0,,,43,22
394496,set_tempo,,,,,256,1,0,,461538,,,,,,
394539,control_change,,,,,43,0,1,,,,0,64,127,,
394576,note_off,,,,,37,0,1,,,,0,,,36,0
394752,note_on,,,,,176,0,1,,,,0,,,36,22
394832,note_off,,,,,80,0,1,,,,0,,,43,0
395008,note_on,,,,,176,0,1,,,,0,,,43,22
395088,note_off,,,,,80,0,1,,,,0,,,36,0
395264,note_on,,,,,176,0,1,,,,0,,,36,22
395344,note_off,,,,,80,0,1,,,,0,,,43,0
395520,note_on,,,,,176,0,1,,,,0,,,43,22
395600,note_off,,,,,80,0,1,,,,0,,,36,0
395776,note_off,,,,,176,0,1,,,,0,,,72,0
395776,note_off,,,,,0,0,1,,,,0,,,76,0
395776,note_on,,,,,0,0,1,,,,0,,,76,43
395776,note_on,,,,,0,0,1,,,,0,,,72,28
395776,note_on,,,,,0,0,1,,,,0,,,36,22
395856,note_off,,,,,80,0,1,,,,0,,,43,0
396032,note_on,,,,,176,0,1,,,,0,,,43,22
396112,note_off,,,,,80,0,1,,,,0,,,36,0
396288,note_on,,,,,176,0,1,,,,0,,,36,22
396368,note_off,,,,,80,0,1,,,,0,,,43,0
396544,note_on,,,,,176,0,1,,,,0,,,43,22
396624,note_off,,,,,80,0,1,,,,0,,,36,0
396800,note_on,,,,,176,0,1,,,,0,,,36,22
396880,note_off,,,,,80,0,1,,,,0,,,43,0
397056,note_on,,,,,176,0,1,,,,0,,,43,22
397136,note_off,,,,,80,0,1,,,,0,,,36,0
397150,control_change,,,,,14,0,1,,,,0,64,0,,
397312,note_on,,,,,0,0,1,,,,0,,,36,22
397312,set_tempo,,,,,2816,1,0,,545454,,,,,,
397312,note_on,,,,,0,0,1,,,,0,,,76,33
397312,note_off,,,,,0,0,1,,,,0,,,72,0
397312,note_off,,,,,0,0,1,,,,0,,,76,0
397312,control_change,,,,,0,0,1,,,,0,64,0,,
397312,control_change,,,,,0,0,1,,,,0,64,0,,
397312,control_change,,,,,162,0,1,,,,0,64,0,,
397312,note_on,,,,,0,0,1,,,,0,,,72,22
397312,control_change,,,,,0,0,1,,,,0,64,0,,
397392,note_off,,,,,80,0,1,,,,0,,,43,0
397494,control_change,,,,,102,0,1,,,,0,64,127,,
397568,note_on,,,,,74,0,1,,,,0,,,71,20
397568,note_on,,,,,0,0,1,,,,0,,,75,32
397568,note_on,,,,,0,0,1,,,,0,,,43,23
397568,set_tempo,,,,,256,1,0,,461538,,,,,,
397598,note_off,,,,,0,0,1,,,,0,,,76,0
397598,note_off,,,,,30,0,1,,,,0,,,72,0
397648,note_off,,,,,50,0,1,,,,0,,,36,0
397824,note_on,,,,,0,0,1,,,,0,,,36,24
397824,note_on,,,,,176,0,1,,,,0,,,72,23
397824,note_on,,,,,0,0,1,,,,0,,,76,36
397854,note_off,,,,,0,0,1,,,,0,,,75,0
397854,note_off,,,,,30,0,1,,,,0,,,71,0
397878,control_change,,,,,24,0,1,,,,0,64,0,,
397904,note_off,,,,,26,0,1,,,,0,,,43,0
398040,control_change,,,,,136,0,1,,,,0,64,127,,
398080,note_on,,,,,0,0,1,,,,0,,,43,25
398080,note_on,,,,,0,0,1,,,,0,,,75,35
398080,note_on,,,,,40,0,1,,,,0,,,71,22
398110,note_off,,,,,0,0,1,,,,0,,,76,0
398110,note_off,,,,,30,0,1,,,,0,,,72,0
398160,note_off,,,,,50,0,1,,,,0,,,36,0
398336,note_on,,,,,176,0,1,,,,0,,,72,26
398336,note_on,,,,,0,0,1,,,,0,,,76,40
398336,note_on,,,,,0,0,1,,,,0,,,36,26
398366,note_off,,,,,30,0,1,,,,0,,,71,0
398366,note_off,,,,,0,0,1,,,,0,,,75,0
398444,control_change,,,,,78,0,1,,,,0,64,0,,
398592,note_on,,,,,0,0,1,,,,0,,,75,38
398592,note_on,,,,,0,0,1,,,,0,,,43,33
398592,note_off,,,,,0,0,1,,,,0,,,43,0
398592,note_on,,,,,148,0,1,,,,0,,,71,23
398605,control_change,,,,,13,0,1,,,,0,64,127,,
398622,note_off,,,,,17,0,1,,,,0,,,72,0
398622,note_off,,,,,0,0,1,,,,0,,,76,0
398672,note_off,,,,,50,0,1,,,,0,,,36,0
398848,note_on,,,,,176,0,1,,,,0,,,72,28
398848,note_on,,,,,0,0,1,,,,0,,,76,43
398848,note_on,,,,,0,0,1,,,,0,,,36,29
398878,note_off,,,,,0,0,1,,,,0,,,75,0
398878,note_off,,,,,30,0,1,,,,0,,,71,0
398909,control_change,,,,,31,0,1,,,,0,64,0,,
399104,note_on,,,,,0,0,1,,,,0,,,75,41
399104,note_on,,,,,195,0,1,,,,0,,,71,27
399104,note_off,,,,,0,0,1,,,,0,,,43,0
399104,note_on,,,,,0,0,1,,,,0,,,44,39
399134,note_off,,,,,30,0,1,,,,0,,,72,0
399134,note_off,,,,,0,0,1,,,,0,,,76,0
399184,note_off,,,,,50,0,1,,,,0,,,36,0
399360,note_on,,,,,176,0,1,,,,0,,,72,26
399360,note_on,,,,,0,0,1,,,,0,,,76,40
399360,note_on,,,,,0,0,1,,,,0,,,36,27
399390,note_off,,,,,30,0,1,,,,0,,,71,0
399390,note_off,,,,,0,0,1,,,,0,,,75,0
399616,note_on,,,,,0,0,1,,,,0,,,44,35
399616,note_on,,,,,226,0,1,,,,0,,,74,26
399616,note_on,,,,,0,0,1,,,,0,,,77,38
399616,note_off,,,,,0,0,1,,,,0,,,44,0
399646,note_off,,,,,0,0,1,,,,0,,,76,0
399646,note_off,,,,,30,0,1,,,,0,,,72,0
399696,note_off,,,,,50,0,1,,,,0,,,36,0
399872,note_on,,,,,176,0,1,,,,0,,,72,24
399872,note_on,,,,,0,0,1,,,,0,,,36,24
399872,note_on,,,,,0,0,1,,,,0,,,76,36
399902,note_off,,,,,0,0,1,,,,0,,,77,0
399902,note_off,,,,,30,0,1,,,,0,,,74,0
400128,note_on,,,,,0,0,1,,,,0,,,75,34
400128,note_on,,,,,226,0,1,,,,0,,,71,22
400128,note_on,,,,,0,0,1,,,,0,,,44,32
400128,note_off,,,,,0,0,1,,,,0,,,44,0
400158,note_off,,,,,0,0,1,,,,0,,,76,0
400158,note_off,,,,,30,0,1,,,,0,,,72,0
400208,note_off,,,,,50,0,1,,,,0,,,36,0
400384,note_on,,,,,0,0,1,,,,0,,,72,30
400384,note_on,,,,,0,0,1,,,,0,,,76,44
400384,set_tempo,,,,,2816,1,0,,545454,,,,,,
400384,control_change,,,,,176,0,1,,,,0,64,0,,
400384,control_change,,,,,0,0,1,,,,0,64,0,,
400384,note_on,,,,,0,0,1,,,,0,,,36,22
400414,note_off,,,,,30,0,1,,,,0,,,71,0
400414,note_off,,,,,0,0,1,,,,0,,,75,0
400464,note_off,,,,,50,0,1,,,,0,,,44,0
400597,control_change,,,,,133,0,1,,,,0,64,127,,
400640,note_on,,,,,43,0,1,,,,0,,,43,22
400700,note_off,,,,,60,0,1,,,,0,,,36,0
400896,note_on,,,,,0,0,1,,,,0,,,36,22
400896,set_tempo,,,,,512,1,0,,500000,,,,,,
400896,note_on,,,,,0,0,1,,,,0,,,79,47
400896,note_on,,,,,196,0,1,,,,0,,,71,29
400936,note_off,,,,,0,0,1,,,,0,,,76,0
400936,note_off,,,,,40,0,1,,,,0,,,72,0
400956,note_off,,,,,20,0,1,,,,0,,,43,0
401152,note_on,,,,,196,0,1,,,,0,,,43,22
401212,note_off,,,,,60,0,1,,,,0,,,36,0
401408,set_tempo,,,,,512,1,0,,461538,,,,,,
401408,note_on,,,,,196,0,1,,,,0,,,69,25
401408,note_on,,,,,0,0,1,,,,0,,,36,22
401408,note_on,,,,,0,0,1,,,,0,,,72,39
401448,note_off,,,,,0,0,1,,,,0,,,79,0
401448,note_off,,,,,40,0,1,,,,0,,,71,0
401468,note_off,,,,,20,0,1,,,,0,,,43,0
401664,note_on,,,,,196,0,1,,,,0,,,43,22
401724,note_off,,,,,60,0,1,,,,0,,,36,0
401920,note_on,,,,,0,0,1,,,,0,,,36,22
401920,note_on,,,,,0,0,1,,,,0,,,76,43
401920,note_on,,,,,196,0,1,,,,0,,,67,26
401941,control_change,,,,,21,0,1,,,,0,64,0,,
401960,note_off,,,,,19,0,1,,,,0,,,69,0
401960,note_off,,,,,0,0,1,,,,0,,,72,0
401980,note_off,,,,,20,0,1,,,,0,,,43,0
402133,control_change,,,,,153,0,1,,,,0,64,127,,
402176,note_on,,,,,43,0,1,,,,0,,,43,22
402236,note_off,,,,,60,0,1,,,,0,,,36,0
402432,note_on,,,,,0,0,1,,,,0,,,36,22
402432,note_on,,,,,0,0,1,,,,0,,,69,39
402432,note_on,,,,,196,0,1,,,,0,,,65,25
402472,note_off,,,,,40,0,1,,,,0,,,67,0
402472,note_off,,,,,0,0,1,,,,0,,,76,0
402492,note_off,,,,,20,0,1,,,,0,,,43,0
402539,control_change,,,,,47,0,1,,,,0,64,0,,
402688,note_on,,,,,149,0,1,,,,0,,,43,22
402748,note_off,,,,,60,0,1,,,,0,,,36,0
402752,control_change,,,,,4,0,1,,,,0,64,127,,
402944,note_on,,,,,0,0,1,,,,0,,,72,38
402944,note_on,,,,,0,0,1,,,,0,,,36,22
402944,note_on,,,,,192,0,1,,,,0,,,64,24
402984,note_off,,,,,0,0,1,,,,0,,,69,0
402984,note_off,,,,,40,0,1,,,,0,,,65,0
403004,note_off,,,,,20,0,1,,,,0,,,43,0
403136,control_change,,,,,132,0,1,,,,0,64,0,,
403200,note_on,,,,,64,0,1,,,,0,,,43,22
403260,note_off,,,,,60,0,1,,,,0,,,36,0
403328,control_change,,,,,68,0,1,,,,0,64,127,,
403456,note_on,,,,,0,0,1,,,,0,,,36,22
403456,control_change,,,,,128,0,1,,,,0,64,0,,
403456,control_change,,,,,0,0,1,,,,0,64,127,,
403456,note_on,,,,,0,0,1,,,,0,,,62,23
403456,note_on,,,,,0,0,1,,,,0,,,65,39
403456,set_tempo,,,,,2048,1,0,,500000,,,,,,
403496,note_off,,,,,40,0,1,,,,0,,,64,0
403496,note_off,,,,,0,0,1,,,,0,,,72,0
403516,note_off,,,,,20,0,1,,,,0,,,43,0
403597,control_change,,,,,81,0,1,,,,0,64,0,,
403712,note_on,,,,,115,0,1,,,,0,,,43,22
403772,note_off,,,,,60,0,1,,,,0,,,36,0
403968,note_on,,,,,0,0,1,,,,0,,,36,22
403968,note_on,,,,,0,0,1,,,,0,,,69,36
403968,note_on,,,,,196,0,1,,,,0,,,60,22
403968,set_tempo,,,,,512,1,0,,461538,,,,,,
404008,note_off,,,,,0,0,1,,,,0,,,65,0
404008,note_off,,,,,40,0,1,,,,0,,,62,0
404028,note_off,,,,,20,0,1,,,,0,,,43,0
404224,note_on,,,,,196,0,1,,,,0,,,43,22
404284,note_off,,,,,60,0,1,,,,0,,,36,0
404480,note_on,,,,,196,0,1,,,,0,,,59,21
404480,note_on,,,,,0,0,1,,,,0,,,62,35
404480,note_on,,,,,0,0,1,,,,0,,,36,22
404520,note_off,,,,,40,0,1,,,,0,,,60,0
404520,note_off,,,,,0,0,1,,,,0,,,69,0
404540,note_off,,,,,20,0,1,,,,0,,,43,0
404736,note_on,,,,,196,0,1,,,,0,,,43,22
404796,note_off,,,,,60,0,1,,,,0,,,36,0
404992,note_on,,,,,196,0,1,,,,0,,,57,19
404992,note_on,,,,,0,0,1,,,,0,,,65,33
404992,note_on,,,,,0,0,1,,,,0,,,36,22
405032,note_off,,,,,40,0,1,,,,0,,,59,0
405032,note_off,,,,,0,0,1,,,,0,,,62,0
405052,note_off,,,,,20,0,1,,,,0,,,43,0
405248,note_on,,,,,196,0,1,,,,0,,,43,22
405308,note_off,,,,,60,0,1,,,,0,,,36,0
405504,set_tempo,,,,,1536,1,0,,500000,,,,,,
405504,note_on,,,,,196,0,1,,,,0,,,55,18
405504,note_on,,,,,0,0,1,,,,0,,,59,32
405504,note_on,,,,,0,0,1,,,,0,,,36,22
405544,note_off,,,,,0,0,1,,,,0,,,65,0
405544,note_off,,,,,40,0,1,,,,0,,,57,0
405564,note_off,,,,,20,0,1,,,,0,,,43,0
405760,note_on,,,,,196,0,1,,,,0,,,43,22
405820,note_off,,,,,60,0,1,,,,0,,,36,0
406016,note_on,,,,,0,0,1,,,,0,,,36,22
406016,note_on,,,,,0,0,1,,,,0,,,62,43
406016,note_on,,,,,196,0,1,,,,0,,,53,24
406016,set_tempo,,,,,512,1,0,,600000,,,,,,
406016,note_on,,,,,0,0,1,,,,0,,,44,36
406056,note_off,,,,,0,0,1,,,,0,,,59,0
406056,note_off,,,,,40,0,1,,,,0,,,55,0
406076,note_off,,,,,20,0,1,,,,0,,,43,0
406528,set_tempo,,,,,512,1,0,,500000,,,,,,
406528,note_off,,,,,0,0,1,,,,0,,,44,0
406528,note_on,,,,,0,0,1,,,,0,,,36,22
406528,note_on,,,,,0,0,1,,,,0,,,60,28
406528,note_on,,,,,0,0,1,,,,0,,,52,28
406528,note_off,,,,,0,0,1,,,,0,,,36,0
406528,control_change,,,,,0,0,1,,,,0,64,0,,
406528,control_change,,,,,0,0,1,,,,0,64,0,,
406528,control_change,,,,,0,0,1,,,,0,64,0,,
406528,control_change,,,,,0,0,1,,,,0,64,0,,
406528,control_change,,,,,0,0,1,,,,0,64,0,,
406528,control_change,,,,,452,0,1,,,,0,64,0,,
406568,note_off,,,,,40,0,1,,,,0,,,53,0
406568,note_off,,,,,0,0,1,,,,0,,,62,0
406782,control_change,,,,,214,0,1,,,,0,64,127,,
406784,set_tempo,,,,,256,1,0,,461538,,,,,,
406784,note_on,,,,,2,0,1,,,,0,,,43,29
406864,note_off,,,,,80,0,1,,,,0,,,36,0
407040,note_on,,,,,176,0,1,,,,0,,,36,22
407296,note_off,,,,,256,0,1,,,,0,,,43,0
407296,note_on,,,,,0,0,1,,,,0,,,43,26
407376,note_off,,,,,80,0,1,,,,0,,,36,0
407552,note_on,,,,,176,0,1,,,,0,,,36,22
407808,note_on,,,,,0,0,1,,,,0,,,43,26
407808,note_off,,,,,256,0,1,,,,0,,,43,0
407810,control_change,,,,,2,0,1,,,,0,64,127,,
407888,note_off,,,,,78,0,1,,,,0,,,36,0
408064,note_on,,,,,0,0,1,,,,0,,,64,40
408064,note_off,,,,,176,0,1,,,,0,,,52,0
408064,note_off,,,,,0,0,1,,,,0,,,60,0
408064,note_on,,,,,0,0,1,,,,0,,,60,25
408064,note_on,,,,,0,0,1,,,,0,,,36,22
408320,note_off,,,,,256,0,1,,,,0,,,43,0
408320,note_on,,,,,0,0,1,,,,0,,,42,31
408400,note_off,,,,,80,0,1,,,,0,,,36,0
408576,note_on,,,,,176,0,1,,,,0,,,36,22
408832,note_on,,,,,0,0,1,,,,0,,,42,26
408832,note_off,,,,,256,0,1,,,,0,,,42,0
408912,note_off,,,,,80,0,1,,,,0,,,36,0
409088,note_on,,,,,176,0,1,,,,0,,,36,22
409180,control_change,,,,,92,0,1,,,,0,64,127,,
409344,note_on,,,,,0,0,1,,,,0,,,42,26
409344,note_off,,,,,164,0,1,,,,0,,,42,0
409424,note_off,,,,,80,0,1,,,,0,,,36,0
409600,note_on,,,,,0,0,1,,,,0,,,36,22
409600,note_on,,,,,0,0,1,,,,0,,,64,44
409600,note_on,,,,,0,0,1,,,,0,,,60,28
409600,note_off,,,,,0,0,1,,,,0,,,60,0
409600,control_change,,,,,0,0,1,,,,0,64,0,,
409600,control_change,,,,,0,0,1,,,,0,64,0,,
409600,control_change,,,,,0,0,1,,,,0,64,0,,
409600,control_change,,,,,0,0,1,,,,0,64,0,,
409600,control_change,,,,,0,0,1,,,,0,64,0,,
409600,control_change,,,,,176,0,1,,,,0,64,0,,
409600,set_tempo,,,,,2816,1,0,,545454,,,,,,
409600,note_off,,,,,0,0,1,,,,0,,,64,0
409707,control_change,,,,,107,0,1,,,,0,64,0,,
409856,note_off,,,,,149,0,1,,,,0,,,42,0
409856,note_on,,,,,0,0,1,,,,0,,,43,31
409856,set_tempo,,,,,256,1,0,,461538,,,,,,
409899,control_change,,,,,43,0,1,,,,0,64,127,,
409936,note_off,,,,,37,0,1,,,,0,,,36,0
410112,note_on,,,,,176,0,1,,,,0,,,36,22
410368,note_off,,,,,256,0,1,,,,0,,,43,0
410368,note_on,,,,,0,0,1,,,,0,,,43,26
410448,note_off,,,,,80,0,1,,,,0,,,36,0
410624,note_on,,,,,176,0,1,,,,0,,,36,22
410880,note_on,,,,,0,0,1,,,,0,,,43,26
410880,note_off,,,,,256,0,1,,,,0,,,43,0
410960,note_off,,,,,80,0,1,,,,0,,,36,0
411136,note_on,,,,,0,0,1,,,,0,,,36,22
411136,note_off,,,,,176,0,1,,,,0,,,60,0
411136,note_off,,,,,0,0,1,,,,0,,,64,0
411136,note_on,,,,,0,0,1,,,,0,,,60,23
411136,note_on,,,,,0,0,1,,,,0,,,64,38
411392,note_on,,,,,0,0,1,,,,0,,,44,31
411392,note_off,,,,,256,0,1,,,,0,,,43,0
411472,note_off,,,,,80,0,1,,,,0,,,36,0
411648,note_on,,,,,176,0,1,,,,0,,,36,22
411904,note_off,,,,,256,0,1,,,,0,,,44,0
411904,note_on,,,,,0,0,1,,,,0,,,44,26
411984,note_off,,,,,80,0,1,,,,0,,,36,0
412160,note_on,,,,,176,0,1,,,,0,,,36,22
412416,note_off,,,,,256,0,1,,,,0,,,44,0
412416,note_on,,,,,0,0,1,,,,0,,,44,26
412496,note_off,,,,,80,0,1,,,,0,,,36,0
412510,control_change,,,,,14,0,1,,,,0,64,0,,
412672,note_on,,,,,0,0,1,,,,0,,,60,22
412672,note_on,,,,,0,0,1,,,,0,,,36,22
412672,note_on,,,,,0,0,1,,,,0,,,64,33
412672,note_off,,,,,0,0,1,,,,0,,,64,0
412672,note_off,,,,,0,0,1,,,,0,,,60,0
412672,control_change,,,,,0,0,1,,,,0,64,0,,
412672,control_change,,,,,0,0,1,,,,0,64,0,,
412672,control_change,,,,,0,0,1,,,,0,64,0,,
412672,control_change,,,,,0,0,1,,,,0,64,0,,
412672,control_change,,,,,0,0,1,,,,0,64,0,,
412672,control_change,,,,,162,0,1,,,,0,64,0,,
412672,set_tempo,,,,,2816,1,0,,545454,,,,,,
412752,note_off,,,,,80,0,1,,,,0,,,44,0
412854,control_change,,,,,102,0,1,,,,0,64,127,,
412928,note_on,,,,,74,0,1,,,,0,,,59,20
412928,note_on,,,,,0,0,1,,,,0,,,63,32
412928,note_on,,,,,0,0,1,,,,0,,,43,23
412928,set_tempo,,,,,256,1,0,,461538,,,,,,
412958,note_off,,,,,30,0,1,,,,0,,,60,0
412958,note_off,,,,,0,0,1,,,,0,,,64,0
413008,note_off,,,,,50,0,1,,,,0,,,36,0
413184,note_on,,,,,0,0,1,,,,0,,,64,36
413184,note_on,,,,,176,0,1,,,,0,,,60,23
413184,note_on,,,,,0,0,1,,,,0,,,36,24
413214,note_off,,,,,30,0,1,,,,0,,,59,0
413214,note_off,,,,,0,0,1,,,,0,,,63,0
413238,control_change,,,,,24,0,1,,,,0,64,0,,
413264,note_off,,,,,26,0,1,,,,0,,,43,0
413400,control_change,,,,,136,0,1,,,,0,64,127,,
413440,note_on,,,,,40,0,1,,,,0,,,59,22
413440,note_on,,,,,0,0,1,,,,0,,,63,35
413440,note_on,,,,,0,0,1,,,,0,,,43,25
413470,note_off,,,,,30,0,1,,,,0,,,60,0
413470,note_off,,,,,0,0,1,,,,0,,,64,0
413520,note_off,,,,,50,0,1,,,,0,,,36,0
413696,note_on,,,,,176,0,1,,,,0,,,60,26
413696,note_on,,,,,0,0,1,,,,0,,,64,40
413696,note_on,,,,,0,0,1,,,,0,,,36,26
413726,note_off,,,,,30,0,1,,,,0,,,59,0
413726,note_off,,,,,0,0,1,,,,0,,,63,0
413776,note_off,,,,,50,0,1,,,,0,,,43,0
413804,control_change,,,,,28,0,1,,,,0,64,0,,
413952,note_on,,,,,148,0,1,,,,0,,,59,23
413952,note_on,,,,,0,0,1,,,,0,,,63,38
413952,note_on,,,,,0,0,1,,,,0,,,43,33
413965,control_change,,,,,13,0,1,,,,0,64,127,,
413982,note_off,,,,,17,0,1,,,,0,,,60,0
413982,note_off,,,,,0,0,1,,,,0,,,64,0
414032,note_off,,,,,50,0,1,,,,0,,,36,0
414208,note_on,,,,,176,0,1,,,,0,,,60,28
414208,note_on,,,,,0,0,1,,,,0,,,64,43
414208,note_on,,,,,0,0,1,,,,0,,,36,29
414238,note_off,,,,,0,0,1,,,,0,,,63,0
414238,note_off,,,,,30,0,1,,,,0,,,59,0
414269,control_change,,,,,31,0,1,,,,0,64,0,,
414288,note_off,,,,,19,0,1,,,,0,,,43,0
414464,note_on,,,,,176,0,1,,,,0,,,59,27
414464,note_on,,,,,0,0,1,,,,0,,,44,39
414464,note_on,,,,,0,0,1,,,,0,,,63,41
414494,note_off,,,,,30,0,1,,,,0,,,60,0
414494,note_off,,,,,0,0,1,,,,0,,,64,0
414544,note_off,,,,,50,0,1,,,,0,,,36,0
414720,note_on,,,,,0,0,1,,,,0,,,36,27
414720,note_on,,,,,176,0,1,,,,0,,,60,26
414720,note_on,,,,,0,0,1,,,,0,,,64,40
414750,note_off,,,,,30,0,1,,,,0,,,59,0
414750,note_off,,,,,0,0,1,,,,0,,,63,0
414800,note_off,,,,,50,0,1,,,,0,,,44,0
414976,note_on,,,,,176,0,1,,,,0,,,62,38
414976,note_on,,,,,0,0,1,,,,0,,,65,38
414976,note_on,,,,,0,0,1,,,,0,,,44,35
415006,note_off,,,,,30,0,1,,,,0,,,60,0
415006,note_off,,,,,0,0,1,,,,0,,,64,0
415056,note_off,,,,,50,0,1,,,,0,,,36,0
415232,note_on,,,,,0,0,1,,,,0,,,64,36
415232,note_on,,,,,176,0,1,,,,0,,,60,24
415232,note_on,,,,,0,0,1,,,,0,,,36,24
415262,note_off,,,,,30,0,1,,,,0,,,62,0
415262,note_off,,,,,0,0,1,,,,0,,,65,0
415312,note_off,,,,,50,0,1,,,,0,,,44,0
415488,note_on,,,,,176,0,1,,,,0,,,59,22
415488,note_on,,,,,0,0,1,,,,0,,,63,34
415488,note_on,,,,,0,0,1,,,,0,,,44,32
415518,note_off,,,,,30,0,1,,,,0,,,60,0
415518,note_off,,,,,0,0,1,,,,0,,,64,0
415568,note_off,,,,,50,0,1,,,,0,,,36,0
415744,note_on,,,,,0,0,1,,,,0,,,60,30
415744,control_change,,,,,0,0,1,,,,0,64,0,,
415744,control_change,,,,,0,0,1,,,,0,64,0,,
415744,note_on,,,,,0,0,1,,,,0,,,36,22
415744,control_change,,,,,176,0,1,,,,0,64,0,,
415744,note_on,,,,,0,0,1,,,,0,,,64,44
415744,control_change,,,,,0,0,1,,,,0,64,0,,
415744,set_tempo,,,,,2816,1,0,,600000,,,,,,
415774,note_off,,,,,30,0,1,,,,0,,,59,0
415774,note_off,,,,,0,0,1,,,,0,,,63,0
415824,note_off,,,,,50,0,1,,,,0,,,44,0
416000,note_on,,,,,176,0,1,,,,0,,,43,22
416060,note_off,,,,,60,0,1,,,,0,,,36,0
416256,note_on,,,,,196,0,1,,,,0,,,59,25
416256,note_on,,,,,0,0,1,,,,0,,,67,43
416256,note_on,,,,,0,0,1,,,,0,,,36,22
416256,set_tempo,,,,,512,1,0,,500000,,,,,,
416296,note_off,,,,,40,0,1,,,,0,,,60,0
416296,note_off,,,,,0,0,1,,,,0,,,64,0
416316,note_off,,,,,20,0,1,,,,0,,,43,0
416512,note_on,,,,,196,0,1,,,,0,,,43,22
416572,note_off,,,,,60,0,1,,,,0,,,36,0
416768,note_on,,,,,196,0,1,,,,0,,,57,25
416768,note_on,,,,,0,0,1,,,,0,,,60,39
416768,note_on,,,,,0,0,1,,,,0,,,36,22
416768,set_tempo,,,,,512,1,0,,461538,,,,,,
416808,note_off,,,,,0,0,1,,,,0,,,67,0
416808,note_off,,,,,40,0,1,,,,0,,,59,0
416828,note_off,,,,,20,0,1,,,,0,,,43,0
417024,note_on,,,,,196,0,1,,,,0,,,43,22
417084,note_off,,,,,60,0,1,,,,0,,,36,0
417280,note_on,,,,,196,0,1,,,,0,,,55,26
417280,note_on,,,,,0,0,1,,,,0,,,36,22
417280,note_on,,,,,0,0,1,,,,0,,,64,43
417320,note_off,,,,,0,0,1,,,,0,,,60,0
417320,note_off,,,,,40,0,1,,,,0,,,57,0
417340,note_off,,,,,20,0,1,,,,0,,,43,0
417536,note_on,,,,,196,0,1,,,,0,,,43,22
417596,note_off,,,,,60,0,1,,,,0,,,36,0
417792,note_on,,,,,196,0,1,,,,0,,,53,25
417792,note_on,,,,,0,0,1,,,,0,,,57,39
417792,note_on,,,,,0,0,1,,,,0,,,36,22
417832,note_off,,,,,40,0,1,,,,0,,,55,0
417832,note_off,,,,,0,0,1,,,,0,,,64,0
417852,note_off,,,,,20,0,1,,,,0,,,43,0
418048,note_on,,,,,196,0,1,,,,0,,,43,22
418108,note_off,,,,,60,0,1,,,,0,,,36,0
418304,note_on,,,,,196,0,1,,,,0,,,52,24
418304,note_on,,,,,0,0,1,,,,0,,,60,38
418304,note_on,,,,,0,0,1,,,,0,,,36,22
418344,note_off,,,,,40,0,1,,,,0,,,53,0
418344,note_off,,,,,0,0,1,,,,0,,,57,0
418364,note_off,,,,,20,0,1,,,,0,,,43,0
418560,note_on,,,,,196,0,1,,,,0,,,43,22
418620,note_off,,,,,60,0,1,,,,0,,,36,0
418816,control_change,,,,,0,0,1,,,,0,64,0,,
418816,set_tempo,,,,,2048,1,0,,500000,,,,,,
418816,control_change,,,,,196,0,1,,,,0,64,0,,
418816,control_change,,,,,0,0,1,,,,0,64,0,,
418816,control_change,,,,,0,0,1,,,,0,64,0,,
418816,note_on,,,,,0,0,1,,,,0,,,50,23
418816,note_on,,,,,0,0,1,,,,0,,,36,22
418816,note_on,,,,,0,0,1,,,,0,,,53,39
418856,note_off,,,,,40,0,1,,,,0,,,52,0
418856,note_off,,,,,0,0,1,,,,0,,,60,0
418876,note_off,,,,,20,0,1,,,,0,,,43,0
419072,note_on,,,,,196,0,1,,,,0,,,43,22
419132,note_off,,,,,60,0,1,,,,0,,,36,0
419328,note_on,,,,,196,0,1,,,,0,,,48,22
419328,note_on,,,,,0,0,1,,,,0,,,57,36
419328,note_on,,,,,0,0,1,,,,0,,,36,22
419328,set_tempo,,,,,512,1,0,,461538,,,,,,
419368,note_off,,,,,40,0,1,,,,0,,,50,0
419368,note_off,,,,,0,0,1,,,,0,,,53,0
419388,note_off,,,,,20,0,1,,,,0,,,43,0
419584,note_on,,,,,196,0,1,,,,0,,,43,22
419644,note_off,,,,,60,0,1,,,,0,,,36,0
419840,note_on,,,,,196,0,1,,,,0,,,47,21
419840,note_on,,,,,0,0,1,,,,0,,,50,35
419840,note_on,,,,,0,0,1,,,,0,,,36,22
419880,note_off,,,,,40,0,1,,,,0,,,48,0
419880,note_off,,,,,0,0,1,,,,0,,,57,0
419900,note_off,,,,,20,0,1,,,,0,,,43,0
420096,note_on,,,,,196,0,1,,,,0,,,43,22
420156,note_off,,,,,60,0,1,,,,0,,,36,0
420352,note_on,,,,,196,0,1,,,,0,,,45,19
420352,note_on,,,,,0,0,1,,,,0,,,53,33
420352,note_on,,,,,0,0,1,,,,0,,,36,22
420392,note_off,,,,,40,0,1,,,,0,,,47,0
420392,note_off,,,,,0,0,1,,,,0,,,50,0
420412,note_off,,,,,20,0,1,,,,0,,,43,0
420608,note_on,,,,,196,0,1,,,,0,,,43,22
420668,note_off,,,,,60,0,1,,,,0,,,36,0
420864,note_on,,,,,0,0,1,,,,0,,,47,32
420864,note_on,,,,,0,0,1,,,,0,,,36,22
420864,set_tempo,,,,,1536,1,0,,500000,,,,,,
420864,note_on,,,,,196,0,1,,,,0,,,43,18
420904,note_off,,,,,40,0,1,,,,0,,,45,0
420904,note_off,,,,,0,0,1,,,,0,,,53,0
420924,note_off,,,,,20,0,1,,,,0,,,43,0
421120,note_on,,,,,196,0,1,,,,0,,,43,22
421180,note_off,,,,,60,0,1,,,,0,,,36,0
421376,note_on,,,,,0,0,1,,,,0,,,36,22
421376,set_tempo,,,,,512,1,0,,600000,,,,,,
421376,note_on,,,,,196,0,1,,,,0,,,41,17
421376,note_on,,,,,0,0,1,,,,0,,,50,31
421416,note_off,,,,,40,0,1,,,,0,,,43,0
421416,note_off,,,,,0,0,1,,,,0,,,47,0
421436,note_off,,,,,20,0,1,,,,0,,,43,0
421632,note_off,,,,,196,0,1,,,,0,,,36,0
421632,note_on,,,,,0,0,1,,,,0,,,44,33
421888,control_change,,,,,256,0,1,,,,0,64,0,,
421888,control_change,,,,,0,0,1,,,,0,64,0,,
421888,note_off,,,,,0,0,1,,,,0,,,44,0
421888,note_on,,,,,0,0,1,,,,0,,,40,15
421888,note_on,,,,,0,0,1,,,,0,,,48,31
421888,note_on,,,,,0,0,1,,,,0,,,36,22
421928,note_off,,,,,0,0,1,,,,0,,,50,0
421928,note_off,,,,,40,0,1,,,,0,,,41,0
422144,set_tempo,,,,,768,1,0,,461538,,,,,,
422144,note_on,,,,,0,0,1,,,,0,,,43,22
422144,note_off,,,,,216,0,1,,,,0,,,36,0
422177,control_change,,,,,33,0,1,,,,0,64,127,,
422400,note_on,,,,,0,0,1,,,,0,,,36,22
422400,note_off,,,,,223,0,1,,,,0,,,43,0
422656,note_on,,,,,0,0,1,,,,0,,,43,21
422656,note_off,,,,,256,0,1,,,,0,,,36,0
422912,note_off,,,,,256,0,1,,,,0,,,43,0
422912,note_on,,,,,0,0,1,,,,0,,,36,21
423168,note_off,,,,,256,0,1,,,,0,,,36,0
423168,note_on,,,,,0,0,1,,,,0,,,43,21
423424,note_on,,,,,0,0,1,,,,0,,,36,21
423424,note_on,,,,,0,0,1,,,,0,,,67,31
423424,note_on,,,,,0,0,1,,,,0,,,64,15
423424,note_off,,,,,0,0,1,,,,0,,,48,0
423424,note_off,,,,,0,0,1,,,,0,,,43,0
423424,note_off,,,,,256,0,1,,,,0,,,40,0
423680,note_off,,,,,256,0,1,,,,0,,,36,0
423680,note_on,,,,,0,0,1,,,,0,,,43,20
423936,note_off,,,,,256,0,1,,,,0,,,43,0
423936,note_on,,,,,0,0,1,,,,0,,,36,20
424192,note_off,,,,,256,0,1,,,,0,,,36,0
424192,note_on,,,,,0,0,1,,,,0,,,43,20
424448,note_on,,,,,0,0,1,,,,0,,,36,20
424448,note_off,,,,,256,0,1,,,,0,,,43,0
424704,note_off,,,,,256,0,1,,,,0,,,36,0
424704,note_on,,,,,0,0,1,,,,0,,,43,20
424960,control_change,,,,,0,0,1,,,,0,64,127,,
424960,note_off,,,,,0,0,1,,,,0,,,64,0
424960,note_off,,,,,0,0,1,,,,0,,,67,0
424960,note_off,,,,,0,0,1,,,,0,,,43,0
424960,note_on,,,,,0,0,1,,,,0,,,64,18
424960,note_on,,,,,0,0,1,,,,0,,,67,34
424960,note_on,,,,,0,0,1,,,,0,,,36,19
424960,control_change,,,,,256,0,1,,,,0,64,0,,
425094,control_change,,,,,134,0,1,,,,0,64,0,,
425216,note_on,,,,,0,0,1,,,,0,,,43,19
425216,note_off,,,,,122,0,1,,,,0,,,36,0
425272,control_change,,,,,56,0,1,,,,0,64,127,,
425472,note_off,,,,,200,0,1,,,,0,,,43,0
425472,note_on,,,,,0,0,1,,,,0,,,36,19
425728,note_off,,,,,256,0,1,,,,0,,,36,0
425728,note_on,,,,,0,0,1,,,,0,,,43,19
425984,note_on,,,,,0,0,1,,,,0,,,36,19
425984,note_off,,,,,256,0,1,,,,0,,,43,0
426240,note_on,,,,,0,0,1,,,,0,,,43,18
426240,note_off,,,,,256,0,1,,,,0,,,36,0
426496,note_off,,,,,256,0,1,,,,0,,,64,0
426496,note_on,,,,,0,0,1,,,,0,,,64,15
426496,note_off,,,,,0,0,1,,,,0,,,43,0
426496,note_off,,,,,0,0,1,,,,0,,,67,0
426496,note_on,,,,,0,0,1,,,,0,,,67,31
426496,note_on,,,,,0,0,1,,,,0,,,36,18
426752,note_off,,,,,256,0,1,,,,0,,,36,0
426752,note_on,,,,,0,0,1,,,,0,,,43,18
427008,note_off,,,,,256,0,1,,,,0,,,43,0
427008,note_on,,,,,0,0,1,,,,0,,,36,18
427264,note_off,,,,,256,0,1,,,,0,,,36,0
427264,note_on,,,,,0,0,1,,,,0,,,43,17
427520,set_tempo,,,,,5376,1,0,,500000,,,,,,
427520,note_off,,,,,256,0,1,,,,0,,,43,0
427520,note_on,,,,,0,0,1,,,,0,,,36,17
427776,note_off,,,,,256,0,1,,,,0,,,36,0
427776,set_tempo,,,,,256,1,0,,545454,,,,,,
427776,note_on,,,,,0,0,1,,,,0,,,43,17
428032,set_tempo,,,,,256,1,0,,666666,,,,,,
428032,control_change,,,,,256,0,1,,,,0,64,0,,
428032,control_change,,,,,0,0,1,,,,0,64,127,,
428032,control_change,,,,,0,0,1,,,,0,64,0,,
428032,note_off,,,,,0,0,1,,,,0,,,64,0
428032,note_off,,,,,0,0,1,,,,0,,,67,0
428032,note_off,,,,,0,0,1,,,,0,,,43,0
428032,note_on,,,,,0,0,1,,,,0,,,64,15
428032,note_on,,,,,0,0,1,,,,0,,,67,31
428032,note_on,,,,,0,0,1,,,,0,,,35,17
428166,control_change,,,,,134,0,1,,,,0,64,0,,
428288,note_on,,,,,0,0,1,,,,0,,,47,17
428288,note_off,,,,,122,0,1,,,,0,,,35,0
428288,set_tempo,,,,,256,1,0,,461538,,,,,,
428344,control_change,,,,,56,0,1,,,,0,64,127,,
428544,note_off,,,,,200,0,1,,,,0,,,47,0
428544,note_on,,,,,0,0,1,,,,0,,,35,17
428800,note_off,,,,,256,0,1,,,,0,,,35,0
428800,note_on,,,,,0,0,1,,,,0,,,47,17
429056,note_on,,,,,0,0,1,,,,0,,,35,17
429056,note_off,,,,,256,0,1,,,,0,,,47,0
429312,note_off,,,,,256,0,1,,,,0,,,35,0
429312,note_on,,,,,0,0,1,,,,0,,,47,17
429568,note_off,,,,,256,0,1,,,,0,,,64,0
429568,note_off,,,,,0,0,1,,,,0,,,67,0
429568,note_off,,,,,0,0,1,,,,0,,,47,0
429568,note_on,,,,,0,0,1,,,,0,,,64,12
429568,note_on,,,,,0,0,1,,,,0,,,35,17
429568,note_on,,,,,0,0,1,,,,0,,,67,28
429824,note_off,,,,,256,0,1,,,,0,,,35,0
429824,note_on,,,,,0,0,1,,,,0,,,47,17
430080,note_off,,,,,256,0,1,,,,0,,,47,0
430080,note_on,,,,,0,0,1,,,,0,,,35,17
430336,note_off,,,,,256,0,1,,,,0,,,35,0
430336,note_on,,,,,0,0,1,,,,0,,,47,17
430592,note_off,,,,,256,0,1,,,,0,,,47,0
430592,note_on,,,,,0,0,1,,,,0,,,35,17
430848,note_off,,,,,256,0,1,,,,0,,,35,0
430848,note_on,,,,,0,0,1,,,,0,,,47,17
431104,note_off,,,,,0,0,1,,,,0,,,47,0
431104,note_off,,,,,0,0,1,,,,0,,,67,0
431104,control_change,,,,,256,0,1,,,,0,64,0,,
431104,control_change,,,,,0,0,1,,,,0,64,0,,
431104,control_change,,,,,0,0,1,,,,0,64,127,,
431104,control_change,,,,,0,0,1,,,,0,64,0,,
431104,note_off,,,,,0,0,1,,,,0,,,64,0
431104,note_on,,,,,0,0,1,,,,0,,,63,18
431104,note_on,,,,,0,0,1,,,,0,,,35,19
431104,note_on,,,,,0,0,1,,,,0,,,66,34
431238,control_change,,,,,134,0,1,,,,0,64,0,,
431360,note_off,,,,,122,0,1,,,,0,,,35,0
431360,note_on,,,,,0,0,1,,,,0,,,47,19
431416,control_change,,,,,56,0,1,,,,0,64,127,,
431616,note_off,,,,,200,0,1,,,,0,,,47,0
431616,note_on,,,,,0,0,1,,,,0,,,35,19
431872,note_off,,,,,256,0,1,,,,0,,,35,0
431872,note_on,,,,,0,0,1,,,,0,,,47,19
432128,note_off,,,,,256,0,1,,,,0,,,47,0
432128,note_on,,,,,0,0,1,,,,0,,,35,19
432384,note_off,,,,,256,0,1,,,,0,,,35,0
432384,note_on,,,,,0,0,1,,,,0,,,47,18
432640,note_off,,,,,256,0,1,,,,0,,,63,0
432640,note_off,,,,,0,0,1,,,,0,,,66,0
432640,note_off,,,,,0,0,1,,,,0,,,47,0
432640,note_on,,,,,0,0,1,,,,0,,,66,31
432640,note_on,,,,,0,0,1,,,,0,,,35,18
432640,note_on,,,,,0,0,1,,,,0,,,63,15
432896,note_on,,,,,0,0,1,,,,0,,,47,18
432896,note_off,,,,,256,0,1,,,,0,,,35,0
433152,note_on,,,,,0,0,1,,,,0,,,35,18
433152,note_off,,,,,256,0,1,,,,0,,,47,0
433408,note_off,,,,,256,0,1,,,,0,,,35,0
433408,note_on,,,,,0,0,1,,,,0,,,47,17
433664,note_off,,,,,256,0,1,,,,0,,,47,0
433664,note_on,,,,,0,0,1,,,,0,,,35,17
433664,set_tempo,,,,,5376,1,0,,500000,,,,,,
433920,set_tempo,,,,,256,1,0,,545454,,,,,,
433920,note_off,,,,,256,0,1,,,,0,,,35,0
433920,note_on,,,,,0,0,1,,,,0,,,47,17
434176,set_tempo,,,,,256,1,0,,666666,,,,,,
434176,control_change,,,,,0,0,1,,,,0,64,127,,
434176,control_change,,,,,256,0,1,,,,0,64,0,,
434176,control_change,,,,,0,0,1,,,,0,64,0,,
434176,control_change,,,,,0,0,1,,,,0,64,0,,
434176,note_off,,,,,0,0,1,,,,0,,,63,0
434176,note_off,,,,,0,0,1,,,,0,,,66,0
434176,note_off,,,,,0,0,1,,,,0,,,47,0
434176,note_on,,,,,0,0,1,,,,0,,,63,15
434176,note_on,,,,,0,0,1,,,,0,,,66,31
434176,note_on,,,,,0,0,1,,,,0,,,35,17
434176,control_change,,,,,0,0,1,,,,0,64,0,,
434310,control_change,,,,,134,0,1,,,,0,64,0,,
434432,set_tempo,,,,,256,1,0,,461538,,,,,,
434432,note_on,,,,,0,0,1,,,,0,,,47,17
434432,note_off,,,,,122,0,1,,,,0,,,35,0
434488,control_change,,,,,56,0,1,,,,0,64,127,,
434688,note_off,,,,,200,0,1,,,,0,,,47,0
434688,note_on,,,,,0,0,1,,,,0,,,35,17
434944,note_off,,,,,256,0,1,,,,0,,,35,0
434944,note_on,,,,,0,0,1,,,,0,,,47,17
435200,note_on,,,,,0,0,1,,,,0,,,35,17
435200,note_off,,,,,256,0,1,,,,0,,,47,0
435456,note_on,,,,,0,0,1,,,,0,,,47,17
435456,note_off,,,,,256,0,1,,,,0,,,35,0
435712,note_on,,,,,0,0,1,,,,0,,,66,28
435712,note_off,,,,,0,0,1,,,,0,,,47,0
435712,note_off,,,,,0,0,1,,,,0,,,66,0
435712,note_off,,,,,256,0,1,,,,0,,,63,0
435712,note_on,,,,,0,0,1,,,,0,,,35,17
435712,note_on,,,,,0,0,1,,,,0,,,63,12
435968,note_off,,,,,256,0,1,,,,0,,,35,0
435968,note_on,,,,,0,0,1,,,,0,,,47,17
436224,note_off,,,,,256,0,1,,,,0,,,47,0
436224,note_on,,,,,0,0,1,,,,0,,,35,17
436480,note_off,,,,,256,0,1,,,,0,,,35,0
436480,note_on,,,,,0,0,1,,,,0,,,47,17
436736,note_off,,,,,256,0,1,,,,0,,,47,0
436736,note_on,,,,,0,0,1,,,,0,,,35,17
436992,note_on,,,,,0,0,1,,,,0,,,47,17
436992,note_off,,,,,256,0,1,,,,0,,,35,0
437248,note_on,,,,,0,0,1,,,,0,,,35,17
437248,note_on,,,,,0,0,1,,,,0,,,62,15
437248,note_off,,,,,0,0,1,,,,0,,,47,0
437248,control_change,,,,,256,0,1,,,,0,64,0,,
437248,note_off,,,,,0,0,1,,,,0,,,66,0
437248,control_change,,,,,0,0,1,,,,0,64,0,,
437248,control_change,,,,,0,0,1,,,,0,64,127,,
437248,control_change,,,,,0,0,1,,,,0,64,0,,
437248,control_change,,,,,0,0,1,,,,0,64,0,,
437248,note_on,,,,,0,0,1,,,,0,,,65,31
437248,note_off,,,,,0,0,1,,,,0,,,63,0
437382,control_change,,,,,134,0,1,,,,0,64,0,,
437504,note_on,,,,,0,0,1,,,,0,,,47,17
437504,note_off,,,,,122,0,1,,,,0,,,35,0
437560,control_change,,,,,56,0,1,,,,0,64,127,,
437760,note_on,,,,,0,0,1,,,,0,,,35,17
437760,note_off,,,,,200,0,1,,,,0,,,47,0
438016,note_off,,,,,256,0,1,,,,0,,,35,0
438016,note_on,,,,,0,0,1,,,,0,,,47,17
438272,note_off,,,,,256,0,1,,,,0,,,47,0
438272,note_on,,,,,0,0,1,,,,0,,,35,17
438528,note_off,,,,,256,0,1,,,,0,,,35,0
438528,note_on,,,,,0,0,1,,,,0,,,47,17
438784,note_on,,,,,0,0,1,,,,0,,,62,15
438784,note_on,,,,,0,0,1,,,,0,,,35,17
438784,note_off,,,,,256,0,1,,,,0,,,62,0
438784,note_off,,,,,0,0,1,,,,0,,,65,0
438784,note_off,,,,,0,0,1,,,,0,,,47,0
438784,note_on,,,,,0,0,1,,,,0,,,65,31
439040,note_off,,,,,256,0,1,,,,0,,,35,0
439040,note_on,,,,,0,0,1,,,,0,,,47,17
439296,note_off,,,,,256,0,1,,,,0,,,47,0
439296,note_on,,,,,0,0,1,,,,0,,,35,17
439552,note_on,,,,,0,0,1,,,,0,,,47,17
439552,note_off,,,,,256,0,1,,,,0,,,35,0
439552,set_tempo,,,,,5120,1,0,,500000,,,,,,
439808,note_on,,,,,0,0,1,,,,0,,,35,17
439808,set_tempo,,,,,256,1,0,,545454,,,,,,
439808,note_off,,,,,256,0,1,,,,0,,,47,0
440064,note_on,,,,,0,0,1,,,,0,,,47,17
440064,set_tempo,,,,,256,1,0,,666666,,,,,,
440064,note_off,,,,,256,0,1,,,,0,,,35,0
440320,note_off,,,,,0,0,1,,,,0,,,62,0
440320,note_on,,,,,0,0,1,,,,0,,,34,17
440320,note_off,,,,,0,0,1,,,,0,,,65,0
440320,control_change,,,,,256,0,1,,,,0,64,0,,
440320,control_change,,,,,0,0,1,,,,0,64,0,,
440320,control_change,,,,,0,0,1,,,,0,64,127,,
440320,control_change,,,,,0,0,1,,,,0,64,0,,
440320,note_off,,,,,0,0,1,,,,0,,,47,0
440320,control_change,,,,,0,0,1,,,,0,64,0,,
440320,note_on,,,,,0,0,1,,,,0,,,65,33
440320,note_on,,,,,0,0,1,,,,0,,,62,26
440454,control_change,,,,,134,0,1,,,,0,64,0,,
440576,note_on,,,,,0,0,1,,,,0,,,46,18
440576,set_tempo,,,,,512,1,0,,461538,,,,,,
440576,note_off,,,,,122,0,1,,,,0,,,34,0
440632,control_change,,,,,56,0,1,,,,0,64,127,,
440832,note_off,,,,,200,0,1,,,,0,,,46,0
440832,note_on,,,,,0,0,1,,,,0,,,34,18
441088,note_off,,,,,256,0,1,,,,0,,,34,0
441088,note_on,,,,,0,0,1,,,,0,,,46,19
441344,note_off,,,,,256,0,1,,,,0,,,46,0
441344,note_on,,,,,0,0,1,,,,0,,,34,20
441600,note_on,,,,,0,0,1,,,,0,,,46,21
441600,note_off,,,,,256,0,1,,,,0,,,34,0
441856,note_off,,,,,0,0,1,,,,0,,,46,0
441856,note_off,,,,,256,0,1,,,,0,,,62,0
441856,note_on,,,,,0,0,1,,,,0,,,65,40
441856,note_on,,,,,0,0,1,,,,0,,,34,21
441856,note_off,,,,,0,0,1,,,,0,,,65,0
441856,note_on,,,,,0,0,1,,,,0,,,62,25
441876,control_change,,,,,20,0,1,,,,0,64,0,,
442102,control_change,,,,,226,0,1,,,,0,64,127,,
442112,note_off,,,,,10,0,1,,,,0,,,34,0
442112,note_on,,,,,0,0,1,,,,0,,,46,22
442368,note_off,,,,,256,0,1,,,,0,,,46,0
442368,note_on,,,,,0,0,1,,,,0,,,34,23
442624,note_on,,,,,0,0,1,,,,0,,,46,24
442624,note_off,,,,,256,0,1,,,,0,,,34,0
442880,note_off,,,,,256,0,1,,,,0,,,46,0
442880,note_on,,,,,0,0,1,,,,0,,,34,24
443136,note_off,,,,,256,0,1,,,,0,,,34,0
443136,note_on,,,,,0,0,1,,,,0,,,46,25
443136,set_tempo,,,,,2560,1,0,,545454,,,,,,
443392,note_off,,,,,0,0,1,,,,0,,,65,0
443392,note_off,,,,,0,0,1,,,,0,,,62,0
443392,control_change,,,,,0,0,1,,,,0,64,0,,
443392,note_on,,,,,0,0,1,,,,0,,,68,25
443392,control_change,,,,,0,0,1,,,,0,64,0,,
443392,control_change,,,,,0,0,1,,,,0,64,127,,
443392,control_change,,,,,0,0,1,,,,0,64,0,,
443392,control_change,,,,,0,0,1,,,,0,64,0,,
443392,control_change,,,,,256,0,1,,,,0,64,0,,
443392,note_on,,,,,0,0,1,,,,0,,,70,41
443392,note_on,,,,,0,0,1,,,,0,,,34,25
443392,note_off,,,,,0,0,1,,,,0,,,46,0
443392,control_change,,,,,0,0,1,,,,0,64,0,,
443392,note_on,,,,,0,0,1,,,,0,,,62,25
443526,control_change,,,,,134,0,1,,,,0,64,0,,
443648,note_off,,,,,122,0,1,,,,0,,,34,0
443648,note_on,,,,,0,0,1,,,,0,,,46,25
443648,set_tempo,,,,,512,1,0,,461538,,,,,,
443704,control_change,,,,,56,0,1,,,,0,64,127,,
443904,note_off,,,,,200,0,1,,,,0,,,46,0
443904,note_on,,,,,0,0,1,,,,0,,,34,24
444160,note_off,,,,,256,0,1,,,,0,,,34,0
444160,note_on,,,,,0,0,1,,,,0,,,46,24
444416,note_on,,,,,0,0,1,,,,0,,,34,24
444416,note_off,,,,,256,0,1,,,,0,,,46,0
444672,note_on,,,,,0,0,1,,,,0,,,46,23
444672,note_off,,,,,256,0,1,,,,0,,,34,0
444928,note_off,,,,,256,0,1,,,,0,,,62,0
444928,note_off,,,,,0,0,1,,,,0,,,46,0
444928,note_on,,,,,0,0,1,,,,0,,,62,22
444928,note_on,,,,,0,0,1,,,,0,,,68,22
444928,note_on,,,,,0,0,1,,,,0,,,70,36
444928,note_on,,,,,0,0,1,,,,0,,,34,23
444928,note_off,,,,,0,0,1,,,,0,,,70,0
444928,note_off,,,,,0,0,1,,,,0,,,68,0
444948,control_change,,,,,20,0,1,,,,0,64,0,,
445174,control_change,,,,,226,0,1,,,,0,64,127,,
445184,note_off,,,,,10,0,1,,,,0,,,34,0
445184,note_on,,,,,0,0,1,,,,0,,,46,23
445440,note_off,,,,,256,0,1,,,,0,,,46,0
445440,note_on,,,,,0,0,1,,,,0,,,34,22
445696,set_tempo,,,,,2048,1,0,,500000,,,,,,
445696,note_on,,,,,0,0,1,,,,0,,,46,22
445696,note_off,,,,,256,0,1,,,,0,,,34,0
445952,note_off,,,,,256,0,1,,,,0,,,46,0
445952,note_on,,,,,0,0,1,,,,0,,,34,22
446208,note_on,,,,,0,0,1,,,,0,,,46,21
446208,note_off,,,,,256,0,1,,,,0,,,34,0
446464,control_change,,,,,0,0,1,,,,0,64,0,,
446464,control_change,,,,,0,0,1,,,,0,64,0,,
446464,control_change,,,,,0,0,1,,,,0,64,0,,
446464,control_change,,,,,0,0,1,,,,0,64,0,,
446464,control_change,,,,,0,0,1,,,,0,64,127,,
446464,control_change,,,,,0,0,1,,,,0,64,0,,
446464,control_change,,,,,256,0,1,,,,0,64,0,,
446464,note_on,,,,,0,0,1,,,,0,,,62,18
446464,note_off,,,,,0,0,1,,,,0,,,68,0
446464,note_off,,,,,0,0,1,,,,0,,,70,0
446464,note_on,,,,,0,0,1,,,,0,,,68,18
446464,note_on,,,,,0,0,1,,,,0,,,70,32
446464,note_on,,,,,0,0,1,,,,0,,,34,21
446464,note_off,,,,,0,0,1,,,,0,,,62,0
446464,note_off,,,,,0,0,1,,,,0,,,46,0
446598,control_change,,,,,134,0,1,,,,0,64,0,,
446720,note_off,,,,,122,0,1,,,,0,,,34,0
446720,note_on,,,,,0,0,1,,,,0,,,46,20
446776,control_change,,,,,56,0,1,,,,0,64,127,,
446976,note_off,,,,,200,0,1,,,,0,,,46,0
446976,note_on,,,,,0,0,1,,,,0,,,34,20
447232,set_tempo,,,,,1536,1,0,,545454,,,,,,
447232,note_on,,,,,0,0,1,,,,0,,,46,20
447232,note_off,,,,,256,0,1,,,,0,,,34,0
447488,note_off,,,,,256,0,1,,,,0,,,46,0
447488,note_on,,,,,0,0,1,,,,0,,,34,19
447744,note_off,,,,,256,0,1,,,,0,,,34,0
447744,note_on,,,,,0,0,1,,,,0,,,46,19
448000,note_off,,,,,256,0,1,,,,0,,,62,0
448000,note_off,,,,,0,0,1,,,,0,,,68,0
448000,note_off,,,,,0,0,1,,,,0,,,70,0
448000,note_off,,,,,0,0,1,,,,0,,,46,0
448000,note_on,,,,,0,0,1,,,,0,,,62,15
448000,note_on,,,,,0,0,1,,,,0,,,68,15
448000,note_on,,,,,0,0,1,,,,0,,,70,28
448000,note_on,,,,,0,0,1,,,,0,,,34,19
448020,control_change,,,,,20,0,1,,,,0,64,0,,
448246,control_change,,,,,226,0,1,,,,0,64,127,,
448256,note_off,,,,,10,0,1,,,,0,,,34,0
448256,note_on,,,,,0,0,1,,,,0,,,46,18
448512,note_on,,,,,0,0,1,,,,0,,,34,18
448512,note_off,,,,,256,0,1,,,,0,,,46,0
448768,note_off,,,,,256,0,1,,,,0,,,34,0
448768,note_on,,,,,0,0,1,,,,0,,,46,18
449024,note_off,,,,,256,0,1,,,,0,,,46,0
449024,note_on,,,,,0,0,1,,,,0,,,34,17
449280,note_off,,,,,256,0,1,,,,0,,,34,0
449280,note_on,,,,,0,0,1,,,,0,,,46,17
449536,note_on,,,,,0,0,1,,,,0,,,70,25
449536,note_on,,,,,0,0,1,,,,0,,,68,12
449536,note_on,,,,,0,0,1,,,,0,,,62,12
449536,note_off,,,,,0,0,1,,,,0,,,46,0
449536,note_off,,,,,0,0,1,,,,0,,,70,0
449536,note_off,,,,,0,0,1,,,,0,,,68,0
449536,control_change,,,,,0,0,1,,,,0,64,0,,
449536,control_change,,,,,0,0,1,,,,0,64,0,,
449536,control_change,,,,,0,0,1,,,,0,64,0,,
449536,control_change,,,,,0,0,1,,,,0,64,127,,
449536,control_change,,,,,0,0,1,,,,0,64,0,,
449536,control_change,,,,,256,0,1,,,,0,64,0,,
449536,note_off,,,,,0,0,1,,,,0,,,62,0
449536,control_change,,,,,0,0,1,,,,0,64,0,,
449536,note_on,,,,,0,0,1,,,,0,,,34,17
449536,set_tempo,,,,,2304,1,0,,600000,,,,,,
449670,control_change,,,,,134,0,1,,,,0,64,0,,
449792,note_off,,,,,122,0,1,,,,0,,,34,0
449792,note_on,,,,,0,0,1,,,,0,,,46,17
449848,control_change,,,,,56,0,1,,,,0,64,127,,
450048,note_off,,,,,200,0,1,,,,0,,,46,0
450048,note_on,,,,,0,0,1,,,,0,,,34,17
450304,note_off,,,,,256,0,1,,,,0,,,34,0
450304,note_on,,,,,0,0,1,,,,0,,,46,17
450560,note_off,,,,,256,0,1,,,,0,,,46,0
450560,note_on,,,,,0,0,1,,,,0,,,34,17
450816,note_on,,,,,0,0,1,,,,0,,,46,17
450816,note_off,,,,,256,0,1,,,,0,,,34,0
451072,set_tempo,,,,,1536,1,0,,666666,,,,,,
451072,note_off,,,,,256,0,1,,,,0,,,62,0
451072,note_off,,,,,0,0,1,,,,0,,,68,0
451072,note_off,,,,,0,0,1,,,,0,,,70,0
451072,note_off,,,,,0,0,1,,,,0,,,46,0
451072,note_on,,,,,0,0,1,,,,0,,,62,10
451072,note_on,,,,,0,0,1,,,,0,,,68,10
451072,note_on,,,,,0,0,1,,,,0,,,70,23
451072,note_on,,,,,0,0,1,,,,0,,,34,17
451092,control_change,,,,,20,0,1,,,,0,64,0,,
451318,control_change,,,,,226,0,1,,,,0,64,127,,
451328,note_off,,,,,10,0,1,,,,0,,,34,0
451328,note_on,,,,,0,0,1,,,,0,,,46,17
451584,note_off,,,,,256,0,1,,,,0,,,46,0
451584,note_on,,,,,0,0,1,,,,0,,,34,17
451840,note_off,,,,,256,0,1,,,,0,,,34,0
451840,note_on,,,,,0,0,1,,,,0,,,46,17
451840,set_tempo,,,,,768,1,0,,750000,,,,,,
452096,note_off,,,,,256,0,1,,,,0,,,46,0
452096,note_on,,,,,0,0,1,,,,0,,,34,17
452352,note_on,,,,,0,0,1,,,,0,,,46,17
452352,note_off,,,,,256,0,1,,,,0,,,34,0
452608,set_tempo,,,,,768,1,0,,857142,,,,,,
452608,control_change,,,,,0,0,1,,,,0,64,127,,
452608,note_off,,,,,0,0,1,,,,0,,,62,0
452608,note_off,,,,,0,0,1,,,,0,,,68,0
452608,note_off,,,,,0,0,1,,,,0,,,70,0
452608,note_off,,,,,0,0,1,,,,0,,,46,0
452608,note_on,,,,,0,0,1,,,,0,,,67,22
452608,note_on,,,,,0,0,1,,,,0,,,70,40
452608,note_on,,,,,0,0,1,,,,0,,,51,18
452608,control_change,,,,,256,0,1,,,,0,64,0,,
452830,control_change,,,,,222,0,1,,,,0,64,0,,
453015,control_change,,,,,185,0,1,,,,0,64,127,,
453120,set_tempo,,,,,512,1,0,,625000,,,,,,
453120,note_on,,,,,105,0,1,,,,0,,,58,20
453632,note_off,,,,,512,0,1,,,,0,,,51,0
453632,note_off,,,,,0,0,1,,,,0,,,58,0
453632,note_on,,,,,0,0,1,,,,0,,,63,20
454144,note_on,,,,,0,0,1,,,,0,,,51,18
454144,note_on,,,,,0,0,1,,,,0,,,68,23
454144,note_off,,,,,0,0,1,,,,0,,,63,0
454144,note_on,,,,,0,0,1,,,,0,,,70,41
454144,note_off,,,,,512,0,1,,,,0,,,67,0
454144,set_tempo,,,,,1024,1,0,,666666,,,,,,
454144,note_off,,,,,0,0,1,,,,0,,,70,0
454214,control_change,,,,,70,0,1,,,,0,64,0,,
454528,control_change,,,,,314,0,1,,,,0,64,127,,
454656,set_tempo,,,,,512,1,0,,705882,,,,,,
454656,note_on,,,,,0,0,1,,,,0,,,75,46
454656,note_on,,,,,0,0,1,,,,0,,,58,20
454656,note_off,,,,,128,0,1,,,,0,,,70,0
455168,note_off,,,,,512,0,1,,,,0,,,75,0
455168,note_on,,,,,0,0,1,,,,0,,,65,20
455168,note_off,,,,,0,0,1,,,,0,,,58,0
455168,note_on,,,,,0,0,1,,,,0,,,74,41
455168,set_tempo,,,,,512,1,0,,750000,,,,,,
455261,control_change,,,,,93,0,1,,,,0,64,0,,
455540,control_change,,,,,279,0,1,,,,0,64,127,,
455680,control_change,,,,,140,0,1,,,,0,64,0,,
455680,control_change,,,,,0,0,1,,,,0,64,127,,
455680,note_off,,,,,0,0,1,,,,0,,,68,0
455680,note_off,,,,,0,0,1,,,,0,,,74,0
455680,note_off,,,,,0,0,1,,,,0,,,51,0
455680,note_off,,,,,0,0,1,,,,0,,,65,0
455680,note_on,,,,,0,0,1,,,,0,,,67,21
455680,note_on,,,,,0,0,1,,,,0,,,75,43
455680,note_on,,,,,0,0,1,,,,0,,,51,15
455680,set_tempo,,,,,512,1,0,,705882,,,,,,
455865,control_change,,,,,185,0,1,,,,0,64,0,,
456161,control_change,,,,,296,0,1,,,,0,64,127,,
456192,set_tempo,,,,,512,1,0,,600000,,,,,,
456192,note_on,,,,,31,0,1,,,,0,,,55,18
456704,note_on,,,,,512,0,1,,,,0,,,58,21
457216,note_on,,,,,0,0,1,,,,0,,,70,29
457216,note_on,,,,,0,0,1,,,,0,,,63,24
457216,set_tempo,,,,,1024,1,0,,750000,,,,,,
457216,note_off,,,,,512,0,1,,,,0,,,75,0
457728,note_off,,,,,512,0,1,,,,0,,,67,0
457728,note_off,,,,,0,0,1,,,,0,,,70,0
457728,note_off,,,,,0,0,1,,,,0,,,55,0
457728,note_off,,,,,0,0,1,,,,0,,,63,0
457728,note_on,,,,,0,0,1,,,,0,,,55,20
457728,set_tempo,,,,,512,1,0,,600000,,,,,,
458124,control_change,,,,,396,0,1,,,,0,64,0,,
458240,note_on,,,,,116,0,1,,,,0,,,67,23
458240,note_on,,,,,0,0,1,,,,0,,,70,41
458240,note_on,,,,,0,0,1,,,,0,,,58,16
458240,note_off,,,,,0,0,1,,,,0,,,55,0
458240,note_off,,,,,0,0,1,,,,0,,,58,0
458240,set_tempo,,,,,512,1,0,,750000,,,,,,
458508,control_change,,,,,268,0,1,,,,0,64,127,,
458752,note_off,,,,,0,0,1,,,,0,,,58,0
458752,note_on,,,,,0,0,1,,,,0,,,51,21
458752,note_on,,,,,0,0,1,,,,0,,,67,39
458752,note_on,,,,,0,0,1,,,,0,,,63,21
458752,note_off,,,,,0,0,1,,,,0,,,51,0
458752,note_off,,,,,0,0,1,,,,0,,,70,0
458752,note_off,,,,,0,0,1,,,,0,,,67,0
458752,set_tempo,,,,,512,1,0,,705882,,,,,,
458752,control_change,,,,,0,0,1,,,,0,64,127,,
458752,control_change,,,,,244,0,1,,,,0,64,0,,
459264,note_on,,,,,512,0,1,,,,0,,,55,23
459264,set_tempo,,,,,512,1,0,,600000,,,,,,
459447,control_change,,,,,183,0,1,,,,0,64,0,,
459660,control_change,,,,,213,0,1,,,,0,64,127,,
459776,note_off,,,,,0,0,1,,,,0,,,67,0
459776,note_on,,,,,0,0,1,,,,0,,,56,25
459776,note_on,,,,,0,0,1,,,,0,,,68,38
459776,note_off,,,,,116,0,1,,,,0,,,63,0
459776,note_on,,,,,0,0,1,,,,0,,,65,20
459776,note_off,,,,,0,0,1,,,,0,,,51,0
459776,note_off,,,,,0,0,1,,,,0,,,55,0
460032,set_tempo,,,,,768,1,0,,1333333,,,,,,
460032,note_on,,,,,0,0,1,,,,0,,,68,38
460032,note_off,,,,,256,0,1,,,,0,,,68,0
460117,note_on,,,,,0,0,1,,,,0,,,70,38
460117,note_off,,,,,85,0,1,,,,0,,,68,0
460203,note_off,,,,,86,0,1,,,,0,,,70,0
460203,note_on,,,,,0,0,1,,,,0,,,72,38
460288,note_on,,,,,0,0,1,,,,0,,,67,27
460288,note_off,,,,,0,0,1,,,,0,,,72,0
460288,set_tempo,,,,,256,1,0,,750000,,,,,,
460288,note_on,,,,,0,0,1,,,,0,,,58,27
460288,note_on,,,,,0,0,1,,,,0,,,70,46
460288,note_off,,,,,0,0,1,,,,0,,,56,0
460288,note_off,,,,,85,0,1,,,,0,,,65,0
460301,control_change,,,,,13,0,1,,,,0,64,0,,
460488,control_change,,,,,187,0,1,,,,0,64,127,,
460800,note_off,,,,,312,0,1,,,,0,,,67,0
460800,note_on,,,,,0,0,1,,,,0,,,56,23
460800,note_on,,,,,0,0,1,,,,0,,,65,25
460800,note_off,,,,,0,0,1,,,,0,,,70,0
460800,set_tempo,,,,,512,1,0,,666666,,,,,,
460800,note_on,,,,,0,0,1,,,,0,,,68,43
460800,note_off,,,,,0,0,1,,,,0,,,58,0
460916,control_change,,,,,116,0,1,,,,0,64,0,,
461129,control_change,,,,,213,0,1,,,,0,64,127,,
461312,note_off,,,,,0,0,1,,,,0,,,68,0
461312,note_off,,,,,183,0,1,,,,0,,,65,0
461312,note_on,,,,,0,0,1,,,,0,,,63,23
461312,note_on,,,,,0,0,1,,,,0,,,67,40
461312,set_tempo,,,,,512,1,0,,750000,,,,,,
461312,note_off,,,,,0,0,1,,,,0,,,56,0
461312,note_on,,,,,0,0,1,,,,0,,,55,20
461423,control_change,,,,,111,0,1,,,,0,64,0,,
461584,control_change,,,,,161,0,1,,,,0,64,127,,
461824,control_change,,,,,0,0,1,,,,0,64,127,,
461824,control_change,,,,,240,0,1,,,,0,64,0,,
461824,note_on,,,,,0,0,1,,,,0,,,63,21
461824,note_off,,,,,0,0,1,,,,0,,,55,0
461824,note_on,,,,,0,0,1,,,,0,,,46,17
461824,set_tempo,,,,,512,1,0,,750000,,,,,,
461824,note_on,,,,,0,0,1,,,,0,,,67,39
461824,note_off,,,,,0,0,1,,,,0,,,63,0
461824,note_off,,,,,0,0,1,,,,0,,,67,0
462336,note_on,,,,,512,0,1,,,,0,,,55,22
462336,set_tempo,,,,,512,1,0,,600000,,,,,,
462848,note_on,,,,,512,0,1,,,,0,,,56,26
462888,note_off,,,,,40,0,1,,,,0,,,55,0
463327,control_change,,,,,439,0,1,,,,0,64,0,,
463360,note_on,,,,,0,0,1,,,,0,,,62,16
463360,set_tempo,,,,,1024,1,0,,800000,,,,,,
463360,note_on,,,,,0,0,1,,,,0,,,58,29
463360,note_on,,,,,0,0,1,,,,0,,,65,31
463360,note_off,,,,,33,0,1,,,,0,,,63,0
463360,note_off,,,,,0,0,1,,,,0,,,67,0
463400,note_off,,,,,40,0,1,,,,0,,,56,0
463621,control_change,,,,,221,0,1,,,,0,64,127,,
463872,set_tempo,,,,,512,1,0,,666666,,,,,,
463872,note_off,,,,,251,0,1,,,,0,,,62,0
463872,note_off,,,,,0,0,1,,,,0,,,65,0
463872,note_on,,,,,0,0,1,,,,0,,,63,20
463872,note_on,,,,,0,0,1,,,,0,,,67,37
463872,note_on,,,,,0,0,1,,,,0,,,56,24
463912,note_off,,,,,40,0,1,,,,0,,,58,0
463981,control_change,,,,,69,0,1,,,,0,64,0,,
464128,note_on,,,,,147,0,1,,,,0,,,55,21
464168,note_off,,,,,40,0,1,,,,0,,,56,0
464242,control_change,,,,,74,0,1,,,,0,64,127,,
464384,note_on,,,,,0,0,1,,,,0,,,53,19
464384,note_on,,,,,0,0,1,,,,0,,,68,44
464384,note_off,,,,,0,0,1,,,,0,,,67,0
464384,note_on,,,,,0,0,1,,,,0,,,65,26
464384,set_tempo,,,,,512,1,0,,750000,,,,,,
464384,note_off,,,,,142,0,1,,,,0,,,63,0
464424,note_off,,,,,40,0,1,,,,0,,,55,0
464504,control_change,,,,,80,0,1,,,,0,64,0,,
464667,control_change,,,,,163,0,1,,,,0,64,127,,
464896,note_off,,,,,0,0,1,,,,0,,,65,0
464896,control_change,,,,,229,0,1,,,,0,64,0,,
464896,control_change,,,,,0,0,1,,,,0,64,127,,
464896,note_off,,,,,0,0,1,,,,0,,,68,0
464896,note_off,,,,,0,0,1,,,,0,,,46,0
464896,note_on,,,,,0,0,1,,,,0,,,67,26
464896,note_on,,,,,0,0,1,,,,0,,,70,44
464896,note_on,,,,,0,0,1,,,,0,,,51,18
464936,note_off,,,,,40,0,1,,,,0,,,53,0
464990,control_change,,,,,54,0,1,,,,0,64,0,,
465272,control_change,,,,,282,0,1,,,,0,64,127,,
465408,note_on,,,,,136,0,1,,,,0,,,58,20
465408,set_tempo,,,,,1024,1,0,,600000,,,,,,
465920,note_off,,,,,512,0,1,,,,0,,,51,0
465920,note_off,,,,,0,0,1,,,,0,,,58,0
465920,note_on,,,,,0,0,1,,,,0,,,63,20
466412,note_off,,,,,492,0,1,,,,0,,,63,0
466432,note_off,,,,,20,0,1,,,,0,,,67,0
466432,note_off,,,,,0,0,1,,,,0,,,70,0
466432,note_on,,,,,0,0,1,,,,0,,,63,28
466432,note_on,,,,,0,0,1,,,,0,,,70,46
466432,set_tempo,,,,,1024,1,0,,750000,,,,,,
466432,note_on,,,,,0,0,1,,,,0,,,55,25
466495,control_change,,,,,63,0,1,,,,0,64,0,,
466808,control_change,,,,,313,0,1,,,,0,64,127,,
466944,set_tempo,,,,,512,1,0,,666666,,,,,,
466944,note_off,,,,,136,0,1,,,,0,,,70,0
466944,note_on,,,,,0,0,1,,,,0,,,75,54
466944,note_on,,,,,0,0,1,,,,0,,,58,27
467456,note_off,,,,,512,0,1,,,,0,,,63,0
467456,note_off,,,,,0,0,1,,,,0,,,75,0
467456,note_off,,,,,0,0,1,,,,0,,,58,0
467456,note_on,,,,,0,0,1,,,,0,,,70,32
467456,note_on,,,,,0,0,1,,,,0,,,74,51
467456,note_on,,,,,0,0,1,,,,0,,,64,32
467456,set_tempo,,,,,512,1,0,,800000,,,,,,
467456,note_on,,,,,0,0,1,,,,0,,,62,30
467529,control_change,,,,,73,0,1,,,,0,64,0,,
467686,control_change,,,,,157,0,1,,,,0,64,127,,
467968,control_change,,,,,282,0,1,,,,0,64,0,,
467968,control_change,,,,,0,0,1,,,,0,64,127,,
467968,note_off,,,,,0,0,1,,,,0,,,62,0
467968,note_off,,,,,0,0,1,,,,0,,,64,0
467968,note_off,,,,,0,0,1,,,,0,,,70,0
467968,note_on,,,,,0,0,1,,,,0,,,65,32
467968,note_on,,,,,0,0,1,,,,0,,,70,32
467968,note_on,,,,,0,0,1,,,,0,,,74,51
467968,note_on,,,,,0,0,1,,,,0,,,41,24
467968,note_off,,,,,0,0,1,,,,0,,,74,0
467968,note_off,,,,,0,0,1,,,,0,,,55,0
467968,set_tempo,,,,,512,1,0,,750000,,,,,,
468175,control_change,,,,,207,0,1,,,,0,64,0,,
468348,control_change,,,,,173,0,1,,,,0,64,127,,
468480,note_on,,,,,132,0,1,,,,0,,,53,21
468480,set_tempo,,,,,512,1,0,,600000,,,,,,
468992,note_on,,,,,512,0,1,,,,0,,,57,25
469504,note_on,,,,,0,0,1,,,,0,,,72,44
469504,note_on,,,,,0,0,1,,,,0,,,69,22
469504,note_off,,,,,0,0,1,,,,0,,,74,0
469504,note_off,,,,,512,0,1,,,,0,,,70,0
469504,note_on,,,,,0,0,1,,,,0,,,63,29
469504,set_tempo,,,,,1024,1,0,,705882,,,,,,
469556,control_change,,,,,52,0,1,,,,0,64,0,,
469866,control_change,,,,,310,0,1,,,,0,64,127,,
470016,note_off,,,,,0,0,1,,,,0,,,41,0
470016,note_off,,,,,0,0,1,,,,0,,,57,0
470016,note_on,,,,,0,0,1,,,,0,,,57,22
470016,note_off,,,,,0,0,1,,,,0,,,72,0
470016,note_off,,,,,0,0,1,,,,0,,,69,0
470016,note_off,,,,,0,0,1,,,,0,,,63,0
470016,set_tempo,,,,,512,1,0,,600000,,,,,,
470016,note_off,,,,,150,0,1,,,,0,,,65,0
470350,control_change,,,,,334,0,1,,,,0,64,0,,
470528,note_on,,,,,0,0,1,,,,0,,,53,15
470528,set_tempo,,,,,512,1,0,,666666,,,,,,
470528,note_on,,,,,178,0,1,,,,0,,,65,37
470528,note_on,,,,,0,0,1,,,,0,,,69,37
470528,note_off,,,,,0,0,1,,,,0,,,57,0
470528,note_off,,,,,0,0,1,,,,0,,,53,0
470528,note_on,,,,,0,0,1,,,,0,,,72,53
470729,control_change,,,,,201,0,1,,,,0,64,127,,
471040,set_tempo,,,,,512,1,0,,750000,,,,,,
471040,note_off,,,,,0,0,1,,,,0,,,65,0
471040,control_change,,,,,311,0,1,,,,0,64,0,,
471040,control_change,,,,,0,0,1,,,,0,64,127,,
471040,note_off,,,,,0,0,1,,,,0,,,69,0
471040,note_off,,,,,0,0,1,,,,0,,,72,0
471040,note_off,,,,,0,0,1,,,,0,,,53,0
471040,note_on,,,,,0,0,1,,,,0,,,65,41
471040,note_on,,,,,0,0,1,,,,0,,,70,41
471040,note_on,,,,,0,0,1,,,,0,,,74,57
471040,note_on,,,,,0,0,1,,,,0,,,46,34
471247,control_change,,,,,207,0,1,,,,0,64,0,,
471489,control_change,,,,,242,0,1,,,,0,64,127,,
471552,set_tempo,,,,,512,1,0,,600000,,,,,,
471552,note_on,,,,,0,0,1,,,,0,,,58,25
471552,note_on,,,,,63,0,1,,,,0,,,53,25
472064,note_off,,,,,512,0,1,,,,0,,,46,0
472064,note_off,,,,,0,0,1,,,,0,,,53,0
472064,note_off,,,,,0,0,1,,,,0,,,58,0
472064,note_on,,,,,0,0,1,,,,0,,,62,25
472064,set_tempo,,,,,512,1,0,,625000,,,,,,
472559,control_change,,,,,495,0,1,,,,0,64,0,,
472576,note_on,,,,,0,0,1,,,,0,,,70,37
472576,note_on,,,,,0,0,1,,,,0,,,63,37
472576,note_off,,,,,0,0,1,,,,0,,,62,0
472576,note_off,,,,,0,0,1,,,,0,,,74,0
472576,note_off,,,,,0,0,1,,,,0,,,70,0
472576,note_on,,,,,0,0,1,,,,0,,,75,61
472576,set_tempo,,,,,512,1,0,,705882,,,,,,
472576,note_on,,,,,0,0,1,,,,0,,,43,34
472576,note_off,,,,,17,0,1,,,,0,,,65,0
472973,control_change,,,,,397,0,1,,,,0,64,127,,
473088,set_tempo,,,,,512,1,0,,600000,,,,,,
473088,note_on,,,,,115,0,1,,,,0,,,55,25
473600,note_on,,,,,0,0,1,,,,0,,,58,25
473600,note_off,,,,,512,0,1,,,,0,,,43,0
473600,note_off,,,,,0,0,1,,,,0,,,55,0
474112,note_on,,,,,0,0,1,,,,0,,,65,33
474112,note_on,,,,,0,0,1,,,,0,,,70,33
474112,note_on,,,,,0,0,1,,,,0,,,74,53
474112,note_off,,,,,0,0,1,,,,0,,,70,0
474112,note_off,,,,,0,0,1,,,,0,,,63,0
474112,control_change,,,,,0,0,1,,,,0,64,127,,
474112,control_change,,,,,512,0,1,,,,0,64,0,,
474112,note_off,,,,,0,0,1,,,,0,,,58,0
474112,note_off,,,,,0,0,1,,,,0,,,75,0
474112,set_tempo,,,,,1024,1,0,,705882,,,,,,
474112,note_on,,,,,0,0,1,,,,0,,,41,35
474319,control_change,,,,,207,0,1,,,,0,64,0,,
474526,control_change,,,,,207,0,1,,,,0,64,127,,
474624,set_tempo,,,,,512,1,0,,600000,,,,,,
474624,note_on,,,,,98,0,1,,,,0,,,53,26
475136,note_off,,,,,512,0,1,,,,0,,,41,0
475136,note_on,,,,,0,0,1,,,,0,,,58,26
475136,note_off,,,,,0,0,1,,,,0,,,53,0
475520,note_on,,,,,0,0,1,,,,0,,,74,40
475520,note_off,,,,,384,0,1,,,,0,,,74,0
475520,set_tempo,,,,,896,1,0,,800000,,,,,,
475648,set_tempo,,,,,128,1,0,,750000,,,,,,
475648,note_off,,,,,128,0,1,,,,0,,,65,0
475648,note_on,,,,,0,0,1,,,,0,,,69,32
475648,note_on,,,,,0,0,1,,,,0,,,63,32
475648,note_on,,,,,0,0,1,,,,0,,,72,52
475648,note_off,,,,,0,0,1,,,,0,,,58,0
475648,note_off,,,,,0,0,1,,,,0,,,74,0
475648,note_off,,,,,0,0,1,,,,0,,,70,0
475648,note_on,,,,,0,0,1,,,,0,,,41,31
475700,control_change,,,,,52,0,1,,,,0,64,0,,
475941,control_change,,,,,241,0,1,,,,0,64,127,,
476160,note_off,,,,,219,0,1,,,,0,,,72,0
476160,note_on,,,,,0,0,1,,,,0,,,70,46
476160,note_on,,,,,0,0,1,,,,0,,,53,19
476160,set_tempo,,,,,512,1,0,,666666,,,,,,
476672,note_on,,,,,0,0,1,,,,0,,,72,44
476672,note_off,,,,,0,0,1,,,,0,,,53,0
476672,note_on,,,,,0,0,1,,,,0,,,57,19
476672,note_off,,,,,512,0,1,,,,0,,,70,0
476672,set_tempo,,,,,512,1,0,,800000,,,,,,
476770,control_change,,,,,98,0,1,,,,0,64,0,,
477011,control_change,,,,,241,0,1,,,,0,64,127,,
477184,note_on,,,,,0,0,1,,,,0,,,34,22
477184,control_change,,,,,173,0,1,,,,0,64,0,,
477184,note_on,,,,,0,0,1,,,,0,,,69,32
477184,note_on,,,,,0,0,1,,,,0,,,63,32
477184,note_off,,,,,0,0,1,,,,0,,,57,0
477184,note_off,,,,,0,0,1,,,,0,,,41,0
477184,note_off,,,,,0,0,1,,,,0,,,69,0
477184,note_off,,,,,0,0,1,,,,0,,,63,0
477184,note_off,,,,,0,0,1,,,,0,,,72,0
477184,control_change,,,,,0,0,1,,,,0,64,127,,
477184,note_on,,,,,0,0,1,,,,0,,,72,48
477184,set_tempo,,,,,512,1,0,,923076,,,,,,
477357,control_change,,,,,173,0,1,,,,0,64,0,,
477564,control_change,,,,,207,0,1,,,,0,64,127,,
477696,note_on,,,,,132,0,1,,,,0,,,46,19
477696,set_tempo,,,,,512,1,0,,800000,,,,,,
478208,note_off,,,,,512,0,1,,,,0,,,34,0
478208,note_on,,,,,0,0,1,,,,0,,,53,15
478208,set_tempo,,,,,512,1,0,,857142,,,,,,
478703,control_change,,,,,495,0,1,,,,0,64,0,,
478720,note_off,,,,,17,0,1,,,,0,,,63,0
478720,note_off,,,,,0,0,1,,,,0,,,69,0
478720,note_off,,,,,0,0,1,,,,0,,,72,0
478720,note_on,,,,,0,0,1,,,,0,,,62,12
478720,note_on,,,,,0,0,1,,,,0,,,70,28
478720,note_on,,,,,0,0,1,,,,0,,,58,10
479082,control_change,,,,,362,0,1,,,,0,64,127,,
479744,set_tempo,,,,,1536,1,0,,857142,,,,,,
479744,note_on,,,,,0,0,1,,,,0,,,70,40
479744,note_off,,,,,0,0,1,,,,0,,,58,0
479744,note_off,,,,,0,0,1,,,,0,,,53,0
479744,note_off,,,,,0,0,1,,,,0,,,46,0
479744,note_off,,,,,0,0,1,,,,0,,,70,0
479744,note_off,,,,,662,0,1,,,,0,,,62,0
480256,note_on,,,,,0,0,1,,,,0,,,68,21
480256,note_off,,,,,0,0,1,,,,0,,,70,0
480256,control_change,,,,,0,0,1,,,,0,64,127,,
480256,note_on,,,,,0,0,1,,,,0,,,70,44
480256,note_on,,,,,0,0,1,,,,0,,,46,28
480256,control_change,,,,,512,0,1,,,,0,64,0,,
480500,control_change,,,,,244,0,1,,,,0,64,0,,
480745,control_change,,,,,245,0,1,,,,0,64,127,,
480768,set_tempo,,,,,1024,1,0,,600000,,,,,,
480768,note_off,,,,,23,0,1,,,,0,,,46,0
480768,note_on,,,,,0,0,1,,,,0,,,53,22
481280,note_off,,,,,512,0,1,,,,0,,,53,0
481280,note_on,,,,,0,0,1,,,,0,,,58,22
481792,note_on,,,,,0,0,1,,,,0,,,62,22
481792,set_tempo,,,,,1024,1,0,,705882,,,,,,
481792,note_off,,,,,512,0,1,,,,0,,,58,0
482304,note_off,,,,,0,0,1,,,,0,,,62,0
482304,note_on,,,,,0,0,1,,,,0,,,58,22
482304,note_on,,,,,0,0,1,,,,0,,,72,44
482304,note_off,,,,,512,0,1,,,,0,,,70,0
482796,note_off,,,,,492,0,1,,,,0,,,68,0
482816,note_off,,,,,0,0,1,,,,0,,,58,0
482816,set_tempo,,,,,1024,1,0,,750000,,,,,,
482816,note_off,,,,,20,0,1,,,,0,,,72,0
482816,note_on,,,,,0,0,1,,,,0,,,68,26
482816,note_on,,,,,0,0,1,,,,0,,,70,44
482816,note_on,,,,,0,0,1,,,,0,,,53,22
482874,control_change,,,,,58,0,1,,,,0,64,0,,
483049,control_change,,,,,175,0,1,,,,0,64,127,,
483328,control_change,,,,,279,0,1,,,,0,64,0,,
483328,note_off,,,,,0,0,1,,,,0,,,68,0
483328,control_change,,,,,0,0,1,,,,0,64,127,,
483328,note_off,,,,,0,0,1,,,,0,,,53,0
483328,note_on,,,,,0,0,1,,,,0,,,67,25
483328,note_on,,,,,0,0,1,,,,0,,,70,43
483328,note_on,,,,,0,0,1,,,,0,,,46,28
483328,note_off,,,,,0,0,1,,,,0,,,70,0
483495,control_change,,,,,167,0,1,,,,0,64,0,,
483829,control_change,,,,,334,0,1,,,,0,64,127,,
483840,set_tempo,,,,,1024,1,0,,600000,,,,,,
483840,note_on,,,,,11,0,1,,,,0,,,55,22
484352,note_on,,,,,512,0,1,,,,0,,,58,22
484864,note_on,,,,,0,0,1,,,,0,,,63,22
484864,note_on,,,,,0,0,1,,,,0,,,63,11
484864,note_on,,,,,0,0,1,,,,0,,,67,29
484864,note_off,,,,,0,0,1,,,,0,,,70,0
484864,note_off,,,,,512,0,1,,,,0,,,67,0
484864,set_tempo,,,,,1024,1,0,,705882,,,,,,
484864,note_off,,,,,0,0,1,,,,0,,,58,0
484897,control_change,,,,,33,0,1,,,,0,64,0,,
485198,control_change,,,,,301,0,1,,,,0,64,127,,
485376,note_off,,,,,178,0,1,,,,0,,,63,0
485376,note_off,,,,,0,0,1,,,,0,,,67,0
485376,note_off,,,,,0,0,1,,,,0,,,63,0
485376,note_on,,,,,0,0,1,,,,0,,,58,22
485376,set_tempo,,,,,512,1,0,,600000,,,,,,
485632,control_change,,,,,256,0,1,,,,0,64,0,,
485888,note_off,,,,,0,0,1,,,,0,,,58,0
485888,note_on,,,,,256,0,1,,,,0,,,67,29
485888,note_on,,,,,0,0,1,,,,0,,,75,51
485888,note_on,,,,,0,0,1,,,,0,,,55,22
485888,note_off,,,,,0,0,1,,,,0,,,55,0
485888,set_tempo,,,,,512,1,0,,800000,,,,,,
485888,note_off,,,,,0,0,1,,,,0,,,46,0
486066,control_change,,,,,178,0,1,,,,0,64,127,,
486400,control_change,,,,,334,0,1,,,,0,64,0,,
486400,control_change,,,,,0,0,1,,,,0,64,127,,
486400,note_off,,,,,0,0,1,,,,0,,,67,0
486400,note_off,,,,,0,0,1,,,,0,,,75,0
486400,note_off,,,,,0,0,1,,,,0,,,55,0
486400,note_on,,,,,0,0,1,,,,0,,,68,37
486400,note_on,,,,,0,0,1,,,,0,,,77,59
486400,note_on,,,,,0,0,1,,,,0,,,46,28
486575,control_change,,,,,175,0,1,,,,0,64,0,,
486784,control_change,,,,,209,0,1,,,,0,64,127,,
486912,note_on,,,,,128,0,1,,,,0,,,53,22
486912,set_tempo,,,,,1024,1,0,,600000,,,,,,
487412,control_change,,,,,500,0,1,,,,0,64,0,,
487424,note_off,,,,,12,0,1,,,,0,,,77,0
487424,note_on,,,,,0,0,1,,,,0,,,74,48
487424,note_on,,,,,0,0,1,,,,0,,,58,22
487424,set_tempo,,,,,512,1,0,,625000,,,,,,
487727,control_change,,,,,303,0,1,,,,0,64,127,,
487936,note_on,,,,,0,0,1,,,,0,,,62,22
487936,note_off,,,,,209,0,1,,,,0,,,68,0
487936,note_off,,,,,0,0,1,,,,0,,,74,0
487936,note_off,,,,,0,0,1,,,,0,,,58,0
487936,note_on,,,,,0,0,1,,,,0,,,65,33
487936,note_on,,,,,0,0,1,,,,0,,,68,51
487936,set_tempo,,,,,512,1,0,,750000,,,,,,
487971,control_change,,,,,35,0,1,,,,0,64,0,,
488215,control_change,,,,,244,0,1,,,,0,64,127,,
488448,note_on,,,,,0,0,1,,,,0,,,58,22
488448,note_on,,,,,0,0,1,,,,0,,,72,51
488448,note_off,,,,,233,0,1,,,,0,,,65,0
488448,note_off,,,,,0,0,1,,,,0,,,68,0
488448,note_on,,,,,0,0,1,,,,0,,,68,31
488564,control_change,,,,,116,0,1,,,,0,64,0,,
488844,control_change,,,,,280,0,1,,,,0,64,127,,
488960,note_on,,,,,0,0,1,,,,0,,,53,22
488960,set_tempo,,,,,1024,1,0,,800000,,,,,,
488960,note_on,,,,,0,0,1,,,,0,,,68,29
488960,note_on,,,,,0,0,1,,,,0,,,70,45
488960,note_off,,,,,0,0,1,,,,0,,,53,0
488960,note_off,,,,,0,0,1,,,,0,,,72,0
488960,note_off,,,,,116,0,1,,,,0,,,68,0
488960,note_off,,,,,0,0,1,,,,0,,,58,0
489088,control_change,,,,,128,0,1,,,,0,64,0,,
489297,control_change,,,,,209,0,1,,,,0,64,127,,
489472,control_change,,,,,175,0,1,,,,0,64,0,,
489472,control_change,,,,,0,0,1,,,,0,64,127,,
489472,note_off,,,,,0,0,1,,,,0,,,68,0
489472,note_off,,,,,0,0,1,,,,0,,,70,0
489472,note_off,,,,,0,0,1,,,,0,,,46,0
489472,note_off,,,,,0,0,1,,,,0,,,53,0
489472,note_off,,,,,0,0,1,,,,0,,,62,0
489472,note_on,,,,,0,0,1,,,,0,,,67,25
489472,note_on,,,,,0,0,1,,,,0,,,46,28
489472,set_tempo,,,,,512,1,0,,705882,,,,,,
489472,note_on,,,,,0,0,1,,,,0,,,70,43
489635,control_change,,,,,163,0,1,,,,0,64,0,,
489864,control_change,,,,,229,0,1,,,,0,64,127,,
489984,set_tempo,,,,,512,1,0,,600000,,,,,,
489984,note_on,,,,,120,0,1,,,,0,,,55,22
490496,note_on,,,,,512,0,1,,,,0,,,58,22
490975,control_change,,,,,479,0,1,,,,0,64,0,,
491008,note_off,,,,,33,0,1,,,,0,,,67,0
491008,note_off,,,,,0,0,1,,,,0,,,70,0
491008,note_on,,,,,0,0,1,,,,0,,,63,13
491008,note_on,,,,,0,0,1,,,,0,,,67,31
491008,note_on,,,,,0,0,1,,,,0,,,63,22
491008,set_tempo,,,,,1024,1,0,,705882,,,,,,
491204,control_change,,,,,196,0,1,,,,0,64,127,,
491520,set_tempo,,,,,512,1,0,,625000,,,,,,
491520,note_on,,,,,0,0,1,,,,0,,,58,22
491520,note_off,,,,,0,0,1,,,,0,,,63,0
491520,note_off,,,,,0,0,1,,,,0,,,67,0
491520,note_off,,,,,316,0,1,,,,0,,,63,0
491520,note_off,,,,,0,0,1,,,,0,,,58,0
491760,control_change,,,,,240,0,1,,,,0,64,0,,
492032,note_on,,,,,272,0,1,,,,0,,,67,23
492032,note_on,,,,,0,0,1,,,,0,,,70,41
492032,note_on,,,,,0,0,1,,,,0,,,55,22
492032,note_off,,,,,0,0,1,,,,0,,,55,0
492032,set_tempo,,,,,512,1,0,,800000,,,,,,
492032,note_off,,,,,0,0,1,,,,0,,,58,0
492086,control_change,,,,,54,0,1,,,,0,64,127,,
492544,control_change,,,,,458,0,1,,,,0,64,0,,
492544,control_change,,,,,0,0,1,,,,0,64,0,,
492544,control_change,,,,,0,0,1,,,,0,64,0,,
492544,note_on,,,,,0,0,1,,,,0,,,46,18
492544,note_on,,,,,0,0,1,,,,0,,,70,38
492544,note_on,,,,,0,0,1,,,,0,,,68,20
492544,control_change,,,,,0,0,1,,,,0,64,127,,
492544,note_off,,,,,0,0,1,,,,0,,,46,0
492544,note_off,,,,,0,0,1,,,,0,,,70,0
492544,note_off,,,,,0,0,1,,,,0,,,67,0
492544,note_off,,,,,0,0,1,,,,0,,,55,0
492788,control_change,,,,,244,0,1,,,,0,64,0,,
493033,control_change,,,,,245,0,1,,,,0,64,127,,
493056,set_tempo,,,,,1024,1,0,,600000,,,,,,
493056,note_on,,,,,23,0,1,,,,0,,,53,12
493568,note_off,,,,,512,0,1,,,,0,,,53,0
493568,note_on,,,,,0,0,1,,,,0,,,58,12
494080,note_off,,,,,512,0,1,,,,0,,,58,0
494080,note_on,,,,,0,0,1,,,,0,,,62,12
494080,set_tempo,,,,,1024,1,0,,705882,,,,,,
494592,note_off,,,,,512,0,1,,,,0,,,70,0
494592,note_on,,,,,0,0,1,,,,0,,,58,12
494592,note_on,,,,,0,0,1,,,,0,,,71,34
494592,set_tempo,,,,,512,1,0,,750000,,,,,,
495084,note_off,,,,,492,0,1,,,,0,,,68,0
495104,note_off,,,,,20,0,1,,,,0,,,71,0
495104,note_on,,,,,0,0,1,,,,0,,,68,16
495104,note_on,,,,,0,0,1,,,,0,,,70,34
495104,note_on,,,,,0,0,1,,,,0,,,53,12
495104,note_off,,,,,0,0,1,,,,0,,,58,0
495104,set_tempo,,,,,512,1,0,,750000,,,,,,
495162,control_change,,,,,58,0,1,,,,0,64,0,,
495337,control_change,,,,,175,0,1,,,,0,64,127,,
495616,control_change,,,,,0,0,1,,,,0,64,0,,
495616,control_change,,,,,0,0,1,,,,0,64,127,,
495616,note_off,,,,,0,0,1,,,,0,,,70,0
495616,control_change,,,,,279,0,1,,,,0,64,0,,
495616,note_off,,,,,0,0,1,,,,0,,,46,0
495616,note_off,,,,,0,0,1,,,,0,,,53,0
495616,note_off,,,,,0,0,1,,,,0,,,62,0
495616,note_on,,,,,0,0,1,,,,0,,,66,20
495616,note_on,,,,,0,0,1,,,,0,,,70,38
495616,note_off,,,,,0,0,1,,,,0,,,68,0
495616,control_change,,,,,0,0,1,,,,0,64,0,,
495616,note_on,,,,,0,0,1,,,,0,,,46,18
495783,control_change,,,,,167,0,1,,,,0,64,0,,
496117,control_change,,,,,334,0,1,,,,0,64,127,,
496128,note_on,,,,,11,0,1,,,,0,,,54,12
496128,set_tempo,,,,,1024,1,0,,600000,,,,,,
496640,note_on,,,,,512,0,1,,,,0,,,58,12
497152,note_off,,,,,512,0,1,,,,0,,,70,0
497152,note_on,,,,,0,0,1,,,,0,,,75,35
497152,note_on,,,,,0,0,1,,,,0,,,63,12
497152,note_off,,,,,0,0,1,,,,0,,,58,0
497152,set_tempo,,,,,1024,1,0,,666666,,,,,,
497185,control_change,,,,,33,0,1,,,,0,64,0,,
497486,control_change,,,,,301,0,1,,,,0,64,127,,
497664,note_off,,,,,178,0,1,,,,0,,,63,0
497664,set_tempo,,,,,512,1,0,,750000,,,,,,
497664,note_on,,,,,0,0,1,,,,0,,,58,12
497920,control_change,,,,,256,0,1,,,,0,64,0,,
498176,note_off,,,,,0,0,1,,,,0,,,54,0
498176,note_off,,,,,0,0,1,,,,0,,,58,0
498176,note_off,,,,,0,0,1,,,,0,,,75,0
498176,note_on,,,,,0,0,1,,,,0,,,78,42
498176,set_tempo,,,,,512,1,0,,1000000,,,,,,
498176,note_off,,,,,256,0,1,,,,0,,,66,0
498176,note_on,,,,,0,0,1,,,,0,,,54,12
498176,note_on,,,,,0,0,1,,,,0,,,66,20
498354,control_change,,,,,178,0,1,,,,0,64,127,,
498688,note_off,,,,,0,0,1,,,,0,,,54,0
498688,note_on,,,,,0,0,1,,,,0,,,80,47
498688,set_tempo,,,,,512,1,0,,857142,,,,,,
498688,note_on,,,,,0,0,1,,,,0,,,47,18
498688,note_on,,,,,0,0,1,,,,0,,,51,13
498688,note_on,,,,,0,0,1,,,,0,,,56,18
498688,control_change,,,,,334,0,1,,,,0,64,0,,
498688,control_change,,,,,0,0,1,,,,0,64,127,,
498688,note_off,,,,,0,0,1,,,,0,,,66,0
498688,note_off,,,,,0,0,1,,,,0,,,78,0
498688,note_off,,,,,0,0,1,,,,0,,,46,0
498688,note_on,,,,,0,0,1,,,,0,,,68,31
498859,control_change,,,,,171,0,1,,,,0,64,0,,
499166,control_change,,,,,307,0,1,,,,0,64,127,,
499712,note_on,,,,,0,0,1,,,,0,,,78,43
499712,note_on,,,,,0,0,1,,,,0,,,66,27
499712,note_off,,,,,0,0,1,,,,0,,,56,0
499712,note_off,,,,,0,0,1,,,,0,,,80,0
499712,note_off,,,,,546,0,1,,,,0,,,68,0
499712,note_on,,,,,0,0,1,,,,0,,,54,16
499712,set_tempo,,,,,1024,1,0,,800000,,,,,,
500224,note_on,,,,,0,0,1,,,,0,,,53,16
500224,set_tempo,,,,,512,1,0,,857142,,,,,,
500224,note_off,,,,,512,0,1,,,,0,,,66,0
500224,note_off,,,,,0,0,1,,,,0,,,78,0
500224,note_off,,,,,0,0,1,,,,0,,,54,0
500224,note_on,,,,,0,0,1,,,,0,,,77,41
500224,note_on,,,,,0,0,1,,,,0,,,65,25
500258,control_change,,,,,34,0,1,,,,0,64,0,,
500395,control_change,,,,,137,0,1,,,,0,64,127,,
500736,set_tempo,,,,,512,1,0,,750000,,,,,,
500736,note_on,,,,,0,0,1,,,,0,,,54,18
500736,note_off,,,,,341,0,1,,,,0,,,65,0
500736,note_off,,,,,0,0,1,,,,0,,,77,0
500736,note_off,,,,,0,0,1,,,,0,,,53,0
500736,note_on,,,,,0,0,1,,,,0,,,66,24
500736,note_on,,,,,0,0,1,,,,0,,,78,40
500804,control_change,,,,,68,0,1,,,,0,64,0,,
500975,control_change,,,,,171,0,1,,,,0,64,127,,
501248,note_off,,,,,273,0,1,,,,0,,,66,0
501248,note_off,,,,,0,0,1,,,,0,,,78,0
501248,note_on,,,,,0,0,1,,,,0,,,63,22
501248,note_off,,,,,0,0,1,,,,0,,,54,0
501248,note_on,,,,,0,0,1,,,,0,,,51,8
501248,note_on,,,,,0,0,1,,,,0,,,57,15
501248,set_tempo,,,,,512,1,0,,1000000,,,,,,
501248,note_on,,,,,0,0,1,,,,0,,,75,38
501316,control_change,,,,,68,0,1,,,,0,64,0,,
501521,control_change,,,,,205,0,1,,,,0,64,127,,
501760,note_on,,,,,0,0,1,,,,0,,,58,18
501760,control_change,,,,,239,0,1,,,,0,64,0,,
501760,control_change,,,,,0,0,1,,,,0,64,127,,
501760,note_off,,,,,0,0,1,,,,0,,,63,0
501760,note_off,,,,,0,0,1,,,,0,,,75,0
501760,note_off,,,,,0,0,1,,,,0,,,47,0
501760,note_off,,,,,0,0,1,,,,0,,,51,0
501760,note_off,,,,,0,0,1,,,,0,,,51,0
501760,note_off,,,,,0,0,1,,,,0,,,57,0
501760,note_on,,,,,0,0,1,,,,0,,,62,20
501760,note_on,,,,,0,0,1,,,,0,,,74,36
501760,set_tempo,,,,,512,1,0,,1090909,,,,,,
501760,note_on,,,,,0,0,1,,,,0,,,46,11
501760,note_on,,,,,0,0,1,,,,0,,,50,11
501988,control_change,,,,,228,0,1,,,,0,64,0,,
502291,control_change,,,,,303,0,1,,,,0,64,127,,
503296,note_off,,,,,1005,0,1,,,,0,,,62,0
503296,note_off,,,,,0,0,1,,,,0,,,74,0
503296,note_off,,,,,0,0,1,,,,0,,,50,0
503296,note_on,,,,,0,0,1,,,,0,,,65,11
503296,note_on,,,,,0,0,1,,,,0,,,77,23
503296,note_on,,,,,0,0,1,,,,0,,,53,9
503353,control_change,,,,,57,0,1,,,,0,64,0,,
503618,control_change,,,,,265,0,1,,,,0,64,127,,
504320,note_on,,,,,0,0,1,,,,0,,,70,49
504320,note_on,,,,,0,0,1,,,,0,,,67,33
504320,note_off,,,,,0,0,1,,,,0,,,58,0
504320,note_off,,,,,0,0,1,,,,0,,,46,0
504320,note_off,,,,,0,0,1,,,,0,,,53,0
504320,note_off,,,,,0,0,1,,,,0,,,77,0
504320,set_tempo,,,,,2560,1,0,,1000000,,,,,,
504320,note_off,,,,,702,0,1,,,,0,,,65,0
504339,control_change,,,,,19,0,1,,,,0,64,0,,
504642,control_change,,,,,303,0,1,,,,0,64,127,,
504832,control_change,,,,,0,0,1,,,,0,64,0,,
504832,note_on,,,,,0,0,1,,,,0,,,51,33
504832,control_change,,,,,190,0,1,,,,0,64,0,,
504832,note_on,,,,,0,0,1,,,,0,,,70,57
504832,note_on,,,,,0,0,1,,,,0,,,67,39
504832,note_off,,,,,0,0,1,,,,0,,,70,0
504832,note_off,,,,,0,0,1,,,,0,,,67,0
504832,note_on,,,,,0,0,1,,,,0,,,39,21
504863,control_change,,,,,31,0,1,,,,0,64,127,,
505047,control_change,,,,,184,0,1,,,,0,64,0,,
505231,control_change,,,,,184,0,1,,,,0,64,127,,
505344,set_tempo,,,,,1024,1,0,,600000,,,,,,
505344,note_on,,,,,113,0,1,,,,0,,,55,28
505856,note_off,,,,,512,0,1,,,,0,,,39,0
505856,note_off,,,,,0,0,1,,,,0,,,51,0
505856,note_off,,,,,0,0,1,,,,0,,,55,0
505856,note_on,,,,,0,0,1,,,,0,,,58,28
506368,note_off,,,,,512,0,1,,,,0,,,58,0
506368,note_on,,,,,0,0,1,,,,0,,,63,28
506880,note_on,,,,,0,0,1,,,,0,,,58,28
506880,set_tempo,,,,,1536,1,0,,750000,,,,,,
506880,note_on,,,,,0,0,1,,,,0,,,79,64
506880,note_on,,,,,0,0,1,,,,0,,,75,46
506880,note_off,,,,,0,0,1,,,,0,,,63,0
506880,note_off,,,,,0,0,1,,,,0,,,70,0
506880,note_off,,,,,512,0,1,,,,0,,,67,0
507382,control_change,,,,,502,0,1,,,,0,64,0,,
507392,note_on,,,,,0,0,1,,,,0,,,55,28
507392,note_on,,,,,0,0,1,,,,0,,,77,59
507392,note_off,,,,,0,0,1,,,,0,,,58,0
507392,note_off,,,,,0,0,1,,,,0,,,79,0
507392,note_off,,,,,10,0,1,,,,0,,,75,0
507392,note_on,,,,,0,0,1,,,,0,,,74,41
507392,set_tempo,,,,,512,1,0,,800000,,,,,,
507566,control_change,,,,,174,0,1,,,,0,64,127,,
507904,note_on,,,,,0,0,1,,,,0,,,32,21
507904,note_on,,,,,0,0,1,,,,0,,,74,60
507904,note_on,,,,,0,0,1,,,,0,,,71,42
507904,note_on,,,,,0,0,1,,,,0,,,44,33
507904,set_tempo,,,,,512,1,0,,750000,,,,,,
507904,note_off,,,,,0,0,1,,,,0,,,55,0
507904,note_off,,,,,0,0,1,,,,0,,,77,0
507904,note_off,,,,,0,0,1,,,,0,,,74,0
507904,control_change,,,,,338,0,1,,,,0,64,0,,
507904,control_change,,,,,0,0,1,,,,0,64,0,,
507960,control_change,,,,,56,0,1,,,,0,64,127,,
508129,control_change,,,,,169,0,1,,,,0,64,0,,
508299,control_change,,,,,170,0,1,,,,0,64,127,,
508416,note_on,,,,,117,0,1,,,,0,,,51,28
508416,set_tempo,,,,,512,1,0,,600000,,,,,,
508928,note_on,,,,,0,0,1,,,,0,,,56,28
508928,note_off,,,,,0,0,1,,,,0,,,51,0
508928,note_off,,,,,512,0,1,,,,0,,,32,0
509426,control_change,,,,,498,0,1,,,,0,64,0,,
509440,note_off,,,,,14,0,1,,,,0,,,71,0
509440,note_off,,,,,0,0,1,,,,0,,,74,0
509440,note_on,,,,,0,0,1,,,,0,,,75,60
509440,note_off,,,,,0,0,1,,,,0,,,56,0
509440,set_tempo,,,,,1024,1,0,,750000,,,,,,
509440,note_on,,,,,0,0,1,,,,0,,,60,28
509440,note_on,,,,,0,0,1,,,,0,,,72,43
509651,control_change,,,,,211,0,1,,,,0,64,127,,
509952,note_on,,,,,0,0,1,,,,0,,,56,28
509952,note_on,,,,,0,0,1,,,,0,,,70,41
509952,note_off,,,,,0,0,1,,,,0,,,60,0
509952,note_off,,,,,0,0,1,,,,0,,,75,0
509952,note_off,,,,,301,0,1,,,,0,,,72,0
509952,note_on,,,,,0,0,1,,,,0,,,74,57
509952,set_tempo,,,,,512,1,0,,600000,,,,,,
510046,control_change,,,,,94,0,1,,,,0,64,0,,
510243,control_change,,,,,197,0,1,,,,0,64,127,,
510464,note_on,,,,,0,0,1,,,,0,,,51,28
510464,note_on,,,,,0,0,1,,,,0,,,72,54
510464,note_on,,,,,0,0,1,,,,0,,,68,39
510464,note_off,,,,,0,0,1,,,,0,,,56,0
510464,note_off,,,,,0,0,1,,,,0,,,74,0
510464,note_off,,,,,221,0,1,,,,0,,,70,0
510464,set_tempo,,,,,512,1,0,,705882,,,,,,
510525,control_change,,,,,61,0,1,,,,0,64,0,,
510722,control_change,,,,,197,0,1,,,,0,64,127,,
510976,note_off,,,,,0,0,1,,,,0,,,44,0
510976,note_off,,,,,0,0,1,,,,0,,,51,0
510976,note_on,,,,,0,0,1,,,,0,,,62,33
510976,note_on,,,,,0,0,1,,,,0,,,67,33
510976,note_on,,,,,0,0,1,,,,0,,,70,51
510976,note_on,,,,,0,0,1,,,,0,,,34,33
510976,note_off,,,,,0,0,1,,,,0,,,72,0
510976,note_off,,,,,0,0,1,,,,0,,,68,0
510976,control_change,,,,,0,0,1,,,,0,64,0,,
510976,control_change,,,,,254,0,1,,,,0,64,0,,
510976,set_tempo,,,,,512,1,0,,750000,,,,,,
510976,control_change,,,,,0,0,1,,,,0,64,0,,
511032,control_change,,,,,56,0,1,,,,0,64,127,,
511201,control_change,,,,,169,0,1,,,,0,64,0,,
511371,control_change,,,,,170,0,1,,,,0,64,127,,
511488,set_tempo,,,,,512,1,0,,600000,,,,,,
511488,note_on,,,,,117,0,1,,,,0,,,46,28
512000,note_on,,,,,0,0,1,,,,0,,,50,28
512000,note_off,,,,,512,0,1,,,,0,,,34,0
512498,control_change,,,,,498,0,1,,,,0,64,0,,
512512,note_off,,,,,14,0,1,,,,0,,,67,0
512512,note_off,,,,,0,0,1,,,,0,,,70,0
512512,note_on,,,,,0,0,1,,,,0,,,58,28
512512,note_on,,,,,0,0,1,,,,0,,,72,53
512512,note_on,,,,,0,0,1,,,,0,,,68,35
512512,set_tempo,,,,,1024,1,0,,705882,,,,,,
512512,note_off,,,,,0,0,1,,,,0,,,50,0
512723,control_change,,,,,211,0,1,,,,0,64,127,,
513024,set_tempo,,,,,512,1,0,,625000,,,,,,
513024,note_off,,,,,301,0,1,,,,0,,,68,0
513024,note_off,,,,,0,0,1,,,,0,,,72,0
513024,note_off,,,,,0,0,1,,,,0,,,58,0
513024,note_on,,,,,0,0,1,,,,0,,,67,34
513024,note_on,,,,,0,0,1,,,,0,,,70,50
513024,note_on,,,,,0,0,1,,,,0,,,50,28
513118,control_change,,,,,94,0,1,,,,0,64,0,,
513315,control_change,,,,,197,0,1,,,,0,64,127,,
513536,note_on,,,,,0,0,1,,,,0,,,46,28
513536,note_on,,,,,0,0,1,,,,0,,,68,47
513536,note_on,,,,,0,0,1,,,,0,,,65,32
513536,note_off,,,,,0,0,1,,,,0,,,50,0
513536,note_off,,,,,0,0,1,,,,0,,,70,0
513536,note_off,,,,,221,0,1,,,,0,,,67,0
513536,set_tempo,,,,,512,1,0,,750000,,,,,,
513536,note_off,,,,,0,0,1,,,,0,,,46,0
513597,control_change,,,,,61,0,1,,,,0,64,0,,
513794,control_change,,,,,197,0,1,,,,0,64,127,,
514048,note_on,,,,,0,0,1,,,,0,,,63,31
514048,note_on,,,,,0,0,1,,,,0,,,67,46
514048,control_change,,,,,0,0,1,,,,0,64,0,,
514048,note_off,,,,,0,0,1,,,,0,,,46,0
514048,note_on,,,,,0,0,1,,,,0,,,39,33
514048,note_off,,,,,0,0,1,,,,0,,,68,0
514048,control_change,,,,,254,0,1,,,,0,64,0,,
514048,note_off,,,,,0,0,1,,,,0,,,62,0
514048,set_tempo,,,,,512,1,0,,800000,,,,,,
514048,control_change,,,,,0,0,1,,,,0,64,0,,
514048,note_off,,,,,0,0,1,,,,0,,,65,0
514104,control_change,,,,,56,0,1,,,,0,64,127,,
514273,control_change,,,,,169,0,1,,,,0,64,0,,
514443,control_change,,,,,170,0,1,,,,0,64,127,,
514560,set_tempo,,,,,512,1,0,,600000,,,,,,
514560,note_on,,,,,117,0,1,,,,0,,,51,28
515072,note_off,,,,,512,0,1,,,,0,,,39,0
515072,note_on,,,,,0,0,1,,,,0,,,55,28
515570,control_change,,,,,498,0,1,,,,0,64,0,,
515584,note_on,,,,,0,0,1,,,,0,,,70,49
515584,note_on,,,,,0,0,1,,,,0,,,67,31
515584,note_on,,,,,0,0,1,,,,0,,,58,28
515584,note_off,,,,,0,0,1,,,,0,,,55,0
515584,note_off,,,,,14,0,1,,,,0,,,63,0
515584,set_tempo,,,,,1024,1,0,,800000,,,,,,
515584,note_off,,,,,0,0,1,,,,0,,,67,0
515795,control_change,,,,,211,0,1,,,,0,64,127,,
516096,note_off,,,,,0,0,1,,,,0,,,58,0
516096,note_off,,,,,0,0,1,,,,0,,,70,0
516096,note_on,,,,,0,0,1,,,,0,,,63,35
516096,note_on,,,,,0,0,1,,,,0,,,67,53
516096,note_on,,,,,0,0,1,,,,0,,,55,33
516096,set_tempo,,,,,512,1,0,,625000,,,,,,
516096,note_off,,,,,301,0,1,,,,0,,,67,0
516190,control_change,,,,,94,0,1,,,,0,64,0,,
516387,control_change,,,,,197,0,1,,,,0,64,127,,
516608,note_off,,,,,0,0,1,,,,0,,,55,0
516608,note_off,,,,,0,0,1,,,,0,,,51,0
516608,note_off,,,,,0,0,1,,,,0,,,67,0
516608,set_tempo,,,,,512,1,0,,750000,,,,,,
516608,note_off,,,,,221,0,1,,,,0,,,63,0
516608,note_on,,,,,0,0,1,,,,0,,,68,56
516608,note_on,,,,,0,0,1,,,,0,,,65,38
516608,note_on,,,,,0,0,1,,,,0,,,51,37
516669,control_change,,,,,61,0,1,,,,0,64,0,,
516866,control_change,,,,,197,0,1,,,,0,64,127,,
517120,note_off,,,,,0,0,1,,,,0,,,65,0
517120,note_off,,,,,0,0,1,,,,0,,,68,0
517120,note_off,,,,,0,0,1,,,,0,,,51,0
517120,note_on,,,,,0,0,1,,,,0,,,67,44
517120,note_on,,,,,0,0,1,,,,0,,,70,62
517120,note_on,,,,,0,0,1,,,,0,,,39,40
517120,control_change,,,,,0,0,1,,,,0,64,0,,
517120,control_change,,,,,254,0,1,,,,0,64,0,,
517120,control_change,,,,,0,0,1,,,,0,64,0,,
517120,control_change,,,,,0,0,1,,,,0,64,0,,
517151,control_change,,,,,31,0,1,,,,0,64,127,,
517335,control_change,,,,,184,0,1,,,,0,64,0,,
517519,control_change,,,,,184,0,1,,,,0,64,127,,
517632,note_on,,,,,113,0,1,,,,0,,,55,42
517632,set_tempo,,,,,1024,1,0,,600000,,,,,,
518144,note_on,,,,,512,0,1,,,,0,,,58,42
518656,note_on,,,,,0,0,1,,,,0,,,63,42
518656,note_off,,,,,512,0,1,,,,0,,,58,0
519168,note_on,,,,,0,0,1,,,,0,,,75,51
519168,note_on,,,,,0,0,1,,,,0,,,79,69
519168,note_on,,,,,0,0,1,,,,0,,,58,42
519168,note_off,,,,,0,0,1,,,,0,,,70,0
519168,set_tempo,,,,,1536,1,0,,750000,,,,,,
519168,note_off,,,,,0,0,1,,,,0,,,63,0
519168,note_off,,,,,512,0,1,,,,0,,,67,0
519670,control_change,,,,,502,0,1,,,,0,64,0,,
519680,set_tempo,,,,,512,1,0,,800000,,,,,,
519680,note_on,,,,,0,0,1,,,,0,,,77,64
519680,note_off,,,,,0,0,1,,,,0,,,55,0
519680,note_off,,,,,10,0,1,,,,0,,,75,0
519680,note_off,,,,,0,0,1,,,,0,,,79,0
519680,note_off,,,,,0,0,1,,,,0,,,58,0
519680,note_on,,,,,0,0,1,,,,0,,,74,46
519680,note_on,,,,,0,0,1,,,,0,,,55,42
519854,control_change,,,,,174,0,1,,,,0,64,127,,
520192,set_tempo,,,,,512,1,0,,750000,,,,,,
520192,note_on,,,,,0,0,1,,,,0,,,44,42
520192,note_on,,,,,0,0,1,,,,0,,,32,30
520192,control_change,,,,,338,0,1,,,,0,64,0,,
520192,note_on,,,,,0,0,1,,,,0,,,71,51
520192,control_change,,,,,0,0,1,,,,0,64,0,,
520192,control_change,,,,,0,0,1,,,,0,64,0,,
520192,control_change,,,,,0,0,1,,,,0,64,0,,
520192,note_off,,,,,0,0,1,,,,0,,,74,0
520192,note_off,,,,,0,0,1,,,,0,,,77,0
520192,note_on,,,,,0,0,1,,,,0,,,74,69
520192,note_off,,,,,0,0,1,,,,0,,,39,0
520192,note_off,,,,,0,0,1,,,,0,,,55,0
520248,control_change,,,,,56,0,1,,,,0,64,127,,
520417,control_change,,,,,169,0,1,,,,0,64,0,,
520587,control_change,,,,,170,0,1,,,,0,64,127,,
520704,set_tempo,,,,,512,1,0,,600000,,,,,,
520704,note_on,,,,,117,0,1,,,,0,,,51,42
521216,note_off,,,,,0,0,1,,,,0,,,51,0
521216,note_off,,,,,512,0,1,,,,0,,,32,0
521216,note_on,,,,,0,0,1,,,,0,,,56,42
521714,control_change,,,,,498,0,1,,,,0,64,0,,
521728,note_on,,,,,0,0,1,,,,0,,,75,66
521728,set_tempo,,,,,1024,1,0,,750000,,,,,,
521728,note_off,,,,,14,0,1,,,,0,,,71,0
521728,note_off,,,,,0,0,1,,,,0,,,74,0
521728,note_on,,,,,0,0,1,,,,0,,,72,49
521728,note_on,,,,,0,0,1,,,,0,,,60,42
521939,control_change,,,,,211,0,1,,,,0,64,127,,
522240,set_tempo,,,,,512,1,0,,600000,,,,,,
522240,note_off,,,,,301,0,1,,,,0,,,72,0
522240,note_off,,,,,0,0,1,,,,0,,,75,0
522240,note_off,,,,,0,0,1,,,,0,,,56,0
522240,note_on,,,,,0,0,1,,,,0,,,70,47
522240,note_on,,,,,0,0,1,,,,0,,,56,42
522240,note_on,,,,,0,0,1,,,,0,,,74,63
522334,control_change,,,,,94,0,1,,,,0,64,0,,
522531,control_change,,,,,197,0,1,,,,0,64,127,,
522752,note_on,,,,,0,0,1,,,,0,,,68,45
522752,note_off,,,,,0,0,1,,,,0,,,44,0
522752,note_off,,,,,0,0,1,,,,0,,,74,0
522752,note_off,,,,,221,0,1,,,,0,,,70,0
522752,note_on,,,,,0,0,1,,,,0,,,51,42
522752,set_tempo,,,,,512,1,0,,705882,,,,,,
522752,note_on,,,,,0,0,1,,,,0,,,72,60
522752,note_off,,,,,0,0,1,,,,0,,,60,0
522813,control_change,,,,,61,0,1,,,,0,64,0,,
523010,control_change,,,,,197,0,1,,,,0,64,127,,
523264,note_on,,,,,0,0,1,,,,0,,,62,36
523264,note_on,,,,,0,0,1,,,,0,,,34,42
523264,note_off,,,,,0,0,1,,,,0,,,56,0
523264,set_tempo,,,,,512,1,0,,750000,,,,,,
523264,note_off,,,,,0,0,1,,,,0,,,51,0
523264,note_off,,,,,0,0,1,,,,0,,,72,0
523264,note_off,,,,,0,0,1,,,,0,,,68,0
523264,control_change,,,,,0,0,1,,,,0,64,0,,
523264,control_change,,,,,0,0,1,,,,0,64,0,,
523264,control_change,,,,,0,0,1,,,,0,64,0,,
523264,control_change,,,,,0,0,1,,,,0,64,0,,
523264,control_change,,,,,254,0,1,,,,0,64,0,,
523264,note_on,,,,,0,0,1,,,,0,,,67,36
523264,note_on,,,,,0,0,1,,,,0,,,70,58
523320,control_change,,,,,56,0,1,,,,0,64,127,,
523489,control_change,,,,,169,0,1,,,,0,64,0,,
523659,control_change,,,,,170,0,1,,,,0,64,127,,
523776,note_on,,,,,117,0,1,,,,0,,,46,37
523776,set_tempo,,,,,512,1,0,,600000,,,,,,
524288,note_on,,,,,0,0,1,,,,0,,,50,37
524288,note_off,,,,,512,0,1,,,,0,,,34,0
524786,control_change,,,,,498,0,1,,,,0,64,0,,
524800,note_on,,,,,0,0,1,,,,0,,,58,37
524800,note_on,,,,,0,0,1,,,,0,,,72,60
524800,note_on,,,,,0,0,1,,,,0,,,68,42
524800,note_off,,,,,0,0,1,,,,0,,,50,0
524800,note_off,,,,,0,0,1,,,,0,,,70,0
524800,note_off,,,,,14,0,1,,,,0,,,67,0
524800,set_tempo,,,,,1024,1,0,,705882,,,,,,
525011,control_change,,,,,211,0,1,,,,0,64,127,,
525312,set_tempo,,,,,512,1,0,,625000,,,,,,
525312,note_off,,,,,0,0,1,,,,0,,,72,0
525312,note_off,,,,,0,0,1,,,,0,,,58,0
525312,note_on,,,,,0,0,1,,,,0,,,67,37
525312,note_on,,,,,0,0,1,,,,0,,,70,53
525312,note_on,,,,,0,0,1,,,,0,,,50,37
525312,note_off,,,,,301,0,1,,,,0,,,68,0
525406,control_change,,,,,94,0,1,,,,0,64,0,,
525603,control_change,,,,,197,0,1,,,,0,64,127,,
525824,note_off,,,,,0,0,1,,,,0,,,50,0
525824,set_tempo,,,,,512,1,0,,800000,,,,,,
525824,note_on,,,,,0,0,1,,,,0,,,68,39
525824,note_on,,,,,0,0,1,,,,0,,,74,54
525824,note_on,,,,,0,0,1,,,,0,,,53,37
525824,note_off,,,,,0,0,1,,,,0,,,70,0
525824,note_off,,,,,221,0,1,,,,0,,,67,0
525885,control_change,,,,,61,0,1,,,,0,64,0,,
526082,control_change,,,,,197,0,1,,,,0,64,127,,
526336,control_change,,,,,254,0,1,,,,0,64,0,,
526336,control_change,,,,,0,0,1,,,,0,64,0,,
526336,control_change,,,,,0,0,1,,,,0,64,127,,
526336,control_change,,,,,0,0,1,,,,0,64,0,,
526336,note_off,,,,,0,0,1,,,,0,,,62,0
526336,note_off,,,,,0,0,1,,,,0,,,68,0
526336,note_off,,,,,0,0,1,,,,0,,,74,0
526336,note_off,,,,,0,0,1,,,,0,,,46,0
526336,note_off,,,,,0,0,1,,,,0,,,53,0
526336,note_on,,,,,0,0,1,,,,0,,,63,31
526336,note_on,,,,,0,0,1,,,,0,,,67,31
526336,note_on,,,,,0,0,1,,,,0,,,39,26
526336,note_on,,,,,0,0,1,,,,0,,,75,52
526534,control_change,,,,,198,0,1,,,,0,64,0,,
526765,control_change,,,,,231,0,1,,,,0,64,127,,
526848,note_on,,,,,83,0,1,,,,0,,,46,20
526848,set_tempo,,,,,1024,1,0,,600000,,,,,,
527360,note_off,,,,,512,0,1,,,,0,,,39,0
527360,note_off,,,,,0,0,1,,,,0,,,46,0
527360,note_on,,,,,0,0,1,,,,0,,,51,20
527872,note_off,,,,,512,0,1,,,,0,,,51,0
527872,note_on,,,,,0,0,1,,,,0,,,55,20
528384,note_off,,,,,512,0,1,,,,0,,,55,0
528384,note_on,,,,,0,0,1,,,,0,,,51,20
528896,note_on,,,,,0,0,1,,,,0,,,67,27
528896,set_tempo,,,,,2048,1,0,,800000,,,,,,
528896,note_off,,,,,512,0,1,,,,0,,,63,0
528896,note_off,,,,,0,0,1,,,,0,,,51,0
528896,note_off,,,,,0,0,1,,,,0,,,75,0
528896,note_off,,,,,0,0,1,,,,0,,,67,0
528896,note_on,,,,,0,0,1,,,,0,,,46,20
528896,note_on,,,,,0,0,1,,,,0,,,70,43
529408,set_tempo,,,,,512,1,0,,750000,,,,,,
529408,control_change,,,,,0,0,1,,,,0,64,127,,
529408,note_off,,,,,0,0,1,,,,0,,,67,0
529408,note_off,,,,,0,0,1,,,,0,,,70,0
529408,note_off,,,,,0,0,1,,,,0,,,46,0
529408,note_on,,,,,0,0,1,,,,0,,,68,27
529408,note_on,,,,,0,0,1,,,,0,,,70,43
529408,note_on,,,,,0,0,1,,,,0,,,34,26
529408,control_change,,,,,512,0,1,,,,0,64,0,,
529656,control_change,,,,,248,0,1,,,,0,64,0,,
529873,control_change,,,,,217,0,1,,,,0,64,127,,
529920,note_on,,,,,47,0,1,,,,0,,,46,20
529920,set_tempo,,,,,512,1,0,,600000,,,,,,
530432,note_on,,,,,0,0,1,,,,0,,,53,20
530432,note_off,,,,,0,0,1,,,,0,,,46,0
530432,note_off,,,,,512,0,1,,,,0,,,34,0
530944,note_off,,,,,512,0,1,,,,0,,,70,0
530944,note_on,,,,,0,0,1,,,,0,,,72,46
530944,note_on,,,,,0,0,1,,,,0,,,56,20
530944,note_off,,,,,0,0,1,,,,0,,,53,0
530944,set_tempo,,,,,1024,1,0,,800000,,,,,,
531456,note_off,,,,,512,0,1,,,,0,,,72,0
531456,note_on,,,,,0,0,1,,,,0,,,70,43
531456,note_on,,,,,0,0,1,,,,0,,,53,20
531456,note_off,,,,,0,0,1,,,,0,,,56,0
531456,set_tempo,,,,,512,1,0,,666666,,,,,,
531968,note_off,,,,,512,0,1,,,,0,,,70,0
531968,note_on,,,,,0,0,1,,,,0,,,46,20
531968,note_off,,,,,0,0,1,,,,0,,,53,0
531968,note_on,,,,,0,0,1,,,,0,,,74,47
532480,note_off,,,,,0,0,1,,,,0,,,74,0
532480,note_on,,,,,0,0,1,,,,0,,,39,26
532480,note_on,,,,,0,0,1,,,,0,,,77,49
532480,note_on,,,,,0,0,1,,,,0,,,67,27
532480,note_off,,,,,0,0,1,,,,0,,,46,0
532480,note_off,,,,,0,0,1,,,,0,,,68,0
532480,control_change,,,,,0,0,1,,,,0,64,127,,
532480,control_change,,,,,512,0,1,,,,0,64,0,,
532659,control_change,,,,,179,0,1,,,,0,64,0,,
532868,control_change,,,,,209,0,1,,,,0,64,127,,
532992,note_on,,,,,124,0,1,,,,0,,,46,20
532992,set_tempo,,,,,1536,1,0,,600000,,,,,,
533504,note_on,,,,,0,0,1,,,,0,,,51,20
533504,note_off,,,,,512,0,1,,,,0,,,46,0
534016,set_tempo,,,,,1024,1,0,,705882,,,,,,
534016,note_off,,,,,512,0,1,,,,0,,,77,0
534016,note_on,,,,,0,0,1,,,,0,,,75,37
534016,note_off,,,,,0,0,1,,,,0,,,51,0
534016,note_on,,,,,0,0,1,,,,0,,,55,20
534031,control_change,,,,,15,0,1,,,,0,64,0,,
534299,control_change,,,,,268,0,1,,,,0,64,127,,
534528,note_on,,,,,229,0,1,,,,0,,,51,20
534528,set_tempo,,,,,512,1,0,,625000,,,,,,
535040,note_on,,,,,0,0,1,,,,0,,,46,20
535040,note_on,,,,,0,0,1,,,,0,,,63,24
535040,note_off,,,,,0,0,1,,,,0,,,55,0
535040,note_on,,,,,0,0,1,,,,0,,,67,40
535040,note_off,,,,,0,0,1,,,,0,,,39,0
535040,note_off,,,,,512,0,1,,,,0,,,67,0
535040,set_tempo,,,,,512,1,0,,800000,,,,,,
535040,note_off,,,,,0,0,1,,,,0,,,51,0
535040,note_off,,,,,0,0,1,,,,0,,,75,0
535552,control_change,,,,,512,0,1,,,,0,64,0,,
535552,note_off,,,,,0,0,1,,,,0,,,63,0
535552,note_off,,,,,0,0,1,,,,0,,,67,0
535552,note_off,,,,,0,0,1,,,,0,,,46,0
535552,note_on,,,,,0,0,1,,,,0,,,60,27
535552,note_on,,,,,0,0,1,,,,0,,,70,43
535552,note_on,,,,,0,0,1,,,,0,,,34,26
535552,control_change,,,,,0,0,1,,,,0,64,127,,
535711,control_change,,,,,159,0,1,,,,0,64,0,,
535923,control_change,,,,,212,0,1,,,,0,64,127,,
536064,set_tempo,,,,,1024,1,0,,600000,,,,,,
536064,note_on,,,,,141,0,1,,,,0,,,46,20
536576,note_on,,,,,0,0,1,,,,0,,,50,20
536576,note_off,,,,,512,0,1,,,,0,,,34,0
537088,note_on,,,,,0,0,1,,,,0,,,53,20
537088,note_on,,,,,0,0,1,,,,0,,,68,39
537088,note_on,,,,,0,0,1,,,,0,,,62,24
537088,note_off,,,,,0,0,1,,,,0,,,50,0
537088,note_off,,,,,0,0,1,,,,0,,,70,0
537088,note_off,,,,,0,0,1,,,,0,,,60,0
537088,control_change,,,,,512,0,1,,,,0,64,0,,
537088,set_tempo,,,,,1024,1,0,,750000,,,,,,
537300,control_change,,,,,212,0,1,,,,0,64,127,,
537600,set_tempo,,,,,512,1,0,,800000,,,,,,
537600,note_off,,,,,0,0,1,,,,0,,,53,0
537600,note_on,,,,,0,0,1,,,,0,,,63,23
537600,note_on,,,,,0,0,1,,,,0,,,67,37
537600,note_on,,,,,0,0,1,,,,0,,,55,20
537600,note_off,,,,,0,0,1,,,,0,,,68,0
537600,note_off,,,,,300,0,1,,,,0,,,62,0
537724,control_change,,,,,124,0,1,,,,0,64,0,,
537909,control_change,,,,,185,0,1,,,,0,64,127,,
538112,note_off,,,,,0,0,1,,,,0,,,55,0
538112,note_off,,,,,0,0,1,,,,0,,,67,0
538112,note_on,,,,,0,0,1,,,,0,,,65,34
538112,note_on,,,,,0,0,1,,,,0,,,56,20
538112,set_tempo,,,,,512,1,0,,857142,,,,,,
538112,note_on,,,,,0,0,1,,,,0,,,62,21
538112,note_off,,,,,203,0,1,,,,0,,,63,0
538227,control_change,,,,,115,0,1,,,,0,64,0,,
538359,control_change,,,,,132,0,1,,,,0,64,127,,
538624,control_change,,,,,265,0,1,,,,0,64,0,,
538624,control_change,,,,,0,0,1,,,,0,64,0,,
538624,note_off,,,,,0,0,1,,,,0,,,62,0
538624,note_off,,,,,0,0,1,,,,0,,,46,0
538624,note_off,,,,,0,0,1,,,,0,,,56,0
538624,note_on,,,,,0,0,1,,,,0,,,55,20
538624,note_off,,,,,0,0,1,,,,0,,,65,0
538624,note_on,,,,,0,0,1,,,,0,,,63,32
538658,control_change,,,,,34,0,1,,,,0,64,127,,
538931,control_change,,,,,273,0,1,,,,0,64,0,,
539136,set_tempo,,,,,1024,1,0,,923076,,,,,,
539136,note_on,,,,,205,0,1,,,,0,,,51,18
539648,note_on,,,,,512,0,1,,,,0,,,46,16
539648,set_tempo,,,,,512,1,0,,750000,,,,,,
539688,note_off,,,,,40,0,1,,,,0,,,51,0
540160,note_on,,,,,472,0,1,,,,0,,,43,14
540200,note_off,,,,,40,0,1,,,,0,,,46,0
540672,set_tempo,,,,,1024,1,0,,800000,,,,,,
540672,note_on,,,,,472,0,1,,,,0,,,44,13
540712,note_off,,,,,40,0,1,,,,0,,,43,0
541184,note_on,,,,,472,0,1,,,,0,,,41,11
541184,set_tempo,,,,,512,1,0,,857142,,,,,,
541224,note_off,,,,,40,0,1,,,,0,,,44,0
541696,note_off,,,,,0,0,1,,,,0,,,63,0
541696,control_change,,,,,472,0,1,,,,0,64,0,,
541696,set_tempo,,,,,512,1,0,,705882,,,,,,
541696,note_on,,,,,0,0,1,,,,0,,,39,9
541696,note_on,,,,,0,0,1,,,,0,,,63,27
541696,note_on,,,,,0,0,1,,,,0,,,55,12
541696,note_off,,,,,0,0,1,,,,0,,,55,0
541696,control_change,,,,,0,0,1,,,,0,64,0,,
541736,note_off,,,,,40,0,1,,,,0,,,41,0
542189,control_change,,,,,453,0,1,,,,0,64,127,,
543232,note_on,,,,,0,0,1,,,,0,,,51,12
543232,note_on,,,,,0,0,1,,,,0,,,39,12
543232,note_on,,,,,0,0,1,,,,0,,,63,27
543232,note_on,,,,,0,0,1,,,,0,,,55,12
543232,note_off,,,,,0,0,1,,,,0,,,39,0
543232,note_off,,,,,0,0,1,,,,0,,,63,0
543232,note_off,,,,,1043,0,1,,,,0,,,55,0
543232,set_tempo,,,,,1536,1,0,,666666,,,,,,
544768,note_on,,,,,0,0,1,,,,0,,,51,9
544768,note_on,,,,,0,0,1,,,,0,,,39,9
544768,note_on,,,,,0,0,1,,,,0,,,63,27
544768,note_on,,,,,0,0,1,,,,0,,,55,12
544768,note_off,,,,,0,0,1,,,,0,,,51,0
544768,note_off,,,,,0,0,1,,,,0,,,39,0
544768,note_off,,,,,0,0,1,,,,0,,,63,0
544768,note_off,,,,,0,0,1,,,,0,,,55,0
544768,control_change,,,,,1536,0,1,,,,0,64,127,,
544768,control_change,,,,,0,0,1,,,,0,64,127,,
546304,note_on,,,,,0,0,1,,,,0,,,51,12
546304,note_off,,,,,0,0,1,,,,0,,,51,0
546304,note_off,,,,,0,0,1,,,,0,,,39,0
546304,note_off,,,,,0,0,1,,,,0,,,63,0
546304,note_off,,,,,1536,0,1,,,,0,,,55,0
546304,note_on,,,,,0,0,1,,,,0,,,63,23
546304,note_on,,,,,0,0,1,,,,0,,,55,8
546304,note_on,,,,,0,0,1,,,,0,,,39,12
547840,note_off,,,,,0,0,1,,,,0,,,39,0
547840,note_off,,,,,0,0,1,,,,0,,,51,0
547840,control_change,,,,,1536,0,1,,,,0,64,127,,
547840,note_on,,,,,0,0,1,,,,0,,,63,27
547840,note_on,,,,,0,0,1,,,,0,,,39,6
547840,note_on,,,,,0,0,1,,,,0,,,51,18
547840,note_off,,,,,0,0,1,,,,0,,,55,0
547840,control_change,,,,,0,0,1,,,,0,64,127,,
547840,note_off,,,,,0,0,1,,,,0,,,63,0
547840,note_on,,,,,0,0,1,,,,0,,,55,15
547840,note_on,,,,,0,0,1,,,,0,,,61,15
547840,time_signature,2,2,48,8,4608,1,0,,,,,,,,
547840,set_tempo,,,,,0,1,0,,600000,,,,,,
548352,set_tempo,,,,,512,1,0,,500000,,,,,,
548352,note_off,,,,,0,0,1,,,,0,,,51,0
548352,note_off,,,,,512,0,1,,,,0,,,63,0
548352,note_on,,,,,0,0,1,,,,0,,,63,27
548352,note_on,,,,,0,0,1,,,,0,,,51,18
548864,set_tempo,,,,,512,1,0,,461538,,,,,,
548864,note_off,,,,,0,0,1,,,,0,,,51,0
548864,note_on,,,,,0,0,1,,,,0,,,51,18
548864,note_on,,,,,0,0,1,,,,0,,,63,27
548864,note_off,,,,,512,0,1,,,,0,,,63,0
549376,note_on,,,,,0,0,1,,,,0,,,51,18
549376,note_on,,,,,0,0,1,,,,0,,,63,27
549376,note_off,,,,,512,0,1,,,,0,,,63,0
549376,note_off,,,,,0,0,1,,,,0,,,51,0
549888,note_on,,,,,0,0,1,,,,0,,,61,15
549888,note_on,,,,,0,0,1,,,,0,,,39,6
549888,note_on,,,,,0,0,1,,,,0,,,51,18
549888,note_on,,,,,0,0,1,,,,0,,,55,15
549888,note_on,,,,,0,0,1,,,,0,,,63,27
549888,note_off,,,,,0,0,1,,,,0,,,51,0
549888,note_off,,,,,0,0,1,,,,0,,,39,0
549888,note_off,,,,,0,0,1,,,,0,,,61,0
549888,note_off,,,,,0,0,1,,,,0,,,63,0
549888,note_off,,,,,512,0,1,,,,0,,,55,0
550400,note_on,,,,,0,0,1,,,,0,,,51,18
550400,note_off,,,,,512,0,1,,,,0,,,63,0
550400,note_on,,,,,0,0,1,,,,0,,,63,27
550400,note_off,,,,,0,0,1,,,,0,,,51,0
550912,note_on,,,,,0,0,1,,,,0,,,63,27
550912,note_on,,,,,0,0,1,,,,0,,,51,18
550912,note_off,,,,,0,0,1,,,,0,,,51,0
550912,note_off,,,,,512,0,1,,,,0,,,63,0
551424,note_off,,,,,512,0,1,,,,0,,,63,0
551424,note_on,,,,,0,0,1,,,,0,,,63,27
551424,note_off,,,,,0,0,1,,,,0,,,51,0
551424,note_on,,,,,0,0,1,,,,0,,,51,18
551936,note_on,,,,,0,0,1,,,,0,,,39,6
551936,note_off,,,,,0,0,1,,,,0,,,61,0
551936,note_off,,,,,0,0,1,,,,0,,,51,0
551936,note_off,,,,,0,0,1,,,,0,,,39,0
551936,note_on,,,,,0,0,1,,,,0,,,55,15
551936,note_on,,,,,0,0,1,,,,0,,,61,15
551936,note_on,,,,,0,0,1,,,,0,,,63,27
551936,note_on,,,,,0,0,1,,,,0,,,51,18
551936,note_off,,,,,0,0,1,,,,0,,,63,0
551936,note_off,,,,,0,0,1,,,,0,,,55,0
551936,control_change,,,,,512,0,1,,,,0,64,127,,
551936,control_change,,,,,0,0,1,,,,0,64,127,,
552448,set_tempo,,,,,3584,1,0,,545454,,,,,,
552448,note_off,,,,,0,0,1,,,,0,,,51,0
552448,note_on,,,,,0,0,1,,,,0,,,51,18
552448,note_on,,,,,0,0,1,,,,0,,,63,27
552448,note_off,,,,,512,0,1,,,,0,,,63,0
552960,note_off,,,,,0,0,1,,,,0,,,51,0
552960,note_on,,,,,0,0,1,,,,0,,,63,27
552960,note_off,,,,,512,0,1,,,,0,,,63,0
552960,note_on,,,,,0,0,1,,,,0,,,51,18
553472,note_off,,,,,0,0,1,,,,0,,,51,0
553472,set_tempo,,,,,1024,1,0,,600000,,,,,,
553472,note_on,,,,,0,0,1,,,,0,,,51,18
553472,note_on,,,,,0,0,1,,,,0,,,63,27
553472,note_off,,,,,512,0,1,,,,0,,,63,0
553984,note_off,,,,,0,0,1,,,,0,,,51,0
553984,note_on,,,,,0,0,1,,,,0,,,51,18
553984,note_off,,,,,512,0,1,,,,0,,,63,0
553984,note_on,,,,,0,0,1,,,,0,,,63,27
553984,set_tempo,,,,,512,1,0,,666666,,,,,,
554496,note_off,,,,,0,0,1,,,,0,,,39,0
554496,set_tempo,,,,,512,1,0,,545454,,,,,,
554496,note_off,,,,,512,0,1,,,,0,,,63,0
554496,note_on,,,,,0,0,1,,,,0,,,75,36
554496,note_off,,,,,0,0,1,,,,0,,,55,0
554496,note_off,,,,,0,0,1,,,,0,,,61,0
554496,note_off,,,,,0,0,1,,,,0,,,51,0
555008,note_on,,,,,0,0,1,,,,0,,,75,36
555008,note_off,,,,,512,0,1,,,,0,,,75,0
555520,note_on,,,,,0,0,1,,,,0,,,75,36
555520,set_tempo,,,,,1024,1,0,,600000,,,,,,
555520,note_off,,,,,512,0,1,,,,0,,,75,0
556032,set_tempo,,,,,0,1,0,,625000,,,,,,
556032,note_on,,,,,0,0,1,,,,0,,,44,20
556032,note_on,,,,,0,0,1,,,,0,,,80,47
556032,note_off,,,,,0,0,1,,,,0,,,75,0
556032,note_on,,,,,0,0,1,,,,0,,,32,14
556032,control_change,,,,,512,0,1,,,,0,64,0,,
556032,control_change,,,,,0,0,1,,,,0,64,127,,
556032,key_signature,,,,,512,1,0,Abm,,,,,,,
556290,control_change,,,,,258,0,1,,,,0,64,0,,
556544,set_tempo,,,,,512,1,0,,461538,,,,,,
556544,note_on,,,,,0,0,1,,,,0,,,56,11
556544,note_on,,,,,0,0,1,,,,0,,,63,19
556544,note_on,,,,,254,0,1,,,,0,,,71,12
556544,note_on,,,,,0,0,1,,,,0,,,75,21
556586,control_change,,,,,42,0,1,,,,0,64,127,,
557056,note_off,,,,,470,0,1,,,,0,,,80,0
557056,note_on,,,,,0,0,1,,,,0,,,83,45
557056,note_on,,,,,0,0,1,,,,0,,,56,12
557056,note_on,,,,,0,0,1,,,,0,,,63,20
557056,note_off,,,,,0,0,1,,,,0,,,56,0
557056,note_off,,,,,0,0,1,,,,0,,,63,0
557568,note_on,,,,,0,0,1,,,,0,,,63,21
557568,note_on,,,,,0,0,1,,,,0,,,56,13
557568,note_on,,,,,0,0,1,,,,0,,,71,12
557568,note_on,,,,,0,0,1,,,,0,,,75,21
557568,note_off,,,,,0,0,1,,,,0,,,56,0
557568,note_off,,,,,0,0,1,,,,0,,,63,0
557568,note_off,,,,,0,0,1,,,,0,,,75,0
557568,note_off,,,,,512,0,1,,,,0,,,71,0
558080,note_off,,,,,0,0,1,,,,0,,,63,0
558080,note_off,,,,,0,0,1,,,,0,,,56,0
558080,note_on,,,,,0,0,1,,,,0,,,63,23
558080,note_on,,,,,0,0,1,,,,0,,,80,44
558080,note_off,,,,,512,0,1,,,,0,,,83,0
558080,note_on,,,,,0,0,1,,,,0,,,56,14
558592,note_off,,,,,512,0,1,,,,0,,,71,0
558592,note_on,,,,,0,0,1,,,,0,,,71,12
558592,note_on,,,,,0,0,1,,,,0,,,75,21
558592,note_off,,,,,0,0,1,,,,0,,,75,0
559104,note_off,,,,,512,0,1,,,,0,,,80,0
559104,note_on,,,,,0,0,1,,,,0,,,83,42
559616,note_off,,,,,512,0,1,,,,0,,,71,0
559616,note_off,,,,,0,0,1,,,,0,,,75,0
559616,note_on,,,,,0,0,1,,,,0,,,71,12
559616,note_on,,,,,0,0,1,,,,0,,,75,21
560128,note_off,,,,,0,0,1,,,,0,,,63,0
560128,note_on,,,,,0,0,1,,,,0,,,80,47
560128,note_on,,,,,0,0,1,,,,0,,,32,14
560128,note_on,,,,,0,0,1,,,,0,,,44,20
560128,set_tempo,,,,,3584,1,0,,666666,,,,,,
560128,note_off,,,,,0,0,1,,,,0,,,83,0
560128,note_off,,,,,0,0,1,,,,0,,,56,0
560128,control_change,,,,,512,0,1,,,,0,64,0,,
560128,control_change,,,,,0,0,1,,,,0,64,127,,
560128,note_off,,,,,0,0,1,,,,0,,,32,0
560128,note_off,,,,,0,0,1,,,,0,,,44,0
560283,control_change,,,,,155,0,1,,,,0,64,0,,
560630,control_change,,,,,347,0,1,,,,0,64,127,,
560640,note_on,,,,,0,0,1,,,,0,,,75,21
560640,set_tempo,,,,,512,1,0,,461538,,,,,,
560640,note_off,,,,,10,0,1,,,,0,,,71,0
560640,note_off,,,,,0,0,1,,,,0,,,75,0
560640,note_on,,,,,0,0,1,,,,0,,,71,12
560640,note_on,,,,,0,0,1,,,,0,,,56,11
560640,note_on,,,,,0,0,1,,,,0,,,63,19
561152,note_off,,,,,512,0,1,,,,0,,,80,0
561152,note_on,,,,,0,0,1,,,,0,,,83,45
561152,note_on,,,,,0,0,1,,,,0,,,56,12
561152,note_on,,,,,0,0,1,,,,0,,,63,20
561152,note_off,,,,,0,0,1,,,,0,,,56,0
561152,note_off,,,,,0,0,1,,,,0,,,63,0
561664,note_off,,,,,0,0,1,,,,0,,,63,0
561664,note_off,,,,,512,0,1,,,,0,,,71,0
561664,note_on,,,,,0,0,1,,,,0,,,75,21
561664,note_on,,,,,0,0,1,,,,0,,,56,13
561664,note_off,,,,,0,0,1,,,,0,,,75,0
561664,note_on,,,,,0,0,1,,,,0,,,63,22
561664,note_on,,,,,0,0,1,,,,0,,,71,12
561664,note_off,,,,,0,0,1,,,,0,,,56,0
562176,control_change,,,,,512,0,1,,,,0,64,0,,
562176,note_off,,,,,0,0,1,,,,0,,,56,0
562176,set_tempo,,,,,1536,1,0,,500000,,,,,,
562176,note_off,,,,,0,0,1,,,,0,,,83,0
562176,note_off,,,,,0,0,1,,,,0,,,63,0
562176,note_on,,,,,0,0,1,,,,0,,,82,43
562176,note_on,,,,,0,0,1,,,,0,,,56,14
562176,note_on,,,,,0,0,1,,,,0,,,63,23
562562,control_change,,,,,386,0,1,,,,0,64,127,,
562688,note_on,,,,,0,0,1,,,,0,,,75,21
562688,note_on,,,,,0,0,1,,,,0,,,71,12
562688,note_off,,,,,0,0,1,,,,0,,,75,0
562688,note_off,,,,,126,0,1,,,,0,,,71,0
563200,note_off,,,,,512,0,1,,,,0,,,82,0
563200,note_on,,,,,0,0,1,,,,0,,,80,41
563712,set_tempo,,,,,1536,1,0,,545454,,,,,,
563712,note_off,,,,,512,0,1,,,,0,,,71,0
563712,note_off,,,,,0,0,1,,,,0,,,75,0
563712,note_on,,,,,0,0,1,,,,0,,,71,12
563712,note_on,,,,,0,0,1,,,,0,,,75,21
564224,control_change,,,,,512,0,1,,,,0,64,127,,
564224,set_tempo,,,,,512,1,0,,705882,,,,,,
564224,note_on,,,,,0,0,1,,,,0,,,44,20
564224,note_on,,,,,0,0,1,,,,0,,,32,14
564224,note_off,,,,,0,0,1,,,,0,,,63,0
564224,note_on,,,,,0,0,1,,,,0,,,80,39
564224,note_off,,,,,0,0,1,,,,0,,,44,0
564224,note_off,,,,,0,0,1,,,,0,,,32,0
564224,note_off,,,,,0,0,1,,,,0,,,80,0
564224,control_change,,,,,0,0,1,,,,0,64,0,,
564224,control_change,,,,,0,0,1,,,,0,64,127,,
564224,note_off,,,,,0,0,1,,,,0,,,56,0
564224,note_off,,,,,0,0,1,,,,0,,,71,0
564224,note_off,,,,,0,0,1,,,,0,,,75,0
564431,control_change,,,,,0,0,1,,,,0,64,0,,
564431,control_change,,,,,207,0,1,,,,0,64,0,,
564706,control_change,,,,,275,0,1,,,,0,64,127,,
564706,control_change,,,,,0,0,1,,,,0,64,127,,
564736,set_tempo,,,,,512,1,0,,461538,,,,,,
564736,note_on,,,,,0,0,1,,,,0,,,75,33
564736,note_on,,,,,0,0,1,,,,0,,,56,11
564736,note_on,,,,,0,0,1,,,,0,,,71,24
564736,note_off,,,,,30,0,1,,,,0,,,80,0
564736,note_on,,,,,0,0,1,,,,0,,,63,19
565248,note_on,,,,,0,0,1,,,,0,,,63,20
565248,note_on,,,,,0,0,1,,,,0,,,56,12
565248,note_on,,,,,0,0,1,,,,0,,,71,25
565248,note_off,,,,,512,0,1,,,,0,,,71,0
565248,note_off,,,,,0,0,1,,,,0,,,75,0
565248,note_off,,,,,0,0,1,,,,0,,,56,0
565248,note_off,,,,,0,0,1,,,,0,,,63,0
565248,note_on,,,,,0,0,1,,,,0,,,75,36
565760,note_on,,,,,0,0,1,,,,0,,,63,22
565760,note_off,,,,,512,0,1,,,,0,,,71,0
565760,note_off,,,,,0,0,1,,,,0,,,75,0
565760,note_on,,,,,0,0,1,,,,0,,,75,38
565760,note_off,,,,,0,0,1,,,,0,,,56,0
565760,note_off,,,,,0,0,1,,,,0,,,63,0
565760,note_on,,,,,0,0,1,,,,0,,,71,26
565760,note_on,,,,,0,0,1,,,,0,,,56,13
566255,control_change,,,,,495,0,1,,,,0,64,0,,
566255,control_change,,,,,0,0,1,,,,0,64,0,,
566272,note_off,,,,,17,0,1,,,,0,,,71,0
566272,note_off,,,,,0,0,1,,,,0,,,75,0
566272,note_off,,,,,0,0,1,,,,0,,,56,0
566272,note_off,,,,,0,0,1,,,,0,,,63,0
566272,note_on,,,,,0,0,1,,,,0,,,75,43
566272,note_on,,,,,0,0,1,,,,0,,,56,14
566272,note_on,,,,,0,0,1,,,,0,,,63,23
566272,set_tempo,,,,,1536,1,0,,545454,,,,,,
566496,control_change,,,,,0,0,1,,,,0,64,127,,
566496,control_change,,,,,224,0,1,,,,0,64,127,,
566784,set_tempo,,,,,512,1,0,,461538,,,,,,
566784,note_on,,,,,0,0,1,,,,0,,,71,38
566784,note_on,,,,,0,0,1,,,,0,,,68,26
566784,note_off,,,,,288,0,1,,,,0,,,75,0
567296,note_on,,,,,0,0,1,,,,0,,,71,36
567296,note_off,,,,,0,0,1,,,,0,,,71,0
567296,note_on,,,,,0,0,1,,,,0,,,68,24
567296,note_off,,,,,512,0,1,,,,0,,,68,0
567808,note_off,,,,,512,0,1,,,,0,,,68,0
567808,note_off,,,,,0,0,1,,,,0,,,71,0
567808,note_on,,,,,0,0,1,,,,0,,,68,22
567808,note_on,,,,,0,0,1,,,,0,,,71,34
568320,note_on,,,,,0,0,1,,,,0,,,71,38
568320,note_off,,,,,0,0,1,,,,0,,,63,0
568320,note_off,,,,,0,0,1,,,,0,,,44,0
568320,note_off,,,,,0,0,1,,,,0,,,32,0
568320,note_off,,,,,0,0,1,,,,0,,,71,0
568320,note_off,,,,,0,0,1,,,,0,,,68,0
568320,control_change,,,,,0,0,1,,,,0,64,127,,
568320,control_change,,,,,512,0,1,,,,0,64,127,,
568320,note_off,,,,,0,0,1,,,,0,,,56,0
568832,note_on,,,,,512,0,1,,,,0,,,63,24
568832,note_on,,,,,0,0,1,,,,0,,,68,36
568872,note_off,,,,,40,0,1,,,,0,,,71,0
569174,note_off,,,,,0,0,1,,,,0,,,68,0
569174,note_off,,,,,302,0,1,,,,0,,,63,0
569344,note_on,,,,,170,0,1,,,,0,,,63,22
569344,note_on,,,,,0,0,1,,,,0,,,68,34
569686,note_off,,,,,342,0,1,,,,0,,,63,0
569686,note_off,,,,,0,0,1,,,,0,,,68,0
569856,note_on,,,,,170,0,1,,,,0,,,63,21
569856,note_on,,,,,0,0,1,,,,0,,,68,33
570198,note_off,,,,,0,0,1,,,,0,,,68,0
570198,note_off,,,,,342,0,1,,,,0,,,63,0
570368,note_on,,,,,0,0,1,,,,0,,,68,31
570368,note_on,,,,,0,0,1,,,,0,,,63,19
570368,set_tempo,,,,,3584,1,0,,500000,,,,,,
570368,note_on,,,,,170,0,1,,,,0,,,59,19
570383,control_change,,,,,15,0,1,,,,0,64,0,,
570383,control_change,,,,,0,0,1,,,,0,64,0,,
570880,note_on,,,,,0,0,1,,,,0,,,51,6
570880,note_on,,,,,0,0,1,,,,0,,,62,30
570880,note_on,,,,,497,0,1,,,,0,,,59,18
570880,note_on,,,,,0,0,1,,,,0,,,56,15
570880,set_tempo,,,,,512,1,0,,461538,,,,,,
570920,note_off,,,,,0,0,1,,,,0,,,63,0
570920,note_off,,,,,0,0,1,,,,0,,,68,0
570920,note_off,,,,,40,0,1,,,,0,,,59,0
571222,note_off,,,,,0,0,1,,,,0,,,51,0
571222,note_off,,,,,0,0,1,,,,0,,,62,0
571222,note_off,,,,,302,0,1,,,,0,,,59,0
571222,note_off,,,,,0,0,1,,,,0,,,56,0
571392,note_on,,,,,0,0,1,,,,0,,,51,10
571392,note_on,,,,,0,0,1,,,,0,,,62,32
571392,note_on,,,,,170,0,1,,,,0,,,59,20
571392,note_on,,,,,0,0,1,,,,0,,,56,19
571734,note_off,,,,,342,0,1,,,,0,,,59,0
571734,note_off,,,,,0,0,1,,,,0,,,62,0
571734,note_off,,,,,0,0,1,,,,0,,,51,0
571734,note_off,,,,,0,0,1,,,,0,,,56,0
571904,set_tempo,,,,,1024,1,0,,500000,,,,,,
571904,note_on,,,,,0,0,1,,,,0,,,51,13
571904,note_on,,,,,170,0,1,,,,0,,,59,23
571904,note_on,,,,,0,0,1,,,,0,,,62,35
571904,note_on,,,,,0,0,1,,,,0,,,56,22
572246,note_off,,,,,342,0,1,,,,0,,,59,0
572246,note_off,,,,,0,0,1,,,,0,,,62,0
572246,note_off,,,,,0,0,1,,,,0,,,51,0
572246,note_off,,,,,0,0,1,,,,0,,,56,0
572416,note_on,,,,,0,0,1,,,,0,,,51,21
572416,note_on,,,,,0,0,1,,,,0,,,56,30
572416,set_tempo,,,,,512,1,0,,600000,,,,,,
572416,control_change,,,,,170,0,1,,,,0,64,0,,
572416,control_change,,,,,0,0,1,,,,0,64,0,,
572416,note_on,,,,,0,0,1,,,,0,,,59,28
572416,note_on,,,,,0,0,1,,,,0,,,62,40
572928,set_tempo,,,,,512,1,0,,500000,,,,,,
572928,note_on,,,,,0,0,1,,,,0,,,55,23
572928,note_on,,,,,0,0,1,,,,0,,,51,14
572928,note_on,,,,,0,0,1,,,,0,,,63,33
572928,note_on,,,,,512,0,1,,,,0,,,58,21
572968,note_off,,,,,0,0,1,,,,0,,,56,0
572968,note_off,,,,,0,0,1,,,,0,,,51,0
572968,note_off,,,,,0,0,1,,,,0,,,62,0
572968,note_off,,,,,40,0,1,,,,0,,,59,0
573270,note_off,,,,,0,0,1,,,,0,,,55,0
573270,note_off,,,,,0,0,1,,,,0,,,51,0
573270,note_off,,,,,0,0,1,,,,0,,,63,0
573270,note_off,,,,,302,0,1,,,,0,,,58,0
573440,note_on,,,,,0,0,1,,,,0,,,51,10
573440,note_on,,,,,0,0,1,,,,0,,,55,19
573440,note_on,,,,,170,0,1,,,,0,,,58,19
573440,note_on,,,,,0,0,1,,,,0,,,63,31
573782,note_off,,,,,0,0,1,,,,0,,,55,0
573782,note_off,,,,,342,0,1,,,,0,,,58,0
573782,note_off,,,,,0,0,1,,,,0,,,63,0
573782,note_off,,,,,0,0,1,,,,0,,,51,0
573952,note_on,,,,,0,0,1,,,,0,,,63,28
573952,note_on,,,,,170,0,1,,,,0,,,58,16
573952,note_on,,,,,0,0,1,,,,0,,,51,7
573952,note_on,,,,,0,0,1,,,,0,,,55,16
573952,set_tempo,,,,,1024,1,0,,600000,,,,,,
574294,note_off,,,,,342,0,1,,,,0,,,58,0
574294,note_off,,,,,0,0,1,,,,0,,,63,0
574294,note_off,,,,,0,0,1,,,,0,,,51,0
574294,note_off,,,,,0,0,1,,,,0,,,55,0
574464,note_on,,,,,170,0,1,,,,0,,,58,14
574464,set_tempo,,,,,512,1,0,,666666,,,,,,
574464,note_on,,,,,0,0,1,,,,0,,,63,26
574464,note_on,,,,,0,0,1,,,,0,,,51,4
574464,note_on,,,,,0,0,1,,,,0,,,55,13
574976,note_off,,,,,512,0,1,,,,0,,,58,0
574976,note_off,,,,,0,0,1,,,,0,,,63,0
574976,note_off,,,,,0,0,1,,,,0,,,51,0
574976,note_off,,,,,0,0,1,,,,0,,,55,0
574976,note_on,,,,,0,0,1,,,,0,,,82,40
574976,set_tempo,,,,,512,1,0,,545454,,,,,,
575011,control_change,,,,,35,0,1,,,,0,64,127,,
575488,note_off,,,,,477,0,1,,,,0,,,82,0
575488,set_tempo,,,,,512,1,0,,500000,,,,,,
575488,note_on,,,,,0,0,1,,,,0,,,82,40
576000,note_off,,,,,512,0,1,,,,0,,,82,0
576000,note_on,,,,,0,0,1,,,,0,,,82,40
576512,control_change,,,,,0,0,1,,,,0,64,0,,
576512,control_change,,,,,512,0,1,,,,0,64,0,,
576512,set_tempo,,,,,1024,1,0,,625000,,,,,,
576512,control_change,,,,,0,0,1,,,,0,64,0,,
576512,control_change,,,,,0,0,1,,,,0,64,127,,
576512,note_off,,,,,0,0,1,,,,0,,,82,0
576512,note_on,,,,,0,0,1,,,,0,,,82,52
576512,note_on,,,,,0,0,1,,,,0,,,39,13
576512,note_on,,,,,0,0,1,,,,0,,,51,20
576770,control_change,,,,,258,0,1,,,,0,64,0,,
577024,set_tempo,,,,,512,1,0,,461538,,,,,,
577024,note_on,,,,,0,0,1,,,,0,,,63,10
577024,note_on,,,,,0,0,1,,,,0,,,67,18
577024,note_on,,,,,254,0,1,,,,0,,,73,13
577024,note_on,,,,,0,0,1,,,,0,,,76,22
577066,control_change,,,,,42,0,1,,,,0,64,127,,
577536,note_off,,,,,0,0,1,,,,0,,,67,0
577536,note_off,,,,,470,0,1,,,,0,,,82,0
577536,note_on,,,,,0,0,1,,,,0,,,85,50
577536,note_on,,,,,0,0,1,,,,0,,,63,11
577536,note_on,,,,,0,0,1,,,,0,,,67,19
577536,note_off,,,,,0,0,1,,,,0,,,63,0
578048,note_off,,,,,512,0,1,,,,0,,,73,0
578048,note_off,,,,,0,0,1,,,,0,,,67,0
578048,note_off,,,,,0,0,1,,,,0,,,76,0
578048,note_on,,,,,0,0,1,,,,0,,,73,13
578048,note_on,,,,,0,0,1,,,,0,,,76,22
578048,note_on,,,,,0,0,1,,,,0,,,63,12
578048,note_on,,,,,0,0,1,,,,0,,,67,20
578048,note_off,,,,,0,0,1,,,,0,,,63,0
578560,note_off,,,,,512,0,1,,,,0,,,85,0
578560,note_on,,,,,0,0,1,,,,0,,,82,49
578560,note_on,,,,,0,0,1,,,,0,,,63,13
578560,note_on,,,,,0,0,1,,,,0,,,67,22
578560,note_off,,,,,0,0,1,,,,0,,,67,0
578560,note_off,,,,,0,0,1,,,,0,,,63,0
579072,note_off,,,,,512,0,1,,,,0,,,73,0
579072,note_off,,,,,0,0,1,,,,0,,,76,0
579072,note_on,,,,,0,0,1,,,,0,,,73,13
579072,note_on,,,,,0,0,1,,,,0,,,76,22
579584,note_off,,,,,512,0,1,,,,0,,,82,0
579584,note_on,,,,,0,0,1,,,,0,,,85,47
580096,note_off,,,,,0,0,1,,,,0,,,76,0
580096,note_off,,,,,512,0,1,,,,0,,,73,0
580096,note_on,,,,,0,0,1,,,,0,,,76,22
580096,note_on,,,,,0,0,1,,,,0,,,73,13
580608,control_change,,,,,0,0,1,,,,0,64,0,,
580608,note_on,,,,,0,0,1,,,,0,,,51,20
580608,note_on,,,,,0,0,1,,,,0,,,39,13
580608,note_on,,,,,0,0,1,,,,0,,,82,52
580608,note_off,,,,,0,0,1,,,,0,,,67,0
580608,note_off,,,,,0,0,1,,,,0,,,63,0
580608,note_off,,,,,0,0,1,,,,0,,,51,0
580608,note_off,,,,,0,0,1,,,,0,,,39,0
580608,note_off,,,,,0,0,1,,,,0,,,85,0
580608,control_change,,,,,0,0,1,,,,0,64,127,,
580608,control_change,,,,,0,0,1,,,,0,64,0,,
580608,control_change,,,,,512,0,1,,,,0,64,0,,
580608,set_tempo,,,,,3584,1,0,,666666,,,,,,
580763,control_change,,,,,155,0,1,,,,0,64,0,,
581110,control_change,,,,,347,0,1,,,,0,64,127,,
581120,set_tempo,,,,,512,1,0,,461538,,,,,,
581120,note_off,,,,,0,0,1,,,,0,,,76,0
581120,note_off,,,,,10,0,1,,,,0,,,73,0
581120,note_on,,,,,0,0,1,,,,0,,,73,13
581120,note_on,,,,,0,0,1,,,,0,,,76,22
581120,note_on,,,,,0,0,1,,,,0,,,63,10
581120,note_on,,,,,0,0,1,,,,0,,,67,18
581632,note_on,,,,,0,0,1,,,,0,,,67,19
581632,note_off,,,,,0,0,1,,,,0,,,63,0
581632,note_on,,,,,0,0,1,,,,0,,,63,11
581632,note_off,,,,,0,0,1,,,,0,,,67,0
581632,note_off,,,,,512,0,1,,,,0,,,82,0
581632,note_on,,,,,0,0,1,,,,0,,,85,50
582144,note_off,,,,,512,0,1,,,,0,,,73,0
582144,note_off,,,,,0,0,1,,,,0,,,76,0
582144,note_off,,,,,0,0,1,,,,0,,,63,0
582144,note_off,,,,,0,0,1,,,,0,,,67,0
582144,note_on,,,,,0,0,1,,,,0,,,73,13
582144,note_on,,,,,0,0,1,,,,0,,,76,22
582144,note_on,,,,,0,0,1,,,,0,,,63,12
582144,note_on,,,,,0,0,1,,,,0,,,67,21
582656,set_tempo,,,,,1536,1,0,,500000,,,,,,
582656,control_change,,,,,512,0,1,,,,0,64,0,,
582656,note_off,,,,,0,0,1,,,,0,,,85,0
582656,note_off,,,,,0,0,1,,,,0,,,63,0
582656,note_off,,,,,0,0,1,,,,0,,,67,0
582656,note_on,,,,,0,0,1,,,,0,,,83,48
582656,note_on,,,,,0,0,1,,,,0,,,63,13
582656,note_on,,,,,0,0,1,,,,0,,,67,22
583042,control_change,,,,,386,0,1,,,,0,64,127,,
583168,note_off,,,,,126,0,1,,,,0,,,73,0
583168,note_off,,,,,0,0,1,,,,0,,,76,0
583168,note_on,,,,,0,0,1,,,,0,,,73,13
583168,note_on,,,,,0,0,1,,,,0,,,76,22
583680,note_off,,,,,512,0,1,,,,0,,,83,0
583680,note_on,,,,,0,0,1,,,,0,,,82,46
584192,note_off,,,,,0,0,1,,,,0,,,76,0
584192,note_on,,,,,0,0,1,,,,0,,,76,22
584192,note_on,,,,,0,0,1,,,,0,,,73,13
584192,note_off,,,,,512,0,1,,,,0,,,73,0
584704,note_off,,,,,0,0,1,,,,0,,,82,0
584704,control_change,,,,,512,0,1,,,,0,64,127,,
584704,control_change,,,,,0,0,1,,,,0,64,0,,
584704,control_change,,,,,0,0,1,,,,0,64,0,,
584704,control_change,,,,,0,0,1,,,,0,64,127,,
584704,control_change,,,,,0,0,1,,,,0,64,0,,
584704,note_on,,,,,0,0,1,,,,0,,,39,13
584704,note_on,,,,,0,0,1,,,,0,,,85,54
584704,note_off,,,,,0,0,1,,,,0,,,67,0
584704,note_off,,,,,0,0,1,,,,0,,,63,0
584704,note_off,,,,,0,0,1,,,,0,,,73,0
584704,note_off,,,,,0,0,1,,,,0,,,39,0
584704,note_off,,,,,0,0,1,,,,0,,,76,0
584704,note_off,,,,,0,0,1,,,,0,,,51,0
584704,note_on,,,,,0,0,1,,,,0,,,51,20
584704,set_tempo,,,,,2048,1,0,,705882,,,,,,
584911,control_change,,,,,0,0,1,,,,0,64,0,,
584911,control_change,,,,,207,0,1,,,,0,64,0,,
585186,control_change,,,,,0,0,1,,,,0,64,127,,
585186,control_change,,,,,275,0,1,,,,0,64,127,,
585216,note_on,,,,,0,0,1,,,,0,,,82,41
585216,set_tempo,,,,,512,1,0,,545454,,,,,,
585216,note_on,,,,,30,0,1,,,,0,,,76,36
585216,note_on,,,,,0,0,1,,,,0,,,79,32
585216,note_on,,,,,0,0,1,,,,0,,,70,12
585216,note_on,,,,,0,0,1,,,,0,,,63,4
585256,note_off,,,,,40,0,1,,,,0,,,85,0
585558,note_off,,,,,0,0,1,,,,0,,,82,0
585558,note_off,,,,,0,0,1,,,,0,,,79,0
585558,note_off,,,,,302,0,1,,,,0,,,76,0
585728,note_on,,,,,0,0,1,,,,0,,,70,13
585728,note_on,,,,,0,0,1,,,,0,,,63,5
585728,note_on,,,,,0,0,1,,,,0,,,82,42
585728,note_on,,,,,0,0,1,,,,0,,,79,32
585728,note_on,,,,,170,0,1,,,,0,,,76,32
585728,note_off,,,,,0,0,1,,,,0,,,70,0
585728,note_off,,,,,0,0,1,,,,0,,,63,0
585728,set_tempo,,,,,512,1,0,,500000,,,,,,
586070,note_off,,,,,342,0,1,,,,0,,,76,0
586070,note_off,,,,,0,0,1,,,,0,,,79,0
586070,note_off,,,,,0,0,1,,,,0,,,82,0
586240,note_off,,,,,0,0,1,,,,0,,,70,0
586240,note_off,,,,,0,0,1,,,,0,,,63,0
586240,note_on,,,,,0,0,1,,,,0,,,70,15
586240,note_on,,,,,0,0,1,,,,0,,,79,33
586240,note_on,,,,,0,0,1,,,,0,,,63,6
586240,note_on,,,,,0,0,1,,,,0,,,82,44
586240,note_on,,,,,170,0,1,,,,0,,,76,33
586332,control_change,,,,,92,0,1,,,,0,64,127,,
586386,control_change,,,,,54,0,1,,,,0,64,127,,
586582,note_off,,,,,196,0,1,,,,0,,,76,0
586582,note_off,,,,,0,0,1,,,,0,,,79,0
586582,note_off,,,,,0,0,1,,,,0,,,82,0
586752,note_on,,,,,0,0,1,,,,0,,,70,16
586752,set_tempo,,,,,1024,1,0,,545454,,,,,,
586752,note_on,,,,,0,0,1,,,,0,,,63,7
586752,note_off,,,,,0,0,1,,,,0,,,70,0
586752,note_off,,,,,0,0,1,,,,0,,,63,0
586752,note_on,,,,,170,0,1,,,,0,,,82,49
587264,note_on,,,,,0,0,1,,,,0,,,79,44
587264,note_on,,,,,0,0,1,,,,0,,,76,32
587264,note_on,,,,,512,0,1,,,,0,,,73,32
587264,set_tempo,,,,,512,1,0,,480000,,,,,,
587304,note_off,,,,,40,0,1,,,,0,,,82,0
587606,note_off,,,,,302,0,1,,,,0,,,73,0
587606,note_off,,,,,0,0,1,,,,0,,,76,0
587606,note_off,,,,,0,0,1,,,,0,,,79,0
587776,note_on,,,,,170,0,1,,,,0,,,73,30
587776,note_on,,,,,0,0,1,,,,0,,,76,30
587776,note_on,,,,,0,0,1,,,,0,,,79,42
588118,note_off,,,,,0,0,1,,,,0,,,79,0
588118,note_off,,,,,0,0,1,,,,0,,,76,0
588118,note_off,,,,,342,0,1,,,,0,,,73,0
588288,note_on,,,,,0,0,1,,,,0,,,79,40
588288,note_on,,,,,0,0,1,,,,0,,,76,28
588288,note_on,,,,,170,0,1,,,,0,,,73,28
588630,note_off,,,,,342,0,1,,,,0,,,73,0
588630,note_off,,,,,0,0,1,,,,0,,,79,0
588630,note_off,,,,,0,0,1,,,,0,,,76,0
588800,control_change,,,,,170,0,1,,,,0,64,127,,
588800,control_change,,,,,0,0,1,,,,0,64,0,,
588800,note_off,,,,,0,0,1,,,,0,,,39,0
588800,note_off,,,,,0,0,1,,,,0,,,51,0
588800,note_off,,,,,0,0,1,,,,0,,,63,0
588800,note_on,,,,,0,0,1,,,,0,,,79,48
588800,note_off,,,,,0,0,1,,,,0,,,70,0
588800,control_change,,,,,0,0,1,,,,0,64,127,,
588800,set_tempo,,,,,1536,1,0,,545454,,,,,,
588827,control_change,,,,,27,0,1,,,,0,64,127,,
589028,control_change,,,,,201,0,1,,,,0,64,0,,
589028,control_change,,,,,0,0,1,,,,0,64,0,,
589312,note_on,,,,,0,0,1,,,,0,,,76,42
589312,set_tempo,,,,,512,1,0,,500000,,,,,,
589312,note_on,,,,,0,0,1,,,,0,,,70,27
589312,note_on,,,,,284,0,1,,,,0,,,67,27
589352,note_off,,,,,40,0,1,,,,0,,,79,0
589654,note_off,,,,,0,0,1,,,,0,,,76,0
589654,note_off,,,,,302,0,1,,,,0,,,67,0
589654,note_off,,,,,0,0,1,,,,0,,,70,0
589824,set_tempo,,,,,512,1,0,,461538,,,,,,
589824,note_on,,,,,170,0,1,,,,0,,,67,23
589824,note_on,,,,,0,0,1,,,,0,,,70,23
589824,note_on,,,,,0,0,1,,,,0,,,76,38
589824,note_on,,,,,0,0,1,,,,0,,,51,7
589824,note_on,,,,,0,0,1,,,,0,,,61,19
590166,note_off,,,,,0,0,1,,,,0,,,76,0
590166,note_off,,,,,0,0,1,,,,0,,,61,0
590166,note_off,,,,,342,0,1,,,,0,,,67,0
590166,note_off,,,,,0,0,1,,,,0,,,70,0
590166,note_off,,,,,0,0,1,,,,0,,,51,0
590336,note_on,,,,,0,0,1,,,,0,,,70,24
590336,note_on,,,,,0,0,1,,,,0,,,76,41
590336,note_on,,,,,170,0,1,,,,0,,,67,24
590336,note_on,,,,,0,0,1,,,,0,,,61,19
590336,note_on,,,,,0,0,1,,,,0,,,51,7
590678,note_off,,,,,342,0,1,,,,0,,,67,0
590678,note_off,,,,,0,0,1,,,,0,,,70,0
590678,note_off,,,,,0,0,1,,,,0,,,51,0
590678,note_off,,,,,0,0,1,,,,0,,,61,0
590678,note_off,,,,,0,0,1,,,,0,,,76,0
590848,set_tempo,,,,,1024,1,0,,500000,,,,,,
590848,note_on,,,,,170,0,1,,,,0,,,67,23
590848,note_on,,,,,0,0,1,,,,0,,,70,23
590848,note_on,,,,,0,0,1,,,,0,,,76,42
590848,note_on,,,,,0,0,1,,,,0,,,51,7
590848,note_on,,,,,0,0,1,,,,0,,,61,19
590863,control_change,,,,,15,0,1,,,,0,64,0,,
590889,control_change,,,,,26,0,1,,,,0,64,0,,
591190,note_off,,,,,0,0,1,,,,0,,,76,0
591190,note_off,,,,,301,0,1,,,,0,,,67,0
591190,note_off,,,,,0,0,1,,,,0,,,70,0
591190,note_off,,,,,0,0,1,,,,0,,,51,0
591190,note_off,,,,,0,0,1,,,,0,,,61,0
591360,note_on,,,,,0,0,1,,,,0,,,61,19
591360,note_on,,,,,0,0,1,,,,0,,,51,7
591360,note_on,,,,,0,0,1,,,,0,,,76,41
591360,note_on,,,,,0,0,1,,,,0,,,70,23
591360,set_tempo,,,,,512,1,0,,461538,,,,,,
591360,note_on,,,,,170,0,1,,,,0,,,67,23
591702,note_off,,,,,0,0,1,,,,0,,,61,0
591702,note_off,,,,,342,0,1,,,,0,,,67,0
591702,note_off,,,,,0,0,1,,,,0,,,70,0
591702,note_off,,,,,0,0,1,,,,0,,,76,0
591702,note_off,,,,,0,0,1,,,,0,,,51,0
591872,note_on,,,,,0,0,1,,,,0,,,51,11
591872,note_on,,,,,0,0,1,,,,0,,,63,28
591872,note_on,,,,,0,0,1,,,,0,,,75,40
591872,set_tempo,,,,,512,1,0,,500000,,,,,,
591872,note_on,,,,,170,0,1,,,,0,,,67,23
591872,note_on,,,,,0,0,1,,,,0,,,70,23
592214,note_off,,,,,0,0,1,,,,0,,,51,0
592214,note_off,,,,,342,0,1,,,,0,,,67,0
592214,note_off,,,,,0,0,1,,,,0,,,70,0
592214,note_off,,,,,0,0,1,,,,0,,,75,0
592214,note_off,,,,,0,0,1,,,,0,,,63,0
592384,note_on,,,,,0,0,1,,,,0,,,70,24
592384,note_on,,,,,0,0,1,,,,0,,,73,39
592384,set_tempo,,,,,512,1,0,,600000,,,,,,
592384,note_on,,,,,170,0,1,,,,0,,,67,24
592384,note_on,,,,,0,0,1,,,,0,,,64,31
592384,note_on,,,,,0,0,1,,,,0,,,51,14
592726,note_off,,,,,0,0,1,,,,0,,,64,0
592726,note_off,,,,,0,0,1,,,,0,,,51,0
592726,note_off,,,,,0,0,1,,,,0,,,73,0
592726,note_off,,,,,0,0,1,,,,0,,,70,0
592726,note_off,,,,,342,0,1,,,,0,,,67,0
592896,control_change,,,,,170,0,1,,,,0,64,0,,
592896,control_change,,,,,0,0,1,,,,0,64,0,,
592896,note_on,,,,,0,0,1,,,,0,,,64,35
592896,note_on,,,,,0,0,1,,,,0,,,56,18
592896,note_on,,,,,0,0,1,,,,0,,,70,41
592896,set_tempo,,,,,512,1,0,,600000,,,,,,
592896,control_change,,,,,0,0,1,,,,0,64,0,,
592896,control_change,,,,,0,0,1,,,,0,64,0,,
592896,note_on,,,,,0,0,1,,,,0,,,67,26
593408,note_on,,,,,0,0,1,,,,0,,,71,35
593408,note_on,,,,,0,0,1,,,,0,,,56,15
593408,note_on,,,,,0,0,1,,,,0,,,63,27
593408,set_tempo,,,,,512,1,0,,500000,,,,,,
593408,note_on,,,,,512,0,1,,,,0,,,68,23
593448,note_off,,,,,40,0,1,,,,0,,,67,0
593448,note_off,,,,,0,0,1,,,,0,,,70,0
593448,note_off,,,,,0,0,1,,,,0,,,56,0
593448,note_off,,,,,0,0,1,,,,0,,,64,0
593750,note_off,,,,,302,0,1,,,,0,,,68,0
593750,note_off,,,,,0,0,1,,,,0,,,71,0
593750,note_off,,,,,0,0,1,,,,0,,,56,0
593750,note_off,,,,,0,0,1,,,,0,,,63,0
593920,note_on,,,,,0,0,1,,,,0,,,63,23
593920,note_on,,,,,0,0,1,,,,0,,,56,11
593920,note_on,,,,,0,0,1,,,,0,,,71,33
593920,note_on,,,,,170,0,1,,,,0,,,68,21
594262,note_off,,,,,0,0,1,,,,0,,,71,0
594262,note_off,,,,,0,0,1,,,,0,,,56,0
594262,note_off,,,,,0,0,1,,,,0,,,63,0
594262,note_off,,,,,342,0,1,,,,0,,,68,0
594432,note_on,,,,,170,0,1,,,,0,,,68,18
594432,note_on,,,,,0,0,1,,,,0,,,71,30
594432,note_on,,,,,0,0,1,,,,0,,,56,8
594432,note_on,,,,,0,0,1,,,,0,,,63,20
594432,set_tempo,,,,,1024,1,0,,600000,,,,,,
594774,note_off,,,,,342,0,1,,,,0,,,68,0
594774,note_off,,,,,0,0,1,,,,0,,,71,0
594774,note_off,,,,,0,0,1,,,,0,,,56,0
594774,note_off,,,,,0,0,1,,,,0,,,63,0
594944,set_tempo,,,,,512,1,0,,666666,,,,,,
594944,note_on,,,,,0,0,1,,,,0,,,71,23
594944,note_on,,,,,170,0,1,,,,0,,,68,11
594944,note_on,,,,,0,0,1,,,,0,,,63,17
594944,note_on,,,,,0,0,1,,,,0,,,56,5
595456,note_off,,,,,0,0,1,,,,0,,,71,0
595456,set_tempo,,,,,512,1,0,,545454,,,,,,
595456,note_off,,,,,512,0,1,,,,0,,,68,0
595456,note_off,,,,,0,0,1,,,,0,,,63,0
595456,note_on,,,,,0,0,1,,,,0,,,75,40
595456,note_off,,,,,0,0,1,,,,0,,,56,0
595968,set_tempo,,,,,512,1,0,,500000,,,,,,
595968,note_off,,,,,512,0,1,,,,0,,,75,0
595968,note_on,,,,,0,0,1,,,,0,,,75,42
596480,note_on,,,,,0,0,1,,,,0,,,75,43
596480,note_off,,,,,512,0,1,,,,0,,,75,0
596480,set_tempo,,,,,512,1,0,,625000,,,,,,
596992,set_tempo,,,,,512,1,0,,625000,,,,,,
596992,note_on,,,,,0,0,1,,,,0,,,32,23
596992,note_on,,,,,0,0,1,,,,0,,,75,54
596992,note_off,,,,,0,0,1,,,,0,,,75,0
596992,control_change,,,,,0,0,1,,,,0,64,0,,
596992,control_change,,,,,0,0,1,,,,0,64,127,,
596992,control_change,,,,,0,0,1,,,,0,64,0,,
596992,control_change,,,,,512,0,1,,,,0,64,0,,
596992,note_on,,,,,0,0,1,,,,0,,,44,20
597250,control_change,,,,,258,0,1,,,,0,64,0,,
597504,set_tempo,,,,,512,1,0,,461538,,,,,,
597504,note_on,,,,,0,0,1,,,,0,,,51,11
597504,note_on,,,,,0,0,1,,,,0,,,59,11
597504,note_on,,,,,0,0,1,,,,0,,,56,19
597504,note_on,,,,,0,0,1,,,,0,,,71,26
597504,note_on,,,,,254,0,1,,,,0,,,68,17
597546,control_change,,,,,42,0,1,,,,0,64,127,,
598016,note_on,,,,,0,0,1,,,,0,,,59,12
598016,note_off,,,,,0,0,1,,,,0,,,51,0
598016,note_off,,,,,0,0,1,,,,0,,,56,0
598016,note_off,,,,,0,0,1,,,,0,,,59,0
598016,note_on,,,,,0,0,1,,,,0,,,51,12
598016,note_on,,,,,0,0,1,,,,0,,,80,53
598016,note_on,,,,,0,0,1,,,,0,,,56,20
598016,note_off,,,,,470,0,1,,,,0,,,75,0
598528,note_off,,,,,0,0,1,,,,0,,,56,0
598528,note_on,,,,,0,0,1,,,,0,,,56,21
598528,note_on,,,,,0,0,1,,,,0,,,71,26
598528,note_on,,,,,0,0,1,,,,0,,,68,17
598528,note_off,,,,,0,0,1,,,,0,,,59,0
598528,note_off,,,,,0,0,1,,,,0,,,51,0
598528,note_off,,,,,0,0,1,,,,0,,,71,0
598528,note_on,,,,,0,0,1,,,,0,,,59,13
598528,note_off,,,,,512,0,1,,,,0,,,68,0
598528,note_on,,,,,0,0,1,,,,0,,,51,13
599040,note_off,,,,,512,0,1,,,,0,,,80,0
599040,note_off,,,,,0,0,1,,,,0,,,59,0
599040,note_off,,,,,0,0,1,,,,0,,,56,0
599040,note_off,,,,,0,0,1,,,,0,,,51,0
599040,note_on,,,,,0,0,1,,,,0,,,75,53
599040,note_on,,,,,0,0,1,,,,0,,,51,14
599040,note_on,,,,,0,0,1,,,,0,,,56,23
599040,note_on,,,,,0,0,1,,,,0,,,59,14
599552,note_on,,,,,0,0,1,,,,0,,,68,21
599552,note_on,,,,,0,0,1,,,,0,,,71,30
599552,note_off,,,,,0,0,1,,,,0,,,71,0
599552,note_off,,,,,512,0,1,,,,0,,,68,0
600064,note_off,,,,,512,0,1,,,,0,,,75,0
600064,note_on,,,,,0,0,1,,,,0,,,80,56
600064,note_off,,,,,0,0,1,,,,0,,,51,0
600064,note_off,,,,,0,0,1,,,,0,,,56,0
600064,note_off,,,,,0,0,1,,,,0,,,59,0
600576,note_on,,,,,0,0,1,,,,0,,,71,34
600576,note_on,,,,,0,0,1,,,,0,,,68,25
600576,note_off,,,,,0,0,1,,,,0,,,71,0
600576,note_off,,,,,512,0,1,,,,0,,,68,0
601088,set_tempo,,,,,3584,1,0,,666666,,,,,,
601088,note_on,,,,,0,0,1,,,,0,,,49,20
601088,note_off,,,,,0,0,1,,,,0,,,80,0
601088,note_on,,,,,0,0,1,,,,0,,,78,55
601088,note_off,,,,,0,0,1,,,,0,,,44,0
601088,note_off,,,,,0,0,1,,,,0,,,32,0
601088,note_off,,,,,0,0,1,,,,0,,,71,0
601088,note_off,,,,,0,0,1,,,,0,,,68,0
601088,control_change,,,,,0,0,1,,,,0,64,0,,
601088,control_change,,,,,0,0,1,,,,0,64,127,,
601088,control_change,,,,,512,0,1,,,,0,64,0,,
601088,note_on,,,,,0,0,1,,,,0,,,37,23
601088,control_change,,,,,0,0,1,,,,0,64,0,,
601243,control_change,,,,,155,0,1,,,,0,64,0,,
601590,control_change,,,,,347,0,1,,,,0,64,127,,
601600,note_on,,,,,0,0,1,,,,0,,,56,11
601600,set_tempo,,,,,512,1,0,,461538,,,,,,
601600,note_on,,,,,10,0,1,,,,0,,,68,18
601600,note_on,,,,,0,0,1,,,,0,,,73,28
601600,note_on,,,,,0,0,1,,,,0,,,61,19
602112,note_off,,,,,512,0,1,,,,0,,,78,0
602112,note_on,,,,,0,0,1,,,,0,,,76,54
602112,note_on,,,,,0,0,1,,,,0,,,56,12
602112,note_on,,,,,0,0,1,,,,0,,,61,20
602112,note_off,,,,,0,0,1,,,,0,,,56,0
602112,note_off,,,,,0,0,1,,,,0,,,61,0
602624,note_off,,,,,512,0,1,,,,0,,,68,0
602624,note_off,,,,,0,0,1,,,,0,,,73,0
602624,note_off,,,,,0,0,1,,,,0,,,56,0
602624,note_off,,,,,0,0,1,,,,0,,,61,0
602624,note_on,,,,,0,0,1,,,,0,,,68,17
602624,note_on,,,,,0,0,1,,,,0,,,73,27
602624,note_on,,,,,0,0,1,,,,0,,,56,13
602624,note_on,,,,,0,0,1,,,,0,,,61,22
603136,note_on,,,,,0,0,1,,,,0,,,56,14
603136,note_on,,,,,0,0,1,,,,0,,,75,52
603136,control_change,,,,,512,0,1,,,,0,64,0,,
603136,note_off,,,,,0,0,1,,,,0,,,56,0
603136,note_off,,,,,0,0,1,,,,0,,,61,0
603136,note_on,,,,,0,0,1,,,,0,,,61,23
603136,note_off,,,,,0,0,1,,,,0,,,76,0
603522,control_change,,,,,386,0,1,,,,0,64,127,,
603648,note_on,,,,,0,0,1,,,,0,,,64,17
603648,note_off,,,,,0,0,1,,,,0,,,73,0
603648,note_off,,,,,126,0,1,,,,0,,,68,0
603648,note_on,,,,,0,0,1,,,,0,,,68,26
604160,note_off,,,,,512,0,1,,,,0,,,75,0
604160,note_on,,,,,0,0,1,,,,0,,,73,46
604160,note_off,,,,,0,0,1,,,,0,,,56,0
604160,note_off,,,,,0,0,1,,,,0,,,61,0
604672,note_off,,,,,512,0,1,,,,0,,,64,0
604672,note_on,,,,,0,0,1,,,,0,,,68,25
604672,note_on,,,,,0,0,1,,,,0,,,64,16
604672,note_off,,,,,0,0,1,,,,0,,,68,0
605184,note_off,,,,,0,0,1,,,,0,,,49,0
605184,set_tempo,,,,,3584,1,0,,545454,,,,,,
605184,note_on,,,,,0,0,1,,,,0,,,42,20
605184,note_on,,,,,0,0,1,,,,0,,,30,23
605184,note_on,,,,,0,0,1,,,,0,,,73,51
605184,note_off,,,,,0,0,1,,,,0,,,37,0
605184,control_change,,,,,0,0,1,,,,0,64,0,,
605184,control_change,,,,,512,0,1,,,,0,64,0,,
605184,note_off,,,,,0,0,1,,,,0,,,68,0
605184,note_off,,,,,0,0,1,,,,0,,,64,0
605184,note_off,,,,,0,0,1,,,,0,,,73,0
605184,control_change,,,,,0,0,1,,,,0,64,0,,
605184,control_change,,,,,0,0,1,,,,0,64,127,,
605184,control_change,,,,,0,0,1,,,,0,64,0,,
605184,control_change,,,,,0,0,1,,,,0,64,0,,
605442,control_change,,,,,258,0,1,,,,0,64,0,,
605696,note_on,,,,,254,0,1,,,,0,,,66,19
605696,note_on,,,,,0,0,1,,,,0,,,70,28
605696,note_on,,,,,0,0,1,,,,0,,,54,11
605696,note_on,,,,,0,0,1,,,,0,,,61,19
605696,note_on,,,,,0,0,1,,,,0,,,64,11
605696,set_tempo,,,,,512,1,0,,461538,,,,,,
605738,control_change,,,,,42,0,1,,,,0,64,127,,
606208,note_on,,,,,0,0,1,,,,0,,,61,20
606208,note_on,,,,,0,0,1,,,,0,,,64,12
606208,note_off,,,,,0,0,1,,,,0,,,54,0
606208,note_off,,,,,0,0,1,,,,0,,,61,0
606208,note_off,,,,,0,0,1,,,,0,,,64,0
606208,note_off,,,,,470,0,1,,,,0,,,73,0
606208,note_on,,,,,0,0,1,,,,0,,,78,50
606208,note_on,,,,,0,0,1,,,,0,,,54,12
606720,note_on,,,,,0,0,1,,,,0,,,54,13
606720,note_on,,,,,0,0,1,,,,0,,,64,13
606720,note_on,,,,,0,0,1,,,,0,,,61,21
606720,note_on,,,,,0,0,1,,,,0,,,70,28
606720,note_off,,,,,0,0,1,,,,0,,,64,0
606720,note_off,,,,,0,0,1,,,,0,,,61,0
606720,note_off,,,,,0,0,1,,,,0,,,54,0
606720,note_off,,,,,512,0,1,,,,0,,,66,0
606720,note_on,,,,,0,0,1,,,,0,,,66,19
606720,note_off,,,,,0,0,1,,,,0,,,70,0
607232,note_off,,,,,0,0,1,,,,0,,,64,0
607232,note_off,,,,,0,0,1,,,,0,,,61,0
607232,note_on,,,,,0,0,1,,,,0,,,61,23
607232,note_on,,,,,0,0,1,,,,0,,,64,14
607232,note_on,,,,,0,0,1,,,,0,,,54,14
607232,note_off,,,,,512,0,1,,,,0,,,78,0
607232,note_on,,,,,0,0,1,,,,0,,,73,53
607232,note_off,,,,,0,0,1,,,,0,,,54,0
607744,note_off,,,,,512,0,1,,,,0,,,66,0
607744,note_off,,,,,0,0,1,,,,0,,,70,0
607744,note_on,,,,,0,0,1,,,,0,,,66,23
607744,note_on,,,,,0,0,1,,,,0,,,70,32
608256,note_off,,,,,512,0,1,,,,0,,,73,0
608256,note_on,,,,,0,0,1,,,,0,,,78,55
608256,note_off,,,,,0,0,1,,,,0,,,54,0
608256,note_off,,,,,0,0,1,,,,0,,,61,0
608256,note_off,,,,,0,0,1,,,,0,,,64,0
608768,note_off,,,,,0,0,1,,,,0,,,70,0
608768,note_on,,,,,0,0,1,,,,0,,,66,27
608768,note_off,,,,,512,0,1,,,,0,,,66,0
608768,note_on,,,,,0,0,1,,,,0,,,70,36
609280,control_change,,,,,512,0,1,,,,0,64,0,,
609280,set_tempo,,,,,3584,1,0,,666666,,,,,,
609280,note_on,,,,,0,0,1,,,,0,,,47,20
609280,note_on,,,,,0,0,1,,,,0,,,35,23
609280,note_on,,,,,0,0,1,,,,0,,,76,56
609280,note_off,,,,,0,0,1,,,,0,,,42,0
609280,note_off,,,,,0,0,1,,,,0,,,30,0
609280,note_off,,,,,0,0,1,,,,0,,,70,0
609280,note_off,,,,,0,0,1,,,,0,,,66,0
609280,control_change,,,,,0,0,1,,,,0,64,0,,
609280,control_change,,,,,0,0,1,,,,0,64,0,,
609280,control_change,,,,,0,0,1,,,,0,64,127,,
609280,control_change,,,,,0,0,1,,,,0,64,0,,
609280,note_off,,,,,0,0,1,,,,0,,,78,0
609280,control_change,,,,,0,0,1,,,,0,64,0,,
609435,control_change,,,,,155,0,1,,,,0,64,0,,
609782,control_change,,,,,347,0,1,,,,0,64,127,,
609792,note_on,,,,,0,0,1,,,,0,,,63,11
609792,note_on,,,,,10,0,1,,,,0,,,66,20
609792,note_on,,,,,0,0,1,,,,0,,,59,19
609792,set_tempo,,,,,512,1,0,,461538,,,,,,
609792,note_on,,,,,0,0,1,,,,0,,,71,30
609792,note_on,,,,,0,0,1,,,,0,,,54,11
610304,note_off,,,,,0,0,1,,,,0,,,54,0
610304,note_off,,,,,0,0,1,,,,0,,,59,0
610304,note_off,,,,,0,0,1,,,,0,,,63,0
610304,note_on,,,,,0,0,1,,,,0,,,54,12
610304,note_on,,,,,0,0,1,,,,0,,,59,20
610304,note_on,,,,,0,0,1,,,,0,,,75,52
610304,note_off,,,,,512,0,1,,,,0,,,76,0
610304,note_on,,,,,0,0,1,,,,0,,,63,12
610816,note_on,,,,,0,0,1,,,,0,,,63,13
610816,note_on,,,,,0,0,1,,,,0,,,59,22
610816,note_on,,,,,0,0,1,,,,0,,,71,29
610816,note_on,,,,,0,0,1,,,,0,,,66,19
610816,note_off,,,,,0,0,1,,,,0,,,63,0
610816,note_off,,,,,0,0,1,,,,0,,,59,0
610816,note_off,,,,,0,0,1,,,,0,,,54,0
610816,note_off,,,,,0,0,1,,,,0,,,71,0
610816,note_off,,,,,512,0,1,,,,0,,,66,0
610816,note_on,,,,,0,0,1,,,,0,,,54,13
611328,note_on,,,,,0,0,1,,,,0,,,63,14
611328,note_on,,,,,0,0,1,,,,0,,,59,23
611328,note_on,,,,,0,0,1,,,,0,,,73,49
611328,note_off,,,,,0,0,1,,,,0,,,63,0
611328,note_off,,,,,0,0,1,,,,0,,,59,0
611328,note_off,,,,,0,0,1,,,,0,,,75,0
611328,control_change,,,,,512,0,1,,,,0,64,0,,
611328,note_on,,,,,0,0,1,,,,0,,,54,14
611328,note_off,,,,,0,0,1,,,,0,,,54,0
611714,control_change,,,,,386,0,1,,,,0,64,127,,
611840,note_off,,,,,126,0,1,,,,0,,,66,0
611840,note_off,,,,,0,0,1,,,,0,,,71,0
611840,note_on,,,,,0,0,1,,,,0,,,63,19
611840,note_on,,,,,0,0,1,,,,0,,,66,28
612352,note_off,,,,,512,0,1,,,,0,,,73,0
612352,note_on,,,,,0,0,1,,,,0,,,71,45
612352,note_off,,,,,0,0,1,,,,0,,,54,0
612352,note_off,,,,,0,0,1,,,,0,,,59,0
612352,note_off,,,,,0,0,1,,,,0,,,63,0
612864,note_off,,,,,0,0,1,,,,0,,,66,0
612864,note_on,,,,,0,0,1,,,,0,,,63,18
612864,note_off,,,,,512,0,1,,,,0,,,63,0
612864,note_on,,,,,0,0,1,,,,0,,,66,27
613376,control_change,,,,,0,0,1,,,,0,64,0,,
613376,set_tempo,,,,,3584,1,0,,705882,,,,,,
613376,control_change,,,,,0,0,1,,,,0,64,127,,
613376,note_on,,,,,0,0,1,,,,0,,,44,20
613376,note_on,,,,,0,0,1,,,,0,,,32,23
613376,control_change,,,,,512,0,1,,,,0,64,0,,
613376,note_off,,,,,0,0,1,,,,0,,,47,0
613376,note_off,,,,,0,0,1,,,,0,,,35,0
613376,note_off,,,,,0,0,1,,,,0,,,71,0
613376,note_off,,,,,0,0,1,,,,0,,,66,0
613376,note_off,,,,,0,0,1,,,,0,,,63,0
613376,control_change,,,,,0,0,1,,,,0,64,0,,
613376,control_change,,,,,0,0,1,,,,0,64,0,,
613376,note_on,,,,,0,0,1,,,,0,,,71,49
613634,control_change,,,,,258,0,1,,,,0,64,0,,
613888,note_on,,,,,254,0,1,,,,0,,,63,20
613888,note_on,,,,,0,0,1,,,,0,,,68,29
613888,note_on,,,,,0,0,1,,,,0,,,51,11
613888,note_on,,,,,0,0,1,,,,0,,,56,19
613888,note_on,,,,,0,0,1,,,,0,,,59,11
613888,set_tempo,,,,,512,1,0,,500000,,,,,,
613930,control_change,,,,,42,0,1,,,,0,64,127,,
614400,note_off,,,,,0,0,1,,,,0,,,59,0
614400,note_off,,,,,0,0,1,,,,0,,,51,0
614400,note_on,,,,,0,0,1,,,,0,,,59,12
614400,note_on,,,,,0,0,1,,,,0,,,56,20
614400,set_tempo,,,,,512,1,0,,461538,,,,,,
614400,note_on,,,,,0,0,1,,,,0,,,51,12
614400,note_on,,,,,0,0,1,,,,0,,,73,49
614400,note_off,,,,,470,0,1,,,,0,,,71,0
614400,note_off,,,,,0,0,1,,,,0,,,56,0
614912,note_on,,,,,0,0,1,,,,0,,,59,13
614912,note_off,,,,,0,0,1,,,,0,,,51,0
614912,note_off,,,,,512,0,1,,,,0,,,63,0
614912,note_off,,,,,0,0,1,,,,0,,,56,0
614912,note_on,,,,,0,0,1,,,,0,,,56,22
614912,note_off,,,,,0,0,1,,,,0,,,59,0
614912,note_on,,,,,0,0,1,,,,0,,,63,25
614912,note_on,,,,,0,0,1,,,,0,,,68,34
614912,note_on,,,,,0,0,1,,,,0,,,51,13
614912,note_off,,,,,0,0,1,,,,0,,,68,0
615424,note_off,,,,,512,0,1,,,,0,,,73,0
615424,note_off,,,,,0,0,1,,,,0,,,59,0
615424,note_on,,,,,0,0,1,,,,0,,,56,23
615424,note_on,,,,,0,0,1,,,,0,,,51,14
615424,note_on,,,,,0,0,1,,,,0,,,70,50
615424,note_off,,,,,0,0,1,,,,0,,,51,0
615424,note_off,,,,,0,0,1,,,,0,,,56,0
615424,note_on,,,,,0,0,1,,,,0,,,59,14
615936,note_off,,,,,0,0,1,,,,0,,,68,0
615936,note_on,,,,,0,0,1,,,,0,,,68,35
615936,note_on,,,,,0,0,1,,,,0,,,63,26
615936,note_off,,,,,512,0,1,,,,0,,,63,0
616448,note_off,,,,,0,0,1,,,,0,,,56,0
616448,set_tempo,,,,,2048,1,0,,500000,,,,,,
616448,note_off,,,,,0,0,1,,,,0,,,51,0
616448,note_on,,,,,0,0,1,,,,0,,,71,56
616448,note_off,,,,,512,0,1,,,,0,,,70,0
616448,note_off,,,,,0,0,1,,,,0,,,59,0
616960,note_on,,,,,0,0,1,,,,0,,,68,37
616960,note_on,,,,,0,0,1,,,,0,,,63,28
616960,note_off,,,,,0,0,1,,,,0,,,68,0
616960,note_off,,,,,512,0,1,,,,0,,,63,0
617472,set_tempo,,,,,1024,1,0,,545454,,,,,,
617472,note_on,,,,,0,0,1,,,,0,,,49,26
617472,note_off,,,,,0,0,1,,,,0,,,32,0
617472,note_on,,,,,0,0,1,,,,0,,,78,55
617472,control_change,,,,,512,0,1,,,,0,64,0,,
617472,control_change,,,,,0,0,1,,,,0,64,127,,
617472,control_change,,,,,0,0,1,,,,0,64,0,,
617472,control_change,,,,,0,0,1,,,,0,64,0,,
617472,note_off,,,,,0,0,1,,,,0,,,63,0
617472,note_off,,,,,0,0,1,,,,0,,,68,0
617472,note_off,,,,,0,0,1,,,,0,,,71,0
617472,note_off,,,,,0,0,1,,,,0,,,44,0
617472,note_on,,,,,0,0,1,,,,0,,,37,20
617472,control_change,,,,,0,0,1,,,,0,64,0,,
617730,control_change,,,,,258,0,1,,,,0,64,0,,
617984,note_on,,,,,0,0,1,,,,0,,,61,24
617984,note_on,,,,,0,0,1,,,,0,,,56,16
617984,note_on,,,,,0,0,1,,,,0,,,73,36
617984,note_on,,,,,254,0,1,,,,0,,,68,27
618026,control_change,,,,,42,0,1,,,,0,64,127,,
618496,set_tempo,,,,,1024,1,0,,461538,,,,,,
618496,note_on,,,,,0,0,1,,,,0,,,56,17
618496,note_off,,,,,0,0,1,,,,0,,,56,0
618496,note_on,,,,,0,0,1,,,,0,,,61,25
618496,note_on,,,,,0,0,1,,,,0,,,76,54
618496,note_off,,,,,470,0,1,,,,0,,,78,0
618496,note_off,,,,,0,0,1,,,,0,,,61,0
619008,note_off,,,,,512,0,1,,,,0,,,68,0
619008,note_off,,,,,0,0,1,,,,0,,,73,0
619008,note_off,,,,,0,0,1,,,,0,,,56,0
619008,note_off,,,,,0,0,1,,,,0,,,61,0
619008,note_on,,,,,0,0,1,,,,0,,,68,25
619008,note_on,,,,,0,0,1,,,,0,,,73,34
619008,note_on,,,,,0,0,1,,,,0,,,56,18
619008,note_on,,,,,0,0,1,,,,0,,,61,27
619520,note_off,,,,,0,0,1,,,,0,,,61,0
619520,note_off,,,,,0,0,1,,,,0,,,56,0
619520,note_on,,,,,0,0,1,,,,0,,,61,28
619520,note_on,,,,,0,0,1,,,,0,,,56,19
619520,note_on,,,,,0,0,1,,,,0,,,75,54
619520,note_off,,,,,512,0,1,,,,0,,,76,0
620032,note_on,,,,,0,0,1,,,,0,,,64,22
620032,note_off,,,,,0,0,1,,,,0,,,73,0
620032,note_off,,,,,512,0,1,,,,0,,,68,0
620032,note_on,,,,,0,0,1,,,,0,,,68,31
620544,note_off,,,,,512,0,1,,,,0,,,75,0
620544,note_off,,,,,0,0,1,,,,0,,,56,0
620544,note_off,,,,,0,0,1,,,,0,,,61,0
620544,note_on,,,,,0,0,1,,,,0,,,73,52
621056,note_off,,,,,512,0,1,,,,0,,,64,0
621056,note_on,,,,,0,0,1,,,,0,,,64,20
621056,note_off,,,,,0,0,1,,,,0,,,68,0
621056,note_on,,,,,0,0,1,,,,0,,,68,29
621568,set_tempo,,,,,3072,1,0,,500000,,,,,,
621568,note_on,,,,,0,0,1,,,,0,,,42,26
621568,control_change,,,,,0,0,1,,,,0,64,0,,
621568,note_off,,,,,0,0,1,,,,0,,,49,0
621568,control_change,,,,,512,0,1,,,,0,64,0,,
621568,control_change,,,,,0,0,1,,,,0,64,127,,
621568,control_change,,,,,0,0,1,,,,0,64,0,,
621568,control_change,,,,,0,0,1,,,,0,64,0,,
621568,control_change,,,,,0,0,1,,,,0,64,0,,
621568,note_off,,,,,0,0,1,,,,0,,,64,0
621568,note_off,,,,,0,0,1,,,,0,,,68,0
621568,note_off,,,,,0,0,1,,,,0,,,73,0
621568,note_off,,,,,0,0,1,,,,0,,,37,0
621568,note_on,,,,,0,0,1,,,,0,,,30,20
621568,note_on,,,,,0,0,1,,,,0,,,75,54
621826,control_change,,,,,258,0,1,,,,0,64,0,,
622080,note_on,,,,,0,0,1,,,,0,,,54,16
622080,note_on,,,,,254,0,1,,,,0,,,63,15
622080,note_on,,,,,0,0,1,,,,0,,,66,27
622080,note_on,,,,,0,0,1,,,,0,,,59,24
622122,control_change,,,,,42,0,1,,,,0,64,127,,
622592,note_off,,,,,470,0,1,,,,0,,,75,0
622592,note_on,,,,,0,0,1,,,,0,,,71,48
622592,note_on,,,,,0,0,1,,,,0,,,54,17
622592,note_on,,,,,0,0,1,,,,0,,,59,25
622592,note_off,,,,,0,0,1,,,,0,,,54,0
622592,note_off,,,,,0,0,1,,,,0,,,59,0
622592,set_tempo,,,,,1024,1,0,,461538,,,,,,
623104,note_off,,,,,512,0,1,,,,0,,,63,0
623104,note_off,,,,,0,0,1,,,,0,,,66,0
623104,note_on,,,,,0,0,1,,,,0,,,54,18
623104,note_off,,,,,0,0,1,,,,0,,,59,0
623104,note_off,,,,,0,0,1,,,,0,,,54,0
623104,note_on,,,,,0,0,1,,,,0,,,59,27
623104,note_on,,,,,0,0,1,,,,0,,,63,13
623104,note_on,,,,,0,0,1,,,,0,,,66,25
623616,note_off,,,,,0,0,1,,,,0,,,59,0
623616,note_off,,,,,0,0,1,,,,0,,,54,0
623616,note_on,,,,,0,0,1,,,,0,,,59,28
623616,note_on,,,,,0,0,1,,,,0,,,54,19
623616,note_on,,,,,0,0,1,,,,0,,,75,47
623616,note_off,,,,,512,0,1,,,,0,,,71,0
624128,note_off,,,,,0,0,1,,,,0,,,66,0
624128,note_on,,,,,0,0,1,,,,0,,,66,24
624128,note_on,,,,,0,0,1,,,,0,,,63,12
624128,note_off,,,,,512,0,1,,,,0,,,63,0
624640,note_off,,,,,512,0,1,,,,0,,,75,0
624640,note_on,,,,,0,0,1,,,,0,,,71,45
624640,note_off,,,,,0,0,1,,,,0,,,54,0
624640,note_off,,,,,0,0,1,,,,0,,,59,0
625152,note_on,,,,,0,0,1,,,,0,,,66,22
625152,note_off,,,,,512,0,1,,,,0,,,63,0
625152,note_off,,,,,0,0,1,,,,0,,,66,0
625152,note_on,,,,,0,0,1,,,,0,,,63,10
625664,note_on,,,,,0,0,1,,,,0,,,42,19
625664,note_off,,,,,0,0,1,,,,0,,,42,0
625664,note_off,,,,,0,0,1,,,,0,,,30,0
625664,note_off,,,,,0,0,1,,,,0,,,71,0
625664,note_on,,,,,0,0,1,,,,0,,,30,13
625664,note_off,,,,,0,0,1,,,,0,,,66,0
625664,control_change,,,,,0,0,1,,,,0,64,0,,
625664,control_change,,,,,0,0,1,,,,0,64,0,,
625664,control_change,,,,,0,0,1,,,,0,64,0,,
625664,control_change,,,,,0,0,1,,,,0,64,0,,
625664,control_change,,,,,0,0,1,,,,0,64,127,,
625664,control_change,,,,,512,0,1,,,,0,64,0,,
625664,note_off,,,,,0,0,1,,,,0,,,63,0
625664,note_on,,,,,0,0,1,,,,0,,,73,48
625922,control_change,,,,,258,0,1,,,,0,64,0,,
626176,note_on,,,,,0,0,1,,,,0,,,58,20
626176,note_on,,,,,254,0,1,,,,0,,,64,13
626176,note_on,,,,,0,0,1,,,,0,,,66,25
626176,note_on,,,,,0,0,1,,,,0,,,54,12
626218,control_change,,,,,42,0,1,,,,0,64,127,,
626688,note_off,,,,,470,0,1,,,,0,,,73,0
626688,note_on,,,,,0,0,1,,,,0,,,70,41
626688,note_on,,,,,0,0,1,,,,0,,,54,13
626688,note_on,,,,,0,0,1,,,,0,,,58,21
626688,note_off,,,,,0,0,1,,,,0,,,54,0
626688,note_off,,,,,0,0,1,,,,0,,,58,0
627200,note_on,,,,,0,0,1,,,,0,,,58,23
627200,note_on,,,,,0,0,1,,,,0,,,54,14
627200,note_on,,,,,0,0,1,,,,0,,,66,23
627200,note_off,,,,,0,0,1,,,,0,,,58,0
627200,note_on,,,,,0,0,1,,,,0,,,64,11
627200,note_off,,,,,0,0,1,,,,0,,,66,0
627200,note_off,,,,,512,0,1,,,,0,,,64,0
627200,note_off,,,,,0,0,1,,,,0,,,54,0
627712,note_on,,,,,0,0,1,,,,0,,,54,15
627712,note_on,,,,,0,0,1,,,,0,,,58,24
627712,note_off,,,,,0,0,1,,,,0,,,54,0
627712,note_off,,,,,0,0,1,,,,0,,,58,0
627712,note_on,,,,,0,0,1,,,,0,,,73,43
627712,note_off,,,,,512,0,1,,,,0,,,70,0
628224,note_off,,,,,0,0,1,,,,0,,,66,0
628224,note_off,,,,,512,0,1,,,,0,,,64,0
628224,note_on,,,,,0,0,1,,,,0,,,66,22
628224,note_on,,,,,0,0,1,,,,0,,,64,10
628736,note_off,,,,,512,0,1,,,,0,,,73,0
628736,note_off,,,,,0,0,1,,,,0,,,58,0
628736,note_on,,,,,0,0,1,,,,0,,,70,38
628736,note_off,,,,,0,0,1,,,,0,,,54,0
629248,note_on,,,,,0,0,1,,,,0,,,64,8
629248,note_off,,,,,0,0,1,,,,0,,,66,0
629248,note_on,,,,,0,0,1,,,,0,,,66,20
629248,set_tempo,,,,,6656,1,0,,545454,,,,,,
629248,note_off,,,,,512,0,1,,,,0,,,64,0
629760,note_off,,,,,0,0,1,,,,0,,,66,0
629760,note_off,,,,,0,0,1,,,,0,,,64,0
629760,note_off,,,,,0,0,1,,,,0,,,30,0
629760,note_off,,,,,0,0,1,,,,0,,,42,0
629760,note_on,,,,,0,0,1,,,,0,,,75,55
629760,note_on,,,,,0,0,1,,,,0,,,36,21
629760,note_on,,,,,0,0,1,,,,0,,,48,27
629760,control_change,,,,,0,0,1,,,,0,64,0,,
629760,control_change,,,,,512,0,1,,,,0,64,0,,
629760,control_change,,,,,0,0,1,,,,0,64,0,,
629760,control_change,,,,,0,0,1,,,,0,64,127,,
629760,note_off,,,,,0,0,1,,,,0,,,70,0
629760,control_change,,,,,0,0,1,,,,0,64,0,,
629760,control_change,,,,,0,0,1,,,,0,64,0,,
629760,set_tempo,,,,,512,1,0,,705882,,,,,,
629760,control_change,,,,,0,0,1,,,,0,64,0,,
630018,control_change,,,,,258,0,1,,,,0,64,0,,
630272,note_on,,,,,0,0,1,,,,0,,,66,24
630272,note_on,,,,,0,0,1,,,,0,,,63,32
630272,note_on,,,,,0,0,1,,,,0,,,56,24
630272,note_on,,,,,254,0,1,,,,0,,,68,26
630272,set_tempo,,,,,512,1,0,,500000,,,,,,
630314,control_change,,,,,42,0,1,,,,0,64,127,,
630784,note_on,,,,,0,0,1,,,,0,,,66,25
630784,set_tempo,,,,,512,1,0,,461538,,,,,,
630784,note_off,,,,,0,0,1,,,,0,,,63,0
630784,note_off,,,,,470,0,1,,,,0,,,75,0
630784,note_on,,,,,0,0,1,,,,0,,,80,55
630784,note_on,,,,,0,0,1,,,,0,,,56,25
630784,note_on,,,,,0,0,1,,,,0,,,63,33
630784,note_off,,,,,0,0,1,,,,0,,,66,0
630784,note_off,,,,,0,0,1,,,,0,,,56,0
631296,note_on,,,,,0,0,1,,,,0,,,66,26
631296,note_off,,,,,0,0,1,,,,0,,,56,0
631296,note_off,,,,,0,0,1,,,,0,,,63,0
631296,note_off,,,,,0,0,1,,,,0,,,66,0
631296,note_on,,,,,0,0,1,,,,0,,,63,35
631296,note_on,,,,,0,0,1,,,,0,,,56,26
631296,note_on,,,,,0,0,1,,,,0,,,75,40
631296,note_on,,,,,0,0,1,,,,0,,,68,31
631296,note_off,,,,,512,0,1,,,,0,,,68,0
631808,note_off,,,,,0,0,1,,,,0,,,66,0
631808,note_off,,,,,0,0,1,,,,0,,,56,0
631808,note_on,,,,,0,0,1,,,,0,,,66,27
631808,note_on,,,,,0,0,1,,,,0,,,63,36
631808,note_on,,,,,0,0,1,,,,0,,,56,27
631808,note_off,,,,,0,0,1,,,,0,,,63,0
631808,note_off,,,,,512,0,1,,,,0,,,80,0
631808,set_tempo,,,,,1024,1,0,,545454,,,,,,
631808,note_on,,,,,0,0,1,,,,0,,,81,60
632320,set_tempo,,,,,512,1,0,,461538,,,,,,
632320,note_off,,,,,512,0,1,,,,0,,,68,0
632320,note_off,,,,,0,0,1,,,,0,,,75,0
632320,note_on,,,,,0,0,1,,,,0,,,68,26
632320,note_on,,,,,0,0,1,,,,0,,,75,35
632832,note_off,,,,,0,0,1,,,,0,,,66,0
632832,note_off,,,,,512,0,1,,,,0,,,81,0
632832,note_on,,,,,0,0,1,,,,0,,,80,56
632832,note_off,,,,,0,0,1,,,,0,,,56,0
632832,note_off,,,,,0,0,1,,,,0,,,63,0
633344,note_on,,,,,0,0,1,,,,0,,,68,32
633344,note_off,,,,,0,0,1,,,,0,,,75,0
633344,note_on,,,,,0,0,1,,,,0,,,75,41
633344,note_off,,,,,512,0,1,,,,0,,,68,0
633856,note_off,,,,,0,0,1,,,,0,,,75,0
633856,note_on,,,,,0,0,1,,,,0,,,37,14
633856,note_on,,,,,0,0,1,,,,0,,,78,56
633856,note_off,,,,,0,0,1,,,,0,,,48,0
633856,note_on,,,,,0,0,1,,,,0,,,49,20
633856,note_off,,,,,0,0,1,,,,0,,,80,0
633856,note_off,,,,,0,0,1,,,,0,,,68,0
633856,note_off,,,,,0,0,1,,,,0,,,36,0
633856,control_change,,,,,0,0,1,,,,0,64,0,,
633856,control_change,,,,,0,0,1,,,,0,64,0,,
633856,control_change,,,,,0,0,1,,,,0,64,0,,
633856,control_change,,,,,0,0,1,,,,0,64,127,,
633856,control_change,,,,,0,0,1,,,,0,64,0,,
633856,control_change,,,,,512,0,1,,,,0,64,0,,
633856,control_change,,,,,0,0,1,,,,0,64,0,,
634114,control_change,,,,,258,0,1,,,,0,64,0,,
634368,note_on,,,,,0,0,1,,,,0,,,61,25
634368,note_on,,,,,0,0,1,,,,0,,,73,35
634368,note_on,,,,,0,0,1,,,,0,,,56,17
634368,note_on,,,,,254,0,1,,,,0,,,68,26
634410,control_change,,,,,42,0,1,,,,0,64,127,,
634880,note_off,,,,,470,0,1,,,,0,,,78,0
634880,note_on,,,,,0,0,1,,,,0,,,76,50
634880,note_on,,,,,0,0,1,,,,0,,,56,18
634880,note_on,,,,,0,0,1,,,,0,,,61,26
634880,note_off,,,,,0,0,1,,,,0,,,56,0
634880,note_off,,,,,0,0,1,,,,0,,,61,0
634880,set_tempo,,,,,2560,1,0,,461538,,,,,,
635392,note_on,,,,,0,0,1,,,,0,,,73,33
635392,note_on,,,,,0,0,1,,,,0,,,61,28
635392,note_on,,,,,0,0,1,,,,0,,,56,19
635392,note_on,,,,,0,0,1,,,,0,,,68,24
635392,note_off,,,,,0,0,1,,,,0,,,73,0
635392,note_off,,,,,0,0,1,,,,0,,,56,0
635392,note_off,,,,,512,0,1,,,,0,,,68,0
635392,note_off,,,,,0,0,1,,,,0,,,61,0
635904,note_off,,,,,512,0,1,,,,0,,,76,0
635904,note_on,,,,,0,0,1,,,,0,,,75,47
635904,note_on,,,,,0,0,1,,,,0,,,56,20
635904,note_on,,,,,0,0,1,,,,0,,,61,29
635904,note_off,,,,,0,0,1,,,,0,,,56,0
635904,note_off,,,,,0,0,1,,,,0,,,61,0
636416,note_on,,,,,0,0,1,,,,0,,,68,30
636416,note_on,,,,,0,0,1,,,,0,,,64,21
636416,note_off,,,,,512,0,1,,,,0,,,68,0
636416,note_off,,,,,0,0,1,,,,0,,,73,0
636928,note_off,,,,,512,0,1,,,,0,,,75,0
636928,note_on,,,,,0,0,1,,,,0,,,73,45
636928,note_off,,,,,0,0,1,,,,0,,,56,0
636928,note_off,,,,,0,0,1,,,,0,,,61,0
637440,note_on,,,,,0,0,1,,,,0,,,68,28
637440,note_on,,,,,0,0,1,,,,0,,,64,19
637440,note_off,,,,,512,0,1,,,,0,,,64,0
637440,note_off,,,,,0,0,1,,,,0,,,68,0
637952,note_off,,,,,0,0,1,,,,0,,,64,0
637952,note_on,,,,,0,0,1,,,,0,,,30,15
637952,note_on,,,,,0,0,1,,,,0,,,73,49
637952,note_off,,,,,0,0,1,,,,0,,,49,0
637952,note_off,,,,,0,0,1,,,,0,,,37,0
637952,note_off,,,,,0,0,1,,,,0,,,73,0
637952,note_off,,,,,0,0,1,,,,0,,,68,0
637952,note_on,,,,,0,0,1,,,,0,,,42,21
637952,control_change,,,,,0,0,1,,,,0,64,0,,
637952,control_change,,,,,0,0,1,,,,0,64,0,,
637952,control_change,,,,,0,0,1,,,,0,64,0,,
637952,control_change,,,,,0,0,1,,,,0,64,0,,
637952,control_change,,,,,0,0,1,,,,0,64,127,,
637952,control_change,,,,,0,0,1,,,,0,64,0,,
637952,control_change,,,,,0,0,1,,,,0,64,0,,
637952,control_change,,,,,512,0,1,,,,0,64,0,,
637952,control_change,,,,,0,0,1,,,,0,64,0,,
638210,control_change,,,,,258,0,1,,,,0,64,0,,
638464,note_on,,,,,0,0,1,,,,0,,,64,18
638464,note_on,,,,,0,0,1,,,,0,,,54,18
638464,note_on,,,,,0,0,1,,,,0,,,61,26
638464,note_on,,,,,254,0,1,,,,0,,,66,20
638464,set_tempo,,,,,3584,1,0,,500000,,,,,,
638464,note_on,,,,,0,0,1,,,,0,,,70,20
638506,control_change,,,,,42,0,1,,,,0,64,127,,
638976,note_off,,,,,0,0,1,,,,0,,,64,0
638976,note_off,,,,,0,0,1,,,,0,,,61,0
638976,note_off,,,,,0,0,1,,,,0,,,54,0
638976,set_tempo,,,,,512,1,0,,461538,,,,,,
638976,note_on,,,,,0,0,1,,,,0,,,61,27
638976,note_on,,,,,0,0,1,,,,0,,,54,19
638976,note_on,,,,,0,0,1,,,,0,,,76,49
638976,note_off,,,,,470,0,1,,,,0,,,73,0
638976,note_on,,,,,0,0,1,,,,0,,,64,19
639488,note_on,,,,,0,0,1,,,,0,,,61,29
639488,note_on,,,,,0,0,1,,,,0,,,54,20
639488,note_on,,,,,0,0,1,,,,0,,,70,34
639488,note_on,,,,,0,0,1,,,,0,,,64,20
639488,note_off,,,,,0,0,1,,,,0,,,64,0
639488,note_off,,,,,0,0,1,,,,0,,,61,0
639488,note_off,,,,,0,0,1,,,,0,,,54,0
639488,note_off,,,,,0,0,1,,,,0,,,70,0
639488,note_off,,,,,512,0,1,,,,0,,,66,0
639488,note_on,,,,,0,0,1,,,,0,,,66,25
640000,note_off,,,,,512,0,1,,,,0,,,76,0
640000,note_on,,,,,0,0,1,,,,0,,,80,54
640000,note_on,,,,,0,0,1,,,,0,,,54,21
640000,note_on,,,,,0,0,1,,,,0,,,61,30
640000,note_on,,,,,0,0,1,,,,0,,,64,21
640000,note_off,,,,,0,0,1,,,,0,,,54,0
640000,note_off,,,,,0,0,1,,,,0,,,61,0
640000,note_off,,,,,0,0,1,,,,0,,,64,0
640000,set_tempo,,,,,1024,1,0,,545454,,,,,,
640512,set_tempo,,,,,512,1,0,,461538,,,,,,
640512,note_on,,,,,0,0,1,,,,0,,,70,29
640512,note_off,,,,,512,0,1,,,,0,,,66,0
640512,note_on,,,,,0,0,1,,,,0,,,66,20
640512,note_off,,,,,0,0,1,,,,0,,,70,0
641024,note_on,,,,,0,0,1,,,,0,,,78,50
641024,note_off,,,,,512,0,1,,,,0,,,80,0
641024,note_off,,,,,0,0,1,,,,0,,,61,0
641024,note_off,,,,,0,0,1,,,,0,,,54,0
641024,note_off,,,,,0,0,1,,,,0,,,64,0
641536,note_on,,,,,0,0,1,,,,0,,,66,26
641536,note_on,,,,,0,0,1,,,,0,,,70,35
641536,note_off,,,,,512,0,1,,,,0,,,66,0
641536,note_off,,,,,0,0,1,,,,0,,,70,0
642048,set_tempo,,,,,1536,1,0,,625000,,,,,,
642048,note_on,,,,,0,0,1,,,,0,,,47,14
642048,note_on,,,,,0,0,1,,,,0,,,35,8
642048,note_on,,,,,0,0,1,,,,0,,,76,50
642048,note_off,,,,,0,0,1,,,,0,,,42,0
642048,note_off,,,,,0,0,1,,,,0,,,30,0
642048,note_off,,,,,0,0,1,,,,0,,,78,0
642048,note_off,,,,,0,0,1,,,,0,,,70,0
642048,control_change,,,,,0,0,1,,,,0,64,0,,
642048,control_change,,,,,0,0,1,,,,0,64,0,,
642048,control_change,,,,,0,0,1,,,,0,64,0,,
642048,control_change,,,,,0,0,1,,,,0,64,0,,
642048,control_change,,,,,0,0,1,,,,0,64,127,,
642048,control_change,,,,,0,0,1,,,,0,64,0,,
642048,control_change,,,,,0,0,1,,,,0,64,0,,
642048,control_change,,,,,512,0,1,,,,0,64,0,,
642048,note_off,,,,,0,0,1,,,,0,,,66,0
642048,control_change,,,,,0,0,1,,,,0,64,0,,
642306,control_change,,,,,258,0,1,,,,0,64,0,,
642560,set_tempo,,,,,512,1,0,,545454,,,,,,
642560,note_on,,,,,0,0,1,,,,0,,,59,19
642560,note_on,,,,,254,0,1,,,,0,,,66,20
642560,note_on,,,,,0,0,1,,,,0,,,71,29
642560,note_on,,,,,0,0,1,,,,0,,,54,11
642602,control_change,,,,,42,0,1,,,,0,64,127,,
643072,note_on,,,,,0,0,1,,,,0,,,54,12
643072,note_off,,,,,470,0,1,,,,0,,,76,0
643072,set_tempo,,,,,512,1,0,,461538,,,,,,
643072,note_on,,,,,0,0,1,,,,0,,,75,44
643072,note_on,,,,,0,0,1,,,,0,,,59,20
643072,note_off,,,,,0,0,1,,,,0,,,54,0
643072,note_off,,,,,0,0,1,,,,0,,,59,0
643584,note_on,,,,,0,0,1,,,,0,,,66,18
643584,note_on,,,,,0,0,1,,,,0,,,71,27
643584,note_on,,,,,0,0,1,,,,0,,,54,13
643584,note_on,,,,,0,0,1,,,,0,,,59,22
643584,note_off,,,,,0,0,1,,,,0,,,54,0
643584,note_off,,,,,0,0,1,,,,0,,,59,0
643584,note_off,,,,,512,0,1,,,,0,,,66,0
643584,note_off,,,,,0,0,1,,,,0,,,71,0
644096,note_off,,,,,0,0,1,,,,0,,,54,0
644096,note_on,,,,,0,0,1,,,,0,,,59,23
644096,note_on,,,,,0,0,1,,,,0,,,54,14
644096,note_on,,,,,0,0,1,,,,0,,,73,41
644096,note_off,,,,,0,0,1,,,,0,,,59,0
644096,note_off,,,,,512,0,1,,,,0,,,75,0
644608,note_on,,,,,0,0,1,,,,0,,,63,15
644608,note_on,,,,,0,0,1,,,,0,,,66,24
644608,note_off,,,,,0,0,1,,,,0,,,71,0
644608,note_off,,,,,512,0,1,,,,0,,,66,0
645120,note_off,,,,,0,0,1,,,,0,,,54,0
645120,note_on,,,,,0,0,1,,,,0,,,71,39
645120,note_off,,,,,512,0,1,,,,0,,,73,0
645120,note_off,,,,,0,0,1,,,,0,,,59,0
645632,note_off,,,,,512,0,1,,,,0,,,63,0
645632,note_off,,,,,0,0,1,,,,0,,,66,0
645632,note_on,,,,,0,0,1,,,,0,,,63,13
645632,note_on,,,,,0,0,1,,,,0,,,66,22
646144,note_on,,,,,0,0,1,,,,0,,,71,44
646144,note_on,,,,,0,0,1,,,,0,,,44,15
646144,note_on,,,,,0,0,1,,,,0,,,32,9
646144,note_off,,,,,0,0,1,,,,0,,,47,0
646144,control_change,,,,,512,0,1,,,,0,64,0,,
646144,note_off,,,,,0,0,1,,,,0,,,71,0
646144,control_change,,,,,0,0,1,,,,0,64,127,,
646144,control_change,,,,,0,0,1,,,,0,64,0,,
646144,control_change,,,,,0,0,1,,,,0,64,0,,
646144,control_change,,,,,0,0,1,,,,0,64,0,,
646144,control_change,,,,,0,0,1,,,,0,64,0,,
646144,control_change,,,,,0,0,1,,,,0,64,0,,
646144,note_off,,,,,0,0,1,,,,0,,,35,0
646144,set_tempo,,,,,3072,1,0,,545454,,,,,,
646144,control_change,,,,,0,0,1,,,,0,64,0,,
646144,note_off,,,,,0,0,1,,,,0,,,63,0
646144,note_off,,,,,0,0,1,,,,0,,,66,0
646402,control_change,,,,,258,0,1,,,,0,64,0,,
646656,note_on,,,,,0,0,1,,,,0,,,51,12
646656,note_on,,,,,0,0,1,,,,0,,,68,29
646656,note_on,,,,,254,0,1,,,,0,,,63,20
646656,note_on,,,,,0,0,1,,,,0,,,56,20
646656,note_on,,,,,0,0,1,,,,0,,,59,12
646698,control_change,,,,,42,0,1,,,,0,64,127,,
647168,note_off,,,,,0,0,1,,,,0,,,56,0
647168,note_off,,,,,0,0,1,,,,0,,,51,0
647168,note_on,,,,,0,0,1,,,,0,,,59,13
647168,note_on,,,,,0,0,1,,,,0,,,56,21
647168,note_on,,,,,0,0,1,,,,0,,,51,13
647168,note_on,,,,,0,0,1,,,,0,,,73,47
647168,note_off,,,,,470,0,1,,,,0,,,71,0
647168,note_off,,,,,0,0,1,,,,0,,,59,0
647168,set_tempo,,,,,1024,1,0,,461538,,,,,,
647680,note_off,,,,,0,0,1,,,,0,,,51,0
647680,note_on,,,,,0,0,1,,,,0,,,51,14
647680,note_on,,,,,0,0,1,,,,0,,,68,32
647680,note_on,,,,,0,0,1,,,,0,,,63,23
647680,note_off,,,,,0,0,1,,,,0,,,59,0
647680,note_off,,,,,0,0,1,,,,0,,,56,0
647680,note_on,,,,,0,0,1,,,,0,,,59,14
647680,note_off,,,,,0,0,1,,,,0,,,68,0
647680,note_off,,,,,512,0,1,,,,0,,,63,0
647680,note_on,,,,,0,0,1,,,,0,,,56,23
648192,note_on,,,,,0,0,1,,,,0,,,56,24
648192,note_on,,,,,0,0,1,,,,0,,,59,15
648192,note_on,,,,,0,0,1,,,,0,,,70,50
648192,note_off,,,,,0,0,1,,,,0,,,59,0
648192,note_on,,,,,0,0,1,,,,0,,,51,15
648192,note_off,,,,,0,0,1,,,,0,,,51,0
648192,note_off,,,,,512,0,1,,,,0,,,73,0
648192,note_off,,,,,0,0,1,,,,0,,,56,0
648704,note_off,,,,,0,0,1,,,,0,,,68,0
648704,note_on,,,,,0,0,1,,,,0,,,63,26
648704,note_on,,,,,0,0,1,,,,0,,,68,35
648704,note_off,,,,,512,0,1,,,,0,,,63,0
649216,note_off,,,,,512,0,1,,,,0,,,70,0
649216,note_on,,,,,0,0,1,,,,0,,,71,52
649216,note_off,,,,,0,0,1,,,,0,,,51,0
649216,note_off,,,,,0,0,1,,,,0,,,56,0
649216,note_off,,,,,0,0,1,,,,0,,,59,0
649728,note_off,,,,,512,0,1,,,,0,,,63,0
649728,note_off,,,,,0,0,1,,,,0,,,68,0
649728,note_on,,,,,0,0,1,,,,0,,,63,29
649728,note_on,,,,,0,0,1,,,,0,,,68,38
650240,note_off,,,,,0,0,1,,,,0,,,63,0
650240,note_off,,,,,0,0,1,,,,0,,,68,0
650240,note_off,,,,,0,0,1,,,,0,,,71,0
650240,note_off,,,,,0,0,1,,,,0,,,32,0
650240,note_off,,,,,0,0,1,,,,0,,,44,0
650240,note_on,,,,,0,0,1,,,,0,,,49,21
650240,note_on,,,,,0,0,1,,,,0,,,37,15
650240,note_on,,,,,0,0,1,,,,0,,,78,61
650240,control_change,,,,,0,0,1,,,,0,64,0,,
650240,control_change,,,,,0,0,1,,,,0,64,0,,
650240,control_change,,,,,0,0,1,,,,0,64,0,,
650240,control_change,,,,,0,0,1,,,,0,64,0,,
650240,control_change,,,,,0,0,1,,,,0,64,0,,
650240,control_change,,,,,0,0,1,,,,0,64,127,,
650240,control_change,,,,,512,0,1,,,,0,64,0,,
650240,set_tempo,,,,,3072,1,0,,625000,,,,,,
650240,control_change,,,,,0,0,1,,,,0,64,0,,
650498,control_change,,,,,258,0,1,,,,0,64,0,,
650752,note_on,,,,,0,0,1,,,,0,,,56,18
650752,note_on,,,,,254,0,1,,,,0,,,68,32
650752,set_tempo,,,,,512,1,0,,461538,,,,,,
650752,note_on,,,,,0,0,1,,,,0,,,61,26
650752,note_on,,,,,0,0,1,,,,0,,,73,41
650794,control_change,,,,,42,0,1,,,,0,64,127,,
651264,note_off,,,,,470,0,1,,,,0,,,78,0
651264,note_on,,,,,0,0,1,,,,0,,,76,57
651264,note_on,,,,,0,0,1,,,,0,,,56,19
651264,note_on,,,,,0,0,1,,,,0,,,61,27
651264,note_off,,,,,0,0,1,,,,0,,,56,0
651264,note_off,,,,,0,0,1,,,,0,,,61,0
651776,note_on,,,,,0,0,1,,,,0,,,61,29
651776,note_on,,,,,0,0,1,,,,0,,,56,20
651776,note_on,,,,,0,0,1,,,,0,,,68,29
651776,note_off,,,,,0,0,1,,,,0,,,61,0
651776,note_on,,,,,0,0,1,,,,0,,,73,38
651776,note_off,,,,,0,0,1,,,,0,,,73,0
651776,note_off,,,,,512,0,1,,,,0,,,68,0
651776,note_off,,,,,0,0,1,,,,0,,,56,0
652288,note_off,,,,,0,0,1,,,,0,,,61,0
652288,note_off,,,,,0,0,1,,,,0,,,56,0
652288,note_on,,,,,0,0,1,,,,0,,,56,21
652288,note_on,,,,,0,0,1,,,,0,,,61,30
652288,note_off,,,,,512,0,1,,,,0,,,76,0
652288,note_on,,,,,0,0,1,,,,0,,,75,52
652800,note_off,,,,,512,0,1,,,,0,,,68,0
652800,note_off,,,,,0,0,1,,,,0,,,73,0
652800,note_on,,,,,0,0,1,,,,0,,,64,25
652800,note_on,,,,,0,0,1,,,,0,,,68,34
653312,note_off,,,,,0,0,1,,,,0,,,61,0
653312,note_off,,,,,0,0,1,,,,0,,,56,0
653312,note_off,,,,,512,0,1,,,,0,,,75,0
653312,note_on,,,,,0,0,1,,,,0,,,73,48
653824,note_on,,,,,0,0,1,,,,0,,,64,22
653824,note_on,,,,,0,0,1,,,,0,,,68,31
653824,note_off,,,,,0,0,1,,,,0,,,68,0
653824,note_off,,,,,512,0,1,,,,0,,,64,0
654336,set_tempo,,,,,3584,1,0,,500000,,,,,,
654336,note_on,,,,,0,0,1,,,,0,,,42,26
654336,note_on,,,,,0,0,1,,,,0,,,75,54
654336,note_off,,,,,0,0,1,,,,0,,,49,0
654336,note_off,,,,,0,0,1,,,,0,,,37,0
654336,note_off,,,,,0,0,1,,,,0,,,73,0
654336,note_off,,,,,0,0,1,,,,0,,,68,0
654336,note_off,,,,,0,0,1,,,,0,,,64,0
654336,control_change,,,,,0,0,1,,,,0,64,0,,
654336,note_on,,,,,0,0,1,,,,0,,,30,20
654336,control_change,,,,,0,0,1,,,,0,64,0,,
654336,control_change,,,,,0,0,1,,,,0,64,0,,
654336,control_change,,,,,0,0,1,,,,0,64,0,,
654336,control_change,,,,,0,0,1,,,,0,64,127,,
654336,control_change,,,,,0,0,1,,,,0,64,0,,
654336,control_change,,,,,512,0,1,,,,0,64,0,,
654336,control_change,,,,,0,0,1,,,,0,64,0,,
654594,control_change,,,,,258,0,1,,,,0,64,0,,
654848,note_on,,,,,0,0,1,,,,0,,,59,24
654848,note_on,,,,,0,0,1,,,,0,,,66,33
654848,note_on,,,,,0,0,1,,,,0,,,54,16
654848,note_on,,,,,254,0,1,,,,0,,,63,21
654890,control_change,,,,,42,0,1,,,,0,64,127,,
655360,set_tempo,,,,,1024,1,0,,461538,,,,,,
655360,note_off,,,,,470,0,1,,,,0,,,75,0
655360,note_on,,,,,0,0,1,,,,0,,,71,48
655360,note_on,,,,,0,0,1,,,,0,,,54,17
655360,note_on,,,,,0,0,1,,,,0,,,59,25
655360,note_off,,,,,0,0,1,,,,0,,,54,0
655360,note_off,,,,,0,0,1,,,,0,,,59,0
655872,note_on,,,,,0,0,1,,,,0,,,54,18
655872,note_on,,,,,0,0,1,,,,0,,,66,31
655872,note_on,,,,,0,0,1,,,,0,,,63,19
655872,note_off,,,,,0,0,1,,,,0,,,59,0
655872,note_on,,,,,0,0,1,,,,0,,,59,27
655872,note_off,,,,,0,0,1,,,,0,,,66,0
655872,note_off,,,,,0,0,1,,,,0,,,54,0
655872,note_off,,,,,512,0,1,,,,0,,,63,0
656384,note_on,,,,,0,0,1,,,,0,,,75,47
656384,note_on,,,,,0,0,1,,,,0,,,54,19
656384,note_on,,,,,0,0,1,,,,0,,,59,28
656384,note_off,,,,,0,0,1,,,,0,,,54,0
656384,note_off,,,,,0,0,1,,,,0,,,59,0
656384,note_off,,,,,512,0,1,,,,0,,,71,0
656896,note_off,,,,,512,0,1,,,,0,,,63,0
656896,note_off,,,,,0,0,1,,,,0,,,66,0
656896,note_on,,,,,0,0,1,,,,0,,,63,18
656896,note_on,,,,,0,0,1,,,,0,,,66,30
657408,note_off,,,,,0,0,1,,,,0,,,59,0
657408,note_on,,,,,0,0,1,,,,0,,,71,45
657408,note_off,,,,,512,0,1,,,,0,,,75,0
657408,note_off,,,,,0,0,1,,,,0,,,54,0
657920,note_off,,,,,0,0,1,,,,0,,,66,0
657920,note_on,,,,,0,0,1,,,,0,,,63,16
657920,note_on,,,,,0,0,1,,,,0,,,66,28
657920,note_off,,,,,512,0,1,,,,0,,,63,0
658432,note_off,,,,,0,0,1,,,,0,,,63,0
658432,control_change,,,,,512,0,1,,,,0,64,0,,
658432,control_change,,,,,0,0,1,,,,0,64,0,,
658432,control_change,,,,,0,0,1,,,,0,64,127,,
658432,control_change,,,,,0,0,1,,,,0,64,0,,
658432,control_change,,,,,0,0,1,,,,0,64,0,,
658432,control_change,,,,,0,0,1,,,,0,64,0,,
658432,control_change,,,,,0,0,1,,,,0,64,0,,
658432,note_off,,,,,0,0,1,,,,0,,,66,0
658432,note_off,,,,,0,0,1,,,,0,,,30,0
658432,note_off,,,,,0,0,1,,,,0,,,71,0
658432,note_on,,,,,0,0,1,,,,0,,,42,19
658432,control_change,,,,,0,0,1,,,,0,64,0,,
658432,note_on,,,,,0,0,1,,,,0,,,73,48
658432,note_on,,,,,0,0,1,,,,0,,,30,13
658432,note_off,,,,,0,0,1,,,,0,,,42,0
658690,control_change,,,,,258,0,1,,,,0,64,0,,
658944,note_on,,,,,254,0,1,,,,0,,,64,19
658944,note_on,,,,,0,0,1,,,,0,,,66,31
658944,note_on,,,,,0,0,1,,,,0,,,54,12
658944,note_on,,,,,0,0,1,,,,0,,,58,20
658986,control_change,,,,,42,0,1,,,,0,64,127,,
659456,note_off,,,,,0,0,1,,,,0,,,58,0
659456,note_off,,,,,0,0,1,,,,0,,,54,0
659456,note_on,,,,,0,0,1,,,,0,,,70,46
659456,note_off,,,,,470,0,1,,,,0,,,73,0
659456,note_on,,,,,0,0,1,,,,0,,,58,21
659456,note_on,,,,,0,0,1,,,,0,,,54,13
659968,note_off,,,,,512,0,1,,,,0,,,64,0
659968,note_off,,,,,0,0,1,,,,0,,,66,0
659968,note_off,,,,,0,0,1,,,,0,,,54,0
659968,note_off,,,,,0,0,1,,,,0,,,58,0
659968,note_on,,,,,0,0,1,,,,0,,,64,17
659968,note_on,,,,,0,0,1,,,,0,,,66,29
659968,note_on,,,,,0,0,1,,,,0,,,54,14
659968,note_on,,,,,0,0,1,,,,0,,,58,23
660480,note_off,,,,,0,0,1,,,,0,,,54,0
660480,note_off,,,,,512,0,1,,,,0,,,70,0
660480,note_on,,,,,0,0,1,,,,0,,,73,45
660480,note_on,,,,,0,0,1,,,,0,,,54,15
660480,note_on,,,,,0,0,1,,,,0,,,58,24
660480,note_off,,,,,0,0,1,,,,0,,,58,0
660992,note_off,,,,,512,0,1,,,,0,,,64,0
660992,note_off,,,,,0,0,1,,,,0,,,66,0
660992,note_on,,,,,0,0,1,,,,0,,,64,16
660992,note_on,,,,,0,0,1,,,,0,,,66,28
661504,note_off,,,,,0,0,1,,,,0,,,54,0
661504,note_off,,,,,0,0,1,,,,0,,,58,0
661504,note_off,,,,,512,0,1,,,,0,,,73,0
661504,note_on,,,,,0,0,1,,,,0,,,70,43
662016,note_off,,,,,512,0,1,,,,0,,,64,0
662016,note_off,,,,,0,0,1,,,,0,,,66,0
662016,note_on,,,,,0,0,1,,,,0,,,64,14
662016,note_on,,,,,0,0,1,,,,0,,,66,26
662016,set_tempo,,,,,6656,1,0,,545454,,,,,,
662528,note_off,,,,,0,0,1,,,,0,,,70,0
662528,note_on,,,,,0,0,1,,,,0,,,47,25
662528,note_on,,,,,0,0,1,,,,0,,,35,19
662528,note_on,,,,,0,0,1,,,,0,,,71,46
662528,note_off,,,,,0,0,1,,,,0,,,42,0
662528,note_off,,,,,0,0,1,,,,0,,,30,0
662528,note_off,,,,,0,0,1,,,,0,,,66,0
662528,control_change,,,,,0,0,1,,,,0,64,127,,
662528,control_change,,,,,0,0,1,,,,0,64,0,,
662528,control_change,,,,,0,0,1,,,,0,64,0,,
662528,control_change,,,,,0,0,1,,,,0,64,0,,
662528,control_change,,,,,0,0,1,,,,0,64,0,,
662528,control_change,,,,,0,0,1,,,,0,64,0,,
662528,control_change,,,,,0,0,1,,,,0,64,0,,
662528,control_change,,,,,512,0,1,,,,0,64,0,,
662528,note_off,,,,,0,0,1,,,,0,,,64,0
662786,control_change,,,,,258,0,1,,,,0,64,0,,
663040,set_tempo,,,,,1024,1,0,,461538,,,,,,
663040,note_on,,,,,0,0,1,,,,0,,,54,12
663040,note_on,,,,,0,0,1,,,,0,,,47,12
663040,note_on,,,,,254,0,1,,,,0,,,59,25
663040,note_on,,,,,0,0,1,,,,0,,,51,20
663082,control_change,,,,,42,0,1,,,,0,64,127,,
663552,note_off,,,,,470,0,1,,,,0,,,59,0
663552,note_on,,,,,0,0,1,,,,0,,,63,25
663552,note_on,,,,,0,0,1,,,,0,,,66,30
663552,note_on,,,,,0,0,1,,,,0,,,47,13
663552,note_on,,,,,0,0,1,,,,0,,,51,21
663552,note_on,,,,,0,0,1,,,,0,,,54,13
663552,note_off,,,,,0,0,1,,,,0,,,47,0
663552,note_off,,,,,0,0,1,,,,0,,,51,0
663552,note_off,,,,,0,0,1,,,,0,,,54,0
664064,note_on,,,,,0,0,1,,,,0,,,54,14
664064,note_on,,,,,0,0,1,,,,0,,,51,23
664064,note_on,,,,,0,0,1,,,,0,,,59,25
664064,note_on,,,,,0,0,1,,,,0,,,47,14
664064,note_off,,,,,0,0,1,,,,0,,,51,0
664064,note_off,,,,,0,0,1,,,,0,,,47,0
664064,note_off,,,,,0,0,1,,,,0,,,66,0
664064,note_off,,,,,512,0,1,,,,0,,,63,0
664064,note_off,,,,,0,0,1,,,,0,,,54,0
664576,note_on,,,,,0,0,1,,,,0,,,54,15
664576,note_on,,,,,0,0,1,,,,0,,,51,24
664576,note_on,,,,,0,0,1,,,,0,,,47,15
664576,note_on,,,,,0,0,1,,,,0,,,71,46
664576,note_off,,,,,0,0,1,,,,0,,,51,0
664576,note_off,,,,,0,0,1,,,,0,,,47,0
664576,note_off,,,,,0,0,1,,,,0,,,59,0
664576,note_off,,,,,512,0,1,,,,0,,,71,0
664576,note_off,,,,,0,0,1,,,,0,,,54,0
665088,note_on,,,,,512,0,1,,,,0,,,59,25
665600,set_tempo,,,,,2560,1,0,,500000,,,,,,
665600,note_off,,,,,0,0,1,,,,0,,,54,0
665600,note_off,,,,,0,0,1,,,,0,,,47,0
665600,note_on,,,,,0,0,1,,,,0,,,66,30
665600,note_off,,,,,512,0,1,,,,0,,,59,0
665600,note_off,,,,,0,0,1,,,,0,,,51,0
665600,note_on,,,,,0,0,1,,,,0,,,63,25
666112,note_off,,,,,512,0,1,,,,0,,,63,0
666112,note_off,,,,,0,0,1,,,,0,,,66,0
666112,note_on,,,,,0,0,1,,,,0,,,59,25
666112,set_tempo,,,,,512,1,0,,600000,,,,,,
666624,note_on,,,,,0,0,1,,,,0,,,39,22
666624,note_on,,,,,0,0,1,,,,0,,,70,40
666624,note_off,,,,,0,0,1,,,,0,,,47,0
666624,note_off,,,,,0,0,1,,,,0,,,35,0
666624,note_off,,,,,0,0,1,,,,0,,,71,0
666624,control_change,,,,,0,0,1,,,,0,64,0,,
666624,control_change,,,,,0,0,1,,,,0,64,0,,
666624,control_change,,,,,0,0,1,,,,0,64,0,,
666624,control_change,,,,,0,0,1,,,,0,64,0,,
666624,control_change,,,,,0,0,1,,,,0,64,0,,
666624,control_change,,,,,0,0,1,,,,0,64,0,,
666624,control_change,,,,,0,0,1,,,,0,64,127,,
666624,control_change,,,,,512,0,1,,,,0,64,0,,
666624,note_off,,,,,0,0,1,,,,0,,,59,0
666624,set_tempo,,,,,512,1,0,,625000,,,,,,
666882,control_change,,,,,258,0,1,,,,0,64,0,,
667136,set_tempo,,,,,512,1,0,,500000,,,,,,
667136,note_on,,,,,0,0,1,,,,0,,,55,20
667136,note_on,,,,,0,0,1,,,,0,,,51,12
667136,note_on,,,,,254,0,1,,,,0,,,58,19
667178,control_change,,,,,42,0,1,,,,0,64,127,,
667648,note_on,,,,,0,0,1,,,,0,,,63,19
667648,note_on,,,,,0,0,1,,,,0,,,67,24
667648,note_on,,,,,0,0,1,,,,0,,,51,13
667648,note_on,,,,,0,0,1,,,,0,,,55,21
667648,note_off,,,,,0,0,1,,,,0,,,51,0
667648,note_off,,,,,0,0,1,,,,0,,,55,0
667648,note_off,,,,,470,0,1,,,,0,,,58,0
668160,note_on,,,,,0,0,1,,,,0,,,58,19
668160,note_off,,,,,0,0,1,,,,0,,,67,0
668160,note_off,,,,,512,0,1,,,,0,,,63,0
668160,note_off,,,,,0,0,1,,,,0,,,51,0
668160,note_off,,,,,0,0,1,,,,0,,,55,0
668160,note_on,,,,,0,0,1,,,,0,,,51,14
668160,note_on,,,,,0,0,1,,,,0,,,55,23
668672,note_off,,,,,512,0,1,,,,0,,,70,0
668672,set_tempo,,,,,1536,1,0,,666666,,,,,,
668672,note_off,,,,,0,0,1,,,,0,,,58,0
668672,note_on,,,,,0,0,1,,,,0,,,55,24
668672,note_on,,,,,0,0,1,,,,0,,,51,15
668672,note_on,,,,,0,0,1,,,,0,,,70,37
668672,note_off,,,,,0,0,1,,,,0,,,55,0
668672,note_off,,,,,0,0,1,,,,0,,,51,0
669184,note_off,,,,,0,0,1,,,,0,,,51,0
669184,note_off,,,,,512,0,1,,,,0,,,70,0
669184,set_tempo,,,,,512,1,0,,500000,,,,,,
669184,note_on,,,,,0,0,1,,,,0,,,75,40
669184,note_off,,,,,0,0,1,,,,0,,,55,0
669696,note_off,,,,,512,0,1,,,,0,,,75,0
669696,note_on,,,,,0,0,1,,,,0,,,75,40
670208,note_off,,,,,512,0,1,,,,0,,,75,0
670208,note_on,,,,,0,0,1,,,,0,,,75,40
670720,note_on,,,,,0,0,1,,,,0,,,32,14
670720,note_on,,,,,0,0,1,,,,0,,,80,47
670720,note_off,,,,,0,0,1,,,,0,,,39,0
670720,note_on,,,,,0,0,1,,,,0,,,44,20
670720,control_change,,,,,0,0,1,,,,0,64,127,,
670720,control_change,,,,,512,0,1,,,,0,64,0,,
670720,set_tempo,,,,,1536,1,0,,625000,,,,,,
670720,note_off,,,,,0,0,1,,,,0,,,75,0
670978,control_change,,,,,258,0,1,,,,0,64,0,,
671232,note_on,,,,,254,0,1,,,,0,,,71,12
671232,set_tempo,,,,,512,1,0,,461538,,,,,,
671232,note_on,,,,,0,0,1,,,,0,,,63,19
671232,note_on,,,,,0,0,1,,,,0,,,56,11
671232,note_on,,,,,0,0,1,,,,0,,,75,21
671274,control_change,,,,,42,0,1,,,,0,64,127,,
671744,note_off,,,,,0,0,1,,,,0,,,56,0
671744,note_on,,,,,0,0,1,,,,0,,,63,20
671744,note_on,,,,,0,0,1,,,,0,,,56,12
671744,note_on,,,,,0,0,1,,,,0,,,83,45
671744,note_off,,,,,470,0,1,,,,0,,,80,0
671744,note_off,,,,,0,0,1,,,,0,,,63,0
672256,note_off,,,,,0,0,1,,,,0,,,63,0
672256,note_off,,,,,0,0,1,,,,0,,,56,0
672256,note_off,,,,,0,0,1,,,,0,,,75,0
672256,note_off,,,,,512,0,1,,,,0,,,71,0
672256,note_on,,,,,0,0,1,,,,0,,,56,13
672256,note_on,,,,,0,0,1,,,,0,,,63,21
672256,note_on,,,,,0,0,1,,,,0,,,75,21
672256,note_on,,,,,0,0,1,,,,0,,,71,12
672768,note_off,,,,,0,0,1,,,,0,,,63,0
672768,note_off,,,,,0,0,1,,,,0,,,56,0
672768,note_on,,,,,0,0,1,,,,0,,,63,23
672768,note_on,,,,,0,0,1,,,,0,,,56,14
672768,note_on,,,,,0,0,1,,,,0,,,80,44
672768,note_off,,,,,512,0,1,,,,0,,,83,0
673280,note_on,,,,,0,0,1,,,,0,,,75,21
673280,note_on,,,,,0,0,1,,,,0,,,71,12
673280,note_off,,,,,0,0,1,,,,0,,,75,0
673280,note_off,,,,,512,0,1,,,,0,,,71,0
673792,note_off,,,,,512,0,1,,,,0,,,80,0
673792,note_on,,,,,0,0,1,,,,0,,,83,42
674304,note_off,,,,,512,0,1,,,,0,,,71,0
674304,note_off,,,,,0,0,1,,,,0,,,75,0
674304,note_on,,,,,0,0,1,,,,0,,,71,12
674304,note_on,,,,,0,0,1,,,,0,,,75,21
674816,control_change,,,,,512,0,1,,,,0,64,0,,
674816,set_tempo,,,,,3584,1,0,,666666,,,,,,
674816,control_change,,,,,0,0,1,,,,0,64,127,,
674816,note_off,,,,,0,0,1,,,,0,,,83,0
674816,note_off,,,,,0,0,1,,,,0,,,32,0
674816,note_off,,,,,0,0,1,,,,0,,,44,0
674816,note_off,,,,,0,0,1,,,,0,,,56,0
674816,note_off,,,,,0,0,1,,,,0,,,63,0
674816,note_on,,,,,0,0,1,,,,0,,,80,47
674816,note_on,,,,,0,0,1,,,,0,,,32,14
674816,note_on,,,,,0,0,1,,,,0,,,44,20
674971,control_change,,,,,155,0,1,,,,0,64,0,,
675318,control_change,,,,,347,0,1,,,,0,64,127,,
675328,note_on,,,,,0,0,1,,,,0,,,56,11
675328,note_on,,,,,0,0,1,,,,0,,,75,21
675328,set_tempo,,,,,512,1,0,,461538,,,,,,
675328,note_on,,,,,0,0,1,,,,0,,,63,19
675328,note_off,,,,,0,0,1,,,,0,,,75,0
675328,note_off,,,,,10,0,1,,,,0,,,71,0
675328,note_on,,,,,0,0,1,,,,0,,,71,12
675840,note_on,,,,,0,0,1,,,,0,,,83,45
675840,note_on,,,,,0,0,1,,,,0,,,63,20
675840,note_off,,,,,0,0,1,,,,0,,,56,0
675840,note_off,,,,,0,0,1,,,,0,,,63,0
675840,note_off,,,,,512,0,1,,,,0,,,80,0
675840,note_on,,,,,0,0,1,,,,0,,,56,12
676352,note_off,,,,,512,0,1,,,,0,,,71,0
676352,note_off,,,,,0,0,1,,,,0,,,75,0
676352,note_off,,,,,0,0,1,,,,0,,,56,0
676352,note_off,,,,,0,0,1,,,,0,,,63,0
676352,note_on,,,,,0,0,1,,,,0,,,71,12
676352,note_on,,,,,0,0,1,,,,0,,,56,13
676352,note_on,,,,,0,0,1,,,,0,,,75,21
676352,note_on,,,,,0,0,1,,,,0,,,63,22
676864,set_tempo,,,,,1536,1,0,,500000,,,,,,
676864,note_on,,,,,0,0,1,,,,0,,,63,23
676864,note_on,,,,,0,0,1,,,,0,,,56,14
676864,note_on,,,,,0,0,1,,,,0,,,82,43
676864,note_off,,,,,0,0,1,,,,0,,,63,0
676864,note_off,,,,,0,0,1,,,,0,,,56,0
676864,note_off,,,,,0,0,1,,,,0,,,83,0
676864,control_change,,,,,512,0,1,,,,0,64,0,,
677250,control_change,,,,,386,0,1,,,,0,64,127,,
677376,note_on,,,,,0,0,1,,,,0,,,75,21
677376,note_on,,,,,0,0,1,,,,0,,,71,12
677376,note_off,,,,,0,0,1,,,,0,,,75,0
677376,note_off,,,,,126,0,1,,,,0,,,71,0
677888,note_on,,,,,0,0,1,,,,0,,,80,41
677888,note_off,,,,,512,0,1,,,,0,,,82,0
678400,note_on,,,,,0,0,1,,,,0,,,71,12
678400,note_off,,,,,0,0,1,,,,0,,,75,0
678400,note_off,,,,,512,0,1,,,,0,,,71,0
678400,note_on,,,,,0,0,1,,,,0,,,75,21
678400,set_tempo,,,,,1536,1,0,,545454,,,,,,
678912,note_off,,,,,0,0,1,,,,0,,,75,0
678912,note_on,,,,,0,0,1,,,,0,,,80,39
678912,note_off,,,,,0,0,1,,,,0,,,63,0
678912,note_off,,,,,0,0,1,,,,0,,,56,0
678912,note_off,,,,,0,0,1,,,,0,,,44,0
678912,note_off,,,,,0,0,1,,,,0,,,32,0
678912,control_change,,,,,512,0,1,,,,0,64,127,,
678912,control_change,,,,,0,0,1,,,,0,64,0,,
678912,control_change,,,,,0,0,1,,,,0,64,127,,
678912,note_off,,,,,0,0,1,,,,0,,,71,0
678912,note_off,,,,,0,0,1,,,,0,,,80,0
678912,note_on,,,,,0,0,1,,,,0,,,44,20
678912,note_on,,,,,0,0,1,,,,0,,,32,14
678912,set_tempo,,,,,512,1,0,,705882,,,,,,
679119,control_change,,,,,207,0,1,,,,0,64,0,,
679119,control_change,,,,,0,0,1,,,,0,64,0,,
679394,control_change,,,,,275,0,1,,,,0,64,127,,
679394,control_change,,,,,0,0,1,,,,0,64,127,,
679424,note_off,,,,,30,0,1,,,,0,,,80,0
679424,note_on,,,,,0,0,1,,,,0,,,71,24
679424,note_on,,,,,0,0,1,,,,0,,,75,33
679424,note_on,,,,,0,0,1,,,,0,,,56,11
679424,note_on,,,,,0,0,1,,,,0,,,63,19
679424,set_tempo,,,,,512,1,0,,461538,,,,,,
679936,note_off,,,,,512,0,1,,,,0,,,71,0
679936,note_off,,,,,0,0,1,,,,0,,,75,0
679936,note_off,,,,,0,0,1,,,,0,,,56,0
679936,note_off,,,,,0,0,1,,,,0,,,63,0
679936,note_on,,,,,0,0,1,,,,0,,,56,12
679936,note_on,,,,,0,0,1,,,,0,,,63,20
679936,note_on,,,,,0,0,1,,,,0,,,75,36
679936,note_on,,,,,0,0,1,,,,0,,,71,25
680448,note_off,,,,,512,0,1,,,,0,,,71,0
680448,note_off,,,,,0,0,1,,,,0,,,75,0
680448,note_off,,,,,0,0,1,,,,0,,,56,0
680448,note_off,,,,,0,0,1,,,,0,,,63,0
680448,note_on,,,,,0,0,1,,,,0,,,71,26
680448,note_on,,,,,0,0,1,,,,0,,,75,38
680448,note_on,,,,,0,0,1,,,,0,,,56,13
680448,note_on,,,,,0,0,1,,,,0,,,63,22
680943,control_change,,,,,0,0,1,,,,0,64,0,,
680943,control_change,,,,,495,0,1,,,,0,64,0,,
680960,note_off,,,,,0,0,1,,,,0,,,75,0
680960,note_off,,,,,17,0,1,,,,0,,,71,0
680960,note_off,,,,,0,0,1,,,,0,,,56,0
680960,note_off,,,,,0,0,1,,,,0,,,63,0
680960,note_on,,,,,0,0,1,,,,0,,,75,43
680960,note_on,,,,,0,0,1,,,,0,,,56,14
680960,note_on,,,,,0,0,1,,,,0,,,63,23
680960,set_tempo,,,,,1536,1,0,,545454,,,,,,
681184,control_change,,,,,224,0,1,,,,0,64,127,,
681184,control_change,,,,,0,0,1,,,,0,64,127,,
681472,set_tempo,,,,,512,1,0,,461538,,,,,,
681472,note_on,,,,,0,0,1,,,,0,,,68,26
681472,note_on,,,,,0,0,1,,,,0,,,71,38
681472,note_off,,,,,288,0,1,,,,0,,,75,0
681984,note_off,,,,,512,0,1,,,,0,,,68,0
681984,note_on,,,,,0,0,1,,,,0,,,71,36
681984,note_off,,,,,0,0,1,,,,0,,,71,0
681984,note_on,,,,,0,0,1,,,,0,,,68,24
682496,note_off,,,,,512,0,1,,,,0,,,68,0
682496,note_off,,,,,0,0,1,,,,0,,,71,0
682496,note_on,,,,,0,0,1,,,,0,,,68,22
682496,note_on,,,,,0,0,1,,,,0,,,71,34
683008,control_change,,,,,0,0,1,,,,0,64,127,,
683008,note_off,,,,,0,0,1,,,,0,,,71,0
683008,note_off,,,,,0,0,1,,,,0,,,32,0
683008,note_off,,,,,0,0,1,,,,0,,,44,0
683008,note_off,,,,,0,0,1,,,,0,,,56,0
683008,note_off,,,,,0,0,1,,,,0,,,63,0
683008,note_on,,,,,0,0,1,,,,0,,,71,38
683008,control_change,,,,,512,0,1,,,,0,64,127,,
683008,note_off,,,,,0,0,1,,,,0,,,68,0
683520,note_on,,,,,0,0,1,,,,0,,,68,36
683520,note_on,,,,,512,0,1,,,,0,,,63,24
683560,note_off,,,,,40,0,1,,,,0,,,71,0
683862,note_off,,,,,0,0,1,,,,0,,,68,0
683862,note_off,,,,,302,0,1,,,,0,,,63,0
684032,note_on,,,,,0,0,1,,,,0,,,68,34
684032,note_on,,,,,170,0,1,,,,0,,,63,22
684374,note_off,,,,,0,0,1,,,,0,,,68,0
684374,note_off,,,,,342,0,1,,,,0,,,63,0
684544,note_on,,,,,0,0,1,,,,0,,,68,33
684544,note_on,,,,,170,0,1,,,,0,,,63,21
684886,note_off,,,,,342,0,1,,,,0,,,63,0
684886,note_off,,,,,0,0,1,,,,0,,,68,0
685056,note_on,,,,,0,0,1,,,,0,,,68,31
685056,note_on,,,,,0,0,1,,,,0,,,63,19
685056,note_on,,,,,170,0,1,,,,0,,,59,19
685056,set_tempo,,,,,3584,1,0,,500000,,,,,,
685071,control_change,,,,,0,0,1,,,,0,64,0,,
685071,control_change,,,,,15,0,1,,,,0,64,0,,
685568,note_on,,,,,0,0,1,,,,0,,,62,30
685568,note_on,,,,,0,0,1,,,,0,,,56,15
685568,note_on,,,,,0,0,1,,,,0,,,51,6
685568,note_on,,,,,497,0,1,,,,0,,,59,18
685568,set_tempo,,,,,512,1,0,,461538,,,,,,
685608,note_off,,,,,0,0,1,,,,0,,,68,0
685608,note_off,,,,,40,0,1,,,,0,,,59,0
685608,note_off,,,,,0,0,1,,,,0,,,63,0
685910,note_off,,,,,0,0,1,,,,0,,,51,0
685910,note_off,,,,,302,0,1,,,,0,,,59,0
685910,note_off,,,,,0,0,1,,,,0,,,62,0
685910,note_off,,,,,0,0,1,,,,0,,,56,0
686080,note_on,,,,,170,0,1,,,,0,,,59,20
686080,note_on,,,,,0,0,1,,,,0,,,62,32
686080,note_on,,,,,0,0,1,,,,0,,,51,10
686080,note_on,,,,,0,0,1,,,,0,,,56,19
686422,note_off,,,,,342,0,1,,,,0,,,59,0
686422,note_off,,,,,0,0,1,,,,0,,,62,0
686422,note_off,,,,,0,0,1,,,,0,,,51,0
686422,note_off,,,,,0,0,1,,,,0,,,56,0
686592,note_on,,,,,0,0,1,,,,0,,,51,13
686592,note_on,,,,,170,0,1,,,,0,,,59,23
686592,set_tempo,,,,,1024,1,0,,500000,,,,,,
686592,note_on,,,,,0,0,1,,,,0,,,56,22
686592,note_on,,,,,0,0,1,,,,0,,,62,35
686934,note_off,,,,,342,0,1,,,,0,,,59,0
686934,note_off,,,,,0,0,1,,,,0,,,62,0
686934,note_off,,,,,0,0,1,,,,0,,,51,0
686934,note_off,,,,,0,0,1,,,,0,,,56,0
687104,control_change,,,,,170,0,1,,,,0,64,0,,
687104,control_change,,,,,0,0,1,,,,0,64,0,,
687104,note_on,,,,,0,0,1,,,,0,,,59,28
687104,note_on,,,,,0,0,1,,,,0,,,51,21
687104,set_tempo,,,,,512,1,0,,600000,,,,,,
687104,note_on,,,,,0,0,1,,,,0,,,62,40
687104,note_on,,,,,0,0,1,,,,0,,,56,30
687616,set_tempo,,,,,512,1,0,,500000,,,,,,
687616,note_on,,,,,512,0,1,,,,0,,,58,21
687616,note_on,,,,,0,0,1,,,,0,,,63,33
687616,note_on,,,,,0,0,1,,,,0,,,51,14
687616,note_on,,,,,0,0,1,,,,0,,,55,23
687656,note_off,,,,,40,0,1,,,,0,,,59,0
687656,note_off,,,,,0,0,1,,,,0,,,62,0
687656,note_off,,,,,0,0,1,,,,0,,,51,0
687656,note_off,,,,,0,0,1,,,,0,,,56,0
687958,note_off,,,,,0,0,1,,,,0,,,51,0
687958,note_off,,,,,0,0,1,,,,0,,,63,0
687958,note_off,,,,,302,0,1,,,,0,,,58,0
687958,note_off,,,,,0,0,1,,,,0,,,55,0
688128,note_on,,,,,0,0,1,,,,0,,,55,19
688128,note_on,,,,,0,0,1,,,,0,,,51,10
688128,note_on,,,,,0,0,1,,,,0,,,63,31
688128,note_on,,,,,170,0,1,,,,0,,,58,19
688470,note_off,,,,,0,0,1,,,,0,,,55,0
688470,note_off,,,,,0,0,1,,,,0,,,51,0
688470,note_off,,,,,0,0,1,,,,0,,,63,0
688470,note_off,,,,,342,0,1,,,,0,,,58,0
688640,note_on,,,,,170,0,1,,,,0,,,58,16
688640,note_on,,,,,0,0,1,,,,0,,,51,7
688640,note_on,,,,,0,0,1,,,,0,,,63,28
688640,set_tempo,,,,,1024,1,0,,600000,,,,,,
688640,note_on,,,,,0,0,1,,,,0,,,55,16
688982,note_off,,,,,0,0,1,,,,0,,,63,0
688982,note_off,,,,,0,0,1,,,,0,,,51,0
688982,note_off,,,,,0,0,1,,,,0,,,55,0
688982,note_off,,,,,342,0,1,,,,0,,,58,0
689152,note_on,,,,,0,0,1,,,,0,,,55,13
689152,note_on,,,,,0,0,1,,,,0,,,51,4
689152,note_on,,,,,0,0,1,,,,0,,,63,26
689152,note_on,,,,,170,0,1,,,,0,,,58,14
689152,set_tempo,,,,,512,1,0,,666666,,,,,,
689664,note_on,,,,,0,0,1,,,,0,,,82,40
689664,note_off,,,,,0,0,1,,,,0,,,55,0
689664,note_off,,,,,0,0,1,,,,0,,,63,0
689664,note_off,,,,,512,0,1,,,,0,,,58,0
689664,set_tempo,,,,,512,1,0,,545454,,,,,,
689664,note_off,,,,,0,0,1,,,,0,,,51,0
689699,control_change,,,,,35,0,1,,,,0,64,127,,
690176,note_off,,,,,477,0,1,,,,0,,,82,0
690176,set_tempo,,,,,512,1,0,,500000,,,,,,
690176,note_on,,,,,0,0,1,,,,0,,,82,40
690688,note_off,,,,,512,0,1,,,,0,,,82,0
690688,note_on,,,,,0,0,1,,,,0,,,82,40
691200,note_on,,,,,0,0,1,,,,0,,,51,20
691200,note_on,,,,,0,0,1,,,,0,,,39,13
691200,note_on,,,,,0,0,1,,,,0,,,82,52
691200,note_off,,,,,0,0,1,,,,0,,,82,0
691200,control_change,,,,,0,0,1,,,,0,64,0,,
691200,control_change,,,,,0,0,1,,,,0,64,127,,
691200,control_change,,,,,0,0,1,,,,0,64,0,,
691200,control_change,,,,,512,0,1,,,,0,64,0,,
691200,set_tempo,,,,,1024,1,0,,625000,,,,,,
691458,control_change,,,,,258,0,1,,,,0,64,0,,
691712,note_on,,,,,0,0,1,,,,0,,,76,22
691712,set_tempo,,,,,512,1,0,,461538,,,,,,
691712,note_on,,,,,0,0,1,,,,0,,,67,18
691712,note_on,,,,,254,0,1,,,,0,,,73,13
691712,note_on,,,,,0,0,1,,,,0,,,63,10
691754,control_change,,,,,42,0,1,,,,0,64,127,,
692224,note_on,,,,,0,0,1,,,,0,,,85,50
692224,note_on,,,,,0,0,1,,,,0,,,63,11
692224,note_on,,,,,0,0,1,,,,0,,,67,19
692224,note_off,,,,,0,0,1,,,,0,,,63,0
692224,note_off,,,,,0,0,1,,,,0,,,67,0
692224,note_off,,,,,470,0,1,,,,0,,,82,0
692736,note_off,,,,,512,0,1,,,,0,,,73,0
692736,note_off,,,,,0,0,1,,,,0,,,76,0
692736,note_off,,,,,0,0,1,,,,0,,,63,0
692736,note_off,,,,,0,0,1,,,,0,,,67,0
692736,note_on,,,,,0,0,1,,,,0,,,73,13
692736,note_on,,,,,0,0,1,,,,0,,,76,22
692736,note_on,,,,,0,0,1,,,,0,,,67,20
692736,note_on,,,,,0,0,1,,,,0,,,63,12
693248,note_off,,,,,0,0,1,,,,0,,,67,0
693248,note_off,,,,,0,0,1,,,,0,,,63,0
693248,note_on,,,,,0,0,1,,,,0,,,67,22
693248,note_on,,,,,0,0,1,,,,0,,,63,13
693248,note_on,,,,,0,0,1,,,,0,,,82,49
693248,note_off,,,,,512,0,1,,,,0,,,85,0
693760,note_on,,,,,0,0,1,,,,0,,,73,13
693760,note_off,,,,,0,0,1,,,,0,,,76,0
693760,note_off,,,,,512,0,1,,,,0,,,73,0
693760,note_on,,,,,0,0,1,,,,0,,,76,22
694272,note_off,,,,,512,0,1,,,,0,,,82,0
694272,note_on,,,,,0,0,1,,,,0,,,85,47
694784,note_off,,,,,512,0,1,,,,0,,,73,0
694784,note_on,,,,,0,0,1,,,,0,,,76,22
694784,note_on,,,,,0,0,1,,,,0,,,73,13
694784,note_off,,,,,0,0,1,,,,0,,,76,0
695296,note_off,,,,,0,0,1,,,,0,,,63,0
695296,note_off,,,,,0,0,1,,,,0,,,51,0
695296,note_on,,,,,0,0,1,,,,0,,,51,20
695296,note_off,,,,,0,0,1,,,,0,,,39,0
695296,note_off,,,,,0,0,1,,,,0,,,85,0
695296,control_change,,,,,0,0,1,,,,0,64,0,,
695296,control_change,,,,,0,0,1,,,,0,64,127,,
695296,control_change,,,,,0,0,1,,,,0,64,0,,
695296,control_change,,,,,512,0,1,,,,0,64,0,,
695296,note_on,,,,,0,0,1,,,,0,,,82,52
695296,note_on,,,,,0,0,1,,,,0,,,39,13
695296,note_off,,,,,0,0,1,,,,0,,,67,0
695296,set_tempo,,,,,3584,1,0,,666666,,,,,,
695451,control_change,,,,,155,0,1,,,,0,64,0,,
695798,control_change,,,,,347,0,1,,,,0,64,127,,
695808,set_tempo,,,,,512,1,0,,461538,,,,,,
695808,note_on,,,,,0,0,1,,,,0,,,67,18
695808,note_on,,,,,0,0,1,,,,0,,,63,10
695808,note_on,,,,,0,0,1,,,,0,,,76,22
695808,note_on,,,,,0,0,1,,,,0,,,73,13
695808,note_off,,,,,0,0,1,,,,0,,,76,0
695808,note_off,,,,,10,0,1,,,,0,,,73,0
696320,note_off,,,,,0,0,1,,,,0,,,67,0
696320,note_off,,,,,0,0,1,,,,0,,,63,0
696320,note_on,,,,,0,0,1,,,,0,,,67,19
696320,note_on,,,,,0,0,1,,,,0,,,63,11
696320,note_on,,,,,0,0,1,,,,0,,,85,50
696320,note_off,,,,,512,0,1,,,,0,,,82,0
696832,note_off,,,,,0,0,1,,,,0,,,76,0
696832,note_off,,,,,0,0,1,,,,0,,,63,0
696832,note_on,,,,,0,0,1,,,,0,,,67,21
696832,note_on,,,,,0,0,1,,,,0,,,63,12
696832,note_on,,,,,0,0,1,,,,0,,,76,22
696832,note_on,,,,,0,0,1,,,,0,,,73,13
696832,note_off,,,,,0,0,1,,,,0,,,67,0
696832,note_off,,,,,512,0,1,,,,0,,,73,0
697344,note_on,,,,,0,0,1,,,,0,,,63,13
697344,note_on,,,,,0,0,1,,,,0,,,83,48
697344,note_off,,,,,0,0,1,,,,0,,,67,0
697344,note_off,,,,,0,0,1,,,,0,,,63,0
697344,note_off,,,,,0,0,1,,,,0,,,85,0
697344,control_change,,,,,512,0,1,,,,0,64,0,,
697344,set_tempo,,,,,1536,1,0,,500000,,,,,,
697344,note_on,,,,,0,0,1,,,,0,,,67,22
697730,control_change,,,,,386,0,1,,,,0,64,127,,
697856,note_on,,,,,0,0,1,,,,0,,,76,22
697856,note_on,,,,,0,0,1,,,,0,,,73,13
697856,note_off,,,,,0,0,1,,,,0,,,76,0
697856,note_off,,,,,126,0,1,,,,0,,,73,0
698368,note_on,,,,,0,0,1,,,,0,,,82,46
698368,note_off,,,,,512,0,1,,,,0,,,83,0
698880,note_on,,,,,0,0,1,,,,0,,,73,13
698880,note_off,,,,,0,0,1,,,,0,,,76,0
698880,note_off,,,,,512,0,1,,,,0,,,73,0
698880,note_on,,,,,0,0,1,,,,0,,,76,22
699392,set_tempo,,,,,2048,1,0,,705882,,,,,,
699392,control_change,,,,,0,0,1,,,,0,64,0,,
699392,note_off,,,,,0,0,1,,,,0,,,76,0
699392,note_off,,,,,0,0,1,,,,0,,,82,0
699392,note_off,,,,,0,0,1,,,,0,,,39,0
699392,note_off,,,,,0,0,1,,,,0,,,51,0
699392,note_off,,,,,0,0,1,,,,0,,,63,0
699392,note_off,,,,,0,0,1,,,,0,,,67,0
699392,note_on,,,,,0,0,1,,,,0,,,85,54
699392,note_on,,,,,0,0,1,,,,0,,,39,13
699392,note_on,,,,,0,0,1,,,,0,,,51,20
699392,note_off,,,,,0,0,1,,,,0,,,73,0
699392,control_change,,,,,0,0,1,,,,0,64,127,,
699392,control_change,,,,,0,0,1,,,,0,64,0,,
699392,control_change,,,,,512,0,1,,,,0,64,127,,
699392,control_change,,,,,0,0,1,,,,0,64,0,,
699599,control_change,,,,,0,0,1,,,,0,64,0,,
699599,control_change,,,,,207,0,1,,,,0,64,0,,
699874,control_change,,,,,0,0,1,,,,0,64,127,,
699874,control_change,,,,,275,0,1,,,,0,64,127,,
699904,set_tempo,,,,,512,1,0,,545454,,,,,,
699904,note_on,,,,,0,0,1,,,,0,,,70,12
699904,note_on,,,,,0,0,1,,,,0,,,63,4
699904,note_on,,,,,0,0,1,,,,0,,,82,41
699904,note_on,,,,,0,0,1,,,,0,,,79,32
699904,note_on,,,,,30,0,1,,,,0,,,76,36
699944,note_off,,,,,40,0,1,,,,0,,,85,0
700246,note_off,,,,,302,0,1,,,,0,,,76,0
700246,note_off,,,,,0,0,1,,,,0,,,79,0
700246,note_off,,,,,0,0,1,,,,0,,,82,0
700416,note_on,,,,,170,0,1,,,,0,,,76,32
700416,note_on,,,,,0,0,1,,,,0,,,79,32
700416,note_on,,,,,0,0,1,,,,0,,,82,42
700416,note_on,,,,,0,0,1,,,,0,,,63,5
700416,note_on,,,,,0,0,1,,,,0,,,70,13
700416,note_off,,,,,0,0,1,,,,0,,,63,0
700416,note_off,,,,,0,0,1,,,,0,,,70,0
700416,set_tempo,,,,,512,1,0,,500000,,,,,,
700758,note_off,,,,,342,0,1,,,,0,,,76,0
700758,note_off,,,,,0,0,1,,,,0,,,82,0
700758,note_off,,,,,0,0,1,,,,0,,,79,0
700928,note_off,,,,,0,0,1,,,,0,,,70,0
700928,note_off,,,,,0,0,1,,,,0,,,63,0
700928,note_on,,,,,0,0,1,,,,0,,,70,15
700928,note_on,,,,,0,0,1,,,,0,,,63,6
700928,note_on,,,,,0,0,1,,,,0,,,82,44
700928,note_on,,,,,170,0,1,,,,0,,,76,33
700928,note_on,,,,,0,0,1,,,,0,,,79,33
701020,control_change,,,,,92,0,1,,,,0,64,127,,
701074,control_change,,,,,54,0,1,,,,0,64,127,,
701270,note_off,,,,,0,0,1,,,,0,,,79,0
701270,note_off,,,,,196,0,1,,,,0,,,76,0
701270,note_off,,,,,0,0,1,,,,0,,,82,0
701440,note_off,,,,,0,0,1,,,,0,,,63,0
701440,set_tempo,,,,,1024,1,0,,545454,,,,,,
701440,note_on,,,,,0,0,1,,,,0,,,63,7
701440,note_on,,,,,0,0,1,,,,0,,,70,16
701440,note_on,,,,,170,0,1,,,,0,,,82,49
701440,note_off,,,,,0,0,1,,,,0,,,70,0
701952,note_on,,,,,512,0,1,,,,0,,,73,32
701952,note_on,,,,,0,0,1,,,,0,,,76,32
701952,note_on,,,,,0,0,1,,,,0,,,79,44
701952,set_tempo,,,,,512,1,0,,480000,,,,,,
701992,note_off,,,,,40,0,1,,,,0,,,82,0
702294,note_off,,,,,0,0,1,,,,0,,,76,0
702294,note_off,,,,,0,0,1,,,,0,,,79,0
702294,note_off,,,,,302,0,1,,,,0,,,73,0
702464,note_on,,,,,170,0,1,,,,0,,,73,30
702464,note_on,,,,,0,0,1,,,,0,,,76,30
702464,note_on,,,,,0,0,1,,,,0,,,79,42
702806,note_off,,,,,342,0,1,,,,0,,,73,0
702806,note_off,,,,,0,0,1,,,,0,,,76,0
702806,note_off,,,,,0,0,1,,,,0,,,79,0
702976,note_on,,,,,0,0,1,,,,0,,,76,28
702976,note_on,,,,,0,0,1,,,,0,,,79,40
702976,note_on,,,,,170,0,1,,,,0,,,73,28
703318,note_off,,,,,0,0,1,,,,0,,,79,0
703318,note_off,,,,,0,0,1,,,,0,,,76,0
703318,note_off,,,,,342,0,1,,,,0,,,73,0
703488,control_change,,,,,0,0,1,,,,0,64,127,,
703488,control_change,,,,,170,0,1,,,,0,64,127,,
703488,note_off,,,,,0,0,1,,,,0,,,70,0
703488,note_off,,,,,0,0,1,,,,0,,,51,0
703488,set_tempo,,,,,1536,1,0,,545454,,,,,,
703488,note_off,,,,,0,0,1,,,,0,,,63,0
703488,note_on,,,,,0,0,1,,,,0,,,79,48
703488,control_change,,,,,0,0,1,,,,0,64,0,,
703488,note_off,,,,,0,0,1,,,,0,,,39,0
703515,control_change,,,,,27,0,1,,,,0,64,127,,
703716,control_change,,,,,0,0,1,,,,0,64,0,,
703716,control_change,,,,,201,0,1,,,,0,64,0,,
704000,set_tempo,,,,,512,1,0,,500000,,,,,,
704000,note_on,,,,,0,0,1,,,,0,,,76,42
704000,note_on,,,,,0,0,1,,,,0,,,70,27
704000,note_on,,,,,284,0,1,,,,0,,,67,27
704040,note_off,,,,,40,0,1,,,,0,,,79,0
704342,note_off,,,,,0,0,1,,,,0,,,76,0
704342,note_off,,,,,0,0,1,,,,0,,,70,0
704342,note_off,,,,,302,0,1,,,,0,,,67,0
704512,set_tempo,,,,,512,1,0,,461538,,,,,,
704512,note_on,,,,,170,0,1,,,,0,,,67,23
704512,note_on,,,,,0,0,1,,,,0,,,70,23
704512,note_on,,,,,0,0,1,,,,0,,,76,38
704512,note_on,,,,,0,0,1,,,,0,,,51,7
704512,note_on,,,,,0,0,1,,,,0,,,61,19
704854,note_off,,,,,0,0,1,,,,0,,,61,0
704854,note_off,,,,,0,0,1,,,,0,,,76,0
704854,note_off,,,,,342,0,1,,,,0,,,67,0
704854,note_off,,,,,0,0,1,,,,0,,,70,0
704854,note_off,,,,,0,0,1,,,,0,,,51,0
705024,note_on,,,,,0,0,1,,,,0,,,70,24
705024,note_on,,,,,170,0,1,,,,0,,,67,24
705024,note_on,,,,,0,0,1,,,,0,,,76,41
705024,note_on,,,,,0,0,1,,,,0,,,61,19
705024,note_on,,,,,0,0,1,,,,0,,,51,7
705366,note_off,,,,,0,0,1,,,,0,,,61,0
705366,note_off,,,,,0,0,1,,,,0,,,51,0
705366,note_off,,,,,0,0,1,,,,0,,,70,0
705366,note_off,,,,,0,0,1,,,,0,,,76,0
705366,note_off,,,,,342,0,1,,,,0,,,67,0
705536,set_tempo,,,,,1024,1,0,,500000,,,,,,
705536,note_on,,,,,170,0,1,,,,0,,,67,23
705536,note_on,,,,,0,0,1,,,,0,,,70,23
705536,note_on,,,,,0,0,1,,,,0,,,76,42
705536,note_on,,,,,0,0,1,,,,0,,,51,7
705536,note_on,,,,,0,0,1,,,,0,,,61,19
705551,control_change,,,,,15,0,1,,,,0,64,0,,
705577,control_change,,,,,26,0,1,,,,0,64,0,,
705878,note_off,,,,,301,0,1,,,,0,,,67,0
705878,note_off,,,,,0,0,1,,,,0,,,70,0
705878,note_off,,,,,0,0,1,,,,0,,,76,0
705878,note_off,,,,,0,0,1,,,,0,,,51,0
705878,note_off,,,,,0,0,1,,,,0,,,61,0
706048,note_on,,,,,0,0,1,,,,0,,,51,7
706048,note_on,,,,,0,0,1,,,,0,,,70,23
706048,note_on,,,,,170,0,1,,,,0,,,67,23
706048,note_on,,,,,0,0,1,,,,0,,,76,41
706048,set_tempo,,,,,512,1,0,,461538,,,,,,
706048,note_on,,,,,0,0,1,,,,0,,,61,19
706390,note_off,,,,,0,0,1,,,,0,,,76,0
706390,note_off,,,,,0,0,1,,,,0,,,61,0
706390,note_off,,,,,0,0,1,,,,0,,,70,0
706390,note_off,,,,,0,0,1,,,,0,,,51,0
706390,note_off,,,,,342,0,1,,,,0,,,67,0
706560,set_tempo,,,,,512,1,0,,500000,,,,,,
706560,note_on,,,,,170,0,1,,,,0,,,67,23
706560,note_on,,,,,0,0,1,,,,0,,,70,23
706560,note_on,,,,,0,0,1,,,,0,,,75,40
706560,note_on,,,,,0,0,1,,,,0,,,51,11
706560,note_on,,,,,0,0,1,,,,0,,,63,28
706902,note_off,,,,,342,0,1,,,,0,,,67,0
706902,note_off,,,,,0,0,1,,,,0,,,70,0
706902,note_off,,,,,0,0,1,,,,0,,,75,0
706902,note_off,,,,,0,0,1,,,,0,,,51,0
706902,note_off,,,,,0,0,1,,,,0,,,63,0
707072,set_tempo,,,,,512,1,0,,600000,,,,,,
707072,note_on,,,,,0,0,1,,,,0,,,64,31
707072,note_on,,,,,0,0,1,,,,0,,,73,39
707072,note_on,,,,,0,0,1,,,,0,,,51,14
707072,note_on,,,,,170,0,1,,,,0,,,67,24
707072,note_on,,,,,0,0,1,,,,0,,,70,24
707414,note_off,,,,,342,0,1,,,,0,,,67,0
707414,note_off,,,,,0,0,1,,,,0,,,70,0
707414,note_off,,,,,0,0,1,,,,0,,,73,0
707414,note_off,,,,,0,0,1,,,,0,,,51,0
707414,note_off,,,,,0,0,1,,,,0,,,64,0
707584,note_on,,,,,0,0,1,,,,0,,,70,41
707584,note_on,,,,,0,0,1,,,,0,,,64,35
707584,note_on,,,,,0,0,1,,,,0,,,56,18
707584,note_on,,,,,0,0,1,,,,0,,,67,26
707584,set_tempo,,,,,512,1,0,,600000,,,,,,
707584,control_change,,,,,0,0,1,,,,0,64,0,,
707584,control_change,,,,,0,0,1,,,,0,64,0,,
707584,control_change,,,,,170,0,1,,,,0,64,0,,
707584,control_change,,,,,0,0,1,,,,0,64,0,,
708096,note_on,,,,,0,0,1,,,,0,,,63,27
708096,set_tempo,,,,,512,1,0,,500000,,,,,,
708096,note_on,,,,,0,0,1,,,,0,,,71,35
708096,note_on,,,,,0,0,1,,,,0,,,56,15
708096,note_on,,,,,512,0,1,,,,0,,,68,23
708136,note_off,,,,,40,0,1,,,,0,,,67,0
708136,note_off,,,,,0,0,1,,,,0,,,70,0
708136,note_off,,,,,0,0,1,,,,0,,,56,0
708136,note_off,,,,,0,0,1,,,,0,,,64,0
708438,note_off,,,,,0,0,1,,,,0,,,63,0
708438,note_off,,,,,0,0,1,,,,0,,,56,0
708438,note_off,,,,,302,0,1,,,,0,,,68,0
708438,note_off,,,,,0,0,1,,,,0,,,71,0
708608,note_on,,,,,170,0,1,,,,0,,,68,21
708608,note_on,,,,,0,0,1,,,,0,,,56,11
708608,note_on,,,,,0,0,1,,,,0,,,63,23
708608,note_on,,,,,0,0,1,,,,0,,,71,33
708950,note_off,,,,,342,0,1,,,,0,,,68,0
708950,note_off,,,,,0,0,1,,,,0,,,71,0
708950,note_off,,,,,0,0,1,,,,0,,,56,0
708950,note_off,,,,,0,0,1,,,,0,,,63,0
709120,note_on,,,,,170,0,1,,,,0,,,68,18
709120,note_on,,,,,0,0,1,,,,0,,,71,30
709120,note_on,,,,,0,0,1,,,,0,,,63,20
709120,note_on,,,,,0,0,1,,,,0,,,56,8
709120,set_tempo,,,,,1024,1,0,,600000,,,,,,
709462,note_off,,,,,0,0,1,,,,0,,,63,0
709462,note_off,,,,,0,0,1,,,,0,,,56,0
709462,note_off,,,,,0,0,1,,,,0,,,71,0
709462,note_off,,,,,342,0,1,,,,0,,,68,0
709632,note_on,,,,,0,0,1,,,,0,,,63,17
709632,note_on,,,,,0,0,1,,,,0,,,56,5
709632,note_on,,,,,0,0,1,,,,0,,,71,23
709632,note_on,,,,,170,0,1,,,,0,,,68,11
709632,set_tempo,,,,,512,1,0,,666666,,,,,,
710144,note_off,,,,,512,0,1,,,,0,,,68,0
710144,set_tempo,,,,,512,1,0,,545454,,,,,,
710144,note_off,,,,,0,0,1,,,,0,,,71,0
710144,note_off,,,,,0,0,1,,,,0,,,56,0
710144,note_off,,,,,0,0,1,,,,0,,,63,0
710144,note_on,,,,,0,0,1,,,,0,,,75,40
710656,note_on,,,,,0,0,1,,,,0,,,75,42
710656,set_tempo,,,,,512,1,0,,500000,,,,,,
710656,note_off,,,,,512,0,1,,,,0,,,75,0
711168,note_off,,,,,512,0,1,,,,0,,,75,0
711168,set_tempo,,,,,512,1,0,,625000,,,,,,
711168,note_on,,,,,0,0,1,,,,0,,,75,43
711680,note_on,,,,,0,0,1,,,,0,,,75,54
711680,note_on,,,,,0,0,1,,,,0,,,44,20
711680,note_on,,,,,0,0,1,,,,0,,,32,23
711680,control_change,,,,,0,0,1,,,,0,64,0,,
711680,control_change,,,,,0,0,1,,,,0,64,127,,
711680,note_off,,,,,0,0,1,,,,0,,,75,0
711680,control_change,,,,,512,0,1,,,,0,64,0,,
711680,set_tempo,,,,,512,1,0,,625000,,,,,,
711680,control_change,,,,,0,0,1,,,,0,64,0,,
711938,control_change,,,,,258,0,1,,,,0,64,0,,
712192,set_tempo,,,,,512,1,0,,461538,,,,,,
712192,note_on,,,,,254,0,1,,,,0,,,68,17
712192,note_on,,,,,0,0,1,,,,0,,,71,26
712192,note_on,,,,,0,0,1,,,,0,,,51,11
712192,note_on,,,,,0,0,1,,,,0,,,56,19
712192,note_on,,,,,0,0,1,,,,0,,,59,11
712234,control_change,,,,,42,0,1,,,,0,64,127,,
712704,note_off,,,,,0,0,1,,,,0,,,59,0
712704,note_off,,,,,0,0,1,,,,0,,,56,0
712704,note_off,,,,,0,0,1,,,,0,,,51,0
712704,note_on,,,,,0,0,1,,,,0,,,59,12
712704,note_on,,,,,0,0,1,,,,0,,,56,20
712704,note_on,,,,,0,0,1,,,,0,,,80,53
712704,note_off,,,,,470,0,1,,,,0,,,75,0
712704,note_on,,,,,0,0,1,,,,0,,,51,12
713216,note_on,,,,,0,0,1,,,,0,,,59,13
713216,note_on,,,,,0,0,1,,,,0,,,56,21
713216,note_on,,,,,0,0,1,,,,0,,,51,13
713216,note_on,,,,,0,0,1,,,,0,,,71,26
713216,note_on,,,,,0,0,1,,,,0,,,68,17
713216,note_off,,,,,0,0,1,,,,0,,,59,0
713216,note_off,,,,,0,0,1,,,,0,,,56,0
713216,note_off,,,,,0,0,1,,,,0,,,71,0
713216,note_off,,,,,512,0,1,,,,0,,,68,0
713216,note_off,,,,,0,0,1,,,,0,,,51,0
713728,note_off,,,,,0,0,1,,,,0,,,56,0
713728,note_on,,,,,0,0,1,,,,0,,,59,14
713728,note_off,,,,,0,0,1,,,,0,,,59,0
713728,note_off,,,,,0,0,1,,,,0,,,51,0
713728,note_on,,,,,0,0,1,,,,0,,,56,23
713728,note_on,,,,,0,0,1,,,,0,,,51,14
713728,note_on,,,,,0,0,1,,,,0,,,75,53
713728,note_off,,,,,512,0,1,,,,0,,,80,0
714240,note_off,,,,,512,0,1,,,,0,,,68,0
714240,note_off,,,,,0,0,1,,,,0,,,71,0
714240,note_on,,,,,0,0,1,,,,0,,,68,21
714240,note_on,,,,,0,0,1,,,,0,,,71,30
714752,note_off,,,,,512,0,1,,,,0,,,75,0
714752,note_on,,,,,0,0,1,,,,0,,,80,56
714752,note_off,,,,,0,0,1,,,,0,,,51,0
714752,note_off,,,,,0,0,1,,,,0,,,56,0
714752,note_off,,,,,0,0,1,,,,0,,,59,0
715264,note_on,,,,,0,0,1,,,,0,,,71,34
715264,note_on,,,,,0,0,1,,,,0,,,68,25
715264,note_off,,,,,0,0,1,,,,0,,,71,0
715264,note_off,,,,,512,0,1,,,,0,,,68,0
715776,note_on,,,,,0,0,1,,,,0,,,37,23
715776,set_tempo,,,,,3584,1,0,,666666,,,,,,
715776,control_change,,,,,512,0,1,,,,0,64,0,,
715776,control_change,,,,,0,0,1,,,,0,64,0,,
715776,control_change,,,,,0,0,1,,,,0,64,127,,
715776,control_change,,,,,0,0,1,,,,0,64,0,,
715776,note_off,,,,,0,0,1,,,,0,,,68,0
715776,note_off,,,,,0,0,1,,,,0,,,71,0
715776,note_off,,,,,0,0,1,,,,0,,,80,0
715776,note_off,,,,,0,0,1,,,,0,,,32,0
715776,note_off,,,,,0,0,1,,,,0,,,44,0
715776,note_on,,,,,0,0,1,,,,0,,,78,55
715776,note_on,,,,,0,0,1,,,,0,,,49,20
715931,control_change,,,,,155,0,1,,,,0,64,0,,
716278,control_change,,,,,347,0,1,,,,0,64,127,,
716288,note_on,,,,,10,0,1,,,,0,,,68,18
716288,note_on,,,,,0,0,1,,,,0,,,73,28
716288,note_on,,,,,0,0,1,,,,0,,,56,11
716288,note_on,,,,,0,0,1,,,,0,,,61,19
716288,set_tempo,,,,,512,1,0,,461538,,,,,,
716800,note_off,,,,,512,0,1,,,,0,,,78,0
716800,note_on,,,,,0,0,1,,,,0,,,76,54
716800,note_on,,,,,0,0,1,,,,0,,,56,12
716800,note_on,,,,,0,0,1,,,,0,,,61,20
716800,note_off,,,,,0,0,1,,,,0,,,56,0
716800,note_off,,,,,0,0,1,,,,0,,,61,0
717312,note_on,,,,,0,0,1,,,,0,,,68,17
717312,note_on,,,,,0,0,1,,,,0,,,61,22
717312,note_on,,,,,0,0,1,,,,0,,,56,13
717312,note_on,,,,,0,0,1,,,,0,,,73,27
717312,note_off,,,,,0,0,1,,,,0,,,56,0
717312,note_off,,,,,0,0,1,,,,0,,,73,0
717312,note_off,,,,,512,0,1,,,,0,,,68,0
717312,note_off,,,,,0,0,1,,,,0,,,61,0
717824,control_change,,,,,512,0,1,,,,0,64,0,,
717824,note_off,,,,,0,0,1,,,,0,,,76,0
717824,note_off,,,,,0,0,1,,,,0,,,56,0
717824,note_off,,,,,0,0,1,,,,0,,,61,0
717824,note_on,,,,,0,0,1,,,,0,,,75,52
717824,note_on,,,,,0,0,1,,,,0,,,56,14
717824,note_on,,,,,0,0,1,,,,0,,,61,23
718210,control_change,,,,,386,0,1,,,,0,64,127,,
718336,note_off,,,,,0,0,1,,,,0,,,73,0
718336,note_on,,,,,0,0,1,,,,0,,,64,17
718336,note_off,,,,,126,0,1,,,,0,,,68,0
718336,note_on,,,,,0,0,1,,,,0,,,68,26
718848,note_off,,,,,0,0,1,,,,0,,,56,0
718848,note_on,,,,,0,0,1,,,,0,,,73,46
718848,note_off,,,,,512,0,1,,,,0,,,75,0
718848,note_off,,,,,0,0,1,,,,0,,,61,0
719360,note_off,,,,,512,0,1,,,,0,,,64,0
719360,note_off,,,,,0,0,1,,,,0,,,68,0
719360,note_on,,,,,0,0,1,,,,0,,,64,16
719360,note_on,,,,,0,0,1,,,,0,,,68,25
719872,note_on,,,,,0,0,1,,,,0,,,42,20
719872,note_on,,,,,0,0,1,,,,0,,,30,23
719872,note_on,,,,,0,0,1,,,,0,,,73,51
719872,note_off,,,,,0,0,1,,,,0,,,49,0
719872,note_off,,,,,0,0,1,,,,0,,,73,0
719872,note_off,,,,,0,0,1,,,,0,,,68,0
719872,note_off,,,,,0,0,1,,,,0,,,37,0
719872,control_change,,,,,0,0,1,,,,0,64,0,,
719872,control_change,,,,,0,0,1,,,,0,64,0,,
719872,control_change,,,,,0,0,1,,,,0,64,127,,
719872,control_change,,,,,0,0,1,,,,0,64,0,,
719872,control_change,,,,,0,0,1,,,,0,64,0,,
719872,control_change,,,,,512,0,1,,,,0,64,0,,
719872,set_tempo,,,,,3584,1,0,,545454,,,,,,
719872,note_off,,,,,0,0,1,,,,0,,,64,0
720130,control_change,,,,,258,0,1,,,,0,64,0,,
720384,set_tempo,,,,,512,1,0,,461538,,,,,,
720384,note_on,,,,,0,0,1,,,,0,,,64,11
720384,note_on,,,,,0,0,1,,,,0,,,70,28
720384,note_on,,,,,0,0,1,,,,0,,,54,11
720384,note_on,,,,,254,0,1,,,,0,,,66,19
720384,note_on,,,,,0,0,1,,,,0,,,61,19
720426,control_change,,,,,42,0,1,,,,0,64,127,,
720896,note_off,,,,,0,0,1,,,,0,,,64,0
720896,note_off,,,,,0,0,1,,,,0,,,61,0
720896,note_off,,,,,0,0,1,,,,0,,,54,0
720896,note_on,,,,,0,0,1,,,,0,,,54,12
720896,note_on,,,,,0,0,1,,,,0,,,61,20
720896,note_on,,,,,0,0,1,,,,0,,,78,50
720896,note_on,,,,,0,0,1,,,,0,,,64,12
720896,note_off,,,,,470,0,1,,,,0,,,73,0
721408,note_on,,,,,0,0,1,,,,0,,,64,13
721408,note_on,,,,,0,0,1,,,,0,,,61,21
721408,note_on,,,,,0,0,1,,,,0,,,54,13
721408,note_on,,,,,0,0,1,,,,0,,,70,28
721408,note_off,,,,,0,0,1,,,,0,,,64,0
721408,note_off,,,,,0,0,1,,,,0,,,61,0
721408,note_off,,,,,0,0,1,,,,0,,,54,0
721408,note_off,,,,,0,0,1,,,,0,,,70,0
721408,note_off,,,,,512,0,1,,,,0,,,66,0
721408,note_on,,,,,0,0,1,,,,0,,,66,19
721920,note_off,,,,,0,0,1,,,,0,,,61,0
721920,note_off,,,,,0,0,1,,,,0,,,64,0
721920,note_off,,,,,0,0,1,,,,0,,,54,0
721920,note_on,,,,,0,0,1,,,,0,,,73,53
721920,note_on,,,,,0,0,1,,,,0,,,61,23
721920,note_on,,,,,0,0,1,,,,0,,,54,14
721920,note_off,,,,,512,0,1,,,,0,,,78,0
721920,note_on,,,,,0,0,1,,,,0,,,64,14
722432,note_off,,,,,512,0,1,,,,0,,,66,0
722432,note_off,,,,,0,0,1,,,,0,,,70,0
722432,note_on,,,,,0,0,1,,,,0,,,66,23
722432,note_on,,,,,0,0,1,,,,0,,,70,32
722944,note_off,,,,,0,0,1,,,,0,,,64,0
722944,note_off,,,,,512,0,1,,,,0,,,73,0
722944,note_off,,,,,0,0,1,,,,0,,,54,0
722944,note_off,,,,,0,0,1,,,,0,,,61,0
722944,note_on,,,,,0,0,1,,,,0,,,78,55
723456,note_off,,,,,512,0,1,,,,0,,,66,0
723456,note_off,,,,,0,0,1,,,,0,,,70,0
723456,note_on,,,,,0,0,1,,,,0,,,66,27
723456,note_on,,,,,0,0,1,,,,0,,,70,36
723968,set_tempo,,,,,3584,1,0,,666666,,,,,,
723968,note_on,,,,,0,0,1,,,,0,,,47,20
723968,note_on,,,,,0,0,1,,,,0,,,35,23
723968,note_on,,,,,0,0,1,,,,0,,,76,56
723968,note_off,,,,,0,0,1,,,,0,,,30,0
723968,note_off,,,,,0,0,1,,,,0,,,78,0
723968,note_off,,,,,0,0,1,,,,0,,,42,0
723968,note_off,,,,,0,0,1,,,,0,,,66,0
723968,control_change,,,,,0,0,1,,,,0,64,0,,
723968,control_change,,,,,0,0,1,,,,0,64,0,,
723968,control_change,,,,,0,0,1,,,,0,64,127,,
723968,control_change,,,,,512,0,1,,,,0,64,0,,
723968,note_off,,,,,0,0,1,,,,0,,,70,0
723968,control_change,,,,,0,0,1,,,,0,64,0,,
723968,control_change,,,,,0,0,1,,,,0,64,0,,
724123,control_change,,,,,155,0,1,,,,0,64,0,,
724470,control_change,,,,,347,0,1,,,,0,64,127,,
724480,set_tempo,,,,,512,1,0,,461538,,,,,,
724480,note_on,,,,,0,0,1,,,,0,,,71,30
724480,note_on,,,,,0,0,1,,,,0,,,59,19
724480,note_on,,,,,0,0,1,,,,0,,,54,11
724480,note_on,,,,,10,0,1,,,,0,,,66,20
724480,note_on,,,,,0,0,1,,,,0,,,63,11
724992,note_off,,,,,0,0,1,,,,0,,,63,0
724992,note_off,,,,,0,0,1,,,,0,,,59,0
724992,note_on,,,,,0,0,1,,,,0,,,75,52
724992,note_on,,,,,0,0,1,,,,0,,,63,12
724992,note_on,,,,,0,0,1,,,,0,,,59,20
724992,note_off,,,,,0,0,1,,,,0,,,54,0
724992,note_on,,,,,0,0,1,,,,0,,,54,12
724992,note_off,,,,,512,0,1,,,,0,,,76,0
725504,note_off,,,,,0,0,1,,,,0,,,63,0
725504,note_on,,,,,0,0,1,,,,0,,,66,19
725504,note_on,,,,,0,0,1,,,,0,,,71,29
725504,note_off,,,,,0,0,1,,,,0,,,54,0
725504,note_on,,,,,0,0,1,,,,0,,,59,22
725504,note_on,,,,,0,0,1,,,,0,,,63,13
725504,note_off,,,,,0,0,1,,,,0,,,71,0
725504,note_off,,,,,512,0,1,,,,0,,,66,0
725504,note_off,,,,,0,0,1,,,,0,,,59,0
725504,note_on,,,,,0,0,1,,,,0,,,54,13
726016,note_on,,,,,0,0,1,,,,0,,,59,23
726016,note_on,,,,,0,0,1,,,,0,,,54,14
726016,note_on,,,,,0,0,1,,,,0,,,63,14
726016,control_change,,,,,512,0,1,,,,0,64,0,,
726016,note_off,,,,,0,0,1,,,,0,,,54,0
726016,note_off,,,,,0,0,1,,,,0,,,75,0
726016,note_off,,,,,0,0,1,,,,0,,,59,0
726016,note_off,,,,,0,0,1,,,,0,,,63,0
726016,note_on,,,,,0,0,1,,,,0,,,73,49
726402,control_change,,,,,386,0,1,,,,0,64,127,,
726528,note_on,,,,,0,0,1,,,,0,,,66,28
726528,note_on,,,,,0,0,1,,,,0,,,63,19
726528,note_off,,,,,0,0,1,,,,0,,,71,0
726528,note_off,,,,,126,0,1,,,,0,,,66,0
727040,note_off,,,,,512,0,1,,,,0,,,73,0
727040,note_off,,,,,0,0,1,,,,0,,,59,0
727040,note_on,,,,,0,0,1,,,,0,,,71,45
727040,note_off,,,,,0,0,1,,,,0,,,63,0
727040,note_off,,,,,0,0,1,,,,0,,,54,0
727552,note_off,,,,,0,0,1,,,,0,,,66,0
727552,note_on,,,,,0,0,1,,,,0,,,63,18
727552,note_on,,,,,0,0,1,,,,0,,,66,27
727552,note_off,,,,,512,0,1,,,,0,,,63,0
728064,control_change,,,,,512,0,1,,,,0,64,0,,
728064,control_change,,,,,0,0,1,,,,0,64,127,,
728064,control_change,,,,,0,0,1,,,,0,64,0,,
728064,note_on,,,,,0,0,1,,,,0,,,71,49
728064,note_off,,,,,0,0,1,,,,0,,,63,0
728064,note_off,,,,,0,0,1,,,,0,,,66,0
728064,note_off,,,,,0,0,1,,,,0,,,71,0
728064,note_off,,,,,0,0,1,,,,0,,,35,0
728064,note_off,,,,,0,0,1,,,,0,,,47,0
728064,note_on,,,,,0,0,1,,,,0,,,32,23
728064,note_on,,,,,0,0,1,,,,0,,,44,20
728064,set_tempo,,,,,3584,1,0,,705882,,,,,,
728064,control_change,,,,,0,0,1,,,,0,64,0,,
728064,control_change,,,,,0,0,1,,,,0,64,0,,
728322,control_change,,,,,258,0,1,,,,0,64,0,,
728576,set_tempo,,,,,512,1,0,,500000,,,,,,
728576,note_on,,,,,254,0,1,,,,0,,,63,20
728576,note_on,,,,,0,0,1,,,,0,,,68,29
728576,note_on,,,,,0,0,1,,,,0,,,51,11
728576,note_on,,,,,0,0,1,,,,0,,,56,19
728576,note_on,,,,,0,0,1,,,,0,,,59,11
728618,control_change,,,,,42,0,1,,,,0,64,127,,
729088,note_off,,,,,0,0,1,,,,0,,,59,0
729088,note_off,,,,,0,0,1,,,,0,,,56,0
729088,note_off,,,,,0,0,1,,,,0,,,51,0
729088,note_on,,,,,0,0,1,,,,0,,,56,20
729088,note_on,,,,,0,0,1,,,,0,,,51,12
729088,note_on,,,,,0,0,1,,,,0,,,73,49
729088,note_on,,,,,0,0,1,,,,0,,,59,12
729088,set_tempo,,,,,512,1,0,,461538,,,,,,
729088,note_off,,,,,470,0,1,,,,0,,,71,0
729600,note_off,,,,,0,0,1,,,,0,,,56,0
729600,note_on,,,,,0,0,1,,,,0,,,59,13
729600,note_on,,,,,0,0,1,,,,0,,,56,22
729600,note_on,,,,,0,0,1,,,,0,,,51,13
729600,note_off,,,,,512,0,1,,,,0,,,63,0
729600,note_off,,,,,0,0,1,,,,0,,,68,0
729600,note_off,,,,,0,0,1,,,,0,,,51,0
729600,note_off,,,,,0,0,1,,,,0,,,59,0
729600,note_on,,,,,0,0,1,,,,0,,,63,25
729600,note_on,,,,,0,0,1,,,,0,,,68,34
730112,note_on,,,,,0,0,1,,,,0,,,70,50
730112,note_off,,,,,512,0,1,,,,0,,,73,0
730112,note_off,,,,,0,0,1,,,,0,,,51,0
730112,note_off,,,,,0,0,1,,,,0,,,59,0
730112,note_on,,,,,0,0,1,,,,0,,,51,14
730112,note_off,,,,,0,0,1,,,,0,,,56,0
730112,note_on,,,,,0,0,1,,,,0,,,59,14
730112,note_on,,,,,0,0,1,,,,0,,,56,23
730624,note_off,,,,,512,0,1,,,,0,,,63,0
730624,note_on,,,,,0,0,1,,,,0,,,63,26
730624,note_off,,,,,0,0,1,,,,0,,,68,0
730624,note_on,,,,,0,0,1,,,,0,,,68,35
731136,note_off,,,,,0,0,1,,,,0,,,59,0
731136,note_off,,,,,0,0,1,,,,0,,,51,0
731136,note_on,,,,,0,0,1,,,,0,,,71,56
731136,note_off,,,,,512,0,1,,,,0,,,70,0
731136,note_off,,,,,0,0,1,,,,0,,,56,0
731136,set_tempo,,,,,2048,1,0,,500000,,,,,,
731648,note_off,,,,,512,0,1,,,,0,,,63,0
731648,note_off,,,,,0,0,1,,,,0,,,68,0
731648,note_on,,,,,0,0,1,,,,0,,,63,28
731648,note_on,,,,,0,0,1,,,,0,,,68,37
732160,note_off,,,,,0,0,1,,,,0,,,32,0
732160,note_on,,,,,0,0,1,,,,0,,,49,26
732160,note_on,,,,,0,0,1,,,,0,,,37,20
732160,note_on,,,,,0,0,1,,,,0,,,78,55
732160,note_off,,,,,0,0,1,,,,0,,,44,0
732160,note_off,,,,,0,0,1,,,,0,,,71,0
732160,note_off,,,,,0,0,1,,,,0,,,68,0
732160,control_change,,,,,0,0,1,,,,0,64,0,,
732160,note_off,,,,,0,0,1,,,,0,,,63,0
732160,control_change,,,,,0,0,1,,,,0,64,0,,
732160,control_change,,,,,0,0,1,,,,0,64,127,,
732160,control_change,,,,,512,0,1,,,,0,64,0,,
732160,set_tempo,,,,,1024,1,0,,545454,,,,,,
732160,control_change,,,,,0,0,1,,,,0,64,0,,
732418,control_change,,,,,258,0,1,,,,0,64,0,,
732672,note_on,,,,,254,0,1,,,,0,,,68,27
732672,note_on,,,,,0,0,1,,,,0,,,73,36
732672,note_on,,,,,0,0,1,,,,0,,,56,16
732672,note_on,,,,,0,0,1,,,,0,,,61,24
732714,control_change,,,,,42,0,1,,,,0,64,127,,
733184,note_on,,,,,0,0,1,,,,0,,,56,17
733184,note_on,,,,,0,0,1,,,,0,,,61,25
733184,note_off,,,,,0,0,1,,,,0,,,61,0
733184,note_on,,,,,0,0,1,,,,0,,,76,54
733184,note_off,,,,,0,0,1,,,,0,,,56,0
733184,set_tempo,,,,,1024,1,0,,461538,,,,,,
733184,note_off,,,,,470,0,1,,,,0,,,78,0
733696,note_on,,,,,0,0,1,,,,0,,,68,25
733696,note_on,,,,,0,0,1,,,,0,,,61,27
733696,note_on,,,,,0,0,1,,,,0,,,56,18
733696,note_off,,,,,0,0,1,,,,0,,,61,0
733696,note_on,,,,,0,0,1,,,,0,,,73,34
733696,note_off,,,,,0,0,1,,,,0,,,73,0
733696,note_off,,,,,512,0,1,,,,0,,,68,0
733696,note_off,,,,,0,0,1,,,,0,,,56,0
734208,note_off,,,,,512,0,1,,,,0,,,76,0
734208,note_on,,,,,0,0,1,,,,0,,,75,54
734208,note_on,,,,,0,0,1,,,,0,,,56,19
734208,note_on,,,,,0,0,1,,,,0,,,61,28
734208,note_off,,,,,0,0,1,,,,0,,,56,0
734208,note_off,,,,,0,0,1,,,,0,,,61,0
734720,note_on,,,,,0,0,1,,,,0,,,64,22
734720,note_off,,,,,0,0,1,,,,0,,,73,0
734720,note_on,,,,,0,0,1,,,,0,,,68,31
734720,note_off,,,,,512,0,1,,,,0,,,68,0
735232,note_off,,,,,512,0,1,,,,0,,,75,0
735232,note_on,,,,,0,0,1,,,,0,,,73,52
735232,note_off,,,,,0,0,1,,,,0,,,56,0
735232,note_off,,,,,0,0,1,,,,0,,,61,0
735744,note_off,,,,,0,0,1,,,,0,,,68,0
735744,note_off,,,,,512,0,1,,,,0,,,64,0
735744,note_on,,,,,0,0,1,,,,0,,,64,20
735744,note_on,,,,,0,0,1,,,,0,,,68,29
736256,note_on,,,,,0,0,1,,,,0,,,75,54
736256,note_off,,,,,0,0,1,,,,0,,,49,0
736256,note_off,,,,,0,0,1,,,,0,,,37,0
736256,note_off,,,,,0,0,1,,,,0,,,64,0
736256,note_off,,,,,0,0,1,,,,0,,,68,0
736256,note_on,,,,,0,0,1,,,,0,,,30,20
736256,note_off,,,,,0,0,1,,,,0,,,73,0
736256,note_on,,,,,0,0,1,,,,0,,,42,26
736256,set_tempo,,,,,3072,1,0,,500000,,,,,,
736256,control_change,,,,,0,0,1,,,,0,64,0,,
736256,control_change,,,,,0,0,1,,,,0,64,0,,
736256,control_change,,,,,0,0,1,,,,0,64,127,,
736256,control_change,,,,,512,0,1,,,,0,64,0,,
736256,control_change,,,,,0,0,1,,,,0,64,0,,
736256,control_change,,,,,0,0,1,,,,0,64,0,,
736514,control_change,,,,,258,0,1,,,,0,64,0,,
736768,note_on,,,,,0,0,1,,,,0,,,66,27
736768,note_on,,,,,254,0,1,,,,0,,,63,15
736768,note_on,,,,,0,0,1,,,,0,,,59,24
736768,note_on,,,,,0,0,1,,,,0,,,54,16
736810,control_change,,,,,42,0,1,,,,0,64,127,,
737280,set_tempo,,,,,1024,1,0,,461538,,,,,,
737280,note_on,,,,,0,0,1,,,,0,,,54,17
737280,note_on,,,,,0,0,1,,,,0,,,71,48
737280,note_off,,,,,0,0,1,,,,0,,,59,0
737280,note_off,,,,,0,0,1,,,,0,,,54,0
737280,note_off,,,,,470,0,1,,,,0,,,75,0
737280,note_on,,,,,0,0,1,,,,0,,,59,25
737792,note_on,,,,,0,0,1,,,,0,,,54,18
737792,note_on,,,,,0,0,1,,,,0,,,66,25
737792,note_on,,,,,0,0,1,,,,0,,,63,13
737792,note_on,,,,,0,0,1,,,,0,,,59,27
737792,note_off,,,,,0,0,1,,,,0,,,54,0
737792,note_off,,,,,0,0,1,,,,0,,,66,0
737792,note_off,,,,,512,0,1,,,,0,,,63,0
737792,note_off,,,,,0,0,1,,,,0,,,59,0
738304,note_off,,,,,512,0,1,,,,0,,,71,0
738304,note_on,,,,,0,0,1,,,,0,,,75,47
738304,note_on,,,,,0,0,1,,,,0,,,54,19
738304,note_on,,,,,0,0,1,,,,0,,,59,28
738304,note_off,,,,,0,0,1,,,,0,,,54,0
738304,note_off,,,,,0,0,1,,,,0,,,59,0
738816,note_on,,,,,0,0,1,,,,0,,,66,24
738816,note_on,,,,,0,0,1,,,,0,,,63,12
738816,note_off,,,,,0,0,1,,,,0,,,66,0
738816,note_off,,,,,512,0,1,,,,0,,,63,0
739328,note_off,,,,,512,0,1,,,,0,,,75,0
739328,note_on,,,,,0,0,1,,,,0,,,71,45
739328,note_off,,,,,0,0,1,,,,0,,,54,0
739328,note_off,,,,,0,0,1,,,,0,,,59,0
739840,note_off,,,,,512,0,1,,,,0,,,63,0
739840,note_off,,,,,0,0,1,,,,0,,,66,0
739840,note_on,,,,,0,0,1,,,,0,,,63,10
739840,note_on,,,,,0,0,1,,,,0,,,66,22
740352,note_on,,,,,0,0,1,,,,0,,,42,19
740352,note_on,,,,,0,0,1,,,,0,,,30,13
740352,note_on,,,,,0,0,1,,,,0,,,73,48
740352,note_off,,,,,0,0,1,,,,0,,,42,0
740352,note_off,,,,,0,0,1,,,,0,,,30,0
740352,note_off,,,,,0,0,1,,,,0,,,71,0
740352,note_off,,,,,0,0,1,,,,0,,,66,0
740352,control_change,,,,,0,0,1,,,,0,64,0,,
740352,control_change,,,,,0,0,1,,,,0,64,0,,
740352,control_change,,,,,0,0,1,,,,0,64,0,,
740352,control_change,,,,,0,0,1,,,,0,64,0,,
740352,control_change,,,,,0,0,1,,,,0,64,127,,
740352,control_change,,,,,512,0,1,,,,0,64,0,,
740352,note_off,,,,,0,0,1,,,,0,,,63,0
740610,control_change,,,,,258,0,1,,,,0,64,0,,
740864,note_on,,,,,254,0,1,,,,0,,,64,13
740864,note_on,,,,,0,0,1,,,,0,,,66,25
740864,note_on,,,,,0,0,1,,,,0,,,54,12
740864,note_on,,,,,0,0,1,,,,0,,,58,20
740906,control_change,,,,,42,0,1,,,,0,64,127,,
741376,note_off,,,,,0,0,1,,,,0,,,58,0
741376,note_off,,,,,0,0,1,,,,0,,,54,0
741376,note_on,,,,,0,0,1,,,,0,,,58,21
741376,note_on,,,,,0,0,1,,,,0,,,70,41
741376,note_off,,,,,470,0,1,,,,0,,,73,0
741376,note_on,,,,,0,0,1,,,,0,,,54,13
741888,note_off,,,,,512,0,1,,,,0,,,64,0
741888,note_off,,,,,0,0,1,,,,0,,,66,0
741888,note_off,,,,,0,0,1,,,,0,,,54,0
741888,note_off,,,,,0,0,1,,,,0,,,58,0
741888,note_on,,,,,0,0,1,,,,0,,,64,11
741888,note_on,,,,,0,0,1,,,,0,,,66,23
741888,note_on,,,,,0,0,1,,,,0,,,54,14
741888,note_on,,,,,0,0,1,,,,0,,,58,23
742400,note_off,,,,,0,0,1,,,,0,,,58,0
742400,note_on,,,,,0,0,1,,,,0,,,58,24
742400,note_off,,,,,0,0,1,,,,0,,,54,0
742400,note_on,,,,,0,0,1,,,,0,,,73,43
742400,note_off,,,,,512,0,1,,,,0,,,70,0
742400,note_on,,,,,0,0,1,,,,0,,,54,15
742912,note_on,,,,,0,0,1,,,,0,,,66,22
742912,note_on,,,,,0,0,1,,,,0,,,64,10
742912,note_off,,,,,512,0,1,,,,0,,,64,0
742912,note_off,,,,,0,0,1,,,,0,,,66,0
743424,note_off,,,,,512,0,1,,,,0,,,73,0
743424,note_on,,,,,0,0,1,,,,0,,,70,38
743424,note_off,,,,,0,0,1,,,,0,,,54,0
743424,note_off,,,,,0,0,1,,,,0,,,58,0
743936,note_on,,,,,0,0,1,,,,0,,,66,20
743936,note_on,,,,,0,0,1,,,,0,,,64,8
743936,set_tempo,,,,,6656,1,0,,545454,,,,,,
743936,note_off,,,,,512,0,1,,,,0,,,64,0
743936,note_off,,,,,0,0,1,,,,0,,,66,0
744448,set_tempo,,,,,512,1,0,,705882,,,,,,
744448,note_on,,,,,0,0,1,,,,0,,,48,27
744448,note_on,,,,,0,0,1,,,,0,,,36,21
744448,note_on,,,,,0,0,1,,,,0,,,75,55
744448,note_off,,,,,0,0,1,,,,0,,,42,0
744448,note_off,,,,,0,0,1,,,,0,,,30,0
744448,note_off,,,,,0,0,1,,,,0,,,70,0
744448,note_off,,,,,0,0,1,,,,0,,,66,0
744448,control_change,,,,,0,0,1,,,,0,64,0,,
744448,control_change,,,,,0,0,1,,,,0,64,0,,
744448,control_change,,,,,0,0,1,,,,0,64,0,,
744448,control_change,,,,,0,0,1,,,,0,64,127,,
744448,control_change,,,,,0,0,1,,,,0,64,0,,
744448,control_change,,,,,512,0,1,,,,0,64,0,,
744448,note_off,,,,,0,0,1,,,,0,,,64,0
744448,control_change,,,,,0,0,1,,,,0,64,0,,
744706,control_change,,,,,258,0,1,,,,0,64,0,,
744960,set_tempo,,,,,512,1,0,,500000,,,,,,
744960,note_on,,,,,0,0,1,,,,0,,,66,24
744960,note_on,,,,,0,0,1,,,,0,,,63,32
744960,note_on,,,,,254,0,1,,,,0,,,68,26
744960,note_on,,,,,0,0,1,,,,0,,,56,24
745002,control_change,,,,,42,0,1,,,,0,64,127,,
745472,note_on,,,,,0,0,1,,,,0,,,80,55
745472,note_off,,,,,470,0,1,,,,0,,,75,0
745472,note_on,,,,,0,0,1,,,,0,,,56,25
745472,note_on,,,,,0,0,1,,,,0,,,63,33
745472,note_on,,,,,0,0,1,,,,0,,,66,25
745472,note_off,,,,,0,0,1,,,,0,,,56,0
745472,note_off,,,,,0,0,1,,,,0,,,63,0
745472,note_off,,,,,0,0,1,,,,0,,,66,0
745472,set_tempo,,,,,512,1,0,,461538,,,,,,
745984,note_off,,,,,0,0,1,,,,0,,,66,0
745984,note_off,,,,,0,0,1,,,,0,,,63,0
745984,note_off,,,,,0,0,1,,,,0,,,56,0
745984,note_on,,,,,0,0,1,,,,0,,,66,26
745984,note_on,,,,,0,0,1,,,,0,,,63,35
745984,note_on,,,,,0,0,1,,,,0,,,56,26
745984,note_on,,,,,0,0,1,,,,0,,,75,40
745984,note_on,,,,,0,0,1,,,,0,,,68,31
745984,note_off,,,,,512,0,1,,,,0,,,68,0
746496,note_off,,,,,512,0,1,,,,0,,,80,0
746496,note_on,,,,,0,0,1,,,,0,,,81,60
746496,note_on,,,,,0,0,1,,,,0,,,56,27
746496,note_on,,,,,0,0,1,,,,0,,,63,36
746496,note_on,,,,,0,0,1,,,,0,,,66,27
746496,note_off,,,,,0,0,1,,,,0,,,66,0
746496,note_off,,,,,0,0,1,,,,0,,,63,0
746496,set_tempo,,,,,1024,1,0,,545454,,,,,,
746496,note_off,,,,,0,0,1,,,,0,,,56,0
747008,set_tempo,,,,,512,1,0,,461538,,,,,,
747008,note_off,,,,,0,0,1,,,,0,,,75,0
747008,note_on,,,,,0,0,1,,,,0,,,68,26
747008,note_on,,,,,0,0,1,,,,0,,,75,35
747008,note_off,,,,,512,0,1,,,,0,,,68,0
747520,note_off,,,,,512,0,1,,,,0,,,81,0
747520,note_on,,,,,0,0,1,,,,0,,,80,56
747520,note_off,,,,,0,0,1,,,,0,,,66,0
747520,note_off,,,,,0,0,1,,,,0,,,56,0
747520,note_off,,,,,0,0,1,,,,0,,,63,0
748032,note_on,,,,,0,0,1,,,,0,,,75,41
748032,note_on,,,,,0,0,1,,,,0,,,68,32
748032,note_off,,,,,0,0,1,,,,0,,,75,0
748032,note_off,,,,,512,0,1,,,,0,,,68,0
748544,note_off,,,,,0,0,1,,,,0,,,80,0
748544,control_change,,,,,0,0,1,,,,0,64,0,,
748544,control_change,,,,,0,0,1,,,,0,64,0,,
748544,control_change,,,,,0,0,1,,,,0,64,0,,
748544,control_change,,,,,0,0,1,,,,0,64,0,,
748544,control_change,,,,,0,0,1,,,,0,64,127,,
748544,control_change,,,,,0,0,1,,,,0,64,0,,
748544,control_change,,,,,512,0,1,,,,0,64,0,,
748544,note_off,,,,,0,0,1,,,,0,,,68,0
748544,note_off,,,,,0,0,1,,,,0,,,75,0
748544,note_on,,,,,0,0,1,,,,0,,,78,56
748544,note_on,,,,,0,0,1,,,,0,,,49,20
748544,note_on,,,,,0,0,1,,,,0,,,37,14
748544,note_off,,,,,0,0,1,,,,0,,,48,0
748544,note_off,,,,,0,0,1,,,,0,,,36,0
748802,control_change,,,,,258,0,1,,,,0,64,0,,
749056,note_on,,,,,0,0,1,,,,0,,,73,35
749056,note_on,,,,,254,0,1,,,,0,,,68,26
749056,note_on,,,,,0,0,1,,,,0,,,61,25
749056,note_on,,,,,0,0,1,,,,0,,,56,17
749098,control_change,,,,,42,0,1,,,,0,64,127,,
749568,note_off,,,,,0,0,1,,,,0,,,56,0
749568,note_on,,,,,0,0,1,,,,0,,,61,26
749568,note_on,,,,,0,0,1,,,,0,,,56,18
749568,note_on,,,,,0,0,1,,,,0,,,76,50
749568,note_off,,,,,470,0,1,,,,0,,,78,0
749568,set_tempo,,,,,2560,1,0,,461538,,,,,,
749568,note_off,,,,,0,0,1,,,,0,,,61,0
750080,note_on,,,,,0,0,1,,,,0,,,61,28
750080,note_on,,,,,0,0,1,,,,0,,,56,19
750080,note_on,,,,,0,0,1,,,,0,,,73,33
750080,note_on,,,,,0,0,1,,,,0,,,68,24
750080,note_off,,,,,0,0,1,,,,0,,,61,0
750080,note_off,,,,,0,0,1,,,,0,,,56,0
750080,note_off,,,,,0,0,1,,,,0,,,73,0
750080,note_off,,,,,512,0,1,,,,0,,,68,0
750592,note_off,,,,,512,0,1,,,,0,,,76,0
750592,note_off,,,,,0,0,1,,,,0,,,61,0
750592,note_off,,,,,0,0,1,,,,0,,,56,0
750592,note_on,,,,,0,0,1,,,,0,,,61,29
750592,note_on,,,,,0,0,1,,,,0,,,56,20
750592,note_on,,,,,0,0,1,,,,0,,,75,47
751104,note_off,,,,,0,0,1,,,,0,,,73,0
751104,note_off,,,,,512,0,1,,,,0,,,68,0
751104,note_on,,,,,0,0,1,,,,0,,,68,30
751104,note_on,,,,,0,0,1,,,,0,,,64,21
751616,note_on,,,,,0,0,1,,,,0,,,73,45
751616,note_off,,,,,512,0,1,,,,0,,,75,0
751616,note_off,,,,,0,0,1,,,,0,,,56,0
751616,note_off,,,,,0,0,1,,,,0,,,61,0
752128,note_off,,,,,512,0,1,,,,0,,,64,0
752128,note_off,,,,,0,0,1,,,,0,,,68,0
752128,note_on,,,,,0,0,1,,,,0,,,64,19
752128,note_on,,,,,0,0,1,,,,0,,,68,28
752640,control_change,,,,,0,0,1,,,,0,64,0,,
752640,note_off,,,,,0,0,1,,,,0,,,68,0
752640,control_change,,,,,0,0,1,,,,0,64,0,,
752640,control_change,,,,,0,0,1,,,,0,64,127,,
752640,control_change,,,,,0,0,1,,,,0,64,0,,
752640,control_change,,,,,0,0,1,,,,0,64,0,,
752640,control_change,,,,,0,0,1,,,,0,64,0,,
752640,control_change,,,,,0,0,1,,,,0,64,0,,
752640,control_change,,,,,0,0,1,,,,0,64,0,,
752640,control_change,,,,,512,0,1,,,,0,64,0,,
752640,note_off,,,,,0,0,1,,,,0,,,64,0
752640,note_on,,,,,0,0,1,,,,0,,,42,21
752640,note_on,,,,,0,0,1,,,,0,,,30,15
752640,note_on,,,,,0,0,1,,,,0,,,73,49
752640,note_off,,,,,0,0,1,,,,0,,,49,0
752640,note_off,,,,,0,0,1,,,,0,,,37,0
752640,note_off,,,,,0,0,1,,,,0,,,73,0
752898,control_change,,,,,258,0,1,,,,0,64,0,,
753152,set_tempo,,,,,3584,1,0,,500000,,,,,,
753152,note_on,,,,,0,0,1,,,,0,,,64,18
753152,note_on,,,,,0,0,1,,,,0,,,61,26
753152,note_on,,,,,0,0,1,,,,0,,,54,18
753152,note_on,,,,,0,0,1,,,,0,,,70,20
753152,note_on,,,,,254,0,1,,,,0,,,66,20
753194,control_change,,,,,42,0,1,,,,0,64,127,,
753664,note_off,,,,,470,0,1,,,,0,,,73,0
753664,note_on,,,,,0,0,1,,,,0,,,61,27
753664,note_on,,,,,0,0,1,,,,0,,,64,19
753664,set_tempo,,,,,512,1,0,,461538,,,,,,
753664,note_off,,,,,0,0,1,,,,0,,,54,0
753664,note_off,,,,,0,0,1,,,,0,,,61,0
753664,note_off,,,,,0,0,1,,,,0,,,64,0
753664,note_on,,,,,0,0,1,,,,0,,,76,49
753664,note_on,,,,,0,0,1,,,,0,,,54,19
754176,note_on,,,,,0,0,1,,,,0,,,66,25
754176,note_off,,,,,0,0,1,,,,0,,,64,0
754176,note_on,,,,,0,0,1,,,,0,,,54,20
754176,note_off,,,,,0,0,1,,,,0,,,54,0
754176,note_off,,,,,0,0,1,,,,0,,,70,0
754176,note_off,,,,,512,0,1,,,,0,,,66,0
754176,note_on,,,,,0,0,1,,,,0,,,61,29
754176,note_on,,,,,0,0,1,,,,0,,,64,20
754176,note_on,,,,,0,0,1,,,,0,,,70,34
754176,note_off,,,,,0,0,1,,,,0,,,61,0
754688,set_tempo,,,,,1024,1,0,,545454,,,,,,
754688,note_off,,,,,0,0,1,,,,0,,,54,0
754688,note_off,,,,,512,0,1,,,,0,,,76,0
754688,note_on,,,,,0,0,1,,,,0,,,80,54
754688,note_on,,,,,0,0,1,,,,0,,,54,21
754688,note_on,,,,,0,0,1,,,,0,,,61,30
754688,note_on,,,,,0,0,1,,,,0,,,64,21
754688,note_off,,,,,0,0,1,,,,0,,,61,0
754688,note_off,,,,,0,0,1,,,,0,,,64,0
755200,note_off,,,,,512,0,1,,,,0,,,66,0
755200,set_tempo,,,,,512,1,0,,461538,,,,,,
755200,note_on,,,,,0,0,1,,,,0,,,70,29
755200,note_on,,,,,0,0,1,,,,0,,,66,20
755200,note_off,,,,,0,0,1,,,,0,,,70,0
755712,note_off,,,,,0,0,1,,,,0,,,54,0
755712,note_off,,,,,512,0,1,,,,0,,,80,0
755712,note_on,,,,,0,0,1,,,,0,,,78,50
755712,note_off,,,,,0,0,1,,,,0,,,61,0
755712,note_off,,,,,0,0,1,,,,0,,,64,0
756224,note_off,,,,,512,0,1,,,,0,,,66,0
756224,note_off,,,,,0,0,1,,,,0,,,70,0
756224,note_on,,,,,0,0,1,,,,0,,,70,35
756224,note_on,,,,,0,0,1,,,,0,,,66,26
756736,set_tempo,,,,,1536,1,0,,625000,,,,,,
756736,control_change,,,,,0,0,1,,,,0,64,0,,
756736,note_off,,,,,0,0,1,,,,0,,,78,0
756736,note_on,,,,,0,0,1,,,,0,,,47,14
756736,note_on,,,,,0,0,1,,,,0,,,35,8
756736,note_on,,,,,0,0,1,,,,0,,,76,50
756736,note_off,,,,,0,0,1,,,,0,,,42,0
756736,note_off,,,,,0,0,1,,,,0,,,30,0
756736,note_off,,,,,0,0,1,,,,0,,,70,0
756736,control_change,,,,,0,0,1,,,,0,64,0,,
756736,note_off,,,,,0,0,1,,,,0,,,66,0
756736,control_change,,,,,0,0,1,,,,0,64,0,,
756736,control_change,,,,,0,0,1,,,,0,64,0,,
756736,control_change,,,,,0,0,1,,,,0,64,0,,
756736,control_change,,,,,0,0,1,,,,0,64,127,,
756736,control_change,,,,,0,0,1,,,,0,64,0,,
756736,control_change,,,,,512,0,1,,,,0,64,0,,
756736,control_change,,,,,0,0,1,,,,0,64,0,,
756994,control_change,,,,,258,0,1,,,,0,64,0,,
757248,note_on,,,,,0,0,1,,,,0,,,71,29
757248,set_tempo,,,,,512,1,0,,545454,,,,,,
757248,note_on,,,,,0,0,1,,,,0,,,59,19
757248,note_on,,,,,254,0,1,,,,0,,,66,20
757248,note_on,,,,,0,0,1,,,,0,,,54,11
757290,control_change,,,,,42,0,1,,,,0,64,127,,
757760,set_tempo,,,,,512,1,0,,461538,,,,,,
757760,note_off,,,,,470,0,1,,,,0,,,76,0
757760,note_off,,,,,0,0,1,,,,0,,,59,0
757760,note_on,,,,,0,0,1,,,,0,,,75,44
757760,note_on,,,,,0,0,1,,,,0,,,54,12
757760,note_on,,,,,0,0,1,,,,0,,,59,20
757760,note_off,,,,,0,0,1,,,,0,,,54,0
758272,note_on,,,,,0,0,1,,,,0,,,71,27
758272,note_on,,,,,0,0,1,,,,0,,,59,22
758272,note_on,,,,,0,0,1,,,,0,,,54,13
758272,note_on,,,,,0,0,1,,,,0,,,66,18
758272,note_off,,,,,0,0,1,,,,0,,,59,0
758272,note_off,,,,,0,0,1,,,,0,,,54,0
758272,note_off,,,,,0,0,1,,,,0,,,71,0
758272,note_off,,,,,512,0,1,,,,0,,,66,0
758784,note_off,,,,,0,0,1,,,,0,,,59,0
758784,note_off,,,,,0,0,1,,,,0,,,54,0
758784,note_on,,,,,0,0,1,,,,0,,,59,23
758784,note_off,,,,,512,0,1,,,,0,,,75,0
758784,note_on,,,,,0,0,1,,,,0,,,73,41
758784,note_on,,,,,0,0,1,,,,0,,,54,14
759296,note_off,,,,,512,0,1,,,,0,,,66,0
759296,note_off,,,,,0,0,1,,,,0,,,71,0
759296,note_on,,,,,0,0,1,,,,0,,,63,15
759296,note_on,,,,,0,0,1,,,,0,,,66,24
759808,note_off,,,,,0,0,1,,,,0,,,54,0
759808,note_off,,,,,0,0,1,,,,0,,,59,0
759808,note_off,,,,,512,0,1,,,,0,,,73,0
759808,note_on,,,,,0,0,1,,,,0,,,71,39
760320,note_on,,,,,0,0,1,,,,0,,,66,22
760320,note_on,,,,,0,0,1,,,,0,,,63,13
760320,note_off,,,,,0,0,1,,,,0,,,66,0
760320,note_off,,,,,512,0,1,,,,0,,,63,0
760832,set_tempo,,,,,3072,1,0,,545454,,,,,,
760832,note_off,,,,,0,0,1,,,,0,,,35,0
760832,note_on,,,,,0,0,1,,,,0,,,71,44
760832,control_change,,,,,0,0,1,,,,0,64,0,,
760832,note_off,,,,,0,0,1,,,,0,,,63,0
760832,note_off,,,,,0,0,1,,,,0,,,66,0
760832,note_off,,,,,0,0,1,,,,0,,,71,0
760832,note_off,,,,,0,0,1,,,,0,,,47,0
760832,control_change,,,,,0,0,1,,,,0,64,0,,
760832,note_on,,,,,0,0,1,,,,0,,,32,9
760832,note_on,,,,,0,0,1,,,,0,,,44,15
760832,control_change,,,,,0,0,1,,,,0,64,0,,
760832,control_change,,,,,0,0,1,,,,0,64,0,,
760832,control_change,,,,,0,0,1,,,,0,64,0,,
760832,control_change,,,,,0,0,1,,,,0,64,0,,
760832,control_change,,,,,0,0,1,,,,0,64,127,,
760832,control_change,,,,,512,0,1,,,,0,64,0,,
761090,control_change,,,,,258,0,1,,,,0,64,0,,
761344,note_on,,,,,0,0,1,,,,0,,,51,12
761344,note_on,,,,,0,0,1,,,,0,,,56,20
761344,note_on,,,,,0,0,1,,,,0,,,59,12
761344,note_on,,,,,0,0,1,,,,0,,,68,29
761344,note_on,,,,,254,0,1,,,,0,,,63,20
761386,control_change,,,,,42,0,1,,,,0,64,127,,
761856,note_on,,,,,0,0,1,,,,0,,,56,21
761856,note_off,,,,,470,0,1,,,,0,,,71,0
761856,note_off,,,,,0,0,1,,,,0,,,59,0
761856,note_off,,,,,0,0,1,,,,0,,,56,0
761856,note_on,,,,,0,0,1,,,,0,,,59,13
761856,note_on,,,,,0,0,1,,,,0,,,51,13
761856,note_on,,,,,0,0,1,,,,0,,,73,47
761856,note_off,,,,,0,0,1,,,,0,,,51,0
761856,set_tempo,,,,,1024,1,0,,461538,,,,,,
762368,note_off,,,,,0,0,1,,,,0,,,51,0
762368,note_on,,,,,0,0,1,,,,0,,,56,23
762368,note_on,,,,,0,0,1,,,,0,,,51,14
762368,note_on,,,,,0,0,1,,,,0,,,68,32
762368,note_on,,,,,0,0,1,,,,0,,,63,23
762368,note_off,,,,,512,0,1,,,,0,,,63,0
762368,note_off,,,,,0,0,1,,,,0,,,68,0
762368,note_on,,,,,0,0,1,,,,0,,,59,14
762368,note_off,,,,,0,0,1,,,,0,,,56,0
762368,note_off,,,,,0,0,1,,,,0,,,59,0
762880,note_on,,,,,0,0,1,,,,0,,,59,15
762880,note_off,,,,,0,0,1,,,,0,,,51,0
762880,note_off,,,,,0,0,1,,,,0,,,56,0
762880,note_off,,,,,0,0,1,,,,0,,,59,0
762880,note_on,,,,,0,0,1,,,,0,,,56,24
762880,note_on,,,,,0,0,1,,,,0,,,51,15
762880,note_on,,,,,0,0,1,,,,0,,,70,50
762880,note_off,,,,,512,0,1,,,,0,,,73,0
763392,note_on,,,,,0,0,1,,,,0,,,68,35
763392,note_off,,,,,0,0,1,,,,0,,,68,0
763392,note_off,,,,,512,0,1,,,,0,,,63,0
763392,note_on,,,,,0,0,1,,,,0,,,63,26
763904,note_off,,,,,512,0,1,,,,0,,,70,0
763904,note_on,,,,,0,0,1,,,,0,,,71,52
763904,note_off,,,,,0,0,1,,,,0,,,51,0
763904,note_off,,,,,0,0,1,,,,0,,,56,0
763904,note_off,,,,,0,0,1,,,,0,,,59,0
764416,note_on,,,,,0,0,1,,,,0,,,63,29
764416,note_off,,,,,512,0,1,,,,0,,,63,0
764416,note_on,,,,,0,0,1,,,,0,,,68,38
764416,note_off,,,,,0,0,1,,,,0,,,68,0
764928,note_off,,,,,0,0,1,,,,0,,,63,0
764928,note_off,,,,,0,0,1,,,,0,,,71,0
764928,note_off,,,,,0,0,1,,,,0,,,68,0
764928,note_off,,,,,0,0,1,,,,0,,,32,0
764928,note_off,,,,,0,0,1,,,,0,,,44,0
764928,note_on,,,,,0,0,1,,,,0,,,78,61
764928,note_on,,,,,0,0,1,,,,0,,,37,15
764928,note_on,,,,,0,0,1,,,,0,,,49,21
764928,control_change,,,,,0,0,1,,,,0,64,0,,
764928,control_change,,,,,0,0,1,,,,0,64,0,,
764928,control_change,,,,,0,0,1,,,,0,64,0,,
764928,control_change,,,,,0,0,1,,,,0,64,0,,
764928,control_change,,,,,0,0,1,,,,0,64,0,,
764928,control_change,,,,,0,0,1,,,,0,64,127,,
764928,control_change,,,,,512,0,1,,,,0,64,0,,
764928,set_tempo,,,,,3072,1,0,,625000,,,,,,
764928,control_change,,,,,0,0,1,,,,0,64,0,,
765186,control_change,,,,,258,0,1,,,,0,64,0,,
765440,note_on,,,,,0,0,1,,,,0,,,61,26
765440,set_tempo,,,,,512,1,0,,461538,,,,,,
765440,note_on,,,,,254,0,1,,,,0,,,68,32
765440,note_on,,,,,0,0,1,,,,0,,,73,41
765440,note_on,,,,,0,0,1,,,,0,,,56,18
765482,control_change,,,,,42,0,1,,,,0,64,127,,
765952,note_on,,,,,0,0,1,,,,0,,,61,27
765952,note_off,,,,,0,0,1,,,,0,,,56,0
765952,note_off,,,,,0,0,1,,,,0,,,61,0
765952,note_on,,,,,0,0,1,,,,0,,,56,19
765952,note_on,,,,,0,0,1,,,,0,,,76,57
765952,note_off,,,,,470,0,1,,,,0,,,78,0
766464,note_on,,,,,0,0,1,,,,0,,,61,29
766464,note_on,,,,,0,0,1,,,,0,,,56,20
766464,note_on,,,,,0,0,1,,,,0,,,73,38
766464,note_off,,,,,0,0,1,,,,0,,,61,0
766464,note_off,,,,,0,0,1,,,,0,,,56,0
766464,note_on,,,,,0,0,1,,,,0,,,68,29
766464,note_off,,,,,512,0,1,,,,0,,,68,0
766464,note_off,,,,,0,0,1,,,,0,,,73,0
766976,note_on,,,,,0,0,1,,,,0,,,61,30
766976,note_off,,,,,0,0,1,,,,0,,,61,0
766976,note_off,,,,,512,0,1,,,,0,,,76,0
766976,note_on,,,,,0,0,1,,,,0,,,75,52
766976,note_on,,,,,0,0,1,,,,0,,,56,21
766976,note_off,,,,,0,0,1,,,,0,,,56,0
767488,note_off,,,,,0,0,1,,,,0,,,73,0
767488,note_off,,,,,512,0,1,,,,0,,,68,0
767488,note_on,,,,,0,0,1,,,,0,,,64,25
767488,note_on,,,,,0,0,1,,,,0,,,68,34
768000,note_off,,,,,0,0,1,,,,0,,,56,0
768000,note_off,,,,,512,0,1,,,,0,,,75,0
768000,note_off,,,,,0,0,1,,,,0,,,61,0
768000,note_on,,,,,0,0,1,,,,0,,,73,48
768512,note_off,,,,,512,0,1,,,,0,,,64,0
768512,note_off,,,,,0,0,1,,,,0,,,68,0
768512,note_on,,,,,0,0,1,,,,0,,,64,22
768512,note_on,,,,,0,0,1,,,,0,,,68,31
769024,note_on,,,,,0,0,1,,,,0,,,75,54
769024,note_on,,,,,0,0,1,,,,0,,,30,20
769024,note_on,,,,,0,0,1,,,,0,,,42,26
769024,note_off,,,,,0,0,1,,,,0,,,49,0
769024,note_off,,,,,0,0,1,,,,0,,,37,0
769024,note_off,,,,,0,0,1,,,,0,,,73,0
769024,note_off,,,,,0,0,1,,,,0,,,68,0
769024,note_off,,,,,0,0,1,,,,0,,,64,0
769024,control_change,,,,,0,0,1,,,,0,64,0,,
769024,control_change,,,,,0,0,1,,,,0,64,0,,
769024,control_change,,,,,0,0,1,,,,0,64,0,,
769024,control_change,,,,,0,0,1,,,,0,64,0,,
769024,control_change,,,,,0,0,1,,,,0,64,0,,
769024,control_change,,,,,0,0,1,,,,0,64,127,,
769024,control_change,,,,,0,0,1,,,,0,64,0,,
769024,control_change,,,,,512,0,1,,,,0,64,0,,
769024,set_tempo,,,,,3584,1,0,,500000,,,,,,
769282,control_change,,,,,258,0,1,,,,0,64,0,,
769536,note_on,,,,,254,0,1,,,,0,,,63,21
769536,note_on,,,,,0,0,1,,,,0,,,66,33
769536,note_on,,,,,0,0,1,,,,0,,,54,16
769536,note_on,,,,,0,0,1,,,,0,,,59,24
769578,control_change,,,,,42,0,1,,,,0,64,127,,
770048,note_off,,,,,0,0,1,,,,0,,,59,0
770048,note_off,,,,,0,0,1,,,,0,,,54,0
770048,note_on,,,,,0,0,1,,,,0,,,59,25
770048,note_on,,,,,0,0,1,,,,0,,,54,17
770048,note_off,,,,,470,0,1,,,,0,,,75,0
770048,set_tempo,,,,,1024,1,0,,461538,,,,,,
770048,note_on,,,,,0,0,1,,,,0,,,71,48
770560,note_on,,,,,0,0,1,,,,0,,,66,31
770560,note_off,,,,,512,0,1,,,,0,,,63,0
770560,note_off,,,,,0,0,1,,,,0,,,66,0
770560,note_off,,,,,0,0,1,,,,0,,,54,0
770560,note_off,,,,,0,0,1,,,,0,,,59,0
770560,note_on,,,,,0,0,1,,,,0,,,63,19
770560,note_on,,,,,0,0,1,,,,0,,,54,18
770560,note_on,,,,,0,0,1,,,,0,,,59,27
771072,note_on,,,,,0,0,1,,,,0,,,59,28
771072,note_on,,,,,0,0,1,,,,0,,,54,19
771072,note_off,,,,,0,0,1,,,,0,,,59,0
771072,note_off,,,,,512,0,1,,,,0,,,71,0
771072,note_on,,,,,0,0,1,,,,0,,,75,47
771072,note_off,,,,,0,0,1,,,,0,,,54,0
771584,note_on,,,,,0,0,1,,,,0,,,66,30
771584,note_on,,,,,0,0,1,,,,0,,,63,18
771584,note_off,,,,,512,0,1,,,,0,,,63,0
771584,note_off,,,,,0,0,1,,,,0,,,66,0
772096,note_off,,,,,512,0,1,,,,0,,,75,0
772096,note_on,,,,,0,0,1,,,,0,,,71,45
772096,note_off,,,,,0,0,1,,,,0,,,54,0
772096,note_off,,,,,0,0,1,,,,0,,,59,0
772608,note_on,,,,,0,0,1,,,,0,,,63,16
772608,note_off,,,,,512,0,1,,,,0,,,63,0
772608,note_off,,,,,0,0,1,,,,0,,,66,0
772608,note_on,,,,,0,0,1,,,,0,,,66,28
773120,note_off,,,,,0,0,1,,,,0,,,66,0
773120,note_off,,,,,0,0,1,,,,0,,,71,0
773120,note_off,,,,,0,0,1,,,,0,,,30,0
773120,control_change,,,,,0,0,1,,,,0,64,0,,
773120,note_on,,,,,0,0,1,,,,0,,,73,48
773120,note_on,,,,,0,0,1,,,,0,,,30,13
773120,note_off,,,,,0,0,1,,,,0,,,42,0
773120,note_off,,,,,0,0,1,,,,0,,,63,0
773120,control_change,,,,,0,0,1,,,,0,64,0,,
773120,control_change,,,,,0,0,1,,,,0,64,0,,
773120,control_change,,,,,0,0,1,,,,0,64,0,,
773120,note_on,,,,,0,0,1,,,,0,,,42,19
773120,control_change,,,,,0,0,1,,,,0,64,127,,
773120,control_change,,,,,0,0,1,,,,0,64,0,,
773120,control_change,,,,,512,0,1,,,,0,64,0,,
773120,control_change,,,,,0,0,1,,,,0,64,0,,
773378,control_change,,,,,258,0,1,,,,0,64,0,,
773632,note_on,,,,,0,0,1,,,,0,,,66,31
773632,note_on,,,,,0,0,1,,,,0,,,54,12
773632,note_on,,,,,254,0,1,,,,0,,,64,19
773632,note_on,,,,,0,0,1,,,,0,,,58,20
773674,control_change,,,,,42,0,1,,,,0,64,127,,
774144,note_off,,,,,0,0,1,,,,0,,,58,0
774144,note_off,,,,,0,0,1,,,,0,,,54,0
774144,note_on,,,,,0,0,1,,,,0,,,58,21
774144,note_on,,,,,0,0,1,,,,0,,,54,13
774144,note_off,,,,,470,0,1,,,,0,,,73,0
774144,note_on,,,,,0,0,1,,,,0,,,70,46
774656,note_off,,,,,512,0,1,,,,0,,,64,0
774656,note_off,,,,,0,0,1,,,,0,,,66,0
774656,note_off,,,,,0,0,1,,,,0,,,54,0
774656,note_off,,,,,0,0,1,,,,0,,,58,0
774656,note_on,,,,,0,0,1,,,,0,,,64,17
774656,note_on,,,,,0,0,1,,,,0,,,66,29
774656,note_on,,,,,0,0,1,,,,0,,,54,14
774656,note_on,,,,,0,0,1,,,,0,,,58,23
775168,note_off,,,,,0,0,1,,,,0,,,58,0
775168,note_off,,,,,0,0,1,,,,0,,,54,0
775168,note_on,,,,,0,0,1,,,,0,,,58,24
775168,note_on,,,,,0,0,1,,,,0,,,73,45
775168,note_off,,,,,512,0,1,,,,0,,,70,0
775168,note_on,,,,,0,0,1,,,,0,,,54,15
775680,note_off,,,,,512,0,1,,,,0,,,64,0
775680,note_off,,,,,0,0,1,,,,0,,,66,0
775680,note_on,,,,,0,0,1,,,,0,,,64,16
775680,note_on,,,,,0,0,1,,,,0,,,66,28
776192,note_on,,,,,0,0,1,,,,0,,,70,43
776192,note_off,,,,,512,0,1,,,,0,,,73,0
776192,note_off,,,,,0,0,1,,,,0,,,58,0
776192,note_off,,,,,0,0,1,,,,0,,,54,0
776704,set_tempo,,,,,6656,1,0,,545454,,,,,,
776704,note_on,,,,,0,0,1,,,,0,,,66,26
776704,note_on,,,,,0,0,1,,,,0,,,64,14
776704,note_off,,,,,0,0,1,,,,0,,,66,0
776704,note_off,,,,,512,0,1,,,,0,,,64,0
777216,control_change,,,,,0,0,1,,,,0,64,127,,
777216,note_on,,,,,0,0,1,,,,0,,,47,25
777216,note_on,,,,,0,0,1,,,,0,,,35,19
777216,note_on,,,,,0,0,1,,,,0,,,71,46
777216,note_off,,,,,0,0,1,,,,0,,,42,0
777216,note_off,,,,,0,0,1,,,,0,,,30,0
777216,note_off,,,,,0,0,1,,,,0,,,70,0
777216,note_off,,,,,0,0,1,,,,0,,,66,0
777216,note_off,,,,,0,0,1,,,,0,,,64,0
777216,control_change,,,,,0,0,1,,,,0,64,0,,
777216,control_change,,,,,0,0,1,,,,0,64,0,,
777216,control_change,,,,,0,0,1,,,,0,64,0,,
777216,control_change,,,,,0,0,1,,,,0,64,0,,
777216,control_change,,,,,0,0,1,,,,0,64,0,,
777216,control_change,,,,,0,0,1,,,,0,64,0,,
777216,control_change,,,,,0,0,1,,,,0,64,0,,
777216,control_change,,,,,512,0,1,,,,0,64,0,,
777216,control_change,,,,,0,0,1,,,,0,64,0,,
777474,control_change,,,,,258,0,1,,,,0,64,0,,
777728,set_tempo,,,,,1024,1,0,,461538,,,,,,
777728,note_on,,,,,0,0,1,,,,0,,,54,12
777728,note_on,,,,,254,0,1,,,,0,,,59,25
777728,note_on,,,,,0,0,1,,,,0,,,47,12
777728,note_on,,,,,0,0,1,,,,0,,,51,20
777770,control_change,,,,,42,0,1,,,,0,64,127,,
778240,note_off,,,,,0,0,1,,,,0,,,51,0
778240,note_off,,,,,0,0,1,,,,0,,,54,0
778240,note_off,,,,,0,0,1,,,,0,,,47,0
778240,note_on,,,,,0,0,1,,,,0,,,51,21
778240,note_on,,,,,0,0,1,,,,0,,,47,13
778240,note_on,,,,,0,0,1,,,,0,,,66,30
778240,note_on,,,,,0,0,1,,,,0,,,54,13
778240,note_on,,,,,0,0,1,,,,0,,,63,25
778240,note_off,,,,,470,0,1,,,,0,,,59,0
778752,note_on,,,,,0,0,1,,,,0,,,59,25
778752,note_off,,,,,512,0,1,,,,0,,,63,0
778752,note_off,,,,,0,0,1,,,,0,,,66,0
778752,note_off,,,,,0,0,1,,,,0,,,47,0
778752,note_off,,,,,0,0,1,,,,0,,,51,0
778752,note_off,,,,,0,0,1,,,,0,,,54,0
778752,note_on,,,,,0,0,1,,,,0,,,47,14
778752,note_on,,,,,0,0,1,,,,0,,,51,23
778752,note_on,,,,,0,0,1,,,,0,,,54,14
779264,note_on,,,,,0,0,1,,,,0,,,51,24
779264,note_on,,,,,0,0,1,,,,0,,,54,15
779264,note_on,,,,,0,0,1,,,,0,,,71,46
779264,note_on,,,,,0,0,1,,,,0,,,47,15
779264,note_off,,,,,0,0,1,,,,0,,,51,0
779264,note_off,,,,,0,0,1,,,,0,,,47,0
779264,note_off,,,,,0,0,1,,,,0,,,59,0
779264,note_off,,,,,0,0,1,,,,0,,,54,0
779264,note_off,,,,,512,0,1,,,,0,,,71,0
779776,note_on,,,,,512,0,1,,,,0,,,59,32
780288,note_off,,,,,0,0,1,,,,0,,,51,0
780288,note_off,,,,,512,0,1,,,,0,,,59,0
780288,note_on,,,,,0,0,1,,,,0,,,63,32
780288,note_on,,,,,0,0,1,,,,0,,,66,37
780288,note_off,,,,,0,0,1,,,,0,,,47,0
780288,note_off,,,,,0,0,1,,,,0,,,54,0
780288,set_tempo,,,,,2560,1,0,,500000,,,,,,
780800,set_tempo,,,,,512,1,0,,600000,,,,,,
780800,note_off,,,,,0,0,1,,,,0,,,66,0
780800,note_off,,,,,512,0,1,,,,0,,,63,0
780800,note_on,,,,,0,0,1,,,,0,,,59,32
781312,key_signature,,,,,512,1,0,Bm,,,,,,,
781312,note_on,,,,,0,0,1,,,,0,,,47,37
781312,note_on,,,,,0,0,1,,,,0,,,35,30
781312,note_on,,,,,0,0,1,,,,0,,,71,58
781312,note_off,,,,,0,0,1,,,,0,,,47,0
781312,note_off,,,,,0,0,1,,,,0,,,35,0
781312,note_off,,,,,0,0,1,,,,0,,,59,0
781312,note_off,,,,,0,0,1,,,,0,,,71,0
781312,control_change,,,,,0,0,1,,,,0,64,0,,
781312,control_change,,,,,0,0,1,,,,0,64,0,,
781312,control_change,,,,,0,0,1,,,,0,64,0,,
781312,control_change,,,,,0,0,1,,,,0,64,0,,
781312,control_change,,,,,0,0,1,,,,0,64,0,,
781312,control_change,,,,,0,0,1,,,,0,64,0,,
781312,control_change,,,,,0,0,1,,,,0,64,0,,
781312,control_change,,,,,0,0,1,,,,0,64,0,,
781312,control_change,,,,,0,0,1,,,,0,64,127,,
781312,control_change,,,,,0,0,1,,,,0,64,0,,
781312,control_change,,,,,512,0,1,,,,0,64,0,,
781312,control_change,,,,,0,0,1,,,,0,64,0,,
781570,control_change,,,,,258,0,1,,,,0,64,0,,
781824,note_on,,,,,0,0,1,,,,0,,,47,25
781824,note_on,,,,,0,0,1,,,,0,,,54,25
781824,note_on,,,,,0,0,1,,,,0,,,50,35
781824,note_on,,,,,254,0,1,,,,0,,,59,33
781824,set_tempo,,,,,512,1,0,,461538,,,,,,
781866,control_change,,,,,42,0,1,,,,0,64,127,,
782336,note_off,,,,,0,0,1,,,,0,,,54,0
782336,note_on,,,,,0,0,1,,,,0,,,62,34
782336,note_off,,,,,0,0,1,,,,0,,,47,0
782336,note_on,,,,,0,0,1,,,,0,,,54,28
782336,note_on,,,,,0,0,1,,,,0,,,50,38
782336,note_on,,,,,0,0,1,,,,0,,,47,28
782336,note_on,,,,,0,0,1,,,,0,,,66,40
782336,note_off,,,,,470,0,1,,,,0,,,59,0
782336,note_off,,,,,0,0,1,,,,0,,,50,0
782848,note_on,,,,,0,0,1,,,,0,,,54,30
782848,note_on,,,,,0,0,1,,,,0,,,47,30
782848,note_on,,,,,0,0,1,,,,0,,,59,36
782848,note_off,,,,,0,0,1,,,,0,,,47,0
782848,note_off,,,,,0,0,1,,,,0,,,66,0
782848,note_off,,,,,512,0,1,,,,0,,,62,0
782848,note_on,,,,,0,0,1,,,,0,,,50,42
782848,note_off,,,,,0,0,1,,,,0,,,50,0
782848,note_off,,,,,0,0,1,,,,0,,,54,0
783360,note_on,,,,,0,0,1,,,,0,,,47,33
783360,note_off,,,,,0,0,1,,,,0,,,54,0
783360,note_off,,,,,0,0,1,,,,0,,,50,0
783360,note_off,,,,,0,0,1,,,,0,,,47,0
783360,note_off,,,,,0,0,1,,,,0,,,59,0
783360,note_off,,,,,512,0,1,,,,0,,,71,0
783360,note_on,,,,,0,0,1,,,,0,,,71,57
783360,note_on,,,,,0,0,1,,,,0,,,50,46
783360,note_on,,,,,0,0,1,,,,0,,,54,33
783872,note_on,,,,,512,0,1,,,,0,,,59,35
784384,note_on,,,,,0,0,1,,,,0,,,62,36
784384,note_off,,,,,512,0,1,,,,0,,,59,0
784384,note_on,,,,,0,0,1,,,,0,,,66,43
784384,note_off,,,,,0,0,1,,,,0,,,54,0
784384,note_off,,,,,0,0,1,,,,0,,,50,0
784384,note_off,,,,,0,0,1,,,,0,,,47,0
784384,set_tempo,,,,,2560,1,0,,500000,,,,,,
784896,note_off,,,,,0,0,1,,,,0,,,66,0
784896,note_off,,,,,512,0,1,,,,0,,,62,0
784896,set_tempo,,,,,512,1,0,,600000,,,,,,
784896,note_on,,,,,0,0,1,,,,0,,,59,38
785408,note_off,,,,,0,0,1,,,,0,,,47,0
785408,set_tempo,,,,,512,1,0,,666666,,,,,,
785408,note_on,,,,,0,0,1,,,,0,,,47,35
785408,note_on,,,,,0,0,1,,,,0,,,35,44
785408,note_on,,,,,0,0,1,,,,0,,,78,68
785408,note_on,,,,,0,0,1,,,,0,,,66,48
785408,note_off,,,,,0,0,1,,,,0,,,35,0
785408,note_off,,,,,0,0,1,,,,0,,,59,0
785408,control_change,,,,,512,0,1,,,,0,64,0,,
785408,control_change,,,,,0,0,1,,,,0,64,127,,
785408,control_change,,,,,0,0,1,,,,0,64,0,,
785408,control_change,,,,,0,0,1,,,,0,64,0,,
785408,control_change,,,,,0,0,1,,,,0,64,0,,
785408,control_change,,,,,0,0,1,,,,0,64,0,,
785408,control_change,,,,,0,0,1,,,,0,64,0,,
785408,note_off,,,,,0,0,1,,,,0,,,71,0
785408,control_change,,,,,0,0,1,,,,0,64,0,,
785408,control_change,,,,,0,0,1,,,,0,64,0,,
785408,control_change,,,,,0,0,1,,,,0,64,0,,
785408,control_change,,,,,0,0,1,,,,0,64,0,,
785666,control_change,,,,,258,0,1,,,,0,64,0,,
785920,note_on,,,,,0,0,1,,,,0,,,62,44
785920,note_on,,,,,0,0,1,,,,0,,,59,32
785920,note_on,,,,,254,0,1,,,,0,,,54,32
785920,set_tempo,,,,,512,1,0,,444444,,,,,,
785962,control_change,,,,,42,0,1,,,,0,64,127,,
786432,note_off,,,,,0,0,1,,,,0,,,59,0
786432,note_off,,,,,0,0,1,,,,0,,,62,0
786432,note_on,,,,,0,0,1,,,,0,,,59,33
786432,note_on,,,,,0,0,1,,,,0,,,62,45
786432,note_off,,,,,470,0,1,,,,0,,,54,0
786432,note_on,,,,,0,0,1,,,,0,,,54,33
786944,note_off,,,,,0,0,1,,,,0,,,59,0
786944,note_off,,,,,512,0,1,,,,0,,,54,0
786944,note_off,,,,,0,0,1,,,,0,,,62,0
786944,note_on,,,,,0,0,1,,,,0,,,54,34
786944,note_on,,,,,0,0,1,,,,0,,,59,34
786944,note_on,,,,,0,0,1,,,,0,,,62,47
787456,note_on,,,,,0,0,1,,,,0,,,66,48
787456,note_off,,,,,512,0,1,,,,0,,,54,0
787456,note_off,,,,,0,0,1,,,,0,,,59,0
787456,note_off,,,,,0,0,1,,,,0,,,62,0
787456,note_on,,,,,0,0,1,,,,0,,,54,35
787456,note_on,,,,,0,0,1,,,,0,,,62,35
788480,set_tempo,,,,,2560,1,0,,500000,,,,,,
788480,note_off,,,,,1024,0,1,,,,0,,,66,0
788480,note_off,,,,,0,0,1,,,,0,,,78,0
788480,note_off,,,,,0,0,1,,,,0,,,54,0
788480,note_off,,,,,0,0,1,,,,0,,,62,0
788480,note_off,,,,,0,0,1,,,,0,,,66,0
788480,note_on,,,,,0,0,1,,,,0,,,71,44
788480,note_on,,,,,0,0,1,,,,0,,,83,64
788480,note_on,,,,,0,0,1,,,,0,,,62,44
788480,note_on,,,,,0,0,1,,,,0,,,54,32
788480,note_on,,,,,0,0,1,,,,0,,,59,32
788992,note_off,,,,,0,0,1,,,,0,,,59,0
788992,note_off,,,,,0,0,1,,,,0,,,62,0
788992,note_off,,,,,512,0,1,,,,0,,,54,0
789504,note_on,,,,,0,0,1,,,,0,,,47,35
789504,note_on,,,,,0,0,1,,,,0,,,35,44
789504,note_on,,,,,0,0,1,,,,0,,,78,68
789504,note_off,,,,,0,0,1,,,,0,,,47,0
789504,note_off,,,,,0,0,1,,,,0,,,35,0
789504,note_off,,,,,0,0,1,,,,0,,,83,0
789504,note_off,,,,,0,0,1,,,,0,,,71,0
789504,control_change,,,,,0,0,1,,,,0,64,0,,
789504,control_change,,,,,0,0,1,,,,0,64,0,,
789504,control_change,,,,,0,0,1,,,,0,64,0,,
789504,control_change,,,,,0,0,1,,,,0,64,0,,
789504,control_change,,,,,0,0,1,,,,0,64,0,,
789504,control_change,,,,,0,0,1,,,,0,64,0,,
789504,control_change,,,,,0,0,1,,,,0,64,0,,
789504,control_change,,,,,0,0,1,,,,0,64,127,,
789504,control_change,,,,,512,0,1,,,,0,64,0,,
789504,note_on,,,,,0,0,1,,,,0,,,66,48
789504,control_change,,,,,0,0,1,,,,0,64,0,,
789504,control_change,,,,,0,0,1,,,,0,64,0,,
789762,control_change,,,,,258,0,1,,,,0,64,0,,
790016,note_on,,,,,0,0,1,,,,0,,,59,32
790016,note_on,,,,,0,0,1,,,,0,,,62,44
790016,note_on,,,,,254,0,1,,,,0,,,54,32
790016,set_tempo,,,,,1536,1,0,,444444,,,,,,
790058,control_change,,,,,42,0,1,,,,0,64,127,,
790528,note_on,,,,,0,0,1,,,,0,,,62,45
790528,note_on,,,,,0,0,1,,,,0,,,54,33
790528,note_on,,,,,0,0,1,,,,0,,,83,68
790528,note_on,,,,,0,0,1,,,,0,,,59,33
790528,note_off,,,,,0,0,1,,,,0,,,62,0
790528,note_off,,,,,0,0,1,,,,0,,,59,0
790528,note_off,,,,,0,0,1,,,,0,,,54,0
790528,note_off,,,,,0,0,1,,,,0,,,78,0
790528,note_off,,,,,470,0,1,,,,0,,,66,0
790528,note_on,,,,,0,0,1,,,,0,,,71,48
791040,note_off,,,,,512,0,1,,,,0,,,54,0
791040,note_off,,,,,0,0,1,,,,0,,,59,0
791040,note_off,,,,,0,0,1,,,,0,,,62,0
791040,note_on,,,,,0,0,1,,,,0,,,54,34
791040,note_on,,,,,0,0,1,,,,0,,,59,34
791040,note_on,,,,,0,0,1,,,,0,,,62,47
791552,note_on,,,,,0,0,1,,,,0,,,54,35
791552,set_tempo,,,,,1536,1,0,,461538,,,,,,
791552,note_on,,,,,0,0,1,,,,0,,,66,48
791552,note_on,,,,,0,0,1,,,,0,,,86,73
791552,note_on,,,,,0,0,1,,,,0,,,62,35
791552,note_off,,,,,0,0,1,,,,0,,,62,0
791552,note_on,,,,,0,0,1,,,,0,,,74,53
791552,note_off,,,,,512,0,1,,,,0,,,71,0
791552,note_off,,,,,0,0,1,,,,0,,,83,0
791552,note_off,,,,,0,0,1,,,,0,,,54,0
791552,note_off,,,,,0,0,1,,,,0,,,59,0
792576,note_off,,,,,0,0,1,,,,0,,,86,0
792576,note_off,,,,,0,0,1,,,,0,,,54,0
792576,note_off,,,,,0,0,1,,,,0,,,62,0
792576,note_off,,,,,0,0,1,,,,0,,,66,0
792576,note_on,,,,,0,0,1,,,,0,,,85,68
792576,note_on,,,,,0,0,1,,,,0,,,54,32
792576,note_on,,,,,0,0,1,,,,0,,,61,32
792576,note_on,,,,,0,0,1,,,,0,,,64,44
792576,set_tempo,,,,,1024,1,0,,480000,,,,,,
792576,note_off,,,,,1024,0,1,,,,0,,,74,0
792576,note_on,,,,,0,0,1,,,,0,,,73,48
793088,note_off,,,,,0,0,1,,,,0,,,85,0
793088,note_on,,,,,0,0,1,,,,0,,,82,65
793088,note_on,,,,,0,0,1,,,,0,,,70,45
793088,note_off,,,,,512,0,1,,,,0,,,73,0
793600,note_on,,,,,0,0,1,,,,0,,,83,68
793600,note_on,,,,,0,0,1,,,,0,,,71,48
793600,note_off,,,,,0,0,1,,,,0,,,64,0
793600,note_off,,,,,0,0,1,,,,0,,,61,0
793600,note_off,,,,,0,0,1,,,,0,,,54,0
793600,note_off,,,,,0,0,1,,,,0,,,47,0
793600,note_off,,,,,0,0,1,,,,0,,,35,0
793600,note_on,,,,,0,0,1,,,,0,,,47,44
793600,note_off,,,,,0,0,1,,,,0,,,82,0
793600,note_off,,,,,0,0,1,,,,0,,,70,0
793600,control_change,,,,,0,0,1,,,,0,64,0,,
793600,control_change,,,,,512,0,1,,,,0,64,0,,
793600,control_change,,,,,0,0,1,,,,0,64,127,,
793600,control_change,,,,,0,0,1,,,,0,64,0,,
793600,control_change,,,,,0,0,1,,,,0,64,0,,
793600,control_change,,,,,0,0,1,,,,0,64,0,,
793600,control_change,,,,,0,0,1,,,,0,64,0,,
793600,control_change,,,,,0,0,1,,,,0,64,0,,
793600,control_change,,,,,0,0,1,,,,0,64,0,,
793600,control_change,,,,,0,0,1,,,,0,64,0,,
793600,control_change,,,,,0,0,1,,,,0,64,0,,
793600,control_change,,,,,0,0,1,,,,0,64,0,,
793858,control_change,,,,,258,0,1,,,,0,64,0,,
794112,note_on,,,,,0,0,1,,,,0,,,62,44
794112,set_tempo,,,,,1536,1,0,,444444,,,,,,
794112,note_on,,,,,254,0,1,,,,0,,,54,32
794112,note_on,,,,,0,0,1,,,,0,,,59,32
794154,control_change,,,,,42,0,1,,,,0,64,127,,
794624,note_off,,,,,470,0,1,,,,0,,,54,0
794624,note_off,,,,,0,0,1,,,,0,,,59,0
794624,note_off,,,,,0,0,1,,,,0,,,62,0
794624,note_on,,,,,0,0,1,,,,0,,,54,33
794624,note_on,,,,,0,0,1,,,,0,,,62,45
794624,note_on,,,,,0,0,1,,,,0,,,59,33
795136,note_off,,,,,512,0,1,,,,0,,,54,0
795136,note_off,,,,,0,0,1,,,,0,,,59,0
795136,note_off,,,,,0,0,1,,,,0,,,62,0
795136,note_on,,,,,0,0,1,,,,0,,,54,34
795136,note_on,,,,,0,0,1,,,,0,,,59,34
795136,note_on,,,,,0,0,1,,,,0,,,62,47
795648,note_on,,,,,0,0,1,,,,0,,,62,35
795648,note_on,,,,,0,0,1,,,,0,,,66,48
795648,note_on,,,,,0,0,1,,,,0,,,54,35
795648,note_off,,,,,0,0,1,,,,0,,,62,0
795648,note_off,,,,,512,0,1,,,,0,,,54,0
795648,note_off,,,,,0,0,1,,,,0,,,59,0
796416,note_off,,,,,768,0,1,,,,0,,,71,0
796416,note_off,,,,,0,0,1,,,,0,,,83,0
796416,note_on,,,,,0,0,1,,,,0,,,78,59
796672,note_on,,,,,0,0,1,,,,0,,,62,44
796672,note_off,,,,,0,0,1,,,,0,,,66,0
796672,set_tempo,,,,,2560,1,0,,705882,,,,,,
796672,note_off,,,,,256,0,1,,,,0,,,78,0
796672,note_on,,,,,0,0,1,,,,0,,,78,60
796672,note_on,,,,,0,0,1,,,,0,,,54,32
796672,note_on,,,,,0,0,1,,,,0,,,59,32
796672,note_off,,,,,0,0,1,,,,0,,,62,0
796672,note_off,,,,,0,0,1,,,,0,,,54,0
796757,note_on,,,,,0,0,1,,,,0,,,79,50
796757,note_off,,,,,85,0,1,,,,0,,,78,0
796843,note_on,,,,,0,0,1,,,,0,,,78,44
796843,note_off,,,,,86,0,1,,,,0,,,79,0
796928,note_on,,,,,0,0,1,,,,0,,,79,49
796928,note_off,,,,,85,0,1,,,,0,,,78,0
797056,note_off,,,,,128,0,1,,,,0,,,79,0
797056,note_on,,,,,0,0,1,,,,0,,,78,47
797056,set_tempo,,,,,384,1,0,,600000,,,,,,
797184,note_off,,,,,128,0,1,,,,0,,,78,0
797184,note_on,,,,,0,0,1,,,,0,,,79,49
797184,note_off,,,,,0,0,1,,,,0,,,54,0
797184,note_off,,,,,0,0,1,,,,0,,,59,0
797184,note_off,,,,,0,0,1,,,,0,,,62,0
797312,note_on,,,,,0,0,1,,,,0,,,78,49
797312,note_off,,,,,128,0,1,,,,0,,,79,0
797440,note_off,,,,,128,0,1,,,,0,,,78,0
797440,note_on,,,,,0,0,1,,,,0,,,77,45
797568,note_off,,,,,128,0,1,,,,0,,,77,0
797568,note_on,,,,,0,0,1,,,,0,,,78,44
797696,control_change,,,,,0,0,1,,,,0,64,0,,
797696,control_change,,,,,0,0,1,,,,0,64,0,,
797696,control_change,,,,,0,0,1,,,,0,64,0,,
797696,note_off,,,,,0,0,1,,,,0,,,78,0
797696,set_tempo,,,,,640,1,0,,461538,,,,,,
797696,control_change,,,,,0,0,1,,,,0,64,0,,
797696,note_on,,,,,0,0,1,,,,0,,,83,68
797696,note_on,,,,,0,0,1,,,,0,,,43,44
797696,note_off,,,,,0,0,1,,,,0,,,47,0
797696,control_change,,,,,0,0,1,,,,0,64,0,,
797696,note_on,,,,,0,0,1,,,,0,,,71,48
797696,control_change,,,,,0,0,1,,,,0,64,0,,
797696,control_change,,,,,128,0,1,,,,0,64,0,,
797696,control_change,,,,,0,0,1,,,,0,64,127,,
797696,control_change,,,,,0,0,1,,,,0,64,0,,
797696,control_change,,,,,0,0,1,,,,0,64,0,,
797696,control_change,,,,,0,0,1,,,,0,64,0,,
797696,control_change,,,,,0,0,1,,,,0,64,0,,
797696,control_change,,,,,0,0,1,,,,0,64,0,,
797954,control_change,,,,,258,0,1,,,,0,64,0,,
798208,note_on,,,,,254,0,1,,,,0,,,55,32
798208,note_on,,,,,0,0,1,,,,0,,,59,32
798208,note_on,,,,,0,0,1,,,,0,,,62,44
798250,control_change,,,,,42,0,1,,,,0,64,127,,
798720,note_on,,,,,0,0,1,,,,0,,,62,45
798720,note_on,,,,,0,0,1,,,,0,,,62,43
798720,note_on,,,,,0,0,1,,,,0,,,55,33
798720,note_on,,,,,0,0,1,,,,0,,,74,63
798720,note_on,,,,,0,0,1,,,,0,,,59,33
798720,note_off,,,,,0,0,1,,,,0,,,62,0
798720,note_off,,,,,0,0,1,,,,0,,,55,0
798720,note_off,,,,,0,0,1,,,,0,,,83,0
798720,note_off,,,,,470,0,1,,,,0,,,71,0
798720,note_off,,,,,0,0,1,,,,0,,,59,0
799232,note_on,,,,,0,0,1,,,,0,,,62,47
799232,note_on,,,,,0,0,1,,,,0,,,59,34
799232,note_off,,,,,0,0,1,,,,0,,,62,0
799232,note_on,,,,,0,0,1,,,,0,,,55,34
799232,note_off,,,,,512,0,1,,,,0,,,55,0
799232,note_off,,,,,0,0,1,,,,0,,,59,0
799488,note_off,,,,,256,0,1,,,,0,,,62,0
799488,note_off,,,,,0,0,1,,,,0,,,74,0
799488,note_on,,,,,0,0,1,,,,0,,,64,46
799488,note_on,,,,,0,0,1,,,,0,,,76,66
799744,note_on,,,,,0,0,1,,,,0,,,55,35
799744,note_on,,,,,0,0,1,,,,0,,,59,35
799744,note_on,,,,,0,0,1,,,,0,,,62,48
799744,note_on,,,,,0,0,1,,,,0,,,78,68
799744,note_on,,,,,0,0,1,,,,0,,,66,48
799744,note_off,,,,,0,0,1,,,,0,,,62,0
799744,note_off,,,,,0,0,1,,,,0,,,43,0
799744,note_off,,,,,0,0,1,,,,0,,,55,0
799744,set_tempo,,,,,2048,1,0,,545454,,,,,,
799744,note_off,,,,,0,0,1,,,,0,,,59,0
799744,note_off,,,,,0,0,1,,,,0,,,76,0
799744,note_off,,,,,256,0,1,,,,0,,,64,0
799826,control_change,,,,,82,0,1,,,,0,64,0,,
800154,control_change,,,,,328,0,1,,,,0,64,127,,
800768,note_on,,,,,0,0,1,,,,0,,,59,25
800768,note_on,,,,,0,0,1,,,,0,,,62,37
800768,note_on,,,,,0,0,1,,,,0,,,53,25
800768,note_on,,,,,0,0,1,,,,0,,,67,43
800768,note_off,,,,,0,0,1,,,,0,,,62,0
800768,note_on,,,,,0,0,1,,,,0,,,79,66
800768,note_off,,,,,0,0,1,,,,0,,,55,0
800768,note_off,,,,,0,0,1,,,,0,,,78,0
800768,note_off,,,,,614,0,1,,,,0,,,66,0
800768,set_tempo,,,,,1024,1,0,,500000,,,,,,
800768,note_off,,,,,0,0,1,,,,0,,,59,0
800891,control_change,,,,,123,0,1,,,,0,64,0,,
801300,control_change,,,,,409,0,1,,,,0,64,127,,
801792,control_change,,,,,0,0,1,,,,0,64,0,,
801792,note_off,,,,,0,0,1,,,,0,,,67,0
801792,note_off,,,,,0,0,1,,,,0,,,79,0
801792,note_off,,,,,0,0,1,,,,0,,,53,0
801792,note_on,,,,,0,0,1,,,,0,,,66,42
801792,note_off,,,,,0,0,1,,,,0,,,62,0
801792,note_on,,,,,0,0,1,,,,0,,,78,62
801792,control_change,,,,,0,0,1,,,,0,64,0,,
801792,note_off,,,,,0,0,1,,,,0,,,59,0
801792,note_on,,,,,0,0,1,,,,0,,,42,36
801792,control_change,,,,,0,0,1,,,,0,64,0,,
801792,control_change,,,,,0,0,1,,,,0,64,0,,
801792,control_change,,,,,0,0,1,,,,0,64,0,,
801792,control_change,,,,,0,0,1,,,,0,64,0,,
801792,control_change,,,,,0,0,1,,,,0,64,0,,
801792,control_change,,,,,0,0,1,,,,0,64,0,,
801792,control_change,,,,,0,0,1,,,,0,64,0,,
801792,control_change,,,,,0,0,1,,,,0,64,0,,
801792,control_change,,,,,0,0,1,,,,0,64,127,,
801792,control_change,,,,,492,0,1,,,,0,64,0,,
801792,control_change,,,,,0,0,1,,,,0,64,0,,
802050,control_change,,,,,258,0,1,,,,0,64,0,,
802304,set_tempo,,,,,1536,1,0,,480000,,,,,,
802304,note_on,,,,,0,0,1,,,,0,,,62,36
802304,note_on,,,,,254,0,1,,,,0,,,54,24
802304,note_on,,,,,0,0,1,,,,0,,,59,24
802346,control_change,,,,,42,0,1,,,,0,64,127,,
802816,note_off,,,,,470,0,1,,,,0,,,54,0
802816,note_off,,,,,0,0,1,,,,0,,,59,0
802816,note_off,,,,,0,0,1,,,,0,,,62,0
802816,note_on,,,,,0,0,1,,,,0,,,54,24
802816,note_on,,,,,0,0,1,,,,0,,,59,24
802816,note_on,,,,,0,0,1,,,,0,,,62,36
803328,note_off,,,,,512,0,1,,,,0,,,54,0
803328,note_off,,,,,0,0,1,,,,0,,,59,0
803328,note_on,,,,,0,0,1,,,,0,,,59,24
803328,note_off,,,,,0,0,1,,,,0,,,62,0
803328,note_on,,,,,0,0,1,,,,0,,,54,24
803328,note_on,,,,,0,0,1,,,,0,,,62,36
803840,note_off,,,,,0,0,1,,,,0,,,62,0
803840,note_off,,,,,0,0,1,,,,0,,,54,0
803840,note_on,,,,,0,0,1,,,,0,,,61,36
803840,note_on,,,,,0,0,1,,,,0,,,58,24
803840,control_change,,,,,512,0,1,,,,0,64,0,,
803840,note_off,,,,,0,0,1,,,,0,,,59,0
803840,note_on,,,,,0,0,1,,,,0,,,54,24
804226,control_change,,,,,386,0,1,,,,0,64,127,,
804864,note_on,,,,,0,0,1,,,,0,,,65,46
804864,note_off,,,,,0,0,1,,,,0,,,61,0
804864,note_on,,,,,0,0,1,,,,0,,,77,63
804864,note_off,,,,,0,0,1,,,,0,,,54,0
804864,note_off,,,,,0,0,1,,,,0,,,78,0
804864,note_off,,,,,638,0,1,,,,0,,,66,0
804864,note_off,,,,,0,0,1,,,,0,,,58,0
805888,control_change,,,,,0,0,1,,,,0,64,0,,
805888,note_on,,,,,0,0,1,,,,0,,,46,42
805888,note_on,,,,,0,0,1,,,,0,,,34,30
805888,note_on,,,,,0,0,1,,,,0,,,78,66
805888,note_on,,,,,0,0,1,,,,0,,,66,50
805888,note_off,,,,,0,0,1,,,,0,,,42,0
805888,note_off,,,,,0,0,1,,,,0,,,77,0
805888,note_off,,,,,0,0,1,,,,0,,,65,0
805888,control_change,,,,,0,0,1,,,,0,64,0,,
805888,control_change,,,,,0,0,1,,,,0,64,0,,
805888,set_tempo,,,,,3584,1,0,,666666,,,,,,
805888,control_change,,,,,0,0,1,,,,0,64,0,,
805888,control_change,,,,,0,0,1,,,,0,64,0,,
805888,control_change,,,,,0,0,1,,,,0,64,0,,
805888,control_change,,,,,0,0,1,,,,0,64,0,,
805888,control_change,,,,,0,0,1,,,,0,64,0,,
805888,control_change,,,,,0,0,1,,,,0,64,0,,
805888,control_change,,,,,0,0,1,,,,0,64,0,,
805888,control_change,,,,,0,0,1,,,,0,64,0,,
805888,control_change,,,,,0,0,1,,,,0,64,127,,
805888,control_change,,,,,1024,0,1,,,,0,64,0,,
805888,control_change,,,,,0,0,1,,,,0,64,0,,
806146,control_change,,,,,258,0,1,,,,0,64,0,,
806400,set_tempo,,,,,512,1,0,,444444,,,,,,
806400,note_on,,,,,254,0,1,,,,0,,,46,18
806400,note_on,,,,,0,0,1,,,,0,,,49,30
806442,control_change,,,,,42,0,1,,,,0,64,127,,
806912,note_on,,,,,0,0,1,,,,0,,,46,19
806912,note_on,,,,,0,0,1,,,,0,,,73,60
806912,note_on,,,,,0,0,1,,,,0,,,49,31
806912,note_off,,,,,0,0,1,,,,0,,,49,0
806912,note_off,,,,,0,0,1,,,,0,,,46,0
806912,note_off,,,,,470,0,1,,,,0,,,66,0
806912,note_on,,,,,0,0,1,,,,0,,,61,44
806912,note_off,,,,,0,0,1,,,,0,,,78,0
807424,note_off,,,,,512,0,1,,,,0,,,46,0
807424,note_off,,,,,0,0,1,,,,0,,,49,0
807424,note_on,,,,,0,0,1,,,,0,,,46,20
807424,note_on,,,,,0,0,1,,,,0,,,49,32
807936,note_on,,,,,0,0,1,,,,0,,,46,27
807936,set_tempo,,,,,1536,1,0,,500000,,,,,,
807936,note_on,,,,,0,0,1,,,,0,,,54,39
807936,note_on,,,,,0,0,1,,,,0,,,78,65
807936,note_off,,,,,0,0,1,,,,0,,,49,0
807936,note_off,,,,,0,0,1,,,,0,,,46,0
807936,note_off,,,,,0,0,1,,,,0,,,73,0
807936,note_off,,,,,0,0,1,,,,0,,,61,0
807936,control_change,,,,,512,0,1,,,,0,64,0,,
807936,note_on,,,,,0,0,1,,,,0,,,66,49
808322,control_change,,,,,386,0,1,,,,0,64,127,,
808960,note_off,,,,,638,0,1,,,,0,,,66,0
808960,note_off,,,,,0,0,1,,,,0,,,78,0
808960,note_off,,,,,0,0,1,,,,0,,,46,0
808960,note_off,,,,,0,0,1,,,,0,,,54,0
808960,note_on,,,,,0,0,1,,,,0,,,64,48
808960,note_on,,,,,0,0,1,,,,0,,,76,64
808960,note_on,,,,,0,0,1,,,,0,,,46,31
808960,note_on,,,,,0,0,1,,,,0,,,55,43
808960,set_tempo,,,,,1024,1,0,,545454,,,,,,
809135,control_change,,,,,175,0,1,,,,0,64,0,,
809394,control_change,,,,,259,0,1,,,,0,64,127,,
809472,note_on,,,,,0,0,1,,,,0,,,73,61
809472,note_off,,,,,0,0,1,,,,0,,,76,0
809472,note_on,,,,,0,0,1,,,,0,,,61,45
809472,note_off,,,,,78,0,1,,,,0,,,64,0
809984,note_on,,,,,0,0,1,,,,0,,,35,29
809984,control_change,,,,,0,0,1,,,,0,64,0,,
809984,control_change,,,,,0,0,1,,,,0,64,0,,
809984,control_change,,,,,0,0,1,,,,0,64,0,,
809984,control_change,,,,,0,0,1,,,,0,64,0,,
809984,control_change,,,,,0,0,1,,,,0,64,0,,
809984,note_off,,,,,0,0,1,,,,0,,,61,0
809984,note_off,,,,,0,0,1,,,,0,,,73,0
809984,control_change,,,,,0,0,1,,,,0,64,0,,
809984,note_off,,,,,0,0,1,,,,0,,,46,0
809984,note_off,,,,,0,0,1,,,,0,,,46,0
809984,note_off,,,,,0,0,1,,,,0,,,55,0
809984,note_on,,,,,0,0,1,,,,0,,,62,41
809984,note_on,,,,,0,0,1,,,,0,,,74,57
809984,note_on,,,,,0,0,1,,,,0,,,47,41
809984,note_off,,,,,0,0,1,,,,0,,,34,0
809984,control_change,,,,,0,0,1,,,,0,64,0,,
809984,control_change,,,,,0,0,1,,,,0,64,0,,
809984,control_change,,,,,512,0,1,,,,0,64,0,,
809984,control_change,,,,,0,0,1,,,,0,64,127,,
809984,control_change,,,,,0,0,1,,,,0,64,0,,
809984,control_change,,,,,0,0,1,,,,0,64,0,,
809984,control_change,,,,,0,0,1,,,,0,64,0,,
809984,control_change,,,,,0,0,1,,,,0,64,0,,
809984,control_change,,,,,0,0,1,,,,0,64,0,,
809984,control_change,,,,,0,0,1,,,,0,64,0,,
809984,control_change,,,,,0,0,1,,,,0,64,0,,
809984,control_change,,,,,0,0,1,,,,0,64,0,,
809984,control_change,,,,,0,0,1,,,,0,64,0,,
809984,control_change,,,,,0,0,1,,,,0,64,0,,
809984,control_change,,,,,0,0,1,,,,0,64,0,,
809984,control_change,,,,,0,0,1,,,,0,64,127,,
809984,control_change,,,,,0,0,1,,,,0,64,0,,
809984,control_change,,,,,0,0,1,,,,0,64,0,,
809984,control_change,,,,,0,0,1,,,,0,64,0,,
809984,control_change,,,,,0,0,1,,,,0,64,0,,
810242,control_change,,,,,0,0,1,,,,0,64,0,,
810242,control_change,,,,,258,0,1,,,,0,64,0,,
810496,set_tempo,,,,,1536,1,0,,444444,,,,,,
810496,note_on,,,,,254,0,1,,,,0,,,47,17
810496,note_on,,,,,0,0,1,,,,0,,,50,29
810538,control_change,,,,,42,0,1,,,,0,64,127,,
810538,control_change,,,,,0,0,1,,,,0,64,127,,
811008,note_off,,,,,470,0,1,,,,0,,,47,0
811008,note_off,,,,,0,0,1,,,,0,,,50,0
811008,note_on,,,,,0,0,1,,,,0,,,47,17
811008,note_on,,,,,0,0,1,,,,0,,,50,29
811520,note_off,,,,,0,0,1,,,,0,,,50,0
811520,note_off,,,,,512,0,1,,,,0,,,47,0
811520,note_on,,,,,0,0,1,,,,0,,,50,29
811520,note_on,,,,,0,0,1,,,,0,,,47,17
812032,note_off,,,,,0,0,1,,,,0,,,47,0
812032,note_off,,,,,0,0,1,,,,0,,,74,0
812032,set_tempo,,,,,1536,1,0,,545454,,,,,,
812032,control_change,,,,,512,0,1,,,,0,64,0,,
812032,note_off,,,,,0,0,1,,,,0,,,62,0
812032,note_off,,,,,0,0,1,,,,0,,,50,0
812032,note_on,,,,,0,0,1,,,,0,,,54,29
812032,note_on,,,,,0,0,1,,,,0,,,59,39
812032,note_on,,,,,0,0,1,,,,0,,,71,54
812032,note_on,,,,,0,0,1,,,,0,,,50,17
812418,control_change,,,,,386,0,1,,,,0,64,127,,
812544,note_off,,,,,126,0,1,,,,0,,,59,0
812544,note_off,,,,,0,0,1,,,,0,,,71,0
812544,note_on,,,,,0,0,1,,,,0,,,61,42
812544,note_on,,,,,0,0,1,,,,0,,,73,57
812544,set_tempo,,,,,512,1,0,,461538,,,,,,
813056,note_on,,,,,0,0,1,,,,0,,,74,61
813056,note_on,,,,,0,0,1,,,,0,,,47,17
813056,note_on,,,,,0,0,1,,,,0,,,62,46
813056,note_off,,,,,0,0,1,,,,0,,,54,0
813056,note_off,,,,,0,0,1,,,,0,,,50,0
813056,note_off,,,,,512,0,1,,,,0,,,61,0
813056,note_on,,,,,0,0,1,,,,0,,,50,29
813056,note_off,,,,,0,0,1,,,,0,,,73,0
813231,control_change,,,,,175,0,1,,,,0,64,0,,
813490,control_change,,,,,259,0,1,,,,0,64,127,,
813568,note_off,,,,,0,0,1,,,,0,,,74,0
813568,note_off,,,,,78,0,1,,,,0,,,62,0
813568,note_on,,,,,0,0,1,,,,0,,,64,49
813568,note_on,,,,,0,0,1,,,,0,,,76,64
814080,control_change,,,,,0,0,1,,,,0,64,0,,
814080,note_on,,,,,0,0,1,,,,0,,,46,42
814080,control_change,,,,,0,0,1,,,,0,64,0,,
814080,note_on,,,,,0,0,1,,,,0,,,34,30
814080,note_on,,,,,0,0,1,,,,0,,,78,70
814080,note_off,,,,,0,0,1,,,,0,,,64,0
814080,note_off,,,,,0,0,1,,,,0,,,76,0
814080,note_off,,,,,0,0,1,,,,0,,,35,0
814080,note_off,,,,,0,0,1,,,,0,,,47,0
814080,note_off,,,,,0,0,1,,,,0,,,47,0
814080,note_off,,,,,0,0,1,,,,0,,,50,0
814080,note_on,,,,,0,0,1,,,,0,,,66,54
814080,control_change,,,,,0,0,1,,,,0,64,0,,
814080,control_change,,,,,0,0,1,,,,0,64,0,,
814080,set_tempo,,,,,1536,1,0,,666666,,,,,,
814080,control_change,,,,,0,0,1,,,,0,64,0,,
814080,control_change,,,,,512,0,1,,,,0,64,0,,
814080,control_change,,,,,0,0,1,,,,0,64,0,,
814080,control_change,,,,,0,0,1,,,,0,64,0,,
814080,control_change,,,,,0,0,1,,,,0,64,0,,
814080,control_change,,,,,0,0,1,,,,0,64,0,,
814080,control_change,,,,,0,0,1,,,,0,64,0,,
814080,control_change,,,,,0,0,1,,,,0,64,0,,
814080,control_change,,,,,0,0,1,,,,0,64,0,,
814080,control_change,,,,,0,0,1,,,,0,64,0,,
814080,control_change,,,,,0,0,1,,,,0,64,127,,
814080,control_change,,,,,0,0,1,,,,0,64,0,,
814338,control_change,,,,,258,0,1,,,,0,64,0,,
814592,set_tempo,,,,,512,1,0,,444444,,,,,,
814592,note_on,,,,,254,0,1,,,,0,,,46,18
814592,note_on,,,,,0,0,1,,,,0,,,49,30
814634,control_change,,,,,42,0,1,,,,0,64,127,,
815104,note_on,,,,,0,0,1,,,,0,,,46,19
815104,note_on,,,,,0,0,1,,,,0,,,49,31
815104,note_on,,,,,0,0,1,,,,0,,,61,50
815104,note_off,,,,,0,0,1,,,,0,,,49,0
815104,note_off,,,,,0,0,1,,,,0,,,46,0
815104,note_on,,,,,0,0,1,,,,0,,,73,66
815104,note_off,,,,,470,0,1,,,,0,,,66,0
815104,note_off,,,,,0,0,1,,,,0,,,78,0
815616,note_on,,,,,0,0,1,,,,0,,,49,32
815616,note_off,,,,,512,0,1,,,,0,,,46,0
815616,note_off,,,,,0,0,1,,,,0,,,49,0
815616,note_on,,,,,0,0,1,,,,0,,,46,20
816128,note_off,,,,,0,0,1,,,,0,,,46,0
816128,note_off,,,,,0,0,1,,,,0,,,49,0
816128,note_on,,,,,0,0,1,,,,0,,,46,27
816128,note_off,,,,,0,0,1,,,,0,,,73,0
816128,set_tempo,,,,,1536,1,0,,521739,,,,,,
816128,note_on,,,,,0,0,1,,,,0,,,78,71
816128,note_on,,,,,0,0,1,,,,0,,,66,55
816128,note_on,,,,,0,0,1,,,,0,,,54,39
816128,control_change,,,,,512,0,1,,,,0,64,0,,
816128,note_off,,,,,0,0,1,,,,0,,,61,0
816514,control_change,,,,,386,0,1,,,,0,64,127,,
817152,note_on,,,,,0,0,1,,,,0,,,76,66
817152,note_on,,,,,0,0,1,,,,0,,,46,31
817152,note_off,,,,,0,0,1,,,,0,,,54,0
817152,note_off,,,,,0,0,1,,,,0,,,46,0
817152,note_off,,,,,0,0,1,,,,0,,,78,0
817152,note_off,,,,,638,0,1,,,,0,,,66,0
817152,set_tempo,,,,,1024,1,0,,571428,,,,,,
817152,note_on,,,,,0,0,1,,,,0,,,64,50
817152,note_on,,,,,0,0,1,,,,0,,,55,43
817327,control_change,,,,,175,0,1,,,,0,64,0,,
817586,control_change,,,,,259,0,1,,,,0,64,127,,
817664,note_on,,,,,0,0,1,,,,0,,,73,63
817664,note_on,,,,,0,0,1,,,,0,,,61,47
817664,note_off,,,,,0,0,1,,,,0,,,76,0
817664,note_off,,,,,78,0,1,,,,0,,,64,0
817664,set_tempo,,,,,512,1,0,,545454,,,,,,
818176,note_on,,,,,0,0,1,,,,0,,,35,29
818176,control_change,,,,,0,0,1,,,,0,64,0,,
818176,control_change,,,,,0,0,1,,,,0,64,0,,
818176,control_change,,,,,0,0,1,,,,0,64,0,,
818176,control_change,,,,,0,0,1,,,,0,64,0,,
818176,control_change,,,,,0,0,1,,,,0,64,0,,
818176,control_change,,,,,0,0,1,,,,0,64,0,,
818176,control_change,,,,,0,0,1,,,,0,64,0,,
818176,control_change,,,,,0,0,1,,,,0,64,0,,
818176,control_change,,,,,0,0,1,,,,0,64,0,,
818176,note_off,,,,,0,0,1,,,,0,,,61,0
818176,control_change,,,,,0,0,1,,,,0,64,0,,
818176,control_change,,,,,0,0,1,,,,0,64,0,,
818176,note_off,,,,,0,0,1,,,,0,,,73,0
818176,note_off,,,,,0,0,1,,,,0,,,34,0
818176,note_off,,,,,0,0,1,,,,0,,,46,0
818176,note_off,,,,,0,0,1,,,,0,,,46,0
818176,note_on,,,,,0,0,1,,,,0,,,62,43
818176,note_on,,,,,0,0,1,,,,0,,,74,59
818176,note_on,,,,,0,0,1,,,,0,,,47,41
818176,control_change,,,,,0,0,1,,,,0,64,0,,
818176,control_change,,,,,0,0,1,,,,0,64,127,,
818176,note_off,,,,,0,0,1,,,,0,,,55,0
818176,control_change,,,,,0,0,1,,,,0,64,0,,
818176,control_change,,,,,0,0,1,,,,0,64,0,,
818176,control_change,,,,,0,0,1,,,,0,64,127,,
818176,control_change,,,,,0,0,1,,,,0,64,0,,
818176,control_change,,,,,0,0,1,,,,0,64,0,,
818176,control_change,,,,,512,0,1,,,,0,64,0,,
818176,control_change,,,,,0,0,1,,,,0,64,0,,
818176,control_change,,,,,0,0,1,,,,0,64,0,,
818176,control_change,,,,,0,0,1,,,,0,64,0,,
818176,control_change,,,,,0,0,1,,,,0,64,0,,
818176,control_change,,,,,0,0,1,,,,0,64,0,,
818176,control_change,,,,,0,0,1,,,,0,64,0,,
818176,control_change,,,,,0,0,1,,,,0,64,0,,
818176,control_change,,,,,0,0,1,,,,0,64,0,,
818176,control_change,,,,,0,0,1,,,,0,64,0,,
818434,control_change,,,,,258,0,1,,,,0,64,0,,
818434,control_change,,,,,0,0,1,,,,0,64,0,,
818688,set_tempo,,,,,1024,1,0,,444444,,,,,,
818688,note_on,,,,,0,0,1,,,,0,,,50,38
818688,note_on,,,,,254,0,1,,,,0,,,47,26
818730,control_change,,,,,42,0,1,,,,0,64,127,,
818730,control_change,,,,,0,0,1,,,,0,64,127,,
819200,note_off,,,,,0,0,1,,,,0,,,50,0
819200,note_on,,,,,0,0,1,,,,0,,,50,38
819200,note_off,,,,,470,0,1,,,,0,,,47,0
819200,note_on,,,,,0,0,1,,,,0,,,47,26
819712,note_on,,,,,0,0,1,,,,0,,,50,38
819712,note_on,,,,,0,0,1,,,,0,,,47,26
819712,note_off,,,,,0,0,1,,,,0,,,50,0
819712,note_off,,,,,512,0,1,,,,0,,,47,0
820224,note_on,,,,,0,0,1,,,,0,,,54,43
820224,note_on,,,,,0,0,1,,,,0,,,50,31
820224,note_off,,,,,0,0,1,,,,0,,,50,0
820224,note_off,,,,,0,0,1,,,,0,,,47,0
820224,control_change,,,,,512,0,1,,,,0,64,0,,
820610,control_change,,,,,386,0,1,,,,0,64,127,,
820992,note_on,,,,,0,0,1,,,,0,,,71,56
820992,set_tempo,,,,,2304,1,0,,500000,,,,,,
820992,note_off,,,,,0,0,1,,,,0,,,74,0
820992,note_off,,,,,382,0,1,,,,0,,,62,0
821248,note_on,,,,,0,0,1,,,,0,,,47,26
821248,note_on,,,,,0,0,1,,,,0,,,71,62
821248,note_off,,,,,256,0,1,,,,0,,,71,0
821248,note_off,,,,,0,0,1,,,,0,,,50,0
821248,note_off,,,,,0,0,1,,,,0,,,54,0
821248,set_tempo,,,,,256,1,0,,705882,,,,,,
821248,note_on,,,,,0,0,1,,,,0,,,50,38
821258,control_change,,,,,10,0,1,,,,0,64,127,,
821333,note_on,,,,,0,0,1,,,,0,,,73,43
821333,note_off,,,,,75,0,1,,,,0,,,71,0
821419,note_on,,,,,0,0,1,,,,0,,,71,46
821419,note_off,,,,,86,0,1,,,,0,,,73,0
821504,note_off,,,,,85,0,1,,,,0,,,71,0
821504,note_on,,,,,0,0,1,,,,0,,,73,46
821632,note_on,,,,,0,0,1,,,,0,,,71,45
821632,note_off,,,,,128,0,1,,,,0,,,73,0
821760,note_on,,,,,0,0,1,,,,0,,,73,42
821760,note_off,,,,,128,0,1,,,,0,,,71,0
821760,set_tempo,,,,,512,1,0,,600000,,,,,,
821888,note_on,,,,,0,0,1,,,,0,,,71,48
821888,note_off,,,,,128,0,1,,,,0,,,73,0
822016,note_off,,,,,128,0,1,,,,0,,,71,0
822016,note_on,,,,,0,0,1,,,,0,,,70,47
822144,note_on,,,,,0,0,1,,,,0,,,71,44
822144,note_off,,,,,128,0,1,,,,0,,,70,0
822272,note_off,,,,,0,0,1,,,,0,,,47,0
822272,note_off,,,,,0,0,1,,,,0,,,71,0
822272,note_off,,,,,0,0,1,,,,0,,,50,0
822272,note_on,,,,,0,0,1,,,,0,,,64,52
822272,note_on,,,,,0,0,1,,,,0,,,76,65
822272,note_on,,,,,0,0,1,,,,0,,,31,38
822272,note_off,,,,,0,0,1,,,,0,,,47,0
822272,note_off,,,,,0,0,1,,,,0,,,35,0
822272,set_tempo,,,,,512,1,0,,500000,,,,,,
822272,control_change,,,,,0,0,1,,,,0,64,127,,
822272,control_change,,,,,128,0,1,,,,0,64,0,,
822373,control_change,,,,,101,0,1,,,,0,64,0,,
822556,control_change,,,,,183,0,1,,,,0,64,127,,
822784,note_on,,,,,228,0,1,,,,0,,,43,20
822784,note_on,,,,,0,0,1,,,,0,,,47,30
823296,note_on,,,,,0,0,1,,,,0,,,47,28
823296,note_on,,,,,0,0,1,,,,0,,,43,19
823296,note_on,,,,,0,0,1,,,,0,,,74,59
823296,note_off,,,,,0,0,1,,,,0,,,47,0
823296,note_off,,,,,0,0,1,,,,0,,,43,0
823296,note_on,,,,,0,0,1,,,,0,,,62,46
823296,note_off,,,,,512,0,1,,,,0,,,64,0
823296,note_off,,,,,0,0,1,,,,0,,,76,0
823326,control_change,,,,,30,0,1,,,,0,64,0,,
823509,control_change,,,,,183,0,1,,,,0,64,127,,
823808,note_on,,,,,0,0,1,,,,0,,,47,27
823808,note_on,,,,,0,0,1,,,,0,,,43,18
823808,note_off,,,,,0,0,1,,,,0,,,47,0
823808,note_off,,,,,299,0,1,,,,0,,,43,0
824064,note_off,,,,,256,0,1,,,,0,,,62,0
824064,note_off,,,,,0,0,1,,,,0,,,74,0
824064,note_on,,,,,0,0,1,,,,0,,,61,42
824064,note_on,,,,,0,0,1,,,,0,,,73,55
824320,note_on,,,,,0,0,1,,,,0,,,43,17
824320,note_on,,,,,0,0,1,,,,0,,,70,60
824320,note_off,,,,,0,0,1,,,,0,,,47,0
824320,note_on,,,,,0,0,1,,,,0,,,58,46
824320,note_on,,,,,0,0,1,,,,0,,,47,25
824320,note_off,,,,,0,0,1,,,,0,,,43,0
824320,set_tempo,,,,,2048,1,0,,545454,,,,,,
824320,note_off,,,,,256,0,1,,,,0,,,61,0
824320,note_off,,,,,0,0,1,,,,0,,,73,0
824340,control_change,,,,,20,0,1,,,,0,64,0,,
824563,control_change,,,,,223,0,1,,,,0,64,127,,
825344,note_on,,,,,0,0,1,,,,0,,,47,38
825344,note_on,,,,,0,0,1,,,,0,,,43,28
825344,note_on,,,,,0,0,1,,,,0,,,71,56
825344,note_on,,,,,0,0,1,,,,0,,,59,42
825344,note_off,,,,,0,0,1,,,,0,,,47,0
825344,note_off,,,,,0,0,1,,,,0,,,43,0
825344,note_off,,,,,0,0,1,,,,0,,,70,0
825344,note_off,,,,,781,0,1,,,,0,,,58,0
825435,control_change,,,,,91,0,1,,,,0,64,0,,
825577,control_change,,,,,142,0,1,,,,0,64,127,,
826368,note_on,,,,,0,0,1,,,,0,,,62,46
826368,note_on,,,,,0,0,1,,,,0,,,74,60
826368,note_on,,,,,0,0,1,,,,0,,,30,31
826368,note_off,,,,,0,0,1,,,,0,,,47,0
826368,note_off,,,,,0,0,1,,,,0,,,43,0
826368,note_off,,,,,0,0,1,,,,0,,,31,0
826368,control_change,,,,,791,0,1,,,,0,64,0,,
826368,note_off,,,,,0,0,1,,,,0,,,59,0
826368,control_change,,,,,0,0,1,,,,0,64,127,,
826368,set_tempo,,,,,2048,1,0,,705882,,,,,,
826368,note_off,,,,,0,0,1,,,,0,,,71,0
826490,control_change,,,,,122,0,1,,,,0,64,0,,
826632,control_change,,,,,142,0,1,,,,0,64,127,,
826880,set_tempo,,,,,512,1,0,,545454,,,,,,
826880,note_on,,,,,248,0,1,,,,0,,,42,13
826880,note_on,,,,,0,0,1,,,,0,,,47,23
827392,note_on,,,,,0,0,1,,,,0,,,47,18
827392,note_off,,,,,0,0,1,,,,0,,,47,0
827392,note_on,,,,,0,0,1,,,,0,,,42,8
827392,note_off,,,,,512,0,1,,,,0,,,42,0
827904,note_off,,,,,512,0,1,,,,0,,,42,0
827904,note_off,,,,,0,0,1,,,,0,,,47,0
827904,note_on,,,,,0,0,1,,,,0,,,42,8
827904,note_on,,,,,0,0,1,,,,0,,,47,18
827904,set_tempo,,,,,1024,1,0,,625000,,,,,,
828416,note_on,,,,,0,0,1,,,,0,,,61,26
828416,set_tempo,,,,,512,1,0,,750000,,,,,,
828416,note_off,,,,,512,0,1,,,,0,,,62,0
828416,note_off,,,,,0,0,1,,,,0,,,74,0
828416,note_off,,,,,0,0,1,,,,0,,,42,0
828416,note_off,,,,,0,0,1,,,,0,,,47,0
828416,note_on,,,,,0,0,1,,,,0,,,73,40
828416,note_on,,,,,0,0,1,,,,0,,,42,8
828416,note_on,,,,,0,0,1,,,,0,,,46,18
828436,control_change,,,,,20,0,1,,,,0,64,0,,
829260,note_off,,,,,0,0,1,,,,0,,,73,0
829260,note_off,,,,,824,0,1,,,,0,,,61,0
829440,note_on,,,,,180,0,1,,,,0,,,49,19
829440,note_off,,,,,0,0,1,,,,0,,,46,0
829440,set_tempo,,,,,1024,1,0,,545454,,,,,,
829440,note_on,,,,,0,0,1,,,,0,,,61,31
829440,note_off,,,,,0,0,1,,,,0,,,42,0
829592,control_change,,,,,152,0,1,,,,0,64,127,,
830464,control_change,,,,,872,0,1,,,,0,64,0,,
830464,control_change,,,,,0,0,1,,,,0,64,127,,
830464,note_off,,,,,0,0,1,,,,0,,,49,0
830464,note_off,,,,,0,0,1,,,,0,,,30,0
830464,note_on,,,,,0,0,1,,,,0,,,49,24
830464,note_on,,,,,0,0,1,,,,0,,,61,36
830464,note_on,,,,,0,0,1,,,,0,,,34,31
830464,note_off,,,,,0,0,1,,,,0,,,61,0
830656,control_change,,,,,192,0,1,,,,0,64,0,,
830976,note_on,,,,,320,0,1,,,,0,,,43,22
830976,note_on,,,,,0,0,1,,,,0,,,46,15
830976,set_tempo,,,,,1536,1,0,,444444,,,,,,
831298,note_off,,,,,0,0,1,,,,0,,,46,0
831298,note_off,,,,,322,0,1,,,,0,,,43,0
831488,note_on,,,,,0,0,1,,,,0,,,46,10
831488,note_on,,,,,190,0,1,,,,0,,,43,17
831810,note_off,,,,,322,0,1,,,,0,,,43,0
831810,note_off,,,,,0,0,1,,,,0,,,46,0
832000,set_tempo,,,,,1024,1,0,,545454,,,,,,
832000,note_on,,,,,190,0,1,,,,0,,,43,17
832000,note_on,,,,,0,0,1,,,,0,,,46,10
832322,note_off,,,,,0,0,1,,,,0,,,46,0
832322,note_off,,,,,322,0,1,,,,0,,,43,0
832512,note_off,,,,,190,0,1,,,,0,,,34,0
832512,note_on,,,,,0,0,1,,,,0,,,46,10
832512,set_tempo,,,,,512,1,0,,500000,,,,,,
832512,note_on,,,,,0,0,1,,,,0,,,43,17
833536,set_tempo,,,,,1024,1,0,,545454,,,,,,
833536,note_on,,,,,0,0,1,,,,0,,,62,43
833536,note_off,,,,,0,0,1,,,,0,,,61,0
833536,note_off,,,,,0,0,1,,,,0,,,46,0
833536,note_off,,,,,1024,0,1,,,,0,,,49,0
833536,note_on,,,,,0,0,1,,,,0,,,50,31
833536,note_off,,,,,0,0,1,,,,0,,,43,0
833728,control_change,,,,,192,0,1,,,,0,64,127,,
834304,note_off,,,,,0,0,1,,,,0,,,62,0
834304,set_tempo,,,,,768,1,0,,666666,,,,,,
834304,note_off,,,,,576,0,1,,,,0,,,50,0
834304,note_on,,,,,0,0,1,,,,0,,,61,39
834304,note_on,,,,,0,0,1,,,,0,,,49,27
834560,note_on,,,,,0,0,1,,,,0,,,34,31
834560,note_on,,,,,0,0,1,,,,0,,,61,39
834560,note_off,,,,,0,0,1,,,,0,,,49,0
834560,note_on,,,,,0,0,1,,,,0,,,49,27
834560,control_change,,,,,256,0,1,,,,0,64,127,,
834560,note_off,,,,,0,0,1,,,,0,,,61,0
834867,control_change,,,,,307,0,1,,,,0,64,0,,
835072,note_on,,,,,0,0,1,,,,0,,,46,15
835072,note_on,,,,,205,0,1,,,,0,,,43,22
835072,set_tempo,,,,,768,1,0,,444444,,,,,,
835394,note_off,,,,,0,0,1,,,,0,,,46,0
835394,note_off,,,,,322,0,1,,,,0,,,43,0
835584,note_on,,,,,0,0,1,,,,0,,,46,10
835584,note_on,,,,,190,0,1,,,,0,,,43,17
835906,note_off,,,,,322,0,1,,,,0,,,43,0
835906,note_off,,,,,0,0,1,,,,0,,,46,0
836062,control_change,,,,,156,0,1,,,,0,64,127,,
836096,note_on,,,,,0,0,1,,,,0,,,43,17
836096,note_on,,,,,0,0,1,,,,0,,,61,44
836096,set_tempo,,,,,1024,1,0,,545454,,,,,,
836096,note_on,,,,,0,0,1,,,,0,,,49,32
836096,note_off,,,,,0,0,1,,,,0,,,61,0
836096,note_off,,,,,34,0,1,,,,0,,,49,0
836096,note_on,,,,,0,0,1,,,,0,,,46,10
836418,note_off,,,,,322,0,1,,,,0,,,43,0
836418,note_off,,,,,0,0,1,,,,0,,,46,0
836608,set_tempo,,,,,512,1,0,,500000,,,,,,
836608,note_on,,,,,0,0,1,,,,0,,,43,17
836608,note_off,,,,,190,0,1,,,,0,,,49,0
836608,note_off,,,,,0,0,1,,,,0,,,61,0
836608,note_off,,,,,0,0,1,,,,0,,,34,0
836608,note_on,,,,,0,0,1,,,,0,,,52,33
836608,note_on,,,,,0,0,1,,,,0,,,64,45
836608,note_on,,,,,0,0,1,,,,0,,,46,10
836676,control_change,,,,,68,0,1,,,,0,64,0,,
836983,control_change,,,,,307,0,1,,,,0,64,127,,
837632,set_tempo,,,,,1024,1,0,,600000,,,,,,
837632,note_off,,,,,0,0,1,,,,0,,,43,0
837632,note_on,,,,,0,0,1,,,,0,,,47,20
837632,note_on,,,,,0,0,1,,,,0,,,43,13
837632,note_on,,,,,0,0,1,,,,0,,,67,48
837632,note_on,,,,,0,0,1,,,,0,,,55,36
837632,note_off,,,,,0,0,1,,,,0,,,46,0
837632,note_off,,,,,0,0,1,,,,0,,,64,0
837632,note_off,,,,,649,0,1,,,,0,,,52,0
837700,control_change,,,,,68,0,1,,,,0,64,0,,
837973,control_change,,,,,273,0,1,,,,0,64,127,,
838656,note_on,,,,,0,0,1,,,,0,,,34,31
838656,note_off,,,,,0,0,1,,,,0,,,43,0
838656,control_change,,,,,683,0,1,,,,0,64,127,,
838656,note_off,,,,,0,0,1,,,,0,,,55,0
838656,note_off,,,,,0,0,1,,,,0,,,67,0
838656,note_off,,,,,0,0,1,,,,0,,,47,0
838656,note_on,,,,,0,0,1,,,,0,,,54,32
838656,note_on,,,,,0,0,1,,,,0,,,66,44
838833,control_change,,,,,177,0,1,,,,0,64,0,,
839150,control_change,,,,,317,0,1,,,,0,64,0,,
839168,set_tempo,,,,,1536,1,0,,444444,,,,,,
839168,note_on,,,,,18,0,1,,,,0,,,42,13
839168,note_on,,,,,0,0,1,,,,0,,,46,23
839168,note_on,,,,,0,0,1,,,,0,,,49,13
839490,note_off,,,,,0,0,1,,,,0,,,49,0
839490,note_off,,,,,322,0,1,,,,0,,,42,0
839490,note_off,,,,,0,0,1,,,,0,,,46,0
839680,note_on,,,,,0,0,1,,,,0,,,49,8
839680,note_on,,,,,0,0,1,,,,0,,,46,18
839680,note_on,,,,,190,0,1,,,,0,,,42,8
840002,note_off,,,,,322,0,1,,,,0,,,42,0
840002,note_off,,,,,0,0,1,,,,0,,,49,0
840002,note_off,,,,,0,0,1,,,,0,,,46,0
840192,note_on,,,,,0,0,1,,,,0,,,49,8
840192,note_on,,,,,190,0,1,,,,0,,,42,8
840192,set_tempo,,,,,1024,1,0,,545454,,,,,,
840192,note_on,,,,,0,0,1,,,,0,,,46,18
840514,note_off,,,,,0,0,1,,,,0,,,49,0
840514,note_off,,,,,0,0,1,,,,0,,,46,0
840514,note_off,,,,,322,0,1,,,,0,,,42,0
840704,note_on,,,,,0,0,1,,,,0,,,49,8
840704,note_on,,,,,0,0,1,,,,0,,,46,18
840704,note_on,,,,,190,0,1,,,,0,,,42,8
841728,note_off,,,,,0,0,1,,,,0,,,66,0
841728,note_on,,,,,0,0,1,,,,0,,,64,40
841728,note_on,,,,,0,0,1,,,,0,,,52,28
841728,note_off,,,,,0,0,1,,,,0,,,49,0
841728,note_off,,,,,0,0,1,,,,0,,,46,0
841728,note_off,,,,,0,0,1,,,,0,,,42,0
841728,note_off,,,,,1024,0,1,,,,0,,,54,0
841728,set_tempo,,,,,1536,1,0,,545454,,,,,,
841763,control_change,,,,,35,0,1,,,,0,64,127,,
842752,control_change,,,,,989,0,1,,,,0,64,0,,
842752,note_off,,,,,0,0,1,,,,0,,,52,0
842752,note_off,,,,,0,0,1,,,,0,,,64,0
842752,note_off,,,,,0,0,1,,,,0,,,34,0
842752,note_on,,,,,0,0,1,,,,0,,,50,28
842752,note_on,,,,,0,0,1,,,,0,,,62,40
842752,note_on,,,,,0,0,1,,,,0,,,35,31
842789,control_change,,,,,37,0,1,,,,0,64,127,,
843047,control_change,,,,,258,0,1,,,,0,64,0,,
843264,note_on,,,,,0,0,1,,,,0,,,47,23
843264,set_tempo,,,,,1536,1,0,,500000,,,,,,
843264,note_on,,,,,217,0,1,,,,0,,,42,13
843490,control_change,,,,,226,0,1,,,,0,64,127,,
843586,note_off,,,,,96,0,1,,,,0,,,42,0
843586,note_off,,,,,0,0,1,,,,0,,,47,0
843776,note_off,,,,,190,0,1,,,,0,,,50,0
843776,note_off,,,,,0,0,1,,,,0,,,62,0
843776,note_on,,,,,0,0,1,,,,0,,,47,18
843776,note_on,,,,,0,0,1,,,,0,,,42,8
843776,note_on,,,,,0,0,1,,,,0,,,61,42
843776,note_on,,,,,0,0,1,,,,0,,,49,30
843933,control_change,,,,,157,0,1,,,,0,64,0,,
844098,note_off,,,,,0,0,1,,,,0,,,47,0
844098,note_off,,,,,165,0,1,,,,0,,,42,0
844117,control_change,,,,,19,0,1,,,,0,64,127,,
844288,note_on,,,,,0,0,1,,,,0,,,42,8
844288,note_on,,,,,0,0,1,,,,0,,,50,30
844288,note_off,,,,,0,0,1,,,,0,,,61,0
844288,note_off,,,,,171,0,1,,,,0,,,49,0
844288,set_tempo,,,,,1024,1,0,,545454,,,,,,
844288,note_on,,,,,0,0,1,,,,0,,,47,18
844288,note_on,,,,,0,0,1,,,,0,,,62,42
844449,control_change,,,,,161,0,1,,,,0,64,0,,
844597,control_change,,,,,148,0,1,,,,0,64,127,,
844610,note_off,,,,,13,0,1,,,,0,,,42,0
844610,note_off,,,,,0,0,1,,,,0,,,47,0
844800,note_off,,,,,190,0,1,,,,0,,,50,0
844800,note_off,,,,,0,0,1,,,,0,,,62,0
844800,note_off,,,,,0,0,1,,,,0,,,35,0
844800,note_on,,,,,0,0,1,,,,0,,,52,31
844800,note_on,,,,,0,0,1,,,,0,,,64,43
844800,note_on,,,,,0,0,1,,,,0,,,43,8
844800,note_on,,,,,0,0,1,,,,0,,,47,18
844800,set_tempo,,,,,512,1,0,,545454,,,,,,
844855,control_change,,,,,55,0,1,,,,0,64,0,,
845298,control_change,,,,,443,0,1,,,,0,64,127,,
845824,note_on,,,,,0,0,1,,,,0,,,62,40
845824,note_off,,,,,526,0,1,,,,0,,,52,0
845824,note_off,,,,,0,0,1,,,,0,,,64,0
845824,note_off,,,,,0,0,1,,,,0,,,43,0
845824,set_tempo,,,,,1024,1,0,,600000,,,,,,
845824,note_off,,,,,0,0,1,,,,0,,,47,0
845824,note_on,,,,,0,0,1,,,,0,,,47,20
845824,note_on,,,,,0,0,1,,,,0,,,40,13
845824,note_on,,,,,0,0,1,,,,0,,,50,28
845962,control_change,,,,,138,0,1,,,,0,64,0,,
846294,control_change,,,,,332,0,1,,,,0,64,127,,
846336,note_on,,,,,0,0,1,,,,0,,,61,39
846336,note_on,,,,,0,0,1,,,,0,,,49,27
846336,note_off,,,,,0,0,1,,,,0,,,62,0
846336,note_off,,,,,42,0,1,,,,0,,,50,0
846479,control_change,,,,,143,0,1,,,,0,64,0,,
846700,control_change,,,,,221,0,1,,,,0,64,127,,
846848,note_off,,,,,0,0,1,,,,0,,,49,0
846848,control_change,,,,,148,0,1,,,,0,64,0,,
846848,note_off,,,,,0,0,1,,,,0,,,61,0
846848,note_off,,,,,0,0,1,,,,0,,,40,0
846848,note_off,,,,,0,0,1,,,,0,,,47,0
846848,note_on,,,,,0,0,1,,,,0,,,47,26
846848,note_on,,,,,0,0,1,,,,0,,,59,38
846848,note_on,,,,,0,0,1,,,,0,,,30,31
847360,note_on,,,,,0,0,1,,,,0,,,42,23
847360,set_tempo,,,,,1536,1,0,,500000,,,,,,
847360,note_on,,,,,512,0,1,,,,0,,,38,13
847872,note_off,,,,,512,0,1,,,,0,,,38,0
847872,note_on,,,,,0,0,1,,,,0,,,38,8
847872,note_off,,,,,0,0,1,,,,0,,,42,0
847872,note_on,,,,,0,0,1,,,,0,,,42,18
848384,note_off,,,,,512,0,1,,,,0,,,38,0
848384,note_off,,,,,0,0,1,,,,0,,,42,0
848384,note_on,,,,,0,0,1,,,,0,,,38,8
848384,note_on,,,,,0,0,1,,,,0,,,42,18
848384,set_tempo,,,,,1024,1,0,,625000,,,,,,
848896,note_off,,,,,512,0,1,,,,0,,,47,0
848896,note_on,,,,,0,0,1,,,,0,,,42,18
848896,note_on,,,,,0,0,1,,,,0,,,37,8
848896,note_on,,,,,0,0,1,,,,0,,,58,26
848896,note_on,,,,,0,0,1,,,,0,,,46,14
848896,note_off,,,,,0,0,1,,,,0,,,42,0
848896,note_off,,,,,0,0,1,,,,0,,,38,0
848896,note_off,,,,,0,0,1,,,,0,,,59,0
849920,set_tempo,,,,,1536,1,0,,705882,,,,,,
849920,note_on,,,,,0,0,1,,,,0,,,70,39
849920,note_off,,,,,1024,0,1,,,,0,,,46,0
849920,note_off,,,,,0,0,1,,,,0,,,58,0
849920,note_off,,,,,0,0,1,,,,0,,,30,0
849920,note_off,,,,,0,0,1,,,,0,,,37,0
849920,note_off,,,,,0,0,1,,,,0,,,42,0
849920,note_on,,,,,0,0,1,,,,0,,,58,15
850944,note_on,,,,,0,0,1,,,,0,,,31,19
850944,note_on,,,,,0,0,1,,,,0,,,70,40
850944,note_on,,,,,0,0,1,,,,0,,,58,18
850944,note_off,,,,,0,0,1,,,,0,,,70,0
850944,note_on,,,,,0,0,1,,,,0,,,43,27
850944,control_change,,,,,0,0,1,,,,0,64,0,,
850944,control_change,,,,,0,0,1,,,,0,64,127,,
850944,control_change,,,,,1024,0,1,,,,0,64,0,,
850944,note_off,,,,,0,0,1,,,,0,,,58,0
851136,control_change,,,,,192,0,1,,,,0,64,0,,
851456,note_on,,,,,0,0,1,,,,0,,,52,18
851456,set_tempo,,,,,1536,1,0,,480000,,,,,,
851456,note_on,,,,,0,0,1,,,,0,,,49,11
851456,note_on,,,,,320,0,1,,,,0,,,43,18
851968,note_on,,,,,0,0,1,,,,0,,,49,6
851968,note_on,,,,,0,0,1,,,,0,,,43,13
851968,note_off,,,,,0,0,1,,,,0,,,52,0
851968,note_off,,,,,0,0,1,,,,0,,,49,0
851968,note_off,,,,,512,0,1,,,,0,,,43,0
851968,note_on,,,,,0,0,1,,,,0,,,52,13
852480,note_off,,,,,0,0,1,,,,0,,,49,0
852480,note_off,,,,,0,0,1,,,,0,,,52,0
852480,note_off,,,,,512,0,1,,,,0,,,43,0
852480,note_on,,,,,0,0,1,,,,0,,,49,6
852480,note_on,,,,,0,0,1,,,,0,,,52,13
852480,note_on,,,,,0,0,1,,,,0,,,43,13
852992,note_on,,,,,0,0,1,,,,0,,,49,6
852992,note_on,,,,,0,0,1,,,,0,,,43,13
852992,note_off,,,,,0,0,1,,,,0,,,52,0
852992,note_off,,,,,0,0,1,,,,0,,,49,0
852992,note_off,,,,,512,0,1,,,,0,,,43,0
852992,note_on,,,,,0,0,1,,,,0,,,52,13
852992,set_tempo,,,,,1536,1,0,,500000,,,,,,
854016,note_off,,,,,0,0,1,,,,0,,,43,0
854016,note_on,,,,,0,0,1,,,,0,,,71,43
854016,note_on,,,,,0,0,1,,,,0,,,59,22
854016,note_off,,,,,0,0,1,,,,0,,,31,0
854016,note_off,,,,,0,0,1,,,,0,,,70,0
854016,note_off,,,,,1024,0,1,,,,0,,,58,0
854016,set_tempo,,,,,1024,1,0,,600000,,,,,,
854208,control_change,,,,,192,0,1,,,,0,64,127,,
854784,note_off,,,,,576,0,1,,,,0,,,59,0
854784,note_on,,,,,0,0,1,,,,0,,,70,39
854784,set_tempo,,,,,768,1,0,,666666,,,,,,
854784,note_off,,,,,0,0,1,,,,0,,,71,0
854784,note_on,,,,,0,0,1,,,,0,,,58,18
855040,note_on,,,,,0,0,1,,,,0,,,58,18
855040,control_change,,,,,256,0,1,,,,0,64,127,,
855040,note_on,,,,,0,0,1,,,,0,,,43,31
855040,note_on,,,,,0,0,1,,,,0,,,31,22
855040,note_on,,,,,0,0,1,,,,0,,,70,39
855040,note_off,,,,,0,0,1,,,,0,,,52,0
855040,note_off,,,,,0,0,1,,,,0,,,49,0
855040,note_off,,,,,0,0,1,,,,0,,,43,0
855040,note_off,,,,,0,0,1,,,,0,,,70,0
855040,note_off,,,,,0,0,1,,,,0,,,58,0
855040,control_change,,,,,0,0,1,,,,0,64,0,,
855347,control_change,,,,,307,0,1,,,,0,64,0,,
855552,note_on,,,,,0,0,1,,,,0,,,52,22
855552,note_on,,,,,0,0,1,,,,0,,,49,15
855552,note_on,,,,,205,0,1,,,,0,,,43,22
855552,set_tempo,,,,,768,1,0,,500000,,,,,,
856064,note_off,,,,,0,0,1,,,,0,,,49,0
856064,note_off,,,,,0,0,1,,,,0,,,52,0
856064,note_on,,,,,0,0,1,,,,0,,,43,17
856064,note_on,,,,,0,0,1,,,,0,,,49,10
856064,note_on,,,,,0,0,1,,,,0,,,52,17
856064,note_off,,,,,512,0,1,,,,0,,,43,0
856542,control_change,,,,,478,0,1,,,,0,64,127,,
856576,note_off,,,,,34,0,1,,,,0,,,58,0
856576,note_off,,,,,0,0,1,,,,0,,,70,0
856576,note_off,,,,,0,0,1,,,,0,,,43,0
856576,note_off,,,,,0,0,1,,,,0,,,49,0
856576,note_off,,,,,0,0,1,,,,0,,,52,0
856576,note_on,,,,,0,0,1,,,,0,,,70,44
856576,note_on,,,,,0,0,1,,,,0,,,58,23
856576,set_tempo,,,,,1024,1,0,,571428,,,,,,
856576,note_on,,,,,0,0,1,,,,0,,,43,17
856576,note_on,,,,,0,0,1,,,,0,,,49,10
856576,note_on,,,,,0,0,1,,,,0,,,52,17
857088,set_tempo,,,,,512,1,0,,545454,,,,,,
857088,note_on,,,,,0,0,1,,,,0,,,49,6
857088,note_on,,,,,0,0,1,,,,0,,,43,13
857088,note_on,,,,,0,0,1,,,,0,,,73,45
857088,note_on,,,,,0,0,1,,,,0,,,61,24
857088,note_on,,,,,0,0,1,,,,0,,,52,13
857088,note_off,,,,,0,0,1,,,,0,,,49,0
857088,note_off,,,,,0,0,1,,,,0,,,52,0
857088,note_off,,,,,512,0,1,,,,0,,,58,0
857088,note_off,,,,,0,0,1,,,,0,,,43,0
857088,note_off,,,,,0,0,1,,,,0,,,70,0
857156,control_change,,,,,68,0,1,,,,0,64,0,,
857463,control_change,,,,,307,0,1,,,,0,64,127,,
858112,note_on,,,,,0,0,1,,,,0,,,52,13
858112,note_off,,,,,649,0,1,,,,0,,,61,0
858112,note_off,,,,,0,0,1,,,,0,,,73,0
858112,note_off,,,,,0,0,1,,,,0,,,31,0
858112,note_off,,,,,0,0,1,,,,0,,,43,0
858112,note_off,,,,,0,0,1,,,,0,,,43,0
858112,note_off,,,,,0,0,1,,,,0,,,52,0
858112,note_on,,,,,0,0,1,,,,0,,,64,27
858112,note_on,,,,,0,0,1,,,,0,,,76,48
858112,note_on,,,,,0,0,1,,,,0,,,43,13
858112,note_on,,,,,0,0,1,,,,0,,,47,20
858112,note_off,,,,,0,0,1,,,,0,,,49,0
858112,set_tempo,,,,,1024,1,0,,705882,,,,,,
858180,control_change,,,,,68,0,1,,,,0,64,0,,
858453,control_change,,,,,273,0,1,,,,0,64,127,,
859136,note_on,,,,,0,0,1,,,,0,,,43,12
859136,key_signature,,,,,1024,1,0,Abm,,,,,,,
859136,control_change,,,,,683,0,1,,,,0,64,127,,
859136,control_change,,,,,0,0,1,,,,0,64,0,,
859136,note_on,,,,,0,0,1,,,,0,,,31,19
859136,note_off,,,,,0,0,1,,,,0,,,76,0
859136,note_off,,,,,0,0,1,,,,0,,,43,0
859136,note_off,,,,,0,0,1,,,,0,,,47,0
859136,note_off,,,,,0,0,1,,,,0,,,52,0
859136,note_on,,,,,0,0,1,,,,0,,,63,23
859136,note_off,,,,,0,0,1,,,,0,,,64,0
859136,note_on,,,,,0,0,1,,,,0,,,75,43
859313,control_change,,,,,177,0,1,,,,0,64,0,,
859630,control_change,,,,,317,0,1,,,,0,64,0,,
859648,note_on,,,,,18,0,1,,,,0,,,43,12
859648,set_tempo,,,,,512,1,0,,480000,,,,,,
859648,note_on,,,,,0,0,1,,,,0,,,46,12
859648,note_on,,,,,0,0,1,,,,0,,,51,17
860160,note_off,,,,,512,0,1,,,,0,,,43,0
860160,note_on,,,,,0,0,1,,,,0,,,46,12
860160,note_on,,,,,0,0,1,,,,0,,,51,17
860160,note_off,,,,,0,0,1,,,,0,,,51,0
860160,note_off,,,,,0,0,1,,,,0,,,46,0
860160,note_on,,,,,0,0,1,,,,0,,,43,12
860672,note_off,,,,,512,0,1,,,,0,,,43,0
860672,note_off,,,,,0,0,1,,,,0,,,46,0
860672,note_off,,,,,0,0,1,,,,0,,,51,0
860672,note_on,,,,,0,0,1,,,,0,,,46,12
860672,note_on,,,,,0,0,1,,,,0,,,51,17
860672,note_on,,,,,0,0,1,,,,0,,,43,12
861184,note_off,,,,,512,0,1,,,,0,,,43,0
861184,note_off,,,,,0,0,1,,,,0,,,46,0
861184,note_off,,,,,0,0,1,,,,0,,,51,0
861184,note_on,,,,,0,0,1,,,,0,,,46,12
861184,note_on,,,,,0,0,1,,,,0,,,51,17
861184,note_on,,,,,0,0,1,,,,0,,,43,12
861184,set_tempo,,,,,1536,1,0,,500000,,,,,,
862208,set_tempo,,,,,1024,1,0,,666666,,,,,,
862208,note_on,,,,,0,0,1,,,,0,,,51,18
862208,note_on,,,,,0,0,1,,,,0,,,46,12
862208,note_on,,,,,0,0,1,,,,0,,,43,12
862208,note_on,,,,,0,0,1,,,,0,,,61,24
862208,note_off,,,,,0,0,1,,,,0,,,51,0
862208,note_off,,,,,0,0,1,,,,0,,,46,0
862208,note_off,,,,,0,0,1,,,,0,,,43,0
862208,note_off,,,,,0,0,1,,,,0,,,75,0
862208,note_off,,,,,1024,0,1,,,,0,,,63,0
862208,note_on,,,,,0,0,1,,,,0,,,73,40
862243,control_change,,,,,35,0,1,,,,0,64,127,,
863232,control_change,,,,,0,0,1,,,,0,64,0,,
863232,note_off,,,,,0,0,1,,,,0,,,31,0
863232,control_change,,,,,989,0,1,,,,0,64,0,,
863232,note_off,,,,,0,0,1,,,,0,,,43,0
863232,note_off,,,,,0,0,1,,,,0,,,43,0
863232,note_off,,,,,0,0,1,,,,0,,,46,0
863232,note_off,,,,,0,0,1,,,,0,,,51,0
863232,note_on,,,,,0,0,1,,,,0,,,59,24
863232,note_on,,,,,0,0,1,,,,0,,,71,40
863232,note_on,,,,,0,0,1,,,,0,,,32,20
863232,note_off,,,,,0,0,1,,,,0,,,61,0
863232,note_on,,,,,0,0,1,,,,0,,,44,14
863232,note_off,,,,,0,0,1,,,,0,,,73,0
863269,control_change,,,,,37,0,1,,,,0,64,127,,
863527,control_change,,,,,258,0,1,,,,0,64,0,,
863744,note_on,,,,,217,0,1,,,,0,,,44,12
863744,note_on,,,,,0,0,1,,,,0,,,51,17
863744,set_tempo,,,,,1536,1,0,,545454,,,,,,
863970,control_change,,,,,226,0,1,,,,0,64,127,,
864256,note_off,,,,,286,0,1,,,,0,,,59,0
864256,note_off,,,,,0,0,1,,,,0,,,71,0
864256,note_off,,,,,0,0,1,,,,0,,,44,0
864256,note_off,,,,,0,0,1,,,,0,,,51,0
864256,note_on,,,,,0,0,1,,,,0,,,58,26
864256,note_on,,,,,0,0,1,,,,0,,,70,42
864256,note_on,,,,,0,0,1,,,,0,,,51,17
864256,note_on,,,,,0,0,1,,,,0,,,44,12
864413,control_change,,,,,157,0,1,,,,0,64,0,,
864597,control_change,,,,,184,0,1,,,,0,64,127,,
864768,note_on,,,,,0,0,1,,,,0,,,44,12
864768,note_on,,,,,0,0,1,,,,0,,,71,44
864768,note_on,,,,,0,0,1,,,,0,,,59,28
864768,note_on,,,,,0,0,1,,,,0,,,51,17
864768,note_off,,,,,0,0,1,,,,0,,,44,0
864768,note_off,,,,,0,0,1,,,,0,,,70,0
864768,note_off,,,,,171,0,1,,,,0,,,58,0
864768,set_tempo,,,,,1024,1,0,,545454,,,,,,
864768,note_off,,,,,0,0,1,,,,0,,,51,0
864929,control_change,,,,,161,0,1,,,,0,64,0,,
865077,control_change,,,,,148,0,1,,,,0,64,127,,
865280,note_on,,,,,0,0,1,,,,0,,,63,32
865280,note_off,,,,,0,0,1,,,,0,,,44,0
865280,note_off,,,,,0,0,1,,,,0,,,44,0
865280,note_off,,,,,0,0,1,,,,0,,,32,0
865280,note_off,,,,,0,0,1,,,,0,,,71,0
865280,note_off,,,,,203,0,1,,,,0,,,59,0
865280,note_off,,,,,0,0,1,,,,0,,,51,0
865280,note_on,,,,,0,0,1,,,,0,,,52,17
865280,note_on,,,,,0,0,1,,,,0,,,75,48
865280,note_on,,,,,0,0,1,,,,0,,,44,12
865280,note_on,,,,,0,0,1,,,,0,,,40,12
865280,set_tempo,,,,,512,1,0,,666666,,,,,,
865335,control_change,,,,,55,0,1,,,,0,64,0,,
865778,control_change,,,,,443,0,1,,,,0,64,127,,
865792,note_off,,,,,14,0,1,,,,0,,,63,0
865792,note_off,,,,,0,0,1,,,,0,,,75,0
865792,note_on,,,,,0,0,1,,,,0,,,61,28
865792,note_on,,,,,0,0,1,,,,0,,,73,44
865792,set_tempo,,,,,512,1,0,,545454,,,,,,
866304,note_on,,,,,0,0,1,,,,0,,,49,13
866304,note_off,,,,,512,0,1,,,,0,,,61,0
866304,note_off,,,,,0,0,1,,,,0,,,52,0
866304,note_on,,,,,0,0,1,,,,0,,,59,24
866304,note_on,,,,,0,0,1,,,,0,,,71,40
866304,note_on,,,,,0,0,1,,,,0,,,37,13
866304,note_on,,,,,0,0,1,,,,0,,,44,20
866304,note_off,,,,,0,0,1,,,,0,,,73,0
866304,note_off,,,,,0,0,1,,,,0,,,44,0
866304,note_off,,,,,0,0,1,,,,0,,,40,0
866304,set_tempo,,,,,512,1,0,,600000,,,,,,
866442,control_change,,,,,138,0,1,,,,0,64,0,,
866774,control_change,,,,,332,0,1,,,,0,64,127,,
866816,note_on,,,,,0,0,1,,,,0,,,70,39
866816,note_on,,,,,0,0,1,,,,0,,,58,23
866816,note_off,,,,,42,0,1,,,,0,,,59,0
866816,set_tempo,,,,,512,1,0,,666666,,,,,,
866816,note_off,,,,,0,0,1,,,,0,,,71,0
866959,control_change,,,,,143,0,1,,,,0,64,0,,
867180,control_change,,,,,221,0,1,,,,0,64,127,,
867328,note_off,,,,,0,0,1,,,,0,,,49,0
867328,note_on,,,,,0,0,1,,,,0,,,39,15
867328,note_on,,,,,0,0,1,,,,0,,,56,18
867328,control_change,,,,,148,0,1,,,,0,64,0,,
867328,note_on,,,,,0,0,1,,,,0,,,68,34
867328,note_off,,,,,0,0,1,,,,0,,,70,0
867328,note_off,,,,,0,0,1,,,,0,,,37,0
867328,note_off,,,,,0,0,1,,,,0,,,44,0
867328,control_change,,,,,0,0,1,,,,0,64,0,,
867328,note_off,,,,,0,0,1,,,,0,,,58,0
867361,control_change,,,,,33,0,1,,,,0,64,127,,
867653,control_change,,,,,292,0,1,,,,0,64,0,,
867840,set_tempo,,,,,1024,1,0,,500000,,,,,,
867840,note_on,,,,,187,0,1,,,,0,,,51,12
867840,note_on,,,,,0,0,1,,,,0,,,59,16
868352,note_off,,,,,0,0,1,,,,0,,,59,0
868352,note_on,,,,,0,0,1,,,,0,,,51,12
868352,note_on,,,,,0,0,1,,,,0,,,59,16
868352,note_off,,,,,512,0,1,,,,0,,,51,0
868864,set_tempo,,,,,1024,1,0,,625000,,,,,,
868864,note_off,,,,,0,0,1,,,,0,,,59,0
868864,note_on,,,,,0,0,1,,,,0,,,51,12
868864,note_on,,,,,0,0,1,,,,0,,,59,16
868864,note_off,,,,,512,0,1,,,,0,,,51,0
869018,control_change,,,,,154,0,1,,,,0,64,127,,
869376,note_off,,,,,358,0,1,,,,0,,,56,0
869376,note_off,,,,,0,0,1,,,,0,,,51,0
869376,note_off,,,,,0,0,1,,,,0,,,59,0
869376,note_on,,,,,0,0,1,,,,0,,,55,9
869376,note_on,,,,,0,0,1,,,,0,,,67,21
869376,note_on,,,,,0,0,1,,,,0,,,51,12
869376,note_on,,,,,0,0,1,,,,0,,,58,16
869376,note_off,,,,,0,0,1,,,,0,,,68,0
869376,set_tempo,,,,,512,1,0,,750000,,,,,,
869409,control_change,,,,,33,0,1,,,,0,64,0,,
869701,control_change,,,,,292,0,1,,,,0,64,127,,
869888,set_tempo,,,,,512,1,0,,666666,,,,,,
869888,note_on,,,,,0,0,1,,,,0,,,75,38
869888,note_off,,,,,0,0,1,,,,0,,,39,0
869888,note_off,,,,,0,0,1,,,,0,,,58,0
869888,note_off,,,,,0,0,1,,,,0,,,51,0
869888,note_off,,,,,0,0,1,,,,0,,,67,0
869888,note_off,,,,,187,0,1,,,,0,,,55,0
870400,note_off,,,,,512,0,1,,,,0,,,75,0
870400,note_on,,,,,0,0,1,,,,0,,,75,38
870912,set_tempo,,,,,1024,1,0,,705882,,,,,,
870912,note_on,,,,,0,0,1,,,,0,,,75,38
870912,note_off,,,,,512,0,1,,,,0,,,75,0
871424,note_on,,,,,0,0,1,,,,0,,,80,47
871424,note_on,,,,,0,0,1,,,,0,,,44,20
871424,note_on,,,,,0,0,1,,,,0,,,32,14
871424,note_off,,,,,0,0,1,,,,0,,,75,0
871424,control_change,,,,,0,0,1,,,,0,64,127,,
871424,control_change,,,,,512,0,1,,,,0,64,0,,
871424,set_tempo,,,,,512,1,0,,625000,,,,,,
871682,control_change,,,,,258,0,1,,,,0,64,0,,
871936,note_on,,,,,254,0,1,,,,0,,,71,12
871936,note_on,,,,,0,0,1,,,,0,,,63,19
871936,note_on,,,,,0,0,1,,,,0,,,56,11
871936,set_tempo,,,,,512,1,0,,500000,,,,,,
871936,note_on,,,,,0,0,1,,,,0,,,75,21
871978,control_change,,,,,42,0,1,,,,0,64,127,,
872448,note_off,,,,,470,0,1,,,,0,,,80,0
872448,note_on,,,,,0,0,1,,,,0,,,83,45
872448,note_on,,,,,0,0,1,,,,0,,,56,12
872448,note_on,,,,,0,0,1,,,,0,,,63,20
872448,note_off,,,,,0,0,1,,,,0,,,56,0
872448,note_off,,,,,0,0,1,,,,0,,,63,0
872960,note_off,,,,,512,0,1,,,,0,,,71,0
872960,note_off,,,,,0,0,1,,,,0,,,56,0
872960,note_off,,,,,0,0,1,,,,0,,,75,0
872960,note_on,,,,,0,0,1,,,,0,,,71,12
872960,note_on,,,,,0,0,1,,,,0,,,75,21
872960,note_off,,,,,0,0,1,,,,0,,,63,0
872960,note_on,,,,,0,0,1,,,,0,,,56,13
872960,note_on,,,,,0,0,1,,,,0,,,63,21
873472,note_off,,,,,512,0,1,,,,0,,,83,0
873472,note_on,,,,,0,0,1,,,,0,,,63,23
873472,note_on,,,,,0,0,1,,,,0,,,80,44
873472,note_on,,,,,0,0,1,,,,0,,,56,14
873472,note_off,,,,,0,0,1,,,,0,,,63,0
873472,note_off,,,,,0,0,1,,,,0,,,56,0
873984,note_off,,,,,0,0,1,,,,0,,,75,0
873984,note_on,,,,,0,0,1,,,,0,,,71,12
873984,note_on,,,,,0,0,1,,,,0,,,75,21
873984,note_off,,,,,512,0,1,,,,0,,,71,0
874496,note_off,,,,,512,0,1,,,,0,,,80,0
874496,note_on,,,,,0,0,1,,,,0,,,83,42
875008,note_off,,,,,512,0,1,,,,0,,,71,0
875008,note_off,,,,,0,0,1,,,,0,,,75,0
875008,note_on,,,,,0,0,1,,,,0,,,71,12
875008,note_on,,,,,0,0,1,,,,0,,,75,21
875520,note_on,,,,,0,0,1,,,,0,,,44,20
875520,note_off,,,,,0,0,1,,,,0,,,63,0
875520,note_off,,,,,0,0,1,,,,0,,,56,0
875520,note_off,,,,,0,0,1,,,,0,,,44,0
875520,note_off,,,,,0,0,1,,,,0,,,32,0
875520,note_off,,,,,0,0,1,,,,0,,,83,0
875520,control_change,,,,,0,0,1,,,,0,64,127,,
875520,control_change,,,,,512,0,1,,,,0,64,0,,
875520,note_on,,,,,0,0,1,,,,0,,,32,14
875520,set_tempo,,,,,3584,1,0,,666666,,,,,,
875520,note_on,,,,,0,0,1,,,,0,,,80,47
875675,control_change,,,,,155,0,1,,,,0,64,0,,
876022,control_change,,,,,347,0,1,,,,0,64,127,,
876032,note_off,,,,,10,0,1,,,,0,,,71,0
876032,note_on,,,,,0,0,1,,,,0,,,71,12
876032,note_on,,,,,0,0,1,,,,0,,,75,21
876032,note_on,,,,,0,0,1,,,,0,,,56,11
876032,note_on,,,,,0,0,1,,,,0,,,63,19
876032,note_off,,,,,0,0,1,,,,0,,,75,0
876032,set_tempo,,,,,512,1,0,,461538,,,,,,
876544,note_off,,,,,512,0,1,,,,0,,,80,0
876544,note_off,,,,,0,0,1,,,,0,,,63,0
876544,note_off,,,,,0,0,1,,,,0,,,56,0
876544,note_on,,,,,0,0,1,,,,0,,,63,20
876544,note_on,,,,,0,0,1,,,,0,,,56,12
876544,note_on,,,,,0,0,1,,,,0,,,83,45
877056,note_off,,,,,0,0,1,,,,0,,,75,0
877056,note_off,,,,,512,0,1,,,,0,,,71,0
877056,note_on,,,,,0,0,1,,,,0,,,75,21
877056,note_on,,,,,0,0,1,,,,0,,,71,12
877056,note_on,,,,,0,0,1,,,,0,,,63,22
877056,note_on,,,,,0,0,1,,,,0,,,56,13
877056,note_off,,,,,0,0,1,,,,0,,,56,0
877056,note_off,,,,,0,0,1,,,,0,,,63,0
877568,note_off,,,,,0,0,1,,,,0,,,56,0
877568,note_off,,,,,0,0,1,,,,0,,,83,0
877568,control_change,,,,,512,0,1,,,,0,64,0,,
877568,note_on,,,,,0,0,1,,,,0,,,82,43
877568,note_on,,,,,0,0,1,,,,0,,,56,14
877568,note_on,,,,,0,0,1,,,,0,,,63,23
877568,set_tempo,,,,,1536,1,0,,500000,,,,,,
877568,note_off,,,,,0,0,1,,,,0,,,63,0
877954,control_change,,,,,386,0,1,,,,0,64,127,,
878080,note_off,,,,,126,0,1,,,,0,,,71,0
878080,note_on,,,,,0,0,1,,,,0,,,71,12
878080,note_on,,,,,0,0,1,,,,0,,,75,21
878080,note_off,,,,,0,0,1,,,,0,,,75,0
878592,note_off,,,,,512,0,1,,,,0,,,82,0
878592,note_on,,,,,0,0,1,,,,0,,,80,41
879104,set_tempo,,,,,1536,1,0,,545454,,,,,,
879104,note_off,,,,,512,0,1,,,,0,,,71,0
879104,note_off,,,,,0,0,1,,,,0,,,75,0
879104,note_on,,,,,0,0,1,,,,0,,,71,12
879104,note_on,,,,,0,0,1,,,,0,,,75,21
879616,note_on,,,,,0,0,1,,,,0,,,44,20
879616,note_on,,,,,0,0,1,,,,0,,,32,14
879616,note_on,,,,,0,0,1,,,,0,,,80,39
879616,note_off,,,,,0,0,1,,,,0,,,56,0
879616,note_off,,,,,0,0,1,,,,0,,,44,0
879616,note_off,,,,,0,0,1,,,,0,,,32,0
879616,note_off,,,,,0,0,1,,,,0,,,80,0
879616,note_off,,,,,0,0,1,,,,0,,,75,0
879616,note_off,,,,,0,0,1,,,,0,,,63,0
879616,control_change,,,,,0,0,1,,,,0,64,127,,
879616,control_change,,,,,0,0,1,,,,0,64,0,,
879616,control_change,,,,,512,0,1,,,,0,64,127,,
879616,set_tempo,,,,,512,1,0,,705882,,,,,,
879616,note_off,,,,,0,0,1,,,,0,,,71,0
879823,control_change,,,,,207,0,1,,,,0,64,0,,
879823,control_change,,,,,0,0,1,,,,0,64,0,,
880098,control_change,,,,,275,0,1,,,,0,64,127,,
880098,control_change,,,,,0,0,1,,,,0,64,127,,
880128,note_on,,,,,0,0,1,,,,0,,,63,19
880128,note_on,,,,,0,0,1,,,,0,,,56,11
880128,note_on,,,,,0,0,1,,,,0,,,75,33
880128,note_on,,,,,0,0,1,,,,0,,,71,24
880128,note_off,,,,,30,0,1,,,,0,,,80,0
880128,set_tempo,,,,,512,1,0,,480000,,,,,,
880640,note_on,,,,,0,0,1,,,,0,,,63,20
880640,note_off,,,,,512,0,1,,,,0,,,71,0
880640,note_off,,,,,0,0,1,,,,0,,,75,0
880640,note_off,,,,,0,0,1,,,,0,,,56,0
880640,note_off,,,,,0,0,1,,,,0,,,63,0
880640,note_on,,,,,0,0,1,,,,0,,,71,25
880640,note_on,,,,,0,0,1,,,,0,,,75,36
880640,note_on,,,,,0,0,1,,,,0,,,56,12
881152,note_on,,,,,0,0,1,,,,0,,,75,38
881152,note_on,,,,,0,0,1,,,,0,,,71,26
881152,note_off,,,,,0,0,1,,,,0,,,63,0
881152,note_off,,,,,0,0,1,,,,0,,,56,0
881152,set_tempo,,,,,1024,1,0,,500000,,,,,,
881152,note_off,,,,,512,0,1,,,,0,,,71,0
881152,note_on,,,,,0,0,1,,,,0,,,56,13
881152,note_off,,,,,0,0,1,,,,0,,,75,0
881152,note_on,,,,,0,0,1,,,,0,,,63,22
881647,control_change,,,,,0,0,1,,,,0,64,0,,
881647,control_change,,,,,495,0,1,,,,0,64,0,,
881664,note_on,,,,,0,0,1,,,,0,,,63,23
881664,note_on,,,,,0,0,1,,,,0,,,56,14
881664,note_on,,,,,0,0,1,,,,0,,,75,43
881664,note_off,,,,,0,0,1,,,,0,,,63,0
881664,set_tempo,,,,,512,1,0,,545454,,,,,,
881664,note_off,,,,,0,0,1,,,,0,,,75,0
881664,note_off,,,,,17,0,1,,,,0,,,71,0
881664,note_off,,,,,0,0,1,,,,0,,,56,0
881888,control_change,,,,,224,0,1,,,,0,64,127,,
881888,control_change,,,,,0,0,1,,,,0,64,127,,
882176,note_on,,,,,0,0,1,,,,0,,,68,26
882176,note_on,,,,,0,0,1,,,,0,,,71,38
882176,set_tempo,,,,,512,1,0,,480000,,,,,,
882176,note_off,,,,,288,0,1,,,,0,,,75,0
882688,note_off,,,,,512,0,1,,,,0,,,68,0
882688,note_off,,,,,0,0,1,,,,0,,,71,0
882688,note_on,,,,,0,0,1,,,,0,,,68,24
882688,note_on,,,,,0,0,1,,,,0,,,71,36
883200,note_on,,,,,0,0,1,,,,0,,,68,22
883200,note_off,,,,,512,0,1,,,,0,,,68,0
883200,note_off,,,,,0,0,1,,,,0,,,71,0
883200,note_on,,,,,0,0,1,,,,0,,,71,34
883712,control_change,,,,,512,0,1,,,,0,64,127,,
883712,note_off,,,,,0,0,1,,,,0,,,68,0
883712,note_off,,,,,0,0,1,,,,0,,,32,0
883712,note_off,,,,,0,0,1,,,,0,,,44,0
883712,note_off,,,,,0,0,1,,,,0,,,56,0
883712,note_off,,,,,0,0,1,,,,0,,,63,0
883712,note_on,,,,,0,0,1,,,,0,,,71,38
883712,control_change,,,,,0,0,1,,,,0,64,127,,
883712,note_off,,,,,0,0,1,,,,0,,,71,0
884224,note_on,,,,,512,0,1,,,,0,,,63,24
884224,note_on,,,,,0,0,1,,,,0,,,68,36
884264,note_off,,,,,40,0,1,,,,0,,,71,0
884566,note_off,,,,,0,0,1,,,,0,,,68,0
884566,note_off,,,,,302,0,1,,,,0,,,63,0
884736,note_on,,,,,0,0,1,,,,0,,,68,34
884736,note_on,,,,,170,0,1,,,,0,,,63,22
885078,note_off,,,,,0,0,1,,,,0,,,68,0
885078,note_off,,,,,342,0,1,,,,0,,,63,0
885248,note_on,,,,,170,0,1,,,,0,,,63,21
885248,note_on,,,,,0,0,1,,,,0,,,68,33
885590,note_off,,,,,342,0,1,,,,0,,,63,0
885590,note_off,,,,,0,0,1,,,,0,,,68,0
885760,note_on,,,,,170,0,1,,,,0,,,59,19
885760,note_on,,,,,0,0,1,,,,0,,,63,19
885760,note_on,,,,,0,0,1,,,,0,,,68,31
885760,set_tempo,,,,,3584,1,0,,500000,,,,,,
885775,control_change,,,,,15,0,1,,,,0,64,0,,
885775,control_change,,,,,0,0,1,,,,0,64,0,,
886272,note_on,,,,,0,0,1,,,,0,,,62,30
886272,note_on,,,,,0,0,1,,,,0,,,56,15
886272,set_tempo,,,,,512,1,0,,461538,,,,,,
886272,note_on,,,,,0,0,1,,,,0,,,51,6
886272,note_on,,,,,497,0,1,,,,0,,,59,18
886312,note_off,,,,,40,0,1,,,,0,,,59,0
886312,note_off,,,,,0,0,1,,,,0,,,63,0
886312,note_off,,,,,0,0,1,,,,0,,,68,0
886614,note_off,,,,,302,0,1,,,,0,,,59,0
886614,note_off,,,,,0,0,1,,,,0,,,56,0
886614,note_off,,,,,0,0,1,,,,0,,,62,0
886614,note_off,,,,,0,0,1,,,,0,,,51,0
886784,note_on,,,,,170,0,1,,,,0,,,59,20
886784,note_on,,,,,0,0,1,,,,0,,,62,32
886784,note_on,,,,,0,0,1,,,,0,,,51,10
886784,note_on,,,,,0,0,1,,,,0,,,56,19
887126,note_off,,,,,0,0,1,,,,0,,,56,0
887126,note_off,,,,,342,0,1,,,,0,,,59,0
887126,note_off,,,,,0,0,1,,,,0,,,62,0
887126,note_off,,,,,0,0,1,,,,0,,,51,0
887296,set_tempo,,,,,1024,1,0,,500000,,,,,,
887296,note_on,,,,,0,0,1,,,,0,,,62,35
887296,note_on,,,,,170,0,1,,,,0,,,59,23
887296,note_on,,,,,0,0,1,,,,0,,,56,22
887296,note_on,,,,,0,0,1,,,,0,,,51,13
887638,note_off,,,,,342,0,1,,,,0,,,59,0
887638,note_off,,,,,0,0,1,,,,0,,,62,0
887638,note_off,,,,,0,0,1,,,,0,,,51,0
887638,note_off,,,,,0,0,1,,,,0,,,56,0
887808,note_on,,,,,0,0,1,,,,0,,,62,40
887808,control_change,,,,,170,0,1,,,,0,64,0,,
887808,control_change,,,,,0,0,1,,,,0,64,0,,
887808,note_on,,,,,0,0,1,,,,0,,,59,28
887808,set_tempo,,,,,512,1,0,,600000,,,,,,
887808,note_on,,,,,0,0,1,,,,0,,,56,30
887808,note_on,,,,,0,0,1,,,,0,,,51,21
888320,note_on,,,,,512,0,1,,,,0,,,58,21
888320,note_on,,,,,0,0,1,,,,0,,,63,33
888320,note_on,,,,,0,0,1,,,,0,,,51,14
888320,note_on,,,,,0,0,1,,,,0,,,55,23
888320,set_tempo,,,,,512,1,0,,500000,,,,,,
888360,note_off,,,,,40,0,1,,,,0,,,59,0
888360,note_off,,,,,0,0,1,,,,0,,,62,0
888360,note_off,,,,,0,0,1,,,,0,,,56,0
888360,note_off,,,,,0,0,1,,,,0,,,51,0
888662,note_off,,,,,0,0,1,,,,0,,,63,0
888662,note_off,,,,,0,0,1,,,,0,,,55,0
888662,note_off,,,,,302,0,1,,,,0,,,58,0
888662,note_off,,,,,0,0,1,,,,0,,,51,0
888832,note_on,,,,,170,0,1,,,,0,,,58,19
888832,note_on,,,,,0,0,1,,,,0,,,63,31
888832,note_on,,,,,0,0,1,,,,0,,,51,10
888832,note_on,,,,,0,0,1,,,,0,,,55,19
889174,note_off,,,,,0,0,1,,,,0,,,63,0
889174,note_off,,,,,342,0,1,,,,0,,,58,0
889174,note_off,,,,,0,0,1,,,,0,,,51,0
889174,note_off,,,,,0,0,1,,,,0,,,55,0
889344,note_on,,,,,170,0,1,,,,0,,,58,16
889344,note_on,,,,,0,0,1,,,,0,,,63,28
889344,note_on,,,,,0,0,1,,,,0,,,51,7
889344,note_on,,,,,0,0,1,,,,0,,,55,16
889344,set_tempo,,,,,1024,1,0,,600000,,,,,,
889686,note_off,,,,,0,0,1,,,,0,,,55,0
889686,note_off,,,,,342,0,1,,,,0,,,58,0
889686,note_off,,,,,0,0,1,,,,0,,,63,0
889686,note_off,,,,,0,0,1,,,,0,,,51,0
889856,note_on,,,,,0,0,1,,,,0,,,63,26
889856,note_on,,,,,170,0,1,,,,0,,,58,14
889856,note_on,,,,,0,0,1,,,,0,,,55,13
889856,set_tempo,,,,,512,1,0,,666666,,,,,,
889856,note_on,,,,,0,0,1,,,,0,,,51,4
890368,note_off,,,,,512,0,1,,,,0,,,58,0
890368,note_on,,,,,0,0,1,,,,0,,,82,40
890368,note_off,,,,,0,0,1,,,,0,,,55,0
890368,note_off,,,,,0,0,1,,,,0,,,63,0
890368,set_tempo,,,,,512,1,0,,545454,,,,,,
890368,note_off,,,,,0,0,1,,,,0,,,51,0
890403,control_change,,,,,35,0,1,,,,0,64,127,,
890880,set_tempo,,,,,512,1,0,,500000,,,,,,
890880,note_off,,,,,477,0,1,,,,0,,,82,0
890880,note_on,,,,,0,0,1,,,,0,,,82,40
891392,note_on,,,,,0,0,1,,,,0,,,82,40
891392,note_off,,,,,512,0,1,,,,0,,,82,0
891904,control_change,,,,,0,0,1,,,,0,64,0,,
891904,control_change,,,,,0,0,1,,,,0,64,127,,
891904,control_change,,,,,0,0,1,,,,0,64,0,,
891904,note_off,,,,,0,0,1,,,,0,,,82,0
891904,note_on,,,,,0,0,1,,,,0,,,82,52
891904,note_on,,,,,0,0,1,,,,0,,,39,13
891904,note_on,,,,,0,0,1,,,,0,,,51,20
891904,control_change,,,,,512,0,1,,,,0,64,0,,
891904,set_tempo,,,,,1024,1,0,,625000,,,,,,
892162,control_change,,,,,258,0,1,,,,0,64,0,,
892416,set_tempo,,,,,512,1,0,,461538,,,,,,
892416,note_on,,,,,0,0,1,,,,0,,,67,18
892416,note_on,,,,,0,0,1,,,,0,,,63,10
892416,note_on,,,,,0,0,1,,,,0,,,76,22
892416,note_on,,,,,254,0,1,,,,0,,,73,13
892458,control_change,,,,,42,0,1,,,,0,64,127,,
892928,note_off,,,,,470,0,1,,,,0,,,82,0
892928,note_off,,,,,0,0,1,,,,0,,,67,0
892928,note_off,,,,,0,0,1,,,,0,,,63,0
892928,note_on,,,,,0,0,1,,,,0,,,67,19
892928,note_on,,,,,0,0,1,,,,0,,,63,11
892928,note_on,,,,,0,0,1,,,,0,,,85,50
893440,note_off,,,,,0,0,1,,,,0,,,63,0
893440,note_off,,,,,0,0,1,,,,0,,,67,0
893440,note_on,,,,,0,0,1,,,,0,,,73,13
893440,note_on,,,,,0,0,1,,,,0,,,76,22
893440,note_on,,,,,0,0,1,,,,0,,,63,12
893440,note_on,,,,,0,0,1,,,,0,,,67,20
893440,note_off,,,,,512,0,1,,,,0,,,73,0
893440,note_off,,,,,0,0,1,,,,0,,,76,0
893952,note_off,,,,,512,0,1,,,,0,,,85,0
893952,note_on,,,,,0,0,1,,,,0,,,82,49
893952,note_on,,,,,0,0,1,,,,0,,,63,13
893952,note_on,,,,,0,0,1,,,,0,,,67,22
893952,note_off,,,,,0,0,1,,,,0,,,63,0
893952,note_off,,,,,0,0,1,,,,0,,,67,0
894464,note_off,,,,,512,0,1,,,,0,,,73,0
894464,note_off,,,,,0,0,1,,,,0,,,76,0
894464,note_on,,,,,0,0,1,,,,0,,,73,13
894464,note_on,,,,,0,0,1,,,,0,,,76,22
894976,note_on,,,,,0,0,1,,,,0,,,85,47
894976,note_off,,,,,512,0,1,,,,0,,,82,0
895488,note_on,,,,,0,0,1,,,,0,,,76,22
895488,note_on,,,,,0,0,1,,,,0,,,73,13
895488,note_off,,,,,0,0,1,,,,0,,,76,0
895488,note_off,,,,,512,0,1,,,,0,,,73,0
896000,note_on,,,,,0,0,1,,,,0,,,82,52
896000,note_off,,,,,0,0,1,,,,0,,,67,0
896000,note_off,,,,,0,0,1,,,,0,,,63,0
896000,note_off,,,,,0,0,1,,,,0,,,51,0
896000,note_off,,,,,0,0,1,,,,0,,,39,0
896000,note_off,,,,,0,0,1,,,,0,,,85,0
896000,control_change,,,,,0,0,1,,,,0,64,0,,
896000,control_change,,,,,0,0,1,,,,0,64,127,,
896000,control_change,,,,,0,0,1,,,,0,64,0,,
896000,control_change,,,,,512,0,1,,,,0,64,0,,
896000,note_on,,,,,0,0,1,,,,0,,,51,20
896000,note_on,,,,,0,0,1,,,,0,,,39,13
896000,set_tempo,,,,,3584,1,0,,666666,,,,,,
896155,control_change,,,,,155,0,1,,,,0,64,0,,
896502,control_change,,,,,347,0,1,,,,0,64,127,,
896512,set_tempo,,,,,512,1,0,,461538,,,,,,
896512,note_on,,,,,0,0,1,,,,0,,,67,18
896512,note_on,,,,,0,0,1,,,,0,,,63,10
896512,note_on,,,,,0,0,1,,,,0,,,76,22
896512,note_on,,,,,0,0,1,,,,0,,,73,13
896512,note_off,,,,,0,0,1,,,,0,,,76,0
896512,note_off,,,,,10,0,1,,,,0,,,73,0
897024,note_off,,,,,0,0,1,,,,0,,,67,0
897024,note_off,,,,,0,0,1,,,,0,,,63,0
897024,note_on,,,,,0,0,1,,,,0,,,63,11
897024,note_on,,,,,0,0,1,,,,0,,,85,50
897024,note_off,,,,,512,0,1,,,,0,,,82,0
897024,note_on,,,,,0,0,1,,,,0,,,67,19
897536,note_on,,,,,0,0,1,,,,0,,,63,12
897536,note_on,,,,,0,0,1,,,,0,,,67,21
897536,note_on,,,,,0,0,1,,,,0,,,76,22
897536,note_on,,,,,0,0,1,,,,0,,,73,13
897536,note_off,,,,,0,0,1,,,,0,,,67,0
897536,note_off,,,,,0,0,1,,,,0,,,63,0
897536,note_off,,,,,0,0,1,,,,0,,,76,0
897536,note_off,,,,,512,0,1,,,,0,,,73,0
898048,note_on,,,,,0,0,1,,,,0,,,63,13
898048,note_off,,,,,0,0,1,,,,0,,,67,0
898048,note_on,,,,,0,0,1,,,,0,,,67,22
898048,set_tempo,,,,,1536,1,0,,500000,,,,,,
898048,note_on,,,,,0,0,1,,,,0,,,83,48
898048,note_off,,,,,0,0,1,,,,0,,,63,0
898048,note_off,,,,,0,0,1,,,,0,,,85,0
898048,control_change,,,,,512,0,1,,,,0,64,0,,
898434,control_change,,,,,386,0,1,,,,0,64,127,,
898560,note_off,,,,,0,0,1,,,,0,,,76,0
898560,note_on,,,,,0,0,1,,,,0,,,76,22
898560,note_off,,,,,126,0,1,,,,0,,,73,0
898560,note_on,,,,,0,0,1,,,,0,,,73,13
899072,note_on,,,,,0,0,1,,,,0,,,82,46
899072,note_off,,,,,512,0,1,,,,0,,,83,0
899584,note_off,,,,,0,0,1,,,,0,,,76,0
899584,note_on,,,,,0,0,1,,,,0,,,76,22
899584,note_on,,,,,0,0,1,,,,0,,,73,13
899584,note_off,,,,,512,0,1,,,,0,,,73,0
900096,note_off,,,,,0,0,1,,,,0,,,39,0
900096,control_change,,,,,0,0,1,,,,0,64,0,,
900096,note_off,,,,,0,0,1,,,,0,,,73,0
900096,note_off,,,,,0,0,1,,,,0,,,76,0
900096,note_off,,,,,0,0,1,,,,0,,,82,0
900096,note_off,,,,,0,0,1,,,,0,,,51,0
900096,note_off,,,,,0,0,1,,,,0,,,63,0
900096,note_off,,,,,0,0,1,,,,0,,,67,0
900096,note_on,,,,,0,0,1,,,,0,,,85,54
900096,note_on,,,,,0,0,1,,,,0,,,39,13
900096,note_on,,,,,0,0,1,,,,0,,,51,20
900096,control_change,,,,,0,0,1,,,,0,64,127,,
900096,control_change,,,,,0,0,1,,,,0,64,0,,
900096,control_change,,,,,0,0,1,,,,0,64,0,,
900096,set_tempo,,,,,2048,1,0,,705882,,,,,,
900096,control_change,,,,,512,0,1,,,,0,64,127,,
900303,control_change,,,,,0,0,1,,,,0,64,0,,
900303,control_change,,,,,207,0,1,,,,0,64,0,,
900578,control_change,,,,,275,0,1,,,,0,64,127,,
900578,control_change,,,,,0,0,1,,,,0,64,127,,
900608,note_on,,,,,0,0,1,,,,0,,,63,4
900608,note_on,,,,,0,0,1,,,,0,,,82,41
900608,note_on,,,,,0,0,1,,,,0,,,79,32
900608,note_on,,,,,30,0,1,,,,0,,,76,36
900608,note_on,,,,,0,0,1,,,,0,,,70,12
900608,set_tempo,,,,,512,1,0,,545454,,,,,,
900648,note_off,,,,,40,0,1,,,,0,,,85,0
900950,note_off,,,,,0,0,1,,,,0,,,82,0
900950,note_off,,,,,0,0,1,,,,0,,,79,0
900950,note_off,,,,,302,0,1,,,,0,,,76,0
901120,note_on,,,,,0,0,1,,,,0,,,63,5
901120,note_on,,,,,0,0,1,,,,0,,,82,42
901120,note_on,,,,,0,0,1,,,,0,,,79,32
901120,note_on,,,,,170,0,1,,,,0,,,76,32
901120,note_off,,,,,0,0,1,,,,0,,,63,0
901120,note_on,,,,,0,0,1,,,,0,,,70,13
901120,note_off,,,,,0,0,1,,,,0,,,70,0
901120,set_tempo,,,,,512,1,0,,500000,,,,,,
901462,note_off,,,,,0,0,1,,,,0,,,79,0
901462,note_off,,,,,0,0,1,,,,0,,,82,0
901462,note_off,,,,,342,0,1,,,,0,,,76,0
901632,note_on,,,,,0,0,1,,,,0,,,70,15
901632,note_on,,,,,0,0,1,,,,0,,,63,6
901632,note_on,,,,,0,0,1,,,,0,,,82,44
901632,note_on,,,,,0,0,1,,,,0,,,79,33
901632,note_on,,,,,170,0,1,,,,0,,,76,33
901632,note_off,,,,,0,0,1,,,,0,,,63,0
901632,note_off,,,,,0,0,1,,,,0,,,70,0
901724,control_change,,,,,92,0,1,,,,0,64,127,,
901778,control_change,,,,,54,0,1,,,,0,64,127,,
901974,note_off,,,,,0,0,1,,,,0,,,82,0
901974,note_off,,,,,0,0,1,,,,0,,,79,0
901974,note_off,,,,,196,0,1,,,,0,,,76,0
902144,note_off,,,,,0,0,1,,,,0,,,70,0
902144,note_off,,,,,0,0,1,,,,0,,,63,0
902144,note_on,,,,,170,0,1,,,,0,,,82,49
902144,note_on,,,,,0,0,1,,,,0,,,70,16
902144,note_on,,,,,0,0,1,,,,0,,,63,7
902144,set_tempo,,,,,1024,1,0,,545454,,,,,,
902656,set_tempo,,,,,512,1,0,,480000,,,,,,
902656,note_on,,,,,0,0,1,,,,0,,,79,44
902656,note_on,,,,,512,0,1,,,,0,,,73,32
902656,note_on,,,,,0,0,1,,,,0,,,76,32
902696,note_off,,,,,40,0,1,,,,0,,,82,0
902998,note_off,,,,,302,0,1,,,,0,,,73,0
902998,note_off,,,,,0,0,1,,,,0,,,76,0
902998,note_off,,,,,0,0,1,,,,0,,,79,0
903168,note_on,,,,,170,0,1,,,,0,,,73,30
903168,note_on,,,,,0,0,1,,,,0,,,79,42
903168,note_on,,,,,0,0,1,,,,0,,,76,30
903510,note_off,,,,,342,0,1,,,,0,,,73,0
903510,note_off,,,,,0,0,1,,,,0,,,76,0
903510,note_off,,,,,0,0,1,,,,0,,,79,0
903680,note_on,,,,,170,0,1,,,,0,,,73,28
903680,note_on,,,,,0,0,1,,,,0,,,76,28
903680,note_on,,,,,0,0,1,,,,0,,,79,40
904022,note_off,,,,,342,0,1,,,,0,,,73,0
904022,note_off,,,,,0,0,1,,,,0,,,76,0
904022,note_off,,,,,0,0,1,,,,0,,,79,0
904192,set_tempo,,,,,1536,1,0,,545454,,,,,,
904192,note_on,,,,,0,0,1,,,,0,,,79,48
904192,note_off,,,,,0,0,1,,,,0,,,70,0
904192,note_off,,,,,0,0,1,,,,0,,,63,0
904192,note_off,,,,,0,0,1,,,,0,,,51,0
904192,control_change,,,,,0,0,1,,,,0,64,0,,
904192,control_change,,,,,0,0,1,,,,0,64,127,,
904192,note_off,,,,,0,0,1,,,,0,,,39,0
904192,control_change,,,,,170,0,1,,,,0,64,127,,
904219,control_change,,,,,27,0,1,,,,0,64,127,,
904420,control_change,,,,,201,0,1,,,,0,64,0,,
904420,control_change,,,,,0,0,1,,,,0,64,0,,
904704,note_on,,,,,284,0,1,,,,0,,,67,27
904704,set_tempo,,,,,512,1,0,,500000,,,,,,
904704,note_on,,,,,0,0,1,,,,0,,,70,27
904704,note_on,,,,,0,0,1,,,,0,,,76,42
904744,note_off,,,,,40,0,1,,,,0,,,79,0
905046,note_off,,,,,0,0,1,,,,0,,,76,0
905046,note_off,,,,,0,0,1,,,,0,,,70,0
905046,note_off,,,,,302,0,1,,,,0,,,67,0
905216,note_on,,,,,0,0,1,,,,0,,,76,38
905216,note_on,,,,,0,0,1,,,,0,,,70,23
905216,note_on,,,,,170,0,1,,,,0,,,67,23
905216,note_on,,,,,0,0,1,,,,0,,,61,19
905216,note_on,,,,,0,0,1,,,,0,,,51,7
905216,set_tempo,,,,,512,1,0,,461538,,,,,,
905558,note_off,,,,,0,0,1,,,,0,,,51,0
905558,note_off,,,,,0,0,1,,,,0,,,76,0
905558,note_off,,,,,0,0,1,,,,0,,,70,0
905558,note_off,,,,,342,0,1,,,,0,,,67,0
905558,note_off,,,,,0,0,1,,,,0,,,61,0
905728,note_on,,,,,0,0,1,,,,0,,,61,19
905728,note_on,,,,,170,0,1,,,,0,,,67,24
905728,note_on,,,,,0,0,1,,,,0,,,70,24
905728,note_on,,,,,0,0,1,,,,0,,,76,41
905728,note_on,,,,,0,0,1,,,,0,,,51,7
906070,note_off,,,,,0,0,1,,,,0,,,61,0
906070,note_off,,,,,0,0,1,,,,0,,,51,0
906070,note_off,,,,,0,0,1,,,,0,,,76,0
906070,note_off,,,,,342,0,1,,,,0,,,67,0
906070,note_off,,,,,0,0,1,,,,0,,,70,0
906240,note_on,,,,,0,0,1,,,,0,,,51,7
906240,set_tempo,,,,,1024,1,0,,500000,,,,,,
906240,note_on,,,,,0,0,1,,,,0,,,61,19
906240,note_on,,,,,170,0,1,,,,0,,,67,23
906240,note_on,,,,,0,0,1,,,,0,,,70,23
906240,note_on,,,,,0,0,1,,,,0,,,76,42
906255,control_change,,,,,15,0,1,,,,0,64,0,,
906281,control_change,,,,,26,0,1,,,,0,64,0,,
906582,note_off,,,,,0,0,1,,,,0,,,61,0
906582,note_off,,,,,0,0,1,,,,0,,,51,0
906582,note_off,,,,,0,0,1,,,,0,,,76,0
906582,note_off,,,,,0,0,1,,,,0,,,70,0
906582,note_off,,,,,301,0,1,,,,0,,,67,0
906752,set_tempo,,,,,512,1,0,,461538,,,,,,
906752,note_on,,,,,170,0,1,,,,0,,,67,23
906752,note_on,,,,,0,0,1,,,,0,,,70,23
906752,note_on,,,,,0,0,1,,,,0,,,76,41
906752,note_on,,,,,0,0,1,,,,0,,,51,7
906752,note_on,,,,,0,0,1,,,,0,,,61,19
907094,note_off,,,,,0,0,1,,,,0,,,76,0
907094,note_off,,,,,0,0,1,,,,0,,,61,0
907094,note_off,,,,,0,0,1,,,,0,,,51,0
907094,note_off,,,,,342,0,1,,,,0,,,67,0
907094,note_off,,,,,0,0,1,,,,0,,,70,0
907264,note_on,,,,,0,0,1,,,,0,,,51,11
907264,set_tempo,,,,,512,1,0,,500000,,,,,,
907264,note_on,,,,,170,0,1,,,,0,,,67,23
907264,note_on,,,,,0,0,1,,,,0,,,70,23
907264,note_on,,,,,0,0,1,,,,0,,,75,40
907264,note_on,,,,,0,0,1,,,,0,,,63,28
907606,note_off,,,,,0,0,1,,,,0,,,70,0
907606,note_off,,,,,0,0,1,,,,0,,,75,0
907606,note_off,,,,,0,0,1,,,,0,,,63,0
907606,note_off,,,,,342,0,1,,,,0,,,67,0
907606,note_off,,,,,0,0,1,,,,0,,,51,0
907776,note_on,,,,,0,0,1,,,,0,,,64,27
907776,note_on,,,,,0,0,1,,,,0,,,51,10
907776,note_on,,,,,0,0,1,,,,0,,,73,39
907776,set_tempo,,,,,512,1,0,,600000,,,,,,
907776,note_on,,,,,170,0,1,,,,0,,,67,24
907776,note_on,,,,,0,0,1,,,,0,,,70,24
908118,note_off,,,,,342,0,1,,,,0,,,67,0
908118,note_off,,,,,0,0,1,,,,0,,,70,0
908118,note_off,,,,,0,0,1,,,,0,,,73,0
908118,note_off,,,,,0,0,1,,,,0,,,51,0
908118,note_off,,,,,0,0,1,,,,0,,,64,0
908288,note_on,,,,,0,0,1,,,,0,,,64,31
908288,note_on,,,,,0,0,1,,,,0,,,70,37
908288,note_on,,,,,0,0,1,,,,0,,,67,22
908288,control_change,,,,,0,0,1,,,,0,64,0,,
908288,control_change,,,,,0,0,1,,,,0,64,0,,
908288,control_change,,,,,170,0,1,,,,0,64,0,,
908288,set_tempo,,,,,512,1,0,,600000,,,,,,
908288,control_change,,,,,0,0,1,,,,0,64,0,,
908288,note_on,,,,,0,0,1,,,,0,,,56,14
908800,note_on,,,,,512,0,1,,,,0,,,68,19
908800,note_on,,,,,0,0,1,,,,0,,,71,31
908800,note_on,,,,,0,0,1,,,,0,,,63,27
908800,note_on,,,,,0,0,1,,,,0,,,56,15
908800,set_tempo,,,,,512,1,0,,500000,,,,,,
908840,note_off,,,,,0,0,1,,,,0,,,56,0
908840,note_off,,,,,0,0,1,,,,0,,,64,0
908840,note_off,,,,,0,0,1,,,,0,,,70,0
908840,note_off,,,,,40,0,1,,,,0,,,67,0
909142,note_off,,,,,302,0,1,,,,0,,,68,0
909142,note_off,,,,,0,0,1,,,,0,,,71,0
909142,note_off,,,,,0,0,1,,,,0,,,56,0
909142,note_off,,,,,0,0,1,,,,0,,,63,0
909312,note_on,,,,,0,0,1,,,,0,,,56,11
909312,note_on,,,,,170,0,1,,,,0,,,68,17
909312,note_on,,,,,0,0,1,,,,0,,,71,29
909312,note_on,,,,,0,0,1,,,,0,,,63,23
909654,note_off,,,,,0,0,1,,,,0,,,63,0
909654,note_off,,,,,0,0,1,,,,0,,,56,0
909654,note_off,,,,,342,0,1,,,,0,,,68,0
909654,note_off,,,,,0,0,1,,,,0,,,71,0
909824,note_on,,,,,0,0,1,,,,0,,,63,20
909824,note_on,,,,,0,0,1,,,,0,,,56,8
909824,note_on,,,,,0,0,1,,,,0,,,71,26
909824,note_on,,,,,170,0,1,,,,0,,,68,14
909824,set_tempo,,,,,1024,1,0,,600000,,,,,,
910166,note_off,,,,,0,0,1,,,,0,,,63,0
910166,note_off,,,,,342,0,1,,,,0,,,68,0
910166,note_off,,,,,0,0,1,,,,0,,,71,0
910166,note_off,,,,,0,0,1,,,,0,,,56,0
910336,note_on,,,,,170,0,1,,,,0,,,68,11
910336,note_on,,,,,0,0,1,,,,0,,,71,23
910336,note_on,,,,,0,0,1,,,,0,,,56,5
910336,note_on,,,,,0,0,1,,,,0,,,63,17
910336,set_tempo,,,,,512,1,0,,666666,,,,,,
910848,set_tempo,,,,,512,1,0,,545454,,,,,,
910848,note_off,,,,,512,0,1,,,,0,,,68,0
910848,note_off,,,,,0,0,1,,,,0,,,71,0
910848,note_off,,,,,0,0,1,,,,0,,,56,0
910848,note_off,,,,,0,0,1,,,,0,,,63,0
910848,note_on,,,,,0,0,1,,,,0,,,75,40
911360,set_tempo,,,,,512,1,0,,500000,,,,,,
911360,note_off,,,,,512,0,1,,,,0,,,75,0
911360,note_on,,,,,0,0,1,,,,0,,,75,42
911872,note_on,,,,,0,0,1,,,,0,,,75,43
911872,set_tempo,,,,,512,1,0,,625000,,,,,,
911872,note_off,,,,,512,0,1,,,,0,,,75,0
912384,control_change,,,,,512,0,1,,,,0,64,0,,
912384,control_change,,,,,0,0,1,,,,0,64,0,,
912384,control_change,,,,,0,0,1,,,,0,64,127,,
912384,control_change,,,,,0,0,1,,,,0,64,0,,
912384,note_off,,,,,0,0,1,,,,0,,,75,0
912384,note_on,,,,,0,0,1,,,,0,,,75,54
912384,note_on,,,,,0,0,1,,,,0,,,32,23
912384,note_on,,,,,0,0,1,,,,0,,,44,20
912384,set_tempo,,,,,512,1,0,,625000,,,,,,
912642,control_change,,,,,258,0,1,,,,0,64,0,,
912896,note_on,,,,,0,0,1,,,,0,,,60,11
912896,note_on,,,,,0,0,1,,,,0,,,56,19
912896,set_tempo,,,,,512,1,0,,461538,,,,,,
912896,note_on,,,,,0,0,1,,,,0,,,72,26
912896,note_on,,,,,254,0,1,,,,0,,,68,17
912896,note_on,,,,,0,0,1,,,,0,,,51,11
912938,control_change,,,,,42,0,1,,,,0,64,127,,
913408,note_off,,,,,470,0,1,,,,0,,,75,0
913408,note_on,,,,,0,0,1,,,,0,,,80,53
913408,note_on,,,,,0,0,1,,,,0,,,60,12
913408,note_on,,,,,0,0,1,,,,0,,,56,20
913408,note_on,,,,,0,0,1,,,,0,,,51,12
913408,note_off,,,,,0,0,1,,,,0,,,56,0
913408,note_off,,,,,0,0,1,,,,0,,,60,0
913408,note_off,,,,,0,0,1,,,,0,,,51,0
913920,note_on,,,,,0,0,1,,,,0,,,60,13
913920,note_on,,,,,0,0,1,,,,0,,,56,21
913920,note_on,,,,,0,0,1,,,,0,,,51,13
913920,note_on,,,,,0,0,1,,,,0,,,72,26
913920,note_off,,,,,512,0,1,,,,0,,,68,0
913920,note_off,,,,,0,0,1,,,,0,,,60,0
913920,note_off,,,,,0,0,1,,,,0,,,56,0
913920,note_off,,,,,0,0,1,,,,0,,,51,0
913920,note_off,,,,,0,0,1,,,,0,,,72,0
913920,note_on,,,,,0,0,1,,,,0,,,68,17
914432,note_off,,,,,0,0,1,,,,0,,,60,0
914432,note_off,,,,,0,0,1,,,,0,,,56,0
914432,note_off,,,,,0,0,1,,,,0,,,51,0
914432,note_on,,,,,0,0,1,,,,0,,,56,23
914432,note_on,,,,,0,0,1,,,,0,,,75,53
914432,note_off,,,,,512,0,1,,,,0,,,80,0
914432,note_on,,,,,0,0,1,,,,0,,,60,14
914432,note_on,,,,,0,0,1,,,,0,,,51,14
914944,note_off,,,,,512,0,1,,,,0,,,68,0
914944,note_off,,,,,0,0,1,,,,0,,,72,0
914944,note_on,,,,,0,0,1,,,,0,,,68,21
914944,note_on,,,,,0,0,1,,,,0,,,72,30
915456,note_off,,,,,0,0,1,,,,0,,,60,0
915456,note_off,,,,,0,0,1,,,,0,,,56,0
915456,note_off,,,,,512,0,1,,,,0,,,75,0
915456,note_off,,,,,0,0,1,,,,0,,,51,0
915456,note_on,,,,,0,0,1,,,,0,,,80,56
915968,note_on,,,,,0,0,1,,,,0,,,68,25
915968,note_on,,,,,0,0,1,,,,0,,,72,34
915968,note_off,,,,,0,0,1,,,,0,,,72,0
915968,note_off,,,,,512,0,1,,,,0,,,68,0
916480,set_tempo,,,,,3584,1,0,,666666,,,,,,
916480,note_on,,,,,0,0,1,,,,0,,,49,20
916480,note_on,,,,,0,0,1,,,,0,,,37,23
916480,note_on,,,,,0,0,1,,,,0,,,78,55
916480,note_off,,,,,0,0,1,,,,0,,,44,0
916480,note_off,,,,,0,0,1,,,,0,,,72,0
916480,note_off,,,,,0,0,1,,,,0,,,68,0
916480,control_change,,,,,0,0,1,,,,0,64,0,,
916480,control_change,,,,,0,0,1,,,,0,64,127,,
916480,control_change,,,,,0,0,1,,,,0,64,0,,
916480,control_change,,,,,512,0,1,,,,0,64,0,,
916480,note_off,,,,,0,0,1,,,,0,,,80,0
916480,note_off,,,,,0,0,1,,,,0,,,32,0
916635,control_change,,,,,155,0,1,,,,0,64,0,,
916982,control_change,,,,,347,0,1,,,,0,64,127,,
916992,note_on,,,,,0,0,1,,,,0,,,73,28
916992,note_on,,,,,0,0,1,,,,0,,,56,11
916992,note_on,,,,,0,0,1,,,,0,,,61,19
916992,note_on,,,,,10,0,1,,,,0,,,68,18
916992,set_tempo,,,,,512,1,0,,461538,,,,,,
917504,note_off,,,,,512,0,1,,,,0,,,78,0
917504,note_on,,,,,0,0,1,,,,0,,,76,54
917504,note_on,,,,,0,0,1,,,,0,,,56,12
917504,note_on,,,,,0,0,1,,,,0,,,61,20
917504,note_off,,,,,0,0,1,,,,0,,,56,0
917504,note_off,,,,,0,0,1,,,,0,,,61,0
918016,note_on,,,,,0,0,1,,,,0,,,68,17
918016,note_on,,,,,0,0,1,,,,0,,,61,22
918016,note_on,,,,,0,0,1,,,,0,,,56,13
918016,note_on,,,,,0,0,1,,,,0,,,73,27
918016,note_off,,,,,0,0,1,,,,0,,,61,0
918016,note_off,,,,,0,0,1,,,,0,,,56,0
918016,note_off,,,,,0,0,1,,,,0,,,73,0
918016,note_off,,,,,512,0,1,,,,0,,,68,0
918528,control_change,,,,,512,0,1,,,,0,64,0,,
918528,note_off,,,,,0,0,1,,,,0,,,76,0
918528,note_off,,,,,0,0,1,,,,0,,,56,0
918528,note_off,,,,,0,0,1,,,,0,,,61,0
918528,note_on,,,,,0,0,1,,,,0,,,75,52
918528,note_on,,,,,0,0,1,,,,0,,,56,14
918528,note_on,,,,,0,0,1,,,,0,,,61,23
918914,control_change,,,,,386,0,1,,,,0,64,127,,
919040,note_off,,,,,126,0,1,,,,0,,,68,0
919040,note_off,,,,,0,0,1,,,,0,,,73,0
919040,note_on,,,,,0,0,1,,,,0,,,68,26
919040,note_on,,,,,0,0,1,,,,0,,,64,17
919552,note_off,,,,,0,0,1,,,,0,,,56,0
919552,note_off,,,,,0,0,1,,,,0,,,61,0
919552,note_off,,,,,512,0,1,,,,0,,,75,0
919552,note_on,,,,,0,0,1,,,,0,,,73,46
920064,note_off,,,,,512,0,1,,,,0,,,64,0
920064,note_off,,,,,0,0,1,,,,0,,,68,0
920064,note_on,,,,,0,0,1,,,,0,,,64,16
920064,note_on,,,,,0,0,1,,,,0,,,68,25
920576,note_off,,,,,0,0,1,,,,0,,,68,0
920576,note_on,,,,,0,0,1,,,,0,,,42,20
920576,note_on,,,,,0,0,1,,,,0,,,30,23
920576,note_on,,,,,0,0,1,,,,0,,,73,51
920576,note_off,,,,,0,0,1,,,,0,,,49,0
920576,note_off,,,,,0,0,1,,,,0,,,37,0
920576,note_off,,,,,0,0,1,,,,0,,,73,0
920576,control_change,,,,,0,0,1,,,,0,64,0,,
920576,note_off,,,,,0,0,1,,,,0,,,64,0
920576,control_change,,,,,0,0,1,,,,0,64,127,,
920576,control_change,,,,,0,0,1,,,,0,64,0,,
920576,control_change,,,,,0,0,1,,,,0,64,0,,
920576,control_change,,,,,512,0,1,,,,0,64,0,,
920576,set_tempo,,,,,3584,1,0,,545454,,,,,,
920576,control_change,,,,,0,0,1,,,,0,64,0,,
920834,control_change,,,,,258,0,1,,,,0,64,0,,
921088,note_on,,,,,0,0,1,,,,0,,,61,19
921088,set_tempo,,,,,512,1,0,,461538,,,,,,
921088,note_on,,,,,254,0,1,,,,0,,,66,19
921088,note_on,,,,,0,0,1,,,,0,,,70,28
921088,note_on,,,,,0,0,1,,,,0,,,54,11
921088,note_on,,,,,0,0,1,,,,0,,,64,11
921130,control_change,,,,,42,0,1,,,,0,64,127,,
921600,note_on,,,,,0,0,1,,,,0,,,64,12
921600,note_on,,,,,0,0,1,,,,0,,,54,12
921600,note_off,,,,,470,0,1,,,,0,,,73,0
921600,note_off,,,,,0,0,1,,,,0,,,54,0
921600,note_on,,,,,0,0,1,,,,0,,,78,50
921600,note_off,,,,,0,0,1,,,,0,,,61,0
921600,note_on,,,,,0,0,1,,,,0,,,61,20
921600,note_off,,,,,0,0,1,,,,0,,,64,0
922112,note_off,,,,,512,0,1,,,,0,,,66,0
922112,note_off,,,,,0,0,1,,,,0,,,70,0
922112,note_off,,,,,0,0,1,,,,0,,,54,0
922112,note_off,,,,,0,0,1,,,,0,,,61,0
922112,note_off,,,,,0,0,1,,,,0,,,64,0
922112,note_on,,,,,0,0,1,,,,0,,,66,19
922112,note_on,,,,,0,0,1,,,,0,,,70,28
922112,note_on,,,,,0,0,1,,,,0,,,54,13
922112,note_on,,,,,0,0,1,,,,0,,,61,21
922112,note_on,,,,,0,0,1,,,,0,,,64,13
922624,note_off,,,,,0,0,1,,,,0,,,61,0
922624,note_off,,,,,0,0,1,,,,0,,,54,0
922624,note_on,,,,,0,0,1,,,,0,,,64,14
922624,note_on,,,,,0,0,1,,,,0,,,61,23
922624,note_off,,,,,0,0,1,,,,0,,,64,0
922624,note_on,,,,,0,0,1,,,,0,,,73,53
922624,note_off,,,,,512,0,1,,,,0,,,78,0
922624,note_on,,,,,0,0,1,,,,0,,,54,14
923136,note_off,,,,,512,0,1,,,,0,,,66,0
923136,note_off,,,,,0,0,1,,,,0,,,70,0
923136,note_on,,,,,0,0,1,,,,0,,,66,23
923136,note_on,,,,,0,0,1,,,,0,,,70,32
923648,note_off,,,,,0,0,1,,,,0,,,64,0
923648,note_off,,,,,0,0,1,,,,0,,,54,0
923648,note_off,,,,,0,0,1,,,,0,,,61,0
923648,note_off,,,,,512,0,1,,,,0,,,73,0
923648,note_on,,,,,0,0,1,,,,0,,,78,55
924160,note_off,,,,,512,0,1,,,,0,,,66,0
924160,note_off,,,,,0,0,1,,,,0,,,70,0
924160,note_on,,,,,0,0,1,,,,0,,,66,27
924160,note_on,,,,,0,0,1,,,,0,,,70,36
924672,note_off,,,,,0,0,1,,,,0,,,78,0
924672,note_on,,,,,0,0,1,,,,0,,,47,20
924672,note_on,,,,,0,0,1,,,,0,,,35,23
924672,note_on,,,,,0,0,1,,,,0,,,76,56
924672,set_tempo,,,,,3584,1,0,,666666,,,,,,
924672,note_off,,,,,0,0,1,,,,0,,,42,0
924672,note_off,,,,,0,0,1,,,,0,,,30,0
924672,note_off,,,,,0,0,1,,,,0,,,70,0
924672,control_change,,,,,0,0,1,,,,0,64,0,,
924672,control_change,,,,,0,0,1,,,,0,64,0,,
924672,control_change,,,,,0,0,1,,,,0,64,0,,
924672,control_change,,,,,0,0,1,,,,0,64,127,,
924672,control_change,,,,,0,0,1,,,,0,64,0,,
924672,control_change,,,,,512,0,1,,,,0,64,0,,
924672,note_off,,,,,0,0,1,,,,0,,,66,0
924827,control_change,,,,,155,0,1,,,,0,64,0,,
925174,control_change,,,,,347,0,1,,,,0,64,127,,
925184,note_on,,,,,0,0,1,,,,0,,,63,11
925184,note_on,,,,,0,0,1,,,,0,,,59,19
925184,note_on,,,,,10,0,1,,,,0,,,66,20
925184,note_on,,,,,0,0,1,,,,0,,,71,30
925184,set_tempo,,,,,512,1,0,,461538,,,,,,
925184,note_on,,,,,0,0,1,,,,0,,,54,11
925696,note_off,,,,,0,0,1,,,,0,,,63,0
925696,note_off,,,,,0,0,1,,,,0,,,59,0
925696,note_off,,,,,0,0,1,,,,0,,,54,0
925696,note_on,,,,,0,0,1,,,,0,,,54,12
925696,note_on,,,,,0,0,1,,,,0,,,59,20
925696,note_on,,,,,0,0,1,,,,0,,,75,52
925696,note_off,,,,,512,0,1,,,,0,,,76,0
925696,note_on,,,,,0,0,1,,,,0,,,63,12
926208,note_off,,,,,512,0,1,,,,0,,,66,0
926208,note_off,,,,,0,0,1,,,,0,,,71,0
926208,note_off,,,,,0,0,1,,,,0,,,54,0
926208,note_on,,,,,0,0,1,,,,0,,,71,29
926208,note_on,,,,,0,0,1,,,,0,,,63,13
926208,note_on,,,,,0,0,1,,,,0,,,66,19
926208,note_on,,,,,0,0,1,,,,0,,,54,13
926208,note_on,,,,,0,0,1,,,,0,,,59,22
926208,note_off,,,,,0,0,1,,,,0,,,59,0
926208,note_off,,,,,0,0,1,,,,0,,,63,0
926720,note_off,,,,,0,0,1,,,,0,,,63,0
926720,control_change,,,,,512,0,1,,,,0,64,0,,
926720,note_off,,,,,0,0,1,,,,0,,,75,0
926720,note_off,,,,,0,0,1,,,,0,,,54,0
926720,note_off,,,,,0,0,1,,,,0,,,59,0
926720,note_on,,,,,0,0,1,,,,0,,,63,14
926720,note_on,,,,,0,0,1,,,,0,,,73,49
926720,note_on,,,,,0,0,1,,,,0,,,54,14
926720,note_on,,,,,0,0,1,,,,0,,,59,23
927106,control_change,,,,,386,0,1,,,,0,64,127,,
927232,note_on,,,,,0,0,1,,,,0,,,66,28
927232,note_on,,,,,0,0,1,,,,0,,,63,19
927232,note_off,,,,,0,0,1,,,,0,,,71,0
927232,note_off,,,,,126,0,1,,,,0,,,66,0
927744,note_off,,,,,0,0,1,,,,0,,,63,0
927744,note_off,,,,,0,0,1,,,,0,,,54,0
927744,note_off,,,,,0,0,1,,,,0,,,59,0
927744,note_off,,,,,512,0,1,,,,0,,,73,0
927744,note_on,,,,,0,0,1,,,,0,,,71,45
928256,note_off,,,,,512,0,1,,,,0,,,63,0
928256,note_on,,,,,0,0,1,,,,0,,,63,18
928256,note_on,,,,,0,0,1,,,,0,,,66,27
928256,note_off,,,,,0,0,1,,,,0,,,66,0
928768,note_off,,,,,0,0,1,,,,0,,,35,0
928768,note_on,,,,,0,0,1,,,,0,,,44,20
928768,note_on,,,,,0,0,1,,,,0,,,32,23
928768,note_on,,,,,0,0,1,,,,0,,,71,49
928768,note_off,,,,,0,0,1,,,,0,,,47,0
928768,note_off,,,,,0,0,1,,,,0,,,71,0
928768,note_off,,,,,0,0,1,,,,0,,,66,0
928768,control_change,,,,,0,0,1,,,,0,64,0,,
928768,note_off,,,,,0,0,1,,,,0,,,63,0
928768,control_change,,,,,0,0,1,,,,0,64,0,,
928768,control_change,,,,,0,0,1,,,,0,64,127,,
928768,control_change,,,,,512,0,1,,,,0,64,0,,
928768,set_tempo,,,,,3584,1,0,,705882,,,,,,
928768,control_change,,,,,0,0,1,,,,0,64,0,,
929026,control_change,,,,,258,0,1,,,,0,64,0,,
929280,note_on,,,,,0,0,1,,,,0,,,68,29
929280,note_on,,,,,0,0,1,,,,0,,,56,19
929280,set_tempo,,,,,512,1,0,,500000,,,,,,
929280,note_on,,,,,0,0,1,,,,0,,,59,11
929280,note_on,,,,,254,0,1,,,,0,,,63,20
929280,note_on,,,,,0,0,1,,,,0,,,51,11
929322,control_change,,,,,42,0,1,,,,0,64,127,,
929792,note_off,,,,,0,0,1,,,,0,,,56,0
929792,note_off,,,,,0,0,1,,,,0,,,59,0
929792,note_on,,,,,0,0,1,,,,0,,,59,12
929792,note_off,,,,,0,0,1,,,,0,,,51,0
929792,note_on,,,,,0,0,1,,,,0,,,56,20
929792,note_off,,,,,470,0,1,,,,0,,,71,0
929792,note_on,,,,,0,0,1,,,,0,,,73,49
929792,set_tempo,,,,,512,1,0,,461538,,,,,,
929792,note_on,,,,,0,0,1,,,,0,,,51,12
930304,note_on,,,,,0,0,1,,,,0,,,56,22
930304,note_on,,,,,0,0,1,,,,0,,,59,13
930304,note_on,,,,,0,0,1,,,,0,,,51,13
930304,note_on,,,,,0,0,1,,,,0,,,63,25
930304,note_off,,,,,0,0,1,,,,0,,,59,0
930304,note_on,,,,,0,0,1,,,,0,,,68,34
930304,note_off,,,,,0,0,1,,,,0,,,51,0
930304,note_off,,,,,0,0,1,,,,0,,,68,0
930304,note_off,,,,,512,0,1,,,,0,,,63,0
930304,note_off,,,,,0,0,1,,,,0,,,56,0
930816,note_off,,,,,0,0,1,,,,0,,,59,0
930816,note_off,,,,,512,0,1,,,,0,,,73,0
930816,note_on,,,,,0,0,1,,,,0,,,70,50
930816,note_on,,,,,0,0,1,,,,0,,,51,14
930816,note_on,,,,,0,0,1,,,,0,,,56,23
930816,note_on,,,,,0,0,1,,,,0,,,59,14
930816,note_off,,,,,0,0,1,,,,0,,,51,0
930816,note_off,,,,,0,0,1,,,,0,,,56,0
931328,note_on,,,,,0,0,1,,,,0,,,63,26
931328,note_on,,,,,0,0,1,,,,0,,,68,35
931328,note_off,,,,,0,0,1,,,,0,,,68,0
931328,note_off,,,,,512,0,1,,,,0,,,63,0
931840,note_off,,,,,512,0,1,,,,0,,,70,0
931840,note_on,,,,,0,0,1,,,,0,,,71,56
931840,note_off,,,,,0,0,1,,,,0,,,51,0
931840,note_off,,,,,0,0,1,,,,0,,,56,0
931840,note_off,,,,,0,0,1,,,,0,,,59,0
931840,set_tempo,,,,,2048,1,0,,500000,,,,,,
932352,note_on,,,,,0,0,1,,,,0,,,68,37
932352,note_off,,,,,512,0,1,,,,0,,,63,0
932352,note_off,,,,,0,0,1,,,,0,,,68,0
932352,note_on,,,,,0,0,1,,,,0,,,63,28
932864,note_off,,,,,0,0,1,,,,0,,,44,0
932864,note_off,,,,,0,0,1,,,,0,,,32,0
932864,note_off,,,,,0,0,1,,,,0,,,68,0
932864,note_off,,,,,0,0,1,,,,0,,,63,0
932864,control_change,,,,,0,0,1,,,,0,64,0,,
932864,set_tempo,,,,,1024,1,0,,545454,,,,,,
932864,control_change,,,,,0,0,1,,,,0,64,0,,
932864,control_change,,,,,0,0,1,,,,0,64,127,,
932864,control_change,,,,,512,0,1,,,,0,64,0,,
932864,note_on,,,,,0,0,1,,,,0,,,75,63
932864,control_change,,,,,0,0,1,,,,0,64,0,,
932864,note_on,,,,,0,0,1,,,,0,,,34,20
932864,note_off,,,,,0,0,1,,,,0,,,71,0
932864,note_on,,,,,0,0,1,,,,0,,,46,26
933122,control_change,,,,,258,0,1,,,,0,64,0,,
933376,note_on,,,,,254,0,1,,,,0,,,64,33
933376,note_on,,,,,0,0,1,,,,0,,,70,42
933376,note_on,,,,,0,0,1,,,,0,,,49,17
933376,note_on,,,,,0,0,1,,,,0,,,52,25
933376,note_on,,,,,0,0,1,,,,0,,,58,17
933418,control_change,,,,,42,0,1,,,,0,64,127,,
933888,set_tempo,,,,,1024,1,0,,461538,,,,,,
933888,note_off,,,,,0,0,1,,,,0,,,58,0
933888,note_off,,,,,0,0,1,,,,0,,,49,0
933888,note_on,,,,,0,0,1,,,,0,,,58,18
933888,note_off,,,,,0,0,1,,,,0,,,52,0
933888,note_on,,,,,0,0,1,,,,0,,,49,18
933888,note_off,,,,,470,0,1,,,,0,,,75,0
933888,note_on,,,,,0,0,1,,,,0,,,73,52
933888,note_on,,,,,0,0,1,,,,0,,,52,26
934400,note_on,,,,,0,0,1,,,,0,,,58,19
934400,note_on,,,,,0,0,1,,,,0,,,52,28
934400,note_on,,,,,0,0,1,,,,0,,,49,19
934400,note_on,,,,,0,0,1,,,,0,,,70,35
934400,note_on,,,,,0,0,1,,,,0,,,64,26
934400,note_off,,,,,0,0,1,,,,0,,,52,0
934400,note_off,,,,,0,0,1,,,,0,,,49,0
934400,note_off,,,,,0,0,1,,,,0,,,70,0
934400,note_off,,,,,512,0,1,,,,0,,,64,0
934400,note_off,,,,,0,0,1,,,,0,,,58,0
934912,note_off,,,,,0,0,1,,,,0,,,52,0
934912,note_off,,,,,0,0,1,,,,0,,,58,0
934912,note_off,,,,,0,0,1,,,,0,,,49,0
934912,note_off,,,,,512,0,1,,,,0,,,73,0
934912,note_on,,,,,0,0,1,,,,0,,,52,29
934912,note_on,,,,,0,0,1,,,,0,,,49,20
934912,note_on,,,,,0,0,1,,,,0,,,71,49
934912,note_on,,,,,0,0,1,,,,0,,,58,20
935424,note_off,,,,,512,0,1,,,,0,,,64,0
935424,note_off,,,,,0,0,1,,,,0,,,70,0
935424,note_on,,,,,0,0,1,,,,0,,,61,23
935424,note_on,,,,,0,0,1,,,,0,,,64,32
935936,note_off,,,,,0,0,1,,,,0,,,52,0
935936,note_off,,,,,0,0,1,,,,0,,,58,0
935936,note_on,,,,,0,0,1,,,,0,,,70,47
935936,note_off,,,,,512,0,1,,,,0,,,71,0
935936,note_off,,,,,0,0,1,,,,0,,,49,0
936448,note_off,,,,,512,0,1,,,,0,,,61,0
936448,note_off,,,,,0,0,1,,,,0,,,64,0
936448,note_on,,,,,0,0,1,,,,0,,,61,21
936448,note_on,,,,,0,0,1,,,,0,,,64,30
936960,note_off,,,,,0,0,1,,,,0,,,70,0
936960,note_on,,,,,0,0,1,,,,0,,,39,20
936960,note_on,,,,,0,0,1,,,,0,,,71,54
936960,note_off,,,,,0,0,1,,,,0,,,46,0
936960,note_off,,,,,0,0,1,,,,0,,,34,0
936960,note_off,,,,,0,0,1,,,,0,,,64,0
936960,control_change,,,,,0,0,1,,,,0,64,0,,
936960,control_change,,,,,0,0,1,,,,0,64,0,,
936960,control_change,,,,,0,0,1,,,,0,64,0,,
936960,control_change,,,,,0,0,1,,,,0,64,0,,
936960,set_tempo,,,,,3072,1,0,,500000,,,,,,
936960,control_change,,,,,0,0,1,,,,0,64,127,,
936960,control_change,,,,,512,0,1,,,,0,64,0,,
936960,note_off,,,,,0,0,1,,,,0,,,61,0
937218,control_change,,,,,258,0,1,,,,0,64,0,,
937472,note_on,,,,,254,0,1,,,,0,,,59,21
937472,note_on,,,,,0,0,1,,,,0,,,63,33
937472,note_on,,,,,0,0,1,,,,0,,,51,16
937472,note_on,,,,,0,0,1,,,,0,,,56,24
937514,control_change,,,,,42,0,1,,,,0,64,127,,
937984,note_off,,,,,0,0,1,,,,0,,,56,0
937984,note_off,,,,,0,0,1,,,,0,,,51,0
937984,set_tempo,,,,,1024,1,0,,461538,,,,,,
937984,note_on,,,,,0,0,1,,,,0,,,51,17
937984,note_off,,,,,470,0,1,,,,0,,,71,0
937984,note_on,,,,,0,0,1,,,,0,,,56,25
937984,note_on,,,,,0,0,1,,,,0,,,68,39
938496,note_on,,,,,0,0,1,,,,0,,,56,27
938496,note_on,,,,,0,0,1,,,,0,,,51,18
938496,note_on,,,,,0,0,1,,,,0,,,63,31
938496,note_on,,,,,0,0,1,,,,0,,,59,19
938496,note_off,,,,,0,0,1,,,,0,,,51,0
938496,note_off,,,,,0,0,1,,,,0,,,63,0
938496,note_off,,,,,0,0,1,,,,0,,,56,0
938496,note_off,,,,,512,0,1,,,,0,,,59,0
939008,note_off,,,,,0,0,1,,,,0,,,56,0
939008,note_off,,,,,0,0,1,,,,0,,,51,0
939008,note_on,,,,,0,0,1,,,,0,,,51,19
939008,note_on,,,,,0,0,1,,,,0,,,71,47
939008,note_off,,,,,512,0,1,,,,0,,,68,0
939008,note_on,,,,,0,0,1,,,,0,,,56,28
939520,note_off,,,,,512,0,1,,,,0,,,59,0
939520,note_off,,,,,0,0,1,,,,0,,,63,0
939520,note_on,,,,,0,0,1,,,,0,,,63,30
939520,note_on,,,,,0,0,1,,,,0,,,59,18
940032,note_off,,,,,512,0,1,,,,0,,,71,0
940032,note_on,,,,,0,0,1,,,,0,,,68,41
940032,note_off,,,,,0,0,1,,,,0,,,56,0
940032,note_off,,,,,0,0,1,,,,0,,,51,0
940544,note_off,,,,,0,0,1,,,,0,,,63,0
940544,note_off,,,,,512,0,1,,,,0,,,59,0
940544,note_on,,,,,0,0,1,,,,0,,,59,16
940544,note_on,,,,,0,0,1,,,,0,,,63,28
941056,note_off,,,,,0,0,1,,,,0,,,59,0
941056,control_change,,,,,0,0,1,,,,0,64,0,,
941056,control_change,,,,,0,0,1,,,,0,64,0,,
941056,control_change,,,,,0,0,1,,,,0,64,0,,
941056,control_change,,,,,512,0,1,,,,0,64,0,,
941056,control_change,,,,,0,0,1,,,,0,64,0,,
941056,control_change,,,,,0,0,1,,,,0,64,127,,
941056,note_off,,,,,0,0,1,,,,0,,,63,0
941056,note_off,,,,,0,0,1,,,,0,,,68,0
941056,note_off,,,,,0,0,1,,,,0,,,39,0
941056,note_on,,,,,0,0,1,,,,0,,,70,48
941056,note_on,,,,,0,0,1,,,,0,,,39,13
941314,control_change,,,,,258,0,1,,,,0,64,0,,
941568,note_on,,,,,0,0,1,,,,0,,,51,12
941568,note_on,,,,,0,0,1,,,,0,,,63,27
941568,note_on,,,,,254,0,1,,,,0,,,61,15
941568,note_on,,,,,0,0,1,,,,0,,,55,20
941610,control_change,,,,,42,0,1,,,,0,64,127,,
942080,note_on,,,,,0,0,1,,,,0,,,55,21
942080,note_off,,,,,0,0,1,,,,0,,,51,0
942080,note_off,,,,,0,0,1,,,,0,,,55,0
942080,note_on,,,,,0,0,1,,,,0,,,67,38
942080,note_on,,,,,0,0,1,,,,0,,,51,13
942080,note_off,,,,,470,0,1,,,,0,,,70,0
942592,note_on,,,,,0,0,1,,,,0,,,63,25
942592,note_off,,,,,512,0,1,,,,0,,,61,0
942592,note_off,,,,,0,0,1,,,,0,,,63,0
942592,note_off,,,,,0,0,1,,,,0,,,51,0
942592,note_off,,,,,0,0,1,,,,0,,,55,0
942592,note_on,,,,,0,0,1,,,,0,,,61,13
942592,note_on,,,,,0,0,1,,,,0,,,51,14
942592,note_on,,,,,0,0,1,,,,0,,,55,23
943104,note_off,,,,,0,0,1,,,,0,,,55,0
943104,note_off,,,,,0,0,1,,,,0,,,51,0
943104,note_on,,,,,0,0,1,,,,0,,,55,24
943104,note_on,,,,,0,0,1,,,,0,,,51,15
943104,note_on,,,,,0,0,1,,,,0,,,70,45
943104,note_off,,,,,512,0,1,,,,0,,,67,0
943616,note_on,,,,,0,0,1,,,,0,,,61,12
943616,note_on,,,,,0,0,1,,,,0,,,63,24
943616,note_off,,,,,512,0,1,,,,0,,,61,0
943616,note_off,,,,,0,0,1,,,,0,,,63,0
944128,note_off,,,,,512,0,1,,,,0,,,70,0
944128,note_on,,,,,0,0,1,,,,0,,,67,35
944128,note_off,,,,,0,0,1,,,,0,,,55,0
944128,note_off,,,,,0,0,1,,,,0,,,51,0
944640,note_on,,,,,0,0,1,,,,0,,,61,10
944640,note_off,,,,,0,0,1,,,,0,,,63,0
944640,note_on,,,,,0,0,1,,,,0,,,63,22
944640,note_off,,,,,512,0,1,,,,0,,,61,0
944640,set_tempo,,,,,6656,1,0,,666666,,,,,,
945152,note_on,,,,,0,0,1,,,,0,,,37,50
945152,note_on,,,,,0,0,1,,,,0,,,76,64
945152,note_off,,,,,0,0,1,,,,0,,,39,0
945152,note_off,,,,,0,0,1,,,,0,,,67,0
945152,note_off,,,,,0,0,1,,,,0,,,63,0
945152,set_tempo,,,,,512,1,0,,750000,,,,,,
945152,control_change,,,,,512,0,1,,,,0,64,127,,
945152,note_off,,,,,0,0,1,,,,0,,,61,0
945383,control_change,,,,,231,0,1,,,,0,64,0,,
945647,control_change,,,,,264,0,1,,,,0,64,127,,
945664,set_tempo,,,,,512,1,0,,500000,,,,,,
945664,note_on,,,,,17,0,1,,,,0,,,64,40
945664,note_on,,,,,0,0,1,,,,0,,,49,31
945664,note_on,,,,,0,0,1,,,,0,,,55,31
945664,note_on,,,,,0,0,1,,,,0,,,58,40
946176,note_off,,,,,0,0,1,,,,0,,,58,0
946176,note_off,,,,,0,0,1,,,,0,,,49,0
946176,note_off,,,,,0,0,1,,,,0,,,55,0
946176,note_on,,,,,0,0,1,,,,0,,,55,28
946176,note_on,,,,,0,0,1,,,,0,,,58,37
946176,note_on,,,,,0,0,1,,,,0,,,70,42
946176,note_on,,,,,0,0,1,,,,0,,,67,38
946176,note_off,,,,,512,0,1,,,,0,,,64,0
946176,set_tempo,,,,,512,1,0,,461538,,,,,,
946176,note_on,,,,,0,0,1,,,,0,,,49,28
946688,note_on,,,,,0,0,1,,,,0,,,58,33
946688,note_on,,,,,0,0,1,,,,0,,,55,24
946688,note_on,,,,,0,0,1,,,,0,,,64,36
946688,note_off,,,,,0,0,1,,,,0,,,58,0
946688,note_on,,,,,0,0,1,,,,0,,,49,24
946688,note_off,,,,,0,0,1,,,,0,,,49,0
946688,note_off,,,,,0,0,1,,,,0,,,70,0
946688,note_off,,,,,512,0,1,,,,0,,,67,0
946688,note_off,,,,,0,0,1,,,,0,,,55,0
947200,note_off,,,,,0,0,1,,,,0,,,58,0
947200,note_off,,,,,512,0,1,,,,0,,,64,0
947200,note_on,,,,,0,0,1,,,,0,,,67,34
947200,note_on,,,,,0,0,1,,,,0,,,70,38
947200,note_on,,,,,0,0,1,,,,0,,,49,21
947200,note_on,,,,,0,0,1,,,,0,,,55,21
947200,note_on,,,,,0,0,1,,,,0,,,58,30
947200,note_off,,,,,0,0,1,,,,0,,,49,0
947200,note_off,,,,,0,0,1,,,,0,,,55,0
947712,note_off,,,,,0,0,1,,,,0,,,70,0
947712,note_on,,,,,0,0,1,,,,0,,,64,33
947712,note_off,,,,,512,0,1,,,,0,,,67,0
948224,note_off,,,,,512,0,1,,,,0,,,76,0
948224,note_off,,,,,0,0,1,,,,0,,,64,0
948224,note_off,,,,,0,0,1,,,,0,,,49,0
948224,note_off,,,,,0,0,1,,,,0,,,55,0
948224,note_off,,,,,0,0,1,,,,0,,,58,0
948224,note_on,,,,,0,0,1,,,,0,,,67,31
948224,note_on,,,,,0,0,1,,,,0,,,70,31
948224,note_on,,,,,0,0,1,,,,0,,,73,55
948736,note_off,,,,,0,0,1,,,,0,,,70,0
948736,note_off,,,,,512,0,1,,,,0,,,67,0
948736,note_on,,,,,0,0,1,,,,0,,,64,29
949248,note_on,,,,,0,0,1,,,,0,,,40,44
949248,note_on,,,,,0,0,1,,,,0,,,71,61
949248,set_tempo,,,,,3072,1,0,,666666,,,,,,
949248,note_off,,,,,0,0,1,,,,0,,,73,0
949248,note_off,,,,,512,0,1,,,,0,,,64,0
949248,note_off,,,,,0,0,1,,,,0,,,37,0
949276,control_change,,,,,28,0,1,,,,0,64,127,,
949446,control_change,,,,,170,0,1,,,,0,64,0,,
949672,control_change,,,,,226,0,1,,,,0,64,127,,
949760,note_on,,,,,0,0,1,,,,0,,,55,21
949760,set_tempo,,,,,512,1,0,,461538,,,,,,
949760,note_on,,,,,88,0,1,,,,0,,,61,33
949760,note_on,,,,,0,0,1,,,,0,,,52,21
949760,note_on,,,,,0,0,1,,,,0,,,58,30
950272,note_on,,,,,0,0,1,,,,0,,,52,19
950272,note_on,,,,,0,0,1,,,,0,,,55,19
950272,note_on,,,,,0,0,1,,,,0,,,58,28
950272,note_off,,,,,0,0,1,,,,0,,,52,0
950272,note_off,,,,,0,0,1,,,,0,,,55,0
950272,note_off,,,,,0,0,1,,,,0,,,58,0
950272,note_off,,,,,512,0,1,,,,0,,,61,0
950272,note_on,,,,,0,0,1,,,,0,,,67,33
950784,note_off,,,,,0,0,1,,,,0,,,58,0
950784,note_off,,,,,0,0,1,,,,0,,,55,0
950784,note_off,,,,,0,0,1,,,,0,,,52,0
950784,note_on,,,,,0,0,1,,,,0,,,58,27
950784,note_on,,,,,0,0,1,,,,0,,,61,33
950784,note_off,,,,,512,0,1,,,,0,,,67,0
950784,note_on,,,,,0,0,1,,,,0,,,55,18
950784,note_on,,,,,0,0,1,,,,0,,,52,18
951296,note_off,,,,,512,0,1,,,,0,,,71,0
951296,note_off,,,,,0,0,1,,,,0,,,61,0
951296,note_off,,,,,0,0,1,,,,0,,,52,0
951296,note_off,,,,,0,0,1,,,,0,,,55,0
951296,note_off,,,,,0,0,1,,,,0,,,58,0
951296,note_on,,,,,0,0,1,,,,0,,,70,50
951296,note_on,,,,,0,0,1,,,,0,,,67,33
951296,note_on,,,,,0,0,1,,,,0,,,58,25
951296,note_on,,,,,0,0,1,,,,0,,,55,16
951296,note_on,,,,,0,0,1,,,,0,,,52,16
951296,set_tempo,,,,,1536,1,0,,600000,,,,,,
951310,control_change,,,,,14,0,1,,,,0,64,0,,
951564,control_change,,,,,254,0,1,,,,0,64,127,,
951808,note_off,,,,,244,0,1,,,,0,,,67,0
951808,note_on,,,,,0,0,1,,,,0,,,61,33
951808,set_tempo,,,,,512,1,0,,500000,,,,,,
952320,note_off,,,,,0,0,1,,,,0,,,40,0
952320,note_off,,,,,0,0,1,,,,0,,,58,0
952320,note_off,,,,,0,0,1,,,,0,,,55,0
952320,note_off,,,,,0,0,1,,,,0,,,52,0
952320,note_off,,,,,0,0,1,,,,0,,,70,0
952320,note_on,,,,,0,0,1,,,,0,,,58,16
952320,note_on,,,,,0,0,1,,,,0,,,53,24
952320,note_on,,,,,0,0,1,,,,0,,,70,50
952320,note_on,,,,,0,0,1,,,,0,,,68,30
952320,note_off,,,,,512,0,1,,,,0,,,61,0
952320,note_on,,,,,0,0,1,,,,0,,,56,16
952327,control_change,,,,,7,0,1,,,,0,64,0,,
952553,control_change,,,,,226,0,1,,,,0,64,127,,
952832,note_off,,,,,279,0,1,,,,0,,,68,0
952832,note_on,,,,,0,0,1,,,,0,,,62,33
953344,note_off,,,,,0,0,1,,,,0,,,56,0
953344,note_off,,,,,0,0,1,,,,0,,,58,0
953344,control_change,,,,,512,0,1,,,,0,64,0,,
953344,note_on,,,,,0,0,1,,,,0,,,39,20
953344,note_off,,,,,0,0,1,,,,0,,,53,0
953344,note_on,,,,,0,0,1,,,,0,,,71,54
953344,note_off,,,,,0,0,1,,,,0,,,70,0
953344,set_tempo,,,,,1536,1,0,,500000,,,,,,
953344,control_change,,,,,0,0,1,,,,0,64,0,,
953344,control_change,,,,,0,0,1,,,,0,64,0,,
953344,control_change,,,,,0,0,1,,,,0,64,0,,
953344,control_change,,,,,0,0,1,,,,0,64,0,,
953344,control_change,,,,,0,0,1,,,,0,64,127,,
953344,note_off,,,,,0,0,1,,,,0,,,62,0
953602,control_change,,,,,258,0,1,,,,0,64,0,,
953856,note_on,,,,,254,0,1,,,,0,,,59,21
953856,note_on,,,,,0,0,1,,,,0,,,63,33
953856,note_on,,,,,0,0,1,,,,0,,,51,16
953856,note_on,,,,,0,0,1,,,,0,,,56,24
953898,control_change,,,,,42,0,1,,,,0,64,127,,
954368,note_off,,,,,470,0,1,,,,0,,,71,0
954368,set_tempo,,,,,1024,1,0,,461538,,,,,,
954368,note_on,,,,,0,0,1,,,,0,,,68,39
954368,note_off,,,,,0,0,1,,,,0,,,51,0
954368,note_on,,,,,0,0,1,,,,0,,,51,17
954368,note_on,,,,,0,0,1,,,,0,,,56,25
954368,note_off,,,,,0,0,1,,,,0,,,56,0
954880,note_off,,,,,0,0,1,,,,0,,,63,0
954880,note_off,,,,,0,0,1,,,,0,,,51,0
954880,note_off,,,,,0,0,1,,,,0,,,56,0
954880,note_on,,,,,0,0,1,,,,0,,,59,19
954880,note_on,,,,,0,0,1,,,,0,,,63,31
954880,note_on,,,,,0,0,1,,,,0,,,51,18
954880,note_on,,,,,0,0,1,,,,0,,,56,27
954880,note_off,,,,,512,0,1,,,,0,,,59,0
955392,note_off,,,,,0,0,1,,,,0,,,56,0
955392,note_off,,,,,0,0,1,,,,0,,,51,0
955392,note_on,,,,,0,0,1,,,,0,,,51,19
955392,note_on,,,,,0,0,1,,,,0,,,71,47
955392,note_off,,,,,512,0,1,,,,0,,,68,0
955392,note_on,,,,,0,0,1,,,,0,,,56,28
955904,note_off,,,,,512,0,1,,,,0,,,59,0
955904,note_off,,,,,0,0,1,,,,0,,,63,0
955904,note_on,,,,,0,0,1,,,,0,,,59,18
955904,note_on,,,,,0,0,1,,,,0,,,63,30
956416,note_off,,,,,0,0,1,,,,0,,,56,0
956416,note_on,,,,,0,0,1,,,,0,,,68,41
956416,note_off,,,,,512,0,1,,,,0,,,71,0
956416,note_off,,,,,0,0,1,,,,0,,,51,0
956928,note_on,,,,,0,0,1,,,,0,,,63,28
956928,note_off,,,,,512,0,1,,,,0,,,59,0
956928,note_off,,,,,0,0,1,,,,0,,,63,0
956928,note_on,,,,,0,0,1,,,,0,,,59,16
957440,control_change,,,,,512,0,1,,,,0,64,0,,
957440,control_change,,,,,0,0,1,,,,0,64,127,,
957440,control_change,,,,,0,0,1,,,,0,64,0,,
957440,control_change,,,,,0,0,1,,,,0,64,0,,
957440,note_off,,,,,0,0,1,,,,0,,,59,0
957440,note_off,,,,,0,0,1,,,,0,,,63,0
957440,note_off,,,,,0,0,1,,,,0,,,68,0
957440,note_off,,,,,0,0,1,,,,0,,,39,0
957440,note_on,,,,,0,0,1,,,,0,,,70,48
957440,note_on,,,,,0,0,1,,,,0,,,39,13
957440,control_change,,,,,0,0,1,,,,0,64,0,,
957440,control_change,,,,,0,0,1,,,,0,64,0,,
957698,control_change,,,,,258,0,1,,,,0,64,0,,
957952,note_on,,,,,254,0,1,,,,0,,,61,15
957952,note_on,,,,,0,0,1,,,,0,,,63,27
957952,note_on,,,,,0,0,1,,,,0,,,51,12
957952,note_on,,,,,0,0,1,,,,0,,,55,20
957994,control_change,,,,,42,0,1,,,,0,64,127,,
958464,note_on,,,,,0,0,1,,,,0,,,55,21
958464,note_on,,,,,0,0,1,,,,0,,,51,13
958464,note_off,,,,,0,0,1,,,,0,,,55,0
958464,note_off,,,,,470,0,1,,,,0,,,70,0
958464,note_on,,,,,0,0,1,,,,0,,,67,38
958464,note_off,,,,,0,0,1,,,,0,,,51,0
958976,note_off,,,,,0,0,1,,,,0,,,63,0
958976,note_off,,,,,0,0,1,,,,0,,,51,0
958976,note_off,,,,,0,0,1,,,,0,,,55,0
958976,note_on,,,,,0,0,1,,,,0,,,61,13
958976,note_on,,,,,0,0,1,,,,0,,,63,25
958976,note_off,,,,,512,0,1,,,,0,,,61,0
958976,note_on,,,,,0,0,1,,,,0,,,51,14
958976,note_on,,,,,0,0,1,,,,0,,,55,23
959488,note_on,,,,,0,0,1,,,,0,,,70,45
959488,note_off,,,,,512,0,1,,,,0,,,67,0
959488,note_on,,,,,0,0,1,,,,0,,,51,15
959488,note_off,,,,,0,0,1,,,,0,,,51,0
959488,note_off,,,,,0,0,1,,,,0,,,55,0
959488,note_on,,,,,0,0,1,,,,0,,,55,24
960000,note_off,,,,,512,0,1,,,,0,,,61,0
960000,note_off,,,,,0,0,1,,,,0,,,63,0
960000,note_on,,,,,0,0,1,,,,0,,,63,24
960000,note_on,,,,,0,0,1,,,,0,,,61,12
960512,note_off,,,,,512,0,1,,,,0,,,70,0
960512,note_on,,,,,0,0,1,,,,0,,,67,35
960512,note_off,,,,,0,0,1,,,,0,,,51,0
960512,note_off,,,,,0,0,1,,,,0,,,55,0
961024,note_on,,,,,0,0,1,,,,0,,,63,22
961024,note_off,,,,,0,0,1,,,,0,,,63,0
961024,note_on,,,,,0,0,1,,,,0,,,61,10
961024,note_off,,,,,512,0,1,,,,0,,,61,0
961024,set_tempo,,,,,6656,1,0,,666666,,,,,,
961536,control_change,,,,,512,0,1,,,,0,64,127,,
961536,note_off,,,,,0,0,1,,,,0,,,61,0
961536,note_off,,,,,0,0,1,,,,0,,,63,0
961536,note_off,,,,,0,0,1,,,,0,,,67,0
961536,note_off,,,,,0,0,1,,,,0,,,39,0
961536,note_on,,,,,0,0,1,,,,0,,,76,68
961536,note_on,,,,,0,0,1,,,,0,,,40,54
961536,set_tempo,,,,,512,1,0,,750000,,,,,,
961767,control_change,,,,,231,0,1,,,,0,64,0,,
962031,control_change,,,,,264,0,1,,,,0,64,127,,
962048,set_tempo,,,,,512,1,0,,500000,,,,,,
962048,note_on,,,,,17,0,1,,,,0,,,64,44
962048,note_on,,,,,0,0,1,,,,0,,,49,35
962048,note_on,,,,,0,0,1,,,,0,,,55,35
962048,note_on,,,,,0,0,1,,,,0,,,58,44
962560,note_off,,,,,0,0,1,,,,0,,,49,0
962560,note_off,,,,,0,0,1,,,,0,,,58,0
962560,note_off,,,,,0,0,1,,,,0,,,55,0
962560,note_on,,,,,0,0,1,,,,0,,,58,41
962560,note_on,,,,,0,0,1,,,,0,,,55,32
962560,note_on,,,,,0,0,1,,,,0,,,49,32
962560,note_on,,,,,0,0,1,,,,0,,,70,46
962560,note_off,,,,,512,0,1,,,,0,,,64,0
962560,set_tempo,,,,,512,1,0,,461538,,,,,,
962560,note_on,,,,,0,0,1,,,,0,,,67,42
963072,note_off,,,,,0,0,1,,,,0,,,58,0
963072,note_on,,,,,0,0,1,,,,0,,,49,28
963072,note_on,,,,,0,0,1,,,,0,,,55,28
963072,note_on,,,,,0,0,1,,,,0,,,58,37
963072,note_on,,,,,0,0,1,,,,0,,,64,40
963072,note_off,,,,,512,0,1,,,,0,,,67,0
963072,note_off,,,,,0,0,1,,,,0,,,70,0
963072,note_off,,,,,0,0,1,,,,0,,,49,0
963072,note_off,,,,,0,0,1,,,,0,,,55,0
963584,note_off,,,,,512,0,1,,,,0,,,64,0
963584,note_on,,,,,0,0,1,,,,0,,,49,25
963584,note_on,,,,,0,0,1,,,,0,,,67,38
963584,note_on,,,,,0,0,1,,,,0,,,70,42
963584,note_on,,,,,0,0,1,,,,0,,,58,34
963584,note_off,,,,,0,0,1,,,,0,,,49,0
963584,note_off,,,,,0,0,1,,,,0,,,55,0
963584,note_off,,,,,0,0,1,,,,0,,,58,0
963584,note_on,,,,,0,0,1,,,,0,,,55,25
964096,note_off,,,,,512,0,1,,,,0,,,67,0
964096,note_off,,,,,0,0,1,,,,0,,,70,0
964096,note_on,,,,,0,0,1,,,,0,,,64,37
964608,note_off,,,,,0,0,1,,,,0,,,64,0
964608,note_off,,,,,0,0,1,,,,0,,,49,0
964608,set_tempo,,,,,2048,1,0,,600000,,,,,,
964608,note_off,,,,,512,0,1,,,,0,,,76,0
964608,note_off,,,,,0,0,1,,,,0,,,55,0
964608,note_off,,,,,0,0,1,,,,0,,,58,0
964608,note_on,,,,,0,0,1,,,,0,,,67,35
964608,note_on,,,,,0,0,1,,,,0,,,70,35
964608,note_on,,,,,0,0,1,,,,0,,,73,59
965120,note_on,,,,,0,0,1,,,,0,,,64,33
965120,note_off,,,,,0,0,1,,,,0,,,70,0
965120,set_tempo,,,,,512,1,0,,666666,,,,,,
965120,note_off,,,,,512,0,1,,,,0,,,67,0
965632,note_off,,,,,512,0,1,,,,0,,,64,0
965632,set_tempo,,,,,512,1,0,,666666,,,,,,
965632,note_off,,,,,0,0,1,,,,0,,,40,0
965632,note_on,,,,,0,0,1,,,,0,,,71,56
965632,note_on,,,,,0,0,1,,,,0,,,40,33
965632,note_off,,,,,0,0,1,,,,0,,,73,0
965660,control_change,,,,,28,0,1,,,,0,64,127,,
965830,control_change,,,,,170,0,1,,,,0,64,0,,
966056,control_change,,,,,226,0,1,,,,0,64,127,,
966144,set_tempo,,,,,512,1,0,,461538,,,,,,
966144,note_on,,,,,88,0,1,,,,0,,,61,28
966144,note_on,,,,,0,0,1,,,,0,,,52,10
966144,note_on,,,,,0,0,1,,,,0,,,55,10
966144,note_on,,,,,0,0,1,,,,0,,,58,19
966656,note_off,,,,,0,0,1,,,,0,,,58,0
966656,note_off,,,,,0,0,1,,,,0,,,55,0
966656,note_off,,,,,0,0,1,,,,0,,,52,0
966656,note_on,,,,,0,0,1,,,,0,,,58,17
966656,note_on,,,,,0,0,1,,,,0,,,55,8
966656,note_on,,,,,0,0,1,,,,0,,,52,8
966656,note_on,,,,,0,0,1,,,,0,,,67,28
966656,note_off,,,,,512,0,1,,,,0,,,61,0
967168,note_off,,,,,0,0,1,,,,0,,,55,0
967168,note_off,,,,,0,0,1,,,,0,,,58,0
967168,note_off,,,,,0,0,1,,,,0,,,52,0
967168,note_on,,,,,0,0,1,,,,0,,,58,16
967168,note_on,,,,,0,0,1,,,,0,,,55,7
967168,note_off,,,,,512,0,1,,,,0,,,67,0
967168,note_on,,,,,0,0,1,,,,0,,,61,28
967168,note_on,,,,,0,0,1,,,,0,,,52,7
967680,note_off,,,,,0,0,1,,,,0,,,55,0
967680,note_off,,,,,0,0,1,,,,0,,,58,0
967680,note_on,,,,,0,0,1,,,,0,,,55,5
967680,note_on,,,,,0,0,1,,,,0,,,67,28
967680,note_on,,,,,0,0,1,,,,0,,,58,14
967680,note_off,,,,,0,0,1,,,,0,,,61,0
967680,note_off,,,,,512,0,1,,,,0,,,71,0
967680,note_on,,,,,0,0,1,,,,0,,,52,5
967680,set_tempo,,,,,1536,1,0,,600000,,,,,,
967680,note_off,,,,,0,0,1,,,,0,,,52,0
967680,note_on,,,,,0,0,1,,,,0,,,70,44
967694,control_change,,,,,14,0,1,,,,0,64,0,,
967948,control_change,,,,,254,0,1,,,,0,64,127,,
968192,note_on,,,,,0,0,1,,,,0,,,61,28
968192,note_off,,,,,244,0,1,,,,0,,,67,0
968192,set_tempo,,,,,512,1,0,,500000,,,,,,
968704,note_off,,,,,0,0,1,,,,0,,,52,0
968704,note_off,,,,,512,0,1,,,,0,,,61,0
968704,note_off,,,,,0,0,1,,,,0,,,55,0
968704,note_off,,,,,0,0,1,,,,0,,,58,0
968704,note_off,,,,,0,0,1,,,,0,,,70,0
968704,note_off,,,,,0,0,1,,,,0,,,40,0
968704,note_on,,,,,0,0,1,,,,0,,,70,44
968704,note_on,,,,,0,0,1,,,,0,,,68,25
968704,note_on,,,,,0,0,1,,,,0,,,53,24
968704,note_on,,,,,0,0,1,,,,0,,,58,14
968704,note_on,,,,,0,0,1,,,,0,,,56,14
968711,control_change,,,,,7,0,1,,,,0,64,0,,
968937,control_change,,,,,226,0,1,,,,0,64,127,,
969216,note_off,,,,,279,0,1,,,,0,,,68,0
969216,note_on,,,,,0,0,1,,,,0,,,62,28
969728,note_off,,,,,0,0,1,,,,0,,,70,0
969728,control_change,,,,,512,0,1,,,,0,64,0,,
969728,control_change,,,,,0,0,1,,,,0,64,127,,
969728,control_change,,,,,0,0,1,,,,0,64,0,,
969728,control_change,,,,,0,0,1,,,,0,64,0,,
969728,control_change,,,,,0,0,1,,,,0,64,0,,
969728,note_off,,,,,0,0,1,,,,0,,,62,0
969728,note_off,,,,,0,0,1,,,,0,,,53,0
969728,control_change,,,,,0,0,1,,,,0,64,0,,
969728,note_on,,,,,0,0,1,,,,0,,,39,19
969728,note_off,,,,,0,0,1,,,,0,,,58,0
969728,note_on,,,,,0,0,1,,,,0,,,71,53
969728,note_off,,,,,0,0,1,,,,0,,,56,0
969728,set_tempo,,,,,1536,1,0,,500000,,,,,,
969986,control_change,,,,,258,0,1,,,,0,64,0,,
970240,note_on,,,,,254,0,1,,,,0,,,59,20
970240,note_on,,,,,0,0,1,,,,0,,,63,32
970240,note_on,,,,,0,0,1,,,,0,,,51,15
970240,note_on,,,,,0,0,1,,,,0,,,56,23
970282,control_change,,,,,42,0,1,,,,0,64,127,,
970752,set_tempo,,,,,1024,1,0,,461538,,,,,,
970752,note_off,,,,,0,0,1,,,,0,,,56,0
970752,note_off,,,,,0,0,1,,,,0,,,51,0
970752,note_on,,,,,0,0,1,,,,0,,,68,43
970752,note_on,,,,,0,0,1,,,,0,,,51,16
970752,note_off,,,,,470,0,1,,,,0,,,71,0
970752,note_on,,,,,0,0,1,,,,0,,,56,24
971264,note_on,,,,,0,0,1,,,,0,,,51,17
971264,note_on,,,,,0,0,1,,,,0,,,56,26
971264,note_on,,,,,0,0,1,,,,0,,,59,18
971264,note_on,,,,,0,0,1,,,,0,,,63,30
971264,note_off,,,,,0,0,1,,,,0,,,51,0
971264,note_off,,,,,0,0,1,,,,0,,,63,0
971264,note_off,,,,,0,0,1,,,,0,,,56,0
971264,note_off,,,,,512,0,1,,,,0,,,59,0
971776,note_off,,,,,512,0,1,,,,0,,,68,0
971776,note_on,,,,,0,0,1,,,,0,,,71,46
971776,note_on,,,,,0,0,1,,,,0,,,51,18
971776,note_on,,,,,0,0,1,,,,0,,,56,27
971776,note_off,,,,,0,0,1,,,,0,,,51,0
971776,note_off,,,,,0,0,1,,,,0,,,56,0
972288,note_off,,,,,512,0,1,,,,0,,,59,0
972288,note_off,,,,,0,0,1,,,,0,,,63,0
972288,note_on,,,,,0,0,1,,,,0,,,59,17
972288,note_on,,,,,0,0,1,,,,0,,,63,29
972800,note_off,,,,,0,0,1,,,,0,,,51,0
972800,note_off,,,,,0,0,1,,,,0,,,56,0
972800,note_off,,,,,512,0,1,,,,0,,,71,0
972800,note_on,,,,,0,0,1,,,,0,,,68,40
973312,note_off,,,,,512,0,1,,,,0,,,59,0
973312,note_on,,,,,0,0,1,,,,0,,,59,15
973312,note_on,,,,,0,0,1,,,,0,,,63,27
973312,note_off,,,,,0,0,1,,,,0,,,63,0
973824,note_on,,,,,0,0,1,,,,0,,,39,19
973824,note_on,,,,,0,0,1,,,,0,,,70,42
973824,note_off,,,,,0,0,1,,,,0,,,39,0
973824,note_off,,,,,0,0,1,,,,0,,,68,0
973824,note_off,,,,,0,0,1,,,,0,,,63,0
973824,set_tempo,,,,,3072,1,0,,600000,,,,,,
973824,control_change,,,,,0,0,1,,,,0,64,0,,
973824,control_change,,,,,0,0,1,,,,0,64,0,,
973824,control_change,,,,,0,0,1,,,,0,64,0,,
973824,control_change,,,,,0,0,1,,,,0,64,0,,
973824,control_change,,,,,0,0,1,,,,0,64,127,,
973824,note_off,,,,,0,0,1,,,,0,,,59,0
973824,control_change,,,,,512,0,1,,,,0,64,0,,
974082,control_change,,,,,258,0,1,,,,0,64,0,,
974336,note_on,,,,,0,0,1,,,,0,,,55,14
974336,note_on,,,,,0,0,1,,,,0,,,63,25
974336,note_on,,,,,0,0,1,,,,0,,,51,6
974336,note_on,,,,,254,0,1,,,,0,,,58,13
974378,control_change,,,,,42,0,1,,,,0,64,127,,
974848,set_tempo,,,,,1024,1,0,,500000,,,,,,
974848,note_off,,,,,0,0,1,,,,0,,,55,0
974848,note_on,,,,,0,0,1,,,,0,,,51,7
974848,note_on,,,,,0,0,1,,,,0,,,55,15
974848,note_on,,,,,0,0,1,,,,0,,,67,36
974848,note_off,,,,,470,0,1,,,,0,,,70,0
974848,note_off,,,,,0,0,1,,,,0,,,51,0
975360,note_off,,,,,0,0,1,,,,0,,,63,0
975360,note_off,,,,,0,0,1,,,,0,,,55,0
975360,note_on,,,,,0,0,1,,,,0,,,58,11
975360,note_on,,,,,0,0,1,,,,0,,,63,23
975360,note_on,,,,,0,0,1,,,,0,,,51,8
975360,note_on,,,,,0,0,1,,,,0,,,55,17
975360,note_off,,,,,512,0,1,,,,0,,,58,0
975360,note_off,,,,,0,0,1,,,,0,,,51,0
975872,note_on,,,,,0,0,1,,,,0,,,55,18
975872,note_off,,,,,0,0,1,,,,0,,,55,0
975872,note_off,,,,,512,0,1,,,,0,,,67,0
975872,note_on,,,,,0,0,1,,,,0,,,70,39
975872,note_on,,,,,0,0,1,,,,0,,,51,9
975872,note_off,,,,,0,0,1,,,,0,,,51,0
976384,note_on,,,,,0,0,1,,,,0,,,63,22
976384,note_on,,,,,0,0,1,,,,0,,,58,10
976384,note_off,,,,,512,0,1,,,,0,,,58,0
976384,note_off,,,,,0,0,1,,,,0,,,63,0
976896,note_off,,,,,0,0,1,,,,0,,,55,0
976896,note_off,,,,,0,0,1,,,,0,,,51,0
976896,note_off,,,,,512,0,1,,,,0,,,70,0
976896,note_on,,,,,0,0,1,,,,0,,,67,33
977408,note_off,,,,,0,0,1,,,,0,,,63,0
977408,note_on,,,,,0,0,1,,,,0,,,58,8
977408,note_on,,,,,0,0,1,,,,0,,,63,20
977408,note_off,,,,,512,0,1,,,,0,,,58,0
977408,set_tempo,,,,,2560,1,0,,666666,,,,,,
977920,note_off,,,,,0,0,1,,,,0,,,67,0
977920,note_off,,,,,0,0,1,,,,0,,,39,0
977920,note_on,,,,,0,0,1,,,,0,,,68,36
977920,note_on,,,,,0,0,1,,,,0,,,32,19
977920,note_off,,,,,0,0,1,,,,0,,,63,0
977920,note_off,,,,,0,0,1,,,,0,,,58,0
977920,control_change,,,,,0,0,1,,,,0,64,0,,
977920,control_change,,,,,0,0,1,,,,0,64,0,,
977920,control_change,,,,,0,0,1,,,,0,64,0,,
977920,control_change,,,,,0,0,1,,,,0,64,0,,
977920,control_change,,,,,512,0,1,,,,0,64,127,,
978178,control_change,,,,,258,0,1,,,,0,64,0,,
978432,set_tempo,,,,,1024,1,0,,461538,,,,,,
978432,note_on,,,,,254,0,1,,,,0,,,56,21
978432,note_on,,,,,0,0,1,,,,0,,,44,15
978432,note_on,,,,,0,0,1,,,,0,,,51,23
978474,control_change,,,,,42,0,1,,,,0,64,127,,
978944,note_off,,,,,0,0,1,,,,0,,,44,0
978944,note_off,,,,,0,0,1,,,,0,,,51,0
978944,note_on,,,,,0,0,1,,,,0,,,51,21
978944,note_on,,,,,0,0,1,,,,0,,,44,14
978944,note_on,,,,,0,0,1,,,,0,,,63,21
978944,note_off,,,,,470,0,1,,,,0,,,56,0
978944,note_on,,,,,0,0,1,,,,0,,,59,21
979456,note_on,,,,,0,0,1,,,,0,,,51,20
979456,note_off,,,,,512,0,1,,,,0,,,59,0
979456,note_off,,,,,0,0,1,,,,0,,,63,0
979456,note_off,,,,,0,0,1,,,,0,,,44,0
979456,note_off,,,,,0,0,1,,,,0,,,51,0
979456,note_on,,,,,0,0,1,,,,0,,,56,21
979456,note_on,,,,,0,0,1,,,,0,,,44,13
979968,note_on,,,,,0,0,1,,,,0,,,51,17
979968,note_off,,,,,0,0,1,,,,0,,,44,0
979968,note_off,,,,,0,0,1,,,,0,,,51,0
979968,note_on,,,,,0,0,1,,,,0,,,44,12
979968,note_off,,,,,512,0,1,,,,0,,,56,0
979968,note_on,,,,,0,0,1,,,,0,,,59,21
979968,note_on,,,,,0,0,1,,,,0,,,63,21
980480,note_off,,,,,512,0,1,,,,0,,,59,0
980480,note_off,,,,,0,0,1,,,,0,,,63,0
980480,note_on,,,,,0,0,1,,,,0,,,56,21
980992,note_off,,,,,512,0,1,,,,0,,,56,0
980992,note_on,,,,,0,0,1,,,,0,,,59,21
980992,note_on,,,,,0,0,1,,,,0,,,63,21
980992,note_off,,,,,0,0,1,,,,0,,,44,0
980992,note_off,,,,,0,0,1,,,,0,,,51,0
981504,note_on,,,,,0,0,1,,,,0,,,56,21
981504,note_off,,,,,512,0,1,,,,0,,,59,0
981504,note_off,,,,,0,0,1,,,,0,,,63,0
982016,set_tempo,,,,,3584,1,0,,666666,,,,,,
982016,control_change,,,,,512,0,1,,,,0,64,127,,
982016,control_change,,,,,0,0,1,,,,0,64,0,,
982016,control_change,,,,,0,0,1,,,,0,64,0,,
982016,control_change,,,,,0,0,1,,,,0,64,0,,
982016,control_change,,,,,0,0,1,,,,0,64,0,,
982016,note_off,,,,,0,0,1,,,,0,,,68,0
982016,note_off,,,,,0,0,1,,,,0,,,56,0
982016,note_off,,,,,0,0,1,,,,0,,,32,0
982016,note_on,,,,,0,0,1,,,,0,,,67,41
982016,note_on,,,,,0,0,1,,,,0,,,34,19
982274,control_change,,,,,258,0,1,,,,0,64,0,,
982528,note_on,,,,,254,0,1,,,,0,,,55,25
982528,set_tempo,,,,,512,1,0,,500000,,,,,,
982528,note_on,,,,,0,0,1,,,,0,,,46,15
982528,note_on,,,,,0,0,1,,,,0,,,49,23
982570,control_change,,,,,42,0,1,,,,0,64,127,,
983040,note_off,,,,,470,0,1,,,,0,,,55,0
983040,note_on,,,,,0,0,1,,,,0,,,61,19
983040,note_on,,,,,0,0,1,,,,0,,,64,25
983040,note_on,,,,,0,0,1,,,,0,,,46,14
983040,note_on,,,,,0,0,1,,,,0,,,49,21
983040,note_off,,,,,0,0,1,,,,0,,,46,0
983040,note_off,,,,,0,0,1,,,,0,,,49,0
983552,note_off,,,,,0,0,1,,,,0,,,49,0
983552,note_off,,,,,0,0,1,,,,0,,,46,0
983552,note_on,,,,,0,0,1,,,,0,,,49,20
983552,note_off,,,,,512,0,1,,,,0,,,64,0
983552,note_on,,,,,0,0,1,,,,0,,,55,25
983552,note_on,,,,,0,0,1,,,,0,,,46,13
984064,note_on,,,,,0,0,1,,,,0,,,66,36
984064,note_on,,,,,0,0,1,,,,0,,,49,17
984064,note_off,,,,,0,0,1,,,,0,,,49,0
984064,note_on,,,,,0,0,1,,,,0,,,46,12
984064,note_off,,,,,0,0,1,,,,0,,,55,0
984064,note_off,,,,,0,0,1,,,,0,,,67,0
984064,control_change,,,,,512,0,1,,,,0,64,0,,
984064,note_off,,,,,0,0,1,,,,0,,,46,0
984328,control_change,,,,,264,0,1,,,,0,64,127,,
984576,note_off,,,,,248,0,1,,,,0,,,61,0
984576,note_on,,,,,0,0,1,,,,0,,,54,21
985088,note_off,,,,,512,0,1,,,,0,,,54,0
985088,note_on,,,,,0,0,1,,,,0,,,61,15
985088,note_on,,,,,0,0,1,,,,0,,,64,21
985600,note_on,,,,,0,0,1,,,,0,,,54,21
985600,note_off,,,,,0,0,1,,,,0,,,64,0
985600,note_off,,,,,512,0,1,,,,0,,,61,0
986112,note_off,,,,,0,0,1,,,,0,,,54,0
986112,note_on,,,,,0,0,1,,,,0,,,47,35
986112,note_on,,,,,0,0,1,,,,0,,,35,44
986112,note_on,,,,,0,0,1,,,,0,,,78,68
986112,note_on,,,,,0,0,1,,,,0,,,66,48
986112,note_off,,,,,0,0,1,,,,0,,,49,0
986112,note_off,,,,,0,0,1,,,,0,,,46,0
986112,note_off,,,,,0,0,1,,,,0,,,34,0
986112,key_signature,,,,,3584,1,0,Bm,,,,,,,
986112,control_change,,,,,0,0,1,,,,0,64,0,,
986112,note_off,,,,,0,0,1,,,,0,,,66,0
986112,control_change,,,,,0,0,1,,,,0,64,0,,
986112,control_change,,,,,0,0,1,,,,0,64,0,,
986112,control_change,,,,,512,0,1,,,,0,64,0,,
986112,control_change,,,,,0,0,1,,,,0,64,127,,
986112,control_change,,,,,0,0,1,,,,0,64,0,,
986112,set_tempo,,,,,0,1,0,,666666,,,,,,
986112,control_change,,,,,0,0,1,,,,0,64,0,,
986112,control_change,,,,,0,0,1,,,,0,64,0,,
986112,control_change,,,,,0,0,1,,,,0,64,0,,
986112,control_change,,,,,0,0,1,,,,0,64,0,,
986112,control_change,,,,,0,0,1,,,,0,64,0,,
986370,control_change,,,,,258,0,1,,,,0,64,0,,
986624,note_on,,,,,254,0,1,,,,0,,,54,32
986624,note_on,,,,,0,0,1,,,,0,,,59,32
986624,note_on,,,,,0,0,1,,,,0,,,62,44
986624,set_tempo,,,,,512,1,0,,444444,,,,,,
986666,control_change,,,,,42,0,1,,,,0,64,127,,
987136,note_off,,,,,470,0,1,,,,0,,,54,0
987136,note_off,,,,,0,0,1,,,,0,,,59,0
987136,note_off,,,,,0,0,1,,,,0,,,62,0
987136,note_on,,,,,0,0,1,,,,0,,,54,33
987136,note_on,,,,,0,0,1,,,,0,,,59,33
987136,note_on,,,,,0,0,1,,,,0,,,62,45
987648,note_on,,,,,0,0,1,,,,0,,,59,34
987648,note_on,,,,,0,0,1,,,,0,,,62,47
987648,note_off,,,,,0,0,1,,,,0,,,59,0
987648,note_on,,,,,0,0,1,,,,0,,,54,34
987648,note_off,,,,,0,0,1,,,,0,,,62,0
987648,note_off,,,,,512,0,1,,,,0,,,54,0
988160,note_off,,,,,0,0,1,,,,0,,,59,0
988160,note_off,,,,,0,0,1,,,,0,,,62,0
988160,note_on,,,,,0,0,1,,,,0,,,54,35
988160,note_on,,,,,0,0,1,,,,0,,,62,35
988160,note_on,,,,,0,0,1,,,,0,,,66,48
988160,note_off,,,,,512,0,1,,,,0,,,54,0
989184,set_tempo,,,,,2560,1,0,,500000,,,,,,
989184,note_on,,,,,0,0,1,,,,0,,,62,44
989184,note_on,,,,,0,0,1,,,,0,,,59,32
989184,note_on,,,,,0,0,1,,,,0,,,54,32
989184,note_off,,,,,0,0,1,,,,0,,,66,0
989184,note_on,,,,,0,0,1,,,,0,,,71,44
989184,note_off,,,,,0,0,1,,,,0,,,62,0
989184,note_off,,,,,0,0,1,,,,0,,,78,0
989184,note_off,,,,,1024,0,1,,,,0,,,66,0
989184,note_on,,,,,0,0,1,,,,0,,,83,64
989184,note_off,,,,,0,0,1,,,,0,,,54,0
989696,note_off,,,,,0,0,1,,,,0,,,59,0
989696,note_off,,,,,0,0,1,,,,0,,,62,0
989696,note_off,,,,,512,0,1,,,,0,,,54,0
990208,note_on,,,,,0,0,1,,,,0,,,47,35
990208,note_on,,,,,0,0,1,,,,0,,,35,44
990208,note_on,,,,,0,0,1,,,,0,,,78,68
990208,note_on,,,,,0,0,1,,,,0,,,66,48
990208,note_off,,,,,0,0,1,,,,0,,,47,0
990208,note_off,,,,,0,0,1,,,,0,,,35,0
990208,control_change,,,,,512,0,1,,,,0,64,0,,
990208,note_off,,,,,0,0,1,,,,0,,,71,0
990208,control_change,,,,,0,0,1,,,,0,64,0,,
990208,control_change,,,,,0,0,1,,,,0,64,0,,
990208,note_off,,,,,0,0,1,,,,0,,,83,0
990208,control_change,,,,,0,0,1,,,,0,64,0,,
990208,control_change,,,,,0,0,1,,,,0,64,0,,
990208,control_change,,,,,0,0,1,,,,0,64,0,,
990208,control_change,,,,,0,0,1,,,,0,64,0,,
990208,control_change,,,,,0,0,1,,,,0,64,0,,
990208,control_change,,,,,0,0,1,,,,0,64,127,,
990208,control_change,,,,,0,0,1,,,,0,64,0,,
990208,control_change,,,,,0,0,1,,,,0,64,0,,
990466,control_change,,,,,258,0,1,,,,0,64,0,,
990720,set_tempo,,,,,1536,1,0,,444444,,,,,,
990720,note_on,,,,,254,0,1,,,,0,,,54,32
990720,note_on,,,,,0,0,1,,,,0,,,59,32
990720,note_on,,,,,0,0,1,,,,0,,,62,44
990762,control_change,,,,,42,0,1,,,,0,64,127,,
991232,note_on,,,,,0,0,1,,,,0,,,54,33
991232,note_on,,,,,0,0,1,,,,0,,,83,68
991232,note_off,,,,,0,0,1,,,,0,,,59,0
991232,note_on,,,,,0,0,1,,,,0,,,62,45
991232,note_on,,,,,0,0,1,,,,0,,,59,33
991232,note_on,,,,,0,0,1,,,,0,,,71,48
991232,note_off,,,,,470,0,1,,,,0,,,66,0
991232,note_off,,,,,0,0,1,,,,0,,,54,0
991232,note_off,,,,,0,0,1,,,,0,,,78,0
991232,note_off,,,,,0,0,1,,,,0,,,62,0
991744,note_off,,,,,512,0,1,,,,0,,,54,0
991744,note_off,,,,,0,0,1,,,,0,,,59,0
991744,note_off,,,,,0,0,1,,,,0,,,62,0
991744,note_on,,,,,0,0,1,,,,0,,,54,34
991744,note_on,,,,,0,0,1,,,,0,,,59,34
991744,note_on,,,,,0,0,1,,,,0,,,62,47
992256,note_on,,,,,0,0,1,,,,0,,,66,48
992256,note_on,,,,,0,0,1,,,,0,,,62,35
992256,note_on,,,,,0,0,1,,,,0,,,54,35
992256,note_on,,,,,0,0,1,,,,0,,,86,73
992256,note_on,,,,,0,0,1,,,,0,,,74,53
992256,note_off,,,,,0,0,1,,,,0,,,83,0
992256,note_off,,,,,0,0,1,,,,0,,,59,0
992256,note_off,,,,,0,0,1,,,,0,,,54,0
992256,note_off,,,,,512,0,1,,,,0,,,71,0
992256,set_tempo,,,,,1536,1,0,,461538,,,,,,
992256,note_off,,,,,0,0,1,,,,0,,,62,0
993280,note_on,,,,,0,0,1,,,,0,,,85,68
993280,note_on,,,,,0,0,1,,,,0,,,73,48
993280,note_off,,,,,0,0,1,,,,0,,,62,0
993280,note_on,,,,,0,0,1,,,,0,,,54,32
993280,note_off,,,,,0,0,1,,,,0,,,86,0
993280,note_off,,,,,1024,0,1,,,,0,,,74,0
993280,set_tempo,,,,,1024,1,0,,480000,,,,,,
993280,note_off,,,,,0,0,1,,,,0,,,54,0
993280,note_on,,,,,0,0,1,,,,0,,,61,32
993280,note_off,,,,,0,0,1,,,,0,,,66,0
993280,note_on,,,,,0,0,1,,,,0,,,64,44
993792,note_on,,,,,0,0,1,,,,0,,,82,65
993792,note_off,,,,,512,0,1,,,,0,,,73,0
993792,note_off,,,,,0,0,1,,,,0,,,85,0
993792,note_on,,,,,0,0,1,,,,0,,,70,45
994304,control_change,,,,,0,0,1,,,,0,64,127,,
994304,note_on,,,,,0,0,1,,,,0,,,47,44
994304,note_on,,,,,0,0,1,,,,0,,,83,68
994304,note_on,,,,,0,0,1,,,,0,,,71,48
994304,note_off,,,,,0,0,1,,,,0,,,64,0
994304,note_off,,,,,0,0,1,,,,0,,,61,0
994304,note_off,,,,,0,0,1,,,,0,,,54,0
994304,note_off,,,,,0,0,1,,,,0,,,47,0
994304,note_off,,,,,0,0,1,,,,0,,,35,0
994304,note_off,,,,,0,0,1,,,,0,,,82,0
994304,control_change,,,,,512,0,1,,,,0,64,0,,
994304,note_off,,,,,0,0,1,,,,0,,,70,0
994304,control_change,,,,,0,0,1,,,,0,64,0,,
994304,control_change,,,,,0,0,1,,,,0,64,0,,
994304,control_change,,,,,0,0,1,,,,0,64,0,,
994304,control_change,,,,,0,0,1,,,,0,64,0,,
994304,control_change,,,,,0,0,1,,,,0,64,0,,
994304,control_change,,,,,0,0,1,,,,0,64,0,,
994304,control_change,,,,,0,0,1,,,,0,64,0,,
994304,control_change,,,,,0,0,1,,,,0,64,0,,
994304,control_change,,,,,0,0,1,,,,0,64,0,,
994304,control_change,,,,,0,0,1,,,,0,64,0,,
994562,control_change,,,,,258,0,1,,,,0,64,0,,
994816,set_tempo,,,,,1536,1,0,,444444,,,,,,
994816,note_on,,,,,0,0,1,,,,0,,,62,44
994816,note_on,,,,,0,0,1,,,,0,,,59,32
994816,note_on,,,,,254,0,1,,,,0,,,54,32
994858,control_change,,,,,42,0,1,,,,0,64,127,,
995328,note_off,,,,,0,0,1,,,,0,,,62,0
995328,note_on,,,,,0,0,1,,,,0,,,54,33
995328,note_on,,,,,0,0,1,,,,0,,,59,33
995328,note_on,,,,,0,0,1,,,,0,,,62,45
995328,note_off,,,,,470,0,1,,,,0,,,54,0
995328,note_off,,,,,0,0,1,,,,0,,,59,0
995840,note_off,,,,,512,0,1,,,,0,,,54,0
995840,note_off,,,,,0,0,1,,,,0,,,59,0
995840,note_off,,,,,0,0,1,,,,0,,,62,0
995840,note_on,,,,,0,0,1,,,,0,,,54,34
995840,note_on,,,,,0,0,1,,,,0,,,59,34
995840,note_on,,,,,0,0,1,,,,0,,,62,47
996352,note_on,,,,,0,0,1,,,,0,,,66,48
996352,note_on,,,,,0,0,1,,,,0,,,62,35
996352,note_off,,,,,0,0,1,,,,0,,,59,0
996352,note_off,,,,,0,0,1,,,,0,,,62,0
996352,note_on,,,,,0,0,1,,,,0,,,54,35
996352,note_off,,,,,512,0,1,,,,0,,,54,0
997120,note_off,,,,,768,0,1,,,,0,,,71,0
997120,note_off,,,,,0,0,1,,,,0,,,83,0
997120,note_on,,,,,0,0,1,,,,0,,,78,59
997376,note_off,,,,,0,0,1,,,,0,,,66,0
997376,note_off,,,,,0,0,1,,,,0,,,62,0
997376,set_tempo,,,,,2560,1,0,,705882,,,,,,
997376,note_on,,,,,0,0,1,,,,0,,,62,44
997376,note_off,,,,,256,0,1,,,,0,,,78,0
997376,note_off,,,,,0,0,1,,,,0,,,54,0
997376,note_on,,,,,0,0,1,,,,0,,,59,32
997376,note_on,,,,,0,0,1,,,,0,,,54,32
997376,note_on,,,,,0,0,1,,,,0,,,78,60
997461,note_off,,,,,85,0,1,,,,0,,,78,0
997461,note_on,,,,,0,0,1,,,,0,,,79,50
997547,note_off,,,,,86,0,1,,,,0,,,79,0
997547,note_on,,,,,0,0,1,,,,0,,,78,44
997632,note_on,,,,,0,0,1,,,,0,,,79,49
997632,note_off,,,,,85,0,1,,,,0,,,78,0
997760,note_on,,,,,0,0,1,,,,0,,,78,47
997760,note_off,,,,,128,0,1,,,,0,,,79,0
997760,set_tempo,,,,,384,1,0,,600000,,,,,,
997888,note_off,,,,,128,0,1,,,,0,,,78,0
997888,note_off,,,,,0,0,1,,,,0,,,54,0
997888,note_off,,,,,0,0,1,,,,0,,,59,0
997888,note_off,,,,,0,0,1,,,,0,,,62,0
997888,note_on,,,,,0,0,1,,,,0,,,79,49
998016,note_on,,,,,0,0,1,,,,0,,,78,49
998016,note_off,,,,,128,0,1,,,,0,,,79,0
998144,note_off,,,,,128,0,1,,,,0,,,78,0
998144,note_on,,,,,0,0,1,,,,0,,,77,45
998272,note_off,,,,,128,0,1,,,,0,,,77,0
998272,note_on,,,,,0,0,1,,,,0,,,78,44
998400,control_change,,,,,0,0,1,,,,0,64,0,,
998400,control_change,,,,,0,0,1,,,,0,64,0,,
998400,control_change,,,,,0,0,1,,,,0,64,0,,
998400,control_change,,,,,0,0,1,,,,0,64,0,,
998400,control_change,,,,,0,0,1,,,,0,64,0,,
998400,control_change,,,,,0,0,1,,,,0,64,0,,
998400,control_change,,,,,0,0,1,,,,0,64,0,,
998400,set_tempo,,,,,640,1,0,,461538,,,,,,
998400,control_change,,,,,0,0,1,,,,0,64,0,,
998400,control_change,,,,,0,0,1,,,,0,64,0,,
998400,control_change,,,,,0,0,1,,,,0,64,0,,
998400,control_change,,,,,0,0,1,,,,0,64,127,,
998400,control_change,,,,,128,0,1,,,,0,64,0,,
998400,note_off,,,,,0,0,1,,,,0,,,47,0
998400,note_on,,,,,0,0,1,,,,0,,,71,48
998400,note_on,,,,,0,0,1,,,,0,,,83,68
998400,note_on,,,,,0,0,1,,,,0,,,43,44
998400,control_change,,,,,0,0,1,,,,0,64,0,,
998400,note_off,,,,,0,0,1,,,,0,,,78,0
998658,control_change,,,,,258,0,1,,,,0,64,0,,
998912,note_on,,,,,0,0,1,,,,0,,,62,44
998912,note_on,,,,,0,0,1,,,,0,,,59,32
998912,note_on,,,,,254,0,1,,,,0,,,55,32
998954,control_change,,,,,42,0,1,,,,0,64,127,,
999424,note_on,,,,,0,0,1,,,,0,,,55,33
999424,note_off,,,,,0,0,1,,,,0,,,59,0
999424,note_on,,,,,0,0,1,,,,0,,,62,43
999424,note_on,,,,,0,0,1,,,,0,,,74,63
999424,note_off,,,,,0,0,1,,,,0,,,62,0
999424,note_off,,,,,0,0,1,,,,0,,,55,0
999424,note_on,,,,,0,0,1,,,,0,,,62,45
999424,note_off,,,,,470,0,1,,,,0,,,71,0
999424,note_on,,,,,0,0,1,,,,0,,,59,33
999424,note_off,,,,,0,0,1,,,,0,,,83,0
999936,note_off,,,,,512,0,1,,,,0,,,55,0
999936,note_on,,,,,0,0,1,,,,0,,,59,34
999936,note_on,,,,,0,0,1,,,,0,,,62,47
999936,note_off,,,,,0,0,1,,,,0,,,62,0
999936,note_off,,,,,0,0,1,,,,0,,,59,0
999936,note_on,,,,,0,0,1,,,,0,,,55,34
1000192,note_off,,,,,256,0,1,,,,0,,,62,0
1000192,note_off,,,,,0,0,1,,,,0,,,74,0
1000192,note_on,,,,,0,0,1,,,,0,,,64,46
1000192,note_on,,,,,0,0,1,,,,0,,,76,66
1000448,note_on,,,,,0,0,1,,,,0,,,62,48
1000448,note_on,,,,,0,0,1,,,,0,,,59,35
1000448,note_on,,,,,0,0,1,,,,0,,,55,35
1000448,note_on,,,,,0,0,1,,,,0,,,78,68
1000448,note_on,,,,,0,0,1,,,,0,,,66,48
1000448,note_off,,,,,0,0,1,,,,0,,,62,0
1000448,note_off,,,,,0,0,1,,,,0,,,59,0
1000448,note_off,,,,,0,0,1,,,,0,,,43,0
1000448,note_off,,,,,0,0,1,,,,0,,,76,0
1000448,note_off,,,,,256,0,1,,,,0,,,64,0
1000448,set_tempo,,,,,2048,1,0,,545454,,,,,,
1000448,note_off,,,,,0,0,1,,,,0,,,55,0
1000530,control_change,,,,,82,0,1,,,,0,64,0,,
1000858,control_change,,,,,328,0,1,,,,0,64,127,,
1001472,note_on,,,,,0,0,1,,,,0,,,67,43
1001472,note_on,,,,,0,0,1,,,,0,,,59,25
1001472,note_on,,,,,0,0,1,,,,0,,,62,37
1001472,note_on,,,,,0,0,1,,,,0,,,53,25
1001472,note_on,,,,,0,0,1,,,,0,,,79,66
1001472,note_off,,,,,0,0,1,,,,0,,,62,0
1001472,set_tempo,,,,,1024,1,0,,500000,,,,,,
1001472,note_off,,,,,0,0,1,,,,0,,,55,0
1001472,note_off,,,,,0,0,1,,,,0,,,78,0
1001472,note_off,,,,,614,0,1,,,,0,,,66,0
1001472,note_off,,,,,0,0,1,,,,0,,,59,0
1001595,control_change,,,,,123,0,1,,,,0,64,0,,
1002004,control_change,,,,,409,0,1,,,,0,64,127,,
1002496,note_on,,,,,0,0,1,,,,0,,,42,36
1002496,note_on,,,,,0,0,1,,,,0,,,78,62
1002496,note_on,,,,,0,0,1,,,,0,,,66,42
1002496,note_off,,,,,0,0,1,,,,0,,,62,0
1002496,note_off,,,,,0,0,1,,,,0,,,59,0
1002496,note_off,,,,,0,0,1,,,,0,,,53,0
1002496,note_off,,,,,0,0,1,,,,0,,,79,0
1002496,note_off,,,,,0,0,1,,,,0,,,67,0
1002496,control_change,,,,,0,0,1,,,,0,64,0,,
1002496,control_change,,,,,0,0,1,,,,0,64,0,,
1002496,control_change,,,,,0,0,1,,,,0,64,0,,
1002496,control_change,,,,,492,0,1,,,,0,64,0,,
1002496,control_change,,,,,0,0,1,,,,0,64,0,,
1002496,control_change,,,,,0,0,1,,,,0,64,0,,
1002496,control_change,,,,,0,0,1,,,,0,64,0,,
1002496,control_change,,,,,0,0,1,,,,0,64,0,,
1002496,control_change,,,,,0,0,1,,,,0,64,0,,
1002496,control_change,,,,,0,0,1,,,,0,64,0,,
1002496,control_change,,,,,0,0,1,,,,0,64,0,,
1002496,control_change,,,,,0,0,1,,,,0,64,127,,
1002496,control_change,,,,,0,0,1,,,,0,64,0,,
1002754,control_change,,,,,258,0,1,,,,0,64,0,,
1003008,note_on,,,,,0,0,1,,,,0,,,62,36
1003008,note_on,,,,,0,0,1,,,,0,,,59,24
1003008,set_tempo,,,,,1536,1,0,,480000,,,,,,
1003008,note_on,,,,,254,0,1,,,,0,,,54,24
1003050,control_change,,,,,42,0,1,,,,0,64,127,,
1003520,note_on,,,,,0,0,1,,,,0,,,62,36
1003520,note_on,,,,,0,0,1,,,,0,,,59,24
1003520,note_on,,,,,0,0,1,,,,0,,,54,24
1003520,note_off,,,,,0,0,1,,,,0,,,62,0
1003520,note_off,,,,,470,0,1,,,,0,,,54,0
1003520,note_off,,,,,0,0,1,,,,0,,,59,0
1004032,note_off,,,,,512,0,1,,,,0,,,54,0
1004032,note_off,,,,,0,0,1,,,,0,,,59,0
1004032,note_off,,,,,0,0,1,,,,0,,,62,0
1004032,note_on,,,,,0,0,1,,,,0,,,54,24
1004032,note_on,,,,,0,0,1,,,,0,,,59,24
1004032,note_on,,,,,0,0,1,,,,0,,,62,36
1004544,note_on,,,,,0,0,1,,,,0,,,61,36
1004544,note_on,,,,,0,0,1,,,,0,,,58,24
1004544,note_on,,,,,0,0,1,,,,0,,,54,24
1004544,note_off,,,,,0,0,1,,,,0,,,62,0
1004544,note_off,,,,,0,0,1,,,,0,,,59,0
1004544,note_off,,,,,0,0,1,,,,0,,,54,0
1004544,control_change,,,,,512,0,1,,,,0,64,0,,
1004930,control_change,,,,,386,0,1,,,,0,64,127,,
1005568,note_on,,,,,0,0,1,,,,0,,,65,46
1005568,note_off,,,,,0,0,1,,,,0,,,61,0
1005568,note_off,,,,,0,0,1,,,,0,,,58,0
1005568,note_on,,,,,0,0,1,,,,0,,,77,63
1005568,note_off,,,,,0,0,1,,,,0,,,78,0
1005568,note_off,,,,,638,0,1,,,,0,,,66,0
1005568,note_off,,,,,0,0,1,,,,0,,,54,0
1006592,control_change,,,,,0,0,1,,,,0,64,0,,
1006592,note_on,,,,,0,0,1,,,,0,,,46,42
1006592,note_on,,,,,0,0,1,,,,0,,,34,30
1006592,note_on,,,,,0,0,1,,,,0,,,78,66
1006592,note_on,,,,,0,0,1,,,,0,,,66,50
1006592,note_off,,,,,0,0,1,,,,0,,,42,0
1006592,note_off,,,,,0,0,1,,,,0,,,77,0
1006592,note_off,,,,,0,0,1,,,,0,,,65,0
1006592,control_change,,,,,0,0,1,,,,0,64,0,,
1006592,control_change,,,,,0,0,1,,,,0,64,0,,
1006592,control_change,,,,,0,0,1,,,,0,64,0,,
1006592,control_change,,,,,0,0,1,,,,0,64,0,,
1006592,control_change,,,,,0,0,1,,,,0,64,0,,
1006592,control_change,,,,,1024,0,1,,,,0,64,0,,
1006592,control_change,,,,,0,0,1,,,,0,64,127,,
1006592,control_change,,,,,0,0,1,,,,0,64,0,,
1006592,control_change,,,,,0,0,1,,,,0,64,0,,
1006592,control_change,,,,,0,0,1,,,,0,64,0,,
1006592,control_change,,,,,0,0,1,,,,0,64,0,,
1006592,control_change,,,,,0,0,1,,,,0,64,0,,
1006592,set_tempo,,,,,3584,1,0,,666666,,,,,,
1006592,control_change,,,,,0,0,1,,,,0,64,0,,
1006850,control_change,,,,,258,0,1,,,,0,64,0,,
1007104,set_tempo,,,,,512,1,0,,444444,,,,,,
1007104,note_on,,,,,254,0,1,,,,0,,,46,18
1007104,note_on,,,,,0,0,1,,,,0,,,49,30
1007146,control_change,,,,,42,0,1,,,,0,64,127,,
1007616,note_off,,,,,470,0,1,,,,0,,,66,0
1007616,note_off,,,,,0,0,1,,,,0,,,49,0
1007616,note_on,,,,,0,0,1,,,,0,,,61,44
1007616,note_on,,,,,0,0,1,,,,0,,,73,60
1007616,note_on,,,,,0,0,1,,,,0,,,46,19
1007616,note_on,,,,,0,0,1,,,,0,,,49,31
1007616,note_off,,,,,0,0,1,,,,0,,,78,0
1007616,note_off,,,,,0,0,1,,,,0,,,46,0
1008128,note_off,,,,,512,0,1,,,,0,,,46,0
1008128,note_off,,,,,0,0,1,,,,0,,,49,0
1008128,note_on,,,,,0,0,1,,,,0,,,49,32
1008128,note_on,,,,,0,0,1,,,,0,,,46,20
1008640,set_tempo,,,,,1536,1,0,,500000,,,,,,
1008640,note_off,,,,,0,0,1,,,,0,,,73,0
1008640,note_off,,,,,0,0,1,,,,0,,,46,0
1008640,note_off,,,,,0,0,1,,,,0,,,49,0
1008640,note_on,,,,,0,0,1,,,,0,,,66,49
1008640,note_on,,,,,0,0,1,,,,0,,,78,65
1008640,note_on,,,,,0,0,1,,,,0,,,46,27
1008640,note_on,,,,,0,0,1,,,,0,,,54,39
1008640,note_off,,,,,0,0,1,,,,0,,,61,0
1008640,control_change,,,,,512,0,1,,,,0,64,0,,
1009026,control_change,,,,,386,0,1,,,,0,64,127,,
1009664,note_on,,,,,0,0,1,,,,0,,,55,43
1009664,set_tempo,,,,,1024,1,0,,545454,,,,,,
1009664,note_off,,,,,638,0,1,,,,0,,,66,0
1009664,note_off,,,,,0,0,1,,,,0,,,78,0
1009664,note_off,,,,,0,0,1,,,,0,,,46,0
1009664,note_off,,,,,0,0,1,,,,0,,,54,0
1009664,note_on,,,,,0,0,1,,,,0,,,64,48
1009664,note_on,,,,,0,0,1,,,,0,,,76,64
1009664,note_on,,,,,0,0,1,,,,0,,,46,31
1009839,control_change,,,,,175,0,1,,,,0,64,0,,
1010098,control_change,,,,,259,0,1,,,,0,64,127,,
1010176,note_on,,,,,0,0,1,,,,0,,,73,61
1010176,note_off,,,,,0,0,1,,,,0,,,76,0
1010176,note_on,,,,,0,0,1,,,,0,,,61,45
1010176,note_off,,,,,78,0,1,,,,0,,,64,0
1010688,control_change,,,,,0,0,1,,,,0,64,0,,
1010688,control_change,,,,,0,0,1,,,,0,64,0,,
1010688,control_change,,,,,0,0,1,,,,0,64,0,,
1010688,control_change,,,,,0,0,1,,,,0,64,0,,
1010688,control_change,,,,,0,0,1,,,,0,64,0,,
1010688,control_change,,,,,0,0,1,,,,0,64,0,,
1010688,control_change,,,,,0,0,1,,,,0,64,0,,
1010688,control_change,,,,,0,0,1,,,,0,64,0,,
1010688,control_change,,,,,0,0,1,,,,0,64,0,,
1010688,note_off,,,,,0,0,1,,,,0,,,73,0
1010688,note_off,,,,,0,0,1,,,,0,,,34,0
1010688,note_off,,,,,0,0,1,,,,0,,,46,0
1010688,note_off,,,,,0,0,1,,,,0,,,46,0
1010688,note_off,,,,,0,0,1,,,,0,,,55,0
1010688,control_change,,,,,0,0,1,,,,0,64,0,,
1010688,note_on,,,,,0,0,1,,,,0,,,62,41
1010688,note_off,,,,,0,0,1,,,,0,,,61,0
1010688,control_change,,,,,0,0,1,,,,0,64,0,,
1010688,control_change,,,,,0,0,1,,,,0,64,0,,
1010688,control_change,,,,,0,0,1,,,,0,64,127,,
1010688,control_change,,,,,512,0,1,,,,0,64,0,,
1010688,control_change,,,,,0,0,1,,,,0,64,127,,
1010688,control_change,,,,,0,0,1,,,,0,64,0,,
1010688,control_change,,,,,0,0,1,,,,0,64,0,,
1010688,control_change,,,,,0,0,1,,,,0,64,0,,
1010688,control_change,,,,,0,0,1,,,,0,64,0,,
1010688,control_change,,,,,0,0,1,,,,0,64,0,,
1010688,control_change,,,,,0,0,1,,,,0,64,0,,
1010688,note_on,,,,,0,0,1,,,,0,,,74,57
1010688,control_change,,,,,0,0,1,,,,0,64,0,,
1010688,control_change,,,,,0,0,1,,,,0,64,0,,
1010688,note_on,,,,,0,0,1,,,,0,,,47,41
1010688,control_change,,,,,0,0,1,,,,0,64,0,,
1010688,control_change,,,,,0,0,1,,,,0,64,0,,
1010688,control_change,,,,,0,0,1,,,,0,64,0,,
1010688,note_on,,,,,0,0,1,,,,0,,,35,29
1010946,control_change,,,,,258,0,1,,,,0,64,0,,
1010946,control_change,,,,,0,0,1,,,,0,64,0,,
1011200,set_tempo,,,,,1536,1,0,,444444,,,,,,
1011200,note_on,,,,,254,0,1,,,,0,,,47,17
1011200,note_on,,,,,0,0,1,,,,0,,,50,29
1011242,control_change,,,,,0,0,1,,,,0,64,127,,
1011242,control_change,,,,,42,0,1,,,,0,64,127,,
1011712,note_off,,,,,470,0,1,,,,0,,,47,0
1011712,note_off,,,,,0,0,1,,,,0,,,50,0
1011712,note_on,,,,,0,0,1,,,,0,,,47,17
1011712,note_on,,,,,0,0,1,,,,0,,,50,29
1012224,note_off,,,,,512,0,1,,,,0,,,47,0
1012224,note_off,,,,,0,0,1,,,,0,,,50,0
1012224,note_on,,,,,0,0,1,,,,0,,,47,17
1012224,note_on,,,,,0,0,1,,,,0,,,50,29
1012736,note_on,,,,,0,0,1,,,,0,,,50,17
1012736,note_on,,,,,0,0,1,,,,0,,,54,29
1012736,note_on,,,,,0,0,1,,,,0,,,71,54
1012736,note_on,,,,,0,0,1,,,,0,,,59,39
1012736,note_off,,,,,0,0,1,,,,0,,,50,0
1012736,set_tempo,,,,,1536,1,0,,545454,,,,,,
1012736,note_off,,,,,0,0,1,,,,0,,,74,0
1012736,note_off,,,,,0,0,1,,,,0,,,62,0
1012736,control_change,,,,,512,0,1,,,,0,64,0,,
1012736,note_off,,,,,0,0,1,,,,0,,,47,0
1013122,control_change,,,,,386,0,1,,,,0,64,127,,
1013248,set_tempo,,,,,512,1,0,,461538,,,,,,
1013248,note_on,,,,,0,0,1,,,,0,,,61,42
1013248,note_on,,,,,0,0,1,,,,0,,,73,57
1013248,note_off,,,,,126,0,1,,,,0,,,59,0
1013248,note_off,,,,,0,0,1,,,,0,,,71,0
1013760,note_off,,,,,512,0,1,,,,0,,,61,0
1013760,note_on,,,,,0,0,1,,,,0,,,50,29
1013760,note_off,,,,,0,0,1,,,,0,,,50,0
1013760,note_off,,,,,0,0,1,,,,0,,,54,0
1013760,note_on,,,,,0,0,1,,,,0,,,62,46
1013760,note_on,,,,,0,0,1,,,,0,,,74,61
1013760,note_on,,,,,0,0,1,,,,0,,,47,17
1013760,note_off,,,,,0,0,1,,,,0,,,73,0
1013935,control_change,,,,,175,0,1,,,,0,64,0,,
1014194,control_change,,,,,259,0,1,,,,0,64,127,,
1014272,note_off,,,,,78,0,1,,,,0,,,62,0
1014272,note_off,,,,,0,0,1,,,,0,,,74,0
1014272,note_on,,,,,0,0,1,,,,0,,,64,49
1014272,note_on,,,,,0,0,1,,,,0,,,76,64
1014784,note_off,,,,,0,0,1,,,,0,,,76,0
1014784,note_off,,,,,0,0,1,,,,0,,,47,0
1014784,control_change,,,,,0,0,1,,,,0,64,0,,
1014784,note_on,,,,,0,0,1,,,,0,,,46,42
1014784,note_on,,,,,0,0,1,,,,0,,,34,30
1014784,note_on,,,,,0,0,1,,,,0,,,78,70
1014784,note_off,,,,,0,0,1,,,,0,,,64,0
1014784,control_change,,,,,0,0,1,,,,0,64,0,,
1014784,control_change,,,,,0,0,1,,,,0,64,0,,
1014784,control_change,,,,,0,0,1,,,,0,64,0,,
1014784,note_off,,,,,0,0,1,,,,0,,,50,0
1014784,control_change,,,,,0,0,1,,,,0,64,0,,
1014784,control_change,,,,,0,0,1,,,,0,64,0,,
1014784,control_change,,,,,0,0,1,,,,0,64,0,,
1014784,control_change,,,,,0,0,1,,,,0,64,0,,
1014784,control_change,,,,,0,0,1,,,,0,64,0,,
1014784,control_change,,,,,0,0,1,,,,0,64,0,,
1014784,control_change,,,,,0,0,1,,,,0,64,0,,
1014784,control_change,,,,,0,0,1,,,,0,64,0,,
1014784,control_change,,,,,0,0,1,,,,0,64,127,,
1014784,control_change,,,,,0,0,1,,,,0,64,0,,
1014784,control_change,,,,,512,0,1,,,,0,64,0,,
1014784,note_on,,,,,0,0,1,,,,0,,,66,54
1014784,control_change,,,,,0,0,1,,,,0,64,0,,
1014784,note_off,,,,,0,0,1,,,,0,,,47,0
1014784,note_off,,,,,0,0,1,,,,0,,,35,0
1014784,set_tempo,,,,,1536,1,0,,666666,,,,,,
1015042,control_change,,,,,258,0,1,,,,0,64,0,,
1015296,set_tempo,,,,,512,1,0,,444444,,,,,,
1015296,note_on,,,,,254,0,1,,,,0,,,46,18
1015296,note_on,,,,,0,0,1,,,,0,,,49,30
1015338,control_change,,,,,42,0,1,,,,0,64,127,,
1015808,note_on,,,,,0,0,1,,,,0,,,46,19
1015808,note_on,,,,,0,0,1,,,,0,,,49,31
1015808,note_on,,,,,0,0,1,,,,0,,,73,66
1015808,note_on,,,,,0,0,1,,,,0,,,61,50
1015808,note_off,,,,,0,0,1,,,,0,,,49,0
1015808,note_off,,,,,0,0,1,,,,0,,,46,0
1015808,note_off,,,,,0,0,1,,,,0,,,78,0
1015808,note_off,,,,,470,0,1,,,,0,,,66,0
1016320,note_off,,,,,512,0,1,,,,0,,,46,0
1016320,note_off,,,,,0,0,1,,,,0,,,49,0
1016320,note_on,,,,,0,0,1,,,,0,,,46,20
1016320,note_on,,,,,0,0,1,,,,0,,,49,32
1016832,note_on,,,,,0,0,1,,,,0,,,66,55
1016832,note_on,,,,,0,0,1,,,,0,,,78,71
1016832,note_off,,,,,0,0,1,,,,0,,,49,0
1016832,note_on,,,,,0,0,1,,,,0,,,54,39
1016832,note_off,,,,,0,0,1,,,,0,,,46,0
1016832,note_off,,,,,0,0,1,,,,0,,,73,0
1016832,note_on,,,,,0,0,1,,,,0,,,46,27
1016832,control_change,,,,,512,0,1,,,,0,64,0,,
1016832,set_tempo,,,,,1536,1,0,,521739,,,,,,
1016832,note_off,,,,,0,0,1,,,,0,,,61,0
1017218,control_change,,,,,386,0,1,,,,0,64,127,,
1017856,note_off,,,,,0,0,1,,,,0,,,54,0
1017856,note_on,,,,,0,0,1,,,,0,,,76,66
1017856,note_on,,,,,0,0,1,,,,0,,,64,50
1017856,note_on,,,,,0,0,1,,,,0,,,55,43
1017856,note_off,,,,,0,0,1,,,,0,,,46,0
1017856,note_on,,,,,0,0,1,,,,0,,,46,31
1017856,note_off,,,,,638,0,1,,,,0,,,66,0
1017856,set_tempo,,,,,1024,1,0,,571428,,,,,,
1017856,note_off,,,,,0,0,1,,,,0,,,78,0
1018031,control_change,,,,,175,0,1,,,,0,64,0,,
1018290,control_change,,,,,259,0,1,,,,0,64,127,,
1018368,set_tempo,,,,,512,1,0,,545454,,,,,,
1018368,note_off,,,,,78,0,1,,,,0,,,64,0
1018368,note_off,,,,,0,0,1,,,,0,,,76,0
1018368,note_on,,,,,0,0,1,,,,0,,,61,47
1018368,note_on,,,,,0,0,1,,,,0,,,73,63
1018880,control_change,,,,,0,0,1,,,,0,64,0,,
1018880,control_change,,,,,0,0,1,,,,0,64,0,,
1018880,control_change,,,,,0,0,1,,,,0,64,0,,
1018880,control_change,,,,,0,0,1,,,,0,64,0,,
1018880,control_change,,,,,0,0,1,,,,0,64,0,,
1018880,control_change,,,,,0,0,1,,,,0,64,0,,
1018880,control_change,,,,,0,0,1,,,,0,64,0,,
1018880,control_change,,,,,0,0,1,,,,0,64,0,,
1018880,control_change,,,,,0,0,1,,,,0,64,0,,
1018880,control_change,,,,,0,0,1,,,,0,64,0,,
1018880,note_off,,,,,0,0,1,,,,0,,,61,0
1018880,note_off,,,,,0,0,1,,,,0,,,34,0
1018880,control_change,,,,,0,0,1,,,,0,64,127,,
1018880,control_change,,,,,0,0,1,,,,0,64,0,,
1018880,control_change,,,,,0,0,1,,,,0,64,0,,
1018880,control_change,,,,,0,0,1,,,,0,64,0,,
1018880,control_change,,,,,0,0,1,,,,0,64,0,,
1018880,control_change,,,,,0,0,1,,,,0,64,0,,
1018880,control_change,,,,,0,0,1,,,,0,64,0,,
1018880,control_change,,,,,0,0,1,,,,0,64,0,,
1018880,control_change,,,,,0,0,1,,,,0,64,0,,
1018880,control_change,,,,,0,0,1,,,,0,64,0,,
1018880,control_change,,,,,0,0,1,,,,0,64,0,,
1018880,control_change,,,,,0,0,1,,,,0,64,0,,
1018880,control_change,,,,,0,0,1,,,,0,64,0,,
1018880,control_change,,,,,0,0,1,,,,0,64,0,,
1018880,control_change,,,,,0,0,1,,,,0,64,127,,
1018880,control_change,,,,,0,0,1,,,,0,64,0,,
1018880,control_change,,,,,512,0,1,,,,0,64,0,,
1018880,note_off,,,,,0,0,1,,,,0,,,46,0
1018880,control_change,,,,,0,0,1,,,,0,64,0,,
1018880,note_off,,,,,0,0,1,,,,0,,,46,0
1018880,note_off,,,,,0,0,1,,,,0,,,73,0
1018880,note_on,,,,,0,0,1,,,,0,,,62,43
1018880,note_on,,,,,0,0,1,,,,0,,,47,41
1018880,note_on,,,,,0,0,1,,,,0,,,35,29
1018880,note_off,,,,,0,0,1,,,,0,,,55,0
1018880,note_on,,,,,0,0,1,,,,0,,,74,59
1019138,control_change,,,,,258,0,1,,,,0,64,0,,
1019138,control_change,,,,,0,0,1,,,,0,64,0,,
1019392,note_on,,,,,254,0,1,,,,0,,,47,26
1019392,note_on,,,,,0,0,1,,,,0,,,50,38
1019392,set_tempo,,,,,1024,1,0,,444444,,,,,,
1019434,control_change,,,,,42,0,1,,,,0,64,127,,
1019434,control_change,,,,,0,0,1,,,,0,64,127,,
1019904,note_on,,,,,0,0,1,,,,0,,,50,38
1019904,note_on,,,,,0,0,1,,,,0,,,47,26
1019904,note_off,,,,,0,0,1,,,,0,,,50,0
1019904,note_off,,,,,470,0,1,,,,0,,,47,0
1020416,note_off,,,,,512,0,1,,,,0,,,47,0
1020416,note_off,,,,,0,0,1,,,,0,,,50,0
1020416,note_on,,,,,0,0,1,,,,0,,,47,26
1020416,note_on,,,,,0,0,1,,,,0,,,50,38
1020928,note_on,,,,,0,0,1,,,,0,,,54,43
1020928,note_on,,,,,0,0,1,,,,0,,,50,31
1020928,note_off,,,,,0,0,1,,,,0,,,50,0
1020928,note_off,,,,,0,0,1,,,,0,,,47,0
1020928,control_change,,,,,512,0,1,,,,0,64,0,,
1021314,control_change,,,,,386,0,1,,,,0,64,127,,
1021696,note_off,,,,,382,0,1,,,,0,,,62,0
1021696,note_off,,,,,0,0,1,,,,0,,,74,0
1021696,note_on,,,,,0,0,1,,,,0,,,71,56
1021696,set_tempo,,,,,2304,1,0,,500000,,,,,,
1021952,note_off,,,,,0,0,1,,,,0,,,54,0
1021952,set_tempo,,,,,256,1,0,,705882,,,,,,
1021952,note_off,,,,,0,0,1,,,,0,,,50,0
1021952,note_on,,,,,0,0,1,,,,0,,,71,62
1021952,note_off,,,,,256,0,1,,,,0,,,71,0
1021952,note_on,,,,,0,0,1,,,,0,,,47,26
1021952,note_on,,,,,0,0,1,,,,0,,,50,38
1021962,control_change,,,,,10,0,1,,,,0,64,127,,
1022037,note_off,,,,,75,0,1,,,,0,,,71,0
1022037,note_on,,,,,0,0,1,,,,0,,,73,43
1022123,note_off,,,,,86,0,1,,,,0,,,73,0
1022123,note_on,,,,,0,0,1,,,,0,,,71,46
1022208,note_on,,,,,0,0,1,,,,0,,,73,46
1022208,note_off,,,,,85,0,1,,,,0,,,71,0
1022336,note_off,,,,,128,0,1,,,,0,,,73,0
1022336,note_on,,,,,0,0,1,,,,0,,,71,45
1022464,set_tempo,,,,,512,1,0,,600000,,,,,,
1022464,note_off,,,,,128,0,1,,,,0,,,71,0
1022464,note_on,,,,,0,0,1,,,,0,,,73,42
1022592,note_off,,,,,128,0,1,,,,0,,,73,0
1022592,note_on,,,,,0,0,1,,,,0,,,71,48
1022720,note_off,,,,,128,0,1,,,,0,,,71,0
1022720,note_on,,,,,0,0,1,,,,0,,,70,47
1022848,note_off,,,,,128,0,1,,,,0,,,70,0
1022848,note_on,,,,,0,0,1,,,,0,,,71,44
1022976,note_on,,,,,0,0,1,,,,0,,,31,38
1022976,note_on,,,,,0,0,1,,,,0,,,76,65
1022976,note_on,,,,,0,0,1,,,,0,,,64,52
1022976,note_off,,,,,0,0,1,,,,0,,,35,0
1022976,note_off,,,,,0,0,1,,,,0,,,47,0
1022976,note_off,,,,,0,0,1,,,,0,,,47,0
1022976,set_tempo,,,,,512,1,0,,500000,,,,,,
1022976,control_change,,,,,0,0,1,,,,0,64,127,,
1022976,control_change,,,,,128,0,1,,,,0,64,0,,
1022976,note_off,,,,,0,0,1,,,,0,,,50,0
1022976,note_off,,,,,0,0,1,,,,0,,,71,0
1023077,control_change,,,,,101,0,1,,,,0,64,0,,
1023260,control_change,,,,,183,0,1,,,,0,64,127,,
1023488,note_on,,,,,0,0,1,,,,0,,,47,30
1023488,note_on,,,,,228,0,1,,,,0,,,43,20
1024000,note_off,,,,,0,0,1,,,,0,,,76,0
1024000,note_off,,,,,0,0,1,,,,0,,,43,0
1024000,note_off,,,,,0,0,1,,,,0,,,47,0
1024000,note_on,,,,,0,0,1,,,,0,,,62,46
1024000,note_on,,,,,0,0,1,,,,0,,,74,59
1024000,note_on,,,,,0,0,1,,,,0,,,43,19
1024000,note_on,,,,,0,0,1,,,,0,,,47,28
1024000,note_off,,,,,512,0,1,,,,0,,,64,0
1024030,control_change,,,,,30,0,1,,,,0,64,0,,
1024213,control_change,,,,,183,0,1,,,,0,64,127,,
1024512,note_off,,,,,299,0,1,,,,0,,,43,0
1024512,note_on,,,,,0,0,1,,,,0,,,47,27
1024512,note_off,,,,,0,0,1,,,,0,,,47,0
1024512,note_on,,,,,0,0,1,,,,0,,,43,18
1024768,note_off,,,,,256,0,1,,,,0,,,62,0
1024768,note_off,,,,,0,0,1,,,,0,,,74,0
1024768,note_on,,,,,0,0,1,,,,0,,,61,42
1024768,note_on,,,,,0,0,1,,,,0,,,73,55
1025024,note_off,,,,,0,0,1,,,,0,,,73,0
1025024,set_tempo,,,,,2048,1,0,,545454,,,,,,
1025024,note_off,,,,,256,0,1,,,,0,,,61,0
1025024,note_on,,,,,0,0,1,,,,0,,,47,25
1025024,note_off,,,,,0,0,1,,,,0,,,43,0
1025024,note_off,,,,,0,0,1,,,,0,,,47,0
1025024,note_on,,,,,0,0,1,,,,0,,,58,46
1025024,note_on,,,,,0,0,1,,,,0,,,70,60
1025024,note_on,,,,,0,0,1,,,,0,,,43,17
1025044,control_change,,,,,20,0,1,,,,0,64,0,,
1025267,control_change,,,,,223,0,1,,,,0,64,127,,
1026048,note_on,,,,,0,0,1,,,,0,,,43,28
1026048,note_on,,,,,0,0,1,,,,0,,,71,56
1026048,note_on,,,,,0,0,1,,,,0,,,47,38
1026048,note_on,,,,,0,0,1,,,,0,,,59,42
1026048,note_off,,,,,0,0,1,,,,0,,,47,0
1026048,note_off,,,,,0,0,1,,,,0,,,70,0
1026048,note_off,,,,,781,0,1,,,,0,,,58,0
1026048,note_off,,,,,0,0,1,,,,0,,,43,0
1026139,control_change,,,,,91,0,1,,,,0,64,0,,
1026281,control_change,,,,,142,0,1,,,,0,64,127,,
1027072,note_on,,,,,0,0,1,,,,0,,,30,31
1027072,note_on,,,,,0,0,1,,,,0,,,74,60
1027072,note_on,,,,,0,0,1,,,,0,,,62,46
1027072,note_off,,,,,0,0,1,,,,0,,,47,0
1027072,note_off,,,,,0,0,1,,,,0,,,43,0
1027072,note_off,,,,,0,0,1,,,,0,,,31,0
1027072,control_change,,,,,0,0,1,,,,0,64,127,,
1027072,note_off,,,,,0,0,1,,,,0,,,59,0
1027072,control_change,,,,,791,0,1,,,,0,64,0,,
1027072,set_tempo,,,,,2048,1,0,,705882,,,,,,
1027072,note_off,,,,,0,0,1,,,,0,,,71,0
1027194,control_change,,,,,122,0,1,,,,0,64,0,,
1027336,control_change,,,,,142,0,1,,,,0,64,127,,
1027584,note_on,,,,,0,0,1,,,,0,,,47,23
1027584,note_on,,,,,248,0,1,,,,0,,,42,13
1027584,set_tempo,,,,,512,1,0,,545454,,,,,,
1028096,note_off,,,,,512,0,1,,,,0,,,42,0
1028096,note_off,,,,,0,0,1,,,,0,,,47,0
1028096,note_on,,,,,0,0,1,,,,0,,,42,8
1028096,note_on,,,,,0,0,1,,,,0,,,47,18
1028608,set_tempo,,,,,1024,1,0,,625000,,,,,,
1028608,note_off,,,,,0,0,1,,,,0,,,47,0
1028608,note_on,,,,,0,0,1,,,,0,,,42,8
1028608,note_on,,,,,0,0,1,,,,0,,,47,18
1028608,note_off,,,,,512,0,1,,,,0,,,42,0
1029120,note_off,,,,,0,0,1,,,,0,,,74,0
1029120,note_off,,,,,512,0,1,,,,0,,,62,0
1029120,note_on,,,,,0,0,1,,,,0,,,46,18
1029120,note_on,,,,,0,0,1,,,,0,,,42,8
1029120,note_on,,,,,0,0,1,,,,0,,,73,40
1029120,set_tempo,,,,,512,1,0,,750000,,,,,,
1029120,note_off,,,,,0,0,1,,,,0,,,47,0
1029120,note_off,,,,,0,0,1,,,,0,,,42,0
1029120,note_on,,,,,0,0,1,,,,0,,,61,26
1029140,control_change,,,,,20,0,1,,,,0,64,0,,
1029964,note_off,,,,,824,0,1,,,,0,,,61,0
1029964,note_off,,,,,0,0,1,,,,0,,,73,0
1030144,set_tempo,,,,,1024,1,0,,545454,,,,,,
1030144,note_off,,,,,0,0,1,,,,0,,,46,0
1030144,note_on,,,,,0,0,1,,,,0,,,61,31
1030144,note_on,,,,,180,0,1,,,,0,,,49,19
1030144,note_off,,,,,0,0,1,,,,0,,,42,0
1030296,control_change,,,,,152,0,1,,,,0,64,127,,
1031168,control_change,,,,,872,0,1,,,,0,64,0,,
1031168,note_off,,,,,0,0,1,,,,0,,,49,0
1031168,note_off,,,,,0,0,1,,,,0,,,61,0
1031168,note_off,,,,,0,0,1,,,,0,,,30,0
1031168,note_on,,,,,0,0,1,,,,0,,,49,24
1031168,note_on,,,,,0,0,1,,,,0,,,61,36
1031168,note_on,,,,,0,0,1,,,,0,,,34,31
1031168,control_change,,,,,0,0,1,,,,0,64,127,,
1031360,control_change,,,,,192,0,1,,,,0,64,0,,
1031680,note_on,,,,,320,0,1,,,,0,,,43,22
1031680,note_on,,,,,0,0,1,,,,0,,,46,15
1031680,set_tempo,,,,,1536,1,0,,444444,,,,,,
1032002,note_off,,,,,322,0,1,,,,0,,,43,0
1032002,note_off,,,,,0,0,1,,,,0,,,46,0
1032192,note_on,,,,,0,0,1,,,,0,,,46,10
1032192,note_on,,,,,190,0,1,,,,0,,,43,17
1032514,note_off,,,,,322,0,1,,,,0,,,43,0
1032514,note_off,,,,,0,0,1,,,,0,,,46,0
1032704,note_on,,,,,190,0,1,,,,0,,,43,17
1032704,note_on,,,,,0,0,1,,,,0,,,46,10
1032704,set_tempo,,,,,1024,1,0,,545454,,,,,,
1033026,note_off,,,,,322,0,1,,,,0,,,43,0
1033026,note_off,,,,,0,0,1,,,,0,,,46,0
1033216,note_off,,,,,190,0,1,,,,0,,,34,0
1033216,note_on,,,,,0,0,1,,,,0,,,43,17
1033216,note_on,,,,,0,0,1,,,,0,,,46,10
1033216,set_tempo,,,,,512,1,0,,500000,,,,,,
1034240,set_tempo,,,,,1024,1,0,,545454,,,,,,
1034240,note_off,,,,,0,0,1,,,,0,,,43,0
1034240,note_on,,,,,0,0,1,,,,0,,,62,43
1034240,note_on,,,,,0,0,1,,,,0,,,50,31
1034240,note_off,,,,,0,0,1,,,,0,,,46,0
1034240,note_off,,,,,0,0,1,,,,0,,,61,0
1034240,note_off,,,,,1024,0,1,,,,0,,,49,0
1034432,control_change,,,,,192,0,1,,,,0,64,127,,
1035008,note_on,,,,,0,0,1,,,,0,,,49,27
1035008,set_tempo,,,,,768,1,0,,666666,,,,,,
1035008,note_off,,,,,0,0,1,,,,0,,,62,0
1035008,note_off,,,,,576,0,1,,,,0,,,50,0
1035008,note_on,,,,,0,0,1,,,,0,,,61,39
1035264,control_change,,,,,256,0,1,,,,0,64,127,,
1035264,note_on,,,,,0,0,1,,,,0,,,34,31
1035264,note_on,,,,,0,0,1,,,,0,,,61,39
1035264,note_on,,,,,0,0,1,,,,0,,,49,27
1035264,note_off,,,,,0,0,1,,,,0,,,61,0
1035264,note_off,,,,,0,0,1,,,,0,,,49,0
1035571,control_change,,,,,307,0,1,,,,0,64,0,,
1035776,note_on,,,,,0,0,1,,,,0,,,46,15
1035776,note_on,,,,,205,0,1,,,,0,,,43,22
1035776,set_tempo,,,,,768,1,0,,444444,,,,,,
1036098,note_off,,,,,0,0,1,,,,0,,,46,0
1036098,note_off,,,,,322,0,1,,,,0,,,43,0
1036288,note_on,,,,,0,0,1,,,,0,,,46,10
1036288,note_on,,,,,190,0,1,,,,0,,,43,17
1036610,note_off,,,,,322,0,1,,,,0,,,43,0
1036610,note_off,,,,,0,0,1,,,,0,,,46,0
1036766,control_change,,,,,156,0,1,,,,0,64,127,,
1036800,note_off,,,,,34,0,1,,,,0,,,49,0
1036800,note_off,,,,,0,0,1,,,,0,,,61,0
1036800,note_on,,,,,0,0,1,,,,0,,,49,32
1036800,note_on,,,,,0,0,1,,,,0,,,61,44
1036800,note_on,,,,,0,0,1,,,,0,,,46,10
1036800,set_tempo,,,,,1024,1,0,,545454,,,,,,
1036800,note_on,,,,,0,0,1,,,,0,,,43,17
1037122,note_off,,,,,322,0,1,,,,0,,,43,0
1037122,note_off,,,,,0,0,1,,,,0,,,46,0
1037312,note_on,,,,,0,0,1,,,,0,,,43,17
1037312,note_on,,,,,0,0,1,,,,0,,,64,45
1037312,note_off,,,,,0,0,1,,,,0,,,34,0
1037312,note_off,,,,,0,0,1,,,,0,,,61,0
1037312,note_off,,,,,190,0,1,,,,0,,,49,0
1037312,note_on,,,,,0,0,1,,,,0,,,46,10
1037312,note_on,,,,,0,0,1,,,,0,,,52,33
1037312,set_tempo,,,,,512,1,0,,500000,,,,,,
1037380,control_change,,,,,68,0,1,,,,0,64,0,,
1037687,control_change,,,,,307,0,1,,,,0,64,127,,
1038336,note_off,,,,,0,0,1,,,,0,,,64,0
1038336,note_off,,,,,0,0,1,,,,0,,,43,0
1038336,note_off,,,,,0,0,1,,,,0,,,46,0
1038336,note_on,,,,,0,0,1,,,,0,,,55,36
1038336,note_on,,,,,0,0,1,,,,0,,,67,48
1038336,note_on,,,,,0,0,1,,,,0,,,43,13
1038336,note_off,,,,,649,0,1,,,,0,,,52,0
1038336,note_on,,,,,0,0,1,,,,0,,,47,20
1038336,set_tempo,,,,,1024,1,0,,600000,,,,,,
1038404,control_change,,,,,68,0,1,,,,0,64,0,,
1038677,control_change,,,,,273,0,1,,,,0,64,127,,
1039360,note_off,,,,,0,0,1,,,,0,,,55,0
1039360,note_off,,,,,0,0,1,,,,0,,,67,0
1039360,note_off,,,,,0,0,1,,,,0,,,43,0
1039360,note_on,,,,,0,0,1,,,,0,,,54,32
1039360,note_on,,,,,0,0,1,,,,0,,,66,44
1039360,note_on,,,,,0,0,1,,,,0,,,34,31
1039360,control_change,,,,,683,0,1,,,,0,64,127,,
1039360,note_off,,,,,0,0,1,,,,0,,,47,0
1039537,control_change,,,,,177,0,1,,,,0,64,0,,
1039854,control_change,,,,,317,0,1,,,,0,64,0,,
1039872,set_tempo,,,,,1536,1,0,,444444,,,,,,
1039872,note_on,,,,,0,0,1,,,,0,,,46,23
1039872,note_on,,,,,18,0,1,,,,0,,,42,13
1039872,note_on,,,,,0,0,1,,,,0,,,49,13
1040194,note_off,,,,,0,0,1,,,,0,,,49,0
1040194,note_off,,,,,322,0,1,,,,0,,,42,0
1040194,note_off,,,,,0,0,1,,,,0,,,46,0
1040384,note_on,,,,,0,0,1,,,,0,,,49,8
1040384,note_on,,,,,0,0,1,,,,0,,,46,18
1040384,note_on,,,,,190,0,1,,,,0,,,42,8
1040706,note_off,,,,,0,0,1,,,,0,,,49,0
1040706,note_off,,,,,0,0,1,,,,0,,,46,0
1040706,note_off,,,,,322,0,1,,,,0,,,42,0
1040896,note_on,,,,,190,0,1,,,,0,,,42,8
1040896,note_on,,,,,0,0,1,,,,0,,,49,8
1040896,note_on,,,,,0,0,1,,,,0,,,46,18
1040896,set_tempo,,,,,1024,1,0,,545454,,,,,,
1041218,note_off,,,,,0,0,1,,,,0,,,46,0
1041218,note_off,,,,,322,0,1,,,,0,,,42,0
1041218,note_off,,,,,0,0,1,,,,0,,,49,0
1041408,note_on,,,,,190,0,1,,,,0,,,42,8
1041408,note_on,,,,,0,0,1,,,,0,,,46,18
1041408,note_on,,,,,0,0,1,,,,0,,,49,8
1042432,set_tempo,,,,,1536,1,0,,545454,,,,,,
1042432,note_off,,,,,1024,0,1,,,,0,,,54,0
1042432,note_off,,,,,0,0,1,,,,0,,,66,0
1042432,note_off,,,,,0,0,1,,,,0,,,42,0
1042432,note_off,,,,,0,0,1,,,,0,,,46,0
1042432,note_off,,,,,0,0,1,,,,0,,,49,0
1042432,note_on,,,,,0,0,1,,,,0,,,52,28
1042432,note_on,,,,,0,0,1,,,,0,,,64,40
1042467,control_change,,,,,35,0,1,,,,0,64,127,,
1043456,note_off,,,,,0,0,1,,,,0,,,64,0
1043456,note_off,,,,,0,0,1,,,,0,,,34,0
1043456,note_on,,,,,0,0,1,,,,0,,,62,40
1043456,note_on,,,,,0,0,1,,,,0,,,35,31
1043456,note_off,,,,,0,0,1,,,,0,,,52,0
1043456,note_on,,,,,0,0,1,,,,0,,,50,28
1043456,control_change,,,,,989,0,1,,,,0,64,0,,
1043493,control_change,,,,,37,0,1,,,,0,64,127,,
1043751,control_change,,,,,258,0,1,,,,0,64,0,,
1043968,set_tempo,,,,,1536,1,0,,500000,,,,,,
1043968,note_on,,,,,217,0,1,,,,0,,,42,13
1043968,note_on,,,,,0,0,1,,,,0,,,47,23
1044194,control_change,,,,,226,0,1,,,,0,64,127,,
1044290,note_off,,,,,96,0,1,,,,0,,,42,0
1044290,note_off,,,,,0,0,1,,,,0,,,47,0
1044480,note_on,,,,,0,0,1,,,,0,,,47,18
1044480,note_on,,,,,0,0,1,,,,0,,,61,42
1044480,note_on,,,,,0,0,1,,,,0,,,49,30
1044480,note_off,,,,,0,0,1,,,,0,,,62,0
1044480,note_on,,,,,0,0,1,,,,0,,,42,8
1044480,note_off,,,,,190,0,1,,,,0,,,50,0
1044637,control_change,,,,,157,0,1,,,,0,64,0,,
1044802,note_off,,,,,165,0,1,,,,0,,,42,0
1044802,note_off,,,,,0,0,1,,,,0,,,47,0
1044821,control_change,,,,,19,0,1,,,,0,64,127,,
1044992,note_off,,,,,0,0,1,,,,0,,,61,0
1044992,set_tempo,,,,,1024,1,0,,545454,,,,,,
1044992,note_off,,,,,171,0,1,,,,0,,,49,0
1044992,note_on,,,,,0,0,1,,,,0,,,50,30
1044992,note_on,,,,,0,0,1,,,,0,,,62,42
1044992,note_on,,,,,0,0,1,,,,0,,,42,8
1044992,note_on,,,,,0,0,1,,,,0,,,47,18
1045153,control_change,,,,,161,0,1,,,,0,64,0,,
1045301,control_change,,,,,148,0,1,,,,0,64,127,,
1045314,note_off,,,,,0,0,1,,,,0,,,47,0
1045314,note_off,,,,,13,0,1,,,,0,,,42,0
1045504,note_on,,,,,0,0,1,,,,0,,,64,43
1045504,note_on,,,,,0,0,1,,,,0,,,47,18
1045504,note_on,,,,,0,0,1,,,,0,,,52,31
1045504,note_off,,,,,0,0,1,,,,0,,,35,0
1045504,note_on,,,,,0,0,1,,,,0,,,43,8
1045504,note_off,,,,,0,0,1,,,,0,,,62,0
1045504,note_off,,,,,190,0,1,,,,0,,,50,0
1045504,set_tempo,,,,,512,1,0,,545454,,,,,,
1045559,control_change,,,,,55,0,1,,,,0,64,0,,
1046002,control_change,,,,,443,0,1,,,,0,64,127,,
1046528,note_on,,,,,0,0,1,,,,0,,,47,20
1046528,note_on,,,,,0,0,1,,,,0,,,40,13
1046528,note_on,,,,,0,0,1,,,,0,,,62,40
1046528,note_on,,,,,0,0,1,,,,0,,,50,28
1046528,note_off,,,,,0,0,1,,,,0,,,47,0
1046528,note_off,,,,,0,0,1,,,,0,,,64,0
1046528,note_off,,,,,526,0,1,,,,0,,,52,0
1046528,set_tempo,,,,,1024,1,0,,600000,,,,,,
1046528,note_off,,,,,0,0,1,,,,0,,,43,0
1046666,control_change,,,,,138,0,1,,,,0,64,0,,
1046998,control_change,,,,,332,0,1,,,,0,64,127,,
1047040,note_on,,,,,0,0,1,,,,0,,,49,27
1047040,note_off,,,,,0,0,1,,,,0,,,62,0
1047040,note_on,,,,,0,0,1,,,,0,,,61,39
1047040,note_off,,,,,42,0,1,,,,0,,,50,0
1047183,control_change,,,,,143,0,1,,,,0,64,0,,
1047404,control_change,,,,,221,0,1,,,,0,64,127,,
1047552,note_on,,,,,0,0,1,,,,0,,,30,31
1047552,control_change,,,,,148,0,1,,,,0,64,0,,
1047552,note_off,,,,,0,0,1,,,,0,,,49,0
1047552,note_off,,,,,0,0,1,,,,0,,,61,0
1047552,note_off,,,,,0,0,1,,,,0,,,40,0
1047552,note_off,,,,,0,0,1,,,,0,,,47,0
1047552,note_on,,,,,0,0,1,,,,0,,,47,26
1047552,note_on,,,,,0,0,1,,,,0,,,59,38
1048064,note_on,,,,,0,0,1,,,,0,,,42,23
1048064,set_tempo,,,,,1536,1,0,,500000,,,,,,
1048064,note_on,,,,,512,0,1,,,,0,,,38,13
1048576,note_off,,,,,512,0,1,,,,0,,,38,0
1048576,note_off,,,,,0,0,1,,,,0,,,42,0
1048576,note_on,,,,,0,0,1,,,,0,,,38,8
1048576,note_on,,,,,0,0,1,,,,0,,,42,18
1049088,note_on,,,,,0,0,1,,,,0,,,42,18
1049088,note_off,,,,,512,0,1,,,,0,,,38,0
1049088,note_off,,,,,0,0,1,,,,0,,,42,0
1049088,note_on,,,,,0,0,1,,,,0,,,38,8
1049088,set_tempo,,,,,1024,1,0,,625000,,,,,,
1049600,note_off,,,,,512,0,1,,,,0,,,47,0
1049600,note_off,,,,,0,0,1,,,,0,,,38,0
1049600,note_on,,,,,0,0,1,,,,0,,,46,14
1049600,note_off,,,,,0,0,1,,,,0,,,42,0
1049600,note_on,,,,,0,0,1,,,,0,,,42,18
1049600,note_on,,,,,0,0,1,,,,0,,,58,26
1049600,note_off,,,,,0,0,1,,,,0,,,59,0
1049600,note_on,,,,,0,0,1,,,,0,,,37,8
1050624,note_off,,,,,0,0,1,,,,0,,,37,0
1050624,set_tempo,,,,,1536,1,0,,705882,,,,,,
1050624,note_off,,,,,1024,0,1,,,,0,,,46,0
1050624,note_on,,,,,0,0,1,,,,0,,,70,39
1050624,note_on,,,,,0,0,1,,,,0,,,58,15
1050624,note_off,,,,,0,0,1,,,,0,,,42,0
1050624,note_off,,,,,0,0,1,,,,0,,,58,0
1050624,note_off,,,,,0,0,1,,,,0,,,30,0
1051648,note_on,,,,,0,0,1,,,,0,,,43,27
1051648,note_on,,,,,0,0,1,,,,0,,,31,19
1051648,note_off,,,,,0,0,1,,,,0,,,58,0
1051648,note_on,,,,,0,0,1,,,,0,,,70,40
1051648,control_change,,,,,0,0,1,,,,0,64,127,,
1051648,control_change,,,,,0,0,1,,,,0,64,0,,
1051648,note_on,,,,,0,0,1,,,,0,,,58,18
1051648,note_off,,,,,0,0,1,,,,0,,,70,0
1051648,control_change,,,,,1024,0,1,,,,0,64,0,,
1051840,control_change,,,,,192,0,1,,,,0,64,0,,
1052160,note_on,,,,,0,0,1,,,,0,,,52,18
1052160,note_on,,,,,0,0,1,,,,0,,,49,11
1052160,note_on,,,,,320,0,1,,,,0,,,43,18
1052160,set_tempo,,,,,1536,1,0,,480000,,,,,,
1052672,note_off,,,,,0,0,1,,,,0,,,49,0
1052672,note_on,,,,,0,0,1,,,,0,,,52,13
1052672,note_on,,,,,0,0,1,,,,0,,,49,6
1052672,note_on,,,,,0,0,1,,,,0,,,43,13
1052672,note_off,,,,,0,0,1,,,,0,,,52,0
1052672,note_off,,,,,512,0,1,,,,0,,,43,0
1053184,note_on,,,,,0,0,1,,,,0,,,52,13
1053184,note_on,,,,,0,0,1,,,,0,,,49,6
1053184,note_on,,,,,0,0,1,,,,0,,,43,13
1053184,note_off,,,,,0,0,1,,,,0,,,49,0
1053184,note_off,,,,,512,0,1,,,,0,,,43,0
1053184,note_off,,,,,0,0,1,,,,0,,,52,0
1053696,note_on,,,,,0,0,1,,,,0,,,52,13
1053696,note_on,,,,,0,0,1,,,,0,,,49,6
1053696,note_on,,,,,0,0,1,,,,0,,,43,13
1053696,note_off,,,,,0,0,1,,,,0,,,52,0
1053696,note_off,,,,,0,0,1,,,,0,,,49,0
1053696,note_off,,,,,512,0,1,,,,0,,,43,0
1053696,set_tempo,,,,,1536,1,0,,500000,,,,,,
1054720,note_on,,,,,0,0,1,,,,0,,,59,22
1054720,set_tempo,,,,,1024,1,0,,600000,,,,,,
1054720,note_off,,,,,0,0,1,,,,0,,,31,0
1054720,note_off,,,,,0,0,1,,,,0,,,70,0
1054720,note_off,,,,,1024,0,1,,,,0,,,58,0
1054720,note_off,,,,,0,0,1,,,,0,,,43,0
1054720,note_on,,,,,0,0,1,,,,0,,,71,43
1054912,control_change,,,,,192,0,1,,,,0,64,127,,
1055488,note_on,,,,,0,0,1,,,,0,,,70,39
1055488,note_on,,,,,0,0,1,,,,0,,,58,18
1055488,note_off,,,,,0,0,1,,,,0,,,71,0
1055488,note_off,,,,,576,0,1,,,,0,,,59,0
1055488,set_tempo,,,,,768,1,0,,666666,,,,,,
1055744,note_off,,,,,0,0,1,,,,0,,,52,0
1055744,note_off,,,,,0,0,1,,,,0,,,70,0
1055744,note_off,,,,,0,0,1,,,,0,,,58,0
1055744,control_change,,,,,0,0,1,,,,0,64,0,,
1055744,control_change,,,,,256,0,1,,,,0,64,127,,
1055744,note_off,,,,,0,0,1,,,,0,,,49,0
1055744,note_off,,,,,0,0,1,,,,0,,,43,0
1055744,note_on,,,,,0,0,1,,,,0,,,43,31
1055744,note_on,,,,,0,0,1,,,,0,,,58,18
1055744,note_on,,,,,0,0,1,,,,0,,,31,22
1055744,note_on,,,,,0,0,1,,,,0,,,70,39
1056051,control_change,,,,,307,0,1,,,,0,64,0,,
1056256,set_tempo,,,,,768,1,0,,500000,,,,,,
1056256,note_on,,,,,0,0,1,,,,0,,,52,22
1056256,note_on,,,,,0,0,1,,,,0,,,49,15
1056256,note_on,,,,,205,0,1,,,,0,,,43,22
1056768,note_on,,,,,0,0,1,,,,0,,,52,17
1056768,note_on,,,,,0,0,1,,,,0,,,49,10
1056768,note_on,,,,,0,0,1,,,,0,,,43,17
1056768,note_off,,,,,0,0,1,,,,0,,,52,0
1056768,note_off,,,,,0,0,1,,,,0,,,49,0
1056768,note_off,,,,,512,0,1,,,,0,,,43,0
1057246,control_change,,,,,478,0,1,,,,0,64,127,,
1057280,set_tempo,,,,,1024,1,0,,571428,,,,,,
1057280,note_on,,,,,0,0,1,,,,0,,,43,17
1057280,note_on,,,,,0,0,1,,,,0,,,70,44
1057280,note_on,,,,,0,0,1,,,,0,,,58,23
1057280,note_off,,,,,0,0,1,,,,0,,,52,0
1057280,note_off,,,,,0,0,1,,,,0,,,49,0
1057280,note_off,,,,,0,0,1,,,,0,,,43,0
1057280,note_on,,,,,0,0,1,,,,0,,,49,10
1057280,note_on,,,,,0,0,1,,,,0,,,52,17
1057280,note_off,,,,,0,0,1,,,,0,,,70,0
1057280,note_off,,,,,34,0,1,,,,0,,,58,0
1057792,note_on,,,,,0,0,1,,,,0,,,61,24
1057792,note_on,,,,,0,0,1,,,,0,,,73,45
1057792,note_off,,,,,0,0,1,,,,0,,,70,0
1057792,note_on,,,,,0,0,1,,,,0,,,43,13
1057792,note_on,,,,,0,0,1,,,,0,,,49,6
1057792,note_on,,,,,0,0,1,,,,0,,,52,13
1057792,note_off,,,,,0,0,1,,,,0,,,52,0
1057792,note_off,,,,,0,0,1,,,,0,,,43,0
1057792,note_off,,,,,0,0,1,,,,0,,,49,0
1057792,set_tempo,,,,,512,1,0,,545454,,,,,,
1057792,note_off,,,,,512,0,1,,,,0,,,58,0
1057860,control_change,,,,,68,0,1,,,,0,64,0,,
1058167,control_change,,,,,307,0,1,,,,0,64,127,,
1058816,note_on,,,,,0,0,1,,,,0,,,52,13
1058816,note_on,,,,,0,0,1,,,,0,,,47,20
1058816,note_on,,,,,0,0,1,,,,0,,,43,13
1058816,note_on,,,,,0,0,1,,,,0,,,76,48
1058816,note_on,,,,,0,0,1,,,,0,,,64,27
1058816,note_off,,,,,0,0,1,,,,0,,,52,0
1058816,note_off,,,,,0,0,1,,,,0,,,49,0
1058816,note_off,,,,,0,0,1,,,,0,,,43,0
1058816,note_off,,,,,0,0,1,,,,0,,,43,0
1058816,note_off,,,,,0,0,1,,,,0,,,73,0
1058816,note_off,,,,,649,0,1,,,,0,,,61,0
1058816,set_tempo,,,,,1024,1,0,,705882,,,,,,
1058816,note_off,,,,,0,0,1,,,,0,,,31,0
1058884,control_change,,,,,68,0,1,,,,0,64,0,,
1059157,control_change,,,,,273,0,1,,,,0,64,127,,
1059840,note_off,,,,,0,0,1,,,,0,,,52,0
1059840,note_on,,,,,0,0,1,,,,0,,,75,43
1059840,note_off,,,,,0,0,1,,,,0,,,47,0
1059840,note_off,,,,,0,0,1,,,,0,,,43,0
1059840,note_off,,,,,0,0,1,,,,0,,,76,0
1059840,note_off,,,,,0,0,1,,,,0,,,64,0
1059840,control_change,,,,,0,0,1,,,,0,64,0,,
1059840,note_on,,,,,0,0,1,,,,0,,,63,23
1059840,note_on,,,,,0,0,1,,,,0,,,31,19
1059840,note_on,,,,,0,0,1,,,,0,,,43,12
1059840,control_change,,,,,683,0,1,,,,0,64,127,,
1059840,key_signature,,,,,1024,1,0,Abm,,,,,,,
1060017,control_change,,,,,177,0,1,,,,0,64,0,,
1060334,control_change,,,,,317,0,1,,,,0,64,0,,
1060352,note_on,,,,,18,0,1,,,,0,,,43,12
1060352,note_on,,,,,0,0,1,,,,0,,,51,17
1060352,set_tempo,,,,,512,1,0,,480000,,,,,,
1060352,note_on,,,,,0,0,1,,,,0,,,46,12
1060864,note_off,,,,,512,0,1,,,,0,,,43,0
1060864,note_off,,,,,0,0,1,,,,0,,,46,0
1060864,note_off,,,,,0,0,1,,,,0,,,51,0
1060864,note_on,,,,,0,0,1,,,,0,,,43,12
1060864,note_on,,,,,0,0,1,,,,0,,,46,12
1060864,note_on,,,,,0,0,1,,,,0,,,51,17
1061376,note_on,,,,,0,0,1,,,,0,,,51,17
1061376,note_on,,,,,0,0,1,,,,0,,,46,12
1061376,note_on,,,,,0,0,1,,,,0,,,43,12
1061376,note_off,,,,,0,0,1,,,,0,,,51,0
1061376,note_off,,,,,512,0,1,,,,0,,,43,0
1061376,note_off,,,,,0,0,1,,,,0,,,46,0
1061888,set_tempo,,,,,1536,1,0,,500000,,,,,,
1061888,note_off,,,,,512,0,1,,,,0,,,43,0
1061888,note_off,,,,,0,0,1,,,,0,,,46,0
1061888,note_off,,,,,0,0,1,,,,0,,,51,0
1061888,note_on,,,,,0,0,1,,,,0,,,43,12
1061888,note_on,,,,,0,0,1,,,,0,,,46,12
1061888,note_on,,,,,0,0,1,,,,0,,,51,17
1062912,note_on,,,,,0,0,1,,,,0,,,46,12
1062912,note_on,,,,,0,0,1,,,,0,,,43,12
1062912,note_on,,,,,0,0,1,,,,0,,,73,40
1062912,note_on,,,,,0,0,1,,,,0,,,61,24
1062912,note_on,,,,,0,0,1,,,,0,,,51,18
1062912,note_off,,,,,0,0,1,,,,0,,,46,0
1062912,note_off,,,,,0,0,1,,,,0,,,43,0
1062912,note_off,,,,,0,0,1,,,,0,,,75,0
1062912,set_tempo,,,,,1024,1,0,,666666,,,,,,
1062912,note_off,,,,,0,0,1,,,,0,,,51,0
1062912,note_off,,,,,1024,0,1,,,,0,,,63,0
1062947,control_change,,,,,35,0,1,,,,0,64,127,,
1063936,control_change,,,,,989,0,1,,,,0,64,0,,
1063936,note_off,,,,,0,0,1,,,,0,,,73,0
1063936,note_off,,,,,0,0,1,,,,0,,,61,0
1063936,control_change,,,,,0,0,1,,,,0,64,0,,
1063936,note_on,,,,,0,0,1,,,,0,,,32,20
1063936,note_on,,,,,0,0,1,,,,0,,,71,40
1063936,note_on,,,,,0,0,1,,,,0,,,59,24
1063936,note_on,,,,,0,0,1,,,,0,,,44,14
1063936,note_off,,,,,0,0,1,,,,0,,,46,0
1063936,note_off,,,,,0,0,1,,,,0,,,43,0
1063936,note_off,,,,,0,0,1,,,,0,,,43,0
1063936,note_off,,,,,0,0,1,,,,0,,,31,0
1063936,note_off,,,,,0,0,1,,,,0,,,51,0
1063973,control_change,,,,,37,0,1,,,,0,64,127,,
1064231,control_change,,,,,258,0,1,,,,0,64,0,,
1064448,note_on,,,,,217,0,1,,,,0,,,44,12
1064448,note_on,,,,,0,0,1,,,,0,,,51,17
1064448,set_tempo,,,,,1536,1,0,,545454,,,,,,
1064674,control_change,,,,,226,0,1,,,,0,64,127,,
1064960,note_on,,,,,0,0,1,,,,0,,,51,17
1064960,note_on,,,,,0,0,1,,,,0,,,44,12
1064960,note_on,,,,,0,0,1,,,,0,,,70,42
1064960,note_off,,,,,0,0,1,,,,0,,,51,0
1064960,note_off,,,,,0,0,1,,,,0,,,44,0
1064960,note_off,,,,,0,0,1,,,,0,,,71,0
1064960,note_off,,,,,286,0,1,,,,0,,,59,0
1064960,note_on,,,,,0,0,1,,,,0,,,58,26
1065117,control_change,,,,,157,0,1,,,,0,64,0,,
1065301,control_change,,,,,184,0,1,,,,0,64,127,,
1065472,note_off,,,,,0,0,1,,,,0,,,44,0
1065472,note_off,,,,,0,0,1,,,,0,,,51,0
1065472,note_on,,,,,0,0,1,,,,0,,,59,28
1065472,note_off,,,,,171,0,1,,,,0,,,58,0
1065472,note_on,,,,,0,0,1,,,,0,,,44,12
1065472,note_on,,,,,0,0,1,,,,0,,,51,17
1065472,set_tempo,,,,,1024,1,0,,545454,,,,,,
1065472,note_off,,,,,0,0,1,,,,0,,,70,0
1065472,note_on,,,,,0,0,1,,,,0,,,71,44
1065633,control_change,,,,,161,0,1,,,,0,64,0,,
1065781,control_change,,,,,148,0,1,,,,0,64,127,,
1065984,note_on,,,,,0,0,1,,,,0,,,75,48
1065984,note_off,,,,,203,0,1,,,,0,,,59,0
1065984,note_off,,,,,0,0,1,,,,0,,,71,0
1065984,note_off,,,,,0,0,1,,,,0,,,32,0
1065984,note_off,,,,,0,0,1,,,,0,,,44,0
1065984,note_off,,,,,0,0,1,,,,0,,,44,0
1065984,note_off,,,,,0,0,1,,,,0,,,51,0
1065984,note_on,,,,,0,0,1,,,,0,,,63,32
1065984,note_on,,,,,0,0,1,,,,0,,,40,12
1065984,note_on,,,,,0,0,1,,,,0,,,44,12
1065984,note_on,,,,,0,0,1,,,,0,,,52,17
1065984,set_tempo,,,,,512,1,0,,666666,,,,,,
1066039,control_change,,,,,55,0,1,,,,0,64,0,,
1066482,control_change,,,,,443,0,1,,,,0,64,127,,
1066496,note_off,,,,,14,0,1,,,,0,,,63,0
1066496,note_off,,,,,0,0,1,,,,0,,,75,0
1066496,note_on,,,,,0,0,1,,,,0,,,61,28
1066496,note_on,,,,,0,0,1,,,,0,,,73,44
1066496,set_tempo,,,,,512,1,0,,545454,,,,,,
1067008,note_on,,,,,0,0,1,,,,0,,,37,13
1067008,note_on,,,,,0,0,1,,,,0,,,49,13
1067008,note_on,,,,,0,0,1,,,,0,,,44,20
1067008,note_on,,,,,0,0,1,,,,0,,,71,40
1067008,note_on,,,,,0,0,1,,,,0,,,59,24
1067008,note_off,,,,,0,0,1,,,,0,,,52,0
1067008,note_off,,,,,512,0,1,,,,0,,,61,0
1067008,note_off,,,,,0,0,1,,,,0,,,73,0
1067008,set_tempo,,,,,512,1,0,,600000,,,,,,
1067008,note_off,,,,,0,0,1,,,,0,,,44,0
1067008,note_off,,,,,0,0,1,,,,0,,,40,0
1067146,control_change,,,,,138,0,1,,,,0,64,0,,
1067478,control_change,,,,,332,0,1,,,,0,64,127,,
1067520,note_off,,,,,42,0,1,,,,0,,,59,0
1067520,note_off,,,,,0,0,1,,,,0,,,71,0
1067520,note_on,,,,,0,0,1,,,,0,,,58,23
1067520,note_on,,,,,0,0,1,,,,0,,,70,39
1067520,set_tempo,,,,,512,1,0,,666666,,,,,,
1067663,control_change,,,,,143,0,1,,,,0,64,0,,
1067884,control_change,,,,,221,0,1,,,,0,64,127,,
1068032,note_off,,,,,0,0,1,,,,0,,,37,0
1068032,note_off,,,,,0,0,1,,,,0,,,44,0
1068032,note_off,,,,,0,0,1,,,,0,,,58,0
1068032,control_change,,,,,148,0,1,,,,0,64,0,,
1068032,note_off,,,,,0,0,1,,,,0,,,70,0
1068032,control_change,,,,,0,0,1,,,,0,64,0,,
1068032,note_on,,,,,0,0,1,,,,0,,,39,15
1068032,note_off,,,,,0,0,1,,,,0,,,49,0
1068032,note_on,,,,,0,0,1,,,,0,,,68,34
1068032,note_on,,,,,0,0,1,,,,0,,,56,18
1068065,control_change,,,,,33,0,1,,,,0,64,127,,
1068357,control_change,,,,,292,0,1,,,,0,64,0,,
1068544,note_on,,,,,0,0,1,,,,0,,,59,16
1068544,note_on,,,,,187,0,1,,,,0,,,51,12
1068544,set_tempo,,,,,1024,1,0,,500000,,,,,,
1069056,note_on,,,,,0,0,1,,,,0,,,51,12
1069056,note_off,,,,,0,0,1,,,,0,,,59,0
1069056,note_on,,,,,0,0,1,,,,0,,,59,16
1069056,note_off,,,,,512,0,1,,,,0,,,51,0
1069568,set_tempo,,,,,1024,1,0,,625000,,,,,,
1069568,note_on,,,,,0,0,1,,,,0,,,59,16
1069568,note_off,,,,,0,0,1,,,,0,,,59,0
1069568,note_on,,,,,0,0,1,,,,0,,,51,12
1069568,note_off,,,,,512,0,1,,,,0,,,51,0
1069722,control_change,,,,,154,0,1,,,,0,64,127,,
1070080,note_off,,,,,358,0,1,,,,0,,,56,0
1070080,note_off,,,,,0,0,1,,,,0,,,68,0
1070080,set_tempo,,,,,512,1,0,,750000,,,,,,
1070080,note_on,,,,,0,0,1,,,,0,,,55,9
1070080,note_on,,,,,0,0,1,,,,0,,,67,21
1070080,note_on,,,,,0,0,1,,,,0,,,51,12
1070080,note_on,,,,,0,0,1,,,,0,,,58,16
1070080,note_off,,,,,0,0,1,,,,0,,,51,0
1070080,note_off,,,,,0,0,1,,,,0,,,59,0
1070113,control_change,,,,,33,0,1,,,,0,64,0,,
1070405,control_change,,,,,292,0,1,,,,0,64,127,,
1070592,set_tempo,,,,,512,1,0,,666666,,,,,,
1070592,note_off,,,,,187,0,1,,,,0,,,55,0
1070592,note_off,,,,,0,0,1,,,,0,,,67,0
1070592,note_off,,,,,0,0,1,,,,0,,,51,0
1070592,note_off,,,,,0,0,1,,,,0,,,58,0
1070592,note_off,,,,,0,0,1,,,,0,,,39,0
1070592,note_on,,,,,0,0,1,,,,0,,,75,38
1071104,note_off,,,,,512,0,1,,,,0,,,75,0
1071104,note_on,,,,,0,0,1,,,,0,,,75,38
1071616,set_tempo,,,,,1024,1,0,,705882,,,,,,
1071616,note_off,,,,,512,0,1,,,,0,,,75,0
1071616,note_on,,,,,0,0,1,,,,0,,,75,38
1072128,note_on,,,,,0,0,1,,,,0,,,44,20
1072128,note_on,,,,,0,0,1,,,,0,,,32,14
1072128,note_on,,,,,0,0,1,,,,0,,,80,47
1072128,control_change,,,,,0,0,1,,,,0,64,127,,
1072128,note_off,,,,,0,0,1,,,,0,,,75,0
1072128,set_tempo,,,,,512,1,0,,625000,,,,,,
1072128,control_change,,,,,512,0,1,,,,0,64,0,,
1072386,control_change,,,,,258,0,1,,,,0,64,0,,
1072640,note_on,,,,,0,0,1,,,,0,,,56,11
1072640,note_on,,,,,0,0,1,,,,0,,,63,19
1072640,note_on,,,,,0,0,1,,,,0,,,75,21
1072640,set_tempo,,,,,512,1,0,,500000,,,,,,
1072640,note_on,,,,,254,0,1,,,,0,,,71,12
1072682,control_change,,,,,42,0,1,,,,0,64,127,,
1073152,note_off,,,,,470,0,1,,,,0,,,80,0
1073152,note_on,,,,,0,0,1,,,,0,,,83,45
1073152,note_on,,,,,0,0,1,,,,0,,,56,12
1073152,note_on,,,,,0,0,1,,,,0,,,63,20
1073152,note_off,,,,,0,0,1,,,,0,,,56,0
1073152,note_off,,,,,0,0,1,,,,0,,,63,0
1073664,note_on,,,,,0,0,1,,,,0,,,63,21
1073664,note_on,,,,,0,0,1,,,,0,,,75,21
1073664,note_on,,,,,0,0,1,,,,0,,,56,13
1073664,note_on,,,,,0,0,1,,,,0,,,71,12
1073664,note_off,,,,,0,0,1,,,,0,,,63,0
1073664,note_off,,,,,0,0,1,,,,0,,,56,0
1073664,note_off,,,,,0,0,1,,,,0,,,75,0
1073664,note_off,,,,,512,0,1,,,,0,,,71,0
1074176,note_off,,,,,512,0,1,,,,0,,,83,0
1074176,note_on,,,,,0,0,1,,,,0,,,80,44
1074176,note_on,,,,,0,0,1,,,,0,,,56,14
1074176,note_on,,,,,0,0,1,,,,0,,,63,23
1074176,note_off,,,,,0,0,1,,,,0,,,56,0
1074176,note_off,,,,,0,0,1,,,,0,,,63,0
1074688,note_off,,,,,512,0,1,,,,0,,,71,0
1074688,note_off,,,,,0,0,1,,,,0,,,75,0
1074688,note_on,,,,,0,0,1,,,,0,,,71,12
1074688,note_on,,,,,0,0,1,,,,0,,,75,21
1075200,note_on,,,,,0,0,1,,,,0,,,83,42
1075200,note_off,,,,,512,0,1,,,,0,,,80,0
1075712,note_off,,,,,512,0,1,,,,0,,,71,0
1075712,note_off,,,,,0,0,1,,,,0,,,75,0
1075712,note_on,,,,,0,0,1,,,,0,,,71,12
1075712,note_on,,,,,0,0,1,,,,0,,,75,21
1076224,set_tempo,,,,,3584,1,0,,666666,,,,,,
1076224,control_change,,,,,512,0,1,,,,0,64,0,,
1076224,control_change,,,,,0,0,1,,,,0,64,127,,
1076224,note_off,,,,,0,0,1,,,,0,,,83,0
1076224,note_off,,,,,0,0,1,,,,0,,,32,0
1076224,note_off,,,,,0,0,1,,,,0,,,44,0
1076224,note_off,,,,,0,0,1,,,,0,,,56,0
1076224,note_off,,,,,0,0,1,,,,0,,,63,0
1076224,note_on,,,,,0,0,1,,,,0,,,80,47
1076224,note_on,,,,,0,0,1,,,,0,,,32,14
1076224,note_on,,,,,0,0,1,,,,0,,,44,20
1076379,control_change,,,,,155,0,1,,,,0,64,0,,
1076726,control_change,,,,,347,0,1,,,,0,64,127,,
1076736,note_off,,,,,10,0,1,,,,0,,,71,0
1076736,note_off,,,,,0,0,1,,,,0,,,75,0
1076736,note_on,,,,,0,0,1,,,,0,,,71,12
1076736,note_on,,,,,0,0,1,,,,0,,,75,21
1076736,note_on,,,,,0,0,1,,,,0,,,56,11
1076736,note_on,,,,,0,0,1,,,,0,,,63,19
1076736,set_tempo,,,,,512,1,0,,461538,,,,,,
1077248,note_off,,,,,0,0,1,,,,0,,,63,0
1077248,note_off,,,,,0,0,1,,,,0,,,56,0
1077248,note_on,,,,,0,0,1,,,,0,,,83,45
1077248,note_on,,,,,0,0,1,,,,0,,,56,12
1077248,note_off,,,,,512,0,1,,,,0,,,80,0
1077248,note_on,,,,,0,0,1,,,,0,,,63,20
1077760,note_on,,,,,0,0,1,,,,0,,,56,13
1077760,note_on,,,,,0,0,1,,,,0,,,63,22
1077760,note_on,,,,,0,0,1,,,,0,,,75,21
1077760,note_off,,,,,0,0,1,,,,0,,,56,0
1077760,note_off,,,,,0,0,1,,,,0,,,63,0
1077760,note_off,,,,,0,0,1,,,,0,,,75,0
1077760,note_off,,,,,512,0,1,,,,0,,,71,0
1077760,note_on,,,,,0,0,1,,,,0,,,71,12
1078272,note_off,,,,,0,0,1,,,,0,,,63,0
1078272,control_change,,,,,512,0,1,,,,0,64,0,,
1078272,set_tempo,,,,,1536,1,0,,500000,,,,,,
1078272,note_off,,,,,0,0,1,,,,0,,,83,0
1078272,note_on,,,,,0,0,1,,,,0,,,63,23
1078272,note_on,,,,,0,0,1,,,,0,,,56,14
1078272,note_on,,,,,0,0,1,,,,0,,,82,43
1078272,note_off,,,,,0,0,1,,,,0,,,56,0
1078658,control_change,,,,,386,0,1,,,,0,64,127,,
1078784,note_off,,,,,0,0,1,,,,0,,,75,0
1078784,note_on,,,,,0,0,1,,,,0,,,75,21
1078784,note_off,,,,,126,0,1,,,,0,,,71,0
1078784,note_on,,,,,0,0,1,,,,0,,,71,12
1079296,note_on,,,,,0,0,1,,,,0,,,80,41
1079296,note_off,,,,,512,0,1,,,,0,,,82,0
1079808,note_off,,,,,512,0,1,,,,0,,,71,0
1079808,note_off,,,,,0,0,1,,,,0,,,75,0
1079808,note_on,,,,,0,0,1,,,,0,,,71,12
1079808,note_on,,,,,0,0,1,,,,0,,,75,21
1079808,set_tempo,,,,,1536,1,0,,545454,,,,,,
1080320,set_tempo,,,,,512,1,0,,705882,,,,,,
1080320,note_on,,,,,0,0,1,,,,0,,,44,20
1080320,note_on,,,,,0,0,1,,,,0,,,80,39
1080320,note_off,,,,,0,0,1,,,,0,,,63,0
1080320,note_off,,,,,0,0,1,,,,0,,,56,0
1080320,note_on,,,,,0,0,1,,,,0,,,32,14
1080320,note_off,,,,,0,0,1,,,,0,,,32,0
1080320,note_off,,,,,0,0,1,,,,0,,,80,0
1080320,note_off,,,,,0,0,1,,,,0,,,75,0
1080320,note_off,,,,,0,0,1,,,,0,,,71,0
1080320,control_change,,,,,512,0,1,,,,0,64,127,,
1080320,note_off,,,,,0,0,1,,,,0,,,44,0
1080320,control_change,,,,,0,0,1,,,,0,64,0,,
1080320,control_change,,,,,0,0,1,,,,0,64,127,,
1080527,control_change,,,,,207,0,1,,,,0,64,0,,
1080527,control_change,,,,,0,0,1,,,,0,64,0,,
1080802,control_change,,,,,275,0,1,,,,0,64,127,,
1080802,control_change,,,,,0,0,1,,,,0,64,127,,
1080832,set_tempo,,,,,512,1,0,,480000,,,,,,
1080832,note_on,,,,,0,0,1,,,,0,,,71,24
1080832,note_on,,,,,0,0,1,,,,0,,,56,11
1080832,note_on,,,,,0,0,1,,,,0,,,75,33
1080832,note_off,,,,,30,0,1,,,,0,,,80,0
1080832,note_on,,,,,0,0,1,,,,0,,,63,19
1081344,note_on,,,,,0,0,1,,,,0,,,63,20
1081344,note_off,,,,,0,0,1,,,,0,,,56,0
1081344,note_on,,,,,0,0,1,,,,0,,,75,36
1081344,note_off,,,,,0,0,1,,,,0,,,75,0
1081344,note_on,,,,,0,0,1,,,,0,,,56,12
1081344,note_off,,,,,512,0,1,,,,0,,,71,0
1081344,note_off,,,,,0,0,1,,,,0,,,63,0
1081344,note_on,,,,,0,0,1,,,,0,,,71,25
1081856,note_on,,,,,0,0,1,,,,0,,,75,38
1081856,note_on,,,,,0,0,1,,,,0,,,56,13
1081856,note_off,,,,,0,0,1,,,,0,,,63,0
1081856,note_off,,,,,0,0,1,,,,0,,,56,0
1081856,note_off,,,,,0,0,1,,,,0,,,75,0
1081856,note_off,,,,,512,0,1,,,,0,,,71,0
1081856,set_tempo,,,,,1024,1,0,,500000,,,,,,
1081856,note_on,,,,,0,0,1,,,,0,,,71,26
1081856,note_on,,,,,0,0,1,,,,0,,,63,22
1082351,control_change,,,,,495,0,1,,,,0,64,0,,
1082351,control_change,,,,,0,0,1,,,,0,64,0,,
1082368,note_off,,,,,0,0,1,,,,0,,,75,0
1082368,note_on,,,,,0,0,1,,,,0,,,56,14
1082368,note_on,,,,,0,0,1,,,,0,,,75,43
1082368,note_off,,,,,0,0,1,,,,0,,,63,0
1082368,note_off,,,,,0,0,1,,,,0,,,56,0
1082368,note_off,,,,,17,0,1,,,,0,,,71,0
1082368,note_on,,,,,0,0,1,,,,0,,,63,23
1082368,set_tempo,,,,,512,1,0,,545454,,,,,,
1082592,control_change,,,,,224,0,1,,,,0,64,127,,
1082592,control_change,,,,,0,0,1,,,,0,64,127,,
1082880,note_off,,,,,288,0,1,,,,0,,,75,0
1082880,note_on,,,,,0,0,1,,,,0,,,68,26
1082880,note_on,,,,,0,0,1,,,,0,,,71,38
1082880,set_tempo,,,,,512,1,0,,480000,,,,,,
1083392,note_off,,,,,512,0,1,,,,0,,,68,0
1083392,note_off,,,,,0,0,1,,,,0,,,71,0
1083392,note_on,,,,,0,0,1,,,,0,,,68,24
1083392,note_on,,,,,0,0,1,,,,0,,,71,36
1083904,note_on,,,,,0,0,1,,,,0,,,71,34
1083904,note_on,,,,,0,0,1,,,,0,,,68,22
1083904,note_off,,,,,0,0,1,,,,0,,,71,0
1083904,note_off,,,,,512,0,1,,,,0,,,68,0
1084416,note_off,,,,,0,0,1,,,,0,,,32,0
1084416,note_off,,,,,0,0,1,,,,0,,,71,0
1084416,note_off,,,,,0,0,1,,,,0,,,68,0
1084416,control_change,,,,,512,0,1,,,,0,64,127,,
1084416,control_change,,,,,0,0,1,,,,0,64,127,,
1084416,note_on,,,,,0,0,1,,,,0,,,71,38
1084416,note_off,,,,,0,0,1,,,,0,,,63,0
1084416,note_off,,,,,0,0,1,,,,0,,,56,0
1084416,note_off,,,,,0,0,1,,,,0,,,44,0
1084928,note_on,,,,,0,0,1,,,,0,,,68,36
1084928,note_on,,,,,512,0,1,,,,0,,,63,24
1084968,note_off,,,,,40,0,1,,,,0,,,71,0
1085270,note_off,,,,,0,0,1,,,,0,,,68,0
1085270,note_off,,,,,302,0,1,,,,0,,,63,0
1085440,note_on,,,,,0,0,1,,,,0,,,68,34
1085440,note_on,,,,,170,0,1,,,,0,,,63,22
1085782,note_off,,,,,342,0,1,,,,0,,,63,0
1085782,note_off,,,,,0,0,1,,,,0,,,68,0
1085952,note_on,,,,,170,0,1,,,,0,,,63,21
1085952,note_on,,,,,0,0,1,,,,0,,,68,33
1086294,note_off,,,,,0,0,1,,,,0,,,68,0
1086294,note_off,,,,,342,0,1,,,,0,,,63,0
1086464,set_tempo,,,,,3584,1,0,,500000,,,,,,
1086464,note_on,,,,,0,0,1,,,,0,,,68,31
1086464,note_on,,,,,170,0,1,,,,0,,,59,19
1086464,note_on,,,,,0,0,1,,,,0,,,63,19
1086479,control_change,,,,,15,0,1,,,,0,64,0,,
1086479,control_change,,,,,0,0,1,,,,0,64,0,,
1086976,note_on,,,,,497,0,1,,,,0,,,59,18
1086976,note_on,,,,,0,0,1,,,,0,,,62,30
1086976,note_on,,,,,0,0,1,,,,0,,,51,6
1086976,note_on,,,,,0,0,1,,,,0,,,56,15
1086976,set_tempo,,,,,512,1,0,,461538,,,,,,
1087016,note_off,,,,,0,0,1,,,,0,,,63,0
1087016,note_off,,,,,0,0,1,,,,0,,,68,0
1087016,note_off,,,,,40,0,1,,,,0,,,59,0
1087318,note_off,,,,,302,0,1,,,,0,,,59,0
1087318,note_off,,,,,0,0,1,,,,0,,,62,0
1087318,note_off,,,,,0,0,1,,,,0,,,51,0
1087318,note_off,,,,,0,0,1,,,,0,,,56,0
1087488,note_on,,,,,0,0,1,,,,0,,,51,10
1087488,note_on,,,,,170,0,1,,,,0,,,59,20
1087488,note_on,,,,,0,0,1,,,,0,,,62,32
1087488,note_on,,,,,0,0,1,,,,0,,,56,19
1087830,note_off,,,,,0,0,1,,,,0,,,56,0
1087830,note_off,,,,,0,0,1,,,,0,,,62,0
1087830,note_off,,,,,342,0,1,,,,0,,,59,0
1087830,note_off,,,,,0,0,1,,,,0,,,51,0
1088000,set_tempo,,,,,1024,1,0,,500000,,,,,,
1088000,note_on,,,,,170,0,1,,,,0,,,59,23
1088000,note_on,,,,,0,0,1,,,,0,,,62,35
1088000,note_on,,,,,0,0,1,,,,0,,,51,13
1088000,note_on,,,,,0,0,1,,,,0,,,56,22
1088342,note_off,,,,,0,0,1,,,,0,,,62,0
1088342,note_off,,,,,0,0,1,,,,0,,,51,0
1088342,note_off,,,,,0,0,1,,,,0,,,56,0
1088342,note_off,,,,,342,0,1,,,,0,,,59,0
1088512,note_on,,,,,0,0,1,,,,0,,,62,40
1088512,set_tempo,,,,,512,1,0,,600000,,,,,,
1088512,control_change,,,,,170,0,1,,,,0,64,0,,
1088512,control_change,,,,,0,0,1,,,,0,64,0,,
1088512,note_on,,,,,0,0,1,,,,0,,,59,28
1088512,note_on,,,,,0,0,1,,,,0,,,56,30
1088512,note_on,,,,,0,0,1,,,,0,,,51,21
1089024,note_on,,,,,512,0,1,,,,0,,,58,21
1089024,note_on,,,,,0,0,1,,,,0,,,51,14
1089024,set_tempo,,,,,512,1,0,,500000,,,,,,
1089024,note_on,,,,,0,0,1,,,,0,,,55,23
1089024,note_on,,,,,0,0,1,,,,0,,,63,33
1089064,note_off,,,,,40,0,1,,,,0,,,59,0
1089064,note_off,,,,,0,0,1,,,,0,,,62,0
1089064,note_off,,,,,0,0,1,,,,0,,,51,0
1089064,note_off,,,,,0,0,1,,,,0,,,56,0
1089366,note_off,,,,,302,0,1,,,,0,,,58,0
1089366,note_off,,,,,0,0,1,,,,0,,,63,0
1089366,note_off,,,,,0,0,1,,,,0,,,51,0
1089366,note_off,,,,,0,0,1,,,,0,,,55,0
1089536,note_on,,,,,0,0,1,,,,0,,,51,10
1089536,note_on,,,,,0,0,1,,,,0,,,55,19
1089536,note_on,,,,,170,0,1,,,,0,,,58,19
1089536,note_on,,,,,0,0,1,,,,0,,,63,31
1089878,note_off,,,,,342,0,1,,,,0,,,58,0
1089878,note_off,,,,,0,0,1,,,,0,,,63,0
1089878,note_off,,,,,0,0,1,,,,0,,,51,0
1089878,note_off,,,,,0,0,1,,,,0,,,55,0
1090048,set_tempo,,,,,1024,1,0,,600000,,,,,,
1090048,note_on,,,,,0,0,1,,,,0,,,51,7
1090048,note_on,,,,,0,0,1,,,,0,,,55,16
1090048,note_on,,,,,170,0,1,,,,0,,,58,16
1090048,note_on,,,,,0,0,1,,,,0,,,63,28
1090390,note_off,,,,,342,0,1,,,,0,,,58,0
1090390,note_off,,,,,0,0,1,,,,0,,,63,0
1090390,note_off,,,,,0,0,1,,,,0,,,51,0
1090390,note_off,,,,,0,0,1,,,,0,,,55,0
1090560,note_on,,,,,0,0,1,,,,0,,,55,13
1090560,set_tempo,,,,,512,1,0,,666666,,,,,,
1090560,note_on,,,,,0,0,1,,,,0,,,51,4
1090560,note_on,,,,,170,0,1,,,,0,,,58,14
1090560,note_on,,,,,0,0,1,,,,0,,,63,26
1091072,note_off,,,,,0,0,1,,,,0,,,51,0
1091072,set_tempo,,,,,512,1,0,,545454,,,,,,
1091072,note_off,,,,,512,0,1,,,,0,,,58,0
1091072,note_off,,,,,0,0,1,,,,0,,,63,0
1091072,note_off,,,,,0,0,1,,,,0,,,55,0
1091072,note_on,,,,,0,0,1,,,,0,,,82,40
1091107,control_change,,,,,35,0,1,,,,0,64,127,,
1091584,set_tempo,,,,,512,1,0,,500000,,,,,,
1091584,note_on,,,,,0,0,1,,,,0,,,82,40
1091584,note_off,,,,,477,0,1,,,,0,,,82,0
1092096,note_off,,,,,512,0,1,,,,0,,,82,0
1092096,note_on,,,,,0,0,1,,,,0,,,82,40
1092608,note_on,,,,,0,0,1,,,,0,,,82,52
1092608,note_on,,,,,0,0,1,,,,0,,,39,13
1092608,note_on,,,,,0,0,1,,,,0,,,51,20
1092608,note_off,,,,,0,0,1,,,,0,,,82,0
1092608,control_change,,,,,0,0,1,,,,0,64,0,,
1092608,control_change,,,,,0,0,1,,,,0,64,127,,
1092608,control_change,,,,,512,0,1,,,,0,64,0,,
1092608,set_tempo,,,,,1024,1,0,,625000,,,,,,
1092608,control_change,,,,,0,0,1,,,,0,64,0,,
1092866,control_change,,,,,258,0,1,,,,0,64,0,,
1093120,set_tempo,,,,,512,1,0,,461538,,,,,,
1093120,note_on,,,,,254,0,1,,,,0,,,73,13
1093120,note_on,,,,,0,0,1,,,,0,,,76,22
1093120,note_on,,,,,0,0,1,,,,0,,,63,10
1093120,note_on,,,,,0,0,1,,,,0,,,67,18
1093162,control_change,,,,,42,0,1,,,,0,64,127,,
1093632,note_on,,,,,0,0,1,,,,0,,,67,19
1093632,note_off,,,,,0,0,1,,,,0,,,67,0
1093632,note_on,,,,,0,0,1,,,,0,,,63,11
1093632,note_off,,,,,0,0,1,,,,0,,,63,0
1093632,note_off,,,,,470,0,1,,,,0,,,82,0
1093632,note_on,,,,,0,0,1,,,,0,,,85,50
1094144,note_on,,,,,0,0,1,,,,0,,,76,22
1094144,note_on,,,,,0,0,1,,,,0,,,63,12
1094144,note_on,,,,,0,0,1,,,,0,,,67,20
1094144,note_on,,,,,0,0,1,,,,0,,,73,13
1094144,note_off,,,,,512,0,1,,,,0,,,73,0
1094144,note_off,,,,,0,0,1,,,,0,,,63,0
1094144,note_off,,,,,0,0,1,,,,0,,,76,0
1094144,note_off,,,,,0,0,1,,,,0,,,67,0
1094656,note_off,,,,,512,0,1,,,,0,,,85,0
1094656,note_on,,,,,0,0,1,,,,0,,,82,49
1094656,note_on,,,,,0,0,1,,,,0,,,63,13
1094656,note_on,,,,,0,0,1,,,,0,,,67,22
1094656,note_off,,,,,0,0,1,,,,0,,,63,0
1094656,note_off,,,,,0,0,1,,,,0,,,67,0
1095168,note_off,,,,,512,0,1,,,,0,,,73,0
1095168,note_off,,,,,0,0,1,,,,0,,,76,0
1095168,note_on,,,,,0,0,1,,,,0,,,73,13
1095168,note_on,,,,,0,0,1,,,,0,,,76,22
1095680,note_off,,,,,512,0,1,,,,0,,,82,0
1095680,note_on,,,,,0,0,1,,,,0,,,85,47
1096192,note_off,,,,,512,0,1,,,,0,,,73,0
1096192,note_off,,,,,0,0,1,,,,0,,,76,0
1096192,note_on,,,,,0,0,1,,,,0,,,73,13
1096192,note_on,,,,,0,0,1,,,,0,,,76,22
1096704,note_on,,,,,0,0,1,,,,0,,,39,13
1096704,control_change,,,,,512,0,1,,,,0,64,0,,
1096704,control_change,,,,,0,0,1,,,,0,64,0,,
1096704,control_change,,,,,0,0,1,,,,0,64,127,,
1096704,control_change,,,,,0,0,1,,,,0,64,0,,
1096704,note_off,,,,,0,0,1,,,,0,,,85,0
1096704,note_off,,,,,0,0,1,,,,0,,,39,0
1096704,note_off,,,,,0,0,1,,,,0,,,51,0
1096704,note_off,,,,,0,0,1,,,,0,,,63,0
1096704,note_on,,,,,0,0,1,,,,0,,,82,52
1096704,set_tempo,,,,,3584,1,0,,666666,,,,,,
1096704,note_on,,,,,0,0,1,,,,0,,,51,20
1096704,note_off,,,,,0,0,1,,,,0,,,67,0
1096859,control_change,,,,,155,0,1,,,,0,64,0,,
1097206,control_change,,,,,347,0,1,,,,0,64,127,,
1097216,note_off,,,,,10,0,1,,,,0,,,73,0
1097216,note_off,,,,,0,0,1,,,,0,,,76,0
1097216,note_on,,,,,0,0,1,,,,0,,,73,13
1097216,note_on,,,,,0,0,1,,,,0,,,76,22
1097216,note_on,,,,,0,0,1,,,,0,,,63,10
1097216,note_on,,,,,0,0,1,,,,0,,,67,18
1097216,set_tempo,,,,,512,1,0,,461538,,,,,,
1097728,note_off,,,,,0,0,1,,,,0,,,67,0
1097728,note_off,,,,,0,0,1,,,,0,,,63,0
1097728,note_off,,,,,512,0,1,,,,0,,,82,0
1097728,note_on,,,,,0,0,1,,,,0,,,63,11
1097728,note_on,,,,,0,0,1,,,,0,,,85,50
1097728,note_on,,,,,0,0,1,,,,0,,,67,19
1098240,note_on,,,,,0,0,1,,,,0,,,67,21
1098240,note_on,,,,,0,0,1,,,,0,,,63,12
1098240,note_on,,,,,0,0,1,,,,0,,,73,13
1098240,note_on,,,,,0,0,1,,,,0,,,76,22
1098240,note_off,,,,,0,0,1,,,,0,,,63,0
1098240,note_off,,,,,0,0,1,,,,0,,,76,0
1098240,note_off,,,,,512,0,1,,,,0,,,73,0
1098240,note_off,,,,,0,0,1,,,,0,,,67,0
1098752,set_tempo,,,,,1536,1,0,,500000,,,,,,
1098752,note_on,,,,,0,0,1,,,,0,,,63,13
1098752,note_on,,,,,0,0,1,,,,0,,,83,48
1098752,note_on,,,,,0,0,1,,,,0,,,67,22
1098752,note_off,,,,,0,0,1,,,,0,,,63,0
1098752,note_off,,,,,0,0,1,,,,0,,,85,0
1098752,control_change,,,,,512,0,1,,,,0,64,0,,
1098752,note_off,,,,,0,0,1,,,,0,,,67,0
1099138,control_change,,,,,386,0,1,,,,0,64,127,,
1099264,note_off,,,,,126,0,1,,,,0,,,73,0
1099264,note_off,,,,,0,0,1,,,,0,,,76,0
1099264,note_on,,,,,0,0,1,,,,0,,,73,13
1099264,note_on,,,,,0,0,1,,,,0,,,76,22
1099776,note_off,,,,,512,0,1,,,,0,,,83,0
1099776,note_on,,,,,0,0,1,,,,0,,,82,46
1100288,note_on,,,,,0,0,1,,,,0,,,76,22
1100288,note_off,,,,,512,0,1,,,,0,,,73,0
1100288,note_off,,,,,0,0,1,,,,0,,,76,0
1100288,note_on,,,,,0,0,1,,,,0,,,73,13
1100800,control_change,,,,,0,0,1,,,,0,64,0,,
1100800,control_change,,,,,0,0,1,,,,0,64,0,,
1100800,control_change,,,,,0,0,1,,,,0,64,127,,
1100800,control_change,,,,,0,0,1,,,,0,64,0,,
1100800,note_off,,,,,0,0,1,,,,0,,,73,0
1100800,note_off,,,,,0,0,1,,,,0,,,76,0
1100800,set_tempo,,,,,2048,1,0,,705882,,,,,,
1100800,note_off,,,,,0,0,1,,,,0,,,39,0
1100800,note_off,,,,,0,0,1,,,,0,,,51,0
1100800,note_off,,,,,0,0,1,,,,0,,,63,0
1100800,note_off,,,,,0,0,1,,,,0,,,67,0
1100800,note_on,,,,,0,0,1,,,,0,,,85,54
1100800,note_on,,,,,0,0,1,,,,0,,,39,13
1100800,note_on,,,,,0,0,1,,,,0,,,51,20
1100800,control_change,,,,,512,0,1,,,,0,64,127,,
1100800,note_off,,,,,0,0,1,,,,0,,,82,0
1101007,control_change,,,,,0,0,1,,,,0,64,0,,
1101007,control_change,,,,,207,0,1,,,,0,64,0,,
1101282,control_change,,,,,0,0,1,,,,0,64,127,,
1101282,control_change,,,,,275,0,1,,,,0,64,127,,
1101312,note_on,,,,,30,0,1,,,,0,,,76,36
1101312,note_on,,,,,0,0,1,,,,0,,,79,32
1101312,note_on,,,,,0,0,1,,,,0,,,82,41
1101312,note_on,,,,,0,0,1,,,,0,,,63,4
1101312,note_on,,,,,0,0,1,,,,0,,,70,12
1101312,set_tempo,,,,,512,1,0,,545454,,,,,,
1101352,note_off,,,,,40,0,1,,,,0,,,85,0
1101654,note_off,,,,,302,0,1,,,,0,,,76,0
1101654,note_off,,,,,0,0,1,,,,0,,,82,0
1101654,note_off,,,,,0,0,1,,,,0,,,79,0
1101824,note_off,,,,,0,0,1,,,,0,,,63,0
1101824,note_on,,,,,0,0,1,,,,0,,,79,32
1101824,note_off,,,,,0,0,1,,,,0,,,70,0
1101824,note_on,,,,,170,0,1,,,,0,,,76,32
1101824,set_tempo,,,,,512,1,0,,500000,,,,,,
1101824,note_on,,,,,0,0,1,,,,0,,,82,42
1101824,note_on,,,,,0,0,1,,,,0,,,63,5
1101824,note_on,,,,,0,0,1,,,,0,,,70,13
1102166,note_off,,,,,342,0,1,,,,0,,,76,0
1102166,note_off,,,,,0,0,1,,,,0,,,79,0
1102166,note_off,,,,,0,0,1,,,,0,,,82,0
1102336,note_off,,,,,0,0,1,,,,0,,,70,0
1102336,note_off,,,,,0,0,1,,,,0,,,63,0
1102336,note_on,,,,,0,0,1,,,,0,,,63,6
1102336,note_on,,,,,0,0,1,,,,0,,,82,44
1102336,note_on,,,,,0,0,1,,,,0,,,70,15
1102336,note_on,,,,,170,0,1,,,,0,,,76,33
1102336,note_on,,,,,0,0,1,,,,0,,,79,33
1102428,control_change,,,,,92,0,1,,,,0,64,127,,
1102482,control_change,,,,,54,0,1,,,,0,64,127,,
1102678,note_off,,,,,196,0,1,,,,0,,,76,0
1102678,note_off,,,,,0,0,1,,,,0,,,79,0
1102678,note_off,,,,,0,0,1,,,,0,,,82,0
1102848,note_on,,,,,0,0,1,,,,0,,,70,16
1102848,set_tempo,,,,,1024,1,0,,545454,,,,,,
1102848,note_on,,,,,170,0,1,,,,0,,,82,49
1102848,note_off,,,,,0,0,1,,,,0,,,63,0
1102848,note_off,,,,,0,0,1,,,,0,,,70,0
1102848,note_on,,,,,0,0,1,,,,0,,,63,7
1103360,note_on,,,,,0,0,1,,,,0,,,79,44
1103360,note_on,,,,,0,0,1,,,,0,,,76,32
1103360,set_tempo,,,,,512,1,0,,480000,,,,,,
1103360,note_on,,,,,512,0,1,,,,0,,,73,32
1103400,note_off,,,,,40,0,1,,,,0,,,82,0
1103702,note_off,,,,,302,0,1,,,,0,,,73,0
1103702,note_off,,,,,0,0,1,,,,0,,,76,0
1103702,note_off,,,,,0,0,1,,,,0,,,79,0
1103872,note_on,,,,,170,0,1,,,,0,,,73,30
1103872,note_on,,,,,0,0,1,,,,0,,,76,30
1103872,note_on,,,,,0,0,1,,,,0,,,79,42
1104214,note_off,,,,,0,0,1,,,,0,,,76,0
1104214,note_off,,,,,0,0,1,,,,0,,,79,0
1104214,note_off,,,,,342,0,1,,,,0,,,73,0
1104384,note_on,,,,,170,0,1,,,,0,,,73,28
1104384,note_on,,,,,0,0,1,,,,0,,,76,28
1104384,note_on,,,,,0,0,1,,,,0,,,79,40
1104726,note_off,,,,,342,0,1,,,,0,,,73,0
1104726,note_off,,,,,0,0,1,,,,0,,,76,0
1104726,note_off,,,,,0,0,1,,,,0,,,79,0
1104896,note_off,,,,,0,0,1,,,,0,,,63,0
1104896,note_off,,,,,0,0,1,,,,0,,,70,0
1104896,note_on,,,,,0,0,1,,,,0,,,79,48
1104896,note_off,,,,,0,0,1,,,,0,,,51,0
1104896,control_change,,,,,0,0,1,,,,0,64,127,,
1104896,control_change,,,,,0,0,1,,,,0,64,0,,
1104896,control_change,,,,,170,0,1,,,,0,64,127,,
1104896,set_tempo,,,,,1536,1,0,,545454,,,,,,
1104896,note_off,,,,,0,0,1,,,,0,,,39,0
1104923,control_change,,,,,27,0,1,,,,0,64,127,,
1105124,control_change,,,,,201,0,1,,,,0,64,0,,
1105124,control_change,,,,,0,0,1,,,,0,64,0,,
1105408,note_on,,,,,284,0,1,,,,0,,,67,27
1105408,note_on,,,,,0,0,1,,,,0,,,70,27
1105408,note_on,,,,,0,0,1,,,,0,,,76,42
1105408,set_tempo,,,,,512,1,0,,500000,,,,,,
1105448,note_off,,,,,40,0,1,,,,0,,,79,0
1105750,note_off,,,,,302,0,1,,,,0,,,67,0
1105750,note_off,,,,,0,0,1,,,,0,,,70,0
1105750,note_off,,,,,0,0,1,,,,0,,,76,0
1105920,note_on,,,,,170,0,1,,,,0,,,67,23
1105920,note_on,,,,,0,0,1,,,,0,,,76,38
1105920,note_on,,,,,0,0,1,,,,0,,,51,7
1105920,note_on,,,,,0,0,1,,,,0,,,70,23
1105920,note_on,,,,,0,0,1,,,,0,,,61,19
1105920,set_tempo,,,,,512,1,0,,461538,,,,,,
1106262,note_off,,,,,0,0,1,,,,0,,,70,0
1106262,note_off,,,,,0,0,1,,,,0,,,51,0
1106262,note_off,,,,,0,0,1,,,,0,,,61,0
1106262,note_off,,,,,342,0,1,,,,0,,,67,0
1106262,note_off,,,,,0,0,1,,,,0,,,76,0
1106432,note_on,,,,,0,0,1,,,,0,,,51,7
1106432,note_on,,,,,0,0,1,,,,0,,,76,41
1106432,note_on,,,,,0,0,1,,,,0,,,70,24
1106432,note_on,,,,,170,0,1,,,,0,,,67,24
1106432,note_on,,,,,0,0,1,,,,0,,,61,19
1106774,note_off,,,,,342,0,1,,,,0,,,67,0
1106774,note_off,,,,,0,0,1,,,,0,,,76,0
1106774,note_off,,,,,0,0,1,,,,0,,,51,0
1106774,note_off,,,,,0,0,1,,,,0,,,61,0
1106774,note_off,,,,,0,0,1,,,,0,,,70,0
1106944,note_on,,,,,170,0,1,,,,0,,,67,23
1106944,note_on,,,,,0,0,1,,,,0,,,76,42
1106944,note_on,,,,,0,0,1,,,,0,,,70,23
1106944,note_on,,,,,0,0,1,,,,0,,,51,7
1106944,note_on,,,,,0,0,1,,,,0,,,61,19
1106944,set_tempo,,,,,1024,1,0,,500000,,,,,,
1106959,control_change,,,,,15,0,1,,,,0,64,0,,
1106985,control_change,,,,,26,0,1,,,,0,64,0,,
1107286,note_off,,,,,301,0,1,,,,0,,,67,0
1107286,note_off,,,,,0,0,1,,,,0,,,70,0
1107286,note_off,,,,,0,0,1,,,,0,,,76,0
1107286,note_off,,,,,0,0,1,,,,0,,,51,0
1107286,note_off,,,,,0,0,1,,,,0,,,61,0
1107456,note_on,,,,,170,0,1,,,,0,,,67,23
1107456,note_on,,,,,0,0,1,,,,0,,,76,41
1107456,note_on,,,,,0,0,1,,,,0,,,51,7
1107456,note_on,,,,,0,0,1,,,,0,,,61,19
1107456,note_on,,,,,0,0,1,,,,0,,,70,23
1107456,set_tempo,,,,,512,1,0,,461538,,,,,,
1107798,note_off,,,,,0,0,1,,,,0,,,61,0
1107798,note_off,,,,,0,0,1,,,,0,,,51,0
1107798,note_off,,,,,0,0,1,,,,0,,,76,0
1107798,note_off,,,,,0,0,1,,,,0,,,70,0
1107798,note_off,,,,,342,0,1,,,,0,,,67,0
1107968,note_on,,,,,0,0,1,,,,0,,,51,11
1107968,note_on,,,,,170,0,1,,,,0,,,67,23
1107968,set_tempo,,,,,512,1,0,,500000,,,,,,
1107968,note_on,,,,,0,0,1,,,,0,,,70,23
1107968,note_on,,,,,0,0,1,,,,0,,,75,40
1107968,note_on,,,,,0,0,1,,,,0,,,63,28
1108310,note_off,,,,,0,0,1,,,,0,,,70,0
1108310,note_off,,,,,0,0,1,,,,0,,,75,0
1108310,note_off,,,,,0,0,1,,,,0,,,51,0
1108310,note_off,,,,,0,0,1,,,,0,,,63,0
1108310,note_off,,,,,342,0,1,,,,0,,,67,0
1108480,note_on,,,,,0,0,1,,,,0,,,70,24
1108480,note_on,,,,,0,0,1,,,,0,,,73,39
1108480,note_on,,,,,0,0,1,,,,0,,,51,10
1108480,note_on,,,,,0,0,1,,,,0,,,64,27
1108480,note_on,,,,,170,0,1,,,,0,,,67,24
1108480,set_tempo,,,,,512,1,0,,600000,,,,,,
1108822,note_off,,,,,0,0,1,,,,0,,,70,0
1108822,note_off,,,,,0,0,1,,,,0,,,64,0
1108822,note_off,,,,,342,0,1,,,,0,,,67,0
1108822,note_off,,,,,0,0,1,,,,0,,,73,0
1108822,note_off,,,,,0,0,1,,,,0,,,51,0
1108992,note_on,,,,,0,0,1,,,,0,,,64,31
1108992,set_tempo,,,,,512,1,0,,600000,,,,,,
1108992,note_on,,,,,0,0,1,,,,0,,,56,14
1108992,note_on,,,,,0,0,1,,,,0,,,70,37
1108992,note_on,,,,,0,0,1,,,,0,,,67,22
1108992,control_change,,,,,0,0,1,,,,0,64,0,,
1108992,control_change,,,,,0,0,1,,,,0,64,0,,
1108992,control_change,,,,,0,0,1,,,,0,64,0,,
1108992,control_change,,,,,170,0,1,,,,0,64,0,,
1109504,note_on,,,,,0,0,1,,,,0,,,56,15
1109504,note_on,,,,,0,0,1,,,,0,,,71,31
1109504,note_on,,,,,0,0,1,,,,0,,,63,27
1109504,set_tempo,,,,,512,1,0,,500000,,,,,,
1109504,note_on,,,,,512,0,1,,,,0,,,68,19
1109544,note_off,,,,,0,0,1,,,,0,,,64,0
1109544,note_off,,,,,0,0,1,,,,0,,,56,0
1109544,note_off,,,,,0,0,1,,,,0,,,70,0
1109544,note_off,,,,,40,0,1,,,,0,,,67,0
1109846,note_off,,,,,302,0,1,,,,0,,,68,0
1109846,note_off,,,,,0,0,1,,,,0,,,56,0
1109846,note_off,,,,,0,0,1,,,,0,,,71,0
1109846,note_off,,,,,0,0,1,,,,0,,,63,0
1110016,note_on,,,,,0,0,1,,,,0,,,63,23
1110016,note_on,,,,,0,0,1,,,,0,,,56,11
1110016,note_on,,,,,0,0,1,,,,0,,,71,29
1110016,note_on,,,,,170,0,1,,,,0,,,68,17
1110358,note_off,,,,,0,0,1,,,,0,,,63,0
1110358,note_off,,,,,0,0,1,,,,0,,,56,0
1110358,note_off,,,,,342,0,1,,,,0,,,68,0
1110358,note_off,,,,,0,0,1,,,,0,,,71,0
1110528,note_on,,,,,0,0,1,,,,0,,,63,20
1110528,set_tempo,,,,,1024,1,0,,600000,,,,,,
1110528,note_on,,,,,170,0,1,,,,0,,,68,14
1110528,note_on,,,,,0,0,1,,,,0,,,71,26
1110528,note_on,,,,,0,0,1,,,,0,,,56,8
1110870,note_off,,,,,342,0,1,,,,0,,,68,0
1110870,note_off,,,,,0,0,1,,,,0,,,71,0
1110870,note_off,,,,,0,0,1,,,,0,,,56,0
1110870,note_off,,,,,0,0,1,,,,0,,,63,0
1111040,note_on,,,,,0,0,1,,,,0,,,63,17
1111040,note_on,,,,,0,0,1,,,,0,,,56,5
1111040,note_on,,,,,0,0,1,,,,0,,,71,23
1111040,set_tempo,,,,,512,1,0,,666666,,,,,,
1111040,note_on,,,,,170,0,1,,,,0,,,68,11
1111552,note_off,,,,,0,0,1,,,,0,,,71,0
1111552,note_off,,,,,512,0,1,,,,0,,,68,0
1111552,note_off,,,,,0,0,1,,,,0,,,63,0
1111552,set_tempo,,,,,512,1,0,,545454,,,,,,
1111552,note_off,,,,,0,0,1,,,,0,,,56,0
1111552,note_on,,,,,0,0,1,,,,0,,,75,40
1112064,set_tempo,,,,,512,1,0,,500000,,,,,,
1112064,note_off,,,,,512,0,1,,,,0,,,75,0
1112064,note_on,,,,,0,0,1,,,,0,,,75,42
1112576,note_off,,,,,512,0,1,,,,0,,,75,0
1112576,note_on,,,,,0,0,1,,,,0,,,75,43
1112576,set_tempo,,,,,512,1,0,,625000,,,,,,
1113088,set_tempo,,,,,512,1,0,,625000,,,,,,
1113088,control_change,,,,,512,0,1,,,,0,64,0,,
1113088,control_change,,,,,0,0,1,,,,0,64,0,,
1113088,control_change,,,,,0,0,1,,,,0,64,127,,
1113088,control_change,,,,,0,0,1,,,,0,64,0,,
1113088,note_off,,,,,0,0,1,,,,0,,,75,0
1113088,note_on,,,,,0,0,1,,,,0,,,75,54
1113088,note_on,,,,,0,0,1,,,,0,,,32,23
1113088,note_on,,,,,0,0,1,,,,0,,,44,20
1113346,control_change,,,,,258,0,1,,,,0,64,0,,
1113600,note_on,,,,,0,0,1,,,,0,,,60,11
1113600,note_on,,,,,0,0,1,,,,0,,,51,11
1113600,note_on,,,,,0,0,1,,,,0,,,56,19
1113600,note_on,,,,,254,0,1,,,,0,,,68,17
1113600,set_tempo,,,,,512,1,0,,461538,,,,,,
1113600,note_on,,,,,0,0,1,,,,0,,,72,26
1113642,control_change,,,,,42,0,1,,,,0,64,127,,
1114112,note_off,,,,,0,0,1,,,,0,,,60,0
1114112,note_off,,,,,0,0,1,,,,0,,,56,0
1114112,note_off,,,,,0,0,1,,,,0,,,51,0
1114112,note_on,,,,,0,0,1,,,,0,,,60,12
1114112,note_on,,,,,0,0,1,,,,0,,,51,12
1114112,note_on,,,,,0,0,1,,,,0,,,80,53
1114112,note_off,,,,,470,0,1,,,,0,,,75,0
1114112,note_on,,,,,0,0,1,,,,0,,,56,20
1114624,note_on,,,,,0,0,1,,,,0,,,72,26
1114624,note_on,,,,,0,0,1,,,,0,,,60,13
1114624,note_on,,,,,0,0,1,,,,0,,,56,21
1114624,note_on,,,,,0,0,1,,,,0,,,51,13
1114624,note_on,,,,,0,0,1,,,,0,,,68,17
1114624,note_off,,,,,0,0,1,,,,0,,,51,0
1114624,note_off,,,,,0,0,1,,,,0,,,56,0
1114624,note_off,,,,,0,0,1,,,,0,,,60,0
1114624,note_off,,,,,0,0,1,,,,0,,,72,0
1114624,note_off,,,,,512,0,1,,,,0,,,68,0
1115136,note_off,,,,,0,0,1,,,,0,,,60,0
1115136,note_off,,,,,0,0,1,,,,0,,,51,0
1115136,note_on,,,,,0,0,1,,,,0,,,60,14
1115136,note_off,,,,,0,0,1,,,,0,,,56,0
1115136,note_on,,,,,0,0,1,,,,0,,,51,14
1115136,note_on,,,,,0,0,1,,,,0,,,75,53
1115136,note_off,,,,,512,0,1,,,,0,,,80,0
1115136,note_on,,,,,0,0,1,,,,0,,,56,23
1115648,note_off,,,,,512,0,1,,,,0,,,68,0
1115648,note_off,,,,,0,0,1,,,,0,,,72,0
1115648,note_on,,,,,0,0,1,,,,0,,,68,21
1115648,note_on,,,,,0,0,1,,,,0,,,72,30
1116160,note_off,,,,,0,0,1,,,,0,,,60,0
1116160,note_off,,,,,512,0,1,,,,0,,,75,0
1116160,note_on,,,,,0,0,1,,,,0,,,80,56
1116160,note_off,,,,,0,0,1,,,,0,,,51,0
1116160,note_off,,,,,0,0,1,,,,0,,,56,0
1116672,note_on,,,,,0,0,1,,,,0,,,68,25
1116672,note_on,,,,,0,0,1,,,,0,,,72,34
1116672,note_off,,,,,512,0,1,,,,0,,,68,0
1116672,note_off,,,,,0,0,1,,,,0,,,72,0
1117184,note_on,,,,,0,0,1,,,,0,,,37,23
1117184,note_on,,,,,0,0,1,,,,0,,,78,55
1117184,note_off,,,,,0,0,1,,,,0,,,44,0
1117184,note_off,,,,,0,0,1,,,,0,,,32,0
1117184,note_off,,,,,0,0,1,,,,0,,,80,0
1117184,note_on,,,,,0,0,1,,,,0,,,49,20
1117184,note_off,,,,,0,0,1,,,,0,,,68,0
1117184,note_off,,,,,0,0,1,,,,0,,,72,0
1117184,control_change,,,,,512,0,1,,,,0,64,0,,
1117184,set_tempo,,,,,3584,1,0,,666666,,,,,,
1117184,control_change,,,,,0,0,1,,,,0,64,127,,
1117184,control_change,,,,,0,0,1,,,,0,64,0,,
1117184,control_change,,,,,0,0,1,,,,0,64,0,,
1117339,control_change,,,,,155,0,1,,,,0,64,0,,
1117686,control_change,,,,,347,0,1,,,,0,64,127,,
1117696,set_tempo,,,,,512,1,0,,461538,,,,,,
1117696,note_on,,,,,10,0,1,,,,0,,,68,18
1117696,note_on,,,,,0,0,1,,,,0,,,56,11
1117696,note_on,,,,,0,0,1,,,,0,,,61,19
1117696,note_on,,,,,0,0,1,,,,0,,,73,28
1118208,note_on,,,,,0,0,1,,,,0,,,76,54
1118208,note_on,,,,,0,0,1,,,,0,,,56,12
1118208,note_on,,,,,0,0,1,,,,0,,,61,20
1118208,note_off,,,,,0,0,1,,,,0,,,56,0
1118208,note_off,,,,,0,0,1,,,,0,,,61,0
1118208,note_off,,,,,512,0,1,,,,0,,,78,0
1118720,note_off,,,,,512,0,1,,,,0,,,68,0
1118720,note_on,,,,,0,0,1,,,,0,,,61,22
1118720,note_on,,,,,0,0,1,,,,0,,,56,13
1118720,note_on,,,,,0,0,1,,,,0,,,73,27
1118720,note_off,,,,,0,0,1,,,,0,,,73,0
1118720,note_off,,,,,0,0,1,,,,0,,,61,0
1118720,note_off,,,,,0,0,1,,,,0,,,56,0
1118720,note_on,,,,,0,0,1,,,,0,,,68,17
1119232,control_change,,,,,512,0,1,,,,0,64,0,,
1119232,note_off,,,,,0,0,1,,,,0,,,76,0
1119232,note_off,,,,,0,0,1,,,,0,,,56,0
1119232,note_off,,,,,0,0,1,,,,0,,,61,0
1119232,note_on,,,,,0,0,1,,,,0,,,75,52
1119232,note_on,,,,,0,0,1,,,,0,,,56,14
1119232,note_on,,,,,0,0,1,,,,0,,,61,23
1119618,control_change,,,,,386,0,1,,,,0,64,127,,
1119744,note_off,,,,,126,0,1,,,,0,,,68,0
1119744,note_off,,,,,0,0,1,,,,0,,,73,0
1119744,note_on,,,,,0,0,1,,,,0,,,64,17
1119744,note_on,,,,,0,0,1,,,,0,,,68,26
1120256,note_off,,,,,0,0,1,,,,0,,,61,0
1120256,note_on,,,,,0,0,1,,,,0,,,73,46
1120256,note_off,,,,,512,0,1,,,,0,,,75,0
1120256,note_off,,,,,0,0,1,,,,0,,,56,0
1120768,note_off,,,,,512,0,1,,,,0,,,64,0
1120768,note_off,,,,,0,0,1,,,,0,,,68,0
1120768,note_on,,,,,0,0,1,,,,0,,,64,16
1120768,note_on,,,,,0,0,1,,,,0,,,68,25
1121280,note_on,,,,,0,0,1,,,,0,,,30,23
1121280,note_on,,,,,0,0,1,,,,0,,,73,51
1121280,note_off,,,,,0,0,1,,,,0,,,49,0
1121280,note_off,,,,,0,0,1,,,,0,,,37,0
1121280,note_off,,,,,0,0,1,,,,0,,,73,0
1121280,note_off,,,,,0,0,1,,,,0,,,68,0
1121280,note_on,,,,,0,0,1,,,,0,,,42,20
1121280,control_change,,,,,0,0,1,,,,0,64,0,,
1121280,control_change,,,,,0,0,1,,,,0,64,127,,
1121280,control_change,,,,,0,0,1,,,,0,64,0,,
1121280,control_change,,,,,0,0,1,,,,0,64,0,,
1121280,control_change,,,,,512,0,1,,,,0,64,0,,
1121280,note_off,,,,,0,0,1,,,,0,,,64,0
1121280,control_change,,,,,0,0,1,,,,0,64,0,,
1121280,set_tempo,,,,,3584,1,0,,545454,,,,,,
1121538,control_change,,,,,258,0,1,,,,0,64,0,,
1121792,set_tempo,,,,,512,1,0,,461538,,,,,,
1121792,note_on,,,,,254,0,1,,,,0,,,66,19
1121792,note_on,,,,,0,0,1,,,,0,,,70,28
1121792,note_on,,,,,0,0,1,,,,0,,,54,11
1121792,note_on,,,,,0,0,1,,,,0,,,61,19
1121792,note_on,,,,,0,0,1,,,,0,,,64,11
1121834,control_change,,,,,42,0,1,,,,0,64,127,,
1122304,note_off,,,,,0,0,1,,,,0,,,54,0
1122304,note_on,,,,,0,0,1,,,,0,,,64,12
1122304,note_on,,,,,0,0,1,,,,0,,,61,20
1122304,note_on,,,,,0,0,1,,,,0,,,78,50
1122304,note_off,,,,,470,0,1,,,,0,,,73,0
1122304,note_off,,,,,0,0,1,,,,0,,,61,0
1122304,note_on,,,,,0,0,1,,,,0,,,54,12
1122304,note_off,,,,,0,0,1,,,,0,,,64,0
1122816,note_on,,,,,0,0,1,,,,0,,,61,21
1122816,note_off,,,,,0,0,1,,,,0,,,64,0
1122816,note_on,,,,,0,0,1,,,,0,,,54,13
1122816,note_on,,,,,0,0,1,,,,0,,,64,13
1122816,note_on,,,,,0,0,1,,,,0,,,70,28
1122816,note_off,,,,,0,0,1,,,,0,,,61,0
1122816,note_off,,,,,0,0,1,,,,0,,,54,0
1122816,note_off,,,,,0,0,1,,,,0,,,70,0
1122816,note_off,,,,,512,0,1,,,,0,,,66,0
1122816,note_on,,,,,0,0,1,,,,0,,,66,19
1123328,note_off,,,,,0,0,1,,,,0,,,54,0
1123328,note_off,,,,,512,0,1,,,,0,,,78,0
1123328,note_on,,,,,0,0,1,,,,0,,,73,53
1123328,note_on,,,,,0,0,1,,,,0,,,54,14
1123328,note_on,,,,,0,0,1,,,,0,,,61,23
1123328,note_on,,,,,0,0,1,,,,0,,,64,14
1123328,note_off,,,,,0,0,1,,,,0,,,61,0
1123328,note_off,,,,,0,0,1,,,,0,,,64,0
1123840,note_off,,,,,512,0,1,,,,0,,,66,0
1123840,note_off,,,,,0,0,1,,,,0,,,70,0
1123840,note_on,,,,,0,0,1,,,,0,,,66,23
1123840,note_on,,,,,0,0,1,,,,0,,,70,32
1124352,note_on,,,,,0,0,1,,,,0,,,78,55
1124352,note_off,,,,,512,0,1,,,,0,,,73,0
1124352,note_off,,,,,0,0,1,,,,0,,,54,0
1124352,note_off,,,,,0,0,1,,,,0,,,64,0
1124352,note_off,,,,,0,0,1,,,,0,,,61,0
1124864,note_off,,,,,512,0,1,,,,0,,,66,0
1124864,note_off,,,,,0,0,1,,,,0,,,70,0
1124864,note_on,,,,,0,0,1,,,,0,,,66,27
1124864,note_on,,,,,0,0,1,,,,0,,,70,36
1125376,note_on,,,,,0,0,1,,,,0,,,47,20
1125376,set_tempo,,,,,3584,1,0,,666666,,,,,,
1125376,note_on,,,,,0,0,1,,,,0,,,35,23
1125376,note_on,,,,,0,0,1,,,,0,,,76,56
1125376,note_off,,,,,0,0,1,,,,0,,,42,0
1125376,note_off,,,,,0,0,1,,,,0,,,30,0
1125376,note_off,,,,,0,0,1,,,,0,,,78,0
1125376,note_off,,,,,0,0,1,,,,0,,,66,0
1125376,control_change,,,,,0,0,1,,,,0,64,0,,
1125376,control_change,,,,,0,0,1,,,,0,64,0,,
1125376,control_change,,,,,0,0,1,,,,0,64,127,,
1125376,control_change,,,,,0,0,1,,,,0,64,0,,
1125376,control_change,,,,,0,0,1,,,,0,64,0,,
1125376,control_change,,,,,512,0,1,,,,0,64,0,,
1125376,note_off,,,,,0,0,1,,,,0,,,70,0
1125531,control_change,,,,,155,0,1,,,,0,64,0,,
1125878,control_change,,,,,347,0,1,,,,0,64,127,,
1125888,note_on,,,,,0,0,1,,,,0,,,63,11
1125888,note_on,,,,,0,0,1,,,,0,,,59,19
1125888,set_tempo,,,,,512,1,0,,461538,,,,,,
1125888,note_on,,,,,0,0,1,,,,0,,,71,30
1125888,note_on,,,,,10,0,1,,,,0,,,66,20
1125888,note_on,,,,,0,0,1,,,,0,,,54,11
1126400,note_off,,,,,512,0,1,,,,0,,,76,0
1126400,note_on,,,,,0,0,1,,,,0,,,75,52
1126400,note_on,,,,,0,0,1,,,,0,,,54,12
1126400,note_on,,,,,0,0,1,,,,0,,,59,20
1126400,note_on,,,,,0,0,1,,,,0,,,63,12
1126400,note_off,,,,,0,0,1,,,,0,,,54,0
1126400,note_off,,,,,0,0,1,,,,0,,,59,0
1126400,note_off,,,,,0,0,1,,,,0,,,63,0
1126912,note_on,,,,,0,0,1,,,,0,,,54,13
1126912,note_off,,,,,0,0,1,,,,0,,,63,0
1126912,note_on,,,,,0,0,1,,,,0,,,59,22
1126912,note_on,,,,,0,0,1,,,,0,,,63,13
1126912,note_off,,,,,0,0,1,,,,0,,,54,0
1126912,note_on,,,,,0,0,1,,,,0,,,71,29
1126912,note_off,,,,,512,0,1,,,,0,,,66,0
1126912,note_off,,,,,0,0,1,,,,0,,,71,0
1126912,note_off,,,,,0,0,1,,,,0,,,59,0
1126912,note_on,,,,,0,0,1,,,,0,,,66,19
1127424,note_on,,,,,0,0,1,,,,0,,,73,49
1127424,note_off,,,,,0,0,1,,,,0,,,75,0
1127424,control_change,,,,,512,0,1,,,,0,64,0,,
1127424,note_off,,,,,0,0,1,,,,0,,,59,0
1127424,note_off,,,,,0,0,1,,,,0,,,63,0
1127424,note_off,,,,,0,0,1,,,,0,,,54,0
1127424,note_on,,,,,0,0,1,,,,0,,,63,14
1127424,note_on,,,,,0,0,1,,,,0,,,59,23
1127424,note_on,,,,,0,0,1,,,,0,,,54,14
1127810,control_change,,,,,386,0,1,,,,0,64,127,,
1127936,note_off,,,,,0,0,1,,,,0,,,71,0
1127936,note_on,,,,,0,0,1,,,,0,,,63,19
1127936,note_on,,,,,0,0,1,,,,0,,,66,28
1127936,note_off,,,,,126,0,1,,,,0,,,66,0
1128448,note_on,,,,,0,0,1,,,,0,,,71,45
1128448,note_off,,,,,0,0,1,,,,0,,,54,0
1128448,note_off,,,,,0,0,1,,,,0,,,59,0
1128448,note_off,,,,,0,0,1,,,,0,,,63,0
1128448,note_off,,,,,512,0,1,,,,0,,,73,0
1128960,note_on,,,,,0,0,1,,,,0,,,66,27
1128960,note_on,,,,,0,0,1,,,,0,,,63,18
1128960,note_off,,,,,0,0,1,,,,0,,,66,0
1128960,note_off,,,,,512,0,1,,,,0,,,63,0
1129472,control_change,,,,,0,0,1,,,,0,64,0,,
1129472,control_change,,,,,0,0,1,,,,0,64,0,,
1129472,control_change,,,,,0,0,1,,,,0,64,0,,
1129472,note_off,,,,,0,0,1,,,,0,,,63,0
1129472,note_off,,,,,0,0,1,,,,0,,,71,0
1129472,note_off,,,,,0,0,1,,,,0,,,35,0
1129472,note_off,,,,,0,0,1,,,,0,,,47,0
1129472,note_on,,,,,0,0,1,,,,0,,,71,49
1129472,note_on,,,,,0,0,1,,,,0,,,32,23
1129472,note_on,,,,,0,0,1,,,,0,,,44,20
1129472,control_change,,,,,512,0,1,,,,0,64,0,,
1129472,control_change,,,,,0,0,1,,,,0,64,127,,
1129472,note_off,,,,,0,0,1,,,,0,,,66,0
1129472,set_tempo,,,,,3584,1,0,,705882,,,,,,
1129730,control_change,,,,,258,0,1,,,,0,64,0,,
1129984,set_tempo,,,,,512,1,0,,500000,,,,,,
1129984,note_on,,,,,254,0,1,,,,0,,,63,20
1129984,note_on,,,,,0,0,1,,,,0,,,68,29
1129984,note_on,,,,,0,0,1,,,,0,,,51,11
1129984,note_on,,,,,0,0,1,,,,0,,,56,19
1129984,note_on,,,,,0,0,1,,,,0,,,59,11
1130026,control_change,,,,,42,0,1,,,,0,64,127,,
1130496,note_off,,,,,0,0,1,,,,0,,,56,0
1130496,note_off,,,,,0,0,1,,,,0,,,59,0
1130496,note_off,,,,,0,0,1,,,,0,,,51,0
1130496,note_on,,,,,0,0,1,,,,0,,,59,12
1130496,note_on,,,,,0,0,1,,,,0,,,56,20
1130496,note_on,,,,,0,0,1,,,,0,,,51,12
1130496,note_off,,,,,470,0,1,,,,0,,,71,0
1130496,set_tempo,,,,,512,1,0,,461538,,,,,,
1130496,note_on,,,,,0,0,1,,,,0,,,73,49
1131008,note_on,,,,,0,0,1,,,,0,,,59,13
1131008,note_on,,,,,0,0,1,,,,0,,,56,22
1131008,note_on,,,,,0,0,1,,,,0,,,51,13
1131008,note_on,,,,,0,0,1,,,,0,,,68,34
1131008,note_on,,,,,0,0,1,,,,0,,,63,25
1131008,note_off,,,,,0,0,1,,,,0,,,59,0
1131008,note_off,,,,,0,0,1,,,,0,,,51,0
1131008,note_off,,,,,0,0,1,,,,0,,,68,0
1131008,note_off,,,,,512,0,1,,,,0,,,63,0
1131008,note_off,,,,,0,0,1,,,,0,,,56,0
1131520,note_off,,,,,0,0,1,,,,0,,,51,0
1131520,note_on,,,,,0,0,1,,,,0,,,56,23
1131520,note_on,,,,,0,0,1,,,,0,,,59,14
1131520,note_on,,,,,0,0,1,,,,0,,,51,14
1131520,note_off,,,,,0,0,1,,,,0,,,56,0
1131520,note_off,,,,,512,0,1,,,,0,,,73,0
1131520,note_on,,,,,0,0,1,,,,0,,,70,50
1131520,note_off,,,,,0,0,1,,,,0,,,59,0
1132032,note_off,,,,,512,0,1,,,,0,,,63,0
1132032,note_off,,,,,0,0,1,,,,0,,,68,0
1132032,note_on,,,,,0,0,1,,,,0,,,63,26
1132032,note_on,,,,,0,0,1,,,,0,,,68,35
1132544,set_tempo,,,,,2048,1,0,,500000,,,,,,
1132544,note_off,,,,,512,0,1,,,,0,,,70,0
1132544,note_on,,,,,0,0,1,,,,0,,,71,56
1132544,note_off,,,,,0,0,1,,,,0,,,51,0
1132544,note_off,,,,,0,0,1,,,,0,,,56,0
1132544,note_off,,,,,0,0,1,,,,0,,,59,0
1133056,note_on,,,,,0,0,1,,,,0,,,68,37
1133056,note_on,,,,,0,0,1,,,,0,,,63,28
1133056,note_off,,,,,0,0,1,,,,0,,,68,0
1133056,note_off,,,,,512,0,1,,,,0,,,63,0
1133568,note_on,,,,,0,0,1,,,,0,,,34,20
1133568,note_on,,,,,0,0,1,,,,0,,,46,26
1133568,note_on,,,,,0,0,1,,,,0,,,75,63
1133568,note_off,,,,,0,0,1,,,,0,,,44,0
1133568,note_off,,,,,0,0,1,,,,0,,,32,0
1133568,note_off,,,,,0,0,1,,,,0,,,71,0
1133568,note_off,,,,,0,0,1,,,,0,,,68,0
1133568,note_off,,,,,0,0,1,,,,0,,,63,0
1133568,control_change,,,,,0,0,1,,,,0,64,0,,
1133568,control_change,,,,,0,0,1,,,,0,64,0,,
1133568,control_change,,,,,0,0,1,,,,0,64,0,,
1133568,control_change,,,,,0,0,1,,,,0,64,127,,
1133568,control_change,,,,,512,0,1,,,,0,64,0,,
1133568,set_tempo,,,,,1024,1,0,,545454,,,,,,
1133826,control_change,,,,,258,0,1,,,,0,64,0,,
1134080,note_on,,,,,0,0,1,,,,0,,,58,17
1134080,note_on,,,,,0,0,1,,,,0,,,52,25
1134080,note_on,,,,,0,0,1,,,,0,,,49,17
1134080,note_on,,,,,254,0,1,,,,0,,,64,33
1134080,note_on,,,,,0,0,1,,,,0,,,70,42
1134122,control_change,,,,,42,0,1,,,,0,64,127,,
1134592,note_off,,,,,0,0,1,,,,0,,,49,0
1134592,note_off,,,,,0,0,1,,,,0,,,58,0
1134592,note_off,,,,,0,0,1,,,,0,,,52,0
1134592,note_on,,,,,0,0,1,,,,0,,,58,18
1134592,set_tempo,,,,,1024,1,0,,461538,,,,,,
1134592,note_on,,,,,0,0,1,,,,0,,,49,18
1134592,note_on,,,,,0,0,1,,,,0,,,73,52
1134592,note_off,,,,,470,0,1,,,,0,,,75,0
1134592,note_on,,,,,0,0,1,,,,0,,,52,26
1135104,note_on,,,,,0,0,1,,,,0,,,64,26
1135104,note_off,,,,,512,0,1,,,,0,,,64,0
1135104,note_off,,,,,0,0,1,,,,0,,,70,0
1135104,note_off,,,,,0,0,1,,,,0,,,52,0
1135104,note_off,,,,,0,0,1,,,,0,,,58,0
1135104,note_on,,,,,0,0,1,,,,0,,,49,19
1135104,note_off,,,,,0,0,1,,,,0,,,49,0
1135104,note_on,,,,,0,0,1,,,,0,,,70,35
1135104,note_on,,,,,0,0,1,,,,0,,,58,19
1135104,note_on,,,,,0,0,1,,,,0,,,52,28
1135616,note_off,,,,,512,0,1,,,,0,,,73,0
1135616,note_on,,,,,0,0,1,,,,0,,,71,49
1135616,note_on,,,,,0,0,1,,,,0,,,49,20
1135616,note_on,,,,,0,0,1,,,,0,,,52,29
1135616,note_on,,,,,0,0,1,,,,0,,,58,20
1135616,note_off,,,,,0,0,1,,,,0,,,49,0
1135616,note_off,,,,,0,0,1,,,,0,,,52,0
1135616,note_off,,,,,0,0,1,,,,0,,,58,0
1136128,note_on,,,,,0,0,1,,,,0,,,64,32
1136128,note_off,,,,,512,0,1,,,,0,,,64,0
1136128,note_off,,,,,0,0,1,,,,0,,,70,0
1136128,note_on,,,,,0,0,1,,,,0,,,61,23
1136640,note_off,,,,,512,0,1,,,,0,,,71,0
1136640,note_on,,,,,0,0,1,,,,0,,,70,47
1136640,note_off,,,,,0,0,1,,,,0,,,49,0
1136640,note_off,,,,,0,0,1,,,,0,,,52,0
1136640,note_off,,,,,0,0,1,,,,0,,,58,0
1137152,note_on,,,,,0,0,1,,,,0,,,61,21
1137152,note_on,,,,,0,0,1,,,,0,,,64,30
1137152,note_off,,,,,512,0,1,,,,0,,,61,0
1137152,note_off,,,,,0,0,1,,,,0,,,64,0
1137664,set_tempo,,,,,3072,1,0,,500000,,,,,,
1137664,note_on,,,,,0,0,1,,,,0,,,39,20
1137664,note_on,,,,,0,0,1,,,,0,,,71,54
1137664,note_off,,,,,0,0,1,,,,0,,,34,0
1137664,note_off,,,,,0,0,1,,,,0,,,70,0
1137664,note_off,,,,,0,0,1,,,,0,,,64,0
1137664,note_off,,,,,0,0,1,,,,0,,,46,0
1137664,control_change,,,,,0,0,1,,,,0,64,0,,
1137664,control_change,,,,,0,0,1,,,,0,64,0,,
1137664,control_change,,,,,0,0,1,,,,0,64,0,,
1137664,control_change,,,,,0,0,1,,,,0,64,0,,
1137664,control_change,,,,,0,0,1,,,,0,64,127,,
1137664,control_change,,,,,512,0,1,,,,0,64,0,,
1137664,note_off,,,,,0,0,1,,,,0,,,61,0
1137922,control_change,,,,,258,0,1,,,,0,64,0,,
1138176,note_on,,,,,254,0,1,,,,0,,,59,21
1138176,note_on,,,,,0,0,1,,,,0,,,63,33
1138176,note_on,,,,,0,0,1,,,,0,,,51,16
1138176,note_on,,,,,0,0,1,,,,0,,,56,24
1138218,control_change,,,,,42,0,1,,,,0,64,127,,
1138688,set_tempo,,,,,1024,1,0,,461538,,,,,,
1138688,note_off,,,,,0,0,1,,,,0,,,56,0
1138688,note_on,,,,,0,0,1,,,,0,,,51,17
1138688,note_on,,,,,0,0,1,,,,0,,,56,25
1138688,note_off,,,,,470,0,1,,,,0,,,71,0
1138688,note_off,,,,,0,0,1,,,,0,,,51,0
1138688,note_on,,,,,0,0,1,,,,0,,,68,39
1139200,note_off,,,,,0,0,1,,,,0,,,56,0
1139200,note_on,,,,,0,0,1,,,,0,,,59,19
1139200,note_on,,,,,0,0,1,,,,0,,,63,31
1139200,note_on,,,,,0,0,1,,,,0,,,51,18
1139200,note_on,,,,,0,0,1,,,,0,,,56,27
1139200,note_off,,,,,512,0,1,,,,0,,,59,0
1139200,note_off,,,,,0,0,1,,,,0,,,63,0
1139200,note_off,,,,,0,0,1,,,,0,,,51,0
1139712,note_off,,,,,0,0,1,,,,0,,,56,0
1139712,note_on,,,,,0,0,1,,,,0,,,56,28
1139712,note_on,,,,,0,0,1,,,,0,,,51,19
1139712,note_off,,,,,512,0,1,,,,0,,,68,0
1139712,note_off,,,,,0,0,1,,,,0,,,51,0
1139712,note_on,,,,,0,0,1,,,,0,,,71,47
1140224,note_off,,,,,512,0,1,,,,0,,,59,0
1140224,note_off,,,,,0,0,1,,,,0,,,63,0
1140224,note_on,,,,,0,0,1,,,,0,,,59,18
1140224,note_on,,,,,0,0,1,,,,0,,,63,30
1140736,note_on,,,,,0,0,1,,,,0,,,68,41
1140736,note_off,,,,,512,0,1,,,,0,,,71,0
1140736,note_off,,,,,0,0,1,,,,0,,,51,0
1140736,note_off,,,,,0,0,1,,,,0,,,56,0
1141248,note_off,,,,,512,0,1,,,,0,,,59,0
1141248,note_off,,,,,0,0,1,,,,0,,,63,0
1141248,note_on,,,,,0,0,1,,,,0,,,59,16
1141248,note_on,,,,,0,0,1,,,,0,,,63,28
1141760,note_on,,,,,0,0,1,,,,0,,,70,48
1141760,note_off,,,,,0,0,1,,,,0,,,39,0
1141760,note_off,,,,,0,0,1,,,,0,,,68,0
1141760,note_off,,,,,0,0,1,,,,0,,,63,0
1141760,control_change,,,,,0,0,1,,,,0,64,0,,
1141760,control_change,,,,,0,0,1,,,,0,64,0,,
1141760,control_change,,,,,0,0,1,,,,0,64,0,,
1141760,control_change,,,,,0,0,1,,,,0,64,0,,
1141760,control_change,,,,,0,0,1,,,,0,64,127,,
1141760,control_change,,,,,512,0,1,,,,0,64,0,,
1141760,note_off,,,,,0,0,1,,,,0,,,59,0
1141760,note_on,,,,,0,0,1,,,,0,,,39,13
1142018,control_change,,,,,258,0,1,,,,0,64,0,,
1142272,note_on,,,,,0,0,1,,,,0,,,63,27
1142272,note_on,,,,,0,0,1,,,,0,,,55,20
1142272,note_on,,,,,0,0,1,,,,0,,,51,12
1142272,note_on,,,,,254,0,1,,,,0,,,61,15
1142314,control_change,,,,,42,0,1,,,,0,64,127,,
1142784,note_off,,,,,0,0,1,,,,0,,,51,0
1142784,note_off,,,,,470,0,1,,,,0,,,70,0
1142784,note_on,,,,,0,0,1,,,,0,,,67,38
1142784,note_on,,,,,0,0,1,,,,0,,,51,13
1142784,note_on,,,,,0,0,1,,,,0,,,55,21
1142784,note_off,,,,,0,0,1,,,,0,,,55,0
1143296,note_on,,,,,0,0,1,,,,0,,,51,14
1143296,note_on,,,,,0,0,1,,,,0,,,63,25
1143296,note_off,,,,,0,0,1,,,,0,,,55,0
1143296,note_off,,,,,0,0,1,,,,0,,,51,0
1143296,note_off,,,,,0,0,1,,,,0,,,63,0
1143296,note_on,,,,,0,0,1,,,,0,,,55,23
1143296,note_on,,,,,0,0,1,,,,0,,,61,13
1143296,note_off,,,,,512,0,1,,,,0,,,61,0
1143808,note_off,,,,,0,0,1,,,,0,,,55,0
1143808,note_off,,,,,0,0,1,,,,0,,,51,0
1143808,note_on,,,,,0,0,1,,,,0,,,55,24
1143808,note_on,,,,,0,0,1,,,,0,,,70,45
1143808,note_off,,,,,512,0,1,,,,0,,,67,0
1143808,note_on,,,,,0,0,1,,,,0,,,51,15
1144320,note_off,,,,,512,0,1,,,,0,,,61,0
1144320,note_off,,,,,0,0,1,,,,0,,,63,0
1144320,note_on,,,,,0,0,1,,,,0,,,61,12
1144320,note_on,,,,,0,0,1,,,,0,,,63,24
1144832,note_off,,,,,0,0,1,,,,0,,,55,0
1144832,note_on,,,,,0,0,1,,,,0,,,67,35
1144832,note_off,,,,,512,0,1,,,,0,,,70,0
1144832,note_off,,,,,0,0,1,,,,0,,,51,0
1145344,note_off,,,,,512,0,1,,,,0,,,61,0
1145344,note_on,,,,,0,0,1,,,,0,,,63,22
1145344,note_off,,,,,0,0,1,,,,0,,,63,0
1145344,note_on,,,,,0,0,1,,,,0,,,61,10
1145344,set_tempo,,,,,6656,1,0,,666666,,,,,,
1145856,note_off,,,,,0,0,1,,,,0,,,63,0
1145856,note_on,,,,,0,0,1,,,,0,,,76,64
1145856,note_off,,,,,0,0,1,,,,0,,,39,0
1145856,note_off,,,,,0,0,1,,,,0,,,67,0
1145856,note_on,,,,,0,0,1,,,,0,,,37,50
1145856,note_off,,,,,0,0,1,,,,0,,,61,0
1145856,set_tempo,,,,,512,1,0,,750000,,,,,,
1145856,control_change,,,,,512,0,1,,,,0,64,127,,
1146087,control_change,,,,,231,0,1,,,,0,64,0,,
1146351,control_change,,,,,264,0,1,,,,0,64,127,,
1146368,set_tempo,,,,,512,1,0,,500000,,,,,,
1146368,note_on,,,,,17,0,1,,,,0,,,64,40
1146368,note_on,,,,,0,0,1,,,,0,,,49,31
1146368,note_on,,,,,0,0,1,,,,0,,,55,31
1146368,note_on,,,,,0,0,1,,,,0,,,58,40
1146880,note_off,,,,,0,0,1,,,,0,,,55,0
1146880,note_off,,,,,0,0,1,,,,0,,,58,0
1146880,note_off,,,,,0,0,1,,,,0,,,49,0
1146880,note_on,,,,,0,0,1,,,,0,,,58,37
1146880,note_on,,,,,0,0,1,,,,0,,,49,28
1146880,note_on,,,,,0,0,1,,,,0,,,55,28
1146880,note_on,,,,,0,0,1,,,,0,,,67,38
1146880,note_off,,,,,512,0,1,,,,0,,,64,0
1146880,set_tempo,,,,,512,1,0,,461538,,,,,,
1146880,note_on,,,,,0,0,1,,,,0,,,70,42
1147392,note_on,,,,,0,0,1,,,,0,,,58,33
1147392,note_on,,,,,0,0,1,,,,0,,,55,24
1147392,note_on,,,,,0,0,1,,,,0,,,49,24
1147392,note_on,,,,,0,0,1,,,,0,,,64,36
1147392,note_off,,,,,0,0,1,,,,0,,,58,0
1147392,note_off,,,,,0,0,1,,,,0,,,49,0
1147392,note_off,,,,,0,0,1,,,,0,,,70,0
1147392,note_off,,,,,512,0,1,,,,0,,,67,0
1147392,note_off,,,,,0,0,1,,,,0,,,55,0
1147904,note_on,,,,,0,0,1,,,,0,,,55,21
1147904,note_on,,,,,0,0,1,,,,0,,,58,30
1147904,note_on,,,,,0,0,1,,,,0,,,49,21
1147904,note_on,,,,,0,0,1,,,,0,,,70,38
1147904,note_on,,,,,0,0,1,,,,0,,,67,34
1147904,note_off,,,,,512,0,1,,,,0,,,64,0
1147904,note_off,,,,,0,0,1,,,,0,,,49,0
1147904,note_off,,,,,0,0,1,,,,0,,,58,0
1147904,note_off,,,,,0,0,1,,,,0,,,55,0
1148416,note_off,,,,,512,0,1,,,,0,,,67,0
1148416,note_off,,,,,0,0,1,,,,0,,,70,0
1148416,note_on,,,,,0,0,1,,,,0,,,64,33
1148928,note_on,,,,,0,0,1,,,,0,,,73,55
1148928,note_off,,,,,512,0,1,,,,0,,,76,0
1148928,note_off,,,,,0,0,1,,,,0,,,64,0
1148928,note_off,,,,,0,0,1,,,,0,,,49,0
1148928,note_off,,,,,0,0,1,,,,0,,,55,0
1148928,note_off,,,,,0,0,1,,,,0,,,58,0
1148928,note_on,,,,,0,0,1,,,,0,,,67,31
1148928,note_on,,,,,0,0,1,,,,0,,,70,31
1149440,note_off,,,,,512,0,1,,,,0,,,67,0
1149440,note_off,,,,,0,0,1,,,,0,,,70,0
1149440,note_on,,,,,0,0,1,,,,0,,,64,29
1149952,note_on,,,,,0,0,1,,,,0,,,40,44
1149952,note_on,,,,,0,0,1,,,,0,,,71,61
1149952,note_off,,,,,0,0,1,,,,0,,,37,0
1149952,note_off,,,,,0,0,1,,,,0,,,73,0
1149952,set_tempo,,,,,3072,1,0,,666666,,,,,,
1149952,note_off,,,,,512,0,1,,,,0,,,64,0
1149980,control_change,,,,,28,0,1,,,,0,64,127,,
1150150,control_change,,,,,170,0,1,,,,0,64,0,,
1150376,control_change,,,,,226,0,1,,,,0,64,127,,
1150464,note_on,,,,,0,0,1,,,,0,,,58,30
1150464,note_on,,,,,0,0,1,,,,0,,,52,21
1150464,note_on,,,,,0,0,1,,,,0,,,55,21
1150464,set_tempo,,,,,512,1,0,,461538,,,,,,
1150464,note_on,,,,,88,0,1,,,,0,,,61,33
1150976,note_off,,,,,512,0,1,,,,0,,,61,0
1150976,note_on,,,,,0,0,1,,,,0,,,67,33
1150976,note_on,,,,,0,0,1,,,,0,,,52,19
1150976,note_on,,,,,0,0,1,,,,0,,,55,19
1150976,note_on,,,,,0,0,1,,,,0,,,58,28
1150976,note_off,,,,,0,0,1,,,,0,,,52,0
1150976,note_off,,,,,0,0,1,,,,0,,,55,0
1150976,note_off,,,,,0,0,1,,,,0,,,58,0
1151488,note_off,,,,,0,0,1,,,,0,,,58,0
1151488,note_off,,,,,0,0,1,,,,0,,,55,0
1151488,note_off,,,,,0,0,1,,,,0,,,52,0
1151488,note_on,,,,,0,0,1,,,,0,,,55,18
1151488,note_on,,,,,0,0,1,,,,0,,,58,27
1151488,note_on,,,,,0,0,1,,,,0,,,61,33
1151488,note_off,,,,,512,0,1,,,,0,,,67,0
1151488,note_on,,,,,0,0,1,,,,0,,,52,18
1152000,set_tempo,,,,,1536,1,0,,600000,,,,,,
1152000,note_off,,,,,512,0,1,,,,0,,,71,0
1152000,note_off,,,,,0,0,1,,,,0,,,61,0
1152000,note_off,,,,,0,0,1,,,,0,,,52,0
1152000,note_off,,,,,0,0,1,,,,0,,,55,0
1152000,note_off,,,,,0,0,1,,,,0,,,58,0
1152000,note_on,,,,,0,0,1,,,,0,,,67,33
1152000,note_on,,,,,0,0,1,,,,0,,,70,50
1152000,note_on,,,,,0,0,1,,,,0,,,52,16
1152000,note_on,,,,,0,0,1,,,,0,,,55,16
1152000,note_on,,,,,0,0,1,,,,0,,,58,25
1152014,control_change,,,,,14,0,1,,,,0,64,0,,
1152268,control_change,,,,,254,0,1,,,,0,64,127,,
1152512,note_on,,,,,0,0,1,,,,0,,,61,33
1152512,set_tempo,,,,,512,1,0,,500000,,,,,,
1152512,note_off,,,,,244,0,1,,,,0,,,67,0
1153024,note_off,,,,,0,0,1,,,,0,,,55,0
1153024,note_off,,,,,0,0,1,,,,0,,,52,0
1153024,note_off,,,,,0,0,1,,,,0,,,40,0
1153024,note_off,,,,,0,0,1,,,,0,,,70,0
1153024,note_off,,,,,0,0,1,,,,0,,,58,0
1153024,note_on,,,,,0,0,1,,,,0,,,56,16
1153024,note_on,,,,,0,0,1,,,,0,,,53,24
1153024,note_on,,,,,0,0,1,,,,0,,,70,50
1153024,note_on,,,,,0,0,1,,,,0,,,68,30
1153024,note_off,,,,,512,0,1,,,,0,,,61,0
1153024,note_on,,,,,0,0,1,,,,0,,,58,16
1153031,control_change,,,,,7,0,1,,,,0,64,0,,
1153257,control_change,,,,,226,0,1,,,,0,64,127,,
1153536,note_off,,,,,279,0,1,,,,0,,,68,0
1153536,note_on,,,,,0,0,1,,,,0,,,62,33
1154048,note_off,,,,,0,0,1,,,,0,,,53,0
1154048,note_on,,,,,0,0,1,,,,0,,,39,20
1154048,note_on,,,,,0,0,1,,,,0,,,71,54
1154048,note_off,,,,,0,0,1,,,,0,,,58,0
1154048,note_off,,,,,0,0,1,,,,0,,,56,0
1154048,note_off,,,,,0,0,1,,,,0,,,70,0
1154048,control_change,,,,,512,0,1,,,,0,64,0,,
1154048,control_change,,,,,0,0,1,,,,0,64,0,,
1154048,control_change,,,,,0,0,1,,,,0,64,0,,
1154048,control_change,,,,,0,0,1,,,,0,64,0,,
1154048,control_change,,,,,0,0,1,,,,0,64,0,,
1154048,control_change,,,,,0,0,1,,,,0,64,127,,
1154048,note_off,,,,,0,0,1,,,,0,,,62,0
1154048,set_tempo,,,,,1536,1,0,,500000,,,,,,
1154306,control_change,,,,,258,0,1,,,,0,64,0,,
1154560,note_on,,,,,254,0,1,,,,0,,,59,21
1154560,note_on,,,,,0,0,1,,,,0,,,63,33
1154560,note_on,,,,,0,0,1,,,,0,,,56,24
1154560,note_on,,,,,0,0,1,,,,0,,,51,16
1154602,control_change,,,,,42,0,1,,,,0,64,127,,
1155072,note_off,,,,,470,0,1,,,,0,,,71,0
1155072,set_tempo,,,,,1024,1,0,,461538,,,,,,
1155072,note_on,,,,,0,0,1,,,,0,,,68,39
1155072,note_on,,,,,0,0,1,,,,0,,,51,17
1155072,note_on,,,,,0,0,1,,,,0,,,56,25
1155072,note_off,,,,,0,0,1,,,,0,,,51,0
1155072,note_off,,,,,0,0,1,,,,0,,,56,0
1155584,note_on,,,,,0,0,1,,,,0,,,56,27
1155584,note_on,,,,,0,0,1,,,,0,,,51,18
1155584,note_on,,,,,0,0,1,,,,0,,,63,31
1155584,note_on,,,,,0,0,1,,,,0,,,59,19
1155584,note_off,,,,,0,0,1,,,,0,,,56,0
1155584,note_off,,,,,0,0,1,,,,0,,,51,0
1155584,note_off,,,,,0,0,1,,,,0,,,63,0
1155584,note_off,,,,,512,0,1,,,,0,,,59,0
1156096,note_on,,,,,0,0,1,,,,0,,,71,47
1156096,note_off,,,,,0,0,1,,,,0,,,56,0
1156096,note_off,,,,,0,0,1,,,,0,,,51,0
1156096,note_on,,,,,0,0,1,,,,0,,,56,28
1156096,note_off,,,,,512,0,1,,,,0,,,68,0
1156096,note_on,,,,,0,0,1,,,,0,,,51,19
1156608,note_on,,,,,0,0,1,,,,0,,,59,18
1156608,note_off,,,,,0,0,1,,,,0,,,63,0
1156608,note_off,,,,,512,0,1,,,,0,,,59,0
1156608,note_on,,,,,0,0,1,,,,0,,,63,30
1157120,note_off,,,,,0,0,1,,,,0,,,56,0
1157120,note_off,,,,,0,0,1,,,,0,,,51,0
1157120,note_on,,,,,0,0,1,,,,0,,,68,41
1157120,note_off,,,,,512,0,1,,,,0,,,71,0
1157632,note_on,,,,,0,0,1,,,,0,,,59,16
1157632,note_off,,,,,0,0,1,,,,0,,,63,0
1157632,note_on,,,,,0,0,1,,,,0,,,63,28
1157632,note_off,,,,,512,0,1,,,,0,,,59,0
1158144,note_on,,,,,0,0,1,,,,0,,,70,48
1158144,note_on,,,,,0,0,1,,,,0,,,39,13
1158144,control_change,,,,,512,0,1,,,,0,64,0,,
1158144,control_change,,,,,0,0,1,,,,0,64,127,,
1158144,control_change,,,,,0,0,1,,,,0,64,0,,
1158144,control_change,,,,,0,0,1,,,,0,64,0,,
1158144,control_change,,,,,0,0,1,,,,0,64,0,,
1158144,control_change,,,,,0,0,1,,,,0,64,0,,
1158144,note_off,,,,,0,0,1,,,,0,,,59,0
1158144,note_off,,,,,0,0,1,,,,0,,,63,0
1158144,note_off,,,,,0,0,1,,,,0,,,68,0
1158144,note_off,,,,,0,0,1,,,,0,,,39,0
1158402,control_change,,,,,258,0,1,,,,0,64,0,,
1158656,note_on,,,,,0,0,1,,,,0,,,55,20
1158656,note_on,,,,,0,0,1,,,,0,,,51,12
1158656,note_on,,,,,254,0,1,,,,0,,,61,15
1158656,note_on,,,,,0,0,1,,,,0,,,63,27
1158698,control_change,,,,,42,0,1,,,,0,64,127,,
1159168,note_off,,,,,470,0,1,,,,0,,,70,0
1159168,note_on,,,,,0,0,1,,,,0,,,67,38
1159168,note_on,,,,,0,0,1,,,,0,,,51,13
1159168,note_on,,,,,0,0,1,,,,0,,,55,21
1159168,note_off,,,,,0,0,1,,,,0,,,51,0
1159168,note_off,,,,,0,0,1,,,,0,,,55,0
1159680,note_on,,,,,0,0,1,,,,0,,,61,13
1159680,note_on,,,,,0,0,1,,,,0,,,63,25
1159680,note_on,,,,,0,0,1,,,,0,,,51,14
1159680,note_off,,,,,0,0,1,,,,0,,,55,0
1159680,note_on,,,,,0,0,1,,,,0,,,55,23
1159680,note_off,,,,,512,0,1,,,,0,,,61,0
1159680,note_off,,,,,0,0,1,,,,0,,,63,0
1159680,note_off,,,,,0,0,1,,,,0,,,51,0
1160192,note_off,,,,,512,0,1,,,,0,,,67,0
1160192,note_off,,,,,0,0,1,,,,0,,,51,0
1160192,note_on,,,,,0,0,1,,,,0,,,70,45
1160192,note_off,,,,,0,0,1,,,,0,,,55,0
1160192,note_on,,,,,0,0,1,,,,0,,,55,24
1160192,note_on,,,,,0,0,1,,,,0,,,51,15
1160704,note_on,,,,,0,0,1,,,,0,,,63,24
1160704,note_off,,,,,0,0,1,,,,0,,,63,0
1160704,note_off,,,,,512,0,1,,,,0,,,61,0
1160704,note_on,,,,,0,0,1,,,,0,,,61,12
1161216,note_off,,,,,0,0,1,,,,0,,,55,0
1161216,note_off,,,,,0,0,1,,,,0,,,51,0
1161216,note_on,,,,,0,0,1,,,,0,,,67,35
1161216,note_off,,,,,512,0,1,,,,0,,,70,0
1161728,set_tempo,,,,,6656,1,0,,666666,,,,,,
1161728,note_on,,,,,0,0,1,,,,0,,,61,10
1161728,note_off,,,,,0,0,1,,,,0,,,63,0
1161728,note_off,,,,,512,0,1,,,,0,,,61,0
1161728,note_on,,,,,0,0,1,,,,0,,,63,22
1162240,note_off,,,,,0,0,1,,,,0,,,39,0
1162240,control_change,,,,,512,0,1,,,,0,64,127,,
1162240,note_off,,,,,0,0,1,,,,0,,,61,0
1162240,note_off,,,,,0,0,1,,,,0,,,63,0
1162240,note_off,,,,,0,0,1,,,,0,,,67,0
1162240,set_tempo,,,,,512,1,0,,750000,,,,,,
1162240,note_on,,,,,0,0,1,,,,0,,,76,68
1162240,note_on,,,,,0,0,1,,,,0,,,40,54
1162471,control_change,,,,,231,0,1,,,,0,64,0,,
1162735,control_change,,,,,264,0,1,,,,0,64,127,,
1162752,set_tempo,,,,,512,1,0,,500000,,,,,,
1162752,note_on,,,,,0,0,1,,,,0,,,58,44
1162752,note_on,,,,,0,0,1,,,,0,,,55,35
1162752,note_on,,,,,0,0,1,,,,0,,,49,35
1162752,note_on,,,,,17,0,1,,,,0,,,64,44
1163264,note_on,,,,,0,0,1,,,,0,,,55,32
1163264,note_off,,,,,0,0,1,,,,0,,,58,0
1163264,note_off,,,,,0,0,1,,,,0,,,49,0
1163264,note_on,,,,,0,0,1,,,,0,,,58,41
1163264,note_on,,,,,0,0,1,,,,0,,,49,32
1163264,note_on,,,,,0,0,1,,,,0,,,70,46
1163264,note_off,,,,,0,0,1,,,,0,,,55,0
1163264,note_off,,,,,512,0,1,,,,0,,,64,0
1163264,note_on,,,,,0,0,1,,,,0,,,67,42
1163264,set_tempo,,,,,512,1,0,,461538,,,,,,
1163776,note_on,,,,,0,0,1,,,,0,,,58,37
1163776,note_on,,,,,0,0,1,,,,0,,,55,28
1163776,note_on,,,,,0,0,1,,,,0,,,64,40
1163776,note_off,,,,,0,0,1,,,,0,,,58,0
1163776,note_off,,,,,0,0,1,,,,0,,,55,0
1163776,note_on,,,,,0,0,1,,,,0,,,49,28
1163776,note_off,,,,,0,0,1,,,,0,,,70,0
1163776,note_off,,,,,512,0,1,,,,0,,,67,0
1163776,note_off,,,,,0,0,1,,,,0,,,49,0
1164288,note_off,,,,,0,0,1,,,,0,,,58,0
1164288,note_off,,,,,0,0,1,,,,0,,,55,0
1164288,note_off,,,,,0,0,1,,,,0,,,49,0
1164288,note_on,,,,,0,0,1,,,,0,,,58,34
1164288,note_on,,,,,0,0,1,,,,0,,,49,25
1164288,note_on,,,,,0,0,1,,,,0,,,55,25
1164288,note_on,,,,,0,0,1,,,,0,,,67,38
1164288,note_on,,,,,0,0,1,,,,0,,,70,42
1164288,note_off,,,,,512,0,1,,,,0,,,64,0
1164800,note_on,,,,,0,0,1,,,,0,,,64,37
1164800,note_off,,,,,0,0,1,,,,0,,,70,0
1164800,note_off,,,,,512,0,1,,,,0,,,67,0
1165312,set_tempo,,,,,2048,1,0,,600000,,,,,,
1165312,note_off,,,,,512,0,1,,,,0,,,76,0
1165312,note_off,,,,,0,0,1,,,,0,,,49,0
1165312,note_off,,,,,0,0,1,,,,0,,,55,0
1165312,note_off,,,,,0,0,1,,,,0,,,58,0
1165312,note_on,,,,,0,0,1,,,,0,,,67,35
1165312,note_on,,,,,0,0,1,,,,0,,,70,35
1165312,note_on,,,,,0,0,1,,,,0,,,73,59
1165312,note_off,,,,,0,0,1,,,,0,,,64,0
1165824,set_tempo,,,,,512,1,0,,666666,,,,,,
1165824,note_off,,,,,512,0,1,,,,0,,,67,0
1165824,note_off,,,,,0,0,1,,,,0,,,70,0
1165824,note_on,,,,,0,0,1,,,,0,,,64,33
1166336,note_on,,,,,0,0,1,,,,0,,,40,33
1166336,note_off,,,,,0,0,1,,,,0,,,40,0
1166336,note_on,,,,,0,0,1,,,,0,,,71,56
1166336,set_tempo,,,,,512,1,0,,666666,,,,,,
1166336,note_off,,,,,512,0,1,,,,0,,,64,0
1166336,note_off,,,,,0,0,1,,,,0,,,73,0
1166364,control_change,,,,,28,0,1,,,,0,64,127,,
1166534,control_change,,,,,170,0,1,,,,0,64,0,,
1166760,control_change,,,,,226,0,1,,,,0,64,127,,
1166848,note_on,,,,,0,0,1,,,,0,,,58,19
1166848,note_on,,,,,0,0,1,,,,0,,,55,10
1166848,note_on,,,,,0,0,1,,,,0,,,52,10
1166848,note_on,,,,,88,0,1,,,,0,,,61,28
1166848,set_tempo,,,,,512,1,0,,461538,,,,,,
1167360,note_on,,,,,0,0,1,,,,0,,,52,8
1167360,note_on,,,,,0,0,1,,,,0,,,67,28
1167360,note_on,,,,,0,0,1,,,,0,,,58,17
1167360,note_off,,,,,512,0,1,,,,0,,,61,0
1167360,note_off,,,,,0,0,1,,,,0,,,52,0
1167360,note_on,,,,,0,0,1,,,,0,,,55,8
1167360,note_off,,,,,0,0,1,,,,0,,,58,0
1167360,note_off,,,,,0,0,1,,,,0,,,55,0
1167872,note_off,,,,,512,0,1,,,,0,,,67,0
1167872,note_off,,,,,0,0,1,,,,0,,,58,0
1167872,note_off,,,,,0,0,1,,,,0,,,55,0
1167872,note_off,,,,,0,0,1,,,,0,,,52,0
1167872,note_on,,,,,0,0,1,,,,0,,,58,16
1167872,note_on,,,,,0,0,1,,,,0,,,55,7
1167872,note_on,,,,,0,0,1,,,,0,,,52,7
1167872,note_on,,,,,0,0,1,,,,0,,,61,28
1168384,note_off,,,,,0,0,1,,,,0,,,58,0
1168384,note_on,,,,,0,0,1,,,,0,,,67,28
1168384,note_on,,,,,0,0,1,,,,0,,,70,44
1168384,note_on,,,,,0,0,1,,,,0,,,52,5
1168384,note_on,,,,,0,0,1,,,,0,,,55,5
1168384,note_on,,,,,0,0,1,,,,0,,,58,14
1168384,note_off,,,,,0,0,1,,,,0,,,55,0
1168384,note_off,,,,,0,0,1,,,,0,,,52,0
1168384,note_off,,,,,512,0,1,,,,0,,,71,0
1168384,set_tempo,,,,,1536,1,0,,600000,,,,,,
1168384,note_off,,,,,0,0,1,,,,0,,,61,0
1168398,control_change,,,,,14,0,1,,,,0,64,0,,
1168652,control_change,,,,,254,0,1,,,,0,64,127,,
1168896,set_tempo,,,,,512,1,0,,500000,,,,,,
1168896,note_off,,,,,244,0,1,,,,0,,,67,0
1168896,note_on,,,,,0,0,1,,,,0,,,61,28
1169408,note_on,,,,,0,0,1,,,,0,,,56,14
1169408,note_off,,,,,0,0,1,,,,0,,,70,0
1169408,note_off,,,,,0,0,1,,,,0,,,40,0
1169408,note_off,,,,,0,0,1,,,,0,,,52,0
1169408,note_off,,,,,0,0,1,,,,0,,,55,0
1169408,note_on,,,,,0,0,1,,,,0,,,58,14
1169408,note_on,,,,,0,0,1,,,,0,,,53,24
1169408,note_off,,,,,0,0,1,,,,0,,,58,0
1169408,note_on,,,,,0,0,1,,,,0,,,68,25
1169408,note_off,,,,,512,0,1,,,,0,,,61,0
1169408,note_on,,,,,0,0,1,,,,0,,,70,44
1169415,control_change,,,,,7,0,1,,,,0,64,0,,
1169641,control_change,,,,,226,0,1,,,,0,64,127,,
1169920,note_off,,,,,279,0,1,,,,0,,,68,0
1169920,note_on,,,,,0,0,1,,,,0,,,62,28
1170432,note_on,,,,,0,0,1,,,,0,,,39,19
1170432,note_off,,,,,0,0,1,,,,0,,,58,0
1170432,note_off,,,,,0,0,1,,,,0,,,56,0
1170432,note_off,,,,,0,0,1,,,,0,,,53,0
1170432,note_off,,,,,0,0,1,,,,0,,,70,0
1170432,note_off,,,,,0,0,1,,,,0,,,62,0
1170432,control_change,,,,,0,0,1,,,,0,64,0,,
1170432,control_change,,,,,0,0,1,,,,0,64,0,,
1170432,note_on,,,,,0,0,1,,,,0,,,71,53
1170432,control_change,,,,,0,0,1,,,,0,64,0,,
1170432,control_change,,,,,0,0,1,,,,0,64,127,,
1170432,control_change,,,,,512,0,1,,,,0,64,0,,
1170432,set_tempo,,,,,1536,1,0,,500000,,,,,,
1170432,control_change,,,,,0,0,1,,,,0,64,0,,
1170690,control_change,,,,,258,0,1,,,,0,64,0,,
1170944,note_on,,,,,254,0,1,,,,0,,,59,20
1170944,note_on,,,,,0,0,1,,,,0,,,63,32
1170944,note_on,,,,,0,0,1,,,,0,,,51,15
1170944,note_on,,,,,0,0,1,,,,0,,,56,23
1170986,control_change,,,,,42,0,1,,,,0,64,127,,
1171456,note_off,,,,,0,0,1,,,,0,,,56,0
1171456,note_off,,,,,0,0,1,,,,0,,,51,0
1171456,note_on,,,,,0,0,1,,,,0,,,56,24
1171456,note_on,,,,,0,0,1,,,,0,,,51,16
1171456,note_off,,,,,470,0,1,,,,0,,,71,0
1171456,set_tempo,,,,,1024,1,0,,461538,,,,,,
1171456,note_on,,,,,0,0,1,,,,0,,,68,43
1171968,note_off,,,,,512,0,1,,,,0,,,59,0
1171968,note_off,,,,,0,0,1,,,,0,,,63,0
1171968,note_off,,,,,0,0,1,,,,0,,,51,0
1171968,note_off,,,,,0,0,1,,,,0,,,56,0
1171968,note_on,,,,,0,0,1,,,,0,,,59,18
1171968,note_on,,,,,0,0,1,,,,0,,,63,30
1171968,note_on,,,,,0,0,1,,,,0,,,51,17
1171968,note_on,,,,,0,0,1,,,,0,,,56,26
1172480,note_on,,,,,0,0,1,,,,0,,,56,27
1172480,note_off,,,,,0,0,1,,,,0,,,51,0
1172480,note_off,,,,,0,0,1,,,,0,,,56,0
1172480,note_on,,,,,0,0,1,,,,0,,,51,18
1172480,note_off,,,,,512,0,1,,,,0,,,68,0
1172480,note_on,,,,,0,0,1,,,,0,,,71,46
1172992,note_off,,,,,512,0,1,,,,0,,,59,0
1172992,note_off,,,,,0,0,1,,,,0,,,63,0
1172992,note_on,,,,,0,0,1,,,,0,,,59,17
1172992,note_on,,,,,0,0,1,,,,0,,,63,29
1173504,note_off,,,,,0,0,1,,,,0,,,51,0
1173504,note_off,,,,,512,0,1,,,,0,,,71,0
1173504,note_on,,,,,0,0,1,,,,0,,,68,40
1173504,note_off,,,,,0,0,1,,,,0,,,56,0
1174016,note_on,,,,,0,0,1,,,,0,,,59,15
1174016,note_off,,,,,0,0,1,,,,0,,,63,0
1174016,note_on,,,,,0,0,1,,,,0,,,63,27
1174016,note_off,,,,,512,0,1,,,,0,,,59,0
1174528,note_off,,,,,0,0,1,,,,0,,,59,0
1174528,note_on,,,,,0,0,1,,,,0,,,39,19
1174528,note_on,,,,,0,0,1,,,,0,,,70,42
1174528,note_off,,,,,0,0,1,,,,0,,,39,0
1174528,note_off,,,,,0,0,1,,,,0,,,68,0
1174528,note_off,,,,,0,0,1,,,,0,,,63,0
1174528,control_change,,,,,0,0,1,,,,0,64,0,,
1174528,control_change,,,,,0,0,1,,,,0,64,0,,
1174528,control_change,,,,,0,0,1,,,,0,64,0,,
1174528,control_change,,,,,0,0,1,,,,0,64,127,,
1174528,control_change,,,,,512,0,1,,,,0,64,0,,
1174528,set_tempo,,,,,3072,1,0,,600000,,,,,,
1174528,control_change,,,,,0,0,1,,,,0,64,0,,
1174786,control_change,,,,,258,0,1,,,,0,64,0,,
1175040,note_on,,,,,0,0,1,,,,0,,,51,6
1175040,note_on,,,,,0,0,1,,,,0,,,63,25
1175040,note_on,,,,,0,0,1,,,,0,,,55,14
1175040,note_on,,,,,254,0,1,,,,0,,,58,13
1175082,control_change,,,,,42,0,1,,,,0,64,127,,
1175552,note_on,,,,,0,0,1,,,,0,,,55,15
1175552,note_off,,,,,0,0,1,,,,0,,,55,0
1175552,note_on,,,,,0,0,1,,,,0,,,51,7
1175552,note_off,,,,,0,0,1,,,,0,,,51,0
1175552,note_off,,,,,470,0,1,,,,0,,,70,0
1175552,set_tempo,,,,,1024,1,0,,500000,,,,,,
1175552,note_on,,,,,0,0,1,,,,0,,,67,36
1176064,note_off,,,,,512,0,1,,,,0,,,58,0
1176064,note_off,,,,,0,0,1,,,,0,,,63,0
1176064,note_off,,,,,0,0,1,,,,0,,,51,0
1176064,note_off,,,,,0,0,1,,,,0,,,55,0
1176064,note_on,,,,,0,0,1,,,,0,,,58,11
1176064,note_on,,,,,0,0,1,,,,0,,,63,23
1176064,note_on,,,,,0,0,1,,,,0,,,51,8
1176064,note_on,,,,,0,0,1,,,,0,,,55,17
1176576,note_off,,,,,0,0,1,,,,0,,,55,0
1176576,note_off,,,,,0,0,1,,,,0,,,51,0
1176576,note_on,,,,,0,0,1,,,,0,,,55,18
1176576,note_on,,,,,0,0,1,,,,0,,,51,9
1176576,note_off,,,,,512,0,1,,,,0,,,67,0
1176576,note_on,,,,,0,0,1,,,,0,,,70,39
1177088,note_off,,,,,512,0,1,,,,0,,,58,0
1177088,note_off,,,,,0,0,1,,,,0,,,63,0
1177088,note_on,,,,,0,0,1,,,,0,,,58,10
1177088,note_on,,,,,0,0,1,,,,0,,,63,22
1177600,note_off,,,,,512,0,1,,,,0,,,70,0
1177600,note_on,,,,,0,0,1,,,,0,,,67,33
1177600,note_off,,,,,0,0,1,,,,0,,,51,0
1177600,note_off,,,,,0,0,1,,,,0,,,55,0
1178112,note_on,,,,,0,0,1,,,,0,,,63,20
1178112,note_on,,,,,0,0,1,,,,0,,,58,8
1178112,set_tempo,,,,,2560,1,0,,666666,,,,,,
1178112,note_off,,,,,512,0,1,,,,0,,,58,0
1178112,note_off,,,,,0,0,1,,,,0,,,63,0
1178624,control_change,,,,,512,0,1,,,,0,64,127,,
1178624,control_change,,,,,0,0,1,,,,0,64,0,,
1178624,control_change,,,,,0,0,1,,,,0,64,0,,
1178624,control_change,,,,,0,0,1,,,,0,64,0,,
1178624,note_off,,,,,0,0,1,,,,0,,,58,0
1178624,note_off,,,,,0,0,1,,,,0,,,67,0
1178624,note_off,,,,,0,0,1,,,,0,,,39,0
1178624,note_on,,,,,0,0,1,,,,0,,,68,36
1178624,note_on,,,,,0,0,1,,,,0,,,32,19
1178624,note_off,,,,,0,0,1,,,,0,,,63,0
1178624,control_change,,,,,0,0,1,,,,0,64,0,,
1178882,control_change,,,,,258,0,1,,,,0,64,0,,
1179136,set_tempo,,,,,1024,1,0,,461538,,,,,,
1179136,note_on,,,,,254,0,1,,,,0,,,56,21
1179136,note_on,,,,,0,0,1,,,,0,,,44,15
1179136,note_on,,,,,0,0,1,,,,0,,,51,23
1179178,control_change,,,,,42,0,1,,,,0,64,127,,
1179648,note_off,,,,,470,0,1,,,,0,,,56,0
1179648,note_on,,,,,0,0,1,,,,0,,,59,21
1179648,note_on,,,,,0,0,1,,,,0,,,63,21
1179648,note_on,,,,,0,0,1,,,,0,,,44,14
1179648,note_on,,,,,0,0,1,,,,0,,,51,21
1179648,note_off,,,,,0,0,1,,,,0,,,44,0
1179648,note_off,,,,,0,0,1,,,,0,,,51,0
1180160,note_on,,,,,0,0,1,,,,0,,,51,20
1180160,note_on,,,,,0,0,1,,,,0,,,44,13
1180160,note_on,,,,,0,0,1,,,,0,,,56,21
1180160,note_off,,,,,0,0,1,,,,0,,,44,0
1180160,note_off,,,,,0,0,1,,,,0,,,63,0
1180160,note_off,,,,,512,0,1,,,,0,,,59,0
1180160,note_off,,,,,0,0,1,,,,0,,,51,0
1180672,note_off,,,,,512,0,1,,,,0,,,56,0
1180672,note_on,,,,,0,0,1,,,,0,,,59,21
1180672,note_on,,,,,0,0,1,,,,0,,,63,21
1180672,note_on,,,,,0,0,1,,,,0,,,44,12
1180672,note_on,,,,,0,0,1,,,,0,,,51,17
1180672,note_off,,,,,0,0,1,,,,0,,,44,0
1180672,note_off,,,,,0,0,1,,,,0,,,51,0
1181184,note_off,,,,,512,0,1,,,,0,,,59,0
1181184,note_off,,,,,0,0,1,,,,0,,,63,0
1181184,note_on,,,,,0,0,1,,,,0,,,56,21
1181696,note_off,,,,,512,0,1,,,,0,,,56,0
1181696,note_on,,,,,0,0,1,,,,0,,,59,21
1181696,note_on,,,,,0,0,1,,,,0,,,63,21
1181696,note_off,,,,,0,0,1,,,,0,,,44,0
1181696,note_off,,,,,0,0,1,,,,0,,,51,0
1182208,note_off,,,,,512,0,1,,,,0,,,59,0
1182208,note_off,,,,,0,0,1,,,,0,,,63,0
1182208,note_on,,,,,0,0,1,,,,0,,,56,21
1182720,note_on,,,,,0,0,1,,,,0,,,68,36
1182720,note_off,,,,,0,0,1,,,,0,,,32,0
1182720,note_off,,,,,0,0,1,,,,0,,,56,0
1182720,note_off,,,,,0,0,1,,,,0,,,68,0
1182720,note_on,,,,,0,0,1,,,,0,,,32,19
1182720,control_change,,,,,0,0,1,,,,0,64,0,,
1182720,control_change,,,,,0,0,1,,,,0,64,0,,
1182720,control_change,,,,,512,0,1,,,,0,64,127,,
1182720,control_change,,,,,0,0,1,,,,0,64,0,,
1182720,control_change,,,,,0,0,1,,,,0,64,0,,
1182978,control_change,,,,,258,0,1,,,,0,64,0,,
1183232,note_on,,,,,0,0,1,,,,0,,,51,23
1183232,note_on,,,,,254,0,1,,,,0,,,56,21
1183232,set_tempo,,,,,4096,1,0,,461538,,,,,,
1183232,note_on,,,,,0,0,1,,,,0,,,44,15
1183274,control_change,,,,,42,0,1,,,,0,64,127,,
1183744,note_off,,,,,470,0,1,,,,0,,,56,0
1183744,note_on,,,,,0,0,1,,,,0,,,59,21
1183744,note_on,,,,,0,0,1,,,,0,,,63,21
1183744,note_on,,,,,0,0,1,,,,0,,,44,14
1183744,note_on,,,,,0,0,1,,,,0,,,51,21
1183744,note_off,,,,,0,0,1,,,,0,,,44,0
1183744,note_off,,,,,0,0,1,,,,0,,,51,0
1184256,note_off,,,,,0,0,1,,,,0,,,51,0
1184256,note_on,,,,,0,0,1,,,,0,,,51,20
1184256,note_off,,,,,0,0,1,,,,0,,,63,0
1184256,note_off,,,,,512,0,1,,,,0,,,59,0
1184256,note_off,,,,,0,0,1,,,,0,,,44,0
1184256,note_on,,,,,0,0,1,,,,0,,,56,21
1184256,note_on,,,,,0,0,1,,,,0,,,44,13
1184768,note_off,,,,,0,0,1,,,,0,,,51,0
1184768,note_off,,,,,512,0,1,,,,0,,,56,0
1184768,note_on,,,,,0,0,1,,,,0,,,59,21
1184768,note_on,,,,,0,0,1,,,,0,,,63,21
1184768,note_on,,,,,0,0,1,,,,0,,,44,12
1184768,note_on,,,,,0,0,1,,,,0,,,51,17
1184768,note_off,,,,,0,0,1,,,,0,,,44,0
1185280,note_off,,,,,512,0,1,,,,0,,,59,0
1185280,note_off,,,,,0,0,1,,,,0,,,63,0
1185280,note_on,,,,,0,0,1,,,,0,,,56,21
1185792,note_off,,,,,0,0,1,,,,0,,,51,0
1185792,note_off,,,,,0,0,1,,,,0,,,44,0
1185792,note_on,,,,,0,0,1,,,,0,,,63,21
1185792,note_off,,,,,512,0,1,,,,0,,,56,0
1185792,note_on,,,,,0,0,1,,,,0,,,59,21
1186304,note_off,,,,,512,0,1,,,,0,,,59,0
1186304,note_off,,,,,0,0,1,,,,0,,,63,0
1186304,note_on,,,,,0,0,1,,,,0,,,56,21
1186816,note_off,,,,,0,0,1,,,,0,,,56,0
1186816,note_on,,,,,0,0,1,,,,0,,,44,19
1186816,note_on,,,,,0,0,1,,,,0,,,32,19
1186816,note_on,,,,,0,0,1,,,,0,,,68,36
1186816,note_off,,,,,0,0,1,,,,0,,,32,0
1186816,note_off,,,,,0,0,1,,,,0,,,68,0
1186816,control_change,,,,,512,0,1,,,,0,64,127,,
1186816,control_change,,,,,0,0,1,,,,0,64,0,,
1186816,control_change,,,,,0,0,1,,,,0,64,0,,
1186816,control_change,,,,,0,0,1,,,,0,64,0,,
1186816,control_change,,,,,0,0,1,,,,0,64,0,,
1187074,control_change,,,,,258,0,1,,,,0,64,0,,
1187328,set_tempo,,,,,4096,1,0,,461538,,,,,,
1187328,note_on,,,,,254,0,1,,,,0,,,56,21
1187328,note_on,,,,,0,0,1,,,,0,,,44,15
1187328,note_on,,,,,0,0,1,,,,0,,,47,23
1187328,note_on,,,,,0,0,1,,,,0,,,52,15
1187370,control_change,,,,,42,0,1,,,,0,64,127,,
1187840,note_on,,,,,0,0,1,,,,0,,,64,21
1187840,note_off,,,,,470,0,1,,,,0,,,56,0
1187840,note_on,,,,,0,0,1,,,,0,,,59,21
1187840,note_on,,,,,0,0,1,,,,0,,,44,14
1187840,note_on,,,,,0,0,1,,,,0,,,52,14
1187840,note_off,,,,,0,0,1,,,,0,,,44,0
1187840,note_off,,,,,0,0,1,,,,0,,,47,0
1187840,note_off,,,,,0,0,1,,,,0,,,52,0
1187840,note_on,,,,,0,0,1,,,,0,,,47,21
1188352,note_off,,,,,0,0,1,,,,0,,,52,0
1188352,note_off,,,,,512,0,1,,,,0,,,59,0
1188352,note_off,,,,,0,0,1,,,,0,,,64,0
1188352,note_off,,,,,0,0,1,,,,0,,,44,0
1188352,note_off,,,,,0,0,1,,,,0,,,47,0
1188352,note_on,,,,,0,0,1,,,,0,,,56,21
1188352,note_on,,,,,0,0,1,,,,0,,,44,13
1188352,note_on,,,,,0,0,1,,,,0,,,47,20
1188352,note_on,,,,,0,0,1,,,,0,,,52,13
1188864,note_off,,,,,0,0,1,,,,0,,,52,0
1188864,note_off,,,,,0,0,1,,,,0,,,44,0
1188864,note_off,,,,,0,0,1,,,,0,,,47,0
1188864,note_on,,,,,0,0,1,,,,0,,,52,12
1188864,note_on,,,,,0,0,1,,,,0,,,47,17
1188864,note_on,,,,,0,0,1,,,,0,,,44,12
1188864,note_off,,,,,512,0,1,,,,0,,,56,0
1188864,note_on,,,,,0,0,1,,,,0,,,64,21
1188864,note_on,,,,,0,0,1,,,,0,,,59,21
1189376,note_off,,,,,512,0,1,,,,0,,,59,0
1189376,note_off,,,,,0,0,1,,,,0,,,64,0
1189376,note_on,,,,,0,0,1,,,,0,,,56,21
1189888,note_off,,,,,0,0,1,,,,0,,,52,0
1189888,note_off,,,,,0,0,1,,,,0,,,47,0
1189888,note_off,,,,,0,0,1,,,,0,,,44,0
1189888,note_on,,,,,0,0,1,,,,0,,,59,21
1189888,note_off,,,,,512,0,1,,,,0,,,56,0
1189888,note_on,,,,,0,0,1,,,,0,,,64,21
1190400,note_off,,,,,0,0,1,,,,0,,,64,0
1190400,note_off,,,,,512,0,1,,,,0,,,59,0
1190400,note_on,,,,,0,0,1,,,,0,,,56,21
1190912,note_on,,,,,0,0,1,,,,0,,,44,19
1190912,note_off,,,,,0,0,1,,,,0,,,56,0
1190912,note_on,,,,,0,0,1,,,,0,,,32,19
1190912,control_change,,,,,0,0,1,,,,0,64,0,,
1190912,note_on,,,,,0,0,1,,,,0,,,68,36
1190912,control_change,,,,,0,0,1,,,,0,64,0,,
1190912,note_off,,,,,0,0,1,,,,0,,,32,0
1190912,control_change,,,,,0,0,1,,,,0,64,0,,
1190912,control_change,,,,,0,0,1,,,,0,64,0,,
1190912,note_off,,,,,0,0,1,,,,0,,,68,0
1190912,control_change,,,,,512,0,1,,,,0,64,127,,
1190912,note_off,,,,,0,0,1,,,,0,,,44,0
1191170,control_change,,,,,258,0,1,,,,0,64,0,,
1191424,note_on,,,,,254,0,1,,,,0,,,56,21
1191424,note_on,,,,,0,0,1,,,,0,,,44,15
1191424,note_on,,,,,0,0,1,,,,0,,,47,23
1191424,note_on,,,,,0,0,1,,,,0,,,52,15
1191424,set_tempo,,,,,4096,1,0,,461538,,,,,,
1191466,control_change,,,,,42,0,1,,,,0,64,127,,
1191936,note_off,,,,,0,0,1,,,,0,,,52,0
1191936,note_off,,,,,0,0,1,,,,0,,,47,0
1191936,note_on,,,,,0,0,1,,,,0,,,64,21
1191936,note_on,,,,,0,0,1,,,,0,,,52,14
1191936,note_on,,,,,0,0,1,,,,0,,,47,21
1191936,note_off,,,,,0,0,1,,,,0,,,44,0
1191936,note_on,,,,,0,0,1,,,,0,,,59,14
1191936,note_off,,,,,470,0,1,,,,0,,,56,0
1191936,note_on,,,,,0,0,1,,,,0,,,44,14
1192448,note_on,,,,,0,0,1,,,,0,,,52,13
1192448,note_on,,,,,0,0,1,,,,0,,,47,20
1192448,note_on,,,,,0,0,1,,,,0,,,44,13
1192448,note_off,,,,,0,0,1,,,,0,,,52,0
1192448,note_off,,,,,0,0,1,,,,0,,,47,0
1192448,note_off,,,,,0,0,1,,,,0,,,44,0
1192448,note_off,,,,,0,0,1,,,,0,,,64,0
1192448,note_off,,,,,512,0,1,,,,0,,,59,0
1192448,note_on,,,,,0,0,1,,,,0,,,56,17
1192960,note_on,,,,,0,0,1,,,,0,,,52,12
1192960,note_on,,,,,0,0,1,,,,0,,,47,17
1192960,note_off,,,,,0,0,1,,,,0,,,52,0
1192960,note_on,,,,,0,0,1,,,,0,,,71,47
1192960,note_off,,,,,0,0,1,,,,0,,,47,0
1192960,note_off,,,,,512,0,1,,,,0,,,68,0
1192960,note_off,,,,,0,0,1,,,,0,,,56,0
1192960,note_off,,,,,0,0,1,,,,0,,,44,0
1192960,note_on,,,,,0,0,1,,,,0,,,44,12
1193472,note_on,,,,,512,0,1,,,,0,,,59,22
1193984,note_off,,,,,0,0,1,,,,0,,,52,0
1193984,note_on,,,,,0,0,1,,,,0,,,68,22
1193984,note_off,,,,,512,0,1,,,,0,,,59,0
1193984,note_on,,,,,0,0,1,,,,0,,,64,15
1193984,note_off,,,,,0,0,1,,,,0,,,44,0
1193984,note_off,,,,,0,0,1,,,,0,,,47,0
1194496,note_off,,,,,512,0,1,,,,0,,,64,0
1194496,note_off,,,,,0,0,1,,,,0,,,68,0
1194496,note_on,,,,,0,0,1,,,,0,,,59,18
1194496,set_tempo,,,,,3072,1,0,,666666,,,,,,
1195008,set_tempo,,,,,512,1,0,,600000,,,,,,
1195008,note_on,,,,,0,0,1,,,,0,,,46,19
1195008,note_on,,,,,0,0,1,,,,0,,,34,19
1195008,note_on,,,,,0,0,1,,,,0,,,71,48
1195008,note_off,,,,,0,0,1,,,,0,,,32,0
1195008,note_off,,,,,0,0,1,,,,0,,,71,0
1195008,note_off,,,,,0,0,1,,,,0,,,59,0
1195008,control_change,,,,,0,0,1,,,,0,64,0,,
1195008,control_change,,,,,0,0,1,,,,0,64,0,,
1195008,control_change,,,,,0,0,1,,,,0,64,0,,
1195008,control_change,,,,,512,0,1,,,,0,64,127,,
1195008,note_off,,,,,0,0,1,,,,0,,,44,0
1195008,control_change,,,,,0,0,1,,,,0,64,0,,
1195266,control_change,,,,,258,0,1,,,,0,64,0,,
1195520,set_tempo,,,,,512,1,0,,461538,,,,,,
1195520,note_on,,,,,254,0,1,,,,0,,,59,27
1195520,note_on,,,,,0,0,1,,,,0,,,46,15
1195520,note_on,,,,,0,0,1,,,,0,,,53,23
1195520,note_on,,,,,0,0,1,,,,0,,,56,15
1195562,control_change,,,,,42,0,1,,,,0,64,127,,
1196032,note_off,,,,,0,0,1,,,,0,,,53,0
1196032,note_off,,,,,0,0,1,,,,0,,,56,0
1196032,note_off,,,,,0,0,1,,,,0,,,46,0
1196032,note_on,,,,,0,0,1,,,,0,,,56,14
1196032,note_on,,,,,0,0,1,,,,0,,,53,21
1196032,note_on,,,,,0,0,1,,,,0,,,68,25
1196032,note_on,,,,,0,0,1,,,,0,,,62,18
1196032,note_off,,,,,470,0,1,,,,0,,,59,0
1196032,note_on,,,,,0,0,1,,,,0,,,46,14
1196544,note_on,,,,,0,0,1,,,,0,,,59,19
1196544,note_on,,,,,0,0,1,,,,0,,,53,20
1196544,note_on,,,,,0,0,1,,,,0,,,46,13
1196544,note_off,,,,,0,0,1,,,,0,,,56,0
1196544,note_on,,,,,0,0,1,,,,0,,,56,13
1196544,note_off,,,,,0,0,1,,,,0,,,46,0
1196544,note_off,,,,,0,0,1,,,,0,,,68,0
1196544,note_off,,,,,512,0,1,,,,0,,,62,0
1196544,note_off,,,,,0,0,1,,,,0,,,53,0
1197056,note_on,,,,,0,0,1,,,,0,,,56,12
1197056,note_off,,,,,0,0,1,,,,0,,,56,0
1197056,note_off,,,,,0,0,1,,,,0,,,53,0
1197056,note_off,,,,,0,0,1,,,,0,,,46,0
1197056,note_on,,,,,0,0,1,,,,0,,,53,17
1197056,note_on,,,,,0,0,1,,,,0,,,68,21
1197056,note_on,,,,,0,0,1,,,,0,,,62,14
1197056,note_off,,,,,512,0,1,,,,0,,,59,0
1197056,note_on,,,,,0,0,1,,,,0,,,46,12
1197568,note_off,,,,,512,0,1,,,,0,,,62,0
1197568,note_off,,,,,0,0,1,,,,0,,,68,0
1197568,note_on,,,,,0,0,1,,,,0,,,59,20
1198080,note_on,,,,,0,0,1,,,,0,,,68,18
1198080,note_off,,,,,512,0,1,,,,0,,,59,0
1198080,note_on,,,,,0,0,1,,,,0,,,62,11
1198080,note_off,,,,,0,0,1,,,,0,,,46,0
1198080,note_off,,,,,0,0,1,,,,0,,,53,0
1198080,note_off,,,,,0,0,1,,,,0,,,56,0
1198592,note_off,,,,,512,0,1,,,,0,,,62,0
1198592,note_off,,,,,0,0,1,,,,0,,,68,0
1198592,note_on,,,,,0,0,1,,,,0,,,59,12
1199104,note_off,,,,,0,0,1,,,,0,,,34,0
1199104,note_off,,,,,0,0,1,,,,0,,,46,0
1199104,note_off,,,,,0,0,1,,,,0,,,71,0
1199104,control_change,,,,,0,0,1,,,,0,64,0,,
1199104,note_off,,,,,0,0,1,,,,0,,,59,0
1199104,control_change,,,,,0,0,1,,,,0,64,0,,
1199104,control_change,,,,,0,0,1,,,,0,64,0,,
1199104,control_change,,,,,512,0,1,,,,0,64,127,,
1199104,note_on,,,,,0,0,1,,,,0,,,70,37
1199104,control_change,,,,,0,0,1,,,,0,64,0,,
1199104,note_on,,,,,0,0,1,,,,0,,,34,19
1199104,note_on,,,,,0,0,1,,,,0,,,46,19
1199362,control_change,,,,,258,0,1,,,,0,64,0,,
1199616,note_on,,,,,0,0,1,,,,0,,,56,15
1199616,note_on,,,,,0,0,1,,,,0,,,53,23
1199616,set_tempo,,,,,4096,1,0,,461538,,,,,,
1199616,note_on,,,,,254,0,1,,,,0,,,58,21
1199616,note_on,,,,,0,0,1,,,,0,,,46,15
1199658,control_change,,,,,42,0,1,,,,0,64,127,,
1200128,note_off,,,,,0,0,1,,,,0,,,53,0
1200128,note_off,,,,,0,0,1,,,,0,,,46,0
1200128,note_on,,,,,0,0,1,,,,0,,,56,14
1200128,note_off,,,,,0,0,1,,,,0,,,56,0
1200128,note_on,,,,,0,0,1,,,,0,,,46,14
1200128,note_on,,,,,0,0,1,,,,0,,,68,21
1200128,note_on,,,,,0,0,1,,,,0,,,62,14
1200128,note_off,,,,,470,0,1,,,,0,,,58,0
1200128,note_on,,,,,0,0,1,,,,0,,,53,21
1200640,note_on,,,,,0,0,1,,,,0,,,56,13
1200640,note_on,,,,,0,0,1,,,,0,,,53,20
1200640,note_on,,,,,0,0,1,,,,0,,,46,13
1200640,note_on,,,,,0,0,1,,,,0,,,58,18
1200640,note_off,,,,,0,0,1,,,,0,,,56,0
1200640,note_off,,,,,0,0,1,,,,0,,,46,0
1200640,note_off,,,,,512,0,1,,,,0,,,62,0
1200640,note_off,,,,,0,0,1,,,,0,,,53,0
1200640,note_off,,,,,0,0,1,,,,0,,,68,0
1201152,note_on,,,,,0,0,1,,,,0,,,56,12
1201152,note_off,,,,,0,0,1,,,,0,,,56,0
1201152,note_off,,,,,0,0,1,,,,0,,,53,0
1201152,note_off,,,,,0,0,1,,,,0,,,46,0
1201152,note_on,,,,,0,0,1,,,,0,,,53,17
1201152,note_on,,,,,0,0,1,,,,0,,,68,21
1201152,note_on,,,,,0,0,1,,,,0,,,62,14
1201152,note_off,,,,,512,0,1,,,,0,,,58,0
1201152,note_on,,,,,0,0,1,,,,0,,,46,12
1201664,note_off,,,,,512,0,1,,,,0,,,62,0
1201664,note_off,,,,,0,0,1,,,,0,,,68,0
1201664,note_on,,,,,0,0,1,,,,0,,,58,21
1202176,note_off,,,,,512,0,1,,,,0,,,58,0
1202176,note_on,,,,,0,0,1,,,,0,,,62,14
1202176,note_on,,,,,0,0,1,,,,0,,,68,21
1202176,note_off,,,,,0,0,1,,,,0,,,46,0
1202176,note_off,,,,,0,0,1,,,,0,,,53,0
1202176,note_off,,,,,0,0,1,,,,0,,,56,0
1202688,note_on,,,,,0,0,1,,,,0,,,58,18
1202688,note_off,,,,,0,0,1,,,,0,,,68,0
1202688,note_off,,,,,512,0,1,,,,0,,,62,0
1203200,control_change,,,,,512,0,1,,,,0,64,127,,
1203200,control_change,,,,,0,0,1,,,,0,64,0,,
1203200,control_change,,,,,0,0,1,,,,0,64,0,,
1203200,control_change,,,,,0,0,1,,,,0,64,0,,
1203200,control_change,,,,,0,0,1,,,,0,64,0,,
1203200,note_off,,,,,0,0,1,,,,0,,,58,0
1203200,note_off,,,,,0,0,1,,,,0,,,34,0
1203200,note_off,,,,,0,0,1,,,,0,,,46,0
1203200,note_on,,,,,0,0,1,,,,0,,,71,48
1203200,note_on,,,,,0,0,1,,,,0,,,34,19
1203200,note_on,,,,,0,0,1,,,,0,,,46,19
1203200,set_tempo,,,,,3584,1,0,,600000,,,,,,
1203200,note_off,,,,,0,0,1,,,,0,,,70,0
1203458,control_change,,,,,258,0,1,,,,0,64,0,,
1203712,note_on,,,,,0,0,1,,,,0,,,46,15
1203712,set_tempo,,,,,512,1,0,,461538,,,,,,
1203712,note_on,,,,,254,0,1,,,,0,,,59,33
1203712,note_on,,,,,0,0,1,,,,0,,,53,23
1203712,note_on,,,,,0,0,1,,,,0,,,56,15
1203754,control_change,,,,,42,0,1,,,,0,64,127,,
1204224,note_on,,,,,0,0,1,,,,0,,,68,31
1204224,note_on,,,,,0,0,1,,,,0,,,62,23
1204224,note_off,,,,,470,0,1,,,,0,,,59,0
1204224,note_off,,,,,0,0,1,,,,0,,,56,0
1204224,note_off,,,,,0,0,1,,,,0,,,46,0
1204224,note_on,,,,,0,0,1,,,,0,,,56,14
1204224,note_on,,,,,0,0,1,,,,0,,,53,21
1204224,note_on,,,,,0,0,1,,,,0,,,46,14
1204224,note_off,,,,,0,0,1,,,,0,,,53,0
1204736,note_on,,,,,0,0,1,,,,0,,,56,13
1204736,note_off,,,,,512,0,1,,,,0,,,62,0
1204736,note_off,,,,,0,0,1,,,,0,,,53,0
1204736,note_off,,,,,0,0,1,,,,0,,,56,0
1204736,note_on,,,,,0,0,1,,,,0,,,59,26
1204736,note_on,,,,,0,0,1,,,,0,,,46,13
1204736,note_on,,,,,0,0,1,,,,0,,,53,20
1204736,note_off,,,,,0,0,1,,,,0,,,46,0
1204736,note_off,,,,,0,0,1,,,,0,,,68,0
1205248,set_tempo,,,,,1536,1,0,,480000,,,,,,
1205248,note_off,,,,,512,0,1,,,,0,,,59,0
1205248,note_on,,,,,0,0,1,,,,0,,,62,19
1205248,note_on,,,,,0,0,1,,,,0,,,68,27
1205248,note_on,,,,,0,0,1,,,,0,,,46,12
1205248,note_on,,,,,0,0,1,,,,0,,,53,17
1205248,note_on,,,,,0,0,1,,,,0,,,56,12
1205248,note_off,,,,,0,0,1,,,,0,,,46,0
1205248,note_off,,,,,0,0,1,,,,0,,,53,0
1205248,note_off,,,,,0,0,1,,,,0,,,56,0
1205760,note_on,,,,,0,0,1,,,,0,,,59,26
1205760,note_off,,,,,0,0,1,,,,0,,,68,0
1205760,note_off,,,,,512,0,1,,,,0,,,62,0
1206272,note_off,,,,,512,0,1,,,,0,,,59,0
1206272,note_on,,,,,0,0,1,,,,0,,,62,16
1206272,note_on,,,,,0,0,1,,,,0,,,68,24
1206272,note_off,,,,,0,0,1,,,,0,,,46,0
1206272,note_off,,,,,0,0,1,,,,0,,,53,0
1206272,note_off,,,,,0,0,1,,,,0,,,56,0
1206784,set_tempo,,,,,1536,1,0,,666666,,,,,,
1206784,note_off,,,,,512,0,1,,,,0,,,62,0
1206784,note_on,,,,,0,0,1,,,,0,,,59,19
1206784,note_off,,,,,0,0,1,,,,0,,,68,0
1207296,control_change,,,,,512,0,1,,,,0,64,127,,
1207296,note_on,,,,,0,0,1,,,,0,,,46,12
1207296,note_on,,,,,0,0,1,,,,0,,,34,12
1207296,note_on,,,,,0,0,1,,,,0,,,70,37
1207296,note_off,,,,,0,0,1,,,,0,,,46,0
1207296,note_off,,,,,0,0,1,,,,0,,,59,0
1207296,note_off,,,,,0,0,1,,,,0,,,34,0
1207296,control_change,,,,,0,0,1,,,,0,64,0,,
1207296,control_change,,,,,0,0,1,,,,0,64,0,,
1207296,control_change,,,,,0,0,1,,,,0,64,0,,
1207296,note_off,,,,,0,0,1,,,,0,,,71,0
1207296,control_change,,,,,0,0,1,,,,0,64,0,,
1207554,control_change,,,,,258,0,1,,,,0,64,0,,
1207808,note_on,,,,,0,0,1,,,,0,,,56,8
1207808,set_tempo,,,,,1024,1,0,,545454,,,,,,
1207808,note_on,,,,,254,0,1,,,,0,,,58,14
1207808,note_on,,,,,0,0,1,,,,0,,,46,8
1207808,note_on,,,,,0,0,1,,,,0,,,53,16
1207850,control_change,,,,,42,0,1,,,,0,64,127,,
1208320,note_off,,,,,470,0,1,,,,0,,,58,0
1208320,note_on,,,,,0,0,1,,,,0,,,62,7
1208320,note_on,,,,,0,0,1,,,,0,,,68,14
1208320,note_on,,,,,0,0,1,,,,0,,,46,7
1208320,note_on,,,,,0,0,1,,,,0,,,53,14
1208320,note_on,,,,,0,0,1,,,,0,,,56,7
1208320,note_off,,,,,0,0,1,,,,0,,,46,0
1208320,note_off,,,,,0,0,1,,,,0,,,53,0
1208320,note_off,,,,,0,0,1,,,,0,,,56,0
1208832,set_tempo,,,,,1024,1,0,,600000,,,,,,
1208832,note_on,,,,,0,0,1,,,,0,,,56,6
1208832,note_on,,,,,0,0,1,,,,0,,,46,6
1208832,note_on,,,,,0,0,1,,,,0,,,58,14
1208832,note_off,,,,,0,0,1,,,,0,,,56,0
1208832,note_on,,,,,0,0,1,,,,0,,,53,13
1208832,note_off,,,,,0,0,1,,,,0,,,46,0
1208832,note_off,,,,,0,0,1,,,,0,,,68,0
1208832,note_off,,,,,512,0,1,,,,0,,,62,0
1208832,note_off,,,,,0,0,1,,,,0,,,53,0
1209344,set_tempo,,,,,512,1,0,,666666,,,,,,
1209344,note_off,,,,,0,0,1,,,,0,,,56,0
1209344,note_off,,,,,0,0,1,,,,0,,,53,0
1209344,note_on,,,,,0,0,1,,,,0,,,56,5
1209344,note_off,,,,,0,0,1,,,,0,,,46,0
1209344,note_on,,,,,0,0,1,,,,0,,,46,5
1209344,note_on,,,,,0,0,1,,,,0,,,68,14
1209344,note_on,,,,,0,0,1,,,,0,,,62,7
1209344,note_off,,,,,512,0,1,,,,0,,,58,0
1209344,note_on,,,,,0,0,1,,,,0,,,53,10
1210368,note_off,,,,,1024,0,1,,,,0,,,70,0
1210368,note_off,,,,,0,0,1,,,,0,,,62,0
1210368,note_off,,,,,0,0,1,,,,0,,,68,0
1210368,note_off,,,,,0,0,1,,,,0,,,46,0
1210368,note_off,,,,,0,0,1,,,,0,,,53,0
1210368,note_off,,,,,0,0,1,,,,0,,,56,0
1210368,note_on,,,,,0,0,1,,,,0,,,70,37
1211392,note_off,,,,,0,0,1,,,,0,,,34,0
1211392,control_change,,,,,0,0,1,,,,0,64,127,,
1211392,time_signature,6,8,36,8,2048,1,0,,,,,,,,
1211392,key_signature,,,,,0,1,0,Eb,,,,,,,
1211392,set_tempo,,,,,0,1,0,,857142,,,,,,
1211392,note_on,,,,,0,0,1,,,,0,,,51,18
1211392,control_change,,,,,1024,0,1,,,,0,64,0,,
1211392,note_on,,,,,0,0,1,,,,0,,,67,22
1211392,note_off,,,,,0,0,1,,,,0,,,46,0
1211392,note_on,,,,,0,0,1,,,,0,,,70,40
1211392,note_off,,,,,0,0,1,,,,0,,,70,0
1211614,control_change,,,,,222,0,1,,,,0,64,0,,
1211799,control_change,,,,,185,0,1,,,,0,64,127,,
1211904,note_on,,,,,105,0,1,,,,0,,,58,20
1211904,set_tempo,,,,,512,1,0,,705882,,,,,,
1212416,note_off,,,,,512,0,1,,,,0,,,51,0
1212416,note_off,,,,,0,0,1,,,,0,,,58,0
1212416,note_on,,,,,0,0,1,,,,0,,,63,20
1212928,note_on,,,,,0,0,1,,,,0,,,68,23
1212928,note_on,,,,,0,0,1,,,,0,,,70,41
1212928,note_off,,,,,0,0,1,,,,0,,,63,0
1212928,note_off,,,,,0,0,1,,,,0,,,70,0
1212928,note_off,,,,,512,0,1,,,,0,,,67,0
1212928,note_on,,,,,0,0,1,,,,0,,,51,18
1212928,set_tempo,,,,,1024,1,0,,750000,,,,,,
1212998,control_change,,,,,70,0,1,,,,0,64,0,,
1213312,control_change,,,,,314,0,1,,,,0,64,127,,
1213440,note_on,,,,,0,0,1,,,,0,,,75,46
1213440,note_on,,,,,0,0,1,,,,0,,,58,20
1213440,note_off,,,,,128,0,1,,,,0,,,70,0
1213440,set_tempo,,,,,512,1,0,,705882,,,,,,
1213952,note_on,,,,,0,0,1,,,,0,,,65,20
1213952,note_off,,,,,512,0,1,,,,0,,,75,0
1213952,note_on,,,,,0,0,1,,,,0,,,74,41
1213952,note_off,,,,,0,0,1,,,,0,,,58,0
1213952,set_tempo,,,,,512,1,0,,750000,,,,,,
1214045,control_change,,,,,93,0,1,,,,0,64,0,,
1214324,control_change,,,,,279,0,1,,,,0,64,127,,
1214464,control_change,,,,,140,0,1,,,,0,64,0,,
1214464,note_on,,,,,0,0,1,,,,0,,,51,15
1214464,note_off,,,,,0,0,1,,,,0,,,51,0
1214464,note_off,,,,,0,0,1,,,,0,,,65,0
1214464,note_on,,,,,0,0,1,,,,0,,,67,21
1214464,note_on,,,,,0,0,1,,,,0,,,75,43
1214464,set_tempo,,,,,512,1,0,,705882,,,,,,
1214464,note_off,,,,,0,0,1,,,,0,,,68,0
1214464,note_off,,,,,0,0,1,,,,0,,,74,0
1214464,control_change,,,,,0,0,1,,,,0,64,127,,
1214649,control_change,,,,,185,0,1,,,,0,64,0,,
1214945,control_change,,,,,296,0,1,,,,0,64,127,,
1214976,set_tempo,,,,,512,1,0,,600000,,,,,,
1214976,note_on,,,,,31,0,1,,,,0,,,55,18
1215488,note_on,,,,,512,0,1,,,,0,,,58,21
1216000,set_tempo,,,,,1024,1,0,,750000,,,,,,
1216000,note_off,,,,,512,0,1,,,,0,,,75,0
1216000,note_on,,,,,0,0,1,,,,0,,,70,29
1216000,note_on,,,,,0,0,1,,,,0,,,63,24
1216512,note_off,,,,,512,0,1,,,,0,,,67,0
1216512,note_off,,,,,0,0,1,,,,0,,,70,0
1216512,note_off,,,,,0,0,1,,,,0,,,55,0
1216512,note_off,,,,,0,0,1,,,,0,,,63,0
1216512,set_tempo,,,,,512,1,0,,600000,,,,,,
1216512,note_on,,,,,0,0,1,,,,0,,,55,20
1216908,control_change,,,,,396,0,1,,,,0,64,0,,
1217024,note_on,,,,,116,0,1,,,,0,,,67,23
1217024,note_on,,,,,0,0,1,,,,0,,,70,41
1217024,note_on,,,,,0,0,1,,,,0,,,58,16
1217024,note_off,,,,,0,0,1,,,,0,,,55,0
1217024,note_off,,,,,0,0,1,,,,0,,,58,0
1217024,set_tempo,,,,,512,1,0,,750000,,,,,,
1217292,control_change,,,,,268,0,1,,,,0,64,127,,
1217536,set_tempo,,,,,512,1,0,,705882,,,,,,
1217536,note_off,,,,,0,0,1,,,,0,,,51,0
1217536,control_change,,,,,0,0,1,,,,0,64,127,,
1217536,note_off,,,,,0,0,1,,,,0,,,70,0
1217536,note_off,,,,,0,0,1,,,,0,,,67,0
1217536,note_on,,,,,0,0,1,,,,0,,,63,21
1217536,control_change,,,,,244,0,1,,,,0,64,0,,
1217536,note_on,,,,,0,0,1,,,,0,,,67,39
1217536,note_on,,,,,0,0,1,,,,0,,,51,21
1217536,note_off,,,,,0,0,1,,,,0,,,58,0
1218048,note_on,,,,,512,0,1,,,,0,,,55,23
1218048,set_tempo,,,,,512,1,0,,600000,,,,,,
1218231,control_change,,,,,183,0,1,,,,0,64,0,,
1218444,control_change,,,,,213,0,1,,,,0,64,127,,
1218560,note_on,,,,,0,0,1,,,,0,,,56,25
1218560,note_on,,,,,0,0,1,,,,0,,,68,38
1218560,note_on,,,,,0,0,1,,,,0,,,65,20
1218560,note_off,,,,,0,0,1,,,,0,,,55,0
1218560,note_off,,,,,0,0,1,,,,0,,,51,0
1218560,note_off,,,,,0,0,1,,,,0,,,67,0
1218560,note_off,,,,,116,0,1,,,,0,,,63,0
1218816,note_off,,,,,256,0,1,,,,0,,,68,0
1218816,set_tempo,,,,,768,1,0,,1333333,,,,,,
1218816,note_on,,,,,0,0,1,,,,0,,,68,38
1218901,note_off,,,,,85,0,1,,,,0,,,68,0
1218901,note_on,,,,,0,0,1,,,,0,,,70,38
1218987,note_off,,,,,86,0,1,,,,0,,,70,0
1218987,note_on,,,,,0,0,1,,,,0,,,72,38
1219072,set_tempo,,,,,256,1,0,,750000,,,,,,
1219072,note_off,,,,,85,0,1,,,,0,,,65,0
1219072,note_off,,,,,0,0,1,,,,0,,,72,0
1219072,note_off,,,,,0,0,1,,,,0,,,56,0
1219072,note_on,,,,,0,0,1,,,,0,,,67,27
1219072,note_on,,,,,0,0,1,,,,0,,,70,46
1219072,note_on,,,,,0,0,1,,,,0,,,58,27
1219085,control_change,,,,,13,0,1,,,,0,64,0,,
1219272,control_change,,,,,187,0,1,,,,0,64,127,,
1219584,note_on,,,,,0,0,1,,,,0,,,56,23
1219584,note_on,,,,,0,0,1,,,,0,,,65,25
1219584,note_off,,,,,0,0,1,,,,0,,,58,0
1219584,note_on,,,,,0,0,1,,,,0,,,68,43
1219584,note_off,,,,,312,0,1,,,,0,,,67,0
1219584,set_tempo,,,,,512,1,0,,666666,,,,,,
1219584,note_off,,,,,0,0,1,,,,0,,,70,0
1219700,control_change,,,,,116,0,1,,,,0,64,0,,
1219913,control_change,,,,,213,0,1,,,,0,64,127,,
1220096,note_on,,,,,0,0,1,,,,0,,,55,20
1220096,note_on,,,,,0,0,1,,,,0,,,67,40
1220096,note_on,,,,,0,0,1,,,,0,,,63,23
1220096,note_off,,,,,0,0,1,,,,0,,,56,0
1220096,note_off,,,,,183,0,1,,,,0,,,65,0
1220096,set_tempo,,,,,512,1,0,,750000,,,,,,
1220096,note_off,,,,,0,0,1,,,,0,,,68,0
1220207,control_change,,,,,111,0,1,,,,0,64,0,,
1220368,control_change,,,,,161,0,1,,,,0,64,127,,
1220608,note_off,,,,,0,0,1,,,,0,,,67,0
1220608,control_change,,,,,0,0,1,,,,0,64,127,,
1220608,note_off,,,,,0,0,1,,,,0,,,63,0
1220608,control_change,,,,,240,0,1,,,,0,64,0,,
1220608,note_off,,,,,0,0,1,,,,0,,,55,0
1220608,note_on,,,,,0,0,1,,,,0,,,67,39
1220608,note_on,,,,,0,0,1,,,,0,,,46,17
1220608,note_on,,,,,0,0,1,,,,0,,,63,21
1220608,set_tempo,,,,,512,1,0,,750000,,,,,,
1221120,note_on,,,,,512,0,1,,,,0,,,55,22
1221120,set_tempo,,,,,512,1,0,,600000,,,,,,
1221632,note_on,,,,,512,0,1,,,,0,,,56,26
1221672,note_off,,,,,40,0,1,,,,0,,,55,0
1222111,control_change,,,,,439,0,1,,,,0,64,0,,
1222144,set_tempo,,,,,1024,1,0,,800000,,,,,,
1222144,note_off,,,,,33,0,1,,,,0,,,63,0
1222144,note_off,,,,,0,0,1,,,,0,,,67,0
1222144,note_on,,,,,0,0,1,,,,0,,,62,16
1222144,note_on,,,,,0,0,1,,,,0,,,65,31
1222144,note_on,,,,,0,0,1,,,,0,,,58,29
1222184,note_off,,,,,40,0,1,,,,0,,,56,0
1222405,control_change,,,,,221,0,1,,,,0,64,127,,
1222656,note_on,,,,,0,0,1,,,,0,,,67,37
1222656,note_on,,,,,0,0,1,,,,0,,,56,24
1222656,note_off,,,,,0,0,1,,,,0,,,65,0
1222656,note_off,,,,,251,0,1,,,,0,,,62,0
1222656,note_on,,,,,0,0,1,,,,0,,,63,20
1222656,set_tempo,,,,,512,1,0,,666666,,,,,,
1222696,note_off,,,,,40,0,1,,,,0,,,58,0
1222765,control_change,,,,,69,0,1,,,,0,64,0,,
1222912,note_on,,,,,147,0,1,,,,0,,,55,21
1222952,note_off,,,,,40,0,1,,,,0,,,56,0
1223026,control_change,,,,,74,0,1,,,,0,64,127,,
1223168,note_on,,,,,0,0,1,,,,0,,,53,19
1223168,note_off,,,,,142,0,1,,,,0,,,63,0
1223168,note_on,,,,,0,0,1,,,,0,,,65,26
1223168,note_on,,,,,0,0,1,,,,0,,,68,44
1223168,set_tempo,,,,,512,1,0,,750000,,,,,,
1223168,note_off,,,,,0,0,1,,,,0,,,67,0
1223208,note_off,,,,,40,0,1,,,,0,,,55,0
1223288,control_change,,,,,80,0,1,,,,0,64,0,,
1223451,control_change,,,,,163,0,1,,,,0,64,127,,
1223680,control_change,,,,,0,0,1,,,,0,64,127,,
1223680,note_off,,,,,0,0,1,,,,0,,,65,0
1223680,note_off,,,,,0,0,1,,,,0,,,68,0
1223680,note_off,,,,,0,0,1,,,,0,,,46,0
1223680,note_on,,,,,0,0,1,,,,0,,,67,26
1223680,note_on,,,,,0,0,1,,,,0,,,70,44
1223680,note_on,,,,,0,0,1,,,,0,,,51,18
1223680,control_change,,,,,229,0,1,,,,0,64,0,,
1223720,note_off,,,,,40,0,1,,,,0,,,53,0
1223774,control_change,,,,,54,0,1,,,,0,64,0,,
1224056,control_change,,,,,282,0,1,,,,0,64,127,,
1224192,note_on,,,,,136,0,1,,,,0,,,58,20
1224192,set_tempo,,,,,1024,1,0,,600000,,,,,,
1224704,note_off,,,,,512,0,1,,,,0,,,51,0
1224704,note_off,,,,,0,0,1,,,,0,,,58,0
1224704,note_on,,,,,0,0,1,,,,0,,,63,20
1225196,note_off,,,,,492,0,1,,,,0,,,63,0
1225216,set_tempo,,,,,1024,1,0,,750000,,,,,,
1225216,note_on,,,,,0,0,1,,,,0,,,55,25
1225216,note_on,,,,,0,0,1,,,,0,,,70,46
1225216,note_on,,,,,0,0,1,,,,0,,,63,28
1225216,note_off,,,,,20,0,1,,,,0,,,67,0
1225216,note_off,,,,,0,0,1,,,,0,,,70,0
1225279,control_change,,,,,63,0,1,,,,0,64,0,,
1225592,control_change,,,,,313,0,1,,,,0,64,127,,
1225728,note_off,,,,,136,0,1,,,,0,,,70,0
1225728,note_on,,,,,0,0,1,,,,0,,,75,54
1225728,set_tempo,,,,,512,1,0,,666666,,,,,,
1225728,note_on,,,,,0,0,1,,,,0,,,58,27
1226240,note_off,,,,,0,0,1,,,,0,,,58,0
1226240,note_on,,,,,0,0,1,,,,0,,,70,32
1226240,note_on,,,,,0,0,1,,,,0,,,74,51
1226240,note_on,,,,,0,0,1,,,,0,,,62,30
1226240,note_off,,,,,0,0,1,,,,0,,,75,0
1226240,note_on,,,,,0,0,1,,,,0,,,64,32
1226240,set_tempo,,,,,512,1,0,,800000,,,,,,
1226240,note_off,,,,,512,0,1,,,,0,,,63,0
1226313,control_change,,,,,73,0,1,,,,0,64,0,,
1226470,control_change,,,,,157,0,1,,,,0,64,127,,
1226752,note_on,,,,,0,0,1,,,,0,,,65,32
1226752,note_off,,,,,0,0,1,,,,0,,,62,0
1226752,note_off,,,,,0,0,1,,,,0,,,55,0
1226752,note_off,,,,,0,0,1,,,,0,,,74,0
1226752,note_off,,,,,0,0,1,,,,0,,,70,0
1226752,note_off,,,,,0,0,1,,,,0,,,64,0
1226752,control_change,,,,,282,0,1,,,,0,64,0,,
1226752,set_tempo,,,,,512,1,0,,750000,,,,,,
1226752,note_on,,,,,0,0,1,,,,0,,,74,51
1226752,note_on,,,,,0,0,1,,,,0,,,41,24
1226752,control_change,,,,,0,0,1,,,,0,64,127,,
1226752,note_on,,,,,0,0,1,,,,0,,,70,32
1226959,control_change,,,,,207,0,1,,,,0,64,0,,
1227132,control_change,,,,,173,0,1,,,,0,64,127,,
1227264,set_tempo,,,,,512,1,0,,600000,,,,,,
1227264,note_on,,,,,132,0,1,,,,0,,,53,21
1227776,note_on,,,,,512,0,1,,,,0,,,57,25
1228288,set_tempo,,,,,1024,1,0,,705882,,,,,,
1228288,note_on,,,,,0,0,1,,,,0,,,63,29
1228288,note_on,,,,,0,0,1,,,,0,,,72,44
1228288,note_on,,,,,0,0,1,,,,0,,,69,22
1228288,note_off,,,,,0,0,1,,,,0,,,74,0
1228288,note_off,,,,,512,0,1,,,,0,,,70,0
1228340,control_change,,,,,52,0,1,,,,0,64,0,,
1228650,control_change,,,,,310,0,1,,,,0,64,127,,
1228800,note_on,,,,,0,0,1,,,,0,,,57,22
1228800,note_off,,,,,150,0,1,,,,0,,,65,0
1228800,note_off,,,,,0,0,1,,,,0,,,69,0
1228800,note_off,,,,,0,0,1,,,,0,,,72,0
1228800,note_off,,,,,0,0,1,,,,0,,,41,0
1228800,note_off,,,,,0,0,1,,,,0,,,57,0
1228800,note_off,,,,,0,0,1,,,,0,,,63,0
1228800,set_tempo,,,,,512,1,0,,600000,,,,,,
1229134,control_change,,,,,334,0,1,,,,0,64,0,,
1229312,note_off,,,,,0,0,1,,,,0,,,53,0
1229312,note_on,,,,,0,0,1,,,,0,,,53,15
1229312,note_on,,,,,178,0,1,,,,0,,,65,37
1229312,note_on,,,,,0,0,1,,,,0,,,69,37
1229312,note_off,,,,,0,0,1,,,,0,,,57,0
1229312,note_on,,,,,0,0,1,,,,0,,,72,53
1229312,set_tempo,,,,,512,1,0,,666666,,,,,,
1229513,control_change,,,,,201,0,1,,,,0,64,127,,
1229824,note_on,,,,,0,0,1,,,,0,,,74,57
1229824,note_on,,,,,0,0,1,,,,0,,,70,41
1229824,note_on,,,,,0,0,1,,,,0,,,46,34
1229824,note_off,,,,,0,0,1,,,,0,,,53,0
1229824,note_on,,,,,0,0,1,,,,0,,,65,41
1229824,note_off,,,,,0,0,1,,,,0,,,69,0
1229824,note_off,,,,,0,0,1,,,,0,,,65,0
1229824,control_change,,,,,0,0,1,,,,0,64,127,,
1229824,control_change,,,,,311,0,1,,,,0,64,0,,
1229824,set_tempo,,,,,512,1,0,,750000,,,,,,
1229824,note_off,,,,,0,0,1,,,,0,,,72,0
1230031,control_change,,,,,207,0,1,,,,0,64,0,,
1230273,control_change,,,,,242,0,1,,,,0,64,127,,
1230336,note_on,,,,,63,0,1,,,,0,,,53,25
1230336,note_on,,,,,0,0,1,,,,0,,,58,25
1230336,set_tempo,,,,,512,1,0,,600000,,,,,,
1230848,set_tempo,,,,,512,1,0,,625000,,,,,,
1230848,note_off,,,,,0,0,1,,,,0,,,58,0
1230848,note_off,,,,,0,0,1,,,,0,,,53,0
1230848,note_off,,,,,512,0,1,,,,0,,,46,0
1230848,note_on,,,,,0,0,1,,,,0,,,62,25
1231343,control_change,,,,,495,0,1,,,,0,64,0,,
1231360,note_on,,,,,0,0,1,,,,0,,,43,34
1231360,note_off,,,,,0,0,1,,,,0,,,70,0
1231360,note_off,,,,,0,0,1,,,,0,,,74,0
1231360,note_off,,,,,0,0,1,,,,0,,,62,0
1231360,note_on,,,,,0,0,1,,,,0,,,63,37
1231360,note_on,,,,,0,0,1,,,,0,,,70,37
1231360,note_on,,,,,0,0,1,,,,0,,,75,61
1231360,note_off,,,,,17,0,1,,,,0,,,65,0
1231360,set_tempo,,,,,512,1,0,,705882,,,,,,
1231757,control_change,,,,,397,0,1,,,,0,64,127,,
1231872,set_tempo,,,,,512,1,0,,600000,,,,,,
1231872,note_on,,,,,115,0,1,,,,0,,,55,25
1232384,note_off,,,,,512,0,1,,,,0,,,43,0
1232384,note_on,,,,,0,0,1,,,,0,,,58,25
1232384,note_off,,,,,0,0,1,,,,0,,,55,0
1232896,note_on,,,,,0,0,1,,,,0,,,74,53
1232896,note_on,,,,,0,0,1,,,,0,,,41,35
1232896,set_tempo,,,,,1024,1,0,,705882,,,,,,
1232896,note_on,,,,,0,0,1,,,,0,,,70,33
1232896,control_change,,,,,0,0,1,,,,0,64,127,,
1232896,note_off,,,,,0,0,1,,,,0,,,63,0
1232896,note_off,,,,,0,0,1,,,,0,,,70,0
1232896,note_off,,,,,0,0,1,,,,0,,,75,0
1232896,note_off,,,,,0,0,1,,,,0,,,58,0
1232896,control_change,,,,,512,0,1,,,,0,64,0,,
1232896,note_on,,,,,0,0,1,,,,0,,,65,33
1233103,control_change,,,,,207,0,1,,,,0,64,0,,
1233310,control_change,,,,,207,0,1,,,,0,64,127,,
1233408,note_on,,,,,98,0,1,,,,0,,,53,26
1233408,set_tempo,,,,,512,1,0,,600000,,,,,,
1233920,note_off,,,,,512,0,1,,,,0,,,41,0
1233920,note_off,,,,,0,0,1,,,,0,,,53,0
1233920,note_on,,,,,0,0,1,,,,0,,,58,26
1234304,note_on,,,,,0,0,1,,,,0,,,74,40
1234304,set_tempo,,,,,896,1,0,,800000,,,,,,
1234304,note_off,,,,,384,0,1,,,,0,,,74,0
1234432,note_on,,,,,0,0,1,,,,0,,,41,31
1234432,note_on,,,,,0,0,1,,,,0,,,69,32
1234432,note_on,,,,,0,0,1,,,,0,,,63,32
1234432,note_off,,,,,0,0,1,,,,0,,,58,0
1234432,note_on,,,,,0,0,1,,,,0,,,72,52
1234432,note_off,,,,,0,0,1,,,,0,,,70,0
1234432,note_off,,,,,128,0,1,,,,0,,,65,0
1234432,set_tempo,,,,,128,1,0,,750000,,,,,,
1234432,note_off,,,,,0,0,1,,,,0,,,74,0
1234484,control_change,,,,,52,0,1,,,,0,64,0,,
1234725,control_change,,,,,241,0,1,,,,0,64,127,,
1234944,set_tempo,,,,,512,1,0,,666666,,,,,,
1234944,note_off,,,,,219,0,1,,,,0,,,72,0
1234944,note_on,,,,,0,0,1,,,,0,,,70,46
1234944,note_on,,,,,0,0,1,,,,0,,,53,19
1235456,note_off,,,,,512,0,1,,,,0,,,70,0
1235456,note_on,,,,,0,0,1,,,,0,,,72,44
1235456,note_on,,,,,0,0,1,,,,0,,,57,19
1235456,note_off,,,,,0,0,1,,,,0,,,53,0
1235456,set_tempo,,,,,512,1,0,,800000,,,,,,
1235554,control_change,,,,,98,0,1,,,,0,64,0,,
1235795,control_change,,,,,241,0,1,,,,0,64,127,,
1235968,note_off,,,,,0,0,1,,,,0,,,69,0
1235968,set_tempo,,,,,512,1,0,,923076,,,,,,
1235968,note_on,,,,,0,0,1,,,,0,,,34,22
1235968,note_on,,,,,0,0,1,,,,0,,,72,48
1235968,note_on,,,,,0,0,1,,,,0,,,69,32
1235968,note_on,,,,,0,0,1,,,,0,,,63,32
1235968,note_off,,,,,0,0,1,,,,0,,,41,0
1235968,control_change,,,,,173,0,1,,,,0,64,0,,
1235968,control_change,,,,,0,0,1,,,,0,64,127,,
1235968,note_off,,,,,0,0,1,,,,0,,,72,0
1235968,note_off,,,,,0,0,1,,,,0,,,63,0
1235968,note_off,,,,,0,0,1,,,,0,,,57,0
1236141,control_change,,,,,173,0,1,,,,0,64,0,,
1236348,control_change,,,,,207,0,1,,,,0,64,127,,
1236480,note_on,,,,,132,0,1,,,,0,,,46,19
1236480,set_tempo,,,,,512,1,0,,800000,,,,,,
1236992,set_tempo,,,,,512,1,0,,857142,,,,,,
1236992,note_off,,,,,512,0,1,,,,0,,,34,0
1236992,note_on,,,,,0,0,1,,,,0,,,53,15
1237487,control_change,,,,,495,0,1,,,,0,64,0,,
1237504,note_off,,,,,0,0,1,,,,0,,,72,0
1237504,note_on,,,,,0,0,1,,,,0,,,62,12
1237504,note_on,,,,,0,0,1,,,,0,,,70,28
1237504,note_on,,,,,0,0,1,,,,0,,,58,10
1237504,note_off,,,,,17,0,1,,,,0,,,63,0
1237504,note_off,,,,,0,0,1,,,,0,,,69,0
1237866,control_change,,,,,362,0,1,,,,0,64,127,,
1238528,set_tempo,,,,,1536,1,0,,857142,,,,,,
1238528,note_off,,,,,0,0,1,,,,0,,,70,0
1238528,note_on,,,,,0,0,1,,,,0,,,70,40
1238528,note_off,,,,,662,0,1,,,,0,,,62,0
1238528,note_off,,,,,0,0,1,,,,0,,,58,0
1238528,note_off,,,,,0,0,1,,,,0,,,53,0
1238528,note_off,,,,,0,0,1,,,,0,,,46,0
1239040,control_change,,,,,0,0,1,,,,0,64,127,,
1239040,control_change,,,,,512,0,1,,,,0,64,0,,
1239040,note_on,,,,,0,0,1,,,,0,,,46,28
1239040,note_on,,,,,0,0,1,,,,0,,,70,44
1239040,note_off,,,,,0,0,1,,,,0,,,70,0
1239040,note_on,,,,,0,0,1,,,,0,,,68,21
1239284,control_change,,,,,244,0,1,,,,0,64,0,,
1239529,control_change,,,,,245,0,1,,,,0,64,127,,
1239552,set_tempo,,,,,1024,1,0,,600000,,,,,,
1239552,note_off,,,,,23,0,1,,,,0,,,46,0
1239552,note_on,,,,,0,0,1,,,,0,,,53,22
1240064,note_off,,,,,512,0,1,,,,0,,,53,0
1240064,note_on,,,,,0,0,1,,,,0,,,58,22
1240576,note_on,,,,,0,0,1,,,,0,,,62,22
1240576,set_tempo,,,,,1024,1,0,,705882,,,,,,
1240576,note_off,,,,,512,0,1,,,,0,,,58,0
1241088,note_off,,,,,512,0,1,,,,0,,,70,0
1241088,note_on,,,,,0,0,1,,,,0,,,58,22
1241088,note_off,,,,,0,0,1,,,,0,,,62,0
1241088,note_on,,,,,0,0,1,,,,0,,,72,44
1241580,note_off,,,,,492,0,1,,,,0,,,68,0
1241600,set_tempo,,,,,1024,1,0,,750000,,,,,,
1241600,note_off,,,,,20,0,1,,,,0,,,72,0
1241600,note_on,,,,,0,0,1,,,,0,,,68,26
1241600,note_on,,,,,0,0,1,,,,0,,,70,44
1241600,note_on,,,,,0,0,1,,,,0,,,53,22
1241600,note_off,,,,,0,0,1,,,,0,,,58,0
1241658,control_change,,,,,58,0,1,,,,0,64,0,,
1241833,control_change,,,,,175,0,1,,,,0,64,127,,
1242112,control_change,,,,,279,0,1,,,,0,64,0,,
1242112,note_off,,,,,0,0,1,,,,0,,,68,0
1242112,note_off,,,,,0,0,1,,,,0,,,70,0
1242112,note_off,,,,,0,0,1,,,,0,,,53,0
1242112,note_on,,,,,0,0,1,,,,0,,,67,25
1242112,note_on,,,,,0,0,1,,,,0,,,70,43
1242112,note_on,,,,,0,0,1,,,,0,,,46,28
1242112,control_change,,,,,0,0,1,,,,0,64,127,,
1242279,control_change,,,,,167,0,1,,,,0,64,0,,
1242613,control_change,,,,,334,0,1,,,,0,64,127,,
1242624,note_on,,,,,11,0,1,,,,0,,,55,22
1242624,set_tempo,,,,,1024,1,0,,600000,,,,,,
1243136,note_on,,,,,512,0,1,,,,0,,,58,22
1243648,note_on,,,,,0,0,1,,,,0,,,67,29
1243648,note_on,,,,,0,0,1,,,,0,,,63,22
1243648,set_tempo,,,,,1024,1,0,,705882,,,,,,
1243648,note_on,,,,,0,0,1,,,,0,,,63,11
1243648,note_off,,,,,0,0,1,,,,0,,,58,0
1243648,note_off,,,,,0,0,1,,,,0,,,70,0
1243648,note_off,,,,,512,0,1,,,,0,,,67,0
1243681,control_change,,,,,33,0,1,,,,0,64,0,,
1243982,control_change,,,,,301,0,1,,,,0,64,127,,
1244160,set_tempo,,,,,512,1,0,,600000,,,,,,
1244160,note_off,,,,,178,0,1,,,,0,,,63,0
1244160,note_off,,,,,0,0,1,,,,0,,,67,0
1244160,note_off,,,,,0,0,1,,,,0,,,63,0
1244160,note_on,,,,,0,0,1,,,,0,,,58,22
1244416,control_change,,,,,256,0,1,,,,0,64,0,,
1244672,note_on,,,,,0,0,1,,,,0,,,75,51
1244672,note_on,,,,,0,0,1,,,,0,,,55,22
1244672,note_off,,,,,0,0,1,,,,0,,,46,0
1244672,note_off,,,,,0,0,1,,,,0,,,55,0
1244672,note_off,,,,,0,0,1,,,,0,,,58,0
1244672,note_on,,,,,256,0,1,,,,0,,,67,29
1244672,set_tempo,,,,,512,1,0,,800000,,,,,,
1244850,control_change,,,,,178,0,1,,,,0,64,127,,
1245184,note_off,,,,,0,0,1,,,,0,,,75,0
1245184,control_change,,,,,334,0,1,,,,0,64,0,,
1245184,control_change,,,,,0,0,1,,,,0,64,127,,
1245184,note_off,,,,,0,0,1,,,,0,,,67,0
1245184,note_on,,,,,0,0,1,,,,0,,,46,28
1245184,note_off,,,,,0,0,1,,,,0,,,55,0
1245184,note_on,,,,,0,0,1,,,,0,,,68,37
1245184,note_on,,,,,0,0,1,,,,0,,,77,59
1245359,control_change,,,,,175,0,1,,,,0,64,0,,
1245568,control_change,,,,,209,0,1,,,,0,64,127,,
1245696,note_on,,,,,128,0,1,,,,0,,,53,22
1245696,set_tempo,,,,,1024,1,0,,600000,,,,,,
1246196,control_change,,,,,500,0,1,,,,0,64,0,,
1246208,set_tempo,,,,,512,1,0,,625000,,,,,,
1246208,note_off,,,,,12,0,1,,,,0,,,77,0
1246208,note_on,,,,,0,0,1,,,,0,,,58,22
1246208,note_on,,,,,0,0,1,,,,0,,,74,48
1246511,control_change,,,,,303,0,1,,,,0,64,127,,
1246720,note_off,,,,,0,0,1,,,,0,,,74,0
1246720,set_tempo,,,,,512,1,0,,750000,,,,,,
1246720,note_off,,,,,0,0,1,,,,0,,,58,0
1246720,note_on,,,,,0,0,1,,,,0,,,65,33
1246720,note_on,,,,,0,0,1,,,,0,,,68,51
1246720,note_on,,,,,0,0,1,,,,0,,,62,22
1246720,note_off,,,,,209,0,1,,,,0,,,68,0
1246755,control_change,,,,,35,0,1,,,,0,64,0,,
1246999,control_change,,,,,244,0,1,,,,0,64,127,,
1247232,note_on,,,,,0,0,1,,,,0,,,58,22
1247232,note_on,,,,,0,0,1,,,,0,,,72,51
1247232,note_off,,,,,0,0,1,,,,0,,,68,0
1247232,note_off,,,,,233,0,1,,,,0,,,65,0
1247232,note_on,,,,,0,0,1,,,,0,,,68,31
1247348,control_change,,,,,116,0,1,,,,0,64,0,,
1247628,control_change,,,,,280,0,1,,,,0,64,127,,
1247744,note_on,,,,,0,0,1,,,,0,,,70,45
1247744,note_off,,,,,116,0,1,,,,0,,,68,0
1247744,note_off,,,,,0,0,1,,,,0,,,72,0
1247744,note_off,,,,,0,0,1,,,,0,,,53,0
1247744,note_on,,,,,0,0,1,,,,0,,,53,22
1247744,set_tempo,,,,,1024,1,0,,800000,,,,,,
1247744,note_off,,,,,0,0,1,,,,0,,,58,0
1247744,note_on,,,,,0,0,1,,,,0,,,68,29
1247872,control_change,,,,,128,0,1,,,,0,64,0,,
1248081,control_change,,,,,209,0,1,,,,0,64,127,,
1248256,control_change,,,,,175,0,1,,,,0,64,0,,
1248256,control_change,,,,,0,0,1,,,,0,64,127,,
1248256,note_off,,,,,0,0,1,,,,0,,,68,0
1248256,note_off,,,,,0,0,1,,,,0,,,70,0
1248256,note_off,,,,,0,0,1,,,,0,,,53,0
1248256,note_off,,,,,0,0,1,,,,0,,,62,0
1248256,note_on,,,,,0,0,1,,,,0,,,67,25
1248256,note_off,,,,,0,0,1,,,,0,,,46,0
1248256,set_tempo,,,,,512,1,0,,705882,,,,,,
1248256,note_on,,,,,0,0,1,,,,0,,,46,28
1248256,note_on,,,,,0,0,1,,,,0,,,70,43
1248419,control_change,,,,,163,0,1,,,,0,64,0,,
1248648,control_change,,,,,229,0,1,,,,0,64,127,,
1248768,note_on,,,,,120,0,1,,,,0,,,55,22
1248768,set_tempo,,,,,512,1,0,,600000,,,,,,
1249280,note_on,,,,,512,0,1,,,,0,,,58,22
1249759,control_change,,,,,479,0,1,,,,0,64,0,,
1249792,set_tempo,,,,,1024,1,0,,705882,,,,,,
1249792,note_on,,,,,0,0,1,,,,0,,,63,22
1249792,note_on,,,,,0,0,1,,,,0,,,67,31
1249792,note_off,,,,,33,0,1,,,,0,,,67,0
1249792,note_off,,,,,0,0,1,,,,0,,,70,0
1249792,note_on,,,,,0,0,1,,,,0,,,63,13
1249988,control_change,,,,,196,0,1,,,,0,64,127,,
1250304,note_off,,,,,0,0,1,,,,0,,,63,0
1250304,set_tempo,,,,,512,1,0,,625000,,,,,,
1250304,note_off,,,,,316,0,1,,,,0,,,63,0
1250304,note_off,,,,,0,0,1,,,,0,,,67,0
1250304,note_off,,,,,0,0,1,,,,0,,,58,0
1250304,note_on,,,,,0,0,1,,,,0,,,58,22
1250544,control_change,,,,,240,0,1,,,,0,64,0,,
1250816,note_off,,,,,0,0,1,,,,0,,,58,0
1250816,note_off,,,,,0,0,1,,,,0,,,55,0
1250816,note_on,,,,,0,0,1,,,,0,,,55,22
1250816,note_on,,,,,0,0,1,,,,0,,,70,41
1250816,note_on,,,,,272,0,1,,,,0,,,67,23
1250816,set_tempo,,,,,512,1,0,,800000,,,,,,
1250870,control_change,,,,,54,0,1,,,,0,64,127,,
1251328,note_on,,,,,0,0,1,,,,0,,,70,38
1251328,note_on,,,,,0,0,1,,,,0,,,46,18
1251328,note_on,,,,,0,0,1,,,,0,,,68,20
1251328,note_off,,,,,0,0,1,,,,0,,,55,0
1251328,note_off,,,,,0,0,1,,,,0,,,46,0
1251328,note_off,,,,,0,0,1,,,,0,,,67,0
1251328,note_off,,,,,0,0,1,,,,0,,,70,0
1251328,control_change,,,,,0,0,1,,,,0,64,127,,
1251328,control_change,,,,,0,0,1,,,,0,64,0,,
1251328,control_change,,,,,458,0,1,,,,0,64,0,,
1251328,control_change,,,,,0,0,1,,,,0,64,0,,
1251572,control_change,,,,,244,0,1,,,,0,64,0,,
1251817,control_change,,,,,245,0,1,,,,0,64,127,,
1251840,set_tempo,,,,,1024,1,0,,600000,,,,,,
1251840,note_on,,,,,23,0,1,,,,0,,,53,12
1252352,note_off,,,,,512,0,1,,,,0,,,53,0
1252352,note_on,,,,,0,0,1,,,,0,,,58,12
1252864,note_off,,,,,512,0,1,,,,0,,,58,0
1252864,set_tempo,,,,,1024,1,0,,705882,,,,,,
1252864,note_on,,,,,0,0,1,,,,0,,,62,12
1253376,note_on,,,,,0,0,1,,,,0,,,58,12
1253376,note_on,,,,,0,0,1,,,,0,,,71,34
1253376,set_tempo,,,,,512,1,0,,750000,,,,,,
1253376,note_off,,,,,512,0,1,,,,0,,,70,0
1253868,note_off,,,,,492,0,1,,,,0,,,68,0
1253888,note_off,,,,,20,0,1,,,,0,,,71,0
1253888,note_on,,,,,0,0,1,,,,0,,,68,16
1253888,note_on,,,,,0,0,1,,,,0,,,70,34
1253888,note_on,,,,,0,0,1,,,,0,,,53,12
1253888,note_off,,,,,0,0,1,,,,0,,,58,0
1253888,set_tempo,,,,,512,1,0,,750000,,,,,,
1253946,control_change,,,,,58,0,1,,,,0,64,0,,
1254121,control_change,,,,,175,0,1,,,,0,64,127,,
1254400,control_change,,,,,279,0,1,,,,0,64,0,,
1254400,control_change,,,,,0,0,1,,,,0,64,0,,
1254400,note_on,,,,,0,0,1,,,,0,,,46,18
1254400,note_on,,,,,0,0,1,,,,0,,,70,38
1254400,note_on,,,,,0,0,1,,,,0,,,66,20
1254400,note_off,,,,,0,0,1,,,,0,,,62,0
1254400,note_off,,,,,0,0,1,,,,0,,,53,0
1254400,note_off,,,,,0,0,1,,,,0,,,46,0
1254400,note_off,,,,,0,0,1,,,,0,,,70,0
1254400,control_change,,,,,0,0,1,,,,0,64,127,,
1254400,control_change,,,,,0,0,1,,,,0,64,0,,
1254400,note_off,,,,,0,0,1,,,,0,,,68,0
1254567,control_change,,,,,167,0,1,,,,0,64,0,,
1254901,control_change,,,,,334,0,1,,,,0,64,127,,
1254912,note_on,,,,,11,0,1,,,,0,,,54,12
1254912,set_tempo,,,,,1024,1,0,,600000,,,,,,
1255424,note_on,,,,,512,0,1,,,,0,,,58,12
1255936,note_on,,,,,0,0,1,,,,0,,,75,35
1255936,set_tempo,,,,,1024,1,0,,666666,,,,,,
1255936,note_off,,,,,512,0,1,,,,0,,,70,0
1255936,note_on,,,,,0,0,1,,,,0,,,63,12
1255936,note_off,,,,,0,0,1,,,,0,,,58,0
1255969,control_change,,,,,33,0,1,,,,0,64,0,,
1256270,control_change,,,,,301,0,1,,,,0,64,127,,
1256448,note_on,,,,,0,0,1,,,,0,,,58,12
1256448,set_tempo,,,,,512,1,0,,750000,,,,,,
1256448,note_off,,,,,178,0,1,,,,0,,,63,0
1256704,control_change,,,,,256,0,1,,,,0,64,0,,
1256960,note_off,,,,,256,0,1,,,,0,,,66,0
1256960,note_on,,,,,0,0,1,,,,0,,,54,12
1256960,note_off,,,,,0,0,1,,,,0,,,58,0
1256960,note_off,,,,,0,0,1,,,,0,,,54,0
1256960,note_on,,,,,0,0,1,,,,0,,,66,20
1256960,note_on,,,,,0,0,1,,,,0,,,78,42
1256960,set_tempo,,,,,512,1,0,,1000000,,,,,,
1256960,note_off,,,,,0,0,1,,,,0,,,75,0
1257138,control_change,,,,,178,0,1,,,,0,64,127,,
1257472,note_on,,,,,0,0,1,,,,0,,,56,18
1257472,note_on,,,,,0,0,1,,,,0,,,51,13
1257472,note_on,,,,,0,0,1,,,,0,,,47,18
1257472,note_on,,,,,0,0,1,,,,0,,,80,47
1257472,note_on,,,,,0,0,1,,,,0,,,68,31
1257472,note_off,,,,,0,0,1,,,,0,,,46,0
1257472,note_off,,,,,0,0,1,,,,0,,,78,0
1257472,note_off,,,,,0,0,1,,,,0,,,66,0
1257472,control_change,,,,,0,0,1,,,,0,64,127,,
1257472,control_change,,,,,334,0,1,,,,0,64,0,,
1257472,set_tempo,,,,,512,1,0,,857142,,,,,,
1257472,note_off,,,,,0,0,1,,,,0,,,54,0
1257643,control_change,,,,,171,0,1,,,,0,64,0,,
1257950,control_change,,,,,307,0,1,,,,0,64,127,,
1258496,note_on,,,,,0,0,1,,,,0,,,54,16
1258496,note_on,,,,,0,0,1,,,,0,,,78,43
1258496,note_on,,,,,0,0,1,,,,0,,,66,27
1258496,set_tempo,,,,,1024,1,0,,800000,,,,,,
1258496,note_off,,,,,0,0,1,,,,0,,,80,0
1258496,note_off,,,,,546,0,1,,,,0,,,68,0
1258496,note_off,,,,,0,0,1,,,,0,,,56,0
1259008,note_off,,,,,512,0,1,,,,0,,,66,0
1259008,set_tempo,,,,,512,1,0,,857142,,,,,,
1259008,note_off,,,,,0,0,1,,,,0,,,54,0
1259008,note_on,,,,,0,0,1,,,,0,,,65,25
1259008,note_on,,,,,0,0,1,,,,0,,,77,41
1259008,note_on,,,,,0,0,1,,,,0,,,53,16
1259008,note_off,,,,,0,0,1,,,,0,,,78,0
1259042,control_change,,,,,34,0,1,,,,0,64,0,,
1259179,control_change,,,,,137,0,1,,,,0,64,127,,
1259520,note_off,,,,,341,0,1,,,,0,,,65,0
1259520,set_tempo,,,,,512,1,0,,750000,,,,,,
1259520,note_off,,,,,0,0,1,,,,0,,,77,0
1259520,note_off,,,,,0,0,1,,,,0,,,53,0
1259520,note_on,,,,,0,0,1,,,,0,,,66,24
1259520,note_on,,,,,0,0,1,,,,0,,,78,40
1259520,note_on,,,,,0,0,1,,,,0,,,54,18
1259588,control_change,,,,,68,0,1,,,,0,64,0,,
1259759,control_change,,,,,171,0,1,,,,0,64,127,,
1260032,note_on,,,,,0,0,1,,,,0,,,57,15
1260032,note_on,,,,,0,0,1,,,,0,,,51,8
1260032,note_on,,,,,0,0,1,,,,0,,,75,38
1260032,note_on,,,,,0,0,1,,,,0,,,63,22
1260032,note_off,,,,,0,0,1,,,,0,,,78,0
1260032,note_off,,,,,273,0,1,,,,0,,,66,0
1260032,set_tempo,,,,,512,1,0,,1000000,,,,,,
1260032,note_off,,,,,0,0,1,,,,0,,,54,0
1260100,control_change,,,,,68,0,1,,,,0,64,0,,
1260305,control_change,,,,,205,0,1,,,,0,64,127,,
1260544,note_off,,,,,0,0,1,,,,0,,,57,0
1260544,note_on,,,,,0,0,1,,,,0,,,50,11
1260544,note_on,,,,,0,0,1,,,,0,,,58,18
1260544,note_on,,,,,0,0,1,,,,0,,,74,36
1260544,note_on,,,,,0,0,1,,,,0,,,62,20
1260544,note_off,,,,,0,0,1,,,,0,,,51,0
1260544,note_on,,,,,0,0,1,,,,0,,,46,11
1260544,note_off,,,,,0,0,1,,,,0,,,47,0
1260544,note_off,,,,,0,0,1,,,,0,,,75,0
1260544,note_off,,,,,0,0,1,,,,0,,,63,0
1260544,control_change,,,,,0,0,1,,,,0,64,127,,
1260544,control_change,,,,,239,0,1,,,,0,64,0,,
1260544,note_off,,,,,0,0,1,,,,0,,,51,0
1260544,set_tempo,,,,,512,1,0,,1090909,,,,,,
1260772,control_change,,,,,228,0,1,,,,0,64,0,,
1261075,control_change,,,,,303,0,1,,,,0,64,127,,
1262080,note_off,,,,,1005,0,1,,,,0,,,62,0
1262080,note_off,,,,,0,0,1,,,,0,,,74,0
1262080,note_off,,,,,0,0,1,,,,0,,,50,0
1262080,note_on,,,,,0,0,1,,,,0,,,65,11
1262080,note_on,,,,,0,0,1,,,,0,,,77,23
1262080,note_on,,,,,0,0,1,,,,0,,,53,9
1262137,control_change,,,,,57,0,1,,,,0,64,0,,
1262402,control_change,,,,,265,0,1,,,,0,64,127,,
1263104,note_off,,,,,702,0,1,,,,0,,,65,0
1263104,set_tempo,,,,,2560,1,0,,1000000,,,,,,
1263104,note_on,,,,,0,0,1,,,,0,,,70,49
1263104,note_on,,,,,0,0,1,,,,0,,,67,33
1263104,note_off,,,,,0,0,1,,,,0,,,58,0
1263104,note_off,,,,,0,0,1,,,,0,,,46,0
1263104,note_off,,,,,0,0,1,,,,0,,,77,0
1263104,note_off,,,,,0,0,1,,,,0,,,53,0
1263123,control_change,,,,,19,0,1,,,,0,64,0,,
1263426,control_change,,,,,303,0,1,,,,0,64,127,,
1263616,control_change,,,,,0,0,1,,,,0,64,0,,
1263616,note_off,,,,,0,0,1,,,,0,,,67,0
1263616,note_off,,,,,0,0,1,,,,0,,,70,0
1263616,note_on,,,,,0,0,1,,,,0,,,67,39
1263616,note_on,,,,,0,0,1,,,,0,,,70,57
1263616,note_on,,,,,0,0,1,,,,0,,,39,21
1263616,control_change,,,,,190,0,1,,,,0,64,0,,
1263616,note_on,,,,,0,0,1,,,,0,,,51,33
1263647,control_change,,,,,31,0,1,,,,0,64,127,,
1263831,control_change,,,,,184,0,1,,,,0,64,0,,
1264015,control_change,,,,,184,0,1,,,,0,64,127,,
1264128,set_tempo,,,,,1024,1,0,,600000,,,,,,
1264128,note_on,,,,,113,0,1,,,,0,,,55,28
1264640,note_off,,,,,512,0,1,,,,0,,,39,0
1264640,note_off,,,,,0,0,1,,,,0,,,51,0
1264640,note_off,,,,,0,0,1,,,,0,,,55,0
1264640,note_on,,,,,0,0,1,,,,0,,,58,28
1265152,note_off,,,,,512,0,1,,,,0,,,58,0
1265152,note_on,,,,,0,0,1,,,,0,,,63,28
1265664,note_on,,,,,0,0,1,,,,0,,,75,46
1265664,note_on,,,,,0,0,1,,,,0,,,58,28
1265664,note_on,,,,,0,0,1,,,,0,,,79,64
1265664,note_off,,,,,0,0,1,,,,0,,,70,0
1265664,note_off,,,,,0,0,1,,,,0,,,63,0
1265664,set_tempo,,,,,1536,1,0,,750000,,,,,,
1265664,note_off,,,,,512,0,1,,,,0,,,67,0
1266166,control_change,,,,,502,0,1,,,,0,64,0,,
1266176,note_on,,,,,0,0,1,,,,0,,,55,28
1266176,set_tempo,,,,,512,1,0,,800000,,,,,,
1266176,note_off,,,,,10,0,1,,,,0,,,75,0
1266176,note_off,,,,,0,0,1,,,,0,,,79,0
1266176,note_off,,,,,0,0,1,,,,0,,,58,0
1266176,note_on,,,,,0,0,1,,,,0,,,74,41
1266176,note_on,,,,,0,0,1,,,,0,,,77,59
1266350,control_change,,,,,174,0,1,,,,0,64,127,,
1266688,control_change,,,,,338,0,1,,,,0,64,0,,
1266688,note_off,,,,,0,0,1,,,,0,,,77,0
1266688,control_change,,,,,0,0,1,,,,0,64,0,,
1266688,note_off,,,,,0,0,1,,,,0,,,74,0
1266688,note_on,,,,,0,0,1,,,,0,,,71,42
1266688,note_off,,,,,0,0,1,,,,0,,,55,0
1266688,set_tempo,,,,,512,1,0,,750000,,,,,,
1266688,note_on,,,,,0,0,1,,,,0,,,74,60
1266688,note_on,,,,,0,0,1,,,,0,,,32,21
1266688,note_on,,,,,0,0,1,,,,0,,,44,33
1266744,control_change,,,,,56,0,1,,,,0,64,127,,
1266913,control_change,,,,,169,0,1,,,,0,64,0,,
1267083,control_change,,,,,170,0,1,,,,0,64,127,,
1267200,note_on,,,,,117,0,1,,,,0,,,51,28
1267200,set_tempo,,,,,512,1,0,,600000,,,,,,
1267712,note_off,,,,,512,0,1,,,,0,,,32,0
1267712,note_off,,,,,0,0,1,,,,0,,,51,0
1267712,note_on,,,,,0,0,1,,,,0,,,56,28
1268210,control_change,,,,,498,0,1,,,,0,64,0,,
1268224,note_on,,,,,0,0,1,,,,0,,,60,28
1268224,note_on,,,,,0,0,1,,,,0,,,75,60
1268224,note_off,,,,,14,0,1,,,,0,,,71,0
1268224,note_off,,,,,0,0,1,,,,0,,,56,0
1268224,note_off,,,,,0,0,1,,,,0,,,74,0
1268224,note_on,,,,,0,0,1,,,,0,,,72,43
1268224,set_tempo,,,,,1024,1,0,,750000,,,,,,
1268435,control_change,,,,,211,0,1,,,,0,64,127,,
1268736,note_off,,,,,301,0,1,,,,0,,,72,0
1268736,note_off,,,,,0,0,1,,,,0,,,75,0
1268736,note_on,,,,,0,0,1,,,,0,,,70,41
1268736,note_on,,,,,0,0,1,,,,0,,,74,57
1268736,note_on,,,,,0,0,1,,,,0,,,56,28
1268736,note_off,,,,,0,0,1,,,,0,,,60,0
1268736,set_tempo,,,,,512,1,0,,600000,,,,,,
1268830,control_change,,,,,94,0,1,,,,0,64,0,,
1269027,control_change,,,,,197,0,1,,,,0,64,127,,
1269248,note_on,,,,,0,0,1,,,,0,,,72,54
1269248,set_tempo,,,,,512,1,0,,705882,,,,,,
1269248,note_off,,,,,221,0,1,,,,0,,,70,0
1269248,note_off,,,,,0,0,1,,,,0,,,74,0
1269248,note_off,,,,,0,0,1,,,,0,,,56,0
1269248,note_on,,,,,0,0,1,,,,0,,,68,39
1269248,note_on,,,,,0,0,1,,,,0,,,51,28
1269309,control_change,,,,,61,0,1,,,,0,64,0,,
1269506,control_change,,,,,197,0,1,,,,0,64,127,,
1269760,control_change,,,,,254,0,1,,,,0,64,0,,
1269760,control_change,,,,,0,0,1,,,,0,64,0,,
1269760,control_change,,,,,0,0,1,,,,0,64,0,,
1269760,note_off,,,,,0,0,1,,,,0,,,68,0
1269760,note_off,,,,,0,0,1,,,,0,,,72,0
1269760,note_off,,,,,0,0,1,,,,0,,,44,0
1269760,note_off,,,,,0,0,1,,,,0,,,51,0
1269760,note_on,,,,,0,0,1,,,,0,,,62,33
1269760,note_on,,,,,0,0,1,,,,0,,,67,33
1269760,note_on,,,,,0,0,1,,,,0,,,70,51
1269760,note_on,,,,,0,0,1,,,,0,,,34,33
1269760,set_tempo,,,,,512,1,0,,750000,,,,,,
1269816,control_change,,,,,56,0,1,,,,0,64,127,,
1269985,control_change,,,,,169,0,1,,,,0,64,0,,
1270155,control_change,,,,,170,0,1,,,,0,64,127,,
1270272,note_on,,,,,117,0,1,,,,0,,,46,28
1270272,set_tempo,,,,,512,1,0,,600000,,,,,,
1270784,note_off,,,,,512,0,1,,,,0,,,34,0
1270784,note_on,,,,,0,0,1,,,,0,,,50,28
1271282,control_change,,,,,498,0,1,,,,0,64,0,,
1271296,set_tempo,,,,,1024,1,0,,705882,,,,,,
1271296,note_on,,,,,0,0,1,,,,0,,,58,28
1271296,note_on,,,,,0,0,1,,,,0,,,72,53
1271296,note_off,,,,,14,0,1,,,,0,,,67,0
1271296,note_off,,,,,0,0,1,,,,0,,,50,0
1271296,note_on,,,,,0,0,1,,,,0,,,68,35
1271296,note_off,,,,,0,0,1,,,,0,,,70,0
1271507,control_change,,,,,211,0,1,,,,0,64,127,,
1271808,note_on,,,,,0,0,1,,,,0,,,50,28
1271808,note_on,,,,,0,0,1,,,,0,,,70,50
1271808,note_off,,,,,0,0,1,,,,0,,,58,0
1271808,note_off,,,,,0,0,1,,,,0,,,72,0
1271808,note_off,,,,,301,0,1,,,,0,,,68,0
1271808,note_on,,,,,0,0,1,,,,0,,,67,34
1271808,set_tempo,,,,,512,1,0,,625000,,,,,,
1271902,control_change,,,,,94,0,1,,,,0,64,0,,
1272099,control_change,,,,,197,0,1,,,,0,64,127,,
1272320,note_on,,,,,0,0,1,,,,0,,,65,32
1272320,note_off,,,,,221,0,1,,,,0,,,67,0
1272320,note_off,,,,,0,0,1,,,,0,,,70,0
1272320,note_off,,,,,0,0,1,,,,0,,,46,0
1272320,note_off,,,,,0,0,1,,,,0,,,50,0
1272320,note_on,,,,,0,0,1,,,,0,,,68,47
1272320,note_on,,,,,0,0,1,,,,0,,,46,28
1272320,set_tempo,,,,,512,1,0,,750000,,,,,,
1272381,control_change,,,,,61,0,1,,,,0,64,0,,
1272578,control_change,,,,,197,0,1,,,,0,64,127,,
1272832,note_on,,,,,0,0,1,,,,0,,,39,33
1272832,note_on,,,,,0,0,1,,,,0,,,67,46
1272832,note_on,,,,,0,0,1,,,,0,,,63,31
1272832,note_off,,,,,0,0,1,,,,0,,,46,0
1272832,note_off,,,,,0,0,1,,,,0,,,68,0
1272832,set_tempo,,,,,512,1,0,,800000,,,,,,
1272832,note_off,,,,,0,0,1,,,,0,,,65,0
1272832,note_off,,,,,0,0,1,,,,0,,,62,0
1272832,control_change,,,,,0,0,1,,,,0,64,0,,
1272832,control_change,,,,,0,0,1,,,,0,64,0,,
1272832,control_change,,,,,254,0,1,,,,0,64,0,,
1272888,control_change,,,,,56,0,1,,,,0,64,127,,
1273057,control_change,,,,,169,0,1,,,,0,64,0,,
1273227,control_change,,,,,170,0,1,,,,0,64,127,,
1273344,set_tempo,,,,,512,1,0,,600000,,,,,,
1273344,note_on,,,,,117,0,1,,,,0,,,51,28
1273856,note_off,,,,,512,0,1,,,,0,,,39,0
1273856,note_on,,,,,0,0,1,,,,0,,,55,28
1274354,control_change,,,,,498,0,1,,,,0,64,0,,
1274368,note_off,,,,,14,0,1,,,,0,,,63,0
1274368,note_on,,,,,0,0,1,,,,0,,,70,49
1274368,note_off,,,,,0,0,1,,,,0,,,67,0
1274368,set_tempo,,,,,1024,1,0,,800000,,,,,,
1274368,note_off,,,,,0,0,1,,,,0,,,55,0
1274368,note_on,,,,,0,0,1,,,,0,,,58,28
1274368,note_on,,,,,0,0,1,,,,0,,,67,31
1274579,control_change,,,,,211,0,1,,,,0,64,127,,
1274880,set_tempo,,,,,512,1,0,,625000,,,,,,
1274880,note_off,,,,,301,0,1,,,,0,,,67,0
1274880,note_off,,,,,0,0,1,,,,0,,,70,0
1274880,note_off,,,,,0,0,1,,,,0,,,58,0
1274880,note_on,,,,,0,0,1,,,,0,,,63,35
1274880,note_on,,,,,0,0,1,,,,0,,,67,53
1274880,note_on,,,,,0,0,1,,,,0,,,55,33
1274974,control_change,,,,,94,0,1,,,,0,64,0,,
1275171,control_change,,,,,197,0,1,,,,0,64,127,,
1275392,note_off,,,,,0,0,1,,,,0,,,67,0
1275392,note_off,,,,,0,0,1,,,,0,,,55,0
1275392,note_on,,,,,0,0,1,,,,0,,,65,38
1275392,note_on,,,,,0,0,1,,,,0,,,68,56
1275392,note_on,,,,,0,0,1,,,,0,,,51,37
1275392,set_tempo,,,,,512,1,0,,750000,,,,,,
1275392,note_off,,,,,221,0,1,,,,0,,,63,0
1275392,note_off,,,,,0,0,1,,,,0,,,51,0
1275453,control_change,,,,,61,0,1,,,,0,64,0,,
1275650,control_change,,,,,197,0,1,,,,0,64,127,,
1275904,note_off,,,,,0,0,1,,,,0,,,68,0
1275904,control_change,,,,,254,0,1,,,,0,64,0,,
1275904,control_change,,,,,0,0,1,,,,0,64,0,,
1275904,control_change,,,,,0,0,1,,,,0,64,0,,
1275904,note_off,,,,,0,0,1,,,,0,,,65,0
1275904,note_off,,,,,0,0,1,,,,0,,,51,0
1275904,control_change,,,,,0,0,1,,,,0,64,0,,
1275904,note_on,,,,,0,0,1,,,,0,,,70,62
1275904,note_on,,,,,0,0,1,,,,0,,,67,44
1275904,note_on,,,,,0,0,1,,,,0,,,39,40
1275935,control_change,,,,,31,0,1,,,,0,64,127,,
1276119,control_change,,,,,184,0,1,,,,0,64,0,,
1276303,control_change,,,,,184,0,1,,,,0,64,127,,
1276416,note_on,,,,,113,0,1,,,,0,,,55,42
1276416,set_tempo,,,,,1024,1,0,,600000,,,,,,
1276928,note_on,,,,,512,0,1,,,,0,,,58,42
1277440,note_off,,,,,512,0,1,,,,0,,,58,0
1277440,note_on,,,,,0,0,1,,,,0,,,63,42
1277952,note_off,,,,,0,0,1,,,,0,,,70,0
1277952,note_on,,,,,0,0,1,,,,0,,,58,42
1277952,note_on,,,,,0,0,1,,,,0,,,79,69
1277952,set_tempo,,,,,1536,1,0,,750000,,,,,,
1277952,note_off,,,,,0,0,1,,,,0,,,63,0
1277952,note_off,,,,,512,0,1,,,,0,,,67,0
1277952,note_on,,,,,0,0,1,,,,0,,,75,51
1278454,control_change,,,,,502,0,1,,,,0,64,0,,
1278464,note_off,,,,,0,0,1,,,,0,,,79,0
1278464,note_off,,,,,10,0,1,,,,0,,,75,0
1278464,set_tempo,,,,,512,1,0,,800000,,,,,,
1278464,note_off,,,,,0,0,1,,,,0,,,55,0
1278464,note_on,,,,,0,0,1,,,,0,,,77,64
1278464,note_on,,,,,0,0,1,,,,0,,,55,42
1278464,note_off,,,,,0,0,1,,,,0,,,58,0
1278464,note_on,,,,,0,0,1,,,,0,,,74,46
1278638,control_change,,,,,174,0,1,,,,0,64,127,,
1278976,control_change,,,,,338,0,1,,,,0,64,0,,
1278976,control_change,,,,,0,0,1,,,,0,64,0,,
1278976,control_change,,,,,0,0,1,,,,0,64,0,,
1278976,control_change,,,,,0,0,1,,,,0,64,0,,
1278976,note_off,,,,,0,0,1,,,,0,,,77,0
1278976,note_off,,,,,0,0,1,,,,0,,,39,0
1278976,note_off,,,,,0,0,1,,,,0,,,55,0
1278976,note_on,,,,,0,0,1,,,,0,,,71,51
1278976,note_on,,,,,0,0,1,,,,0,,,74,69
1278976,note_on,,,,,0,0,1,,,,0,,,32,30
1278976,note_on,,,,,0,0,1,,,,0,,,44,42
1278976,note_off,,,,,0,0,1,,,,0,,,74,0
1278976,set_tempo,,,,,512,1,0,,750000,,,,,,
1279032,control_change,,,,,56,0,1,,,,0,64,127,,
1279201,control_change,,,,,169,0,1,,,,0,64,0,,
1279371,control_change,,,,,170,0,1,,,,0,64,127,,
1279488,set_tempo,,,,,512,1,0,,600000,,,,,,
1279488,note_on,,,,,117,0,1,,,,0,,,51,42
1280000,note_off,,,,,512,0,1,,,,0,,,32,0
1280000,note_off,,,,,0,0,1,,,,0,,,51,0
1280000,note_on,,,,,0,0,1,,,,0,,,56,42
1280498,control_change,,,,,498,0,1,,,,0,64,0,,
1280512,note_off,,,,,0,0,1,,,,0,,,74,0
1280512,note_off,,,,,14,0,1,,,,0,,,71,0
1280512,note_on,,,,,0,0,1,,,,0,,,72,49
1280512,note_on,,,,,0,0,1,,,,0,,,75,66
1280512,note_on,,,,,0,0,1,,,,0,,,60,42
1280512,set_tempo,,,,,1024,1,0,,750000,,,,,,
1280723,control_change,,,,,211,0,1,,,,0,64,127,,
1281024,note_off,,,,,301,0,1,,,,0,,,72,0
1281024,note_off,,,,,0,0,1,,,,0,,,75,0
1281024,note_off,,,,,0,0,1,,,,0,,,56,0
1281024,note_on,,,,,0,0,1,,,,0,,,70,47
1281024,note_on,,,,,0,0,1,,,,0,,,74,63
1281024,note_on,,,,,0,0,1,,,,0,,,56,42
1281024,set_tempo,,,,,512,1,0,,600000,,,,,,
1281118,control_change,,,,,94,0,1,,,,0,64,0,,
1281315,control_change,,,,,197,0,1,,,,0,64,127,,
1281536,note_off,,,,,0,0,1,,,,0,,,74,0
1281536,note_off,,,,,0,0,1,,,,0,,,44,0
1281536,note_off,,,,,0,0,1,,,,0,,,60,0
1281536,note_on,,,,,0,0,1,,,,0,,,68,45
1281536,note_on,,,,,0,0,1,,,,0,,,72,60
1281536,note_on,,,,,0,0,1,,,,0,,,51,42
1281536,note_off,,,,,221,0,1,,,,0,,,70,0
1281536,set_tempo,,,,,512,1,0,,705882,,,,,,
1281597,control_change,,,,,61,0,1,,,,0,64,0,,
1281794,control_change,,,,,197,0,1,,,,0,64,127,,
1282048,control_change,,,,,254,0,1,,,,0,64,0,,
1282048,control_change,,,,,0,0,1,,,,0,64,0,,
1282048,control_change,,,,,0,0,1,,,,0,64,0,,
1282048,control_change,,,,,0,0,1,,,,0,64,0,,
1282048,control_change,,,,,0,0,1,,,,0,64,0,,
1282048,note_off,,,,,0,0,1,,,,0,,,68,0
1282048,note_off,,,,,0,0,1,,,,0,,,72,0
1282048,note_off,,,,,0,0,1,,,,0,,,51,0
1282048,note_off,,,,,0,0,1,,,,0,,,56,0
1282048,note_on,,,,,0,0,1,,,,0,,,62,36
1282048,set_tempo,,,,,512,1,0,,750000,,,,,,
1282048,note_on,,,,,0,0,1,,,,0,,,34,42
1282048,note_on,,,,,0,0,1,,,,0,,,70,58
1282048,note_on,,,,,0,0,1,,,,0,,,67,36
1282104,control_change,,,,,56,0,1,,,,0,64,127,,
1282273,control_change,,,,,169,0,1,,,,0,64,0,,
1282443,control_change,,,,,170,0,1,,,,0,64,127,,
1282560,note_on,,,,,117,0,1,,,,0,,,46,37
1282560,set_tempo,,,,,512,1,0,,600000,,,,,,
1283072,note_off,,,,,512,0,1,,,,0,,,34,0
1283072,note_on,,,,,0,0,1,,,,0,,,50,37
1283570,control_change,,,,,498,0,1,,,,0,64,0,,
1283584,note_off,,,,,14,0,1,,,,0,,,67,0
1283584,note_off,,,,,0,0,1,,,,0,,,50,0
1283584,note_on,,,,,0,0,1,,,,0,,,72,60
1283584,set_tempo,,,,,1024,1,0,,705882,,,,,,
1283584,note_on,,,,,0,0,1,,,,0,,,68,42
1283584,note_off,,,,,0,0,1,,,,0,,,70,0
1283584,note_on,,,,,0,0,1,,,,0,,,58,37
1283795,control_change,,,,,211,0,1,,,,0,64,127,,
1284096,note_on,,,,,0,0,1,,,,0,,,50,37
1284096,note_off,,,,,301,0,1,,,,0,,,68,0
1284096,note_off,,,,,0,0,1,,,,0,,,72,0
1284096,note_off,,,,,0,0,1,,,,0,,,58,0
1284096,note_on,,,,,0,0,1,,,,0,,,67,37
1284096,note_on,,,,,0,0,1,,,,0,,,70,53
1284096,set_tempo,,,,,512,1,0,,625000,,,,,,
1284190,control_change,,,,,94,0,1,,,,0,64,0,,
1284387,control_change,,,,,197,0,1,,,,0,64,127,,
1284608,note_off,,,,,0,0,1,,,,0,,,70,0
1284608,note_off,,,,,0,0,1,,,,0,,,50,0
1284608,note_on,,,,,0,0,1,,,,0,,,68,39
1284608,note_on,,,,,0,0,1,,,,0,,,74,54
1284608,note_on,,,,,0,0,1,,,,0,,,53,37
1284608,note_off,,,,,221,0,1,,,,0,,,67,0
1284608,set_tempo,,,,,512,1,0,,800000,,,,,,
1284669,control_change,,,,,61,0,1,,,,0,64,0,,
1284866,control_change,,,,,197,0,1,,,,0,64,127,,
1285120,control_change,,,,,0,0,1,,,,0,64,0,,
1285120,control_change,,,,,0,0,1,,,,0,64,127,,
1285120,control_change,,,,,254,0,1,,,,0,64,0,,
1285120,control_change,,,,,0,0,1,,,,0,64,0,,
1285120,note_off,,,,,0,0,1,,,,0,,,68,0
1285120,note_off,,,,,0,0,1,,,,0,,,74,0
1285120,note_off,,,,,0,0,1,,,,0,,,62,0
1285120,note_off,,,,,0,0,1,,,,0,,,46,0
1285120,note_off,,,,,0,0,1,,,,0,,,53,0
1285120,note_on,,,,,0,0,1,,,,0,,,63,31
1285120,note_on,,,,,0,0,1,,,,0,,,67,31
1285120,note_on,,,,,0,0,1,,,,0,,,75,52
1285120,note_on,,,,,0,0,1,,,,0,,,39,26
1285318,control_change,,,,,198,0,1,,,,0,64,0,,
1285549,control_change,,,,,231,0,1,,,,0,64,127,,
1285632,note_on,,,,,83,0,1,,,,0,,,46,20
1285632,set_tempo,,,,,1024,1,0,,600000,,,,,,
1286144,note_off,,,,,0,0,1,,,,0,,,46,0
1286144,note_off,,,,,512,0,1,,,,0,,,39,0
1286144,note_on,,,,,0,0,1,,,,0,,,51,20
1286656,note_off,,,,,512,0,1,,,,0,,,51,0
1286656,note_on,,,,,0,0,1,,,,0,,,55,20
1287168,note_off,,,,,512,0,1,,,,0,,,55,0
1287168,note_on,,,,,0,0,1,,,,0,,,51,20
1287680,note_off,,,,,512,0,1,,,,0,,,63,0
1287680,note_off,,,,,0,0,1,,,,0,,,75,0
1287680,note_off,,,,,0,0,1,,,,0,,,51,0
1287680,note_on,,,,,0,0,1,,,,0,,,67,27
1287680,note_on,,,,,0,0,1,,,,0,,,70,43
1287680,note_on,,,,,0,0,1,,,,0,,,46,20
1287680,note_off,,,,,0,0,1,,,,0,,,67,0
1287680,set_tempo,,,,,2048,1,0,,800000,,,,,,
1288192,note_on,,,,,0,0,1,,,,0,,,34,26
1288192,note_on,,,,,0,0,1,,,,0,,,70,43
1288192,note_on,,,,,0,0,1,,,,0,,,68,27
1288192,note_off,,,,,0,0,1,,,,0,,,46,0
1288192,note_off,,,,,0,0,1,,,,0,,,70,0
1288192,control_change,,,,,0,0,1,,,,0,64,127,,
1288192,control_change,,,,,512,0,1,,,,0,64,0,,
1288192,note_off,,,,,0,0,1,,,,0,,,67,0
1288192,set_tempo,,,,,512,1,0,,750000,,,,,,
1288440,control_change,,,,,248,0,1,,,,0,64,0,,
1288657,control_change,,,,,217,0,1,,,,0,64,127,,
1288704,note_on,,,,,47,0,1,,,,0,,,46,20
1288704,set_tempo,,,,,512,1,0,,600000,,,,,,
1289216,note_on,,,,,0,0,1,,,,0,,,53,20
1289216,note_off,,,,,512,0,1,,,,0,,,34,0
1289216,note_off,,,,,0,0,1,,,,0,,,46,0
1289728,set_tempo,,,,,1024,1,0,,800000,,,,,,
1289728,note_off,,,,,512,0,1,,,,0,,,70,0
1289728,note_on,,,,,0,0,1,,,,0,,,72,46
1289728,note_off,,,,,0,0,1,,,,0,,,53,0
1289728,note_on,,,,,0,0,1,,,,0,,,56,20
1290240,note_off,,,,,512,0,1,,,,0,,,72,0
1290240,note_on,,,,,0,0,1,,,,0,,,70,43
1290240,set_tempo,,,,,512,1,0,,666666,,,,,,
1290240,note_on,,,,,0,0,1,,,,0,,,53,20
1290240,note_off,,,,,0,0,1,,,,0,,,56,0
1290752,note_on,,,,,0,0,1,,,,0,,,74,47
1290752,note_off,,,,,512,0,1,,,,0,,,70,0
1290752,note_on,,,,,0,0,1,,,,0,,,46,20
1290752,set_tempo,,,,,512,1,0,,750000,,,,,,
1290752,note_off,,,,,0,0,1,,,,0,,,53,0
1291264,control_change,,,,,0,0,1,,,,0,64,127,,
1291264,control_change,,,,,512,0,1,,,,0,64,0,,
1291264,note_on,,,,,0,0,1,,,,0,,,77,49
1291264,note_on,,,,,0,0,1,,,,0,,,67,27
1291264,note_off,,,,,0,0,1,,,,0,,,46,0
1291264,note_on,,,,,0,0,1,,,,0,,,39,26
1291264,note_off,,,,,0,0,1,,,,0,,,68,0
1291264,note_off,,,,,0,0,1,,,,0,,,74,0
1291443,control_change,,,,,179,0,1,,,,0,64,0,,
1291652,control_change,,,,,209,0,1,,,,0,64,127,,
1291776,set_tempo,,,,,1024,1,0,,600000,,,,,,
1291776,note_on,,,,,124,0,1,,,,0,,,46,20
1292288,note_off,,,,,512,0,1,,,,0,,,46,0
1292288,note_on,,,,,0,0,1,,,,0,,,51,20
1292800,set_tempo,,,,,1024,1,0,,705882,,,,,,
1292800,note_off,,,,,0,0,1,,,,0,,,51,0
1292800,note_off,,,,,512,0,1,,,,0,,,77,0
1292800,note_on,,,,,0,0,1,,,,0,,,75,37
1292800,note_on,,,,,0,0,1,,,,0,,,55,20
1292815,control_change,,,,,15,0,1,,,,0,64,0,,
1293083,control_change,,,,,268,0,1,,,,0,64,127,,
1293312,set_tempo,,,,,512,1,0,,625000,,,,,,
1293312,note_on,,,,,229,0,1,,,,0,,,51,20
1293824,note_on,,,,,0,0,1,,,,0,,,46,20
1293824,note_on,,,,,0,0,1,,,,0,,,67,33
1293824,note_off,,,,,512,0,1,,,,0,,,67,0
1293824,note_off,,,,,0,0,1,,,,0,,,55,0
1293824,note_off,,,,,0,0,1,,,,0,,,51,0
1293824,set_tempo,,,,,512,1,0,,1000000,,,,,,
1293824,note_off,,,,,0,0,1,,,,0,,,39,0
1293824,note_off,,,,,0,0,1,,,,0,,,75,0
1293824,note_on,,,,,0,0,1,,,,0,,,63,17
1294336,note_off,,,,,0,0,1,,,,0,,,63,0
1294336,control_change,,,,,0,0,1,,,,0,64,127,,
1294336,control_change,,,,,512,0,1,,,,0,64,0,,
1294336,note_off,,,,,0,0,1,,,,0,,,46,0
1294336,note_off,,,,,0,0,1,,,,0,,,67,0
1294336,note_on,,,,,0,0,1,,,,0,,,70,38
1294336,note_on,,,,,0,0,1,,,,0,,,34,23
1294336,note_on,,,,,0,0,1,,,,0,,,60,22
1294495,control_change,,,,,159,0,1,,,,0,64,0,,
1294707,control_change,,,,,212,0,1,,,,0,64,127,,
1294848,set_tempo,,,,,1024,1,0,,705882,,,,,,
1294848,note_on,,,,,141,0,1,,,,0,,,46,18
1295360,note_on,,,,,0,0,1,,,,0,,,50,17
1295360,note_off,,,,,512,0,1,,,,0,,,34,0
1295872,control_change,,,,,512,0,1,,,,0,64,0,,
1295872,note_off,,,,,0,0,1,,,,0,,,60,0
1295872,note_off,,,,,0,0,1,,,,0,,,50,0
1295872,note_on,,,,,0,0,1,,,,0,,,62,13
1295872,note_on,,,,,0,0,1,,,,0,,,68,28
1295872,note_on,,,,,0,0,1,,,,0,,,53,17
1295872,note_off,,,,,0,0,1,,,,0,,,70,0
1295872,set_tempo,,,,,1024,1,0,,857142,,,,,,
1296084,control_change,,,,,212,0,1,,,,0,64,127,,
1296384,note_off,,,,,0,0,1,,,,0,,,53,0
1296384,note_on,,,,,0,0,1,,,,0,,,55,16
1296384,set_tempo,,,,,512,1,0,,923076,,,,,,
1296384,note_on,,,,,0,0,1,,,,0,,,67,28
1296384,note_on,,,,,0,0,1,,,,0,,,63,14
1296384,note_off,,,,,0,0,1,,,,0,,,68,0
1296384,note_off,,,,,300,0,1,,,,0,,,62,0
1296508,control_change,,,,,124,0,1,,,,0,64,0,,
1296693,control_change,,,,,185,0,1,,,,0,64,127,,
1296896,note_off,,,,,203,0,1,,,,0,,,63,0
1296896,note_on,,,,,0,0,1,,,,0,,,56,16
1296896,note_on,,,,,0,0,1,,,,0,,,65,25
1296896,set_tempo,,,,,512,1,0,,1000000,,,,,,
1296896,note_on,,,,,0,0,1,,,,0,,,62,12
1296896,note_off,,,,,0,0,1,,,,0,,,55,0
1296896,note_off,,,,,0,0,1,,,,0,,,67,0
1297011,control_change,,,,,115,0,1,,,,0,64,0,,
1297143,control_change,,,,,132,0,1,,,,0,64,127,,
1297408,control_change,,,,,265,0,1,,,,0,64,0,,
1297408,note_off,,,,,0,0,1,,,,0,,,46,0
1297408,note_off,,,,,0,0,1,,,,0,,,65,0
1297408,control_change,,,,,0,0,1,,,,0,64,0,,
1297408,note_on,,,,,0,0,1,,,,0,,,63,23
1297408,note_on,,,,,0,0,1,,,,0,,,55,11
1297408,note_off,,,,,0,0,1,,,,0,,,56,0
1297408,note_off,,,,,0,0,1,,,,0,,,62,0
1297442,control_change,,,,,34,0,1,,,,0,64,127,,
1297518,control_change,,,,,76,0,1,,,,0,64,0,,
1297920,note_on,,,,,402,0,1,,,,0,,,51,18
1297920,set_tempo,,,,,1024,1,0,,800000,,,,,,
1298432,note_on,,,,,512,0,1,,,,0,,,46,16
1298472,note_off,,,,,40,0,1,,,,0,,,51,0
1298944,note_on,,,,,472,0,1,,,,0,,,43,14
1298984,note_off,,,,,40,0,1,,,,0,,,46,0
1299456,set_tempo,,,,,1536,1,0,,923076,,,,,,
1299456,note_on,,,,,472,0,1,,,,0,,,44,13
1299496,note_off,,,,,40,0,1,,,,0,,,43,0
1299968,set_tempo,,,,,512,1,0,,1000000,,,,,,
1299968,note_on,,,,,472,0,1,,,,0,,,41,11
1300008,note_off,,,,,40,0,1,,,,0,,,44,0
1300480,note_off,,,,,0,0,1,,,,0,,,55,0
1300480,note_off,,,,,0,0,1,,,,0,,,63,0
1300480,control_change,,,,,0,0,1,,,,0,64,0,,
1300480,note_on,,,,,0,0,1,,,,0,,,55,16
1300480,note_on,,,,,0,0,1,,,,0,,,39,9
1300480,note_on,,,,,0,0,1,,,,0,,,63,24
1300480,set_tempo,,,,,512,1,0,,857142,,,,,,
1300480,control_change,,,,,472,0,1,,,,0,64,0,,
1300520,note_off,,,,,40,0,1,,,,0,,,41,0
1300973,control_change,,,,,453,0,1,,,,0,64,127,,
1302016,note_off,,,,,1043,0,1,,,,0,,,55,0
1302016,note_on,,,,,0,0,1,,,,0,,,51,9
1302016,note_on,,,,,0,0,1,,,,0,,,39,9
1302016,note_on,,,,,0,0,1,,,,0,,,63,24
1302016,note_on,,,,,0,0,1,,,,0,,,55,16
1302016,note_off,,,,,0,0,1,,,,0,,,39,0
1302016,note_off,,,,,0,0,1,,,,0,,,63,0
1303552,note_off,,,,,0,0,1,,,,0,,,51,0
1303552,note_on,,,,,0,0,1,,,,0,,,39,9
1303552,note_on,,,,,0,0,1,,,,0,,,63,23
1303552,note_off,,,,,0,0,1,,,,0,,,39,0
1303552,note_on,,,,,0,0,1,,,,0,,,55,15
1303552,note_on,,,,,0,0,1,,,,0,,,51,9
1303552,note_off,,,,,0,0,1,,,,0,,,63,0
1303552,set_tempo,,,,,3072,1,0,,923076,,,,,,
1303552,control_change,,,,,0,0,1,,,,0,64,127,,
1303552,control_change,,,,,1536,0,1,,,,0,64,127,,
1303552,note_off,,,,,0,0,1,,,,0,,,55,0
1305088,note_on,,,,,0,0,1,,,,0,,,51,10
1305088,note_on,,,,,0,0,1,,,,0,,,39,10
1305088,note_on,,,,,0,0,1,,,,0,,,63,19
1305088,note_on,,,,,0,0,1,,,,0,,,55,11
1305088,note_off,,,,,0,0,1,,,,0,,,39,0
1305088,note_off,,,,,0,0,1,,,,0,,,51,0
1305088,note_off,,,,,1536,0,1,,,,0,,,55,0
1305088,set_tempo,,,,,1536,1,0,,1200000,,,,,,
1305088,note_off,,,,,0,0,1,,,,0,,,63,0
1306624,note_on,,,,,0,0,1,,,,0,,,51,3
1306624,set_tempo,,,,,1536,1,0,,2000000,,,,,,
1306624,note_on,,,,,0,0,1,,,,0,,,63,17
1306624,note_on,,,,,0,0,1,,,,0,,,46,3
1306624,note_off,,,,,1536,0,1,,,,0,,,55,0
1306624,note_off,,,,,0,0,1,,,,0,,,63,0
1306624,note_off,,,,,0,0,1,,,,0,,,39,0
1306624,note_off,,,,,0,0,1,,,,0,,,51,0
1306624,note_on,,,,,0,0,1,,,,0,,,55,9
1306624,note_on,,,,,0,0,1,,,,0,,,39,3
1309696,note_off,,,,,0,0,1,,,,0,,,46,0
1309696,note_off,,,,,0,0,1,,,,0,,,39,0
1309696,note_off,,,,,0,0,1,,,,0,,,51,0
1309696,note_off,,,,,0,0,1,,,,0,,,63,0
1309696,set_tempo,,,,,3072,1,0,,270270,,,,,,
1309696,control_change,,,,,0,0,1,,,,0,64,0,,
1309696,control_change,,,,,3072,0,1,,,,0,64,0,,
1309696,note_off,,,,,0,0,1,,,,0,,,55,0
1312768,control_change,,,,,0,0,1,,,,0,64,0,,
1312768,control_change,,,,,3072,0,1,,,,0,64,0,,
1312771,end_of_track,,,,,3075,1,0,,,,,,,,
1312771,end_of_track,,,,,3,1,1,,,,,,,,
