tick,type,time,meta,track,numerator,denominator,clocks_per_click,notated_32nd_notes_per_beat,key,tempo,port,program,channel,control,value,note,velocity
0,track_name,0,1,0,,,,,,,,,,,,,
0,program_change,0,0,1,,,,,,,,0,0,,,,
0,control_change,0,0,1,,,,,,,,,0,7,127,,
0,control_change,0,0,1,,,,,,,,,0,10,97,,
0,note_on,0,0,1,,,,,,,,,0,,,84,88
0,note_on,0,0,1,,,,,,,,,0,,,88,88
0,note_on,0,0,1,,,,,,,,,0,,,93,88
0,note_on,0,0,4,,,,,,,,,3,,,33,88
0,control_change,0,0,4,,,,,,,,,3,10,30,,
0,track_name,0,1,2,,,,,,,,,,,,,
0,program_change,0,0,4,,,,,,,,0,3,,,,
0,track_name,0,1,4,,,,,,,,,,,,,
0,midi_port,0,1,4,,,,,,,0,,,,,,
0,note_on,0,0,3,,,,,,,,,2,,,57,88
0,note_on,0,0,3,,,,,,,,,2,,,45,88
0,control_change,0,0,3,,,,,,,,,2,10,30,,
0,control_change,0,0,3,,,,,,,,,2,7,127,,
0,program_change,0,0,3,,,,,,,,0,2,,,,
0,track_name,0,1,3,,,,,,,,,,,,,
0,midi_port,0,1,3,,,,,,,0,,,,,,
0,note_on,0,0,2,,,,,,,,,1,,,81,88
0,note_on,0,0,2,,,,,,,,,1,,,76,88
0,note_on,0,0,2,,,,,,,,,1,,,72,88
0,control_change,0,0,2,,,,,,,,,1,10,97,,
0,control_change,0,0,2,,,,,,,,,1,7,127,,
0,program_change,0,0,2,,,,,,,,0,1,,,,
0,track_name,0,1,1,,,,,,,,,,,,,
0,midi_port,0,1,1,,,,,,,0,,,,,,
0,control_change,0,0,4,,,,,,,,,3,7,127,,
0,midi_port,0,1,2,,,,,,,0,,,,,,
0,copyright,0,1,0,,,,,,,,,,,,,
0,text,0,1,0,,,,,,,,,,,,,
0,time_signature,0,1,0,1,4,24,8,,,,,,,,,
0,key_signature,0,1,0,,,,,C,,,,,,,,
0,set_tempo,0,1,0,,,,,,270270,,,,,,,
240,note_on,0,0,3,,,,,,,,,2,,,45,0
240,note_on,240,0,1,,,,,,,,,0,,,93,0
240,note_on,0,0,1,,,,,,,,,0,,,88,0
240,note_on,0,0,1,,,,,,,,,0,,,84,0
240,note_on,0,0,1,,,,,,,,,0,,,93,88
240,note_on,0,0,1,,,,,,,,,0,,,88,88
240,note_on,240,0,4,,,,,,,,,3,,,33,0
240,note_on,0,0,3,,,,,,,,,2,,,57,88
240,note_on,0,0,3,,,,,,,,,2,,,45,88
240,note_on,0,0,1,,,,,,,,,0,,,84,88
240,note_on,0,0,4,,,,,,,,,3,,,33,88
240,note_on,240,0,3,,,,,,,,,2,,,57,0
240,note_on,0,0,2,,,,,,,,,1,,,81,88
240,note_on,0,0,2,,,,,,,,,1,,,76,88
240,note_on,240,0,2,,,,,,,,,1,,,81,0
240,note_on,0,0,2,,,,,,,,,1,,,72,88
240,note_on,0,0,2,,,,,,,,,1,,,72,0
240,note_on,0,0,2,,,,,,,,,1,,,76,0
480,note_on,240,0,1,,,,,,,,,0,,,93,0
480,note_on,0,0,1,,,,,,,,,0,,,88,0
480,note_on,0,0,1,,,,,,,,,0,,,84,0
480,note_on,0,0,1,,,,,,,,,0,,,84,114
480,note_on,0,0,1,,,,,,,,,0,,,88,114
480,note_on,0,0,1,,,,,,,,,0,,,93,114
480,note_on,0,0,3,,,,,,,,,2,,,57,88
480,note_on,0,0,3,,,,,,,,,2,,,45,88
480,note_on,0,0,3,,,,,,,,,2,,,45,0
480,note_on,240,0,3,,,,,,,,,2,,,57,0
480,time_signature,480,1,0,4,4,24,8,,,,,,,,,
480,note_on,0,0,2,,,,,,,,,1,,,76,114
480,note_on,240,0,2,,,,,,,,,1,,,81,0
480,note_on,0,0,2,,,,,,,,,1,,,81,114
480,note_on,0,0,4,,,,,,,,,3,,,33,88
480,note_on,0,0,2,,,,,,,,,1,,,76,0
480,note_on,0,0,2,,,,,,,,,1,,,72,0
480,note_on,0,0,2,,,,,,,,,1,,,72,114
480,note_on,240,0,4,,,,,,,,,3,,,33,0
1920,note_on,1440,0,2,,,,,,,,,1,,,81,0
1920,note_on,0,0,4,,,,,,,,,3,,,33,88
1920,note_on,1440,0,4,,,,,,,,,3,,,33,0
1920,note_on,1440,0,3,,,,,,,,,2,,,57,0
1920,note_on,0,0,1,,,,,,,,,0,,,88,88
1920,note_on,0,0,1,,,,,,,,,0,,,84,88
1920,note_on,0,0,1,,,,,,,,,0,,,81,88
1920,note_on,0,0,1,,,,,,,,,0,,,84,0
1920,note_on,0,0,1,,,,,,,,,0,,,88,0
1920,note_on,1440,0,1,,,,,,,,,0,,,93,0
1920,note_on,0,0,3,,,,,,,,,2,,,57,88
1920,note_on,0,0,2,,,,,,,,,1,,,72,0
1920,note_on,0,0,2,,,,,,,,,1,,,69,88
1920,note_on,0,0,2,,,,,,,,,1,,,72,88
1920,note_on,0,0,3,,,,,,,,,2,,,45,0
1920,note_on,0,0,3,,,,,,,,,2,,,45,88
1920,note_on,0,0,2,,,,,,,,,1,,,76,88
1920,note_on,0,0,2,,,,,,,,,1,,,76,0
2160,note_on,0,0,3,,,,,,,,,2,,,57,88
2160,note_on,0,0,3,,,,,,,,,2,,,45,88
2160,note_on,0,0,3,,,,,,,,,2,,,45,0
2160,note_on,0,0,2,,,,,,,,,1,,,72,88
2160,note_on,240,0,4,,,,,,,,,3,,,33,0
2160,note_on,0,0,4,,,,,,,,,3,,,33,88
2160,note_on,0,0,2,,,,,,,,,1,,,76,88
2160,note_on,240,0,3,,,,,,,,,2,,,57,0
2160,note_on,0,0,2,,,,,,,,,1,,,69,88
2160,note_on,0,0,1,,,,,,,,,0,,,88,88
2160,note_on,0,0,1,,,,,,,,,0,,,84,88
2160,note_on,0,0,1,,,,,,,,,0,,,81,88
2160,note_on,0,0,1,,,,,,,,,0,,,81,0
2160,note_on,0,0,1,,,,,,,,,0,,,84,0
2160,note_on,240,0,1,,,,,,,,,0,,,88,0
2160,note_on,0,0,2,,,,,,,,,1,,,69,0
2160,note_on,0,0,2,,,,,,,,,1,,,72,0
2160,note_on,240,0,2,,,,,,,,,1,,,76,0
2400,note_on,240,0,1,,,,,,,,,0,,,88,0
2400,note_on,240,0,3,,,,,,,,,2,,,57,0
2400,note_on,0,0,3,,,,,,,,,2,,,45,0
2400,note_on,0,0,3,,,,,,,,,2,,,45,88
2400,note_on,0,0,3,,,,,,,,,2,,,57,88
2400,note_on,0,0,1,,,,,,,,,0,,,81,114
2400,note_on,240,0,4,,,,,,,,,3,,,33,0
2400,note_on,0,0,4,,,,,,,,,3,,,33,88
2400,note_on,0,0,2,,,,,,,,,1,,,76,114
2400,note_on,0,0,2,,,,,,,,,1,,,72,114
2400,note_on,0,0,2,,,,,,,,,1,,,69,114
2400,note_on,0,0,2,,,,,,,,,1,,,69,0
2400,note_on,0,0,2,,,,,,,,,1,,,72,0
2400,note_on,240,0,2,,,,,,,,,1,,,76,0
2400,note_on,0,0,1,,,,,,,,,0,,,84,0
2400,note_on,0,0,1,,,,,,,,,0,,,81,0
2400,note_on,0,0,1,,,,,,,,,0,,,84,114
2400,note_on,0,0,1,,,,,,,,,0,,,88,114
2880,note_on,480,0,3,,,,,,,,,2,,,57,0
2880,note_on,0,0,2,,,,,,,,,1,,,72,88
2880,note_on,0,0,2,,,,,,,,,1,,,69,88
2880,note_on,0,0,2,,,,,,,,,1,,,64,88
2880,note_on,0,0,2,,,,,,,,,1,,,69,0
2880,note_on,0,0,2,,,,,,,,,1,,,72,0
2880,note_on,480,0,2,,,,,,,,,1,,,76,0
2880,note_on,0,0,1,,,,,,,,,0,,,81,88
2880,note_on,0,0,1,,,,,,,,,0,,,76,88
2880,note_on,0,0,1,,,,,,,,,0,,,84,0
2880,note_on,480,0,1,,,,,,,,,0,,,88,0
2880,note_on,0,0,1,,,,,,,,,0,,,81,0
2880,note_on,0,0,3,,,,,,,,,2,,,57,88
2880,note_on,0,0,3,,,,,,,,,2,,,45,88
2880,note_on,0,0,3,,,,,,,,,2,,,45,0
2880,note_on,0,0,4,,,,,,,,,3,,,33,88
2880,note_on,480,0,4,,,,,,,,,3,,,33,0
2880,note_on,0,0,1,,,,,,,,,0,,,84,88
3120,note_on,0,0,1,,,,,,,,,0,,,81,88
3120,note_on,0,0,1,,,,,,,,,0,,,76,0
3120,note_on,0,0,4,,,,,,,,,3,,,33,88
3120,note_on,240,0,4,,,,,,,,,3,,,33,0
3120,note_on,0,0,3,,,,,,,,,2,,,45,0
3120,note_on,0,0,3,,,,,,,,,2,,,45,88
3120,note_on,0,0,3,,,,,,,,,2,,,57,88
3120,note_on,0,0,1,,,,,,,,,0,,,81,0
3120,note_on,240,0,3,,,,,,,,,2,,,57,0
3120,note_on,240,0,1,,,,,,,,,0,,,84,0
3120,note_on,0,0,1,,,,,,,,,0,,,84,88
3120,note_on,0,0,1,,,,,,,,,0,,,76,88
3120,note_on,0,0,2,,,,,,,,,1,,,64,88
3120,note_on,0,0,2,,,,,,,,,1,,,69,88
3120,note_on,0,0,2,,,,,,,,,1,,,72,88
3120,note_on,0,0,2,,,,,,,,,1,,,64,0
3120,note_on,0,0,2,,,,,,,,,1,,,69,0
3120,note_on,240,0,2,,,,,,,,,1,,,72,0
3360,note_on,0,0,2,,,,,,,,,1,,,69,0
3360,note_on,0,0,3,,,,,,,,,2,,,45,0
3360,note_on,240,0,3,,,,,,,,,2,,,57,0
3360,note_on,0,0,1,,,,,,,,,0,,,81,114
3360,note_on,240,0,2,,,,,,,,,1,,,72,0
3360,note_on,0,0,4,,,,,,,,,3,,,33,88
3360,note_on,240,0,4,,,,,,,,,3,,,33,0
3360,note_on,0,0,1,,,,,,,,,0,,,76,114
3360,note_on,0,0,1,,,,,,,,,0,,,76,0
3360,note_on,0,0,1,,,,,,,,,0,,,81,0
3360,note_on,240,0,1,,,,,,,,,0,,,84,0
3360,note_on,0,0,1,,,,,,,,,0,,,84,114
3360,note_on,0,0,3,,,,,,,,,2,,,57,88
3360,note_on,0,0,3,,,,,,,,,2,,,45,88
3360,note_on,0,0,2,,,,,,,,,1,,,64,0
3360,note_on,0,0,2,,,,,,,,,1,,,64,114
3360,note_on,0,0,2,,,,,,,,,1,,,69,114
3360,note_on,0,0,2,,,,,,,,,1,,,72,114
3840,note_on,0,0,3,,,,,,,,,2,,,45,0
3840,note_on,480,0,2,,,,,,,,,1,,,72,0
3840,note_on,0,0,2,,,,,,,,,1,,,64,0
3840,note_on,0,0,2,,,,,,,,,1,,,60,88
3840,note_on,480,0,4,,,,,,,,,3,,,33,0
3840,note_on,0,0,4,,,,,,,,,3,,,33,88
3840,note_on,480,0,3,,,,,,,,,2,,,57,0
3840,note_on,0,0,2,,,,,,,,,1,,,64,88
3840,note_on,0,0,2,,,,,,,,,1,,,69,88
3840,note_on,480,0,1,,,,,,,,,0,,,84,0
3840,note_on,0,0,1,,,,,,,,,0,,,81,0
3840,note_on,0,0,3,,,,,,,,,2,,,57,88
3840,note_on,0,0,1,,,,,,,,,0,,,76,0
3840,note_on,0,0,1,,,,,,,,,0,,,72,88
3840,note_on,0,0,1,,,,,,,,,0,,,76,88
3840,note_on,0,0,1,,,,,,,,,0,,,81,88
3840,note_on,0,0,3,,,,,,,,,2,,,45,88
3840,note_on,0,0,2,,,,,,,,,1,,,69,0
4080,note_on,240,0,1,,,,,,,,,0,,,81,0
4080,note_on,0,0,1,,,,,,,,,0,,,76,0
4080,note_on,0,0,4,,,,,,,,,3,,,33,88
4080,note_on,0,0,1,,,,,,,,,0,,,72,0
4080,note_on,0,0,1,,,,,,,,,0,,,72,88
4080,note_on,0,0,1,,,,,,,,,0,,,76,88
4080,note_on,0,0,1,,,,,,,,,0,,,81,88
4080,note_on,0,0,3,,,,,,,,,2,,,57,88
4080,note_on,240,0,4,,,,,,,,,3,,,33,0
4080,note_on,0,0,3,,,,,,,,,2,,,45,88
4080,note_on,240,0,3,,,,,,,,,2,,,57,0
4080,note_on,240,0,2,,,,,,,,,1,,,69,0
4080,note_on,0,0,2,,,,,,,,,1,,,64,0
4080,note_on,0,0,2,,,,,,,,,1,,,60,0
4080,note_on,0,0,2,,,,,,,,,1,,,60,88
4080,note_on,0,0,2,,,,,,,,,1,,,69,88
4080,note_on,0,0,3,,,,,,,,,2,,,45,0
4080,note_on,0,0,2,,,,,,,,,1,,,64,88
4320,note_on,240,0,3,,,,,,,,,2,,,57,0
4320,note_on,0,0,4,,,,,,,,,3,,,33,114
4320,note_on,0,0,2,,,,,,,,,1,,,69,114
4320,note_on,240,0,1,,,,,,,,,0,,,81,0
4320,note_on,0,0,1,,,,,,,,,0,,,76,0
4320,note_on,0,0,1,,,,,,,,,0,,,72,0
4320,note_on,0,0,1,,,,,,,,,0,,,72,114
4320,note_on,0,0,1,,,,,,,,,0,,,76,114
4320,note_on,0,0,1,,,,,,,,,0,,,81,114
4320,note_on,240,0,2,,,,,,,,,1,,,69,0
4320,note_on,0,0,2,,,,,,,,,1,,,64,0
4320,note_on,0,0,2,,,,,,,,,1,,,60,0
4320,note_on,0,0,2,,,,,,,,,1,,,60,114
4320,note_on,0,0,2,,,,,,,,,1,,,64,114
4320,note_on,0,0,3,,,,,,,,,2,,,57,114
4320,note_on,0,0,3,,,,,,,,,2,,,45,114
4320,note_on,0,0,3,,,,,,,,,2,,,45,0
4320,note_on,240,0,4,,,,,,,,,3,,,33,0
4800,note_on,0,0,2,,,,,,,,,1,,,64,0
4800,note_on,0,0,2,,,,,,,,,1,,,60,0
4800,note_on,0,0,2,,,,,,,,,1,,,61,88
4800,note_on,0,0,4,,,,,,,,,3,,,33,88
4800,note_on,480,0,4,,,,,,,,,3,,,33,0
4800,note_on,0,0,2,,,,,,,,,1,,,64,88
4800,note_on,0,0,2,,,,,,,,,1,,,67,88
4800,note_on,0,0,3,,,,,,,,,2,,,45,88
4800,note_on,0,0,3,,,,,,,,,2,,,45,0
4800,note_on,480,0,2,,,,,,,,,1,,,69,0
4800,note_on,480,0,3,,,,,,,,,2,,,57,0
4800,note_on,0,0,3,,,,,,,,,2,,,57,88
4800,note_on,480,0,1,,,,,,,,,0,,,81,0
4800,note_on,0,0,1,,,,,,,,,0,,,79,88
4800,note_on,0,0,1,,,,,,,,,0,,,76,88
4800,note_on,0,0,1,,,,,,,,,0,,,73,88
4800,note_on,0,0,1,,,,,,,,,0,,,72,0
4800,note_on,0,0,1,,,,,,,,,0,,,76,0
5280,note_on,480,0,4,,,,,,,,,3,,,33,0
5280,note_on,480,0,2,,,,,,,,,1,,,67,0
5280,note_on,0,0,1,,,,,,,,,0,,,73,0
5280,note_on,0,0,1,,,,,,,,,0,,,76,0
5280,note_on,0,0,2,,,,,,,,,1,,,61,0
5280,note_on,480,0,1,,,,,,,,,0,,,79,0
5280,note_on,0,0,2,,,,,,,,,1,,,64,0
5280,note_on,480,0,3,,,,,,,,,2,,,57,0
5280,note_on,0,0,3,,,,,,,,,2,,,45,0
5760,note_on,0,0,1,,,,,,,,,0,,,79,88
5760,note_on,0,0,1,,,,,,,,,0,,,76,88
5760,note_on,480,0,1,,,,,,,,,0,,,73,88
5760,note_on,480,0,3,,,,,,,,,2,,,45,88
5760,note_on,0,0,3,,,,,,,,,2,,,57,88
5760,note_on,480,0,4,,,,,,,,,3,,,33,88
5760,note_on,0,0,2,,,,,,,,,1,,,67,88
5760,note_on,0,0,2,,,,,,,,,1,,,64,88
5760,note_on,480,0,2,,,,,,,,,1,,,61,88
6000,note_on,0,0,2,,,,,,,,,1,,,67,88
6000,note_on,0,0,1,,,,,,,,,0,,,76,88
6000,note_on,0,0,2,,,,,,,,,1,,,61,88
6000,note_on,0,0,2,,,,,,,,,1,,,61,0
6000,note_on,0,0,2,,,,,,,,,1,,,64,0
6000,note_on,240,0,2,,,,,,,,,1,,,67,0
6000,note_on,240,0,4,,,,,,,,,3,,,33,0
6000,note_on,0,0,1,,,,,,,,,0,,,79,88
6000,note_on,0,0,2,,,,,,,,,1,,,64,88
6000,note_on,0,0,1,,,,,,,,,0,,,73,88
6000,note_on,240,0,1,,,,,,,,,0,,,79,0
6000,note_on,0,0,1,,,,,,,,,0,,,76,0
6000,note_on,0,0,3,,,,,,,,,2,,,57,88
6000,note_on,0,0,4,,,,,,,,,3,,,33,88
6000,note_on,240,0,3,,,,,,,,,2,,,57,0
6000,note_on,0,0,3,,,,,,,,,2,,,45,0
6000,note_on,0,0,3,,,,,,,,,2,,,45,88
6000,note_on,0,0,1,,,,,,,,,0,,,73,0
6240,note_on,0,0,2,,,,,,,,,1,,,64,114
6240,note_on,0,0,2,,,,,,,,,1,,,67,114
6240,note_on,0,0,1,,,,,,,,,0,,,76,0
6240,note_on,0,0,1,,,,,,,,,0,,,73,0
6240,note_on,0,0,1,,,,,,,,,0,,,73,114
6240,note_on,0,0,1,,,,,,,,,0,,,76,114
6240,note_on,0,0,1,,,,,,,,,0,,,79,114
6240,note_on,0,0,4,,,,,,,,,3,,,33,114
6240,note_on,240,0,4,,,,,,,,,3,,,33,0
6240,note_on,240,0,2,,,,,,,,,1,,,67,0
6240,note_on,240,0,1,,,,,,,,,0,,,79,0
6240,note_on,0,0,2,,,,,,,,,1,,,61,0
6240,note_on,240,0,3,,,,,,,,,2,,,57,0
6240,note_on,0,0,2,,,,,,,,,1,,,61,114
6240,note_on,0,0,3,,,,,,,,,2,,,57,114
6240,note_on,0,0,3,,,,,,,,,2,,,45,114
6240,note_on,0,0,3,,,,,,,,,2,,,45,0
6240,note_on,0,0,2,,,,,,,,,1,,,64,0
6720,note_on,0,0,2,,,,,,,,,1,,,65,88
6720,note_on,480,0,4,,,,,,,,,3,,,33,0
6720,note_on,0,0,4,,,,,,,,,3,,,33,88
6720,note_on,0,0,1,,,,,,,,,0,,,77,88
6720,note_on,0,0,1,,,,,,,,,0,,,74,88
6720,note_on,0,0,2,,,,,,,,,1,,,62,88
6720,note_on,0,0,2,,,,,,,,,1,,,64,0
6720,note_on,480,0,2,,,,,,,,,1,,,67,0
6720,note_on,0,0,1,,,,,,,,,0,,,73,0
6720,note_on,0,0,1,,,,,,,,,0,,,76,0
6720,note_on,480,0,1,,,,,,,,,0,,,79,0
6720,note_on,0,0,3,,,,,,,,,2,,,45,0
6720,note_on,0,0,3,,,,,,,,,2,,,45,88
6720,note_on,0,0,3,,,,,,,,,2,,,57,88
6720,note_on,0,0,2,,,,,,,,,1,,,61,0
6720,note_on,480,0,3,,,,,,,,,2,,,57,0
7200,note_on,480,0,1,,,,,,,,,0,,,77,0
7200,note_on,0,0,1,,,,,,,,,0,,,74,0
7200,note_on,480,0,4,,,,,,,,,3,,,33,0
7200,note_on,0,0,2,,,,,,,,,1,,,62,0
7200,note_on,480,0,2,,,,,,,,,1,,,65,0
7200,note_on,480,0,3,,,,,,,,,2,,,57,0
7200,note_on,0,0,3,,,,,,,,,2,,,45,0
7680,note_on,0,0,1,,,,,,,,,0,,,77,88
7680,note_on,0,0,1,,,,,,,,,0,,,74,88
7680,note_on,480,0,1,,,,,,,,,0,,,70,88
7680,note_on,480,0,4,,,,,,,,,3,,,33,88
7680,note_on,0,0,4,,,,,,,,,3,,,45,88
7680,note_on,480,0,3,,,,,,,,,2,,,56,88
7680,note_on,480,0,2,,,,,,,,,1,,,65,88
7920,note_on,0,0,1,,,,,,,,,0,,,74,0
7920,note_on,0,0,1,,,,,,,,,0,,,69,88
7920,note_on,0,0,1,,,,,,,,,0,,,74,88
7920,note_on,0,0,1,,,,,,,,,0,,,77,88
7920,note_on,0,0,2,,,,,,,,,1,,,65,88
7920,note_on,240,0,2,,,,,,,,,1,,,65,0
7920,note_on,0,0,1,,,,,,,,,0,,,70,0
7920,note_on,240,0,1,,,,,,,,,0,,,77,0
7920,note_on,240,0,3,,,,,,,,,2,,,56,0
7920,note_on,0,0,3,,,,,,,,,2,,,57,88
7920,note_on,240,0,4,,,,,,,,,3,,,45,0
7920,note_on,0,0,4,,,,,,,,,3,,,33,0
7920,note_on,0,0,4,,,,,,,,,3,,,45,88
7920,note_on,0,0,4,,,,,,,,,3,,,33,88
8160,note_on,0,0,3,,,,,,,,,2,,,47,88
8160,note_on,240,0,1,,,,,,,,,0,,,77,0
8160,note_on,0,0,1,,,,,,,,,0,,,74,0
8160,note_on,0,0,1,,,,,,,,,0,,,69,0
8160,note_on,0,0,1,,,,,,,,,0,,,68,88
8160,note_on,0,0,1,,,,,,,,,0,,,74,88
8160,note_on,0,0,1,,,,,,,,,0,,,77,88
8160,note_on,0,0,2,,,,,,,,,1,,,65,88
8160,note_on,240,0,2,,,,,,,,,1,,,65,0
8160,note_on,240,0,4,,,,,,,,,3,,,45,0
8160,note_on,0,0,4,,,,,,,,,3,,,33,0
8160,note_on,0,0,4,,,,,,,,,3,,,33,88
8160,note_on,0,0,4,,,,,,,,,3,,,45,88
8160,note_on,240,0,3,,,,,,,,,2,,,57,0
8160,note_on,0,0,3,,,,,,,,,2,,,59,88
8207,note_on,47,0,3,,,,,,,,,2,,,59,0
8207,note_on,0,0,3,,,,,,,,,2,,,47,0
8207,note_on,47,0,2,,,,,,,,,1,,,65,0
8207,note_on,0,0,1,,,,,,,,,0,,,74,0
8207,note_on,47,0,1,,,,,,,,,0,,,77,0
8207,note_on,0,0,1,,,,,,,,,0,,,68,0
8207,note_on,47,0,4,,,,,,,,,3,,,45,0
8207,note_on,0,0,4,,,,,,,,,3,,,33,0
8640,note_on,433,0,1,,,,,,,,,0,,,68,88
8640,note_on,0,0,1,,,,,,,,,0,,,74,88
8640,note_on,433,0,2,,,,,,,,,1,,,65,88
8640,note_on,0,0,1,,,,,,,,,0,,,77,88
8640,note_on,433,0,4,,,,,,,,,3,,,33,88
8640,note_on,0,0,4,,,,,,,,,3,,,45,88
8640,note_on,433,0,3,,,,,,,,,2,,,47,88
8640,note_on,0,0,3,,,,,,,,,2,,,59,88
8687,note_on,47,0,1,,,,,,,,,0,,,77,0
8687,note_on,0,0,1,,,,,,,,,0,,,74,0
8687,note_on,47,0,4,,,,,,,,,3,,,45,0
8687,note_on,47,0,3,,,,,,,,,2,,,59,0
8687,note_on,0,0,3,,,,,,,,,2,,,47,0
8687,note_on,0,0,4,,,,,,,,,3,,,33,0
8687,note_on,0,0,1,,,,,,,,,0,,,68,0
8687,note_on,47,0,2,,,,,,,,,1,,,65,0
9120,note_on,433,0,3,,,,,,,,,2,,,47,88
9120,note_on,0,0,3,,,,,,,,,2,,,59,88
9120,note_on,433,0,4,,,,,,,,,3,,,33,88
9120,note_on,0,0,4,,,,,,,,,3,,,45,88
9120,note_on,433,0,2,,,,,,,,,1,,,65,88
9120,note_on,0,0,1,,,,,,,,,0,,,77,88
9120,note_on,433,0,1,,,,,,,,,0,,,68,88
9120,note_on,0,0,1,,,,,,,,,0,,,74,88
9167,note_on,47,0,3,,,,,,,,,2,,,59,0
9167,note_on,0,0,3,,,,,,,,,2,,,47,0
9167,note_on,0,0,4,,,,,,,,,3,,,33,0
9167,note_on,47,0,2,,,,,,,,,1,,,65,0
9167,note_on,47,0,4,,,,,,,,,3,,,45,0
9167,note_on,0,0,1,,,,,,,,,0,,,74,0
9167,note_on,0,0,1,,,,,,,,,0,,,68,0
9167,note_on,47,0,1,,,,,,,,,0,,,77,0
9600,note_on,0,0,1,,,,,,,,,0,,,77,88
9600,note_on,0,0,1,,,,,,,,,0,,,74,88
9600,note_on,433,0,1,,,,,,,,,0,,,68,88
9600,note_on,0,0,3,,,,,,,,,2,,,59,88
9600,note_on,433,0,2,,,,,,,,,1,,,65,88
9600,note_on,433,0,3,,,,,,,,,2,,,47,88
9600,note_on,0,0,4,,,,,,,,,3,,,45,88
9600,note_on,433,0,4,,,,,,,,,3,,,33,88
9647,note_on,0,0,4,,,,,,,,,3,,,33,0
9647,note_on,47,0,4,,,,,,,,,3,,,45,0
9647,note_on,47,0,2,,,,,,,,,1,,,65,0
9647,note_on,47,0,1,,,,,,,,,0,,,77,0
9647,note_on,0,0,1,,,,,,,,,0,,,74,0
9647,note_on,0,0,1,,,,,,,,,0,,,68,0
9647,note_on,0,0,3,,,,,,,,,2,,,47,0
9647,note_on,47,0,3,,,,,,,,,2,,,59,0
10080,note_on,433,0,2,,,,,,,,,1,,,65,88
10080,note_on,433,0,3,,,,,,,,,2,,,47,88
10080,note_on,0,0,3,,,,,,,,,2,,,59,88
10080,note_on,433,0,1,,,,,,,,,0,,,68,88
10080,note_on,0,0,1,,,,,,,,,0,,,77,88
10080,note_on,0,0,1,,,,,,,,,0,,,74,88
10080,note_on,0,0,4,,,,,,,,,3,,,45,88
10080,note_on,433,0,4,,,,,,,,,3,,,33,88
10560,note_on,0,0,1,,,,,,,,,0,,,68,0
10560,note_on,0,0,1,,,,,,,,,0,,,69,88
10560,note_on,0,0,1,,,,,,,,,0,,,72,88
10560,note_on,0,0,1,,,,,,,,,0,,,76,88
10560,note_on,0,0,2,,,,,,,,,1,,,64,88
10560,note_on,480,0,1,,,,,,,,,0,,,77,0
10560,note_on,0,0,3,,,,,,,,,2,,,48,88
10560,note_on,480,0,3,,,,,,,,,2,,,59,0
10560,note_on,0,0,3,,,,,,,,,2,,,47,0
10560,note_on,0,0,1,,,,,,,,,0,,,74,0
10560,note_on,0,0,3,,,,,,,,,2,,,60,88
10560,note_on,480,0,2,,,,,,,,,1,,,65,0
10560,note_on,480,0,4,,,,,,,,,3,,,45,0
10560,note_on,0,0,4,,,,,,,,,3,,,33,0
10560,note_on,0,0,4,,,,,,,,,3,,,33,88
10560,note_on,0,0,4,,,,,,,,,3,,,45,88
11040,note_on,0,0,3,,,,,,,,,2,,,48,0
11040,note_on,480,0,2,,,,,,,,,1,,,64,0
11040,note_on,480,0,3,,,,,,,,,2,,,60,0
11040,note_on,480,0,4,,,,,,,,,3,,,45,0
11040,note_on,0,0,4,,,,,,,,,3,,,33,0
11040,note_on,0,0,1,,,,,,,,,0,,,69,0
11040,note_on,0,0,1,,,,,,,,,0,,,72,0
11040,note_on,480,0,1,,,,,,,,,0,,,76,0
11520,note_on,480,0,2,,,,,,,,,1,,,60,88
11520,note_on,0,0,2,,,,,,,,,1,,,64,88
11520,note_on,0,0,2,,,,,,,,,1,,,69,88
11520,note_on,0,0,4,,,,,,,,,3,,,45,88
11520,note_on,0,0,1,,,,,,,,,0,,,81,88
11520,note_on,480,0,4,,,,,,,,,3,,,33,88
11520,note_on,480,0,3,,,,,,,,,2,,,52,88
11520,note_on,0,0,3,,,,,,,,,2,,,57,88
11520,note_on,0,0,1,,,,,,,,,0,,,76,88
11520,note_on,480,0,1,,,,,,,,,0,,,72,88
12000,note_on,480,0,1,,,,,,,,,0,,,81,0
12000,note_on,0,0,1,,,,,,,,,0,,,76,0
12000,note_on,0,0,4,,,,,,,,,3,,,38,114
12000,note_on,0,0,1,,,,,,,,,0,,,72,0
12000,note_on,0,0,4,,,,,,,,,3,,,33,0
12000,note_on,480,0,4,,,,,,,,,3,,,45,0
12000,note_on,0,0,4,,,,,,,,,3,,,50,114
12000,note_on,0,0,1,,,,,,,,,0,,,77,114
12000,note_on,0,0,3,,,,,,,,,2,,,58,114
12000,note_on,0,0,1,,,,,,,,,0,,,74,114
12000,note_on,0,0,3,,,,,,,,,2,,,53,114
12000,note_on,0,0,3,,,,,,,,,2,,,52,0
12000,note_on,480,0,3,,,,,,,,,2,,,57,0
12000,note_on,480,0,2,,,,,,,,,1,,,69,0
12000,note_on,0,0,2,,,,,,,,,1,,,64,0
12000,note_on,0,0,2,,,,,,,,,1,,,60,0
12000,note_on,0,0,2,,,,,,,,,1,,,62,114
12000,note_on,0,0,2,,,,,,,,,1,,,65,114
12000,note_on,0,0,2,,,,,,,,,1,,,70,114
12000,note_on,0,0,1,,,,,,,,,0,,,82,114
12960,note_on,0,0,2,,,,,,,,,1,,,74,114
12960,note_on,0,0,3,,,,,,,,,2,,,53,0
12960,note_on,0,0,3,,,,,,,,,2,,,53,114
12960,note_on,0,0,3,,,,,,,,,2,,,58,114
12960,note_on,0,0,3,,,,,,,,,2,,,62,114
12960,note_on,960,0,3,,,,,,,,,2,,,58,0
12960,note_on,0,0,4,,,,,,,,,3,,,38,114
12960,note_on,0,0,4,,,,,,,,,3,,,50,114
12960,note_on,0,0,2,,,,,,,,,1,,,70,114
12960,note_on,0,0,2,,,,,,,,,1,,,65,114
12960,note_on,0,0,2,,,,,,,,,1,,,62,0
12960,note_on,960,0,2,,,,,,,,,1,,,70,0
12960,note_on,0,0,2,,,,,,,,,1,,,65,0
12960,note_on,0,0,1,,,,,,,,,0,,,86,114
12960,note_on,0,0,1,,,,,,,,,0,,,82,114
12960,note_on,0,0,1,,,,,,,,,0,,,77,114
12960,note_on,0,0,1,,,,,,,,,0,,,74,0
12960,note_on,0,0,1,,,,,,,,,0,,,77,0
12960,note_on,960,0,1,,,,,,,,,0,,,82,0
12960,note_on,960,0,4,,,,,,,,,3,,,50,0
12960,note_on,0,0,4,,,,,,,,,3,,,38,0
13920,note_on,0,0,1,,,,,,,,,0,,,82,0
13920,note_on,960,0,2,,,,,,,,,1,,,74,0
13920,note_on,0,0,2,,,,,,,,,1,,,70,88
13920,note_on,960,0,4,,,,,,,,,3,,,50,0
13920,note_on,0,0,4,,,,,,,,,3,,,38,0
13920,note_on,0,0,4,,,,,,,,,3,,,38,88
13920,note_on,0,0,4,,,,,,,,,3,,,50,88
13920,note_on,0,0,3,,,,,,,,,2,,,62,88
13920,note_on,0,0,3,,,,,,,,,2,,,58,88
13920,note_on,0,0,3,,,,,,,,,2,,,53,88
13920,note_on,0,0,3,,,,,,,,,2,,,53,0
13920,note_on,0,0,3,,,,,,,,,2,,,58,0
13920,note_on,960,0,3,,,,,,,,,2,,,62,0
13920,note_on,0,0,1,,,,,,,,,0,,,89,101
13920,note_on,0,0,1,,,,,,,,,0,,,86,101
13920,note_on,0,0,1,,,,,,,,,0,,,82,101
13920,note_on,0,0,1,,,,,,,,,0,,,77,0
13920,note_on,960,0,1,,,,,,,,,0,,,86,0
13920,note_on,0,0,2,,,,,,,,,1,,,70,0
13920,note_on,0,0,2,,,,,,,,,1,,,65,0
13920,note_on,0,0,2,,,,,,,,,1,,,74,88
13920,note_on,0,0,2,,,,,,,,,1,,,77,88
13967,note_on,47,0,4,,,,,,,,,3,,,50,0
13967,note_on,47,0,1,,,,,,,,,0,,,89,0
13967,note_on,47,0,3,,,,,,,,,2,,,62,0
13967,note_on,0,0,3,,,,,,,,,2,,,58,0
13967,note_on,0,0,3,,,,,,,,,2,,,53,0
13967,note_on,0,0,4,,,,,,,,,3,,,38,0
13967,note_on,0,0,1,,,,,,,,,0,,,82,0
13967,note_on,0,0,2,,,,,,,,,1,,,70,0
13967,note_on,0,0,2,,,,,,,,,1,,,74,0
13967,note_on,47,0,2,,,,,,,,,1,,,77,0
13967,note_on,0,0,1,,,,,,,,,0,,,86,0
14400,note_on,0,0,3,,,,,,,,,2,,,62,88
14400,note_on,0,0,4,,,,,,,,,3,,,50,88
14400,note_on,433,0,3,,,,,,,,,2,,,53,88
14400,note_on,433,0,4,,,,,,,,,3,,,38,88
14400,note_on,0,0,2,,,,,,,,,1,,,82,88
14400,note_on,0,0,3,,,,,,,,,2,,,58,88
14400,note_on,0,0,1,,,,,,,,,0,,,89,101
14400,note_on,0,0,1,,,,,,,,,0,,,94,101
14400,note_on,433,0,1,,,,,,,,,0,,,86,101
14400,note_on,0,0,2,,,,,,,,,1,,,77,88
14400,note_on,433,0,2,,,,,,,,,1,,,74,88
14447,note_on,0,0,2,,,,,,,,,1,,,74,0
14447,note_on,0,0,4,,,,,,,,,3,,,38,0
14447,note_on,0,0,3,,,,,,,,,2,,,53,0
14447,note_on,0,0,3,,,,,,,,,2,,,58,0
14447,note_on,47,0,3,,,,,,,,,2,,,62,0
14447,note_on,47,0,2,,,,,,,,,1,,,82,0
14447,note_on,0,0,2,,,,,,,,,1,,,77,0
14447,note_on,0,0,1,,,,,,,,,0,,,86,0
14447,note_on,0,0,1,,,,,,,,,0,,,89,0
14447,note_on,47,0,1,,,,,,,,,0,,,94,0
14447,note_on,47,0,4,,,,,,,,,3,,,50,0
14880,note_on,0,0,2,,,,,,,,,1,,,82,88
14880,note_on,433,0,4,,,,,,,,,3,,,38,88
14880,note_on,0,0,4,,,,,,,,,3,,,50,88
14880,note_on,0,0,3,,,,,,,,,2,,,58,88
14880,note_on,0,0,3,,,,,,,,,2,,,62,88
14880,note_on,433,0,3,,,,,,,,,2,,,53,88
14880,note_on,0,0,1,,,,,,,,,0,,,98,101
14880,note_on,0,0,1,,,,,,,,,0,,,94,101
14880,note_on,433,0,1,,,,,,,,,0,,,89,101
14880,note_on,0,0,2,,,,,,,,,1,,,86,88
14880,note_on,433,0,2,,,,,,,,,1,,,77,88
14927,note_on,0,0,3,,,,,,,,,2,,,58,0
14927,note_on,0,0,4,,,,,,,,,3,,,38,0
14927,note_on,0,0,3,,,,,,,,,2,,,53,0
14927,note_on,47,0,3,,,,,,,,,2,,,62,0
14927,note_on,0,0,1,,,,,,,,,0,,,94,0
14927,note_on,0,0,1,,,,,,,,,0,,,89,0
14927,note_on,47,0,1,,,,,,,,,0,,,98,0
14927,note_on,47,0,4,,,,,,,,,3,,,50,0
14927,note_on,0,0,2,,,,,,,,,1,,,77,0
14927,note_on,47,0,2,,,,,,,,,1,,,86,0
14927,note_on,0,0,2,,,,,,,,,1,,,82,0
15360,note_on,0,0,3,,,,,,,,,2,,,62,88
15360,note_on,0,0,3,,,,,,,,,2,,,58,88
15360,note_on,433,0,3,,,,,,,,,2,,,53,88
15360,note_on,433,0,4,,,,,,,,,3,,,38,88
15360,note_on,433,0,2,,,,,,,,,1,,,74,88
15360,note_on,0,0,2,,,,,,,,,1,,,82,88
15360,note_on,0,0,1,,,,,,,,,0,,,94,101
15360,note_on,0,0,1,,,,,,,,,0,,,89,101
15360,note_on,433,0,1,,,,,,,,,0,,,86,101
15360,note_on,0,0,2,,,,,,,,,1,,,77,88
15360,note_on,0,0,4,,,,,,,,,3,,,50,88
15407,note_on,0,0,1,,,,,,,,,0,,,86,0
15407,note_on,0,0,1,,,,,,,,,0,,,89,0
15407,note_on,47,0,1,,,,,,,,,0,,,94,0
15407,note_on,47,0,3,,,,,,,,,2,,,62,0
15407,note_on,0,0,3,,,,,,,,,2,,,58,0
15407,note_on,47,0,2,,,,,,,,,1,,,82,0
15407,note_on,0,0,3,,,,,,,,,2,,,53,0
15407,note_on,0,0,2,,,,,,,,,1,,,77,0
15407,note_on,0,0,2,,,,,,,,,1,,,74,0
15407,note_on,0,0,4,,,,,,,,,3,,,38,0
15407,note_on,47,0,4,,,,,,,,,3,,,50,0
15840,note_on,433,0,2,,,,,,,,,1,,,72,88
15840,note_on,0,0,2,,,,,,,,,1,,,76,88
15840,note_on,0,0,3,,,,,,,,,2,,,64,88
15840,note_on,0,0,3,,,,,,,,,2,,,60,88
15840,note_on,0,0,2,,,,,,,,,1,,,81,88
15840,note_on,433,0,3,,,,,,,,,2,,,57,88
15840,note_on,0,0,1,,,,,,,,,0,,,93,88
15840,note_on,433,0,4,,,,,,,,,3,,,40,88
15840,note_on,0,0,4,,,,,,,,,3,,,52,88
15840,note_on,0,0,1,,,,,,,,,0,,,88,88
15840,note_on,433,0,1,,,,,,,,,0,,,84,88
16800,control_change,0,0,1,,,,,,,,,0,64,127,,
16800,note_on,960,0,1,,,,,,,,,0,,,93,0
16800,note_on,0,0,1,,,,,,,,,0,,,88,0
16800,note_on,0,0,1,,,,,,,,,0,,,88,114
16800,note_on,0,0,1,,,,,,,,,0,,,84,0
16800,control_change,0,0,2,,,,,,,,,1,64,127,,
16800,note_on,0,0,2,,,,,,,,,1,,,76,114
16800,note_on,0,0,2,,,,,,,,,1,,,76,0
16800,note_on,960,0,2,,,,,,,,,1,,,81,0
16800,note_on,0,0,2,,,,,,,,,1,,,72,0
17280,note_on,0,0,3,,,,,,,,,2,,,64,88
17280,note_on,0,0,3,,,,,,,,,2,,,60,88
17280,note_on,0,0,3,,,,,,,,,2,,,60,0
17280,note_on,0,0,3,,,,,,,,,2,,,57,0
17280,note_on,0,0,3,,,,,,,,,2,,,57,88
17280,note_on,0,0,4,,,,,,,,,3,,,52,88
17280,note_on,0,0,4,,,,,,,,,3,,,40,88
17280,note_on,0,0,4,,,,,,,,,3,,,40,0
17280,note_on,1440,0,3,,,,,,,,,2,,,64,0
17280,note_on,1440,0,4,,,,,,,,,3,,,52,0
17760,note_on,0,0,4,,,,,,,,,3,,,40,88
17760,note_on,0,0,4,,,,,,,,,3,,,40,0
17760,note_on,480,0,4,,,,,,,,,3,,,52,0
17760,note_on,0,0,3,,,,,,,,,2,,,62,88
17760,note_on,0,0,3,,,,,,,,,2,,,59,88
17760,note_on,0,0,3,,,,,,,,,2,,,57,88
17760,note_on,0,0,3,,,,,,,,,2,,,57,0
17760,note_on,0,0,3,,,,,,,,,2,,,60,0
17760,note_on,480,0,3,,,,,,,,,2,,,64,0
17760,note_on,960,0,1,,,,,,,,,0,,,88,0
17760,note_on,0,0,1,,,,,,,,,0,,,87,88
17760,note_on,0,0,2,,,,,,,,,1,,,75,88
17760,note_on,960,0,2,,,,,,,,,1,,,76,0
17760,note_on,0,0,3,,,,,,,,,2,,,64,88
17760,note_on,0,0,4,,,,,,,,,3,,,52,88
18240,note_on,480,0,1,,,,,,,,,0,,,87,0
18240,note_on,0,0,1,,,,,,,,,0,,,88,88
18240,note_on,0,0,2,,,,,,,,,1,,,76,88
18240,note_on,480,0,2,,,,,,,,,1,,,75,0
18720,note_on,0,0,3,,,,,,,,,2,,,59,88
18720,note_on,0,0,3,,,,,,,,,2,,,56,88
18720,note_on,0,0,3,,,,,,,,,2,,,62,0
18720,note_on,0,0,3,,,,,,,,,2,,,59,0
18720,note_on,0,0,3,,,,,,,,,2,,,57,0
18720,note_on,960,0,3,,,,,,,,,2,,,64,0
18720,note_on,0,0,2,,,,,,,,,1,,,77,88
18720,note_on,480,0,2,,,,,,,,,1,,,76,0
18720,note_on,0,0,3,,,,,,,,,2,,,64,88
18720,note_on,0,0,1,,,,,,,,,0,,,89,88
18720,note_on,0,0,3,,,,,,,,,2,,,62,88
18720,note_on,480,0,1,,,,,,,,,0,,,88,0
18720,note_on,960,0,4,,,,,,,,,3,,,52,0
18720,note_on,0,0,4,,,,,,,,,3,,,40,0
18720,note_on,0,0,4,,,,,,,,,3,,,40,88
18720,note_on,0,0,4,,,,,,,,,3,,,52,88
19200,control_change,0,0,2,,,,,,,,,1,64,0,,
19200,note_on,480,0,1,,,,,,,,,0,,,89,0
19200,control_change,0,0,1,,,,,,,,,0,64,0,,
19200,note_on,0,0,1,,,,,,,,,0,,,88,88
19200,note_on,0,0,2,,,,,,,,,1,,,76,88
19200,note_on,480,0,2,,,,,,,,,1,,,77,0
19680,note_on,960,0,4,,,,,,,,,3,,,52,0
19680,note_on,0,0,4,,,,,,,,,3,,,40,0
19680,note_on,960,0,3,,,,,,,,,2,,,64,0
19680,note_on,0,0,3,,,,,,,,,2,,,56,0
19680,note_on,0,0,3,,,,,,,,,2,,,59,0
19680,note_on,0,0,3,,,,,,,,,2,,,62,0
19680,note_on,480,0,1,,,,,,,,,0,,,88,0
19680,note_on,480,0,2,,,,,,,,,1,,,76,0
21600,note_on,0,0,4,,,,,,,,,3,,,45,62
21600,note_on,1920,0,4,,,,,,,,,3,,,33,62
21600,note_on,1920,0,1,,,,,,,,,0,,,81,62
21600,note_on,1920,0,2,,,,,,,,,1,,,69,62
21840,control_change,2160,0,3,,,,,,,,,2,64,127,,
21840,note_on,0,0,3,,,,,,,,,2,,,60,49
22080,note_on,0,0,3,,,,,,,,,2,,,52,49
22080,note_on,240,0,3,,,,,,,,,2,,,60,0
22320,note_on,0,0,3,,,,,,,,,2,,,60,49
22320,note_on,240,0,3,,,,,,,,,2,,,52,0
22560,note_on,240,0,3,,,,,,,,,2,,,60,0
22560,note_on,0,0,3,,,,,,,,,2,,,64,49
22560,note_on,960,0,4,,,,,,,,,3,,,45,0
22560,note_on,0,0,4,,,,,,,,,3,,,33,0
22800,note_on,0,0,3,,,,,,,,,2,,,60,49
22800,note_on,240,0,3,,,,,,,,,2,,,64,0
23040,note_on,0,0,2,,,,,,,,,1,,,72,62
23040,note_on,480,0,4,,,,,,,,,3,,,33,62
23040,note_on,1440,0,2,,,,,,,,,1,,,69,0
23040,note_on,0,0,4,,,,,,,,,3,,,45,62
23040,note_on,240,0,3,,,,,,,,,2,,,60,0
23040,note_on,0,0,1,,,,,,,,,0,,,84,62
23040,note_on,1440,0,1,,,,,,,,,0,,,81,0
23040,note_on,0,0,3,,,,,,,,,2,,,52,49
23280,note_on,240,0,3,,,,,,,,,2,,,52,0
23280,control_change,0,0,3,,,,,,,,,2,64,0,,
23280,note_on,0,0,3,,,,,,,,,2,,,60,49
23520,note_on,0,0,4,,,,,,,,,3,,,47,62
23520,note_on,480,0,2,,,,,,,,,1,,,72,0
23520,note_on,0,0,2,,,,,,,,,1,,,69,88
23520,note_on,240,0,3,,,,,,,,,2,,,60,0
23520,note_on,480,0,4,,,,,,,,,3,,,45,0
23520,note_on,0,0,4,,,,,,,,,3,,,33,0
23520,note_on,0,0,4,,,,,,,,,3,,,35,62
23520,note_on,480,0,1,,,,,,,,,0,,,84,0
23520,note_on,0,0,1,,,,,,,,,0,,,81,88
23760,note_on,0,0,3,,,,,,,,,2,,,62,49
23760,control_change,240,0,3,,,,,,,,,2,64,127,,
24000,note_on,0,0,3,,,,,,,,,2,,,52,49
24000,note_on,480,0,1,,,,,,,,,0,,,81,0
24000,note_on,240,0,3,,,,,,,,,2,,,62,0
24000,note_on,0,0,1,,,,,,,,,0,,,80,62
24000,note_on,480,0,2,,,,,,,,,1,,,69,0
24000,note_on,0,0,2,,,,,,,,,1,,,68,62
24240,note_on,240,0,3,,,,,,,,,2,,,52,0
24240,note_on,0,0,3,,,,,,,,,2,,,62,49
24480,note_on,0,0,3,,,,,,,,,2,,,64,49
24480,note_on,480,0,1,,,,,,,,,0,,,80,0
24480,note_on,960,0,4,,,,,,,,,3,,,47,0
24480,note_on,0,0,4,,,,,,,,,3,,,35,0
24480,note_on,480,0,2,,,,,,,,,1,,,68,0
24480,note_on,240,0,3,,,,,,,,,2,,,62,0
24720,note_on,0,0,3,,,,,,,,,2,,,62,49
24720,note_on,240,0,3,,,,,,,,,2,,,64,0
24960,note_on,0,0,3,,,,,,,,,2,,,52,49
24960,note_on,240,0,3,,,,,,,,,2,,,62,0
25200,control_change,0,0,3,,,,,,,,,2,64,0,,
25200,note_on,240,0,3,,,,,,,,,2,,,52,0
25200,note_on,0,0,3,,,,,,,,,2,,,62,49
25440,note_on,240,0,3,,,,,,,,,2,,,62,0
25440,note_on,960,0,1,,,,,,,,,0,,,81,62
25440,note_on,960,0,2,,,,,,,,,1,,,69,62
25440,note_on,0,0,4,,,,,,,,,3,,,45,62
25440,note_on,960,0,4,,,,,,,,,3,,,33,62
25680,note_on,0,0,3,,,,,,,,,2,,,60,49
25680,control_change,240,0,3,,,,,,,,,2,64,127,,
25920,note_on,0,0,3,,,,,,,,,2,,,52,49
25920,note_on,240,0,3,,,,,,,,,2,,,60,0
26160,note_on,240,0,3,,,,,,,,,2,,,52,0
26160,note_on,0,0,3,,,,,,,,,2,,,60,49
26400,note_on,240,0,3,,,,,,,,,2,,,60,0
26400,note_on,0,0,4,,,,,,,,,3,,,33,0
26400,note_on,0,0,3,,,,,,,,,2,,,64,49
26400,note_on,960,0,4,,,,,,,,,3,,,45,0
26640,note_on,0,0,3,,,,,,,,,2,,,60,49
26640,note_on,240,0,3,,,,,,,,,2,,,64,0
26880,note_on,240,0,3,,,,,,,,,2,,,60,0
26880,note_on,0,0,3,,,,,,,,,2,,,52,49
26880,note_on,1440,0,1,,,,,,,,,0,,,81,0
26880,note_on,0,0,1,,,,,,,,,0,,,84,62
26880,note_on,1440,0,2,,,,,,,,,1,,,69,0
26880,note_on,0,0,2,,,,,,,,,1,,,72,62
26880,note_on,480,0,4,,,,,,,,,3,,,33,62
26880,note_on,0,0,4,,,,,,,,,3,,,45,62
27120,note_on,0,0,3,,,,,,,,,2,,,60,49
27120,control_change,0,0,3,,,,,,,,,2,64,0,,
27120,note_on,240,0,3,,,,,,,,,2,,,52,0
27360,note_on,0,0,1,,,,,,,,,0,,,81,88
27360,note_on,480,0,2,,,,,,,,,1,,,72,0
27360,note_on,240,0,3,,,,,,,,,2,,,60,0
27360,note_on,480,0,1,,,,,,,,,0,,,84,0
27360,note_on,0,0,2,,,,,,,,,1,,,69,88
27360,note_on,480,0,4,,,,,,,,,3,,,45,0
27360,note_on,0,0,4,,,,,,,,,3,,,33,0
27360,note_on,0,0,4,,,,,,,,,3,,,47,62
27360,note_on,0,0,4,,,,,,,,,3,,,35,62
27600,note_on,0,0,3,,,,,,,,,2,,,62,49
27600,control_change,240,0,3,,,,,,,,,2,64,127,,
27840,note_on,0,0,2,,,,,,,,,1,,,68,62
27840,note_on,480,0,2,,,,,,,,,1,,,69,0
27840,note_on,0,0,3,,,,,,,,,2,,,52,49
27840,note_on,240,0,3,,,,,,,,,2,,,62,0
27840,note_on,0,0,1,,,,,,,,,0,,,80,62
27840,note_on,480,0,1,,,,,,,,,0,,,81,0
28080,note_on,0,0,3,,,,,,,,,2,,,62,49
28080,note_on,240,0,3,,,,,,,,,2,,,52,0
28320,note_on,960,0,4,,,,,,,,,3,,,47,0
28320,note_on,480,0,1,,,,,,,,,0,,,80,0
28320,note_on,240,0,3,,,,,,,,,2,,,62,0
28320,note_on,0,0,3,,,,,,,,,2,,,64,49
28320,note_on,0,0,4,,,,,,,,,3,,,35,0
28320,note_on,480,0,2,,,,,,,,,1,,,68,0
28560,note_on,0,0,3,,,,,,,,,2,,,62,49
28560,note_on,240,0,3,,,,,,,,,2,,,64,0
28800,note_on,240,0,3,,,,,,,,,2,,,62,0
28800,note_on,0,0,3,,,,,,,,,2,,,52,49
28800,note_on,480,0,2,,,,,,,,,1,,,76,62
28800,note_on,480,0,1,,,,,,,,,0,,,88,62
29040,note_on,240,0,3,,,,,,,,,2,,,52,0
29040,control_change,0,0,3,,,,,,,,,2,64,0,,
29040,note_on,0,0,3,,,,,,,,,2,,,62,49
29280,note_on,0,0,1,,,,,,,,,0,,,88,62
29280,note_on,0,0,4,,,,,,,,,3,,,48,62
29280,note_on,480,0,1,,,,,,,,,0,,,88,0
29280,note_on,0,0,2,,,,,,,,,1,,,76,62
29280,note_on,960,0,4,,,,,,,,,3,,,36,62
29280,note_on,480,0,2,,,,,,,,,1,,,76,0
29280,note_on,240,0,3,,,,,,,,,2,,,62,0
29520,control_change,240,0,3,,,,,,,,,2,64,127,,
29520,note_on,0,0,3,,,,,,,,,2,,,57,49
29760,note_on,240,0,3,,,,,,,,,2,,,57,0
29760,note_on,0,0,3,,,,,,,,,2,,,52,49
30000,note_on,720,0,1,,,,,,,,,0,,,88,0
30000,note_on,720,0,2,,,,,,,,,1,,,76,0
30000,note_on,0,0,3,,,,,,,,,2,,,57,49
30000,note_on,240,0,3,,,,,,,,,2,,,52,0
30000,note_on,0,0,2,,,,,,,,,1,,,69,62
30000,note_on,0,0,1,,,,,,,,,0,,,81,62
30240,note_on,960,0,4,,,,,,,,,3,,,48,0
30240,note_on,0,0,4,,,,,,,,,3,,,36,0
30240,note_on,0,0,4,,,,,,,,,3,,,37,62
30240,note_on,0,0,1,,,,,,,,,0,,,81,88
30240,note_on,240,0,1,,,,,,,,,0,,,81,0
30240,note_on,240,0,3,,,,,,,,,2,,,57,0
30240,note_on,0,0,3,,,,,,,,,2,,,64,49
30240,note_on,0,0,2,,,,,,,,,1,,,69,88
30240,note_on,240,0,2,,,,,,,,,1,,,69,0
30240,note_on,0,0,4,,,,,,,,,3,,,49,62
30480,note_on,0,0,3,,,,,,,,,2,,,57,49
30480,note_on,240,0,3,,,,,,,,,2,,,64,0
30720,note_on,240,0,3,,,,,,,,,2,,,57,0
30720,note_on,0,0,2,,,,,,,,,1,,,69,62
30720,note_on,480,0,2,,,,,,,,,1,,,69,0
30720,note_on,480,0,1,,,,,,,,,0,,,81,0
30720,note_on,0,0,3,,,,,,,,,2,,,55,49
30720,note_on,0,0,1,,,,,,,,,0,,,81,62
30960,note_on,0,0,3,,,,,,,,,2,,,57,49
30960,control_change,0,0,3,,,,,,,,,2,64,0,,
30960,note_on,240,0,3,,,,,,,,,2,,,55,0
31200,note_on,240,0,3,,,,,,,,,2,,,57,0
31200,note_on,0,0,2,,,,,,,,,1,,,68,62
31200,note_on,0,0,4,,,,,,,,,3,,,50,62
31200,note_on,0,0,4,,,,,,,,,3,,,38,62
31200,note_on,0,0,4,,,,,,,,,3,,,37,0
31200,note_on,960,0,4,,,,,,,,,3,,,49,0
31200,control_change,0,0,2,,,,,,,,,1,64,127,,
31200,control_change,0,0,1,,,,,,,,,0,64,127,,
31200,note_on,480,0,1,,,,,,,,,0,,,81,0
31200,note_on,480,0,2,,,,,,,,,1,,,69,0
31200,note_on,0,0,1,,,,,,,,,0,,,80,62
31440,note_on,240,0,1,,,,,,,,,0,,,80,0
31440,note_on,0,0,1,,,,,,,,,0,,,81,62
31440,note_on,0,0,2,,,,,,,,,1,,,69,62
31440,note_on,240,0,2,,,,,,,,,1,,,68,0
31440,control_change,240,0,3,,,,,,,,,2,64,127,,
31440,note_on,0,0,3,,,,,,,,,2,,,57,49
31680,note_on,0,0,3,,,,,,,,,2,,,53,49
31680,note_on,0,0,2,,,,,,,,,1,,,70,62
31680,note_on,240,0,2,,,,,,,,,1,,,69,0
31680,note_on,240,0,3,,,,,,,,,2,,,57,0
31680,note_on,240,0,1,,,,,,,,,0,,,81,0
31680,note_on,0,0,1,,,,,,,,,0,,,82,62
31920,note_on,0,0,2,,,,,,,,,1,,,69,62
31920,note_on,240,0,2,,,,,,,,,1,,,70,0
31920,note_on,240,0,1,,,,,,,,,0,,,82,0
31920,note_on,0,0,1,,,,,,,,,0,,,81,62
31920,note_on,240,0,3,,,,,,,,,2,,,53,0
31920,note_on,0,0,3,,,,,,,,,2,,,57,49
32160,note_on,0,0,2,,,,,,,,,1,,,70,62
32160,control_change,0,0,2,,,,,,,,,1,64,0,,
32160,note_on,240,0,2,,,,,,,,,1,,,69,0
32160,note_on,240,0,1,,,,,,,,,0,,,81,0
32160,control_change,0,0,1,,,,,,,,,0,64,0,,
32160,note_on,0,0,4,,,,,,,,,3,,,53,62
32160,note_on,0,0,3,,,,,,,,,2,,,58,62
32160,note_on,240,0,3,,,,,,,,,2,,,57,0
32160,note_on,960,0,4,,,,,,,,,3,,,50,0
32160,note_on,0,0,4,,,,,,,,,3,,,38,0
32160,note_on,0,0,4,,,,,,,,,3,,,41,62
32160,note_on,0,0,1,,,,,,,,,0,,,74,62
32400,note_on,240,0,3,,,,,,,,,2,,,58,0
32400,note_on,0,0,3,,,,,,,,,2,,,62,62
32640,note_on,480,0,1,,,,,,,,,0,,,74,0
32640,control_change,0,0,1,,,,,,,,,0,64,127,,
32640,note_on,240,0,3,,,,,,,,,2,,,62,0
32640,note_on,0,0,3,,,,,,,,,2,,,57,62
32640,note_on,480,0,2,,,,,,,,,1,,,70,0
32640,note_on,0,0,2,,,,,,,,,1,,,69,88
32640,note_on,0,0,1,,,,,,,,,0,,,74,88
32880,note_on,0,0,3,,,,,,,,,2,,,62,62
32880,control_change,0,0,3,,,,,,,,,2,64,0,,
32880,note_on,240,0,3,,,,,,,,,2,,,57,0
33120,note_on,960,0,4,,,,,,,,,3,,,53,0
33120,note_on,0,0,4,,,,,,,,,3,,,52,62
33120,note_on,0,0,4,,,,,,,,,3,,,40,62
33120,note_on,0,0,4,,,,,,,,,3,,,41,0
33120,note_on,0,0,2,,,,,,,,,1,,,64,62
33120,note_on,0,0,1,,,,,,,,,0,,,76,88
33120,note_on,480,0,2,,,,,,,,,1,,,69,0
33120,note_on,0,0,2,,,,,,,,,1,,,68,62
33120,note_on,240,0,3,,,,,,,,,2,,,62,0
33120,note_on,480,0,1,,,,,,,,,0,,,74,0
33360,control_change,240,0,3,,,,,,,,,2,64,127,,
33360,note_on,0,0,3,,,,,,,,,2,,,59,62
33600,note_on,240,0,3,,,,,,,,,2,,,59,0
33600,note_on,0,0,3,,,,,,,,,2,,,56,62
33840,note_on,240,0,3,,,,,,,,,2,,,56,0
33840,note_on,0,0,3,,,,,,,,,2,,,59,62
34080,note_on,0,0,3,,,,,,,,,2,,,62,49
34080,note_on,240,0,3,,,,,,,,,2,,,59,0
34320,note_on,240,0,3,,,,,,,,,2,,,62,0
34320,note_on,0,0,3,,,,,,,,,2,,,59,49
34320,note_on,0,0,1,,,,,,,,,0,,,74,62
34320,note_on,1200,0,1,,,,,,,,,0,,,76,0
34560,note_on,240,0,3,,,,,,,,,2,,,59,0
34560,note_on,0,0,3,,,,,,,,,2,,,56,49
34560,note_on,0,0,1,,,,,,,,,0,,,72,62
34560,note_on,240,0,1,,,,,,,,,0,,,74,0
34800,note_on,240,0,1,,,,,,,,,0,,,72,0
34800,note_on,0,0,1,,,,,,,,,0,,,71,62
34800,note_on,240,0,3,,,,,,,,,2,,,56,0
34800,note_on,0,0,3,,,,,,,,,2,,,59,49
34800,control_change,0,0,3,,,,,,,,,2,64,0,,
35040,note_on,0,0,4,,,,,,,,,3,,,40,0
35040,note_on,0,0,4,,,,,,,,,3,,,45,62
35040,note_on,240,0,3,,,,,,,,,2,,,59,0
35040,note_on,0,0,1,,,,,,,,,0,,,74,62
35040,note_on,0,0,2,,,,,,,,,1,,,69,62
35040,note_on,1920,0,2,,,,,,,,,1,,,68,0
35040,note_on,240,0,1,,,,,,,,,0,,,71,0
35040,note_on,1920,0,4,,,,,,,,,3,,,52,0
35280,note_on,240,0,1,,,,,,,,,0,,,74,0
35280,note_on,0,0,3,,,,,,,,,2,,,57,49
35280,note_on,0,0,1,,,,,,,,,0,,,72,62
35280,control_change,240,0,3,,,,,,,,,2,64,127,,
35520,note_on,240,0,1,,,,,,,,,0,,,72,0
35520,note_on,240,0,3,,,,,,,,,2,,,57,0
35520,note_on,480,0,4,,,,,,,,,3,,,45,0
35520,note_on,0,0,2,,,,,,,,,1,,,64,0
35520,note_on,480,0,2,,,,,,,,,1,,,69,0
35520,note_on,0,0,3,,,,,,,,,2,,,52,49
35520,note_on,0,0,1,,,,,,,,,0,,,71,62
35760,note_on,0,0,3,,,,,,,,,2,,,57,49
35760,note_on,240,0,1,,,,,,,,,0,,,71,0
35760,note_on,0,0,1,,,,,,,,,0,,,72,62
35760,note_on,240,0,3,,,,,,,,,2,,,52,0
36000,note_on,240,0,3,,,,,,,,,2,,,57,0
36000,note_on,0,0,3,,,,,,,,,2,,,60,49
36000,note_on,480,0,4,,,,,,,,,3,,,33,62
36000,note_on,240,0,1,,,,,,,,,0,,,72,0
36000,control_change,0,0,1,,,,,,,,,0,64,0,,
36000,note_on,0,0,1,,,,,,,,,0,,,69,62
36000,note_on,0,0,4,,,,,,,,,3,,,45,62
36240,note_on,240,0,3,,,,,,,,,2,,,60,0
36240,note_on,240,0,1,,,,,,,,,0,,,69,0
36240,note_on,0,0,3,,,,,,,,,2,,,57,49
36480,note_on,240,0,3,,,,,,,,,2,,,57,0
36480,note_on,0,0,3,,,,,,,,,2,,,56,49
36480,control_change,240,0,1,,,,,,,,,0,64,127,,
36480,control_change,960,0,2,,,,,,,,,1,64,127,,
36480,note_on,0,0,2,,,,,,,,,1,,,76,62
36480,note_on,0,0,4,,,,,,,,,3,,,47,62
36480,note_on,0,0,4,,,,,,,,,3,,,33,0
36480,note_on,480,0,4,,,,,,,,,3,,,45,0
36480,note_on,0,0,1,,,,,,,,,0,,,88,62
36480,note_on,0,0,4,,,,,,,,,3,,,35,62
36720,note_on,240,0,3,,,,,,,,,2,,,56,0
36720,note_on,0,0,3,,,,,,,,,2,,,52,49
36720,control_change,0,0,3,,,,,,,,,2,64,0,,
36960,note_on,0,0,4,,,,,,,,,3,,,35,0
36960,note_on,480,0,4,,,,,,,,,3,,,47,0
36960,note_on,0,0,1,,,,,,,,,0,,,87,62
36960,note_on,480,0,1,,,,,,,,,0,,,88,0
36960,note_on,0,0,4,,,,,,,,,3,,,36,62
36960,note_on,0,0,4,,,,,,,,,3,,,48,62
36960,note_on,240,0,3,,,,,,,,,2,,,52,0
36960,note_on,480,0,2,,,,,,,,,1,,,76,0
36960,note_on,0,0,2,,,,,,,,,1,,,75,62
37200,note_on,0,0,2,,,,,,,,,1,,,76,62
37200,note_on,0,0,3,,,,,,,,,2,,,57,49
37200,note_on,240,0,1,,,,,,,,,0,,,87,0
37200,note_on,0,0,1,,,,,,,,,0,,,88,62
37200,control_change,240,0,3,,,,,,,,,2,64,127,,
37200,note_on,240,0,2,,,,,,,,,1,,,75,0
37440,note_on,0,0,1,,,,,,,,,0,,,89,62
37440,note_on,240,0,1,,,,,,,,,0,,,88,0
37440,note_on,240,0,3,,,,,,,,,2,,,57,0
37440,note_on,0,0,3,,,,,,,,,2,,,52,49
37440,note_on,240,0,2,,,,,,,,,1,,,76,0
37440,note_on,0,0,2,,,,,,,,,1,,,77,62
37680,note_on,240,0,1,,,,,,,,,0,,,89,0
37680,note_on,0,0,3,,,,,,,,,2,,,57,49
37680,note_on,240,0,2,,,,,,,,,1,,,77,0
37680,note_on,0,0,1,,,,,,,,,0,,,88,62
37680,note_on,0,0,2,,,,,,,,,1,,,76,62
37680,note_on,240,0,3,,,,,,,,,2,,,52,0
37920,note_on,240,0,2,,,,,,,,,1,,,76,0
37920,control_change,0,0,2,,,,,,,,,1,64,0,,
37920,note_on,0,0,2,,,,,,,,,1,,,69,62
37920,note_on,0,0,4,,,,,,,,,3,,,36,0
37920,note_on,960,0,4,,,,,,,,,3,,,48,0
37920,note_on,0,0,3,,,,,,,,,2,,,64,49
37920,note_on,0,0,4,,,,,,,,,3,,,37,62
37920,note_on,240,0,3,,,,,,,,,2,,,57,0
37920,note_on,240,0,1,,,,,,,,,0,,,88,0
37920,control_change,0,0,1,,,,,,,,,0,64,0,,
37920,note_on,0,0,1,,,,,,,,,0,,,81,62
37920,note_on,0,0,4,,,,,,,,,3,,,49,62
38160,note_on,240,0,3,,,,,,,,,2,,,64,0
38160,note_on,0,0,3,,,,,,,,,2,,,57,49
38400,note_on,480,0,2,,,,,,,,,1,,,69,0
38400,note_on,240,0,3,,,,,,,,,2,,,57,0
38400,note_on,0,0,3,,,,,,,,,2,,,55,49
38400,note_on,480,0,1,,,,,,,,,0,,,81,0
38400,note_on,0,0,1,,,,,,,,,0,,,81,88
38400,note_on,0,0,2,,,,,,,,,1,,,69,88
38640,note_on,240,0,3,,,,,,,,,2,,,55,0
38640,control_change,0,0,3,,,,,,,,,2,64,0,,
38640,note_on,0,0,3,,,,,,,,,2,,,57,49
38880,note_on,0,0,4,,,,,,,,,3,,,37,0
38880,note_on,480,0,1,,,,,,,,,0,,,81,0
38880,control_change,0,0,1,,,,,,,,,0,64,127,,
38880,note_on,0,0,1,,,,,,,,,0,,,82,62
38880,note_on,480,0,2,,,,,,,,,1,,,69,0
38880,note_on,240,0,3,,,,,,,,,2,,,57,0
38880,control_change,0,0,2,,,,,,,,,1,64,127,,
38880,note_on,0,0,2,,,,,,,,,1,,,70,62
38880,note_on,960,0,4,,,,,,,,,3,,,49,0
38880,note_on,0,0,4,,,,,,,,,3,,,50,62
38880,note_on,0,0,4,,,,,,,,,3,,,38,62
39120,note_on,240,0,2,,,,,,,,,1,,,70,0
39120,note_on,0,0,3,,,,,,,,,2,,,57,49
39120,control_change,240,0,3,,,,,,,,,2,64,127,,
39120,note_on,240,0,1,,,,,,,,,0,,,82,0
39120,note_on,0,0,1,,,,,,,,,0,,,81,62
39120,note_on,0,0,2,,,,,,,,,1,,,69,62
39360,note_on,240,0,2,,,,,,,,,1,,,69,0
39360,note_on,0,0,2,,,,,,,,,1,,,68,62
39360,note_on,240,0,3,,,,,,,,,2,,,57,0
39360,note_on,0,0,3,,,,,,,,,2,,,53,49
39360,note_on,0,0,1,,,,,,,,,0,,,80,62
39360,note_on,240,0,1,,,,,,,,,0,,,81,0
39600,note_on,240,0,2,,,,,,,,,1,,,68,0
39600,note_on,240,0,3,,,,,,,,,2,,,53,0
39600,note_on,0,0,3,,,,,,,,,2,,,57,49
39600,note_on,0,0,2,,,,,,,,,1,,,69,62
39600,note_on,0,0,1,,,,,,,,,0,,,81,62
39600,note_on,240,0,1,,,,,,,,,0,,,80,0
39840,note_on,240,0,2,,,,,,,,,1,,,69,0
39840,note_on,0,0,2,,,,,,,,,1,,,70,62
39840,note_on,0,0,1,,,,,,,,,0,,,74,62
39840,control_change,0,0,1,,,,,,,,,0,64,0,,
39840,note_on,240,0,1,,,,,,,,,0,,,81,0
39840,note_on,0,0,4,,,,,,,,,3,,,53,62
39840,note_on,0,0,4,,,,,,,,,3,,,41,62
39840,note_on,0,0,3,,,,,,,,,2,,,58,62
39840,note_on,240,0,3,,,,,,,,,2,,,57,0
39840,note_on,960,0,4,,,,,,,,,3,,,50,0
39840,note_on,0,0,4,,,,,,,,,3,,,38,0
40080,note_on,0,0,3,,,,,,,,,2,,,62,62
40080,note_on,240,0,3,,,,,,,,,2,,,58,0
40320,note_on,0,0,3,,,,,,,,,2,,,57,62
40320,note_on,240,0,3,,,,,,,,,2,,,62,0
40320,note_on,480,0,2,,,,,,,,,1,,,70,0
40320,control_change,0,0,2,,,,,,,,,1,64,0,,
40320,note_on,0,0,2,,,,,,,,,1,,,69,62
40320,note_on,0,0,1,,,,,,,,,0,,,74,88
40320,control_change,0,0,1,,,,,,,,,0,64,127,,
40320,note_on,480,0,1,,,,,,,,,0,,,74,0
40560,control_change,0,0,3,,,,,,,,,2,64,0,,
40560,note_on,0,0,3,,,,,,,,,2,,,62,62
40560,note_on,240,0,3,,,,,,,,,2,,,57,0
40800,note_on,0,0,1,,,,,,,,,0,,,76,88
40800,note_on,240,0,3,,,,,,,,,2,,,62,0
40800,note_on,480,0,1,,,,,,,,,0,,,74,0
40800,note_on,0,0,2,,,,,,,,,1,,,68,62
40800,note_on,0,0,2,,,,,,,,,1,,,64,62
40800,note_on,480,0,2,,,,,,,,,1,,,69,0
40800,note_on,960,0,4,,,,,,,,,3,,,53,0
40800,note_on,0,0,4,,,,,,,,,3,,,41,0
40800,note_on,0,0,4,,,,,,,,,3,,,40,62
40800,note_on,0,0,4,,,,,,,,,3,,,52,62
41040,control_change,240,0,3,,,,,,,,,2,64,127,,
41040,note_on,0,0,3,,,,,,,,,2,,,59,49
41280,note_on,0,0,3,,,,,,,,,2,,,56,49
41280,note_on,240,0,3,,,,,,,,,2,,,59,0
41520,note_on,0,0,3,,,,,,,,,2,,,59,49
41520,note_on,240,0,3,,,,,,,,,2,,,56,0
41760,note_on,0,0,3,,,,,,,,,2,,,62,49
41760,note_on,240,0,3,,,,,,,,,2,,,59,0
42000,note_on,0,0,3,,,,,,,,,2,,,59,49
42000,note_on,240,0,3,,,,,,,,,2,,,62,0
42000,note_on,0,0,1,,,,,,,,,0,,,74,62
42000,note_on,1200,0,1,,,,,,,,,0,,,76,0
42240,note_on,0,0,3,,,,,,,,,2,,,60,49
42240,note_on,240,0,1,,,,,,,,,0,,,74,0
42240,note_on,240,0,3,,,,,,,,,2,,,59,0
42240,note_on,0,0,1,,,,,,,,,0,,,72,62
42480,note_on,240,0,3,,,,,,,,,2,,,60,0
42480,control_change,0,0,3,,,,,,,,,2,64,0,,
42480,note_on,0,0,3,,,,,,,,,2,,,62,49
42480,note_on,0,0,1,,,,,,,,,0,,,71,62
42480,note_on,240,0,1,,,,,,,,,0,,,72,0
42720,note_on,240,0,3,,,,,,,,,2,,,62,0
42720,note_on,1920,0,2,,,,,,,,,1,,,68,0
42720,control_change,0,0,1,,,,,,,,,0,64,0,,
42720,note_on,1920,0,4,,,,,,,,,3,,,52,0
42720,note_on,0,0,4,,,,,,,,,3,,,40,0
42720,control_change,0,0,4,,,,,,,,,3,64,127,,
42720,note_on,0,0,4,,,,,,,,,3,,,45,62
42720,note_on,240,0,1,,,,,,,,,0,,,71,0
42720,note_on,0,0,1,,,,,,,,,0,,,69,62
42960,control_change,240,0,3,,,,,,,,,2,64,127,,
42960,note_on,0,0,3,,,,,,,,,2,,,60,49
43200,note_on,0,0,3,,,,,,,,,2,,,50,49
43200,note_on,240,0,3,,,,,,,,,2,,,60,0
43200,note_on,480,0,1,,,,,,,,,0,,,69,0
43200,note_on,480,0,2,,,,,,,,,1,,,64,0
43440,note_on,0,0,3,,,,,,,,,2,,,60,49
43440,note_on,240,0,3,,,,,,,,,2,,,50,0
43680,note_on,240,0,3,,,,,,,,,2,,,60,0
43680,note_on,0,0,3,,,,,,,,,2,,,64,49
43920,note_on,240,0,3,,,,,,,,,2,,,64,0
43920,note_on,0,0,3,,,,,,,,,2,,,60,49
44160,note_on,1440,0,4,,,,,,,,,3,,,45,0
44160,note_on,0,0,3,,,,,,,,,2,,,52,49
44160,note_on,240,0,3,,,,,,,,,2,,,60,0
44160,note_on,0,0,4,,,,,,,,,3,,,48,62
44400,note_on,0,0,3,,,,,,,,,2,,,60,49
44400,control_change,0,0,3,,,,,,,,,2,64,0,,
44400,note_on,240,0,3,,,,,,,,,2,,,52,0
44640,control_change,1440,0,2,,,,,,,,,1,64,127,,
44640,note_on,0,0,4,,,,,,,,,3,,,45,62
44640,note_on,0,0,2,,,,,,,,,1,,,71,62
44640,note_on,1440,0,1,,,,,,,,,0,,,76,62
44640,note_on,240,0,3,,,,,,,,,2,,,60,0
44640,note_on,480,0,4,,,,,,,,,3,,,48,0
44880,note_on,0,0,3,,,,,,,,,2,,,62,49
44880,control_change,240,0,3,,,,,,,,,2,64,127,,
45120,note_on,480,0,4,,,,,,,,,3,,,45,0
45120,note_on,240,0,3,,,,,,,,,2,,,62,0
45120,note_on,0,0,3,,,,,,,,,2,,,52,49
45120,control_change,0,0,4,,,,,,,,,3,64,0,,
45120,note_on,0,0,4,,,,,,,,,3,,,44,62
45360,note_on,0,0,3,,,,,,,,,2,,,62,49
45360,note_on,240,0,3,,,,,,,,,2,,,52,0
45600,note_on,240,0,3,,,,,,,,,2,,,62,0
45600,note_on,0,0,3,,,,,,,,,2,,,64,49
45600,note_on,480,0,4,,,,,,,,,3,,,44,0
45840,note_on,0,0,3,,,,,,,,,2,,,62,49
45840,note_on,240,0,3,,,,,,,,,2,,,64,0
46080,note_on,1440,0,2,,,,,,,,,1,,,71,0
46080,note_on,240,0,3,,,,,,,,,2,,,62,0
46080,note_on,0,0,2,,,,,,,,,1,,,74,62
46080,note_on,0,0,3,,,,,,,,,2,,,52,49
46320,note_on,0,0,3,,,,,,,,,2,,,62,49
46320,control_change,0,0,3,,,,,,,,,2,64,0,,
46320,note_on,240,0,3,,,,,,,,,2,,,52,0
46560,note_on,0,0,4,,,,,,,,,3,,,45,62
46560,control_change,960,0,4,,,,,,,,,3,64,127,,
46560,note_on,0,0,2,,,,,,,,,1,,,71,62
46560,note_on,480,0,2,,,,,,,,,1,,,74,0
46560,note_on,240,0,3,,,,,,,,,2,,,62,0
46800,control_change,240,0,3,,,,,,,,,2,64,127,,
46800,note_on,0,0,3,,,,,,,,,2,,,60,49
47040,control_change,0,0,2,,,,,,,,,1,64,0,,
47040,note_on,0,0,2,,,,,,,,,1,,,69,62
47040,note_on,480,0,2,,,,,,,,,1,,,71,0
47040,note_on,2400,0,1,,,,,,,,,0,,,76,0
47040,note_on,0,0,3,,,,,,,,,2,,,50,49
47040,note_on,240,0,3,,,,,,,,,2,,,60,0
47280,note_on,240,0,3,,,,,,,,,2,,,50,0
47280,note_on,0,0,3,,,,,,,,,2,,,60,49
47520,note_on,480,0,2,,,,,,,,,1,,,69,0
47520,note_on,240,0,3,,,,,,,,,2,,,60,0
47520,note_on,0,0,3,,,,,,,,,2,,,64,49
47760,note_on,0,0,3,,,,,,,,,2,,,60,49
47760,note_on,240,0,3,,,,,,,,,2,,,64,0
48000,note_on,240,0,3,,,,,,,,,2,,,60,0
48000,note_on,0,0,3,,,,,,,,,2,,,52,49
48000,note_on,1440,0,4,,,,,,,,,3,,,45,0
48000,note_on,0,0,4,,,,,,,,,3,,,48,62
48240,control_change,0,0,3,,,,,,,,,2,64,0,,
48240,note_on,240,0,3,,,,,,,,,2,,,52,0
48240,note_on,0,0,3,,,,,,,,,2,,,60,49
48480,control_change,1440,0,1,,,,,,,,,0,64,127,,
48480,note_on,0,0,1,,,,,,,,,0,,,76,62
48480,note_on,480,0,4,,,,,,,,,3,,,48,0
48480,control_change,960,0,2,,,,,,,,,1,64,127,,
48480,note_on,0,0,4,,,,,,,,,3,,,45,62
48480,note_on,0,0,2,,,,,,,,,1,,,71,62
48480,note_on,240,0,3,,,,,,,,,2,,,60,0
48720,note_on,0,0,3,,,,,,,,,2,,,62,49
48720,control_change,240,0,3,,,,,,,,,2,64,127,,
48960,note_on,0,0,4,,,,,,,,,3,,,44,62
48960,control_change,0,0,4,,,,,,,,,3,64,0,,
48960,note_on,480,0,4,,,,,,,,,3,,,45,0
48960,note_on,0,0,3,,,,,,,,,2,,,52,49
48960,note_on,240,0,3,,,,,,,,,2,,,62,0
49200,note_on,0,0,3,,,,,,,,,2,,,62,49
49200,note_on,240,0,3,,,,,,,,,2,,,52,0
49440,note_on,0,0,3,,,,,,,,,2,,,64,49
49440,note_on,480,0,4,,,,,,,,,3,,,44,0
49440,note_on,240,0,3,,,,,,,,,2,,,62,0
49680,note_on,240,0,3,,,,,,,,,2,,,64,0
49680,note_on,0,0,3,,,,,,,,,2,,,62,49
49920,note_on,240,0,3,,,,,,,,,2,,,62,0
49920,note_on,0,0,3,,,,,,,,,2,,,52,49
49920,note_on,1440,0,2,,,,,,,,,1,,,71,0
49920,note_on,0,0,2,,,,,,,,,1,,,74,62
50160,note_on,240,0,3,,,,,,,,,2,,,52,0
50160,note_on,0,0,3,,,,,,,,,2,,,62,49
50160,control_change,0,0,3,,,,,,,,,2,64,0,,
50400,note_on,0,0,4,,,,,,,,,3,,,48,62
50400,control_change,960,0,4,,,,,,,,,3,64,127,,
50400,note_on,0,0,2,,,,,,,,,1,,,71,62
50400,note_on,240,0,3,,,,,,,,,2,,,62,0
50400,note_on,480,0,2,,,,,,,,,1,,,74,0
50640,control_change,240,0,3,,,,,,,,,2,64,127,,
50640,note_on,0,0,3,,,,,,,,,2,,,60,49
50880,note_on,0,0,3,,,,,,,,,2,,,52,49
50880,note_on,480,0,2,,,,,,,,,1,,,71,0
50880,control_change,0,0,2,,,,,,,,,1,64,0,,
50880,note_on,0,0,2,,,,,,,,,1,,,69,62
50880,note_on,240,0,3,,,,,,,,,2,,,60,0
51120,note_on,240,0,3,,,,,,,,,2,,,52,0
51120,note_on,0,0,3,,,,,,,,,2,,,60,49
51360,note_on,2880,0,1,,,,,,,,,0,,,76,0
51360,note_on,0,0,1,,,,,,,,,0,,,77,75
51360,note_on,0,0,3,,,,,,,,,2,,,53,49
51360,note_on,240,0,3,,,,,,,,,2,,,60,0
51360,note_on,480,0,2,,,,,,,,,1,,,69,0
51600,note_on,240,0,3,,,,,,,,,2,,,53,0
51600,note_on,0,0,3,,,,,,,,,2,,,60,49
51840,note_on,1440,0,4,,,,,,,,,3,,,48,0
51840,note_on,0,0,1,,,,,,,,,0,,,78,75
51840,control_change,0,0,1,,,,,,,,,0,64,0,,
51840,note_on,480,0,1,,,,,,,,,0,,,77,0
51840,note_on,0,0,4,,,,,,,,,3,,,51,62
51840,note_on,240,0,3,,,,,,,,,2,,,60,0
51840,note_on,0,0,3,,,,,,,,,2,,,54,49
52080,control_change,0,0,3,,,,,,,,,2,64,0,,
52080,note_on,240,0,3,,,,,,,,,2,,,54,0
52080,note_on,0,0,3,,,,,,,,,2,,,60,49
52320,note_on,480,0,4,,,,,,,,,3,,,51,0
52320,note_on,0,0,4,,,,,,,,,3,,,48,62
52320,note_on,0,0,1,,,,,,,,,0,,,79,75
52320,note_on,480,0,1,,,,,,,,,0,,,78,0
52320,note_on,240,0,3,,,,,,,,,2,,,60,0
52320,note_on,0,0,1,,,,,,,,,0,,,67,75
52320,note_on,960,0,2,,,,,,,,,1,,,74,75
52560,control_change,240,0,3,,,,,,,,,2,64,127,,
52560,note_on,0,0,3,,,,,,,,,2,,,62,49
52800,note_on,0,0,3,,,,,,,,,2,,,55,49
52800,control_change,0,0,4,,,,,,,,,3,64,0,,
52800,note_on,0,0,4,,,,,,,,,3,,,47,62
52800,note_on,480,0,4,,,,,,,,,3,,,48,0
52800,note_on,240,0,3,,,,,,,,,2,,,62,0
53040,note_on,0,0,3,,,,,,,,,2,,,62,49
53040,note_on,240,0,3,,,,,,,,,2,,,55,0
53280,note_on,480,0,4,,,,,,,,,3,,,47,0
53280,note_on,240,0,3,,,,,,,,,2,,,62,0
53280,note_on,0,0,3,,,,,,,,,2,,,65,49
53520,note_on,240,0,3,,,,,,,,,2,,,65,0
53520,note_on,0,0,3,,,,,,,,,2,,,62,49
53760,note_on,1440,0,2,,,,,,,,,1,,,74,0
53760,note_on,0,0,2,,,,,,,,,1,,,77,75
53760,note_on,240,0,3,,,,,,,,,2,,,62,0
53760,note_on,0,0,3,,,,,,,,,2,,,55,49
54000,note_on,240,0,3,,,,,,,,,2,,,55,0
54000,control_change,0,0,3,,,,,,,,,2,64,0,,
54000,note_on,0,0,3,,,,,,,,,2,,,62,49
54240,control_change,960,0,4,,,,,,,,,3,64,127,,
54240,note_on,0,0,2,,,,,,,,,1,,,74,75
54240,note_on,480,0,2,,,,,,,,,1,,,77,0
54240,note_on,0,0,4,,,,,,,,,3,,,52,62
54240,note_on,240,0,3,,,,,,,,,2,,,62,0
54480,control_change,240,0,3,,,,,,,,,2,64,127,,
54480,note_on,0,0,3,,,,,,,,,2,,,60,49
54720,note_on,0,0,2,,,,,,,,,1,,,72,75
54720,note_on,240,0,3,,,,,,,,,2,,,60,0
54720,note_on,0,0,3,,,,,,,,,2,,,55,49
54720,note_on,480,0,2,,,,,,,,,1,,,74,0
54960,note_on,240,0,3,,,,,,,,,2,,,55,0
54960,note_on,0,0,3,,,,,,,,,2,,,64,49
55200,note_on,480,0,2,,,,,,,,,1,,,72,0
55200,note_on,0,0,2,,,,,,,,,1,,,69,75
55200,note_on,0,0,1,,,,,,,,,0,,,67,0
55200,note_on,2880,0,1,,,,,,,,,0,,,79,0
55200,note_on,0,0,3,,,,,,,,,2,,,57,49
55200,note_on,240,0,3,,,,,,,,,2,,,64,0
55440,note_on,0,0,3,,,,,,,,,2,,,64,49
55440,note_on,240,0,3,,,,,,,,,2,,,57,0
55680,note_on,1440,0,4,,,,,,,,,3,,,52,0
55680,note_on,0,0,4,,,,,,,,,3,,,55,62
55680,note_on,0,0,2,,,,,,,,,1,,,70,75
55680,note_on,480,0,2,,,,,,,,,1,,,69,0
55680,note_on,240,0,3,,,,,,,,,2,,,64,0
55680,note_on,0,0,3,,,,,,,,,2,,,58,49
55920,control_change,0,0,3,,,,,,,,,2,64,0,,
55920,note_on,240,0,3,,,,,,,,,2,,,58,0
55920,note_on,0,0,3,,,,,,,,,2,,,64,49
56160,control_change,960,0,1,,,,,,,,,0,64,127,,
56160,note_on,0,0,1,,,,,,,,,0,,,78,75
56160,note_on,480,0,4,,,,,,,,,3,,,55,0
56160,note_on,0,0,2,,,,,,,,,1,,,71,75
56160,note_on,240,0,3,,,,,,,,,2,,,64,0
56160,note_on,480,0,2,,,,,,,,,1,,,70,0
56160,note_on,0,0,4,,,,,,,,,3,,,52,75
56400,control_change,240,0,3,,,,,,,,,2,64,127,,
56400,note_on,0,0,3,,,,,,,,,2,,,66,62
56640,note_on,240,0,3,,,,,,,,,2,,,66,0
56640,note_on,0,0,3,,,,,,,,,2,,,59,62
56640,note_on,480,0,4,,,,,,,,,3,,,52,0
56640,note_on,0,0,4,,,,,,,,,3,,,51,75
56640,control_change,0,0,4,,,,,,,,,3,64,0,,
56880,note_on,240,0,3,,,,,,,,,2,,,59,0
56880,note_on,0,0,3,,,,,,,,,2,,,66,62
57120,note_on,0,0,3,,,,,,,,,2,,,69,62
57120,note_on,240,0,3,,,,,,,,,2,,,66,0
57120,note_on,480,0,4,,,,,,,,,3,,,51,0
57360,note_on,0,0,3,,,,,,,,,2,,,66,62
57360,note_on,240,0,3,,,,,,,,,2,,,69,0
57600,note_on,240,0,3,,,,,,,,,2,,,66,0
57600,note_on,0,0,3,,,,,,,,,2,,,59,62
57600,note_on,1440,0,1,,,,,,,,,0,,,78,0
57600,note_on,0,0,1,,,,,,,,,0,,,81,75
57840,note_on,0,0,3,,,,,,,,,2,,,66,62
57840,note_on,240,0,3,,,,,,,,,2,,,59,0
57840,control_change,0,0,3,,,,,,,,,2,64,0,,
58080,note_on,0,0,1,,,,,,,,,0,,,78,88
58080,note_on,480,0,1,,,,,,,,,0,,,81,0
58080,note_on,960,0,4,,,,,,,,,3,,,52,88
58080,note_on,240,0,3,,,,,,,,,2,,,66,0
58320,control_change,240,0,3,,,,,,,,,2,64,127,,
58320,note_on,0,0,3,,,,,,,,,2,,,64,75
58560,note_on,0,0,3,,,,,,,,,2,,,59,75
58560,note_on,0,0,1,,,,,,,,,0,,,79,88
58560,note_on,480,0,1,,,,,,,,,0,,,78,0
58560,note_on,240,0,3,,,,,,,,,2,,,64,0
58560,note_on,2400,0,2,,,,,,,,,1,,,71,0
58560,note_on,0,0,2,,,,,,,,,1,,,71,88
58560,control_change,0,0,2,,,,,,,,,1,64,127,,
58800,note_on,240,0,3,,,,,,,,,2,,,59,0
58800,note_on,0,0,3,,,,,,,,,2,,,64,75
59040,note_on,0,0,2,,,,,,,,,1,,,72,88
59040,note_on,240,0,3,,,,,,,,,2,,,64,0
59040,note_on,0,0,3,,,,,,,,,2,,,60,75
59040,note_on,960,0,4,,,,,,,,,3,,,52,0
59040,note_on,0,0,4,,,,,,,,,3,,,45,88
59040,note_on,480,0,2,,,,,,,,,1,,,71,0
59040,note_on,0,0,1,,,,,,,,,0,,,81,88
59040,note_on,480,0,1,,,,,,,,,0,,,79,0
59280,note_on,0,0,3,,,,,,,,,2,,,64,75
59280,note_on,240,0,3,,,,,,,,,2,,,60,0
59520,note_on,0,0,4,,,,,,,,,3,,,48,88
59520,note_on,480,0,1,,,,,,,,,0,,,81,0
59520,note_on,0,0,2,,,,,,,,,1,,,69,88
59520,note_on,240,0,3,,,,,,,,,2,,,64,0
59520,control_change,0,0,2,,,,,,,,,1,64,0,,
59520,note_on,480,0,2,,,,,,,,,1,,,72,0
59520,note_on,0,0,3,,,,,,,,,2,,,57,75
59520,note_on,480,0,4,,,,,,,,,3,,,45,0
59520,note_on,0,0,1,,,,,,,,,0,,,79,88
59760,note_on,240,0,1,,,,,,,,,0,,,79,0
59760,control_change,0,0,1,,,,,,,,,0,64,0,,
59760,note_on,0,0,1,,,,,,,,,0,,,78,88
59760,note_on,240,0,3,,,,,,,,,2,,,57,0
59760,control_change,0,0,3,,,,,,,,,2,64,0,,
59760,note_on,0,0,3,,,,,,,,,2,,,64,75
60000,note_on,480,0,2,,,,,,,,,1,,,69,0
60000,note_on,240,0,1,,,,,,,,,0,,,78,0
60000,note_on,0,0,1,,,,,,,,,0,,,76,88
60000,note_on,240,0,3,,,,,,,,,2,,,64,0
60000,note_on,0,0,4,,,,,,,,,3,,,47,88
60000,note_on,480,0,4,,,,,,,,,3,,,48,0
60000,note_on,0,0,2,,,,,,,,,1,,,71,88
60240,control_change,240,0,3,,,,,,,,,2,64,127,,
60240,note_on,0,0,3,,,,,,,,,2,,,59,75
60480,note_on,0,0,3,,,,,,,,,2,,,55,75
60480,note_on,240,0,3,,,,,,,,,2,,,59,0
60720,note_on,240,0,3,,,,,,,,,2,,,55,0
60720,note_on,0,0,3,,,,,,,,,2,,,59,75
60960,note_on,960,0,2,,,,,,,,,1,,,71,0
60960,note_on,960,0,1,,,,,,,,,0,,,76,0
60960,note_on,0,0,1,,,,,,,,,0,,,75,88
60960,note_on,240,0,3,,,,,,,,,2,,,59,0
60960,note_on,0,0,3,,,,,,,,,2,,,54,75
61200,note_on,240,0,3,,,,,,,,,2,,,54,0
61200,note_on,0,0,3,,,,,,,,,2,,,59,75
61440,note_on,480,0,1,,,,,,,,,0,,,75,0
61440,note_on,0,0,4,,,,,,,,,3,,,45,88
61440,note_on,1440,0,4,,,,,,,,,3,,,47,0
61440,note_on,240,0,3,,,,,,,,,2,,,59,0
61440,note_on,0,0,3,,,,,,,,,2,,,63,75
61680,note_on,240,0,3,,,,,,,,,2,,,63,0
61680,note_on,0,0,3,,,,,,,,,2,,,59,75
61680,control_change,0,0,3,,,,,,,,,2,64,0,,
61920,note_on,240,0,3,,,,,,,,,2,,,59,0
61920,note_on,960,0,2,,,,,,,,,1,,,74,62
61920,note_on,480,0,1,,,,,,,,,0,,,86,62
61920,note_on,0,0,4,,,,,,,,,3,,,44,62
61920,note_on,480,0,4,,,,,,,,,3,,,45,0
62160,note_on,0,0,3,,,,,,,,,2,,,59,49
62160,control_change,240,0,3,,,,,,,,,2,64,127,,
62400,note_on,0,0,3,,,,,,,,,2,,,53,49
62400,note_on,240,0,3,,,,,,,,,2,,,59,0
62640,note_on,0,0,3,,,,,,,,,2,,,59,49
62640,note_on,240,0,3,,,,,,,,,2,,,53,0
62880,note_on,240,0,3,,,,,,,,,2,,,59,0
62880,note_on,0,0,3,,,,,,,,,2,,,62,49
62880,note_on,960,0,4,,,,,,,,,3,,,44,0
63120,note_on,240,0,3,,,,,,,,,2,,,62,0
63120,note_on,0,0,3,,,,,,,,,2,,,59,49
63360,note_on,0,0,1,,,,,,,,,0,,,89,62
63360,note_on,1440,0,2,,,,,,,,,1,,,74,0
63360,note_on,1440,0,1,,,,,,,,,0,,,86,0
63360,note_on,0,0,3,,,,,,,,,2,,,53,49
63360,note_on,240,0,3,,,,,,,,,2,,,59,0
63360,note_on,0,0,2,,,,,,,,,1,,,77,62
63600,note_on,0,0,3,,,,,,,,,2,,,59,49
63600,control_change,0,0,3,,,,,,,,,2,64,0,,
63600,note_on,240,0,3,,,,,,,,,2,,,53,0
63840,note_on,480,0,2,,,,,,,,,1,,,77,0
63840,control_change,0,0,2,,,,,,,,,1,64,127,,
63840,note_on,0,0,2,,,,,,,,,1,,,71,88
63840,note_on,960,0,4,,,,,,,,,3,,,45,62
63840,note_on,0,0,1,,,,,,,,,0,,,83,88
63840,note_on,480,0,1,,,,,,,,,0,,,89,0
63840,control_change,0,0,1,,,,,,,,,0,64,127,,
63840,note_on,240,0,3,,,,,,,,,2,,,59,0
64080,control_change,240,0,3,,,,,,,,,2,64,127,,
64080,note_on,0,0,3,,,,,,,,,2,,,57,49
64320,note_on,480,0,2,,,,,,,,,1,,,71,0
64320,note_on,0,0,3,,,,,,,,,2,,,52,49
64320,note_on,240,0,3,,,,,,,,,2,,,57,0
64320,note_on,480,0,1,,,,,,,,,0,,,83,0
64320,note_on,0,0,1,,,,,,,,,0,,,84,62
64320,note_on,0,0,2,,,,,,,,,1,,,72,62
64560,note_on,240,0,3,,,,,,,,,2,,,52,0
64560,note_on,0,0,3,,,,,,,,,2,,,57,49
64800,note_on,480,0,2,,,,,,,,,1,,,72,0
64800,note_on,0,0,2,,,,,,,,,1,,,74,62
64800,note_on,0,0,4,,,,,,,,,3,,,38,62
64800,note_on,960,0,4,,,,,,,,,3,,,45,0
64800,note_on,0,0,3,,,,,,,,,2,,,53,49
64800,note_on,240,0,3,,,,,,,,,2,,,57,0
64800,note_on,480,0,1,,,,,,,,,0,,,84,0
64800,note_on,0,0,1,,,,,,,,,0,,,86,62
65040,note_on,0,0,3,,,,,,,,,2,,,57,49
65040,note_on,240,0,3,,,,,,,,,2,,,53,0
65280,note_on,480,0,4,,,,,,,,,3,,,38,0
65280,note_on,0,0,3,,,,,,,,,2,,,50,49
65280,note_on,240,0,3,,,,,,,,,2,,,57,0
65280,note_on,0,0,4,,,,,,,,,3,,,41,62
65280,note_on,0,0,2,,,,,,,,,1,,,72,62
65280,note_on,480,0,1,,,,,,,,,0,,,86,0
65280,note_on,0,0,1,,,,,,,,,0,,,84,62
65280,note_on,480,0,2,,,,,,,,,1,,,74,0
65520,note_on,0,0,1,,,,,,,,,0,,,83,62
65520,note_on,240,0,1,,,,,,,,,0,,,84,0
65520,note_on,240,0,2,,,,,,,,,1,,,72,0
65520,note_on,0,0,3,,,,,,,,,2,,,57,49
65520,control_change,0,0,3,,,,,,,,,2,64,0,,
65520,note_on,240,0,3,,,,,,,,,2,,,50,0
65520,note_on,0,0,2,,,,,,,,,1,,,71,62
65760,note_on,240,0,1,,,,,,,,,0,,,83,0
65760,note_on,0,0,4,,,,,,,,,3,,,40,62
65760,note_on,0,0,2,,,,,,,,,1,,,69,62
65760,control_change,0,0,2,,,,,,,,,1,64,0,,
65760,note_on,240,0,2,,,,,,,,,1,,,71,0
65760,note_on,480,0,4,,,,,,,,,3,,,41,0
65760,control_change,0,0,1,,,,,,,,,0,64,0,,
65760,note_on,0,0,1,,,,,,,,,0,,,81,62
65760,note_on,240,0,3,,,,,,,,,2,,,57,0
66000,control_change,240,0,3,,,,,,,,,2,64,127,,
66000,note_on,0,0,3,,,,,,,,,2,,,52,49
66240,note_on,240,0,3,,,,,,,,,2,,,52,0
66240,note_on,0,0,3,,,,,,,,,2,,,48,49
66480,note_on,240,0,3,,,,,,,,,2,,,48,0
66480,note_on,0,0,3,,,,,,,,,2,,,52,49
66720,note_on,0,0,3,,,,,,,,,2,,,47,49
66720,note_on,240,0,3,,,,,,,,,2,,,52,0
66720,note_on,0,0,1,,,,,,,,,0,,,80,62
66720,note_on,0,0,2,,,,,,,,,1,,,68,62
66720,note_on,960,0,1,,,,,,,,,0,,,81,0
66720,note_on,960,0,2,,,,,,,,,1,,,69,0
66960,note_on,240,0,3,,,,,,,,,2,,,47,0
66960,note_on,0,0,3,,,,,,,,,2,,,52,49
67200,note_on,1440,0,4,,,,,,,,,3,,,40,0
67200,note_on,480,0,2,,,,,,,,,1,,,68,0
67200,note_on,240,0,3,,,,,,,,,2,,,52,0
67200,note_on,480,0,1,,,,,,,,,0,,,80,0
67200,note_on,0,0,3,,,,,,,,,2,,,51,49
67440,note_on,240,0,3,,,,,,,,,2,,,51,0
67440,control_change,0,0,3,,,,,,,,,2,64,0,,
67440,note_on,0,0,3,,,,,,,,,2,,,52,49
67680,note_on,240,0,3,,,,,,,,,2,,,52,0
67680,control_change,0,0,3,,,,,,,,,2,64,127,,
67680,note_on,0,0,3,,,,,,,,,2,,,53,62
67920,note_on,240,0,3,,,,,,,,,2,,,53,0
67920,note_on,0,0,3,,,,,,,,,2,,,52,62
68160,note_on,0,0,3,,,,,,,,,2,,,53,75
68160,note_on,240,0,3,,,,,,,,,2,,,52,0
68400,note_on,240,0,3,,,,,,,,,2,,,53,0
68400,note_on,0,0,3,,,,,,,,,2,,,54,75
68640,note_on,0,0,3,,,,,,,,,2,,,55,88
68640,note_on,240,0,3,,,,,,,,,2,,,54,0
68880,note_on,0,0,3,,,,,,,,,2,,,56,101
68880,control_change,0,0,3,,,,,,,,,2,64,0,,
68880,note_on,240,0,3,,,,,,,,,2,,,55,0
69120,note_on,0,0,3,,,,,,,,,2,,,57,101
69120,note_on,0,0,3,,,,,,,,,2,,,45,101
69120,note_on,0,0,1,,,,,,,,,0,,,93,101
69120,note_on,0,0,1,,,,,,,,,0,,,88,101
69120,note_on,240,0,3,,,,,,,,,2,,,56,0
69120,note_on,0,0,2,,,,,,,,,1,,,81,101
69120,note_on,0,0,2,,,,,,,,,1,,,76,101
69120,note_on,1920,0,1,,,,,,,,,0,,,84,101
69120,note_on,1920,0,4,,,,,,,,,3,,,33,101
69120,note_on,1920,0,2,,,,,,,,,1,,,72,101
69360,note_on,240,0,2,,,,,,,,,1,,,81,0
69360,note_on,0,0,2,,,,,,,,,1,,,76,0
69360,note_on,0,0,2,,,,,,,,,1,,,72,0
69360,note_on,0,0,2,,,,,,,,,1,,,72,101
69360,note_on,0,0,3,,,,,,,,,2,,,57,101
69360,note_on,0,0,1,,,,,,,,,0,,,84,0
69360,note_on,0,0,2,,,,,,,,,1,,,76,101
69360,note_on,240,0,3,,,,,,,,,2,,,57,0
69360,note_on,0,0,3,,,,,,,,,2,,,45,0
69360,note_on,0,0,3,,,,,,,,,2,,,45,101
69360,note_on,0,0,1,,,,,,,,,0,,,84,101
69360,note_on,0,0,2,,,,,,,,,1,,,81,101
69360,note_on,0,0,4,,,,,,,,,3,,,33,101
69360,note_on,0,0,1,,,,,,,,,0,,,88,101
69360,note_on,240,0,1,,,,,,,,,0,,,93,0
69360,note_on,240,0,4,,,,,,,,,3,,,33,0
69360,note_on,0,0,1,,,,,,,,,0,,,88,0
69360,note_on,0,0,1,,,,,,,,,0,,,93,101
69600,note_on,0,0,1,,,,,,,,,0,,,84,0
69600,note_on,0,0,1,,,,,,,,,0,,,84,101
69600,note_on,0,0,1,,,,,,,,,0,,,93,101
69600,note_on,240,0,2,,,,,,,,,1,,,81,0
69600,note_on,0,0,2,,,,,,,,,1,,,72,0
69600,note_on,0,0,2,,,,,,,,,1,,,72,101
69600,note_on,0,0,2,,,,,,,,,1,,,76,101
69600,note_on,0,0,2,,,,,,,,,1,,,81,101
69600,note_on,240,0,4,,,,,,,,,3,,,33,0
69600,note_on,0,0,2,,,,,,,,,1,,,76,0
69600,note_on,0,0,1,,,,,,,,,0,,,88,0
69600,note_on,0,0,1,,,,,,,,,0,,,88,101
69600,note_on,240,0,3,,,,,,,,,2,,,57,0
69600,note_on,0,0,3,,,,,,,,,2,,,45,0
69600,note_on,0,0,4,,,,,,,,,3,,,33,101
69600,note_on,0,0,3,,,,,,,,,2,,,45,101
69600,note_on,0,0,3,,,,,,,,,2,,,57,101
69600,note_on,240,0,1,,,,,,,,,0,,,93,0
71040,note_on,0,0,1,,,,,,,,,0,,,84,0
71040,note_on,0,0,1,,,,,,,,,0,,,81,101
71040,note_on,0,0,1,,,,,,,,,0,,,84,101
71040,note_on,0,0,1,,,,,,,,,0,,,88,101
71040,note_on,0,0,2,,,,,,,,,1,,,76,101
71040,note_on,0,0,2,,,,,,,,,1,,,72,101
71040,note_on,0,0,2,,,,,,,,,1,,,69,101
71040,note_on,0,0,2,,,,,,,,,1,,,72,0
71040,note_on,0,0,2,,,,,,,,,1,,,76,0
71040,note_on,1440,0,4,,,,,,,,,3,,,33,0
71040,note_on,0,0,4,,,,,,,,,3,,,33,101
71040,note_on,1440,0,2,,,,,,,,,1,,,81,0
71040,note_on,0,0,1,,,,,,,,,0,,,88,0
71040,note_on,1440,0,1,,,,,,,,,0,,,93,0
71040,note_on,0,0,3,,,,,,,,,2,,,45,0
71040,note_on,0,0,3,,,,,,,,,2,,,45,101
71040,note_on,0,0,3,,,,,,,,,2,,,57,101
71040,note_on,1440,0,3,,,,,,,,,2,,,57,0
71280,note_on,0,0,1,,,,,,,,,0,,,81,101
71280,note_on,0,0,1,,,,,,,,,0,,,81,0
71280,note_on,0,0,1,,,,,,,,,0,,,84,0
71280,note_on,240,0,1,,,,,,,,,0,,,88,0
71280,note_on,0,0,1,,,,,,,,,0,,,84,101
71280,note_on,0,0,1,,,,,,,,,0,,,88,101
71280,note_on,240,0,4,,,,,,,,,3,,,33,0
71280,note_on,0,0,3,,,,,,,,,2,,,45,101
71280,note_on,0,0,3,,,,,,,,,2,,,57,101
71280,note_on,240,0,2,,,,,,,,,1,,,76,0
71280,note_on,0,0,3,,,,,,,,,2,,,45,0
71280,note_on,240,0,3,,,,,,,,,2,,,57,0
71280,note_on,0,0,2,,,,,,,,,1,,,76,101
71280,note_on,0,0,2,,,,,,,,,1,,,72,101
71280,note_on,0,0,2,,,,,,,,,1,,,69,101
71280,note_on,0,0,2,,,,,,,,,1,,,69,0
71280,note_on,0,0,2,,,,,,,,,1,,,72,0
71280,note_on,0,0,4,,,,,,,,,3,,,33,101
71520,note_on,0,0,1,,,,,,,,,0,,,84,101
71520,note_on,0,0,4,,,,,,,,,3,,,33,101
71520,note_on,240,0,4,,,,,,,,,3,,,33,0
71520,note_on,0,0,1,,,,,,,,,0,,,81,101
71520,note_on,0,0,1,,,,,,,,,0,,,81,0
71520,note_on,240,0,3,,,,,,,,,2,,,57,0
71520,note_on,0,0,3,,,,,,,,,2,,,45,0
71520,note_on,0,0,2,,,,,,,,,1,,,72,101
71520,note_on,0,0,3,,,,,,,,,2,,,57,101
71520,note_on,0,0,2,,,,,,,,,1,,,76,101
71520,note_on,240,0,1,,,,,,,,,0,,,88,0
71520,note_on,0,0,1,,,,,,,,,0,,,88,101
71520,note_on,240,0,2,,,,,,,,,1,,,76,0
71520,note_on,0,0,2,,,,,,,,,1,,,72,0
71520,note_on,0,0,2,,,,,,,,,1,,,69,0
71520,note_on,0,0,2,,,,,,,,,1,,,69,101
71520,note_on,0,0,3,,,,,,,,,2,,,45,101
71520,note_on,0,0,1,,,,,,,,,0,,,84,0
72000,note_on,0,0,1,,,,,,,,,0,,,81,0
72000,note_on,0,0,1,,,,,,,,,0,,,81,101
72000,note_on,0,0,4,,,,,,,,,3,,,33,101
72000,note_on,480,0,4,,,,,,,,,3,,,33,0
72000,note_on,0,0,1,,,,,,,,,0,,,84,101
72000,note_on,0,0,1,,,,,,,,,0,,,84,0
72000,note_on,0,0,3,,,,,,,,,2,,,57,101
72000,note_on,480,0,2,,,,,,,,,1,,,76,0
72000,note_on,0,0,2,,,,,,,,,1,,,72,0
72000,note_on,0,0,2,,,,,,,,,1,,,69,0
72000,note_on,0,0,2,,,,,,,,,1,,,64,101
72000,note_on,0,0,2,,,,,,,,,1,,,69,101
72000,note_on,480,0,1,,,,,,,,,0,,,88,0
72000,note_on,0,0,3,,,,,,,,,2,,,45,101
72000,note_on,0,0,3,,,,,,,,,2,,,45,0
72000,note_on,480,0,3,,,,,,,,,2,,,57,0
72000,note_on,0,0,1,,,,,,,,,0,,,76,101
72000,note_on,0,0,2,,,,,,,,,1,,,72,101
72240,note_on,240,0,2,,,,,,,,,1,,,72,0
72240,note_on,0,0,1,,,,,,,,,0,,,84,101
72240,note_on,0,0,1,,,,,,,,,0,,,81,101
72240,note_on,0,0,1,,,,,,,,,0,,,76,101
72240,note_on,0,0,1,,,,,,,,,0,,,76,0
72240,note_on,0,0,1,,,,,,,,,0,,,81,0
72240,note_on,0,0,3,,,,,,,,,2,,,57,101
72240,note_on,0,0,3,,,,,,,,,2,,,45,101
72240,note_on,0,0,3,,,,,,,,,2,,,45,0
72240,note_on,0,0,4,,,,,,,,,3,,,33,101
72240,note_on,240,0,4,,,,,,,,,3,,,33,0
72240,note_on,240,0,1,,,,,,,,,0,,,84,0
72240,note_on,0,0,2,,,,,,,,,1,,,72,101
72240,note_on,0,0,2,,,,,,,,,1,,,69,101
72240,note_on,0,0,2,,,,,,,,,1,,,64,101
72240,note_on,0,0,2,,,,,,,,,1,,,69,0
72240,note_on,240,0,3,,,,,,,,,2,,,57,0
72240,note_on,0,0,2,,,,,,,,,1,,,64,0
72480,note_on,240,0,3,,,,,,,,,2,,,57,0
72480,note_on,0,0,3,,,,,,,,,2,,,45,0
72480,note_on,0,0,3,,,,,,,,,2,,,45,101
72480,note_on,0,0,3,,,,,,,,,2,,,57,101
72480,note_on,0,0,1,,,,,,,,,0,,,81,0
72480,note_on,0,0,2,,,,,,,,,1,,,72,101
72480,note_on,0,0,2,,,,,,,,,1,,,69,101
72480,note_on,0,0,2,,,,,,,,,1,,,64,101
72480,note_on,0,0,2,,,,,,,,,1,,,64,0
72480,note_on,0,0,2,,,,,,,,,1,,,69,0
72480,note_on,240,0,2,,,,,,,,,1,,,72,0
72480,note_on,240,0,4,,,,,,,,,3,,,33,0
72480,note_on,0,0,4,,,,,,,,,3,,,33,101
72480,note_on,0,0,1,,,,,,,,,0,,,76,0
72480,note_on,0,0,1,,,,,,,,,0,,,84,101
72480,note_on,0,0,1,,,,,,,,,0,,,81,101
72480,note_on,0,0,1,,,,,,,,,0,,,76,101
72480,note_on,240,0,1,,,,,,,,,0,,,84,0
72960,note_on,0,0,3,,,,,,,,,2,,,45,0
72960,note_on,480,0,3,,,,,,,,,2,,,57,0
72960,note_on,480,0,4,,,,,,,,,3,,,33,0
72960,note_on,0,0,3,,,,,,,,,2,,,45,101
72960,note_on,0,0,4,,,,,,,,,3,,,33,101
72960,note_on,0,0,3,,,,,,,,,2,,,57,101
72960,note_on,0,0,1,,,,,,,,,0,,,72,101
72960,note_on,0,0,1,,,,,,,,,0,,,76,0
72960,note_on,0,0,1,,,,,,,,,0,,,81,101
72960,note_on,0,0,1,,,,,,,,,0,,,76,101
72960,note_on,0,0,2,,,,,,,,,1,,,69,101
72960,note_on,0,0,2,,,,,,,,,1,,,60,101
72960,note_on,0,0,2,,,,,,,,,1,,,64,0
72960,note_on,0,0,2,,,,,,,,,1,,,69,0
72960,note_on,0,0,2,,,,,,,,,1,,,64,101
72960,note_on,480,0,1,,,,,,,,,0,,,84,0
72960,note_on,0,0,1,,,,,,,,,0,,,81,0
72960,note_on,480,0,2,,,,,,,,,1,,,72,0
73200,note_on,0,0,1,,,,,,,,,0,,,76,101
73200,note_on,240,0,3,,,,,,,,,2,,,57,0
73200,note_on,240,0,2,,,,,,,,,1,,,69,0
73200,note_on,0,0,2,,,,,,,,,1,,,60,0
73200,note_on,0,0,2,,,,,,,,,1,,,60,101
73200,note_on,0,0,2,,,,,,,,,1,,,64,101
73200,note_on,0,0,2,,,,,,,,,1,,,69,101
73200,note_on,0,0,1,,,,,,,,,0,,,81,101
73200,note_on,0,0,4,,,,,,,,,3,,,33,101
73200,note_on,240,0,4,,,,,,,,,3,,,33,0
73200,note_on,0,0,1,,,,,,,,,0,,,72,101
73200,note_on,0,0,2,,,,,,,,,1,,,64,0
73200,note_on,0,0,1,,,,,,,,,0,,,76,0
73200,note_on,240,0,1,,,,,,,,,0,,,81,0
73200,note_on,0,0,3,,,,,,,,,2,,,45,0
73200,note_on,0,0,3,,,,,,,,,2,,,45,101
73200,note_on,0,0,1,,,,,,,,,0,,,72,0
73200,note_on,0,0,3,,,,,,,,,2,,,57,101
73440,note_on,0,0,1,,,,,,,,,0,,,76,0
73440,note_on,240,0,3,,,,,,,,,2,,,57,0
73440,note_on,0,0,3,,,,,,,,,2,,,45,0
73440,note_on,0,0,3,,,,,,,,,2,,,45,127
73440,note_on,0,0,2,,,,,,,,,1,,,69,127
73440,note_on,0,0,1,,,,,,,,,0,,,72,0
73440,note_on,0,0,2,,,,,,,,,1,,,64,127
73440,note_on,0,0,2,,,,,,,,,1,,,60,127
73440,note_on,0,0,2,,,,,,,,,1,,,60,0
73440,note_on,0,0,2,,,,,,,,,1,,,64,0
73440,note_on,0,0,3,,,,,,,,,2,,,57,127
73440,note_on,0,0,1,,,,,,,,,0,,,72,127
73440,note_on,0,0,1,,,,,,,,,0,,,76,127
73440,note_on,0,0,1,,,,,,,,,0,,,81,127
73440,note_on,0,0,4,,,,,,,,,3,,,33,127
73440,note_on,240,0,4,,,,,,,,,3,,,33,0
73440,note_on,240,0,1,,,,,,,,,0,,,81,0
73440,note_on,240,0,2,,,,,,,,,1,,,69,0
73920,note_on,480,0,1,,,,,,,,,0,,,81,0
73920,note_on,0,0,1,,,,,,,,,0,,,76,0
73920,note_on,0,0,1,,,,,,,,,0,,,72,0
73920,note_on,0,0,1,,,,,,,,,0,,,73,101
73920,note_on,0,0,1,,,,,,,,,0,,,76,101
73920,note_on,0,0,1,,,,,,,,,0,,,79,101
73920,note_on,480,0,3,,,,,,,,,2,,,57,0
73920,note_on,0,0,3,,,,,,,,,2,,,45,0
73920,note_on,0,0,4,,,,,,,,,3,,,33,101
73920,note_on,480,0,4,,,,,,,,,3,,,33,0
73920,note_on,0,0,3,,,,,,,,,2,,,57,101
73920,note_on,0,0,3,,,,,,,,,2,,,45,101
73920,note_on,0,0,2,,,,,,,,,1,,,64,101
73920,note_on,480,0,2,,,,,,,,,1,,,69,0
73920,note_on,0,0,2,,,,,,,,,1,,,64,0
73920,note_on,0,0,2,,,,,,,,,1,,,60,0
73920,note_on,0,0,2,,,,,,,,,1,,,61,101
73920,note_on,0,0,2,,,,,,,,,1,,,67,101
74400,note_on,0,0,3,,,,,,,,,2,,,45,0
74400,note_on,0,0,2,,,,,,,,,1,,,64,0
74400,note_on,480,0,3,,,,,,,,,2,,,57,0
74400,note_on,0,0,1,,,,,,,,,0,,,73,0
74400,note_on,0,0,1,,,,,,,,,0,,,76,0
74400,note_on,0,0,2,,,,,,,,,1,,,61,0
74400,note_on,480,0,4,,,,,,,,,3,,,33,0
74400,note_on,480,0,2,,,,,,,,,1,,,67,0
74400,note_on,480,0,1,,,,,,,,,0,,,79,0
74880,note_on,0,0,2,,,,,,,,,1,,,67,101
74880,note_on,480,0,3,,,,,,,,,2,,,45,101
74880,note_on,480,0,4,,,,,,,,,3,,,33,101
74880,note_on,480,0,1,,,,,,,,,0,,,73,101
74880,note_on,0,0,3,,,,,,,,,2,,,57,101
74880,note_on,0,0,2,,,,,,,,,1,,,64,101
74880,note_on,0,0,1,,,,,,,,,0,,,79,101
74880,note_on,0,0,1,,,,,,,,,0,,,76,101
74880,note_on,480,0,2,,,,,,,,,1,,,61,101
75120,note_on,0,0,1,,,,,,,,,0,,,73,0
75120,note_on,0,0,1,,,,,,,,,0,,,79,101
75120,note_on,240,0,3,,,,,,,,,2,,,57,0
75120,note_on,0,0,3,,,,,,,,,2,,,45,0
75120,note_on,0,0,3,,,,,,,,,2,,,45,101
75120,note_on,0,0,3,,,,,,,,,2,,,57,101
75120,note_on,0,0,4,,,,,,,,,3,,,33,101
75120,note_on,240,0,1,,,,,,,,,0,,,79,0
75120,note_on,240,0,4,,,,,,,,,3,,,33,0
75120,note_on,0,0,1,,,,,,,,,0,,,76,101
75120,note_on,0,0,2,,,,,,,,,1,,,67,101
75120,note_on,0,0,2,,,,,,,,,1,,,64,101
75120,note_on,0,0,2,,,,,,,,,1,,,61,101
75120,note_on,0,0,2,,,,,,,,,1,,,61,0
75120,note_on,0,0,2,,,,,,,,,1,,,64,0
75120,note_on,0,0,1,,,,,,,,,0,,,73,101
75120,note_on,0,0,1,,,,,,,,,0,,,76,0
75120,note_on,240,0,2,,,,,,,,,1,,,67,0
75360,note_on,240,0,1,,,,,,,,,0,,,79,0
75360,note_on,0,0,1,,,,,,,,,0,,,76,0
75360,note_on,0,0,1,,,,,,,,,0,,,73,0
75360,note_on,0,0,1,,,,,,,,,0,,,73,127
75360,note_on,0,0,1,,,,,,,,,0,,,76,127
75360,note_on,0,0,1,,,,,,,,,0,,,79,127
75360,note_on,240,0,3,,,,,,,,,2,,,57,0
75360,note_on,0,0,4,,,,,,,,,3,,,33,127
75360,note_on,0,0,3,,,,,,,,,2,,,57,127
75360,note_on,0,0,3,,,,,,,,,2,,,45,127
75360,note_on,0,0,3,,,,,,,,,2,,,45,0
75360,note_on,240,0,2,,,,,,,,,1,,,67,0
75360,note_on,0,0,2,,,,,,,,,1,,,64,0
75360,note_on,0,0,2,,,,,,,,,1,,,61,0
75360,note_on,0,0,2,,,,,,,,,1,,,61,127
75360,note_on,0,0,2,,,,,,,,,1,,,64,127
75360,note_on,0,0,2,,,,,,,,,1,,,67,127
75360,note_on,240,0,4,,,,,,,,,3,,,33,0
75840,note_on,0,0,1,,,,,,,,,0,,,74,101
75840,note_on,480,0,1,,,,,,,,,0,,,79,0
75840,note_on,0,0,1,,,,,,,,,0,,,76,0
75840,note_on,0,0,1,,,,,,,,,0,,,73,0
75840,note_on,0,0,1,,,,,,,,,0,,,77,101
75840,note_on,480,0,2,,,,,,,,,1,,,67,0
75840,note_on,480,0,4,,,,,,,,,3,,,33,0
75840,note_on,0,0,2,,,,,,,,,1,,,65,101
75840,note_on,0,0,2,,,,,,,,,1,,,62,101
75840,note_on,0,0,2,,,,,,,,,1,,,61,0
75840,note_on,0,0,2,,,,,,,,,1,,,64,0
75840,note_on,480,0,3,,,,,,,,,2,,,57,0
75840,note_on,0,0,4,,,,,,,,,3,,,33,101
75840,note_on,0,0,3,,,,,,,,,2,,,45,0
75840,note_on,0,0,3,,,,,,,,,2,,,45,101
75840,note_on,0,0,3,,,,,,,,,2,,,57,101
76320,note_on,0,0,2,,,,,,,,,1,,,62,0
76320,note_on,480,0,2,,,,,,,,,1,,,65,0
76320,note_on,480,0,4,,,,,,,,,3,,,33,0
76320,note_on,480,0,1,,,,,,,,,0,,,77,0
76320,note_on,480,0,3,,,,,,,,,2,,,57,0
76320,note_on,0,0,3,,,,,,,,,2,,,45,0
76320,note_on,0,0,1,,,,,,,,,0,,,74,0
76800,note_on,480,0,2,,,,,,,,,1,,,65,101
76800,note_on,480,0,1,,,,,,,,,0,,,70,101
76800,note_on,0,0,1,,,,,,,,,0,,,74,101
76800,note_on,0,0,1,,,,,,,,,0,,,77,101
76800,note_on,480,0,4,,,,,,,,,3,,,33,101
76800,note_on,0,0,4,,,,,,,,,3,,,45,101
76800,note_on,480,0,3,,,,,,,,,2,,,56,101
77040,note_on,240,0,3,,,,,,,,,2,,,56,0
77040,note_on,0,0,2,,,,,,,,,1,,,65,101
77040,note_on,240,0,2,,,,,,,,,1,,,65,0
77040,note_on,240,0,1,,,,,,,,,0,,,77,0
77040,note_on,0,0,1,,,,,,,,,0,,,74,0
77040,note_on,0,0,1,,,,,,,,,0,,,70,0
77040,note_on,0,0,1,,,,,,,,,0,,,69,101
77040,note_on,240,0,4,,,,,,,,,3,,,45,0
77040,note_on,0,0,4,,,,,,,,,3,,,45,101
77040,note_on,0,0,4,,,,,,,,,3,,,33,101
77040,note_on,0,0,4,,,,,,,,,3,,,33,0
77040,note_on,0,0,1,,,,,,,,,0,,,74,101
77040,note_on,0,0,1,,,,,,,,,0,,,77,101
77040,note_on,0,0,3,,,,,,,,,2,,,57,101
77280,note_on,240,0,4,,,,,,,,,3,,,45,0
77280,note_on,0,0,3,,,,,,,,,2,,,59,101
77280,note_on,0,0,3,,,,,,,,,2,,,47,101
77280,note_on,240,0,3,,,,,,,,,2,,,57,0
77280,note_on,0,0,4,,,,,,,,,3,,,33,101
77280,note_on,0,0,4,,,,,,,,,3,,,33,0
77280,note_on,0,0,4,,,,,,,,,3,,,45,101
77280,note_on,240,0,1,,,,,,,,,0,,,77,0
77280,note_on,0,0,1,,,,,,,,,0,,,74,0
77280,note_on,0,0,1,,,,,,,,,0,,,77,101
77280,note_on,0,0,1,,,,,,,,,0,,,74,101
77280,note_on,0,0,1,,,,,,,,,0,,,68,101
77280,note_on,240,0,2,,,,,,,,,1,,,65,0
77280,note_on,0,0,2,,,,,,,,,1,,,65,101
77280,note_on,0,0,1,,,,,,,,,0,,,69,0
77327,note_on,47,0,4,,,,,,,,,3,,,45,0
77327,note_on,0,0,4,,,,,,,,,3,,,33,0
77327,note_on,0,0,3,,,,,,,,,2,,,47,0
77327,note_on,47,0,3,,,,,,,,,2,,,59,0
77327,note_on,0,0,1,,,,,,,,,0,,,74,0
77327,note_on,0,0,1,,,,,,,,,0,,,68,0
77327,note_on,47,0,2,,,,,,,,,1,,,65,0
77327,note_on,47,0,1,,,,,,,,,0,,,77,0
77760,note_on,0,0,1,,,,,,,,,0,,,77,101
77760,note_on,0,0,1,,,,,,,,,0,,,74,101
77760,note_on,433,0,1,,,,,,,,,0,,,68,101
77760,note_on,433,0,3,,,,,,,,,2,,,47,101
77760,note_on,0,0,4,,,,,,,,,3,,,45,101
77760,note_on,433,0,4,,,,,,,,,3,,,33,101
77760,note_on,433,0,2,,,,,,,,,1,,,65,101
77760,note_on,0,0,3,,,,,,,,,2,,,59,101
77807,note_on,47,0,1,,,,,,,,,0,,,77,0
77807,note_on,0,0,1,,,,,,,,,0,,,68,0
77807,note_on,0,0,4,,,,,,,,,3,,,33,0
77807,note_on,47,0,4,,,,,,,,,3,,,45,0
77807,note_on,0,0,1,,,,,,,,,0,,,74,0
77807,note_on,0,0,3,,,,,,,,,2,,,47,0
77807,note_on,47,0,2,,,,,,,,,1,,,65,0
77807,note_on,47,0,3,,,,,,,,,2,,,59,0
78240,note_on,433,0,1,,,,,,,,,0,,,68,101
78240,note_on,0,0,1,,,,,,,,,0,,,74,101
78240,note_on,0,0,1,,,,,,,,,0,,,77,101
78240,note_on,433,0,4,,,,,,,,,3,,,33,101
78240,note_on,0,0,4,,,,,,,,,3,,,45,101
78240,note_on,433,0,3,,,,,,,,,2,,,47,101
78240,note_on,433,0,2,,,,,,,,,1,,,65,101
78240,note_on,0,0,3,,,,,,,,,2,,,59,101
78287,note_on,0,0,1,,,,,,,,,0,,,68,0
78287,note_on,0,0,4,,,,,,,,,3,,,33,0
78287,note_on,47,0,4,,,,,,,,,3,,,45,0
78287,note_on,47,0,2,,,,,,,,,1,,,65,0
78287,note_on,47,0,1,,,,,,,,,0,,,77,0
78287,note_on,0,0,3,,,,,,,,,2,,,47,0
78287,note_on,47,0,3,,,,,,,,,2,,,59,0
78287,note_on,0,0,1,,,,,,,,,0,,,74,0
78720,note_on,0,0,3,,,,,,,,,2,,,59,101
78720,note_on,433,0,4,,,,,,,,,3,,,33,101
78720,note_on,0,0,4,,,,,,,,,3,,,45,101
78720,note_on,433,0,3,,,,,,,,,2,,,47,101
78720,note_on,433,0,2,,,,,,,,,1,,,65,101
78720,note_on,0,0,1,,,,,,,,,0,,,77,101
78720,note_on,0,0,1,,,,,,,,,0,,,74,101
78720,note_on,433,0,1,,,,,,,,,0,,,68,101
78767,note_on,47,0,3,,,,,,,,,2,,,59,0
78767,note_on,47,0,2,,,,,,,,,1,,,65,0
78767,note_on,47,0,1,,,,,,,,,0,,,77,0
78767,note_on,0,0,1,,,,,,,,,0,,,74,0
78767,note_on,0,0,1,,,,,,,,,0,,,68,0
78767,note_on,0,0,4,,,,,,,,,3,,,33,0
78767,note_on,47,0,4,,,,,,,,,3,,,45,0
78767,note_on,0,0,3,,,,,,,,,2,,,47,0
79200,note_on,0,0,1,,,,,,,,,0,,,77,101
79200,note_on,0,0,3,,,,,,,,,2,,,59,101
79200,note_on,433,0,1,,,,,,,,,0,,,68,101
79200,note_on,433,0,3,,,,,,,,,2,,,47,101
79200,note_on,433,0,4,,,,,,,,,3,,,33,101
79200,note_on,0,0,4,,,,,,,,,3,,,45,101
79200,note_on,433,0,2,,,,,,,,,1,,,65,101
79200,note_on,0,0,1,,,,,,,,,0,,,74,101
79680,note_on,0,0,3,,,,,,,,,2,,,60,101
79680,note_on,0,0,3,,,,,,,,,2,,,48,101
79680,note_on,480,0,4,,,,,,,,,3,,,45,0
79680,note_on,0,0,3,,,,,,,,,2,,,47,0
79680,note_on,480,0,3,,,,,,,,,2,,,59,0
79680,note_on,0,0,4,,,,,,,,,3,,,33,0
79680,note_on,0,0,4,,,,,,,,,3,,,33,101
79680,note_on,0,0,2,,,,,,,,,1,,,64,101
79680,note_on,480,0,2,,,,,,,,,1,,,65,0
79680,note_on,480,0,1,,,,,,,,,0,,,77,0
79680,note_on,0,0,1,,,,,,,,,0,,,74,0
79680,note_on,0,0,1,,,,,,,,,0,,,68,0
79680,note_on,0,0,1,,,,,,,,,0,,,69,101
79680,note_on,0,0,1,,,,,,,,,0,,,72,101
79680,note_on,0,0,1,,,,,,,,,0,,,76,101
79680,note_on,0,0,4,,,,,,,,,3,,,45,101
80160,note_on,480,0,3,,,,,,,,,2,,,60,0
80160,note_on,0,0,3,,,,,,,,,2,,,48,0
80160,note_on,480,0,4,,,,,,,,,3,,,45,0
80160,note_on,0,0,4,,,,,,,,,3,,,33,0
80160,note_on,480,0,2,,,,,,,,,1,,,64,0
80160,note_on,480,0,1,,,,,,,,,0,,,76,0
80160,note_on,0,0,1,,,,,,,,,0,,,69,0
80160,note_on,0,0,1,,,,,,,,,0,,,72,0
80640,note_on,0,0,2,,,,,,,,,1,,,64,101
80640,note_on,480,0,4,,,,,,,,,3,,,33,101
80640,note_on,480,0,1,,,,,,,,,0,,,72,101
80640,note_on,0,0,1,,,,,,,,,0,,,76,101
80640,note_on,0,0,1,,,,,,,,,0,,,81,101
80640,note_on,0,0,4,,,,,,,,,3,,,45,101
80640,note_on,0,0,3,,,,,,,,,2,,,57,101
80640,note_on,480,0,3,,,,,,,,,2,,,52,101
80640,note_on,0,0,2,,,,,,,,,1,,,69,101
80640,note_on,480,0,2,,,,,,,,,1,,,60,101
81120,note_on,0,0,2,,,,,,,,,1,,,62,127
81120,note_on,0,0,2,,,,,,,,,1,,,70,127
81120,note_on,0,0,1,,,,,,,,,0,,,76,0
81120,note_on,0,0,2,,,,,,,,,1,,,60,0
81120,note_on,0,0,2,,,,,,,,,1,,,64,0
81120,note_on,480,0,2,,,,,,,,,1,,,69,0
81120,note_on,0,0,2,,,,,,,,,1,,,65,127
81120,note_on,0,0,1,,,,,,,,,0,,,82,127
81120,note_on,0,0,3,,,,,,,,,2,,,58,127
81120,note_on,0,0,3,,,,,,,,,2,,,53,127
81120,note_on,0,0,3,,,,,,,,,2,,,52,0
81120,note_on,480,0,3,,,,,,,,,2,,,57,0
81120,note_on,0,0,1,,,,,,,,,0,,,74,127
81120,note_on,0,0,1,,,,,,,,,0,,,77,127
81120,note_on,0,0,4,,,,,,,,,3,,,50,127
81120,note_on,0,0,4,,,,,,,,,3,,,38,127
81120,note_on,0,0,4,,,,,,,,,3,,,33,0
81120,note_on,480,0,4,,,,,,,,,3,,,45,0
81120,note_on,0,0,1,,,,,,,,,0,,,72,0
81120,note_on,480,0,1,,,,,,,,,0,,,81,0
82080,note_on,0,0,3,,,,,,,,,2,,,53,0
82080,note_on,960,0,3,,,,,,,,,2,,,58,0
82080,note_on,0,0,2,,,,,,,,,1,,,65,0
82080,note_on,960,0,2,,,,,,,,,1,,,70,0
82080,note_on,0,0,2,,,,,,,,,1,,,62,0
82080,note_on,0,0,4,,,,,,,,,3,,,38,0
82080,note_on,960,0,1,,,,,,,,,0,,,82,0
82080,note_on,0,0,1,,,,,,,,,0,,,77,0
82080,note_on,0,0,1,,,,,,,,,0,,,74,0
82080,note_on,0,0,1,,,,,,,,,0,,,65,127
82080,note_on,0,0,1,,,,,,,,,0,,,70,127
82080,note_on,0,0,1,,,,,,,,,0,,,74,127
82080,note_on,960,0,4,,,,,,,,,3,,,50,0
83040,note_on,0,0,1,,,,,,,,,0,,,74,101
83040,note_on,0,0,1,,,,,,,,,0,,,70,101
83040,note_on,0,0,1,,,,,,,,,0,,,77,101
83040,note_on,0,0,1,,,,,,,,,0,,,70,0
83040,note_on,960,0,1,,,,,,,,,0,,,74,0
83040,note_on,0,0,1,,,,,,,,,0,,,65,0
83087,note_on,0,0,1,,,,,,,,,0,,,74,0
83087,note_on,0,0,1,,,,,,,,,0,,,70,0
83087,note_on,47,0,1,,,,,,,,,0,,,77,0
83520,note_on,433,0,1,,,,,,,,,0,,,74,101
83520,note_on,0,0,1,,,,,,,,,0,,,77,101
83520,note_on,0,0,1,,,,,,,,,0,,,82,101
83567,note_on,0,0,1,,,,,,,,,0,,,74,0
83567,note_on,47,0,1,,,,,,,,,0,,,82,0
83567,note_on,0,0,1,,,,,,,,,0,,,77,0
84000,note_on,0,0,1,,,,,,,,,0,,,82,101
84000,note_on,0,0,1,,,,,,,,,0,,,86,101
84000,note_on,433,0,1,,,,,,,,,0,,,77,101
84047,note_on,0,0,1,,,,,,,,,0,,,77,0
84047,note_on,0,0,1,,,,,,,,,0,,,82,0
84047,note_on,47,0,1,,,,,,,,,0,,,86,0
84480,note_on,2400,0,3,,,,,,,,,2,,,58,101
84480,note_on,0,0,1,,,,,,,,,0,,,77,101
84480,note_on,433,0,1,,,,,,,,,0,,,74,101
84480,note_on,2400,0,2,,,,,,,,,1,,,62,101
84480,note_on,0,0,1,,,,,,,,,0,,,82,101
84480,note_on,0,0,4,,,,,,,,,3,,,43,101
84480,control_change,2400,0,4,,,,,,,,,3,64,127,,
84527,note_on,47,0,1,,,,,,,,,0,,,82,0
84527,note_on,0,0,1,,,,,,,,,0,,,77,0
84527,note_on,0,0,1,,,,,,,,,0,,,74,0
84600,note_on,0,0,4,,,,,,,,,3,,,41,101
84600,note_on,120,0,4,,,,,,,,,3,,,43,0
84720,note_on,0,0,4,,,,,,,,,3,,,40,101
84720,note_on,120,0,4,,,,,,,,,3,,,41,0
84840,note_on,0,0,4,,,,,,,,,3,,,38,101
84840,note_on,120,0,4,,,,,,,,,3,,,40,0
84840,control_change,0,0,4,,,,,,,,,3,64,0,,
84960,note_on,480,0,2,,,,,,,,,1,,,62,0
84960,note_on,0,0,2,,,,,,,,,1,,,64,127
84960,note_on,0,0,4,,,,,,,,,3,,,37,127
84960,note_on,480,0,3,,,,,,,,,2,,,58,0
84960,note_on,0,0,3,,,,,,,,,2,,,57,127
84960,note_on,120,0,4,,,,,,,,,3,,,38,0
84960,note_on,433,0,1,,,,,,,,,0,,,76,127
84960,note_on,0,0,1,,,,,,,,,0,,,81,127
85920,note_on,960,0,1,,,,,,,,,0,,,81,0
85920,note_on,0,0,4,,,,,,,,,3,,,36,127
85920,note_on,0,0,2,,,,,,,,,1,,,66,127
85920,note_on,0,0,2,,,,,,,,,1,,,63,127
85920,note_on,960,0,2,,,,,,,,,1,,,64,0
85920,note_on,0,0,4,,,,,,,,,3,,,48,127
85920,note_on,960,0,4,,,,,,,,,3,,,37,0
85920,note_on,0,0,1,,,,,,,,,0,,,76,0
85920,note_on,960,0,3,,,,,,,,,2,,,57,0
85920,note_on,0,0,3,,,,,,,,,2,,,57,127
86880,note_on,960,0,4,,,,,,,,,3,,,48,0
86880,note_on,0,0,2,,,,,,,,,1,,,63,0
86880,note_on,0,0,3,,,,,,,,,2,,,58,101
86880,note_on,0,0,4,,,,,,,,,3,,,36,0
86880,note_on,0,0,2,,,,,,,,,1,,,67,101
86880,note_on,0,0,2,,,,,,,,,1,,,63,101
86880,note_on,960,0,3,,,,,,,,,2,,,57,0
86880,note_on,960,0,2,,,,,,,,,1,,,66,0
86880,note_on,0,0,4,,,,,,,,,3,,,46,101
86927,note_on,47,0,3,,,,,,,,,2,,,58,0
86927,note_on,0,0,2,,,,,,,,,1,,,63,0
86927,note_on,47,0,4,,,,,,,,,3,,,46,0
86927,note_on,47,0,2,,,,,,,,,1,,,67,0
87360,note_on,0,0,2,,,,,,,,,1,,,69,101
87360,note_on,0,0,2,,,,,,,,,1,,,66,101
87360,note_on,433,0,2,,,,,,,,,1,,,63,101
87360,note_on,433,0,4,,,,,,,,,3,,,45,101
87360,note_on,433,0,3,,,,,,,,,2,,,60,101
87407,note_on,47,0,2,,,,,,,,,1,,,69,0
87407,note_on,0,0,2,,,,,,,,,1,,,66,0
87407,note_on,47,0,4,,,,,,,,,3,,,45,0
87407,note_on,0,0,2,,,,,,,,,1,,,63,0
87407,note_on,47,0,3,,,,,,,,,2,,,60,0
87840,note_on,433,0,3,,,,,,,,,2,,,58,101
87840,note_on,0,0,2,,,,,,,,,1,,,67,101
87840,note_on,0,0,2,,,,,,,,,1,,,70,101
87840,note_on,433,0,2,,,,,,,,,1,,,63,101
87840,note_on,433,0,4,,,,,,,,,3,,,43,101
87887,note_on,47,0,3,,,,,,,,,2,,,58,0
87887,note_on,0,0,2,,,,,,,,,1,,,63,0
87887,note_on,0,0,2,,,,,,,,,1,,,67,0
87887,note_on,47,0,2,,,,,,,,,1,,,70,0
87887,note_on,47,0,4,,,,,,,,,3,,,43,0
88320,note_on,433,0,3,,,,,,,,,2,,,53,101
88320,note_on,0,0,3,,,,,,,,,2,,,55,101
88320,note_on,0,0,2,,,,,,,,,1,,,71,101
88320,note_on,0,0,2,,,,,,,,,1,,,67,101
88320,note_on,433,0,2,,,,,,,,,1,,,65,101
88320,note_on,433,0,4,,,,,,,,,3,,,41,101
88320,note_on,2400,0,1,,,,,,,,,0,,,79,101
88320,note_on,0,0,3,,,,,,,,,2,,,59,101
88367,note_on,47,0,1,,,,,,,,,0,,,79,0
88367,note_on,0,0,3,,,,,,,,,2,,,55,0
88367,note_on,0,0,2,,,,,,,,,1,,,65,0
88367,note_on,0,0,2,,,,,,,,,1,,,67,0
88367,note_on,47,0,2,,,,,,,,,1,,,71,0
88367,note_on,0,0,3,,,,,,,,,2,,,53,0
88367,note_on,47,0,3,,,,,,,,,2,,,59,0
88479,note_on,0,0,4,,,,,,,,,3,,,39,101
88479,note_on,159,0,4,,,,,,,,,3,,,41,0
88640,note_on,0,0,4,,,,,,,,,3,,,38,101
88640,note_on,161,0,4,,,,,,,,,3,,,39,0
88800,note_on,0,0,1,,,,,,,,,0,,,80,101
88800,note_on,433,0,1,,,,,,,,,0,,,75,101
88800,note_on,0,0,2,,,,,,,,,1,,,68,101
88800,note_on,0,0,4,,,,,,,,,3,,,36,101
88800,note_on,433,0,2,,,,,,,,,1,,,63,101
88800,note_on,433,0,3,,,,,,,,,2,,,51,101
88800,note_on,0,0,3,,,,,,,,,2,,,56,101
88800,note_on,0,0,3,,,,,,,,,2,,,60,101
88800,note_on,0,0,2,,,,,,,,,1,,,72,101
88800,note_on,160,0,4,,,,,,,,,3,,,38,0
89760,note_on,0,0,2,,,,,,,,,1,,,63,0
89760,note_on,0,0,2,,,,,,,,,1,,,68,0
89760,note_on,960,0,2,,,,,,,,,1,,,72,0
89760,note_on,960,0,1,,,,,,,,,0,,,80,0
89760,note_on,0,0,1,,,,,,,,,0,,,75,0
89760,note_on,0,0,1,,,,,,,,,0,,,63,101
89760,note_on,0,0,1,,,,,,,,,0,,,68,101
89760,note_on,960,0,4,,,,,,,,,3,,,36,0
89760,note_on,960,0,3,,,,,,,,,2,,,60,0
89760,note_on,0,0,3,,,,,,,,,2,,,56,0
89760,note_on,0,0,3,,,,,,,,,2,,,51,0
89760,note_on,0,0,1,,,,,,,,,0,,,72,101
90720,note_on,960,0,1,,,,,,,,,0,,,72,0
90720,note_on,0,0,1,,,,,,,,,0,,,68,0
90720,note_on,0,0,1,,,,,,,,,0,,,63,0
90720,note_on,0,0,1,,,,,,,,,0,,,68,101
90720,note_on,0,0,1,,,,,,,,,0,,,72,101
90720,note_on,0,0,1,,,,,,,,,0,,,75,101
90767,note_on,47,0,1,,,,,,,,,0,,,75,0
90767,note_on,0,0,1,,,,,,,,,0,,,72,0
90767,note_on,0,0,1,,,,,,,,,0,,,68,0
91200,note_on,0,0,1,,,,,,,,,0,,,80,101
91200,note_on,433,0,1,,,,,,,,,0,,,72,101
91200,note_on,0,0,1,,,,,,,,,0,,,75,101
91247,note_on,47,0,1,,,,,,,,,0,,,80,0
91247,note_on,0,0,1,,,,,,,,,0,,,75,0
91247,note_on,0,0,1,,,,,,,,,0,,,72,0
91680,note_on,0,0,1,,,,,,,,,0,,,80,101
91680,note_on,0,0,1,,,,,,,,,0,,,84,101
91680,note_on,433,0,1,,,,,,,,,0,,,75,101
91727,note_on,0,0,1,,,,,,,,,0,,,80,0
91727,note_on,47,0,1,,,,,,,,,0,,,84,0
91727,note_on,0,0,1,,,,,,,,,0,,,75,0
92160,control_change,2400,0,4,,,,,,,,,3,64,127,,
92160,note_on,0,0,4,,,,,,,,,3,,,53,101
92160,note_on,2400,0,2,,,,,,,,,1,,,60,101
92160,note_on,0,0,1,,,,,,,,,0,,,75,101
92160,note_on,2400,0,3,,,,,,,,,2,,,56,101
92160,note_on,433,0,1,,,,,,,,,0,,,72,101
92160,note_on,0,0,1,,,,,,,,,0,,,80,101
92207,note_on,47,0,1,,,,,,,,,0,,,80,0
92207,note_on,0,0,1,,,,,,,,,0,,,75,0
92207,note_on,0,0,1,,,,,,,,,0,,,72,0
92280,note_on,0,0,4,,,,,,,,,3,,,51,101
92280,note_on,120,0,4,,,,,,,,,3,,,53,0
92400,note_on,0,0,4,,,,,,,,,3,,,50,101
92400,note_on,120,0,4,,,,,,,,,3,,,51,0
92520,control_change,0,0,4,,,,,,,,,3,64,0,,
92520,note_on,120,0,4,,,,,,,,,3,,,50,0
92520,note_on,0,0,4,,,,,,,,,3,,,48,101
92640,note_on,433,0,1,,,,,,,,,0,,,74,127
92640,note_on,0,0,4,,,,,,,,,3,,,47,127
92640,note_on,0,0,3,,,,,,,,,2,,,55,127
92640,note_on,120,0,4,,,,,,,,,3,,,48,0
92640,note_on,0,0,2,,,,,,,,,1,,,62,127
92640,note_on,480,0,2,,,,,,,,,1,,,60,0
92640,note_on,480,0,3,,,,,,,,,2,,,56,0
92640,note_on,0,0,1,,,,,,,,,0,,,79,127
93600,note_on,960,0,1,,,,,,,,,0,,,79,0
93600,note_on,0,0,2,,,,,,,,,1,,,64,127
93600,note_on,0,0,2,,,,,,,,,1,,,61,127
93600,note_on,960,0,2,,,,,,,,,1,,,62,0
93600,note_on,960,0,4,,,,,,,,,3,,,47,0
93600,note_on,0,0,4,,,,,,,,,3,,,46,127
93600,note_on,960,0,3,,,,,,,,,2,,,55,0
93600,note_on,0,0,3,,,,,,,,,2,,,55,127
93600,note_on,0,0,1,,,,,,,,,0,,,74,0
94560,note_on,960,0,3,,,,,,,,,2,,,55,0
94560,note_on,0,0,3,,,,,,,,,2,,,56,101
94560,note_on,0,0,2,,,,,,,,,1,,,61,101
94560,note_on,0,0,2,,,,,,,,,1,,,65,101
94560,note_on,0,0,2,,,,,,,,,1,,,61,0
94560,note_on,0,0,4,,,,,,,,,3,,,44,101
94560,note_on,960,0,4,,,,,,,,,3,,,46,0
94560,note_on,960,0,2,,,,,,,,,1,,,64,0
94607,note_on,47,0,4,,,,,,,,,3,,,44,0
94607,note_on,47,0,2,,,,,,,,,1,,,65,0
94607,note_on,0,0,2,,,,,,,,,1,,,61,0
94607,note_on,47,0,3,,,,,,,,,2,,,56,0
95040,note_on,433,0,3,,,,,,,,,2,,,58,101
95040,note_on,0,0,2,,,,,,,,,1,,,67,101
95040,note_on,0,0,2,,,,,,,,,1,,,64,101
95040,note_on,433,0,2,,,,,,,,,1,,,61,101
95040,note_on,433,0,4,,,,,,,,,3,,,43,101
95087,note_on,0,0,2,,,,,,,,,1,,,64,0
95087,note_on,47,0,2,,,,,,,,,1,,,67,0
95087,note_on,47,0,3,,,,,,,,,2,,,58,0
95087,note_on,47,0,4,,,,,,,,,3,,,43,0
95087,note_on,0,0,2,,,,,,,,,1,,,61,0
95520,note_on,433,0,2,,,,,,,,,1,,,61,101
95520,note_on,433,0,4,,,,,,,,,3,,,41,101
95520,note_on,0,0,2,,,,,,,,,1,,,68,101
95520,note_on,0,0,2,,,,,,,,,1,,,65,101
95520,note_on,433,0,3,,,,,,,,,2,,,56,101
95567,note_on,0,0,2,,,,,,,,,1,,,61,0
95567,note_on,0,0,2,,,,,,,,,1,,,65,0
95567,note_on,47,0,2,,,,,,,,,1,,,68,0
95567,note_on,47,0,4,,,,,,,,,3,,,41,0
95567,note_on,47,0,3,,,,,,,,,2,,,56,0
96000,note_on,433,0,4,,,,,,,,,3,,,39,101
96000,note_on,0,0,3,,,,,,,,,2,,,57,101
96000,note_on,0,0,3,,,,,,,,,2,,,53,101
96000,note_on,0,0,2,,,,,,,,,1,,,65,101
96000,note_on,0,0,2,,,,,,,,,1,,,69,101
96000,note_on,433,0,2,,,,,,,,,1,,,63,101
96000,note_on,433,0,3,,,,,,,,,2,,,51,101
96000,note_on,2400,0,1,,,,,,,,,0,,,77,101
96047,note_on,0,0,3,,,,,,,,,2,,,53,0
96047,note_on,47,0,3,,,,,,,,,2,,,57,0
96047,note_on,47,0,1,,,,,,,,,0,,,77,0
96047,note_on,47,0,2,,,,,,,,,1,,,69,0
96047,note_on,0,0,2,,,,,,,,,1,,,65,0
96047,note_on,0,0,2,,,,,,,,,1,,,63,0
96047,note_on,0,0,3,,,,,,,,,2,,,51,0
96159,note_on,159,0,4,,,,,,,,,3,,,39,0
96159,note_on,0,0,4,,,,,,,,,3,,,37,101
96320,note_on,0,0,4,,,,,,,,,3,,,35,101
96320,note_on,161,0,4,,,,,,,,,3,,,37,0
96480,note_on,0,0,3,,,,,,,,,2,,,58,101
96480,note_on,0,0,2,,,,,,,,,1,,,70,101
96480,note_on,0,0,2,,,,,,,,,1,,,66,101
96480,note_on,433,0,3,,,,,,,,,2,,,49,101
96480,note_on,0,0,4,,,,,,,,,3,,,34,101
96480,note_on,160,0,4,,,,,,,,,3,,,35,0
96480,note_on,433,0,1,,,,,,,,,0,,,73,101
96480,note_on,0,0,1,,,,,,,,,0,,,78,101
96480,note_on,0,0,3,,,,,,,,,2,,,54,101
96480,note_on,433,0,2,,,,,,,,,1,,,61,101
97440,note_on,960,0,3,,,,,,,,,2,,,58,0
97440,note_on,0,0,3,,,,,,,,,2,,,54,0
97440,note_on,0,0,3,,,,,,,,,2,,,49,0
97440,note_on,0,0,1,,,,,,,,,0,,,66,101
97440,note_on,0,0,1,,,,,,,,,0,,,70,101
97440,note_on,0,0,2,,,,,,,,,1,,,66,0
97440,note_on,960,0,2,,,,,,,,,1,,,70,0
97440,note_on,960,0,1,,,,,,,,,0,,,78,0
97440,note_on,0,0,1,,,,,,,,,0,,,73,0
97440,note_on,0,0,1,,,,,,,,,0,,,61,101
97440,note_on,960,0,4,,,,,,,,,3,,,34,0
97440,note_on,0,0,2,,,,,,,,,1,,,61,0
98400,note_on,0,0,1,,,,,,,,,0,,,61,0
98400,note_on,0,0,1,,,,,,,,,0,,,66,0
98400,note_on,960,0,1,,,,,,,,,0,,,70,0
98400,note_on,0,0,1,,,,,,,,,0,,,66,101
98400,note_on,0,0,1,,,,,,,,,0,,,70,101
98400,note_on,0,0,1,,,,,,,,,0,,,73,101
98447,note_on,47,0,1,,,,,,,,,0,,,73,0
98447,note_on,0,0,1,,,,,,,,,0,,,70,0
98447,note_on,0,0,1,,,,,,,,,0,,,66,0
98880,note_on,433,0,1,,,,,,,,,0,,,70,101
98880,note_on,0,0,1,,,,,,,,,0,,,73,101
98880,note_on,0,0,1,,,,,,,,,0,,,78,101
98927,note_on,0,0,1,,,,,,,,,0,,,70,0
98927,note_on,0,0,1,,,,,,,,,0,,,73,0
98927,note_on,47,0,1,,,,,,,,,0,,,78,0
99360,note_on,433,0,1,,,,,,,,,0,,,73,101
99360,note_on,0,0,1,,,,,,,,,0,,,78,101
99360,note_on,0,0,1,,,,,,,,,0,,,82,101
99407,note_on,47,0,1,,,,,,,,,0,,,82,0
99407,note_on,0,0,1,,,,,,,,,0,,,78,0
99407,note_on,0,0,1,,,,,,,,,0,,,73,0
99840,note_on,2400,0,4,,,,,,,,,3,,,46,101
99840,note_on,2400,0,3,,,,,,,,,2,,,58,101
99840,note_on,433,0,1,,,,,,,,,0,,,70,101
99840,note_on,0,0,1,,,,,,,,,0,,,73,101
99840,note_on,0,0,1,,,,,,,,,0,,,78,101
99887,note_on,0,0,1,,,,,,,,,0,,,73,0
99887,note_on,0,0,1,,,,,,,,,0,,,70,0
99887,note_on,47,0,1,,,,,,,,,0,,,78,0
100320,note_on,433,0,1,,,,,,,,,0,,,72,101
100320,note_on,480,0,4,,,,,,,,,3,,,46,0
100320,note_on,0,0,4,,,,,,,,,3,,,45,88
100320,note_on,0,0,1,,,,,,,,,0,,,77,101
100320,note_on,480,0,3,,,,,,,,,2,,,58,0
100320,control_change,0,0,3,,,,,,,,,2,64,127,,
100320,note_on,0,0,3,,,,,,,,,2,,,57,88
100479,note_on,159,0,3,,,,,,,,,2,,,57,0
100479,note_on,0,0,3,,,,,,,,,2,,,60,88
100640,note_on,0,0,3,,,,,,,,,2,,,58,88
100640,note_on,161,0,3,,,,,,,,,2,,,60,0
100800,note_on,3360,0,2,,,,,,,,,1,,,60,101
100800,note_on,0,0,2,,,,,,,,,1,,,65,101
100800,note_on,0,0,2,,,,,,,,,1,,,69,101
100800,note_on,0,0,3,,,,,,,,,2,,,57,88
100800,note_on,160,0,3,,,,,,,,,2,,,58,0
100847,note_on,0,0,2,,,,,,,,,1,,,60,0
100847,note_on,47,0,2,,,,,,,,,1,,,69,0
100847,note_on,0,0,2,,,,,,,,,1,,,65,0
100959,note_on,159,0,3,,,,,,,,,2,,,57,0
100959,note_on,0,0,3,,,,,,,,,2,,,55,88
101120,note_on,161,0,3,,,,,,,,,2,,,55,0
101120,note_on,0,0,3,,,,,,,,,2,,,54,88
101280,note_on,960,0,1,,,,,,,,,0,,,77,0
101280,note_on,0,0,1,,,,,,,,,0,,,72,0
101280,note_on,433,0,2,,,,,,,,,1,,,65,101
101280,note_on,0,0,2,,,,,,,,,1,,,69,101
101280,note_on,960,0,4,,,,,,,,,3,,,45,0
101280,note_on,0,0,3,,,,,,,,,2,,,53,88
101280,note_on,160,0,3,,,,,,,,,2,,,54,0
101280,note_on,0,0,2,,,,,,,,,1,,,72,101
101327,note_on,0,0,2,,,,,,,,,1,,,65,0
101327,note_on,47,0,2,,,,,,,,,1,,,72,0
101327,note_on,0,0,2,,,,,,,,,1,,,69,0
101439,note_on,0,0,3,,,,,,,,,2,,,52,88
101439,note_on,159,0,3,,,,,,,,,2,,,53,0
101600,note_on,0,0,3,,,,,,,,,2,,,50,88
101600,note_on,161,0,3,,,,,,,,,2,,,52,0
101760,note_on,0,0,3,,,,,,,,,2,,,48,88
101760,note_on,433,0,2,,,,,,,,,1,,,69,101
101760,note_on,480,0,4,,,,,,,,,3,,,33,88
101760,note_on,480,0,1,,,,,,,,,0,,,89,101
101760,note_on,0,0,2,,,,,,,,,1,,,72,101
101760,note_on,160,0,3,,,,,,,,,2,,,50,0
101760,note_on,0,0,2,,,,,,,,,1,,,77,101
101807,note_on,0,0,2,,,,,,,,,1,,,69,0
101807,note_on,0,0,2,,,,,,,,,1,,,72,0
101807,note_on,47,0,2,,,,,,,,,1,,,77,0
101919,note_on,0,0,3,,,,,,,,,2,,,46,88
101919,note_on,159,0,3,,,,,,,,,2,,,48,0
102080,note_on,0,0,3,,,,,,,,,2,,,45,88
102080,control_change,0,0,3,,,,,,,,,2,64,0,,
102080,note_on,161,0,3,,,,,,,,,2,,,46,0
102240,note_on,0,0,2,,,,,,,,,1,,,76,101
102240,note_on,160,0,3,,,,,,,,,2,,,45,0
102240,note_on,0,0,3,,,,,,,,,2,,,43,88
102240,note_on,480,0,4,,,,,,,,,3,,,33,0
102240,note_on,433,0,2,,,,,,,,,1,,,70,101
102240,note_on,0,0,1,,,,,,,,,0,,,88,101
102240,control_change,0,0,1,,,,,,,,,0,64,127,,
102240,note_on,480,0,1,,,,,,,,,0,,,89,0
102240,note_on,0,0,4,,,,,,,,,3,,,31,88
102399,note_on,0,0,1,,,,,,,,,0,,,91,101
102399,note_on,159,0,1,,,,,,,,,0,,,88,0
102560,note_on,0,0,1,,,,,,,,,0,,,89,101
102560,note_on,161,0,1,,,,,,,,,0,,,91,0
102720,note_on,160,0,1,,,,,,,,,0,,,89,0
102720,note_on,0,0,3,,,,,,,,,2,,,55,88
102720,note_on,0,0,3,,,,,,,,,2,,,46,88
102720,note_on,0,0,3,,,,,,,,,2,,,52,88
102720,note_on,480,0,3,,,,,,,,,2,,,43,0
102720,note_on,0,0,1,,,,,,,,,0,,,88,101
102767,note_on,47,0,3,,,,,,,,,2,,,55,0
102767,note_on,0,0,3,,,,,,,,,2,,,52,0
102767,note_on,0,0,3,,,,,,,,,2,,,46,0
102879,note_on,0,0,1,,,,,,,,,0,,,86,101
102879,note_on,159,0,1,,,,,,,,,0,,,88,0
103040,note_on,161,0,1,,,,,,,,,0,,,86,0
103040,note_on,0,0,1,,,,,,,,,0,,,85,101
103200,note_on,0,0,3,,,,,,,,,2,,,55,88
103200,note_on,433,0,3,,,,,,,,,2,,,52,88
103200,note_on,0,0,3,,,,,,,,,2,,,58,88
103200,note_on,0,0,2,,,,,,,,,1,,,70,0
103200,note_on,960,0,2,,,,,,,,,1,,,76,0
103200,note_on,0,0,1,,,,,,,,,0,,,84,101
103200,note_on,160,0,1,,,,,,,,,0,,,85,0
103200,note_on,960,0,4,,,,,,,,,3,,,31,0
103247,note_on,0,0,3,,,,,,,,,2,,,52,0
103247,note_on,0,0,3,,,,,,,,,2,,,55,0
103247,note_on,47,0,3,,,,,,,,,2,,,58,0
103359,note_on,0,0,1,,,,,,,,,0,,,82,101
103359,note_on,159,0,1,,,,,,,,,0,,,84,0
103520,note_on,0,0,1,,,,,,,,,0,,,81,101
103520,note_on,161,0,1,,,,,,,,,0,,,82,0
103680,note_on,480,0,4,,,,,,,,,3,,,43,88
103680,note_on,0,0,3,,,,,,,,,2,,,64,88
103680,note_on,480,0,2,,,,,,,,,1,,,70,101
103680,note_on,433,0,3,,,,,,,,,2,,,55,88
103680,note_on,160,0,1,,,,,,,,,0,,,81,0
103680,note_on,0,0,1,,,,,,,,,0,,,79,101
103680,note_on,0,0,3,,,,,,,,,2,,,58,88
103727,note_on,47,0,3,,,,,,,,,2,,,64,0
103727,note_on,0,0,3,,,,,,,,,2,,,55,0
103727,note_on,0,0,3,,,,,,,,,2,,,58,0
103839,note_on,159,0,1,,,,,,,,,0,,,79,0
103839,note_on,0,0,1,,,,,,,,,0,,,77,101
104000,note_on,161,0,1,,,,,,,,,0,,,77,0
104000,note_on,0,0,1,,,,,,,,,0,,,76,101
104160,note_on,480,0,4,,,,,,,,,3,,,43,0
104160,note_on,0,0,4,,,,,,,,,3,,,41,88
104160,control_change,433,0,3,,,,,,,,,2,64,127,,
104160,note_on,0,0,3,,,,,,,,,2,,,53,88
104160,note_on,0,0,1,,,,,,,,,0,,,74,127
104160,control_change,0,0,1,,,,,,,,,0,64,0,,
104160,note_on,160,0,1,,,,,,,,,0,,,76,0
104160,note_on,0,0,2,,,,,,,,,1,,,69,101
104160,note_on,480,0,2,,,,,,,,,1,,,70,0
104319,note_on,159,0,3,,,,,,,,,2,,,53,0
104319,note_on,0,0,3,,,,,,,,,2,,,57,88
104480,note_on,161,0,3,,,,,,,,,2,,,57,0
104480,note_on,0,0,3,,,,,,,,,2,,,55,88
104640,note_on,0,0,2,,,,,,,,,1,,,57,101
104640,note_on,0,0,2,,,,,,,,,1,,,65,101
104640,note_on,0,0,2,,,,,,,,,1,,,62,101
104640,note_on,480,0,2,,,,,,,,,1,,,69,0
104640,note_on,0,0,3,,,,,,,,,2,,,53,88
104640,note_on,160,0,3,,,,,,,,,2,,,55,0
104687,note_on,0,0,2,,,,,,,,,1,,,57,0
104687,note_on,0,0,2,,,,,,,,,1,,,62,0
104687,note_on,47,0,2,,,,,,,,,1,,,65,0
104799,note_on,0,0,3,,,,,,,,,2,,,52,88
104799,note_on,159,0,3,,,,,,,,,2,,,53,0
104960,note_on,161,0,3,,,,,,,,,2,,,52,0
104960,note_on,0,0,3,,,,,,,,,2,,,51,88
105120,note_on,960,0,4,,,,,,,,,3,,,41,0
105120,note_on,433,0,2,,,,,,,,,1,,,62,101
105120,note_on,0,0,2,,,,,,,,,1,,,65,101
105120,note_on,960,0,1,,,,,,,,,0,,,74,0
105120,note_on,0,0,2,,,,,,,,,1,,,69,101
105120,note_on,160,0,3,,,,,,,,,2,,,51,0
105120,note_on,0,0,3,,,,,,,,,2,,,50,88
105167,note_on,47,0,2,,,,,,,,,1,,,69,0
105167,note_on,0,0,2,,,,,,,,,1,,,65,0
105167,note_on,0,0,2,,,,,,,,,1,,,62,0
105279,note_on,159,0,3,,,,,,,,,2,,,50,0
105279,note_on,0,0,3,,,,,,,,,2,,,48,88
105440,note_on,161,0,3,,,,,,,,,2,,,48,0
105440,note_on,0,0,3,,,,,,,,,2,,,46,88
105600,note_on,480,0,1,,,,,,,,,0,,,86,101
105600,note_on,433,0,2,,,,,,,,,1,,,65,101
105600,note_on,0,0,2,,,,,,,,,1,,,69,101
105600,note_on,0,0,2,,,,,,,,,1,,,74,101
105600,note_on,160,0,3,,,,,,,,,2,,,46,0
105600,note_on,0,0,3,,,,,,,,,2,,,45,88
105600,note_on,480,0,4,,,,,,,,,3,,,29,88
105647,note_on,0,0,2,,,,,,,,,1,,,65,0
105647,note_on,47,0,1,,,,,,,,,0,,,86,0
105647,note_on,0,0,2,,,,,,,,,1,,,69,0
105647,note_on,47,0,2,,,,,,,,,1,,,74,0
105759,note_on,159,0,3,,,,,,,,,2,,,45,0
105759,note_on,0,0,3,,,,,,,,,2,,,43,88
105920,note_on,0,0,3,,,,,,,,,2,,,41,88
105920,note_on,161,0,3,,,,,,,,,2,,,43,0
106080,note_on,0,0,2,,,,,,,,,1,,,72,101
106080,note_on,480,0,4,,,,,,,,,3,,,29,0
106080,note_on,0,0,4,,,,,,,,,3,,,28,88
106080,control_change,433,0,1,,,,,,,,,0,64,127,,
106080,note_on,0,0,1,,,,,,,,,0,,,84,101
106080,note_on,433,0,2,,,,,,,,,1,,,67,101
106080,control_change,0,0,3,,,,,,,,,2,64,0,,
106080,note_on,160,0,3,,,,,,,,,2,,,41,0
106080,note_on,0,0,3,,,,,,,,,2,,,40,88
106239,note_on,0,0,1,,,,,,,,,0,,,88,101
106239,note_on,159,0,1,,,,,,,,,0,,,84,0
106400,note_on,0,0,1,,,,,,,,,0,,,86,101
106400,note_on,161,0,1,,,,,,,,,0,,,88,0
106560,note_on,480,0,3,,,,,,,,,2,,,40,0
106560,note_on,0,0,3,,,,,,,,,2,,,48,88
106560,note_on,0,0,3,,,,,,,,,2,,,52,88
106560,note_on,0,0,3,,,,,,,,,2,,,55,88
106560,note_on,160,0,1,,,,,,,,,0,,,86,0
106560,note_on,0,0,1,,,,,,,,,0,,,84,101
106607,note_on,47,0,3,,,,,,,,,2,,,55,0
106607,note_on,0,0,3,,,,,,,,,2,,,52,0
106607,note_on,0,0,3,,,,,,,,,2,,,48,0
106719,note_on,0,0,1,,,,,,,,,0,,,83,101
106719,note_on,159,0,1,,,,,,,,,0,,,84,0
106880,note_on,161,0,1,,,,,,,,,0,,,83,0
106880,note_on,0,0,1,,,,,,,,,0,,,81,101
107040,note_on,0,0,3,,,,,,,,,2,,,55,88
107040,note_on,0,0,3,,,,,,,,,2,,,60,88
107040,note_on,960,0,4,,,,,,,,,3,,,28,0
107040,note_on,160,0,1,,,,,,,,,0,,,81,0
107040,note_on,0,0,1,,,,,,,,,0,,,79,101
107040,note_on,0,0,2,,,,,,,,,1,,,67,0
107040,note_on,960,0,2,,,,,,,,,1,,,72,0
107040,note_on,433,0,3,,,,,,,,,2,,,52,88
107087,note_on,0,0,3,,,,,,,,,2,,,55,0
107087,note_on,0,0,3,,,,,,,,,2,,,52,0
107087,note_on,47,0,3,,,,,,,,,2,,,60,0
107199,note_on,159,0,1,,,,,,,,,0,,,79,0
107199,note_on,0,0,1,,,,,,,,,0,,,78,101
107360,note_on,161,0,1,,,,,,,,,0,,,78,0
107360,note_on,0,0,1,,,,,,,,,0,,,77,101
107520,note_on,0,0,3,,,,,,,,,2,,,64,88
107520,note_on,160,0,1,,,,,,,,,0,,,77,0
107520,note_on,0,0,1,,,,,,,,,0,,,76,101
107520,note_on,0,0,4,,,,,,,,,3,,,52,88
107520,note_on,480,0,4,,,,,,,,,3,,,40,88
107520,note_on,0,0,3,,,,,,,,,2,,,60,88
107520,note_on,433,0,3,,,,,,,,,2,,,55,88
107520,note_on,480,0,2,,,,,,,,,1,,,67,101
107567,note_on,47,0,3,,,,,,,,,2,,,64,0
107567,note_on,0,0,3,,,,,,,,,2,,,60,0
107567,note_on,0,0,3,,,,,,,,,2,,,55,0
107679,note_on,159,0,1,,,,,,,,,0,,,76,0
107679,note_on,0,0,1,,,,,,,,,0,,,74,101
107840,note_on,0,0,1,,,,,,,,,0,,,72,101
107840,note_on,161,0,1,,,,,,,,,0,,,74,0
108000,note_on,480,0,4,,,,,,,,,3,,,52,0
108000,note_on,0,0,4,,,,,,,,,3,,,40,0
108000,note_on,0,0,4,,,,,,,,,3,,,38,88
108000,note_on,480,0,2,,,,,,,,,1,,,67,0
108000,note_on,0,0,3,,,,,,,,,2,,,62,88
108000,note_on,160,0,1,,,,,,,,,0,,,72,0
108000,control_change,0,0,1,,,,,,,,,0,64,0,,
108000,note_on,0,0,1,,,,,,,,,0,,,70,127
108000,note_on,0,0,2,,,,,,,,,1,,,65,101
108000,note_on,0,0,4,,,,,,,,,3,,,50,88
108000,control_change,433,0,3,,,,,,,,,2,64,127,,
108047,note_on,47,0,1,,,,,,,,,0,,,70,0
108159,note_on,159,0,3,,,,,,,,,2,,,62,0
108159,note_on,0,0,3,,,,,,,,,2,,,65,88
108320,note_on,0,0,3,,,,,,,,,2,,,64,88
108320,note_on,161,0,3,,,,,,,,,2,,,65,0
108480,note_on,0,0,3,,,,,,,,,2,,,62,88
108480,note_on,160,0,3,,,,,,,,,2,,,64,0
108480,note_on,433,0,1,,,,,,,,,0,,,74,101
108480,note_on,480,0,2,,,,,,,,,1,,,65,0
108480,note_on,0,0,2,,,,,,,,,1,,,65,101
108480,note_on,0,0,2,,,,,,,,,1,,,70,101
108527,note_on,47,0,2,,,,,,,,,1,,,70,0
108527,note_on,47,0,1,,,,,,,,,0,,,74,0
108527,note_on,0,0,2,,,,,,,,,1,,,65,0
108639,note_on,0,0,3,,,,,,,,,2,,,60,88
108639,note_on,159,0,3,,,,,,,,,2,,,62,0
108800,note_on,0,0,3,,,,,,,,,2,,,59,88
108800,note_on,161,0,3,,,,,,,,,2,,,60,0
108960,note_on,433,0,2,,,,,,,,,1,,,70,101
108960,note_on,0,0,3,,,,,,,,,2,,,58,88
108960,note_on,160,0,3,,,,,,,,,2,,,59,0
108960,note_on,0,0,4,,,,,,,,,3,,,38,0
108960,note_on,960,0,4,,,,,,,,,3,,,50,0
108960,note_on,433,0,1,,,,,,,,,0,,,77,101
108960,note_on,0,0,2,,,,,,,,,1,,,74,101
109007,note_on,0,0,2,,,,,,,,,1,,,70,0
109007,note_on,47,0,1,,,,,,,,,0,,,77,0
109007,note_on,47,0,2,,,,,,,,,1,,,74,0
109119,note_on,0,0,3,,,,,,,,,2,,,57,88
109119,note_on,159,0,3,,,,,,,,,2,,,58,0
109280,note_on,161,0,3,,,,,,,,,2,,,57,0
109280,note_on,0,0,3,,,,,,,,,2,,,55,88
109440,note_on,480,0,4,,,,,,,,,3,,,38,88
109440,note_on,0,0,3,,,,,,,,,2,,,53,88
109440,note_on,433,0,1,,,,,,,,,0,,,82,101
109440,note_on,160,0,3,,,,,,,,,2,,,55,0
109440,note_on,0,0,2,,,,,,,,,1,,,77,101
109440,note_on,433,0,2,,,,,,,,,1,,,74,101
109487,note_on,0,0,2,,,,,,,,,1,,,74,0
109487,note_on,47,0,1,,,,,,,,,0,,,82,0
109487,note_on,47,0,2,,,,,,,,,1,,,77,0
109599,note_on,159,0,3,,,,,,,,,2,,,53,0
109599,note_on,0,0,3,,,,,,,,,2,,,52,88
109760,note_on,0,0,3,,,,,,,,,2,,,50,88
109760,control_change,0,0,3,,,,,,,,,2,64,0,,
109760,note_on,161,0,3,,,,,,,,,2,,,52,0
109920,control_change,433,0,1,,,,,,,,,0,64,127,,
109920,note_on,0,0,1,,,,,,,,,0,,,81,88
109920,note_on,480,0,4,,,,,,,,,3,,,38,0
109920,note_on,160,0,3,,,,,,,,,2,,,50,0
109920,note_on,0,0,3,,,,,,,,,2,,,51,88
109920,control_change,433,0,2,,,,,,,,,1,64,127,,
109920,note_on,0,0,2,,,,,,,,,1,,,69,88
109920,note_on,0,0,4,,,,,,,,,3,,,39,88
110079,note_on,0,0,1,,,,,,,,,0,,,84,88
110079,note_on,159,0,2,,,,,,,,,1,,,69,0
110079,note_on,0,0,2,,,,,,,,,1,,,72,88
110079,note_on,159,0,1,,,,,,,,,0,,,81,0
110240,note_on,161,0,2,,,,,,,,,1,,,72,0
110240,note_on,0,0,2,,,,,,,,,1,,,71,88
110240,note_on,0,0,1,,,,,,,,,0,,,83,88
110240,note_on,161,0,1,,,,,,,,,0,,,84,0
110400,note_on,0,0,2,,,,,,,,,1,,,74,101
110400,note_on,0,0,3,,,,,,,,,2,,,57,88
110400,note_on,0,0,3,,,,,,,,,2,,,60,88
110400,note_on,160,0,2,,,,,,,,,1,,,71,0
110400,note_on,0,0,3,,,,,,,,,2,,,52,88
110400,note_on,0,0,4,,,,,,,,,3,,,40,88
110400,note_on,480,0,4,,,,,,,,,3,,,39,0
110400,note_on,160,0,1,,,,,,,,,0,,,83,0
110400,note_on,0,0,1,,,,,,,,,0,,,86,101
110400,note_on,480,0,3,,,,,,,,,2,,,51,0
110559,note_on,159,0,1,,,,,,,,,0,,,86,0
110559,note_on,159,0,2,,,,,,,,,1,,,74,0
110559,note_on,0,0,2,,,,,,,,,1,,,72,101
110559,note_on,0,0,1,,,,,,,,,0,,,84,101
110720,note_on,161,0,1,,,,,,,,,0,,,84,0
110720,note_on,0,0,1,,,,,,,,,0,,,83,101
110720,note_on,161,0,2,,,,,,,,,1,,,72,0
110720,note_on,0,0,2,,,,,,,,,1,,,71,101
110880,note_on,480,0,3,,,,,,,,,2,,,60,0
110880,note_on,0,0,3,,,,,,,,,2,,,57,0
110880,note_on,0,0,3,,,,,,,,,2,,,52,0
110880,note_on,0,0,3,,,,,,,,,2,,,53,114
110880,note_on,0,0,3,,,,,,,,,2,,,57,114
110880,note_on,0,0,3,,,,,,,,,2,,,60,114
110880,note_on,160,0,2,,,,,,,,,1,,,71,0
110880,note_on,0,0,4,,,,,,,,,3,,,41,88
110880,note_on,480,0,4,,,,,,,,,3,,,40,0
110880,note_on,0,0,1,,,,,,,,,0,,,81,101
110880,note_on,160,0,1,,,,,,,,,0,,,83,0
110880,note_on,0,0,2,,,,,,,,,1,,,69,101
111039,note_on,159,0,2,,,,,,,,,1,,,69,0
111039,note_on,0,0,2,,,,,,,,,1,,,68,101
111039,note_on,159,0,1,,,,,,,,,0,,,81,0
111039,note_on,0,0,1,,,,,,,,,0,,,80,101
111200,note_on,161,0,2,,,,,,,,,1,,,68,0
111200,note_on,161,0,1,,,,,,,,,0,,,80,0
111200,note_on,0,0,1,,,,,,,,,0,,,79,101
111200,note_on,0,0,2,,,,,,,,,1,,,67,101
111360,note_on,160,0,2,,,,,,,,,1,,,67,0
111360,note_on,0,0,2,,,,,,,,,1,,,65,88
111360,note_on,0,0,1,,,,,,,,,0,,,77,88
111360,note_on,160,0,1,,,,,,,,,0,,,79,0
111519,note_on,0,0,2,,,,,,,,,1,,,64,88
111519,note_on,159,0,1,,,,,,,,,0,,,77,0
111519,note_on,159,0,2,,,,,,,,,1,,,65,0
111519,note_on,0,0,1,,,,,,,,,0,,,76,88
111680,note_on,0,0,1,,,,,,,,,0,,,75,88
111680,note_on,0,0,2,,,,,,,,,1,,,63,88
111680,control_change,0,0,2,,,,,,,,,1,64,0,,
111680,note_on,161,0,2,,,,,,,,,1,,,64,0
111680,note_on,161,0,1,,,,,,,,,0,,,76,0
111680,control_change,0,0,1,,,,,,,,,0,64,0,,
111840,note_on,0,0,3,,,,,,,,,2,,,53,0
111840,note_on,0,0,3,,,,,,,,,2,,,59,88
111840,note_on,0,0,1,,,,,,,,,0,,,88,88
111840,note_on,0,0,1,,,,,,,,,0,,,76,88
111840,note_on,0,0,4,,,,,,,,,3,,,40,75
111840,note_on,960,0,4,,,,,,,,,3,,,41,0
111840,note_on,0,0,3,,,,,,,,,2,,,56,88
111840,note_on,0,0,3,,,,,,,,,2,,,57,0
111840,note_on,160,0,2,,,,,,,,,1,,,63,0
111840,note_on,0,0,2,,,,,,,,,1,,,64,88
111840,note_on,160,0,1,,,,,,,,,0,,,75,0
111840,note_on,960,0,3,,,,,,,,,2,,,60,0
112080,note_on,240,0,4,,,,,,,,,3,,,40,0
112080,note_on,0,0,4,,,,,,,,,3,,,52,75
112080,note_on,240,0,2,,,,,,,,,1,,,64,0
112080,note_on,0,0,2,,,,,,,,,1,,,66,88
112320,note_on,240,0,2,,,,,,,,,1,,,66,0
112320,note_on,0,0,3,,,,,,,,,2,,,56,0
112320,note_on,480,0,3,,,,,,,,,2,,,59,0
112320,note_on,0,0,2,,,,,,,,,1,,,68,88
112320,note_on,240,0,4,,,,,,,,,3,,,52,0
112320,note_on,0,0,4,,,,,,,,,3,,,40,75
112560,note_on,240,0,2,,,,,,,,,1,,,68,0
112560,note_on,0,0,4,,,,,,,,,3,,,52,75
112560,note_on,0,0,2,,,,,,,,,1,,,69,88
112560,note_on,240,0,4,,,,,,,,,3,,,40,0
112800,note_on,0,0,4,,,,,,,,,3,,,40,75
112800,note_on,0,0,2,,,,,,,,,1,,,68,88
112800,note_on,240,0,4,,,,,,,,,3,,,52,0
112800,note_on,240,0,2,,,,,,,,,1,,,69,0
113040,note_on,0,0,4,,,,,,,,,3,,,52,75
113040,note_on,0,0,2,,,,,,,,,1,,,69,88
113040,note_on,240,0,4,,,,,,,,,3,,,40,0
113040,note_on,240,0,2,,,,,,,,,1,,,68,0
113280,note_on,240,0,4,,,,,,,,,3,,,52,0
113280,note_on,0,0,1,,,,,,,,,0,,,89,88
113280,note_on,0,0,1,,,,,,,,,0,,,77,88
113280,note_on,0,0,2,,,,,,,,,1,,,71,88
113280,note_on,240,0,2,,,,,,,,,1,,,69,0
113280,note_on,0,0,4,,,,,,,,,3,,,40,75
113280,note_on,0,0,1,,,,,,,,,0,,,76,0
113280,note_on,1440,0,1,,,,,,,,,0,,,88,0
113520,note_on,0,0,2,,,,,,,,,1,,,72,88
113520,note_on,240,0,2,,,,,,,,,1,,,71,0
113520,note_on,240,0,4,,,,,,,,,3,,,40,0
113520,note_on,0,0,4,,,,,,,,,3,,,52,75
113760,note_on,0,0,1,,,,,,,,,0,,,89,114
113760,note_on,240,0,4,,,,,,,,,3,,,52,0
113760,note_on,0,0,4,,,,,,,,,3,,,40,75
113760,note_on,0,0,3,,,,,,,,,2,,,60,88
113760,note_on,1440,0,3,,,,,,,,,2,,,57,88
113760,note_on,240,0,2,,,,,,,,,1,,,72,0
113760,note_on,0,0,2,,,,,,,,,1,,,74,88
113760,note_on,480,0,1,,,,,,,,,0,,,89,0
113760,note_on,0,0,1,,,,,,,,,0,,,77,0
113760,note_on,0,0,1,,,,,,,,,0,,,77,114
114000,note_on,240,0,4,,,,,,,,,3,,,40,0
114000,note_on,0,0,2,,,,,,,,,1,,,72,88
114000,note_on,240,0,2,,,,,,,,,1,,,74,0
114000,note_on,0,0,4,,,,,,,,,3,,,52,75
114240,note_on,0,0,2,,,,,,,,,1,,,71,88
114240,note_on,0,0,1,,,,,,,,,0,,,77,0
114240,note_on,0,0,1,,,,,,,,,0,,,74,88
114240,note_on,0,0,1,,,,,,,,,0,,,86,88
114240,note_on,240,0,4,,,,,,,,,3,,,52,0
114240,note_on,0,0,4,,,,,,,,,3,,,40,75
114240,note_on,240,0,2,,,,,,,,,1,,,72,0
114240,note_on,480,0,1,,,,,,,,,0,,,89,0
114480,note_on,240,0,4,,,,,,,,,3,,,40,0
114480,note_on,0,0,4,,,,,,,,,3,,,52,75
114480,note_on,0,0,2,,,,,,,,,1,,,72,88
114480,note_on,240,0,2,,,,,,,,,1,,,71,0
114720,note_on,0,0,2,,,,,,,,,1,,,74,88
114720,note_on,240,0,2,,,,,,,,,1,,,72,0
114720,note_on,0,0,1,,,,,,,,,0,,,74,0
114720,note_on,480,0,1,,,,,,,,,0,,,86,0
114720,note_on,240,0,4,,,,,,,,,3,,,52,0
114720,note_on,0,0,4,,,,,,,,,3,,,40,75
114960,note_on,240,0,2,,,,,,,,,1,,,74,0
114960,note_on,240,0,4,,,,,,,,,3,,,40,0
114960,note_on,0,0,4,,,,,,,,,3,,,52,75
114960,note_on,0,0,2,,,,,,,,,1,,,72,88
115200,note_on,1440,0,3,,,,,,,,,2,,,60,0
115200,note_on,0,0,3,,,,,,,,,2,,,57,0
115200,note_on,0,0,3,,,,,,,,,2,,,59,88
115200,note_on,0,0,3,,,,,,,,,2,,,62,88
115200,note_on,240,0,4,,,,,,,,,3,,,52,0
115200,note_on,0,0,4,,,,,,,,,3,,,40,75
115200,note_on,0,0,2,,,,,,,,,1,,,71,88
115200,note_on,240,0,2,,,,,,,,,1,,,72,0
115440,note_on,0,0,4,,,,,,,,,3,,,52,75
115440,note_on,240,0,4,,,,,,,,,3,,,40,0
115440,note_on,240,0,2,,,,,,,,,1,,,71,0
115440,note_on,0,0,2,,,,,,,,,1,,,69,88
115680,note_on,240,0,2,,,,,,,,,1,,,69,0
115680,note_on,0,0,4,,,,,,,,,3,,,40,75
115680,note_on,0,0,1,,,,,,,,,0,,,86,88
115680,note_on,960,0,1,,,,,,,,,0,,,74,88
115680,note_on,0,0,3,,,,,,,,,2,,,59,0
115680,note_on,240,0,4,,,,,,,,,3,,,52,0
115680,note_on,0,0,3,,,,,,,,,2,,,59,114
115680,note_on,0,0,3,,,,,,,,,2,,,62,114
115680,note_on,0,0,2,,,,,,,,,1,,,68,88
115680,note_on,480,0,3,,,,,,,,,2,,,62,0
115920,note_on,0,0,2,,,,,,,,,1,,,64,88
115920,note_on,240,0,4,,,,,,,,,3,,,40,0
115920,note_on,240,0,2,,,,,,,,,1,,,68,0
115920,note_on,0,0,4,,,,,,,,,3,,,52,75
116160,note_on,0,0,3,,,,,,,,,2,,,59,88
116160,note_on,0,0,3,,,,,,,,,2,,,56,88
116160,note_on,0,0,2,,,,,,,,,1,,,66,88
116160,note_on,240,0,2,,,,,,,,,1,,,64,0
116160,note_on,0,0,3,,,,,,,,,2,,,59,0
116160,note_on,0,0,4,,,,,,,,,3,,,40,75
116160,note_on,480,0,3,,,,,,,,,2,,,62,0
116160,note_on,240,0,4,,,,,,,,,3,,,52,0
116400,note_on,240,0,4,,,,,,,,,3,,,40,0
116400,note_on,0,0,4,,,,,,,,,3,,,52,75
116400,note_on,0,0,2,,,,,,,,,1,,,68,88
116400,note_on,240,0,2,,,,,,,,,1,,,66,0
116640,note_on,240,0,4,,,,,,,,,3,,,52,0
116640,note_on,0,0,4,,,,,,,,,3,,,40,75
116640,note_on,480,0,3,,,,,,,,,2,,,59,0
116640,note_on,0,0,3,,,,,,,,,2,,,56,0
116640,note_on,0,0,2,,,,,,,,,1,,,66,88
116640,note_on,240,0,2,,,,,,,,,1,,,68,0
116880,note_on,240,0,2,,,,,,,,,1,,,66,0
116880,note_on,0,0,2,,,,,,,,,1,,,68,88
116880,note_on,0,0,4,,,,,,,,,3,,,52,75
116880,note_on,240,0,4,,,,,,,,,3,,,40,0
117120,note_on,0,0,2,,,,,,,,,1,,,69,88
117120,note_on,1440,0,1,,,,,,,,,0,,,86,0
117120,note_on,0,0,1,,,,,,,,,0,,,74,0
117120,note_on,0,0,1,,,,,,,,,0,,,76,88
117120,note_on,0,0,1,,,,,,,,,0,,,88,88
117120,note_on,240,0,2,,,,,,,,,1,,,68,0
117120,note_on,0,0,4,,,,,,,,,3,,,40,75
117120,note_on,240,0,4,,,,,,,,,3,,,52,0
117360,note_on,240,0,4,,,,,,,,,3,,,40,0
117360,note_on,0,0,2,,,,,,,,,1,,,71,88
117360,note_on,240,0,2,,,,,,,,,1,,,69,0
117360,note_on,0,0,4,,,,,,,,,3,,,52,75
117600,note_on,0,0,1,,,,,,,,,0,,,76,114
117600,note_on,0,0,2,,,,,,,,,1,,,72,88
117600,note_on,0,0,1,,,,,,,,,0,,,88,114
117600,note_on,240,0,2,,,,,,,,,1,,,71,0
117600,note_on,0,0,1,,,,,,,,,0,,,76,0
117600,note_on,0,0,4,,,,,,,,,3,,,40,75
117600,note_on,240,0,4,,,,,,,,,3,,,52,0
117600,note_on,480,0,1,,,,,,,,,0,,,88,0
117600,note_on,960,0,3,,,,,,,,,2,,,56,88
117600,note_on,0,0,3,,,,,,,,,2,,,59,88
117840,note_on,0,0,4,,,,,,,,,3,,,52,75
117840,note_on,240,0,4,,,,,,,,,3,,,40,0
117840,note_on,240,0,2,,,,,,,,,1,,,72,0
117840,note_on,0,0,2,,,,,,,,,1,,,71,88
118080,note_on,480,0,1,,,,,,,,,0,,,88,0
118080,note_on,0,0,1,,,,,,,,,0,,,76,0
118080,note_on,0,0,2,,,,,,,,,1,,,69,88
118080,note_on,0,0,1,,,,,,,,,0,,,84,88
118080,note_on,240,0,4,,,,,,,,,3,,,52,0
118080,note_on,240,0,2,,,,,,,,,1,,,71,0
118080,note_on,0,0,1,,,,,,,,,0,,,72,88
118080,note_on,0,0,4,,,,,,,,,3,,,40,75
118320,note_on,240,0,4,,,,,,,,,3,,,40,0
118320,note_on,0,0,4,,,,,,,,,3,,,52,75
118320,note_on,0,0,2,,,,,,,,,1,,,71,88
118320,note_on,240,0,2,,,,,,,,,1,,,69,0
118560,note_on,240,0,2,,,,,,,,,1,,,71,0
118560,note_on,0,0,2,,,,,,,,,1,,,72,88
118560,note_on,480,0,1,,,,,,,,,0,,,84,0
118560,note_on,0,0,1,,,,,,,,,0,,,72,0
118560,note_on,0,0,4,,,,,,,,,3,,,40,75
118560,note_on,240,0,4,,,,,,,,,3,,,52,0
118800,note_on,240,0,4,,,,,,,,,3,,,40,0
118800,note_on,0,0,4,,,,,,,,,3,,,52,75
118800,note_on,240,0,2,,,,,,,,,1,,,72,0
118800,note_on,0,0,2,,,,,,,,,1,,,71,88
119040,note_on,240,0,2,,,,,,,,,1,,,71,0
119040,note_on,0,0,2,,,,,,,,,1,,,69,88
119040,note_on,0,0,3,,,,,,,,,2,,,57,88
119040,note_on,1440,0,3,,,,,,,,,2,,,59,0
119040,note_on,0,0,3,,,,,,,,,2,,,56,0
119040,note_on,0,0,3,,,,,,,,,2,,,60,88
119040,note_on,240,0,4,,,,,,,,,3,,,52,0
119040,note_on,0,0,4,,,,,,,,,3,,,40,75
119280,note_on,240,0,4,,,,,,,,,3,,,40,0
119280,note_on,0,0,4,,,,,,,,,3,,,52,75
119280,note_on,240,0,2,,,,,,,,,1,,,69,0
119280,note_on,0,0,2,,,,,,,,,1,,,68,88
119520,note_on,480,0,3,,,,,,,,,2,,,60,0
119520,note_on,0,0,3,,,,,,,,,2,,,57,0
119520,note_on,0,0,3,,,,,,,,,2,,,57,114
119520,note_on,0,0,3,,,,,,,,,2,,,60,114
119520,note_on,240,0,2,,,,,,,,,1,,,68,0
119520,note_on,960,0,1,,,,,,,,,0,,,72,88
119520,note_on,0,0,4,,,,,,,,,3,,,40,75
119520,note_on,240,0,4,,,,,,,,,3,,,52,0
119520,note_on,0,0,2,,,,,,,,,1,,,66,88
119520,note_on,0,0,1,,,,,,,,,0,,,84,88
119760,note_on,240,0,2,,,,,,,,,1,,,66,0
119760,note_on,0,0,2,,,,,,,,,1,,,63,88
119760,note_on,240,0,4,,,,,,,,,3,,,40,0
119760,note_on,0,0,4,,,,,,,,,3,,,52,75
120000,note_on,0,0,2,,,,,,,,,1,,,64,88
120000,note_on,240,0,4,,,,,,,,,3,,,52,0
120000,note_on,240,0,2,,,,,,,,,1,,,63,0
120000,note_on,0,0,3,,,,,,,,,2,,,57,0
120000,note_on,0,0,4,,,,,,,,,3,,,40,75
120000,note_on,0,0,3,,,,,,,,,2,,,54,88
120000,note_on,0,0,3,,,,,,,,,2,,,57,88
120000,note_on,480,0,3,,,,,,,,,2,,,60,0
120240,note_on,240,0,2,,,,,,,,,1,,,64,0
120240,note_on,0,0,2,,,,,,,,,1,,,66,88
120240,note_on,240,0,4,,,,,,,,,3,,,40,0
120240,note_on,0,0,4,,,,,,,,,3,,,52,75
120480,note_on,0,0,4,,,,,,,,,3,,,40,75
120480,note_on,240,0,4,,,,,,,,,3,,,52,0
120480,note_on,0,0,2,,,,,,,,,1,,,64,88
120480,note_on,240,0,2,,,,,,,,,1,,,66,0
120480,note_on,0,0,3,,,,,,,,,2,,,54,0
120480,note_on,480,0,3,,,,,,,,,2,,,57,0
120720,note_on,0,0,4,,,,,,,,,3,,,52,75
120720,note_on,240,0,4,,,,,,,,,3,,,40,0
120720,note_on,0,0,2,,,,,,,,,1,,,66,88
120720,note_on,240,0,2,,,,,,,,,1,,,64,0
120960,note_on,240,0,2,,,,,,,,,1,,,66,0
120960,note_on,0,0,2,,,,,,,,,1,,,68,88
120960,note_on,1440,0,1,,,,,,,,,0,,,84,0
120960,note_on,0,0,1,,,,,,,,,0,,,72,0
120960,note_on,0,0,4,,,,,,,,,3,,,40,75
120960,note_on,240,0,4,,,,,,,,,3,,,52,0
120960,note_on,0,0,1,,,,,,,,,0,,,74,88
120960,note_on,0,0,1,,,,,,,,,0,,,86,88
121200,note_on,240,0,2,,,,,,,,,1,,,68,0
121200,note_on,0,0,2,,,,,,,,,1,,,69,88
121200,note_on,0,0,4,,,,,,,,,3,,,52,75
121200,note_on,240,0,4,,,,,,,,,3,,,40,0
121440,note_on,0,0,1,,,,,,,,,0,,,86,114
121440,note_on,0,0,2,,,,,,,,,1,,,69,88
121440,note_on,960,0,3,,,,,,,,,2,,,54,114
121440,note_on,0,0,3,,,,,,,,,2,,,57,114
121440,note_on,480,0,1,,,,,,,,,0,,,86,0
121440,note_on,240,0,2,,,,,,,,,1,,,69,0
121440,note_on,240,0,4,,,,,,,,,3,,,52,0
121440,note_on,0,0,1,,,,,,,,,0,,,74,0
121440,note_on,0,0,1,,,,,,,,,0,,,74,114
121440,note_on,0,0,4,,,,,,,,,3,,,40,75
121680,note_on,240,0,4,,,,,,,,,3,,,40,0
121680,note_on,240,0,2,,,,,,,,,1,,,69,0
121680,note_on,0,0,2,,,,,,,,,1,,,68,88
121680,note_on,0,0,4,,,,,,,,,3,,,52,75
121920,note_on,480,0,3,,,,,,,,,2,,,57,0
121920,note_on,0,0,3,,,,,,,,,2,,,54,0
121920,note_on,0,0,3,,,,,,,,,2,,,56,88
121920,note_on,0,0,3,,,,,,,,,2,,,59,88
121920,note_on,240,0,4,,,,,,,,,3,,,52,0
121920,note_on,240,0,2,,,,,,,,,1,,,68,0
121920,note_on,0,0,2,,,,,,,,,1,,,66,88
121920,note_on,480,0,1,,,,,,,,,0,,,86,0
121920,note_on,0,0,1,,,,,,,,,0,,,74,0
121920,note_on,0,0,1,,,,,,,,,0,,,71,88
121920,note_on,0,0,1,,,,,,,,,0,,,83,88
121920,note_on,0,0,4,,,,,,,,,3,,,40,75
122160,note_on,0,0,4,,,,,,,,,3,,,52,75
122160,note_on,240,0,4,,,,,,,,,3,,,40,0
122160,note_on,240,0,2,,,,,,,,,1,,,66,0
122160,note_on,0,0,2,,,,,,,,,1,,,68,88
122400,note_on,0,0,4,,,,,,,,,3,,,40,75
122400,note_on,0,0,1,,,,,,,,,0,,,71,114
122400,note_on,0,0,1,,,,,,,,,0,,,71,0
122400,note_on,480,0,1,,,,,,,,,0,,,83,0
122400,note_on,240,0,2,,,,,,,,,1,,,68,0
122400,note_on,0,0,3,,,,,,,,,2,,,59,114
122400,note_on,0,0,3,,,,,,,,,2,,,56,0
122400,note_on,0,0,1,,,,,,,,,0,,,83,114
122400,note_on,480,0,3,,,,,,,,,2,,,59,0
122400,note_on,0,0,2,,,,,,,,,1,,,64,88
122400,note_on,0,0,3,,,,,,,,,2,,,56,114
122400,note_on,240,0,4,,,,,,,,,3,,,52,0
122640,note_on,0,0,4,,,,,,,,,3,,,52,75
122640,note_on,240,0,4,,,,,,,,,3,,,40,0
122640,note_on,240,0,2,,,,,,,,,1,,,64,0
122640,note_on,0,0,2,,,,,,,,,1,,,66,88
122880,note_on,0,0,4,,,,,,,,,3,,,40,75
122880,note_on,240,0,2,,,,,,,,,1,,,66,0
122880,note_on,0,0,2,,,,,,,,,1,,,68,88
122880,note_on,240,0,4,,,,,,,,,3,,,52,0
122880,note_on,480,0,3,,,,,,,,,2,,,59,0
122880,note_on,0,0,3,,,,,,,,,2,,,56,0
122880,note_on,0,0,3,,,,,,,,,2,,,52,88
122880,note_on,0,0,1,,,,,,,,,0,,,72,88
122880,note_on,480,0,1,,,,,,,,,0,,,83,0
122880,note_on,0,0,1,,,,,,,,,0,,,71,0
122880,note_on,0,0,1,,,,,,,,,0,,,84,88
122880,note_on,0,0,3,,,,,,,,,2,,,56,88
123120,note_on,0,0,4,,,,,,,,,3,,,52,75
123120,note_on,240,0,4,,,,,,,,,3,,,40,0
123120,note_on,0,0,2,,,,,,,,,1,,,69,88
123120,note_on,240,0,2,,,,,,,,,1,,,68,0
123360,note_on,240,0,4,,,,,,,,,3,,,52,0
123360,note_on,0,0,3,,,,,,,,,2,,,56,62
123360,note_on,480,0,3,,,,,,,,,2,,,56,0
123360,note_on,0,0,3,,,,,,,,,2,,,52,0
123360,note_on,240,0,2,,,,,,,,,1,,,69,0
123360,note_on,0,0,1,,,,,,,,,0,,,84,101
123360,note_on,0,0,3,,,,,,,,,2,,,52,62
123360,note_on,0,0,4,,,,,,,,,3,,,40,62
123360,note_on,0,0,1,,,,,,,,,0,,,72,0
123360,note_on,480,0,1,,,,,,,,,0,,,84,0
123360,note_on,0,0,2,,,,,,,,,1,,,71,62
123600,note_on,240,0,2,,,,,,,,,1,,,71,0
123600,note_on,0,0,2,,,,,,,,,1,,,72,62
123840,note_on,0,0,3,,,,,,,,,2,,,57,75
123840,note_on,240,0,2,,,,,,,,,1,,,72,0
123840,note_on,480,0,1,,,,,,,,,0,,,84,0
123840,note_on,0,0,1,,,,,,,,,0,,,81,75
123840,note_on,0,0,3,,,,,,,,,2,,,53,75
123840,note_on,0,0,3,,,,,,,,,2,,,52,0
123840,note_on,480,0,3,,,,,,,,,2,,,56,0
123840,note_on,0,0,4,,,,,,,,,3,,,40,75
123840,note_on,480,0,4,,,,,,,,,3,,,40,0
123840,note_on,0,0,2,,,,,,,,,1,,,74,62
124080,note_on,240,0,2,,,,,,,,,1,,,74,0
124080,note_on,0,0,2,,,,,,,,,1,,,75,62
124320,note_on,240,0,2,,,,,,,,,1,,,75,0
124320,note_on,0,0,3,,,,,,,,,2,,,53,0
124320,note_on,0,0,3,,,,,,,,,2,,,52,88
124320,note_on,0,0,3,,,,,,,,,2,,,57,88
124320,note_on,480,0,4,,,,,,,,,3,,,40,0
124320,note_on,0,0,4,,,,,,,,,3,,,40,88
124320,note_on,0,0,1,,,,,,,,,0,,,81,114
124320,note_on,480,0,1,,,,,,,,,0,,,81,0
124320,note_on,0,0,2,,,,,,,,,1,,,76,75
124320,note_on,480,0,3,,,,,,,,,2,,,57,0
124560,note_on,0,0,2,,,,,,,,,1,,,77,75
124560,note_on,240,0,2,,,,,,,,,1,,,76,0
124800,note_on,0,0,4,,,,,,,,,3,,,40,101
124800,note_on,480,0,4,,,,,,,,,3,,,40,0
124800,note_on,480,0,1,,,,,,,,,0,,,81,0
124800,note_on,240,0,2,,,,,,,,,1,,,77,0
124800,note_on,0,0,1,,,,,,,,,0,,,83,88
124800,note_on,480,0,3,,,,,,,,,2,,,57,0
124800,note_on,0,0,3,,,,,,,,,2,,,52,0
124800,note_on,0,0,3,,,,,,,,,2,,,51,101
124800,note_on,0,0,3,,,,,,,,,2,,,57,101
124800,note_on,0,0,2,,,,,,,,,1,,,78,75
125040,note_on,240,0,2,,,,,,,,,1,,,78,0
125040,note_on,0,0,2,,,,,,,,,1,,,81,75
125280,note_on,480,0,4,,,,,,,,,3,,,40,0
125280,note_on,240,0,2,,,,,,,,,1,,,81,0
125280,note_on,0,0,3,,,,,,,,,2,,,51,0
125280,note_on,0,0,3,,,,,,,,,2,,,56,114
125280,control_change,0,0,3,,,,,,,,,2,64,127,,
125280,note_on,0,0,4,,,,,,,,,3,,,40,114
125280,note_on,480,0,3,,,,,,,,,2,,,57,0
125280,note_on,480,0,1,,,,,,,,,0,,,83,0
125280,note_on,0,0,1,,,,,,,,,0,,,76,114
125280,note_on,0,0,2,,,,,,,,,1,,,76,88
125280,note_on,0,0,4,,,,,,,,,3,,,52,114
125520,note_on,0,0,3,,,,,,,,,2,,,54,88
125520,note_on,240,0,3,,,,,,,,,2,,,56,0
125520,note_on,0,0,1,,,,,,,,,0,,,88,88
125520,note_on,240,0,1,,,,,,,,,0,,,76,0
125760,note_on,240,0,3,,,,,,,,,2,,,54,0
125760,note_on,0,0,1,,,,,,,,,0,,,76,88
125760,note_on,240,0,1,,,,,,,,,0,,,88,0
125760,note_on,0,0,3,,,,,,,,,2,,,56,88
126000,note_on,240,0,1,,,,,,,,,0,,,76,0
126000,note_on,240,0,3,,,,,,,,,2,,,56,0
126000,note_on,0,0,1,,,,,,,,,0,,,88,88
126000,note_on,0,0,3,,,,,,,,,2,,,57,88
126240,note_on,240,0,3,,,,,,,,,2,,,57,0
126240,note_on,0,0,1,,,,,,,,,0,,,76,88
126240,note_on,240,0,1,,,,,,,,,0,,,88,0
126240,note_on,960,0,2,,,,,,,,,1,,,76,0
126240,note_on,0,0,3,,,,,,,,,2,,,56,88
126480,note_on,0,0,3,,,,,,,,,2,,,57,88
126480,note_on,240,0,3,,,,,,,,,2,,,56,0
126480,note_on,240,0,1,,,,,,,,,0,,,76,0
126480,note_on,0,0,1,,,,,,,,,0,,,88,88
126720,note_on,240,0,1,,,,,,,,,0,,,88,0
126720,note_on,1440,0,4,,,,,,,,,3,,,52,0
126720,note_on,0,0,1,,,,,,,,,0,,,76,88
126720,note_on,0,0,4,,,,,,,,,3,,,40,0
126720,note_on,0,0,3,,,,,,,,,2,,,59,88
126720,note_on,240,0,3,,,,,,,,,2,,,57,0
126720,note_on,0,0,4,,,,,,,,,3,,,53,88
126720,note_on,0,0,4,,,,,,,,,3,,,41,88
126960,note_on,0,0,3,,,,,,,,,2,,,60,88
126960,control_change,0,0,3,,,,,,,,,2,64,0,,
126960,note_on,240,0,3,,,,,,,,,2,,,59,0
126960,note_on,240,0,1,,,,,,,,,0,,,76,0
126960,note_on,0,0,1,,,,,,,,,0,,,88,88
127200,note_on,0,0,1,,,,,,,,,0,,,76,88
127200,control_change,0,0,3,,,,,,,,,2,64,127,,
127200,note_on,240,0,3,,,,,,,,,2,,,60,0
127200,note_on,240,0,1,,,,,,,,,0,,,88,0
127200,note_on,0,0,3,,,,,,,,,2,,,62,88
127200,note_on,0,0,2,,,,,,,,,1,,,72,88
127200,note_on,960,0,2,,,,,,,,,1,,,69,88
127200,note_on,0,0,4,,,,,,,,,3,,,53,114
127200,note_on,0,0,4,,,,,,,,,3,,,41,114
127200,note_on,0,0,4,,,,,,,,,3,,,41,0
127200,note_on,480,0,4,,,,,,,,,3,,,53,0
127440,note_on,0,0,1,,,,,,,,,0,,,88,88
127440,note_on,240,0,1,,,,,,,,,0,,,76,0
127440,note_on,240,0,3,,,,,,,,,2,,,62,0
127440,note_on,0,0,3,,,,,,,,,2,,,60,88
127680,note_on,240,0,1,,,,,,,,,0,,,88,0
127680,note_on,0,0,4,,,,,,,,,3,,,41,0
127680,note_on,0,0,1,,,,,,,,,0,,,76,88
127680,note_on,480,0,4,,,,,,,,,3,,,53,0
127680,note_on,240,0,3,,,,,,,,,2,,,60,0
127680,note_on,0,0,3,,,,,,,,,2,,,59,88
127680,note_on,0,0,4,,,,,,,,,3,,,50,88
127680,note_on,0,0,4,,,,,,,,,3,,,38,88
127920,note_on,240,0,1,,,,,,,,,0,,,76,0
127920,note_on,0,0,1,,,,,,,,,0,,,88,88
127920,note_on,240,0,3,,,,,,,,,2,,,59,0
127920,note_on,0,0,3,,,,,,,,,2,,,60,88
128160,note_on,480,0,4,,,,,,,,,3,,,50,0
128160,note_on,0,0,4,,,,,,,,,3,,,38,0
128160,note_on,240,0,1,,,,,,,,,0,,,88,0
128160,note_on,0,0,1,,,,,,,,,0,,,76,88
128160,note_on,240,0,3,,,,,,,,,2,,,60,0
128160,note_on,0,0,3,,,,,,,,,2,,,62,88
128400,note_on,240,0,3,,,,,,,,,2,,,62,0
128400,note_on,240,0,1,,,,,,,,,0,,,76,0
128400,note_on,0,0,1,,,,,,,,,0,,,88,88
128400,note_on,0,0,3,,,,,,,,,2,,,60,88
128640,note_on,240,0,1,,,,,,,,,0,,,88,0
128640,note_on,1440,0,2,,,,,,,,,1,,,72,0
128640,note_on,240,0,3,,,,,,,,,2,,,60,0
128640,note_on,0,0,3,,,,,,,,,2,,,59,88
128640,note_on,0,0,2,,,,,,,,,1,,,74,88
128640,note_on,0,0,2,,,,,,,,,1,,,71,88
128640,note_on,0,0,2,,,,,,,,,1,,,69,0
128640,note_on,0,0,1,,,,,,,,,0,,,76,88
128880,note_on,240,0,3,,,,,,,,,2,,,59,0
128880,control_change,0,0,3,,,,,,,,,2,64,0,,
128880,note_on,0,0,3,,,,,,,,,2,,,57,88
128880,note_on,0,0,1,,,,,,,,,0,,,88,88
128880,note_on,240,0,1,,,,,,,,,0,,,76,0
129120,note_on,240,0,3,,,,,,,,,2,,,57,0
129120,control_change,0,0,3,,,,,,,,,2,64,127,,
129120,note_on,0,0,3,,,,,,,,,2,,,56,88
129120,note_on,0,0,4,,,,,,,,,3,,,50,88
129120,note_on,240,0,1,,,,,,,,,0,,,88,0
129120,note_on,960,0,4,,,,,,,,,3,,,38,88
129120,note_on,0,0,1,,,,,,,,,0,,,76,88
129120,note_on,0,0,2,,,,,,,,,1,,,74,114
129120,note_on,0,0,2,,,,,,,,,1,,,71,114
129120,note_on,0,0,2,,,,,,,,,1,,,71,0
129120,note_on,480,0,2,,,,,,,,,1,,,74,0
129360,note_on,240,0,1,,,,,,,,,0,,,76,0
129360,note_on,0,0,3,,,,,,,,,2,,,52,88
129360,note_on,240,0,3,,,,,,,,,2,,,56,0
129360,note_on,0,0,1,,,,,,,,,0,,,88,88
129600,note_on,0,0,3,,,,,,,,,2,,,54,88
129600,note_on,240,0,3,,,,,,,,,2,,,52,0
129600,note_on,240,0,1,,,,,,,,,0,,,88,0
129600,note_on,0,0,1,,,,,,,,,0,,,76,88
129600,note_on,0,0,2,,,,,,,,,1,,,71,0
129600,note_on,0,0,2,,,,,,,,,1,,,68,88
129600,note_on,0,0,2,,,,,,,,,1,,,71,88
129600,note_on,480,0,2,,,,,,,,,1,,,74,0
129840,note_on,240,0,1,,,,,,,,,0,,,76,0
129840,note_on,240,0,3,,,,,,,,,2,,,54,0
129840,note_on,0,0,3,,,,,,,,,2,,,56,88
129840,note_on,0,0,1,,,,,,,,,0,,,88,88
130080,note_on,480,0,2,,,,,,,,,1,,,71,0
130080,note_on,0,0,2,,,,,,,,,1,,,68,0
130080,note_on,240,0,1,,,,,,,,,0,,,88,0
130080,note_on,0,0,1,,,,,,,,,0,,,76,88
130080,note_on,240,0,3,,,,,,,,,2,,,56,0
130080,note_on,0,0,3,,,,,,,,,2,,,54,88
130320,note_on,0,0,1,,,,,,,,,0,,,88,88
130320,note_on,240,0,3,,,,,,,,,2,,,54,0
130320,note_on,240,0,1,,,,,,,,,0,,,76,0
130320,note_on,0,0,3,,,,,,,,,2,,,56,88
130560,note_on,240,0,1,,,,,,,,,0,,,88,0
130560,note_on,0,0,1,,,,,,,,,0,,,76,88
130560,note_on,0,0,3,,,,,,,,,2,,,57,88
130560,note_on,1440,0,4,,,,,,,,,3,,,50,0
130560,note_on,0,0,4,,,,,,,,,3,,,38,0
130560,note_on,0,0,4,,,,,,,,,3,,,40,88
130560,note_on,0,0,4,,,,,,,,,3,,,52,88
130560,note_on,240,0,3,,,,,,,,,2,,,56,0
130800,note_on,240,0,1,,,,,,,,,0,,,76,0
130800,note_on,0,0,1,,,,,,,,,0,,,88,88
130800,note_on,240,0,3,,,,,,,,,2,,,57,0
130800,control_change,0,0,3,,,,,,,,,2,64,0,,
130800,note_on,0,0,3,,,,,,,,,2,,,59,88
131040,note_on,0,0,4,,,,,,,,,3,,,40,114
131040,note_on,0,0,4,,,,,,,,,3,,,40,0
131040,note_on,240,0,1,,,,,,,,,0,,,88,0
131040,note_on,0,0,1,,,,,,,,,0,,,76,88
131040,note_on,960,0,2,,,,,,,,,1,,,68,88
131040,note_on,0,0,2,,,,,,,,,1,,,71,88
131040,note_on,240,0,3,,,,,,,,,2,,,59,0
131040,note_on,480,0,4,,,,,,,,,3,,,52,0
131040,note_on,0,0,4,,,,,,,,,3,,,52,114
131040,control_change,0,0,3,,,,,,,,,2,64,127,,
131040,note_on,0,0,3,,,,,,,,,2,,,60,88
131280,note_on,240,0,3,,,,,,,,,2,,,60,0
131280,note_on,0,0,3,,,,,,,,,2,,,59,88
131280,note_on,240,0,1,,,,,,,,,0,,,76,0
131280,note_on,0,0,1,,,,,,,,,0,,,88,88
131520,note_on,0,0,4,,,,,,,,,3,,,36,88
131520,note_on,240,0,3,,,,,,,,,2,,,59,0
131520,note_on,0,0,3,,,,,,,,,2,,,57,88
131520,note_on,0,0,1,,,,,,,,,0,,,76,88
131520,note_on,240,0,1,,,,,,,,,0,,,88,0
131520,note_on,480,0,4,,,,,,,,,3,,,52,0
131520,note_on,0,0,4,,,,,,,,,3,,,40,0
131520,note_on,0,0,4,,,,,,,,,3,,,48,88
131760,note_on,240,0,1,,,,,,,,,0,,,76,0
131760,note_on,0,0,1,,,,,,,,,0,,,88,88
131760,note_on,0,0,3,,,,,,,,,2,,,59,88
131760,note_on,240,0,3,,,,,,,,,2,,,57,0
132000,note_on,0,0,4,,,,,,,,,3,,,36,0
132000,note_on,0,0,1,,,,,,,,,0,,,76,88
132000,note_on,0,0,3,,,,,,,,,2,,,60,88
132000,note_on,240,0,3,,,,,,,,,2,,,59,0
132000,note_on,240,0,1,,,,,,,,,0,,,88,0
132000,note_on,480,0,4,,,,,,,,,3,,,48,0
132240,note_on,240,0,1,,,,,,,,,0,,,76,0
132240,note_on,240,0,3,,,,,,,,,2,,,60,0
132240,note_on,0,0,3,,,,,,,,,2,,,59,88
132240,note_on,0,0,1,,,,,,,,,0,,,88,88
132480,note_on,240,0,1,,,,,,,,,0,,,88,0
132480,note_on,0,0,1,,,,,,,,,0,,,76,88
132480,note_on,0,0,2,,,,,,,,,1,,,72,88
132480,note_on,0,0,2,,,,,,,,,1,,,69,88
132480,note_on,0,0,2,,,,,,,,,1,,,68,0
132480,note_on,0,0,3,,,,,,,,,2,,,57,88
132480,note_on,240,0,3,,,,,,,,,2,,,59,0
132480,note_on,1440,0,2,,,,,,,,,1,,,71,0
132720,control_change,0,0,3,,,,,,,,,2,64,0,,
132720,note_on,0,0,3,,,,,,,,,2,,,56,88
132720,note_on,240,0,3,,,,,,,,,2,,,57,0
132720,note_on,0,0,1,,,,,,,,,0,,,88,88
132720,note_on,240,0,1,,,,,,,,,0,,,76,0
132960,note_on,960,0,4,,,,,,,,,3,,,36,88
132960,note_on,0,0,1,,,,,,,,,0,,,76,88
132960,note_on,240,0,1,,,,,,,,,0,,,88,0
132960,note_on,0,0,4,,,,,,,,,3,,,48,88
132960,note_on,0,0,2,,,,,,,,,1,,,69,0
132960,note_on,480,0,2,,,,,,,,,1,,,72,0
132960,note_on,0,0,2,,,,,,,,,1,,,72,114
132960,note_on,0,0,3,,,,,,,,,2,,,54,88
132960,note_on,240,0,3,,,,,,,,,2,,,56,0
132960,note_on,0,0,2,,,,,,,,,1,,,69,114
133200,note_on,0,0,1,,,,,,,,,0,,,88,88
133200,note_on,0,0,3,,,,,,,,,2,,,51,88
133200,note_on,240,0,3,,,,,,,,,2,,,54,0
133200,note_on,240,0,1,,,,,,,,,0,,,76,0
133440,note_on,0,0,1,,,,,,,,,0,,,76,88
133440,note_on,0,0,3,,,,,,,,,2,,,52,88
133440,note_on,0,0,2,,,,,,,,,1,,,69,0
133440,note_on,0,0,2,,,,,,,,,1,,,69,88
133440,note_on,240,0,1,,,,,,,,,0,,,88,0
133440,note_on,0,0,2,,,,,,,,,1,,,66,88
133440,note_on,480,0,2,,,,,,,,,1,,,72,0
133440,note_on,240,0,3,,,,,,,,,2,,,51,0
133680,note_on,240,0,3,,,,,,,,,2,,,52,0
133680,note_on,0,0,3,,,,,,,,,2,,,54,88
133680,note_on,240,0,1,,,,,,,,,0,,,76,0
133680,note_on,0,0,1,,,,,,,,,0,,,88,88
133920,note_on,240,0,1,,,,,,,,,0,,,88,0
133920,note_on,240,0,3,,,,,,,,,2,,,54,0
133920,note_on,0,0,3,,,,,,,,,2,,,52,88
133920,note_on,0,0,2,,,,,,,,,1,,,66,0
133920,note_on,480,0,2,,,,,,,,,1,,,69,0
133920,note_on,0,0,1,,,,,,,,,0,,,76,88
134160,note_on,0,0,3,,,,,,,,,2,,,54,88
134160,note_on,0,0,1,,,,,,,,,0,,,88,88
134160,note_on,240,0,3,,,,,,,,,2,,,52,0
134160,note_on,240,0,1,,,,,,,,,0,,,76,0
134400,note_on,0,0,4,,,,,,,,,3,,,38,88
134400,note_on,0,0,4,,,,,,,,,3,,,50,88
134400,note_on,0,0,4,,,,,,,,,3,,,36,0
134400,note_on,0,0,3,,,,,,,,,2,,,56,88
134400,note_on,240,0,3,,,,,,,,,2,,,54,0
134400,note_on,240,0,1,,,,,,,,,0,,,88,0
134400,note_on,0,0,1,,,,,,,,,0,,,76,88
134400,note_on,1440,0,4,,,,,,,,,3,,,48,0
134640,note_on,0,0,3,,,,,,,,,2,,,57,88
134640,note_on,240,0,3,,,,,,,,,2,,,56,0
134640,note_on,0,0,1,,,,,,,,,0,,,88,88
134640,note_on,240,0,1,,,,,,,,,0,,,76,0
134880,note_on,480,0,4,,,,,,,,,3,,,50,0
134880,note_on,240,0,1,,,,,,,,,0,,,88,0
134880,note_on,0,0,1,,,,,,,,,0,,,76,88
134880,note_on,0,0,2,,,,,,,,,1,,,69,114
134880,note_on,960,0,2,,,,,,,,,1,,,66,114
134880,note_on,0,0,4,,,,,,,,,3,,,38,114
134880,note_on,0,0,4,,,,,,,,,3,,,38,0
134880,note_on,240,0,3,,,,,,,,,2,,,57,0
134880,note_on,0,0,3,,,,,,,,,2,,,57,88
134880,note_on,0,0,4,,,,,,,,,3,,,50,114
135120,note_on,0,0,1,,,,,,,,,0,,,88,88
135120,note_on,240,0,1,,,,,,,,,0,,,76,0
135120,note_on,240,0,3,,,,,,,,,2,,,57,0
135120,note_on,0,0,3,,,,,,,,,2,,,56,88
135360,note_on,0,0,1,,,,,,,,,0,,,76,88
135360,note_on,240,0,1,,,,,,,,,0,,,88,0
135360,note_on,0,0,3,,,,,,,,,2,,,54,88
135360,note_on,240,0,3,,,,,,,,,2,,,56,0
135360,note_on,480,0,4,,,,,,,,,3,,,50,0
135360,note_on,0,0,2,,,,,,,,,1,,,66,0
135360,note_on,0,0,4,,,,,,,,,3,,,38,0
135360,note_on,0,0,4,,,,,,,,,3,,,35,88
135360,note_on,0,0,4,,,,,,,,,3,,,47,88
135360,note_on,0,0,2,,,,,,,,,1,,,68,88
135360,note_on,480,0,2,,,,,,,,,1,,,69,0
135360,note_on,0,0,2,,,,,,,,,1,,,71,88
135600,note_on,0,0,1,,,,,,,,,0,,,88,88
135600,note_on,240,0,1,,,,,,,,,0,,,76,0
135600,note_on,240,0,3,,,,,,,,,2,,,54,0
135600,note_on,0,0,3,,,,,,,,,2,,,56,88
135840,note_on,240,0,3,,,,,,,,,2,,,56,0
135840,note_on,0,0,4,,,,,,,,,3,,,35,0
135840,note_on,0,0,4,,,,,,,,,3,,,35,114
135840,note_on,480,0,4,,,,,,,,,3,,,47,0
135840,note_on,240,0,1,,,,,,,,,0,,,88,0
135840,note_on,0,0,4,,,,,,,,,3,,,47,114
135840,note_on,0,0,3,,,,,,,,,2,,,52,88
135840,note_on,0,0,1,,,,,,,,,0,,,76,88
135840,note_on,0,0,2,,,,,,,,,1,,,68,114
135840,note_on,0,0,2,,,,,,,,,1,,,71,114
135840,note_on,480,0,2,,,,,,,,,1,,,71,0
135840,note_on,0,0,2,,,,,,,,,1,,,68,0
136080,note_on,0,0,1,,,,,,,,,0,,,88,88
136080,note_on,0,0,3,,,,,,,,,2,,,54,88
136080,note_on,240,0,3,,,,,,,,,2,,,52,0
136080,note_on,240,0,1,,,,,,,,,0,,,76,0
136320,note_on,0,0,4,,,,,,,,,3,,,48,88
136320,note_on,480,0,2,,,,,,,,,1,,,71,0
136320,note_on,0,0,2,,,,,,,,,1,,,68,0
136320,note_on,0,0,2,,,,,,,,,1,,,64,88
136320,note_on,0,0,2,,,,,,,,,1,,,68,88
136320,note_on,0,0,1,,,,,,,,,0,,,76,88
136320,note_on,0,0,4,,,,,,,,,3,,,36,88
136320,note_on,240,0,1,,,,,,,,,0,,,88,0
136320,note_on,240,0,3,,,,,,,,,2,,,54,0
136320,note_on,0,0,3,,,,,,,,,2,,,56,88
136320,note_on,480,0,4,,,,,,,,,3,,,47,0
136320,note_on,0,0,4,,,,,,,,,3,,,35,0
136560,note_on,240,0,1,,,,,,,,,0,,,76,0
136560,note_on,0,0,1,,,,,,,,,0,,,88,88
136560,note_on,240,0,3,,,,,,,,,2,,,56,0
136560,note_on,0,0,3,,,,,,,,,2,,,57,88
136800,note_on,480,0,2,,,,,,,,,1,,,68,0
136800,note_on,0,0,2,,,,,,,,,1,,,64,0
136800,note_on,0,0,2,,,,,,,,,1,,,64,88
136800,note_on,240,0,1,,,,,,,,,0,,,88,0
136800,note_on,480,0,4,,,,,,,,,3,,,48,0
136800,note_on,0,0,4,,,,,,,,,3,,,36,0
136800,note_on,0,0,4,,,,,,,,,3,,,36,114
136800,note_on,0,0,4,,,,,,,,,3,,,48,114
136800,note_on,0,0,1,,,,,,,,,0,,,76,88
136800,note_on,0,0,2,,,,,,,,,1,,,68,88
136800,note_on,240,0,3,,,,,,,,,2,,,57,0
136800,note_on,0,0,3,,,,,,,,,2,,,59,88
137040,note_on,240,0,1,,,,,,,,,0,,,76,0
137040,note_on,0,0,1,,,,,,,,,0,,,88,88
137040,note_on,0,0,3,,,,,,,,,2,,,60,88
137040,note_on,240,0,3,,,,,,,,,2,,,59,0
137280,note_on,0,0,1,,,,,,,,,0,,,76,88
137280,note_on,240,0,1,,,,,,,,,0,,,88,0
137280,note_on,480,0,2,,,,,,,,,1,,,68,0
137280,note_on,240,0,3,,,,,,,,,2,,,60,0
137280,note_on,480,0,4,,,,,,,,,3,,,48,0
137280,note_on,0,0,4,,,,,,,,,3,,,36,0
137280,note_on,0,0,4,,,,,,,,,3,,,33,88
137280,note_on,0,0,4,,,,,,,,,3,,,45,88
137280,note_on,0,0,2,,,,,,,,,1,,,69,88
137280,note_on,0,0,3,,,,,,,,,2,,,48,88
137280,note_on,0,0,2,,,,,,,,,1,,,64,0
137280,note_on,0,0,2,,,,,,,,,1,,,65,88
137520,note_on,240,0,1,,,,,,,,,0,,,76,0
137520,note_on,240,0,3,,,,,,,,,2,,,48,0
137520,note_on,0,0,3,,,,,,,,,2,,,50,88
137520,note_on,0,0,1,,,,,,,,,0,,,88,88
137760,note_on,240,0,1,,,,,,,,,0,,,88,0
137760,note_on,480,0,4,,,,,,,,,3,,,45,0
137760,note_on,0,0,4,,,,,,,,,3,,,33,0
137760,note_on,0,0,4,,,,,,,,,3,,,33,114
137760,note_on,0,0,4,,,,,,,,,3,,,45,114
137760,note_on,240,0,3,,,,,,,,,2,,,50,0
137760,note_on,0,0,3,,,,,,,,,2,,,52,88
137760,note_on,480,0,2,,,,,,,,,1,,,69,0
137760,note_on,0,0,2,,,,,,,,,1,,,65,0
137760,note_on,0,0,2,,,,,,,,,1,,,64,88
137760,note_on,0,0,2,,,,,,,,,1,,,69,88
137760,note_on,0,0,1,,,,,,,,,0,,,76,88
138000,note_on,240,0,1,,,,,,,,,0,,,76,0
138000,note_on,0,0,1,,,,,,,,,0,,,88,88
138000,note_on,0,0,3,,,,,,,,,2,,,53,88
138000,note_on,240,0,3,,,,,,,,,2,,,52,0
138240,note_on,0,0,3,,,,,,,,,2,,,54,88
138240,note_on,240,0,3,,,,,,,,,2,,,53,0
138240,note_on,0,0,1,,,,,,,,,0,,,75,88
138240,note_on,480,0,2,,,,,,,,,1,,,69,0
138240,note_on,0,0,2,,,,,,,,,1,,,63,88
138240,note_on,0,0,2,,,,,,,,,1,,,64,0
138240,note_on,0,0,4,,,,,,,,,3,,,47,88
138240,note_on,0,0,4,,,,,,,,,3,,,35,88
138240,note_on,0,0,4,,,,,,,,,3,,,33,0
138240,note_on,480,0,4,,,,,,,,,3,,,45,0
138240,note_on,240,0,1,,,,,,,,,0,,,88,0
138240,note_on,0,0,2,,,,,,,,,1,,,69,88
138480,note_on,240,0,3,,,,,,,,,2,,,54,0
138480,note_on,240,0,1,,,,,,,,,0,,,75,0
138480,note_on,0,0,1,,,,,,,,,0,,,87,88
138480,note_on,0,0,3,,,,,,,,,2,,,57,88
138720,note_on,480,0,2,,,,,,,,,1,,,69,0
138720,note_on,0,0,1,,,,,,,,,0,,,88,88
138720,note_on,0,0,1,,,,,,,,,0,,,76,88
138720,note_on,0,0,3,,,,,,,,,2,,,52,88
138720,note_on,240,0,3,,,,,,,,,2,,,57,0
138720,note_on,0,0,2,,,,,,,,,1,,,63,0
138720,note_on,240,0,1,,,,,,,,,0,,,87,0
138720,note_on,480,0,4,,,,,,,,,3,,,47,0
138720,note_on,0,0,4,,,,,,,,,3,,,35,0
138720,note_on,0,0,4,,,,,,,,,3,,,40,88
138720,note_on,0,0,2,,,,,,,,,1,,,68,88
138720,note_on,0,0,2,,,,,,,,,1,,,64,88
139200,note_on,480,0,1,,,,,,,,,0,,,88,0
139200,note_on,0,0,4,,,,,,,,,3,,,41,114
139200,note_on,480,0,4,,,,,,,,,3,,,40,0
139200,note_on,0,0,3,,,,,,,,,2,,,53,114
139200,note_on,480,0,3,,,,,,,,,2,,,52,0
139200,note_on,0,0,2,,,,,,,,,1,,,65,114
139200,note_on,0,0,2,,,,,,,,,1,,,64,0
139200,note_on,480,0,2,,,,,,,,,1,,,68,0
139200,note_on,0,0,1,,,,,,,,,0,,,77,114
139200,note_on,0,0,1,,,,,,,,,0,,,76,0
140160,note_on,0,0,4,,,,,,,,,3,,,41,88
140160,note_on,960,0,4,,,,,,,,,3,,,41,0
140160,note_on,0,0,3,,,,,,,,,2,,,53,88
140160,note_on,960,0,3,,,,,,,,,2,,,53,0
140160,note_on,960,0,1,,,,,,,,,0,,,77,0
140160,note_on,0,0,2,,,,,,,,,1,,,65,88
140160,note_on,960,0,2,,,,,,,,,1,,,65,0
140160,note_on,0,0,1,,,,,,,,,0,,,77,88
140640,note_on,0,0,3,,,,,,,,,2,,,53,62
140640,note_on,480,0,3,,,,,,,,,2,,,53,0
140640,note_on,480,0,4,,,,,,,,,3,,,41,0
140640,note_on,0,0,4,,,,,,,,,3,,,41,62
140640,note_on,480,0,1,,,,,,,,,0,,,77,0
140640,note_on,0,0,1,,,,,,,,,0,,,77,62
140640,note_on,0,0,2,,,,,,,,,1,,,65,62
140640,note_on,480,0,2,,,,,,,,,1,,,65,0
141120,note_on,0,0,4,,,,,,,,,3,,,46,75
141120,note_on,0,0,3,,,,,,,,,2,,,58,75
141120,note_on,480,0,1,,,,,,,,,0,,,77,0
141120,note_on,0,0,2,,,,,,,,,1,,,70,75
141120,note_on,480,0,2,,,,,,,,,1,,,65,0
141120,note_on,0,0,1,,,,,,,,,0,,,82,75
141120,note_on,480,0,4,,,,,,,,,3,,,41,0
141120,note_on,480,0,3,,,,,,,,,2,,,53,0
141600,note_on,480,0,4,,,,,,,,,3,,,46,0
141600,note_on,0,0,1,,,,,,,,,0,,,84,88
141600,note_on,480,0,1,,,,,,,,,0,,,82,0
141600,note_on,0,0,4,,,,,,,,,3,,,48,88
141600,note_on,0,0,3,,,,,,,,,2,,,60,88
141600,note_on,480,0,2,,,,,,,,,1,,,70,0
141600,note_on,0,0,2,,,,,,,,,1,,,72,88
141600,note_on,480,0,3,,,,,,,,,2,,,58,0
142080,note_on,480,0,4,,,,,,,,,3,,,48,0
142080,note_on,0,0,4,,,,,,,,,3,,,50,101
142080,note_on,480,0,3,,,,,,,,,2,,,60,0
142080,note_on,0,0,3,,,,,,,,,2,,,62,101
142080,note_on,480,0,1,,,,,,,,,0,,,84,0
142080,note_on,0,0,1,,,,,,,,,0,,,86,101
142080,note_on,480,0,2,,,,,,,,,1,,,72,0
142080,note_on,0,0,2,,,,,,,,,1,,,74,101
142560,note_on,480,0,4,,,,,,,,,3,,,50,0
142560,note_on,0,0,4,,,,,,,,,3,,,52,88
142560,note_on,480,0,2,,,,,,,,,1,,,74,0
142560,note_on,0,0,3,,,,,,,,,2,,,64,88
142560,note_on,0,0,1,,,,,,,,,0,,,88,88
142560,note_on,480,0,1,,,,,,,,,0,,,86,0
142560,note_on,480,0,3,,,,,,,,,2,,,62,0
142560,note_on,0,0,2,,,,,,,,,1,,,76,88
142656,note_on,96,0,3,,,,,,,,,2,,,64,0
142656,note_on,96,0,1,,,,,,,,,0,,,88,0
142656,note_on,96,0,4,,,,,,,,,3,,,52,0
142656,note_on,96,0,2,,,,,,,,,1,,,76,0
143520,note_on,0,0,1,,,,,,,,,0,,,88,88
143520,note_on,0,0,1,,,,,,,,,0,,,84,88
143520,note_on,864,0,1,,,,,,,,,0,,,81,88
143520,note_on,0,0,3,,,,,,,,,2,,,57,88
143520,note_on,0,0,4,,,,,,,,,3,,,45,88
143520,note_on,0,0,3,,,,,,,,,2,,,64,88
143520,note_on,864,0,3,,,,,,,,,2,,,52,88
143520,note_on,864,0,2,,,,,,,,,1,,,69,88
143520,note_on,0,0,2,,,,,,,,,1,,,72,88
143520,note_on,0,0,2,,,,,,,,,1,,,76,88
143520,note_on,864,0,4,,,,,,,,,3,,,40,88
143616,note_on,0,0,3,,,,,,,,,2,,,57,0
143616,note_on,96,0,3,,,,,,,,,2,,,64,0
143616,note_on,96,0,2,,,,,,,,,1,,,76,0
143616,note_on,0,0,2,,,,,,,,,1,,,72,0
143616,note_on,0,0,3,,,,,,,,,2,,,52,0
143616,note_on,0,0,1,,,,,,,,,0,,,81,0
143616,note_on,0,0,1,,,,,,,,,0,,,84,0
143616,note_on,96,0,1,,,,,,,,,0,,,88,0
143616,note_on,0,0,4,,,,,,,,,3,,,40,0
143616,note_on,96,0,4,,,,,,,,,3,,,45,0
143616,note_on,0,0,2,,,,,,,,,1,,,69,0
144480,note_on,864,0,3,,,,,,,,,2,,,52,88
144480,note_on,0,0,3,,,,,,,,,2,,,64,88
144480,note_on,0,0,3,,,,,,,,,2,,,59,88
144480,note_on,864,0,2,,,,,,,,,1,,,68,88
144480,note_on,864,0,1,,,,,,,,,0,,,80,88
144480,note_on,0,0,1,,,,,,,,,0,,,86,88
144480,note_on,0,0,1,,,,,,,,,0,,,88,88
144480,note_on,0,0,4,,,,,,,,,3,,,47,88
144480,note_on,864,0,4,,,,,,,,,3,,,40,88
144480,note_on,0,0,2,,,,,,,,,1,,,74,88
144480,note_on,0,0,2,,,,,,,,,1,,,76,88
144576,note_on,0,0,3,,,,,,,,,2,,,52,0
144576,note_on,0,0,4,,,,,,,,,3,,,40,0
144576,note_on,96,0,4,,,,,,,,,3,,,47,0
144576,note_on,96,0,2,,,,,,,,,1,,,76,0
144576,note_on,0,0,2,,,,,,,,,1,,,74,0
144576,note_on,0,0,2,,,,,,,,,1,,,68,0
144576,note_on,0,0,1,,,,,,,,,0,,,80,0
144576,note_on,0,0,1,,,,,,,,,0,,,86,0
144576,note_on,96,0,1,,,,,,,,,0,,,88,0
144576,note_on,96,0,3,,,,,,,,,2,,,64,0
144576,note_on,0,0,3,,,,,,,,,2,,,59,0
145440,note_on,0,0,1,,,,,,,,,0,,,87,88
145440,note_on,0,0,1,,,,,,,,,0,,,81,88
145440,note_on,864,0,1,,,,,,,,,0,,,78,88
145440,note_on,0,0,1,,,,,,,,,0,,,88,88
145440,note_on,0,0,3,,,,,,,,,2,,,64,88
145440,note_on,864,0,3,,,,,,,,,2,,,52,88
145440,note_on,0,0,3,,,,,,,,,2,,,60,88
145440,note_on,0,0,4,,,,,,,,,3,,,48,88
145440,note_on,0,0,2,,,,,,,,,1,,,76,88
145440,note_on,0,0,2,,,,,,,,,1,,,75,88
145440,note_on,0,0,2,,,,,,,,,1,,,69,88
145440,note_on,864,0,2,,,,,,,,,1,,,66,88
145440,note_on,864,0,4,,,,,,,,,3,,,40,88
145536,note_on,0,0,1,,,,,,,,,0,,,78,0
145536,note_on,0,0,2,,,,,,,,,1,,,75,0
145536,note_on,0,0,2,,,,,,,,,1,,,69,0
145536,note_on,0,0,2,,,,,,,,,1,,,66,0
145536,note_on,96,0,2,,,,,,,,,1,,,76,0
145536,note_on,96,0,1,,,,,,,,,0,,,88,0
145536,note_on,96,0,3,,,,,,,,,2,,,64,0
145536,note_on,0,0,1,,,,,,,,,0,,,87,0
145536,note_on,0,0,3,,,,,,,,,2,,,60,0
145536,note_on,0,0,3,,,,,,,,,2,,,52,0
145536,note_on,96,0,4,,,,,,,,,3,,,48,0
145536,note_on,0,0,4,,,,,,,,,3,,,40,0
145536,note_on,0,0,1,,,,,,,,,0,,,81,0
146400,note_on,864,0,4,,,,,,,,,3,,,40,88
146400,note_on,864,0,1,,,,,,,,,0,,,80,88
146400,note_on,0,0,1,,,,,,,,,0,,,88,88
146400,note_on,864,0,3,,,,,,,,,2,,,52,88
146400,note_on,0,0,3,,,,,,,,,2,,,59,88
146400,note_on,0,0,3,,,,,,,,,2,,,64,88
146400,note_on,864,0,2,,,,,,,,,1,,,68,88
146400,note_on,0,0,2,,,,,,,,,1,,,76,88
146400,note_on,0,0,4,,,,,,,,,3,,,47,88
146447,note_on,47,0,2,,,,,,,,,1,,,76,0
146447,note_on,0,0,3,,,,,,,,,2,,,52,0
146447,note_on,0,0,3,,,,,,,,,2,,,59,0
146447,note_on,47,0,3,,,,,,,,,2,,,64,0
146447,note_on,47,0,1,,,,,,,,,0,,,88,0
146447,note_on,0,0,1,,,,,,,,,0,,,80,0
146447,note_on,0,0,2,,,,,,,,,1,,,68,0
146447,note_on,0,0,4,,,,,,,,,3,,,40,0
146447,note_on,47,0,4,,,,,,,,,3,,,47,0
146880,note_on,433,0,1,,,,,,,,,0,,,65,114
146880,note_on,433,0,4,,,,,,,,,3,,,41,114
146880,note_on,433,0,3,,,,,,,,,2,,,53,114
147840,note_on,960,0,1,,,,,,,,,0,,,65,0
147840,note_on,960,0,3,,,,,,,,,2,,,53,0
147840,note_on,0,0,1,,,,,,,,,0,,,65,88
147840,note_on,0,0,3,,,,,,,,,2,,,53,88
147840,note_on,0,0,4,,,,,,,,,3,,,41,88
147840,note_on,960,0,4,,,,,,,,,3,,,41,0
148320,note_on,0,0,4,,,,,,,,,3,,,41,88
148320,control_change,0,0,4,,,,,,,,,3,64,127,,
148320,note_on,480,0,4,,,,,,,,,3,,,41,0
148320,note_on,480,0,3,,,,,,,,,2,,,53,0
148320,note_on,0,0,1,,,,,,,,,0,,,65,88
148320,note_on,0,0,3,,,,,,,,,2,,,53,88
148320,control_change,0,0,3,,,,,,,,,2,64,127,,
148320,note_on,480,0,1,,,,,,,,,0,,,65,0
148800,note_on,480,0,1,,,,,,,,,0,,,65,0
148800,note_on,0,0,1,,,,,,,,,0,,,70,88
148800,note_on,0,0,3,,,,,,,,,2,,,58,88
148800,note_on,480,0,3,,,,,,,,,2,,,53,0
148800,note_on,480,0,4,,,,,,,,,3,,,41,0
148800,note_on,0,0,4,,,,,,,,,3,,,46,88
149280,note_on,480,0,1,,,,,,,,,0,,,70,0
149280,note_on,0,0,4,,,,,,,,,3,,,48,88
149280,note_on,480,0,4,,,,,,,,,3,,,46,0
149280,note_on,0,0,1,,,,,,,,,0,,,72,88
149280,note_on,0,0,3,,,,,,,,,2,,,60,88
149280,note_on,480,0,3,,,,,,,,,2,,,58,0
149760,note_on,0,0,4,,,,,,,,,3,,,50,88
149760,note_on,480,0,3,,,,,,,,,2,,,60,0
149760,control_change,0,0,3,,,,,,,,,2,64,0,,
149760,control_change,0,0,4,,,,,,,,,3,64,0,,
149760,note_on,480,0,4,,,,,,,,,3,,,48,0
149760,note_on,0,0,3,,,,,,,,,2,,,62,88
149760,note_on,480,0,1,,,,,,,,,0,,,72,0
149760,note_on,0,0,1,,,,,,,,,0,,,74,88
150240,note_on,480,0,3,,,,,,,,,2,,,62,0
150240,note_on,480,0,1,,,,,,,,,0,,,74,0
150240,note_on,0,0,1,,,,,,,,,0,,,76,88
150240,note_on,0,0,3,,,,,,,,,2,,,64,88
150240,note_on,0,0,4,,,,,,,,,3,,,52,88
150240,note_on,480,0,4,,,,,,,,,3,,,50,0
150336,note_on,96,0,3,,,,,,,,,2,,,64,0
150336,note_on,96,0,1,,,,,,,,,0,,,76,0
150336,note_on,96,0,4,,,,,,,,,3,,,52,0
151200,note_on,0,0,1,,,,,,,,,0,,,72,88
151200,note_on,0,0,3,,,,,,,,,2,,,60,88
151200,note_on,0,0,3,,,,,,,,,2,,,64,88
151200,note_on,864,0,3,,,,,,,,,2,,,57,88
151200,note_on,0,0,4,,,,,,,,,3,,,52,88
151200,note_on,0,0,4,,,,,,,,,3,,,45,88
151200,note_on,0,0,1,,,,,,,,,0,,,76,88
151200,note_on,864,0,4,,,,,,,,,3,,,40,88
151200,note_on,864,0,1,,,,,,,,,0,,,69,88
151296,note_on,0,0,3,,,,,,,,,2,,,60,0
151296,note_on,0,0,3,,,,,,,,,2,,,57,0
151296,note_on,96,0,3,,,,,,,,,2,,,64,0
151296,note_on,0,0,1,,,,,,,,,0,,,69,0
151296,note_on,0,0,1,,,,,,,,,0,,,72,0
151296,note_on,0,0,4,,,,,,,,,3,,,40,0
151296,note_on,0,0,4,,,,,,,,,3,,,45,0
151296,note_on,96,0,4,,,,,,,,,3,,,52,0
151296,note_on,96,0,1,,,,,,,,,0,,,76,0
152160,note_on,0,0,3,,,,,,,,,2,,,64,88
152160,note_on,0,0,4,,,,,,,,,3,,,52,88
152160,note_on,0,0,4,,,,,,,,,3,,,47,88
152160,note_on,864,0,4,,,,,,,,,3,,,40,88
152160,note_on,864,0,1,,,,,,,,,0,,,68,88
152160,note_on,0,0,1,,,,,,,,,0,,,74,88
152160,note_on,0,0,1,,,,,,,,,0,,,76,88
152160,note_on,864,0,3,,,,,,,,,2,,,56,88
152160,note_on,0,0,3,,,,,,,,,2,,,62,88
152256,note_on,0,0,4,,,,,,,,,3,,,40,0
152256,note_on,0,0,4,,,,,,,,,3,,,47,0
152256,note_on,96,0,4,,,,,,,,,3,,,52,0
152256,note_on,96,0,1,,,,,,,,,0,,,76,0
152256,note_on,96,0,3,,,,,,,,,2,,,64,0
152256,note_on,0,0,3,,,,,,,,,2,,,62,0
152256,note_on,0,0,1,,,,,,,,,0,,,74,0
152256,note_on,0,0,3,,,,,,,,,2,,,56,0
152256,note_on,0,0,1,,,,,,,,,0,,,68,0
153120,note_on,0,0,4,,,,,,,,,3,,,52,88
153120,note_on,0,0,4,,,,,,,,,3,,,48,88
153120,note_on,864,0,4,,,,,,,,,3,,,40,88
153120,note_on,864,0,1,,,,,,,,,0,,,66,88
153120,note_on,0,0,1,,,,,,,,,0,,,69,88
153120,note_on,0,0,1,,,,,,,,,0,,,76,88
153120,note_on,864,0,3,,,,,,,,,2,,,54,88
153120,note_on,0,0,3,,,,,,,,,2,,,64,88
153120,note_on,0,0,3,,,,,,,,,2,,,63,88
153120,note_on,0,0,3,,,,,,,,,2,,,57,88
153120,note_on,0,0,1,,,,,,,,,0,,,75,88
153216,note_on,0,0,4,,,,,,,,,3,,,48,0
153216,note_on,0,0,3,,,,,,,,,2,,,57,0
153216,note_on,0,0,3,,,,,,,,,2,,,54,0
153216,note_on,96,0,3,,,,,,,,,2,,,64,0
153216,note_on,96,0,4,,,,,,,,,3,,,52,0
153216,note_on,0,0,3,,,,,,,,,2,,,63,0
153216,note_on,0,0,4,,,,,,,,,3,,,40,0
153216,note_on,96,0,1,,,,,,,,,0,,,76,0
153216,note_on,0,0,1,,,,,,,,,0,,,66,0
153216,note_on,0,0,1,,,,,,,,,0,,,69,0
153216,note_on,0,0,1,,,,,,,,,0,,,75,0
154080,note_on,0,0,4,,,,,,,,,3,,,47,88
154080,note_on,0,0,4,,,,,,,,,3,,,52,88
154080,note_on,0,0,3,,,,,,,,,2,,,64,88
154080,note_on,864,0,3,,,,,,,,,2,,,56,88
154080,note_on,864,0,1,,,,,,,,,0,,,68,88
154080,note_on,0,0,1,,,,,,,,,0,,,76,88
154080,note_on,864,0,4,,,,,,,,,3,,,40,88
154127,note_on,47,0,1,,,,,,,,,0,,,76,0
154127,note_on,0,0,1,,,,,,,,,0,,,68,0
154560,note_on,0,0,4,,,,,,,,,3,,,40,88
154560,note_on,0,0,3,,,,,,,,,2,,,52,88
154560,note_on,0,0,3,,,,,,,,,2,,,56,0
154560,note_on,480,0,3,,,,,,,,,2,,,64,0
154560,note_on,480,0,4,,,,,,,,,3,,,52,0
154560,note_on,433,0,1,,,,,,,,,0,,,64,88
154560,note_on,0,0,4,,,,,,,,,3,,,47,0
154560,note_on,0,0,4,,,,,,,,,3,,,40,0
155520,note_on,0,0,3,,,,,,,,,2,,,52,62
155520,note_on,960,0,3,,,,,,,,,2,,,52,0
155520,note_on,960,0,4,,,,,,,,,3,,,40,0
155520,note_on,0,0,4,,,,,,,,,3,,,40,62
155520,note_on,960,0,1,,,,,,,,,0,,,64,0
155520,note_on,0,0,1,,,,,,,,,0,,,64,88
156000,note_on,0,0,3,,,,,,,,,2,,,52,62
156000,note_on,0,0,4,,,,,,,,,3,,,40,62
156000,note_on,480,0,1,,,,,,,,,0,,,64,0
156000,note_on,0,0,1,,,,,,,,,0,,,64,62
156000,note_on,480,0,3,,,,,,,,,2,,,52,0
156000,note_on,480,0,4,,,,,,,,,3,,,40,0
156047,note_on,47,0,4,,,,,,,,,3,,,40,0
156047,note_on,47,0,3,,,,,,,,,2,,,52,0
156480,note_on,433,0,3,,,,,,,,,2,,,52,62
156480,note_on,433,0,4,,,,,,,,,3,,,40,62
156480,note_on,480,0,1,,,,,,,,,0,,,64,0
157440,note_on,960,0,3,,,,,,,,,2,,,52,0
157440,note_on,0,0,4,,,,,,,,,3,,,40,62
157440,note_on,0,0,3,,,,,,,,,2,,,52,62
157440,note_on,960,0,4,,,,,,,,,3,,,40,0
157920,note_on,480,0,3,,,,,,,,,2,,,52,0
157920,note_on,0,0,3,,,,,,,,,2,,,52,62
157920,note_on,480,0,4,,,,,,,,,3,,,40,0
157920,note_on,0,0,4,,,,,,,,,3,,,40,62
157967,note_on,47,0,3,,,,,,,,,2,,,52,0
157967,note_on,47,0,4,,,,,,,,,3,,,40,0
158400,note_on,433,0,4,,,,,,,,,3,,,38,62
158400,note_on,433,0,3,,,,,,,,,2,,,50,62
159360,note_on,0,0,4,,,,,,,,,3,,,38,62
159360,note_on,960,0,4,,,,,,,,,3,,,38,0
159360,note_on,0,0,3,,,,,,,,,2,,,50,62
159360,note_on,960,0,3,,,,,,,,,2,,,50,0
159840,note_on,0,0,4,,,,,,,,,3,,,38,62
159840,note_on,480,0,3,,,,,,,,,2,,,50,0
159840,note_on,0,0,3,,,,,,,,,2,,,50,62
159840,note_on,480,0,4,,,,,,,,,3,,,38,0
159887,note_on,47,0,3,,,,,,,,,2,,,50,0
159887,note_on,47,0,4,,,,,,,,,3,,,38,0
160320,note_on,433,0,3,,,,,,,,,2,,,47,62
160320,note_on,433,0,4,,,,,,,,,3,,,35,62
161280,note_on,960,0,3,,,,,,,,,2,,,47,0
161280,note_on,0,0,3,,,,,,,,,2,,,47,62
161280,note_on,960,0,4,,,,,,,,,3,,,35,0
161280,note_on,0,0,4,,,,,,,,,3,,,35,62
161760,note_on,0,0,3,,,,,,,,,2,,,47,62
161760,note_on,480,0,4,,,,,,,,,3,,,35,0
161760,note_on,0,0,4,,,,,,,,,3,,,35,62
161760,note_on,480,0,3,,,,,,,,,2,,,47,0
161807,note_on,47,0,3,,,,,,,,,2,,,47,0
161807,note_on,47,0,4,,,,,,,,,3,,,35,0
162240,note_on,433,0,3,,,,,,,,,2,,,44,62
162240,note_on,433,0,4,,,,,,,,,3,,,32,62
163200,note_on,0,0,3,,,,,,,,,2,,,44,62
163200,note_on,960,0,4,,,,,,,,,3,,,32,0
163200,note_on,960,0,3,,,,,,,,,2,,,44,0
163200,note_on,0,0,4,,,,,,,,,3,,,32,62
163680,note_on,480,0,4,,,,,,,,,3,,,32,0
163680,note_on,0,0,3,,,,,,,,,2,,,44,62
163680,note_on,480,0,3,,,,,,,,,2,,,44,0
163680,note_on,0,0,4,,,,,,,,,3,,,32,62
163727,note_on,47,0,3,,,,,,,,,2,,,44,0
163727,note_on,47,0,4,,,,,,,,,3,,,32,0
164160,note_on,433,0,3,,,,,,,,,2,,,44,62
164160,note_on,433,0,4,,,,,,,,,3,,,32,62
165120,note_on,0,0,3,,,,,,,,,2,,,44,62
165120,note_on,0,0,4,,,,,,,,,3,,,32,62
165120,note_on,960,0,4,,,,,,,,,3,,,32,0
165120,note_on,960,0,3,,,,,,,,,2,,,44,0
165600,note_on,0,0,3,,,,,,,,,2,,,44,62
165600,note_on,480,0,3,,,,,,,,,2,,,44,0
165600,note_on,480,0,4,,,,,,,,,3,,,32,0
165600,note_on,0,0,4,,,,,,,,,3,,,32,62
165647,note_on,47,0,3,,,,,,,,,2,,,44,0
165647,note_on,47,0,4,,,,,,,,,3,,,32,0
166080,note_on,433,0,3,,,,,,,,,2,,,44,62
166080,note_on,433,0,4,,,,,,,,,3,,,32,62
167040,note_on,960,0,4,,,,,,,,,3,,,32,0
167040,note_on,0,0,4,,,,,,,,,3,,,32,62
167040,note_on,960,0,3,,,,,,,,,2,,,44,0
167040,note_on,0,0,3,,,,,,,,,2,,,44,62
167520,note_on,0,0,4,,,,,,,,,3,,,32,62
167520,note_on,480,0,4,,,,,,,,,3,,,32,0
167520,set_tempo,167040,1,0,,,,,,312500,,,,,,,
167520,note_on,480,0,3,,,,,,,,,2,,,44,0
167520,note_on,0,0,3,,,,,,,,,2,,,44,62
167567,note_on,47,0,4,,,,,,,,,3,,,32,0
167567,note_on,47,0,3,,,,,,,,,2,,,44,0
168000,note_on,433,0,4,,,,,,,,,3,,,32,62
168000,note_on,433,0,3,,,,,,,,,2,,,44,62
168960,note_on,960,0,4,,,,,,,,,3,,,32,0
168960,note_on,0,0,4,,,,,,,,,3,,,32,62
168960,note_on,0,0,3,,,,,,,,,2,,,44,62
168960,note_on,960,0,3,,,,,,,,,2,,,44,0
169440,set_tempo,1920,1,0,,,,,,270270,,,,,,,
169440,note_on,480,0,3,,,,,,,,,2,,,44,0
169440,note_on,0,0,4,,,,,,,,,3,,,32,49
169440,note_on,0,0,3,,,,,,,,,2,,,44,49
169440,note_on,12960,0,1,,,,,,,,,0,,,72,62
169440,note_on,0,0,1,,,,,,,,,0,,,75,62
169440,note_on,480,0,4,,,,,,,,,3,,,32,0
169440,note_on,22993,0,2,,,,,,,,,1,,,68,49
169920,note_on,0,0,4,,,,,,,,,3,,,32,49
169920,note_on,480,0,3,,,,,,,,,2,,,44,0
169920,note_on,0,0,3,,,,,,,,,2,,,44,49
169920,note_on,480,0,4,,,,,,,,,3,,,32,0
170880,note_on,960,0,4,,,,,,,,,3,,,32,0
170880,note_on,0,0,4,,,,,,,,,3,,,32,49
170880,note_on,960,0,3,,,,,,,,,2,,,44,0
170880,note_on,0,0,3,,,,,,,,,2,,,44,49
171360,note_on,480,0,3,,,,,,,,,2,,,44,0
171360,note_on,0,0,3,,,,,,,,,2,,,44,49
171360,note_on,0,0,1,,,,,,,,,0,,,72,0
171360,note_on,0,0,4,,,,,,,,,3,,,32,49
171360,note_on,480,0,4,,,,,,,,,3,,,32,0
171360,note_on,0,0,2,,,,,,,,,1,,,68,49
171360,note_on,1920,0,1,,,,,,,,,0,,,75,0
171360,note_on,1920,0,2,,,,,,,,,1,,,68,0
171360,note_on,0,0,1,,,,,,,,,0,,,72,62
171360,note_on,0,0,1,,,,,,,,,0,,,75,62
171840,note_on,0,0,4,,,,,,,,,3,,,32,49
171840,note_on,480,0,4,,,,,,,,,3,,,32,0
171840,note_on,0,0,3,,,,,,,,,2,,,44,49
171840,note_on,480,0,3,,,,,,,,,2,,,44,0
172800,note_on,0,0,4,,,,,,,,,3,,,32,49
172800,note_on,960,0,4,,,,,,,,,3,,,32,0
172800,note_on,1440,0,1,,,,,,,,,0,,,75,0
172800,note_on,0,0,1,,,,,,,,,0,,,75,62
172800,note_on,1440,0,2,,,,,,,,,1,,,68,0
172800,note_on,0,0,1,,,,,,,,,0,,,72,0
172800,note_on,0,0,2,,,,,,,,,1,,,68,49
172800,note_on,0,0,1,,,,,,,,,0,,,72,62
172800,note_on,960,0,3,,,,,,,,,2,,,44,0
172800,note_on,0,0,3,,,,,,,,,2,,,44,49
173280,note_on,0,0,1,,,,,,,,,0,,,75,62
173280,note_on,0,0,4,,,,,,,,,3,,,34,49
173280,note_on,480,0,4,,,,,,,,,3,,,32,0
173280,note_on,480,0,3,,,,,,,,,2,,,44,0
173280,note_on,0,0,3,,,,,,,,,2,,,46,49
173280,note_on,0,0,2,,,,,,,,,1,,,65,49
173280,note_on,480,0,2,,,,,,,,,1,,,68,0
173280,note_on,0,0,1,,,,,,,,,0,,,72,0
173280,note_on,0,0,2,,,,,,,,,1,,,70,49
173280,note_on,480,0,1,,,,,,,,,0,,,75,0
173760,note_on,480,0,3,,,,,,,,,2,,,46,0
173760,note_on,0,0,3,,,,,,,,,2,,,46,49
173760,note_on,480,0,4,,,,,,,,,3,,,34,0
173760,note_on,0,0,4,,,,,,,,,3,,,34,49
174240,note_on,960,0,1,,,,,,,,,0,,,75,0
174240,note_on,0,0,1,,,,,,,,,0,,,73,62
174720,note_on,960,0,3,,,,,,,,,2,,,46,0
174720,note_on,0,0,3,,,,,,,,,2,,,46,49
174720,note_on,960,0,4,,,,,,,,,3,,,34,0
174720,note_on,0,0,4,,,,,,,,,3,,,34,49
175200,note_on,1920,0,2,,,,,,,,,1,,,70,0
175200,note_on,480,0,4,,,,,,,,,3,,,34,0
175200,note_on,0,0,4,,,,,,,,,3,,,34,49
175200,note_on,0,0,3,,,,,,,,,2,,,46,49
175200,note_on,480,0,3,,,,,,,,,2,,,46,0
175680,note_on,0,0,4,,,,,,,,,3,,,34,49
175680,note_on,0,0,3,,,,,,,,,2,,,46,49
175680,note_on,480,0,3,,,,,,,,,2,,,46,0
175680,note_on,480,0,4,,,,,,,,,3,,,34,0
176160,note_on,1920,0,1,,,,,,,,,0,,,73,0
176160,note_on,0,0,2,,,,,,,,,1,,,65,49
176160,note_on,960,0,2,,,,,,,,,1,,,65,0
176160,note_on,0,0,1,,,,,,,,,0,,,73,62
176160,note_on,0,0,1,,,,,,,,,0,,,70,62
176640,note_on,960,0,3,,,,,,,,,2,,,46,0
176640,note_on,960,0,4,,,,,,,,,3,,,34,0
176640,note_on,0,0,4,,,,,,,,,3,,,37,49
176640,note_on,0,0,3,,,,,,,,,2,,,49,49
177120,note_on,480,0,3,,,,,,,,,2,,,49,0
177120,note_on,0,0,3,,,,,,,,,2,,,41,49
177120,note_on,480,0,4,,,,,,,,,3,,,37,0
177120,note_on,0,0,4,,,,,,,,,3,,,29,49
177120,note_on,0,0,2,,,,,,,,,1,,,65,49
177120,note_on,960,0,2,,,,,,,,,1,,,65,0
177120,note_on,960,0,1,,,,,,,,,0,,,73,0
177120,note_on,0,0,1,,,,,,,,,0,,,70,0
177120,note_on,0,0,1,,,,,,,,,0,,,70,62
177120,note_on,0,0,1,,,,,,,,,0,,,72,62
177600,note_on,480,0,3,,,,,,,,,2,,,41,0
177600,note_on,0,0,3,,,,,,,,,2,,,41,49
177600,note_on,480,0,4,,,,,,,,,3,,,29,0
177600,note_on,0,0,4,,,,,,,,,3,,,29,49
178560,note_on,0,0,4,,,,,,,,,3,,,29,49
178560,note_on,960,0,4,,,,,,,,,3,,,29,0
178560,note_on,960,0,3,,,,,,,,,2,,,41,0
178560,note_on,0,0,3,,,,,,,,,2,,,41,49
179040,note_on,0,0,1,,,,,,,,,0,,,70,0
179040,note_on,0,0,4,,,,,,,,,3,,,29,49
179040,note_on,480,0,4,,,,,,,,,3,,,29,0
179040,note_on,1920,0,1,,,,,,,,,0,,,72,0
179040,note_on,1920,0,2,,,,,,,,,1,,,65,0
179040,note_on,0,0,2,,,,,,,,,1,,,65,49
179040,note_on,0,0,2,,,,,,,,,1,,,69,49
179040,note_on,0,0,3,,,,,,,,,2,,,41,49
179040,note_on,0,0,1,,,,,,,,,0,,,72,62
179040,note_on,480,0,3,,,,,,,,,2,,,41,0
179520,note_on,480,0,3,,,,,,,,,2,,,41,0
179520,note_on,0,0,4,,,,,,,,,3,,,29,49
179520,note_on,0,0,3,,,,,,,,,2,,,41,49
179520,note_on,480,0,4,,,,,,,,,3,,,29,0
179760,note_on,720,0,1,,,,,,,,,0,,,72,0
179760,note_on,0,0,1,,,,,,,,,0,,,77,62
180000,note_on,0,0,1,,,,,,,,,0,,,77,62
180000,note_on,0,0,2,,,,,,,,,1,,,65,0
180000,note_on,960,0,2,,,,,,,,,1,,,69,0
180000,note_on,240,0,1,,,,,,,,,0,,,77,0
180000,note_on,0,0,2,,,,,,,,,1,,,65,49
180000,note_on,0,0,2,,,,,,,,,1,,,69,49
180480,note_on,960,0,4,,,,,,,,,3,,,29,0
180480,note_on,0,0,4,,,,,,,,,3,,,29,49
180480,note_on,0,0,3,,,,,,,,,2,,,41,49
180480,note_on,960,0,3,,,,,,,,,2,,,41,0
180720,note_on,720,0,1,,,,,,,,,0,,,77,0
180720,note_on,0,0,1,,,,,,,,,0,,,72,62
180960,note_on,0,0,2,,,,,,,,,1,,,65,0
180960,note_on,0,0,4,,,,,,,,,3,,,34,49
180960,note_on,480,0,4,,,,,,,,,3,,,29,0
180960,note_on,480,0,3,,,,,,,,,2,,,41,0
180960,note_on,0,0,3,,,,,,,,,2,,,46,49
180960,note_on,0,0,1,,,,,,,,,0,,,74,62
180960,note_on,0,0,1,,,,,,,,,0,,,70,62
180960,note_on,240,0,1,,,,,,,,,0,,,72,0
180960,note_on,960,0,2,,,,,,,,,1,,,69,0
180960,note_on,0,0,2,,,,,,,,,1,,,65,49
181440,note_on,0,0,3,,,,,,,,,2,,,46,49
181440,note_on,480,0,3,,,,,,,,,2,,,46,0
181440,note_on,0,0,4,,,,,,,,,3,,,34,49
181440,note_on,480,0,4,,,,,,,,,3,,,34,0
182400,note_on,0,0,4,,,,,,,,,3,,,34,49
182400,note_on,960,0,4,,,,,,,,,3,,,34,0
182400,note_on,0,0,3,,,,,,,,,2,,,46,49
182400,note_on,960,0,3,,,,,,,,,2,,,46,0
182880,note_on,0,0,3,,,,,,,,,2,,,46,49
182880,note_on,480,0,3,,,,,,,,,2,,,46,0
182880,note_on,0,0,4,,,,,,,,,3,,,34,49
182880,note_on,480,0,4,,,,,,,,,3,,,34,0
183360,note_on,480,0,4,,,,,,,,,3,,,34,0
183360,note_on,0,0,3,,,,,,,,,2,,,46,49
183360,note_on,480,0,3,,,,,,,,,2,,,46,0
183360,note_on,0,0,4,,,,,,,,,3,,,34,49
183840,note_on,0,0,1,,,,,,,,,0,,,70,0
183840,note_on,2880,0,1,,,,,,,,,0,,,74,0
183840,note_on,2880,0,2,,,,,,,,,1,,,65,0
184320,note_on,0,0,3,,,,,,,,,2,,,46,49
184320,note_on,960,0,3,,,,,,,,,2,,,46,0
184320,note_on,960,0,4,,,,,,,,,3,,,34,0
184320,note_on,0,0,4,,,,,,,,,3,,,34,49
184800,note_on,0,0,3,,,,,,,,,2,,,42,49
184800,control_change,960,0,1,,,,,,,,,0,64,127,,
184800,note_on,480,0,4,,,,,,,,,3,,,34,0
184800,note_on,0,0,4,,,,,,,,,3,,,30,49
184800,note_on,480,0,3,,,,,,,,,2,,,46,0
184800,note_on,0,0,1,,,,,,,,,0,,,73,62
184800,note_on,960,0,2,,,,,,,,,1,,,66,49
184800,note_on,0,0,1,,,,,,,,,0,,,70,62
185280,note_on,0,0,4,,,,,,,,,3,,,30,49
185280,note_on,480,0,3,,,,,,,,,2,,,42,0
185280,note_on,0,0,3,,,,,,,,,2,,,42,49
185280,note_on,480,0,4,,,,,,,,,3,,,30,0
186240,note_on,0,0,3,,,,,,,,,2,,,42,49
186240,note_on,0,0,4,,,,,,,,,3,,,30,49
186240,note_on,960,0,4,,,,,,,,,3,,,30,0
186240,note_on,960,0,3,,,,,,,,,2,,,42,0
186720,note_on,0,0,4,,,,,,,,,3,,,30,49
186720,control_change,0,0,4,,,,,,,,,3,64,127,,
186720,note_on,480,0,4,,,,,,,,,3,,,30,0
186720,note_on,480,0,3,,,,,,,,,2,,,42,0
186720,control_change,0,0,3,,,,,,,,,2,64,127,,
186720,note_on,0,0,3,,,,,,,,,2,,,42,49
186720,note_on,1920,0,2,,,,,,,,,1,,,66,0
186720,note_on,0,0,2,,,,,,,,,1,,,66,49
186720,note_on,0,0,1,,,,,,,,,0,,,73,62
186720,note_on,0,0,1,,,,,,,,,0,,,70,62
186720,note_on,0,0,1,,,,,,,,,0,,,70,0
186720,note_on,1920,0,1,,,,,,,,,0,,,73,0
187200,note_on,0,0,4,,,,,,,,,3,,,34,49
187200,note_on,480,0,4,,,,,,,,,3,,,30,0
187200,note_on,0,0,3,,,,,,,,,2,,,46,49
187200,note_on,480,0,3,,,,,,,,,2,,,42,0
187680,note_on,480,0,3,,,,,,,,,2,,,46,0
187680,note_on,0,0,3,,,,,,,,,2,,,49,49
187680,note_on,0,0,4,,,,,,,,,3,,,37,49
187680,control_change,0,0,1,,,,,,,,,0,64,0,,
187680,note_on,0,0,1,,,,,,,,,0,,,73,62
187680,note_on,0,0,1,,,,,,,,,0,,,68,62
187680,note_on,0,0,1,,,,,,,,,0,,,70,0
187680,note_on,960,0,1,,,,,,,,,0,,,73,0
187680,note_on,480,0,4,,,,,,,,,3,,,34,0
187680,note_on,0,0,2,,,,,,,,,1,,,65,49
187680,note_on,960,0,2,,,,,,,,,1,,,66,0
188160,control_change,0,0,3,,,,,,,,,2,64,0,,
188160,note_on,0,0,4,,,,,,,,,3,,,29,49
188160,note_on,0,0,3,,,,,,,,,2,,,41,49
188160,note_on,480,0,4,,,,,,,,,3,,,37,0
188160,control_change,0,0,4,,,,,,,,,3,64,0,,
188160,note_on,480,0,3,,,,,,,,,2,,,49,0
188640,note_on,0,0,4,,,,,,,,,3,,,32,49
188640,note_on,480,0,3,,,,,,,,,2,,,41,0
188640,note_on,0,0,3,,,,,,,,,2,,,44,49
188640,note_on,0,0,2,,,,,,,,,1,,,68,49
188640,note_on,480,0,4,,,,,,,,,3,,,29,0
188640,note_on,960,0,2,,,,,,,,,1,,,65,0
188640,note_on,0,0,1,,,,,,,,,0,,,73,62
188640,note_on,0,0,1,,,,,,,,,0,,,68,0
188640,note_on,960,0,1,,,,,,,,,0,,,73,0
188640,note_on,0,0,2,,,,,,,,,1,,,63,49
188687,note_on,47,0,3,,,,,,,,,2,,,44,0
188687,note_on,47,0,4,,,,,,,,,3,,,32,0
189120,note_on,433,0,3,,,,,,,,,2,,,44,49
189120,note_on,433,0,4,,,,,,,,,3,,,32,49
189600,note_on,960,0,1,,,,,,,,,0,,,73,0
189600,note_on,0,0,1,,,,,,,,,0,,,72,62
190080,note_on,960,0,4,,,,,,,,,3,,,32,0
190080,note_on,0,0,4,,,,,,,,,3,,,32,49
190080,note_on,0,0,3,,,,,,,,,2,,,44,49
190080,note_on,960,0,3,,,,,,,,,2,,,44,0
190560,note_on,0,0,3,,,,,,,,,2,,,44,49
190560,note_on,480,0,4,,,,,,,,,3,,,32,0
190560,note_on,0,0,4,,,,,,,,,3,,,32,49
190560,note_on,480,0,3,,,,,,,,,2,,,44,0
190560,note_on,1920,0,2,,,,,,,,,1,,,68,0
190607,note_on,47,0,4,,,,,,,,,3,,,32,0
190607,note_on,47,0,3,,,,,,,,,2,,,44,0
191040,note_on,433,0,3,,,,,,,,,2,,,44,49
191040,note_on,433,0,4,,,,,,,,,3,,,32,49
191520,note_on,1920,0,1,,,,,,,,,0,,,72,0
191520,note_on,0,0,1,,,,,,,,,0,,,68,62
191520,note_on,0,0,1,,,,,,,,,0,,,72,62
191520,note_on,960,0,2,,,,,,,,,1,,,63,0
191520,note_on,0,0,2,,,,,,,,,1,,,63,49
192000,note_on,0,0,4,,,,,,,,,3,,,36,49
192000,note_on,960,0,3,,,,,,,,,2,,,44,0
192000,note_on,960,0,4,,,,,,,,,3,,,32,0
192000,note_on,0,0,3,,,,,,,,,2,,,48,49
192480,note_on,480,0,3,,,,,,,,,2,,,48,0
192480,note_on,480,0,4,,,,,,,,,3,,,36,0
192480,note_on,0,0,3,,,,,,,,,2,,,51,49
192480,note_on,0,0,4,,,,,,,,,3,,,39,49
192480,note_on,960,0,2,,,,,,,,,1,,,63,0
192480,note_on,0,0,2,,,,,,,,,1,,,63,49
192480,note_on,0,0,1,,,,,,,,,0,,,70,62
192480,note_on,0,0,1,,,,,,,,,0,,,68,62
192480,note_on,0,0,1,,,,,,,,,0,,,68,0
192480,note_on,960,0,1,,,,,,,,,0,,,72,0
192527,note_on,47,0,4,,,,,,,,,3,,,39,0
192527,note_on,47,0,3,,,,,,,,,2,,,51,0
192960,note_on,433,0,3,,,,,,,,,2,,,51,49
192960,note_on,433,0,4,,,,,,,,,3,,,39,49
193920,note_on,0,0,3,,,,,,,,,2,,,51,49
193920,note_on,0,0,4,,,,,,,,,3,,,39,49
193920,note_on,960,0,4,,,,,,,,,3,,,39,0
193920,note_on,960,0,3,,,,,,,,,2,,,51,0
194400,note_on,0,0,1,,,,,,,,,0,,,68,0
194400,note_on,0,0,4,,,,,,,,,3,,,39,49
194400,note_on,480,0,4,,,,,,,,,3,,,39,0
194400,note_on,0,0,2,,,,,,,,,1,,,67,49
194400,note_on,1920,0,1,,,,,,,,,0,,,70,0
194400,set_tempo,24960,1,0,,,,,,312500,,,,,,,
194400,note_on,0,0,3,,,,,,,,,2,,,51,49
194400,note_on,0,0,2,,,,,,,,,1,,,63,49
194400,note_on,480,0,3,,,,,,,,,2,,,51,0
194400,note_on,0,0,1,,,,,,,,,0,,,70,62
194400,note_on,1920,0,2,,,,,,,,,1,,,63,0
194447,note_on,47,0,3,,,,,,,,,2,,,51,0
194447,note_on,47,0,4,,,,,,,,,3,,,39,0
194880,note_on,433,0,4,,,,,,,,,3,,,39,49
194880,note_on,433,0,3,,,,,,,,,2,,,51,49
195120,note_on,0,0,1,,,,,,,,,0,,,75,62
195120,note_on,720,0,1,,,,,,,,,0,,,70,0
195360,note_on,240,0,1,,,,,,,,,0,,,75,0
195360,note_on,0,0,1,,,,,,,,,0,,,75,62
195360,note_on,0,0,2,,,,,,,,,1,,,63,0
195360,note_on,0,0,2,,,,,,,,,1,,,63,49
195360,note_on,0,0,2,,,,,,,,,1,,,67,49
195360,note_on,960,0,2,,,,,,,,,1,,,67,0
195840,note_on,0,0,3,,,,,,,,,2,,,51,49
195840,note_on,0,0,4,,,,,,,,,3,,,39,49
195840,note_on,960,0,4,,,,,,,,,3,,,39,0
195840,note_on,960,0,3,,,,,,,,,2,,,51,0
196080,note_on,0,0,1,,,,,,,,,0,,,70,62
196080,note_on,720,0,1,,,,,,,,,0,,,75,0
196320,note_on,480,0,4,,,,,,,,,3,,,39,0
196320,note_on,0,0,4,,,,,,,,,3,,,44,49
196320,note_on,0,0,1,,,,,,,,,0,,,72,62
196320,note_on,0,0,1,,,,,,,,,0,,,68,62
196320,set_tempo,1920,1,0,,,,,,270270,,,,,,,
196320,note_on,480,0,3,,,,,,,,,2,,,51,0
196320,note_on,0,0,2,,,,,,,,,1,,,63,49
196320,note_on,0,0,2,,,,,,,,,1,,,63,0
196320,note_on,960,0,2,,,,,,,,,1,,,67,0
196320,note_on,240,0,1,,,,,,,,,0,,,70,0
196320,note_on,0,0,4,,,,,,,,,3,,,32,49
196640,control_change,320,0,3,,,,,,,,,2,64,127,,
196640,note_on,0,0,3,,,,,,,,,2,,,51,49
196800,note_on,0,0,4,,,,,,,,,3,,,44,49
196800,note_on,0,0,4,,,,,,,,,3,,,32,0
196800,note_on,0,0,4,,,,,,,,,3,,,32,49
196800,note_on,480,0,4,,,,,,,,,3,,,44,0
196959,note_on,319,0,3,,,,,,,,,2,,,51,0
196959,note_on,0,0,3,,,,,,,,,2,,,56,49
197280,note_on,321,0,3,,,,,,,,,2,,,56,0
197280,note_on,0,0,3,,,,,,,,,2,,,60,49
197600,note_on,0,0,3,,,,,,,,,2,,,56,49
197600,note_on,320,0,3,,,,,,,,,2,,,60,0
197760,note_on,0,0,4,,,,,,,,,3,,,32,49
197760,note_on,0,0,4,,,,,,,,,3,,,44,49
197760,note_on,960,0,4,,,,,,,,,3,,,44,0
197760,note_on,0,0,4,,,,,,,,,3,,,32,0
197919,note_on,319,0,3,,,,,,,,,2,,,56,0
197919,control_change,0,0,3,,,,,,,,,2,64,0,,
197919,note_on,0,0,3,,,,,,,,,2,,,51,49
198000,note_on,1680,0,1,,,,,,,,,0,,,72,0
198000,note_on,1680,0,2,,,,,,,,,1,,,63,0
198000,note_on,0,0,1,,,,,,,,,0,,,84,62
198000,note_on,0,0,2,,,,,,,,,1,,,72,49
198000,note_on,0,0,1,,,,,,,,,0,,,68,0
198240,note_on,240,0,1,,,,,,,,,0,,,84,0
198240,note_on,0,0,4,,,,,,,,,3,,,44,49
198240,note_on,0,0,2,,,,,,,,,1,,,72,49
198240,note_on,0,0,4,,,,,,,,,3,,,32,49
198240,note_on,0,0,4,,,,,,,,,3,,,32,0
198240,note_on,480,0,4,,,,,,,,,3,,,44,0
198240,note_on,240,0,2,,,,,,,,,1,,,72,0
198240,note_on,321,0,3,,,,,,,,,2,,,51,0
198240,note_on,0,0,1,,,,,,,,,0,,,84,62
198560,note_on,0,0,3,,,,,,,,,2,,,51,49
198560,control_change,320,0,3,,,,,,,,,2,64,127,,
198720,note_on,0,0,4,,,,,,,,,3,,,32,49
198720,note_on,0,0,4,,,,,,,,,3,,,44,49
198720,note_on,0,0,4,,,,,,,,,3,,,32,0
198720,note_on,480,0,4,,,,,,,,,3,,,44,0
198879,note_on,0,0,3,,,,,,,,,2,,,56,49
198879,note_on,319,0,3,,,,,,,,,2,,,51,0
198960,note_on,0,0,2,,,,,,,,,1,,,75,49
198960,note_on,720,0,1,,,,,,,,,0,,,84,0
198960,note_on,0,0,1,,,,,,,,,0,,,87,62
198960,note_on,720,0,2,,,,,,,,,1,,,72,0
199200,note_on,321,0,3,,,,,,,,,2,,,56,0
199200,note_on,0,0,1,,,,,,,,,0,,,87,62
199200,note_on,240,0,1,,,,,,,,,0,,,87,0
199200,note_on,0,0,3,,,,,,,,,2,,,60,49
199200,note_on,240,0,2,,,,,,,,,1,,,75,0
199200,note_on,0,0,2,,,,,,,,,1,,,75,49
199520,note_on,320,0,3,,,,,,,,,2,,,60,0
199520,note_on,0,0,3,,,,,,,,,2,,,56,49
199680,note_on,0,0,4,,,,,,,,,3,,,44,49
199680,note_on,960,0,4,,,,,,,,,3,,,44,0
199680,note_on,0,0,4,,,,,,,,,3,,,32,0
199680,note_on,0,0,4,,,,,,,,,3,,,32,49
199839,note_on,0,0,3,,,,,,,,,2,,,51,49
199839,note_on,319,0,3,,,,,,,,,2,,,56,0
199839,control_change,0,0,3,,,,,,,,,2,64,0,,
199920,note_on,720,0,1,,,,,,,,,0,,,87,0
199920,note_on,0,0,1,,,,,,,,,0,,,80,62
199920,note_on,720,0,2,,,,,,,,,1,,,75,0
199920,note_on,0,0,2,,,,,,,,,1,,,68,49
200160,note_on,0,0,4,,,,,,,,,3,,,32,49
200160,note_on,480,0,4,,,,,,,,,3,,,44,0
200160,note_on,0,0,4,,,,,,,,,3,,,32,0
200160,note_on,0,0,4,,,,,,,,,3,,,44,49
200160,note_on,240,0,2,,,,,,,,,1,,,68,0
200160,note_on,0,0,2,,,,,,,,,1,,,72,49
200160,note_on,321,0,3,,,,,,,,,2,,,51,0
200160,control_change,0,0,2,,,,,,,,,1,64,127,,
200160,note_on,0,0,1,,,,,,,,,0,,,84,62
200160,control_change,0,0,1,,,,,,,,,0,64,127,,
200160,note_on,240,0,1,,,,,,,,,0,,,80,0
200480,control_change,320,0,3,,,,,,,,,2,64,127,,
200480,note_on,0,0,3,,,,,,,,,2,,,51,49
200640,note_on,0,0,4,,,,,,,,,3,,,44,49
200640,note_on,0,0,4,,,,,,,,,3,,,32,49
200640,note_on,480,0,4,,,,,,,,,3,,,44,0
200640,note_on,0,0,4,,,,,,,,,3,,,32,0
200799,note_on,0,0,3,,,,,,,,,2,,,55,49
200799,note_on,319,0,3,,,,,,,,,2,,,51,0
201120,note_on,0,0,3,,,,,,,,,2,,,61,49
201120,note_on,960,0,2,,,,,,,,,1,,,72,0
201120,note_on,960,0,1,,,,,,,,,0,,,84,0
201120,note_on,0,0,2,,,,,,,,,1,,,70,49
201120,note_on,0,0,1,,,,,,,,,0,,,82,62
201120,note_on,321,0,3,,,,,,,,,2,,,55,0
201440,note_on,320,0,3,,,,,,,,,2,,,61,0
201440,note_on,0,0,3,,,,,,,,,2,,,55,49
201600,control_change,0,0,2,,,,,,,,,1,64,0,,
201600,note_on,0,0,1,,,,,,,,,0,,,84,62
201600,note_on,480,0,2,,,,,,,,,1,,,70,0
201600,control_change,0,0,1,,,,,,,,,0,64,0,,
201600,note_on,480,0,1,,,,,,,,,0,,,82,0
201600,note_on,0,0,2,,,,,,,,,1,,,72,49
201600,note_on,0,0,4,,,,,,,,,3,,,32,0
201600,note_on,960,0,4,,,,,,,,,3,,,44,0
201600,note_on,0,0,4,,,,,,,,,3,,,44,49
201600,note_on,0,0,4,,,,,,,,,3,,,32,49
201759,note_on,319,0,3,,,,,,,,,2,,,55,0
201759,control_change,0,0,3,,,,,,,,,2,64,0,,
201759,note_on,0,0,3,,,,,,,,,2,,,51,49
202080,note_on,0,0,2,,,,,,,,,1,,,73,49
202080,note_on,480,0,2,,,,,,,,,1,,,72,0
202080,note_on,0,0,4,,,,,,,,,3,,,32,49
202080,note_on,0,0,4,,,,,,,,,3,,,44,49
202080,note_on,480,0,1,,,,,,,,,0,,,84,0
202080,note_on,321,0,3,,,,,,,,,2,,,51,0
202080,note_on,0,0,1,,,,,,,,,0,,,85,62
202080,note_on,0,0,4,,,,,,,,,3,,,32,0
202080,note_on,480,0,4,,,,,,,,,3,,,44,0
202400,control_change,320,0,3,,,,,,,,,2,64,127,,
202400,note_on,0,0,3,,,,,,,,,2,,,51,49
202560,note_on,0,0,4,,,,,,,,,3,,,32,49
202560,note_on,480,0,4,,,,,,,,,3,,,44,0
202560,note_on,0,0,4,,,,,,,,,3,,,32,0
202560,note_on,0,0,4,,,,,,,,,3,,,44,49
202719,note_on,319,0,3,,,,,,,,,2,,,51,0
202719,note_on,0,0,3,,,,,,,,,2,,,55,49
202800,note_on,0,0,1,,,,,,,,,0,,,89,62
202800,note_on,720,0,1,,,,,,,,,0,,,85,0
202800,note_on,720,0,2,,,,,,,,,1,,,73,0
202800,note_on,0,0,2,,,,,,,,,1,,,77,49
203040,note_on,0,0,3,,,,,,,,,2,,,61,49
203040,note_on,240,0,1,,,,,,,,,0,,,89,0
203040,note_on,0,0,1,,,,,,,,,0,,,89,62
203040,note_on,240,0,2,,,,,,,,,1,,,77,0
203040,note_on,0,0,2,,,,,,,,,1,,,77,49
203040,note_on,321,0,3,,,,,,,,,2,,,55,0
203360,note_on,0,0,3,,,,,,,,,2,,,55,49
203360,note_on,320,0,3,,,,,,,,,2,,,61,0
203520,note_on,960,0,4,,,,,,,,,3,,,44,0
203520,note_on,0,0,4,,,,,,,,,3,,,32,0
203520,note_on,0,0,4,,,,,,,,,3,,,32,49
203520,note_on,0,0,4,,,,,,,,,3,,,44,49
203679,note_on,319,0,3,,,,,,,,,2,,,55,0
203679,control_change,0,0,3,,,,,,,,,2,64,0,,
203679,note_on,0,0,3,,,,,,,,,2,,,51,49
203760,note_on,720,0,2,,,,,,,,,1,,,77,0
203760,note_on,720,0,1,,,,,,,,,0,,,89,0
203760,note_on,0,0,2,,,,,,,,,1,,,70,49
203760,note_on,0,0,1,,,,,,,,,0,,,82,62
204000,note_on,240,0,2,,,,,,,,,1,,,70,0
204000,note_on,0,0,1,,,,,,,,,0,,,85,62
204000,note_on,240,0,1,,,,,,,,,0,,,82,0
204000,note_on,321,0,3,,,,,,,,,2,,,51,0
204000,note_on,480,0,4,,,,,,,,,3,,,44,0
204000,note_on,0,0,4,,,,,,,,,3,,,32,49
204000,note_on,0,0,4,,,,,,,,,3,,,44,49
204000,note_on,0,0,2,,,,,,,,,1,,,73,49
204000,note_on,0,0,4,,,,,,,,,3,,,32,0
204320,control_change,320,0,3,,,,,,,,,2,64,127,,
204320,note_on,0,0,3,,,,,,,,,2,,,51,49
204480,note_on,0,0,4,,,,,,,,,3,,,32,49
204480,note_on,0,0,4,,,,,,,,,3,,,32,0
204480,note_on,0,0,4,,,,,,,,,3,,,44,49
204480,note_on,480,0,4,,,,,,,,,3,,,44,0
204639,note_on,319,0,3,,,,,,,,,2,,,51,0
204639,note_on,0,0,3,,,,,,,,,2,,,56,49
204960,note_on,960,0,2,,,,,,,,,1,,,73,0
204960,note_on,0,0,2,,,,,,,,,1,,,72,49
204960,note_on,0,0,1,,,,,,,,,0,,,84,62
204960,note_on,960,0,1,,,,,,,,,0,,,85,0
204960,note_on,321,0,3,,,,,,,,,2,,,56,0
204960,note_on,0,0,3,,,,,,,,,2,,,60,49
205280,note_on,320,0,3,,,,,,,,,2,,,60,0
205280,note_on,0,0,3,,,,,,,,,2,,,56,49
205440,note_on,0,0,4,,,,,,,,,3,,,32,0
205440,note_on,0,0,4,,,,,,,,,3,,,32,49
205440,note_on,0,0,4,,,,,,,,,3,,,44,49
205440,note_on,960,0,4,,,,,,,,,3,,,44,0
205599,control_change,0,0,3,,,,,,,,,2,64,0,,
205599,note_on,0,0,3,,,,,,,,,2,,,51,49
205599,note_on,319,0,3,,,,,,,,,2,,,56,0
205920,note_on,0,0,4,,,,,,,,,3,,,32,0
205920,note_on,321,0,3,,,,,,,,,2,,,51,0
205920,note_on,0,0,4,,,,,,,,,3,,,32,49
205920,note_on,0,0,4,,,,,,,,,3,,,44,49
205920,note_on,480,0,4,,,,,,,,,3,,,44,0
206240,control_change,320,0,3,,,,,,,,,2,64,127,,
206240,note_on,0,0,3,,,,,,,,,2,,,51,49
206400,control_change,0,0,1,,,,,,,,,0,64,127,,
206400,note_on,1440,0,1,,,,,,,,,0,,,84,0
206400,note_on,1440,0,2,,,,,,,,,1,,,72,0
206400,control_change,0,0,2,,,,,,,,,1,64,127,,
206400,note_on,0,0,4,,,,,,,,,3,,,32,0
206400,note_on,0,0,4,,,,,,,,,3,,,44,49
206400,note_on,0,0,2,,,,,,,,,1,,,70,49
206400,note_on,0,0,1,,,,,,,,,0,,,82,62
206400,note_on,0,0,4,,,,,,,,,3,,,32,49
206400,note_on,480,0,4,,,,,,,,,3,,,44,0
206559,note_on,0,0,3,,,,,,,,,2,,,58,49
206559,note_on,0,0,3,,,,,,,,,2,,,55,49
206559,note_on,319,0,3,,,,,,,,,2,,,51,0
206880,note_on,0,0,3,,,,,,,,,2,,,60,49
206880,note_on,480,0,2,,,,,,,,,1,,,70,0
206880,note_on,0,0,2,,,,,,,,,1,,,72,49
206880,note_on,480,0,1,,,,,,,,,0,,,82,0
206880,note_on,0,0,3,,,,,,,,,2,,,56,49
206880,note_on,0,0,1,,,,,,,,,0,,,84,62
206880,note_on,0,0,3,,,,,,,,,2,,,55,0
206880,note_on,321,0,3,,,,,,,,,2,,,58,0
207200,note_on,320,0,3,,,,,,,,,2,,,60,0
207200,note_on,0,0,3,,,,,,,,,2,,,51,49
207200,note_on,0,0,3,,,,,,,,,2,,,56,0
207360,note_on,480,0,2,,,,,,,,,1,,,72,0
207360,control_change,0,0,2,,,,,,,,,1,64,0,,
207360,note_on,0,0,2,,,,,,,,,1,,,73,49
207360,note_on,480,0,1,,,,,,,,,0,,,84,0
207360,note_on,0,0,4,,,,,,,,,3,,,32,0
207360,note_on,960,0,4,,,,,,,,,3,,,44,0
207360,note_on,0,0,1,,,,,,,,,0,,,85,62
207360,control_change,0,0,1,,,,,,,,,0,64,0,,
207360,note_on,0,0,4,,,,,,,,,3,,,44,49
207360,note_on,0,0,4,,,,,,,,,3,,,32,49
207519,note_on,0,0,3,,,,,,,,,2,,,58,49
207519,note_on,0,0,3,,,,,,,,,2,,,61,49
207519,control_change,0,0,3,,,,,,,,,2,64,0,,
207519,note_on,319,0,3,,,,,,,,,2,,,51,0
207840,note_on,480,0,4,,,,,,,,,3,,,44,0
207840,note_on,0,0,4,,,,,,,,,3,,,32,49
207840,note_on,0,0,4,,,,,,,,,3,,,44,49
207840,note_on,0,0,3,,,,,,,,,2,,,58,0
207840,note_on,321,0,3,,,,,,,,,2,,,61,0
207840,note_on,480,0,2,,,,,,,,,1,,,73,0
207840,note_on,0,0,2,,,,,,,,,1,,,75,49
207840,note_on,0,0,1,,,,,,,,,0,,,87,62
207840,note_on,480,0,1,,,,,,,,,0,,,85,0
207840,note_on,0,0,4,,,,,,,,,3,,,32,0
208160,control_change,320,0,3,,,,,,,,,2,64,127,,
208160,note_on,0,0,3,,,,,,,,,2,,,51,49
208320,note_on,0,0,4,,,,,,,,,3,,,44,49
208320,note_on,0,0,4,,,,,,,,,3,,,32,49
208320,note_on,0,0,4,,,,,,,,,3,,,32,0
208320,note_on,480,0,4,,,,,,,,,3,,,44,0
208479,note_on,0,0,3,,,,,,,,,2,,,60,49
208479,note_on,319,0,3,,,,,,,,,2,,,51,0
208560,note_on,0,0,2,,,,,,,,,1,,,80,49
208560,note_on,720,0,2,,,,,,,,,1,,,75,0
208560,note_on,720,0,1,,,,,,,,,0,,,87,0
208560,note_on,0,0,1,,,,,,,,,0,,,92,62
208800,note_on,240,0,1,,,,,,,,,0,,,92,0
208800,note_on,0,0,1,,,,,,,,,0,,,92,62
208800,note_on,0,0,2,,,,,,,,,1,,,80,49
208800,note_on,240,0,2,,,,,,,,,1,,,80,0
208800,note_on,0,0,3,,,,,,,,,2,,,63,49
208800,note_on,321,0,3,,,,,,,,,2,,,60,0
209120,note_on,320,0,3,,,,,,,,,2,,,63,0
209120,note_on,0,0,3,,,,,,,,,2,,,60,49
209280,note_on,960,0,4,,,,,,,,,3,,,44,0
209280,note_on,0,0,4,,,,,,,,,3,,,32,0
209280,note_on,0,0,4,,,,,,,,,3,,,32,49
209280,note_on,0,0,4,,,,,,,,,3,,,44,49
209439,note_on,319,0,3,,,,,,,,,2,,,60,0
209439,control_change,0,0,3,,,,,,,,,2,64,0,,
209439,note_on,0,0,3,,,,,,,,,2,,,51,49
209520,note_on,720,0,1,,,,,,,,,0,,,92,0
209520,note_on,0,0,1,,,,,,,,,0,,,84,62
209520,note_on,720,0,2,,,,,,,,,1,,,80,0
209520,note_on,0,0,2,,,,,,,,,1,,,72,49
209760,note_on,240,0,2,,,,,,,,,1,,,72,0
209760,note_on,0,0,2,,,,,,,,,1,,,72,49
209760,note_on,321,0,3,,,,,,,,,2,,,51,0
209760,note_on,480,0,4,,,,,,,,,3,,,44,0
209760,note_on,0,0,4,,,,,,,,,3,,,32,0
209760,note_on,0,0,4,,,,,,,,,3,,,36,49
209760,note_on,0,0,4,,,,,,,,,3,,,48,49
209760,note_on,240,0,1,,,,,,,,,0,,,84,0
209760,note_on,0,0,1,,,,,,,,,0,,,84,62
210080,control_change,320,0,3,,,,,,,,,2,64,127,,
210080,note_on,0,0,3,,,,,,,,,2,,,56,49
210240,note_on,0,0,4,,,,,,,,,3,,,48,49
210240,note_on,0,0,4,,,,,,,,,3,,,36,49
210240,note_on,0,0,4,,,,,,,,,3,,,36,0
210240,note_on,480,0,4,,,,,,,,,3,,,48,0
210399,note_on,0,0,3,,,,,,,,,2,,,60,49
210399,note_on,319,0,3,,,,,,,,,2,,,56,0
210480,note_on,0,0,1,,,,,,,,,0,,,87,62
210480,note_on,720,0,2,,,,,,,,,1,,,72,0
210480,note_on,0,0,2,,,,,,,,,1,,,75,49
210480,note_on,720,0,1,,,,,,,,,0,,,84,0
210720,note_on,0,0,2,,,,,,,,,1,,,75,49
210720,note_on,240,0,2,,,,,,,,,1,,,75,0
210720,note_on,0,0,3,,,,,,,,,2,,,63,49
210720,note_on,0,0,1,,,,,,,,,0,,,87,62
210720,note_on,321,0,3,,,,,,,,,2,,,60,0
210720,note_on,240,0,1,,,,,,,,,0,,,87,0
211040,note_on,320,0,3,,,,,,,,,2,,,63,0
211040,note_on,0,0,3,,,,,,,,,2,,,60,49
211200,note_on,960,0,4,,,,,,,,,3,,,48,0
211200,note_on,0,0,4,,,,,,,,,3,,,36,0
211200,note_on,0,0,4,,,,,,,,,3,,,36,49
211200,note_on,0,0,4,,,,,,,,,3,,,48,49
211359,note_on,0,0,3,,,,,,,,,2,,,56,49
211359,note_on,319,0,3,,,,,,,,,2,,,60,0
211359,control_change,0,0,3,,,,,,,,,2,64,0,,
211440,note_on,0,0,2,,,,,,,,,1,,,68,49
211440,note_on,720,0,2,,,,,,,,,1,,,75,0
211440,note_on,720,0,1,,,,,,,,,0,,,87,0
211440,note_on,0,0,1,,,,,,,,,0,,,80,62
211680,note_on,321,0,3,,,,,,,,,2,,,56,0
211680,note_on,480,0,4,,,,,,,,,3,,,48,0
211680,note_on,0,0,4,,,,,,,,,3,,,36,0
211680,note_on,0,0,4,,,,,,,,,3,,,39,49
211680,control_change,0,0,1,,,,,,,,,0,64,127,,
211680,note_on,0,0,1,,,,,,,,,0,,,80,62
211680,note_on,0,0,4,,,,,,,,,3,,,51,49
211680,note_on,240,0,2,,,,,,,,,1,,,68,0
211680,control_change,0,0,2,,,,,,,,,1,64,127,,
211680,note_on,0,0,2,,,,,,,,,1,,,68,62
211680,note_on,240,0,1,,,,,,,,,0,,,80,0
212000,control_change,320,0,3,,,,,,,,,2,64,127,,
212000,note_on,0,0,3,,,,,,,,,2,,,60,49
212160,note_on,480,0,4,,,,,,,,,3,,,51,0
212160,note_on,0,0,4,,,,,,,,,3,,,39,49
212160,note_on,0,0,4,,,,,,,,,3,,,51,49
212160,note_on,0,0,4,,,,,,,,,3,,,39,0
212319,note_on,0,0,3,,,,,,,,,2,,,63,49
212319,note_on,319,0,3,,,,,,,,,2,,,60,0
212400,note_on,0,0,2,,,,,,,,,1,,,69,62
212400,note_on,720,0,1,,,,,,,,,0,,,80,0
212400,note_on,0,0,1,,,,,,,,,0,,,81,62
212400,note_on,720,0,2,,,,,,,,,1,,,68,0
212640,note_on,0,0,3,,,,,,,,,2,,,61,62
212640,note_on,321,0,3,,,,,,,,,2,,,63,0
212640,note_on,0,0,2,,,,,,,,,1,,,70,75
212640,note_on,240,0,2,,,,,,,,,1,,,69,0
212640,note_on,240,0,1,,,,,,,,,0,,,81,0
212640,note_on,0,0,1,,,,,,,,,0,,,82,75
212960,note_on,0,0,3,,,,,,,,,2,,,63,62
212960,note_on,320,0,3,,,,,,,,,2,,,61,0
213120,note_on,0,0,4,,,,,,,,,3,,,39,49
213120,note_on,0,0,4,,,,,,,,,3,,,51,49
213120,note_on,0,0,4,,,,,,,,,3,,,39,0
213120,note_on,960,0,4,,,,,,,,,3,,,51,0
213279,note_on,319,0,3,,,,,,,,,2,,,63,0
213279,control_change,0,0,3,,,,,,,,,2,64,0,,
213279,note_on,0,0,3,,,,,,,,,2,,,61,62
213360,note_on,720,0,1,,,,,,,,,0,,,82,0
213360,note_on,0,0,2,,,,,,,,,1,,,71,75
213360,control_change,0,0,2,,,,,,,,,1,64,0,,
213360,note_on,720,0,2,,,,,,,,,1,,,70,0
213360,note_on,0,0,1,,,,,,,,,0,,,83,75
213360,control_change,0,0,1,,,,,,,,,0,64,0,,
213600,note_on,480,0,4,,,,,,,,,3,,,51,0
213600,note_on,0,0,3,,,,,,,,,2,,,55,62
213600,note_on,321,0,3,,,,,,,,,2,,,61,0
213600,note_on,0,0,4,,,,,,,,,3,,,44,49
213600,note_on,240,0,1,,,,,,,,,0,,,83,0
213600,control_change,0,0,1,,,,,,,,,0,64,127,,
213600,note_on,0,0,1,,,,,,,,,0,,,83,88
213600,note_on,0,0,2,,,,,,,,,1,,,71,88
213600,control_change,0,0,2,,,,,,,,,1,64,127,,
213600,note_on,240,0,2,,,,,,,,,1,,,71,0
213600,control_change,0,0,3,,,,,,,,,2,64,127,,
213600,note_on,0,0,4,,,,,,,,,3,,,39,0
213920,note_on,0,0,3,,,,,,,,,2,,,63,62
213920,note_on,320,0,3,,,,,,,,,2,,,55,0
214080,note_on,0,0,4,,,,,,,,,3,,,44,49
214080,note_on,480,0,4,,,,,,,,,3,,,44,0
214239,note_on,319,0,3,,,,,,,,,2,,,63,0
214239,note_on,0,0,3,,,,,,,,,2,,,61,62
214560,note_on,321,0,3,,,,,,,,,2,,,61,0
214560,note_on,0,0,3,,,,,,,,,2,,,60,49
214560,note_on,960,0,1,,,,,,,,,0,,,83,0
214560,note_on,0,0,2,,,,,,,,,1,,,72,75
214560,note_on,960,0,2,,,,,,,,,1,,,71,0
214560,note_on,0,0,1,,,,,,,,,0,,,84,75
214880,note_on,320,0,3,,,,,,,,,2,,,60,0
214880,note_on,0,0,3,,,,,,,,,2,,,56,49
215040,note_on,0,0,1,,,,,,,,,0,,,85,62
215040,note_on,480,0,1,,,,,,,,,0,,,84,0
215040,note_on,960,0,4,,,,,,,,,3,,,44,0
215040,note_on,0,0,2,,,,,,,,,1,,,73,62
215040,control_change,0,0,2,,,,,,,,,1,64,0,,
215040,note_on,480,0,2,,,,,,,,,1,,,72,0
215040,note_on,0,0,4,,,,,,,,,3,,,44,49
215040,control_change,0,0,1,,,,,,,,,0,64,0,,
215199,note_on,319,0,3,,,,,,,,,2,,,56,0
215199,control_change,0,0,3,,,,,,,,,2,64,0,,
215199,note_on,0,0,3,,,,,,,,,2,,,58,49
215199,note_on,0,0,3,,,,,,,,,2,,,61,49
215520,note_on,0,0,3,,,,,,,,,2,,,58,0
215520,note_on,0,0,4,,,,,,,,,3,,,32,49
215520,note_on,0,0,2,,,,,,,,,1,,,75,62
215520,note_on,480,0,2,,,,,,,,,1,,,73,0
215520,note_on,0,0,1,,,,,,,,,0,,,87,62
215520,note_on,480,0,1,,,,,,,,,0,,,85,0
215520,note_on,321,0,3,,,,,,,,,2,,,61,0
215520,note_on,0,0,4,,,,,,,,,3,,,44,49
215520,note_on,480,0,4,,,,,,,,,3,,,44,0
215840,control_change,320,0,3,,,,,,,,,2,64,127,,
215840,note_on,0,0,3,,,,,,,,,2,,,51,49
216000,note_on,0,0,4,,,,,,,,,3,,,44,49
216000,note_on,0,0,4,,,,,,,,,3,,,32,49
216000,note_on,0,0,4,,,,,,,,,3,,,32,0
216000,note_on,480,0,4,,,,,,,,,3,,,44,0
216159,note_on,0,0,3,,,,,,,,,2,,,60,49
216159,note_on,319,0,3,,,,,,,,,2,,,51,0
216240,note_on,0,0,2,,,,,,,,,1,,,80,62
216240,note_on,720,0,2,,,,,,,,,1,,,75,0
216240,note_on,0,0,1,,,,,,,,,0,,,92,62
216240,note_on,720,0,1,,,,,,,,,0,,,87,0
216480,note_on,240,0,1,,,,,,,,,0,,,92,0
216480,note_on,0,0,2,,,,,,,,,1,,,80,62
216480,note_on,240,0,2,,,,,,,,,1,,,80,0
216480,note_on,0,0,1,,,,,,,,,0,,,92,62
216480,note_on,0,0,3,,,,,,,,,2,,,63,49
216480,note_on,321,0,3,,,,,,,,,2,,,60,0
216800,note_on,0,0,3,,,,,,,,,2,,,60,49
216800,note_on,320,0,3,,,,,,,,,2,,,63,0
216960,note_on,0,0,4,,,,,,,,,3,,,44,49
216960,note_on,960,0,4,,,,,,,,,3,,,44,0
216960,note_on,0,0,4,,,,,,,,,3,,,32,0
216960,note_on,0,0,4,,,,,,,,,3,,,32,49
217119,control_change,0,0,3,,,,,,,,,2,64,0,,
217119,note_on,319,0,3,,,,,,,,,2,,,60,0
217119,note_on,0,0,3,,,,,,,,,2,,,51,49
217200,note_on,720,0,1,,,,,,,,,0,,,92,0
217200,note_on,0,0,1,,,,,,,,,0,,,84,62
217200,note_on,720,0,2,,,,,,,,,1,,,80,0
217200,note_on,0,0,2,,,,,,,,,1,,,72,62
217440,note_on,321,0,3,,,,,,,,,2,,,51,0
217440,note_on,240,0,2,,,,,,,,,1,,,72,0
217440,note_on,0,0,2,,,,,,,,,1,,,72,62
217440,note_on,0,0,1,,,,,,,,,0,,,84,62
217440,note_on,480,0,4,,,,,,,,,3,,,44,0
217440,note_on,240,0,1,,,,,,,,,0,,,84,0
217440,note_on,0,0,4,,,,,,,,,3,,,36,49
217440,note_on,0,0,4,,,,,,,,,3,,,48,49
217440,note_on,0,0,4,,,,,,,,,3,,,32,0
217760,note_on,0,0,3,,,,,,,,,2,,,56,49
217760,control_change,320,0,3,,,,,,,,,2,64,127,,
217920,note_on,480,0,4,,,,,,,,,3,,,48,0
217920,note_on,0,0,4,,,,,,,,,3,,,36,0
217920,note_on,0,0,4,,,,,,,,,3,,,36,49
217920,note_on,0,0,4,,,,,,,,,3,,,48,49
218079,note_on,319,0,3,,,,,,,,,2,,,56,0
218079,note_on,0,0,3,,,,,,,,,2,,,60,49
218160,note_on,0,0,2,,,,,,,,,1,,,75,62
218160,note_on,0,0,1,,,,,,,,,0,,,87,62
218160,note_on,720,0,2,,,,,,,,,1,,,72,0
218160,note_on,720,0,1,,,,,,,,,0,,,84,0
218400,note_on,0,0,3,,,,,,,,,2,,,63,49
218400,note_on,321,0,3,,,,,,,,,2,,,60,0
218400,note_on,240,0,2,,,,,,,,,1,,,75,0
218400,note_on,0,0,1,,,,,,,,,0,,,87,62
218400,note_on,0,0,2,,,,,,,,,1,,,75,62
218400,note_on,240,0,1,,,,,,,,,0,,,87,0
218720,note_on,0,0,3,,,,,,,,,2,,,60,49
218720,note_on,320,0,3,,,,,,,,,2,,,63,0
218880,note_on,0,0,4,,,,,,,,,3,,,48,49
218880,note_on,0,0,4,,,,,,,,,3,,,36,49
218880,note_on,0,0,4,,,,,,,,,3,,,36,0
218880,note_on,960,0,4,,,,,,,,,3,,,48,0
219039,control_change,0,0,3,,,,,,,,,2,64,0,,
219039,note_on,0,0,3,,,,,,,,,2,,,56,49
219039,note_on,319,0,3,,,,,,,,,2,,,60,0
219120,note_on,720,0,1,,,,,,,,,0,,,87,0
219120,note_on,0,0,1,,,,,,,,,0,,,80,62
219120,note_on,720,0,2,,,,,,,,,1,,,75,0
219120,note_on,0,0,2,,,,,,,,,1,,,68,62
219360,note_on,0,0,4,,,,,,,,,3,,,36,0
219360,control_change,0,0,1,,,,,,,,,0,64,127,,
219360,note_on,0,0,2,,,,,,,,,1,,,68,62
219360,control_change,0,0,2,,,,,,,,,1,64,127,,
219360,note_on,480,0,4,,,,,,,,,3,,,48,0
219360,note_on,240,0,1,,,,,,,,,0,,,80,0
219360,note_on,0,0,4,,,,,,,,,3,,,39,49
219360,note_on,0,0,1,,,,,,,,,0,,,80,62
219360,note_on,240,0,2,,,,,,,,,1,,,68,0
219360,note_on,321,0,3,,,,,,,,,2,,,56,0
219360,note_on,0,0,4,,,,,,,,,3,,,51,49
219552,note_on,192,0,2,,,,,,,,,1,,,68,0
219552,note_on,0,0,2,,,,,,,,,1,,,70,62
219552,note_on,0,0,1,,,,,,,,,0,,,82,62
219552,note_on,192,0,1,,,,,,,,,0,,,80,0
219680,control_change,320,0,3,,,,,,,,,2,64,127,,
219680,note_on,0,0,3,,,,,,,,,2,,,60,49
219743,note_on,191,0,2,,,,,,,,,1,,,70,0
219743,note_on,0,0,2,,,,,,,,,1,,,68,62
219743,note_on,191,0,1,,,,,,,,,0,,,82,0
219743,note_on,0,0,1,,,,,,,,,0,,,80,62
219840,note_on,0,0,4,,,,,,,,,3,,,51,49
219840,note_on,0,0,4,,,,,,,,,3,,,39,0
219840,note_on,0,0,4,,,,,,,,,3,,,39,49
219840,note_on,480,0,4,,,,,,,,,3,,,51,0
219936,note_on,193,0,1,,,,,,,,,0,,,80,0
219936,note_on,0,0,1,,,,,,,,,0,,,79,62
219936,note_on,193,0,2,,,,,,,,,1,,,68,0
219936,note_on,0,0,2,,,,,,,,,1,,,67,62
219999,note_on,0,0,3,,,,,,,,,2,,,63,49
219999,note_on,319,0,3,,,,,,,,,2,,,60,0
220127,note_on,191,0,1,,,,,,,,,0,,,79,0
220127,note_on,0,0,1,,,,,,,,,0,,,80,62
220127,note_on,0,0,2,,,,,,,,,1,,,68,62
220127,note_on,191,0,2,,,,,,,,,1,,,67,0
220320,note_on,0,0,2,,,,,,,,,1,,,72,62
220320,note_on,321,0,3,,,,,,,,,2,,,63,0
220320,note_on,0,0,3,,,,,,,,,2,,,61,49
220320,note_on,193,0,1,,,,,,,,,0,,,80,0
220320,note_on,0,0,1,,,,,,,,,0,,,84,62
220320,note_on,193,0,2,,,,,,,,,1,,,68,0
220640,note_on,320,0,3,,,,,,,,,2,,,61,0
220640,note_on,0,0,3,,,,,,,,,2,,,63,49
220800,note_on,0,0,4,,,,,,,,,3,,,39,0
220800,note_on,960,0,4,,,,,,,,,3,,,51,0
220800,note_on,0,0,4,,,,,,,,,3,,,39,49
220800,note_on,0,0,4,,,,,,,,,3,,,51,49
220959,note_on,319,0,3,,,,,,,,,2,,,63,0
220959,control_change,0,0,3,,,,,,,,,2,64,0,,
220959,note_on,0,0,3,,,,,,,,,2,,,61,49
221040,control_change,0,0,1,,,,,,,,,0,64,0,,
221040,control_change,0,0,2,,,,,,,,,1,64,0,,
221040,note_on,720,0,2,,,,,,,,,1,,,72,0
221040,note_on,720,0,1,,,,,,,,,0,,,84,0
221040,note_on,0,0,1,,,,,,,,,0,,,82,62
221040,note_on,0,0,2,,,,,,,,,1,,,70,62
221280,note_on,0,0,2,,,,,,,,,1,,,68,62
221280,note_on,240,0,1,,,,,,,,,0,,,82,0
221280,control_change,0,0,1,,,,,,,,,0,64,127,,
221280,note_on,0,0,1,,,,,,,,,0,,,80,62
221280,control_change,0,0,2,,,,,,,,,1,64,127,,
221280,note_on,0,0,3,,,,,,,,,2,,,60,49
221280,control_change,0,0,3,,,,,,,,,2,64,127,,
221280,note_on,321,0,3,,,,,,,,,2,,,61,0
221280,note_on,240,0,2,,,,,,,,,1,,,70,0
221280,note_on,480,0,4,,,,,,,,,3,,,51,0
221280,note_on,0,0,4,,,,,,,,,3,,,39,0
221280,note_on,0,0,4,,,,,,,,,3,,,44,49
221600,note_on,320,0,3,,,,,,,,,2,,,60,0
221600,note_on,0,0,3,,,,,,,,,2,,,63,49
221760,note_on,0,0,4,,,,,,,,,3,,,44,49
221760,note_on,480,0,4,,,,,,,,,3,,,44,0
221919,note_on,0,0,3,,,,,,,,,2,,,59,49
221919,note_on,319,0,3,,,,,,,,,2,,,63,0
222240,note_on,0,0,3,,,,,,,,,2,,,60,49
222240,note_on,321,0,3,,,,,,,,,2,,,59,0
222560,note_on,0,0,3,,,,,,,,,2,,,56,49
222560,note_on,320,0,3,,,,,,,,,2,,,60,0
222720,note_on,0,0,4,,,,,,,,,3,,,44,49
222720,note_on,960,0,4,,,,,,,,,3,,,44,0
222879,note_on,0,0,3,,,,,,,,,2,,,51,49
222879,control_change,0,0,3,,,,,,,,,2,64,0,,
222879,note_on,319,0,3,,,,,,,,,2,,,56,0
223200,note_on,0,0,3,,,,,,,,,2,,,48,49
223200,note_on,321,0,3,,,,,,,,,2,,,51,0
223200,note_on,0,0,4,,,,,,,,,3,,,44,49
223200,note_on,480,0,4,,,,,,,,,3,,,44,0
223680,note_on,480,0,4,,,,,,,,,3,,,44,0
223680,note_on,2400,0,2,,,,,,,,,1,,,68,0
223680,note_on,0,0,2,,,,,,,,,1,,,63,49
223680,note_on,2400,0,1,,,,,,,,,0,,,80,0
223680,note_on,0,0,1,,,,,,,,,0,,,68,62
223680,note_on,0,0,3,,,,,,,,,2,,,60,49
223680,note_on,0,0,4,,,,,,,,,3,,,44,49
223680,note_on,480,0,3,,,,,,,,,2,,,48,0
224160,note_on,480,0,2,,,,,,,,,1,,,63,0
224160,note_on,480,0,1,,,,,,,,,0,,,68,0
224160,note_on,0,0,1,,,,,,,,,0,,,72,62
224160,note_on,0,0,2,,,,,,,,,1,,,63,49
224640,note_on,0,0,4,,,,,,,,,3,,,48,49
224640,note_on,960,0,4,,,,,,,,,3,,,44,0
224640,note_on,0,0,3,,,,,,,,,2,,,60,62
224640,note_on,960,0,3,,,,,,,,,2,,,60,0
224880,note_on,0,0,2,,,,,,,,,1,,,63,49
224880,note_on,0,0,1,,,,,,,,,0,,,68,75
224880,control_change,0,0,1,,,,,,,,,0,64,0,,
224880,note_on,720,0,1,,,,,,,,,0,,,72,0
224880,note_on,720,0,2,,,,,,,,,1,,,63,0
225120,note_on,0,0,1,,,,,,,,,0,,,68,88
225120,control_change,0,0,1,,,,,,,,,0,64,127,,
225120,note_on,240,0,1,,,,,,,,,0,,,68,0
225120,note_on,240,0,2,,,,,,,,,1,,,63,0
225120,note_on,0,0,4,,,,,,,,,3,,,51,49
225120,note_on,0,0,2,,,,,,,,,1,,,63,49
225120,note_on,0,0,3,,,,,,,,,2,,,61,75
225120,note_on,480,0,4,,,,,,,,,3,,,48,0
225120,note_on,480,0,3,,,,,,,,,2,,,60,0
225600,note_on,0,0,4,,,,,,,,,3,,,51,49
225600,note_on,480,0,4,,,,,,,,,3,,,51,0
226080,note_on,0,0,1,,,,,,,,,0,,,67,75
226080,note_on,960,0,1,,,,,,,,,0,,,68,0
226560,note_on,0,0,2,,,,,,,,,1,,,65,49
226560,note_on,960,0,4,,,,,,,,,3,,,51,0
226560,note_on,0,0,1,,,,,,,,,0,,,68,62
226560,control_change,0,0,1,,,,,,,,,0,64,0,,
226560,note_on,480,0,1,,,,,,,,,0,,,67,0
226560,note_on,0,0,4,,,,,,,,,3,,,51,49
226560,note_on,1440,0,2,,,,,,,,,1,,,63,0
227040,note_on,480,0,4,,,,,,,,,3,,,51,0
227040,control_change,0,0,1,,,,,,,,,0,64,127,,
227040,note_on,0,0,1,,,,,,,,,0,,,70,62
227040,note_on,0,0,2,,,,,,,,,1,,,67,49
227040,note_on,480,0,1,,,,,,,,,0,,,68,0
227040,note_on,0,0,4,,,,,,,,,3,,,51,49
227040,note_on,480,0,2,,,,,,,,,1,,,65,0
227520,note_on,0,0,4,,,,,,,,,3,,,51,49
227520,note_on,0,0,2,,,,,,,,,1,,,63,49
227520,note_on,480,0,4,,,,,,,,,3,,,51,0
227520,note_on,480,0,2,,,,,,,,,1,,,67,0
227520,note_on,480,0,1,,,,,,,,,0,,,70,0
227520,note_on,0,0,3,,,,,,,,,2,,,60,62
227520,note_on,2400,0,3,,,,,,,,,2,,,61,0
227520,control_change,0,0,3,,,,,,,,,2,64,127,,
227520,note_on,0,0,1,,,,,,,,,0,,,72,62
228000,note_on,480,0,1,,,,,,,,,0,,,72,0
228000,note_on,0,0,3,,,,,,,,,2,,,58,62
228000,note_on,0,0,2,,,,,,,,,1,,,65,49
228000,note_on,480,0,3,,,,,,,,,2,,,60,0
228000,note_on,480,0,2,,,,,,,,,1,,,63,0
228000,note_on,0,0,1,,,,,,,,,0,,,73,62
228480,note_on,960,0,4,,,,,,,,,3,,,51,0
228480,note_on,0,0,4,,,,,,,,,3,,,51,49
228480,note_on,0,0,3,,,,,,,,,2,,,63,49
228480,control_change,0,0,1,,,,,,,,,0,64,0,,
228480,note_on,480,0,3,,,,,,,,,2,,,58,0
228480,note_on,480,0,1,,,,,,,,,0,,,73,0
228480,note_on,0,0,2,,,,,,,,,1,,,67,49
228480,note_on,480,0,2,,,,,,,,,1,,,65,0
228480,note_on,0,0,1,,,,,,,,,0,,,75,62
228480,control_change,0,0,3,,,,,,,,,2,64,0,,
228960,note_on,480,0,4,,,,,,,,,3,,,51,0
228960,note_on,0,0,4,,,,,,,,,3,,,44,49
228960,note_on,480,0,2,,,,,,,,,1,,,67,0
228960,note_on,0,0,1,,,,,,,,,0,,,73,62
228960,note_on,480,0,3,,,,,,,,,2,,,63,0
228960,note_on,0,0,3,,,,,,,,,2,,,63,49
228960,note_on,0,0,2,,,,,,,,,1,,,70,49
228960,note_on,480,0,1,,,,,,,,,0,,,75,0
229440,note_on,0,0,4,,,,,,,,,3,,,44,49
229440,note_on,480,0,4,,,,,,,,,3,,,44,0
229920,note_on,960,0,2,,,,,,,,,1,,,70,0
229920,note_on,0,0,1,,,,,,,,,0,,,72,62
229920,note_on,0,0,2,,,,,,,,,1,,,68,49
229920,note_on,960,0,1,,,,,,,,,0,,,73,0
230400,note_on,0,0,4,,,,,,,,,3,,,44,49
230400,note_on,960,0,4,,,,,,,,,3,,,44,0
230880,note_on,480,0,4,,,,,,,,,3,,,44,0
230880,note_on,0,0,4,,,,,,,,,3,,,44,49
231360,note_on,480,0,4,,,,,,,,,3,,,44,0
231360,note_on,0,0,4,,,,,,,,,3,,,44,49
231360,note_on,2400,0,3,,,,,,,,,2,,,63,0
231840,note_on,0,0,1,,,,,,,,,0,,,84,62
231840,note_on,0,0,2,,,,,,,,,1,,,68,62
231840,note_on,1920,0,1,,,,,,,,,0,,,72,0
231840,note_on,0,0,1,,,,,,,,,0,,,72,62
231840,note_on,1920,0,2,,,,,,,,,1,,,68,0
231840,note_on,0,0,2,,,,,,,,,1,,,56,62
231840,note_on,480,0,3,,,,,,,,,2,,,51,49
232320,note_on,960,0,4,,,,,,,,,3,,,44,0
232320,note_on,0,0,4,,,,,,,,,3,,,48,49
232560,note_on,0,0,1,,,,,,,,,0,,,72,75
232560,note_on,0,0,1,,,,,,,,,0,,,80,75
232560,note_on,0,0,2,,,,,,,,,1,,,68,75
232560,note_on,0,0,2,,,,,,,,,1,,,56,0
232560,note_on,720,0,2,,,,,,,,,1,,,68,0
232560,note_on,0,0,2,,,,,,,,,1,,,60,75
232560,note_on,0,0,1,,,,,,,,,0,,,72,0
232560,note_on,720,0,1,,,,,,,,,0,,,84,0
232800,note_on,0,0,2,,,,,,,,,1,,,60,0
232800,note_on,960,0,3,,,,,,,,,2,,,51,0
232800,note_on,0,0,3,,,,,,,,,2,,,61,75
232800,note_on,0,0,2,,,,,,,,,1,,,68,88
232800,note_on,240,0,2,,,,,,,,,1,,,68,0
232800,note_on,240,0,1,,,,,,,,,0,,,80,0
232800,note_on,0,0,4,,,,,,,,,3,,,51,49
232800,note_on,0,0,4,,,,,,,,,3,,,39,49
232800,note_on,0,0,2,,,,,,,,,1,,,63,88
232800,note_on,480,0,4,,,,,,,,,3,,,48,0
232800,control_change,0,0,2,,,,,,,,,1,64,127,,
232800,control_change,0,0,1,,,,,,,,,0,64,127,,
232800,note_on,0,0,1,,,,,,,,,0,,,72,0
232800,note_on,0,0,1,,,,,,,,,0,,,75,88
232800,note_on,0,0,1,,,,,,,,,0,,,80,88
233280,note_on,0,0,4,,,,,,,,,3,,,51,49
233280,note_on,0,0,4,,,,,,,,,3,,,39,49
233280,note_on,0,0,4,,,,,,,,,3,,,39,0
233280,note_on,480,0,4,,,,,,,,,3,,,51,0
233760,note_on,0,0,2,,,,,,,,,1,,,67,75
233760,note_on,0,0,1,,,,,,,,,0,,,79,75
233760,note_on,960,0,2,,,,,,,,,1,,,68,0
233760,note_on,960,0,1,,,,,,,,,0,,,80,0
234240,note_on,0,0,2,,,,,,,,,1,,,65,62
234240,control_change,0,0,2,,,,,,,,,1,64,0,,
234240,note_on,480,0,2,,,,,,,,,1,,,67,0
234240,note_on,960,0,4,,,,,,,,,3,,,51,0
234240,note_on,0,0,4,,,,,,,,,3,,,39,0
234240,note_on,0,0,4,,,,,,,,,3,,,39,49
234240,note_on,0,0,4,,,,,,,,,3,,,51,49
234240,note_on,0,0,2,,,,,,,,,1,,,68,62
234240,note_on,0,0,2,,,,,,,,,1,,,63,0
234240,note_on,0,0,1,,,,,,,,,0,,,75,0
234240,control_change,0,0,1,,,,,,,,,0,64,0,,
234240,note_on,0,0,1,,,,,,,,,0,,,80,62
234240,note_on,0,0,1,,,,,,,,,0,,,77,62
234240,note_on,480,0,1,,,,,,,,,0,,,79,0
234720,note_on,0,0,1,,,,,,,,,0,,,77,0
234720,note_on,0,0,1,,,,,,,,,0,,,79,62
234720,note_on,0,0,2,,,,,,,,,1,,,70,62
234720,note_on,0,0,2,,,,,,,,,1,,,67,62
234720,control_change,0,0,2,,,,,,,,,1,64,127,,
234720,note_on,0,0,2,,,,,,,,,1,,,65,0
234720,note_on,480,0,2,,,,,,,,,1,,,68,0
234720,note_on,0,0,1,,,,,,,,,0,,,82,62
234720,note_on,480,0,4,,,,,,,,,3,,,51,0
234720,control_change,0,0,1,,,,,,,,,0,64,127,,
234720,note_on,0,0,4,,,,,,,,,3,,,51,49
234720,note_on,0,0,4,,,,,,,,,3,,,39,49
234720,note_on,480,0,1,,,,,,,,,0,,,80,0
234720,note_on,0,0,4,,,,,,,,,3,,,39,0
235200,note_on,480,0,1,,,,,,,,,0,,,82,0
235200,note_on,0,0,1,,,,,,,,,0,,,79,0
235200,note_on,0,0,1,,,,,,,,,0,,,75,62
235200,note_on,0,0,1,,,,,,,,,0,,,84,62
235200,note_on,0,0,4,,,,,,,,,3,,,51,49
235200,note_on,0,0,4,,,,,,,,,3,,,39,0
235200,note_on,480,0,4,,,,,,,,,3,,,51,0
235200,note_on,0,0,4,,,,,,,,,3,,,39,49
235200,note_on,0,0,2,,,,,,,,,1,,,63,62
235200,note_on,0,0,2,,,,,,,,,1,,,67,0
235200,note_on,480,0,2,,,,,,,,,1,,,70,0
235200,note_on,2400,0,3,,,,,,,,,2,,,61,0
235200,note_on,0,0,3,,,,,,,,,2,,,60,49
235200,note_on,0,0,2,,,,,,,,,1,,,72,62
235680,note_on,480,0,2,,,,,,,,,1,,,72,0
235680,note_on,0,0,1,,,,,,,,,0,,,77,62
235680,note_on,0,0,1,,,,,,,,,0,,,75,0
235680,note_on,0,0,1,,,,,,,,,0,,,85,62
235680,note_on,0,0,2,,,,,,,,,1,,,73,62
235680,note_on,0,0,3,,,,,,,,,2,,,58,49
235680,note_on,480,0,3,,,,,,,,,2,,,60,0
235680,note_on,0,0,2,,,,,,,,,1,,,65,62
235680,note_on,480,0,1,,,,,,,,,0,,,84,0
235680,note_on,0,0,2,,,,,,,,,1,,,63,0
236160,note_on,0,0,4,,,,,,,,,3,,,51,49
236160,note_on,0,0,4,,,,,,,,,3,,,39,49
236160,note_on,0,0,4,,,,,,,,,3,,,39,0
236160,note_on,960,0,4,,,,,,,,,3,,,51,0
236160,note_on,480,0,2,,,,,,,,,1,,,73,0
236160,note_on,480,0,3,,,,,,,,,2,,,58,0
236160,note_on,0,0,2,,,,,,,,,1,,,65,0
236160,control_change,0,0,2,,,,,,,,,1,64,0,,
236160,note_on,0,0,2,,,,,,,,,1,,,67,62
236160,note_on,0,0,2,,,,,,,,,1,,,75,62
236160,note_on,0,0,3,,,,,,,,,2,,,63,49
236160,note_on,0,0,1,,,,,,,,,0,,,77,0
236160,note_on,0,0,1,,,,,,,,,0,,,79,62
236160,note_on,0,0,1,,,,,,,,,0,,,87,62
236160,control_change,0,0,1,,,,,,,,,0,64,0,,
236160,note_on,480,0,1,,,,,,,,,0,,,85,0
236640,note_on,480,0,1,,,,,,,,,0,,,87,0
236640,note_on,0,0,1,,,,,,,,,0,,,82,62
236640,note_on,0,0,1,,,,,,,,,0,,,85,62
236640,note_on,0,0,2,,,,,,,,,1,,,73,62
236640,note_on,480,0,2,,,,,,,,,1,,,75,0
236640,note_on,480,0,4,,,,,,,,,3,,,51,0
236640,note_on,0,0,4,,,,,,,,,3,,,39,0
236640,note_on,0,0,4,,,,,,,,,3,,,32,49
236640,note_on,0,0,4,,,,,,,,,3,,,44,49
236640,note_on,0,0,2,,,,,,,,,1,,,70,62
236640,note_on,480,0,3,,,,,,,,,2,,,63,0
236640,note_on,0,0,2,,,,,,,,,1,,,67,0
236640,note_on,0,0,1,,,,,,,,,0,,,79,0
236640,note_on,0,0,3,,,,,,,,,2,,,63,49
237120,note_on,480,0,4,,,,,,,,,3,,,44,0
237120,note_on,0,0,4,,,,,,,,,3,,,32,49
237120,note_on,0,0,4,,,,,,,,,3,,,32,0
237120,note_on,0,0,4,,,,,,,,,3,,,44,49
237600,note_on,0,0,1,,,,,,,,,0,,,80,62
237600,note_on,0,0,1,,,,,,,,,0,,,84,62
237600,note_on,960,0,2,,,,,,,,,1,,,73,0
237600,note_on,0,0,2,,,,,,,,,1,,,70,0
237600,note_on,0,0,2,,,,,,,,,1,,,68,62
237600,note_on,0,0,2,,,,,,,,,1,,,72,62
237600,note_on,0,0,1,,,,,,,,,0,,,82,0
237600,note_on,960,0,1,,,,,,,,,0,,,85,0
238080,note_on,0,0,4,,,,,,,,,3,,,32,49
238080,note_on,0,0,4,,,,,,,,,3,,,32,0
238080,note_on,960,0,4,,,,,,,,,3,,,44,0
238080,note_on,0,0,4,,,,,,,,,3,,,44,49
238560,note_on,0,0,4,,,,,,,,,3,,,44,49
238560,note_on,0,0,4,,,,,,,,,3,,,32,49
238560,note_on,0,0,4,,,,,,,,,3,,,32,0
238560,note_on,480,0,4,,,,,,,,,3,,,44,0
239040,note_on,0,0,4,,,,,,,,,3,,,32,49
239040,note_on,0,0,4,,,,,,,,,3,,,32,0
239040,note_on,480,0,4,,,,,,,,,3,,,44,0
239040,note_on,0,0,4,,,,,,,,,3,,,44,49
240000,note_on,0,0,4,,,,,,,,,3,,,32,0
240000,note_on,960,0,4,,,,,,,,,3,,,44,0
240000,note_on,0,0,4,,,,,,,,,3,,,32,49
240000,note_on,0,0,4,,,,,,,,,3,,,44,49
240480,note_on,0,0,4,,,,,,,,,3,,,32,0
240480,note_on,0,0,3,,,,,,,,,2,,,44,49
240480,note_on,3840,0,3,,,,,,,,,2,,,63,0
240480,note_on,480,0,4,,,,,,,,,3,,,44,0
240480,note_on,0,0,4,,,,,,,,,3,,,32,49
240960,note_on,0,0,3,,,,,,,,,2,,,44,49
240960,note_on,480,0,3,,,,,,,,,2,,,44,0
240960,note_on,0,0,4,,,,,,,,,3,,,32,49
240960,note_on,480,0,4,,,,,,,,,3,,,32,0
241440,control_change,0,0,1,,,,,,,,,0,64,127,,
241440,set_tempo,45120,1,0,,,,,,312500,,,,,,,
241440,note_on,0,0,2,,,,,,,,,1,,,72,62
241440,note_on,3840,0,2,,,,,,,,,1,,,72,0
241440,note_on,0,0,2,,,,,,,,,1,,,68,0
241440,control_change,0,0,2,,,,,,,,,1,64,127,,
241440,note_on,0,0,2,,,,,,,,,1,,,68,62
241440,note_on,0,0,1,,,,,,,,,0,,,84,62
241440,note_on,0,0,1,,,,,,,,,0,,,80,62
241440,note_on,0,0,1,,,,,,,,,0,,,80,0
241440,note_on,3840,0,1,,,,,,,,,0,,,84,0
241920,note_on,960,0,3,,,,,,,,,2,,,44,0
241920,note_on,0,0,3,,,,,,,,,2,,,44,49
241920,note_on,960,0,4,,,,,,,,,3,,,32,0
241920,note_on,0,0,4,,,,,,,,,3,,,32,49
242400,note_on,480,0,4,,,,,,,,,3,,,32,0
242400,note_on,0,0,4,,,,,,,,,3,,,32,49
242400,note_on,0,0,2,,,,,,,,,1,,,72,62
242400,note_on,0,0,2,,,,,,,,,1,,,67,62
242400,note_on,0,0,2,,,,,,,,,1,,,68,0
242400,note_on,960,0,2,,,,,,,,,1,,,72,0
242400,note_on,0,0,1,,,,,,,,,0,,,84,62
242400,note_on,0,0,1,,,,,,,,,0,,,79,62
242400,note_on,0,0,1,,,,,,,,,0,,,80,0
242400,note_on,960,0,1,,,,,,,,,0,,,84,0
242400,note_on,480,0,3,,,,,,,,,2,,,44,0
242400,note_on,0,0,3,,,,,,,,,2,,,44,49
242880,note_on,480,0,4,,,,,,,,,3,,,32,0
242880,note_on,0,0,3,,,,,,,,,2,,,44,49
242880,note_on,480,0,3,,,,,,,,,2,,,44,0
242880,note_on,0,0,4,,,,,,,,,3,,,32,49
243360,note_on,0,0,1,,,,,,,,,0,,,84,62
243360,note_on,0,0,2,,,,,,,,,1,,,72,62
243360,note_on,0,0,2,,,,,,,,,1,,,67,0
243360,note_on,960,0,2,,,,,,,,,1,,,72,0
243360,control_change,0,0,1,,,,,,,,,0,64,0,,
243360,control_change,0,0,2,,,,,,,,,1,64,0,,
243360,note_on,0,0,1,,,,,,,,,0,,,78,62
243360,note_on,0,0,1,,,,,,,,,0,,,79,0
243360,note_on,960,0,1,,,,,,,,,0,,,84,0
243360,note_on,0,0,2,,,,,,,,,1,,,66,62
243840,note_on,960,0,4,,,,,,,,,3,,,32,0
243840,note_on,960,0,3,,,,,,,,,2,,,44,0
243840,note_on,0,0,3,,,,,,,,,2,,,44,49
243840,note_on,0,0,4,,,,,,,,,3,,,32,49
244320,note_on,480,0,4,,,,,,,,,3,,,32,0
244320,note_on,0,0,4,,,,,,,,,3,,,33,49
244320,note_on,0,0,2,,,,,,,,,1,,,65,62
244320,note_on,0,0,2,,,,,,,,,1,,,66,0
244320,note_on,0,0,2,,,,,,,,,1,,,72,62
244320,note_on,960,0,1,,,,,,,,,0,,,84,0
244320,note_on,0,0,1,,,,,,,,,0,,,78,0
244320,note_on,0,0,1,,,,,,,,,0,,,77,62
244320,note_on,0,0,1,,,,,,,,,0,,,84,62
244320,note_on,480,0,3,,,,,,,,,2,,,44,0
244320,note_on,0,0,3,,,,,,,,,2,,,45,49
244320,set_tempo,2880,1,0,,,,,,270270,,,,,,,
244320,note_on,960,0,2,,,,,,,,,1,,,72,0
244800,note_on,480,0,3,,,,,,,,,2,,,45,0
244800,note_on,0,0,4,,,,,,,,,3,,,33,49
244800,note_on,0,0,3,,,,,,,,,2,,,45,49
244800,note_on,480,0,4,,,,,,,,,3,,,33,0
245760,note_on,0,0,4,,,,,,,,,3,,,33,49
245760,note_on,960,0,4,,,,,,,,,3,,,33,0
245760,note_on,960,0,3,,,,,,,,,2,,,45,0
245760,note_on,0,0,3,,,,,,,,,2,,,45,49
246240,note_on,480,0,3,,,,,,,,,2,,,45,0
246240,note_on,0,0,1,,,,,,,,,0,,,85,62
246240,note_on,0,0,1,,,,,,,,,0,,,73,62
246240,note_on,0,0,1,,,,,,,,,0,,,77,0
246240,note_on,1920,0,1,,,,,,,,,0,,,84,0
246240,control_change,0,0,2,,,,,,,,,1,64,127,,
246240,note_on,0,0,2,,,,,,,,,1,,,65,62
246240,note_on,0,0,2,,,,,,,,,1,,,77,62
246240,note_on,0,0,3,,,,,,,,,2,,,46,49
246240,note_on,0,0,4,,,,,,,,,3,,,34,49
246240,note_on,480,0,4,,,,,,,,,3,,,33,0
246240,note_on,1920,0,2,,,,,,,,,1,,,72,0
246240,note_on,0,0,2,,,,,,,,,1,,,65,0
246720,note_on,480,0,4,,,,,,,,,3,,,34,0
246720,note_on,0,0,4,,,,,,,,,3,,,34,49
246720,note_on,0,0,3,,,,,,,,,2,,,46,49
246720,note_on,480,0,3,,,,,,,,,2,,,46,0
247200,note_on,960,0,2,,,,,,,,,1,,,77,0
247200,note_on,0,0,2,,,,,,,,,1,,,65,0
247200,note_on,0,0,2,,,,,,,,,1,,,67,62
247200,note_on,0,0,2,,,,,,,,,1,,,79,62
247680,note_on,0,0,3,,,,,,,,,2,,,46,49
247680,note_on,480,0,2,,,,,,,,,1,,,79,0
247680,control_change,0,0,2,,,,,,,,,1,64,0,,
247680,note_on,0,0,2,,,,,,,,,1,,,67,0
247680,note_on,0,0,2,,,,,,,,,1,,,68,62
247680,note_on,960,0,3,,,,,,,,,2,,,46,0
247680,note_on,960,0,4,,,,,,,,,3,,,34,0
247680,note_on,0,0,4,,,,,,,,,3,,,34,49
247680,note_on,0,0,2,,,,,,,,,1,,,80,62
248160,note_on,480,0,2,,,,,,,,,1,,,80,0
248160,note_on,480,0,4,,,,,,,,,3,,,34,0
248160,note_on,0,0,4,,,,,,,,,3,,,36,49
248160,note_on,0,0,1,,,,,,,,,0,,,84,62
248160,note_on,0,0,1,,,,,,,,,0,,,80,62
248160,note_on,480,0,3,,,,,,,,,2,,,46,0
248160,note_on,1920,0,1,,,,,,,,,0,,,85,0
248160,note_on,0,0,2,,,,,,,,,1,,,72,62
248160,note_on,0,0,2,,,,,,,,,1,,,68,62
248160,note_on,0,0,3,,,,,,,,,2,,,48,49
248160,note_on,0,0,2,,,,,,,,,1,,,68,0
248160,note_on,0,0,1,,,,,,,,,0,,,73,0
248640,control_change,0,0,4,,,,,,,,,3,64,127,,
248640,note_on,0,0,4,,,,,,,,,3,,,36,49
248640,note_on,0,0,3,,,,,,,,,2,,,48,49
248640,control_change,0,0,3,,,,,,,,,2,64,127,,
248640,note_on,480,0,3,,,,,,,,,2,,,48,0
248640,note_on,480,0,4,,,,,,,,,3,,,36,0
249120,note_on,0,0,3,,,,,,,,,2,,,49,49
249120,note_on,480,0,3,,,,,,,,,2,,,48,0
249120,note_on,0,0,4,,,,,,,,,3,,,37,49
249120,note_on,480,0,4,,,,,,,,,3,,,36,0
249600,note_on,480,0,3,,,,,,,,,2,,,49,0
249600,note_on,0,0,4,,,,,,,,,3,,,39,49
249600,note_on,0,0,3,,,,,,,,,2,,,51,49
249600,control_change,0,0,3,,,,,,,,,2,64,0,,
249600,control_change,0,0,4,,,,,,,,,3,64,0,,
249600,note_on,480,0,4,,,,,,,,,3,,,37,0
250080,note_on,480,0,3,,,,,,,,,2,,,51,0
250080,note_on,0,0,1,,,,,,,,,0,,,82,62
250080,note_on,0,0,1,,,,,,,,,0,,,70,62
250080,note_on,0,0,3,,,,,,,,,2,,,51,49
250080,note_on,0,0,1,,,,,,,,,0,,,80,0
250080,note_on,1920,0,1,,,,,,,,,0,,,84,0
250080,note_on,0,0,4,,,,,,,,,3,,,39,49
250080,note_on,0,0,2,,,,,,,,,1,,,68,0
250080,note_on,480,0,4,,,,,,,,,3,,,39,0
250080,note_on,1920,0,2,,,,,,,,,1,,,72,0
250560,note_on,480,0,3,,,,,,,,,2,,,51,0
250560,note_on,0,0,3,,,,,,,,,2,,,51,49
250560,note_on,480,0,4,,,,,,,,,3,,,39,0
250560,note_on,0,0,4,,,,,,,,,3,,,39,49
251040,note_on,960,0,2,,,,,,,,,1,,,67,62
251040,note_on,0,0,2,,,,,,,,,1,,,79,62
251520,note_on,0,0,4,,,,,,,,,3,,,39,49
251520,note_on,960,0,4,,,,,,,,,3,,,39,0
251520,note_on,960,0,3,,,,,,,,,2,,,51,0
251520,note_on,0,0,3,,,,,,,,,2,,,51,49
252000,note_on,0,0,2,,,,,,,,,1,,,68,62
252000,note_on,0,0,2,,,,,,,,,1,,,67,0
252000,note_on,960,0,2,,,,,,,,,1,,,79,0
252000,note_on,0,0,4,,,,,,,,,3,,,32,49
252000,note_on,480,0,4,,,,,,,,,3,,,39,0
252000,note_on,1920,0,1,,,,,,,,,0,,,82,0
252000,note_on,0,0,1,,,,,,,,,0,,,70,0
252000,note_on,0,0,1,,,,,,,,,0,,,80,62
252000,note_on,480,0,3,,,,,,,,,2,,,51,0
252000,note_on,0,0,3,,,,,,,,,2,,,44,49
252480,note_on,480,0,4,,,,,,,,,3,,,32,0
252480,note_on,0,0,4,,,,,,,,,3,,,44,49
252480,note_on,0,0,3,,,,,,,,,2,,,56,49
252480,note_on,480,0,3,,,,,,,,,2,,,44,0
253440,note_on,0,0,3,,,,,,,,,2,,,56,49
253440,note_on,960,0,4,,,,,,,,,3,,,44,0
253440,note_on,0,0,4,,,,,,,,,3,,,44,49
253440,note_on,960,0,3,,,,,,,,,2,,,56,0
253920,note_on,0,0,3,,,,,,,,,2,,,56,49
253920,note_on,480,0,4,,,,,,,,,3,,,44,0
253920,note_on,480,0,3,,,,,,,,,2,,,56,0
253920,note_on,0,0,4,,,,,,,,,3,,,44,49
254400,note_on,0,0,4,,,,,,,,,3,,,44,49
254400,note_on,480,0,4,,,,,,,,,3,,,44,0
254400,note_on,480,0,3,,,,,,,,,2,,,56,0
254400,note_on,0,0,3,,,,,,,,,2,,,56,49
254400,note_on,2400,0,2,,,,,,,,,1,,,68,0
254400,note_on,2400,0,1,,,,,,,,,0,,,80,0
255360,note_on,0,0,3,,,,,,,,,2,,,56,49
255360,note_on,960,0,4,,,,,,,,,3,,,44,0
255360,note_on,960,0,3,,,,,,,,,2,,,56,0
255360,note_on,0,0,4,,,,,,,,,3,,,44,49
255840,note_on,0,0,3,,,,,,,,,2,,,56,49
255840,note_on,480,0,3,,,,,,,,,2,,,56,0
255840,note_on,0,0,4,,,,,,,,,3,,,44,49
255840,note_on,480,0,4,,,,,,,,,3,,,44,0
255887,note_on,47,0,3,,,,,,,,,2,,,56,0
255887,note_on,47,0,4,,,,,,,,,3,,,44,0
256320,note_on,433,0,4,,,,,,,,,3,,,42,49
256320,note_on,433,0,3,,,,,,,,,2,,,54,49
257280,note_on,0,0,4,,,,,,,,,3,,,42,49
257280,note_on,0,0,3,,,,,,,,,2,,,54,49
257280,note_on,960,0,4,,,,,,,,,3,,,42,0
257280,note_on,960,0,3,,,,,,,,,2,,,54,0
257760,note_on,480,0,4,,,,,,,,,3,,,42,0
257760,note_on,0,0,4,,,,,,,,,3,,,42,49
257760,note_on,480,0,3,,,,,,,,,2,,,54,0
257760,note_on,0,0,3,,,,,,,,,2,,,54,49
257807,note_on,47,0,4,,,,,,,,,3,,,42,0
257807,note_on,47,0,3,,,,,,,,,2,,,54,0
258240,note_on,433,0,3,,,,,,,,,2,,,51,49
258240,note_on,433,0,4,,,,,,,,,3,,,39,49
259200,note_on,0,0,3,,,,,,,,,2,,,51,49
259200,note_on,960,0,3,,,,,,,,,2,,,51,0
259200,note_on,0,0,4,,,,,,,,,3,,,39,49
259200,note_on,960,0,4,,,,,,,,,3,,,39,0
259680,note_on,0,0,3,,,,,,,,,2,,,51,49
259680,note_on,480,0,3,,,,,,,,,2,,,51,0
259680,note_on,0,0,4,,,,,,,,,3,,,39,49
259680,note_on,480,0,4,,,,,,,,,3,,,39,0
259680,set_tempo,15360,1,0,,,,,,312500,,,,,,,
259727,note_on,47,0,3,,,,,,,,,2,,,51,0
259727,note_on,47,0,4,,,,,,,,,3,,,39,0
260160,note_on,433,0,3,,,,,,,,,2,,,48,49
260160,note_on,433,0,4,,,,,,,,,3,,,36,49
261120,note_on,960,0,3,,,,,,,,,2,,,48,0
261120,note_on,0,0,4,,,,,,,,,3,,,36,49
261120,note_on,0,0,3,,,,,,,,,2,,,48,49
261120,note_on,960,0,4,,,,,,,,,3,,,36,0
261600,note_on,0,0,3,,,,,,,,,2,,,48,49
261600,note_on,480,0,3,,,,,,,,,2,,,48,0
261600,note_on,480,0,4,,,,,,,,,3,,,36,0
261600,note_on,0,0,4,,,,,,,,,3,,,36,49
261647,note_on,47,0,4,,,,,,,,,3,,,36,0
261647,note_on,47,0,3,,,,,,,,,2,,,48,0
262080,note_on,433,0,4,,,,,,,,,3,,,36,49
262080,note_on,433,0,3,,,,,,,,,2,,,48,49
263040,note_on,0,0,3,,,,,,,,,2,,,48,49
263040,note_on,960,0,4,,,,,,,,,3,,,36,0
263040,note_on,0,0,4,,,,,,,,,3,,,36,49
263040,note_on,960,0,3,,,,,,,,,2,,,48,0
263440,note_on,9040,0,1,,,,,,,,,0,,,88,62
263480,note_on,40,0,1,,,,,,,,,0,,,89,62
263520,note_on,40,0,1,,,,,,,,,0,,,91,62
263520,note_on,0,0,2,,,,,,,,,1,,,67,62
263520,note_on,9120,0,2,,,,,,,,,1,,,64,62
263520,set_tempo,3840,1,0,,,,,,270270,,,,,,,
263520,note_on,0,0,3,,,,,,,,,2,,,60,49
263520,note_on,480,0,3,,,,,,,,,2,,,48,0
263520,note_on,0,0,4,,,,,,,,,3,,,48,49
263520,note_on,0,0,4,,,,,,,,,3,,,36,49
263520,note_on,480,0,4,,,,,,,,,3,,,36,0
263551,note_on,0,0,1,,,,,,,,,0,,,88,0
263551,note_on,0,0,1,,,,,,,,,0,,,89,0
263551,note_on,31,0,1,,,,,,,,,0,,,91,0
263840,note_on,289,0,1,,,,,,,,,0,,,88,62
263872,note_on,32,0,1,,,,,,,,,0,,,88,0
264000,note_on,480,0,4,,,,,,,,,3,,,48,0
264000,note_on,0,0,4,,,,,,,,,3,,,36,0
264000,note_on,0,0,4,,,,,,,,,3,,,48,49
264000,note_on,0,0,4,,,,,,,,,3,,,36,49
264159,note_on,287,0,1,,,,,,,,,0,,,86,62
264191,note_on,32,0,1,,,,,,,,,0,,,86,0
264480,note_on,289,0,1,,,,,,,,,0,,,84,62
264511,note_on,31,0,1,,,,,,,,,0,,,84,0
264800,note_on,289,0,1,,,,,,,,,0,,,83,62
264832,note_on,32,0,1,,,,,,,,,0,,,83,0
264960,note_on,0,0,4,,,,,,,,,3,,,36,0
264960,note_on,960,0,4,,,,,,,,,3,,,48,0
264960,note_on,0,0,4,,,,,,,,,3,,,48,49
264960,note_on,0,0,4,,,,,,,,,3,,,36,49
265119,note_on,287,0,1,,,,,,,,,0,,,81,62
265151,note_on,32,0,1,,,,,,,,,0,,,81,0
265440,note_on,1920,0,3,,,,,,,,,2,,,60,0
265440,note_on,0,0,3,,,,,,,,,2,,,60,49
265440,note_on,0,0,2,,,,,,,,,1,,,64,62
265440,note_on,1920,0,2,,,,,,,,,1,,,67,0
265440,note_on,0,0,2,,,,,,,,,1,,,64,0
265440,note_on,0,0,2,,,,,,,,,1,,,67,62
265440,note_on,480,0,4,,,,,,,,,3,,,48,0
265440,note_on,0,0,4,,,,,,,,,3,,,36,0
265440,note_on,0,0,4,,,,,,,,,3,,,36,49
265440,note_on,0,0,4,,,,,,,,,3,,,48,49
265440,note_on,289,0,1,,,,,,,,,0,,,79,62
265471,note_on,31,0,1,,,,,,,,,0,,,79,0
265760,note_on,289,0,1,,,,,,,,,0,,,81,62
265792,note_on,32,0,1,,,,,,,,,0,,,81,0
265920,note_on,480,0,4,,,,,,,,,3,,,48,0
265920,note_on,0,0,4,,,,,,,,,3,,,36,0
265920,note_on,0,0,4,,,,,,,,,3,,,36,49
265920,note_on,0,0,4,,,,,,,,,3,,,48,49
266079,note_on,287,0,1,,,,,,,,,0,,,83,62
266111,note_on,32,0,1,,,,,,,,,0,,,83,0
266400,note_on,289,0,1,,,,,,,,,0,,,84,62
266431,note_on,31,0,1,,,,,,,,,0,,,84,0
266720,note_on,289,0,1,,,,,,,,,0,,,86,62
266752,note_on,32,0,1,,,,,,,,,0,,,86,0
266880,note_on,1440,0,3,,,,,,,,,2,,,60,0
266880,note_on,0,0,2,,,,,,,,,1,,,64,62
266880,note_on,0,0,2,,,,,,,,,1,,,67,62
266880,note_on,0,0,4,,,,,,,,,3,,,48,49
266880,note_on,0,0,2,,,,,,,,,1,,,64,0
266880,note_on,0,0,4,,,,,,,,,3,,,36,49
266880,note_on,960,0,4,,,,,,,,,3,,,48,0
266880,note_on,0,0,3,,,,,,,,,2,,,60,49
266880,note_on,0,0,4,,,,,,,,,3,,,36,0
266880,note_on,1440,0,2,,,,,,,,,1,,,67,0
267039,note_on,287,0,1,,,,,,,,,0,,,88,62
267071,note_on,32,0,1,,,,,,,,,0,,,88,0
267360,note_on,480,0,4,,,,,,,,,3,,,48,0
267360,note_on,0,0,4,,,,,,,,,3,,,36,0
267360,note_on,0,0,4,,,,,,,,,3,,,38,49
267360,note_on,0,0,4,,,,,,,,,3,,,50,49
267360,note_on,0,0,2,,,,,,,,,1,,,67,62
267360,note_on,0,0,2,,,,,,,,,1,,,64,0
267360,note_on,480,0,2,,,,,,,,,1,,,67,0
267360,note_on,0,0,2,,,,,,,,,1,,,62,62
267360,note_on,480,0,3,,,,,,,,,2,,,60,0
267360,control_change,289,0,1,,,,,,,,,0,64,127,,
267360,note_on,0,0,1,,,,,,,,,0,,,88,62
267360,note_on,0,0,3,,,,,,,,,2,,,57,49
267680,note_on,0,0,1,,,,,,,,,0,,,86,62
267680,note_on,320,0,1,,,,,,,,,0,,,88,0
267840,note_on,0,0,4,,,,,,,,,3,,,38,0
267840,note_on,480,0,4,,,,,,,,,3,,,50,0
267840,note_on,0,0,4,,,,,,,,,3,,,38,49
267840,note_on,0,0,4,,,,,,,,,3,,,50,49
267999,note_on,0,0,1,,,,,,,,,0,,,85,62
267999,note_on,319,0,1,,,,,,,,,0,,,86,0
268320,note_on,0,0,2,,,,,,,,,1,,,65,62
268320,note_on,960,0,2,,,,,,,,,1,,,67,0
268320,note_on,0,0,1,,,,,,,,,0,,,86,62
268320,note_on,321,0,1,,,,,,,,,0,,,85,0
268640,note_on,320,0,1,,,,,,,,,0,,,86,0
268640,note_on,0,0,1,,,,,,,,,0,,,87,62
268800,note_on,0,0,4,,,,,,,,,3,,,50,49
268800,note_on,960,0,4,,,,,,,,,3,,,50,0
268800,note_on,0,0,4,,,,,,,,,3,,,38,0
268800,note_on,0,0,4,,,,,,,,,3,,,38,49
268959,note_on,319,0,1,,,,,,,,,0,,,87,0
268959,note_on,0,0,1,,,,,,,,,0,,,88,62
269280,note_on,0,0,4,,,,,,,,,3,,,50,49
269280,note_on,0,0,1,,,,,,,,,0,,,89,62
269280,note_on,321,0,1,,,,,,,,,0,,,88,0
269280,note_on,480,0,4,,,,,,,,,3,,,50,0
269280,note_on,0,0,4,,,,,,,,,3,,,38,0
269280,note_on,0,0,4,,,,,,,,,3,,,38,49
269600,note_on,0,0,1,,,,,,,,,0,,,91,62
269600,note_on,320,0,1,,,,,,,,,0,,,89,0
269760,note_on,480,0,4,,,,,,,,,3,,,50,0
269760,note_on,0,0,4,,,,,,,,,3,,,38,0
269760,note_on,0,0,4,,,,,,,,,3,,,38,49
269760,note_on,0,0,4,,,,,,,,,3,,,50,49
269919,control_change,0,0,1,,,,,,,,,0,64,0,,
269919,note_on,0,0,1,,,,,,,,,0,,,92,62
269919,note_on,319,0,1,,,,,,,,,0,,,91,0
270240,note_on,0,0,2,,,,,,,,,1,,,62,62
270240,note_on,0,0,2,,,,,,,,,1,,,65,62
270240,note_on,0,0,2,,,,,,,,,1,,,62,0
270240,note_on,0,0,3,,,,,,,,,2,,,57,49
270240,note_on,2880,0,3,,,,,,,,,2,,,57,0
270240,note_on,321,0,1,,,,,,,,,0,,,92,0
270240,note_on,1920,0,2,,,,,,,,,1,,,65,0
270240,note_on,0,0,1,,,,,,,,,0,,,93,62
270271,note_on,31,0,1,,,,,,,,,0,,,93,0
270560,note_on,289,0,1,,,,,,,,,0,,,93,62
270592,note_on,32,0,1,,,,,,,,,0,,,93,0
270720,note_on,0,0,4,,,,,,,,,3,,,53,49
270720,note_on,0,0,4,,,,,,,,,3,,,41,49
270720,note_on,0,0,4,,,,,,,,,3,,,38,0
270720,note_on,960,0,4,,,,,,,,,3,,,50,0
270879,note_on,287,0,1,,,,,,,,,0,,,93,62
270911,note_on,32,0,1,,,,,,,,,0,,,93,0
271200,note_on,0,0,3,,,,,,,,,2,,,57,49
271200,note_on,960,0,2,,,,,,,,,1,,,65,0
271200,note_on,960,0,3,,,,,,,,,2,,,57,0
271200,note_on,480,0,4,,,,,,,,,3,,,53,0
271200,note_on,0,0,4,,,,,,,,,3,,,45,49
271200,note_on,0,0,4,,,,,,,,,3,,,41,0
271200,note_on,0,0,2,,,,,,,,,1,,,62,62
271200,note_on,0,0,2,,,,,,,,,1,,,64,62
271200,note_on,289,0,1,,,,,,,,,0,,,94,62
271200,note_on,0,0,2,,,,,,,,,1,,,62,0
271200,note_on,0,0,4,,,,,,,,,3,,,33,49
271520,note_on,320,0,1,,,,,,,,,0,,,94,0
271520,note_on,0,0,1,,,,,,,,,0,,,93,62
271680,note_on,480,0,4,,,,,,,,,3,,,45,0
271680,note_on,0,0,4,,,,,,,,,3,,,45,49
271680,note_on,0,0,4,,,,,,,,,3,,,33,0
271680,note_on,0,0,4,,,,,,,,,3,,,33,49
271839,note_on,319,0,1,,,,,,,,,0,,,93,0
271839,note_on,0,0,1,,,,,,,,,0,,,92,62
271871,note_on,32,0,1,,,,,,,,,0,,,92,0
272160,note_on,289,0,1,,,,,,,,,0,,,92,62
272480,note_on,320,0,1,,,,,,,,,0,,,92,0
272480,note_on,0,0,1,,,,,,,,,0,,,93,62
272640,note_on,0,0,4,,,,,,,,,3,,,33,49
272640,note_on,0,0,4,,,,,,,,,3,,,45,49
272640,note_on,960,0,4,,,,,,,,,3,,,45,0
272640,note_on,0,0,4,,,,,,,,,3,,,33,0
272799,note_on,319,0,1,,,,,,,,,0,,,93,0
272799,note_on,0,0,1,,,,,,,,,0,,,88,62
272831,note_on,32,0,1,,,,,,,,,0,,,88,0
273120,note_on,0,0,2,,,,,,,,,1,,,61,62
273120,note_on,1920,0,2,,,,,,,,,1,,,64,0
273120,note_on,0,0,2,,,,,,,,,1,,,62,0
273120,note_on,289,0,1,,,,,,,,,0,,,88,62
273120,note_on,0,0,2,,,,,,,,,1,,,64,62
273120,note_on,0,0,3,,,,,,,,,2,,,57,49
273120,note_on,480,0,4,,,,,,,,,3,,,45,0
273120,note_on,0,0,4,,,,,,,,,3,,,33,49
273120,note_on,0,0,4,,,,,,,,,3,,,45,49
273120,note_on,1920,0,3,,,,,,,,,2,,,57,0
273120,note_on,0,0,4,,,,,,,,,3,,,33,0
273440,note_on,0,0,1,,,,,,,,,0,,,93,62
273440,note_on,320,0,1,,,,,,,,,0,,,88,0
273600,note_on,480,0,4,,,,,,,,,3,,,45,0
273600,note_on,0,0,4,,,,,,,,,3,,,33,49
273600,note_on,0,0,4,,,,,,,,,3,,,33,0
273600,note_on,0,0,4,,,,,,,,,3,,,45,49
273759,note_on,0,0,1,,,,,,,,,0,,,93,62
273759,note_on,319,0,1,,,,,,,,,0,,,93,0
273791,note_on,32,0,1,,,,,,,,,0,,,93,0
273840,note_on,720,0,2,,,,,,,,,1,,,64,0
273840,note_on,0,0,2,,,,,,,,,1,,,61,0
273840,note_on,0,0,2,,,,,,,,,1,,,69,62
274080,note_on,289,0,1,,,,,,,,,0,,,93,62
274080,note_on,0,0,2,,,,,,,,,1,,,61,62
274080,note_on,0,0,2,,,,,,,,,1,,,69,62
274080,note_on,240,0,2,,,,,,,,,1,,,69,0
274080,note_on,0,0,3,,,,,,,,,2,,,57,49
274080,note_on,960,0,3,,,,,,,,,2,,,57,0
274400,note_on,0,0,1,,,,,,,,,0,,,88,62
274400,note_on,320,0,1,,,,,,,,,0,,,93,0
274560,note_on,0,0,4,,,,,,,,,3,,,45,49
274560,note_on,0,0,4,,,,,,,,,3,,,33,49
274560,note_on,0,0,4,,,,,,,,,3,,,33,0
274560,note_on,960,0,4,,,,,,,,,3,,,45,0
274719,note_on,319,0,1,,,,,,,,,0,,,88,0
274719,note_on,0,0,1,,,,,,,,,0,,,88,62
274751,note_on,32,0,1,,,,,,,,,0,,,88,0
274800,note_on,0,0,2,,,,,,,,,1,,,64,62
274800,note_on,0,0,2,,,,,,,,,1,,,61,0
274800,note_on,720,0,2,,,,,,,,,1,,,69,0
275040,note_on,240,0,2,,,,,,,,,1,,,64,0
275040,note_on,289,0,1,,,,,,,,,0,,,90,62
275040,note_on,0,0,4,,,,,,,,,3,,,50,49
275040,note_on,0,0,4,,,,,,,,,3,,,38,49
275040,note_on,0,0,4,,,,,,,,,3,,,33,0
275040,note_on,480,0,4,,,,,,,,,3,,,45,0
275040,note_on,0,0,2,,,,,,,,,1,,,62,49
275040,note_on,0,0,2,,,,,,,,,1,,,66,49
275040,note_on,960,0,3,,,,,,,,,2,,,57,0
275040,note_on,0,0,3,,,,,,,,,2,,,57,49
275071,note_on,31,0,1,,,,,,,,,0,,,90,0
275270,note_on,199,0,1,,,,,,,,,0,,,93,62
275300,note_on,30,0,1,,,,,,,,,0,,,95,62
275330,note_on,30,0,1,,,,,,,,,0,,,97,62
275360,note_on,30,0,1,,,,,,,,,0,,,98,62
275520,note_on,0,0,4,,,,,,,,,3,,,50,49
275520,note_on,480,0,4,,,,,,,,,3,,,50,0
275520,note_on,0,0,4,,,,,,,,,3,,,38,0
275520,note_on,0,0,4,,,,,,,,,3,,,38,49
275679,note_on,0,0,1,,,,,,,,,0,,,97,62
275679,note_on,0,0,1,,,,,,,,,0,,,97,0
275679,note_on,0,0,1,,,,,,,,,0,,,95,0
275679,note_on,0,0,1,,,,,,,,,0,,,93,0
275679,note_on,319,0,1,,,,,,,,,0,,,98,0
275711,note_on,32,0,1,,,,,,,,,0,,,97,0
276000,note_on,289,0,1,,,,,,,,,0,,,95,62
276031,note_on,31,0,1,,,,,,,,,0,,,95,0
276320,note_on,289,0,1,,,,,,,,,0,,,93,62
276352,note_on,32,0,1,,,,,,,,,0,,,93,0
276480,note_on,0,0,4,,,,,,,,,3,,,50,49
276480,note_on,0,0,4,,,,,,,,,3,,,38,49
276480,note_on,960,0,4,,,,,,,,,3,,,50,0
276480,note_on,0,0,4,,,,,,,,,3,,,38,0
276639,note_on,287,0,1,,,,,,,,,0,,,91,62
276671,note_on,32,0,1,,,,,,,,,0,,,91,0
276960,note_on,0,0,4,,,,,,,,,3,,,38,0
276960,note_on,0,0,4,,,,,,,,,3,,,38,49
276960,note_on,0,0,4,,,,,,,,,3,,,50,49
276960,note_on,289,0,1,,,,,,,,,0,,,90,62
276960,note_on,480,0,4,,,,,,,,,3,,,50,0
276991,note_on,31,0,1,,,,,,,,,0,,,90,0
277280,note_on,289,0,1,,,,,,,,,0,,,88,62
277312,note_on,32,0,1,,,,,,,,,0,,,88,0
277440,note_on,0,0,4,,,,,,,,,3,,,50,49
277440,note_on,0,0,4,,,,,,,,,3,,,38,49
277440,note_on,0,0,4,,,,,,,,,3,,,38,0
277440,note_on,480,0,4,,,,,,,,,3,,,50,0
277599,note_on,287,0,1,,,,,,,,,0,,,86,62
277631,note_on,32,0,1,,,,,,,,,0,,,86,0
277920,note_on,289,0,1,,,,,,,,,0,,,85,62
277920,note_on,2880,0,2,,,,,,,,,1,,,66,0
277920,note_on,0,0,2,,,,,,,,,1,,,62,0
277920,note_on,2880,0,3,,,,,,,,,2,,,57,0
277951,note_on,31,0,1,,,,,,,,,0,,,85,0
278240,note_on,289,0,1,,,,,,,,,0,,,86,62
278272,note_on,32,0,1,,,,,,,,,0,,,86,0
278400,note_on,960,0,4,,,,,,,,,3,,,50,0
278400,note_on,0,0,4,,,,,,,,,3,,,38,49
278400,note_on,0,0,4,,,,,,,,,3,,,50,49
278400,note_on,0,0,4,,,,,,,,,3,,,38,0
278559,note_on,287,0,1,,,,,,,,,0,,,88,62
278591,note_on,32,0,1,,,,,,,,,0,,,88,0
278880,note_on,960,0,3,,,,,,,,,2,,,58,49
278880,note_on,480,0,4,,,,,,,,,3,,,50,0
278880,note_on,0,0,4,,,,,,,,,3,,,38,0
278880,note_on,0,0,4,,,,,,,,,3,,,34,49
278880,note_on,0,0,4,,,,,,,,,3,,,46,49
278880,note_on,0,0,2,,,,,,,,,1,,,65,49
278880,note_on,960,0,2,,,,,,,,,1,,,62,49
278880,note_on,289,0,1,,,,,,,,,0,,,89,62
278911,note_on,31,0,1,,,,,,,,,0,,,89,0
279200,note_on,289,0,1,,,,,,,,,0,,,86,62
279232,note_on,32,0,1,,,,,,,,,0,,,86,0
279360,note_on,480,0,4,,,,,,,,,3,,,46,0
279360,note_on,0,0,4,,,,,,,,,3,,,34,0
279360,note_on,0,0,4,,,,,,,,,3,,,34,49
279360,note_on,0,0,4,,,,,,,,,3,,,46,49
279519,note_on,287,0,1,,,,,,,,,0,,,84,62
279551,note_on,32,0,1,,,,,,,,,0,,,84,0
279840,note_on,289,0,1,,,,,,,,,0,,,82,62
279871,note_on,31,0,1,,,,,,,,,0,,,82,0
280160,note_on,289,0,1,,,,,,,,,0,,,81,62
280192,note_on,32,0,1,,,,,,,,,0,,,81,0
280320,note_on,0,0,4,,,,,,,,,3,,,34,49
280320,note_on,960,0,4,,,,,,,,,3,,,46,0
280320,note_on,0,0,4,,,,,,,,,3,,,46,49
280320,note_on,0,0,4,,,,,,,,,3,,,34,0
280479,note_on,287,0,1,,,,,,,,,0,,,79,62
280511,note_on,32,0,1,,,,,,,,,0,,,79,0
280800,note_on,480,0,4,,,,,,,,,3,,,46,0
280800,note_on,0,0,4,,,,,,,,,3,,,34,0
280800,note_on,0,0,4,,,,,,,,,3,,,34,49
280800,note_on,289,0,1,,,,,,,,,0,,,77,62
280800,note_on,1920,0,2,,,,,,,,,1,,,65,0
280800,note_on,0,0,2,,,,,,,,,1,,,62,49
280800,note_on,0,0,2,,,,,,,,,1,,,65,49
280800,note_on,0,0,4,,,,,,,,,3,,,46,49
280800,note_on,1920,0,3,,,,,,,,,2,,,58,0
280800,note_on,0,0,3,,,,,,,,,2,,,58,49
280800,note_on,0,0,2,,,,,,,,,1,,,62,0
280831,note_on,31,0,1,,,,,,,,,0,,,77,0
281120,note_on,289,0,1,,,,,,,,,0,,,79,62
281152,note_on,32,0,1,,,,,,,,,0,,,79,0
281280,note_on,480,0,4,,,,,,,,,3,,,46,0
281280,note_on,0,0,4,,,,,,,,,3,,,34,0
281280,note_on,0,0,4,,,,,,,,,3,,,38,49
281280,note_on,0,0,4,,,,,,,,,3,,,50,49
281280,control_change,0,0,4,,,,,,,,,3,64,127,,
281439,note_on,287,0,1,,,,,,,,,0,,,80,62
281471,note_on,32,0,1,,,,,,,,,0,,,80,0
281760,note_on,289,0,1,,,,,,,,,0,,,81,62
281760,note_on,0,0,4,,,,,,,,,3,,,38,0
281760,note_on,960,0,2,,,,,,,,,1,,,65,0
281760,note_on,0,0,2,,,,,,,,,1,,,62,0
281760,note_on,0,0,2,,,,,,,,,1,,,60,49
281760,note_on,960,0,3,,,,,,,,,2,,,58,0
281760,note_on,0,0,2,,,,,,,,,1,,,65,49
281760,note_on,0,0,3,,,,,,,,,2,,,57,49
281760,note_on,0,0,4,,,,,,,,,3,,,41,49
281760,note_on,480,0,4,,,,,,,,,3,,,50,0
281791,note_on,31,0,1,,,,,,,,,0,,,81,0
282080,note_on,289,0,1,,,,,,,,,0,,,82,62
282112,note_on,32,0,1,,,,,,,,,0,,,82,0
282240,note_on,0,0,4,,,,,,,,,3,,,45,49
282240,note_on,480,0,4,,,,,,,,,3,,,41,0
282240,control_change,0,0,4,,,,,,,,,3,64,0,,
282399,note_on,287,0,1,,,,,,,,,0,,,84,62
282431,note_on,32,0,1,,,,,,,,,0,,,84,0
282720,note_on,0,0,4,,,,,,,,,3,,,48,49
282720,note_on,0,0,4,,,,,,,,,3,,,36,49
282720,note_on,480,0,4,,,,,,,,,3,,,45,0
282720,note_on,0,0,1,,,,,,,,,0,,,86,62
282720,control_change,289,0,1,,,,,,,,,0,64,127,,
282720,note_on,960,0,3,,,,,,,,,2,,,57,0
282720,note_on,0,0,3,,,,,,,,,2,,,55,49
282720,note_on,0,0,2,,,,,,,,,1,,,60,49
282720,note_on,0,0,2,,,,,,,,,1,,,60,0
282720,note_on,960,0,2,,,,,,,,,1,,,65,0
282720,note_on,0,0,2,,,,,,,,,1,,,65,49
283040,note_on,320,0,1,,,,,,,,,0,,,86,0
283040,note_on,0,0,1,,,,,,,,,0,,,84,62
283200,note_on,0,0,4,,,,,,,,,3,,,48,49
283200,note_on,0,0,4,,,,,,,,,3,,,36,49
283200,note_on,0,0,4,,,,,,,,,3,,,36,0
283200,note_on,480,0,4,,,,,,,,,3,,,48,0
283359,note_on,319,0,1,,,,,,,,,0,,,84,0
283359,note_on,0,0,1,,,,,,,,,0,,,83,62
283680,note_on,960,0,2,,,,,,,,,1,,,65,0
283680,note_on,0,0,2,,,,,,,,,1,,,64,49
283680,note_on,321,0,1,,,,,,,,,0,,,83,0
283680,note_on,0,0,1,,,,,,,,,0,,,84,62
284000,note_on,320,0,1,,,,,,,,,0,,,84,0
284000,note_on,0,0,1,,,,,,,,,0,,,86,62
284160,note_on,960,0,4,,,,,,,,,3,,,48,0
284160,note_on,0,0,4,,,,,,,,,3,,,36,0
284160,note_on,0,0,4,,,,,,,,,3,,,36,49
284160,note_on,0,0,4,,,,,,,,,3,,,48,49
284319,note_on,0,0,1,,,,,,,,,0,,,87,62
284319,note_on,319,0,1,,,,,,,,,0,,,86,0
284640,note_on,0,0,4,,,,,,,,,3,,,36,49
284640,note_on,0,0,4,,,,,,,,,3,,,36,0
284640,note_on,480,0,4,,,,,,,,,3,,,48,0
284640,note_on,0,0,1,,,,,,,,,0,,,88,62
284640,note_on,321,0,1,,,,,,,,,0,,,87,0
284640,note_on,0,0,4,,,,,,,,,3,,,48,49
284960,note_on,0,0,1,,,,,,,,,0,,,89,62
284960,note_on,320,0,1,,,,,,,,,0,,,88,0
285120,note_on,480,0,4,,,,,,,,,3,,,48,0
285120,note_on,0,0,4,,,,,,,,,3,,,48,49
285120,note_on,0,0,4,,,,,,,,,3,,,36,49
285120,note_on,0,0,4,,,,,,,,,3,,,36,0
285279,note_on,319,0,1,,,,,,,,,0,,,89,0
285279,control_change,0,0,1,,,,,,,,,0,64,0,,
285279,note_on,0,0,1,,,,,,,,,0,,,90,62
285600,note_on,2880,0,3,,,,,,,,,2,,,55,0
285600,note_on,0,0,2,,,,,,,,,1,,,60,49
285600,note_on,0,0,2,,,,,,,,,1,,,64,49
285600,note_on,1920,0,2,,,,,,,,,1,,,64,0
285600,note_on,0,0,3,,,,,,,,,2,,,55,49
285600,note_on,0,0,2,,,,,,,,,1,,,60,0
285600,note_on,321,0,1,,,,,,,,,0,,,90,0
285600,note_on,0,0,1,,,,,,,,,0,,,91,62
285631,note_on,31,0,1,,,,,,,,,0,,,91,0
285920,note_on,289,0,1,,,,,,,,,0,,,91,62
285952,note_on,32,0,1,,,,,,,,,0,,,91,0
286080,note_on,960,0,4,,,,,,,,,3,,,48,0
286080,note_on,0,0,4,,,,,,,,,3,,,36,0
286080,note_on,0,0,4,,,,,,,,,3,,,40,49
286080,note_on,0,0,4,,,,,,,,,3,,,52,49
286239,note_on,287,0,1,,,,,,,,,0,,,91,62
286271,note_on,32,0,1,,,,,,,,,0,,,91,0
286560,note_on,480,0,4,,,,,,,,,3,,,52,0
286560,note_on,0,0,3,,,,,,,,,2,,,55,49
286560,note_on,0,0,4,,,,,,,,,3,,,43,49
286560,note_on,960,0,3,,,,,,,,,2,,,55,0
286560,note_on,0,0,4,,,,,,,,,3,,,31,49
286560,note_on,0,0,4,,,,,,,,,3,,,40,0
286560,note_on,960,0,2,,,,,,,,,1,,,64,0
286560,note_on,0,0,2,,,,,,,,,1,,,60,49
286560,note_on,0,0,2,,,,,,,,,1,,,62,49
286560,note_on,289,0,1,,,,,,,,,0,,,93,62
286560,note_on,0,0,2,,,,,,,,,1,,,60,0
286880,note_on,0,0,1,,,,,,,,,0,,,91,62
286880,note_on,320,0,1,,,,,,,,,0,,,93,0
287040,note_on,0,0,4,,,,,,,,,3,,,31,49
287040,note_on,0,0,4,,,,,,,,,3,,,31,0
287040,note_on,480,0,4,,,,,,,,,3,,,43,0
287040,note_on,0,0,4,,,,,,,,,3,,,43,49
287199,note_on,0,0,1,,,,,,,,,0,,,90,62
287199,note_on,319,0,1,,,,,,,,,0,,,91,0
287231,note_on,32,0,1,,,,,,,,,0,,,90,0
287520,note_on,289,0,1,,,,,,,,,0,,,90,62
287840,note_on,0,0,1,,,,,,,,,0,,,91,62
287840,note_on,320,0,1,,,,,,,,,0,,,90,0
288000,note_on,0,0,4,,,,,,,,,3,,,31,49
288000,note_on,960,0,4,,,,,,,,,3,,,43,0
288000,note_on,0,0,4,,,,,,,,,3,,,31,0
288000,note_on,0,0,4,,,,,,,,,3,,,43,49
288159,note_on,0,0,1,,,,,,,,,0,,,86,62
288159,note_on,319,0,1,,,,,,,,,0,,,91,0
288191,note_on,32,0,1,,,,,,,,,0,,,86,0
288480,note_on,480,0,4,,,,,,,,,3,,,43,0
288480,note_on,0,0,4,,,,,,,,,3,,,43,49
288480,note_on,1920,0,2,,,,,,,,,1,,,62,0
288480,note_on,0,0,2,,,,,,,,,1,,,60,0
288480,note_on,0,0,2,,,,,,,,,1,,,59,62
288480,note_on,0,0,2,,,,,,,,,1,,,62,62
288480,note_on,0,0,4,,,,,,,,,3,,,31,49
288480,note_on,0,0,4,,,,,,,,,3,,,31,0
288480,note_on,289,0,1,,,,,,,,,0,,,86,62
288800,note_on,0,0,1,,,,,,,,,0,,,91,62
288800,note_on,320,0,1,,,,,,,,,0,,,86,0
288960,note_on,0,0,4,,,,,,,,,3,,,43,49
288960,note_on,480,0,4,,,,,,,,,3,,,43,0
288960,note_on,0,0,4,,,,,,,,,3,,,31,0
288960,note_on,0,0,4,,,,,,,,,3,,,31,49
289119,note_on,0,0,1,,,,,,,,,0,,,91,62
289119,note_on,319,0,1,,,,,,,,,0,,,91,0
289151,note_on,32,0,1,,,,,,,,,0,,,91,0
289200,note_on,0,0,2,,,,,,,,,1,,,67,62
289200,note_on,0,0,2,,,,,,,,,1,,,59,0
289200,note_on,720,0,2,,,,,,,,,1,,,62,0
289440,note_on,0,0,3,,,,,,,,,2,,,55,49
289440,note_on,2880,0,3,,,,,,,,,2,,,55,0
289440,note_on,289,0,1,,,,,,,,,0,,,91,62
289440,note_on,0,0,2,,,,,,,,,1,,,59,62
289440,note_on,0,0,2,,,,,,,,,1,,,67,62
289440,note_on,240,0,2,,,,,,,,,1,,,67,0
289760,note_on,320,0,1,,,,,,,,,0,,,91,0
289760,note_on,0,0,1,,,,,,,,,0,,,86,62
289920,note_on,960,0,4,,,,,,,,,3,,,43,0
289920,note_on,0,0,4,,,,,,,,,3,,,31,0
289920,note_on,0,0,4,,,,,,,,,3,,,31,49
289920,note_on,0,0,4,,,,,,,,,3,,,43,49
290079,note_on,0,0,1,,,,,,,,,0,,,86,62
290079,note_on,319,0,1,,,,,,,,,0,,,86,0
290111,note_on,32,0,1,,,,,,,,,0,,,86,0
290160,note_on,0,0,2,,,,,,,,,1,,,59,0
290160,note_on,0,0,2,,,,,,,,,1,,,62,62
290160,note_on,720,0,2,,,,,,,,,1,,,67,0
290400,note_on,289,0,1,,,,,,,,,0,,,88,62
290400,note_on,240,0,2,,,,,,,,,1,,,62,0
290400,note_on,0,0,2,,,,,,,,,1,,,64,49
290400,note_on,0,0,2,,,,,,,,,1,,,60,49
290400,note_on,0,0,3,,,,,,,,,2,,,55,49
290400,note_on,480,0,4,,,,,,,,,3,,,43,0
290400,note_on,960,0,3,,,,,,,,,2,,,55,0
290400,note_on,0,0,4,,,,,,,,,3,,,48,49
290400,note_on,0,0,4,,,,,,,,,3,,,36,49
290400,note_on,0,0,4,,,,,,,,,3,,,31,0
290400,set_tempo,26880,1,0,,,,,,312500,,,,,,,
290720,note_on,320,0,1,,,,,,,,,0,,,88,0
290720,note_on,0,0,1,,,,,,,,,0,,,79,62
290880,note_on,0,0,4,,,,,,,,,3,,,48,49
290880,note_on,0,0,4,,,,,,,,,3,,,36,0
290880,note_on,480,0,4,,,,,,,,,3,,,48,0
291039,note_on,0,0,1,,,,,,,,,0,,,79,62
291039,note_on,319,0,1,,,,,,,,,0,,,79,0
291071,note_on,32,0,1,,,,,,,,,0,,,79,0
291360,note_on,289,0,1,,,,,,,,,0,,,79,62
291680,note_on,0,0,1,,,,,,,,,0,,,84,62
291680,note_on,320,0,1,,,,,,,,,0,,,79,0
291840,note_on,0,0,4,,,,,,,,,3,,,48,49
291840,note_on,960,0,4,,,,,,,,,3,,,48,0
291999,note_on,0,0,1,,,,,,,,,0,,,86,62
291999,note_on,319,0,1,,,,,,,,,0,,,84,0
292031,note_on,32,0,1,,,,,,,,,0,,,86,0
292320,note_on,0,0,2,,,,,,,,,1,,,60,0
292320,note_on,0,0,2,,,,,,,,,1,,,76,75
292320,note_on,289,0,1,,,,,,,,,0,,,88,75
292320,note_on,1920,0,2,,,,,,,,,1,,,64,0
292320,set_tempo,1920,1,0,,,,,,270270,,,,,,,
292320,note_on,480,0,4,,,,,,,,,3,,,48,0
292320,note_on,0,0,4,,,,,,,,,3,,,48,62
292320,note_on,1920,0,3,,,,,,,,,2,,,55,0
292640,note_on,320,0,1,,,,,,,,,0,,,88,0
292640,note_on,0,0,1,,,,,,,,,0,,,91,75
292640,note_on,0,0,2,,,,,,,,,1,,,79,75
292640,note_on,320,0,2,,,,,,,,,1,,,76,0
292640,note_on,0,0,3,,,,,,,,,2,,,55,62
292640,control_change,320,0,3,,,,,,,,,2,64,127,,
292800,note_on,480,0,4,,,,,,,,,3,,,48,0
292800,note_on,0,0,4,,,,,,,,,3,,,48,62
292959,note_on,0,0,2,,,,,,,,,1,,,79,75
292959,note_on,319,0,2,,,,,,,,,1,,,79,0
292959,note_on,319,0,3,,,,,,,,,2,,,55,0
292959,note_on,0,0,3,,,,,,,,,2,,,60,62
292959,note_on,0,0,1,,,,,,,,,0,,,91,75
292959,note_on,319,0,1,,,,,,,,,0,,,91,0
292991,note_on,32,0,2,,,,,,,,,1,,,79,0
292991,note_on,32,0,1,,,,,,,,,0,,,91,0
293280,note_on,289,0,2,,,,,,,,,1,,,79,75
293280,note_on,321,0,3,,,,,,,,,2,,,60,0
293280,note_on,0,0,3,,,,,,,,,2,,,64,62
293280,note_on,289,0,1,,,,,,,,,0,,,91,75
293600,note_on,320,0,1,,,,,,,,,0,,,91,0
293600,note_on,0,0,1,,,,,,,,,0,,,88,75
293600,note_on,320,0,2,,,,,,,,,1,,,79,0
293600,note_on,320,0,3,,,,,,,,,2,,,64,0
293600,note_on,0,0,3,,,,,,,,,2,,,60,62
293600,note_on,0,0,2,,,,,,,,,1,,,76,75
293760,note_on,960,0,4,,,,,,,,,3,,,48,0
293760,note_on,0,0,4,,,,,,,,,3,,,48,62
293919,note_on,0,0,2,,,,,,,,,1,,,72,75
293919,note_on,319,0,1,,,,,,,,,0,,,88,0
293919,note_on,319,0,3,,,,,,,,,2,,,60,0
293919,note_on,319,0,2,,,,,,,,,1,,,76,0
293919,note_on,0,0,3,,,,,,,,,2,,,55,62
293919,control_change,0,0,3,,,,,,,,,2,64,0,,
293919,note_on,0,0,1,,,,,,,,,0,,,84,75
293951,note_on,32,0,2,,,,,,,,,1,,,72,0
293951,note_on,32,0,1,,,,,,,,,0,,,84,0
294240,control_change,289,0,2,,,,,,,,,1,64,127,,
294240,control_change,289,0,1,,,,,,,,,0,64,127,,
294240,note_on,321,0,3,,,,,,,,,2,,,55,0
294240,note_on,0,0,4,,,,,,,,,3,,,48,62
294240,note_on,480,0,4,,,,,,,,,3,,,48,0
294240,note_on,0,0,1,,,,,,,,,0,,,88,75
294240,note_on,0,0,2,,,,,,,,,1,,,76,75
294560,note_on,0,0,2,,,,,,,,,1,,,74,75
294560,note_on,320,0,2,,,,,,,,,1,,,76,0
294560,note_on,320,0,1,,,,,,,,,0,,,88,0
294560,note_on,0,0,1,,,,,,,,,0,,,86,75
294560,control_change,320,0,3,,,,,,,,,2,64,127,,
294560,note_on,0,0,3,,,,,,,,,2,,,55,62
294720,note_on,0,0,4,,,,,,,,,3,,,48,62
294720,note_on,480,0,4,,,,,,,,,3,,,48,0
294879,note_on,0,0,3,,,,,,,,,2,,,59,62
294879,note_on,319,0,2,,,,,,,,,1,,,74,0
294879,control_change,0,0,2,,,,,,,,,1,64,0,,
294879,note_on,319,0,3,,,,,,,,,2,,,55,0
294879,note_on,319,0,1,,,,,,,,,0,,,86,0
294879,note_on,0,0,2,,,,,,,,,1,,,73,75
294879,note_on,0,0,1,,,,,,,,,0,,,85,75
294879,control_change,0,0,1,,,,,,,,,0,64,0,,
295200,note_on,321,0,1,,,,,,,,,0,,,85,0
295200,control_change,0,0,1,,,,,,,,,0,64,127,,
295200,note_on,0,0,1,,,,,,,,,0,,,85,75
295200,note_on,0,0,2,,,,,,,,,1,,,73,75
295200,control_change,0,0,2,,,,,,,,,1,64,127,,
295200,note_on,321,0,2,,,,,,,,,1,,,73,0
295200,note_on,321,0,3,,,,,,,,,2,,,59,0
295200,note_on,0,0,3,,,,,,,,,2,,,65,62
295520,note_on,0,0,2,,,,,,,,,1,,,74,75
295520,note_on,320,0,2,,,,,,,,,1,,,73,0
295520,note_on,0,0,3,,,,,,,,,2,,,59,62
295520,note_on,320,0,3,,,,,,,,,2,,,65,0
295520,note_on,0,0,1,,,,,,,,,0,,,86,75
295520,note_on,320,0,1,,,,,,,,,0,,,85,0
295680,note_on,960,0,4,,,,,,,,,3,,,48,0
295680,note_on,0,0,4,,,,,,,,,3,,,48,62
295839,note_on,319,0,2,,,,,,,,,1,,,74,0
295839,control_change,0,0,3,,,,,,,,,2,64,0,,
295839,note_on,0,0,3,,,,,,,,,2,,,55,62
295839,note_on,0,0,2,,,,,,,,,1,,,76,75
295839,note_on,0,0,1,,,,,,,,,0,,,88,75
295839,control_change,0,0,1,,,,,,,,,0,64,0,,
295839,note_on,319,0,1,,,,,,,,,0,,,86,0
295839,note_on,319,0,3,,,,,,,,,2,,,59,0
295839,control_change,0,0,2,,,,,,,,,1,64,0,,
296160,note_on,321,0,3,,,,,,,,,2,,,55,0
296160,note_on,0,0,4,,,,,,,,,3,,,48,62
296160,note_on,0,0,2,,,,,,,,,1,,,77,75
296160,note_on,321,0,2,,,,,,,,,1,,,76,0
296160,note_on,0,0,1,,,,,,,,,0,,,89,75
296160,note_on,480,0,4,,,,,,,,,3,,,48,0
296160,note_on,321,0,1,,,,,,,,,0,,,88,0
296480,control_change,320,0,3,,,,,,,,,2,64,127,,
296480,note_on,320,0,2,,,,,,,,,1,,,77,0
296480,note_on,0,0,2,,,,,,,,,1,,,81,75
296480,note_on,320,0,1,,,,,,,,,0,,,89,0
296480,note_on,0,0,1,,,,,,,,,0,,,93,75
296480,note_on,0,0,3,,,,,,,,,2,,,55,62
296640,note_on,0,0,4,,,,,,,,,3,,,48,62
296640,note_on,480,0,4,,,,,,,,,3,,,48,0
296799,note_on,319,0,3,,,,,,,,,2,,,55,0
296799,note_on,0,0,1,,,,,,,,,0,,,93,75
296799,note_on,319,0,1,,,,,,,,,0,,,93,0
296799,note_on,0,0,2,,,,,,,,,1,,,81,75
296799,note_on,319,0,2,,,,,,,,,1,,,81,0
296799,note_on,0,0,3,,,,,,,,,2,,,59,62
296831,note_on,32,0,2,,,,,,,,,1,,,81,0
296831,note_on,32,0,1,,,,,,,,,0,,,93,0
297120,note_on,321,0,3,,,,,,,,,2,,,59,0
297120,note_on,0,0,2,,,,,,,,,1,,,81,75
297120,note_on,0,0,1,,,,,,,,,0,,,93,75
297120,control_change,289,0,2,,,,,,,,,1,64,127,,
297120,control_change,289,0,1,,,,,,,,,0,64,127,,
297120,note_on,0,0,3,,,,,,,,,2,,,65,62
297440,note_on,0,0,3,,,,,,,,,2,,,59,62
297440,note_on,320,0,3,,,,,,,,,2,,,65,0
297440,note_on,320,0,1,,,,,,,,,0,,,93,0
297440,note_on,0,0,2,,,,,,,,,1,,,77,75
297440,note_on,320,0,2,,,,,,,,,1,,,81,0
297440,note_on,0,0,1,,,,,,,,,0,,,89,75
297600,note_on,960,0,4,,,,,,,,,3,,,48,0
297600,note_on,0,0,4,,,,,,,,,3,,,48,62
297759,note_on,0,0,1,,,,,,,,,0,,,86,75
297759,control_change,0,0,3,,,,,,,,,2,64,0,,
297759,note_on,0,0,3,,,,,,,,,2,,,55,62
297759,note_on,319,0,1,,,,,,,,,0,,,89,0
297759,control_change,0,0,1,,,,,,,,,0,64,0,,
297759,note_on,319,0,2,,,,,,,,,1,,,77,0
297759,control_change,0,0,2,,,,,,,,,1,64,0,,
297759,note_on,0,0,2,,,,,,,,,1,,,74,75
297759,note_on,319,0,3,,,,,,,,,2,,,59,0
297791,note_on,32,0,1,,,,,,,,,0,,,86,0
297791,note_on,32,0,2,,,,,,,,,1,,,74,0
298080,control_change,289,0,2,,,,,,,,,1,64,127,,
298080,note_on,321,0,3,,,,,,,,,2,,,55,0
298080,note_on,0,0,1,,,,,,,,,0,,,87,75
298080,note_on,0,0,4,,,,,,,,,3,,,48,62
298080,note_on,480,0,4,,,,,,,,,3,,,48,0
298080,note_on,0,0,2,,,,,,,,,1,,,75,75
298080,control_change,289,0,1,,,,,,,,,0,64,127,,
298400,control_change,320,0,3,,,,,,,,,2,64,127,,
298400,note_on,0,0,3,,,,,,,,,2,,,55,62
298400,note_on,0,0,1,,,,,,,,,0,,,88,75
298400,note_on,0,0,2,,,,,,,,,1,,,76,75
298400,note_on,320,0,2,,,,,,,,,1,,,75,0
298400,note_on,320,0,1,,,,,,,,,0,,,87,0
298560,note_on,480,0,4,,,,,,,,,3,,,48,0
298560,note_on,0,0,4,,,,,,,,,3,,,48,62
298719,note_on,319,0,1,,,,,,,,,0,,,88,0
298719,note_on,0,0,1,,,,,,,,,0,,,89,75
298719,note_on,0,0,3,,,,,,,,,2,,,60,62
298719,note_on,0,0,2,,,,,,,,,1,,,77,75
298719,note_on,319,0,2,,,,,,,,,1,,,76,0
298719,note_on,319,0,3,,,,,,,,,2,,,55,0
299040,note_on,0,0,3,,,,,,,,,2,,,64,62
299040,note_on,321,0,2,,,,,,,,,1,,,77,0
299040,note_on,321,0,3,,,,,,,,,2,,,60,0
299040,note_on,0,0,2,,,,,,,,,1,,,76,75
299040,note_on,0,0,1,,,,,,,,,0,,,88,75
299040,note_on,321,0,1,,,,,,,,,0,,,89,0
299360,note_on,320,0,2,,,,,,,,,1,,,76,0
299360,note_on,0,0,3,,,,,,,,,2,,,60,62
299360,note_on,320,0,3,,,,,,,,,2,,,64,0
299360,note_on,0,0,1,,,,,,,,,0,,,89,75
299360,note_on,320,0,1,,,,,,,,,0,,,88,0
299360,note_on,0,0,2,,,,,,,,,1,,,77,75
299520,note_on,960,0,4,,,,,,,,,3,,,48,0
299520,note_on,0,0,4,,,,,,,,,3,,,48,62
299679,control_change,0,0,2,,,,,,,,,1,64,0,,
299679,note_on,319,0,2,,,,,,,,,1,,,77,0
299679,note_on,0,0,2,,,,,,,,,1,,,78,75
299679,note_on,319,0,3,,,,,,,,,2,,,60,0
299679,control_change,0,0,3,,,,,,,,,2,64,0,,
299679,note_on,0,0,3,,,,,,,,,2,,,55,62
299679,control_change,0,0,1,,,,,,,,,0,64,0,,
299679,note_on,0,0,1,,,,,,,,,0,,,90,75
299679,note_on,319,0,1,,,,,,,,,0,,,89,0
300000,note_on,480,0,4,,,,,,,,,3,,,48,0
300000,note_on,321,0,3,,,,,,,,,2,,,55,0
300000,note_on,0,0,1,,,,,,,,,0,,,91,75
300000,note_on,321,0,1,,,,,,,,,0,,,90,0
300000,note_on,0,0,4,,,,,,,,,3,,,48,62
300000,note_on,0,0,2,,,,,,,,,1,,,79,75
300000,note_on,321,0,2,,,,,,,,,1,,,78,0
300320,note_on,0,0,3,,,,,,,,,2,,,55,62
300320,note_on,320,0,1,,,,,,,,,0,,,91,0
300320,note_on,0,0,2,,,,,,,,,1,,,84,75
300320,note_on,320,0,2,,,,,,,,,1,,,79,0
300320,note_on,0,0,1,,,,,,,,,0,,,96,75
300320,control_change,320,0,3,,,,,,,,,2,64,127,,
300480,note_on,0,0,4,,,,,,,,,3,,,48,62
300480,note_on,480,0,4,,,,,,,,,3,,,48,0
300639,note_on,0,0,1,,,,,,,,,0,,,96,75
300639,note_on,319,0,2,,,,,,,,,1,,,84,0
300639,note_on,0,0,2,,,,,,,,,1,,,84,75
300639,note_on,319,0,1,,,,,,,,,0,,,96,0
300639,note_on,319,0,3,,,,,,,,,2,,,55,0
300639,note_on,0,0,3,,,,,,,,,2,,,64,62
300671,note_on,32,0,2,,,,,,,,,1,,,84,0
300671,note_on,32,0,1,,,,,,,,,0,,,96,0
300960,note_on,289,0,2,,,,,,,,,1,,,84,75
300960,note_on,0,0,3,,,,,,,,,2,,,67,62
300960,note_on,321,0,3,,,,,,,,,2,,,64,0
300960,note_on,289,0,1,,,,,,,,,0,,,96,75
301280,note_on,320,0,3,,,,,,,,,2,,,67,0
301280,note_on,0,0,3,,,,,,,,,2,,,64,62
301280,note_on,320,0,1,,,,,,,,,0,,,96,0
301280,note_on,320,0,2,,,,,,,,,1,,,84,0
301280,note_on,0,0,2,,,,,,,,,1,,,76,75
301280,note_on,0,0,1,,,,,,,,,0,,,88,75
301440,note_on,0,0,4,,,,,,,,,3,,,48,62
301440,note_on,960,0,4,,,,,,,,,3,,,48,0
301599,note_on,0,0,1,,,,,,,,,0,,,88,75
301599,note_on,319,0,1,,,,,,,,,0,,,88,0
301599,note_on,319,0,2,,,,,,,,,1,,,76,0
301599,control_change,0,0,3,,,,,,,,,2,64,0,,
301599,note_on,0,0,3,,,,,,,,,2,,,55,62
301599,note_on,0,0,2,,,,,,,,,1,,,76,75
301599,note_on,319,0,3,,,,,,,,,2,,,64,0
301631,note_on,32,0,1,,,,,,,,,0,,,88,0
301631,note_on,32,0,2,,,,,,,,,1,,,76,0
301920,note_on,321,0,3,,,,,,,,,2,,,55,0
301920,note_on,480,0,4,,,,,,,,,3,,,48,0
301920,note_on,0,0,4,,,,,,,,,3,,,52,62
301920,note_on,289,0,1,,,,,,,,,0,,,88,75
301920,note_on,289,0,2,,,,,,,,,1,,,76,75
302240,note_on,0,0,1,,,,,,,,,0,,,91,75
302240,note_on,320,0,1,,,,,,,,,0,,,88,0
302240,note_on,320,0,2,,,,,,,,,1,,,76,0
302240,note_on,0,0,2,,,,,,,,,1,,,79,75
302240,control_change,320,0,3,,,,,,,,,2,64,127,,
302240,note_on,0,0,3,,,,,,,,,2,,,60,62
302400,note_on,480,0,4,,,,,,,,,3,,,52,0
302400,note_on,0,0,4,,,,,,,,,3,,,52,62
302559,note_on,0,0,1,,,,,,,,,0,,,91,75
302559,note_on,319,0,1,,,,,,,,,0,,,91,0
302559,note_on,319,0,3,,,,,,,,,2,,,60,0
302559,note_on,319,0,2,,,,,,,,,1,,,79,0
302559,note_on,0,0,2,,,,,,,,,1,,,79,75
302559,note_on,0,0,3,,,,,,,,,2,,,64,62
302591,note_on,32,0,2,,,,,,,,,1,,,79,0
302591,note_on,32,0,1,,,,,,,,,0,,,91,0
302880,note_on,289,0,2,,,,,,,,,1,,,79,75
302880,note_on,289,0,1,,,,,,,,,0,,,91,75
302880,note_on,321,0,3,,,,,,,,,2,,,64,0
302880,note_on,0,0,3,,,,,,,,,2,,,67,62
303200,note_on,0,0,2,,,,,,,,,1,,,72,75
303200,note_on,320,0,2,,,,,,,,,1,,,79,0
303200,note_on,320,0,3,,,,,,,,,2,,,67,0
303200,note_on,320,0,1,,,,,,,,,0,,,91,0
303200,note_on,0,0,1,,,,,,,,,0,,,84,75
303200,note_on,0,0,3,,,,,,,,,2,,,64,62
303360,note_on,0,0,4,,,,,,,,,3,,,52,62
303360,note_on,960,0,4,,,,,,,,,3,,,52,0
303519,note_on,319,0,1,,,,,,,,,0,,,84,0
303519,note_on,0,0,1,,,,,,,,,0,,,84,75
303519,note_on,0,0,3,,,,,,,,,2,,,60,62
303519,control_change,0,0,3,,,,,,,,,2,64,0,,
303519,note_on,319,0,3,,,,,,,,,2,,,64,0
303519,note_on,0,0,2,,,,,,,,,1,,,72,75
303519,note_on,319,0,2,,,,,,,,,1,,,72,0
303551,note_on,32,0,2,,,,,,,,,1,,,72,0
303551,note_on,32,0,1,,,,,,,,,0,,,84,0
303840,control_change,289,0,1,,,,,,,,,0,64,127,,
303840,note_on,0,0,1,,,,,,,,,0,,,83,75
303840,control_change,289,0,2,,,,,,,,,1,64,127,,
303840,note_on,321,0,3,,,,,,,,,2,,,60,0
303840,note_on,0,0,4,,,,,,,,,3,,,55,62
303840,note_on,480,0,4,,,,,,,,,3,,,52,0
303840,note_on,0,0,2,,,,,,,,,1,,,71,75
304160,note_on,320,0,2,,,,,,,,,1,,,71,0
304160,note_on,0,0,2,,,,,,,,,1,,,72,75
304160,note_on,0,0,3,,,,,,,,,2,,,64,62
304160,control_change,320,0,3,,,,,,,,,2,64,127,,
304160,note_on,0,0,1,,,,,,,,,0,,,84,75
304160,note_on,320,0,1,,,,,,,,,0,,,83,0
304320,note_on,0,0,4,,,,,,,,,3,,,55,62
304320,note_on,480,0,4,,,,,,,,,3,,,55,0
304479,note_on,319,0,3,,,,,,,,,2,,,64,0
304479,note_on,0,0,3,,,,,,,,,2,,,67,62
304479,note_on,319,0,2,,,,,,,,,1,,,72,0
304479,note_on,0,0,2,,,,,,,,,1,,,73,75
304479,note_on,319,0,1,,,,,,,,,0,,,84,0
304479,note_on,0,0,1,,,,,,,,,0,,,85,75
304800,note_on,321,0,2,,,,,,,,,1,,,73,0
304800,note_on,0,0,2,,,,,,,,,1,,,76,88
304800,note_on,0,0,3,,,,,,,,,2,,,65,75
304800,note_on,0,0,1,,,,,,,,,0,,,88,88
304800,note_on,321,0,3,,,,,,,,,2,,,67,0
304800,note_on,321,0,1,,,,,,,,,0,,,85,0
305120,note_on,0,0,2,,,,,,,,,1,,,74,88
305120,note_on,320,0,2,,,,,,,,,1,,,76,0
305120,note_on,0,0,3,,,,,,,,,2,,,67,75
305120,note_on,320,0,3,,,,,,,,,2,,,65,0
305120,note_on,0,0,1,,,,,,,,,0,,,86,88
305120,note_on,320,0,1,,,,,,,,,0,,,88,0
305280,note_on,960,0,4,,,,,,,,,3,,,55,0
305280,note_on,0,0,4,,,,,,,,,3,,,55,62
305439,control_change,0,0,3,,,,,,,,,2,64,0,,
305439,note_on,0,0,3,,,,,,,,,2,,,65,75
305439,control_change,0,0,2,,,,,,,,,1,64,0,,
305439,note_on,0,0,2,,,,,,,,,1,,,75,88
305439,note_on,319,0,1,,,,,,,,,0,,,86,0
305439,control_change,0,0,1,,,,,,,,,0,64,0,,
305439,note_on,0,0,1,,,,,,,,,0,,,87,88
305439,note_on,319,0,2,,,,,,,,,1,,,74,0
305439,note_on,319,0,3,,,,,,,,,2,,,67,0
305760,note_on,321,0,3,,,,,,,,,2,,,65,0
305760,note_on,321,0,1,,,,,,,,,0,,,87,0
305760,note_on,0,0,4,,,,,,,,,3,,,48,62
305760,control_change,0,0,1,,,,,,,,,0,64,127,,
305760,note_on,0,0,1,,,,,,,,,0,,,89,88
305760,note_on,0,0,4,,,,,,,,,3,,,55,62
305760,note_on,480,0,4,,,,,,,,,3,,,55,0
305760,note_on,0,0,2,,,,,,,,,1,,,77,88
305760,control_change,0,0,2,,,,,,,,,1,64,127,,
305760,note_on,321,0,2,,,,,,,,,1,,,75,0
306080,note_on,0,0,1,,,,,,,,,0,,,88,88
306080,note_on,0,0,3,,,,,,,,,2,,,60,75
306080,control_change,320,0,3,,,,,,,,,2,64,127,,
306080,note_on,0,0,2,,,,,,,,,1,,,76,88
306080,note_on,320,0,1,,,,,,,,,0,,,89,0
306080,note_on,320,0,2,,,,,,,,,1,,,77,0
306240,note_on,480,0,4,,,,,,,,,3,,,55,0
306240,note_on,0,0,4,,,,,,,,,3,,,48,0
306240,note_on,0,0,4,,,,,,,,,3,,,48,62
306240,note_on,0,0,4,,,,,,,,,3,,,55,62
306399,note_on,0,0,2,,,,,,,,,1,,,75,75
306399,note_on,0,0,3,,,,,,,,,2,,,59,62
306399,note_on,319,0,3,,,,,,,,,2,,,60,0
306399,note_on,319,0,1,,,,,,,,,0,,,88,0
306399,note_on,0,0,1,,,,,,,,,0,,,87,75
306399,note_on,319,0,2,,,,,,,,,1,,,76,0
306720,note_on,321,0,2,,,,,,,,,1,,,75,0
306720,note_on,321,0,3,,,,,,,,,2,,,59,0
306720,note_on,0,0,3,,,,,,,,,2,,,60,62
306720,note_on,321,0,1,,,,,,,,,0,,,87,0
306720,note_on,0,0,1,,,,,,,,,0,,,88,75
306720,note_on,0,0,2,,,,,,,,,1,,,76,75
307040,note_on,0,0,1,,,,,,,,,0,,,89,75
307040,note_on,320,0,2,,,,,,,,,1,,,76,0
307040,note_on,0,0,2,,,,,,,,,1,,,77,75
307040,note_on,320,0,1,,,,,,,,,0,,,88,0
307040,note_on,320,0,3,,,,,,,,,2,,,60,0
307040,note_on,0,0,3,,,,,,,,,2,,,62,62
307200,note_on,0,0,4,,,,,,,,,3,,,48,0
307200,note_on,960,0,4,,,,,,,,,3,,,55,0
307200,note_on,0,0,4,,,,,,,,,3,,,48,62
307200,note_on,0,0,4,,,,,,,,,3,,,55,62
307359,note_on,319,0,1,,,,,,,,,0,,,89,0
307359,note_on,0,0,3,,,,,,,,,2,,,63,62
307359,control_change,0,0,3,,,,,,,,,2,64,0,,
307359,note_on,319,0,3,,,,,,,,,2,,,62,0
307359,control_change,0,0,1,,,,,,,,,0,64,0,,
307359,note_on,0,0,1,,,,,,,,,0,,,90,75
307359,note_on,319,0,2,,,,,,,,,1,,,77,0
307359,control_change,0,0,2,,,,,,,,,1,64,0,,
307359,note_on,0,0,2,,,,,,,,,1,,,78,75
307680,note_on,321,0,1,,,,,,,,,0,,,90,0
307680,note_on,0,0,1,,,,,,,,,0,,,91,75
307680,control_change,0,0,3,,,,,,,,,2,64,127,,
307680,note_on,0,0,2,,,,,,,,,1,,,79,75
307680,note_on,321,0,2,,,,,,,,,1,,,78,0
307680,note_on,0,0,4,,,,,,,,,3,,,48,62
307680,note_on,0,0,4,,,,,,,,,3,,,48,0
307680,note_on,480,0,4,,,,,,,,,3,,,55,0
307680,note_on,321,0,3,,,,,,,,,2,,,63,0
307680,note_on,0,0,3,,,,,,,,,2,,,64,62
308000,note_on,320,0,2,,,,,,,,,1,,,79,0
308000,note_on,320,0,1,,,,,,,,,0,,,91,0
308000,note_on,0,0,3,,,,,,,,,2,,,55,62
308000,note_on,320,0,3,,,,,,,,,2,,,64,0
308000,note_on,0,0,2,,,,,,,,,1,,,88,75
308000,note_on,0,0,1,,,,,,,,,0,,,100,75
308160,note_on,480,0,4,,,,,,,,,3,,,48,0
308160,note_on,0,0,4,,,,,,,,,3,,,48,62
308319,note_on,0,0,1,,,,,,,,,0,,,100,75
308319,note_on,319,0,1,,,,,,,,,0,,,100,0
308319,note_on,0,0,2,,,,,,,,,1,,,88,75
308319,note_on,319,0,2,,,,,,,,,1,,,88,0
308319,note_on,0,0,3,,,,,,,,,2,,,64,62
308319,note_on,319,0,3,,,,,,,,,2,,,55,0
308351,note_on,32,0,1,,,,,,,,,0,,,100,0
308351,note_on,32,0,2,,,,,,,,,1,,,88,0
308640,note_on,289,0,2,,,,,,,,,1,,,88,75
308640,note_on,289,0,1,,,,,,,,,0,,,100,75
308640,note_on,0,0,3,,,,,,,,,2,,,67,62
308640,note_on,321,0,3,,,,,,,,,2,,,64,0
308960,note_on,0,0,3,,,,,,,,,2,,,64,62
308960,note_on,0,0,2,,,,,,,,,1,,,84,75
308960,note_on,320,0,3,,,,,,,,,2,,,67,0
308960,note_on,320,0,2,,,,,,,,,1,,,88,0
308960,note_on,320,0,1,,,,,,,,,0,,,100,0
308960,note_on,0,0,1,,,,,,,,,0,,,96,75
309120,note_on,0,0,4,,,,,,,,,3,,,48,62
309120,note_on,960,0,4,,,,,,,,,3,,,48,0
309279,note_on,319,0,1,,,,,,,,,0,,,96,0
309279,control_change,0,0,3,,,,,,,,,2,64,0,,
309279,note_on,0,0,3,,,,,,,,,2,,,55,62
309279,note_on,0,0,1,,,,,,,,,0,,,91,75
309279,note_on,319,0,2,,,,,,,,,1,,,84,0
309279,note_on,319,0,3,,,,,,,,,2,,,64,0
309279,note_on,0,0,2,,,,,,,,,1,,,79,75
309311,note_on,32,0,2,,,,,,,,,1,,,79,0
309311,note_on,32,0,1,,,,,,,,,0,,,91,0
309600,note_on,289,0,1,,,,,,,,,0,,,88,75
309600,note_on,321,0,3,,,,,,,,,2,,,55,0
309600,note_on,0,0,4,,,,,,,,,3,,,52,62
309600,note_on,289,0,2,,,,,,,,,1,,,76,75
309600,note_on,480,0,4,,,,,,,,,3,,,48,0
309920,note_on,0,0,1,,,,,,,,,0,,,96,75
309920,note_on,320,0,1,,,,,,,,,0,,,88,0
309920,control_change,320,0,3,,,,,,,,,2,64,127,,
309920,note_on,0,0,3,,,,,,,,,2,,,60,62
309920,note_on,0,0,2,,,,,,,,,1,,,84,75
309920,note_on,320,0,2,,,,,,,,,1,,,76,0
310080,note_on,480,0,4,,,,,,,,,3,,,52,0
310080,note_on,0,0,4,,,,,,,,,3,,,52,62
310239,note_on,0,0,3,,,,,,,,,2,,,64,62
310239,note_on,319,0,1,,,,,,,,,0,,,96,0
310239,note_on,0,0,1,,,,,,,,,0,,,96,75
310239,note_on,0,0,2,,,,,,,,,1,,,84,75
310239,note_on,319,0,2,,,,,,,,,1,,,84,0
310239,note_on,319,0,3,,,,,,,,,2,,,60,0
310271,note_on,32,0,2,,,,,,,,,1,,,84,0
310271,note_on,32,0,1,,,,,,,,,0,,,96,0
310560,note_on,289,0,1,,,,,,,,,0,,,96,75
310560,note_on,321,0,3,,,,,,,,,2,,,64,0
310560,note_on,289,0,2,,,,,,,,,1,,,84,75
310560,note_on,0,0,3,,,,,,,,,2,,,67,62
310880,note_on,320,0,1,,,,,,,,,0,,,96,0
310880,note_on,320,0,2,,,,,,,,,1,,,84,0
310880,note_on,0,0,3,,,,,,,,,2,,,64,62
310880,note_on,0,0,1,,,,,,,,,0,,,91,75
310880,note_on,320,0,3,,,,,,,,,2,,,67,0
310880,note_on,0,0,2,,,,,,,,,1,,,79,75
311040,note_on,960,0,4,,,,,,,,,3,,,52,0
311040,note_on,0,0,4,,,,,,,,,3,,,52,62
311199,control_change,0,0,3,,,,,,,,,2,64,0,,
311199,note_on,319,0,3,,,,,,,,,2,,,64,0
311199,note_on,0,0,2,,,,,,,,,1,,,76,75
311199,note_on,319,0,2,,,,,,,,,1,,,79,0
311199,note_on,0,0,3,,,,,,,,,2,,,60,62
311199,note_on,319,0,1,,,,,,,,,0,,,91,0
311199,note_on,0,0,1,,,,,,,,,0,,,88,75
311231,note_on,32,0,2,,,,,,,,,1,,,76,0
311231,note_on,32,0,1,,,,,,,,,0,,,88,0
311460,note_on,229,0,2,,,,,,,,,1,,,74,75
311460,note_on,229,0,1,,,,,,,,,0,,,86,75
311520,note_on,0,0,4,,,,,,,,,3,,,43,62
311520,note_on,480,0,4,,,,,,,,,3,,,52,0
311520,note_on,60,0,1,,,,,,,,,0,,,86,0
311520,control_change,0,0,3,,,,,,,,,2,64,127,,
311520,note_on,0,0,3,,,,,,,,,2,,,64,62
311520,control_change,0,0,1,,,,,,,,,0,64,127,,
311520,note_on,0,0,2,,,,,,,,,1,,,72,75
311520,control_change,0,0,2,,,,,,,,,1,64,127,,
311520,note_on,60,0,2,,,,,,,,,1,,,74,0
311520,note_on,321,0,3,,,,,,,,,2,,,60,0
311520,note_on,0,0,1,,,,,,,,,0,,,84,75
311840,note_on,320,0,3,,,,,,,,,2,,,64,0
311840,note_on,0,0,1,,,,,,,,,0,,,83,75
311840,note_on,320,0,1,,,,,,,,,0,,,84,0
311840,note_on,0,0,2,,,,,,,,,1,,,71,75
311840,note_on,320,0,2,,,,,,,,,1,,,72,0
311840,note_on,0,0,3,,,,,,,,,2,,,60,62
312000,note_on,0,0,4,,,,,,,,,3,,,43,62
312000,note_on,480,0,4,,,,,,,,,3,,,43,0
312159,note_on,0,0,1,,,,,,,,,0,,,84,75
312159,note_on,0,0,3,,,,,,,,,2,,,55,62
312159,note_on,319,0,3,,,,,,,,,2,,,60,0
312159,note_on,319,0,1,,,,,,,,,0,,,83,0
312159,note_on,0,0,2,,,,,,,,,1,,,72,75
312159,note_on,319,0,2,,,,,,,,,1,,,71,0
312480,note_on,0,0,3,,,,,,,,,2,,,62,62
312480,note_on,321,0,3,,,,,,,,,2,,,55,0
312480,note_on,0,0,2,,,,,,,,,1,,,76,75
312480,note_on,321,0,1,,,,,,,,,0,,,84,0
312480,note_on,0,0,1,,,,,,,,,0,,,88,75
312480,note_on,321,0,2,,,,,,,,,1,,,72,0
312800,note_on,320,0,3,,,,,,,,,2,,,62,0
312800,note_on,0,0,3,,,,,,,,,2,,,59,62
312800,note_on,0,0,2,,,,,,,,,1,,,77,75
312800,note_on,320,0,2,,,,,,,,,1,,,76,0
312800,note_on,0,0,1,,,,,,,,,0,,,89,75
312800,note_on,320,0,1,,,,,,,,,0,,,88,0
312960,note_on,960,0,4,,,,,,,,,3,,,43,0
312960,note_on,0,0,4,,,,,,,,,3,,,43,62
313119,note_on,0,0,3,,,,,,,,,2,,,53,62
313119,control_change,0,0,3,,,,,,,,,2,64,0,,
313119,note_on,319,0,3,,,,,,,,,2,,,59,0
313119,note_on,0,0,2,,,,,,,,,1,,,74,75
313119,note_on,0,0,1,,,,,,,,,0,,,86,75
313119,note_on,319,0,2,,,,,,,,,1,,,77,0
313119,control_change,0,0,2,,,,,,,,,1,64,0,,
313119,note_on,319,0,1,,,,,,,,,0,,,89,0
313119,control_change,0,0,1,,,,,,,,,0,64,0,,
313440,note_on,321,0,1,,,,,,,,,0,,,86,0
313440,note_on,0,0,3,,,,,,,,,2,,,52,62
313440,note_on,321,0,3,,,,,,,,,2,,,53,0
313440,note_on,321,0,2,,,,,,,,,1,,,74,0
313440,note_on,0,0,2,,,,,,,,,1,,,72,75
313440,note_on,0,0,1,,,,,,,,,0,,,84,75
313440,note_on,0,0,4,,,,,,,,,3,,,48,62
313440,note_on,480,0,4,,,,,,,,,3,,,43,0
313471,note_on,31,0,1,,,,,,,,,0,,,84,0
313760,control_change,289,0,1,,,,,,,,,0,64,127,,
313760,note_on,0,0,1,,,,,,,,,0,,,72,75
313920,note_on,480,0,3,,,,,,,,,2,,,52,0
313920,note_on,480,0,4,,,,,,,,,3,,,48,0
313920,note_on,0,0,4,,,,,,,,,3,,,48,62
313920,note_on,480,0,2,,,,,,,,,1,,,72,0
314079,note_on,319,0,1,,,,,,,,,0,,,72,0
314079,note_on,0,0,1,,,,,,,,,0,,,74,75
314400,note_on,480,0,2,,,,,,,,,1,,,55,75
314400,note_on,321,0,1,,,,,,,,,0,,,74,0
314400,note_on,0,0,1,,,,,,,,,0,,,76,88
314400,note_on,480,0,3,,,,,,,,,2,,,52,75
314400,note_on,0,0,2,,,,,,,,,1,,,64,75
314720,note_on,320,0,1,,,,,,,,,0,,,76,0
314720,note_on,0,0,1,,,,,,,,,0,,,77,88
314880,note_on,960,0,4,,,,,,,,,3,,,48,0
314880,note_on,0,0,4,,,,,,,,,3,,,45,62
315039,note_on,0,0,1,,,,,,,,,0,,,78,88
315039,control_change,0,0,1,,,,,,,,,0,64,0,,
315039,note_on,319,0,1,,,,,,,,,0,,,77,0
315120,note_on,720,0,2,,,,,,,,,1,,,64,0
315120,note_on,0,0,2,,,,,,,,,1,,,55,0
315120,note_on,0,0,2,,,,,,,,,1,,,60,75
315360,note_on,321,0,1,,,,,,,,,0,,,78,0
315360,note_on,240,0,2,,,,,,,,,1,,,60,0
315360,control_change,0,0,2,,,,,,,,,1,64,127,,
315360,note_on,0,0,2,,,,,,,,,1,,,55,75
315360,note_on,0,0,2,,,,,,,,,1,,,60,75
315360,control_change,0,0,1,,,,,,,,,0,64,127,,
315360,note_on,0,0,1,,,,,,,,,0,,,81,88
315360,note_on,480,0,4,,,,,,,,,3,,,45,0
315360,note_on,0,0,3,,,,,,,,,2,,,53,75
315360,note_on,960,0,3,,,,,,,,,2,,,52,0
315360,note_on,0,0,4,,,,,,,,,3,,,43,62
315680,note_on,320,0,1,,,,,,,,,0,,,81,0
315680,note_on,0,0,1,,,,,,,,,0,,,79,75
315840,note_on,0,0,4,,,,,,,,,3,,,43,62
315840,note_on,480,0,4,,,,,,,,,3,,,43,0
315999,note_on,0,0,1,,,,,,,,,0,,,78,75
315999,note_on,319,0,1,,,,,,,,,0,,,79,0
316320,note_on,960,0,2,,,,,,,,,1,,,60,0
316320,note_on,0,0,2,,,,,,,,,1,,,55,0
316320,note_on,0,0,2,,,,,,,,,1,,,59,75
316320,note_on,321,0,1,,,,,,,,,0,,,78,0
316320,note_on,0,0,1,,,,,,,,,0,,,79,75
316640,note_on,320,0,1,,,,,,,,,0,,,79,0
316640,note_on,0,0,1,,,,,,,,,0,,,91,75
316800,note_on,960,0,4,,,,,,,,,3,,,43,0
316800,control_change,0,0,2,,,,,,,,,1,64,0,,
316800,note_on,0,0,2,,,,,,,,,1,,,57,75
316800,note_on,0,0,2,,,,,,,,,1,,,60,75
316800,note_on,480,0,2,,,,,,,,,1,,,59,0
316800,note_on,0,0,4,,,,,,,,,3,,,43,62
316959,note_on,0,0,1,,,,,,,,,0,,,79,75
316959,note_on,319,0,1,,,,,,,,,0,,,91,0
317280,note_on,0,0,4,,,,,,,,,3,,,43,62
317280,note_on,480,0,4,,,,,,,,,3,,,43,0
317280,note_on,0,0,1,,,,,,,,,0,,,91,75
317280,note_on,321,0,1,,,,,,,,,0,,,79,0
317280,note_on,480,0,2,,,,,,,,,1,,,60,0
317280,note_on,0,0,2,,,,,,,,,1,,,57,0
317280,control_change,0,0,2,,,,,,,,,1,64,127,,
317280,note_on,0,0,2,,,,,,,,,1,,,59,75
317280,note_on,0,0,2,,,,,,,,,1,,,62,75
317600,note_on,320,0,1,,,,,,,,,0,,,91,0
317600,note_on,0,0,1,,,,,,,,,0,,,79,75
317760,note_on,0,0,3,,,,,,,,,2,,,52,75
317760,note_on,0,0,4,,,,,,,,,3,,,43,62
317760,note_on,2400,0,3,,,,,,,,,2,,,53,0
317760,control_change,0,0,3,,,,,,,,,2,64,127,,
317760,note_on,480,0,2,,,,,,,,,1,,,62,0
317760,note_on,0,0,2,,,,,,,,,1,,,64,75
317760,note_on,480,0,4,,,,,,,,,3,,,43,0
317760,note_on,0,0,2,,,,,,,,,1,,,59,0
317760,note_on,0,0,2,,,,,,,,,1,,,55,75
317919,note_on,0,0,1,,,,,,,,,0,,,91,75
317919,note_on,319,0,1,,,,,,,,,0,,,79,0
318240,note_on,0,0,2,,,,,,,,,1,,,55,0
318240,note_on,0,0,2,,,,,,,,,1,,,57,75
318240,note_on,0,0,2,,,,,,,,,1,,,65,75
318240,note_on,0,0,3,,,,,,,,,2,,,50,75
318240,note_on,480,0,3,,,,,,,,,2,,,52,0
318240,note_on,480,0,2,,,,,,,,,1,,,64,0
318240,note_on,0,0,1,,,,,,,,,0,,,79,75
318240,note_on,321,0,1,,,,,,,,,0,,,91,0
318560,note_on,320,0,1,,,,,,,,,0,,,79,0
318560,note_on,0,0,1,,,,,,,,,0,,,91,75
318720,note_on,480,0,3,,,,,,,,,2,,,50,0
318720,note_on,0,0,3,,,,,,,,,2,,,55,75
318720,control_change,0,0,3,,,,,,,,,2,64,0,,
318720,note_on,960,0,4,,,,,,,,,3,,,43,0
318720,note_on,0,0,2,,,,,,,,,1,,,57,0
318720,control_change,0,0,2,,,,,,,,,1,64,0,,
318720,note_on,0,0,2,,,,,,,,,1,,,59,75
318720,note_on,0,0,2,,,,,,,,,1,,,67,75
318720,note_on,480,0,2,,,,,,,,,1,,,65,0
318720,note_on,0,0,4,,,,,,,,,3,,,43,62
318879,note_on,0,0,1,,,,,,,,,0,,,79,75
318879,note_on,319,0,1,,,,,,,,,0,,,91,0
318879,control_change,0,0,1,,,,,,,,,0,64,0,,
319200,note_on,0,0,1,,,,,,,,,0,,,81,75
319200,note_on,0,0,3,,,,,,,,,2,,,55,75
319200,note_on,480,0,3,,,,,,,,,2,,,55,0
319200,note_on,0,0,4,,,,,,,,,3,,,48,62
319200,note_on,480,0,4,,,,,,,,,3,,,43,0
319200,note_on,0,0,2,,,,,,,,,1,,,65,75
319200,note_on,0,0,2,,,,,,,,,1,,,62,75
319200,note_on,0,0,2,,,,,,,,,1,,,59,0
319200,note_on,480,0,2,,,,,,,,,1,,,67,0
319200,note_on,321,0,1,,,,,,,,,0,,,79,0
319200,control_change,0,0,1,,,,,,,,,0,64,127,,
319520,note_on,320,0,1,,,,,,,,,0,,,81,0
319520,note_on,0,0,1,,,,,,,,,0,,,79,75
319680,note_on,0,0,4,,,,,,,,,3,,,48,62
319680,note_on,480,0,4,,,,,,,,,3,,,48,0
319839,note_on,319,0,1,,,,,,,,,0,,,79,0
319839,note_on,0,0,1,,,,,,,,,0,,,78,75
320160,note_on,960,0,2,,,,,,,,,1,,,65,0
320160,note_on,321,0,1,,,,,,,,,0,,,78,0
320160,note_on,0,0,1,,,,,,,,,0,,,79,75
320160,note_on,0,0,2,,,,,,,,,1,,,62,0
320160,note_on,0,0,2,,,,,,,,,1,,,60,75
320160,note_on,0,0,2,,,,,,,,,1,,,64,75
320480,note_on,0,0,1,,,,,,,,,0,,,81,75
320480,note_on,320,0,1,,,,,,,,,0,,,79,0
320640,note_on,0,0,4,,,,,,,,,3,,,48,62
320640,note_on,960,0,4,,,,,,,,,3,,,48,0
320799,note_on,0,0,1,,,,,,,,,0,,,83,75
320799,note_on,319,0,1,,,,,,,,,0,,,81,0
321120,note_on,0,0,1,,,,,,,,,0,,,86,75
321120,note_on,321,0,1,,,,,,,,,0,,,83,0
321120,note_on,480,0,4,,,,,,,,,3,,,48,0
321120,note_on,0,0,4,,,,,,,,,3,,,48,62
321440,note_on,320,0,1,,,,,,,,,0,,,86,0
321440,note_on,0,0,1,,,,,,,,,0,,,84,75
321600,note_on,0,0,4,,,,,,,,,3,,,48,62
321600,note_on,480,0,4,,,,,,,,,3,,,48,0
321759,note_on,0,0,1,,,,,,,,,0,,,83,75
321759,note_on,319,0,1,,,,,,,,,0,,,84,0
322080,note_on,0,0,3,,,,,,,,,2,,,60,75
322080,note_on,2880,0,3,,,,,,,,,2,,,55,0
322080,note_on,0,0,1,,,,,,,,,0,,,84,75
322080,note_on,321,0,1,,,,,,,,,0,,,83,0
322080,note_on,0,0,2,,,,,,,,,1,,,76,75
322080,note_on,1920,0,2,,,,,,,,,1,,,64,0
322080,note_on,0,0,2,,,,,,,,,1,,,60,0
322080,note_on,0,0,2,,,,,,,,,1,,,67,75
322400,note_on,320,0,1,,,,,,,,,0,,,84,0
322400,note_on,0,0,1,,,,,,,,,0,,,76,75
322560,note_on,0,0,4,,,,,,,,,3,,,45,62
322560,note_on,480,0,3,,,,,,,,,2,,,60,0
322560,note_on,960,0,4,,,,,,,,,3,,,48,0
322560,note_on,0,0,3,,,,,,,,,2,,,64,75
322719,note_on,319,0,1,,,,,,,,,0,,,76,0
322719,control_change,0,0,1,,,,,,,,,0,64,0,,
322719,note_on,0,0,1,,,,,,,,,0,,,78,75
322800,note_on,720,0,2,,,,,,,,,1,,,76,0
322800,note_on,0,0,2,,,,,,,,,1,,,72,75
322800,note_on,0,0,2,,,,,,,,,1,,,67,0
323040,note_on,0,0,3,,,,,,,,,2,,,65,75
323040,control_change,0,0,2,,,,,,,,,1,64,127,,
323040,note_on,0,0,1,,,,,,,,,0,,,81,75
323040,note_on,240,0,2,,,,,,,,,1,,,72,0
323040,note_on,480,0,4,,,,,,,,,3,,,45,0
323040,note_on,0,0,4,,,,,,,,,3,,,43,62
323040,control_change,0,0,1,,,,,,,,,0,64,127,,
323040,note_on,480,0,3,,,,,,,,,2,,,64,0
323040,note_on,321,0,1,,,,,,,,,0,,,78,0
323040,note_on,0,0,2,,,,,,,,,1,,,67,75
323040,note_on,0,0,2,,,,,,,,,1,,,72,75
323360,note_on,320,0,1,,,,,,,,,0,,,81,0
323360,note_on,0,0,1,,,,,,,,,0,,,79,75
323520,note_on,0,0,4,,,,,,,,,3,,,43,62
323520,note_on,480,0,4,,,,,,,,,3,,,43,0
323679,note_on,0,0,1,,,,,,,,,0,,,78,75
323679,note_on,319,0,1,,,,,,,,,0,,,79,0
324000,note_on,960,0,2,,,,,,,,,1,,,72,0
324000,note_on,0,0,2,,,,,,,,,1,,,67,75
324000,note_on,0,0,2,,,,,,,,,1,,,71,75
324000,note_on,0,0,1,,,,,,,,,0,,,79,75
324000,note_on,321,0,1,,,,,,,,,0,,,78,0
324000,note_on,0,0,2,,,,,,,,,1,,,67,0
324320,note_on,0,0,1,,,,,,,,,0,,,91,75
324320,note_on,320,0,1,,,,,,,,,0,,,79,0
324480,note_on,480,0,2,,,,,,,,,1,,,71,0
324480,note_on,0,0,4,,,,,,,,,3,,,43,62
324480,note_on,960,0,4,,,,,,,,,3,,,43,0
324480,note_on,0,0,2,,,,,,,,,1,,,67,0
324480,control_change,0,0,2,,,,,,,,,1,64,0,,
324480,note_on,0,0,2,,,,,,,,,1,,,69,75
324480,note_on,0,0,2,,,,,,,,,1,,,72,75
324639,note_on,319,0,1,,,,,,,,,0,,,91,0
324639,note_on,0,0,1,,,,,,,,,0,,,79,75
324960,note_on,321,0,1,,,,,,,,,0,,,79,0
324960,control_change,0,0,2,,,,,,,,,1,64,127,,
324960,note_on,0,0,2,,,,,,,,,1,,,74,75
324960,note_on,0,0,2,,,,,,,,,1,,,69,0
324960,note_on,480,0,2,,,,,,,,,1,,,72,0
324960,note_on,0,0,1,,,,,,,,,0,,,91,75
324960,control_change,1920,0,3,,,,,,,,,2,64,127,,
324960,note_on,0,0,4,,,,,,,,,3,,,43,62
324960,note_on,480,0,4,,,,,,,,,3,,,43,0
324960,note_on,0,0,2,,,,,,,,,1,,,71,75
325280,note_on,0,0,1,,,,,,,,,0,,,79,75
325280,note_on,320,0,1,,,,,,,,,0,,,91,0
325440,note_on,0,0,4,,,,,,,,,3,,,43,62
325440,note_on,480,0,4,,,,,,,,,3,,,43,0
325440,note_on,480,0,3,,,,,,,,,2,,,65,0
325440,note_on,0,0,2,,,,,,,,,1,,,76,75
325440,note_on,0,0,2,,,,,,,,,1,,,67,75
325440,note_on,0,0,2,,,,,,,,,1,,,71,0
325440,note_on,480,0,2,,,,,,,,,1,,,74,0
325440,note_on,0,0,3,,,,,,,,,2,,,64,75
325599,note_on,319,0,1,,,,,,,,,0,,,79,0
325599,note_on,0,0,1,,,,,,,,,0,,,91,75
325920,note_on,0,0,2,,,,,,,,,1,,,67,0
325920,note_on,480,0,2,,,,,,,,,1,,,76,0
325920,note_on,480,0,3,,,,,,,,,2,,,64,0
325920,note_on,0,0,1,,,,,,,,,0,,,79,75
325920,note_on,0,0,2,,,,,,,,,1,,,77,75
325920,note_on,0,0,3,,,,,,,,,2,,,62,75
325920,note_on,321,0,1,,,,,,,,,0,,,91,0
325920,note_on,0,0,2,,,,,,,,,1,,,69,75
326240,note_on,0,0,1,,,,,,,,,0,,,91,75
326240,note_on,320,0,1,,,,,,,,,0,,,79,0
326400,note_on,960,0,4,,,,,,,,,3,,,43,0
326400,note_on,480,0,3,,,,,,,,,2,,,62,0
326400,note_on,480,0,2,,,,,,,,,1,,,77,0
326400,note_on,0,0,3,,,,,,,,,2,,,67,75
326400,note_on,0,0,2,,,,,,,,,1,,,69,0
326400,control_change,0,0,2,,,,,,,,,1,64,0,,
326400,note_on,0,0,2,,,,,,,,,1,,,71,75
326400,note_on,0,0,2,,,,,,,,,1,,,79,75
326400,control_change,0,0,3,,,,,,,,,2,64,0,,
326400,note_on,0,0,4,,,,,,,,,3,,,43,62
326559,note_on,319,0,1,,,,,,,,,0,,,91,0
326559,control_change,0,0,1,,,,,,,,,0,64,0,,
326559,note_on,0,0,1,,,,,,,,,0,,,79,75
326880,note_on,0,0,4,,,,,,,,,3,,,48,62
326880,note_on,0,0,4,,,,,,,,,3,,,36,62
326880,note_on,0,0,2,,,,,,,,,1,,,74,75
326880,note_on,480,0,2,,,,,,,,,1,,,79,0
326880,note_on,0,0,2,,,,,,,,,1,,,77,75
326880,note_on,0,0,2,,,,,,,,,1,,,71,0
326880,note_on,480,0,4,,,,,,,,,3,,,43,0
326880,control_change,0,0,1,,,,,,,,,0,64,127,,
326880,note_on,0,0,3,,,,,,,,,2,,,67,75
326880,note_on,321,0,1,,,,,,,,,0,,,79,0
326880,note_on,480,0,3,,,,,,,,,2,,,67,0
326880,note_on,0,0,1,,,,,,,,,0,,,81,75
327200,note_on,0,0,1,,,,,,,,,0,,,79,75
327200,note_on,320,0,1,,,,,,,,,0,,,81,0
327360,note_on,480,0,4,,,,,,,,,3,,,48,0
327360,note_on,0,0,4,,,,,,,,,3,,,36,0
327360,note_on,0,0,4,,,,,,,,,3,,,36,62
327360,note_on,0,0,4,,,,,,,,,3,,,48,62
327519,note_on,319,0,1,,,,,,,,,0,,,79,0
327519,note_on,0,0,1,,,,,,,,,0,,,78,75
327840,note_on,0,0,2,,,,,,,,,1,,,72,75
327840,note_on,321,0,1,,,,,,,,,0,,,78,0
327840,note_on,0,0,1,,,,,,,,,0,,,79,75
327840,note_on,0,0,2,,,,,,,,,1,,,76,75
327840,note_on,0,0,2,,,,,,,,,1,,,74,0
327840,note_on,960,0,2,,,,,,,,,1,,,77,0
328160,note_on,320,0,1,,,,,,,,,0,,,79,0
328160,note_on,0,0,1,,,,,,,,,0,,,81,75
328320,note_on,0,0,4,,,,,,,,,3,,,48,62
328320,note_on,0,0,4,,,,,,,,,3,,,36,62
328320,note_on,960,0,4,,,,,,,,,3,,,48,0
328320,note_on,0,0,4,,,,,,,,,3,,,36,0
328479,note_on,319,0,1,,,,,,,,,0,,,81,0
328479,note_on,0,0,1,,,,,,,,,0,,,83,75
328800,note_on,321,0,1,,,,,,,,,0,,,83,0
328800,note_on,0,0,4,,,,,,,,,3,,,48,62
328800,note_on,0,0,4,,,,,,,,,3,,,36,62
328800,note_on,0,0,4,,,,,,,,,3,,,36,0
328800,note_on,480,0,4,,,,,,,,,3,,,48,0
328800,note_on,0,0,1,,,,,,,,,0,,,86,75
328800,note_on,960,0,2,,,,,,,,,1,,,76,0
328800,note_on,0,0,2,,,,,,,,,1,,,72,0
328800,note_on,0,0,2,,,,,,,,,1,,,72,75
328800,note_on,0,0,2,,,,,,,,,1,,,76,75
329120,note_on,320,0,1,,,,,,,,,0,,,86,0
329120,note_on,0,0,1,,,,,,,,,0,,,84,75
329280,note_on,0,0,4,,,,,,,,,3,,,48,62
329280,note_on,480,0,4,,,,,,,,,3,,,48,0
329280,note_on,0,0,4,,,,,,,,,3,,,36,0
329280,note_on,0,0,4,,,,,,,,,3,,,36,62
329439,note_on,0,0,1,,,,,,,,,0,,,83,75
329439,note_on,319,0,1,,,,,,,,,0,,,84,0
329760,note_on,321,0,1,,,,,,,,,0,,,83,0
329760,note_on,0,0,1,,,,,,,,,0,,,84,75
330080,note_on,0,0,1,,,,,,,,,0,,,96,75
330080,note_on,320,0,1,,,,,,,,,0,,,84,0
330240,note_on,960,0,4,,,,,,,,,3,,,48,0
330240,note_on,0,0,4,,,,,,,,,3,,,48,62
330240,note_on,0,0,4,,,,,,,,,3,,,36,0
330240,note_on,0,0,4,,,,,,,,,3,,,36,62
330399,note_on,319,0,1,,,,,,,,,0,,,96,0
330399,note_on,0,0,1,,,,,,,,,0,,,91,75
330399,control_change,0,0,1,,,,,,,,,0,64,0,,
330720,note_on,0,0,1,,,,,,,,,0,,,93,62
330720,control_change,0,0,1,,,,,,,,,0,64,127,,
330720,note_on,321,0,1,,,,,,,,,0,,,91,0
330720,note_on,0,0,4,,,,,,,,,3,,,36,62
330720,note_on,0,0,3,,,,,,,,,2,,,48,62
330720,note_on,0,0,4,,,,,,,,,3,,,36,0
330720,note_on,3840,0,3,,,,,,,,,2,,,67,0
330720,note_on,480,0,4,,,,,,,,,3,,,48,0
331040,note_on,0,0,1,,,,,,,,,0,,,91,62
331040,note_on,320,0,1,,,,,,,,,0,,,93,0
331200,note_on,480,0,3,,,,,,,,,2,,,48,0
331200,note_on,0,0,3,,,,,,,,,2,,,48,62
331200,note_on,480,0,4,,,,,,,,,3,,,36,0
331200,note_on,0,0,4,,,,,,,,,3,,,36,62
331359,note_on,0,0,1,,,,,,,,,0,,,90,62
331359,note_on,319,0,1,,,,,,,,,0,,,91,0
331680,note_on,0,0,1,,,,,,,,,0,,,91,62
331680,note_on,321,0,1,,,,,,,,,0,,,90,0
331680,note_on,0,0,2,,,,,,,,,1,,,60,75
331680,set_tempo,39360,1,0,,,,,,312500,,,,,,,
331680,note_on,2880,0,2,,,,,,,,,1,,,76,0
331680,note_on,0,0,2,,,,,,,,,1,,,64,75
331680,note_on,0,0,2,,,,,,,,,1,,,72,0
331776,note_on,96,0,2,,,,,,,,,1,,,64,0
331776,note_on,0,0,2,,,,,,,,,1,,,60,0
332000,note_on,0,0,1,,,,,,,,,0,,,96,62
332000,note_on,320,0,1,,,,,,,,,0,,,91,0
332160,note_on,0,0,4,,,,,,,,,3,,,36,62
332160,note_on,960,0,4,,,,,,,,,3,,,36,0
332160,note_on,0,0,3,,,,,,,,,2,,,48,62
332160,note_on,960,0,3,,,,,,,,,2,,,48,0
332319,note_on,319,0,1,,,,,,,,,0,,,96,0
332319,note_on,0,0,1,,,,,,,,,0,,,91,62
332640,note_on,0,0,4,,,,,,,,,3,,,36,62
332640,note_on,864,0,2,,,,,,,,,1,,,59,75
332640,note_on,0,0,2,,,,,,,,,1,,,64,75
332640,note_on,480,0,4,,,,,,,,,3,,,36,0
332640,note_on,0,0,1,,,,,,,,,0,,,93,62
332640,note_on,480,0,3,,,,,,,,,2,,,48,0
332640,note_on,0,0,3,,,,,,,,,2,,,48,62
332640,note_on,321,0,1,,,,,,,,,0,,,91,0
332736,note_on,0,0,2,,,,,,,,,1,,,59,0
332736,note_on,96,0,2,,,,,,,,,1,,,64,0
332960,note_on,0,0,1,,,,,,,,,0,,,91,62
332960,note_on,320,0,1,,,,,,,,,0,,,93,0
333120,note_on,480,0,4,,,,,,,,,3,,,36,0
333120,note_on,480,0,3,,,,,,,,,2,,,48,0
333120,note_on,0,0,4,,,,,,,,,3,,,36,62
333120,note_on,0,0,3,,,,,,,,,2,,,48,62
333279,note_on,319,0,1,,,,,,,,,0,,,91,0
333279,note_on,0,0,1,,,,,,,,,0,,,90,62
333600,note_on,321,0,1,,,,,,,,,0,,,90,0
333600,note_on,0,0,2,,,,,,,,,1,,,64,75
333600,note_on,864,0,2,,,,,,,,,1,,,58,75
333600,note_on,0,0,1,,,,,,,,,0,,,91,62
333696,note_on,96,0,2,,,,,,,,,1,,,64,0
333696,note_on,0,0,2,,,,,,,,,1,,,58,0
333920,note_on,320,0,1,,,,,,,,,0,,,91,0
333920,note_on,0,0,1,,,,,,,,,0,,,93,62
334080,note_on,960,0,3,,,,,,,,,2,,,48,0
334080,note_on,0,0,3,,,,,,,,,2,,,48,62
334080,note_on,0,0,4,,,,,,,,,3,,,36,62
334080,note_on,960,0,4,,,,,,,,,3,,,36,0
334239,note_on,319,0,1,,,,,,,,,0,,,93,0
334239,note_on,0,0,1,,,,,,,,,0,,,92,62
334239,control_change,0,0,1,,,,,,,,,0,64,0,,
334560,note_on,864,0,2,,,,,,,,,1,,,57,75
334560,note_on,0,0,4,,,,,,,,,3,,,37,62
334560,note_on,480,0,4,,,,,,,,,3,,,36,0
334560,note_on,0,0,2,,,,,,,,,1,,,64,75
334560,note_on,480,0,3,,,,,,,,,2,,,48,0
334560,note_on,0,0,3,,,,,,,,,2,,,49,62
334560,note_on,0,0,1,,,,,,,,,0,,,94,62
334560,control_change,0,0,1,,,,,,,,,0,64,127,,
334560,note_on,321,0,1,,,,,,,,,0,,,92,0
334560,set_tempo,2880,1,0,,,,,,270270,,,,,,,
334880,note_on,320,0,1,,,,,,,,,0,,,94,0
334880,note_on,0,0,1,,,,,,,,,0,,,93,62
335040,note_on,0,0,3,,,,,,,,,2,,,49,62
335040,note_on,480,0,3,,,,,,,,,2,,,49,0
335040,note_on,0,0,4,,,,,,,,,3,,,37,62
335040,note_on,480,0,4,,,,,,,,,3,,,37,0
335199,note_on,319,0,1,,,,,,,,,0,,,93,0
335199,note_on,0,0,1,,,,,,,,,0,,,92,62
335520,note_on,321,0,1,,,,,,,,,0,,,92,0
335520,note_on,0,0,1,,,,,,,,,0,,,93,62
335840,note_on,320,0,1,,,,,,,,,0,,,93,0
335840,note_on,0,0,1,,,,,,,,,0,,,94,62
336000,note_on,960,0,3,,,,,,,,,2,,,49,0
336000,note_on,0,0,4,,,,,,,,,3,,,37,62
336000,note_on,960,0,4,,,,,,,,,3,,,37,0
336000,note_on,0,0,3,,,,,,,,,2,,,49,62
336159,note_on,319,0,1,,,,,,,,,0,,,94,0
336159,note_on,0,0,1,,,,,,,,,0,,,93,62
336480,note_on,1920,0,2,,,,,,,,,1,,,64,0
336480,note_on,0,0,2,,,,,,,,,1,,,57,0
336480,note_on,480,0,3,,,,,,,,,2,,,49,0
336480,note_on,0,0,3,,,,,,,,,2,,,50,62
336480,control_change,0,0,2,,,,,,,,,1,64,127,,
336480,note_on,0,0,2,,,,,,,,,1,,,65,75
336480,note_on,0,0,2,,,,,,,,,1,,,57,75
336480,note_on,0,0,1,,,,,,,,,0,,,93,62
336480,note_on,0,0,4,,,,,,,,,3,,,38,62
336480,note_on,480,0,4,,,,,,,,,3,,,37,0
336480,note_on,321,0,1,,,,,,,,,0,,,93,0
336800,note_on,320,0,1,,,,,,,,,0,,,93,0
336800,note_on,0,0,1,,,,,,,,,0,,,96,62
336960,note_on,0,0,4,,,,,,,,,3,,,38,62
336960,note_on,0,0,3,,,,,,,,,2,,,50,62
336960,note_on,480,0,3,,,,,,,,,2,,,50,0
336960,note_on,480,0,4,,,,,,,,,3,,,38,0
337119,note_on,0,0,1,,,,,,,,,0,,,95,62
337119,note_on,319,0,1,,,,,,,,,0,,,96,0
337440,note_on,960,0,2,,,,,,,,,1,,,65,0
337440,note_on,0,0,2,,,,,,,,,1,,,57,0
337440,note_on,0,0,2,,,,,,,,,1,,,59,75
337440,note_on,321,0,1,,,,,,,,,0,,,95,0
337440,note_on,0,0,1,,,,,,,,,0,,,98,62
337760,note_on,320,0,1,,,,,,,,,0,,,98,0
337760,note_on,0,0,1,,,,,,,,,0,,,96,62
337920,control_change,0,0,2,,,,,,,,,1,64,0,,
337920,note_on,480,0,2,,,,,,,,,1,,,59,0
337920,note_on,960,0,4,,,,,,,,,3,,,38,0
337920,note_on,0,0,4,,,,,,,,,3,,,38,62
337920,note_on,0,0,2,,,,,,,,,1,,,60,75
337920,note_on,960,0,3,,,,,,,,,2,,,50,0
337920,note_on,0,0,3,,,,,,,,,2,,,50,62
338079,note_on,319,0,1,,,,,,,,,0,,,96,0
338079,control_change,0,0,1,,,,,,,,,0,64,0,,
338079,note_on,0,0,1,,,,,,,,,0,,,93,62
338400,note_on,0,0,4,,,,,,,,,3,,,40,62
338400,note_on,0,0,3,,,,,,,,,2,,,52,62
338400,note_on,480,0,4,,,,,,,,,3,,,38,0
338400,note_on,480,0,2,,,,,,,,,1,,,60,0
338400,note_on,0,0,2,,,,,,,,,1,,,60,75
338400,note_on,0,0,2,,,,,,,,,1,,,64,75
338400,note_on,321,0,1,,,,,,,,,0,,,93,0
338400,control_change,0,0,1,,,,,,,,,0,64,127,,
338400,note_on,480,0,3,,,,,,,,,2,,,50,0
338400,note_on,0,0,1,,,,,,,,,0,,,93,62
338720,note_on,0,0,1,,,,,,,,,0,,,91,62
338720,note_on,320,0,1,,,,,,,,,0,,,93,0
338880,note_on,0,0,4,,,,,,,,,3,,,40,62
338880,note_on,0,0,3,,,,,,,,,2,,,52,62
338880,note_on,480,0,4,,,,,,,,,3,,,40,0
338880,note_on,480,0,3,,,,,,,,,2,,,52,0
339039,note_on,319,0,1,,,,,,,,,0,,,91,0
339039,note_on,0,0,1,,,,,,,,,0,,,90,62
339360,note_on,0,0,3,,,,,,,,,2,,,53,62
339360,note_on,480,0,3,,,,,,,,,2,,,52,0
339360,note_on,0,0,1,,,,,,,,,0,,,93,62
339360,note_on,480,0,4,,,,,,,,,3,,,40,0
339360,note_on,0,0,4,,,,,,,,,3,,,41,62
339360,note_on,321,0,1,,,,,,,,,0,,,90,0
339680,control_change,0,0,1,,,,,,,,,0,64,0,,
339680,note_on,320,0,1,,,,,,,,,0,,,93,0
339680,note_on,0,0,1,,,,,,,,,0,,,91,62
339840,note_on,0,0,3,,,,,,,,,2,,,55,62
339840,note_on,480,0,4,,,,,,,,,3,,,41,0
339840,note_on,0,0,4,,,,,,,,,3,,,43,62
339840,note_on,480,0,3,,,,,,,,,2,,,53,0
339999,note_on,319,0,1,,,,,,,,,0,,,91,0
339999,note_on,0,0,1,,,,,,,,,0,,,88,62
340031,note_on,32,0,1,,,,,,,,,0,,,88,0
340320,note_on,1920,0,2,,,,,,,,,1,,,64,0
340320,note_on,0,0,2,,,,,,,,,1,,,60,0
340320,note_on,289,0,1,,,,,,,,,0,,,86,62
340320,note_on,0,0,2,,,,,,,,,1,,,62,75
340320,note_on,0,0,3,,,,,,,,,2,,,55,62
340320,note_on,480,0,3,,,,,,,,,2,,,55,0
340320,note_on,480,0,4,,,,,,,,,3,,,43,0
340320,note_on,0,0,4,,,,,,,,,3,,,43,62
340320,note_on,0,0,2,,,,,,,,,1,,,60,75
340351,note_on,31,0,1,,,,,,,,,0,,,86,0
340640,note_on,289,0,1,,,,,,,,,0,,,84,62
340672,note_on,32,0,1,,,,,,,,,0,,,84,0
340800,note_on,0,0,3,,,,,,,,,2,,,55,62
340800,note_on,480,0,3,,,,,,,,,2,,,55,0
340800,note_on,480,0,4,,,,,,,,,3,,,43,0
340800,note_on,0,0,4,,,,,,,,,3,,,43,62
340959,note_on,287,0,1,,,,,,,,,0,,,83,62
340991,note_on,32,0,1,,,,,,,,,0,,,83,0
341280,note_on,960,0,2,,,,,,,,,1,,,62,0
341280,note_on,0,0,2,,,,,,,,,1,,,60,0
341280,note_on,0,0,2,,,,,,,,,1,,,59,75
341280,note_on,289,0,1,,,,,,,,,0,,,81,62
341311,note_on,31,0,1,,,,,,,,,0,,,81,0
341600,note_on,289,0,1,,,,,,,,,0,,,79,62
341632,note_on,32,0,1,,,,,,,,,0,,,79,0
341760,note_on,960,0,4,,,,,,,,,3,,,43,0
341760,note_on,960,0,3,,,,,,,,,2,,,55,0
341760,note_on,0,0,3,,,,,,,,,2,,,55,62
341760,note_on,0,0,4,,,,,,,,,3,,,43,62
341919,note_on,287,0,1,,,,,,,,,0,,,77,62
341951,note_on,32,0,1,,,,,,,,,0,,,77,0
342240,note_on,960,0,2,,,,,,,,,1,,,59,0
342240,note_on,480,0,3,,,,,,,,,2,,,55,0
342240,note_on,0,0,3,,,,,,,,,2,,,48,62
342240,note_on,480,0,4,,,,,,,,,3,,,43,0
342240,note_on,0,0,2,,,,,,,,,1,,,60,75
342240,note_on,0,0,4,,,,,,,,,3,,,36,62
342240,note_on,289,0,1,,,,,,,,,0,,,76,62
342271,note_on,31,0,1,,,,,,,,,0,,,76,0
342560,note_on,289,0,1,,,,,,,,,0,,,74,62
342592,note_on,32,0,1,,,,,,,,,0,,,74,0
342879,note_on,287,0,1,,,,,,,,,0,,,72,62
342911,note_on,32,0,1,,,,,,,,,0,,,72,0
343200,note_on,289,0,1,,,,,,,,,0,,,71,62
343231,note_on,31,0,1,,,,,,,,,0,,,71,0
343520,note_on,289,0,1,,,,,,,,,0,,,69,62
343552,note_on,32,0,1,,,,,,,,,0,,,69,0
343839,note_on,287,0,1,,,,,,,,,0,,,67,62
343871,note_on,32,0,1,,,,,,,,,0,,,67,0
344160,note_on,0,0,2,,,,,,,,,1,,,60,75
344160,note_on,289,0,1,,,,,,,,,0,,,65,75
344160,note_on,1920,0,2,,,,,,,,,1,,,60,0
344191,note_on,31,0,1,,,,,,,,,0,,,65,0
344480,note_on,289,0,1,,,,,,,,,0,,,64,75
344512,note_on,32,0,1,,,,,,,,,0,,,64,0
344640,note_on,2400,0,3,,,,,,,,,2,,,48,0
344640,note_on,2400,0,4,,,,,,,,,3,,,36,0
344640,note_on,480,0,2,,,,,,,,,1,,,60,0
344799,note_on,287,0,1,,,,,,,,,0,,,62,75
344831,note_on,32,0,1,,,,,,,,,0,,,62,0
345120,note_on,480,0,2,,,,,,,,,1,,,72,75
345120,note_on,480,0,3,,,,,,,,,2,,,60,75
345151,note_on,31,0,2,,,,,,,,,1,,,72,0
345151,note_on,31,0,3,,,,,,,,,2,,,60,0
345440,note_on,289,0,3,,,,,,,,,2,,,59,75
345440,note_on,289,0,2,,,,,,,,,1,,,71,75
345472,note_on,32,0,2,,,,,,,,,1,,,71,0
345472,note_on,32,0,3,,,,,,,,,2,,,59,0
345759,note_on,287,0,3,,,,,,,,,2,,,57,75
345759,note_on,287,0,2,,,,,,,,,1,,,69,75
345791,note_on,32,0,2,,,,,,,,,1,,,69,0
345791,note_on,32,0,3,,,,,,,,,2,,,57,0
346080,note_on,289,0,3,,,,,,,,,2,,,55,75
346080,note_on,289,0,2,,,,,,,,,1,,,67,88
346111,note_on,31,0,2,,,,,,,,,1,,,67,0
346111,note_on,31,0,3,,,,,,,,,2,,,55,0
346400,note_on,289,0,2,,,,,,,,,1,,,65,88
346400,note_on,289,0,3,,,,,,,,,2,,,53,88
346432,note_on,32,0,2,,,,,,,,,1,,,65,0
346432,note_on,32,0,3,,,,,,,,,2,,,53,0
346719,note_on,287,0,2,,,,,,,,,1,,,64,88
346719,note_on,287,0,3,,,,,,,,,2,,,52,88
346719,note_on,1888,0,1,,,,,,,,,0,,,76,88
346719,note_on,0,0,1,,,,,,,,,0,,,88,88
346751,note_on,32,0,2,,,,,,,,,1,,,64,0
346751,note_on,32,0,3,,,,,,,,,2,,,52,0
347040,note_on,321,0,1,,,,,,,,,0,,,88,0
347040,note_on,0,0,1,,,,,,,,,0,,,76,0
347040,note_on,0,0,1,,,,,,,,,0,,,74,88
347040,note_on,0,0,1,,,,,,,,,0,,,86,88
347040,note_on,289,0,3,,,,,,,,,2,,,50,88
347040,note_on,289,0,2,,,,,,,,,1,,,62,88
347071,note_on,31,0,2,,,,,,,,,1,,,62,0
347071,note_on,31,0,3,,,,,,,,,2,,,50,0
347360,note_on,0,0,1,,,,,,,,,0,,,84,88
347360,note_on,289,0,3,,,,,,,,,2,,,48,88
347360,note_on,0,0,1,,,,,,,,,0,,,72,88
347360,note_on,0,0,1,,,,,,,,,0,,,74,0
347360,note_on,289,0,2,,,,,,,,,1,,,60,88
347360,note_on,320,0,1,,,,,,,,,0,,,86,0
347392,note_on,32,0,3,,,,,,,,,2,,,48,0
347392,note_on,32,0,2,,,,,,,,,1,,,60,0
347679,note_on,0,0,1,,,,,,,,,0,,,72,0
347679,note_on,0,0,1,,,,,,,,,0,,,83,88
347679,note_on,287,0,3,,,,,,,,,2,,,47,88
347679,note_on,287,0,2,,,,,,,,,1,,,59,88
347679,note_on,319,0,1,,,,,,,,,0,,,84,0
347679,note_on,0,0,1,,,,,,,,,0,,,71,88
347711,note_on,32,0,3,,,,,,,,,2,,,47,0
347711,note_on,32,0,2,,,,,,,,,1,,,59,0
348000,note_on,289,0,2,,,,,,,,,1,,,69,88
348000,note_on,3360,0,4,,,,,,,,,3,,,45,88
348000,note_on,289,0,3,,,,,,,,,2,,,57,88
348000,note_on,321,0,1,,,,,,,,,0,,,83,0
348000,note_on,0,0,1,,,,,,,,,0,,,71,0
348000,note_on,0,0,1,,,,,,,,,0,,,81,88
348320,note_on,0,0,3,,,,,,,,,2,,,55,88
348320,note_on,320,0,3,,,,,,,,,2,,,57,0
348320,note_on,320,0,1,,,,,,,,,0,,,81,0
348320,note_on,0,0,1,,,,,,,,,0,,,79,88
348320,note_on,320,0,2,,,,,,,,,1,,,69,0
348320,note_on,0,0,2,,,,,,,,,1,,,67,88
348320,note_on,0,0,4,,,,,,,,,3,,,43,88
348320,note_on,320,0,4,,,,,,,,,3,,,45,0
348639,note_on,0,0,2,,,,,,,,,1,,,65,88
348639,note_on,0,0,3,,,,,,,,,2,,,53,88
348639,note_on,319,0,3,,,,,,,,,2,,,55,0
348639,note_on,319,0,2,,,,,,,,,1,,,67,0
348639,note_on,319,0,4,,,,,,,,,3,,,43,0
348639,note_on,319,0,1,,,,,,,,,0,,,79,0
348639,note_on,0,0,1,,,,,,,,,0,,,77,88
348639,note_on,0,0,4,,,,,,,,,3,,,41,88
348960,note_on,321,0,1,,,,,,,,,0,,,77,0
348960,note_on,0,0,1,,,,,,,,,0,,,76,88
348960,note_on,0,0,4,,,,,,,,,3,,,40,88
348960,note_on,321,0,4,,,,,,,,,3,,,41,0
348960,note_on,0,0,3,,,,,,,,,2,,,52,88
348960,note_on,321,0,2,,,,,,,,,1,,,65,0
348960,note_on,321,0,3,,,,,,,,,2,,,53,0
348960,note_on,0,0,2,,,,,,,,,1,,,64,88
349280,note_on,320,0,4,,,,,,,,,3,,,40,0
349280,note_on,0,0,4,,,,,,,,,3,,,38,88
349280,note_on,320,0,3,,,,,,,,,2,,,52,0
349280,note_on,0,0,2,,,,,,,,,1,,,62,88
349280,note_on,320,0,2,,,,,,,,,1,,,64,0
349280,note_on,320,0,1,,,,,,,,,0,,,76,0
349280,note_on,0,0,1,,,,,,,,,0,,,74,88
349280,note_on,0,0,3,,,,,,,,,2,,,50,88
349599,note_on,0,0,1,,,,,,,,,0,,,72,88
349599,note_on,0,0,2,,,,,,,,,1,,,60,88
349599,note_on,319,0,2,,,,,,,,,1,,,62,0
349599,note_on,319,0,3,,,,,,,,,2,,,50,0
349599,note_on,319,0,4,,,,,,,,,3,,,38,0
349599,note_on,0,0,4,,,,,,,,,3,,,36,88
349599,note_on,0,0,3,,,,,,,,,2,,,48,88
349599,note_on,319,0,1,,,,,,,,,0,,,74,0
349920,note_on,321,0,4,,,,,,,,,3,,,36,0
349920,note_on,0,0,4,,,,,,,,,3,,,35,88
349920,note_on,321,0,1,,,,,,,,,0,,,72,0
349920,note_on,0,0,2,,,,,,,,,1,,,71,88
349920,note_on,0,0,1,,,,,,,,,0,,,78,88
349920,note_on,321,0,2,,,,,,,,,1,,,60,0
349920,note_on,0,0,3,,,,,,,,,2,,,47,88
349920,note_on,321,0,3,,,,,,,,,2,,,48,0
349920,note_on,0,0,1,,,,,,,,,0,,,75,88
349951,note_on,31,0,3,,,,,,,,,2,,,47,0
349951,note_on,31,0,4,,,,,,,,,3,,,35,0
350240,note_on,289,0,3,,,,,,,,,2,,,66,88
350240,note_on,289,0,4,,,,,,,,,3,,,54,88
350272,note_on,32,0,3,,,,,,,,,2,,,66,0
350272,note_on,32,0,4,,,,,,,,,3,,,54,0
350559,note_on,287,0,4,,,,,,,,,3,,,52,88
350559,note_on,287,0,3,,,,,,,,,2,,,64,88
350591,note_on,32,0,4,,,,,,,,,3,,,52,0
350591,note_on,32,0,3,,,,,,,,,2,,,64,0
350880,note_on,289,0,4,,,,,,,,,3,,,51,88
350880,note_on,289,0,3,,,,,,,,,2,,,63,88
350911,note_on,31,0,3,,,,,,,,,2,,,63,0
350911,note_on,31,0,4,,,,,,,,,3,,,51,0
351200,note_on,289,0,4,,,,,,,,,3,,,49,88
351200,note_on,289,0,3,,,,,,,,,2,,,61,88
351232,note_on,32,0,4,,,,,,,,,3,,,49,0
351232,note_on,32,0,3,,,,,,,,,2,,,61,0
351360,note_on,1440,0,1,,,,,,,,,0,,,78,0
351360,note_on,0,0,1,,,,,,,,,0,,,75,0
351360,note_on,0,0,1,,,,,,,,,0,,,75,88
351360,note_on,0,0,1,,,,,,,,,0,,,83,88
351360,note_on,1440,0,2,,,,,,,,,1,,,71,0
351360,note_on,0,0,2,,,,,,,,,1,,,71,88
351519,note_on,287,0,3,,,,,,,,,2,,,59,88
351519,note_on,287,0,4,,,,,,,,,3,,,47,88
351551,note_on,32,0,4,,,,,,,,,3,,,47,0
351551,note_on,32,0,3,,,,,,,,,2,,,59,0
351600,note_on,0,0,1,,,,,,,,,0,,,83,88
351600,note_on,0,0,1,,,,,,,,,0,,,75,88
351600,note_on,0,0,1,,,,,,,,,0,,,75,0
351600,note_on,240,0,1,,,,,,,,,0,,,83,0
351600,note_on,240,0,2,,,,,,,,,1,,,71,0
351600,note_on,0,0,2,,,,,,,,,1,,,71,88
351840,note_on,0,0,1,,,,,,,,,0,,,75,88
351840,note_on,240,0,2,,,,,,,,,1,,,71,0
351840,note_on,0,0,2,,,,,,,,,1,,,71,88
351840,note_on,289,0,3,,,,,,,,,2,,,57,88
351840,note_on,240,0,1,,,,,,,,,0,,,83,0
351840,note_on,0,0,1,,,,,,,,,0,,,83,88
351840,note_on,289,0,4,,,,,,,,,3,,,45,88
351840,note_on,0,0,1,,,,,,,,,0,,,75,0
352160,note_on,320,0,4,,,,,,,,,3,,,45,0
352160,note_on,0,0,4,,,,,,,,,3,,,43,88
352160,note_on,320,0,3,,,,,,,,,2,,,57,0
352160,note_on,0,0,3,,,,,,,,,2,,,55,88
352479,note_on,0,0,3,,,,,,,,,2,,,54,88
352479,note_on,319,0,4,,,,,,,,,3,,,43,0
352479,note_on,0,0,4,,,,,,,,,3,,,42,88
352479,note_on,319,0,3,,,,,,,,,2,,,55,0
352800,note_on,321,0,4,,,,,,,,,3,,,42,0
352800,note_on,0,0,3,,,,,,,,,2,,,52,88
352800,note_on,321,0,3,,,,,,,,,2,,,54,0
352800,note_on,0,0,4,,,,,,,,,3,,,40,88
353120,note_on,0,0,4,,,,,,,,,3,,,39,88
353120,note_on,320,0,4,,,,,,,,,3,,,40,0
353120,note_on,0,0,3,,,,,,,,,2,,,51,88
353120,note_on,320,0,3,,,,,,,,,2,,,52,0
353280,note_on,0,0,1,,,,,,,,,0,,,75,0
353280,note_on,1440,0,1,,,,,,,,,0,,,83,0
353280,note_on,0,0,1,,,,,,,,,0,,,75,88
353280,note_on,0,0,1,,,,,,,,,0,,,78,88
353280,note_on,0,0,2,,,,,,,,,1,,,66,88
353280,note_on,1440,0,2,,,,,,,,,1,,,71,0
353280,note_on,0,0,2,,,,,,,,,1,,,71,88
353327,note_on,47,0,1,,,,,,,,,0,,,78,0
353327,note_on,0,0,1,,,,,,,,,0,,,75,0
353439,note_on,319,0,4,,,,,,,,,3,,,39,0
353439,note_on,0,0,3,,,,,,,,,2,,,48,88
353439,note_on,319,0,3,,,,,,,,,2,,,51,0
353439,note_on,0,0,4,,,,,,,,,3,,,36,88
353760,note_on,0,0,3,,,,,,,,,2,,,47,114
353760,note_on,321,0,3,,,,,,,,,2,,,48,0
353760,note_on,0,0,1,,,,,,,,,0,,,79,114
353760,note_on,480,0,2,,,,,,,,,1,,,71,0
353760,note_on,321,0,4,,,,,,,,,3,,,36,0
353760,note_on,0,0,2,,,,,,,,,1,,,71,114
353760,note_on,0,0,2,,,,,,,,,1,,,67,114
353760,note_on,0,0,2,,,,,,,,,1,,,66,0
353760,note_on,433,0,1,,,,,,,,,0,,,76,114
353760,note_on,0,0,4,,,,,,,,,3,,,35,114
354080,note_on,0,0,3,,,,,,,,,2,,,61,88
354080,note_on,320,0,3,,,,,,,,,2,,,47,0
354080,note_on,320,0,4,,,,,,,,,3,,,35,0
354080,note_on,0,0,4,,,,,,,,,3,,,49,88
354399,note_on,319,0,4,,,,,,,,,3,,,49,0
354399,note_on,319,0,3,,,,,,,,,2,,,61,0
354399,note_on,0,0,3,,,,,,,,,2,,,63,88
354399,note_on,0,0,4,,,,,,,,,3,,,51,88
354720,note_on,321,0,4,,,,,,,,,3,,,51,0
354720,note_on,0,0,4,,,,,,,,,3,,,52,88
354720,note_on,321,0,3,,,,,,,,,2,,,63,0
354720,note_on,0,0,3,,,,,,,,,2,,,64,88
355040,note_on,320,0,3,,,,,,,,,2,,,64,0
355040,note_on,0,0,3,,,,,,,,,2,,,62,88
355040,note_on,0,0,4,,,,,,,,,3,,,50,88
355040,note_on,320,0,4,,,,,,,,,3,,,52,0
355200,note_on,0,0,1,,,,,,,,,0,,,83,88
355200,note_on,0,0,1,,,,,,,,,0,,,79,88
355200,note_on,0,0,1,,,,,,,,,0,,,76,0
355200,note_on,1440,0,1,,,,,,,,,0,,,79,0
355200,note_on,0,0,2,,,,,,,,,1,,,71,88
355200,note_on,0,0,2,,,,,,,,,1,,,67,0
355200,note_on,1440,0,2,,,,,,,,,1,,,71,0
355359,note_on,0,0,4,,,,,,,,,3,,,48,88
355359,note_on,319,0,4,,,,,,,,,3,,,50,0
355359,note_on,0,0,3,,,,,,,,,2,,,60,88
355359,note_on,319,0,3,,,,,,,,,2,,,62,0
355440,note_on,0,0,2,,,,,,,,,1,,,71,88
355440,note_on,240,0,2,,,,,,,,,1,,,71,0
355440,note_on,240,0,1,,,,,,,,,0,,,83,0
355440,note_on,0,0,1,,,,,,,,,0,,,79,0
355440,note_on,0,0,1,,,,,,,,,0,,,79,88
355440,note_on,0,0,1,,,,,,,,,0,,,83,88
355680,note_on,240,0,2,,,,,,,,,1,,,71,0
355680,note_on,240,0,1,,,,,,,,,0,,,83,0
355680,note_on,0,0,1,,,,,,,,,0,,,79,0
355680,note_on,0,0,2,,,,,,,,,1,,,71,88
355680,note_on,0,0,1,,,,,,,,,0,,,79,88
355680,note_on,0,0,4,,,,,,,,,3,,,47,88
355680,note_on,0,0,1,,,,,,,,,0,,,83,88
355680,note_on,321,0,3,,,,,,,,,2,,,60,0
355680,note_on,0,0,3,,,,,,,,,2,,,59,88
355680,note_on,321,0,4,,,,,,,,,3,,,48,0
356000,note_on,320,0,4,,,,,,,,,3,,,47,0
356000,note_on,0,0,4,,,,,,,,,3,,,45,88
356000,note_on,320,0,3,,,,,,,,,2,,,59,0
356000,note_on,0,0,3,,,,,,,,,2,,,57,88
356319,note_on,319,0,4,,,,,,,,,3,,,45,0
356319,note_on,0,0,4,,,,,,,,,3,,,43,88
356319,note_on,319,0,3,,,,,,,,,2,,,57,0
356319,note_on,0,0,3,,,,,,,,,2,,,55,88
356640,note_on,321,0,3,,,,,,,,,2,,,55,0
356640,note_on,0,0,3,,,,,,,,,2,,,54,88
356640,note_on,321,0,4,,,,,,,,,3,,,43,0
356640,note_on,0,0,4,,,,,,,,,3,,,42,88
356960,note_on,320,0,4,,,,,,,,,3,,,42,0
356960,note_on,0,0,4,,,,,,,,,3,,,40,88
356960,note_on,0,0,3,,,,,,,,,2,,,52,88
356960,note_on,320,0,3,,,,,,,,,2,,,54,0
357120,note_on,1440,0,1,,,,,,,,,0,,,83,0
357120,note_on,1440,0,2,,,,,,,,,1,,,71,0
357120,note_on,0,0,1,,,,,,,,,0,,,79,88
357120,note_on,0,0,1,,,,,,,,,0,,,76,88
357120,note_on,0,0,1,,,,,,,,,0,,,79,0
357120,note_on,0,0,2,,,,,,,,,1,,,71,88
357167,note_on,0,0,1,,,,,,,,,0,,,76,0
357167,note_on,47,0,1,,,,,,,,,0,,,79,0
357167,note_on,47,0,2,,,,,,,,,1,,,71,0
357279,note_on,319,0,4,,,,,,,,,3,,,40,0
357279,note_on,319,0,3,,,,,,,,,2,,,52,0
357279,note_on,0,0,3,,,,,,,,,2,,,50,88
357279,note_on,0,0,4,,,,,,,,,3,,,38,88
357600,note_on,321,0,4,,,,,,,,,3,,,38,0
357600,note_on,0,0,1,,,,,,,,,0,,,79,114
357600,note_on,0,0,4,,,,,,,,,3,,,36,114
357600,note_on,433,0,1,,,,,,,,,0,,,76,114
357600,note_on,433,0,2,,,,,,,,,1,,,72,114
357600,note_on,0,0,3,,,,,,,,,2,,,48,114
357600,note_on,321,0,3,,,,,,,,,2,,,50,0
357920,note_on,320,0,4,,,,,,,,,3,,,36,0
357920,note_on,0,0,3,,,,,,,,,2,,,67,88
357920,note_on,0,0,4,,,,,,,,,3,,,55,88
357920,note_on,320,0,3,,,,,,,,,2,,,48,0
358239,note_on,319,0,3,,,,,,,,,2,,,67,0
358239,note_on,0,0,3,,,,,,,,,2,,,64,88
358239,note_on,0,0,4,,,,,,,,,3,,,52,88
358239,note_on,319,0,4,,,,,,,,,3,,,55,0
358560,note_on,0,0,4,,,,,,,,,3,,,50,88
358560,note_on,321,0,3,,,,,,,,,2,,,64,0
358560,note_on,321,0,4,,,,,,,,,3,,,52,0
358560,note_on,0,0,3,,,,,,,,,2,,,62,88
358880,note_on,320,0,3,,,,,,,,,2,,,62,0
358880,note_on,320,0,4,,,,,,,,,3,,,50,0
358880,note_on,0,0,4,,,,,,,,,3,,,48,88
358880,note_on,0,0,3,,,,,,,,,2,,,60,88
359040,note_on,0,0,2,,,,,,,,,1,,,72,88
359040,note_on,0,0,1,,,,,,,,,0,,,84,88
359040,note_on,0,0,1,,,,,,,,,0,,,76,88
359040,note_on,0,0,1,,,,,,,,,0,,,76,0
359040,note_on,1440,0,1,,,,,,,,,0,,,79,0
359040,note_on,1440,0,2,,,,,,,,,1,,,72,0
359199,note_on,319,0,3,,,,,,,,,2,,,60,0
359199,note_on,0,0,4,,,,,,,,,3,,,46,88
359199,note_on,0,0,3,,,,,,,,,2,,,58,88
359199,note_on,319,0,4,,,,,,,,,3,,,48,0
359280,note_on,240,0,2,,,,,,,,,1,,,72,0
359280,note_on,0,0,2,,,,,,,,,1,,,72,88
359280,note_on,240,0,1,,,,,,,,,0,,,84,0
359280,note_on,0,0,1,,,,,,,,,0,,,84,88
359280,note_on,0,0,1,,,,,,,,,0,,,76,88
359280,note_on,0,0,1,,,,,,,,,0,,,76,0
359520,note_on,0,0,3,,,,,,,,,2,,,57,101
359520,note_on,321,0,4,,,,,,,,,3,,,46,0
359520,note_on,0,0,1,,,,,,,,,0,,,76,101
359520,note_on,321,0,3,,,,,,,,,2,,,58,0
359520,note_on,240,0,1,,,,,,,,,0,,,84,0
359520,note_on,0,0,1,,,,,,,,,0,,,76,0
359520,note_on,0,0,4,,,,,,,,,3,,,45,101
359520,note_on,240,0,2,,,,,,,,,1,,,72,0
359520,note_on,0,0,1,,,,,,,,,0,,,84,101
359520,note_on,0,0,2,,,,,,,,,1,,,72,88
359840,note_on,0,0,3,,,,,,,,,2,,,55,101
359840,note_on,320,0,4,,,,,,,,,3,,,45,0
359840,note_on,320,0,3,,,,,,,,,2,,,57,0
359840,note_on,0,0,4,,,,,,,,,3,,,43,101
360159,note_on,0,0,4,,,,,,,,,3,,,41,101
360159,note_on,319,0,3,,,,,,,,,2,,,55,0
360159,note_on,0,0,3,,,,,,,,,2,,,53,101
360159,note_on,319,0,4,,,,,,,,,3,,,43,0
360480,note_on,321,0,4,,,,,,,,,3,,,41,0
360480,note_on,321,0,3,,,,,,,,,2,,,53,0
360480,note_on,0,0,3,,,,,,,,,2,,,52,101
360480,note_on,0,0,4,,,,,,,,,3,,,40,101
360800,note_on,0,0,3,,,,,,,,,2,,,50,101
360800,note_on,320,0,4,,,,,,,,,3,,,40,0
360800,note_on,0,0,4,,,,,,,,,3,,,38,101
360800,note_on,320,0,3,,,,,,,,,2,,,52,0
360960,note_on,0,0,2,,,,,,,,,1,,,68,88
360960,note_on,0,0,2,,,,,,,,,1,,,64,88
360960,note_on,0,0,1,,,,,,,,,0,,,80,101
360960,note_on,1440,0,2,,,,,,,,,1,,,72,0
360960,note_on,1440,0,1,,,,,,,,,0,,,84,0
360960,note_on,0,0,1,,,,,,,,,0,,,76,0
360960,note_on,0,0,1,,,,,,,,,0,,,72,101
360960,note_on,0,0,1,,,,,,,,,0,,,76,101
361007,note_on,47,0,1,,,,,,,,,0,,,80,0
361007,note_on,0,0,1,,,,,,,,,0,,,72,0
361007,note_on,0,0,2,,,,,,,,,1,,,64,0
361007,note_on,47,0,2,,,,,,,,,1,,,68,0
361007,note_on,0,0,1,,,,,,,,,0,,,76,0
361119,note_on,319,0,3,,,,,,,,,2,,,50,0
361119,note_on,319,0,4,,,,,,,,,3,,,38,0
361119,note_on,0,0,3,,,,,,,,,2,,,48,101
361119,note_on,0,0,4,,,,,,,,,3,,,36,101
361440,note_on,321,0,3,,,,,,,,,2,,,48,0
361440,note_on,433,0,1,,,,,,,,,0,,,72,101
361440,note_on,0,0,1,,,,,,,,,0,,,77,101
361440,note_on,0,0,1,,,,,,,,,0,,,81,101
361440,note_on,0,0,3,,,,,,,,,2,,,53,101
361440,note_on,0,0,2,,,,,,,,,1,,,69,101
361440,note_on,433,0,2,,,,,,,,,1,,,65,101
361440,note_on,0,0,4,,,,,,,,,3,,,41,101
361440,note_on,321,0,4,,,,,,,,,3,,,36,0
361920,note_on,0,0,4,,,,,,,,,3,,,41,101
361920,note_on,0,0,1,,,,,,,,,0,,,72,0
361920,note_on,0,0,1,,,,,,,,,0,,,77,0
361920,note_on,480,0,1,,,,,,,,,0,,,81,0
361920,note_on,480,0,4,,,,,,,,,3,,,41,0
361920,note_on,0,0,4,,,,,,,,,3,,,29,101
361920,note_on,0,0,3,,,,,,,,,2,,,60,101
361920,note_on,0,0,3,,,,,,,,,2,,,57,101
361920,note_on,480,0,3,,,,,,,,,2,,,53,0
361920,note_on,0,0,3,,,,,,,,,2,,,53,101
361920,note_on,480,0,2,,,,,,,,,1,,,69,0
361920,note_on,0,0,2,,,,,,,,,1,,,65,0
361967,note_on,0,0,4,,,,,,,,,3,,,29,0
361967,note_on,47,0,4,,,,,,,,,3,,,41,0
361967,note_on,0,0,3,,,,,,,,,2,,,53,0
361967,note_on,0,0,3,,,,,,,,,2,,,57,0
361967,note_on,47,0,3,,,,,,,,,2,,,60,0
362400,note_on,480,0,2,,,,,,,,,1,,,69,101
362400,note_on,480,0,1,,,,,,,,,0,,,81,101
362400,note_on,0,0,1,,,,,,,,,0,,,89,101
362400,note_on,0,0,1,,,,,,,,,0,,,86,101
362400,note_on,0,0,2,,,,,,,,,1,,,77,101
362447,note_on,0,0,1,,,,,,,,,0,,,86,0
362447,note_on,0,0,1,,,,,,,,,0,,,81,0
362447,note_on,47,0,2,,,,,,,,,1,,,77,0
362447,note_on,0,0,2,,,,,,,,,1,,,69,0
362447,note_on,47,0,1,,,,,,,,,0,,,89,0
362880,note_on,0,0,4,,,,,,,,,3,,,41,101
362880,note_on,913,0,4,,,,,,,,,3,,,29,101
362880,note_on,913,0,3,,,,,,,,,2,,,53,101
362880,note_on,0,0,3,,,,,,,,,2,,,57,101
362880,note_on,0,0,3,,,,,,,,,2,,,62,101
362927,note_on,47,0,3,,,,,,,,,2,,,62,0
362927,note_on,0,0,3,,,,,,,,,2,,,57,0
362927,note_on,0,0,3,,,,,,,,,2,,,53,0
362927,note_on,0,0,4,,,,,,,,,3,,,29,0
362927,note_on,47,0,4,,,,,,,,,3,,,41,0
363360,note_on,0,0,2,,,,,,,,,1,,,72,101
363360,note_on,0,0,1,,,,,,,,,0,,,88,101
363360,note_on,0,0,1,,,,,,,,,0,,,84,101
363360,note_on,913,0,1,,,,,,,,,0,,,79,101
363360,note_on,0,0,2,,,,,,,,,1,,,76,101
363360,note_on,913,0,2,,,,,,,,,1,,,67,101
363407,note_on,0,0,2,,,,,,,,,1,,,67,0
363407,note_on,0,0,1,,,,,,,,,0,,,79,0
363407,note_on,0,0,1,,,,,,,,,0,,,84,0
363407,note_on,47,0,1,,,,,,,,,0,,,88,0
363407,note_on,47,0,2,,,,,,,,,1,,,76,0
363407,note_on,0,0,2,,,,,,,,,1,,,72,0
363840,note_on,0,0,4,,,,,,,,,3,,,43,101
363840,note_on,913,0,3,,,,,,,,,2,,,55,101
363840,note_on,0,0,3,,,,,,,,,2,,,60,101
363840,note_on,913,0,4,,,,,,,,,3,,,31,101
363840,note_on,0,0,3,,,,,,,,,2,,,64,101
363887,note_on,47,0,4,,,,,,,,,3,,,43,0
363887,note_on,0,0,4,,,,,,,,,3,,,31,0
363887,note_on,47,0,3,,,,,,,,,2,,,64,0
363887,note_on,0,0,3,,,,,,,,,2,,,60,0
363887,note_on,0,0,3,,,,,,,,,2,,,55,0
364320,note_on,913,0,2,,,,,,,,,1,,,67,101
364320,note_on,0,0,2,,,,,,,,,1,,,74,101
364320,note_on,0,0,2,,,,,,,,,1,,,71,101
364320,note_on,0,0,1,,,,,,,,,0,,,86,101
364320,note_on,0,0,1,,,,,,,,,0,,,83,101
364320,note_on,913,0,1,,,,,,,,,0,,,79,101
364367,note_on,0,0,1,,,,,,,,,0,,,83,0
364367,note_on,47,0,2,,,,,,,,,1,,,74,0
364367,note_on,0,0,2,,,,,,,,,1,,,71,0
364367,note_on,0,0,2,,,,,,,,,1,,,67,0
364367,note_on,0,0,1,,,,,,,,,0,,,79,0
364367,note_on,47,0,1,,,,,,,,,0,,,86,0
364800,note_on,0,0,4,,,,,,,,,3,,,43,101
364800,note_on,913,0,4,,,,,,,,,3,,,31,101
364800,note_on,0,0,3,,,,,,,,,2,,,59,101
364800,note_on,0,0,3,,,,,,,,,2,,,62,101
364800,note_on,913,0,3,,,,,,,,,2,,,55,101
364847,note_on,0,0,4,,,,,,,,,3,,,31,0
364847,note_on,47,0,4,,,,,,,,,3,,,43,0
364847,note_on,47,0,3,,,,,,,,,2,,,62,0
364847,note_on,0,0,3,,,,,,,,,2,,,59,0
364847,note_on,0,0,3,,,,,,,,,2,,,55,0
365280,note_on,0,0,1,,,,,,,,,0,,,78,62
365280,note_on,433,0,4,,,,,,,,,3,,,35,62
365280,note_on,913,0,2,,,,,,,,,1,,,71,62
365280,note_on,913,0,1,,,,,,,,,0,,,75,62
365280,note_on,433,0,3,,,,,,,,,2,,,47,62
365311,note_on,31,0,4,,,,,,,,,3,,,35,0
365311,note_on,31,0,3,,,,,,,,,2,,,47,0
365600,note_on,289,0,3,,,,,,,,,2,,,66,62
365600,note_on,289,0,4,,,,,,,,,3,,,54,62
365632,note_on,32,0,3,,,,,,,,,2,,,66,0
365632,note_on,32,0,4,,,,,,,,,3,,,54,0
365919,note_on,287,0,3,,,,,,,,,2,,,64,62
365919,note_on,287,0,4,,,,,,,,,3,,,52,62
365951,note_on,32,0,3,,,,,,,,,2,,,64,0
365951,note_on,32,0,4,,,,,,,,,3,,,52,0
366240,note_on,289,0,3,,,,,,,,,2,,,63,62
366240,note_on,289,0,4,,,,,,,,,3,,,51,62
366271,note_on,31,0,3,,,,,,,,,2,,,63,0
366271,note_on,31,0,4,,,,,,,,,3,,,51,0
366560,note_on,289,0,3,,,,,,,,,2,,,61,62
366560,note_on,289,0,4,,,,,,,,,3,,,49,62
366592,note_on,32,0,3,,,,,,,,,2,,,61,0
366592,note_on,32,0,4,,,,,,,,,3,,,49,0
366720,note_on,0,0,1,,,,,,,,,0,,,83,62
366720,note_on,0,0,1,,,,,,,,,0,,,75,62
366720,note_on,0,0,1,,,,,,,,,0,,,75,0
366720,note_on,1440,0,1,,,,,,,,,0,,,78,0
366720,note_on,1440,0,2,,,,,,,,,1,,,71,0
366720,note_on,0,0,2,,,,,,,,,1,,,71,62
366879,note_on,287,0,4,,,,,,,,,3,,,47,62
366879,note_on,287,0,3,,,,,,,,,2,,,59,62
366911,note_on,32,0,4,,,,,,,,,3,,,47,0
366911,note_on,32,0,3,,,,,,,,,2,,,59,0
366960,note_on,0,0,1,,,,,,,,,0,,,83,62
366960,note_on,0,0,2,,,,,,,,,1,,,71,62
366960,note_on,0,0,1,,,,,,,,,0,,,75,0
366960,note_on,240,0,1,,,,,,,,,0,,,83,0
366960,note_on,240,0,2,,,,,,,,,1,,,71,0
366960,note_on,0,0,1,,,,,,,,,0,,,75,62
367200,note_on,240,0,1,,,,,,,,,0,,,83,0
367200,note_on,289,0,3,,,,,,,,,2,,,57,62
367200,note_on,0,0,1,,,,,,,,,0,,,75,62
367200,note_on,0,0,1,,,,,,,,,0,,,83,62
367200,note_on,240,0,2,,,,,,,,,1,,,71,0
367200,note_on,289,0,4,,,,,,,,,3,,,45,62
367200,note_on,0,0,2,,,,,,,,,1,,,71,62
367200,note_on,0,0,1,,,,,,,,,0,,,75,0
367231,note_on,31,0,4,,,,,,,,,3,,,45,0
367231,note_on,31,0,3,,,,,,,,,2,,,57,0
367520,note_on,289,0,3,,,,,,,,,2,,,55,62
367520,note_on,289,0,4,,,,,,,,,3,,,43,62
367552,note_on,32,0,4,,,,,,,,,3,,,43,0
367552,note_on,32,0,3,,,,,,,,,2,,,55,0
367839,note_on,287,0,4,,,,,,,,,3,,,42,62
367839,note_on,287,0,3,,,,,,,,,2,,,54,62
367871,note_on,32,0,4,,,,,,,,,3,,,42,0
367871,note_on,32,0,3,,,,,,,,,2,,,54,0
368160,note_on,289,0,4,,,,,,,,,3,,,40,62
368160,note_on,289,0,3,,,,,,,,,2,,,52,62
368191,note_on,31,0,3,,,,,,,,,2,,,52,0
368191,note_on,31,0,4,,,,,,,,,3,,,40,0
368480,note_on,289,0,3,,,,,,,,,2,,,51,62
368480,note_on,289,0,4,,,,,,,,,3,,,39,62
368512,note_on,32,0,4,,,,,,,,,3,,,39,0
368512,note_on,32,0,3,,,,,,,,,2,,,51,0
368640,note_on,0,0,2,,,,,,,,,1,,,66,62
368640,note_on,1440,0,2,,,,,,,,,1,,,71,0
368640,note_on,0,0,2,,,,,,,,,1,,,71,62
368640,note_on,0,0,1,,,,,,,,,0,,,78,62
368640,note_on,1440,0,1,,,,,,,,,0,,,83,0
368640,note_on,0,0,1,,,,,,,,,0,,,75,62
368640,note_on,0,0,1,,,,,,,,,0,,,75,0
368687,note_on,0,0,1,,,,,,,,,0,,,75,0
368687,note_on,47,0,1,,,,,,,,,0,,,78,0
368799,note_on,287,0,4,,,,,,,,,3,,,36,62
368799,note_on,287,0,3,,,,,,,,,2,,,48,62
368831,note_on,32,0,3,,,,,,,,,2,,,48,0
368831,note_on,32,0,4,,,,,,,,,3,,,36,0
369120,note_on,289,0,3,,,,,,,,,2,,,47,62
369120,note_on,289,0,4,,,,,,,,,3,,,35,62
369120,note_on,0,0,2,,,,,,,,,1,,,71,88
369120,note_on,0,0,2,,,,,,,,,1,,,67,88
369120,note_on,0,0,2,,,,,,,,,1,,,66,0
369120,note_on,480,0,2,,,,,,,,,1,,,71,0
369120,note_on,0,0,1,,,,,,,,,0,,,79,88
369120,note_on,433,0,1,,,,,,,,,0,,,76,88
369151,note_on,31,0,4,,,,,,,,,3,,,35,0
369151,note_on,31,0,3,,,,,,,,,2,,,47,0
369440,note_on,289,0,4,,,,,,,,,3,,,49,62
369440,note_on,289,0,3,,,,,,,,,2,,,61,62
369472,note_on,32,0,4,,,,,,,,,3,,,49,0
369472,note_on,32,0,3,,,,,,,,,2,,,61,0
369759,note_on,287,0,3,,,,,,,,,2,,,63,62
369759,note_on,287,0,4,,,,,,,,,3,,,51,62
369791,note_on,32,0,4,,,,,,,,,3,,,51,0
369791,note_on,32,0,3,,,,,,,,,2,,,63,0
370080,note_on,289,0,4,,,,,,,,,3,,,52,62
370080,note_on,289,0,3,,,,,,,,,2,,,64,62
370111,note_on,31,0,3,,,,,,,,,2,,,64,0
370111,note_on,31,0,4,,,,,,,,,3,,,52,0
370400,note_on,289,0,3,,,,,,,,,2,,,62,62
370400,note_on,289,0,4,,,,,,,,,3,,,50,62
370432,note_on,32,0,4,,,,,,,,,3,,,50,0
370432,note_on,32,0,3,,,,,,,,,2,,,62,0
370560,note_on,1440,0,1,,,,,,,,,0,,,79,0
370560,note_on,0,0,1,,,,,,,,,0,,,76,0
370560,note_on,0,0,1,,,,,,,,,0,,,79,62
370560,note_on,0,0,1,,,,,,,,,0,,,83,62
370560,note_on,0,0,2,,,,,,,,,1,,,71,62
370560,note_on,0,0,2,,,,,,,,,1,,,67,0
370560,note_on,1440,0,2,,,,,,,,,1,,,71,0
370719,note_on,287,0,3,,,,,,,,,2,,,60,62
370719,note_on,287,0,4,,,,,,,,,3,,,48,62
370751,note_on,32,0,4,,,,,,,,,3,,,48,0
370751,note_on,32,0,3,,,,,,,,,2,,,60,0
370800,note_on,240,0,2,,,,,,,,,1,,,71,0
370800,note_on,0,0,1,,,,,,,,,0,,,83,62
370800,note_on,0,0,1,,,,,,,,,0,,,79,62
370800,note_on,0,0,1,,,,,,,,,0,,,79,0
370800,note_on,240,0,1,,,,,,,,,0,,,83,0
370800,note_on,0,0,2,,,,,,,,,1,,,71,62
371040,note_on,289,0,4,,,,,,,,,3,,,47,62
371040,note_on,0,0,2,,,,,,,,,1,,,71,75
371040,note_on,240,0,2,,,,,,,,,1,,,71,0
371040,note_on,0,0,1,,,,,,,,,0,,,79,75
371040,note_on,0,0,1,,,,,,,,,0,,,83,75
371040,note_on,0,0,1,,,,,,,,,0,,,79,0
371040,note_on,289,0,3,,,,,,,,,2,,,59,62
371040,note_on,240,0,1,,,,,,,,,0,,,83,0
371071,note_on,31,0,3,,,,,,,,,2,,,59,0
371071,note_on,31,0,4,,,,,,,,,3,,,47,0
371360,note_on,289,0,3,,,,,,,,,2,,,57,62
371360,note_on,289,0,4,,,,,,,,,3,,,45,62
371392,note_on,32,0,4,,,,,,,,,3,,,45,0
371392,note_on,32,0,3,,,,,,,,,2,,,57,0
371679,note_on,287,0,4,,,,,,,,,3,,,43,62
371679,note_on,287,0,3,,,,,,,,,2,,,55,62
371711,note_on,32,0,4,,,,,,,,,3,,,43,0
371711,note_on,32,0,3,,,,,,,,,2,,,55,0
372000,note_on,289,0,3,,,,,,,,,2,,,54,75
372000,note_on,289,0,4,,,,,,,,,3,,,42,75
372031,note_on,31,0,3,,,,,,,,,2,,,54,0
372031,note_on,31,0,4,,,,,,,,,3,,,42,0
372320,note_on,289,0,4,,,,,,,,,3,,,40,75
372320,note_on,289,0,3,,,,,,,,,2,,,52,75
372352,note_on,32,0,4,,,,,,,,,3,,,40,0
372352,note_on,32,0,3,,,,,,,,,2,,,52,0
372480,note_on,1440,0,1,,,,,,,,,0,,,83,0
372480,note_on,0,0,1,,,,,,,,,0,,,79,0
372480,note_on,0,0,1,,,,,,,,,0,,,76,75
372480,note_on,0,0,1,,,,,,,,,0,,,79,75
372480,note_on,1440,0,2,,,,,,,,,1,,,71,0
372480,note_on,0,0,2,,,,,,,,,1,,,71,75
372527,note_on,47,0,2,,,,,,,,,1,,,71,0
372527,note_on,0,0,1,,,,,,,,,0,,,76,0
372527,note_on,47,0,1,,,,,,,,,0,,,79,0
372639,note_on,287,0,3,,,,,,,,,2,,,50,75
372639,note_on,287,0,4,,,,,,,,,3,,,38,75
372671,note_on,32,0,3,,,,,,,,,2,,,50,0
372671,note_on,32,0,4,,,,,,,,,3,,,38,0
372960,note_on,289,0,3,,,,,,,,,2,,,48,75
372960,note_on,433,0,1,,,,,,,,,0,,,76,101
372960,note_on,0,0,1,,,,,,,,,0,,,79,101
372960,note_on,433,0,2,,,,,,,,,1,,,72,101
372960,note_on,289,0,4,,,,,,,,,3,,,36,75
372991,note_on,31,0,4,,,,,,,,,3,,,36,0
372991,note_on,31,0,3,,,,,,,,,2,,,48,0
373280,note_on,289,0,4,,,,,,,,,3,,,55,75
373280,note_on,289,0,3,,,,,,,,,2,,,67,75
373312,note_on,32,0,4,,,,,,,,,3,,,55,0
373312,note_on,32,0,3,,,,,,,,,2,,,67,0
373599,note_on,287,0,4,,,,,,,,,3,,,52,75
373599,note_on,287,0,3,,,,,,,,,2,,,64,75
373631,note_on,32,0,3,,,,,,,,,2,,,64,0
373631,note_on,32,0,4,,,,,,,,,3,,,52,0
373920,note_on,289,0,3,,,,,,,,,2,,,62,75
373920,note_on,289,0,4,,,,,,,,,3,,,50,75
373951,note_on,31,0,3,,,,,,,,,2,,,62,0
373951,note_on,31,0,4,,,,,,,,,3,,,50,0
374240,note_on,289,0,4,,,,,,,,,3,,,48,75
374240,note_on,289,0,3,,,,,,,,,2,,,60,75
374272,note_on,32,0,4,,,,,,,,,3,,,48,0
374272,note_on,32,0,3,,,,,,,,,2,,,60,0
374400,note_on,1440,0,2,,,,,,,,,1,,,72,0
374400,note_on,0,0,1,,,,,,,,,0,,,84,88
374400,note_on,0,0,1,,,,,,,,,0,,,76,88
374400,note_on,0,0,1,,,,,,,,,0,,,76,0
374400,note_on,1440,0,1,,,,,,,,,0,,,79,0
374400,note_on,0,0,2,,,,,,,,,1,,,72,88
374559,note_on,287,0,4,,,,,,,,,3,,,46,75
374559,note_on,287,0,3,,,,,,,,,2,,,58,75
374591,note_on,32,0,3,,,,,,,,,2,,,58,0
374591,note_on,32,0,4,,,,,,,,,3,,,46,0
374640,note_on,240,0,1,,,,,,,,,0,,,84,0
374640,note_on,240,0,2,,,,,,,,,1,,,72,0
374640,note_on,0,0,2,,,,,,,,,1,,,72,88
374640,note_on,0,0,1,,,,,,,,,0,,,84,88
374640,note_on,0,0,1,,,,,,,,,0,,,76,88
374640,note_on,0,0,1,,,,,,,,,0,,,76,0
374880,note_on,0,0,1,,,,,,,,,0,,,76,0
374880,note_on,0,0,2,,,,,,,,,1,,,72,88
374880,note_on,240,0,2,,,,,,,,,1,,,72,0
374880,note_on,0,0,1,,,,,,,,,0,,,84,88
374880,note_on,0,0,1,,,,,,,,,0,,,76,88
374880,note_on,289,0,3,,,,,,,,,2,,,57,88
374880,note_on,240,0,1,,,,,,,,,0,,,84,0
374880,note_on,289,0,4,,,,,,,,,3,,,45,88
374911,note_on,31,0,3,,,,,,,,,2,,,57,0
374911,note_on,31,0,4,,,,,,,,,3,,,45,0
375200,note_on,289,0,3,,,,,,,,,2,,,55,88
375200,note_on,289,0,4,,,,,,,,,3,,,43,88
375232,note_on,32,0,4,,,,,,,,,3,,,43,0
375232,note_on,32,0,3,,,,,,,,,2,,,55,0
375519,note_on,287,0,4,,,,,,,,,3,,,41,88
375519,note_on,287,0,3,,,,,,,,,2,,,53,88
375551,note_on,32,0,3,,,,,,,,,2,,,53,0
375551,note_on,32,0,4,,,,,,,,,3,,,41,0
375840,note_on,289,0,3,,,,,,,,,2,,,52,88
375840,note_on,289,0,4,,,,,,,,,3,,,40,88
375871,note_on,31,0,4,,,,,,,,,3,,,40,0
375871,note_on,31,0,3,,,,,,,,,2,,,52,0
376160,note_on,289,0,4,,,,,,,,,3,,,38,88
376160,note_on,289,0,3,,,,,,,,,2,,,50,88
376192,note_on,32,0,4,,,,,,,,,3,,,38,0
376192,note_on,32,0,3,,,,,,,,,2,,,50,0
376320,note_on,1440,0,2,,,,,,,,,1,,,72,0
376320,note_on,1440,0,1,,,,,,,,,0,,,84,0
376320,note_on,0,0,2,,,,,,,,,1,,,68,88
376320,note_on,0,0,1,,,,,,,,,0,,,76,0
376320,note_on,0,0,1,,,,,,,,,0,,,72,88
376320,note_on,0,0,1,,,,,,,,,0,,,76,88
376320,note_on,0,0,1,,,,,,,,,0,,,80,88
376320,note_on,0,0,2,,,,,,,,,1,,,64,88
376367,note_on,47,0,2,,,,,,,,,1,,,68,0
376367,note_on,0,0,1,,,,,,,,,0,,,72,0
376367,note_on,0,0,1,,,,,,,,,0,,,76,0
376367,note_on,47,0,1,,,,,,,,,0,,,80,0
376367,note_on,0,0,2,,,,,,,,,1,,,64,0
376479,note_on,287,0,4,,,,,,,,,3,,,36,88
376479,note_on,287,0,3,,,,,,,,,2,,,48,88
376511,note_on,32,0,4,,,,,,,,,3,,,36,0
376511,note_on,32,0,3,,,,,,,,,2,,,48,0
376800,note_on,433,0,1,,,,,,,,,0,,,72,88
376800,note_on,0,0,2,,,,,,,,,1,,,69,88
376800,note_on,289,0,4,,,,,,,,,3,,,41,88
376800,note_on,433,0,2,,,,,,,,,1,,,65,88
376800,note_on,289,0,3,,,,,,,,,2,,,53,88
376800,note_on,0,0,1,,,,,,,,,0,,,77,88
376800,note_on,0,0,1,,,,,,,,,0,,,81,88
377280,note_on,480,0,2,,,,,,,,,1,,,69,0
377280,note_on,0,0,2,,,,,,,,,1,,,65,0
377280,note_on,0,0,1,,,,,,,,,0,,,77,0
377280,note_on,0,0,3,,,,,,,,,2,,,60,88
377280,note_on,0,0,3,,,,,,,,,2,,,57,88
377280,note_on,0,0,3,,,,,,,,,2,,,53,88
377280,note_on,480,0,1,,,,,,,,,0,,,81,0
377280,note_on,480,0,4,,,,,,,,,3,,,41,0
377280,note_on,0,0,4,,,,,,,,,3,,,29,88
377280,note_on,0,0,4,,,,,,,,,3,,,41,88
377280,note_on,480,0,3,,,,,,,,,2,,,53,0
377280,note_on,0,0,1,,,,,,,,,0,,,72,0
377760,note_on,480,0,3,,,,,,,,,2,,,60,0
377760,note_on,0,0,2,,,,,,,,,1,,,74,88
377760,note_on,0,0,4,,,,,,,,,3,,,29,0
377760,note_on,480,0,4,,,,,,,,,3,,,41,0
377760,note_on,0,0,2,,,,,,,,,1,,,77,88
377760,note_on,0,0,3,,,,,,,,,2,,,53,0
377760,note_on,0,0,3,,,,,,,,,2,,,57,0
377760,note_on,480,0,2,,,,,,,,,1,,,69,88
377760,note_on,480,0,1,,,,,,,,,0,,,81,101
378000,note_on,0,0,1,,,,,,,,,0,,,86,101
378000,note_on,240,0,1,,,,,,,,,0,,,81,0
378240,note_on,240,0,1,,,,,,,,,0,,,86,0
378240,note_on,0,0,1,,,,,,,,,0,,,89,101
378240,note_on,480,0,3,,,,,,,,,2,,,53,88
378240,note_on,0,0,3,,,,,,,,,2,,,57,88
378240,note_on,0,0,3,,,,,,,,,2,,,62,88
378240,note_on,0,0,2,,,,,,,,,1,,,69,0
378240,note_on,0,0,2,,,,,,,,,1,,,74,0
378240,note_on,480,0,2,,,,,,,,,1,,,77,0
378240,note_on,480,0,4,,,,,,,,,3,,,29,88
378240,note_on,0,0,4,,,,,,,,,3,,,41,88
378480,note_on,240,0,1,,,,,,,,,0,,,89,0
378480,note_on,0,0,1,,,,,,,,,0,,,93,101
378720,note_on,0,0,3,,,,,,,,,2,,,53,0
378720,note_on,0,0,2,,,,,,,,,1,,,72,88
378720,note_on,0,0,2,,,,,,,,,1,,,76,88
378720,note_on,240,0,1,,,,,,,,,0,,,93,0
378720,note_on,0,0,1,,,,,,,,,0,,,79,101
378720,note_on,0,0,4,,,,,,,,,3,,,29,0
378720,note_on,480,0,4,,,,,,,,,3,,,41,0
378720,note_on,480,0,3,,,,,,,,,2,,,62,0
378720,note_on,0,0,3,,,,,,,,,2,,,57,0
378720,note_on,480,0,2,,,,,,,,,1,,,67,88
378960,note_on,240,0,1,,,,,,,,,0,,,79,0
378960,note_on,0,0,1,,,,,,,,,0,,,84,101
379200,note_on,0,0,3,,,,,,,,,2,,,60,88
379200,note_on,480,0,3,,,,,,,,,2,,,55,88
379200,note_on,0,0,3,,,,,,,,,2,,,64,88
379200,note_on,0,0,4,,,,,,,,,3,,,43,88
379200,note_on,480,0,4,,,,,,,,,3,,,31,88
379200,note_on,240,0,1,,,,,,,,,0,,,84,0
379200,note_on,0,0,1,,,,,,,,,0,,,88,101
379200,note_on,480,0,2,,,,,,,,,1,,,76,0
379200,note_on,0,0,2,,,,,,,,,1,,,72,0
379200,note_on,0,0,2,,,,,,,,,1,,,67,0
379440,note_on,240,0,1,,,,,,,,,0,,,88,0
379440,note_on,0,0,1,,,,,,,,,0,,,91,101
379680,note_on,0,0,4,,,,,,,,,3,,,31,0
379680,note_on,0,0,3,,,,,,,,,2,,,55,0
379680,note_on,0,0,3,,,,,,,,,2,,,60,0
379680,note_on,480,0,3,,,,,,,,,2,,,64,0
379680,note_on,0,0,1,,,,,,,,,0,,,79,101
379680,note_on,240,0,1,,,,,,,,,0,,,91,0
379680,note_on,0,0,2,,,,,,,,,1,,,74,88
379680,note_on,0,0,2,,,,,,,,,1,,,71,88
379680,note_on,480,0,2,,,,,,,,,1,,,67,88
379680,note_on,480,0,4,,,,,,,,,3,,,43,0
379920,note_on,0,0,1,,,,,,,,,0,,,83,101
379920,note_on,240,0,1,,,,,,,,,0,,,79,0
380160,note_on,240,0,1,,,,,,,,,0,,,83,0
380160,note_on,0,0,4,,,,,,,,,3,,,43,88
380160,note_on,480,0,4,,,,,,,,,3,,,31,88
380160,note_on,0,0,1,,,,,,,,,0,,,86,101
380160,note_on,0,0,3,,,,,,,,,2,,,62,88
380160,note_on,0,0,3,,,,,,,,,2,,,59,88
380160,note_on,480,0,3,,,,,,,,,2,,,55,88
380160,note_on,480,0,2,,,,,,,,,1,,,74,0
380160,note_on,0,0,2,,,,,,,,,1,,,71,0
380160,note_on,0,0,2,,,,,,,,,1,,,67,0
380400,note_on,0,0,1,,,,,,,,,0,,,91,101
380400,note_on,240,0,1,,,,,,,,,0,,,86,0
380640,note_on,0,0,1,,,,,,,,,0,,,76,62
380640,note_on,240,0,1,,,,,,,,,0,,,91,0
380640,note_on,480,0,2,,,,,,,,,1,,,64,75
380640,note_on,0,0,2,,,,,,,,,1,,,67,75
380640,note_on,0,0,3,,,,,,,,,2,,,60,62
380640,note_on,0,0,3,,,,,,,,,2,,,55,0
380640,note_on,0,0,3,,,,,,,,,2,,,59,0
380640,note_on,0,0,4,,,,,,,,,3,,,55,49
380640,note_on,0,0,4,,,,,,,,,3,,,48,49
380640,note_on,0,0,4,,,,,,,,,3,,,31,0
380640,note_on,480,0,4,,,,,,,,,3,,,43,0
380640,note_on,0,0,2,,,,,,,,,1,,,72,75
380640,note_on,480,0,3,,,,,,,,,2,,,62,0
380880,note_on,0,0,1,,,,,,,,,0,,,77,62
380880,note_on,240,0,1,,,,,,,,,0,,,76,0
381120,note_on,240,0,1,,,,,,,,,0,,,77,0
381120,note_on,0,0,2,,,,,,,,,1,,,64,0
381120,note_on,0,0,2,,,,,,,,,1,,,67,0
381120,note_on,480,0,2,,,,,,,,,1,,,72,0
381120,note_on,0,0,1,,,,,,,,,0,,,79,62
381360,note_on,0,0,1,,,,,,,,,0,,,81,62
381360,note_on,240,0,1,,,,,,,,,0,,,79,0
381600,note_on,0,0,1,,,,,,,,,0,,,83,62
381600,note_on,240,0,1,,,,,,,,,0,,,81,0
381840,note_on,0,0,1,,,,,,,,,0,,,84,62
381840,note_on,240,0,1,,,,,,,,,0,,,83,0
382080,note_on,0,0,4,,,,,,,,,3,,,48,49
382080,note_on,240,0,1,,,,,,,,,0,,,84,0
382080,note_on,0,0,4,,,,,,,,,3,,,55,49
382080,note_on,0,0,1,,,,,,,,,0,,,86,62
382080,note_on,0,0,3,,,,,,,,,2,,,64,62
382080,note_on,1440,0,4,,,,,,,,,3,,,55,0
382080,note_on,0,0,4,,,,,,,,,3,,,48,0
382080,note_on,1440,0,3,,,,,,,,,2,,,60,0
382320,note_on,240,0,1,,,,,,,,,0,,,86,0
382320,note_on,0,0,1,,,,,,,,,0,,,88,62
382560,note_on,240,0,1,,,,,,,,,0,,,88,0
382560,note_on,480,0,3,,,,,,,,,2,,,64,0
382560,note_on,1440,0,2,,,,,,,,,1,,,67,75
382560,note_on,0,0,3,,,,,,,,,2,,,60,62
382560,note_on,0,0,4,,,,,,,,,3,,,48,0
382560,note_on,480,0,4,,,,,,,,,3,,,55,0
382560,note_on,0,0,1,,,,,,,,,0,,,89,62
382560,note_on,0,0,4,,,,,,,,,3,,,50,49
382560,note_on,0,0,4,,,,,,,,,3,,,55,49
382800,note_on,240,0,1,,,,,,,,,0,,,89,0
382800,note_on,0,0,1,,,,,,,,,0,,,88,62
383040,note_on,0,0,3,,,,,,,,,2,,,59,62
383040,note_on,0,0,1,,,,,,,,,0,,,86,62
383040,note_on,240,0,1,,,,,,,,,0,,,88,0
383040,note_on,480,0,3,,,,,,,,,2,,,60,0
383280,note_on,240,0,1,,,,,,,,,0,,,86,0
383280,note_on,0,0,1,,,,,,,,,0,,,84,62
383520,note_on,480,0,3,,,,,,,,,2,,,59,0
383520,note_on,240,0,1,,,,,,,,,0,,,84,0
383520,note_on,0,0,1,,,,,,,,,0,,,83,62
383760,note_on,240,0,1,,,,,,,,,0,,,83,0
383760,note_on,0,0,1,,,,,,,,,0,,,81,62
384000,note_on,0,0,4,,,,,,,,,3,,,43,49
384000,note_on,0,0,4,,,,,,,,,3,,,55,49
384000,note_on,240,0,1,,,,,,,,,0,,,81,0
384000,note_on,0,0,4,,,,,,,,,3,,,50,0
384000,note_on,1440,0,4,,,,,,,,,3,,,55,0
384000,note_on,0,0,1,,,,,,,,,0,,,79,62
384000,note_on,0,0,2,,,,,,,,,1,,,69,75
384000,note_on,1440,0,2,,,,,,,,,1,,,67,0
384240,note_on,0,0,1,,,,,,,,,0,,,77,62
384240,note_on,240,0,1,,,,,,,,,0,,,79,0
384480,note_on,0,0,2,,,,,,,,,1,,,69,75
384480,note_on,480,0,2,,,,,,,,,1,,,69,0
384480,note_on,480,0,4,,,,,,,,,3,,,55,0
384480,note_on,0,0,4,,,,,,,,,3,,,43,0
384480,note_on,0,0,4,,,,,,,,,3,,,48,49
384480,note_on,0,0,1,,,,,,,,,0,,,76,62
384480,note_on,240,0,1,,,,,,,,,0,,,77,0
384480,note_on,960,0,3,,,,,,,,,2,,,60,62
384480,note_on,0,0,4,,,,,,,,,3,,,55,49
384720,note_on,0,0,1,,,,,,,,,0,,,77,62
384720,note_on,240,0,1,,,,,,,,,0,,,76,0
384960,note_on,240,0,1,,,,,,,,,0,,,77,0
384960,note_on,0,0,1,,,,,,,,,0,,,79,62
384960,note_on,0,0,2,,,,,,,,,1,,,67,75
384960,note_on,480,0,2,,,,,,,,,1,,,69,0
385200,note_on,240,0,1,,,,,,,,,0,,,79,0
385200,note_on,0,0,1,,,,,,,,,0,,,81,62
385440,note_on,0,0,1,,,,,,,,,0,,,83,62
385440,note_on,480,0,2,,,,,,,,,1,,,67,0
385440,note_on,240,0,1,,,,,,,,,0,,,81,0
385680,note_on,240,0,1,,,,,,,,,0,,,83,0
385680,note_on,0,0,1,,,,,,,,,0,,,84,62
385920,note_on,0,0,4,,,,,,,,,3,,,48,49
385920,note_on,240,0,1,,,,,,,,,0,,,84,0
385920,note_on,0,0,4,,,,,,,,,3,,,48,0
385920,note_on,1440,0,4,,,,,,,,,3,,,55,0
385920,note_on,0,0,4,,,,,,,,,3,,,55,49
385920,note_on,0,0,1,,,,,,,,,0,,,86,62
385920,note_on,1440,0,3,,,,,,,,,2,,,60,0
385920,note_on,0,0,3,,,,,,,,,2,,,64,62
386160,note_on,0,0,1,,,,,,,,,0,,,88,62
386160,note_on,240,0,1,,,,,,,,,0,,,86,0
386400,note_on,480,0,4,,,,,,,,,3,,,55,0
386400,note_on,0,0,1,,,,,,,,,0,,,89,62
386400,note_on,240,0,1,,,,,,,,,0,,,88,0
386400,note_on,480,0,3,,,,,,,,,2,,,64,0
386400,note_on,0,0,3,,,,,,,,,2,,,60,62
386400,note_on,960,0,2,,,,,,,,,1,,,67,75
386400,note_on,0,0,4,,,,,,,,,3,,,48,0
386400,note_on,0,0,4,,,,,,,,,3,,,50,49
386400,note_on,0,0,4,,,,,,,,,3,,,55,49
386640,note_on,0,0,1,,,,,,,,,0,,,88,62
386640,note_on,240,0,1,,,,,,,,,0,,,89,0
386880,note_on,240,0,1,,,,,,,,,0,,,88,0
386880,note_on,0,0,1,,,,,,,,,0,,,86,62
386880,note_on,480,0,3,,,,,,,,,2,,,60,0
386880,note_on,0,0,3,,,,,,,,,2,,,59,62
387120,note_on,240,0,1,,,,,,,,,0,,,86,0
387120,note_on,0,0,1,,,,,,,,,0,,,84,62
387360,note_on,0,0,1,,,,,,,,,0,,,83,62
387360,note_on,480,0,3,,,,,,,,,2,,,59,0
387360,note_on,240,0,1,,,,,,,,,0,,,84,0
387600,note_on,240,0,1,,,,,,,,,0,,,83,0
387600,note_on,0,0,1,,,,,,,,,0,,,81,62
387840,note_on,0,0,2,,,,,,,,,1,,,69,75
387840,note_on,240,0,1,,,,,,,,,0,,,81,0
387840,note_on,0,0,4,,,,,,,,,3,,,43,49
387840,note_on,0,0,4,,,,,,,,,3,,,50,0
387840,note_on,1440,0,4,,,,,,,,,3,,,55,0
387840,note_on,0,0,1,,,,,,,,,0,,,79,62
387840,note_on,1440,0,2,,,,,,,,,1,,,67,0
388080,note_on,240,0,1,,,,,,,,,0,,,79,0
388080,note_on,0,0,1,,,,,,,,,0,,,77,62
388320,control_change,960,0,3,,,,,,,,,2,64,127,,
388320,note_on,480,0,2,,,,,,,,,1,,,69,0
388320,control_change,0,0,2,,,,,,,,,1,64,127,,
388320,note_on,0,0,2,,,,,,,,,1,,,69,75
388320,note_on,480,0,4,,,,,,,,,3,,,43,0
388320,note_on,0,0,3,,,,,,,,,2,,,64,62
388320,note_on,0,0,4,,,,,,,,,3,,,48,49
388320,note_on,240,0,1,,,,,,,,,0,,,77,0
388320,note_on,0,0,1,,,,,,,,,0,,,76,62
388560,note_on,0,0,1,,,,,,,,,0,,,77,62
388560,note_on,240,0,1,,,,,,,,,0,,,76,0
388800,note_on,0,0,3,,,,,,,,,2,,,60,62
388800,note_on,480,0,3,,,,,,,,,2,,,64,0
388800,note_on,0,0,1,,,,,,,,,0,,,79,62
388800,note_on,0,0,2,,,,,,,,,1,,,67,75
388800,note_on,480,0,2,,,,,,,,,1,,,69,0
388800,note_on,240,0,1,,,,,,,,,0,,,77,0
389040,note_on,0,0,1,,,,,,,,,0,,,80,62
389040,note_on,240,0,1,,,,,,,,,0,,,79,0
389280,note_on,0,0,1,,,,,,,,,0,,,81,62
389280,note_on,240,0,1,,,,,,,,,0,,,80,0
389280,note_on,0,0,3,,,,,,,,,2,,,57,62
389280,note_on,960,0,4,,,,,,,,,3,,,48,0
389280,note_on,0,0,2,,,,,,,,,1,,,65,75
389280,note_on,480,0,3,,,,,,,,,2,,,60,0
389280,note_on,0,0,4,,,,,,,,,3,,,41,49
389280,note_on,480,0,2,,,,,,,,,1,,,67,0
389520,note_on,240,0,1,,,,,,,,,0,,,81,0
389520,note_on,0,0,1,,,,,,,,,0,,,83,62
389760,note_on,480,0,2,,,,,,,,,1,,,65,0
389760,note_on,0,0,2,,,,,,,,,1,,,62,75
389760,note_on,240,0,1,,,,,,,,,0,,,83,0
389760,note_on,0,0,1,,,,,,,,,0,,,84,62
389760,control_change,0,0,2,,,,,,,,,1,64,0,,
389760,note_on,480,0,3,,,,,,,,,2,,,57,0
389760,note_on,0,0,3,,,,,,,,,2,,,53,62
389760,control_change,0,0,3,,,,,,,,,2,64,0,,
390000,note_on,240,0,1,,,,,,,,,0,,,84,0
390000,note_on,0,0,1,,,,,,,,,0,,,86,62
390240,note_on,480,0,3,,,,,,,,,2,,,53,0
390240,note_on,0,0,3,,,,,,,,,2,,,52,62
390240,note_on,0,0,3,,,,,,,,,2,,,55,62
390240,note_on,240,0,1,,,,,,,,,0,,,86,0
390240,note_on,0,0,1,,,,,,,,,0,,,76,62
390240,note_on,0,0,4,,,,,,,,,3,,,43,49
390240,note_on,480,0,2,,,,,,,,,1,,,62,0
390240,control_change,0,0,2,,,,,,,,,1,64,127,,
390240,note_on,0,0,2,,,,,,,,,1,,,60,75
390240,note_on,960,0,4,,,,,,,,,3,,,41,0
390480,note_on,240,0,1,,,,,,,,,0,,,76,0
390480,note_on,0,0,1,,,,,,,,,0,,,77,62
390720,note_on,0,0,1,,,,,,,,,0,,,78,62
390720,note_on,240,0,1,,,,,,,,,0,,,77,0
390960,note_on,0,0,1,,,,,,,,,0,,,79,62
390960,note_on,240,0,1,,,,,,,,,0,,,78,0
391200,note_on,0,0,1,,,,,,,,,0,,,80,62
391200,note_on,0,0,3,,,,,,,,,2,,,52,0
391200,note_on,960,0,3,,,,,,,,,2,,,55,0
391200,note_on,960,0,2,,,,,,,,,1,,,60,0
391200,note_on,240,0,1,,,,,,,,,0,,,79,0
391200,note_on,0,0,3,,,,,,,,,2,,,55,62
391200,note_on,0,0,3,,,,,,,,,2,,,53,62
391200,note_on,0,0,2,,,,,,,,,1,,,64,75
391200,note_on,960,0,4,,,,,,,,,3,,,43,0
391200,note_on,0,0,4,,,,,,,,,3,,,43,49
391440,note_on,240,0,1,,,,,,,,,0,,,80,0
391440,note_on,0,0,1,,,,,,,,,0,,,81,62
391680,note_on,240,0,1,,,,,,,,,0,,,81,0
391680,note_on,0,0,1,,,,,,,,,0,,,82,62
391680,note_on,0,0,2,,,,,,,,,1,,,62,75
391680,note_on,480,0,2,,,,,,,,,1,,,64,0
391680,control_change,0,0,2,,,,,,,,,1,64,0,,
391920,note_on,240,0,1,,,,,,,,,0,,,82,0
391920,note_on,0,0,1,,,,,,,,,0,,,83,62
392160,note_on,0,0,4,,,,,,,,,3,,,48,62
392160,note_on,0,0,2,,,,,,,,,1,,,60,75
392160,note_on,480,0,2,,,,,,,,,1,,,62,0
392160,note_on,0,0,3,,,,,,,,,2,,,55,62
392160,note_on,0,0,3,,,,,,,,,2,,,52,62
392160,note_on,960,0,3,,,,,,,,,2,,,55,0
392160,note_on,960,0,4,,,,,,,,,3,,,43,0
392160,note_on,240,0,1,,,,,,,,,0,,,83,0
392160,note_on,0,0,1,,,,,,,,,0,,,84,62
392160,note_on,0,0,3,,,,,,,,,2,,,53,0
392640,note_on,0,0,1,,,,,,,,,0,,,64,62
392640,note_on,0,0,3,,,,,,,,,2,,,52,0
392640,note_on,480,0,1,,,,,,,,,0,,,84,0
392640,note_on,480,0,2,,,,,,,,,1,,,60,0
392640,note_on,480,0,3,,,,,,,,,2,,,55,0
392880,note_on,0,0,1,,,,,,,,,0,,,65,62
392880,note_on,240,0,1,,,,,,,,,0,,,64,0
393120,note_on,0,0,1,,,,,,,,,0,,,67,62
393120,note_on,240,0,1,,,,,,,,,0,,,65,0
393360,note_on,240,0,1,,,,,,,,,0,,,67,0
393360,note_on,0,0,1,,,,,,,,,0,,,69,62
393600,note_on,240,0,1,,,,,,,,,0,,,69,0
393600,note_on,960,0,2,,,,,,,,,1,,,67,75
393600,note_on,0,0,4,,,,,,,,,3,,,52,62
393600,note_on,1440,0,4,,,,,,,,,3,,,48,0
393600,note_on,0,0,1,,,,,,,,,0,,,71,62
393840,note_on,240,0,1,,,,,,,,,0,,,71,0
393840,note_on,0,0,1,,,,,,,,,0,,,72,62
394080,note_on,0,0,1,,,,,,,,,0,,,74,62
394080,note_on,240,0,1,,,,,,,,,0,,,72,0
394080,note_on,1440,0,3,,,,,,,,,2,,,55,62
394080,note_on,0,0,2,,,,,,,,,1,,,67,75
394080,note_on,480,0,4,,,,,,,,,3,,,52,0
394080,note_on,0,0,4,,,,,,,,,3,,,48,62
394080,note_on,480,0,2,,,,,,,,,1,,,67,0
394320,note_on,240,0,1,,,,,,,,,0,,,74,0
394320,note_on,0,0,1,,,,,,,,,0,,,76,62
394560,note_on,480,0,4,,,,,,,,,3,,,48,0
394560,note_on,0,0,4,,,,,,,,,3,,,47,62
394560,note_on,240,0,1,,,,,,,,,0,,,76,0
394560,note_on,0,0,1,,,,,,,,,0,,,74,62
394800,note_on,240,0,1,,,,,,,,,0,,,74,0
394800,note_on,0,0,1,,,,,,,,,0,,,73,62
395040,note_on,960,0,2,,,,,,,,,1,,,67,0
395040,note_on,0,0,1,,,,,,,,,0,,,74,62
395040,note_on,240,0,1,,,,,,,,,0,,,73,0
395040,note_on,480,0,4,,,,,,,,,3,,,47,0
395280,note_on,0,0,1,,,,,,,,,0,,,71,62
395280,note_on,240,0,1,,,,,,,,,0,,,74,0
395520,note_on,1440,0,3,,,,,,,,,2,,,55,0
395520,note_on,0,0,3,,,,,,,,,2,,,57,62
395520,note_on,240,0,1,,,,,,,,,0,,,71,0
395520,note_on,0,0,1,,,,,,,,,0,,,67,62
395760,note_on,0,0,1,,,,,,,,,0,,,65,62
395760,note_on,240,0,1,,,,,,,,,0,,,67,0
396000,note_on,0,0,1,,,,,,,,,0,,,64,62
396000,note_on,480,0,3,,,,,,,,,2,,,57,0
396000,note_on,0,0,3,,,,,,,,,2,,,57,62
396000,note_on,960,0,4,,,,,,,,,3,,,48,62
396000,note_on,240,0,1,,,,,,,,,0,,,65,0
396240,note_on,0,0,1,,,,,,,,,0,,,65,62
396240,note_on,240,0,1,,,,,,,,,0,,,64,0
396480,note_on,240,0,1,,,,,,,,,0,,,65,0
396480,note_on,0,0,3,,,,,,,,,2,,,55,62
396480,note_on,0,0,1,,,,,,,,,0,,,67,62
396480,note_on,480,0,3,,,,,,,,,2,,,57,0
396720,note_on,240,0,1,,,,,,,,,0,,,67,0
396720,note_on,0,0,1,,,,,,,,,0,,,69,62
396960,note_on,240,0,1,,,,,,,,,0,,,69,0
396960,note_on,0,0,1,,,,,,,,,0,,,67,62
396960,note_on,480,0,3,,,,,,,,,2,,,55,0
397200,note_on,240,0,1,,,,,,,,,0,,,67,0
397200,note_on,0,0,1,,,,,,,,,0,,,69,62
397440,note_on,1440,0,4,,,,,,,,,3,,,48,0
397440,note_on,0,0,4,,,,,,,,,3,,,52,62
397440,note_on,2400,0,2,,,,,,,,,1,,,64,75
397440,note_on,0,0,1,,,,,,,,,0,,,71,62
397440,note_on,240,0,1,,,,,,,,,0,,,69,0
397680,note_on,0,0,1,,,,,,,,,0,,,72,62
397680,note_on,240,0,1,,,,,,,,,0,,,71,0
397920,note_on,240,0,1,,,,,,,,,0,,,72,0
397920,note_on,0,0,1,,,,,,,,,0,,,74,62
397920,note_on,960,0,3,,,,,,,,,2,,,55,62
397920,note_on,0,0,2,,,,,,,,,1,,,64,75
397920,note_on,480,0,4,,,,,,,,,3,,,52,0
397920,note_on,0,0,4,,,,,,,,,3,,,48,62
397920,note_on,480,0,2,,,,,,,,,1,,,64,0
398160,note_on,240,0,1,,,,,,,,,0,,,74,0
398160,note_on,0,0,1,,,,,,,,,0,,,76,62
398400,note_on,480,0,4,,,,,,,,,3,,,48,0
398400,note_on,0,0,4,,,,,,,,,3,,,47,62
398400,note_on,0,0,1,,,,,,,,,0,,,74,62
398400,note_on,240,0,1,,,,,,,,,0,,,76,0
398640,note_on,0,0,1,,,,,,,,,0,,,73,62
398640,note_on,240,0,1,,,,,,,,,0,,,74,0
398880,note_on,0,0,1,,,,,,,,,0,,,74,62
398880,note_on,240,0,1,,,,,,,,,0,,,73,0
398880,note_on,960,0,2,,,,,,,,,1,,,64,0
398880,note_on,480,0,4,,,,,,,,,3,,,47,0
399120,note_on,0,0,1,,,,,,,,,0,,,71,62
399120,note_on,240,0,1,,,,,,,,,0,,,74,0
399360,note_on,1440,0,3,,,,,,,,,2,,,55,0
399360,note_on,0,0,3,,,,,,,,,2,,,57,62
399360,note_on,0,0,1,,,,,,,,,0,,,67,62
399360,note_on,240,0,1,,,,,,,,,0,,,71,0
399600,note_on,240,0,1,,,,,,,,,0,,,67,0
399600,note_on,0,0,1,,,,,,,,,0,,,65,62
399840,note_on,480,0,3,,,,,,,,,2,,,57,0
399840,control_change,0,0,3,,,,,,,,,2,64,127,,
399840,note_on,0,0,3,,,,,,,,,2,,,57,62
399840,note_on,240,0,1,,,,,,,,,0,,,65,0
399840,note_on,0,0,1,,,,,,,,,0,,,64,62
399840,note_on,960,0,4,,,,,,,,,3,,,48,62
400080,note_on,0,0,1,,,,,,,,,0,,,65,62
400080,note_on,240,0,1,,,,,,,,,0,,,64,0
400320,note_on,0,0,1,,,,,,,,,0,,,67,62
400320,control_change,1440,0,2,,,,,,,,,1,64,127,,
400320,note_on,0,0,2,,,,,,,,,1,,,64,75
400320,note_on,0,0,3,,,,,,,,,2,,,55,62
400320,note_on,480,0,3,,,,,,,,,2,,,57,0
400320,note_on,240,0,1,,,,,,,,,0,,,65,0
400560,note_on,0,0,1,,,,,,,,,0,,,68,62
400560,note_on,240,0,1,,,,,,,,,0,,,67,0
400800,note_on,0,0,1,,,,,,,,,0,,,69,62
400800,note_on,960,0,4,,,,,,,,,3,,,48,0
400800,note_on,0,0,4,,,,,,,,,3,,,41,62
400800,note_on,0,0,3,,,,,,,,,2,,,57,62
400800,note_on,240,0,1,,,,,,,,,0,,,68,0
400800,note_on,0,0,2,,,,,,,,,1,,,65,75
400800,note_on,480,0,2,,,,,,,,,1,,,64,0
400800,note_on,480,0,3,,,,,,,,,2,,,55,0
401040,note_on,240,0,1,,,,,,,,,0,,,69,0
401040,note_on,0,0,1,,,,,,,,,0,,,71,62
401280,note_on,0,0,2,,,,,,,,,1,,,62,75
401280,control_change,0,0,2,,,,,,,,,1,64,0,,
401280,note_on,480,0,2,,,,,,,,,1,,,65,0
401280,note_on,480,0,3,,,,,,,,,2,,,57,0
401280,note_on,0,0,1,,,,,,,,,0,,,72,62
401280,note_on,240,0,1,,,,,,,,,0,,,71,0
401280,note_on,0,0,3,,,,,,,,,2,,,53,62
401280,control_change,0,0,3,,,,,,,,,2,64,0,,
401520,note_on,240,0,1,,,,,,,,,0,,,72,0
401520,note_on,0,0,1,,,,,,,,,0,,,74,62
401760,note_on,240,0,1,,,,,,,,,0,,,74,0
401760,note_on,0,0,1,,,,,,,,,0,,,76,62
401760,note_on,480,0,3,,,,,,,,,2,,,53,0
401760,control_change,0,0,3,,,,,,,,,2,64,127,,
401760,note_on,0,0,2,,,,,,,,,1,,,60,75
401760,control_change,0,0,2,,,,,,,,,1,64,127,,
401760,note_on,480,0,2,,,,,,,,,1,,,62,0
401760,note_on,0,0,3,,,,,,,,,2,,,52,62
401760,note_on,0,0,4,,,,,,,,,3,,,43,62
401760,note_on,960,0,4,,,,,,,,,3,,,41,0
402000,note_on,0,0,1,,,,,,,,,0,,,77,62
402000,note_on,240,0,1,,,,,,,,,0,,,76,0
402240,note_on,240,0,1,,,,,,,,,0,,,77,0
402240,note_on,0,0,1,,,,,,,,,0,,,78,62
402480,note_on,240,0,1,,,,,,,,,0,,,78,0
402480,note_on,0,0,1,,,,,,,,,0,,,79,62
402720,note_on,960,0,2,,,,,,,,,1,,,60,0
402720,note_on,960,0,4,,,,,,,,,3,,,43,0
402720,note_on,0,0,4,,,,,,,,,3,,,43,62
402720,note_on,960,0,3,,,,,,,,,2,,,52,0
402720,note_on,0,0,3,,,,,,,,,2,,,55,62
402720,note_on,240,0,1,,,,,,,,,0,,,79,0
402720,note_on,0,0,1,,,,,,,,,0,,,80,62
402720,note_on,0,0,2,,,,,,,,,1,,,64,75
402960,note_on,0,0,1,,,,,,,,,0,,,81,62
402960,note_on,240,0,1,,,,,,,,,0,,,80,0
403200,note_on,240,0,1,,,,,,,,,0,,,81,0
403200,control_change,0,0,2,,,,,,,,,1,64,0,,
403200,note_on,0,0,2,,,,,,,,,1,,,62,75
403200,note_on,0,0,3,,,,,,,,,2,,,53,62
403200,control_change,0,0,3,,,,,,,,,2,64,0,,
403200,note_on,480,0,3,,,,,,,,,2,,,55,0
403200,note_on,480,0,2,,,,,,,,,1,,,64,0
403200,note_on,0,0,1,,,,,,,,,0,,,82,62
403440,note_on,0,0,1,,,,,,,,,0,,,83,62
403440,note_on,240,0,1,,,,,,,,,0,,,82,0
403680,note_on,0,0,1,,,,,,,,,0,,,84,62
403680,note_on,240,0,1,,,,,,,,,0,,,83,0
403680,note_on,0,0,4,,,,,,,,,3,,,36,88
403680,note_on,960,0,4,,,,,,,,,3,,,43,0
403680,note_on,0,0,3,,,,,,,,,2,,,48,88
403680,note_on,480,0,3,,,,,,,,,2,,,53,0
403680,note_on,480,0,2,,,,,,,,,1,,,62,0
403680,note_on,0,0,2,,,,,,,,,1,,,60,75
403920,note_on,240,0,2,,,,,,,,,1,,,60,0
404160,note_on,0,0,2,,,,,,,,,1,,,60,88
404160,note_on,480,0,1,,,,,,,,,0,,,84,0
404160,control_change,240,0,2,,,,,,,,,1,64,127,,
404400,note_on,240,0,2,,,,,,,,,1,,,60,0
404400,note_on,0,0,2,,,,,,,,,1,,,62,88
404640,note_on,240,0,2,,,,,,,,,1,,,62,0
404640,note_on,0,0,2,,,,,,,,,1,,,64,88
404880,note_on,240,0,2,,,,,,,,,1,,,64,0
404880,note_on,0,0,2,,,,,,,,,1,,,65,88
405120,note_on,0,0,3,,,,,,,,,2,,,52,88
405120,note_on,1440,0,4,,,,,,,,,3,,,36,0
405120,note_on,240,0,2,,,,,,,,,1,,,65,0
405120,note_on,0,0,2,,,,,,,,,1,,,67,88
405120,note_on,0,0,4,,,,,,,,,3,,,40,88
405120,note_on,1440,0,3,,,,,,,,,2,,,48,0
405360,note_on,240,0,2,,,,,,,,,1,,,67,0
405360,control_change,0,0,2,,,,,,,,,1,64,0,,
405360,note_on,0,0,2,,,,,,,,,1,,,64,88
405600,note_on,0,0,4,,,,,,,,,3,,,34,114
405600,note_on,480,0,4,,,,,,,,,3,,,40,0
405600,note_on,480,0,3,,,,,,,,,2,,,52,0
405600,note_on,0,0,2,,,,,,,,,1,,,60,88
405600,note_on,240,0,2,,,,,,,,,1,,,64,0
405600,note_on,0,0,3,,,,,,,,,2,,,46,114
405840,note_on,240,0,2,,,,,,,,,1,,,60,0
406080,note_on,1920,0,1,,,,,,,,,0,,,73,62
406080,note_on,0,0,1,,,,,,,,,0,,,76,62
406080,note_on,0,0,2,,,,,,,,,1,,,69,88
406080,note_on,480,0,4,,,,,,,,,3,,,34,0
406080,note_on,0,0,1,,,,,,,,,0,,,81,62
406080,note_on,0,0,2,,,,,,,,,1,,,64,88
406080,note_on,0,0,4,,,,,,,,,3,,,33,88
406080,note_on,480,0,3,,,,,,,,,2,,,46,0
406080,note_on,0,0,3,,,,,,,,,2,,,45,88
406080,note_on,240,0,2,,,,,,,,,1,,,61,88
406127,note_on,47,0,1,,,,,,,,,0,,,81,0
406127,note_on,47,0,2,,,,,,,,,1,,,69,0
406127,note_on,0,0,2,,,,,,,,,1,,,64,0
406127,note_on,0,0,2,,,,,,,,,1,,,61,0
406127,note_on,0,0,1,,,,,,,,,0,,,76,0
406127,note_on,0,0,1,,,,,,,,,0,,,73,0
406560,note_on,0,0,2,,,,,,,,,1,,,73,88
406560,note_on,0,0,2,,,,,,,,,1,,,69,88
406560,note_on,433,0,1,,,,,,,,,0,,,76,62
406560,note_on,480,0,4,,,,,,,,,3,,,33,0
406560,note_on,0,0,1,,,,,,,,,0,,,81,62
406560,note_on,0,0,1,,,,,,,,,0,,,85,62
406560,note_on,480,0,3,,,,,,,,,2,,,45,0
406560,note_on,433,0,2,,,,,,,,,1,,,64,88
406607,note_on,47,0,2,,,,,,,,,1,,,73,0
406607,note_on,0,0,2,,,,,,,,,1,,,69,0
406607,note_on,0,0,2,,,,,,,,,1,,,64,0
406607,note_on,0,0,1,,,,,,,,,0,,,81,0
406607,note_on,47,0,1,,,,,,,,,0,,,85,0
406607,note_on,0,0,1,,,,,,,,,0,,,76,0
407040,note_on,0,0,2,,,,,,,,,1,,,73,88
407040,note_on,0,0,2,,,,,,,,,1,,,76,88
407040,note_on,0,0,1,,,,,,,,,0,,,88,62
407040,note_on,0,0,1,,,,,,,,,0,,,85,62
407040,note_on,433,0,1,,,,,,,,,0,,,81,62
407040,note_on,433,0,2,,,,,,,,,1,,,69,88
407087,note_on,0,0,2,,,,,,,,,1,,,73,0
407087,note_on,47,0,2,,,,,,,,,1,,,76,0
407087,note_on,0,0,2,,,,,,,,,1,,,69,0
407087,note_on,47,0,1,,,,,,,,,0,,,88,0
407087,note_on,0,0,1,,,,,,,,,0,,,85,0
407087,note_on,0,0,1,,,,,,,,,0,,,81,0
407520,note_on,0,0,1,,,,,,,,,0,,,79,88
407520,note_on,960,0,3,,,,,,,,,2,,,50,88
407520,note_on,0,0,1,,,,,,,,,0,,,88,88
407520,note_on,0,0,2,,,,,,,,,1,,,81,88
407520,note_on,433,0,2,,,,,,,,,1,,,69,88
407520,note_on,433,0,1,,,,,,,,,0,,,76,88
407520,note_on,960,0,4,,,,,,,,,3,,,38,88
407520,note_on,0,0,1,,,,,,,,,0,,,91,88
408000,note_on,0,0,1,,,,,,,,,0,,,76,0
408000,note_on,480,0,1,,,,,,,,,0,,,91,0
408000,note_on,0,0,1,,,,,,,,,0,,,86,62
408000,note_on,0,0,1,,,,,,,,,0,,,77,62
408000,note_on,0,0,1,,,,,,,,,0,,,88,0
408000,note_on,0,0,1,,,,,,,,,0,,,89,62
408000,note_on,0,0,1,,,,,,,,,0,,,74,62
408000,note_on,0,0,1,,,,,,,,,0,,,79,0
408480,note_on,0,0,2,,,,,,,,,1,,,62,88
408480,control_change,0,0,2,,,,,,,,,1,64,127,,
408480,note_on,960,0,2,,,,,,,,,1,,,81,0
408480,note_on,480,0,1,,,,,,,,,0,,,89,0
408480,note_on,0,0,1,,,,,,,,,0,,,74,0
408480,note_on,0,0,1,,,,,,,,,0,,,77,0
408480,note_on,0,0,1,,,,,,,,,0,,,86,0
408480,note_on,0,0,2,,,,,,,,,1,,,69,0
408720,note_on,0,0,2,,,,,,,,,1,,,64,88
408720,note_on,240,0,2,,,,,,,,,1,,,62,0
408960,note_on,1440,0,4,,,,,,,,,3,,,38,0
408960,note_on,0,0,4,,,,,,,,,3,,,41,88
408960,note_on,0,0,3,,,,,,,,,2,,,53,88
408960,note_on,0,0,2,,,,,,,,,1,,,62,88
408960,note_on,240,0,2,,,,,,,,,1,,,64,0
408960,note_on,1440,0,3,,,,,,,,,2,,,50,0
409200,note_on,240,0,2,,,,,,,,,1,,,62,0
409200,note_on,0,0,2,,,,,,,,,1,,,60,88
409440,note_on,240,0,2,,,,,,,,,1,,,60,0
409440,control_change,0,0,2,,,,,,,,,1,64,0,,
409440,note_on,0,0,2,,,,,,,,,1,,,59,88
409440,note_on,480,0,3,,,,,,,,,2,,,53,0
409440,note_on,0,0,3,,,,,,,,,2,,,44,114
409440,note_on,480,0,4,,,,,,,,,3,,,41,0
409440,note_on,0,0,4,,,,,,,,,3,,,32,114
409920,note_on,1440,0,1,,,,,,,,,0,,,71,62
409920,note_on,480,0,3,,,,,,,,,2,,,44,0
409920,note_on,480,0,4,,,,,,,,,3,,,32,0
409920,note_on,0,0,4,,,,,,,,,3,,,31,88
409920,note_on,0,0,2,,,,,,,,,1,,,67,88
409920,note_on,0,0,2,,,,,,,,,1,,,59,88
409920,note_on,480,0,2,,,,,,,,,1,,,59,0
409920,note_on,0,0,3,,,,,,,,,2,,,43,88
409920,note_on,0,0,1,,,,,,,,,0,,,74,62
409920,note_on,0,0,2,,,,,,,,,1,,,62,88
409920,note_on,0,0,1,,,,,,,,,0,,,79,62
409967,note_on,47,0,1,,,,,,,,,0,,,79,0
409967,note_on,0,0,2,,,,,,,,,1,,,59,0
409967,note_on,0,0,2,,,,,,,,,1,,,62,0
409967,note_on,47,0,2,,,,,,,,,1,,,67,0
409967,note_on,0,0,1,,,,,,,,,0,,,74,0
409967,note_on,0,0,1,,,,,,,,,0,,,71,0
410400,note_on,480,0,4,,,,,,,,,3,,,31,0
410400,note_on,433,0,1,,,,,,,,,0,,,74,62
410400,note_on,0,0,2,,,,,,,,,1,,,71,88
410400,note_on,0,0,2,,,,,,,,,1,,,67,88
410400,note_on,433,0,2,,,,,,,,,1,,,62,88
410400,note_on,0,0,1,,,,,,,,,0,,,83,62
410400,note_on,0,0,1,,,,,,,,,0,,,79,62
410400,note_on,480,0,3,,,,,,,,,2,,,43,0
410447,note_on,0,0,1,,,,,,,,,0,,,79,0
410447,note_on,47,0,1,,,,,,,,,0,,,83,0
410447,note_on,0,0,2,,,,,,,,,1,,,62,0
410447,note_on,47,0,2,,,,,,,,,1,,,71,0
410447,note_on,0,0,1,,,,,,,,,0,,,74,0
410447,note_on,0,0,2,,,,,,,,,1,,,67,0
410880,note_on,0,0,1,,,,,,,,,0,,,83,62
410880,note_on,0,0,1,,,,,,,,,0,,,86,62
410880,note_on,0,0,2,,,,,,,,,1,,,71,88
410880,note_on,0,0,2,,,,,,,,,1,,,74,88
410880,note_on,433,0,2,,,,,,,,,1,,,67,88
410880,note_on,433,0,1,,,,,,,,,0,,,79,62
410927,note_on,0,0,2,,,,,,,,,1,,,67,0
410927,note_on,0,0,2,,,,,,,,,1,,,71,0
410927,note_on,47,0,2,,,,,,,,,1,,,74,0
410927,note_on,0,0,1,,,,,,,,,0,,,79,0
410927,note_on,0,0,1,,,,,,,,,0,,,83,0
410927,note_on,47,0,1,,,,,,,,,0,,,86,0
411360,note_on,0,0,1,,,,,,,,,0,,,89,88
411360,note_on,0,0,1,,,,,,,,,0,,,86,88
411360,note_on,0,0,1,,,,,,,,,0,,,77,88
411360,note_on,433,0,1,,,,,,,,,0,,,74,88
411360,note_on,433,0,2,,,,,,,,,1,,,67,88
411360,note_on,0,0,2,,,,,,,,,1,,,79,88
411840,note_on,480,0,1,,,,,,,,,0,,,89,0
411840,note_on,0,0,1,,,,,,,,,0,,,74,0
411840,note_on,1440,0,3,,,,,,,,,2,,,60,88
411840,note_on,1440,0,4,,,,,,,,,3,,,48,88
411840,note_on,0,0,1,,,,,,,,,0,,,86,0
411840,note_on,0,0,1,,,,,,,,,0,,,72,62
411840,note_on,0,0,1,,,,,,,,,0,,,76,62
411840,note_on,0,0,1,,,,,,,,,0,,,84,62
411840,note_on,0,0,1,,,,,,,,,0,,,88,62
411840,note_on,0,0,1,,,,,,,,,0,,,77,0
411887,note_on,47,0,4,,,,,,,,,3,,,48,0
411887,note_on,47,0,3,,,,,,,,,2,,,60,0
412320,note_on,433,0,4,,,,,,,,,3,,,51,114
412320,note_on,433,0,3,,,,,,,,,2,,,63,114
412320,note_on,0,0,1,,,,,,,,,0,,,83,88
412320,note_on,0,0,1,,,,,,,,,0,,,71,88
412320,note_on,0,0,1,,,,,,,,,0,,,84,0
412320,note_on,480,0,1,,,,,,,,,0,,,88,0
412320,note_on,0,0,2,,,,,,,,,1,,,79,88
412320,note_on,0,0,2,,,,,,,,,1,,,67,88
412320,note_on,0,0,1,,,,,,,,,0,,,72,0
412320,note_on,0,0,2,,,,,,,,,1,,,67,0
412320,note_on,960,0,2,,,,,,,,,1,,,79,0
412320,note_on,0,0,1,,,,,,,,,0,,,76,0
412800,note_on,0,0,1,,,,,,,,,0,,,71,0
412800,note_on,480,0,3,,,,,,,,,2,,,63,0
412800,note_on,0,0,3,,,,,,,,,2,,,64,88
412800,note_on,480,0,1,,,,,,,,,0,,,83,0
412800,note_on,0,0,1,,,,,,,,,0,,,84,62
412800,note_on,0,0,1,,,,,,,,,0,,,72,62
412800,note_on,0,0,4,,,,,,,,,3,,,52,88
412800,note_on,480,0,4,,,,,,,,,3,,,51,0
413280,note_on,0,0,1,,,,,,,,,0,,,68,88
413280,note_on,480,0,1,,,,,,,,,0,,,84,0
413280,note_on,0,0,1,,,,,,,,,0,,,72,0
413280,note_on,0,0,1,,,,,,,,,0,,,80,88
413280,note_on,480,0,3,,,,,,,,,2,,,64,0
413280,note_on,480,0,4,,,,,,,,,3,,,52,0
413280,note_on,0,0,2,,,,,,,,,1,,,60,88
413280,note_on,0,0,4,,,,,,,,,3,,,40,114
413280,note_on,960,0,2,,,,,,,,,1,,,79,0
413280,note_on,0,0,2,,,,,,,,,1,,,72,88
413280,note_on,0,0,3,,,,,,,,,2,,,52,114
413280,note_on,0,0,2,,,,,,,,,1,,,67,0
413760,note_on,0,0,1,,,,,,,,,0,,,81,62
413760,note_on,0,0,1,,,,,,,,,0,,,69,62
413760,note_on,0,0,1,,,,,,,,,0,,,68,0
413760,note_on,480,0,1,,,,,,,,,0,,,80,0
413760,note_on,480,0,3,,,,,,,,,2,,,52,0
413760,note_on,0,0,4,,,,,,,,,3,,,41,88
413760,note_on,480,0,4,,,,,,,,,3,,,40,0
413760,note_on,0,0,3,,,,,,,,,2,,,53,88
414240,note_on,480,0,4,,,,,,,,,3,,,41,0
414240,note_on,0,0,4,,,,,,,,,3,,,44,114
414240,note_on,0,0,1,,,,,,,,,0,,,69,0
414240,note_on,0,0,2,,,,,,,,,1,,,72,88
414240,note_on,0,0,3,,,,,,,,,2,,,56,114
414240,note_on,480,0,1,,,,,,,,,0,,,81,0
414240,note_on,0,0,1,,,,,,,,,0,,,76,88
414240,note_on,0,0,2,,,,,,,,,1,,,60,0
414240,note_on,0,0,2,,,,,,,,,1,,,60,88
414240,note_on,0,0,1,,,,,,,,,0,,,64,88
414240,note_on,480,0,3,,,,,,,,,2,,,53,0
414240,note_on,960,0,2,,,,,,,,,1,,,72,0
414720,note_on,480,0,4,,,,,,,,,3,,,44,0
414720,note_on,0,0,4,,,,,,,,,3,,,45,88
414720,note_on,0,0,1,,,,,,,,,0,,,77,62
414720,note_on,0,0,1,,,,,,,,,0,,,65,62
414720,note_on,0,0,1,,,,,,,,,0,,,64,0
414720,note_on,480,0,1,,,,,,,,,0,,,76,0
414720,note_on,0,0,3,,,,,,,,,2,,,57,88
414720,note_on,480,0,3,,,,,,,,,2,,,56,0
415200,note_on,960,0,2,,,,,,,,,1,,,72,0
415200,note_on,0,0,2,,,,,,,,,1,,,67,88
415200,note_on,0,0,4,,,,,,,,,3,,,46,88
415200,note_on,0,0,2,,,,,,,,,1,,,72,88
415200,note_on,0,0,3,,,,,,,,,2,,,60,88
415200,note_on,480,0,3,,,,,,,,,2,,,57,0
415200,note_on,0,0,2,,,,,,,,,1,,,60,0
415200,note_on,480,0,4,,,,,,,,,3,,,45,0
415200,note_on,0,0,4,,,,,,,,,3,,,58,88
415200,note_on,480,0,1,,,,,,,,,0,,,77,0
415200,note_on,0,0,1,,,,,,,,,0,,,65,0
415200,note_on,0,0,1,,,,,,,,,0,,,79,114
415920,note_on,720,0,1,,,,,,,,,0,,,79,0
415920,note_on,0,0,1,,,,,,,,,0,,,81,88
416160,note_on,240,0,1,,,,,,,,,0,,,81,0
416160,note_on,0,0,1,,,,,,,,,0,,,79,88
416400,note_on,240,0,1,,,,,,,,,0,,,79,0
416400,note_on,0,0,1,,,,,,,,,0,,,77,88
416640,note_on,0,0,4,,,,,,,,,3,,,57,62
416640,note_on,0,0,4,,,,,,,,,3,,,45,62
416640,note_on,0,0,4,,,,,,,,,3,,,46,0
416640,note_on,0,0,1,,,,,,,,,0,,,76,75
416640,note_on,240,0,1,,,,,,,,,0,,,77,0
416640,note_on,1440,0,4,,,,,,,,,3,,,58,0
416640,note_on,0,0,2,,,,,,,,,1,,,65,62
416640,note_on,0,0,2,,,,,,,,,1,,,67,0
416640,note_on,1440,0,2,,,,,,,,,1,,,72,0
416880,note_on,240,0,1,,,,,,,,,0,,,76,0
416880,note_on,0,0,1,,,,,,,,,0,,,74,75
417060,note_on,180,0,1,,,,,,,,,0,,,74,75
417120,note_on,0,0,3,,,,,,,,,2,,,60,62
417120,note_on,480,0,4,,,,,,,,,3,,,57,0
417120,note_on,0,0,4,,,,,,,,,3,,,45,0
417120,note_on,0,0,4,,,,,,,,,3,,,43,62
417120,note_on,1920,0,3,,,,,,,,,2,,,60,0
417120,note_on,0,0,1,,,,,,,,,0,,,72,75
417120,note_on,480,0,2,,,,,,,,,1,,,65,0
417120,note_on,60,0,1,,,,,,,,,0,,,74,0
417120,note_on,0,0,1,,,,,,,,,0,,,74,0
417120,control_change,0,0,2,,,,,,,,,1,64,127,,
417120,note_on,0,0,3,,,,,,,,,2,,,55,62
417120,note_on,0,0,2,,,,,,,,,1,,,64,62
417167,note_on,47,0,3,,,,,,,,,2,,,60,0
417167,note_on,0,0,3,,,,,,,,,2,,,55,0
417167,note_on,47,0,4,,,,,,,,,3,,,43,0
417167,note_on,47,0,1,,,,,,,,,0,,,72,0
417360,note_on,240,0,2,,,,,,,,,1,,,64,0
417360,note_on,0,0,2,,,,,,,,,1,,,67,62
417600,note_on,0,0,3,,,,,,,,,2,,,60,62
417600,note_on,433,0,3,,,,,,,,,2,,,55,62
417600,note_on,0,0,2,,,,,,,,,1,,,64,62
417600,note_on,240,0,2,,,,,,,,,1,,,67,0
417600,note_on,433,0,4,,,,,,,,,3,,,43,62
417600,note_on,433,0,1,,,,,,,,,0,,,72,75
417647,note_on,47,0,4,,,,,,,,,3,,,43,0
417647,note_on,0,0,3,,,,,,,,,2,,,55,0
417647,note_on,47,0,3,,,,,,,,,2,,,60,0
417647,note_on,47,0,1,,,,,,,,,0,,,72,0
417840,note_on,240,0,2,,,,,,,,,1,,,64,0
417840,note_on,0,0,2,,,,,,,,,1,,,67,62
418020,note_on,373,0,1,,,,,,,,,0,,,72,75
418080,note_on,240,0,2,,,,,,,,,1,,,67,0
418080,note_on,0,0,1,,,,,,,,,0,,,71,75
418080,note_on,60,0,1,,,,,,,,,0,,,72,0
418080,note_on,433,0,3,,,,,,,,,2,,,55,62
418080,note_on,433,0,4,,,,,,,,,3,,,43,62
418080,note_on,0,0,2,,,,,,,,,1,,,65,62
418080,note_on,0,0,3,,,,,,,,,2,,,62,62
418127,note_on,47,0,1,,,,,,,,,0,,,71,0
418127,note_on,47,0,4,,,,,,,,,3,,,43,0
418127,note_on,0,0,3,,,,,,,,,2,,,55,0
418127,note_on,47,0,3,,,,,,,,,2,,,62,0
418320,note_on,240,0,2,,,,,,,,,1,,,65,0
418320,note_on,0,0,2,,,,,,,,,1,,,67,62
418560,note_on,433,0,1,,,,,,,,,0,,,71,75
418560,note_on,0,0,2,,,,,,,,,1,,,65,62
418560,note_on,0,0,3,,,,,,,,,2,,,62,62
418560,note_on,433,0,3,,,,,,,,,2,,,55,62
418560,note_on,240,0,2,,,,,,,,,1,,,67,0
418560,note_on,433,0,4,,,,,,,,,3,,,43,62
418607,note_on,0,0,3,,,,,,,,,2,,,55,0
418607,note_on,47,0,1,,,,,,,,,0,,,71,0
418607,note_on,47,0,4,,,,,,,,,3,,,43,0
418607,note_on,47,0,3,,,,,,,,,2,,,62,0
418800,note_on,240,0,2,,,,,,,,,1,,,65,0
418800,note_on,0,0,2,,,,,,,,,1,,,67,62
419040,note_on,433,0,1,,,,,,,,,0,,,72,88
419040,note_on,0,0,2,,,,,,,,,1,,,64,62
419040,note_on,0,0,4,,,,,,,,,3,,,48,88
419040,note_on,433,0,4,,,,,,,,,3,,,36,88
419040,control_change,0,0,2,,,,,,,,,1,64,0,,
419040,note_on,0,0,3,,,,,,,,,2,,,60,88
419040,note_on,433,0,3,,,,,,,,,2,,,55,88
419040,note_on,240,0,2,,,,,,,,,1,,,67,0
419280,note_on,240,0,2,,,,,,,,,1,,,64,0
419520,note_on,0,0,3,,,,,,,,,2,,,55,0
419520,note_on,480,0,3,,,,,,,,,2,,,60,0
419520,note_on,0,0,2,,,,,,,,,1,,,60,88
419520,note_on,480,0,1,,,,,,,,,0,,,72,0
419520,control_change,240,0,2,,,,,,,,,1,64,127,,
419760,note_on,0,0,2,,,,,,,,,1,,,62,88
419760,note_on,240,0,2,,,,,,,,,1,,,60,0
420000,note_on,0,0,2,,,,,,,,,1,,,64,88
420000,note_on,240,0,2,,,,,,,,,1,,,62,0
420240,note_on,240,0,2,,,,,,,,,1,,,64,0
420240,note_on,0,0,2,,,,,,,,,1,,,65,88
420480,note_on,0,0,4,,,,,,,,,3,,,52,88
420480,note_on,0,0,4,,,,,,,,,3,,,40,88
420480,note_on,0,0,4,,,,,,,,,3,,,36,0
420480,note_on,1440,0,4,,,,,,,,,3,,,48,0
420480,note_on,240,0,2,,,,,,,,,1,,,65,0
420480,note_on,0,0,2,,,,,,,,,1,,,67,88
420720,note_on,240,0,2,,,,,,,,,1,,,67,0
420720,control_change,0,0,2,,,,,,,,,1,64,0,,
420720,note_on,0,0,2,,,,,,,,,1,,,64,88
420960,note_on,240,0,2,,,,,,,,,1,,,64,0
420960,note_on,0,0,2,,,,,,,,,1,,,61,88
420960,note_on,0,0,4,,,,,,,,,3,,,40,0
420960,note_on,0,0,4,,,,,,,,,3,,,46,114
420960,note_on,0,0,4,,,,,,,,,3,,,34,114
420960,note_on,1440,0,1,,,,,,,,,0,,,85,88
420960,note_on,480,0,4,,,,,,,,,3,,,52,0
421200,note_on,240,0,2,,,,,,,,,1,,,61,0
421440,note_on,0,0,3,,,,,,,,,2,,,57,88
421440,note_on,0,0,3,,,,,,,,,2,,,52,88
421440,note_on,1920,0,3,,,,,,,,,2,,,49,88
421440,note_on,0,0,4,,,,,,,,,3,,,45,88
421440,note_on,0,0,4,,,,,,,,,3,,,33,88
421440,note_on,480,0,4,,,,,,,,,3,,,46,0
421440,note_on,0,0,4,,,,,,,,,3,,,34,0
421440,note_on,240,0,2,,,,,,,,,1,,,73,88
421487,note_on,47,0,3,,,,,,,,,2,,,57,0
421487,note_on,0,0,3,,,,,,,,,2,,,52,0
421487,note_on,0,0,3,,,,,,,,,2,,,49,0
421920,note_on,433,0,3,,,,,,,,,2,,,52,88
421920,note_on,0,0,3,,,,,,,,,2,,,57,88
421920,note_on,480,0,4,,,,,,,,,3,,,45,0
421920,note_on,0,0,4,,,,,,,,,3,,,33,0
421920,note_on,0,0,3,,,,,,,,,2,,,61,88
421967,note_on,47,0,3,,,,,,,,,2,,,61,0
421967,note_on,0,0,3,,,,,,,,,2,,,57,0
421967,note_on,0,0,3,,,,,,,,,2,,,52,0
422400,note_on,433,0,3,,,,,,,,,2,,,57,88
422400,note_on,0,0,3,,,,,,,,,2,,,61,88
422400,note_on,0,0,1,,,,,,,,,0,,,88,88
422400,note_on,0,0,3,,,,,,,,,2,,,64,88
422400,note_on,960,0,2,,,,,,,,,1,,,73,0
422400,note_on,0,0,2,,,,,,,,,1,,,76,88
422400,note_on,1440,0,1,,,,,,,,,0,,,85,0
422447,note_on,0,0,3,,,,,,,,,2,,,57,0
422447,note_on,47,0,3,,,,,,,,,2,,,64,0
422447,note_on,0,0,3,,,,,,,,,2,,,61,0
422447,note_on,47,0,2,,,,,,,,,1,,,76,0
422880,note_on,480,0,1,,,,,,,,,0,,,88,0
422880,note_on,0,0,1,,,,,,,,,0,,,82,114
422880,note_on,0,0,4,,,,,,,,,3,,,50,88
422880,note_on,0,0,4,,,,,,,,,3,,,57,88
422880,note_on,0,0,3,,,,,,,,,2,,,67,114
422880,note_on,433,0,3,,,,,,,,,2,,,64,114
422880,note_on,960,0,4,,,,,,,,,3,,,38,88
422880,note_on,433,0,2,,,,,,,,,1,,,70,114
423360,note_on,0,0,3,,,,,,,,,2,,,64,0
423360,note_on,0,0,3,,,,,,,,,2,,,65,88
423360,note_on,0,0,3,,,,,,,,,2,,,62,88
423360,note_on,480,0,3,,,,,,,,,2,,,67,0
423360,note_on,0,0,2,,,,,,,,,1,,,69,88
423360,note_on,0,0,1,,,,,,,,,0,,,81,88
423360,note_on,480,0,1,,,,,,,,,0,,,82,0
423360,note_on,480,0,2,,,,,,,,,1,,,70,0
423840,note_on,480,0,1,,,,,,,,,0,,,81,0
423840,note_on,480,0,2,,,,,,,,,1,,,69,0
423840,control_change,0,0,2,,,,,,,,,1,64,127,,
423840,note_on,0,0,2,,,,,,,,,1,,,69,88
423840,note_on,480,0,3,,,,,,,,,2,,,65,0
423840,note_on,0,0,3,,,,,,,,,2,,,62,0
424080,note_on,240,0,2,,,,,,,,,1,,,69,0
424080,note_on,0,0,2,,,,,,,,,1,,,67,88
424320,note_on,0,0,4,,,,,,,,,3,,,53,88
424320,note_on,1440,0,4,,,,,,,,,3,,,57,0
424320,note_on,0,0,4,,,,,,,,,3,,,50,0
424320,note_on,0,0,4,,,,,,,,,3,,,38,0
424320,note_on,0,0,4,,,,,,,,,3,,,41,88
424320,note_on,240,0,2,,,,,,,,,1,,,67,0
424320,note_on,0,0,2,,,,,,,,,1,,,65,88
424560,note_on,240,0,2,,,,,,,,,1,,,65,0
424560,note_on,0,0,2,,,,,,,,,1,,,64,88
424800,note_on,960,0,1,,,,,,,,,0,,,87,88
424800,note_on,0,0,4,,,,,,,,,3,,,48,88
424800,control_change,0,0,2,,,,,,,,,1,64,0,,
424800,note_on,0,0,2,,,,,,,,,1,,,63,88
424800,note_on,0,0,4,,,,,,,,,3,,,36,88
424800,note_on,240,0,2,,,,,,,,,1,,,64,0
424800,note_on,0,0,4,,,,,,,,,3,,,41,0
424800,note_on,480,0,4,,,,,,,,,3,,,53,0
425040,note_on,240,0,2,,,,,,,,,1,,,63,0
425280,note_on,480,0,4,,,,,,,,,3,,,48,0
425280,note_on,0,0,4,,,,,,,,,3,,,36,0
425280,note_on,0,0,4,,,,,,,,,3,,,35,88
425280,note_on,0,0,4,,,,,,,,,3,,,47,88
425280,note_on,240,0,2,,,,,,,,,1,,,75,88
425280,note_on,0,0,3,,,,,,,,,2,,,59,88
425280,note_on,0,0,3,,,,,,,,,2,,,54,88
425280,note_on,1440,0,3,,,,,,,,,2,,,51,88
425327,note_on,0,0,3,,,,,,,,,2,,,51,0
425327,note_on,0,0,3,,,,,,,,,2,,,54,0
425327,note_on,47,0,3,,,,,,,,,2,,,59,0
425760,note_on,0,0,3,,,,,,,,,2,,,63,88
425760,note_on,0,0,3,,,,,,,,,2,,,59,88
425760,note_on,433,0,3,,,,,,,,,2,,,54,88
425760,note_on,480,0,4,,,,,,,,,3,,,47,0
425760,note_on,0,0,4,,,,,,,,,3,,,35,0
425807,note_on,0,0,3,,,,,,,,,2,,,54,0
425807,note_on,47,0,3,,,,,,,,,2,,,63,0
425807,note_on,0,0,3,,,,,,,,,2,,,59,0
426240,note_on,0,0,1,,,,,,,,,0,,,90,88
426240,note_on,1440,0,1,,,,,,,,,0,,,87,0
426240,note_on,0,0,2,,,,,,,,,1,,,78,88
426240,note_on,433,0,3,,,,,,,,,2,,,59,88
426240,note_on,0,0,3,,,,,,,,,2,,,63,88
426240,note_on,0,0,3,,,,,,,,,2,,,66,88
426240,note_on,960,0,2,,,,,,,,,1,,,75,0
426287,note_on,0,0,3,,,,,,,,,2,,,59,0
426287,note_on,0,0,3,,,,,,,,,2,,,63,0
426287,note_on,47,0,3,,,,,,,,,2,,,66,0
426287,note_on,47,0,2,,,,,,,,,1,,,78,0
426720,note_on,0,0,1,,,,,,,,,0,,,84,114
426720,note_on,0,0,3,,,,,,,,,2,,,69,114
426720,note_on,0,0,3,,,,,,,,,2,,,66,114
426720,note_on,433,0,3,,,,,,,,,2,,,59,114
426720,note_on,433,0,2,,,,,,,,,1,,,72,114
426720,note_on,480,0,1,,,,,,,,,0,,,90,0
427200,note_on,480,0,2,,,,,,,,,1,,,72,0
427200,note_on,0,0,2,,,,,,,,,1,,,71,88
427200,note_on,1440,0,4,,,,,,,,,3,,,40,88
427200,note_on,0,0,4,,,,,,,,,3,,,52,88
427200,note_on,0,0,1,,,,,,,,,0,,,83,88
427200,note_on,480,0,1,,,,,,,,,0,,,84,0
427200,note_on,480,0,3,,,,,,,,,2,,,69,0
427200,note_on,0,0,3,,,,,,,,,2,,,67,88
427200,note_on,0,0,3,,,,,,,,,2,,,66,0
427247,note_on,0,0,4,,,,,,,,,3,,,40,0
427247,note_on,47,0,4,,,,,,,,,3,,,52,0
427440,note_on,0,0,3,,,,,,,,,2,,,59,0
427440,note_on,240,0,3,,,,,,,,,2,,,67,0
427680,note_on,0,0,4,,,,,,,,,3,,,55,88
427680,note_on,480,0,1,,,,,,,,,0,,,83,0
427680,note_on,433,0,4,,,,,,,,,3,,,43,88
427680,note_on,480,0,2,,,,,,,,,1,,,71,0
427727,note_on,47,0,4,,,,,,,,,3,,,55,0
427727,note_on,0,0,4,,,,,,,,,3,,,43,0
428160,note_on,433,0,4,,,,,,,,,3,,,47,88
428160,note_on,720,0,3,,,,,,,,,2,,,59,88
428207,note_on,47,0,4,,,,,,,,,3,,,47,0
428207,note_on,47,0,3,,,,,,,,,2,,,59,0
428640,note_on,433,0,4,,,,,,,,,3,,,53,114
428640,note_on,433,0,3,,,,,,,,,2,,,65,114
429120,note_on,0,0,1,,,,,,,,,0,,,76,88
429120,note_on,0,0,3,,,,,,,,,2,,,64,88
429120,note_on,480,0,3,,,,,,,,,2,,,65,0
429120,note_on,1440,0,1,,,,,,,,,0,,,68,88
429120,note_on,0,0,1,,,,,,,,,0,,,71,88
429120,note_on,480,0,4,,,,,,,,,3,,,53,0
429120,note_on,0,0,4,,,,,,,,,3,,,52,88
429167,note_on,47,0,1,,,,,,,,,0,,,76,0
429167,note_on,0,0,1,,,,,,,,,0,,,68,0
429167,note_on,0,0,1,,,,,,,,,0,,,71,0
429600,note_on,480,0,3,,,,,,,,,2,,,64,0
429600,note_on,480,0,4,,,,,,,,,3,,,52,0
429600,note_on,433,0,1,,,,,,,,,0,,,71,88
429600,note_on,0,0,1,,,,,,,,,0,,,76,88
429600,note_on,0,0,1,,,,,,,,,0,,,80,88
429647,note_on,47,0,1,,,,,,,,,0,,,80,0
429647,note_on,0,0,1,,,,,,,,,0,,,71,0
429647,note_on,0,0,1,,,,,,,,,0,,,76,0
430080,note_on,0,0,2,,,,,,,,,1,,,71,88
430080,note_on,0,0,2,,,,,,,,,1,,,68,88
430080,note_on,2400,0,2,,,,,,,,,1,,,64,88
430080,note_on,0,0,1,,,,,,,,,0,,,80,88
430080,note_on,433,0,1,,,,,,,,,0,,,76,88
430080,note_on,0,0,1,,,,,,,,,0,,,83,88
430127,note_on,47,0,1,,,,,,,,,0,,,83,0
430127,note_on,0,0,2,,,,,,,,,1,,,64,0
430127,note_on,0,0,2,,,,,,,,,1,,,68,0
430127,note_on,47,0,2,,,,,,,,,1,,,71,0
430127,note_on,0,0,1,,,,,,,,,0,,,80,0
430127,note_on,0,0,1,,,,,,,,,0,,,76,0
430560,note_on,0,0,1,,,,,,,,,0,,,86,114
430560,note_on,0,0,2,,,,,,,,,1,,,76,114
430560,note_on,433,0,2,,,,,,,,,1,,,64,114
430560,note_on,0,0,1,,,,,,,,,0,,,83,114
430560,note_on,0,0,1,,,,,,,,,0,,,74,114
430560,note_on,433,0,1,,,,,,,,,0,,,71,114
431040,note_on,0,0,1,,,,,,,,,0,,,84,88
431040,note_on,0,0,1,,,,,,,,,0,,,71,0
431040,note_on,0,0,1,,,,,,,,,0,,,72,88
431040,note_on,0,0,1,,,,,,,,,0,,,69,88
431040,note_on,0,0,1,,,,,,,,,0,,,83,0
431040,note_on,480,0,1,,,,,,,,,0,,,86,0
431040,note_on,0,0,1,,,,,,,,,0,,,74,0
431040,note_on,1440,0,3,,,,,,,,,2,,,57,88
431040,note_on,0,0,1,,,,,,,,,0,,,81,88
431040,note_on,1440,0,4,,,,,,,,,3,,,45,88
431087,note_on,47,0,3,,,,,,,,,2,,,57,0
431087,note_on,47,0,4,,,,,,,,,3,,,45,0
431520,note_on,0,0,1,,,,,,,,,0,,,81,0
431520,note_on,0,0,1,,,,,,,,,0,,,72,0
431520,note_on,0,0,1,,,,,,,,,0,,,69,0
431520,note_on,480,0,1,,,,,,,,,0,,,84,0
431520,note_on,433,0,3,,,,,,,,,2,,,59,88
431520,note_on,433,0,4,,,,,,,,,3,,,47,88
431520,note_on,960,0,2,,,,,,,,,1,,,76,0
431520,note_on,0,0,2,,,,,,,,,1,,,64,0
431567,note_on,47,0,3,,,,,,,,,2,,,59,0
431567,note_on,47,0,4,,,,,,,,,3,,,47,0
432000,note_on,433,0,3,,,,,,,,,2,,,60,88
432000,note_on,433,0,4,,,,,,,,,3,,,48,88
432047,note_on,47,0,4,,,,,,,,,3,,,48,0
432047,note_on,47,0,3,,,,,,,,,2,,,60,0
432480,note_on,433,0,4,,,,,,,,,3,,,51,114
432480,note_on,433,0,3,,,,,,,,,2,,,63,114
432960,note_on,0,0,1,,,,,,,,,0,,,74,88
432960,note_on,0,0,4,,,,,,,,,3,,,50,88
432960,note_on,480,0,4,,,,,,,,,3,,,51,0
432960,note_on,1440,0,1,,,,,,,,,0,,,66,88
432960,note_on,480,0,3,,,,,,,,,2,,,63,0
432960,note_on,0,0,3,,,,,,,,,2,,,62,88
432960,note_on,0,0,1,,,,,,,,,0,,,69,88
433007,note_on,47,0,1,,,,,,,,,0,,,74,0
433007,note_on,0,0,1,,,,,,,,,0,,,69,0
433007,note_on,0,0,1,,,,,,,,,0,,,66,0
433440,note_on,480,0,4,,,,,,,,,3,,,50,0
433440,note_on,0,0,1,,,,,,,,,0,,,78,88
433440,note_on,480,0,3,,,,,,,,,2,,,62,0
433440,note_on,0,0,1,,,,,,,,,0,,,74,88
433440,note_on,433,0,1,,,,,,,,,0,,,69,88
433487,note_on,47,0,1,,,,,,,,,0,,,78,0
433487,note_on,0,0,1,,,,,,,,,0,,,74,0
433487,note_on,0,0,1,,,,,,,,,0,,,69,0
433920,note_on,0,0,1,,,,,,,,,0,,,78,88
433920,note_on,0,0,2,,,,,,,,,1,,,66,88
433920,note_on,2400,0,2,,,,,,,,,1,,,62,88
433920,note_on,433,0,1,,,,,,,,,0,,,74,88
433920,note_on,0,0,1,,,,,,,,,0,,,81,88
433920,note_on,0,0,2,,,,,,,,,1,,,69,88
433967,note_on,0,0,2,,,,,,,,,1,,,66,0
433967,note_on,0,0,1,,,,,,,,,0,,,74,0
433967,note_on,0,0,1,,,,,,,,,0,,,78,0
433967,note_on,0,0,2,,,,,,,,,1,,,62,0
433967,note_on,47,0,2,,,,,,,,,1,,,69,0
433967,note_on,47,0,1,,,,,,,,,0,,,81,0
434400,note_on,0,0,1,,,,,,,,,0,,,81,114
434400,note_on,0,0,1,,,,,,,,,0,,,72,114
434400,note_on,433,0,1,,,,,,,,,0,,,69,114
434400,note_on,0,0,2,,,,,,,,,1,,,74,114
434400,note_on,433,0,2,,,,,,,,,1,,,62,114
434400,note_on,0,0,1,,,,,,,,,0,,,84,114
434880,note_on,1440,0,4,,,,,,,,,3,,,31,88
434880,note_on,1440,0,3,,,,,,,,,2,,,43,88
434880,note_on,0,0,1,,,,,,,,,0,,,69,0
434880,note_on,0,0,1,,,,,,,,,0,,,72,0
434880,note_on,480,0,1,,,,,,,,,0,,,84,0
434880,note_on,0,0,1,,,,,,,,,0,,,81,0
434880,note_on,0,0,1,,,,,,,,,0,,,79,88
434880,note_on,0,0,1,,,,,,,,,0,,,83,88
434927,note_on,47,0,4,,,,,,,,,3,,,31,0
434927,note_on,47,0,3,,,,,,,,,2,,,43,0
435360,note_on,960,0,2,,,,,,,,,1,,,74,0
435360,note_on,433,0,4,,,,,,,,,3,,,35,88
435360,note_on,433,0,3,,,,,,,,,2,,,47,88
435360,note_on,0,0,2,,,,,,,,,1,,,62,0
435360,note_on,0,0,1,,,,,,,,,0,,,79,0
435360,note_on,480,0,1,,,,,,,,,0,,,83,0
435407,note_on,47,0,3,,,,,,,,,2,,,47,0
435407,note_on,47,0,4,,,,,,,,,3,,,35,0
435840,note_on,433,0,4,,,,,,,,,3,,,38,88
435840,note_on,433,0,3,,,,,,,,,2,,,50,88
435887,note_on,47,0,3,,,,,,,,,2,,,50,0
435887,note_on,47,0,4,,,,,,,,,3,,,38,0
436320,note_on,433,0,3,,,,,,,,,2,,,55,114
436320,note_on,433,0,4,,,,,,,,,3,,,43,114
436800,note_on,1440,0,1,,,,,,,,,0,,,65,88
436800,note_on,480,0,3,,,,,,,,,2,,,55,0
436800,note_on,0,0,3,,,,,,,,,2,,,56,88
436800,note_on,0,0,1,,,,,,,,,0,,,74,88
436800,note_on,0,0,1,,,,,,,,,0,,,71,88
436800,note_on,0,0,4,,,,,,,,,3,,,44,88
436800,note_on,480,0,4,,,,,,,,,3,,,43,0
436847,note_on,47,0,1,,,,,,,,,0,,,74,0
436847,note_on,0,0,1,,,,,,,,,0,,,65,0
436847,note_on,0,0,1,,,,,,,,,0,,,71,0
437280,note_on,480,0,3,,,,,,,,,2,,,56,0
437280,note_on,433,0,1,,,,,,,,,0,,,71,88
437280,note_on,0,0,1,,,,,,,,,0,,,74,88
437280,note_on,0,0,1,,,,,,,,,0,,,77,88
437280,note_on,480,0,4,,,,,,,,,3,,,44,0
437327,note_on,0,0,1,,,,,,,,,0,,,71,0
437327,note_on,0,0,1,,,,,,,,,0,,,74,0
437327,note_on,47,0,1,,,,,,,,,0,,,77,0
437760,note_on,433,0,1,,,,,,,,,0,,,74,88
437760,note_on,0,0,1,,,,,,,,,0,,,83,88
437760,note_on,0,0,2,,,,,,,,,1,,,71,88
437760,note_on,0,0,2,,,,,,,,,1,,,65,88
437760,note_on,0,0,1,,,,,,,,,0,,,77,88
437760,note_on,2400,0,2,,,,,,,,,1,,,62,88
437807,note_on,0,0,2,,,,,,,,,1,,,62,0
437807,note_on,0,0,2,,,,,,,,,1,,,65,0
437807,note_on,47,0,2,,,,,,,,,1,,,71,0
437807,note_on,0,0,1,,,,,,,,,0,,,74,0
437807,note_on,0,0,1,,,,,,,,,0,,,77,0
437807,note_on,47,0,1,,,,,,,,,0,,,83,0
438240,note_on,0,0,1,,,,,,,,,0,,,86,114
438240,note_on,0,0,2,,,,,,,,,1,,,74,114
438240,note_on,0,0,1,,,,,,,,,0,,,83,114
438240,note_on,433,0,2,,,,,,,,,1,,,65,114
438240,note_on,0,0,2,,,,,,,,,1,,,71,114
438240,note_on,433,0,1,,,,,,,,,0,,,77,114
438720,note_on,0,0,1,,,,,,,,,0,,,76,88
438720,note_on,0,0,1,,,,,,,,,0,,,84,88
438720,note_on,1440,0,3,,,,,,,,,2,,,57,88
438720,note_on,1440,0,4,,,,,,,,,3,,,45,88
438720,note_on,480,0,1,,,,,,,,,0,,,86,0
438720,note_on,0,0,2,,,,,,,,,1,,,65,0
438720,note_on,0,0,1,,,,,,,,,0,,,77,0
438720,note_on,0,0,2,,,,,,,,,1,,,72,88
438720,note_on,480,0,2,,,,,,,,,1,,,74,0
438720,note_on,0,0,2,,,,,,,,,1,,,71,0
438720,note_on,0,0,2,,,,,,,,,1,,,64,88
438720,note_on,0,0,1,,,,,,,,,0,,,83,0
438767,note_on,47,0,4,,,,,,,,,3,,,45,0
438767,note_on,47,0,3,,,,,,,,,2,,,57,0
439200,note_on,0,0,1,,,,,,,,,0,,,76,0
439200,note_on,0,0,1,,,,,,,,,0,,,87,88
439200,note_on,433,0,4,,,,,,,,,3,,,47,88
439200,note_on,480,0,2,,,,,,,,,1,,,72,0
439200,note_on,0,0,2,,,,,,,,,1,,,64,0
439200,note_on,480,0,1,,,,,,,,,0,,,84,0
439200,note_on,0,0,2,,,,,,,,,1,,,75,88
439200,note_on,433,0,3,,,,,,,,,2,,,59,88
439680,note_on,480,0,2,,,,,,,,,1,,,75,0
439680,note_on,480,0,1,,,,,,,,,0,,,87,0
439680,note_on,0,0,1,,,,,,,,,0,,,88,88
439680,note_on,480,0,3,,,,,,,,,2,,,59,0
439680,note_on,0,0,4,,,,,,,,,3,,,48,88
439680,note_on,480,0,4,,,,,,,,,3,,,47,0
439680,note_on,0,0,2,,,,,,,,,1,,,76,88
439680,note_on,0,0,3,,,,,,,,,2,,,60,88
440160,note_on,0,0,4,,,,,,,,,3,,,40,88
440160,note_on,0,0,1,,,,,,,,,0,,,68,88
440160,note_on,480,0,1,,,,,,,,,0,,,88,0
440160,note_on,480,0,3,,,,,,,,,2,,,60,0
440160,note_on,480,0,4,,,,,,,,,3,,,48,0
440160,note_on,0,0,1,,,,,,,,,0,,,80,88
440160,note_on,0,0,3,,,,,,,,,2,,,52,88
440160,note_on,0,0,2,,,,,,,,,1,,,60,88
440160,note_on,480,0,2,,,,,,,,,1,,,76,0
440160,note_on,0,0,2,,,,,,,,,1,,,72,88
440640,note_on,0,0,1,,,,,,,,,0,,,68,0
440640,note_on,480,0,1,,,,,,,,,0,,,80,0
440640,note_on,480,0,4,,,,,,,,,3,,,40,0
440640,note_on,0,0,4,,,,,,,,,3,,,41,88
440640,note_on,0,0,1,,,,,,,,,0,,,69,88
440640,note_on,0,0,1,,,,,,,,,0,,,81,88
440640,note_on,0,0,3,,,,,,,,,2,,,53,88
440640,note_on,480,0,3,,,,,,,,,2,,,52,0
441120,note_on,0,0,1,,,,,,,,,0,,,64,88
441120,note_on,0,0,2,,,,,,,,,1,,,60,0
441120,note_on,0,0,2,,,,,,,,,1,,,60,88
441120,note_on,0,0,2,,,,,,,,,1,,,72,88
441120,note_on,960,0,2,,,,,,,,,1,,,72,0
441120,note_on,0,0,1,,,,,,,,,0,,,76,88
441120,note_on,0,0,1,,,,,,,,,0,,,69,0
441120,note_on,480,0,4,,,,,,,,,3,,,41,0
441120,note_on,0,0,4,,,,,,,,,3,,,44,88
441120,note_on,480,0,3,,,,,,,,,2,,,53,0
441120,note_on,0,0,3,,,,,,,,,2,,,56,88
441120,note_on,480,0,1,,,,,,,,,0,,,81,0
441600,note_on,480,0,3,,,,,,,,,2,,,56,0
441600,note_on,0,0,3,,,,,,,,,2,,,57,88
441600,note_on,0,0,4,,,,,,,,,3,,,45,88
441600,note_on,0,0,1,,,,,,,,,0,,,77,88
441600,note_on,0,0,1,,,,,,,,,0,,,65,88
441600,note_on,0,0,1,,,,,,,,,0,,,64,0
441600,note_on,480,0,1,,,,,,,,,0,,,76,0
441600,note_on,480,0,4,,,,,,,,,3,,,44,0
442080,note_on,0,0,3,,,,,,,,,2,,,58,88
442080,note_on,960,0,2,,,,,,,,,1,,,72,0
442080,note_on,0,0,2,,,,,,,,,1,,,60,0
442080,note_on,0,0,2,,,,,,,,,1,,,60,88
442080,note_on,480,0,3,,,,,,,,,2,,,57,0
442080,note_on,0,0,2,,,,,,,,,1,,,67,88
442080,note_on,0,0,4,,,,,,,,,3,,,46,88
442080,note_on,480,0,4,,,,,,,,,3,,,45,0
442080,note_on,480,0,1,,,,,,,,,0,,,77,0
442080,note_on,0,0,1,,,,,,,,,0,,,65,0
442080,note_on,0,0,1,,,,,,,,,0,,,79,88
442080,control_change,0,0,1,,,,,,,,,0,64,127,,
442800,note_on,0,0,1,,,,,,,,,0,,,81,62
442800,note_on,720,0,1,,,,,,,,,0,,,79,0
443040,note_on,240,0,1,,,,,,,,,0,,,81,0
443040,note_on,0,0,1,,,,,,,,,0,,,79,62
443280,note_on,240,0,1,,,,,,,,,0,,,79,0
443280,note_on,0,0,1,,,,,,,,,0,,,77,62
443520,note_on,240,0,1,,,,,,,,,0,,,77,0
443520,note_on,0,0,1,,,,,,,,,0,,,76,62
443760,note_on,0,0,1,,,,,,,,,0,,,74,62
443760,note_on,240,0,1,,,,,,,,,0,,,76,0
444000,note_on,0,0,4,,,,,,,,,3,,,45,88
444000,note_on,1920,0,4,,,,,,,,,3,,,46,0
444000,note_on,240,0,1,,,,,,,,,0,,,74,0
444000,control_change,0,0,1,,,,,,,,,0,64,0,,
444000,note_on,0,0,1,,,,,,,,,0,,,73,62
444000,note_on,1920,0,3,,,,,,,,,2,,,58,0
444000,note_on,1920,0,2,,,,,,,,,1,,,67,0
444000,note_on,0,0,2,,,,,,,,,1,,,61,49
444000,note_on,0,0,2,,,,,,,,,1,,,60,0
444000,note_on,0,0,3,,,,,,,,,2,,,57,62
444000,control_change,0,0,3,,,,,,,,,2,64,127,,
444047,note_on,47,0,1,,,,,,,,,0,,,73,0
444047,note_on,47,0,4,,,,,,,,,3,,,45,0
444096,note_on,96,0,3,,,,,,,,,2,,,57,0
444240,note_on,240,0,2,,,,,,,,,1,,,61,0
444240,note_on,0,0,2,,,,,,,,,1,,,69,49
444480,note_on,433,0,1,,,,,,,,,0,,,73,62
444480,note_on,0,0,2,,,,,,,,,1,,,64,49
444480,note_on,240,0,2,,,,,,,,,1,,,69,0
444720,note_on,240,0,2,,,,,,,,,1,,,64,0
444720,note_on,0,0,2,,,,,,,,,1,,,69,49
444900,note_on,420,0,1,,,,,,,,,0,,,73,62
444960,note_on,0,0,3,,,,,,,,,2,,,52,62
444960,note_on,0,0,3,,,,,,,,,2,,,57,62
444960,note_on,240,0,2,,,,,,,,,1,,,69,0
444960,note_on,0,0,2,,,,,,,,,1,,,61,49
444960,note_on,0,0,1,,,,,,,,,0,,,81,62
444960,note_on,60,0,1,,,,,,,,,0,,,73,0
444960,note_on,913,0,4,,,,,,,,,3,,,43,88
444960,note_on,864,0,3,,,,,,,,,2,,,49,62
445007,note_on,47,0,4,,,,,,,,,3,,,43,0
445056,note_on,96,0,3,,,,,,,,,2,,,57,0
445056,note_on,0,0,3,,,,,,,,,2,,,52,0
445056,note_on,0,0,3,,,,,,,,,2,,,49,0
445200,note_on,240,0,2,,,,,,,,,1,,,61,0
445200,note_on,0,0,2,,,,,,,,,1,,,69,49
445440,note_on,480,0,1,,,,,,,,,0,,,81,0
445440,note_on,0,0,1,,,,,,,,,0,,,73,62
445440,note_on,0,0,1,,,,,,,,,0,,,73,0
445440,note_on,240,0,2,,,,,,,,,1,,,69,0
445440,note_on,0,0,2,,,,,,,,,1,,,64,49
445680,note_on,240,0,1,,,,,,,,,0,,,73,0
445680,note_on,240,0,2,,,,,,,,,1,,,64,0
445680,note_on,0,0,2,,,,,,,,,1,,,69,49
445860,note_on,180,0,1,,,,,,,,,0,,,74,62
445920,note_on,60,0,1,,,,,,,,,0,,,81,62
445920,note_on,864,0,3,,,,,,,,,2,,,50,62
445920,note_on,0,0,3,,,,,,,,,2,,,53,62
445920,note_on,0,0,3,,,,,,,,,2,,,57,62
445920,note_on,913,0,4,,,,,,,,,3,,,41,88
445920,note_on,0,0,2,,,,,,,,,1,,,62,49
445920,note_on,240,0,2,,,,,,,,,1,,,69,0
445967,note_on,47,0,4,,,,,,,,,3,,,41,0
446016,note_on,0,0,3,,,,,,,,,2,,,53,0
446016,note_on,0,0,3,,,,,,,,,2,,,50,0
446016,note_on,96,0,3,,,,,,,,,2,,,57,0
446160,note_on,240,0,2,,,,,,,,,1,,,62,0
446160,note_on,0,0,2,,,,,,,,,1,,,69,49
446400,note_on,480,0,1,,,,,,,,,0,,,81,0
446400,note_on,240,0,2,,,,,,,,,1,,,69,0
446400,note_on,0,0,2,,,,,,,,,1,,,65,49
446400,note_on,0,0,1,,,,,,,,,0,,,74,62
446400,note_on,0,0,1,,,,,,,,,0,,,74,0
446640,note_on,0,0,2,,,,,,,,,1,,,69,49
446640,note_on,240,0,1,,,,,,,,,0,,,74,0
446640,note_on,240,0,2,,,,,,,,,1,,,65,0
446820,note_on,180,0,1,,,,,,,,,0,,,76,62
446880,note_on,0,0,2,,,,,,,,,1,,,64,49
446880,note_on,913,0,4,,,,,,,,,3,,,37,88
446880,note_on,240,0,2,,,,,,,,,1,,,69,0
446880,note_on,0,0,3,,,,,,,,,2,,,57,62
446880,note_on,0,0,3,,,,,,,,,2,,,55,62
446880,note_on,864,0,3,,,,,,,,,2,,,52,62
446880,note_on,60,0,1,,,,,,,,,0,,,81,62
446927,note_on,47,0,4,,,,,,,,,3,,,37,0
446976,note_on,96,0,3,,,,,,,,,2,,,57,0
446976,note_on,0,0,3,,,,,,,,,2,,,52,0
446976,note_on,0,0,3,,,,,,,,,2,,,55,0
447120,note_on,240,0,2,,,,,,,,,1,,,64,0
447120,note_on,0,0,2,,,,,,,,,1,,,69,49
447360,note_on,0,0,1,,,,,,,,,0,,,76,0
447360,note_on,480,0,1,,,,,,,,,0,,,81,0
447360,note_on,0,0,1,,,,,,,,,0,,,76,62
447360,note_on,240,0,2,,,,,,,,,1,,,69,0
447360,note_on,0,0,2,,,,,,,,,1,,,67,49
447600,note_on,240,0,1,,,,,,,,,0,,,76,0
447600,note_on,240,0,2,,,,,,,,,1,,,67,0
447600,note_on,0,0,2,,,,,,,,,1,,,69,49
447840,note_on,0,0,3,,,,,,,,,2,,,57,62
447840,note_on,0,0,3,,,,,,,,,2,,,53,62
447840,note_on,0,0,3,,,,,,,,,2,,,50,62
447840,control_change,864,0,3,,,,,,,,,2,64,0,,
447840,note_on,913,0,4,,,,,,,,,3,,,38,88
447840,note_on,240,0,2,,,,,,,,,1,,,69,0
447840,note_on,0,0,2,,,,,,,,,1,,,62,49
447840,note_on,240,0,1,,,,,,,,,0,,,77,62
447887,note_on,0,0,3,,,,,,,,,2,,,50,0
447887,note_on,0,0,3,,,,,,,,,2,,,53,0
447887,note_on,47,0,3,,,,,,,,,2,,,57,0
447887,note_on,47,0,4,,,,,,,,,3,,,38,0
448080,note_on,240,0,2,,,,,,,,,1,,,62,0
448080,note_on,0,0,2,,,,,,,,,1,,,69,49
448320,note_on,480,0,1,,,,,,,,,0,,,77,0
448320,note_on,0,0,2,,,,,,,,,1,,,65,49
448320,control_change,0,0,1,,,,,,,,,0,64,127,,
448320,note_on,0,0,1,,,,,,,,,0,,,81,62
448320,note_on,240,0,2,,,,,,,,,1,,,69,0
448560,note_on,240,0,1,,,,,,,,,0,,,81,0
448560,note_on,0,0,2,,,,,,,,,1,,,69,49
448560,note_on,0,0,1,,,,,,,,,0,,,79,62
448560,note_on,240,0,2,,,,,,,,,1,,,65,0
448800,note_on,913,0,4,,,,,,,,,3,,,41,88
448800,note_on,240,0,2,,,,,,,,,1,,,69,0
448800,note_on,0,0,2,,,,,,,,,1,,,62,49
448800,note_on,240,0,1,,,,,,,,,0,,,79,0
448800,note_on,0,0,1,,,,,,,,,0,,,77,62
448800,note_on,913,0,3,,,,,,,,,2,,,53,62
448847,note_on,47,0,3,,,,,,,,,2,,,53,0
448847,note_on,47,0,4,,,,,,,,,3,,,41,0
449040,note_on,240,0,2,,,,,,,,,1,,,62,0
449040,note_on,0,0,2,,,,,,,,,1,,,69,49
449040,note_on,240,0,1,,,,,,,,,0,,,77,0
449040,note_on,0,0,1,,,,,,,,,0,,,76,62
449280,note_on,0,0,2,,,,,,,,,1,,,65,49
449280,note_on,240,0,2,,,,,,,,,1,,,69,0
449280,note_on,240,0,1,,,,,,,,,0,,,76,0
449280,note_on,0,0,1,,,,,,,,,0,,,74,62
449520,note_on,240,0,1,,,,,,,,,0,,,74,0
449520,note_on,0,0,1,,,,,,,,,0,,,72,62
449520,note_on,240,0,2,,,,,,,,,1,,,65,0
449520,note_on,0,0,2,,,,,,,,,1,,,69,49
449760,note_on,0,0,1,,,,,,,,,0,,,71,62
449760,note_on,913,0,3,,,,,,,,,2,,,55,62
449760,note_on,240,0,2,,,,,,,,,1,,,69,0
449760,note_on,0,0,2,,,,,,,,,1,,,62,49
449760,note_on,240,0,1,,,,,,,,,0,,,72,0
449760,note_on,913,0,4,,,,,,,,,3,,,43,88
449760,control_change,0,0,1,,,,,,,,,0,64,0,,
449807,note_on,47,0,1,,,,,,,,,0,,,71,0
450000,note_on,0,0,2,,,,,,,,,1,,,67,49
450000,note_on,240,0,2,,,,,,,,,1,,,62,0
450240,note_on,433,0,1,,,,,,,,,0,,,74,62
450240,note_on,0,0,2,,,,,,,,,1,,,65,49
450240,note_on,480,0,4,,,,,,,,,3,,,43,0
450240,note_on,240,0,2,,,,,,,,,1,,,67,0
450240,note_on,480,0,3,,,,,,,,,2,,,55,0
450480,note_on,240,0,2,,,,,,,,,1,,,65,0
450480,note_on,0,0,2,,,,,,,,,1,,,67,49
450480,note_on,0,0,1,,,,,,,,,0,,,79,62
450480,note_on,240,0,1,,,,,,,,,0,,,74,0
450720,note_on,240,0,1,,,,,,,,,0,,,79,0
450720,note_on,0,0,1,,,,,,,,,0,,,83,62
450720,note_on,240,0,2,,,,,,,,,1,,,67,0
450720,note_on,0,0,2,,,,,,,,,1,,,62,49
450767,note_on,47,0,1,,,,,,,,,0,,,83,0
450960,note_on,240,0,2,,,,,,,,,1,,,62,0
450960,note_on,0,0,2,,,,,,,,,1,,,67,49
451200,note_on,0,0,2,,,,,,,,,1,,,65,49
451200,note_on,433,0,1,,,,,,,,,0,,,86,62
451200,note_on,960,0,4,,,,,,,,,3,,,31,88
451200,note_on,960,0,3,,,,,,,,,2,,,43,62
451200,note_on,240,0,2,,,,,,,,,1,,,67,0
451247,note_on,47,0,1,,,,,,,,,0,,,86,0
451440,note_on,240,0,2,,,,,,,,,1,,,65,0
451440,note_on,0,0,2,,,,,,,,,1,,,67,49
451680,note_on,240,0,2,,,,,,,,,1,,,67,0
451680,note_on,0,0,2,,,,,,,,,1,,,60,49
451680,note_on,0,0,4,,,,,,,,,3,,,36,88
451680,note_on,433,0,1,,,,,,,,,0,,,89,62
451680,note_on,480,0,3,,,,,,,,,2,,,43,0
451680,note_on,0,0,3,,,,,,,,,2,,,48,62
451680,note_on,480,0,4,,,,,,,,,3,,,31,0
451920,note_on,0,0,2,,,,,,,,,1,,,67,49
451920,note_on,240,0,2,,,,,,,,,1,,,60,0
452160,note_on,480,0,1,,,,,,,,,0,,,89,0
452160,note_on,0,0,2,,,,,,,,,1,,,64,49
452160,note_on,240,0,2,,,,,,,,,1,,,67,0
452160,note_on,0,0,1,,,,,,,,,0,,,88,62
452160,note_on,480,0,3,,,,,,,,,2,,,48,0
452160,note_on,480,0,4,,,,,,,,,3,,,36,0
452400,note_on,240,0,1,,,,,,,,,0,,,88,0
452400,note_on,240,0,2,,,,,,,,,1,,,64,0
452400,note_on,0,0,2,,,,,,,,,1,,,67,49
452640,note_on,480,0,3,,,,,,,,,2,,,51,62
452640,note_on,240,0,1,,,,,,,,,0,,,83,62
452640,note_on,240,0,2,,,,,,,,,1,,,67,0
452640,note_on,0,0,2,,,,,,,,,1,,,60,49
452640,note_on,480,0,4,,,,,,,,,3,,,39,88
452880,note_on,0,0,2,,,,,,,,,1,,,72,49
452880,note_on,240,0,2,,,,,,,,,1,,,60,0
453120,note_on,0,0,4,,,,,,,,,3,,,40,88
453120,note_on,480,0,4,,,,,,,,,3,,,39,0
453120,note_on,0,0,1,,,,,,,,,0,,,84,62
453120,note_on,0,0,2,,,,,,,,,1,,,67,49
453120,note_on,0,0,3,,,,,,,,,2,,,52,62
453120,note_on,480,0,1,,,,,,,,,0,,,83,0
453120,note_on,240,0,2,,,,,,,,,1,,,72,0
453120,note_on,480,0,3,,,,,,,,,2,,,51,0
453360,note_on,240,0,4,,,,,,,,,3,,,40,0
453360,note_on,240,0,1,,,,,,,,,0,,,84,0
453360,note_on,240,0,2,,,,,,,,,1,,,67,0
453360,note_on,240,0,3,,,,,,,,,2,,,52,0
453360,note_on,0,0,2,,,,,,,,,1,,,72,49
453600,note_on,240,0,1,,,,,,,,,0,,,80,62
453600,note_on,0,0,2,,,,,,,,,1,,,68,49
453600,note_on,240,0,3,,,,,,,,,2,,,52,62
453600,note_on,240,0,2,,,,,,,,,1,,,72,0
453600,note_on,240,0,4,,,,,,,,,3,,,40,88
453840,note_on,0,0,2,,,,,,,,,1,,,72,49
453840,note_on,240,0,2,,,,,,,,,1,,,68,0
454080,note_on,0,0,3,,,,,,,,,2,,,53,62
454080,note_on,480,0,3,,,,,,,,,2,,,52,0
454080,note_on,0,0,2,,,,,,,,,1,,,69,49
454080,note_on,240,0,2,,,,,,,,,1,,,72,0
454080,note_on,0,0,1,,,,,,,,,0,,,81,62
454080,note_on,480,0,1,,,,,,,,,0,,,80,0
454080,note_on,480,0,4,,,,,,,,,3,,,40,0
454080,note_on,0,0,4,,,,,,,,,3,,,41,88
454320,note_on,240,0,1,,,,,,,,,0,,,81,0
454320,note_on,0,0,2,,,,,,,,,1,,,72,49
454320,note_on,240,0,4,,,,,,,,,3,,,41,0
454320,note_on,240,0,2,,,,,,,,,1,,,69,0
454320,note_on,240,0,3,,,,,,,,,2,,,53,0
454560,note_on,0,0,2,,,,,,,,,1,,,64,49
454560,note_on,240,0,2,,,,,,,,,1,,,72,0
454560,note_on,240,0,4,,,,,,,,,3,,,44,88
454560,note_on,240,0,3,,,,,,,,,2,,,56,62
454560,note_on,240,0,1,,,,,,,,,0,,,76,62
454800,note_on,240,0,2,,,,,,,,,1,,,64,0
454800,note_on,0,0,2,,,,,,,,,1,,,72,49
455040,note_on,480,0,1,,,,,,,,,0,,,76,0
455040,note_on,0,0,1,,,,,,,,,0,,,77,62
455040,note_on,480,0,3,,,,,,,,,2,,,56,0
455040,note_on,480,0,4,,,,,,,,,3,,,44,0
455040,note_on,240,0,2,,,,,,,,,1,,,72,0
455040,note_on,0,0,2,,,,,,,,,1,,,65,49
455040,note_on,0,0,4,,,,,,,,,3,,,45,88
455040,note_on,0,0,3,,,,,,,,,2,,,57,62
455280,note_on,240,0,2,,,,,,,,,1,,,65,0
455280,note_on,0,0,2,,,,,,,,,1,,,72,49
455280,note_on,240,0,4,,,,,,,,,3,,,45,0
455280,note_on,240,0,3,,,,,,,,,2,,,57,0
455520,note_on,240,0,4,,,,,,,,,3,,,46,114
455520,note_on,0,0,3,,,,,,,,,2,,,60,88
455520,note_on,480,0,1,,,,,,,,,0,,,77,0
455520,control_change,0,0,1,,,,,,,,,0,64,127,,
455520,note_on,0,0,1,,,,,,,,,0,,,79,88
455520,note_on,240,0,2,,,,,,,,,1,,,72,0
455520,note_on,0,0,2,,,,,,,,,1,,,60,88
455520,note_on,0,0,2,,,,,,,,,1,,,64,88
455520,note_on,240,0,3,,,,,,,,,2,,,58,88
456240,note_on,0,0,1,,,,,,,,,0,,,81,62
456240,note_on,720,0,1,,,,,,,,,0,,,79,0
456480,note_on,240,0,1,,,,,,,,,0,,,81,0
456480,note_on,0,0,1,,,,,,,,,0,,,79,62
456720,note_on,0,0,1,,,,,,,,,0,,,77,62
456720,note_on,240,0,1,,,,,,,,,0,,,79,0
456960,note_on,0,0,1,,,,,,,,,0,,,76,62
456960,note_on,240,0,1,,,,,,,,,0,,,77,0
457200,note_on,0,0,1,,,,,,,,,0,,,74,62
457200,note_on,240,0,1,,,,,,,,,0,,,76,0
457440,control_change,0,0,1,,,,,,,,,0,64,0,,
457440,note_on,0,0,4,,,,,,,,,3,,,45,62
457440,note_on,0,0,1,,,,,,,,,0,,,73,62
457440,note_on,240,0,1,,,,,,,,,0,,,74,0
457440,note_on,0,0,3,,,,,,,,,2,,,57,62
457440,note_on,0,0,3,,,,,,,,,2,,,58,0
457440,note_on,0,0,3,,,,,,,,,2,,,61,62
457440,note_on,1920,0,4,,,,,,,,,3,,,46,0
457440,note_on,1920,0,2,,,,,,,,,1,,,64,0
457440,note_on,0,0,2,,,,,,,,,1,,,60,0
457440,note_on,0,0,2,,,,,,,,,1,,,64,49
457440,note_on,1920,0,3,,,,,,,,,2,,,60,0
457487,note_on,47,0,1,,,,,,,,,0,,,73,0
457680,note_on,240,0,2,,,,,,,,,1,,,64,0
457680,note_on,0,0,2,,,,,,,,,1,,,69,49
457920,note_on,433,0,1,,,,,,,,,0,,,73,62
457920,note_on,480,0,3,,,,,,,,,2,,,61,0
457920,note_on,240,0,2,,,,,,,,,1,,,69,0
457920,note_on,480,0,4,,,,,,,,,3,,,45,0
457920,note_on,0,0,2,,,,,,,,,1,,,67,49
457920,note_on,0,0,3,,,,,,,,,2,,,57,0
458160,note_on,240,0,2,,,,,,,,,1,,,67,0
458160,note_on,0,0,2,,,,,,,,,1,,,69,49
458340,note_on,420,0,1,,,,,,,,,0,,,73,62
458400,note_on,0,0,1,,,,,,,,,0,,,81,62
458400,note_on,480,0,3,,,,,,,,,2,,,57,62
458400,note_on,480,0,4,,,,,,,,,3,,,55,62
458400,note_on,0,0,2,,,,,,,,,1,,,61,49
458400,note_on,60,0,1,,,,,,,,,0,,,73,0
458400,note_on,240,0,2,,,,,,,,,1,,,69,0
458640,note_on,0,0,2,,,,,,,,,1,,,69,49
458640,note_on,240,0,2,,,,,,,,,1,,,61,0
458880,note_on,480,0,1,,,,,,,,,0,,,81,0
458880,note_on,480,0,4,,,,,,,,,3,,,55,0
458880,note_on,0,0,1,,,,,,,,,0,,,73,62
458880,note_on,480,0,3,,,,,,,,,2,,,57,0
458880,note_on,0,0,2,,,,,,,,,1,,,64,49
458880,note_on,240,0,2,,,,,,,,,1,,,69,0
458880,note_on,0,0,1,,,,,,,,,0,,,73,0
459120,note_on,0,0,2,,,,,,,,,1,,,69,49
459120,note_on,240,0,2,,,,,,,,,1,,,64,0
459120,note_on,240,0,1,,,,,,,,,0,,,73,0
459300,note_on,180,0,1,,,,,,,,,0,,,74,62
459360,note_on,60,0,1,,,,,,,,,0,,,81,62
459360,note_on,480,0,4,,,,,,,,,3,,,53,62
459360,note_on,480,0,3,,,,,,,,,2,,,57,62
459360,note_on,240,0,2,,,,,,,,,1,,,69,0
459360,note_on,0,0,2,,,,,,,,,1,,,62,49
459600,note_on,0,0,2,,,,,,,,,1,,,69,49
459600,note_on,240,0,2,,,,,,,,,1,,,62,0
459840,note_on,480,0,3,,,,,,,,,2,,,57,0
459840,note_on,480,0,4,,,,,,,,,3,,,53,0
459840,note_on,0,0,2,,,,,,,,,1,,,65,49
459840,note_on,240,0,2,,,,,,,,,1,,,69,0
459840,note_on,480,0,1,,,,,,,,,0,,,81,0
459840,note_on,0,0,1,,,,,,,,,0,,,74,0
459840,note_on,0,0,1,,,,,,,,,0,,,74,62
460080,note_on,0,0,2,,,,,,,,,1,,,69,49
460080,note_on,240,0,1,,,,,,,,,0,,,74,0
460080,note_on,240,0,2,,,,,,,,,1,,,65,0
460260,note_on,180,0,1,,,,,,,,,0,,,76,62
460320,note_on,60,0,1,,,,,,,,,0,,,81,62
460320,note_on,0,0,2,,,,,,,,,1,,,64,49
460320,note_on,480,0,4,,,,,,,,,3,,,49,62
460320,note_on,480,0,3,,,,,,,,,2,,,57,62
460320,note_on,240,0,2,,,,,,,,,1,,,69,0
460560,note_on,240,0,2,,,,,,,,,1,,,64,0
460560,note_on,0,0,2,,,,,,,,,1,,,69,49
460800,note_on,0,0,1,,,,,,,,,0,,,76,62
460800,note_on,0,0,1,,,,,,,,,0,,,76,0
460800,note_on,480,0,1,,,,,,,,,0,,,81,0
460800,note_on,480,0,3,,,,,,,,,2,,,57,0
460800,note_on,480,0,4,,,,,,,,,3,,,49,0
460800,note_on,0,0,2,,,,,,,,,1,,,67,49
460800,note_on,240,0,2,,,,,,,,,1,,,69,0
461040,note_on,0,0,2,,,,,,,,,1,,,69,49
461040,note_on,240,0,2,,,,,,,,,1,,,67,0
461040,note_on,240,0,1,,,,,,,,,0,,,76,0
461280,note_on,240,0,2,,,,,,,,,1,,,69,0
461280,note_on,480,0,4,,,,,,,,,3,,,50,62
461280,note_on,240,0,1,,,,,,,,,0,,,77,62
461280,note_on,0,0,2,,,,,,,,,1,,,62,49
461280,note_on,480,0,3,,,,,,,,,2,,,57,62
461520,note_on,0,0,2,,,,,,,,,1,,,69,49
461520,note_on,240,0,2,,,,,,,,,1,,,62,0
461760,note_on,480,0,4,,,,,,,,,3,,,50,0
461760,note_on,0,0,1,,,,,,,,,0,,,81,62
461760,note_on,480,0,3,,,,,,,,,2,,,57,0
461760,control_change,0,0,1,,,,,,,,,0,64,127,,
461760,note_on,240,0,2,,,,,,,,,1,,,69,0
461760,note_on,0,0,2,,,,,,,,,1,,,65,49
461760,note_on,480,0,1,,,,,,,,,0,,,77,0
462000,note_on,240,0,1,,,,,,,,,0,,,81,0
462000,note_on,0,0,2,,,,,,,,,1,,,69,49
462000,note_on,240,0,2,,,,,,,,,1,,,65,0
462000,note_on,0,0,1,,,,,,,,,0,,,79,62
462240,note_on,240,0,2,,,,,,,,,1,,,69,0
462240,note_on,0,0,2,,,,,,,,,1,,,62,49
462240,note_on,480,0,3,,,,,,,,,2,,,53,62
462240,note_on,0,0,1,,,,,,,,,0,,,77,62
462240,note_on,480,0,4,,,,,,,,,3,,,41,62
462240,note_on,240,0,1,,,,,,,,,0,,,79,0
462480,note_on,240,0,1,,,,,,,,,0,,,77,0
462480,note_on,0,0,1,,,,,,,,,0,,,76,62
462480,note_on,240,0,2,,,,,,,,,1,,,62,0
462480,note_on,0,0,2,,,,,,,,,1,,,69,49
462720,note_on,0,0,1,,,,,,,,,0,,,74,62
462720,note_on,0,0,2,,,,,,,,,1,,,65,49
462720,note_on,240,0,2,,,,,,,,,1,,,69,0
462720,note_on,240,0,1,,,,,,,,,0,,,76,0
462720,note_on,480,0,3,,,,,,,,,2,,,53,0
462720,note_on,480,0,4,,,,,,,,,3,,,41,0
462960,note_on,240,0,1,,,,,,,,,0,,,74,0
462960,note_on,0,0,1,,,,,,,,,0,,,72,62
462960,note_on,240,0,2,,,,,,,,,1,,,65,0
462960,note_on,0,0,2,,,,,,,,,1,,,69,49
463200,note_on,480,0,4,,,,,,,,,3,,,43,62
463200,note_on,0,0,2,,,,,,,,,1,,,62,49
463200,note_on,0,0,1,,,,,,,,,0,,,71,62
463200,control_change,0,0,1,,,,,,,,,0,64,0,,
463200,note_on,240,0,1,,,,,,,,,0,,,72,0
463200,note_on,480,0,3,,,,,,,,,2,,,55,62
463200,note_on,240,0,2,,,,,,,,,1,,,69,0
463247,note_on,47,0,1,,,,,,,,,0,,,71,0
463440,note_on,0,0,2,,,,,,,,,1,,,67,49
463440,note_on,240,0,2,,,,,,,,,1,,,62,0
463680,note_on,480,0,4,,,,,,,,,3,,,43,0
463680,note_on,240,0,2,,,,,,,,,1,,,67,0
463680,note_on,0,0,2,,,,,,,,,1,,,65,49
463680,note_on,480,0,3,,,,,,,,,2,,,55,0
463680,note_on,433,0,1,,,,,,,,,0,,,74,62
463920,note_on,240,0,1,,,,,,,,,0,,,74,0
463920,note_on,240,0,2,,,,,,,,,1,,,65,0
463920,note_on,0,0,2,,,,,,,,,1,,,67,49
463920,note_on,0,0,1,,,,,,,,,0,,,79,62
464160,note_on,240,0,2,,,,,,,,,1,,,67,0
464160,note_on,0,0,2,,,,,,,,,1,,,62,49
464160,note_on,240,0,1,,,,,,,,,0,,,79,0
464160,note_on,0,0,1,,,,,,,,,0,,,83,62
464207,note_on,47,0,1,,,,,,,,,0,,,83,0
464400,note_on,0,0,2,,,,,,,,,1,,,67,49
464400,note_on,240,0,2,,,,,,,,,1,,,62,0
464640,note_on,240,0,2,,,,,,,,,1,,,67,0
464640,note_on,960,0,3,,,,,,,,,2,,,43,62
464640,note_on,960,0,4,,,,,,,,,3,,,31,62
464640,note_on,433,0,1,,,,,,,,,0,,,86,62
464640,note_on,0,0,2,,,,,,,,,1,,,65,49
464687,note_on,47,0,1,,,,,,,,,0,,,86,0
464880,note_on,0,0,2,,,,,,,,,1,,,67,49
464880,note_on,240,0,2,,,,,,,,,1,,,65,0
465120,note_on,0,0,3,,,,,,,,,2,,,48,62
465120,note_on,0,0,2,,,,,,,,,1,,,60,49
465120,note_on,240,0,2,,,,,,,,,1,,,67,0
465120,note_on,480,0,3,,,,,,,,,2,,,43,0
465120,note_on,0,0,4,,,,,,,,,3,,,36,62
465120,note_on,480,0,4,,,,,,,,,3,,,31,0
465120,note_on,433,0,1,,,,,,,,,0,,,89,62
465360,note_on,0,0,2,,,,,,,,,1,,,67,49
465360,note_on,240,0,2,,,,,,,,,1,,,60,0
465600,note_on,0,0,2,,,,,,,,,1,,,64,49
465600,note_on,480,0,1,,,,,,,,,0,,,89,0
465600,note_on,0,0,1,,,,,,,,,0,,,88,62
465600,note_on,480,0,4,,,,,,,,,3,,,36,0
465600,note_on,480,0,3,,,,,,,,,2,,,48,0
465600,note_on,240,0,2,,,,,,,,,1,,,67,0
465840,note_on,240,0,1,,,,,,,,,0,,,88,0
465840,note_on,240,0,2,,,,,,,,,1,,,64,0
465840,note_on,0,0,2,,,,,,,,,1,,,67,49
466080,note_on,480,0,4,,,,,,,,,3,,,39,62
466080,note_on,480,0,3,,,,,,,,,2,,,51,62
466080,note_on,240,0,1,,,,,,,,,0,,,83,62
466080,note_on,240,0,2,,,,,,,,,1,,,67,0
466080,note_on,0,0,2,,,,,,,,,1,,,60,49
466320,note_on,240,0,2,,,,,,,,,1,,,60,0
466320,note_on,0,0,2,,,,,,,,,1,,,72,49
466560,note_on,240,0,2,,,,,,,,,1,,,72,0
466560,note_on,480,0,4,,,,,,,,,3,,,39,0
466560,note_on,480,0,3,,,,,,,,,2,,,51,0
466560,note_on,0,0,3,,,,,,,,,2,,,52,62
466560,note_on,0,0,2,,,,,,,,,1,,,67,49
466560,note_on,0,0,4,,,,,,,,,3,,,40,62
466560,note_on,0,0,1,,,,,,,,,0,,,84,62
466560,note_on,480,0,1,,,,,,,,,0,,,83,0
466800,note_on,240,0,4,,,,,,,,,3,,,40,0
466800,note_on,240,0,3,,,,,,,,,2,,,52,0
466800,note_on,240,0,1,,,,,,,,,0,,,84,0
466800,note_on,240,0,2,,,,,,,,,1,,,67,0
466800,note_on,0,0,2,,,,,,,,,1,,,72,49
467040,note_on,0,0,2,,,,,,,,,1,,,68,49
467040,note_on,240,0,2,,,,,,,,,1,,,72,0
467040,note_on,240,0,1,,,,,,,,,0,,,80,62
467040,note_on,240,0,3,,,,,,,,,2,,,52,62
467040,note_on,240,0,4,,,,,,,,,3,,,40,62
467280,note_on,240,0,2,,,,,,,,,1,,,68,0
467280,note_on,0,0,2,,,,,,,,,1,,,72,49
467520,note_on,240,0,2,,,,,,,,,1,,,72,0
467520,note_on,0,0,2,,,,,,,,,1,,,69,49
467520,note_on,0,0,4,,,,,,,,,3,,,41,62
467520,note_on,480,0,3,,,,,,,,,2,,,52,0
467520,note_on,0,0,3,,,,,,,,,2,,,53,62
467520,note_on,480,0,1,,,,,,,,,0,,,80,0
467520,note_on,0,0,1,,,,,,,,,0,,,81,62
467520,note_on,480,0,4,,,,,,,,,3,,,40,0
467760,note_on,240,0,2,,,,,,,,,1,,,69,0
467760,note_on,240,0,4,,,,,,,,,3,,,41,0
467760,note_on,0,0,2,,,,,,,,,1,,,72,49
467760,note_on,240,0,1,,,,,,,,,0,,,81,0
467760,note_on,240,0,3,,,,,,,,,2,,,53,0
468000,note_on,0,0,2,,,,,,,,,1,,,64,49
468000,note_on,240,0,2,,,,,,,,,1,,,72,0
468000,note_on,240,0,1,,,,,,,,,0,,,76,62
468000,note_on,240,0,4,,,,,,,,,3,,,44,62
468000,note_on,240,0,3,,,,,,,,,2,,,56,62
468240,note_on,240,0,2,,,,,,,,,1,,,64,0
468240,note_on,0,0,2,,,,,,,,,1,,,72,49
468480,note_on,480,0,1,,,,,,,,,0,,,76,0
468480,note_on,0,0,4,,,,,,,,,3,,,45,62
468480,note_on,0,0,1,,,,,,,,,0,,,77,62
468480,note_on,480,0,4,,,,,,,,,3,,,44,0
468480,note_on,0,0,3,,,,,,,,,2,,,57,62
468480,note_on,480,0,3,,,,,,,,,2,,,56,0
468480,note_on,240,0,2,,,,,,,,,1,,,72,0
468480,note_on,0,0,2,,,,,,,,,1,,,65,49
468720,note_on,240,0,2,,,,,,,,,1,,,65,0
468720,note_on,0,0,2,,,,,,,,,1,,,72,49
468720,note_on,240,0,3,,,,,,,,,2,,,57,0
468720,note_on,240,0,4,,,,,,,,,3,,,45,0
468960,note_on,0,0,2,,,,,,,,,1,,,64,88
468960,note_on,240,0,3,,,,,,,,,2,,,60,88
468960,note_on,480,0,1,,,,,,,,,0,,,77,0
468960,control_change,0,0,1,,,,,,,,,0,64,127,,
468960,note_on,0,0,1,,,,,,,,,0,,,79,88
468960,note_on,0,0,2,,,,,,,,,1,,,67,88
468960,note_on,240,0,4,,,,,,,,,3,,,46,88
468960,note_on,0,0,4,,,,,,,,,3,,,58,88
468960,note_on,240,0,2,,,,,,,,,1,,,72,0
469680,note_on,720,0,1,,,,,,,,,0,,,79,0
469680,note_on,0,0,1,,,,,,,,,0,,,81,62
469920,note_on,240,0,1,,,,,,,,,0,,,81,0
469920,note_on,0,0,1,,,,,,,,,0,,,79,62
470160,note_on,240,0,1,,,,,,,,,0,,,79,0
470160,note_on,0,0,1,,,,,,,,,0,,,77,62
470400,note_on,0,0,4,,,,,,,,,3,,,46,0
470400,note_on,1440,0,4,,,,,,,,,3,,,58,0
470400,note_on,0,0,4,,,,,,,,,3,,,45,62
470400,note_on,0,0,4,,,,,,,,,3,,,57,62
470400,note_on,1440,0,2,,,,,,,,,1,,,67,0
470400,note_on,0,0,1,,,,,,,,,0,,,76,62
470400,note_on,240,0,1,,,,,,,,,0,,,77,0
470400,note_on,0,0,2,,,,,,,,,1,,,64,0
470400,note_on,0,0,2,,,,,,,,,1,,,65,49
470640,note_on,0,0,1,,,,,,,,,0,,,74,62
470640,control_change,0,0,1,,,,,,,,,0,64,0,,
470640,note_on,240,0,1,,,,,,,,,0,,,76,0
470820,note_on,180,0,1,,,,,,,,,0,,,74,62
470880,note_on,480,0,4,,,,,,,,,3,,,57,0
470880,note_on,0,0,4,,,,,,,,,3,,,45,0
470880,note_on,0,0,3,,,,,,,,,2,,,60,62
470880,note_on,0,0,2,,,,,,,,,1,,,64,49
470880,note_on,0,0,3,,,,,,,,,2,,,55,62
470880,note_on,1920,0,3,,,,,,,,,2,,,60,0
470880,note_on,60,0,1,,,,,,,,,0,,,74,0
470880,note_on,480,0,2,,,,,,,,,1,,,65,0
470880,note_on,0,0,4,,,,,,,,,3,,,43,62
470880,note_on,0,0,1,,,,,,,,,0,,,74,0
470880,note_on,0,0,1,,,,,,,,,0,,,72,62
470927,note_on,47,0,3,,,,,,,,,2,,,60,0
470927,note_on,47,0,1,,,,,,,,,0,,,72,0
470927,note_on,47,0,4,,,,,,,,,3,,,43,0
470927,note_on,0,0,3,,,,,,,,,2,,,55,0
471120,note_on,0,0,2,,,,,,,,,1,,,67,49
471120,note_on,240,0,2,,,,,,,,,1,,,64,0
471360,note_on,433,0,3,,,,,,,,,2,,,55,62
471360,note_on,433,0,1,,,,,,,,,0,,,72,62
471360,note_on,0,0,3,,,,,,,,,2,,,60,62
471360,note_on,240,0,2,,,,,,,,,1,,,67,0
471360,note_on,0,0,2,,,,,,,,,1,,,64,49
471360,note_on,433,0,4,,,,,,,,,3,,,43,62
471407,note_on,47,0,1,,,,,,,,,0,,,72,0
471407,note_on,47,0,4,,,,,,,,,3,,,43,0
471407,note_on,0,0,3,,,,,,,,,2,,,55,0
471407,note_on,47,0,3,,,,,,,,,2,,,60,0
471600,note_on,240,0,2,,,,,,,,,1,,,64,0
471600,note_on,0,0,2,,,,,,,,,1,,,67,49
471780,note_on,373,0,1,,,,,,,,,0,,,72,62
471840,note_on,240,0,2,,,,,,,,,1,,,67,0
471840,note_on,0,0,3,,,,,,,,,2,,,62,62
471840,note_on,433,0,3,,,,,,,,,2,,,55,62
471840,note_on,0,0,2,,,,,,,,,1,,,65,49
471840,note_on,0,0,1,,,,,,,,,0,,,71,62
471840,note_on,433,0,4,,,,,,,,,3,,,43,62
471840,note_on,60,0,1,,,,,,,,,0,,,72,0
471887,note_on,47,0,1,,,,,,,,,0,,,71,0
471887,note_on,47,0,4,,,,,,,,,3,,,43,0
471887,note_on,47,0,3,,,,,,,,,2,,,62,0
471887,note_on,0,0,3,,,,,,,,,2,,,55,0
472080,note_on,240,0,2,,,,,,,,,1,,,65,0
472080,note_on,0,0,2,,,,,,,,,1,,,67,49
472320,note_on,433,0,3,,,,,,,,,2,,,55,62
472320,note_on,0,0,3,,,,,,,,,2,,,62,62
472320,note_on,433,0,4,,,,,,,,,3,,,43,62
472320,note_on,0,0,2,,,,,,,,,1,,,65,49
472320,note_on,433,0,1,,,,,,,,,0,,,71,62
472320,note_on,240,0,2,,,,,,,,,1,,,67,0
472367,note_on,47,0,1,,,,,,,,,0,,,71,0
472367,note_on,47,0,3,,,,,,,,,2,,,62,0
472367,note_on,0,0,3,,,,,,,,,2,,,55,0
472367,note_on,47,0,4,,,,,,,,,3,,,43,0
472560,note_on,0,0,2,,,,,,,,,1,,,67,49
472560,note_on,240,0,2,,,,,,,,,1,,,65,0
472800,note_on,0,0,3,,,,,,,,,2,,,55,88
472800,note_on,240,0,2,,,,,,,,,1,,,67,0
472800,note_on,433,0,1,,,,,,,,,0,,,72,62
472800,note_on,433,0,4,,,,,,,,,3,,,48,62
472800,note_on,0,0,2,,,,,,,,,1,,,64,49
472800,control_change,433,0,3,,,,,,,,,2,64,127,,
472800,note_on,0,0,2,,,,,,,,,1,,,60,49
473280,note_on,0,0,2,,,,,,,,,1,,,60,0
473280,note_on,480,0,1,,,,,,,,,0,,,72,0
473280,note_on,480,0,4,,,,,,,,,3,,,48,0
473280,note_on,480,0,2,,,,,,,,,1,,,64,0
473520,note_on,720,0,3,,,,,,,,,2,,,55,0
473520,note_on,0,0,3,,,,,,,,,2,,,57,62
473760,note_on,480,0,2,,,,,,,,,1,,,64,49
473760,note_on,0,0,3,,,,,,,,,2,,,55,62
473760,note_on,480,0,1,,,,,,,,,0,,,71,62
473760,note_on,0,0,2,,,,,,,,,1,,,67,49
473760,note_on,240,0,3,,,,,,,,,2,,,57,0
473807,note_on,47,0,1,,,,,,,,,0,,,71,0
474000,note_on,240,0,3,,,,,,,,,2,,,55,0
474000,note_on,0,0,3,,,,,,,,,2,,,53,62
474240,note_on,480,0,2,,,,,,,,,1,,,67,0
474240,note_on,0,0,2,,,,,,,,,1,,,64,0
474240,note_on,0,0,3,,,,,,,,,2,,,52,62
474240,note_on,240,0,3,,,,,,,,,2,,,53,0
474240,note_on,433,0,1,,,,,,,,,0,,,72,62
474287,note_on,47,0,1,,,,,,,,,0,,,72,0
474480,note_on,240,0,3,,,,,,,,,2,,,52,0
474480,note_on,0,0,3,,,,,,,,,2,,,50,62
474720,note_on,433,0,1,,,,,,,,,0,,,76,88
474720,note_on,0,0,3,,,,,,,,,2,,,49,62
474720,note_on,1440,0,4,,,,,,,,,3,,,45,62
474720,control_change,0,0,3,,,,,,,,,2,64,0,,
474720,note_on,240,0,3,,,,,,,,,2,,,50,0
474720,control_change,480,0,2,,,,,,,,,1,64,127,,
474720,note_on,0,0,2,,,,,,,,,1,,,69,88
475200,note_on,480,0,3,,,,,,,,,2,,,49,0
475200,note_on,480,0,4,,,,,,,,,3,,,45,0
475200,note_on,480,0,1,,,,,,,,,0,,,76,0
475440,note_on,720,0,2,,,,,,,,,1,,,69,0
475440,note_on,0,0,2,,,,,,,,,1,,,70,62
475680,note_on,0,0,2,,,,,,,,,1,,,69,62
475680,note_on,480,0,1,,,,,,,,,0,,,72,62
475680,note_on,480,0,3,,,,,,,,,2,,,49,62
475680,note_on,0,0,3,,,,,,,,,2,,,57,62
475680,note_on,240,0,2,,,,,,,,,1,,,70,0
475680,note_on,0,0,3,,,,,,,,,2,,,52,62
475727,note_on,47,0,1,,,,,,,,,0,,,72,0
475920,note_on,0,0,2,,,,,,,,,1,,,67,62
475920,note_on,240,0,2,,,,,,,,,1,,,69,0
476160,note_on,0,0,2,,,,,,,,,1,,,65,62
476160,note_on,480,0,3,,,,,,,,,2,,,57,0
476160,note_on,0,0,3,,,,,,,,,2,,,52,0
476160,note_on,0,0,3,,,,,,,,,2,,,49,0
476160,note_on,240,0,2,,,,,,,,,1,,,67,0
476160,note_on,433,0,1,,,,,,,,,0,,,73,62
476207,note_on,47,0,1,,,,,,,,,0,,,73,0
476400,note_on,0,0,2,,,,,,,,,1,,,64,62
476400,control_change,0,0,2,,,,,,,,,1,64,0,,
476400,note_on,240,0,2,,,,,,,,,1,,,65,0
476640,note_on,433,0,1,,,,,,,,,0,,,77,62
476640,note_on,1440,0,4,,,,,,,,,3,,,38,62
476640,note_on,0,0,2,,,,,,,,,1,,,62,62
476640,note_on,240,0,2,,,,,,,,,1,,,64,0
476640,note_on,480,0,3,,,,,,,,,2,,,50,62
476687,note_on,47,0,1,,,,,,,,,0,,,77,0
476880,note_on,0,0,3,,,,,,,,,2,,,57,62
476880,note_on,240,0,3,,,,,,,,,2,,,50,0
477120,note_on,240,0,3,,,,,,,,,2,,,57,0
477120,note_on,480,0,2,,,,,,,,,1,,,62,0
477120,note_on,0,0,3,,,,,,,,,2,,,53,62
477120,note_on,480,0,4,,,,,,,,,3,,,38,0
477360,note_on,240,0,3,,,,,,,,,2,,,53,0
477360,note_on,0,0,3,,,,,,,,,2,,,57,62
477600,note_on,480,0,2,,,,,,,,,1,,,68,88
477600,note_on,0,0,3,,,,,,,,,2,,,53,62
477600,note_on,240,0,3,,,,,,,,,2,,,57,0
477600,note_on,480,0,4,,,,,,,,,3,,,41,62
477600,note_on,913,0,1,,,,,,,,,0,,,80,88
477647,note_on,47,0,1,,,,,,,,,0,,,80,0
477647,note_on,47,0,2,,,,,,,,,1,,,68,0
477840,note_on,240,0,3,,,,,,,,,2,,,53,0
477840,note_on,0,0,3,,,,,,,,,2,,,62,62
478080,note_on,433,0,1,,,,,,,,,0,,,81,62
478080,note_on,480,0,4,,,,,,,,,3,,,41,0
478080,note_on,240,0,3,,,,,,,,,2,,,62,0
478080,note_on,0,0,3,,,,,,,,,2,,,57,62
478080,note_on,433,0,2,,,,,,,,,1,,,69,62
478127,note_on,47,0,1,,,,,,,,,0,,,81,0
478127,note_on,47,0,2,,,,,,,,,1,,,69,0
478320,note_on,0,0,3,,,,,,,,,2,,,62,62
478320,note_on,240,0,3,,,,,,,,,2,,,57,0
478560,note_on,240,0,3,,,,,,,,,2,,,62,0
478560,note_on,433,0,1,,,,,,,,,0,,,78,88
478560,note_on,0,0,3,,,,,,,,,2,,,55,62
478560,note_on,433,0,2,,,,,,,,,1,,,66,88
478560,note_on,480,0,4,,,,,,,,,3,,,43,62
478607,note_on,47,0,2,,,,,,,,,1,,,66,0
478607,note_on,47,0,1,,,,,,,,,0,,,78,0
478800,note_on,240,0,3,,,,,,,,,2,,,55,0
478800,note_on,0,0,3,,,,,,,,,2,,,64,62
479040,note_on,433,0,1,,,,,,,,,0,,,79,62
479040,note_on,0,0,3,,,,,,,,,2,,,60,62
479040,note_on,240,0,3,,,,,,,,,2,,,64,0
479040,note_on,433,0,2,,,,,,,,,1,,,67,62
479040,note_on,480,0,4,,,,,,,,,3,,,43,0
479087,note_on,47,0,1,,,,,,,,,0,,,79,0
479087,note_on,47,0,2,,,,,,,,,1,,,67,0
479280,note_on,0,0,3,,,,,,,,,2,,,64,62
479280,note_on,240,0,3,,,,,,,,,2,,,60,0
479520,note_on,433,0,1,,,,,,,,,0,,,76,88
479520,note_on,480,0,4,,,,,,,,,3,,,43,62
479520,note_on,0,0,3,,,,,,,,,2,,,55,62
479520,note_on,240,0,3,,,,,,,,,2,,,64,0
479567,note_on,47,0,1,,,,,,,,,0,,,76,0
479760,note_on,0,0,3,,,,,,,,,2,,,62,62
479760,note_on,240,0,3,,,,,,,,,2,,,55,0
480000,note_on,480,0,4,,,,,,,,,3,,,43,0
480000,note_on,0,0,3,,,,,,,,,2,,,59,62
480000,note_on,240,0,3,,,,,,,,,2,,,62,0
480000,note_on,433,0,1,,,,,,,,,0,,,77,62
480047,note_on,47,0,1,,,,,,,,,0,,,77,0
480240,note_on,0,0,3,,,,,,,,,2,,,62,62
480240,note_on,240,0,3,,,,,,,,,2,,,59,0
480480,note_on,240,0,3,,,,,,,,,2,,,62,0
480480,note_on,480,0,4,,,,,,,,,3,,,48,62
480480,note_on,0,0,3,,,,,,,,,2,,,60,62
480480,note_on,0,0,3,,,,,,,,,2,,,64,62
480480,note_on,0,0,3,,,,,,,,,2,,,55,62
480480,note_on,433,0,1,,,,,,,,,0,,,75,88
480480,note_on,0,0,2,,,,,,,,,1,,,67,88
480480,control_change,1393,0,2,,,,,,,,,1,64,127,,
480527,note_on,47,0,1,,,,,,,,,0,,,75,0
480960,note_on,480,0,3,,,,,,,,,2,,,64,0
480960,note_on,433,0,1,,,,,,,,,0,,,76,62
480960,note_on,0,0,3,,,,,,,,,2,,,60,0
480960,note_on,0,0,3,,,,,,,,,2,,,55,0
480960,note_on,480,0,4,,,,,,,,,3,,,48,0
481007,note_on,47,0,1,,,,,,,,,0,,,76,0
481200,note_on,0,0,2,,,,,,,,,1,,,69,62
481200,note_on,720,0,2,,,,,,,,,1,,,67,0
481440,note_on,0,0,2,,,,,,,,,1,,,67,62
481440,note_on,240,0,2,,,,,,,,,1,,,69,0
481440,note_on,480,0,3,,,,,,,,,2,,,52,62
481440,note_on,433,0,1,,,,,,,,,0,,,83,62
481440,note_on,0,0,3,,,,,,,,,2,,,55,62
481487,note_on,47,0,3,,,,,,,,,2,,,55,0
481487,note_on,0,0,3,,,,,,,,,2,,,52,0
481487,note_on,47,0,1,,,,,,,,,0,,,83,0
481680,note_on,0,0,2,,,,,,,,,1,,,65,62
481680,note_on,240,0,2,,,,,,,,,1,,,67,0
481920,note_on,0,0,2,,,,,,,,,1,,,64,62
481920,note_on,433,0,1,,,,,,,,,0,,,84,62
481920,note_on,240,0,2,,,,,,,,,1,,,65,0
481967,note_on,47,0,1,,,,,,,,,0,,,84,0
482160,note_on,0,0,2,,,,,,,,,1,,,62,62
482160,control_change,0,0,2,,,,,,,,,1,64,0,,
482160,note_on,240,0,2,,,,,,,,,1,,,64,0
482400,note_on,0,0,2,,,,,,,,,1,,,61,62
482400,note_on,240,0,2,,,,,,,,,1,,,62,0
482400,note_on,0,0,4,,,,,,,,,3,,,45,62
482400,control_change,1440,0,4,,,,,,,,,3,64,127,,
482400,note_on,433,0,1,,,,,,,,,0,,,88,62
482400,note_on,913,0,3,,,,,,,,,2,,,52,62
482400,note_on,0,0,3,,,,,,,,,2,,,57,62
482880,note_on,480,0,1,,,,,,,,,0,,,88,0
482880,note_on,480,0,3,,,,,,,,,2,,,57,0
482880,note_on,480,0,2,,,,,,,,,1,,,61,0
482880,note_on,0,0,3,,,,,,,,,2,,,52,0
483120,note_on,0,0,4,,,,,,,,,3,,,46,62
483120,note_on,720,0,4,,,,,,,,,3,,,45,0
483360,note_on,480,0,2,,,,,,,,,1,,,72,62
483360,note_on,0,0,4,,,,,,,,,3,,,45,62
483360,note_on,0,0,3,,,,,,,,,2,,,57,62
483360,note_on,480,0,3,,,,,,,,,2,,,52,62
483360,note_on,0,0,3,,,,,,,,,2,,,61,62
483360,note_on,480,0,1,,,,,,,,,0,,,84,62
483360,note_on,240,0,4,,,,,,,,,3,,,46,0
483407,note_on,47,0,1,,,,,,,,,0,,,84,0
483407,note_on,47,0,2,,,,,,,,,1,,,72,0
483600,note_on,0,0,4,,,,,,,,,3,,,43,62
483600,note_on,240,0,4,,,,,,,,,3,,,45,0
483840,note_on,433,0,1,,,,,,,,,0,,,85,62
483840,note_on,480,0,3,,,,,,,,,2,,,61,0
483840,note_on,0,0,3,,,,,,,,,2,,,57,0
483840,note_on,0,0,3,,,,,,,,,2,,,52,0
483840,note_on,0,0,4,,,,,,,,,3,,,41,62
483840,note_on,240,0,4,,,,,,,,,3,,,43,0
483840,note_on,433,0,2,,,,,,,,,1,,,73,62
483887,note_on,47,0,1,,,,,,,,,0,,,85,0
483887,note_on,47,0,2,,,,,,,,,1,,,73,0
484080,note_on,240,0,4,,,,,,,,,3,,,41,0
484080,control_change,0,0,4,,,,,,,,,3,64,0,,
484080,note_on,0,0,4,,,,,,,,,3,,,40,62
484320,note_on,433,0,2,,,,,,,,,1,,,77,62
484320,note_on,433,0,1,,,,,,,,,0,,,89,62
484320,note_on,480,0,3,,,,,,,,,2,,,53,62
484320,note_on,240,0,4,,,,,,,,,3,,,40,0
484320,note_on,0,0,4,,,,,,,,,3,,,38,62
484367,note_on,47,0,2,,,,,,,,,1,,,77,0
484367,note_on,47,0,1,,,,,,,,,0,,,89,0
484560,note_on,0,0,3,,,,,,,,,2,,,62,62
484560,note_on,240,0,3,,,,,,,,,2,,,53,0
484800,note_on,0,0,3,,,,,,,,,2,,,57,62
484800,note_on,240,0,3,,,,,,,,,2,,,62,0
484800,note_on,480,0,4,,,,,,,,,3,,,38,0
485040,note_on,0,0,3,,,,,,,,,2,,,62,62
485040,note_on,240,0,3,,,,,,,,,2,,,57,0
485280,note_on,913,0,1,,,,,,,,,0,,,92,88
485280,note_on,0,0,3,,,,,,,,,2,,,53,62
485280,note_on,913,0,2,,,,,,,,,1,,,80,88
485280,note_on,240,0,3,,,,,,,,,2,,,62,0
485280,note_on,480,0,4,,,,,,,,,3,,,41,62
485327,note_on,47,0,1,,,,,,,,,0,,,92,0
485327,note_on,47,0,2,,,,,,,,,1,,,80,0
485520,note_on,240,0,3,,,,,,,,,2,,,53,0
485520,note_on,0,0,3,,,,,,,,,2,,,62,62
485760,note_on,480,0,4,,,,,,,,,3,,,41,0
485760,note_on,0,0,3,,,,,,,,,2,,,57,62
485760,note_on,240,0,3,,,,,,,,,2,,,62,0
485760,note_on,433,0,2,,,,,,,,,1,,,81,62
485760,note_on,433,0,1,,,,,,,,,0,,,93,62
485807,note_on,47,0,1,,,,,,,,,0,,,93,0
485807,note_on,47,0,2,,,,,,,,,1,,,81,0
486000,note_on,0,0,3,,,,,,,,,2,,,62,62
486000,note_on,240,0,3,,,,,,,,,2,,,57,0
486240,note_on,433,0,1,,,,,,,,,0,,,90,88
486240,note_on,0,0,3,,,,,,,,,2,,,55,62
486240,note_on,240,0,3,,,,,,,,,2,,,62,0
486240,note_on,433,0,2,,,,,,,,,1,,,78,88
486240,note_on,480,0,4,,,,,,,,,3,,,43,62
486287,note_on,47,0,1,,,,,,,,,0,,,90,0
486287,note_on,47,0,2,,,,,,,,,1,,,78,0
486480,note_on,0,0,3,,,,,,,,,2,,,64,62
486480,note_on,240,0,3,,,,,,,,,2,,,55,0
486720,note_on,433,0,1,,,,,,,,,0,,,91,62
486720,note_on,433,0,2,,,,,,,,,1,,,79,62
486720,note_on,480,0,4,,,,,,,,,3,,,43,0
486720,note_on,0,0,3,,,,,,,,,2,,,60,62
486720,note_on,240,0,3,,,,,,,,,2,,,64,0
486767,note_on,47,0,2,,,,,,,,,1,,,79,0
486767,note_on,47,0,1,,,,,,,,,0,,,91,0
486960,note_on,240,0,3,,,,,,,,,2,,,60,0
486960,note_on,0,0,3,,,,,,,,,2,,,64,62
487200,note_on,433,0,1,,,,,,,,,0,,,88,88
487200,note_on,433,0,2,,,,,,,,,1,,,76,88
487200,note_on,480,0,4,,,,,,,,,3,,,44,62
487200,note_on,0,0,3,,,,,,,,,2,,,59,62
487200,note_on,240,0,3,,,,,,,,,2,,,64,0
487247,note_on,47,0,1,,,,,,,,,0,,,88,0
487247,note_on,47,0,2,,,,,,,,,1,,,76,0
487440,note_on,240,0,3,,,,,,,,,2,,,59,0
487440,note_on,0,0,3,,,,,,,,,2,,,65,62
487680,note_on,433,0,2,,,,,,,,,1,,,77,62
487680,note_on,433,0,1,,,,,,,,,0,,,89,62
487680,note_on,240,0,3,,,,,,,,,2,,,65,0
487680,note_on,480,0,4,,,,,,,,,3,,,44,0
487680,note_on,0,0,3,,,,,,,,,2,,,62,62
487727,note_on,47,0,1,,,,,,,,,0,,,89,0
487727,note_on,47,0,2,,,,,,,,,1,,,77,0
487920,note_on,240,0,3,,,,,,,,,2,,,62,0
487920,note_on,0,0,3,,,,,,,,,2,,,65,62
488160,note_on,0,0,3,,,,,,,,,2,,,52,62
488160,note_on,433,0,2,,,,,,,,,1,,,75,88
488160,note_on,480,0,4,,,,,,,,,3,,,45,62
488160,note_on,240,0,3,,,,,,,,,2,,,65,0
488160,note_on,433,0,1,,,,,,,,,0,,,87,88
488207,note_on,47,0,1,,,,,,,,,0,,,87,0
488207,note_on,47,0,2,,,,,,,,,1,,,75,0
488400,note_on,0,0,3,,,,,,,,,2,,,64,62
488400,note_on,240,0,3,,,,,,,,,2,,,52,0
488640,note_on,433,0,2,,,,,,,,,1,,,76,62
488640,note_on,240,0,3,,,,,,,,,2,,,64,0
488640,note_on,433,0,1,,,,,,,,,0,,,88,62
488640,note_on,0,0,3,,,,,,,,,2,,,60,62
488640,note_on,480,0,4,,,,,,,,,3,,,45,0
488687,note_on,47,0,1,,,,,,,,,0,,,88,0
488687,note_on,47,0,2,,,,,,,,,1,,,76,0
488880,note_on,240,0,3,,,,,,,,,2,,,60,0
488880,note_on,0,0,3,,,,,,,,,2,,,64,62
489120,note_on,433,0,1,,,,,,,,,0,,,81,88
489120,note_on,480,0,4,,,,,,,,,3,,,41,88
489120,note_on,433,0,2,,,,,,,,,1,,,69,88
489120,note_on,0,0,3,,,,,,,,,2,,,53,88
489120,note_on,240,0,3,,,,,,,,,2,,,64,0
489167,note_on,47,0,2,,,,,,,,,1,,,69,0
489167,note_on,47,0,1,,,,,,,,,0,,,81,0
489360,note_on,0,0,3,,,,,,,,,2,,,62,88
489360,note_on,240,0,3,,,,,,,,,2,,,53,0
489600,note_on,240,0,3,,,,,,,,,2,,,62,0
489600,note_on,433,0,1,,,,,,,,,0,,,86,88
489600,note_on,0,0,1,,,,,,,,,0,,,89,88
489600,note_on,433,0,2,,,,,,,,,1,,,74,88
489600,note_on,480,0,4,,,,,,,,,3,,,41,0
489600,note_on,0,0,3,,,,,,,,,2,,,57,88
489600,note_on,0,0,2,,,,,,,,,1,,,77,88
489647,note_on,0,0,1,,,,,,,,,0,,,86,0
489647,note_on,47,0,1,,,,,,,,,0,,,89,0
489647,note_on,0,0,2,,,,,,,,,1,,,74,0
489647,note_on,47,0,2,,,,,,,,,1,,,77,0
489840,note_on,240,0,3,,,,,,,,,2,,,57,0
489840,note_on,0,0,3,,,,,,,,,2,,,62,88
490080,note_on,240,0,3,,,,,,,,,2,,,62,0
490080,note_on,0,0,3,,,,,,,,,2,,,60,88
490080,note_on,433,0,1,,,,,,,,,0,,,79,88
490080,note_on,433,0,2,,,,,,,,,1,,,67,88
490080,note_on,480,0,4,,,,,,,,,3,,,43,88
490127,note_on,47,0,2,,,,,,,,,1,,,67,0
490127,note_on,47,0,1,,,,,,,,,0,,,79,0
490320,note_on,0,0,3,,,,,,,,,2,,,64,88
490320,note_on,240,0,3,,,,,,,,,2,,,60,0
490560,note_on,0,0,3,,,,,,,,,2,,,55,88
490560,note_on,0,0,2,,,,,,,,,1,,,76,88
490560,note_on,0,0,1,,,,,,,,,0,,,88,88
490560,note_on,433,0,1,,,,,,,,,0,,,84,88
490560,note_on,240,0,3,,,,,,,,,2,,,64,0
490560,note_on,480,0,4,,,,,,,,,3,,,43,0
490560,note_on,433,0,2,,,,,,,,,1,,,72,88
490607,note_on,47,0,2,,,,,,,,,1,,,76,0
490607,note_on,0,0,1,,,,,,,,,0,,,84,0
490607,note_on,0,0,2,,,,,,,,,1,,,72,0
490607,note_on,47,0,1,,,,,,,,,0,,,88,0
490800,note_on,240,0,3,,,,,,,,,2,,,55,0
490800,note_on,0,0,3,,,,,,,,,2,,,64,88
491040,note_on,433,0,2,,,,,,,,,1,,,67,88
491040,note_on,240,0,3,,,,,,,,,2,,,64,0
491040,note_on,0,0,3,,,,,,,,,2,,,59,88
491040,note_on,480,0,4,,,,,,,,,3,,,43,88
491040,note_on,433,0,1,,,,,,,,,0,,,79,88
491087,note_on,47,0,2,,,,,,,,,1,,,67,0
491087,note_on,47,0,1,,,,,,,,,0,,,79,0
491280,note_on,240,0,3,,,,,,,,,2,,,59,0
491280,note_on,0,0,3,,,,,,,,,2,,,62,88
491520,note_on,0,0,1,,,,,,,,,0,,,86,88
491520,note_on,433,0,1,,,,,,,,,0,,,83,88
491520,note_on,0,0,3,,,,,,,,,2,,,55,88
491520,note_on,433,0,2,,,,,,,,,1,,,71,88
491520,note_on,0,0,2,,,,,,,,,1,,,74,88
491520,note_on,480,0,4,,,,,,,,,3,,,43,0
491520,note_on,240,0,3,,,,,,,,,2,,,62,0
491567,note_on,0,0,1,,,,,,,,,0,,,83,0
491567,note_on,47,0,2,,,,,,,,,1,,,74,0
491567,note_on,0,0,2,,,,,,,,,1,,,71,0
491567,note_on,47,0,1,,,,,,,,,0,,,86,0
491760,note_on,0,0,3,,,,,,,,,2,,,62,88
491760,note_on,240,0,3,,,,,,,,,2,,,55,0
492000,note_on,0,0,3,,,,,,,,,2,,,55,101
492000,note_on,240,0,3,,,,,,,,,2,,,62,0
492000,note_on,433,0,2,,,,,,,,,1,,,64,88
492000,note_on,480,0,4,,,,,,,,,3,,,48,101
492000,note_on,433,0,1,,,,,,,,,0,,,76,88
492047,note_on,47,0,2,,,,,,,,,1,,,64,0
492047,note_on,47,0,1,,,,,,,,,0,,,76,0
492240,note_on,240,0,3,,,,,,,,,2,,,55,0
492240,note_on,0,0,3,,,,,,,,,2,,,60,101
492480,note_on,433,0,2,,,,,,,,,1,,,67,88
492480,note_on,480,0,4,,,,,,,,,3,,,48,0
492480,note_on,0,0,3,,,,,,,,,2,,,52,101
492480,note_on,240,0,3,,,,,,,,,2,,,60,0
492480,note_on,0,0,1,,,,,,,,,0,,,84,88
492480,note_on,433,0,1,,,,,,,,,0,,,79,88
492527,note_on,47,0,1,,,,,,,,,0,,,84,0
492527,note_on,0,0,1,,,,,,,,,0,,,79,0
492720,note_on,240,0,3,,,,,,,,,2,,,52,0
492720,note_on,0,0,3,,,,,,,,,2,,,60,101
492960,note_on,0,0,2,,,,,,,,,1,,,65,88
492960,note_on,0,0,3,,,,,,,,,2,,,59,101
492960,set_tempo,158400,1,0,,,,,,312500,,,,,,,
492960,note_on,480,0,2,,,,,,,,,1,,,67,0
492960,note_on,0,0,3,,,,,,,,,2,,,53,101
492960,note_on,433,0,1,,,,,,,,,0,,,74,101
492960,note_on,480,0,4,,,,,,,,,3,,,38,101
492960,note_on,240,0,3,,,,,,,,,2,,,60,0
493007,note_on,47,0,1,,,,,,,,,0,,,74,0
493007,note_on,47,0,3,,,,,,,,,2,,,59,0
493007,note_on,0,0,3,,,,,,,,,2,,,53,0
493200,note_on,240,0,2,,,,,,,,,1,,,65,0
493200,note_on,0,0,2,,,,,,,,,1,,,71,88
493440,note_on,480,0,4,,,,,,,,,3,,,38,0
493440,note_on,0,0,1,,,,,,,,,0,,,83,101
493440,note_on,433,0,1,,,,,,,,,0,,,77,101
493440,note_on,240,0,2,,,,,,,,,1,,,71,0
493440,note_on,0,0,2,,,,,,,,,1,,,62,88
493440,note_on,433,0,3,,,,,,,,,2,,,50,101
493487,note_on,47,0,3,,,,,,,,,2,,,50,0
493487,note_on,0,0,1,,,,,,,,,0,,,77,0
493487,note_on,47,0,1,,,,,,,,,0,,,83,0
493680,note_on,0,0,2,,,,,,,,,1,,,71,88
493680,note_on,240,0,2,,,,,,,,,1,,,62,0
493920,note_on,0,0,3,,,,,,,,,2,,,57,101
493920,note_on,0,0,2,,,,,,,,,1,,,64,88
493920,note_on,480,0,4,,,,,,,,,3,,,40,101
493920,note_on,240,0,2,,,,,,,,,1,,,71,0
493920,note_on,433,0,3,,,,,,,,,2,,,52,101
493920,note_on,433,0,1,,,,,,,,,0,,,72,101
493967,note_on,47,0,3,,,,,,,,,2,,,57,0
493967,note_on,0,0,3,,,,,,,,,2,,,52,0
493967,note_on,47,0,1,,,,,,,,,0,,,72,0
494160,note_on,0,0,2,,,,,,,,,1,,,69,88
494160,note_on,240,0,2,,,,,,,,,1,,,64,0
494400,note_on,0,0,2,,,,,,,,,1,,,60,88
494400,note_on,240,0,2,,,,,,,,,1,,,69,0
494400,note_on,433,0,3,,,,,,,,,2,,,48,101
494400,note_on,433,0,1,,,,,,,,,0,,,76,101
494400,note_on,0,0,1,,,,,,,,,0,,,81,101
494400,note_on,480,0,4,,,,,,,,,3,,,40,0
494447,note_on,47,0,1,,,,,,,,,0,,,81,0
494447,note_on,0,0,1,,,,,,,,,0,,,76,0
494447,note_on,47,0,3,,,,,,,,,2,,,48,0
494640,note_on,0,0,2,,,,,,,,,1,,,69,88
494640,note_on,240,0,2,,,,,,,,,1,,,60,0
494880,note_on,240,0,2,,,,,,,,,1,,,69,0
494880,note_on,480,0,4,,,,,,,,,3,,,40,101
494880,note_on,0,0,3,,,,,,,,,2,,,56,101
494880,note_on,433,0,3,,,,,,,,,2,,,52,101
494880,note_on,0,0,2,,,,,,,,,1,,,64,88
494880,note_on,433,0,1,,,,,,,,,0,,,71,101
494927,note_on,0,0,3,,,,,,,,,2,,,52,0
494927,note_on,47,0,3,,,,,,,,,2,,,56,0
494927,note_on,47,0,1,,,,,,,,,0,,,71,0
495120,note_on,240,0,2,,,,,,,,,1,,,64,0
495120,note_on,0,0,2,,,,,,,,,1,,,68,88
495360,note_on,433,0,3,,,,,,,,,2,,,52,101
495360,note_on,480,0,4,,,,,,,,,3,,,40,0
495360,note_on,0,0,1,,,,,,,,,0,,,80,101
495360,note_on,433,0,1,,,,,,,,,0,,,76,101
495360,note_on,240,0,2,,,,,,,,,1,,,68,0
495360,note_on,0,0,2,,,,,,,,,1,,,59,88
495407,note_on,0,0,1,,,,,,,,,0,,,76,0
495407,note_on,47,0,3,,,,,,,,,2,,,52,0
495407,note_on,47,0,1,,,,,,,,,0,,,80,0
495600,note_on,0,0,2,,,,,,,,,1,,,68,88
495600,note_on,240,0,2,,,,,,,,,1,,,59,0
495840,note_on,240,0,2,,,,,,,,,1,,,68,0
497760,note_on,1920,0,2,,,,,,,,,1,,,72,88
497760,note_on,0,0,2,,,,,,,,,1,,,76,88
497760,note_on,0,0,2,,,,,,,,,1,,,81,88
497760,note_on,2400,0,4,,,,,,,,,3,,,33,88
497760,note_on,0,0,1,,,,,,,,,0,,,93,88
497760,note_on,0,0,1,,,,,,,,,0,,,88,88
497760,note_on,2353,0,1,,,,,,,,,0,,,84,88
497760,note_on,2353,0,3,,,,,,,,,2,,,45,88
497760,note_on,0,0,3,,,,,,,,,2,,,57,88
497760,set_tempo,0,1,0,,,,,,270270,,,,,,,
497760,time_signature,4800,1,0,1,4,24,8,,,,,,,,,
498000,note_on,240,0,3,,,,,,,,,2,,,57,0
498000,note_on,0,0,3,,,,,,,,,2,,,45,0
498000,note_on,240,0,1,,,,,,,,,0,,,93,0
498000,note_on,0,0,4,,,,,,,,,3,,,33,88
498000,note_on,0,0,1,,,,,,,,,0,,,93,88
498000,note_on,0,0,1,,,,,,,,,0,,,88,88
498000,note_on,0,0,1,,,,,,,,,0,,,84,88
498000,note_on,0,0,3,,,,,,,,,2,,,57,88
498000,note_on,240,0,2,,,,,,,,,1,,,81,0
498000,note_on,0,0,2,,,,,,,,,1,,,76,0
498000,note_on,0,0,2,,,,,,,,,1,,,72,0
498000,note_on,0,0,2,,,,,,,,,1,,,72,88
498000,note_on,0,0,2,,,,,,,,,1,,,76,88
498000,note_on,0,0,2,,,,,,,,,1,,,81,88
498000,note_on,0,0,1,,,,,,,,,0,,,84,0
498000,note_on,0,0,1,,,,,,,,,0,,,88,0
498000,note_on,240,0,4,,,,,,,,,3,,,33,0
498000,note_on,0,0,3,,,,,,,,,2,,,45,88
498240,note_on,0,0,2,,,,,,,,,1,,,72,114
498240,note_on,240,0,2,,,,,,,,,1,,,81,0
498240,note_on,0,0,1,,,,,,,,,0,,,84,114
498240,note_on,0,0,1,,,,,,,,,0,,,84,0
498240,note_on,0,0,2,,,,,,,,,1,,,76,0
498240,note_on,0,0,1,,,,,,,,,0,,,88,0
498240,note_on,240,0,1,,,,,,,,,0,,,93,0
498240,note_on,0,0,3,,,,,,,,,2,,,57,88
498240,note_on,0,0,3,,,,,,,,,2,,,45,88
498240,note_on,0,0,3,,,,,,,,,2,,,45,0
498240,note_on,240,0,3,,,,,,,,,2,,,57,0
498240,note_on,0,0,1,,,,,,,,,0,,,93,114
498240,note_on,0,0,1,,,,,,,,,0,,,88,114
498240,time_signature,480,1,0,4,4,24,8,,,,,,,,,
498240,note_on,0,0,2,,,,,,,,,1,,,81,114
498240,note_on,0,0,2,,,,,,,,,1,,,76,114
498240,note_on,0,0,2,,,,,,,,,1,,,72,0
498240,note_on,0,0,4,,,,,,,,,3,,,33,88
498240,note_on,240,0,4,,,,,,,,,3,,,33,0
499680,note_on,0,0,2,,,,,,,,,1,,,69,88
499680,note_on,0,0,2,,,,,,,,,1,,,72,0
499680,note_on,0,0,2,,,,,,,,,1,,,76,0
499680,note_on,1440,0,2,,,,,,,,,1,,,81,0
499680,note_on,0,0,1,,,,,,,,,0,,,84,88
499680,note_on,0,0,2,,,,,,,,,1,,,72,88
499680,note_on,0,0,2,,,,,,,,,1,,,76,88
499680,note_on,0,0,1,,,,,,,,,0,,,81,88
499680,note_on,0,0,1,,,,,,,,,0,,,88,0
499680,note_on,0,0,3,,,,,,,,,2,,,45,88
499680,note_on,0,0,3,,,,,,,,,2,,,45,0
499680,note_on,1440,0,3,,,,,,,,,2,,,57,0
499680,note_on,0,0,1,,,,,,,,,0,,,84,0
499680,note_on,0,0,1,,,,,,,,,0,,,88,88
499680,note_on,0,0,4,,,,,,,,,3,,,33,88
499680,note_on,1440,0,4,,,,,,,,,3,,,33,0
499680,note_on,1440,0,1,,,,,,,,,0,,,93,0
499680,note_on,0,0,3,,,,,,,,,2,,,57,88
499920,note_on,0,0,1,,,,,,,,,0,,,88,88
499920,note_on,0,0,1,,,,,,,,,0,,,84,88
499920,note_on,0,0,1,,,,,,,,,0,,,81,88
499920,note_on,0,0,1,,,,,,,,,0,,,81,0
499920,note_on,0,0,1,,,,,,,,,0,,,84,0
499920,note_on,240,0,1,,,,,,,,,0,,,88,0
499920,note_on,240,0,3,,,,,,,,,2,,,57,0
499920,note_on,0,0,2,,,,,,,,,1,,,69,0
499920,note_on,240,0,4,,,,,,,,,3,,,33,0
499920,note_on,0,0,4,,,,,,,,,3,,,33,88
499920,note_on,0,0,2,,,,,,,,,1,,,72,0
499920,note_on,0,0,3,,,,,,,,,2,,,45,0
499920,note_on,240,0,2,,,,,,,,,1,,,76,0
499920,note_on,0,0,3,,,,,,,,,2,,,57,88
499920,note_on,0,0,2,,,,,,,,,1,,,76,88
499920,note_on,0,0,2,,,,,,,,,1,,,72,88
499920,note_on,0,0,2,,,,,,,,,1,,,69,88
499920,note_on,0,0,3,,,,,,,,,2,,,45,88
500160,note_on,240,0,2,,,,,,,,,1,,,76,0
500160,note_on,0,0,2,,,,,,,,,1,,,69,0
500160,note_on,0,0,2,,,,,,,,,1,,,69,114
500160,note_on,0,0,2,,,,,,,,,1,,,72,114
500160,note_on,0,0,2,,,,,,,,,1,,,76,114
500160,note_on,0,0,2,,,,,,,,,1,,,72,0
500160,note_on,0,0,1,,,,,,,,,0,,,84,0
500160,note_on,0,0,1,,,,,,,,,0,,,81,0
500160,note_on,0,0,1,,,,,,,,,0,,,81,114
500160,note_on,0,0,1,,,,,,,,,0,,,84,114
500160,note_on,0,0,1,,,,,,,,,0,,,88,114
500160,note_on,0,0,3,,,,,,,,,2,,,57,88
500160,note_on,0,0,3,,,,,,,,,2,,,45,88
500160,note_on,0,0,3,,,,,,,,,2,,,45,0
500160,note_on,240,0,3,,,,,,,,,2,,,57,0
500160,note_on,240,0,1,,,,,,,,,0,,,88,0
500160,note_on,240,0,4,,,,,,,,,3,,,33,0
500160,note_on,0,0,4,,,,,,,,,3,,,33,88
500640,note_on,0,0,2,,,,,,,,,1,,,72,88
500640,note_on,0,0,4,,,,,,,,,3,,,33,88
500640,note_on,480,0,2,,,,,,,,,1,,,76,0
500640,note_on,0,0,2,,,,,,,,,1,,,72,0
500640,note_on,0,0,2,,,,,,,,,1,,,69,0
500640,note_on,0,0,2,,,,,,,,,1,,,64,88
500640,note_on,0,0,2,,,,,,,,,1,,,69,88
500640,note_on,480,0,4,,,,,,,,,3,,,33,0
500640,note_on,480,0,3,,,,,,,,,2,,,57,0
500640,note_on,0,0,3,,,,,,,,,2,,,45,88
500640,note_on,0,0,3,,,,,,,,,2,,,57,88
500640,note_on,480,0,1,,,,,,,,,0,,,88,0
500640,note_on,0,0,1,,,,,,,,,0,,,84,0
500640,note_on,0,0,1,,,,,,,,,0,,,81,0
500640,note_on,0,0,1,,,,,,,,,0,,,76,88
500640,note_on,0,0,1,,,,,,,,,0,,,81,88
500640,note_on,0,0,1,,,,,,,,,0,,,84,88
500640,note_on,0,0,3,,,,,,,,,2,,,45,0
500880,note_on,0,0,2,,,,,,,,,1,,,64,88
500880,note_on,0,0,3,,,,,,,,,2,,,57,88
500880,note_on,240,0,4,,,,,,,,,3,,,33,0
500880,note_on,0,0,4,,,,,,,,,3,,,33,88
500880,note_on,0,0,3,,,,,,,,,2,,,45,88
500880,note_on,0,0,3,,,,,,,,,2,,,45,0
500880,note_on,240,0,3,,,,,,,,,2,,,57,0
500880,note_on,0,0,2,,,,,,,,,1,,,69,88
500880,note_on,0,0,2,,,,,,,,,1,,,64,0
500880,note_on,0,0,2,,,,,,,,,1,,,72,88
500880,note_on,240,0,2,,,,,,,,,1,,,72,0
500880,note_on,0,0,1,,,,,,,,,0,,,81,88
500880,note_on,0,0,1,,,,,,,,,0,,,76,88
500880,note_on,0,0,2,,,,,,,,,1,,,69,0
500880,note_on,0,0,1,,,,,,,,,0,,,84,88
500880,note_on,240,0,1,,,,,,,,,0,,,84,0
500880,note_on,0,0,1,,,,,,,,,0,,,76,0
500880,note_on,0,0,1,,,,,,,,,0,,,81,0
501120,note_on,0,0,2,,,,,,,,,1,,,69,0
501120,note_on,0,0,1,,,,,,,,,0,,,81,0
501120,note_on,0,0,1,,,,,,,,,0,,,76,0
501120,note_on,0,0,1,,,,,,,,,0,,,76,114
501120,note_on,0,0,1,,,,,,,,,0,,,81,114
501120,note_on,0,0,1,,,,,,,,,0,,,84,114
501120,note_on,240,0,3,,,,,,,,,2,,,57,0
501120,note_on,0,0,3,,,,,,,,,2,,,45,0
501120,note_on,0,0,3,,,,,,,,,2,,,45,88
501120,note_on,0,0,3,,,,,,,,,2,,,57,88
501120,note_on,240,0,1,,,,,,,,,0,,,84,0
501120,note_on,0,0,4,,,,,,,,,3,,,33,88
501120,note_on,240,0,4,,,,,,,,,3,,,33,0
501120,note_on,0,0,2,,,,,,,,,1,,,72,114
501120,note_on,0,0,2,,,,,,,,,1,,,69,114
501120,note_on,0,0,2,,,,,,,,,1,,,64,114
501120,note_on,0,0,2,,,,,,,,,1,,,64,0
501120,note_on,240,0,2,,,,,,,,,1,,,72,0
501600,note_on,480,0,3,,,,,,,,,2,,,57,0
501600,note_on,0,0,1,,,,,,,,,0,,,81,0
501600,note_on,0,0,3,,,,,,,,,2,,,45,88
501600,note_on,0,0,1,,,,,,,,,0,,,76,0
501600,note_on,0,0,1,,,,,,,,,0,,,72,88
501600,note_on,0,0,1,,,,,,,,,0,,,76,88
501600,note_on,0,0,1,,,,,,,,,0,,,81,88
501600,note_on,0,0,4,,,,,,,,,3,,,33,88
501600,note_on,480,0,4,,,,,,,,,3,,,33,0
501600,note_on,480,0,1,,,,,,,,,0,,,84,0
501600,note_on,0,0,3,,,,,,,,,2,,,57,88
501600,note_on,0,0,3,,,,,,,,,2,,,45,0
501600,note_on,0,0,2,,,,,,,,,1,,,69,88
501600,note_on,480,0,2,,,,,,,,,1,,,72,0
501600,note_on,0,0,2,,,,,,,,,1,,,69,0
501600,note_on,0,0,2,,,,,,,,,1,,,64,0
501600,note_on,0,0,2,,,,,,,,,1,,,60,88
501600,note_on,0,0,2,,,,,,,,,1,,,64,88
501840,note_on,0,0,2,,,,,,,,,1,,,60,0
501840,note_on,0,0,2,,,,,,,,,1,,,64,0
501840,note_on,240,0,2,,,,,,,,,1,,,69,0
501840,note_on,240,0,1,,,,,,,,,0,,,81,0
501840,note_on,0,0,1,,,,,,,,,0,,,76,0
501840,note_on,0,0,1,,,,,,,,,0,,,72,88
501840,note_on,0,0,2,,,,,,,,,1,,,64,88
501840,note_on,0,0,1,,,,,,,,,0,,,76,88
501840,note_on,0,0,1,,,,,,,,,0,,,81,88
501840,note_on,0,0,4,,,,,,,,,3,,,33,88
501840,note_on,240,0,4,,,,,,,,,3,,,33,0
501840,note_on,0,0,1,,,,,,,,,0,,,72,0
501840,note_on,0,0,2,,,,,,,,,1,,,69,88
501840,note_on,0,0,2,,,,,,,,,1,,,60,88
501840,note_on,0,0,3,,,,,,,,,2,,,57,88
501840,note_on,0,0,3,,,,,,,,,2,,,45,88
501840,note_on,0,0,3,,,,,,,,,2,,,45,0
501840,note_on,240,0,3,,,,,,,,,2,,,57,0
502080,note_on,240,0,3,,,,,,,,,2,,,57,0
502080,note_on,0,0,3,,,,,,,,,2,,,45,114
502080,note_on,0,0,1,,,,,,,,,0,,,76,0
502080,note_on,240,0,1,,,,,,,,,0,,,81,0
502080,note_on,0,0,3,,,,,,,,,2,,,45,0
502080,note_on,0,0,3,,,,,,,,,2,,,57,114
502080,note_on,240,0,4,,,,,,,,,3,,,33,0
502080,note_on,0,0,4,,,,,,,,,3,,,33,114
502080,note_on,0,0,1,,,,,,,,,0,,,72,114
502080,note_on,0,0,1,,,,,,,,,0,,,76,114
502080,note_on,0,0,1,,,,,,,,,0,,,81,114
502080,note_on,240,0,2,,,,,,,,,1,,,69,0
502080,note_on,0,0,2,,,,,,,,,1,,,64,0
502080,note_on,0,0,2,,,,,,,,,1,,,60,0
502080,note_on,0,0,2,,,,,,,,,1,,,60,114
502080,note_on,0,0,2,,,,,,,,,1,,,64,114
502080,note_on,0,0,2,,,,,,,,,1,,,69,114
502080,note_on,0,0,1,,,,,,,,,0,,,72,0
502560,note_on,0,0,3,,,,,,,,,2,,,57,88
502560,note_on,0,0,3,,,,,,,,,2,,,45,0
502560,note_on,480,0,3,,,,,,,,,2,,,57,0
502560,note_on,480,0,1,,,,,,,,,0,,,81,0
502560,note_on,0,0,3,,,,,,,,,2,,,45,88
502560,note_on,0,0,2,,,,,,,,,1,,,64,0
502560,note_on,0,0,4,,,,,,,,,3,,,33,88
502560,note_on,0,0,1,,,,,,,,,0,,,73,88
502560,note_on,0,0,2,,,,,,,,,1,,,60,0
502560,note_on,0,0,1,,,,,,,,,0,,,76,88
502560,note_on,0,0,1,,,,,,,,,0,,,79,88
502560,note_on,0,0,2,,,,,,,,,1,,,67,88
502560,note_on,0,0,1,,,,,,,,,0,,,76,0
502560,note_on,0,0,2,,,,,,,,,1,,,64,88
502560,note_on,0,0,2,,,,,,,,,1,,,61,88
502560,note_on,480,0,2,,,,,,,,,1,,,69,0
502560,note_on,480,0,4,,,,,,,,,3,,,33,0
502560,note_on,0,0,1,,,,,,,,,0,,,72,0
503040,note_on,0,0,1,,,,,,,,,0,,,76,0
503040,note_on,480,0,1,,,,,,,,,0,,,79,0
503040,note_on,480,0,3,,,,,,,,,2,,,57,0
503040,note_on,0,0,3,,,,,,,,,2,,,45,0
503040,note_on,480,0,2,,,,,,,,,1,,,67,0
503040,note_on,0,0,2,,,,,,,,,1,,,64,0
503040,note_on,0,0,2,,,,,,,,,1,,,61,0
503040,note_on,480,0,4,,,,,,,,,3,,,33,0
503040,note_on,0,0,1,,,,,,,,,0,,,73,0
503520,note_on,0,0,3,,,,,,,,,2,,,57,88
503520,note_on,0,0,2,,,,,,,,,1,,,64,88
503520,note_on,480,0,2,,,,,,,,,1,,,61,88
503520,note_on,480,0,3,,,,,,,,,2,,,45,88
503520,note_on,480,0,4,,,,,,,,,3,,,33,88
503520,note_on,480,0,1,,,,,,,,,0,,,73,88
503520,note_on,0,0,1,,,,,,,,,0,,,79,88
503520,note_on,0,0,1,,,,,,,,,0,,,76,88
503520,note_on,0,0,2,,,,,,,,,1,,,67,88
503760,note_on,240,0,1,,,,,,,,,0,,,79,0
503760,note_on,0,0,1,,,,,,,,,0,,,73,0
503760,note_on,0,0,3,,,,,,,,,2,,,45,88
503760,note_on,0,0,1,,,,,,,,,0,,,73,88
503760,note_on,0,0,1,,,,,,,,,0,,,76,88
503760,note_on,240,0,4,,,,,,,,,3,,,33,0
503760,note_on,0,0,4,,,,,,,,,3,,,33,88
503760,note_on,0,0,1,,,,,,,,,0,,,79,88
503760,note_on,240,0,3,,,,,,,,,2,,,57,0
503760,note_on,0,0,1,,,,,,,,,0,,,76,0
503760,note_on,0,0,3,,,,,,,,,2,,,57,88
503760,note_on,0,0,3,,,,,,,,,2,,,45,0
503760,note_on,240,0,2,,,,,,,,,1,,,67,0
503760,note_on,0,0,2,,,,,,,,,1,,,64,0
503760,note_on,0,0,2,,,,,,,,,1,,,61,0
503760,note_on,0,0,2,,,,,,,,,1,,,61,88
503760,note_on,0,0,2,,,,,,,,,1,,,64,88
503760,note_on,0,0,2,,,,,,,,,1,,,67,88
504000,note_on,0,0,1,,,,,,,,,0,,,73,114
504000,note_on,0,0,1,,,,,,,,,0,,,73,0
504000,note_on,0,0,4,,,,,,,,,3,,,33,114
504000,note_on,0,0,1,,,,,,,,,0,,,76,0
504000,note_on,0,0,2,,,,,,,,,1,,,67,114
504000,note_on,240,0,4,,,,,,,,,3,,,33,0
504000,note_on,0,0,2,,,,,,,,,1,,,61,114
504000,note_on,0,0,1,,,,,,,,,0,,,76,114
504000,note_on,0,0,2,,,,,,,,,1,,,64,0
504000,note_on,240,0,2,,,,,,,,,1,,,67,0
504000,note_on,0,0,2,,,,,,,,,1,,,64,114
504000,note_on,0,0,2,,,,,,,,,1,,,61,0
504000,note_on,0,0,1,,,,,,,,,0,,,79,114
504000,note_on,240,0,1,,,,,,,,,0,,,79,0
504000,note_on,240,0,3,,,,,,,,,2,,,57,0
504000,note_on,0,0,3,,,,,,,,,2,,,45,0
504000,note_on,0,0,3,,,,,,,,,2,,,45,114
504000,note_on,0,0,3,,,,,,,,,2,,,57,114
504480,note_on,0,0,1,,,,,,,,,0,,,77,88
504480,note_on,0,0,1,,,,,,,,,0,,,74,88
504480,note_on,0,0,1,,,,,,,,,0,,,73,0
504480,note_on,0,0,1,,,,,,,,,0,,,76,0
504480,note_on,480,0,1,,,,,,,,,0,,,79,0
504480,note_on,0,0,3,,,,,,,,,2,,,57,88
504480,note_on,0,0,3,,,,,,,,,2,,,45,88
504480,note_on,0,0,2,,,,,,,,,1,,,64,0
504480,note_on,480,0,3,,,,,,,,,2,,,57,0
504480,note_on,480,0,4,,,,,,,,,3,,,33,0
504480,note_on,0,0,4,,,,,,,,,3,,,33,88
504480,note_on,0,0,2,,,,,,,,,1,,,65,88
504480,note_on,480,0,2,,,,,,,,,1,,,67,0
504480,note_on,0,0,2,,,,,,,,,1,,,62,88
504480,note_on,0,0,2,,,,,,,,,1,,,61,0
504480,note_on,0,0,3,,,,,,,,,2,,,45,0
504960,note_on,480,0,1,,,,,,,,,0,,,77,0
504960,note_on,0,0,1,,,,,,,,,0,,,74,0
504960,note_on,0,0,2,,,,,,,,,1,,,62,0
504960,note_on,480,0,4,,,,,,,,,3,,,33,0
504960,note_on,480,0,3,,,,,,,,,2,,,57,0
504960,note_on,0,0,3,,,,,,,,,2,,,45,0
504960,note_on,480,0,2,,,,,,,,,1,,,65,0
505440,note_on,480,0,4,,,,,,,,,3,,,33,88
505440,note_on,0,0,4,,,,,,,,,3,,,45,88
505440,note_on,0,0,1,,,,,,,,,0,,,77,88
505440,note_on,480,0,3,,,,,,,,,2,,,56,88
505440,note_on,480,0,2,,,,,,,,,1,,,65,88
505440,note_on,480,0,1,,,,,,,,,0,,,70,88
505440,note_on,0,0,1,,,,,,,,,0,,,74,88
505680,note_on,240,0,3,,,,,,,,,2,,,56,0
505680,note_on,0,0,3,,,,,,,,,2,,,57,88
505680,note_on,0,0,2,,,,,,,,,1,,,65,88
505680,note_on,240,0,2,,,,,,,,,1,,,65,0
505680,note_on,0,0,1,,,,,,,,,0,,,77,88
505680,note_on,0,0,1,,,,,,,,,0,,,74,88
505680,note_on,0,0,1,,,,,,,,,0,,,69,88
505680,note_on,0,0,4,,,,,,,,,3,,,45,88
505680,note_on,0,0,4,,,,,,,,,3,,,33,88
505680,note_on,0,0,4,,,,,,,,,3,,,33,0
505680,note_on,240,0,4,,,,,,,,,3,,,45,0
505680,note_on,0,0,1,,,,,,,,,0,,,70,0
505680,note_on,240,0,1,,,,,,,,,0,,,77,0
505680,note_on,0,0,1,,,,,,,,,0,,,74,0
505920,note_on,240,0,4,,,,,,,,,3,,,45,0
505920,note_on,0,0,1,,,,,,,,,0,,,77,88
505920,note_on,0,0,4,,,,,,,,,3,,,33,0
505920,note_on,0,0,4,,,,,,,,,3,,,33,88
505920,note_on,0,0,4,,,,,,,,,3,,,45,88
505920,note_on,0,0,1,,,,,,,,,0,,,74,88
505920,note_on,0,0,1,,,,,,,,,0,,,69,0
505920,note_on,0,0,1,,,,,,,,,0,,,68,88
505920,note_on,0,0,2,,,,,,,,,1,,,65,88
505920,note_on,240,0,1,,,,,,,,,0,,,77,0
505920,note_on,240,0,2,,,,,,,,,1,,,65,0
505920,note_on,240,0,3,,,,,,,,,2,,,57,0
505920,note_on,0,0,1,,,,,,,,,0,,,74,0
505920,note_on,0,0,3,,,,,,,,,2,,,59,88
505920,note_on,0,0,3,,,,,,,,,2,,,47,88
505967,note_on,47,0,1,,,,,,,,,0,,,77,0
505967,note_on,0,0,1,,,,,,,,,0,,,74,0
505967,note_on,0,0,1,,,,,,,,,0,,,68,0
505967,note_on,0,0,4,,,,,,,,,3,,,33,0
505967,note_on,47,0,4,,,,,,,,,3,,,45,0
505967,note_on,47,0,2,,,,,,,,,1,,,65,0
505967,note_on,0,0,3,,,,,,,,,2,,,47,0
505967,note_on,47,0,3,,,,,,,,,2,,,59,0
506400,note_on,433,0,4,,,,,,,,,3,,,33,88
506400,note_on,0,0,1,,,,,,,,,0,,,74,88
506400,note_on,433,0,1,,,,,,,,,0,,,68,88
506400,note_on,0,0,1,,,,,,,,,0,,,77,88
506400,note_on,0,0,4,,,,,,,,,3,,,45,88
506400,note_on,433,0,2,,,,,,,,,1,,,65,88
506400,note_on,433,0,3,,,,,,,,,2,,,47,88
506400,note_on,0,0,3,,,,,,,,,2,,,59,88
506447,note_on,0,0,1,,,,,,,,,0,,,68,0
506447,note_on,0,0,1,,,,,,,,,0,,,74,0
506447,note_on,47,0,1,,,,,,,,,0,,,77,0
506447,note_on,47,0,4,,,,,,,,,3,,,45,0
506447,note_on,0,0,4,,,,,,,,,3,,,33,0
506447,note_on,0,0,3,,,,,,,,,2,,,47,0
506447,note_on,47,0,2,,,,,,,,,1,,,65,0
506447,note_on,47,0,3,,,,,,,,,2,,,59,0
506880,note_on,0,0,4,,,,,,,,,3,,,45,88
506880,note_on,433,0,4,,,,,,,,,3,,,33,88
506880,note_on,433,0,3,,,,,,,,,2,,,47,88
506880,note_on,0,0,3,,,,,,,,,2,,,59,88
506880,note_on,0,0,1,,,,,,,,,0,,,74,88
506880,note_on,433,0,2,,,,,,,,,1,,,65,88
506880,note_on,0,0,1,,,,,,,,,0,,,77,88
506880,note_on,433,0,1,,,,,,,,,0,,,68,88
506927,note_on,47,0,3,,,,,,,,,2,,,59,0
506927,note_on,47,0,4,,,,,,,,,3,,,45,0
506927,note_on,0,0,1,,,,,,,,,0,,,68,0
506927,note_on,0,0,1,,,,,,,,,0,,,74,0
506927,note_on,47,0,1,,,,,,,,,0,,,77,0
506927,note_on,0,0,3,,,,,,,,,2,,,47,0
506927,note_on,0,0,4,,,,,,,,,3,,,33,0
506927,note_on,47,0,2,,,,,,,,,1,,,65,0
507360,note_on,0,0,4,,,,,,,,,3,,,45,88
507360,note_on,433,0,2,,,,,,,,,1,,,65,88
507360,note_on,433,0,1,,,,,,,,,0,,,68,88
507360,note_on,0,0,1,,,,,,,,,0,,,74,88
507360,note_on,0,0,3,,,,,,,,,2,,,59,88
507360,note_on,433,0,3,,,,,,,,,2,,,47,88
507360,note_on,0,0,1,,,,,,,,,0,,,77,88
507360,note_on,433,0,4,,,,,,,,,3,,,33,88
507407,note_on,47,0,3,,,,,,,,,2,,,59,0
507407,note_on,47,0,2,,,,,,,,,1,,,65,0
507407,note_on,0,0,1,,,,,,,,,0,,,74,0
507407,note_on,47,0,1,,,,,,,,,0,,,77,0
507407,note_on,47,0,4,,,,,,,,,3,,,45,0
507407,note_on,0,0,3,,,,,,,,,2,,,47,0
507407,note_on,0,0,4,,,,,,,,,3,,,33,0
507407,note_on,0,0,1,,,,,,,,,0,,,68,0
507840,note_on,433,0,2,,,,,,,,,1,,,65,88
507840,note_on,433,0,4,,,,,,,,,3,,,33,88
507840,note_on,433,0,1,,,,,,,,,0,,,68,88
507840,note_on,433,0,3,,,,,,,,,2,,,47,88
507840,note_on,0,0,1,,,,,,,,,0,,,77,88
507840,note_on,0,0,1,,,,,,,,,0,,,74,88
507840,note_on,0,0,3,,,,,,,,,2,,,59,88
507840,note_on,0,0,4,,,,,,,,,3,,,45,88
508320,note_on,0,0,1,,,,,,,,,0,,,74,0
508320,note_on,480,0,1,,,,,,,,,0,,,77,0
508320,note_on,0,0,1,,,,,,,,,0,,,68,0
508320,note_on,0,0,1,,,,,,,,,0,,,72,88
508320,note_on,0,0,1,,,,,,,,,0,,,76,88
508320,note_on,0,0,1,,,,,,,,,0,,,69,88
508320,note_on,0,0,3,,,,,,,,,2,,,60,88
508320,note_on,0,0,3,,,,,,,,,2,,,48,88
508320,note_on,0,0,3,,,,,,,,,2,,,47,0
508320,note_on,480,0,3,,,,,,,,,2,,,59,0
508320,note_on,480,0,4,,,,,,,,,3,,,45,0
508320,note_on,0,0,4,,,,,,,,,3,,,33,0
508320,note_on,0,0,4,,,,,,,,,3,,,33,88
508320,note_on,0,0,4,,,,,,,,,3,,,45,88
508320,note_on,0,0,2,,,,,,,,,1,,,64,88
508320,note_on,480,0,2,,,,,,,,,1,,,65,0
508800,note_on,480,0,3,,,,,,,,,2,,,60,0
508800,note_on,0,0,1,,,,,,,,,0,,,69,0
508800,note_on,0,0,1,,,,,,,,,0,,,72,0
508800,note_on,480,0,1,,,,,,,,,0,,,76,0
508800,note_on,480,0,2,,,,,,,,,1,,,64,0
508800,note_on,0,0,4,,,,,,,,,3,,,33,0
508800,note_on,0,0,3,,,,,,,,,2,,,48,0
508800,note_on,480,0,4,,,,,,,,,3,,,45,0
509280,note_on,0,0,4,,,,,,,,,3,,,45,88
509280,note_on,480,0,4,,,,,,,,,3,,,33,88
509280,note_on,0,0,3,,,,,,,,,2,,,57,88
509280,note_on,480,0,2,,,,,,,,,1,,,60,88
509280,note_on,0,0,1,,,,,,,,,0,,,81,88
509280,note_on,0,0,2,,,,,,,,,1,,,64,88
509280,note_on,480,0,3,,,,,,,,,2,,,52,88
509280,note_on,0,0,1,,,,,,,,,0,,,76,88
509280,note_on,0,0,2,,,,,,,,,1,,,69,88
509280,note_on,480,0,1,,,,,,,,,0,,,72,88
509760,note_on,480,0,4,,,,,,,,,3,,,45,0
509760,note_on,0,0,4,,,,,,,,,3,,,38,114
509760,note_on,480,0,2,,,,,,,,,1,,,69,0
509760,note_on,0,0,2,,,,,,,,,1,,,64,0
509760,note_on,480,0,3,,,,,,,,,2,,,57,0
509760,note_on,0,0,2,,,,,,,,,1,,,62,114
509760,note_on,0,0,2,,,,,,,,,1,,,65,114
509760,note_on,0,0,2,,,,,,,,,1,,,70,114
509760,note_on,0,0,4,,,,,,,,,3,,,50,114
509760,note_on,0,0,3,,,,,,,,,2,,,58,114
509760,note_on,0,0,3,,,,,,,,,2,,,53,114
509760,note_on,0,0,3,,,,,,,,,2,,,52,0
509760,note_on,0,0,4,,,,,,,,,3,,,33,0
509760,note_on,0,0,2,,,,,,,,,1,,,60,0
509760,note_on,480,0,1,,,,,,,,,0,,,81,0
509760,note_on,0,0,1,,,,,,,,,0,,,72,0
509760,note_on,0,0,1,,,,,,,,,0,,,82,114
509760,note_on,0,0,1,,,,,,,,,0,,,77,114
509760,note_on,0,0,1,,,,,,,,,0,,,76,0
509760,note_on,0,0,1,,,,,,,,,0,,,74,114
510720,note_on,0,0,1,,,,,,,,,0,,,86,114
510720,note_on,960,0,2,,,,,,,,,1,,,70,0
510720,note_on,0,0,2,,,,,,,,,1,,,65,0
510720,note_on,0,0,2,,,,,,,,,1,,,62,0
510720,note_on,0,0,1,,,,,,,,,0,,,74,0
510720,note_on,0,0,2,,,,,,,,,1,,,70,114
510720,note_on,0,0,2,,,,,,,,,1,,,74,114
510720,note_on,0,0,1,,,,,,,,,0,,,77,0
510720,note_on,960,0,1,,,,,,,,,0,,,82,0
510720,note_on,0,0,2,,,,,,,,,1,,,65,114
510720,note_on,960,0,4,,,,,,,,,3,,,50,0
510720,note_on,0,0,3,,,,,,,,,2,,,62,114
510720,note_on,0,0,3,,,,,,,,,2,,,58,114
510720,note_on,0,0,3,,,,,,,,,2,,,53,114
510720,note_on,0,0,3,,,,,,,,,2,,,53,0
510720,note_on,960,0,3,,,,,,,,,2,,,58,0
510720,note_on,0,0,4,,,,,,,,,3,,,38,0
510720,note_on,0,0,4,,,,,,,,,3,,,38,114
510720,note_on,0,0,4,,,,,,,,,3,,,50,114
510720,note_on,0,0,1,,,,,,,,,0,,,82,114
510720,note_on,0,0,1,,,,,,,,,0,,,77,114
511680,note_on,960,0,4,,,,,,,,,3,,,50,0
511680,note_on,0,0,4,,,,,,,,,3,,,38,0
511680,note_on,0,0,1,,,,,,,,,0,,,89,101
511680,note_on,960,0,2,,,,,,,,,1,,,74,0
511680,note_on,0,0,2,,,,,,,,,1,,,70,0
511680,note_on,0,0,2,,,,,,,,,1,,,65,0
511680,note_on,0,0,2,,,,,,,,,1,,,70,88
511680,note_on,0,0,2,,,,,,,,,1,,,74,88
511680,note_on,0,0,2,,,,,,,,,1,,,77,88
511680,note_on,960,0,1,,,,,,,,,0,,,86,0
511680,note_on,960,0,3,,,,,,,,,2,,,62,0
511680,note_on,0,0,1,,,,,,,,,0,,,82,0
511680,note_on,0,0,4,,,,,,,,,3,,,38,88
511680,note_on,0,0,1,,,,,,,,,0,,,77,0
511680,note_on,0,0,1,,,,,,,,,0,,,82,101
511680,note_on,0,0,1,,,,,,,,,0,,,86,101
511680,note_on,0,0,3,,,,,,,,,2,,,58,0
511680,note_on,0,0,4,,,,,,,,,3,,,50,88
511680,note_on,0,0,3,,,,,,,,,2,,,53,0
511680,note_on,0,0,3,,,,,,,,,2,,,53,88
511680,note_on,0,0,3,,,,,,,,,2,,,62,88
511680,note_on,0,0,3,,,,,,,,,2,,,58,88
511727,note_on,47,0,3,,,,,,,,,2,,,62,0
511727,note_on,0,0,3,,,,,,,,,2,,,58,0
511727,note_on,0,0,3,,,,,,,,,2,,,53,0
511727,note_on,0,0,4,,,,,,,,,3,,,38,0
511727,note_on,47,0,2,,,,,,,,,1,,,77,0
511727,note_on,47,0,4,,,,,,,,,3,,,50,0
511727,note_on,0,0,2,,,,,,,,,1,,,70,0
511727,note_on,0,0,1,,,,,,,,,0,,,82,0
511727,note_on,0,0,1,,,,,,,,,0,,,86,0
511727,note_on,47,0,1,,,,,,,,,0,,,89,0
511727,note_on,0,0,2,,,,,,,,,1,,,74,0
512160,note_on,433,0,2,,,,,,,,,1,,,74,88
512160,note_on,0,0,2,,,,,,,,,1,,,77,88
512160,note_on,0,0,3,,,,,,,,,2,,,62,88
512160,note_on,0,0,3,,,,,,,,,2,,,58,88
512160,note_on,433,0,3,,,,,,,,,2,,,53,88
512160,note_on,0,0,2,,,,,,,,,1,,,82,88
512160,note_on,0,0,1,,,,,,,,,0,,,89,101
512160,note_on,433,0,4,,,,,,,,,3,,,38,88
512160,note_on,0,0,4,,,,,,,,,3,,,50,88
512160,note_on,0,0,1,,,,,,,,,0,,,94,101
512160,note_on,433,0,1,,,,,,,,,0,,,86,101
512207,note_on,0,0,1,,,,,,,,,0,,,86,0
512207,note_on,0,0,1,,,,,,,,,0,,,89,0
512207,note_on,47,0,1,,,,,,,,,0,,,94,0
512207,note_on,0,0,3,,,,,,,,,2,,,53,0
512207,note_on,47,0,3,,,,,,,,,2,,,62,0
512207,note_on,47,0,4,,,,,,,,,3,,,50,0
512207,note_on,0,0,2,,,,,,,,,1,,,77,0
512207,note_on,0,0,2,,,,,,,,,1,,,74,0
512207,note_on,0,0,4,,,,,,,,,3,,,38,0
512207,note_on,47,0,2,,,,,,,,,1,,,82,0
512207,note_on,0,0,3,,,,,,,,,2,,,58,0
512640,note_on,0,0,1,,,,,,,,,0,,,94,101
512640,note_on,433,0,2,,,,,,,,,1,,,77,88
512640,note_on,0,0,2,,,,,,,,,1,,,82,88
512640,note_on,0,0,2,,,,,,,,,1,,,86,88
512640,note_on,433,0,1,,,,,,,,,0,,,89,101
512640,note_on,0,0,3,,,,,,,,,2,,,62,88
512640,note_on,0,0,3,,,,,,,,,2,,,58,88
512640,note_on,433,0,4,,,,,,,,,3,,,38,88
512640,note_on,0,0,4,,,,,,,,,3,,,50,88
512640,note_on,433,0,3,,,,,,,,,2,,,53,88
512640,note_on,0,0,1,,,,,,,,,0,,,98,101
512687,note_on,0,0,2,,,,,,,,,1,,,77,0
512687,note_on,0,0,2,,,,,,,,,1,,,82,0
512687,note_on,47,0,2,,,,,,,,,1,,,86,0
512687,note_on,47,0,4,,,,,,,,,3,,,50,0
512687,note_on,0,0,4,,,,,,,,,3,,,38,0
512687,note_on,47,0,3,,,,,,,,,2,,,62,0
512687,note_on,47,0,1,,,,,,,,,0,,,98,0
512687,note_on,0,0,3,,,,,,,,,2,,,53,0
512687,note_on,0,0,1,,,,,,,,,0,,,94,0
512687,note_on,0,0,1,,,,,,,,,0,,,89,0
512687,note_on,0,0,3,,,,,,,,,2,,,58,0
513120,note_on,0,0,2,,,,,,,,,1,,,82,88
513120,note_on,0,0,2,,,,,,,,,1,,,77,88
513120,note_on,433,0,2,,,,,,,,,1,,,74,88
513120,note_on,433,0,1,,,,,,,,,0,,,86,101
513120,note_on,0,0,3,,,,,,,,,2,,,58,88
513120,note_on,0,0,1,,,,,,,,,0,,,94,101
513120,note_on,433,0,4,,,,,,,,,3,,,38,88
513120,note_on,0,0,4,,,,,,,,,3,,,50,88
513120,note_on,0,0,3,,,,,,,,,2,,,62,88
513120,note_on,433,0,3,,,,,,,,,2,,,53,88
513120,note_on,0,0,1,,,,,,,,,0,,,89,101
513167,note_on,0,0,1,,,,,,,,,0,,,89,0
513167,note_on,0,0,1,,,,,,,,,0,,,86,0
513167,note_on,47,0,1,,,,,,,,,0,,,94,0
513167,note_on,0,0,2,,,,,,,,,1,,,77,0
513167,note_on,0,0,2,,,,,,,,,1,,,74,0
513167,note_on,0,0,3,,,,,,,,,2,,,53,0
513167,note_on,0,0,3,,,,,,,,,2,,,58,0
513167,note_on,47,0,3,,,,,,,,,2,,,62,0
513167,note_on,47,0,4,,,,,,,,,3,,,50,0
513167,note_on,0,0,4,,,,,,,,,3,,,38,0
513167,note_on,47,0,2,,,,,,,,,1,,,82,0
513600,note_on,433,0,1,,,,,,,,,0,,,84,88
513600,note_on,0,0,1,,,,,,,,,0,,,88,88
513600,note_on,0,0,1,,,,,,,,,0,,,93,88
513600,note_on,0,0,3,,,,,,,,,2,,,60,88
513600,note_on,433,0,3,,,,,,,,,2,,,57,88
513600,note_on,0,0,3,,,,,,,,,2,,,64,88
513600,note_on,0,0,4,,,,,,,,,3,,,52,88
513600,note_on,433,0,2,,,,,,,,,1,,,72,88
513600,note_on,433,0,4,,,,,,,,,3,,,40,88
513600,note_on,0,0,2,,,,,,,,,1,,,76,88
513600,note_on,0,0,2,,,,,,,,,1,,,81,88
514560,note_on,960,0,2,,,,,,,,,1,,,81,0
514560,note_on,960,0,1,,,,,,,,,0,,,93,0
514560,note_on,0,0,1,,,,,,,,,0,,,88,0
514560,note_on,0,0,1,,,,,,,,,0,,,84,0
514560,note_on,0,0,1,,,,,,,,,0,,,88,114
514560,control_change,0,0,1,,,,,,,,,0,64,127,,
514560,note_on,0,0,2,,,,,,,,,1,,,72,0
514560,control_change,0,0,2,,,,,,,,,1,64,127,,
514560,note_on,0,0,2,,,,,,,,,1,,,76,114
514560,note_on,0,0,2,,,,,,,,,1,,,76,0
515040,note_on,1440,0,4,,,,,,,,,3,,,52,0
515040,note_on,0,0,3,,,,,,,,,2,,,64,88
515040,note_on,0,0,3,,,,,,,,,2,,,60,88
515040,note_on,0,0,4,,,,,,,,,3,,,52,88
515040,note_on,0,0,4,,,,,,,,,3,,,40,88
515040,note_on,0,0,4,,,,,,,,,3,,,40,0
515040,note_on,1440,0,3,,,,,,,,,2,,,64,0
515040,note_on,0,0,3,,,,,,,,,2,,,57,0
515040,note_on,0,0,3,,,,,,,,,2,,,60,0
515040,note_on,0,0,3,,,,,,,,,2,,,57,88
515520,note_on,0,0,3,,,,,,,,,2,,,57,88
515520,note_on,0,0,3,,,,,,,,,2,,,57,0
515520,note_on,0,0,3,,,,,,,,,2,,,60,0
515520,note_on,480,0,3,,,,,,,,,2,,,64,0
515520,note_on,960,0,2,,,,,,,,,1,,,76,0
515520,note_on,0,0,2,,,,,,,,,1,,,75,88
515520,note_on,0,0,3,,,,,,,,,2,,,64,88
515520,note_on,0,0,4,,,,,,,,,3,,,40,88
515520,note_on,0,0,4,,,,,,,,,3,,,40,0
515520,note_on,480,0,4,,,,,,,,,3,,,52,0
515520,note_on,0,0,4,,,,,,,,,3,,,52,88
515520,note_on,0,0,3,,,,,,,,,2,,,62,88
515520,note_on,0,0,3,,,,,,,,,2,,,59,88
515520,note_on,960,0,1,,,,,,,,,0,,,88,0
515520,note_on,0,0,1,,,,,,,,,0,,,87,88
516000,note_on,480,0,1,,,,,,,,,0,,,87,0
516000,note_on,0,0,1,,,,,,,,,0,,,88,88
516000,note_on,480,0,2,,,,,,,,,1,,,75,0
516000,note_on,0,0,2,,,,,,,,,1,,,76,88
516480,note_on,0,0,3,,,,,,,,,2,,,62,0
516480,note_on,0,0,3,,,,,,,,,2,,,59,0
516480,note_on,0,0,3,,,,,,,,,2,,,59,88
516480,note_on,960,0,3,,,,,,,,,2,,,64,0
516480,note_on,0,0,4,,,,,,,,,3,,,52,88
516480,note_on,0,0,1,,,,,,,,,0,,,89,88
516480,note_on,480,0,1,,,,,,,,,0,,,88,0
516480,note_on,0,0,3,,,,,,,,,2,,,62,88
516480,note_on,0,0,3,,,,,,,,,2,,,64,88
516480,note_on,0,0,4,,,,,,,,,3,,,40,88
516480,note_on,0,0,4,,,,,,,,,3,,,40,0
516480,note_on,0,0,3,,,,,,,,,2,,,56,88
516480,note_on,0,0,3,,,,,,,,,2,,,57,0
516480,note_on,960,0,4,,,,,,,,,3,,,52,0
516480,note_on,480,0,2,,,,,,,,,1,,,76,0
516480,note_on,0,0,2,,,,,,,,,1,,,77,88
516960,note_on,480,0,1,,,,,,,,,0,,,89,0
516960,note_on,480,0,2,,,,,,,,,1,,,77,0
516960,control_change,0,0,2,,,,,,,,,1,64,0,,
516960,note_on,0,0,2,,,,,,,,,1,,,76,88
516960,note_on,0,0,1,,,,,,,,,0,,,88,88
516960,control_change,0,0,1,,,,,,,,,0,64,0,,
517440,note_on,0,0,4,,,,,,,,,3,,,40,0
517440,note_on,0,0,3,,,,,,,,,2,,,59,0
517440,note_on,0,0,3,,,,,,,,,2,,,62,0
517440,note_on,960,0,3,,,,,,,,,2,,,64,0
517440,note_on,960,0,4,,,,,,,,,3,,,52,0
517440,note_on,480,0,2,,,,,,,,,1,,,76,0
517440,note_on,0,0,3,,,,,,,,,2,,,56,0
517440,note_on,480,0,1,,,,,,,,,0,,,88,0
519360,note_on,1920,0,1,,,,,,,,,0,,,81,62
519360,note_on,1920,0,2,,,,,,,,,1,,,69,62
519360,note_on,1920,0,4,,,,,,,,,3,,,33,62
519360,note_on,0,0,4,,,,,,,,,3,,,45,62
519600,control_change,2160,0,3,,,,,,,,,2,64,127,,
519600,note_on,0,0,3,,,,,,,,,2,,,60,49
519840,note_on,240,0,3,,,,,,,,,2,,,60,0
519840,note_on,0,0,3,,,,,,,,,2,,,52,49
520080,note_on,0,0,3,,,,,,,,,2,,,60,49
520080,note_on,240,0,3,,,,,,,,,2,,,52,0
520320,note_on,0,0,4,,,,,,,,,3,,,33,0
520320,note_on,960,0,4,,,,,,,,,3,,,45,0
520320,note_on,0,0,3,,,,,,,,,2,,,64,49
520320,note_on,240,0,3,,,,,,,,,2,,,60,0
520560,note_on,0,0,3,,,,,,,,,2,,,60,49
520560,note_on,240,0,3,,,,,,,,,2,,,64,0
520800,note_on,0,0,4,,,,,,,,,3,,,45,62
520800,note_on,480,0,4,,,,,,,,,3,,,33,62
520800,note_on,0,0,2,,,,,,,,,1,,,72,62
520800,note_on,1440,0,2,,,,,,,,,1,,,69,0
520800,note_on,1440,0,1,,,,,,,,,0,,,81,0
520800,note_on,240,0,3,,,,,,,,,2,,,60,0
520800,note_on,0,0,1,,,,,,,,,0,,,84,62
520800,note_on,0,0,3,,,,,,,,,2,,,52,49
521040,note_on,240,0,3,,,,,,,,,2,,,52,0
521040,control_change,0,0,3,,,,,,,,,2,64,0,,
521040,note_on,0,0,3,,,,,,,,,2,,,60,49
521280,note_on,0,0,4,,,,,,,,,3,,,47,62
521280,note_on,0,0,4,,,,,,,,,3,,,35,62
521280,note_on,0,0,4,,,,,,,,,3,,,33,0
521280,note_on,480,0,4,,,,,,,,,3,,,45,0
521280,note_on,480,0,2,,,,,,,,,1,,,72,0
521280,note_on,0,0,2,,,,,,,,,1,,,69,88
521280,note_on,0,0,1,,,,,,,,,0,,,81,88
521280,note_on,480,0,1,,,,,,,,,0,,,84,0
521280,note_on,240,0,3,,,,,,,,,2,,,60,0
521520,note_on,0,0,3,,,,,,,,,2,,,62,49
521520,control_change,240,0,3,,,,,,,,,2,64,127,,
521760,note_on,0,0,1,,,,,,,,,0,,,80,62
521760,note_on,480,0,1,,,,,,,,,0,,,81,0
521760,note_on,240,0,3,,,,,,,,,2,,,62,0
521760,note_on,480,0,2,,,,,,,,,1,,,69,0
521760,note_on,0,0,2,,,,,,,,,1,,,68,62
521760,note_on,0,0,3,,,,,,,,,2,,,52,49
522000,note_on,0,0,3,,,,,,,,,2,,,62,49
522000,note_on,240,0,3,,,,,,,,,2,,,52,0
522240,note_on,240,0,3,,,,,,,,,2,,,62,0
522240,note_on,480,0,1,,,,,,,,,0,,,80,0
522240,note_on,0,0,4,,,,,,,,,3,,,35,0
522240,note_on,480,0,2,,,,,,,,,1,,,68,0
522240,note_on,0,0,3,,,,,,,,,2,,,64,49
522240,note_on,960,0,4,,,,,,,,,3,,,47,0
522480,note_on,0,0,3,,,,,,,,,2,,,62,49
522480,note_on,240,0,3,,,,,,,,,2,,,64,0
522720,note_on,240,0,3,,,,,,,,,2,,,62,0
522720,note_on,0,0,3,,,,,,,,,2,,,52,49
522960,note_on,0,0,3,,,,,,,,,2,,,62,49
522960,control_change,0,0,3,,,,,,,,,2,64,0,,
522960,note_on,240,0,3,,,,,,,,,2,,,52,0
523200,note_on,960,0,1,,,,,,,,,0,,,81,62
523200,note_on,960,0,2,,,,,,,,,1,,,69,62
523200,note_on,960,0,4,,,,,,,,,3,,,33,62
523200,note_on,240,0,3,,,,,,,,,2,,,62,0
523200,note_on,0,0,4,,,,,,,,,3,,,45,62
523440,note_on,0,0,3,,,,,,,,,2,,,60,49
523440,control_change,240,0,3,,,,,,,,,2,64,127,,
523680,note_on,0,0,3,,,,,,,,,2,,,52,49
523680,note_on,240,0,3,,,,,,,,,2,,,60,0
523920,note_on,0,0,3,,,,,,,,,2,,,60,49
523920,note_on,240,0,3,,,,,,,,,2,,,52,0
524160,note_on,0,0,3,,,,,,,,,2,,,64,49
524160,note_on,240,0,3,,,,,,,,,2,,,60,0
524160,note_on,960,0,4,,,,,,,,,3,,,45,0
524160,note_on,0,0,4,,,,,,,,,3,,,33,0
524400,note_on,240,0,3,,,,,,,,,2,,,64,0
524400,note_on,0,0,3,,,,,,,,,2,,,60,49
524640,note_on,0,0,1,,,,,,,,,0,,,84,62
524640,note_on,1440,0,2,,,,,,,,,1,,,69,0
524640,note_on,0,0,2,,,,,,,,,1,,,72,62
524640,note_on,0,0,3,,,,,,,,,2,,,52,49
524640,note_on,240,0,3,,,,,,,,,2,,,60,0
524640,note_on,1440,0,1,,,,,,,,,0,,,81,0
524640,note_on,0,0,4,,,,,,,,,3,,,45,62
524640,note_on,480,0,4,,,,,,,,,3,,,33,62
524880,control_change,0,0,3,,,,,,,,,2,64,0,,
524880,note_on,0,0,3,,,,,,,,,2,,,60,49
524880,note_on,240,0,3,,,,,,,,,2,,,52,0
525120,note_on,240,0,3,,,,,,,,,2,,,60,0
525120,note_on,480,0,4,,,,,,,,,3,,,45,0
525120,note_on,0,0,4,,,,,,,,,3,,,33,0
525120,note_on,0,0,4,,,,,,,,,3,,,35,62
525120,note_on,0,0,4,,,,,,,,,3,,,47,62
525120,note_on,0,0,1,,,,,,,,,0,,,81,88
525120,note_on,0,0,2,,,,,,,,,1,,,69,88
525120,note_on,480,0,2,,,,,,,,,1,,,72,0
525120,note_on,480,0,1,,,,,,,,,0,,,84,0
525360,note_on,0,0,3,,,,,,,,,2,,,62,49
525360,control_change,240,0,3,,,,,,,,,2,64,127,,
525600,note_on,480,0,1,,,,,,,,,0,,,81,0
525600,note_on,0,0,3,,,,,,,,,2,,,52,49
525600,note_on,240,0,3,,,,,,,,,2,,,62,0
525600,note_on,0,0,2,,,,,,,,,1,,,68,62
525600,note_on,480,0,2,,,,,,,,,1,,,69,0
525600,note_on,0,0,1,,,,,,,,,0,,,80,62
525840,note_on,240,0,3,,,,,,,,,2,,,52,0
525840,note_on,0,0,3,,,,,,,,,2,,,62,49
526080,note_on,0,0,4,,,,,,,,,3,,,35,0
526080,note_on,960,0,4,,,,,,,,,3,,,47,0
526080,note_on,480,0,1,,,,,,,,,0,,,80,0
526080,note_on,480,0,2,,,,,,,,,1,,,68,0
526080,note_on,240,0,3,,,,,,,,,2,,,62,0
526080,note_on,0,0,3,,,,,,,,,2,,,64,49
526320,note_on,240,0,3,,,,,,,,,2,,,64,0
526320,note_on,0,0,3,,,,,,,,,2,,,62,49
526560,note_on,480,0,2,,,,,,,,,1,,,76,62
526560,note_on,480,0,1,,,,,,,,,0,,,88,62
526560,note_on,240,0,3,,,,,,,,,2,,,62,0
526560,note_on,0,0,3,,,,,,,,,2,,,52,49
526800,control_change,0,0,3,,,,,,,,,2,64,0,,
526800,note_on,0,0,3,,,,,,,,,2,,,62,49
526800,note_on,240,0,3,,,,,,,,,2,,,52,0
527040,note_on,240,0,3,,,,,,,,,2,,,62,0
527040,note_on,0,0,2,,,,,,,,,1,,,76,62
527040,note_on,480,0,2,,,,,,,,,1,,,76,0
527040,note_on,960,0,4,,,,,,,,,3,,,36,62
527040,note_on,0,0,4,,,,,,,,,3,,,48,62
527040,note_on,480,0,1,,,,,,,,,0,,,88,0
527040,note_on,0,0,1,,,,,,,,,0,,,88,62
527280,control_change,240,0,3,,,,,,,,,2,64,127,,
527280,note_on,0,0,3,,,,,,,,,2,,,57,49
527520,note_on,240,0,3,,,,,,,,,2,,,57,0
527520,note_on,0,0,3,,,,,,,,,2,,,52,49
527760,note_on,240,0,3,,,,,,,,,2,,,52,0
527760,note_on,720,0,2,,,,,,,,,1,,,76,0
527760,note_on,720,0,1,,,,,,,,,0,,,88,0
527760,note_on,0,0,3,,,,,,,,,2,,,57,49
527760,note_on,0,0,2,,,,,,,,,1,,,69,62
527760,note_on,0,0,1,,,,,,,,,0,,,81,62
528000,note_on,0,0,4,,,,,,,,,3,,,49,62
528000,note_on,0,0,4,,,,,,,,,3,,,37,62
528000,note_on,240,0,3,,,,,,,,,2,,,57,0
528000,note_on,960,0,4,,,,,,,,,3,,,48,0
528000,note_on,0,0,1,,,,,,,,,0,,,81,88
528000,note_on,240,0,2,,,,,,,,,1,,,69,0
528000,note_on,0,0,2,,,,,,,,,1,,,69,88
528000,note_on,240,0,1,,,,,,,,,0,,,81,0
528000,note_on,0,0,3,,,,,,,,,2,,,64,49
528000,note_on,0,0,4,,,,,,,,,3,,,36,0
528240,note_on,0,0,3,,,,,,,,,2,,,57,49
528240,note_on,240,0,3,,,,,,,,,2,,,64,0
528480,note_on,480,0,2,,,,,,,,,1,,,69,0
528480,note_on,0,0,3,,,,,,,,,2,,,55,49
528480,note_on,240,0,3,,,,,,,,,2,,,57,0
528480,note_on,0,0,1,,,,,,,,,0,,,81,62
528480,note_on,480,0,1,,,,,,,,,0,,,81,0
528480,note_on,0,0,2,,,,,,,,,1,,,69,62
528720,control_change,0,0,3,,,,,,,,,2,64,0,,
528720,note_on,0,0,3,,,,,,,,,2,,,57,49
528720,note_on,240,0,3,,,,,,,,,2,,,55,0
528960,note_on,0,0,4,,,,,,,,,3,,,37,0
528960,note_on,0,0,2,,,,,,,,,1,,,68,62
528960,note_on,0,0,1,,,,,,,,,0,,,80,62
528960,note_on,480,0,2,,,,,,,,,1,,,69,0
528960,note_on,0,0,4,,,,,,,,,3,,,50,62
528960,note_on,960,0,4,,,,,,,,,3,,,49,0
528960,note_on,240,0,3,,,,,,,,,2,,,57,0
528960,control_change,0,0,1,,,,,,,,,0,64,127,,
528960,note_on,480,0,1,,,,,,,,,0,,,81,0
528960,control_change,0,0,2,,,,,,,,,1,64,127,,
528960,note_on,0,0,4,,,,,,,,,3,,,38,62
529200,note_on,0,0,1,,,,,,,,,0,,,81,62
529200,note_on,240,0,1,,,,,,,,,0,,,80,0
529200,note_on,0,0,3,,,,,,,,,2,,,57,49
529200,control_change,240,0,3,,,,,,,,,2,64,127,,
529200,note_on,240,0,2,,,,,,,,,1,,,68,0
529200,note_on,0,0,2,,,,,,,,,1,,,69,62
529440,note_on,240,0,3,,,,,,,,,2,,,57,0
529440,note_on,0,0,1,,,,,,,,,0,,,82,62
529440,note_on,240,0,2,,,,,,,,,1,,,69,0
529440,note_on,0,0,2,,,,,,,,,1,,,70,62
529440,note_on,0,0,3,,,,,,,,,2,,,53,49
529440,note_on,240,0,1,,,,,,,,,0,,,81,0
529680,note_on,0,0,1,,,,,,,,,0,,,81,62
529680,note_on,0,0,3,,,,,,,,,2,,,57,49
529680,note_on,240,0,3,,,,,,,,,2,,,53,0
529680,note_on,0,0,2,,,,,,,,,1,,,69,62
529680,note_on,240,0,1,,,,,,,,,0,,,82,0
529680,note_on,240,0,2,,,,,,,,,1,,,70,0
529920,note_on,240,0,1,,,,,,,,,0,,,81,0
529920,note_on,0,0,4,,,,,,,,,3,,,53,62
529920,note_on,0,0,4,,,,,,,,,3,,,41,62
529920,note_on,0,0,4,,,,,,,,,3,,,38,0
529920,note_on,960,0,4,,,,,,,,,3,,,50,0
529920,note_on,0,0,1,,,,,,,,,0,,,74,62
529920,note_on,0,0,2,,,,,,,,,1,,,70,62
529920,note_on,240,0,2,,,,,,,,,1,,,69,0
529920,note_on,240,0,3,,,,,,,,,2,,,57,0
529920,note_on,0,0,3,,,,,,,,,2,,,58,62
529920,control_change,0,0,2,,,,,,,,,1,64,0,,
529920,control_change,0,0,1,,,,,,,,,0,64,0,,
530160,note_on,240,0,3,,,,,,,,,2,,,58,0
530160,note_on,0,0,3,,,,,,,,,2,,,62,62
530400,note_on,0,0,3,,,,,,,,,2,,,57,62
530400,note_on,0,0,2,,,,,,,,,1,,,69,88
530400,note_on,240,0,3,,,,,,,,,2,,,62,0
530400,note_on,480,0,2,,,,,,,,,1,,,70,0
530400,note_on,480,0,1,,,,,,,,,0,,,74,0
530400,control_change,0,0,1,,,,,,,,,0,64,127,,
530400,note_on,0,0,1,,,,,,,,,0,,,74,88
530640,note_on,240,0,3,,,,,,,,,2,,,57,0
530640,note_on,0,0,3,,,,,,,,,2,,,62,62
530640,control_change,0,0,3,,,,,,,,,2,64,0,,
530880,note_on,0,0,1,,,,,,,,,0,,,76,88
530880,note_on,480,0,1,,,,,,,,,0,,,74,0
530880,note_on,0,0,4,,,,,,,,,3,,,52,62
530880,note_on,240,0,3,,,,,,,,,2,,,62,0
530880,note_on,0,0,4,,,,,,,,,3,,,40,62
530880,note_on,0,0,4,,,,,,,,,3,,,41,0
530880,note_on,960,0,4,,,,,,,,,3,,,53,0
530880,note_on,0,0,2,,,,,,,,,1,,,68,62
530880,note_on,0,0,2,,,,,,,,,1,,,64,62
530880,note_on,480,0,2,,,,,,,,,1,,,69,0
531120,note_on,0,0,3,,,,,,,,,2,,,59,62
531120,control_change,240,0,3,,,,,,,,,2,64,127,,
531360,note_on,240,0,3,,,,,,,,,2,,,59,0
531360,note_on,0,0,3,,,,,,,,,2,,,56,62
531600,note_on,240,0,3,,,,,,,,,2,,,56,0
531600,note_on,0,0,3,,,,,,,,,2,,,59,62
531840,note_on,0,0,3,,,,,,,,,2,,,62,49
531840,note_on,240,0,3,,,,,,,,,2,,,59,0
532080,note_on,0,0,1,,,,,,,,,0,,,74,62
532080,note_on,1200,0,1,,,,,,,,,0,,,76,0
532080,note_on,0,0,3,,,,,,,,,2,,,59,49
532080,note_on,240,0,3,,,,,,,,,2,,,62,0
532320,note_on,240,0,1,,,,,,,,,0,,,74,0
532320,note_on,0,0,3,,,,,,,,,2,,,56,49
532320,note_on,240,0,3,,,,,,,,,2,,,59,0
532320,note_on,0,0,1,,,,,,,,,0,,,72,62
532560,control_change,0,0,3,,,,,,,,,2,64,0,,
532560,note_on,0,0,3,,,,,,,,,2,,,59,49
532560,note_on,0,0,1,,,,,,,,,0,,,71,62
532560,note_on,240,0,1,,,,,,,,,0,,,72,0
532560,note_on,240,0,3,,,,,,,,,2,,,56,0
532800,note_on,1920,0,4,,,,,,,,,3,,,52,0
532800,note_on,0,0,4,,,,,,,,,3,,,45,62
532800,note_on,1920,0,2,,,,,,,,,1,,,68,0
532800,note_on,0,0,2,,,,,,,,,1,,,69,62
532800,note_on,0,0,4,,,,,,,,,3,,,40,0
532800,note_on,240,0,1,,,,,,,,,0,,,71,0
532800,note_on,0,0,1,,,,,,,,,0,,,74,62
532800,note_on,240,0,3,,,,,,,,,2,,,59,0
533040,note_on,240,0,1,,,,,,,,,0,,,74,0
533040,note_on,0,0,1,,,,,,,,,0,,,72,62
533040,control_change,240,0,3,,,,,,,,,2,64,127,,
533040,note_on,0,0,3,,,,,,,,,2,,,57,49
533280,note_on,0,0,1,,,,,,,,,0,,,71,62
533280,note_on,240,0,1,,,,,,,,,0,,,72,0
533280,note_on,0,0,2,,,,,,,,,1,,,64,0
533280,note_on,240,0,3,,,,,,,,,2,,,57,0
533280,note_on,480,0,2,,,,,,,,,1,,,69,0
533280,note_on,480,0,4,,,,,,,,,3,,,45,0
533280,note_on,0,0,3,,,,,,,,,2,,,52,49
533520,note_on,240,0,3,,,,,,,,,2,,,52,0
533520,note_on,0,0,3,,,,,,,,,2,,,57,49
533520,note_on,240,0,1,,,,,,,,,0,,,71,0
533520,note_on,0,0,1,,,,,,,,,0,,,72,62
533760,control_change,0,0,1,,,,,,,,,0,64,0,,
533760,note_on,240,0,3,,,,,,,,,2,,,57,0
533760,note_on,480,0,4,,,,,,,,,3,,,33,62
533760,note_on,0,0,3,,,,,,,,,2,,,60,49
533760,note_on,240,0,1,,,,,,,,,0,,,72,0
533760,note_on,0,0,1,,,,,,,,,0,,,69,62
533760,note_on,0,0,4,,,,,,,,,3,,,45,62
534000,note_on,240,0,1,,,,,,,,,0,,,69,0
534000,note_on,0,0,3,,,,,,,,,2,,,57,49
534000,note_on,240,0,3,,,,,,,,,2,,,60,0
534240,note_on,0,0,4,,,,,,,,,3,,,47,62
534240,note_on,0,0,3,,,,,,,,,2,,,56,49
534240,note_on,0,0,2,,,,,,,,,1,,,76,62
534240,control_change,960,0,2,,,,,,,,,1,64,127,,
534240,note_on,0,0,1,,,,,,,,,0,,,88,62
534240,control_change,240,0,1,,,,,,,,,0,64,127,,
534240,note_on,240,0,3,,,,,,,,,2,,,57,0
534240,note_on,480,0,4,,,,,,,,,3,,,45,0
534240,note_on,0,0,4,,,,,,,,,3,,,33,0
534240,note_on,0,0,4,,,,,,,,,3,,,35,62
534480,note_on,0,0,3,,,,,,,,,2,,,52,49
534480,note_on,240,0,3,,,,,,,,,2,,,56,0
534480,control_change,0,0,3,,,,,,,,,2,64,0,,
534720,note_on,0,0,4,,,,,,,,,3,,,48,62
534720,note_on,480,0,4,,,,,,,,,3,,,47,0
534720,note_on,480,0,1,,,,,,,,,0,,,88,0
534720,note_on,0,0,1,,,,,,,,,0,,,87,62
534720,note_on,480,0,2,,,,,,,,,1,,,76,0
534720,note_on,0,0,2,,,,,,,,,1,,,75,62
534720,note_on,0,0,4,,,,,,,,,3,,,36,62
534720,note_on,0,0,4,,,,,,,,,3,,,35,0
534720,note_on,240,0,3,,,,,,,,,2,,,52,0
534960,note_on,0,0,1,,,,,,,,,0,,,88,62
534960,note_on,240,0,1,,,,,,,,,0,,,87,0
534960,control_change,240,0,3,,,,,,,,,2,64,127,,
534960,note_on,0,0,2,,,,,,,,,1,,,76,62
534960,note_on,240,0,2,,,,,,,,,1,,,75,0
534960,note_on,0,0,3,,,,,,,,,2,,,57,49
535200,note_on,0,0,1,,,,,,,,,0,,,89,62
535200,note_on,240,0,1,,,,,,,,,0,,,88,0
535200,note_on,0,0,3,,,,,,,,,2,,,52,49
535200,note_on,0,0,2,,,,,,,,,1,,,77,62
535200,note_on,240,0,3,,,,,,,,,2,,,57,0
535200,note_on,240,0,2,,,,,,,,,1,,,76,0
535440,note_on,240,0,1,,,,,,,,,0,,,89,0
535440,note_on,0,0,1,,,,,,,,,0,,,88,62
535440,note_on,240,0,2,,,,,,,,,1,,,77,0
535440,note_on,0,0,2,,,,,,,,,1,,,76,62
535440,note_on,240,0,3,,,,,,,,,2,,,52,0
535440,note_on,0,0,3,,,,,,,,,2,,,57,49
535680,note_on,240,0,1,,,,,,,,,0,,,88,0
535680,control_change,0,0,1,,,,,,,,,0,64,0,,
535680,note_on,0,0,1,,,,,,,,,0,,,81,62
535680,note_on,240,0,3,,,,,,,,,2,,,57,0
535680,note_on,0,0,3,,,,,,,,,2,,,64,49
535680,note_on,240,0,2,,,,,,,,,1,,,76,0
535680,note_on,960,0,4,,,,,,,,,3,,,48,0
535680,note_on,0,0,4,,,,,,,,,3,,,36,0
535680,note_on,0,0,4,,,,,,,,,3,,,37,62
535680,note_on,0,0,4,,,,,,,,,3,,,49,62
535680,note_on,0,0,2,,,,,,,,,1,,,69,62
535680,control_change,0,0,2,,,,,,,,,1,64,0,,
535920,note_on,240,0,3,,,,,,,,,2,,,64,0
535920,note_on,0,0,3,,,,,,,,,2,,,57,49
536160,note_on,240,0,3,,,,,,,,,2,,,57,0
536160,note_on,0,0,3,,,,,,,,,2,,,55,49
536160,note_on,480,0,2,,,,,,,,,1,,,69,0
536160,note_on,0,0,2,,,,,,,,,1,,,69,88
536160,note_on,0,0,1,,,,,,,,,0,,,81,88
536160,note_on,480,0,1,,,,,,,,,0,,,81,0
536400,note_on,240,0,3,,,,,,,,,2,,,55,0
536400,control_change,0,0,3,,,,,,,,,2,64,0,,
536400,note_on,0,0,3,,,,,,,,,2,,,57,49
536640,note_on,240,0,3,,,,,,,,,2,,,57,0
536640,note_on,0,0,1,,,,,,,,,0,,,82,62
536640,note_on,0,0,4,,,,,,,,,3,,,50,62
536640,note_on,480,0,1,,,,,,,,,0,,,81,0
536640,note_on,0,0,2,,,,,,,,,1,,,70,62
536640,control_change,0,0,2,,,,,,,,,1,64,127,,
536640,note_on,480,0,2,,,,,,,,,1,,,69,0
536640,note_on,0,0,4,,,,,,,,,3,,,38,62
536640,note_on,0,0,4,,,,,,,,,3,,,37,0
536640,note_on,960,0,4,,,,,,,,,3,,,49,0
536640,control_change,0,0,1,,,,,,,,,0,64,127,,
536880,control_change,240,0,3,,,,,,,,,2,64,127,,
536880,note_on,0,0,3,,,,,,,,,2,,,57,49
536880,note_on,240,0,1,,,,,,,,,0,,,82,0
536880,note_on,240,0,2,,,,,,,,,1,,,70,0
536880,note_on,0,0,2,,,,,,,,,1,,,69,62
536880,note_on,0,0,1,,,,,,,,,0,,,81,62
537120,note_on,0,0,1,,,,,,,,,0,,,80,62
537120,note_on,0,0,2,,,,,,,,,1,,,68,62
537120,note_on,240,0,1,,,,,,,,,0,,,81,0
537120,note_on,240,0,2,,,,,,,,,1,,,69,0
537120,note_on,240,0,3,,,,,,,,,2,,,57,0
537120,note_on,0,0,3,,,,,,,,,2,,,53,49
537360,note_on,240,0,2,,,,,,,,,1,,,68,0
537360,note_on,240,0,3,,,,,,,,,2,,,53,0
537360,note_on,240,0,1,,,,,,,,,0,,,80,0
537360,note_on,0,0,1,,,,,,,,,0,,,81,62
537360,note_on,0,0,2,,,,,,,,,1,,,69,62
537360,note_on,0,0,3,,,,,,,,,2,,,57,49
537600,control_change,0,0,1,,,,,,,,,0,64,0,,
537600,note_on,0,0,1,,,,,,,,,0,,,74,62
537600,note_on,240,0,3,,,,,,,,,2,,,57,0
537600,note_on,960,0,4,,,,,,,,,3,,,50,0
537600,note_on,0,0,3,,,,,,,,,2,,,58,62
537600,note_on,0,0,2,,,,,,,,,1,,,70,62
537600,note_on,240,0,2,,,,,,,,,1,,,69,0
537600,note_on,0,0,4,,,,,,,,,3,,,53,62
537600,note_on,0,0,4,,,,,,,,,3,,,41,62
537600,note_on,0,0,4,,,,,,,,,3,,,38,0
537600,note_on,240,0,1,,,,,,,,,0,,,81,0
537840,note_on,240,0,3,,,,,,,,,2,,,58,0
537840,note_on,0,0,3,,,,,,,,,2,,,62,62
538080,note_on,480,0,2,,,,,,,,,1,,,70,0
538080,control_change,0,0,2,,,,,,,,,1,64,0,,
538080,note_on,0,0,2,,,,,,,,,1,,,69,62
538080,note_on,480,0,1,,,,,,,,,0,,,74,0
538080,control_change,0,0,1,,,,,,,,,0,64,127,,
538080,note_on,0,0,1,,,,,,,,,0,,,74,88
538080,note_on,240,0,3,,,,,,,,,2,,,62,0
538080,note_on,0,0,3,,,,,,,,,2,,,57,62
538320,note_on,240,0,3,,,,,,,,,2,,,57,0
538320,control_change,0,0,3,,,,,,,,,2,64,0,,
538320,note_on,0,0,3,,,,,,,,,2,,,62,62
538560,note_on,480,0,2,,,,,,,,,1,,,69,0
538560,note_on,0,0,4,,,,,,,,,3,,,52,62
538560,note_on,960,0,4,,,,,,,,,3,,,53,0
538560,note_on,0,0,4,,,,,,,,,3,,,41,0
538560,note_on,0,0,4,,,,,,,,,3,,,40,62
538560,note_on,0,0,1,,,,,,,,,0,,,76,88
538560,note_on,480,0,1,,,,,,,,,0,,,74,0
538560,note_on,0,0,2,,,,,,,,,1,,,64,62
538560,note_on,0,0,2,,,,,,,,,1,,,68,62
538560,note_on,240,0,3,,,,,,,,,2,,,62,0
538800,control_change,240,0,3,,,,,,,,,2,64,127,,
538800,note_on,0,0,3,,,,,,,,,2,,,59,49
539040,note_on,240,0,3,,,,,,,,,2,,,59,0
539040,note_on,0,0,3,,,,,,,,,2,,,56,49
539280,note_on,240,0,3,,,,,,,,,2,,,56,0
539280,note_on,0,0,3,,,,,,,,,2,,,59,49
539520,note_on,240,0,3,,,,,,,,,2,,,59,0
539520,note_on,0,0,3,,,,,,,,,2,,,62,49
539760,note_on,0,0,3,,,,,,,,,2,,,59,49
539760,note_on,240,0,3,,,,,,,,,2,,,62,0
539760,note_on,1200,0,1,,,,,,,,,0,,,76,0
539760,note_on,0,0,1,,,,,,,,,0,,,74,62
540000,note_on,0,0,1,,,,,,,,,0,,,72,62
540000,note_on,240,0,3,,,,,,,,,2,,,59,0
540000,note_on,0,0,3,,,,,,,,,2,,,60,49
540000,note_on,240,0,1,,,,,,,,,0,,,74,0
540240,note_on,240,0,3,,,,,,,,,2,,,60,0
540240,note_on,0,0,3,,,,,,,,,2,,,62,49
540240,note_on,0,0,1,,,,,,,,,0,,,71,62
540240,note_on,240,0,1,,,,,,,,,0,,,72,0
540240,control_change,0,0,3,,,,,,,,,2,64,0,,
540480,note_on,240,0,3,,,,,,,,,2,,,62,0
540480,note_on,0,0,1,,,,,,,,,0,,,69,62
540480,note_on,0,0,4,,,,,,,,,3,,,40,0
540480,control_change,0,0,4,,,,,,,,,3,64,127,,
540480,note_on,1920,0,4,,,,,,,,,3,,,52,0
540480,note_on,240,0,1,,,,,,,,,0,,,71,0
540480,control_change,0,0,1,,,,,,,,,0,64,0,,
540480,note_on,1920,0,2,,,,,,,,,1,,,68,0
540480,note_on,0,0,4,,,,,,,,,3,,,45,62
540720,control_change,240,0,3,,,,,,,,,2,64,127,,
540720,note_on,0,0,3,,,,,,,,,2,,,60,49
540960,note_on,240,0,3,,,,,,,,,2,,,60,0
540960,note_on,0,0,3,,,,,,,,,2,,,50,49
540960,note_on,480,0,1,,,,,,,,,0,,,69,0
540960,note_on,480,0,2,,,,,,,,,1,,,64,0
541200,note_on,0,0,3,,,,,,,,,2,,,60,49
541200,note_on,240,0,3,,,,,,,,,2,,,50,0
541440,note_on,240,0,3,,,,,,,,,2,,,60,0
541440,note_on,0,0,3,,,,,,,,,2,,,64,49
541680,note_on,240,0,3,,,,,,,,,2,,,64,0
541680,note_on,0,0,3,,,,,,,,,2,,,60,49
541920,note_on,1440,0,4,,,,,,,,,3,,,45,0
541920,note_on,0,0,4,,,,,,,,,3,,,48,62
541920,note_on,0,0,3,,,,,,,,,2,,,52,49
541920,note_on,240,0,3,,,,,,,,,2,,,60,0
542160,note_on,240,0,3,,,,,,,,,2,,,52,0
542160,control_change,0,0,3,,,,,,,,,2,64,0,,
542160,note_on,0,0,3,,,,,,,,,2,,,60,49
542400,note_on,1440,0,1,,,,,,,,,0,,,76,62
542400,note_on,0,0,2,,,,,,,,,1,,,71,62
542400,control_change,1440,0,2,,,,,,,,,1,64,127,,
542400,note_on,0,0,4,,,,,,,,,3,,,45,62
542400,note_on,480,0,4,,,,,,,,,3,,,48,0
542400,note_on,240,0,3,,,,,,,,,2,,,60,0
542640,control_change,240,0,3,,,,,,,,,2,64,127,,
542640,note_on,0,0,3,,,,,,,,,2,,,62,49
542880,note_on,0,0,3,,,,,,,,,2,,,52,49
542880,note_on,480,0,4,,,,,,,,,3,,,45,0
542880,note_on,0,0,4,,,,,,,,,3,,,44,62
542880,control_change,0,0,4,,,,,,,,,3,64,0,,
542880,note_on,240,0,3,,,,,,,,,2,,,62,0
543120,note_on,0,0,3,,,,,,,,,2,,,62,49
543120,note_on,240,0,3,,,,,,,,,2,,,52,0
543360,note_on,480,0,4,,,,,,,,,3,,,44,0
543360,note_on,240,0,3,,,,,,,,,2,,,62,0
543360,note_on,0,0,3,,,,,,,,,2,,,64,49
543600,note_on,240,0,3,,,,,,,,,2,,,64,0
543600,note_on,0,0,3,,,,,,,,,2,,,62,49
543840,note_on,1440,0,2,,,,,,,,,1,,,71,0
543840,note_on,0,0,2,,,,,,,,,1,,,74,62
543840,note_on,240,0,3,,,,,,,,,2,,,62,0
543840,note_on,0,0,3,,,,,,,,,2,,,52,49
544080,note_on,0,0,3,,,,,,,,,2,,,62,49
544080,control_change,0,0,3,,,,,,,,,2,64,0,,
544080,note_on,240,0,3,,,,,,,,,2,,,52,0
544320,control_change,960,0,4,,,,,,,,,3,64,127,,
544320,note_on,240,0,3,,,,,,,,,2,,,62,0
544320,note_on,0,0,4,,,,,,,,,3,,,45,62
544320,note_on,480,0,2,,,,,,,,,1,,,74,0
544320,note_on,0,0,2,,,,,,,,,1,,,71,62
544560,note_on,0,0,3,,,,,,,,,2,,,60,49
544560,control_change,240,0,3,,,,,,,,,2,64,127,,
544800,note_on,2400,0,1,,,,,,,,,0,,,76,0
544800,note_on,0,0,3,,,,,,,,,2,,,50,49
544800,note_on,240,0,3,,,,,,,,,2,,,60,0
544800,control_change,0,0,2,,,,,,,,,1,64,0,,
544800,note_on,0,0,2,,,,,,,,,1,,,69,62
544800,note_on,480,0,2,,,,,,,,,1,,,71,0
545040,note_on,240,0,3,,,,,,,,,2,,,50,0
545040,note_on,0,0,3,,,,,,,,,2,,,60,49
545280,note_on,240,0,3,,,,,,,,,2,,,60,0
545280,note_on,480,0,2,,,,,,,,,1,,,69,0
545280,note_on,0,0,3,,,,,,,,,2,,,64,49
545520,note_on,240,0,3,,,,,,,,,2,,,64,0
545520,note_on,0,0,3,,,,,,,,,2,,,60,49
545760,note_on,240,0,3,,,,,,,,,2,,,60,0
545760,note_on,0,0,3,,,,,,,,,2,,,52,49
545760,note_on,1440,0,4,,,,,,,,,3,,,45,0
545760,note_on,0,0,4,,,,,,,,,3,,,48,62
546000,note_on,0,0,3,,,,,,,,,2,,,60,49
546000,control_change,0,0,3,,,,,,,,,2,64,0,,
546000,note_on,240,0,3,,,,,,,,,2,,,52,0
546240,note_on,0,0,1,,,,,,,,,0,,,76,62
546240,control_change,1440,0,1,,,,,,,,,0,64,127,,
546240,note_on,240,0,3,,,,,,,,,2,,,60,0
546240,note_on,0,0,2,,,,,,,,,1,,,71,62
546240,control_change,960,0,2,,,,,,,,,1,64,127,,
546240,note_on,480,0,4,,,,,,,,,3,,,48,0
546240,note_on,0,0,4,,,,,,,,,3,,,45,62
546480,control_change,240,0,3,,,,,,,,,2,64,127,,
546480,note_on,0,0,3,,,,,,,,,2,,,62,49
546720,note_on,0,0,4,,,,,,,,,3,,,44,62
546720,note_on,0,0,3,,,,,,,,,2,,,52,49
546720,note_on,240,0,3,,,,,,,,,2,,,62,0
546720,note_on,480,0,4,,,,,,,,,3,,,45,0
546720,control_change,0,0,4,,,,,,,,,3,64,0,,
546960,note_on,0,0,3,,,,,,,,,2,,,62,49
546960,note_on,240,0,3,,,,,,,,,2,,,52,0
547200,note_on,480,0,4,,,,,,,,,3,,,44,0
547200,note_on,240,0,3,,,,,,,,,2,,,62,0
547200,note_on,0,0,3,,,,,,,,,2,,,64,49
547440,note_on,240,0,3,,,,,,,,,2,,,64,0
547440,note_on,0,0,3,,,,,,,,,2,,,62,49
547680,note_on,1440,0,2,,,,,,,,,1,,,71,0
547680,note_on,0,0,2,,,,,,,,,1,,,74,62
547680,note_on,0,0,3,,,,,,,,,2,,,52,49
547680,note_on,240,0,3,,,,,,,,,2,,,62,0
547920,note_on,0,0,3,,,,,,,,,2,,,62,49
547920,control_change,0,0,3,,,,,,,,,2,64,0,,
547920,note_on,240,0,3,,,,,,,,,2,,,52,0
548160,control_change,960,0,4,,,,,,,,,3,64,127,,
548160,note_on,0,0,2,,,,,,,,,1,,,71,62
548160,note_on,480,0,2,,,,,,,,,1,,,74,0
548160,note_on,240,0,3,,,,,,,,,2,,,62,0
548160,note_on,0,0,4,,,,,,,,,3,,,48,62
548400,control_change,240,0,3,,,,,,,,,2,64,127,,
548400,note_on,0,0,3,,,,,,,,,2,,,60,49
548640,note_on,0,0,3,,,,,,,,,2,,,52,49
548640,note_on,0,0,2,,,,,,,,,1,,,69,62
548640,control_change,0,0,2,,,,,,,,,1,64,0,,
548640,note_on,480,0,2,,,,,,,,,1,,,71,0
548640,note_on,240,0,3,,,,,,,,,2,,,60,0
548880,note_on,240,0,3,,,,,,,,,2,,,52,0
548880,note_on,0,0,3,,,,,,,,,2,,,60,49
549120,note_on,240,0,3,,,,,,,,,2,,,60,0
549120,note_on,480,0,2,,,,,,,,,1,,,69,0
549120,note_on,0,0,3,,,,,,,,,2,,,53,49
549120,note_on,2880,0,1,,,,,,,,,0,,,76,0
549120,note_on,0,0,1,,,,,,,,,0,,,77,75
549360,note_on,0,0,3,,,,,,,,,2,,,60,49
549360,note_on,240,0,3,,,,,,,,,2,,,53,0
549600,control_change,0,0,1,,,,,,,,,0,64,0,,
549600,note_on,0,0,1,,,,,,,,,0,,,78,75
549600,note_on,1440,0,4,,,,,,,,,3,,,48,0
549600,note_on,240,0,3,,,,,,,,,2,,,60,0
549600,note_on,0,0,3,,,,,,,,,2,,,54,49
549600,note_on,0,0,4,,,,,,,,,3,,,51,62
549600,note_on,480,0,1,,,,,,,,,0,,,77,0
549840,note_on,0,0,3,,,,,,,,,2,,,60,49
549840,control_change,0,0,3,,,,,,,,,2,64,0,,
549840,note_on,240,0,3,,,,,,,,,2,,,54,0
550080,note_on,240,0,3,,,,,,,,,2,,,60,0
550080,note_on,0,0,1,,,,,,,,,0,,,79,75
550080,note_on,960,0,2,,,,,,,,,1,,,74,75
550080,note_on,0,0,4,,,,,,,,,3,,,48,62
550080,note_on,480,0,4,,,,,,,,,3,,,51,0
550080,note_on,480,0,1,,,,,,,,,0,,,78,0
550080,note_on,0,0,1,,,,,,,,,0,,,67,75
550320,note_on,0,0,3,,,,,,,,,2,,,62,49
550320,control_change,240,0,3,,,,,,,,,2,64,127,,
550560,note_on,0,0,4,,,,,,,,,3,,,47,62
550560,note_on,480,0,4,,,,,,,,,3,,,48,0
550560,note_on,240,0,3,,,,,,,,,2,,,62,0
550560,note_on,0,0,3,,,,,,,,,2,,,55,49
550560,control_change,0,0,4,,,,,,,,,3,64,0,,
550800,note_on,240,0,3,,,,,,,,,2,,,55,0
550800,note_on,0,0,3,,,,,,,,,2,,,62,49
551040,note_on,240,0,3,,,,,,,,,2,,,62,0
551040,note_on,0,0,3,,,,,,,,,2,,,65,49
551040,note_on,480,0,4,,,,,,,,,3,,,47,0
551280,note_on,0,0,3,,,,,,,,,2,,,62,49
551280,note_on,240,0,3,,,,,,,,,2,,,65,0
551520,note_on,0,0,2,,,,,,,,,1,,,77,75
551520,note_on,1440,0,2,,,,,,,,,1,,,74,0
551520,note_on,0,0,3,,,,,,,,,2,,,55,49
551520,note_on,240,0,3,,,,,,,,,2,,,62,0
551760,note_on,0,0,3,,,,,,,,,2,,,62,49
551760,note_on,240,0,3,,,,,,,,,2,,,55,0
551760,control_change,0,0,3,,,,,,,,,2,64,0,,
552000,note_on,480,0,2,,,,,,,,,1,,,77,0
552000,note_on,0,0,2,,,,,,,,,1,,,74,75
552000,note_on,0,0,4,,,,,,,,,3,,,52,62
552000,control_change,960,0,4,,,,,,,,,3,64,127,,
552000,note_on,240,0,3,,,,,,,,,2,,,62,0
552240,note_on,0,0,3,,,,,,,,,2,,,60,49
552240,control_change,240,0,3,,,,,,,,,2,64,127,,
552480,note_on,480,0,2,,,,,,,,,1,,,74,0
552480,note_on,0,0,2,,,,,,,,,1,,,72,75
552480,note_on,240,0,3,,,,,,,,,2,,,60,0
552480,note_on,0,0,3,,,,,,,,,2,,,55,49
552720,note_on,240,0,3,,,,,,,,,2,,,55,0
552720,note_on,0,0,3,,,,,,,,,2,,,64,49
552960,note_on,480,0,2,,,,,,,,,1,,,72,0
552960,note_on,0,0,2,,,,,,,,,1,,,69,75
552960,note_on,240,0,3,,,,,,,,,2,,,64,0
552960,note_on,0,0,3,,,,,,,,,2,,,57,49
552960,note_on,2880,0,1,,,,,,,,,0,,,79,0
552960,note_on,0,0,1,,,,,,,,,0,,,67,0
553200,note_on,240,0,3,,,,,,,,,2,,,57,0
553200,note_on,0,0,3,,,,,,,,,2,,,64,49
553440,note_on,0,0,2,,,,,,,,,1,,,70,75
553440,note_on,480,0,2,,,,,,,,,1,,,69,0
553440,note_on,1440,0,4,,,,,,,,,3,,,52,0
553440,note_on,240,0,3,,,,,,,,,2,,,64,0
553440,note_on,0,0,3,,,,,,,,,2,,,58,49
553440,note_on,0,0,4,,,,,,,,,3,,,55,62
553680,note_on,240,0,3,,,,,,,,,2,,,58,0
553680,control_change,0,0,3,,,,,,,,,2,64,0,,
553680,note_on,0,0,3,,,,,,,,,2,,,64,49
553920,note_on,480,0,4,,,,,,,,,3,,,55,0
553920,note_on,240,0,3,,,,,,,,,2,,,64,0
553920,note_on,0,0,1,,,,,,,,,0,,,78,75
553920,control_change,960,0,1,,,,,,,,,0,64,127,,
553920,note_on,0,0,4,,,,,,,,,3,,,52,75
553920,note_on,0,0,2,,,,,,,,,1,,,71,75
553920,note_on,480,0,2,,,,,,,,,1,,,70,0
554160,note_on,0,0,3,,,,,,,,,2,,,66,62
554160,control_change,240,0,3,,,,,,,,,2,64,127,,
554400,note_on,0,0,3,,,,,,,,,2,,,59,62
554400,note_on,0,0,4,,,,,,,,,3,,,51,75
554400,control_change,0,0,4,,,,,,,,,3,64,0,,
554400,note_on,240,0,3,,,,,,,,,2,,,66,0
554400,note_on,480,0,4,,,,,,,,,3,,,52,0
554640,note_on,240,0,3,,,,,,,,,2,,,59,0
554640,note_on,0,0,3,,,,,,,,,2,,,66,62
554880,note_on,240,0,3,,,,,,,,,2,,,66,0
554880,note_on,480,0,4,,,,,,,,,3,,,51,0
554880,note_on,0,0,3,,,,,,,,,2,,,69,62
555120,note_on,0,0,3,,,,,,,,,2,,,66,62
555120,note_on,240,0,3,,,,,,,,,2,,,69,0
555360,note_on,0,0,3,,,,,,,,,2,,,59,62
555360,note_on,240,0,3,,,,,,,,,2,,,66,0
555360,note_on,1440,0,1,,,,,,,,,0,,,78,0
555360,note_on,0,0,1,,,,,,,,,0,,,81,75
555600,note_on,240,0,3,,,,,,,,,2,,,59,0
555600,note_on,0,0,3,,,,,,,,,2,,,66,62
555600,control_change,0,0,3,,,,,,,,,2,64,0,,
555840,note_on,240,0,3,,,,,,,,,2,,,66,0
555840,note_on,960,0,4,,,,,,,,,3,,,52,88
555840,note_on,0,0,1,,,,,,,,,0,,,78,88
555840,note_on,480,0,1,,,,,,,,,0,,,81,0
556080,control_change,240,0,3,,,,,,,,,2,64,127,,
556080,note_on,0,0,3,,,,,,,,,2,,,64,75
556320,note_on,0,0,2,,,,,,,,,1,,,71,88
556320,control_change,0,0,2,,,,,,,,,1,64,127,,
556320,note_on,2400,0,2,,,,,,,,,1,,,71,0
556320,note_on,240,0,3,,,,,,,,,2,,,64,0
556320,note_on,480,0,1,,,,,,,,,0,,,78,0
556320,note_on,0,0,3,,,,,,,,,2,,,59,75
556320,note_on,0,0,1,,,,,,,,,0,,,79,88
556560,note_on,240,0,3,,,,,,,,,2,,,59,0
556560,note_on,0,0,3,,,,,,,,,2,,,64,75
556800,note_on,480,0,2,,,,,,,,,1,,,71,0
556800,note_on,960,0,4,,,,,,,,,3,,,52,0
556800,note_on,0,0,4,,,,,,,,,3,,,45,88
556800,note_on,0,0,1,,,,,,,,,0,,,81,88
556800,note_on,480,0,1,,,,,,,,,0,,,79,0
556800,note_on,0,0,2,,,,,,,,,1,,,72,88
556800,note_on,0,0,3,,,,,,,,,2,,,60,75
556800,note_on,240,0,3,,,,,,,,,2,,,64,0
557040,note_on,0,0,3,,,,,,,,,2,,,64,75
557040,note_on,240,0,3,,,,,,,,,2,,,60,0
557280,note_on,480,0,2,,,,,,,,,1,,,72,0
557280,note_on,240,0,3,,,,,,,,,2,,,64,0
557280,note_on,0,0,3,,,,,,,,,2,,,57,75
557280,control_change,0,0,2,,,,,,,,,1,64,0,,
557280,note_on,0,0,2,,,,,,,,,1,,,69,88
557280,note_on,480,0,4,,,,,,,,,3,,,45,0
557280,note_on,0,0,4,,,,,,,,,3,,,48,88
557280,note_on,0,0,1,,,,,,,,,0,,,79,88
557280,note_on,480,0,1,,,,,,,,,0,,,81,0
557520,note_on,240,0,1,,,,,,,,,0,,,79,0
557520,control_change,0,0,1,,,,,,,,,0,64,0,,
557520,note_on,0,0,3,,,,,,,,,2,,,64,75
557520,control_change,0,0,3,,,,,,,,,2,64,0,,
557520,note_on,240,0,3,,,,,,,,,2,,,57,0
557520,note_on,0,0,1,,,,,,,,,0,,,78,88
557760,note_on,0,0,2,,,,,,,,,1,,,71,88
557760,note_on,240,0,1,,,,,,,,,0,,,78,0
557760,note_on,0,0,1,,,,,,,,,0,,,76,88
557760,note_on,480,0,4,,,,,,,,,3,,,48,0
557760,note_on,480,0,2,,,,,,,,,1,,,69,0
557760,note_on,0,0,4,,,,,,,,,3,,,47,88
557760,note_on,240,0,3,,,,,,,,,2,,,64,0
558000,control_change,240,0,3,,,,,,,,,2,64,127,,
558000,note_on,0,0,3,,,,,,,,,2,,,59,75
558240,note_on,240,0,3,,,,,,,,,2,,,59,0
558240,note_on,0,0,3,,,,,,,,,2,,,55,75
558480,note_on,240,0,3,,,,,,,,,2,,,55,0
558480,note_on,0,0,3,,,,,,,,,2,,,59,75
558720,note_on,960,0,1,,,,,,,,,0,,,76,0
558720,note_on,240,0,3,,,,,,,,,2,,,59,0
558720,note_on,0,0,3,,,,,,,,,2,,,54,75
558720,note_on,960,0,2,,,,,,,,,1,,,71,0
558720,note_on,0,0,1,,,,,,,,,0,,,75,88
558960,note_on,240,0,3,,,,,,,,,2,,,54,0
558960,note_on,0,0,3,,,,,,,,,2,,,59,75
559200,note_on,1440,0,4,,,,,,,,,3,,,47,0
559200,note_on,0,0,3,,,,,,,,,2,,,63,75
559200,note_on,0,0,4,,,,,,,,,3,,,45,88
559200,note_on,240,0,3,,,,,,,,,2,,,59,0
559200,note_on,480,0,1,,,,,,,,,0,,,75,0
559440,note_on,240,0,3,,,,,,,,,2,,,63,0
559440,control_change,0,0,3,,,,,,,,,2,64,0,,
559440,note_on,0,0,3,,,,,,,,,2,,,59,75
559680,note_on,480,0,1,,,,,,,,,0,,,86,62
559680,note_on,960,0,2,,,,,,,,,1,,,74,62
559680,note_on,480,0,4,,,,,,,,,3,,,45,0
559680,note_on,240,0,3,,,,,,,,,2,,,59,0
559680,note_on,0,0,4,,,,,,,,,3,,,44,62
559920,note_on,0,0,3,,,,,,,,,2,,,59,49
559920,control_change,240,0,3,,,,,,,,,2,64,127,,
560160,note_on,0,0,3,,,,,,,,,2,,,53,49
560160,note_on,240,0,3,,,,,,,,,2,,,59,0
560400,note_on,0,0,3,,,,,,,,,2,,,59,49
560400,note_on,240,0,3,,,,,,,,,2,,,53,0
560640,note_on,240,0,3,,,,,,,,,2,,,59,0
560640,note_on,960,0,4,,,,,,,,,3,,,44,0
560640,note_on,0,0,3,,,,,,,,,2,,,62,49
560880,note_on,240,0,3,,,,,,,,,2,,,62,0
560880,note_on,0,0,3,,,,,,,,,2,,,59,49
561120,note_on,0,0,2,,,,,,,,,1,,,77,62
561120,note_on,1440,0,1,,,,,,,,,0,,,86,0
561120,note_on,1440,0,2,,,,,,,,,1,,,74,0
561120,note_on,0,0,1,,,,,,,,,0,,,89,62
561120,note_on,240,0,3,,,,,,,,,2,,,59,0
561120,note_on,0,0,3,,,,,,,,,2,,,53,49
561360,control_change,0,0,3,,,,,,,,,2,64,0,,
561360,note_on,0,0,3,,,,,,,,,2,,,59,49
561360,note_on,240,0,3,,,,,,,,,2,,,53,0
561600,note_on,480,0,1,,,,,,,,,0,,,89,0
561600,note_on,960,0,4,,,,,,,,,3,,,45,62
561600,note_on,240,0,3,,,,,,,,,2,,,59,0
561600,note_on,0,0,1,,,,,,,,,0,,,83,88
561600,note_on,0,0,2,,,,,,,,,1,,,71,88
561600,control_change,0,0,2,,,,,,,,,1,64,127,,
561600,control_change,0,0,1,,,,,,,,,0,64,127,,
561600,note_on,480,0,2,,,,,,,,,1,,,77,0
561840,note_on,0,0,3,,,,,,,,,2,,,57,49
561840,control_change,240,0,3,,,,,,,,,2,64,127,,
562080,note_on,0,0,3,,,,,,,,,2,,,52,49
562080,note_on,480,0,1,,,,,,,,,0,,,83,0
562080,note_on,480,0,2,,,,,,,,,1,,,71,0
562080,note_on,0,0,2,,,,,,,,,1,,,72,62
562080,note_on,0,0,1,,,,,,,,,0,,,84,62
562080,note_on,240,0,3,,,,,,,,,2,,,57,0
562320,note_on,240,0,3,,,,,,,,,2,,,52,0
562320,note_on,0,0,3,,,,,,,,,2,,,57,49
562560,note_on,0,0,3,,,,,,,,,2,,,53,49
562560,note_on,0,0,2,,,,,,,,,1,,,74,62
562560,note_on,960,0,4,,,,,,,,,3,,,45,0
562560,note_on,0,0,1,,,,,,,,,0,,,86,62
562560,note_on,480,0,1,,,,,,,,,0,,,84,0
562560,note_on,480,0,2,,,,,,,,,1,,,72,0
562560,note_on,240,0,3,,,,,,,,,2,,,57,0
562560,note_on,0,0,4,,,,,,,,,3,,,38,62
562800,note_on,240,0,3,,,,,,,,,2,,,53,0
562800,note_on,0,0,3,,,,,,,,,2,,,57,49
563040,note_on,240,0,3,,,,,,,,,2,,,57,0
563040,note_on,0,0,4,,,,,,,,,3,,,41,62
563040,note_on,0,0,1,,,,,,,,,0,,,84,62
563040,note_on,480,0,1,,,,,,,,,0,,,86,0
563040,note_on,0,0,3,,,,,,,,,2,,,50,49
563040,note_on,480,0,4,,,,,,,,,3,,,38,0
563040,note_on,480,0,2,,,,,,,,,1,,,74,0
563040,note_on,0,0,2,,,,,,,,,1,,,72,62
563280,note_on,0,0,1,,,,,,,,,0,,,83,62
563280,note_on,0,0,2,,,,,,,,,1,,,71,62
563280,note_on,240,0,2,,,,,,,,,1,,,72,0
563280,note_on,240,0,3,,,,,,,,,2,,,50,0
563280,control_change,0,0,3,,,,,,,,,2,64,0,,
563280,note_on,240,0,1,,,,,,,,,0,,,84,0
563280,note_on,0,0,3,,,,,,,,,2,,,57,49
563520,note_on,240,0,3,,,,,,,,,2,,,57,0
563520,control_change,0,0,1,,,,,,,,,0,64,0,,
563520,note_on,0,0,2,,,,,,,,,1,,,69,62
563520,note_on,240,0,1,,,,,,,,,0,,,83,0
563520,control_change,0,0,2,,,,,,,,,1,64,0,,
563520,note_on,240,0,2,,,,,,,,,1,,,71,0
563520,note_on,0,0,1,,,,,,,,,0,,,81,62
563520,note_on,480,0,4,,,,,,,,,3,,,41,0
563520,note_on,0,0,4,,,,,,,,,3,,,40,62
563760,control_change,240,0,3,,,,,,,,,2,64,127,,
563760,note_on,0,0,3,,,,,,,,,2,,,52,49
564000,note_on,240,0,3,,,,,,,,,2,,,52,0
564000,note_on,0,0,3,,,,,,,,,2,,,48,49
564240,note_on,240,0,3,,,,,,,,,2,,,48,0
564240,note_on,0,0,3,,,,,,,,,2,,,52,49
564480,note_on,0,0,2,,,,,,,,,1,,,68,62
564480,note_on,0,0,3,,,,,,,,,2,,,47,49
564480,note_on,960,0,2,,,,,,,,,1,,,69,0
564480,note_on,240,0,3,,,,,,,,,2,,,52,0
564480,note_on,960,0,1,,,,,,,,,0,,,81,0
564480,note_on,0,0,1,,,,,,,,,0,,,80,62
564720,note_on,240,0,3,,,,,,,,,2,,,47,0
564720,note_on,0,0,3,,,,,,,,,2,,,52,49
564960,note_on,480,0,1,,,,,,,,,0,,,80,0
564960,note_on,480,0,2,,,,,,,,,1,,,68,0
564960,note_on,1440,0,4,,,,,,,,,3,,,40,0
564960,note_on,240,0,3,,,,,,,,,2,,,52,0
564960,note_on,0,0,3,,,,,,,,,2,,,51,49
565200,control_change,0,0,3,,,,,,,,,2,64,0,,
565200,note_on,0,0,3,,,,,,,,,2,,,52,49
565200,note_on,240,0,3,,,,,,,,,2,,,51,0
565440,control_change,0,0,3,,,,,,,,,2,64,127,,
565440,note_on,0,0,3,,,,,,,,,2,,,53,62
565440,note_on,240,0,3,,,,,,,,,2,,,52,0
565680,note_on,240,0,3,,,,,,,,,2,,,53,0
565680,note_on,0,0,3,,,,,,,,,2,,,52,62
565920,note_on,240,0,3,,,,,,,,,2,,,52,0
565920,note_on,0,0,3,,,,,,,,,2,,,53,75
566160,note_on,0,0,3,,,,,,,,,2,,,54,75
566160,note_on,240,0,3,,,,,,,,,2,,,53,0
566400,note_on,240,0,3,,,,,,,,,2,,,54,0
566400,note_on,0,0,3,,,,,,,,,2,,,55,88
566640,note_on,0,0,3,,,,,,,,,2,,,56,101
566640,control_change,0,0,3,,,,,,,,,2,64,0,,
566640,note_on,240,0,3,,,,,,,,,2,,,55,0
566880,note_on,240,0,3,,,,,,,,,2,,,56,0
566880,note_on,0,0,2,,,,,,,,,1,,,81,101
566880,note_on,0,0,2,,,,,,,,,1,,,76,101
566880,note_on,1920,0,2,,,,,,,,,1,,,72,101
566880,note_on,1920,0,1,,,,,,,,,0,,,84,101
566880,note_on,0,0,1,,,,,,,,,0,,,88,101
566880,note_on,0,0,3,,,,,,,,,2,,,57,101
566880,note_on,1920,0,4,,,,,,,,,3,,,33,101
566880,note_on,0,0,3,,,,,,,,,2,,,45,101
566880,note_on,0,0,1,,,,,,,,,0,,,93,101
567120,note_on,240,0,3,,,,,,,,,2,,,57,0
567120,note_on,0,0,4,,,,,,,,,3,,,33,101
567120,note_on,240,0,4,,,,,,,,,3,,,33,0
567120,note_on,0,0,2,,,,,,,,,1,,,72,0
567120,note_on,0,0,2,,,,,,,,,1,,,81,101
567120,note_on,0,0,3,,,,,,,,,2,,,45,101
567120,note_on,0,0,1,,,,,,,,,0,,,93,101
567120,note_on,0,0,1,,,,,,,,,0,,,88,101
567120,note_on,0,0,1,,,,,,,,,0,,,84,101
567120,note_on,0,0,1,,,,,,,,,0,,,84,0
567120,note_on,0,0,1,,,,,,,,,0,,,88,0
567120,note_on,240,0,1,,,,,,,,,0,,,93,0
567120,note_on,240,0,2,,,,,,,,,1,,,81,0
567120,note_on,0,0,2,,,,,,,,,1,,,76,0
567120,note_on,0,0,2,,,,,,,,,1,,,72,101
567120,note_on,0,0,2,,,,,,,,,1,,,76,101
567120,note_on,0,0,3,,,,,,,,,2,,,57,101
567120,note_on,0,0,3,,,,,,,,,2,,,45,0
567360,note_on,0,0,3,,,,,,,,,2,,,57,101
567360,note_on,0,0,3,,,,,,,,,2,,,45,101
567360,note_on,0,0,3,,,,,,,,,2,,,45,0
567360,note_on,240,0,3,,,,,,,,,2,,,57,0
567360,note_on,0,0,1,,,,,,,,,0,,,93,101
567360,note_on,240,0,1,,,,,,,,,0,,,93,0
567360,note_on,0,0,2,,,,,,,,,1,,,81,101
567360,note_on,0,0,2,,,,,,,,,1,,,76,101
567360,note_on,0,0,2,,,,,,,,,1,,,72,101
567360,note_on,0,0,2,,,,,,,,,1,,,72,0
567360,note_on,0,0,2,,,,,,,,,1,,,76,0
567360,note_on,240,0,2,,,,,,,,,1,,,81,0
567360,note_on,0,0,4,,,,,,,,,3,,,33,101
567360,note_on,240,0,4,,,,,,,,,3,,,33,0
567360,note_on,0,0,1,,,,,,,,,0,,,88,101
567360,note_on,0,0,1,,,,,,,,,0,,,84,101
567360,note_on,0,0,1,,,,,,,,,0,,,84,0
567360,note_on,0,0,1,,,,,,,,,0,,,88,0
568800,note_on,0,0,2,,,,,,,,,1,,,76,0
568800,note_on,0,0,4,,,,,,,,,3,,,33,101
568800,note_on,1440,0,3,,,,,,,,,2,,,57,0
568800,note_on,1440,0,2,,,,,,,,,1,,,81,0
568800,note_on,1440,0,4,,,,,,,,,3,,,33,0
568800,note_on,0,0,2,,,,,,,,,1,,,72,0
568800,note_on,0,0,2,,,,,,,,,1,,,72,101
568800,note_on,0,0,3,,,,,,,,,2,,,57,101
568800,note_on,0,0,2,,,,,,,,,1,,,76,101
568800,note_on,0,0,1,,,,,,,,,0,,,88,101
568800,note_on,0,0,1,,,,,,,,,0,,,84,101
568800,note_on,0,0,1,,,,,,,,,0,,,81,101
568800,note_on,0,0,1,,,,,,,,,0,,,84,0
568800,note_on,0,0,1,,,,,,,,,0,,,88,0
568800,note_on,1440,0,1,,,,,,,,,0,,,93,0
568800,note_on,0,0,3,,,,,,,,,2,,,45,0
568800,note_on,0,0,2,,,,,,,,,1,,,69,101
568800,note_on,0,0,3,,,,,,,,,2,,,45,101
569040,note_on,0,0,3,,,,,,,,,2,,,57,101
569040,note_on,0,0,3,,,,,,,,,2,,,45,101
569040,note_on,0,0,3,,,,,,,,,2,,,45,0
569040,note_on,240,0,3,,,,,,,,,2,,,57,0
569040,note_on,240,0,4,,,,,,,,,3,,,33,0
569040,note_on,240,0,1,,,,,,,,,0,,,88,0
569040,note_on,0,0,1,,,,,,,,,0,,,84,0
569040,note_on,0,0,1,,,,,,,,,0,,,81,0
569040,note_on,0,0,1,,,,,,,,,0,,,81,101
569040,note_on,0,0,1,,,,,,,,,0,,,84,101
569040,note_on,0,0,1,,,,,,,,,0,,,88,101
569040,note_on,240,0,2,,,,,,,,,1,,,76,0
569040,note_on,0,0,2,,,,,,,,,1,,,72,0
569040,note_on,0,0,2,,,,,,,,,1,,,69,0
569040,note_on,0,0,2,,,,,,,,,1,,,69,101
569040,note_on,0,0,2,,,,,,,,,1,,,72,101
569040,note_on,0,0,4,,,,,,,,,3,,,33,101
569040,note_on,0,0,2,,,,,,,,,1,,,76,101
569280,note_on,0,0,2,,,,,,,,,1,,,72,0
569280,note_on,0,0,2,,,,,,,,,1,,,76,101
569280,note_on,0,0,2,,,,,,,,,1,,,69,101
569280,note_on,0,0,2,,,,,,,,,1,,,72,101
569280,note_on,0,0,1,,,,,,,,,0,,,84,101
569280,note_on,0,0,1,,,,,,,,,0,,,81,101
569280,note_on,0,0,1,,,,,,,,,0,,,81,0
569280,note_on,0,0,1,,,,,,,,,0,,,84,0
569280,note_on,240,0,1,,,,,,,,,0,,,88,0
569280,note_on,0,0,2,,,,,,,,,1,,,69,0
569280,note_on,240,0,2,,,,,,,,,1,,,76,0
569280,note_on,0,0,1,,,,,,,,,0,,,88,101
569280,note_on,240,0,4,,,,,,,,,3,,,33,0
569280,note_on,240,0,3,,,,,,,,,2,,,57,0
569280,note_on,0,0,3,,,,,,,,,2,,,57,101
569280,note_on,0,0,3,,,,,,,,,2,,,45,101
569280,note_on,0,0,4,,,,,,,,,3,,,33,101
569280,note_on,0,0,3,,,,,,,,,2,,,45,0
569760,note_on,0,0,2,,,,,,,,,1,,,72,101
569760,note_on,0,0,4,,,,,,,,,3,,,33,101
569760,note_on,0,0,2,,,,,,,,,1,,,69,101
569760,note_on,0,0,1,,,,,,,,,0,,,84,0
569760,note_on,0,0,1,,,,,,,,,0,,,81,0
569760,note_on,0,0,1,,,,,,,,,0,,,76,101
569760,note_on,0,0,1,,,,,,,,,0,,,81,101
569760,note_on,480,0,1,,,,,,,,,0,,,88,0
569760,note_on,0,0,1,,,,,,,,,0,,,84,101
569760,note_on,0,0,2,,,,,,,,,1,,,72,0
569760,note_on,0,0,2,,,,,,,,,1,,,69,0
569760,note_on,0,0,2,,,,,,,,,1,,,64,101
569760,note_on,0,0,3,,,,,,,,,2,,,57,101
569760,note_on,0,0,3,,,,,,,,,2,,,45,101
569760,note_on,0,0,3,,,,,,,,,2,,,45,0
569760,note_on,480,0,3,,,,,,,,,2,,,57,0
569760,note_on,480,0,4,,,,,,,,,3,,,33,0
569760,note_on,480,0,2,,,,,,,,,1,,,76,0
570000,note_on,240,0,2,,,,,,,,,1,,,72,0
570000,note_on,0,0,4,,,,,,,,,3,,,33,101
570000,note_on,240,0,4,,,,,,,,,3,,,33,0
570000,note_on,0,0,1,,,,,,,,,0,,,76,101
570000,note_on,0,0,2,,,,,,,,,1,,,69,0
570000,note_on,0,0,1,,,,,,,,,0,,,76,0
570000,note_on,0,0,1,,,,,,,,,0,,,81,0
570000,note_on,240,0,3,,,,,,,,,2,,,57,0
570000,note_on,0,0,3,,,,,,,,,2,,,45,0
570000,note_on,0,0,3,,,,,,,,,2,,,45,101
570000,note_on,0,0,3,,,,,,,,,2,,,57,101
570000,note_on,240,0,1,,,,,,,,,0,,,84,0
570000,note_on,0,0,1,,,,,,,,,0,,,81,101
570000,note_on,0,0,1,,,,,,,,,0,,,84,101
570000,note_on,0,0,2,,,,,,,,,1,,,72,101
570000,note_on,0,0,2,,,,,,,,,1,,,69,101
570000,note_on,0,0,2,,,,,,,,,1,,,64,101
570000,note_on,0,0,2,,,,,,,,,1,,,64,0
570240,note_on,0,0,2,,,,,,,,,1,,,69,0
570240,note_on,0,0,3,,,,,,,,,2,,,45,0
570240,note_on,0,0,3,,,,,,,,,2,,,45,101
570240,note_on,240,0,2,,,,,,,,,1,,,72,0
570240,note_on,0,0,3,,,,,,,,,2,,,57,101
570240,note_on,0,0,2,,,,,,,,,1,,,64,101
570240,note_on,0,0,2,,,,,,,,,1,,,69,101
570240,note_on,0,0,2,,,,,,,,,1,,,72,101
570240,note_on,240,0,3,,,,,,,,,2,,,57,0
570240,note_on,0,0,2,,,,,,,,,1,,,64,0
570240,note_on,240,0,1,,,,,,,,,0,,,84,0
570240,note_on,0,0,1,,,,,,,,,0,,,76,0
570240,note_on,240,0,4,,,,,,,,,3,,,33,0
570240,note_on,0,0,4,,,,,,,,,3,,,33,101
570240,note_on,0,0,1,,,,,,,,,0,,,81,0
570240,note_on,0,0,1,,,,,,,,,0,,,76,101
570240,note_on,0,0,1,,,,,,,,,0,,,81,101
570240,note_on,0,0,1,,,,,,,,,0,,,84,101
570720,note_on,0,0,1,,,,,,,,,0,,,81,0
570720,note_on,480,0,1,,,,,,,,,0,,,84,0
570720,note_on,0,0,1,,,,,,,,,0,,,76,0
570720,note_on,0,0,3,,,,,,,,,2,,,57,101
570720,note_on,0,0,3,,,,,,,,,2,,,45,101
570720,note_on,480,0,3,,,,,,,,,2,,,57,0
570720,note_on,480,0,4,,,,,,,,,3,,,33,0
570720,note_on,0,0,4,,,,,,,,,3,,,33,101
570720,note_on,0,0,1,,,,,,,,,0,,,81,101
570720,note_on,0,0,3,,,,,,,,,2,,,45,0
570720,note_on,480,0,2,,,,,,,,,1,,,72,0
570720,note_on,0,0,1,,,,,,,,,0,,,76,101
570720,note_on,0,0,2,,,,,,,,,1,,,69,101
570720,note_on,0,0,2,,,,,,,,,1,,,64,101
570720,note_on,0,0,2,,,,,,,,,1,,,60,101
570720,note_on,0,0,1,,,,,,,,,0,,,72,101
570720,note_on,0,0,2,,,,,,,,,1,,,69,0
570720,note_on,0,0,2,,,,,,,,,1,,,64,0
570960,note_on,0,0,2,,,,,,,,,1,,,69,101
570960,note_on,0,0,2,,,,,,,,,1,,,64,101
570960,note_on,0,0,2,,,,,,,,,1,,,60,101
570960,note_on,0,0,1,,,,,,,,,0,,,81,101
570960,note_on,0,0,1,,,,,,,,,0,,,76,101
570960,note_on,0,0,1,,,,,,,,,0,,,72,0
570960,note_on,0,0,1,,,,,,,,,0,,,76,0
570960,note_on,0,0,1,,,,,,,,,0,,,72,101
570960,note_on,0,0,2,,,,,,,,,1,,,64,0
570960,note_on,0,0,3,,,,,,,,,2,,,57,101
570960,note_on,0,0,3,,,,,,,,,2,,,45,101
570960,note_on,0,0,3,,,,,,,,,2,,,45,0
570960,note_on,240,0,3,,,,,,,,,2,,,57,0
570960,note_on,240,0,2,,,,,,,,,1,,,69,0
570960,note_on,0,0,4,,,,,,,,,3,,,33,101
570960,note_on,240,0,4,,,,,,,,,3,,,33,0
570960,note_on,240,0,1,,,,,,,,,0,,,81,0
570960,note_on,0,0,2,,,,,,,,,1,,,60,0
571200,note_on,240,0,1,,,,,,,,,0,,,81,0
571200,note_on,0,0,1,,,,,,,,,0,,,76,0
571200,note_on,0,0,1,,,,,,,,,0,,,72,0
571200,note_on,0,0,1,,,,,,,,,0,,,72,127
571200,note_on,0,0,1,,,,,,,,,0,,,76,127
571200,note_on,0,0,1,,,,,,,,,0,,,81,127
571200,note_on,240,0,3,,,,,,,,,2,,,57,0
571200,note_on,240,0,4,,,,,,,,,3,,,33,0
571200,note_on,0,0,2,,,,,,,,,1,,,64,0
571200,note_on,240,0,2,,,,,,,,,1,,,69,0
571200,note_on,0,0,3,,,,,,,,,2,,,45,0
571200,note_on,0,0,2,,,,,,,,,1,,,69,127
571200,note_on,0,0,2,,,,,,,,,1,,,64,127
571200,note_on,0,0,2,,,,,,,,,1,,,60,127
571200,note_on,0,0,2,,,,,,,,,1,,,60,0
571200,note_on,0,0,3,,,,,,,,,2,,,45,127
571200,note_on,0,0,4,,,,,,,,,3,,,33,127
571200,note_on,0,0,3,,,,,,,,,2,,,57,127
571680,note_on,480,0,4,,,,,,,,,3,,,33,0
571680,note_on,0,0,2,,,,,,,,,1,,,64,101
571680,note_on,480,0,2,,,,,,,,,1,,,69,0
571680,note_on,0,0,2,,,,,,,,,1,,,64,0
571680,note_on,0,0,2,,,,,,,,,1,,,60,0
571680,note_on,0,0,2,,,,,,,,,1,,,61,101
571680,note_on,0,0,4,,,,,,,,,3,,,33,101
571680,note_on,480,0,1,,,,,,,,,0,,,81,0
571680,note_on,0,0,1,,,,,,,,,0,,,73,101
571680,note_on,0,0,1,,,,,,,,,0,,,72,0
571680,note_on,480,0,3,,,,,,,,,2,,,57,0
571680,note_on,0,0,3,,,,,,,,,2,,,45,0
571680,note_on,0,0,3,,,,,,,,,2,,,45,101
571680,note_on,0,0,3,,,,,,,,,2,,,57,101
571680,note_on,0,0,1,,,,,,,,,0,,,76,101
571680,note_on,0,0,1,,,,,,,,,0,,,79,101
571680,note_on,0,0,1,,,,,,,,,0,,,76,0
571680,note_on,0,0,2,,,,,,,,,1,,,67,101
572160,note_on,480,0,2,,,,,,,,,1,,,67,0
572160,note_on,480,0,1,,,,,,,,,0,,,79,0
572160,note_on,0,0,1,,,,,,,,,0,,,76,0
572160,note_on,0,0,2,,,,,,,,,1,,,64,0
572160,note_on,0,0,2,,,,,,,,,1,,,61,0
572160,note_on,0,0,1,,,,,,,,,0,,,73,0
572160,note_on,480,0,4,,,,,,,,,3,,,33,0
572160,note_on,480,0,3,,,,,,,,,2,,,57,0
572160,note_on,0,0,3,,,,,,,,,2,,,45,0
572640,note_on,0,0,2,,,,,,,,,1,,,67,101
572640,note_on,0,0,2,,,,,,,,,1,,,64,101
572640,note_on,480,0,2,,,,,,,,,1,,,61,101
572640,note_on,480,0,1,,,,,,,,,0,,,73,101
572640,note_on,0,0,1,,,,,,,,,0,,,76,101
572640,note_on,0,0,1,,,,,,,,,0,,,79,101
572640,note_on,480,0,3,,,,,,,,,2,,,45,101
572640,note_on,480,0,4,,,,,,,,,3,,,33,101
572640,note_on,0,0,3,,,,,,,,,2,,,57,101
572880,note_on,0,0,1,,,,,,,,,0,,,79,101
572880,note_on,0,0,2,,,,,,,,,1,,,67,101
572880,note_on,0,0,2,,,,,,,,,1,,,64,101
572880,note_on,0,0,2,,,,,,,,,1,,,61,101
572880,note_on,0,0,2,,,,,,,,,1,,,61,0
572880,note_on,0,0,2,,,,,,,,,1,,,64,0
572880,note_on,240,0,2,,,,,,,,,1,,,67,0
572880,note_on,240,0,4,,,,,,,,,3,,,33,0
572880,note_on,0,0,3,,,,,,,,,2,,,45,0
572880,note_on,0,0,4,,,,,,,,,3,,,33,101
572880,note_on,0,0,3,,,,,,,,,2,,,57,101
572880,note_on,240,0,1,,,,,,,,,0,,,79,0
572880,note_on,0,0,1,,,,,,,,,0,,,76,0
572880,note_on,0,0,1,,,,,,,,,0,,,73,0
572880,note_on,0,0,1,,,,,,,,,0,,,73,101
572880,note_on,0,0,1,,,,,,,,,0,,,76,101
572880,note_on,240,0,3,,,,,,,,,2,,,57,0
572880,note_on,0,0,3,,,,,,,,,2,,,45,101
573120,note_on,0,0,2,,,,,,,,,1,,,61,0
573120,note_on,0,0,2,,,,,,,,,1,,,61,127
573120,note_on,0,0,1,,,,,,,,,0,,,76,0
573120,note_on,0,0,2,,,,,,,,,1,,,67,127
573120,note_on,0,0,2,,,,,,,,,1,,,64,127
573120,note_on,0,0,3,,,,,,,,,2,,,57,127
573120,note_on,0,0,3,,,,,,,,,2,,,45,127
573120,note_on,240,0,3,,,,,,,,,2,,,57,0
573120,note_on,0,0,4,,,,,,,,,3,,,33,127
573120,note_on,0,0,3,,,,,,,,,2,,,45,0
573120,note_on,240,0,2,,,,,,,,,1,,,67,0
573120,note_on,0,0,1,,,,,,,,,0,,,73,0
573120,note_on,0,0,1,,,,,,,,,0,,,73,127
573120,note_on,240,0,4,,,,,,,,,3,,,33,0
573120,note_on,0,0,1,,,,,,,,,0,,,76,127
573120,note_on,240,0,1,,,,,,,,,0,,,79,0
573120,note_on,0,0,2,,,,,,,,,1,,,64,0
573120,note_on,0,0,1,,,,,,,,,0,,,79,127
573600,note_on,0,0,2,,,,,,,,,1,,,62,101
573600,note_on,480,0,3,,,,,,,,,2,,,57,0
573600,note_on,0,0,3,,,,,,,,,2,,,45,101
573600,note_on,0,0,3,,,,,,,,,2,,,57,101
573600,note_on,0,0,4,,,,,,,,,3,,,33,101
573600,note_on,0,0,2,,,,,,,,,1,,,64,0
573600,note_on,480,0,4,,,,,,,,,3,,,33,0
573600,note_on,0,0,2,,,,,,,,,1,,,61,0
573600,note_on,0,0,3,,,,,,,,,2,,,45,0
573600,note_on,0,0,2,,,,,,,,,1,,,65,101
573600,note_on,480,0,1,,,,,,,,,0,,,79,0
573600,note_on,0,0,1,,,,,,,,,0,,,76,0
573600,note_on,0,0,1,,,,,,,,,0,,,73,0
573600,note_on,0,0,1,,,,,,,,,0,,,74,101
573600,note_on,0,0,1,,,,,,,,,0,,,77,101
573600,note_on,480,0,2,,,,,,,,,1,,,67,0
574080,note_on,0,0,2,,,,,,,,,1,,,62,0
574080,note_on,0,0,3,,,,,,,,,2,,,45,0
574080,note_on,480,0,3,,,,,,,,,2,,,57,0
574080,note_on,480,0,1,,,,,,,,,0,,,77,0
574080,note_on,480,0,4,,,,,,,,,3,,,33,0
574080,note_on,480,0,2,,,,,,,,,1,,,65,0
574080,note_on,0,0,1,,,,,,,,,0,,,74,0
574560,note_on,480,0,4,,,,,,,,,3,,,33,101
574560,note_on,480,0,1,,,,,,,,,0,,,70,101
574560,note_on,0,0,1,,,,,,,,,0,,,74,101
574560,note_on,0,0,1,,,,,,,,,0,,,77,101
574560,note_on,480,0,2,,,,,,,,,1,,,65,101
574560,note_on,0,0,4,,,,,,,,,3,,,45,101
574560,note_on,480,0,3,,,,,,,,,2,,,56,101
574800,note_on,240,0,1,,,,,,,,,0,,,77,0
574800,note_on,0,0,1,,,,,,,,,0,,,70,0
574800,note_on,0,0,1,,,,,,,,,0,,,69,101
574800,note_on,0,0,1,,,,,,,,,0,,,74,101
574800,note_on,0,0,1,,,,,,,,,0,,,77,101
574800,note_on,0,0,1,,,,,,,,,0,,,74,0
574800,note_on,0,0,2,,,,,,,,,1,,,65,101
574800,note_on,0,0,4,,,,,,,,,3,,,33,101
574800,note_on,0,0,4,,,,,,,,,3,,,45,101
574800,note_on,240,0,2,,,,,,,,,1,,,65,0
574800,note_on,240,0,4,,,,,,,,,3,,,45,0
574800,note_on,0,0,3,,,,,,,,,2,,,57,101
574800,note_on,0,0,4,,,,,,,,,3,,,33,0
574800,note_on,240,0,3,,,,,,,,,2,,,56,0
575040,note_on,0,0,4,,,,,,,,,3,,,45,101
575040,note_on,0,0,4,,,,,,,,,3,,,33,101
575040,note_on,0,0,1,,,,,,,,,0,,,77,101
575040,note_on,0,0,1,,,,,,,,,0,,,74,101
575040,note_on,0,0,1,,,,,,,,,0,,,68,101
575040,note_on,0,0,1,,,,,,,,,0,,,69,0
575040,note_on,240,0,3,,,,,,,,,2,,,57,0
575040,note_on,0,0,4,,,,,,,,,3,,,33,0
575040,note_on,240,0,4,,,,,,,,,3,,,45,0
575040,note_on,0,0,2,,,,,,,,,1,,,65,101
575040,note_on,240,0,2,,,,,,,,,1,,,65,0
575040,note_on,0,0,3,,,,,,,,,2,,,59,101
575040,note_on,0,0,3,,,,,,,,,2,,,47,101
575040,note_on,240,0,1,,,,,,,,,0,,,77,0
575040,note_on,0,0,1,,,,,,,,,0,,,74,0
575087,note_on,47,0,2,,,,,,,,,1,,,65,0
575087,note_on,47,0,1,,,,,,,,,0,,,77,0
575087,note_on,0,0,4,,,,,,,,,3,,,33,0
575087,note_on,0,0,1,,,,,,,,,0,,,68,0
575087,note_on,47,0,4,,,,,,,,,3,,,45,0
575087,note_on,0,0,3,,,,,,,,,2,,,47,0
575087,note_on,0,0,1,,,,,,,,,0,,,74,0
575087,note_on,47,0,3,,,,,,,,,2,,,59,0
575520,note_on,0,0,1,,,,,,,,,0,,,77,101
575520,note_on,433,0,2,,,,,,,,,1,,,65,101
575520,note_on,433,0,4,,,,,,,,,3,,,33,101
575520,note_on,0,0,4,,,,,,,,,3,,,45,101
575520,note_on,0,0,3,,,,,,,,,2,,,59,101
575520,note_on,433,0,3,,,,,,,,,2,,,47,101
575520,note_on,0,0,1,,,,,,,,,0,,,74,101
575520,note_on,433,0,1,,,,,,,,,0,,,68,101
575567,note_on,47,0,4,,,,,,,,,3,,,45,0
575567,note_on,0,0,3,,,,,,,,,2,,,47,0
575567,note_on,47,0,3,,,,,,,,,2,,,59,0
575567,note_on,0,0,4,,,,,,,,,3,,,33,0
575567,note_on,47,0,1,,,,,,,,,0,,,77,0
575567,note_on,0,0,1,,,,,,,,,0,,,74,0
575567,note_on,47,0,2,,,,,,,,,1,,,65,0
575567,note_on,0,0,1,,,,,,,,,0,,,68,0
576000,note_on,0,0,1,,,,,,,,,0,,,74,101
576000,note_on,433,0,3,,,,,,,,,2,,,47,101
576000,note_on,433,0,4,,,,,,,,,3,,,33,101
576000,note_on,0,0,4,,,,,,,,,3,,,45,101
576000,note_on,433,0,2,,,,,,,,,1,,,65,101
576000,note_on,433,0,1,,,,,,,,,0,,,68,101
576000,note_on,0,0,3,,,,,,,,,2,,,59,101
576000,note_on,0,0,1,,,,,,,,,0,,,77,101
576047,note_on,47,0,2,,,,,,,,,1,,,65,0
576047,note_on,47,0,3,,,,,,,,,2,,,59,0
576047,note_on,0,0,1,,,,,,,,,0,,,74,0
576047,note_on,0,0,1,,,,,,,,,0,,,68,0
576047,note_on,0,0,3,,,,,,,,,2,,,47,0
576047,note_on,0,0,4,,,,,,,,,3,,,33,0
576047,note_on,47,0,4,,,,,,,,,3,,,45,0
576047,note_on,47,0,1,,,,,,,,,0,,,77,0
576480,note_on,433,0,4,,,,,,,,,3,,,33,101
576480,note_on,0,0,4,,,,,,,,,3,,,45,101
576480,note_on,433,0,3,,,,,,,,,2,,,47,101
576480,note_on,0,0,3,,,,,,,,,2,,,59,101
576480,note_on,433,0,1,,,,,,,,,0,,,68,101
576480,note_on,0,0,1,,,,,,,,,0,,,77,101
576480,note_on,433,0,2,,,,,,,,,1,,,65,101
576480,note_on,0,0,1,,,,,,,,,0,,,74,101
576527,note_on,47,0,2,,,,,,,,,1,,,65,0
576527,note_on,47,0,1,,,,,,,,,0,,,77,0
576527,note_on,0,0,1,,,,,,,,,0,,,68,0
576527,note_on,0,0,1,,,,,,,,,0,,,74,0
576527,note_on,0,0,3,,,,,,,,,2,,,47,0
576527,note_on,47,0,3,,,,,,,,,2,,,59,0
576527,note_on,47,0,4,,,,,,,,,3,,,45,0
576527,note_on,0,0,4,,,,,,,,,3,,,33,0
576960,note_on,433,0,3,,,,,,,,,2,,,47,101
576960,note_on,433,0,4,,,,,,,,,3,,,33,101
576960,note_on,0,0,4,,,,,,,,,3,,,45,101
576960,note_on,0,0,1,,,,,,,,,0,,,77,101
576960,note_on,0,0,1,,,,,,,,,0,,,74,101
576960,note_on,433,0,2,,,,,,,,,1,,,65,101
576960,note_on,433,0,1,,,,,,,,,0,,,68,101
576960,note_on,0,0,3,,,,,,,,,2,,,59,101
577440,note_on,480,0,1,,,,,,,,,0,,,77,0
577440,note_on,0,0,1,,,,,,,,,0,,,76,101
577440,note_on,0,0,1,,,,,,,,,0,,,72,101
577440,note_on,0,0,1,,,,,,,,,0,,,69,101
577440,note_on,0,0,1,,,,,,,,,0,,,68,0
577440,note_on,0,0,1,,,,,,,,,0,,,74,0
577440,note_on,0,0,4,,,,,,,,,3,,,33,0
577440,note_on,0,0,3,,,,,,,,,2,,,48,101
577440,note_on,0,0,2,,,,,,,,,1,,,64,101
577440,note_on,0,0,4,,,,,,,,,3,,,45,101
577440,note_on,0,0,4,,,,,,,,,3,,,33,101
577440,note_on,480,0,4,,,,,,,,,3,,,45,0
577440,note_on,480,0,3,,,,,,,,,2,,,59,0
577440,note_on,0,0,3,,,,,,,,,2,,,47,0
577440,note_on,480,0,2,,,,,,,,,1,,,65,0
577440,note_on,0,0,3,,,,,,,,,2,,,60,101
577920,note_on,480,0,1,,,,,,,,,0,,,76,0
577920,note_on,0,0,3,,,,,,,,,2,,,48,0
577920,note_on,480,0,3,,,,,,,,,2,,,60,0
577920,note_on,0,0,1,,,,,,,,,0,,,72,0
577920,note_on,480,0,4,,,,,,,,,3,,,45,0
577920,note_on,0,0,4,,,,,,,,,3,,,33,0
577920,note_on,480,0,2,,,,,,,,,1,,,64,0
577920,note_on,0,0,1,,,,,,,,,0,,,69,0
578400,note_on,480,0,4,,,,,,,,,3,,,33,101
578400,note_on,0,0,1,,,,,,,,,0,,,76,101
578400,note_on,0,0,1,,,,,,,,,0,,,81,101
578400,note_on,480,0,1,,,,,,,,,0,,,72,101
578400,note_on,0,0,2,,,,,,,,,1,,,64,101
578400,note_on,480,0,2,,,,,,,,,1,,,60,101
578400,note_on,0,0,4,,,,,,,,,3,,,45,101
578400,note_on,0,0,3,,,,,,,,,2,,,57,101
578400,note_on,480,0,3,,,,,,,,,2,,,52,101
578400,note_on,0,0,2,,,,,,,,,1,,,69,101
578880,note_on,480,0,2,,,,,,,,,1,,,69,0
578880,note_on,0,0,2,,,,,,,,,1,,,64,0
578880,note_on,0,0,2,,,,,,,,,1,,,62,127
578880,note_on,0,0,2,,,,,,,,,1,,,65,127
578880,note_on,0,0,2,,,,,,,,,1,,,70,127
578880,note_on,0,0,4,,,,,,,,,3,,,38,127
578880,note_on,480,0,1,,,,,,,,,0,,,81,0
578880,note_on,0,0,1,,,,,,,,,0,,,76,0
578880,note_on,0,0,1,,,,,,,,,0,,,82,127
578880,note_on,0,0,1,,,,,,,,,0,,,77,127
578880,note_on,0,0,2,,,,,,,,,1,,,60,0
578880,note_on,0,0,1,,,,,,,,,0,,,72,0
578880,note_on,480,0,4,,,,,,,,,3,,,45,0
578880,note_on,0,0,3,,,,,,,,,2,,,58,127
578880,note_on,0,0,3,,,,,,,,,2,,,53,127
578880,note_on,0,0,3,,,,,,,,,2,,,52,0
578880,note_on,480,0,3,,,,,,,,,2,,,57,0
578880,note_on,0,0,4,,,,,,,,,3,,,33,0
578880,note_on,0,0,4,,,,,,,,,3,,,50,127
578880,note_on,0,0,1,,,,,,,,,0,,,74,127
579840,note_on,0,0,1,,,,,,,,,0,,,70,127
579840,note_on,0,0,1,,,,,,,,,0,,,74,127
579840,note_on,0,0,2,,,,,,,,,1,,,65,0
579840,note_on,0,0,1,,,,,,,,,0,,,77,0
579840,note_on,960,0,1,,,,,,,,,0,,,82,0
579840,note_on,960,0,3,,,,,,,,,2,,,58,0
579840,note_on,0,0,3,,,,,,,,,2,,,53,0
579840,note_on,0,0,2,,,,,,,,,1,,,62,0
579840,note_on,0,0,1,,,,,,,,,0,,,65,127
579840,note_on,960,0,2,,,,,,,,,1,,,70,0
579840,note_on,0,0,1,,,,,,,,,0,,,74,0
579840,note_on,960,0,4,,,,,,,,,3,,,50,0
579840,note_on,0,0,4,,,,,,,,,3,,,38,0
580800,note_on,0,0,1,,,,,,,,,0,,,77,101
580800,note_on,960,0,1,,,,,,,,,0,,,74,0
580800,note_on,0,0,1,,,,,,,,,0,,,70,0
580800,note_on,0,0,1,,,,,,,,,0,,,65,0
580800,note_on,0,0,1,,,,,,,,,0,,,70,101
580800,note_on,0,0,1,,,,,,,,,0,,,74,101
580847,note_on,0,0,1,,,,,,,,,0,,,70,0
580847,note_on,47,0,1,,,,,,,,,0,,,77,0
580847,note_on,0,0,1,,,,,,,,,0,,,74,0
581280,note_on,0,0,1,,,,,,,,,0,,,82,101
581280,note_on,0,0,1,,,,,,,,,0,,,77,101
581280,note_on,433,0,1,,,,,,,,,0,,,74,101
581327,note_on,0,0,1,,,,,,,,,0,,,74,0
581327,note_on,47,0,1,,,,,,,,,0,,,82,0
581327,note_on,0,0,1,,,,,,,,,0,,,77,0
581760,note_on,0,0,1,,,,,,,,,0,,,82,101
581760,note_on,0,0,1,,,,,,,,,0,,,86,101
581760,note_on,433,0,1,,,,,,,,,0,,,77,101
581807,note_on,0,0,1,,,,,,,,,0,,,77,0
581807,note_on,0,0,1,,,,,,,,,0,,,82,0
581807,note_on,47,0,1,,,,,,,,,0,,,86,0
582240,note_on,433,0,1,,,,,,,,,0,,,74,101
582240,note_on,2400,0,2,,,,,,,,,1,,,62,101
582240,note_on,0,0,1,,,,,,,,,0,,,77,101
582240,note_on,0,0,4,,,,,,,,,3,,,43,101
582240,control_change,2400,0,4,,,,,,,,,3,64,127,,
582240,note_on,0,0,1,,,,,,,,,0,,,82,101
582240,note_on,2400,0,3,,,,,,,,,2,,,58,101
582287,note_on,47,0,1,,,,,,,,,0,,,82,0
582287,note_on,0,0,1,,,,,,,,,0,,,74,0
582287,note_on,0,0,1,,,,,,,,,0,,,77,0
582360,note_on,120,0,4,,,,,,,,,3,,,43,0
582360,note_on,0,0,4,,,,,,,,,3,,,41,101
582480,note_on,120,0,4,,,,,,,,,3,,,41,0
582480,note_on,0,0,4,,,,,,,,,3,,,40,101
582600,note_on,120,0,4,,,,,,,,,3,,,40,0
582600,control_change,0,0,4,,,,,,,,,3,64,0,,
582600,note_on,0,0,4,,,,,,,,,3,,,38,101
582720,note_on,0,0,3,,,,,,,,,2,,,57,127
582720,note_on,120,0,4,,,,,,,,,3,,,38,0
582720,note_on,0,0,1,,,,,,,,,0,,,81,127
582720,note_on,480,0,3,,,,,,,,,2,,,58,0
582720,note_on,0,0,2,,,,,,,,,1,,,64,127
582720,note_on,480,0,2,,,,,,,,,1,,,62,0
582720,note_on,0,0,4,,,,,,,,,3,,,37,127
582720,note_on,433,0,1,,,,,,,,,0,,,76,127
583680,note_on,960,0,1,,,,,,,,,0,,,81,0
583680,note_on,0,0,1,,,,,,,,,0,,,76,0
583680,note_on,0,0,4,,,,,,,,,3,,,48,127
583680,note_on,0,0,2,,,,,,,,,1,,,66,127
583680,note_on,0,0,3,,,,,,,,,2,,,57,127
583680,note_on,960,0,3,,,,,,,,,2,,,57,0
583680,note_on,0,0,2,,,,,,,,,1,,,63,127
583680,note_on,960,0,2,,,,,,,,,1,,,64,0
583680,note_on,960,0,4,,,,,,,,,3,,,37,0
583680,note_on,0,0,4,,,,,,,,,3,,,36,127
584640,note_on,0,0,3,,,,,,,,,2,,,58,101
584640,note_on,960,0,4,,,,,,,,,3,,,48,0
584640,note_on,960,0,3,,,,,,,,,2,,,57,0
584640,note_on,960,0,2,,,,,,,,,1,,,66,0
584640,note_on,0,0,2,,,,,,,,,1,,,63,101
584640,note_on,0,0,4,,,,,,,,,3,,,36,0
584640,note_on,0,0,4,,,,,,,,,3,,,46,101
584640,note_on,0,0,2,,,,,,,,,1,,,67,101
584640,note_on,0,0,2,,,,,,,,,1,,,63,0
584687,note_on,47,0,4,,,,,,,,,3,,,46,0
584687,note_on,47,0,2,,,,,,,,,1,,,67,0
584687,note_on,0,0,2,,,,,,,,,1,,,63,0
584687,note_on,47,0,3,,,,,,,,,2,,,58,0
585120,note_on,433,0,2,,,,,,,,,1,,,63,101
585120,note_on,433,0,4,,,,,,,,,3,,,45,101
585120,note_on,433,0,3,,,,,,,,,2,,,60,101
585120,note_on,0,0,2,,,,,,,,,1,,,66,101
585120,note_on,0,0,2,,,,,,,,,1,,,69,101
585167,note_on,47,0,3,,,,,,,,,2,,,60,0
585167,note_on,47,0,4,,,,,,,,,3,,,45,0
585167,note_on,0,0,2,,,,,,,,,1,,,63,0
585167,note_on,0,0,2,,,,,,,,,1,,,66,0
585167,note_on,47,0,2,,,,,,,,,1,,,69,0
585600,note_on,0,0,2,,,,,,,,,1,,,67,101
585600,note_on,0,0,2,,,,,,,,,1,,,70,101
585600,note_on,433,0,3,,,,,,,,,2,,,58,101
585600,note_on,433,0,4,,,,,,,,,3,,,43,101
585600,note_on,433,0,2,,,,,,,,,1,,,63,101
585647,note_on,47,0,4,,,,,,,,,3,,,43,0
585647,note_on,0,0,2,,,,,,,,,1,,,63,0
585647,note_on,0,0,2,,,,,,,,,1,,,67,0
585647,note_on,47,0,3,,,,,,,,,2,,,58,0
585647,note_on,47,0,2,,,,,,,,,1,,,70,0
586080,note_on,0,0,3,,,,,,,,,2,,,55,101
586080,note_on,2400,0,1,,,,,,,,,0,,,79,101
586080,note_on,433,0,4,,,,,,,,,3,,,41,101
586080,note_on,0,0,2,,,,,,,,,1,,,71,101
586080,note_on,0,0,2,,,,,,,,,1,,,67,101
586080,note_on,433,0,2,,,,,,,,,1,,,65,101
586080,note_on,0,0,3,,,,,,,,,2,,,59,101
586080,note_on,433,0,3,,,,,,,,,2,,,53,101
586127,note_on,47,0,1,,,,,,,,,0,,,79,0
586127,note_on,47,0,2,,,,,,,,,1,,,71,0
586127,note_on,47,0,3,,,,,,,,,2,,,59,0
586127,note_on,0,0,2,,,,,,,,,1,,,65,0
586127,note_on,0,0,2,,,,,,,,,1,,,67,0
586127,note_on,0,0,3,,,,,,,,,2,,,55,0
586127,note_on,0,0,3,,,,,,,,,2,,,53,0
586239,note_on,0,0,4,,,,,,,,,3,,,39,101
586239,note_on,159,0,4,,,,,,,,,3,,,41,0
586400,note_on,0,0,4,,,,,,,,,3,,,38,101
586400,note_on,161,0,4,,,,,,,,,3,,,39,0
586560,note_on,433,0,3,,,,,,,,,2,,,51,101
586560,note_on,433,0,1,,,,,,,,,0,,,75,101
586560,note_on,0,0,1,,,,,,,,,0,,,80,101
586560,note_on,0,0,3,,,,,,,,,2,,,56,101
586560,note_on,160,0,4,,,,,,,,,3,,,38,0
586560,note_on,0,0,2,,,,,,,,,1,,,72,101
586560,note_on,433,0,2,,,,,,,,,1,,,63,101
586560,note_on,0,0,4,,,,,,,,,3,,,36,101
586560,note_on,0,0,3,,,,,,,,,2,,,60,101
586560,note_on,0,0,2,,,,,,,,,1,,,68,101
587520,note_on,0,0,1,,,,,,,,,0,,,72,101
587520,note_on,0,0,1,,,,,,,,,0,,,68,101
587520,note_on,0,0,1,,,,,,,,,0,,,63,101
587520,note_on,960,0,3,,,,,,,,,2,,,60,0
587520,note_on,960,0,1,,,,,,,,,0,,,80,0
587520,note_on,960,0,2,,,,,,,,,1,,,72,0
587520,note_on,0,0,2,,,,,,,,,1,,,68,0
587520,note_on,0,0,2,,,,,,,,,1,,,63,0
587520,note_on,960,0,4,,,,,,,,,3,,,36,0
587520,note_on,0,0,3,,,,,,,,,2,,,56,0
587520,note_on,0,0,3,,,,,,,,,2,,,51,0
587520,note_on,0,0,1,,,,,,,,,0,,,75,0
588480,note_on,0,0,1,,,,,,,,,0,,,68,101
588480,note_on,0,0,1,,,,,,,,,0,,,68,0
588480,note_on,0,0,1,,,,,,,,,0,,,63,0
588480,note_on,960,0,1,,,,,,,,,0,,,72,0
588480,note_on,0,0,1,,,,,,,,,0,,,72,101
588480,note_on,0,0,1,,,,,,,,,0,,,75,101
588527,note_on,47,0,1,,,,,,,,,0,,,75,0
588527,note_on,0,0,1,,,,,,,,,0,,,72,0
588527,note_on,0,0,1,,,,,,,,,0,,,68,0
588960,note_on,433,0,1,,,,,,,,,0,,,72,101
588960,note_on,0,0,1,,,,,,,,,0,,,75,101
588960,note_on,0,0,1,,,,,,,,,0,,,80,101
589007,note_on,47,0,1,,,,,,,,,0,,,80,0
589007,note_on,0,0,1,,,,,,,,,0,,,75,0
589007,note_on,0,0,1,,,,,,,,,0,,,72,0
589440,note_on,0,0,1,,,,,,,,,0,,,80,101
589440,note_on,0,0,1,,,,,,,,,0,,,84,101
589440,note_on,433,0,1,,,,,,,,,0,,,75,101
589487,note_on,47,0,1,,,,,,,,,0,,,84,0
589487,note_on,0,0,1,,,,,,,,,0,,,80,0
589487,note_on,0,0,1,,,,,,,,,0,,,75,0
589920,note_on,433,0,1,,,,,,,,,0,,,72,101
589920,note_on,0,0,1,,,,,,,,,0,,,75,101
589920,note_on,0,0,1,,,,,,,,,0,,,80,101
589920,note_on,2400,0,2,,,,,,,,,1,,,60,101
589920,control_change,2400,0,4,,,,,,,,,3,64,127,,
589920,note_on,0,0,4,,,,,,,,,3,,,53,101
589920,note_on,2400,0,3,,,,,,,,,2,,,56,101
589967,note_on,0,0,1,,,,,,,,,0,,,75,0
589967,note_on,47,0,1,,,,,,,,,0,,,80,0
589967,note_on,0,0,1,,,,,,,,,0,,,72,0
590040,note_on,120,0,4,,,,,,,,,3,,,53,0
590040,note_on,0,0,4,,,,,,,,,3,,,51,101
590160,note_on,120,0,4,,,,,,,,,3,,,51,0
590160,note_on,0,0,4,,,,,,,,,3,,,50,101
590280,control_change,0,0,4,,,,,,,,,3,64,0,,
590280,note_on,120,0,4,,,,,,,,,3,,,50,0
590280,note_on,0,0,4,,,,,,,,,3,,,48,101
590400,note_on,0,0,4,,,,,,,,,3,,,47,127
590400,note_on,120,0,4,,,,,,,,,3,,,48,0
590400,note_on,480,0,3,,,,,,,,,2,,,56,0
590400,note_on,0,0,3,,,,,,,,,2,,,55,127
590400,note_on,480,0,2,,,,,,,,,1,,,60,0
590400,note_on,0,0,2,,,,,,,,,1,,,62,127
590400,note_on,433,0,1,,,,,,,,,0,,,74,127
590400,note_on,0,0,1,,,,,,,,,0,,,79,127
591360,note_on,0,0,4,,,,,,,,,3,,,46,127
591360,note_on,0,0,2,,,,,,,,,1,,,64,127
591360,note_on,0,0,2,,,,,,,,,1,,,61,127
591360,note_on,0,0,3,,,,,,,,,2,,,55,127
591360,note_on,960,0,3,,,,,,,,,2,,,55,0
591360,note_on,0,0,1,,,,,,,,,0,,,74,0
591360,note_on,960,0,2,,,,,,,,,1,,,62,0
591360,note_on,960,0,4,,,,,,,,,3,,,47,0
591360,note_on,960,0,1,,,,,,,,,0,,,79,0
592320,note_on,960,0,2,,,,,,,,,1,,,64,0
592320,note_on,0,0,3,,,,,,,,,2,,,56,101
592320,note_on,0,0,4,,,,,,,,,3,,,44,101
592320,note_on,0,0,2,,,,,,,,,1,,,61,0
592320,note_on,0,0,2,,,,,,,,,1,,,61,101
592320,note_on,0,0,2,,,,,,,,,1,,,65,101
592320,note_on,960,0,3,,,,,,,,,2,,,55,0
592320,note_on,960,0,4,,,,,,,,,3,,,46,0
592367,note_on,47,0,4,,,,,,,,,3,,,44,0
592367,note_on,47,0,2,,,,,,,,,1,,,65,0
592367,note_on,0,0,2,,,,,,,,,1,,,61,0
592367,note_on,47,0,3,,,,,,,,,2,,,56,0
592800,note_on,433,0,4,,,,,,,,,3,,,43,101
592800,note_on,0,0,2,,,,,,,,,1,,,67,101
592800,note_on,433,0,3,,,,,,,,,2,,,58,101
592800,note_on,433,0,2,,,,,,,,,1,,,61,101
592800,note_on,0,0,2,,,,,,,,,1,,,64,101
592847,note_on,0,0,2,,,,,,,,,1,,,64,0
592847,note_on,47,0,2,,,,,,,,,1,,,67,0
592847,note_on,0,0,2,,,,,,,,,1,,,61,0
592847,note_on,47,0,4,,,,,,,,,3,,,43,0
592847,note_on,47,0,3,,,,,,,,,2,,,58,0
593280,note_on,0,0,2,,,,,,,,,1,,,68,101
593280,note_on,433,0,2,,,,,,,,,1,,,61,101
593280,note_on,433,0,4,,,,,,,,,3,,,41,101
593280,note_on,433,0,3,,,,,,,,,2,,,56,101
593280,note_on,0,0,2,,,,,,,,,1,,,65,101
593327,note_on,47,0,4,,,,,,,,,3,,,41,0
593327,note_on,47,0,3,,,,,,,,,2,,,56,0
593327,note_on,0,0,2,,,,,,,,,1,,,61,0
593327,note_on,47,0,2,,,,,,,,,1,,,68,0
593327,note_on,0,0,2,,,,,,,,,1,,,65,0
593760,note_on,2400,0,1,,,,,,,,,0,,,77,101
593760,note_on,0,0,3,,,,,,,,,2,,,57,101
593760,note_on,0,0,3,,,,,,,,,2,,,53,101
593760,note_on,433,0,3,,,,,,,,,2,,,51,101
593760,note_on,433,0,4,,,,,,,,,3,,,39,101
593760,note_on,433,0,2,,,,,,,,,1,,,63,101
593760,note_on,0,0,2,,,,,,,,,1,,,65,101
593760,note_on,0,0,2,,,,,,,,,1,,,69,101
593807,note_on,0,0,3,,,,,,,,,2,,,51,0
593807,note_on,0,0,3,,,,,,,,,2,,,53,0
593807,note_on,47,0,3,,,,,,,,,2,,,57,0
593807,note_on,47,0,1,,,,,,,,,0,,,77,0
593807,note_on,47,0,2,,,,,,,,,1,,,69,0
593807,note_on,0,0,2,,,,,,,,,1,,,63,0
593807,note_on,0,0,2,,,,,,,,,1,,,65,0
593919,note_on,159,0,4,,,,,,,,,3,,,39,0
593919,note_on,0,0,4,,,,,,,,,3,,,37,101
594080,note_on,161,0,4,,,,,,,,,3,,,37,0
594080,note_on,0,0,4,,,,,,,,,3,,,35,101
594240,note_on,0,0,3,,,,,,,,,2,,,58,101
594240,note_on,433,0,1,,,,,,,,,0,,,73,101
594240,note_on,433,0,2,,,,,,,,,1,,,61,101
594240,note_on,0,0,2,,,,,,,,,1,,,66,101
594240,note_on,0,0,2,,,,,,,,,1,,,70,101
594240,note_on,0,0,1,,,,,,,,,0,,,78,101
594240,note_on,0,0,4,,,,,,,,,3,,,34,101
594240,note_on,160,0,4,,,,,,,,,3,,,35,0
594240,note_on,0,0,3,,,,,,,,,2,,,54,101
594240,note_on,433,0,3,,,,,,,,,2,,,49,101
595200,note_on,960,0,2,,,,,,,,,1,,,70,0
595200,note_on,0,0,2,,,,,,,,,1,,,66,0
595200,note_on,0,0,2,,,,,,,,,1,,,61,0
595200,note_on,960,0,1,,,,,,,,,0,,,78,0
595200,note_on,0,0,1,,,,,,,,,0,,,73,0
595200,note_on,0,0,3,,,,,,,,,2,,,54,0
595200,note_on,0,0,3,,,,,,,,,2,,,49,0
595200,note_on,0,0,1,,,,,,,,,0,,,61,101
595200,note_on,0,0,1,,,,,,,,,0,,,66,101
595200,note_on,0,0,1,,,,,,,,,0,,,70,101
595200,note_on,960,0,4,,,,,,,,,3,,,34,0
595200,note_on,960,0,3,,,,,,,,,2,,,58,0
596160,note_on,960,0,1,,,,,,,,,0,,,70,0
596160,note_on,0,0,1,,,,,,,,,0,,,66,0
596160,note_on,0,0,1,,,,,,,,,0,,,61,0
596160,note_on,0,0,1,,,,,,,,,0,,,66,101
596160,note_on,0,0,1,,,,,,,,,0,,,70,101
596160,note_on,0,0,1,,,,,,,,,0,,,73,101
596207,note_on,0,0,1,,,,,,,,,0,,,70,0
596207,note_on,47,0,1,,,,,,,,,0,,,73,0
596207,note_on,0,0,1,,,,,,,,,0,,,66,0
596640,note_on,433,0,1,,,,,,,,,0,,,70,101
596640,note_on,0,0,1,,,,,,,,,0,,,73,101
596640,note_on,0,0,1,,,,,,,,,0,,,78,101
596687,note_on,47,0,1,,,,,,,,,0,,,78,0
596687,note_on,0,0,1,,,,,,,,,0,,,73,0
596687,note_on,0,0,1,,,,,,,,,0,,,70,0
597120,note_on,433,0,1,,,,,,,,,0,,,73,101
597120,note_on,0,0,1,,,,,,,,,0,,,78,101
597120,note_on,0,0,1,,,,,,,,,0,,,82,101
597167,note_on,47,0,1,,,,,,,,,0,,,82,0
597167,note_on,0,0,1,,,,,,,,,0,,,73,0
597167,note_on,0,0,1,,,,,,,,,0,,,78,0
597600,note_on,2400,0,3,,,,,,,,,2,,,58,101
597600,note_on,0,0,1,,,,,,,,,0,,,78,101
597600,note_on,0,0,1,,,,,,,,,0,,,73,101
597600,note_on,433,0,1,,,,,,,,,0,,,70,101
597600,note_on,2400,0,4,,,,,,,,,3,,,46,101
597647,note_on,47,0,1,,,,,,,,,0,,,78,0
597647,note_on,0,0,1,,,,,,,,,0,,,73,0
597647,note_on,0,0,1,,,,,,,,,0,,,70,0
598080,note_on,0,0,3,,,,,,,,,2,,,57,88
598080,control_change,0,0,3,,,,,,,,,2,64,127,,
598080,note_on,480,0,4,,,,,,,,,3,,,46,0
598080,note_on,0,0,4,,,,,,,,,3,,,45,88
598080,note_on,433,0,1,,,,,,,,,0,,,72,101
598080,note_on,0,0,1,,,,,,,,,0,,,77,101
598080,note_on,480,0,3,,,,,,,,,2,,,58,0
598239,note_on,0,0,3,,,,,,,,,2,,,60,88
598239,note_on,159,0,3,,,,,,,,,2,,,57,0
598400,note_on,161,0,3,,,,,,,,,2,,,60,0
598400,note_on,0,0,3,,,,,,,,,2,,,58,88
598560,note_on,3360,0,2,,,,,,,,,1,,,60,101
598560,note_on,0,0,2,,,,,,,,,1,,,69,101
598560,note_on,0,0,3,,,,,,,,,2,,,57,88
598560,note_on,0,0,2,,,,,,,,,1,,,65,101
598560,note_on,160,0,3,,,,,,,,,2,,,58,0
598607,note_on,0,0,2,,,,,,,,,1,,,65,0
598607,note_on,0,0,2,,,,,,,,,1,,,60,0
598607,note_on,47,0,2,,,,,,,,,1,,,69,0
598719,note_on,0,0,3,,,,,,,,,2,,,55,88
598719,note_on,159,0,3,,,,,,,,,2,,,57,0
598880,note_on,0,0,3,,,,,,,,,2,,,54,88
598880,note_on,161,0,3,,,,,,,,,2,,,55,0
599040,note_on,960,0,4,,,,,,,,,3,,,45,0
599040,note_on,0,0,3,,,,,,,,,2,,,53,88
599040,note_on,160,0,3,,,,,,,,,2,,,54,0
599040,note_on,0,0,2,,,,,,,,,1,,,69,101
599040,note_on,0,0,2,,,,,,,,,1,,,72,101
599040,note_on,0,0,1,,,,,,,,,0,,,72,0
599040,note_on,960,0,1,,,,,,,,,0,,,77,0
599040,note_on,433,0,2,,,,,,,,,1,,,65,101
599087,note_on,0,0,2,,,,,,,,,1,,,65,0
599087,note_on,0,0,2,,,,,,,,,1,,,69,0
599087,note_on,47,0,2,,,,,,,,,1,,,72,0
599199,note_on,0,0,3,,,,,,,,,2,,,52,88
599199,note_on,159,0,3,,,,,,,,,2,,,53,0
599360,note_on,0,0,3,,,,,,,,,2,,,50,88
599360,note_on,161,0,3,,,,,,,,,2,,,52,0
599520,note_on,0,0,3,,,,,,,,,2,,,48,88
599520,note_on,480,0,1,,,,,,,,,0,,,89,101
599520,note_on,160,0,3,,,,,,,,,2,,,50,0
599520,note_on,0,0,2,,,,,,,,,1,,,77,101
599520,note_on,0,0,2,,,,,,,,,1,,,72,101
599520,note_on,480,0,4,,,,,,,,,3,,,33,88
599520,note_on,433,0,2,,,,,,,,,1,,,69,101
599567,note_on,0,0,2,,,,,,,,,1,,,69,0
599567,note_on,0,0,2,,,,,,,,,1,,,72,0
599567,note_on,47,0,2,,,,,,,,,1,,,77,0
599679,note_on,0,0,3,,,,,,,,,2,,,46,88
599679,note_on,159,0,3,,,,,,,,,2,,,48,0
599840,note_on,0,0,3,,,,,,,,,2,,,45,88
599840,control_change,0,0,3,,,,,,,,,2,64,0,,
599840,note_on,161,0,3,,,,,,,,,2,,,46,0
600000,note_on,0,0,3,,,,,,,,,2,,,43,88
600000,note_on,160,0,3,,,,,,,,,2,,,45,0
600000,note_on,480,0,4,,,,,,,,,3,,,33,0
600000,note_on,433,0,2,,,,,,,,,1,,,70,101
600000,note_on,0,0,4,,,,,,,,,3,,,31,88
600000,note_on,0,0,2,,,,,,,,,1,,,76,101
600000,control_change,0,0,1,,,,,,,,,0,64,127,,
600000,note_on,480,0,1,,,,,,,,,0,,,89,0
600000,note_on,0,0,1,,,,,,,,,0,,,88,101
600159,note_on,159,0,1,,,,,,,,,0,,,88,0
600159,note_on,0,0,1,,,,,,,,,0,,,91,101
600320,note_on,161,0,1,,,,,,,,,0,,,91,0
600320,note_on,0,0,1,,,,,,,,,0,,,89,101
600480,note_on,0,0,3,,,,,,,,,2,,,55,88
600480,note_on,160,0,1,,,,,,,,,0,,,89,0
600480,note_on,0,0,1,,,,,,,,,0,,,88,101
600480,note_on,480,0,3,,,,,,,,,2,,,43,0
600480,note_on,0,0,3,,,,,,,,,2,,,46,88
600480,note_on,0,0,3,,,,,,,,,2,,,52,88
600527,note_on,0,0,3,,,,,,,,,2,,,46,0
600527,note_on,47,0,3,,,,,,,,,2,,,55,0
600527,note_on,0,0,3,,,,,,,,,2,,,52,0
600639,note_on,159,0,1,,,,,,,,,0,,,88,0
600639,note_on,0,0,1,,,,,,,,,0,,,86,101
600800,note_on,161,0,1,,,,,,,,,0,,,86,0
600800,note_on,0,0,1,,,,,,,,,0,,,85,101
600960,note_on,960,0,4,,,,,,,,,3,,,31,0
600960,note_on,433,0,3,,,,,,,,,2,,,52,88
600960,note_on,0,0,3,,,,,,,,,2,,,55,88
600960,note_on,0,0,3,,,,,,,,,2,,,58,88
600960,note_on,160,0,1,,,,,,,,,0,,,85,0
600960,note_on,0,0,1,,,,,,,,,0,,,84,101
600960,note_on,960,0,2,,,,,,,,,1,,,76,0
600960,note_on,0,0,2,,,,,,,,,1,,,70,0
601007,note_on,47,0,3,,,,,,,,,2,,,58,0
601007,note_on,0,0,3,,,,,,,,,2,,,55,0
601007,note_on,0,0,3,,,,,,,,,2,,,52,0
601119,note_on,159,0,1,,,,,,,,,0,,,84,0
601119,note_on,0,0,1,,,,,,,,,0,,,82,101
601280,note_on,161,0,1,,,,,,,,,0,,,82,0
601280,note_on,0,0,1,,,,,,,,,0,,,81,101
601440,note_on,0,0,1,,,,,,,,,0,,,79,101
601440,note_on,480,0,4,,,,,,,,,3,,,43,88
601440,note_on,0,0,3,,,,,,,,,2,,,64,88
601440,note_on,0,0,3,,,,,,,,,2,,,58,88
601440,note_on,433,0,3,,,,,,,,,2,,,55,88
601440,note_on,480,0,2,,,,,,,,,1,,,70,101
601440,note_on,160,0,1,,,,,,,,,0,,,81,0
601487,note_on,0,0,3,,,,,,,,,2,,,55,0
601487,note_on,0,0,3,,,,,,,,,2,,,58,0
601487,note_on,47,0,3,,,,,,,,,2,,,64,0
601599,note_on,0,0,1,,,,,,,,,0,,,77,101
601599,note_on,159,0,1,,,,,,,,,0,,,79,0
601760,note_on,161,0,1,,,,,,,,,0,,,77,0
601760,note_on,0,0,1,,,,,,,,,0,,,76,101
601920,note_on,0,0,3,,,,,,,,,2,,,53,88
601920,control_change,433,0,3,,,,,,,,,2,64,127,,
601920,note_on,0,0,1,,,,,,,,,0,,,74,127
601920,note_on,0,0,4,,,,,,,,,3,,,41,88
601920,note_on,480,0,4,,,,,,,,,3,,,43,0
601920,note_on,0,0,2,,,,,,,,,1,,,69,101
601920,note_on,480,0,2,,,,,,,,,1,,,70,0
601920,control_change,0,0,1,,,,,,,,,0,64,0,,
601920,note_on,160,0,1,,,,,,,,,0,,,76,0
602079,note_on,159,0,3,,,,,,,,,2,,,53,0
602079,note_on,0,0,3,,,,,,,,,2,,,57,88
602240,note_on,161,0,3,,,,,,,,,2,,,57,0
602240,note_on,0,0,3,,,,,,,,,2,,,55,88
602400,note_on,0,0,2,,,,,,,,,1,,,62,101
602400,note_on,0,0,2,,,,,,,,,1,,,65,101
602400,note_on,480,0,2,,,,,,,,,1,,,69,0
602400,note_on,160,0,3,,,,,,,,,2,,,55,0
602400,note_on,0,0,2,,,,,,,,,1,,,57,101
602400,note_on,0,0,3,,,,,,,,,2,,,53,88
602447,note_on,0,0,2,,,,,,,,,1,,,62,0
602447,note_on,0,0,2,,,,,,,,,1,,,57,0
602447,note_on,47,0,2,,,,,,,,,1,,,65,0
602559,note_on,0,0,3,,,,,,,,,2,,,52,88
602559,note_on,159,0,3,,,,,,,,,2,,,53,0
602720,note_on,0,0,3,,,,,,,,,2,,,51,88
602720,note_on,161,0,3,,,,,,,,,2,,,52,0
602880,note_on,0,0,3,,,,,,,,,2,,,50,88
602880,note_on,960,0,4,,,,,,,,,3,,,41,0
602880,note_on,0,0,2,,,,,,,,,1,,,69,101
602880,note_on,0,0,2,,,,,,,,,1,,,65,101
602880,note_on,433,0,2,,,,,,,,,1,,,62,101
602880,note_on,160,0,3,,,,,,,,,2,,,51,0
602880,note_on,960,0,1,,,,,,,,,0,,,74,0
602927,note_on,0,0,2,,,,,,,,,1,,,65,0
602927,note_on,47,0,2,,,,,,,,,1,,,69,0
602927,note_on,0,0,2,,,,,,,,,1,,,62,0
603039,note_on,159,0,3,,,,,,,,,2,,,50,0
603039,note_on,0,0,3,,,,,,,,,2,,,48,88
603200,note_on,161,0,3,,,,,,,,,2,,,48,0
603200,note_on,0,0,3,,,,,,,,,2,,,46,88
603360,note_on,0,0,3,,,,,,,,,2,,,45,88
603360,note_on,160,0,3,,,,,,,,,2,,,46,0
603360,note_on,433,0,2,,,,,,,,,1,,,65,101
603360,note_on,0,0,2,,,,,,,,,1,,,69,101
603360,note_on,0,0,2,,,,,,,,,1,,,74,101
603360,note_on,480,0,1,,,,,,,,,0,,,86,101
603360,note_on,480,0,4,,,,,,,,,3,,,29,88
603407,note_on,0,0,2,,,,,,,,,1,,,65,0
603407,note_on,0,0,2,,,,,,,,,1,,,69,0
603407,note_on,47,0,2,,,,,,,,,1,,,74,0
603407,note_on,47,0,1,,,,,,,,,0,,,86,0
603519,note_on,0,0,3,,,,,,,,,2,,,43,88
603519,note_on,159,0,3,,,,,,,,,2,,,45,0
603680,note_on,161,0,3,,,,,,,,,2,,,43,0
603680,note_on,0,0,3,,,,,,,,,2,,,41,88
603840,note_on,0,0,4,,,,,,,,,3,,,28,88
603840,control_change,433,0,1,,,,,,,,,0,64,127,,
603840,note_on,0,0,1,,,,,,,,,0,,,84,101
603840,note_on,0,0,3,,,,,,,,,2,,,40,88
603840,note_on,433,0,2,,,,,,,,,1,,,67,101
603840,control_change,0,0,3,,,,,,,,,2,64,0,,
603840,note_on,0,0,2,,,,,,,,,1,,,72,101
603840,note_on,480,0,4,,,,,,,,,3,,,29,0
603840,note_on,160,0,3,,,,,,,,,2,,,41,0
603999,note_on,0,0,1,,,,,,,,,0,,,88,101
603999,note_on,159,0,1,,,,,,,,,0,,,84,0
604160,note_on,0,0,1,,,,,,,,,0,,,86,101
604160,note_on,161,0,1,,,,,,,,,0,,,88,0
604320,note_on,160,0,1,,,,,,,,,0,,,86,0
604320,note_on,480,0,3,,,,,,,,,2,,,40,0
604320,note_on,0,0,3,,,,,,,,,2,,,52,88
604320,note_on,0,0,3,,,,,,,,,2,,,55,88
604320,note_on,0,0,1,,,,,,,,,0,,,84,101
604320,note_on,0,0,3,,,,,,,,,2,,,48,88
604367,note_on,47,0,3,,,,,,,,,2,,,55,0
604367,note_on,0,0,3,,,,,,,,,2,,,52,0
604367,note_on,0,0,3,,,,,,,,,2,,,48,0
604479,note_on,159,0,1,,,,,,,,,0,,,84,0
604479,note_on,0,0,1,,,,,,,,,0,,,83,101
604640,note_on,0,0,1,,,,,,,,,0,,,81,101
604640,note_on,161,0,1,,,,,,,,,0,,,83,0
604800,note_on,433,0,3,,,,,,,,,2,,,52,88
604800,note_on,0,0,1,,,,,,,,,0,,,79,101
604800,note_on,160,0,1,,,,,,,,,0,,,81,0
604800,note_on,0,0,2,,,,,,,,,1,,,67,0
604800,note_on,960,0,2,,,,,,,,,1,,,72,0
604800,note_on,960,0,4,,,,,,,,,3,,,28,0
604800,note_on,0,0,3,,,,,,,,,2,,,60,88
604800,note_on,0,0,3,,,,,,,,,2,,,55,88
604847,note_on,47,0,3,,,,,,,,,2,,,60,0
604847,note_on,0,0,3,,,,,,,,,2,,,55,0
604847,note_on,0,0,3,,,,,,,,,2,,,52,0
604959,note_on,0,0,1,,,,,,,,,0,,,78,101
604959,note_on,159,0,1,,,,,,,,,0,,,79,0
605120,note_on,0,0,1,,,,,,,,,0,,,77,101
605120,note_on,161,0,1,,,,,,,,,0,,,78,0
605280,note_on,433,0,3,,,,,,,,,2,,,55,88
605280,note_on,160,0,1,,,,,,,,,0,,,77,0
605280,note_on,0,0,3,,,,,,,,,2,,,60,88
605280,note_on,480,0,4,,,,,,,,,3,,,40,88
605280,note_on,0,0,4,,,,,,,,,3,,,52,88
605280,note_on,0,0,3,,,,,,,,,2,,,64,88
605280,note_on,480,0,2,,,,,,,,,1,,,67,101
605280,note_on,0,0,1,,,,,,,,,0,,,76,101
605327,note_on,0,0,3,,,,,,,,,2,,,60,0
605327,note_on,0,0,3,,,,,,,,,2,,,55,0
605327,note_on,47,0,3,,,,,,,,,2,,,64,0
605439,note_on,159,0,1,,,,,,,,,0,,,76,0
605439,note_on,0,0,1,,,,,,,,,0,,,74,101
605600,note_on,0,0,1,,,,,,,,,0,,,72,101
605600,note_on,161,0,1,,,,,,,,,0,,,74,0
605760,control_change,0,0,1,,,,,,,,,0,64,0,,
605760,note_on,0,0,3,,,,,,,,,2,,,62,88
605760,control_change,433,0,3,,,,,,,,,2,64,127,,
605760,note_on,0,0,2,,,,,,,,,1,,,65,101
605760,note_on,480,0,4,,,,,,,,,3,,,52,0
605760,note_on,0,0,4,,,,,,,,,3,,,40,0
605760,note_on,0,0,4,,,,,,,,,3,,,38,88
605760,note_on,0,0,4,,,,,,,,,3,,,50,88
605760,note_on,0,0,1,,,,,,,,,0,,,70,127
605760,note_on,160,0,1,,,,,,,,,0,,,72,0
605760,note_on,480,0,2,,,,,,,,,1,,,67,0
605807,note_on,47,0,1,,,,,,,,,0,,,70,0
605919,note_on,159,0,3,,,,,,,,,2,,,62,0
605919,note_on,0,0,3,,,,,,,,,2,,,65,88
606080,note_on,161,0,3,,,,,,,,,2,,,65,0
606080,note_on,0,0,3,,,,,,,,,2,,,64,88
606240,note_on,160,0,3,,,,,,,,,2,,,64,0
606240,note_on,480,0,2,,,,,,,,,1,,,65,0
606240,note_on,0,0,3,,,,,,,,,2,,,62,88
606240,note_on,0,0,2,,,,,,,,,1,,,70,101
606240,note_on,0,0,2,,,,,,,,,1,,,65,101
606240,note_on,433,0,1,,,,,,,,,0,,,74,101
606287,note_on,47,0,1,,,,,,,,,0,,,74,0
606287,note_on,0,0,2,,,,,,,,,1,,,65,0
606287,note_on,47,0,2,,,,,,,,,1,,,70,0
606399,note_on,159,0,3,,,,,,,,,2,,,62,0
606399,note_on,0,0,3,,,,,,,,,2,,,60,88
606560,note_on,0,0,3,,,,,,,,,2,,,59,88
606560,note_on,161,0,3,,,,,,,,,2,,,60,0
606720,note_on,160,0,3,,,,,,,,,2,,,59,0
606720,note_on,0,0,4,,,,,,,,,3,,,38,0
606720,note_on,0,0,2,,,,,,,,,1,,,74,101
606720,note_on,0,0,3,,,,,,,,,2,,,58,88
606720,note_on,960,0,4,,,,,,,,,3,,,50,0
606720,note_on,433,0,2,,,,,,,,,1,,,70,101
606720,note_on,433,0,1,,,,,,,,,0,,,77,101
606767,note_on,47,0,1,,,,,,,,,0,,,77,0
606767,note_on,47,0,2,,,,,,,,,1,,,74,0
606767,note_on,0,0,2,,,,,,,,,1,,,70,0
606879,note_on,0,0,3,,,,,,,,,2,,,57,88
606879,note_on,159,0,3,,,,,,,,,2,,,58,0
607040,note_on,0,0,3,,,,,,,,,2,,,55,88
607040,note_on,161,0,3,,,,,,,,,2,,,57,0
607200,note_on,0,0,3,,,,,,,,,2,,,53,88
607200,note_on,160,0,3,,,,,,,,,2,,,55,0
607200,note_on,480,0,4,,,,,,,,,3,,,38,88
607200,note_on,433,0,1,,,,,,,,,0,,,82,101
607200,note_on,433,0,2,,,,,,,,,1,,,74,101
607200,note_on,0,0,2,,,,,,,,,1,,,77,101
607247,note_on,0,0,2,,,,,,,,,1,,,74,0
607247,note_on,47,0,1,,,,,,,,,0,,,82,0
607247,note_on,47,0,2,,,,,,,,,1,,,77,0
607359,note_on,159,0,3,,,,,,,,,2,,,53,0
607359,note_on,0,0,3,,,,,,,,,2,,,52,88
607520,note_on,0,0,3,,,,,,,,,2,,,50,88
607520,control_change,0,0,3,,,,,,,,,2,64,0,,
607520,note_on,161,0,3,,,,,,,,,2,,,52,0
607680,control_change,433,0,2,,,,,,,,,1,64,127,,
607680,note_on,0,0,2,,,,,,,,,1,,,69,88
607680,note_on,0,0,1,,,,,,,,,0,,,81,88
607680,control_change,433,0,1,,,,,,,,,0,64,127,,
607680,note_on,0,0,3,,,,,,,,,2,,,51,88
607680,note_on,480,0,4,,,,,,,,,3,,,38,0
607680,note_on,160,0,3,,,,,,,,,2,,,50,0
607680,note_on,0,0,4,,,,,,,,,3,,,39,88
607839,note_on,0,0,1,,,,,,,,,0,,,84,88
607839,note_on,159,0,1,,,,,,,,,0,,,81,0
607839,note_on,0,0,2,,,,,,,,,1,,,72,88
607839,note_on,159,0,2,,,,,,,,,1,,,69,0
608000,note_on,0,0,1,,,,,,,,,0,,,83,88
608000,note_on,161,0,1,,,,,,,,,0,,,84,0
608000,note_on,0,0,2,,,,,,,,,1,,,71,88
608000,note_on,161,0,2,,,,,,,,,1,,,72,0
608160,note_on,0,0,1,,,,,,,,,0,,,86,101
608160,note_on,160,0,1,,,,,,,,,0,,,83,0
608160,note_on,0,0,3,,,,,,,,,2,,,52,88
608160,note_on,480,0,3,,,,,,,,,2,,,51,0
608160,note_on,0,0,2,,,,,,,,,1,,,74,101
608160,note_on,160,0,2,,,,,,,,,1,,,71,0
608160,note_on,0,0,3,,,,,,,,,2,,,57,88
608160,note_on,0,0,4,,,,,,,,,3,,,40,88
608160,note_on,0,0,3,,,,,,,,,2,,,60,88
608160,note_on,480,0,4,,,,,,,,,3,,,39,0
608319,note_on,159,0,2,,,,,,,,,1,,,74,0
608319,note_on,0,0,2,,,,,,,,,1,,,72,101
608319,note_on,0,0,1,,,,,,,,,0,,,84,101
608319,note_on,159,0,1,,,,,,,,,0,,,86,0
608480,note_on,0,0,1,,,,,,,,,0,,,83,101
608480,note_on,161,0,1,,,,,,,,,0,,,84,0
608480,note_on,161,0,2,,,,,,,,,1,,,72,0
608480,note_on,0,0,2,,,,,,,,,1,,,71,101
608640,note_on,0,0,1,,,,,,,,,0,,,81,101
608640,note_on,160,0,1,,,,,,,,,0,,,83,0
608640,note_on,480,0,3,,,,,,,,,2,,,60,0
608640,note_on,0,0,2,,,,,,,,,1,,,69,101
608640,note_on,160,0,2,,,,,,,,,1,,,71,0
608640,note_on,0,0,3,,,,,,,,,2,,,60,114
608640,note_on,480,0,4,,,,,,,,,3,,,40,0
608640,note_on,0,0,3,,,,,,,,,2,,,57,0
608640,note_on,0,0,3,,,,,,,,,2,,,52,0
608640,note_on,0,0,3,,,,,,,,,2,,,53,114
608640,note_on,0,0,3,,,,,,,,,2,,,57,114
608640,note_on,0,0,4,,,,,,,,,3,,,41,88
608799,note_on,0,0,1,,,,,,,,,0,,,80,101
608799,note_on,159,0,1,,,,,,,,,0,,,81,0
608799,note_on,0,0,2,,,,,,,,,1,,,68,101
608799,note_on,159,0,2,,,,,,,,,1,,,69,0
608960,note_on,0,0,2,,,,,,,,,1,,,67,101
608960,note_on,161,0,2,,,,,,,,,1,,,68,0
608960,note_on,161,0,1,,,,,,,,,0,,,80,0
608960,note_on,0,0,1,,,,,,,,,0,,,79,101
609120,note_on,160,0,1,,,,,,,,,0,,,79,0
609120,note_on,0,0,1,,,,,,,,,0,,,77,88
609120,note_on,0,0,2,,,,,,,,,1,,,65,88
609120,note_on,160,0,2,,,,,,,,,1,,,67,0
609279,note_on,0,0,1,,,,,,,,,0,,,76,88
609279,note_on,0,0,2,,,,,,,,,1,,,64,88
609279,note_on,159,0,2,,,,,,,,,1,,,65,0
609279,note_on,159,0,1,,,,,,,,,0,,,77,0
609440,note_on,0,0,1,,,,,,,,,0,,,75,88
609440,note_on,0,0,2,,,,,,,,,1,,,63,88
609440,control_change,0,0,2,,,,,,,,,1,64,0,,
609440,note_on,161,0,2,,,,,,,,,1,,,64,0
609440,note_on,161,0,1,,,,,,,,,0,,,76,0
609440,control_change,0,0,1,,,,,,,,,0,64,0,,
609600,note_on,0,0,2,,,,,,,,,1,,,64,88
609600,note_on,160,0,2,,,,,,,,,1,,,63,0
609600,note_on,160,0,1,,,,,,,,,0,,,75,0
609600,note_on,0,0,1,,,,,,,,,0,,,76,88
609600,note_on,0,0,3,,,,,,,,,2,,,53,0
609600,note_on,0,0,3,,,,,,,,,2,,,59,88
609600,note_on,960,0,3,,,,,,,,,2,,,60,0
609600,note_on,960,0,4,,,,,,,,,3,,,41,0
609600,note_on,0,0,4,,,,,,,,,3,,,40,75
609600,note_on,0,0,1,,,,,,,,,0,,,88,88
609600,note_on,0,0,3,,,,,,,,,2,,,56,88
609600,note_on,0,0,3,,,,,,,,,2,,,57,0
609840,note_on,240,0,4,,,,,,,,,3,,,40,0
609840,note_on,0,0,4,,,,,,,,,3,,,52,75
609840,note_on,0,0,2,,,,,,,,,1,,,66,88
609840,note_on,240,0,2,,,,,,,,,1,,,64,0
610080,note_on,0,0,2,,,,,,,,,1,,,68,88
610080,note_on,0,0,4,,,,,,,,,3,,,40,75
610080,note_on,240,0,4,,,,,,,,,3,,,52,0
610080,note_on,240,0,2,,,,,,,,,1,,,66,0
610080,note_on,0,0,3,,,,,,,,,2,,,56,0
610080,note_on,480,0,3,,,,,,,,,2,,,59,0
610320,note_on,240,0,2,,,,,,,,,1,,,68,0
610320,note_on,0,0,2,,,,,,,,,1,,,69,88
610320,note_on,240,0,4,,,,,,,,,3,,,40,0
610320,note_on,0,0,4,,,,,,,,,3,,,52,75
610560,note_on,240,0,4,,,,,,,,,3,,,52,0
610560,note_on,0,0,4,,,,,,,,,3,,,40,75
610560,note_on,0,0,2,,,,,,,,,1,,,68,88
610560,note_on,240,0,2,,,,,,,,,1,,,69,0
610800,note_on,0,0,2,,,,,,,,,1,,,69,88
610800,note_on,240,0,4,,,,,,,,,3,,,40,0
610800,note_on,0,0,4,,,,,,,,,3,,,52,75
610800,note_on,240,0,2,,,,,,,,,1,,,68,0
611040,note_on,240,0,2,,,,,,,,,1,,,69,0
611040,note_on,0,0,2,,,,,,,,,1,,,71,88
611040,note_on,240,0,4,,,,,,,,,3,,,52,0
611040,note_on,1440,0,1,,,,,,,,,0,,,88,0
611040,note_on,0,0,1,,,,,,,,,0,,,76,0
611040,note_on,0,0,1,,,,,,,,,0,,,77,88
611040,note_on,0,0,1,,,,,,,,,0,,,89,88
611040,note_on,0,0,4,,,,,,,,,3,,,40,75
611280,note_on,0,0,4,,,,,,,,,3,,,52,75
611280,note_on,0,0,2,,,,,,,,,1,,,72,88
611280,note_on,240,0,2,,,,,,,,,1,,,71,0
611280,note_on,240,0,4,,,,,,,,,3,,,40,0
611520,note_on,1440,0,3,,,,,,,,,2,,,57,88
611520,note_on,0,0,3,,,,,,,,,2,,,60,88
611520,note_on,240,0,2,,,,,,,,,1,,,72,0
611520,note_on,0,0,4,,,,,,,,,3,,,40,75
611520,note_on,0,0,2,,,,,,,,,1,,,74,88
611520,note_on,0,0,1,,,,,,,,,0,,,89,114
611520,note_on,0,0,1,,,,,,,,,0,,,77,0
611520,note_on,480,0,1,,,,,,,,,0,,,89,0
611520,note_on,240,0,4,,,,,,,,,3,,,52,0
611520,note_on,0,0,1,,,,,,,,,0,,,77,114
611760,note_on,240,0,4,,,,,,,,,3,,,40,0
611760,note_on,0,0,4,,,,,,,,,3,,,52,75
611760,note_on,0,0,2,,,,,,,,,1,,,72,88
611760,note_on,240,0,2,,,,,,,,,1,,,74,0
612000,note_on,0,0,2,,,,,,,,,1,,,71,88
612000,note_on,240,0,2,,,,,,,,,1,,,72,0
612000,note_on,240,0,4,,,,,,,,,3,,,52,0
612000,note_on,0,0,1,,,,,,,,,0,,,74,88
612000,note_on,0,0,1,,,,,,,,,0,,,77,0
612000,note_on,480,0,1,,,,,,,,,0,,,89,0
612000,note_on,0,0,4,,,,,,,,,3,,,40,75
612000,note_on,0,0,1,,,,,,,,,0,,,86,88
612240,note_on,240,0,2,,,,,,,,,1,,,71,0
612240,note_on,240,0,4,,,,,,,,,3,,,40,0
612240,note_on,0,0,4,,,,,,,,,3,,,52,75
612240,note_on,0,0,2,,,,,,,,,1,,,72,88
612480,note_on,0,0,4,,,,,,,,,3,,,40,75
612480,note_on,240,0,4,,,,,,,,,3,,,52,0
612480,note_on,0,0,1,,,,,,,,,0,,,74,0
612480,note_on,0,0,2,,,,,,,,,1,,,74,88
612480,note_on,240,0,2,,,,,,,,,1,,,72,0
612480,note_on,480,0,1,,,,,,,,,0,,,86,0
612720,note_on,0,0,4,,,,,,,,,3,,,52,75
612720,note_on,240,0,4,,,,,,,,,3,,,40,0
612720,note_on,0,0,2,,,,,,,,,1,,,72,88
612720,note_on,240,0,2,,,,,,,,,1,,,74,0
612960,note_on,240,0,4,,,,,,,,,3,,,52,0
612960,note_on,0,0,2,,,,,,,,,1,,,71,88
612960,note_on,240,0,2,,,,,,,,,1,,,72,0
612960,note_on,0,0,4,,,,,,,,,3,,,40,75
612960,note_on,0,0,3,,,,,,,,,2,,,62,88
612960,note_on,0,0,3,,,,,,,,,2,,,57,0
612960,note_on,1440,0,3,,,,,,,,,2,,,60,0
612960,note_on,0,0,3,,,,,,,,,2,,,59,88
613200,note_on,0,0,2,,,,,,,,,1,,,69,88
613200,note_on,240,0,4,,,,,,,,,3,,,40,0
613200,note_on,0,0,4,,,,,,,,,3,,,52,75
613200,note_on,240,0,2,,,,,,,,,1,,,71,0
613440,note_on,0,0,3,,,,,,,,,2,,,62,114
613440,note_on,960,0,1,,,,,,,,,0,,,74,88
613440,note_on,0,0,1,,,,,,,,,0,,,86,88
613440,note_on,0,0,2,,,,,,,,,1,,,68,88
613440,note_on,480,0,3,,,,,,,,,2,,,62,0
613440,note_on,0,0,4,,,,,,,,,3,,,40,75
613440,note_on,240,0,4,,,,,,,,,3,,,52,0
613440,note_on,0,0,3,,,,,,,,,2,,,59,0
613440,note_on,240,0,2,,,,,,,,,1,,,69,0
613440,note_on,0,0,3,,,,,,,,,2,,,59,114
613680,note_on,0,0,2,,,,,,,,,1,,,64,88
613680,note_on,240,0,2,,,,,,,,,1,,,68,0
613680,note_on,0,0,4,,,,,,,,,3,,,52,75
613680,note_on,240,0,4,,,,,,,,,3,,,40,0
613920,note_on,0,0,3,,,,,,,,,2,,,59,88
613920,note_on,0,0,2,,,,,,,,,1,,,66,88
613920,note_on,240,0,2,,,,,,,,,1,,,64,0
613920,note_on,0,0,3,,,,,,,,,2,,,56,88
613920,note_on,240,0,4,,,,,,,,,3,,,52,0
613920,note_on,480,0,3,,,,,,,,,2,,,62,0
613920,note_on,0,0,3,,,,,,,,,2,,,59,0
613920,note_on,0,0,4,,,,,,,,,3,,,40,75
614160,note_on,240,0,4,,,,,,,,,3,,,40,0
614160,note_on,0,0,2,,,,,,,,,1,,,68,88
614160,note_on,240,0,2,,,,,,,,,1,,,66,0
614160,note_on,0,0,4,,,,,,,,,3,,,52,75
614400,note_on,240,0,4,,,,,,,,,3,,,52,0
614400,note_on,0,0,4,,,,,,,,,3,,,40,75
614400,note_on,240,0,2,,,,,,,,,1,,,68,0
614400,note_on,480,0,3,,,,,,,,,2,,,59,0
614400,note_on,0,0,3,,,,,,,,,2,,,56,0
614400,note_on,0,0,2,,,,,,,,,1,,,66,88
614640,note_on,240,0,4,,,,,,,,,3,,,40,0
614640,note_on,0,0,4,,,,,,,,,3,,,52,75
614640,note_on,240,0,2,,,,,,,,,1,,,66,0
614640,note_on,0,0,2,,,,,,,,,1,,,68,88
614880,note_on,240,0,2,,,,,,,,,1,,,68,0
614880,note_on,1440,0,1,,,,,,,,,0,,,86,0
614880,note_on,240,0,4,,,,,,,,,3,,,52,0
614880,note_on,0,0,4,,,,,,,,,3,,,40,75
614880,note_on,0,0,2,,,,,,,,,1,,,69,88
614880,note_on,0,0,1,,,,,,,,,0,,,74,0
614880,note_on,0,0,1,,,,,,,,,0,,,76,88
614880,note_on,0,0,1,,,,,,,,,0,,,88,88
615120,note_on,0,0,4,,,,,,,,,3,,,52,75
615120,note_on,240,0,2,,,,,,,,,1,,,69,0
615120,note_on,0,0,2,,,,,,,,,1,,,71,88
615120,note_on,240,0,4,,,,,,,,,3,,,40,0
615360,note_on,0,0,1,,,,,,,,,0,,,76,0
615360,note_on,0,0,1,,,,,,,,,0,,,76,114
615360,note_on,0,0,2,,,,,,,,,1,,,72,88
615360,note_on,0,0,4,,,,,,,,,3,,,40,75
615360,note_on,240,0,4,,,,,,,,,3,,,52,0
615360,note_on,0,0,1,,,,,,,,,0,,,88,114
615360,note_on,240,0,2,,,,,,,,,1,,,71,0
615360,note_on,960,0,3,,,,,,,,,2,,,56,88
615360,note_on,0,0,3,,,,,,,,,2,,,59,88
615360,note_on,480,0,1,,,,,,,,,0,,,88,0
615600,note_on,240,0,2,,,,,,,,,1,,,72,0
615600,note_on,240,0,4,,,,,,,,,3,,,40,0
615600,note_on,0,0,4,,,,,,,,,3,,,52,75
615600,note_on,0,0,2,,,,,,,,,1,,,71,88
615840,note_on,0,0,1,,,,,,,,,0,,,72,88
615840,note_on,0,0,1,,,,,,,,,0,,,76,0
615840,note_on,480,0,1,,,,,,,,,0,,,88,0
615840,note_on,0,0,1,,,,,,,,,0,,,84,88
615840,note_on,0,0,2,,,,,,,,,1,,,69,88
615840,note_on,240,0,2,,,,,,,,,1,,,71,0
615840,note_on,240,0,4,,,,,,,,,3,,,52,0
615840,note_on,0,0,4,,,,,,,,,3,,,40,75
616080,note_on,0,0,2,,,,,,,,,1,,,71,88
616080,note_on,240,0,2,,,,,,,,,1,,,69,0
616080,note_on,0,0,4,,,,,,,,,3,,,52,75
616080,note_on,240,0,4,,,,,,,,,3,,,40,0
616320,note_on,0,0,1,,,,,,,,,0,,,72,0
616320,note_on,0,0,2,,,,,,,,,1,,,72,88
616320,note_on,240,0,2,,,,,,,,,1,,,71,0
616320,note_on,480,0,1,,,,,,,,,0,,,84,0
616320,note_on,0,0,4,,,,,,,,,3,,,40,75
616320,note_on,240,0,4,,,,,,,,,3,,,52,0
616560,note_on,0,0,4,,,,,,,,,3,,,52,75
616560,note_on,240,0,4,,,,,,,,,3,,,40,0
616560,note_on,0,0,2,,,,,,,,,1,,,71,88
616560,note_on,240,0,2,,,,,,,,,1,,,72,0
616800,note_on,0,0,3,,,,,,,,,2,,,56,0
616800,note_on,1440,0,3,,,,,,,,,2,,,59,0
616800,note_on,0,0,3,,,,,,,,,2,,,60,88
616800,note_on,0,0,2,,,,,,,,,1,,,69,88
616800,note_on,240,0,2,,,,,,,,,1,,,71,0
616800,note_on,0,0,3,,,,,,,,,2,,,57,88
616800,note_on,240,0,4,,,,,,,,,3,,,52,0
616800,note_on,0,0,4,,,,,,,,,3,,,40,75
617040,note_on,0,0,2,,,,,,,,,1,,,68,88
617040,note_on,240,0,2,,,,,,,,,1,,,69,0
617040,note_on,240,0,4,,,,,,,,,3,,,40,0
617040,note_on,0,0,4,,,,,,,,,3,,,52,75
617280,note_on,240,0,4,,,,,,,,,3,,,52,0
617280,note_on,0,0,3,,,,,,,,,2,,,60,114
617280,note_on,0,0,3,,,,,,,,,2,,,57,0
617280,note_on,480,0,3,,,,,,,,,2,,,60,0
617280,note_on,960,0,1,,,,,,,,,0,,,72,88
617280,note_on,0,0,3,,,,,,,,,2,,,57,114
617280,note_on,0,0,1,,,,,,,,,0,,,84,88
617280,note_on,0,0,4,,,,,,,,,3,,,40,75
617280,note_on,0,0,2,,,,,,,,,1,,,66,88
617280,note_on,240,0,2,,,,,,,,,1,,,68,0
617520,note_on,240,0,4,,,,,,,,,3,,,40,0
617520,note_on,0,0,2,,,,,,,,,1,,,63,88
617520,note_on,240,0,2,,,,,,,,,1,,,66,0
617520,note_on,0,0,4,,,,,,,,,3,,,52,75
617760,note_on,0,0,2,,,,,,,,,1,,,64,88
617760,note_on,240,0,2,,,,,,,,,1,,,63,0
617760,note_on,240,0,4,,,,,,,,,3,,,52,0
617760,note_on,0,0,3,,,,,,,,,2,,,57,0
617760,note_on,0,0,3,,,,,,,,,2,,,54,88
617760,note_on,0,0,3,,,,,,,,,2,,,57,88
617760,note_on,0,0,4,,,,,,,,,3,,,40,75
617760,note_on,480,0,3,,,,,,,,,2,,,60,0
618000,note_on,0,0,4,,,,,,,,,3,,,52,75
618000,note_on,0,0,2,,,,,,,,,1,,,66,88
618000,note_on,240,0,2,,,,,,,,,1,,,64,0
618000,note_on,240,0,4,,,,,,,,,3,,,40,0
618240,note_on,0,0,2,,,,,,,,,1,,,64,88
618240,note_on,240,0,4,,,,,,,,,3,,,52,0
618240,note_on,0,0,4,,,,,,,,,3,,,40,75
618240,note_on,480,0,3,,,,,,,,,2,,,57,0
618240,note_on,0,0,3,,,,,,,,,2,,,54,0
618240,note_on,240,0,2,,,,,,,,,1,,,66,0
618480,note_on,240,0,4,,,,,,,,,3,,,40,0
618480,note_on,0,0,2,,,,,,,,,1,,,66,88
618480,note_on,240,0,2,,,,,,,,,1,,,64,0
618480,note_on,0,0,4,,,,,,,,,3,,,52,75
618720,note_on,240,0,2,,,,,,,,,1,,,66,0
618720,note_on,0,0,2,,,,,,,,,1,,,68,88
618720,note_on,0,0,1,,,,,,,,,0,,,86,88
618720,note_on,0,0,1,,,,,,,,,0,,,72,0
618720,note_on,1440,0,1,,,,,,,,,0,,,84,0
618720,note_on,240,0,4,,,,,,,,,3,,,52,0
618720,note_on,0,0,4,,,,,,,,,3,,,40,75
618720,note_on,0,0,1,,,,,,,,,0,,,74,88
618960,note_on,0,0,4,,,,,,,,,3,,,52,75
618960,note_on,240,0,4,,,,,,,,,3,,,40,0
618960,note_on,240,0,2,,,,,,,,,1,,,68,0
618960,note_on,0,0,2,,,,,,,,,1,,,69,88
619200,note_on,480,0,1,,,,,,,,,0,,,86,0
619200,note_on,0,0,1,,,,,,,,,0,,,74,0
619200,note_on,0,0,1,,,,,,,,,0,,,74,114
619200,note_on,0,0,3,,,,,,,,,2,,,57,114
619200,note_on,0,0,1,,,,,,,,,0,,,86,114
619200,note_on,0,0,2,,,,,,,,,1,,,69,88
619200,note_on,240,0,2,,,,,,,,,1,,,69,0
619200,note_on,240,0,4,,,,,,,,,3,,,52,0
619200,note_on,0,0,4,,,,,,,,,3,,,40,75
619200,note_on,960,0,3,,,,,,,,,2,,,54,114
619440,note_on,0,0,2,,,,,,,,,1,,,68,88
619440,note_on,240,0,4,,,,,,,,,3,,,40,0
619440,note_on,0,0,4,,,,,,,,,3,,,52,75
619440,note_on,240,0,2,,,,,,,,,1,,,69,0
619680,note_on,0,0,1,,,,,,,,,0,,,74,0
619680,note_on,480,0,1,,,,,,,,,0,,,86,0
619680,note_on,0,0,1,,,,,,,,,0,,,71,88
619680,note_on,0,0,3,,,,,,,,,2,,,54,0
619680,note_on,0,0,1,,,,,,,,,0,,,83,88
619680,note_on,0,0,4,,,,,,,,,3,,,40,75
619680,note_on,480,0,3,,,,,,,,,2,,,57,0
619680,note_on,0,0,3,,,,,,,,,2,,,56,88
619680,note_on,0,0,3,,,,,,,,,2,,,59,88
619680,note_on,0,0,2,,,,,,,,,1,,,66,88
619680,note_on,240,0,2,,,,,,,,,1,,,68,0
619680,note_on,240,0,4,,,,,,,,,3,,,52,0
619920,note_on,240,0,2,,,,,,,,,1,,,66,0
619920,note_on,0,0,4,,,,,,,,,3,,,52,75
619920,note_on,240,0,4,,,,,,,,,3,,,40,0
619920,note_on,0,0,2,,,,,,,,,1,,,68,88
620160,note_on,480,0,3,,,,,,,,,2,,,59,0
620160,note_on,0,0,3,,,,,,,,,2,,,56,0
620160,note_on,0,0,1,,,,,,,,,0,,,71,114
620160,note_on,0,0,1,,,,,,,,,0,,,83,114
620160,note_on,0,0,2,,,,,,,,,1,,,64,88
620160,note_on,240,0,2,,,,,,,,,1,,,68,0
620160,note_on,0,0,1,,,,,,,,,0,,,71,0
620160,note_on,0,0,3,,,,,,,,,2,,,56,114
620160,note_on,0,0,3,,,,,,,,,2,,,59,114
620160,note_on,480,0,1,,,,,,,,,0,,,83,0
620160,note_on,240,0,4,,,,,,,,,3,,,52,0
620160,note_on,0,0,4,,,,,,,,,3,,,40,75
620400,note_on,240,0,4,,,,,,,,,3,,,40,0
620400,note_on,0,0,4,,,,,,,,,3,,,52,75
620400,note_on,0,0,2,,,,,,,,,1,,,66,88
620400,note_on,240,0,2,,,,,,,,,1,,,64,0
620640,note_on,0,0,3,,,,,,,,,2,,,56,0
620640,note_on,480,0,3,,,,,,,,,2,,,59,0
620640,note_on,0,0,3,,,,,,,,,2,,,52,88
620640,note_on,0,0,2,,,,,,,,,1,,,68,88
620640,note_on,240,0,2,,,,,,,,,1,,,66,0
620640,note_on,0,0,3,,,,,,,,,2,,,56,88
620640,note_on,0,0,1,,,,,,,,,0,,,72,88
620640,note_on,480,0,1,,,,,,,,,0,,,83,0
620640,note_on,0,0,1,,,,,,,,,0,,,71,0
620640,note_on,240,0,4,,,,,,,,,3,,,52,0
620640,note_on,0,0,4,,,,,,,,,3,,,40,75
620640,note_on,0,0,1,,,,,,,,,0,,,84,88
620880,note_on,0,0,2,,,,,,,,,1,,,69,88
620880,note_on,240,0,2,,,,,,,,,1,,,68,0
620880,note_on,240,0,4,,,,,,,,,3,,,40,0
620880,note_on,0,0,4,,,,,,,,,3,,,52,75
621120,note_on,0,0,3,,,,,,,,,2,,,52,62
621120,note_on,0,0,3,,,,,,,,,2,,,52,0
621120,note_on,480,0,3,,,,,,,,,2,,,56,0
621120,note_on,0,0,1,,,,,,,,,0,,,84,101
621120,note_on,480,0,1,,,,,,,,,0,,,84,0
621120,note_on,0,0,1,,,,,,,,,0,,,72,0
621120,note_on,0,0,4,,,,,,,,,3,,,40,62
621120,note_on,240,0,2,,,,,,,,,1,,,69,0
621120,note_on,0,0,2,,,,,,,,,1,,,71,62
621120,note_on,0,0,3,,,,,,,,,2,,,56,62
621120,note_on,240,0,4,,,,,,,,,3,,,52,0
621360,note_on,240,0,2,,,,,,,,,1,,,71,0
621360,note_on,0,0,2,,,,,,,,,1,,,72,62
621600,note_on,0,0,2,,,,,,,,,1,,,74,62
621600,note_on,240,0,2,,,,,,,,,1,,,72,0
621600,note_on,480,0,3,,,,,,,,,2,,,56,0
621600,note_on,0,0,3,,,,,,,,,2,,,52,0
621600,note_on,0,0,3,,,,,,,,,2,,,53,75
621600,note_on,0,0,3,,,,,,,,,2,,,57,75
621600,note_on,0,0,1,,,,,,,,,0,,,81,75
621600,note_on,480,0,1,,,,,,,,,0,,,84,0
621600,note_on,0,0,4,,,,,,,,,3,,,40,75
621600,note_on,480,0,4,,,,,,,,,3,,,40,0
621840,note_on,0,0,2,,,,,,,,,1,,,75,62
621840,note_on,240,0,2,,,,,,,,,1,,,74,0
622080,note_on,0,0,4,,,,,,,,,3,,,40,88
622080,note_on,480,0,4,,,,,,,,,3,,,40,0
622080,note_on,480,0,1,,,,,,,,,0,,,81,0
622080,note_on,0,0,1,,,,,,,,,0,,,81,114
622080,note_on,0,0,3,,,,,,,,,2,,,57,88
622080,note_on,480,0,3,,,,,,,,,2,,,57,0
622080,note_on,0,0,3,,,,,,,,,2,,,53,0
622080,note_on,0,0,3,,,,,,,,,2,,,52,88
622080,note_on,0,0,2,,,,,,,,,1,,,76,75
622080,note_on,240,0,2,,,,,,,,,1,,,75,0
622320,note_on,0,0,2,,,,,,,,,1,,,77,75
622320,note_on,240,0,2,,,,,,,,,1,,,76,0
622560,note_on,0,0,3,,,,,,,,,2,,,57,101
622560,note_on,0,0,3,,,,,,,,,2,,,52,0
622560,note_on,480,0,3,,,,,,,,,2,,,57,0
622560,note_on,0,0,3,,,,,,,,,2,,,51,101
622560,note_on,0,0,2,,,,,,,,,1,,,78,75
622560,note_on,0,0,1,,,,,,,,,0,,,83,88
622560,note_on,480,0,4,,,,,,,,,3,,,40,0
622560,note_on,0,0,4,,,,,,,,,3,,,40,101
622560,note_on,240,0,2,,,,,,,,,1,,,77,0
622560,note_on,480,0,1,,,,,,,,,0,,,81,0
622800,note_on,0,0,2,,,,,,,,,1,,,81,75
622800,note_on,240,0,2,,,,,,,,,1,,,78,0
623040,note_on,0,0,3,,,,,,,,,2,,,56,114
623040,control_change,0,0,3,,,,,,,,,2,64,127,,
623040,note_on,0,0,3,,,,,,,,,2,,,51,0
623040,note_on,480,0,3,,,,,,,,,2,,,57,0
623040,note_on,480,0,4,,,,,,,,,3,,,40,0
623040,note_on,0,0,4,,,,,,,,,3,,,52,114
623040,note_on,240,0,2,,,,,,,,,1,,,81,0
623040,note_on,0,0,2,,,,,,,,,1,,,76,88
623040,note_on,0,0,1,,,,,,,,,0,,,76,114
623040,note_on,480,0,1,,,,,,,,,0,,,83,0
623040,note_on,0,0,4,,,,,,,,,3,,,40,114
623280,note_on,240,0,3,,,,,,,,,2,,,56,0
623280,note_on,0,0,1,,,,,,,,,0,,,88,88
623280,note_on,0,0,3,,,,,,,,,2,,,54,88
623280,note_on,240,0,1,,,,,,,,,0,,,76,0
623520,note_on,0,0,1,,,,,,,,,0,,,76,88
623520,note_on,240,0,3,,,,,,,,,2,,,54,0
623520,note_on,0,0,3,,,,,,,,,2,,,56,88
623520,note_on,240,0,1,,,,,,,,,0,,,88,0
623760,note_on,0,0,3,,,,,,,,,2,,,57,88
623760,note_on,240,0,1,,,,,,,,,0,,,76,0
623760,note_on,0,0,1,,,,,,,,,0,,,88,88
623760,note_on,240,0,3,,,,,,,,,2,,,56,0
624000,note_on,240,0,1,,,,,,,,,0,,,88,0
624000,note_on,0,0,3,,,,,,,,,2,,,56,88
624000,note_on,240,0,3,,,,,,,,,2,,,57,0
624000,note_on,0,0,1,,,,,,,,,0,,,76,88
624000,note_on,960,0,2,,,,,,,,,1,,,76,0
624240,note_on,240,0,3,,,,,,,,,2,,,56,0
624240,note_on,0,0,3,,,,,,,,,2,,,57,88
624240,note_on,0,0,1,,,,,,,,,0,,,88,88
624240,note_on,240,0,1,,,,,,,,,0,,,76,0
624480,note_on,0,0,4,,,,,,,,,3,,,41,88
624480,note_on,0,0,4,,,,,,,,,3,,,53,88
624480,note_on,0,0,3,,,,,,,,,2,,,59,88
624480,note_on,240,0,1,,,,,,,,,0,,,88,0
624480,note_on,0,0,4,,,,,,,,,3,,,40,0
624480,note_on,240,0,3,,,,,,,,,2,,,57,0
624480,note_on,0,0,1,,,,,,,,,0,,,76,88
624480,note_on,1440,0,4,,,,,,,,,3,,,52,0
624720,note_on,240,0,1,,,,,,,,,0,,,76,0
624720,note_on,240,0,3,,,,,,,,,2,,,59,0
624720,control_change,0,0,3,,,,,,,,,2,64,0,,
624720,note_on,0,0,3,,,,,,,,,2,,,60,88
624720,note_on,0,0,1,,,,,,,,,0,,,88,88
624960,note_on,240,0,3,,,,,,,,,2,,,60,0
624960,control_change,0,0,3,,,,,,,,,2,64,127,,
624960,note_on,0,0,3,,,,,,,,,2,,,62,88
624960,note_on,0,0,1,,,,,,,,,0,,,76,88
624960,note_on,240,0,1,,,,,,,,,0,,,88,0
624960,note_on,960,0,2,,,,,,,,,1,,,69,88
624960,note_on,0,0,2,,,,,,,,,1,,,72,88
624960,note_on,480,0,4,,,,,,,,,3,,,53,0
624960,note_on,0,0,4,,,,,,,,,3,,,41,0
624960,note_on,0,0,4,,,,,,,,,3,,,41,114
624960,note_on,0,0,4,,,,,,,,,3,,,53,114
625200,note_on,240,0,1,,,,,,,,,0,,,76,0
625200,note_on,0,0,1,,,,,,,,,0,,,88,88
625200,note_on,240,0,3,,,,,,,,,2,,,62,0
625200,note_on,0,0,3,,,,,,,,,2,,,60,88
625440,note_on,240,0,3,,,,,,,,,2,,,60,0
625440,note_on,0,0,4,,,,,,,,,3,,,50,88
625440,note_on,0,0,4,,,,,,,,,3,,,38,88
625440,note_on,0,0,4,,,,,,,,,3,,,41,0
625440,note_on,480,0,4,,,,,,,,,3,,,53,0
625440,note_on,240,0,1,,,,,,,,,0,,,88,0
625440,note_on,0,0,3,,,,,,,,,2,,,59,88
625440,note_on,0,0,1,,,,,,,,,0,,,76,88
625680,note_on,240,0,1,,,,,,,,,0,,,76,0
625680,note_on,240,0,3,,,,,,,,,2,,,59,0
625680,note_on,0,0,3,,,,,,,,,2,,,60,88
625680,note_on,0,0,1,,,,,,,,,0,,,88,88
625920,note_on,0,0,4,,,,,,,,,3,,,38,0
625920,note_on,480,0,4,,,,,,,,,3,,,50,0
625920,note_on,0,0,3,,,,,,,,,2,,,62,88
625920,note_on,240,0,1,,,,,,,,,0,,,88,0
625920,note_on,240,0,3,,,,,,,,,2,,,60,0
625920,note_on,0,0,1,,,,,,,,,0,,,76,88
626160,note_on,240,0,3,,,,,,,,,2,,,62,0
626160,note_on,0,0,1,,,,,,,,,0,,,88,88
626160,note_on,0,0,3,,,,,,,,,2,,,60,88
626160,note_on,240,0,1,,,,,,,,,0,,,76,0
626400,note_on,1440,0,2,,,,,,,,,1,,,72,0
626400,note_on,0,0,2,,,,,,,,,1,,,69,0
626400,note_on,240,0,1,,,,,,,,,0,,,88,0
626400,note_on,0,0,2,,,,,,,,,1,,,71,88
626400,note_on,240,0,3,,,,,,,,,2,,,60,0
626400,note_on,0,0,3,,,,,,,,,2,,,59,88
626400,note_on,0,0,1,,,,,,,,,0,,,76,88
626400,note_on,0,0,2,,,,,,,,,1,,,74,88
626640,note_on,240,0,3,,,,,,,,,2,,,59,0
626640,control_change,0,0,3,,,,,,,,,2,64,0,,
626640,note_on,0,0,3,,,,,,,,,2,,,57,88
626640,note_on,240,0,1,,,,,,,,,0,,,76,0
626640,note_on,0,0,1,,,,,,,,,0,,,88,88
626880,note_on,0,0,2,,,,,,,,,1,,,74,114
626880,note_on,0,0,2,,,,,,,,,1,,,71,114
626880,note_on,0,0,2,,,,,,,,,1,,,71,0
626880,note_on,480,0,2,,,,,,,,,1,,,74,0
626880,note_on,0,0,1,,,,,,,,,0,,,76,88
626880,note_on,240,0,1,,,,,,,,,0,,,88,0
626880,note_on,0,0,4,,,,,,,,,3,,,50,88
626880,note_on,960,0,4,,,,,,,,,3,,,38,88
626880,note_on,240,0,3,,,,,,,,,2,,,57,0
626880,control_change,0,0,3,,,,,,,,,2,64,127,,
626880,note_on,0,0,3,,,,,,,,,2,,,56,88
627120,note_on,0,0,1,,,,,,,,,0,,,88,88
627120,note_on,240,0,1,,,,,,,,,0,,,76,0
627120,note_on,0,0,3,,,,,,,,,2,,,52,88
627120,note_on,240,0,3,,,,,,,,,2,,,56,0
627360,note_on,0,0,2,,,,,,,,,1,,,71,0
627360,note_on,0,0,2,,,,,,,,,1,,,68,88
627360,note_on,0,0,2,,,,,,,,,1,,,71,88
627360,note_on,240,0,1,,,,,,,,,0,,,88,0
627360,note_on,0,0,1,,,,,,,,,0,,,76,88
627360,note_on,240,0,3,,,,,,,,,2,,,52,0
627360,note_on,480,0,2,,,,,,,,,1,,,74,0
627360,note_on,0,0,3,,,,,,,,,2,,,54,88
627600,note_on,240,0,3,,,,,,,,,2,,,54,0
627600,note_on,0,0,1,,,,,,,,,0,,,88,88
627600,note_on,240,0,1,,,,,,,,,0,,,76,0
627600,note_on,0,0,3,,,,,,,,,2,,,56,88
627840,note_on,480,0,2,,,,,,,,,1,,,71,0
627840,note_on,0,0,2,,,,,,,,,1,,,68,0
627840,note_on,0,0,3,,,,,,,,,2,,,54,88
627840,note_on,240,0,1,,,,,,,,,0,,,88,0
627840,note_on,0,0,1,,,,,,,,,0,,,76,88
627840,note_on,240,0,3,,,,,,,,,2,,,56,0
628080,note_on,240,0,3,,,,,,,,,2,,,54,0
628080,note_on,240,0,1,,,,,,,,,0,,,76,0
628080,note_on,0,0,3,,,,,,,,,2,,,56,88
628080,note_on,0,0,1,,,,,,,,,0,,,88,88
628320,note_on,240,0,3,,,,,,,,,2,,,56,0
628320,note_on,0,0,3,,,,,,,,,2,,,57,88
628320,note_on,0,0,4,,,,,,,,,3,,,38,0
628320,note_on,240,0,1,,,,,,,,,0,,,88,0
628320,note_on,1440,0,4,,,,,,,,,3,,,50,0
628320,note_on,0,0,4,,,,,,,,,3,,,40,88
628320,note_on,0,0,4,,,,,,,,,3,,,52,88
628320,note_on,0,0,1,,,,,,,,,0,,,76,88
628560,note_on,240,0,1,,,,,,,,,0,,,76,0
628560,note_on,0,0,1,,,,,,,,,0,,,88,88
628560,note_on,240,0,3,,,,,,,,,2,,,57,0
628560,control_change,0,0,3,,,,,,,,,2,64,0,,
628560,note_on,0,0,3,,,,,,,,,2,,,59,88
628800,note_on,480,0,4,,,,,,,,,3,,,52,0
628800,note_on,0,0,4,,,,,,,,,3,,,40,114
628800,note_on,0,0,4,,,,,,,,,3,,,52,114
628800,note_on,0,0,1,,,,,,,,,0,,,76,88
628800,note_on,240,0,1,,,,,,,,,0,,,88,0
628800,control_change,0,0,3,,,,,,,,,2,64,127,,
628800,note_on,960,0,2,,,,,,,,,1,,,68,88
628800,note_on,240,0,3,,,,,,,,,2,,,59,0
628800,note_on,0,0,3,,,,,,,,,2,,,60,88
628800,note_on,0,0,4,,,,,,,,,3,,,40,0
628800,note_on,0,0,2,,,,,,,,,1,,,71,88
629040,note_on,240,0,1,,,,,,,,,0,,,76,0
629040,note_on,0,0,1,,,,,,,,,0,,,88,88
629040,note_on,0,0,3,,,,,,,,,2,,,59,88
629040,note_on,240,0,3,,,,,,,,,2,,,60,0
629280,note_on,240,0,1,,,,,,,,,0,,,88,0
629280,note_on,0,0,3,,,,,,,,,2,,,57,88
629280,note_on,480,0,4,,,,,,,,,3,,,52,0
629280,note_on,240,0,3,,,,,,,,,2,,,59,0
629280,note_on,0,0,1,,,,,,,,,0,,,76,88
629280,note_on,0,0,4,,,,,,,,,3,,,40,0
629280,note_on,0,0,4,,,,,,,,,3,,,36,88
629280,note_on,0,0,4,,,,,,,,,3,,,48,88
629520,note_on,240,0,1,,,,,,,,,0,,,76,0
629520,note_on,0,0,1,,,,,,,,,0,,,88,88
629520,note_on,240,0,3,,,,,,,,,2,,,57,0
629520,note_on,0,0,3,,,,,,,,,2,,,59,88
629760,note_on,240,0,1,,,,,,,,,0,,,88,0
629760,note_on,0,0,4,,,,,,,,,3,,,36,0
629760,note_on,0,0,3,,,,,,,,,2,,,60,88
629760,note_on,240,0,3,,,,,,,,,2,,,59,0
629760,note_on,480,0,4,,,,,,,,,3,,,48,0
629760,note_on,0,0,1,,,,,,,,,0,,,76,88
630000,note_on,0,0,1,,,,,,,,,0,,,88,88
630000,note_on,240,0,3,,,,,,,,,2,,,60,0
630000,note_on,0,0,3,,,,,,,,,2,,,59,88
630000,note_on,240,0,1,,,,,,,,,0,,,76,0
630240,note_on,240,0,1,,,,,,,,,0,,,88,0
630240,note_on,0,0,2,,,,,,,,,1,,,69,88
630240,note_on,0,0,3,,,,,,,,,2,,,57,88
630240,note_on,240,0,3,,,,,,,,,2,,,59,0
630240,note_on,0,0,1,,,,,,,,,0,,,76,88
630240,note_on,1440,0,2,,,,,,,,,1,,,71,0
630240,note_on,0,0,2,,,,,,,,,1,,,68,0
630240,note_on,0,0,2,,,,,,,,,1,,,72,88
630480,control_change,0,0,3,,,,,,,,,2,64,0,,
630480,note_on,240,0,3,,,,,,,,,2,,,57,0
630480,note_on,0,0,1,,,,,,,,,0,,,88,88
630480,note_on,0,0,3,,,,,,,,,2,,,56,88
630480,note_on,240,0,1,,,,,,,,,0,,,76,0
630720,note_on,0,0,4,,,,,,,,,3,,,48,88
630720,note_on,480,0,2,,,,,,,,,1,,,72,0
630720,note_on,0,0,1,,,,,,,,,0,,,76,88
630720,note_on,240,0,1,,,,,,,,,0,,,88,0
630720,note_on,960,0,4,,,,,,,,,3,,,36,88
630720,note_on,0,0,3,,,,,,,,,2,,,54,88
630720,note_on,240,0,3,,,,,,,,,2,,,56,0
630720,note_on,0,0,2,,,,,,,,,1,,,69,0
630720,note_on,0,0,2,,,,,,,,,1,,,69,114
630720,note_on,0,0,2,,,,,,,,,1,,,72,114
630960,note_on,0,0,1,,,,,,,,,0,,,88,88
630960,note_on,240,0,1,,,,,,,,,0,,,76,0
630960,note_on,0,0,3,,,,,,,,,2,,,51,88
630960,note_on,240,0,3,,,,,,,,,2,,,54,0
631200,note_on,0,0,2,,,,,,,,,1,,,69,0
631200,note_on,480,0,2,,,,,,,,,1,,,72,0
631200,note_on,240,0,3,,,,,,,,,2,,,51,0
631200,note_on,0,0,3,,,,,,,,,2,,,52,88
631200,note_on,0,0,1,,,,,,,,,0,,,76,88
631200,note_on,0,0,2,,,,,,,,,1,,,66,88
631200,note_on,0,0,2,,,,,,,,,1,,,69,88
631200,note_on,240,0,1,,,,,,,,,0,,,88,0
631440,note_on,0,0,3,,,,,,,,,2,,,54,88
631440,note_on,0,0,1,,,,,,,,,0,,,88,88
631440,note_on,240,0,3,,,,,,,,,2,,,52,0
631440,note_on,240,0,1,,,,,,,,,0,,,76,0
631680,note_on,240,0,1,,,,,,,,,0,,,88,0
631680,note_on,0,0,1,,,,,,,,,0,,,76,88
631680,note_on,240,0,3,,,,,,,,,2,,,54,0
631680,note_on,480,0,2,,,,,,,,,1,,,69,0
631680,note_on,0,0,2,,,,,,,,,1,,,66,0
631680,note_on,0,0,3,,,,,,,,,2,,,52,88
631920,note_on,0,0,1,,,,,,,,,0,,,88,88
631920,note_on,240,0,1,,,,,,,,,0,,,76,0
631920,note_on,0,0,3,,,,,,,,,2,,,54,88
631920,note_on,240,0,3,,,,,,,,,2,,,52,0
632160,note_on,0,0,4,,,,,,,,,3,,,36,0
632160,note_on,0,0,1,,,,,,,,,0,,,76,88
632160,note_on,240,0,1,,,,,,,,,0,,,88,0
632160,note_on,0,0,3,,,,,,,,,2,,,56,88
632160,note_on,0,0,4,,,,,,,,,3,,,38,88
632160,note_on,240,0,3,,,,,,,,,2,,,54,0
632160,note_on,0,0,4,,,,,,,,,3,,,50,88
632160,note_on,1440,0,4,,,,,,,,,3,,,48,0
632400,note_on,240,0,1,,,,,,,,,0,,,76,0
632400,note_on,0,0,3,,,,,,,,,2,,,57,88
632400,note_on,240,0,3,,,,,,,,,2,,,56,0
632400,note_on,0,0,1,,,,,,,,,0,,,88,88
632640,note_on,480,0,4,,,,,,,,,3,,,50,0
632640,note_on,0,0,3,,,,,,,,,2,,,57,88
632640,note_on,240,0,3,,,,,,,,,2,,,57,0
632640,note_on,0,0,4,,,,,,,,,3,,,38,114
632640,note_on,0,0,4,,,,,,,,,3,,,50,114
632640,note_on,0,0,4,,,,,,,,,3,,,38,0
632640,note_on,960,0,2,,,,,,,,,1,,,66,114
632640,note_on,0,0,2,,,,,,,,,1,,,69,114
632640,note_on,240,0,1,,,,,,,,,0,,,88,0
632640,note_on,0,0,1,,,,,,,,,0,,,76,88
632880,note_on,240,0,1,,,,,,,,,0,,,76,0
632880,note_on,0,0,1,,,,,,,,,0,,,88,88
632880,note_on,0,0,3,,,,,,,,,2,,,56,88
632880,note_on,240,0,3,,,,,,,,,2,,,57,0
633120,note_on,240,0,1,,,,,,,,,0,,,88,0
633120,note_on,0,0,1,,,,,,,,,0,,,76,88
633120,note_on,0,0,4,,,,,,,,,3,,,35,88
633120,note_on,0,0,2,,,,,,,,,1,,,68,88
633120,note_on,240,0,3,,,,,,,,,2,,,56,0
633120,note_on,0,0,4,,,,,,,,,3,,,47,88
633120,note_on,480,0,4,,,,,,,,,3,,,50,0
633120,note_on,0,0,4,,,,,,,,,3,,,38,0
633120,note_on,480,0,2,,,,,,,,,1,,,69,0
633120,note_on,0,0,2,,,,,,,,,1,,,66,0
633120,note_on,0,0,3,,,,,,,,,2,,,54,88
633120,note_on,0,0,2,,,,,,,,,1,,,71,88
633360,note_on,0,0,1,,,,,,,,,0,,,88,88
633360,note_on,240,0,1,,,,,,,,,0,,,76,0
633360,note_on,240,0,3,,,,,,,,,2,,,54,0
633360,note_on,0,0,3,,,,,,,,,2,,,56,88
633600,note_on,0,0,2,,,,,,,,,1,,,68,114
633600,note_on,480,0,2,,,,,,,,,1,,,71,0
633600,note_on,0,0,2,,,,,,,,,1,,,68,0
633600,note_on,0,0,2,,,,,,,,,1,,,71,114
633600,note_on,240,0,1,,,,,,,,,0,,,88,0
633600,note_on,0,0,4,,,,,,,,,3,,,35,0
633600,note_on,480,0,4,,,,,,,,,3,,,47,0
633600,note_on,0,0,1,,,,,,,,,0,,,76,88
633600,note_on,0,0,3,,,,,,,,,2,,,52,88
633600,note_on,240,0,3,,,,,,,,,2,,,56,0
633600,note_on,0,0,4,,,,,,,,,3,,,47,114
633600,note_on,0,0,4,,,,,,,,,3,,,35,114
633840,note_on,240,0,3,,,,,,,,,2,,,52,0
633840,note_on,0,0,3,,,,,,,,,2,,,54,88
633840,note_on,240,0,1,,,,,,,,,0,,,76,0
633840,note_on,0,0,1,,,,,,,,,0,,,88,88
634080,note_on,0,0,4,,,,,,,,,3,,,35,0
634080,note_on,0,0,2,,,,,,,,,1,,,68,88
634080,note_on,0,0,2,,,,,,,,,1,,,64,88
634080,note_on,480,0,4,,,,,,,,,3,,,47,0
634080,note_on,0,0,2,,,,,,,,,1,,,68,0
634080,note_on,480,0,2,,,,,,,,,1,,,71,0
634080,note_on,0,0,4,,,,,,,,,3,,,36,88
634080,note_on,0,0,1,,,,,,,,,0,,,76,88
634080,note_on,240,0,1,,,,,,,,,0,,,88,0
634080,note_on,0,0,3,,,,,,,,,2,,,56,88
634080,note_on,240,0,3,,,,,,,,,2,,,54,0
634080,note_on,0,0,4,,,,,,,,,3,,,48,88
634320,note_on,0,0,3,,,,,,,,,2,,,57,88
634320,note_on,0,0,1,,,,,,,,,0,,,88,88
634320,note_on,240,0,1,,,,,,,,,0,,,76,0
634320,note_on,240,0,3,,,,,,,,,2,,,56,0
634560,note_on,240,0,3,,,,,,,,,2,,,57,0
634560,note_on,0,0,3,,,,,,,,,2,,,59,88
634560,note_on,480,0,2,,,,,,,,,1,,,68,0
634560,note_on,0,0,2,,,,,,,,,1,,,68,88
634560,note_on,0,0,2,,,,,,,,,1,,,64,88
634560,note_on,480,0,4,,,,,,,,,3,,,48,0
634560,note_on,0,0,4,,,,,,,,,3,,,36,0
634560,note_on,0,0,4,,,,,,,,,3,,,36,114
634560,note_on,0,0,4,,,,,,,,,3,,,48,114
634560,note_on,240,0,1,,,,,,,,,0,,,88,0
634560,note_on,0,0,1,,,,,,,,,0,,,76,88
634560,note_on,0,0,2,,,,,,,,,1,,,64,0
634800,note_on,240,0,1,,,,,,,,,0,,,76,0
634800,note_on,0,0,1,,,,,,,,,0,,,88,88
634800,note_on,0,0,3,,,,,,,,,2,,,60,88
634800,note_on,240,0,3,,,,,,,,,2,,,59,0
635040,note_on,240,0,1,,,,,,,,,0,,,88,0
635040,note_on,0,0,3,,,,,,,,,2,,,48,88
635040,note_on,0,0,1,,,,,,,,,0,,,76,88
635040,note_on,0,0,2,,,,,,,,,1,,,69,88
635040,note_on,0,0,2,,,,,,,,,1,,,64,0
635040,note_on,480,0,2,,,,,,,,,1,,,68,0
635040,note_on,0,0,2,,,,,,,,,1,,,65,88
635040,note_on,240,0,3,,,,,,,,,2,,,60,0
635040,note_on,480,0,4,,,,,,,,,3,,,48,0
635040,note_on,0,0,4,,,,,,,,,3,,,36,0
635040,note_on,0,0,4,,,,,,,,,3,,,33,88
635040,note_on,0,0,4,,,,,,,,,3,,,45,88
635280,note_on,0,0,1,,,,,,,,,0,,,88,88
635280,note_on,240,0,3,,,,,,,,,2,,,48,0
635280,note_on,0,0,3,,,,,,,,,2,,,50,88
635280,note_on,240,0,1,,,,,,,,,0,,,76,0
635520,note_on,240,0,3,,,,,,,,,2,,,50,0
635520,note_on,240,0,1,,,,,,,,,0,,,88,0
635520,note_on,0,0,1,,,,,,,,,0,,,76,88
635520,note_on,0,0,2,,,,,,,,,1,,,65,0
635520,note_on,0,0,2,,,,,,,,,1,,,64,88
635520,note_on,0,0,2,,,,,,,,,1,,,69,88
635520,note_on,0,0,3,,,,,,,,,2,,,52,88
635520,note_on,480,0,2,,,,,,,,,1,,,69,0
635520,note_on,480,0,4,,,,,,,,,3,,,45,0
635520,note_on,0,0,4,,,,,,,,,3,,,33,0
635520,note_on,0,0,4,,,,,,,,,3,,,33,114
635520,note_on,0,0,4,,,,,,,,,3,,,45,114
635760,note_on,0,0,3,,,,,,,,,2,,,53,88
635760,note_on,240,0,3,,,,,,,,,2,,,52,0
635760,note_on,240,0,1,,,,,,,,,0,,,76,0
635760,note_on,0,0,1,,,,,,,,,0,,,88,88
636000,note_on,480,0,2,,,,,,,,,1,,,69,0
636000,note_on,0,0,1,,,,,,,,,0,,,75,88
636000,note_on,480,0,4,,,,,,,,,3,,,45,0
636000,note_on,0,0,4,,,,,,,,,3,,,33,0
636000,note_on,0,0,4,,,,,,,,,3,,,35,88
636000,note_on,240,0,1,,,,,,,,,0,,,88,0
636000,note_on,0,0,2,,,,,,,,,1,,,63,88
636000,note_on,0,0,2,,,,,,,,,1,,,69,88
636000,note_on,0,0,4,,,,,,,,,3,,,47,88
636000,note_on,240,0,3,,,,,,,,,2,,,53,0
636000,note_on,0,0,3,,,,,,,,,2,,,54,88
636000,note_on,0,0,2,,,,,,,,,1,,,64,0
636240,note_on,0,0,3,,,,,,,,,2,,,57,88
636240,note_on,0,0,1,,,,,,,,,0,,,87,88
636240,note_on,240,0,1,,,,,,,,,0,,,75,0
636240,note_on,240,0,3,,,,,,,,,2,,,54,0
636480,note_on,480,0,2,,,,,,,,,1,,,69,0
636480,note_on,0,0,2,,,,,,,,,1,,,63,0
636480,note_on,0,0,2,,,,,,,,,1,,,68,88
636480,note_on,0,0,3,,,,,,,,,2,,,52,88
636480,note_on,240,0,3,,,,,,,,,2,,,57,0
636480,note_on,480,0,4,,,,,,,,,3,,,47,0
636480,note_on,0,0,1,,,,,,,,,0,,,76,88
636480,note_on,0,0,4,,,,,,,,,3,,,35,0
636480,note_on,0,0,4,,,,,,,,,3,,,40,88
636480,note_on,240,0,1,,,,,,,,,0,,,87,0
636480,note_on,0,0,2,,,,,,,,,1,,,64,88
636480,note_on,0,0,1,,,,,,,,,0,,,88,88
636960,note_on,0,0,1,,,,,,,,,0,,,77,114
636960,note_on,0,0,1,,,,,,,,,0,,,76,0
636960,note_on,480,0,3,,,,,,,,,2,,,52,0
636960,note_on,480,0,2,,,,,,,,,1,,,68,0
636960,note_on,0,0,2,,,,,,,,,1,,,64,0
636960,note_on,0,0,2,,,,,,,,,1,,,65,114
636960,note_on,0,0,3,,,,,,,,,2,,,53,114
636960,note_on,0,0,4,,,,,,,,,3,,,41,114
636960,note_on,480,0,4,,,,,,,,,3,,,40,0
636960,note_on,480,0,1,,,,,,,,,0,,,88,0
637920,note_on,0,0,4,,,,,,,,,3,,,41,88
637920,note_on,960,0,3,,,,,,,,,2,,,53,0
637920,note_on,0,0,3,,,,,,,,,2,,,53,88
637920,note_on,960,0,4,,,,,,,,,3,,,41,0
637920,note_on,960,0,1,,,,,,,,,0,,,77,0
637920,note_on,0,0,2,,,,,,,,,1,,,65,88
637920,note_on,960,0,2,,,,,,,,,1,,,65,0
637920,note_on,0,0,1,,,,,,,,,0,,,77,88
638400,note_on,0,0,2,,,,,,,,,1,,,65,62
638400,note_on,480,0,2,,,,,,,,,1,,,65,0
638400,note_on,0,0,1,,,,,,,,,0,,,77,62
638400,note_on,480,0,1,,,,,,,,,0,,,77,0
638400,note_on,480,0,4,,,,,,,,,3,,,41,0
638400,note_on,0,0,4,,,,,,,,,3,,,41,62
638400,note_on,480,0,3,,,,,,,,,2,,,53,0
638400,note_on,0,0,3,,,,,,,,,2,,,53,62
638880,note_on,0,0,4,,,,,,,,,3,,,46,75
638880,note_on,480,0,3,,,,,,,,,2,,,53,0
638880,note_on,0,0,3,,,,,,,,,2,,,58,75
638880,note_on,0,0,1,,,,,,,,,0,,,82,75
638880,note_on,480,0,1,,,,,,,,,0,,,77,0
638880,note_on,0,0,2,,,,,,,,,1,,,70,75
638880,note_on,480,0,2,,,,,,,,,1,,,65,0
638880,note_on,480,0,4,,,,,,,,,3,,,41,0
639360,note_on,0,0,1,,,,,,,,,0,,,84,88
639360,note_on,480,0,1,,,,,,,,,0,,,82,0
639360,note_on,480,0,4,,,,,,,,,3,,,46,0
639360,note_on,0,0,2,,,,,,,,,1,,,72,88
639360,note_on,480,0,2,,,,,,,,,1,,,70,0
639360,note_on,480,0,3,,,,,,,,,2,,,58,0
639360,note_on,0,0,3,,,,,,,,,2,,,60,88
639360,note_on,0,0,4,,,,,,,,,3,,,48,88
639840,note_on,0,0,4,,,,,,,,,3,,,50,101
639840,note_on,0,0,3,,,,,,,,,2,,,62,101
639840,note_on,480,0,3,,,,,,,,,2,,,60,0
639840,note_on,480,0,4,,,,,,,,,3,,,48,0
639840,note_on,0,0,1,,,,,,,,,0,,,86,101
639840,note_on,480,0,1,,,,,,,,,0,,,84,0
639840,note_on,0,0,2,,,,,,,,,1,,,74,101
639840,note_on,480,0,2,,,,,,,,,1,,,72,0
640320,note_on,0,0,3,,,,,,,,,2,,,64,88
640320,note_on,480,0,4,,,,,,,,,3,,,50,0
640320,note_on,0,0,4,,,,,,,,,3,,,52,88
640320,note_on,0,0,2,,,,,,,,,1,,,76,88
640320,note_on,480,0,2,,,,,,,,,1,,,74,0
640320,note_on,0,0,1,,,,,,,,,0,,,88,88
640320,note_on,480,0,3,,,,,,,,,2,,,62,0
640320,note_on,480,0,1,,,,,,,,,0,,,86,0
640416,note_on,96,0,4,,,,,,,,,3,,,52,0
640416,note_on,96,0,3,,,,,,,,,2,,,64,0
640416,note_on,96,0,1,,,,,,,,,0,,,88,0
640416,note_on,96,0,2,,,,,,,,,1,,,76,0
641280,note_on,0,0,1,,,,,,,,,0,,,84,88
641280,note_on,864,0,4,,,,,,,,,3,,,40,88
641280,note_on,0,0,4,,,,,,,,,3,,,45,88
641280,note_on,864,0,1,,,,,,,,,0,,,81,88
641280,note_on,0,0,3,,,,,,,,,2,,,64,88
641280,note_on,0,0,3,,,,,,,,,2,,,57,88
641280,note_on,864,0,3,,,,,,,,,2,,,52,88
641280,note_on,0,0,1,,,,,,,,,0,,,88,88
641280,note_on,0,0,2,,,,,,,,,1,,,76,88
641280,note_on,864,0,2,,,,,,,,,1,,,69,88
641280,note_on,0,0,2,,,,,,,,,1,,,72,88
641376,note_on,0,0,3,,,,,,,,,2,,,57,0
641376,note_on,0,0,4,,,,,,,,,3,,,40,0
641376,note_on,96,0,4,,,,,,,,,3,,,45,0
641376,note_on,96,0,2,,,,,,,,,1,,,76,0
641376,note_on,0,0,1,,,,,,,,,0,,,84,0
641376,note_on,0,0,2,,,,,,,,,1,,,69,0
641376,note_on,96,0,1,,,,,,,,,0,,,88,0
641376,note_on,0,0,1,,,,,,,,,0,,,81,0
641376,note_on,96,0,3,,,,,,,,,2,,,64,0
641376,note_on,0,0,2,,,,,,,,,1,,,72,0
641376,note_on,0,0,3,,,,,,,,,2,,,52,0
642240,note_on,864,0,1,,,,,,,,,0,,,80,88
642240,note_on,0,0,1,,,,,,,,,0,,,86,88
642240,note_on,0,0,3,,,,,,,,,2,,,64,88
642240,note_on,0,0,3,,,,,,,,,2,,,59,88
642240,note_on,864,0,3,,,,,,,,,2,,,52,88
642240,note_on,0,0,1,,,,,,,,,0,,,88,88
642240,note_on,0,0,4,,,,,,,,,3,,,47,88
642240,note_on,864,0,2,,,,,,,,,1,,,68,88
642240,note_on,864,0,4,,,,,,,,,3,,,40,88
642240,note_on,0,0,2,,,,,,,,,1,,,74,88
642240,note_on,0,0,2,,,,,,,,,1,,,76,88
642336,note_on,0,0,3,,,,,,,,,2,,,59,0
642336,note_on,96,0,3,,,,,,,,,2,,,64,0
642336,note_on,96,0,1,,,,,,,,,0,,,88,0
642336,note_on,0,0,2,,,,,,,,,1,,,74,0
642336,note_on,0,0,4,,,,,,,,,3,,,40,0
642336,note_on,96,0,4,,,,,,,,,3,,,47,0
642336,note_on,96,0,2,,,,,,,,,1,,,76,0
642336,note_on,0,0,1,,,,,,,,,0,,,86,0
642336,note_on,0,0,1,,,,,,,,,0,,,80,0
642336,note_on,0,0,3,,,,,,,,,2,,,52,0
642336,note_on,0,0,2,,,,,,,,,1,,,68,0
643200,note_on,0,0,2,,,,,,,,,1,,,75,88
643200,note_on,0,0,4,,,,,,,,,3,,,48,88
643200,note_on,864,0,4,,,,,,,,,3,,,40,88
643200,note_on,0,0,2,,,,,,,,,1,,,69,88
643200,note_on,864,0,2,,,,,,,,,1,,,66,88
643200,note_on,864,0,3,,,,,,,,,2,,,52,88
643200,note_on,0,0,3,,,,,,,,,2,,,60,88
643200,note_on,0,0,3,,,,,,,,,2,,,64,88
643200,note_on,0,0,2,,,,,,,,,1,,,76,88
643200,note_on,0,0,1,,,,,,,,,0,,,88,88
643200,note_on,0,0,1,,,,,,,,,0,,,81,88
643200,note_on,864,0,1,,,,,,,,,0,,,78,88
643200,note_on,0,0,1,,,,,,,,,0,,,87,88
643296,note_on,0,0,2,,,,,,,,,1,,,75,0
643296,note_on,96,0,1,,,,,,,,,0,,,88,0
643296,note_on,0,0,1,,,,,,,,,0,,,78,0
643296,note_on,0,0,1,,,,,,,,,0,,,81,0
643296,note_on,0,0,1,,,,,,,,,0,,,87,0
643296,note_on,0,0,3,,,,,,,,,2,,,52,0
643296,note_on,96,0,2,,,,,,,,,1,,,76,0
643296,note_on,0,0,2,,,,,,,,,1,,,66,0
643296,note_on,0,0,2,,,,,,,,,1,,,69,0
643296,note_on,0,0,3,,,,,,,,,2,,,60,0
643296,note_on,96,0,3,,,,,,,,,2,,,64,0
643296,note_on,96,0,4,,,,,,,,,3,,,48,0
643296,note_on,0,0,4,,,,,,,,,3,,,40,0
644160,note_on,864,0,3,,,,,,,,,2,,,52,88
644160,note_on,0,0,3,,,,,,,,,2,,,64,88
644160,note_on,0,0,4,,,,,,,,,3,,,47,88
644160,note_on,0,0,2,,,,,,,,,1,,,76,88
644160,note_on,864,0,2,,,,,,,,,1,,,68,88
644160,note_on,0,0,1,,,,,,,,,0,,,88,88
644160,note_on,864,0,1,,,,,,,,,0,,,80,88
644160,note_on,864,0,4,,,,,,,,,3,,,40,88
644160,note_on,0,0,3,,,,,,,,,2,,,59,88
644207,note_on,47,0,2,,,,,,,,,1,,,76,0
644207,note_on,0,0,3,,,,,,,,,2,,,59,0
644207,note_on,0,0,3,,,,,,,,,2,,,52,0
644207,note_on,47,0,4,,,,,,,,,3,,,47,0
644207,note_on,0,0,4,,,,,,,,,3,,,40,0
644207,note_on,0,0,2,,,,,,,,,1,,,68,0
644207,note_on,47,0,1,,,,,,,,,0,,,88,0
644207,note_on,0,0,1,,,,,,,,,0,,,80,0
644207,note_on,47,0,3,,,,,,,,,2,,,64,0
644640,note_on,433,0,4,,,,,,,,,3,,,41,114
644640,note_on,433,0,1,,,,,,,,,0,,,65,114
644640,note_on,433,0,3,,,,,,,,,2,,,53,114
645600,note_on,0,0,4,,,,,,,,,3,,,41,88
645600,note_on,960,0,4,,,,,,,,,3,,,41,0
645600,note_on,0,0,3,,,,,,,,,2,,,53,88
645600,note_on,960,0,3,,,,,,,,,2,,,53,0
645600,note_on,0,0,1,,,,,,,,,0,,,65,88
645600,note_on,960,0,1,,,,,,,,,0,,,65,0
646080,note_on,0,0,1,,,,,,,,,0,,,65,88
646080,note_on,0,0,3,,,,,,,,,2,,,53,88
646080,control_change,0,0,3,,,,,,,,,2,64,127,,
646080,note_on,480,0,3,,,,,,,,,2,,,53,0
646080,note_on,480,0,1,,,,,,,,,0,,,65,0
646080,note_on,480,0,4,,,,,,,,,3,,,41,0
646080,control_change,0,0,4,,,,,,,,,3,64,127,,
646080,note_on,0,0,4,,,,,,,,,3,,,41,88
646560,note_on,0,0,3,,,,,,,,,2,,,58,88
646560,note_on,480,0,4,,,,,,,,,3,,,41,0
646560,note_on,0,0,4,,,,,,,,,3,,,46,88
646560,note_on,0,0,1,,,,,,,,,0,,,70,88
646560,note_on,480,0,1,,,,,,,,,0,,,65,0
646560,note_on,480,0,3,,,,,,,,,2,,,53,0
647040,note_on,0,0,1,,,,,,,,,0,,,72,88
647040,note_on,480,0,1,,,,,,,,,0,,,70,0
647040,note_on,0,0,4,,,,,,,,,3,,,48,88
647040,note_on,0,0,3,,,,,,,,,2,,,60,88
647040,note_on,480,0,3,,,,,,,,,2,,,58,0
647040,note_on,480,0,4,,,,,,,,,3,,,46,0
647520,note_on,480,0,3,,,,,,,,,2,,,60,0
647520,control_change,0,0,3,,,,,,,,,2,64,0,,
647520,note_on,0,0,3,,,,,,,,,2,,,62,88
647520,note_on,0,0,4,,,,,,,,,3,,,50,88
647520,control_change,0,0,4,,,,,,,,,3,64,0,,
647520,note_on,480,0,4,,,,,,,,,3,,,48,0
647520,note_on,480,0,1,,,,,,,,,0,,,72,0
647520,note_on,0,0,1,,,,,,,,,0,,,74,88
648000,note_on,0,0,1,,,,,,,,,0,,,76,88
648000,note_on,0,0,3,,,,,,,,,2,,,64,88
648000,note_on,480,0,3,,,,,,,,,2,,,62,0
648000,note_on,480,0,1,,,,,,,,,0,,,74,0
648000,note_on,480,0,4,,,,,,,,,3,,,50,0
648000,note_on,0,0,4,,,,,,,,,3,,,52,88
648096,note_on,96,0,1,,,,,,,,,0,,,76,0
648096,note_on,96,0,4,,,,,,,,,3,,,52,0
648096,note_on,96,0,3,,,,,,,,,2,,,64,0
648960,note_on,864,0,3,,,,,,,,,2,,,57,88
648960,note_on,0,0,3,,,,,,,,,2,,,60,88
648960,note_on,0,0,3,,,,,,,,,2,,,64,88
648960,note_on,0,0,4,,,,,,,,,3,,,45,88
648960,note_on,0,0,1,,,,,,,,,0,,,72,88
648960,note_on,0,0,1,,,,,,,,,0,,,76,88
648960,note_on,864,0,4,,,,,,,,,3,,,40,88
648960,note_on,864,0,1,,,,,,,,,0,,,69,88
648960,note_on,0,0,4,,,,,,,,,3,,,52,88
649056,note_on,0,0,3,,,,,,,,,2,,,57,0
649056,note_on,0,0,3,,,,,,,,,2,,,60,0
649056,note_on,96,0,3,,,,,,,,,2,,,64,0
649056,note_on,0,0,1,,,,,,,,,0,,,72,0
649056,note_on,96,0,4,,,,,,,,,3,,,52,0
649056,note_on,0,0,4,,,,,,,,,3,,,45,0
649056,note_on,0,0,4,,,,,,,,,3,,,40,0
649056,note_on,0,0,1,,,,,,,,,0,,,69,0
649056,note_on,96,0,1,,,,,,,,,0,,,76,0
649920,note_on,864,0,1,,,,,,,,,0,,,68,88
649920,note_on,0,0,3,,,,,,,,,2,,,64,88
649920,note_on,0,0,1,,,,,,,,,0,,,76,88
649920,note_on,0,0,3,,,,,,,,,2,,,62,88
649920,note_on,0,0,4,,,,,,,,,3,,,52,88
649920,note_on,0,0,4,,,,,,,,,3,,,47,88
649920,note_on,864,0,4,,,,,,,,,3,,,40,88
649920,note_on,864,0,3,,,,,,,,,2,,,56,88
649920,note_on,0,0,1,,,,,,,,,0,,,74,88
650016,note_on,0,0,1,,,,,,,,,0,,,74,0
650016,note_on,96,0,1,,,,,,,,,0,,,76,0
650016,note_on,0,0,1,,,,,,,,,0,,,68,0
650016,note_on,0,0,3,,,,,,,,,2,,,56,0
650016,note_on,96,0,4,,,,,,,,,3,,,52,0
650016,note_on,96,0,3,,,,,,,,,2,,,64,0
650016,note_on,0,0,4,,,,,,,,,3,,,47,0
650016,note_on,0,0,4,,,,,,,,,3,,,40,0
650016,note_on,0,0,3,,,,,,,,,2,,,62,0
650880,note_on,864,0,1,,,,,,,,,0,,,66,88
650880,note_on,0,0,4,,,,,,,,,3,,,52,88
650880,note_on,0,0,4,,,,,,,,,3,,,48,88
650880,note_on,864,0,4,,,,,,,,,3,,,40,88
650880,note_on,0,0,3,,,,,,,,,2,,,63,88
650880,note_on,0,0,3,,,,,,,,,2,,,57,88
650880,note_on,864,0,3,,,,,,,,,2,,,54,88
650880,note_on,0,0,3,,,,,,,,,2,,,64,88
650880,note_on,0,0,1,,,,,,,,,0,,,69,88
650880,note_on,0,0,1,,,,,,,,,0,,,75,88
650880,note_on,0,0,1,,,,,,,,,0,,,76,88
650976,note_on,0,0,1,,,,,,,,,0,,,75,0
650976,note_on,0,0,1,,,,,,,,,0,,,69,0
650976,note_on,96,0,3,,,,,,,,,2,,,64,0
650976,note_on,96,0,1,,,,,,,,,0,,,76,0
650976,note_on,0,0,3,,,,,,,,,2,,,54,0
650976,note_on,0,0,1,,,,,,,,,0,,,66,0
650976,note_on,0,0,3,,,,,,,,,2,,,63,0
650976,note_on,0,0,3,,,,,,,,,2,,,57,0
650976,note_on,96,0,4,,,,,,,,,3,,,52,0
650976,note_on,0,0,4,,,,,,,,,3,,,48,0
650976,note_on,0,0,4,,,,,,,,,3,,,40,0
651840,note_on,0,0,1,,,,,,,,,0,,,76,88
651840,note_on,0,0,4,,,,,,,,,3,,,47,88
651840,note_on,864,0,4,,,,,,,,,3,,,40,88
651840,note_on,864,0,1,,,,,,,,,0,,,68,88
651840,note_on,0,0,4,,,,,,,,,3,,,52,88
651840,note_on,0,0,3,,,,,,,,,2,,,64,88
651840,note_on,864,0,3,,,,,,,,,2,,,56,88
651887,note_on,0,0,1,,,,,,,,,0,,,68,0
651887,note_on,47,0,1,,,,,,,,,0,,,76,0
652320,note_on,0,0,3,,,,,,,,,2,,,56,0
652320,note_on,0,0,4,,,,,,,,,3,,,47,0
652320,note_on,0,0,4,,,,,,,,,3,,,40,88
652320,note_on,0,0,4,,,,,,,,,3,,,40,0
652320,note_on,480,0,3,,,,,,,,,2,,,64,0
652320,note_on,0,0,3,,,,,,,,,2,,,52,88
652320,note_on,480,0,4,,,,,,,,,3,,,52,0
652320,note_on,433,0,1,,,,,,,,,0,,,64,88
653280,note_on,960,0,4,,,,,,,,,3,,,40,0
653280,note_on,0,0,4,,,,,,,,,3,,,40,62
653280,note_on,960,0,1,,,,,,,,,0,,,64,0
653280,note_on,0,0,1,,,,,,,,,0,,,64,88
653280,note_on,960,0,3,,,,,,,,,2,,,52,0
653280,note_on,0,0,3,,,,,,,,,2,,,52,62
653760,note_on,480,0,3,,,,,,,,,2,,,52,0
653760,note_on,0,0,3,,,,,,,,,2,,,52,62
653760,note_on,0,0,1,,,,,,,,,0,,,64,62
653760,note_on,480,0,1,,,,,,,,,0,,,64,0
653760,note_on,0,0,4,,,,,,,,,3,,,40,62
653760,note_on,480,0,4,,,,,,,,,3,,,40,0
653807,note_on,47,0,3,,,,,,,,,2,,,52,0
653807,note_on,47,0,4,,,,,,,,,3,,,40,0
654240,note_on,480,0,1,,,,,,,,,0,,,64,0
654240,note_on,433,0,4,,,,,,,,,3,,,40,62
654240,note_on,433,0,3,,,,,,,,,2,,,52,62
655200,note_on,0,0,3,,,,,,,,,2,,,52,62
655200,note_on,960,0,3,,,,,,,,,2,,,52,0
655200,note_on,960,0,4,,,,,,,,,3,,,40,0
655200,note_on,0,0,4,,,,,,,,,3,,,40,62
655680,note_on,480,0,4,,,,,,,,,3,,,40,0
655680,note_on,0,0,4,,,,,,,,,3,,,40,62
655680,note_on,480,0,3,,,,,,,,,2,,,52,0
655680,note_on,0,0,3,,,,,,,,,2,,,52,62
655727,note_on,47,0,4,,,,,,,,,3,,,40,0
655727,note_on,47,0,3,,,,,,,,,2,,,52,0
656160,note_on,433,0,4,,,,,,,,,3,,,38,62
656160,note_on,433,0,3,,,,,,,,,2,,,50,62
657120,note_on,0,0,3,,,,,,,,,2,,,50,62
657120,note_on,960,0,3,,,,,,,,,2,,,50,0
657120,note_on,0,0,4,,,,,,,,,3,,,38,62
657120,note_on,960,0,4,,,,,,,,,3,,,38,0
657600,note_on,0,0,3,,,,,,,,,2,,,50,62
657600,note_on,480,0,3,,,,,,,,,2,,,50,0
657600,note_on,0,0,4,,,,,,,,,3,,,38,62
657600,note_on,480,0,4,,,,,,,,,3,,,38,0
657647,note_on,47,0,4,,,,,,,,,3,,,38,0
657647,note_on,47,0,3,,,,,,,,,2,,,50,0
658080,note_on,433,0,4,,,,,,,,,3,,,35,62
658080,note_on,433,0,3,,,,,,,,,2,,,47,62
659040,note_on,960,0,4,,,,,,,,,3,,,35,0
659040,note_on,0,0,3,,,,,,,,,2,,,47,62
659040,note_on,960,0,3,,,,,,,,,2,,,47,0
659040,note_on,0,0,4,,,,,,,,,3,,,35,62
659520,note_on,0,0,3,,,,,,,,,2,,,47,62
659520,note_on,0,0,4,,,,,,,,,3,,,35,62
659520,note_on,480,0,3,,,,,,,,,2,,,47,0
659520,note_on,480,0,4,,,,,,,,,3,,,35,0
659567,note_on,47,0,3,,,,,,,,,2,,,47,0
659567,note_on,47,0,4,,,,,,,,,3,,,35,0
660000,note_on,433,0,3,,,,,,,,,2,,,44,62
660000,note_on,433,0,4,,,,,,,,,3,,,32,62
660960,note_on,960,0,3,,,,,,,,,2,,,44,0
660960,note_on,0,0,3,,,,,,,,,2,,,44,62
660960,note_on,0,0,4,,,,,,,,,3,,,32,62
660960,note_on,960,0,4,,,,,,,,,3,,,32,0
661440,note_on,480,0,3,,,,,,,,,2,,,44,0
661440,note_on,0,0,3,,,,,,,,,2,,,44,62
661440,note_on,0,0,4,,,,,,,,,3,,,32,62
661440,note_on,480,0,4,,,,,,,,,3,,,32,0
661487,note_on,47,0,4,,,,,,,,,3,,,32,0
661487,note_on,47,0,3,,,,,,,,,2,,,44,0
661920,note_on,433,0,3,,,,,,,,,2,,,44,62
661920,note_on,433,0,4,,,,,,,,,3,,,32,62
662880,note_on,0,0,3,,,,,,,,,2,,,44,62
662880,note_on,960,0,3,,,,,,,,,2,,,44,0
662880,note_on,960,0,4,,,,,,,,,3,,,32,0
662880,note_on,0,0,4,,,,,,,,,3,,,32,62
663360,note_on,0,0,3,,,,,,,,,2,,,44,62
663360,note_on,480,0,3,,,,,,,,,2,,,44,0
663360,note_on,480,0,4,,,,,,,,,3,,,32,0
663360,note_on,0,0,4,,,,,,,,,3,,,32,62
663407,note_on,47,0,3,,,,,,,,,2,,,44,0
663407,note_on,47,0,4,,,,,,,,,3,,,32,0
663840,note_on,433,0,3,,,,,,,,,2,,,44,62
663840,note_on,433,0,4,,,,,,,,,3,,,32,62
664800,note_on,0,0,4,,,,,,,,,3,,,32,62
664800,note_on,0,0,3,,,,,,,,,2,,,44,62
664800,note_on,960,0,4,,,,,,,,,3,,,32,0
664800,note_on,960,0,3,,,,,,,,,2,,,44,0
665280,note_on,480,0,4,,,,,,,,,3,,,32,0
665280,note_on,0,0,4,,,,,,,,,3,,,32,62
665280,note_on,0,0,3,,,,,,,,,2,,,44,62
665280,note_on,480,0,3,,,,,,,,,2,,,44,0
665280,set_tempo,167040,1,0,,,,,,312500,,,,,,,
665327,note_on,47,0,4,,,,,,,,,3,,,32,0
665327,note_on,47,0,3,,,,,,,,,2,,,44,0
665760,note_on,433,0,3,,,,,,,,,2,,,44,62
665760,note_on,433,0,4,,,,,,,,,3,,,32,62
666720,note_on,0,0,3,,,,,,,,,2,,,44,62
666720,note_on,960,0,3,,,,,,,,,2,,,44,0
666720,note_on,960,0,4,,,,,,,,,3,,,32,0
666720,note_on,0,0,4,,,,,,,,,3,,,32,62
667200,set_tempo,1920,1,0,,,,,,270270,,,,,,,
667200,note_on,480,0,4,,,,,,,,,3,,,32,0
667200,note_on,0,0,4,,,,,,,,,3,,,32,49
667200,note_on,480,0,3,,,,,,,,,2,,,44,0
667200,note_on,0,0,3,,,,,,,,,2,,,44,49
667200,note_on,22993,0,2,,,,,,,,,1,,,68,49
667200,note_on,12960,0,1,,,,,,,,,0,,,72,62
667200,note_on,0,0,1,,,,,,,,,0,,,75,62
667680,note_on,480,0,4,,,,,,,,,3,,,32,0
667680,note_on,0,0,4,,,,,,,,,3,,,32,49
667680,note_on,480,0,3,,,,,,,,,2,,,44,0
667680,note_on,0,0,3,,,,,,,,,2,,,44,49
668640,note_on,960,0,3,,,,,,,,,2,,,44,0
668640,note_on,0,0,3,,,,,,,,,2,,,44,49
668640,note_on,0,0,4,,,,,,,,,3,,,32,49
668640,note_on,960,0,4,,,,,,,,,3,,,32,0
669120,note_on,480,0,4,,,,,,,,,3,,,32,0
669120,note_on,0,0,4,,,,,,,,,3,,,32,49
669120,note_on,0,0,3,,,,,,,,,2,,,44,49
669120,note_on,480,0,3,,,,,,,,,2,,,44,0
669120,note_on,0,0,1,,,,,,,,,0,,,72,0
669120,note_on,0,0,1,,,,,,,,,0,,,72,62
669120,note_on,0,0,1,,,,,,,,,0,,,75,62
669120,note_on,1920,0,2,,,,,,,,,1,,,68,0
669120,note_on,0,0,2,,,,,,,,,1,,,68,49
669120,note_on,1920,0,1,,,,,,,,,0,,,75,0
669600,note_on,480,0,3,,,,,,,,,2,,,44,0
669600,note_on,0,0,3,,,,,,,,,2,,,44,49
669600,note_on,0,0,4,,,,,,,,,3,,,32,49
669600,note_on,480,0,4,,,,,,,,,3,,,32,0
670560,note_on,0,0,3,,,,,,,,,2,,,44,49
670560,note_on,0,0,2,,,,,,,,,1,,,68,49
670560,note_on,1440,0,2,,,,,,,,,1,,,68,0
670560,note_on,0,0,1,,,,,,,,,0,,,75,62
670560,note_on,0,0,1,,,,,,,,,0,,,72,62
670560,note_on,960,0,3,,,,,,,,,2,,,44,0
670560,note_on,0,0,1,,,,,,,,,0,,,72,0
670560,note_on,960,0,4,,,,,,,,,3,,,32,0
670560,note_on,0,0,4,,,,,,,,,3,,,32,49
670560,note_on,1440,0,1,,,,,,,,,0,,,75,0
671040,note_on,0,0,2,,,,,,,,,1,,,70,49
671040,note_on,480,0,3,,,,,,,,,2,,,44,0
671040,note_on,480,0,2,,,,,,,,,1,,,68,0
671040,note_on,0,0,2,,,,,,,,,1,,,65,49
671040,note_on,0,0,3,,,,,,,,,2,,,46,49
671040,note_on,0,0,1,,,,,,,,,0,,,72,0
671040,note_on,480,0,4,,,,,,,,,3,,,32,0
671040,note_on,0,0,4,,,,,,,,,3,,,34,49
671040,note_on,480,0,1,,,,,,,,,0,,,75,0
671040,note_on,0,0,1,,,,,,,,,0,,,75,62
671520,note_on,0,0,3,,,,,,,,,2,,,46,49
671520,note_on,480,0,3,,,,,,,,,2,,,46,0
671520,note_on,480,0,4,,,,,,,,,3,,,34,0
671520,note_on,0,0,4,,,,,,,,,3,,,34,49
672000,note_on,960,0,1,,,,,,,,,0,,,75,0
672000,note_on,0,0,1,,,,,,,,,0,,,73,62
672480,note_on,0,0,3,,,,,,,,,2,,,46,49
672480,note_on,960,0,3,,,,,,,,,2,,,46,0
672480,note_on,0,0,4,,,,,,,,,3,,,34,49
672480,note_on,960,0,4,,,,,,,,,3,,,34,0
672960,note_on,0,0,4,,,,,,,,,3,,,34,49
672960,note_on,1920,0,2,,,,,,,,,1,,,70,0
672960,note_on,480,0,3,,,,,,,,,2,,,46,0
672960,note_on,0,0,3,,,,,,,,,2,,,46,49
672960,note_on,480,0,4,,,,,,,,,3,,,34,0
673440,note_on,480,0,4,,,,,,,,,3,,,34,0
673440,note_on,0,0,4,,,,,,,,,3,,,34,49
673440,note_on,480,0,3,,,,,,,,,2,,,46,0
673440,note_on,0,0,3,,,,,,,,,2,,,46,49
673920,note_on,960,0,2,,,,,,,,,1,,,65,0
673920,note_on,0,0,2,,,,,,,,,1,,,65,49
673920,note_on,1920,0,1,,,,,,,,,0,,,73,0
673920,note_on,0,0,1,,,,,,,,,0,,,70,62
673920,note_on,0,0,1,,,,,,,,,0,,,73,62
674400,note_on,960,0,3,,,,,,,,,2,,,46,0
674400,note_on,0,0,3,,,,,,,,,2,,,49,49
674400,note_on,960,0,4,,,,,,,,,3,,,34,0
674400,note_on,0,0,4,,,,,,,,,3,,,37,49
674880,note_on,0,0,2,,,,,,,,,1,,,65,49
674880,note_on,0,0,4,,,,,,,,,3,,,29,49
674880,note_on,960,0,1,,,,,,,,,0,,,73,0
674880,note_on,0,0,1,,,,,,,,,0,,,70,0
674880,note_on,0,0,1,,,,,,,,,0,,,70,62
674880,note_on,0,0,1,,,,,,,,,0,,,72,62
674880,note_on,480,0,4,,,,,,,,,3,,,37,0
674880,note_on,480,0,3,,,,,,,,,2,,,49,0
674880,note_on,960,0,2,,,,,,,,,1,,,65,0
674880,note_on,0,0,3,,,,,,,,,2,,,41,49
675360,note_on,0,0,4,,,,,,,,,3,,,29,49
675360,note_on,480,0,4,,,,,,,,,3,,,29,0
675360,note_on,0,0,3,,,,,,,,,2,,,41,49
675360,note_on,480,0,3,,,,,,,,,2,,,41,0
676320,note_on,0,0,4,,,,,,,,,3,,,29,49
676320,note_on,960,0,4,,,,,,,,,3,,,29,0
676320,note_on,960,0,3,,,,,,,,,2,,,41,0
676320,note_on,0,0,3,,,,,,,,,2,,,41,49
676800,note_on,480,0,3,,,,,,,,,2,,,41,0
676800,note_on,0,0,2,,,,,,,,,1,,,69,49
676800,note_on,0,0,3,,,,,,,,,2,,,41,49
676800,note_on,480,0,4,,,,,,,,,3,,,29,0
676800,note_on,0,0,4,,,,,,,,,3,,,29,49
676800,note_on,0,0,2,,,,,,,,,1,,,65,49
676800,note_on,1920,0,1,,,,,,,,,0,,,72,0
676800,note_on,0,0,1,,,,,,,,,0,,,70,0
676800,note_on,1920,0,2,,,,,,,,,1,,,65,0
676800,note_on,0,0,1,,,,,,,,,0,,,72,62
677280,note_on,480,0,4,,,,,,,,,3,,,29,0
677280,note_on,0,0,4,,,,,,,,,3,,,29,49
677280,note_on,0,0,3,,,,,,,,,2,,,41,49
677280,note_on,480,0,3,,,,,,,,,2,,,41,0
677520,note_on,720,0,1,,,,,,,,,0,,,72,0
677520,note_on,0,0,1,,,,,,,,,0,,,77,62
677760,note_on,240,0,1,,,,,,,,,0,,,77,0
677760,note_on,0,0,1,,,,,,,,,0,,,77,62
677760,note_on,0,0,2,,,,,,,,,1,,,69,49
677760,note_on,0,0,2,,,,,,,,,1,,,65,49
677760,note_on,0,0,2,,,,,,,,,1,,,65,0
677760,note_on,960,0,2,,,,,,,,,1,,,69,0
678240,note_on,960,0,4,,,,,,,,,3,,,29,0
678240,note_on,0,0,4,,,,,,,,,3,,,29,49
678240,note_on,0,0,3,,,,,,,,,2,,,41,49
678240,note_on,960,0,3,,,,,,,,,2,,,41,0
678480,note_on,720,0,1,,,,,,,,,0,,,77,0
678480,note_on,0,0,1,,,,,,,,,0,,,72,62
678720,note_on,480,0,3,,,,,,,,,2,,,41,0
678720,note_on,480,0,4,,,,,,,,,3,,,29,0
678720,note_on,0,0,2,,,,,,,,,1,,,65,0
678720,note_on,0,0,2,,,,,,,,,1,,,65,49
678720,note_on,0,0,3,,,,,,,,,2,,,46,49
678720,note_on,960,0,2,,,,,,,,,1,,,69,0
678720,note_on,0,0,4,,,,,,,,,3,,,34,49
678720,note_on,0,0,1,,,,,,,,,0,,,74,62
678720,note_on,0,0,1,,,,,,,,,0,,,70,62
678720,note_on,240,0,1,,,,,,,,,0,,,72,0
679200,note_on,0,0,4,,,,,,,,,3,,,34,49
679200,note_on,480,0,4,,,,,,,,,3,,,34,0
679200,note_on,0,0,3,,,,,,,,,2,,,46,49
679200,note_on,480,0,3,,,,,,,,,2,,,46,0
680160,note_on,0,0,4,,,,,,,,,3,,,34,49
680160,note_on,0,0,3,,,,,,,,,2,,,46,49
680160,note_on,960,0,3,,,,,,,,,2,,,46,0
680160,note_on,960,0,4,,,,,,,,,3,,,34,0
680640,note_on,0,0,3,,,,,,,,,2,,,46,49
680640,note_on,480,0,3,,,,,,,,,2,,,46,0
680640,note_on,0,0,4,,,,,,,,,3,,,34,49
680640,note_on,480,0,4,,,,,,,,,3,,,34,0
681120,note_on,0,0,3,,,,,,,,,2,,,46,49
681120,note_on,480,0,3,,,,,,,,,2,,,46,0
681120,note_on,480,0,4,,,,,,,,,3,,,34,0
681120,note_on,0,0,4,,,,,,,,,3,,,34,49
681600,note_on,2880,0,2,,,,,,,,,1,,,65,0
681600,note_on,0,0,1,,,,,,,,,0,,,70,0
681600,note_on,2880,0,1,,,,,,,,,0,,,74,0
682080,note_on,0,0,3,,,,,,,,,2,,,46,49
682080,note_on,960,0,3,,,,,,,,,2,,,46,0
682080,note_on,960,0,4,,,,,,,,,3,,,34,0
682080,note_on,0,0,4,,,,,,,,,3,,,34,49
682560,note_on,480,0,4,,,,,,,,,3,,,34,0
682560,note_on,960,0,2,,,,,,,,,1,,,66,49
682560,control_change,960,0,1,,,,,,,,,0,64,127,,
682560,note_on,0,0,1,,,,,,,,,0,,,70,62
682560,note_on,0,0,1,,,,,,,,,0,,,73,62
682560,note_on,0,0,4,,,,,,,,,3,,,30,49
682560,note_on,0,0,3,,,,,,,,,2,,,42,49
682560,note_on,480,0,3,,,,,,,,,2,,,46,0
683040,note_on,480,0,4,,,,,,,,,3,,,30,0
683040,note_on,0,0,4,,,,,,,,,3,,,30,49
683040,note_on,0,0,3,,,,,,,,,2,,,42,49
683040,note_on,480,0,3,,,,,,,,,2,,,42,0
684000,note_on,960,0,3,,,,,,,,,2,,,42,0
684000,note_on,0,0,4,,,,,,,,,3,,,30,49
684000,note_on,0,0,3,,,,,,,,,2,,,42,49
684000,note_on,960,0,4,,,,,,,,,3,,,30,0
684480,note_on,0,0,1,,,,,,,,,0,,,70,62
684480,note_on,0,0,1,,,,,,,,,0,,,70,0
684480,note_on,0,0,1,,,,,,,,,0,,,73,62
684480,note_on,1920,0,1,,,,,,,,,0,,,73,0
684480,note_on,480,0,3,,,,,,,,,2,,,42,0
684480,control_change,0,0,4,,,,,,,,,3,64,127,,
684480,note_on,0,0,4,,,,,,,,,3,,,30,49
684480,note_on,1920,0,2,,,,,,,,,1,,,66,0
684480,control_change,0,0,3,,,,,,,,,2,64,127,,
684480,note_on,0,0,3,,,,,,,,,2,,,42,49
684480,note_on,0,0,2,,,,,,,,,1,,,66,49
684480,note_on,480,0,4,,,,,,,,,3,,,30,0
684960,note_on,480,0,4,,,,,,,,,3,,,30,0
684960,note_on,0,0,4,,,,,,,,,3,,,34,49
684960,note_on,480,0,3,,,,,,,,,2,,,42,0
684960,note_on,0,0,3,,,,,,,,,2,,,46,49
685440,note_on,0,0,1,,,,,,,,,0,,,68,62
685440,note_on,0,0,1,,,,,,,,,0,,,73,62
685440,control_change,0,0,1,,,,,,,,,0,64,0,,
685440,note_on,960,0,2,,,,,,,,,1,,,66,0
685440,note_on,0,0,2,,,,,,,,,1,,,65,49
685440,note_on,0,0,1,,,,,,,,,0,,,70,0
685440,note_on,0,0,3,,,,,,,,,2,,,49,49
685440,note_on,480,0,3,,,,,,,,,2,,,46,0
685440,note_on,0,0,4,,,,,,,,,3,,,37,49
685440,note_on,480,0,4,,,,,,,,,3,,,34,0
685440,note_on,960,0,1,,,,,,,,,0,,,73,0
685920,note_on,480,0,3,,,,,,,,,2,,,49,0
685920,note_on,0,0,3,,,,,,,,,2,,,41,49
685920,note_on,480,0,4,,,,,,,,,3,,,37,0
685920,control_change,0,0,3,,,,,,,,,2,64,0,,
685920,control_change,0,0,4,,,,,,,,,3,64,0,,
685920,note_on,0,0,4,,,,,,,,,3,,,29,49
686400,note_on,0,0,4,,,,,,,,,3,,,32,49
686400,note_on,0,0,1,,,,,,,,,0,,,68,0
686400,note_on,960,0,1,,,,,,,,,0,,,73,0
686400,note_on,0,0,1,,,,,,,,,0,,,73,62
686400,note_on,0,0,3,,,,,,,,,2,,,44,49
686400,note_on,480,0,3,,,,,,,,,2,,,41,0
686400,note_on,960,0,2,,,,,,,,,1,,,65,0
686400,note_on,0,0,2,,,,,,,,,1,,,63,49
686400,note_on,0,0,2,,,,,,,,,1,,,68,49
686400,note_on,480,0,4,,,,,,,,,3,,,29,0
686447,note_on,47,0,4,,,,,,,,,3,,,32,0
686447,note_on,47,0,3,,,,,,,,,2,,,44,0
686880,note_on,433,0,3,,,,,,,,,2,,,44,49
686880,note_on,433,0,4,,,,,,,,,3,,,32,49
687360,note_on,0,0,1,,,,,,,,,0,,,72,62
687360,note_on,960,0,1,,,,,,,,,0,,,73,0
687840,note_on,0,0,4,,,,,,,,,3,,,32,49
687840,note_on,960,0,4,,,,,,,,,3,,,32,0
687840,note_on,0,0,3,,,,,,,,,2,,,44,49
687840,note_on,960,0,3,,,,,,,,,2,,,44,0
688320,note_on,1920,0,2,,,,,,,,,1,,,68,0
688320,note_on,0,0,3,,,,,,,,,2,,,44,49
688320,note_on,0,0,4,,,,,,,,,3,,,32,49
688320,note_on,480,0,4,,,,,,,,,3,,,32,0
688320,note_on,480,0,3,,,,,,,,,2,,,44,0
688367,note_on,47,0,3,,,,,,,,,2,,,44,0
688367,note_on,47,0,4,,,,,,,,,3,,,32,0
688800,note_on,433,0,4,,,,,,,,,3,,,32,49
688800,note_on,433,0,3,,,,,,,,,2,,,44,49
689280,note_on,0,0,1,,,,,,,,,0,,,72,62
689280,note_on,960,0,2,,,,,,,,,1,,,63,0
689280,note_on,1920,0,1,,,,,,,,,0,,,72,0
689280,note_on,0,0,1,,,,,,,,,0,,,68,62
689280,note_on,0,0,2,,,,,,,,,1,,,63,49
689760,note_on,0,0,4,,,,,,,,,3,,,36,49
689760,note_on,960,0,3,,,,,,,,,2,,,44,0
689760,note_on,0,0,3,,,,,,,,,2,,,48,49
689760,note_on,960,0,4,,,,,,,,,3,,,32,0
690240,note_on,0,0,2,,,,,,,,,1,,,63,49
690240,note_on,480,0,3,,,,,,,,,2,,,48,0
690240,note_on,0,0,3,,,,,,,,,2,,,51,49
690240,note_on,960,0,1,,,,,,,,,0,,,72,0
690240,note_on,0,0,4,,,,,,,,,3,,,39,49
690240,note_on,480,0,4,,,,,,,,,3,,,36,0
690240,note_on,0,0,1,,,,,,,,,0,,,70,62
690240,note_on,0,0,1,,,,,,,,,0,,,68,62
690240,note_on,0,0,1,,,,,,,,,0,,,68,0
690240,note_on,960,0,2,,,,,,,,,1,,,63,0
690287,note_on,47,0,3,,,,,,,,,2,,,51,0
690287,note_on,47,0,4,,,,,,,,,3,,,39,0
690720,note_on,433,0,3,,,,,,,,,2,,,51,49
690720,note_on,433,0,4,,,,,,,,,3,,,39,49
691680,note_on,0,0,4,,,,,,,,,3,,,39,49
691680,note_on,960,0,4,,,,,,,,,3,,,39,0
691680,note_on,0,0,3,,,,,,,,,2,,,51,49
691680,note_on,960,0,3,,,,,,,,,2,,,51,0
692160,note_on,0,0,1,,,,,,,,,0,,,70,62
692160,note_on,0,0,1,,,,,,,,,0,,,68,0
692160,note_on,0,0,4,,,,,,,,,3,,,39,49
692160,note_on,480,0,4,,,,,,,,,3,,,39,0
692160,set_tempo,24960,1,0,,,,,,312500,,,,,,,
692160,note_on,1920,0,1,,,,,,,,,0,,,70,0
692160,note_on,1920,0,2,,,,,,,,,1,,,63,0
692160,note_on,480,0,3,,,,,,,,,2,,,51,0
692160,note_on,0,0,3,,,,,,,,,2,,,51,49
692160,note_on,0,0,2,,,,,,,,,1,,,67,49
692160,note_on,0,0,2,,,,,,,,,1,,,63,49
692207,note_on,47,0,3,,,,,,,,,2,,,51,0
692207,note_on,47,0,4,,,,,,,,,3,,,39,0
692640,note_on,433,0,3,,,,,,,,,2,,,51,49
692640,note_on,433,0,4,,,,,,,,,3,,,39,49
692880,note_on,0,0,1,,,,,,,,,0,,,75,62
692880,note_on,720,0,1,,,,,,,,,0,,,70,0
693120,note_on,960,0,2,,,,,,,,,1,,,67,0
693120,note_on,0,0,2,,,,,,,,,1,,,63,0
693120,note_on,0,0,2,,,,,,,,,1,,,67,49
693120,note_on,0,0,2,,,,,,,,,1,,,63,49
693120,note_on,240,0,1,,,,,,,,,0,,,75,0
693120,note_on,0,0,1,,,,,,,,,0,,,75,62
693600,note_on,0,0,4,,,,,,,,,3,,,39,49
693600,note_on,0,0,3,,,,,,,,,2,,,51,49
693600,note_on,960,0,3,,,,,,,,,2,,,51,0
693600,note_on,960,0,4,,,,,,,,,3,,,39,0
693840,note_on,720,0,1,,,,,,,,,0,,,75,0
693840,note_on,0,0,1,,,,,,,,,0,,,70,62
694080,note_on,0,0,2,,,,,,,,,1,,,63,0
694080,note_on,960,0,2,,,,,,,,,1,,,67,0
694080,note_on,0,0,2,,,,,,,,,1,,,63,49
694080,note_on,480,0,4,,,,,,,,,3,,,39,0
694080,note_on,0,0,4,,,,,,,,,3,,,32,49
694080,note_on,0,0,4,,,,,,,,,3,,,44,49
694080,note_on,480,0,3,,,,,,,,,2,,,51,0
694080,set_tempo,1920,1,0,,,,,,270270,,,,,,,
694080,note_on,240,0,1,,,,,,,,,0,,,70,0
694080,note_on,0,0,1,,,,,,,,,0,,,68,62
694080,note_on,0,0,1,,,,,,,,,0,,,72,62
694400,control_change,320,0,3,,,,,,,,,2,64,127,,
694400,note_on,0,0,3,,,,,,,,,2,,,51,49
694560,note_on,0,0,4,,,,,,,,,3,,,32,49
694560,note_on,480,0,4,,,,,,,,,3,,,44,0
694560,note_on,0,0,4,,,,,,,,,3,,,32,0
694560,note_on,0,0,4,,,,,,,,,3,,,44,49
694719,note_on,319,0,3,,,,,,,,,2,,,51,0
694719,note_on,0,0,3,,,,,,,,,2,,,56,49
695040,note_on,321,0,3,,,,,,,,,2,,,56,0
695040,note_on,0,0,3,,,,,,,,,2,,,60,49
695360,note_on,0,0,3,,,,,,,,,2,,,56,49
695360,note_on,320,0,3,,,,,,,,,2,,,60,0
695520,note_on,0,0,4,,,,,,,,,3,,,32,49
695520,note_on,0,0,4,,,,,,,,,3,,,32,0
695520,note_on,960,0,4,,,,,,,,,3,,,44,0
695520,note_on,0,0,4,,,,,,,,,3,,,44,49
695679,note_on,0,0,3,,,,,,,,,2,,,51,49
695679,control_change,0,0,3,,,,,,,,,2,64,0,,
695679,note_on,319,0,3,,,,,,,,,2,,,56,0
695760,note_on,0,0,2,,,,,,,,,1,,,72,49
695760,note_on,0,0,1,,,,,,,,,0,,,84,62
695760,note_on,0,0,1,,,,,,,,,0,,,68,0
695760,note_on,1680,0,1,,,,,,,,,0,,,72,0
695760,note_on,1680,0,2,,,,,,,,,1,,,63,0
696000,note_on,321,0,3,,,,,,,,,2,,,51,0
696000,note_on,0,0,4,,,,,,,,,3,,,44,49
696000,note_on,0,0,4,,,,,,,,,3,,,32,49
696000,note_on,0,0,4,,,,,,,,,3,,,32,0
696000,note_on,480,0,4,,,,,,,,,3,,,44,0
696000,note_on,0,0,1,,,,,,,,,0,,,84,62
696000,note_on,240,0,1,,,,,,,,,0,,,84,0
696000,note_on,0,0,2,,,,,,,,,1,,,72,49
696000,note_on,240,0,2,,,,,,,,,1,,,72,0
696320,control_change,320,0,3,,,,,,,,,2,64,127,,
696320,note_on,0,0,3,,,,,,,,,2,,,51,49
696480,note_on,480,0,4,,,,,,,,,3,,,44,0
696480,note_on,0,0,4,,,,,,,,,3,,,44,49
696480,note_on,0,0,4,,,,,,,,,3,,,32,49
696480,note_on,0,0,4,,,,,,,,,3,,,32,0
696639,note_on,0,0,3,,,,,,,,,2,,,56,49
696639,note_on,319,0,3,,,,,,,,,2,,,51,0
696720,note_on,0,0,2,,,,,,,,,1,,,75,49
696720,note_on,720,0,1,,,,,,,,,0,,,84,0
696720,note_on,0,0,1,,,,,,,,,0,,,87,62
696720,note_on,720,0,2,,,,,,,,,1,,,72,0
696960,note_on,0,0,2,,,,,,,,,1,,,75,49
696960,note_on,0,0,3,,,,,,,,,2,,,60,49
696960,note_on,240,0,2,,,,,,,,,1,,,75,0
696960,note_on,321,0,3,,,,,,,,,2,,,56,0
696960,note_on,240,0,1,,,,,,,,,0,,,87,0
696960,note_on,0,0,1,,,,,,,,,0,,,87,62
697280,note_on,0,0,3,,,,,,,,,2,,,56,49
697280,note_on,320,0,3,,,,,,,,,2,,,60,0
697440,note_on,0,0,4,,,,,,,,,3,,,32,0
697440,note_on,0,0,4,,,,,,,,,3,,,32,49
697440,note_on,0,0,4,,,,,,,,,3,,,44,49
697440,note_on,960,0,4,,,,,,,,,3,,,44,0
697599,control_change,0,0,3,,,,,,,,,2,64,0,,
697599,note_on,319,0,3,,,,,,,,,2,,,56,0
697599,note_on,0,0,3,,,,,,,,,2,,,51,49
697680,note_on,0,0,2,,,,,,,,,1,,,68,49
697680,note_on,720,0,2,,,,,,,,,1,,,75,0
697680,note_on,0,0,1,,,,,,,,,0,,,80,62
697680,note_on,720,0,1,,,,,,,,,0,,,87,0
697920,note_on,480,0,4,,,,,,,,,3,,,44,0
697920,note_on,0,0,4,,,,,,,,,3,,,32,49
697920,note_on,0,0,4,,,,,,,,,3,,,44,49
697920,note_on,0,0,4,,,,,,,,,3,,,32,0
697920,note_on,321,0,3,,,,,,,,,2,,,51,0
697920,note_on,0,0,1,,,,,,,,,0,,,84,62
697920,control_change,0,0,1,,,,,,,,,0,64,127,,
697920,note_on,240,0,1,,,,,,,,,0,,,80,0
697920,control_change,0,0,2,,,,,,,,,1,64,127,,
697920,note_on,0,0,2,,,,,,,,,1,,,72,49
697920,note_on,240,0,2,,,,,,,,,1,,,68,0
698240,control_change,320,0,3,,,,,,,,,2,64,127,,
698240,note_on,0,0,3,,,,,,,,,2,,,51,49
698400,note_on,480,0,4,,,,,,,,,3,,,44,0
698400,note_on,0,0,4,,,,,,,,,3,,,44,49
698400,note_on,0,0,4,,,,,,,,,3,,,32,49
698400,note_on,0,0,4,,,,,,,,,3,,,32,0
698559,note_on,319,0,3,,,,,,,,,2,,,51,0
698559,note_on,0,0,3,,,,,,,,,2,,,55,49
698880,note_on,0,0,1,,,,,,,,,0,,,82,62
698880,note_on,960,0,1,,,,,,,,,0,,,84,0
698880,note_on,0,0,2,,,,,,,,,1,,,70,49
698880,note_on,321,0,3,,,,,,,,,2,,,55,0
698880,note_on,960,0,2,,,,,,,,,1,,,72,0
698880,note_on,0,0,3,,,,,,,,,2,,,61,49
699200,note_on,320,0,3,,,,,,,,,2,,,61,0
699200,note_on,0,0,3,,,,,,,,,2,,,55,49
699360,note_on,0,0,4,,,,,,,,,3,,,32,0
699360,control_change,0,0,2,,,,,,,,,1,64,0,,
699360,note_on,960,0,4,,,,,,,,,3,,,44,0
699360,note_on,0,0,2,,,,,,,,,1,,,72,49
699360,control_change,0,0,1,,,,,,,,,0,64,0,,
699360,note_on,480,0,1,,,,,,,,,0,,,82,0
699360,note_on,0,0,4,,,,,,,,,3,,,32,49
699360,note_on,480,0,2,,,,,,,,,1,,,70,0
699360,note_on,0,0,1,,,,,,,,,0,,,84,62
699360,note_on,0,0,4,,,,,,,,,3,,,44,49
699519,note_on,319,0,3,,,,,,,,,2,,,55,0
699519,control_change,0,0,3,,,,,,,,,2,64,0,,
699519,note_on,0,0,3,,,,,,,,,2,,,51,49
699840,note_on,0,0,2,,,,,,,,,1,,,73,49
699840,note_on,0,0,4,,,,,,,,,3,,,44,49
699840,note_on,0,0,4,,,,,,,,,3,,,32,49
699840,note_on,0,0,4,,,,,,,,,3,,,32,0
699840,note_on,480,0,2,,,,,,,,,1,,,72,0
699840,note_on,0,0,1,,,,,,,,,0,,,85,62
699840,note_on,480,0,1,,,,,,,,,0,,,84,0
699840,note_on,321,0,3,,,,,,,,,2,,,51,0
699840,note_on,480,0,4,,,,,,,,,3,,,44,0
700160,control_change,320,0,3,,,,,,,,,2,64,127,,
700160,note_on,0,0,3,,,,,,,,,2,,,51,49
700320,note_on,480,0,4,,,,,,,,,3,,,44,0
700320,note_on,0,0,4,,,,,,,,,3,,,32,0
700320,note_on,0,0,4,,,,,,,,,3,,,32,49
700320,note_on,0,0,4,,,,,,,,,3,,,44,49
700479,note_on,319,0,3,,,,,,,,,2,,,51,0
700479,note_on,0,0,3,,,,,,,,,2,,,55,49
700560,note_on,720,0,2,,,,,,,,,1,,,73,0
700560,note_on,0,0,2,,,,,,,,,1,,,77,49
700560,note_on,720,0,1,,,,,,,,,0,,,85,0
700560,note_on,0,0,1,,,,,,,,,0,,,89,62
700800,note_on,0,0,1,,,,,,,,,0,,,89,62
700800,note_on,240,0,2,,,,,,,,,1,,,77,0
700800,note_on,240,0,1,,,,,,,,,0,,,89,0
700800,note_on,0,0,3,,,,,,,,,2,,,61,49
700800,note_on,0,0,2,,,,,,,,,1,,,77,49
700800,note_on,321,0,3,,,,,,,,,2,,,55,0
701120,note_on,320,0,3,,,,,,,,,2,,,61,0
701120,note_on,0,0,3,,,,,,,,,2,,,55,49
701280,note_on,0,0,4,,,,,,,,,3,,,44,49
701280,note_on,0,0,4,,,,,,,,,3,,,32,49
701280,note_on,960,0,4,,,,,,,,,3,,,44,0
701280,note_on,0,0,4,,,,,,,,,3,,,32,0
701439,note_on,319,0,3,,,,,,,,,2,,,55,0
701439,control_change,0,0,3,,,,,,,,,2,64,0,,
701439,note_on,0,0,3,,,,,,,,,2,,,51,49
701520,note_on,720,0,2,,,,,,,,,1,,,77,0
701520,note_on,0,0,1,,,,,,,,,0,,,82,62
701520,note_on,0,0,2,,,,,,,,,1,,,70,49
701520,note_on,720,0,1,,,,,,,,,0,,,89,0
701760,note_on,0,0,2,,,,,,,,,1,,,73,49
701760,note_on,0,0,4,,,,,,,,,3,,,44,49
701760,note_on,480,0,4,,,,,,,,,3,,,44,0
701760,note_on,240,0,2,,,,,,,,,1,,,70,0
701760,note_on,0,0,1,,,,,,,,,0,,,85,62
701760,note_on,0,0,4,,,,,,,,,3,,,32,49
701760,note_on,321,0,3,,,,,,,,,2,,,51,0
701760,note_on,240,0,1,,,,,,,,,0,,,82,0
701760,note_on,0,0,4,,,,,,,,,3,,,32,0
702080,note_on,0,0,3,,,,,,,,,2,,,51,49
702080,control_change,320,0,3,,,,,,,,,2,64,127,,
702240,note_on,0,0,4,,,,,,,,,3,,,32,0
702240,note_on,0,0,4,,,,,,,,,3,,,32,49
702240,note_on,0,0,4,,,,,,,,,3,,,44,49
702240,note_on,480,0,4,,,,,,,,,3,,,44,0
702399,note_on,0,0,3,,,,,,,,,2,,,56,49
702399,note_on,319,0,3,,,,,,,,,2,,,51,0
702720,note_on,0,0,3,,,,,,,,,2,,,60,49
702720,note_on,321,0,3,,,,,,,,,2,,,56,0
702720,note_on,960,0,1,,,,,,,,,0,,,85,0
702720,note_on,0,0,1,,,,,,,,,0,,,84,62
702720,note_on,960,0,2,,,,,,,,,1,,,73,0
702720,note_on,0,0,2,,,,,,,,,1,,,72,49
703040,note_on,0,0,3,,,,,,,,,2,,,56,49
703040,note_on,320,0,3,,,,,,,,,2,,,60,0
703200,note_on,0,0,4,,,,,,,,,3,,,32,49
703200,note_on,0,0,4,,,,,,,,,3,,,32,0
703200,note_on,960,0,4,,,,,,,,,3,,,44,0
703200,note_on,0,0,4,,,,,,,,,3,,,44,49
703359,note_on,0,0,3,,,,,,,,,2,,,51,49
703359,control_change,0,0,3,,,,,,,,,2,64,0,,
703359,note_on,319,0,3,,,,,,,,,2,,,56,0
703680,note_on,480,0,4,,,,,,,,,3,,,44,0
703680,note_on,0,0,4,,,,,,,,,3,,,44,49
703680,note_on,321,0,3,,,,,,,,,2,,,51,0
703680,note_on,0,0,4,,,,,,,,,3,,,32,0
703680,note_on,0,0,4,,,,,,,,,3,,,32,49
704000,note_on,0,0,3,,,,,,,,,2,,,51,49
704000,control_change,320,0,3,,,,,,,,,2,64,127,,
704160,note_on,1440,0,1,,,,,,,,,0,,,84,0
704160,note_on,0,0,2,,,,,,,,,1,,,70,49
704160,note_on,0,0,4,,,,,,,,,3,,,32,0
704160,note_on,480,0,4,,,,,,,,,3,,,44,0
704160,control_change,0,0,1,,,,,,,,,0,64,127,,
704160,note_on,1440,0,2,,,,,,,,,1,,,72,0
704160,control_change,0,0,2,,,,,,,,,1,64,127,,
704160,note_on,0,0,4,,,,,,,,,3,,,32,49
704160,note_on,0,0,1,,,,,,,,,0,,,82,62
704160,note_on,0,0,4,,,,,,,,,3,,,44,49
704319,note_on,319,0,3,,,,,,,,,2,,,51,0
704319,note_on,0,0,3,,,,,,,,,2,,,55,49
704319,note_on,0,0,3,,,,,,,,,2,,,58,49
704640,note_on,0,0,3,,,,,,,,,2,,,55,0
704640,note_on,0,0,2,,,,,,,,,1,,,72,49
704640,note_on,480,0,2,,,,,,,,,1,,,70,0
704640,note_on,0,0,3,,,,,,,,,2,,,60,49
704640,note_on,480,0,1,,,,,,,,,0,,,82,0
704640,note_on,0,0,1,,,,,,,,,0,,,84,62
704640,note_on,321,0,3,,,,,,,,,2,,,58,0
704640,note_on,0,0,3,,,,,,,,,2,,,56,49
704960,note_on,0,0,3,,,,,,,,,2,,,51,49
704960,note_on,0,0,3,,,,,,,,,2,,,56,0
704960,note_on,320,0,3,,,,,,,,,2,,,60,0
705120,note_on,0,0,4,,,,,,,,,3,,,32,0
705120,note_on,960,0,4,,,,,,,,,3,,,44,0
705120,note_on,0,0,4,,,,,,,,,3,,,44,49
705120,note_on,0,0,4,,,,,,,,,3,,,32,49
705120,control_change,0,0,1,,,,,,,,,0,64,0,,
705120,note_on,480,0,1,,,,,,,,,0,,,84,0
705120,note_on,0,0,1,,,,,,,,,0,,,85,62
705120,note_on,0,0,2,,,,,,,,,1,,,73,49
705120,control_change,0,0,2,,,,,,,,,1,64,0,,
705120,note_on,480,0,2,,,,,,,,,1,,,72,0
705279,note_on,0,0,3,,,,,,,,,2,,,61,49
705279,note_on,0,0,3,,,,,,,,,2,,,58,49
705279,control_change,0,0,3,,,,,,,,,2,64,0,,
705279,note_on,319,0,3,,,,,,,,,2,,,51,0
705600,note_on,0,0,3,,,,,,,,,2,,,58,0
705600,note_on,321,0,3,,,,,,,,,2,,,61,0
705600,note_on,480,0,4,,,,,,,,,3,,,44,0
705600,note_on,0,0,2,,,,,,,,,1,,,75,49
705600,note_on,0,0,4,,,,,,,,,3,,,32,0
705600,note_on,0,0,4,,,,,,,,,3,,,32,49
705600,note_on,480,0,2,,,,,,,,,1,,,73,0
705600,note_on,480,0,1,,,,,,,,,0,,,85,0
705600,note_on,0,0,4,,,,,,,,,3,,,44,49
705600,note_on,0,0,1,,,,,,,,,0,,,87,62
705920,control_change,320,0,3,,,,,,,,,2,64,127,,
705920,note_on,0,0,3,,,,,,,,,2,,,51,49
706080,note_on,480,0,4,,,,,,,,,3,,,44,0
706080,note_on,0,0,4,,,,,,,,,3,,,44,49
706080,note_on,0,0,4,,,,,,,,,3,,,32,49
706080,note_on,0,0,4,,,,,,,,,3,,,32,0
706239,note_on,319,0,3,,,,,,,,,2,,,51,0
706239,note_on,0,0,3,,,,,,,,,2,,,60,49
706320,note_on,720,0,2,,,,,,,,,1,,,75,0
706320,note_on,0,0,2,,,,,,,,,1,,,80,49
706320,note_on,0,0,1,,,,,,,,,0,,,92,62
706320,note_on,720,0,1,,,,,,,,,0,,,87,0
706560,note_on,0,0,3,,,,,,,,,2,,,63,49
706560,note_on,321,0,3,,,,,,,,,2,,,60,0
706560,note_on,240,0,1,,,,,,,,,0,,,92,0
706560,note_on,0,0,2,,,,,,,,,1,,,80,49
706560,note_on,240,0,2,,,,,,,,,1,,,80,0
706560,note_on,0,0,1,,,,,,,,,0,,,92,62
706880,note_on,0,0,3,,,,,,,,,2,,,60,49
706880,note_on,320,0,3,,,,,,,,,2,,,63,0
707040,note_on,0,0,4,,,,,,,,,3,,,32,0
707040,note_on,960,0,4,,,,,,,,,3,,,44,0
707040,note_on,0,0,4,,,,,,,,,3,,,44,49
707040,note_on,0,0,4,,,,,,,,,3,,,32,49
707199,note_on,0,0,3,,,,,,,,,2,,,51,49
707199,control_change,0,0,3,,,,,,,,,2,64,0,,
707199,note_on,319,0,3,,,,,,,,,2,,,60,0
707280,note_on,0,0,2,,,,,,,,,1,,,72,49
707280,note_on,720,0,2,,,,,,,,,1,,,80,0
707280,note_on,0,0,1,,,,,,,,,0,,,84,62
707280,note_on,720,0,1,,,,,,,,,0,,,92,0
707520,note_on,0,0,4,,,,,,,,,3,,,48,49
707520,note_on,0,0,1,,,,,,,,,0,,,84,62
707520,note_on,240,0,1,,,,,,,,,0,,,84,0
707520,note_on,0,0,2,,,,,,,,,1,,,72,49
707520,note_on,0,0,4,,,,,,,,,3,,,36,49
707520,note_on,0,0,4,,,,,,,,,3,,,32,0
707520,note_on,480,0,4,,,,,,,,,3,,,44,0
707520,note_on,321,0,3,,,,,,,,,2,,,51,0
707520,note_on,240,0,2,,,,,,,,,1,,,72,0
707840,control_change,320,0,3,,,,,,,,,2,64,127,,
707840,note_on,0,0,3,,,,,,,,,2,,,56,49
708000,note_on,480,0,4,,,,,,,,,3,,,48,0
708000,note_on,0,0,4,,,,,,,,,3,,,36,0
708000,note_on,0,0,4,,,,,,,,,3,,,36,49
708000,note_on,0,0,4,,,,,,,,,3,,,48,49
708159,note_on,0,0,3,,,,,,,,,2,,,60,49
708159,note_on,319,0,3,,,,,,,,,2,,,56,0
708240,note_on,0,0,2,,,,,,,,,1,,,75,49
708240,note_on,0,0,1,,,,,,,,,0,,,87,62
708240,note_on,720,0,1,,,,,,,,,0,,,84,0
708240,note_on,720,0,2,,,,,,,,,1,,,72,0
708480,note_on,321,0,3,,,,,,,,,2,,,60,0
708480,note_on,0,0,3,,,,,,,,,2,,,63,49
708480,note_on,240,0,1,,,,,,,,,0,,,87,0
708480,note_on,0,0,2,,,,,,,,,1,,,75,49
708480,note_on,0,0,1,,,,,,,,,0,,,87,62
708480,note_on,240,0,2,,,,,,,,,1,,,75,0
708800,note_on,0,0,3,,,,,,,,,2,,,60,49
708800,note_on,320,0,3,,,,,,,,,2,,,63,0
708960,note_on,0,0,4,,,,,,,,,3,,,36,0
708960,note_on,960,0,4,,,,,,,,,3,,,48,0
708960,note_on,0,0,4,,,,,,,,,3,,,48,49
708960,note_on,0,0,4,,,,,,,,,3,,,36,49
709119,note_on,319,0,3,,,,,,,,,2,,,60,0
709119,control_change,0,0,3,,,,,,,,,2,64,0,,
709119,note_on,0,0,3,,,,,,,,,2,,,56,49
709200,note_on,720,0,2,,,,,,,,,1,,,75,0
709200,note_on,0,0,1,,,,,,,,,0,,,80,62
709200,note_on,720,0,1,,,,,,,,,0,,,87,0
709200,note_on,0,0,2,,,,,,,,,1,,,68,49
709440,note_on,321,0,3,,,,,,,,,2,,,56,0
709440,note_on,240,0,1,,,,,,,,,0,,,80,0
709440,note_on,480,0,4,,,,,,,,,3,,,48,0
709440,control_change,0,0,1,,,,,,,,,0,64,127,,
709440,note_on,0,0,1,,,,,,,,,0,,,80,62
709440,note_on,0,0,2,,,,,,,,,1,,,68,62
709440,control_change,0,0,2,,,,,,,,,1,64,127,,
709440,note_on,240,0,2,,,,,,,,,1,,,68,0
709440,note_on,0,0,4,,,,,,,,,3,,,36,0
709440,note_on,0,0,4,,,,,,,,,3,,,39,49
709440,note_on,0,0,4,,,,,,,,,3,,,51,49
709760,control_change,320,0,3,,,,,,,,,2,64,127,,
709760,note_on,0,0,3,,,,,,,,,2,,,60,49
709920,note_on,0,0,4,,,,,,,,,3,,,51,49
709920,note_on,0,0,4,,,,,,,,,3,,,39,0
709920,note_on,0,0,4,,,,,,,,,3,,,39,49
709920,note_on,480,0,4,,,,,,,,,3,,,51,0
710079,note_on,319,0,3,,,,,,,,,2,,,60,0
710079,note_on,0,0,3,,,,,,,,,2,,,63,49
710160,note_on,720,0,1,,,,,,,,,0,,,80,0
710160,note_on,720,0,2,,,,,,,,,1,,,68,0
710160,note_on,0,0,2,,,,,,,,,1,,,69,62
710160,note_on,0,0,1,,,,,,,,,0,,,81,62
710400,note_on,321,0,3,,,,,,,,,2,,,63,0
710400,note_on,0,0,3,,,,,,,,,2,,,61,62
710400,note_on,0,0,1,,,,,,,,,0,,,82,75
710400,note_on,240,0,1,,,,,,,,,0,,,81,0
710400,note_on,0,0,2,,,,,,,,,1,,,70,75
710400,note_on,240,0,2,,,,,,,,,1,,,69,0
710720,note_on,0,0,3,,,,,,,,,2,,,63,62
710720,note_on,320,0,3,,,,,,,,,2,,,61,0
710880,note_on,0,0,4,,,,,,,,,3,,,39,0
710880,note_on,0,0,4,,,,,,,,,3,,,51,49
710880,note_on,960,0,4,,,,,,,,,3,,,51,0
710880,note_on,0,0,4,,,,,,,,,3,,,39,49
711039,note_on,319,0,3,,,,,,,,,2,,,63,0
711039,control_change,0,0,3,,,,,,,,,2,64,0,,
711039,note_on,0,0,3,,,,,,,,,2,,,61,62
711120,note_on,720,0,2,,,,,,,,,1,,,70,0
711120,note_on,0,0,1,,,,,,,,,0,,,83,75
711120,note_on,720,0,1,,,,,,,,,0,,,82,0
711120,control_change,0,0,1,,,,,,,,,0,64,0,,
711120,control_change,0,0,2,,,,,,,,,1,64,0,,
711120,note_on,0,0,2,,,,,,,,,1,,,71,75
711360,note_on,0,0,4,,,,,,,,,3,,,39,0
711360,control_change,0,0,3,,,,,,,,,2,64,127,,
711360,note_on,0,0,3,,,,,,,,,2,,,55,62
711360,note_on,480,0,4,,,,,,,,,3,,,51,0
711360,note_on,0,0,2,,,,,,,,,1,,,71,88
711360,control_change,0,0,2,,,,,,,,,1,64,127,,
711360,note_on,240,0,1,,,,,,,,,0,,,83,0
711360,control_change,0,0,1,,,,,,,,,0,64,127,,
711360,note_on,0,0,1,,,,,,,,,0,,,83,88
711360,note_on,0,0,4,,,,,,,,,3,,,44,49
711360,note_on,321,0,3,,,,,,,,,2,,,61,0
711360,note_on,240,0,2,,,,,,,,,1,,,71,0
711680,note_on,320,0,3,,,,,,,,,2,,,55,0
711680,note_on,0,0,3,,,,,,,,,2,,,63,62
711840,note_on,0,0,4,,,,,,,,,3,,,44,49
711840,note_on,480,0,4,,,,,,,,,3,,,44,0
711999,note_on,0,0,3,,,,,,,,,2,,,61,62
711999,note_on,319,0,3,,,,,,,,,2,,,63,0
712320,note_on,0,0,1,,,,,,,,,0,,,84,75
712320,note_on,321,0,3,,,,,,,,,2,,,61,0
712320,note_on,0,0,3,,,,,,,,,2,,,60,49
712320,note_on,960,0,1,,,,,,,,,0,,,83,0
712320,note_on,960,0,2,,,,,,,,,1,,,71,0
712320,note_on,0,0,2,,,,,,,,,1,,,72,75
712640,note_on,320,0,3,,,,,,,,,2,,,60,0
712640,note_on,0,0,3,,,,,,,,,2,,,56,49
712800,note_on,960,0,4,,,,,,,,,3,,,44,0
712800,note_on,480,0,2,,,,,,,,,1,,,72,0
712800,note_on,480,0,1,,,,,,,,,0,,,84,0
712800,control_change,0,0,1,,,,,,,,,0,64,0,,
712800,note_on,0,0,1,,,,,,,,,0,,,85,62
712800,control_change,0,0,2,,,,,,,,,1,64,0,,
712800,note_on,0,0,2,,,,,,,,,1,,,73,62
712800,note_on,0,0,4,,,,,,,,,3,,,44,49
712959,note_on,0,0,3,,,,,,,,,2,,,61,49
712959,note_on,319,0,3,,,,,,,,,2,,,56,0
712959,control_change,0,0,3,,,,,,,,,2,64,0,,
712959,note_on,0,0,3,,,,,,,,,2,,,58,49
713280,note_on,0,0,4,,,,,,,,,3,,,32,49
713280,note_on,0,0,1,,,,,,,,,0,,,87,62
713280,note_on,480,0,1,,,,,,,,,0,,,85,0
713280,note_on,321,0,3,,,,,,,,,2,,,61,0
713280,note_on,0,0,3,,,,,,,,,2,,,58,0
713280,note_on,480,0,2,,,,,,,,,1,,,73,0
713280,note_on,0,0,2,,,,,,,,,1,,,75,62
713280,note_on,0,0,4,,,,,,,,,3,,,44,49
713280,note_on,480,0,4,,,,,,,,,3,,,44,0
713600,note_on,0,0,3,,,,,,,,,2,,,51,49
713600,control_change,320,0,3,,,,,,,,,2,64,127,,
713760,note_on,0,0,4,,,,,,,,,3,,,44,49
713760,note_on,0,0,4,,,,,,,,,3,,,32,49
713760,note_on,0,0,4,,,,,,,,,3,,,32,0
713760,note_on,480,0,4,,,,,,,,,3,,,44,0
713919,note_on,319,0,3,,,,,,,,,2,,,51,0
713919,note_on,0,0,3,,,,,,,,,2,,,60,49
714000,note_on,0,0,2,,,,,,,,,1,,,80,62
714000,note_on,720,0,1,,,,,,,,,0,,,87,0
714000,note_on,720,0,2,,,,,,,,,1,,,75,0
714000,note_on,0,0,1,,,,,,,,,0,,,92,62
714240,note_on,0,0,3,,,,,,,,,2,,,63,49
714240,note_on,321,0,3,,,,,,,,,2,,,60,0
714240,note_on,0,0,1,,,,,,,,,0,,,92,62
714240,note_on,240,0,1,,,,,,,,,0,,,92,0
714240,note_on,240,0,2,,,,,,,,,1,,,80,0
714240,note_on,0,0,2,,,,,,,,,1,,,80,62
714560,note_on,320,0,3,,,,,,,,,2,,,63,0
714560,note_on,0,0,3,,,,,,,,,2,,,60,49
714720,note_on,960,0,4,,,,,,,,,3,,,44,0
714720,note_on,0,0,4,,,,,,,,,3,,,32,0
714720,note_on,0,0,4,,,,,,,,,3,,,44,49
714720,note_on,0,0,4,,,,,,,,,3,,,32,49
714879,note_on,0,0,3,,,,,,,,,2,,,51,49
714879,control_change,0,0,3,,,,,,,,,2,64,0,,
714879,note_on,319,0,3,,,,,,,,,2,,,60,0
714960,note_on,720,0,1,,,,,,,,,0,,,92,0
714960,note_on,0,0,1,,,,,,,,,0,,,84,62
714960,note_on,0,0,2,,,,,,,,,1,,,72,62
714960,note_on,720,0,2,,,,,,,,,1,,,80,0
715200,note_on,0,0,1,,,,,,,,,0,,,84,62
715200,note_on,240,0,1,,,,,,,,,0,,,84,0
715200,note_on,0,0,2,,,,,,,,,1,,,72,62
715200,note_on,240,0,2,,,,,,,,,1,,,72,0
715200,note_on,0,0,4,,,,,,,,,3,,,48,49
715200,note_on,0,0,4,,,,,,,,,3,,,36,49
715200,note_on,0,0,4,,,,,,,,,3,,,32,0
715200,note_on,480,0,4,,,,,,,,,3,,,44,0
715200,note_on,321,0,3,,,,,,,,,2,,,51,0
715520,control_change,320,0,3,,,,,,,,,2,64,127,,
715520,note_on,0,0,3,,,,,,,,,2,,,56,49
715680,note_on,480,0,4,,,,,,,,,3,,,48,0
715680,note_on,0,0,4,,,,,,,,,3,,,36,0
715680,note_on,0,0,4,,,,,,,,,3,,,36,49
715680,note_on,0,0,4,,,,,,,,,3,,,48,49
715839,note_on,319,0,3,,,,,,,,,2,,,56,0
715839,note_on,0,0,3,,,,,,,,,2,,,60,49
715920,note_on,720,0,1,,,,,,,,,0,,,84,0
715920,note_on,720,0,2,,,,,,,,,1,,,72,0
715920,note_on,0,0,2,,,,,,,,,1,,,75,62
715920,note_on,0,0,1,,,,,,,,,0,,,87,62
716160,note_on,240,0,1,,,,,,,,,0,,,87,0
716160,note_on,0,0,1,,,,,,,,,0,,,87,62
716160,note_on,321,0,3,,,,,,,,,2,,,60,0
716160,note_on,0,0,3,,,,,,,,,2,,,63,49
716160,note_on,0,0,2,,,,,,,,,1,,,75,62
716160,note_on,240,0,2,,,,,,,,,1,,,75,0
716480,note_on,0,0,3,,,,,,,,,2,,,60,49
716480,note_on,320,0,3,,,,,,,,,2,,,63,0
716640,note_on,0,0,4,,,,,,,,,3,,,36,49
716640,note_on,0,0,4,,,,,,,,,3,,,48,49
716640,note_on,0,0,4,,,,,,,,,3,,,36,0
716640,note_on,960,0,4,,,,,,,,,3,,,48,0
716799,note_on,0,0,3,,,,,,,,,2,,,56,49
716799,control_change,0,0,3,,,,,,,,,2,64,0,,
716799,note_on,319,0,3,,,,,,,,,2,,,60,0
716880,note_on,720,0,1,,,,,,,,,0,,,87,0
716880,note_on,0,0,2,,,,,,,,,1,,,68,62
716880,note_on,720,0,2,,,,,,,,,1,,,75,0
716880,note_on,0,0,1,,,,,,,,,0,,,80,62
717120,note_on,0,0,4,,,,,,,,,3,,,36,0
717120,note_on,480,0,4,,,,,,,,,3,,,48,0
717120,note_on,240,0,1,,,,,,,,,0,,,80,0
717120,control_change,0,0,1,,,,,,,,,0,64,127,,
717120,note_on,0,0,1,,,,,,,,,0,,,80,62
717120,note_on,0,0,4,,,,,,,,,3,,,39,49
717120,note_on,0,0,4,,,,,,,,,3,,,51,49
717120,note_on,321,0,3,,,,,,,,,2,,,56,0
717120,note_on,0,0,2,,,,,,,,,1,,,68,62
717120,control_change,0,0,2,,,,,,,,,1,64,127,,
717120,note_on,240,0,2,,,,,,,,,1,,,68,0
717312,note_on,0,0,1,,,,,,,,,0,,,82,62
717312,note_on,192,0,1,,,,,,,,,0,,,80,0
717312,note_on,192,0,2,,,,,,,,,1,,,68,0
717312,note_on,0,0,2,,,,,,,,,1,,,70,62
717440,note_on,0,0,3,,,,,,,,,2,,,60,49
717440,control_change,320,0,3,,,,,,,,,2,64,127,,
717503,note_on,0,0,1,,,,,,,,,0,,,80,62
717503,note_on,191,0,1,,,,,,,,,0,,,82,0
717503,note_on,0,0,2,,,,,,,,,1,,,68,62
717503,note_on,191,0,2,,,,,,,,,1,,,70,0
717600,note_on,480,0,4,,,,,,,,,3,,,51,0
717600,note_on,0,0,4,,,,,,,,,3,,,39,0
717600,note_on,0,0,4,,,,,,,,,3,,,39,49
717600,note_on,0,0,4,,,,,,,,,3,,,51,49
717696,note_on,193,0,1,,,,,,,,,0,,,80,0
717696,note_on,0,0,1,,,,,,,,,0,,,79,62
717696,note_on,193,0,2,,,,,,,,,1,,,68,0
717696,note_on,0,0,2,,,,,,,,,1,,,67,62
717759,note_on,0,0,3,,,,,,,,,2,,,63,49
717759,note_on,319,0,3,,,,,,,,,2,,,60,0
717887,note_on,191,0,2,,,,,,,,,1,,,67,0
717887,note_on,0,0,2,,,,,,,,,1,,,68,62
717887,note_on,191,0,1,,,,,,,,,0,,,79,0
717887,note_on,0,0,1,,,,,,,,,0,,,80,62
718080,note_on,193,0,2,,,,,,,,,1,,,68,0
718080,note_on,0,0,2,,,,,,,,,1,,,72,62
718080,note_on,0,0,3,,,,,,,,,2,,,61,49
718080,note_on,321,0,3,,,,,,,,,2,,,63,0
718080,note_on,193,0,1,,,,,,,,,0,,,80,0
718080,note_on,0,0,1,,,,,,,,,0,,,84,62
718400,note_on,0,0,3,,,,,,,,,2,,,63,49
718400,note_on,320,0,3,,,,,,,,,2,,,61,0
718560,note_on,0,0,4,,,,,,,,,3,,,39,0
718560,note_on,0,0,4,,,,,,,,,3,,,51,49
718560,note_on,0,0,4,,,,,,,,,3,,,39,49
718560,note_on,960,0,4,,,,,,,,,3,,,51,0
718719,note_on,0,0,3,,,,,,,,,2,,,61,49
718719,control_change,0,0,3,,,,,,,,,2,64,0,,
718719,note_on,319,0,3,,,,,,,,,2,,,63,0
718800,note_on,0,0,2,,,,,,,,,1,,,70,62
718800,control_change,0,0,2,,,,,,,,,1,64,0,,
718800,note_on,720,0,2,,,,,,,,,1,,,72,0
718800,control_change,0,0,1,,,,,,,,,0,64,0,,
718800,note_on,720,0,1,,,,,,,,,0,,,84,0
718800,note_on,0,0,1,,,,,,,,,0,,,82,62
719040,note_on,240,0,1,,,,,,,,,0,,,82,0
719040,control_change,0,0,2,,,,,,,,,1,64,127,,
719040,note_on,240,0,2,,,,,,,,,1,,,70,0
719040,note_on,0,0,4,,,,,,,,,3,,,44,49
719040,note_on,0,0,3,,,,,,,,,2,,,60,49
719040,note_on,321,0,3,,,,,,,,,2,,,61,0
719040,note_on,0,0,4,,,,,,,,,3,,,39,0
719040,note_on,0,0,2,,,,,,,,,1,,,68,62
719040,note_on,0,0,1,,,,,,,,,0,,,80,62
719040,control_change,0,0,1,,,,,,,,,0,64,127,,
719040,note_on,480,0,4,,,,,,,,,3,,,51,0
719040,control_change,0,0,3,,,,,,,,,2,64,127,,
719360,note_on,320,0,3,,,,,,,,,2,,,60,0
719360,note_on,0,0,3,,,,,,,,,2,,,63,49
719520,note_on,0,0,4,,,,,,,,,3,,,44,49
719520,note_on,480,0,4,,,,,,,,,3,,,44,0
719679,note_on,319,0,3,,,,,,,,,2,,,63,0
719679,note_on,0,0,3,,,,,,,,,2,,,59,49
720000,note_on,321,0,3,,,,,,,,,2,,,59,0
720000,note_on,0,0,3,,,,,,,,,2,,,60,49
720320,note_on,320,0,3,,,,,,,,,2,,,60,0
720320,note_on,0,0,3,,,,,,,,,2,,,56,49
720480,note_on,0,0,4,,,,,,,,,3,,,44,49
720480,note_on,960,0,4,,,,,,,,,3,,,44,0
720639,note_on,319,0,3,,,,,,,,,2,,,56,0
720639,control_change,0,0,3,,,,,,,,,2,64,0,,
720639,note_on,0,0,3,,,,,,,,,2,,,51,49
720960,note_on,321,0,3,,,,,,,,,2,,,51,0
720960,note_on,0,0,3,,,,,,,,,2,,,48,49
720960,note_on,480,0,4,,,,,,,,,3,,,44,0
720960,note_on,0,0,4,,,,,,,,,3,,,44,49
721440,note_on,480,0,3,,,,,,,,,2,,,48,0
721440,note_on,480,0,4,,,,,,,,,3,,,44,0
721440,note_on,0,0,4,,,,,,,,,3,,,44,49
721440,note_on,2400,0,1,,,,,,,,,0,,,80,0
721440,note_on,0,0,3,,,,,,,,,2,,,60,49
721440,note_on,2400,0,2,,,,,,,,,1,,,68,0
721440,note_on,0,0,2,,,,,,,,,1,,,63,49
721440,note_on,0,0,1,,,,,,,,,0,,,68,62
721920,note_on,0,0,1,,,,,,,,,0,,,72,62
721920,note_on,0,0,2,,,,,,,,,1,,,63,49
721920,note_on,480,0,2,,,,,,,,,1,,,63,0
721920,note_on,480,0,1,,,,,,,,,0,,,68,0
722400,note_on,0,0,3,,,,,,,,,2,,,60,62
722400,note_on,960,0,3,,,,,,,,,2,,,60,0
722400,note_on,0,0,4,,,,,,,,,3,,,48,49
722400,note_on,960,0,4,,,,,,,,,3,,,44,0
722640,note_on,720,0,2,,,,,,,,,1,,,63,0
722640,note_on,0,0,2,,,,,,,,,1,,,63,49
722640,note_on,0,0,1,,,,,,,,,0,,,68,75
722640,control_change,0,0,1,,,,,,,,,0,64,0,,
722640,note_on,720,0,1,,,,,,,,,0,,,72,0
722880,note_on,0,0,4,,,,,,,,,3,,,51,49
722880,note_on,0,0,1,,,,,,,,,0,,,68,88
722880,control_change,0,0,1,,,,,,,,,0,64,127,,
722880,note_on,0,0,2,,,,,,,,,1,,,63,49
722880,note_on,240,0,2,,,,,,,,,1,,,63,0
722880,note_on,480,0,3,,,,,,,,,2,,,60,0
722880,note_on,0,0,3,,,,,,,,,2,,,61,75
722880,note_on,240,0,1,,,,,,,,,0,,,68,0
722880,note_on,480,0,4,,,,,,,,,3,,,48,0
723360,note_on,480,0,4,,,,,,,,,3,,,51,0
723360,note_on,0,0,4,,,,,,,,,3,,,51,49
723840,note_on,960,0,1,,,,,,,,,0,,,68,0
723840,note_on,0,0,1,,,,,,,,,0,,,67,75
724320,control_change,0,0,1,,,,,,,,,0,64,0,,
724320,note_on,960,0,4,,,,,,,,,3,,,51,0
724320,note_on,0,0,4,,,,,,,,,3,,,51,49
724320,note_on,1440,0,2,,,,,,,,,1,,,63,0
724320,note_on,0,0,2,,,,,,,,,1,,,65,49
724320,note_on,480,0,1,,,,,,,,,0,,,67,0
724320,note_on,0,0,1,,,,,,,,,0,,,68,62
724800,note_on,480,0,1,,,,,,,,,0,,,68,0
724800,control_change,0,0,1,,,,,,,,,0,64,127,,
724800,note_on,480,0,4,,,,,,,,,3,,,51,0
724800,note_on,0,0,1,,,,,,,,,0,,,70,62
724800,note_on,0,0,4,,,,,,,,,3,,,51,49
724800,note_on,0,0,2,,,,,,,,,1,,,67,49
724800,note_on,480,0,2,,,,,,,,,1,,,65,0
725280,note_on,0,0,1,,,,,,,,,0,,,72,62
725280,note_on,0,0,3,,,,,,,,,2,,,60,62
725280,control_change,0,0,3,,,,,,,,,2,64,127,,
725280,note_on,2400,0,3,,,,,,,,,2,,,61,0
725280,note_on,0,0,2,,,,,,,,,1,,,63,49
725280,note_on,480,0,1,,,,,,,,,0,,,70,0
725280,note_on,480,0,2,,,,,,,,,1,,,67,0
725280,note_on,480,0,4,,,,,,,,,3,,,51,0
725280,note_on,0,0,4,,,,,,,,,3,,,51,49
725760,note_on,0,0,1,,,,,,,,,0,,,73,62
725760,note_on,0,0,3,,,,,,,,,2,,,58,62
725760,note_on,480,0,3,,,,,,,,,2,,,60,0
725760,note_on,480,0,1,,,,,,,,,0,,,72,0
725760,note_on,480,0,2,,,,,,,,,1,,,63,0
725760,note_on,0,0,2,,,,,,,,,1,,,65,49
726240,note_on,0,0,3,,,,,,,,,2,,,63,49
726240,control_change,0,0,3,,,,,,,,,2,64,0,,
726240,note_on,480,0,3,,,,,,,,,2,,,58,0
726240,note_on,960,0,4,,,,,,,,,3,,,51,0
726240,control_change,0,0,1,,,,,,,,,0,64,0,,
726240,note_on,0,0,1,,,,,,,,,0,,,75,62
726240,note_on,480,0,2,,,,,,,,,1,,,65,0
726240,note_on,0,0,4,,,,,,,,,3,,,51,49
726240,note_on,480,0,1,,,,,,,,,0,,,73,0
726240,note_on,0,0,2,,,,,,,,,1,,,67,49
726720,note_on,0,0,4,,,,,,,,,3,,,44,49
726720,note_on,480,0,4,,,,,,,,,3,,,51,0
726720,note_on,480,0,3,,,,,,,,,2,,,63,0
726720,note_on,0,0,2,,,,,,,,,1,,,70,49
726720,note_on,480,0,2,,,,,,,,,1,,,67,0
726720,note_on,0,0,3,,,,,,,,,2,,,63,49
726720,note_on,0,0,1,,,,,,,,,0,,,73,62
726720,note_on,480,0,1,,,,,,,,,0,,,75,0
727200,note_on,480,0,4,,,,,,,,,3,,,44,0
727200,note_on,0,0,4,,,,,,,,,3,,,44,49
727680,note_on,960,0,1,,,,,,,,,0,,,73,0
727680,note_on,960,0,2,,,,,,,,,1,,,70,0
727680,note_on,0,0,2,,,,,,,,,1,,,68,49
727680,note_on,0,0,1,,,,,,,,,0,,,72,62
728160,note_on,960,0,4,,,,,,,,,3,,,44,0
728160,note_on,0,0,4,,,,,,,,,3,,,44,49
728640,note_on,480,0,4,,,,,,,,,3,,,44,0
728640,note_on,0,0,4,,,,,,,,,3,,,44,49
729120,note_on,0,0,4,,,,,,,,,3,,,44,49
729120,note_on,480,0,4,,,,,,,,,3,,,44,0
729120,note_on,2400,0,3,,,,,,,,,2,,,63,0
729600,note_on,480,0,3,,,,,,,,,2,,,51,49
729600,note_on,0,0,2,,,,,,,,,1,,,68,62
729600,note_on,1920,0,2,,,,,,,,,1,,,68,0
729600,note_on,0,0,1,,,,,,,,,0,,,84,62
729600,note_on,0,0,1,,,,,,,,,0,,,72,62
729600,note_on,1920,0,1,,,,,,,,,0,,,72,0
729600,note_on,0,0,2,,,,,,,,,1,,,56,62
730080,note_on,0,0,4,,,,,,,,,3,,,48,49
730080,note_on,960,0,4,,,,,,,,,3,,,44,0
730320,note_on,0,0,2,,,,,,,,,1,,,56,0
730320,note_on,720,0,2,,,,,,,,,1,,,68,0
730320,note_on,0,0,2,,,,,,,,,1,,,60,75
730320,note_on,0,0,2,,,,,,,,,1,,,68,75
730320,note_on,0,0,1,,,,,,,,,0,,,72,0
730320,note_on,0,0,1,,,,,,,,,0,,,72,75
730320,note_on,0,0,1,,,,,,,,,0,,,80,75
730320,note_on,720,0,1,,,,,,,,,0,,,84,0
730560,note_on,240,0,2,,,,,,,,,1,,,68,0
730560,note_on,0,0,4,,,,,,,,,3,,,39,49
730560,note_on,0,0,4,,,,,,,,,3,,,51,49
730560,note_on,240,0,1,,,,,,,,,0,,,80,0
730560,note_on,0,0,1,,,,,,,,,0,,,72,0
730560,note_on,0,0,1,,,,,,,,,0,,,75,88
730560,note_on,0,0,1,,,,,,,,,0,,,80,88
730560,control_change,0,0,1,,,,,,,,,0,64,127,,
730560,note_on,960,0,3,,,,,,,,,2,,,51,0
730560,note_on,0,0,3,,,,,,,,,2,,,61,75
730560,note_on,0,0,2,,,,,,,,,1,,,60,0
730560,note_on,480,0,4,,,,,,,,,3,,,48,0
730560,note_on,0,0,2,,,,,,,,,1,,,63,88
730560,note_on,0,0,2,,,,,,,,,1,,,68,88
730560,control_change,0,0,2,,,,,,,,,1,64,127,,
731040,note_on,0,0,4,,,,,,,,,3,,,51,49
731040,note_on,0,0,4,,,,,,,,,3,,,39,49
731040,note_on,0,0,4,,,,,,,,,3,,,39,0
731040,note_on,480,0,4,,,,,,,,,3,,,51,0
731520,note_on,960,0,1,,,,,,,,,0,,,80,0
731520,note_on,0,0,1,,,,,,,,,0,,,79,75
731520,note_on,0,0,2,,,,,,,,,1,,,67,75
731520,note_on,960,0,2,,,,,,,,,1,,,68,0
732000,note_on,0,0,4,,,,,,,,,3,,,39,49
732000,note_on,0,0,1,,,,,,,,,0,,,75,0
732000,note_on,0,0,1,,,,,,,,,0,,,80,62
732000,control_change,0,0,1,,,,,,,,,0,64,0,,
732000,note_on,960,0,4,,,,,,,,,3,,,51,0
732000,note_on,0,0,4,,,,,,,,,3,,,39,0
732000,note_on,480,0,1,,,,,,,,,0,,,79,0
732000,note_on,0,0,4,,,,,,,,,3,,,51,49
732000,note_on,0,0,1,,,,,,,,,0,,,77,62
732000,note_on,480,0,2,,,,,,,,,1,,,67,0
732000,note_on,0,0,2,,,,,,,,,1,,,63,0
732000,control_change,0,0,2,,,,,,,,,1,64,0,,
732000,note_on,0,0,2,,,,,,,,,1,,,65,62
732000,note_on,0,0,2,,,,,,,,,1,,,68,62
732480,note_on,0,0,4,,,,,,,,,3,,,39,0
732480,note_on,480,0,4,,,,,,,,,3,,,51,0
732480,control_change,0,0,1,,,,,,,,,0,64,127,,
732480,note_on,0,0,1,,,,,,,,,0,,,82,62
732480,note_on,0,0,1,,,,,,,,,0,,,79,62
732480,note_on,0,0,1,,,,,,,,,0,,,77,0
732480,note_on,480,0,1,,,,,,,,,0,,,80,0
732480,note_on,0,0,2,,,,,,,,,1,,,70,62
732480,note_on,0,0,4,,,,,,,,,3,,,51,49
732480,note_on,480,0,2,,,,,,,,,1,,,68,0
732480,note_on,0,0,2,,,,,,,,,1,,,65,0
732480,control_change,0,0,2,,,,,,,,,1,64,127,,
732480,note_on,0,0,2,,,,,,,,,1,,,67,62
732480,note_on,0,0,4,,,,,,,,,3,,,39,49
732960,note_on,0,0,1,,,,,,,,,0,,,75,62
732960,note_on,0,0,4,,,,,,,,,3,,,39,49
732960,note_on,0,0,4,,,,,,,,,3,,,51,49
732960,note_on,480,0,1,,,,,,,,,0,,,82,0
732960,note_on,0,0,1,,,,,,,,,0,,,79,0
732960,note_on,0,0,1,,,,,,,,,0,,,84,62
732960,note_on,480,0,4,,,,,,,,,3,,,51,0
732960,note_on,0,0,2,,,,,,,,,1,,,72,62
732960,note_on,0,0,2,,,,,,,,,1,,,63,62
732960,note_on,0,0,2,,,,,,,,,1,,,67,0
732960,note_on,2400,0,3,,,,,,,,,2,,,61,0
732960,note_on,0,0,3,,,,,,,,,2,,,60,49
732960,note_on,480,0,2,,,,,,,,,1,,,70,0
732960,note_on,0,0,4,,,,,,,,,3,,,39,0
733440,note_on,0,0,1,,,,,,,,,0,,,75,0
733440,note_on,0,0,1,,,,,,,,,0,,,77,62
733440,note_on,0,0,1,,,,,,,,,0,,,85,62
733440,note_on,480,0,3,,,,,,,,,2,,,60,0
733440,note_on,0,0,3,,,,,,,,,2,,,58,49
733440,note_on,480,0,1,,,,,,,,,0,,,84,0
733440,note_on,480,0,2,,,,,,,,,1,,,72,0
733440,note_on,0,0,2,,,,,,,,,1,,,63,0
733440,note_on,0,0,2,,,,,,,,,1,,,65,62
733440,note_on,0,0,2,,,,,,,,,1,,,73,62
733920,note_on,0,0,4,,,,,,,,,3,,,39,49
733920,note_on,0,0,1,,,,,,,,,0,,,79,62
733920,note_on,0,0,1,,,,,,,,,0,,,87,62
733920,note_on,0,0,3,,,,,,,,,2,,,63,49
733920,note_on,480,0,3,,,,,,,,,2,,,58,0
733920,control_change,0,0,1,,,,,,,,,0,64,0,,
733920,note_on,0,0,4,,,,,,,,,3,,,51,49
733920,note_on,960,0,4,,,,,,,,,3,,,51,0
733920,note_on,0,0,2,,,,,,,,,1,,,75,62
733920,note_on,480,0,1,,,,,,,,,0,,,85,0
733920,control_change,0,0,2,,,,,,,,,1,64,0,,
733920,note_on,0,0,2,,,,,,,,,1,,,65,0
733920,note_on,480,0,2,,,,,,,,,1,,,73,0
733920,note_on,0,0,4,,,,,,,,,3,,,39,0
733920,note_on,0,0,2,,,,,,,,,1,,,67,62
733920,note_on,0,0,1,,,,,,,,,0,,,77,0
734400,note_on,0,0,1,,,,,,,,,0,,,85,62
734400,note_on,0,0,4,,,,,,,,,3,,,44,49
734400,note_on,0,0,1,,,,,,,,,0,,,82,62
734400,note_on,0,0,1,,,,,,,,,0,,,79,0
734400,note_on,480,0,1,,,,,,,,,0,,,87,0
734400,note_on,480,0,4,,,,,,,,,3,,,51,0
734400,note_on,0,0,4,,,,,,,,,3,,,39,0
734400,note_on,0,0,3,,,,,,,,,2,,,63,49
734400,note_on,480,0,3,,,,,,,,,2,,,63,0
734400,note_on,0,0,2,,,,,,,,,1,,,73,62
734400,note_on,0,0,2,,,,,,,,,1,,,70,62
734400,note_on,0,0,2,,,,,,,,,1,,,67,0
734400,note_on,480,0,2,,,,,,,,,1,,,75,0
734400,note_on,0,0,4,,,,,,,,,3,,,32,49
734880,note_on,0,0,4,,,,,,,,,3,,,44,49
734880,note_on,0,0,4,,,,,,,,,3,,,32,49
734880,note_on,0,0,4,,,,,,,,,3,,,32,0
734880,note_on,480,0,4,,,,,,,,,3,,,44,0
735360,note_on,0,0,2,,,,,,,,,1,,,72,62
735360,note_on,0,0,1,,,,,,,,,0,,,82,0
735360,note_on,0,0,1,,,,,,,,,0,,,84,62
735360,note_on,0,0,1,,,,,,,,,0,,,80,62
735360,note_on,960,0,1,,,,,,,,,0,,,85,0
735360,note_on,0,0,2,,,,,,,,,1,,,70,0
735360,note_on,960,0,2,,,,,,,,,1,,,73,0
735360,note_on,0,0,2,,,,,,,,,1,,,68,62
735840,note_on,0,0,4,,,,,,,,,3,,,32,0
735840,note_on,960,0,4,,,,,,,,,3,,,44,0
735840,note_on,0,0,4,,,,,,,,,3,,,32,49
735840,note_on,0,0,4,,,,,,,,,3,,,44,49
736320,note_on,480,0,4,,,,,,,,,3,,,44,0
736320,note_on,0,0,4,,,,,,,,,3,,,32,0
736320,note_on,0,0,4,,,,,,,,,3,,,32,49
736320,note_on,0,0,4,,,,,,,,,3,,,44,49
736800,note_on,480,0,4,,,,,,,,,3,,,44,0
736800,note_on,0,0,4,,,,,,,,,3,,,32,0
736800,note_on,0,0,4,,,,,,,,,3,,,44,49
736800,note_on,0,0,4,,,,,,,,,3,,,32,49
737760,note_on,0,0,4,,,,,,,,,3,,,44,49
737760,note_on,0,0,4,,,,,,,,,3,,,32,0
737760,note_on,960,0,4,,,,,,,,,3,,,44,0
737760,note_on,0,0,4,,,,,,,,,3,,,32,49
738240,note_on,0,0,4,,,,,,,,,3,,,32,0
738240,note_on,480,0,4,,,,,,,,,3,,,44,0
738240,note_on,3840,0,3,,,,,,,,,2,,,63,0
738240,note_on,0,0,3,,,,,,,,,2,,,44,49
738240,note_on,0,0,4,,,,,,,,,3,,,32,49
738720,note_on,0,0,4,,,,,,,,,3,,,32,49
738720,note_on,480,0,3,,,,,,,,,2,,,44,0
738720,note_on,0,0,3,,,,,,,,,2,,,44,49
738720,note_on,480,0,4,,,,,,,,,3,,,32,0
739200,note_on,0,0,1,,,,,,,,,0,,,80,0
739200,set_tempo,45120,1,0,,,,,,312500,,,,,,,
739200,note_on,0,0,2,,,,,,,,,1,,,68,0
739200,note_on,0,0,2,,,,,,,,,1,,,72,62
739200,note_on,3840,0,2,,,,,,,,,1,,,72,0
739200,note_on,0,0,2,,,,,,,,,1,,,68,62
739200,control_change,0,0,2,,,,,,,,,1,64,127,,
739200,note_on,0,0,1,,,,,,,,,0,,,80,62
739200,note_on,0,0,1,,,,,,,,,0,,,84,62
739200,control_change,0,0,1,,,,,,,,,0,64,127,,
739200,note_on,3840,0,1,,,,,,,,,0,,,84,0
739680,note_on,0,0,4,,,,,,,,,3,,,32,49
739680,note_on,960,0,4,,,,,,,,,3,,,32,0
739680,note_on,0,0,3,,,,,,,,,2,,,44,49
739680,note_on,960,0,3,,,,,,,,,2,,,44,0
740160,note_on,480,0,4,,,,,,,,,3,,,32,0
740160,note_on,0,0,4,,,,,,,,,3,,,32,49
740160,note_on,0,0,2,,,,,,,,,1,,,72,62
740160,note_on,0,0,1,,,,,,,,,0,,,84,62
740160,note_on,0,0,1,,,,,,,,,0,,,80,0
740160,note_on,960,0,1,,,,,,,,,0,,,84,0
740160,note_on,0,0,3,,,,,,,,,2,,,44,49
740160,note_on,960,0,2,,,,,,,,,1,,,72,0
740160,note_on,0,0,2,,,,,,,,,1,,,68,0
740160,note_on,0,0,2,,,,,,,,,1,,,67,62
740160,note_on,0,0,1,,,,,,,,,0,,,79,62
740160,note_on,480,0,3,,,,,,,,,2,,,44,0
740640,note_on,0,0,4,,,,,,,,,3,,,32,49
740640,note_on,480,0,4,,,,,,,,,3,,,32,0
740640,note_on,0,0,3,,,,,,,,,2,,,44,49
740640,note_on,480,0,3,,,,,,,,,2,,,44,0
741120,note_on,0,0,2,,,,,,,,,1,,,72,62
741120,note_on,0,0,2,,,,,,,,,1,,,66,62
741120,control_change,0,0,1,,,,,,,,,0,64,0,,
741120,note_on,0,0,1,,,,,,,,,0,,,84,62
741120,note_on,0,0,1,,,,,,,,,0,,,78,62
741120,note_on,0,0,1,,,,,,,,,0,,,79,0
741120,note_on,0,0,2,,,,,,,,,1,,,67,0
741120,note_on,960,0,2,,,,,,,,,1,,,72,0
741120,note_on,960,0,1,,,,,,,,,0,,,84,0
741120,control_change,0,0,2,,,,,,,,,1,64,0,,
741600,note_on,0,0,4,,,,,,,,,3,,,32,49
741600,note_on,960,0,4,,,,,,,,,3,,,32,0
741600,note_on,0,0,3,,,,,,,,,2,,,44,49
741600,note_on,960,0,3,,,,,,,,,2,,,44,0
742080,note_on,0,0,2,,,,,,,,,1,,,65,62
742080,note_on,960,0,2,,,,,,,,,1,,,72,0
742080,note_on,0,0,2,,,,,,,,,1,,,66,0
742080,note_on,0,0,2,,,,,,,,,1,,,72,62
742080,note_on,480,0,4,,,,,,,,,3,,,32,0
742080,note_on,0,0,1,,,,,,,,,0,,,84,62
742080,note_on,0,0,3,,,,,,,,,2,,,45,49
742080,note_on,480,0,3,,,,,,,,,2,,,44,0
742080,set_tempo,2880,1,0,,,,,,270270,,,,,,,
742080,note_on,0,0,1,,,,,,,,,0,,,77,62
742080,note_on,0,0,1,,,,,,,,,0,,,78,0
742080,note_on,960,0,1,,,,,,,,,0,,,84,0
742080,note_on,0,0,4,,,,,,,,,3,,,33,49
742560,note_on,0,0,4,,,,,,,,,3,,,33,49
742560,note_on,480,0,3,,,,,,,,,2,,,45,0
742560,note_on,480,0,4,,,,,,,,,3,,,33,0
742560,note_on,0,0,3,,,,,,,,,2,,,45,49
743520,note_on,960,0,4,,,,,,,,,3,,,33,0
743520,note_on,0,0,4,,,,,,,,,3,,,33,49
743520,note_on,960,0,3,,,,,,,,,2,,,45,0
743520,note_on,0,0,3,,,,,,,,,2,,,45,49
744000,note_on,0,0,3,,,,,,,,,2,,,46,49
744000,note_on,0,0,2,,,,,,,,,1,,,77,62
744000,note_on,0,0,2,,,,,,,,,1,,,65,62
744000,control_change,0,0,2,,,,,,,,,1,64,127,,
744000,note_on,0,0,1,,,,,,,,,0,,,73,62
744000,note_on,0,0,1,,,,,,,,,0,,,85,62
744000,note_on,480,0,3,,,,,,,,,2,,,45,0
744000,note_on,1920,0,1,,,,,,,,,0,,,84,0
744000,note_on,0,0,4,,,,,,,,,3,,,34,49
744000,note_on,480,0,4,,,,,,,,,3,,,33,0
744000,note_on,0,0,2,,,,,,,,,1,,,65,0
744000,note_on,1920,0,2,,,,,,,,,1,,,72,0
744000,note_on,0,0,1,,,,,,,,,0,,,77,0
744480,note_on,480,0,4,,,,,,,,,3,,,34,0
744480,note_on,0,0,3,,,,,,,,,2,,,46,49
744480,note_on,480,0,3,,,,,,,,,2,,,46,0
744480,note_on,0,0,4,,,,,,,,,3,,,34,49
744960,note_on,0,0,2,,,,,,,,,1,,,65,0
744960,note_on,0,0,2,,,,,,,,,1,,,67,62
744960,note_on,0,0,2,,,,,,,,,1,,,79,62
744960,note_on,960,0,2,,,,,,,,,1,,,77,0
745440,note_on,0,0,4,,,,,,,,,3,,,34,49
745440,note_on,0,0,2,,,,,,,,,1,,,80,62
745440,note_on,0,0,2,,,,,,,,,1,,,68,62
745440,control_change,0,0,2,,,,,,,,,1,64,0,,
745440,note_on,960,0,3,,,,,,,,,2,,,46,0
745440,note_on,0,0,3,,,,,,,,,2,,,46,49
745440,note_on,0,0,2,,,,,,,,,1,,,67,0
745440,note_on,480,0,2,,,,,,,,,1,,,79,0
745440,note_on,960,0,4,,,,,,,,,3,,,34,0
745920,note_on,1920,0,1,,,,,,,,,0,,,85,0
745920,note_on,0,0,1,,,,,,,,,0,,,80,62
745920,note_on,0,0,2,,,,,,,,,1,,,68,0
745920,note_on,0,0,2,,,,,,,,,1,,,68,62
745920,note_on,0,0,2,,,,,,,,,1,,,72,62
745920,note_on,480,0,4,,,,,,,,,3,,,34,0
745920,note_on,0,0,4,,,,,,,,,3,,,36,49
745920,note_on,480,0,3,,,,,,,,,2,,,46,0
745920,note_on,0,0,3,,,,,,,,,2,,,48,49
745920,note_on,480,0,2,,,,,,,,,1,,,80,0
745920,note_on,0,0,1,,,,,,,,,0,,,84,62
745920,note_on,0,0,1,,,,,,,,,0,,,73,0
746400,note_on,0,0,4,,,,,,,,,3,,,36,49
746400,control_change,0,0,4,,,,,,,,,3,64,127,,
746400,control_change,0,0,3,,,,,,,,,2,64,127,,
746400,note_on,0,0,3,,,,,,,,,2,,,48,49
746400,note_on,480,0,3,,,,,,,,,2,,,48,0
746400,note_on,480,0,4,,,,,,,,,3,,,36,0
746880,note_on,0,0,3,,,,,,,,,2,,,49,49
746880,note_on,480,0,3,,,,,,,,,2,,,48,0
746880,note_on,0,0,4,,,,,,,,,3,,,37,49
746880,note_on,480,0,4,,,,,,,,,3,,,36,0
747360,note_on,480,0,3,,,,,,,,,2,,,49,0
747360,note_on,0,0,3,,,,,,,,,2,,,51,49
747360,control_change,0,0,3,,,,,,,,,2,64,0,,
747360,note_on,0,0,4,,,,,,,,,3,,,39,49
747360,control_change,0,0,4,,,,,,,,,3,64,0,,
747360,note_on,480,0,4,,,,,,,,,3,,,37,0
747840,note_on,480,0,3,,,,,,,,,2,,,51,0
747840,note_on,0,0,3,,,,,,,,,2,,,51,49
747840,note_on,0,0,1,,,,,,,,,0,,,70,62
747840,note_on,0,0,1,,,,,,,,,0,,,80,0
747840,note_on,1920,0,1,,,,,,,,,0,,,84,0
747840,note_on,0,0,2,,,,,,,,,1,,,68,0
747840,note_on,0,0,1,,,,,,,,,0,,,82,62
747840,note_on,480,0,4,,,,,,,,,3,,,39,0
747840,note_on,0,0,4,,,,,,,,,3,,,39,49
747840,note_on,1920,0,2,,,,,,,,,1,,,72,0
748320,note_on,480,0,3,,,,,,,,,2,,,51,0
748320,note_on,0,0,3,,,,,,,,,2,,,51,49
748320,note_on,480,0,4,,,,,,,,,3,,,39,0
748320,note_on,0,0,4,,,,,,,,,3,,,39,49
748800,note_on,960,0,2,,,,,,,,,1,,,67,62
748800,note_on,0,0,2,,,,,,,,,1,,,79,62
749280,note_on,0,0,4,,,,,,,,,3,,,39,49
749280,note_on,960,0,3,,,,,,,,,2,,,51,0
749280,note_on,0,0,3,,,,,,,,,2,,,51,49
749280,note_on,960,0,4,,,,,,,,,3,,,39,0
749760,note_on,480,0,3,,,,,,,,,2,,,51,0
749760,note_on,0,0,2,,,,,,,,,1,,,68,62
749760,note_on,0,0,2,,,,,,,,,1,,,67,0
749760,note_on,960,0,2,,,,,,,,,1,,,79,0
749760,note_on,0,0,1,,,,,,,,,0,,,80,62
749760,note_on,1920,0,1,,,,,,,,,0,,,82,0
749760,note_on,480,0,4,,,,,,,,,3,,,39,0
749760,note_on,0,0,4,,,,,,,,,3,,,32,49
749760,note_on,0,0,3,,,,,,,,,2,,,44,49
749760,note_on,0,0,1,,,,,,,,,0,,,70,0
750240,note_on,480,0,4,,,,,,,,,3,,,32,0
750240,note_on,0,0,4,,,,,,,,,3,,,44,49
750240,note_on,480,0,3,,,,,,,,,2,,,44,0
750240,note_on,0,0,3,,,,,,,,,2,,,56,49
751200,note_on,960,0,3,,,,,,,,,2,,,56,0
751200,note_on,0,0,3,,,,,,,,,2,,,56,49
751200,note_on,0,0,4,,,,,,,,,3,,,44,49
751200,note_on,960,0,4,,,,,,,,,3,,,44,0
751680,note_on,480,0,3,,,,,,,,,2,,,56,0
751680,note_on,0,0,3,,,,,,,,,2,,,56,49
751680,note_on,0,0,4,,,,,,,,,3,,,44,49
751680,note_on,480,0,4,,,,,,,,,3,,,44,0
752160,note_on,480,0,3,,,,,,,,,2,,,56,0
752160,note_on,0,0,4,,,,,,,,,3,,,44,49
752160,note_on,480,0,4,,,,,,,,,3,,,44,0
752160,note_on,0,0,3,,,,,,,,,2,,,56,49
752160,note_on,2400,0,2,,,,,,,,,1,,,68,0
752160,note_on,2400,0,1,,,,,,,,,0,,,80,0
753120,note_on,0,0,4,,,,,,,,,3,,,44,49
753120,note_on,960,0,4,,,,,,,,,3,,,44,0
753120,note_on,0,0,3,,,,,,,,,2,,,56,49
753120,note_on,960,0,3,,,,,,,,,2,,,56,0
753600,note_on,480,0,3,,,,,,,,,2,,,56,0
753600,note_on,0,0,4,,,,,,,,,3,,,44,49
753600,note_on,480,0,4,,,,,,,,,3,,,44,0
753600,note_on,0,0,3,,,,,,,,,2,,,56,49
753647,note_on,47,0,3,,,,,,,,,2,,,56,0
753647,note_on,47,0,4,,,,,,,,,3,,,44,0
754080,note_on,433,0,3,,,,,,,,,2,,,54,49
754080,note_on,433,0,4,,,,,,,,,3,,,42,49
755040,note_on,960,0,3,,,,,,,,,2,,,54,0
755040,note_on,0,0,3,,,,,,,,,2,,,54,49
755040,note_on,960,0,4,,,,,,,,,3,,,42,0
755040,note_on,0,0,4,,,,,,,,,3,,,42,49
755520,note_on,480,0,4,,,,,,,,,3,,,42,0
755520,note_on,480,0,3,,,,,,,,,2,,,54,0
755520,note_on,0,0,3,,,,,,,,,2,,,54,49
755520,note_on,0,0,4,,,,,,,,,3,,,42,49
755567,note_on,47,0,4,,,,,,,,,3,,,42,0
755567,note_on,47,0,3,,,,,,,,,2,,,54,0
756000,note_on,433,0,4,,,,,,,,,3,,,39,49
756000,note_on,433,0,3,,,,,,,,,2,,,51,49
756960,note_on,960,0,3,,,,,,,,,2,,,51,0
756960,note_on,0,0,4,,,,,,,,,3,,,39,49
756960,note_on,0,0,3,,,,,,,,,2,,,51,49
756960,note_on,960,0,4,,,,,,,,,3,,,39,0
757440,note_on,480,0,4,,,,,,,,,3,,,39,0
757440,note_on,0,0,4,,,,,,,,,3,,,39,49
757440,set_tempo,15360,1,0,,,,,,312500,,,,,,,
757440,note_on,0,0,3,,,,,,,,,2,,,51,49
757440,note_on,480,0,3,,,,,,,,,2,,,51,0
757487,note_on,47,0,3,,,,,,,,,2,,,51,0
757487,note_on,47,0,4,,,,,,,,,3,,,39,0
757920,note_on,433,0,3,,,,,,,,,2,,,48,49
757920,note_on,433,0,4,,,,,,,,,3,,,36,49
758880,note_on,960,0,4,,,,,,,,,3,,,36,0
758880,note_on,960,0,3,,,,,,,,,2,,,48,0
758880,note_on,0,0,3,,,,,,,,,2,,,48,49
758880,note_on,0,0,4,,,,,,,,,3,,,36,49
759360,note_on,0,0,4,,,,,,,,,3,,,36,49
759360,note_on,0,0,3,,,,,,,,,2,,,48,49
759360,note_on,480,0,4,,,,,,,,,3,,,36,0
759360,note_on,480,0,3,,,,,,,,,2,,,48,0
759407,note_on,47,0,4,,,,,,,,,3,,,36,0
759407,note_on,47,0,3,,,,,,,,,2,,,48,0
759840,note_on,433,0,3,,,,,,,,,2,,,48,49
759840,note_on,433,0,4,,,,,,,,,3,,,36,49
760800,note_on,960,0,4,,,,,,,,,3,,,36,0
760800,note_on,0,0,3,,,,,,,,,2,,,48,49
760800,note_on,960,0,3,,,,,,,,,2,,,48,0
760800,note_on,0,0,4,,,,,,,,,3,,,36,49
761200,note_on,9040,0,1,,,,,,,,,0,,,88,62
761240,note_on,40,0,1,,,,,,,,,0,,,89,62
761280,note_on,480,0,3,,,,,,,,,2,,,48,0
761280,note_on,0,0,3,,,,,,,,,2,,,60,49
761280,note_on,40,0,1,,,,,,,,,0,,,91,62
761280,set_tempo,3840,1,0,,,,,,270270,,,,,,,
761280,note_on,480,0,4,,,,,,,,,3,,,36,0
761280,note_on,0,0,4,,,,,,,,,3,,,48,49
761280,note_on,0,0,4,,,,,,,,,3,,,36,49
761280,note_on,9120,0,2,,,,,,,,,1,,,64,62
761280,note_on,0,0,2,,,,,,,,,1,,,67,62
761311,note_on,0,0,1,,,,,,,,,0,,,88,0
761311,note_on,31,0,1,,,,,,,,,0,,,91,0
761311,note_on,0,0,1,,,,,,,,,0,,,89,0
761600,note_on,289,0,1,,,,,,,,,0,,,88,62
761632,note_on,32,0,1,,,,,,,,,0,,,88,0
761760,note_on,480,0,4,,,,,,,,,3,,,48,0
761760,note_on,0,0,4,,,,,,,,,3,,,36,0
761760,note_on,0,0,4,,,,,,,,,3,,,36,49
761760,note_on,0,0,4,,,,,,,,,3,,,48,49
761919,note_on,287,0,1,,,,,,,,,0,,,86,62
761951,note_on,32,0,1,,,,,,,,,0,,,86,0
762240,note_on,289,0,1,,,,,,,,,0,,,84,62
762271,note_on,31,0,1,,,,,,,,,0,,,84,0
762560,note_on,289,0,1,,,,,,,,,0,,,83,62
762592,note_on,32,0,1,,,,,,,,,0,,,83,0
762720,note_on,960,0,4,,,,,,,,,3,,,48,0
762720,note_on,0,0,4,,,,,,,,,3,,,48,49
762720,note_on,0,0,4,,,,,,,,,3,,,36,49
762720,note_on,0,0,4,,,,,,,,,3,,,36,0
762879,note_on,287,0,1,,,,,,,,,0,,,81,62
762911,note_on,32,0,1,,,,,,,,,0,,,81,0
763200,note_on,1920,0,2,,,,,,,,,1,,,67,0
763200,note_on,0,0,2,,,,,,,,,1,,,64,0
763200,note_on,0,0,2,,,,,,,,,1,,,64,62
763200,note_on,0,0,2,,,,,,,,,1,,,67,62
763200,note_on,1920,0,3,,,,,,,,,2,,,60,0
763200,note_on,0,0,3,,,,,,,,,2,,,60,49
763200,note_on,480,0,4,,,,,,,,,3,,,48,0
763200,note_on,289,0,1,,,,,,,,,0,,,79,62
763200,note_on,0,0,4,,,,,,,,,3,,,36,0
763200,note_on,0,0,4,,,,,,,,,3,,,48,49
763200,note_on,0,0,4,,,,,,,,,3,,,36,49
763231,note_on,31,0,1,,,,,,,,,0,,,79,0
763520,note_on,289,0,1,,,,,,,,,0,,,81,62
763552,note_on,32,0,1,,,,,,,,,0,,,81,0
763680,note_on,0,0,4,,,,,,,,,3,,,48,49
763680,note_on,0,0,4,,,,,,,,,3,,,36,49
763680,note_on,0,0,4,,,,,,,,,3,,,36,0
763680,note_on,480,0,4,,,,,,,,,3,,,48,0
763839,note_on,287,0,1,,,,,,,,,0,,,83,62
763871,note_on,32,0,1,,,,,,,,,0,,,83,0
764160,note_on,289,0,1,,,,,,,,,0,,,84,62
764191,note_on,31,0,1,,,,,,,,,0,,,84,0
764480,note_on,289,0,1,,,,,,,,,0,,,86,62
764512,note_on,32,0,1,,,,,,,,,0,,,86,0
764640,note_on,0,0,2,,,,,,,,,1,,,64,62
764640,note_on,0,0,3,,,,,,,,,2,,,60,49
764640,note_on,1440,0,3,,,,,,,,,2,,,60,0
764640,note_on,0,0,4,,,,,,,,,3,,,48,49
764640,note_on,0,0,4,,,,,,,,,3,,,36,49
764640,note_on,0,0,4,,,,,,,,,3,,,36,0
764640,note_on,960,0,4,,,,,,,,,3,,,48,0
764640,note_on,0,0,2,,,,,,,,,1,,,67,62
764640,note_on,0,0,2,,,,,,,,,1,,,64,0
764640,note_on,1440,0,2,,,,,,,,,1,,,67,0
764799,note_on,287,0,1,,,,,,,,,0,,,88,62
764831,note_on,32,0,1,,,,,,,,,0,,,88,0
765120,note_on,480,0,3,,,,,,,,,2,,,60,0
765120,note_on,480,0,2,,,,,,,,,1,,,67,0
765120,note_on,0,0,2,,,,,,,,,1,,,64,0
765120,note_on,0,0,2,,,,,,,,,1,,,62,62
765120,note_on,0,0,3,,,,,,,,,2,,,57,49
765120,note_on,0,0,2,,,,,,,,,1,,,67,62
765120,note_on,480,0,4,,,,,,,,,3,,,48,0
765120,control_change,289,0,1,,,,,,,,,0,64,127,,
765120,note_on,0,0,1,,,,,,,,,0,,,88,62
765120,note_on,0,0,4,,,,,,,,,3,,,50,49
765120,note_on,0,0,4,,,,,,,,,3,,,38,49
765120,note_on,0,0,4,,,,,,,,,3,,,36,0
765440,note_on,320,0,1,,,,,,,,,0,,,88,0
765440,note_on,0,0,1,,,,,,,,,0,,,86,62
765600,note_on,0,0,4,,,,,,,,,3,,,50,49
765600,note_on,0,0,4,,,,,,,,,3,,,38,49
765600,note_on,0,0,4,,,,,,,,,3,,,38,0
765600,note_on,480,0,4,,,,,,,,,3,,,50,0
765759,note_on,319,0,1,,,,,,,,,0,,,86,0
765759,note_on,0,0,1,,,,,,,,,0,,,85,62
766080,note_on,0,0,2,,,,,,,,,1,,,65,62
766080,note_on,321,0,1,,,,,,,,,0,,,85,0
766080,note_on,960,0,2,,,,,,,,,1,,,67,0
766080,note_on,0,0,1,,,,,,,,,0,,,86,62
766400,note_on,320,0,1,,,,,,,,,0,,,86,0
766400,note_on,0,0,1,,,,,,,,,0,,,87,62
766560,note_on,0,0,4,,,,,,,,,3,,,38,0
766560,note_on,960,0,4,,,,,,,,,3,,,50,0
766560,note_on,0,0,4,,,,,,,,,3,,,38,49
766560,note_on,0,0,4,,,,,,,,,3,,,50,49
766719,note_on,319,0,1,,,,,,,,,0,,,87,0
766719,note_on,0,0,1,,,,,,,,,0,,,88,62
767040,note_on,0,0,4,,,,,,,,,3,,,50,49
767040,note_on,0,0,4,,,,,,,,,3,,,38,49
767040,note_on,0,0,4,,,,,,,,,3,,,38,0
767040,note_on,0,0,1,,,,,,,,,0,,,89,62
767040,note_on,321,0,1,,,,,,,,,0,,,88,0
767040,note_on,480,0,4,,,,,,,,,3,,,50,0
767360,note_on,0,0,1,,,,,,,,,0,,,91,62
767360,note_on,320,0,1,,,,,,,,,0,,,89,0
767520,note_on,0,0,4,,,,,,,,,3,,,50,49
767520,note_on,480,0,4,,,,,,,,,3,,,50,0
767520,note_on,0,0,4,,,,,,,,,3,,,38,49
767520,note_on,0,0,4,,,,,,,,,3,,,38,0
767679,note_on,0,0,1,,,,,,,,,0,,,92,62
767679,note_on,319,0,1,,,,,,,,,0,,,91,0
767679,control_change,0,0,1,,,,,,,,,0,64,0,,
768000,note_on,0,0,3,,,,,,,,,2,,,57,49
768000,note_on,321,0,1,,,,,,,,,0,,,92,0
768000,note_on,0,0,1,,,,,,,,,0,,,93,62
768000,note_on,1920,0,2,,,,,,,,,1,,,65,0
768000,note_on,0,0,2,,,,,,,,,1,,,62,0
768000,note_on,0,0,2,,,,,,,,,1,,,65,62
768000,note_on,0,0,2,,,,,,,,,1,,,62,62
768000,note_on,2880,0,3,,,,,,,,,2,,,57,0
768031,note_on,31,0,1,,,,,,,,,0,,,93,0
768320,note_on,289,0,1,,,,,,,,,0,,,93,62
768352,note_on,32,0,1,,,,,,,,,0,,,93,0
768480,note_on,0,0,4,,,,,,,,,3,,,53,49
768480,note_on,0,0,4,,,,,,,,,3,,,41,49
768480,note_on,960,0,4,,,,,,,,,3,,,50,0
768480,note_on,0,0,4,,,,,,,,,3,,,38,0
768639,note_on,287,0,1,,,,,,,,,0,,,93,62
768671,note_on,32,0,1,,,,,,,,,0,,,93,0
768960,note_on,480,0,4,,,,,,,,,3,,,53,0
768960,note_on,0,0,4,,,,,,,,,3,,,41,0
768960,note_on,0,0,4,,,,,,,,,3,,,33,49
768960,note_on,0,0,4,,,,,,,,,3,,,45,49
768960,note_on,0,0,3,,,,,,,,,2,,,57,49
768960,note_on,0,0,2,,,,,,,,,1,,,62,62
768960,note_on,960,0,2,,,,,,,,,1,,,65,0
768960,note_on,0,0,2,,,,,,,,,1,,,62,0
768960,note_on,0,0,2,,,,,,,,,1,,,64,62
768960,note_on,289,0,1,,,,,,,,,0,,,94,62
768960,note_on,960,0,3,,,,,,,,,2,,,57,0
769280,note_on,320,0,1,,,,,,,,,0,,,94,0
769280,note_on,0,0,1,,,,,,,,,0,,,93,62
769440,note_on,0,0,4,,,,,,,,,3,,,33,49
769440,note_on,480,0,4,,,,,,,,,3,,,45,0
769440,note_on,0,0,4,,,,,,,,,3,,,33,0
769440,note_on,0,0,4,,,,,,,,,3,,,45,49
769599,note_on,0,0,1,,,,,,,,,0,,,92,62
769599,note_on,319,0,1,,,,,,,,,0,,,93,0
769631,note_on,32,0,1,,,,,,,,,0,,,92,0
769920,note_on,289,0,1,,,,,,,,,0,,,92,62
770240,note_on,320,0,1,,,,,,,,,0,,,92,0
770240,note_on,0,0,1,,,,,,,,,0,,,93,62
770400,note_on,0,0,4,,,,,,,,,3,,,33,0
770400,note_on,0,0,4,,,,,,,,,3,,,33,49
770400,note_on,0,0,4,,,,,,,,,3,,,45,49
770400,note_on,960,0,4,,,,,,,,,3,,,45,0
770559,note_on,319,0,1,,,,,,,,,0,,,93,0
770559,note_on,0,0,1,,,,,,,,,0,,,88,62
770591,note_on,32,0,1,,,,,,,,,0,,,88,0
770880,note_on,0,0,2,,,,,,,,,1,,,62,0
770880,note_on,1920,0,2,,,,,,,,,1,,,64,0
770880,note_on,289,0,1,,,,,,,,,0,,,88,62
770880,note_on,1920,0,3,,,,,,,,,2,,,57,0
770880,note_on,0,0,3,,,,,,,,,2,,,57,49
770880,note_on,0,0,4,,,,,,,,,3,,,45,49
770880,note_on,0,0,4,,,,,,,,,3,,,33,49
770880,note_on,0,0,4,,,,,,,,,3,,,33,0
770880,note_on,480,0,4,,,,,,,,,3,,,45,0
770880,note_on,0,0,2,,,,,,,,,1,,,61,62
770880,note_on,0,0,2,,,,,,,,,1,,,64,62
771200,note_on,320,0,1,,,,,,,,,0,,,88,0
771200,note_on,0,0,1,,,,,,,,,0,,,93,62
771360,note_on,0,0,4,,,,,,,,,3,,,45,49
771360,note_on,0,0,4,,,,,,,,,3,,,33,49
771360,note_on,0,0,4,,,,,,,,,3,,,33,0
771360,note_on,480,0,4,,,,,,,,,3,,,45,0
771519,note_on,319,0,1,,,,,,,,,0,,,93,0
771519,note_on,0,0,1,,,,,,,,,0,,,93,62
771551,note_on,32,0,1,,,,,,,,,0,,,93,0
771600,note_on,0,0,2,,,,,,,,,1,,,61,0
771600,note_on,0,0,2,,,,,,,,,1,,,69,62
771600,note_on,720,0,2,,,,,,,,,1,,,64,0
771840,note_on,240,0,2,,,,,,,,,1,,,69,0
771840,note_on,0,0,2,,,,,,,,,1,,,61,62
771840,note_on,0,0,2,,,,,,,,,1,,,69,62
771840,note_on,0,0,3,,,,,,,,,2,,,57,49
771840,note_on,960,0,3,,,,,,,,,2,,,57,0
771840,note_on,289,0,1,,,,,,,,,0,,,93,62
772160,note_on,0,0,1,,,,,,,,,0,,,88,62
772160,note_on,320,0,1,,,,,,,,,0,,,93,0
772320,note_on,0,0,4,,,,,,,,,3,,,45,49
772320,note_on,0,0,4,,,,,,,,,3,,,33,49
772320,note_on,0,0,4,,,,,,,,,3,,,33,0
772320,note_on,960,0,4,,,,,,,,,3,,,45,0
772479,note_on,319,0,1,,,,,,,,,0,,,88,0
772479,note_on,0,0,1,,,,,,,,,0,,,88,62
772511,note_on,32,0,1,,,,,,,,,0,,,88,0
772560,note_on,0,0,2,,,,,,,,,1,,,64,62
772560,note_on,0,0,2,,,,,,,,,1,,,61,0
772560,note_on,720,0,2,,,,,,,,,1,,,69,0
772800,note_on,240,0,2,,,,,,,,,1,,,64,0
772800,note_on,0,0,2,,,,,,,,,1,,,66,49
772800,note_on,289,0,1,,,,,,,,,0,,,90,62
772800,note_on,0,0,2,,,,,,,,,1,,,62,49
772800,note_on,0,0,3,,,,,,,,,2,,,57,49
772800,note_on,0,0,4,,,,,,,,,3,,,50,49
772800,note_on,0,0,4,,,,,,,,,3,,,33,0
772800,note_on,480,0,4,,,,,,,,,3,,,45,0
772800,note_on,0,0,4,,,,,,,,,3,,,38,49
772800,note_on,960,0,3,,,,,,,,,2,,,57,0
772831,note_on,31,0,1,,,,,,,,,0,,,90,0
773030,note_on,199,0,1,,,,,,,,,0,,,93,62
773060,note_on,30,0,1,,,,,,,,,0,,,95,62
773090,note_on,30,0,1,,,,,,,,,0,,,97,62
773120,note_on,30,0,1,,,,,,,,,0,,,98,62
773280,note_on,0,0,4,,,,,,,,,3,,,50,49
773280,note_on,0,0,4,,,,,,,,,3,,,38,49
773280,note_on,0,0,4,,,,,,,,,3,,,38,0
773280,note_on,480,0,4,,,,,,,,,3,,,50,0
773439,note_on,0,0,1,,,,,,,,,0,,,97,62
773439,note_on,0,0,1,,,,,,,,,0,,,93,0
773439,note_on,0,0,1,,,,,,,,,0,,,95,0
773439,note_on,319,0,1,,,,,,,,,0,,,98,0
773439,note_on,0,0,1,,,,,,,,,0,,,97,0
773471,note_on,32,0,1,,,,,,,,,0,,,97,0
773760,note_on,289,0,1,,,,,,,,,0,,,95,62
773791,note_on,31,0,1,,,,,,,,,0,,,95,0
774080,note_on,289,0,1,,,,,,,,,0,,,93,62
774112,note_on,32,0,1,,,,,,,,,0,,,93,0
774240,note_on,0,0,4,,,,,,,,,3,,,50,49
774240,note_on,0,0,4,,,,,,,,,3,,,38,49
774240,note_on,960,0,4,,,,,,,,,3,,,50,0
774240,note_on,0,0,4,,,,,,,,,3,,,38,0
774399,note_on,287,0,1,,,,,,,,,0,,,91,62
774431,note_on,32,0,1,,,,,,,,,0,,,91,0
774720,note_on,289,0,1,,,,,,,,,0,,,90,62
774720,note_on,0,0,4,,,,,,,,,3,,,50,49
774720,note_on,480,0,4,,,,,,,,,3,,,50,0
774720,note_on,0,0,4,,,,,,,,,3,,,38,0
774720,note_on,0,0,4,,,,,,,,,3,,,38,49
774751,note_on,31,0,1,,,,,,,,,0,,,90,0
775040,note_on,289,0,1,,,,,,,,,0,,,88,62
775072,note_on,32,0,1,,,,,,,,,0,,,88,0
775200,note_on,0,0,4,,,,,,,,,3,,,38,0
775200,note_on,0,0,4,,,,,,,,,3,,,38,49
775200,note_on,0,0,4,,,,,,,,,3,,,50,49
775200,note_on,480,0,4,,,,,,,,,3,,,50,0
775359,note_on,287,0,1,,,,,,,,,0,,,86,62
775391,note_on,32,0,1,,,,,,,,,0,,,86,0
775680,note_on,2880,0,3,,,,,,,,,2,,,57,0
775680,note_on,289,0,1,,,,,,,,,0,,,85,62
775680,note_on,2880,0,2,,,,,,,,,1,,,66,0
775680,note_on,0,0,2,,,,,,,,,1,,,62,0
775711,note_on,31,0,1,,,,,,,,,0,,,85,0
776000,note_on,289,0,1,,,,,,,,,0,,,86,62
776032,note_on,32,0,1,,,,,,,,,0,,,86,0
776160,note_on,960,0,4,,,,,,,,,3,,,50,0
776160,note_on,0,0,4,,,,,,,,,3,,,50,49
776160,note_on,0,0,4,,,,,,,,,3,,,38,49
776160,note_on,0,0,4,,,,,,,,,3,,,38,0
776319,note_on,287,0,1,,,,,,,,,0,,,88,62
776351,note_on,32,0,1,,,,,,,,,0,,,88,0
776640,note_on,0,0,4,,,,,,,,,3,,,46,49
776640,note_on,0,0,4,,,,,,,,,3,,,34,49
776640,note_on,289,0,1,,,,,,,,,0,,,89,62
776640,note_on,0,0,4,,,,,,,,,3,,,38,0
776640,note_on,480,0,4,,,,,,,,,3,,,50,0
776640,note_on,960,0,2,,,,,,,,,1,,,62,49
776640,note_on,0,0,2,,,,,,,,,1,,,65,49
776640,note_on,960,0,3,,,,,,,,,2,,,58,49
776671,note_on,31,0,1,,,,,,,,,0,,,89,0
776960,note_on,289,0,1,,,,,,,,,0,,,86,62
776992,note_on,32,0,1,,,,,,,,,0,,,86,0
777120,note_on,480,0,4,,,,,,,,,3,,,46,0
777120,note_on,0,0,4,,,,,,,,,3,,,34,49
777120,note_on,0,0,4,,,,,,,,,3,,,46,49
777120,note_on,0,0,4,,,,,,,,,3,,,34,0
777279,note_on,287,0,1,,,,,,,,,0,,,84,62
777311,note_on,32,0,1,,,,,,,,,0,,,84,0
777600,note_on,289,0,1,,,,,,,,,0,,,82,62
777631,note_on,31,0,1,,,,,,,,,0,,,82,0
777920,note_on,289,0,1,,,,,,,,,0,,,81,62
777952,note_on,32,0,1,,,,,,,,,0,,,81,0
778080,note_on,960,0,4,,,,,,,,,3,,,46,0
778080,note_on,0,0,4,,,,,,,,,3,,,34,0
778080,note_on,0,0,4,,,,,,,,,3,,,34,49
778080,note_on,0,0,4,,,,,,,,,3,,,46,49
778239,note_on,287,0,1,,,,,,,,,0,,,79,62
778271,note_on,32,0,1,,,,,,,,,0,,,79,0
778560,note_on,0,0,2,,,,,,,,,1,,,62,0
778560,note_on,1920,0,3,,,,,,,,,2,,,58,0
778560,note_on,0,0,3,,,,,,,,,2,,,58,49
778560,note_on,0,0,4,,,,,,,,,3,,,34,0
778560,note_on,0,0,4,,,,,,,,,3,,,34,49
778560,note_on,0,0,2,,,,,,,,,1,,,62,49
778560,note_on,480,0,4,,,,,,,,,3,,,46,0
778560,note_on,0,0,4,,,,,,,,,3,,,46,49
778560,note_on,0,0,2,,,,,,,,,1,,,65,49
778560,note_on,1920,0,2,,,,,,,,,1,,,65,0
778560,note_on,289,0,1,,,,,,,,,0,,,77,62
778591,note_on,31,0,1,,,,,,,,,0,,,77,0
778880,note_on,289,0,1,,,,,,,,,0,,,79,62
778912,note_on,32,0,1,,,,,,,,,0,,,79,0
779040,note_on,480,0,4,,,,,,,,,3,,,46,0
779040,note_on,0,0,4,,,,,,,,,3,,,34,0
779040,control_change,0,0,4,,,,,,,,,3,64,127,,
779040,note_on,0,0,4,,,,,,,,,3,,,38,49
779040,note_on,0,0,4,,,,,,,,,3,,,50,49
779199,note_on,287,0,1,,,,,,,,,0,,,80,62
779231,note_on,32,0,1,,,,,,,,,0,,,80,0
779520,note_on,960,0,2,,,,,,,,,1,,,65,0
779520,note_on,289,0,1,,,,,,,,,0,,,81,62
779520,note_on,480,0,4,,,,,,,,,3,,,50,0
779520,note_on,0,0,2,,,,,,,,,1,,,62,0
779520,note_on,0,0,4,,,,,,,,,3,,,41,49
779520,note_on,0,0,4,,,,,,,,,3,,,38,0
779520,note_on,960,0,3,,,,,,,,,2,,,58,0
779520,note_on,0,0,2,,,,,,,,,1,,,60,49
779520,note_on,0,0,2,,,,,,,,,1,,,65,49
779520,note_on,0,0,3,,,,,,,,,2,,,57,49
779551,note_on,31,0,1,,,,,,,,,0,,,81,0
779840,note_on,289,0,1,,,,,,,,,0,,,82,62
779872,note_on,32,0,1,,,,,,,,,0,,,82,0
780000,note_on,480,0,4,,,,,,,,,3,,,41,0
780000,note_on,0,0,4,,,,,,,,,3,,,45,49
780000,control_change,0,0,4,,,,,,,,,3,64,0,,
780159,note_on,287,0,1,,,,,,,,,0,,,84,62
780191,note_on,32,0,1,,,,,,,,,0,,,84,0
780480,note_on,960,0,3,,,,,,,,,2,,,57,0
780480,note_on,0,0,4,,,,,,,,,3,,,36,49
780480,note_on,0,0,2,,,,,,,,,1,,,65,49
780480,note_on,0,0,2,,,,,,,,,1,,,60,49
780480,note_on,0,0,2,,,,,,,,,1,,,60,0
780480,note_on,960,0,2,,,,,,,,,1,,,65,0
780480,note_on,480,0,4,,,,,,,,,3,,,45,0
780480,note_on,0,0,3,,,,,,,,,2,,,55,49
780480,note_on,0,0,4,,,,,,,,,3,,,48,49
780480,control_change,289,0,1,,,,,,,,,0,64,127,,
780480,note_on,0,0,1,,,,,,,,,0,,,86,62
780800,note_on,320,0,1,,,,,,,,,0,,,86,0
780800,note_on,0,0,1,,,,,,,,,0,,,84,62
780960,note_on,480,0,4,,,,,,,,,3,,,48,0
780960,note_on,0,0,4,,,,,,,,,3,,,36,0
780960,note_on,0,0,4,,,,,,,,,3,,,36,49
780960,note_on,0,0,4,,,,,,,,,3,,,48,49
781119,note_on,319,0,1,,,,,,,,,0,,,84,0
781119,note_on,0,0,1,,,,,,,,,0,,,83,62
781440,note_on,0,0,2,,,,,,,,,1,,,64,49
781440,note_on,0,0,1,,,,,,,,,0,,,84,62
781440,note_on,960,0,2,,,,,,,,,1,,,65,0
781440,note_on,321,0,1,,,,,,,,,0,,,83,0
781760,note_on,320,0,1,,,,,,,,,0,,,84,0
781760,note_on,0,0,1,,,,,,,,,0,,,86,62
781920,note_on,0,0,4,,,,,,,,,3,,,36,0
781920,note_on,0,0,4,,,,,,,,,3,,,36,49
781920,note_on,0,0,4,,,,,,,,,3,,,48,49
781920,note_on,960,0,4,,,,,,,,,3,,,48,0
782079,note_on,0,0,1,,,,,,,,,0,,,87,62
782079,note_on,319,0,1,,,,,,,,,0,,,86,0
782400,note_on,0,0,4,,,,,,,,,3,,,36,49
782400,note_on,0,0,4,,,,,,,,,3,,,48,49
782400,note_on,0,0,4,,,,,,,,,3,,,36,0
782400,note_on,480,0,4,,,,,,,,,3,,,48,0
782400,note_on,0,0,1,,,,,,,,,0,,,88,62
782400,note_on,321,0,1,,,,,,,,,0,,,87,0
782720,note_on,320,0,1,,,,,,,,,0,,,88,0
782720,note_on,0,0,1,,,,,,,,,0,,,89,62
782880,note_on,480,0,4,,,,,,,,,3,,,48,0
782880,note_on,0,0,4,,,,,,,,,3,,,36,0
782880,note_on,0,0,4,,,,,,,,,3,,,36,49
782880,note_on,0,0,4,,,,,,,,,3,,,48,49
783039,control_change,0,0,1,,,,,,,,,0,64,0,,
783039,note_on,0,0,1,,,,,,,,,0,,,90,62
783039,note_on,319,0,1,,,,,,,,,0,,,89,0
783360,note_on,321,0,1,,,,,,,,,0,,,90,0
783360,note_on,0,0,3,,,,,,,,,2,,,55,49
783360,note_on,0,0,1,,,,,,,,,0,,,91,62
783360,note_on,1920,0,2,,,,,,,,,1,,,64,0
783360,note_on,0,0,2,,,,,,,,,1,,,60,0
783360,note_on,0,0,2,,,,,,,,,1,,,60,49
783360,note_on,0,0,2,,,,,,,,,1,,,64,49
783360,note_on,2880,0,3,,,,,,,,,2,,,55,0
783391,note_on,31,0,1,,,,,,,,,0,,,91,0
783680,note_on,289,0,1,,,,,,,,,0,,,91,62
783712,note_on,32,0,1,,,,,,,,,0,,,91,0
783840,note_on,0,0,4,,,,,,,,,3,,,36,0
783840,note_on,960,0,4,,,,,,,,,3,,,48,0
783840,note_on,0,0,4,,,,,,,,,3,,,52,49
783840,note_on,0,0,4,,,,,,,,,3,,,40,49
783999,note_on,287,0,1,,,,,,,,,0,,,91,62
784031,note_on,32,0,1,,,,,,,,,0,,,91,0
784320,note_on,0,0,2,,,,,,,,,1,,,60,0
784320,note_on,0,0,2,,,,,,,,,1,,,60,49
784320,note_on,0,0,4,,,,,,,,,3,,,40,0
784320,note_on,480,0,4,,,,,,,,,3,,,52,0
784320,note_on,0,0,2,,,,,,,,,1,,,62,49
784320,note_on,960,0,3,,,,,,,,,2,,,55,0
784320,note_on,0,0,3,,,,,,,,,2,,,55,49
784320,note_on,0,0,4,,,,,,,,,3,,,31,49
784320,note_on,0,0,4,,,,,,,,,3,,,43,49
784320,note_on,960,0,2,,,,,,,,,1,,,64,0
784320,note_on,289,0,1,,,,,,,,,0,,,93,62
784640,note_on,320,0,1,,,,,,,,,0,,,93,0
784640,note_on,0,0,1,,,,,,,,,0,,,91,62
784800,note_on,0,0,4,,,,,,,,,3,,,31,49
784800,note_on,0,0,4,,,,,,,,,3,,,43,49
784800,note_on,0,0,4,,,,,,,,,3,,,31,0
784800,note_on,480,0,4,,,,,,,,,3,,,43,0
784959,note_on,0,0,1,,,,,,,,,0,,,90,62
784959,note_on,319,0,1,,,,,,,,,0,,,91,0
784991,note_on,32,0,1,,,,,,,,,0,,,90,0
785280,note_on,289,0,1,,,,,,,,,0,,,90,62
785600,note_on,0,0,1,,,,,,,,,0,,,91,62
785600,note_on,320,0,1,,,,,,,,,0,,,90,0
785760,note_on,0,0,4,,,,,,,,,3,,,43,49
785760,note_on,960,0,4,,,,,,,,,3,,,43,0
785760,note_on,0,0,4,,,,,,,,,3,,,31,49
785760,note_on,0,0,4,,,,,,,,,3,,,31,0
785919,note_on,0,0,1,,,,,,,,,0,,,86,62
785919,note_on,319,0,1,,,,,,,,,0,,,91,0
785951,note_on,32,0,1,,,,,,,,,0,,,86,0
786240,note_on,480,0,4,,,,,,,,,3,,,43,0
786240,note_on,0,0,2,,,,,,,,,1,,,60,0
786240,note_on,1920,0,2,,,,,,,,,1,,,62,0
786240,note_on,0,0,4,,,,,,,,,3,,,31,49
786240,note_on,0,0,2,,,,,,,,,1,,,59,62
786240,note_on,0,0,4,,,,,,,,,3,,,31,0
786240,note_on,289,0,1,,,,,,,,,0,,,86,62
786240,note_on,0,0,4,,,,,,,,,3,,,43,49
786240,note_on,0,0,2,,,,,,,,,1,,,62,62
786560,note_on,0,0,1,,,,,,,,,0,,,91,62
786560,note_on,320,0,1,,,,,,,,,0,,,86,0
786720,note_on,0,0,4,,,,,,,,,3,,,31,0
786720,note_on,0,0,4,,,,,,,,,3,,,31,49
786720,note_on,0,0,4,,,,,,,,,3,,,43,49
786720,note_on,480,0,4,,,,,,,,,3,,,43,0
786879,note_on,319,0,1,,,,,,,,,0,,,91,0
786879,note_on,0,0,1,,,,,,,,,0,,,91,62
786911,note_on,32,0,1,,,,,,,,,0,,,91,0
786960,note_on,720,0,2,,,,,,,,,1,,,62,0
786960,note_on,0,0,2,,,,,,,,,1,,,59,0
786960,note_on,0,0,2,,,,,,,,,1,,,67,62
787200,note_on,0,0,3,,,,,,,,,2,,,55,49
787200,note_on,2880,0,3,,,,,,,,,2,,,55,0
787200,note_on,240,0,2,,,,,,,,,1,,,67,0
787200,note_on,0,0,2,,,,,,,,,1,,,59,62
787200,note_on,0,0,2,,,,,,,,,1,,,67,62
787200,note_on,289,0,1,,,,,,,,,0,,,91,62
787520,note_on,320,0,1,,,,,,,,,0,,,91,0
787520,note_on,0,0,1,,,,,,,,,0,,,86,62
787680,note_on,960,0,4,,,,,,,,,3,,,43,0
787680,note_on,0,0,4,,,,,,,,,3,,,31,0
787680,note_on,0,0,4,,,,,,,,,3,,,31,49
787680,note_on,0,0,4,,,,,,,,,3,,,43,49
787839,note_on,0,0,1,,,,,,,,,0,,,86,62
787839,note_on,319,0,1,,,,,,,,,0,,,86,0
787871,note_on,32,0,1,,,,,,,,,0,,,86,0
787920,note_on,0,0,2,,,,,,,,,1,,,62,62
787920,note_on,720,0,2,,,,,,,,,1,,,67,0
787920,note_on,0,0,2,,,,,,,,,1,,,59,0
788160,note_on,960,0,3,,,,,,,,,2,,,55,0
788160,note_on,0,0,3,,,,,,,,,2,,,55,49
788160,note_on,289,0,1,,,,,,,,,0,,,88,62
788160,note_on,240,0,2,,,,,,,,,1,,,62,0
788160,note_on,0,0,2,,,,,,,,,1,,,60,49
788160,set_tempo,26880,1,0,,,,,,312500,,,,,,,
788160,note_on,480,0,4,,,,,,,,,3,,,43,0
788160,note_on,0,0,2,,,,,,,,,1,,,64,49
788160,note_on,0,0,4,,,,,,,,,3,,,31,0
788160,note_on,0,0,4,,,,,,,,,3,,,48,49
788160,note_on,0,0,4,,,,,,,,,3,,,36,49
788480,note_on,0,0,1,,,,,,,,,0,,,79,62
788480,note_on,320,0,1,,,,,,,,,0,,,88,0
788640,note_on,0,0,4,,,,,,,,,3,,,36,0
788640,note_on,0,0,4,,,,,,,,,3,,,48,49
788640,note_on,480,0,4,,,,,,,,,3,,,48,0
788799,note_on,319,0,1,,,,,,,,,0,,,79,0
788799,note_on,0,0,1,,,,,,,,,0,,,79,62
788831,note_on,32,0,1,,,,,,,,,0,,,79,0
789120,note_on,289,0,1,,,,,,,,,0,,,79,62
789440,note_on,0,0,1,,,,,,,,,0,,,84,62
789440,note_on,320,0,1,,,,,,,,,0,,,79,0
789600,note_on,0,0,4,,,,,,,,,3,,,48,49
789600,note_on,960,0,4,,,,,,,,,3,,,48,0
789759,note_on,319,0,1,,,,,,,,,0,,,84,0
789759,note_on,0,0,1,,,,,,,,,0,,,86,62
789791,note_on,32,0,1,,,,,,,,,0,,,86,0
790080,note_on,289,0,1,,,,,,,,,0,,,88,75
790080,set_tempo,1920,1,0,,,,,,270270,,,,,,,
790080,note_on,0,0,2,,,,,,,,,1,,,76,75
790080,note_on,1920,0,3,,,,,,,,,2,,,55,0
790080,note_on,0,0,2,,,,,,,,,1,,,60,0
790080,note_on,1920,0,2,,,,,,,,,1,,,64,0
790080,note_on,0,0,4,,,,,,,,,3,,,48,62
790080,note_on,480,0,4,,,,,,,,,3,,,48,0
790400,note_on,0,0,1,,,,,,,,,0,,,91,75
790400,note_on,320,0,1,,,,,,,,,0,,,88,0
790400,note_on,0,0,2,,,,,,,,,1,,,79,75
790400,note_on,320,0,2,,,,,,,,,1,,,76,0
790400,note_on,0,0,3,,,,,,,,,2,,,55,62
790400,control_change,320,0,3,,,,,,,,,2,64,127,,
790560,note_on,0,0,4,,,,,,,,,3,,,48,62
790560,note_on,480,0,4,,,,,,,,,3,,,48,0
790719,note_on,0,0,3,,,,,,,,,2,,,60,62
790719,note_on,319,0,3,,,,,,,,,2,,,55,0
790719,note_on,319,0,2,,,,,,,,,1,,,79,0
790719,note_on,319,0,1,,,,,,,,,0,,,91,0
790719,note_on,0,0,2,,,,,,,,,1,,,79,75
790719,note_on,0,0,1,,,,,,,,,0,,,91,75
790751,note_on,32,0,1,,,,,,,,,0,,,91,0
790751,note_on,32,0,2,,,,,,,,,1,,,79,0
791040,note_on,289,0,1,,,,,,,,,0,,,91,75
791040,note_on,289,0,2,,,,,,,,,1,,,79,75
791040,note_on,321,0,3,,,,,,,,,2,,,60,0
791040,note_on,0,0,3,,,,,,,,,2,,,64,62
791360,note_on,320,0,1,,,,,,,,,0,,,91,0
791360,note_on,320,0,3,,,,,,,,,2,,,64,0
791360,note_on,0,0,3,,,,,,,,,2,,,60,62
791360,note_on,320,0,2,,,,,,,,,1,,,79,0
791360,note_on,0,0,2,,,,,,,,,1,,,76,75
791360,note_on,0,0,1,,,,,,,,,0,,,88,75
791520,note_on,960,0,4,,,,,,,,,3,,,48,0
791520,note_on,0,0,4,,,,,,,,,3,,,48,62
791679,note_on,319,0,3,,,,,,,,,2,,,60,0
791679,note_on,0,0,3,,,,,,,,,2,,,55,62
791679,note_on,0,0,2,,,,,,,,,1,,,72,75
791679,note_on,319,0,2,,,,,,,,,1,,,76,0
791679,note_on,0,0,1,,,,,,,,,0,,,84,75
791679,note_on,319,0,1,,,,,,,,,0,,,88,0
791679,control_change,0,0,3,,,,,,,,,2,64,0,,
791711,note_on,32,0,2,,,,,,,,,1,,,72,0
791711,note_on,32,0,1,,,,,,,,,0,,,84,0
792000,note_on,0,0,4,,,,,,,,,3,,,48,62
792000,note_on,0,0,2,,,,,,,,,1,,,76,75
792000,control_change,289,0,2,,,,,,,,,1,64,127,,
792000,note_on,480,0,4,,,,,,,,,3,,,48,0
792000,control_change,289,0,1,,,,,,,,,0,64,127,,
792000,note_on,321,0,3,,,,,,,,,2,,,55,0
792000,note_on,0,0,1,,,,,,,,,0,,,88,75
792320,note_on,0,0,2,,,,,,,,,1,,,74,75
792320,note_on,320,0,2,,,,,,,,,1,,,76,0
792320,control_change,320,0,3,,,,,,,,,2,64,127,,
792320,note_on,0,0,3,,,,,,,,,2,,,55,62
792320,note_on,320,0,1,,,,,,,,,0,,,88,0
792320,note_on,0,0,1,,,,,,,,,0,,,86,75
792480,note_on,480,0,4,,,,,,,,,3,,,48,0
792480,note_on,0,0,4,,,,,,,,,3,,,48,62
792639,note_on,319,0,1,,,,,,,,,0,,,86,0
792639,control_change,0,0,1,,,,,,,,,0,64,0,,
792639,note_on,0,0,1,,,,,,,,,0,,,85,75
792639,note_on,0,0,3,,,,,,,,,2,,,59,62
792639,note_on,319,0,3,,,,,,,,,2,,,55,0
792639,note_on,319,0,2,,,,,,,,,1,,,74,0
792639,control_change,0,0,2,,,,,,,,,1,64,0,,
792639,note_on,0,0,2,,,,,,,,,1,,,73,75
792960,note_on,0,0,3,,,,,,,,,2,,,65,62
792960,note_on,321,0,3,,,,,,,,,2,,,59,0
792960,control_change,0,0,2,,,,,,,,,1,64,127,,
792960,note_on,0,0,2,,,,,,,,,1,,,73,75
792960,note_on,321,0,2,,,,,,,,,1,,,73,0
792960,note_on,0,0,1,,,,,,,,,0,,,85,75
792960,control_change,0,0,1,,,,,,,,,0,64,127,,
792960,note_on,321,0,1,,,,,,,,,0,,,85,0
793280,note_on,0,0,1,,,,,,,,,0,,,86,75
793280,note_on,320,0,1,,,,,,,,,0,,,85,0
793280,note_on,320,0,3,,,,,,,,,2,,,65,0
793280,note_on,0,0,3,,,,,,,,,2,,,59,62
793280,note_on,0,0,2,,,,,,,,,1,,,74,75
793280,note_on,320,0,2,,,,,,,,,1,,,73,0
793440,note_on,0,0,4,,,,,,,,,3,,,48,62
793440,note_on,960,0,4,,,,,,,,,3,,,48,0
793599,note_on,319,0,2,,,,,,,,,1,,,74,0
793599,note_on,0,0,2,,,,,,,,,1,,,76,75
793599,control_change,0,0,1,,,,,,,,,0,64,0,,
793599,control_change,0,0,2,,,,,,,,,1,64,0,,
793599,control_change,0,0,3,,,,,,,,,2,64,0,,
793599,note_on,319,0,3,,,,,,,,,2,,,59,0
793599,note_on,0,0,1,,,,,,,,,0,,,88,75
793599,note_on,0,0,3,,,,,,,,,2,,,55,62
793599,note_on,319,0,1,,,,,,,,,0,,,86,0
793920,note_on,480,0,4,,,,,,,,,3,,,48,0
793920,note_on,321,0,3,,,,,,,,,2,,,55,0
793920,note_on,0,0,2,,,,,,,,,1,,,77,75
793920,note_on,321,0,2,,,,,,,,,1,,,76,0
793920,note_on,321,0,1,,,,,,,,,0,,,88,0
793920,note_on,0,0,1,,,,,,,,,0,,,89,75
793920,note_on,0,0,4,,,,,,,,,3,,,48,62
794240,control_change,320,0,3,,,,,,,,,2,64,127,,
794240,note_on,0,0,3,,,,,,,,,2,,,55,62
794240,note_on,0,0,2,,,,,,,,,1,,,81,75
794240,note_on,320,0,2,,,,,,,,,1,,,77,0
794240,note_on,320,0,1,,,,,,,,,0,,,89,0
794240,note_on,0,0,1,,,,,,,,,0,,,93,75
794400,note_on,0,0,4,,,,,,,,,3,,,48,62
794400,note_on,480,0,4,,,,,,,,,3,,,48,0
794559,note_on,0,0,1,,,,,,,,,0,,,93,75
794559,note_on,319,0,1,,,,,,,,,0,,,93,0
794559,note_on,0,0,3,,,,,,,,,2,,,59,62
794559,note_on,319,0,3,,,,,,,,,2,,,55,0
794559,note_on,0,0,2,,,,,,,,,1,,,81,75
794559,note_on,319,0,2,,,,,,,,,1,,,81,0
794591,note_on,32,0,1,,,,,,,,,0,,,93,0
794591,note_on,32,0,2,,,,,,,,,1,,,81,0
794880,control_change,289,0,1,,,,,,,,,0,64,127,,
794880,note_on,0,0,1,,,,,,,,,0,,,93,75
794880,note_on,0,0,3,,,,,,,,,2,,,65,62
794880,note_on,321,0,3,,,,,,,,,2,,,59,0
794880,note_on,0,0,2,,,,,,,,,1,,,81,75
794880,control_change,289,0,2,,,,,,,,,1,64,127,,
795200,note_on,0,0,1,,,,,,,,,0,,,89,75
795200,note_on,0,0,3,,,,,,,,,2,,,59,62
795200,note_on,320,0,3,,,,,,,,,2,,,65,0
795200,note_on,320,0,1,,,,,,,,,0,,,93,0
795200,note_on,0,0,2,,,,,,,,,1,,,77,75
795200,note_on,320,0,2,,,,,,,,,1,,,81,0
795360,note_on,960,0,4,,,,,,,,,3,,,48,0
795360,note_on,0,0,4,,,,,,,,,3,,,48,62
795519,note_on,319,0,3,,,,,,,,,2,,,59,0
795519,note_on,0,0,3,,,,,,,,,2,,,55,62
795519,note_on,0,0,2,,,,,,,,,1,,,74,75
795519,control_change,0,0,3,,,,,,,,,2,64,0,,
795519,note_on,0,0,1,,,,,,,,,0,,,86,75
795519,control_change,0,0,1,,,,,,,,,0,64,0,,
795519,note_on,319,0,2,,,,,,,,,1,,,77,0
795519,note_on,319,0,1,,,,,,,,,0,,,89,0
795519,control_change,0,0,2,,,,,,,,,1,64,0,,
795551,note_on,32,0,1,,,,,,,,,0,,,86,0
795551,note_on,32,0,2,,,,,,,,,1,,,74,0
795840,note_on,480,0,4,,,,,,,,,3,,,48,0
795840,note_on,0,0,4,,,,,,,,,3,,,48,62
795840,control_change,289,0,1,,,,,,,,,0,64,127,,
795840,note_on,321,0,3,,,,,,,,,2,,,55,0
795840,note_on,0,0,1,,,,,,,,,0,,,87,75
795840,note_on,0,0,2,,,,,,,,,1,,,75,75
795840,control_change,289,0,2,,,,,,,,,1,64,127,,
796160,note_on,0,0,3,,,,,,,,,2,,,55,62
796160,note_on,320,0,1,,,,,,,,,0,,,87,0
796160,control_change,320,0,3,,,,,,,,,2,64,127,,
796160,note_on,0,0,1,,,,,,,,,0,,,88,75
796160,note_on,320,0,2,,,,,,,,,1,,,75,0
796160,note_on,0,0,2,,,,,,,,,1,,,76,75
796320,note_on,480,0,4,,,,,,,,,3,,,48,0
796320,note_on,0,0,4,,,,,,,,,3,,,48,62
796479,note_on,0,0,1,,,,,,,,,0,,,89,75
796479,note_on,319,0,1,,,,,,,,,0,,,88,0
796479,note_on,0,0,3,,,,,,,,,2,,,60,62
796479,note_on,319,0,3,,,,,,,,,2,,,55,0
796479,note_on,319,0,2,,,,,,,,,1,,,76,0
796479,note_on,0,0,2,,,,,,,,,1,,,77,75
796800,note_on,0,0,3,,,,,,,,,2,,,64,62
796800,note_on,0,0,1,,,,,,,,,0,,,88,75
796800,note_on,321,0,1,,,,,,,,,0,,,89,0
796800,note_on,321,0,3,,,,,,,,,2,,,60,0
796800,note_on,321,0,2,,,,,,,,,1,,,77,0
796800,note_on,0,0,2,,,,,,,,,1,,,76,75
797120,note_on,0,0,1,,,,,,,,,0,,,89,75
797120,note_on,320,0,1,,,,,,,,,0,,,88,0
797120,note_on,320,0,3,,,,,,,,,2,,,64,0
797120,note_on,0,0,2,,,,,,,,,1,,,77,75
797120,note_on,0,0,3,,,,,,,,,2,,,60,62
797120,note_on,320,0,2,,,,,,,,,1,,,76,0
797280,note_on,0,0,4,,,,,,,,,3,,,48,62
797280,note_on,960,0,4,,,,,,,,,3,,,48,0
797439,note_on,0,0,2,,,,,,,,,1,,,78,75
797439,control_change,0,0,2,,,,,,,,,1,64,0,,
797439,note_on,319,0,2,,,,,,,,,1,,,77,0
797439,note_on,0,0,3,,,,,,,,,2,,,55,62
797439,control_change,0,0,3,,,,,,,,,2,64,0,,
797439,note_on,319,0,3,,,,,,,,,2,,,60,0
797439,note_on,319,0,1,,,,,,,,,0,,,89,0
797439,control_change,0,0,1,,,,,,,,,0,64,0,,
797439,note_on,0,0,1,,,,,,,,,0,,,90,75
797760,note_on,480,0,4,,,,,,,,,3,,,48,0
797760,note_on,321,0,1,,,,,,,,,0,,,90,0
797760,note_on,0,0,4,,,,,,,,,3,,,48,62
797760,note_on,321,0,3,,,,,,,,,2,,,55,0
797760,note_on,0,0,2,,,,,,,,,1,,,79,75
797760,note_on,0,0,1,,,,,,,,,0,,,91,75
797760,note_on,321,0,2,,,,,,,,,1,,,78,0
798080,note_on,0,0,2,,,,,,,,,1,,,84,75
798080,note_on,320,0,2,,,,,,,,,1,,,79,0
798080,note_on,0,0,1,,,,,,,,,0,,,96,75
798080,note_on,320,0,1,,,,,,,,,0,,,91,0
798080,control_change,320,0,3,,,,,,,,,2,64,127,,
798080,note_on,0,0,3,,,,,,,,,2,,,55,62
798240,note_on,480,0,4,,,,,,,,,3,,,48,0
798240,note_on,0,0,4,,,,,,,,,3,,,48,62
798399,note_on,0,0,2,,,,,,,,,1,,,84,75
798399,note_on,319,0,3,,,,,,,,,2,,,55,0
798399,note_on,319,0,1,,,,,,,,,0,,,96,0
798399,note_on,319,0,2,,,,,,,,,1,,,84,0
798399,note_on,0,0,1,,,,,,,,,0,,,96,75
798399,note_on,0,0,3,,,,,,,,,2,,,64,62
798431,note_on,32,0,1,,,,,,,,,0,,,96,0
798431,note_on,32,0,2,,,,,,,,,1,,,84,0
798720,note_on,321,0,3,,,,,,,,,2,,,64,0
798720,note_on,289,0,1,,,,,,,,,0,,,96,75
798720,note_on,289,0,2,,,,,,,,,1,,,84,75
798720,note_on,0,0,3,,,,,,,,,2,,,67,62
799040,note_on,320,0,1,,,,,,,,,0,,,96,0
799040,note_on,320,0,3,,,,,,,,,2,,,67,0
799040,note_on,0,0,1,,,,,,,,,0,,,88,75
799040,note_on,320,0,2,,,,,,,,,1,,,84,0
799040,note_on,0,0,2,,,,,,,,,1,,,76,75
799040,note_on,0,0,3,,,,,,,,,2,,,64,62
799200,note_on,960,0,4,,,,,,,,,3,,,48,0
799200,note_on,0,0,4,,,,,,,,,3,,,48,62
799359,note_on,319,0,2,,,,,,,,,1,,,76,0
799359,note_on,0,0,3,,,,,,,,,2,,,55,62
799359,control_change,0,0,3,,,,,,,,,2,64,0,,
799359,note_on,319,0,3,,,,,,,,,2,,,64,0
799359,note_on,0,0,2,,,,,,,,,1,,,76,75
799359,note_on,0,0,1,,,,,,,,,0,,,88,75
799359,note_on,319,0,1,,,,,,,,,0,,,88,0
799391,note_on,32,0,2,,,,,,,,,1,,,76,0
799391,note_on,32,0,1,,,,,,,,,0,,,88,0
799680,note_on,289,0,2,,,,,,,,,1,,,76,75
799680,note_on,480,0,4,,,,,,,,,3,,,48,0
799680,note_on,0,0,4,,,,,,,,,3,,,52,62
799680,note_on,321,0,3,,,,,,,,,2,,,55,0
799680,note_on,289,0,1,,,,,,,,,0,,,88,75
800000,note_on,320,0,1,,,,,,,,,0,,,88,0
800000,note_on,0,0,2,,,,,,,,,1,,,79,75
800000,note_on,320,0,2,,,,,,,,,1,,,76,0
800000,note_on,0,0,3,,,,,,,,,2,,,60,62
800000,control_change,320,0,3,,,,,,,,,2,64,127,,
800000,note_on,0,0,1,,,,,,,,,0,,,91,75
800160,note_on,0,0,4,,,,,,,,,3,,,52,62
800160,note_on,480,0,4,,,,,,,,,3,,,52,0
800319,note_on,319,0,1,,,,,,,,,0,,,91,0
800319,note_on,0,0,3,,,,,,,,,2,,,64,62
800319,note_on,319,0,3,,,,,,,,,2,,,60,0
800319,note_on,0,0,2,,,,,,,,,1,,,79,75
800319,note_on,319,0,2,,,,,,,,,1,,,79,0
800319,note_on,0,0,1,,,,,,,,,0,,,91,75
800351,note_on,32,0,2,,,,,,,,,1,,,79,0
800351,note_on,32,0,1,,,,,,,,,0,,,91,0
800640,note_on,289,0,1,,,,,,,,,0,,,91,75
800640,note_on,321,0,3,,,,,,,,,2,,,64,0
800640,note_on,289,0,2,,,,,,,,,1,,,79,75
800640,note_on,0,0,3,,,,,,,,,2,,,67,62
800960,note_on,320,0,1,,,,,,,,,0,,,91,0
800960,note_on,0,0,1,,,,,,,,,0,,,84,75
800960,note_on,0,0,3,,,,,,,,,2,,,64,62
800960,note_on,320,0,3,,,,,,,,,2,,,67,0
800960,note_on,0,0,2,,,,,,,,,1,,,72,75
800960,note_on,320,0,2,,,,,,,,,1,,,79,0
801120,note_on,0,0,4,,,,,,,,,3,,,52,62
801120,note_on,960,0,4,,,,,,,,,3,,,52,0
801279,note_on,0,0,3,,,,,,,,,2,,,60,62
801279,note_on,0,0,1,,,,,,,,,0,,,84,75
801279,note_on,319,0,1,,,,,,,,,0,,,84,0
801279,note_on,0,0,2,,,,,,,,,1,,,72,75
801279,note_on,319,0,3,,,,,,,,,2,,,64,0
801279,control_change,0,0,3,,,,,,,,,2,64,0,,
801279,note_on,319,0,2,,,,,,,,,1,,,72,0
801311,note_on,32,0,2,,,,,,,,,1,,,72,0
801311,note_on,32,0,1,,,,,,,,,0,,,84,0
801600,note_on,0,0,4,,,,,,,,,3,,,55,62
801600,note_on,0,0,1,,,,,,,,,0,,,83,75
801600,control_change,289,0,2,,,,,,,,,1,64,127,,
801600,note_on,0,0,2,,,,,,,,,1,,,71,75
801600,control_change,289,0,1,,,,,,,,,0,64,127,,
801600,note_on,480,0,4,,,,,,,,,3,,,52,0
801600,note_on,321,0,3,,,,,,,,,2,,,60,0
801920,note_on,0,0,2,,,,,,,,,1,,,72,75
801920,note_on,0,0,1,,,,,,,,,0,,,84,75
801920,note_on,320,0,1,,,,,,,,,0,,,83,0
801920,note_on,320,0,2,,,,,,,,,1,,,71,0
801920,note_on,0,0,3,,,,,,,,,2,,,64,62
801920,control_change,320,0,3,,,,,,,,,2,64,127,,
802080,note_on,0,0,4,,,,,,,,,3,,,55,62
802080,note_on,480,0,4,,,,,,,,,3,,,55,0
802239,note_on,0,0,3,,,,,,,,,2,,,67,62
802239,note_on,319,0,3,,,,,,,,,2,,,64,0
802239,note_on,319,0,1,,,,,,,,,0,,,84,0
802239,note_on,319,0,2,,,,,,,,,1,,,72,0
802239,note_on,0,0,2,,,,,,,,,1,,,73,75
802239,note_on,0,0,1,,,,,,,,,0,,,85,75
802560,note_on,0,0,1,,,,,,,,,0,,,88,88
802560,note_on,0,0,2,,,,,,,,,1,,,76,88
802560,note_on,321,0,2,,,,,,,,,1,,,73,0
802560,note_on,321,0,3,,,,,,,,,2,,,67,0
802560,note_on,0,0,3,,,,,,,,,2,,,65,75
802560,note_on,321,0,1,,,,,,,,,0,,,85,0
802880,note_on,320,0,1,,,,,,,,,0,,,88,0
802880,note_on,0,0,1,,,,,,,,,0,,,86,88
802880,note_on,320,0,2,,,,,,,,,1,,,76,0
802880,note_on,0,0,2,,,,,,,,,1,,,74,88
802880,note_on,320,0,3,,,,,,,,,2,,,65,0
802880,note_on,0,0,3,,,,,,,,,2,,,67,75
803040,note_on,960,0,4,,,,,,,,,3,,,55,0
803040,note_on,0,0,4,,,,,,,,,3,,,55,62
803199,note_on,0,0,2,,,,,,,,,1,,,75,88
803199,control_change,0,0,2,,,,,,,,,1,64,0,,
803199,note_on,319,0,2,,,,,,,,,1,,,74,0
803199,note_on,319,0,3,,,,,,,,,2,,,67,0
803199,control_change,0,0,1,,,,,,,,,0,64,0,,
803199,note_on,319,0,1,,,,,,,,,0,,,86,0
803199,note_on,0,0,3,,,,,,,,,2,,,65,75
803199,note_on,0,0,1,,,,,,,,,0,,,87,88
803199,control_change,0,0,3,,,,,,,,,2,64,0,,
803520,note_on,321,0,1,,,,,,,,,0,,,87,0
803520,note_on,0,0,1,,,,,,,,,0,,,89,88
803520,control_change,0,0,1,,,,,,,,,0,64,127,,
803520,control_change,0,0,2,,,,,,,,,1,64,127,,
803520,note_on,0,0,2,,,,,,,,,1,,,77,88
803520,note_on,321,0,2,,,,,,,,,1,,,75,0
803520,note_on,480,0,4,,,,,,,,,3,,,55,0
803520,note_on,0,0,4,,,,,,,,,3,,,48,62
803520,note_on,0,0,4,,,,,,,,,3,,,55,62
803520,note_on,321,0,3,,,,,,,,,2,,,65,0
803840,note_on,320,0,1,,,,,,,,,0,,,89,0
803840,note_on,0,0,2,,,,,,,,,1,,,76,88
803840,note_on,320,0,2,,,,,,,,,1,,,77,0
803840,control_change,320,0,3,,,,,,,,,2,64,127,,
803840,note_on,0,0,3,,,,,,,,,2,,,60,75
803840,note_on,0,0,1,,,,,,,,,0,,,88,88
804000,note_on,480,0,4,,,,,,,,,3,,,55,0
804000,note_on,0,0,4,,,,,,,,,3,,,48,62
804000,note_on,0,0,4,,,,,,,,,3,,,55,62
804000,note_on,0,0,4,,,,,,,,,3,,,48,0
804159,note_on,319,0,2,,,,,,,,,1,,,76,0
804159,note_on,0,0,2,,,,,,,,,1,,,75,75
804159,note_on,319,0,3,,,,,,,,,2,,,60,0
804159,note_on,0,0,1,,,,,,,,,0,,,87,75
804159,note_on,319,0,1,,,,,,,,,0,,,88,0
804159,note_on,0,0,3,,,,,,,,,2,,,59,62
804480,note_on,0,0,2,,,,,,,,,1,,,76,75
804480,note_on,321,0,3,,,,,,,,,2,,,59,0
804480,note_on,0,0,1,,,,,,,,,0,,,88,75
804480,note_on,0,0,3,,,,,,,,,2,,,60,62
804480,note_on,321,0,1,,,,,,,,,0,,,87,0
804480,note_on,321,0,2,,,,,,,,,1,,,75,0
804800,note_on,0,0,2,,,,,,,,,1,,,77,75
804800,note_on,320,0,2,,,,,,,,,1,,,76,0
804800,note_on,320,0,1,,,,,,,,,0,,,88,0
804800,note_on,0,0,3,,,,,,,,,2,,,62,62
804800,note_on,320,0,3,,,,,,,,,2,,,60,0
804800,note_on,0,0,1,,,,,,,,,0,,,89,75
804960,note_on,0,0,4,,,,,,,,,3,,,48,62
804960,note_on,960,0,4,,,,,,,,,3,,,55,0
804960,note_on,0,0,4,,,,,,,,,3,,,48,0
804960,note_on,0,0,4,,,,,,,,,3,,,55,62
805119,note_on,319,0,3,,,,,,,,,2,,,62,0
805119,control_change,0,0,3,,,,,,,,,2,64,0,,
805119,note_on,0,0,3,,,,,,,,,2,,,63,62
805119,note_on,0,0,2,,,,,,,,,1,,,78,75
805119,control_change,0,0,2,,,,,,,,,1,64,0,,
805119,note_on,0,0,1,,,,,,,,,0,,,90,75
805119,control_change,0,0,1,,,,,,,,,0,64,0,,
805119,note_on,319,0,1,,,,,,,,,0,,,89,0
805119,note_on,319,0,2,,,,,,,,,1,,,77,0
805440,note_on,0,0,4,,,,,,,,,3,,,48,0
805440,note_on,0,0,2,,,,,,,,,1,,,79,75
805440,note_on,321,0,2,,,,,,,,,1,,,78,0
805440,note_on,480,0,4,,,,,,,,,3,,,55,0
805440,note_on,0,0,4,,,,,,,,,3,,,48,62
805440,note_on,321,0,1,,,,,,,,,0,,,90,0
805440,control_change,0,0,3,,,,,,,,,2,64,127,,
805440,note_on,0,0,3,,,,,,,,,2,,,64,62
805440,note_on,321,0,3,,,,,,,,,2,,,63,0
805440,note_on,0,0,1,,,,,,,,,0,,,91,75
805760,note_on,320,0,1,,,,,,,,,0,,,91,0
805760,note_on,320,0,3,,,,,,,,,2,,,64,0
805760,note_on,0,0,3,,,,,,,,,2,,,55,62
805760,note_on,320,0,2,,,,,,,,,1,,,79,0
805760,note_on,0,0,2,,,,,,,,,1,,,88,75
805760,note_on,0,0,1,,,,,,,,,0,,,100,75
805920,note_on,480,0,4,,,,,,,,,3,,,48,0
805920,note_on,0,0,4,,,,,,,,,3,,,48,62
806079,note_on,0,0,3,,,,,,,,,2,,,64,62
806079,note_on,319,0,2,,,,,,,,,1,,,88,0
806079,note_on,0,0,2,,,,,,,,,1,,,88,75
806079,note_on,319,0,3,,,,,,,,,2,,,55,0
806079,note_on,319,0,1,,,,,,,,,0,,,100,0
806079,note_on,0,0,1,,,,,,,,,0,,,100,75
806111,note_on,32,0,2,,,,,,,,,1,,,88,0
806111,note_on,32,0,1,,,,,,,,,0,,,100,0
806400,note_on,289,0,1,,,,,,,,,0,,,100,75
806400,note_on,289,0,2,,,,,,,,,1,,,88,75
806400,note_on,0,0,3,,,,,,,,,2,,,67,62
806400,note_on,321,0,3,,,,,,,,,2,,,64,0
806720,note_on,0,0,3,,,,,,,,,2,,,64,62
806720,note_on,0,0,2,,,,,,,,,1,,,84,75
806720,note_on,320,0,1,,,,,,,,,0,,,100,0
806720,note_on,0,0,1,,,,,,,,,0,,,96,75
806720,note_on,320,0,3,,,,,,,,,2,,,67,0
806720,note_on,320,0,2,,,,,,,,,1,,,88,0
806880,note_on,960,0,4,,,,,,,,,3,,,48,0
806880,note_on,0,0,4,,,,,,,,,3,,,48,62
807039,note_on,319,0,1,,,,,,,,,0,,,96,0
807039,note_on,0,0,1,,,,,,,,,0,,,91,75
807039,note_on,0,0,3,,,,,,,,,2,,,55,62
807039,control_change,0,0,3,,,,,,,,,2,64,0,,
807039,note_on,319,0,2,,,,,,,,,1,,,84,0
807039,note_on,0,0,2,,,,,,,,,1,,,79,75
807039,note_on,319,0,3,,,,,,,,,2,,,64,0
807071,note_on,32,0,1,,,,,,,,,0,,,91,0
807071,note_on,32,0,2,,,,,,,,,1,,,79,0
807360,note_on,289,0,1,,,,,,,,,0,,,88,75
807360,note_on,0,0,4,,,,,,,,,3,,,52,62
807360,note_on,480,0,4,,,,,,,,,3,,,48,0
807360,note_on,289,0,2,,,,,,,,,1,,,76,75
807360,note_on,321,0,3,,,,,,,,,2,,,55,0
807680,note_on,0,0,3,,,,,,,,,2,,,60,62
807680,note_on,0,0,1,,,,,,,,,0,,,96,75
807680,note_on,0,0,2,,,,,,,,,1,,,84,75
807680,control_change,320,0,3,,,,,,,,,2,64,127,,
807680,note_on,320,0,1,,,,,,,,,0,,,88,0
807680,note_on,320,0,2,,,,,,,,,1,,,76,0
807840,note_on,0,0,4,,,,,,,,,3,,,52,62
807840,note_on,480,0,4,,,,,,,,,3,,,52,0
807999,note_on,0,0,2,,,,,,,,,1,,,84,75
807999,note_on,319,0,2,,,,,,,,,1,,,84,0
807999,note_on,0,0,1,,,,,,,,,0,,,96,75
807999,note_on,319,0,1,,,,,,,,,0,,,96,0
807999,note_on,0,0,3,,,,,,,,,2,,,64,62
807999,note_on,319,0,3,,,,,,,,,2,,,60,0
808031,note_on,32,0,2,,,,,,,,,1,,,84,0
808031,note_on,32,0,1,,,,,,,,,0,,,96,0
808320,note_on,289,0,2,,,,,,,,,1,,,84,75
808320,note_on,289,0,1,,,,,,,,,0,,,96,75
808320,note_on,0,0,3,,,,,,,,,2,,,67,62
808320,note_on,321,0,3,,,,,,,,,2,,,64,0
808640,note_on,0,0,3,,,,,,,,,2,,,64,62
808640,note_on,320,0,3,,,,,,,,,2,,,67,0
808640,note_on,0,0,2,,,,,,,,,1,,,79,75
808640,note_on,320,0,1,,,,,,,,,0,,,96,0
808640,note_on,320,0,2,,,,,,,,,1,,,84,0
808640,note_on,0,0,1,,,,,,,,,0,,,91,75
808800,note_on,960,0,4,,,,,,,,,3,,,52,0
808800,note_on,0,0,4,,,,,,,,,3,,,52,62
808959,note_on,0,0,3,,,,,,,,,2,,,60,62
808959,note_on,319,0,1,,,,,,,,,0,,,91,0
808959,note_on,319,0,3,,,,,,,,,2,,,64,0
808959,note_on,0,0,1,,,,,,,,,0,,,88,75
808959,control_change,0,0,3,,,,,,,,,2,64,0,,
808959,note_on,319,0,2,,,,,,,,,1,,,79,0
808959,note_on,0,0,2,,,,,,,,,1,,,76,75
808991,note_on,32,0,2,,,,,,,,,1,,,76,0
808991,note_on,32,0,1,,,,,,,,,0,,,88,0
809220,note_on,229,0,2,,,,,,,,,1,,,74,75
809220,note_on,229,0,1,,,,,,,,,0,,,86,75
809280,note_on,60,0,2,,,,,,,,,1,,,74,0
809280,note_on,321,0,3,,,,,,,,,2,,,60,0
809280,note_on,0,0,3,,,,,,,,,2,,,64,62
809280,note_on,60,0,1,,,,,,,,,0,,,86,0
809280,control_change,0,0,1,,,,,,,,,0,64,127,,
809280,note_on,0,0,1,,,,,,,,,0,,,84,75
809280,note_on,0,0,2,,,,,,,,,1,,,72,75
809280,note_on,480,0,4,,,,,,,,,3,,,52,0
809280,note_on,0,0,4,,,,,,,,,3,,,43,62
809280,control_change,0,0,2,,,,,,,,,1,64,127,,
809280,control_change,0,0,3,,,,,,,,,2,64,127,,
809600,note_on,0,0,1,,,,,,,,,0,,,83,75
809600,note_on,320,0,3,,,,,,,,,2,,,64,0
809600,note_on,0,0,2,,,,,,,,,1,,,71,75
809600,note_on,320,0,2,,,,,,,,,1,,,72,0
809600,note_on,320,0,1,,,,,,,,,0,,,84,0
809600,note_on,0,0,3,,,,,,,,,2,,,60,62
809760,note_on,0,0,4,,,,,,,,,3,,,43,62
809760,note_on,480,0,4,,,,,,,,,3,,,43,0
809919,note_on,0,0,3,,,,,,,,,2,,,55,62
809919,note_on,0,0,1,,,,,,,,,0,,,84,75
809919,note_on,319,0,1,,,,,,,,,0,,,83,0
809919,note_on,0,0,2,,,,,,,,,1,,,72,75
809919,note_on,319,0,2,,,,,,,,,1,,,71,0
809919,note_on,319,0,3,,,,,,,,,2,,,60,0
810240,note_on,321,0,3,,,,,,,,,2,,,55,0
810240,note_on,0,0,3,,,,,,,,,2,,,62,62
810240,note_on,0,0,2,,,,,,,,,1,,,76,75
810240,note_on,0,0,1,,,,,,,,,0,,,88,75
810240,note_on,321,0,1,,,,,,,,,0,,,84,0
810240,note_on,321,0,2,,,,,,,,,1,,,72,0
810560,note_on,0,0,3,,,,,,,,,2,,,59,62
810560,note_on,320,0,3,,,,,,,,,2,,,62,0
810560,note_on,320,0,2,,,,,,,,,1,,,76,0
810560,note_on,0,0,2,,,,,,,,,1,,,77,75
810560,note_on,320,0,1,,,,,,,,,0,,,88,0
810560,note_on,0,0,1,,,,,,,,,0,,,89,75
810720,note_on,960,0,4,,,,,,,,,3,,,43,0
810720,note_on,0,0,4,,,,,,,,,3,,,43,62
810879,note_on,0,0,2,,,,,,,,,1,,,74,75
810879,note_on,0,0,3,,,,,,,,,2,,,53,62
810879,note_on,319,0,1,,,,,,,,,0,,,89,0
810879,control_change,0,0,1,,,,,,,,,0,64,0,,
810879,note_on,0,0,1,,,,,,,,,0,,,86,75
810879,control_change,0,0,2,,,,,,,,,1,64,0,,
810879,note_on,319,0,2,,,,,,,,,1,,,77,0
810879,control_change,0,0,3,,,,,,,,,2,64,0,,
810879,note_on,319,0,3,,,,,,,,,2,,,59,0
811200,note_on,321,0,2,,,,,,,,,1,,,74,0
811200,note_on,0,0,2,,,,,,,,,1,,,72,75
811200,note_on,480,0,4,,,,,,,,,3,,,43,0
811200,note_on,0,0,4,,,,,,,,,3,,,48,62
811200,note_on,0,0,1,,,,,,,,,0,,,84,75
811200,note_on,321,0,1,,,,,,,,,0,,,86,0
811200,note_on,0,0,3,,,,,,,,,2,,,52,62
811200,note_on,321,0,3,,,,,,,,,2,,,53,0
811231,note_on,31,0,1,,,,,,,,,0,,,84,0
811520,control_change,289,0,1,,,,,,,,,0,64,127,,
811520,note_on,0,0,1,,,,,,,,,0,,,72,75
811680,note_on,480,0,4,,,,,,,,,3,,,48,0
811680,note_on,0,0,4,,,,,,,,,3,,,48,62
811680,note_on,480,0,3,,,,,,,,,2,,,52,0
811680,note_on,480,0,2,,,,,,,,,1,,,72,0
811839,note_on,319,0,1,,,,,,,,,0,,,72,0
811839,note_on,0,0,1,,,,,,,,,0,,,74,75
812160,note_on,321,0,1,,,,,,,,,0,,,74,0
812160,note_on,0,0,1,,,,,,,,,0,,,76,88
812160,note_on,0,0,2,,,,,,,,,1,,,64,75
812160,note_on,480,0,3,,,,,,,,,2,,,52,75
812160,note_on,480,0,2,,,,,,,,,1,,,55,75
812480,note_on,0,0,1,,,,,,,,,0,,,77,88
812480,note_on,320,0,1,,,,,,,,,0,,,76,0
812640,note_on,960,0,4,,,,,,,,,3,,,48,0
812640,note_on,0,0,4,,,,,,,,,3,,,45,62
812799,note_on,0,0,1,,,,,,,,,0,,,78,88
812799,control_change,0,0,1,,,,,,,,,0,64,0,,
812799,note_on,319,0,1,,,,,,,,,0,,,77,0
812880,note_on,720,0,2,,,,,,,,,1,,,64,0
812880,note_on,0,0,2,,,,,,,,,1,,,60,75
812880,note_on,0,0,2,,,,,,,,,1,,,55,0
813120,control_change,0,0,2,,,,,,,,,1,64,127,,
813120,note_on,960,0,3,,,,,,,,,2,,,52,0
813120,note_on,0,0,3,,,,,,,,,2,,,53,75
813120,note_on,0,0,4,,,,,,,,,3,,,43,62
813120,control_change,0,0,1,,,,,,,,,0,64,127,,
813120,note_on,0,0,2,,,,,,,,,1,,,55,75
813120,note_on,0,0,1,,,,,,,,,0,,,81,88
813120,note_on,240,0,2,,,,,,,,,1,,,60,0
813120,note_on,321,0,1,,,,,,,,,0,,,78,0
813120,note_on,480,0,4,,,,,,,,,3,,,45,0
813120,note_on,0,0,2,,,,,,,,,1,,,60,75
813440,note_on,320,0,1,,,,,,,,,0,,,81,0
813440,note_on,0,0,1,,,,,,,,,0,,,79,75
813600,note_on,0,0,4,,,,,,,,,3,,,43,62
813600,note_on,480,0,4,,,,,,,,,3,,,43,0
813759,note_on,0,0,1,,,,,,,,,0,,,78,75
813759,note_on,319,0,1,,,,,,,,,0,,,79,0
814080,note_on,0,0,2,,,,,,,,,1,,,59,75
814080,note_on,0,0,1,,,,,,,,,0,,,79,75
814080,note_on,321,0,1,,,,,,,,,0,,,78,0
814080,note_on,0,0,2,,,,,,,,,1,,,55,0
814080,note_on,960,0,2,,,,,,,,,1,,,60,0
814400,note_on,0,0,1,,,,,,,,,0,,,91,75
814400,note_on,320,0,1,,,,,,,,,0,,,79,0
814560,note_on,0,0,2,,,,,,,,,1,,,60,75
814560,note_on,480,0,2,,,,,,,,,1,,,59,0
814560,control_change,0,0,2,,,,,,,,,1,64,0,,
814560,note_on,0,0,2,,,,,,,,,1,,,57,75
814560,note_on,0,0,4,,,,,,,,,3,,,43,62
814560,note_on,960,0,4,,,,,,,,,3,,,43,0
814719,note_on,0,0,1,,,,,,,,,0,,,79,75
814719,note_on,319,0,1,,,,,,,,,0,,,91,0
815040,note_on,480,0,2,,,,,,,,,1,,,60,0
815040,note_on,0,0,2,,,,,,,,,1,,,57,0
815040,control_change,0,0,2,,,,,,,,,1,64,127,,
815040,note_on,0,0,2,,,,,,,,,1,,,59,75
815040,note_on,0,0,2,,,,,,,,,1,,,62,75
815040,note_on,480,0,4,,,,,,,,,3,,,43,0
815040,note_on,0,0,4,,,,,,,,,3,,,43,62
815040,note_on,0,0,1,,,,,,,,,0,,,91,75
815040,note_on,321,0,1,,,,,,,,,0,,,79,0
815360,note_on,0,0,1,,,,,,,,,0,,,79,75
815360,note_on,320,0,1,,,,,,,,,0,,,91,0
815520,note_on,480,0,4,,,,,,,,,3,,,43,0
815520,note_on,0,0,2,,,,,,,,,1,,,64,75
815520,note_on,0,0,2,,,,,,,,,1,,,55,75
815520,note_on,0,0,2,,,,,,,,,1,,,59,0
815520,note_on,480,0,2,,,,,,,,,1,,,62,0
815520,note_on,2400,0,3,,,,,,,,,2,,,53,0
815520,control_change,0,0,3,,,,,,,,,2,64,127,,
815520,note_on,0,0,3,,,,,,,,,2,,,52,75
815520,note_on,0,0,4,,,,,,,,,3,,,43,62
815679,note_on,0,0,1,,,,,,,,,0,,,91,75
815679,note_on,319,0,1,,,,,,,,,0,,,79,0
816000,note_on,0,0,3,,,,,,,,,2,,,50,75
816000,note_on,480,0,3,,,,,,,,,2,,,52,0
816000,note_on,0,0,1,,,,,,,,,0,,,79,75
816000,note_on,321,0,1,,,,,,,,,0,,,91,0
816000,note_on,0,0,2,,,,,,,,,1,,,65,75
816000,note_on,0,0,2,,,,,,,,,1,,,55,0
816000,note_on,480,0,2,,,,,,,,,1,,,64,0
816000,note_on,0,0,2,,,,,,,,,1,,,57,75
816320,note_on,0,0,1,,,,,,,,,0,,,91,75
816320,note_on,320,0,1,,,,,,,,,0,,,79,0
816480,note_on,0,0,3,,,,,,,,,2,,,55,75
816480,control_change,0,0,2,,,,,,,,,1,64,0,,
816480,note_on,0,0,2,,,,,,,,,1,,,57,0
816480,note_on,480,0,2,,,,,,,,,1,,,65,0
816480,note_on,960,0,4,,,,,,,,,3,,,43,0
816480,note_on,0,0,4,,,,,,,,,3,,,43,62
816480,note_on,480,0,3,,,,,,,,,2,,,50,0
816480,note_on,0,0,2,,,,,,,,,1,,,67,75
816480,control_change,0,0,3,,,,,,,,,2,64,0,,
816480,note_on,0,0,2,,,,,,,,,1,,,59,75
816639,note_on,319,0,1,,,,,,,,,0,,,91,0
816639,control_change,0,0,1,,,,,,,,,0,64,0,,
816639,note_on,0,0,1,,,,,,,,,0,,,79,75
816960,note_on,0,0,2,,,,,,,,,1,,,62,75
816960,note_on,0,0,2,,,,,,,,,1,,,59,0
816960,note_on,0,0,3,,,,,,,,,2,,,55,75
816960,note_on,480,0,3,,,,,,,,,2,,,55,0
816960,note_on,480,0,2,,,,,,,,,1,,,67,0
816960,note_on,0,0,1,,,,,,,,,0,,,81,75
816960,control_change,0,0,1,,,,,,,,,0,64,127,,
816960,note_on,480,0,4,,,,,,,,,3,,,43,0
816960,note_on,0,0,4,,,,,,,,,3,,,48,62
816960,note_on,321,0,1,,,,,,,,,0,,,79,0
816960,note_on,0,0,2,,,,,,,,,1,,,65,75
817280,note_on,0,0,1,,,,,,,,,0,,,79,75
817280,note_on,320,0,1,,,,,,,,,0,,,81,0
817440,note_on,480,0,4,,,,,,,,,3,,,48,0
817440,note_on,0,0,4,,,,,,,,,3,,,48,62
817599,note_on,319,0,1,,,,,,,,,0,,,79,0
817599,note_on,0,0,1,,,,,,,,,0,,,78,75
817920,note_on,321,0,1,,,,,,,,,0,,,78,0
817920,note_on,0,0,1,,,,,,,,,0,,,79,75
817920,note_on,960,0,2,,,,,,,,,1,,,65,0
817920,note_on,0,0,2,,,,,,,,,1,,,62,0
817920,note_on,0,0,2,,,,,,,,,1,,,60,75
817920,note_on,0,0,2,,,,,,,,,1,,,64,75
818240,note_on,0,0,1,,,,,,,,,0,,,81,75
818240,note_on,320,0,1,,,,,,,,,0,,,79,0
818400,note_on,960,0,4,,,,,,,,,3,,,48,0
818400,note_on,0,0,4,,,,,,,,,3,,,48,62
818559,note_on,0,0,1,,,,,,,,,0,,,83,75
818559,note_on,319,0,1,,,,,,,,,0,,,81,0
818880,note_on,480,0,4,,,,,,,,,3,,,48,0
818880,note_on,0,0,4,,,,,,,,,3,,,48,62
818880,note_on,0,0,1,,,,,,,,,0,,,86,75
818880,note_on,321,0,1,,,,,,,,,0,,,83,0
819200,note_on,320,0,1,,,,,,,,,0,,,86,0
819200,note_on,0,0,1,,,,,,,,,0,,,84,75
819360,note_on,480,0,4,,,,,,,,,3,,,48,0
819360,note_on,0,0,4,,,,,,,,,3,,,48,62
819519,note_on,319,0,1,,,,,,,,,0,,,84,0
819519,note_on,0,0,1,,,,,,,,,0,,,83,75
819840,note_on,0,0,2,,,,,,,,,1,,,76,75
819840,note_on,2880,0,3,,,,,,,,,2,,,55,0
819840,note_on,0,0,3,,,,,,,,,2,,,60,75
819840,note_on,0,0,2,,,,,,,,,1,,,67,75
819840,note_on,0,0,1,,,,,,,,,0,,,84,75
819840,note_on,321,0,1,,,,,,,,,0,,,83,0
819840,note_on,1920,0,2,,,,,,,,,1,,,64,0
819840,note_on,0,0,2,,,,,,,,,1,,,60,0
820160,note_on,320,0,1,,,,,,,,,0,,,84,0
820160,note_on,0,0,1,,,,,,,,,0,,,76,75
820320,note_on,0,0,4,,,,,,,,,3,,,45,62
820320,note_on,960,0,4,,,,,,,,,3,,,48,0
820320,note_on,0,0,3,,,,,,,,,2,,,64,75
820320,note_on,480,0,3,,,,,,,,,2,,,60,0
820479,note_on,319,0,1,,,,,,,,,0,,,76,0
820479,control_change,0,0,1,,,,,,,,,0,64,0,,
820479,note_on,0,0,1,,,,,,,,,0,,,78,75
820560,note_on,0,0,2,,,,,,,,,1,,,72,75
820560,note_on,0,0,2,,,,,,,,,1,,,67,0
820560,note_on,720,0,2,,,,,,,,,1,,,76,0
820800,note_on,321,0,1,,,,,,,,,0,,,78,0
820800,note_on,0,0,4,,,,,,,,,3,,,43,62
820800,note_on,0,0,3,,,,,,,,,2,,,65,75
820800,control_change,0,0,1,,,,,,,,,0,64,127,,
820800,note_on,0,0,2,,,,,,,,,1,,,72,75
820800,note_on,0,0,2,,,,,,,,,1,,,67,75
820800,control_change,0,0,2,,,,,,,,,1,64,127,,
820800,note_on,240,0,2,,,,,,,,,1,,,72,0
820800,note_on,480,0,4,,,,,,,,,3,,,45,0
820800,note_on,480,0,3,,,,,,,,,2,,,64,0
820800,note_on,0,0,1,,,,,,,,,0,,,81,75
821120,note_on,320,0,1,,,,,,,,,0,,,81,0
821120,note_on,0,0,1,,,,,,,,,0,,,79,75
821280,note_on,0,0,4,,,,,,,,,3,,,43,62
821280,note_on,480,0,4,,,,,,,,,3,,,43,0
821439,note_on,319,0,1,,,,,,,,,0,,,79,0
821439,note_on,0,0,1,,,,,,,,,0,,,78,75
821760,note_on,0,0,2,,,,,,,,,1,,,71,75
821760,note_on,0,0,1,,,,,,,,,0,,,79,75
821760,note_on,0,0,2,,,,,,,,,1,,,67,75
821760,note_on,0,0,2,,,,,,,,,1,,,67,0
821760,note_on,960,0,2,,,,,,,,,1,,,72,0
821760,note_on,321,0,1,,,,,,,,,0,,,78,0
822080,note_on,0,0,1,,,,,,,,,0,,,91,75
822080,note_on,320,0,1,,,,,,,,,0,,,79,0
822240,note_on,0,0,2,,,,,,,,,1,,,72,75
822240,note_on,0,0,2,,,,,,,,,1,,,69,75
822240,control_change,0,0,2,,,,,,,,,1,64,0,,
822240,note_on,0,0,2,,,,,,,,,1,,,67,0
822240,note_on,960,0,4,,,,,,,,,3,,,43,0
822240,note_on,0,0,4,,,,,,,,,3,,,43,62
822240,note_on,480,0,2,,,,,,,,,1,,,71,0
822399,note_on,319,0,1,,,,,,,,,0,,,91,0
822399,note_on,0,0,1,,,,,,,,,0,,,79,75
822720,note_on,0,0,2,,,,,,,,,1,,,71,75
822720,note_on,0,0,2,,,,,,,,,1,,,74,75
822720,note_on,480,0,2,,,,,,,,,1,,,72,0
822720,note_on,480,0,4,,,,,,,,,3,,,43,0
822720,control_change,0,0,2,,,,,,,,,1,64,127,,
822720,note_on,0,0,4,,,,,,,,,3,,,43,62
822720,note_on,0,0,2,,,,,,,,,1,,,69,0
822720,note_on,321,0,1,,,,,,,,,0,,,79,0
822720,control_change,1920,0,3,,,,,,,,,2,64,127,,
822720,note_on,0,0,1,,,,,,,,,0,,,91,75
823040,note_on,320,0,1,,,,,,,,,0,,,91,0
823040,note_on,0,0,1,,,,,,,,,0,,,79,75
823200,note_on,480,0,3,,,,,,,,,2,,,65,0
823200,note_on,480,0,4,,,,,,,,,3,,,43,0
823200,note_on,0,0,4,,,,,,,,,3,,,43,62
823200,note_on,480,0,2,,,,,,,,,1,,,74,0
823200,note_on,0,0,2,,,,,,,,,1,,,71,0
823200,note_on,0,0,2,,,,,,,,,1,,,67,75
823200,note_on,0,0,2,,,,,,,,,1,,,76,75
823200,note_on,0,0,3,,,,,,,,,2,,,64,75
823359,note_on,319,0,1,,,,,,,,,0,,,79,0
823359,note_on,0,0,1,,,,,,,,,0,,,91,75
823680,note_on,321,0,1,,,,,,,,,0,,,91,0
823680,note_on,0,0,2,,,,,,,,,1,,,77,75
823680,note_on,0,0,2,,,,,,,,,1,,,69,75
823680,note_on,0,0,2,,,,,,,,,1,,,67,0
823680,note_on,480,0,2,,,,,,,,,1,,,76,0
823680,note_on,0,0,1,,,,,,,,,0,,,79,75
823680,note_on,0,0,3,,,,,,,,,2,,,62,75
823680,note_on,480,0,3,,,,,,,,,2,,,64,0
824000,note_on,320,0,1,,,,,,,,,0,,,79,0
824000,note_on,0,0,1,,,,,,,,,0,,,91,75
824160,note_on,0,0,4,,,,,,,,,3,,,43,62
824160,note_on,960,0,4,,,,,,,,,3,,,43,0
824160,note_on,0,0,2,,,,,,,,,1,,,71,75
824160,note_on,0,0,2,,,,,,,,,1,,,69,0
824160,note_on,480,0,3,,,,,,,,,2,,,62,0
824160,note_on,480,0,2,,,,,,,,,1,,,77,0
824160,note_on,0,0,3,,,,,,,,,2,,,67,75
824160,control_change,0,0,3,,,,,,,,,2,64,0,,
824160,note_on,0,0,2,,,,,,,,,1,,,79,75
824160,control_change,0,0,2,,,,,,,,,1,64,0,,
824319,note_on,0,0,1,,,,,,,,,0,,,79,75
824319,control_change,0,0,1,,,,,,,,,0,64,0,,
824319,note_on,319,0,1,,,,,,,,,0,,,91,0
824640,note_on,0,0,2,,,,,,,,,1,,,74,75
824640,note_on,0,0,2,,,,,,,,,1,,,77,75
824640,note_on,0,0,4,,,,,,,,,3,,,48,62
824640,note_on,480,0,2,,,,,,,,,1,,,79,0
824640,note_on,321,0,1,,,,,,,,,0,,,79,0
824640,note_on,480,0,4,,,,,,,,,3,,,43,0
824640,note_on,0,0,4,,,,,,,,,3,,,36,62
824640,note_on,0,0,2,,,,,,,,,1,,,71,0
824640,control_change,0,0,1,,,,,,,,,0,64,127,,
824640,note_on,0,0,1,,,,,,,,,0,,,81,75
824640,note_on,480,0,3,,,,,,,,,2,,,67,0
824640,note_on,0,0,3,,,,,,,,,2,,,67,75
824960,note_on,320,0,1,,,,,,,,,0,,,81,0
824960,note_on,0,0,1,,,,,,,,,0,,,79,75
825120,note_on,0,0,4,,,,,,,,,3,,,36,62
825120,note_on,0,0,4,,,,,,,,,3,,,48,62
825120,note_on,0,0,4,,,,,,,,,3,,,36,0
825120,note_on,480,0,4,,,,,,,,,3,,,48,0
825279,note_on,0,0,1,,,,,,,,,0,,,78,75
825279,note_on,319,0,1,,,,,,,,,0,,,79,0
825600,note_on,0,0,1,,,,,,,,,0,,,79,75
825600,note_on,321,0,1,,,,,,,,,0,,,78,0
825600,note_on,960,0,2,,,,,,,,,1,,,77,0
825600,note_on,0,0,2,,,,,,,,,1,,,74,0
825600,note_on,0,0,2,,,,,,,,,1,,,72,75
825600,note_on,0,0,2,,,,,,,,,1,,,76,75
825920,note_on,0,0,1,,,,,,,,,0,,,81,75
825920,note_on,320,0,1,,,,,,,,,0,,,79,0
826080,note_on,0,0,4,,,,,,,,,3,,,48,62
826080,note_on,0,0,4,,,,,,,,,3,,,36,0
826080,note_on,0,0,4,,,,,,,,,3,,,36,62
826080,note_on,960,0,4,,,,,,,,,3,,,48,0
826239,note_on,0,0,1,,,,,,,,,0,,,83,75
826239,note_on,319,0,1,,,,,,,,,0,,,81,0
826560,note_on,0,0,2,,,,,,,,,1,,,72,75
826560,note_on,0,0,4,,,,,,,,,3,,,36,62
826560,note_on,0,0,2,,,,,,,,,1,,,72,0
826560,note_on,0,0,4,,,,,,,,,3,,,48,62
826560,note_on,960,0,2,,,,,,,,,1,,,76,0
826560,note_on,0,0,2,,,,,,,,,1,,,76,75
826560,note_on,0,0,1,,,,,,,,,0,,,86,75
826560,note_on,480,0,4,,,,,,,,,3,,,48,0
826560,note_on,0,0,4,,,,,,,,,3,,,36,0
826560,note_on,321,0,1,,,,,,,,,0,,,83,0
826880,note_on,320,0,1,,,,,,,,,0,,,86,0
826880,note_on,0,0,1,,,,,,,,,0,,,84,75
827040,note_on,0,0,4,,,,,,,,,3,,,48,62
827040,note_on,0,0,4,,,,,,,,,3,,,36,62
827040,note_on,480,0,4,,,,,,,,,3,,,48,0
827040,note_on,0,0,4,,,,,,,,,3,,,36,0
827199,note_on,319,0,1,,,,,,,,,0,,,84,0
827199,note_on,0,0,1,,,,,,,,,0,,,83,75
827520,note_on,321,0,1,,,,,,,,,0,,,83,0
827520,note_on,0,0,1,,,,,,,,,0,,,84,75
827840,note_on,320,0,1,,,,,,,,,0,,,84,0
827840,note_on,0,0,1,,,,,,,,,0,,,96,75
828000,note_on,0,0,4,,,,,,,,,3,,,36,62
828000,note_on,0,0,4,,,,,,,,,3,,,36,0
828000,note_on,0,0,4,,,,,,,,,3,,,48,62
828000,note_on,960,0,4,,,,,,,,,3,,,48,0
828159,note_on,319,0,1,,,,,,,,,0,,,96,0
828159,note_on,0,0,1,,,,,,,,,0,,,91,75
828159,control_change,0,0,1,,,,,,,,,0,64,0,,
828480,note_on,0,0,4,,,,,,,,,3,,,36,62
828480,note_on,0,0,4,,,,,,,,,3,,,36,0
828480,note_on,480,0,4,,,,,,,,,3,,,48,0
828480,note_on,0,0,1,,,,,,,,,0,,,93,62
828480,control_change,0,0,1,,,,,,,,,0,64,127,,
828480,note_on,321,0,1,,,,,,,,,0,,,91,0
828480,note_on,0,0,3,,,,,,,,,2,,,48,62
828480,note_on,3840,0,3,,,,,,,,,2,,,67,0
828800,note_on,0,0,1,,,,,,,,,0,,,91,62
828800,note_on,320,0,1,,,,,,,,,0,,,93,0
828960,note_on,0,0,3,,,,,,,,,2,,,48,62
828960,note_on,480,0,3,,,,,,,,,2,,,48,0
828960,note_on,0,0,4,,,,,,,,,3,,,36,62
828960,note_on,480,0,4,,,,,,,,,3,,,36,0
829119,note_on,319,0,1,,,,,,,,,0,,,91,0
829119,note_on,0,0,1,,,,,,,,,0,,,90,62
829440,note_on,0,0,2,,,,,,,,,1,,,72,0
829440,note_on,321,0,1,,,,,,,,,0,,,90,0
829440,note_on,0,0,1,,,,,,,,,0,,,91,62
829440,note_on,2880,0,2,,,,,,,,,1,,,76,0
829440,set_tempo,39360,1,0,,,,,,312500,,,,,,,
829440,note_on,0,0,2,,,,,,,,,1,,,60,75
829440,note_on,0,0,2,,,,,,,,,1,,,64,75
829536,note_on,96,0,2,,,,,,,,,1,,,64,0
829536,note_on,0,0,2,,,,,,,,,1,,,60,0
829760,note_on,320,0,1,,,,,,,,,0,,,91,0
829760,note_on,0,0,1,,,,,,,,,0,,,96,62
829920,note_on,0,0,4,,,,,,,,,3,,,36,62
829920,note_on,0,0,3,,,,,,,,,2,,,48,62
829920,note_on,960,0,3,,,,,,,,,2,,,48,0
829920,note_on,960,0,4,,,,,,,,,3,,,36,0
830079,note_on,319,0,1,,,,,,,,,0,,,96,0
830079,note_on,0,0,1,,,,,,,,,0,,,91,62
830400,note_on,321,0,1,,,,,,,,,0,,,91,0
830400,note_on,0,0,1,,,,,,,,,0,,,93,62
830400,note_on,480,0,3,,,,,,,,,2,,,48,0
830400,note_on,864,0,2,,,,,,,,,1,,,59,75
830400,note_on,0,0,2,,,,,,,,,1,,,64,75
830400,note_on,0,0,3,,,,,,,,,2,,,48,62
830400,note_on,0,0,4,,,,,,,,,3,,,36,62
830400,note_on,480,0,4,,,,,,,,,3,,,36,0
830496,note_on,96,0,2,,,,,,,,,1,,,64,0
830496,note_on,0,0,2,,,,,,,,,1,,,59,0
830720,note_on,320,0,1,,,,,,,,,0,,,93,0
830720,note_on,0,0,1,,,,,,,,,0,,,91,62
830880,note_on,480,0,4,,,,,,,,,3,,,36,0
830880,note_on,0,0,4,,,,,,,,,3,,,36,62
830880,note_on,480,0,3,,,,,,,,,2,,,48,0
830880,note_on,0,0,3,,,,,,,,,2,,,48,62
831039,note_on,0,0,1,,,,,,,,,0,,,90,62
831039,note_on,319,0,1,,,,,,,,,0,,,91,0
831360,note_on,864,0,2,,,,,,,,,1,,,58,75
831360,note_on,0,0,2,,,,,,,,,1,,,64,75
831360,note_on,0,0,1,,,,,,,,,0,,,91,62
831360,note_on,321,0,1,,,,,,,,,0,,,90,0
831456,note_on,96,0,2,,,,,,,,,1,,,64,0
831456,note_on,0,0,2,,,,,,,,,1,,,58,0
831680,note_on,0,0,1,,,,,,,,,0,,,93,62
831680,note_on,320,0,1,,,,,,,,,0,,,91,0
831840,note_on,0,0,4,,,,,,,,,3,,,36,62
831840,note_on,960,0,3,,,,,,,,,2,,,48,0
831840,note_on,0,0,3,,,,,,,,,2,,,48,62
831840,note_on,960,0,4,,,,,,,,,3,,,36,0
831999,note_on,319,0,1,,,,,,,,,0,,,93,0
831999,control_change,0,0,1,,,,,,,,,0,64,0,,
831999,note_on,0,0,1,,,,,,,,,0,,,92,62
832320,set_tempo,2880,1,0,,,,,,270270,,,,,,,
832320,note_on,0,0,1,,,,,,,,,0,,,94,62
832320,control_change,0,0,1,,,,,,,,,0,64,127,,
832320,note_on,321,0,1,,,,,,,,,0,,,92,0
832320,note_on,0,0,2,,,,,,,,,1,,,64,75
832320,note_on,0,0,4,,,,,,,,,3,,,37,62
832320,note_on,480,0,4,,,,,,,,,3,,,36,0
832320,note_on,480,0,3,,,,,,,,,2,,,48,0
832320,note_on,864,0,2,,,,,,,,,1,,,57,75
832320,note_on,0,0,3,,,,,,,,,2,,,49,62
832640,note_on,0,0,1,,,,,,,,,0,,,93,62
832640,note_on,320,0,1,,,,,,,,,0,,,94,0
832800,note_on,480,0,3,,,,,,,,,2,,,49,0
832800,note_on,0,0,3,,,,,,,,,2,,,49,62
832800,note_on,480,0,4,,,,,,,,,3,,,37,0
832800,note_on,0,0,4,,,,,,,,,3,,,37,62
832959,note_on,0,0,1,,,,,,,,,0,,,92,62
832959,note_on,319,0,1,,,,,,,,,0,,,93,0
833280,note_on,0,0,1,,,,,,,,,0,,,93,62
833280,note_on,321,0,1,,,,,,,,,0,,,92,0
833600,note_on,320,0,1,,,,,,,,,0,,,93,0
833600,note_on,0,0,1,,,,,,,,,0,,,94,62
833760,note_on,0,0,3,,,,,,,,,2,,,49,62
833760,note_on,960,0,3,,,,,,,,,2,,,49,0
833760,note_on,0,0,4,,,,,,,,,3,,,37,62
833760,note_on,960,0,4,,,,,,,,,3,,,37,0
833919,note_on,319,0,1,,,,,,,,,0,,,94,0
833919,note_on,0,0,1,,,,,,,,,0,,,93,62
834240,note_on,480,0,3,,,,,,,,,2,,,49,0
834240,note_on,0,0,4,,,,,,,,,3,,,38,62
834240,note_on,480,0,4,,,,,,,,,3,,,37,0
834240,note_on,0,0,3,,,,,,,,,2,,,50,62
834240,note_on,0,0,1,,,,,,,,,0,,,93,62
834240,note_on,321,0,1,,,,,,,,,0,,,93,0
834240,note_on,0,0,2,,,,,,,,,1,,,57,75
834240,control_change,0,0,2,,,,,,,,,1,64,127,,
834240,note_on,0,0,2,,,,,,,,,1,,,57,0
834240,note_on,1920,0,2,,,,,,,,,1,,,64,0
834240,note_on,0,0,2,,,,,,,,,1,,,65,75
834560,note_on,320,0,1,,,,,,,,,0,,,93,0
834560,note_on,0,0,1,,,,,,,,,0,,,96,62
834720,note_on,480,0,3,,,,,,,,,2,,,50,0
834720,note_on,0,0,3,,,,,,,,,2,,,50,62
834720,note_on,480,0,4,,,,,,,,,3,,,38,0
834720,note_on,0,0,4,,,,,,,,,3,,,38,62
834879,note_on,0,0,1,,,,,,,,,0,,,95,62
834879,note_on,319,0,1,,,,,,,,,0,,,96,0
835200,note_on,321,0,1,,,,,,,,,0,,,95,0
835200,note_on,0,0,1,,,,,,,,,0,,,98,62
835200,note_on,0,0,2,,,,,,,,,1,,,59,75
835200,note_on,0,0,2,,,,,,,,,1,,,57,0
835200,note_on,960,0,2,,,,,,,,,1,,,65,0
835520,note_on,320,0,1,,,,,,,,,0,,,98,0
835520,note_on,0,0,1,,,,,,,,,0,,,96,62
835680,note_on,0,0,4,,,,,,,,,3,,,38,62
835680,note_on,0,0,2,,,,,,,,,1,,,60,75
835680,control_change,0,0,2,,,,,,,,,1,64,0,,
835680,note_on,960,0,4,,,,,,,,,3,,,38,0
835680,note_on,960,0,3,,,,,,,,,2,,,50,0
835680,note_on,0,0,3,,,,,,,,,2,,,50,62
835680,note_on,480,0,2,,,,,,,,,1,,,59,0
835839,note_on,0,0,1,,,,,,,,,0,,,93,62
835839,control_change,0,0,1,,,,,,,,,0,64,0,,
835839,note_on,319,0,1,,,,,,,,,0,,,96,0
836160,note_on,0,0,4,,,,,,,,,3,,,40,62
836160,note_on,0,0,3,,,,,,,,,2,,,52,62
836160,note_on,480,0,3,,,,,,,,,2,,,50,0
836160,note_on,321,0,1,,,,,,,,,0,,,93,0
836160,note_on,0,0,2,,,,,,,,,1,,,64,75
836160,note_on,0,0,2,,,,,,,,,1,,,60,75
836160,note_on,480,0,2,,,,,,,,,1,,,60,0
836160,note_on,480,0,4,,,,,,,,,3,,,38,0
836160,note_on,0,0,1,,,,,,,,,0,,,93,62
836160,control_change,0,0,1,,,,,,,,,0,64,127,,
836480,note_on,0,0,1,,,,,,,,,0,,,91,62
836480,note_on,320,0,1,,,,,,,,,0,,,93,0
836640,note_on,0,0,3,,,,,,,,,2,,,52,62
836640,note_on,480,0,4,,,,,,,,,3,,,40,0
836640,note_on,480,0,3,,,,,,,,,2,,,52,0
836640,note_on,0,0,4,,,,,,,,,3,,,40,62
836799,note_on,319,0,1,,,,,,,,,0,,,91,0
836799,note_on,0,0,1,,,,,,,,,0,,,90,62
837120,note_on,480,0,3,,,,,,,,,2,,,52,0
837120,note_on,0,0,4,,,,,,,,,3,,,41,62
837120,note_on,480,0,4,,,,,,,,,3,,,40,0
837120,note_on,0,0,3,,,,,,,,,2,,,53,62
837120,note_on,0,0,1,,,,,,,,,0,,,93,62
837120,note_on,321,0,1,,,,,,,,,0,,,90,0
837440,note_on,0,0,1,,,,,,,,,0,,,91,62
837440,control_change,0,0,1,,,,,,,,,0,64,0,,
837440,note_on,320,0,1,,,,,,,,,0,,,93,0
837600,note_on,0,0,4,,,,,,,,,3,,,43,62
837600,note_on,480,0,4,,,,,,,,,3,,,41,0
837600,note_on,0,0,3,,,,,,,,,2,,,55,62
837600,note_on,480,0,3,,,,,,,,,2,,,53,0
837759,note_on,319,0,1,,,,,,,,,0,,,91,0
837759,note_on,0,0,1,,,,,,,,,0,,,88,62
837791,note_on,32,0,1,,,,,,,,,0,,,88,0
838080,note_on,480,0,4,,,,,,,,,3,,,43,0
838080,note_on,0,0,4,,,,,,,,,3,,,43,62
838080,note_on,1920,0,2,,,,,,,,,1,,,64,0
838080,note_on,0,0,2,,,,,,,,,1,,,60,0
838080,note_on,0,0,2,,,,,,,,,1,,,60,75
838080,note_on,0,0,2,,,,,,,,,1,,,62,75
838080,note_on,289,0,1,,,,,,,,,0,,,86,62
838080,note_on,480,0,3,,,,,,,,,2,,,55,0
838080,note_on,0,0,3,,,,,,,,,2,,,55,62
838111,note_on,31,0,1,,,,,,,,,0,,,86,0
838400,note_on,289,0,1,,,,,,,,,0,,,84,62
838432,note_on,32,0,1,,,,,,,,,0,,,84,0
838560,note_on,480,0,4,,,,,,,,,3,,,43,0
838560,note_on,480,0,3,,,,,,,,,2,,,55,0
838560,note_on,0,0,4,,,,,,,,,3,,,43,62
838560,note_on,0,0,3,,,,,,,,,2,,,55,62
838719,note_on,287,0,1,,,,,,,,,0,,,83,62
838751,note_on,32,0,1,,,,,,,,,0,,,83,0
839040,note_on,0,0,2,,,,,,,,,1,,,60,0
839040,note_on,289,0,1,,,,,,,,,0,,,81,62
839040,note_on,0,0,2,,,,,,,,,1,,,59,75
839040,note_on,960,0,2,,,,,,,,,1,,,62,0
839071,note_on,31,0,1,,,,,,,,,0,,,81,0
839360,note_on,289,0,1,,,,,,,,,0,,,79,62
839392,note_on,32,0,1,,,,,,,,,0,,,79,0
839520,note_on,960,0,4,,,,,,,,,3,,,43,0
839520,note_on,0,0,3,,,,,,,,,2,,,55,62
839520,note_on,960,0,3,,,,,,,,,2,,,55,0
839520,note_on,0,0,4,,,,,,,,,3,,,43,62
839679,note_on,287,0,1,,,,,,,,,0,,,77,62
839711,note_on,32,0,1,,,,,,,,,0,,,77,0
840000,note_on,480,0,3,,,,,,,,,2,,,55,0
840000,note_on,0,0,3,,,,,,,,,2,,,48,62
840000,note_on,0,0,4,,,,,,,,,3,,,36,62
840000,note_on,480,0,4,,,,,,,,,3,,,43,0
840000,note_on,960,0,2,,,,,,,,,1,,,59,0
840000,note_on,0,0,2,,,,,,,,,1,,,60,75
840000,note_on,289,0,1,,,,,,,,,0,,,76,62
840031,note_on,31,0,1,,,,,,,,,0,,,76,0
840320,note_on,289,0,1,,,,,,,,,0,,,74,62
840352,note_on,32,0,1,,,,,,,,,0,,,74,0
840639,note_on,287,0,1,,,,,,,,,0,,,72,62
840671,note_on,32,0,1,,,,,,,,,0,,,72,0
840960,note_on,289,0,1,,,,,,,,,0,,,71,62
840991,note_on,31,0,1,,,,,,,,,0,,,71,0
841280,note_on,289,0,1,,,,,,,,,0,,,69,62
841312,note_on,32,0,1,,,,,,,,,0,,,69,0
841599,note_on,287,0,1,,,,,,,,,0,,,67,62
841631,note_on,32,0,1,,,,,,,,,0,,,67,0
841920,note_on,289,0,1,,,,,,,,,0,,,65,75
841920,note_on,1920,0,2,,,,,,,,,1,,,60,0
841920,note_on,0,0,2,,,,,,,,,1,,,60,75
841951,note_on,31,0,1,,,,,,,,,0,,,65,0
842240,note_on,289,0,1,,,,,,,,,0,,,64,75
842272,note_on,32,0,1,,,,,,,,,0,,,64,0
842400,note_on,2400,0,4,,,,,,,,,3,,,36,0
842400,note_on,2400,0,3,,,,,,,,,2,,,48,0
842400,note_on,480,0,2,,,,,,,,,1,,,60,0
842559,note_on,287,0,1,,,,,,,,,0,,,62,75
842591,note_on,32,0,1,,,,,,,,,0,,,62,0
842880,note_on,480,0,2,,,,,,,,,1,,,72,75
842880,note_on,480,0,3,,,,,,,,,2,,,60,75
842911,note_on,31,0,2,,,,,,,,,1,,,72,0
842911,note_on,31,0,3,,,,,,,,,2,,,60,0
843200,note_on,289,0,3,,,,,,,,,2,,,59,75
843200,note_on,289,0,2,,,,,,,,,1,,,71,75
843232,note_on,32,0,2,,,,,,,,,1,,,71,0
843232,note_on,32,0,3,,,,,,,,,2,,,59,0
843519,note_on,287,0,3,,,,,,,,,2,,,57,75
843519,note_on,287,0,2,,,,,,,,,1,,,69,75
843551,note_on,32,0,3,,,,,,,,,2,,,57,0
843551,note_on,32,0,2,,,,,,,,,1,,,69,0
843840,note_on,289,0,3,,,,,,,,,2,,,55,75
843840,note_on,289,0,2,,,,,,,,,1,,,67,88
843871,note_on,31,0,3,,,,,,,,,2,,,55,0
843871,note_on,31,0,2,,,,,,,,,1,,,67,0
844160,note_on,289,0,2,,,,,,,,,1,,,65,88
844160,note_on,289,0,3,,,,,,,,,2,,,53,88
844192,note_on,32,0,2,,,,,,,,,1,,,65,0
844192,note_on,32,0,3,,,,,,,,,2,,,53,0
844479,note_on,287,0,3,,,,,,,,,2,,,52,88
844479,note_on,287,0,2,,,,,,,,,1,,,64,88
844479,note_on,0,0,1,,,,,,,,,0,,,88,88
844479,note_on,1888,0,1,,,,,,,,,0,,,76,88
844511,note_on,32,0,3,,,,,,,,,2,,,52,0
844511,note_on,32,0,2,,,,,,,,,1,,,64,0
844800,note_on,289,0,2,,,,,,,,,1,,,62,88
844800,note_on,321,0,1,,,,,,,,,0,,,88,0
844800,note_on,0,0,1,,,,,,,,,0,,,76,0
844800,note_on,0,0,1,,,,,,,,,0,,,74,88
844800,note_on,289,0,3,,,,,,,,,2,,,50,88
844800,note_on,0,0,1,,,,,,,,,0,,,86,88
844831,note_on,31,0,3,,,,,,,,,2,,,50,0
844831,note_on,31,0,2,,,,,,,,,1,,,62,0
845120,note_on,0,0,1,,,,,,,,,0,,,72,88
845120,note_on,289,0,3,,,,,,,,,2,,,48,88
845120,note_on,320,0,1,,,,,,,,,0,,,86,0
845120,note_on,0,0,1,,,,,,,,,0,,,74,0
845120,note_on,0,0,1,,,,,,,,,0,,,84,88
845120,note_on,289,0,2,,,,,,,,,1,,,60,88
845152,note_on,32,0,3,,,,,,,,,2,,,48,0
845152,note_on,32,0,2,,,,,,,,,1,,,60,0
845439,note_on,0,0,1,,,,,,,,,0,,,71,88
845439,note_on,0,0,1,,,,,,,,,0,,,72,0
845439,note_on,319,0,1,,,,,,,,,0,,,84,0
845439,note_on,287,0,2,,,,,,,,,1,,,59,88
845439,note_on,0,0,1,,,,,,,,,0,,,83,88
845439,note_on,287,0,3,,,,,,,,,2,,,47,88
845471,note_on,32,0,2,,,,,,,,,1,,,59,0
845471,note_on,32,0,3,,,,,,,,,2,,,47,0
845760,note_on,289,0,3,,,,,,,,,2,,,57,88
845760,note_on,289,0,2,,,,,,,,,1,,,69,88
845760,note_on,0,0,1,,,,,,,,,0,,,71,0
845760,note_on,3360,0,4,,,,,,,,,3,,,45,88
845760,note_on,321,0,1,,,,,,,,,0,,,83,0
845760,note_on,0,0,1,,,,,,,,,0,,,81,88
846080,note_on,0,0,3,,,,,,,,,2,,,55,88
846080,note_on,320,0,1,,,,,,,,,0,,,81,0
846080,note_on,320,0,4,,,,,,,,,3,,,45,0
846080,note_on,0,0,4,,,,,,,,,3,,,43,88
846080,note_on,320,0,3,,,,,,,,,2,,,57,0
846080,note_on,320,0,2,,,,,,,,,1,,,69,0
846080,note_on,0,0,2,,,,,,,,,1,,,67,88
846080,note_on,0,0,1,,,,,,,,,0,,,79,88
846399,note_on,0,0,2,,,,,,,,,1,,,65,88
846399,note_on,0,0,1,,,,,,,,,0,,,77,88
846399,note_on,319,0,4,,,,,,,,,3,,,43,0
846399,note_on,0,0,3,,,,,,,,,2,,,53,88
846399,note_on,319,0,1,,,,,,,,,0,,,79,0
846399,note_on,319,0,3,,,,,,,,,2,,,55,0
846399,note_on,319,0,2,,,,,,,,,1,,,67,0
846399,note_on,0,0,4,,,,,,,,,3,,,41,88
846720,note_on,0,0,4,,,,,,,,,3,,,40,88
846720,note_on,321,0,4,,,,,,,,,3,,,41,0
846720,note_on,321,0,3,,,,,,,,,2,,,53,0
846720,note_on,321,0,2,,,,,,,,,1,,,65,0
846720,note_on,0,0,2,,,,,,,,,1,,,64,88
846720,note_on,0,0,1,,,,,,,,,0,,,76,88
846720,note_on,321,0,1,,,,,,,,,0,,,77,0
846720,note_on,0,0,3,,,,,,,,,2,,,52,88
847040,note_on,320,0,4,,,,,,,,,3,,,40,0
847040,note_on,0,0,4,,,,,,,,,3,,,38,88
847040,note_on,0,0,1,,,,,,,,,0,,,74,88
847040,note_on,320,0,1,,,,,,,,,0,,,76,0
847040,note_on,0,0,2,,,,,,,,,1,,,62,88
847040,note_on,320,0,3,,,,,,,,,2,,,52,0
847040,note_on,0,0,3,,,,,,,,,2,,,50,88
847040,note_on,320,0,2,,,,,,,,,1,,,64,0
847359,note_on,319,0,4,,,,,,,,,3,,,38,0
847359,note_on,0,0,2,,,,,,,,,1,,,60,88
847359,note_on,0,0,3,,,,,,,,,2,,,48,88
847359,note_on,319,0,1,,,,,,,,,0,,,74,0
847359,note_on,0,0,1,,,,,,,,,0,,,72,88
847359,note_on,319,0,3,,,,,,,,,2,,,50,0
847359,note_on,319,0,2,,,,,,,,,1,,,62,0
847359,note_on,0,0,4,,,,,,,,,3,,,36,88
847680,note_on,321,0,2,,,,,,,,,1,,,60,0
847680,note_on,0,0,2,,,,,,,,,1,,,71,88
847680,note_on,0,0,4,,,,,,,,,3,,,35,88
847680,note_on,321,0,1,,,,,,,,,0,,,72,0
847680,note_on,321,0,3,,,,,,,,,2,,,48,0
847680,note_on,0,0,3,,,,,,,,,2,,,47,88
847680,note_on,321,0,4,,,,,,,,,3,,,36,0
847680,note_on,0,0,1,,,,,,,,,0,,,75,88
847680,note_on,0,0,1,,,,,,,,,0,,,78,88
847711,note_on,31,0,4,,,,,,,,,3,,,35,0
847711,note_on,31,0,3,,,,,,,,,2,,,47,0
848000,note_on,289,0,4,,,,,,,,,3,,,54,88
848000,note_on,289,0,3,,,,,,,,,2,,,66,88
848032,note_on,32,0,4,,,,,,,,,3,,,54,0
848032,note_on,32,0,3,,,,,,,,,2,,,66,0
848319,note_on,287,0,4,,,,,,,,,3,,,52,88
848319,note_on,287,0,3,,,,,,,,,2,,,64,88
848351,note_on,32,0,4,,,,,,,,,3,,,52,0
848351,note_on,32,0,3,,,,,,,,,2,,,64,0
848640,note_on,289,0,3,,,,,,,,,2,,,63,88
848640,note_on,289,0,4,,,,,,,,,3,,,51,88
848671,note_on,31,0,3,,,,,,,,,2,,,63,0
848671,note_on,31,0,4,,,,,,,,,3,,,51,0
848960,note_on,289,0,3,,,,,,,,,2,,,61,88
848960,note_on,289,0,4,,,,,,,,,3,,,49,88
848992,note_on,32,0,3,,,,,,,,,2,,,61,0
848992,note_on,32,0,4,,,,,,,,,3,,,49,0
849120,note_on,1440,0,1,,,,,,,,,0,,,78,0
849120,note_on,1440,0,2,,,,,,,,,1,,,71,0
849120,note_on,0,0,1,,,,,,,,,0,,,83,88
849120,note_on,0,0,2,,,,,,,,,1,,,71,88
849120,note_on,0,0,1,,,,,,,,,0,,,75,0
849120,note_on,0,0,1,,,,,,,,,0,,,75,88
849279,note_on,287,0,3,,,,,,,,,2,,,59,88
849279,note_on,287,0,4,,,,,,,,,3,,,47,88
849311,note_on,32,0,3,,,,,,,,,2,,,59,0
849311,note_on,32,0,4,,,,,,,,,3,,,47,0
849360,note_on,0,0,1,,,,,,,,,0,,,75,0
849360,note_on,0,0,1,,,,,,,,,0,,,75,88
849360,note_on,0,0,1,,,,,,,,,0,,,83,88
849360,note_on,240,0,1,,,,,,,,,0,,,83,0
849360,note_on,0,0,2,,,,,,,,,1,,,71,88
849360,note_on,240,0,2,,,,,,,,,1,,,71,0
849600,note_on,289,0,3,,,,,,,,,2,,,57,88
849600,note_on,240,0,2,,,,,,,,,1,,,71,0
849600,note_on,0,0,2,,,,,,,,,1,,,71,88
849600,note_on,240,0,1,,,,,,,,,0,,,83,0
849600,note_on,0,0,1,,,,,,,,,0,,,83,88
849600,note_on,0,0,1,,,,,,,,,0,,,75,88
849600,note_on,0,0,1,,,,,,,,,0,,,75,0
849600,note_on,289,0,4,,,,,,,,,3,,,45,88
849920,note_on,320,0,4,,,,,,,,,3,,,45,0
849920,note_on,0,0,4,,,,,,,,,3,,,43,88
849920,note_on,320,0,3,,,,,,,,,2,,,57,0
849920,note_on,0,0,3,,,,,,,,,2,,,55,88
850239,note_on,319,0,4,,,,,,,,,3,,,43,0
850239,note_on,0,0,4,,,,,,,,,3,,,42,88
850239,note_on,319,0,3,,,,,,,,,2,,,55,0
850239,note_on,0,0,3,,,,,,,,,2,,,54,88
850560,note_on,321,0,4,,,,,,,,,3,,,42,0
850560,note_on,0,0,4,,,,,,,,,3,,,40,88
850560,note_on,321,0,3,,,,,,,,,2,,,54,0
850560,note_on,0,0,3,,,,,,,,,2,,,52,88
850880,note_on,0,0,4,,,,,,,,,3,,,39,88
850880,note_on,320,0,3,,,,,,,,,2,,,52,0
850880,note_on,0,0,3,,,,,,,,,2,,,51,88
850880,note_on,320,0,4,,,,,,,,,3,,,40,0
851040,note_on,0,0,2,,,,,,,,,1,,,71,88
851040,note_on,0,0,2,,,,,,,,,1,,,66,88
851040,note_on,0,0,1,,,,,,,,,0,,,78,88
851040,note_on,0,0,1,,,,,,,,,0,,,75,88
851040,note_on,1440,0,2,,,,,,,,,1,,,71,0
851040,note_on,1440,0,1,,,,,,,,,0,,,83,0
851040,note_on,0,0,1,,,,,,,,,0,,,75,0
851087,note_on,47,0,1,,,,,,,,,0,,,78,0
851087,note_on,0,0,1,,,,,,,,,0,,,75,0
851199,note_on,0,0,3,,,,,,,,,2,,,48,88
851199,note_on,319,0,3,,,,,,,,,2,,,51,0
851199,note_on,0,0,4,,,,,,,,,3,,,36,88
851199,note_on,319,0,4,,,,,,,,,3,,,39,0
851520,note_on,433,0,1,,,,,,,,,0,,,76,114
851520,note_on,321,0,3,,,,,,,,,2,,,48,0
851520,note_on,0,0,2,,,,,,,,,1,,,67,114
851520,note_on,0,0,3,,,,,,,,,2,,,47,114
851520,note_on,0,0,1,,,,,,,,,0,,,79,114
851520,note_on,0,0,2,,,,,,,,,1,,,66,0
851520,note_on,480,0,2,,,,,,,,,1,,,71,0
851520,note_on,321,0,4,,,,,,,,,3,,,36,0
851520,note_on,0,0,4,,,,,,,,,3,,,35,114
851520,note_on,0,0,2,,,,,,,,,1,,,71,114
851840,note_on,320,0,3,,,,,,,,,2,,,47,0
851840,note_on,320,0,4,,,,,,,,,3,,,35,0
851840,note_on,0,0,3,,,,,,,,,2,,,61,88
851840,note_on,0,0,4,,,,,,,,,3,,,49,88
852159,note_on,0,0,3,,,,,,,,,2,,,63,88
852159,note_on,319,0,4,,,,,,,,,3,,,49,0
852159,note_on,0,0,4,,,,,,,,,3,,,51,88
852159,note_on,319,0,3,,,,,,,,,2,,,61,0
852480,note_on,321,0,3,,,,,,,,,2,,,63,0
852480,note_on,0,0,3,,,,,,,,,2,,,64,88
852480,note_on,0,0,4,,,,,,,,,3,,,52,88
852480,note_on,321,0,4,,,,,,,,,3,,,51,0
852800,note_on,0,0,4,,,,,,,,,3,,,50,88
852800,note_on,320,0,3,,,,,,,,,2,,,64,0
852800,note_on,320,0,4,,,,,,,,,3,,,52,0
852800,note_on,0,0,3,,,,,,,,,2,,,62,88
852960,note_on,1440,0,2,,,,,,,,,1,,,71,0
852960,note_on,0,0,2,,,,,,,,,1,,,67,0
852960,note_on,0,0,2,,,,,,,,,1,,,71,88
852960,note_on,1440,0,1,,,,,,,,,0,,,79,0
852960,note_on,0,0,1,,,,,,,,,0,,,83,88
852960,note_on,0,0,1,,,,,,,,,0,,,79,88
852960,note_on,0,0,1,,,,,,,,,0,,,76,0
853119,note_on,319,0,3,,,,,,,,,2,,,62,0
853119,note_on,0,0,3,,,,,,,,,2,,,60,88
853119,note_on,0,0,4,,,,,,,,,3,,,48,88
853119,note_on,319,0,4,,,,,,,,,3,,,50,0
853200,note_on,0,0,1,,,,,,,,,0,,,83,88
853200,note_on,0,0,1,,,,,,,,,0,,,79,0
853200,note_on,240,0,2,,,,,,,,,1,,,71,0
853200,note_on,0,0,2,,,,,,,,,1,,,71,88
853200,note_on,240,0,1,,,,,,,,,0,,,83,0
853200,note_on,0,0,1,,,,,,,,,0,,,79,88
853440,note_on,0,0,1,,,,,,,,,0,,,83,88
853440,note_on,0,0,1,,,,,,,,,0,,,79,88
853440,note_on,0,0,1,,,,,,,,,0,,,79,0
853440,note_on,321,0,4,,,,,,,,,3,,,48,0
853440,note_on,0,0,4,,,,,,,,,3,,,47,88
853440,note_on,0,0,2,,,,,,,,,1,,,71,88
853440,note_on,0,0,3,,,,,,,,,2,,,59,88
853440,note_on,321,0,3,,,,,,,,,2,,,60,0
853440,note_on,240,0,2,,,,,,,,,1,,,71,0
853440,note_on,240,0,1,,,,,,,,,0,,,83,0
853760,note_on,0,0,3,,,,,,,,,2,,,57,88
853760,note_on,0,0,4,,,,,,,,,3,,,45,88
853760,note_on,320,0,4,,,,,,,,,3,,,47,0
853760,note_on,320,0,3,,,,,,,,,2,,,59,0
854079,note_on,0,0,4,,,,,,,,,3,,,43,88
854079,note_on,319,0,4,,,,,,,,,3,,,45,0
854079,note_on,319,0,3,,,,,,,,,2,,,57,0
854079,note_on,0,0,3,,,,,,,,,2,,,55,88
854400,note_on,321,0,3,,,,,,,,,2,,,55,0
854400,note_on,0,0,3,,,,,,,,,2,,,54,88
854400,note_on,0,0,4,,,,,,,,,3,,,42,88
854400,note_on,321,0,4,,,,,,,,,3,,,43,0
854720,note_on,320,0,3,,,,,,,,,2,,,54,0
854720,note_on,0,0,4,,,,,,,,,3,,,40,88
854720,note_on,320,0,4,,,,,,,,,3,,,42,0
854720,note_on,0,0,3,,,,,,,,,2,,,52,88
854880,note_on,0,0,1,,,,,,,,,0,,,79,0
854880,note_on,0,0,1,,,,,,,,,0,,,79,88
854880,note_on,0,0,1,,,,,,,,,0,,,76,88
854880,note_on,1440,0,2,,,,,,,,,1,,,71,0
854880,note_on,1440,0,1,,,,,,,,,0,,,83,0
854880,note_on,0,0,2,,,,,,,,,1,,,71,88
854927,note_on,0,0,1,,,,,,,,,0,,,76,0
854927,note_on,47,0,1,,,,,,,,,0,,,79,0
854927,note_on,47,0,2,,,,,,,,,1,,,71,0
855039,note_on,0,0,4,,,,,,,,,3,,,38,88
855039,note_on,319,0,4,,,,,,,,,3,,,40,0
855039,note_on,319,0,3,,,,,,,,,2,,,52,0
855039,note_on,0,0,3,,,,,,,,,2,,,50,88
855360,note_on,0,0,1,,,,,,,,,0,,,79,114
855360,note_on,433,0,1,,,,,,,,,0,,,76,114
855360,note_on,321,0,3,,,,,,,,,2,,,50,0
855360,note_on,0,0,4,,,,,,,,,3,,,36,114
855360,note_on,433,0,2,,,,,,,,,1,,,72,114
855360,note_on,321,0,4,,,,,,,,,3,,,38,0
855360,note_on,0,0,3,,,,,,,,,2,,,48,114
855680,note_on,320,0,4,,,,,,,,,3,,,36,0
855680,note_on,0,0,4,,,,,,,,,3,,,55,88
855680,note_on,0,0,3,,,,,,,,,2,,,67,88
855680,note_on,320,0,3,,,,,,,,,2,,,48,0
855999,note_on,319,0,4,,,,,,,,,3,,,55,0
855999,note_on,0,0,3,,,,,,,,,2,,,64,88
855999,note_on,0,0,4,,,,,,,,,3,,,52,88
855999,note_on,319,0,3,,,,,,,,,2,,,67,0
856320,note_on,321,0,3,,,,,,,,,2,,,64,0
856320,note_on,0,0,4,,,,,,,,,3,,,50,88
856320,note_on,321,0,4,,,,,,,,,3,,,52,0
856320,note_on,0,0,3,,,,,,,,,2,,,62,88
856640,note_on,320,0,4,,,,,,,,,3,,,50,0
856640,note_on,0,0,3,,,,,,,,,2,,,60,88
856640,note_on,320,0,3,,,,,,,,,2,,,62,0
856640,note_on,0,0,4,,,,,,,,,3,,,48,88
856800,note_on,0,0,2,,,,,,,,,1,,,72,88
856800,note_on,0,0,1,,,,,,,,,0,,,76,0
856800,note_on,1440,0,1,,,,,,,,,0,,,79,0
856800,note_on,1440,0,2,,,,,,,,,1,,,72,0
856800,note_on,0,0,1,,,,,,,,,0,,,84,88
856800,note_on,0,0,1,,,,,,,,,0,,,76,88
856959,note_on,0,0,4,,,,,,,,,3,,,46,88
856959,note_on,319,0,4,,,,,,,,,3,,,48,0
856959,note_on,319,0,3,,,,,,,,,2,,,60,0
856959,note_on,0,0,3,,,,,,,,,2,,,58,88
857040,note_on,0,0,1,,,,,,,,,0,,,84,88
857040,note_on,0,0,2,,,,,,,,,1,,,72,88
857040,note_on,240,0,2,,,,,,,,,1,,,72,0
857040,note_on,0,0,1,,,,,,,,,0,,,76,88
857040,note_on,0,0,1,,,,,,,,,0,,,76,0
857040,note_on,240,0,1,,,,,,,,,0,,,84,0
857280,note_on,0,0,1,,,,,,,,,0,,,76,101
857280,note_on,0,0,1,,,,,,,,,0,,,76,0
857280,note_on,240,0,1,,,,,,,,,0,,,84,0
857280,note_on,321,0,4,,,,,,,,,3,,,46,0
857280,note_on,0,0,2,,,,,,,,,1,,,72,88
857280,note_on,240,0,2,,,,,,,,,1,,,72,0
857280,note_on,0,0,1,,,,,,,,,0,,,84,101
857280,note_on,0,0,3,,,,,,,,,2,,,57,101
857280,note_on,321,0,3,,,,,,,,,2,,,58,0
857280,note_on,0,0,4,,,,,,,,,3,,,45,101
857600,note_on,0,0,3,,,,,,,,,2,,,55,101
857600,note_on,320,0,3,,,,,,,,,2,,,57,0
857600,note_on,0,0,4,,,,,,,,,3,,,43,101
857600,note_on,320,0,4,,,,,,,,,3,,,45,0
857919,note_on,0,0,4,,,,,,,,,3,,,41,101
857919,note_on,0,0,3,,,,,,,,,2,,,53,101
857919,note_on,319,0,3,,,,,,,,,2,,,55,0
857919,note_on,319,0,4,,,,,,,,,3,,,43,0
858240,note_on,321,0,3,,,,,,,,,2,,,53,0
858240,note_on,321,0,4,,,,,,,,,3,,,41,0
858240,note_on,0,0,4,,,,,,,,,3,,,40,101
858240,note_on,0,0,3,,,,,,,,,2,,,52,101
858560,note_on,320,0,4,,,,,,,,,3,,,40,0
858560,note_on,0,0,4,,,,,,,,,3,,,38,101
858560,note_on,0,0,3,,,,,,,,,2,,,50,101
858560,note_on,320,0,3,,,,,,,,,2,,,52,0
858720,note_on,0,0,1,,,,,,,,,0,,,80,101
858720,note_on,0,0,1,,,,,,,,,0,,,76,101
858720,note_on,0,0,1,,,,,,,,,0,,,72,101
858720,note_on,0,0,1,,,,,,,,,0,,,76,0
858720,note_on,1440,0,1,,,,,,,,,0,,,84,0
858720,note_on,0,0,2,,,,,,,,,1,,,68,88
858720,note_on,0,0,2,,,,,,,,,1,,,64,88
858720,note_on,1440,0,2,,,,,,,,,1,,,72,0
858767,note_on,47,0,1,,,,,,,,,0,,,80,0
858767,note_on,0,0,1,,,,,,,,,0,,,72,0
858767,note_on,0,0,2,,,,,,,,,1,,,64,0
858767,note_on,47,0,2,,,,,,,,,1,,,68,0
858767,note_on,0,0,1,,,,,,,,,0,,,76,0
858879,note_on,0,0,4,,,,,,,,,3,,,36,101
858879,note_on,0,0,3,,,,,,,,,2,,,48,101
858879,note_on,319,0,3,,,,,,,,,2,,,50,0
858879,note_on,319,0,4,,,,,,,,,3,,,38,0
859200,note_on,0,0,2,,,,,,,,,1,,,69,101
859200,note_on,433,0,2,,,,,,,,,1,,,65,101
859200,note_on,0,0,3,,,,,,,,,2,,,53,101
859200,note_on,321,0,3,,,,,,,,,2,,,48,0
859200,note_on,433,0,1,,,,,,,,,0,,,72,101
859200,note_on,321,0,4,,,,,,,,,3,,,36,0
859200,note_on,0,0,4,,,,,,,,,3,,,41,101
859200,note_on,0,0,1,,,,,,,,,0,,,77,101
859200,note_on,0,0,1,,,,,,,,,0,,,81,101
859680,note_on,0,0,3,,,,,,,,,2,,,60,101
859680,note_on,0,0,1,,,,,,,,,0,,,77,0
859680,note_on,0,0,1,,,,,,,,,0,,,72,0
859680,note_on,0,0,3,,,,,,,,,2,,,57,101
859680,note_on,480,0,4,,,,,,,,,3,,,41,0
859680,note_on,0,0,4,,,,,,,,,3,,,29,101
859680,note_on,0,0,4,,,,,,,,,3,,,41,101
859680,note_on,480,0,3,,,,,,,,,2,,,53,0
859680,note_on,480,0,1,,,,,,,,,0,,,81,0
859680,note_on,0,0,3,,,,,,,,,2,,,53,101
859680,note_on,0,0,2,,,,,,,,,1,,,65,0
859680,note_on,480,0,2,,,,,,,,,1,,,69,0
859727,note_on,47,0,4,,,,,,,,,3,,,41,0
859727,note_on,0,0,3,,,,,,,,,2,,,57,0
859727,note_on,0,0,3,,,,,,,,,2,,,53,0
859727,note_on,0,0,4,,,,,,,,,3,,,29,0
859727,note_on,47,0,3,,,,,,,,,2,,,60,0
860160,note_on,480,0,1,,,,,,,,,0,,,81,101
860160,note_on,0,0,1,,,,,,,,,0,,,86,101
860160,note_on,480,0,2,,,,,,,,,1,,,69,101
860160,note_on,0,0,1,,,,,,,,,0,,,89,101
860160,note_on,0,0,2,,,,,,,,,1,,,77,101
860207,note_on,0,0,1,,,,,,,,,0,,,81,0
860207,note_on,47,0,1,,,,,,,,,0,,,89,0
860207,note_on,0,0,1,,,,,,,,,0,,,86,0
860207,note_on,0,0,2,,,,,,,,,1,,,69,0
860207,note_on,47,0,2,,,,,,,,,1,,,77,0
860640,note_on,0,0,3,,,,,,,,,2,,,57,101
860640,note_on,913,0,4,,,,,,,,,3,,,29,101
860640,note_on,0,0,4,,,,,,,,,3,,,41,101
860640,note_on,0,0,3,,,,,,,,,2,,,62,101
860640,note_on,913,0,3,,,,,,,,,2,,,53,101
860687,note_on,0,0,3,,,,,,,,,2,,,57,0
860687,note_on,47,0,4,,,,,,,,,3,,,41,0
860687,note_on,0,0,4,,,,,,,,,3,,,29,0
860687,note_on,47,0,3,,,,,,,,,2,,,62,0
860687,note_on,0,0,3,,,,,,,,,2,,,53,0
861120,note_on,913,0,2,,,,,,,,,1,,,67,101
861120,note_on,0,0,2,,,,,,,,,1,,,72,101
861120,note_on,0,0,2,,,,,,,,,1,,,76,101
861120,note_on,913,0,1,,,,,,,,,0,,,79,101
861120,note_on,0,0,1,,,,,,,,,0,,,84,101
861120,note_on,0,0,1,,,,,,,,,0,,,88,101
861167,note_on,0,0,2,,,,,,,,,1,,,72,0
861167,note_on,47,0,2,,,,,,,,,1,,,76,0
861167,note_on,47,0,1,,,,,,,,,0,,,88,0
861167,note_on,0,0,1,,,,,,,,,0,,,84,0
861167,note_on,0,0,2,,,,,,,,,1,,,67,0
861167,note_on,0,0,1,,,,,,,,,0,,,79,0
861600,note_on,913,0,3,,,,,,,,,2,,,55,101
861600,note_on,0,0,3,,,,,,,,,2,,,60,101
861600,note_on,0,0,4,,,,,,,,,3,,,43,101
861600,note_on,913,0,4,,,,,,,,,3,,,31,101
861600,note_on,0,0,3,,,,,,,,,2,,,64,101
861647,note_on,0,0,4,,,,,,,,,3,,,31,0
861647,note_on,47,0,4,,,,,,,,,3,,,43,0
861647,note_on,47,0,3,,,,,,,,,2,,,64,0
861647,note_on,0,0,3,,,,,,,,,2,,,60,0
861647,note_on,0,0,3,,,,,,,,,2,,,55,0
862080,note_on,913,0,1,,,,,,,,,0,,,79,101
862080,note_on,0,0,1,,,,,,,,,0,,,86,101
862080,note_on,913,0,2,,,,,,,,,1,,,67,101
862080,note_on,0,0,2,,,,,,,,,1,,,71,101
862080,note_on,0,0,2,,,,,,,,,1,,,74,101
862080,note_on,0,0,1,,,,,,,,,0,,,83,101
862127,note_on,47,0,2,,,,,,,,,1,,,74,0
862127,note_on,0,0,2,,,,,,,,,1,,,71,0
862127,note_on,0,0,2,,,,,,,,,1,,,67,0
862127,note_on,0,0,1,,,,,,,,,0,,,83,0
862127,note_on,0,0,1,,,,,,,,,0,,,79,0
862127,note_on,47,0,1,,,,,,,,,0,,,86,0
862560,note_on,0,0,3,,,,,,,,,2,,,62,101
862560,note_on,0,0,3,,,,,,,,,2,,,59,101
862560,note_on,913,0,3,,,,,,,,,2,,,55,101
862560,note_on,0,0,4,,,,,,,,,3,,,43,101
862560,note_on,913,0,4,,,,,,,,,3,,,31,101
862607,note_on,0,0,3,,,,,,,,,2,,,59,0
862607,note_on,47,0,3,,,,,,,,,2,,,62,0
862607,note_on,0,0,4,,,,,,,,,3,,,31,0
862607,note_on,47,0,4,,,,,,,,,3,,,43,0
862607,note_on,0,0,3,,,,,,,,,2,,,55,0
863040,note_on,433,0,3,,,,,,,,,2,,,47,62
863040,note_on,913,0,1,,,,,,,,,0,,,75,62
863040,note_on,433,0,4,,,,,,,,,3,,,35,62
863040,note_on,0,0,1,,,,,,,,,0,,,78,62
863040,note_on,913,0,2,,,,,,,,,1,,,71,62
863071,note_on,31,0,3,,,,,,,,,2,,,47,0
863071,note_on,31,0,4,,,,,,,,,3,,,35,0
863360,note_on,289,0,3,,,,,,,,,2,,,66,62
863360,note_on,289,0,4,,,,,,,,,3,,,54,62
863392,note_on,32,0,4,,,,,,,,,3,,,54,0
863392,note_on,32,0,3,,,,,,,,,2,,,66,0
863679,note_on,287,0,3,,,,,,,,,2,,,64,62
863679,note_on,287,0,4,,,,,,,,,3,,,52,62
863711,note_on,32,0,3,,,,,,,,,2,,,64,0
863711,note_on,32,0,4,,,,,,,,,3,,,52,0
864000,note_on,289,0,4,,,,,,,,,3,,,51,62
864000,note_on,289,0,3,,,,,,,,,2,,,63,62
864031,note_on,31,0,3,,,,,,,,,2,,,63,0
864031,note_on,31,0,4,,,,,,,,,3,,,51,0
864320,note_on,289,0,4,,,,,,,,,3,,,49,62
864320,note_on,289,0,3,,,,,,,,,2,,,61,62
864352,note_on,32,0,4,,,,,,,,,3,,,49,0
864352,note_on,32,0,3,,,,,,,,,2,,,61,0
864480,note_on,0,0,1,,,,,,,,,0,,,83,62
864480,note_on,0,0,1,,,,,,,,,0,,,75,62
864480,note_on,0,0,1,,,,,,,,,0,,,75,0
864480,note_on,1440,0,1,,,,,,,,,0,,,78,0
864480,note_on,1440,0,2,,,,,,,,,1,,,71,0
864480,note_on,0,0,2,,,,,,,,,1,,,71,62
864639,note_on,287,0,4,,,,,,,,,3,,,47,62
864639,note_on,287,0,3,,,,,,,,,2,,,59,62
864671,note_on,32,0,4,,,,,,,,,3,,,47,0
864671,note_on,32,0,3,,,,,,,,,2,,,59,0
864720,note_on,240,0,1,,,,,,,,,0,,,83,0
864720,note_on,0,0,1,,,,,,,,,0,,,75,0
864720,note_on,0,0,1,,,,,,,,,0,,,75,62
864720,note_on,0,0,1,,,,,,,,,0,,,83,62
864720,note_on,240,0,2,,,,,,,,,1,,,71,0
864720,note_on,0,0,2,,,,,,,,,1,,,71,62
864960,note_on,289,0,3,,,,,,,,,2,,,57,62
864960,note_on,240,0,2,,,,,,,,,1,,,71,0
864960,note_on,240,0,1,,,,,,,,,0,,,83,0
864960,note_on,0,0,2,,,,,,,,,1,,,71,62
864960,note_on,0,0,1,,,,,,,,,0,,,83,62
864960,note_on,289,0,4,,,,,,,,,3,,,45,62
864960,note_on,0,0,1,,,,,,,,,0,,,75,0
864960,note_on,0,0,1,,,,,,,,,0,,,75,62
864991,note_on,31,0,4,,,,,,,,,3,,,45,0
864991,note_on,31,0,3,,,,,,,,,2,,,57,0
865280,note_on,289,0,3,,,,,,,,,2,,,55,62
865280,note_on,289,0,4,,,,,,,,,3,,,43,62
865312,note_on,32,0,3,,,,,,,,,2,,,55,0
865312,note_on,32,0,4,,,,,,,,,3,,,43,0
865599,note_on,287,0,3,,,,,,,,,2,,,54,62
865599,note_on,287,0,4,,,,,,,,,3,,,42,62
865631,note_on,32,0,4,,,,,,,,,3,,,42,0
865631,note_on,32,0,3,,,,,,,,,2,,,54,0
865920,note_on,289,0,3,,,,,,,,,2,,,52,62
865920,note_on,289,0,4,,,,,,,,,3,,,40,62
865951,note_on,31,0,3,,,,,,,,,2,,,52,0
865951,note_on,31,0,4,,,,,,,,,3,,,40,0
866240,note_on,289,0,4,,,,,,,,,3,,,39,62
866240,note_on,289,0,3,,,,,,,,,2,,,51,62
866272,note_on,32,0,3,,,,,,,,,2,,,51,0
866272,note_on,32,0,4,,,,,,,,,3,,,39,0
866400,note_on,0,0,1,,,,,,,,,0,,,78,62
866400,note_on,0,0,1,,,,,,,,,0,,,75,62
866400,note_on,0,0,1,,,,,,,,,0,,,75,0
866400,note_on,1440,0,1,,,,,,,,,0,,,83,0
866400,note_on,0,0,2,,,,,,,,,1,,,66,62
866400,note_on,1440,0,2,,,,,,,,,1,,,71,0
866400,note_on,0,0,2,,,,,,,,,1,,,71,62
866447,note_on,0,0,1,,,,,,,,,0,,,75,0
866447,note_on,47,0,1,,,,,,,,,0,,,78,0
866559,note_on,287,0,3,,,,,,,,,2,,,48,62
866559,note_on,287,0,4,,,,,,,,,3,,,36,62
866591,note_on,32,0,4,,,,,,,,,3,,,36,0
866591,note_on,32,0,3,,,,,,,,,2,,,48,0
866880,note_on,0,0,2,,,,,,,,,1,,,66,0
866880,note_on,289,0,4,,,,,,,,,3,,,35,62
866880,note_on,0,0,1,,,,,,,,,0,,,79,88
866880,note_on,289,0,3,,,,,,,,,2,,,47,62
866880,note_on,0,0,2,,,,,,,,,1,,,71,88
866880,note_on,0,0,2,,,,,,,,,1,,,67,88
866880,note_on,433,0,1,,,,,,,,,0,,,76,88
866880,note_on,480,0,2,,,,,,,,,1,,,71,0
866911,note_on,31,0,3,,,,,,,,,2,,,47,0
866911,note_on,31,0,4,,,,,,,,,3,,,35,0
867200,note_on,289,0,4,,,,,,,,,3,,,49,62
867200,note_on,289,0,3,,,,,,,,,2,,,61,62
867232,note_on,32,0,4,,,,,,,,,3,,,49,0
867232,note_on,32,0,3,,,,,,,,,2,,,61,0
867519,note_on,287,0,4,,,,,,,,,3,,,51,62
867519,note_on,287,0,3,,,,,,,,,2,,,63,62
867551,note_on,32,0,3,,,,,,,,,2,,,63,0
867551,note_on,32,0,4,,,,,,,,,3,,,51,0
867840,note_on,289,0,4,,,,,,,,,3,,,52,62
867840,note_on,289,0,3,,,,,,,,,2,,,64,62
867871,note_on,31,0,3,,,,,,,,,2,,,64,0
867871,note_on,31,0,4,,,,,,,,,3,,,52,0
868160,note_on,289,0,3,,,,,,,,,2,,,62,62
868160,note_on,289,0,4,,,,,,,,,3,,,50,62
868192,note_on,32,0,4,,,,,,,,,3,,,50,0
868192,note_on,32,0,3,,,,,,,,,2,,,62,0
868320,note_on,1440,0,1,,,,,,,,,0,,,79,0
868320,note_on,0,0,2,,,,,,,,,1,,,71,62
868320,note_on,0,0,2,,,,,,,,,1,,,67,0
868320,note_on,1440,0,2,,,,,,,,,1,,,71,0
868320,note_on,0,0,1,,,,,,,,,0,,,83,62
868320,note_on,0,0,1,,,,,,,,,0,,,79,62
868320,note_on,0,0,1,,,,,,,,,0,,,76,0
868479,note_on,287,0,4,,,,,,,,,3,,,48,62
868479,note_on,287,0,3,,,,,,,,,2,,,60,62
868511,note_on,32,0,3,,,,,,,,,2,,,60,0
868511,note_on,32,0,4,,,,,,,,,3,,,48,0
868560,note_on,0,0,2,,,,,,,,,1,,,71,62
868560,note_on,0,0,1,,,,,,,,,0,,,79,62
868560,note_on,0,0,1,,,,,,,,,0,,,83,62
868560,note_on,240,0,2,,,,,,,,,1,,,71,0
868560,note_on,240,0,1,,,,,,,,,0,,,83,0
868560,note_on,0,0,1,,,,,,,,,0,,,79,0
868800,note_on,240,0,1,,,,,,,,,0,,,83,0
868800,note_on,289,0,4,,,,,,,,,3,,,47,62
868800,note_on,0,0,1,,,,,,,,,0,,,79,75
868800,note_on,0,0,1,,,,,,,,,0,,,83,75
868800,note_on,0,0,1,,,,,,,,,0,,,79,0
868800,note_on,0,0,2,,,,,,,,,1,,,71,75
868800,note_on,240,0,2,,,,,,,,,1,,,71,0
868800,note_on,289,0,3,,,,,,,,,2,,,59,62
868831,note_on,31,0,4,,,,,,,,,3,,,47,0
868831,note_on,31,0,3,,,,,,,,,2,,,59,0
869120,note_on,289,0,4,,,,,,,,,3,,,45,62
869120,note_on,289,0,3,,,,,,,,,2,,,57,62
869152,note_on,32,0,3,,,,,,,,,2,,,57,0
869152,note_on,32,0,4,,,,,,,,,3,,,45,0
869439,note_on,287,0,4,,,,,,,,,3,,,43,62
869439,note_on,287,0,3,,,,,,,,,2,,,55,62
869471,note_on,32,0,3,,,,,,,,,2,,,55,0
869471,note_on,32,0,4,,,,,,,,,3,,,43,0
869760,note_on,289,0,4,,,,,,,,,3,,,42,75
869760,note_on,289,0,3,,,,,,,,,2,,,54,75
869791,note_on,31,0,3,,,,,,,,,2,,,54,0
869791,note_on,31,0,4,,,,,,,,,3,,,42,0
870080,note_on,289,0,3,,,,,,,,,2,,,52,75
870080,note_on,289,0,4,,,,,,,,,3,,,40,75
870112,note_on,32,0,4,,,,,,,,,3,,,40,0
870112,note_on,32,0,3,,,,,,,,,2,,,52,0
870240,note_on,0,0,1,,,,,,,,,0,,,79,75
870240,note_on,1440,0,1,,,,,,,,,0,,,83,0
870240,note_on,0,0,1,,,,,,,,,0,,,79,0
870240,note_on,0,0,1,,,,,,,,,0,,,76,75
870240,note_on,0,0,2,,,,,,,,,1,,,71,75
870240,note_on,1440,0,2,,,,,,,,,1,,,71,0
870287,note_on,47,0,2,,,,,,,,,1,,,71,0
870287,note_on,47,0,1,,,,,,,,,0,,,79,0
870287,note_on,0,0,1,,,,,,,,,0,,,76,0
870399,note_on,287,0,3,,,,,,,,,2,,,50,75
870399,note_on,287,0,4,,,,,,,,,3,,,38,75
870431,note_on,32,0,4,,,,,,,,,3,,,38,0
870431,note_on,32,0,3,,,,,,,,,2,,,50,0
870720,note_on,433,0,2,,,,,,,,,1,,,72,101
870720,note_on,289,0,4,,,,,,,,,3,,,36,75
870720,note_on,289,0,3,,,,,,,,,2,,,48,75
870720,note_on,433,0,1,,,,,,,,,0,,,76,101
870720,note_on,0,0,1,,,,,,,,,0,,,79,101
870751,note_on,31,0,4,,,,,,,,,3,,,36,0
870751,note_on,31,0,3,,,,,,,,,2,,,48,0
871040,note_on,289,0,4,,,,,,,,,3,,,55,75
871040,note_on,289,0,3,,,,,,,,,2,,,67,75
871072,note_on,32,0,3,,,,,,,,,2,,,67,0
871072,note_on,32,0,4,,,,,,,,,3,,,55,0
871359,note_on,287,0,3,,,,,,,,,2,,,64,75
871359,note_on,287,0,4,,,,,,,,,3,,,52,75
871391,note_on,32,0,3,,,,,,,,,2,,,64,0
871391,note_on,32,0,4,,,,,,,,,3,,,52,0
871680,note_on,289,0,4,,,,,,,,,3,,,50,75
871680,note_on,289,0,3,,,,,,,,,2,,,62,75
871711,note_on,31,0,3,,,,,,,,,2,,,62,0
871711,note_on,31,0,4,,,,,,,,,3,,,50,0
872000,note_on,289,0,4,,,,,,,,,3,,,48,75
872000,note_on,289,0,3,,,,,,,,,2,,,60,75
872032,note_on,32,0,3,,,,,,,,,2,,,60,0
872032,note_on,32,0,4,,,,,,,,,3,,,48,0
872160,note_on,0,0,2,,,,,,,,,1,,,72,88
872160,note_on,1440,0,2,,,,,,,,,1,,,72,0
872160,note_on,1440,0,1,,,,,,,,,0,,,79,0
872160,note_on,0,0,1,,,,,,,,,0,,,76,0
872160,note_on,0,0,1,,,,,,,,,0,,,76,88
872160,note_on,0,0,1,,,,,,,,,0,,,84,88
872319,note_on,287,0,4,,,,,,,,,3,,,46,75
872319,note_on,287,0,3,,,,,,,,,2,,,58,75
872351,note_on,32,0,3,,,,,,,,,2,,,58,0
872351,note_on,32,0,4,,,,,,,,,3,,,46,0
872400,note_on,240,0,1,,,,,,,,,0,,,84,0
872400,note_on,0,0,1,,,,,,,,,0,,,76,0
872400,note_on,0,0,1,,,,,,,,,0,,,76,88
872400,note_on,0,0,1,,,,,,,,,0,,,84,88
872400,note_on,240,0,2,,,,,,,,,1,,,72,0
872400,note_on,0,0,2,,,,,,,,,1,,,72,88
872640,note_on,240,0,2,,,,,,,,,1,,,72,0
872640,note_on,0,0,2,,,,,,,,,1,,,72,88
872640,note_on,289,0,3,,,,,,,,,2,,,57,88
872640,note_on,0,0,1,,,,,,,,,0,,,84,88
872640,note_on,0,0,1,,,,,,,,,0,,,76,88
872640,note_on,0,0,1,,,,,,,,,0,,,76,0
872640,note_on,289,0,4,,,,,,,,,3,,,45,88
872640,note_on,240,0,1,,,,,,,,,0,,,84,0
872671,note_on,31,0,3,,,,,,,,,2,,,57,0
872671,note_on,31,0,4,,,,,,,,,3,,,45,0
872960,note_on,289,0,4,,,,,,,,,3,,,43,88
872960,note_on,289,0,3,,,,,,,,,2,,,55,88
872992,note_on,32,0,3,,,,,,,,,2,,,55,0
872992,note_on,32,0,4,,,,,,,,,3,,,43,0
873279,note_on,287,0,3,,,,,,,,,2,,,53,88
873279,note_on,287,0,4,,,,,,,,,3,,,41,88
873311,note_on,32,0,3,,,,,,,,,2,,,53,0
873311,note_on,32,0,4,,,,,,,,,3,,,41,0
873600,note_on,289,0,3,,,,,,,,,2,,,52,88
873600,note_on,289,0,4,,,,,,,,,3,,,40,88
873631,note_on,31,0,3,,,,,,,,,2,,,52,0
873631,note_on,31,0,4,,,,,,,,,3,,,40,0
873920,note_on,289,0,3,,,,,,,,,2,,,50,88
873920,note_on,289,0,4,,,,,,,,,3,,,38,88
873952,note_on,32,0,4,,,,,,,,,3,,,38,0
873952,note_on,32,0,3,,,,,,,,,2,,,50,0
874080,note_on,0,0,1,,,,,,,,,0,,,80,88
874080,note_on,0,0,1,,,,,,,,,0,,,76,88
874080,note_on,0,0,1,,,,,,,,,0,,,72,88
874080,note_on,0,0,1,,,,,,,,,0,,,76,0
874080,note_on,1440,0,1,,,,,,,,,0,,,84,0
874080,note_on,0,0,2,,,,,,,,,1,,,68,88
874080,note_on,1440,0,2,,,,,,,,,1,,,72,0
874080,note_on,0,0,2,,,,,,,,,1,,,64,88
874127,note_on,47,0,1,,,,,,,,,0,,,80,0
874127,note_on,47,0,2,,,,,,,,,1,,,68,0
874127,note_on,0,0,2,,,,,,,,,1,,,64,0
874127,note_on,0,0,1,,,,,,,,,0,,,72,0
874127,note_on,0,0,1,,,,,,,,,0,,,76,0
874239,note_on,287,0,3,,,,,,,,,2,,,48,88
874239,note_on,287,0,4,,,,,,,,,3,,,36,88
874271,note_on,32,0,4,,,,,,,,,3,,,36,0
874271,note_on,32,0,3,,,,,,,,,2,,,48,0
874560,note_on,289,0,3,,,,,,,,,2,,,53,88
874560,note_on,433,0,2,,,,,,,,,1,,,65,88
874560,note_on,0,0,1,,,,,,,,,0,,,81,88
874560,note_on,0,0,1,,,,,,,,,0,,,77,88
874560,note_on,433,0,1,,,,,,,,,0,,,72,88
874560,note_on,289,0,4,,,,,,,,,3,,,41,88
874560,note_on,0,0,2,,,,,,,,,1,,,69,88
875040,note_on,0,0,1,,,,,,,,,0,,,72,0
875040,note_on,0,0,1,,,,,,,,,0,,,77,0
875040,note_on,480,0,1,,,,,,,,,0,,,81,0
875040,note_on,0,0,4,,,,,,,,,3,,,29,88
875040,note_on,0,0,4,,,,,,,,,3,,,41,88
875040,note_on,480,0,4,,,,,,,,,3,,,41,0
875040,note_on,0,0,3,,,,,,,,,2,,,53,88
875040,note_on,0,0,2,,,,,,,,,1,,,65,0
875040,note_on,480,0,2,,,,,,,,,1,,,69,0
875040,note_on,480,0,3,,,,,,,,,2,,,53,0
875040,note_on,0,0,3,,,,,,,,,2,,,57,88
875040,note_on,0,0,3,,,,,,,,,2,,,60,88
875520,note_on,0,0,4,,,,,,,,,3,,,29,0
875520,note_on,480,0,4,,,,,,,,,3,,,41,0
875520,note_on,0,0,2,,,,,,,,,1,,,77,88
875520,note_on,0,0,2,,,,,,,,,1,,,74,88
875520,note_on,480,0,2,,,,,,,,,1,,,69,88
875520,note_on,480,0,3,,,,,,,,,2,,,60,0
875520,note_on,0,0,3,,,,,,,,,2,,,57,0
875520,note_on,0,0,3,,,,,,,,,2,,,53,0
875520,note_on,480,0,1,,,,,,,,,0,,,81,101
875760,note_on,0,0,1,,,,,,,,,0,,,86,101
875760,note_on,240,0,1,,,,,,,,,0,,,81,0
876000,note_on,0,0,2,,,,,,,,,1,,,69,0
876000,note_on,240,0,1,,,,,,,,,0,,,86,0
876000,note_on,0,0,3,,,,,,,,,2,,,62,88
876000,note_on,0,0,3,,,,,,,,,2,,,57,88
876000,note_on,480,0,3,,,,,,,,,2,,,53,88
876000,note_on,0,0,1,,,,,,,,,0,,,89,101
876000,note_on,480,0,4,,,,,,,,,3,,,29,88
876000,note_on,0,0,4,,,,,,,,,3,,,41,88
876000,note_on,480,0,2,,,,,,,,,1,,,77,0
876000,note_on,0,0,2,,,,,,,,,1,,,74,0
876240,note_on,0,0,1,,,,,,,,,0,,,93,101
876240,note_on,240,0,1,,,,,,,,,0,,,89,0
876480,note_on,480,0,2,,,,,,,,,1,,,67,88
876480,note_on,0,0,3,,,,,,,,,2,,,53,0
876480,note_on,0,0,3,,,,,,,,,2,,,57,0
876480,note_on,480,0,3,,,,,,,,,2,,,62,0
876480,note_on,480,0,4,,,,,,,,,3,,,41,0
876480,note_on,0,0,1,,,,,,,,,0,,,79,101
876480,note_on,240,0,1,,,,,,,,,0,,,93,0
876480,note_on,0,0,4,,,,,,,,,3,,,29,0
876480,note_on,0,0,2,,,,,,,,,1,,,76,88
876480,note_on,0,0,2,,,,,,,,,1,,,72,88
876720,note_on,0,0,1,,,,,,,,,0,,,84,101
876720,note_on,240,0,1,,,,,,,,,0,,,79,0
876960,note_on,0,0,3,,,,,,,,,2,,,64,88
876960,note_on,480,0,4,,,,,,,,,3,,,31,88
876960,note_on,480,0,2,,,,,,,,,1,,,76,0
876960,note_on,0,0,2,,,,,,,,,1,,,72,0
876960,note_on,0,0,2,,,,,,,,,1,,,67,0
876960,note_on,240,0,1,,,,,,,,,0,,,84,0
876960,note_on,0,0,1,,,,,,,,,0,,,88,101
876960,note_on,0,0,4,,,,,,,,,3,,,43,88
876960,note_on,0,0,3,,,,,,,,,2,,,60,88
876960,note_on,480,0,3,,,,,,,,,2,,,55,88
877200,note_on,240,0,1,,,,,,,,,0,,,88,0
877200,note_on,0,0,1,,,,,,,,,0,,,91,101
877440,note_on,0,0,1,,,,,,,,,0,,,79,101
877440,note_on,0,0,3,,,,,,,,,2,,,60,0
877440,note_on,0,0,3,,,,,,,,,2,,,55,0
877440,note_on,480,0,4,,,,,,,,,3,,,43,0
877440,note_on,480,0,3,,,,,,,,,2,,,64,0
877440,note_on,240,0,1,,,,,,,,,0,,,91,0
877440,note_on,0,0,4,,,,,,,,,3,,,31,0
877440,note_on,0,0,2,,,,,,,,,1,,,74,88
877440,note_on,480,0,2,,,,,,,,,1,,,67,88
877440,note_on,0,0,2,,,,,,,,,1,,,71,88
877680,note_on,240,0,1,,,,,,,,,0,,,79,0
877680,note_on,0,0,1,,,,,,,,,0,,,83,101
877920,note_on,0,0,2,,,,,,,,,1,,,67,0
877920,note_on,480,0,3,,,,,,,,,2,,,55,88
877920,note_on,0,0,3,,,,,,,,,2,,,59,88
877920,note_on,0,0,3,,,,,,,,,2,,,62,88
877920,note_on,480,0,4,,,,,,,,,3,,,31,88
877920,note_on,0,0,2,,,,,,,,,1,,,71,0
877920,note_on,0,0,1,,,,,,,,,0,,,86,101
877920,note_on,240,0,1,,,,,,,,,0,,,83,0
877920,note_on,0,0,4,,,,,,,,,3,,,43,88
877920,note_on,480,0,2,,,,,,,,,1,,,74,0
878160,note_on,0,0,1,,,,,,,,,0,,,91,101
878160,note_on,240,0,1,,,,,,,,,0,,,86,0
878400,note_on,480,0,4,,,,,,,,,3,,,43,0
878400,note_on,0,0,3,,,,,,,,,2,,,60,62
878400,note_on,0,0,3,,,,,,,,,2,,,55,0
878400,note_on,480,0,3,,,,,,,,,2,,,62,0
878400,note_on,0,0,4,,,,,,,,,3,,,31,0
878400,note_on,0,0,4,,,,,,,,,3,,,48,49
878400,note_on,0,0,4,,,,,,,,,3,,,55,49
878400,note_on,0,0,3,,,,,,,,,2,,,59,0
878400,note_on,240,0,1,,,,,,,,,0,,,91,0
878400,note_on,0,0,2,,,,,,,,,1,,,72,75
878400,note_on,0,0,2,,,,,,,,,1,,,67,75
878400,note_on,480,0,2,,,,,,,,,1,,,64,75
878400,note_on,0,0,1,,,,,,,,,0,,,76,62
878640,note_on,0,0,1,,,,,,,,,0,,,77,62
878640,note_on,240,0,1,,,,,,,,,0,,,76,0
878880,note_on,480,0,2,,,,,,,,,1,,,72,0
878880,note_on,0,0,2,,,,,,,,,1,,,64,0
878880,note_on,0,0,2,,,,,,,,,1,,,67,0
878880,note_on,0,0,1,,,,,,,,,0,,,79,62
878880,note_on,240,0,1,,,,,,,,,0,,,77,0
879120,note_on,0,0,1,,,,,,,,,0,,,81,62
879120,note_on,240,0,1,,,,,,,,,0,,,79,0
879360,note_on,0,0,1,,,,,,,,,0,,,83,62
879360,note_on,240,0,1,,,,,,,,,0,,,81,0
879600,note_on,240,0,1,,,,,,,,,0,,,83,0
879600,note_on,0,0,1,,,,,,,,,0,,,84,62
879840,note_on,1440,0,3,,,,,,,,,2,,,60,0
879840,note_on,0,0,3,,,,,,,,,2,,,64,62
879840,note_on,240,0,1,,,,,,,,,0,,,84,0
879840,note_on,0,0,1,,,,,,,,,0,,,86,62
879840,note_on,1440,0,4,,,,,,,,,3,,,55,0
879840,note_on,0,0,4,,,,,,,,,3,,,48,0
879840,note_on,0,0,4,,,,,,,,,3,,,48,49
879840,note_on,0,0,4,,,,,,,,,3,,,55,49
880080,note_on,240,0,1,,,,,,,,,0,,,86,0
880080,note_on,0,0,1,,,,,,,,,0,,,88,62
880320,note_on,0,0,4,,,,,,,,,3,,,48,0
880320,note_on,1440,0,2,,,,,,,,,1,,,67,75
880320,note_on,0,0,3,,,,,,,,,2,,,60,62
880320,note_on,0,0,4,,,,,,,,,3,,,55,49
880320,note_on,240,0,1,,,,,,,,,0,,,88,0
880320,note_on,0,0,4,,,,,,,,,3,,,50,49
880320,note_on,0,0,1,,,,,,,,,0,,,89,62
880320,note_on,480,0,3,,,,,,,,,2,,,64,0
880320,note_on,480,0,4,,,,,,,,,3,,,55,0
880560,note_on,0,0,1,,,,,,,,,0,,,88,62
880560,note_on,240,0,1,,,,,,,,,0,,,89,0
880800,note_on,0,0,1,,,,,,,,,0,,,86,62
880800,note_on,240,0,1,,,,,,,,,0,,,88,0
880800,note_on,0,0,3,,,,,,,,,2,,,59,62
880800,note_on,480,0,3,,,,,,,,,2,,,60,0
881040,note_on,240,0,1,,,,,,,,,0,,,86,0
881040,note_on,0,0,1,,,,,,,,,0,,,84,62
881280,note_on,0,0,1,,,,,,,,,0,,,83,62
881280,note_on,240,0,1,,,,,,,,,0,,,84,0
881280,note_on,480,0,3,,,,,,,,,2,,,59,0
881520,note_on,0,0,1,,,,,,,,,0,,,81,62
881520,note_on,240,0,1,,,,,,,,,0,,,83,0
881760,note_on,0,0,2,,,,,,,,,1,,,69,75
881760,note_on,0,0,1,,,,,,,,,0,,,79,62
881760,note_on,240,0,1,,,,,,,,,0,,,81,0
881760,note_on,0,0,4,,,,,,,,,3,,,50,0
881760,note_on,1440,0,4,,,,,,,,,3,,,55,0
881760,note_on,1440,0,2,,,,,,,,,1,,,67,0
881760,note_on,0,0,4,,,,,,,,,3,,,43,49
881760,note_on,0,0,4,,,,,,,,,3,,,55,49
882000,note_on,0,0,1,,,,,,,,,0,,,77,62
882000,note_on,240,0,1,,,,,,,,,0,,,79,0
882240,note_on,0,0,1,,,,,,,,,0,,,76,62
882240,note_on,240,0,1,,,,,,,,,0,,,77,0
882240,note_on,960,0,3,,,,,,,,,2,,,60,62
882240,note_on,0,0,2,,,,,,,,,1,,,69,75
882240,note_on,480,0,2,,,,,,,,,1,,,69,0
882240,note_on,0,0,4,,,,,,,,,3,,,55,49
882240,note_on,0,0,4,,,,,,,,,3,,,48,49
882240,note_on,0,0,4,,,,,,,,,3,,,43,0
882240,note_on,480,0,4,,,,,,,,,3,,,55,0
882480,note_on,0,0,1,,,,,,,,,0,,,77,62
882480,note_on,240,0,1,,,,,,,,,0,,,76,0
882720,note_on,0,0,1,,,,,,,,,0,,,79,62
882720,note_on,0,0,2,,,,,,,,,1,,,67,75
882720,note_on,480,0,2,,,,,,,,,1,,,69,0
882720,note_on,240,0,1,,,,,,,,,0,,,77,0
882960,note_on,240,0,1,,,,,,,,,0,,,79,0
882960,note_on,0,0,1,,,,,,,,,0,,,81,62
883200,note_on,240,0,1,,,,,,,,,0,,,81,0
883200,note_on,0,0,1,,,,,,,,,0,,,83,62
883200,note_on,480,0,2,,,,,,,,,1,,,67,0
883440,note_on,240,0,1,,,,,,,,,0,,,83,0
883440,note_on,0,0,1,,,,,,,,,0,,,84,62
883680,note_on,0,0,1,,,,,,,,,0,,,86,62
883680,note_on,0,0,4,,,,,,,,,3,,,48,49
883680,note_on,0,0,4,,,,,,,,,3,,,55,49
883680,note_on,240,0,1,,,,,,,,,0,,,84,0
883680,note_on,0,0,4,,,,,,,,,3,,,48,0
883680,note_on,1440,0,3,,,,,,,,,2,,,60,0
883680,note_on,0,0,3,,,,,,,,,2,,,64,62
883680,note_on,1440,0,4,,,,,,,,,3,,,55,0
883920,note_on,240,0,1,,,,,,,,,0,,,86,0
883920,note_on,0,0,1,,,,,,,,,0,,,88,62
884160,note_on,480,0,4,,,,,,,,,3,,,55,0
884160,note_on,960,0,2,,,,,,,,,1,,,67,75
884160,note_on,0,0,4,,,,,,,,,3,,,48,0
884160,note_on,0,0,3,,,,,,,,,2,,,60,62
884160,note_on,0,0,4,,,,,,,,,3,,,50,49
884160,note_on,0,0,4,,,,,,,,,3,,,55,49
884160,note_on,480,0,3,,,,,,,,,2,,,64,0
884160,note_on,240,0,1,,,,,,,,,0,,,88,0
884160,note_on,0,0,1,,,,,,,,,0,,,89,62
884400,note_on,0,0,1,,,,,,,,,0,,,88,62
884400,note_on,240,0,1,,,,,,,,,0,,,89,0
884640,note_on,0,0,1,,,,,,,,,0,,,86,62
884640,note_on,480,0,3,,,,,,,,,2,,,60,0
884640,note_on,240,0,1,,,,,,,,,0,,,88,0
884640,note_on,0,0,3,,,,,,,,,2,,,59,62
884880,note_on,240,0,1,,,,,,,,,0,,,86,0
884880,note_on,0,0,1,,,,,,,,,0,,,84,62
885120,note_on,480,0,3,,,,,,,,,2,,,59,0
885120,note_on,0,0,1,,,,,,,,,0,,,83,62
885120,note_on,240,0,1,,,,,,,,,0,,,84,0
885360,note_on,0,0,1,,,,,,,,,0,,,81,62
885360,note_on,240,0,1,,,,,,,,,0,,,83,0
885600,note_on,0,0,1,,,,,,,,,0,,,79,62
885600,note_on,240,0,1,,,,,,,,,0,,,81,0
885600,note_on,0,0,4,,,,,,,,,3,,,43,49
885600,note_on,0,0,4,,,,,,,,,3,,,50,0
885600,note_on,1440,0,4,,,,,,,,,3,,,55,0
885600,note_on,1440,0,2,,,,,,,,,1,,,67,0
885600,note_on,0,0,2,,,,,,,,,1,,,69,75
885840,note_on,240,0,1,,,,,,,,,0,,,79,0
885840,note_on,0,0,1,,,,,,,,,0,,,77,62
886080,note_on,0,0,1,,,,,,,,,0,,,76,62
886080,note_on,480,0,2,,,,,,,,,1,,,69,0
886080,note_on,480,0,4,,,,,,,,,3,,,43,0
886080,note_on,240,0,1,,,,,,,,,0,,,77,0
886080,note_on,0,0,3,,,,,,,,,2,,,64,62
886080,control_change,960,0,3,,,,,,,,,2,64,127,,
886080,note_on,0,0,4,,,,,,,,,3,,,48,49
886080,note_on,0,0,2,,,,,,,,,1,,,69,75
886080,control_change,0,0,2,,,,,,,,,1,64,127,,
886320,note_on,240,0,1,,,,,,,,,0,,,76,0
886320,note_on,0,0,1,,,,,,,,,0,,,77,62
886560,note_on,240,0,1,,,,,,,,,0,,,77,0
886560,note_on,0,0,1,,,,,,,,,0,,,79,62
886560,note_on,0,0,3,,,,,,,,,2,,,60,62
886560,note_on,480,0,2,,,,,,,,,1,,,69,0
886560,note_on,0,0,2,,,,,,,,,1,,,67,75
886560,note_on,480,0,3,,,,,,,,,2,,,64,0
886800,note_on,240,0,1,,,,,,,,,0,,,79,0
886800,note_on,0,0,1,,,,,,,,,0,,,80,62
887040,note_on,240,0,1,,,,,,,,,0,,,80,0
887040,note_on,0,0,1,,,,,,,,,0,,,81,62
887040,note_on,0,0,4,,,,,,,,,3,,,41,49
887040,note_on,960,0,4,,,,,,,,,3,,,48,0
887040,note_on,480,0,2,,,,,,,,,1,,,67,0
887040,note_on,0,0,2,,,,,,,,,1,,,65,75
887040,note_on,480,0,3,,,,,,,,,2,,,60,0
887040,note_on,0,0,3,,,,,,,,,2,,,57,62
887280,note_on,240,0,1,,,,,,,,,0,,,81,0
887280,note_on,0,0,1,,,,,,,,,0,,,83,62
887520,note_on,0,0,2,,,,,,,,,1,,,62,75
887520,control_change,0,0,3,,,,,,,,,2,64,0,,
887520,note_on,240,0,1,,,,,,,,,0,,,83,0
887520,note_on,0,0,1,,,,,,,,,0,,,84,62
887520,control_change,0,0,2,,,,,,,,,1,64,0,,
887520,note_on,480,0,2,,,,,,,,,1,,,65,0
887520,note_on,480,0,3,,,,,,,,,2,,,57,0
887520,note_on,0,0,3,,,,,,,,,2,,,53,62
887760,note_on,0,0,1,,,,,,,,,0,,,86,62
887760,note_on,240,0,1,,,,,,,,,0,,,84,0
888000,note_on,0,0,3,,,,,,,,,2,,,52,62
888000,note_on,960,0,4,,,,,,,,,3,,,41,0
888000,note_on,0,0,4,,,,,,,,,3,,,43,49
888000,note_on,0,0,2,,,,,,,,,1,,,60,75
888000,control_change,0,0,2,,,,,,,,,1,64,127,,
888000,note_on,480,0,2,,,,,,,,,1,,,62,0
888000,note_on,0,0,1,,,,,,,,,0,,,76,62
888000,note_on,240,0,1,,,,,,,,,0,,,86,0
888000,note_on,0,0,3,,,,,,,,,2,,,55,62
888000,note_on,480,0,3,,,,,,,,,2,,,53,0
888240,note_on,0,0,1,,,,,,,,,0,,,77,62
888240,note_on,240,0,1,,,,,,,,,0,,,76,0
888480,note_on,240,0,1,,,,,,,,,0,,,77,0
888480,note_on,0,0,1,,,,,,,,,0,,,78,62
888720,note_on,0,0,1,,,,,,,,,0,,,79,62
888720,note_on,240,0,1,,,,,,,,,0,,,78,0
888960,note_on,240,0,1,,,,,,,,,0,,,79,0
888960,note_on,0,0,1,,,,,,,,,0,,,80,62
888960,note_on,0,0,3,,,,,,,,,2,,,55,62
888960,note_on,0,0,3,,,,,,,,,2,,,53,62
888960,note_on,960,0,2,,,,,,,,,1,,,60,0
888960,note_on,0,0,2,,,,,,,,,1,,,64,75
888960,note_on,0,0,3,,,,,,,,,2,,,52,0
888960,note_on,960,0,3,,,,,,,,,2,,,55,0
888960,note_on,960,0,4,,,,,,,,,3,,,43,0
888960,note_on,0,0,4,,,,,,,,,3,,,43,49
889200,note_on,240,0,1,,,,,,,,,0,,,80,0
889200,note_on,0,0,1,,,,,,,,,0,,,81,62
889440,note_on,0,0,2,,,,,,,,,1,,,62,75
889440,control_change,0,0,2,,,,,,,,,1,64,0,,
889440,note_on,480,0,2,,,,,,,,,1,,,64,0
889440,note_on,0,0,1,,,,,,,,,0,,,82,62
889440,note_on,240,0,1,,,,,,,,,0,,,81,0
889680,note_on,0,0,1,,,,,,,,,0,,,83,62
889680,note_on,240,0,1,,,,,,,,,0,,,82,0
889920,note_on,0,0,1,,,,,,,,,0,,,84,62
889920,note_on,240,0,1,,,,,,,,,0,,,83,0
889920,note_on,960,0,3,,,,,,,,,2,,,55,0
889920,note_on,960,0,4,,,,,,,,,3,,,43,0
889920,note_on,0,0,3,,,,,,,,,2,,,55,62
889920,note_on,0,0,4,,,,,,,,,3,,,48,62
889920,note_on,0,0,2,,,,,,,,,1,,,60,75
889920,note_on,480,0,2,,,,,,,,,1,,,62,0
889920,note_on,0,0,3,,,,,,,,,2,,,52,62
889920,note_on,0,0,3,,,,,,,,,2,,,53,0
890400,note_on,0,0,1,,,,,,,,,0,,,64,62
890400,note_on,480,0,3,,,,,,,,,2,,,55,0
890400,note_on,480,0,2,,,,,,,,,1,,,60,0
890400,note_on,0,0,3,,,,,,,,,2,,,52,0
890400,note_on,480,0,1,,,,,,,,,0,,,84,0
890640,note_on,0,0,1,,,,,,,,,0,,,65,62
890640,note_on,240,0,1,,,,,,,,,0,,,64,0
890880,note_on,0,0,1,,,,,,,,,0,,,67,62
890880,note_on,240,0,1,,,,,,,,,0,,,65,0
891120,note_on,240,0,1,,,,,,,,,0,,,67,0
891120,note_on,0,0,1,,,,,,,,,0,,,69,62
891360,note_on,960,0,2,,,,,,,,,1,,,67,75
891360,note_on,1440,0,4,,,,,,,,,3,,,48,0
891360,note_on,0,0,4,,,,,,,,,3,,,52,62
891360,note_on,0,0,1,,,,,,,,,0,,,71,62
891360,note_on,240,0,1,,,,,,,,,0,,,69,0
891600,note_on,240,0,1,,,,,,,,,0,,,71,0
891600,note_on,0,0,1,,,,,,,,,0,,,72,62
891840,note_on,0,0,4,,,,,,,,,3,,,48,62
891840,note_on,480,0,4,,,,,,,,,3,,,52,0
891840,note_on,480,0,2,,,,,,,,,1,,,67,0
891840,note_on,0,0,1,,,,,,,,,0,,,74,62
891840,note_on,240,0,1,,,,,,,,,0,,,72,0
891840,note_on,1440,0,3,,,,,,,,,2,,,55,62
891840,note_on,0,0,2,,,,,,,,,1,,,67,75
892080,note_on,0,0,1,,,,,,,,,0,,,76,62
892080,note_on,240,0,1,,,,,,,,,0,,,74,0
892320,note_on,0,0,4,,,,,,,,,3,,,47,62
892320,note_on,480,0,4,,,,,,,,,3,,,48,0
892320,note_on,240,0,1,,,,,,,,,0,,,76,0
892320,note_on,0,0,1,,,,,,,,,0,,,74,62
892560,note_on,0,0,1,,,,,,,,,0,,,73,62
892560,note_on,240,0,1,,,,,,,,,0,,,74,0
892800,note_on,0,0,1,,,,,,,,,0,,,74,62
892800,note_on,240,0,1,,,,,,,,,0,,,73,0
892800,note_on,960,0,2,,,,,,,,,1,,,67,0
892800,note_on,480,0,4,,,,,,,,,3,,,47,0
893040,note_on,240,0,1,,,,,,,,,0,,,74,0
893040,note_on,0,0,1,,,,,,,,,0,,,71,62
893280,note_on,240,0,1,,,,,,,,,0,,,71,0
893280,note_on,0,0,1,,,,,,,,,0,,,67,62
893280,note_on,0,0,3,,,,,,,,,2,,,57,62
893280,note_on,1440,0,3,,,,,,,,,2,,,55,0
893520,note_on,240,0,1,,,,,,,,,0,,,67,0
893520,note_on,0,0,1,,,,,,,,,0,,,65,62
893760,note_on,960,0,4,,,,,,,,,3,,,48,62
893760,note_on,240,0,1,,,,,,,,,0,,,65,0
893760,note_on,480,0,3,,,,,,,,,2,,,57,0
893760,note_on,0,0,1,,,,,,,,,0,,,64,62
893760,note_on,0,0,3,,,,,,,,,2,,,57,62
894000,note_on,240,0,1,,,,,,,,,0,,,64,0
894000,note_on,0,0,1,,,,,,,,,0,,,65,62
894240,note_on,0,0,1,,,,,,,,,0,,,67,62
894240,note_on,0,0,3,,,,,,,,,2,,,55,62
894240,note_on,240,0,1,,,,,,,,,0,,,65,0
894240,note_on,480,0,3,,,,,,,,,2,,,57,0
894480,note_on,0,0,1,,,,,,,,,0,,,69,62
894480,note_on,240,0,1,,,,,,,,,0,,,67,0
894720,note_on,480,0,3,,,,,,,,,2,,,55,0
894720,note_on,0,0,1,,,,,,,,,0,,,67,62
894720,note_on,240,0,1,,,,,,,,,0,,,69,0
894960,note_on,0,0,1,,,,,,,,,0,,,69,62
894960,note_on,240,0,1,,,,,,,,,0,,,67,0
895200,note_on,2400,0,2,,,,,,,,,1,,,64,75
895200,note_on,0,0,4,,,,,,,,,3,,,52,62
895200,note_on,1440,0,4,,,,,,,,,3,,,48,0
895200,note_on,240,0,1,,,,,,,,,0,,,69,0
895200,note_on,0,0,1,,,,,,,,,0,,,71,62
895440,note_on,240,0,1,,,,,,,,,0,,,71,0
895440,note_on,0,0,1,,,,,,,,,0,,,72,62
895680,note_on,0,0,4,,,,,,,,,3,,,48,62
895680,note_on,240,0,1,,,,,,,,,0,,,72,0
895680,note_on,0,0,1,,,,,,,,,0,,,74,62
895680,note_on,480,0,4,,,,,,,,,3,,,52,0
895680,note_on,960,0,3,,,,,,,,,2,,,55,62
895680,note_on,480,0,2,,,,,,,,,1,,,64,0
895680,note_on,0,0,2,,,,,,,,,1,,,64,75
895920,note_on,240,0,1,,,,,,,,,0,,,74,0
895920,note_on,0,0,1,,,,,,,,,0,,,76,62
896160,note_on,480,0,4,,,,,,,,,3,,,48,0
896160,note_on,0,0,4,,,,,,,,,3,,,47,62
896160,note_on,240,0,1,,,,,,,,,0,,,76,0
896160,note_on,0,0,1,,,,,,,,,0,,,74,62
896400,note_on,0,0,1,,,,,,,,,0,,,73,62
896400,note_on,240,0,1,,,,,,,,,0,,,74,0
896640,note_on,960,0,2,,,,,,,,,1,,,64,0
896640,note_on,0,0,1,,,,,,,,,0,,,74,62
896640,note_on,480,0,4,,,,,,,,,3,,,47,0
896640,note_on,240,0,1,,,,,,,,,0,,,73,0
896880,note_on,240,0,1,,,,,,,,,0,,,74,0
896880,note_on,0,0,1,,,,,,,,,0,,,71,62
897120,note_on,0,0,3,,,,,,,,,2,,,57,62
897120,note_on,240,0,1,,,,,,,,,0,,,71,0
897120,note_on,0,0,1,,,,,,,,,0,,,67,62
897120,note_on,1440,0,3,,,,,,,,,2,,,55,0
897360,note_on,0,0,1,,,,,,,,,0,,,65,62
897360,note_on,240,0,1,,,,,,,,,0,,,67,0
897600,note_on,480,0,3,,,,,,,,,2,,,57,0
897600,control_change,0,0,3,,,,,,,,,2,64,127,,
897600,note_on,0,0,3,,,,,,,,,2,,,57,62
897600,note_on,240,0,1,,,,,,,,,0,,,65,0
897600,note_on,960,0,4,,,,,,,,,3,,,48,62
897600,note_on,0,0,1,,,,,,,,,0,,,64,62
897840,note_on,0,0,1,,,,,,,,,0,,,65,62
897840,note_on,240,0,1,,,,,,,,,0,,,64,0
898080,note_on,480,0,3,,,,,,,,,2,,,57,0
898080,note_on,0,0,3,,,,,,,,,2,,,55,62
898080,note_on,0,0,2,,,,,,,,,1,,,64,75
898080,control_change,1440,0,2,,,,,,,,,1,64,127,,
898080,note_on,240,0,1,,,,,,,,,0,,,65,0
898080,note_on,0,0,1,,,,,,,,,0,,,67,62
898320,note_on,0,0,1,,,,,,,,,0,,,68,62
898320,note_on,240,0,1,,,,,,,,,0,,,67,0
898560,note_on,480,0,3,,,,,,,,,2,,,55,0
898560,note_on,0,0,3,,,,,,,,,2,,,57,62
898560,note_on,480,0,2,,,,,,,,,1,,,64,0
898560,note_on,0,0,2,,,,,,,,,1,,,65,75
898560,note_on,240,0,1,,,,,,,,,0,,,68,0
898560,note_on,0,0,1,,,,,,,,,0,,,69,62
898560,note_on,0,0,4,,,,,,,,,3,,,41,62
898560,note_on,960,0,4,,,,,,,,,3,,,48,0
898800,note_on,240,0,1,,,,,,,,,0,,,69,0
898800,note_on,0,0,1,,,,,,,,,0,,,71,62
899040,note_on,240,0,1,,,,,,,,,0,,,71,0
899040,note_on,0,0,1,,,,,,,,,0,,,72,62
899040,note_on,0,0,2,,,,,,,,,1,,,62,75
899040,control_change,0,0,3,,,,,,,,,2,64,0,,
899040,note_on,480,0,3,,,,,,,,,2,,,57,0
899040,control_change,0,0,2,,,,,,,,,1,64,0,,
899040,note_on,0,0,3,,,,,,,,,2,,,53,62
899040,note_on,480,0,2,,,,,,,,,1,,,65,0
899280,note_on,0,0,1,,,,,,,,,0,,,74,62
899280,note_on,240,0,1,,,,,,,,,0,,,72,0
899520,note_on,480,0,2,,,,,,,,,1,,,62,0
899520,note_on,0,0,2,,,,,,,,,1,,,60,75
899520,note_on,480,0,3,,,,,,,,,2,,,53,0
899520,control_change,0,0,3,,,,,,,,,2,64,127,,
899520,note_on,0,0,3,,,,,,,,,2,,,52,62
899520,control_change,0,0,2,,,,,,,,,1,64,127,,
899520,note_on,0,0,1,,,,,,,,,0,,,76,62
899520,note_on,240,0,1,,,,,,,,,0,,,74,0
899520,note_on,960,0,4,,,,,,,,,3,,,41,0
899520,note_on,0,0,4,,,,,,,,,3,,,43,62
899760,note_on,0,0,1,,,,,,,,,0,,,77,62
899760,note_on,240,0,1,,,,,,,,,0,,,76,0
900000,note_on,240,0,1,,,,,,,,,0,,,77,0
900000,note_on,0,0,1,,,,,,,,,0,,,78,62
900240,note_on,240,0,1,,,,,,,,,0,,,78,0
900240,note_on,0,0,1,,,,,,,,,0,,,79,62
900480,note_on,0,0,1,,,,,,,,,0,,,80,62
900480,note_on,240,0,1,,,,,,,,,0,,,79,0
900480,note_on,960,0,3,,,,,,,,,2,,,52,0
900480,note_on,0,0,3,,,,,,,,,2,,,55,62
900480,note_on,960,0,2,,,,,,,,,1,,,60,0
900480,note_on,960,0,4,,,,,,,,,3,,,43,0
900480,note_on,0,0,2,,,,,,,,,1,,,64,75
900480,note_on,0,0,4,,,,,,,,,3,,,43,62
900720,note_on,0,0,1,,,,,,,,,0,,,81,62
900720,note_on,240,0,1,,,,,,,,,0,,,80,0
900960,note_on,0,0,1,,,,,,,,,0,,,82,62
900960,note_on,240,0,1,,,,,,,,,0,,,81,0
900960,note_on,480,0,3,,,,,,,,,2,,,55,0
900960,note_on,480,0,2,,,,,,,,,1,,,64,0
900960,control_change,0,0,2,,,,,,,,,1,64,0,,
900960,control_change,0,0,3,,,,,,,,,2,64,0,,
900960,note_on,0,0,2,,,,,,,,,1,,,62,75
900960,note_on,0,0,3,,,,,,,,,2,,,53,62
901200,note_on,240,0,1,,,,,,,,,0,,,82,0
901200,note_on,0,0,1,,,,,,,,,0,,,83,62
901440,note_on,0,0,3,,,,,,,,,2,,,48,88
901440,note_on,480,0,3,,,,,,,,,2,,,53,0
901440,note_on,960,0,4,,,,,,,,,3,,,43,0
901440,note_on,0,0,4,,,,,,,,,3,,,36,88
901440,note_on,240,0,1,,,,,,,,,0,,,83,0
901440,note_on,480,0,2,,,,,,,,,1,,,62,0
901440,note_on,0,0,2,,,,,,,,,1,,,60,75
901440,note_on,0,0,1,,,,,,,,,0,,,84,62
901680,note_on,240,0,2,,,,,,,,,1,,,60,0
901920,note_on,0,0,2,,,,,,,,,1,,,60,88
901920,note_on,480,0,1,,,,,,,,,0,,,84,0
901920,control_change,240,0,2,,,,,,,,,1,64,127,,
902160,note_on,240,0,2,,,,,,,,,1,,,60,0
902160,note_on,0,0,2,,,,,,,,,1,,,62,88
902400,note_on,240,0,2,,,,,,,,,1,,,62,0
902400,note_on,0,0,2,,,,,,,,,1,,,64,88
902640,note_on,0,0,2,,,,,,,,,1,,,65,88
902640,note_on,240,0,2,,,,,,,,,1,,,64,0
902880,note_on,1440,0,4,,,,,,,,,3,,,36,0
902880,note_on,0,0,4,,,,,,,,,3,,,40,88
902880,note_on,1440,0,3,,,,,,,,,2,,,48,0
902880,note_on,0,0,3,,,,,,,,,2,,,52,88
902880,note_on,240,0,2,,,,,,,,,1,,,65,0
902880,note_on,0,0,2,,,,,,,,,1,,,67,88
903120,note_on,0,0,2,,,,,,,,,1,,,64,88
903120,control_change,0,0,2,,,,,,,,,1,64,0,,
903120,note_on,240,0,2,,,,,,,,,1,,,67,0
903360,note_on,0,0,4,,,,,,,,,3,,,34,114
903360,note_on,0,0,2,,,,,,,,,1,,,60,88
903360,note_on,240,0,2,,,,,,,,,1,,,64,0
903360,note_on,0,0,3,,,,,,,,,2,,,46,114
903360,note_on,480,0,3,,,,,,,,,2,,,52,0
903360,note_on,480,0,4,,,,,,,,,3,,,40,0
903600,note_on,240,0,2,,,,,,,,,1,,,60,0
903840,note_on,0,0,4,,,,,,,,,3,,,33,88
903840,note_on,480,0,4,,,,,,,,,3,,,34,0
903840,note_on,240,0,2,,,,,,,,,1,,,61,88
903840,note_on,0,0,2,,,,,,,,,1,,,64,88
903840,note_on,0,0,2,,,,,,,,,1,,,69,88
903840,note_on,1920,0,1,,,,,,,,,0,,,73,62
903840,note_on,0,0,1,,,,,,,,,0,,,76,62
903840,note_on,0,0,1,,,,,,,,,0,,,81,62
903840,note_on,480,0,3,,,,,,,,,2,,,46,0
903840,note_on,0,0,3,,,,,,,,,2,,,45,88
903887,note_on,0,0,1,,,,,,,,,0,,,73,0
903887,note_on,47,0,2,,,,,,,,,1,,,69,0
903887,note_on,0,0,2,,,,,,,,,1,,,61,0
903887,note_on,0,0,1,,,,,,,,,0,,,76,0
903887,note_on,47,0,1,,,,,,,,,0,,,81,0
903887,note_on,0,0,2,,,,,,,,,1,,,64,0
904320,note_on,433,0,2,,,,,,,,,1,,,64,88
904320,note_on,0,0,2,,,,,,,,,1,,,69,88
904320,note_on,0,0,2,,,,,,,,,1,,,73,88
904320,note_on,0,0,1,,,,,,,,,0,,,81,62
904320,note_on,0,0,1,,,,,,,,,0,,,85,62
904320,note_on,480,0,4,,,,,,,,,3,,,33,0
904320,note_on,433,0,1,,,,,,,,,0,,,76,62
904320,note_on,480,0,3,,,,,,,,,2,,,45,0
904367,note_on,47,0,2,,,,,,,,,1,,,73,0
904367,note_on,0,0,2,,,,,,,,,1,,,69,0
904367,note_on,0,0,2,,,,,,,,,1,,,64,0
904367,note_on,0,0,1,,,,,,,,,0,,,76,0
904367,note_on,0,0,1,,,,,,,,,0,,,81,0
904367,note_on,47,0,1,,,,,,,,,0,,,85,0
904800,note_on,0,0,2,,,,,,,,,1,,,76,88
904800,note_on,433,0,1,,,,,,,,,0,,,81,62
904800,note_on,0,0,1,,,,,,,,,0,,,85,62
904800,note_on,0,0,2,,,,,,,,,1,,,73,88
904800,note_on,433,0,2,,,,,,,,,1,,,69,88
904800,note_on,0,0,1,,,,,,,,,0,,,88,62
904847,note_on,0,0,2,,,,,,,,,1,,,73,0
904847,note_on,0,0,2,,,,,,,,,1,,,69,0
904847,note_on,0,0,1,,,,,,,,,0,,,81,0
904847,note_on,0,0,1,,,,,,,,,0,,,85,0
904847,note_on,47,0,2,,,,,,,,,1,,,76,0
904847,note_on,47,0,1,,,,,,,,,0,,,88,0
905280,note_on,433,0,1,,,,,,,,,0,,,76,88
905280,note_on,0,0,1,,,,,,,,,0,,,79,88
905280,note_on,0,0,1,,,,,,,,,0,,,88,88
905280,note_on,0,0,1,,,,,,,,,0,,,91,88
905280,note_on,960,0,4,,,,,,,,,3,,,38,88
905280,note_on,960,0,3,,,,,,,,,2,,,50,88
905280,note_on,433,0,2,,,,,,,,,1,,,69,88
905280,note_on,0,0,2,,,,,,,,,1,,,81,88
905760,note_on,0,0,1,,,,,,,,,0,,,77,62
905760,note_on,0,0,1,,,,,,,,,0,,,76,0
905760,note_on,0,0,1,,,,,,,,,0,,,74,62
905760,note_on,0,0,1,,,,,,,,,0,,,86,62
905760,note_on,480,0,1,,,,,,,,,0,,,91,0
905760,note_on,0,0,1,,,,,,,,,0,,,88,0
905760,note_on,0,0,1,,,,,,,,,0,,,89,62
905760,note_on,0,0,1,,,,,,,,,0,,,79,0
906240,note_on,0,0,2,,,,,,,,,1,,,62,88
906240,control_change,0,0,2,,,,,,,,,1,64,127,,
906240,note_on,0,0,2,,,,,,,,,1,,,69,0
906240,note_on,960,0,2,,,,,,,,,1,,,81,0
906240,note_on,0,0,1,,,,,,,,,0,,,77,0
906240,note_on,0,0,1,,,,,,,,,0,,,74,0
906240,note_on,480,0,1,,,,,,,,,0,,,89,0
906240,note_on,0,0,1,,,,,,,,,0,,,86,0
906480,note_on,240,0,2,,,,,,,,,1,,,62,0
906480,note_on,0,0,2,,,,,,,,,1,,,64,88
906720,note_on,1440,0,4,,,,,,,,,3,,,38,0
906720,note_on,0,0,3,,,,,,,,,2,,,53,88
906720,note_on,1440,0,3,,,,,,,,,2,,,50,0
906720,note_on,240,0,2,,,,,,,,,1,,,64,0
906720,note_on,0,0,4,,,,,,,,,3,,,41,88
906720,note_on,0,0,2,,,,,,,,,1,,,62,88
906960,note_on,0,0,2,,,,,,,,,1,,,60,88
906960,note_on,240,0,2,,,,,,,,,1,,,62,0
907200,note_on,240,0,2,,,,,,,,,1,,,60,0
907200,control_change,0,0,2,,,,,,,,,1,64,0,,
907200,note_on,0,0,2,,,,,,,,,1,,,59,88
907200,note_on,480,0,3,,,,,,,,,2,,,53,0
907200,note_on,0,0,3,,,,,,,,,2,,,44,114
907200,note_on,0,0,4,,,,,,,,,3,,,32,114
907200,note_on,480,0,4,,,,,,,,,3,,,41,0
907680,note_on,1440,0,1,,,,,,,,,0,,,71,62
907680,note_on,0,0,1,,,,,,,,,0,,,74,62
907680,note_on,0,0,1,,,,,,,,,0,,,79,62
907680,note_on,0,0,3,,,,,,,,,2,,,43,88
907680,note_on,0,0,4,,,,,,,,,3,,,31,88
907680,note_on,480,0,4,,,,,,,,,3,,,32,0
907680,note_on,480,0,3,,,,,,,,,2,,,44,0
907680,note_on,0,0,2,,,,,,,,,1,,,62,88
907680,note_on,0,0,2,,,,,,,,,1,,,67,88
907680,note_on,0,0,2,,,,,,,,,1,,,59,88
907680,note_on,480,0,2,,,,,,,,,1,,,59,0
907727,note_on,47,0,2,,,,,,,,,1,,,67,0
907727,note_on,0,0,1,,,,,,,,,0,,,74,0
907727,note_on,47,0,1,,,,,,,,,0,,,79,0
907727,note_on,0,0,2,,,,,,,,,1,,,62,0
907727,note_on,0,0,2,,,,,,,,,1,,,59,0
907727,note_on,0,0,1,,,,,,,,,0,,,71,0
908160,note_on,0,0,1,,,,,,,,,0,,,79,62
908160,note_on,480,0,4,,,,,,,,,3,,,31,0
908160,note_on,433,0,2,,,,,,,,,1,,,62,88
908160,note_on,0,0,2,,,,,,,,,1,,,67,88
908160,note_on,480,0,3,,,,,,,,,2,,,43,0
908160,note_on,0,0,2,,,,,,,,,1,,,71,88
908160,note_on,433,0,1,,,,,,,,,0,,,74,62
908160,note_on,0,0,1,,,,,,,,,0,,,83,62
908207,note_on,0,0,2,,,,,,,,,1,,,62,0
908207,note_on,47,0,2,,,,,,,,,1,,,71,0
908207,note_on,47,0,1,,,,,,,,,0,,,83,0
908207,note_on,0,0,2,,,,,,,,,1,,,67,0
908207,note_on,0,0,1,,,,,,,,,0,,,79,0
908207,note_on,0,0,1,,,,,,,,,0,,,74,0
908640,note_on,433,0,1,,,,,,,,,0,,,79,62
908640,note_on,0,0,1,,,,,,,,,0,,,83,62
908640,note_on,433,0,2,,,,,,,,,1,,,67,88
908640,note_on,0,0,2,,,,,,,,,1,,,71,88
908640,note_on,0,0,2,,,,,,,,,1,,,74,88
908640,note_on,0,0,1,,,,,,,,,0,,,86,62
908687,note_on,47,0,1,,,,,,,,,0,,,86,0
908687,note_on,0,0,1,,,,,,,,,0,,,83,0
908687,note_on,0,0,1,,,,,,,,,0,,,79,0
908687,note_on,47,0,2,,,,,,,,,1,,,74,0
908687,note_on,0,0,2,,,,,,,,,1,,,67,0
908687,note_on,0,0,2,,,,,,,,,1,,,71,0
909120,note_on,0,0,1,,,,,,,,,0,,,77,88
909120,note_on,0,0,1,,,,,,,,,0,,,86,88
909120,note_on,0,0,1,,,,,,,,,0,,,89,88
909120,note_on,433,0,2,,,,,,,,,1,,,67,88
909120,note_on,433,0,1,,,,,,,,,0,,,74,88
909120,note_on,0,0,2,,,,,,,,,1,,,79,88
909600,note_on,1440,0,3,,,,,,,,,2,,,60,88
909600,note_on,0,0,1,,,,,,,,,0,,,84,62
909600,note_on,0,0,1,,,,,,,,,0,,,72,62
909600,note_on,0,0,1,,,,,,,,,0,,,88,62
909600,note_on,0,0,1,,,,,,,,,0,,,76,62
909600,note_on,0,0,1,,,,,,,,,0,,,86,0
909600,note_on,0,0,1,,,,,,,,,0,,,77,0
909600,note_on,0,0,1,,,,,,,,,0,,,74,0
909600,note_on,480,0,1,,,,,,,,,0,,,89,0
909600,note_on,1440,0,4,,,,,,,,,3,,,48,88
909647,note_on,47,0,3,,,,,,,,,2,,,60,0
909647,note_on,47,0,4,,,,,,,,,3,,,48,0
910080,note_on,0,0,2,,,,,,,,,1,,,67,0
910080,note_on,0,0,1,,,,,,,,,0,,,83,88
910080,note_on,0,0,1,,,,,,,,,0,,,71,88
910080,note_on,0,0,1,,,,,,,,,0,,,84,0
910080,note_on,0,0,1,,,,,,,,,0,,,76,0
910080,note_on,0,0,1,,,,,,,,,0,,,72,0
910080,note_on,480,0,1,,,,,,,,,0,,,88,0
910080,note_on,433,0,4,,,,,,,,,3,,,51,114
910080,note_on,433,0,3,,,,,,,,,2,,,63,114
910080,note_on,0,0,2,,,,,,,,,1,,,79,88
910080,note_on,0,0,2,,,,,,,,,1,,,67,88
910080,note_on,960,0,2,,,,,,,,,1,,,79,0
910560,note_on,480,0,4,,,,,,,,,3,,,51,0
910560,note_on,0,0,4,,,,,,,,,3,,,52,88
910560,note_on,0,0,1,,,,,,,,,0,,,72,62
910560,note_on,480,0,3,,,,,,,,,2,,,63,0
910560,note_on,0,0,3,,,,,,,,,2,,,64,88
910560,note_on,0,0,1,,,,,,,,,0,,,71,0
910560,note_on,0,0,1,,,,,,,,,0,,,84,62
910560,note_on,480,0,1,,,,,,,,,0,,,83,0
911040,note_on,0,0,1,,,,,,,,,0,,,80,88
911040,note_on,0,0,2,,,,,,,,,1,,,67,0
911040,note_on,960,0,2,,,,,,,,,1,,,79,0
911040,note_on,480,0,4,,,,,,,,,3,,,52,0
911040,note_on,0,0,4,,,,,,,,,3,,,40,114
911040,note_on,0,0,2,,,,,,,,,1,,,60,88
911040,note_on,0,0,1,,,,,,,,,0,,,68,88
911040,note_on,0,0,1,,,,,,,,,0,,,72,0
911040,note_on,480,0,1,,,,,,,,,0,,,84,0
911040,note_on,480,0,3,,,,,,,,,2,,,64,0
911040,note_on,0,0,2,,,,,,,,,1,,,72,88
911040,note_on,0,0,3,,,,,,,,,2,,,52,114
911520,note_on,0,0,1,,,,,,,,,0,,,69,62
911520,note_on,480,0,1,,,,,,,,,0,,,80,0
911520,note_on,0,0,4,,,,,,,,,3,,,41,88
911520,note_on,0,0,3,,,,,,,,,2,,,53,88
911520,note_on,480,0,3,,,,,,,,,2,,,52,0
911520,note_on,480,0,4,,,,,,,,,3,,,40,0
911520,note_on,0,0,1,,,,,,,,,0,,,81,62
911520,note_on,0,0,1,,,,,,,,,0,,,68,0
912000,note_on,0,0,1,,,,,,,,,0,,,69,0
912000,note_on,480,0,4,,,,,,,,,3,,,41,0
912000,note_on,0,0,4,,,,,,,,,3,,,44,114
912000,note_on,0,0,2,,,,,,,,,1,,,60,0
912000,note_on,0,0,2,,,,,,,,,1,,,60,88
912000,note_on,0,0,2,,,,,,,,,1,,,72,88
912000,note_on,480,0,1,,,,,,,,,0,,,81,0
912000,note_on,480,0,3,,,,,,,,,2,,,53,0
912000,note_on,960,0,2,,,,,,,,,1,,,72,0
912000,note_on,0,0,1,,,,,,,,,0,,,76,88
912000,note_on,0,0,1,,,,,,,,,0,,,64,88
912000,note_on,0,0,3,,,,,,,,,2,,,56,114
912480,note_on,480,0,3,,,,,,,,,2,,,56,0
912480,note_on,0,0,1,,,,,,,,,0,,,65,62
912480,note_on,0,0,1,,,,,,,,,0,,,77,62
912480,note_on,480,0,1,,,,,,,,,0,,,76,0
912480,note_on,0,0,3,,,,,,,,,2,,,57,88
912480,note_on,0,0,4,,,,,,,,,3,,,45,88
912480,note_on,480,0,4,,,,,,,,,3,,,44,0
912480,note_on,0,0,1,,,,,,,,,0,,,64,0
912960,note_on,0,0,3,,,,,,,,,2,,,60,88
912960,note_on,0,0,2,,,,,,,,,1,,,72,88
912960,note_on,480,0,3,,,,,,,,,2,,,57,0
912960,note_on,0,0,2,,,,,,,,,1,,,67,88
912960,note_on,0,0,4,,,,,,,,,3,,,46,88
912960,note_on,960,0,2,,,,,,,,,1,,,72,0
912960,note_on,480,0,1,,,,,,,,,0,,,77,0
912960,note_on,0,0,1,,,,,,,,,0,,,65,0
912960,note_on,0,0,1,,,,,,,,,0,,,79,114
912960,note_on,0,0,2,,,,,,,,,1,,,60,0
912960,note_on,480,0,4,,,,,,,,,3,,,45,0
912960,note_on,0,0,4,,,,,,,,,3,,,58,88
913680,note_on,720,0,1,,,,,,,,,0,,,79,0
913680,note_on,0,0,1,,,,,,,,,0,,,81,88
913920,note_on,240,0,1,,,,,,,,,0,,,81,0
913920,note_on,0,0,1,,,,,,,,,0,,,79,88
914160,note_on,240,0,1,,,,,,,,,0,,,79,0
914160,note_on,0,0,1,,,,,,,,,0,,,77,88
914400,note_on,1440,0,4,,,,,,,,,3,,,58,0
914400,note_on,1440,0,2,,,,,,,,,1,,,72,0
914400,note_on,0,0,4,,,,,,,,,3,,,46,0
914400,note_on,0,0,4,,,,,,,,,3,,,45,62
914400,note_on,0,0,4,,,,,,,,,3,,,57,62
914400,note_on,240,0,1,,,,,,,,,0,,,77,0
914400,note_on,0,0,1,,,,,,,,,0,,,76,75
914400,note_on,0,0,2,,,,,,,,,1,,,65,62
914400,note_on,0,0,2,,,,,,,,,1,,,67,0
914640,note_on,0,0,1,,,,,,,,,0,,,74,75
914640,note_on,240,0,1,,,,,,,,,0,,,76,0
914820,note_on,180,0,1,,,,,,,,,0,,,74,75
914880,note_on,480,0,2,,,,,,,,,1,,,65,0
914880,control_change,0,0,2,,,,,,,,,1,64,127,,
914880,note_on,0,0,2,,,,,,,,,1,,,64,62
914880,note_on,0,0,3,,,,,,,,,2,,,60,62
914880,note_on,0,0,3,,,,,,,,,2,,,55,62
914880,note_on,1920,0,3,,,,,,,,,2,,,60,0
914880,note_on,480,0,4,,,,,,,,,3,,,57,0
914880,note_on,0,0,4,,,,,,,,,3,,,45,0
914880,note_on,0,0,4,,,,,,,,,3,,,43,62
914880,note_on,60,0,1,,,,,,,,,0,,,74,0
914880,note_on,0,0,1,,,,,,,,,0,,,74,0
914880,note_on,0,0,1,,,,,,,,,0,,,72,75
914927,note_on,47,0,3,,,,,,,,,2,,,60,0
914927,note_on,47,0,1,,,,,,,,,0,,,72,0
914927,note_on,0,0,3,,,,,,,,,2,,,55,0
914927,note_on,47,0,4,,,,,,,,,3,,,43,0
915120,note_on,0,0,2,,,,,,,,,1,,,67,62
915120,note_on,240,0,2,,,,,,,,,1,,,64,0
915360,note_on,0,0,3,,,,,,,,,2,,,60,62
915360,note_on,433,0,3,,,,,,,,,2,,,55,62
915360,note_on,433,0,1,,,,,,,,,0,,,72,75
915360,note_on,433,0,4,,,,,,,,,3,,,43,62
915360,note_on,0,0,2,,,,,,,,,1,,,64,62
915360,note_on,240,0,2,,,,,,,,,1,,,67,0
915407,note_on,47,0,3,,,,,,,,,2,,,60,0
915407,note_on,47,0,1,,,,,,,,,0,,,72,0
915407,note_on,0,0,3,,,,,,,,,2,,,55,0
915407,note_on,47,0,4,,,,,,,,,3,,,43,0
915600,note_on,0,0,2,,,,,,,,,1,,,67,62
915600,note_on,240,0,2,,,,,,,,,1,,,64,0
915780,note_on,373,0,1,,,,,,,,,0,,,72,75
915840,note_on,60,0,1,,,,,,,,,0,,,72,0
915840,note_on,0,0,1,,,,,,,,,0,,,71,75
915840,note_on,240,0,2,,,,,,,,,1,,,67,0
915840,note_on,433,0,3,,,,,,,,,2,,,55,62
915840,note_on,0,0,3,,,,,,,,,2,,,62,62
915840,note_on,0,0,2,,,,,,,,,1,,,65,62
915840,note_on,433,0,4,,,,,,,,,3,,,43,62
915887,note_on,0,0,3,,,,,,,,,2,,,55,0
915887,note_on,47,0,4,,,,,,,,,3,,,43,0
915887,note_on,47,0,3,,,,,,,,,2,,,62,0
915887,note_on,47,0,1,,,,,,,,,0,,,71,0
916080,note_on,0,0,2,,,,,,,,,1,,,67,62
916080,note_on,240,0,2,,,,,,,,,1,,,65,0
916320,note_on,433,0,3,,,,,,,,,2,,,55,62
916320,note_on,0,0,2,,,,,,,,,1,,,65,62
916320,note_on,240,0,2,,,,,,,,,1,,,67,0
916320,note_on,433,0,1,,,,,,,,,0,,,71,75
916320,note_on,0,0,3,,,,,,,,,2,,,62,62
916320,note_on,433,0,4,,,,,,,,,3,,,43,62
916367,note_on,47,0,3,,,,,,,,,2,,,62,0
916367,note_on,47,0,4,,,,,,,,,3,,,43,0
916367,note_on,0,0,3,,,,,,,,,2,,,55,0
916367,note_on,47,0,1,,,,,,,,,0,,,71,0
916560,note_on,240,0,2,,,,,,,,,1,,,65,0
916560,note_on,0,0,2,,,,,,,,,1,,,67,62
916800,note_on,433,0,4,,,,,,,,,3,,,36,88
916800,note_on,0,0,4,,,,,,,,,3,,,48,88
916800,note_on,433,0,1,,,,,,,,,0,,,72,88
916800,note_on,240,0,2,,,,,,,,,1,,,67,0
916800,control_change,0,0,2,,,,,,,,,1,64,0,,
916800,note_on,0,0,2,,,,,,,,,1,,,64,62
916800,note_on,0,0,3,,,,,,,,,2,,,60,88
916800,note_on,433,0,3,,,,,,,,,2,,,55,88
917040,note_on,240,0,2,,,,,,,,,1,,,64,0
917280,note_on,480,0,1,,,,,,,,,0,,,72,0
917280,note_on,0,0,3,,,,,,,,,2,,,55,0
917280,note_on,480,0,3,,,,,,,,,2,,,60,0
917280,control_change,240,0,2,,,,,,,,,1,64,127,,
917280,note_on,0,0,2,,,,,,,,,1,,,60,88
917520,note_on,0,0,2,,,,,,,,,1,,,62,88
917520,note_on,240,0,2,,,,,,,,,1,,,60,0
917760,note_on,0,0,2,,,,,,,,,1,,,64,88
917760,note_on,240,0,2,,,,,,,,,1,,,62,0
918000,note_on,240,0,2,,,,,,,,,1,,,64,0
918000,note_on,0,0,2,,,,,,,,,1,,,65,88
918240,note_on,0,0,4,,,,,,,,,3,,,36,0
918240,note_on,1440,0,4,,,,,,,,,3,,,48,0
918240,note_on,0,0,2,,,,,,,,,1,,,67,88
918240,note_on,0,0,4,,,,,,,,,3,,,40,88
918240,note_on,240,0,2,,,,,,,,,1,,,65,0
918240,note_on,0,0,4,,,,,,,,,3,,,52,88
918480,note_on,240,0,2,,,,,,,,,1,,,67,0
918480,control_change,0,0,2,,,,,,,,,1,64,0,,
918480,note_on,0,0,2,,,,,,,,,1,,,64,88
918720,note_on,480,0,4,,,,,,,,,3,,,52,0
918720,note_on,0,0,4,,,,,,,,,3,,,40,0
918720,note_on,240,0,2,,,,,,,,,1,,,64,0
918720,note_on,0,0,2,,,,,,,,,1,,,61,88
918720,note_on,0,0,4,,,,,,,,,3,,,34,114
918720,note_on,1440,0,1,,,,,,,,,0,,,85,88
918720,note_on,0,0,4,,,,,,,,,3,,,46,114
918960,note_on,240,0,2,,,,,,,,,1,,,61,0
919200,note_on,1920,0,3,,,,,,,,,2,,,49,88
919200,note_on,0,0,4,,,,,,,,,3,,,34,0
919200,note_on,240,0,2,,,,,,,,,1,,,73,88
919200,note_on,0,0,4,,,,,,,,,3,,,45,88
919200,note_on,0,0,3,,,,,,,,,2,,,57,88
919200,note_on,0,0,3,,,,,,,,,2,,,52,88
919200,note_on,480,0,4,,,,,,,,,3,,,46,0
919200,note_on,0,0,4,,,,,,,,,3,,,33,88
919247,note_on,0,0,3,,,,,,,,,2,,,49,0
919247,note_on,0,0,3,,,,,,,,,2,,,52,0
919247,note_on,47,0,3,,,,,,,,,2,,,57,0
919680,note_on,0,0,4,,,,,,,,,3,,,33,0
919680,note_on,433,0,3,,,,,,,,,2,,,52,88
919680,note_on,0,0,3,,,,,,,,,2,,,57,88
919680,note_on,0,0,3,,,,,,,,,2,,,61,88
919680,note_on,480,0,4,,,,,,,,,3,,,45,0
919727,note_on,47,0,3,,,,,,,,,2,,,61,0
919727,note_on,0,0,3,,,,,,,,,2,,,52,0
919727,note_on,0,0,3,,,,,,,,,2,,,57,0
920160,note_on,0,0,3,,,,,,,,,2,,,64,88
920160,note_on,0,0,1,,,,,,,,,0,,,88,88
920160,note_on,0,0,3,,,,,,,,,2,,,61,88
920160,note_on,0,0,2,,,,,,,,,1,,,76,88
920160,note_on,960,0,2,,,,,,,,,1,,,73,0
920160,note_on,433,0,3,,,,,,,,,2,,,57,88
920160,note_on,1440,0,1,,,,,,,,,0,,,85,0
920207,note_on,0,0,3,,,,,,,,,2,,,57,0
920207,note_on,47,0,3,,,,,,,,,2,,,64,0
920207,note_on,47,0,2,,,,,,,,,1,,,76,0
920207,note_on,0,0,3,,,,,,,,,2,,,61,0
920640,note_on,0,0,3,,,,,,,,,2,,,67,114
920640,note_on,433,0,3,,,,,,,,,2,,,64,114
920640,note_on,960,0,4,,,,,,,,,3,,,38,88
920640,note_on,0,0,4,,,,,,,,,3,,,50,88
920640,note_on,0,0,4,,,,,,,,,3,,,57,88
920640,note_on,433,0,2,,,,,,,,,1,,,70,114
920640,note_on,0,0,1,,,,,,,,,0,,,82,114
920640,note_on,480,0,1,,,,,,,,,0,,,88,0
921120,note_on,480,0,3,,,,,,,,,2,,,67,0
921120,note_on,0,0,2,,,,,,,,,1,,,69,88
921120,note_on,0,0,3,,,,,,,,,2,,,62,88
921120,note_on,0,0,3,,,,,,,,,2,,,65,88
921120,note_on,0,0,3,,,,,,,,,2,,,64,0
921120,note_on,0,0,1,,,,,,,,,0,,,81,88
921120,note_on,480,0,1,,,,,,,,,0,,,82,0
921120,note_on,480,0,2,,,,,,,,,1,,,70,0
921600,note_on,0,0,3,,,,,,,,,2,,,62,0
921600,note_on,480,0,1,,,,,,,,,0,,,81,0
921600,note_on,0,0,2,,,,,,,,,1,,,69,88
921600,control_change,0,0,2,,,,,,,,,1,64,127,,
921600,note_on,480,0,2,,,,,,,,,1,,,69,0
921600,note_on,480,0,3,,,,,,,,,2,,,65,0
921840,note_on,0,0,2,,,,,,,,,1,,,67,88
921840,note_on,240,0,2,,,,,,,,,1,,,69,0
922080,note_on,0,0,4,,,,,,,,,3,,,50,0
922080,note_on,1440,0,4,,,,,,,,,3,,,57,0
922080,note_on,0,0,2,,,,,,,,,1,,,65,88
922080,note_on,0,0,4,,,,,,,,,3,,,41,88
922080,note_on,240,0,2,,,,,,,,,1,,,67,0
922080,note_on,0,0,4,,,,,,,,,3,,,53,88
922080,note_on,0,0,4,,,,,,,,,3,,,38,0
922320,note_on,0,0,2,,,,,,,,,1,,,64,88
922320,note_on,240,0,2,,,,,,,,,1,,,65,0
922560,note_on,0,0,2,,,,,,,,,1,,,63,88
922560,control_change,0,0,2,,,,,,,,,1,64,0,,
922560,note_on,240,0,2,,,,,,,,,1,,,64,0
922560,note_on,480,0,4,,,,,,,,,3,,,53,0
922560,note_on,0,0,4,,,,,,,,,3,,,41,0
922560,note_on,0,0,4,,,,,,,,,3,,,36,88
922560,note_on,0,0,4,,,,,,,,,3,,,48,88
922560,note_on,960,0,1,,,,,,,,,0,,,87,88
922800,note_on,240,0,2,,,,,,,,,1,,,63,0
923040,note_on,0,0,3,,,,,,,,,2,,,59,88
923040,note_on,0,0,3,,,,,,,,,2,,,54,88
923040,note_on,1440,0,3,,,,,,,,,2,,,51,88
923040,note_on,0,0,4,,,,,,,,,3,,,35,88
923040,note_on,0,0,4,,,,,,,,,3,,,47,88
923040,note_on,480,0,4,,,,,,,,,3,,,48,0
923040,note_on,240,0,2,,,,,,,,,1,,,75,88
923040,note_on,0,0,4,,,,,,,,,3,,,36,0
923087,note_on,0,0,3,,,,,,,,,2,,,54,0
923087,note_on,47,0,3,,,,,,,,,2,,,59,0
923087,note_on,0,0,3,,,,,,,,,2,,,51,0
923520,note_on,480,0,4,,,,,,,,,3,,,47,0
923520,note_on,0,0,4,,,,,,,,,3,,,35,0
923520,note_on,433,0,3,,,,,,,,,2,,,54,88
923520,note_on,0,0,3,,,,,,,,,2,,,63,88
923520,note_on,0,0,3,,,,,,,,,2,,,59,88
923567,note_on,0,0,3,,,,,,,,,2,,,59,0
923567,note_on,0,0,3,,,,,,,,,2,,,54,0
923567,note_on,47,0,3,,,,,,,,,2,,,63,0
924000,note_on,433,0,3,,,,,,,,,2,,,59,88
924000,note_on,960,0,2,,,,,,,,,1,,,75,0
924000,note_on,0,0,2,,,,,,,,,1,,,78,88
924000,note_on,0,0,1,,,,,,,,,0,,,90,88
924000,note_on,1440,0,1,,,,,,,,,0,,,87,0
924000,note_on,0,0,3,,,,,,,,,2,,,63,88
924000,note_on,0,0,3,,,,,,,,,2,,,66,88
924047,note_on,47,0,3,,,,,,,,,2,,,66,0
924047,note_on,47,0,2,,,,,,,,,1,,,78,0
924047,note_on,0,0,3,,,,,,,,,2,,,63,0
924047,note_on,0,0,3,,,,,,,,,2,,,59,0
924480,note_on,0,0,1,,,,,,,,,0,,,84,114
924480,note_on,480,0,1,,,,,,,,,0,,,90,0
924480,note_on,433,0,2,,,,,,,,,1,,,72,114
924480,note_on,0,0,3,,,,,,,,,2,,,69,114
924480,note_on,0,0,3,,,,,,,,,2,,,66,114
924480,note_on,433,0,3,,,,,,,,,2,,,59,114
924960,note_on,480,0,2,,,,,,,,,1,,,72,0
924960,note_on,0,0,2,,,,,,,,,1,,,71,88
924960,note_on,0,0,3,,,,,,,,,2,,,67,88
924960,note_on,0,0,1,,,,,,,,,0,,,83,88
924960,note_on,480,0,1,,,,,,,,,0,,,84,0
924960,note_on,0,0,4,,,,,,,,,3,,,52,88
924960,note_on,0,0,3,,,,,,,,,2,,,66,0
924960,note_on,480,0,3,,,,,,,,,2,,,69,0
924960,note_on,1440,0,4,,,,,,,,,3,,,40,88
925007,note_on,47,0,4,,,,,,,,,3,,,52,0
925007,note_on,0,0,4,,,,,,,,,3,,,40,0
925200,note_on,240,0,3,,,,,,,,,2,,,67,0
925200,note_on,0,0,3,,,,,,,,,2,,,59,0
925440,note_on,480,0,2,,,,,,,,,1,,,71,0
925440,note_on,0,0,4,,,,,,,,,3,,,55,88
925440,note_on,480,0,1,,,,,,,,,0,,,83,0
925440,note_on,433,0,4,,,,,,,,,3,,,43,88
925487,note_on,0,0,4,,,,,,,,,3,,,43,0
925487,note_on,47,0,4,,,,,,,,,3,,,55,0
925920,note_on,720,0,3,,,,,,,,,2,,,59,88
925920,note_on,433,0,4,,,,,,,,,3,,,47,88
925967,note_on,47,0,3,,,,,,,,,2,,,59,0
925967,note_on,47,0,4,,,,,,,,,3,,,47,0
926400,note_on,433,0,3,,,,,,,,,2,,,65,114
926400,note_on,433,0,4,,,,,,,,,3,,,53,114
926880,note_on,0,0,1,,,,,,,,,0,,,71,88
926880,note_on,0,0,4,,,,,,,,,3,,,52,88
926880,note_on,480,0,4,,,,,,,,,3,,,53,0
926880,note_on,0,0,3,,,,,,,,,2,,,64,88
926880,note_on,480,0,3,,,,,,,,,2,,,65,0
926880,note_on,1440,0,1,,,,,,,,,0,,,68,88
926880,note_on,0,0,1,,,,,,,,,0,,,76,88
926927,note_on,47,0,1,,,,,,,,,0,,,76,0
926927,note_on,0,0,1,,,,,,,,,0,,,71,0
926927,note_on,0,0,1,,,,,,,,,0,,,68,0
927360,note_on,433,0,1,,,,,,,,,0,,,71,88
927360,note_on,0,0,1,,,,,,,,,0,,,80,88
927360,note_on,480,0,4,,,,,,,,,3,,,52,0
927360,note_on,480,0,3,,,,,,,,,2,,,64,0
927360,note_on,0,0,1,,,,,,,,,0,,,76,88
927407,note_on,0,0,1,,,,,,,,,0,,,76,0
927407,note_on,47,0,1,,,,,,,,,0,,,80,0
927407,note_on,0,0,1,,,,,,,,,0,,,71,0
927840,note_on,0,0,2,,,,,,,,,1,,,68,88
927840,note_on,0,0,2,,,,,,,,,1,,,71,88
927840,note_on,0,0,1,,,,,,,,,0,,,80,88
927840,note_on,433,0,1,,,,,,,,,0,,,76,88
927840,note_on,0,0,1,,,,,,,,,0,,,83,88
927840,note_on,2400,0,2,,,,,,,,,1,,,64,88
927887,note_on,0,0,2,,,,,,,,,1,,,64,0
927887,note_on,0,0,2,,,,,,,,,1,,,68,0
927887,note_on,47,0,2,,,,,,,,,1,,,71,0
927887,note_on,47,0,1,,,,,,,,,0,,,83,0
927887,note_on,0,0,1,,,,,,,,,0,,,80,0
927887,note_on,0,0,1,,,,,,,,,0,,,76,0
928320,note_on,0,0,2,,,,,,,,,1,,,76,114
928320,note_on,433,0,2,,,,,,,,,1,,,64,114
928320,note_on,433,0,1,,,,,,,,,0,,,71,114
928320,note_on,0,0,1,,,,,,,,,0,,,74,114
928320,note_on,0,0,1,,,,,,,,,0,,,83,114
928320,note_on,0,0,1,,,,,,,,,0,,,86,114
928800,note_on,0,0,1,,,,,,,,,0,,,71,0
928800,note_on,480,0,1,,,,,,,,,0,,,86,0
928800,note_on,0,0,1,,,,,,,,,0,,,83,0
928800,note_on,0,0,1,,,,,,,,,0,,,69,88
928800,note_on,0,0,1,,,,,,,,,0,,,72,88
928800,note_on,0,0,1,,,,,,,,,0,,,81,88
928800,note_on,1440,0,4,,,,,,,,,3,,,45,88
928800,note_on,1440,0,3,,,,,,,,,2,,,57,88
928800,note_on,0,0,1,,,,,,,,,0,,,74,0
928800,note_on,0,0,1,,,,,,,,,0,,,84,88
928847,note_on,47,0,3,,,,,,,,,2,,,57,0
928847,note_on,47,0,4,,,,,,,,,3,,,45,0
929280,note_on,960,0,2,,,,,,,,,1,,,76,0
929280,note_on,0,0,1,,,,,,,,,0,,,81,0
929280,note_on,433,0,3,,,,,,,,,2,,,59,88
929280,note_on,0,0,1,,,,,,,,,0,,,69,0
929280,note_on,480,0,1,,,,,,,,,0,,,84,0
929280,note_on,433,0,4,,,,,,,,,3,,,47,88
929280,note_on,0,0,1,,,,,,,,,0,,,72,0
929280,note_on,0,0,2,,,,,,,,,1,,,64,0
929327,note_on,47,0,4,,,,,,,,,3,,,47,0
929327,note_on,47,0,3,,,,,,,,,2,,,59,0
929760,note_on,433,0,3,,,,,,,,,2,,,60,88
929760,note_on,433,0,4,,,,,,,,,3,,,48,88
929807,note_on,47,0,4,,,,,,,,,3,,,48,0
929807,note_on,47,0,3,,,,,,,,,2,,,60,0
930240,note_on,433,0,4,,,,,,,,,3,,,51,114
930240,note_on,433,0,3,,,,,,,,,2,,,63,114
930720,note_on,480,0,4,,,,,,,,,3,,,51,0
930720,note_on,480,0,3,,,,,,,,,2,,,63,0
930720,note_on,0,0,3,,,,,,,,,2,,,62,88
930720,note_on,1440,0,1,,,,,,,,,0,,,66,88
930720,note_on,0,0,1,,,,,,,,,0,,,69,88
930720,note_on,0,0,1,,,,,,,,,0,,,74,88
930720,note_on,0,0,4,,,,,,,,,3,,,50,88
930767,note_on,47,0,1,,,,,,,,,0,,,74,0
930767,note_on,0,0,1,,,,,,,,,0,,,69,0
930767,note_on,0,0,1,,,,,,,,,0,,,66,0
931200,note_on,480,0,3,,,,,,,,,2,,,62,0
931200,note_on,0,0,1,,,,,,,,,0,,,78,88
931200,note_on,480,0,4,,,,,,,,,3,,,50,0
931200,note_on,0,0,1,,,,,,,,,0,,,74,88
931200,note_on,433,0,1,,,,,,,,,0,,,69,88
931247,note_on,47,0,1,,,,,,,,,0,,,78,0
931247,note_on,0,0,1,,,,,,,,,0,,,74,0
931247,note_on,0,0,1,,,,,,,,,0,,,69,0
931680,note_on,433,0,1,,,,,,,,,0,,,74,88
931680,note_on,0,0,1,,,,,,,,,0,,,78,88
931680,note_on,0,0,1,,,,,,,,,0,,,81,88
931680,note_on,0,0,2,,,,,,,,,1,,,66,88
931680,note_on,2400,0,2,,,,,,,,,1,,,62,88
931680,note_on,0,0,2,,,,,,,,,1,,,69,88
931727,note_on,47,0,2,,,,,,,,,1,,,69,0
931727,note_on,0,0,2,,,,,,,,,1,,,66,0
931727,note_on,0,0,1,,,,,,,,,0,,,74,0
931727,note_on,47,0,1,,,,,,,,,0,,,81,0
931727,note_on,0,0,1,,,,,,,,,0,,,78,0
931727,note_on,0,0,2,,,,,,,,,1,,,62,0
932160,note_on,433,0,2,,,,,,,,,1,,,62,114
932160,note_on,0,0,2,,,,,,,,,1,,,74,114
932160,note_on,0,0,1,,,,,,,,,0,,,72,114
932160,note_on,0,0,1,,,,,,,,,0,,,81,114
932160,note_on,433,0,1,,,,,,,,,0,,,69,114
932160,note_on,0,0,1,,,,,,,,,0,,,84,114
932640,note_on,480,0,1,,,,,,,,,0,,,84,0
932640,note_on,1440,0,3,,,,,,,,,2,,,43,88
932640,note_on,0,0,1,,,,,,,,,0,,,83,88
932640,note_on,0,0,1,,,,,,,,,0,,,79,88
932640,note_on,1440,0,4,,,,,,,,,3,,,31,88
932640,note_on,0,0,1,,,,,,,,,0,,,81,0
932640,note_on,0,0,1,,,,,,,,,0,,,72,0
932640,note_on,0,0,1,,,,,,,,,0,,,69,0
932687,note_on,47,0,3,,,,,,,,,2,,,43,0
932687,note_on,47,0,4,,,,,,,,,3,,,31,0
933120,note_on,0,0,1,,,,,,,,,0,,,79,0
933120,note_on,480,0,1,,,,,,,,,0,,,83,0
933120,note_on,433,0,3,,,,,,,,,2,,,47,88
933120,note_on,433,0,4,,,,,,,,,3,,,35,88
933120,note_on,0,0,2,,,,,,,,,1,,,62,0
933120,note_on,960,0,2,,,,,,,,,1,,,74,0
933167,note_on,47,0,4,,,,,,,,,3,,,35,0
933167,note_on,47,0,3,,,,,,,,,2,,,47,0
933600,note_on,433,0,4,,,,,,,,,3,,,38,88
933600,note_on,433,0,3,,,,,,,,,2,,,50,88
933647,note_on,47,0,4,,,,,,,,,3,,,38,0
933647,note_on,47,0,3,,,,,,,,,2,,,50,0
934080,note_on,433,0,4,,,,,,,,,3,,,43,114
934080,note_on,433,0,3,,,,,,,,,2,,,55,114
934560,note_on,0,0,1,,,,,,,,,0,,,74,88
934560,note_on,480,0,3,,,,,,,,,2,,,55,0
934560,note_on,0,0,3,,,,,,,,,2,,,56,88
934560,note_on,0,0,1,,,,,,,,,0,,,71,88
934560,note_on,480,0,4,,,,,,,,,3,,,43,0
934560,note_on,0,0,4,,,,,,,,,3,,,44,88
934560,note_on,1440,0,1,,,,,,,,,0,,,65,88
934607,note_on,0,0,1,,,,,,,,,0,,,71,0
934607,note_on,0,0,1,,,,,,,,,0,,,65,0
934607,note_on,47,0,1,,,,,,,,,0,,,74,0
935040,note_on,0,0,1,,,,,,,,,0,,,77,88
935040,note_on,0,0,1,,,,,,,,,0,,,74,88
935040,note_on,480,0,3,,,,,,,,,2,,,56,0
935040,note_on,433,0,1,,,,,,,,,0,,,71,88
935040,note_on,480,0,4,,,,,,,,,3,,,44,0
935087,note_on,0,0,1,,,,,,,,,0,,,74,0
935087,note_on,47,0,1,,,,,,,,,0,,,77,0
935087,note_on,0,0,1,,,,,,,,,0,,,71,0
935520,note_on,433,0,1,,,,,,,,,0,,,74,88
935520,note_on,0,0,1,,,,,,,,,0,,,77,88
935520,note_on,0,0,1,,,,,,,,,0,,,83,88
935520,note_on,2400,0,2,,,,,,,,,1,,,62,88
935520,note_on,0,0,2,,,,,,,,,1,,,65,88
935520,note_on,0,0,2,,,,,,,,,1,,,71,88
935567,note_on,0,0,2,,,,,,,,,1,,,65,0
935567,note_on,0,0,2,,,,,,,,,1,,,62,0
935567,note_on,47,0,1,,,,,,,,,0,,,83,0
935567,note_on,0,0,1,,,,,,,,,0,,,77,0
935567,note_on,0,0,1,,,,,,,,,0,,,74,0
935567,note_on,47,0,2,,,,,,,,,1,,,71,0
936000,note_on,433,0,1,,,,,,,,,0,,,77,114
936000,note_on,0,0,1,,,,,,,,,0,,,83,114
936000,note_on,0,0,1,,,,,,,,,0,,,86,114
936000,note_on,0,0,2,,,,,,,,,1,,,74,114
936000,note_on,0,0,2,,,,,,,,,1,,,71,114
936000,note_on,433,0,2,,,,,,,,,1,,,65,114
936480,note_on,1440,0,3,,,,,,,,,2,,,57,88
936480,note_on,0,0,1,,,,,,,,,0,,,84,88
936480,note_on,1440,0,4,,,,,,,,,3,,,45,88
936480,note_on,0,0,2,,,,,,,,,1,,,65,0
936480,note_on,480,0,2,,,,,,,,,1,,,74,0
936480,note_on,0,0,1,,,,,,,,,0,,,76,88
936480,note_on,0,0,1,,,,,,,,,0,,,77,0
936480,note_on,0,0,1,,,,,,,,,0,,,83,0
936480,note_on,480,0,1,,,,,,,,,0,,,86,0
936480,note_on,0,0,2,,,,,,,,,1,,,71,0
936480,note_on,0,0,2,,,,,,,,,1,,,64,88
936480,note_on,0,0,2,,,,,,,,,1,,,72,88
936527,note_on,47,0,4,,,,,,,,,3,,,45,0
936527,note_on,47,0,3,,,,,,,,,2,,,57,0
936960,note_on,433,0,4,,,,,,,,,3,,,47,88
936960,note_on,433,0,3,,,,,,,,,2,,,59,88
936960,note_on,0,0,2,,,,,,,,,1,,,64,0
936960,note_on,480,0,1,,,,,,,,,0,,,84,0
936960,note_on,0,0,1,,,,,,,,,0,,,76,0
936960,note_on,0,0,1,,,,,,,,,0,,,87,88
936960,note_on,0,0,2,,,,,,,,,1,,,75,88
936960,note_on,480,0,2,,,,,,,,,1,,,72,0
937440,note_on,480,0,4,,,,,,,,,3,,,47,0
937440,note_on,480,0,2,,,,,,,,,1,,,75,0
937440,note_on,0,0,3,,,,,,,,,2,,,60,88
937440,note_on,480,0,3,,,,,,,,,2,,,59,0
937440,note_on,0,0,2,,,,,,,,,1,,,76,88
937440,note_on,480,0,1,,,,,,,,,0,,,87,0
937440,note_on,0,0,1,,,,,,,,,0,,,88,88
937440,note_on,0,0,4,,,,,,,,,3,,,48,88
937920,note_on,0,0,4,,,,,,,,,3,,,40,88
937920,note_on,480,0,4,,,,,,,,,3,,,48,0
937920,note_on,0,0,2,,,,,,,,,1,,,72,88
937920,note_on,0,0,1,,,,,,,,,0,,,80,88
937920,note_on,0,0,3,,,,,,,,,2,,,52,88
937920,note_on,480,0,3,,,,,,,,,2,,,60,0
937920,note_on,480,0,2,,,,,,,,,1,,,76,0
937920,note_on,480,0,1,,,,,,,,,0,,,88,0
937920,note_on,0,0,1,,,,,,,,,0,,,68,88
937920,note_on,0,0,2,,,,,,,,,1,,,60,88
938400,note_on,0,0,4,,,,,,,,,3,,,41,88
938400,note_on,480,0,4,,,,,,,,,3,,,40,0
938400,note_on,0,0,1,,,,,,,,,0,,,68,0
938400,note_on,0,0,1,,,,,,,,,0,,,81,88
938400,note_on,0,0,1,,,,,,,,,0,,,69,88
938400,note_on,480,0,3,,,,,,,,,2,,,52,0
938400,note_on,0,0,3,,,,,,,,,2,,,53,88
938400,note_on,480,0,1,,,,,,,,,0,,,80,0
938880,note_on,0,0,3,,,,,,,,,2,,,56,88
938880,note_on,480,0,3,,,,,,,,,2,,,53,0
938880,note_on,0,0,2,,,,,,,,,1,,,72,88
938880,note_on,480,0,4,,,,,,,,,3,,,41,0
938880,note_on,0,0,1,,,,,,,,,0,,,69,0
938880,note_on,0,0,1,,,,,,,,,0,,,64,88
938880,note_on,0,0,1,,,,,,,,,0,,,76,88
938880,note_on,0,0,2,,,,,,,,,1,,,60,0
938880,note_on,0,0,2,,,,,,,,,1,,,60,88
938880,note_on,480,0,1,,,,,,,,,0,,,81,0
938880,note_on,960,0,2,,,,,,,,,1,,,72,0
938880,note_on,0,0,4,,,,,,,,,3,,,44,88
939360,note_on,480,0,4,,,,,,,,,3,,,44,0
939360,note_on,0,0,4,,,,,,,,,3,,,45,88
939360,note_on,480,0,1,,,,,,,,,0,,,76,0
939360,note_on,0,0,3,,,,,,,,,2,,,57,88
939360,note_on,480,0,3,,,,,,,,,2,,,56,0
939360,note_on,0,0,1,,,,,,,,,0,,,77,88
939360,note_on,0,0,1,,,,,,,,,0,,,65,88
939360,note_on,0,0,1,,,,,,,,,0,,,64,0
939840,note_on,480,0,4,,,,,,,,,3,,,45,0
939840,note_on,0,0,4,,,,,,,,,3,,,46,88
939840,note_on,0,0,2,,,,,,,,,1,,,60,0
939840,note_on,0,0,2,,,,,,,,,1,,,60,88
939840,note_on,960,0,2,,,,,,,,,1,,,72,0
939840,note_on,480,0,1,,,,,,,,,0,,,77,0
939840,note_on,0,0,2,,,,,,,,,1,,,67,88
939840,note_on,480,0,3,,,,,,,,,2,,,57,0
939840,note_on,0,0,3,,,,,,,,,2,,,58,88
939840,note_on,0,0,1,,,,,,,,,0,,,65,0
939840,note_on,0,0,1,,,,,,,,,0,,,79,88
939840,control_change,0,0,1,,,,,,,,,0,64,127,,
940560,note_on,0,0,1,,,,,,,,,0,,,81,62
940560,note_on,720,0,1,,,,,,,,,0,,,79,0
940800,note_on,240,0,1,,,,,,,,,0,,,81,0
940800,note_on,0,0,1,,,,,,,,,0,,,79,62
941040,note_on,0,0,1,,,,,,,,,0,,,77,62
941040,note_on,240,0,1,,,,,,,,,0,,,79,0
941280,note_on,0,0,1,,,,,,,,,0,,,76,62
941280,note_on,240,0,1,,,,,,,,,0,,,77,0
941520,note_on,240,0,1,,,,,,,,,0,,,76,0
941520,note_on,0,0,1,,,,,,,,,0,,,74,62
941760,note_on,1920,0,4,,,,,,,,,3,,,46,0
941760,note_on,0,0,1,,,,,,,,,0,,,73,62
941760,note_on,1920,0,2,,,,,,,,,1,,,67,0
941760,note_on,0,0,2,,,,,,,,,1,,,60,0
941760,note_on,0,0,2,,,,,,,,,1,,,61,49
941760,note_on,0,0,4,,,,,,,,,3,,,45,88
941760,note_on,1920,0,3,,,,,,,,,2,,,58,0
941760,control_change,0,0,3,,,,,,,,,2,64,127,,
941760,note_on,0,0,3,,,,,,,,,2,,,57,62
941760,control_change,0,0,1,,,,,,,,,0,64,0,,
941760,note_on,240,0,1,,,,,,,,,0,,,74,0
941807,note_on,47,0,1,,,,,,,,,0,,,73,0
941807,note_on,47,0,4,,,,,,,,,3,,,45,0
941856,note_on,96,0,3,,,,,,,,,2,,,57,0
942000,note_on,240,0,2,,,,,,,,,1,,,61,0
942000,note_on,0,0,2,,,,,,,,,1,,,69,49
942240,note_on,240,0,2,,,,,,,,,1,,,69,0
942240,note_on,0,0,2,,,,,,,,,1,,,64,49
942240,note_on,433,0,1,,,,,,,,,0,,,73,62
942480,note_on,240,0,2,,,,,,,,,1,,,64,0
942480,note_on,0,0,2,,,,,,,,,1,,,69,49
942660,note_on,420,0,1,,,,,,,,,0,,,73,62
942720,note_on,240,0,2,,,,,,,,,1,,,69,0
942720,note_on,0,0,2,,,,,,,,,1,,,61,49
942720,note_on,913,0,4,,,,,,,,,3,,,43,88
942720,note_on,864,0,3,,,,,,,,,2,,,49,62
942720,note_on,0,0,3,,,,,,,,,2,,,52,62
942720,note_on,0,0,3,,,,,,,,,2,,,57,62
942720,note_on,0,0,1,,,,,,,,,0,,,81,62
942720,note_on,60,0,1,,,,,,,,,0,,,73,0
942767,note_on,47,0,4,,,,,,,,,3,,,43,0
942816,note_on,96,0,3,,,,,,,,,2,,,57,0
942816,note_on,0,0,3,,,,,,,,,2,,,52,0
942816,note_on,0,0,3,,,,,,,,,2,,,49,0
942960,note_on,0,0,2,,,,,,,,,1,,,69,49
942960,note_on,240,0,2,,,,,,,,,1,,,61,0
943200,note_on,240,0,2,,,,,,,,,1,,,69,0
943200,note_on,0,0,2,,,,,,,,,1,,,64,49
943200,note_on,480,0,1,,,,,,,,,0,,,81,0
943200,note_on,0,0,1,,,,,,,,,0,,,73,0
943200,note_on,0,0,1,,,,,,,,,0,,,73,62
943440,note_on,240,0,1,,,,,,,,,0,,,73,0
943440,note_on,240,0,2,,,,,,,,,1,,,64,0
943440,note_on,0,0,2,,,,,,,,,1,,,69,49
943620,note_on,180,0,1,,,,,,,,,0,,,74,62
943680,note_on,864,0,3,,,,,,,,,2,,,50,62
943680,note_on,0,0,2,,,,,,,,,1,,,62,49
943680,note_on,240,0,2,,,,,,,,,1,,,69,0
943680,note_on,60,0,1,,,,,,,,,0,,,81,62
943680,note_on,913,0,4,,,,,,,,,3,,,41,88
943680,note_on,0,0,3,,,,,,,,,2,,,57,62
943680,note_on,0,0,3,,,,,,,,,2,,,53,62
943727,note_on,47,0,4,,,,,,,,,3,,,41,0
943776,note_on,96,0,3,,,,,,,,,2,,,57,0
943776,note_on,0,0,3,,,,,,,,,2,,,53,0
943776,note_on,0,0,3,,,,,,,,,2,,,50,0
943920,note_on,0,0,2,,,,,,,,,1,,,69,49
943920,note_on,240,0,2,,,,,,,,,1,,,62,0
944160,note_on,0,0,2,,,,,,,,,1,,,65,49
944160,note_on,240,0,2,,,,,,,,,1,,,69,0
944160,note_on,480,0,1,,,,,,,,,0,,,81,0
944160,note_on,0,0,1,,,,,,,,,0,,,74,0
944160,note_on,0,0,1,,,,,,,,,0,,,74,62
944400,note_on,240,0,1,,,,,,,,,0,,,74,0
944400,note_on,240,0,2,,,,,,,,,1,,,65,0
944400,note_on,0,0,2,,,,,,,,,1,,,69,49
944580,note_on,180,0,1,,,,,,,,,0,,,76,62
944640,note_on,240,0,2,,,,,,,,,1,,,69,0
944640,note_on,0,0,2,,,,,,,,,1,,,64,49
944640,note_on,60,0,1,,,,,,,,,0,,,81,62
944640,note_on,864,0,3,,,,,,,,,2,,,52,62
944640,note_on,0,0,3,,,,,,,,,2,,,55,62
944640,note_on,0,0,3,,,,,,,,,2,,,57,62
944640,note_on,913,0,4,,,,,,,,,3,,,37,88
944687,note_on,47,0,4,,,,,,,,,3,,,37,0
944736,note_on,0,0,3,,,,,,,,,2,,,52,0
944736,note_on,0,0,3,,,,,,,,,2,,,55,0
944736,note_on,96,0,3,,,,,,,,,2,,,57,0
944880,note_on,0,0,2,,,,,,,,,1,,,69,49
944880,note_on,240,0,2,,,,,,,,,1,,,64,0
945120,note_on,0,0,1,,,,,,,,,0,,,76,62
945120,note_on,0,0,1,,,,,,,,,0,,,76,0
945120,note_on,480,0,1,,,,,,,,,0,,,81,0
945120,note_on,0,0,2,,,,,,,,,1,,,67,49
945120,note_on,240,0,2,,,,,,,,,1,,,69,0
945360,note_on,0,0,2,,,,,,,,,1,,,69,49
945360,note_on,240,0,1,,,,,,,,,0,,,76,0
945360,note_on,240,0,2,,,,,,,,,1,,,67,0
945600,note_on,240,0,2,,,,,,,,,1,,,69,0
945600,control_change,864,0,3,,,,,,,,,2,64,0,,
945600,note_on,0,0,3,,,,,,,,,2,,,50,62
945600,note_on,0,0,3,,,,,,,,,2,,,53,62
945600,note_on,0,0,3,,,,,,,,,2,,,57,62
945600,note_on,913,0,4,,,,,,,,,3,,,38,88
945600,note_on,0,0,2,,,,,,,,,1,,,62,49
945600,note_on,240,0,1,,,,,,,,,0,,,77,62
945647,note_on,0,0,3,,,,,,,,,2,,,50,0
945647,note_on,47,0,3,,,,,,,,,2,,,57,0
945647,note_on,0,0,3,,,,,,,,,2,,,53,0
945647,note_on,47,0,4,,,,,,,,,3,,,38,0
945840,note_on,0,0,2,,,,,,,,,1,,,69,49
945840,note_on,240,0,2,,,,,,,,,1,,,62,0
946080,note_on,0,0,2,,,,,,,,,1,,,65,49
946080,note_on,480,0,1,,,,,,,,,0,,,77,0
946080,control_change,0,0,1,,,,,,,,,0,64,127,,
946080,note_on,0,0,1,,,,,,,,,0,,,81,62
946080,note_on,240,0,2,,,,,,,,,1,,,69,0
946320,note_on,240,0,2,,,,,,,,,1,,,65,0
946320,note_on,0,0,2,,,,,,,,,1,,,69,49
946320,note_on,0,0,1,,,,,,,,,0,,,79,62
946320,note_on,240,0,1,,,,,,,,,0,,,81,0
946560,note_on,240,0,2,,,,,,,,,1,,,69,0
946560,note_on,240,0,1,,,,,,,,,0,,,79,0
946560,note_on,0,0,1,,,,,,,,,0,,,77,62
946560,note_on,913,0,3,,,,,,,,,2,,,53,62
946560,note_on,913,0,4,,,,,,,,,3,,,41,88
946560,note_on,0,0,2,,,,,,,,,1,,,62,49
946607,note_on,47,0,3,,,,,,,,,2,,,53,0
946607,note_on,47,0,4,,,,,,,,,3,,,41,0
946800,note_on,0,0,2,,,,,,,,,1,,,69,49
946800,note_on,240,0,1,,,,,,,,,0,,,77,0
946800,note_on,240,0,2,,,,,,,,,1,,,62,0
946800,note_on,0,0,1,,,,,,,,,0,,,76,62
947040,note_on,240,0,2,,,,,,,,,1,,,69,0
947040,note_on,0,0,1,,,,,,,,,0,,,74,62
947040,note_on,0,0,2,,,,,,,,,1,,,65,49
947040,note_on,240,0,1,,,,,,,,,0,,,76,0
947280,note_on,0,0,2,,,,,,,,,1,,,69,49
947280,note_on,0,0,1,,,,,,,,,0,,,72,62
947280,note_on,240,0,1,,,,,,,,,0,,,74,0
947280,note_on,240,0,2,,,,,,,,,1,,,65,0
947520,note_on,240,0,2,,,,,,,,,1,,,69,0
947520,note_on,913,0,3,,,,,,,,,2,,,55,62
947520,note_on,0,0,2,,,,,,,,,1,,,62,49
947520,note_on,0,0,1,,,,,,,,,0,,,71,62
947520,note_on,913,0,4,,,,,,,,,3,,,43,88
947520,note_on,240,0,1,,,,,,,,,0,,,72,0
947520,control_change,0,0,1,,,,,,,,,0,64,0,,
947567,note_on,47,0,1,,,,,,,,,0,,,71,0
947760,note_on,240,0,2,,,,,,,,,1,,,62,0
947760,note_on,0,0,2,,,,,,,,,1,,,67,49
948000,note_on,0,0,2,,,,,,,,,1,,,65,49
948000,note_on,433,0,1,,,,,,,,,0,,,74,62
948000,note_on,240,0,2,,,,,,,,,1,,,67,0
948000,note_on,480,0,4,,,,,,,,,3,,,43,0
948000,note_on,480,0,3,,,,,,,,,2,,,55,0
948240,note_on,240,0,2,,,,,,,,,1,,,65,0
948240,note_on,240,0,1,,,,,,,,,0,,,74,0
948240,note_on,0,0,2,,,,,,,,,1,,,67,49
948240,note_on,0,0,1,,,,,,,,,0,,,79,62
948480,note_on,240,0,1,,,,,,,,,0,,,79,0
948480,note_on,0,0,1,,,,,,,,,0,,,83,62
948480,note_on,240,0,2,,,,,,,,,1,,,67,0
948480,note_on,0,0,2,,,,,,,,,1,,,62,49
948527,note_on,47,0,1,,,,,,,,,0,,,83,0
948720,note_on,0,0,2,,,,,,,,,1,,,67,49
948720,note_on,240,0,2,,,,,,,,,1,,,62,0
948960,note_on,960,0,3,,,,,,,,,2,,,43,62
948960,note_on,433,0,1,,,,,,,,,0,,,86,62
948960,note_on,0,0,2,,,,,,,,,1,,,65,49
948960,note_on,240,0,2,,,,,,,,,1,,,67,0
948960,note_on,960,0,4,,,,,,,,,3,,,31,88
949007,note_on,47,0,1,,,,,,,,,0,,,86,0
949200,note_on,0,0,2,,,,,,,,,1,,,67,49
949200,note_on,240,0,2,,,,,,,,,1,,,65,0
949440,note_on,0,0,4,,,,,,,,,3,,,36,88
949440,note_on,0,0,2,,,,,,,,,1,,,60,49
949440,note_on,240,0,2,,,,,,,,,1,,,67,0
949440,note_on,480,0,3,,,,,,,,,2,,,43,0
949440,note_on,0,0,3,,,,,,,,,2,,,48,62
949440,note_on,433,0,1,,,,,,,,,0,,,89,62
949440,note_on,480,0,4,,,,,,,,,3,,,31,0
949680,note_on,240,0,2,,,,,,,,,1,,,60,0
949680,note_on,0,0,2,,,,,,,,,1,,,67,49
949920,note_on,480,0,4,,,,,,,,,3,,,36,0
949920,note_on,480,0,1,,,,,,,,,0,,,89,0
949920,note_on,0,0,2,,,,,,,,,1,,,64,49
949920,note_on,0,0,1,,,,,,,,,0,,,88,62
949920,note_on,480,0,3,,,,,,,,,2,,,48,0
949920,note_on,240,0,2,,,,,,,,,1,,,67,0
950160,note_on,240,0,2,,,,,,,,,1,,,64,0
950160,note_on,0,0,2,,,,,,,,,1,,,67,49
950160,note_on,240,0,1,,,,,,,,,0,,,88,0
950400,note_on,240,0,2,,,,,,,,,1,,,67,0
950400,note_on,0,0,2,,,,,,,,,1,,,60,49
950400,note_on,240,0,1,,,,,,,,,0,,,83,62
950400,note_on,480,0,4,,,,,,,,,3,,,39,88
950400,note_on,480,0,3,,,,,,,,,2,,,51,62
950640,note_on,240,0,2,,,,,,,,,1,,,60,0
950640,note_on,0,0,2,,,,,,,,,1,,,72,49
950880,note_on,0,0,1,,,,,,,,,0,,,84,62
950880,note_on,480,0,3,,,,,,,,,2,,,51,0
950880,note_on,480,0,1,,,,,,,,,0,,,83,0
950880,note_on,0,0,3,,,,,,,,,2,,,52,62
950880,note_on,0,0,4,,,,,,,,,3,,,40,88
950880,note_on,480,0,4,,,,,,,,,3,,,39,0
950880,note_on,240,0,2,,,,,,,,,1,,,72,0
950880,note_on,0,0,2,,,,,,,,,1,,,67,49
951120,note_on,240,0,3,,,,,,,,,2,,,52,0
951120,note_on,240,0,1,,,,,,,,,0,,,84,0
951120,note_on,240,0,4,,,,,,,,,3,,,40,0
951120,note_on,240,0,2,,,,,,,,,1,,,67,0
951120,note_on,0,0,2,,,,,,,,,1,,,72,49
951360,note_on,0,0,2,,,,,,,,,1,,,68,49
951360,note_on,240,0,3,,,,,,,,,2,,,52,62
951360,note_on,240,0,4,,,,,,,,,3,,,40,88
951360,note_on,240,0,1,,,,,,,,,0,,,80,62
951360,note_on,240,0,2,,,,,,,,,1,,,72,0
951600,note_on,0,0,2,,,,,,,,,1,,,72,49
951600,note_on,240,0,2,,,,,,,,,1,,,68,0
951840,note_on,480,0,3,,,,,,,,,2,,,52,0
951840,note_on,0,0,3,,,,,,,,,2,,,53,62
951840,note_on,480,0,4,,,,,,,,,3,,,40,0
951840,note_on,0,0,4,,,,,,,,,3,,,41,88
951840,note_on,480,0,1,,,,,,,,,0,,,80,0
951840,note_on,240,0,2,,,,,,,,,1,,,72,0
951840,note_on,0,0,2,,,,,,,,,1,,,69,49
951840,note_on,0,0,1,,,,,,,,,0,,,81,62
952080,note_on,240,0,1,,,,,,,,,0,,,81,0
952080,note_on,240,0,4,,,,,,,,,3,,,41,0
952080,note_on,240,0,2,,,,,,,,,1,,,69,0
952080,note_on,0,0,2,,,,,,,,,1,,,72,49
952080,note_on,240,0,3,,,,,,,,,2,,,53,0
952320,note_on,240,0,2,,,,,,,,,1,,,72,0
952320,note_on,0,0,2,,,,,,,,,1,,,64,49
952320,note_on,240,0,3,,,,,,,,,2,,,56,62
952320,note_on,240,0,4,,,,,,,,,3,,,44,88
952320,note_on,240,0,1,,,,,,,,,0,,,76,62
952560,note_on,0,0,2,,,,,,,,,1,,,72,49
952560,note_on,240,0,2,,,,,,,,,1,,,64,0
952800,note_on,480,0,3,,,,,,,,,2,,,56,0
952800,note_on,0,0,3,,,,,,,,,2,,,57,62
952800,note_on,240,0,2,,,,,,,,,1,,,72,0
952800,note_on,0,0,2,,,,,,,,,1,,,65,49
952800,note_on,0,0,4,,,,,,,,,3,,,45,88
952800,note_on,0,0,1,,,,,,,,,0,,,77,62
952800,note_on,480,0,1,,,,,,,,,0,,,76,0
952800,note_on,480,0,4,,,,,,,,,3,,,44,0
953040,note_on,240,0,3,,,,,,,,,2,,,57,0
953040,note_on,240,0,4,,,,,,,,,3,,,45,0
953040,note_on,0,0,2,,,,,,,,,1,,,72,49
953040,note_on,240,0,2,,,,,,,,,1,,,65,0
953280,note_on,240,0,4,,,,,,,,,3,,,46,114
953280,note_on,0,0,3,,,,,,,,,2,,,60,88
953280,note_on,0,0,2,,,,,,,,,1,,,64,88
953280,note_on,0,0,2,,,,,,,,,1,,,60,88
953280,note_on,240,0,2,,,,,,,,,1,,,72,0
953280,note_on,240,0,3,,,,,,,,,2,,,58,88
953280,note_on,480,0,1,,,,,,,,,0,,,77,0
953280,control_change,0,0,1,,,,,,,,,0,64,127,,
953280,note_on,0,0,1,,,,,,,,,0,,,79,88
954000,note_on,0,0,1,,,,,,,,,0,,,81,62
954000,note_on,720,0,1,,,,,,,,,0,,,79,0
954240,note_on,240,0,1,,,,,,,,,0,,,81,0
954240,note_on,0,0,1,,,,,,,,,0,,,79,62
954480,note_on,0,0,1,,,,,,,,,0,,,77,62
954480,note_on,240,0,1,,,,,,,,,0,,,79,0
954720,note_on,0,0,1,,,,,,,,,0,,,76,62
954720,note_on,240,0,1,,,,,,,,,0,,,77,0
954960,note_on,0,0,1,,,,,,,,,0,,,74,62
954960,note_on,240,0,1,,,,,,,,,0,,,76,0
955200,note_on,0,0,1,,,,,,,,,0,,,73,62
955200,control_change,0,0,1,,,,,,,,,0,64,0,,
955200,note_on,240,0,1,,,,,,,,,0,,,74,0
955200,note_on,1920,0,2,,,,,,,,,1,,,64,0
955200,note_on,1920,0,3,,,,,,,,,2,,,60,0
955200,note_on,0,0,3,,,,,,,,,2,,,58,0
955200,note_on,0,0,3,,,,,,,,,2,,,57,62
955200,note_on,0,0,2,,,,,,,,,1,,,64,49
955200,note_on,0,0,2,,,,,,,,,1,,,60,0
955200,note_on,0,0,3,,,,,,,,,2,,,61,62
955200,note_on,1920,0,4,,,,,,,,,3,,,46,0
955200,note_on,0,0,4,,,,,,,,,3,,,45,62
955247,note_on,47,0,1,,,,,,,,,0,,,73,0
955440,note_on,0,0,2,,,,,,,,,1,,,69,49
955440,note_on,240,0,2,,,,,,,,,1,,,64,0
955680,note_on,480,0,3,,,,,,,,,2,,,61,0
955680,note_on,0,0,3,,,,,,,,,2,,,57,0
955680,note_on,480,0,4,,,,,,,,,3,,,45,0
955680,note_on,0,0,2,,,,,,,,,1,,,67,49
955680,note_on,240,0,2,,,,,,,,,1,,,69,0
955680,note_on,433,0,1,,,,,,,,,0,,,73,62
955920,note_on,0,0,2,,,,,,,,,1,,,69,49
955920,note_on,240,0,2,,,,,,,,,1,,,67,0
956100,note_on,420,0,1,,,,,,,,,0,,,73,62
956160,note_on,480,0,3,,,,,,,,,2,,,57,62
956160,note_on,240,0,2,,,,,,,,,1,,,69,0
956160,note_on,480,0,4,,,,,,,,,3,,,55,62
956160,note_on,0,0,1,,,,,,,,,0,,,81,62
956160,note_on,60,0,1,,,,,,,,,0,,,73,0
956160,note_on,0,0,2,,,,,,,,,1,,,61,49
956400,note_on,240,0,2,,,,,,,,,1,,,61,0
956400,note_on,0,0,2,,,,,,,,,1,,,69,49
956640,note_on,0,0,1,,,,,,,,,0,,,73,0
956640,note_on,0,0,1,,,,,,,,,0,,,73,62
956640,note_on,480,0,1,,,,,,,,,0,,,81,0
956640,note_on,240,0,2,,,,,,,,,1,,,69,0
956640,note_on,480,0,3,,,,,,,,,2,,,57,0
956640,note_on,480,0,4,,,,,,,,,3,,,55,0
956640,note_on,0,0,2,,,,,,,,,1,,,64,49
956880,note_on,240,0,2,,,,,,,,,1,,,64,0
956880,note_on,0,0,2,,,,,,,,,1,,,69,49
956880,note_on,240,0,1,,,,,,,,,0,,,73,0
957060,note_on,180,0,1,,,,,,,,,0,,,74,62
957120,note_on,240,0,2,,,,,,,,,1,,,69,0
957120,note_on,0,0,2,,,,,,,,,1,,,62,49
957120,note_on,480,0,3,,,,,,,,,2,,,57,62
957120,note_on,480,0,4,,,,,,,,,3,,,53,62
957120,note_on,60,0,1,,,,,,,,,0,,,81,62
957360,note_on,240,0,2,,,,,,,,,1,,,62,0
957360,note_on,0,0,2,,,,,,,,,1,,,69,49
957600,note_on,0,0,2,,,,,,,,,1,,,65,49
957600,note_on,480,0,3,,,,,,,,,2,,,57,0
957600,note_on,0,0,1,,,,,,,,,0,,,74,62
957600,note_on,480,0,1,,,,,,,,,0,,,81,0
957600,note_on,480,0,4,,,,,,,,,3,,,53,0
957600,note_on,240,0,2,,,,,,,,,1,,,69,0
957600,note_on,0,0,1,,,,,,,,,0,,,74,0
957840,note_on,240,0,1,,,,,,,,,0,,,74,0
957840,note_on,240,0,2,,,,,,,,,1,,,65,0
957840,note_on,0,0,2,,,,,,,,,1,,,69,49
958020,note_on,180,0,1,,,,,,,,,0,,,76,62
958080,note_on,60,0,1,,,,,,,,,0,,,81,62
958080,note_on,480,0,4,,,,,,,,,3,,,49,62
958080,note_on,480,0,3,,,,,,,,,2,,,57,62
958080,note_on,0,0,2,,,,,,,,,1,,,64,49
958080,note_on,240,0,2,,,,,,,,,1,,,69,0
958320,note_on,0,0,2,,,,,,,,,1,,,69,49
958320,note_on,240,0,2,,,,,,,,,1,,,64,0
958560,note_on,0,0,1,,,,,,,,,0,,,76,62
958560,note_on,0,0,2,,,,,,,,,1,,,67,49
958560,note_on,480,0,3,,,,,,,,,2,,,57,0
958560,note_on,480,0,4,,,,,,,,,3,,,49,0
958560,note_on,240,0,2,,,,,,,,,1,,,69,0
958560,note_on,480,0,1,,,,,,,,,0,,,81,0
958560,note_on,0,0,1,,,,,,,,,0,,,76,0
958800,note_on,0,0,2,,,,,,,,,1,,,69,49
958800,note_on,240,0,2,,,,,,,,,1,,,67,0
958800,note_on,240,0,1,,,,,,,,,0,,,76,0
959040,note_on,240,0,1,,,,,,,,,0,,,77,62
959040,note_on,240,0,2,,,,,,,,,1,,,69,0
959040,note_on,480,0,4,,,,,,,,,3,,,50,62
959040,note_on,480,0,3,,,,,,,,,2,,,57,62
959040,note_on,0,0,2,,,,,,,,,1,,,62,49
959280,note_on,0,0,2,,,,,,,,,1,,,69,49
959280,note_on,240,0,2,,,,,,,,,1,,,62,0
959520,note_on,0,0,1,,,,,,,,,0,,,81,62
959520,control_change,0,0,1,,,,,,,,,0,64,127,,
959520,note_on,480,0,1,,,,,,,,,0,,,77,0
959520,note_on,0,0,2,,,,,,,,,1,,,65,49
959520,note_on,480,0,4,,,,,,,,,3,,,50,0
959520,note_on,480,0,3,,,,,,,,,2,,,57,0
959520,note_on,240,0,2,,,,,,,,,1,,,69,0
959760,note_on,240,0,1,,,,,,,,,0,,,81,0
959760,note_on,0,0,1,,,,,,,,,0,,,79,62
959760,note_on,240,0,2,,,,,,,,,1,,,65,0
959760,note_on,0,0,2,,,,,,,,,1,,,69,49
960000,note_on,0,0,1,,,,,,,,,0,,,77,62
960000,note_on,240,0,2,,,,,,,,,1,,,69,0
960000,note_on,0,0,2,,,,,,,,,1,,,62,49
960000,note_on,480,0,3,,,,,,,,,2,,,53,62
960000,note_on,240,0,1,,,,,,,,,0,,,79,0
960000,note_on,480,0,4,,,,,,,,,3,,,41,62
960240,note_on,240,0,2,,,,,,,,,1,,,62,0
960240,note_on,0,0,2,,,,,,,,,1,,,69,49
960240,note_on,240,0,1,,,,,,,,,0,,,77,0
960240,note_on,0,0,1,,,,,,,,,0,,,76,62
960480,note_on,240,0,1,,,,,,,,,0,,,76,0
960480,note_on,0,0,1,,,,,,,,,0,,,74,62
960480,note_on,480,0,3,,,,,,,,,2,,,53,0
960480,note_on,0,0,2,,,,,,,,,1,,,65,49
960480,note_on,240,0,2,,,,,,,,,1,,,69,0
960480,note_on,480,0,4,,,,,,,,,3,,,41,0
960720,note_on,0,0,1,,,,,,,,,0,,,72,62
960720,note_on,240,0,1,,,,,,,,,0,,,74,0
960720,note_on,0,0,2,,,,,,,,,1,,,69,49
960720,note_on,240,0,2,,,,,,,,,1,,,65,0
960960,note_on,0,0,2,,,,,,,,,1,,,62,49
960960,note_on,240,0,2,,,,,,,,,1,,,69,0
960960,note_on,480,0,3,,,,,,,,,2,,,55,62
960960,note_on,480,0,4,,,,,,,,,3,,,43,62
960960,note_on,240,0,1,,,,,,,,,0,,,72,0
960960,control_change,0,0,1,,,,,,,,,0,64,0,,
960960,note_on,0,0,1,,,,,,,,,0,,,71,62
961007,note_on,47,0,1,,,,,,,,,0,,,71,0
961200,note_on,240,0,2,,,,,,,,,1,,,62,0
961200,note_on,0,0,2,,,,,,,,,1,,,67,49
961440,note_on,480,0,4,,,,,,,,,3,,,43,0
961440,note_on,0,0,2,,,,,,,,,1,,,65,49
961440,note_on,433,0,1,,,,,,,,,0,,,74,62
961440,note_on,240,0,2,,,,,,,,,1,,,67,0
961440,note_on,480,0,3,,,,,,,,,2,,,55,0
961680,note_on,0,0,1,,,,,,,,,0,,,79,62
961680,note_on,0,0,2,,,,,,,,,1,,,67,49
961680,note_on,240,0,2,,,,,,,,,1,,,65,0
961680,note_on,240,0,1,,,,,,,,,0,,,74,0
961920,note_on,240,0,1,,,,,,,,,0,,,79,0
961920,note_on,0,0,1,,,,,,,,,0,,,83,62
961920,note_on,0,0,2,,,,,,,,,1,,,62,49
961920,note_on,240,0,2,,,,,,,,,1,,,67,0
961967,note_on,47,0,1,,,,,,,,,0,,,83,0
962160,note_on,240,0,2,,,,,,,,,1,,,62,0
962160,note_on,0,0,2,,,,,,,,,1,,,67,49
962400,note_on,240,0,2,,,,,,,,,1,,,67,0
962400,note_on,0,0,2,,,,,,,,,1,,,65,49
962400,note_on,960,0,4,,,,,,,,,3,,,31,62
962400,note_on,960,0,3,,,,,,,,,2,,,43,62
962400,note_on,433,0,1,,,,,,,,,0,,,86,62
962447,note_on,47,0,1,,,,,,,,,0,,,86,0
962640,note_on,240,0,2,,,,,,,,,1,,,65,0
962640,note_on,0,0,2,,,,,,,,,1,,,67,49
962880,note_on,480,0,4,,,,,,,,,3,,,31,0
962880,note_on,0,0,4,,,,,,,,,3,,,36,62
962880,note_on,433,0,1,,,,,,,,,0,,,89,62
962880,note_on,480,0,3,,,,,,,,,2,,,43,0
962880,note_on,240,0,2,,,,,,,,,1,,,67,0
962880,note_on,0,0,3,,,,,,,,,2,,,48,62
962880,note_on,0,0,2,,,,,,,,,1,,,60,49
963120,note_on,240,0,2,,,,,,,,,1,,,60,0
963120,note_on,0,0,2,,,,,,,,,1,,,67,49
963360,note_on,0,0,2,,,,,,,,,1,,,64,49
963360,note_on,480,0,3,,,,,,,,,2,,,48,0
963360,note_on,480,0,4,,,,,,,,,3,,,36,0
963360,note_on,0,0,1,,,,,,,,,0,,,88,62
963360,note_on,240,0,2,,,,,,,,,1,,,67,0
963360,note_on,480,0,1,,,,,,,,,0,,,89,0
963600,note_on,240,0,2,,,,,,,,,1,,,64,0
963600,note_on,0,0,2,,,,,,,,,1,,,67,49
963600,note_on,240,0,1,,,,,,,,,0,,,88,0
963840,note_on,240,0,1,,,,,,,,,0,,,83,62
963840,note_on,480,0,4,,,,,,,,,3,,,39,62
963840,note_on,240,0,2,,,,,,,,,1,,,67,0
963840,note_on,0,0,2,,,,,,,,,1,,,60,49
963840,note_on,480,0,3,,,,,,,,,2,,,51,62
964080,note_on,0,0,2,,,,,,,,,1,,,72,49
964080,note_on,240,0,2,,,,,,,,,1,,,60,0
964320,note_on,240,0,2,,,,,,,,,1,,,72,0
964320,note_on,0,0,1,,,,,,,,,0,,,84,62
964320,note_on,480,0,1,,,,,,,,,0,,,83,0
964320,note_on,480,0,4,,,,,,,,,3,,,39,0
964320,note_on,0,0,4,,,,,,,,,3,,,40,62
964320,note_on,480,0,3,,,,,,,,,2,,,51,0
964320,note_on,0,0,3,,,,,,,,,2,,,52,62
964320,note_on,0,0,2,,,,,,,,,1,,,67,49
964560,note_on,240,0,2,,,,,,,,,1,,,67,0
964560,note_on,240,0,1,,,,,,,,,0,,,84,0
964560,note_on,240,0,4,,,,,,,,,3,,,40,0
964560,note_on,240,0,3,,,,,,,,,2,,,52,0
964560,note_on,0,0,2,,,,,,,,,1,,,72,49
964800,note_on,240,0,4,,,,,,,,,3,,,40,62
964800,note_on,240,0,3,,,,,,,,,2,,,52,62
964800,note_on,0,0,2,,,,,,,,,1,,,68,49
964800,note_on,240,0,1,,,,,,,,,0,,,80,62
964800,note_on,240,0,2,,,,,,,,,1,,,72,0
965040,note_on,240,0,2,,,,,,,,,1,,,68,0
965040,note_on,0,0,2,,,,,,,,,1,,,72,49
965280,note_on,0,0,1,,,,,,,,,0,,,81,62
965280,note_on,480,0,1,,,,,,,,,0,,,80,0
965280,note_on,480,0,3,,,,,,,,,2,,,52,0
965280,note_on,0,0,3,,,,,,,,,2,,,53,62
965280,note_on,0,0,4,,,,,,,,,3,,,41,62
965280,note_on,0,0,2,,,,,,,,,1,,,69,49
965280,note_on,240,0,2,,,,,,,,,1,,,72,0
965280,note_on,480,0,4,,,,,,,,,3,,,40,0
965520,note_on,240,0,4,,,,,,,,,3,,,41,0
965520,note_on,0,0,2,,,,,,,,,1,,,72,49
965520,note_on,240,0,2,,,,,,,,,1,,,69,0
965520,note_on,240,0,3,,,,,,,,,2,,,53,0
965520,note_on,240,0,1,,,,,,,,,0,,,81,0
965760,note_on,240,0,3,,,,,,,,,2,,,56,62
965760,note_on,240,0,1,,,,,,,,,0,,,76,62
965760,note_on,240,0,4,,,,,,,,,3,,,44,62
965760,note_on,0,0,2,,,,,,,,,1,,,64,49
965760,note_on,240,0,2,,,,,,,,,1,,,72,0
966000,note_on,240,0,2,,,,,,,,,1,,,64,0
966000,note_on,0,0,2,,,,,,,,,1,,,72,49
966240,note_on,480,0,1,,,,,,,,,0,,,76,0
966240,note_on,0,0,1,,,,,,,,,0,,,77,62
966240,note_on,240,0,2,,,,,,,,,1,,,72,0
966240,note_on,0,0,2,,,,,,,,,1,,,65,49
966240,note_on,480,0,3,,,,,,,,,2,,,56,0
966240,note_on,0,0,3,,,,,,,,,2,,,57,62
966240,note_on,0,0,4,,,,,,,,,3,,,45,62
966240,note_on,480,0,4,,,,,,,,,3,,,44,0
966480,note_on,0,0,2,,,,,,,,,1,,,72,49
966480,note_on,240,0,3,,,,,,,,,2,,,57,0
966480,note_on,240,0,2,,,,,,,,,1,,,65,0
966480,note_on,240,0,4,,,,,,,,,3,,,45,0
966720,note_on,240,0,2,,,,,,,,,1,,,72,0
966720,note_on,0,0,2,,,,,,,,,1,,,64,88
966720,note_on,0,0,2,,,,,,,,,1,,,67,88
966720,note_on,0,0,1,,,,,,,,,0,,,79,88
966720,note_on,480,0,1,,,,,,,,,0,,,77,0
966720,note_on,240,0,3,,,,,,,,,2,,,60,88
966720,note_on,240,0,4,,,,,,,,,3,,,46,88
966720,note_on,0,0,4,,,,,,,,,3,,,58,88
966720,control_change,0,0,1,,,,,,,,,0,64,127,,
967440,note_on,0,0,1,,,,,,,,,0,,,81,62
967440,note_on,720,0,1,,,,,,,,,0,,,79,0
967680,note_on,240,0,1,,,,,,,,,0,,,81,0
967680,note_on,0,0,1,,,,,,,,,0,,,79,62
967920,note_on,240,0,1,,,,,,,,,0,,,79,0
967920,note_on,0,0,1,,,,,,,,,0,,,77,62
968160,note_on,0,0,4,,,,,,,,,3,,,57,62
968160,note_on,0,0,1,,,,,,,,,0,,,76,62
968160,note_on,0,0,2,,,,,,,,,1,,,64,0
968160,note_on,0,0,2,,,,,,,,,1,,,65,49
968160,note_on,240,0,1,,,,,,,,,0,,,77,0
968160,note_on,1440,0,2,,,,,,,,,1,,,67,0
968160,note_on,0,0,4,,,,,,,,,3,,,46,0
968160,note_on,0,0,4,,,,,,,,,3,,,45,62
968160,note_on,1440,0,4,,,,,,,,,3,,,58,0
968400,control_change,0,0,1,,,,,,,,,0,64,0,,
968400,note_on,240,0,1,,,,,,,,,0,,,76,0
968400,note_on,0,0,1,,,,,,,,,0,,,74,62
968580,note_on,180,0,1,,,,,,,,,0,,,74,62
968640,note_on,0,0,1,,,,,,,,,0,,,72,62
968640,note_on,1920,0,3,,,,,,,,,2,,,60,0
968640,note_on,0,0,3,,,,,,,,,2,,,55,62
968640,note_on,0,0,3,,,,,,,,,2,,,60,62
968640,note_on,0,0,2,,,,,,,,,1,,,64,49
968640,note_on,0,0,1,,,,,,,,,0,,,74,0
968640,note_on,0,0,4,,,,,,,,,3,,,43,62
968640,note_on,0,0,4,,,,,,,,,3,,,45,0
968640,note_on,480,0,4,,,,,,,,,3,,,57,0
968640,note_on,60,0,1,,,,,,,,,0,,,74,0
968640,note_on,480,0,2,,,,,,,,,1,,,65,0
968687,note_on,47,0,3,,,,,,,,,2,,,60,0
968687,note_on,47,0,4,,,,,,,,,3,,,43,0
968687,note_on,47,0,1,,,,,,,,,0,,,72,0
968687,note_on,0,0,3,,,,,,,,,2,,,55,0
968880,note_on,0,0,2,,,,,,,,,1,,,67,49
968880,note_on,240,0,2,,,,,,,,,1,,,64,0
969120,note_on,0,0,2,,,,,,,,,1,,,64,49
969120,note_on,240,0,2,,,,,,,,,1,,,67,0
969120,note_on,433,0,3,,,,,,,,,2,,,55,62
969120,note_on,0,0,3,,,,,,,,,2,,,60,62
969120,note_on,433,0,4,,,,,,,,,3,,,43,62
969120,note_on,433,0,1,,,,,,,,,0,,,72,62
969167,note_on,47,0,4,,,,,,,,,3,,,43,0
969167,note_on,47,0,1,,,,,,,,,0,,,72,0
969167,note_on,47,0,3,,,,,,,,,2,,,60,0
969167,note_on,0,0,3,,,,,,,,,2,,,55,0
969360,note_on,240,0,2,,,,,,,,,1,,,64,0
969360,note_on,0,0,2,,,,,,,,,1,,,67,49
969540,note_on,373,0,1,,,,,,,,,0,,,72,62
969600,note_on,433,0,4,,,,,,,,,3,,,43,62
969600,note_on,0,0,2,,,,,,,,,1,,,65,49
969600,note_on,240,0,2,,,,,,,,,1,,,67,0
969600,note_on,60,0,1,,,,,,,,,0,,,72,0
969600,note_on,0,0,1,,,,,,,,,0,,,71,62
969600,note_on,0,0,3,,,,,,,,,2,,,62,62
969600,note_on,433,0,3,,,,,,,,,2,,,55,62
969647,note_on,47,0,1,,,,,,,,,0,,,71,0
969647,note_on,47,0,4,,,,,,,,,3,,,43,0
969647,note_on,47,0,3,,,,,,,,,2,,,62,0
969647,note_on,0,0,3,,,,,,,,,2,,,55,0
969840,note_on,240,0,2,,,,,,,,,1,,,65,0
969840,note_on,0,0,2,,,,,,,,,1,,,67,49
970080,note_on,433,0,4,,,,,,,,,3,,,43,62
970080,note_on,433,0,3,,,,,,,,,2,,,55,62
970080,note_on,0,0,3,,,,,,,,,2,,,62,62
970080,note_on,0,0,2,,,,,,,,,1,,,65,49
970080,note_on,240,0,2,,,,,,,,,1,,,67,0
970080,note_on,433,0,1,,,,,,,,,0,,,71,62
970127,note_on,0,0,3,,,,,,,,,2,,,55,0
970127,note_on,47,0,3,,,,,,,,,2,,,62,0
970127,note_on,47,0,4,,,,,,,,,3,,,43,0
970127,note_on,47,0,1,,,,,,,,,0,,,71,0
970320,note_on,0,0,2,,,,,,,,,1,,,67,49
970320,note_on,240,0,2,,,,,,,,,1,,,65,0
970560,note_on,0,0,3,,,,,,,,,2,,,55,88
970560,note_on,433,0,4,,,,,,,,,3,,,48,62
970560,control_change,433,0,3,,,,,,,,,2,64,127,,
970560,note_on,433,0,1,,,,,,,,,0,,,72,62
970560,note_on,0,0,2,,,,,,,,,1,,,64,49
970560,note_on,0,0,2,,,,,,,,,1,,,60,49
970560,note_on,240,0,2,,,,,,,,,1,,,67,0
971040,note_on,0,0,2,,,,,,,,,1,,,60,0
971040,note_on,480,0,2,,,,,,,,,1,,,64,0
971040,note_on,480,0,1,,,,,,,,,0,,,72,0
971040,note_on,480,0,4,,,,,,,,,3,,,48,0
971280,note_on,720,0,3,,,,,,,,,2,,,55,0
971280,note_on,0,0,3,,,,,,,,,2,,,57,62
971520,note_on,0,0,2,,,,,,,,,1,,,67,49
971520,note_on,480,0,2,,,,,,,,,1,,,64,49
971520,note_on,480,0,1,,,,,,,,,0,,,71,62
971520,note_on,240,0,3,,,,,,,,,2,,,57,0
971520,note_on,0,0,3,,,,,,,,,2,,,55,62
971567,note_on,47,0,1,,,,,,,,,0,,,71,0
971760,note_on,240,0,3,,,,,,,,,2,,,55,0
971760,note_on,0,0,3,,,,,,,,,2,,,53,62
972000,note_on,433,0,1,,,,,,,,,0,,,72,62
972000,note_on,480,0,2,,,,,,,,,1,,,67,0
972000,note_on,0,0,2,,,,,,,,,1,,,64,0
972000,note_on,240,0,3,,,,,,,,,2,,,53,0
972000,note_on,0,0,3,,,,,,,,,2,,,52,62
972047,note_on,47,0,1,,,,,,,,,0,,,72,0
972240,note_on,0,0,3,,,,,,,,,2,,,50,62
972240,note_on,240,0,3,,,,,,,,,2,,,52,0
972480,note_on,433,0,1,,,,,,,,,0,,,76,88
972480,control_change,0,0,3,,,,,,,,,2,64,0,,
972480,note_on,0,0,3,,,,,,,,,2,,,49,62
972480,note_on,1440,0,4,,,,,,,,,3,,,45,62
972480,note_on,0,0,2,,,,,,,,,1,,,69,88
972480,control_change,480,0,2,,,,,,,,,1,64,127,,
972480,note_on,240,0,3,,,,,,,,,2,,,50,0
972960,note_on,480,0,3,,,,,,,,,2,,,49,0
972960,note_on,480,0,4,,,,,,,,,3,,,45,0
972960,note_on,480,0,1,,,,,,,,,0,,,76,0
973200,note_on,0,0,2,,,,,,,,,1,,,70,62
973200,note_on,720,0,2,,,,,,,,,1,,,69,0
973440,note_on,480,0,1,,,,,,,,,0,,,72,62
973440,note_on,480,0,3,,,,,,,,,2,,,49,62
973440,note_on,0,0,3,,,,,,,,,2,,,52,62
973440,note_on,0,0,3,,,,,,,,,2,,,57,62
973440,note_on,240,0,2,,,,,,,,,1,,,70,0
973440,note_on,0,0,2,,,,,,,,,1,,,69,62
973487,note_on,47,0,1,,,,,,,,,0,,,72,0
973680,note_on,0,0,2,,,,,,,,,1,,,67,62
973680,note_on,240,0,2,,,,,,,,,1,,,69,0
973920,note_on,240,0,2,,,,,,,,,1,,,67,0
973920,note_on,0,0,3,,,,,,,,,2,,,49,0
973920,note_on,0,0,2,,,,,,,,,1,,,65,62
973920,note_on,433,0,1,,,,,,,,,0,,,73,62
973920,note_on,0,0,3,,,,,,,,,2,,,52,0
973920,note_on,480,0,3,,,,,,,,,2,,,57,0
973967,note_on,47,0,1,,,,,,,,,0,,,73,0
974160,control_change,0,0,2,,,,,,,,,1,64,0,,
974160,note_on,240,0,2,,,,,,,,,1,,,65,0
974160,note_on,0,0,2,,,,,,,,,1,,,64,62
974400,note_on,480,0,3,,,,,,,,,2,,,50,62
974400,note_on,240,0,2,,,,,,,,,1,,,64,0
974400,note_on,433,0,1,,,,,,,,,0,,,77,62
974400,note_on,0,0,2,,,,,,,,,1,,,62,62
974400,note_on,1440,0,4,,,,,,,,,3,,,38,62
974447,note_on,47,0,1,,,,,,,,,0,,,77,0
974640,note_on,0,0,3,,,,,,,,,2,,,57,62
974640,note_on,240,0,3,,,,,,,,,2,,,50,0
974880,note_on,480,0,2,,,,,,,,,1,,,62,0
974880,note_on,480,0,4,,,,,,,,,3,,,38,0
974880,note_on,0,0,3,,,,,,,,,2,,,53,62
974880,note_on,240,0,3,,,,,,,,,2,,,57,0
975120,note_on,0,0,3,,,,,,,,,2,,,57,62
975120,note_on,240,0,3,,,,,,,,,2,,,53,0
975360,note_on,913,0,1,,,,,,,,,0,,,80,88
975360,note_on,0,0,3,,,,,,,,,2,,,53,62
975360,note_on,480,0,2,,,,,,,,,1,,,68,88
975360,note_on,480,0,4,,,,,,,,,3,,,41,62
975360,note_on,240,0,3,,,,,,,,,2,,,57,0
975407,note_on,47,0,1,,,,,,,,,0,,,80,0
975407,note_on,47,0,2,,,,,,,,,1,,,68,0
975600,note_on,0,0,3,,,,,,,,,2,,,62,62
975600,note_on,240,0,3,,,,,,,,,2,,,53,0
975840,note_on,433,0,2,,,,,,,,,1,,,69,62
975840,note_on,240,0,3,,,,,,,,,2,,,62,0
975840,note_on,433,0,1,,,,,,,,,0,,,81,62
975840,note_on,0,0,3,,,,,,,,,2,,,57,62
975840,note_on,480,0,4,,,,,,,,,3,,,41,0
975887,note_on,47,0,2,,,,,,,,,1,,,69,0
975887,note_on,47,0,1,,,,,,,,,0,,,81,0
976080,note_on,240,0,3,,,,,,,,,2,,,57,0
976080,note_on,0,0,3,,,,,,,,,2,,,62,62
976320,note_on,433,0,1,,,,,,,,,0,,,78,88
976320,note_on,433,0,2,,,,,,,,,1,,,66,88
976320,note_on,240,0,3,,,,,,,,,2,,,62,0
976320,note_on,0,0,3,,,,,,,,,2,,,55,62
976320,note_on,480,0,4,,,,,,,,,3,,,43,62
976367,note_on,47,0,2,,,,,,,,,1,,,66,0
976367,note_on,47,0,1,,,,,,,,,0,,,78,0
976560,note_on,0,0,3,,,,,,,,,2,,,64,62
976560,note_on,240,0,3,,,,,,,,,2,,,55,0
976800,note_on,0,0,3,,,,,,,,,2,,,60,62
976800,note_on,240,0,3,,,,,,,,,2,,,64,0
976800,note_on,433,0,1,,,,,,,,,0,,,79,62
976800,note_on,480,0,4,,,,,,,,,3,,,43,0
976800,note_on,433,0,2,,,,,,,,,1,,,67,62
976847,note_on,47,0,1,,,,,,,,,0,,,79,0
976847,note_on,47,0,2,,,,,,,,,1,,,67,0
977040,note_on,0,0,3,,,,,,,,,2,,,64,62
977040,note_on,240,0,3,,,,,,,,,2,,,60,0
977280,note_on,0,0,3,,,,,,,,,2,,,55,62
977280,note_on,433,0,1,,,,,,,,,0,,,76,88
977280,note_on,480,0,4,,,,,,,,,3,,,43,62
977280,note_on,240,0,3,,,,,,,,,2,,,64,0
977327,note_on,47,0,1,,,,,,,,,0,,,76,0
977520,note_on,240,0,3,,,,,,,,,2,,,55,0
977520,note_on,0,0,3,,,,,,,,,2,,,62,62
977760,note_on,480,0,4,,,,,,,,,3,,,43,0
977760,note_on,0,0,3,,,,,,,,,2,,,59,62
977760,note_on,240,0,3,,,,,,,,,2,,,62,0
977760,note_on,433,0,1,,,,,,,,,0,,,77,62
977807,note_on,47,0,1,,,,,,,,,0,,,77,0
978000,note_on,0,0,3,,,,,,,,,2,,,62,62
978000,note_on,240,0,3,,,,,,,,,2,,,59,0
978240,note_on,0,0,3,,,,,,,,,2,,,55,62
978240,note_on,0,0,3,,,,,,,,,2,,,60,62
978240,note_on,480,0,4,,,,,,,,,3,,,48,62
978240,note_on,0,0,3,,,,,,,,,2,,,64,62
978240,note_on,0,0,2,,,,,,,,,1,,,67,88
978240,control_change,1393,0,2,,,,,,,,,1,64,127,,
978240,note_on,433,0,1,,,,,,,,,0,,,75,88
978240,note_on,240,0,3,,,,,,,,,2,,,62,0
978287,note_on,47,0,1,,,,,,,,,0,,,75,0
978720,note_on,433,0,1,,,,,,,,,0,,,76,62
978720,note_on,0,0,3,,,,,,,,,2,,,55,0
978720,note_on,480,0,3,,,,,,,,,2,,,64,0
978720,note_on,480,0,4,,,,,,,,,3,,,48,0
978720,note_on,0,0,3,,,,,,,,,2,,,60,0
978767,note_on,47,0,1,,,,,,,,,0,,,76,0
978960,note_on,720,0,2,,,,,,,,,1,,,67,0
978960,note_on,0,0,2,,,,,,,,,1,,,69,62
979200,note_on,433,0,1,,,,,,,,,0,,,83,62
979200,note_on,480,0,3,,,,,,,,,2,,,52,62
979200,note_on,0,0,3,,,,,,,,,2,,,55,62
979200,note_on,0,0,2,,,,,,,,,1,,,67,62
979200,note_on,240,0,2,,,,,,,,,1,,,69,0
979247,note_on,47,0,3,,,,,,,,,2,,,55,0
979247,note_on,0,0,3,,,,,,,,,2,,,52,0
979247,note_on,47,0,1,,,,,,,,,0,,,83,0
979440,note_on,240,0,2,,,,,,,,,1,,,67,0
979440,note_on,0,0,2,,,,,,,,,1,,,65,62
979680,note_on,240,0,2,,,,,,,,,1,,,65,0
979680,note_on,433,0,1,,,,,,,,,0,,,84,62
979680,note_on,0,0,2,,,,,,,,,1,,,64,62
979727,note_on,47,0,1,,,,,,,,,0,,,84,0
979920,note_on,240,0,2,,,,,,,,,1,,,64,0
979920,control_change,0,0,2,,,,,,,,,1,64,0,,
979920,note_on,0,0,2,,,,,,,,,1,,,62,62
980160,control_change,1440,0,4,,,,,,,,,3,64,127,,
980160,note_on,0,0,4,,,,,,,,,3,,,45,62
980160,note_on,433,0,1,,,,,,,,,0,,,88,62
980160,note_on,0,0,2,,,,,,,,,1,,,61,62
980160,note_on,913,0,3,,,,,,,,,2,,,52,62
980160,note_on,0,0,3,,,,,,,,,2,,,57,62
980160,note_on,240,0,2,,,,,,,,,1,,,62,0
980640,note_on,480,0,3,,,,,,,,,2,,,57,0
980640,note_on,0,0,3,,,,,,,,,2,,,52,0
980640,note_on,480,0,2,,,,,,,,,1,,,61,0
980640,note_on,480,0,1,,,,,,,,,0,,,88,0
980880,note_on,0,0,4,,,,,,,,,3,,,46,62
980880,note_on,720,0,4,,,,,,,,,3,,,45,0
981120,note_on,480,0,2,,,,,,,,,1,,,72,62
981120,note_on,0,0,3,,,,,,,,,2,,,61,62
981120,note_on,0,0,3,,,,,,,,,2,,,57,62
981120,note_on,0,0,4,,,,,,,,,3,,,45,62
981120,note_on,240,0,4,,,,,,,,,3,,,46,0
981120,note_on,480,0,3,,,,,,,,,2,,,52,62
981120,note_on,480,0,1,,,,,,,,,0,,,84,62
981167,note_on,47,0,2,,,,,,,,,1,,,72,0
981167,note_on,47,0,1,,,,,,,,,0,,,84,0
981360,note_on,0,0,4,,,,,,,,,3,,,43,62
981360,note_on,240,0,4,,,,,,,,,3,,,45,0
981600,note_on,0,0,4,,,,,,,,,3,,,41,62
981600,note_on,480,0,3,,,,,,,,,2,,,61,0
981600,note_on,433,0,1,,,,,,,,,0,,,85,62
981600,note_on,0,0,3,,,,,,,,,2,,,57,0
981600,note_on,240,0,4,,,,,,,,,3,,,43,0
981600,note_on,433,0,2,,,,,,,,,1,,,73,62
981600,note_on,0,0,3,,,,,,,,,2,,,52,0
981647,note_on,47,0,2,,,,,,,,,1,,,73,0
981647,note_on,47,0,1,,,,,,,,,0,,,85,0
981840,note_on,0,0,4,,,,,,,,,3,,,40,62
981840,control_change,0,0,4,,,,,,,,,3,64,0,,
981840,note_on,240,0,4,,,,,,,,,3,,,41,0
982080,note_on,433,0,1,,,,,,,,,0,,,89,62
982080,note_on,0,0,4,,,,,,,,,3,,,38,62
982080,note_on,240,0,4,,,,,,,,,3,,,40,0
982080,note_on,480,0,3,,,,,,,,,2,,,53,62
982080,note_on,433,0,2,,,,,,,,,1,,,77,62
982127,note_on,47,0,2,,,,,,,,,1,,,77,0
982127,note_on,47,0,1,,,,,,,,,0,,,89,0
982320,note_on,0,0,3,,,,,,,,,2,,,62,62
982320,note_on,240,0,3,,,,,,,,,2,,,53,0
982560,note_on,240,0,3,,,,,,,,,2,,,62,0
982560,note_on,0,0,3,,,,,,,,,2,,,57,62
982560,note_on,480,0,4,,,,,,,,,3,,,38,0
982800,note_on,0,0,3,,,,,,,,,2,,,62,62
982800,note_on,240,0,3,,,,,,,,,2,,,57,0
983040,note_on,913,0,2,,,,,,,,,1,,,80,88
983040,note_on,913,0,1,,,,,,,,,0,,,92,88
983040,note_on,240,0,3,,,,,,,,,2,,,62,0
983040,note_on,480,0,4,,,,,,,,,3,,,41,62
983040,note_on,0,0,3,,,,,,,,,2,,,53,62
983087,note_on,47,0,2,,,,,,,,,1,,,80,0
983087,note_on,47,0,1,,,,,,,,,0,,,92,0
983280,note_on,240,0,3,,,,,,,,,2,,,53,0
983280,note_on,0,0,3,,,,,,,,,2,,,62,62
983520,note_on,480,0,4,,,,,,,,,3,,,41,0
983520,note_on,433,0,2,,,,,,,,,1,,,81,62
983520,note_on,433,0,1,,,,,,,,,0,,,93,62
983520,note_on,0,0,3,,,,,,,,,2,,,57,62
983520,note_on,240,0,3,,,,,,,,,2,,,62,0
983567,note_on,47,0,2,,,,,,,,,1,,,81,0
983567,note_on,47,0,1,,,,,,,,,0,,,93,0
983760,note_on,240,0,3,,,,,,,,,2,,,57,0
983760,note_on,0,0,3,,,,,,,,,2,,,62,62
984000,note_on,240,0,3,,,,,,,,,2,,,62,0
984000,note_on,433,0,1,,,,,,,,,0,,,90,88
984000,note_on,480,0,4,,,,,,,,,3,,,43,62
984000,note_on,433,0,2,,,,,,,,,1,,,78,88
984000,note_on,0,0,3,,,,,,,,,2,,,55,62
984047,note_on,47,0,1,,,,,,,,,0,,,90,0
984047,note_on,47,0,2,,,,,,,,,1,,,78,0
984240,note_on,0,0,3,,,,,,,,,2,,,64,62
984240,note_on,240,0,3,,,,,,,,,2,,,55,0
984480,note_on,240,0,3,,,,,,,,,2,,,64,0
984480,note_on,0,0,3,,,,,,,,,2,,,60,62
984480,note_on,480,0,4,,,,,,,,,3,,,43,0
984480,note_on,433,0,2,,,,,,,,,1,,,79,62
984480,note_on,433,0,1,,,,,,,,,0,,,91,62
984527,note_on,47,0,1,,,,,,,,,0,,,91,0
984527,note_on,47,0,2,,,,,,,,,1,,,79,0
984720,note_on,240,0,3,,,,,,,,,2,,,60,0
984720,note_on,0,0,3,,,,,,,,,2,,,64,62
984960,note_on,433,0,1,,,,,,,,,0,,,88,88
984960,note_on,433,0,2,,,,,,,,,1,,,76,88
984960,note_on,240,0,3,,,,,,,,,2,,,64,0
984960,note_on,480,0,4,,,,,,,,,3,,,44,62
984960,note_on,0,0,3,,,,,,,,,2,,,59,62
985007,note_on,47,0,1,,,,,,,,,0,,,88,0
985007,note_on,47,0,2,,,,,,,,,1,,,76,0
985200,note_on,240,0,3,,,,,,,,,2,,,59,0
985200,note_on,0,0,3,,,,,,,,,2,,,65,62
985440,note_on,433,0,1,,,,,,,,,0,,,89,62
985440,note_on,240,0,3,,,,,,,,,2,,,65,0
985440,note_on,0,0,3,,,,,,,,,2,,,62,62
985440,note_on,433,0,2,,,,,,,,,1,,,77,62
985440,note_on,480,0,4,,,,,,,,,3,,,44,0
985487,note_on,47,0,1,,,,,,,,,0,,,89,0
985487,note_on,47,0,2,,,,,,,,,1,,,77,0
985680,note_on,0,0,3,,,,,,,,,2,,,65,62
985680,note_on,240,0,3,,,,,,,,,2,,,62,0
985920,note_on,480,0,4,,,,,,,,,3,,,45,62
985920,note_on,433,0,2,,,,,,,,,1,,,75,88
985920,note_on,240,0,3,,,,,,,,,2,,,65,0
985920,note_on,433,0,1,,,,,,,,,0,,,87,88
985920,note_on,0,0,3,,,,,,,,,2,,,52,62
985967,note_on,47,0,1,,,,,,,,,0,,,87,0
985967,note_on,47,0,2,,,,,,,,,1,,,75,0
986160,note_on,240,0,3,,,,,,,,,2,,,52,0
986160,note_on,0,0,3,,,,,,,,,2,,,64,62
986400,note_on,480,0,4,,,,,,,,,3,,,45,0
986400,note_on,0,0,3,,,,,,,,,2,,,60,62
986400,note_on,240,0,3,,,,,,,,,2,,,64,0
986400,note_on,433,0,1,,,,,,,,,0,,,88,62
986400,note_on,433,0,2,,,,,,,,,1,,,76,62
986447,note_on,47,0,1,,,,,,,,,0,,,88,0
986447,note_on,47,0,2,,,,,,,,,1,,,76,0
986640,note_on,240,0,3,,,,,,,,,2,,,60,0
986640,note_on,0,0,3,,,,,,,,,2,,,64,62
986880,note_on,240,0,3,,,,,,,,,2,,,64,0
986880,note_on,0,0,3,,,,,,,,,2,,,53,88
986880,note_on,433,0,2,,,,,,,,,1,,,69,88
986880,note_on,480,0,4,,,,,,,,,3,,,41,88
986880,note_on,433,0,1,,,,,,,,,0,,,81,88
986927,note_on,47,0,1,,,,,,,,,0,,,81,0
986927,note_on,47,0,2,,,,,,,,,1,,,69,0
987120,note_on,0,0,3,,,,,,,,,2,,,62,88
987120,note_on,240,0,3,,,,,,,,,2,,,53,0
987360,note_on,433,0,2,,,,,,,,,1,,,74,88
987360,note_on,0,0,3,,,,,,,,,2,,,57,88
987360,note_on,240,0,3,,,,,,,,,2,,,62,0
987360,note_on,0,0,1,,,,,,,,,0,,,89,88
987360,note_on,433,0,1,,,,,,,,,0,,,86,88
987360,note_on,0,0,2,,,,,,,,,1,,,77,88
987360,note_on,480,0,4,,,,,,,,,3,,,41,0
987407,note_on,0,0,1,,,,,,,,,0,,,86,0
987407,note_on,47,0,1,,,,,,,,,0,,,89,0
987407,note_on,47,0,2,,,,,,,,,1,,,77,0
987407,note_on,0,0,2,,,,,,,,,1,,,74,0
987600,note_on,240,0,3,,,,,,,,,2,,,57,0
987600,note_on,0,0,3,,,,,,,,,2,,,62,88
987840,note_on,480,0,4,,,,,,,,,3,,,43,88
987840,note_on,433,0,2,,,,,,,,,1,,,67,88
987840,note_on,433,0,1,,,,,,,,,0,,,79,88
987840,note_on,0,0,3,,,,,,,,,2,,,60,88
987840,note_on,240,0,3,,,,,,,,,2,,,62,0
987887,note_on,47,0,2,,,,,,,,,1,,,67,0
987887,note_on,47,0,1,,,,,,,,,0,,,79,0
988080,note_on,0,0,3,,,,,,,,,2,,,64,88
988080,note_on,240,0,3,,,,,,,,,2,,,60,0
988320,note_on,240,0,3,,,,,,,,,2,,,64,0
988320,note_on,0,0,3,,,,,,,,,2,,,55,88
988320,note_on,433,0,2,,,,,,,,,1,,,72,88
988320,note_on,433,0,1,,,,,,,,,0,,,84,88
988320,note_on,0,0,1,,,,,,,,,0,,,88,88
988320,note_on,480,0,4,,,,,,,,,3,,,43,0
988320,note_on,0,0,2,,,,,,,,,1,,,76,88
988367,note_on,0,0,2,,,,,,,,,1,,,72,0
988367,note_on,47,0,1,,,,,,,,,0,,,88,0
988367,note_on,0,0,1,,,,,,,,,0,,,84,0
988367,note_on,47,0,2,,,,,,,,,1,,,76,0
988560,note_on,0,0,3,,,,,,,,,2,,,64,88
988560,note_on,240,0,3,,,,,,,,,2,,,55,0
988800,note_on,433,0,1,,,,,,,,,0,,,79,88
988800,note_on,480,0,4,,,,,,,,,3,,,43,88
988800,note_on,433,0,2,,,,,,,,,1,,,67,88
988800,note_on,240,0,3,,,,,,,,,2,,,64,0
988800,note_on,0,0,3,,,,,,,,,2,,,59,88
988847,note_on,47,0,1,,,,,,,,,0,,,79,0
988847,note_on,47,0,2,,,,,,,,,1,,,67,0
989040,note_on,240,0,3,,,,,,,,,2,,,59,0
989040,note_on,0,0,3,,,,,,,,,2,,,62,88
989280,note_on,480,0,4,,,,,,,,,3,,,43,0
989280,note_on,240,0,3,,,,,,,,,2,,,62,0
989280,note_on,0,0,3,,,,,,,,,2,,,55,88
989280,note_on,0,0,1,,,,,,,,,0,,,86,88
989280,note_on,0,0,2,,,,,,,,,1,,,74,88
989280,note_on,433,0,2,,,,,,,,,1,,,71,88
989280,note_on,433,0,1,,,,,,,,,0,,,83,88
989327,note_on,47,0,1,,,,,,,,,0,,,86,0
989327,note_on,0,0,1,,,,,,,,,0,,,83,0
989327,note_on,47,0,2,,,,,,,,,1,,,74,0
989327,note_on,0,0,2,,,,,,,,,1,,,71,0
989520,note_on,0,0,3,,,,,,,,,2,,,62,88
989520,note_on,240,0,3,,,,,,,,,2,,,55,0
989760,note_on,0,0,3,,,,,,,,,2,,,55,101
989760,note_on,433,0,2,,,,,,,,,1,,,64,88
989760,note_on,433,0,1,,,,,,,,,0,,,76,88
989760,note_on,240,0,3,,,,,,,,,2,,,62,0
989760,note_on,480,0,4,,,,,,,,,3,,,48,101
989807,note_on,47,0,1,,,,,,,,,0,,,76,0
989807,note_on,47,0,2,,,,,,,,,1,,,64,0
990000,note_on,0,0,3,,,,,,,,,2,,,60,101
990000,note_on,240,0,3,,,,,,,,,2,,,55,0
990240,note_on,480,0,4,,,,,,,,,3,,,48,0
990240,note_on,0,0,3,,,,,,,,,2,,,52,101
990240,note_on,240,0,3,,,,,,,,,2,,,60,0
990240,note_on,433,0,2,,,,,,,,,1,,,67,88
990240,note_on,433,0,1,,,,,,,,,0,,,79,88
990240,note_on,0,0,1,,,,,,,,,0,,,84,88
990287,note_on,47,0,1,,,,,,,,,0,,,84,0
990287,note_on,0,0,1,,,,,,,,,0,,,79,0
990480,note_on,240,0,3,,,,,,,,,2,,,52,0
990480,note_on,0,0,3,,,,,,,,,2,,,60,101
990720,set_tempo,158400,1,0,,,,,,312500,,,,,,,
990720,note_on,0,0,2,,,,,,,,,1,,,65,88
990720,note_on,433,0,1,,,,,,,,,0,,,74,101
990720,note_on,480,0,2,,,,,,,,,1,,,67,0
990720,note_on,0,0,3,,,,,,,,,2,,,59,101
990720,note_on,240,0,3,,,,,,,,,2,,,60,0
990720,note_on,0,0,3,,,,,,,,,2,,,53,101
990720,note_on,480,0,4,,,,,,,,,3,,,38,101
990767,note_on,47,0,3,,,,,,,,,2,,,59,0
990767,note_on,0,0,3,,,,,,,,,2,,,53,0
990767,note_on,47,0,1,,,,,,,,,0,,,74,0
990960,note_on,240,0,2,,,,,,,,,1,,,65,0
990960,note_on,0,0,2,,,,,,,,,1,,,71,88
991200,note_on,480,0,4,,,,,,,,,3,,,38,0
991200,note_on,433,0,1,,,,,,,,,0,,,77,101
991200,note_on,0,0,1,,,,,,,,,0,,,83,101
991200,note_on,433,0,3,,,,,,,,,2,,,50,101
991200,note_on,0,0,2,,,,,,,,,1,,,62,88
991200,note_on,240,0,2,,,,,,,,,1,,,71,0
991247,note_on,0,0,1,,,,,,,,,0,,,77,0
991247,note_on,47,0,3,,,,,,,,,2,,,50,0
991247,note_on,47,0,1,,,,,,,,,0,,,83,0
991440,note_on,0,0,2,,,,,,,,,1,,,71,88
991440,note_on,240,0,2,,,,,,,,,1,,,62,0
991680,note_on,0,0,2,,,,,,,,,1,,,64,88
991680,note_on,240,0,2,,,,,,,,,1,,,71,0
991680,note_on,0,0,3,,,,,,,,,2,,,57,101
991680,note_on,480,0,4,,,,,,,,,3,,,40,101
991680,note_on,433,0,3,,,,,,,,,2,,,52,101
991680,note_on,433,0,1,,,,,,,,,0,,,72,101
991727,note_on,47,0,3,,,,,,,,,2,,,57,0
991727,note_on,47,0,1,,,,,,,,,0,,,72,0
991727,note_on,0,0,3,,,,,,,,,2,,,52,0
991920,note_on,240,0,2,,,,,,,,,1,,,64,0
991920,note_on,0,0,2,,,,,,,,,1,,,69,88
992160,note_on,240,0,2,,,,,,,,,1,,,69,0
992160,note_on,0,0,1,,,,,,,,,0,,,81,101
992160,note_on,480,0,4,,,,,,,,,3,,,40,0
992160,note_on,433,0,1,,,,,,,,,0,,,76,101
992160,note_on,433,0,3,,,,,,,,,2,,,48,101
992160,note_on,0,0,2,,,,,,,,,1,,,60,88
992207,note_on,0,0,1,,,,,,,,,0,,,76,0
992207,note_on,47,0,1,,,,,,,,,0,,,81,0
992207,note_on,47,0,3,,,,,,,,,2,,,48,0
992400,note_on,240,0,2,,,,,,,,,1,,,60,0
992400,note_on,0,0,2,,,,,,,,,1,,,69,88
992640,note_on,240,0,2,,,,,,,,,1,,,69,0
992640,note_on,0,0,2,,,,,,,,,1,,,64,88
992640,note_on,0,0,3,,,,,,,,,2,,,56,101
992640,note_on,433,0,1,,,,,,,,,0,,,71,101
992640,note_on,433,0,3,,,,,,,,,2,,,52,101
992640,note_on,480,0,4,,,,,,,,,3,,,40,101
992687,note_on,0,0,3,,,,,,,,,2,,,52,0
992687,note_on,47,0,3,,,,,,,,,2,,,56,0
992687,note_on,47,0,1,,,,,,,,,0,,,71,0
992880,note_on,240,0,2,,,,,,,,,1,,,64,0
992880,note_on,0,0,2,,,,,,,,,1,,,68,88
993120,note_on,0,0,2,,,,,,,,,1,,,59,88
993120,note_on,480,0,4,,,,,,,,,3,,,40,0
993120,note_on,433,0,1,,,,,,,,,0,,,76,101
993120,note_on,240,0,2,,,,,,,,,1,,,68,0
993120,note_on,0,0,1,,,,,,,,,0,,,80,101
993120,note_on,433,0,3,,,,,,,,,2,,,52,101
993167,note_on,0,0,1,,,,,,,,,0,,,76,0
993167,note_on,47,0,1,,,,,,,,,0,,,80,0
993167,note_on,47,0,3,,,,,,,,,2,,,52,0
993360,note_on,240,0,2,,,,,,,,,1,,,59,0
993360,note_on,0,0,2,,,,,,,,,1,,,68,88
993600,note_on,240,0,2,,,,,,,,,1,,,68,0
995520,time_signature,4800,1,0,1,4,24,8,,,,,,,,,
995520,note_on,2353,0,3,,,,,,,,,2,,,41,101
995520,note_on,0,0,3,,,,,,,,,2,,,53,101
995520,note_on,0,0,1,,,,,,,,,0,,,84,101
995520,note_on,0,0,1,,,,,,,,,0,,,89,101
995520,note_on,0,0,2,,,,,,,,,1,,,77,101
995520,set_tempo,0,1,0,,,,,,270270,,,,,,,
995520,note_on,0,0,2,,,,,,,,,1,,,72,101
995520,note_on,1920,0,2,,,,,,,,,1,,,68,101
995520,note_on,2400,0,4,,,,,,,,,3,,,29,101
995520,note_on,2353,0,1,,,,,,,,,0,,,80,101
995760,note_on,0,0,2,,,,,,,,,1,,,68,0
995760,note_on,0,0,2,,,,,,,,,1,,,72,0
995760,note_on,240,0,2,,,,,,,,,1,,,77,0
995760,note_on,0,0,2,,,,,,,,,1,,,72,101
995760,note_on,0,0,2,,,,,,,,,1,,,77,101
995760,note_on,0,0,2,,,,,,,,,1,,,68,101
995760,note_on,0,0,1,,,,,,,,,0,,,84,0
995760,note_on,0,0,3,,,,,,,,,2,,,53,101
995760,note_on,0,0,3,,,,,,,,,2,,,41,101
995760,note_on,0,0,3,,,,,,,,,2,,,41,0
995760,note_on,240,0,3,,,,,,,,,2,,,53,0
995760,note_on,0,0,4,,,,,,,,,3,,,29,101
995760,note_on,240,0,4,,,,,,,,,3,,,29,0
995760,note_on,240,0,1,,,,,,,,,0,,,89,0
995760,note_on,0,0,1,,,,,,,,,0,,,80,0
995760,note_on,0,0,1,,,,,,,,,0,,,80,101
995760,note_on,0,0,1,,,,,,,,,0,,,84,101
995760,note_on,0,0,1,,,,,,,,,0,,,89,101
996000,note_on,0,0,1,,,,,,,,,0,,,80,0
996000,note_on,0,0,3,,,,,,,,,2,,,53,101
996000,note_on,0,0,3,,,,,,,,,2,,,41,101
996000,note_on,0,0,3,,,,,,,,,2,,,41,0
996000,note_on,240,0,3,,,,,,,,,2,,,53,0
996000,time_signature,480,1,0,4,4,24,8,,,,,,,,,
996000,note_on,0,0,4,,,,,,,,,3,,,29,101
996000,note_on,240,0,4,,,,,,,,,3,,,29,0
996000,note_on,240,0,1,,,,,,,,,0,,,89,0
996000,note_on,0,0,1,,,,,,,,,0,,,84,0
996000,note_on,0,0,2,,,,,,,,,1,,,72,0
996000,note_on,240,0,2,,,,,,,,,1,,,77,0
996000,note_on,0,0,2,,,,,,,,,1,,,68,127
996000,note_on,0,0,2,,,,,,,,,1,,,72,127
996000,note_on,0,0,2,,,,,,,,,1,,,77,127
996000,note_on,0,0,1,,,,,,,,,0,,,80,127
996000,note_on,0,0,1,,,,,,,,,0,,,84,127
996000,note_on,0,0,1,,,,,,,,,0,,,89,127
996000,note_on,0,0,2,,,,,,,,,1,,,68,0
997440,note_on,0,0,3,,,,,,,,,2,,,41,0
997440,note_on,1440,0,3,,,,,,,,,2,,,53,0
997440,note_on,0,0,2,,,,,,,,,1,,,72,101
997440,note_on,0,0,2,,,,,,,,,1,,,68,0
997440,note_on,0,0,2,,,,,,,,,1,,,65,101
997440,note_on,0,0,2,,,,,,,,,1,,,72,0
997440,note_on,0,0,4,,,,,,,,,3,,,29,101
997440,note_on,1440,0,4,,,,,,,,,3,,,29,0
997440,note_on,1440,0,2,,,,,,,,,1,,,77,0
997440,note_on,0,0,2,,,,,,,,,1,,,68,101
997440,note_on,0,0,3,,,,,,,,,2,,,41,101
997440,note_on,0,0,3,,,,,,,,,2,,,53,101
997440,note_on,0,0,1,,,,,,,,,0,,,84,101
997440,note_on,1440,0,1,,,,,,,,,0,,,89,0
997440,note_on,0,0,1,,,,,,,,,0,,,80,0
997440,note_on,0,0,1,,,,,,,,,0,,,77,101
997440,note_on,0,0,1,,,,,,,,,0,,,84,0
997440,note_on,0,0,1,,,,,,,,,0,,,80,101
997680,note_on,0,0,1,,,,,,,,,0,,,77,0
997680,note_on,0,0,1,,,,,,,,,0,,,80,0
997680,note_on,0,0,1,,,,,,,,,0,,,77,101
997680,note_on,0,0,2,,,,,,,,,1,,,68,101
997680,note_on,0,0,4,,,,,,,,,3,,,29,101
997680,note_on,0,0,1,,,,,,,,,0,,,84,101
997680,note_on,240,0,2,,,,,,,,,1,,,72,0
997680,note_on,240,0,4,,,,,,,,,3,,,29,0
997680,note_on,240,0,1,,,,,,,,,0,,,84,0
997680,note_on,0,0,2,,,,,,,,,1,,,65,0
997680,note_on,0,0,2,,,,,,,,,1,,,65,101
997680,note_on,0,0,2,,,,,,,,,1,,,72,101
997680,note_on,0,0,1,,,,,,,,,0,,,80,101
997680,note_on,240,0,3,,,,,,,,,2,,,53,0
997680,note_on,0,0,3,,,,,,,,,2,,,53,101
997680,note_on,0,0,3,,,,,,,,,2,,,41,101
997680,note_on,0,0,3,,,,,,,,,2,,,41,0
997680,note_on,0,0,2,,,,,,,,,1,,,68,0
997920,note_on,0,0,2,,,,,,,,,1,,,72,127
997920,note_on,0,0,2,,,,,,,,,1,,,68,127
997920,note_on,0,0,2,,,,,,,,,1,,,65,127
997920,note_on,0,0,3,,,,,,,,,2,,,53,101
997920,note_on,240,0,4,,,,,,,,,3,,,29,0
997920,note_on,0,0,4,,,,,,,,,3,,,29,101
997920,note_on,0,0,3,,,,,,,,,2,,,41,101
997920,note_on,0,0,3,,,,,,,,,2,,,41,0
997920,note_on,240,0,3,,,,,,,,,2,,,53,0
997920,note_on,0,0,2,,,,,,,,,1,,,68,0
997920,note_on,240,0,1,,,,,,,,,0,,,84,0
997920,note_on,0,0,1,,,,,,,,,0,,,80,0
997920,note_on,0,0,1,,,,,,,,,0,,,77,0
997920,note_on,0,0,1,,,,,,,,,0,,,77,127
997920,note_on,0,0,1,,,,,,,,,0,,,80,127
997920,note_on,0,0,1,,,,,,,,,0,,,84,127
997920,note_on,0,0,2,,,,,,,,,1,,,65,0
997920,note_on,240,0,2,,,,,,,,,1,,,72,0
998400,note_on,0,0,2,,,,,,,,,1,,,68,0
998400,note_on,0,0,2,,,,,,,,,1,,,65,0
998400,note_on,0,0,2,,,,,,,,,1,,,60,101
998400,note_on,0,0,3,,,,,,,,,2,,,41,101
998400,note_on,0,0,4,,,,,,,,,3,,,29,101
998400,note_on,0,0,3,,,,,,,,,2,,,41,0
998400,note_on,480,0,3,,,,,,,,,2,,,53,0
998400,note_on,480,0,4,,,,,,,,,3,,,29,0
998400,note_on,0,0,1,,,,,,,,,0,,,77,101
998400,note_on,0,0,1,,,,,,,,,0,,,72,101
998400,note_on,0,0,1,,,,,,,,,0,,,80,101
998400,note_on,0,0,1,,,,,,,,,0,,,80,0
998400,note_on,480,0,1,,,,,,,,,0,,,84,0
998400,note_on,0,0,3,,,,,,,,,2,,,53,101
998400,note_on,0,0,2,,,,,,,,,1,,,68,101
998400,note_on,0,0,2,,,,,,,,,1,,,65,101
998400,note_on,0,0,1,,,,,,,,,0,,,77,0
998400,note_on,480,0,2,,,,,,,,,1,,,72,0
998640,note_on,0,0,2,,,,,,,,,1,,,68,101
998640,note_on,0,0,2,,,,,,,,,1,,,65,101
998640,note_on,0,0,2,,,,,,,,,1,,,60,101
998640,note_on,0,0,2,,,,,,,,,1,,,60,0
998640,note_on,0,0,2,,,,,,,,,1,,,65,0
998640,note_on,240,0,2,,,,,,,,,1,,,68,0
998640,note_on,0,0,3,,,,,,,,,2,,,41,0
998640,note_on,0,0,3,,,,,,,,,2,,,53,101
998640,note_on,240,0,3,,,,,,,,,2,,,53,0
998640,note_on,240,0,4,,,,,,,,,3,,,29,0
998640,note_on,0,0,4,,,,,,,,,3,,,29,101
998640,note_on,0,0,1,,,,,,,,,0,,,80,101
998640,note_on,0,0,1,,,,,,,,,0,,,77,101
998640,note_on,0,0,1,,,,,,,,,0,,,72,101
998640,note_on,0,0,1,,,,,,,,,0,,,72,0
998640,note_on,0,0,1,,,,,,,,,0,,,77,0
998640,note_on,240,0,1,,,,,,,,,0,,,80,0
998640,note_on,0,0,3,,,,,,,,,2,,,41,101
998880,note_on,240,0,2,,,,,,,,,1,,,68,0
998880,note_on,0,0,2,,,,,,,,,1,,,65,0
998880,note_on,0,0,2,,,,,,,,,1,,,60,127
998880,note_on,0,0,2,,,,,,,,,1,,,60,0
998880,note_on,0,0,2,,,,,,,,,1,,,68,127
998880,note_on,240,0,1,,,,,,,,,0,,,80,0
998880,note_on,0,0,1,,,,,,,,,0,,,77,0
998880,note_on,0,0,1,,,,,,,,,0,,,72,0
998880,note_on,0,0,1,,,,,,,,,0,,,72,127
998880,note_on,0,0,1,,,,,,,,,0,,,77,127
998880,note_on,0,0,1,,,,,,,,,0,,,80,127
998880,note_on,0,0,4,,,,,,,,,3,,,29,101
998880,note_on,240,0,4,,,,,,,,,3,,,29,0
998880,note_on,0,0,2,,,,,,,,,1,,,65,127
998880,note_on,0,0,3,,,,,,,,,2,,,41,101
998880,note_on,0,0,3,,,,,,,,,2,,,41,0
998880,note_on,240,0,3,,,,,,,,,2,,,53,0
998880,note_on,0,0,3,,,,,,,,,2,,,53,101
999360,note_on,480,0,1,,,,,,,,,0,,,80,0
999360,note_on,0,0,1,,,,,,,,,0,,,77,101
999360,note_on,0,0,1,,,,,,,,,0,,,72,101
999360,note_on,0,0,4,,,,,,,,,3,,,29,101
999360,note_on,480,0,4,,,,,,,,,3,,,29,0
999360,note_on,0,0,1,,,,,,,,,0,,,68,101
999360,note_on,0,0,1,,,,,,,,,0,,,72,0
999360,note_on,0,0,1,,,,,,,,,0,,,77,0
999360,note_on,0,0,2,,,,,,,,,1,,,60,101
999360,note_on,0,0,3,,,,,,,,,2,,,53,101
999360,note_on,0,0,2,,,,,,,,,1,,,65,101
999360,note_on,0,0,3,,,,,,,,,2,,,41,0
999360,note_on,480,0,2,,,,,,,,,1,,,68,0
999360,note_on,480,0,3,,,,,,,,,2,,,53,0
999360,note_on,0,0,2,,,,,,,,,1,,,65,0
999360,note_on,0,0,2,,,,,,,,,1,,,60,0
999360,note_on,0,0,2,,,,,,,,,1,,,56,101
999360,note_on,0,0,3,,,,,,,,,2,,,41,101
999600,note_on,0,0,1,,,,,,,,,0,,,68,0
999600,note_on,0,0,1,,,,,,,,,0,,,72,0
999600,note_on,240,0,1,,,,,,,,,0,,,77,0
999600,note_on,0,0,4,,,,,,,,,3,,,29,101
999600,note_on,240,0,4,,,,,,,,,3,,,29,0
999600,note_on,240,0,2,,,,,,,,,1,,,65,0
999600,note_on,0,0,2,,,,,,,,,1,,,60,0
999600,note_on,0,0,2,,,,,,,,,1,,,65,101
999600,note_on,0,0,2,,,,,,,,,1,,,60,101
999600,note_on,0,0,2,,,,,,,,,1,,,56,101
999600,note_on,0,0,1,,,,,,,,,0,,,77,101
999600,note_on,0,0,1,,,,,,,,,0,,,68,101
999600,note_on,0,0,3,,,,,,,,,2,,,53,101
999600,note_on,0,0,3,,,,,,,,,2,,,41,101
999600,note_on,0,0,3,,,,,,,,,2,,,41,0
999600,note_on,240,0,3,,,,,,,,,2,,,53,0
999600,note_on,0,0,2,,,,,,,,,1,,,56,0
999600,note_on,0,0,1,,,,,,,,,0,,,72,101
999840,note_on,0,0,2,,,,,,,,,1,,,60,0
999840,note_on,240,0,1,,,,,,,,,0,,,77,0
999840,note_on,240,0,4,,,,,,,,,3,,,29,0
999840,note_on,0,0,1,,,,,,,,,0,,,68,0
999840,note_on,0,0,1,,,,,,,,,0,,,68,127
999840,note_on,0,0,1,,,,,,,,,0,,,72,127
999840,note_on,0,0,1,,,,,,,,,0,,,77,127
999840,note_on,0,0,2,,,,,,,,,1,,,56,0
999840,note_on,0,0,2,,,,,,,,,1,,,56,127
999840,note_on,0,0,4,,,,,,,,,3,,,29,127
999840,note_on,240,0,2,,,,,,,,,1,,,65,0
999840,note_on,0,0,2,,,,,,,,,1,,,60,127
999840,note_on,0,0,1,,,,,,,,,0,,,72,0
999840,note_on,0,0,3,,,,,,,,,2,,,53,127
999840,note_on,0,0,3,,,,,,,,,2,,,41,127
999840,note_on,0,0,3,,,,,,,,,2,,,41,0
999840,note_on,240,0,3,,,,,,,,,2,,,53,0
999840,note_on,0,0,2,,,,,,,,,1,,,65,127
1000320,note_on,480,0,3,,,,,,,,,2,,,53,0
1000320,note_on,480,0,4,,,,,,,,,3,,,29,0
1000320,note_on,0,0,4,,,,,,,,,3,,,29,101
1000320,note_on,0,0,3,,,,,,,,,2,,,41,101
1000320,note_on,0,0,3,,,,,,,,,2,,,53,101
1000320,note_on,0,0,3,,,,,,,,,2,,,41,0
1000320,note_on,0,0,2,,,,,,,,,1,,,60,0
1000320,note_on,480,0,2,,,,,,,,,1,,,65,0
1000320,note_on,0,0,1,,,,,,,,,0,,,75,101
1000320,note_on,0,0,1,,,,,,,,,0,,,72,101
1000320,note_on,0,0,1,,,,,,,,,0,,,69,101
1000320,note_on,0,0,1,,,,,,,,,0,,,68,0
1000320,note_on,480,0,1,,,,,,,,,0,,,77,0
1000320,note_on,0,0,1,,,,,,,,,0,,,72,0
1000320,note_on,0,0,2,,,,,,,,,1,,,57,101
1000320,note_on,0,0,2,,,,,,,,,1,,,56,0
1000320,note_on,0,0,2,,,,,,,,,1,,,63,101
1000320,note_on,0,0,2,,,,,,,,,1,,,60,101
1000800,note_on,0,0,1,,,,,,,,,0,,,69,0
1000800,note_on,0,0,1,,,,,,,,,0,,,72,0
1000800,note_on,480,0,4,,,,,,,,,3,,,29,0
1000800,note_on,0,0,2,,,,,,,,,1,,,60,0
1000800,note_on,480,0,1,,,,,,,,,0,,,75,0
1000800,note_on,480,0,2,,,,,,,,,1,,,63,0
1000800,note_on,0,0,2,,,,,,,,,1,,,57,0
1000800,note_on,480,0,3,,,,,,,,,2,,,53,0
1000800,note_on,0,0,3,,,,,,,,,2,,,41,0
1001280,note_on,0,0,1,,,,,,,,,0,,,72,101
1001280,note_on,480,0,1,,,,,,,,,0,,,69,101
1001280,note_on,0,0,3,,,,,,,,,2,,,53,101
1001280,note_on,480,0,2,,,,,,,,,1,,,57,101
1001280,note_on,0,0,1,,,,,,,,,0,,,75,101
1001280,note_on,480,0,4,,,,,,,,,3,,,29,101
1001280,note_on,0,0,2,,,,,,,,,1,,,63,101
1001280,note_on,0,0,2,,,,,,,,,1,,,60,101
1001280,note_on,480,0,3,,,,,,,,,2,,,41,101
1001520,note_on,240,0,4,,,,,,,,,3,,,29,0
1001520,note_on,0,0,4,,,,,,,,,3,,,29,101
1001520,note_on,240,0,1,,,,,,,,,0,,,75,0
1001520,note_on,0,0,3,,,,,,,,,2,,,41,0
1001520,note_on,0,0,1,,,,,,,,,0,,,69,0
1001520,note_on,0,0,1,,,,,,,,,0,,,69,101
1001520,note_on,0,0,1,,,,,,,,,0,,,72,101
1001520,note_on,0,0,3,,,,,,,,,2,,,53,101
1001520,note_on,0,0,3,,,,,,,,,2,,,41,101
1001520,note_on,240,0,3,,,,,,,,,2,,,53,0
1001520,note_on,0,0,1,,,,,,,,,0,,,75,101
1001520,note_on,0,0,1,,,,,,,,,0,,,72,0
1001520,note_on,0,0,2,,,,,,,,,1,,,63,101
1001520,note_on,0,0,2,,,,,,,,,1,,,60,101
1001520,note_on,0,0,2,,,,,,,,,1,,,57,101
1001520,note_on,0,0,2,,,,,,,,,1,,,57,0
1001520,note_on,0,0,2,,,,,,,,,1,,,60,0
1001520,note_on,240,0,2,,,,,,,,,1,,,63,0
1001760,note_on,0,0,4,,,,,,,,,3,,,29,127
1001760,note_on,240,0,4,,,,,,,,,3,,,29,0
1001760,note_on,240,0,2,,,,,,,,,1,,,63,0
1001760,note_on,0,0,2,,,,,,,,,1,,,57,0
1001760,note_on,0,0,2,,,,,,,,,1,,,60,0
1001760,note_on,0,0,2,,,,,,,,,1,,,63,127
1001760,note_on,0,0,2,,,,,,,,,1,,,60,127
1001760,note_on,0,0,2,,,,,,,,,1,,,57,127
1001760,note_on,240,0,1,,,,,,,,,0,,,75,0
1001760,note_on,0,0,1,,,,,,,,,0,,,72,0
1001760,note_on,0,0,1,,,,,,,,,0,,,69,0
1001760,note_on,0,0,1,,,,,,,,,0,,,69,127
1001760,note_on,0,0,1,,,,,,,,,0,,,72,127
1001760,note_on,0,0,1,,,,,,,,,0,,,75,127
1001760,note_on,0,0,3,,,,,,,,,2,,,53,127
1001760,note_on,0,0,3,,,,,,,,,2,,,41,127
1001760,note_on,240,0,3,,,,,,,,,2,,,53,0
1001760,note_on,0,0,3,,,,,,,,,2,,,41,0
1002240,note_on,0,0,3,,,,,,,,,2,,,53,101
1002240,note_on,0,0,3,,,,,,,,,2,,,41,101
1002240,note_on,480,0,3,,,,,,,,,2,,,53,0
1002240,note_on,0,0,1,,,,,,,,,0,,,70,101
1002240,note_on,480,0,4,,,,,,,,,3,,,29,0
1002240,note_on,0,0,1,,,,,,,,,0,,,69,0
1002240,note_on,0,0,1,,,,,,,,,0,,,72,0
1002240,note_on,480,0,1,,,,,,,,,0,,,75,0
1002240,note_on,0,0,1,,,,,,,,,0,,,73,101
1002240,note_on,0,0,4,,,,,,,,,3,,,29,101
1002240,note_on,0,0,3,,,,,,,,,2,,,41,0
1002240,note_on,0,0,2,,,,,,,,,1,,,57,0
1002240,note_on,0,0,2,,,,,,,,,1,,,58,101
1002240,note_on,0,0,2,,,,,,,,,1,,,60,0
1002240,note_on,480,0,2,,,,,,,,,1,,,63,0
1002240,note_on,0,0,2,,,,,,,,,1,,,61,101
1002720,note_on,480,0,1,,,,,,,,,0,,,73,0
1002720,note_on,0,0,1,,,,,,,,,0,,,70,0
1002720,note_on,0,0,3,,,,,,,,,2,,,41,0
1002720,note_on,480,0,3,,,,,,,,,2,,,53,0
1002720,note_on,480,0,4,,,,,,,,,3,,,29,0
1002720,note_on,480,0,2,,,,,,,,,1,,,61,0
1002720,note_on,0,0,2,,,,,,,,,1,,,58,0
1003200,note_on,480,0,4,,,,,,,,,3,,,29,101
1003200,note_on,0,0,4,,,,,,,,,3,,,41,101
1003200,note_on,0,0,3,,,,,,,,,2,,,52,101
1003200,note_on,480,0,2,,,,,,,,,1,,,66,88
1003200,control_change,480,0,3,,,,,,,,,2,64,127,,
1003200,note_on,0,0,1,,,,,,,,,0,,,73,101
1003200,note_on,480,0,1,,,,,,,,,0,,,70,101
1003440,note_on,240,0,4,,,,,,,,,3,,,41,0
1003440,note_on,0,0,1,,,,,,,,,0,,,73,101
1003440,note_on,0,0,1,,,,,,,,,0,,,70,101
1003440,note_on,0,0,1,,,,,,,,,0,,,70,0
1003440,note_on,240,0,1,,,,,,,,,0,,,73,0
1003440,note_on,0,0,4,,,,,,,,,3,,,29,0
1003440,note_on,0,0,4,,,,,,,,,3,,,29,101
1003440,note_on,0,0,3,,,,,,,,,2,,,53,101
1003440,note_on,240,0,2,,,,,,,,,1,,,66,0
1003440,note_on,0,0,2,,,,,,,,,1,,,65,88
1003440,note_on,240,0,3,,,,,,,,,2,,,52,0
1003440,note_on,0,0,4,,,,,,,,,3,,,41,101
1003680,control_change,0,0,3,,,,,,,,,2,64,0,,
1003680,note_on,240,0,3,,,,,,,,,2,,,53,0
1003680,note_on,240,0,1,,,,,,,,,0,,,73,0
1003680,note_on,0,0,1,,,,,,,,,0,,,70,0
1003680,note_on,0,0,3,,,,,,,,,2,,,55,101
1003680,note_on,0,0,2,,,,,,,,,1,,,64,88
1003680,note_on,0,0,4,,,,,,,,,3,,,29,0
1003680,note_on,0,0,4,,,,,,,,,3,,,29,101
1003680,note_on,0,0,4,,,,,,,,,3,,,41,101
1003680,note_on,240,0,2,,,,,,,,,1,,,65,0
1003680,note_on,0,0,1,,,,,,,,,0,,,70,101
1003680,note_on,0,0,1,,,,,,,,,0,,,73,101
1003680,note_on,240,0,4,,,,,,,,,3,,,41,0
1003727,note_on,47,0,2,,,,,,,,,1,,,64,0
1003727,note_on,47,0,4,,,,,,,,,3,,,41,0
1003727,note_on,0,0,4,,,,,,,,,3,,,29,0
1003727,note_on,0,0,1,,,,,,,,,0,,,70,0
1003727,note_on,47,0,1,,,,,,,,,0,,,73,0
1003727,note_on,47,0,3,,,,,,,,,2,,,55,0
1004160,note_on,433,0,1,,,,,,,,,0,,,70,101
1004160,note_on,0,0,1,,,,,,,,,0,,,73,101
1004160,note_on,433,0,3,,,,,,,,,2,,,55,101
1004160,note_on,433,0,4,,,,,,,,,3,,,29,101
1004160,note_on,433,0,2,,,,,,,,,1,,,64,88
1004160,note_on,0,0,4,,,,,,,,,3,,,41,101
1004207,note_on,47,0,1,,,,,,,,,0,,,73,0
1004207,note_on,0,0,1,,,,,,,,,0,,,70,0
1004207,note_on,47,0,2,,,,,,,,,1,,,64,0
1004207,note_on,47,0,4,,,,,,,,,3,,,41,0
1004207,note_on,0,0,4,,,,,,,,,3,,,29,0
1004207,note_on,47,0,3,,,,,,,,,2,,,55,0
1004640,note_on,433,0,3,,,,,,,,,2,,,55,101
1004640,note_on,433,0,2,,,,,,,,,1,,,64,88
1004640,note_on,433,0,4,,,,,,,,,3,,,29,101
1004640,note_on,0,0,4,,,,,,,,,3,,,41,101
1004640,note_on,433,0,1,,,,,,,,,0,,,70,101
1004640,note_on,0,0,1,,,,,,,,,0,,,73,101
1004687,note_on,0,0,1,,,,,,,,,0,,,70,0
1004687,note_on,47,0,1,,,,,,,,,0,,,73,0
1004687,note_on,47,0,2,,,,,,,,,1,,,64,0
1004687,note_on,47,0,4,,,,,,,,,3,,,41,0
1004687,note_on,47,0,3,,,,,,,,,2,,,55,0
1004687,note_on,0,0,4,,,,,,,,,3,,,29,0
1005120,note_on,0,0,4,,,,,,,,,3,,,41,101
1005120,note_on,433,0,2,,,,,,,,,1,,,64,88
1005120,note_on,433,0,3,,,,,,,,,2,,,55,101
1005120,note_on,433,0,1,,,,,,,,,0,,,70,101
1005120,note_on,0,0,1,,,,,,,,,0,,,73,101
1005120,note_on,433,0,4,,,,,,,,,3,,,29,101
1005167,note_on,47,0,2,,,,,,,,,1,,,64,0
1005167,note_on,47,0,1,,,,,,,,,0,,,73,0
1005167,note_on,0,0,1,,,,,,,,,0,,,70,0
1005167,note_on,47,0,3,,,,,,,,,2,,,55,0
1005167,note_on,47,0,4,,,,,,,,,3,,,41,0
1005167,note_on,0,0,4,,,,,,,,,3,,,29,0
1005600,note_on,433,0,2,,,,,,,,,1,,,64,88
1005600,note_on,433,0,4,,,,,,,,,3,,,29,127
1005600,note_on,0,0,4,,,,,,,,,3,,,41,127
1005600,note_on,433,0,1,,,,,,,,,0,,,70,127
1005600,note_on,0,0,1,,,,,,,,,0,,,73,127
1005600,note_on,433,0,3,,,,,,,,,2,,,55,127
1006080,note_on,0,0,1,,,,,,,,,0,,,68,101
1006080,note_on,480,0,1,,,,,,,,,0,,,73,0
1006080,note_on,0,0,1,,,,,,,,,0,,,70,0
1006080,note_on,0,0,1,,,,,,,,,0,,,72,101
1006080,note_on,0,0,3,,,,,,,,,2,,,56,101
1006080,note_on,480,0,2,,,,,,,,,1,,,64,0
1006080,note_on,0,0,2,,,,,,,,,1,,,65,88
1006080,note_on,0,0,4,,,,,,,,,3,,,41,101
1006080,note_on,0,0,4,,,,,,,,,3,,,29,101
1006080,note_on,0,0,4,,,,,,,,,3,,,29,0
1006080,note_on,480,0,4,,,,,,,,,3,,,41,0
1006080,note_on,480,0,3,,,,,,,,,2,,,55,0
1006560,note_on,480,0,3,,,,,,,,,2,,,56,0
1006560,note_on,480,0,2,,,,,,,,,1,,,65,0
1006560,note_on,0,0,4,,,,,,,,,3,,,29,0
1006560,note_on,480,0,4,,,,,,,,,3,,,41,0
1006560,note_on,480,0,1,,,,,,,,,0,,,72,0
1006560,note_on,0,0,1,,,,,,,,,0,,,68,0
1007040,note_on,480,0,2,,,,,,,,,1,,,60,88
1007040,note_on,0,0,4,,,,,,,,,3,,,41,101
1007040,note_on,0,0,1,,,,,,,,,0,,,72,101
1007040,note_on,480,0,4,,,,,,,,,3,,,29,101
1007040,note_on,0,0,3,,,,,,,,,2,,,56,101
1007040,note_on,480,0,3,,,,,,,,,2,,,53,101
1007040,note_on,480,0,1,,,,,,,,,0,,,68,101
1007087,note_on,47,0,1,,,,,,,,,0,,,72,0
1007087,note_on,47,0,2,,,,,,,,,1,,,60,0
1007087,note_on,0,0,1,,,,,,,,,0,,,68,0
1007520,note_on,0,0,4,,,,,,,,,3,,,29,0
1007520,note_on,0,0,3,,,,,,,,,2,,,58,101
1007520,note_on,0,0,3,,,,,,,,,2,,,54,101
1007520,note_on,480,0,4,,,,,,,,,3,,,41,0
1007520,note_on,480,0,3,,,,,,,,,2,,,56,0
1007520,note_on,0,0,4,,,,,,,,,3,,,34,101
1007520,note_on,433,0,2,,,,,,,,,1,,,61,88
1007520,note_on,0,0,4,,,,,,,,,3,,,46,101
1007520,note_on,433,0,1,,,,,,,,,0,,,66,101
1007520,note_on,0,0,1,,,,,,,,,0,,,70,101
1007520,note_on,0,0,3,,,,,,,,,2,,,53,0
1007567,note_on,47,0,3,,,,,,,,,2,,,58,0
1007567,note_on,0,0,3,,,,,,,,,2,,,54,0
1007567,note_on,47,0,2,,,,,,,,,1,,,61,0
1007567,note_on,47,0,1,,,,,,,,,0,,,70,0
1007567,note_on,0,0,1,,,,,,,,,0,,,66,0
1007567,note_on,47,0,4,,,,,,,,,3,,,46,0
1007567,note_on,0,0,4,,,,,,,,,3,,,34,0
1008480,note_on,0,0,4,,,,,,,,,3,,,47,101
1008480,note_on,0,0,3,,,,,,,,,2,,,56,101
1008480,note_on,913,0,4,,,,,,,,,3,,,35,101
1008480,note_on,913,0,2,,,,,,,,,1,,,62,88
1008480,note_on,913,0,1,,,,,,,,,0,,,65,101
1008480,note_on,0,0,1,,,,,,,,,0,,,68,101
1008480,note_on,913,0,3,,,,,,,,,2,,,53,101
1008527,note_on,0,0,3,,,,,,,,,2,,,53,0
1008527,note_on,47,0,4,,,,,,,,,3,,,47,0
1008527,note_on,47,0,2,,,,,,,,,1,,,62,0
1008527,note_on,47,0,3,,,,,,,,,2,,,56,0
1008527,note_on,0,0,4,,,,,,,,,3,,,35,0
1008527,note_on,47,0,1,,,,,,,,,0,,,68,0
1008527,note_on,0,0,1,,,,,,,,,0,,,65,0
1009440,note_on,913,0,3,,,,,,,,,2,,,52,101
1009440,note_on,0,0,4,,,,,,,,,3,,,48,101
1009440,note_on,913,0,4,,,,,,,,,3,,,36,101
1009440,note_on,913,0,1,,,,,,,,,0,,,67,101
1009440,note_on,0,0,3,,,,,,,,,2,,,55,101
1009440,note_on,913,0,2,,,,,,,,,1,,,64,88
1009920,note_on,480,0,2,,,,,,,,,1,,,64,0
1009920,note_on,480,0,4,,,,,,,,,3,,,48,0
1009920,note_on,0,0,3,,,,,,,,,2,,,52,0
1009920,note_on,480,0,3,,,,,,,,,2,,,55,0
1009920,note_on,480,0,1,,,,,,,,,0,,,67,0
1009920,note_on,0,0,1,,,,,,,,,0,,,67,101
1009920,note_on,0,0,4,,,,,,,,,3,,,36,0
1010160,note_on,0,0,1,,,,,,,,,0,,,68,101
1010160,note_on,240,0,1,,,,,,,,,0,,,67,0
1010400,note_on,0,0,1,,,,,,,,,0,,,69,101
1010400,note_on,240,0,1,,,,,,,,,0,,,68,0
1010640,note_on,0,0,1,,,,,,,,,0,,,70,101
1010640,note_on,240,0,1,,,,,,,,,0,,,69,0
1010880,note_on,960,0,3,,,,,,,,,2,,,60,101
1010880,note_on,0,0,1,,,,,,,,,0,,,71,101
1010880,note_on,240,0,1,,,,,,,,,0,,,70,0
1010880,note_on,960,0,4,,,,,,,,,3,,,48,101
1010927,note_on,47,0,4,,,,,,,,,3,,,48,0
1010927,note_on,47,0,3,,,,,,,,,2,,,60,0
1011120,note_on,0,0,1,,,,,,,,,0,,,72,101
1011120,note_on,240,0,1,,,,,,,,,0,,,71,0
1011360,note_on,433,0,4,,,,,,,,,3,,,48,127
1011360,note_on,0,0,1,,,,,,,,,0,,,73,101
1011360,note_on,240,0,1,,,,,,,,,0,,,72,0
1011360,note_on,433,0,3,,,,,,,,,2,,,60,127
1011600,note_on,240,0,1,,,,,,,,,0,,,73,0
1011600,note_on,0,0,1,,,,,,,,,0,,,75,101
1011840,note_on,240,0,1,,,,,,,,,0,,,75,0
1011840,note_on,0,0,1,,,,,,,,,0,,,77,101
1011840,note_on,480,0,4,,,,,,,,,3,,,48,0
1011840,note_on,0,0,4,,,,,,,,,3,,,46,101
1011840,note_on,480,0,3,,,,,,,,,2,,,60,0
1011840,note_on,1920,0,2,,,,,,,,,1,,,65,101
1011840,note_on,0,0,3,,,,,,,,,2,,,58,101
1012080,note_on,240,0,2,,,,,,,,,1,,,65,0
1012080,note_on,240,0,1,,,,,,,,,0,,,77,0
1012080,note_on,0,0,1,,,,,,,,,0,,,75,101
1012080,note_on,0,0,2,,,,,,,,,1,,,63,101
1012320,note_on,0,0,2,,,,,,,,,1,,,61,101
1012320,note_on,480,0,4,,,,,,,,,3,,,46,0
1012320,note_on,480,0,3,,,,,,,,,2,,,58,0
1012320,note_on,240,0,1,,,,,,,,,0,,,75,0
1012320,note_on,0,0,1,,,,,,,,,0,,,73,101
1012320,note_on,240,0,2,,,,,,,,,1,,,63,0
1012560,note_on,240,0,2,,,,,,,,,1,,,61,0
1012560,note_on,0,0,2,,,,,,,,,1,,,60,101
1012560,note_on,0,0,1,,,,,,,,,0,,,72,101
1012560,note_on,240,0,1,,,,,,,,,0,,,73,0
1012800,note_on,480,0,3,,,,,,,,,2,,,58,101
1012800,note_on,0,0,1,,,,,,,,,0,,,73,101
1012800,note_on,240,0,1,,,,,,,,,0,,,72,0
1012800,note_on,480,0,4,,,,,,,,,3,,,46,101
1012800,note_on,240,0,2,,,,,,,,,1,,,60,0
1012800,note_on,0,0,2,,,,,,,,,1,,,61,101
1012847,note_on,47,0,4,,,,,,,,,3,,,46,0
1012847,note_on,47,0,3,,,,,,,,,2,,,58,0
1013040,note_on,0,0,1,,,,,,,,,0,,,77,101
1013040,note_on,240,0,1,,,,,,,,,0,,,73,0
1013040,note_on,0,0,2,,,,,,,,,1,,,65,101
1013040,note_on,240,0,2,,,,,,,,,1,,,61,0
1013280,note_on,433,0,4,,,,,,,,,3,,,46,127
1013280,note_on,433,0,3,,,,,,,,,2,,,58,127
1013280,note_on,240,0,1,,,,,,,,,0,,,77,0
1013280,note_on,240,0,2,,,,,,,,,1,,,65,0
1013280,note_on,0,0,2,,,,,,,,,1,,,64,101
1013280,note_on,0,0,1,,,,,,,,,0,,,76,101
1013520,note_on,0,0,2,,,,,,,,,1,,,67,101
1013520,note_on,240,0,2,,,,,,,,,1,,,64,0
1013520,note_on,240,0,1,,,,,,,,,0,,,76,0
1013520,note_on,0,0,1,,,,,,,,,0,,,79,101
1013760,note_on,480,0,3,,,,,,,,,2,,,58,0
1013760,note_on,0,0,3,,,,,,,,,2,,,56,101
1013760,note_on,480,0,4,,,,,,,,,3,,,46,0
1013760,note_on,0,0,4,,,,,,,,,3,,,44,101
1013760,note_on,240,0,1,,,,,,,,,0,,,79,0
1013760,note_on,0,0,1,,,,,,,,,0,,,77,101
1013760,note_on,240,0,2,,,,,,,,,1,,,67,0
1013760,note_on,0,0,2,,,,,,,,,1,,,65,101
1014000,note_on,0,0,1,,,,,,,,,0,,,76,101
1014000,note_on,240,0,1,,,,,,,,,0,,,77,0
1014000,note_on,240,0,2,,,,,,,,,1,,,65,0
1014000,note_on,0,0,2,,,,,,,,,1,,,64,101
1014240,note_on,480,0,3,,,,,,,,,2,,,56,0
1014240,note_on,480,0,4,,,,,,,,,3,,,44,0
1014240,note_on,0,0,2,,,,,,,,,1,,,65,101
1014240,note_on,0,0,1,,,,,,,,,0,,,77,101
1014240,note_on,240,0,1,,,,,,,,,0,,,76,0
1014240,note_on,240,0,2,,,,,,,,,1,,,64,0
1014480,note_on,0,0,1,,,,,,,,,0,,,80,101
1014480,note_on,240,0,2,,,,,,,,,1,,,65,0
1014480,note_on,0,0,2,,,,,,,,,1,,,68,101
1014480,note_on,240,0,1,,,,,,,,,0,,,77,0
1014720,note_on,240,0,2,,,,,,,,,1,,,68,0
1014720,note_on,0,0,2,,,,,,,,,1,,,72,101
1014720,note_on,480,0,3,,,,,,,,,2,,,56,101
1014720,note_on,480,0,4,,,,,,,,,3,,,44,101
1014720,note_on,0,0,1,,,,,,,,,0,,,84,101
1014720,note_on,240,0,1,,,,,,,,,0,,,80,0
1014960,note_on,0,0,3,,,,,,,,,2,,,55,101
1014960,note_on,0,0,2,,,,,,,,,1,,,73,101
1014960,note_on,240,0,2,,,,,,,,,1,,,72,0
1014960,note_on,240,0,4,,,,,,,,,3,,,44,0
1014960,note_on,0,0,4,,,,,,,,,3,,,43,101
1014960,note_on,0,0,1,,,,,,,,,0,,,85,101
1014960,note_on,240,0,1,,,,,,,,,0,,,84,0
1014960,note_on,240,0,3,,,,,,,,,2,,,56,0
1015200,note_on,0,0,3,,,,,,,,,2,,,54,101
1015200,note_on,0,0,2,,,,,,,,,1,,,75,101
1015200,note_on,240,0,4,,,,,,,,,3,,,43,0
1015200,note_on,0,0,4,,,,,,,,,3,,,42,101
1015200,note_on,240,0,3,,,,,,,,,2,,,55,0
1015200,note_on,240,0,2,,,,,,,,,1,,,73,0
1015200,note_on,0,0,1,,,,,,,,,0,,,87,101
1015200,note_on,240,0,1,,,,,,,,,0,,,85,0
1015247,note_on,47,0,3,,,,,,,,,2,,,54,0
1015247,note_on,47,0,4,,,,,,,,,3,,,42,0
1015440,note_on,0,0,1,,,,,,,,,0,,,85,101
1015440,note_on,240,0,1,,,,,,,,,0,,,87,0
1015440,note_on,0,0,2,,,,,,,,,1,,,73,101
1015440,note_on,240,0,2,,,,,,,,,1,,,75,0
1015680,note_on,0,0,1,,,,,,,,,0,,,84,101
1015680,note_on,240,0,1,,,,,,,,,0,,,85,0
1015680,note_on,433,0,3,,,,,,,,,2,,,54,101
1015680,note_on,433,0,4,,,,,,,,,3,,,42,101
1015680,note_on,0,0,2,,,,,,,,,1,,,72,101
1015680,note_on,240,0,2,,,,,,,,,1,,,73,0
1015727,note_on,47,0,3,,,,,,,,,2,,,54,0
1015727,note_on,47,0,4,,,,,,,,,3,,,42,0
1015920,note_on,240,0,2,,,,,,,,,1,,,72,0
1015920,note_on,0,0,2,,,,,,,,,1,,,70,101
1015920,note_on,0,0,1,,,,,,,,,0,,,82,101
1015920,note_on,240,0,1,,,,,,,,,0,,,84,0
1016160,note_on,433,0,4,,,,,,,,,3,,,42,101
1016160,note_on,240,0,2,,,,,,,,,1,,,70,0
1016160,note_on,0,0,2,,,,,,,,,1,,,72,101
1016160,note_on,0,0,1,,,,,,,,,0,,,84,101
1016160,note_on,240,0,1,,,,,,,,,0,,,82,0
1016160,note_on,433,0,3,,,,,,,,,2,,,54,101
1016207,note_on,47,0,4,,,,,,,,,3,,,42,0
1016207,note_on,47,0,3,,,,,,,,,2,,,54,0
1016400,note_on,0,0,2,,,,,,,,,1,,,68,101
1016400,note_on,240,0,2,,,,,,,,,1,,,72,0
1016400,note_on,240,0,1,,,,,,,,,0,,,84,0
1016400,note_on,0,0,1,,,,,,,,,0,,,80,101
1016640,note_on,433,0,3,,,,,,,,,2,,,54,101
1016640,note_on,433,0,4,,,,,,,,,3,,,42,101
1016640,note_on,240,0,2,,,,,,,,,1,,,68,0
1016640,note_on,0,0,2,,,,,,,,,1,,,70,101
1016640,note_on,240,0,1,,,,,,,,,0,,,80,0
1016640,note_on,0,0,1,,,,,,,,,0,,,82,101
1016687,note_on,47,0,3,,,,,,,,,2,,,54,0
1016687,note_on,47,0,4,,,,,,,,,3,,,42,0
1016880,note_on,0,0,1,,,,,,,,,0,,,84,101
1016880,note_on,0,0,2,,,,,,,,,1,,,72,101
1016880,note_on,240,0,1,,,,,,,,,0,,,82,0
1016880,note_on,240,0,2,,,,,,,,,1,,,70,0
1017120,note_on,433,0,4,,,,,,,,,3,,,42,101
1017120,note_on,240,0,2,,,,,,,,,1,,,72,0
1017120,note_on,433,0,3,,,,,,,,,2,,,54,101
1017120,note_on,240,0,1,,,,,,,,,0,,,84,0
1017120,note_on,0,0,1,,,,,,,,,0,,,85,101
1017120,note_on,0,0,2,,,,,,,,,1,,,73,101
1017360,note_on,240,0,1,,,,,,,,,0,,,85,0
1017360,note_on,0,0,1,,,,,,,,,0,,,84,101
1017360,note_on,240,0,2,,,,,,,,,1,,,73,0
1017360,note_on,0,0,2,,,,,,,,,1,,,72,101
1017600,note_on,0,0,3,,,,,,,,,2,,,53,101
1017600,note_on,480,0,3,,,,,,,,,2,,,54,0
1017600,note_on,0,0,1,,,,,,,,,0,,,85,101
1017600,note_on,480,0,4,,,,,,,,,3,,,42,0
1017600,note_on,240,0,1,,,,,,,,,0,,,84,0
1017600,note_on,0,0,4,,,,,,,,,3,,,41,101
1017600,note_on,240,0,2,,,,,,,,,1,,,72,0
1017600,note_on,0,0,2,,,,,,,,,1,,,73,101
1017840,note_on,240,0,1,,,,,,,,,0,,,85,0
1017840,note_on,0,0,1,,,,,,,,,0,,,87,101
1017840,note_on,240,0,2,,,,,,,,,1,,,73,0
1017840,note_on,0,0,2,,,,,,,,,1,,,75,101
1018080,note_on,240,0,1,,,,,,,,,0,,,87,0
1018080,note_on,0,0,1,,,,,,,,,0,,,89,101
1018080,note_on,0,0,4,,,,,,,,,3,,,37,101
1018080,note_on,480,0,3,,,,,,,,,2,,,53,0
1018080,note_on,0,0,2,,,,,,,,,1,,,77,101
1018080,note_on,480,0,4,,,,,,,,,3,,,41,0
1018080,note_on,0,0,3,,,,,,,,,2,,,49,101
1018080,note_on,240,0,2,,,,,,,,,1,,,75,0
1018320,note_on,240,0,4,,,,,,,,,3,,,37,0
1018320,note_on,0,0,4,,,,,,,,,3,,,39,101
1018320,note_on,240,0,3,,,,,,,,,2,,,49,0
1018320,note_on,0,0,3,,,,,,,,,2,,,51,101
1018560,note_on,480,0,1,,,,,,,,,0,,,89,0
1018560,note_on,0,0,1,,,,,,,,,0,,,77,101
1018560,note_on,240,0,4,,,,,,,,,3,,,39,0
1018560,note_on,480,0,2,,,,,,,,,1,,,77,0
1018560,note_on,240,0,3,,,,,,,,,2,,,51,0
1018560,note_on,0,0,4,,,,,,,,,3,,,40,101
1018560,note_on,0,0,2,,,,,,,,,1,,,65,101
1018560,note_on,0,0,3,,,,,,,,,2,,,52,101
1018607,note_on,47,0,1,,,,,,,,,0,,,77,0
1018607,note_on,47,0,2,,,,,,,,,1,,,65,0
1018800,note_on,0,0,3,,,,,,,,,2,,,53,101
1018800,note_on,240,0,4,,,,,,,,,3,,,40,0
1018800,note_on,0,0,4,,,,,,,,,3,,,41,101
1018800,note_on,240,0,3,,,,,,,,,2,,,52,0
1019040,note_on,240,0,3,,,,,,,,,2,,,53,0
1019040,note_on,0,0,3,,,,,,,,,2,,,54,101
1019040,note_on,433,0,1,,,,,,,,,0,,,77,127
1019040,note_on,240,0,4,,,,,,,,,3,,,41,0
1019040,note_on,0,0,4,,,,,,,,,3,,,42,101
1019040,note_on,433,0,2,,,,,,,,,1,,,65,127
1019280,note_on,240,0,4,,,,,,,,,3,,,42,0
1019280,note_on,0,0,4,,,,,,,,,3,,,44,101
1019280,note_on,0,0,3,,,,,,,,,2,,,56,101
1019280,note_on,240,0,3,,,,,,,,,2,,,54,0
1019520,note_on,0,0,2,,,,,,,,,1,,,63,101
1019520,note_on,0,0,3,,,,,,,,,2,,,58,101
1019520,note_on,240,0,4,,,,,,,,,3,,,44,0
1019520,note_on,480,0,1,,,,,,,,,0,,,77,0
1019520,note_on,0,0,1,,,,,,,,,0,,,75,101
1019520,note_on,0,0,4,,,,,,,,,3,,,46,101
1019520,note_on,240,0,3,,,,,,,,,2,,,56,0
1019520,note_on,480,0,2,,,,,,,,,1,,,65,0
1019760,note_on,240,0,3,,,,,,,,,2,,,58,0
1019760,note_on,240,0,4,,,,,,,,,3,,,46,0
1019760,note_on,0,0,3,,,,,,,,,2,,,56,101
1019760,note_on,0,0,4,,,,,,,,,3,,,44,101
1020000,note_on,0,0,4,,,,,,,,,3,,,42,101
1020000,note_on,240,0,3,,,,,,,,,2,,,56,0
1020000,note_on,0,0,3,,,,,,,,,2,,,54,101
1020000,note_on,240,0,4,,,,,,,,,3,,,44,0
1020000,note_on,480,0,2,,,,,,,,,1,,,63,0
1020000,note_on,480,0,1,,,,,,,,,0,,,75,0
1020240,note_on,240,0,3,,,,,,,,,2,,,54,0
1020240,note_on,240,0,4,,,,,,,,,3,,,42,0
1020240,note_on,0,0,3,,,,,,,,,2,,,53,101
1020240,note_on,0,0,4,,,,,,,,,3,,,41,101
1020480,note_on,480,0,2,,,,,,,,,1,,,63,101
1020480,note_on,480,0,1,,,,,,,,,0,,,75,101
1020480,note_on,0,0,4,,,,,,,,,3,,,42,101
1020480,note_on,0,0,3,,,,,,,,,2,,,54,101
1020480,note_on,240,0,3,,,,,,,,,2,,,53,0
1020480,note_on,240,0,4,,,,,,,,,3,,,41,0
1020527,note_on,47,0,2,,,,,,,,,1,,,63,0
1020527,note_on,47,0,1,,,,,,,,,0,,,75,0
1020720,note_on,0,0,3,,,,,,,,,2,,,58,101
1020720,note_on,0,0,4,,,,,,,,,3,,,46,101
1020720,note_on,240,0,3,,,,,,,,,2,,,54,0
1020720,note_on,240,0,4,,,,,,,,,3,,,42,0
1020960,note_on,240,0,4,,,,,,,,,3,,,46,0
1020960,note_on,433,0,1,,,,,,,,,0,,,75,127
1020960,note_on,0,0,3,,,,,,,,,2,,,57,101
1020960,note_on,0,0,4,,,,,,,,,3,,,45,101
1020960,note_on,433,0,2,,,,,,,,,1,,,63,127
1020960,note_on,240,0,3,,,,,,,,,2,,,58,0
1021200,note_on,0,0,4,,,,,,,,,3,,,48,101
1021200,note_on,0,0,3,,,,,,,,,2,,,60,101
1021200,note_on,240,0,3,,,,,,,,,2,,,57,0
1021200,note_on,240,0,4,,,,,,,,,3,,,45,0
1021440,note_on,480,0,1,,,,,,,,,0,,,75,0
1021440,note_on,0,0,2,,,,,,,,,1,,,61,101
1021440,note_on,480,0,2,,,,,,,,,1,,,63,0
1021440,note_on,0,0,1,,,,,,,,,0,,,73,101
1021440,note_on,0,0,4,,,,,,,,,3,,,46,101
1021440,note_on,0,0,3,,,,,,,,,2,,,58,101
1021440,note_on,240,0,3,,,,,,,,,2,,,60,0
1021440,note_on,240,0,4,,,,,,,,,3,,,48,0
1021680,note_on,0,0,3,,,,,,,,,2,,,57,101
1021680,note_on,240,0,3,,,,,,,,,2,,,58,0
1021680,note_on,240,0,4,,,,,,,,,3,,,46,0
1021680,note_on,0,0,4,,,,,,,,,3,,,45,101
1021920,note_on,480,0,2,,,,,,,,,1,,,61,0
1021920,note_on,0,0,3,,,,,,,,,2,,,58,101
1021920,note_on,240,0,3,,,,,,,,,2,,,57,0
1021920,note_on,240,0,4,,,,,,,,,3,,,45,0
1021920,note_on,0,0,4,,,,,,,,,3,,,46,101
1021920,note_on,480,0,1,,,,,,,,,0,,,73,0
1022160,note_on,240,0,3,,,,,,,,,2,,,58,0
1022160,note_on,240,0,4,,,,,,,,,3,,,46,0
1022160,note_on,0,0,4,,,,,,,,,3,,,42,101
1022160,note_on,0,0,3,,,,,,,,,2,,,54,101
1022400,note_on,240,0,4,,,,,,,,,3,,,42,0
1022400,note_on,0,0,4,,,,,,,,,3,,,41,101
1022400,note_on,240,0,3,,,,,,,,,2,,,54,0
1022400,note_on,0,0,3,,,,,,,,,2,,,53,101
1022400,note_on,480,0,1,,,,,,,,,0,,,85,101
1022400,note_on,480,0,2,,,,,,,,,1,,,73,101
1022640,note_on,240,0,4,,,,,,,,,3,,,41,0
1022640,note_on,0,0,2,,,,,,,,,1,,,72,101
1022640,note_on,0,0,4,,,,,,,,,3,,,39,101
1022640,note_on,0,0,1,,,,,,,,,0,,,84,101
1022640,note_on,240,0,1,,,,,,,,,0,,,85,0
1022640,note_on,0,0,3,,,,,,,,,2,,,51,101
1022640,note_on,240,0,3,,,,,,,,,2,,,53,0
1022640,note_on,240,0,2,,,,,,,,,1,,,73,0
1022880,note_on,0,0,3,,,,,,,,,2,,,53,101
1022880,note_on,240,0,3,,,,,,,,,2,,,51,0
1022880,note_on,240,0,2,,,,,,,,,1,,,72,0
1022880,note_on,0,0,4,,,,,,,,,3,,,41,101
1022880,note_on,240,0,4,,,,,,,,,3,,,39,0
1022880,note_on,0,0,2,,,,,,,,,1,,,71,101
1022880,note_on,0,0,1,,,,,,,,,0,,,83,101
1022880,note_on,240,0,1,,,,,,,,,0,,,84,0
1022927,note_on,47,0,2,,,,,,,,,1,,,71,0
1022927,note_on,47,0,1,,,,,,,,,0,,,83,0
1023120,note_on,240,0,4,,,,,,,,,3,,,41,0
1023120,note_on,0,0,3,,,,,,,,,2,,,54,101
1023120,note_on,240,0,3,,,,,,,,,2,,,53,0
1023120,note_on,0,0,4,,,,,,,,,3,,,42,101
1023360,note_on,433,0,1,,,,,,,,,0,,,83,101
1023360,note_on,240,0,3,,,,,,,,,2,,,54,0
1023360,note_on,433,0,2,,,,,,,,,1,,,71,101
1023360,note_on,0,0,4,,,,,,,,,3,,,44,101
1023360,note_on,240,0,4,,,,,,,,,3,,,42,0
1023360,note_on,0,0,3,,,,,,,,,2,,,56,101
1023407,note_on,47,0,2,,,,,,,,,1,,,71,0
1023407,note_on,47,0,1,,,,,,,,,0,,,83,0
1023600,note_on,0,0,4,,,,,,,,,3,,,42,101
1023600,note_on,240,0,4,,,,,,,,,3,,,44,0
1023600,note_on,240,0,3,,,,,,,,,2,,,56,0
1023600,note_on,0,0,3,,,,,,,,,2,,,54,101
1023840,note_on,433,0,1,,,,,,,,,0,,,83,101
1023840,note_on,240,0,4,,,,,,,,,3,,,42,0
1023840,note_on,0,0,4,,,,,,,,,3,,,41,101
1023840,note_on,0,0,3,,,,,,,,,2,,,53,101
1023840,note_on,240,0,3,,,,,,,,,2,,,54,0
1023840,note_on,433,0,2,,,,,,,,,1,,,71,101
1023887,note_on,47,0,2,,,,,,,,,1,,,71,0
1023887,note_on,47,0,1,,,,,,,,,0,,,83,0
1024080,note_on,0,0,3,,,,,,,,,2,,,49,101
1024080,note_on,0,0,4,,,,,,,,,3,,,37,101
1024080,note_on,240,0,4,,,,,,,,,3,,,41,0
1024080,note_on,240,0,3,,,,,,,,,2,,,53,0
1024320,note_on,433,0,1,,,,,,,,,0,,,83,101
1024320,note_on,433,0,2,,,,,,,,,1,,,71,101
1024320,note_on,240,0,4,,,,,,,,,3,,,37,0
1024320,note_on,0,0,4,,,,,,,,,3,,,39,101
1024320,note_on,240,0,3,,,,,,,,,2,,,49,0
1024320,note_on,0,0,3,,,,,,,,,2,,,51,101
1024367,note_on,47,0,2,,,,,,,,,1,,,71,0
1024367,note_on,47,0,1,,,,,,,,,0,,,83,0
1024560,note_on,240,0,4,,,,,,,,,3,,,39,0
1024560,note_on,240,0,3,,,,,,,,,2,,,51,0
1024560,note_on,0,0,4,,,,,,,,,3,,,41,101
1024560,note_on,0,0,3,,,,,,,,,2,,,53,101
1024800,note_on,240,0,3,,,,,,,,,2,,,53,0
1024800,note_on,0,0,3,,,,,,,,,2,,,54,101
1024800,note_on,433,0,1,,,,,,,,,0,,,83,127
1024800,note_on,240,0,4,,,,,,,,,3,,,41,0
1024800,note_on,0,0,4,,,,,,,,,3,,,42,101
1024800,note_on,433,0,2,,,,,,,,,1,,,71,127
1025040,note_on,0,0,3,,,,,,,,,2,,,53,101
1025040,note_on,240,0,3,,,,,,,,,2,,,54,0
1025040,note_on,240,0,4,,,,,,,,,3,,,42,0
1025040,note_on,0,0,4,,,,,,,,,3,,,41,101
1025280,note_on,0,0,1,,,,,,,,,0,,,82,101
1025280,note_on,480,0,1,,,,,,,,,0,,,83,0
1025280,note_on,0,0,3,,,,,,,,,2,,,54,101
1025280,note_on,240,0,3,,,,,,,,,2,,,53,0
1025280,note_on,240,0,4,,,,,,,,,3,,,41,0
1025280,note_on,480,0,2,,,,,,,,,1,,,71,0
1025280,note_on,0,0,4,,,,,,,,,3,,,42,101
1025280,note_on,0,0,2,,,,,,,,,1,,,70,101
1025520,note_on,0,0,3,,,,,,,,,2,,,56,101
1025520,note_on,240,0,3,,,,,,,,,2,,,54,0
1025520,note_on,240,0,4,,,,,,,,,3,,,42,0
1025520,note_on,0,0,4,,,,,,,,,3,,,44,101
1025760,note_on,480,0,2,,,,,,,,,1,,,70,0
1025760,note_on,0,0,3,,,,,,,,,2,,,54,101
1025760,note_on,240,0,3,,,,,,,,,2,,,56,0
1025760,note_on,480,0,1,,,,,,,,,0,,,82,0
1025760,note_on,240,0,4,,,,,,,,,3,,,44,0
1025760,note_on,0,0,4,,,,,,,,,3,,,42,101
1026000,note_on,0,0,4,,,,,,,,,3,,,41,101
1026000,note_on,0,0,3,,,,,,,,,2,,,53,101
1026000,note_on,240,0,3,,,,,,,,,2,,,54,0
1026000,note_on,240,0,4,,,,,,,,,3,,,42,0
1026240,note_on,240,0,4,,,,,,,,,3,,,41,0
1026240,note_on,0,0,4,,,,,,,,,3,,,39,101
1026240,note_on,480,0,1,,,,,,,,,0,,,82,101
1026240,note_on,240,0,3,,,,,,,,,2,,,53,0
1026240,note_on,480,0,2,,,,,,,,,1,,,70,101
1026240,note_on,0,0,3,,,,,,,,,2,,,51,101
1026480,note_on,240,0,3,,,,,,,,,2,,,51,0
1026480,note_on,0,0,3,,,,,,,,,2,,,49,101
1026480,note_on,0,0,1,,,,,,,,,0,,,81,101
1026480,note_on,0,0,2,,,,,,,,,1,,,69,101
1026480,note_on,240,0,2,,,,,,,,,1,,,70,0
1026480,note_on,240,0,4,,,,,,,,,3,,,39,0
1026480,note_on,0,0,4,,,,,,,,,3,,,37,101
1026480,note_on,240,0,1,,,,,,,,,0,,,82,0
1026720,note_on,240,0,3,,,,,,,,,2,,,49,0
1026720,note_on,0,0,4,,,,,,,,,3,,,35,101
1026720,note_on,0,0,3,,,,,,,,,2,,,47,101
1026720,note_on,240,0,4,,,,,,,,,3,,,37,0
1026720,note_on,0,0,2,,,,,,,,,1,,,68,101
1026720,note_on,240,0,2,,,,,,,,,1,,,69,0
1026720,note_on,0,0,1,,,,,,,,,0,,,80,101
1026720,note_on,240,0,1,,,,,,,,,0,,,81,0
1026767,note_on,47,0,1,,,,,,,,,0,,,80,0
1026767,note_on,47,0,2,,,,,,,,,1,,,68,0
1026960,note_on,0,0,4,,,,,,,,,3,,,39,101
1026960,note_on,240,0,4,,,,,,,,,3,,,35,0
1026960,note_on,240,0,3,,,,,,,,,2,,,47,0
1026960,note_on,0,0,3,,,,,,,,,2,,,51,101
1027200,note_on,433,0,2,,,,,,,,,1,,,68,101
1027200,note_on,433,0,1,,,,,,,,,0,,,80,101
1027200,note_on,240,0,4,,,,,,,,,3,,,39,0
1027200,note_on,240,0,3,,,,,,,,,2,,,51,0
1027200,note_on,0,0,3,,,,,,,,,2,,,50,101
1027200,note_on,0,0,4,,,,,,,,,3,,,38,101
1027247,note_on,47,0,1,,,,,,,,,0,,,80,0
1027247,note_on,47,0,2,,,,,,,,,1,,,68,0
1027440,note_on,0,0,4,,,,,,,,,3,,,37,101
1027440,note_on,240,0,4,,,,,,,,,3,,,38,0
1027440,note_on,0,0,3,,,,,,,,,2,,,49,101
1027440,note_on,240,0,3,,,,,,,,,2,,,50,0
1027680,note_on,240,0,4,,,,,,,,,3,,,37,0
1027680,note_on,433,0,2,,,,,,,,,1,,,68,101
1027680,note_on,0,0,4,,,,,,,,,3,,,38,101
1027680,note_on,433,0,1,,,,,,,,,0,,,80,101
1027680,note_on,240,0,3,,,,,,,,,2,,,49,0
1027680,note_on,0,0,3,,,,,,,,,2,,,50,101
1027727,note_on,47,0,2,,,,,,,,,1,,,68,0
1027727,note_on,47,0,1,,,,,,,,,0,,,80,0
1027920,note_on,240,0,4,,,,,,,,,3,,,38,0
1027920,note_on,240,0,3,,,,,,,,,2,,,50,0
1027920,note_on,0,0,3,,,,,,,,,2,,,46,101
1027920,note_on,0,0,4,,,,,,,,,3,,,34,101
1028160,note_on,433,0,2,,,,,,,,,1,,,68,101
1028160,note_on,0,0,4,,,,,,,,,3,,,36,101
1028160,note_on,240,0,4,,,,,,,,,3,,,34,0
1028160,note_on,0,0,3,,,,,,,,,2,,,48,101
1028160,note_on,240,0,3,,,,,,,,,2,,,46,0
1028160,note_on,433,0,1,,,,,,,,,0,,,80,101
1028207,note_on,47,0,1,,,,,,,,,0,,,80,0
1028207,note_on,47,0,2,,,,,,,,,1,,,68,0
1028400,note_on,240,0,3,,,,,,,,,2,,,48,0
1028400,note_on,0,0,4,,,,,,,,,3,,,38,101
1028400,note_on,240,0,4,,,,,,,,,3,,,36,0
1028400,note_on,0,0,3,,,,,,,,,2,,,50,101
1028640,note_on,0,0,4,,,,,,,,,3,,,39,101
1028640,note_on,240,0,4,,,,,,,,,3,,,38,0
1028640,note_on,240,0,3,,,,,,,,,2,,,50,0
1028640,note_on,433,0,1,,,,,,,,,0,,,80,127
1028640,note_on,0,0,3,,,,,,,,,2,,,51,101
1028640,note_on,433,0,2,,,,,,,,,1,,,68,127
1028880,note_on,0,0,3,,,,,,,,,2,,,50,101
1028880,note_on,240,0,4,,,,,,,,,3,,,39,0
1028880,note_on,0,0,4,,,,,,,,,3,,,38,101
1028880,note_on,240,0,3,,,,,,,,,2,,,51,0
1029120,note_on,0,0,1,,,,,,,,,0,,,78,101
1029120,note_on,240,0,3,,,,,,,,,2,,,50,0
1029120,note_on,0,0,3,,,,,,,,,2,,,51,101
1029120,note_on,480,0,1,,,,,,,,,0,,,80,0
1029120,note_on,240,0,4,,,,,,,,,3,,,38,0
1029120,note_on,480,0,2,,,,,,,,,1,,,68,0
1029120,note_on,0,0,4,,,,,,,,,3,,,39,101
1029120,note_on,0,0,2,,,,,,,,,1,,,66,101
1029360,note_on,0,0,4,,,,,,,,,3,,,41,101
1029360,note_on,240,0,4,,,,,,,,,3,,,39,0
1029360,note_on,240,0,3,,,,,,,,,2,,,51,0
1029360,note_on,0,0,3,,,,,,,,,2,,,53,101
1029600,note_on,480,0,2,,,,,,,,,1,,,66,0
1029600,note_on,240,0,3,,,,,,,,,2,,,53,0
1029600,note_on,0,0,3,,,,,,,,,2,,,51,101
1029600,note_on,480,0,1,,,,,,,,,0,,,78,0
1029600,note_on,240,0,4,,,,,,,,,3,,,41,0
1029600,note_on,0,0,4,,,,,,,,,3,,,39,101
1029840,note_on,0,0,4,,,,,,,,,3,,,37,101
1029840,note_on,240,0,3,,,,,,,,,2,,,51,0
1029840,note_on,0,0,3,,,,,,,,,2,,,49,101
1029840,note_on,240,0,4,,,,,,,,,3,,,39,0
1030080,note_on,0,0,4,,,,,,,,,3,,,35,101
1030080,note_on,240,0,4,,,,,,,,,3,,,37,0
1030080,note_on,0,0,3,,,,,,,,,2,,,47,101
1030080,note_on,0,0,1,,,,,,,,,0,,,78,101
1030080,note_on,0,0,2,,,,,,,,,1,,,66,101
1030080,note_on,240,0,3,,,,,,,,,2,,,49,0
1030080,control_change,480,0,1,,,,,,,,,0,64,127,,
1030080,control_change,480,0,2,,,,,,,,,1,64,127,,
1030320,note_on,240,0,1,,,,,,,,,0,,,78,0
1030320,note_on,0,0,4,,,,,,,,,3,,,34,101
1030320,note_on,0,0,3,,,,,,,,,2,,,46,101
1030320,note_on,0,0,1,,,,,,,,,0,,,77,101
1030320,note_on,240,0,2,,,,,,,,,1,,,66,0
1030320,note_on,0,0,2,,,,,,,,,1,,,65,101
1030320,note_on,240,0,3,,,,,,,,,2,,,47,0
1030320,note_on,240,0,4,,,,,,,,,3,,,35,0
1030560,note_on,240,0,3,,,,,,,,,2,,,46,0
1030560,note_on,0,0,3,,,,,,,,,2,,,44,101
1030560,note_on,240,0,1,,,,,,,,,0,,,77,0
1030560,note_on,240,0,2,,,,,,,,,1,,,65,0
1030560,control_change,0,0,2,,,,,,,,,1,64,0,,
1030560,control_change,0,0,1,,,,,,,,,0,64,0,,
1030560,note_on,0,0,1,,,,,,,,,0,,,76,101
1030560,note_on,0,0,4,,,,,,,,,3,,,32,101
1030560,note_on,240,0,4,,,,,,,,,3,,,34,0
1030560,note_on,0,0,2,,,,,,,,,1,,,64,101
1030800,note_on,0,0,4,,,,,,,,,3,,,35,101
1030800,note_on,0,0,3,,,,,,,,,2,,,47,101
1030800,note_on,240,0,3,,,,,,,,,2,,,44,0
1030800,note_on,240,0,4,,,,,,,,,3,,,32,0
1031040,note_on,0,0,1,,,,,,,,,0,,,78,101
1031040,note_on,0,0,1,,,,,,,,,0,,,85,101
1031040,note_on,0,0,1,,,,,,,,,0,,,88,101
1031040,note_on,480,0,1,,,,,,,,,0,,,76,0
1031040,note_on,240,0,4,,,,,,,,,3,,,35,0
1031040,note_on,0,0,2,,,,,,,,,1,,,66,101
1031040,note_on,0,0,4,,,,,,,,,3,,,34,101
1031040,note_on,0,0,2,,,,,,,,,1,,,73,101
1031040,note_on,0,0,2,,,,,,,,,1,,,76,101
1031040,note_on,240,0,3,,,,,,,,,2,,,47,0
1031040,note_on,0,0,3,,,,,,,,,2,,,46,101
1031040,note_on,480,0,2,,,,,,,,,1,,,64,0
1031087,note_on,0,0,2,,,,,,,,,1,,,66,0
1031087,note_on,47,0,2,,,,,,,,,1,,,76,0
1031087,note_on,0,0,1,,,,,,,,,0,,,85,0
1031087,note_on,0,0,2,,,,,,,,,1,,,73,0
1031087,note_on,47,0,1,,,,,,,,,0,,,88,0
1031087,note_on,0,0,1,,,,,,,,,0,,,78,0
1031280,note_on,0,0,4,,,,,,,,,3,,,32,101
1031280,note_on,240,0,4,,,,,,,,,3,,,34,0
1031280,note_on,240,0,3,,,,,,,,,2,,,46,0
1031280,note_on,0,0,3,,,,,,,,,2,,,44,101
1031520,note_on,433,0,1,,,,,,,,,0,,,78,101
1031520,note_on,0,0,2,,,,,,,,,1,,,73,101
1031520,note_on,0,0,1,,,,,,,,,0,,,85,101
1031520,note_on,0,0,2,,,,,,,,,1,,,76,101
1031520,note_on,240,0,3,,,,,,,,,2,,,44,0
1031520,note_on,0,0,3,,,,,,,,,2,,,46,101
1031520,note_on,0,0,4,,,,,,,,,3,,,34,101
1031520,note_on,240,0,4,,,,,,,,,3,,,32,0
1031520,note_on,433,0,2,,,,,,,,,1,,,66,101
1031520,note_on,0,0,1,,,,,,,,,0,,,88,101
1031567,note_on,47,0,2,,,,,,,,,1,,,76,0
1031567,note_on,0,0,1,,,,,,,,,0,,,85,0
1031567,note_on,0,0,1,,,,,,,,,0,,,78,0
1031567,note_on,47,0,1,,,,,,,,,0,,,88,0
1031567,note_on,0,0,2,,,,,,,,,1,,,66,0
1031567,note_on,0,0,2,,,,,,,,,1,,,73,0
1031760,note_on,240,0,4,,,,,,,,,3,,,34,0
1031760,note_on,0,0,4,,,,,,,,,3,,,30,101
1031760,note_on,0,0,3,,,,,,,,,2,,,42,101
1031760,note_on,240,0,3,,,,,,,,,2,,,46,0
1032000,note_on,240,0,3,,,,,,,,,2,,,42,0
1032000,note_on,433,0,1,,,,,,,,,0,,,78,101
1032000,note_on,240,0,4,,,,,,,,,3,,,30,0
1032000,note_on,0,0,4,,,,,,,,,3,,,32,101
1032000,note_on,433,0,2,,,,,,,,,1,,,66,101
1032000,note_on,0,0,2,,,,,,,,,1,,,73,101
1032000,note_on,0,0,2,,,,,,,,,1,,,76,101
1032000,note_on,0,0,1,,,,,,,,,0,,,88,101
1032000,note_on,0,0,1,,,,,,,,,0,,,85,101
1032000,note_on,0,0,3,,,,,,,,,2,,,44,101
1032047,note_on,0,0,1,,,,,,,,,0,,,78,0
1032047,note_on,0,0,2,,,,,,,,,1,,,66,0
1032047,note_on,47,0,2,,,,,,,,,1,,,76,0
1032047,note_on,47,0,1,,,,,,,,,0,,,88,0
1032047,note_on,0,0,1,,,,,,,,,0,,,85,0
1032047,note_on,0,0,2,,,,,,,,,1,,,73,0
1032240,note_on,240,0,3,,,,,,,,,2,,,44,0
1032240,note_on,0,0,4,,,,,,,,,3,,,34,101
1032240,note_on,240,0,4,,,,,,,,,3,,,32,0
1032240,note_on,0,0,3,,,,,,,,,2,,,46,101
1032480,note_on,0,0,2,,,,,,,,,1,,,66,101
1032480,note_on,0,0,2,,,,,,,,,1,,,73,101
1032480,control_change,433,0,1,,,,,,,,,0,64,127,,
1032480,note_on,0,0,1,,,,,,,,,0,,,88,101
1032480,note_on,0,0,1,,,,,,,,,0,,,78,101
1032480,control_change,433,0,2,,,,,,,,,1,64,127,,
1032480,note_on,0,0,2,,,,,,,,,1,,,76,101
1032480,note_on,0,0,1,,,,,,,,,0,,,85,101
1032480,note_on,0,0,3,,,,,,,,,2,,,47,101
1032480,note_on,240,0,3,,,,,,,,,2,,,46,0
1032480,note_on,0,0,4,,,,,,,,,3,,,35,101
1032480,note_on,240,0,4,,,,,,,,,3,,,34,0
1032960,note_on,0,0,3,,,,,,,,,2,,,62,101
1032960,note_on,480,0,3,,,,,,,,,2,,,47,0
1032960,note_on,480,0,4,,,,,,,,,3,,,35,0
1032960,note_on,0,0,4,,,,,,,,,3,,,50,101
1032960,note_on,0,0,4,,,,,,,,,3,,,54,101
1032960,note_on,0,0,1,,,,,,,,,0,,,78,0
1032960,note_on,0,0,1,,,,,,,,,0,,,83,101
1032960,note_on,0,0,1,,,,,,,,,0,,,86,101
1032960,note_on,480,0,1,,,,,,,,,0,,,88,0
1032960,note_on,0,0,1,,,,,,,,,0,,,85,0
1032960,note_on,480,0,2,,,,,,,,,1,,,76,0
1032960,note_on,0,0,3,,,,,,,,,2,,,66,101
1032960,note_on,0,0,2,,,,,,,,,1,,,66,0
1032960,note_on,0,0,2,,,,,,,,,1,,,71,101
1032960,note_on,0,0,2,,,,,,,,,1,,,73,0
1032960,note_on,0,0,2,,,,,,,,,1,,,74,101
1033007,note_on,0,0,3,,,,,,,,,2,,,62,0
1033007,note_on,47,0,4,,,,,,,,,3,,,54,0
1033007,note_on,0,0,4,,,,,,,,,3,,,50,0
1033007,note_on,47,0,3,,,,,,,,,2,,,66,0
1033200,note_on,0,0,2,,,,,,,,,1,,,73,101
1033200,note_on,0,0,2,,,,,,,,,1,,,71,0
1033200,note_on,240,0,2,,,,,,,,,1,,,74,0
1033200,note_on,240,0,1,,,,,,,,,0,,,86,0
1033200,note_on,0,0,1,,,,,,,,,0,,,83,0
1033200,note_on,0,0,1,,,,,,,,,0,,,85,101
1033440,note_on,240,0,1,,,,,,,,,0,,,85,0
1033440,note_on,433,0,3,,,,,,,,,2,,,62,101
1033440,note_on,0,0,3,,,,,,,,,2,,,66,101
1033440,note_on,0,0,2,,,,,,,,,1,,,71,101
1033440,note_on,0,0,4,,,,,,,,,3,,,54,101
1033440,note_on,433,0,4,,,,,,,,,3,,,50,101
1033440,note_on,0,0,1,,,,,,,,,0,,,83,101
1033440,note_on,240,0,2,,,,,,,,,1,,,73,0
1033487,note_on,0,0,4,,,,,,,,,3,,,50,0
1033487,note_on,47,0,3,,,,,,,,,2,,,66,0
1033487,note_on,0,0,3,,,,,,,,,2,,,62,0
1033487,note_on,47,0,4,,,,,,,,,3,,,54,0
1033680,note_on,240,0,2,,,,,,,,,1,,,71,0
1033680,note_on,240,0,1,,,,,,,,,0,,,83,0
1033680,note_on,0,0,1,,,,,,,,,0,,,86,101
1033680,note_on,0,0,2,,,,,,,,,1,,,74,101
1033920,note_on,433,0,4,,,,,,,,,3,,,50,101
1033920,note_on,0,0,1,,,,,,,,,0,,,85,101
1033920,note_on,0,0,3,,,,,,,,,2,,,66,101
1033920,note_on,433,0,3,,,,,,,,,2,,,62,101
1033920,note_on,0,0,4,,,,,,,,,3,,,54,101
1033920,note_on,240,0,1,,,,,,,,,0,,,86,0
1033920,note_on,240,0,2,,,,,,,,,1,,,74,0
1033920,note_on,0,0,2,,,,,,,,,1,,,73,101
1033967,note_on,47,0,3,,,,,,,,,2,,,66,0
1033967,note_on,0,0,3,,,,,,,,,2,,,62,0
1033967,note_on,47,0,4,,,,,,,,,3,,,54,0
1033967,note_on,0,0,4,,,,,,,,,3,,,50,0
1034160,note_on,0,0,2,,,,,,,,,1,,,71,101
1034160,note_on,240,0,2,,,,,,,,,1,,,73,0
1034160,note_on,240,0,1,,,,,,,,,0,,,85,0
1034160,note_on,0,0,1,,,,,,,,,0,,,83,101
1034400,control_change,0,0,2,,,,,,,,,1,64,0,,
1034400,note_on,0,0,2,,,,,,,,,1,,,70,101
1034400,note_on,240,0,2,,,,,,,,,1,,,71,0
1034400,note_on,0,0,4,,,,,,,,,3,,,54,127
1034400,note_on,0,0,4,,,,,,,,,3,,,50,127
1034400,note_on,0,0,1,,,,,,,,,0,,,82,101
1034400,control_change,433,0,4,,,,,,,,,3,64,127,,
1034400,control_change,0,0,1,,,,,,,,,0,64,0,,
1034400,control_change,433,0,3,,,,,,,,,2,64,127,,
1034400,note_on,0,0,3,,,,,,,,,2,,,62,127
1034400,note_on,0,0,3,,,,,,,,,2,,,66,127
1034400,note_on,240,0,1,,,,,,,,,0,,,83,0
1034447,note_on,47,0,2,,,,,,,,,1,,,70,0
1034447,note_on,47,0,1,,,,,,,,,0,,,82,0
1034880,note_on,433,0,1,,,,,,,,,0,,,78,101
1034880,note_on,0,0,3,,,,,,,,,2,,,61,101
1034880,note_on,433,0,2,,,,,,,,,1,,,66,101
1034880,note_on,0,0,2,,,,,,,,,1,,,73,101
1034880,note_on,0,0,2,,,,,,,,,1,,,76,101
1034880,note_on,0,0,1,,,,,,,,,0,,,88,101
1034880,note_on,0,0,1,,,,,,,,,0,,,85,101
1034880,note_on,480,0,3,,,,,,,,,2,,,66,0
1034880,note_on,0,0,3,,,,,,,,,2,,,62,0
1034880,note_on,480,0,4,,,,,,,,,3,,,54,0
1034880,note_on,0,0,4,,,,,,,,,3,,,49,101
1034880,note_on,0,0,4,,,,,,,,,3,,,50,0
1034927,note_on,0,0,1,,,,,,,,,0,,,85,0
1034927,note_on,47,0,2,,,,,,,,,1,,,76,0
1034927,note_on,0,0,2,,,,,,,,,1,,,66,0
1034927,note_on,0,0,2,,,,,,,,,1,,,73,0
1034927,note_on,0,0,1,,,,,,,,,0,,,78,0
1034927,note_on,47,0,1,,,,,,,,,0,,,88,0
1035120,note_on,0,0,3,,,,,,,,,2,,,59,101
1035120,note_on,240,0,3,,,,,,,,,2,,,61,0
1035120,note_on,0,0,4,,,,,,,,,3,,,47,101
1035120,note_on,240,0,4,,,,,,,,,3,,,49,0
1035360,note_on,433,0,1,,,,,,,,,0,,,78,101
1035360,note_on,0,0,1,,,,,,,,,0,,,85,101
1035360,note_on,0,0,1,,,,,,,,,0,,,88,101
1035360,note_on,433,0,2,,,,,,,,,1,,,66,101
1035360,note_on,0,0,4,,,,,,,,,3,,,46,101
1035360,note_on,240,0,4,,,,,,,,,3,,,47,0
1035360,note_on,240,0,3,,,,,,,,,2,,,59,0
1035360,note_on,0,0,3,,,,,,,,,2,,,58,101
1035360,note_on,0,0,2,,,,,,,,,1,,,73,101
1035360,note_on,0,0,2,,,,,,,,,1,,,76,101
1035407,note_on,47,0,2,,,,,,,,,1,,,76,0
1035407,note_on,0,0,2,,,,,,,,,1,,,73,0
1035407,note_on,0,0,1,,,,,,,,,0,,,78,0
1035407,note_on,0,0,1,,,,,,,,,0,,,85,0
1035407,note_on,47,0,1,,,,,,,,,0,,,88,0
1035407,note_on,0,0,2,,,,,,,,,1,,,66,0
1035600,note_on,0,0,4,,,,,,,,,3,,,42,101
1035600,note_on,240,0,4,,,,,,,,,3,,,46,0
1035600,note_on,0,0,3,,,,,,,,,2,,,54,101
1035600,note_on,240,0,3,,,,,,,,,2,,,58,0
1035840,note_on,0,0,1,,,,,,,,,0,,,85,101
1035840,note_on,433,0,1,,,,,,,,,0,,,78,101
1035840,note_on,240,0,4,,,,,,,,,3,,,42,0
1035840,note_on,0,0,1,,,,,,,,,0,,,88,101
1035840,note_on,0,0,4,,,,,,,,,3,,,44,101
1035840,note_on,433,0,2,,,,,,,,,1,,,66,101
1035840,note_on,0,0,2,,,,,,,,,1,,,73,101
1035840,note_on,0,0,2,,,,,,,,,1,,,76,101
1035840,note_on,240,0,3,,,,,,,,,2,,,54,0
1035840,note_on,0,0,3,,,,,,,,,2,,,56,101
1035887,note_on,47,0,2,,,,,,,,,1,,,76,0
1035887,note_on,0,0,2,,,,,,,,,1,,,73,0
1035887,note_on,0,0,2,,,,,,,,,1,,,66,0
1035887,note_on,0,0,1,,,,,,,,,0,,,78,0
1035887,note_on,0,0,1,,,,,,,,,0,,,85,0
1035887,note_on,47,0,1,,,,,,,,,0,,,88,0
1036080,note_on,240,0,3,,,,,,,,,2,,,56,0
1036080,note_on,0,0,4,,,,,,,,,3,,,46,101
1036080,note_on,240,0,4,,,,,,,,,3,,,44,0
1036080,note_on,0,0,3,,,,,,,,,2,,,58,101
1036320,note_on,240,0,3,,,,,,,,,2,,,58,0
1036320,control_change,433,0,1,,,,,,,,,0,64,127,,
1036320,note_on,0,0,1,,,,,,,,,0,,,78,101
1036320,note_on,0,0,4,,,,,,,,,3,,,47,127
1036320,note_on,240,0,4,,,,,,,,,3,,,46,0
1036320,note_on,0,0,3,,,,,,,,,2,,,59,127
1036320,note_on,0,0,1,,,,,,,,,0,,,88,101
1036320,note_on,0,0,1,,,,,,,,,0,,,85,101
1036320,control_change,433,0,2,,,,,,,,,1,64,127,,
1036320,note_on,0,0,2,,,,,,,,,1,,,66,101
1036320,note_on,0,0,2,,,,,,,,,1,,,73,101
1036320,note_on,0,0,2,,,,,,,,,1,,,76,101
1036560,control_change,0,0,4,,,,,,,,,3,64,0,,
1036560,note_on,240,0,4,,,,,,,,,3,,,47,0
1036560,control_change,0,0,3,,,,,,,,,2,64,0,,
1036560,note_on,240,0,3,,,,,,,,,2,,,59,0
1036560,note_on,0,0,4,,,,,,,,,3,,,49,101
1036560,note_on,0,0,3,,,,,,,,,2,,,61,101
1036800,note_on,0,0,4,,,,,,,,,3,,,50,101
1036800,note_on,0,0,4,,,,,,,,,3,,,54,101
1036800,note_on,0,0,1,,,,,,,,,0,,,86,101
1036800,note_on,0,0,1,,,,,,,,,0,,,83,101
1036800,note_on,0,0,1,,,,,,,,,0,,,78,0
1036800,note_on,240,0,3,,,,,,,,,2,,,61,0
1036800,note_on,0,0,3,,,,,,,,,2,,,62,101
1036800,note_on,0,0,3,,,,,,,,,2,,,66,101
1036800,note_on,480,0,2,,,,,,,,,1,,,76,0
1036800,note_on,0,0,2,,,,,,,,,1,,,73,0
1036800,note_on,0,0,2,,,,,,,,,1,,,66,0
1036800,note_on,0,0,2,,,,,,,,,1,,,71,101
1036800,note_on,0,0,2,,,,,,,,,1,,,74,101
1036800,note_on,480,0,1,,,,,,,,,0,,,88,0
1036800,note_on,0,0,1,,,,,,,,,0,,,85,0
1036800,note_on,240,0,4,,,,,,,,,3,,,49,0
1037040,note_on,240,0,2,,,,,,,,,1,,,74,0
1037040,control_change,0,0,1,,,,,,,,,0,64,0,,
1037040,control_change,0,0,2,,,,,,,,,1,64,0,,
1037040,note_on,0,0,1,,,,,,,,,0,,,85,101
1037040,note_on,0,0,1,,,,,,,,,0,,,83,0
1037040,note_on,240,0,1,,,,,,,,,0,,,86,0
1037040,note_on,0,0,2,,,,,,,,,1,,,71,0
1037040,note_on,0,0,2,,,,,,,,,1,,,73,101
1037280,note_on,240,0,1,,,,,,,,,0,,,85,0
1037280,note_on,0,0,2,,,,,,,,,1,,,71,101
1037280,note_on,0,0,3,,,,,,,,,2,,,66,101
1037280,note_on,0,0,3,,,,,,,,,2,,,62,101
1037280,note_on,240,0,2,,,,,,,,,1,,,73,0
1037280,note_on,480,0,3,,,,,,,,,2,,,66,0
1037280,note_on,0,0,4,,,,,,,,,3,,,54,101
1037280,note_on,0,0,4,,,,,,,,,3,,,50,101
1037280,note_on,0,0,4,,,,,,,,,3,,,50,0
1037280,note_on,480,0,4,,,,,,,,,3,,,54,0
1037280,note_on,0,0,3,,,,,,,,,2,,,62,0
1037280,note_on,0,0,1,,,,,,,,,0,,,83,101
1037520,note_on,0,0,1,,,,,,,,,0,,,86,101
1037520,note_on,240,0,2,,,,,,,,,1,,,71,0
1037520,note_on,240,0,1,,,,,,,,,0,,,83,0
1037520,note_on,0,0,2,,,,,,,,,1,,,74,101
1037760,note_on,0,0,1,,,,,,,,,0,,,83,127
1037760,note_on,0,0,4,,,,,,,,,3,,,38,127
1037760,note_on,0,0,4,,,,,,,,,3,,,50,0
1037760,note_on,480,0,4,,,,,,,,,3,,,54,0
1037760,note_on,240,0,2,,,,,,,,,1,,,74,0
1037760,note_on,0,0,2,,,,,,,,,1,,,71,127
1037760,note_on,0,0,3,,,,,,,,,2,,,50,127
1037760,note_on,240,0,1,,,,,,,,,0,,,86,0
1037760,note_on,0,0,3,,,,,,,,,2,,,62,0
1037760,note_on,480,0,3,,,,,,,,,2,,,66,0
1038000,note_on,240,0,1,,,,,,,,,0,,,83,0
1038000,note_on,0,0,1,,,,,,,,,0,,,82,101
1038000,note_on,0,0,3,,,,,,,,,2,,,49,101
1038000,note_on,240,0,3,,,,,,,,,2,,,50,0
1038000,note_on,0,0,2,,,,,,,,,1,,,70,101
1038000,note_on,240,0,2,,,,,,,,,1,,,71,0
1038000,note_on,240,0,4,,,,,,,,,3,,,38,0
1038000,note_on,0,0,4,,,,,,,,,3,,,37,101
1038240,note_on,0,0,2,,,,,,,,,1,,,69,101
1038240,note_on,0,0,1,,,,,,,,,0,,,81,101
1038240,note_on,240,0,3,,,,,,,,,2,,,49,0
1038240,note_on,0,0,3,,,,,,,,,2,,,48,101
1038240,note_on,240,0,4,,,,,,,,,3,,,37,0
1038240,note_on,0,0,4,,,,,,,,,3,,,36,101
1038240,note_on,240,0,2,,,,,,,,,1,,,70,0
1038240,note_on,240,0,1,,,,,,,,,0,,,82,0
1038287,note_on,47,0,4,,,,,,,,,3,,,36,0
1038287,note_on,47,0,3,,,,,,,,,2,,,48,0
1038480,note_on,240,0,2,,,,,,,,,1,,,69,0
1038480,note_on,0,0,2,,,,,,,,,1,,,66,101
1038480,note_on,240,0,1,,,,,,,,,0,,,81,0
1038480,note_on,0,0,1,,,,,,,,,0,,,78,101
1038720,note_on,0,0,2,,,,,,,,,1,,,74,62
1038720,note_on,240,0,2,,,,,,,,,1,,,66,0
1038720,note_on,0,0,3,,,,,,,,,2,,,62,49
1038720,note_on,0,0,3,,,,,,,,,2,,,57,49
1038720,note_on,240,0,1,,,,,,,,,0,,,78,0
1038720,note_on,433,0,4,,,,,,,,,3,,,48,62
1038720,note_on,433,0,3,,,,,,,,,2,,,54,49
1038720,note_on,0,0,1,,,,,,,,,0,,,86,62
1038960,note_on,0,0,1,,,,,,,,,0,,,84,62
1038960,note_on,240,0,2,,,,,,,,,1,,,74,0
1038960,note_on,0,0,2,,,,,,,,,1,,,72,62
1038960,note_on,240,0,1,,,,,,,,,0,,,86,0
1039200,note_on,240,0,1,,,,,,,,,0,,,84,0
1039200,note_on,0,0,1,,,,,,,,,0,,,83,62
1039200,note_on,0,0,2,,,,,,,,,1,,,71,62
1039200,note_on,0,0,3,,,,,,,,,2,,,57,49
1039200,note_on,0,0,3,,,,,,,,,2,,,62,49
1039200,note_on,0,0,3,,,,,,,,,2,,,54,49
1039200,note_on,0,0,3,,,,,,,,,2,,,57,0
1039200,note_on,480,0,3,,,,,,,,,2,,,62,0
1039200,note_on,0,0,4,,,,,,,,,3,,,48,62
1039200,note_on,480,0,4,,,,,,,,,3,,,48,0
1039200,note_on,0,0,3,,,,,,,,,2,,,54,0
1039200,note_on,240,0,2,,,,,,,,,1,,,72,0
1039440,note_on,0,0,1,,,,,,,,,0,,,81,62
1039440,note_on,0,0,2,,,,,,,,,1,,,69,62
1039440,note_on,240,0,1,,,,,,,,,0,,,83,0
1039440,note_on,240,0,2,,,,,,,,,1,,,71,0
1039680,note_on,240,0,1,,,,,,,,,0,,,81,0
1039680,note_on,0,0,1,,,,,,,,,0,,,79,62
1039680,note_on,0,0,3,,,,,,,,,2,,,62,49
1039680,note_on,0,0,3,,,,,,,,,2,,,57,49
1039680,note_on,0,0,3,,,,,,,,,2,,,54,49
1039680,note_on,0,0,3,,,,,,,,,2,,,54,0
1039680,note_on,480,0,3,,,,,,,,,2,,,62,0
1039680,note_on,240,0,2,,,,,,,,,1,,,69,0
1039680,note_on,0,0,4,,,,,,,,,3,,,48,62
1039680,note_on,480,0,4,,,,,,,,,3,,,48,0
1039680,note_on,0,0,2,,,,,,,,,1,,,67,62
1039680,note_on,0,0,3,,,,,,,,,2,,,57,0
1039920,note_on,0,0,2,,,,,,,,,1,,,66,62
1039920,note_on,0,0,1,,,,,,,,,0,,,78,62
1039920,note_on,240,0,1,,,,,,,,,0,,,79,0
1039920,note_on,240,0,2,,,,,,,,,1,,,67,0
1040160,note_on,0,0,3,,,,,,,,,2,,,62,49
1040160,note_on,0,0,3,,,,,,,,,2,,,57,0
1040160,note_on,480,0,3,,,,,,,,,2,,,62,0
1040160,note_on,0,0,3,,,,,,,,,2,,,54,0
1040160,note_on,0,0,3,,,,,,,,,2,,,57,49
1040160,note_on,240,0,1,,,,,,,,,0,,,78,0
1040160,note_on,240,0,2,,,,,,,,,1,,,66,0
1040160,note_on,0,0,2,,,,,,,,,1,,,67,62
1040160,note_on,0,0,1,,,,,,,,,0,,,79,62
1040160,note_on,480,0,4,,,,,,,,,3,,,48,0
1040160,note_on,0,0,4,,,,,,,,,3,,,48,62
1040400,note_on,240,0,2,,,,,,,,,1,,,67,0
1040400,note_on,0,0,2,,,,,,,,,1,,,66,62
1040400,note_on,0,0,1,,,,,,,,,0,,,78,62
1040400,note_on,240,0,1,,,,,,,,,0,,,79,0
1040640,note_on,0,0,1,,,,,,,,,0,,,79,62
1040640,note_on,240,0,1,,,,,,,,,0,,,78,0
1040640,note_on,480,0,4,,,,,,,,,3,,,48,0
1040640,note_on,0,0,4,,,,,,,,,3,,,47,62
1040640,note_on,480,0,3,,,,,,,,,2,,,62,0
1040640,note_on,0,0,3,,,,,,,,,2,,,55,49
1040640,note_on,0,0,3,,,,,,,,,2,,,62,49
1040640,note_on,0,0,3,,,,,,,,,2,,,57,0
1040640,note_on,0,0,2,,,,,,,,,1,,,67,62
1040640,note_on,240,0,2,,,,,,,,,1,,,66,0
1040880,note_on,240,0,2,,,,,,,,,1,,,67,0
1040880,note_on,240,0,1,,,,,,,,,0,,,79,0
1040880,note_on,0,0,1,,,,,,,,,0,,,81,62
1040880,note_on,0,0,2,,,,,,,,,1,,,69,62
1041120,note_on,240,0,2,,,,,,,,,1,,,69,0
1041120,note_on,0,0,2,,,,,,,,,1,,,71,62
1041120,note_on,480,0,4,,,,,,,,,3,,,47,0
1041120,note_on,240,0,1,,,,,,,,,0,,,81,0
1041120,note_on,480,0,3,,,,,,,,,2,,,62,0
1041120,note_on,0,0,3,,,,,,,,,2,,,55,0
1041120,note_on,0,0,1,,,,,,,,,0,,,83,62
1041360,note_on,240,0,2,,,,,,,,,1,,,71,0
1041360,note_on,0,0,2,,,,,,,,,1,,,69,62
1041360,note_on,240,0,1,,,,,,,,,0,,,83,0
1041360,note_on,0,0,1,,,,,,,,,0,,,81,62
1041600,note_on,480,0,4,,,,,,,,,3,,,35,88
1041600,note_on,240,0,2,,,,,,,,,1,,,69,0
1041600,note_on,0,0,2,,,,,,,,,1,,,68,88
1041600,note_on,240,0,1,,,,,,,,,0,,,81,0
1041600,note_on,0,0,1,,,,,,,,,0,,,80,88
1041600,note_on,480,0,3,,,,,,,,,2,,,47,88
1041840,note_on,0,0,1,,,,,,,,,0,,,79,62
1041840,note_on,240,0,3,,,,,,,,,2,,,47,0
1041840,note_on,240,0,4,,,,,,,,,3,,,35,0
1041840,note_on,0,0,3,,,,,,,,,2,,,46,62
1041840,note_on,240,0,2,,,,,,,,,1,,,68,0
1041840,note_on,0,0,2,,,,,,,,,1,,,67,62
1041840,note_on,240,0,1,,,,,,,,,0,,,80,0
1041840,note_on,0,0,4,,,,,,,,,3,,,34,62
1042080,note_on,240,0,1,,,,,,,,,0,,,79,0
1042080,note_on,0,0,1,,,,,,,,,0,,,78,62
1042080,note_on,0,0,2,,,,,,,,,1,,,66,62
1042080,note_on,240,0,4,,,,,,,,,3,,,34,0
1042080,note_on,0,0,4,,,,,,,,,3,,,33,62
1042080,note_on,240,0,3,,,,,,,,,2,,,46,0
1042080,note_on,0,0,3,,,,,,,,,2,,,45,62
1042080,note_on,240,0,2,,,,,,,,,1,,,67,0
1042127,note_on,47,0,4,,,,,,,,,3,,,33,0
1042127,note_on,47,0,3,,,,,,,,,2,,,45,0
1042320,note_on,0,0,1,,,,,,,,,0,,,75,62
1042320,note_on,0,0,2,,,,,,,,,1,,,63,62
1042320,note_on,240,0,2,,,,,,,,,1,,,66,0
1042320,note_on,240,0,1,,,,,,,,,0,,,78,0
1042560,note_on,433,0,4,,,,,,,,,3,,,45,62
1042560,note_on,433,0,3,,,,,,,,,2,,,51,49
1042560,note_on,0,0,3,,,,,,,,,2,,,54,49
1042560,note_on,0,0,3,,,,,,,,,2,,,59,49
1042560,note_on,0,0,1,,,,,,,,,0,,,83,62
1042560,note_on,240,0,1,,,,,,,,,0,,,75,0
1042560,note_on,0,0,2,,,,,,,,,1,,,71,62
1042560,note_on,240,0,2,,,,,,,,,1,,,63,0
1042800,note_on,240,0,1,,,,,,,,,0,,,83,0
1042800,note_on,0,0,1,,,,,,,,,0,,,81,62
1042800,note_on,0,0,2,,,,,,,,,1,,,69,62
1042800,note_on,240,0,2,,,,,,,,,1,,,71,0
1043040,note_on,0,0,3,,,,,,,,,2,,,51,0
1043040,note_on,0,0,2,,,,,,,,,1,,,67,62
1043040,note_on,240,0,2,,,,,,,,,1,,,69,0
1043040,note_on,480,0,3,,,,,,,,,2,,,59,0
1043040,note_on,0,0,3,,,,,,,,,2,,,54,0
1043040,note_on,480,0,4,,,,,,,,,3,,,45,0
1043040,note_on,0,0,3,,,,,,,,,2,,,51,49
1043040,note_on,0,0,3,,,,,,,,,2,,,54,49
1043040,note_on,0,0,3,,,,,,,,,2,,,59,49
1043040,note_on,0,0,4,,,,,,,,,3,,,45,62
1043040,note_on,240,0,1,,,,,,,,,0,,,81,0
1043040,note_on,0,0,1,,,,,,,,,0,,,79,62
1043280,note_on,0,0,2,,,,,,,,,1,,,66,62
1043280,note_on,240,0,2,,,,,,,,,1,,,67,0
1043280,note_on,240,0,1,,,,,,,,,0,,,79,0
1043280,note_on,0,0,1,,,,,,,,,0,,,78,62
1043520,note_on,0,0,4,,,,,,,,,3,,,45,62
1043520,note_on,0,0,2,,,,,,,,,1,,,64,62
1043520,note_on,240,0,2,,,,,,,,,1,,,66,0
1043520,note_on,240,0,1,,,,,,,,,0,,,78,0
1043520,note_on,0,0,1,,,,,,,,,0,,,76,62
1043520,note_on,480,0,3,,,,,,,,,2,,,59,0
1043520,note_on,0,0,3,,,,,,,,,2,,,54,0
1043520,note_on,0,0,3,,,,,,,,,2,,,51,0
1043520,note_on,480,0,4,,,,,,,,,3,,,45,0
1043520,note_on,0,0,3,,,,,,,,,2,,,59,49
1043520,note_on,0,0,3,,,,,,,,,2,,,54,49
1043760,note_on,0,0,2,,,,,,,,,1,,,63,62
1043760,note_on,0,0,1,,,,,,,,,0,,,75,62
1043760,note_on,240,0,1,,,,,,,,,0,,,76,0
1043760,note_on,240,0,2,,,,,,,,,1,,,64,0
1044000,note_on,480,0,4,,,,,,,,,3,,,45,0
1044000,note_on,0,0,4,,,,,,,,,3,,,43,62
1044000,note_on,240,0,2,,,,,,,,,1,,,63,0
1044000,note_on,0,0,3,,,,,,,,,2,,,59,49
1044000,note_on,0,0,2,,,,,,,,,1,,,63,62
1044000,note_on,0,0,1,,,,,,,,,0,,,75,62
1044000,note_on,480,0,3,,,,,,,,,2,,,59,0
1044000,note_on,0,0,3,,,,,,,,,2,,,52,49
1044000,note_on,0,0,3,,,,,,,,,2,,,54,0
1044000,note_on,240,0,1,,,,,,,,,0,,,75,0
1044240,note_on,0,0,1,,,,,,,,,0,,,76,62
1044240,note_on,0,0,2,,,,,,,,,1,,,64,62
1044240,note_on,240,0,2,,,,,,,,,1,,,63,0
1044240,note_on,240,0,1,,,,,,,,,0,,,75,0
1044480,note_on,0,0,2,,,,,,,,,1,,,65,62
1044480,note_on,240,0,2,,,,,,,,,1,,,64,0
1044480,note_on,0,0,1,,,,,,,,,0,,,77,62
1044480,note_on,240,0,1,,,,,,,,,0,,,76,0
1044720,note_on,0,0,1,,,,,,,,,0,,,78,62
1044720,note_on,240,0,1,,,,,,,,,0,,,77,0
1044720,note_on,240,0,2,,,,,,,,,1,,,65,0
1044720,note_on,0,0,2,,,,,,,,,1,,,66,62
1044960,note_on,0,0,4,,,,,,,,,3,,,36,62
1044960,note_on,0,0,4,,,,,,,,,3,,,48,62
1044960,note_on,960,0,4,,,,,,,,,3,,,43,0
1044960,note_on,960,0,3,,,,,,,,,2,,,59,0
1044960,note_on,0,0,2,,,,,,,,,1,,,67,62
1044960,note_on,0,0,1,,,,,,,,,0,,,79,62
1044960,note_on,240,0,1,,,,,,,,,0,,,78,0
1044960,note_on,0,0,3,,,,,,,,,2,,,64,49
1044960,note_on,0,0,3,,,,,,,,,2,,,58,49
1044960,note_on,0,0,3,,,,,,,,,2,,,52,49
1044960,note_on,0,0,3,,,,,,,,,2,,,52,0
1044960,note_on,240,0,2,,,,,,,,,1,,,66,0
1045200,note_on,0,0,2,,,,,,,,,1,,,68,62
1045200,note_on,240,0,1,,,,,,,,,0,,,79,0
1045200,note_on,0,0,1,,,,,,,,,0,,,80,62
1045200,note_on,240,0,2,,,,,,,,,1,,,67,0
1045440,note_on,240,0,1,,,,,,,,,0,,,80,0
1045440,note_on,240,0,2,,,,,,,,,1,,,68,0
1045440,note_on,0,0,2,,,,,,,,,1,,,69,62
1045440,note_on,0,0,1,,,,,,,,,0,,,81,62
1045680,note_on,0,0,1,,,,,,,,,0,,,82,62
1045680,note_on,0,0,2,,,,,,,,,1,,,70,62
1045680,note_on,240,0,2,,,,,,,,,1,,,69,0
1045680,note_on,240,0,1,,,,,,,,,0,,,81,0
1045920,note_on,0,0,3,,,,,,,,,2,,,63,49
1045920,note_on,0,0,3,,,,,,,,,2,,,59,49
1045920,note_on,0,0,3,,,,,,,,,2,,,54,49
1045920,note_on,0,0,3,,,,,,,,,2,,,52,0
1045920,note_on,0,0,3,,,,,,,,,2,,,58,0
1045920,note_on,960,0,3,,,,,,,,,2,,,64,0
1045920,note_on,240,0,1,,,,,,,,,0,,,82,0
1045920,note_on,0,0,1,,,,,,,,,0,,,83,62
1045920,note_on,960,0,4,,,,,,,,,3,,,48,0
1045920,note_on,240,0,2,,,,,,,,,1,,,70,0
1045920,note_on,0,0,4,,,,,,,,,3,,,47,62
1045920,note_on,0,0,4,,,,,,,,,3,,,35,62
1045920,note_on,0,0,4,,,,,,,,,3,,,36,0
1045920,note_on,0,0,2,,,,,,,,,1,,,71,62
1046160,note_on,240,0,1,,,,,,,,,0,,,83,0
1046160,note_on,0,0,1,,,,,,,,,0,,,87,62
1046400,note_on,240,0,1,,,,,,,,,0,,,87,0
1046400,note_on,0,0,1,,,,,,,,,0,,,90,62
1046640,note_on,0,0,1,,,,,,,,,0,,,94,62
1046640,note_on,240,0,1,,,,,,,,,0,,,90,0
1046880,note_on,960,0,2,,,,,,,,,1,,,71,0
1046880,note_on,960,0,3,,,,,,,,,2,,,63,0
1046880,note_on,0,0,3,,,,,,,,,2,,,59,0
1046880,note_on,0,0,3,,,,,,,,,2,,,54,0
1046880,note_on,240,0,1,,,,,,,,,0,,,94,0
1046880,note_on,0,0,1,,,,,,,,,0,,,95,62
1047120,note_on,0,0,1,,,,,,,,,0,,,90,62
1047120,note_on,240,0,1,,,,,,,,,0,,,95,0
1047360,note_on,240,0,1,,,,,,,,,0,,,90,0
1047360,note_on,0,0,1,,,,,,,,,0,,,87,62
1047360,note_on,480,0,3,,,,,,,,,2,,,66,62
1047360,note_on,0,0,2,,,,,,,,,1,,,75,75
1047360,note_on,480,0,2,,,,,,,,,1,,,71,75
1047600,note_on,240,0,1,,,,,,,,,0,,,87,0
1047600,note_on,0,0,1,,,,,,,,,0,,,83,62
1047840,note_on,0,0,4,,,,,,,,,3,,,35,0
1047840,note_on,1920,0,4,,,,,,,,,3,,,47,0
1047840,note_on,0,0,2,,,,,,,,,1,,,68,75
1047840,note_on,480,0,3,,,,,,,,,2,,,66,0
1047840,note_on,0,0,2,,,,,,,,,1,,,75,75
1047840,note_on,0,0,3,,,,,,,,,2,,,66,62
1047840,note_on,480,0,2,,,,,,,,,1,,,75,0
1047840,note_on,0,0,2,,,,,,,,,1,,,72,75
1047840,note_on,0,0,2,,,,,,,,,1,,,71,0
1047840,note_on,0,0,4,,,,,,,,,3,,,35,62
1047840,note_on,0,0,1,,,,,,,,,0,,,80,62
1047840,note_on,0,0,4,,,,,,,,,3,,,47,62
1047840,note_on,240,0,1,,,,,,,,,0,,,83,0
1048080,note_on,0,0,1,,,,,,,,,0,,,84,62
1048080,note_on,240,0,1,,,,,,,,,0,,,80,0
1048320,note_on,480,0,3,,,,,,,,,2,,,66,0
1048320,note_on,0,0,2,,,,,,,,,1,,,76,75
1048320,note_on,0,0,2,,,,,,,,,1,,,73,75
1048320,note_on,0,0,1,,,,,,,,,0,,,85,62
1048320,note_on,240,0,1,,,,,,,,,0,,,84,0
1048320,note_on,0,0,2,,,,,,,,,1,,,68,0
1048320,note_on,0,0,2,,,,,,,,,1,,,72,0
1048320,note_on,0,0,3,,,,,,,,,2,,,64,62
1048320,note_on,480,0,2,,,,,,,,,1,,,75,0
1048367,note_on,47,0,3,,,,,,,,,2,,,64,0
1048560,note_on,0,0,1,,,,,,,,,0,,,88,62
1048560,note_on,240,0,1,,,,,,,,,0,,,85,0
1048800,note_on,480,0,2,,,,,,,,,1,,,76,0
1048800,note_on,0,0,1,,,,,,,,,0,,,92,62
1048800,note_on,240,0,1,,,,,,,,,0,,,88,0
1048800,note_on,0,0,2,,,,,,,,,1,,,73,0
1049040,note_on,0,0,1,,,,,,,,,0,,,88,62
1049040,note_on,240,0,1,,,,,,,,,0,,,92,0
1049280,note_on,0,0,2,,,,,,,,,1,,,73,75
1049280,note_on,913,0,3,,,,,,,,,2,,,64,62
1049280,note_on,240,0,1,,,,,,,,,0,,,88,0
1049280,note_on,0,0,1,,,,,,,,,0,,,85,62
1049280,note_on,0,0,2,,,,,,,,,1,,,76,75
1049280,note_on,480,0,2,,,,,,,,,1,,,68,75
1049520,note_on,240,0,1,,,,,,,,,0,,,85,0
1049520,note_on,0,0,1,,,,,,,,,0,,,80,62
1049760,note_on,0,0,4,,,,,,,,,3,,,47,62
1049760,note_on,0,0,3,,,,,,,,,2,,,64,62
1049760,note_on,480,0,3,,,,,,,,,2,,,64,0
1049760,note_on,1920,0,4,,,,,,,,,3,,,47,0
1049760,note_on,0,0,4,,,,,,,,,3,,,35,0
1049760,note_on,0,0,4,,,,,,,,,3,,,35,62
1049760,note_on,480,0,2,,,,,,,,,1,,,76,0
1049760,note_on,240,0,1,,,,,,,,,0,,,80,0
1049760,note_on,0,0,2,,,,,,,,,1,,,66,75
1049760,note_on,0,0,2,,,,,,,,,1,,,68,0
1049760,note_on,0,0,2,,,,,,,,,1,,,73,0
1049760,note_on,0,0,2,,,,,,,,,1,,,73,75
1049760,note_on,0,0,2,,,,,,,,,1,,,70,75
1049760,note_on,0,0,1,,,,,,,,,0,,,78,62
1050000,note_on,240,0,1,,,,,,,,,0,,,78,0
1050000,note_on,0,0,1,,,,,,,,,0,,,82,62
1050240,note_on,480,0,2,,,,,,,,,1,,,73,0
1050240,note_on,0,0,2,,,,,,,,,1,,,70,0
1050240,note_on,0,0,2,,,,,,,,,1,,,66,0
1050240,note_on,0,0,2,,,,,,,,,1,,,71,75
1050240,note_on,0,0,2,,,,,,,,,1,,,75,75
1050240,note_on,480,0,3,,,,,,,,,2,,,64,0
1050240,note_on,0,0,3,,,,,,,,,2,,,63,62
1050240,note_on,240,0,1,,,,,,,,,0,,,82,0
1050240,note_on,0,0,1,,,,,,,,,0,,,83,62
1050480,note_on,240,0,1,,,,,,,,,0,,,83,0
1050480,note_on,0,0,1,,,,,,,,,0,,,87,62
1050720,note_on,480,0,2,,,,,,,,,1,,,75,0
1050720,note_on,480,0,3,,,,,,,,,2,,,63,0
1050720,note_on,0,0,2,,,,,,,,,1,,,71,0
1050720,note_on,240,0,1,,,,,,,,,0,,,87,0
1050720,note_on,0,0,1,,,,,,,,,0,,,90,62
1050960,note_on,240,0,1,,,,,,,,,0,,,90,0
1050960,note_on,0,0,1,,,,,,,,,0,,,87,62
1051200,note_on,0,0,2,,,,,,,,,1,,,71,75
1051200,note_on,0,0,1,,,,,,,,,0,,,83,62
1051200,note_on,480,0,2,,,,,,,,,1,,,66,75
1051200,note_on,240,0,1,,,,,,,,,0,,,87,0
1051200,note_on,480,0,3,,,,,,,,,2,,,63,62
1051440,note_on,240,0,1,,,,,,,,,0,,,83,0
1051440,note_on,0,0,1,,,,,,,,,0,,,78,62
1051440,note_on,240,0,3,,,,,,,,,2,,,63,0
1051440,note_on,0,0,3,,,,,,,,,2,,,62,62
1051680,note_on,0,0,2,,,,,,,,,1,,,66,75
1051680,note_on,0,0,2,,,,,,,,,1,,,66,0
1051680,note_on,240,0,1,,,,,,,,,0,,,78,0
1051680,note_on,0,0,2,,,,,,,,,1,,,70,75
1051680,note_on,480,0,2,,,,,,,,,1,,,71,0
1051680,note_on,0,0,1,,,,,,,,,0,,,76,62
1051680,note_on,240,0,3,,,,,,,,,2,,,62,0
1051680,note_on,0,0,3,,,,,,,,,2,,,61,62
1051680,note_on,1920,0,4,,,,,,,,,3,,,47,0
1051680,note_on,0,0,4,,,,,,,,,3,,,35,0
1051680,note_on,0,0,4,,,,,,,,,3,,,47,62
1051680,note_on,0,0,4,,,,,,,,,3,,,35,62
1051727,note_on,0,0,2,,,,,,,,,1,,,66,0
1051727,note_on,47,0,3,,,,,,,,,2,,,61,0
1051727,note_on,47,0,2,,,,,,,,,1,,,70,0
1051920,note_on,240,0,1,,,,,,,,,0,,,76,0
1051920,note_on,0,0,1,,,,,,,,,0,,,78,62
1052160,note_on,0,0,2,,,,,,,,,1,,,70,75
1052160,note_on,240,0,1,,,,,,,,,0,,,78,0
1052160,note_on,0,0,1,,,,,,,,,0,,,80,62
1052160,note_on,433,0,3,,,,,,,,,2,,,61,62
1052160,note_on,433,0,2,,,,,,,,,1,,,66,75
1052207,note_on,47,0,3,,,,,,,,,2,,,61,0
1052207,note_on,0,0,2,,,,,,,,,1,,,66,0
1052207,note_on,47,0,2,,,,,,,,,1,,,70,0
1052400,note_on,0,0,1,,,,,,,,,0,,,82,62
1052400,note_on,240,0,1,,,,,,,,,0,,,80,0
1052640,note_on,433,0,3,,,,,,,,,2,,,61,62
1052640,note_on,433,0,2,,,,,,,,,1,,,66,75
1052640,note_on,0,0,2,,,,,,,,,1,,,70,75
1052640,note_on,240,0,1,,,,,,,,,0,,,82,0
1052640,note_on,0,0,1,,,,,,,,,0,,,83,62
1052687,note_on,0,0,2,,,,,,,,,1,,,66,0
1052687,note_on,47,0,3,,,,,,,,,2,,,61,0
1052687,note_on,47,0,2,,,,,,,,,1,,,70,0
1052880,note_on,240,0,1,,,,,,,,,0,,,83,0
1052880,note_on,0,0,1,,,,,,,,,0,,,85,62
1053120,note_on,0,0,1,,,,,,,,,0,,,87,62
1053120,note_on,433,0,3,,,,,,,,,2,,,61,62
1053120,note_on,0,0,2,,,,,,,,,1,,,70,75
1053120,note_on,433,0,2,,,,,,,,,1,,,66,75
1053120,note_on,240,0,1,,,,,,,,,0,,,85,0
1053167,note_on,47,0,3,,,,,,,,,2,,,61,0
1053167,note_on,0,0,2,,,,,,,,,1,,,66,0
1053167,note_on,47,0,2,,,,,,,,,1,,,70,0
1053360,note_on,240,0,1,,,,,,,,,0,,,87,0
1053360,note_on,0,0,1,,,,,,,,,0,,,88,62
1053600,note_on,433,0,2,,,,,,,,,1,,,66,75
1053600,note_on,0,0,2,,,,,,,,,1,,,70,75
1053600,note_on,433,0,3,,,,,,,,,2,,,61,62
1053600,note_on,0,0,1,,,,,,,,,0,,,87,62
1053600,note_on,1920,0,4,,,,,,,,,3,,,47,0
1053600,note_on,0,0,4,,,,,,,,,3,,,35,0
1053600,note_on,0,0,4,,,,,,,,,3,,,35,62
1053600,note_on,0,0,4,,,,,,,,,3,,,47,62
1053600,note_on,240,0,1,,,,,,,,,0,,,88,0
1053840,note_on,0,0,1,,,,,,,,,0,,,88,62
1053840,note_on,240,0,1,,,,,,,,,0,,,87,0
1054080,note_on,240,0,1,,,,,,,,,0,,,88,0
1054080,note_on,0,0,1,,,,,,,,,0,,,87,62
1054080,note_on,0,0,3,,,,,,,,,2,,,59,62
1054080,note_on,0,0,2,,,,,,,,,1,,,66,0
1054080,note_on,0,0,2,,,,,,,,,1,,,71,75
1054080,note_on,480,0,2,,,,,,,,,1,,,70,0
1054080,note_on,480,0,3,,,,,,,,,2,,,61,0
1054320,note_on,240,0,1,,,,,,,,,0,,,87,0
1054320,note_on,0,0,1,,,,,,,,,0,,,85,62
1054560,note_on,480,0,2,,,,,,,,,1,,,71,0
1054560,note_on,240,0,1,,,,,,,,,0,,,85,0
1054560,note_on,0,0,1,,,,,,,,,0,,,83,62
1054560,note_on,480,0,3,,,,,,,,,2,,,59,0
1054800,note_on,0,0,1,,,,,,,,,0,,,82,62
1054800,note_on,240,0,1,,,,,,,,,0,,,83,0
1055040,note_on,0,0,1,,,,,,,,,0,,,83,62
1055040,note_on,0,0,1,,,,,,,,,0,,,78,62
1055040,note_on,240,0,1,,,,,,,,,0,,,82,0
1055040,note_on,480,0,2,,,,,,,,,1,,,66,75
1055280,note_on,0,0,1,,,,,,,,,0,,,85,62
1055280,note_on,0,0,1,,,,,,,,,0,,,78,0
1055280,note_on,240,0,1,,,,,,,,,0,,,83,0
1055520,note_on,240,0,1,,,,,,,,,0,,,85,0
1055520,note_on,0,0,4,,,,,,,,,3,,,35,62
1055520,note_on,0,0,4,,,,,,,,,3,,,47,62
1055520,note_on,0,0,2,,,,,,,,,1,,,64,62
1055520,note_on,480,0,2,,,,,,,,,1,,,66,0
1055520,note_on,0,0,1,,,,,,,,,0,,,76,75
1055520,note_on,0,0,4,,,,,,,,,3,,,35,0
1055520,note_on,1920,0,4,,,,,,,,,3,,,47,0
1055520,note_on,0,0,1,,,,,,,,,0,,,80,75
1055520,note_on,0,0,1,,,,,,,,,0,,,87,75
1055760,note_on,240,0,2,,,,,,,,,1,,,64,0
1055760,note_on,0,0,2,,,,,,,,,1,,,63,62
1056000,note_on,0,0,1,,,,,,,,,0,,,76,0
1056000,note_on,0,0,1,,,,,,,,,0,,,80,0
1056000,note_on,480,0,1,,,,,,,,,0,,,87,0
1056000,note_on,240,0,2,,,,,,,,,1,,,63,0
1056000,note_on,0,0,2,,,,,,,,,1,,,64,62
1056000,note_on,0,0,1,,,,,,,,,0,,,85,75
1056240,note_on,240,0,2,,,,,,,,,1,,,64,0
1056240,note_on,0,0,2,,,,,,,,,1,,,66,62
1056480,note_on,240,0,2,,,,,,,,,1,,,66,0
1056480,note_on,0,0,2,,,,,,,,,1,,,68,62
1056480,note_on,480,0,1,,,,,,,,,0,,,85,0
1056720,note_on,240,0,2,,,,,,,,,1,,,68,0
1056720,note_on,0,0,2,,,,,,,,,1,,,67,62
1056960,note_on,0,0,1,,,,,,,,,0,,,80,75
1056960,note_on,240,0,2,,,,,,,,,1,,,67,0
1056960,note_on,0,0,1,,,,,,,,,0,,,85,75
1056960,note_on,480,0,1,,,,,,,,,0,,,76,75
1056960,note_on,0,0,2,,,,,,,,,1,,,68,62
1057200,note_on,240,0,2,,,,,,,,,1,,,68,0
1057200,note_on,0,0,2,,,,,,,,,1,,,64,62
1057440,note_on,0,0,1,,,,,,,,,0,,,78,75
1057440,note_on,0,0,1,,,,,,,,,0,,,85,75
1057440,note_on,240,0,2,,,,,,,,,1,,,64,0
1057440,note_on,0,0,1,,,,,,,,,0,,,76,0
1057440,note_on,0,0,1,,,,,,,,,0,,,80,0
1057440,note_on,1920,0,4,,,,,,,,,3,,,47,0
1057440,note_on,480,0,1,,,,,,,,,0,,,85,0
1057440,note_on,0,0,4,,,,,,,,,3,,,35,62
1057440,note_on,0,0,4,,,,,,,,,3,,,47,62
1057440,note_on,0,0,2,,,,,,,,,1,,,63,62
1057440,note_on,0,0,1,,,,,,,,,0,,,75,75
1057440,note_on,0,0,4,,,,,,,,,3,,,35,0
1057680,note_on,0,0,2,,,,,,,,,1,,,61,62
1057680,note_on,240,0,2,,,,,,,,,1,,,63,0
1057920,note_on,0,0,2,,,,,,,,,1,,,63,62
1057920,note_on,240,0,2,,,,,,,,,1,,,61,0
1057920,note_on,0,0,1,,,,,,,,,0,,,83,75
1057920,note_on,0,0,1,,,,,,,,,0,,,75,0
1057920,note_on,0,0,1,,,,,,,,,0,,,78,0
1057920,note_on,480,0,1,,,,,,,,,0,,,85,0
1058160,note_on,240,0,2,,,,,,,,,1,,,63,0
1058160,note_on,0,0,2,,,,,,,,,1,,,64,62
1058400,note_on,0,0,2,,,,,,,,,1,,,66,62
1058400,note_on,480,0,1,,,,,,,,,0,,,83,0
1058400,note_on,240,0,2,,,,,,,,,1,,,64,0
1058640,note_on,240,0,2,,,,,,,,,1,,,66,0
1058640,note_on,0,0,2,,,,,,,,,1,,,68,62
1058880,note_on,0,0,2,,,,,,,,,1,,,70,62
1058880,note_on,240,0,2,,,,,,,,,1,,,68,0
1058880,note_on,4320,0,3,,,,,,,,,2,,,63,62
1058880,note_on,480,0,1,,,,,,,,,0,,,85,75
1058927,note_on,47,0,3,,,,,,,,,2,,,63,0
1059120,note_on,0,0,2,,,,,,,,,1,,,71,62
1059120,note_on,0,0,1,,,,,,,,,0,,,83,75
1059120,note_on,240,0,1,,,,,,,,,0,,,85,0
1059120,note_on,240,0,2,,,,,,,,,1,,,70,0
1059360,note_on,0,0,2,,,,,,,,,1,,,70,62
1059360,note_on,240,0,2,,,,,,,,,1,,,71,0
1059360,note_on,433,0,3,,,,,,,,,2,,,63,62
1059360,note_on,0,0,4,,,,,,,,,3,,,35,0
1059360,note_on,0,0,4,,,,,,,,,3,,,35,62
1059360,note_on,0,0,4,,,,,,,,,3,,,47,62
1059360,note_on,0,0,1,,,,,,,,,0,,,82,75
1059360,note_on,240,0,1,,,,,,,,,0,,,83,0
1059360,note_on,1920,0,4,,,,,,,,,3,,,47,0
1059600,note_on,240,0,2,,,,,,,,,1,,,70,0
1059600,note_on,0,0,2,,,,,,,,,1,,,66,62
1059840,note_on,0,0,3,,,,,,,,,2,,,61,62
1059840,note_on,480,0,3,,,,,,,,,2,,,63,0
1059840,note_on,480,0,1,,,,,,,,,0,,,82,0
1059840,note_on,0,0,1,,,,,,,,,0,,,88,75
1059840,note_on,240,0,2,,,,,,,,,1,,,66,0
1059840,note_on,0,0,2,,,,,,,,,1,,,70,62
1060080,note_on,240,0,2,,,,,,,,,1,,,70,0
1060080,note_on,0,0,2,,,,,,,,,1,,,66,62
1060320,note_on,0,0,1,,,,,,,,,0,,,88,75
1060320,note_on,480,0,3,,,,,,,,,2,,,61,0
1060320,note_on,240,0,2,,,,,,,,,1,,,66,0
1060320,note_on,0,0,2,,,,,,,,,1,,,70,62
1060320,note_on,480,0,1,,,,,,,,,0,,,88,0
1060367,note_on,47,0,1,,,,,,,,,0,,,88,0
1060560,note_on,0,0,2,,,,,,,,,1,,,66,62
1060560,note_on,240,0,2,,,,,,,,,1,,,70,0
1060800,note_on,480,0,3,,,,,,,,,2,,,61,62
1060800,note_on,433,0,1,,,,,,,,,0,,,88,75
1060800,note_on,0,0,2,,,,,,,,,1,,,70,62
1060800,note_on,240,0,2,,,,,,,,,1,,,66,0
1060847,note_on,47,0,1,,,,,,,,,0,,,88,0
1060847,note_on,47,0,3,,,,,,,,,2,,,61,0
1061040,note_on,240,0,2,,,,,,,,,1,,,70,0
1061040,note_on,0,0,2,,,,,,,,,1,,,66,62
1061280,note_on,1920,0,4,,,,,,,,,3,,,47,0
1061280,note_on,0,0,4,,,,,,,,,3,,,35,0
1061280,note_on,0,0,4,,,,,,,,,3,,,35,62
1061280,note_on,433,0,3,,,,,,,,,2,,,61,62
1061280,note_on,0,0,2,,,,,,,,,1,,,70,62
1061280,note_on,240,0,2,,,,,,,,,1,,,66,0
1061280,note_on,0,0,4,,,,,,,,,3,,,47,62
1061280,note_on,433,0,1,,,,,,,,,0,,,88,75
1061520,note_on,240,0,2,,,,,,,,,1,,,70,0
1061520,note_on,0,0,2,,,,,,,,,1,,,66,62
1061760,note_on,240,0,2,,,,,,,,,1,,,66,0
1061760,note_on,0,0,2,,,,,,,,,1,,,71,62
1061760,note_on,0,0,1,,,,,,,,,0,,,87,75
1061760,note_on,480,0,3,,,,,,,,,2,,,61,0
1061760,note_on,480,0,1,,,,,,,,,0,,,88,0
1061760,note_on,0,0,3,,,,,,,,,2,,,59,62
1062000,note_on,0,0,2,,,,,,,,,1,,,66,62
1062000,note_on,240,0,2,,,,,,,,,1,,,71,0
1062240,note_on,480,0,3,,,,,,,,,2,,,59,0
1062240,note_on,480,0,1,,,,,,,,,0,,,87,0
1062240,note_on,0,0,2,,,,,,,,,1,,,71,62
1062240,note_on,240,0,2,,,,,,,,,1,,,66,0
1062480,note_on,240,0,2,,,,,,,,,1,,,71,0
1062480,note_on,0,0,2,,,,,,,,,1,,,66,62
1062720,note_on,0,0,1,,,,,,,,,0,,,87,75
1062720,note_on,0,0,2,,,,,,,,,1,,,70,62
1062720,note_on,240,0,2,,,,,,,,,1,,,66,0
1062720,note_on,480,0,1,,,,,,,,,0,,,78,75
1062720,note_on,480,0,3,,,,,,,,,2,,,61,62
1062767,note_on,0,0,1,,,,,,,,,0,,,78,0
1062767,note_on,47,0,1,,,,,,,,,0,,,87,0
1062960,note_on,240,0,3,,,,,,,,,2,,,61,0
1062960,note_on,0,0,3,,,,,,,,,2,,,59,62
1062960,note_on,240,0,2,,,,,,,,,1,,,70,0
1062960,note_on,0,0,2,,,,,,,,,1,,,71,62
1063200,note_on,0,0,4,,,,,,,,,3,,,47,62
1063200,note_on,0,0,4,,,,,,,,,3,,,35,62
1063200,note_on,433,0,1,,,,,,,,,0,,,80,75
1063200,note_on,0,0,1,,,,,,,,,0,,,87,75
1063200,note_on,240,0,3,,,,,,,,,2,,,59,0
1063200,note_on,1920,0,4,,,,,,,,,3,,,47,0
1063200,note_on,0,0,3,,,,,,,,,2,,,58,62
1063200,note_on,240,0,2,,,,,,,,,1,,,71,0
1063200,note_on,0,0,2,,,,,,,,,1,,,73,62
1063200,note_on,0,0,4,,,,,,,,,3,,,35,0
1063440,note_on,0,0,2,,,,,,,,,1,,,71,62
1063440,note_on,240,0,2,,,,,,,,,1,,,73,0
1063680,note_on,480,0,3,,,,,,,,,2,,,58,0
1063680,note_on,0,0,3,,,,,,,,,2,,,64,62
1063680,note_on,480,0,1,,,,,,,,,0,,,87,0
1063680,note_on,0,0,1,,,,,,,,,0,,,80,0
1063680,note_on,0,0,1,,,,,,,,,0,,,85,75
1063680,note_on,0,0,2,,,,,,,,,1,,,70,62
1063680,note_on,240,0,2,,,,,,,,,1,,,71,0
1063920,note_on,0,0,2,,,,,,,,,1,,,73,62
1063920,note_on,240,0,2,,,,,,,,,1,,,70,0
1064160,note_on,480,0,3,,,,,,,,,2,,,64,0
1064160,note_on,0,0,3,,,,,,,,,2,,,64,62
1064160,note_on,240,0,2,,,,,,,,,1,,,73,0
1064160,note_on,480,0,1,,,,,,,,,0,,,85,0
1064160,note_on,0,0,2,,,,,,,,,1,,,70,62
1064400,note_on,240,0,2,,,,,,,,,1,,,70,0
1064400,note_on,0,0,2,,,,,,,,,1,,,73,62
1064640,note_on,240,0,2,,,,,,,,,1,,,73,0
1064640,note_on,0,0,3,,,,,,,,,2,,,64,62
1064640,note_on,480,0,3,,,,,,,,,2,,,64,0
1064640,note_on,480,0,1,,,,,,,,,0,,,80,75
1064640,note_on,0,0,1,,,,,,,,,0,,,85,75
1064640,note_on,0,0,2,,,,,,,,,1,,,70,62
1064687,note_on,47,0,1,,,,,,,,,0,,,85,0
1064687,note_on,47,0,3,,,,,,,,,2,,,64,0
1064687,note_on,0,0,1,,,,,,,,,0,,,80,0
1064880,note_on,240,0,2,,,,,,,,,1,,,70,0
1064880,note_on,0,0,2,,,,,,,,,1,,,73,62
1065120,note_on,0,0,1,,,,,,,,,0,,,85,75
1065120,note_on,0,0,4,,,,,,,,,3,,,47,62
1065120,note_on,433,0,1,,,,,,,,,0,,,78,75
1065120,note_on,0,0,4,,,,,,,,,3,,,35,0
1065120,note_on,0,0,4,,,,,,,,,3,,,35,62
1065120,note_on,1920,0,4,,,,,,,,,3,,,47,0
1065120,note_on,433,0,3,,,,,,,,,2,,,64,62
1065120,note_on,240,0,2,,,,,,,,,1,,,73,0
1065120,note_on,0,0,2,,,,,,,,,1,,,70,62
1065360,note_on,240,0,2,,,,,,,,,1,,,70,0
1065360,note_on,0,0,2,,,,,,,,,1,,,73,62
1065600,note_on,480,0,3,,,,,,,,,2,,,64,0
1065600,note_on,0,0,3,,,,,,,,,2,,,63,62
1065600,note_on,0,0,1,,,,,,,,,0,,,83,75
1065600,note_on,0,0,1,,,,,,,,,0,,,78,0
1065600,note_on,480,0,1,,,,,,,,,0,,,85,0
1065600,note_on,240,0,2,,,,,,,,,1,,,73,0
1065600,note_on,0,0,2,,,,,,,,,1,,,71,62
1065840,note_on,0,0,2,,,,,,,,,1,,,75,62
1065840,note_on,240,0,2,,,,,,,,,1,,,71,0
1066080,note_on,240,0,2,,,,,,,,,1,,,75,0
1066080,note_on,0,0,2,,,,,,,,,1,,,71,62
1066080,note_on,480,0,3,,,,,,,,,2,,,63,0
1066080,note_on,480,0,1,,,,,,,,,0,,,83,0
1066320,note_on,240,0,2,,,,,,,,,1,,,71,0
1066320,note_on,0,0,2,,,,,,,,,1,,,75,62
1066560,note_on,240,0,2,,,,,,,,,1,,,75,0
1066560,note_on,0,0,2,,,,,,,,,1,,,73,62
1066560,note_on,0,0,1,,,,,,,,,0,,,85,75
1066560,note_on,480,0,3,,,,,,,,,2,,,63,62
1066560,control_change,480,0,1,,,,,,,,,0,64,127,,
1066607,note_on,47,0,3,,,,,,,,,2,,,63,0
1066800,note_on,240,0,1,,,,,,,,,0,,,85,0
1066800,note_on,0,0,2,,,,,,,,,1,,,75,62
1066800,note_on,240,0,2,,,,,,,,,1,,,73,0
1066800,note_on,0,0,1,,,,,,,,,0,,,83,75
1067040,note_on,433,0,3,,,,,,,,,2,,,63,62
1067040,note_on,0,0,1,,,,,,,,,0,,,82,75
1067040,note_on,0,0,2,,,,,,,,,1,,,76,62
1067040,note_on,240,0,2,,,,,,,,,1,,,75,0
1067040,note_on,240,0,1,,,,,,,,,0,,,83,0
1067040,note_on,1920,0,4,,,,,,,,,3,,,47,0
1067040,note_on,0,0,4,,,,,,,,,3,,,35,0
1067040,note_on,0,0,4,,,,,,,,,3,,,35,62
1067040,note_on,0,0,4,,,,,,,,,3,,,47,62
1067280,note_on,240,0,2,,,,,,,,,1,,,76,0
1067280,note_on,0,0,2,,,,,,,,,1,,,66,62
1067520,note_on,480,0,3,,,,,,,,,2,,,63,0
1067520,control_change,0,0,1,,,,,,,,,0,64,0,,
1067520,note_on,0,0,3,,,,,,,,,2,,,61,62
1067520,note_on,0,0,2,,,,,,,,,1,,,76,62
1067520,note_on,240,0,2,,,,,,,,,1,,,66,0
1067520,note_on,0,0,1,,,,,,,,,0,,,92,75
1067520,note_on,0,0,1,,,,,,,,,0,,,82,75
1067520,note_on,480,0,1,,,,,,,,,0,,,82,0
1067760,note_on,0,0,2,,,,,,,,,1,,,66,62
1067760,note_on,240,0,2,,,,,,,,,1,,,76,0
1068000,note_on,0,0,1,,,,,,,,,0,,,82,0
1068000,note_on,0,0,1,,,,,,,,,0,,,82,75
1068000,note_on,0,0,1,,,,,,,,,0,,,92,75
1068000,note_on,480,0,3,,,,,,,,,2,,,61,0
1068000,note_on,0,0,2,,,,,,,,,1,,,76,62
1068000,note_on,240,0,2,,,,,,,,,1,,,66,0
1068000,note_on,480,0,1,,,,,,,,,0,,,92,0
1068240,note_on,240,0,2,,,,,,,,,1,,,76,0
1068240,note_on,0,0,2,,,,,,,,,1,,,66,62
1068480,note_on,0,0,1,,,,,,,,,0,,,82,75
1068480,note_on,240,0,2,,,,,,,,,1,,,66,0
1068480,note_on,0,0,2,,,,,,,,,1,,,76,62
1068480,note_on,480,0,1,,,,,,,,,0,,,92,0
1068480,note_on,0,0,1,,,,,,,,,0,,,82,0
1068480,note_on,0,0,1,,,,,,,,,0,,,92,75
1068480,note_on,480,0,3,,,,,,,,,2,,,61,62
1068527,note_on,47,0,3,,,,,,,,,2,,,61,0
1068720,note_on,0,0,2,,,,,,,,,1,,,66,62
1068720,note_on,240,0,2,,,,,,,,,1,,,76,0
1068960,note_on,0,0,2,,,,,,,,,1,,,76,62
1068960,note_on,240,0,2,,,,,,,,,1,,,66,0
1068960,note_on,0,0,1,,,,,,,,,0,,,82,0
1068960,note_on,0,0,1,,,,,,,,,0,,,82,75
1068960,note_on,0,0,4,,,,,,,,,3,,,47,62
1068960,note_on,0,0,4,,,,,,,,,3,,,35,62
1068960,note_on,0,0,4,,,,,,,,,3,,,35,0
1068960,note_on,1920,0,4,,,,,,,,,3,,,47,0
1068960,note_on,480,0,1,,,,,,,,,0,,,92,0
1068960,note_on,433,0,3,,,,,,,,,2,,,61,62
1068960,note_on,0,0,1,,,,,,,,,0,,,92,75
1069200,note_on,0,0,2,,,,,,,,,1,,,66,62
1069200,note_on,240,0,2,,,,,,,,,1,,,76,0
1069440,note_on,0,0,1,,,,,,,,,0,,,90,75
1069440,note_on,0,0,1,,,,,,,,,0,,,83,75
1069440,note_on,0,0,1,,,,,,,,,0,,,82,0
1069440,note_on,480,0,3,,,,,,,,,2,,,61,0
1069440,note_on,480,0,4,,,,,,,,,3,,,47,0
1069440,note_on,0,0,4,,,,,,,,,3,,,35,0
1069440,note_on,0,0,3,,,,,,,,,2,,,63,62
1069440,note_on,480,0,1,,,,,,,,,0,,,92,0
1069440,note_on,240,0,2,,,,,,,,,1,,,66,0
1069440,note_on,0,0,2,,,,,,,,,1,,,75,62
1069680,note_on,0,0,2,,,,,,,,,1,,,66,62
1069680,note_on,240,0,1,,,,,,,,,0,,,90,0
1069680,note_on,0,0,1,,,,,,,,,0,,,83,0
1069680,note_on,240,0,3,,,,,,,,,2,,,63,0
1069680,note_on,240,0,2,,,,,,,,,1,,,75,0
1069920,note_on,240,0,1,,,,,,,,,0,,,90,75
1069920,note_on,240,0,2,,,,,,,,,1,,,66,0
1069920,note_on,0,0,2,,,,,,,,,1,,,75,62
1069920,control_change,240,0,3,,,,,,,,,2,64,127,,
1069920,note_on,480,0,4,,,,,,,,,3,,,40,62
1069920,note_on,0,0,4,,,,,,,,,3,,,52,62
1069920,note_on,0,0,3,,,,,,,,,2,,,68,62
1070160,note_on,240,0,2,,,,,,,,,1,,,75,0
1070160,note_on,0,0,2,,,,,,,,,1,,,72,62
1070400,note_on,0,0,2,,,,,,,,,1,,,73,62
1070400,note_on,240,0,2,,,,,,,,,1,,,72,0
1070400,note_on,0,0,4,,,,,,,,,3,,,40,0
1070400,note_on,480,0,4,,,,,,,,,3,,,52,0
1070400,note_on,480,0,1,,,,,,,,,0,,,90,0
1070400,note_on,0,0,1,,,,,,,,,0,,,88,75
1070640,note_on,240,0,1,,,,,,,,,0,,,88,0
1070640,note_on,240,0,2,,,,,,,,,1,,,73,0
1070640,note_on,0,0,2,,,,,,,,,1,,,76,62
1070880,note_on,0,0,3,,,,,,,,,2,,,66,62
1070880,note_on,0,0,4,,,,,,,,,3,,,54,62
1070880,note_on,480,0,4,,,,,,,,,3,,,42,62
1070880,note_on,240,0,2,,,,,,,,,1,,,76,0
1070880,note_on,0,0,2,,,,,,,,,1,,,73,62
1070880,note_on,960,0,3,,,,,,,,,2,,,68,0
1070880,note_on,240,0,1,,,,,,,,,0,,,88,75
1071120,note_on,240,0,2,,,,,,,,,1,,,73,0
1071120,note_on,0,0,2,,,,,,,,,1,,,70,62
1071360,note_on,0,0,2,,,,,,,,,1,,,71,62
1071360,note_on,0,0,1,,,,,,,,,0,,,87,75
1071360,note_on,240,0,2,,,,,,,,,1,,,70,0
1071360,note_on,0,0,4,,,,,,,,,3,,,42,0
1071360,note_on,480,0,4,,,,,,,,,3,,,54,0
1071360,note_on,480,0,1,,,,,,,,,0,,,88,0
1071600,note_on,0,0,2,,,,,,,,,1,,,75,62
1071600,note_on,240,0,2,,,,,,,,,1,,,71,0
1071600,note_on,240,0,1,,,,,,,,,0,,,87,0
1071840,note_on,480,0,4,,,,,,,,,3,,,42,62
1071840,note_on,0,0,4,,,,,,,,,3,,,54,62
1071840,note_on,0,0,3,,,,,,,,,2,,,64,62
1071840,note_on,0,0,2,,,,,,,,,1,,,71,62
1071840,note_on,240,0,2,,,,,,,,,1,,,75,0
1071840,note_on,240,0,1,,,,,,,,,0,,,87,75
1071840,control_change,0,0,3,,,,,,,,,2,64,0,,
1071840,note_on,960,0,3,,,,,,,,,2,,,66,0
1072080,note_on,240,0,2,,,,,,,,,1,,,71,0
1072080,note_on,0,0,2,,,,,,,,,1,,,68,62
1072320,note_on,0,0,1,,,,,,,,,0,,,85,75
1072320,note_on,0,0,4,,,,,,,,,3,,,42,0
1072320,note_on,480,0,4,,,,,,,,,3,,,54,0
1072320,note_on,0,0,2,,,,,,,,,1,,,70,62
1072320,note_on,240,0,2,,,,,,,,,1,,,68,0
1072320,note_on,480,0,1,,,,,,,,,0,,,87,0
1072560,note_on,240,0,1,,,,,,,,,0,,,85,0
1072560,note_on,240,0,2,,,,,,,,,1,,,70,0
1072560,note_on,0,0,2,,,,,,,,,1,,,73,62
1072800,note_on,480,0,4,,,,,,,,,3,,,35,62
1072800,note_on,0,0,2,,,,,,,,,1,,,71,62
1072800,note_on,240,0,1,,,,,,,,,0,,,83,75
1072800,note_on,0,0,3,,,,,,,,,2,,,63,88
1072800,note_on,960,0,3,,,,,,,,,2,,,64,0
1072800,note_on,0,0,4,,,,,,,,,3,,,47,62
1072800,note_on,240,0,2,,,,,,,,,1,,,73,0
1072800,control_change,0,0,3,,,,,,,,,2,64,127,,
1073040,note_on,240,0,3,,,,,,,,,2,,,63,0
1073040,note_on,0,0,3,,,,,,,,,2,,,64,88
1073280,note_on,240,0,3,,,,,,,,,2,,,64,0
1073280,note_on,0,0,3,,,,,,,,,2,,,66,88
1073280,note_on,480,0,2,,,,,,,,,1,,,71,0
1073280,note_on,480,0,4,,,,,,,,,3,,,47,0
1073280,note_on,480,0,1,,,,,,,,,0,,,83,0
1073280,note_on,0,0,4,,,,,,,,,3,,,35,0
1073520,note_on,240,0,3,,,,,,,,,2,,,66,0
1073520,note_on,0,0,3,,,,,,,,,2,,,67,88
1073760,note_on,0,0,3,,,,,,,,,2,,,68,88
1073760,note_on,240,0,3,,,,,,,,,2,,,67,0
1074000,note_on,0,0,3,,,,,,,,,2,,,69,88
1074000,note_on,240,0,3,,,,,,,,,2,,,68,0
1074240,note_on,0,0,3,,,,,,,,,2,,,70,88
1074240,note_on,240,0,3,,,,,,,,,2,,,69,0
1074240,note_on,960,0,4,,,,,,,,,3,,,47,88
1074240,note_on,0,0,4,,,,,,,,,3,,,59,88
1074287,note_on,47,0,4,,,,,,,,,3,,,59,0
1074287,note_on,0,0,4,,,,,,,,,3,,,47,0
1074480,control_change,0,0,3,,,,,,,,,2,64,0,,
1074480,note_on,240,0,3,,,,,,,,,2,,,70,0
1074480,note_on,0,0,3,,,,,,,,,2,,,71,88
1074720,note_on,0,0,4,,,,,,,,,3,,,59,114
1074720,note_on,240,0,3,,,,,,,,,2,,,71,0
1074720,note_on,0,0,3,,,,,,,,,2,,,72,88
1074720,note_on,433,0,4,,,,,,,,,3,,,47,114
1074960,note_on,240,0,3,,,,,,,,,2,,,72,0
1074960,note_on,0,0,3,,,,,,,,,2,,,71,88
1075200,note_on,1920,0,2,,,,,,,,,1,,,79,88
1075200,note_on,0,0,4,,,,,,,,,3,,,57,88
1075200,note_on,240,0,3,,,,,,,,,2,,,71,0
1075200,note_on,1920,0,1,,,,,,,,,0,,,91,88
1075200,note_on,0,0,3,,,,,,,,,2,,,72,88
1075200,note_on,0,0,4,,,,,,,,,3,,,45,88
1075200,note_on,0,0,4,,,,,,,,,3,,,47,0
1075200,note_on,480,0,4,,,,,,,,,3,,,59,0
1075247,note_on,47,0,1,,,,,,,,,0,,,91,0
1075247,note_on,47,0,2,,,,,,,,,1,,,79,0
1075440,note_on,0,0,3,,,,,,,,,2,,,64,88
1075440,note_on,240,0,3,,,,,,,,,2,,,72,0
1075680,note_on,433,0,2,,,,,,,,,1,,,79,114
1075680,note_on,480,0,4,,,,,,,,,3,,,57,0
1075680,note_on,0,0,4,,,,,,,,,3,,,45,0
1075680,note_on,433,0,1,,,,,,,,,0,,,91,114
1075680,note_on,240,0,3,,,,,,,,,2,,,64,0
1075680,note_on,0,0,3,,,,,,,,,2,,,63,88
1075920,note_on,240,0,3,,,,,,,,,2,,,63,0
1075920,note_on,0,0,3,,,,,,,,,2,,,64,88
1076160,note_on,480,0,1,,,,,,,,,0,,,91,0
1076160,note_on,0,0,1,,,,,,,,,0,,,90,88
1076160,note_on,0,0,2,,,,,,,,,1,,,78,88
1076160,note_on,480,0,2,,,,,,,,,1,,,79,0
1076160,note_on,240,0,3,,,,,,,,,2,,,64,0
1076160,note_on,0,0,3,,,,,,,,,2,,,63,88
1076160,note_on,0,0,4,,,,,,,,,3,,,57,88
1076160,note_on,480,0,4,,,,,,,,,3,,,45,88
1076207,note_on,0,0,4,,,,,,,,,3,,,45,0
1076207,note_on,47,0,4,,,,,,,,,3,,,57,0
1076400,note_on,0,0,3,,,,,,,,,2,,,72,88
1076400,note_on,240,0,3,,,,,,,,,2,,,63,0
1076640,note_on,0,0,3,,,,,,,,,2,,,71,88
1076640,note_on,480,0,1,,,,,,,,,0,,,90,0
1076640,note_on,480,0,2,,,,,,,,,1,,,78,0
1076640,note_on,433,0,4,,,,,,,,,3,,,45,114
1076640,note_on,0,0,4,,,,,,,,,3,,,57,114
1076640,note_on,240,0,3,,,,,,,,,2,,,72,0
1076880,note_on,240,0,3,,,,,,,,,2,,,71,0
1076880,note_on,0,0,3,,,,,,,,,2,,,70,88
1077120,note_on,240,0,3,,,,,,,,,2,,,70,0
1077120,note_on,0,0,3,,,,,,,,,2,,,71,88
1077120,note_on,0,0,4,,,,,,,,,3,,,45,0
1077120,note_on,480,0,4,,,,,,,,,3,,,57,0
1077120,note_on,0,0,4,,,,,,,,,3,,,43,88
1077120,note_on,0,0,4,,,,,,,,,3,,,55,88
1077120,note_on,480,0,2,,,,,,,,,1,,,78,88
1077120,note_on,480,0,1,,,,,,,,,0,,,90,88
1077167,note_on,47,0,1,,,,,,,,,0,,,90,0
1077167,note_on,47,0,2,,,,,,,,,1,,,78,0
1077360,note_on,240,0,3,,,,,,,,,2,,,71,0
1077360,note_on,0,0,3,,,,,,,,,2,,,63,88
1077600,note_on,433,0,1,,,,,,,,,0,,,90,114
1077600,note_on,240,0,3,,,,,,,,,2,,,63,0
1077600,note_on,0,0,3,,,,,,,,,2,,,64,88
1077600,note_on,433,0,2,,,,,,,,,1,,,78,114
1077600,note_on,480,0,4,,,,,,,,,3,,,55,0
1077600,note_on,0,0,4,,,,,,,,,3,,,43,0
1077840,note_on,240,0,3,,,,,,,,,2,,,64,0
1077840,note_on,0,0,3,,,,,,,,,2,,,66,88
1078080,note_on,480,0,1,,,,,,,,,0,,,90,0
1078080,note_on,0,0,1,,,,,,,,,0,,,88,88
1078080,note_on,480,0,4,,,,,,,,,3,,,55,88
1078080,note_on,0,0,2,,,,,,,,,1,,,76,88
1078080,note_on,480,0,2,,,,,,,,,1,,,78,0
1078080,note_on,0,0,3,,,,,,,,,2,,,67,88
1078080,note_on,240,0,3,,,,,,,,,2,,,66,0
1078320,note_on,240,0,4,,,,,,,,,3,,,55,0
1078320,note_on,0,0,4,,,,,,,,,3,,,53,88
1078320,note_on,240,0,3,,,,,,,,,2,,,67,0
1078320,note_on,0,0,3,,,,,,,,,2,,,69,88
1078560,note_on,480,0,1,,,,,,,,,0,,,88,0
1078560,note_on,480,0,2,,,,,,,,,1,,,76,0
1078560,note_on,240,0,3,,,,,,,,,2,,,69,0
1078560,note_on,0,0,3,,,,,,,,,2,,,71,88
1078560,note_on,0,0,4,,,,,,,,,3,,,53,88
1078560,note_on,240,0,4,,,,,,,,,3,,,53,0
1078800,note_on,240,0,3,,,,,,,,,2,,,71,0
1078800,note_on,0,0,3,,,,,,,,,2,,,72,88
1079040,note_on,480,0,2,,,,,,,,,1,,,76,88
1079040,note_on,480,0,1,,,,,,,,,0,,,88,88
1079040,note_on,480,0,4,,,,,,,,,3,,,53,0
1079040,note_on,0,0,4,,,,,,,,,3,,,53,88
1079040,note_on,0,0,4,,,,,,,,,3,,,41,88
1079040,note_on,240,0,3,,,,,,,,,2,,,72,0
1079040,note_on,0,0,3,,,,,,,,,2,,,71,88
1079087,note_on,0,0,4,,,,,,,,,3,,,41,0
1079087,note_on,47,0,4,,,,,,,,,3,,,53,0
1079280,note_on,0,0,1,,,,,,,,,0,,,87,88
1079280,note_on,240,0,1,,,,,,,,,0,,,88,0
1079280,note_on,240,0,3,,,,,,,,,2,,,71,0
1079280,note_on,240,0,2,,,,,,,,,1,,,76,0
1079280,note_on,0,0,3,,,,,,,,,2,,,69,88
1079280,note_on,0,0,2,,,,,,,,,1,,,75,88
1079520,note_on,0,0,4,,,,,,,,,3,,,53,88
1079520,note_on,240,0,3,,,,,,,,,2,,,69,0
1079520,note_on,0,0,3,,,,,,,,,2,,,71,88
1079520,note_on,433,0,4,,,,,,,,,3,,,41,88
1079520,note_on,240,0,2,,,,,,,,,1,,,75,0
1079520,note_on,0,0,2,,,,,,,,,1,,,74,88
1079520,note_on,0,0,1,,,,,,,,,0,,,86,88
1079520,note_on,240,0,1,,,,,,,,,0,,,87,0
1079567,note_on,47,0,2,,,,,,,,,1,,,74,0
1079567,note_on,47,0,1,,,,,,,,,0,,,86,0
1079567,note_on,47,0,4,,,,,,,,,3,,,53,0
1079567,note_on,0,0,4,,,,,,,,,3,,,41,0
1079760,note_on,240,0,3,,,,,,,,,2,,,71,0
1079760,note_on,0,0,3,,,,,,,,,2,,,67,88
1080000,note_on,240,0,3,,,,,,,,,2,,,67,0
1080000,note_on,0,0,4,,,,,,,,,3,,,53,88
1080000,note_on,0,0,3,,,,,,,,,2,,,69,88
1080000,note_on,433,0,1,,,,,,,,,0,,,86,88
1080000,note_on,433,0,4,,,,,,,,,3,,,41,88
1080000,note_on,433,0,2,,,,,,,,,1,,,74,88
1080047,note_on,47,0,1,,,,,,,,,0,,,86,0
1080047,note_on,47,0,4,,,,,,,,,3,,,53,0
1080047,note_on,47,0,2,,,,,,,,,1,,,74,0
1080047,note_on,0,0,4,,,,,,,,,3,,,41,0
1080240,note_on,240,0,3,,,,,,,,,2,,,69,0
1080240,note_on,0,0,3,,,,,,,,,2,,,71,88
1080480,note_on,433,0,2,,,,,,,,,1,,,74,114
1080480,note_on,433,0,4,,,,,,,,,3,,,41,88
1080480,note_on,0,0,4,,,,,,,,,3,,,53,88
1080480,note_on,433,0,1,,,,,,,,,0,,,86,114
1080480,note_on,0,0,3,,,,,,,,,2,,,72,88
1080480,note_on,240,0,3,,,,,,,,,2,,,71,0
1080720,note_on,0,0,3,,,,,,,,,2,,,60,88
1080720,note_on,240,0,3,,,,,,,,,2,,,72,0
1080960,note_on,0,0,4,,,,,,,,,3,,,40,88
1080960,note_on,0,0,4,,,,,,,,,3,,,52,88
1080960,note_on,0,0,4,,,,,,,,,3,,,41,0
1080960,note_on,480,0,4,,,,,,,,,3,,,53,0
1080960,note_on,0,0,2,,,,,,,,,1,,,72,88
1080960,note_on,480,0,2,,,,,,,,,1,,,74,0
1080960,note_on,0,0,3,,,,,,,,,2,,,62,88
1080960,note_on,240,0,3,,,,,,,,,2,,,60,0
1080960,note_on,480,0,1,,,,,,,,,0,,,86,0
1080960,note_on,0,0,1,,,,,,,,,0,,,84,88
1081200,note_on,0,0,3,,,,,,,,,2,,,63,88
1081200,note_on,240,0,3,,,,,,,,,2,,,62,0
1081440,note_on,480,0,4,,,,,,,,,3,,,52,0
1081440,note_on,240,0,3,,,,,,,,,2,,,63,0
1081440,note_on,0,0,3,,,,,,,,,2,,,64,88
1081440,note_on,0,0,4,,,,,,,,,3,,,40,0
1081440,note_on,480,0,1,,,,,,,,,0,,,84,0
1081440,note_on,480,0,2,,,,,,,,,1,,,72,0
1081920,note_on,480,0,1,,,,,,,,,0,,,76,88
1081920,note_on,480,0,2,,,,,,,,,1,,,64,88
1081920,note_on,480,0,3,,,,,,,,,2,,,64,0
1081920,note_on,0,0,1,,,,,,,,,0,,,88,88
1081967,note_on,47,0,1,,,,,,,,,0,,,88,0
1081967,note_on,0,0,1,,,,,,,,,0,,,76,0
1082400,note_on,433,0,1,,,,,,,,,0,,,76,114
1082400,note_on,480,0,2,,,,,,,,,1,,,64,0
1082400,note_on,0,0,2,,,,,,,,,1,,,65,114
1082400,note_on,0,0,1,,,,,,,,,0,,,88,114
1082640,note_on,240,0,2,,,,,,,,,1,,,65,0
1082640,note_on,0,0,2,,,,,,,,,1,,,64,88
1082880,note_on,240,0,2,,,,,,,,,1,,,64,0
1082880,note_on,0,0,2,,,,,,,,,1,,,65,88
1082880,note_on,0,0,1,,,,,,,,,0,,,86,88
1082880,note_on,0,0,1,,,,,,,,,0,,,76,0
1082880,note_on,0,0,1,,,,,,,,,0,,,74,88
1082880,note_on,480,0,1,,,,,,,,,0,,,88,0
1082880,note_on,1440,0,4,,,,,,,,,3,,,48,88
1082880,note_on,960,0,3,,,,,,,,,2,,,60,88
1082927,note_on,47,0,4,,,,,,,,,3,,,48,0
1082927,note_on,47,0,3,,,,,,,,,2,,,60,0
1083120,note_on,0,0,2,,,,,,,,,1,,,66,88
1083120,note_on,240,0,2,,,,,,,,,1,,,65,0
1083360,note_on,0,0,1,,,,,,,,,0,,,74,0
1083360,note_on,480,0,1,,,,,,,,,0,,,86,0
1083360,note_on,240,0,2,,,,,,,,,1,,,66,0
1083360,note_on,0,0,2,,,,,,,,,1,,,67,88
1083360,note_on,433,0,4,,,,,,,,,3,,,48,114
1083360,note_on,433,0,3,,,,,,,,,2,,,60,114
1083600,note_on,240,0,2,,,,,,,,,1,,,67,0
1083600,note_on,0,0,2,,,,,,,,,1,,,66,88
1083840,note_on,0,0,2,,,,,,,,,1,,,67,88
1083840,note_on,480,0,1,,,,,,,,,0,,,74,101
1083840,note_on,480,0,3,,,,,,,,,2,,,60,0
1083840,note_on,0,0,1,,,,,,,,,0,,,86,101
1083840,note_on,240,0,2,,,,,,,,,1,,,66,0
1083840,note_on,0,0,4,,,,,,,,,3,,,47,88
1083840,note_on,480,0,4,,,,,,,,,3,,,48,0
1083840,note_on,0,0,3,,,,,,,,,2,,,59,88
1083887,note_on,0,0,1,,,,,,,,,0,,,74,0
1083887,note_on,47,0,1,,,,,,,,,0,,,86,0
1084080,note_on,240,0,2,,,,,,,,,1,,,67,0
1084080,note_on,0,0,2,,,,,,,,,1,,,68,88
1084320,note_on,240,0,2,,,,,,,,,1,,,68,0
1084320,note_on,0,0,2,,,,,,,,,1,,,69,114
1084320,note_on,0,0,1,,,,,,,,,0,,,86,127
1084320,note_on,433,0,1,,,,,,,,,0,,,74,127
1084320,note_on,480,0,3,,,,,,,,,2,,,59,0
1084320,note_on,480,0,4,,,,,,,,,3,,,47,0
1084560,note_on,0,0,2,,,,,,,,,1,,,68,88
1084560,note_on,240,0,2,,,,,,,,,1,,,69,0
1084800,note_on,0,0,2,,,,,,,,,1,,,69,88
1084800,note_on,480,0,1,,,,,,,,,0,,,86,0
1084800,note_on,0,0,1,,,,,,,,,0,,,74,0
1084800,note_on,0,0,1,,,,,,,,,0,,,72,101
1084800,note_on,0,0,1,,,,,,,,,0,,,84,101
1084800,note_on,480,0,4,,,,,,,,,3,,,47,88
1084800,note_on,240,0,2,,,,,,,,,1,,,68,0
1084800,note_on,480,0,3,,,,,,,,,2,,,59,88
1084847,note_on,47,0,4,,,,,,,,,3,,,47,0
1084847,note_on,47,0,3,,,,,,,,,2,,,59,0
1085040,note_on,0,0,2,,,,,,,,,1,,,71,88
1085040,note_on,240,0,2,,,,,,,,,1,,,69,0
1085280,note_on,480,0,1,,,,,,,,,0,,,84,0
1085280,note_on,240,0,2,,,,,,,,,1,,,71,0
1085280,note_on,0,0,1,,,,,,,,,0,,,72,0
1085280,note_on,0,0,2,,,,,,,,,1,,,72,88
1085280,note_on,433,0,4,,,,,,,,,3,,,47,114
1085280,note_on,433,0,3,,,,,,,,,2,,,59,114
1085760,note_on,480,0,1,,,,,,,,,0,,,72,101
1085760,note_on,480,0,3,,,,,,,,,2,,,59,0
1085760,note_on,0,0,3,,,,,,,,,2,,,57,88
1085760,note_on,0,0,1,,,,,,,,,0,,,84,101
1085760,note_on,0,0,4,,,,,,,,,3,,,45,88
1085760,note_on,0,0,2,,,,,,,,,1,,,60,88
1085760,note_on,480,0,2,,,,,,,,,1,,,72,0
1085760,note_on,480,0,4,,,,,,,,,3,,,47,0
1086000,note_on,0,0,1,,,,,,,,,0,,,83,101
1086000,note_on,0,0,1,,,,,,,,,0,,,71,101
1086000,note_on,0,0,1,,,,,,,,,0,,,72,0
1086000,note_on,240,0,1,,,,,,,,,0,,,84,0
1086240,note_on,240,0,1,,,,,,,,,0,,,83,0
1086240,note_on,480,0,3,,,,,,,,,2,,,57,0
1086240,note_on,0,0,1,,,,,,,,,0,,,71,0
1086240,note_on,480,0,2,,,,,,,,,1,,,60,0
1086240,note_on,480,0,4,,,,,,,,,3,,,45,0
1086240,note_on,0,0,2,,,,,,,,,1,,,61,88
1086240,note_on,0,0,1,,,,,,,,,0,,,82,101
1086240,note_on,0,0,1,,,,,,,,,0,,,70,101
1086480,note_on,0,0,2,,,,,,,,,1,,,60,88
1086480,note_on,240,0,2,,,,,,,,,1,,,61,0
1086720,note_on,480,0,3,,,,,,,,,2,,,57,114
1086720,note_on,0,0,1,,,,,,,,,0,,,82,101
1086720,note_on,0,0,1,,,,,,,,,0,,,70,101
1086720,note_on,480,0,1,,,,,,,,,0,,,82,0
1086720,note_on,0,0,1,,,,,,,,,0,,,70,0
1086720,note_on,240,0,2,,,,,,,,,1,,,60,0
1086720,note_on,0,0,2,,,,,,,,,1,,,61,88
1086720,note_on,480,0,4,,,,,,,,,3,,,45,114
1086767,note_on,47,0,1,,,,,,,,,0,,,82,0
1086767,note_on,0,0,1,,,,,,,,,0,,,70,0
1086960,note_on,0,0,2,,,,,,,,,1,,,62,88
1086960,note_on,240,0,4,,,,,,,,,3,,,45,0
1086960,note_on,0,0,4,,,,,,,,,3,,,44,88
1086960,note_on,240,0,2,,,,,,,,,1,,,61,0
1086960,note_on,0,0,3,,,,,,,,,2,,,56,88
1086960,note_on,240,0,3,,,,,,,,,2,,,57,0
1087200,note_on,240,0,4,,,,,,,,,3,,,44,0
1087200,note_on,0,0,1,,,,,,,,,0,,,82,101
1087200,note_on,0,0,3,,,,,,,,,2,,,55,88
1087200,note_on,240,0,3,,,,,,,,,2,,,56,0
1087200,note_on,0,0,2,,,,,,,,,1,,,63,88
1087200,note_on,0,0,4,,,,,,,,,3,,,43,88
1087200,note_on,433,0,1,,,,,,,,,0,,,70,101
1087200,note_on,240,0,2,,,,,,,,,1,,,62,0
1087247,note_on,0,0,1,,,,,,,,,0,,,70,0
1087247,note_on,47,0,4,,,,,,,,,3,,,43,0
1087247,note_on,47,0,3,,,,,,,,,2,,,55,0
1087247,note_on,47,0,1,,,,,,,,,0,,,82,0
1087440,note_on,240,0,2,,,,,,,,,1,,,63,0
1087440,note_on,0,0,2,,,,,,,,,1,,,62,88
1087680,note_on,433,0,4,,,,,,,,,3,,,43,88
1087680,note_on,433,0,3,,,,,,,,,2,,,55,88
1087680,note_on,0,0,1,,,,,,,,,0,,,82,101
1087680,note_on,433,0,1,,,,,,,,,0,,,70,101
1087680,note_on,240,0,2,,,,,,,,,1,,,62,0
1087680,note_on,0,0,2,,,,,,,,,1,,,63,88
1087727,note_on,47,0,1,,,,,,,,,0,,,82,0
1087727,note_on,0,0,1,,,,,,,,,0,,,70,0
1087727,note_on,47,0,3,,,,,,,,,2,,,55,0
1087727,note_on,47,0,4,,,,,,,,,3,,,43,0
1087920,note_on,0,0,2,,,,,,,,,1,,,64,88
1087920,note_on,240,0,2,,,,,,,,,1,,,63,0
1088160,note_on,433,0,1,,,,,,,,,0,,,70,127
1088160,note_on,0,0,1,,,,,,,,,0,,,82,127
1088160,note_on,0,0,2,,,,,,,,,1,,,65,114
1088160,note_on,240,0,2,,,,,,,,,1,,,64,0
1088400,note_on,240,0,2,,,,,,,,,1,,,65,0
1088400,note_on,0,0,2,,,,,,,,,1,,,64,88
1088640,note_on,0,0,1,,,,,,,,,0,,,81,101
1088640,note_on,0,0,1,,,,,,,,,0,,,69,101
1088640,note_on,913,0,3,,,,,,,,,2,,,55,114
1088640,note_on,480,0,1,,,,,,,,,0,,,82,0
1088640,note_on,913,0,4,,,,,,,,,3,,,43,114
1088640,note_on,240,0,2,,,,,,,,,1,,,64,0
1088640,note_on,0,0,2,,,,,,,,,1,,,65,88
1088640,note_on,0,0,1,,,,,,,,,0,,,70,0
1088880,note_on,0,0,3,,,,,,,,,2,,,54,88
1088880,note_on,240,0,3,,,,,,,,,2,,,55,0
1088880,note_on,0,0,2,,,,,,,,,1,,,67,88
1088880,note_on,240,0,4,,,,,,,,,3,,,43,0
1088880,note_on,0,0,4,,,,,,,,,3,,,42,88
1088880,note_on,240,0,2,,,,,,,,,1,,,65,0
1089120,note_on,240,0,4,,,,,,,,,3,,,42,0
1089120,note_on,0,0,4,,,,,,,,,3,,,41,88
1089120,note_on,240,0,3,,,,,,,,,2,,,54,0
1089120,note_on,0,0,3,,,,,,,,,2,,,53,88
1089120,note_on,0,0,1,,,,,,,,,0,,,69,0
1089120,note_on,480,0,1,,,,,,,,,0,,,81,0
1089120,note_on,0,0,2,,,,,,,,,1,,,69,88
1089120,note_on,240,0,2,,,,,,,,,1,,,67,0
1089167,note_on,47,0,3,,,,,,,,,2,,,53,0
1089167,note_on,47,0,4,,,,,,,,,3,,,41,0
1089600,note_on,433,0,3,,,,,,,,,2,,,52,88
1089600,note_on,433,0,4,,,,,,,,,3,,,40,88
1089600,note_on,480,0,1,,,,,,,,,0,,,82,101
1089600,note_on,0,0,2,,,,,,,,,1,,,70,88
1089600,note_on,480,0,2,,,,,,,,,1,,,69,0
1089647,note_on,47,0,4,,,,,,,,,3,,,40,0
1089647,note_on,47,0,3,,,,,,,,,2,,,52,0
1089840,note_on,240,0,2,,,,,,,,,1,,,70,0
1089840,note_on,240,0,1,,,,,,,,,0,,,82,0
1089840,note_on,0,0,1,,,,,,,,,0,,,81,101
1089840,note_on,0,0,2,,,,,,,,,1,,,69,88
1090080,note_on,0,0,1,,,,,,,,,0,,,81,101
1090080,note_on,433,0,4,,,,,,,,,3,,,39,101
1090080,note_on,0,0,2,,,,,,,,,1,,,69,101
1090080,note_on,240,0,2,,,,,,,,,1,,,69,0
1090080,note_on,240,0,1,,,,,,,,,0,,,81,0
1090080,note_on,433,0,3,,,,,,,,,2,,,51,101
1090320,note_on,0,0,3,,,,,,,,,2,,,52,101
1090320,note_on,240,0,4,,,,,,,,,3,,,39,0
1090320,note_on,0,0,4,,,,,,,,,3,,,40,101
1090320,note_on,240,0,3,,,,,,,,,2,,,51,0
1090560,note_on,240,0,4,,,,,,,,,3,,,40,0
1090560,note_on,0,0,4,,,,,,,,,3,,,39,101
1090560,note_on,480,0,1,,,,,,,,,0,,,81,0
1090560,note_on,0,0,1,,,,,,,,,0,,,81,101
1090560,note_on,0,0,1,,,,,,,,,0,,,78,101
1090560,note_on,0,0,1,,,,,,,,,0,,,71,101
1090560,note_on,240,0,3,,,,,,,,,2,,,52,0
1090560,note_on,0,0,3,,,,,,,,,2,,,51,101
1090560,note_on,480,0,2,,,,,,,,,1,,,69,0
1090560,note_on,0,0,2,,,,,,,,,1,,,59,101
1090560,note_on,0,0,2,,,,,,,,,1,,,66,101
1090560,note_on,0,0,2,,,,,,,,,1,,,69,101
1090607,note_on,0,0,1,,,,,,,,,0,,,71,0
1090607,note_on,47,0,1,,,,,,,,,0,,,81,0
1090607,note_on,0,0,2,,,,,,,,,1,,,59,0
1090607,note_on,47,0,2,,,,,,,,,1,,,69,0
1090607,note_on,0,0,1,,,,,,,,,0,,,78,0
1090607,note_on,0,0,2,,,,,,,,,1,,,66,0
1090800,note_on,0,0,4,,,,,,,,,3,,,37,101
1090800,note_on,0,0,3,,,,,,,,,2,,,49,101
1090800,note_on,240,0,3,,,,,,,,,2,,,51,0
1090800,note_on,240,0,4,,,,,,,,,3,,,39,0
1091040,note_on,240,0,4,,,,,,,,,3,,,37,0
1091040,note_on,0,0,1,,,,,,,,,0,,,81,101
1091040,note_on,433,0,1,,,,,,,,,0,,,71,101
1091040,note_on,0,0,4,,,,,,,,,3,,,39,101
1091040,note_on,433,0,2,,,,,,,,,1,,,59,101
1091040,note_on,0,0,2,,,,,,,,,1,,,66,101
1091040,note_on,0,0,2,,,,,,,,,1,,,69,101
1091040,note_on,240,0,3,,,,,,,,,2,,,49,0
1091040,note_on,0,0,3,,,,,,,,,2,,,51,101
1091040,note_on,0,0,1,,,,,,,,,0,,,78,101
1091087,note_on,0,0,1,,,,,,,,,0,,,71,0
1091087,note_on,0,0,1,,,,,,,,,0,,,78,0
1091087,note_on,47,0,1,,,,,,,,,0,,,81,0
1091087,note_on,0,0,2,,,,,,,,,1,,,59,0
1091087,note_on,0,0,2,,,,,,,,,1,,,66,0
1091087,note_on,47,0,2,,,,,,,,,1,,,69,0
1091280,note_on,0,0,4,,,,,,,,,3,,,35,101
1091280,note_on,240,0,4,,,,,,,,,3,,,39,0
1091280,note_on,240,0,3,,,,,,,,,2,,,51,0
1091280,note_on,0,0,3,,,,,,,,,2,,,47,101
1091520,note_on,0,0,2,,,,,,,,,1,,,69,101
1091520,note_on,0,0,4,,,,,,,,,3,,,37,101
1091520,note_on,240,0,4,,,,,,,,,3,,,35,0
1091520,note_on,0,0,1,,,,,,,,,0,,,81,101
1091520,note_on,0,0,1,,,,,,,,,0,,,78,101
1091520,note_on,433,0,2,,,,,,,,,1,,,59,101
1091520,note_on,433,0,1,,,,,,,,,0,,,71,101
1091520,note_on,0,0,3,,,,,,,,,2,,,49,101
1091520,note_on,240,0,3,,,,,,,,,2,,,47,0
1091520,note_on,0,0,2,,,,,,,,,1,,,66,101
1091567,note_on,0,0,2,,,,,,,,,1,,,59,0
1091567,note_on,47,0,1,,,,,,,,,0,,,81,0
1091567,note_on,0,0,1,,,,,,,,,0,,,78,0
1091567,note_on,0,0,1,,,,,,,,,0,,,71,0
1091567,note_on,0,0,2,,,,,,,,,1,,,66,0
1091567,note_on,47,0,2,,,,,,,,,1,,,69,0
1091760,note_on,240,0,3,,,,,,,,,2,,,49,0
1091760,note_on,0,0,3,,,,,,,,,2,,,51,101
1091760,note_on,240,0,4,,,,,,,,,3,,,37,0
1091760,note_on,0,0,4,,,,,,,,,3,,,39,101
1092000,note_on,240,0,4,,,,,,,,,3,,,39,0
1092000,note_on,433,0,2,,,,,,,,,1,,,59,101
1092000,note_on,240,0,3,,,,,,,,,2,,,51,0
1092000,note_on,0,0,3,,,,,,,,,2,,,52,127
1092000,note_on,0,0,2,,,,,,,,,1,,,71,101
1092000,control_change,433,0,1,,,,,,,,,0,64,127,,
1092000,note_on,0,0,1,,,,,,,,,0,,,66,101
1092000,note_on,0,0,1,,,,,,,,,0,,,69,101
1092000,note_on,0,0,1,,,,,,,,,0,,,78,101
1092000,note_on,0,0,1,,,,,,,,,0,,,81,101
1092000,note_on,0,0,4,,,,,,,,,3,,,40,127
1092240,note_on,0,0,4,,,,,,,,,3,,,42,101
1092240,note_on,240,0,4,,,,,,,,,3,,,40,0
1092240,note_on,240,0,3,,,,,,,,,2,,,52,0
1092240,note_on,0,0,3,,,,,,,,,2,,,54,101
1092480,note_on,0,0,3,,,,,,,,,2,,,55,101
1092480,note_on,0,0,3,,,,,,,,,2,,,59,101
1092480,note_on,480,0,1,,,,,,,,,0,,,81,0
1092480,note_on,0,0,1,,,,,,,,,0,,,66,0
1092480,note_on,0,0,1,,,,,,,,,0,,,79,101
1092480,note_on,0,0,4,,,,,,,,,3,,,43,101
1092480,note_on,0,0,4,,,,,,,,,3,,,47,101
1092480,note_on,0,0,1,,,,,,,,,0,,,69,0
1092480,note_on,0,0,1,,,,,,,,,0,,,78,0
1092480,note_on,0,0,1,,,,,,,,,0,,,67,101
1092480,note_on,0,0,1,,,,,,,,,0,,,76,101
1092480,note_on,240,0,3,,,,,,,,,2,,,54,0
1092480,note_on,240,0,4,,,,,,,,,3,,,42,0
1092527,note_on,47,0,3,,,,,,,,,2,,,59,0
1092527,note_on,0,0,3,,,,,,,,,2,,,55,0
1092527,note_on,0,0,4,,,,,,,,,3,,,43,0
1092527,note_on,47,0,4,,,,,,,,,3,,,47,0
1092720,note_on,240,0,1,,,,,,,,,0,,,79,0
1092720,note_on,0,0,1,,,,,,,,,0,,,76,0
1092720,note_on,0,0,1,,,,,,,,,0,,,67,0
1092720,note_on,0,0,1,,,,,,,,,0,,,66,101
1092720,note_on,0,0,1,,,,,,,,,0,,,78,101
1092960,note_on,0,0,1,,,,,,,,,0,,,66,0
1092960,note_on,0,0,3,,,,,,,,,2,,,59,101
1092960,note_on,433,0,3,,,,,,,,,2,,,55,101
1092960,note_on,0,0,2,,,,,,,,,1,,,64,101
1092960,note_on,0,0,1,,,,,,,,,0,,,76,101
1092960,note_on,0,0,2,,,,,,,,,1,,,59,0
1092960,note_on,960,0,2,,,,,,,,,1,,,71,0
1092960,note_on,0,0,4,,,,,,,,,3,,,47,101
1092960,note_on,433,0,4,,,,,,,,,3,,,43,101
1092960,note_on,240,0,1,,,,,,,,,0,,,78,0
1093007,note_on,0,0,3,,,,,,,,,2,,,55,0
1093007,note_on,0,0,4,,,,,,,,,3,,,43,0
1093007,note_on,47,0,4,,,,,,,,,3,,,47,0
1093007,note_on,47,0,3,,,,,,,,,2,,,59,0
1093200,note_on,0,0,2,,,,,,,,,1,,,67,101
1093200,note_on,240,0,2,,,,,,,,,1,,,64,0
1093200,note_on,0,0,1,,,,,,,,,0,,,79,101
1093200,note_on,240,0,1,,,,,,,,,0,,,76,0
1093440,note_on,240,0,2,,,,,,,,,1,,,67,0
1093440,note_on,0,0,2,,,,,,,,,1,,,66,101
1093440,note_on,0,0,4,,,,,,,,,3,,,47,101
1093440,note_on,0,0,3,,,,,,,,,2,,,59,101
1093440,note_on,433,0,4,,,,,,,,,3,,,43,101
1093440,note_on,0,0,1,,,,,,,,,0,,,78,101
1093440,note_on,240,0,1,,,,,,,,,0,,,79,0
1093440,note_on,433,0,3,,,,,,,,,2,,,55,101
1093487,note_on,47,0,3,,,,,,,,,2,,,59,0
1093487,note_on,47,0,4,,,,,,,,,3,,,47,0
1093487,note_on,0,0,3,,,,,,,,,2,,,55,0
1093487,note_on,0,0,4,,,,,,,,,3,,,43,0
1093680,note_on,240,0,2,,,,,,,,,1,,,66,0
1093680,note_on,240,0,1,,,,,,,,,0,,,78,0
1093680,note_on,0,0,1,,,,,,,,,0,,,76,101
1093680,note_on,0,0,2,,,,,,,,,1,,,64,101
1093920,note_on,433,0,3,,,,,,,,,2,,,55,127
1093920,note_on,0,0,2,,,,,,,,,1,,,63,101
1093920,control_change,0,0,2,,,,,,,,,1,64,0,,
1093920,note_on,240,0,1,,,,,,,,,0,,,76,0
1093920,control_change,0,0,1,,,,,,,,,0,64,0,,
1093920,note_on,0,0,1,,,,,,,,,0,,,75,101
1093920,note_on,240,0,2,,,,,,,,,1,,,64,0
1093920,note_on,0,0,3,,,,,,,,,2,,,59,127
1093920,note_on,433,0,4,,,,,,,,,3,,,43,127
1093920,note_on,0,0,4,,,,,,,,,3,,,47,127
1094400,note_on,0,0,3,,,,,,,,,2,,,55,0
1094400,note_on,0,0,3,,,,,,,,,2,,,54,101
1094400,note_on,480,0,3,,,,,,,,,2,,,59,0
1094400,note_on,0,0,4,,,,,,,,,3,,,43,0
1094400,note_on,480,0,4,,,,,,,,,3,,,47,0
1094400,note_on,0,0,4,,,,,,,,,3,,,42,101
1094400,note_on,480,0,2,,,,,,,,,1,,,63,0
1094400,note_on,0,0,2,,,,,,,,,1,,,69,101
1094400,note_on,0,0,2,,,,,,,,,1,,,59,101
1094400,note_on,0,0,2,,,,,,,,,1,,,66,101
1094400,note_on,480,0,1,,,,,,,,,0,,,75,0
1094400,note_on,0,0,1,,,,,,,,,0,,,71,101
1094400,note_on,0,0,1,,,,,,,,,0,,,78,101
1094400,note_on,0,0,1,,,,,,,,,0,,,81,101
1094447,note_on,47,0,1,,,,,,,,,0,,,81,0
1094447,note_on,0,0,1,,,,,,,,,0,,,78,0
1094447,note_on,0,0,1,,,,,,,,,0,,,71,0
1094447,note_on,47,0,2,,,,,,,,,1,,,69,0
1094447,note_on,0,0,2,,,,,,,,,1,,,66,0
1094447,note_on,0,0,2,,,,,,,,,1,,,59,0
1094640,note_on,240,0,3,,,,,,,,,2,,,54,0
1094640,note_on,0,0,3,,,,,,,,,2,,,52,101
1094640,note_on,240,0,4,,,,,,,,,3,,,42,0
1094640,note_on,0,0,4,,,,,,,,,3,,,40,101
1094880,note_on,0,0,2,,,,,,,,,1,,,66,101
1094880,note_on,0,0,1,,,,,,,,,0,,,81,101
1094880,note_on,0,0,2,,,,,,,,,1,,,69,101
1094880,note_on,240,0,4,,,,,,,,,3,,,40,0
1094880,note_on,433,0,2,,,,,,,,,1,,,59,101
1094880,note_on,240,0,3,,,,,,,,,2,,,52,0
1094880,note_on,0,0,1,,,,,,,,,0,,,78,101
1094880,note_on,433,0,1,,,,,,,,,0,,,71,101
1094880,note_on,0,0,4,,,,,,,,,3,,,39,101
1094880,note_on,0,0,3,,,,,,,,,2,,,51,101
1094927,note_on,0,0,2,,,,,,,,,1,,,66,0
1094927,note_on,47,0,2,,,,,,,,,1,,,69,0
1094927,note_on,0,0,1,,,,,,,,,0,,,71,0
1094927,note_on,0,0,1,,,,,,,,,0,,,78,0
1094927,note_on,47,0,1,,,,,,,,,0,,,81,0
1094927,note_on,0,0,2,,,,,,,,,1,,,59,0
1095120,note_on,240,0,3,,,,,,,,,2,,,51,0
1095120,note_on,0,0,3,,,,,,,,,2,,,47,101
1095120,note_on,240,0,4,,,,,,,,,3,,,39,0
1095120,note_on,0,0,4,,,,,,,,,3,,,35,101
1095360,note_on,433,0,1,,,,,,,,,0,,,71,101
1095360,note_on,0,0,2,,,,,,,,,1,,,69,101
1095360,note_on,0,0,1,,,,,,,,,0,,,78,101
1095360,note_on,433,0,2,,,,,,,,,1,,,59,101
1095360,note_on,0,0,2,,,,,,,,,1,,,66,101
1095360,note_on,0,0,1,,,,,,,,,0,,,81,101
1095360,note_on,240,0,3,,,,,,,,,2,,,47,0
1095360,note_on,0,0,4,,,,,,,,,3,,,37,101
1095360,note_on,240,0,4,,,,,,,,,3,,,35,0
1095360,note_on,0,0,3,,,,,,,,,2,,,49,101
1095407,note_on,47,0,1,,,,,,,,,0,,,81,0
1095407,note_on,0,0,1,,,,,,,,,0,,,78,0
1095407,note_on,0,0,1,,,,,,,,,0,,,71,0
1095407,note_on,0,0,2,,,,,,,,,1,,,59,0
1095407,note_on,0,0,2,,,,,,,,,1,,,66,0
1095407,note_on,47,0,2,,,,,,,,,1,,,69,0
1095600,note_on,0,0,4,,,,,,,,,3,,,39,101
1095600,note_on,240,0,4,,,,,,,,,3,,,37,0
1095600,note_on,0,0,3,,,,,,,,,2,,,51,101
1095600,note_on,240,0,3,,,,,,,,,2,,,49,0
1095840,control_change,433,0,2,,,,,,,,,1,64,127,,
1095840,note_on,0,0,2,,,,,,,,,1,,,59,127
1095840,note_on,0,0,2,,,,,,,,,1,,,66,127
1095840,note_on,0,0,2,,,,,,,,,1,,,69,127
1095840,note_on,0,0,3,,,,,,,,,2,,,52,101
1095840,note_on,240,0,3,,,,,,,,,2,,,51,0
1095840,control_change,433,0,1,,,,,,,,,0,64,127,,
1095840,note_on,0,0,1,,,,,,,,,0,,,71,127
1095840,note_on,0,0,1,,,,,,,,,0,,,78,127
1095840,note_on,0,0,1,,,,,,,,,0,,,81,127
1095840,note_on,240,0,4,,,,,,,,,3,,,39,0
1095840,note_on,0,0,4,,,,,,,,,3,,,40,101
1096080,note_on,240,0,3,,,,,,,,,2,,,52,0
1096080,note_on,0,0,4,,,,,,,,,3,,,42,101
1096080,note_on,0,0,3,,,,,,,,,2,,,54,101
1096080,note_on,240,0,4,,,,,,,,,3,,,40,0
1096320,note_on,0,0,1,,,,,,,,,0,,,76,101
1096320,note_on,0,0,1,,,,,,,,,0,,,71,0
1096320,note_on,0,0,1,,,,,,,,,0,,,78,0
1096320,note_on,0,0,2,,,,,,,,,1,,,64,101
1096320,note_on,240,0,4,,,,,,,,,3,,,42,0
1096320,note_on,0,0,4,,,,,,,,,3,,,43,101
1096320,note_on,480,0,2,,,,,,,,,1,,,69,0
1096320,note_on,0,0,2,,,,,,,,,1,,,66,0
1096320,note_on,0,0,2,,,,,,,,,1,,,59,0
1096320,note_on,0,0,1,,,,,,,,,0,,,79,101
1096320,note_on,0,0,2,,,,,,,,,1,,,67,101
1096320,note_on,480,0,1,,,,,,,,,0,,,81,0
1096320,note_on,0,0,4,,,,,,,,,3,,,47,101
1096320,note_on,240,0,3,,,,,,,,,2,,,54,0
1096320,note_on,0,0,3,,,,,,,,,2,,,55,101
1096320,note_on,0,0,3,,,,,,,,,2,,,59,101
1096367,note_on,0,0,4,,,,,,,,,3,,,43,0
1096367,note_on,47,0,4,,,,,,,,,3,,,47,0
1096367,note_on,47,0,3,,,,,,,,,2,,,59,0
1096367,note_on,0,0,3,,,,,,,,,2,,,55,0
1096560,note_on,240,0,2,,,,,,,,,1,,,67,0
1096560,note_on,0,0,2,,,,,,,,,1,,,64,0
1096560,note_on,0,0,2,,,,,,,,,1,,,66,101
1096560,note_on,0,0,1,,,,,,,,,0,,,78,101
1096560,note_on,0,0,1,,,,,,,,,0,,,76,0
1096560,note_on,240,0,1,,,,,,,,,0,,,79,0
1096800,note_on,0,0,3,,,,,,,,,2,,,59,101
1096800,note_on,433,0,4,,,,,,,,,3,,,43,101
1096800,note_on,0,0,4,,,,,,,,,3,,,47,101
1096800,note_on,0,0,1,,,,,,,,,0,,,76,101
1096800,control_change,0,0,1,,,,,,,,,0,64,0,,
1096800,note_on,240,0,1,,,,,,,,,0,,,78,0
1096800,note_on,240,0,2,,,,,,,,,1,,,66,0
1096800,control_change,0,0,2,,,,,,,,,1,64,0,,
1096800,note_on,0,0,2,,,,,,,,,1,,,64,101
1096800,note_on,433,0,3,,,,,,,,,2,,,55,101
1096847,note_on,47,0,3,,,,,,,,,2,,,59,0
1096847,note_on,47,0,4,,,,,,,,,3,,,47,0
1096847,note_on,0,0,3,,,,,,,,,2,,,55,0
1096847,note_on,0,0,4,,,,,,,,,3,,,43,0
1097040,note_on,240,0,2,,,,,,,,,1,,,64,0
1097040,note_on,0,0,2,,,,,,,,,1,,,67,101
1097040,note_on,240,0,1,,,,,,,,,0,,,76,0
1097040,note_on,0,0,1,,,,,,,,,0,,,79,101
1097280,note_on,0,0,2,,,,,,,,,1,,,76,127
1097280,note_on,433,0,3,,,,,,,,,2,,,55,127
1097280,note_on,240,0,1,,,,,,,,,0,,,79,0
1097280,note_on,0,0,1,,,,,,,,,0,,,88,127
1097280,note_on,240,0,2,,,,,,,,,1,,,67,0
1097280,note_on,433,0,4,,,,,,,,,3,,,43,127
1097520,note_on,0,0,3,,,,,,,,,2,,,54,101
1097520,note_on,240,0,3,,,,,,,,,2,,,55,0
1097520,note_on,240,0,2,,,,,,,,,1,,,76,0
1097520,note_on,0,0,2,,,,,,,,,1,,,75,101
1097520,note_on,240,0,1,,,,,,,,,0,,,88,0
1097520,note_on,0,0,1,,,,,,,,,0,,,87,101
1097520,note_on,0,0,4,,,,,,,,,3,,,42,101
1097520,note_on,240,0,4,,,,,,,,,3,,,43,0
1097760,note_on,240,0,2,,,,,,,,,1,,,75,0
1097760,note_on,0,0,2,,,,,,,,,1,,,74,101
1097760,note_on,240,0,1,,,,,,,,,0,,,87,0
1097760,note_on,0,0,1,,,,,,,,,0,,,86,101
1097760,note_on,0,0,4,,,,,,,,,3,,,41,101
1097760,note_on,240,0,4,,,,,,,,,3,,,42,0
1097760,note_on,240,0,3,,,,,,,,,2,,,54,0
1097760,note_on,0,0,3,,,,,,,,,2,,,53,101
1098000,note_on,0,0,1,,,,,,,,,0,,,83,101
1098000,note_on,240,0,1,,,,,,,,,0,,,86,0
1098000,note_on,0,0,2,,,,,,,,,1,,,71,101
1098000,note_on,240,0,2,,,,,,,,,1,,,74,0
1098240,note_on,0,0,3,,,,,,,,,2,,,67,62
1098240,note_on,0,0,3,,,,,,,,,2,,,62,62
1098240,note_on,0,0,3,,,,,,,,,2,,,59,62
1098240,note_on,480,0,3,,,,,,,,,2,,,53,0
1098240,note_on,0,0,1,,,,,,,,,0,,,91,62
1098240,note_on,240,0,1,,,,,,,,,0,,,83,0
1098240,note_on,0,0,2,,,,,,,,,1,,,79,62
1098240,note_on,240,0,2,,,,,,,,,1,,,71,0
1098240,note_on,0,0,4,,,,,,,,,3,,,53,62
1098240,note_on,480,0,4,,,,,,,,,3,,,41,0
1098287,note_on,47,0,3,,,,,,,,,2,,,67,0
1098287,note_on,47,0,4,,,,,,,,,3,,,53,0
1098287,note_on,0,0,3,,,,,,,,,2,,,62,0
1098287,note_on,0,0,3,,,,,,,,,2,,,59,0
1098480,note_on,240,0,1,,,,,,,,,0,,,91,0
1098480,note_on,0,0,1,,,,,,,,,0,,,89,62
1098480,note_on,0,0,2,,,,,,,,,1,,,77,62
1098480,note_on,240,0,2,,,,,,,,,1,,,79,0
1098720,note_on,0,0,3,,,,,,,,,2,,,62,62
1098720,note_on,240,0,1,,,,,,,,,0,,,89,0
1098720,note_on,0,0,1,,,,,,,,,0,,,88,62
1098720,note_on,240,0,2,,,,,,,,,1,,,77,0
1098720,note_on,0,0,2,,,,,,,,,1,,,76,62
1098720,note_on,0,0,3,,,,,,,,,2,,,67,62
1098720,note_on,433,0,4,,,,,,,,,3,,,53,62
1098720,note_on,433,0,3,,,,,,,,,2,,,59,62
1098767,note_on,47,0,4,,,,,,,,,3,,,53,0
1098767,note_on,47,0,3,,,,,,,,,2,,,67,0
1098767,note_on,0,0,3,,,,,,,,,2,,,59,0
1098767,note_on,0,0,3,,,,,,,,,2,,,62,0
1098960,note_on,0,0,1,,,,,,,,,0,,,86,62
1098960,note_on,240,0,1,,,,,,,,,0,,,88,0
1098960,note_on,0,0,2,,,,,,,,,1,,,74,62
1098960,note_on,240,0,2,,,,,,,,,1,,,76,0
1099200,note_on,240,0,1,,,,,,,,,0,,,86,0
1099200,note_on,433,0,3,,,,,,,,,2,,,59,62
1099200,note_on,240,0,2,,,,,,,,,1,,,74,0
1099200,note_on,0,0,3,,,,,,,,,2,,,62,62
1099200,note_on,0,0,1,,,,,,,,,0,,,84,62
1099200,note_on,0,0,2,,,,,,,,,1,,,72,62
1099200,note_on,0,0,3,,,,,,,,,2,,,67,62
1099200,note_on,433,0,4,,,,,,,,,3,,,53,62
1099247,note_on,47,0,3,,,,,,,,,2,,,67,0
1099247,note_on,0,0,3,,,,,,,,,2,,,62,0
1099247,note_on,0,0,3,,,,,,,,,2,,,59,0
1099247,note_on,47,0,4,,,,,,,,,3,,,53,0
1099440,note_on,240,0,2,,,,,,,,,1,,,72,0
1099440,note_on,240,0,1,,,,,,,,,0,,,84,0
1099440,note_on,0,0,1,,,,,,,,,0,,,83,62
1099440,note_on,0,0,2,,,,,,,,,1,,,71,62
1099680,note_on,240,0,2,,,,,,,,,1,,,71,0
1099680,note_on,433,0,3,,,,,,,,,2,,,62,62
1099680,note_on,0,0,1,,,,,,,,,0,,,84,62
1099680,note_on,240,0,1,,,,,,,,,0,,,83,0
1099680,note_on,0,0,3,,,,,,,,,2,,,67,62
1099680,note_on,433,0,4,,,,,,,,,3,,,53,62
1099680,note_on,0,0,2,,,,,,,,,1,,,72,62
1099920,note_on,240,0,1,,,,,,,,,0,,,84,0
1099920,note_on,0,0,1,,,,,,,,,0,,,83,62
1099920,note_on,0,0,2,,,,,,,,,1,,,71,62
1099920,note_on,240,0,2,,,,,,,,,1,,,72,0
1100160,note_on,0,0,2,,,,,,,,,1,,,72,62
1100160,note_on,240,0,2,,,,,,,,,1,,,71,0
1100160,note_on,0,0,3,,,,,,,,,2,,,60,62
1100160,note_on,0,0,3,,,,,,,,,2,,,62,0
1100160,note_on,0,0,1,,,,,,,,,0,,,84,62
1100160,note_on,240,0,1,,,,,,,,,0,,,83,0
1100160,note_on,480,0,4,,,,,,,,,3,,,53,0
1100160,note_on,0,0,4,,,,,,,,,3,,,52,62
1100160,note_on,480,0,3,,,,,,,,,2,,,67,0
1100400,note_on,0,0,2,,,,,,,,,1,,,74,62
1100400,note_on,240,0,1,,,,,,,,,0,,,84,0
1100400,note_on,0,0,1,,,,,,,,,0,,,86,62
1100400,note_on,240,0,2,,,,,,,,,1,,,72,0
1100640,note_on,0,0,1,,,,,,,,,0,,,88,62
1100640,note_on,480,0,4,,,,,,,,,3,,,52,0
1100640,note_on,240,0,1,,,,,,,,,0,,,86,0
1100640,note_on,480,0,3,,,,,,,,,2,,,60,0
1100640,note_on,0,0,2,,,,,,,,,1,,,76,62
1100640,note_on,240,0,2,,,,,,,,,1,,,74,0
1100880,note_on,0,0,1,,,,,,,,,0,,,86,62
1100880,note_on,240,0,1,,,,,,,,,0,,,88,0
1100880,note_on,0,0,2,,,,,,,,,1,,,74,62
1100880,note_on,240,0,2,,,,,,,,,1,,,76,0
1101120,note_on,240,0,1,,,,,,,,,0,,,86,0
1101120,note_on,0,0,2,,,,,,,,,1,,,73,88
1101120,note_on,480,0,3,,,,,,,,,2,,,52,88
1101120,note_on,0,0,1,,,,,,,,,0,,,85,88
1101120,note_on,480,0,4,,,,,,,,,3,,,40,88
1101120,note_on,240,0,2,,,,,,,,,1,,,74,0
1101360,note_on,240,0,2,,,,,,,,,1,,,73,0
1101360,note_on,0,0,2,,,,,,,,,1,,,72,62
1101360,note_on,0,0,3,,,,,,,,,2,,,51,62
1101360,note_on,240,0,3,,,,,,,,,2,,,52,0
1101360,note_on,240,0,1,,,,,,,,,0,,,85,0
1101360,note_on,0,0,1,,,,,,,,,0,,,84,62
1101360,note_on,240,0,4,,,,,,,,,3,,,40,0
1101360,note_on,0,0,4,,,,,,,,,3,,,39,62
1101600,note_on,0,0,3,,,,,,,,,2,,,50,62
1101600,note_on,240,0,2,,,,,,,,,1,,,72,0
1101600,note_on,240,0,3,,,,,,,,,2,,,51,0
1101600,note_on,0,0,2,,,,,,,,,1,,,71,62
1101600,note_on,240,0,4,,,,,,,,,3,,,39,0
1101600,note_on,0,0,1,,,,,,,,,0,,,83,62
1101600,note_on,240,0,1,,,,,,,,,0,,,84,0
1101600,note_on,0,0,4,,,,,,,,,3,,,38,62
1101840,note_on,0,0,1,,,,,,,,,0,,,80,62
1101840,note_on,240,0,1,,,,,,,,,0,,,83,0
1101840,note_on,0,0,2,,,,,,,,,1,,,68,62
1101840,note_on,240,0,2,,,,,,,,,1,,,71,0
1102080,note_on,0,0,3,,,,,,,,,2,,,64,62
1102080,note_on,0,0,3,,,,,,,,,2,,,59,62
1102080,note_on,240,0,2,,,,,,,,,1,,,68,0
1102080,note_on,0,0,2,,,,,,,,,1,,,76,62
1102080,note_on,480,0,3,,,,,,,,,2,,,50,0
1102080,note_on,240,0,1,,,,,,,,,0,,,80,0
1102080,note_on,480,0,4,,,,,,,,,3,,,38,0
1102080,note_on,0,0,4,,,,,,,,,3,,,50,62
1102080,note_on,0,0,3,,,,,,,,,2,,,56,62
1102080,note_on,0,0,1,,,,,,,,,0,,,88,62
1102127,note_on,0,0,3,,,,,,,,,2,,,59,0
1102127,note_on,47,0,3,,,,,,,,,2,,,64,0
1102127,note_on,47,0,4,,,,,,,,,3,,,50,0
1102127,note_on,0,0,3,,,,,,,,,2,,,56,0
1102320,note_on,0,0,2,,,,,,,,,1,,,74,62
1102320,note_on,240,0,2,,,,,,,,,1,,,76,0
1102320,note_on,0,0,1,,,,,,,,,0,,,86,62
1102320,note_on,240,0,1,,,,,,,,,0,,,88,0
1102560,note_on,0,0,2,,,,,,,,,1,,,72,62
1102560,note_on,240,0,2,,,,,,,,,1,,,74,0
1102560,note_on,240,0,1,,,,,,,,,0,,,86,0
1102560,note_on,0,0,1,,,,,,,,,0,,,84,62
1102560,note_on,433,0,4,,,,,,,,,3,,,50,62
1102560,note_on,0,0,3,,,,,,,,,2,,,59,62
1102560,note_on,433,0,3,,,,,,,,,2,,,56,62
1102560,note_on,0,0,3,,,,,,,,,2,,,64,62
1102607,note_on,47,0,4,,,,,,,,,3,,,50,0
1102607,note_on,0,0,3,,,,,,,,,2,,,56,0
1102607,note_on,0,0,3,,,,,,,,,2,,,59,0
1102607,note_on,47,0,3,,,,,,,,,2,,,64,0
1102800,note_on,0,0,1,,,,,,,,,0,,,83,62
1102800,note_on,0,0,2,,,,,,,,,1,,,71,62
1102800,note_on,240,0,2,,,,,,,,,1,,,72,0
1102800,note_on,240,0,1,,,,,,,,,0,,,84,0
1103040,note_on,240,0,2,,,,,,,,,1,,,71,0
1103040,note_on,433,0,4,,,,,,,,,3,,,50,62
1103040,note_on,0,0,1,,,,,,,,,0,,,81,62
1103040,note_on,240,0,1,,,,,,,,,0,,,83,0
1103040,note_on,0,0,2,,,,,,,,,1,,,69,62
1103040,note_on,433,0,3,,,,,,,,,2,,,56,62
1103040,note_on,0,0,3,,,,,,,,,2,,,59,62
1103040,note_on,0,0,3,,,,,,,,,2,,,64,62
1103087,note_on,47,0,4,,,,,,,,,3,,,50,0
1103087,note_on,47,0,3,,,,,,,,,2,,,64,0
1103087,note_on,0,0,3,,,,,,,,,2,,,59,0
1103087,note_on,0,0,3,,,,,,,,,2,,,56,0
1103280,note_on,240,0,1,,,,,,,,,0,,,81,0
1103280,note_on,0,0,1,,,,,,,,,0,,,80,62
1103280,note_on,240,0,2,,,,,,,,,1,,,69,0
1103280,note_on,0,0,2,,,,,,,,,1,,,68,62
1103520,note_on,0,0,1,,,,,,,,,0,,,80,62
1103520,note_on,240,0,2,,,,,,,,,1,,,68,0
1103520,note_on,433,0,4,,,,,,,,,3,,,48,62
1103520,note_on,240,0,1,,,,,,,,,0,,,80,0
1103520,note_on,0,0,2,,,,,,,,,1,,,68,62
1103520,note_on,433,0,3,,,,,,,,,2,,,57,62
1103520,note_on,0,0,3,,,,,,,,,2,,,64,62
1103760,note_on,0,0,2,,,,,,,,,1,,,69,62
1103760,note_on,240,0,2,,,,,,,,,1,,,68,0
1103760,note_on,0,0,1,,,,,,,,,0,,,81,62
1103760,note_on,240,0,1,,,,,,,,,0,,,80,0
1104000,note_on,240,0,2,,,,,,,,,1,,,69,0
1104000,note_on,0,0,1,,,,,,,,,0,,,82,62
1104000,note_on,0,0,2,,,,,,,,,1,,,70,62
1104000,note_on,240,0,1,,,,,,,,,0,,,81,0
1104240,note_on,0,0,1,,,,,,,,,0,,,83,62
1104240,note_on,240,0,1,,,,,,,,,0,,,82,0
1104240,note_on,240,0,2,,,,,,,,,1,,,70,0
1104240,note_on,0,0,2,,,,,,,,,1,,,71,62
1104480,note_on,0,0,3,,,,,,,,,2,,,57,62
1104480,note_on,240,0,2,,,,,,,,,1,,,71,0
1104480,note_on,0,0,2,,,,,,,,,1,,,72,75
1104480,note_on,960,0,3,,,,,,,,,2,,,64,0
1104480,note_on,0,0,3,,,,,,,,,2,,,69,62
1104480,note_on,0,0,4,,,,,,,,,3,,,53,62
1104480,note_on,0,0,4,,,,,,,,,3,,,41,62
1104480,note_on,960,0,4,,,,,,,,,3,,,48,0
1104480,note_on,240,0,1,,,,,,,,,0,,,83,0
1104480,note_on,0,0,1,,,,,,,,,0,,,84,75
1104480,note_on,0,0,3,,,,,,,,,2,,,57,0
1104480,note_on,0,0,3,,,,,,,,,2,,,63,62
1104720,note_on,240,0,1,,,,,,,,,0,,,84,0
1104720,note_on,0,0,1,,,,,,,,,0,,,85,75
1104720,note_on,0,0,2,,,,,,,,,1,,,73,75
1104720,note_on,240,0,2,,,,,,,,,1,,,72,0
1104960,note_on,0,0,2,,,,,,,,,1,,,74,88
1104960,note_on,240,0,2,,,,,,,,,1,,,73,0
1104960,note_on,240,0,1,,,,,,,,,0,,,85,0
1104960,note_on,0,0,1,,,,,,,,,0,,,86,88
1105200,note_on,0,0,2,,,,,,,,,1,,,75,88
1105200,note_on,240,0,2,,,,,,,,,1,,,74,0
1105200,note_on,240,0,1,,,,,,,,,0,,,86,0
1105200,note_on,0,0,1,,,,,,,,,0,,,87,88
1105440,note_on,240,0,1,,,,,,,,,0,,,87,0
1105440,note_on,960,0,3,,,,,,,,,2,,,69,0
1105440,note_on,0,0,3,,,,,,,,,2,,,63,0
1105440,note_on,0,0,3,,,,,,,,,2,,,59,62
1105440,note_on,0,0,3,,,,,,,,,2,,,64,62
1105440,note_on,0,0,3,,,,,,,,,2,,,68,62
1105440,note_on,0,0,1,,,,,,,,,0,,,88,88
1105440,note_on,0,0,3,,,,,,,,,2,,,57,0
1105440,note_on,0,0,4,,,,,,,,,3,,,52,62
1105440,note_on,0,0,4,,,,,,,,,3,,,41,0
1105440,note_on,960,0,4,,,,,,,,,3,,,53,0
1105440,note_on,240,0,2,,,,,,,,,1,,,75,0
1105440,note_on,0,0,2,,,,,,,,,1,,,76,88
1105440,note_on,0,0,4,,,,,,,,,3,,,40,62
1105680,note_on,240,0,1,,,,,,,,,0,,,88,0
1105680,note_on,0,0,1,,,,,,,,,0,,,80,88
1105920,note_on,0,0,1,,,,,,,,,0,,,83,75
1105920,note_on,240,0,1,,,,,,,,,0,,,80,0
1105920,note_on,480,0,2,,,,,,,,,1,,,76,0
1106160,note_on,0,0,1,,,,,,,,,0,,,87,75
1106160,note_on,240,0,1,,,,,,,,,0,,,83,0
1106400,note_on,0,0,1,,,,,,,,,0,,,88,62
1106400,note_on,960,0,3,,,,,,,,,2,,,68,0
1106400,note_on,0,0,3,,,,,,,,,2,,,59,0
1106400,note_on,240,0,1,,,,,,,,,0,,,87,0
1106400,note_on,0,0,3,,,,,,,,,2,,,64,0
1106640,note_on,240,0,1,,,,,,,,,0,,,88,0
1106640,note_on,0,0,1,,,,,,,,,0,,,83,62
1106880,note_on,960,0,2,,,,,,,,,1,,,64,75
1106880,note_on,240,0,1,,,,,,,,,0,,,83,0
1106880,note_on,0,0,2,,,,,,,,,1,,,68,75
1106880,note_on,0,0,1,,,,,,,,,0,,,80,62
1106880,note_on,480,0,3,,,,,,,,,2,,,59,62
1106927,note_on,47,0,3,,,,,,,,,2,,,59,0
1107120,note_on,0,0,1,,,,,,,,,0,,,76,62
1107120,note_on,240,0,1,,,,,,,,,0,,,80,0
1107360,note_on,1920,0,4,,,,,,,,,3,,,52,0
1107360,note_on,0,0,1,,,,,,,,,0,,,73,62
1107360,note_on,433,0,3,,,,,,,,,2,,,59,62
1107360,note_on,0,0,2,,,,,,,,,1,,,68,75
1107360,note_on,0,0,2,,,,,,,,,1,,,65,75
1107360,note_on,240,0,1,,,,,,,,,0,,,76,0
1107360,note_on,0,0,2,,,,,,,,,1,,,64,0
1107360,note_on,480,0,2,,,,,,,,,1,,,68,0
1107360,note_on,0,0,2,,,,,,,,,1,,,61,75
1107360,note_on,0,0,4,,,,,,,,,3,,,52,62
1107360,note_on,0,0,4,,,,,,,,,3,,,40,62
1107360,note_on,0,0,4,,,,,,,,,3,,,40,0
1107600,note_on,0,0,1,,,,,,,,,0,,,77,62
1107600,note_on,240,0,1,,,,,,,,,0,,,73,0
1107840,note_on,240,0,1,,,,,,,,,0,,,77,0
1107840,note_on,0,0,1,,,,,,,,,0,,,78,62
1107840,note_on,480,0,2,,,,,,,,,1,,,68,0
1107840,note_on,0,0,2,,,,,,,,,1,,,65,0
1107840,note_on,0,0,2,,,,,,,,,1,,,61,0
1107840,note_on,0,0,2,,,,,,,,,1,,,66,75
1107840,note_on,0,0,2,,,,,,,,,1,,,69,75
1107840,note_on,0,0,3,,,,,,,,,2,,,57,62
1107840,note_on,480,0,3,,,,,,,,,2,,,59,0
1108080,note_on,240,0,1,,,,,,,,,0,,,78,0
1108080,note_on,0,0,1,,,,,,,,,0,,,81,62
1108320,note_on,240,0,1,,,,,,,,,0,,,81,0
1108320,note_on,480,0,2,,,,,,,,,1,,,69,0
1108320,note_on,0,0,2,,,,,,,,,1,,,66,0
1108320,note_on,0,0,1,,,,,,,,,0,,,85,62
1108320,note_on,480,0,3,,,,,,,,,2,,,57,0
1108560,note_on,0,0,1,,,,,,,,,0,,,81,62
1108560,note_on,240,0,1,,,,,,,,,0,,,85,0
1108800,note_on,480,0,3,,,,,,,,,2,,,57,62
1108800,note_on,480,0,2,,,,,,,,,1,,,61,75
1108800,note_on,0,0,2,,,,,,,,,1,,,66,75
1108800,note_on,0,0,2,,,,,,,,,1,,,69,75
1108800,note_on,240,0,1,,,,,,,,,0,,,81,0
1108800,note_on,0,0,1,,,,,,,,,0,,,78,62
1108847,note_on,47,0,3,,,,,,,,,2,,,57,0
1109040,note_on,240,0,1,,,,,,,,,0,,,78,0
1109040,note_on,0,0,1,,,,,,,,,0,,,73,62
1109280,note_on,0,0,2,,,,,,,,,1,,,66,75
1109280,note_on,0,0,2,,,,,,,,,1,,,63,75
1109280,note_on,433,0,3,,,,,,,,,2,,,57,62
1109280,note_on,0,0,2,,,,,,,,,1,,,59,75
1109280,note_on,0,0,1,,,,,,,,,0,,,71,62
1109280,note_on,240,0,1,,,,,,,,,0,,,73,0
1109280,note_on,1920,0,4,,,,,,,,,3,,,52,0
1109280,note_on,0,0,2,,,,,,,,,1,,,61,0
1109280,note_on,0,0,2,,,,,,,,,1,,,66,0
1109280,note_on,480,0,2,,,,,,,,,1,,,69,0
1109280,note_on,0,0,4,,,,,,,,,3,,,52,62
1109280,note_on,0,0,4,,,,,,,,,3,,,40,62
1109280,note_on,0,0,4,,,,,,,,,3,,,40,0
1109520,note_on,0,0,1,,,,,,,,,0,,,75,62
1109520,note_on,240,0,1,,,,,,,,,0,,,71,0
1109760,note_on,0,0,2,,,,,,,,,1,,,59,0
1109760,note_on,0,0,2,,,,,,,,,1,,,64,75
1109760,note_on,0,0,2,,,,,,,,,1,,,68,75
1109760,note_on,0,0,2,,,,,,,,,1,,,63,0
1109760,note_on,240,0,1,,,,,,,,,0,,,75,0
1109760,note_on,0,0,3,,,,,,,,,2,,,56,62
1109760,note_on,480,0,3,,,,,,,,,2,,,57,0
1109760,note_on,0,0,1,,,,,,,,,0,,,76,62
1109760,note_on,480,0,2,,,,,,,,,1,,,66,0
1110000,note_on,0,0,1,,,,,,,,,0,,,80,62
1110000,note_on,240,0,1,,,,,,,,,0,,,76,0
1110240,note_on,0,0,2,,,,,,,,,1,,,64,0
1110240,note_on,480,0,3,,,,,,,,,2,,,56,0
1110240,note_on,0,0,1,,,,,,,,,0,,,83,62
1110240,note_on,240,0,1,,,,,,,,,0,,,80,0
1110240,note_on,480,0,2,,,,,,,,,1,,,68,0
1110480,note_on,0,0,1,,,,,,,,,0,,,80,62
1110480,note_on,240,0,1,,,,,,,,,0,,,83,0
1110720,note_on,0,0,1,,,,,,,,,0,,,76,62
1110720,note_on,240,0,1,,,,,,,,,0,,,80,0
1110720,note_on,480,0,3,,,,,,,,,2,,,56,62
1110720,note_on,0,0,2,,,,,,,,,1,,,64,75
1110720,note_on,480,0,2,,,,,,,,,1,,,59,75
1110960,note_on,0,0,1,,,,,,,,,0,,,71,62
1110960,note_on,240,0,1,,,,,,,,,0,,,76,0
1110960,note_on,240,0,3,,,,,,,,,2,,,56,0
1110960,note_on,0,0,3,,,,,,,,,2,,,55,62
1111200,note_on,0,0,3,,,,,,,,,2,,,54,62
1111200,note_on,480,0,2,,,,,,,,,1,,,64,0
1111200,note_on,0,0,4,,,,,,,,,3,,,40,62
1111200,note_on,240,0,3,,,,,,,,,2,,,55,0
1111200,note_on,0,0,2,,,,,,,,,1,,,59,75
1111200,note_on,0,0,2,,,,,,,,,1,,,63,75
1111200,note_on,0,0,4,,,,,,,,,3,,,40,0
1111200,note_on,1920,0,4,,,,,,,,,3,,,52,0
1111200,note_on,0,0,1,,,,,,,,,0,,,69,62
1111200,note_on,240,0,1,,,,,,,,,0,,,71,0
1111200,note_on,0,0,2,,,,,,,,,1,,,59,0
1111247,note_on,47,0,3,,,,,,,,,2,,,54,0
1111247,note_on,47,0,2,,,,,,,,,1,,,63,0
1111247,note_on,0,0,2,,,,,,,,,1,,,59,0
1111440,note_on,0,0,1,,,,,,,,,0,,,71,62
1111440,note_on,240,0,1,,,,,,,,,0,,,69,0
1111680,note_on,0,0,1,,,,,,,,,0,,,73,62
1111680,note_on,433,0,3,,,,,,,,,2,,,54,88
1111680,note_on,433,0,2,,,,,,,,,1,,,59,75
1111680,note_on,0,0,2,,,,,,,,,1,,,63,75
1111680,note_on,240,0,1,,,,,,,,,0,,,71,0
1111727,note_on,47,0,3,,,,,,,,,2,,,54,0
1111727,note_on,47,0,2,,,,,,,,,1,,,63,0
1111727,note_on,0,0,2,,,,,,,,,1,,,59,0
1111920,note_on,0,0,1,,,,,,,,,0,,,75,62
1111920,note_on,240,0,1,,,,,,,,,0,,,73,0
1112160,note_on,0,0,2,,,,,,,,,1,,,63,75
1112160,note_on,0,0,1,,,,,,,,,0,,,76,62
1112160,note_on,433,0,3,,,,,,,,,2,,,54,88
1112160,note_on,240,0,1,,,,,,,,,0,,,75,0
1112160,note_on,433,0,2,,,,,,,,,1,,,59,75
1112207,note_on,0,0,2,,,,,,,,,1,,,59,0
1112207,note_on,47,0,2,,,,,,,,,1,,,63,0
1112207,note_on,47,0,3,,,,,,,,,2,,,54,0
1112400,note_on,240,0,1,,,,,,,,,0,,,76,0
1112400,note_on,0,0,1,,,,,,,,,0,,,78,62
1112640,note_on,240,0,1,,,,,,,,,0,,,78,0
1112640,note_on,433,0,2,,,,,,,,,1,,,59,75
1112640,note_on,0,0,1,,,,,,,,,0,,,80,62
1112640,note_on,433,0,3,,,,,,,,,2,,,54,62
1112640,note_on,0,0,2,,,,,,,,,1,,,63,75
1112687,note_on,47,0,3,,,,,,,,,2,,,54,0
1112687,note_on,47,0,2,,,,,,,,,1,,,63,0
1112687,note_on,0,0,2,,,,,,,,,1,,,59,0
1112880,note_on,240,0,1,,,,,,,,,0,,,80,0
1112880,note_on,0,0,1,,,,,,,,,0,,,81,62
1113120,note_on,240,0,1,,,,,,,,,0,,,81,0
1113120,note_on,0,0,2,,,,,,,,,1,,,63,75
1113120,note_on,0,0,1,,,,,,,,,0,,,80,62
1113120,note_on,0,0,4,,,,,,,,,3,,,40,62
1113120,note_on,433,0,3,,,,,,,,,2,,,54,62
1113120,note_on,433,0,2,,,,,,,,,1,,,59,75
1113120,note_on,1920,0,4,,,,,,,,,3,,,40,0
1113360,note_on,0,0,1,,,,,,,,,0,,,81,62
1113360,note_on,240,0,1,,,,,,,,,0,,,80,0
1113600,note_on,480,0,2,,,,,,,,,1,,,63,0
1113600,note_on,0,0,2,,,,,,,,,1,,,59,0
1113600,note_on,0,0,2,,,,,,,,,1,,,64,75
1113600,note_on,0,0,3,,,,,,,,,2,,,52,62
1113600,note_on,240,0,1,,,,,,,,,0,,,81,0
1113600,note_on,480,0,3,,,,,,,,,2,,,54,0
1113600,note_on,0,0,1,,,,,,,,,0,,,80,62
1113840,note_on,0,0,1,,,,,,,,,0,,,78,62
1113840,note_on,240,0,1,,,,,,,,,0,,,80,0
1114080,note_on,0,0,1,,,,,,,,,0,,,76,62
1114080,note_on,240,0,1,,,,,,,,,0,,,78,0
1114080,note_on,480,0,3,,,,,,,,,2,,,52,0
1114080,note_on,480,0,2,,,,,,,,,1,,,64,0
1114320,note_on,240,0,1,,,,,,,,,0,,,76,0
1114320,note_on,0,0,1,,,,,,,,,0,,,75,62
1114560,note_on,480,0,2,,,,,,,,,1,,,59,75
1114560,note_on,240,0,1,,,,,,,,,0,,,75,0
1114560,note_on,0,0,1,,,,,,,,,0,,,76,62
1114800,note_on,240,0,1,,,,,,,,,0,,,76,0
1114800,note_on,0,0,1,,,,,,,,,0,,,80,62
1115040,note_on,0,0,4,,,,,,,,,3,,,40,62
1115040,note_on,0,0,2,,,,,,,,,1,,,57,49
1115040,note_on,480,0,2,,,,,,,,,1,,,59,0
1115040,note_on,1920,0,4,,,,,,,,,3,,,40,0
1115040,note_on,240,0,1,,,,,,,,,0,,,80,0
1115040,note_on,0,0,1,,,,,,,,,0,,,69,62
1115040,note_on,0,0,1,,,,,,,,,0,,,73,62
1115040,note_on,0,0,1,,,,,,,,,0,,,80,62
1115280,note_on,240,0,2,,,,,,,,,1,,,57,0
1115280,note_on,0,0,2,,,,,,,,,1,,,56,49
1115520,note_on,0,0,2,,,,,,,,,1,,,57,49
1115520,note_on,240,0,2,,,,,,,,,1,,,56,0
1115520,note_on,0,0,1,,,,,,,,,0,,,73,0
1115520,note_on,0,0,1,,,,,,,,,0,,,69,0
1115520,note_on,0,0,1,,,,,,,,,0,,,78,62
1115520,note_on,480,0,1,,,,,,,,,0,,,80,0
1115760,note_on,0,0,2,,,,,,,,,1,,,59,49
1115760,note_on,240,0,2,,,,,,,,,1,,,57,0
1116000,note_on,0,0,2,,,,,,,,,1,,,61,49
1116000,note_on,240,0,2,,,,,,,,,1,,,59,0
1116000,note_on,480,0,1,,,,,,,,,0,,,78,0
1116240,note_on,0,0,2,,,,,,,,,1,,,60,49
1116240,note_on,240,0,2,,,,,,,,,1,,,61,0
1116480,note_on,0,0,1,,,,,,,,,0,,,78,62
1116480,note_on,0,0,2,,,,,,,,,1,,,61,49
1116480,note_on,480,0,1,,,,,,,,,0,,,69,62
1116480,note_on,0,0,1,,,,,,,,,0,,,73,62
1116480,note_on,240,0,2,,,,,,,,,1,,,60,0
1116720,note_on,0,0,2,,,,,,,,,1,,,57,49
1116720,note_on,240,0,2,,,,,,,,,1,,,61,0
1116960,note_on,480,0,1,,,,,,,,,0,,,78,0
1116960,note_on,1920,0,4,,,,,,,,,3,,,40,0
1116960,note_on,0,0,1,,,,,,,,,0,,,78,62
1116960,note_on,0,0,1,,,,,,,,,0,,,71,62
1116960,note_on,0,0,1,,,,,,,,,0,,,68,62
1116960,note_on,0,0,1,,,,,,,,,0,,,69,0
1116960,note_on,0,0,4,,,,,,,,,3,,,40,62
1116960,note_on,0,0,1,,,,,,,,,0,,,73,0
1116960,note_on,0,0,2,,,,,,,,,1,,,56,49
1116960,note_on,240,0,2,,,,,,,,,1,,,57,0
1117200,note_on,0,0,2,,,,,,,,,1,,,54,49
1117200,note_on,240,0,2,,,,,,,,,1,,,56,0
1117440,note_on,0,0,2,,,,,,,,,1,,,56,49
1117440,note_on,240,0,2,,,,,,,,,1,,,54,0
1117440,note_on,0,0,1,,,,,,,,,0,,,71,0
1117440,note_on,0,0,1,,,,,,,,,0,,,76,62
1117440,note_on,0,0,1,,,,,,,,,0,,,68,0
1117440,note_on,480,0,1,,,,,,,,,0,,,78,0
1117680,note_on,240,0,2,,,,,,,,,1,,,56,0
1117680,note_on,0,0,2,,,,,,,,,1,,,57,49
1117920,note_on,480,0,1,,,,,,,,,0,,,76,0
1117920,note_on,240,0,2,,,,,,,,,1,,,57,0
1117920,note_on,0,0,2,,,,,,,,,1,,,59,49
1118160,note_on,240,0,2,,,,,,,,,1,,,59,0
1118160,note_on,0,0,2,,,,,,,,,1,,,61,49
1118400,note_on,4320,0,3,,,,,,,,,2,,,56,62
1118400,note_on,240,0,2,,,,,,,,,1,,,61,0
1118400,note_on,480,0,1,,,,,,,,,0,,,78,62
1118400,note_on,0,0,2,,,,,,,,,1,,,63,49
1118447,note_on,47,0,3,,,,,,,,,2,,,56,0
1118640,note_on,0,0,2,,,,,,,,,1,,,64,49
1118640,note_on,240,0,1,,,,,,,,,0,,,78,0
1118640,note_on,0,0,1,,,,,,,,,0,,,76,62
1118640,note_on,240,0,2,,,,,,,,,1,,,63,0
1118880,note_on,240,0,2,,,,,,,,,1,,,64,0
1118880,note_on,0,0,2,,,,,,,,,1,,,63,49
1118880,note_on,1920,0,4,,,,,,,,,3,,,40,0
1118880,note_on,0,0,4,,,,,,,,,3,,,40,62
1118880,note_on,240,0,1,,,,,,,,,0,,,76,0
1118880,note_on,0,0,1,,,,,,,,,0,,,75,62
1118880,note_on,433,0,3,,,,,,,,,2,,,56,62
1119120,note_on,240,0,2,,,,,,,,,1,,,63,0
1119120,note_on,0,0,2,,,,,,,,,1,,,59,49
1119360,note_on,480,0,1,,,,,,,,,0,,,75,0
1119360,note_on,0,0,1,,,,,,,,,0,,,81,62
1119360,note_on,0,0,2,,,,,,,,,1,,,63,49
1119360,note_on,480,0,3,,,,,,,,,2,,,56,0
1119360,note_on,0,0,3,,,,,,,,,2,,,54,62
1119360,note_on,240,0,2,,,,,,,,,1,,,59,0
1119407,note_on,47,0,1,,,,,,,,,0,,,81,0
1119600,note_on,0,0,2,,,,,,,,,1,,,59,49
1119600,note_on,240,0,2,,,,,,,,,1,,,63,0
1119840,note_on,480,0,3,,,,,,,,,2,,,54,0
1119840,note_on,0,0,2,,,,,,,,,1,,,63,49
1119840,note_on,240,0,2,,,,,,,,,1,,,59,0
1119840,note_on,433,0,1,,,,,,,,,0,,,81,62
1119887,note_on,47,0,1,,,,,,,,,0,,,81,0
1120080,note_on,240,0,2,,,,,,,,,1,,,63,0
1120080,note_on,0,0,2,,,,,,,,,1,,,59,49
1120320,note_on,240,0,2,,,,,,,,,1,,,59,0
1120320,note_on,0,0,2,,,,,,,,,1,,,63,49
1120320,note_on,433,0,1,,,,,,,,,0,,,81,62
1120320,note_on,480,0,3,,,,,,,,,2,,,54,62
1120367,note_on,47,0,3,,,,,,,,,2,,,54,0
1120367,note_on,47,0,1,,,,,,,,,0,,,81,0
1120560,note_on,240,0,2,,,,,,,,,1,,,63,0
1120560,note_on,0,0,2,,,,,,,,,1,,,59,49
1120800,note_on,433,0,1,,,,,,,,,0,,,81,62
1120800,note_on,433,0,3,,,,,,,,,2,,,54,62
1120800,note_on,0,0,4,,,,,,,,,3,,,40,62
1120800,note_on,1920,0,4,,,,,,,,,3,,,40,0
1120800,note_on,240,0,2,,,,,,,,,1,,,59,0
1120800,note_on,0,0,2,,,,,,,,,1,,,63,49
1121040,note_on,0,0,2,,,,,,,,,1,,,59,49
1121040,note_on,240,0,2,,,,,,,,,1,,,63,0
1121280,note_on,0,0,3,,,,,,,,,2,,,52,62
1121280,note_on,240,0,2,,,,,,,,,1,,,59,0
1121280,note_on,0,0,2,,,,,,,,,1,,,64,49
1121280,note_on,0,0,1,,,,,,,,,0,,,80,62
1121280,note_on,480,0,1,,,,,,,,,0,,,81,0
1121280,note_on,480,0,3,,,,,,,,,2,,,54,0
1121520,note_on,240,0,2,,,,,,,,,1,,,64,0
1121520,note_on,0,0,2,,,,,,,,,1,,,59,49
1121760,note_on,240,0,2,,,,,,,,,1,,,59,0
1121760,note_on,0,0,2,,,,,,,,,1,,,64,49
1121760,note_on,480,0,3,,,,,,,,,2,,,52,0
1121760,note_on,480,0,1,,,,,,,,,0,,,80,0
1122000,note_on,240,0,2,,,,,,,,,1,,,64,0
1122000,note_on,0,0,2,,,,,,,,,1,,,59,49
1122240,note_on,0,0,2,,,,,,,,,1,,,63,49
1122240,note_on,0,0,1,,,,,,,,,0,,,80,62
1122240,note_on,480,0,1,,,,,,,,,0,,,71,62
1122240,note_on,480,0,3,,,,,,,,,2,,,54,62
1122240,note_on,240,0,2,,,,,,,,,1,,,59,0
1122287,note_on,0,0,1,,,,,,,,,0,,,71,0
1122287,note_on,47,0,1,,,,,,,,,0,,,80,0
1122480,note_on,240,0,2,,,,,,,,,1,,,63,0
1122480,note_on,0,0,2,,,,,,,,,1,,,64,49
1122480,note_on,240,0,3,,,,,,,,,2,,,54,0
1122480,note_on,0,0,3,,,,,,,,,2,,,52,62
1122720,note_on,240,0,2,,,,,,,,,1,,,64,0
1122720,note_on,0,0,2,,,,,,,,,1,,,66,49
1122720,note_on,433,0,1,,,,,,,,,0,,,73,62
1122720,note_on,0,0,1,,,,,,,,,0,,,80,62
1122720,note_on,0,0,3,,,,,,,,,2,,,51,62
1122720,note_on,0,0,4,,,,,,,,,3,,,40,62
1122720,note_on,240,0,3,,,,,,,,,2,,,52,0
1122720,note_on,1920,0,4,,,,,,,,,3,,,40,0
1122960,note_on,0,0,2,,,,,,,,,1,,,64,49
1122960,note_on,240,0,2,,,,,,,,,1,,,66,0
1123200,note_on,0,0,2,,,,,,,,,1,,,63,49
1123200,note_on,240,0,2,,,,,,,,,1,,,64,0
1123200,note_on,0,0,1,,,,,,,,,0,,,78,62
1123200,note_on,480,0,3,,,,,,,,,2,,,51,0
1123200,note_on,0,0,1,,,,,,,,,0,,,73,0
1123200,note_on,480,0,1,,,,,,,,,0,,,80,0
1123200,note_on,0,0,3,,,,,,,,,2,,,57,62
1123440,note_on,240,0,2,,,,,,,,,1,,,63,0
1123440,note_on,0,0,2,,,,,,,,,1,,,66,49
1123680,note_on,0,0,3,,,,,,,,,2,,,57,62
1123680,note_on,480,0,3,,,,,,,,,2,,,57,0
1123680,note_on,480,0,1,,,,,,,,,0,,,78,0
1123680,note_on,0,0,2,,,,,,,,,1,,,63,49
1123680,note_on,240,0,2,,,,,,,,,1,,,66,0
1123727,note_on,47,0,3,,,,,,,,,2,,,57,0
1123920,note_on,0,0,2,,,,,,,,,1,,,66,49
1123920,note_on,240,0,2,,,,,,,,,1,,,63,0
1124160,note_on,0,0,2,,,,,,,,,1,,,63,49
1124160,note_on,240,0,2,,,,,,,,,1,,,66,0
1124160,note_on,433,0,3,,,,,,,,,2,,,57,62
1124160,note_on,480,0,1,,,,,,,,,0,,,73,62
1124160,note_on,0,0,1,,,,,,,,,0,,,78,62
1124207,note_on,0,0,1,,,,,,,,,0,,,73,0
1124207,note_on,47,0,1,,,,,,,,,0,,,78,0
1124207,note_on,47,0,3,,,,,,,,,2,,,57,0
1124400,note_on,0,0,2,,,,,,,,,1,,,66,49
1124400,note_on,240,0,2,,,,,,,,,1,,,63,0
1124640,note_on,0,0,4,,,,,,,,,3,,,40,62
1124640,note_on,240,0,2,,,,,,,,,1,,,66,0
1124640,note_on,0,0,2,,,,,,,,,1,,,63,49
1124640,note_on,433,0,1,,,,,,,,,0,,,71,62
1124640,note_on,0,0,1,,,,,,,,,0,,,78,62
1124640,note_on,433,0,3,,,,,,,,,2,,,57,62
1124640,note_on,1920,0,4,,,,,,,,,3,,,40,0
1124880,note_on,240,0,2,,,,,,,,,1,,,63,0
1124880,note_on,0,0,2,,,,,,,,,1,,,66,49
1125120,note_on,480,0,1,,,,,,,,,0,,,78,0
1125120,note_on,0,0,2,,,,,,,,,1,,,64,49
1125120,note_on,0,0,3,,,,,,,,,2,,,56,62
1125120,note_on,480,0,3,,,,,,,,,2,,,57,0
1125120,note_on,240,0,2,,,,,,,,,1,,,66,0
1125120,note_on,0,0,1,,,,,,,,,0,,,71,0
1125120,note_on,0,0,1,,,,,,,,,0,,,76,62
1125360,note_on,0,0,2,,,,,,,,,1,,,68,49
1125360,note_on,240,0,2,,,,,,,,,1,,,64,0
1125600,note_on,480,0,3,,,,,,,,,2,,,56,0
1125600,note_on,480,0,1,,,,,,,,,0,,,76,0
1125600,note_on,240,0,2,,,,,,,,,1,,,68,0
1125600,note_on,0,0,2,,,,,,,,,1,,,64,49
1125840,note_on,0,0,2,,,,,,,,,1,,,68,49
1125840,note_on,240,0,2,,,,,,,,,1,,,64,0
1126080,note_on,240,0,2,,,,,,,,,1,,,68,0
1126080,note_on,0,0,2,,,,,,,,,1,,,66,49
1126080,note_on,480,0,3,,,,,,,,,2,,,56,62
1126080,note_on,480,0,1,,,,,,,,,0,,,78,62
1126320,note_on,240,0,1,,,,,,,,,0,,,78,0
1126320,note_on,0,0,1,,,,,,,,,0,,,76,62
1126320,note_on,240,0,2,,,,,,,,,1,,,66,0
1126320,note_on,0,0,2,,,,,,,,,1,,,68,49
1126560,note_on,1920,0,4,,,,,,,,,3,,,40,0
1126560,note_on,0,0,4,,,,,,,,,3,,,40,62
1126560,note_on,240,0,1,,,,,,,,,0,,,76,0
1126560,note_on,0,0,1,,,,,,,,,0,,,75,62
1126560,note_on,240,0,2,,,,,,,,,1,,,68,0
1126560,note_on,0,0,2,,,,,,,,,1,,,69,49
1126560,note_on,480,0,3,,,,,,,,,2,,,56,0
1126560,note_on,0,0,3,,,,,,,,,2,,,56,62
1126800,note_on,240,0,2,,,,,,,,,1,,,69,0
1126800,note_on,0,0,2,,,,,,,,,1,,,59,49
1127040,note_on,0,0,1,,,,,,,,,0,,,85,88
1127040,note_on,480,0,3,,,,,,,,,2,,,56,0
1127040,note_on,0,0,3,,,,,,,,,2,,,54,62
1127040,note_on,0,0,1,,,,,,,,,0,,,75,88
1127040,note_on,240,0,2,,,,,,,,,1,,,59,0
1127040,note_on,0,0,2,,,,,,,,,1,,,69,49
1127040,note_on,480,0,1,,,,,,,,,0,,,75,0
1127280,note_on,240,0,2,,,,,,,,,1,,,69,0
1127280,note_on,0,0,2,,,,,,,,,1,,,59,49
1127520,note_on,480,0,1,,,,,,,,,0,,,85,0
1127520,note_on,0,0,1,,,,,,,,,0,,,75,0
1127520,note_on,0,0,1,,,,,,,,,0,,,75,88
1127520,note_on,480,0,3,,,,,,,,,2,,,54,0
1127520,note_on,0,0,3,,,,,,,,,2,,,54,62
1127520,note_on,240,0,2,,,,,,,,,1,,,59,0
1127520,note_on,0,0,1,,,,,,,,,0,,,85,88
1127520,note_on,0,0,2,,,,,,,,,1,,,69,49
1127567,note_on,0,0,1,,,,,,,,,0,,,75,0
1127567,note_on,47,0,1,,,,,,,,,0,,,85,0
1127567,note_on,47,0,3,,,,,,,,,2,,,54,0
1127760,note_on,0,0,2,,,,,,,,,1,,,59,49
1127760,note_on,240,0,2,,,,,,,,,1,,,69,0
1128000,note_on,433,0,3,,,,,,,,,2,,,54,62
1128000,note_on,433,0,1,,,,,,,,,0,,,75,62
1128000,note_on,0,0,2,,,,,,,,,1,,,69,49
1128000,note_on,0,0,1,,,,,,,,,0,,,85,62
1128000,note_on,240,0,2,,,,,,,,,1,,,59,0
1128047,note_on,47,0,1,,,,,,,,,0,,,85,0
1128047,note_on,0,0,1,,,,,,,,,0,,,75,0
1128047,note_on,47,0,3,,,,,,,,,2,,,54,0
1128240,note_on,0,0,2,,,,,,,,,1,,,59,49
1128240,note_on,240,0,2,,,,,,,,,1,,,69,0
1128480,note_on,433,0,3,,,,,,,,,2,,,54,62
1128480,note_on,1920,0,4,,,,,,,,,3,,,40,0
1128480,note_on,0,0,4,,,,,,,,,3,,,40,62
1128480,note_on,0,0,1,,,,,,,,,0,,,85,62
1128480,note_on,433,0,1,,,,,,,,,0,,,75,62
1128480,note_on,240,0,2,,,,,,,,,1,,,59,0
1128480,note_on,0,0,2,,,,,,,,,1,,,69,49
1128720,note_on,240,0,2,,,,,,,,,1,,,69,0
1128720,note_on,0,0,2,,,,,,,,,1,,,59,49
1128960,note_on,0,0,1,,,,,,,,,0,,,76,62
1128960,note_on,0,0,1,,,,,,,,,0,,,75,0
1128960,note_on,480,0,4,,,,,,,,,3,,,40,0
1128960,note_on,0,0,2,,,,,,,,,1,,,68,49
1128960,note_on,240,0,2,,,,,,,,,1,,,59,0
1128960,note_on,480,0,3,,,,,,,,,2,,,54,0
1128960,note_on,0,0,1,,,,,,,,,0,,,83,62
1128960,note_on,480,0,1,,,,,,,,,0,,,85,0
1128960,note_on,0,0,3,,,,,,,,,2,,,56,62
1129200,note_on,240,0,3,,,,,,,,,2,,,56,0
1129200,note_on,240,0,2,,,,,,,,,1,,,68,0
1129200,note_on,0,0,2,,,,,,,,,1,,,59,49
1129200,note_on,240,0,1,,,,,,,,,0,,,83,0
1129200,note_on,0,0,1,,,,,,,,,0,,,76,0
1129440,note_on,480,0,4,,,,,,,,,3,,,45,62
1129440,note_on,0,0,3,,,,,,,,,2,,,61,62
1129440,note_on,240,0,1,,,,,,,,,0,,,83,62
1129440,note_on,0,0,2,,,,,,,,,1,,,68,49
1129440,note_on,240,0,2,,,,,,,,,1,,,59,0
1129440,control_change,240,0,3,,,,,,,,,2,64,127,,
1129680,note_on,0,0,2,,,,,,,,,1,,,65,49
1129680,note_on,240,0,2,,,,,,,,,1,,,68,0
1129920,note_on,0,0,2,,,,,,,,,1,,,66,49
1129920,note_on,240,0,2,,,,,,,,,1,,,65,0
1129920,note_on,480,0,4,,,,,,,,,3,,,45,0
1129920,note_on,0,0,1,,,,,,,,,0,,,81,62
1129920,note_on,480,0,1,,,,,,,,,0,,,83,0
1130160,note_on,240,0,2,,,,,,,,,1,,,66,0
1130160,note_on,0,0,2,,,,,,,,,1,,,69,49
1130160,note_on,240,0,1,,,,,,,,,0,,,81,0
1130400,note_on,960,0,3,,,,,,,,,2,,,61,0
1130400,note_on,480,0,4,,,,,,,,,3,,,47,62
1130400,note_on,0,0,3,,,,,,,,,2,,,59,62
1130400,note_on,240,0,1,,,,,,,,,0,,,81,62
1130400,set_tempo,134400,1,0,,,,,,312500,,,,,,,
1130400,note_on,240,0,2,,,,,,,,,1,,,69,0
1130400,note_on,0,0,2,,,,,,,,,1,,,66,49
1130640,note_on,240,0,2,,,,,,,,,1,,,66,0
1130640,note_on,0,0,2,,,,,,,,,1,,,63,49
1130880,note_on,480,0,4,,,,,,,,,3,,,47,0
1130880,note_on,240,0,2,,,,,,,,,1,,,63,0
1130880,note_on,0,0,2,,,,,,,,,1,,,64,49
1130880,note_on,0,0,1,,,,,,,,,0,,,80,62
1130880,note_on,480,0,1,,,,,,,,,0,,,81,0
1131120,note_on,240,0,2,,,,,,,,,1,,,64,0
1131120,note_on,240,0,1,,,,,,,,,0,,,80,0
1131120,note_on,0,0,2,,,,,,,,,1,,,68,49
1131360,note_on,240,0,1,,,,,,,,,0,,,80,62
1131360,note_on,0,0,3,,,,,,,,,2,,,57,62
1131360,note_on,480,0,4,,,,,,,,,3,,,35,62
1131360,control_change,0,0,3,,,,,,,,,2,64,0,,
1131360,note_on,960,0,3,,,,,,,,,2,,,59,0
1131360,note_on,0,0,2,,,,,,,,,1,,,64,49
1131360,note_on,240,0,2,,,,,,,,,1,,,68,0
1131600,note_on,0,0,2,,,,,,,,,1,,,61,49
1131600,note_on,240,0,2,,,,,,,,,1,,,64,0
1131840,note_on,240,0,2,,,,,,,,,1,,,61,0
1131840,note_on,0,0,1,,,,,,,,,0,,,78,62
1131840,note_on,480,0,1,,,,,,,,,0,,,80,0
1131840,note_on,480,0,4,,,,,,,,,3,,,35,0
1131840,note_on,0,0,2,,,,,,,,,1,,,63,49
1132080,note_on,240,0,2,,,,,,,,,1,,,63,0
1132080,note_on,0,0,2,,,,,,,,,1,,,66,49
1132080,note_on,240,0,1,,,,,,,,,0,,,78,0
1132320,note_on,0,0,3,,,,,,,,,2,,,56,62
1132320,set_tempo,1920,1,0,,,,,,270270,,,,,,,
1132320,note_on,240,0,1,,,,,,,,,0,,,76,62
1132320,note_on,960,0,3,,,,,,,,,2,,,57,0
1132320,note_on,0,0,2,,,,,,,,,1,,,64,49
1132320,note_on,480,0,4,,,,,,,,,3,,,40,62
1132320,note_on,240,0,2,,,,,,,,,1,,,66,0
1132800,note_on,480,0,4,,,,,,,,,3,,,40,0
1132800,note_on,0,0,4,,,,,,,,,3,,,52,62
1132800,note_on,480,0,3,,,,,,,,,2,,,56,0
1132800,note_on,480,0,2,,,,,,,,,1,,,64,0
1132823,note_on,23,0,4,,,,,,,,,3,,,52,0
1133040,note_on,217,0,4,,,,,,,,,3,,,52,62
1133063,note_on,23,0,4,,,,,,,,,3,,,52,0
1133280,note_on,217,0,4,,,,,,,,,3,,,52,62
1133760,note_on,0,0,1,,,,,,,,,0,,,76,62
1133760,note_on,1440,0,1,,,,,,,,,0,,,76,0
1134000,note_on,240,0,1,,,,,,,,,0,,,76,0
1134000,note_on,0,0,1,,,,,,,,,0,,,76,62
1134240,note_on,240,0,1,,,,,,,,,0,,,76,0
1134240,note_on,0,0,1,,,,,,,,,0,,,77,62
1134287,note_on,47,0,1,,,,,,,,,0,,,77,0
1134720,note_on,1440,0,4,,,,,,,,,3,,,52,0
1134720,note_on,1920,0,3,,,,,,,,,2,,,60,62
1134720,note_on,0,0,4,,,,,,,,,3,,,52,62
1134720,note_on,433,0,1,,,,,,,,,0,,,76,62
1134743,note_on,23,0,4,,,,,,,,,3,,,52,0
1134743,note_on,23,0,3,,,,,,,,,2,,,60,0
1134767,note_on,47,0,1,,,,,,,,,0,,,76,0
1134960,note_on,217,0,4,,,,,,,,,3,,,52,62
1134960,note_on,217,0,3,,,,,,,,,2,,,60,62
1134983,note_on,23,0,4,,,,,,,,,3,,,52,0
1134983,note_on,23,0,3,,,,,,,,,2,,,60,0
1135200,note_on,217,0,3,,,,,,,,,2,,,62,62
1135200,note_on,217,0,4,,,,,,,,,3,,,52,62
1135200,note_on,433,0,1,,,,,,,,,0,,,74,62
1135247,note_on,47,0,3,,,,,,,,,2,,,62,0
1135247,note_on,47,0,1,,,,,,,,,0,,,74,0
1135680,note_on,433,0,3,,,,,,,,,2,,,64,62
1135680,note_on,2880,0,2,,,,,,,,,1,,,69,62
1135680,note_on,433,0,1,,,,,,,,,0,,,72,62
1135703,note_on,23,0,2,,,,,,,,,1,,,69,0
1135727,note_on,47,0,3,,,,,,,,,2,,,64,0
1135727,note_on,47,0,1,,,,,,,,,0,,,72,0
1135920,note_on,217,0,2,,,,,,,,,1,,,69,62
1135943,note_on,23,0,2,,,,,,,,,1,,,69,0
1136160,note_on,217,0,2,,,,,,,,,1,,,71,62
1136160,note_on,433,0,1,,,,,,,,,0,,,74,62
1136160,note_on,433,0,3,,,,,,,,,2,,,56,62
1136207,note_on,47,0,3,,,,,,,,,2,,,56,0
1136640,note_on,433,0,3,,,,,,,,,2,,,57,62
1136640,note_on,1440,0,4,,,,,,,,,3,,,52,0
1136640,note_on,0,0,4,,,,,,,,,3,,,52,62
1136640,note_on,0,0,2,,,,,,,,,1,,,69,62
1136640,note_on,480,0,2,,,,,,,,,1,,,71,0
1136663,note_on,23,0,4,,,,,,,,,3,,,52,0
1136663,note_on,23,0,3,,,,,,,,,2,,,57,0
1136687,note_on,47,0,2,,,,,,,,,1,,,69,0
1136880,note_on,217,0,4,,,,,,,,,3,,,52,62
1136880,note_on,217,0,3,,,,,,,,,2,,,57,62
1136903,note_on,23,0,3,,,,,,,,,2,,,57,0
1136903,note_on,23,0,4,,,,,,,,,3,,,52,0
1137120,note_on,217,0,4,,,,,,,,,3,,,52,62
1137120,note_on,433,0,2,,,,,,,,,1,,,68,62
1137120,note_on,217,0,3,,,,,,,,,2,,,59,62
1137167,note_on,47,0,2,,,,,,,,,1,,,68,0
1137167,note_on,47,0,3,,,,,,,,,2,,,59,0
1137600,note_on,1440,0,1,,,,,,,,,0,,,74,0
1137600,note_on,0,0,1,,,,,,,,,0,,,75,62
1137600,note_on,433,0,2,,,,,,,,,1,,,66,62
1137600,note_on,433,0,3,,,,,,,,,2,,,60,62
1137647,note_on,47,0,2,,,,,,,,,1,,,66,0
1137647,note_on,47,0,3,,,,,,,,,2,,,60,0
1137840,note_on,240,0,1,,,,,,,,,0,,,75,0
1137840,note_on,0,0,1,,,,,,,,,0,,,75,62
1138080,note_on,0,0,1,,,,,,,,,0,,,76,62
1138080,note_on,433,0,3,,,,,,,,,2,,,59,62
1138080,note_on,433,0,2,,,,,,,,,1,,,68,62
1138080,note_on,240,0,1,,,,,,,,,0,,,75,0
1138127,note_on,47,0,3,,,,,,,,,2,,,59,0
1138127,note_on,47,0,1,,,,,,,,,0,,,76,0
1138560,note_on,433,0,3,,,,,,,,,2,,,59,62
1138560,note_on,433,0,1,,,,,,,,,0,,,74,62
1138560,note_on,1440,0,4,,,,,,,,,3,,,52,0
1138560,note_on,0,0,4,,,,,,,,,3,,,52,62
1138583,note_on,23,0,3,,,,,,,,,2,,,59,0
1138583,note_on,23,0,4,,,,,,,,,3,,,52,0
1138607,note_on,47,0,1,,,,,,,,,0,,,74,0
1138800,note_on,217,0,3,,,,,,,,,2,,,59,62
1138800,note_on,217,0,4,,,,,,,,,3,,,52,62
1138823,note_on,23,0,3,,,,,,,,,2,,,59,0
1138823,note_on,23,0,4,,,,,,,,,3,,,52,0
1139040,note_on,217,0,4,,,,,,,,,3,,,52,62
1139040,note_on,217,0,3,,,,,,,,,2,,,60,62
1139040,note_on,433,0,1,,,,,,,,,0,,,72,62
1139087,note_on,47,0,3,,,,,,,,,2,,,60,0
1139087,note_on,47,0,1,,,,,,,,,0,,,72,0
1139520,note_on,433,0,3,,,,,,,,,2,,,62,62
1139520,note_on,1440,0,2,,,,,,,,,1,,,68,0
1139520,note_on,0,0,2,,,,,,,,,1,,,68,62
1139520,note_on,433,0,1,,,,,,,,,0,,,71,62
1139567,note_on,47,0,1,,,,,,,,,0,,,71,0
1139567,note_on,47,0,3,,,,,,,,,2,,,62,0
1139760,note_on,240,0,2,,,,,,,,,1,,,68,0
1139760,note_on,0,0,2,,,,,,,,,1,,,68,62
1140000,note_on,433,0,3,,,,,,,,,2,,,52,62
1140000,note_on,433,0,1,,,,,,,,,0,,,72,62
1140000,note_on,0,0,2,,,,,,,,,1,,,69,62
1140000,note_on,240,0,2,,,,,,,,,1,,,68,0
1140047,note_on,47,0,2,,,,,,,,,1,,,69,0
1140240,note_on,240,0,3,,,,,,,,,2,,,52,0
1140240,note_on,0,0,3,,,,,,,,,2,,,54,62
1140480,note_on,0,0,4,,,,,,,,,3,,,52,62
1140480,note_on,1440,0,4,,,,,,,,,3,,,52,0
1140480,note_on,240,0,3,,,,,,,,,2,,,54,0
1140480,note_on,0,0,3,,,,,,,,,2,,,55,62
1140480,note_on,433,0,2,,,,,,,,,1,,,67,62
1140503,note_on,23,0,4,,,,,,,,,3,,,52,0
1140503,note_on,23,0,3,,,,,,,,,2,,,55,0
1140527,note_on,47,0,2,,,,,,,,,1,,,67,0
1140720,note_on,217,0,4,,,,,,,,,3,,,52,62
1140720,note_on,217,0,3,,,,,,,,,2,,,55,62
1140743,note_on,23,0,3,,,,,,,,,2,,,55,0
1140743,note_on,23,0,4,,,,,,,,,3,,,52,0
1140960,note_on,433,0,2,,,,,,,,,1,,,66,62
1140960,note_on,217,0,3,,,,,,,,,2,,,57,62
1140960,note_on,217,0,4,,,,,,,,,3,,,52,62
1141007,note_on,47,0,2,,,,,,,,,1,,,66,0
1141007,note_on,47,0,3,,,,,,,,,2,,,57,0
1141440,note_on,0,0,1,,,,,,,,,0,,,73,62
1141440,note_on,1440,0,1,,,,,,,,,0,,,72,0
1141440,note_on,433,0,3,,,,,,,,,2,,,58,62
1141440,note_on,433,0,2,,,,,,,,,1,,,64,62
1141487,note_on,47,0,3,,,,,,,,,2,,,58,0
1141487,note_on,47,0,2,,,,,,,,,1,,,64,0
1141680,note_on,240,0,1,,,,,,,,,0,,,73,0
1141680,note_on,0,0,1,,,,,,,,,0,,,73,62
1141920,note_on,433,0,3,,,,,,,,,2,,,57,62
1141920,note_on,433,0,2,,,,,,,,,1,,,65,62
1141920,note_on,240,0,1,,,,,,,,,0,,,73,0
1141920,note_on,0,0,1,,,,,,,,,0,,,74,62
1141967,note_on,47,0,1,,,,,,,,,0,,,74,0
1142400,note_on,433,0,1,,,,,,,,,0,,,72,62
1142400,note_on,480,0,3,,,,,,,,,2,,,57,0
1142400,note_on,1440,0,4,,,,,,,,,3,,,52,0
1142400,note_on,0,0,4,,,,,,,,,3,,,52,62
1142400,note_on,0,0,3,,,,,,,,,2,,,57,62
1142423,note_on,23,0,3,,,,,,,,,2,,,57,0
1142423,note_on,23,0,4,,,,,,,,,3,,,52,0
1142447,note_on,47,0,1,,,,,,,,,0,,,72,0
1142640,note_on,217,0,3,,,,,,,,,2,,,57,62
1142640,note_on,217,0,4,,,,,,,,,3,,,52,62
1142663,note_on,23,0,3,,,,,,,,,2,,,57,0
1142663,note_on,23,0,4,,,,,,,,,3,,,52,0
1142880,note_on,217,0,4,,,,,,,,,3,,,52,62
1142880,note_on,217,0,3,,,,,,,,,2,,,59,62
1142880,note_on,433,0,1,,,,,,,,,0,,,71,62
1142927,note_on,47,0,1,,,,,,,,,0,,,71,0
1142927,note_on,47,0,3,,,,,,,,,2,,,59,0
1143360,note_on,0,0,2,,,,,,,,,1,,,66,62
1143360,note_on,433,0,3,,,,,,,,,2,,,60,62
1143360,note_on,1440,0,2,,,,,,,,,1,,,65,0
1143360,note_on,433,0,1,,,,,,,,,0,,,69,62
1143407,note_on,47,0,3,,,,,,,,,2,,,60,0
1143407,note_on,47,0,1,,,,,,,,,0,,,69,0
1143840,note_on,480,0,2,,,,,,,,,1,,,66,0
1143840,note_on,0,0,2,,,,,,,,,1,,,67,88
1143840,note_on,433,0,3,,,,,,,,,2,,,59,62
1143840,note_on,433,0,1,,,,,,,,,0,,,71,88
1143887,note_on,47,0,3,,,,,,,,,2,,,59,0
1144320,note_on,433,0,3,,,,,,,,,2,,,64,62
1144320,note_on,1440,0,4,,,,,,,,,3,,,52,0
1144320,note_on,0,0,4,,,,,,,,,3,,,52,62
1144320,note_on,480,0,2,,,,,,,,,1,,,67,0
1144320,note_on,0,0,2,,,,,,,,,1,,,68,62
1144343,note_on,23,0,4,,,,,,,,,3,,,52,0
1144560,note_on,217,0,4,,,,,,,,,3,,,52,62
1144560,note_on,240,0,3,,,,,,,,,2,,,64,0
1144560,note_on,0,0,3,,,,,,,,,2,,,62,62
1144583,note_on,23,0,4,,,,,,,,,3,,,52,0
1144800,note_on,960,0,1,,,,,,,,,0,,,71,0
1144800,note_on,0,0,1,,,,,,,,,0,,,72,88
1144800,note_on,480,0,2,,,,,,,,,1,,,68,0
1144800,note_on,0,0,2,,,,,,,,,1,,,69,88
1144800,note_on,240,0,3,,,,,,,,,2,,,62,0
1144800,note_on,0,0,3,,,,,,,,,2,,,60,62
1144800,note_on,217,0,4,,,,,,,,,3,,,52,62
1144847,note_on,47,0,3,,,,,,,,,2,,,60,0
1145280,note_on,433,0,3,,,,,,,,,2,,,59,62
1145327,note_on,47,0,3,,,,,,,,,2,,,59,0
1145520,note_on,720,0,2,,,,,,,,,1,,,69,0
1145520,note_on,0,0,2,,,,,,,,,1,,,71,62
1145760,note_on,433,0,3,,,,,,,,,2,,,57,62
1145760,note_on,0,0,2,,,,,,,,,1,,,72,62
1145760,note_on,0,0,1,,,,,,,,,0,,,77,88
1145760,note_on,960,0,1,,,,,,,,,0,,,72,0
1145760,note_on,240,0,2,,,,,,,,,1,,,71,0
1145807,note_on,47,0,3,,,,,,,,,2,,,57,0
1146240,note_on,1440,0,4,,,,,,,,,3,,,52,0
1146240,note_on,433,0,3,,,,,,,,,2,,,55,62
1146240,note_on,0,0,2,,,,,,,,,1,,,73,62
1146240,note_on,480,0,2,,,,,,,,,1,,,72,0
1146240,note_on,0,0,4,,,,,,,,,3,,,52,62
1146287,note_on,47,0,3,,,,,,,,,2,,,55,0
1146720,note_on,480,0,4,,,,,,,,,3,,,52,0
1146720,note_on,0,0,4,,,,,,,,,3,,,52,62
1146720,note_on,0,0,2,,,,,,,,,1,,,74,62
1146720,note_on,480,0,2,,,,,,,,,1,,,73,0
1146720,note_on,433,0,3,,,,,,,,,2,,,54,62
1146720,note_on,960,0,1,,,,,,,,,0,,,77,0
1146720,note_on,0,0,1,,,,,,,,,0,,,81,88
1146767,note_on,47,0,3,,,,,,,,,2,,,54,0
1147200,note_on,433,0,3,,,,,,,,,2,,,53,62
1147200,note_on,480,0,4,,,,,,,,,3,,,52,0
1147200,note_on,480,0,2,,,,,,,,,1,,,74,0
1147200,note_on,0,0,2,,,,,,,,,1,,,75,62
1147200,note_on,0,0,4,,,,,,,,,3,,,52,62
1147247,note_on,47,0,3,,,,,,,,,2,,,53,0
1147680,note_on,0,0,2,,,,,,,,,1,,,76,62
1147680,note_on,960,0,1,,,,,,,,,0,,,81,0
1147680,note_on,0,0,1,,,,,,,,,0,,,80,88
1147680,note_on,480,0,4,,,,,,,,,3,,,52,0
1147680,note_on,433,0,3,,,,,,,,,2,,,52,62
1147680,note_on,480,0,2,,,,,,,,,1,,,75,0
1147680,note_on,0,0,4,,,,,,,,,3,,,52,62
1148160,note_on,0,0,4,,,,,,,,,3,,,64,62
1148160,note_on,480,0,3,,,,,,,,,2,,,52,0
1148160,note_on,480,0,4,,,,,,,,,3,,,52,0
1148183,note_on,23,0,4,,,,,,,,,3,,,64,0
1148400,note_on,217,0,4,,,,,,,,,3,,,64,62
1148423,note_on,23,0,4,,,,,,,,,3,,,64,0
1148640,note_on,960,0,2,,,,,,,,,1,,,76,0
1148640,note_on,960,0,1,,,,,,,,,0,,,80,0
1148640,note_on,217,0,4,,,,,,,,,3,,,64,62
1149120,note_on,480,0,1,,,,,,,,,0,,,88,62
1149360,note_on,0,0,1,,,,,,,,,0,,,88,62
1149360,note_on,240,0,1,,,,,,,,,0,,,88,0
1149600,note_on,240,0,1,,,,,,,,,0,,,88,0
1149600,note_on,0,0,1,,,,,,,,,0,,,89,62
1150080,note_on,1440,0,4,,,,,,,,,3,,,64,0
1150080,note_on,0,0,4,,,,,,,,,3,,,64,62
1150080,note_on,480,0,1,,,,,,,,,0,,,89,0
1150080,note_on,1920,0,3,,,,,,,,,2,,,72,62
1150080,note_on,0,0,1,,,,,,,,,0,,,89,88
1150320,note_on,0,0,4,,,,,,,,,3,,,64,62
1150320,note_on,240,0,3,,,,,,,,,2,,,72,0
1150320,note_on,0,0,1,,,,,,,,,0,,,88,62
1150320,note_on,240,0,1,,,,,,,,,0,,,89,0
1150320,note_on,240,0,4,,,,,,,,,3,,,64,0
1150320,note_on,0,0,3,,,,,,,,,2,,,72,62
1150560,note_on,0,0,1,,,,,,,,,0,,,88,88
1150560,note_on,0,0,4,,,,,,,,,3,,,64,62
1150560,note_on,240,0,4,,,,,,,,,3,,,64,0
1150560,note_on,240,0,1,,,,,,,,,0,,,88,0
1150560,note_on,0,0,3,,,,,,,,,2,,,74,62
1150560,note_on,240,0,3,,,,,,,,,2,,,72,0
1150800,note_on,0,0,1,,,,,,,,,0,,,86,62
1150800,note_on,240,0,1,,,,,,,,,0,,,88,0
1151040,note_on,480,0,3,,,,,,,,,2,,,74,0
1151040,note_on,0,0,3,,,,,,,,,2,,,76,62
1151040,note_on,2400,0,2,,,,,,,,,1,,,81,62
1151040,note_on,0,0,1,,,,,,,,,0,,,86,88
1151040,note_on,240,0,1,,,,,,,,,0,,,86,0
1151280,note_on,240,0,2,,,,,,,,,1,,,81,0
1151280,note_on,0,0,1,,,,,,,,,0,,,84,62
1151280,note_on,240,0,1,,,,,,,,,0,,,86,0
1151280,note_on,0,0,2,,,,,,,,,1,,,81,62
1151520,note_on,0,0,3,,,,,,,,,2,,,68,62
1151520,note_on,0,0,2,,,,,,,,,1,,,83,62
1151520,note_on,240,0,2,,,,,,,,,1,,,81,0
1151520,note_on,480,0,3,,,,,,,,,2,,,76,0
1151520,note_on,240,0,1,,,,,,,,,0,,,84,0
1151520,note_on,0,0,1,,,,,,,,,0,,,86,62
1152000,note_on,0,0,3,,,,,,,,,2,,,69,62
1152000,note_on,0,0,2,,,,,,,,,1,,,83,88
1152000,note_on,480,0,3,,,,,,,,,2,,,68,0
1152000,note_on,1440,0,4,,,,,,,,,3,,,64,0
1152000,note_on,0,0,4,,,,,,,,,3,,,64,62
1152000,note_on,480,0,2,,,,,,,,,1,,,83,0
1152240,note_on,240,0,3,,,,,,,,,2,,,69,0
1152240,note_on,0,0,4,,,,,,,,,3,,,64,62
1152240,note_on,0,0,2,,,,,,,,,1,,,81,62
1152240,note_on,240,0,4,,,,,,,,,3,,,64,0
1152240,note_on,0,0,3,,,,,,,,,2,,,69,62
1152240,note_on,240,0,2,,,,,,,,,1,,,83,0
1152480,note_on,240,0,2,,,,,,,,,1,,,81,0
1152480,note_on,240,0,4,,,,,,,,,3,,,64,0
1152480,note_on,0,0,2,,,,,,,,,1,,,81,88
1152480,note_on,240,0,3,,,,,,,,,2,,,69,0
1152480,note_on,0,0,3,,,,,,,,,2,,,71,62
1152480,note_on,0,0,4,,,,,,,,,3,,,64,62
1152720,note_on,240,0,2,,,,,,,,,1,,,81,0
1152720,note_on,0,0,2,,,,,,,,,1,,,80,62
1152960,note_on,0,0,1,,,,,,,,,0,,,87,62
1152960,note_on,480,0,3,,,,,,,,,2,,,71,0
1152960,note_on,1440,0,1,,,,,,,,,0,,,86,0
1152960,note_on,0,0,3,,,,,,,,,2,,,72,62
1152960,note_on,0,0,2,,,,,,,,,1,,,80,88
1152960,note_on,240,0,2,,,,,,,,,1,,,80,0
1153200,note_on,240,0,2,,,,,,,,,1,,,80,0
1153200,note_on,0,0,2,,,,,,,,,1,,,78,62
1153200,note_on,240,0,1,,,,,,,,,0,,,87,0
1153200,note_on,0,0,1,,,,,,,,,0,,,87,62
1153440,note_on,0,0,3,,,,,,,,,2,,,71,62
1153440,note_on,480,0,3,,,,,,,,,2,,,72,0
1153440,note_on,0,0,1,,,,,,,,,0,,,88,62
1153440,note_on,240,0,1,,,,,,,,,0,,,87,0
1153440,note_on,0,0,2,,,,,,,,,1,,,80,62
1153440,note_on,240,0,2,,,,,,,,,1,,,78,0
1153920,note_on,0,0,1,,,,,,,,,0,,,88,88
1153920,note_on,0,0,4,,,,,,,,,3,,,64,62
1153920,note_on,480,0,1,,,,,,,,,0,,,88,0
1153920,note_on,1440,0,4,,,,,,,,,3,,,64,0
1153920,note_on,480,0,3,,,,,,,,,2,,,71,0
1153920,note_on,0,0,3,,,,,,,,,2,,,71,62
1154160,note_on,240,0,3,,,,,,,,,2,,,71,0
1154160,note_on,0,0,3,,,,,,,,,2,,,71,62
1154160,note_on,0,0,4,,,,,,,,,3,,,64,62
1154160,note_on,0,0,1,,,,,,,,,0,,,86,62
1154160,note_on,240,0,1,,,,,,,,,0,,,88,0
1154160,note_on,240,0,4,,,,,,,,,3,,,64,0
1154400,note_on,240,0,1,,,,,,,,,0,,,86,0
1154400,note_on,0,0,1,,,,,,,,,0,,,86,88
1154400,note_on,240,0,3,,,,,,,,,2,,,71,0
1154400,note_on,0,0,3,,,,,,,,,2,,,72,62
1154400,note_on,240,0,4,,,,,,,,,3,,,64,0
1154400,note_on,0,0,4,,,,,,,,,3,,,64,62
1154640,note_on,240,0,1,,,,,,,,,0,,,86,0
1154640,note_on,0,0,1,,,,,,,,,0,,,84,62
1154880,note_on,1440,0,2,,,,,,,,,1,,,80,0
1154880,note_on,0,0,2,,,,,,,,,1,,,80,62
1154880,note_on,480,0,3,,,,,,,,,2,,,72,0
1154880,note_on,0,0,1,,,,,,,,,0,,,84,88
1154880,note_on,240,0,1,,,,,,,,,0,,,84,0
1154880,note_on,0,0,3,,,,,,,,,2,,,74,62
1155120,note_on,0,0,1,,,,,,,,,0,,,83,62
1155120,note_on,240,0,2,,,,,,,,,1,,,80,0
1155120,note_on,0,0,2,,,,,,,,,1,,,80,62
1155120,note_on,240,0,1,,,,,,,,,0,,,84,0
1155360,note_on,240,0,1,,,,,,,,,0,,,83,0
1155360,note_on,0,0,1,,,,,,,,,0,,,84,62
1155360,note_on,0,0,2,,,,,,,,,1,,,81,62
1155360,note_on,240,0,2,,,,,,,,,1,,,80,0
1155360,note_on,480,0,3,,,,,,,,,2,,,74,0
1155360,note_on,0,0,3,,,,,,,,,2,,,64,62
1155600,note_on,240,0,3,,,,,,,,,2,,,64,0
1155600,note_on,0,0,3,,,,,,,,,2,,,66,62
1155840,note_on,0,0,2,,,,,,,,,1,,,81,88
1155840,note_on,0,0,3,,,,,,,,,2,,,67,62
1155840,note_on,240,0,3,,,,,,,,,2,,,66,0
1155840,note_on,480,0,2,,,,,,,,,1,,,81,0
1155840,note_on,1440,0,4,,,,,,,,,3,,,64,0
1155840,note_on,0,0,4,,,,,,,,,3,,,64,62
1155863,note_on,23,0,3,,,,,,,,,2,,,67,0
1156080,note_on,0,0,4,,,,,,,,,3,,,64,62
1156080,note_on,217,0,3,,,,,,,,,2,,,67,62
1156080,note_on,0,0,2,,,,,,,,,1,,,79,62
1156080,note_on,240,0,4,,,,,,,,,3,,,64,0
1156080,note_on,240,0,2,,,,,,,,,1,,,81,0
1156103,note_on,23,0,3,,,,,,,,,2,,,67,0
1156320,note_on,240,0,4,,,,,,,,,3,,,64,0
1156320,note_on,0,0,4,,,,,,,,,3,,,64,62
1156320,note_on,240,0,2,,,,,,,,,1,,,79,0
1156320,note_on,0,0,2,,,,,,,,,1,,,79,88
1156320,note_on,217,0,3,,,,,,,,,2,,,69,62
1156367,note_on,47,0,3,,,,,,,,,2,,,69,0
1156560,note_on,240,0,2,,,,,,,,,1,,,79,0
1156560,note_on,0,0,2,,,,,,,,,1,,,78,62
1156800,note_on,433,0,3,,,,,,,,,2,,,70,62
1156800,note_on,0,0,2,,,,,,,,,1,,,78,88
1156800,note_on,1440,0,1,,,,,,,,,0,,,84,0
1156800,note_on,0,0,1,,,,,,,,,0,,,85,62
1156800,note_on,240,0,2,,,,,,,,,1,,,78,0
1157040,note_on,240,0,2,,,,,,,,,1,,,78,0
1157040,note_on,0,0,2,,,,,,,,,1,,,76,62
1157040,note_on,240,0,1,,,,,,,,,0,,,85,0
1157040,note_on,0,0,1,,,,,,,,,0,,,85,62
1157280,note_on,0,0,1,,,,,,,,,0,,,86,62
1157280,note_on,0,0,3,,,,,,,,,2,,,69,62
1157280,note_on,240,0,1,,,,,,,,,0,,,85,0
1157280,note_on,240,0,2,,,,,,,,,1,,,76,0
1157280,note_on,0,0,2,,,,,,,,,1,,,77,62
1157280,note_on,480,0,3,,,,,,,,,2,,,70,0
1157760,note_on,0,0,1,,,,,,,,,0,,,86,88
1157760,note_on,480,0,1,,,,,,,,,0,,,86,0
1157760,note_on,480,0,3,,,,,,,,,2,,,69,0
1157760,note_on,0,0,3,,,,,,,,,2,,,69,62
1157760,note_on,0,0,4,,,,,,,,,3,,,64,62
1157760,note_on,1440,0,4,,,,,,,,,3,,,64,0
1157783,note_on,23,0,3,,,,,,,,,2,,,69,0
1158000,note_on,0,0,4,,,,,,,,,3,,,64,62
1158000,note_on,0,0,1,,,,,,,,,0,,,84,62
1158000,note_on,240,0,1,,,,,,,,,0,,,86,0
1158000,note_on,240,0,4,,,,,,,,,3,,,64,0
1158000,note_on,217,0,3,,,,,,,,,2,,,69,62
1158023,note_on,23,0,3,,,,,,,,,2,,,69,0
1158240,note_on,0,0,1,,,,,,,,,0,,,84,88
1158240,note_on,240,0,4,,,,,,,,,3,,,64,0
1158240,note_on,240,0,1,,,,,,,,,0,,,84,0
1158240,note_on,217,0,3,,,,,,,,,2,,,71,62
1158240,note_on,0,0,4,,,,,,,,,3,,,64,62
1158287,note_on,47,0,3,,,,,,,,,2,,,71,0
1158480,note_on,0,0,1,,,,,,,,,0,,,83,62
1158480,note_on,240,0,1,,,,,,,,,0,,,84,0
1158720,note_on,0,0,1,,,,,,,,,0,,,83,88
1158720,note_on,240,0,1,,,,,,,,,0,,,83,0
1158720,note_on,1440,0,2,,,,,,,,,1,,,77,0
1158720,note_on,0,0,2,,,,,,,,,1,,,78,62
1158720,note_on,433,0,3,,,,,,,,,2,,,72,62
1158767,note_on,47,0,3,,,,,,,,,2,,,72,0
1158960,note_on,0,0,2,,,,,,,,,1,,,78,62
1158960,note_on,0,0,1,,,,,,,,,0,,,81,62
1158960,note_on,240,0,1,,,,,,,,,0,,,83,0
1158960,note_on,240,0,2,,,,,,,,,1,,,78,0
1159200,note_on,240,0,1,,,,,,,,,0,,,81,0
1159200,set_tempo,26880,1,0,,,,,,312500,,,,,,,
1159200,note_on,433,0,3,,,,,,,,,2,,,71,62
1159200,note_on,0,0,2,,,,,,,,,1,,,79,62
1159200,note_on,240,0,2,,,,,,,,,1,,,78,0
1159200,note_on,0,0,1,,,,,,,,,0,,,83,62
1159680,note_on,1440,0,4,,,,,,,,,3,,,64,0
1159680,note_on,0,0,4,,,,,,,,,3,,,64,62
1159680,note_on,0,0,3,,,,,,,,,2,,,76,62
1159680,note_on,480,0,3,,,,,,,,,2,,,71,0
1159680,note_on,480,0,2,,,,,,,,,1,,,79,0
1159680,note_on,0,0,2,,,,,,,,,1,,,80,62
1159920,note_on,0,0,3,,,,,,,,,2,,,74,62
1159920,note_on,240,0,3,,,,,,,,,2,,,76,0
1159920,note_on,0,0,4,,,,,,,,,3,,,64,62
1159920,note_on,240,0,4,,,,,,,,,3,,,64,0
1160160,note_on,0,0,2,,,,,,,,,1,,,81,62
1160160,note_on,960,0,1,,,,,,,,,0,,,83,0
1160160,note_on,0,0,4,,,,,,,,,3,,,64,62
1160160,note_on,240,0,4,,,,,,,,,3,,,64,0
1160160,note_on,0,0,3,,,,,,,,,2,,,72,62
1160160,note_on,240,0,3,,,,,,,,,2,,,74,0
1160160,note_on,0,0,1,,,,,,,,,0,,,84,62
1160160,note_on,480,0,2,,,,,,,,,1,,,80,0
1160640,note_on,480,0,3,,,,,,,,,2,,,72,0
1160640,note_on,0,0,3,,,,,,,,,2,,,71,62
1160880,note_on,240,0,3,,,,,,,,,2,,,71,0
1160880,note_on,0,0,3,,,,,,,,,2,,,72,62
1161120,note_on,240,0,3,,,,,,,,,2,,,72,0
1161120,note_on,0,0,3,,,,,,,,,2,,,74,62
1161120,note_on,0,0,1,,,,,,,,,0,,,83,62
1161120,note_on,960,0,1,,,,,,,,,0,,,84,0
1161120,note_on,960,0,2,,,,,,,,,1,,,81,0
1161120,note_on,0,0,2,,,,,,,,,1,,,81,62
1161600,note_on,0,0,3,,,,,,,,,2,,,77,62
1161600,note_on,480,0,3,,,,,,,,,2,,,74,0
1161600,note_on,1440,0,4,,,,,,,,,3,,,64,0
1161600,note_on,0,0,4,,,,,,,,,3,,,64,62
1162080,note_on,0,0,3,,,,,,,,,2,,,76,62
1162080,note_on,480,0,3,,,,,,,,,2,,,77,0
1162080,note_on,960,0,1,,,,,,,,,0,,,83,0
1162080,note_on,0,0,1,,,,,,,,,0,,,83,62
1162080,note_on,0,0,2,,,,,,,,,1,,,80,62
1162080,note_on,480,0,4,,,,,,,,,3,,,64,0
1162080,note_on,0,0,4,,,,,,,,,3,,,64,62
1162080,note_on,960,0,2,,,,,,,,,1,,,81,0
1162560,note_on,0,0,3,,,,,,,,,2,,,76,62
1162560,note_on,480,0,4,,,,,,,,,3,,,64,0
1162560,note_on,0,0,4,,,,,,,,,3,,,64,62
1162560,note_on,480,0,3,,,,,,,,,2,,,76,0
1163040,note_on,960,0,1,,,,,,,,,0,,,83,0
1163040,note_on,480,0,3,,,,,,,,,2,,,76,0
1163040,set_tempo,3840,1,0,,,,,,270270,,,,,,,
1163040,note_on,480,0,4,,,,,,,,,3,,,64,0
1163040,note_on,960,0,2,,,,,,,,,1,,,80,0
1164480,note_on,0,0,2,,,,,,,,,1,,,76,101
1164480,note_on,1440,0,2,,,,,,,,,1,,,72,101
1164480,note_on,1440,0,1,,,,,,,,,0,,,84,101
1164480,note_on,0,0,1,,,,,,,,,0,,,88,101
1164480,note_on,0,0,1,,,,,,,,,0,,,93,101
1164480,note_on,1440,0,4,,,,,,,,,3,,,33,62
1164480,note_on,0,0,2,,,,,,,,,1,,,81,101
1164480,note_on,0,0,3,,,,,,,,,2,,,57,101
1164480,note_on,1440,0,3,,,,,,,,,2,,,45,101
1164720,note_on,0,0,1,,,,,,,,,0,,,84,0
1164720,note_on,0,0,1,,,,,,,,,0,,,84,101
1164720,note_on,0,0,1,,,,,,,,,0,,,88,101
1164720,note_on,0,0,1,,,,,,,,,0,,,93,101
1164720,note_on,0,0,1,,,,,,,,,0,,,88,0
1164720,note_on,240,0,1,,,,,,,,,0,,,93,0
1164720,note_on,0,0,2,,,,,,,,,1,,,72,101
1164720,note_on,240,0,3,,,,,,,,,2,,,57,0
1164720,note_on,0,0,3,,,,,,,,,2,,,45,101
1164720,note_on,0,0,3,,,,,,,,,2,,,57,101
1164720,note_on,0,0,4,,,,,,,,,3,,,33,62
1164720,note_on,0,0,3,,,,,,,,,2,,,45,0
1164720,note_on,0,0,2,,,,,,,,,1,,,76,0
1164720,note_on,240,0,2,,,,,,,,,1,,,81,0
1164720,note_on,0,0,2,,,,,,,,,1,,,76,101
1164720,note_on,0,0,2,,,,,,,,,1,,,81,101
1164720,note_on,0,0,2,,,,,,,,,1,,,72,0
1164720,note_on,240,0,4,,,,,,,,,3,,,33,0
1164960,note_on,240,0,1,,,,,,,,,0,,,93,0
1164960,note_on,0,0,4,,,,,,,,,3,,,33,62
1164960,note_on,240,0,4,,,,,,,,,3,,,33,0
1164960,note_on,240,0,2,,,,,,,,,1,,,81,0
1164960,note_on,0,0,2,,,,,,,,,1,,,76,127
1164960,note_on,0,0,2,,,,,,,,,1,,,72,127
1164960,note_on,0,0,2,,,,,,,,,1,,,81,127
1164960,note_on,240,0,3,,,,,,,,,2,,,57,0
1164960,note_on,0,0,3,,,,,,,,,2,,,45,0
1164960,note_on,0,0,3,,,,,,,,,2,,,45,101
1164960,note_on,0,0,3,,,,,,,,,2,,,57,101
1164960,note_on,0,0,1,,,,,,,,,0,,,88,0
1164960,note_on,0,0,1,,,,,,,,,0,,,84,0
1164960,note_on,0,0,1,,,,,,,,,0,,,84,127
1164960,note_on,0,0,1,,,,,,,,,0,,,88,127
1164960,note_on,0,0,1,,,,,,,,,0,,,93,127
1164960,note_on,0,0,2,,,,,,,,,1,,,72,0
1164960,note_on,0,0,2,,,,,,,,,1,,,76,0
1166400,note_on,0,0,4,,,,,,,,,3,,,33,62
1166400,note_on,1440,0,1,,,,,,,,,0,,,93,0
1166400,note_on,0,0,1,,,,,,,,,0,,,88,0
1166400,note_on,0,0,1,,,,,,,,,0,,,81,101
1166400,note_on,0,0,1,,,,,,,,,0,,,84,0
1166400,note_on,1440,0,2,,,,,,,,,1,,,81,0
1166400,note_on,0,0,3,,,,,,,,,2,,,57,101
1166400,note_on,0,0,3,,,,,,,,,2,,,45,101
1166400,note_on,0,0,3,,,,,,,,,2,,,45,0
1166400,note_on,1440,0,3,,,,,,,,,2,,,57,0
1166400,note_on,1440,0,4,,,,,,,,,3,,,33,0
1166400,note_on,0,0,1,,,,,,,,,0,,,84,101
1166400,note_on,0,0,1,,,,,,,,,0,,,88,101
1166400,note_on,0,0,2,,,,,,,,,1,,,76,101
1166400,note_on,0,0,2,,,,,,,,,1,,,72,101
1166400,note_on,0,0,2,,,,,,,,,1,,,69,101
1166400,note_on,0,0,2,,,,,,,,,1,,,72,0
1166400,note_on,0,0,2,,,,,,,,,1,,,76,0
1166640,note_on,0,0,1,,,,,,,,,0,,,84,101
1166640,note_on,0,0,1,,,,,,,,,0,,,81,101
1166640,note_on,0,0,1,,,,,,,,,0,,,81,0
1166640,note_on,240,0,4,,,,,,,,,3,,,33,0
1166640,note_on,240,0,3,,,,,,,,,2,,,57,0
1166640,note_on,0,0,3,,,,,,,,,2,,,45,0
1166640,note_on,0,0,3,,,,,,,,,2,,,45,101
1166640,note_on,240,0,1,,,,,,,,,0,,,88,0
1166640,note_on,0,0,3,,,,,,,,,2,,,57,101
1166640,note_on,0,0,4,,,,,,,,,3,,,33,62
1166640,note_on,0,0,1,,,,,,,,,0,,,84,0
1166640,note_on,0,0,1,,,,,,,,,0,,,88,101
1166640,note_on,240,0,2,,,,,,,,,1,,,76,0
1166640,note_on,0,0,2,,,,,,,,,1,,,76,101
1166640,note_on,0,0,2,,,,,,,,,1,,,72,101
1166640,note_on,0,0,2,,,,,,,,,1,,,69,101
1166640,note_on,0,0,2,,,,,,,,,1,,,69,0
1166640,note_on,0,0,2,,,,,,,,,1,,,72,0
1166880,note_on,0,0,3,,,,,,,,,2,,,57,101
1166880,note_on,0,0,2,,,,,,,,,1,,,69,0
1166880,note_on,0,0,2,,,,,,,,,1,,,69,127
1166880,note_on,0,0,2,,,,,,,,,1,,,72,127
1166880,note_on,240,0,4,,,,,,,,,3,,,33,0
1166880,note_on,0,0,4,,,,,,,,,3,,,33,62
1166880,note_on,0,0,2,,,,,,,,,1,,,76,127
1166880,note_on,240,0,2,,,,,,,,,1,,,76,0
1166880,note_on,0,0,2,,,,,,,,,1,,,72,0
1166880,note_on,0,0,1,,,,,,,,,0,,,81,0
1166880,note_on,0,0,3,,,,,,,,,2,,,45,101
1166880,note_on,0,0,3,,,,,,,,,2,,,45,0
1166880,note_on,240,0,3,,,,,,,,,2,,,57,0
1166880,note_on,0,0,1,,,,,,,,,0,,,88,127
1166880,note_on,0,0,1,,,,,,,,,0,,,84,127
1166880,note_on,0,0,1,,,,,,,,,0,,,81,127
1166880,note_on,240,0,1,,,,,,,,,0,,,88,0
1166880,note_on,0,0,1,,,,,,,,,0,,,84,0
1167360,note_on,0,0,1,,,,,,,,,0,,,84,101
1167360,note_on,0,0,2,,,,,,,,,1,,,69,101
1167360,note_on,0,0,1,,,,,,,,,0,,,81,101
1167360,note_on,0,0,2,,,,,,,,,1,,,72,101
1167360,note_on,480,0,2,,,,,,,,,1,,,76,0
1167360,note_on,0,0,2,,,,,,,,,1,,,72,0
1167360,note_on,0,0,2,,,,,,,,,1,,,64,101
1167360,note_on,0,0,2,,,,,,,,,1,,,69,0
1167360,note_on,480,0,3,,,,,,,,,2,,,57,0
1167360,note_on,0,0,1,,,,,,,,,0,,,81,0
1167360,note_on,480,0,1,,,,,,,,,0,,,88,0
1167360,note_on,0,0,1,,,,,,,,,0,,,76,101
1167360,note_on,0,0,3,,,,,,,,,2,,,57,101
1167360,note_on,0,0,3,,,,,,,,,2,,,45,101
1167360,note_on,0,0,1,,,,,,,,,0,,,84,0
1167360,note_on,0,0,4,,,,,,,,,3,,,33,62
1167360,note_on,480,0,4,,,,,,,,,3,,,33,0
1167360,note_on,0,0,3,,,,,,,,,2,,,45,0
1167600,note_on,240,0,3,,,,,,,,,2,,,57,0
1167600,note_on,0,0,1,,,,,,,,,0,,,76,101
1167600,note_on,0,0,3,,,,,,,,,2,,,45,0
1167600,note_on,240,0,1,,,,,,,,,0,,,84,0
1167600,note_on,0,0,1,,,,,,,,,0,,,81,101
1167600,note_on,0,0,1,,,,,,,,,0,,,84,101
1167600,note_on,0,0,3,,,,,,,,,2,,,57,101
1167600,note_on,0,0,3,,,,,,,,,2,,,45,101
1167600,note_on,0,0,2,,,,,,,,,1,,,64,101
1167600,note_on,0,0,4,,,,,,,,,3,,,33,62
1167600,note_on,0,0,2,,,,,,,,,1,,,64,0
1167600,note_on,0,0,2,,,,,,,,,1,,,69,0
1167600,note_on,240,0,2,,,,,,,,,1,,,72,0
1167600,note_on,0,0,2,,,,,,,,,1,,,72,101
1167600,note_on,240,0,4,,,,,,,,,3,,,33,0
1167600,note_on,0,0,2,,,,,,,,,1,,,69,101
1167600,note_on,0,0,1,,,,,,,,,0,,,81,0
1167600,note_on,0,0,1,,,,,,,,,0,,,76,0
1167840,note_on,0,0,1,,,,,,,,,0,,,84,127
1167840,note_on,0,0,1,,,,,,,,,0,,,81,127
1167840,note_on,0,0,2,,,,,,,,,1,,,64,127
1167840,note_on,0,0,1,,,,,,,,,0,,,76,127
1167840,note_on,0,0,2,,,,,,,,,1,,,64,0
1167840,note_on,0,0,1,,,,,,,,,0,,,76,0
1167840,note_on,0,0,1,,,,,,,,,0,,,81,0
1167840,note_on,240,0,1,,,,,,,,,0,,,84,0
1167840,note_on,240,0,4,,,,,,,,,3,,,33,0
1167840,note_on,0,0,3,,,,,,,,,2,,,45,101
1167840,note_on,0,0,3,,,,,,,,,2,,,57,101
1167840,note_on,0,0,2,,,,,,,,,1,,,72,127
1167840,note_on,0,0,2,,,,,,,,,1,,,69,127
1167840,note_on,240,0,2,,,,,,,,,1,,,72,0
1167840,note_on,0,0,2,,,,,,,,,1,,,69,0
1167840,note_on,240,0,3,,,,,,,,,2,,,57,0
1167840,note_on,0,0,3,,,,,,,,,2,,,45,0
1167840,note_on,0,0,4,,,,,,,,,3,,,33,62
1168320,note_on,480,0,2,,,,,,,,,1,,,72,0
1168320,note_on,480,0,1,,,,,,,,,0,,,84,0
1168320,note_on,0,0,1,,,,,,,,,0,,,76,0
1168320,note_on,0,0,1,,,,,,,,,0,,,72,101
1168320,note_on,0,0,1,,,,,,,,,0,,,76,101
1168320,note_on,0,0,1,,,,,,,,,0,,,81,101
1168320,note_on,0,0,2,,,,,,,,,1,,,69,0
1168320,note_on,0,0,2,,,,,,,,,1,,,64,0
1168320,note_on,0,0,2,,,,,,,,,1,,,60,101
1168320,note_on,0,0,1,,,,,,,,,0,,,81,0
1168320,note_on,0,0,2,,,,,,,,,1,,,69,101
1168320,note_on,0,0,2,,,,,,,,,1,,,64,101
1168320,note_on,0,0,3,,,,,,,,,2,,,45,101
1168320,note_on,0,0,3,,,,,,,,,2,,,45,0
1168320,note_on,480,0,3,,,,,,,,,2,,,57,0
1168320,note_on,480,0,4,,,,,,,,,3,,,33,0
1168320,note_on,0,0,4,,,,,,,,,3,,,33,62
1168320,note_on,0,0,3,,,,,,,,,2,,,57,101
1168560,note_on,0,0,1,,,,,,,,,0,,,72,0
1168560,note_on,0,0,4,,,,,,,,,3,,,33,62
1168560,note_on,240,0,4,,,,,,,,,3,,,33,0
1168560,note_on,0,0,2,,,,,,,,,1,,,64,101
1168560,note_on,0,0,2,,,,,,,,,1,,,60,101
1168560,note_on,0,0,2,,,,,,,,,1,,,60,0
1168560,note_on,240,0,3,,,,,,,,,2,,,57,0
1168560,note_on,240,0,2,,,,,,,,,1,,,69,0
1168560,note_on,0,0,2,,,,,,,,,1,,,64,0
1168560,note_on,240,0,1,,,,,,,,,0,,,81,0
1168560,note_on,0,0,2,,,,,,,,,1,,,69,101
1168560,note_on,0,0,1,,,,,,,,,0,,,76,0
1168560,note_on,0,0,3,,,,,,,,,2,,,57,101
1168560,note_on,0,0,3,,,,,,,,,2,,,45,101
1168560,note_on,0,0,3,,,,,,,,,2,,,45,0
1168560,note_on,0,0,1,,,,,,,,,0,,,81,101
1168560,note_on,0,0,1,,,,,,,,,0,,,76,101
1168560,note_on,0,0,1,,,,,,,,,0,,,72,101
1168800,note_on,240,0,4,,,,,,,,,3,,,33,0
1168800,note_on,0,0,1,,,,,,,,,0,,,76,127
1168800,note_on,0,0,1,,,,,,,,,0,,,72,127
1168800,note_on,0,0,1,,,,,,,,,0,,,72,0
1168800,note_on,0,0,1,,,,,,,,,0,,,76,0
1168800,note_on,240,0,1,,,,,,,,,0,,,81,0
1168800,note_on,0,0,1,,,,,,,,,0,,,81,127
1168800,note_on,240,0,2,,,,,,,,,1,,,69,0
1168800,note_on,0,0,4,,,,,,,,,3,,,33,88
1168800,note_on,0,0,2,,,,,,,,,1,,,64,0
1168800,note_on,0,0,2,,,,,,,,,1,,,60,0
1168800,note_on,240,0,3,,,,,,,,,2,,,57,0
1168800,note_on,0,0,3,,,,,,,,,2,,,45,0
1168800,note_on,0,0,3,,,,,,,,,2,,,45,127
1168800,note_on,0,0,3,,,,,,,,,2,,,57,127
1168800,note_on,0,0,2,,,,,,,,,1,,,64,127
1168800,note_on,0,0,2,,,,,,,,,1,,,69,127
1168800,note_on,0,0,2,,,,,,,,,1,,,60,127
1169280,note_on,0,0,2,,,,,,,,,1,,,67,101
1169280,note_on,0,0,2,,,,,,,,,1,,,64,101
1169280,note_on,0,0,2,,,,,,,,,1,,,61,101
1169280,note_on,480,0,1,,,,,,,,,0,,,81,0
1169280,note_on,0,0,1,,,,,,,,,0,,,76,0
1169280,note_on,0,0,1,,,,,,,,,0,,,72,0
1169280,note_on,480,0,4,,,,,,,,,3,,,33,0
1169280,note_on,0,0,1,,,,,,,,,0,,,76,101
1169280,note_on,0,0,4,,,,,,,,,3,,,33,62
1169280,note_on,0,0,2,,,,,,,,,1,,,60,0
1169280,note_on,0,0,2,,,,,,,,,1,,,64,0
1169280,note_on,480,0,2,,,,,,,,,1,,,69,0
1169280,note_on,480,0,3,,,,,,,,,2,,,57,0
1169280,note_on,0,0,3,,,,,,,,,2,,,45,0
1169280,note_on,0,0,3,,,,,,,,,2,,,45,101
1169280,note_on,0,0,3,,,,,,,,,2,,,57,101
1169280,note_on,0,0,1,,,,,,,,,0,,,73,101
1169280,note_on,0,0,1,,,,,,,,,0,,,79,101
1169760,note_on,480,0,3,,,,,,,,,2,,,57,0
1169760,note_on,0,0,3,,,,,,,,,2,,,45,0
1169760,note_on,0,0,1,,,,,,,,,0,,,76,0
1169760,note_on,0,0,1,,,,,,,,,0,,,73,0
1169760,note_on,0,0,2,,,,,,,,,1,,,61,0
1169760,note_on,480,0,4,,,,,,,,,3,,,33,0
1169760,note_on,0,0,2,,,,,,,,,1,,,64,0
1169760,note_on,480,0,2,,,,,,,,,1,,,67,0
1169760,note_on,480,0,1,,,,,,,,,0,,,79,0
1170240,note_on,0,0,2,,,,,,,,,1,,,67,101
1170240,note_on,0,0,2,,,,,,,,,1,,,64,101
1170240,note_on,480,0,2,,,,,,,,,1,,,61,101
1170240,note_on,0,0,1,,,,,,,,,0,,,79,101
1170240,note_on,480,0,4,,,,,,,,,3,,,33,62
1170240,note_on,480,0,3,,,,,,,,,2,,,45,101
1170240,note_on,0,0,3,,,,,,,,,2,,,57,101
1170240,note_on,0,0,1,,,,,,,,,0,,,76,101
1170240,note_on,480,0,1,,,,,,,,,0,,,73,101
1170480,note_on,0,0,2,,,,,,,,,1,,,64,101
1170480,note_on,0,0,2,,,,,,,,,1,,,67,101
1170480,note_on,240,0,4,,,,,,,,,3,,,33,0
1170480,note_on,0,0,4,,,,,,,,,3,,,33,62
1170480,note_on,0,0,2,,,,,,,,,1,,,61,101
1170480,note_on,240,0,3,,,,,,,,,2,,,57,0
1170480,note_on,0,0,3,,,,,,,,,2,,,45,0
1170480,note_on,0,0,2,,,,,,,,,1,,,61,0
1170480,note_on,240,0,2,,,,,,,,,1,,,67,0
1170480,note_on,0,0,2,,,,,,,,,1,,,64,0
1170480,note_on,0,0,3,,,,,,,,,2,,,45,101
1170480,note_on,0,0,1,,,,,,,,,0,,,79,101
1170480,note_on,0,0,3,,,,,,,,,2,,,57,101
1170480,note_on,0,0,1,,,,,,,,,0,,,73,101
1170480,note_on,0,0,1,,,,,,,,,0,,,73,0
1170480,note_on,0,0,1,,,,,,,,,0,,,76,0
1170480,note_on,240,0,1,,,,,,,,,0,,,79,0
1170480,note_on,0,0,1,,,,,,,,,0,,,76,101
1170720,note_on,0,0,3,,,,,,,,,2,,,45,0
1170720,note_on,240,0,3,,,,,,,,,2,,,57,0
1170720,note_on,0,0,2,,,,,,,,,1,,,64,0
1170720,note_on,0,0,2,,,,,,,,,1,,,67,127
1170720,note_on,0,0,2,,,,,,,,,1,,,64,127
1170720,note_on,0,0,2,,,,,,,,,1,,,61,127
1170720,note_on,0,0,3,,,,,,,,,2,,,45,127
1170720,note_on,240,0,2,,,,,,,,,1,,,67,0
1170720,note_on,0,0,2,,,,,,,,,1,,,61,0
1170720,note_on,0,0,1,,,,,,,,,0,,,73,0
1170720,note_on,240,0,1,,,,,,,,,0,,,79,0
1170720,note_on,0,0,1,,,,,,,,,0,,,76,0
1170720,note_on,0,0,1,,,,,,,,,0,,,73,127
1170720,note_on,0,0,1,,,,,,,,,0,,,76,127
1170720,note_on,0,0,1,,,,,,,,,0,,,79,127
1170720,note_on,0,0,3,,,,,,,,,2,,,57,127
1170720,note_on,240,0,4,,,,,,,,,3,,,33,0
1170720,note_on,0,0,4,,,,,,,,,3,,,33,88
1171200,note_on,0,0,3,,,,,,,,,2,,,57,101
1171200,note_on,0,0,2,,,,,,,,,1,,,65,101
1171200,note_on,0,0,2,,,,,,,,,1,,,62,101
1171200,note_on,0,0,2,,,,,,,,,1,,,61,0
1171200,note_on,0,0,2,,,,,,,,,1,,,64,0
1171200,note_on,480,0,3,,,,,,,,,2,,,57,0
1171200,note_on,0,0,3,,,,,,,,,2,,,45,0
1171200,note_on,0,0,3,,,,,,,,,2,,,45,101
1171200,note_on,0,0,1,,,,,,,,,0,,,76,0
1171200,note_on,0,0,4,,,,,,,,,3,,,33,62
1171200,note_on,0,0,1,,,,,,,,,0,,,74,101
1171200,note_on,480,0,4,,,,,,,,,3,,,33,0
1171200,note_on,480,0,1,,,,,,,,,0,,,79,0
1171200,note_on,0,0,1,,,,,,,,,0,,,77,101
1171200,note_on,480,0,2,,,,,,,,,1,,,67,0
1171200,note_on,0,0,1,,,,,,,,,0,,,73,0
1171680,note_on,480,0,2,,,,,,,,,1,,,65,0
1171680,note_on,0,0,2,,,,,,,,,1,,,62,0
1171680,note_on,0,0,1,,,,,,,,,0,,,74,0
1171680,note_on,0,0,3,,,,,,,,,2,,,45,0
1171680,note_on,480,0,1,,,,,,,,,0,,,77,0
1171680,note_on,480,0,3,,,,,,,,,2,,,57,0
1171680,note_on,480,0,4,,,,,,,,,3,,,33,0
1172160,note_on,480,0,4,,,,,,,,,3,,,33,62
1172160,note_on,0,0,4,,,,,,,,,3,,,45,62
1172160,note_on,0,0,1,,,,,,,,,0,,,77,101
1172160,note_on,480,0,1,,,,,,,,,0,,,74,101
1172160,note_on,480,0,2,,,,,,,,,1,,,65,101
1172160,note_on,480,0,3,,,,,,,,,2,,,56,101
1172160,note_on,0,0,2,,,,,,,,,1,,,70,101
1172400,note_on,0,0,4,,,,,,,,,3,,,33,0
1172400,note_on,0,0,4,,,,,,,,,3,,,33,62
1172400,note_on,0,0,4,,,,,,,,,3,,,45,62
1172400,note_on,0,0,2,,,,,,,,,1,,,65,101
1172400,note_on,0,0,2,,,,,,,,,1,,,69,101
1172400,note_on,0,0,2,,,,,,,,,1,,,65,0
1172400,note_on,240,0,2,,,,,,,,,1,,,70,0
1172400,note_on,240,0,4,,,,,,,,,3,,,45,0
1172400,note_on,240,0,3,,,,,,,,,2,,,56,0
1172400,note_on,0,0,1,,,,,,,,,0,,,77,101
1172400,note_on,0,0,1,,,,,,,,,0,,,74,101
1172400,note_on,0,0,1,,,,,,,,,0,,,74,0
1172400,note_on,240,0,1,,,,,,,,,0,,,77,0
1172400,note_on,0,0,3,,,,,,,,,2,,,57,101
1172640,note_on,0,0,3,,,,,,,,,2,,,59,101
1172640,note_on,0,0,3,,,,,,,,,2,,,47,101
1172640,note_on,0,0,4,,,,,,,,,3,,,45,62
1172640,note_on,0,0,4,,,,,,,,,3,,,33,62
1172640,note_on,0,0,4,,,,,,,,,3,,,33,0
1172640,note_on,240,0,4,,,,,,,,,3,,,45,0
1172640,note_on,240,0,3,,,,,,,,,2,,,57,0
1172640,note_on,0,0,1,,,,,,,,,0,,,74,101
1172640,note_on,240,0,2,,,,,,,,,1,,,69,0
1172640,note_on,0,0,2,,,,,,,,,1,,,65,0
1172640,note_on,0,0,2,,,,,,,,,1,,,65,101
1172640,note_on,0,0,2,,,,,,,,,1,,,68,101
1172640,note_on,240,0,1,,,,,,,,,0,,,77,0
1172640,note_on,0,0,1,,,,,,,,,0,,,74,0
1172640,note_on,0,0,1,,,,,,,,,0,,,77,101
1172687,note_on,47,0,2,,,,,,,,,1,,,68,0
1172687,note_on,0,0,2,,,,,,,,,1,,,65,0
1172687,note_on,0,0,3,,,,,,,,,2,,,47,0
1172687,note_on,0,0,4,,,,,,,,,3,,,33,0
1172687,note_on,47,0,4,,,,,,,,,3,,,45,0
1172687,note_on,0,0,1,,,,,,,,,0,,,74,0
1172687,note_on,47,0,1,,,,,,,,,0,,,77,0
1172687,note_on,47,0,3,,,,,,,,,2,,,59,0
1173120,note_on,0,0,4,,,,,,,,,3,,,45,62
1173120,note_on,433,0,4,,,,,,,,,3,,,33,62
1173120,note_on,433,0,3,,,,,,,,,2,,,47,101
1173120,note_on,0,0,3,,,,,,,,,2,,,59,101
1173120,note_on,0,0,1,,,,,,,,,0,,,77,101
1173120,note_on,433,0,1,,,,,,,,,0,,,74,101
1173120,note_on,433,0,2,,,,,,,,,1,,,65,101
1173120,note_on,0,0,2,,,,,,,,,1,,,68,101
1173167,note_on,47,0,2,,,,,,,,,1,,,68,0
1173167,note_on,0,0,2,,,,,,,,,1,,,65,0
1173167,note_on,0,0,3,,,,,,,,,2,,,47,0
1173167,note_on,47,0,3,,,,,,,,,2,,,59,0
1173167,note_on,0,0,1,,,,,,,,,0,,,74,0
1173167,note_on,47,0,1,,,,,,,,,0,,,77,0
1173167,note_on,0,0,4,,,,,,,,,3,,,33,0
1173167,note_on,47,0,4,,,,,,,,,3,,,45,0
1173600,note_on,433,0,4,,,,,,,,,3,,,33,62
1173600,note_on,0,0,3,,,,,,,,,2,,,59,101
1173600,note_on,433,0,3,,,,,,,,,2,,,47,101
1173600,note_on,0,0,1,,,,,,,,,0,,,77,101
1173600,note_on,433,0,1,,,,,,,,,0,,,74,101
1173600,note_on,0,0,4,,,,,,,,,3,,,45,62
1173600,note_on,0,0,2,,,,,,,,,1,,,68,101
1173600,note_on,433,0,2,,,,,,,,,1,,,65,101
1173647,note_on,0,0,2,,,,,,,,,1,,,65,0
1173647,note_on,47,0,2,,,,,,,,,1,,,68,0
1173647,note_on,0,0,3,,,,,,,,,2,,,47,0
1173647,note_on,47,0,4,,,,,,,,,3,,,45,0
1173647,note_on,0,0,4,,,,,,,,,3,,,33,0
1173647,note_on,47,0,1,,,,,,,,,0,,,77,0
1173647,note_on,0,0,1,,,,,,,,,0,,,74,0
1173647,note_on,47,0,3,,,,,,,,,2,,,59,0
1174080,note_on,0,0,3,,,,,,,,,2,,,59,101
1174080,note_on,0,0,2,,,,,,,,,1,,,68,101
1174080,note_on,433,0,1,,,,,,,,,0,,,74,101
1174080,note_on,433,0,2,,,,,,,,,1,,,65,101
1174080,note_on,433,0,4,,,,,,,,,3,,,33,62
1174080,note_on,0,0,4,,,,,,,,,3,,,45,62
1174080,note_on,433,0,3,,,,,,,,,2,,,47,101
1174080,note_on,0,0,1,,,,,,,,,0,,,77,101
1174127,note_on,0,0,2,,,,,,,,,1,,,65,0
1174127,note_on,0,0,3,,,,,,,,,2,,,47,0
1174127,note_on,47,0,2,,,,,,,,,1,,,68,0
1174127,note_on,0,0,1,,,,,,,,,0,,,74,0
1174127,note_on,47,0,1,,,,,,,,,0,,,77,0
1174127,note_on,47,0,4,,,,,,,,,3,,,45,0
1174127,note_on,0,0,4,,,,,,,,,3,,,33,0
1174127,note_on,47,0,3,,,,,,,,,2,,,59,0
1174560,note_on,0,0,3,,,,,,,,,2,,,59,127
1174560,note_on,433,0,1,,,,,,,,,0,,,74,127
1174560,note_on,0,0,1,,,,,,,,,0,,,77,127
1174560,note_on,0,0,2,,,,,,,,,1,,,68,101
1174560,note_on,433,0,2,,,,,,,,,1,,,65,101
1174560,note_on,433,0,4,,,,,,,,,3,,,33,88
1174560,note_on,0,0,4,,,,,,,,,3,,,45,88
1174560,note_on,433,0,3,,,,,,,,,2,,,47,127
1175040,note_on,0,0,3,,,,,,,,,2,,,47,0
1175040,note_on,0,0,3,,,,,,,,,2,,,48,101
1175040,note_on,480,0,3,,,,,,,,,2,,,59,0
1175040,note_on,0,0,4,,,,,,,,,3,,,33,62
1175040,note_on,0,0,4,,,,,,,,,3,,,45,62
1175040,note_on,0,0,2,,,,,,,,,1,,,69,101
1175040,note_on,0,0,2,,,,,,,,,1,,,64,101
1175040,note_on,0,0,2,,,,,,,,,1,,,65,0
1175040,note_on,480,0,2,,,,,,,,,1,,,68,0
1175040,note_on,480,0,4,,,,,,,,,3,,,45,0
1175040,note_on,0,0,3,,,,,,,,,2,,,60,101
1175040,note_on,0,0,1,,,,,,,,,0,,,74,0
1175040,note_on,0,0,4,,,,,,,,,3,,,33,0
1175040,note_on,0,0,1,,,,,,,,,0,,,76,101
1175040,note_on,0,0,1,,,,,,,,,0,,,72,101
1175040,note_on,480,0,1,,,,,,,,,0,,,77,0
1175520,note_on,480,0,2,,,,,,,,,1,,,69,0
1175520,note_on,0,0,2,,,,,,,,,1,,,64,0
1175520,note_on,0,0,1,,,,,,,,,0,,,72,0
1175520,note_on,480,0,1,,,,,,,,,0,,,76,0
1175520,note_on,480,0,3,,,,,,,,,2,,,60,0
1175520,note_on,0,0,3,,,,,,,,,2,,,48,0
1175520,note_on,0,0,4,,,,,,,,,3,,,33,0
1175520,note_on,480,0,4,,,,,,,,,3,,,45,0
1176000,note_on,0,0,1,,,,,,,,,0,,,81,101
1176000,note_on,480,0,1,,,,,,,,,0,,,69,101
1176000,note_on,480,0,3,,,,,,,,,2,,,52,101
1176000,note_on,0,0,4,,,,,,,,,3,,,45,62
1176000,note_on,480,0,4,,,,,,,,,3,,,33,62
1176000,note_on,480,0,2,,,,,,,,,1,,,60,101
1176000,note_on,0,0,2,,,,,,,,,1,,,64,101
1176000,note_on,0,0,3,,,,,,,,,2,,,57,101
1176480,note_on,480,0,3,,,,,,,,,2,,,57,0
1176480,note_on,0,0,1,,,,,,,,,0,,,69,0
1176480,note_on,480,0,1,,,,,,,,,0,,,81,0
1176480,note_on,480,0,2,,,,,,,,,1,,,64,0
1176480,note_on,0,0,2,,,,,,,,,1,,,60,0
1176480,note_on,0,0,2,,,,,,,,,1,,,62,127
1176480,note_on,0,0,2,,,,,,,,,1,,,65,127
1176480,note_on,0,0,1,,,,,,,,,0,,,82,127
1176480,note_on,0,0,3,,,,,,,,,2,,,58,127
1176480,note_on,0,0,4,,,,,,,,,3,,,50,88
1176480,note_on,0,0,4,,,,,,,,,3,,,38,88
1176480,note_on,0,0,4,,,,,,,,,3,,,33,0
1176480,note_on,480,0,4,,,,,,,,,3,,,45,0
1176480,note_on,0,0,3,,,,,,,,,2,,,53,127
1176480,note_on,0,0,1,,,,,,,,,0,,,70,127
1176480,note_on,0,0,3,,,,,,,,,2,,,52,0
1177440,note_on,0,0,3,,,,,,,,,2,,,62,127
1177440,note_on,960,0,3,,,,,,,,,2,,,58,0
1177440,note_on,0,0,3,,,,,,,,,2,,,53,0
1177440,note_on,0,0,3,,,,,,,,,2,,,53,127
1177440,note_on,0,0,1,,,,,,,,,0,,,70,0
1177440,note_on,960,0,2,,,,,,,,,1,,,65,0
1177440,note_on,0,0,2,,,,,,,,,1,,,62,0
1177440,note_on,0,0,2,,,,,,,,,1,,,65,127
1177440,note_on,0,0,2,,,,,,,,,1,,,70,127
1177440,note_on,960,0,4,,,,,,,,,3,,,50,0
1177440,note_on,0,0,4,,,,,,,,,3,,,38,0
1177440,note_on,960,0,1,,,,,,,,,0,,,82,0
1177440,note_on,0,0,4,,,,,,,,,3,,,50,88
1177440,note_on,0,0,4,,,,,,,,,3,,,38,88
1177440,note_on,0,0,3,,,,,,,,,2,,,58,127
1177440,note_on,0,0,1,,,,,,,,,0,,,86,127
1177440,note_on,0,0,1,,,,,,,,,0,,,74,127
1178400,note_on,0,0,4,,,,,,,,,3,,,38,0
1178400,note_on,0,0,1,,,,,,,,,0,,,89,101
1178400,note_on,0,0,1,,,,,,,,,0,,,77,101
1178400,note_on,0,0,2,,,,,,,,,1,,,74,101
1178400,note_on,0,0,2,,,,,,,,,1,,,70,101
1178400,note_on,0,0,2,,,,,,,,,1,,,65,0
1178400,note_on,960,0,2,,,,,,,,,1,,,70,0
1178400,note_on,0,0,1,,,,,,,,,0,,,74,0
1178400,note_on,960,0,1,,,,,,,,,0,,,86,0
1178400,note_on,960,0,4,,,,,,,,,3,,,50,0
1178400,note_on,0,0,4,,,,,,,,,3,,,38,62
1178400,note_on,0,0,4,,,,,,,,,3,,,50,62
1178400,note_on,0,0,3,,,,,,,,,2,,,58,0
1178400,note_on,0,0,3,,,,,,,,,2,,,53,0
1178400,note_on,0,0,3,,,,,,,,,2,,,53,101
1178400,note_on,0,0,3,,,,,,,,,2,,,58,101
1178400,note_on,0,0,3,,,,,,,,,2,,,62,101
1178400,note_on,960,0,3,,,,,,,,,2,,,62,0
1178447,note_on,0,0,4,,,,,,,,,3,,,38,0
1178447,note_on,47,0,4,,,,,,,,,3,,,50,0
1178447,note_on,47,0,2,,,,,,,,,1,,,74,0
1178447,note_on,0,0,2,,,,,,,,,1,,,70,0
1178447,note_on,47,0,1,,,,,,,,,0,,,89,0
1178447,note_on,0,0,1,,,,,,,,,0,,,77,0
1178447,note_on,0,0,3,,,,,,,,,2,,,53,0
1178447,note_on,0,0,3,,,,,,,,,2,,,58,0
1178447,note_on,47,0,3,,,,,,,,,2,,,62,0
1178880,note_on,433,0,4,,,,,,,,,3,,,38,62
1178880,note_on,0,0,4,,,,,,,,,3,,,50,62
1178880,note_on,0,0,1,,,,,,,,,0,,,94,101
1178880,note_on,433,0,2,,,,,,,,,1,,,74,101
1178880,note_on,0,0,2,,,,,,,,,1,,,77,101
1178880,note_on,433,0,1,,,,,,,,,0,,,82,101
1178880,note_on,433,0,3,,,,,,,,,2,,,53,101
1178880,note_on,0,0,3,,,,,,,,,2,,,58,101
1178880,note_on,0,0,3,,,,,,,,,2,,,62,101
1178927,note_on,47,0,1,,,,,,,,,0,,,94,0
1178927,note_on,47,0,2,,,,,,,,,1,,,77,0
1178927,note_on,47,0,3,,,,,,,,,2,,,62,0
1178927,note_on,0,0,3,,,,,,,,,2,,,58,0
1178927,note_on,0,0,3,,,,,,,,,2,,,53,0
1178927,note_on,0,0,1,,,,,,,,,0,,,82,0
1178927,note_on,47,0,4,,,,,,,,,3,,,50,0
1178927,note_on,0,0,4,,,,,,,,,3,,,38,0
1178927,note_on,0,0,2,,,,,,,,,1,,,74,0
1179360,note_on,433,0,3,,,,,,,,,2,,,53,101
1179360,note_on,0,0,2,,,,,,,,,1,,,82,101
1179360,note_on,0,0,3,,,,,,,,,2,,,58,101
1179360,note_on,433,0,4,,,,,,,,,3,,,38,62
1179360,note_on,433,0,2,,,,,,,,,1,,,77,101
1179360,note_on,0,0,3,,,,,,,,,2,,,62,101
1179360,note_on,433,0,1,,,,,,,,,0,,,86,101
1179360,note_on,0,0,1,,,,,,,,,0,,,98,101
1179360,note_on,0,0,4,,,,,,,,,3,,,50,62
1179407,note_on,0,0,4,,,,,,,,,3,,,38,0
1179407,note_on,0,0,2,,,,,,,,,1,,,77,0
1179407,note_on,0,0,3,,,,,,,,,2,,,53,0
1179407,note_on,47,0,3,,,,,,,,,2,,,62,0
1179407,note_on,0,0,3,,,,,,,,,2,,,58,0
1179407,note_on,47,0,2,,,,,,,,,1,,,82,0
1179407,note_on,47,0,1,,,,,,,,,0,,,98,0
1179407,note_on,0,0,1,,,,,,,,,0,,,86,0
1179407,note_on,47,0,4,,,,,,,,,3,,,50,0
1179840,note_on,433,0,2,,,,,,,,,1,,,74,101
1179840,note_on,0,0,2,,,,,,,,,1,,,77,101
1179840,note_on,433,0,3,,,,,,,,,2,,,53,101
1179840,note_on,433,0,4,,,,,,,,,3,,,38,62
1179840,note_on,0,0,4,,,,,,,,,3,,,50,62
1179840,note_on,433,0,1,,,,,,,,,0,,,82,101
1179840,note_on,0,0,3,,,,,,,,,2,,,62,101
1179840,note_on,0,0,3,,,,,,,,,2,,,58,101
1179840,note_on,0,0,1,,,,,,,,,0,,,94,101
1179887,note_on,0,0,4,,,,,,,,,3,,,38,0
1179887,note_on,47,0,2,,,,,,,,,1,,,77,0
1179887,note_on,0,0,2,,,,,,,,,1,,,74,0
1179887,note_on,47,0,1,,,,,,,,,0,,,94,0
1179887,note_on,0,0,1,,,,,,,,,0,,,82,0
1179887,note_on,47,0,3,,,,,,,,,2,,,62,0
1179887,note_on,0,0,3,,,,,,,,,2,,,58,0
1179887,note_on,0,0,3,,,,,,,,,2,,,53,0
1179887,note_on,47,0,4,,,,,,,,,3,,,50,0
1180320,note_on,433,0,2,,,,,,,,,1,,,72,101
1180320,note_on,0,0,2,,,,,,,,,1,,,76,101
1180320,note_on,0,0,4,,,,,,,,,3,,,52,62
1180320,note_on,0,0,1,,,,,,,,,0,,,93,101
1180320,note_on,433,0,4,,,,,,,,,3,,,40,62
1180320,note_on,0,0,3,,,,,,,,,2,,,60,101
1180320,note_on,433,0,3,,,,,,,,,2,,,57,101
1180320,note_on,433,0,1,,,,,,,,,0,,,81,101
1181280,note_on,960,0,1,,,,,,,,,0,,,93,0
1181280,note_on,0,0,1,,,,,,,,,0,,,81,0
1181280,note_on,0,0,1,,,,,,,,,0,,,88,127
1181280,note_on,960,0,2,,,,,,,,,1,,,76,0
1181280,note_on,0,0,2,,,,,,,,,1,,,72,0
1181280,control_change,0,0,2,,,,,,,,,1,64,127,,
1181280,note_on,0,0,2,,,,,,,,,1,,,76,127
1181280,control_change,0,0,1,,,,,,,,,0,64,127,,
1181760,note_on,0,0,4,,,,,,,,,3,,,52,62
1181760,note_on,0,0,3,,,,,,,,,2,,,64,101
1181760,note_on,1440,0,4,,,,,,,,,3,,,52,0
1181760,note_on,0,0,4,,,,,,,,,3,,,40,0
1181760,note_on,0,0,4,,,,,,,,,3,,,40,62
1181760,note_on,0,0,3,,,,,,,,,2,,,57,0
1181760,note_on,0,0,3,,,,,,,,,2,,,57,101
1181760,note_on,0,0,3,,,,,,,,,2,,,60,101
1181760,note_on,1440,0,3,,,,,,,,,2,,,60,0
1182240,note_on,480,0,3,,,,,,,,,2,,,64,0
1182240,note_on,0,0,4,,,,,,,,,3,,,52,62
1182240,note_on,0,0,3,,,,,,,,,2,,,60,0
1182240,note_on,0,0,4,,,,,,,,,3,,,40,0
1182240,note_on,480,0,4,,,,,,,,,3,,,52,0
1182240,note_on,0,0,3,,,,,,,,,2,,,57,0
1182240,note_on,0,0,3,,,,,,,,,2,,,57,101
1182240,note_on,0,0,3,,,,,,,,,2,,,59,101
1182240,note_on,0,0,3,,,,,,,,,2,,,62,101
1182240,note_on,0,0,3,,,,,,,,,2,,,64,101
1182240,note_on,0,0,1,,,,,,,,,0,,,87,101
1182240,note_on,960,0,2,,,,,,,,,1,,,76,0
1182240,note_on,960,0,1,,,,,,,,,0,,,88,0
1182240,note_on,0,0,4,,,,,,,,,3,,,40,62
1182240,note_on,0,0,2,,,,,,,,,1,,,75,101
1182720,note_on,480,0,1,,,,,,,,,0,,,87,0
1182720,note_on,0,0,2,,,,,,,,,1,,,76,101
1182720,note_on,480,0,2,,,,,,,,,1,,,75,0
1182720,note_on,0,0,1,,,,,,,,,0,,,88,101
1183200,note_on,0,0,3,,,,,,,,,2,,,59,0
1183200,note_on,0,0,4,,,,,,,,,3,,,40,0
1183200,note_on,0,0,4,,,,,,,,,3,,,40,62
1183200,note_on,0,0,4,,,,,,,,,3,,,52,62
1183200,note_on,480,0,1,,,,,,,,,0,,,88,0
1183200,note_on,960,0,3,,,,,,,,,2,,,64,0
1183200,note_on,0,0,3,,,,,,,,,2,,,57,0
1183200,note_on,0,0,3,,,,,,,,,2,,,64,101
1183200,note_on,960,0,4,,,,,,,,,3,,,52,0
1183200,note_on,0,0,3,,,,,,,,,2,,,62,0
1183200,note_on,0,0,2,,,,,,,,,1,,,77,101
1183200,note_on,480,0,2,,,,,,,,,1,,,76,0
1183200,note_on,0,0,3,,,,,,,,,2,,,56,101
1183200,note_on,0,0,3,,,,,,,,,2,,,59,101
1183200,note_on,0,0,3,,,,,,,,,2,,,62,101
1183200,note_on,0,0,1,,,,,,,,,0,,,89,101
1183680,note_on,480,0,1,,,,,,,,,0,,,89,0
1183680,note_on,0,0,1,,,,,,,,,0,,,88,101
1183680,control_change,0,0,1,,,,,,,,,0,64,0,,
1183680,note_on,0,0,2,,,,,,,,,1,,,76,101
1183680,control_change,0,0,2,,,,,,,,,1,64,0,,
1183680,note_on,480,0,2,,,,,,,,,1,,,77,0
1184160,note_on,0,0,4,,,,,,,,,3,,,40,0
1184160,note_on,960,0,4,,,,,,,,,3,,,52,0
1184160,note_on,480,0,2,,,,,,,,,1,,,76,0
1184160,note_on,480,0,1,,,,,,,,,0,,,88,0
1184160,note_on,960,0,3,,,,,,,,,2,,,64,0
1184160,note_on,0,0,3,,,,,,,,,2,,,56,0
1184160,note_on,0,0,3,,,,,,,,,2,,,62,0
1184160,note_on,0,0,3,,,,,,,,,2,,,59,0
1186080,note_on,1920,0,4,,,,,,,,,3,,,33,62
1186080,note_on,1920,0,2,,,,,,,,,1,,,69,62
1186080,note_on,1920,0,1,,,,,,,,,0,,,81,75
1186080,note_on,0,0,4,,,,,,,,,3,,,45,62
1186320,control_change,2160,0,3,,,,,,,,,2,64,127,,
1186320,note_on,0,0,3,,,,,,,,,2,,,60,49
1186560,note_on,240,0,3,,,,,,,,,2,,,60,0
1186560,note_on,0,0,3,,,,,,,,,2,,,52,49
1186800,note_on,0,0,3,,,,,,,,,2,,,60,49
1186800,note_on,240,0,3,,,,,,,,,2,,,52,0
1187040,note_on,240,0,3,,,,,,,,,2,,,60,0
1187040,note_on,0,0,3,,,,,,,,,2,,,64,49
1187280,note_on,0,0,3,,,,,,,,,2,,,60,49
1187280,note_on,240,0,3,,,,,,,,,2,,,64,0
1187520,note_on,0,0,1,,,,,,,,,0,,,84,75
1187520,note_on,0,0,2,,,,,,,,,1,,,72,62
1187520,note_on,0,0,4,,,,,,,,,3,,,33,0
1187520,note_on,1440,0,4,,,,,,,,,3,,,45,0
1187520,note_on,0,0,4,,,,,,,,,3,,,33,62
1187520,note_on,1440,0,2,,,,,,,,,1,,,69,0
1187520,note_on,240,0,3,,,,,,,,,2,,,60,0
1187520,note_on,0,0,4,,,,,,,,,3,,,45,62
1187520,note_on,1440,0,1,,,,,,,,,0,,,81,0
1187520,note_on,0,0,3,,,,,,,,,2,,,52,49
1187760,note_on,240,0,3,,,,,,,,,2,,,52,0
1187760,control_change,0,0,3,,,,,,,,,2,64,0,,
1187760,note_on,0,0,3,,,,,,,,,2,,,60,49
1188000,note_on,0,0,1,,,,,,,,,0,,,81,75
1188000,note_on,0,0,4,,,,,,,,,3,,,47,62
1188000,note_on,0,0,4,,,,,,,,,3,,,35,62
1188000,note_on,0,0,4,,,,,,,,,3,,,33,0
1188000,note_on,480,0,4,,,,,,,,,3,,,45,0
1188000,note_on,240,0,3,,,,,,,,,2,,,60,0
1188000,note_on,480,0,1,,,,,,,,,0,,,84,0
1188000,note_on,480,0,2,,,,,,,,,1,,,72,0
1188000,note_on,0,0,2,,,,,,,,,1,,,69,62
1188240,control_change,240,0,3,,,,,,,,,2,64,127,,
1188240,note_on,0,0,3,,,,,,,,,2,,,62,49
1188480,note_on,0,0,3,,,,,,,,,2,,,52,49
1188480,note_on,0,0,1,,,,,,,,,0,,,80,75
1188480,note_on,0,0,2,,,,,,,,,1,,,68,62
1188480,note_on,480,0,2,,,,,,,,,1,,,69,0
1188480,note_on,240,0,3,,,,,,,,,2,,,62,0
1188480,note_on,480,0,1,,,,,,,,,0,,,81,0
1188720,note_on,240,0,3,,,,,,,,,2,,,52,0
1188720,note_on,0,0,3,,,,,,,,,2,,,62,49
1188960,note_on,480,0,1,,,,,,,,,0,,,80,0
1188960,note_on,240,0,3,,,,,,,,,2,,,62,0
1188960,note_on,0,0,4,,,,,,,,,3,,,35,0
1188960,note_on,960,0,4,,,,,,,,,3,,,47,0
1188960,note_on,0,0,3,,,,,,,,,2,,,64,49
1188960,note_on,480,0,2,,,,,,,,,1,,,68,0
1189200,note_on,240,0,3,,,,,,,,,2,,,64,0
1189200,note_on,0,0,3,,,,,,,,,2,,,62,49
1189440,note_on,240,0,3,,,,,,,,,2,,,62,0
1189440,note_on,0,0,3,,,,,,,,,2,,,52,49
1189680,note_on,240,0,3,,,,,,,,,2,,,52,0
1189680,control_change,0,0,3,,,,,,,,,2,64,0,,
1189680,note_on,0,0,3,,,,,,,,,2,,,62,49
1189920,note_on,240,0,3,,,,,,,,,2,,,62,0
1189920,note_on,960,0,2,,,,,,,,,1,,,69,62
1189920,note_on,960,0,1,,,,,,,,,0,,,81,75
1189920,note_on,0,0,4,,,,,,,,,3,,,45,62
1189920,note_on,960,0,4,,,,,,,,,3,,,33,62
1190160,control_change,240,0,3,,,,,,,,,2,64,127,,
1190160,note_on,0,0,3,,,,,,,,,2,,,60,49
1190400,note_on,240,0,3,,,,,,,,,2,,,60,0
1190400,note_on,0,0,3,,,,,,,,,2,,,52,49
1190640,note_on,240,0,3,,,,,,,,,2,,,52,0
1190640,note_on,0,0,3,,,,,,,,,2,,,60,49
1190880,note_on,0,0,3,,,,,,,,,2,,,64,49
1190880,note_on,240,0,3,,,,,,,,,2,,,60,0
1191120,note_on,0,0,3,,,,,,,,,2,,,60,49
1191120,note_on,240,0,3,,,,,,,,,2,,,64,0
1191360,note_on,1440,0,4,,,,,,,,,3,,,45,0
1191360,note_on,0,0,4,,,,,,,,,3,,,45,62
1191360,note_on,1440,0,1,,,,,,,,,0,,,81,0
1191360,note_on,0,0,4,,,,,,,,,3,,,33,62
1191360,note_on,1440,0,2,,,,,,,,,1,,,69,0
1191360,note_on,0,0,2,,,,,,,,,1,,,72,62
1191360,note_on,240,0,3,,,,,,,,,2,,,60,0
1191360,note_on,0,0,3,,,,,,,,,2,,,52,49
1191360,note_on,0,0,1,,,,,,,,,0,,,84,75
1191360,note_on,0,0,4,,,,,,,,,3,,,33,0
1191600,note_on,0,0,3,,,,,,,,,2,,,60,49
1191600,note_on,240,0,3,,,,,,,,,2,,,52,0
1191600,control_change,0,0,3,,,,,,,,,2,64,0,,
1191840,note_on,240,0,3,,,,,,,,,2,,,60,0
1191840,note_on,480,0,1,,,,,,,,,0,,,84,0
1191840,note_on,0,0,4,,,,,,,,,3,,,35,62
1191840,note_on,0,0,4,,,,,,,,,3,,,47,62
1191840,note_on,0,0,2,,,,,,,,,1,,,69,62
1191840,note_on,480,0,2,,,,,,,,,1,,,72,0
1191840,note_on,0,0,4,,,,,,,,,3,,,33,0
1191840,note_on,0,0,1,,,,,,,,,0,,,81,75
1191840,note_on,480,0,4,,,,,,,,,3,,,45,0
1192080,note_on,0,0,3,,,,,,,,,2,,,62,49
1192080,control_change,240,0,3,,,,,,,,,2,64,127,,
1192320,note_on,480,0,1,,,,,,,,,0,,,81,0
1192320,note_on,0,0,1,,,,,,,,,0,,,80,75
1192320,note_on,0,0,2,,,,,,,,,1,,,68,62
1192320,note_on,240,0,3,,,,,,,,,2,,,62,0
1192320,note_on,0,0,3,,,,,,,,,2,,,52,49
1192320,note_on,480,0,2,,,,,,,,,1,,,69,0
1192560,note_on,240,0,3,,,,,,,,,2,,,52,0
1192560,note_on,0,0,3,,,,,,,,,2,,,62,49
1192800,note_on,240,0,3,,,,,,,,,2,,,62,0
1192800,note_on,0,0,3,,,,,,,,,2,,,64,49
1192800,note_on,480,0,2,,,,,,,,,1,,,68,0
1192800,note_on,0,0,4,,,,,,,,,3,,,35,0
1192800,note_on,960,0,4,,,,,,,,,3,,,47,0
1192800,note_on,480,0,1,,,,,,,,,0,,,80,0
1193040,note_on,240,0,3,,,,,,,,,2,,,64,0
1193040,note_on,0,0,3,,,,,,,,,2,,,62,49
1193280,note_on,480,0,1,,,,,,,,,0,,,88,75
1193280,note_on,240,0,3,,,,,,,,,2,,,62,0
1193280,note_on,0,0,3,,,,,,,,,2,,,52,49
1193280,note_on,480,0,2,,,,,,,,,1,,,76,62
1193520,note_on,240,0,3,,,,,,,,,2,,,52,0
1193520,control_change,0,0,3,,,,,,,,,2,64,0,,
1193520,note_on,0,0,3,,,,,,,,,2,,,62,49
1193760,note_on,960,0,4,,,,,,,,,3,,,36,62
1193760,note_on,480,0,1,,,,,,,,,0,,,88,0
1193760,note_on,0,0,1,,,,,,,,,0,,,88,75
1193760,note_on,0,0,4,,,,,,,,,3,,,48,62
1193760,note_on,240,0,3,,,,,,,,,2,,,62,0
1193760,note_on,0,0,2,,,,,,,,,1,,,76,62
1193760,note_on,480,0,2,,,,,,,,,1,,,76,0
1194000,note_on,0,0,3,,,,,,,,,2,,,57,49
1194000,control_change,240,0,3,,,,,,,,,2,64,127,,
1194240,note_on,240,0,3,,,,,,,,,2,,,57,0
1194240,note_on,0,0,3,,,,,,,,,2,,,52,49
1194480,note_on,720,0,1,,,,,,,,,0,,,88,0
1194480,note_on,0,0,3,,,,,,,,,2,,,57,49
1194480,note_on,240,0,3,,,,,,,,,2,,,52,0
1194480,note_on,720,0,2,,,,,,,,,1,,,76,0
1194480,note_on,0,0,2,,,,,,,,,1,,,69,62
1194480,note_on,0,0,1,,,,,,,,,0,,,81,75
1194720,note_on,960,0,4,,,,,,,,,3,,,48,0
1194720,note_on,0,0,4,,,,,,,,,3,,,36,0
1194720,note_on,0,0,4,,,,,,,,,3,,,49,62
1194720,note_on,0,0,3,,,,,,,,,2,,,64,49
1194720,note_on,240,0,3,,,,,,,,,2,,,57,0
1194720,note_on,0,0,2,,,,,,,,,1,,,69,62
1194720,note_on,0,0,4,,,,,,,,,3,,,37,62
1194720,note_on,240,0,2,,,,,,,,,1,,,69,0
1194720,note_on,0,0,1,,,,,,,,,0,,,81,75
1194720,note_on,240,0,1,,,,,,,,,0,,,81,0
1194960,note_on,240,0,3,,,,,,,,,2,,,64,0
1194960,note_on,0,0,3,,,,,,,,,2,,,57,49
1195200,note_on,480,0,1,,,,,,,,,0,,,81,0
1195200,note_on,240,0,3,,,,,,,,,2,,,57,0
1195200,note_on,0,0,3,,,,,,,,,2,,,55,49
1195200,note_on,0,0,2,,,,,,,,,1,,,69,62
1195200,note_on,480,0,2,,,,,,,,,1,,,69,0
1195200,note_on,0,0,1,,,,,,,,,0,,,81,75
1195440,note_on,0,0,3,,,,,,,,,2,,,57,49
1195440,note_on,240,0,3,,,,,,,,,2,,,55,0
1195440,control_change,0,0,3,,,,,,,,,2,64,0,,
1195680,note_on,240,0,3,,,,,,,,,2,,,57,0
1195680,note_on,0,0,2,,,,,,,,,1,,,68,62
1195680,note_on,960,0,4,,,,,,,,,3,,,49,0
1195680,note_on,0,0,4,,,,,,,,,3,,,50,62
1195680,note_on,0,0,4,,,,,,,,,3,,,38,62
1195680,note_on,0,0,4,,,,,,,,,3,,,37,0
1195680,note_on,0,0,1,,,,,,,,,0,,,80,75
1195680,control_change,0,0,1,,,,,,,,,0,64,127,,
1195680,note_on,480,0,1,,,,,,,,,0,,,81,0
1195680,control_change,0,0,2,,,,,,,,,1,64,127,,
1195680,note_on,480,0,2,,,,,,,,,1,,,69,0
1195920,note_on,0,0,1,,,,,,,,,0,,,81,75
1195920,note_on,0,0,2,,,,,,,,,1,,,69,62
1195920,note_on,240,0,2,,,,,,,,,1,,,68,0
1195920,note_on,240,0,1,,,,,,,,,0,,,80,0
1195920,control_change,240,0,3,,,,,,,,,2,64,127,,
1195920,note_on,0,0,3,,,,,,,,,2,,,57,49
1196160,note_on,240,0,1,,,,,,,,,0,,,81,0
1196160,note_on,240,0,2,,,,,,,,,1,,,69,0
1196160,note_on,0,0,2,,,,,,,,,1,,,70,62
1196160,note_on,0,0,1,,,,,,,,,0,,,82,75
1196160,note_on,240,0,3,,,,,,,,,2,,,57,0
1196160,note_on,0,0,3,,,,,,,,,2,,,53,49
1196400,note_on,0,0,3,,,,,,,,,2,,,57,49
1196400,note_on,240,0,3,,,,,,,,,2,,,53,0
1196400,note_on,0,0,1,,,,,,,,,0,,,81,75
1196400,note_on,240,0,2,,,,,,,,,1,,,70,0
1196400,note_on,0,0,2,,,,,,,,,1,,,69,62
1196400,note_on,240,0,1,,,,,,,,,0,,,82,0
1196640,note_on,0,0,2,,,,,,,,,1,,,70,62
1196640,note_on,240,0,2,,,,,,,,,1,,,69,0
1196640,note_on,960,0,4,,,,,,,,,3,,,50,0
1196640,note_on,240,0,3,,,,,,,,,2,,,57,0
1196640,note_on,0,0,3,,,,,,,,,2,,,58,62
1196640,note_on,0,0,4,,,,,,,,,3,,,41,62
1196640,note_on,0,0,4,,,,,,,,,3,,,38,0
1196640,note_on,0,0,1,,,,,,,,,0,,,74,75
1196640,control_change,0,0,1,,,,,,,,,0,64,0,,
1196640,note_on,240,0,1,,,,,,,,,0,,,81,0
1196640,note_on,0,0,4,,,,,,,,,3,,,53,62
1196880,note_on,240,0,3,,,,,,,,,2,,,58,0
1196880,note_on,0,0,3,,,,,,,,,2,,,62,62
1197120,note_on,480,0,1,,,,,,,,,0,,,74,0
1197120,note_on,0,0,1,,,,,,,,,0,,,74,101
1197120,control_change,0,0,1,,,,,,,,,0,64,127,,
1197120,note_on,0,0,2,,,,,,,,,1,,,69,62
1197120,note_on,480,0,2,,,,,,,,,1,,,70,0
1197120,note_on,240,0,3,,,,,,,,,2,,,62,0
1197120,note_on,0,0,3,,,,,,,,,2,,,57,62
1197360,note_on,240,0,3,,,,,,,,,2,,,57,0
1197360,control_change,0,0,3,,,,,,,,,2,64,0,,
1197360,note_on,0,0,3,,,,,,,,,2,,,62,62
1197600,note_on,480,0,2,,,,,,,,,1,,,69,0
1197600,note_on,0,0,2,,,,,,,,,1,,,68,49
1197600,note_on,0,0,2,,,,,,,,,1,,,64,49
1197600,note_on,240,0,3,,,,,,,,,2,,,62,0
1197600,note_on,0,0,4,,,,,,,,,3,,,52,62
1197600,note_on,0,0,4,,,,,,,,,3,,,40,62
1197600,note_on,0,0,4,,,,,,,,,3,,,41,0
1197600,note_on,960,0,4,,,,,,,,,3,,,53,0
1197600,note_on,0,0,1,,,,,,,,,0,,,76,101
1197600,note_on,480,0,1,,,,,,,,,0,,,74,0
1197840,control_change,240,0,3,,,,,,,,,2,64,127,,
1197840,note_on,0,0,3,,,,,,,,,2,,,59,62
1198080,note_on,240,0,3,,,,,,,,,2,,,59,0
1198080,note_on,0,0,3,,,,,,,,,2,,,56,62
1198320,note_on,0,0,3,,,,,,,,,2,,,59,62
1198320,note_on,240,0,3,,,,,,,,,2,,,56,0
1198560,note_on,240,0,3,,,,,,,,,2,,,59,0
1198560,note_on,0,0,3,,,,,,,,,2,,,62,49
1198800,note_on,240,0,3,,,,,,,,,2,,,62,0
1198800,note_on,0,0,3,,,,,,,,,2,,,59,49
1198800,note_on,1200,0,1,,,,,,,,,0,,,76,0
1198800,note_on,0,0,1,,,,,,,,,0,,,74,75
1199040,note_on,240,0,3,,,,,,,,,2,,,59,0
1199040,note_on,0,0,3,,,,,,,,,2,,,56,49
1199040,note_on,0,0,1,,,,,,,,,0,,,72,75
1199040,note_on,240,0,1,,,,,,,,,0,,,74,0
1199280,note_on,240,0,3,,,,,,,,,2,,,56,0
1199280,note_on,0,0,3,,,,,,,,,2,,,59,49
1199280,control_change,0,0,3,,,,,,,,,2,64,0,,
1199280,note_on,0,0,1,,,,,,,,,0,,,71,75
1199280,note_on,240,0,1,,,,,,,,,0,,,72,0
1199520,note_on,1920,0,2,,,,,,,,,1,,,68,0
1199520,note_on,0,0,2,,,,,,,,,1,,,69,49
1199520,note_on,0,0,1,,,,,,,,,0,,,74,75
1199520,note_on,1920,0,4,,,,,,,,,3,,,52,0
1199520,note_on,0,0,4,,,,,,,,,3,,,40,0
1199520,note_on,0,0,4,,,,,,,,,3,,,45,62
1199520,note_on,240,0,3,,,,,,,,,2,,,59,0
1199520,note_on,240,0,1,,,,,,,,,0,,,71,0
1199760,note_on,0,0,1,,,,,,,,,0,,,72,75
1199760,note_on,0,0,3,,,,,,,,,2,,,57,49
1199760,control_change,240,0,3,,,,,,,,,2,64,127,,
1199760,note_on,240,0,1,,,,,,,,,0,,,74,0
1200000,note_on,240,0,3,,,,,,,,,2,,,57,0
1200000,note_on,0,0,3,,,,,,,,,2,,,52,49
1200000,note_on,0,0,2,,,,,,,,,1,,,64,0
1200000,note_on,480,0,2,,,,,,,,,1,,,69,0
1200000,note_on,240,0,1,,,,,,,,,0,,,72,0
1200000,note_on,0,0,1,,,,,,,,,0,,,71,75
1200000,note_on,480,0,4,,,,,,,,,3,,,45,0
1200240,note_on,240,0,1,,,,,,,,,0,,,71,0
1200240,note_on,240,0,3,,,,,,,,,2,,,52,0
1200240,note_on,0,0,3,,,,,,,,,2,,,57,49
1200240,note_on,0,0,1,,,,,,,,,0,,,72,75
1200480,note_on,240,0,1,,,,,,,,,0,,,72,0
1200480,control_change,0,0,1,,,,,,,,,0,64,0,,
1200480,note_on,0,0,1,,,,,,,,,0,,,69,75
1200480,note_on,240,0,3,,,,,,,,,2,,,57,0
1200480,note_on,0,0,3,,,,,,,,,2,,,60,49
1200480,note_on,480,0,4,,,,,,,,,3,,,33,62
1200480,note_on,0,0,4,,,,,,,,,3,,,45,62
1200720,note_on,240,0,3,,,,,,,,,2,,,60,0
1200720,note_on,0,0,3,,,,,,,,,2,,,57,49
1200960,note_on,240,0,3,,,,,,,,,2,,,57,0
1200960,note_on,0,0,3,,,,,,,,,2,,,56,49
1200960,note_on,0,0,4,,,,,,,,,3,,,35,62
1200960,note_on,0,0,4,,,,,,,,,3,,,33,0
1200960,note_on,480,0,4,,,,,,,,,3,,,45,0
1200960,note_on,960,0,2,,,,,,,,,1,,,76,62
1200960,note_on,480,0,1,,,,,,,,,0,,,69,0
1200960,note_on,0,0,1,,,,,,,,,0,,,88,75
1200960,note_on,0,0,4,,,,,,,,,3,,,47,62
1201200,note_on,0,0,3,,,,,,,,,2,,,52,49
1201200,control_change,0,0,3,,,,,,,,,2,64,0,,
1201200,note_on,240,0,3,,,,,,,,,2,,,56,0
1201440,note_on,480,0,4,,,,,,,,,3,,,47,0
1201440,note_on,0,0,4,,,,,,,,,3,,,48,62
1201440,note_on,0,0,4,,,,,,,,,3,,,36,62
1201440,note_on,240,0,3,,,,,,,,,2,,,52,0
1201440,note_on,0,0,1,,,,,,,,,0,,,87,75
1201440,note_on,480,0,1,,,,,,,,,0,,,88,0
1201440,note_on,0,0,4,,,,,,,,,3,,,35,0
1201440,note_on,480,0,2,,,,,,,,,1,,,76,0
1201440,control_change,0,0,2,,,,,,,,,1,64,127,,
1201440,note_on,0,0,2,,,,,,,,,1,,,75,62
1201440,control_change,0,0,1,,,,,,,,,0,64,127,,
1201680,note_on,240,0,1,,,,,,,,,0,,,87,0
1201680,control_change,240,0,3,,,,,,,,,2,64,127,,
1201680,note_on,0,0,3,,,,,,,,,2,,,57,49
1201680,note_on,0,0,1,,,,,,,,,0,,,88,75
1201680,note_on,240,0,2,,,,,,,,,1,,,75,0
1201680,note_on,0,0,2,,,,,,,,,1,,,76,62
1201920,note_on,0,0,3,,,,,,,,,2,,,52,49
1201920,note_on,0,0,2,,,,,,,,,1,,,77,62
1201920,note_on,240,0,2,,,,,,,,,1,,,76,0
1201920,note_on,240,0,1,,,,,,,,,0,,,88,0
1201920,note_on,0,0,1,,,,,,,,,0,,,89,75
1201920,note_on,240,0,3,,,,,,,,,2,,,57,0
1202160,note_on,0,0,1,,,,,,,,,0,,,88,75
1202160,note_on,240,0,3,,,,,,,,,2,,,52,0
1202160,note_on,240,0,1,,,,,,,,,0,,,89,0
1202160,note_on,0,0,3,,,,,,,,,2,,,57,49
1202160,note_on,0,0,2,,,,,,,,,1,,,76,62
1202160,note_on,240,0,2,,,,,,,,,1,,,77,0
1202400,note_on,0,0,3,,,,,,,,,2,,,64,49
1202400,note_on,0,0,1,,,,,,,,,0,,,81,75
1202400,control_change,0,0,1,,,,,,,,,0,64,0,,
1202400,note_on,240,0,1,,,,,,,,,0,,,88,0
1202400,note_on,960,0,4,,,,,,,,,3,,,48,0
1202400,note_on,0,0,4,,,,,,,,,3,,,36,0
1202400,note_on,0,0,4,,,,,,,,,3,,,37,62
1202400,note_on,0,0,4,,,,,,,,,3,,,49,62
1202400,note_on,240,0,3,,,,,,,,,2,,,57,0
1202400,note_on,240,0,2,,,,,,,,,1,,,76,0
1202400,control_change,0,0,2,,,,,,,,,1,64,0,,
1202400,note_on,0,0,2,,,,,,,,,1,,,69,62
1202640,note_on,240,0,3,,,,,,,,,2,,,64,0
1202640,note_on,0,0,3,,,,,,,,,2,,,57,49
1202880,note_on,240,0,3,,,,,,,,,2,,,57,0
1202880,note_on,0,0,3,,,,,,,,,2,,,55,49
1202880,note_on,0,0,2,,,,,,,,,1,,,69,62
1202880,control_change,0,0,2,,,,,,,,,1,64,127,,
1202880,note_on,0,0,1,,,,,,,,,0,,,81,75
1202880,control_change,0,0,1,,,,,,,,,0,64,127,,
1202880,note_on,480,0,1,,,,,,,,,0,,,81,0
1202880,note_on,480,0,2,,,,,,,,,1,,,69,0
1203120,note_on,240,0,3,,,,,,,,,2,,,55,0
1203120,control_change,0,0,3,,,,,,,,,2,64,0,,
1203120,note_on,0,0,3,,,,,,,,,2,,,57,49
1203360,note_on,480,0,1,,,,,,,,,0,,,81,0
1203360,note_on,0,0,1,,,,,,,,,0,,,82,75
1203360,note_on,480,0,2,,,,,,,,,1,,,69,0
1203360,note_on,0,0,2,,,,,,,,,1,,,70,62
1203360,note_on,0,0,4,,,,,,,,,3,,,38,62
1203360,note_on,960,0,4,,,,,,,,,3,,,49,0
1203360,note_on,0,0,4,,,,,,,,,3,,,37,0
1203360,note_on,0,0,4,,,,,,,,,3,,,50,62
1203360,note_on,240,0,3,,,,,,,,,2,,,57,0
1203600,note_on,240,0,1,,,,,,,,,0,,,82,0
1203600,note_on,0,0,2,,,,,,,,,1,,,69,62
1203600,note_on,0,0,3,,,,,,,,,2,,,57,49
1203600,control_change,240,0,3,,,,,,,,,2,64,127,,
1203600,note_on,240,0,2,,,,,,,,,1,,,70,0
1203600,note_on,0,0,1,,,,,,,,,0,,,81,75
1203840,note_on,0,0,1,,,,,,,,,0,,,80,75
1203840,note_on,0,0,3,,,,,,,,,2,,,53,49
1203840,note_on,240,0,3,,,,,,,,,2,,,57,0
1203840,note_on,240,0,2,,,,,,,,,1,,,69,0
1203840,note_on,0,0,2,,,,,,,,,1,,,68,62
1203840,note_on,240,0,1,,,,,,,,,0,,,81,0
1204080,note_on,240,0,1,,,,,,,,,0,,,80,0
1204080,note_on,0,0,1,,,,,,,,,0,,,81,75
1204080,note_on,240,0,2,,,,,,,,,1,,,68,0
1204080,note_on,0,0,2,,,,,,,,,1,,,69,62
1204080,note_on,240,0,3,,,,,,,,,2,,,53,0
1204080,note_on,0,0,3,,,,,,,,,2,,,57,49
1204320,note_on,240,0,2,,,,,,,,,1,,,69,0
1204320,control_change,0,0,2,,,,,,,,,1,64,0,,
1204320,note_on,0,0,2,,,,,,,,,1,,,70,49
1204320,note_on,0,0,4,,,,,,,,,3,,,53,62
1204320,note_on,0,0,4,,,,,,,,,3,,,41,62
1204320,note_on,240,0,3,,,,,,,,,2,,,57,0
1204320,note_on,0,0,3,,,,,,,,,2,,,58,49
1204320,note_on,960,0,4,,,,,,,,,3,,,50,0
1204320,note_on,0,0,4,,,,,,,,,3,,,38,0
1204320,note_on,240,0,1,,,,,,,,,0,,,81,0
1204320,control_change,0,0,1,,,,,,,,,0,64,0,,
1204320,note_on,0,0,1,,,,,,,,,0,,,74,75
1204560,note_on,0,0,3,,,,,,,,,2,,,62,49
1204560,note_on,240,0,3,,,,,,,,,2,,,58,0
1204800,note_on,480,0,1,,,,,,,,,0,,,74,0
1204800,control_change,0,0,1,,,,,,,,,0,64,127,,
1204800,note_on,480,0,2,,,,,,,,,1,,,70,0
1204800,note_on,0,0,2,,,,,,,,,1,,,69,49
1204800,note_on,0,0,3,,,,,,,,,2,,,57,49
1204800,note_on,0,0,1,,,,,,,,,0,,,74,101
1204800,note_on,240,0,3,,,,,,,,,2,,,62,0
1205040,note_on,0,0,3,,,,,,,,,2,,,62,49
1205040,control_change,0,0,3,,,,,,,,,2,64,0,,
1205040,note_on,240,0,3,,,,,,,,,2,,,57,0
1205280,note_on,0,0,4,,,,,,,,,3,,,40,62
1205280,note_on,480,0,1,,,,,,,,,0,,,74,0
1205280,note_on,0,0,1,,,,,,,,,0,,,76,101
1205280,note_on,0,0,4,,,,,,,,,3,,,41,0
1205280,note_on,240,0,3,,,,,,,,,2,,,62,0
1205280,note_on,0,0,4,,,,,,,,,3,,,52,62
1205280,note_on,960,0,4,,,,,,,,,3,,,53,0
1205280,note_on,480,0,2,,,,,,,,,1,,,69,0
1205280,note_on,0,0,2,,,,,,,,,1,,,64,49
1205280,note_on,0,0,2,,,,,,,,,1,,,68,49
1205520,control_change,240,0,3,,,,,,,,,2,64,127,,
1205520,note_on,0,0,3,,,,,,,,,2,,,59,49
1205760,note_on,0,0,3,,,,,,,,,2,,,56,49
1205760,note_on,240,0,3,,,,,,,,,2,,,59,0
1206000,note_on,0,0,3,,,,,,,,,2,,,59,49
1206000,note_on,240,0,3,,,,,,,,,2,,,56,0
1206240,note_on,240,0,3,,,,,,,,,2,,,59,0
1206240,note_on,0,0,3,,,,,,,,,2,,,62,49
1206480,note_on,0,0,3,,,,,,,,,2,,,59,49
1206480,note_on,240,0,3,,,,,,,,,2,,,62,0
1206480,note_on,1200,0,1,,,,,,,,,0,,,76,0
1206480,note_on,0,0,1,,,,,,,,,0,,,74,75
1206720,note_on,240,0,3,,,,,,,,,2,,,59,0
1206720,note_on,0,0,3,,,,,,,,,2,,,60,49
1206720,note_on,0,0,1,,,,,,,,,0,,,72,75
1206720,note_on,240,0,1,,,,,,,,,0,,,74,0
1206960,note_on,0,0,3,,,,,,,,,2,,,62,49
1206960,control_change,0,0,3,,,,,,,,,2,64,0,,
1206960,note_on,240,0,3,,,,,,,,,2,,,60,0
1206960,note_on,0,0,1,,,,,,,,,0,,,71,75
1206960,note_on,240,0,1,,,,,,,,,0,,,72,0
1207200,note_on,0,0,4,,,,,,,,,3,,,45,62
1207200,note_on,1920,0,2,,,,,,,,,1,,,68,0
1207200,note_on,0,0,4,,,,,,,,,3,,,40,0
1207200,note_on,0,0,1,,,,,,,,,0,,,69,75
1207200,note_on,1920,0,4,,,,,,,,,3,,,52,0
1207200,note_on,240,0,3,,,,,,,,,2,,,62,0
1207200,note_on,240,0,1,,,,,,,,,0,,,71,0
1207200,control_change,0,0,4,,,,,,,,,3,64,127,,
1207200,control_change,0,0,1,,,,,,,,,0,64,0,,
1207440,control_change,240,0,3,,,,,,,,,2,64,127,,
1207440,note_on,0,0,3,,,,,,,,,2,,,60,49
1207680,note_on,480,0,1,,,,,,,,,0,,,69,0
1207680,note_on,480,0,2,,,,,,,,,1,,,64,0
1207680,note_on,240,0,3,,,,,,,,,2,,,60,0
1207680,note_on,0,0,3,,,,,,,,,2,,,52,49
1207920,note_on,240,0,3,,,,,,,,,2,,,52,0
1207920,note_on,0,0,3,,,,,,,,,2,,,60,49
1208160,note_on,240,0,3,,,,,,,,,2,,,60,0
1208160,note_on,0,0,3,,,,,,,,,2,,,64,49
1208400,note_on,240,0,3,,,,,,,,,2,,,64,0
1208400,note_on,0,0,3,,,,,,,,,2,,,60,49
1208640,note_on,240,0,3,,,,,,,,,2,,,60,0
1208640,note_on,0,0,3,,,,,,,,,2,,,52,49
1208640,note_on,0,0,4,,,,,,,,,3,,,48,62
1208640,note_on,1440,0,4,,,,,,,,,3,,,45,0
1208880,control_change,0,0,3,,,,,,,,,2,64,0,,
1208880,note_on,0,0,3,,,,,,,,,2,,,60,49
1208880,note_on,240,0,3,,,,,,,,,2,,,52,0
1209120,note_on,480,0,4,,,,,,,,,3,,,48,0
1209120,note_on,0,0,4,,,,,,,,,3,,,45,88
1209120,note_on,1440,0,1,,,,,,,,,0,,,76,75
1209120,control_change,1440,0,2,,,,,,,,,1,64,127,,
1209120,note_on,240,0,3,,,,,,,,,2,,,60,0
1209120,note_on,0,0,2,,,,,,,,,1,,,71,49
1209360,control_change,240,0,3,,,,,,,,,2,64,127,,
1209360,note_on,0,0,3,,,,,,,,,2,,,62,49
1209600,control_change,0,0,4,,,,,,,,,3,64,0,,
1209600,note_on,480,0,4,,,,,,,,,3,,,45,0
1209600,note_on,0,0,4,,,,,,,,,3,,,44,62
1209600,note_on,0,0,3,,,,,,,,,2,,,52,49
1209600,note_on,240,0,3,,,,,,,,,2,,,62,0
1209840,note_on,240,0,3,,,,,,,,,2,,,52,0
1209840,note_on,0,0,3,,,,,,,,,2,,,62,49
1210080,note_on,240,0,3,,,,,,,,,2,,,62,0
1210080,note_on,0,0,3,,,,,,,,,2,,,64,49
1210080,note_on,480,0,4,,,,,,,,,3,,,44,0
1210320,note_on,240,0,3,,,,,,,,,2,,,64,0
1210320,note_on,0,0,3,,,,,,,,,2,,,62,49
1210560,note_on,0,0,3,,,,,,,,,2,,,52,49
1210560,note_on,1440,0,2,,,,,,,,,1,,,71,0
1210560,note_on,0,0,1,,,,,,,,,0,,,76,75
1210560,note_on,1440,0,1,,,,,,,,,0,,,76,0
1210560,note_on,0,0,2,,,,,,,,,1,,,74,49
1210560,note_on,240,0,3,,,,,,,,,2,,,62,0
1210800,note_on,240,0,3,,,,,,,,,2,,,52,0
1210800,note_on,0,0,3,,,,,,,,,2,,,62,49
1210800,control_change,0,0,3,,,,,,,,,2,64,0,,
1211040,note_on,0,0,4,,,,,,,,,3,,,45,62
1211040,note_on,480,0,1,,,,,,,,,0,,,76,0
1211040,note_on,0,0,1,,,,,,,,,0,,,77,75
1211040,note_on,480,0,2,,,,,,,,,1,,,74,0
1211040,note_on,0,0,2,,,,,,,,,1,,,71,49
1211040,control_change,960,0,4,,,,,,,,,3,64,127,,
1211040,note_on,240,0,3,,,,,,,,,2,,,62,0
1211280,note_on,0,0,3,,,,,,,,,2,,,60,49
1211280,control_change,240,0,3,,,,,,,,,2,64,127,,
1211520,note_on,240,0,3,,,,,,,,,2,,,60,0
1211520,note_on,0,0,1,,,,,,,,,0,,,76,75
1211520,note_on,480,0,1,,,,,,,,,0,,,77,0
1211520,note_on,0,0,3,,,,,,,,,2,,,52,49
1211520,note_on,480,0,2,,,,,,,,,1,,,71,0
1211520,control_change,0,0,2,,,,,,,,,1,64,0,,
1211520,note_on,0,0,2,,,,,,,,,1,,,72,49
1211760,note_on,240,0,3,,,,,,,,,2,,,52,0
1211760,note_on,0,0,3,,,,,,,,,2,,,60,49
1212000,note_on,480,0,1,,,,,,,,,0,,,76,0
1212000,note_on,0,0,1,,,,,,,,,0,,,75,101
1212000,note_on,240,0,3,,,,,,,,,2,,,60,0
1212000,note_on,0,0,3,,,,,,,,,2,,,54,49
1212000,note_on,480,0,2,,,,,,,,,1,,,72,0
1212240,note_on,240,0,3,,,,,,,,,2,,,54,0
1212240,note_on,0,0,3,,,,,,,,,2,,,60,49
1212480,note_on,0,0,3,,,,,,,,,2,,,55,49
1212480,note_on,240,0,3,,,,,,,,,2,,,60,0
1212480,note_on,1440,0,4,,,,,,,,,3,,,45,0
1212480,note_on,0,0,4,,,,,,,,,3,,,48,62
1212720,control_change,0,0,3,,,,,,,,,2,64,0,,
1212720,note_on,0,0,3,,,,,,,,,2,,,60,49
1212720,note_on,240,0,3,,,,,,,,,2,,,55,0
1212960,note_on,0,0,2,,,,,,,,,1,,,72,49
1212960,note_on,480,0,4,,,,,,,,,3,,,48,0
1212960,note_on,0,0,4,,,,,,,,,3,,,43,88
1212960,control_change,960,0,2,,,,,,,,,1,64,127,,
1212960,note_on,960,0,1,,,,,,,,,0,,,75,0
1212960,note_on,0,0,1,,,,,,,,,0,,,74,75
1212960,note_on,240,0,3,,,,,,,,,2,,,60,0
1213200,control_change,240,0,3,,,,,,,,,2,64,127,,
1213200,note_on,0,0,3,,,,,,,,,2,,,57,49
1213440,note_on,240,0,3,,,,,,,,,2,,,57,0
1213440,note_on,480,0,4,,,,,,,,,3,,,43,0
1213440,control_change,0,0,4,,,,,,,,,3,64,0,,
1213440,note_on,0,0,4,,,,,,,,,3,,,42,62
1213440,note_on,0,0,3,,,,,,,,,2,,,50,49
1213680,note_on,0,0,3,,,,,,,,,2,,,57,49
1213680,note_on,240,0,3,,,,,,,,,2,,,50,0
1213920,note_on,240,0,3,,,,,,,,,2,,,57,0
1213920,note_on,0,0,3,,,,,,,,,2,,,62,49
1213920,note_on,480,0,4,,,,,,,,,3,,,42,0
1214160,note_on,240,0,3,,,,,,,,,2,,,62,0
1214160,note_on,0,0,3,,,,,,,,,2,,,57,49
1214400,note_on,1440,0,2,,,,,,,,,1,,,72,0
1214400,note_on,0,0,2,,,,,,,,,1,,,69,49
1214400,note_on,0,0,3,,,,,,,,,2,,,50,49
1214400,note_on,1440,0,1,,,,,,,,,0,,,74,0
1214400,note_on,240,0,3,,,,,,,,,2,,,57,0
1214400,note_on,0,0,1,,,,,,,,,0,,,74,75
1214400,control_change,0,0,1,,,,,,,,,0,64,127,,
1214640,note_on,0,0,3,,,,,,,,,2,,,57,49
1214640,control_change,0,0,3,,,,,,,,,2,64,0,,
1214640,note_on,240,0,3,,,,,,,,,2,,,50,0
1214880,note_on,0,0,4,,,,,,,,,3,,,43,62
1214880,control_change,960,0,4,,,,,,,,,3,64,127,,
1214880,note_on,240,0,3,,,,,,,,,2,,,57,0
1214880,note_on,0,0,2,,,,,,,,,1,,,72,49
1214880,note_on,480,0,2,,,,,,,,,1,,,69,0
1214880,note_on,0,0,1,,,,,,,,,0,,,75,75
1214880,note_on,480,0,1,,,,,,,,,0,,,74,0
1215120,control_change,240,0,3,,,,,,,,,2,64,127,,
1215120,note_on,0,0,3,,,,,,,,,2,,,58,49
1215360,note_on,480,0,1,,,,,,,,,0,,,75,0
1215360,control_change,0,0,1,,,,,,,,,0,64,0,,
1215360,note_on,0,0,2,,,,,,,,,1,,,70,49
1215360,note_on,240,0,3,,,,,,,,,2,,,58,0
1215360,note_on,0,0,1,,,,,,,,,0,,,74,75
1215360,control_change,0,0,2,,,,,,,,,1,64,0,,
1215360,note_on,0,0,3,,,,,,,,,2,,,50,49
1215360,note_on,480,0,2,,,,,,,,,1,,,72,0
1215600,note_on,240,0,3,,,,,,,,,2,,,50,0
1215600,note_on,0,0,3,,,,,,,,,2,,,58,49
1215840,note_on,0,0,1,,,,,,,,,0,,,73,101
1215840,note_on,0,0,3,,,,,,,,,2,,,52,49
1215840,note_on,240,0,3,,,,,,,,,2,,,58,0
1215840,note_on,480,0,1,,,,,,,,,0,,,74,0
1215840,note_on,480,0,2,,,,,,,,,1,,,70,0
1216080,note_on,240,0,3,,,,,,,,,2,,,52,0
1216080,note_on,0,0,3,,,,,,,,,2,,,58,49
1216320,note_on,0,0,3,,,,,,,,,2,,,53,49
1216320,note_on,1440,0,4,,,,,,,,,3,,,43,0
1216320,note_on,0,0,4,,,,,,,,,3,,,46,62
1216320,note_on,240,0,3,,,,,,,,,2,,,58,0
1216560,note_on,0,0,3,,,,,,,,,2,,,58,49
1216560,control_change,0,0,3,,,,,,,,,2,64,0,,
1216560,note_on,240,0,3,,,,,,,,,2,,,53,0
1216800,control_change,0,0,3,,,,,,,,,2,64,127,,
1216800,note_on,240,0,3,,,,,,,,,2,,,58,0
1216800,note_on,960,0,1,,,,,,,,,0,,,73,0
1216800,note_on,0,0,2,,,,,,,,,1,,,70,62
1216800,note_on,0,0,4,,,,,,,,,3,,,41,88
1216800,note_on,480,0,4,,,,,,,,,3,,,46,0
1216800,note_on,0,0,1,,,,,,,,,0,,,72,75
1216800,control_change,960,0,2,,,,,,,,,1,64,127,,
1217040,note_on,240,0,3,,,,,,,,,2,,,55,49
1217280,note_on,240,0,3,,,,,,,,,2,,,55,0
1217280,note_on,480,0,4,,,,,,,,,3,,,41,0
1217280,note_on,0,0,3,,,,,,,,,2,,,48,49
1217280,note_on,0,0,4,,,,,,,,,3,,,40,62
1217280,control_change,0,0,4,,,,,,,,,3,64,0,,
1217520,note_on,240,0,3,,,,,,,,,2,,,48,0
1217520,note_on,0,0,3,,,,,,,,,2,,,55,49
1217760,note_on,240,0,3,,,,,,,,,2,,,55,0
1217760,note_on,0,0,3,,,,,,,,,2,,,60,49
1217760,note_on,480,0,4,,,,,,,,,3,,,40,0
1218000,note_on,240,0,3,,,,,,,,,2,,,60,0
1218000,note_on,0,0,3,,,,,,,,,2,,,55,49
1218240,note_on,0,0,3,,,,,,,,,2,,,48,49
1218240,note_on,0,0,2,,,,,,,,,1,,,67,62
1218240,note_on,1440,0,1,,,,,,,,,0,,,72,0
1218240,note_on,1440,0,2,,,,,,,,,1,,,70,0
1218240,note_on,0,0,1,,,,,,,,,0,,,72,75
1218240,note_on,240,0,3,,,,,,,,,2,,,55,0
1218480,note_on,0,0,3,,,,,,,,,2,,,55,49
1218480,note_on,240,0,3,,,,,,,,,2,,,48,0
1218480,control_change,0,0,3,,,,,,,,,2,64,0,,
1218720,control_change,960,0,4,,,,,,,,,3,64,127,,
1218720,note_on,240,0,3,,,,,,,,,2,,,55,0
1218720,note_on,0,0,1,,,,,,,,,0,,,73,75
1218720,note_on,480,0,1,,,,,,,,,0,,,72,0
1218720,note_on,0,0,4,,,,,,,,,3,,,41,62
1218720,note_on,480,0,2,,,,,,,,,1,,,67,0
1218720,note_on,0,0,2,,,,,,,,,1,,,70,62
1218960,control_change,240,0,3,,,,,,,,,2,64,127,,
1218960,note_on,0,0,3,,,,,,,,,2,,,53,49
1219200,note_on,480,0,2,,,,,,,,,1,,,70,0
1219200,note_on,240,0,3,,,,,,,,,2,,,53,0
1219200,note_on,0,0,3,,,,,,,,,2,,,60,49
1219200,note_on,0,0,1,,,,,,,,,0,,,72,75
1219200,note_on,480,0,1,,,,,,,,,0,,,73,0
1219200,control_change,0,0,2,,,,,,,,,1,64,0,,
1219200,note_on,0,0,2,,,,,,,,,1,,,69,62
1219440,note_on,0,0,3,,,,,,,,,2,,,58,49
1219440,note_on,240,0,3,,,,,,,,,2,,,60,0
1219680,note_on,0,0,1,,,,,,,,,0,,,74,75
1219680,note_on,240,0,3,,,,,,,,,2,,,58,0
1219680,note_on,480,0,1,,,,,,,,,0,,,72,0
1219680,note_on,0,0,3,,,,,,,,,2,,,57,62
1219680,note_on,480,0,2,,,,,,,,,1,,,69,0
1219920,note_on,240,0,3,,,,,,,,,2,,,57,0
1219920,note_on,0,0,3,,,,,,,,,2,,,55,62
1220160,note_on,0,0,4,,,,,,,,,3,,,44,101
1220160,note_on,480,0,2,,,,,,,,,1,,,72,75
1220160,note_on,0,0,3,,,,,,,,,2,,,54,62
1220160,note_on,1440,0,4,,,,,,,,,3,,,41,0
1220160,note_on,240,0,3,,,,,,,,,2,,,55,0
1220400,note_on,0,0,3,,,,,,,,,2,,,62,62
1220400,control_change,0,0,3,,,,,,,,,2,64,0,,
1220400,note_on,240,0,3,,,,,,,,,2,,,54,0
1220640,note_on,0,0,4,,,,,,,,,3,,,43,75
1220640,note_on,240,0,3,,,,,,,,,2,,,62,0
1220640,control_change,0,0,4,,,,,,,,,3,64,0,,
1220640,note_on,480,0,4,,,,,,,,,3,,,44,0
1220880,control_change,240,0,3,,,,,,,,,2,64,127,,
1220880,note_on,0,0,3,,,,,,,,,2,,,50,62
1221120,note_on,480,0,4,,,,,,,,,3,,,43,0
1221120,note_on,0,0,2,,,,,,,,,1,,,71,75
1221120,note_on,1440,0,1,,,,,,,,,0,,,74,0
1221120,note_on,960,0,2,,,,,,,,,1,,,72,0
1221120,note_on,240,0,3,,,,,,,,,2,,,50,0
1221120,note_on,0,0,3,,,,,,,,,2,,,62,62
1221360,note_on,0,0,3,,,,,,,,,2,,,60,62
1221360,note_on,240,0,3,,,,,,,,,2,,,62,0
1221600,note_on,480,0,1,,,,,,,,,0,,,76,75
1221600,note_on,0,0,3,,,,,,,,,2,,,59,62
1221600,note_on,480,0,2,,,,,,,,,1,,,71,0
1221600,note_on,240,0,3,,,,,,,,,2,,,60,0
1221840,note_on,240,0,3,,,,,,,,,2,,,59,0
1221840,note_on,0,0,3,,,,,,,,,2,,,57,62
1222080,note_on,480,0,2,,,,,,,,,1,,,74,75
1222080,note_on,240,0,3,,,,,,,,,2,,,57,0
1222080,note_on,960,0,4,,,,,,,,,3,,,46,75
1222080,note_on,0,0,3,,,,,,,,,2,,,56,62
1222320,note_on,240,0,3,,,,,,,,,2,,,56,0
1222320,control_change,0,0,3,,,,,,,,,2,64,0,,
1222320,note_on,0,0,3,,,,,,,,,2,,,64,62
1222560,note_on,0,0,4,,,,,,,,,3,,,45,75
1222560,note_on,240,0,3,,,,,,,,,2,,,64,0
1222560,note_on,480,0,4,,,,,,,,,3,,,46,0
1222800,note_on,240,0,3,,,,,,,,,2,,,52,62
1223040,note_on,240,0,3,,,,,,,,,2,,,52,0
1223040,note_on,0,0,3,,,,,,,,,2,,,64,62
1223040,note_on,480,0,4,,,,,,,,,3,,,45,0
1223040,note_on,1440,0,1,,,,,,,,,0,,,76,0
1223040,note_on,0,0,2,,,,,,,,,1,,,73,75
1223040,note_on,960,0,2,,,,,,,,,1,,,74,0
1223280,note_on,0,0,3,,,,,,,,,2,,,62,62
1223280,note_on,240,0,3,,,,,,,,,2,,,64,0
1223520,note_on,480,0,2,,,,,,,,,1,,,73,0
1223520,note_on,240,0,3,,,,,,,,,2,,,62,0
1223520,note_on,0,0,3,,,,,,,,,2,,,61,62
1223520,note_on,480,0,1,,,,,,,,,0,,,77,101
1223760,note_on,240,0,3,,,,,,,,,2,,,61,0
1223760,note_on,0,0,3,,,,,,,,,2,,,58,62
1224000,note_on,480,0,2,,,,,,,,,1,,,73,75
1224000,note_on,240,0,3,,,,,,,,,2,,,58,0
1224000,note_on,0,0,3,,,,,,,,,2,,,57,62
1224000,note_on,960,0,4,,,,,,,,,3,,,45,75
1224240,note_on,240,0,3,,,,,,,,,2,,,57,0
1224240,note_on,0,0,3,,,,,,,,,2,,,55,62
1224480,note_on,480,0,4,,,,,,,,,3,,,45,0
1224480,note_on,0,0,2,,,,,,,,,1,,,74,101
1224480,note_on,480,0,2,,,,,,,,,1,,,73,0
1224480,note_on,240,0,3,,,,,,,,,2,,,55,0
1224480,note_on,0,0,4,,,,,,,,,3,,,46,75
1224480,note_on,0,0,3,,,,,,,,,2,,,53,62
1224720,note_on,240,0,3,,,,,,,,,2,,,53,0
1224720,note_on,0,0,3,,,,,,,,,2,,,54,75
1224960,note_on,240,0,3,,,,,,,,,2,,,54,0
1224960,note_on,0,0,3,,,,,,,,,2,,,55,75
1225200,note_on,240,0,3,,,,,,,,,2,,,55,0
1225200,note_on,0,0,3,,,,,,,,,2,,,56,75
1225440,note_on,960,0,4,,,,,,,,,3,,,46,0
1225440,note_on,0,0,4,,,,,,,,,3,,,45,75
1225440,note_on,240,0,3,,,,,,,,,2,,,56,0
1225440,note_on,0,0,3,,,,,,,,,2,,,57,75
1225440,note_on,0,0,2,,,,,,,,,1,,,72,75
1225440,note_on,960,0,2,,,,,,,,,1,,,74,0
1225680,note_on,0,0,3,,,,,,,,,2,,,58,75
1225680,note_on,240,0,3,,,,,,,,,2,,,57,0
1225920,note_on,0,0,3,,,,,,,,,2,,,59,62
1225920,note_on,240,0,3,,,,,,,,,2,,,58,0
1226160,note_on,0,0,3,,,,,,,,,2,,,60,62
1226160,note_on,240,0,3,,,,,,,,,2,,,59,0
1226400,note_on,240,0,3,,,,,,,,,2,,,60,0
1226400,note_on,0,0,3,,,,,,,,,2,,,62,49
1226400,note_on,0,0,2,,,,,,,,,1,,,71,62
1226400,note_on,0,0,4,,,,,,,,,3,,,44,62
1226400,note_on,960,0,4,,,,,,,,,3,,,45,0
1226400,note_on,0,0,1,,,,,,,,,0,,,76,62
1226400,note_on,2880,0,1,,,,,,,,,0,,,77,0
1226400,note_on,960,0,2,,,,,,,,,1,,,72,0
1226400,control_change,0,0,2,,,,,,,,,1,64,127,,
1226640,note_on,240,0,3,,,,,,,,,2,,,62,0
1226640,note_on,0,0,3,,,,,,,,,2,,,52,49
1226880,note_on,0,0,3,,,,,,,,,2,,,59,49
1226880,note_on,240,0,3,,,,,,,,,2,,,52,0
1227120,note_on,240,0,3,,,,,,,,,2,,,59,0
1227120,note_on,0,0,3,,,,,,,,,2,,,62,49
1227360,note_on,0,0,3,,,,,,,,,2,,,60,49
1227360,note_on,960,0,2,,,,,,,,,1,,,71,0
1227360,note_on,0,0,2,,,,,,,,,1,,,72,62
1227360,note_on,240,0,3,,,,,,,,,2,,,62,0
1227600,note_on,0,0,3,,,,,,,,,2,,,52,49
1227600,note_on,240,0,3,,,,,,,,,2,,,60,0
1227840,note_on,480,0,2,,,,,,,,,1,,,72,0
1227840,note_on,0,0,2,,,,,,,,,1,,,74,62
1227840,note_on,0,0,1,,,,,,,,,0,,,76,62
1227840,note_on,1440,0,1,,,,,,,,,0,,,76,0
1227840,note_on,240,0,3,,,,,,,,,2,,,52,0
1227840,note_on,0,0,3,,,,,,,,,2,,,59,49
1228080,note_on,240,0,3,,,,,,,,,2,,,59,0
1228080,note_on,0,0,3,,,,,,,,,2,,,52,49
1228320,note_on,0,0,1,,,,,,,,,0,,,77,62
1228320,note_on,0,0,3,,,,,,,,,2,,,59,49
1228320,note_on,240,0,3,,,,,,,,,2,,,52,0
1228320,note_on,480,0,2,,,,,,,,,1,,,74,0
1228320,note_on,1920,0,4,,,,,,,,,3,,,44,0
1228320,note_on,0,0,2,,,,,,,,,1,,,71,62
1228320,note_on,480,0,1,,,,,,,,,0,,,76,0
1228560,note_on,240,0,3,,,,,,,,,2,,,59,0
1228560,note_on,0,0,3,,,,,,,,,2,,,62,49
1228800,note_on,0,0,4,,,,,,,,,3,,,45,62
1228800,control_change,480,0,4,,,,,,,,,3,64,127,,
1228800,note_on,0,0,3,,,,,,,,,2,,,60,49
1228800,control_change,0,0,2,,,,,,,,,1,64,0,,
1228800,note_on,240,0,3,,,,,,,,,2,,,62,0
1228800,note_on,480,0,1,,,,,,,,,0,,,77,0
1228800,note_on,0,0,1,,,,,,,,,0,,,76,62
1228800,note_on,0,0,2,,,,,,,,,1,,,72,62
1228800,note_on,480,0,2,,,,,,,,,1,,,71,0
1229040,note_on,0,0,3,,,,,,,,,2,,,57,49
1229040,note_on,240,0,3,,,,,,,,,2,,,60,0
1229280,note_on,480,0,1,,,,,,,,,0,,,76,0
1229280,note_on,0,0,4,,,,,,,,,3,,,46,62
1229280,note_on,0,0,3,,,,,,,,,2,,,53,49
1229280,note_on,480,0,2,,,,,,,,,1,,,72,0
1229280,note_on,480,0,4,,,,,,,,,3,,,45,0
1229280,note_on,240,0,3,,,,,,,,,2,,,57,0
1229520,note_on,240,0,3,,,,,,,,,2,,,53,0
1229520,note_on,0,0,3,,,,,,,,,2,,,62,49
1229760,control_change,0,0,4,,,,,,,,,3,64,0,,
1229760,note_on,240,0,3,,,,,,,,,2,,,62,0
1229760,note_on,480,0,2,,,,,,,,,1,,,70,62
1229760,note_on,480,0,1,,,,,,,,,0,,,74,62
1229760,note_on,480,0,4,,,,,,,,,3,,,46,0
1229760,note_on,0,0,3,,,,,,,,,2,,,64,49
1229760,note_on,0,0,4,,,,,,,,,3,,,50,62
1230000,note_on,240,0,3,,,,,,,,,2,,,64,0
1230000,note_on,0,0,3,,,,,,,,,2,,,65,49
1230240,note_on,480,0,4,,,,,,,,,3,,,50,0
1230240,note_on,0,0,3,,,,,,,,,2,,,64,49
1230240,note_on,240,0,3,,,,,,,,,2,,,65,0
1230480,note_on,0,0,3,,,,,,,,,2,,,65,49
1230480,note_on,240,0,3,,,,,,,,,2,,,64,0
1230720,note_on,0,0,4,,,,,,,,,3,,,52,62
1230720,note_on,960,0,1,,,,,,,,,0,,,74,0
1230720,note_on,0,0,2,,,,,,,,,1,,,69,62
1230720,control_change,480,0,4,,,,,,,,,3,64,127,,
1230720,note_on,240,0,3,,,,,,,,,2,,,65,0
1230720,note_on,0,0,3,,,,,,,,,2,,,64,49
1230720,note_on,0,0,1,,,,,,,,,0,,,72,62
1230720,note_on,960,0,2,,,,,,,,,1,,,70,0
1230960,note_on,240,0,3,,,,,,,,,2,,,64,0
1230960,note_on,0,0,3,,,,,,,,,2,,,60,49
1231200,note_on,480,0,4,,,,,,,,,3,,,52,0
1231200,note_on,0,0,4,,,,,,,,,3,,,53,62
1231200,note_on,240,0,3,,,,,,,,,2,,,60,0
1231200,note_on,480,0,2,,,,,,,,,1,,,69,0
1231200,note_on,0,0,3,,,,,,,,,2,,,59,49
1231200,note_on,480,0,1,,,,,,,,,0,,,72,0
1231440,note_on,0,0,3,,,,,,,,,2,,,60,49
1231440,note_on,240,0,3,,,,,,,,,2,,,59,0
1231680,control_change,0,0,4,,,,,,,,,3,64,0,,
1231680,note_on,480,0,4,,,,,,,,,3,,,53,0
1231680,note_on,0,0,4,,,,,,,,,3,,,52,62
1231680,note_on,480,0,1,,,,,,,,,0,,,71,62
1231680,note_on,480,0,2,,,,,,,,,1,,,68,62
1231680,note_on,240,0,3,,,,,,,,,2,,,60,0
1231680,note_on,0,0,3,,,,,,,,,2,,,62,49
1231920,note_on,240,0,3,,,,,,,,,2,,,62,0
1231920,note_on,0,0,3,,,,,,,,,2,,,64,49
1232160,note_on,240,0,3,,,,,,,,,2,,,64,0
1232160,note_on,480,0,1,,,,,,,,,0,,,71,0
1232160,note_on,0,0,1,,,,,,,,,0,,,74,62
1232160,note_on,0,0,3,,,,,,,,,2,,,62,49
1232160,note_on,480,0,4,,,,,,,,,3,,,52,0
1232160,note_on,0,0,2,,,,,,,,,1,,,69,62
1232160,note_on,480,0,2,,,,,,,,,1,,,68,0
1232400,note_on,0,0,3,,,,,,,,,2,,,57,49
1232400,note_on,240,0,3,,,,,,,,,2,,,62,0
1232640,note_on,0,0,4,,,,,,,,,3,,,41,62
1232640,note_on,240,0,3,,,,,,,,,2,,,57,0
1232640,note_on,0,0,3,,,,,,,,,2,,,60,49
1232640,note_on,0,0,2,,,,,,,,,1,,,72,62
1232640,note_on,480,0,2,,,,,,,,,1,,,69,0
1232640,control_change,480,0,4,,,,,,,,,3,64,127,,
1232880,note_on,0,0,3,,,,,,,,,2,,,59,49
1232880,note_on,240,0,3,,,,,,,,,2,,,60,0
1233120,note_on,240,0,3,,,,,,,,,2,,,59,0
1233120,note_on,480,0,4,,,,,,,,,3,,,41,0
1233120,note_on,0,0,4,,,,,,,,,3,,,42,62
1233120,note_on,0,0,3,,,,,,,,,2,,,57,49
1233360,note_on,240,0,3,,,,,,,,,2,,,57,0
1233360,note_on,0,0,3,,,,,,,,,2,,,56,49
1233600,note_on,0,0,3,,,,,,,,,2,,,55,49
1233600,note_on,0,0,4,,,,,,,,,3,,,43,62
1233600,note_on,240,0,3,,,,,,,,,2,,,56,0
1233600,control_change,0,0,4,,,,,,,,,3,64,0,,
1233600,note_on,960,0,2,,,,,,,,,1,,,72,0
1233600,note_on,0,0,2,,,,,,,,,1,,,71,62
1233600,note_on,1440,0,1,,,,,,,,,0,,,74,0
1233600,note_on,480,0,4,,,,,,,,,3,,,42,0
1233600,note_on,0,0,1,,,,,,,,,0,,,75,62
1233840,note_on,240,0,2,,,,,,,,,1,,,71,0
1233840,note_on,240,0,3,,,,,,,,,2,,,55,0
1233840,note_on,0,0,3,,,,,,,,,2,,,57,49
1234080,note_on,480,0,4,,,,,,,,,3,,,43,0
1234080,note_on,0,0,1,,,,,,,,,0,,,76,75
1234080,note_on,480,0,1,,,,,,,,,0,,,75,0
1234080,note_on,0,0,3,,,,,,,,,2,,,59,62
1234080,note_on,240,0,3,,,,,,,,,2,,,57,0
1234320,note_on,0,0,3,,,,,,,,,2,,,60,62
1234320,note_on,240,0,3,,,,,,,,,2,,,59,0
1234560,note_on,240,0,3,,,,,,,,,2,,,60,0
1234560,note_on,0,0,4,,,,,,,,,3,,,43,75
1234560,control_change,480,0,4,,,,,,,,,3,64,127,,
1234560,note_on,0,0,3,,,,,,,,,2,,,62,62
1234560,control_change,720,0,2,,,,,,,,,1,64,127,,
1234560,note_on,0,0,2,,,,,,,,,1,,,71,75
1234800,note_on,240,0,3,,,,,,,,,2,,,62,0
1234800,note_on,0,0,3,,,,,,,,,2,,,60,62
1235040,note_on,0,0,2,,,,,,,,,1,,,74,75
1235040,note_on,480,0,4,,,,,,,,,3,,,43,0
1235040,note_on,0,0,4,,,,,,,,,3,,,44,75
1235040,note_on,0,0,3,,,,,,,,,2,,,59,62
1235040,note_on,240,0,3,,,,,,,,,2,,,60,0
1235040,note_on,480,0,2,,,,,,,,,1,,,71,0
1235280,note_on,0,0,3,,,,,,,,,2,,,58,62
1235280,note_on,240,0,3,,,,,,,,,2,,,59,0
1235520,note_on,0,0,2,,,,,,,,,1,,,73,75
1235520,note_on,0,0,4,,,,,,,,,3,,,45,75
1235520,note_on,480,0,4,,,,,,,,,3,,,44,0
1235520,note_on,1440,0,1,,,,,,,,,0,,,76,0
1235520,note_on,0,0,1,,,,,,,,,0,,,77,75
1235520,note_on,240,0,3,,,,,,,,,2,,,58,0
1235520,note_on,0,0,3,,,,,,,,,2,,,57,62
1235520,control_change,0,0,2,,,,,,,,,1,64,0,,
1235520,note_on,480,0,2,,,,,,,,,1,,,74,0
1235760,note_on,240,0,3,,,,,,,,,2,,,57,0
1235760,note_on,0,0,3,,,,,,,,,2,,,55,62
1236000,note_on,0,0,2,,,,,,,,,1,,,74,101
1236000,note_on,240,0,3,,,,,,,,,2,,,55,0
1236000,note_on,0,0,4,,,,,,,,,3,,,46,75
1236000,note_on,480,0,4,,,,,,,,,3,,,45,0
1236000,note_on,480,0,2,,,,,,,,,1,,,73,0
1236000,control_change,0,0,2,,,,,,,,,1,64,127,,
1236000,note_on,480,0,1,,,,,,,,,0,,,77,0
1236000,note_on,0,0,1,,,,,,,,,0,,,77,101
1236000,note_on,0,0,3,,,,,,,,,2,,,53,62
1236240,note_on,240,0,3,,,,,,,,,2,,,53,0
1236240,note_on,0,0,3,,,,,,,,,2,,,54,62
1236480,note_on,240,0,3,,,,,,,,,2,,,54,0
1236480,note_on,0,0,3,,,,,,,,,2,,,55,75
1236720,note_on,240,0,3,,,,,,,,,2,,,55,0
1236720,note_on,0,0,3,,,,,,,,,2,,,56,75
1236960,note_on,0,0,4,,,,,,,,,3,,,45,75
1236960,note_on,240,0,3,,,,,,,,,2,,,56,0
1236960,note_on,0,0,3,,,,,,,,,2,,,57,75
1236960,note_on,0,0,2,,,,,,,,,1,,,72,75
1236960,note_on,960,0,2,,,,,,,,,1,,,74,0
1236960,control_change,0,0,4,,,,,,,,,3,64,0,,
1236960,note_on,960,0,4,,,,,,,,,3,,,46,0
1237200,note_on,0,0,3,,,,,,,,,2,,,58,75
1237200,note_on,240,0,3,,,,,,,,,2,,,57,0
1237440,note_on,0,0,3,,,,,,,,,2,,,59,62
1237440,note_on,240,0,3,,,,,,,,,2,,,58,0
1237680,note_on,0,0,3,,,,,,,,,2,,,60,62
1237680,note_on,240,0,3,,,,,,,,,2,,,59,0
1237920,note_on,0,0,4,,,,,,,,,3,,,44,62
1237920,note_on,960,0,4,,,,,,,,,3,,,45,0
1237920,control_change,0,0,2,,,,,,,,,1,64,0,,
1237920,note_on,0,0,3,,,,,,,,,2,,,62,49
1237920,note_on,960,0,2,,,,,,,,,1,,,72,0
1237920,note_on,0,0,1,,,,,,,,,0,,,76,62
1237920,note_on,240,0,3,,,,,,,,,2,,,60,0
1237920,note_on,0,0,2,,,,,,,,,1,,,71,62
1237920,note_on,1920,0,1,,,,,,,,,0,,,77,0
1238160,note_on,0,0,3,,,,,,,,,2,,,52,49
1238160,note_on,240,0,3,,,,,,,,,2,,,62,0
1238400,note_on,240,0,3,,,,,,,,,2,,,52,0
1238400,note_on,0,0,3,,,,,,,,,2,,,59,49
1238640,note_on,0,0,3,,,,,,,,,2,,,62,49
1238640,note_on,240,0,3,,,,,,,,,2,,,59,0
1238880,note_on,240,0,3,,,,,,,,,2,,,62,0
1238880,note_on,0,0,2,,,,,,,,,1,,,72,62
1238880,control_change,0,0,2,,,,,,,,,1,64,127,,
1238880,note_on,960,0,2,,,,,,,,,1,,,71,0
1238880,note_on,0,0,3,,,,,,,,,2,,,60,49
1239120,note_on,240,0,3,,,,,,,,,2,,,60,0
1239120,note_on,0,0,3,,,,,,,,,2,,,52,49
1239360,note_on,240,0,3,,,,,,,,,2,,,52,0
1239360,note_on,0,0,3,,,,,,,,,2,,,59,49
1239360,note_on,1440,0,1,,,,,,,,,0,,,76,0
1239360,note_on,480,0,2,,,,,,,,,1,,,72,0
1239360,control_change,0,0,1,,,,,,,,,0,64,127,,
1239360,note_on,0,0,1,,,,,,,,,0,,,76,62
1239360,note_on,0,0,2,,,,,,,,,1,,,74,62
1239600,note_on,240,0,3,,,,,,,,,2,,,59,0
1239600,note_on,0,0,3,,,,,,,,,2,,,52,49
1239840,note_on,0,0,1,,,,,,,,,0,,,77,62
1239840,note_on,480,0,1,,,,,,,,,0,,,76,0
1239840,note_on,0,0,3,,,,,,,,,2,,,59,49
1239840,note_on,1920,0,4,,,,,,,,,3,,,44,0
1239840,set_tempo,76800,1,0,,,,,,312500,,,,,,,
1239840,note_on,480,0,2,,,,,,,,,1,,,74,0
1239840,note_on,0,0,2,,,,,,,,,1,,,71,62
1239840,note_on,240,0,3,,,,,,,,,2,,,52,0
1240080,note_on,0,0,3,,,,,,,,,2,,,62,49
1240080,note_on,240,0,3,,,,,,,,,2,,,59,0
1240320,note_on,0,0,3,,,,,,,,,2,,,60,49
1240320,note_on,0,0,2,,,,,,,,,1,,,72,62
1240320,note_on,240,0,3,,,,,,,,,2,,,62,0
1240320,note_on,0,0,1,,,,,,,,,0,,,76,62
1240320,control_change,0,0,1,,,,,,,,,0,64,0,,
1240320,note_on,480,0,1,,,,,,,,,0,,,77,0
1240320,note_on,480,0,2,,,,,,,,,1,,,71,0
1240320,control_change,480,0,4,,,,,,,,,3,64,127,,
1240320,note_on,0,0,4,,,,,,,,,3,,,45,62
1240320,control_change,0,0,2,,,,,,,,,1,64,0,,
1240560,note_on,240,0,3,,,,,,,,,2,,,60,0
1240560,note_on,0,0,3,,,,,,,,,2,,,57,49
1240800,note_on,480,0,4,,,,,,,,,3,,,45,0
1240800,note_on,0,0,4,,,,,,,,,3,,,46,62
1240800,note_on,240,0,3,,,,,,,,,2,,,57,0
1240800,note_on,0,0,3,,,,,,,,,2,,,53,49
1240800,note_on,480,0,1,,,,,,,,,0,,,76,0
1240800,note_on,480,0,2,,,,,,,,,1,,,72,0
1241040,note_on,240,0,3,,,,,,,,,2,,,53,0
1241040,note_on,0,0,3,,,,,,,,,2,,,62,49
1241280,note_on,480,0,2,,,,,,,,,1,,,70,62
1241280,note_on,480,0,4,,,,,,,,,3,,,46,0
1241280,control_change,0,0,4,,,,,,,,,3,64,0,,
1241280,note_on,0,0,4,,,,,,,,,3,,,50,62
1241280,note_on,480,0,1,,,,,,,,,0,,,74,62
1241280,note_on,240,0,3,,,,,,,,,2,,,62,0
1241280,note_on,0,0,3,,,,,,,,,2,,,64,49
1241520,note_on,240,0,3,,,,,,,,,2,,,64,0
1241520,note_on,0,0,3,,,,,,,,,2,,,65,49
1241760,note_on,480,0,4,,,,,,,,,3,,,50,0
1241760,note_on,240,0,3,,,,,,,,,2,,,65,0
1241760,note_on,0,0,3,,,,,,,,,2,,,64,49
1242000,note_on,240,0,3,,,,,,,,,2,,,64,0
1242000,note_on,0,0,3,,,,,,,,,2,,,65,49
1242240,control_change,480,0,4,,,,,,,,,3,64,127,,
1242240,note_on,0,0,3,,,,,,,,,2,,,64,49
1242240,note_on,0,0,1,,,,,,,,,0,,,72,62
1242240,note_on,0,0,2,,,,,,,,,1,,,69,62
1242240,note_on,960,0,2,,,,,,,,,1,,,70,0
1242240,note_on,960,0,1,,,,,,,,,0,,,74,0
1242240,note_on,0,0,4,,,,,,,,,3,,,52,62
1242240,note_on,240,0,3,,,,,,,,,2,,,65,0
1242480,note_on,0,0,3,,,,,,,,,2,,,60,49
1242480,note_on,240,0,3,,,,,,,,,2,,,64,0
1242720,note_on,0,0,3,,,,,,,,,2,,,59,49
1242720,note_on,480,0,4,,,,,,,,,3,,,52,0
1242720,note_on,480,0,1,,,,,,,,,0,,,72,0
1242720,note_on,240,0,3,,,,,,,,,2,,,60,0
1242720,note_on,480,0,2,,,,,,,,,1,,,69,0
1242720,note_on,0,0,4,,,,,,,,,3,,,53,62
1242960,note_on,0,0,3,,,,,,,,,2,,,60,49
1242960,note_on,240,0,3,,,,,,,,,2,,,59,0
1243200,note_on,480,0,2,,,,,,,,,1,,,68,62
1243200,note_on,0,0,4,,,,,,,,,3,,,52,62
1243200,control_change,0,0,4,,,,,,,,,3,64,0,,
1243200,note_on,240,0,3,,,,,,,,,2,,,60,0
1243200,note_on,480,0,1,,,,,,,,,0,,,71,62
1243200,note_on,480,0,4,,,,,,,,,3,,,53,0
1243200,note_on,0,0,3,,,,,,,,,2,,,62,49
1243440,note_on,0,0,3,,,,,,,,,2,,,64,49
1243440,note_on,240,0,3,,,,,,,,,2,,,62,0
1243680,note_on,480,0,4,,,,,,,,,3,,,52,0
1243680,note_on,240,0,3,,,,,,,,,2,,,64,0
1243680,note_on,480,0,1,,,,,,,,,0,,,71,0
1243680,set_tempo,3840,1,0,,,,,,270270,,,,,,,
1243680,note_on,480,0,2,,,,,,,,,1,,,68,0
1245120,note_on,0,0,2,,,,,,,,,1,,,76,101
1245120,note_on,0,0,2,,,,,,,,,1,,,72,101
1245120,note_on,0,0,2,,,,,,,,,1,,,81,101
1245120,note_on,0,0,1,,,,,,,,,0,,,93,101
1245120,note_on,1440,0,1,,,,,,,,,0,,,84,101
1245120,note_on,0,0,1,,,,,,,,,0,,,88,101
1245120,note_on,1440,0,2,,,,,,,,,1,,,69,101
1245360,note_on,0,0,1,,,,,,,,,0,,,93,101
1245360,note_on,0,0,1,,,,,,,,,0,,,84,101
1245360,note_on,0,0,1,,,,,,,,,0,,,84,0
1245360,note_on,0,0,1,,,,,,,,,0,,,88,0
1245360,note_on,0,0,1,,,,,,,,,0,,,88,101
1245360,note_on,240,0,2,,,,,,,,,1,,,81,0
1245360,note_on,0,0,2,,,,,,,,,1,,,72,0
1245360,note_on,0,0,2,,,,,,,,,1,,,81,101
1245360,note_on,0,0,2,,,,,,,,,1,,,76,101
1245360,note_on,0,0,2,,,,,,,,,1,,,69,0
1245360,note_on,0,0,2,,,,,,,,,1,,,72,101
1245360,note_on,0,0,2,,,,,,,,,1,,,69,101
1245360,note_on,0,0,2,,,,,,,,,1,,,76,0
1245360,note_on,240,0,1,,,,,,,,,0,,,93,0
1245600,note_on,0,0,1,,,,,,,,,0,,,88,127
1245600,note_on,0,0,1,,,,,,,,,0,,,84,127
1245600,note_on,0,0,1,,,,,,,,,0,,,84,0
1245600,note_on,0,0,1,,,,,,,,,0,,,88,0
1245600,note_on,240,0,1,,,,,,,,,0,,,93,0
1245600,note_on,0,0,2,,,,,,,,,1,,,69,127
1245600,note_on,240,0,2,,,,,,,,,1,,,81,0
1245600,note_on,0,0,2,,,,,,,,,1,,,69,0
1245600,note_on,0,0,2,,,,,,,,,1,,,72,0
1245600,note_on,0,0,2,,,,,,,,,1,,,81,127
1245600,note_on,0,0,2,,,,,,,,,1,,,76,127
1245600,note_on,0,0,2,,,,,,,,,1,,,72,127
1245600,note_on,0,0,1,,,,,,,,,0,,,93,127
1245600,note_on,0,0,2,,,,,,,,,1,,,76,0
1246080,note_on,2400,0,4,,,,,,,,,3,,,33,101
1246080,note_on,2400,0,3,,,,,,,,,2,,,45,101
1246320,note_on,240,0,3,,,,,,,,,2,,,45,0
1246320,note_on,240,0,4,,,,,,,,,3,,,33,0
1246320,note_on,0,0,4,,,,,,,,,3,,,33,101
1246320,note_on,0,0,3,,,,,,,,,2,,,45,101
1246560,note_on,240,0,3,,,,,,,,,2,,,45,0
1246560,note_on,0,0,3,,,,,,,,,2,,,45,101
1246560,note_on,0,0,4,,,,,,,,,3,,,33,101
1246560,note_on,240,0,4,,,,,,,,,3,,,33,0
1247040,note_on,0,0,1,,,,,,,,,0,,,84,0
1247040,note_on,0,0,1,,,,,,,,,0,,,81,101
1247040,note_on,0,0,1,,,,,,,,,0,,,84,101
1247040,note_on,0,0,1,,,,,,,,,0,,,88,0
1247040,note_on,0,0,1,,,,,,,,,0,,,88,101
1247040,note_on,1440,0,2,,,,,,,,,1,,,81,0
1247040,note_on,0,0,2,,,,,,,,,1,,,76,101
1247040,note_on,0,0,2,,,,,,,,,1,,,69,0
1247040,note_on,1440,0,1,,,,,,,,,0,,,93,0
1247040,note_on,0,0,2,,,,,,,,,1,,,72,0
1247040,note_on,0,0,2,,,,,,,,,1,,,76,0
1247040,note_on,0,0,2,,,,,,,,,1,,,69,101
1247040,note_on,0,0,2,,,,,,,,,1,,,72,101
1247280,note_on,240,0,2,,,,,,,,,1,,,76,0
1247280,note_on,0,0,2,,,,,,,,,1,,,69,101
1247280,note_on,0,0,1,,,,,,,,,0,,,84,0
1247280,note_on,0,0,2,,,,,,,,,1,,,72,0
1247280,note_on,0,0,1,,,,,,,,,0,,,81,0
1247280,note_on,0,0,1,,,,,,,,,0,,,81,101
1247280,note_on,0,0,1,,,,,,,,,0,,,84,101
1247280,note_on,0,0,1,,,,,,,,,0,,,88,101
1247280,note_on,0,0,2,,,,,,,,,1,,,69,0
1247280,note_on,0,0,2,,,,,,,,,1,,,76,101
1247280,note_on,240,0,1,,,,,,,,,0,,,88,0
1247280,note_on,0,0,2,,,,,,,,,1,,,72,101
1247520,note_on,0,0,2,,,,,,,,,1,,,69,127
1247520,note_on,0,0,2,,,,,,,,,1,,,72,127
1247520,note_on,0,0,2,,,,,,,,,1,,,76,127
1247520,note_on,0,0,2,,,,,,,,,1,,,69,0
1247520,note_on,0,0,2,,,,,,,,,1,,,72,0
1247520,note_on,0,0,1,,,,,,,,,0,,,84,0
1247520,note_on,240,0,1,,,,,,,,,0,,,88,0
1247520,note_on,0,0,1,,,,,,,,,0,,,81,0
1247520,note_on,0,0,1,,,,,,,,,0,,,81,127
1247520,note_on,0,0,1,,,,,,,,,0,,,84,127
1247520,note_on,0,0,1,,,,,,,,,0,,,88,127
1247520,note_on,240,0,2,,,,,,,,,1,,,76,0
1248000,note_on,0,0,2,,,,,,,,,1,,,69,101
1248000,note_on,480,0,2,,,,,,,,,1,,,76,0
1248000,note_on,0,0,2,,,,,,,,,1,,,72,0
1248000,note_on,0,0,2,,,,,,,,,1,,,69,0
1248000,note_on,0,0,2,,,,,,,,,1,,,64,101
1248000,note_on,0,0,2,,,,,,,,,1,,,72,101
1248000,note_on,0,0,1,,,,,,,,,0,,,81,101
1248000,note_on,1440,0,3,,,,,,,,,2,,,45,0
1248000,note_on,0,0,1,,,,,,,,,0,,,84,0
1248000,note_on,0,0,1,,,,,,,,,0,,,81,0
1248000,note_on,0,0,1,,,,,,,,,0,,,76,101
1248000,note_on,480,0,1,,,,,,,,,0,,,88,0
1248000,note_on,0,0,4,,,,,,,,,3,,,33,101
1248000,note_on,0,0,3,,,,,,,,,2,,,45,101
1248000,note_on,0,0,1,,,,,,,,,0,,,84,101
1248000,note_on,1440,0,4,,,,,,,,,3,,,33,0
1248240,note_on,0,0,1,,,,,,,,,0,,,76,101
1248240,note_on,0,0,1,,,,,,,,,0,,,76,0
1248240,note_on,0,0,1,,,,,,,,,0,,,81,0
1248240,note_on,0,0,1,,,,,,,,,0,,,84,101
1248240,note_on,0,0,3,,,,,,,,,2,,,45,101
1248240,note_on,240,0,3,,,,,,,,,2,,,45,0
1248240,note_on,240,0,1,,,,,,,,,0,,,84,0
1248240,note_on,0,0,1,,,,,,,,,0,,,81,101
1248240,note_on,240,0,2,,,,,,,,,1,,,72,0
1248240,note_on,0,0,4,,,,,,,,,3,,,33,101
1248240,note_on,240,0,4,,,,,,,,,3,,,33,0
1248240,note_on,0,0,2,,,,,,,,,1,,,72,101
1248240,note_on,0,0,2,,,,,,,,,1,,,69,101
1248240,note_on,0,0,2,,,,,,,,,1,,,64,101
1248240,note_on,0,0,2,,,,,,,,,1,,,64,0
1248240,note_on,0,0,2,,,,,,,,,1,,,69,0
1248480,note_on,240,0,1,,,,,,,,,0,,,84,0
1248480,note_on,0,0,1,,,,,,,,,0,,,81,0
1248480,note_on,0,0,1,,,,,,,,,0,,,76,0
1248480,note_on,0,0,1,,,,,,,,,0,,,76,127
1248480,note_on,0,0,1,,,,,,,,,0,,,81,127
1248480,note_on,0,0,1,,,,,,,,,0,,,84,127
1248480,note_on,0,0,2,,,,,,,,,1,,,69,0
1248480,note_on,0,0,2,,,,,,,,,1,,,64,0
1248480,note_on,0,0,3,,,,,,,,,2,,,48,101
1248480,note_on,240,0,3,,,,,,,,,2,,,45,0
1248480,note_on,0,0,4,,,,,,,,,3,,,36,101
1248480,note_on,240,0,4,,,,,,,,,3,,,33,0
1248480,note_on,0,0,2,,,,,,,,,1,,,72,127
1248480,note_on,0,0,2,,,,,,,,,1,,,69,127
1248480,note_on,0,0,2,,,,,,,,,1,,,64,127
1248480,note_on,240,0,2,,,,,,,,,1,,,72,0
1248527,note_on,47,0,4,,,,,,,,,3,,,36,0
1248527,note_on,47,0,3,,,,,,,,,2,,,48,0
1248960,note_on,0,0,1,,,,,,,,,0,,,76,0
1248960,note_on,0,0,1,,,,,,,,,0,,,81,0
1248960,note_on,480,0,1,,,,,,,,,0,,,84,0
1248960,note_on,0,0,1,,,,,,,,,0,,,81,101
1248960,note_on,433,0,4,,,,,,,,,3,,,40,101
1248960,note_on,433,0,3,,,,,,,,,2,,,52,101
1248960,note_on,0,0,1,,,,,,,,,0,,,72,101
1248960,note_on,0,0,1,,,,,,,,,0,,,76,101
1248960,note_on,480,0,2,,,,,,,,,1,,,72,0
1248960,note_on,0,0,2,,,,,,,,,1,,,69,0
1248960,note_on,0,0,2,,,,,,,,,1,,,64,0
1248960,note_on,0,0,2,,,,,,,,,1,,,60,101
1248960,note_on,0,0,2,,,,,,,,,1,,,64,101
1248960,note_on,0,0,2,,,,,,,,,1,,,69,101
1249007,note_on,47,0,3,,,,,,,,,2,,,52,0
1249007,note_on,47,0,4,,,,,,,,,3,,,40,0
1249200,note_on,0,0,2,,,,,,,,,1,,,64,101
1249200,note_on,240,0,1,,,,,,,,,0,,,81,0
1249200,note_on,0,0,1,,,,,,,,,0,,,72,0
1249200,note_on,0,0,1,,,,,,,,,0,,,72,101
1249200,note_on,0,0,1,,,,,,,,,0,,,76,101
1249200,note_on,0,0,1,,,,,,,,,0,,,76,0
1249200,note_on,0,0,2,,,,,,,,,1,,,60,101
1249200,note_on,0,0,2,,,,,,,,,1,,,60,0
1249200,note_on,0,0,2,,,,,,,,,1,,,69,101
1249200,note_on,0,0,2,,,,,,,,,1,,,64,0
1249200,note_on,240,0,2,,,,,,,,,1,,,69,0
1249200,note_on,0,0,1,,,,,,,,,0,,,81,101
1249440,note_on,433,0,4,,,,,,,,,3,,,45,101
1249440,note_on,0,0,2,,,,,,,,,1,,,60,127
1249440,note_on,240,0,2,,,,,,,,,1,,,69,0
1249440,note_on,0,0,2,,,,,,,,,1,,,60,0
1249440,note_on,240,0,1,,,,,,,,,0,,,81,0
1249440,note_on,0,0,1,,,,,,,,,0,,,76,0
1249440,note_on,0,0,1,,,,,,,,,0,,,72,0
1249440,note_on,0,0,2,,,,,,,,,1,,,64,0
1249440,note_on,0,0,1,,,,,,,,,0,,,76,127
1249440,note_on,0,0,1,,,,,,,,,0,,,81,127
1249440,note_on,0,0,2,,,,,,,,,1,,,69,127
1249440,note_on,0,0,2,,,,,,,,,1,,,64,127
1249440,note_on,433,0,3,,,,,,,,,2,,,57,101
1249440,note_on,0,0,1,,,,,,,,,0,,,72,127
1249920,note_on,480,0,1,,,,,,,,,0,,,81,0
1249920,note_on,0,0,1,,,,,,,,,0,,,76,0
1249920,note_on,0,0,1,,,,,,,,,0,,,72,0
1249920,note_on,0,0,1,,,,,,,,,0,,,73,101
1249920,note_on,0,0,1,,,,,,,,,0,,,79,101
1249920,note_on,480,0,2,,,,,,,,,1,,,69,0
1249920,note_on,0,0,2,,,,,,,,,1,,,64,0
1249920,note_on,0,0,2,,,,,,,,,1,,,60,0
1249920,note_on,0,0,2,,,,,,,,,1,,,61,101
1249920,note_on,0,0,2,,,,,,,,,1,,,64,101
1249920,note_on,0,0,2,,,,,,,,,1,,,67,101
1249920,note_on,0,0,1,,,,,,,,,0,,,76,101
1249920,note_on,480,0,4,,,,,,,,,3,,,45,0
1249920,note_on,0,0,4,,,,,,,,,3,,,33,101
1249920,note_on,480,0,3,,,,,,,,,2,,,57,0
1249920,note_on,0,0,3,,,,,,,,,2,,,45,101
1250160,note_on,0,0,3,,,,,,,,,2,,,45,101
1250160,note_on,240,0,3,,,,,,,,,2,,,45,0
1250160,note_on,240,0,4,,,,,,,,,3,,,33,0
1250160,note_on,0,0,4,,,,,,,,,3,,,33,101
1250400,note_on,480,0,1,,,,,,,,,0,,,79,0
1250400,note_on,0,0,1,,,,,,,,,0,,,76,0
1250400,note_on,0,0,1,,,,,,,,,0,,,73,0
1250400,note_on,240,0,4,,,,,,,,,3,,,33,0
1250400,note_on,0,0,4,,,,,,,,,3,,,33,127
1250400,note_on,0,0,3,,,,,,,,,2,,,45,127
1250400,note_on,0,0,2,,,,,,,,,1,,,61,0
1250400,note_on,480,0,2,,,,,,,,,1,,,67,0
1250400,note_on,240,0,3,,,,,,,,,2,,,45,0
1250400,note_on,0,0,2,,,,,,,,,1,,,64,0
1250880,note_on,480,0,1,,,,,,,,,0,,,73,101
1250880,note_on,480,0,3,,,,,,,,,2,,,45,0
1250880,note_on,480,0,2,,,,,,,,,1,,,61,101
1250880,note_on,0,0,3,,,,,,,,,2,,,45,101
1250880,note_on,0,0,2,,,,,,,,,1,,,67,101
1250880,note_on,0,0,4,,,,,,,,,3,,,33,101
1250880,note_on,0,0,1,,,,,,,,,0,,,76,101
1250880,note_on,480,0,4,,,,,,,,,3,,,33,0
1250880,note_on,0,0,2,,,,,,,,,1,,,64,101
1250880,note_on,0,0,1,,,,,,,,,0,,,79,101
1251120,note_on,0,0,2,,,,,,,,,1,,,61,0
1251120,note_on,0,0,2,,,,,,,,,1,,,61,101
1251120,note_on,0,0,2,,,,,,,,,1,,,64,101
1251120,note_on,0,0,2,,,,,,,,,1,,,67,101
1251120,note_on,0,0,2,,,,,,,,,1,,,64,0
1251120,note_on,0,0,1,,,,,,,,,0,,,76,0
1251120,note_on,0,0,1,,,,,,,,,0,,,73,0
1251120,note_on,0,0,1,,,,,,,,,0,,,73,101
1251120,note_on,240,0,2,,,,,,,,,1,,,67,0
1251120,note_on,0,0,1,,,,,,,,,0,,,76,101
1251120,note_on,0,0,1,,,,,,,,,0,,,79,101
1251120,note_on,240,0,1,,,,,,,,,0,,,79,0
1251360,note_on,480,0,3,,,,,,,,,2,,,45,0
1251360,note_on,0,0,1,,,,,,,,,0,,,79,127
1251360,note_on,0,0,1,,,,,,,,,0,,,76,127
1251360,note_on,0,0,1,,,,,,,,,0,,,73,127
1251360,note_on,0,0,1,,,,,,,,,0,,,73,0
1251360,note_on,480,0,4,,,,,,,,,3,,,33,0
1251360,note_on,240,0,2,,,,,,,,,1,,,67,0
1251360,note_on,0,0,2,,,,,,,,,1,,,64,0
1251360,note_on,0,0,2,,,,,,,,,1,,,61,0
1251360,note_on,0,0,2,,,,,,,,,1,,,61,127
1251360,note_on,0,0,2,,,,,,,,,1,,,64,127
1251360,note_on,0,0,2,,,,,,,,,1,,,67,127
1251360,note_on,0,0,1,,,,,,,,,0,,,76,0
1251360,note_on,240,0,1,,,,,,,,,0,,,79,0
1251840,note_on,480,0,1,,,,,,,,,0,,,79,0
1251840,note_on,0,0,1,,,,,,,,,0,,,76,0
1251840,note_on,0,0,1,,,,,,,,,0,,,77,101
1251840,note_on,0,0,1,,,,,,,,,0,,,73,0
1251840,note_on,480,0,3,,,,,,,,,2,,,45,101
1251840,note_on,480,0,4,,,,,,,,,3,,,33,101
1251840,note_on,0,0,1,,,,,,,,,0,,,74,101
1251840,note_on,480,0,2,,,,,,,,,1,,,67,0
1251840,note_on,0,0,2,,,,,,,,,1,,,64,0
1251840,note_on,0,0,2,,,,,,,,,1,,,61,0
1251840,note_on,0,0,2,,,,,,,,,1,,,62,101
1251840,note_on,0,0,2,,,,,,,,,1,,,65,101
1252080,note_on,0,0,4,,,,,,,,,3,,,33,101
1252080,note_on,240,0,3,,,,,,,,,2,,,45,0
1252080,note_on,0,0,3,,,,,,,,,2,,,45,101
1252080,note_on,240,0,4,,,,,,,,,3,,,33,0
1252320,note_on,480,0,1,,,,,,,,,0,,,77,0
1252320,note_on,0,0,1,,,,,,,,,0,,,74,0
1252320,note_on,0,0,3,,,,,,,,,2,,,45,127
1252320,note_on,240,0,3,,,,,,,,,2,,,45,0
1252320,note_on,480,0,2,,,,,,,,,1,,,65,0
1252320,note_on,240,0,4,,,,,,,,,3,,,33,0
1252320,note_on,0,0,4,,,,,,,,,3,,,33,127
1252320,note_on,0,0,2,,,,,,,,,1,,,62,0
1252800,note_on,0,0,4,,,,,,,,,3,,,34,101
1252800,note_on,0,0,1,,,,,,,,,0,,,77,101
1252800,note_on,480,0,1,,,,,,,,,0,,,74,101
1252800,note_on,480,0,2,,,,,,,,,1,,,72,88
1252800,note_on,480,0,3,,,,,,,,,2,,,45,0
1252800,note_on,0,0,3,,,,,,,,,2,,,46,101
1252800,note_on,480,0,4,,,,,,,,,3,,,33,0
1252823,note_on,23,0,2,,,,,,,,,1,,,72,0
1253040,note_on,217,0,2,,,,,,,,,1,,,70,88
1253040,note_on,0,0,1,,,,,,,,,0,,,77,101
1253040,note_on,0,0,1,,,,,,,,,0,,,74,101
1253040,note_on,0,0,1,,,,,,,,,0,,,74,0
1253040,note_on,240,0,1,,,,,,,,,0,,,77,0
1253063,note_on,23,0,2,,,,,,,,,1,,,70,0
1253280,note_on,480,0,4,,,,,,,,,3,,,34,0
1253280,note_on,480,0,3,,,,,,,,,2,,,46,0
1253280,note_on,0,0,1,,,,,,,,,0,,,75,101
1253280,note_on,0,0,1,,,,,,,,,0,,,77,101
1253280,note_on,217,0,2,,,,,,,,,1,,,69,88
1253280,note_on,0,0,1,,,,,,,,,0,,,74,0
1253280,note_on,240,0,1,,,,,,,,,0,,,77,0
1253327,note_on,47,0,2,,,,,,,,,1,,,69,0
1253327,note_on,47,0,1,,,,,,,,,0,,,77,0
1253327,note_on,0,0,1,,,,,,,,,0,,,75,0
1253760,note_on,433,0,1,,,,,,,,,0,,,75,101
1253760,note_on,0,0,1,,,,,,,,,0,,,77,101
1253760,note_on,480,0,4,,,,,,,,,3,,,36,101
1253760,note_on,480,0,3,,,,,,,,,2,,,48,101
1253760,note_on,433,0,2,,,,,,,,,1,,,69,88
1253807,note_on,47,0,1,,,,,,,,,0,,,77,0
1253807,note_on,0,0,1,,,,,,,,,0,,,75,0
1253807,note_on,47,0,2,,,,,,,,,1,,,69,0
1254000,note_on,240,0,4,,,,,,,,,3,,,36,0
1254000,note_on,240,0,3,,,,,,,,,2,,,48,0
1254000,note_on,0,0,3,,,,,,,,,2,,,48,101
1254000,note_on,0,0,4,,,,,,,,,3,,,36,101
1254240,note_on,0,0,4,,,,,,,,,3,,,36,101
1254240,note_on,0,0,3,,,,,,,,,2,,,48,101
1254240,note_on,240,0,3,,,,,,,,,2,,,48,0
1254240,note_on,433,0,2,,,,,,,,,1,,,69,88
1254240,note_on,0,0,1,,,,,,,,,0,,,77,101
1254240,note_on,433,0,1,,,,,,,,,0,,,75,101
1254240,note_on,240,0,4,,,,,,,,,3,,,36,0
1254287,note_on,47,0,2,,,,,,,,,1,,,69,0
1254287,note_on,0,0,1,,,,,,,,,0,,,75,0
1254287,note_on,47,0,1,,,,,,,,,0,,,77,0
1254720,note_on,0,0,3,,,,,,,,,2,,,48,101
1254720,note_on,0,0,4,,,,,,,,,3,,,36,101
1254720,note_on,480,0,4,,,,,,,,,3,,,36,0
1254720,note_on,433,0,2,,,,,,,,,1,,,69,88
1254720,note_on,480,0,3,,,,,,,,,2,,,48,0
1254720,note_on,433,0,1,,,,,,,,,0,,,75,101
1254720,note_on,0,0,1,,,,,,,,,0,,,78,101
1254767,note_on,47,0,2,,,,,,,,,1,,,69,0
1254767,note_on,47,0,1,,,,,,,,,0,,,78,0
1254767,note_on,0,0,1,,,,,,,,,0,,,75,0
1255200,note_on,480,0,3,,,,,,,,,2,,,48,0
1255200,note_on,433,0,2,,,,,,,,,1,,,69,114
1255200,note_on,0,0,3,,,,,,,,,2,,,48,127
1255200,note_on,433,0,1,,,,,,,,,0,,,75,127
1255200,note_on,0,0,1,,,,,,,,,0,,,78,127
1255200,note_on,0,0,4,,,,,,,,,3,,,36,127
1255200,note_on,480,0,4,,,,,,,,,3,,,36,0
1255680,note_on,480,0,4,,,,,,,,,3,,,36,0
1255680,note_on,480,0,1,,,,,,,,,0,,,78,0
1255680,note_on,0,0,1,,,,,,,,,0,,,75,0
1255680,note_on,480,0,2,,,,,,,,,1,,,69,0
1255680,note_on,0,0,2,,,,,,,,,1,,,70,88
1255680,note_on,0,0,1,,,,,,,,,0,,,73,101
1255680,note_on,0,0,3,,,,,,,,,2,,,49,101
1255680,note_on,480,0,3,,,,,,,,,2,,,48,0
1255680,note_on,0,0,4,,,,,,,,,3,,,37,101
1255680,note_on,0,0,1,,,,,,,,,0,,,77,101
1255920,note_on,0,0,4,,,,,,,,,3,,,37,101
1255920,note_on,240,0,3,,,,,,,,,2,,,49,0
1255920,note_on,240,0,4,,,,,,,,,3,,,37,0
1255920,note_on,0,0,3,,,,,,,,,2,,,49,101
1256160,note_on,0,0,1,,,,,,,,,0,,,73,0
1256160,note_on,480,0,2,,,,,,,,,1,,,70,0
1256160,note_on,240,0,3,,,,,,,,,2,,,49,0
1256160,note_on,0,0,3,,,,,,,,,2,,,53,101
1256160,note_on,480,0,1,,,,,,,,,0,,,77,0
1256160,note_on,240,0,4,,,,,,,,,3,,,37,0
1256160,note_on,0,0,4,,,,,,,,,3,,,41,101
1256640,note_on,0,0,1,,,,,,,,,0,,,94,101
1256640,note_on,480,0,1,,,,,,,,,0,,,85,101
1256640,note_on,480,0,3,,,,,,,,,2,,,53,0
1256640,note_on,0,0,4,,,,,,,,,3,,,46,101
1256640,note_on,0,0,3,,,,,,,,,2,,,58,101
1256640,note_on,480,0,2,,,,,,,,,1,,,73,101
1256640,note_on,0,0,2,,,,,,,,,1,,,77,101
1256640,note_on,0,0,2,,,,,,,,,1,,,82,101
1256640,note_on,480,0,4,,,,,,,,,3,,,41,0
1256640,note_on,0,0,1,,,,,,,,,0,,,89,101
1256880,note_on,0,0,2,,,,,,,,,1,,,82,101
1256880,note_on,0,0,2,,,,,,,,,1,,,77,0
1256880,note_on,0,0,1,,,,,,,,,0,,,85,0
1256880,note_on,0,0,1,,,,,,,,,0,,,85,101
1256880,note_on,0,0,1,,,,,,,,,0,,,89,101
1256880,note_on,0,0,1,,,,,,,,,0,,,94,101
1256880,note_on,0,0,1,,,,,,,,,0,,,89,0
1256880,note_on,240,0,2,,,,,,,,,1,,,82,0
1256880,note_on,240,0,1,,,,,,,,,0,,,94,0
1256880,note_on,0,0,2,,,,,,,,,1,,,73,0
1256880,note_on,0,0,2,,,,,,,,,1,,,73,101
1256880,note_on,0,0,2,,,,,,,,,1,,,77,101
1257120,note_on,480,0,3,,,,,,,,,2,,,58,0
1257120,note_on,240,0,1,,,,,,,,,0,,,94,0
1257120,note_on,0,0,1,,,,,,,,,0,,,89,0
1257120,note_on,0,0,1,,,,,,,,,0,,,85,0
1257120,note_on,0,0,1,,,,,,,,,0,,,85,127
1257120,note_on,0,0,1,,,,,,,,,0,,,89,127
1257120,note_on,0,0,2,,,,,,,,,1,,,77,0
1257120,note_on,0,0,2,,,,,,,,,1,,,73,0
1257120,note_on,0,0,4,,,,,,,,,3,,,49,101
1257120,note_on,240,0,2,,,,,,,,,1,,,82,0
1257120,note_on,0,0,3,,,,,,,,,2,,,61,101
1257120,note_on,0,0,2,,,,,,,,,1,,,82,127
1257120,note_on,0,0,2,,,,,,,,,1,,,77,127
1257120,note_on,0,0,2,,,,,,,,,1,,,73,127
1257120,note_on,480,0,4,,,,,,,,,3,,,46,0
1257120,note_on,0,0,1,,,,,,,,,0,,,94,127
1257600,note_on,480,0,4,,,,,,,,,3,,,49,0
1257600,note_on,0,0,3,,,,,,,,,2,,,46,101
1257600,note_on,480,0,3,,,,,,,,,2,,,61,0
1257600,note_on,0,0,4,,,,,,,,,3,,,34,101
1257840,note_on,240,0,3,,,,,,,,,2,,,46,0
1257840,note_on,0,0,3,,,,,,,,,2,,,46,101
1257840,note_on,0,0,4,,,,,,,,,3,,,34,101
1257840,note_on,240,0,4,,,,,,,,,3,,,34,0
1258080,note_on,240,0,4,,,,,,,,,3,,,34,0
1258080,note_on,240,0,3,,,,,,,,,2,,,46,0
1258080,note_on,0,0,3,,,,,,,,,2,,,46,101
1258080,note_on,0,0,4,,,,,,,,,3,,,34,101
1258560,note_on,0,0,1,,,,,,,,,0,,,82,101
1258560,note_on,0,0,1,,,,,,,,,0,,,85,101
1258560,note_on,0,0,2,,,,,,,,,1,,,77,101
1258560,note_on,0,0,2,,,,,,,,,1,,,70,101
1258560,note_on,0,0,1,,,,,,,,,0,,,85,0
1258560,note_on,0,0,1,,,,,,,,,0,,,89,101
1258560,note_on,1440,0,2,,,,,,,,,1,,,82,0
1258560,note_on,0,0,2,,,,,,,,,1,,,73,0
1258560,note_on,0,0,1,,,,,,,,,0,,,89,0
1258560,note_on,0,0,2,,,,,,,,,1,,,73,101
1258560,note_on,0,0,2,,,,,,,,,1,,,77,0
1258560,note_on,1440,0,1,,,,,,,,,0,,,94,0
1258800,note_on,240,0,1,,,,,,,,,0,,,89,0
1258800,note_on,0,0,1,,,,,,,,,0,,,85,0
1258800,note_on,0,0,1,,,,,,,,,0,,,82,0
1258800,note_on,0,0,1,,,,,,,,,0,,,82,101
1258800,note_on,0,0,1,,,,,,,,,0,,,85,101
1258800,note_on,0,0,1,,,,,,,,,0,,,89,101
1258800,note_on,0,0,2,,,,,,,,,1,,,73,0
1258800,note_on,240,0,2,,,,,,,,,1,,,77,0
1258800,note_on,0,0,2,,,,,,,,,1,,,70,0
1258800,note_on,0,0,2,,,,,,,,,1,,,70,101
1258800,note_on,0,0,2,,,,,,,,,1,,,73,101
1258800,note_on,0,0,2,,,,,,,,,1,,,77,101
1259040,note_on,0,0,2,,,,,,,,,1,,,77,127
1259040,note_on,0,0,2,,,,,,,,,1,,,73,127
1259040,note_on,0,0,2,,,,,,,,,1,,,73,0
1259040,note_on,0,0,2,,,,,,,,,1,,,70,0
1259040,note_on,240,0,1,,,,,,,,,0,,,89,0
1259040,note_on,240,0,2,,,,,,,,,1,,,77,0
1259040,note_on,0,0,1,,,,,,,,,0,,,82,0
1259040,note_on,0,0,1,,,,,,,,,0,,,82,127
1259040,note_on,0,0,1,,,,,,,,,0,,,85,127
1259040,note_on,0,0,2,,,,,,,,,1,,,70,127
1259040,note_on,0,0,1,,,,,,,,,0,,,89,127
1259040,note_on,0,0,1,,,,,,,,,0,,,85,0
1259520,note_on,480,0,1,,,,,,,,,0,,,89,0
1259520,note_on,0,0,1,,,,,,,,,0,,,85,0
1259520,note_on,0,0,1,,,,,,,,,0,,,82,0
1259520,note_on,0,0,1,,,,,,,,,0,,,77,101
1259520,note_on,0,0,2,,,,,,,,,1,,,70,0
1259520,note_on,0,0,1,,,,,,,,,0,,,85,101
1259520,note_on,0,0,3,,,,,,,,,2,,,46,101
1259520,note_on,0,0,2,,,,,,,,,1,,,73,0
1259520,note_on,0,0,2,,,,,,,,,1,,,65,101
1259520,note_on,0,0,2,,,,,,,,,1,,,70,101
1259520,note_on,0,0,2,,,,,,,,,1,,,73,101
1259520,note_on,480,0,2,,,,,,,,,1,,,77,0
1259520,note_on,0,0,1,,,,,,,,,0,,,82,101
1259520,note_on,1440,0,3,,,,,,,,,2,,,46,0
1259520,note_on,1440,0,4,,,,,,,,,3,,,34,0
1259520,note_on,0,0,4,,,,,,,,,3,,,34,101
1259760,note_on,0,0,2,,,,,,,,,1,,,65,0
1259760,note_on,240,0,1,,,,,,,,,0,,,85,0
1259760,note_on,0,0,1,,,,,,,,,0,,,85,101
1259760,note_on,0,0,1,,,,,,,,,0,,,82,101
1259760,note_on,0,0,1,,,,,,,,,0,,,77,101
1259760,note_on,0,0,1,,,,,,,,,0,,,77,0
1259760,note_on,0,0,1,,,,,,,,,0,,,82,0
1259760,note_on,0,0,2,,,,,,,,,1,,,65,101
1259760,note_on,0,0,2,,,,,,,,,1,,,70,101
1259760,note_on,240,0,3,,,,,,,,,2,,,46,0
1259760,note_on,0,0,3,,,,,,,,,2,,,46,101
1259760,note_on,0,0,2,,,,,,,,,1,,,73,101
1259760,note_on,0,0,4,,,,,,,,,3,,,34,101
1259760,note_on,240,0,4,,,,,,,,,3,,,34,0
1259760,note_on,0,0,2,,,,,,,,,1,,,70,0
1259760,note_on,240,0,2,,,,,,,,,1,,,73,0
1260000,note_on,240,0,2,,,,,,,,,1,,,73,0
1260000,note_on,0,0,2,,,,,,,,,1,,,70,0
1260000,note_on,0,0,2,,,,,,,,,1,,,65,0
1260000,note_on,0,0,2,,,,,,,,,1,,,65,127
1260000,note_on,0,0,4,,,,,,,,,3,,,37,101
1260000,note_on,0,0,1,,,,,,,,,0,,,77,0
1260000,note_on,0,0,2,,,,,,,,,1,,,73,127
1260000,note_on,240,0,4,,,,,,,,,3,,,34,0
1260000,note_on,0,0,3,,,,,,,,,2,,,49,101
1260000,note_on,240,0,3,,,,,,,,,2,,,46,0
1260000,note_on,240,0,1,,,,,,,,,0,,,85,0
1260000,note_on,0,0,1,,,,,,,,,0,,,82,0
1260000,note_on,0,0,1,,,,,,,,,0,,,85,127
1260000,note_on,0,0,2,,,,,,,,,1,,,70,127
1260000,note_on,0,0,1,,,,,,,,,0,,,82,127
1260000,note_on,0,0,1,,,,,,,,,0,,,77,127
1260480,note_on,0,0,1,,,,,,,,,0,,,82,101
1260480,note_on,0,0,1,,,,,,,,,0,,,77,101
1260480,note_on,0,0,1,,,,,,,,,0,,,73,101
1260480,note_on,0,0,4,,,,,,,,,3,,,41,101
1260480,note_on,480,0,4,,,,,,,,,3,,,37,0
1260480,note_on,0,0,1,,,,,,,,,0,,,77,0
1260480,note_on,0,0,1,,,,,,,,,0,,,82,0
1260480,note_on,480,0,1,,,,,,,,,0,,,85,0
1260480,note_on,0,0,2,,,,,,,,,1,,,61,101
1260480,note_on,480,0,3,,,,,,,,,2,,,49,0
1260480,note_on,0,0,3,,,,,,,,,2,,,53,101
1260480,note_on,480,0,2,,,,,,,,,1,,,73,0
1260480,note_on,0,0,2,,,,,,,,,1,,,70,0
1260480,note_on,0,0,2,,,,,,,,,1,,,65,0
1260480,note_on,0,0,2,,,,,,,,,1,,,65,101
1260480,note_on,0,0,2,,,,,,,,,1,,,70,101
1260720,note_on,0,0,1,,,,,,,,,0,,,73,0
1260720,note_on,240,0,1,,,,,,,,,0,,,82,0
1260720,note_on,0,0,1,,,,,,,,,0,,,77,0
1260720,note_on,0,0,1,,,,,,,,,0,,,73,101
1260720,note_on,240,0,2,,,,,,,,,1,,,70,0
1260720,note_on,0,0,2,,,,,,,,,1,,,65,0
1260720,note_on,0,0,2,,,,,,,,,1,,,61,0
1260720,note_on,0,0,2,,,,,,,,,1,,,65,101
1260720,note_on,0,0,2,,,,,,,,,1,,,70,101
1260720,note_on,0,0,2,,,,,,,,,1,,,61,101
1260720,note_on,0,0,1,,,,,,,,,0,,,77,101
1260720,note_on,0,0,1,,,,,,,,,0,,,82,101
1260960,note_on,0,0,2,,,,,,,,,1,,,65,0
1260960,note_on,0,0,4,,,,,,,,,3,,,46,101
1260960,note_on,480,0,4,,,,,,,,,3,,,41,0
1260960,note_on,480,0,3,,,,,,,,,2,,,53,0
1260960,note_on,0,0,3,,,,,,,,,2,,,58,101
1260960,note_on,240,0,1,,,,,,,,,0,,,82,0
1260960,note_on,0,0,1,,,,,,,,,0,,,77,0
1260960,note_on,0,0,2,,,,,,,,,1,,,61,0
1260960,note_on,0,0,1,,,,,,,,,0,,,73,127
1260960,note_on,0,0,1,,,,,,,,,0,,,73,0
1260960,note_on,0,0,1,,,,,,,,,0,,,82,127
1260960,note_on,0,0,2,,,,,,,,,1,,,70,127
1260960,note_on,0,0,2,,,,,,,,,1,,,65,127
1260960,note_on,0,0,2,,,,,,,,,1,,,61,127
1260960,note_on,240,0,2,,,,,,,,,1,,,70,0
1260960,note_on,0,0,1,,,,,,,,,0,,,77,127
1261440,note_on,0,0,2,,,,,,,,,1,,,65,101
1261440,note_on,0,0,2,,,,,,,,,1,,,68,101
1261440,note_on,0,0,2,,,,,,,,,1,,,65,0
1261440,note_on,0,0,2,,,,,,,,,1,,,62,101
1261440,note_on,0,0,3,,,,,,,,,2,,,46,101
1261440,note_on,480,0,3,,,,,,,,,2,,,58,0
1261440,note_on,480,0,2,,,,,,,,,1,,,70,0
1261440,note_on,480,0,4,,,,,,,,,3,,,46,0
1261440,note_on,0,0,4,,,,,,,,,3,,,34,101
1261440,note_on,0,0,2,,,,,,,,,1,,,61,0
1261440,note_on,0,0,1,,,,,,,,,0,,,77,101
1261440,note_on,480,0,1,,,,,,,,,0,,,82,0
1261440,note_on,0,0,1,,,,,,,,,0,,,77,0
1261440,note_on,0,0,1,,,,,,,,,0,,,80,101
1261440,note_on,0,0,1,,,,,,,,,0,,,74,101
1261440,note_on,0,0,1,,,,,,,,,0,,,73,0
1261680,note_on,0,0,4,,,,,,,,,3,,,34,101
1261680,note_on,0,0,3,,,,,,,,,2,,,46,101
1261680,note_on,240,0,4,,,,,,,,,3,,,34,0
1261680,note_on,240,0,3,,,,,,,,,2,,,46,0
1261920,note_on,0,0,2,,,,,,,,,1,,,62,0
1261920,note_on,480,0,1,,,,,,,,,0,,,80,0
1261920,note_on,0,0,1,,,,,,,,,0,,,77,0
1261920,note_on,0,0,1,,,,,,,,,0,,,74,0
1261920,note_on,0,0,3,,,,,,,,,2,,,46,127
1261920,note_on,240,0,3,,,,,,,,,2,,,46,0
1261920,note_on,0,0,2,,,,,,,,,1,,,65,0
1261920,note_on,0,0,4,,,,,,,,,3,,,34,127
1261920,note_on,240,0,4,,,,,,,,,3,,,34,0
1261920,note_on,480,0,2,,,,,,,,,1,,,68,0
1262400,note_on,0,0,1,,,,,,,,,0,,,77,101
1262400,note_on,0,0,3,,,,,,,,,2,,,46,101
1262400,note_on,480,0,1,,,,,,,,,0,,,74,101
1262400,note_on,480,0,3,,,,,,,,,2,,,46,0
1262400,note_on,0,0,1,,,,,,,,,0,,,80,101
1262400,note_on,480,0,2,,,,,,,,,1,,,62,101
1262400,note_on,0,0,2,,,,,,,,,1,,,65,101
1262400,note_on,480,0,4,,,,,,,,,3,,,34,0
1262400,note_on,0,0,4,,,,,,,,,3,,,34,101
1262400,note_on,0,0,2,,,,,,,,,1,,,68,101
1262640,note_on,0,0,2,,,,,,,,,1,,,62,0
1262640,note_on,0,0,1,,,,,,,,,0,,,80,101
1262640,note_on,0,0,1,,,,,,,,,0,,,77,101
1262640,note_on,0,0,1,,,,,,,,,0,,,74,101
1262640,note_on,0,0,1,,,,,,,,,0,,,74,0
1262640,note_on,0,0,1,,,,,,,,,0,,,77,0
1262640,note_on,0,0,2,,,,,,,,,1,,,65,0
1262640,note_on,240,0,1,,,,,,,,,0,,,80,0
1262640,note_on,0,0,2,,,,,,,,,1,,,65,101
1262640,note_on,0,0,2,,,,,,,,,1,,,62,101
1262640,note_on,240,0,2,,,,,,,,,1,,,68,0
1262640,note_on,0,0,2,,,,,,,,,1,,,68,101
1262880,note_on,480,0,3,,,,,,,,,2,,,46,0
1262880,note_on,0,0,1,,,,,,,,,0,,,80,127
1262880,note_on,0,0,1,,,,,,,,,0,,,77,127
1262880,note_on,0,0,1,,,,,,,,,0,,,74,127
1262880,note_on,0,0,1,,,,,,,,,0,,,74,0
1262880,note_on,0,0,1,,,,,,,,,0,,,77,0
1262880,note_on,240,0,1,,,,,,,,,0,,,80,0
1262880,note_on,0,0,2,,,,,,,,,1,,,65,127
1262880,note_on,0,0,2,,,,,,,,,1,,,68,127
1262880,note_on,0,0,2,,,,,,,,,1,,,65,0
1262880,note_on,0,0,2,,,,,,,,,1,,,62,0
1262880,note_on,0,0,2,,,,,,,,,1,,,62,127
1262880,note_on,480,0,4,,,,,,,,,3,,,34,0
1262880,note_on,240,0,2,,,,,,,,,1,,,68,0
1263360,note_on,0,0,2,,,,,,,,,1,,,66,101
1263360,note_on,480,0,3,,,,,,,,,2,,,46,101
1263360,note_on,480,0,2,,,,,,,,,1,,,68,0
1263360,note_on,0,0,2,,,,,,,,,1,,,65,0
1263360,note_on,0,0,1,,,,,,,,,0,,,75,101
1263360,note_on,480,0,1,,,,,,,,,0,,,80,0
1263360,note_on,0,0,1,,,,,,,,,0,,,77,0
1263360,note_on,0,0,2,,,,,,,,,1,,,62,0
1263360,note_on,0,0,2,,,,,,,,,1,,,63,101
1263360,note_on,480,0,4,,,,,,,,,3,,,34,101
1263360,note_on,0,0,1,,,,,,,,,0,,,74,0
1263360,note_on,0,0,1,,,,,,,,,0,,,78,101
1263600,note_on,240,0,3,,,,,,,,,2,,,46,0
1263600,note_on,0,0,3,,,,,,,,,2,,,46,101
1263600,note_on,0,0,4,,,,,,,,,3,,,34,101
1263600,note_on,240,0,4,,,,,,,,,3,,,34,0
1263840,note_on,0,0,4,,,,,,,,,3,,,34,127
1263840,note_on,240,0,4,,,,,,,,,3,,,34,0
1263840,note_on,0,0,3,,,,,,,,,2,,,46,127
1263840,note_on,240,0,3,,,,,,,,,2,,,46,0
1263840,note_on,480,0,2,,,,,,,,,1,,,66,0
1263840,note_on,480,0,1,,,,,,,,,0,,,78,0
1263840,note_on,0,0,2,,,,,,,,,1,,,63,0
1263840,note_on,0,0,1,,,,,,,,,0,,,75,0
1264320,note_on,0,0,3,,,,,,,,,2,,,47,101
1264320,note_on,0,0,4,,,,,,,,,3,,,35,101
1264320,note_on,480,0,4,,,,,,,,,3,,,34,0
1264320,note_on,0,0,1,,,,,,,,,0,,,78,101
1264320,note_on,480,0,1,,,,,,,,,0,,,75,101
1264320,note_on,480,0,2,,,,,,,,,1,,,73,88
1264320,note_on,480,0,3,,,,,,,,,2,,,46,0
1264560,note_on,240,0,2,,,,,,,,,1,,,73,0
1264560,note_on,0,0,1,,,,,,,,,0,,,75,0
1264560,note_on,240,0,1,,,,,,,,,0,,,78,0
1264560,note_on,0,0,1,,,,,,,,,0,,,78,101
1264560,note_on,0,0,1,,,,,,,,,0,,,75,101
1264560,note_on,0,0,2,,,,,,,,,1,,,71,88
1264800,note_on,240,0,1,,,,,,,,,0,,,78,0
1264800,note_on,0,0,1,,,,,,,,,0,,,76,101
1264800,note_on,0,0,1,,,,,,,,,0,,,75,0
1264800,note_on,0,0,1,,,,,,,,,0,,,78,101
1264800,note_on,240,0,2,,,,,,,,,1,,,71,0
1264800,note_on,480,0,4,,,,,,,,,3,,,35,0
1264800,note_on,0,0,2,,,,,,,,,1,,,70,88
1264800,note_on,480,0,3,,,,,,,,,2,,,47,0
1264847,note_on,0,0,1,,,,,,,,,0,,,76,0
1264847,note_on,47,0,2,,,,,,,,,1,,,70,0
1264847,note_on,47,0,1,,,,,,,,,0,,,78,0
1265280,note_on,480,0,4,,,,,,,,,3,,,37,101
1265280,note_on,0,0,1,,,,,,,,,0,,,78,101
1265280,note_on,433,0,2,,,,,,,,,1,,,70,88
1265280,note_on,480,0,3,,,,,,,,,2,,,49,101
1265280,note_on,433,0,1,,,,,,,,,0,,,76,101
1265327,note_on,47,0,2,,,,,,,,,1,,,70,0
1265327,note_on,0,0,1,,,,,,,,,0,,,76,0
1265327,note_on,47,0,1,,,,,,,,,0,,,78,0
1265520,note_on,240,0,3,,,,,,,,,2,,,49,0
1265520,note_on,240,0,4,,,,,,,,,3,,,37,0
1265520,note_on,0,0,3,,,,,,,,,2,,,49,101
1265520,note_on,0,0,4,,,,,,,,,3,,,37,101
1265760,note_on,0,0,1,,,,,,,,,0,,,78,101
1265760,note_on,433,0,2,,,,,,,,,1,,,70,88
1265760,note_on,0,0,4,,,,,,,,,3,,,37,101
1265760,note_on,240,0,4,,,,,,,,,3,,,37,0
1265760,note_on,433,0,1,,,,,,,,,0,,,76,101
1265760,note_on,240,0,3,,,,,,,,,2,,,49,0
1265760,note_on,0,0,3,,,,,,,,,2,,,49,101
1265807,note_on,47,0,2,,,,,,,,,1,,,70,0
1265807,note_on,0,0,1,,,,,,,,,0,,,76,0
1265807,note_on,47,0,1,,,,,,,,,0,,,78,0
1266240,note_on,480,0,3,,,,,,,,,2,,,49,0
1266240,note_on,0,0,1,,,,,,,,,0,,,79,101
1266240,note_on,433,0,1,,,,,,,,,0,,,76,101
1266240,note_on,480,0,4,,,,,,,,,3,,,37,0
1266240,note_on,433,0,2,,,,,,,,,1,,,70,88
1266240,note_on,0,0,4,,,,,,,,,3,,,37,101
1266240,note_on,0,0,3,,,,,,,,,2,,,49,101
1266287,note_on,0,0,1,,,,,,,,,0,,,76,0
1266287,note_on,47,0,2,,,,,,,,,1,,,70,0
1266287,note_on,47,0,1,,,,,,,,,0,,,79,0
1266720,note_on,433,0,2,,,,,,,,,1,,,70,114
1266720,note_on,480,0,4,,,,,,,,,3,,,37,0
1266720,note_on,480,0,3,,,,,,,,,2,,,49,0
1266720,note_on,0,0,3,,,,,,,,,2,,,49,127
1266720,note_on,0,0,1,,,,,,,,,0,,,79,127
1266720,note_on,433,0,1,,,,,,,,,0,,,76,127
1266720,note_on,0,0,4,,,,,,,,,3,,,37,127
1267200,note_on,0,0,1,,,,,,,,,0,,,76,0
1267200,note_on,480,0,1,,,,,,,,,0,,,79,0
1267200,note_on,480,0,4,,,,,,,,,3,,,37,0
1267200,note_on,0,0,4,,,,,,,,,3,,,38,101
1267200,note_on,0,0,1,,,,,,,,,0,,,78,101
1267200,note_on,0,0,1,,,,,,,,,0,,,74,101
1267200,note_on,0,0,3,,,,,,,,,2,,,50,101
1267200,note_on,480,0,2,,,,,,,,,1,,,70,0
1267200,note_on,0,0,2,,,,,,,,,1,,,71,88
1267200,note_on,480,0,3,,,,,,,,,2,,,49,0
1267440,note_on,0,0,3,,,,,,,,,2,,,50,101
1267440,note_on,0,0,4,,,,,,,,,3,,,38,101
1267440,note_on,240,0,4,,,,,,,,,3,,,38,0
1267440,note_on,240,0,3,,,,,,,,,2,,,50,0
1267680,note_on,480,0,2,,,,,,,,,1,,,71,0
1267680,note_on,480,0,1,,,,,,,,,0,,,78,0
1267680,note_on,0,0,1,,,,,,,,,0,,,74,0
1267680,note_on,0,0,3,,,,,,,,,2,,,54,101
1267680,note_on,240,0,4,,,,,,,,,3,,,38,0
1267680,note_on,0,0,4,,,,,,,,,3,,,42,101
1267680,note_on,240,0,3,,,,,,,,,2,,,50,0
1268160,note_on,480,0,1,,,,,,,,,0,,,79,101
1268160,note_on,480,0,2,,,,,,,,,1,,,74,88
1268160,note_on,0,0,4,,,,,,,,,3,,,47,101
1268160,note_on,0,0,3,,,,,,,,,2,,,59,101
1268160,note_on,480,0,3,,,,,,,,,2,,,54,0
1268160,note_on,480,0,4,,,,,,,,,3,,,42,0
1268400,note_on,0,0,1,,,,,,,,,0,,,79,101
1268400,note_on,0,0,1,,,,,,,,,0,,,78,101
1268400,note_on,240,0,1,,,,,,,,,0,,,79,0
1268400,note_on,0,0,2,,,,,,,,,1,,,72,88
1268400,note_on,240,0,2,,,,,,,,,1,,,74,0
1268640,note_on,0,0,1,,,,,,,,,0,,,77,101
1268640,note_on,0,0,1,,,,,,,,,0,,,79,101
1268640,note_on,240,0,1,,,,,,,,,0,,,79,0
1268640,note_on,480,0,3,,,,,,,,,2,,,59,0
1268640,note_on,480,0,4,,,,,,,,,3,,,47,0
1268640,note_on,0,0,2,,,,,,,,,1,,,71,88
1268640,note_on,240,0,2,,,,,,,,,1,,,72,0
1268640,note_on,0,0,1,,,,,,,,,0,,,78,0
1268687,note_on,47,0,1,,,,,,,,,0,,,79,0
1268687,note_on,0,0,1,,,,,,,,,0,,,77,0
1268687,note_on,47,0,2,,,,,,,,,1,,,71,0
1269120,note_on,433,0,1,,,,,,,,,0,,,77,101
1269120,note_on,480,0,4,,,,,,,,,3,,,38,101
1269120,note_on,480,0,3,,,,,,,,,2,,,50,101
1269120,note_on,433,0,2,,,,,,,,,1,,,71,88
1269120,note_on,0,0,1,,,,,,,,,0,,,79,101
1269167,note_on,47,0,2,,,,,,,,,1,,,71,0
1269167,note_on,47,0,1,,,,,,,,,0,,,79,0
1269167,note_on,0,0,1,,,,,,,,,0,,,77,0
1269360,note_on,240,0,3,,,,,,,,,2,,,50,0
1269360,note_on,0,0,4,,,,,,,,,3,,,38,101
1269360,note_on,240,0,4,,,,,,,,,3,,,38,0
1269360,note_on,0,0,3,,,,,,,,,2,,,50,101
1269600,note_on,240,0,3,,,,,,,,,2,,,50,0
1269600,note_on,0,0,3,,,,,,,,,2,,,50,101
1269600,note_on,240,0,4,,,,,,,,,3,,,38,0
1269600,note_on,0,0,4,,,,,,,,,3,,,38,101
1269600,note_on,433,0,1,,,,,,,,,0,,,77,101
1269600,note_on,433,0,2,,,,,,,,,1,,,71,88
1269600,note_on,0,0,1,,,,,,,,,0,,,79,101
1269647,note_on,47,0,1,,,,,,,,,0,,,79,0
1269647,note_on,0,0,1,,,,,,,,,0,,,77,0
1269647,note_on,47,0,2,,,,,,,,,1,,,71,0
1270080,note_on,0,0,1,,,,,,,,,0,,,80,101
1270080,note_on,480,0,3,,,,,,,,,2,,,50,0
1270080,note_on,0,0,3,,,,,,,,,2,,,50,101
1270080,note_on,0,0,4,,,,,,,,,3,,,38,101
1270080,note_on,433,0,2,,,,,,,,,1,,,71,88
1270080,note_on,433,0,1,,,,,,,,,0,,,77,101
1270080,note_on,480,0,4,,,,,,,,,3,,,38,0
1270127,note_on,47,0,2,,,,,,,,,1,,,71,0
1270127,note_on,47,0,1,,,,,,,,,0,,,80,0
1270127,note_on,0,0,1,,,,,,,,,0,,,77,0
1270560,note_on,0,0,3,,,,,,,,,2,,,50,127
1270560,note_on,480,0,3,,,,,,,,,2,,,50,0
1270560,note_on,0,0,1,,,,,,,,,0,,,80,127
1270560,note_on,0,0,4,,,,,,,,,3,,,38,127
1270560,note_on,480,0,4,,,,,,,,,3,,,38,0
1270560,note_on,433,0,1,,,,,,,,,0,,,77,127
1270560,note_on,433,0,2,,,,,,,,,1,,,71,114
1271040,note_on,0,0,4,,,,,,,,,3,,,39,101
1271040,note_on,480,0,4,,,,,,,,,3,,,38,0
1271040,note_on,480,0,3,,,,,,,,,2,,,50,0
1271040,note_on,0,0,3,,,,,,,,,2,,,51,101
1271040,note_on,0,0,1,,,,,,,,,0,,,75,101
1271040,note_on,0,0,1,,,,,,,,,0,,,79,101
1271040,note_on,480,0,2,,,,,,,,,1,,,71,0
1271040,note_on,480,0,1,,,,,,,,,0,,,80,0
1271040,note_on,0,0,2,,,,,,,,,1,,,72,88
1271040,note_on,0,0,1,,,,,,,,,0,,,77,0
1271280,note_on,240,0,4,,,,,,,,,3,,,39,0
1271280,note_on,0,0,4,,,,,,,,,3,,,39,101
1271280,note_on,240,0,3,,,,,,,,,2,,,51,0
1271280,note_on,0,0,3,,,,,,,,,2,,,51,101
1271520,note_on,0,0,3,,,,,,,,,2,,,55,101
1271520,note_on,480,0,2,,,,,,,,,1,,,72,0
1271520,note_on,0,0,4,,,,,,,,,3,,,43,101
1271520,note_on,0,0,1,,,,,,,,,0,,,75,0
1271520,note_on,480,0,1,,,,,,,,,0,,,79,0
1271520,note_on,240,0,3,,,,,,,,,2,,,51,0
1271520,note_on,240,0,4,,,,,,,,,3,,,39,0
1272000,note_on,480,0,3,,,,,,,,,2,,,55,0
1272000,note_on,0,0,3,,,,,,,,,2,,,60,101
1272000,note_on,480,0,2,,,,,,,,,1,,,76,88
1272000,note_on,0,0,4,,,,,,,,,3,,,48,101
1272000,note_on,480,0,4,,,,,,,,,3,,,43,0
1272000,note_on,480,0,1,,,,,,,,,0,,,84,101
1272240,note_on,240,0,1,,,,,,,,,0,,,84,0
1272240,note_on,0,0,1,,,,,,,,,0,,,83,101
1272240,note_on,0,0,1,,,,,,,,,0,,,84,101
1272240,note_on,240,0,2,,,,,,,,,1,,,76,0
1272240,note_on,0,0,2,,,,,,,,,1,,,76,88
1272480,note_on,0,0,1,,,,,,,,,0,,,84,101
1272480,note_on,240,0,1,,,,,,,,,0,,,84,0
1272480,note_on,0,0,1,,,,,,,,,0,,,83,0
1272480,note_on,0,0,1,,,,,,,,,0,,,82,101
1272480,note_on,480,0,3,,,,,,,,,2,,,60,0
1272480,note_on,0,0,2,,,,,,,,,1,,,76,88
1272480,note_on,240,0,2,,,,,,,,,1,,,76,0
1272480,note_on,480,0,4,,,,,,,,,3,,,48,0
1272527,note_on,47,0,2,,,,,,,,,1,,,76,0
1272527,note_on,47,0,1,,,,,,,,,0,,,84,0
1272527,note_on,0,0,1,,,,,,,,,0,,,82,0
1272960,note_on,433,0,2,,,,,,,,,1,,,76,88
1272960,note_on,480,0,4,,,,,,,,,3,,,43,101
1272960,note_on,433,0,1,,,,,,,,,0,,,82,101
1272960,note_on,0,0,1,,,,,,,,,0,,,84,101
1272960,note_on,480,0,3,,,,,,,,,2,,,55,101
1273007,note_on,47,0,2,,,,,,,,,1,,,76,0
1273007,note_on,0,0,1,,,,,,,,,0,,,82,0
1273007,note_on,47,0,1,,,,,,,,,0,,,84,0
1273200,note_on,0,0,3,,,,,,,,,2,,,55,101
1273200,note_on,0,0,4,,,,,,,,,3,,,43,101
1273200,note_on,240,0,3,,,,,,,,,2,,,55,0
1273200,note_on,240,0,4,,,,,,,,,3,,,43,0
1273440,note_on,240,0,3,,,,,,,,,2,,,55,0
1273440,note_on,0,0,3,,,,,,,,,2,,,55,101
1273440,note_on,0,0,4,,,,,,,,,3,,,43,101
1273440,note_on,433,0,2,,,,,,,,,1,,,76,88
1273440,note_on,240,0,4,,,,,,,,,3,,,43,0
1273440,note_on,433,0,1,,,,,,,,,0,,,82,101
1273440,note_on,0,0,1,,,,,,,,,0,,,84,101
1273487,note_on,47,0,2,,,,,,,,,1,,,76,0
1273487,note_on,0,0,1,,,,,,,,,0,,,82,0
1273487,note_on,47,0,1,,,,,,,,,0,,,84,0
1273920,note_on,0,0,1,,,,,,,,,0,,,85,101
1273920,note_on,433,0,1,,,,,,,,,0,,,82,101
1273920,note_on,480,0,4,,,,,,,,,3,,,43,0
1273920,note_on,480,0,3,,,,,,,,,2,,,55,0
1273920,note_on,0,0,3,,,,,,,,,2,,,55,101
1273920,note_on,433,0,2,,,,,,,,,1,,,76,88
1273920,note_on,0,0,4,,,,,,,,,3,,,43,101
1273967,note_on,47,0,2,,,,,,,,,1,,,76,0
1273967,note_on,47,0,1,,,,,,,,,0,,,85,0
1273967,note_on,0,0,1,,,,,,,,,0,,,82,0
1274400,note_on,433,0,2,,,,,,,,,1,,,76,114
1274400,note_on,433,0,1,,,,,,,,,0,,,82,127
1274400,note_on,0,0,1,,,,,,,,,0,,,85,127
1274400,note_on,480,0,4,,,,,,,,,3,,,43,0
1274400,note_on,0,0,3,,,,,,,,,2,,,55,127
1274400,note_on,0,0,4,,,,,,,,,3,,,43,127
1274400,note_on,480,0,3,,,,,,,,,2,,,55,0
1274880,note_on,0,0,1,,,,,,,,,0,,,82,0
1274880,note_on,480,0,3,,,,,,,,,2,,,55,0
1274880,note_on,0,0,3,,,,,,,,,2,,,56,101
1274880,note_on,0,0,4,,,,,,,,,3,,,44,101
1274880,note_on,480,0,4,,,,,,,,,3,,,43,0
1274880,note_on,0,0,1,,,,,,,,,0,,,80,101
1274880,note_on,0,0,1,,,,,,,,,0,,,84,101
1274880,note_on,480,0,2,,,,,,,,,1,,,76,0
1274880,note_on,0,0,2,,,,,,,,,1,,,77,88
1274880,note_on,480,0,1,,,,,,,,,0,,,85,0
1275120,note_on,240,0,4,,,,,,,,,3,,,44,0
1275120,note_on,0,0,4,,,,,,,,,3,,,44,101
1275120,note_on,240,0,3,,,,,,,,,2,,,56,0
1275120,note_on,0,0,3,,,,,,,,,2,,,56,101
1275360,note_on,0,0,1,,,,,,,,,0,,,80,0
1275360,note_on,0,0,3,,,,,,,,,2,,,60,101
1275360,note_on,480,0,2,,,,,,,,,1,,,77,0
1275360,note_on,240,0,3,,,,,,,,,2,,,56,0
1275360,note_on,480,0,1,,,,,,,,,0,,,84,0
1275360,note_on,0,0,4,,,,,,,,,3,,,48,101
1275360,note_on,240,0,4,,,,,,,,,3,,,44,0
1275840,note_on,480,0,2,,,,,,,,,1,,,77,88
1275840,note_on,0,0,3,,,,,,,,,2,,,65,101
1275840,note_on,480,0,1,,,,,,,,,0,,,80,101
1275840,note_on,480,0,3,,,,,,,,,2,,,60,0
1275840,note_on,0,0,1,,,,,,,,,0,,,84,101
1275840,note_on,480,0,4,,,,,,,,,3,,,48,0
1275840,note_on,0,0,4,,,,,,,,,3,,,53,101
1276320,note_on,0,0,1,,,,,,,,,0,,,89,101
1276320,note_on,0,0,3,,,,,,,,,2,,,61,101
1276320,note_on,480,0,3,,,,,,,,,2,,,65,0
1276320,note_on,480,0,4,,,,,,,,,3,,,53,0
1276320,note_on,0,0,2,,,,,,,,,1,,,80,101
1276320,note_on,0,0,1,,,,,,,,,0,,,92,101
1276320,note_on,0,0,2,,,,,,,,,1,,,77,101
1276320,note_on,480,0,2,,,,,,,,,1,,,77,0
1276320,note_on,0,0,4,,,,,,,,,3,,,37,101
1276320,note_on,480,0,1,,,,,,,,,0,,,84,0
1276320,note_on,0,0,1,,,,,,,,,0,,,80,0
1276320,note_on,0,0,1,,,,,,,,,0,,,83,101
1276320,note_on,0,0,2,,,,,,,,,1,,,71,101
1276320,note_on,0,0,4,,,,,,,,,3,,,49,101
1277280,note_on,960,0,4,,,,,,,,,3,,,49,0
1277280,note_on,0,0,4,,,,,,,,,3,,,37,0
1277280,note_on,0,0,4,,,,,,,,,3,,,37,101
1277280,note_on,0,0,4,,,,,,,,,3,,,49,101
1277280,note_on,960,0,2,,,,,,,,,1,,,80,0
1277280,note_on,0,0,3,,,,,,,,,2,,,61,101
1277280,note_on,0,0,2,,,,,,,,,1,,,68,101
1277280,note_on,0,0,2,,,,,,,,,1,,,71,0
1277280,note_on,0,0,2,,,,,,,,,1,,,77,0
1277280,note_on,960,0,1,,,,,,,,,0,,,92,0
1277280,note_on,0,0,1,,,,,,,,,0,,,89,0
1277280,note_on,0,0,1,,,,,,,,,0,,,83,0
1277280,note_on,0,0,1,,,,,,,,,0,,,80,101
1277280,note_on,0,0,1,,,,,,,,,0,,,83,101
1277280,note_on,0,0,1,,,,,,,,,0,,,89,101
1277280,note_on,0,0,2,,,,,,,,,1,,,71,101
1277280,note_on,0,0,2,,,,,,,,,1,,,77,101
1277280,note_on,960,0,3,,,,,,,,,2,,,61,0
1278240,note_on,0,0,1,,,,,,,,,0,,,80,101
1278240,note_on,0,0,1,,,,,,,,,0,,,83,0
1278240,note_on,960,0,1,,,,,,,,,0,,,89,0
1278240,note_on,0,0,1,,,,,,,,,0,,,85,101
1278240,note_on,0,0,2,,,,,,,,,1,,,65,101
1278240,note_on,960,0,3,,,,,,,,,2,,,61,0
1278240,note_on,0,0,3,,,,,,,,,2,,,61,101
1278240,note_on,960,0,4,,,,,,,,,3,,,49,0
1278240,note_on,0,0,4,,,,,,,,,3,,,37,0
1278240,note_on,0,0,4,,,,,,,,,3,,,37,101
1278240,note_on,0,0,4,,,,,,,,,3,,,49,101
1278240,note_on,0,0,1,,,,,,,,,0,,,77,101
1278240,note_on,0,0,1,,,,,,,,,0,,,80,0
1278240,note_on,0,0,2,,,,,,,,,1,,,68,101
1278240,note_on,0,0,2,,,,,,,,,1,,,71,0
1278240,note_on,0,0,2,,,,,,,,,1,,,68,0
1278240,note_on,960,0,2,,,,,,,,,1,,,77,0
1278240,note_on,0,0,2,,,,,,,,,1,,,73,101
1279200,note_on,0,0,2,,,,,,,,,1,,,65,101
1279200,note_on,0,0,1,,,,,,,,,0,,,83,101
1279200,note_on,0,0,1,,,,,,,,,0,,,77,101
1279200,note_on,0,0,1,,,,,,,,,0,,,77,0
1279200,note_on,0,0,1,,,,,,,,,0,,,80,0
1279200,note_on,960,0,1,,,,,,,,,0,,,85,0
1279200,note_on,0,0,2,,,,,,,,,1,,,65,0
1279200,note_on,0,0,2,,,,,,,,,1,,,68,0
1279200,note_on,960,0,2,,,,,,,,,1,,,73,0
1279200,note_on,960,0,4,,,,,,,,,3,,,49,0
1279200,note_on,0,0,4,,,,,,,,,3,,,37,0
1279200,note_on,0,0,4,,,,,,,,,3,,,37,101
1279200,note_on,0,0,4,,,,,,,,,3,,,49,101
1279200,note_on,960,0,3,,,,,,,,,2,,,61,0
1279200,note_on,0,0,3,,,,,,,,,2,,,61,101
1279200,note_on,0,0,2,,,,,,,,,1,,,71,101
1279200,note_on,0,0,2,,,,,,,,,1,,,68,101
1280160,note_on,960,0,4,,,,,,,,,3,,,49,0
1280160,note_on,0,0,4,,,,,,,,,3,,,37,0
1280160,note_on,960,0,3,,,,,,,,,2,,,61,0
1280160,note_on,0,0,3,,,,,,,,,2,,,60,101
1280160,note_on,0,0,1,,,,,,,,,0,,,84,101
1280160,note_on,0,0,1,,,,,,,,,0,,,76,101
1280160,note_on,0,0,4,,,,,,,,,3,,,36,88
1280160,note_on,0,0,2,,,,,,,,,1,,,68,0
1280160,note_on,960,0,1,,,,,,,,,0,,,83,0
1280160,note_on,960,0,2,,,,,,,,,1,,,71,0
1280160,note_on,0,0,2,,,,,,,,,1,,,72,101
1280160,note_on,0,0,1,,,,,,,,,0,,,77,0
1280160,note_on,0,0,2,,,,,,,,,1,,,67,101
1280160,note_on,0,0,2,,,,,,,,,1,,,64,101
1280160,note_on,0,0,2,,,,,,,,,1,,,65,0
1280400,note_on,240,0,4,,,,,,,,,3,,,36,0
1280400,note_on,0,0,4,,,,,,,,,3,,,48,88
1280640,note_on,480,0,2,,,,,,,,,1,,,72,0
1280640,note_on,0,0,1,,,,,,,,,0,,,76,0
1280640,note_on,480,0,1,,,,,,,,,0,,,84,0
1280640,note_on,480,0,3,,,,,,,,,2,,,60,0
1280640,note_on,0,0,1,,,,,,,,,0,,,72,101
1280640,note_on,0,0,1,,,,,,,,,0,,,84,101
1280640,note_on,0,0,4,,,,,,,,,3,,,36,88
1280640,note_on,240,0,4,,,,,,,,,3,,,48,0
1280640,note_on,0,0,2,,,,,,,,,1,,,64,88
1280640,control_change,0,0,2,,,,,,,,,1,64,127,,
1280640,note_on,0,0,2,,,,,,,,,1,,,64,0
1280640,note_on,0,0,2,,,,,,,,,1,,,67,0
1280880,note_on,0,0,4,,,,,,,,,3,,,48,88
1280880,note_on,240,0,2,,,,,,,,,1,,,64,0
1280880,note_on,0,0,2,,,,,,,,,1,,,65,88
1280880,note_on,240,0,4,,,,,,,,,3,,,36,0
1281120,note_on,0,0,4,,,,,,,,,3,,,36,88
1281120,note_on,240,0,2,,,,,,,,,1,,,65,0
1281120,note_on,0,0,2,,,,,,,,,1,,,64,88
1281120,note_on,240,0,4,,,,,,,,,3,,,48,0
1281360,note_on,240,0,2,,,,,,,,,1,,,64,0
1281360,note_on,0,0,4,,,,,,,,,3,,,48,88
1281360,note_on,240,0,4,,,,,,,,,3,,,36,0
1281360,note_on,0,0,2,,,,,,,,,1,,,65,88
1281600,note_on,960,0,1,,,,,,,,,0,,,84,0
1281600,note_on,0,0,1,,,,,,,,,0,,,73,101
1281600,note_on,0,0,1,,,,,,,,,0,,,72,0
1281600,note_on,0,0,1,,,,,,,,,0,,,85,101
1281600,note_on,0,0,2,,,,,,,,,1,,,67,88
1281600,note_on,240,0,2,,,,,,,,,1,,,65,0
1281600,note_on,0,0,4,,,,,,,,,3,,,36,88
1281600,note_on,240,0,4,,,,,,,,,3,,,48,0
1281647,note_on,0,0,1,,,,,,,,,0,,,73,0
1281647,note_on,47,0,1,,,,,,,,,0,,,85,0
1281840,note_on,0,0,2,,,,,,,,,1,,,68,88
1281840,note_on,240,0,2,,,,,,,,,1,,,67,0
1281840,note_on,240,0,4,,,,,,,,,3,,,36,0
1281840,note_on,0,0,4,,,,,,,,,3,,,48,88
1282080,note_on,433,0,1,,,,,,,,,0,,,73,127
1282080,note_on,0,0,1,,,,,,,,,0,,,85,127
1282080,note_on,0,0,2,,,,,,,,,1,,,70,88
1282080,note_on,240,0,4,,,,,,,,,3,,,48,0
1282080,note_on,240,0,2,,,,,,,,,1,,,68,0
1282080,note_on,0,0,3,,,,,,,,,2,,,56,101
1282080,note_on,1440,0,3,,,,,,,,,2,,,53,101
1282080,note_on,0,0,4,,,,,,,,,3,,,36,88
1282320,note_on,0,0,4,,,,,,,,,3,,,48,88
1282320,note_on,240,0,2,,,,,,,,,1,,,70,0
1282320,note_on,0,0,2,,,,,,,,,1,,,68,88
1282320,note_on,240,0,4,,,,,,,,,3,,,36,0
1282560,note_on,480,0,1,,,,,,,,,0,,,85,0
1282560,note_on,0,0,1,,,,,,,,,0,,,73,0
1282560,note_on,0,0,1,,,,,,,,,0,,,70,101
1282560,note_on,0,0,1,,,,,,,,,0,,,82,101
1282560,note_on,240,0,4,,,,,,,,,3,,,48,0
1282560,note_on,0,0,2,,,,,,,,,1,,,67,88
1282560,note_on,240,0,2,,,,,,,,,1,,,68,0
1282560,note_on,0,0,4,,,,,,,,,3,,,36,88
1282800,note_on,240,0,2,,,,,,,,,1,,,67,0
1282800,note_on,0,0,2,,,,,,,,,1,,,68,88
1282800,note_on,0,0,4,,,,,,,,,3,,,48,88
1282800,note_on,240,0,4,,,,,,,,,3,,,36,0
1283040,note_on,240,0,2,,,,,,,,,1,,,68,0
1283040,note_on,0,0,1,,,,,,,,,0,,,70,0
1283040,note_on,480,0,1,,,,,,,,,0,,,82,0
1283040,note_on,0,0,2,,,,,,,,,1,,,70,88
1283040,note_on,0,0,4,,,,,,,,,3,,,36,88
1283040,note_on,240,0,4,,,,,,,,,3,,,48,0
1283280,note_on,0,0,2,,,,,,,,,1,,,68,88
1283280,note_on,0,0,4,,,,,,,,,3,,,48,88
1283280,note_on,240,0,4,,,,,,,,,3,,,36,0
1283280,note_on,240,0,2,,,,,,,,,1,,,70,0
1283520,note_on,0,0,2,,,,,,,,,1,,,67,88
1283520,note_on,240,0,4,,,,,,,,,3,,,48,0
1283520,note_on,0,0,4,,,,,,,,,3,,,36,88
1283520,note_on,240,0,2,,,,,,,,,1,,,68,0
1283520,note_on,1440,0,3,,,,,,,,,2,,,56,0
1283520,note_on,0,0,3,,,,,,,,,2,,,53,0
1283520,note_on,0,0,3,,,,,,,,,2,,,55,101
1283520,note_on,0,0,3,,,,,,,,,2,,,58,101
1283567,note_on,47,0,3,,,,,,,,,2,,,58,0
1283567,note_on,0,0,3,,,,,,,,,2,,,55,0
1283760,note_on,240,0,4,,,,,,,,,3,,,36,0
1283760,note_on,0,0,2,,,,,,,,,1,,,65,88
1283760,control_change,0,0,2,,,,,,,,,1,64,0,,
1283760,note_on,240,0,2,,,,,,,,,1,,,67,0
1283760,note_on,0,0,4,,,,,,,,,3,,,48,88
1284000,note_on,433,0,3,,,,,,,,,2,,,55,127
1284000,note_on,0,0,4,,,,,,,,,3,,,36,114
1284000,control_change,0,0,2,,,,,,,,,1,64,127,,
1284000,note_on,240,0,2,,,,,,,,,1,,,65,0
1284000,note_on,0,0,1,,,,,,,,,0,,,82,101
1284000,note_on,960,0,1,,,,,,,,,0,,,70,101
1284000,note_on,240,0,4,,,,,,,,,3,,,48,0
1284000,note_on,0,0,2,,,,,,,,,1,,,64,88
1284000,note_on,0,0,3,,,,,,,,,2,,,58,127
1284240,note_on,240,0,2,,,,,,,,,1,,,64,0
1284240,note_on,0,0,2,,,,,,,,,1,,,60,88
1284240,note_on,240,0,4,,,,,,,,,3,,,36,0
1284240,note_on,0,0,4,,,,,,,,,3,,,48,88
1284480,note_on,240,0,4,,,,,,,,,3,,,48,0
1284480,note_on,0,0,4,,,,,,,,,3,,,36,88
1284480,note_on,0,0,3,,,,,,,,,2,,,55,101
1284480,note_on,0,0,3,,,,,,,,,2,,,55,0
1284480,note_on,0,0,2,,,,,,,,,1,,,62,88
1284480,note_on,240,0,2,,,,,,,,,1,,,60,0
1284480,note_on,0,0,3,,,,,,,,,2,,,52,101
1284480,note_on,480,0,3,,,,,,,,,2,,,58,0
1284720,note_on,0,0,2,,,,,,,,,1,,,64,88
1284720,note_on,240,0,2,,,,,,,,,1,,,62,0
1284720,note_on,0,0,4,,,,,,,,,3,,,48,88
1284720,note_on,240,0,4,,,,,,,,,3,,,36,0
1284960,note_on,480,0,3,,,,,,,,,2,,,55,0
1284960,note_on,240,0,4,,,,,,,,,3,,,48,0
1284960,note_on,0,0,4,,,,,,,,,3,,,36,88
1284960,note_on,240,0,2,,,,,,,,,1,,,64,0
1284960,note_on,0,0,2,,,,,,,,,1,,,62,88
1284960,note_on,0,0,3,,,,,,,,,2,,,52,0
1285200,note_on,240,0,2,,,,,,,,,1,,,62,0
1285200,note_on,0,0,2,,,,,,,,,1,,,64,88
1285200,note_on,240,0,4,,,,,,,,,3,,,36,0
1285200,note_on,0,0,4,,,,,,,,,3,,,48,88
1285440,note_on,240,0,2,,,,,,,,,1,,,64,0
1285440,note_on,1440,0,1,,,,,,,,,0,,,82,0
1285440,note_on,0,0,1,,,,,,,,,0,,,70,0
1285440,note_on,0,0,1,,,,,,,,,0,,,72,101
1285440,note_on,0,0,1,,,,,,,,,0,,,84,101
1285440,note_on,240,0,4,,,,,,,,,3,,,48,0
1285440,note_on,0,0,4,,,,,,,,,3,,,36,88
1285440,note_on,0,0,2,,,,,,,,,1,,,65,88
1285487,note_on,47,0,1,,,,,,,,,0,,,84,0
1285487,note_on,0,0,1,,,,,,,,,0,,,72,0
1285680,note_on,240,0,4,,,,,,,,,3,,,36,0
1285680,note_on,0,0,4,,,,,,,,,3,,,48,88
1285680,note_on,0,0,2,,,,,,,,,1,,,67,88
1285680,note_on,240,0,2,,,,,,,,,1,,,65,0
1285920,note_on,0,0,2,,,,,,,,,1,,,68,88
1285920,note_on,240,0,2,,,,,,,,,1,,,67,0
1285920,note_on,960,0,3,,,,,,,,,2,,,52,101
1285920,note_on,240,0,4,,,,,,,,,3,,,48,0
1285920,note_on,0,0,4,,,,,,,,,3,,,36,88
1285920,note_on,0,0,1,,,,,,,,,0,,,84,127
1285920,note_on,433,0,1,,,,,,,,,0,,,72,127
1285920,note_on,0,0,3,,,,,,,,,2,,,55,101
1286160,note_on,0,0,2,,,,,,,,,1,,,67,88
1286160,note_on,240,0,2,,,,,,,,,1,,,68,0
1286160,note_on,240,0,4,,,,,,,,,3,,,36,0
1286160,note_on,0,0,4,,,,,,,,,3,,,48,88
1286400,note_on,0,0,2,,,,,,,,,1,,,65,88
1286400,note_on,240,0,2,,,,,,,,,1,,,67,0
1286400,note_on,0,0,1,,,,,,,,,0,,,80,101
1286400,note_on,0,0,1,,,,,,,,,0,,,72,0
1286400,note_on,480,0,1,,,,,,,,,0,,,84,0
1286400,note_on,240,0,4,,,,,,,,,3,,,48,0
1286400,note_on,0,0,4,,,,,,,,,3,,,36,88
1286400,note_on,0,0,1,,,,,,,,,0,,,68,101
1286640,note_on,240,0,4,,,,,,,,,3,,,36,0
1286640,note_on,0,0,2,,,,,,,,,1,,,67,88
1286640,note_on,240,0,2,,,,,,,,,1,,,65,0
1286640,note_on,0,0,4,,,,,,,,,3,,,48,88
1286880,note_on,240,0,2,,,,,,,,,1,,,67,0
1286880,note_on,0,0,1,,,,,,,,,0,,,68,0
1286880,note_on,480,0,1,,,,,,,,,0,,,80,0
1286880,note_on,0,0,4,,,,,,,,,3,,,36,88
1286880,note_on,240,0,4,,,,,,,,,3,,,48,0
1286880,note_on,0,0,2,,,,,,,,,1,,,68,88
1287120,note_on,0,0,4,,,,,,,,,3,,,48,88
1287120,note_on,240,0,2,,,,,,,,,1,,,68,0
1287120,note_on,240,0,4,,,,,,,,,3,,,36,0
1287120,note_on,0,0,2,,,,,,,,,1,,,67,88
1287360,note_on,0,0,3,,,,,,,,,2,,,53,101
1287360,note_on,0,0,4,,,,,,,,,3,,,36,88
1287360,note_on,1440,0,3,,,,,,,,,2,,,55,0
1287360,note_on,0,0,3,,,,,,,,,2,,,56,101
1287360,note_on,240,0,4,,,,,,,,,3,,,48,0
1287360,note_on,0,0,3,,,,,,,,,2,,,52,0
1287360,note_on,0,0,2,,,,,,,,,1,,,65,88
1287360,note_on,240,0,2,,,,,,,,,1,,,67,0
1287407,note_on,47,0,3,,,,,,,,,2,,,56,0
1287407,note_on,0,0,3,,,,,,,,,2,,,53,0
1287600,note_on,0,0,4,,,,,,,,,3,,,48,88
1287600,note_on,240,0,4,,,,,,,,,3,,,36,0
1287600,note_on,0,0,2,,,,,,,,,1,,,64,88
1287600,note_on,240,0,2,,,,,,,,,1,,,65,0
1287600,control_change,0,0,2,,,,,,,,,1,64,0,,
1287840,note_on,0,0,2,,,,,,,,,1,,,62,88
1287840,control_change,0,0,2,,,,,,,,,1,64,127,,
1287840,note_on,240,0,2,,,,,,,,,1,,,64,0
1287840,note_on,960,0,1,,,,,,,,,0,,,69,101
1287840,note_on,0,0,1,,,,,,,,,0,,,81,101
1287840,note_on,0,0,3,,,,,,,,,2,,,56,127
1287840,note_on,0,0,4,,,,,,,,,3,,,36,88
1287840,note_on,240,0,4,,,,,,,,,3,,,48,0
1287840,note_on,433,0,3,,,,,,,,,2,,,53,127
1288080,note_on,240,0,4,,,,,,,,,3,,,36,0
1288080,note_on,0,0,4,,,,,,,,,3,,,48,88
1288080,note_on,240,0,2,,,,,,,,,1,,,62,0
1288080,note_on,0,0,2,,,,,,,,,1,,,59,88
1288320,note_on,480,0,3,,,,,,,,,2,,,56,0
1288320,note_on,240,0,4,,,,,,,,,3,,,48,0
1288320,note_on,0,0,4,,,,,,,,,3,,,36,88
1288320,note_on,0,0,2,,,,,,,,,1,,,60,88
1288320,note_on,0,0,3,,,,,,,,,2,,,53,101
1288320,note_on,0,0,3,,,,,,,,,2,,,50,101
1288320,note_on,0,0,3,,,,,,,,,2,,,53,0
1288320,note_on,240,0,2,,,,,,,,,1,,,59,0
1288560,note_on,240,0,2,,,,,,,,,1,,,60,0
1288560,note_on,0,0,4,,,,,,,,,3,,,48,88
1288560,note_on,240,0,4,,,,,,,,,3,,,36,0
1288560,note_on,0,0,2,,,,,,,,,1,,,62,88
1288800,note_on,0,0,3,,,,,,,,,2,,,50,0
1288800,note_on,0,0,4,,,,,,,,,3,,,36,88
1288800,note_on,0,0,2,,,,,,,,,1,,,60,88
1288800,note_on,240,0,2,,,,,,,,,1,,,62,0
1288800,note_on,480,0,3,,,,,,,,,2,,,53,0
1288800,note_on,240,0,4,,,,,,,,,3,,,48,0
1289040,note_on,0,0,2,,,,,,,,,1,,,62,88
1289040,note_on,240,0,2,,,,,,,,,1,,,60,0
1289040,note_on,0,0,4,,,,,,,,,3,,,48,88
1289040,note_on,240,0,4,,,,,,,,,3,,,36,0
1289280,note_on,240,0,4,,,,,,,,,3,,,48,0
1289280,note_on,0,0,4,,,,,,,,,3,,,36,88
1289280,note_on,0,0,2,,,,,,,,,1,,,64,88
1289280,note_on,240,0,2,,,,,,,,,1,,,62,0
1289280,note_on,1440,0,1,,,,,,,,,0,,,81,0
1289280,note_on,0,0,1,,,,,,,,,0,,,69,0
1289280,note_on,0,0,1,,,,,,,,,0,,,70,101
1289280,note_on,0,0,1,,,,,,,,,0,,,82,101
1289327,note_on,47,0,1,,,,,,,,,0,,,82,0
1289327,note_on,0,0,1,,,,,,,,,0,,,70,0
1289520,control_change,0,0,2,,,,,,,,,1,64,0,,
1289520,note_on,240,0,2,,,,,,,,,1,,,64,0
1289520,note_on,240,0,4,,,,,,,,,3,,,36,0
1289520,note_on,0,0,4,,,,,,,,,3,,,48,88
1289520,note_on,0,0,2,,,,,,,,,1,,,65,88
1289760,control_change,0,0,2,,,,,,,,,1,64,127,,
1289760,note_on,960,0,3,,,,,,,,,2,,,50,127
1289760,note_on,0,0,2,,,,,,,,,1,,,65,88
1289760,note_on,240,0,2,,,,,,,,,1,,,65,0
1289760,note_on,0,0,4,,,,,,,,,3,,,36,88
1289760,note_on,240,0,4,,,,,,,,,3,,,48,0
1289760,note_on,433,0,1,,,,,,,,,0,,,70,127
1289760,note_on,0,0,1,,,,,,,,,0,,,82,127
1289760,note_on,0,0,3,,,,,,,,,2,,,53,127
1290000,note_on,0,0,4,,,,,,,,,3,,,48,88
1290000,note_on,240,0,4,,,,,,,,,3,,,36,0
1290000,note_on,240,0,2,,,,,,,,,1,,,65,0
1290000,note_on,0,0,2,,,,,,,,,1,,,64,88
1290240,note_on,0,0,1,,,,,,,,,0,,,79,101
1290240,note_on,480,0,1,,,,,,,,,0,,,82,0
1290240,note_on,0,0,1,,,,,,,,,0,,,70,0
1290240,note_on,0,0,1,,,,,,,,,0,,,67,101
1290240,note_on,0,0,3,,,,,,,,,2,,,55,101
1290240,note_on,0,0,3,,,,,,,,,2,,,50,0
1290240,note_on,480,0,3,,,,,,,,,2,,,53,0
1290240,note_on,0,0,4,,,,,,,,,3,,,36,88
1290240,note_on,0,0,2,,,,,,,,,1,,,62,88
1290240,note_on,240,0,2,,,,,,,,,1,,,64,0
1290240,note_on,240,0,4,,,,,,,,,3,,,48,0
1290240,note_on,0,0,3,,,,,,,,,2,,,52,101
1290480,note_on,0,0,1,,,,,,,,,0,,,67,0
1290480,note_on,0,0,3,,,,,,,,,2,,,52,0
1290480,note_on,240,0,2,,,,,,,,,1,,,62,0
1290480,note_on,240,0,3,,,,,,,,,2,,,55,0
1290480,note_on,0,0,4,,,,,,,,,3,,,48,88
1290480,note_on,240,0,4,,,,,,,,,3,,,36,0
1290480,note_on,240,0,1,,,,,,,,,0,,,79,0
1290480,note_on,0,0,2,,,,,,,,,1,,,64,88
1290720,note_on,240,0,2,,,,,,,,,1,,,64,0
1290720,note_on,0,0,2,,,,,,,,,1,,,60,88
1290720,note_on,240,0,1,,,,,,,,,0,,,67,127
1290720,note_on,0,0,4,,,,,,,,,3,,,36,88
1290720,note_on,240,0,4,,,,,,,,,3,,,48,0
1290720,note_on,0,0,1,,,,,,,,,0,,,79,127
1290720,note_on,240,0,3,,,,,,,,,2,,,52,127
1290720,note_on,0,0,3,,,,,,,,,2,,,55,127
1290960,note_on,0,0,2,,,,,,,,,1,,,62,88
1290960,note_on,240,0,4,,,,,,,,,3,,,36,0
1290960,note_on,0,0,4,,,,,,,,,3,,,48,88
1290960,note_on,240,0,2,,,,,,,,,1,,,60,0
1291200,note_on,480,0,1,,,,,,,,,0,,,79,0
1291200,note_on,0,0,1,,,,,,,,,0,,,67,0
1291200,note_on,0,0,1,,,,,,,,,0,,,80,101
1291200,note_on,0,0,1,,,,,,,,,0,,,68,101
1291200,note_on,240,0,2,,,,,,,,,1,,,62,0
1291200,note_on,0,0,3,,,,,,,,,2,,,52,101
1291200,note_on,0,0,3,,,,,,,,,2,,,48,101
1291200,note_on,0,0,4,,,,,,,,,3,,,36,88
1291200,note_on,240,0,4,,,,,,,,,3,,,48,0
1291200,note_on,480,0,3,,,,,,,,,2,,,55,0
1291200,note_on,0,0,2,,,,,,,,,1,,,64,88
1291200,note_on,0,0,3,,,,,,,,,2,,,52,0
1291440,note_on,240,0,1,,,,,,,,,0,,,80,0
1291440,note_on,240,0,3,,,,,,,,,2,,,52,0
1291440,note_on,0,0,3,,,,,,,,,2,,,48,0
1291440,note_on,240,0,2,,,,,,,,,1,,,64,0
1291440,note_on,240,0,4,,,,,,,,,3,,,36,0
1291440,note_on,0,0,2,,,,,,,,,1,,,65,88
1291440,note_on,0,0,4,,,,,,,,,3,,,48,88
1291440,note_on,0,0,1,,,,,,,,,0,,,68,0
1291440,control_change,0,0,2,,,,,,,,,1,64,0,,
1291680,note_on,240,0,2,,,,,,,,,1,,,65,0
1291680,control_change,0,0,2,,,,,,,,,1,64,127,,
1291680,note_on,240,0,3,,,,,,,,,2,,,48,101
1291680,note_on,0,0,4,,,,,,,,,3,,,36,88
1291680,note_on,240,0,4,,,,,,,,,3,,,48,0
1291680,note_on,0,0,3,,,,,,,,,2,,,52,101
1291680,note_on,240,0,1,,,,,,,,,0,,,80,127
1291680,note_on,0,0,2,,,,,,,,,1,,,67,88
1291920,note_on,240,0,2,,,,,,,,,1,,,67,0
1291920,note_on,0,0,2,,,,,,,,,1,,,68,88
1292160,note_on,480,0,1,,,,,,,,,0,,,80,0
1292160,note_on,0,0,4,,,,,,,,,3,,,36,88
1292160,note_on,0,0,2,,,,,,,,,1,,,70,88
1292160,note_on,480,0,4,,,,,,,,,3,,,36,0
1292160,note_on,0,0,1,,,,,,,,,0,,,77,101
1292160,note_on,0,0,3,,,,,,,,,2,,,53,101
1292160,note_on,0,0,3,,,,,,,,,2,,,49,101
1292160,note_on,0,0,3,,,,,,,,,2,,,48,0
1292160,note_on,480,0,3,,,,,,,,,2,,,52,0
1292160,note_on,240,0,2,,,,,,,,,1,,,68,0
1292400,note_on,240,0,1,,,,,,,,,0,,,77,0
1292400,note_on,0,0,2,,,,,,,,,1,,,71,88
1292400,note_on,240,0,2,,,,,,,,,1,,,70,0
1292640,note_on,480,0,3,,,,,,,,,2,,,53,0
1292640,note_on,240,0,2,,,,,,,,,1,,,71,0
1292640,note_on,0,0,3,,,,,,,,,2,,,49,0
1292640,note_on,240,0,1,,,,,,,,,0,,,77,101
1292640,note_on,480,0,4,,,,,,,,,3,,,36,0
1292640,note_on,0,0,3,,,,,,,,,2,,,48,101
1292640,note_on,0,0,3,,,,,,,,,2,,,53,101
1292640,note_on,0,0,4,,,,,,,,,3,,,36,88
1292640,note_on,0,0,2,,,,,,,,,1,,,72,88
1292880,note_on,240,0,2,,,,,,,,,1,,,72,0
1292880,note_on,0,0,2,,,,,,,,,1,,,73,88
1293120,note_on,480,0,4,,,,,,,,,3,,,36,0
1293120,note_on,0,0,4,,,,,,,,,3,,,36,88
1293120,note_on,480,0,1,,,,,,,,,0,,,77,0
1293120,note_on,0,0,3,,,,,,,,,2,,,47,101
1293120,note_on,0,0,3,,,,,,,,,2,,,53,101
1293120,note_on,480,0,3,,,,,,,,,2,,,53,0
1293120,note_on,240,0,2,,,,,,,,,1,,,73,0
1293120,note_on,0,0,2,,,,,,,,,1,,,74,88
1293120,note_on,0,0,1,,,,,,,,,0,,,79,101
1293120,note_on,0,0,3,,,,,,,,,2,,,48,0
1293360,note_on,240,0,2,,,,,,,,,1,,,74,0
1293360,note_on,240,0,1,,,,,,,,,0,,,79,0
1293360,note_on,0,0,2,,,,,,,,,1,,,77,88
1293600,note_on,0,0,4,,,,,,,,,3,,,36,101
1293600,note_on,480,0,4,,,,,,,,,3,,,36,0
1293600,note_on,240,0,1,,,,,,,,,0,,,72,101
1293600,note_on,0,0,3,,,,,,,,,2,,,52,88
1293600,note_on,0,0,3,,,,,,,,,2,,,47,0
1293600,note_on,480,0,3,,,,,,,,,2,,,53,0
1293600,note_on,0,0,2,,,,,,,,,1,,,76,88
1293600,control_change,0,0,2,,,,,,,,,1,64,0,,
1293600,note_on,240,0,2,,,,,,,,,1,,,77,0
1293840,note_on,0,0,3,,,,,,,,,2,,,50,88
1293840,note_on,240,0,3,,,,,,,,,2,,,52,0
1294080,note_on,240,0,3,,,,,,,,,2,,,50,0
1294080,note_on,480,0,4,,,,,,,,,3,,,36,0
1294080,note_on,0,0,4,,,,,,,,,3,,,36,101
1294080,note_on,480,0,1,,,,,,,,,0,,,72,0
1294080,note_on,0,0,3,,,,,,,,,2,,,52,88
1294080,note_on,0,0,1,,,,,,,,,0,,,72,88
1294080,note_on,0,0,4,,,,,,,,,3,,,48,101
1294080,note_on,480,0,2,,,,,,,,,1,,,76,0
1294320,note_on,240,0,3,,,,,,,,,2,,,52,0
1294320,note_on,0,0,1,,,,,,,,,0,,,84,88
1294320,note_on,240,0,1,,,,,,,,,0,,,72,0
1294320,note_on,0,0,3,,,,,,,,,2,,,53,88
1294560,note_on,0,0,3,,,,,,,,,2,,,52,88
1294560,note_on,240,0,3,,,,,,,,,2,,,53,0
1294560,note_on,0,0,1,,,,,,,,,0,,,72,88
1294560,note_on,240,0,1,,,,,,,,,0,,,84,0
1294800,note_on,240,0,3,,,,,,,,,2,,,52,0
1294800,note_on,0,0,1,,,,,,,,,0,,,84,88
1294800,note_on,240,0,1,,,,,,,,,0,,,72,0
1294800,note_on,0,0,3,,,,,,,,,2,,,53,88
1295040,note_on,0,0,1,,,,,,,,,0,,,72,88
1295040,note_on,0,0,4,,,,,,,,,3,,,36,0
1295040,note_on,0,0,4,,,,,,,,,3,,,37,101
1295040,note_on,960,0,4,,,,,,,,,3,,,48,0
1295040,note_on,240,0,1,,,,,,,,,0,,,84,0
1295040,note_on,0,0,4,,,,,,,,,3,,,49,101
1295040,note_on,0,0,3,,,,,,,,,2,,,55,88
1295040,note_on,240,0,3,,,,,,,,,2,,,53,0
1295280,note_on,240,0,1,,,,,,,,,0,,,72,0
1295280,note_on,0,0,1,,,,,,,,,0,,,84,88
1295280,note_on,240,0,3,,,,,,,,,2,,,55,0
1295280,note_on,0,0,3,,,,,,,,,2,,,56,88
1295520,note_on,240,0,3,,,,,,,,,2,,,56,0
1295520,note_on,0,0,3,,,,,,,,,2,,,58,88
1295520,note_on,0,0,4,,,,,,,,,3,,,37,0
1295520,note_on,480,0,4,,,,,,,,,3,,,49,0
1295520,note_on,0,0,4,,,,,,,,,3,,,37,127
1295520,note_on,0,0,4,,,,,,,,,3,,,49,127
1295520,note_on,0,0,1,,,,,,,,,0,,,72,88
1295520,note_on,0,0,2,,,,,,,,,1,,,68,101
1295520,note_on,1440,0,2,,,,,,,,,1,,,65,101
1295520,note_on,240,0,1,,,,,,,,,0,,,84,0
1295760,note_on,240,0,1,,,,,,,,,0,,,72,0
1295760,note_on,240,0,3,,,,,,,,,2,,,58,0
1295760,note_on,0,0,3,,,,,,,,,2,,,56,88
1295760,note_on,0,0,1,,,,,,,,,0,,,84,88
1296000,note_on,240,0,3,,,,,,,,,2,,,56,0
1296000,note_on,0,0,3,,,,,,,,,2,,,55,88
1296000,note_on,480,0,4,,,,,,,,,3,,,49,0
1296000,note_on,0,0,4,,,,,,,,,3,,,37,0
1296000,note_on,0,0,4,,,,,,,,,3,,,34,101
1296000,note_on,0,0,1,,,,,,,,,0,,,72,88
1296000,note_on,0,0,4,,,,,,,,,3,,,46,101
1296000,note_on,240,0,1,,,,,,,,,0,,,84,0
1296240,note_on,240,0,3,,,,,,,,,2,,,55,0
1296240,note_on,0,0,1,,,,,,,,,0,,,84,88
1296240,note_on,240,0,1,,,,,,,,,0,,,72,0
1296240,note_on,0,0,3,,,,,,,,,2,,,56,88
1296480,note_on,0,0,4,,,,,,,,,3,,,34,0
1296480,note_on,480,0,4,,,,,,,,,3,,,46,0
1296480,note_on,240,0,3,,,,,,,,,2,,,56,0
1296480,note_on,0,0,3,,,,,,,,,2,,,58,88
1296480,note_on,0,0,1,,,,,,,,,0,,,72,88
1296480,note_on,240,0,1,,,,,,,,,0,,,84,0
1296720,note_on,0,0,1,,,,,,,,,0,,,84,88
1296720,note_on,0,0,3,,,,,,,,,2,,,56,88
1296720,note_on,240,0,3,,,,,,,,,2,,,58,0
1296720,note_on,240,0,1,,,,,,,,,0,,,72,0
1296960,note_on,0,0,3,,,,,,,,,2,,,55,88
1296960,note_on,240,0,1,,,,,,,,,0,,,84,0
1296960,note_on,0,0,1,,,,,,,,,0,,,72,88
1296960,note_on,0,0,2,,,,,,,,,1,,,70,101
1296960,note_on,0,0,2,,,,,,,,,1,,,67,101
1296960,note_on,0,0,2,,,,,,,,,1,,,65,0
1296960,note_on,1440,0,2,,,,,,,,,1,,,68,0
1296960,note_on,240,0,3,,,,,,,,,2,,,56,0
1297200,note_on,240,0,3,,,,,,,,,2,,,55,0
1297200,note_on,0,0,3,,,,,,,,,2,,,53,88
1297200,note_on,240,0,1,,,,,,,,,0,,,72,0
1297200,note_on,0,0,1,,,,,,,,,0,,,84,88
1297440,note_on,0,0,4,,,,,,,,,3,,,46,101
1297440,note_on,0,0,3,,,,,,,,,2,,,52,88
1297440,note_on,240,0,3,,,,,,,,,2,,,53,0
1297440,note_on,960,0,4,,,,,,,,,3,,,34,101
1297440,note_on,240,0,1,,,,,,,,,0,,,84,0
1297440,note_on,0,0,1,,,,,,,,,0,,,72,88
1297440,note_on,0,0,2,,,,,,,,,1,,,67,101
1297440,note_on,480,0,2,,,,,,,,,1,,,70,0
1297440,note_on,0,0,2,,,,,,,,,1,,,67,0
1297440,note_on,0,0,2,,,,,,,,,1,,,70,101
1297680,note_on,0,0,1,,,,,,,,,0,,,84,88
1297680,note_on,240,0,1,,,,,,,,,0,,,72,0
1297680,note_on,0,0,3,,,,,,,,,2,,,48,88
1297680,note_on,240,0,3,,,,,,,,,2,,,52,0
1297920,note_on,0,0,3,,,,,,,,,2,,,50,88
1297920,note_on,240,0,3,,,,,,,,,2,,,48,0
1297920,note_on,0,0,2,,,,,,,,,1,,,67,101
1297920,note_on,0,0,2,,,,,,,,,1,,,64,101
1297920,note_on,0,0,2,,,,,,,,,1,,,67,0
1297920,note_on,480,0,2,,,,,,,,,1,,,70,0
1297920,note_on,0,0,1,,,,,,,,,0,,,72,88
1297920,note_on,240,0,1,,,,,,,,,0,,,84,0
1298160,note_on,0,0,1,,,,,,,,,0,,,84,88
1298160,note_on,240,0,1,,,,,,,,,0,,,72,0
1298160,note_on,240,0,3,,,,,,,,,2,,,50,0
1298160,note_on,0,0,3,,,,,,,,,2,,,52,88
1298400,note_on,0,0,2,,,,,,,,,1,,,64,0
1298400,note_on,480,0,2,,,,,,,,,1,,,67,0
1298400,note_on,0,0,3,,,,,,,,,2,,,50,88
1298400,note_on,240,0,3,,,,,,,,,2,,,52,0
1298400,note_on,240,0,1,,,,,,,,,0,,,84,0
1298400,note_on,0,0,1,,,,,,,,,0,,,72,88
1298640,note_on,0,0,3,,,,,,,,,2,,,52,88
1298640,note_on,240,0,3,,,,,,,,,2,,,50,0
1298640,note_on,240,0,1,,,,,,,,,0,,,72,0
1298640,note_on,0,0,1,,,,,,,,,0,,,84,88
1298880,note_on,240,0,3,,,,,,,,,2,,,52,0
1298880,note_on,1440,0,4,,,,,,,,,3,,,46,0
1298880,note_on,0,0,4,,,,,,,,,3,,,34,0
1298880,note_on,0,0,4,,,,,,,,,3,,,36,101
1298880,note_on,0,0,4,,,,,,,,,3,,,48,101
1298880,note_on,0,0,3,,,,,,,,,2,,,53,88
1298880,note_on,0,0,1,,,,,,,,,0,,,72,88
1298880,note_on,240,0,1,,,,,,,,,0,,,84,0
1299120,note_on,0,0,3,,,,,,,,,2,,,55,88
1299120,note_on,0,0,1,,,,,,,,,0,,,84,88
1299120,note_on,240,0,3,,,,,,,,,2,,,53,0
1299120,note_on,240,0,1,,,,,,,,,0,,,72,0
1299360,note_on,480,0,4,,,,,,,,,3,,,48,0
1299360,note_on,0,0,4,,,,,,,,,3,,,36,0
1299360,note_on,0,0,4,,,,,,,,,3,,,48,127
1299360,note_on,0,0,2,,,,,,,,,1,,,67,101
1299360,note_on,0,0,4,,,,,,,,,3,,,36,127
1299360,note_on,240,0,3,,,,,,,,,2,,,55,0
1299360,note_on,0,0,3,,,,,,,,,2,,,56,88
1299360,note_on,0,0,1,,,,,,,,,0,,,72,88
1299360,note_on,240,0,1,,,,,,,,,0,,,84,0
1299360,note_on,960,0,2,,,,,,,,,1,,,64,101
1299600,note_on,0,0,3,,,,,,,,,2,,,55,88
1299600,note_on,240,0,3,,,,,,,,,2,,,56,0
1299600,note_on,0,0,1,,,,,,,,,0,,,84,88
1299600,note_on,240,0,1,,,,,,,,,0,,,72,0
1299840,note_on,0,0,3,,,,,,,,,2,,,53,88
1299840,note_on,0,0,4,,,,,,,,,3,,,44,101
1299840,note_on,0,0,4,,,,,,,,,3,,,32,101
1299840,note_on,0,0,4,,,,,,,,,3,,,36,0
1299840,note_on,240,0,1,,,,,,,,,0,,,84,0
1299840,note_on,0,0,1,,,,,,,,,0,,,72,88
1299840,note_on,480,0,4,,,,,,,,,3,,,48,0
1299840,note_on,240,0,3,,,,,,,,,2,,,55,0
1300080,note_on,0,0,1,,,,,,,,,0,,,84,88
1300080,note_on,240,0,1,,,,,,,,,0,,,72,0
1300080,note_on,240,0,3,,,,,,,,,2,,,53,0
1300080,note_on,0,0,3,,,,,,,,,2,,,55,88
1300320,note_on,0,0,1,,,,,,,,,0,,,72,88
1300320,note_on,0,0,4,,,,,,,,,3,,,32,0
1300320,note_on,240,0,1,,,,,,,,,0,,,84,0
1300320,note_on,240,0,3,,,,,,,,,2,,,55,0
1300320,note_on,0,0,3,,,,,,,,,2,,,56,88
1300320,note_on,480,0,4,,,,,,,,,3,,,44,0
1300560,note_on,0,0,3,,,,,,,,,2,,,55,88
1300560,note_on,240,0,1,,,,,,,,,0,,,72,0
1300560,note_on,0,0,1,,,,,,,,,0,,,84,88
1300560,note_on,240,0,3,,,,,,,,,2,,,56,0
1300800,note_on,240,0,1,,,,,,,,,0,,,84,0
1300800,note_on,0,0,1,,,,,,,,,0,,,72,88
1300800,note_on,0,0,2,,,,,,,,,1,,,65,101
1300800,note_on,0,0,2,,,,,,,,,1,,,68,101
1300800,note_on,1440,0,2,,,,,,,,,1,,,67,0
1300800,note_on,0,0,3,,,,,,,,,2,,,53,88
1300800,note_on,240,0,3,,,,,,,,,2,,,55,0
1300800,note_on,0,0,2,,,,,,,,,1,,,64,0
1301040,note_on,0,0,1,,,,,,,,,0,,,84,88
1301040,note_on,240,0,1,,,,,,,,,0,,,72,0
1301040,note_on,0,0,3,,,,,,,,,2,,,52,88
1301040,note_on,240,0,3,,,,,,,,,2,,,53,0
1301280,note_on,0,0,3,,,,,,,,,2,,,50,88
1301280,note_on,480,0,2,,,,,,,,,1,,,68,0
1301280,note_on,960,0,4,,,,,,,,,3,,,32,101
1301280,note_on,240,0,3,,,,,,,,,2,,,52,0
1301280,note_on,0,0,4,,,,,,,,,3,,,44,101
1301280,note_on,0,0,2,,,,,,,,,1,,,65,101
1301280,note_on,0,0,2,,,,,,,,,1,,,68,101
1301280,note_on,0,0,2,,,,,,,,,1,,,65,0
1301280,note_on,240,0,1,,,,,,,,,0,,,84,0
1301280,note_on,0,0,1,,,,,,,,,0,,,72,88
1301520,note_on,240,0,1,,,,,,,,,0,,,72,0
1301520,note_on,0,0,1,,,,,,,,,0,,,84,88
1301520,note_on,0,0,3,,,,,,,,,2,,,47,88
1301520,note_on,240,0,3,,,,,,,,,2,,,50,0
1301760,note_on,240,0,3,,,,,,,,,2,,,47,0
1301760,note_on,0,0,2,,,,,,,,,1,,,62,101
1301760,note_on,0,0,2,,,,,,,,,1,,,65,101
1301760,note_on,0,0,3,,,,,,,,,2,,,48,88
1301760,note_on,0,0,2,,,,,,,,,1,,,65,0
1301760,note_on,480,0,2,,,,,,,,,1,,,68,0
1301760,note_on,240,0,1,,,,,,,,,0,,,84,0
1301760,note_on,0,0,1,,,,,,,,,0,,,72,88
1302000,note_on,0,0,1,,,,,,,,,0,,,84,88
1302000,note_on,240,0,1,,,,,,,,,0,,,72,0
1302000,note_on,240,0,3,,,,,,,,,2,,,48,0
1302000,note_on,0,0,3,,,,,,,,,2,,,50,88
1302240,note_on,0,0,1,,,,,,,,,0,,,72,88
1302240,note_on,240,0,1,,,,,,,,,0,,,84,0
1302240,note_on,240,0,3,,,,,,,,,2,,,50,0
1302240,note_on,0,0,3,,,,,,,,,2,,,48,88
1302240,note_on,480,0,2,,,,,,,,,1,,,65,0
1302240,note_on,0,0,2,,,,,,,,,1,,,62,0
1302480,note_on,240,0,3,,,,,,,,,2,,,48,0
1302480,note_on,0,0,1,,,,,,,,,0,,,84,88
1302480,note_on,240,0,1,,,,,,,,,0,,,72,0
1302480,note_on,0,0,3,,,,,,,,,2,,,50,88
1302720,note_on,0,0,4,,,,,,,,,3,,,34,101
1302720,note_on,0,0,4,,,,,,,,,3,,,46,101
1302720,note_on,0,0,3,,,,,,,,,2,,,52,88
1302720,note_on,0,0,1,,,,,,,,,0,,,72,88
1302720,note_on,240,0,1,,,,,,,,,0,,,84,0
1302720,note_on,0,0,4,,,,,,,,,3,,,32,0
1302720,note_on,240,0,3,,,,,,,,,2,,,50,0
1302720,note_on,1440,0,4,,,,,,,,,3,,,44,0
1302960,note_on,0,0,1,,,,,,,,,0,,,84,88
1302960,note_on,240,0,1,,,,,,,,,0,,,72,0
1302960,note_on,0,0,3,,,,,,,,,2,,,53,88
1302960,note_on,240,0,3,,,,,,,,,2,,,52,0
1303200,note_on,0,0,1,,,,,,,,,0,,,72,88
1303200,note_on,960,0,2,,,,,,,,,1,,,62,127
1303200,note_on,0,0,2,,,,,,,,,1,,,65,127
1303200,note_on,0,0,4,,,,,,,,,3,,,46,127
1303200,note_on,0,0,4,,,,,,,,,3,,,34,0
1303200,note_on,480,0,4,,,,,,,,,3,,,46,0
1303200,note_on,240,0,1,,,,,,,,,0,,,84,0
1303200,note_on,0,0,4,,,,,,,,,3,,,34,127
1303200,note_on,0,0,3,,,,,,,,,2,,,53,88
1303200,note_on,240,0,3,,,,,,,,,2,,,53,0
1303440,note_on,240,0,1,,,,,,,,,0,,,72,0
1303440,note_on,0,0,3,,,,,,,,,2,,,52,88
1303440,note_on,240,0,3,,,,,,,,,2,,,53,0
1303440,note_on,0,0,1,,,,,,,,,0,,,84,88
1303680,note_on,0,0,4,,,,,,,,,3,,,43,101
1303680,note_on,480,0,2,,,,,,,,,1,,,65,0
1303680,note_on,0,0,3,,,,,,,,,2,,,50,88
1303680,note_on,240,0,3,,,,,,,,,2,,,52,0
1303680,note_on,0,0,2,,,,,,,,,1,,,62,0
1303680,note_on,0,0,4,,,,,,,,,3,,,31,101
1303680,note_on,0,0,4,,,,,,,,,3,,,34,0
1303680,note_on,480,0,4,,,,,,,,,3,,,46,0
1303680,note_on,0,0,2,,,,,,,,,1,,,64,101
1303680,note_on,0,0,1,,,,,,,,,0,,,72,88
1303680,note_on,0,0,2,,,,,,,,,1,,,67,101
1303680,note_on,240,0,1,,,,,,,,,0,,,84,0
1303920,note_on,240,0,1,,,,,,,,,0,,,72,0
1303920,note_on,0,0,3,,,,,,,,,2,,,52,88
1303920,note_on,240,0,3,,,,,,,,,2,,,50,0
1303920,note_on,0,0,1,,,,,,,,,0,,,84,88
1304160,note_on,0,0,4,,,,,,,,,3,,,31,127
1304160,note_on,0,0,4,,,,,,,,,3,,,31,0
1304160,note_on,480,0,4,,,,,,,,,3,,,43,0
1304160,note_on,0,0,3,,,,,,,,,2,,,48,88
1304160,note_on,240,0,3,,,,,,,,,2,,,52,0
1304160,note_on,0,0,4,,,,,,,,,3,,,43,127
1304160,note_on,0,0,2,,,,,,,,,1,,,67,127
1304160,note_on,0,0,2,,,,,,,,,1,,,64,127
1304160,note_on,0,0,2,,,,,,,,,1,,,64,0
1304160,note_on,0,0,1,,,,,,,,,0,,,72,88
1304160,note_on,240,0,1,,,,,,,,,0,,,84,0
1304160,note_on,480,0,2,,,,,,,,,1,,,67,0
1304400,note_on,240,0,3,,,,,,,,,2,,,48,0
1304400,note_on,240,0,1,,,,,,,,,0,,,72,0
1304400,note_on,0,0,1,,,,,,,,,0,,,84,88
1304400,note_on,0,0,3,,,,,,,,,2,,,50,88
1304640,note_on,0,0,3,,,,,,,,,2,,,52,88
1304640,note_on,0,0,4,,,,,,,,,3,,,44,101
1304640,note_on,0,0,4,,,,,,,,,3,,,32,101
1304640,note_on,0,0,4,,,,,,,,,3,,,31,0
1304640,note_on,480,0,4,,,,,,,,,3,,,43,0
1304640,note_on,240,0,3,,,,,,,,,2,,,50,0
1304640,note_on,0,0,2,,,,,,,,,1,,,64,0
1304640,note_on,0,0,2,,,,,,,,,1,,,64,101
1304640,note_on,0,0,2,,,,,,,,,1,,,60,101
1304640,note_on,0,0,1,,,,,,,,,0,,,72,88
1304640,note_on,240,0,1,,,,,,,,,0,,,84,0
1304640,note_on,480,0,2,,,,,,,,,1,,,67,0
1304880,note_on,0,0,3,,,,,,,,,2,,,53,88
1304880,note_on,240,0,3,,,,,,,,,2,,,52,0
1304880,note_on,240,0,1,,,,,,,,,0,,,72,0
1304880,note_on,0,0,1,,,,,,,,,0,,,84,88
1305120,note_on,480,0,2,,,,,,,,,1,,,64,0
1305120,note_on,0,0,2,,,,,,,,,1,,,60,0
1305120,note_on,240,0,1,,,,,,,,,0,,,84,0
1305120,note_on,240,0,3,,,,,,,,,2,,,53,0
1305120,note_on,0,0,3,,,,,,,,,2,,,55,88
1305120,note_on,0,0,1,,,,,,,,,0,,,72,88
1305120,note_on,0,0,4,,,,,,,,,3,,,32,0
1305120,note_on,0,0,4,,,,,,,,,3,,,32,127
1305120,note_on,480,0,4,,,,,,,,,3,,,44,0
1305120,note_on,0,0,2,,,,,,,,,1,,,64,101
1305120,note_on,0,0,4,,,,,,,,,3,,,44,127
1305120,note_on,0,0,2,,,,,,,,,1,,,60,101
1305360,note_on,0,0,3,,,,,,,,,2,,,56,88
1305360,note_on,240,0,3,,,,,,,,,2,,,55,0
1305360,note_on,0,0,1,,,,,,,,,0,,,84,88
1305360,note_on,240,0,1,,,,,,,,,0,,,72,0
1305600,note_on,0,0,2,,,,,,,,,1,,,65,101
1305600,note_on,0,0,2,,,,,,,,,1,,,61,101
1305600,note_on,0,0,2,,,,,,,,,1,,,60,0
1305600,note_on,240,0,3,,,,,,,,,2,,,56,0
1305600,note_on,480,0,2,,,,,,,,,1,,,64,0
1305600,note_on,0,0,4,,,,,,,,,3,,,32,0
1305600,note_on,240,0,1,,,,,,,,,0,,,84,0
1305600,note_on,0,0,1,,,,,,,,,0,,,72,88
1305600,note_on,0,0,4,,,,,,,,,3,,,29,101
1305600,note_on,0,0,3,,,,,,,,,2,,,44,88
1305600,note_on,0,0,4,,,,,,,,,3,,,41,101
1305600,note_on,480,0,4,,,,,,,,,3,,,44,0
1305840,note_on,0,0,3,,,,,,,,,2,,,46,88
1305840,note_on,240,0,3,,,,,,,,,2,,,44,0
1305840,note_on,0,0,1,,,,,,,,,0,,,84,88
1305840,note_on,240,0,1,,,,,,,,,0,,,72,0
1306080,note_on,0,0,2,,,,,,,,,1,,,60,101
1306080,note_on,0,0,4,,,,,,,,,3,,,41,127
1306080,note_on,0,0,4,,,,,,,,,3,,,29,127
1306080,note_on,0,0,4,,,,,,,,,3,,,29,0
1306080,note_on,0,0,2,,,,,,,,,1,,,65,101
1306080,note_on,0,0,2,,,,,,,,,1,,,61,0
1306080,note_on,480,0,2,,,,,,,,,1,,,65,0
1306080,note_on,480,0,4,,,,,,,,,3,,,41,0
1306080,note_on,0,0,1,,,,,,,,,0,,,72,88
1306080,note_on,240,0,3,,,,,,,,,2,,,46,0
1306080,note_on,0,0,3,,,,,,,,,2,,,48,88
1306080,note_on,240,0,1,,,,,,,,,0,,,84,0
1306320,note_on,240,0,3,,,,,,,,,2,,,48,0
1306320,note_on,0,0,3,,,,,,,,,2,,,49,88
1306320,note_on,0,0,1,,,,,,,,,0,,,84,88
1306320,note_on,240,0,1,,,,,,,,,0,,,72,0
1306560,note_on,0,0,4,,,,,,,,,3,,,29,0
1306560,note_on,480,0,4,,,,,,,,,3,,,41,0
1306560,note_on,0,0,1,,,,,,,,,0,,,71,88
1306560,note_on,0,0,2,,,,,,,,,1,,,59,101
1306560,note_on,0,0,4,,,,,,,,,3,,,31,101
1306560,note_on,0,0,2,,,,,,,,,1,,,60,0
1306560,note_on,480,0,2,,,,,,,,,1,,,65,0
1306560,note_on,0,0,3,,,,,,,,,2,,,50,88
1306560,note_on,240,0,3,,,,,,,,,2,,,49,0
1306560,note_on,0,0,2,,,,,,,,,1,,,65,101
1306560,note_on,0,0,4,,,,,,,,,3,,,43,101
1306560,note_on,240,0,1,,,,,,,,,0,,,84,0
1306800,note_on,0,0,3,,,,,,,,,2,,,53,88
1306800,note_on,240,0,3,,,,,,,,,2,,,50,0
1306800,note_on,240,0,1,,,,,,,,,0,,,71,0
1306800,note_on,0,0,1,,,,,,,,,0,,,83,88
1307040,note_on,240,0,1,,,,,,,,,0,,,83,0
1307040,note_on,480,0,2,,,,,,,,,1,,,65,0
1307040,note_on,0,0,2,,,,,,,,,1,,,59,0
1307040,note_on,0,0,2,,,,,,,,,1,,,60,101
1307040,note_on,0,0,2,,,,,,,,,1,,,64,101
1307040,note_on,240,0,3,,,,,,,,,2,,,53,0
1307040,note_on,0,0,1,,,,,,,,,0,,,72,101
1307040,note_on,0,0,1,,,,,,,,,0,,,84,101
1307040,note_on,0,0,3,,,,,,,,,2,,,48,101
1307040,note_on,480,0,4,,,,,,,,,3,,,43,0
1307040,note_on,0,0,4,,,,,,,,,3,,,36,101
1307040,note_on,0,0,4,,,,,,,,,3,,,31,0
1307520,note_on,480,0,4,,,,,,,,,3,,,36,0
1307520,note_on,480,0,1,,,,,,,,,0,,,84,0
1307520,note_on,0,0,1,,,,,,,,,0,,,72,0
1307520,note_on,0,0,1,,,,,,,,,0,,,73,127
1307520,note_on,0,0,4,,,,,,,,,3,,,37,127
1307520,note_on,0,0,2,,,,,,,,,1,,,61,127
1307520,note_on,480,0,2,,,,,,,,,1,,,64,0
1307520,note_on,0,0,3,,,,,,,,,2,,,49,127
1307520,note_on,480,0,3,,,,,,,,,2,,,48,0
1307520,note_on,0,0,2,,,,,,,,,1,,,60,0
1308480,note_on,0,0,4,,,,,,,,,3,,,37,101
1308480,note_on,0,0,3,,,,,,,,,2,,,49,101
1308480,note_on,960,0,3,,,,,,,,,2,,,49,0
1308480,note_on,0,0,2,,,,,,,,,1,,,61,101
1308480,note_on,960,0,2,,,,,,,,,1,,,61,0
1308480,note_on,960,0,4,,,,,,,,,3,,,37,0
1308480,note_on,960,0,1,,,,,,,,,0,,,73,0
1308480,note_on,0,0,1,,,,,,,,,0,,,73,101
1308960,note_on,480,0,2,,,,,,,,,1,,,61,0
1308960,note_on,0,0,3,,,,,,,,,2,,,49,75
1308960,note_on,0,0,1,,,,,,,,,0,,,73,75
1308960,note_on,0,0,2,,,,,,,,,1,,,61,75
1308960,control_change,0,0,2,,,,,,,,,1,64,127,,
1308960,note_on,0,0,4,,,,,,,,,3,,,37,75
1308960,note_on,480,0,4,,,,,,,,,3,,,37,0
1308960,control_change,0,0,3,,,,,,,,,2,64,127,,
1308960,control_change,0,0,1,,,,,,,,,0,64,127,,
1308960,note_on,480,0,1,,,,,,,,,0,,,73,0
1308960,control_change,0,0,4,,,,,,,,,3,64,127,,
1308960,note_on,480,0,3,,,,,,,,,2,,,49,0
1309440,note_on,480,0,2,,,,,,,,,1,,,61,0
1309440,note_on,0,0,2,,,,,,,,,1,,,66,88
1309440,note_on,480,0,4,,,,,,,,,3,,,37,0
1309440,note_on,0,0,3,,,,,,,,,2,,,54,88
1309440,note_on,480,0,1,,,,,,,,,0,,,73,0
1309440,note_on,0,0,1,,,,,,,,,0,,,78,88
1309440,note_on,480,0,3,,,,,,,,,2,,,49,0
1309440,note_on,0,0,4,,,,,,,,,3,,,42,88
1309920,note_on,480,0,2,,,,,,,,,1,,,66,0
1309920,note_on,480,0,4,,,,,,,,,3,,,42,0
1309920,note_on,0,0,3,,,,,,,,,2,,,56,101
1309920,note_on,0,0,1,,,,,,,,,0,,,80,101
1309920,note_on,480,0,1,,,,,,,,,0,,,78,0
1309920,note_on,480,0,3,,,,,,,,,2,,,54,0
1309920,note_on,0,0,2,,,,,,,,,1,,,68,101
1309920,note_on,0,0,4,,,,,,,,,3,,,44,101
1310400,note_on,480,0,4,,,,,,,,,3,,,44,0
1310400,control_change,0,0,4,,,,,,,,,3,64,0,,
1310400,note_on,0,0,4,,,,,,,,,3,,,46,101
1310400,note_on,0,0,2,,,,,,,,,1,,,70,101
1310400,control_change,0,0,2,,,,,,,,,1,64,0,,
1310400,note_on,480,0,1,,,,,,,,,0,,,80,0
1310400,note_on,0,0,3,,,,,,,,,2,,,58,101
1310400,note_on,480,0,3,,,,,,,,,2,,,56,0
1310400,note_on,0,0,1,,,,,,,,,0,,,82,101
1310400,control_change,0,0,1,,,,,,,,,0,64,0,,
1310400,control_change,0,0,3,,,,,,,,,2,64,0,,
1310400,note_on,480,0,2,,,,,,,,,1,,,68,0
1310880,note_on,480,0,3,,,,,,,,,2,,,58,0
1310880,note_on,0,0,3,,,,,,,,,2,,,60,101
1310880,note_on,480,0,2,,,,,,,,,1,,,70,0
1310880,note_on,0,0,2,,,,,,,,,1,,,72,101
1310880,note_on,0,0,1,,,,,,,,,0,,,84,101
1310880,note_on,0,0,4,,,,,,,,,3,,,48,101
1310880,note_on,480,0,4,,,,,,,,,3,,,46,0
1310880,note_on,480,0,1,,,,,,,,,0,,,82,0
1310976,note_on,96,0,2,,,,,,,,,1,,,72,0
1310976,note_on,96,0,3,,,,,,,,,2,,,60,0
1310976,note_on,96,0,4,,,,,,,,,3,,,48,0
1310976,note_on,96,0,1,,,,,,,,,0,,,84,0
1311840,note_on,0,0,4,,,,,,,,,3,,,41,127
1311840,note_on,864,0,1,,,,,,,,,0,,,77,127
1311840,note_on,0,0,1,,,,,,,,,0,,,84,127
1311840,note_on,0,0,1,,,,,,,,,0,,,80,127
1311840,note_on,864,0,4,,,,,,,,,3,,,36,127
1311840,note_on,0,0,2,,,,,,,,,1,,,72,127
1311840,note_on,0,0,2,,,,,,,,,1,,,68,127
1311840,note_on,864,0,2,,,,,,,,,1,,,65,127
1311840,note_on,864,0,3,,,,,,,,,2,,,48,127
1311840,note_on,0,0,3,,,,,,,,,2,,,53,127
1311840,note_on,0,0,3,,,,,,,,,2,,,60,127
1311936,note_on,96,0,1,,,,,,,,,0,,,84,0
1311936,note_on,0,0,2,,,,,,,,,1,,,65,0
1311936,note_on,0,0,2,,,,,,,,,1,,,68,0
1311936,note_on,96,0,2,,,,,,,,,1,,,72,0
1311936,note_on,96,0,3,,,,,,,,,2,,,60,0
1311936,note_on,0,0,3,,,,,,,,,2,,,53,0
1311936,note_on,0,0,3,,,,,,,,,2,,,48,0
1311936,note_on,0,0,1,,,,,,,,,0,,,80,0
1311936,note_on,96,0,4,,,,,,,,,3,,,41,0
1311936,note_on,0,0,4,,,,,,,,,3,,,36,0
1311936,note_on,0,0,1,,,,,,,,,0,,,77,0
1312800,note_on,0,0,3,,,,,,,,,2,,,55,127
1312800,note_on,0,0,3,,,,,,,,,2,,,60,127
1312800,note_on,864,0,4,,,,,,,,,3,,,36,127
1312800,note_on,0,0,4,,,,,,,,,3,,,43,127
1312800,note_on,0,0,1,,,,,,,,,0,,,84,127
1312800,note_on,0,0,1,,,,,,,,,0,,,82,127
1312800,note_on,864,0,1,,,,,,,,,0,,,76,127
1312800,note_on,864,0,2,,,,,,,,,1,,,64,127
1312800,note_on,0,0,2,,,,,,,,,1,,,70,127
1312800,note_on,864,0,3,,,,,,,,,2,,,48,127
1312800,note_on,0,0,2,,,,,,,,,1,,,72,127
1312896,note_on,96,0,2,,,,,,,,,1,,,72,0
1312896,note_on,96,0,4,,,,,,,,,3,,,43,0
1312896,note_on,0,0,3,,,,,,,,,2,,,55,0
1312896,note_on,96,0,3,,,,,,,,,2,,,60,0
1312896,note_on,0,0,1,,,,,,,,,0,,,76,0
1312896,note_on,0,0,1,,,,,,,,,0,,,82,0
1312896,note_on,0,0,3,,,,,,,,,2,,,48,0
1312896,note_on,0,0,4,,,,,,,,,3,,,36,0
1312896,note_on,0,0,2,,,,,,,,,1,,,64,0
1312896,note_on,0,0,2,,,,,,,,,1,,,70,0
1312896,note_on,96,0,1,,,,,,,,,0,,,84,0
1313760,note_on,0,0,1,,,,,,,,,0,,,84,127
1313760,note_on,0,0,1,,,,,,,,,0,,,83,127
1313760,note_on,0,0,2,,,,,,,,,1,,,72,127
1313760,note_on,0,0,3,,,,,,,,,2,,,60,127
1313760,note_on,0,0,3,,,,,,,,,2,,,56,127
1313760,note_on,864,0,3,,,,,,,,,2,,,48,127
1313760,note_on,864,0,2,,,,,,,,,1,,,62,127
1313760,note_on,0,0,2,,,,,,,,,1,,,65,127
1313760,note_on,0,0,1,,,,,,,,,0,,,77,127
1313760,note_on,0,0,2,,,,,,,,,1,,,71,127
1313760,note_on,0,0,4,,,,,,,,,3,,,44,127
1313760,note_on,864,0,4,,,,,,,,,3,,,36,127
1313760,note_on,864,0,1,,,,,,,,,0,,,74,127
1313856,note_on,0,0,4,,,,,,,,,3,,,36,0
1313856,note_on,96,0,4,,,,,,,,,3,,,44,0
1313856,note_on,96,0,1,,,,,,,,,0,,,84,0
1313856,note_on,0,0,1,,,,,,,,,0,,,74,0
1313856,note_on,96,0,2,,,,,,,,,1,,,72,0
1313856,note_on,0,0,3,,,,,,,,,2,,,48,0
1313856,note_on,0,0,3,,,,,,,,,2,,,56,0
1313856,note_on,0,0,1,,,,,,,,,0,,,83,0
1313856,note_on,0,0,1,,,,,,,,,0,,,77,0
1313856,note_on,0,0,2,,,,,,,,,1,,,71,0
1313856,note_on,0,0,2,,,,,,,,,1,,,65,0
1313856,note_on,0,0,2,,,,,,,,,1,,,62,0
1313856,note_on,96,0,3,,,,,,,,,2,,,60,0
1314720,note_on,0,0,4,,,,,,,,,3,,,43,101
1314720,note_on,864,0,4,,,,,,,,,3,,,36,101
1314720,note_on,0,0,3,,,,,,,,,2,,,55,101
1314720,note_on,0,0,1,,,,,,,,,0,,,84,101
1314720,note_on,0,0,3,,,,,,,,,2,,,60,101
1314720,note_on,864,0,3,,,,,,,,,2,,,48,101
1314720,note_on,0,0,1,,,,,,,,,0,,,79,101
1314720,note_on,864,0,1,,,,,,,,,0,,,76,101
1314720,note_on,864,0,2,,,,,,,,,1,,,64,101
1314720,note_on,0,0,2,,,,,,,,,1,,,67,101
1314720,note_on,0,0,2,,,,,,,,,1,,,72,101
1314767,note_on,0,0,1,,,,,,,,,0,,,79,0
1314767,note_on,47,0,1,,,,,,,,,0,,,84,0
1314767,note_on,0,0,2,,,,,,,,,1,,,64,0
1314767,note_on,0,0,2,,,,,,,,,1,,,67,0
1314767,note_on,47,0,2,,,,,,,,,1,,,72,0
1314767,note_on,0,0,1,,,,,,,,,0,,,76,0
1315200,note_on,433,0,1,,,,,,,,,0,,,61,127
1315200,note_on,0,0,4,,,,,,,,,3,,,37,127
1315200,note_on,480,0,3,,,,,,,,,2,,,60,0
1315200,note_on,0,0,3,,,,,,,,,2,,,55,0
1315200,note_on,0,0,3,,,,,,,,,2,,,48,0
1315200,note_on,0,0,3,,,,,,,,,2,,,49,127
1315200,note_on,480,0,4,,,,,,,,,3,,,43,0
1315200,note_on,0,0,4,,,,,,,,,3,,,36,0
1316160,note_on,0,0,1,,,,,,,,,0,,,61,101
1316160,note_on,0,0,3,,,,,,,,,2,,,49,101
1316160,note_on,0,0,4,,,,,,,,,3,,,37,101
1316160,note_on,960,0,1,,,,,,,,,0,,,61,0
1316160,note_on,960,0,3,,,,,,,,,2,,,49,0
1316160,note_on,960,0,4,,,,,,,,,3,,,37,0
1316640,note_on,0,0,1,,,,,,,,,0,,,61,101
1316640,note_on,0,0,3,,,,,,,,,2,,,49,101
1316640,control_change,0,0,3,,,,,,,,,2,64,127,,
1316640,note_on,480,0,3,,,,,,,,,2,,,49,0
1316640,control_change,0,0,1,,,,,,,,,0,64,127,,
1316640,note_on,0,0,4,,,,,,,,,3,,,37,101
1316640,control_change,0,0,4,,,,,,,,,3,64,127,,
1316640,note_on,480,0,4,,,,,,,,,3,,,37,0
1316640,note_on,480,0,1,,,,,,,,,0,,,61,0
1317120,note_on,0,0,1,,,,,,,,,0,,,66,101
1317120,note_on,480,0,1,,,,,,,,,0,,,61,0
1317120,note_on,0,0,4,,,,,,,,,3,,,42,101
1317120,note_on,480,0,4,,,,,,,,,3,,,37,0
1317120,note_on,0,0,3,,,,,,,,,2,,,54,101
1317120,note_on,480,0,3,,,,,,,,,2,,,49,0
1317600,note_on,480,0,4,,,,,,,,,3,,,42,0
1317600,note_on,0,0,4,,,,,,,,,3,,,46,101
1317600,note_on,480,0,3,,,,,,,,,2,,,54,0
1317600,note_on,0,0,3,,,,,,,,,2,,,58,101
1317600,note_on,480,0,1,,,,,,,,,0,,,66,0
1317600,note_on,0,0,1,,,,,,,,,0,,,70,101
1318080,note_on,480,0,3,,,,,,,,,2,,,58,0
1318080,control_change,0,0,3,,,,,,,,,2,64,0,,
1318080,note_on,0,0,3,,,,,,,,,2,,,60,101
1318080,note_on,480,0,4,,,,,,,,,3,,,46,0
1318080,control_change,0,0,4,,,,,,,,,3,64,0,,
1318080,note_on,0,0,4,,,,,,,,,3,,,48,101
1318080,note_on,480,0,1,,,,,,,,,0,,,70,0
1318080,control_change,0,0,1,,,,,,,,,0,64,0,,
1318080,note_on,0,0,1,,,,,,,,,0,,,72,101
1318560,note_on,480,0,4,,,,,,,,,3,,,48,0
1318560,note_on,0,0,4,,,,,,,,,3,,,49,101
1318560,note_on,0,0,1,,,,,,,,,0,,,73,101
1318560,note_on,0,0,3,,,,,,,,,2,,,61,101
1318560,note_on,480,0,3,,,,,,,,,2,,,60,0
1318560,note_on,480,0,1,,,,,,,,,0,,,72,0
1318656,note_on,96,0,4,,,,,,,,,3,,,49,0
1318656,note_on,96,0,3,,,,,,,,,2,,,61,0
1319520,note_on,960,0,1,,,,,,,,,0,,,73,0
1319520,note_on,4753,0,2,,,,,,,,,1,,,66,114
1319520,note_on,0,0,4,,,,,,,,,3,,,49,127
1319520,note_on,864,0,4,,,,,,,,,3,,,37,127
1319520,note_on,0,0,3,,,,,,,,,2,,,61,127
1319520,note_on,864,0,3,,,,,,,,,2,,,54,127
1319520,note_on,0,0,1,,,,,,,,,0,,,70,127
1319520,note_on,0,0,1,,,,,,,,,0,,,73,127
1319616,note_on,96,0,2,,,,,,,,,1,,,66,0
1319616,note_on,0,0,1,,,,,,,,,0,,,70,0
1319616,note_on,0,0,4,,,,,,,,,3,,,37,0
1319616,note_on,96,0,3,,,,,,,,,2,,,61,0
1319616,note_on,0,0,3,,,,,,,,,2,,,54,0
1319616,note_on,96,0,1,,,,,,,,,0,,,73,0
1319616,note_on,96,0,4,,,,,,,,,3,,,49,0
1320480,note_on,864,0,1,,,,,,,,,0,,,68,127
1320480,note_on,0,0,1,,,,,,,,,0,,,73,127
1320480,note_on,0,0,4,,,,,,,,,3,,,49,127
1320480,note_on,864,0,3,,,,,,,,,2,,,56,127
1320480,note_on,0,0,3,,,,,,,,,2,,,61,127
1320480,note_on,864,0,4,,,,,,,,,3,,,37,127
1320480,note_on,864,0,2,,,,,,,,,1,,,65,114
1320576,note_on,0,0,3,,,,,,,,,2,,,56,0
1320576,note_on,96,0,3,,,,,,,,,2,,,61,0
1320576,note_on,0,0,4,,,,,,,,,3,,,37,0
1320576,note_on,96,0,4,,,,,,,,,3,,,49,0
1320576,note_on,0,0,1,,,,,,,,,0,,,68,0
1320576,note_on,96,0,1,,,,,,,,,0,,,73,0
1320576,note_on,96,0,2,,,,,,,,,1,,,65,0
1321440,note_on,0,0,3,,,,,,,,,2,,,61,127
1321440,note_on,864,0,3,,,,,,,,,2,,,57,127
1321440,note_on,0,0,1,,,,,,,,,0,,,73,127
1321440,note_on,0,0,1,,,,,,,,,0,,,72,127
1321440,note_on,864,0,1,,,,,,,,,0,,,66,127
1321440,note_on,864,0,2,,,,,,,,,1,,,63,114
1321440,note_on,864,0,4,,,,,,,,,3,,,37,127
1321440,note_on,0,0,4,,,,,,,,,3,,,49,127
1321536,note_on,96,0,2,,,,,,,,,1,,,63,0
1321536,note_on,96,0,4,,,,,,,,,3,,,49,0
1321536,note_on,96,0,3,,,,,,,,,2,,,61,0
1321536,note_on,0,0,1,,,,,,,,,0,,,66,0
1321536,note_on,0,0,4,,,,,,,,,3,,,37,0
1321536,note_on,0,0,1,,,,,,,,,0,,,72,0
1321536,note_on,0,0,3,,,,,,,,,2,,,57,0
1321536,note_on,96,0,1,,,,,,,,,0,,,73,0
1322400,note_on,864,0,1,,,,,,,,,0,,,68,101
1322400,note_on,0,0,1,,,,,,,,,0,,,73,101
1322400,note_on,864,0,3,,,,,,,,,2,,,56,101
1322400,note_on,0,0,3,,,,,,,,,2,,,61,101
1322400,note_on,0,0,4,,,,,,,,,3,,,49,101
1322400,note_on,864,0,2,,,,,,,,,1,,,67,88
1322400,note_on,864,0,4,,,,,,,,,3,,,37,101
1322880,note_on,480,0,1,,,,,,,,,0,,,73,0
1322880,note_on,0,0,1,,,,,,,,,0,,,68,0
1322880,note_on,480,0,3,,,,,,,,,2,,,61,0
1322880,note_on,0,0,2,,,,,,,,,1,,,61,127
1322880,note_on,480,0,2,,,,,,,,,1,,,67,0
1322880,note_on,0,0,1,,,,,,,,,0,,,73,127
1322880,note_on,0,0,3,,,,,,,,,2,,,49,127
1322880,note_on,0,0,3,,,,,,,,,2,,,56,0
1322880,note_on,0,0,4,,,,,,,,,3,,,37,0
1322880,note_on,480,0,4,,,,,,,,,3,,,49,0
1322880,note_on,0,0,4,,,,,,,,,3,,,37,127
1323840,note_on,0,0,4,,,,,,,,,3,,,37,101
1323840,note_on,0,0,1,,,,,,,,,0,,,73,101
1323840,note_on,960,0,2,,,,,,,,,1,,,61,0
1323840,note_on,960,0,1,,,,,,,,,0,,,73,0
1323840,note_on,960,0,3,,,,,,,,,2,,,49,0
1323840,note_on,0,0,3,,,,,,,,,2,,,49,101
1323840,note_on,0,0,2,,,,,,,,,1,,,61,101
1323840,note_on,960,0,4,,,,,,,,,3,,,37,0
1324320,note_on,480,0,4,,,,,,,,,3,,,37,0
1324320,note_on,0,0,4,,,,,,,,,3,,,37,101
1324320,note_on,480,0,3,,,,,,,,,2,,,49,0
1324320,note_on,0,0,2,,,,,,,,,1,,,61,101
1324320,note_on,480,0,2,,,,,,,,,1,,,61,0
1324320,note_on,0,0,3,,,,,,,,,2,,,49,101
1324320,note_on,0,0,1,,,,,,,,,0,,,73,101
1324320,note_on,480,0,1,,,,,,,,,0,,,73,0
1324800,note_on,480,0,1,,,,,,,,,0,,,73,0
1324800,note_on,480,0,3,,,,,,,,,2,,,49,0
1324800,note_on,0,0,3,,,,,,,,,2,,,49,88
1324800,note_on,480,0,4,,,,,,,,,3,,,37,0
1324800,note_on,480,0,2,,,,,,,,,1,,,61,0
1324800,note_on,0,0,4,,,,,,,,,3,,,37,88
1325760,note_on,960,0,4,,,,,,,,,3,,,37,0
1325760,note_on,0,0,4,,,,,,,,,3,,,37,62
1325760,note_on,960,0,3,,,,,,,,,2,,,49,0
1325760,note_on,0,0,3,,,,,,,,,2,,,49,62
1326240,note_on,480,0,4,,,,,,,,,3,,,37,0
1326240,note_on,480,0,3,,,,,,,,,2,,,49,0
1326240,note_on,0,0,3,,,,,,,,,2,,,49,62
1326240,note_on,0,0,4,,,,,,,,,3,,,37,62
1326287,note_on,47,0,4,,,,,,,,,3,,,37,0
1326287,note_on,47,0,3,,,,,,,,,2,,,49,0
1326720,note_on,433,0,4,,,,,,,,,3,,,35,62
1326720,note_on,433,0,3,,,,,,,,,2,,,47,62
1327680,note_on,960,0,3,,,,,,,,,2,,,47,0
1327680,note_on,0,0,3,,,,,,,,,2,,,47,62
1327680,note_on,0,0,4,,,,,,,,,3,,,35,62
1327680,note_on,960,0,4,,,,,,,,,3,,,35,0
1328160,note_on,480,0,3,,,,,,,,,2,,,47,0
1328160,note_on,0,0,3,,,,,,,,,2,,,47,62
1328160,note_on,0,0,4,,,,,,,,,3,,,35,62
1328160,note_on,480,0,4,,,,,,,,,3,,,35,0
1328207,note_on,47,0,4,,,,,,,,,3,,,35,0
1328207,note_on,47,0,3,,,,,,,,,2,,,47,0
1328640,note_on,433,0,3,,,,,,,,,2,,,44,62
1328640,note_on,433,0,4,,,,,,,,,3,,,32,62
1329600,note_on,960,0,3,,,,,,,,,2,,,44,0
1329600,note_on,0,0,3,,,,,,,,,2,,,44,62
1329600,note_on,960,0,4,,,,,,,,,3,,,32,0
1329600,note_on,0,0,4,,,,,,,,,3,,,32,62
1330080,note_on,0,0,4,,,,,,,,,3,,,32,62
1330080,note_on,480,0,3,,,,,,,,,2,,,44,0
1330080,note_on,0,0,3,,,,,,,,,2,,,44,62
1330080,note_on,480,0,4,,,,,,,,,3,,,32,0
1330127,note_on,47,0,3,,,,,,,,,2,,,44,0
1330127,note_on,47,0,4,,,,,,,,,3,,,32,0
1330560,note_on,433,0,3,,,,,,,,,2,,,41,62
1330560,note_on,433,0,4,,,,,,,,,3,,,29,62
1331520,note_on,0,0,3,,,,,,,,,2,,,41,62
1331520,note_on,960,0,3,,,,,,,,,2,,,41,0
1331520,note_on,0,0,4,,,,,,,,,3,,,29,62
1331520,note_on,960,0,4,,,,,,,,,3,,,29,0
1332000,note_on,0,0,3,,,,,,,,,2,,,41,62
1332000,note_on,0,0,4,,,,,,,,,3,,,29,62
1332000,note_on,480,0,3,,,,,,,,,2,,,41,0
1332000,note_on,480,0,4,,,,,,,,,3,,,29,0
1332480,note_on,0,0,4,,,,,,,,,3,,,29,62
1332480,note_on,0,0,3,,,,,,,,,2,,,41,62
1332480,note_on,480,0,4,,,,,,,,,3,,,29,0
1332480,note_on,480,0,3,,,,,,,,,2,,,41,0
1333440,note_on,960,0,3,,,,,,,,,2,,,41,0
1333440,note_on,960,0,4,,,,,,,,,3,,,29,0
1333440,note_on,0,0,4,,,,,,,,,3,,,29,62
1333440,note_on,0,0,3,,,,,,,,,2,,,41,62
1333920,note_on,480,0,3,,,,,,,,,2,,,41,0
1333920,note_on,0,0,3,,,,,,,,,2,,,41,62
1333920,note_on,480,0,4,,,,,,,,,3,,,29,0
1333920,note_on,0,0,4,,,,,,,,,3,,,29,62
1333920,set_tempo,90240,1,0,,,,,,312500,,,,,,,
1334400,note_on,480,0,4,,,,,,,,,3,,,29,0
1334400,note_on,0,0,4,,,,,,,,,3,,,29,62
1334400,note_on,480,0,3,,,,,,,,,2,,,41,0
1334400,note_on,0,0,3,,,,,,,,,2,,,41,62
1335360,note_on,960,0,3,,,,,,,,,2,,,41,0
1335360,note_on,0,0,3,,,,,,,,,2,,,41,62
1335360,note_on,0,0,4,,,,,,,,,3,,,29,62
1335360,note_on,960,0,4,,,,,,,,,3,,,29,0
1335840,note_on,480,0,3,,,,,,,,,2,,,41,0
1335840,note_on,0,0,3,,,,,,,,,2,,,41,62
1335840,note_on,0,0,4,,,,,,,,,3,,,29,62
1335840,note_on,480,0,4,,,,,,,,,3,,,29,0
1336320,note_on,0,0,4,,,,,,,,,3,,,29,62
1336320,note_on,480,0,4,,,,,,,,,3,,,29,0
1336320,note_on,480,0,3,,,,,,,,,2,,,41,0
1336320,note_on,0,0,3,,,,,,,,,2,,,41,62
1337280,note_on,0,0,3,,,,,,,,,2,,,41,62
1337280,note_on,960,0,3,,,,,,,,,2,,,41,0
1337280,note_on,960,0,4,,,,,,,,,3,,,29,0
1337280,note_on,0,0,4,,,,,,,,,3,,,29,62
1337760,note_on,480,0,4,,,,,,,,,3,,,29,0
1337760,note_on,12960,0,2,,,,,,,,,1,,,65,49
1337760,note_on,480,0,3,,,,,,,,,2,,,41,0
1337760,note_on,0,0,3,,,,,,,,,2,,,41,49
1337760,note_on,0,0,1,,,,,,,,,0,,,72,62
1337760,note_on,12960,0,1,,,,,,,,,0,,,69,62
1337760,set_tempo,3840,1,0,,,,,,270270,,,,,,,
1337760,note_on,0,0,4,,,,,,,,,3,,,29,49
1338240,note_on,480,0,4,,,,,,,,,3,,,29,0
1338240,note_on,0,0,4,,,,,,,,,3,,,29,49
1338240,note_on,0,0,3,,,,,,,,,2,,,41,49
1338240,note_on,480,0,3,,,,,,,,,2,,,41,0
1339200,note_on,0,0,3,,,,,,,,,2,,,41,49
1339200,note_on,960,0,4,,,,,,,,,3,,,29,0
1339200,note_on,960,0,3,,,,,,,,,2,,,41,0
1339200,note_on,0,0,4,,,,,,,,,3,,,29,49
1339680,note_on,1920,0,2,,,,,,,,,1,,,65,0
1339680,set_tempo,1920,1,0,,,,,,270270,,,,,,,
1339680,note_on,0,0,1,,,,,,,,,0,,,69,62
1339680,note_on,0,0,1,,,,,,,,,0,,,69,0
1339680,note_on,1920,0,1,,,,,,,,,0,,,72,0
1339680,note_on,0,0,2,,,,,,,,,1,,,65,49
1339680,note_on,480,0,4,,,,,,,,,3,,,29,0
1339680,note_on,0,0,4,,,,,,,,,3,,,29,49
1339680,note_on,480,0,3,,,,,,,,,2,,,41,0
1339680,note_on,0,0,3,,,,,,,,,2,,,41,49
1339680,note_on,0,0,1,,,,,,,,,0,,,72,62
1340160,note_on,480,0,4,,,,,,,,,3,,,29,0
1340160,note_on,0,0,4,,,,,,,,,3,,,29,49
1340160,note_on,480,0,3,,,,,,,,,2,,,41,0
1340160,note_on,0,0,3,,,,,,,,,2,,,41,49
1341120,note_on,1440,0,1,,,,,,,,,0,,,72,0
1341120,note_on,0,0,3,,,,,,,,,2,,,41,49
1341120,note_on,1440,0,2,,,,,,,,,1,,,65,0
1341120,note_on,0,0,4,,,,,,,,,3,,,29,49
1341120,note_on,960,0,4,,,,,,,,,3,,,29,0
1341120,note_on,0,0,2,,,,,,,,,1,,,65,49
1341120,note_on,960,0,3,,,,,,,,,2,,,41,0
1341120,note_on,0,0,1,,,,,,,,,0,,,69,0
1341120,note_on,0,0,1,,,,,,,,,0,,,69,62
1341120,note_on,0,0,1,,,,,,,,,0,,,72,62
1341600,note_on,0,0,4,,,,,,,,,3,,,31,49
1341600,note_on,480,0,4,,,,,,,,,3,,,29,0
1341600,note_on,480,0,2,,,,,,,,,1,,,65,0
1341600,note_on,480,0,1,,,,,,,,,0,,,72,0
1341600,note_on,0,0,1,,,,,,,,,0,,,69,0
1341600,note_on,0,0,2,,,,,,,,,1,,,62,49
1341600,note_on,0,0,2,,,,,,,,,1,,,67,49
1341600,note_on,480,0,3,,,,,,,,,2,,,41,0
1341600,note_on,0,0,1,,,,,,,,,0,,,72,62
1341600,note_on,0,0,3,,,,,,,,,2,,,43,49
1342080,note_on,480,0,3,,,,,,,,,2,,,43,0
1342080,note_on,0,0,4,,,,,,,,,3,,,31,49
1342080,note_on,480,0,4,,,,,,,,,3,,,31,0
1342080,note_on,0,0,3,,,,,,,,,2,,,43,49
1342560,note_on,960,0,1,,,,,,,,,0,,,72,0
1342560,note_on,0,0,1,,,,,,,,,0,,,70,62
1343040,note_on,960,0,4,,,,,,,,,3,,,31,0
1343040,note_on,960,0,3,,,,,,,,,2,,,43,0
1343040,note_on,0,0,4,,,,,,,,,3,,,31,49
1343040,note_on,0,0,3,,,,,,,,,2,,,43,49
1343520,note_on,480,0,3,,,,,,,,,2,,,43,0
1343520,note_on,0,0,3,,,,,,,,,2,,,43,49
1343520,note_on,480,0,4,,,,,,,,,3,,,31,0
1343520,note_on,0,0,4,,,,,,,,,3,,,31,49
1343520,note_on,1920,0,2,,,,,,,,,1,,,67,0
1344000,note_on,0,0,3,,,,,,,,,2,,,43,49
1344000,note_on,480,0,4,,,,,,,,,3,,,31,0
1344000,note_on,0,0,4,,,,,,,,,3,,,31,49
1344000,note_on,480,0,3,,,,,,,,,2,,,43,0
1344480,note_on,960,0,2,,,,,,,,,1,,,62,0
1344480,note_on,0,0,2,,,,,,,,,1,,,62,49
1344480,note_on,0,0,1,,,,,,,,,0,,,67,62
1344480,note_on,0,0,1,,,,,,,,,0,,,70,62
1344480,note_on,1920,0,1,,,,,,,,,0,,,70,0
1344960,note_on,960,0,3,,,,,,,,,2,,,43,0
1344960,note_on,0,0,3,,,,,,,,,2,,,46,49
1344960,note_on,0,0,4,,,,,,,,,3,,,34,49
1344960,note_on,960,0,4,,,,,,,,,3,,,31,0
1345440,note_on,960,0,2,,,,,,,,,1,,,62,0
1345440,note_on,0,0,2,,,,,,,,,1,,,62,49
1345440,note_on,0,0,4,,,,,,,,,3,,,38,49
1345440,note_on,0,0,3,,,,,,,,,2,,,50,49
1345440,note_on,0,0,1,,,,,,,,,0,,,67,0
1345440,note_on,0,0,1,,,,,,,,,0,,,67,62
1345440,note_on,0,0,1,,,,,,,,,0,,,69,62
1345440,note_on,480,0,3,,,,,,,,,2,,,46,0
1345440,note_on,960,0,1,,,,,,,,,0,,,70,0
1345440,note_on,480,0,4,,,,,,,,,3,,,34,0
1345920,note_on,480,0,3,,,,,,,,,2,,,50,0
1345920,note_on,0,0,3,,,,,,,,,2,,,50,49
1345920,note_on,0,0,4,,,,,,,,,3,,,38,49
1345920,note_on,480,0,4,,,,,,,,,3,,,38,0
1346880,note_on,0,0,3,,,,,,,,,2,,,50,49
1346880,note_on,960,0,4,,,,,,,,,3,,,38,0
1346880,note_on,0,0,4,,,,,,,,,3,,,38,49
1346880,note_on,960,0,3,,,,,,,,,2,,,50,0
1347360,note_on,0,0,2,,,,,,,,,1,,,62,49
1347360,note_on,0,0,3,,,,,,,,,2,,,50,49
1347360,note_on,0,0,4,,,,,,,,,3,,,38,49
1347360,note_on,480,0,4,,,,,,,,,3,,,38,0
1347360,note_on,1920,0,1,,,,,,,,,0,,,69,0
1347360,note_on,1920,0,2,,,,,,,,,1,,,62,0
1347360,note_on,480,0,3,,,,,,,,,2,,,50,0
1347360,note_on,0,0,1,,,,,,,,,0,,,69,62
1347360,note_on,0,0,1,,,,,,,,,0,,,67,0
1347840,note_on,0,0,4,,,,,,,,,3,,,38,49
1347840,note_on,480,0,4,,,,,,,,,3,,,38,0
1347840,note_on,0,0,3,,,,,,,,,2,,,50,49
1347840,note_on,480,0,3,,,,,,,,,2,,,50,0
1348080,note_on,0,0,1,,,,,,,,,0,,,74,62
1348080,note_on,720,0,1,,,,,,,,,0,,,69,0
1348320,note_on,0,0,1,,,,,,,,,0,,,74,62
1348320,note_on,960,0,2,,,,,,,,,1,,,62,0
1348320,note_on,0,0,2,,,,,,,,,1,,,62,49
1348320,note_on,240,0,1,,,,,,,,,0,,,74,0
1348800,note_on,0,0,3,,,,,,,,,2,,,50,49
1348800,note_on,960,0,3,,,,,,,,,2,,,50,0
1348800,note_on,960,0,4,,,,,,,,,3,,,38,0
1348800,note_on,0,0,4,,,,,,,,,3,,,38,49
1349040,note_on,720,0,1,,,,,,,,,0,,,74,0
1349040,note_on,0,0,1,,,,,,,,,0,,,69,62
1349280,note_on,0,0,1,,,,,,,,,0,,,71,62
1349280,note_on,0,0,2,,,,,,,,,1,,,62,49
1349280,note_on,960,0,2,,,,,,,,,1,,,62,0
1349280,note_on,240,0,1,,,,,,,,,0,,,69,0
1349280,note_on,480,0,3,,,,,,,,,2,,,50,0
1349280,note_on,0,0,3,,,,,,,,,2,,,43,49
1349280,note_on,480,0,4,,,,,,,,,3,,,38,0
1349280,note_on,0,0,4,,,,,,,,,3,,,31,49
1349280,note_on,0,0,1,,,,,,,,,0,,,67,62
1349760,note_on,480,0,3,,,,,,,,,2,,,43,0
1349760,note_on,0,0,3,,,,,,,,,2,,,43,49
1349760,note_on,0,0,4,,,,,,,,,3,,,31,49
1349760,note_on,480,0,4,,,,,,,,,3,,,31,0
1350720,note_on,960,0,3,,,,,,,,,2,,,43,0
1350720,note_on,960,0,4,,,,,,,,,3,,,31,0
1350720,note_on,0,0,3,,,,,,,,,2,,,43,49
1350720,note_on,0,0,4,,,,,,,,,3,,,31,49
1351200,note_on,480,0,3,,,,,,,,,2,,,43,0
1351200,note_on,0,0,4,,,,,,,,,3,,,31,49
1351200,note_on,0,0,3,,,,,,,,,2,,,43,49
1351200,note_on,480,0,4,,,,,,,,,3,,,31,0
1351680,note_on,480,0,4,,,,,,,,,3,,,31,0
1351680,note_on,0,0,4,,,,,,,,,3,,,31,49
1351680,note_on,0,0,3,,,,,,,,,2,,,43,49
1351680,note_on,480,0,3,,,,,,,,,2,,,43,0
1352160,note_on,2880,0,2,,,,,,,,,1,,,62,0
1352160,note_on,0,0,1,,,,,,,,,0,,,67,0
1352160,note_on,2880,0,1,,,,,,,,,0,,,71,0
1352640,note_on,960,0,3,,,,,,,,,2,,,43,0
1352640,note_on,0,0,3,,,,,,,,,2,,,43,49
1352640,note_on,0,0,4,,,,,,,,,3,,,31,49
1352640,note_on,960,0,4,,,,,,,,,3,,,31,0
1353120,note_on,960,0,2,,,,,,,,,1,,,63,49
1353120,note_on,480,0,3,,,,,,,,,2,,,43,0
1353120,note_on,0,0,1,,,,,,,,,0,,,70,62
1353120,note_on,0,0,4,,,,,,,,,3,,,39,49
1353120,note_on,480,0,4,,,,,,,,,3,,,31,0
1353120,note_on,960,0,1,,,,,,,,,0,,,67,62
1353120,note_on,0,0,3,,,,,,,,,2,,,51,49
1353600,note_on,480,0,4,,,,,,,,,3,,,39,0
1353600,note_on,0,0,4,,,,,,,,,3,,,39,49
1353600,note_on,0,0,3,,,,,,,,,2,,,51,49
1353600,note_on,480,0,3,,,,,,,,,2,,,51,0
1354560,note_on,0,0,3,,,,,,,,,2,,,51,49
1354560,note_on,960,0,3,,,,,,,,,2,,,51,0
1354560,note_on,960,0,4,,,,,,,,,3,,,39,0
1354560,note_on,0,0,4,,,,,,,,,3,,,39,49
1355040,note_on,0,0,3,,,,,,,,,2,,,51,49
1355040,control_change,0,0,3,,,,,,,,,2,64,127,,
1355040,note_on,480,0,3,,,,,,,,,2,,,51,0
1355040,note_on,1920,0,2,,,,,,,,,1,,,63,0
1355040,note_on,0,0,2,,,,,,,,,1,,,63,49
1355040,note_on,0,0,1,,,,,,,,,0,,,70,62
1355040,note_on,0,0,4,,,,,,,,,3,,,39,49
1355040,note_on,0,0,1,,,,,,,,,0,,,67,0
1355040,note_on,0,0,1,,,,,,,,,0,,,67,62
1355040,note_on,1920,0,1,,,,,,,,,0,,,70,0
1355040,note_on,480,0,4,,,,,,,,,3,,,39,0
1355040,control_change,0,0,4,,,,,,,,,3,64,127,,
1355520,note_on,0,0,4,,,,,,,,,3,,,31,49
1355520,note_on,0,0,3,,,,,,,,,2,,,43,49
1355520,note_on,480,0,4,,,,,,,,,3,,,39,0
1355520,note_on,480,0,3,,,,,,,,,2,,,51,0
1356000,note_on,0,0,3,,,,,,,,,2,,,46,49
1356000,note_on,480,0,3,,,,,,,,,2,,,43,0
1356000,note_on,480,0,4,,,,,,,,,3,,,31,0
1356000,note_on,960,0,2,,,,,,,,,1,,,63,0
1356000,note_on,0,0,4,,,,,,,,,3,,,34,49
1356000,note_on,0,0,1,,,,,,,,,0,,,70,62
1356000,note_on,0,0,1,,,,,,,,,0,,,65,62
1356000,note_on,0,0,1,,,,,,,,,0,,,67,0
1356000,note_on,960,0,1,,,,,,,,,0,,,70,0
1356000,note_on,0,0,2,,,,,,,,,1,,,62,49
1356480,control_change,0,0,4,,,,,,,,,3,64,0,,
1356480,note_on,0,0,4,,,,,,,,,3,,,38,49
1356480,note_on,480,0,3,,,,,,,,,2,,,46,0
1356480,control_change,0,0,3,,,,,,,,,2,64,0,,
1356480,note_on,0,0,3,,,,,,,,,2,,,50,49
1356480,note_on,480,0,4,,,,,,,,,3,,,34,0
1356960,note_on,480,0,4,,,,,,,,,3,,,38,0
1356960,note_on,0,0,4,,,,,,,,,3,,,29,49
1356960,note_on,0,0,1,,,,,,,,,0,,,70,62
1356960,note_on,0,0,3,,,,,,,,,2,,,41,49
1356960,note_on,480,0,3,,,,,,,,,2,,,50,0
1356960,note_on,0,0,1,,,,,,,,,0,,,65,0
1356960,note_on,960,0,1,,,,,,,,,0,,,70,0
1356960,note_on,960,0,2,,,,,,,,,1,,,62,0
1356960,note_on,0,0,2,,,,,,,,,1,,,60,49
1357007,note_on,47,0,3,,,,,,,,,2,,,41,0
1357007,note_on,47,0,4,,,,,,,,,3,,,29,0
1357440,note_on,433,0,4,,,,,,,,,3,,,29,49
1357440,note_on,433,0,3,,,,,,,,,2,,,41,49
1357920,note_on,0,0,1,,,,,,,,,0,,,69,62
1357920,note_on,960,0,1,,,,,,,,,0,,,70,0
1358400,note_on,960,0,4,,,,,,,,,3,,,29,0
1358400,note_on,0,0,4,,,,,,,,,3,,,29,49
1358400,note_on,960,0,3,,,,,,,,,2,,,41,0
1358400,note_on,0,0,3,,,,,,,,,2,,,41,49
1358880,note_on,480,0,3,,,,,,,,,2,,,41,0
1358880,note_on,0,0,3,,,,,,,,,2,,,41,49
1358880,note_on,480,0,4,,,,,,,,,3,,,29,0
1358880,note_on,0,0,4,,,,,,,,,3,,,29,49
1358927,note_on,47,0,3,,,,,,,,,2,,,41,0
1358927,note_on,47,0,4,,,,,,,,,3,,,29,0
1359360,note_on,433,0,4,,,,,,,,,3,,,29,49
1359360,note_on,433,0,3,,,,,,,,,2,,,41,49
1359840,note_on,0,0,1,,,,,,,,,0,,,69,62
1359840,note_on,0,0,1,,,,,,,,,0,,,65,62
1359840,note_on,2880,0,2,,,,,,,,,1,,,60,0
1359840,note_on,0,0,2,,,,,,,,,1,,,60,49
1359840,note_on,1920,0,1,,,,,,,,,0,,,69,0
1360320,note_on,960,0,4,,,,,,,,,3,,,29,0
1360320,note_on,0,0,4,,,,,,,,,3,,,33,49
1360320,note_on,0,0,3,,,,,,,,,2,,,45,49
1360320,note_on,960,0,3,,,,,,,,,2,,,41,0
1360800,note_on,0,0,1,,,,,,,,,0,,,65,62
1360800,note_on,960,0,1,,,,,,,,,0,,,69,0
1360800,note_on,0,0,1,,,,,,,,,0,,,65,0
1360800,note_on,960,0,2,,,,,,,,,1,,,60,0
1360800,note_on,0,0,2,,,,,,,,,1,,,60,49
1360800,note_on,0,0,1,,,,,,,,,0,,,67,62
1360800,note_on,480,0,4,,,,,,,,,3,,,33,0
1360800,note_on,0,0,4,,,,,,,,,3,,,36,49
1360800,note_on,480,0,3,,,,,,,,,2,,,45,0
1360800,note_on,0,0,3,,,,,,,,,2,,,48,49
1360847,note_on,47,0,4,,,,,,,,,3,,,36,0
1360847,note_on,47,0,3,,,,,,,,,2,,,48,0
1361280,note_on,433,0,4,,,,,,,,,3,,,36,49
1361280,note_on,433,0,3,,,,,,,,,2,,,48,49
1362240,note_on,960,0,4,,,,,,,,,3,,,36,0
1362240,note_on,0,0,4,,,,,,,,,3,,,36,49
1362240,note_on,0,0,3,,,,,,,,,2,,,48,49
1362240,note_on,960,0,3,,,,,,,,,2,,,48,0
1362720,note_on,480,0,3,,,,,,,,,2,,,48,0
1362720,note_on,1920,0,2,,,,,,,,,1,,,60,0
1362720,note_on,0,0,2,,,,,,,,,1,,,60,49
1362720,note_on,0,0,4,,,,,,,,,3,,,36,49
1362720,note_on,480,0,4,,,,,,,,,3,,,36,0
1362720,note_on,1920,0,1,,,,,,,,,0,,,67,0
1362720,note_on,0,0,3,,,,,,,,,2,,,48,49
1362720,note_on,0,0,1,,,,,,,,,0,,,65,0
1362720,note_on,0,0,1,,,,,,,,,0,,,67,62
1362767,note_on,47,0,3,,,,,,,,,2,,,48,0
1362767,note_on,47,0,4,,,,,,,,,3,,,36,0
1363200,note_on,433,0,3,,,,,,,,,2,,,48,49
1363200,note_on,433,0,4,,,,,,,,,3,,,36,49
1363440,note_on,0,0,1,,,,,,,,,0,,,72,62
1363440,note_on,720,0,1,,,,,,,,,0,,,67,0
1363680,note_on,0,0,2,,,,,,,,,1,,,60,49
1363680,note_on,960,0,2,,,,,,,,,1,,,60,0
1363680,note_on,240,0,1,,,,,,,,,0,,,72,0
1363680,note_on,0,0,1,,,,,,,,,0,,,72,62
1364160,note_on,0,0,4,,,,,,,,,3,,,36,49
1364160,note_on,960,0,3,,,,,,,,,2,,,48,0
1364160,note_on,0,0,3,,,,,,,,,2,,,48,49
1364160,note_on,960,0,4,,,,,,,,,3,,,36,0
1364400,note_on,720,0,1,,,,,,,,,0,,,72,0
1364400,note_on,0,0,1,,,,,,,,,0,,,67,62
1364640,note_on,480,0,3,,,,,,,,,2,,,48,0
1364640,note_on,0,0,3,,,,,,,,,2,,,41,49
1364640,note_on,0,0,2,,,,,,,,,1,,,60,49
1364640,note_on,240,0,1,,,,,,,,,0,,,67,0
1364640,note_on,0,0,1,,,,,,,,,0,,,69,62
1364640,note_on,0,0,1,,,,,,,,,0,,,65,62
1364640,note_on,0,0,4,,,,,,,,,3,,,29,49
1364640,note_on,480,0,4,,,,,,,,,3,,,36,0
1364640,note_on,960,0,2,,,,,,,,,1,,,60,0
1365120,note_on,480,0,4,,,,,,,,,3,,,29,0
1365120,note_on,0,0,4,,,,,,,,,3,,,41,49
1365120,note_on,0,0,3,,,,,,,,,2,,,53,49
1365120,note_on,480,0,3,,,,,,,,,2,,,41,0
1366080,note_on,960,0,3,,,,,,,,,2,,,53,0
1366080,note_on,0,0,3,,,,,,,,,2,,,53,49
1366080,note_on,960,0,4,,,,,,,,,3,,,41,0
1366080,note_on,0,0,4,,,,,,,,,3,,,41,49
1366560,note_on,0,0,4,,,,,,,,,3,,,41,49
1366560,note_on,480,0,4,,,,,,,,,3,,,41,0
1366560,note_on,480,0,3,,,,,,,,,2,,,53,0
1366560,note_on,0,0,3,,,,,,,,,2,,,53,49
1367040,note_on,480,0,3,,,,,,,,,2,,,53,0
1367040,note_on,480,0,4,,,,,,,,,3,,,41,0
1367040,note_on,0,0,4,,,,,,,,,3,,,41,49
1367040,note_on,0,0,3,,,,,,,,,2,,,53,49
1368000,note_on,3360,0,1,,,,,,,,,0,,,69,0
1368000,note_on,3360,0,2,,,,,,,,,1,,,60,0
1368000,note_on,960,0,3,,,,,,,,,2,,,53,0
1368000,note_on,0,0,4,,,,,,,,,3,,,41,49
1368000,note_on,960,0,4,,,,,,,,,3,,,41,0
1368000,note_on,0,0,3,,,,,,,,,2,,,53,49
1368000,note_on,0,0,1,,,,,,,,,0,,,65,0
1368480,note_on,480,0,3,,,,,,,,,2,,,53,0
1368480,note_on,0,0,3,,,,,,,,,2,,,53,49
1368480,note_on,0,0,4,,,,,,,,,3,,,41,49
1368480,note_on,480,0,4,,,,,,,,,3,,,41,0
1368527,note_on,47,0,3,,,,,,,,,2,,,53,0
1368527,note_on,47,0,4,,,,,,,,,3,,,41,0
1368960,note_on,433,0,4,,,,,,,,,3,,,39,49
1368960,note_on,433,0,3,,,,,,,,,2,,,51,49
1369920,note_on,960,0,4,,,,,,,,,3,,,39,0
1369920,note_on,0,0,4,,,,,,,,,3,,,39,49
1369920,note_on,0,0,3,,,,,,,,,2,,,51,49
1369920,note_on,960,0,3,,,,,,,,,2,,,51,0
1370400,note_on,0,0,3,,,,,,,,,2,,,51,49
1370400,note_on,480,0,3,,,,,,,,,2,,,51,0
1370400,note_on,480,0,4,,,,,,,,,3,,,39,0
1370400,note_on,0,0,4,,,,,,,,,3,,,39,49
1370447,note_on,47,0,4,,,,,,,,,3,,,39,0
1370447,note_on,47,0,3,,,,,,,,,2,,,51,0
1370880,note_on,433,0,3,,,,,,,,,2,,,48,49
1370880,note_on,433,0,4,,,,,,,,,3,,,36,49
1371840,note_on,960,0,3,,,,,,,,,2,,,48,0
1371840,note_on,0,0,4,,,,,,,,,3,,,36,49
1371840,note_on,960,0,4,,,,,,,,,3,,,36,0
1371840,note_on,0,0,3,,,,,,,,,2,,,48,49
1372320,set_tempo,32640,1,0,,,,,,312500,,,,,,,
1372320,note_on,0,0,3,,,,,,,,,2,,,48,49
1372320,note_on,480,0,3,,,,,,,,,2,,,48,0
1372320,note_on,0,0,4,,,,,,,,,3,,,36,49
1372320,note_on,480,0,4,,,,,,,,,3,,,36,0
1372367,note_on,47,0,4,,,,,,,,,3,,,36,0
1372367,note_on,47,0,3,,,,,,,,,2,,,48,0
1372800,note_on,433,0,4,,,,,,,,,3,,,33,49
1372800,note_on,433,0,3,,,,,,,,,2,,,45,49
1373760,note_on,960,0,4,,,,,,,,,3,,,33,0
1373760,note_on,0,0,4,,,,,,,,,3,,,33,49
1373760,note_on,0,0,3,,,,,,,,,2,,,45,49
1373760,note_on,960,0,3,,,,,,,,,2,,,45,0
1374240,note_on,0,0,3,,,,,,,,,2,,,45,49
1374240,note_on,480,0,3,,,,,,,,,2,,,45,0
1374240,note_on,480,0,4,,,,,,,,,3,,,33,0
1374240,note_on,0,0,4,,,,,,,,,3,,,33,49
1374720,note_on,0,0,4,,,,,,,,,3,,,33,49
1374720,note_on,480,0,4,,,,,,,,,3,,,33,0
1374720,note_on,480,0,3,,,,,,,,,2,,,45,0
1374720,note_on,0,0,3,,,,,,,,,2,,,45,49
1375680,note_on,0,0,3,,,,,,,,,2,,,45,49
1375680,note_on,960,0,3,,,,,,,,,2,,,45,0
1375680,note_on,960,0,4,,,,,,,,,3,,,33,0
1375680,note_on,0,0,4,,,,,,,,,3,,,33,49
1376080,note_on,8080,0,1,,,,,,,,,0,,,85,62
1376120,note_on,40,0,1,,,,,,,,,0,,,86,62
1376160,note_on,480,0,3,,,,,,,,,2,,,45,0
1376160,note_on,0,0,3,,,,,,,,,2,,,57,49
1376160,key_signature,3840,1,0,,,,,A,,,,,,,,
1376160,note_on,0,0,2,,,,,,,,,1,,,64,62
1376160,note_on,8160,0,2,,,,,,,,,1,,,61,62
1376160,note_on,480,0,4,,,,,,,,,3,,,33,0
1376160,note_on,0,0,4,,,,,,,,,3,,,33,49
1376160,set_tempo,0,1,0,,,,,,270270,,,,,,,
1376160,note_on,0,0,4,,,,,,,,,3,,,45,49
1376160,note_on,40,0,1,,,,,,,,,0,,,88,62
1376191,note_on,0,0,1,,,,,,,,,0,,,85,0
1376191,note_on,0,0,1,,,,,,,,,0,,,86,0
1376191,note_on,31,0,1,,,,,,,,,0,,,88,0
1376480,note_on,289,0,1,,,,,,,,,0,,,85,62
1376512,note_on,32,0,1,,,,,,,,,0,,,85,0
1376640,note_on,480,0,4,,,,,,,,,3,,,45,0
1376640,note_on,0,0,4,,,,,,,,,3,,,33,0
1376640,note_on,0,0,4,,,,,,,,,3,,,45,49
1376640,note_on,0,0,4,,,,,,,,,3,,,33,49
1376799,note_on,287,0,1,,,,,,,,,0,,,83,62
1376831,note_on,32,0,1,,,,,,,,,0,,,83,0
1377120,note_on,289,0,1,,,,,,,,,0,,,81,62
1377151,note_on,31,0,1,,,,,,,,,0,,,81,0
1377440,note_on,289,0,1,,,,,,,,,0,,,80,62
1377472,note_on,32,0,1,,,,,,,,,0,,,80,0
1377600,note_on,0,0,4,,,,,,,,,3,,,45,49
1377600,note_on,0,0,4,,,,,,,,,3,,,33,49
1377600,note_on,0,0,4,,,,,,,,,3,,,33,0
1377600,note_on,960,0,4,,,,,,,,,3,,,45,0
1377759,note_on,287,0,1,,,,,,,,,0,,,78,62
1377791,note_on,32,0,1,,,,,,,,,0,,,78,0
1378080,note_on,289,0,1,,,,,,,,,0,,,76,62
1378080,note_on,1920,0,3,,,,,,,,,2,,,57,0
1378080,note_on,1920,0,2,,,,,,,,,1,,,64,0
1378080,note_on,0,0,2,,,,,,,,,1,,,61,0
1378080,note_on,0,0,4,,,,,,,,,3,,,45,49
1378080,note_on,0,0,4,,,,,,,,,3,,,33,49
1378080,note_on,0,0,4,,,,,,,,,3,,,33,0
1378080,note_on,480,0,4,,,,,,,,,3,,,45,0
1378080,note_on,0,0,2,,,,,,,,,1,,,61,62
1378080,note_on,0,0,3,,,,,,,,,2,,,57,49
1378080,note_on,0,0,2,,,,,,,,,1,,,64,62
1378111,note_on,31,0,1,,,,,,,,,0,,,76,0
1378400,note_on,289,0,1,,,,,,,,,0,,,78,62
1378432,note_on,32,0,1,,,,,,,,,0,,,78,0
1378560,note_on,0,0,4,,,,,,,,,3,,,33,0
1378560,note_on,0,0,4,,,,,,,,,3,,,33,49
1378560,note_on,0,0,4,,,,,,,,,3,,,45,49
1378560,note_on,480,0,4,,,,,,,,,3,,,45,0
1378719,note_on,287,0,1,,,,,,,,,0,,,80,62
1378751,note_on,32,0,1,,,,,,,,,0,,,80,0
1379040,note_on,289,0,1,,,,,,,,,0,,,81,62
1379071,note_on,31,0,1,,,,,,,,,0,,,81,0
1379360,note_on,289,0,1,,,,,,,,,0,,,83,62
1379392,note_on,32,0,1,,,,,,,,,0,,,83,0
1379520,note_on,1440,0,3,,,,,,,,,2,,,57,0
1379520,note_on,1440,0,2,,,,,,,,,1,,,64,0
1379520,note_on,0,0,4,,,,,,,,,3,,,45,49
1379520,note_on,0,0,4,,,,,,,,,3,,,33,49
1379520,note_on,0,0,4,,,,,,,,,3,,,33,0
1379520,note_on,0,0,2,,,,,,,,,1,,,61,0
1379520,note_on,0,0,2,,,,,,,,,1,,,61,62
1379520,note_on,0,0,2,,,,,,,,,1,,,64,62
1379520,note_on,0,0,3,,,,,,,,,2,,,57,49
1379520,note_on,960,0,4,,,,,,,,,3,,,45,0
1379679,note_on,287,0,1,,,,,,,,,0,,,85,62
1379711,note_on,32,0,1,,,,,,,,,0,,,85,0
1380000,note_on,0,0,4,,,,,,,,,3,,,33,0
1380000,note_on,0,0,2,,,,,,,,,1,,,59,62
1380000,note_on,0,0,2,,,,,,,,,1,,,61,0
1380000,note_on,480,0,2,,,,,,,,,1,,,64,0
1380000,note_on,480,0,3,,,,,,,,,2,,,57,0
1380000,note_on,480,0,4,,,,,,,,,3,,,45,0
1380000,note_on,0,0,2,,,,,,,,,1,,,64,62
1380000,note_on,0,0,3,,,,,,,,,2,,,54,49
1380000,note_on,0,0,4,,,,,,,,,3,,,47,49
1380000,note_on,0,0,1,,,,,,,,,0,,,85,62
1380000,control_change,289,0,1,,,,,,,,,0,64,127,,
1380000,note_on,0,0,4,,,,,,,,,3,,,35,49
1380320,note_on,0,0,1,,,,,,,,,0,,,83,62
1380320,note_on,320,0,1,,,,,,,,,0,,,85,0
1380480,note_on,0,0,4,,,,,,,,,3,,,47,49
1380480,note_on,0,0,4,,,,,,,,,3,,,35,49
1380480,note_on,0,0,4,,,,,,,,,3,,,35,0
1380480,note_on,480,0,4,,,,,,,,,3,,,47,0
1380639,note_on,0,0,1,,,,,,,,,0,,,82,62
1380639,note_on,319,0,1,,,,,,,,,0,,,83,0
1380960,note_on,321,0,1,,,,,,,,,0,,,82,0
1380960,note_on,0,0,1,,,,,,,,,0,,,83,62
1380960,note_on,0,0,2,,,,,,,,,1,,,59,0
1380960,note_on,0,0,2,,,,,,,,,1,,,62,62
1380960,note_on,960,0,2,,,,,,,,,1,,,64,0
1381280,note_on,320,0,1,,,,,,,,,0,,,83,0
1381280,note_on,0,0,1,,,,,,,,,0,,,84,62
1381440,note_on,0,0,4,,,,,,,,,3,,,47,49
1381440,note_on,0,0,4,,,,,,,,,3,,,35,49
1381440,note_on,0,0,4,,,,,,,,,3,,,35,0
1381440,note_on,960,0,4,,,,,,,,,3,,,47,0
1381599,control_change,0,0,1,,,,,,,,,0,64,0,,
1381599,note_on,0,0,1,,,,,,,,,0,,,85,62
1381599,note_on,319,0,1,,,,,,,,,0,,,84,0
1381920,note_on,0,0,4,,,,,,,,,3,,,35,49
1381920,note_on,0,0,4,,,,,,,,,3,,,47,49
1381920,note_on,0,0,1,,,,,,,,,0,,,86,62
1381920,note_on,960,0,2,,,,,,,,,1,,,59,62
1381920,note_on,480,0,4,,,,,,,,,3,,,47,0
1381920,note_on,0,0,4,,,,,,,,,3,,,35,0
1381920,note_on,321,0,1,,,,,,,,,0,,,85,0
1382240,note_on,0,0,1,,,,,,,,,0,,,88,62
1382240,note_on,320,0,1,,,,,,,,,0,,,86,0
1382400,note_on,0,0,4,,,,,,,,,3,,,47,49
1382400,note_on,0,0,4,,,,,,,,,3,,,35,49
1382400,note_on,0,0,4,,,,,,,,,3,,,35,0
1382400,note_on,480,0,4,,,,,,,,,3,,,47,0
1382559,note_on,0,0,1,,,,,,,,,0,,,89,62
1382559,note_on,319,0,1,,,,,,,,,0,,,88,0
1382880,note_on,321,0,1,,,,,,,,,0,,,89,0
1382880,note_on,0,0,1,,,,,,,,,0,,,90,62
1382880,note_on,0,0,3,,,,,,,,,2,,,54,49
1382880,note_on,2880,0,3,,,,,,,,,2,,,54,0
1382880,note_on,960,0,2,,,,,,,,,1,,,59,0
1382880,note_on,0,0,2,,,,,,,,,1,,,59,62
1382880,note_on,0,0,2,,,,,,,,,1,,,62,62
1382880,note_on,0,0,2,,,,,,,,,1,,,62,0
1382911,note_on,31,0,1,,,,,,,,,0,,,90,0
1383200,note_on,289,0,1,,,,,,,,,0,,,90,62
1383232,note_on,32,0,1,,,,,,,,,0,,,90,0
1383360,note_on,0,0,4,,,,,,,,,3,,,50,49
1383360,note_on,0,0,4,,,,,,,,,3,,,38,49
1383360,note_on,960,0,4,,,,,,,,,3,,,47,0
1383360,note_on,0,0,4,,,,,,,,,3,,,35,0
1383519,note_on,287,0,1,,,,,,,,,0,,,90,62
1383551,note_on,32,0,1,,,,,,,,,0,,,90,0
1383840,note_on,289,0,1,,,,,,,,,0,,,91,62
1383840,note_on,480,0,4,,,,,,,,,3,,,50,0
1383840,note_on,0,0,3,,,,,,,,,2,,,54,49
1383840,note_on,960,0,3,,,,,,,,,2,,,54,0
1383840,note_on,0,0,4,,,,,,,,,3,,,42,49
1383840,note_on,0,0,4,,,,,,,,,3,,,30,49
1383840,note_on,0,0,2,,,,,,,,,1,,,61,62
1383840,note_on,0,0,2,,,,,,,,,1,,,59,62
1383840,note_on,0,0,2,,,,,,,,,1,,,59,0
1383840,note_on,960,0,2,,,,,,,,,1,,,62,0
1383840,note_on,0,0,4,,,,,,,,,3,,,38,0
1384160,note_on,320,0,1,,,,,,,,,0,,,91,0
1384160,note_on,0,0,1,,,,,,,,,0,,,90,62
1384320,note_on,0,0,4,,,,,,,,,3,,,30,0
1384320,note_on,0,0,4,,,,,,,,,3,,,42,49
1384320,note_on,480,0,4,,,,,,,,,3,,,42,0
1384320,note_on,0,0,4,,,,,,,,,3,,,30,49
1384479,note_on,319,0,1,,,,,,,,,0,,,90,0
1384479,note_on,0,0,1,,,,,,,,,0,,,89,62
1384511,note_on,32,0,1,,,,,,,,,0,,,89,0
1384800,note_on,289,0,1,,,,,,,,,0,,,89,62
1385120,note_on,0,0,1,,,,,,,,,0,,,90,62
1385120,note_on,320,0,1,,,,,,,,,0,,,89,0
1385280,note_on,0,0,4,,,,,,,,,3,,,42,49
1385280,note_on,0,0,4,,,,,,,,,3,,,30,49
1385280,note_on,0,0,4,,,,,,,,,3,,,30,0
1385280,note_on,960,0,4,,,,,,,,,3,,,42,0
1385439,note_on,0,0,1,,,,,,,,,0,,,85,62
1385439,note_on,319,0,1,,,,,,,,,0,,,90,0
1385471,note_on,32,0,1,,,,,,,,,0,,,85,0
1385760,note_on,0,0,2,,,,,,,,,1,,,59,0
1385760,note_on,289,0,1,,,,,,,,,0,,,85,62
1385760,note_on,1920,0,2,,,,,,,,,1,,,61,0
1385760,note_on,480,0,4,,,,,,,,,3,,,42,0
1385760,note_on,0,0,4,,,,,,,,,3,,,30,0
1385760,note_on,0,0,4,,,,,,,,,3,,,30,49
1385760,note_on,0,0,4,,,,,,,,,3,,,42,49
1385760,note_on,0,0,2,,,,,,,,,1,,,58,62
1385760,note_on,0,0,2,,,,,,,,,1,,,61,62
1385760,note_on,1920,0,3,,,,,,,,,2,,,54,0
1385760,note_on,0,0,3,,,,,,,,,2,,,54,49
1386080,note_on,0,0,1,,,,,,,,,0,,,90,62
1386080,note_on,320,0,1,,,,,,,,,0,,,85,0
1386240,note_on,480,0,4,,,,,,,,,3,,,42,0
1386240,note_on,0,0,4,,,,,,,,,3,,,30,0
1386240,note_on,0,0,4,,,,,,,,,3,,,30,49
1386240,note_on,0,0,4,,,,,,,,,3,,,42,49
1386399,note_on,319,0,1,,,,,,,,,0,,,90,0
1386399,note_on,0,0,1,,,,,,,,,0,,,90,62
1386431,note_on,32,0,1,,,,,,,,,0,,,90,0
1386480,note_on,0,0,2,,,,,,,,,1,,,66,62
1386480,note_on,720,0,2,,,,,,,,,1,,,61,0
1386480,note_on,0,0,2,,,,,,,,,1,,,58,0
1386720,note_on,240,0,2,,,,,,,,,1,,,66,0
1386720,note_on,0,0,2,,,,,,,,,1,,,58,62
1386720,note_on,960,0,3,,,,,,,,,2,,,54,0
1386720,note_on,0,0,3,,,,,,,,,2,,,54,49
1386720,note_on,0,0,2,,,,,,,,,1,,,66,62
1386720,note_on,289,0,1,,,,,,,,,0,,,93,62
1387040,note_on,0,0,1,,,,,,,,,0,,,85,62
1387040,note_on,320,0,1,,,,,,,,,0,,,93,0
1387200,note_on,0,0,4,,,,,,,,,3,,,30,49
1387200,note_on,960,0,4,,,,,,,,,3,,,42,0
1387200,note_on,0,0,4,,,,,,,,,3,,,30,0
1387200,note_on,0,0,4,,,,,,,,,3,,,42,49
1387359,note_on,319,0,1,,,,,,,,,0,,,85,0
1387359,note_on,0,0,1,,,,,,,,,0,,,85,62
1387391,note_on,32,0,1,,,,,,,,,0,,,85,0
1387440,note_on,720,0,2,,,,,,,,,1,,,66,0
1387440,note_on,0,0,2,,,,,,,,,1,,,58,0
1387440,note_on,0,0,2,,,,,,,,,1,,,61,62
1387680,note_on,0,0,4,,,,,,,,,3,,,35,49
1387680,note_on,0,0,4,,,,,,,,,3,,,30,0
1387680,note_on,0,0,4,,,,,,,,,3,,,47,49
1387680,note_on,480,0,4,,,,,,,,,3,,,42,0
1387680,note_on,0,0,3,,,,,,,,,2,,,54,49
1387680,note_on,240,0,2,,,,,,,,,1,,,61,0
1387680,note_on,289,0,1,,,,,,,,,0,,,87,62
1387680,note_on,0,0,2,,,,,,,,,1,,,59,62
1387680,note_on,960,0,3,,,,,,,,,2,,,54,0
1387680,note_on,0,0,2,,,,,,,,,1,,,63,62
1387910,note_on,230,0,1,,,,,,,,,0,,,90,62
1387940,note_on,30,0,1,,,,,,,,,0,,,92,62
1387970,note_on,30,0,1,,,,,,,,,0,,,94,62
1388000,note_on,30,0,1,,,,,,,,,0,,,87,0
1388000,note_on,0,0,1,,,,,,,,,0,,,95,62
1388032,note_on,32,0,1,,,,,,,,,0,,,95,0
1388032,note_on,0,0,1,,,,,,,,,0,,,94,0
1388032,note_on,0,0,1,,,,,,,,,0,,,92,0
1388032,note_on,0,0,1,,,,,,,,,0,,,90,0
1388160,note_on,0,0,4,,,,,,,,,3,,,47,49
1388160,note_on,480,0,4,,,,,,,,,3,,,47,0
1388160,note_on,0,0,4,,,,,,,,,3,,,35,0
1388160,note_on,0,0,4,,,,,,,,,3,,,35,49
1388319,note_on,287,0,1,,,,,,,,,0,,,94,62
1388351,note_on,32,0,1,,,,,,,,,0,,,94,0
1388640,note_on,289,0,1,,,,,,,,,0,,,92,62
1388671,note_on,31,0,1,,,,,,,,,0,,,92,0
1388960,note_on,289,0,1,,,,,,,,,0,,,90,62
1388992,note_on,32,0,1,,,,,,,,,0,,,90,0
1389120,note_on,0,0,4,,,,,,,,,3,,,47,49
1389120,note_on,0,0,4,,,,,,,,,3,,,35,49
1389120,note_on,960,0,4,,,,,,,,,3,,,47,0
1389120,note_on,0,0,4,,,,,,,,,3,,,35,0
1389279,note_on,287,0,1,,,,,,,,,0,,,88,62
1389311,note_on,32,0,1,,,,,,,,,0,,,88,0
1389600,note_on,289,0,1,,,,,,,,,0,,,87,62
1389600,note_on,0,0,4,,,,,,,,,3,,,47,49
1389600,note_on,0,0,4,,,,,,,,,3,,,35,49
1389600,note_on,0,0,4,,,,,,,,,3,,,35,0
1389600,note_on,480,0,4,,,,,,,,,3,,,47,0
1389631,note_on,31,0,1,,,,,,,,,0,,,87,0
1389920,note_on,289,0,1,,,,,,,,,0,,,85,62
1389952,note_on,32,0,1,,,,,,,,,0,,,85,0
1390080,note_on,0,0,4,,,,,,,,,3,,,47,49
1390080,note_on,0,0,4,,,,,,,,,3,,,35,49
1390080,note_on,0,0,4,,,,,,,,,3,,,35,0
1390080,note_on,480,0,4,,,,,,,,,3,,,47,0
1390239,note_on,287,0,1,,,,,,,,,0,,,83,62
1390271,note_on,32,0,1,,,,,,,,,0,,,83,0
1390560,note_on,289,0,1,,,,,,,,,0,,,82,62
1390591,note_on,31,0,1,,,,,,,,,0,,,82,0
1390880,note_on,289,0,1,,,,,,,,,0,,,83,62
1390912,note_on,32,0,1,,,,,,,,,0,,,83,0
1391040,note_on,0,0,4,,,,,,,,,3,,,47,49
1391040,note_on,0,0,4,,,,,,,,,3,,,35,49
1391040,note_on,0,0,4,,,,,,,,,3,,,35,0
1391040,note_on,960,0,4,,,,,,,,,3,,,47,0
1391199,note_on,287,0,1,,,,,,,,,0,,,85,62
1391231,note_on,32,0,1,,,,,,,,,0,,,85,0
1391520,note_on,0,0,4,,,,,,,,,3,,,43,49
1391520,note_on,480,0,4,,,,,,,,,3,,,47,0
1391520,note_on,0,0,4,,,,,,,,,3,,,31,49
1391520,note_on,3840,0,2,,,,,,,,,1,,,63,0
1391520,note_on,0,0,4,,,,,,,,,3,,,35,0
1391520,note_on,0,0,2,,,,,,,,,1,,,62,62
1391520,note_on,3840,0,3,,,,,,,,,2,,,54,0
1391520,note_on,0,0,3,,,,,,,,,2,,,55,49
1391520,note_on,0,0,3,,,,,,,,,2,,,59,49
1391520,note_on,289,0,1,,,,,,,,,0,,,86,62
1391520,note_on,0,0,2,,,,,,,,,1,,,59,0
1391551,note_on,31,0,1,,,,,,,,,0,,,86,0
1391840,note_on,289,0,1,,,,,,,,,0,,,83,62
1391872,note_on,32,0,1,,,,,,,,,0,,,83,0
1392000,note_on,480,0,4,,,,,,,,,3,,,43,0
1392000,note_on,0,0,4,,,,,,,,,3,,,31,0
1392000,note_on,0,0,4,,,,,,,,,3,,,31,49
1392000,note_on,0,0,4,,,,,,,,,3,,,43,49
1392159,note_on,287,0,1,,,,,,,,,0,,,81,62
1392191,note_on,32,0,1,,,,,,,,,0,,,81,0
1392480,note_on,289,0,1,,,,,,,,,0,,,79,62
1392511,note_on,31,0,1,,,,,,,,,0,,,79,0
1392800,note_on,289,0,1,,,,,,,,,0,,,78,62
1392832,note_on,32,0,1,,,,,,,,,0,,,78,0
1392960,note_on,0,0,4,,,,,,,,,3,,,31,49
1392960,note_on,0,0,4,,,,,,,,,3,,,43,49
1392960,note_on,0,0,4,,,,,,,,,3,,,31,0
1392960,note_on,960,0,4,,,,,,,,,3,,,43,0
1393119,note_on,287,0,1,,,,,,,,,0,,,76,62
1393151,note_on,32,0,1,,,,,,,,,0,,,76,0
1393440,note_on,1920,0,3,,,,,,,,,2,,,59,0
1393440,note_on,0,0,3,,,,,,,,,2,,,55,0
1393440,note_on,0,0,3,,,,,,,,,2,,,55,49
1393440,note_on,0,0,3,,,,,,,,,2,,,59,49
1393440,note_on,0,0,2,,,,,,,,,1,,,62,62
1393440,note_on,1920,0,2,,,,,,,,,1,,,62,0
1393440,note_on,289,0,1,,,,,,,,,0,,,74,62
1393440,note_on,0,0,4,,,,,,,,,3,,,43,49
1393440,note_on,0,0,4,,,,,,,,,3,,,31,49
1393440,note_on,0,0,4,,,,,,,,,3,,,31,0
1393440,note_on,480,0,4,,,,,,,,,3,,,43,0
1393471,note_on,31,0,1,,,,,,,,,0,,,74,0
1393760,note_on,289,0,1,,,,,,,,,0,,,76,62
1393792,note_on,32,0,1,,,,,,,,,0,,,76,0
1393920,note_on,480,0,4,,,,,,,,,3,,,43,0
1393920,note_on,0,0,4,,,,,,,,,3,,,31,0
1393920,note_on,0,0,4,,,,,,,,,3,,,35,49
1393920,note_on,0,0,4,,,,,,,,,3,,,47,49
1394079,note_on,287,0,1,,,,,,,,,0,,,77,62
1394111,note_on,32,0,1,,,,,,,,,0,,,77,0
1394400,note_on,0,0,4,,,,,,,,,3,,,38,49
1394400,note_on,960,0,3,,,,,,,,,2,,,59,0
1394400,note_on,0,0,3,,,,,,,,,2,,,57,49
1394400,note_on,0,0,4,,,,,,,,,3,,,35,0
1394400,note_on,480,0,4,,,,,,,,,3,,,47,0
1394400,note_on,289,0,1,,,,,,,,,0,,,78,62
1394400,note_on,0,0,2,,,,,,,,,1,,,62,62
1394400,note_on,960,0,2,,,,,,,,,1,,,62,0
1394400,note_on,0,0,3,,,,,,,,,2,,,55,0
1394400,note_on,0,0,3,,,,,,,,,2,,,54,49
1394431,note_on,31,0,1,,,,,,,,,0,,,78,0
1394720,note_on,289,0,1,,,,,,,,,0,,,79,62
1394752,note_on,32,0,1,,,,,,,,,0,,,79,0
1394880,note_on,480,0,4,,,,,,,,,3,,,38,0
1394880,note_on,0,0,4,,,,,,,,,3,,,30,49
1394880,note_on,0,0,4,,,,,,,,,3,,,42,49
1395039,note_on,287,0,1,,,,,,,,,0,,,81,62
1395071,note_on,32,0,1,,,,,,,,,0,,,81,0
1395360,note_on,0,0,1,,,,,,,,,0,,,83,62
1395360,control_change,289,0,1,,,,,,,,,0,64,127,,
1395360,note_on,0,0,3,,,,,,,,,2,,,54,0
1395360,note_on,480,0,4,,,,,,,,,3,,,42,0
1395360,note_on,960,0,3,,,,,,,,,2,,,57,0
1395360,note_on,0,0,3,,,,,,,,,2,,,57,49
1395360,note_on,960,0,2,,,,,,,,,1,,,62,0
1395360,note_on,0,0,2,,,,,,,,,1,,,62,62
1395360,note_on,0,0,4,,,,,,,,,3,,,30,0
1395360,note_on,0,0,4,,,,,,,,,3,,,33,49
1395360,note_on,0,0,4,,,,,,,,,3,,,45,49
1395360,note_on,0,0,3,,,,,,,,,2,,,50,49
1395680,note_on,320,0,1,,,,,,,,,0,,,83,0
1395680,note_on,0,0,1,,,,,,,,,0,,,81,62
1395840,note_on,480,0,4,,,,,,,,,3,,,45,0
1395840,note_on,0,0,4,,,,,,,,,3,,,45,49
1395840,note_on,0,0,4,,,,,,,,,3,,,33,49
1395840,note_on,0,0,4,,,,,,,,,3,,,33,0
1395999,note_on,0,0,1,,,,,,,,,0,,,80,62
1395999,note_on,319,0,1,,,,,,,,,0,,,81,0
1396320,note_on,960,0,2,,,,,,,,,1,,,62,0
1396320,note_on,0,0,1,,,,,,,,,0,,,81,62
1396320,note_on,321,0,1,,,,,,,,,0,,,80,0
1396320,note_on,0,0,2,,,,,,,,,1,,,61,62
1396640,note_on,0,0,1,,,,,,,,,0,,,83,62
1396640,note_on,320,0,1,,,,,,,,,0,,,81,0
1396800,note_on,0,0,4,,,,,,,,,3,,,33,49
1396800,note_on,0,0,4,,,,,,,,,3,,,33,0
1396800,note_on,0,0,4,,,,,,,,,3,,,45,49
1396800,note_on,960,0,4,,,,,,,,,3,,,45,0
1396959,note_on,0,0,1,,,,,,,,,0,,,84,62
1396959,note_on,319,0,1,,,,,,,,,0,,,83,0
1397280,note_on,480,0,4,,,,,,,,,3,,,45,0
1397280,note_on,0,0,4,,,,,,,,,3,,,33,0
1397280,note_on,0,0,4,,,,,,,,,3,,,33,49
1397280,note_on,0,0,4,,,,,,,,,3,,,45,49
1397280,note_on,0,0,1,,,,,,,,,0,,,85,62
1397280,note_on,0,0,3,,,,,,,,,2,,,52,49
1397280,note_on,321,0,1,,,,,,,,,0,,,84,0
1397280,note_on,0,0,2,,,,,,,,,1,,,61,62
1397280,note_on,960,0,2,,,,,,,,,1,,,61,0
1397280,note_on,1920,0,3,,,,,,,,,2,,,50,0
1397600,note_on,320,0,1,,,,,,,,,0,,,85,0
1397600,note_on,0,0,1,,,,,,,,,0,,,86,62
1397760,note_on,0,0,4,,,,,,,,,3,,,45,49
1397760,note_on,0,0,4,,,,,,,,,3,,,33,49
1397760,note_on,0,0,4,,,,,,,,,3,,,33,0
1397760,note_on,480,0,4,,,,,,,,,3,,,45,0
1397919,note_on,319,0,1,,,,,,,,,0,,,86,0
1397919,control_change,0,0,1,,,,,,,,,0,64,0,,
1397919,note_on,0,0,1,,,,,,,,,0,,,87,62
1398240,note_on,0,0,1,,,,,,,,,0,,,88,62
1398240,note_on,321,0,1,,,,,,,,,0,,,87,0
1398240,note_on,960,0,3,,,,,,,,,2,,,52,0
1398240,note_on,0,0,3,,,,,,,,,2,,,57,0
1398240,note_on,0,0,3,,,,,,,,,2,,,52,49
1398240,note_on,0,0,3,,,,,,,,,2,,,57,49
1398240,note_on,0,0,2,,,,,,,,,1,,,61,62
1398240,note_on,960,0,2,,,,,,,,,1,,,61,0
1398271,note_on,31,0,1,,,,,,,,,0,,,88,0
1398560,note_on,289,0,1,,,,,,,,,0,,,88,62
1398592,note_on,32,0,1,,,,,,,,,0,,,88,0
1398720,note_on,0,0,4,,,,,,,,,3,,,37,49
1398720,note_on,0,0,4,,,,,,,,,3,,,49,49
1398720,note_on,0,0,4,,,,,,,,,3,,,33,0
1398720,note_on,960,0,4,,,,,,,,,3,,,45,0
1398879,note_on,287,0,1,,,,,,,,,0,,,88,62
1398911,note_on,32,0,1,,,,,,,,,0,,,88,0
1399200,note_on,289,0,1,,,,,,,,,0,,,90,62
1399200,note_on,480,0,4,,,,,,,,,3,,,49,0
1399200,note_on,0,0,4,,,,,,,,,3,,,37,0
1399200,note_on,0,0,4,,,,,,,,,3,,,40,49
1399200,note_on,960,0,2,,,,,,,,,1,,,61,0
1399200,note_on,0,0,2,,,,,,,,,1,,,59,62
1399200,note_on,0,0,3,,,,,,,,,2,,,57,49
1399200,note_on,0,0,3,,,,,,,,,2,,,52,49
1399200,note_on,0,0,3,,,,,,,,,2,,,52,0
1399200,note_on,960,0,3,,,,,,,,,2,,,57,0
1399520,note_on,0,0,1,,,,,,,,,0,,,88,62
1399520,note_on,320,0,1,,,,,,,,,0,,,90,0
1399680,note_on,480,0,4,,,,,,,,,3,,,40,0
1399680,note_on,0,0,4,,,,,,,,,3,,,40,49
1399839,note_on,0,0,1,,,,,,,,,0,,,87,62
1399839,note_on,319,0,1,,,,,,,,,0,,,88,0
1399871,note_on,32,0,1,,,,,,,,,0,,,87,0
1400160,note_on,289,0,1,,,,,,,,,0,,,87,62
1400480,note_on,0,0,1,,,,,,,,,0,,,88,62
1400480,note_on,320,0,1,,,,,,,,,0,,,87,0
1400640,note_on,0,0,4,,,,,,,,,3,,,40,49
1400640,note_on,960,0,4,,,,,,,,,3,,,40,0
1400799,note_on,0,0,1,,,,,,,,,0,,,83,62
1400799,note_on,319,0,1,,,,,,,,,0,,,88,0
1400831,note_on,32,0,1,,,,,,,,,0,,,83,0
1401120,set_tempo,24960,1,0,,,,,,312500,,,,,,,
1401120,note_on,1920,0,2,,,,,,,,,1,,,59,0
1401120,note_on,0,0,3,,,,,,,,,2,,,52,0
1401120,note_on,0,0,3,,,,,,,,,2,,,56,49
1401120,note_on,0,0,3,,,,,,,,,2,,,52,49
1401120,note_on,1920,0,3,,,,,,,,,2,,,57,0
1401120,note_on,480,0,4,,,,,,,,,3,,,40,0
1401120,note_on,0,0,4,,,,,,,,,3,,,40,49
1401120,note_on,289,0,1,,,,,,,,,0,,,83,62
1401120,note_on,0,0,2,,,,,,,,,1,,,59,62
1401440,note_on,0,0,1,,,,,,,,,0,,,88,62
1401440,note_on,320,0,1,,,,,,,,,0,,,83,0
1401600,note_on,480,0,4,,,,,,,,,3,,,40,0
1401600,note_on,0,0,4,,,,,,,,,3,,,40,49
1401759,note_on,0,0,1,,,,,,,,,0,,,88,62
1401759,note_on,319,0,1,,,,,,,,,0,,,88,0
1401791,note_on,32,0,1,,,,,,,,,0,,,88,0
1401840,note_on,0,0,2,,,,,,,,,1,,,64,62
1401840,note_on,720,0,2,,,,,,,,,1,,,59,0
1402080,note_on,289,0,1,,,,,,,,,0,,,88,62
1402080,note_on,960,0,3,,,,,,,,,2,,,56,0
1402080,note_on,0,0,3,,,,,,,,,2,,,56,49
1402080,note_on,0,0,3,,,,,,,,,2,,,52,49
1402080,note_on,0,0,3,,,,,,,,,2,,,52,0
1402080,note_on,0,0,2,,,,,,,,,1,,,64,62
1402080,note_on,240,0,2,,,,,,,,,1,,,64,0
1402400,note_on,0,0,1,,,,,,,,,0,,,83,62
1402400,note_on,320,0,1,,,,,,,,,0,,,88,0
1402560,note_on,960,0,4,,,,,,,,,3,,,40,0
1402560,note_on,0,0,4,,,,,,,,,3,,,40,49
1402719,note_on,319,0,1,,,,,,,,,0,,,83,0
1402719,note_on,0,0,1,,,,,,,,,0,,,83,62
1402751,note_on,32,0,1,,,,,,,,,0,,,83,0
1402800,note_on,0,0,2,,,,,,,,,1,,,59,62
1402800,note_on,720,0,2,,,,,,,,,1,,,64,0
1403040,note_on,960,0,3,,,,,,,,,2,,,56,0
1403040,note_on,0,0,3,,,,,,,,,2,,,52,0
1403040,note_on,480,0,4,,,,,,,,,3,,,40,0
1403040,note_on,0,0,4,,,,,,,,,3,,,33,49
1403040,note_on,0,0,4,,,,,,,,,3,,,45,49
1403040,note_on,0,0,3,,,,,,,,,2,,,57,49
1403040,note_on,289,0,1,,,,,,,,,0,,,85,62
1403040,note_on,0,0,3,,,,,,,,,2,,,52,49
1403040,note_on,240,0,2,,,,,,,,,1,,,59,0
1403040,note_on,0,0,2,,,,,,,,,1,,,61,62
1403360,note_on,320,0,1,,,,,,,,,0,,,85,0
1403360,note_on,0,0,1,,,,,,,,,0,,,76,62
1403520,note_on,480,0,4,,,,,,,,,3,,,45,0
1403520,note_on,0,0,4,,,,,,,,,3,,,45,49
1403520,note_on,0,0,4,,,,,,,,,3,,,33,0
1403679,note_on,0,0,1,,,,,,,,,0,,,76,62
1403679,note_on,319,0,1,,,,,,,,,0,,,76,0
1403711,note_on,32,0,1,,,,,,,,,0,,,76,0
1404000,note_on,289,0,1,,,,,,,,,0,,,76,62
1404320,note_on,320,0,1,,,,,,,,,0,,,76,0
1404320,note_on,0,0,1,,,,,,,,,0,,,81,62
1404480,note_on,0,0,4,,,,,,,,,3,,,45,49
1404480,note_on,960,0,4,,,,,,,,,3,,,45,0
1404639,note_on,319,0,1,,,,,,,,,0,,,81,0
1404639,note_on,0,0,1,,,,,,,,,0,,,83,62
1404671,note_on,32,0,1,,,,,,,,,0,,,83,0
1404960,note_on,0,0,2,,,,,,,,,1,,,73,62
1404960,note_on,0,0,4,,,,,,,,,3,,,45,62
1404960,note_on,480,0,4,,,,,,,,,3,,,45,0
1404960,set_tempo,3840,1,0,,,,,,270270,,,,,,,
1404960,note_on,289,0,1,,,,,,,,,0,,,85,62
1404960,note_on,1920,0,2,,,,,,,,,1,,,61,0
1404960,note_on,1920,0,3,,,,,,,,,2,,,57,0
1404960,note_on,0,0,3,,,,,,,,,2,,,52,0
1405280,note_on,0,0,1,,,,,,,,,0,,,88,62
1405280,note_on,0,0,2,,,,,,,,,1,,,76,62
1405280,control_change,320,0,3,,,,,,,,,2,64,127,,
1405280,note_on,320,0,2,,,,,,,,,1,,,73,0
1405280,note_on,0,0,3,,,,,,,,,2,,,52,49
1405280,note_on,320,0,1,,,,,,,,,0,,,85,0
1405440,note_on,0,0,4,,,,,,,,,3,,,45,62
1405440,note_on,480,0,4,,,,,,,,,3,,,45,0
1405599,note_on,319,0,2,,,,,,,,,1,,,76,0
1405599,note_on,0,0,2,,,,,,,,,1,,,76,62
1405599,note_on,0,0,1,,,,,,,,,0,,,88,62
1405599,note_on,319,0,3,,,,,,,,,2,,,52,0
1405599,note_on,319,0,1,,,,,,,,,0,,,88,0
1405599,note_on,0,0,3,,,,,,,,,2,,,57,49
1405631,note_on,32,0,2,,,,,,,,,1,,,76,0
1405631,note_on,32,0,1,,,,,,,,,0,,,88,0
1405920,note_on,321,0,3,,,,,,,,,2,,,57,0
1405920,note_on,0,0,3,,,,,,,,,2,,,61,49
1405920,note_on,289,0,1,,,,,,,,,0,,,88,62
1405920,note_on,289,0,2,,,,,,,,,1,,,76,62
1406240,note_on,0,0,3,,,,,,,,,2,,,57,49
1406240,note_on,320,0,3,,,,,,,,,2,,,61,0
1406240,note_on,0,0,2,,,,,,,,,1,,,73,62
1406240,note_on,320,0,1,,,,,,,,,0,,,88,0
1406240,note_on,0,0,1,,,,,,,,,0,,,85,62
1406240,note_on,320,0,2,,,,,,,,,1,,,76,0
1406400,note_on,0,0,4,,,,,,,,,3,,,45,62
1406400,note_on,960,0,4,,,,,,,,,3,,,45,0
1406559,note_on,319,0,2,,,,,,,,,1,,,73,0
1406559,note_on,0,0,2,,,,,,,,,1,,,69,62
1406559,note_on,319,0,3,,,,,,,,,2,,,57,0
1406559,control_change,0,0,3,,,,,,,,,2,64,0,,
1406559,note_on,0,0,3,,,,,,,,,2,,,52,49
1406559,note_on,319,0,1,,,,,,,,,0,,,85,0
1406559,note_on,0,0,1,,,,,,,,,0,,,81,62
1406591,note_on,32,0,1,,,,,,,,,0,,,81,0
1406591,note_on,32,0,2,,,,,,,,,1,,,69,0
1406880,note_on,480,0,4,,,,,,,,,3,,,45,0
1406880,note_on,0,0,4,,,,,,,,,3,,,45,62
1406880,note_on,321,0,3,,,,,,,,,2,,,52,0
1406880,control_change,289,0,2,,,,,,,,,1,64,127,,
1406880,note_on,0,0,2,,,,,,,,,1,,,73,62
1406880,note_on,0,0,1,,,,,,,,,0,,,85,62
1406880,control_change,289,0,1,,,,,,,,,0,64,127,,
1407200,note_on,320,0,1,,,,,,,,,0,,,85,0
1407200,note_on,0,0,1,,,,,,,,,0,,,83,62
1407200,control_change,320,0,3,,,,,,,,,2,64,127,,
1407200,note_on,0,0,2,,,,,,,,,1,,,71,62
1407200,note_on,320,0,2,,,,,,,,,1,,,73,0
1407200,note_on,0,0,3,,,,,,,,,2,,,52,49
1407360,note_on,480,0,4,,,,,,,,,3,,,45,0
1407360,note_on,0,0,4,,,,,,,,,3,,,45,62
1407519,note_on,319,0,3,,,,,,,,,2,,,52,0
1407519,control_change,0,0,1,,,,,,,,,0,64,0,,
1407519,note_on,319,0,2,,,,,,,,,1,,,71,0
1407519,control_change,0,0,2,,,,,,,,,1,64,0,,
1407519,note_on,0,0,2,,,,,,,,,1,,,70,62
1407519,note_on,319,0,1,,,,,,,,,0,,,83,0
1407519,note_on,0,0,3,,,,,,,,,2,,,56,49
1407519,note_on,0,0,1,,,,,,,,,0,,,82,62
1407840,note_on,0,0,2,,,,,,,,,1,,,70,62
1407840,note_on,321,0,2,,,,,,,,,1,,,70,0
1407840,control_change,0,0,2,,,,,,,,,1,64,127,,
1407840,note_on,0,0,1,,,,,,,,,0,,,82,62
1407840,note_on,321,0,3,,,,,,,,,2,,,56,0
1407840,note_on,321,0,1,,,,,,,,,0,,,82,0
1407840,control_change,0,0,1,,,,,,,,,0,64,127,,
1407840,note_on,0,0,3,,,,,,,,,2,,,62,49
1408160,note_on,0,0,2,,,,,,,,,1,,,71,62
1408160,note_on,320,0,2,,,,,,,,,1,,,70,0
1408160,note_on,0,0,3,,,,,,,,,2,,,56,49
1408160,note_on,320,0,3,,,,,,,,,2,,,62,0
1408160,note_on,0,0,1,,,,,,,,,0,,,83,62
1408160,note_on,320,0,1,,,,,,,,,0,,,82,0
1408320,note_on,960,0,4,,,,,,,,,3,,,45,0
1408320,note_on,0,0,4,,,,,,,,,3,,,45,62
1408479,note_on,319,0,1,,,,,,,,,0,,,83,0
1408479,control_change,0,0,1,,,,,,,,,0,64,0,,
1408479,note_on,0,0,1,,,,,,,,,0,,,85,62
1408479,note_on,319,0,3,,,,,,,,,2,,,56,0
1408479,control_change,0,0,3,,,,,,,,,2,64,0,,
1408479,note_on,0,0,3,,,,,,,,,2,,,52,49
1408479,control_change,0,0,2,,,,,,,,,1,64,0,,
1408479,note_on,0,0,2,,,,,,,,,1,,,73,62
1408479,note_on,319,0,2,,,,,,,,,1,,,71,0
1408800,note_on,321,0,3,,,,,,,,,2,,,52,0
1408800,note_on,321,0,2,,,,,,,,,1,,,73,0
1408800,note_on,0,0,1,,,,,,,,,0,,,86,62
1408800,note_on,321,0,1,,,,,,,,,0,,,85,0
1408800,note_on,0,0,2,,,,,,,,,1,,,74,62
1408800,note_on,480,0,4,,,,,,,,,3,,,45,0
1408800,note_on,0,0,4,,,,,,,,,3,,,45,62
1409120,note_on,0,0,2,,,,,,,,,1,,,78,62
1409120,note_on,320,0,2,,,,,,,,,1,,,74,0
1409120,note_on,0,0,3,,,,,,,,,2,,,52,49
1409120,note_on,0,0,1,,,,,,,,,0,,,90,62
1409120,control_change,320,0,3,,,,,,,,,2,64,127,,
1409120,note_on,320,0,1,,,,,,,,,0,,,86,0
1409280,note_on,480,0,4,,,,,,,,,3,,,45,0
1409280,note_on,0,0,4,,,,,,,,,3,,,45,62
1409439,note_on,319,0,1,,,,,,,,,0,,,90,0
1409439,note_on,0,0,1,,,,,,,,,0,,,90,62
1409439,note_on,0,0,2,,,,,,,,,1,,,78,62
1409439,note_on,319,0,2,,,,,,,,,1,,,78,0
1409439,note_on,319,0,3,,,,,,,,,2,,,52,0
1409439,note_on,0,0,3,,,,,,,,,2,,,56,49
1409471,note_on,32,0,1,,,,,,,,,0,,,90,0
1409471,note_on,32,0,2,,,,,,,,,1,,,78,0
1409760,control_change,289,0,2,,,,,,,,,1,64,127,,
1409760,note_on,321,0,3,,,,,,,,,2,,,56,0
1409760,note_on,0,0,2,,,,,,,,,1,,,78,62
1409760,note_on,0,0,1,,,,,,,,,0,,,90,62
1409760,control_change,289,0,1,,,,,,,,,0,64,127,,
1409760,note_on,0,0,3,,,,,,,,,2,,,62,49
1410080,note_on,320,0,2,,,,,,,,,1,,,78,0
1410080,note_on,0,0,2,,,,,,,,,1,,,74,62
1410080,note_on,320,0,3,,,,,,,,,2,,,62,0
1410080,note_on,0,0,1,,,,,,,,,0,,,86,62
1410080,note_on,320,0,1,,,,,,,,,0,,,90,0
1410080,note_on,0,0,3,,,,,,,,,2,,,56,49
1410240,note_on,0,0,4,,,,,,,,,3,,,45,62
1410240,note_on,960,0,4,,,,,,,,,3,,,45,0
1410399,note_on,319,0,3,,,,,,,,,2,,,56,0
1410399,note_on,0,0,2,,,,,,,,,1,,,71,62
1410399,control_change,0,0,2,,,,,,,,,1,64,0,,
1410399,note_on,319,0,2,,,,,,,,,1,,,74,0
1410399,control_change,0,0,3,,,,,,,,,2,64,0,,
1410399,control_change,0,0,1,,,,,,,,,0,64,0,,
1410399,note_on,319,0,1,,,,,,,,,0,,,86,0
1410399,note_on,0,0,3,,,,,,,,,2,,,52,49
1410399,note_on,0,0,1,,,,,,,,,0,,,83,62
1410431,note_on,32,0,1,,,,,,,,,0,,,83,0
1410431,note_on,32,0,2,,,,,,,,,1,,,71,0
1410720,note_on,0,0,4,,,,,,,,,3,,,45,62
1410720,note_on,480,0,4,,,,,,,,,3,,,45,0
1410720,control_change,289,0,1,,,,,,,,,0,64,127,,
1410720,note_on,0,0,1,,,,,,,,,0,,,84,62
1410720,note_on,0,0,2,,,,,,,,,1,,,72,62
1410720,control_change,289,0,2,,,,,,,,,1,64,127,,
1410720,note_on,321,0,3,,,,,,,,,2,,,52,0
1411040,control_change,320,0,3,,,,,,,,,2,64,127,,
1411040,note_on,0,0,3,,,,,,,,,2,,,52,49
1411040,note_on,320,0,1,,,,,,,,,0,,,84,0
1411040,note_on,0,0,1,,,,,,,,,0,,,85,62
1411040,note_on,320,0,2,,,,,,,,,1,,,72,0
1411040,note_on,0,0,2,,,,,,,,,1,,,73,62
1411200,note_on,0,0,4,,,,,,,,,3,,,45,62
1411200,note_on,480,0,4,,,,,,,,,3,,,45,0
1411359,note_on,0,0,1,,,,,,,,,0,,,86,62
1411359,note_on,319,0,1,,,,,,,,,0,,,85,0
1411359,note_on,319,0,3,,,,,,,,,2,,,52,0
1411359,note_on,0,0,3,,,,,,,,,2,,,57,49
1411359,note_on,0,0,2,,,,,,,,,1,,,74,62
1411359,note_on,319,0,2,,,,,,,,,1,,,73,0
1411680,note_on,0,0,3,,,,,,,,,2,,,61,49
1411680,note_on,0,0,1,,,,,,,,,0,,,85,62
1411680,note_on,321,0,1,,,,,,,,,0,,,86,0
1411680,note_on,321,0,2,,,,,,,,,1,,,74,0
1411680,note_on,0,0,2,,,,,,,,,1,,,73,62
1411680,note_on,321,0,3,,,,,,,,,2,,,57,0
1412000,note_on,0,0,1,,,,,,,,,0,,,86,62
1412000,note_on,320,0,2,,,,,,,,,1,,,73,0
1412000,note_on,0,0,2,,,,,,,,,1,,,74,62
1412000,note_on,320,0,3,,,,,,,,,2,,,61,0
1412000,note_on,0,0,3,,,,,,,,,2,,,57,49
1412000,note_on,320,0,1,,,,,,,,,0,,,85,0
1412160,note_on,0,0,4,,,,,,,,,3,,,45,62
1412160,note_on,960,0,4,,,,,,,,,3,,,45,0
1412319,note_on,319,0,3,,,,,,,,,2,,,57,0
1412319,note_on,0,0,1,,,,,,,,,0,,,87,62
1412319,control_change,0,0,3,,,,,,,,,2,64,0,,
1412319,note_on,0,0,3,,,,,,,,,2,,,52,49
1412319,note_on,319,0,1,,,,,,,,,0,,,86,0
1412319,control_change,0,0,1,,,,,,,,,0,64,0,,
1412319,note_on,0,0,2,,,,,,,,,1,,,75,62
1412319,note_on,319,0,2,,,,,,,,,1,,,74,0
1412319,control_change,0,0,2,,,,,,,,,1,64,0,,
1412640,note_on,321,0,2,,,,,,,,,1,,,75,0
1412640,note_on,321,0,1,,,,,,,,,0,,,87,0
1412640,note_on,0,0,4,,,,,,,,,3,,,49,62
1412640,note_on,480,0,4,,,,,,,,,3,,,45,0
1412640,note_on,0,0,1,,,,,,,,,0,,,88,62
1412640,note_on,321,0,3,,,,,,,,,2,,,52,0
1412640,note_on,0,0,2,,,,,,,,,1,,,76,62
1412960,note_on,0,0,2,,,,,,,,,1,,,81,62
1412960,note_on,320,0,1,,,,,,,,,0,,,88,0
1412960,note_on,320,0,2,,,,,,,,,1,,,76,0
1412960,note_on,0,0,1,,,,,,,,,0,,,93,62
1412960,control_change,320,0,3,,,,,,,,,2,64,127,,
1412960,note_on,0,0,3,,,,,,,,,2,,,52,49
1413120,note_on,480,0,4,,,,,,,,,3,,,49,0
1413120,note_on,0,0,4,,,,,,,,,3,,,49,62
1413279,note_on,0,0,3,,,,,,,,,2,,,61,49
1413279,note_on,319,0,3,,,,,,,,,2,,,52,0
1413279,note_on,0,0,1,,,,,,,,,0,,,93,62
1413279,note_on,319,0,1,,,,,,,,,0,,,93,0
1413279,note_on,0,0,2,,,,,,,,,1,,,81,62
1413279,note_on,319,0,2,,,,,,,,,1,,,81,0
1413311,note_on,32,0,2,,,,,,,,,1,,,81,0
1413311,note_on,32,0,1,,,,,,,,,0,,,93,0
1413600,note_on,0,0,3,,,,,,,,,2,,,64,49
1413600,note_on,289,0,2,,,,,,,,,1,,,81,62
1413600,note_on,289,0,1,,,,,,,,,0,,,93,62
1413600,note_on,321,0,3,,,,,,,,,2,,,61,0
1413920,note_on,320,0,2,,,,,,,,,1,,,81,0
1413920,note_on,0,0,2,,,,,,,,,1,,,73,62
1413920,note_on,0,0,3,,,,,,,,,2,,,61,49
1413920,note_on,320,0,3,,,,,,,,,2,,,64,0
1413920,note_on,320,0,1,,,,,,,,,0,,,93,0
1413920,note_on,0,0,1,,,,,,,,,0,,,85,62
1414080,note_on,0,0,4,,,,,,,,,3,,,49,62
1414080,note_on,960,0,4,,,,,,,,,3,,,49,0
1414239,note_on,319,0,2,,,,,,,,,1,,,73,0
1414239,note_on,0,0,3,,,,,,,,,2,,,52,49
1414239,control_change,0,0,3,,,,,,,,,2,64,0,,
1414239,note_on,319,0,1,,,,,,,,,0,,,85,0
1414239,note_on,0,0,1,,,,,,,,,0,,,85,62
1414239,note_on,0,0,2,,,,,,,,,1,,,73,62
1414239,note_on,319,0,3,,,,,,,,,2,,,61,0
1414271,note_on,32,0,1,,,,,,,,,0,,,85,0
1414271,note_on,32,0,2,,,,,,,,,1,,,73,0
1414560,note_on,289,0,1,,,,,,,,,0,,,85,62
1414560,note_on,0,0,4,,,,,,,,,3,,,52,62
1414560,note_on,289,0,2,,,,,,,,,1,,,73,62
1414560,note_on,321,0,3,,,,,,,,,2,,,52,0
1414560,note_on,480,0,4,,,,,,,,,3,,,49,0
1414880,note_on,320,0,1,,,,,,,,,0,,,85,0
1414880,note_on,0,0,1,,,,,,,,,0,,,88,62
1414880,note_on,320,0,2,,,,,,,,,1,,,73,0
1414880,note_on,0,0,2,,,,,,,,,1,,,76,62
1414880,control_change,320,0,3,,,,,,,,,2,64,127,,
1414880,note_on,0,0,3,,,,,,,,,2,,,57,49
1415040,note_on,480,0,4,,,,,,,,,3,,,52,0
1415040,note_on,0,0,4,,,,,,,,,3,,,52,62
1415199,note_on,0,0,2,,,,,,,,,1,,,76,62
1415199,note_on,319,0,3,,,,,,,,,2,,,57,0
1415199,note_on,0,0,3,,,,,,,,,2,,,61,49
1415199,note_on,0,0,1,,,,,,,,,0,,,88,62
1415199,note_on,319,0,1,,,,,,,,,0,,,88,0
1415199,note_on,319,0,2,,,,,,,,,1,,,76,0
1415231,note_on,32,0,2,,,,,,,,,1,,,76,0
1415231,note_on,32,0,1,,,,,,,,,0,,,88,0
1415520,note_on,289,0,2,,,,,,,,,1,,,76,62
1415520,note_on,289,0,1,,,,,,,,,0,,,88,62
1415520,note_on,0,0,3,,,,,,,,,2,,,64,49
1415520,note_on,321,0,3,,,,,,,,,2,,,61,0
1415840,note_on,320,0,2,,,,,,,,,1,,,76,0
1415840,note_on,0,0,1,,,,,,,,,0,,,81,62
1415840,note_on,320,0,1,,,,,,,,,0,,,88,0
1415840,note_on,320,0,3,,,,,,,,,2,,,64,0
1415840,note_on,0,0,3,,,,,,,,,2,,,61,49
1415840,note_on,0,0,2,,,,,,,,,1,,,69,62
1416000,note_on,0,0,4,,,,,,,,,3,,,52,62
1416000,note_on,960,0,4,,,,,,,,,3,,,52,0
1416159,note_on,0,0,2,,,,,,,,,1,,,69,62
1416159,note_on,319,0,3,,,,,,,,,2,,,61,0
1416159,control_change,0,0,3,,,,,,,,,2,64,0,,
1416159,note_on,319,0,1,,,,,,,,,0,,,81,0
1416159,note_on,0,0,1,,,,,,,,,0,,,81,62
1416159,note_on,0,0,3,,,,,,,,,2,,,57,49
1416159,note_on,319,0,2,,,,,,,,,1,,,69,0
1416191,note_on,32,0,1,,,,,,,,,0,,,81,0
1416191,note_on,32,0,2,,,,,,,,,1,,,69,0
1416480,control_change,289,0,1,,,,,,,,,0,64,127,,
1416480,control_change,289,0,2,,,,,,,,,1,64,127,,
1416480,note_on,0,0,2,,,,,,,,,1,,,68,62
1416480,note_on,0,0,4,,,,,,,,,3,,,52,62
1416480,note_on,480,0,4,,,,,,,,,3,,,52,0
1416480,note_on,0,0,1,,,,,,,,,0,,,80,62
1416480,note_on,321,0,3,,,,,,,,,2,,,57,0
1416800,note_on,320,0,2,,,,,,,,,1,,,68,0
1416800,note_on,0,0,2,,,,,,,,,1,,,69,62
1416800,note_on,0,0,1,,,,,,,,,0,,,81,62
1416800,note_on,0,0,3,,,,,,,,,2,,,61,49
1416800,control_change,320,0,3,,,,,,,,,2,64,127,,
1416800,note_on,320,0,1,,,,,,,,,0,,,80,0
1416960,note_on,480,0,4,,,,,,,,,3,,,52,0
1416960,note_on,0,0,4,,,,,,,,,3,,,52,62
1417119,note_on,0,0,3,,,,,,,,,2,,,64,49
1417119,note_on,319,0,3,,,,,,,,,2,,,61,0
1417119,note_on,0,0,1,,,,,,,,,0,,,82,75
1417119,note_on,319,0,2,,,,,,,,,1,,,69,0
1417119,note_on,0,0,2,,,,,,,,,1,,,70,75
1417119,note_on,319,0,1,,,,,,,,,0,,,81,0
1417440,note_on,321,0,2,,,,,,,,,1,,,70,0
1417440,note_on,0,0,2,,,,,,,,,1,,,73,75
1417440,note_on,321,0,3,,,,,,,,,2,,,64,0
1417440,note_on,0,0,3,,,,,,,,,2,,,62,62
1417440,note_on,0,0,1,,,,,,,,,0,,,85,75
1417440,note_on,321,0,1,,,,,,,,,0,,,82,0
1417760,note_on,320,0,3,,,,,,,,,2,,,62,0
1417760,note_on,0,0,2,,,,,,,,,1,,,71,88
1417760,note_on,320,0,2,,,,,,,,,1,,,73,0
1417760,note_on,0,0,1,,,,,,,,,0,,,83,88
1417760,note_on,0,0,3,,,,,,,,,2,,,64,62
1417760,note_on,320,0,1,,,,,,,,,0,,,85,0
1417920,note_on,960,0,4,,,,,,,,,3,,,52,0
1417920,note_on,0,0,4,,,,,,,,,3,,,52,62
1418079,note_on,319,0,2,,,,,,,,,1,,,71,0
1418079,note_on,0,0,1,,,,,,,,,0,,,84,88
1418079,control_change,0,0,1,,,,,,,,,0,64,0,,
1418079,control_change,0,0,2,,,,,,,,,1,64,0,,
1418079,note_on,0,0,2,,,,,,,,,1,,,72,88
1418079,note_on,319,0,1,,,,,,,,,0,,,83,0
1418079,control_change,0,0,3,,,,,,,,,2,64,0,,
1418079,note_on,0,0,3,,,,,,,,,2,,,62,62
1418079,note_on,319,0,3,,,,,,,,,2,,,64,0
1418400,note_on,321,0,3,,,,,,,,,2,,,62,0
1418400,note_on,321,0,2,,,,,,,,,1,,,72,0
1418400,note_on,321,0,1,,,,,,,,,0,,,84,0
1418400,control_change,0,0,1,,,,,,,,,0,64,127,,
1418400,note_on,0,0,1,,,,,,,,,0,,,86,88
1418400,note_on,0,0,2,,,,,,,,,1,,,74,88
1418400,note_on,0,0,4,,,,,,,,,3,,,52,62
1418400,note_on,0,0,4,,,,,,,,,3,,,45,62
1418400,note_on,480,0,4,,,,,,,,,3,,,52,0
1418400,control_change,0,0,2,,,,,,,,,1,64,127,,
1418720,control_change,320,0,3,,,,,,,,,2,64,127,,
1418720,note_on,0,0,3,,,,,,,,,2,,,57,62
1418720,note_on,0,0,1,,,,,,,,,0,,,85,75
1418720,note_on,320,0,1,,,,,,,,,0,,,86,0
1418720,note_on,0,0,2,,,,,,,,,1,,,73,75
1418720,note_on,320,0,2,,,,,,,,,1,,,74,0
1418880,note_on,0,0,4,,,,,,,,,3,,,45,0
1418880,note_on,0,0,4,,,,,,,,,3,,,45,62
1418880,note_on,0,0,4,,,,,,,,,3,,,52,62
1418880,note_on,480,0,4,,,,,,,,,3,,,52,0
1419039,note_on,319,0,3,,,,,,,,,2,,,57,0
1419039,note_on,0,0,3,,,,,,,,,2,,,56,62
1419039,note_on,0,0,2,,,,,,,,,1,,,72,75
1419039,note_on,319,0,1,,,,,,,,,0,,,85,0
1419039,note_on,0,0,1,,,,,,,,,0,,,84,75
1419039,note_on,319,0,2,,,,,,,,,1,,,73,0
1419360,note_on,321,0,2,,,,,,,,,1,,,72,0
1419360,note_on,0,0,2,,,,,,,,,1,,,73,62
1419360,note_on,321,0,3,,,,,,,,,2,,,56,0
1419360,note_on,0,0,1,,,,,,,,,0,,,85,62
1419360,note_on,0,0,3,,,,,,,,,2,,,57,49
1419360,note_on,321,0,1,,,,,,,,,0,,,84,0
1419680,note_on,0,0,2,,,,,,,,,1,,,74,62
1419680,note_on,0,0,3,,,,,,,,,2,,,59,49
1419680,note_on,0,0,1,,,,,,,,,0,,,86,62
1419680,note_on,320,0,1,,,,,,,,,0,,,85,0
1419680,note_on,320,0,3,,,,,,,,,2,,,57,0
1419680,note_on,320,0,2,,,,,,,,,1,,,73,0
1419840,note_on,960,0,4,,,,,,,,,3,,,52,0
1419840,note_on,0,0,4,,,,,,,,,3,,,45,0
1419840,note_on,0,0,4,,,,,,,,,3,,,45,62
1419840,note_on,0,0,4,,,,,,,,,3,,,52,62
1419999,note_on,319,0,1,,,,,,,,,0,,,86,0
1419999,note_on,0,0,2,,,,,,,,,1,,,75,62
1419999,control_change,0,0,2,,,,,,,,,1,64,0,,
1419999,note_on,319,0,2,,,,,,,,,1,,,74,0
1419999,note_on,0,0,1,,,,,,,,,0,,,87,62
1419999,control_change,0,0,1,,,,,,,,,0,64,0,,
1419999,note_on,0,0,3,,,,,,,,,2,,,60,49
1419999,note_on,319,0,3,,,,,,,,,2,,,59,0
1419999,control_change,0,0,3,,,,,,,,,2,64,0,,
1420320,note_on,480,0,4,,,,,,,,,3,,,52,0
1420320,note_on,0,0,2,,,,,,,,,1,,,76,62
1420320,note_on,321,0,2,,,,,,,,,1,,,75,0
1420320,note_on,0,0,4,,,,,,,,,3,,,45,0
1420320,note_on,321,0,3,,,,,,,,,2,,,60,0
1420320,note_on,0,0,4,,,,,,,,,3,,,45,62
1420320,note_on,0,0,1,,,,,,,,,0,,,88,62
1420320,note_on,321,0,1,,,,,,,,,0,,,87,0
1420320,note_on,0,0,3,,,,,,,,,2,,,61,49
1420351,note_on,31,0,3,,,,,,,,,2,,,61,0
1420640,note_on,0,0,3,,,,,,,,,2,,,52,49
1420640,control_change,289,0,3,,,,,,,,,2,64,127,,
1420640,note_on,320,0,2,,,,,,,,,1,,,76,0
1420640,note_on,0,0,2,,,,,,,,,1,,,85,62
1420640,note_on,320,0,1,,,,,,,,,0,,,88,0
1420640,note_on,0,0,1,,,,,,,,,0,,,97,62
1420800,note_on,0,0,4,,,,,,,,,3,,,45,62
1420800,note_on,480,0,4,,,,,,,,,3,,,45,0
1420959,note_on,0,0,1,,,,,,,,,0,,,97,62
1420959,note_on,319,0,1,,,,,,,,,0,,,97,0
1420959,note_on,0,0,2,,,,,,,,,1,,,85,62
1420959,note_on,319,0,2,,,,,,,,,1,,,85,0
1420959,note_on,0,0,3,,,,,,,,,2,,,61,49
1420959,note_on,319,0,3,,,,,,,,,2,,,52,0
1420991,note_on,32,0,1,,,,,,,,,0,,,97,0
1420991,note_on,32,0,2,,,,,,,,,1,,,85,0
1421280,note_on,289,0,1,,,,,,,,,0,,,97,62
1421280,note_on,0,0,3,,,,,,,,,2,,,64,49
1421280,note_on,321,0,3,,,,,,,,,2,,,61,0
1421280,note_on,289,0,2,,,,,,,,,1,,,85,62
1421600,note_on,0,0,3,,,,,,,,,2,,,61,49
1421600,note_on,320,0,3,,,,,,,,,2,,,64,0
1421600,note_on,320,0,1,,,,,,,,,0,,,97,0
1421600,note_on,0,0,1,,,,,,,,,0,,,93,62
1421600,note_on,0,0,2,,,,,,,,,1,,,81,62
1421600,note_on,320,0,2,,,,,,,,,1,,,85,0
1421760,note_on,960,0,4,,,,,,,,,3,,,45,0
1421760,note_on,0,0,4,,,,,,,,,3,,,45,62
1421919,note_on,319,0,1,,,,,,,,,0,,,93,0
1421919,note_on,0,0,1,,,,,,,,,0,,,88,62
1421919,note_on,0,0,3,,,,,,,,,2,,,52,49
1421919,note_on,0,0,2,,,,,,,,,1,,,76,62
1421919,control_change,0,0,3,,,,,,,,,2,64,0,,
1421919,note_on,319,0,3,,,,,,,,,2,,,61,0
1421919,note_on,319,0,2,,,,,,,,,1,,,81,0
1421951,note_on,32,0,2,,,,,,,,,1,,,76,0
1421951,note_on,32,0,1,,,,,,,,,0,,,88,0
1422240,note_on,289,0,2,,,,,,,,,1,,,73,62
1422240,note_on,289,0,1,,,,,,,,,0,,,85,62
1422240,note_on,321,0,3,,,,,,,,,2,,,52,0
1422240,note_on,480,0,4,,,,,,,,,3,,,45,0
1422240,note_on,0,0,4,,,,,,,,,3,,,49,62
1422560,note_on,320,0,2,,,,,,,,,1,,,73,0
1422560,note_on,320,0,1,,,,,,,,,0,,,85,0
1422560,note_on,0,0,1,,,,,,,,,0,,,93,62
1422560,control_change,320,0,3,,,,,,,,,2,64,127,,
1422560,note_on,0,0,2,,,,,,,,,1,,,81,62
1422560,note_on,0,0,3,,,,,,,,,2,,,57,49
1422720,note_on,0,0,4,,,,,,,,,3,,,49,62
1422720,note_on,480,0,4,,,,,,,,,3,,,49,0
1422879,note_on,319,0,1,,,,,,,,,0,,,93,0
1422879,note_on,319,0,3,,,,,,,,,2,,,57,0
1422879,note_on,319,0,2,,,,,,,,,1,,,81,0
1422879,note_on,0,0,2,,,,,,,,,1,,,81,62
1422879,note_on,0,0,3,,,,,,,,,2,,,61,49
1422879,note_on,0,0,1,,,,,,,,,0,,,93,62
1422911,note_on,32,0,1,,,,,,,,,0,,,93,0
1422911,note_on,32,0,2,,,,,,,,,1,,,81,0
1423200,note_on,0,0,3,,,,,,,,,2,,,64,49
1423200,note_on,289,0,2,,,,,,,,,1,,,81,62
1423200,note_on,289,0,1,,,,,,,,,0,,,93,62
1423200,note_on,321,0,3,,,,,,,,,2,,,61,0
1423520,note_on,320,0,3,,,,,,,,,2,,,64,0
1423520,note_on,0,0,2,,,,,,,,,1,,,76,62
1423520,note_on,320,0,2,,,,,,,,,1,,,81,0
1423520,note_on,0,0,1,,,,,,,,,0,,,88,62
1423520,note_on,320,0,1,,,,,,,,,0,,,93,0
1423520,note_on,0,0,3,,,,,,,,,2,,,61,49
1423680,note_on,0,0,4,,,,,,,,,3,,,49,62
1423680,note_on,960,0,4,,,,,,,,,3,,,49,0
1423839,note_on,319,0,3,,,,,,,,,2,,,61,0
1423839,control_change,0,0,3,,,,,,,,,2,64,0,,
1423839,note_on,0,0,3,,,,,,,,,2,,,57,49
1423839,note_on,319,0,1,,,,,,,,,0,,,88,0
1423839,note_on,0,0,2,,,,,,,,,1,,,73,62
1423839,note_on,319,0,2,,,,,,,,,1,,,76,0
1423839,note_on,0,0,1,,,,,,,,,0,,,85,62
1423871,note_on,32,0,2,,,,,,,,,1,,,73,0
1423871,note_on,32,0,1,,,,,,,,,0,,,85,0
1424100,note_on,229,0,1,,,,,,,,,0,,,83,62
1424100,note_on,229,0,2,,,,,,,,,1,,,71,62
1424160,note_on,0,0,4,,,,,,,,,3,,,40,62
1424160,note_on,480,0,4,,,,,,,,,3,,,49,0
1424160,note_on,60,0,2,,,,,,,,,1,,,71,0
1424160,control_change,0,0,3,,,,,,,,,2,64,127,,
1424160,note_on,0,0,1,,,,,,,,,0,,,81,62
1424160,control_change,0,0,1,,,,,,,,,0,64,127,,
1424160,note_on,60,0,1,,,,,,,,,0,,,83,0
1424160,note_on,0,0,2,,,,,,,,,1,,,69,62
1424160,control_change,0,0,2,,,,,,,,,1,64,127,,
1424160,note_on,0,0,3,,,,,,,,,2,,,61,49
1424160,note_on,321,0,3,,,,,,,,,2,,,57,0
1424480,note_on,320,0,3,,,,,,,,,2,,,61,0
1424480,note_on,0,0,3,,,,,,,,,2,,,57,49
1424480,note_on,320,0,1,,,,,,,,,0,,,81,0
1424480,note_on,0,0,2,,,,,,,,,1,,,68,62
1424480,note_on,320,0,2,,,,,,,,,1,,,69,0
1424480,note_on,0,0,1,,,,,,,,,0,,,80,62
1424640,note_on,480,0,4,,,,,,,,,3,,,40,0
1424640,note_on,0,0,4,,,,,,,,,3,,,40,62
1424799,note_on,0,0,2,,,,,,,,,1,,,69,62
1424799,note_on,319,0,2,,,,,,,,,1,,,68,0
1424799,note_on,319,0,3,,,,,,,,,2,,,57,0
1424799,note_on,0,0,3,,,,,,,,,2,,,52,49
1424799,note_on,0,0,1,,,,,,,,,0,,,81,62
1424799,note_on,319,0,1,,,,,,,,,0,,,80,0
1425120,note_on,0,0,1,,,,,,,,,0,,,85,62
1425120,note_on,321,0,1,,,,,,,,,0,,,81,0
1425120,note_on,0,0,2,,,,,,,,,1,,,73,62
1425120,note_on,321,0,2,,,,,,,,,1,,,69,0
1425120,note_on,0,0,3,,,,,,,,,2,,,59,49
1425120,note_on,321,0,3,,,,,,,,,2,,,52,0
1425440,note_on,320,0,2,,,,,,,,,1,,,73,0
1425440,note_on,0,0,1,,,,,,,,,0,,,86,62
1425440,note_on,0,0,3,,,,,,,,,2,,,56,49
1425440,note_on,320,0,3,,,,,,,,,2,,,59,0
1425440,note_on,320,0,1,,,,,,,,,0,,,85,0
1425440,note_on,0,0,2,,,,,,,,,1,,,74,62
1425600,note_on,0,0,4,,,,,,,,,3,,,40,62
1425600,note_on,960,0,4,,,,,,,,,3,,,40,0
1425759,control_change,0,0,2,,,,,,,,,1,64,0,,
1425759,note_on,0,0,2,,,,,,,,,1,,,71,62
1425759,note_on,319,0,3,,,,,,,,,2,,,56,0
1425759,note_on,319,0,2,,,,,,,,,1,,,74,0
1425759,note_on,319,0,1,,,,,,,,,0,,,86,0
1425759,note_on,0,0,3,,,,,,,,,2,,,50,49
1425759,control_change,0,0,3,,,,,,,,,2,64,0,,
1425759,control_change,0,0,1,,,,,,,,,0,64,0,,
1425759,note_on,0,0,1,,,,,,,,,0,,,83,62
1426080,note_on,0,0,4,,,,,,,,,3,,,45,62
1426080,note_on,0,0,3,,,,,,,,,2,,,49,62
1426080,note_on,321,0,3,,,,,,,,,2,,,50,0
1426080,note_on,0,0,2,,,,,,,,,1,,,69,62
1426080,note_on,321,0,2,,,,,,,,,1,,,71,0
1426080,note_on,480,0,4,,,,,,,,,3,,,40,0
1426080,note_on,321,0,1,,,,,,,,,0,,,83,0
1426080,note_on,0,0,1,,,,,,,,,0,,,81,62
1426400,control_change,0,0,1,,,,,,,,,0,64,127,,
1426400,note_on,0,0,1,,,,,,,,,0,,,69,62
1426400,note_on,320,0,1,,,,,,,,,0,,,81,0
1426560,note_on,480,0,4,,,,,,,,,3,,,45,0
1426560,note_on,480,0,3,,,,,,,,,2,,,49,0
1426560,note_on,0,0,4,,,,,,,,,3,,,45,62
1426560,note_on,480,0,2,,,,,,,,,1,,,69,0
1426719,note_on,0,0,1,,,,,,,,,0,,,71,62
1426719,note_on,319,0,1,,,,,,,,,0,,,69,0
1427040,note_on,480,0,2,,,,,,,,,1,,,52,75
1427040,note_on,0,0,2,,,,,,,,,1,,,61,75
1427040,note_on,321,0,1,,,,,,,,,0,,,71,0
1427040,note_on,0,0,1,,,,,,,,,0,,,73,62
1427040,note_on,480,0,3,,,,,,,,,2,,,49,88
1427360,note_on,0,0,1,,,,,,,,,0,,,74,62
1427360,note_on,320,0,1,,,,,,,,,0,,,73,0
1427520,note_on,960,0,4,,,,,,,,,3,,,45,0
1427520,note_on,0,0,4,,,,,,,,,3,,,42,62
1427679,note_on,0,0,1,,,,,,,,,0,,,75,62
1427679,control_change,0,0,1,,,,,,,,,0,64,0,,
1427679,note_on,319,0,1,,,,,,,,,0,,,74,0
1427760,note_on,0,0,2,,,,,,,,,1,,,52,0
1427760,note_on,720,0,2,,,,,,,,,1,,,61,0
1427760,note_on,0,0,2,,,,,,,,,1,,,57,75
1428000,note_on,240,0,2,,,,,,,,,1,,,57,0
1428000,note_on,0,0,2,,,,,,,,,1,,,52,101
1428000,note_on,0,0,2,,,,,,,,,1,,,57,101
1428000,control_change,0,0,2,,,,,,,,,1,64,127,,
1428000,note_on,0,0,3,,,,,,,,,2,,,50,88
1428000,note_on,0,0,4,,,,,,,,,3,,,40,62
1428000,note_on,480,0,4,,,,,,,,,3,,,42,0
1428000,note_on,321,0,1,,,,,,,,,0,,,75,0
1428000,control_change,0,0,1,,,,,,,,,0,64,127,,
1428000,note_on,0,0,1,,,,,,,,,0,,,78,62
1428000,note_on,960,0,3,,,,,,,,,2,,,49,0
1428320,note_on,0,0,1,,,,,,,,,0,,,76,62
1428320,note_on,320,0,1,,,,,,,,,0,,,78,0
1428480,note_on,0,0,4,,,,,,,,,3,,,40,62
1428480,note_on,480,0,4,,,,,,,,,3,,,40,0
1428639,note_on,0,0,1,,,,,,,,,0,,,75,62
1428639,note_on,319,0,1,,,,,,,,,0,,,76,0
1428960,note_on,0,0,2,,,,,,,,,1,,,56,75
1428960,note_on,0,0,2,,,,,,,,,1,,,52,0
1428960,note_on,960,0,2,,,,,,,,,1,,,57,0
1428960,note_on,321,0,1,,,,,,,,,0,,,75,0
1428960,note_on,0,0,1,,,,,,,,,0,,,76,62
1429280,note_on,0,0,1,,,,,,,,,0,,,88,62
1429280,note_on,320,0,1,,,,,,,,,0,,,76,0
1429440,note_on,0,0,2,,,,,,,,,1,,,54,75
1429440,control_change,0,0,2,,,,,,,,,1,64,0,,
1429440,note_on,480,0,2,,,,,,,,,1,,,56,0
1429440,note_on,960,0,4,,,,,,,,,3,,,40,0
1429440,note_on,0,0,4,,,,,,,,,3,,,40,62
1429440,note_on,0,0,2,,,,,,,,,1,,,57,75
1429599,note_on,319,0,1,,,,,,,,,0,,,88,0
1429599,control_change,0,0,1,,,,,,,,,0,64,0,,
1429599,note_on,0,0,1,,,,,,,,,0,,,76,62
1429920,note_on,321,0,1,,,,,,,,,0,,,76,0
1429920,control_change,0,0,1,,,,,,,,,0,64,127,,
1429920,note_on,0,0,1,,,,,,,,,0,,,88,62
1429920,note_on,480,0,4,,,,,,,,,3,,,40,0
1429920,note_on,0,0,2,,,,,,,,,1,,,54,0
1429920,note_on,480,0,2,,,,,,,,,1,,,57,0
1429920,note_on,0,0,2,,,,,,,,,1,,,56,75
1429920,note_on,0,0,2,,,,,,,,,1,,,59,75
1429920,control_change,0,0,2,,,,,,,,,1,64,127,,
1429920,note_on,0,0,4,,,,,,,,,3,,,40,62
1430240,note_on,320,0,1,,,,,,,,,0,,,88,0
1430240,note_on,0,0,1,,,,,,,,,0,,,76,75
1430400,note_on,0,0,4,,,,,,,,,3,,,40,62
1430400,note_on,0,0,2,,,,,,,,,1,,,56,0
1430400,note_on,0,0,2,,,,,,,,,1,,,52,101
1430400,note_on,480,0,4,,,,,,,,,3,,,40,0
1430400,note_on,480,0,2,,,,,,,,,1,,,59,0
1430400,note_on,2400,0,3,,,,,,,,,2,,,50,0
1430400,note_on,0,0,3,,,,,,,,,2,,,49,62
1430400,note_on,0,0,2,,,,,,,,,1,,,61,101
1430559,note_on,319,0,1,,,,,,,,,0,,,76,0
1430559,note_on,0,0,1,,,,,,,,,0,,,88,75
1430880,note_on,480,0,3,,,,,,,,,2,,,49,0
1430880,note_on,0,0,3,,,,,,,,,2,,,47,88
1430880,note_on,321,0,1,,,,,,,,,0,,,88,0
1430880,note_on,0,0,1,,,,,,,,,0,,,76,75
1430880,note_on,0,0,2,,,,,,,,,1,,,62,101
1430880,note_on,0,0,2,,,,,,,,,1,,,54,101
1430880,note_on,0,0,2,,,,,,,,,1,,,52,0
1430880,note_on,480,0,2,,,,,,,,,1,,,61,0
1431200,note_on,320,0,1,,,,,,,,,0,,,76,0
1431200,note_on,0,0,1,,,,,,,,,0,,,88,62
1431360,note_on,0,0,2,,,,,,,,,1,,,54,0
1431360,note_on,0,0,3,,,,,,,,,2,,,52,62
1431360,note_on,480,0,3,,,,,,,,,2,,,47,0
1431360,note_on,960,0,4,,,,,,,,,3,,,40,0
1431360,note_on,480,0,2,,,,,,,,,1,,,62,0
1431360,note_on,0,0,4,,,,,,,,,3,,,40,62
1431360,control_change,0,0,2,,,,,,,,,1,64,0,,
1431360,note_on,0,0,2,,,,,,,,,1,,,56,75
1431360,note_on,0,0,2,,,,,,,,,1,,,64,75
1431519,note_on,0,0,1,,,,,,,,,0,,,76,62
1431519,control_change,0,0,1,,,,,,,,,0,64,0,,
1431519,note_on,319,0,1,,,,,,,,,0,,,88,0
1431840,note_on,0,0,2,,,,,,,,,1,,,59,75
1431840,note_on,0,0,3,,,,,,,,,2,,,52,62
1431840,note_on,480,0,3,,,,,,,,,2,,,52,0
1431840,note_on,0,0,2,,,,,,,,,1,,,56,0
1431840,note_on,0,0,2,,,,,,,,,1,,,62,75
1431840,note_on,480,0,2,,,,,,,,,1,,,64,0
1431840,note_on,0,0,4,,,,,,,,,3,,,45,62
1431840,note_on,0,0,1,,,,,,,,,0,,,78,62
1431840,control_change,0,0,1,,,,,,,,,0,64,127,,
1431840,note_on,321,0,1,,,,,,,,,0,,,76,0
1431840,note_on,480,0,4,,,,,,,,,3,,,40,0
1432160,note_on,320,0,1,,,,,,,,,0,,,78,0
1432160,note_on,0,0,1,,,,,,,,,0,,,76,62
1432320,note_on,480,0,4,,,,,,,,,3,,,45,0
1432320,note_on,0,0,4,,,,,,,,,3,,,45,62
1432479,note_on,0,0,1,,,,,,,,,0,,,75,62
1432479,note_on,319,0,1,,,,,,,,,0,,,76,0
1432800,note_on,0,0,2,,,,,,,,,1,,,61,75
1432800,note_on,321,0,1,,,,,,,,,0,,,75,0
1432800,note_on,0,0,1,,,,,,,,,0,,,76,62
1432800,note_on,0,0,2,,,,,,,,,1,,,57,75
1432800,note_on,0,0,2,,,,,,,,,1,,,59,0
1432800,note_on,960,0,2,,,,,,,,,1,,,62,0
1433120,note_on,320,0,1,,,,,,,,,0,,,76,0
1433120,note_on,0,0,1,,,,,,,,,0,,,78,62
1433280,note_on,0,0,4,,,,,,,,,3,,,45,62
1433280,note_on,960,0,4,,,,,,,,,3,,,45,0
1433439,control_change,0,0,1,,,,,,,,,0,64,0,,
1433439,note_on,319,0,1,,,,,,,,,0,,,78,0
1433439,note_on,0,0,1,,,,,,,,,0,,,80,62
1433760,note_on,480,0,4,,,,,,,,,3,,,45,0
1433760,note_on,0,0,4,,,,,,,,,3,,,45,62
1433760,note_on,321,0,1,,,,,,,,,0,,,80,0
1433760,control_change,0,0,1,,,,,,,,,0,64,127,,
1433760,note_on,0,0,1,,,,,,,,,0,,,83,62
1434080,note_on,320,0,1,,,,,,,,,0,,,83,0
1434080,note_on,0,0,1,,,,,,,,,0,,,81,62
1434240,note_on,480,0,4,,,,,,,,,3,,,45,0
1434240,note_on,0,0,4,,,,,,,,,3,,,45,62
1434399,note_on,319,0,1,,,,,,,,,0,,,81,0
1434399,note_on,0,0,1,,,,,,,,,0,,,80,62
1434720,note_on,321,0,1,,,,,,,,,0,,,80,0
1434720,note_on,0,0,1,,,,,,,,,0,,,81,75
1434720,note_on,0,0,2,,,,,,,,,1,,,57,0
1434720,note_on,1920,0,2,,,,,,,,,1,,,61,0
1434720,note_on,0,0,2,,,,,,,,,1,,,64,101
1434720,note_on,0,0,2,,,,,,,,,1,,,73,101
1434720,note_on,2880,0,3,,,,,,,,,2,,,52,0
1434720,note_on,0,0,3,,,,,,,,,2,,,61,88
1435040,note_on,320,0,1,,,,,,,,,0,,,81,0
1435040,note_on,0,0,1,,,,,,,,,0,,,85,75
1435200,note_on,960,0,4,,,,,,,,,3,,,45,0
1435200,note_on,0,0,4,,,,,,,,,3,,,42,62
1435359,note_on,319,0,1,,,,,,,,,0,,,85,0
1435359,control_change,0,0,1,,,,,,,,,0,64,0,,
1435359,note_on,0,0,1,,,,,,,,,0,,,86,75
1435440,note_on,720,0,2,,,,,,,,,1,,,73,0
1435440,note_on,0,0,2,,,,,,,,,1,,,64,0
1435440,note_on,0,0,2,,,,,,,,,1,,,69,101
1435680,note_on,321,0,1,,,,,,,,,0,,,86,0
1435680,control_change,0,0,2,,,,,,,,,1,64,127,,
1435680,note_on,240,0,2,,,,,,,,,1,,,69,0
1435680,note_on,0,0,3,,,,,,,,,2,,,62,88
1435680,note_on,0,0,4,,,,,,,,,3,,,40,62
1435680,note_on,0,0,2,,,,,,,,,1,,,69,101
1435680,control_change,0,0,1,,,,,,,,,0,64,127,,
1435680,note_on,0,0,1,,,,,,,,,0,,,90,75
1435680,note_on,0,0,2,,,,,,,,,1,,,64,101
1435680,note_on,960,0,3,,,,,,,,,2,,,61,0
1435680,note_on,480,0,4,,,,,,,,,3,,,42,0
1436000,note_on,0,0,1,,,,,,,,,0,,,88,75
1436000,note_on,320,0,1,,,,,,,,,0,,,90,0
1436160,note_on,0,0,4,,,,,,,,,3,,,40,62
1436160,note_on,480,0,4,,,,,,,,,3,,,40,0
1436319,note_on,0,0,1,,,,,,,,,0,,,87,62
1436319,note_on,319,0,1,,,,,,,,,0,,,88,0
1436640,note_on,960,0,2,,,,,,,,,1,,,69,0
1436640,note_on,0,0,2,,,,,,,,,1,,,64,0
1436640,note_on,0,0,2,,,,,,,,,1,,,68,75
1436640,note_on,0,0,1,,,,,,,,,0,,,88,62
1436640,note_on,321,0,1,,,,,,,,,0,,,87,0
1436960,note_on,320,0,1,,,,,,,,,0,,,88,0
1436960,note_on,0,0,1,,,,,,,,,0,,,100,62
1437120,note_on,0,0,4,,,,,,,,,3,,,40,62
1437120,note_on,0,0,2,,,,,,,,,1,,,69,75
1437120,note_on,0,0,2,,,,,,,,,1,,,66,75
1437120,control_change,0,0,2,,,,,,,,,1,64,0,,
1437120,note_on,480,0,2,,,,,,,,,1,,,68,0
1437120,note_on,960,0,4,,,,,,,,,3,,,40,0
1437279,control_change,0,0,1,,,,,,,,,0,64,0,,
1437279,note_on,319,0,1,,,,,,,,,0,,,100,0
1437279,note_on,0,0,1,,,,,,,,,0,,,88,62
1437600,control_change,0,0,1,,,,,,,,,0,64,127,,
1437600,note_on,480,0,4,,,,,,,,,3,,,40,0
1437600,note_on,0,0,1,,,,,,,,,0,,,100,62
1437600,note_on,0,0,4,,,,,,,,,3,,,40,62
1437600,note_on,321,0,1,,,,,,,,,0,,,88,0
1437600,note_on,0,0,2,,,,,,,,,1,,,66,0
1437600,control_change,0,0,2,,,,,,,,,1,64,127,,
1437600,note_on,0,0,2,,,,,,,,,1,,,71,75
1437600,note_on,0,0,2,,,,,,,,,1,,,68,75
1437600,note_on,480,0,2,,,,,,,,,1,,,69,0
1437920,note_on,320,0,1,,,,,,,,,0,,,100,0
1437920,note_on,0,0,1,,,,,,,,,0,,,88,75
1438080,note_on,0,0,4,,,,,,,,,3,,,40,62
1438080,note_on,480,0,4,,,,,,,,,3,,,40,0
1438080,note_on,480,0,2,,,,,,,,,1,,,71,0
1438080,note_on,0,0,2,,,,,,,,,1,,,68,0
1438080,note_on,0,0,2,,,,,,,,,1,,,64,101
1438080,note_on,0,0,2,,,,,,,,,1,,,73,101
1438080,note_on,0,0,3,,,,,,,,,2,,,61,88
1438080,note_on,2400,0,3,,,,,,,,,2,,,62,0
1438239,note_on,319,0,1,,,,,,,,,0,,,88,0
1438239,note_on,0,0,1,,,,,,,,,0,,,100,75
1438560,note_on,0,0,2,,,,,,,,,1,,,66,101
1438560,note_on,0,0,2,,,,,,,,,1,,,74,101
1438560,note_on,321,0,1,,,,,,,,,0,,,100,0
1438560,note_on,0,0,1,,,,,,,,,0,,,88,75
1438560,note_on,0,0,2,,,,,,,,,1,,,64,0
1438560,note_on,0,0,3,,,,,,,,,2,,,59,88
1438560,note_on,480,0,3,,,,,,,,,2,,,61,0
1438560,note_on,480,0,2,,,,,,,,,1,,,73,0
1438880,note_on,320,0,1,,,,,,,,,0,,,88,0
1438880,note_on,0,0,1,,,,,,,,,0,,,100,62
1439040,note_on,0,0,2,,,,,,,,,1,,,76,75
1439040,note_on,0,0,2,,,,,,,,,1,,,68,75
1439040,control_change,0,0,2,,,,,,,,,1,64,0,,
1439040,note_on,0,0,2,,,,,,,,,1,,,66,0
1439040,note_on,480,0,2,,,,,,,,,1,,,74,0
1439040,note_on,480,0,3,,,,,,,,,2,,,59,0
1439040,note_on,0,0,3,,,,,,,,,2,,,64,62
1439040,note_on,960,0,4,,,,,,,,,3,,,40,0
1439040,note_on,0,0,4,,,,,,,,,3,,,40,62
1439199,note_on,0,0,1,,,,,,,,,0,,,88,62
1439199,control_change,0,0,1,,,,,,,,,0,64,0,,
1439199,note_on,319,0,1,,,,,,,,,0,,,100,0
1439520,control_change,0,0,1,,,,,,,,,0,64,127,,
1439520,note_on,0,0,1,,,,,,,,,0,,,90,62
1439520,note_on,0,0,4,,,,,,,,,3,,,33,62
1439520,note_on,480,0,4,,,,,,,,,3,,,40,0
1439520,note_on,321,0,1,,,,,,,,,0,,,88,0
1439520,note_on,0,0,2,,,,,,,,,1,,,74,75
1439520,note_on,0,0,4,,,,,,,,,3,,,45,62
1439520,note_on,0,0,2,,,,,,,,,1,,,68,0
1439520,note_on,480,0,2,,,,,,,,,1,,,76,0
1439520,note_on,480,0,3,,,,,,,,,2,,,64,0
1439520,note_on,0,0,3,,,,,,,,,2,,,64,62
1439520,note_on,0,0,2,,,,,,,,,1,,,71,75
1439840,note_on,320,0,1,,,,,,,,,0,,,90,0
1439840,note_on,0,0,1,,,,,,,,,0,,,88,62
1440000,note_on,480,0,4,,,,,,,,,3,,,45,0
1440000,note_on,0,0,4,,,,,,,,,3,,,33,0
1440000,note_on,0,0,4,,,,,,,,,3,,,33,62
1440000,note_on,0,0,4,,,,,,,,,3,,,45,62
1440159,note_on,0,0,1,,,,,,,,,0,,,87,62
1440159,note_on,319,0,1,,,,,,,,,0,,,88,0
1440480,note_on,0,0,2,,,,,,,,,1,,,73,75
1440480,note_on,0,0,1,,,,,,,,,0,,,88,62
1440480,note_on,0,0,2,,,,,,,,,1,,,69,75
1440480,note_on,960,0,2,,,,,,,,,1,,,74,0
1440480,note_on,321,0,1,,,,,,,,,0,,,87,0
1440480,note_on,0,0,2,,,,,,,,,1,,,71,0
1440800,note_on,320,0,1,,,,,,,,,0,,,88,0
1440800,note_on,0,0,1,,,,,,,,,0,,,90,62
1440960,note_on,960,0,4,,,,,,,,,3,,,45,0
1440960,note_on,0,0,4,,,,,,,,,3,,,33,0
1440960,note_on,0,0,4,,,,,,,,,3,,,33,62
1440960,note_on,0,0,4,,,,,,,,,3,,,45,62
1441119,note_on,319,0,1,,,,,,,,,0,,,90,0
1441119,control_change,0,0,1,,,,,,,,,0,64,0,,
1441119,note_on,0,0,1,,,,,,,,,0,,,92,62
1441440,note_on,480,0,4,,,,,,,,,3,,,45,0
1441440,note_on,0,0,4,,,,,,,,,3,,,45,62
1441440,note_on,0,0,4,,,,,,,,,3,,,33,0
1441440,note_on,0,0,4,,,,,,,,,3,,,33,62
1441440,note_on,321,0,1,,,,,,,,,0,,,92,0
1441440,note_on,0,0,1,,,,,,,,,0,,,95,62
1441440,control_change,0,0,1,,,,,,,,,0,64,127,,
1441760,note_on,320,0,1,,,,,,,,,0,,,95,0
1441760,note_on,0,0,1,,,,,,,,,0,,,93,62
1441920,note_on,0,0,4,,,,,,,,,3,,,45,62
1441920,note_on,0,0,4,,,,,,,,,3,,,33,62
1441920,note_on,0,0,4,,,,,,,,,3,,,33,0
1441920,note_on,480,0,4,,,,,,,,,3,,,45,0
1442079,note_on,319,0,1,,,,,,,,,0,,,93,0
1442079,note_on,0,0,1,,,,,,,,,0,,,92,62
1442400,note_on,321,0,1,,,,,,,,,0,,,92,0
1442400,note_on,0,0,1,,,,,,,,,0,,,93,62
1442720,note_on,0,0,1,,,,,,,,,0,,,92,62
1442720,note_on,320,0,1,,,,,,,,,0,,,93,0
1442880,note_on,0,0,4,,,,,,,,,3,,,45,62
1442880,note_on,0,0,4,,,,,,,,,3,,,33,62
1442880,note_on,0,0,4,,,,,,,,,3,,,33,0
1442880,note_on,960,0,4,,,,,,,,,3,,,45,0
1443039,note_on,319,0,1,,,,,,,,,0,,,92,0
1443039,note_on,0,0,1,,,,,,,,,0,,,90,62
1443039,control_change,0,0,1,,,,,,,,,0,64,0,,
1443360,note_on,0,0,4,,,,,,,,,3,,,33,62
1443360,note_on,0,0,4,,,,,,,,,3,,,33,0
1443360,note_on,480,0,4,,,,,,,,,3,,,45,0
1443360,control_change,0,0,1,,,,,,,,,0,64,127,,
1443360,note_on,321,0,1,,,,,,,,,0,,,90,0
1443360,note_on,0,0,3,,,,,,,,,2,,,45,62
1443360,note_on,0,0,1,,,,,,,,,0,,,90,62
1443360,note_on,3840,0,3,,,,,,,,,2,,,64,0
1443680,note_on,0,0,1,,,,,,,,,0,,,88,62
1443680,note_on,320,0,1,,,,,,,,,0,,,90,0
1443840,note_on,480,0,3,,,,,,,,,2,,,45,0
1443840,note_on,0,0,3,,,,,,,,,2,,,45,62
1443840,note_on,480,0,4,,,,,,,,,3,,,33,0
1443840,note_on,0,0,4,,,,,,,,,3,,,33,62
1443999,note_on,319,0,1,,,,,,,,,0,,,88,0
1443999,note_on,0,0,1,,,,,,,,,0,,,87,62
1444320,note_on,0,0,2,,,,,,,,,1,,,69,0
1444320,note_on,0,0,2,,,,,,,,,1,,,57,75
1444320,note_on,0,0,1,,,,,,,,,0,,,88,62
1444320,note_on,3840,0,2,,,,,,,,,1,,,73,0
1444320,note_on,0,0,2,,,,,,,,,1,,,61,75
1444320,note_on,321,0,1,,,,,,,,,0,,,87,0
1444416,note_on,96,0,2,,,,,,,,,1,,,61,0
1444416,note_on,0,0,2,,,,,,,,,1,,,57,0
1444640,note_on,320,0,1,,,,,,,,,0,,,88,0
1444640,note_on,0,0,1,,,,,,,,,0,,,90,62
1444800,note_on,0,0,4,,,,,,,,,3,,,33,62
1444800,note_on,960,0,3,,,,,,,,,2,,,45,0
1444800,note_on,0,0,3,,,,,,,,,2,,,45,62
1444800,note_on,960,0,4,,,,,,,,,3,,,33,0
1444959,note_on,0,0,1,,,,,,,,,0,,,88,62
1444959,control_change,0,0,1,,,,,,,,,0,64,0,,
1444959,note_on,319,0,1,,,,,,,,,0,,,90,0
1445280,note_on,480,0,4,,,,,,,,,3,,,33,0
1445280,note_on,0,0,4,,,,,,,,,3,,,33,62
1445280,note_on,0,0,2,,,,,,,,,1,,,61,75
1445280,note_on,864,0,2,,,,,,,,,1,,,56,75
1445280,set_tempo,40320,1,0,,,,,,312500,,,,,,,
1445280,note_on,480,0,3,,,,,,,,,2,,,45,0
1445280,note_on,321,0,1,,,,,,,,,0,,,88,0
1445280,note_on,0,0,3,,,,,,,,,2,,,45,62
1445280,control_change,0,0,1,,,,,,,,,0,64,127,,
1445280,note_on,0,0,1,,,,,,,,,0,,,90,62
1445376,note_on,96,0,2,,,,,,,,,1,,,61,0
1445376,note_on,0,0,2,,,,,,,,,1,,,56,0
1445600,note_on,320,0,1,,,,,,,,,0,,,90,0
1445600,note_on,0,0,1,,,,,,,,,0,,,88,62
1445760,note_on,480,0,3,,,,,,,,,2,,,45,0
1445760,note_on,0,0,4,,,,,,,,,3,,,33,62
1445760,note_on,480,0,4,,,,,,,,,3,,,33,0
1445760,note_on,0,0,3,,,,,,,,,2,,,45,62
1445919,note_on,319,0,1,,,,,,,,,0,,,88,0
1445919,note_on,0,0,1,,,,,,,,,0,,,87,62
1446240,note_on,0,0,2,,,,,,,,,1,,,61,75
1446240,note_on,864,0,2,,,,,,,,,1,,,55,75
1446240,note_on,321,0,1,,,,,,,,,0,,,87,0
1446240,note_on,0,0,1,,,,,,,,,0,,,88,62
1446336,note_on,0,0,2,,,,,,,,,1,,,55,0
1446336,note_on,96,0,2,,,,,,,,,1,,,61,0
1446560,note_on,320,0,1,,,,,,,,,0,,,88,0
1446560,note_on,0,0,1,,,,,,,,,0,,,90,62
1446720,note_on,0,0,4,,,,,,,,,3,,,33,62
1446720,note_on,960,0,4,,,,,,,,,3,,,33,0
1446720,note_on,960,0,3,,,,,,,,,2,,,45,0
1446720,note_on,0,0,3,,,,,,,,,2,,,45,62
1446879,control_change,0,0,1,,,,,,,,,0,64,0,,
1446879,note_on,319,0,1,,,,,,,,,0,,,90,0
1446879,note_on,0,0,1,,,,,,,,,0,,,89,62
1447200,note_on,480,0,3,,,,,,,,,2,,,45,0
1447200,control_change,0,0,1,,,,,,,,,0,64,127,,
1447200,note_on,480,0,4,,,,,,,,,3,,,33,0
1447200,note_on,0,0,4,,,,,,,,,3,,,34,62
1447200,set_tempo,1920,1,0,,,,,,270270,,,,,,,
1447200,note_on,0,0,1,,,,,,,,,0,,,91,62
1447200,note_on,321,0,1,,,,,,,,,0,,,89,0
1447200,note_on,0,0,2,,,,,,,,,1,,,61,75
1447200,note_on,0,0,3,,,,,,,,,2,,,46,62
1447200,note_on,864,0,2,,,,,,,,,1,,,54,75
1447520,note_on,320,0,1,,,,,,,,,0,,,91,0
1447520,note_on,0,0,1,,,,,,,,,0,,,90,62
1447680,note_on,480,0,3,,,,,,,,,2,,,46,0
1447680,note_on,0,0,3,,,,,,,,,2,,,46,62
1447680,note_on,0,0,4,,,,,,,,,3,,,34,62
1447680,note_on,480,0,4,,,,,,,,,3,,,34,0
1447839,note_on,319,0,1,,,,,,,,,0,,,90,0
1447839,note_on,0,0,1,,,,,,,,,0,,,89,62
1448160,note_on,321,0,1,,,,,,,,,0,,,89,0
1448160,note_on,0,0,1,,,,,,,,,0,,,90,62
1448480,note_on,320,0,1,,,,,,,,,0,,,90,0
1448480,note_on,0,0,1,,,,,,,,,0,,,91,62
1448640,note_on,960,0,4,,,,,,,,,3,,,34,0
1448640,note_on,0,0,4,,,,,,,,,3,,,34,62
1448640,note_on,0,0,3,,,,,,,,,2,,,46,62
1448640,note_on,960,0,3,,,,,,,,,2,,,46,0
1448799,control_change,0,0,1,,,,,,,,,0,64,0,,
1448799,note_on,319,0,1,,,,,,,,,0,,,91,0
1448799,note_on,0,0,1,,,,,,,,,0,,,90,62
1449120,note_on,0,0,2,,,,,,,,,1,,,62,75
1449120,note_on,0,0,2,,,,,,,,,1,,,54,0
1449120,note_on,1920,0,2,,,,,,,,,1,,,61,0
1449120,control_change,0,0,2,,,,,,,,,1,64,127,,
1449120,note_on,0,0,4,,,,,,,,,3,,,35,62
1449120,note_on,480,0,4,,,,,,,,,3,,,34,0
1449120,note_on,321,0,1,,,,,,,,,0,,,90,0
1449120,control_change,0,0,1,,,,,,,,,0,64,127,,
1449120,note_on,0,0,1,,,,,,,,,0,,,90,62
1449120,note_on,480,0,3,,,,,,,,,2,,,46,0
1449120,note_on,0,0,3,,,,,,,,,2,,,47,62
1449120,note_on,0,0,2,,,,,,,,,1,,,54,75
1449440,note_on,320,0,1,,,,,,,,,0,,,90,0
1449440,note_on,0,0,1,,,,,,,,,0,,,93,62
1449600,note_on,480,0,4,,,,,,,,,3,,,35,0
1449600,note_on,480,0,3,,,,,,,,,2,,,47,0
1449600,note_on,0,0,3,,,,,,,,,2,,,47,62
1449600,note_on,0,0,4,,,,,,,,,3,,,35,62
1449759,note_on,0,0,1,,,,,,,,,0,,,92,62
1449759,note_on,319,0,1,,,,,,,,,0,,,93,0
1450080,note_on,321,0,1,,,,,,,,,0,,,92,0
1450080,note_on,0,0,2,,,,,,,,,1,,,56,75
1450080,note_on,0,0,2,,,,,,,,,1,,,54,0
1450080,note_on,960,0,2,,,,,,,,,1,,,62,0
1450080,note_on,0,0,1,,,,,,,,,0,,,95,62
1450400,note_on,320,0,1,,,,,,,,,0,,,95,0
1450400,note_on,0,0,1,,,,,,,,,0,,,93,62
1450560,note_on,0,0,2,,,,,,,,,1,,,57,75
1450560,control_change,0,0,2,,,,,,,,,1,64,0,,
1450560,note_on,960,0,3,,,,,,,,,2,,,47,0
1450560,note_on,0,0,3,,,,,,,,,2,,,47,62
1450560,note_on,480,0,2,,,,,,,,,1,,,56,0
1450560,note_on,960,0,4,,,,,,,,,3,,,35,0
1450560,note_on,0,0,4,,,,,,,,,3,,,35,62
1450719,control_change,0,0,1,,,,,,,,,0,64,0,,
1450719,note_on,0,0,1,,,,,,,,,0,,,90,62
1450719,note_on,319,0,1,,,,,,,,,0,,,93,0
1451040,note_on,480,0,2,,,,,,,,,1,,,57,0
1451040,note_on,0,0,2,,,,,,,,,1,,,57,75
1451040,note_on,480,0,3,,,,,,,,,2,,,47,0
1451040,note_on,0,0,3,,,,,,,,,2,,,49,62
1451040,note_on,321,0,1,,,,,,,,,0,,,90,0
1451040,note_on,0,0,1,,,,,,,,,0,,,90,62
1451040,control_change,0,0,1,,,,,,,,,0,64,127,,
1451040,note_on,0,0,4,,,,,,,,,3,,,37,62
1451040,note_on,0,0,2,,,,,,,,,1,,,61,75
1451040,note_on,480,0,4,,,,,,,,,3,,,35,0
1451360,note_on,320,0,1,,,,,,,,,0,,,90,0
1451360,note_on,0,0,1,,,,,,,,,0,,,88,62
1451520,note_on,480,0,4,,,,,,,,,3,,,37,0
1451520,note_on,0,0,4,,,,,,,,,3,,,37,62
1451520,note_on,0,0,3,,,,,,,,,2,,,49,62
1451520,note_on,480,0,3,,,,,,,,,2,,,49,0
1451679,note_on,0,0,1,,,,,,,,,0,,,87,62
1451679,note_on,319,0,1,,,,,,,,,0,,,88,0
1452000,note_on,480,0,3,,,,,,,,,2,,,49,0
1452000,note_on,0,0,4,,,,,,,,,3,,,38,62
1452000,note_on,0,0,1,,,,,,,,,0,,,90,62
1452000,note_on,480,0,4,,,,,,,,,3,,,37,0
1452000,note_on,0,0,3,,,,,,,,,2,,,50,62
1452000,note_on,321,0,1,,,,,,,,,0,,,87,0
1452320,note_on,320,0,1,,,,,,,,,0,,,90,0
1452320,note_on,0,0,1,,,,,,,,,0,,,88,62
1452320,control_change,0,0,1,,,,,,,,,0,64,0,,
1452480,note_on,0,0,4,,,,,,,,,3,,,40,62
1452480,note_on,480,0,4,,,,,,,,,3,,,38,0
1452480,note_on,480,0,3,,,,,,,,,2,,,50,0
1452480,note_on,0,0,3,,,,,,,,,2,,,52,62
1452639,note_on,0,0,1,,,,,,,,,0,,,85,62
1452639,note_on,319,0,1,,,,,,,,,0,,,88,0
1452671,note_on,32,0,1,,,,,,,,,0,,,85,0
1452960,note_on,289,0,1,,,,,,,,,0,,,83,62
1452960,note_on,480,0,4,,,,,,,,,3,,,40,0
1452960,note_on,0,0,2,,,,,,,,,1,,,57,0
1452960,note_on,0,0,2,,,,,,,,,1,,,57,75
1452960,note_on,0,0,3,,,,,,,,,2,,,52,62
1452960,note_on,480,0,3,,,,,,,,,2,,,52,0
1452960,note_on,0,0,4,,,,,,,,,3,,,40,62
1452960,note_on,1920,0,2,,,,,,,,,1,,,61,0
1452960,note_on,0,0,2,,,,,,,,,1,,,59,75
1452991,note_on,31,0,1,,,,,,,,,0,,,83,0
1453280,note_on,289,0,1,,,,,,,,,0,,,81,62
1453312,note_on,32,0,1,,,,,,,,,0,,,81,0
1453440,note_on,0,0,3,,,,,,,,,2,,,52,62
1453440,note_on,480,0,3,,,,,,,,,2,,,52,0
1453440,note_on,0,0,4,,,,,,,,,3,,,40,62
1453440,note_on,480,0,4,,,,,,,,,3,,,40,0
1453599,note_on,287,0,1,,,,,,,,,0,,,80,62
1453631,note_on,32,0,1,,,,,,,,,0,,,80,0
1453920,note_on,289,0,1,,,,,,,,,0,,,78,62
1453920,note_on,0,0,2,,,,,,,,,1,,,56,75
1453920,note_on,0,0,2,,,,,,,,,1,,,57,0
1453920,note_on,960,0,2,,,,,,,,,1,,,59,0
1453951,note_on,31,0,1,,,,,,,,,0,,,78,0
1454240,note_on,289,0,1,,,,,,,,,0,,,76,62
1454272,note_on,32,0,1,,,,,,,,,0,,,76,0
1454400,note_on,0,0,3,,,,,,,,,2,,,52,62
1454400,note_on,960,0,3,,,,,,,,,2,,,52,0
1454400,note_on,960,0,4,,,,,,,,,3,,,40,0
1454400,note_on,0,0,4,,,,,,,,,3,,,40,62
1454559,note_on,287,0,1,,,,,,,,,0,,,74,62
1454591,note_on,32,0,1,,,,,,,,,0,,,74,0
1454880,note_on,480,0,3,,,,,,,,,2,,,52,0
1454880,note_on,0,0,3,,,,,,,,,2,,,45,62
1454880,note_on,0,0,2,,,,,,,,,1,,,57,75
1454880,note_on,960,0,2,,,,,,,,,1,,,56,0
1454880,note_on,0,0,4,,,,,,,,,3,,,33,62
1454880,note_on,289,0,1,,,,,,,,,0,,,73,62
1454880,note_on,480,0,4,,,,,,,,,3,,,40,0
1454911,note_on,31,0,1,,,,,,,,,0,,,73,0
1455200,note_on,289,0,1,,,,,,,,,0,,,71,62
1455232,note_on,32,0,1,,,,,,,,,0,,,71,0
1455519,note_on,287,0,1,,,,,,,,,0,,,69,62
1455551,note_on,32,0,1,,,,,,,,,0,,,69,0
1455840,note_on,289,0,1,,,,,,,,,0,,,68,62
1455871,note_on,31,0,1,,,,,,,,,0,,,68,0
1456160,note_on,289,0,1,,,,,,,,,0,,,66,62
1456192,note_on,32,0,1,,,,,,,,,0,,,66,0
1456479,note_on,287,0,1,,,,,,,,,0,,,64,62
1456511,note_on,32,0,1,,,,,,,,,0,,,64,0
1456800,note_on,289,0,1,,,,,,,,,0,,,62,75
1456831,note_on,31,0,1,,,,,,,,,0,,,62,0
1457120,note_on,289,0,1,,,,,,,,,0,,,61,75
1457152,note_on,32,0,1,,,,,,,,,0,,,61,0
1457280,note_on,2400,0,2,,,,,,,,,1,,,57,0
1457280,note_on,2400,0,3,,,,,,,,,2,,,45,0
1457280,note_on,2400,0,4,,,,,,,,,3,,,33,0
1457439,note_on,287,0,1,,,,,,,,,0,,,59,75
1457471,note_on,32,0,1,,,,,,,,,0,,,59,0
1457760,note_on,480,0,3,,,,,,,,,2,,,57,75
1457760,note_on,289,0,1,,,,,,,,,0,,,69,75
1457791,note_on,31,0,1,,,,,,,,,0,,,69,0
1457791,note_on,31,0,3,,,,,,,,,2,,,57,0
1458080,note_on,289,0,1,,,,,,,,,0,,,68,75
1458080,note_on,289,0,3,,,,,,,,,2,,,56,75
1458112,note_on,32,0,1,,,,,,,,,0,,,68,0
1458112,note_on,32,0,3,,,,,,,,,2,,,56,0
1458399,note_on,287,0,1,,,,,,,,,0,,,66,75
1458399,note_on,287,0,3,,,,,,,,,2,,,54,75
1458431,note_on,32,0,3,,,,,,,,,2,,,54,0
1458431,note_on,32,0,1,,,,,,,,,0,,,66,0
1458720,note_on,289,0,3,,,,,,,,,2,,,52,75
1458720,note_on,1440,0,2,,,,,,,,,1,,,64,75
1458751,note_on,31,0,3,,,,,,,,,2,,,52,0
1458751,note_on,31,0,2,,,,,,,,,1,,,64,0
1459040,note_on,289,0,2,,,,,,,,,1,,,62,75
1459040,note_on,289,0,3,,,,,,,,,2,,,50,75
1459072,note_on,32,0,3,,,,,,,,,2,,,50,0
1459072,note_on,32,0,2,,,,,,,,,1,,,62,0
1459359,note_on,287,0,3,,,,,,,,,2,,,49,75
1459359,note_on,0,0,1,,,,,,,,,0,,,85,75
1459359,note_on,928,0,1,,,,,,,,,0,,,73,75
1459359,note_on,287,0,2,,,,,,,,,1,,,61,75
1459391,note_on,32,0,2,,,,,,,,,1,,,61,0
1459391,note_on,0,0,1,,,,,,,,,0,,,73,0
1459391,note_on,32,0,3,,,,,,,,,2,,,49,0
1459391,note_on,32,0,1,,,,,,,,,0,,,85,0
1459680,note_on,289,0,1,,,,,,,,,0,,,71,75
1459680,note_on,0,0,1,,,,,,,,,0,,,83,75
1459680,note_on,289,0,2,,,,,,,,,1,,,59,75
1459680,note_on,289,0,3,,,,,,,,,2,,,47,75
1459711,note_on,0,0,1,,,,,,,,,0,,,71,0
1459711,note_on,31,0,2,,,,,,,,,1,,,59,0
1459711,note_on,31,0,3,,,,,,,,,2,,,47,0
1459711,note_on,31,0,1,,,,,,,,,0,,,83,0
1460000,note_on,289,0,2,,,,,,,,,1,,,57,75
1460000,note_on,0,0,1,,,,,,,,,0,,,81,75
1460000,note_on,289,0,1,,,,,,,,,0,,,69,75
1460000,note_on,289,0,3,,,,,,,,,2,,,45,75
1460032,note_on,32,0,1,,,,,,,,,0,,,81,0
1460032,note_on,0,0,1,,,,,,,,,0,,,69,0
1460032,note_on,32,0,3,,,,,,,,,2,,,45,0
1460032,note_on,32,0,2,,,,,,,,,1,,,57,0
1460319,note_on,287,0,2,,,,,,,,,1,,,56,75
1460319,note_on,287,0,3,,,,,,,,,2,,,44,75
1460319,note_on,0,0,1,,,,,,,,,0,,,80,75
1460319,note_on,287,0,1,,,,,,,,,0,,,68,75
1460351,note_on,32,0,3,,,,,,,,,2,,,44,0
1460351,note_on,32,0,2,,,,,,,,,1,,,56,0
1460351,note_on,32,0,1,,,,,,,,,0,,,80,0
1460351,note_on,0,0,1,,,,,,,,,0,,,68,0
1460640,note_on,289,0,3,,,,,,,,,2,,,54,88
1460640,note_on,289,0,2,,,,,,,,,1,,,66,88
1460640,note_on,3360,0,4,,,,,,,,,3,,,42,88
1460640,note_on,289,0,1,,,,,,,,,0,,,78,88
1460671,note_on,31,0,4,,,,,,,,,3,,,42,0
1460671,note_on,31,0,1,,,,,,,,,0,,,78,0
1460671,note_on,31,0,3,,,,,,,,,2,,,54,0
1460671,note_on,31,0,2,,,,,,,,,1,,,66,0
1460960,note_on,289,0,1,,,,,,,,,0,,,76,88
1460960,note_on,289,0,4,,,,,,,,,3,,,40,88
1460960,note_on,289,0,3,,,,,,,,,2,,,52,88
1460960,note_on,289,0,2,,,,,,,,,1,,,64,88
1460992,note_on,32,0,2,,,,,,,,,1,,,64,0
1460992,note_on,32,0,1,,,,,,,,,0,,,76,0
1460992,note_on,32,0,4,,,,,,,,,3,,,40,0
1460992,note_on,32,0,3,,,,,,,,,2,,,52,0
1461279,note_on,287,0,2,,,,,,,,,1,,,62,88
1461279,note_on,287,0,3,,,,,,,,,2,,,50,88
1461279,note_on,287,0,1,,,,,,,,,0,,,74,88
1461279,note_on,287,0,4,,,,,,,,,3,,,38,88
1461311,note_on,32,0,4,,,,,,,,,3,,,38,0
1461311,note_on,32,0,3,,,,,,,,,2,,,50,0
1461311,note_on,32,0,1,,,,,,,,,0,,,74,0
1461311,note_on,32,0,2,,,,,,,,,1,,,62,0
1461600,note_on,289,0,1,,,,,,,,,0,,,73,88
1461600,note_on,289,0,3,,,,,,,,,2,,,49,88
1461600,note_on,289,0,4,,,,,,,,,3,,,37,88
1461600,note_on,289,0,2,,,,,,,,,1,,,61,88
1461631,note_on,31,0,2,,,,,,,,,1,,,61,0
1461631,note_on,31,0,1,,,,,,,,,0,,,73,0
1461631,note_on,31,0,3,,,,,,,,,2,,,49,0
1461631,note_on,31,0,4,,,,,,,,,3,,,37,0
1461920,note_on,289,0,2,,,,,,,,,1,,,59,88
1461920,note_on,289,0,4,,,,,,,,,3,,,35,88
1461920,note_on,289,0,1,,,,,,,,,0,,,71,88
1461920,note_on,289,0,3,,,,,,,,,2,,,47,88
1461952,note_on,32,0,1,,,,,,,,,0,,,71,0
1461952,note_on,32,0,2,,,,,,,,,1,,,59,0
1461952,note_on,32,0,4,,,,,,,,,3,,,35,0
1461952,note_on,32,0,3,,,,,,,,,2,,,47,0
1462239,note_on,287,0,2,,,,,,,,,1,,,57,88
1462239,note_on,287,0,3,,,,,,,,,2,,,45,88
1462239,note_on,287,0,4,,,,,,,,,3,,,33,88
1462239,note_on,287,0,1,,,,,,,,,0,,,69,88
1462271,note_on,32,0,4,,,,,,,,,3,,,33,0
1462271,note_on,32,0,2,,,,,,,,,1,,,57,0
1462271,note_on,32,0,1,,,,,,,,,0,,,69,0
1462271,note_on,32,0,3,,,,,,,,,2,,,45,0
1462560,note_on,289,0,3,,,,,,,,,2,,,44,88
1462560,note_on,0,0,1,,,,,,,,,0,,,75,88
1462560,note_on,289,0,2,,,,,,,,,1,,,68,88
1462560,note_on,289,0,1,,,,,,,,,0,,,72,88
1462560,note_on,289,0,4,,,,,,,,,3,,,32,88
1462591,note_on,31,0,3,,,,,,,,,2,,,44,0
1462591,note_on,31,0,4,,,,,,,,,3,,,32,0
1462880,note_on,289,0,3,,,,,,,,,2,,,63,88
1462880,note_on,289,0,4,,,,,,,,,3,,,51,88
1462912,note_on,32,0,3,,,,,,,,,2,,,63,0
1462912,note_on,32,0,4,,,,,,,,,3,,,51,0
1463199,note_on,287,0,3,,,,,,,,,2,,,61,88
1463199,note_on,287,0,4,,,,,,,,,3,,,49,88
1463231,note_on,32,0,4,,,,,,,,,3,,,49,0
1463231,note_on,32,0,3,,,,,,,,,2,,,61,0
1463520,note_on,289,0,4,,,,,,,,,3,,,48,88
1463520,note_on,289,0,3,,,,,,,,,2,,,60,88
1463551,note_on,31,0,4,,,,,,,,,3,,,48,0
1463551,note_on,31,0,3,,,,,,,,,2,,,60,0
1463840,note_on,289,0,3,,,,,,,,,2,,,58,88
1463840,note_on,289,0,4,,,,,,,,,3,,,46,88
1463872,note_on,32,0,4,,,,,,,,,3,,,46,0
1463872,note_on,32,0,3,,,,,,,,,2,,,58,0
1464000,note_on,0,0,1,,,,,,,,,0,,,72,88
1464000,note_on,0,0,1,,,,,,,,,0,,,72,0
1464000,note_on,0,0,2,,,,,,,,,1,,,68,88
1464000,note_on,1440,0,2,,,,,,,,,1,,,68,0
1464000,note_on,0,0,1,,,,,,,,,0,,,80,88
1464000,note_on,1440,0,1,,,,,,,,,0,,,75,0
1464159,note_on,287,0,3,,,,,,,,,2,,,56,88
1464159,note_on,287,0,4,,,,,,,,,3,,,44,88
1464191,note_on,32,0,4,,,,,,,,,3,,,44,0
1464191,note_on,32,0,3,,,,,,,,,2,,,56,0
1464240,note_on,240,0,1,,,,,,,,,0,,,80,0
1464240,note_on,0,0,2,,,,,,,,,1,,,68,88
1464240,note_on,240,0,2,,,,,,,,,1,,,68,0
1464240,note_on,0,0,1,,,,,,,,,0,,,80,88
1464240,note_on,0,0,1,,,,,,,,,0,,,72,88
1464240,note_on,0,0,1,,,,,,,,,0,,,72,0
1464480,note_on,289,0,4,,,,,,,,,3,,,42,88
1464480,note_on,0,0,1,,,,,,,,,0,,,80,88
1464480,note_on,0,0,2,,,,,,,,,1,,,68,88
1464480,note_on,240,0,2,,,,,,,,,1,,,68,0
1464480,note_on,0,0,1,,,,,,,,,0,,,72,88
1464480,note_on,240,0,1,,,,,,,,,0,,,80,0
1464480,note_on,289,0,3,,,,,,,,,2,,,54,88
1464480,note_on,0,0,1,,,,,,,,,0,,,72,0
1464511,note_on,31,0,3,,,,,,,,,2,,,54,0
1464511,note_on,31,0,4,,,,,,,,,3,,,42,0
1464800,note_on,289,0,3,,,,,,,,,2,,,52,88
1464800,note_on,289,0,4,,,,,,,,,3,,,40,88
1464832,note_on,32,0,3,,,,,,,,,2,,,52,0
1464832,note_on,32,0,4,,,,,,,,,3,,,40,0
1465119,note_on,287,0,3,,,,,,,,,2,,,51,88
1465119,note_on,287,0,4,,,,,,,,,3,,,39,88
1465151,note_on,32,0,3,,,,,,,,,2,,,51,0
1465151,note_on,32,0,4,,,,,,,,,3,,,39,0
1465440,note_on,289,0,3,,,,,,,,,2,,,49,88
1465440,note_on,289,0,4,,,,,,,,,3,,,37,88
1465471,note_on,31,0,4,,,,,,,,,3,,,37,0
1465471,note_on,31,0,3,,,,,,,,,2,,,49,0
1465760,note_on,289,0,3,,,,,,,,,2,,,48,88
1465760,note_on,289,0,4,,,,,,,,,3,,,36,88
1465792,note_on,32,0,3,,,,,,,,,2,,,48,0
1465792,note_on,32,0,4,,,,,,,,,3,,,36,0
1465920,note_on,1440,0,2,,,,,,,,,1,,,68,0
1465920,note_on,0,0,2,,,,,,,,,1,,,63,88
1465920,note_on,0,0,2,,,,,,,,,1,,,68,88
1465920,note_on,1440,0,1,,,,,,,,,0,,,80,0
1465920,note_on,0,0,1,,,,,,,,,0,,,72,0
1465920,note_on,0,0,1,,,,,,,,,0,,,72,88
1465920,note_on,0,0,1,,,,,,,,,0,,,75,88
1465967,note_on,47,0,2,,,,,,,,,1,,,68,0
1465967,note_on,0,0,2,,,,,,,,,1,,,63,0
1465967,note_on,0,0,1,,,,,,,,,0,,,72,0
1465967,note_on,47,0,1,,,,,,,,,0,,,75,0
1466079,note_on,287,0,3,,,,,,,,,2,,,45,88
1466079,note_on,287,0,4,,,,,,,,,3,,,33,88
1466111,note_on,32,0,4,,,,,,,,,3,,,33,0
1466111,note_on,32,0,3,,,,,,,,,2,,,45,0
1466400,note_on,289,0,4,,,,,,,,,3,,,32,114
1466400,note_on,433,0,1,,,,,,,,,0,,,73,114
1466400,note_on,433,0,2,,,,,,,,,1,,,61,114
1466400,note_on,0,0,2,,,,,,,,,1,,,64,114
1466400,note_on,0,0,1,,,,,,,,,0,,,76,114
1466400,note_on,289,0,3,,,,,,,,,2,,,44,114
1466720,note_on,0,0,4,,,,,,,,,3,,,46,88
1466720,note_on,320,0,4,,,,,,,,,3,,,32,0
1466720,note_on,320,0,3,,,,,,,,,2,,,44,0
1466720,note_on,0,0,3,,,,,,,,,2,,,58,88
1467039,note_on,319,0,4,,,,,,,,,3,,,46,0
1467039,note_on,0,0,4,,,,,,,,,3,,,48,88
1467039,note_on,0,0,3,,,,,,,,,2,,,60,88
1467039,note_on,319,0,3,,,,,,,,,2,,,58,0
1467360,note_on,0,0,4,,,,,,,,,3,,,49,88
1467360,note_on,0,0,3,,,,,,,,,2,,,61,88
1467360,note_on,321,0,3,,,,,,,,,2,,,60,0
1467360,note_on,321,0,4,,,,,,,,,3,,,48,0
1467680,note_on,320,0,4,,,,,,,,,3,,,49,0
1467680,note_on,0,0,4,,,,,,,,,3,,,47,88
1467680,note_on,0,0,3,,,,,,,,,2,,,59,88
1467680,note_on,320,0,3,,,,,,,,,2,,,61,0
1467840,note_on,1440,0,1,,,,,,,,,0,,,76,0
1467840,note_on,0,0,2,,,,,,,,,1,,,68,88
1467840,note_on,0,0,1,,,,,,,,,0,,,80,88
1467840,note_on,0,0,1,,,,,,,,,0,,,76,88
1467840,note_on,0,0,1,,,,,,,,,0,,,73,0
1467840,note_on,0,0,2,,,,,,,,,1,,,61,0
1467840,note_on,1440,0,2,,,,,,,,,1,,,64,0
1467999,note_on,0,0,3,,,,,,,,,2,,,57,88
1467999,note_on,319,0,3,,,,,,,,,2,,,59,0
1467999,note_on,319,0,4,,,,,,,,,3,,,47,0
1467999,note_on,0,0,4,,,,,,,,,3,,,45,88
1468080,note_on,0,0,2,,,,,,,,,1,,,68,88
1468080,note_on,0,0,1,,,,,,,,,0,,,80,88
1468080,note_on,0,0,1,,,,,,,,,0,,,76,88
1468080,note_on,0,0,1,,,,,,,,,0,,,76,0
1468080,note_on,240,0,1,,,,,,,,,0,,,80,0
1468080,note_on,240,0,2,,,,,,,,,1,,,68,0
1468320,note_on,0,0,1,,,,,,,,,0,,,76,0
1468320,note_on,240,0,1,,,,,,,,,0,,,80,0
1468320,note_on,0,0,4,,,,,,,,,3,,,44,88
1468320,note_on,321,0,4,,,,,,,,,3,,,45,0
1468320,note_on,321,0,3,,,,,,,,,2,,,57,0
1468320,note_on,0,0,3,,,,,,,,,2,,,56,88
1468320,note_on,0,0,2,,,,,,,,,1,,,68,88
1468320,note_on,240,0,2,,,,,,,,,1,,,68,0
1468320,note_on,0,0,1,,,,,,,,,0,,,80,88
1468320,note_on,0,0,1,,,,,,,,,0,,,76,88
1468640,note_on,320,0,3,,,,,,,,,2,,,56,0
1468640,note_on,0,0,3,,,,,,,,,2,,,54,88
1468640,note_on,0,0,4,,,,,,,,,3,,,42,88
1468640,note_on,320,0,4,,,,,,,,,3,,,44,0
1468959,note_on,319,0,4,,,,,,,,,3,,,42,0
1468959,note_on,0,0,3,,,,,,,,,2,,,52,88
1468959,note_on,319,0,3,,,,,,,,,2,,,54,0
1468959,note_on,0,0,4,,,,,,,,,3,,,40,88
1469280,note_on,0,0,3,,,,,,,,,2,,,51,88
1469280,note_on,321,0,3,,,,,,,,,2,,,52,0
1469280,note_on,321,0,4,,,,,,,,,3,,,40,0
1469280,note_on,0,0,4,,,,,,,,,3,,,39,88
1469600,note_on,0,0,3,,,,,,,,,2,,,49,88
1469600,note_on,320,0,3,,,,,,,,,2,,,51,0
1469600,note_on,0,0,4,,,,,,,,,3,,,37,88
1469600,note_on,320,0,4,,,,,,,,,3,,,39,0
1469760,note_on,0,0,1,,,,,,,,,0,,,73,88
1469760,note_on,1440,0,2,,,,,,,,,1,,,68,0
1469760,note_on,0,0,2,,,,,,,,,1,,,68,88
1469760,note_on,0,0,1,,,,,,,,,0,,,76,88
1469760,note_on,0,0,1,,,,,,,,,0,,,76,0
1469760,note_on,1440,0,1,,,,,,,,,0,,,80,0
1469807,note_on,47,0,2,,,,,,,,,1,,,68,0
1469807,note_on,47,0,1,,,,,,,,,0,,,76,0
1469807,note_on,0,0,1,,,,,,,,,0,,,73,0
1469919,note_on,0,0,3,,,,,,,,,2,,,47,88
1469919,note_on,319,0,4,,,,,,,,,3,,,37,0
1469919,note_on,0,0,4,,,,,,,,,3,,,35,88
1469919,note_on,319,0,3,,,,,,,,,2,,,49,0
1470240,note_on,433,0,1,,,,,,,,,0,,,73,114
1470240,note_on,0,0,3,,,,,,,,,2,,,45,114
1470240,note_on,321,0,4,,,,,,,,,3,,,35,0
1470240,note_on,0,0,4,,,,,,,,,3,,,33,114
1470240,note_on,433,0,2,,,,,,,,,1,,,69,114
1470240,note_on,0,0,1,,,,,,,,,0,,,76,114
1470240,note_on,321,0,3,,,,,,,,,2,,,47,0
1470560,note_on,0,0,3,,,,,,,,,2,,,64,88
1470560,note_on,320,0,3,,,,,,,,,2,,,45,0
1470560,note_on,320,0,4,,,,,,,,,3,,,33,0
1470560,note_on,0,0,4,,,,,,,,,3,,,52,88
1470879,note_on,0,0,4,,,,,,,,,3,,,49,88
1470879,note_on,0,0,3,,,,,,,,,2,,,61,88
1470879,note_on,319,0,4,,,,,,,,,3,,,52,0
1470879,note_on,319,0,3,,,,,,,,,2,,,64,0
1471200,note_on,0,0,3,,,,,,,,,2,,,59,88
1471200,note_on,321,0,3,,,,,,,,,2,,,61,0
1471200,note_on,0,0,4,,,,,,,,,3,,,47,88
1471200,note_on,321,0,4,,,,,,,,,3,,,49,0
1471520,note_on,0,0,3,,,,,,,,,2,,,57,88
1471520,note_on,320,0,4,,,,,,,,,3,,,47,0
1471520,note_on,0,0,4,,,,,,,,,3,,,45,88
1471520,note_on,320,0,3,,,,,,,,,2,,,59,0
1471680,note_on,1440,0,2,,,,,,,,,1,,,69,0
1471680,note_on,0,0,2,,,,,,,,,1,,,69,88
1471680,note_on,0,0,1,,,,,,,,,0,,,73,88
1471680,note_on,0,0,1,,,,,,,,,0,,,81,88
1471680,note_on,1440,0,1,,,,,,,,,0,,,76,0
1471680,note_on,0,0,1,,,,,,,,,0,,,73,0
1471839,note_on,0,0,4,,,,,,,,,3,,,43,88
1471839,note_on,319,0,4,,,,,,,,,3,,,45,0
1471839,note_on,319,0,3,,,,,,,,,2,,,57,0
1471839,note_on,0,0,3,,,,,,,,,2,,,55,88
1471920,note_on,240,0,1,,,,,,,,,0,,,81,0
1471920,note_on,0,0,1,,,,,,,,,0,,,73,88
1471920,note_on,0,0,1,,,,,,,,,0,,,81,88
1471920,note_on,0,0,1,,,,,,,,,0,,,73,0
1471920,note_on,240,0,2,,,,,,,,,1,,,69,0
1471920,note_on,0,0,2,,,,,,,,,1,,,69,88
1472160,note_on,0,0,1,,,,,,,,,0,,,81,101
1472160,note_on,0,0,1,,,,,,,,,0,,,73,101
1472160,note_on,0,0,1,,,,,,,,,0,,,73,0
1472160,note_on,240,0,1,,,,,,,,,0,,,81,0
1472160,note_on,240,0,2,,,,,,,,,1,,,69,0
1472160,note_on,0,0,2,,,,,,,,,1,,,69,101
1472160,note_on,0,0,3,,,,,,,,,2,,,54,88
1472160,note_on,321,0,3,,,,,,,,,2,,,55,0
1472160,note_on,321,0,4,,,,,,,,,3,,,43,0
1472160,note_on,0,0,4,,,,,,,,,3,,,42,88
1472480,note_on,320,0,4,,,,,,,,,3,,,42,0
1472480,note_on,320,0,3,,,,,,,,,2,,,54,0
1472480,note_on,0,0,3,,,,,,,,,2,,,52,88
1472480,note_on,0,0,4,,,,,,,,,3,,,40,88
1472799,note_on,319,0,3,,,,,,,,,2,,,52,0
1472799,note_on,0,0,3,,,,,,,,,2,,,50,88
1472799,note_on,0,0,4,,,,,,,,,3,,,38,88
1472799,note_on,319,0,4,,,,,,,,,3,,,40,0
1473120,note_on,0,0,4,,,,,,,,,3,,,37,88
1473120,note_on,321,0,4,,,,,,,,,3,,,38,0
1473120,note_on,321,0,3,,,,,,,,,2,,,50,0
1473120,note_on,0,0,3,,,,,,,,,2,,,49,88
1473440,note_on,320,0,3,,,,,,,,,2,,,49,0
1473440,note_on,0,0,3,,,,,,,,,2,,,47,88
1473440,note_on,320,0,4,,,,,,,,,3,,,37,0
1473440,note_on,0,0,4,,,,,,,,,3,,,35,88
1473600,note_on,0,0,2,,,,,,,,,1,,,69,101
1473600,note_on,0,0,1,,,,,,,,,0,,,73,0
1473600,note_on,0,0,1,,,,,,,,,0,,,73,101
1473600,note_on,0,0,1,,,,,,,,,0,,,77,101
1473600,note_on,1440,0,1,,,,,,,,,0,,,81,0
1473600,note_on,1440,0,2,,,,,,,,,1,,,69,0
1473647,note_on,47,0,1,,,,,,,,,0,,,77,0
1473647,note_on,0,0,1,,,,,,,,,0,,,73,0
1473647,note_on,47,0,2,,,,,,,,,1,,,69,0
1473759,note_on,319,0,4,,,,,,,,,3,,,35,0
1473759,note_on,0,0,4,,,,,,,,,3,,,33,88
1473759,note_on,319,0,3,,,,,,,,,2,,,47,0
1473759,note_on,0,0,3,,,,,,,,,2,,,45,88
1474080,note_on,321,0,3,,,,,,,,,2,,,45,0
1474080,note_on,433,0,2,,,,,,,,,1,,,69,101
1474080,note_on,0,0,1,,,,,,,,,0,,,78,101
1474080,note_on,433,0,1,,,,,,,,,0,,,74,101
1474080,note_on,0,0,4,,,,,,,,,3,,,38,101
1474080,note_on,321,0,4,,,,,,,,,3,,,33,0
1474080,note_on,0,0,3,,,,,,,,,2,,,50,101
1474127,note_on,47,0,4,,,,,,,,,3,,,38,0
1474127,note_on,47,0,3,,,,,,,,,2,,,50,0
1474127,note_on,0,0,1,,,,,,,,,0,,,74,0
1474127,note_on,47,0,2,,,,,,,,,1,,,69,0
1474127,note_on,47,0,1,,,,,,,,,0,,,78,0
1474560,note_on,433,0,3,,,,,,,,,2,,,50,101
1474560,note_on,0,0,3,,,,,,,,,2,,,54,101
1474560,note_on,0,0,3,,,,,,,,,2,,,57,101
1474560,note_on,433,0,4,,,,,,,,,3,,,38,101
1474607,note_on,47,0,3,,,,,,,,,2,,,57,0
1474607,note_on,0,0,3,,,,,,,,,2,,,54,0
1474607,note_on,0,0,3,,,,,,,,,2,,,50,0
1474607,note_on,47,0,4,,,,,,,,,3,,,38,0
1475040,note_on,0,0,2,,,,,,,,,1,,,74,101
1475040,note_on,913,0,2,,,,,,,,,1,,,66,101
1475040,note_on,0,0,1,,,,,,,,,0,,,83,101
1475040,note_on,913,0,1,,,,,,,,,0,,,78,101
1475040,note_on,0,0,1,,,,,,,,,0,,,86,101
1475087,note_on,47,0,1,,,,,,,,,0,,,86,0
1475087,note_on,0,0,1,,,,,,,,,0,,,83,0
1475087,note_on,0,0,1,,,,,,,,,0,,,78,0
1475087,note_on,47,0,2,,,,,,,,,1,,,74,0
1475087,note_on,0,0,2,,,,,,,,,1,,,66,0
1475520,note_on,0,0,3,,,,,,,,,2,,,59,101
1475520,note_on,913,0,4,,,,,,,,,3,,,38,101
1475520,note_on,0,0,3,,,,,,,,,2,,,54,101
1475520,note_on,913,0,3,,,,,,,,,2,,,50,101
1475567,note_on,0,0,3,,,,,,,,,2,,,50,0
1475567,note_on,0,0,3,,,,,,,,,2,,,54,0
1475567,note_on,47,0,3,,,,,,,,,2,,,59,0
1475567,note_on,47,0,4,,,,,,,,,3,,,38,0
1476000,note_on,0,0,1,,,,,,,,,0,,,81,101
1476000,note_on,913,0,1,,,,,,,,,0,,,76,101
1476000,note_on,0,0,1,,,,,,,,,0,,,85,101
1476000,note_on,0,0,2,,,,,,,,,1,,,73,101
1476000,note_on,913,0,2,,,,,,,,,1,,,64,101
1476000,note_on,0,0,2,,,,,,,,,1,,,69,101
1476047,note_on,0,0,1,,,,,,,,,0,,,81,0
1476047,note_on,47,0,2,,,,,,,,,1,,,73,0
1476047,note_on,0,0,2,,,,,,,,,1,,,69,0
1476047,note_on,0,0,2,,,,,,,,,1,,,64,0
1476047,note_on,0,0,1,,,,,,,,,0,,,76,0
1476047,note_on,47,0,1,,,,,,,,,0,,,85,0
1476480,note_on,0,0,3,,,,,,,,,2,,,61,101
1476480,note_on,913,0,3,,,,,,,,,2,,,52,101
1476480,note_on,913,0,4,,,,,,,,,3,,,40,101
1476480,note_on,0,0,3,,,,,,,,,2,,,57,101
1476527,note_on,47,0,4,,,,,,,,,3,,,40,0
1476527,note_on,47,0,3,,,,,,,,,2,,,61,0
1476527,note_on,0,0,3,,,,,,,,,2,,,57,0
1476527,note_on,0,0,3,,,,,,,,,2,,,52,0
1476960,note_on,0,0,2,,,,,,,,,1,,,71,101
1476960,note_on,913,0,1,,,,,,,,,0,,,76,101
1476960,note_on,0,0,1,,,,,,,,,0,,,80,101
1476960,note_on,0,0,1,,,,,,,,,0,,,83,101
1476960,note_on,913,0,2,,,,,,,,,1,,,64,101
1476960,note_on,0,0,2,,,,,,,,,1,,,68,101
1477007,note_on,0,0,1,,,,,,,,,0,,,76,0
1477007,note_on,0,0,1,,,,,,,,,0,,,80,0
1477007,note_on,47,0,2,,,,,,,,,1,,,71,0
1477007,note_on,0,0,2,,,,,,,,,1,,,68,0
1477007,note_on,0,0,2,,,,,,,,,1,,,64,0
1477007,note_on,47,0,1,,,,,,,,,0,,,83,0
1477440,note_on,913,0,3,,,,,,,,,2,,,52,101
1477440,note_on,913,0,4,,,,,,,,,3,,,40,101
1477440,note_on,0,0,3,,,,,,,,,2,,,59,101
1477440,note_on,0,0,3,,,,,,,,,2,,,56,101
1477487,note_on,47,0,3,,,,,,,,,2,,,59,0
1477487,note_on,0,0,3,,,,,,,,,2,,,56,0
1477487,note_on,0,0,3,,,,,,,,,2,,,52,0
1477487,note_on,47,0,4,,,,,,,,,3,,,40,0
1477920,note_on,433,0,4,,,,,,,,,3,,,32,62
1477920,note_on,913,0,2,,,,,,,,,1,,,68,62
1477920,note_on,913,0,1,,,,,,,,,0,,,72,62
1477920,note_on,0,0,1,,,,,,,,,0,,,75,62
1477920,note_on,433,0,3,,,,,,,,,2,,,44,62
1477951,note_on,31,0,4,,,,,,,,,3,,,32,0
1477951,note_on,31,0,3,,,,,,,,,2,,,44,0
1478240,note_on,289,0,4,,,,,,,,,3,,,51,62
1478240,note_on,289,0,3,,,,,,,,,2,,,63,62
1478272,note_on,32,0,4,,,,,,,,,3,,,51,0
1478272,note_on,32,0,3,,,,,,,,,2,,,63,0
1478559,note_on,287,0,4,,,,,,,,,3,,,49,62
1478559,note_on,287,0,3,,,,,,,,,2,,,61,62
1478591,note_on,32,0,4,,,,,,,,,3,,,49,0
1478591,note_on,32,0,3,,,,,,,,,2,,,61,0
1478880,note_on,289,0,4,,,,,,,,,3,,,48,62
1478880,note_on,289,0,3,,,,,,,,,2,,,60,62
1478911,note_on,31,0,3,,,,,,,,,2,,,60,0
1478911,note_on,31,0,4,,,,,,,,,3,,,48,0
1479200,note_on,289,0,4,,,,,,,,,3,,,46,62
1479200,note_on,289,0,3,,,,,,,,,2,,,58,62
1479232,note_on,32,0,4,,,,,,,,,3,,,46,0
1479232,note_on,32,0,3,,,,,,,,,2,,,58,0
1479360,note_on,0,0,1,,,,,,,,,0,,,72,0
1479360,note_on,1440,0,1,,,,,,,,,0,,,75,0
1479360,note_on,1440,0,2,,,,,,,,,1,,,68,0
1479360,note_on,0,0,2,,,,,,,,,1,,,68,62
1479360,note_on,0,0,1,,,,,,,,,0,,,80,62
1479360,note_on,0,0,1,,,,,,,,,0,,,72,62
1479519,note_on,287,0,4,,,,,,,,,3,,,44,62
1479519,note_on,287,0,3,,,,,,,,,2,,,56,62
1479551,note_on,32,0,4,,,,,,,,,3,,,44,0
1479551,note_on,32,0,3,,,,,,,,,2,,,56,0
1479600,note_on,0,0,1,,,,,,,,,0,,,72,0
1479600,note_on,0,0,1,,,,,,,,,0,,,80,62
1479600,note_on,0,0,1,,,,,,,,,0,,,72,62
1479600,note_on,240,0,2,,,,,,,,,1,,,68,0
1479600,note_on,0,0,2,,,,,,,,,1,,,68,62
1479600,note_on,240,0,1,,,,,,,,,0,,,80,0
1479840,note_on,289,0,3,,,,,,,,,2,,,54,62
1479840,note_on,0,0,1,,,,,,,,,0,,,80,62
1479840,note_on,240,0,1,,,,,,,,,0,,,80,0
1479840,note_on,0,0,1,,,,,,,,,0,,,72,0
1479840,note_on,289,0,4,,,,,,,,,3,,,42,62
1479840,note_on,0,0,1,,,,,,,,,0,,,72,62
1479840,note_on,240,0,2,,,,,,,,,1,,,68,0
1479840,note_on,0,0,2,,,,,,,,,1,,,68,62
1479871,note_on,31,0,4,,,,,,,,,3,,,42,0
1479871,note_on,31,0,3,,,,,,,,,2,,,54,0
1480160,note_on,289,0,4,,,,,,,,,3,,,40,62
1480160,note_on,289,0,3,,,,,,,,,2,,,52,62
1480192,note_on,32,0,4,,,,,,,,,3,,,40,0
1480192,note_on,32,0,3,,,,,,,,,2,,,52,0
1480479,note_on,287,0,4,,,,,,,,,3,,,39,62
1480479,note_on,287,0,3,,,,,,,,,2,,,51,62
1480511,note_on,32,0,3,,,,,,,,,2,,,51,0
1480511,note_on,32,0,4,,,,,,,,,3,,,39,0
1480800,note_on,289,0,4,,,,,,,,,3,,,37,62
1480800,note_on,289,0,3,,,,,,,,,2,,,49,62
1480831,note_on,31,0,3,,,,,,,,,2,,,49,0
1480831,note_on,31,0,4,,,,,,,,,3,,,37,0
1481120,note_on,289,0,4,,,,,,,,,3,,,36,62
1481120,note_on,289,0,3,,,,,,,,,2,,,48,62
1481152,note_on,32,0,3,,,,,,,,,2,,,48,0
1481152,note_on,32,0,4,,,,,,,,,3,,,36,0
1481280,note_on,0,0,2,,,,,,,,,1,,,63,62
1481280,note_on,0,0,1,,,,,,,,,0,,,72,62
1481280,note_on,0,0,1,,,,,,,,,0,,,75,62
1481280,note_on,0,0,1,,,,,,,,,0,,,72,0
1481280,note_on,1440,0,1,,,,,,,,,0,,,80,0
1481280,note_on,1440,0,2,,,,,,,,,1,,,68,0
1481280,note_on,0,0,2,,,,,,,,,1,,,68,62
1481327,note_on,0,0,1,,,,,,,,,0,,,72,0
1481327,note_on,47,0,1,,,,,,,,,0,,,75,0
1481327,note_on,0,0,2,,,,,,,,,1,,,63,0
1481327,note_on,47,0,2,,,,,,,,,1,,,68,0
1481439,note_on,287,0,4,,,,,,,,,3,,,33,62
1481439,note_on,287,0,3,,,,,,,,,2,,,45,62
1481471,note_on,32,0,3,,,,,,,,,2,,,45,0
1481471,note_on,32,0,4,,,,,,,,,3,,,33,0
1481760,note_on,289,0,3,,,,,,,,,2,,,44,88
1481760,note_on,433,0,2,,,,,,,,,1,,,61,88
1481760,note_on,0,0,2,,,,,,,,,1,,,64,88
1481760,note_on,433,0,1,,,,,,,,,0,,,73,88
1481760,note_on,289,0,4,,,,,,,,,3,,,32,88
1481760,note_on,0,0,1,,,,,,,,,0,,,76,88
1481791,note_on,31,0,3,,,,,,,,,2,,,44,0
1481791,note_on,31,0,4,,,,,,,,,3,,,32,0
1482080,note_on,289,0,4,,,,,,,,,3,,,46,62
1482080,note_on,289,0,3,,,,,,,,,2,,,58,62
1482112,note_on,32,0,4,,,,,,,,,3,,,46,0
1482112,note_on,32,0,3,,,,,,,,,2,,,58,0
1482399,note_on,287,0,4,,,,,,,,,3,,,48,62
1482399,note_on,287,0,3,,,,,,,,,2,,,60,62
1482431,note_on,32,0,3,,,,,,,,,2,,,60,0
1482431,note_on,32,0,4,,,,,,,,,3,,,48,0
1482720,note_on,289,0,3,,,,,,,,,2,,,61,88
1482720,note_on,289,0,4,,,,,,,,,3,,,49,62
1482751,note_on,31,0,3,,,,,,,,,2,,,61,0
1482751,note_on,31,0,4,,,,,,,,,3,,,49,0
1483040,note_on,289,0,4,,,,,,,,,3,,,47,62
1483040,note_on,289,0,3,,,,,,,,,2,,,59,62
1483072,note_on,32,0,4,,,,,,,,,3,,,47,0
1483072,note_on,32,0,3,,,,,,,,,2,,,59,0
1483200,note_on,1440,0,1,,,,,,,,,0,,,76,0
1483200,note_on,0,0,1,,,,,,,,,0,,,73,0
1483200,note_on,0,0,1,,,,,,,,,0,,,76,62
1483200,note_on,0,0,1,,,,,,,,,0,,,80,62
1483200,note_on,0,0,2,,,,,,,,,1,,,68,62
1483200,note_on,0,0,2,,,,,,,,,1,,,61,0
1483200,note_on,1440,0,2,,,,,,,,,1,,,64,0
1483359,note_on,287,0,4,,,,,,,,,3,,,45,62
1483359,note_on,287,0,3,,,,,,,,,2,,,57,62
1483391,note_on,32,0,3,,,,,,,,,2,,,57,0
1483391,note_on,32,0,4,,,,,,,,,3,,,45,0
1483440,note_on,0,0,1,,,,,,,,,0,,,76,0
1483440,note_on,0,0,1,,,,,,,,,0,,,76,62
1483440,note_on,240,0,1,,,,,,,,,0,,,80,0
1483440,note_on,0,0,1,,,,,,,,,0,,,80,62
1483440,note_on,240,0,2,,,,,,,,,1,,,68,0
1483440,note_on,0,0,2,,,,,,,,,1,,,68,62
1483680,note_on,0,0,1,,,,,,,,,0,,,76,0
1483680,note_on,0,0,1,,,,,,,,,0,,,76,88
1483680,note_on,0,0,1,,,,,,,,,0,,,80,88
1483680,note_on,240,0,2,,,,,,,,,1,,,68,0
1483680,note_on,0,0,2,,,,,,,,,1,,,68,62
1483680,note_on,289,0,4,,,,,,,,,3,,,44,62
1483680,note_on,240,0,1,,,,,,,,,0,,,80,0
1483680,note_on,289,0,3,,,,,,,,,2,,,56,62
1483711,note_on,31,0,4,,,,,,,,,3,,,44,0
1483711,note_on,31,0,3,,,,,,,,,2,,,56,0
1484000,note_on,289,0,4,,,,,,,,,3,,,42,62
1484000,note_on,289,0,3,,,,,,,,,2,,,54,62
1484032,note_on,32,0,3,,,,,,,,,2,,,54,0
1484032,note_on,32,0,4,,,,,,,,,3,,,42,0
1484319,note_on,287,0,3,,,,,,,,,2,,,52,62
1484319,note_on,287,0,4,,,,,,,,,3,,,40,62
1484351,note_on,32,0,3,,,,,,,,,2,,,52,0
1484351,note_on,32,0,4,,,,,,,,,3,,,40,0
1484640,note_on,289,0,3,,,,,,,,,2,,,51,62
1484640,note_on,289,0,4,,,,,,,,,3,,,39,62
1484671,note_on,31,0,3,,,,,,,,,2,,,51,0
1484671,note_on,31,0,4,,,,,,,,,3,,,39,0
1484960,note_on,289,0,3,,,,,,,,,2,,,49,62
1484960,note_on,289,0,4,,,,,,,,,3,,,37,62
1484992,note_on,32,0,4,,,,,,,,,3,,,37,0
1484992,note_on,32,0,3,,,,,,,,,2,,,49,0
1485120,note_on,0,0,1,,,,,,,,,0,,,76,0
1485120,note_on,0,0,2,,,,,,,,,1,,,68,62
1485120,note_on,0,0,1,,,,,,,,,0,,,76,62
1485120,note_on,0,0,1,,,,,,,,,0,,,73,62
1485120,note_on,1440,0,2,,,,,,,,,1,,,68,0
1485120,note_on,1440,0,1,,,,,,,,,0,,,80,0
1485167,note_on,47,0,2,,,,,,,,,1,,,68,0
1485167,note_on,0,0,1,,,,,,,,,0,,,73,0
1485167,note_on,47,0,1,,,,,,,,,0,,,76,0
1485279,note_on,287,0,4,,,,,,,,,3,,,35,62
1485279,note_on,287,0,3,,,,,,,,,2,,,47,62
1485311,note_on,32,0,3,,,,,,,,,2,,,47,0
1485311,note_on,32,0,4,,,,,,,,,3,,,35,0
1485600,note_on,433,0,1,,,,,,,,,0,,,73,88
1485600,note_on,0,0,1,,,,,,,,,0,,,76,88
1485600,note_on,289,0,4,,,,,,,,,3,,,33,114
1485600,note_on,433,0,2,,,,,,,,,1,,,69,88
1485600,note_on,289,0,3,,,,,,,,,2,,,45,88
1485920,note_on,0,0,3,,,,,,,,,2,,,64,88
1485920,note_on,320,0,3,,,,,,,,,2,,,45,0
1485920,note_on,320,0,4,,,,,,,,,3,,,33,0
1485920,note_on,0,0,4,,,,,,,,,3,,,52,88
1486239,note_on,319,0,3,,,,,,,,,2,,,64,0
1486239,note_on,0,0,3,,,,,,,,,2,,,61,88
1486239,note_on,0,0,4,,,,,,,,,3,,,49,88
1486239,note_on,319,0,4,,,,,,,,,3,,,52,0
1486560,note_on,0,0,4,,,,,,,,,3,,,47,88
1486560,note_on,321,0,3,,,,,,,,,2,,,61,0
1486560,note_on,0,0,3,,,,,,,,,2,,,59,88
1486560,note_on,321,0,4,,,,,,,,,3,,,49,0
1486880,note_on,320,0,3,,,,,,,,,2,,,59,0
1486880,note_on,0,0,3,,,,,,,,,2,,,57,88
1486880,note_on,320,0,4,,,,,,,,,3,,,47,0
1486880,note_on,0,0,4,,,,,,,,,3,,,45,88
1487040,note_on,0,0,1,,,,,,,,,0,,,81,75
1487040,note_on,0,0,1,,,,,,,,,0,,,73,75
1487040,note_on,0,0,1,,,,,,,,,0,,,73,0
1487040,note_on,1440,0,1,,,,,,,,,0,,,76,0
1487040,note_on,1440,0,2,,,,,,,,,1,,,69,0
1487040,note_on,0,0,2,,,,,,,,,1,,,69,75
1487199,note_on,319,0,4,,,,,,,,,3,,,45,0
1487199,note_on,0,0,4,,,,,,,,,3,,,43,88
1487199,note_on,319,0,3,,,,,,,,,2,,,57,0
1487199,note_on,0,0,3,,,,,,,,,2,,,55,88
1487280,note_on,0,0,1,,,,,,,,,0,,,73,75
1487280,note_on,240,0,2,,,,,,,,,1,,,69,0
1487280,note_on,0,0,2,,,,,,,,,1,,,69,75
1487280,note_on,0,0,1,,,,,,,,,0,,,73,0
1487280,note_on,0,0,1,,,,,,,,,0,,,81,75
1487280,note_on,240,0,1,,,,,,,,,0,,,81,0
1487520,note_on,0,0,2,,,,,,,,,1,,,69,88
1487520,note_on,0,0,4,,,,,,,,,3,,,42,101
1487520,note_on,321,0,4,,,,,,,,,3,,,43,0
1487520,note_on,240,0,2,,,,,,,,,1,,,69,0
1487520,note_on,0,0,1,,,,,,,,,0,,,73,88
1487520,note_on,0,0,1,,,,,,,,,0,,,73,0
1487520,note_on,321,0,3,,,,,,,,,2,,,55,0
1487520,note_on,240,0,1,,,,,,,,,0,,,81,0
1487520,note_on,0,0,3,,,,,,,,,2,,,54,101
1487520,note_on,0,0,1,,,,,,,,,0,,,81,88
1487840,note_on,0,0,3,,,,,,,,,2,,,52,101
1487840,note_on,320,0,3,,,,,,,,,2,,,54,0
1487840,note_on,320,0,4,,,,,,,,,3,,,42,0
1487840,note_on,0,0,4,,,,,,,,,3,,,40,101
1488159,note_on,0,0,3,,,,,,,,,2,,,50,101
1488159,note_on,319,0,3,,,,,,,,,2,,,52,0
1488159,note_on,319,0,4,,,,,,,,,3,,,40,0
1488159,note_on,0,0,4,,,,,,,,,3,,,38,101
1488480,note_on,0,0,4,,,,,,,,,3,,,37,101
1488480,note_on,0,0,3,,,,,,,,,2,,,49,101
1488480,note_on,321,0,3,,,,,,,,,2,,,50,0
1488480,note_on,321,0,4,,,,,,,,,3,,,38,0
1488800,note_on,320,0,3,,,,,,,,,2,,,49,0
1488800,note_on,0,0,3,,,,,,,,,2,,,47,101
1488800,note_on,0,0,4,,,,,,,,,3,,,35,101
1488800,note_on,320,0,4,,,,,,,,,3,,,37,0
1488960,note_on,1440,0,2,,,,,,,,,1,,,69,0
1488960,note_on,0,0,2,,,,,,,,,1,,,69,88
1488960,note_on,1440,0,1,,,,,,,,,0,,,81,0
1488960,note_on,0,0,1,,,,,,,,,0,,,73,0
1488960,note_on,0,0,1,,,,,,,,,0,,,73,88
1488960,note_on,0,0,1,,,,,,,,,0,,,77,88
1489007,note_on,0,0,1,,,,,,,,,0,,,73,0
1489007,note_on,47,0,2,,,,,,,,,1,,,69,0
1489007,note_on,47,0,1,,,,,,,,,0,,,77,0
1489119,note_on,319,0,4,,,,,,,,,3,,,35,0
1489119,note_on,0,0,4,,,,,,,,,3,,,33,101
1489119,note_on,319,0,3,,,,,,,,,2,,,47,0
1489119,note_on,0,0,3,,,,,,,,,2,,,45,101
1489440,note_on,433,0,2,,,,,,,,,1,,,69,88
1489440,note_on,321,0,3,,,,,,,,,2,,,45,0
1489440,note_on,0,0,4,,,,,,,,,3,,,38,101
1489440,note_on,433,0,1,,,,,,,,,0,,,74,101
1489440,note_on,0,0,1,,,,,,,,,0,,,78,101
1489440,note_on,321,0,4,,,,,,,,,3,,,33,0
1489440,note_on,0,0,3,,,,,,,,,2,,,50,101
1489487,note_on,47,0,3,,,,,,,,,2,,,50,0
1489487,note_on,47,0,4,,,,,,,,,3,,,38,0
1489920,note_on,480,0,1,,,,,,,,,0,,,78,0
1489920,note_on,0,0,1,,,,,,,,,0,,,74,0
1489920,note_on,0,0,3,,,,,,,,,2,,,54,101
1489920,note_on,433,0,4,,,,,,,,,3,,,38,101
1489920,note_on,480,0,2,,,,,,,,,1,,,69,0
1489920,note_on,433,0,3,,,,,,,,,2,,,50,101
1489920,note_on,0,0,3,,,,,,,,,2,,,57,101
1489967,note_on,47,0,3,,,,,,,,,2,,,57,0
1489967,note_on,0,0,3,,,,,,,,,2,,,54,0
1489967,note_on,0,0,3,,,,,,,,,2,,,50,0
1489967,note_on,47,0,4,,,,,,,,,3,,,38,0
1490400,note_on,0,0,2,,,,,,,,,1,,,74,88
1490400,note_on,0,0,2,,,,,,,,,1,,,71,88
1490400,note_on,480,0,2,,,,,,,,,1,,,66,88
1490400,note_on,480,0,1,,,,,,,,,0,,,78,101
1490640,note_on,0,0,1,,,,,,,,,0,,,83,101
1490640,note_on,240,0,1,,,,,,,,,0,,,78,0
1490880,note_on,240,0,1,,,,,,,,,0,,,83,0
1490880,note_on,0,0,3,,,,,,,,,2,,,59,101
1490880,note_on,0,0,3,,,,,,,,,2,,,54,101
1490880,note_on,913,0,3,,,,,,,,,2,,,50,101
1490880,note_on,0,0,1,,,,,,,,,0,,,86,101
1490880,note_on,0,0,2,,,,,,,,,1,,,66,0
1490880,note_on,0,0,2,,,,,,,,,1,,,71,0
1490880,note_on,480,0,2,,,,,,,,,1,,,74,0
1490880,note_on,913,0,4,,,,,,,,,3,,,38,101
1490927,note_on,47,0,4,,,,,,,,,3,,,38,0
1490927,note_on,47,0,3,,,,,,,,,2,,,59,0
1490927,note_on,0,0,3,,,,,,,,,2,,,54,0
1490927,note_on,0,0,3,,,,,,,,,2,,,50,0
1491120,note_on,0,0,1,,,,,,,,,0,,,90,101
1491120,note_on,240,0,1,,,,,,,,,0,,,86,0
1491360,note_on,0,0,2,,,,,,,,,1,,,73,88
1491360,note_on,0,0,2,,,,,,,,,1,,,69,88
1491360,note_on,480,0,2,,,,,,,,,1,,,64,88
1491360,note_on,0,0,1,,,,,,,,,0,,,76,101
1491360,note_on,240,0,1,,,,,,,,,0,,,90,0
1491600,note_on,0,0,1,,,,,,,,,0,,,81,101
1491600,note_on,240,0,1,,,,,,,,,0,,,76,0
1491840,note_on,0,0,3,,,,,,,,,2,,,61,101
1491840,note_on,240,0,1,,,,,,,,,0,,,81,0
1491840,note_on,0,0,1,,,,,,,,,0,,,85,101
1491840,note_on,913,0,4,,,,,,,,,3,,,40,101
1491840,note_on,0,0,3,,,,,,,,,2,,,57,101
1491840,note_on,913,0,3,,,,,,,,,2,,,52,101
1491840,note_on,480,0,2,,,,,,,,,1,,,73,0
1491840,note_on,0,0,2,,,,,,,,,1,,,69,0
1491840,note_on,0,0,2,,,,,,,,,1,,,64,0
1491887,note_on,47,0,4,,,,,,,,,3,,,40,0
1491887,note_on,47,0,3,,,,,,,,,2,,,61,0
1491887,note_on,0,0,3,,,,,,,,,2,,,57,0
1491887,note_on,0,0,3,,,,,,,,,2,,,52,0
1492080,note_on,0,0,1,,,,,,,,,0,,,88,101
1492080,note_on,240,0,1,,,,,,,,,0,,,85,0
1492320,note_on,240,0,1,,,,,,,,,0,,,88,0
1492320,note_on,0,0,2,,,,,,,,,1,,,71,88
1492320,note_on,480,0,2,,,,,,,,,1,,,64,88
1492320,note_on,0,0,1,,,,,,,,,0,,,76,101
1492320,note_on,0,0,2,,,,,,,,,1,,,68,88
1492560,note_on,240,0,1,,,,,,,,,0,,,76,0
1492560,note_on,0,0,1,,,,,,,,,0,,,80,101
1492800,note_on,913,0,4,,,,,,,,,3,,,40,101
1492800,note_on,0,0,3,,,,,,,,,2,,,59,101
1492800,note_on,0,0,3,,,,,,,,,2,,,56,101
1492800,note_on,913,0,3,,,,,,,,,2,,,52,101
1492800,note_on,480,0,2,,,,,,,,,1,,,71,0
1492800,note_on,240,0,1,,,,,,,,,0,,,80,0
1492800,note_on,0,0,1,,,,,,,,,0,,,83,101
1492800,note_on,0,0,2,,,,,,,,,1,,,68,0
1492800,note_on,0,0,2,,,,,,,,,1,,,64,0
1492847,note_on,47,0,3,,,,,,,,,2,,,59,0
1492847,note_on,0,0,3,,,,,,,,,2,,,56,0
1492847,note_on,0,0,3,,,,,,,,,2,,,52,0
1492847,note_on,47,0,4,,,,,,,,,3,,,40,0
1493040,note_on,240,0,1,,,,,,,,,0,,,83,0
1493040,note_on,0,0,1,,,,,,,,,0,,,88,101
1493280,note_on,0,0,2,,,,,,,,,1,,,64,62
1493280,note_on,433,0,3,,,,,,,,,2,,,57,75
1493280,note_on,0,0,2,,,,,,,,,1,,,69,62
1493280,note_on,240,0,1,,,,,,,,,0,,,88,0
1493280,note_on,480,0,2,,,,,,,,,1,,,61,62
1493280,note_on,0,0,4,,,,,,,,,3,,,52,62
1493280,note_on,0,0,1,,,,,,,,,0,,,73,62
1493280,control_change,0,0,1,,,,,,,,,0,64,127,,
1493280,note_on,433,0,4,,,,,,,,,3,,,45,62
1493520,note_on,240,0,1,,,,,,,,,0,,,73,0
1493520,note_on,0,0,1,,,,,,,,,0,,,74,62
1493760,note_on,240,0,1,,,,,,,,,0,,,74,0
1493760,note_on,0,0,1,,,,,,,,,0,,,76,62
1493760,note_on,480,0,2,,,,,,,,,1,,,69,0
1493760,note_on,0,0,2,,,,,,,,,1,,,64,0
1493760,note_on,0,0,2,,,,,,,,,1,,,61,0
1494000,note_on,0,0,1,,,,,,,,,0,,,78,62
1494000,note_on,240,0,1,,,,,,,,,0,,,76,0
1494240,note_on,240,0,1,,,,,,,,,0,,,78,0
1494240,note_on,0,0,1,,,,,,,,,0,,,80,62
1494480,note_on,0,0,1,,,,,,,,,0,,,81,62
1494480,note_on,240,0,1,,,,,,,,,0,,,80,0
1494720,note_on,240,0,1,,,,,,,,,0,,,81,0
1494720,note_on,0,0,4,,,,,,,,,3,,,52,62
1494720,note_on,0,0,4,,,,,,,,,3,,,45,0
1494720,note_on,1440,0,4,,,,,,,,,3,,,52,0
1494720,note_on,0,0,1,,,,,,,,,0,,,83,62
1494720,note_on,1440,0,3,,,,,,,,,2,,,57,0
1494720,note_on,0,0,4,,,,,,,,,3,,,45,62
1494720,note_on,0,0,3,,,,,,,,,2,,,61,75
1494960,note_on,240,0,1,,,,,,,,,0,,,83,0
1494960,control_change,0,0,1,,,,,,,,,0,64,0,,
1494960,note_on,0,0,1,,,,,,,,,0,,,85,62
1495200,note_on,0,0,4,,,,,,,,,3,,,47,62
1495200,note_on,0,0,3,,,,,,,,,2,,,57,75
1495200,note_on,480,0,3,,,,,,,,,2,,,61,0
1495200,note_on,480,0,4,,,,,,,,,3,,,52,0
1495200,note_on,1440,0,2,,,,,,,,,1,,,64,75
1495200,note_on,0,0,4,,,,,,,,,3,,,45,0
1495200,note_on,240,0,1,,,,,,,,,0,,,85,0
1495200,note_on,0,0,1,,,,,,,,,0,,,86,62
1495200,control_change,0,0,1,,,,,,,,,0,64,127,,
1495200,note_on,0,0,4,,,,,,,,,3,,,52,62
1495440,note_on,240,0,1,,,,,,,,,0,,,86,0
1495440,note_on,0,0,1,,,,,,,,,0,,,85,62
1495680,note_on,240,0,1,,,,,,,,,0,,,85,0
1495680,note_on,0,0,1,,,,,,,,,0,,,83,62
1495680,note_on,480,0,3,,,,,,,,,2,,,57,0
1495680,note_on,0,0,3,,,,,,,,,2,,,56,75
1495920,note_on,240,0,1,,,,,,,,,0,,,83,0
1495920,note_on,0,0,1,,,,,,,,,0,,,81,62
1496160,note_on,240,0,1,,,,,,,,,0,,,81,0
1496160,note_on,0,0,1,,,,,,,,,0,,,80,62
1496160,note_on,480,0,3,,,,,,,,,2,,,56,0
1496400,note_on,0,0,1,,,,,,,,,0,,,78,62
1496400,note_on,240,0,1,,,,,,,,,0,,,80,0
1496640,note_on,0,0,2,,,,,,,,,1,,,66,75
1496640,note_on,240,0,1,,,,,,,,,0,,,78,0
1496640,note_on,1440,0,4,,,,,,,,,3,,,52,0
1496640,note_on,0,0,4,,,,,,,,,3,,,47,0
1496640,note_on,0,0,4,,,,,,,,,3,,,40,62
1496640,note_on,0,0,4,,,,,,,,,3,,,52,62
1496640,note_on,1440,0,2,,,,,,,,,1,,,64,0
1496640,note_on,0,0,1,,,,,,,,,0,,,76,62
1496880,note_on,240,0,1,,,,,,,,,0,,,76,0
1496880,control_change,0,0,1,,,,,,,,,0,64,0,,
1496880,note_on,0,0,1,,,,,,,,,0,,,74,62
1497120,note_on,480,0,4,,,,,,,,,3,,,52,0
1497120,note_on,480,0,2,,,,,,,,,1,,,66,0
1497120,note_on,960,0,3,,,,,,,,,2,,,57,75
1497120,control_change,0,0,1,,,,,,,,,0,64,127,,
1497120,note_on,240,0,1,,,,,,,,,0,,,74,0
1497120,note_on,0,0,4,,,,,,,,,3,,,52,62
1497120,note_on,0,0,4,,,,,,,,,3,,,45,62
1497120,note_on,0,0,4,,,,,,,,,3,,,40,0
1497120,note_on,0,0,2,,,,,,,,,1,,,66,75
1497120,note_on,0,0,1,,,,,,,,,0,,,73,62
1497360,note_on,240,0,1,,,,,,,,,0,,,73,0
1497360,note_on,0,0,1,,,,,,,,,0,,,74,62
1497600,note_on,0,0,1,,,,,,,,,0,,,76,62
1497600,note_on,240,0,1,,,,,,,,,0,,,74,0
1497600,note_on,0,0,2,,,,,,,,,1,,,64,75
1497600,note_on,480,0,2,,,,,,,,,1,,,66,0
1497840,note_on,0,0,1,,,,,,,,,0,,,78,62
1497840,note_on,240,0,1,,,,,,,,,0,,,76,0
1498080,note_on,480,0,2,,,,,,,,,1,,,64,0
1498080,note_on,240,0,1,,,,,,,,,0,,,78,0
1498080,note_on,0,0,1,,,,,,,,,0,,,80,62
1498320,note_on,0,0,1,,,,,,,,,0,,,81,62
1498320,note_on,240,0,1,,,,,,,,,0,,,80,0
1498560,note_on,1440,0,3,,,,,,,,,2,,,57,0
1498560,note_on,0,0,3,,,,,,,,,2,,,61,75
1498560,note_on,240,0,1,,,,,,,,,0,,,81,0
1498560,note_on,0,0,1,,,,,,,,,0,,,83,62
1498560,note_on,1440,0,4,,,,,,,,,3,,,52,0
1498560,note_on,0,0,4,,,,,,,,,3,,,45,0
1498560,note_on,0,0,4,,,,,,,,,3,,,52,62
1498560,note_on,0,0,4,,,,,,,,,3,,,45,62
1498800,control_change,0,0,1,,,,,,,,,0,64,0,,
1498800,note_on,0,0,1,,,,,,,,,0,,,85,62
1498800,note_on,240,0,1,,,,,,,,,0,,,83,0
1499040,note_on,0,0,4,,,,,,,,,3,,,45,0
1499040,note_on,480,0,4,,,,,,,,,3,,,52,0
1499040,note_on,0,0,4,,,,,,,,,3,,,52,62
1499040,note_on,0,0,3,,,,,,,,,2,,,57,75
1499040,note_on,480,0,3,,,,,,,,,2,,,61,0
1499040,note_on,0,0,1,,,,,,,,,0,,,86,62
1499040,control_change,0,0,1,,,,,,,,,0,64,127,,
1499040,note_on,960,0,2,,,,,,,,,1,,,64,75
1499040,note_on,240,0,1,,,,,,,,,0,,,85,0
1499040,note_on,0,0,4,,,,,,,,,3,,,47,62
1499280,note_on,240,0,1,,,,,,,,,0,,,86,0
1499280,note_on,0,0,1,,,,,,,,,0,,,85,62
1499520,note_on,240,0,1,,,,,,,,,0,,,85,0
1499520,note_on,0,0,1,,,,,,,,,0,,,83,62
1499520,note_on,480,0,3,,,,,,,,,2,,,57,0
1499520,note_on,0,0,3,,,,,,,,,2,,,56,75
1499760,note_on,240,0,1,,,,,,,,,0,,,83,0
1499760,note_on,0,0,1,,,,,,,,,0,,,81,62
1500000,note_on,0,0,1,,,,,,,,,0,,,80,62
1500000,note_on,240,0,1,,,,,,,,,0,,,81,0
1500000,note_on,480,0,3,,,,,,,,,2,,,56,0
1500240,note_on,240,0,1,,,,,,,,,0,,,80,0
1500240,note_on,0,0,1,,,,,,,,,0,,,78,62
1500480,note_on,1440,0,2,,,,,,,,,1,,,64,0
1500480,note_on,1440,0,4,,,,,,,,,3,,,52,0
1500480,note_on,0,0,4,,,,,,,,,3,,,47,0
1500480,note_on,0,0,4,,,,,,,,,3,,,40,62
1500480,note_on,240,0,1,,,,,,,,,0,,,78,0
1500480,note_on,0,0,1,,,,,,,,,0,,,76,62
1500480,note_on,0,0,2,,,,,,,,,1,,,66,75
1500720,note_on,240,0,1,,,,,,,,,0,,,76,0
1500720,control_change,0,0,1,,,,,,,,,0,64,0,,
1500720,note_on,0,0,1,,,,,,,,,0,,,74,62
1500960,note_on,0,0,1,,,,,,,,,0,,,73,62
1500960,note_on,0,0,4,,,,,,,,,3,,,45,62
1500960,note_on,240,0,1,,,,,,,,,0,,,74,0
1500960,note_on,0,0,3,,,,,,,,,2,,,61,75
1500960,note_on,480,0,4,,,,,,,,,3,,,40,0
1500960,note_on,0,0,2,,,,,,,,,1,,,66,75
1500960,control_change,960,0,3,,,,,,,,,2,64,127,,
1500960,control_change,0,0,2,,,,,,,,,1,64,127,,
1500960,note_on,480,0,2,,,,,,,,,1,,,66,0
1501200,note_on,0,0,1,,,,,,,,,0,,,74,62
1501200,note_on,240,0,1,,,,,,,,,0,,,73,0
1501440,note_on,480,0,2,,,,,,,,,1,,,66,0
1501440,note_on,480,0,3,,,,,,,,,2,,,61,0
1501440,note_on,0,0,3,,,,,,,,,2,,,57,75
1501440,note_on,0,0,1,,,,,,,,,0,,,76,62
1501440,note_on,240,0,1,,,,,,,,,0,,,74,0
1501440,note_on,0,0,2,,,,,,,,,1,,,64,75
1501680,note_on,0,0,1,,,,,,,,,0,,,77,62
1501680,note_on,240,0,1,,,,,,,,,0,,,76,0
1501920,note_on,480,0,2,,,,,,,,,1,,,64,0
1501920,note_on,480,0,3,,,,,,,,,2,,,57,0
1501920,note_on,0,0,3,,,,,,,,,2,,,54,75
1501920,note_on,960,0,4,,,,,,,,,3,,,45,0
1501920,note_on,0,0,4,,,,,,,,,3,,,38,62
1501920,note_on,0,0,2,,,,,,,,,1,,,62,75
1501920,note_on,240,0,1,,,,,,,,,0,,,77,0
1501920,note_on,0,0,1,,,,,,,,,0,,,78,62
1502160,note_on,240,0,1,,,,,,,,,0,,,78,0
1502160,note_on,0,0,1,,,,,,,,,0,,,80,62
1502400,note_on,240,0,1,,,,,,,,,0,,,80,0
1502400,note_on,0,0,1,,,,,,,,,0,,,81,62
1502400,note_on,0,0,3,,,,,,,,,2,,,50,75
1502400,control_change,0,0,2,,,,,,,,,1,64,0,,
1502400,control_change,0,0,3,,,,,,,,,2,64,0,,
1502400,note_on,480,0,3,,,,,,,,,2,,,54,0
1502400,note_on,0,0,2,,,,,,,,,1,,,59,75
1502400,note_on,480,0,2,,,,,,,,,1,,,62,0
1502640,note_on,240,0,1,,,,,,,,,0,,,81,0
1502640,note_on,0,0,1,,,,,,,,,0,,,83,62
1502880,control_change,0,0,2,,,,,,,,,1,64,127,,
1502880,note_on,480,0,2,,,,,,,,,1,,,59,0
1502880,note_on,0,0,3,,,,,,,,,2,,,49,75
1502880,note_on,0,0,3,,,,,,,,,2,,,52,75
1502880,note_on,0,0,2,,,,,,,,,1,,,57,75
1502880,note_on,480,0,3,,,,,,,,,2,,,50,0
1502880,note_on,0,0,1,,,,,,,,,0,,,85,62
1502880,note_on,960,0,4,,,,,,,,,3,,,38,0
1502880,note_on,0,0,4,,,,,,,,,3,,,40,62
1502880,note_on,240,0,1,,,,,,,,,0,,,83,0
1503120,note_on,0,0,1,,,,,,,,,0,,,86,62
1503120,note_on,240,0,1,,,,,,,,,0,,,85,0
1503360,note_on,0,0,1,,,,,,,,,0,,,87,62
1503360,note_on,240,0,1,,,,,,,,,0,,,86,0
1503600,note_on,0,0,1,,,,,,,,,0,,,88,62
1503600,note_on,240,0,1,,,,,,,,,0,,,87,0
1503840,note_on,960,0,3,,,,,,,,,2,,,52,0
1503840,note_on,0,0,3,,,,,,,,,2,,,49,0
1503840,note_on,0,0,3,,,,,,,,,2,,,50,75
1503840,note_on,0,0,3,,,,,,,,,2,,,52,75
1503840,note_on,0,0,2,,,,,,,,,1,,,61,75
1503840,note_on,960,0,2,,,,,,,,,1,,,57,0
1503840,note_on,0,0,4,,,,,,,,,3,,,40,62
1503840,note_on,960,0,4,,,,,,,,,3,,,40,0
1503840,note_on,240,0,1,,,,,,,,,0,,,88,0
1503840,note_on,0,0,1,,,,,,,,,0,,,89,62
1504080,note_on,240,0,1,,,,,,,,,0,,,89,0
1504080,note_on,0,0,1,,,,,,,,,0,,,90,62
1504320,note_on,480,0,2,,,,,,,,,1,,,61,0
1504320,control_change,0,0,2,,,,,,,,,1,64,0,,
1504320,note_on,0,0,2,,,,,,,,,1,,,59,75
1504320,note_on,240,0,1,,,,,,,,,0,,,90,0
1504320,note_on,0,0,1,,,,,,,,,0,,,91,62
1504560,note_on,0,0,1,,,,,,,,,0,,,92,62
1504560,note_on,240,0,1,,,,,,,,,0,,,91,0
1504800,note_on,240,0,1,,,,,,,,,0,,,92,0
1504800,note_on,480,0,2,,,,,,,,,1,,,59,0
1504800,note_on,0,0,2,,,,,,,,,1,,,57,75
1504800,note_on,0,0,4,,,,,,,,,3,,,45,62
1504800,note_on,960,0,4,,,,,,,,,3,,,40,0
1504800,note_on,0,0,3,,,,,,,,,2,,,52,75
1504800,note_on,0,0,1,,,,,,,,,0,,,93,62
1504800,note_on,0,0,3,,,,,,,,,2,,,50,0
1504800,note_on,960,0,3,,,,,,,,,2,,,52,0
1504800,note_on,0,0,3,,,,,,,,,2,,,49,75
1505280,note_on,480,0,3,,,,,,,,,2,,,52,0
1505280,note_on,0,0,3,,,,,,,,,2,,,49,0
1505280,note_on,0,0,1,,,,,,,,,0,,,73,62
1505280,note_on,480,0,1,,,,,,,,,0,,,93,0
1505280,note_on,480,0,2,,,,,,,,,1,,,57,0
1505520,note_on,240,0,1,,,,,,,,,0,,,73,0
1505520,note_on,0,0,1,,,,,,,,,0,,,74,62
1505760,note_on,240,0,1,,,,,,,,,0,,,74,0
1505760,note_on,0,0,1,,,,,,,,,0,,,76,62
1506000,note_on,240,0,1,,,,,,,,,0,,,76,0
1506000,note_on,0,0,1,,,,,,,,,0,,,78,62
1506240,note_on,960,0,2,,,,,,,,,1,,,76,75
1506240,note_on,0,0,1,,,,,,,,,0,,,80,62
1506240,note_on,1440,0,4,,,,,,,,,3,,,45,0
1506240,note_on,0,0,4,,,,,,,,,3,,,49,62
1506240,note_on,240,0,1,,,,,,,,,0,,,78,0
1506287,note_on,47,0,2,,,,,,,,,1,,,76,0
1506480,note_on,240,0,1,,,,,,,,,0,,,80,0
1506480,note_on,0,0,1,,,,,,,,,0,,,81,62
1506720,note_on,0,0,1,,,,,,,,,0,,,83,62
1506720,note_on,1440,0,3,,,,,,,,,2,,,64,75
1506720,note_on,0,0,4,,,,,,,,,3,,,45,62
1506720,note_on,480,0,4,,,,,,,,,3,,,49,0
1506720,note_on,240,0,1,,,,,,,,,0,,,81,0
1506720,note_on,433,0,2,,,,,,,,,1,,,76,101
1506960,note_on,0,0,1,,,,,,,,,0,,,85,62
1506960,note_on,240,0,1,,,,,,,,,0,,,83,0
1507200,note_on,480,0,4,,,,,,,,,3,,,45,0
1507200,note_on,0,0,4,,,,,,,,,3,,,44,62
1507200,note_on,240,0,1,,,,,,,,,0,,,85,0
1507200,note_on,0,0,1,,,,,,,,,0,,,83,62
1507440,note_on,240,0,1,,,,,,,,,0,,,83,0
1507440,note_on,0,0,1,,,,,,,,,0,,,82,62
1507680,note_on,240,0,1,,,,,,,,,0,,,82,0
1507680,note_on,480,0,4,,,,,,,,,3,,,44,0
1507680,note_on,0,0,1,,,,,,,,,0,,,83,62
1507680,note_on,960,0,2,,,,,,,,,1,,,76,0
1507920,note_on,240,0,1,,,,,,,,,0,,,83,0
1507920,note_on,0,0,1,,,,,,,,,0,,,80,62
1508160,note_on,1440,0,3,,,,,,,,,2,,,64,0
1508160,note_on,0,0,3,,,,,,,,,2,,,66,75
1508160,note_on,240,0,1,,,,,,,,,0,,,80,0
1508160,note_on,0,0,1,,,,,,,,,0,,,76,62
1508400,note_on,0,0,1,,,,,,,,,0,,,74,62
1508400,note_on,240,0,1,,,,,,,,,0,,,76,0
1508640,note_on,240,0,1,,,,,,,,,0,,,74,0
1508640,note_on,0,0,1,,,,,,,,,0,,,73,62
1508640,note_on,960,0,4,,,,,,,,,3,,,45,62
1508640,note_on,480,0,3,,,,,,,,,2,,,66,0
1508640,note_on,0,0,3,,,,,,,,,2,,,66,101
1508880,note_on,240,0,1,,,,,,,,,0,,,73,0
1508880,note_on,0,0,1,,,,,,,,,0,,,74,62
1509120,note_on,0,0,1,,,,,,,,,0,,,76,62
1509120,note_on,0,0,3,,,,,,,,,2,,,64,75
1509120,note_on,480,0,3,,,,,,,,,2,,,66,0
1509120,note_on,240,0,1,,,,,,,,,0,,,74,0
1509360,note_on,0,0,1,,,,,,,,,0,,,78,62
1509360,note_on,240,0,1,,,,,,,,,0,,,76,0
1509600,note_on,240,0,1,,,,,,,,,0,,,78,0
1509600,note_on,0,0,1,,,,,,,,,0,,,76,62
1509600,note_on,480,0,3,,,,,,,,,2,,,64,0
1509840,note_on,240,0,1,,,,,,,,,0,,,76,0
1509840,note_on,0,0,1,,,,,,,,,0,,,78,62
1510080,note_on,2400,0,2,,,,,,,,,1,,,76,75
1510080,note_on,1440,0,4,,,,,,,,,3,,,45,0
1510080,note_on,0,0,4,,,,,,,,,3,,,49,62
1510080,note_on,240,0,1,,,,,,,,,0,,,78,0
1510080,note_on,0,0,1,,,,,,,,,0,,,80,62
1510127,note_on,47,0,2,,,,,,,,,1,,,76,0
1510320,note_on,0,0,1,,,,,,,,,0,,,81,62
1510320,note_on,240,0,1,,,,,,,,,0,,,80,0
1510560,note_on,0,0,4,,,,,,,,,3,,,45,62
1510560,note_on,433,0,2,,,,,,,,,1,,,76,101
1510560,note_on,960,0,3,,,,,,,,,2,,,64,75
1510560,note_on,0,0,1,,,,,,,,,0,,,83,62
1510560,note_on,480,0,4,,,,,,,,,3,,,49,0
1510560,note_on,240,0,1,,,,,,,,,0,,,81,0
1510800,note_on,240,0,1,,,,,,,,,0,,,83,0
1510800,note_on,0,0,1,,,,,,,,,0,,,85,62
1511040,note_on,240,0,1,,,,,,,,,0,,,85,0
1511040,note_on,0,0,1,,,,,,,,,0,,,83,62
1511040,note_on,0,0,4,,,,,,,,,3,,,44,62
1511040,note_on,480,0,4,,,,,,,,,3,,,45,0
1511280,note_on,240,0,1,,,,,,,,,0,,,83,0
1511280,note_on,0,0,1,,,,,,,,,0,,,82,62
1511520,note_on,480,0,4,,,,,,,,,3,,,44,0
1511520,note_on,960,0,2,,,,,,,,,1,,,76,0
1511520,note_on,0,0,1,,,,,,,,,0,,,83,62
1511520,note_on,240,0,1,,,,,,,,,0,,,82,0
1511760,note_on,240,0,1,,,,,,,,,0,,,83,0
1511760,note_on,0,0,1,,,,,,,,,0,,,80,62
1512000,note_on,0,0,1,,,,,,,,,0,,,76,62
1512000,note_on,0,0,3,,,,,,,,,2,,,66,75
1512000,note_on,1440,0,3,,,,,,,,,2,,,64,0
1512000,note_on,240,0,1,,,,,,,,,0,,,80,0
1512240,note_on,240,0,1,,,,,,,,,0,,,76,0
1512240,note_on,0,0,1,,,,,,,,,0,,,74,62
1512480,note_on,0,0,3,,,,,,,,,2,,,66,75
1512480,note_on,480,0,3,,,,,,,,,2,,,66,0
1512480,note_on,960,0,4,,,,,,,,,3,,,45,62
1512480,note_on,240,0,1,,,,,,,,,0,,,74,0
1512480,note_on,0,0,1,,,,,,,,,0,,,73,62
1512720,note_on,0,0,1,,,,,,,,,0,,,74,62
1512720,note_on,240,0,1,,,,,,,,,0,,,73,0
1512960,note_on,0,0,3,,,,,,,,,2,,,66,75
1512960,note_on,240,0,1,,,,,,,,,0,,,74,0
1512960,note_on,480,0,3,,,,,,,,,2,,,66,0
1512960,note_on,0,0,1,,,,,,,,,0,,,75,62
1512960,note_on,0,0,2,,,,,,,,,1,,,73,75
1512960,control_change,1440,0,2,,,,,,,,,1,64,127,,
1513200,note_on,240,0,1,,,,,,,,,0,,,75,0
1513200,note_on,0,0,1,,,,,,,,,0,,,76,62
1513440,note_on,0,0,3,,,,,,,,,2,,,66,75
1513440,note_on,480,0,3,,,,,,,,,2,,,66,0
1513440,note_on,240,0,1,,,,,,,,,0,,,76,0
1513440,note_on,480,0,2,,,,,,,,,1,,,73,0
1513440,note_on,0,0,4,,,,,,,,,3,,,50,62
1513440,note_on,0,0,2,,,,,,,,,1,,,74,75
1513440,note_on,0,0,1,,,,,,,,,0,,,78,62
1513440,note_on,960,0,4,,,,,,,,,3,,,45,0
1513680,note_on,240,0,1,,,,,,,,,0,,,78,0
1513680,note_on,0,0,1,,,,,,,,,0,,,80,62
1513920,note_on,240,0,1,,,,,,,,,0,,,80,0
1513920,note_on,0,0,1,,,,,,,,,0,,,81,62
1513920,note_on,480,0,2,,,,,,,,,1,,,74,0
1513920,control_change,0,0,2,,,,,,,,,1,64,0,,
1513920,note_on,0,0,2,,,,,,,,,1,,,71,75
1513920,note_on,0,0,3,,,,,,,,,2,,,62,75
1513920,note_on,480,0,3,,,,,,,,,2,,,66,0
1514160,note_on,0,0,1,,,,,,,,,0,,,83,62
1514160,note_on,240,0,1,,,,,,,,,0,,,81,0
1514400,note_on,960,0,4,,,,,,,,,3,,,50,0
1514400,note_on,0,0,4,,,,,,,,,3,,,52,62
1514400,note_on,0,0,1,,,,,,,,,0,,,85,62
1514400,note_on,480,0,3,,,,,,,,,2,,,62,0
1514400,note_on,0,0,2,,,,,,,,,1,,,69,75
1514400,note_on,480,0,2,,,,,,,,,1,,,71,0
1514400,control_change,0,0,2,,,,,,,,,1,64,127,,
1514400,note_on,0,0,3,,,,,,,,,2,,,61,75
1514400,note_on,240,0,1,,,,,,,,,0,,,83,0
1514640,note_on,0,0,1,,,,,,,,,0,,,86,62
1514640,note_on,240,0,1,,,,,,,,,0,,,85,0
1514880,note_on,240,0,1,,,,,,,,,0,,,86,0
1514880,note_on,0,0,1,,,,,,,,,0,,,87,62
1515120,note_on,240,0,1,,,,,,,,,0,,,87,0
1515120,note_on,0,0,1,,,,,,,,,0,,,88,62
1515360,note_on,0,0,3,,,,,,,,,2,,,64,75
1515360,note_on,0,0,1,,,,,,,,,0,,,89,62
1515360,note_on,240,0,1,,,,,,,,,0,,,88,0
1515360,note_on,0,0,4,,,,,,,,,3,,,52,62
1515360,note_on,960,0,3,,,,,,,,,2,,,61,0
1515360,note_on,960,0,4,,,,,,,,,3,,,52,0
1515360,note_on,960,0,2,,,,,,,,,1,,,69,0
1515360,note_on,0,0,2,,,,,,,,,1,,,73,75
1515600,note_on,0,0,1,,,,,,,,,0,,,90,62
1515600,note_on,240,0,1,,,,,,,,,0,,,89,0
1515840,note_on,480,0,2,,,,,,,,,1,,,73,0
1515840,note_on,0,0,1,,,,,,,,,0,,,91,62
1515840,note_on,240,0,1,,,,,,,,,0,,,90,0
1515840,note_on,480,0,3,,,,,,,,,2,,,64,0
1515840,note_on,0,0,3,,,,,,,,,2,,,62,75
1515840,note_on,0,0,2,,,,,,,,,1,,,71,75
1515840,control_change,0,0,2,,,,,,,,,1,64,0,,
1516080,note_on,0,0,1,,,,,,,,,0,,,92,62
1516080,note_on,240,0,1,,,,,,,,,0,,,91,0
1516320,note_on,480,0,2,,,,,,,,,1,,,71,0
1516320,note_on,0,0,2,,,,,,,,,1,,,69,88
1516320,note_on,480,0,3,,,,,,,,,2,,,62,0
1516320,note_on,240,0,1,,,,,,,,,0,,,92,0
1516320,note_on,0,0,1,,,,,,,,,0,,,93,88
1516320,note_on,0,0,4,,,,,,,,,3,,,33,88
1516320,note_on,960,0,4,,,,,,,,,3,,,52,0
1516320,note_on,0,0,3,,,,,,,,,2,,,45,88
1516800,control_change,0,0,2,,,,,,,,,1,64,127,,
1516800,note_on,0,0,2,,,,,,,,,1,,,57,88
1516800,note_on,480,0,2,,,,,,,,,1,,,69,0
1516800,note_on,480,0,1,,,,,,,,,0,,,93,0
1517040,note_on,0,0,2,,,,,,,,,1,,,59,88
1517040,note_on,240,0,2,,,,,,,,,1,,,57,0
1517280,note_on,0,0,2,,,,,,,,,1,,,61,88
1517280,note_on,240,0,2,,,,,,,,,1,,,59,0
1517520,note_on,0,0,2,,,,,,,,,1,,,62,88
1517520,note_on,240,0,2,,,,,,,,,1,,,61,0
1517760,note_on,0,0,3,,,,,,,,,2,,,49,88
1517760,note_on,240,0,2,,,,,,,,,1,,,62,0
1517760,note_on,0,0,2,,,,,,,,,1,,,64,88
1517760,note_on,0,0,4,,,,,,,,,3,,,37,88
1517760,note_on,1440,0,4,,,,,,,,,3,,,33,0
1517760,note_on,1440,0,3,,,,,,,,,2,,,45,0
1517807,note_on,47,0,4,,,,,,,,,3,,,37,0
1517807,note_on,47,0,3,,,,,,,,,2,,,49,0
1518000,note_on,0,0,2,,,,,,,,,1,,,61,88
1518000,note_on,240,0,2,,,,,,,,,1,,,64,0
1518240,note_on,0,0,2,,,,,,,,,1,,,58,88
1518240,control_change,0,0,2,,,,,,,,,1,64,0,,
1518240,note_on,240,0,2,,,,,,,,,1,,,61,0
1518240,note_on,433,0,3,,,,,,,,,2,,,43,114
1518240,note_on,433,0,4,,,,,,,,,3,,,31,114
1518480,note_on,240,0,2,,,,,,,,,1,,,58,0
1518720,note_on,480,0,3,,,,,,,,,2,,,43,0
1518720,note_on,0,0,2,,,,,,,,,1,,,61,88
1518720,note_on,0,0,2,,,,,,,,,1,,,66,88
1518720,note_on,0,0,1,,,,,,,,,0,,,78,88
1518720,note_on,0,0,1,,,,,,,,,0,,,73,88
1518720,note_on,1920,0,1,,,,,,,,,0,,,70,88
1518720,note_on,240,0,2,,,,,,,,,1,,,58,88
1518720,note_on,0,0,3,,,,,,,,,2,,,42,88
1518720,note_on,480,0,4,,,,,,,,,3,,,31,0
1518720,note_on,0,0,4,,,,,,,,,3,,,30,88
1518767,note_on,0,0,2,,,,,,,,,1,,,61,0
1518767,note_on,0,0,2,,,,,,,,,1,,,58,0
1518767,note_on,0,0,1,,,,,,,,,0,,,70,0
1518767,note_on,47,0,2,,,,,,,,,1,,,66,0
1518767,note_on,47,0,1,,,,,,,,,0,,,78,0
1518767,note_on,0,0,1,,,,,,,,,0,,,73,0
1519200,note_on,0,0,2,,,,,,,,,1,,,70,88
1519200,note_on,0,0,2,,,,,,,,,1,,,66,88
1519200,note_on,433,0,2,,,,,,,,,1,,,61,88
1519200,note_on,480,0,3,,,,,,,,,2,,,42,0
1519200,note_on,433,0,1,,,,,,,,,0,,,73,88
1519200,note_on,480,0,4,,,,,,,,,3,,,30,0
1519200,note_on,0,0,1,,,,,,,,,0,,,78,88
1519200,note_on,0,0,1,,,,,,,,,0,,,82,88
1519247,note_on,47,0,1,,,,,,,,,0,,,82,0
1519247,note_on,0,0,2,,,,,,,,,1,,,61,0
1519247,note_on,0,0,2,,,,,,,,,1,,,66,0
1519247,note_on,47,0,2,,,,,,,,,1,,,70,0
1519247,note_on,0,0,1,,,,,,,,,0,,,73,0
1519247,note_on,0,0,1,,,,,,,,,0,,,78,0
1519680,note_on,433,0,2,,,,,,,,,1,,,66,88
1519680,note_on,433,0,1,,,,,,,,,0,,,78,88
1519680,note_on,0,0,1,,,,,,,,,0,,,82,88
1519680,note_on,0,0,1,,,,,,,,,0,,,85,88
1519680,note_on,0,0,2,,,,,,,,,1,,,73,88
1519680,note_on,0,0,2,,,,,,,,,1,,,70,88
1519727,note_on,47,0,2,,,,,,,,,1,,,73,0
1519727,note_on,0,0,2,,,,,,,,,1,,,70,0
1519727,note_on,0,0,2,,,,,,,,,1,,,66,0
1519727,note_on,47,0,1,,,,,,,,,0,,,85,0
1519727,note_on,0,0,1,,,,,,,,,0,,,78,0
1519727,note_on,0,0,1,,,,,,,,,0,,,82,0
1520160,note_on,433,0,1,,,,,,,,,0,,,73,114
1520160,note_on,0,0,1,,,,,,,,,0,,,76,114
1520160,note_on,0,0,1,,,,,,,,,0,,,85,114
1520160,note_on,0,0,1,,,,,,,,,0,,,88,114
1520160,note_on,0,0,2,,,,,,,,,1,,,78,88
1520160,note_on,433,0,2,,,,,,,,,1,,,66,88
1520160,note_on,960,0,4,,,,,,,,,3,,,35,88
1520160,note_on,960,0,3,,,,,,,,,2,,,47,88
1520640,note_on,0,0,1,,,,,,,,,0,,,73,0
1520640,note_on,0,0,1,,,,,,,,,0,,,85,0
1520640,note_on,0,0,1,,,,,,,,,0,,,71,88
1520640,note_on,0,0,1,,,,,,,,,0,,,83,88
1520640,note_on,0,0,1,,,,,,,,,0,,,86,88
1520640,note_on,480,0,1,,,,,,,,,0,,,88,0
1520640,note_on,0,0,1,,,,,,,,,0,,,74,88
1520640,note_on,0,0,1,,,,,,,,,0,,,76,0
1521120,control_change,0,0,2,,,,,,,,,1,64,127,,
1521120,note_on,960,0,2,,,,,,,,,1,,,78,0
1521120,note_on,0,0,2,,,,,,,,,1,,,66,0
1521120,note_on,0,0,2,,,,,,,,,1,,,59,88
1521120,note_on,0,0,1,,,,,,,,,0,,,83,0
1521120,note_on,0,0,1,,,,,,,,,0,,,74,0
1521120,note_on,0,0,1,,,,,,,,,0,,,71,0
1521120,note_on,480,0,1,,,,,,,,,0,,,86,0
1521360,note_on,240,0,2,,,,,,,,,1,,,59,0
1521360,note_on,0,0,2,,,,,,,,,1,,,61,88
1521600,note_on,240,0,2,,,,,,,,,1,,,61,0
1521600,note_on,0,0,2,,,,,,,,,1,,,59,88
1521600,note_on,1440,0,4,,,,,,,,,3,,,35,0
1521600,note_on,0,0,4,,,,,,,,,3,,,38,88
1521600,note_on,1440,0,3,,,,,,,,,2,,,47,0
1521600,note_on,0,0,3,,,,,,,,,2,,,50,88
1521647,note_on,47,0,3,,,,,,,,,2,,,50,0
1521647,note_on,47,0,4,,,,,,,,,3,,,38,0
1521840,control_change,0,0,2,,,,,,,,,1,64,0,,
1521840,note_on,240,0,2,,,,,,,,,1,,,59,0
1521840,note_on,0,0,2,,,,,,,,,1,,,57,88
1522080,note_on,240,0,2,,,,,,,,,1,,,57,0
1522080,note_on,0,0,2,,,,,,,,,1,,,56,88
1522080,note_on,433,0,3,,,,,,,,,2,,,53,114
1522080,note_on,433,0,4,,,,,,,,,3,,,41,114
1522560,note_on,480,0,2,,,,,,,,,1,,,56,0
1522560,note_on,0,0,2,,,,,,,,,1,,,56,88
1522560,note_on,0,0,3,,,,,,,,,2,,,52,88
1522560,note_on,480,0,3,,,,,,,,,2,,,53,0
1522560,note_on,0,0,2,,,,,,,,,1,,,59,88
1522560,note_on,0,0,2,,,,,,,,,1,,,64,88
1522560,note_on,480,0,4,,,,,,,,,3,,,41,0
1522560,note_on,0,0,4,,,,,,,,,3,,,40,88
1522560,note_on,1440,0,1,,,,,,,,,0,,,68,88
1522560,note_on,0,0,1,,,,,,,,,0,,,71,88
1522560,note_on,0,0,1,,,,,,,,,0,,,76,88
1522607,note_on,47,0,2,,,,,,,,,1,,,64,0
1522607,note_on,0,0,2,,,,,,,,,1,,,59,0
1522607,note_on,0,0,2,,,,,,,,,1,,,56,0
1522607,note_on,47,0,1,,,,,,,,,0,,,76,0
1522607,note_on,0,0,1,,,,,,,,,0,,,68,0
1522607,note_on,0,0,1,,,,,,,,,0,,,71,0
1523040,note_on,0,0,1,,,,,,,,,0,,,76,88
1523040,note_on,480,0,4,,,,,,,,,3,,,40,0
1523040,note_on,480,0,3,,,,,,,,,2,,,52,0
1523040,note_on,0,0,1,,,,,,,,,0,,,80,88
1523040,note_on,433,0,2,,,,,,,,,1,,,59,88
1523040,note_on,0,0,2,,,,,,,,,1,,,68,88
1523040,note_on,433,0,1,,,,,,,,,0,,,71,88
1523040,note_on,0,0,2,,,,,,,,,1,,,64,88
1523087,note_on,47,0,2,,,,,,,,,1,,,68,0
1523087,note_on,0,0,2,,,,,,,,,1,,,64,0
1523087,note_on,0,0,2,,,,,,,,,1,,,59,0
1523087,note_on,0,0,1,,,,,,,,,0,,,71,0
1523087,note_on,47,0,1,,,,,,,,,0,,,80,0
1523087,note_on,0,0,1,,,,,,,,,0,,,76,0
1523520,note_on,433,0,2,,,,,,,,,1,,,64,88
1523520,note_on,0,0,1,,,,,,,,,0,,,83,88
1523520,note_on,0,0,1,,,,,,,,,0,,,80,88
1523520,note_on,433,0,1,,,,,,,,,0,,,76,88
1523520,note_on,0,0,2,,,,,,,,,1,,,68,88
1523520,note_on,0,0,2,,,,,,,,,1,,,71,88
1523567,note_on,47,0,2,,,,,,,,,1,,,71,0
1523567,note_on,0,0,1,,,,,,,,,0,,,76,0
1523567,note_on,0,0,2,,,,,,,,,1,,,68,0
1523567,note_on,0,0,1,,,,,,,,,0,,,80,0
1523567,note_on,47,0,1,,,,,,,,,0,,,83,0
1523567,note_on,0,0,2,,,,,,,,,1,,,64,0
1524000,note_on,0,0,2,,,,,,,,,1,,,76,88
1524000,note_on,0,0,1,,,,,,,,,0,,,86,114
1524000,note_on,0,0,1,,,,,,,,,0,,,83,114
1524000,note_on,0,0,1,,,,,,,,,0,,,74,114
1524000,note_on,433,0,1,,,,,,,,,0,,,71,114
1524000,note_on,433,0,2,,,,,,,,,1,,,64,88
1524480,note_on,480,0,1,,,,,,,,,0,,,86,0
1524480,note_on,0,0,1,,,,,,,,,0,,,71,0
1524480,note_on,0,0,1,,,,,,,,,0,,,74,0
1524480,note_on,0,0,1,,,,,,,,,0,,,69,88
1524480,note_on,0,0,1,,,,,,,,,0,,,83,0
1524480,note_on,0,0,1,,,,,,,,,0,,,85,88
1524480,note_on,1440,0,3,,,,,,,,,2,,,57,88
1524480,note_on,0,0,1,,,,,,,,,0,,,73,88
1524480,note_on,1440,0,4,,,,,,,,,3,,,45,88
1524480,note_on,0,0,1,,,,,,,,,0,,,81,88
1524527,note_on,47,0,4,,,,,,,,,3,,,45,0
1524527,note_on,47,0,3,,,,,,,,,2,,,57,0
1524960,note_on,433,0,3,,,,,,,,,2,,,60,114
1524960,note_on,433,0,4,,,,,,,,,3,,,48,114
1524960,note_on,480,0,1,,,,,,,,,0,,,85,0
1524960,note_on,0,0,1,,,,,,,,,0,,,69,0
1524960,note_on,0,0,2,,,,,,,,,1,,,76,88
1524960,note_on,0,0,2,,,,,,,,,1,,,64,0
1524960,note_on,960,0,2,,,,,,,,,1,,,76,0
1524960,note_on,0,0,1,,,,,,,,,0,,,73,0
1524960,note_on,0,0,1,,,,,,,,,0,,,81,0
1524960,note_on,0,0,1,,,,,,,,,0,,,68,114
1524960,note_on,0,0,1,,,,,,,,,0,,,80,114
1524960,note_on,0,0,2,,,,,,,,,1,,,64,88
1525440,note_on,480,0,4,,,,,,,,,3,,,48,0
1525440,note_on,0,0,4,,,,,,,,,3,,,49,88
1525440,note_on,0,0,1,,,,,,,,,0,,,81,88
1525440,note_on,0,0,1,,,,,,,,,0,,,68,0
1525440,note_on,480,0,1,,,,,,,,,0,,,80,0
1525440,note_on,480,0,3,,,,,,,,,2,,,60,0
1525440,note_on,0,0,3,,,,,,,,,2,,,61,88
1525440,note_on,0,0,1,,,,,,,,,0,,,69,88
1525920,note_on,0,0,4,,,,,,,,,3,,,37,114
1525920,note_on,480,0,4,,,,,,,,,3,,,49,0
1525920,note_on,0,0,1,,,,,,,,,0,,,77,114
1525920,note_on,480,0,3,,,,,,,,,2,,,61,0
1525920,note_on,0,0,4,,,,,,,,,3,,,49,114
1525920,note_on,960,0,2,,,,,,,,,1,,,76,0
1525920,note_on,0,0,2,,,,,,,,,1,,,64,0
1525920,note_on,0,0,2,,,,,,,,,1,,,69,88
1525920,note_on,0,0,1,,,,,,,,,0,,,65,114
1525920,note_on,0,0,1,,,,,,,,,0,,,69,0
1525920,note_on,480,0,1,,,,,,,,,0,,,81,0
1525920,note_on,0,0,3,,,,,,,,,2,,,57,88
1526400,note_on,0,0,4,,,,,,,,,3,,,50,88
1526400,note_on,0,0,4,,,,,,,,,3,,,38,88
1526400,note_on,0,0,4,,,,,,,,,3,,,37,0
1526400,note_on,480,0,4,,,,,,,,,3,,,49,0
1526400,note_on,0,0,1,,,,,,,,,0,,,78,88
1526400,note_on,480,0,1,,,,,,,,,0,,,77,0
1526400,note_on,0,0,1,,,,,,,,,0,,,66,88
1526400,note_on,0,0,1,,,,,,,,,0,,,65,0
1526880,note_on,0,0,4,,,,,,,,,3,,,53,114
1526880,note_on,480,0,1,,,,,,,,,0,,,78,0
1526880,note_on,0,0,1,,,,,,,,,0,,,66,0
1526880,note_on,0,0,1,,,,,,,,,0,,,61,114
1526880,note_on,0,0,1,,,,,,,,,0,,,73,114
1526880,note_on,960,0,3,,,,,,,,,2,,,57,0
1526880,note_on,0,0,4,,,,,,,,,3,,,41,114
1526880,note_on,0,0,2,,,,,,,,,1,,,69,88
1526880,note_on,0,0,4,,,,,,,,,3,,,38,0
1526880,note_on,480,0,4,,,,,,,,,3,,,50,0
1526880,note_on,960,0,2,,,,,,,,,1,,,69,0
1526880,note_on,0,0,3,,,,,,,,,2,,,57,88
1527360,note_on,0,0,1,,,,,,,,,0,,,62,88
1527360,note_on,0,0,1,,,,,,,,,0,,,61,0
1527360,note_on,480,0,4,,,,,,,,,3,,,53,0
1527360,note_on,0,0,1,,,,,,,,,0,,,74,88
1527360,note_on,0,0,4,,,,,,,,,3,,,41,0
1527360,note_on,0,0,4,,,,,,,,,3,,,42,88
1527360,note_on,0,0,4,,,,,,,,,3,,,54,88
1527360,note_on,480,0,1,,,,,,,,,0,,,73,0
1527840,note_on,960,0,2,,,,,,,,,1,,,69,0
1527840,control_change,0,0,1,,,,,,,,,0,64,127,,
1527840,note_on,0,0,1,,,,,,,,,0,,,76,88
1527840,note_on,480,0,4,,,,,,,,,3,,,54,0
1527840,note_on,0,0,1,,,,,,,,,0,,,62,0
1527840,note_on,0,0,2,,,,,,,,,1,,,64,88
1527840,note_on,960,0,3,,,,,,,,,2,,,57,0
1527840,note_on,0,0,3,,,,,,,,,2,,,55,88
1527840,note_on,0,0,3,,,,,,,,,2,,,57,88
1527840,note_on,0,0,4,,,,,,,,,3,,,42,0
1527840,note_on,0,0,2,,,,,,,,,1,,,69,88
1527840,note_on,480,0,1,,,,,,,,,0,,,74,0
1527840,note_on,0,0,4,,,,,,,,,3,,,43,88
1528560,note_on,0,0,1,,,,,,,,,0,,,78,88
1528560,note_on,720,0,1,,,,,,,,,0,,,76,0
1528800,note_on,0,0,1,,,,,,,,,0,,,76,88
1528800,note_on,240,0,1,,,,,,,,,0,,,78,0
1528800,note_on,0,0,2,,,,,,,,,1,,,62,75
1528800,note_on,0,0,2,,,,,,,,,1,,,64,0
1528800,note_on,960,0,2,,,,,,,,,1,,,69,0
1529040,note_on,0,0,1,,,,,,,,,0,,,74,75
1529040,note_on,240,0,1,,,,,,,,,0,,,76,0
1529280,note_on,0,0,4,,,,,,,,,3,,,42,62
1529280,note_on,480,0,2,,,,,,,,,1,,,62,0
1529280,note_on,1440,0,4,,,,,,,,,3,,,43,0
1529280,note_on,0,0,3,,,,,,,,,2,,,55,0
1529280,note_on,1440,0,3,,,,,,,,,2,,,57,0
1529280,note_on,0,0,1,,,,,,,,,0,,,73,75
1529280,note_on,240,0,1,,,,,,,,,0,,,74,0
1529280,note_on,0,0,3,,,,,,,,,2,,,54,62
1529520,note_on,240,0,1,,,,,,,,,0,,,73,0
1529520,control_change,0,0,1,,,,,,,,,0,64,0,,
1529520,note_on,0,0,1,,,,,,,,,0,,,71,62
1529700,note_on,180,0,1,,,,,,,,,0,,,71,62
1529760,note_on,0,0,2,,,,,,,,,1,,,61,62
1529760,note_on,60,0,1,,,,,,,,,0,,,71,0
1529760,note_on,0,0,1,,,,,,,,,0,,,71,0
1529760,note_on,0,0,1,,,,,,,,,0,,,69,62
1529760,note_on,0,0,3,,,,,,,,,2,,,57,62
1529760,note_on,480,0,4,,,,,,,,,3,,,42,0
1529760,control_change,480,0,2,,,,,,,,,1,64,127,,
1529760,note_on,0,0,3,,,,,,,,,2,,,52,62
1529760,note_on,480,0,3,,,,,,,,,2,,,54,0
1529760,note_on,0,0,4,,,,,,,,,3,,,40,62
1529807,note_on,0,0,3,,,,,,,,,2,,,52,0
1529807,note_on,47,0,3,,,,,,,,,2,,,57,0
1529807,note_on,47,0,1,,,,,,,,,0,,,69,0
1529807,note_on,47,0,4,,,,,,,,,3,,,40,0
1530000,note_on,240,0,2,,,,,,,,,1,,,61,0
1530000,note_on,0,0,2,,,,,,,,,1,,,64,62
1530240,note_on,433,0,4,,,,,,,,,3,,,40,62
1530240,note_on,240,0,2,,,,,,,,,1,,,64,0
1530240,note_on,433,0,1,,,,,,,,,0,,,69,62
1530240,note_on,433,0,3,,,,,,,,,2,,,52,62
1530240,note_on,0,0,3,,,,,,,,,2,,,57,62
1530240,note_on,0,0,2,,,,,,,,,1,,,61,62
1530287,note_on,47,0,4,,,,,,,,,3,,,40,0
1530287,note_on,0,0,3,,,,,,,,,2,,,52,0
1530287,note_on,47,0,3,,,,,,,,,2,,,57,0
1530287,note_on,47,0,1,,,,,,,,,0,,,69,0
1530480,note_on,0,0,2,,,,,,,,,1,,,64,62
1530480,note_on,240,0,2,,,,,,,,,1,,,61,0
1530660,note_on,373,0,1,,,,,,,,,0,,,69,62
1530720,note_on,0,0,2,,,,,,,,,1,,,62,62
1530720,note_on,240,0,2,,,,,,,,,1,,,64,0
1530720,note_on,433,0,3,,,,,,,,,2,,,52,62
1530720,note_on,433,0,4,,,,,,,,,3,,,40,62
1530720,note_on,0,0,1,,,,,,,,,0,,,68,62
1530720,note_on,0,0,3,,,,,,,,,2,,,59,62
1530720,note_on,60,0,1,,,,,,,,,0,,,69,0
1530767,note_on,47,0,4,,,,,,,,,3,,,40,0
1530767,note_on,47,0,1,,,,,,,,,0,,,68,0
1530767,note_on,47,0,3,,,,,,,,,2,,,59,0
1530767,note_on,0,0,3,,,,,,,,,2,,,52,0
1530960,note_on,240,0,2,,,,,,,,,1,,,62,0
1530960,note_on,0,0,2,,,,,,,,,1,,,64,62
1531200,note_on,433,0,4,,,,,,,,,3,,,40,62
1531200,note_on,433,0,1,,,,,,,,,0,,,68,62
1531200,note_on,433,0,3,,,,,,,,,2,,,52,62
1531200,note_on,0,0,3,,,,,,,,,2,,,59,62
1531200,note_on,0,0,2,,,,,,,,,1,,,62,62
1531200,note_on,240,0,2,,,,,,,,,1,,,64,0
1531247,note_on,47,0,4,,,,,,,,,3,,,40,0
1531247,note_on,0,0,3,,,,,,,,,2,,,52,0
1531247,note_on,47,0,1,,,,,,,,,0,,,68,0
1531247,note_on,47,0,3,,,,,,,,,2,,,59,0
1531440,note_on,0,0,2,,,,,,,,,1,,,64,62
1531440,note_on,240,0,2,,,,,,,,,1,,,62,0
1531680,note_on,0,0,2,,,,,,,,,1,,,61,88
1531680,control_change,0,0,2,,,,,,,,,1,64,0,,
1531680,note_on,433,0,1,,,,,,,,,0,,,69,88
1531680,note_on,433,0,3,,,,,,,,,2,,,52,88
1531680,note_on,0,0,3,,,,,,,,,2,,,57,88
1531680,note_on,433,0,4,,,,,,,,,3,,,33,88
1531680,note_on,0,0,4,,,,,,,,,3,,,45,88
1531680,note_on,240,0,2,,,,,,,,,1,,,64,0
1532160,note_on,0,0,2,,,,,,,,,1,,,57,88
1532160,control_change,0,0,2,,,,,,,,,1,64,127,,
1532160,note_on,480,0,2,,,,,,,,,1,,,61,0
1532160,note_on,0,0,3,,,,,,,,,2,,,52,0
1532160,note_on,480,0,1,,,,,,,,,0,,,69,0
1532160,note_on,480,0,3,,,,,,,,,2,,,57,0
1532400,note_on,240,0,2,,,,,,,,,1,,,57,0
1532400,note_on,0,0,2,,,,,,,,,1,,,59,88
1532640,note_on,240,0,2,,,,,,,,,1,,,59,0
1532640,note_on,0,0,2,,,,,,,,,1,,,61,88
1532880,note_on,0,0,2,,,,,,,,,1,,,62,88
1532880,note_on,240,0,2,,,,,,,,,1,,,61,0
1533120,note_on,240,0,2,,,,,,,,,1,,,62,0
1533120,note_on,0,0,4,,,,,,,,,3,,,49,88
1533120,note_on,0,0,4,,,,,,,,,3,,,37,88
1533120,note_on,0,0,4,,,,,,,,,3,,,33,0
1533120,note_on,1440,0,4,,,,,,,,,3,,,45,0
1533120,note_on,0,0,2,,,,,,,,,1,,,64,88
1533360,note_on,240,0,2,,,,,,,,,1,,,64,0
1533360,note_on,0,0,2,,,,,,,,,1,,,61,88
1533600,note_on,480,0,4,,,,,,,,,3,,,49,0
1533600,note_on,0,0,4,,,,,,,,,3,,,37,0
1533600,note_on,0,0,4,,,,,,,,,3,,,31,114
1533600,note_on,240,0,2,,,,,,,,,1,,,61,0
1533600,note_on,0,0,2,,,,,,,,,1,,,58,88
1533600,control_change,0,0,2,,,,,,,,,1,64,0,,
1533600,note_on,0,0,4,,,,,,,,,3,,,43,114
1533600,note_on,1440,0,1,,,,,,,,,0,,,82,88
1534080,note_on,0,0,3,,,,,,,,,2,,,54,88
1534080,note_on,1920,0,3,,,,,,,,,2,,,46,88
1534080,note_on,0,0,4,,,,,,,,,3,,,42,88
1534080,note_on,0,0,4,,,,,,,,,3,,,30,88
1534080,note_on,0,0,3,,,,,,,,,2,,,49,88
1534080,note_on,0,0,4,,,,,,,,,3,,,31,0
1534080,note_on,0,0,2,,,,,,,,,1,,,70,88
1534080,note_on,480,0,2,,,,,,,,,1,,,58,0
1534080,note_on,480,0,4,,,,,,,,,3,,,43,0
1534127,note_on,47,0,3,,,,,,,,,2,,,54,0
1534127,note_on,0,0,3,,,,,,,,,2,,,46,0
1534127,note_on,0,0,3,,,,,,,,,2,,,49,0
1534560,note_on,0,0,3,,,,,,,,,2,,,54,88
1534560,note_on,0,0,3,,,,,,,,,2,,,58,88
1534560,note_on,433,0,3,,,,,,,,,2,,,49,88
1534560,note_on,0,0,4,,,,,,,,,3,,,30,0
1534560,note_on,480,0,4,,,,,,,,,3,,,42,0
1534607,note_on,47,0,3,,,,,,,,,2,,,58,0
1534607,note_on,0,0,3,,,,,,,,,2,,,54,0
1534607,note_on,0,0,3,,,,,,,,,2,,,49,0
1535040,note_on,0,0,2,,,,,,,,,1,,,73,88
1535040,note_on,960,0,2,,,,,,,,,1,,,70,0
1535040,note_on,433,0,3,,,,,,,,,2,,,54,88
1535040,note_on,0,0,3,,,,,,,,,2,,,61,88
1535040,note_on,0,0,3,,,,,,,,,2,,,58,88
1535040,note_on,0,0,1,,,,,,,,,0,,,85,88
1535040,note_on,1440,0,1,,,,,,,,,0,,,82,0
1535087,note_on,47,0,3,,,,,,,,,2,,,61,0
1535087,note_on,0,0,3,,,,,,,,,2,,,58,0
1535087,note_on,0,0,3,,,,,,,,,2,,,54,0
1535087,note_on,47,0,2,,,,,,,,,1,,,73,0
1535087,note_on,47,0,1,,,,,,,,,0,,,85,0
1535520,note_on,0,0,3,,,,,,,,,2,,,64,114
1535520,note_on,0,0,3,,,,,,,,,2,,,61,114
1535520,note_on,433,0,3,,,,,,,,,2,,,54,114
1535520,note_on,433,0,2,,,,,,,,,1,,,67,114
1535520,note_on,433,0,1,,,,,,,,,0,,,79,114
1535520,note_on,0,0,4,,,,,,,,,3,,,47,114
1535520,note_on,960,0,4,,,,,,,,,3,,,35,114
1536000,note_on,480,0,2,,,,,,,,,1,,,67,0
1536000,note_on,0,0,2,,,,,,,,,1,,,66,88
1536000,note_on,0,0,1,,,,,,,,,0,,,78,88
1536000,note_on,480,0,1,,,,,,,,,0,,,79,0
1536000,note_on,0,0,3,,,,,,,,,2,,,62,88
1536000,note_on,480,0,3,,,,,,,,,2,,,64,0
1536000,note_on,0,0,3,,,,,,,,,2,,,61,0
1536000,note_on,0,0,3,,,,,,,,,2,,,54,0
1536000,note_on,0,0,3,,,,,,,,,2,,,59,88
1536480,note_on,0,0,3,,,,,,,,,2,,,59,0
1536480,note_on,480,0,1,,,,,,,,,0,,,78,0
1536480,note_on,480,0,2,,,,,,,,,1,,,66,0
1536480,control_change,0,0,2,,,,,,,,,1,64,127,,
1536480,note_on,0,0,2,,,,,,,,,1,,,66,88
1536480,note_on,480,0,3,,,,,,,,,2,,,62,0
1536720,note_on,240,0,2,,,,,,,,,1,,,66,0
1536720,note_on,0,0,2,,,,,,,,,1,,,64,88
1536960,note_on,1440,0,4,,,,,,,,,3,,,47,0
1536960,note_on,0,0,4,,,,,,,,,3,,,35,0
1536960,note_on,240,0,2,,,,,,,,,1,,,64,0
1536960,note_on,0,0,2,,,,,,,,,1,,,62,88
1536960,note_on,0,0,4,,,,,,,,,3,,,38,88
1536960,note_on,0,0,4,,,,,,,,,3,,,50,88
1537200,note_on,0,0,2,,,,,,,,,1,,,61,88
1537200,control_change,0,0,2,,,,,,,,,1,64,0,,
1537200,note_on,240,0,2,,,,,,,,,1,,,62,0
1537440,note_on,0,0,4,,,,,,,,,3,,,33,114
1537440,note_on,480,0,4,,,,,,,,,3,,,50,0
1537440,note_on,0,0,2,,,,,,,,,1,,,60,88
1537440,note_on,240,0,2,,,,,,,,,1,,,61,0
1537440,note_on,960,0,1,,,,,,,,,0,,,84,88
1537440,note_on,0,0,4,,,,,,,,,3,,,38,0
1537440,note_on,0,0,4,,,,,,,,,3,,,45,114
1537920,note_on,0,0,4,,,,,,,,,3,,,33,0
1537920,note_on,0,0,3,,,,,,,,,2,,,56,88
1537920,note_on,0,0,3,,,,,,,,,2,,,51,88
1537920,note_on,1440,0,3,,,,,,,,,2,,,48,88
1537920,note_on,480,0,2,,,,,,,,,1,,,60,0
1537920,note_on,0,0,2,,,,,,,,,1,,,72,88
1537920,note_on,0,0,4,,,,,,,,,3,,,32,88
1537920,note_on,0,0,4,,,,,,,,,3,,,44,88
1537920,note_on,480,0,4,,,,,,,,,3,,,45,0
1537967,note_on,0,0,3,,,,,,,,,2,,,51,0
1537967,note_on,47,0,3,,,,,,,,,2,,,56,0
1537967,note_on,0,0,3,,,,,,,,,2,,,48,0
1538400,note_on,433,0,3,,,,,,,,,2,,,51,88
1538400,note_on,0,0,3,,,,,,,,,2,,,56,88
1538400,note_on,0,0,3,,,,,,,,,2,,,60,88
1538400,note_on,0,0,4,,,,,,,,,3,,,32,0
1538400,note_on,480,0,4,,,,,,,,,3,,,44,0
1538447,note_on,47,0,3,,,,,,,,,2,,,60,0
1538447,note_on,0,0,3,,,,,,,,,2,,,51,0
1538447,note_on,0,0,3,,,,,,,,,2,,,56,0
1538880,note_on,0,0,3,,,,,,,,,2,,,63,88
1538880,note_on,0,0,3,,,,,,,,,2,,,60,88
1538880,note_on,0,0,1,,,,,,,,,0,,,87,88
1538880,note_on,433,0,3,,,,,,,,,2,,,56,88
1538880,note_on,1440,0,1,,,,,,,,,0,,,84,0
1538880,note_on,960,0,2,,,,,,,,,1,,,72,0
1538880,note_on,0,0,2,,,,,,,,,1,,,75,88
1538927,note_on,47,0,1,,,,,,,,,0,,,87,0
1538927,note_on,0,0,3,,,,,,,,,2,,,56,0
1538927,note_on,0,0,3,,,,,,,,,2,,,60,0
1538927,note_on,47,0,3,,,,,,,,,2,,,63,0
1538927,note_on,47,0,2,,,,,,,,,1,,,75,0
1539360,note_on,433,0,2,,,,,,,,,1,,,69,114
1539360,note_on,0,0,3,,,,,,,,,2,,,66,114
1539360,note_on,0,0,3,,,,,,,,,2,,,63,114
1539360,note_on,433,0,3,,,,,,,,,2,,,56,114
1539360,note_on,433,0,1,,,,,,,,,0,,,81,114
1539840,note_on,480,0,3,,,,,,,,,2,,,66,0
1539840,note_on,0,0,3,,,,,,,,,2,,,63,0
1539840,note_on,0,0,3,,,,,,,,,2,,,56,0
1539840,note_on,0,0,3,,,,,,,,,2,,,64,88
1539840,note_on,0,0,4,,,,,,,,,3,,,49,88
1539840,note_on,1440,0,4,,,,,,,,,3,,,37,88
1539840,note_on,480,0,2,,,,,,,,,1,,,69,0
1539840,note_on,0,0,2,,,,,,,,,1,,,68,88
1539840,note_on,0,0,1,,,,,,,,,0,,,80,88
1539840,note_on,480,0,1,,,,,,,,,0,,,81,0
1539887,note_on,47,0,4,,,,,,,,,3,,,49,0
1539887,note_on,0,0,4,,,,,,,,,3,,,37,0
1540320,note_on,433,0,4,,,,,,,,,3,,,40,88
1540320,note_on,0,0,4,,,,,,,,,3,,,52,88
1540320,note_on,480,0,1,,,,,,,,,0,,,80,0
1540320,note_on,480,0,3,,,,,,,,,2,,,64,0
1540320,note_on,480,0,2,,,,,,,,,1,,,68,0
1540367,note_on,0,0,4,,,,,,,,,3,,,40,0
1540367,note_on,47,0,4,,,,,,,,,3,,,52,0
1540800,note_on,433,0,4,,,,,,,,,3,,,44,88
1540800,note_on,480,0,3,,,,,,,,,2,,,56,88
1540847,note_on,47,0,3,,,,,,,,,2,,,56,0
1541280,note_on,480,0,4,,,,,,,,,3,,,44,0
1541280,note_on,0,0,4,,,,,,,,,3,,,50,114
1541280,note_on,433,0,3,,,,,,,,,2,,,62,114
1541760,note_on,480,0,4,,,,,,,,,3,,,50,0
1541760,note_on,0,0,4,,,,,,,,,3,,,49,88
1541760,note_on,0,0,3,,,,,,,,,2,,,61,88
1541760,note_on,480,0,3,,,,,,,,,2,,,62,0
1541760,note_on,0,0,1,,,,,,,,,0,,,73,88
1541760,note_on,1440,0,1,,,,,,,,,0,,,65,88
1541760,note_on,0,0,1,,,,,,,,,0,,,68,88
1541807,note_on,0,0,1,,,,,,,,,0,,,65,0
1541807,note_on,47,0,1,,,,,,,,,0,,,73,0
1541807,note_on,0,0,1,,,,,,,,,0,,,68,0
1542240,note_on,480,0,3,,,,,,,,,2,,,61,0
1542240,note_on,480,0,4,,,,,,,,,3,,,49,0
1542240,note_on,433,0,1,,,,,,,,,0,,,68,88
1542240,note_on,0,0,1,,,,,,,,,0,,,73,88
1542240,note_on,0,0,1,,,,,,,,,0,,,77,88
1542287,note_on,47,0,1,,,,,,,,,0,,,77,0
1542287,note_on,0,0,1,,,,,,,,,0,,,73,0
1542287,note_on,0,0,1,,,,,,,,,0,,,68,0
1542720,note_on,2400,0,2,,,,,,,,,1,,,61,88
1542720,note_on,0,0,2,,,,,,,,,1,,,65,88
1542720,note_on,0,0,1,,,,,,,,,0,,,77,88
1542720,note_on,0,0,1,,,,,,,,,0,,,80,88
1542720,note_on,433,0,1,,,,,,,,,0,,,73,88
1542720,note_on,0,0,2,,,,,,,,,1,,,68,88
1542767,note_on,0,0,2,,,,,,,,,1,,,65,0
1542767,note_on,47,0,2,,,,,,,,,1,,,68,0
1542767,note_on,0,0,2,,,,,,,,,1,,,61,0
1542767,note_on,0,0,1,,,,,,,,,0,,,73,0
1542767,note_on,0,0,1,,,,,,,,,0,,,77,0
1542767,note_on,47,0,1,,,,,,,,,0,,,80,0
1543200,note_on,0,0,1,,,,,,,,,0,,,80,114
1543200,note_on,0,0,1,,,,,,,,,0,,,83,114
1543200,note_on,433,0,1,,,,,,,,,0,,,68,114
1543200,note_on,433,0,2,,,,,,,,,1,,,61,88
1543200,note_on,0,0,2,,,,,,,,,1,,,73,88
1543200,note_on,0,0,1,,,,,,,,,0,,,71,114
1543680,note_on,0,0,1,,,,,,,,,0,,,78,88
1543680,note_on,0,0,1,,,,,,,,,0,,,81,88
1543680,note_on,1440,0,4,,,,,,,,,3,,,42,88
1543680,note_on,1440,0,3,,,,,,,,,2,,,54,88
1543680,note_on,0,0,1,,,,,,,,,0,,,69,88
1543680,note_on,0,0,1,,,,,,,,,0,,,68,0
1543680,note_on,0,0,1,,,,,,,,,0,,,80,0
1543680,note_on,0,0,1,,,,,,,,,0,,,71,0
1543680,note_on,480,0,1,,,,,,,,,0,,,83,0
1543680,note_on,0,0,1,,,,,,,,,0,,,66,88
1543727,note_on,47,0,3,,,,,,,,,2,,,54,0
1543727,note_on,47,0,4,,,,,,,,,3,,,42,0
1544160,note_on,433,0,3,,,,,,,,,2,,,56,88
1544160,note_on,433,0,4,,,,,,,,,3,,,44,88
1544160,note_on,0,0,1,,,,,,,,,0,,,78,0
1544160,note_on,0,0,1,,,,,,,,,0,,,69,0
1544160,note_on,480,0,1,,,,,,,,,0,,,81,0
1544160,note_on,0,0,2,,,,,,,,,1,,,61,0
1544160,note_on,960,0,2,,,,,,,,,1,,,73,0
1544160,note_on,0,0,1,,,,,,,,,0,,,66,0
1544207,note_on,47,0,4,,,,,,,,,3,,,44,0
1544207,note_on,47,0,3,,,,,,,,,2,,,56,0
1544640,note_on,433,0,3,,,,,,,,,2,,,57,88
1544640,note_on,433,0,4,,,,,,,,,3,,,45,88
1544687,note_on,47,0,3,,,,,,,,,2,,,57,0
1544687,note_on,47,0,4,,,,,,,,,3,,,45,0
1545120,note_on,433,0,4,,,,,,,,,3,,,48,114
1545120,note_on,433,0,3,,,,,,,,,2,,,60,114
1545600,note_on,0,0,1,,,,,,,,,0,,,71,88
1545600,note_on,0,0,1,,,,,,,,,0,,,66,88
1545600,note_on,0,0,3,,,,,,,,,2,,,59,88
1545600,note_on,1440,0,1,,,,,,,,,0,,,63,88
1545600,note_on,480,0,3,,,,,,,,,2,,,60,0
1545600,note_on,480,0,4,,,,,,,,,3,,,48,0
1545600,note_on,0,0,4,,,,,,,,,3,,,47,88
1545647,note_on,0,0,1,,,,,,,,,0,,,63,0
1545647,note_on,47,0,1,,,,,,,,,0,,,71,0
1545647,note_on,0,0,1,,,,,,,,,0,,,66,0
1546080,note_on,480,0,4,,,,,,,,,3,,,47,0
1546080,note_on,0,0,1,,,,,,,,,0,,,71,88
1546080,note_on,433,0,1,,,,,,,,,0,,,66,88
1546080,note_on,480,0,3,,,,,,,,,2,,,59,0
1546080,note_on,0,0,1,,,,,,,,,0,,,75,88
1546127,note_on,0,0,1,,,,,,,,,0,,,71,0
1546127,note_on,47,0,1,,,,,,,,,0,,,75,0
1546127,note_on,0,0,1,,,,,,,,,0,,,66,0
1546560,note_on,2400,0,2,,,,,,,,,1,,,59,88
1546560,note_on,0,0,2,,,,,,,,,1,,,63,88
1546560,note_on,0,0,1,,,,,,,,,0,,,75,88
1546560,note_on,433,0,1,,,,,,,,,0,,,71,88
1546560,note_on,0,0,2,,,,,,,,,1,,,66,88
1546560,note_on,0,0,1,,,,,,,,,0,,,78,88
1546607,note_on,0,0,1,,,,,,,,,0,,,75,0
1546607,note_on,47,0,1,,,,,,,,,0,,,78,0
1546607,note_on,0,0,1,,,,,,,,,0,,,71,0
1546607,note_on,0,0,2,,,,,,,,,1,,,59,0
1546607,note_on,47,0,2,,,,,,,,,1,,,66,0
1546607,note_on,0,0,2,,,,,,,,,1,,,63,0
1547040,note_on,0,0,1,,,,,,,,,0,,,81,114
1547040,note_on,0,0,1,,,,,,,,,0,,,78,114
1547040,note_on,0,0,1,,,,,,,,,0,,,69,114
1547040,note_on,433,0,1,,,,,,,,,0,,,66,114
1547040,note_on,0,0,2,,,,,,,,,1,,,71,88
1547040,note_on,433,0,2,,,,,,,,,1,,,59,88
1547520,note_on,0,0,1,,,,,,,,,0,,,80,88
1547520,note_on,0,0,1,,,,,,,,,0,,,68,88
1547520,note_on,0,0,1,,,,,,,,,0,,,76,88
1547520,note_on,0,0,1,,,,,,,,,0,,,69,0
1547520,note_on,0,0,1,,,,,,,,,0,,,66,0
1547520,note_on,480,0,1,,,,,,,,,0,,,81,0
1547520,note_on,1440,0,3,,,,,,,,,2,,,52,88
1547520,note_on,0,0,1,,,,,,,,,0,,,64,88
1547520,note_on,0,0,1,,,,,,,,,0,,,78,0
1547520,note_on,1440,0,4,,,,,,,,,3,,,40,88
1547567,note_on,47,0,4,,,,,,,,,3,,,40,0
1547567,note_on,47,0,3,,,,,,,,,2,,,52,0
1548000,note_on,480,0,1,,,,,,,,,0,,,80,0
1548000,note_on,0,0,1,,,,,,,,,0,,,64,0
1548000,note_on,0,0,1,,,,,,,,,0,,,68,0
1548000,note_on,0,0,1,,,,,,,,,0,,,76,0
1548000,note_on,433,0,4,,,,,,,,,3,,,44,88
1548000,note_on,433,0,3,,,,,,,,,2,,,56,88
1548000,note_on,960,0,2,,,,,,,,,1,,,71,0
1548000,note_on,0,0,2,,,,,,,,,1,,,59,0
1548047,note_on,47,0,4,,,,,,,,,3,,,44,0
1548047,note_on,47,0,3,,,,,,,,,2,,,56,0
1548480,note_on,433,0,3,,,,,,,,,2,,,59,88
1548480,note_on,433,0,4,,,,,,,,,3,,,47,88
1548527,note_on,47,0,3,,,,,,,,,2,,,59,0
1548527,note_on,47,0,4,,,,,,,,,3,,,47,0
1548960,note_on,433,0,3,,,,,,,,,2,,,64,114
1548960,note_on,433,0,4,,,,,,,,,3,,,52,114
1549440,note_on,480,0,3,,,,,,,,,2,,,64,0
1549440,note_on,1440,0,2,,,,,,,,,1,,,62,88
1549440,note_on,0,0,3,,,,,,,,,2,,,65,88
1549440,note_on,480,0,4,,,,,,,,,3,,,52,0
1549440,note_on,1440,0,1,,,,,,,,,0,,,68,88
1549440,note_on,0,0,1,,,,,,,,,0,,,71,88
1549440,note_on,0,0,4,,,,,,,,,3,,,53,88
1549920,note_on,480,0,1,,,,,,,,,0,,,71,0
1549920,note_on,0,0,1,,,,,,,,,0,,,68,0
1549920,note_on,0,0,1,,,,,,,,,0,,,71,88
1549920,note_on,0,0,1,,,,,,,,,0,,,74,88
1549920,note_on,480,0,3,,,,,,,,,2,,,65,0
1549920,note_on,480,0,4,,,,,,,,,3,,,53,0
1549920,note_on,480,0,2,,,,,,,,,1,,,62,0
1549920,note_on,0,0,2,,,,,,,,,1,,,68,88
1550400,note_on,0,0,1,,,,,,,,,0,,,80,88
1550400,note_on,0,0,1,,,,,,,,,0,,,74,88
1550400,note_on,480,0,2,,,,,,,,,1,,,68,0
1550400,note_on,0,0,2,,,,,,,,,1,,,68,88
1550400,note_on,0,0,1,,,,,,,,,0,,,71,0
1550400,note_on,480,0,1,,,,,,,,,0,,,74,0
1550400,note_on,0,0,2,,,,,,,,,1,,,62,88
1550880,note_on,480,0,2,,,,,,,,,1,,,68,0
1550880,note_on,0,0,2,,,,,,,,,1,,,62,0
1550880,note_on,0,0,2,,,,,,,,,1,,,61,88
1550880,note_on,0,0,2,,,,,,,,,1,,,73,88
1550880,note_on,480,0,1,,,,,,,,,0,,,80,0
1550880,note_on,0,0,1,,,,,,,,,0,,,74,0
1550880,note_on,0,0,1,,,,,,,,,0,,,68,114
1550880,note_on,0,0,1,,,,,,,,,0,,,80,114
1550880,note_on,0,0,1,,,,,,,,,0,,,83,114
1550880,note_on,0,0,1,,,,,,,,,0,,,71,114
1551360,note_on,1440,0,4,,,,,,,,,3,,,42,88
1551360,note_on,1440,0,3,,,,,,,,,2,,,54,88
1551360,note_on,0,0,1,,,,,,,,,0,,,80,0
1551360,note_on,480,0,1,,,,,,,,,0,,,83,0
1551360,note_on,0,0,1,,,,,,,,,0,,,68,0
1551360,note_on,0,0,1,,,,,,,,,0,,,71,0
1551360,note_on,0,0,1,,,,,,,,,0,,,69,88
1551360,note_on,0,0,1,,,,,,,,,0,,,81,88
1551407,note_on,47,0,3,,,,,,,,,2,,,54,0
1551407,note_on,47,0,4,,,,,,,,,3,,,42,0
1551840,note_on,433,0,3,,,,,,,,,2,,,56,114
1551840,note_on,480,0,1,,,,,,,,,0,,,81,0
1551840,note_on,0,0,1,,,,,,,,,0,,,69,0
1551840,note_on,0,0,1,,,,,,,,,0,,,72,114
1551840,note_on,0,0,1,,,,,,,,,0,,,84,114
1551840,note_on,433,0,4,,,,,,,,,3,,,44,114
1551840,note_on,0,0,2,,,,,,,,,1,,,61,0
1551840,note_on,960,0,2,,,,,,,,,1,,,73,0
1552320,note_on,480,0,1,,,,,,,,,0,,,84,0
1552320,note_on,0,0,1,,,,,,,,,0,,,72,0
1552320,note_on,0,0,1,,,,,,,,,0,,,73,88
1552320,note_on,0,0,1,,,,,,,,,0,,,85,88
1552320,note_on,480,0,4,,,,,,,,,3,,,44,0
1552320,note_on,480,0,3,,,,,,,,,2,,,56,0
1552320,note_on,0,0,3,,,,,,,,,2,,,57,88
1552320,note_on,0,0,4,,,,,,,,,3,,,45,88
1552800,note_on,0,0,1,,,,,,,,,0,,,73,0
1552800,note_on,480,0,1,,,,,,,,,0,,,85,0
1552800,note_on,0,0,1,,,,,,,,,0,,,65,114
1552800,note_on,480,0,4,,,,,,,,,3,,,45,0
1552800,note_on,480,0,3,,,,,,,,,2,,,57,0
1552800,note_on,0,0,3,,,,,,,,,2,,,57,88
1552800,note_on,960,0,2,,,,,,,,,1,,,69,88
1552800,note_on,0,0,1,,,,,,,,,0,,,77,114
1552800,note_on,0,0,4,,,,,,,,,3,,,37,114
1552800,note_on,0,0,4,,,,,,,,,3,,,49,114
1553280,note_on,480,0,4,,,,,,,,,3,,,49,0
1553280,note_on,0,0,4,,,,,,,,,3,,,50,88
1553280,note_on,0,0,4,,,,,,,,,3,,,38,88
1553280,note_on,0,0,1,,,,,,,,,0,,,66,88
1553280,note_on,0,0,1,,,,,,,,,0,,,65,0
1553280,note_on,480,0,1,,,,,,,,,0,,,77,0
1553280,note_on,0,0,4,,,,,,,,,3,,,37,0
1553280,note_on,0,0,1,,,,,,,,,0,,,78,88
1553760,note_on,0,0,3,,,,,,,,,2,,,57,88
1553760,note_on,480,0,4,,,,,,,,,3,,,50,0
1553760,note_on,0,0,4,,,,,,,,,3,,,53,114
1553760,note_on,0,0,1,,,,,,,,,0,,,66,0
1553760,note_on,0,0,2,,,,,,,,,1,,,69,88
1553760,note_on,960,0,2,,,,,,,,,1,,,69,0
1553760,note_on,0,0,1,,,,,,,,,0,,,73,114
1553760,note_on,0,0,4,,,,,,,,,3,,,38,0
1553760,note_on,0,0,1,,,,,,,,,0,,,61,114
1553760,note_on,960,0,3,,,,,,,,,2,,,57,0
1553760,note_on,480,0,1,,,,,,,,,0,,,78,0
1553760,note_on,0,0,4,,,,,,,,,3,,,41,114
1554240,note_on,0,0,4,,,,,,,,,3,,,54,88
1554240,note_on,0,0,4,,,,,,,,,3,,,42,88
1554240,note_on,0,0,4,,,,,,,,,3,,,41,0
1554240,note_on,480,0,4,,,,,,,,,3,,,53,0
1554240,note_on,0,0,1,,,,,,,,,0,,,62,88
1554240,note_on,0,0,1,,,,,,,,,0,,,61,0
1554240,note_on,480,0,1,,,,,,,,,0,,,73,0
1554240,note_on,0,0,1,,,,,,,,,0,,,74,88
1554720,note_on,0,0,2,,,,,,,,,1,,,64,88
1554720,note_on,0,0,3,,,,,,,,,2,,,57,88
1554720,note_on,0,0,3,,,,,,,,,2,,,55,88
1554720,note_on,960,0,3,,,,,,,,,2,,,57,0
1554720,note_on,480,0,1,,,,,,,,,0,,,74,0
1554720,note_on,0,0,1,,,,,,,,,0,,,62,0
1554720,note_on,0,0,1,,,,,,,,,0,,,76,88
1554720,control_change,0,0,1,,,,,,,,,0,64,127,,
1554720,note_on,0,0,4,,,,,,,,,3,,,42,0
1554720,note_on,960,0,2,,,,,,,,,1,,,69,0
1554720,note_on,0,0,4,,,,,,,,,3,,,43,88
1554720,note_on,480,0,4,,,,,,,,,3,,,54,0
1554720,note_on,0,0,2,,,,,,,,,1,,,69,88
1555440,note_on,720,0,1,,,,,,,,,0,,,76,0
1555440,note_on,0,0,1,,,,,,,,,0,,,78,88
1555680,note_on,0,0,1,,,,,,,,,0,,,76,88
1555680,note_on,240,0,1,,,,,,,,,0,,,78,0
1555920,note_on,240,0,1,,,,,,,,,0,,,76,0
1555920,note_on,0,0,1,,,,,,,,,0,,,74,75
1556160,note_on,240,0,1,,,,,,,,,0,,,74,0
1556160,note_on,0,0,1,,,,,,,,,0,,,73,75
1556400,note_on,0,0,1,,,,,,,,,0,,,71,62
1556400,note_on,240,0,1,,,,,,,,,0,,,73,0
1556400,control_change,0,0,1,,,,,,,,,0,64,0,,
1556580,note_on,180,0,1,,,,,,,,,0,,,71,62
1556640,note_on,0,0,1,,,,,,,,,0,,,70,62
1556640,note_on,0,0,2,,,,,,,,,1,,,64,0
1556640,note_on,0,0,1,,,,,,,,,0,,,71,0
1556640,note_on,60,0,1,,,,,,,,,0,,,71,0
1556640,note_on,1920,0,2,,,,,,,,,1,,,69,0
1556640,control_change,0,0,3,,,,,,,,,2,64,127,,
1556640,note_on,0,0,2,,,,,,,,,1,,,61,49
1556640,note_on,0,0,3,,,,,,,,,2,,,55,0
1556640,note_on,1920,0,3,,,,,,,,,2,,,57,0
1556640,note_on,1920,0,4,,,,,,,,,3,,,43,0
1556640,note_on,0,0,4,,,,,,,,,3,,,42,62
1556640,note_on,0,0,3,,,,,,,,,2,,,54,49
1556687,note_on,47,0,1,,,,,,,,,0,,,70,0
1556687,note_on,47,0,4,,,,,,,,,3,,,42,0
1556880,note_on,240,0,2,,,,,,,,,1,,,61,0
1556880,note_on,0,0,2,,,,,,,,,1,,,66,49
1557120,note_on,240,0,2,,,,,,,,,1,,,66,0
1557120,note_on,0,0,2,,,,,,,,,1,,,64,49
1557120,note_on,433,0,1,,,,,,,,,0,,,70,62
1557167,note_on,47,0,1,,,,,,,,,0,,,70,0
1557360,note_on,0,0,2,,,,,,,,,1,,,66,49
1557360,note_on,240,0,2,,,,,,,,,1,,,64,0
1557540,note_on,373,0,1,,,,,,,,,0,,,70,62
1557600,note_on,60,0,1,,,,,,,,,0,,,70,0
1557600,note_on,0,0,1,,,,,,,,,0,,,78,62
1557600,note_on,913,0,4,,,,,,,,,3,,,40,62
1557600,note_on,0,0,3,,,,,,,,,2,,,46,49
1557600,note_on,0,0,3,,,,,,,,,2,,,54,49
1557600,note_on,0,0,3,,,,,,,,,2,,,49,49
1557600,note_on,0,0,2,,,,,,,,,1,,,58,49
1557600,note_on,960,0,3,,,,,,,,,2,,,54,0
1557600,note_on,240,0,2,,,,,,,,,1,,,66,0
1557647,note_on,47,0,4,,,,,,,,,3,,,40,0
1557840,note_on,240,0,2,,,,,,,,,1,,,58,0
1557840,note_on,0,0,2,,,,,,,,,1,,,66,49
1558080,note_on,480,0,1,,,,,,,,,0,,,78,0
1558080,note_on,0,0,1,,,,,,,,,0,,,70,62
1558080,note_on,240,0,2,,,,,,,,,1,,,66,0
1558080,note_on,0,0,2,,,,,,,,,1,,,61,49
1558320,note_on,240,0,1,,,,,,,,,0,,,70,0
1558320,note_on,240,0,2,,,,,,,,,1,,,61,0
1558320,note_on,0,0,2,,,,,,,,,1,,,66,49
1558500,note_on,180,0,1,,,,,,,,,0,,,71,62
1558560,note_on,0,0,3,,,,,,,,,2,,,54,49
1558560,note_on,0,0,1,,,,,,,,,0,,,78,62
1558560,note_on,60,0,1,,,,,,,,,0,,,71,0
1558560,note_on,0,0,3,,,,,,,,,2,,,50,49
1558560,note_on,0,0,3,,,,,,,,,2,,,47,49
1558560,note_on,0,0,3,,,,,,,,,2,,,49,0
1558560,note_on,960,0,3,,,,,,,,,2,,,54,0
1558560,note_on,0,0,3,,,,,,,,,2,,,46,0
1558560,note_on,913,0,4,,,,,,,,,3,,,38,62
1558560,note_on,0,0,2,,,,,,,,,1,,,59,49
1558560,note_on,240,0,2,,,,,,,,,1,,,66,0
1558607,note_on,47,0,4,,,,,,,,,3,,,38,0
1558800,note_on,240,0,2,,,,,,,,,1,,,59,0
1558800,note_on,0,0,2,,,,,,,,,1,,,66,49
1559040,note_on,240,0,2,,,,,,,,,1,,,66,0
1559040,note_on,0,0,1,,,,,,,,,0,,,71,62
1559040,note_on,480,0,1,,,,,,,,,0,,,78,0
1559040,note_on,0,0,2,,,,,,,,,1,,,62,49
1559280,note_on,240,0,1,,,,,,,,,0,,,71,0
1559280,note_on,240,0,2,,,,,,,,,1,,,62,0
1559280,note_on,0,0,2,,,,,,,,,1,,,66,49
1559460,note_on,180,0,1,,,,,,,,,0,,,73,62
1559520,note_on,240,0,2,,,,,,,,,1,,,66,0
1559520,note_on,0,0,2,,,,,,,,,1,,,61,49
1559520,note_on,0,0,3,,,,,,,,,2,,,54,49
1559520,note_on,0,0,3,,,,,,,,,2,,,52,49
1559520,note_on,0,0,1,,,,,,,,,0,,,78,62
1559520,note_on,60,0,1,,,,,,,,,0,,,73,0
1559520,note_on,960,0,3,,,,,,,,,2,,,54,0
1559520,note_on,0,0,3,,,,,,,,,2,,,50,0
1559520,note_on,0,0,3,,,,,,,,,2,,,47,0
1559520,control_change,0,0,3,,,,,,,,,2,64,0,,
1559520,note_on,0,0,3,,,,,,,,,2,,,49,49
1559520,note_on,913,0,4,,,,,,,,,3,,,34,62
1559567,note_on,47,0,4,,,,,,,,,3,,,34,0
1559760,note_on,240,0,2,,,,,,,,,1,,,61,0
1559760,note_on,0,0,2,,,,,,,,,1,,,66,49
1560000,note_on,480,0,1,,,,,,,,,0,,,78,0
1560000,note_on,0,0,1,,,,,,,,,0,,,73,62
1560000,note_on,0,0,2,,,,,,,,,1,,,64,49
1560000,note_on,240,0,2,,,,,,,,,1,,,66,0
1560240,note_on,0,0,2,,,,,,,,,1,,,66,49
1560240,note_on,240,0,1,,,,,,,,,0,,,73,0
1560240,note_on,240,0,2,,,,,,,,,1,,,64,0
1560480,note_on,240,0,2,,,,,,,,,1,,,66,0
1560480,note_on,0,0,2,,,,,,,,,1,,,59,49
1560480,note_on,0,0,3,,,,,,,,,2,,,54,49
1560480,note_on,0,0,3,,,,,,,,,2,,,50,49
1560480,note_on,0,0,3,,,,,,,,,2,,,47,49
1560480,note_on,240,0,1,,,,,,,,,0,,,74,62
1560480,note_on,0,0,3,,,,,,,,,2,,,49,0
1560480,note_on,0,0,3,,,,,,,,,2,,,52,0
1560480,note_on,913,0,4,,,,,,,,,3,,,35,62
1560480,note_on,960,0,3,,,,,,,,,2,,,54,0
1560527,note_on,0,0,3,,,,,,,,,2,,,50,0
1560527,note_on,47,0,3,,,,,,,,,2,,,54,0
1560527,note_on,0,0,3,,,,,,,,,2,,,47,0
1560527,note_on,47,0,4,,,,,,,,,3,,,35,0
1560720,note_on,240,0,2,,,,,,,,,1,,,59,0
1560720,note_on,0,0,2,,,,,,,,,1,,,66,49
1560960,note_on,240,0,2,,,,,,,,,1,,,66,0
1560960,note_on,0,0,2,,,,,,,,,1,,,62,49
1560960,note_on,480,0,1,,,,,,,,,0,,,74,0
1560960,control_change,0,0,1,,,,,,,,,0,64,127,,
1560960,note_on,0,0,1,,,,,,,,,0,,,78,62
1561200,note_on,240,0,1,,,,,,,,,0,,,78,0
1561200,note_on,0,0,1,,,,,,,,,0,,,76,62
1561200,note_on,240,0,2,,,,,,,,,1,,,62,0
1561200,note_on,0,0,2,,,,,,,,,1,,,66,49
1561440,note_on,0,0,2,,,,,,,,,1,,,59,49
1561440,note_on,240,0,1,,,,,,,,,0,,,76,0
1561440,note_on,240,0,2,,,,,,,,,1,,,66,0
1561440,note_on,913,0,3,,,,,,,,,2,,,50,62
1561440,note_on,0,0,1,,,,,,,,,0,,,74,62
1561440,note_on,913,0,4,,,,,,,,,3,,,38,62
1561487,note_on,47,0,4,,,,,,,,,3,,,38,0
1561680,note_on,240,0,2,,,,,,,,,1,,,59,0
1561680,note_on,0,0,2,,,,,,,,,1,,,66,49
1561680,note_on,240,0,1,,,,,,,,,0,,,74,0
1561680,note_on,0,0,1,,,,,,,,,0,,,73,62
1561920,note_on,0,0,1,,,,,,,,,0,,,71,62
1561920,note_on,240,0,1,,,,,,,,,0,,,73,0
1561920,note_on,240,0,2,,,,,,,,,1,,,66,0
1561920,note_on,480,0,3,,,,,,,,,2,,,50,0
1561920,note_on,0,0,2,,,,,,,,,1,,,62,49
1562160,note_on,240,0,1,,,,,,,,,0,,,71,0
1562160,note_on,0,0,2,,,,,,,,,1,,,66,49
1562160,note_on,240,0,2,,,,,,,,,1,,,62,0
1562160,note_on,0,0,1,,,,,,,,,0,,,69,62
1562400,note_on,0,0,2,,,,,,,,,1,,,59,49
1562400,note_on,913,0,4,,,,,,,,,3,,,40,62
1562400,note_on,240,0,2,,,,,,,,,1,,,66,0
1562400,control_change,0,0,1,,,,,,,,,0,64,0,,
1562400,note_on,0,0,1,,,,,,,,,0,,,68,62
1562400,note_on,480,0,3,,,,,,,,,2,,,52,62
1562400,note_on,240,0,1,,,,,,,,,0,,,69,0
1562447,note_on,47,0,3,,,,,,,,,2,,,52,0
1562447,note_on,47,0,4,,,,,,,,,3,,,40,0
1562640,note_on,240,0,2,,,,,,,,,1,,,59,0
1562640,note_on,0,0,2,,,,,,,,,1,,,64,49
1562880,note_on,480,0,1,,,,,,,,,0,,,68,0
1562880,note_on,240,0,2,,,,,,,,,1,,,64,0
1562880,note_on,0,0,2,,,,,,,,,1,,,62,49
1562880,note_on,0,0,1,,,,,,,,,0,,,71,62
1563120,note_on,0,0,1,,,,,,,,,0,,,76,62
1563120,note_on,240,0,1,,,,,,,,,0,,,71,0
1563120,note_on,240,0,2,,,,,,,,,1,,,62,0
1563120,note_on,0,0,2,,,,,,,,,1,,,64,49
1563360,note_on,240,0,1,,,,,,,,,0,,,76,0
1563360,note_on,240,0,2,,,,,,,,,1,,,64,0
1563360,note_on,0,0,2,,,,,,,,,1,,,59,49
1563360,note_on,0,0,1,,,,,,,,,0,,,80,62
1563407,note_on,47,0,1,,,,,,,,,0,,,80,0
1563600,note_on,240,0,2,,,,,,,,,1,,,59,0
1563600,note_on,0,0,2,,,,,,,,,1,,,64,49
1563840,note_on,240,0,2,,,,,,,,,1,,,64,0
1563840,note_on,433,0,1,,,,,,,,,0,,,83,62
1563840,note_on,1393,0,4,,,,,,,,,3,,,40,62
1563840,note_on,0,0,2,,,,,,,,,1,,,62,49
1563840,note_on,1393,0,3,,,,,,,,,2,,,52,62
1563887,note_on,47,0,1,,,,,,,,,0,,,83,0
1564080,note_on,240,0,2,,,,,,,,,1,,,62,0
1564080,note_on,0,0,2,,,,,,,,,1,,,64,49
1564320,note_on,0,0,4,,,,,,,,,3,,,45,62
1564320,note_on,433,0,1,,,,,,,,,0,,,86,62
1564320,note_on,480,0,4,,,,,,,,,3,,,40,0
1564320,note_on,0,0,3,,,,,,,,,2,,,57,62
1564320,note_on,480,0,3,,,,,,,,,2,,,52,0
1564320,note_on,0,0,2,,,,,,,,,1,,,57,49
1564320,note_on,240,0,2,,,,,,,,,1,,,64,0
1564560,note_on,240,0,2,,,,,,,,,1,,,57,0
1564560,note_on,0,0,2,,,,,,,,,1,,,64,49
1564800,note_on,0,0,1,,,,,,,,,0,,,85,62
1564800,note_on,480,0,1,,,,,,,,,0,,,86,0
1564800,note_on,480,0,4,,,,,,,,,3,,,45,0
1564800,note_on,480,0,3,,,,,,,,,2,,,57,0
1564800,note_on,0,0,2,,,,,,,,,1,,,61,49
1564800,note_on,240,0,2,,,,,,,,,1,,,64,0
1565040,note_on,240,0,1,,,,,,,,,0,,,85,0
1565040,note_on,240,0,2,,,,,,,,,1,,,61,0
1565040,note_on,0,0,2,,,,,,,,,1,,,64,49
1565280,note_on,240,0,1,,,,,,,,,0,,,80,62
1565280,note_on,480,0,4,,,,,,,,,3,,,36,62
1565280,note_on,240,0,2,,,,,,,,,1,,,64,0
1565280,note_on,480,0,3,,,,,,,,,2,,,48,62
1565280,note_on,0,0,2,,,,,,,,,1,,,57,49
1565520,note_on,240,0,2,,,,,,,,,1,,,57,0
1565520,note_on,0,0,2,,,,,,,,,1,,,69,49
1565760,note_on,0,0,3,,,,,,,,,2,,,49,62
1565760,note_on,480,0,3,,,,,,,,,2,,,48,0
1565760,note_on,0,0,4,,,,,,,,,3,,,37,62
1565760,note_on,480,0,4,,,,,,,,,3,,,36,0
1565760,note_on,0,0,2,,,,,,,,,1,,,64,49
1565760,note_on,480,0,1,,,,,,,,,0,,,80,0
1565760,note_on,0,0,1,,,,,,,,,0,,,81,62
1565760,note_on,240,0,2,,,,,,,,,1,,,69,0
1566000,note_on,0,0,2,,,,,,,,,1,,,69,49
1566000,note_on,240,0,2,,,,,,,,,1,,,64,0
1566000,note_on,240,0,3,,,,,,,,,2,,,49,0
1566000,note_on,240,0,1,,,,,,,,,0,,,81,0
1566000,note_on,240,0,4,,,,,,,,,3,,,37,0
1566240,note_on,240,0,1,,,,,,,,,0,,,77,62
1566240,note_on,0,0,2,,,,,,,,,1,,,65,49
1566240,note_on,240,0,2,,,,,,,,,1,,,69,0
1566240,note_on,240,0,4,,,,,,,,,3,,,37,62
1566240,note_on,240,0,3,,,,,,,,,2,,,49,62
1566480,note_on,0,0,2,,,,,,,,,1,,,69,49
1566480,note_on,240,0,2,,,,,,,,,1,,,65,0
1566720,note_on,0,0,2,,,,,,,,,1,,,66,49
1566720,note_on,0,0,4,,,,,,,,,3,,,38,62
1566720,note_on,480,0,4,,,,,,,,,3,,,37,0
1566720,note_on,0,0,3,,,,,,,,,2,,,50,62
1566720,note_on,0,0,1,,,,,,,,,0,,,78,62
1566720,note_on,240,0,2,,,,,,,,,1,,,69,0
1566720,note_on,480,0,3,,,,,,,,,2,,,49,0
1566720,note_on,480,0,1,,,,,,,,,0,,,77,0
1566960,note_on,240,0,2,,,,,,,,,1,,,66,0
1566960,note_on,240,0,3,,,,,,,,,2,,,50,0
1566960,note_on,0,0,2,,,,,,,,,1,,,69,49
1566960,note_on,240,0,4,,,,,,,,,3,,,38,0
1566960,note_on,240,0,1,,,,,,,,,0,,,78,0
1567200,note_on,240,0,3,,,,,,,,,2,,,53,62
1567200,note_on,0,0,2,,,,,,,,,1,,,61,49
1567200,note_on,240,0,2,,,,,,,,,1,,,69,0
1567200,note_on,240,0,4,,,,,,,,,3,,,41,62
1567200,note_on,240,0,1,,,,,,,,,0,,,73,62
1567440,note_on,0,0,2,,,,,,,,,1,,,69,49
1567440,note_on,240,0,2,,,,,,,,,1,,,61,0
1567680,note_on,240,0,2,,,,,,,,,1,,,69,0
1567680,note_on,0,0,2,,,,,,,,,1,,,62,49
1567680,note_on,480,0,3,,,,,,,,,2,,,53,0
1567680,note_on,0,0,3,,,,,,,,,2,,,54,62
1567680,note_on,480,0,4,,,,,,,,,3,,,41,0
1567680,note_on,0,0,4,,,,,,,,,3,,,42,62
1567680,note_on,480,0,1,,,,,,,,,0,,,73,0
1567920,note_on,240,0,2,,,,,,,,,1,,,62,0
1567920,note_on,0,0,2,,,,,,,,,1,,,69,49
1567920,note_on,240,0,3,,,,,,,,,2,,,54,0
1567920,note_on,240,0,4,,,,,,,,,3,,,42,0
1568160,note_on,240,0,4,,,,,,,,,3,,,43,62
1568160,note_on,240,0,2,,,,,,,,,1,,,69,0
1568160,note_on,0,0,2,,,,,,,,,1,,,61,49
1568160,note_on,0,0,2,,,,,,,,,1,,,64,49
1568160,note_on,0,0,1,,,,,,,,,0,,,76,88
1568160,control_change,480,0,1,,,,,,,,,0,64,127,,
1568160,note_on,240,0,3,,,,,,,,,2,,,55,62
1568160,note_on,0,0,3,,,,,,,,,2,,,57,62
1568880,note_on,0,0,1,,,,,,,,,0,,,78,62
1568880,note_on,720,0,1,,,,,,,,,0,,,76,0
1569120,note_on,0,0,1,,,,,,,,,0,,,76,62
1569120,note_on,240,0,1,,,,,,,,,0,,,78,0
1569360,note_on,0,0,1,,,,,,,,,0,,,74,62
1569360,note_on,240,0,1,,,,,,,,,0,,,76,0
1569600,note_on,240,0,1,,,,,,,,,0,,,74,0
1569600,note_on,0,0,1,,,,,,,,,0,,,73,62
1569840,note_on,240,0,1,,,,,,,,,0,,,73,0
1569840,control_change,0,0,1,,,,,,,,,0,64,0,,
1569840,note_on,0,0,1,,,,,,,,,0,,,71,62
1570020,note_on,180,0,1,,,,,,,,,0,,,71,62
1570080,note_on,0,0,2,,,,,,,,,1,,,61,49
1570080,note_on,0,0,3,,,,,,,,,2,,,58,62
1570080,note_on,0,0,3,,,,,,,,,2,,,54,62
1570080,note_on,0,0,3,,,,,,,,,2,,,55,0
1570080,note_on,1920,0,3,,,,,,,,,2,,,57,0
1570080,note_on,1920,0,4,,,,,,,,,3,,,43,0
1570080,note_on,1920,0,2,,,,,,,,,1,,,64,0
1570080,note_on,0,0,1,,,,,,,,,0,,,70,62
1570080,note_on,0,0,1,,,,,,,,,0,,,71,0
1570080,note_on,60,0,1,,,,,,,,,0,,,71,0
1570080,note_on,0,0,2,,,,,,,,,1,,,61,0
1570080,note_on,0,0,4,,,,,,,,,3,,,42,62
1570127,note_on,47,0,1,,,,,,,,,0,,,70,0
1570320,note_on,0,0,2,,,,,,,,,1,,,66,49
1570320,note_on,240,0,2,,,,,,,,,1,,,61,0
1570560,note_on,480,0,3,,,,,,,,,2,,,58,0
1570560,note_on,433,0,1,,,,,,,,,0,,,70,62
1570560,note_on,0,0,3,,,,,,,,,2,,,54,0
1570560,note_on,240,0,2,,,,,,,,,1,,,66,0
1570560,note_on,480,0,4,,,,,,,,,3,,,42,0
1570560,note_on,0,0,2,,,,,,,,,1,,,64,49
1570607,note_on,47,0,1,,,,,,,,,0,,,70,0
1570800,note_on,0,0,2,,,,,,,,,1,,,66,49
1570800,note_on,240,0,2,,,,,,,,,1,,,64,0
1570980,note_on,373,0,1,,,,,,,,,0,,,70,62
1571040,note_on,60,0,1,,,,,,,,,0,,,70,0
1571040,note_on,0,0,1,,,,,,,,,0,,,78,62
1571040,note_on,480,0,3,,,,,,,,,2,,,54,62
1571040,note_on,0,0,2,,,,,,,,,1,,,58,49
1571040,note_on,240,0,2,,,,,,,,,1,,,66,0
1571040,note_on,480,0,4,,,,,,,,,3,,,52,62
1571280,note_on,0,0,2,,,,,,,,,1,,,66,49
1571280,note_on,240,0,2,,,,,,,,,1,,,58,0
1571520,note_on,480,0,3,,,,,,,,,2,,,54,0
1571520,note_on,480,0,4,,,,,,,,,3,,,52,0
1571520,note_on,0,0,2,,,,,,,,,1,,,61,49
1571520,note_on,240,0,2,,,,,,,,,1,,,66,0
1571520,note_on,480,0,1,,,,,,,,,0,,,78,0
1571520,note_on,0,0,1,,,,,,,,,0,,,70,62
1571760,note_on,0,0,2,,,,,,,,,1,,,66,49
1571760,note_on,240,0,1,,,,,,,,,0,,,70,0
1571760,note_on,240,0,2,,,,,,,,,1,,,61,0
1571940,note_on,180,0,1,,,,,,,,,0,,,71,62
1572000,note_on,240,0,2,,,,,,,,,1,,,66,0
1572000,note_on,480,0,4,,,,,,,,,3,,,50,62
1572000,note_on,0,0,2,,,,,,,,,1,,,59,49
1572000,note_on,480,0,3,,,,,,,,,2,,,54,62
1572000,note_on,0,0,1,,,,,,,,,0,,,78,62
1572000,note_on,60,0,1,,,,,,,,,0,,,71,0
1572240,note_on,240,0,2,,,,,,,,,1,,,59,0
1572240,note_on,0,0,2,,,,,,,,,1,,,66,49
1572480,note_on,480,0,3,,,,,,,,,2,,,54,0
1572480,note_on,0,0,2,,,,,,,,,1,,,62,49
1572480,note_on,240,0,2,,,,,,,,,1,,,66,0
1572480,note_on,480,0,4,,,,,,,,,3,,,50,0
1572480,note_on,0,0,1,,,,,,,,,0,,,71,62
1572480,note_on,480,0,1,,,,,,,,,0,,,78,0
1572720,note_on,0,0,2,,,,,,,,,1,,,66,49
1572720,note_on,240,0,2,,,,,,,,,1,,,62,0
1572720,note_on,240,0,1,,,,,,,,,0,,,71,0
1572900,note_on,180,0,1,,,,,,,,,0,,,73,62
1572960,note_on,0,0,2,,,,,,,,,1,,,61,49
1572960,note_on,240,0,2,,,,,,,,,1,,,66,0
1572960,note_on,480,0,3,,,,,,,,,2,,,54,62
1572960,note_on,480,0,4,,,,,,,,,3,,,46,62
1572960,note_on,60,0,1,,,,,,,,,0,,,73,0
1572960,note_on,0,0,1,,,,,,,,,0,,,78,62
1573200,note_on,240,0,2,,,,,,,,,1,,,61,0
1573200,note_on,0,0,2,,,,,,,,,1,,,66,49
1573440,note_on,0,0,2,,,,,,,,,1,,,64,49
1573440,note_on,480,0,4,,,,,,,,,3,,,46,0
1573440,note_on,240,0,2,,,,,,,,,1,,,66,0
1573440,note_on,480,0,3,,,,,,,,,2,,,54,0
1573440,note_on,480,0,1,,,,,,,,,0,,,78,0
1573440,note_on,0,0,1,,,,,,,,,0,,,73,62
1573680,note_on,0,0,2,,,,,,,,,1,,,66,49
1573680,note_on,240,0,1,,,,,,,,,0,,,73,0
1573680,note_on,240,0,2,,,,,,,,,1,,,64,0
1573920,note_on,240,0,2,,,,,,,,,1,,,66,0
1573920,note_on,0,0,2,,,,,,,,,1,,,59,49
1573920,note_on,480,0,3,,,,,,,,,2,,,54,62
1573920,note_on,240,0,1,,,,,,,,,0,,,74,62
1573920,note_on,480,0,4,,,,,,,,,3,,,47,62
1574160,note_on,240,0,2,,,,,,,,,1,,,59,0
1574160,note_on,0,0,2,,,,,,,,,1,,,66,49
1574400,note_on,480,0,3,,,,,,,,,2,,,54,0
1574400,note_on,480,0,1,,,,,,,,,0,,,74,0
1574400,note_on,480,0,4,,,,,,,,,3,,,47,0
1574400,note_on,0,0,1,,,,,,,,,0,,,78,62
1574400,control_change,0,0,1,,,,,,,,,0,64,127,,
1574400,note_on,240,0,2,,,,,,,,,1,,,66,0
1574400,note_on,0,0,2,,,,,,,,,1,,,62,49
1574640,note_on,240,0,2,,,,,,,,,1,,,62,0
1574640,note_on,0,0,2,,,,,,,,,1,,,66,49
1574640,note_on,0,0,1,,,,,,,,,0,,,76,62
1574640,note_on,240,0,1,,,,,,,,,0,,,78,0
1574880,note_on,480,0,3,,,,,,,,,2,,,50,62
1574880,note_on,240,0,1,,,,,,,,,0,,,76,0
1574880,note_on,240,0,2,,,,,,,,,1,,,66,0
1574880,note_on,0,0,1,,,,,,,,,0,,,74,62
1574880,note_on,480,0,4,,,,,,,,,3,,,38,62
1574880,note_on,0,0,2,,,,,,,,,1,,,59,49
1575120,note_on,0,0,1,,,,,,,,,0,,,73,62
1575120,note_on,240,0,2,,,,,,,,,1,,,59,0
1575120,note_on,0,0,2,,,,,,,,,1,,,66,49
1575120,note_on,240,0,1,,,,,,,,,0,,,74,0
1575360,note_on,240,0,2,,,,,,,,,1,,,66,0
1575360,note_on,0,0,2,,,,,,,,,1,,,62,49
1575360,note_on,0,0,1,,,,,,,,,0,,,71,62
1575360,note_on,240,0,1,,,,,,,,,0,,,73,0
1575360,note_on,480,0,4,,,,,,,,,3,,,38,0
1575360,note_on,480,0,3,,,,,,,,,2,,,50,0
1575600,note_on,0,0,1,,,,,,,,,0,,,69,62
1575600,note_on,240,0,1,,,,,,,,,0,,,71,0
1575600,note_on,0,0,2,,,,,,,,,1,,,66,49
1575600,note_on,240,0,2,,,,,,,,,1,,,62,0
1575840,note_on,240,0,1,,,,,,,,,0,,,69,0
1575840,note_on,0,0,2,,,,,,,,,1,,,59,49
1575840,note_on,240,0,2,,,,,,,,,1,,,66,0
1575840,control_change,0,0,1,,,,,,,,,0,64,0,,
1575840,note_on,480,0,3,,,,,,,,,2,,,52,62
1575840,note_on,0,0,1,,,,,,,,,0,,,68,62
1575840,note_on,480,0,4,,,,,,,,,3,,,40,62
1576080,note_on,240,0,2,,,,,,,,,1,,,59,0
1576080,note_on,0,0,2,,,,,,,,,1,,,64,49
1576320,note_on,480,0,1,,,,,,,,,0,,,68,0
1576320,note_on,0,0,1,,,,,,,,,0,,,71,62
1576320,note_on,480,0,4,,,,,,,,,3,,,40,0
1576320,note_on,240,0,2,,,,,,,,,1,,,64,0
1576320,note_on,0,0,2,,,,,,,,,1,,,62,49
1576320,note_on,480,0,3,,,,,,,,,2,,,52,0
1576560,note_on,240,0,1,,,,,,,,,0,,,71,0
1576560,note_on,0,0,1,,,,,,,,,0,,,76,62
1576560,note_on,240,0,2,,,,,,,,,1,,,62,0
1576560,note_on,0,0,2,,,,,,,,,1,,,64,49
1576800,note_on,0,0,2,,,,,,,,,1,,,59,49
1576800,note_on,240,0,2,,,,,,,,,1,,,64,0
1576800,note_on,0,0,1,,,,,,,,,0,,,80,62
1576800,note_on,240,0,1,,,,,,,,,0,,,76,0
1576847,note_on,47,0,1,,,,,,,,,0,,,80,0
1577040,note_on,240,0,2,,,,,,,,,1,,,59,0
1577040,note_on,0,0,2,,,,,,,,,1,,,64,49
1577280,note_on,960,0,4,,,,,,,,,3,,,40,62
1577280,note_on,960,0,3,,,,,,,,,2,,,52,62
1577280,note_on,433,0,1,,,,,,,,,0,,,83,62
1577280,note_on,240,0,2,,,,,,,,,1,,,64,0
1577280,note_on,0,0,2,,,,,,,,,1,,,62,49
1577327,note_on,47,0,1,,,,,,,,,0,,,83,0
1577520,note_on,0,0,2,,,,,,,,,1,,,64,49
1577520,note_on,240,0,2,,,,,,,,,1,,,62,0
1577760,note_on,0,0,4,,,,,,,,,3,,,45,62
1577760,note_on,0,0,3,,,,,,,,,2,,,57,62
1577760,note_on,0,0,2,,,,,,,,,1,,,57,49
1577760,note_on,240,0,2,,,,,,,,,1,,,64,0
1577760,note_on,480,0,4,,,,,,,,,3,,,40,0
1577760,note_on,433,0,1,,,,,,,,,0,,,86,62
1577760,note_on,480,0,3,,,,,,,,,2,,,52,0
1578000,note_on,0,0,2,,,,,,,,,1,,,64,49
1578000,note_on,240,0,2,,,,,,,,,1,,,57,0
1578240,note_on,0,0,2,,,,,,,,,1,,,61,49
1578240,note_on,240,0,2,,,,,,,,,1,,,64,0
1578240,note_on,480,0,3,,,,,,,,,2,,,57,0
1578240,note_on,480,0,1,,,,,,,,,0,,,86,0
1578240,note_on,0,0,1,,,,,,,,,0,,,85,62
1578240,note_on,480,0,4,,,,,,,,,3,,,45,0
1578480,note_on,240,0,1,,,,,,,,,0,,,85,0
1578480,note_on,0,0,2,,,,,,,,,1,,,64,49
1578480,note_on,240,0,2,,,,,,,,,1,,,61,0
1578720,note_on,240,0,2,,,,,,,,,1,,,64,0
1578720,note_on,480,0,3,,,,,,,,,2,,,48,62
1578720,note_on,0,0,2,,,,,,,,,1,,,57,49
1578720,note_on,240,0,1,,,,,,,,,0,,,80,62
1578720,note_on,480,0,4,,,,,,,,,3,,,36,62
1578960,note_on,0,0,2,,,,,,,,,1,,,69,49
1578960,note_on,240,0,2,,,,,,,,,1,,,57,0
1579200,note_on,0,0,1,,,,,,,,,0,,,81,62
1579200,note_on,480,0,1,,,,,,,,,0,,,80,0
1579200,note_on,240,0,2,,,,,,,,,1,,,69,0
1579200,note_on,0,0,4,,,,,,,,,3,,,37,62
1579200,note_on,480,0,4,,,,,,,,,3,,,36,0
1579200,note_on,0,0,2,,,,,,,,,1,,,64,49
1579200,note_on,0,0,3,,,,,,,,,2,,,49,62
1579200,note_on,480,0,3,,,,,,,,,2,,,48,0
1579440,note_on,240,0,2,,,,,,,,,1,,,64,0
1579440,note_on,240,0,1,,,,,,,,,0,,,81,0
1579440,note_on,240,0,4,,,,,,,,,3,,,37,0
1579440,note_on,240,0,3,,,,,,,,,2,,,49,0
1579440,note_on,0,0,2,,,,,,,,,1,,,69,49
1579680,note_on,240,0,4,,,,,,,,,3,,,37,62
1579680,note_on,240,0,3,,,,,,,,,2,,,49,62
1579680,note_on,240,0,2,,,,,,,,,1,,,69,0
1579680,note_on,240,0,1,,,,,,,,,0,,,77,62
1579680,note_on,0,0,2,,,,,,,,,1,,,65,49
1579920,note_on,240,0,2,,,,,,,,,1,,,65,0
1579920,note_on,0,0,2,,,,,,,,,1,,,69,49
1580160,note_on,0,0,1,,,,,,,,,0,,,78,62
1580160,note_on,0,0,3,,,,,,,,,2,,,50,62
1580160,note_on,480,0,3,,,,,,,,,2,,,49,0
1580160,note_on,240,0,2,,,,,,,,,1,,,69,0
1580160,note_on,480,0,1,,,,,,,,,0,,,77,0
1580160,note_on,480,0,4,,,,,,,,,3,,,37,0
1580160,note_on,0,0,2,,,,,,,,,1,,,66,49
1580160,note_on,0,0,4,,,,,,,,,3,,,38,62
1580400,note_on,240,0,4,,,,,,,,,3,,,38,0
1580400,note_on,240,0,2,,,,,,,,,1,,,66,0
1580400,note_on,240,0,1,,,,,,,,,0,,,78,0
1580400,note_on,0,0,2,,,,,,,,,1,,,69,49
1580400,note_on,240,0,3,,,,,,,,,2,,,50,0
1580640,note_on,240,0,3,,,,,,,,,2,,,53,62
1580640,note_on,240,0,2,,,,,,,,,1,,,69,0
1580640,note_on,0,0,2,,,,,,,,,1,,,61,49
1580640,note_on,240,0,4,,,,,,,,,3,,,41,62
1580640,note_on,240,0,1,,,,,,,,,0,,,73,62
1580880,note_on,0,0,2,,,,,,,,,1,,,69,49
1580880,note_on,240,0,2,,,,,,,,,1,,,61,0
1581120,note_on,0,0,3,,,,,,,,,2,,,54,62
1581120,note_on,0,0,4,,,,,,,,,3,,,42,62
1581120,note_on,0,0,1,,,,,,,,,0,,,74,62
1581120,note_on,480,0,1,,,,,,,,,0,,,73,0
1581120,note_on,480,0,3,,,,,,,,,2,,,53,0
1581120,note_on,480,0,4,,,,,,,,,3,,,41,0
1581120,note_on,240,0,2,,,,,,,,,1,,,69,0
1581120,note_on,0,0,2,,,,,,,,,1,,,62,49
1581360,note_on,240,0,3,,,,,,,,,2,,,54,0
1581360,note_on,240,0,4,,,,,,,,,3,,,42,0
1581360,note_on,0,0,2,,,,,,,,,1,,,69,49
1581360,note_on,240,0,2,,,,,,,,,1,,,62,0
1581360,note_on,240,0,1,,,,,,,,,0,,,74,0
1581600,note_on,240,0,4,,,,,,,,,3,,,43,62
1581600,note_on,0,0,2,,,,,,,,,1,,,69,75
1581600,note_on,0,0,2,,,,,,,,,1,,,64,75
1581600,note_on,240,0,2,,,,,,,,,1,,,69,0
1581600,control_change,240,0,1,,,,,,,,,0,64,127,,
1581600,note_on,0,0,1,,,,,,,,,0,,,76,88
1581600,note_on,0,0,3,,,,,,,,,2,,,57,62
1581600,note_on,240,0,3,,,,,,,,,2,,,55,62
1582320,note_on,0,0,1,,,,,,,,,0,,,78,62
1582320,note_on,720,0,1,,,,,,,,,0,,,76,0
1582560,note_on,240,0,1,,,,,,,,,0,,,78,0
1582560,note_on,0,0,1,,,,,,,,,0,,,76,62
1582800,note_on,240,0,1,,,,,,,,,0,,,76,0
1582800,note_on,0,0,1,,,,,,,,,0,,,74,62
1583040,note_on,0,0,3,,,,,,,,,2,,,55,0
1583040,note_on,0,0,1,,,,,,,,,0,,,73,62
1583040,note_on,1440,0,3,,,,,,,,,2,,,57,0
1583040,note_on,1440,0,4,,,,,,,,,3,,,43,0
1583040,note_on,0,0,4,,,,,,,,,3,,,42,62
1583040,note_on,1440,0,2,,,,,,,,,1,,,69,0
1583040,note_on,0,0,2,,,,,,,,,1,,,64,0
1583040,note_on,0,0,2,,,,,,,,,1,,,62,49
1583040,note_on,240,0,1,,,,,,,,,0,,,74,0
1583040,note_on,0,0,3,,,,,,,,,2,,,54,62
1583280,control_change,0,0,1,,,,,,,,,0,64,0,,
1583280,note_on,240,0,1,,,,,,,,,0,,,73,0
1583280,note_on,0,0,1,,,,,,,,,0,,,71,62
1583460,note_on,180,0,1,,,,,,,,,0,,,71,62
1583520,note_on,0,0,4,,,,,,,,,3,,,40,62
1583520,note_on,0,0,1,,,,,,,,,0,,,69,62
1583520,note_on,480,0,3,,,,,,,,,2,,,54,0
1583520,note_on,60,0,1,,,,,,,,,0,,,71,0
1583520,note_on,0,0,3,,,,,,,,,2,,,57,62
1583520,note_on,0,0,2,,,,,,,,,1,,,61,49
1583520,control_change,0,0,2,,,,,,,,,1,64,127,,
1583520,note_on,480,0,2,,,,,,,,,1,,,62,0
1583520,note_on,480,0,4,,,,,,,,,3,,,42,0
1583520,note_on,0,0,3,,,,,,,,,2,,,52,62
1583520,note_on,0,0,1,,,,,,,,,0,,,71,0
1583567,note_on,47,0,1,,,,,,,,,0,,,69,0
1583567,note_on,47,0,4,,,,,,,,,3,,,40,0
1583567,note_on,47,0,3,,,,,,,,,2,,,57,0
1583567,note_on,0,0,3,,,,,,,,,2,,,52,0
1583760,note_on,240,0,2,,,,,,,,,1,,,61,0
1583760,note_on,0,0,2,,,,,,,,,1,,,64,49
1584000,note_on,240,0,2,,,,,,,,,1,,,64,0
1584000,note_on,0,0,2,,,,,,,,,1,,,61,49
1584000,note_on,433,0,1,,,,,,,,,0,,,69,62
1584000,note_on,433,0,4,,,,,,,,,3,,,40,62
1584000,note_on,433,0,3,,,,,,,,,2,,,52,62
1584000,note_on,0,0,3,,,,,,,,,2,,,57,62
1584047,note_on,47,0,1,,,,,,,,,0,,,69,0
1584047,note_on,47,0,3,,,,,,,,,2,,,57,0
1584047,note_on,0,0,3,,,,,,,,,2,,,52,0
1584047,note_on,47,0,4,,,,,,,,,3,,,40,0
1584240,note_on,240,0,2,,,,,,,,,1,,,61,0
1584240,note_on,0,0,2,,,,,,,,,1,,,64,49
1584420,note_on,373,0,1,,,,,,,,,0,,,69,62
1584480,note_on,240,0,2,,,,,,,,,1,,,64,0
1584480,note_on,0,0,2,,,,,,,,,1,,,62,49
1584480,note_on,433,0,4,,,,,,,,,3,,,40,62
1584480,note_on,0,0,3,,,,,,,,,2,,,59,62
1584480,note_on,433,0,3,,,,,,,,,2,,,52,62
1584480,note_on,60,0,1,,,,,,,,,0,,,69,0
1584480,note_on,0,0,1,,,,,,,,,0,,,68,62
1584527,note_on,0,0,3,,,,,,,,,2,,,52,0
1584527,note_on,47,0,3,,,,,,,,,2,,,59,0
1584527,note_on,47,0,1,,,,,,,,,0,,,68,0
1584527,note_on,47,0,4,,,,,,,,,3,,,40,0
1584720,note_on,0,0,2,,,,,,,,,1,,,64,49
1584720,note_on,240,0,2,,,,,,,,,1,,,62,0
1584960,note_on,433,0,1,,,,,,,,,0,,,68,62
1584960,note_on,433,0,3,,,,,,,,,2,,,52,62
1584960,note_on,433,0,4,,,,,,,,,3,,,40,62
1584960,note_on,0,0,3,,,,,,,,,2,,,59,62
1584960,note_on,240,0,2,,,,,,,,,1,,,64,0
1584960,note_on,0,0,2,,,,,,,,,1,,,62,49
1585007,note_on,47,0,1,,,,,,,,,0,,,68,0
1585007,note_on,47,0,4,,,,,,,,,3,,,40,0
1585007,note_on,47,0,3,,,,,,,,,2,,,59,0
1585007,note_on,0,0,3,,,,,,,,,2,,,52,0
1585200,note_on,0,0,2,,,,,,,,,1,,,64,49
1585200,control_change,0,0,2,,,,,,,,,1,64,0,,
1585200,note_on,240,0,2,,,,,,,,,1,,,62,0
1585440,note_on,433,0,1,,,,,,,,,0,,,69,62
1585440,note_on,0,0,2,,,,,,,,,1,,,61,49
1585440,note_on,433,0,4,,,,,,,,,3,,,45,62
1585440,note_on,240,0,2,,,,,,,,,1,,,64,0
1585440,control_change,433,0,3,,,,,,,,,2,64,127,,
1585440,note_on,0,0,3,,,,,,,,,2,,,52,62
1585440,note_on,0,0,2,,,,,,,,,1,,,57,49
1585920,note_on,480,0,1,,,,,,,,,0,,,69,0
1585920,note_on,480,0,4,,,,,,,,,3,,,45,0
1585920,note_on,0,0,2,,,,,,,,,1,,,57,0
1585920,note_on,480,0,2,,,,,,,,,1,,,61,0
1586160,note_on,720,0,3,,,,,,,,,2,,,52,0
1586160,note_on,0,0,3,,,,,,,,,2,,,54,62
1586400,note_on,480,0,2,,,,,,,,,1,,,61,49
1586400,note_on,0,0,2,,,,,,,,,1,,,64,49
1586400,note_on,0,0,3,,,,,,,,,2,,,52,62
1586400,note_on,480,0,1,,,,,,,,,0,,,68,62
1586400,note_on,240,0,3,,,,,,,,,2,,,54,0
1586447,note_on,47,0,1,,,,,,,,,0,,,68,0
1586640,note_on,240,0,3,,,,,,,,,2,,,52,0
1586640,note_on,0,0,3,,,,,,,,,2,,,50,62
1586880,note_on,240,0,3,,,,,,,,,2,,,50,0
1586880,note_on,0,0,3,,,,,,,,,2,,,49,62
1586880,note_on,480,0,2,,,,,,,,,1,,,64,0
1586880,note_on,0,0,2,,,,,,,,,1,,,61,0
1586880,note_on,433,0,1,,,,,,,,,0,,,69,62
1586927,note_on,47,0,1,,,,,,,,,0,,,69,0
1587120,note_on,240,0,3,,,,,,,,,2,,,49,0
1587120,note_on,0,0,3,,,,,,,,,2,,,47,62
1587360,note_on,240,0,3,,,,,,,,,2,,,47,0
1587360,note_on,0,0,3,,,,,,,,,2,,,46,62
1587360,note_on,1440,0,4,,,,,,,,,3,,,42,62
1587360,note_on,433,0,1,,,,,,,,,0,,,73,62
1587360,control_change,480,0,2,,,,,,,,,1,64,127,,
1587360,control_change,0,0,3,,,,,,,,,2,64,0,,
1587360,note_on,0,0,2,,,,,,,,,1,,,66,88
1587407,note_on,47,0,1,,,,,,,,,0,,,73,0
1587840,note_on,480,0,4,,,,,,,,,3,,,42,0
1587840,note_on,480,0,3,,,,,,,,,2,,,46,0
1588080,note_on,720,0,2,,,,,,,,,1,,,66,0
1588080,note_on,0,0,2,,,,,,,,,1,,,67,62
1588320,note_on,240,0,2,,,,,,,,,1,,,67,0
1588320,note_on,0,0,2,,,,,,,,,1,,,66,62
1588320,note_on,480,0,3,,,,,,,,,2,,,49,62
1588320,note_on,913,0,1,,,,,,,,,0,,,69,62
1588320,note_on,0,0,3,,,,,,,,,2,,,54,62
1588367,note_on,47,0,1,,,,,,,,,0,,,69,0
1588560,note_on,240,0,2,,,,,,,,,1,,,66,0
1588560,note_on,0,0,2,,,,,,,,,1,,,64,62
1588800,note_on,0,0,3,,,,,,,,,2,,,49,0
1588800,note_on,433,0,1,,,,,,,,,0,,,70,62
1588800,note_on,0,0,2,,,,,,,,,1,,,62,62
1588800,note_on,240,0,2,,,,,,,,,1,,,64,0
1588800,note_on,480,0,3,,,,,,,,,2,,,54,0
1588847,note_on,47,0,1,,,,,,,,,0,,,70,0
1589040,note_on,240,0,2,,,,,,,,,1,,,62,0
1589040,control_change,0,0,2,,,,,,,,,1,64,0,,
1589040,note_on,0,0,2,,,,,,,,,1,,,61,62
1589280,note_on,1440,0,4,,,,,,,,,3,,,35,62
1589280,note_on,480,0,3,,,,,,,,,2,,,47,49
1589280,note_on,240,0,2,,,,,,,,,1,,,61,0
1589280,note_on,0,0,2,,,,,,,,,1,,,62,62
1589280,note_on,433,0,1,,,,,,,,,0,,,74,62
1589520,note_on,240,0,3,,,,,,,,,2,,,47,0
1589520,note_on,0,0,3,,,,,,,,,2,,,54,49
1589760,note_on,240,0,3,,,,,,,,,2,,,54,0
1589760,note_on,0,0,3,,,,,,,,,2,,,50,49
1589760,note_on,480,0,2,,,,,,,,,1,,,62,0
1589760,note_on,480,0,4,,,,,,,,,3,,,35,0
1589760,note_on,480,0,1,,,,,,,,,0,,,74,0
1590000,note_on,0,0,3,,,,,,,,,2,,,54,49
1590000,note_on,240,0,3,,,,,,,,,2,,,50,0
1590240,note_on,0,0,3,,,,,,,,,2,,,50,49
1590240,note_on,240,0,3,,,,,,,,,2,,,54,0
1590240,note_on,480,0,2,,,,,,,,,1,,,65,88
1590240,note_on,480,0,4,,,,,,,,,3,,,38,62
1590240,note_on,480,0,1,,,,,,,,,0,,,77,88
1590287,note_on,47,0,2,,,,,,,,,1,,,65,0
1590287,note_on,47,0,1,,,,,,,,,0,,,77,0
1590480,note_on,0,0,3,,,,,,,,,2,,,59,49
1590480,note_on,240,0,3,,,,,,,,,2,,,50,0
1590720,note_on,433,0,1,,,,,,,,,0,,,78,62
1590720,note_on,0,0,3,,,,,,,,,2,,,54,49
1590720,note_on,240,0,3,,,,,,,,,2,,,59,0
1590720,note_on,480,0,4,,,,,,,,,3,,,38,0
1590720,note_on,433,0,2,,,,,,,,,1,,,66,62
1590767,note_on,47,0,2,,,,,,,,,1,,,66,0
1590767,note_on,47,0,1,,,,,,,,,0,,,78,0
1590960,note_on,0,0,3,,,,,,,,,2,,,59,49
1590960,note_on,240,0,3,,,,,,,,,2,,,54,0
1591200,note_on,0,0,3,,,,,,,,,2,,,52,49
1591200,note_on,240,0,3,,,,,,,,,2,,,59,0
1591200,note_on,433,0,2,,,,,,,,,1,,,63,88
1591200,note_on,480,0,4,,,,,,,,,3,,,40,62
1591200,note_on,433,0,1,,,,,,,,,0,,,75,88
1591247,note_on,47,0,1,,,,,,,,,0,,,75,0
1591247,note_on,47,0,2,,,,,,,,,1,,,63,0
1591440,note_on,240,0,3,,,,,,,,,2,,,52,0
1591440,note_on,0,0,3,,,,,,,,,2,,,61,49
1591680,note_on,240,0,3,,,,,,,,,2,,,61,0
1591680,note_on,433,0,1,,,,,,,,,0,,,76,62
1591680,note_on,0,0,3,,,,,,,,,2,,,57,49
1591680,note_on,433,0,2,,,,,,,,,1,,,64,62
1591680,note_on,480,0,4,,,,,,,,,3,,,40,0
1591727,note_on,47,0,1,,,,,,,,,0,,,76,0
1591727,note_on,47,0,2,,,,,,,,,1,,,64,0
1591920,note_on,240,0,3,,,,,,,,,2,,,57,0
1591920,note_on,0,0,3,,,,,,,,,2,,,61,49
1592160,note_on,240,0,3,,,,,,,,,2,,,61,0
1592160,note_on,433,0,1,,,,,,,,,0,,,73,88
1592160,note_on,0,0,3,,,,,,,,,2,,,52,49
1592160,note_on,480,0,4,,,,,,,,,3,,,40,62
1592207,note_on,47,0,1,,,,,,,,,0,,,73,0
1592400,note_on,0,0,3,,,,,,,,,2,,,59,49
1592400,note_on,240,0,3,,,,,,,,,2,,,52,0
1592640,note_on,433,0,1,,,,,,,,,0,,,74,62
1592640,note_on,0,0,3,,,,,,,,,2,,,56,49
1592640,note_on,240,0,3,,,,,,,,,2,,,59,0
1592640,note_on,480,0,4,,,,,,,,,3,,,40,0
1592687,note_on,47,0,1,,,,,,,,,0,,,74,0
1592880,note_on,0,0,3,,,,,,,,,2,,,59,49
1592880,note_on,240,0,3,,,,,,,,,2,,,56,0
1593120,note_on,433,0,1,,,,,,,,,0,,,72,88
1593120,note_on,480,0,4,,,,,,,,,3,,,45,62
1593120,note_on,1393,0,2,,,,,,,,,1,,,64,62
1593120,note_on,0,0,3,,,,,,,,,2,,,61,49
1593120,note_on,240,0,3,,,,,,,,,2,,,59,0
1593120,note_on,0,0,3,,,,,,,,,2,,,52,49
1593120,note_on,0,0,3,,,,,,,,,2,,,57,49
1593167,note_on,47,0,1,,,,,,,,,0,,,72,0
1593600,note_on,480,0,3,,,,,,,,,2,,,61,0
1593600,note_on,433,0,1,,,,,,,,,0,,,73,62
1593600,note_on,0,0,3,,,,,,,,,2,,,57,0
1593600,note_on,480,0,4,,,,,,,,,3,,,45,0
1593600,note_on,0,0,3,,,,,,,,,2,,,52,0
1593647,note_on,47,0,1,,,,,,,,,0,,,73,0
1593840,note_on,720,0,2,,,,,,,,,1,,,64,0
1593840,note_on,0,0,2,,,,,,,,,1,,,66,62
1594080,note_on,433,0,1,,,,,,,,,0,,,80,62
1594080,note_on,480,0,3,,,,,,,,,2,,,49,49
1594080,note_on,0,0,2,,,,,,,,,1,,,64,62
1594080,note_on,0,0,3,,,,,,,,,2,,,52,49
1594080,note_on,240,0,2,,,,,,,,,1,,,66,0
1594127,note_on,47,0,1,,,,,,,,,0,,,80,0
1594320,note_on,0,0,2,,,,,,,,,1,,,62,62
1594320,note_on,240,0,2,,,,,,,,,1,,,64,0
1594560,note_on,433,0,1,,,,,,,,,0,,,81,62
1594560,note_on,0,0,2,,,,,,,,,1,,,61,62
1594560,note_on,240,0,2,,,,,,,,,1,,,62,0
1594560,note_on,480,0,3,,,,,,,,,2,,,52,0
1594560,note_on,0,0,3,,,,,,,,,2,,,49,0
1594607,note_on,47,0,1,,,,,,,,,0,,,81,0
1594800,note_on,240,0,2,,,,,,,,,1,,,61,0
1594800,note_on,0,0,2,,,,,,,,,1,,,59,62
1595040,note_on,433,0,1,,,,,,,,,0,,,85,62
1595040,note_on,240,0,2,,,,,,,,,1,,,59,0
1595040,note_on,0,0,2,,,,,,,,,1,,,61,62
1595040,note_on,480,0,3,,,,,,,,,2,,,49,75
1595040,note_on,0,0,3,,,,,,,,,2,,,54,75
1595040,note_on,1440,0,4,,,,,,,,,3,,,42,62
1595087,note_on,47,0,1,,,,,,,,,0,,,85,0
1595520,note_on,0,0,3,,,,,,,,,2,,,49,0
1595520,note_on,480,0,2,,,,,,,,,1,,,61,0
1595520,note_on,480,0,3,,,,,,,,,2,,,54,0
1595760,note_on,0,0,4,,,,,,,,,3,,,43,62
1595760,note_on,720,0,4,,,,,,,,,3,,,42,0
1596000,note_on,913,0,1,,,,,,,,,0,,,81,62
1596000,note_on,480,0,2,,,,,,,,,1,,,69,62
1596000,note_on,480,0,3,,,,,,,,,2,,,49,49
1596000,note_on,0,0,3,,,,,,,,,2,,,54,49
1596000,note_on,0,0,3,,,,,,,,,2,,,58,49
1596000,note_on,240,0,4,,,,,,,,,3,,,43,0
1596000,note_on,0,0,4,,,,,,,,,3,,,42,62
1596047,note_on,47,0,1,,,,,,,,,0,,,81,0
1596047,note_on,47,0,2,,,,,,,,,1,,,69,0
1596240,note_on,240,0,4,,,,,,,,,3,,,42,0
1596240,note_on,0,0,4,,,,,,,,,3,,,40,62
1596480,note_on,433,0,1,,,,,,,,,0,,,82,62
1596480,note_on,0,0,4,,,,,,,,,3,,,38,62
1596480,note_on,0,0,3,,,,,,,,,2,,,49,0
1596480,note_on,0,0,3,,,,,,,,,2,,,54,0
1596480,note_on,480,0,3,,,,,,,,,2,,,58,0
1596480,note_on,433,0,2,,,,,,,,,1,,,70,62
1596480,note_on,240,0,4,,,,,,,,,3,,,40,0
1596527,note_on,47,0,1,,,,,,,,,0,,,82,0
1596527,note_on,47,0,2,,,,,,,,,1,,,70,0
1596720,note_on,240,0,4,,,,,,,,,3,,,38,0
1596720,note_on,0,0,4,,,,,,,,,3,,,37,62
1596960,note_on,480,0,3,,,,,,,,,2,,,50,49
1596960,note_on,0,0,4,,,,,,,,,3,,,35,62
1596960,note_on,240,0,4,,,,,,,,,3,,,37,0
1596960,note_on,433,0,1,,,,,,,,,0,,,86,62
1596960,note_on,433,0,2,,,,,,,,,1,,,74,62
1597007,note_on,47,0,2,,,,,,,,,1,,,74,0
1597007,note_on,47,0,1,,,,,,,,,0,,,86,0
1597200,note_on,240,0,3,,,,,,,,,2,,,50,0
1597200,note_on,0,0,3,,,,,,,,,2,,,59,49
1597440,note_on,480,0,4,,,,,,,,,3,,,35,0
1597440,note_on,0,0,3,,,,,,,,,2,,,54,49
1597440,note_on,240,0,3,,,,,,,,,2,,,59,0
1597680,note_on,240,0,3,,,,,,,,,2,,,54,0
1597680,note_on,0,0,3,,,,,,,,,2,,,59,49
1597920,note_on,913,0,2,,,,,,,,,1,,,77,88
1597920,note_on,480,0,4,,,,,,,,,3,,,38,62
1597920,note_on,0,0,3,,,,,,,,,2,,,50,49
1597920,note_on,913,0,1,,,,,,,,,0,,,89,88
1597920,note_on,240,0,3,,,,,,,,,2,,,59,0
1597967,note_on,47,0,1,,,,,,,,,0,,,89,0
1597967,note_on,47,0,2,,,,,,,,,1,,,77,0
1598160,note_on,240,0,3,,,,,,,,,2,,,50,0
1598160,note_on,0,0,3,,,,,,,,,2,,,59,49
1598400,note_on,480,0,4,,,,,,,,,3,,,38,0
1598400,note_on,433,0,1,,,,,,,,,0,,,90,62
1598400,note_on,0,0,3,,,,,,,,,2,,,54,49
1598400,note_on,240,0,3,,,,,,,,,2,,,59,0
1598400,note_on,433,0,2,,,,,,,,,1,,,78,62
1598447,note_on,47,0,2,,,,,,,,,1,,,78,0
1598447,note_on,47,0,1,,,,,,,,,0,,,90,0
1598640,note_on,240,0,3,,,,,,,,,2,,,54,0
1598640,note_on,0,0,3,,,,,,,,,2,,,59,49
1598880,note_on,480,0,4,,,,,,,,,3,,,40,62
1598880,note_on,433,0,2,,,,,,,,,1,,,75,88
1598880,note_on,433,0,1,,,,,,,,,0,,,87,88
1598880,note_on,240,0,3,,,,,,,,,2,,,59,0
1598880,note_on,0,0,3,,,,,,,,,2,,,52,49
1598927,note_on,47,0,1,,,,,,,,,0,,,87,0
1598927,note_on,47,0,2,,,,,,,,,1,,,75,0
1599120,note_on,240,0,3,,,,,,,,,2,,,52,0
1599120,note_on,0,0,3,,,,,,,,,2,,,61,49
1599360,note_on,433,0,1,,,,,,,,,0,,,88,62
1599360,note_on,240,0,3,,,,,,,,,2,,,61,0
1599360,note_on,0,0,3,,,,,,,,,2,,,57,49
1599360,note_on,480,0,4,,,,,,,,,3,,,40,0
1599360,note_on,433,0,2,,,,,,,,,1,,,76,62
1599407,note_on,47,0,2,,,,,,,,,1,,,76,0
1599407,note_on,47,0,1,,,,,,,,,0,,,88,0
1599600,note_on,240,0,3,,,,,,,,,2,,,57,0
1599600,note_on,0,0,3,,,,,,,,,2,,,61,49
1599840,note_on,433,0,2,,,,,,,,,1,,,73,88
1599840,note_on,240,0,3,,,,,,,,,2,,,61,0
1599840,note_on,0,0,3,,,,,,,,,2,,,56,49
1599840,note_on,480,0,4,,,,,,,,,3,,,41,62
1599840,note_on,433,0,1,,,,,,,,,0,,,85,88
1599887,note_on,47,0,2,,,,,,,,,1,,,73,0
1599887,note_on,47,0,1,,,,,,,,,0,,,85,0
1600080,note_on,240,0,3,,,,,,,,,2,,,56,0
1600080,note_on,0,0,3,,,,,,,,,2,,,62,49
1600320,note_on,240,0,3,,,,,,,,,2,,,62,0
1600320,note_on,480,0,4,,,,,,,,,3,,,41,0
1600320,note_on,0,0,3,,,,,,,,,2,,,59,49
1600320,note_on,433,0,2,,,,,,,,,1,,,74,62
1600320,note_on,433,0,1,,,,,,,,,0,,,86,62
1600367,note_on,47,0,1,,,,,,,,,0,,,86,0
1600367,note_on,47,0,2,,,,,,,,,1,,,74,0
1600560,note_on,0,0,3,,,,,,,,,2,,,62,49
1600560,note_on,240,0,3,,,,,,,,,2,,,59,0
1600800,note_on,240,0,3,,,,,,,,,2,,,62,0
1600800,note_on,0,0,3,,,,,,,,,2,,,49,49
1600800,note_on,433,0,2,,,,,,,,,1,,,72,88
1600800,note_on,480,0,4,,,,,,,,,3,,,42,62
1600800,note_on,433,0,1,,,,,,,,,0,,,84,88
1600847,note_on,47,0,2,,,,,,,,,1,,,72,0
1600847,note_on,47,0,1,,,,,,,,,0,,,84,0
1601040,note_on,240,0,3,,,,,,,,,2,,,49,0
1601040,note_on,0,0,3,,,,,,,,,2,,,61,49
1601280,note_on,240,0,3,,,,,,,,,2,,,61,0
1601280,note_on,433,0,2,,,,,,,,,1,,,73,62
1601280,note_on,480,0,4,,,,,,,,,3,,,42,0
1601280,note_on,0,0,3,,,,,,,,,2,,,57,49
1601280,note_on,433,0,1,,,,,,,,,0,,,85,62
1601327,note_on,47,0,1,,,,,,,,,0,,,85,0
1601327,note_on,47,0,2,,,,,,,,,1,,,73,0
1601520,note_on,240,0,3,,,,,,,,,2,,,57,0
1601520,note_on,0,0,3,,,,,,,,,2,,,61,49
1601760,set_tempo,154560,1,0,,,,,,312500,,,,,,,
1601760,note_on,433,0,1,,,,,,,,,0,,,78,88
1601760,note_on,480,0,4,,,,,,,,,3,,,38,88
1601760,note_on,433,0,2,,,,,,,,,1,,,66,88
1601760,note_on,0,0,3,,,,,,,,,2,,,50,88
1601760,note_on,240,0,3,,,,,,,,,2,,,61,0
1601807,note_on,47,0,1,,,,,,,,,0,,,78,0
1601807,note_on,47,0,2,,,,,,,,,1,,,66,0
1602000,note_on,0,0,3,,,,,,,,,2,,,59,88
1602000,note_on,240,0,3,,,,,,,,,2,,,50,0
1602240,note_on,433,0,2,,,,,,,,,1,,,71,88
1602240,note_on,0,0,2,,,,,,,,,1,,,74,88
1602240,note_on,480,0,4,,,,,,,,,3,,,38,0
1602240,note_on,240,0,3,,,,,,,,,2,,,59,0
1602240,note_on,0,0,1,,,,,,,,,0,,,86,88
1602240,note_on,433,0,1,,,,,,,,,0,,,83,88
1602240,note_on,0,0,3,,,,,,,,,2,,,54,88
1602287,note_on,0,0,1,,,,,,,,,0,,,83,0
1602287,note_on,47,0,1,,,,,,,,,0,,,86,0
1602287,note_on,0,0,2,,,,,,,,,1,,,71,0
1602287,note_on,47,0,2,,,,,,,,,1,,,74,0
1602480,note_on,240,0,3,,,,,,,,,2,,,54,0
1602480,note_on,0,0,3,,,,,,,,,2,,,59,88
1602720,note_on,0,0,3,,,,,,,,,2,,,57,101
1602720,note_on,433,0,2,,,,,,,,,1,,,64,101
1602720,note_on,480,0,4,,,,,,,,,3,,,40,101
1602720,note_on,240,0,3,,,,,,,,,2,,,59,0
1602720,note_on,433,0,1,,,,,,,,,0,,,76,101
1602767,note_on,47,0,1,,,,,,,,,0,,,76,0
1602767,note_on,47,0,2,,,,,,,,,1,,,64,0
1602960,note_on,240,0,3,,,,,,,,,2,,,57,0
1602960,note_on,0,0,3,,,,,,,,,2,,,61,101
1603200,note_on,480,0,4,,,,,,,,,3,,,40,0
1603200,note_on,0,0,1,,,,,,,,,0,,,85,101
1603200,note_on,240,0,3,,,,,,,,,2,,,61,0
1603200,note_on,0,0,3,,,,,,,,,2,,,52,101
1603200,note_on,433,0,2,,,,,,,,,1,,,69,101
1603200,note_on,0,0,2,,,,,,,,,1,,,73,101
1603200,note_on,433,0,1,,,,,,,,,0,,,81,101
1603247,note_on,47,0,2,,,,,,,,,1,,,73,0
1603247,note_on,47,0,1,,,,,,,,,0,,,85,0
1603247,note_on,0,0,1,,,,,,,,,0,,,81,0
1603247,note_on,0,0,2,,,,,,,,,1,,,69,0
1603440,note_on,240,0,3,,,,,,,,,2,,,52,0
1603440,note_on,0,0,3,,,,,,,,,2,,,61,101
1603680,note_on,480,0,4,,,,,,,,,3,,,40,114
1603680,note_on,433,0,2,,,,,,,,,1,,,64,114
1603680,note_on,240,0,3,,,,,,,,,2,,,61,0
1603680,note_on,433,0,1,,,,,,,,,0,,,76,114
1603680,note_on,0,0,3,,,,,,,,,2,,,56,114
1603727,note_on,47,0,1,,,,,,,,,0,,,76,0
1603727,note_on,47,0,2,,,,,,,,,1,,,64,0
1603920,note_on,240,0,3,,,,,,,,,2,,,56,0
1603920,note_on,0,0,3,,,,,,,,,2,,,59,114
1604160,note_on,433,0,1,,,,,,,,,0,,,80,114
1604160,note_on,480,0,4,,,,,,,,,3,,,40,0
1604160,note_on,240,0,3,,,,,,,,,2,,,59,0
1604160,note_on,0,0,3,,,,,,,,,2,,,52,114
1604160,note_on,0,0,2,,,,,,,,,1,,,71,114
1604160,note_on,433,0,2,,,,,,,,,1,,,68,114
1604160,note_on,0,0,1,,,,,,,,,0,,,83,114
1604207,note_on,47,0,2,,,,,,,,,1,,,71,0
1604207,note_on,0,0,2,,,,,,,,,1,,,68,0
1604207,note_on,0,0,1,,,,,,,,,0,,,80,0
1604207,note_on,47,0,1,,,,,,,,,0,,,83,0
1604400,note_on,0,0,3,,,,,,,,,2,,,59,114
1604400,note_on,240,0,3,,,,,,,,,2,,,52,0
1604640,key_signature,2880,1,0,,,,,C,,,,,,,,
1604640,note_on,240,0,3,,,,,,,,,2,,,59,0
1604640,set_tempo,0,1,0,,,,,,270270,,,,,,,
1606080,note_on,0,0,1,,,,,,,,,0,,,88,101
1606080,note_on,0,0,1,,,,,,,,,0,,,93,101
1606080,note_on,0,0,3,,,,,,,,,2,,,57,101
1606080,note_on,1440,0,3,,,,,,,,,2,,,45,101
1606080,note_on,1873,0,1,,,,,,,,,0,,,84,101
1606080,note_on,1920,0,4,,,,,,,,,3,,,33,101
1606080,note_on,0,0,2,,,,,,,,,1,,,81,101
1606080,note_on,0,0,2,,,,,,,,,1,,,76,101
1606080,note_on,1873,0,2,,,,,,,,,1,,,72,101
1606320,note_on,0,0,4,,,,,,,,,3,,,33,101
1606320,note_on,0,0,2,,,,,,,,,1,,,81,101
1606320,note_on,0,0,2,,,,,,,,,1,,,76,101
1606320,note_on,0,0,2,,,,,,,,,1,,,72,101
1606320,note_on,0,0,2,,,,,,,,,1,,,72,0
1606320,note_on,0,0,2,,,,,,,,,1,,,76,0
1606320,note_on,240,0,2,,,,,,,,,1,,,81,0
1606320,note_on,0,0,3,,,,,,,,,2,,,45,0
1606320,note_on,0,0,3,,,,,,,,,2,,,45,101
1606320,note_on,240,0,4,,,,,,,,,3,,,33,0
1606320,note_on,240,0,1,,,,,,,,,0,,,93,0
1606320,note_on,240,0,3,,,,,,,,,2,,,57,0
1606320,note_on,0,0,3,,,,,,,,,2,,,57,101
1606320,note_on,0,0,1,,,,,,,,,0,,,88,0
1606320,note_on,0,0,1,,,,,,,,,0,,,84,0
1606320,note_on,0,0,1,,,,,,,,,0,,,84,101
1606320,note_on,0,0,1,,,,,,,,,0,,,88,101
1606320,note_on,0,0,1,,,,,,,,,0,,,93,101
1606560,note_on,240,0,4,,,,,,,,,3,,,33,0
1606560,note_on,0,0,4,,,,,,,,,3,,,33,101
1606560,note_on,240,0,3,,,,,,,,,2,,,57,0
1606560,note_on,0,0,3,,,,,,,,,2,,,45,0
1606560,note_on,0,0,3,,,,,,,,,2,,,45,101
1606560,note_on,0,0,3,,,,,,,,,2,,,57,101
1606560,note_on,0,0,2,,,,,,,,,1,,,81,127
1606560,note_on,0,0,2,,,,,,,,,1,,,76,127
1606560,note_on,0,0,2,,,,,,,,,1,,,72,127
1606560,note_on,0,0,2,,,,,,,,,1,,,72,0
1606560,note_on,0,0,2,,,,,,,,,1,,,76,0
1606560,note_on,240,0,2,,,,,,,,,1,,,81,0
1606560,note_on,0,0,1,,,,,,,,,0,,,93,127
1606560,note_on,0,0,1,,,,,,,,,0,,,88,127
1606560,note_on,0,0,1,,,,,,,,,0,,,84,127
1606560,note_on,0,0,1,,,,,,,,,0,,,84,0
1606560,note_on,0,0,1,,,,,,,,,0,,,88,0
1606560,note_on,240,0,1,,,,,,,,,0,,,93,0
1608000,note_on,0,0,3,,,,,,,,,2,,,45,0
1608000,note_on,1440,0,3,,,,,,,,,2,,,57,0
1608000,note_on,0,0,1,,,,,,,,,0,,,88,101
1608000,note_on,0,0,1,,,,,,,,,0,,,84,101
1608000,note_on,0,0,1,,,,,,,,,0,,,81,101
1608000,note_on,0,0,2,,,,,,,,,1,,,72,0
1608000,note_on,0,0,1,,,,,,,,,0,,,88,0
1608000,note_on,1440,0,1,,,,,,,,,0,,,93,0
1608000,note_on,1440,0,4,,,,,,,,,3,,,33,0
1608000,note_on,0,0,2,,,,,,,,,1,,,76,101
1608000,note_on,0,0,2,,,,,,,,,1,,,72,101
1608000,note_on,0,0,2,,,,,,,,,1,,,69,101
1608000,note_on,0,0,3,,,,,,,,,2,,,45,101
1608000,note_on,0,0,2,,,,,,,,,1,,,76,0
1608000,note_on,1440,0,2,,,,,,,,,1,,,81,0
1608000,note_on,0,0,1,,,,,,,,,0,,,84,0
1608000,note_on,0,0,3,,,,,,,,,2,,,57,101
1608000,note_on,0,0,4,,,,,,,,,3,,,33,101
1608240,note_on,0,0,1,,,,,,,,,0,,,88,101
1608240,note_on,0,0,4,,,,,,,,,3,,,33,101
1608240,note_on,0,0,2,,,,,,,,,1,,,76,101
1608240,note_on,240,0,1,,,,,,,,,0,,,88,0
1608240,note_on,0,0,1,,,,,,,,,0,,,84,0
1608240,note_on,0,0,1,,,,,,,,,0,,,81,0
1608240,note_on,0,0,1,,,,,,,,,0,,,81,101
1608240,note_on,0,0,1,,,,,,,,,0,,,84,101
1608240,note_on,0,0,2,,,,,,,,,1,,,72,101
1608240,note_on,0,0,2,,,,,,,,,1,,,69,101
1608240,note_on,0,0,2,,,,,,,,,1,,,69,0
1608240,note_on,0,0,2,,,,,,,,,1,,,72,0
1608240,note_on,240,0,2,,,,,,,,,1,,,76,0
1608240,note_on,240,0,4,,,,,,,,,3,,,33,0
1608240,note_on,240,0,3,,,,,,,,,2,,,57,0
1608240,note_on,0,0,3,,,,,,,,,2,,,45,0
1608240,note_on,0,0,3,,,,,,,,,2,,,45,101
1608240,note_on,0,0,3,,,,,,,,,2,,,57,101
1608480,note_on,0,0,4,,,,,,,,,3,,,33,101
1608480,note_on,0,0,2,,,,,,,,,1,,,76,127
1608480,note_on,0,0,2,,,,,,,,,1,,,72,127
1608480,note_on,0,0,2,,,,,,,,,1,,,69,127
1608480,note_on,0,0,2,,,,,,,,,1,,,69,0
1608480,note_on,0,0,2,,,,,,,,,1,,,72,0
1608480,note_on,240,0,2,,,,,,,,,1,,,76,0
1608480,note_on,0,0,3,,,,,,,,,2,,,57,101
1608480,note_on,0,0,3,,,,,,,,,2,,,45,101
1608480,note_on,0,0,3,,,,,,,,,2,,,45,0
1608480,note_on,240,0,3,,,,,,,,,2,,,57,0
1608480,note_on,240,0,4,,,,,,,,,3,,,33,0
1608480,note_on,240,0,1,,,,,,,,,0,,,88,0
1608480,note_on,0,0,1,,,,,,,,,0,,,84,0
1608480,note_on,0,0,1,,,,,,,,,0,,,81,0
1608480,note_on,0,0,1,,,,,,,,,0,,,84,127
1608480,note_on,0,0,1,,,,,,,,,0,,,88,127
1608480,note_on,0,0,1,,,,,,,,,0,,,81,127
1608960,note_on,0,0,2,,,,,,,,,1,,,64,101
1608960,note_on,0,0,2,,,,,,,,,1,,,69,0
1608960,note_on,0,0,2,,,,,,,,,1,,,69,101
1608960,note_on,0,0,3,,,,,,,,,2,,,45,101
1608960,note_on,480,0,2,,,,,,,,,1,,,76,0
1608960,note_on,0,0,2,,,,,,,,,1,,,72,101
1608960,note_on,0,0,1,,,,,,,,,0,,,84,101
1608960,note_on,0,0,1,,,,,,,,,0,,,81,101
1608960,note_on,0,0,1,,,,,,,,,0,,,76,101
1608960,note_on,0,0,1,,,,,,,,,0,,,81,0
1608960,note_on,0,0,2,,,,,,,,,1,,,72,0
1608960,note_on,0,0,3,,,,,,,,,2,,,57,101
1608960,note_on,0,0,1,,,,,,,,,0,,,84,0
1608960,note_on,0,0,3,,,,,,,,,2,,,45,0
1608960,note_on,480,0,3,,,,,,,,,2,,,57,0
1608960,note_on,0,0,4,,,,,,,,,3,,,33,101
1608960,note_on,480,0,4,,,,,,,,,3,,,33,0
1608960,note_on,480,0,1,,,,,,,,,0,,,88,0
1609200,note_on,0,0,2,,,,,,,,,1,,,64,101
1609200,note_on,240,0,2,,,,,,,,,1,,,72,0
1609200,note_on,0,0,2,,,,,,,,,1,,,69,0
1609200,note_on,0,0,2,,,,,,,,,1,,,64,0
1609200,note_on,0,0,3,,,,,,,,,2,,,45,101
1609200,note_on,0,0,2,,,,,,,,,1,,,69,101
1609200,note_on,0,0,2,,,,,,,,,1,,,72,101
1609200,note_on,0,0,4,,,,,,,,,3,,,33,101
1609200,note_on,240,0,4,,,,,,,,,3,,,33,0
1609200,note_on,0,0,1,,,,,,,,,0,,,84,101
1609200,note_on,0,0,1,,,,,,,,,0,,,81,101
1609200,note_on,0,0,1,,,,,,,,,0,,,76,101
1609200,note_on,0,0,1,,,,,,,,,0,,,76,0
1609200,note_on,0,0,1,,,,,,,,,0,,,81,0
1609200,note_on,240,0,1,,,,,,,,,0,,,84,0
1609200,note_on,0,0,3,,,,,,,,,2,,,45,0
1609200,note_on,240,0,3,,,,,,,,,2,,,57,0
1609200,note_on,0,0,3,,,,,,,,,2,,,57,101
1609440,note_on,240,0,3,,,,,,,,,2,,,57,0
1609440,note_on,0,0,4,,,,,,,,,3,,,33,101
1609440,note_on,0,0,1,,,,,,,,,0,,,81,127
1609440,note_on,0,0,1,,,,,,,,,0,,,76,127
1609440,note_on,0,0,3,,,,,,,,,2,,,45,0
1609440,note_on,0,0,1,,,,,,,,,0,,,84,127
1609440,note_on,240,0,2,,,,,,,,,1,,,72,0
1609440,note_on,0,0,2,,,,,,,,,1,,,69,0
1609440,note_on,0,0,2,,,,,,,,,1,,,64,0
1609440,note_on,0,0,2,,,,,,,,,1,,,64,127
1609440,note_on,0,0,2,,,,,,,,,1,,,69,127
1609440,note_on,0,0,2,,,,,,,,,1,,,72,127
1609440,note_on,0,0,1,,,,,,,,,0,,,76,0
1609440,note_on,0,0,1,,,,,,,,,0,,,81,0
1609440,note_on,240,0,1,,,,,,,,,0,,,84,0
1609440,note_on,240,0,4,,,,,,,,,3,,,33,0
1609440,note_on,0,0,3,,,,,,,,,2,,,45,101
1609440,note_on,0,0,3,,,,,,,,,2,,,57,101
1609920,note_on,480,0,4,,,,,,,,,3,,,33,0
1609920,note_on,0,0,1,,,,,,,,,0,,,76,0
1609920,note_on,0,0,1,,,,,,,,,0,,,81,0
1609920,note_on,480,0,1,,,,,,,,,0,,,84,0
1609920,note_on,0,0,1,,,,,,,,,0,,,72,101
1609920,note_on,0,0,1,,,,,,,,,0,,,76,101
1609920,note_on,0,0,2,,,,,,,,,1,,,64,101
1609920,note_on,480,0,3,,,,,,,,,2,,,57,0
1609920,note_on,0,0,4,,,,,,,,,3,,,33,101
1609920,note_on,0,0,2,,,,,,,,,1,,,69,101
1609920,note_on,0,0,1,,,,,,,,,0,,,81,101
1609920,note_on,0,0,2,,,,,,,,,1,,,64,0
1609920,note_on,0,0,2,,,,,,,,,1,,,69,0
1609920,note_on,480,0,2,,,,,,,,,1,,,72,0
1609920,note_on,0,0,2,,,,,,,,,1,,,60,101
1609920,note_on,0,0,3,,,,,,,,,2,,,57,101
1609920,note_on,0,0,3,,,,,,,,,2,,,45,101
1609920,note_on,0,0,3,,,,,,,,,2,,,45,0
1610160,note_on,0,0,3,,,,,,,,,2,,,45,101
1610160,note_on,240,0,3,,,,,,,,,2,,,57,0
1610160,note_on,240,0,2,,,,,,,,,1,,,69,0
1610160,note_on,0,0,2,,,,,,,,,1,,,64,0
1610160,note_on,0,0,2,,,,,,,,,1,,,60,0
1610160,note_on,0,0,2,,,,,,,,,1,,,60,101
1610160,note_on,0,0,2,,,,,,,,,1,,,64,101
1610160,note_on,0,0,4,,,,,,,,,3,,,33,101
1610160,note_on,240,0,4,,,,,,,,,3,,,33,0
1610160,note_on,0,0,3,,,,,,,,,2,,,57,101
1610160,note_on,0,0,3,,,,,,,,,2,,,45,0
1610160,note_on,0,0,2,,,,,,,,,1,,,69,101
1610160,note_on,240,0,1,,,,,,,,,0,,,81,0
1610160,note_on,0,0,1,,,,,,,,,0,,,72,0
1610160,note_on,0,0,1,,,,,,,,,0,,,81,101
1610160,note_on,0,0,1,,,,,,,,,0,,,72,101
1610160,note_on,0,0,1,,,,,,,,,0,,,76,101
1610160,note_on,0,0,1,,,,,,,,,0,,,76,0
1610400,note_on,0,0,1,,,,,,,,,0,,,72,127
1610400,note_on,240,0,3,,,,,,,,,2,,,57,0
1610400,note_on,0,0,3,,,,,,,,,2,,,45,0
1610400,note_on,0,0,3,,,,,,,,,2,,,45,127
1610400,note_on,0,0,3,,,,,,,,,2,,,57,127
1610400,note_on,0,0,4,,,,,,,,,3,,,33,127
1610400,note_on,240,0,1,,,,,,,,,0,,,81,0
1610400,note_on,0,0,1,,,,,,,,,0,,,76,127
1610400,note_on,0,0,1,,,,,,,,,0,,,76,0
1610400,note_on,240,0,2,,,,,,,,,1,,,69,0
1610400,note_on,0,0,1,,,,,,,,,0,,,81,127
1610400,note_on,0,0,2,,,,,,,,,1,,,60,0
1610400,note_on,0,0,2,,,,,,,,,1,,,60,127
1610400,note_on,0,0,2,,,,,,,,,1,,,64,127
1610400,note_on,0,0,2,,,,,,,,,1,,,69,127
1610400,note_on,0,0,1,,,,,,,,,0,,,72,0
1610400,note_on,240,0,4,,,,,,,,,3,,,33,0
1610400,note_on,0,0,2,,,,,,,,,1,,,64,0
1610880,note_on,0,0,1,,,,,,,,,0,,,76,101
1610880,note_on,0,0,1,,,,,,,,,0,,,79,101
1610880,note_on,0,0,2,,,,,,,,,1,,,60,0
1610880,note_on,480,0,2,,,,,,,,,1,,,69,0
1610880,note_on,0,0,2,,,,,,,,,1,,,67,101
1610880,note_on,0,0,2,,,,,,,,,1,,,64,101
1610880,note_on,0,0,2,,,,,,,,,1,,,61,101
1610880,note_on,0,0,1,,,,,,,,,0,,,73,101
1610880,note_on,0,0,1,,,,,,,,,0,,,72,0
1610880,note_on,0,0,2,,,,,,,,,1,,,64,0
1610880,note_on,480,0,1,,,,,,,,,0,,,81,0
1610880,note_on,480,0,3,,,,,,,,,2,,,57,0
1610880,note_on,0,0,3,,,,,,,,,2,,,45,0
1610880,note_on,480,0,4,,,,,,,,,3,,,33,0
1610880,note_on,0,0,4,,,,,,,,,3,,,33,101
1610880,note_on,0,0,3,,,,,,,,,2,,,45,101
1610880,note_on,0,0,1,,,,,,,,,0,,,76,0
1610880,note_on,0,0,3,,,,,,,,,2,,,57,101
1611360,note_on,480,0,2,,,,,,,,,1,,,67,0
1611360,note_on,0,0,2,,,,,,,,,1,,,64,0
1611360,note_on,0,0,2,,,,,,,,,1,,,61,0
1611360,note_on,0,0,3,,,,,,,,,2,,,45,0
1611360,note_on,480,0,4,,,,,,,,,3,,,33,0
1611360,note_on,480,0,3,,,,,,,,,2,,,57,0
1611360,note_on,0,0,1,,,,,,,,,0,,,73,0
1611360,note_on,480,0,1,,,,,,,,,0,,,79,0
1611360,note_on,0,0,1,,,,,,,,,0,,,76,0
1611840,note_on,0,0,2,,,,,,,,,1,,,67,101
1611840,note_on,0,0,3,,,,,,,,,2,,,57,101
1611840,note_on,480,0,3,,,,,,,,,2,,,45,101
1611840,note_on,0,0,2,,,,,,,,,1,,,64,101
1611840,note_on,480,0,2,,,,,,,,,1,,,61,101
1611840,note_on,0,0,1,,,,,,,,,0,,,76,101
1611840,note_on,480,0,1,,,,,,,,,0,,,73,101
1611840,note_on,480,0,4,,,,,,,,,3,,,33,101
1611840,note_on,0,0,1,,,,,,,,,0,,,79,101
1612080,note_on,0,0,2,,,,,,,,,1,,,61,0
1612080,note_on,0,0,3,,,,,,,,,2,,,57,101
1612080,note_on,240,0,2,,,,,,,,,1,,,67,0
1612080,note_on,0,0,2,,,,,,,,,1,,,64,0
1612080,note_on,0,0,2,,,,,,,,,1,,,61,101
1612080,note_on,0,0,1,,,,,,,,,0,,,79,101
1612080,note_on,0,0,1,,,,,,,,,0,,,76,101
1612080,note_on,0,0,3,,,,,,,,,2,,,45,101
1612080,note_on,0,0,3,,,,,,,,,2,,,45,0
1612080,note_on,240,0,3,,,,,,,,,2,,,57,0
1612080,note_on,240,0,1,,,,,,,,,0,,,79,0
1612080,note_on,0,0,1,,,,,,,,,0,,,76,0
1612080,note_on,0,0,4,,,,,,,,,3,,,33,101
1612080,note_on,240,0,4,,,,,,,,,3,,,33,0
1612080,note_on,0,0,1,,,,,,,,,0,,,73,0
1612080,note_on,0,0,1,,,,,,,,,0,,,73,101
1612080,note_on,0,0,2,,,,,,,,,1,,,64,101
1612080,note_on,0,0,2,,,,,,,,,1,,,67,101
1612320,note_on,0,0,4,,,,,,,,,3,,,33,127
1612320,note_on,240,0,4,,,,,,,,,3,,,33,0
1612320,note_on,0,0,3,,,,,,,,,2,,,57,127
1612320,note_on,0,0,2,,,,,,,,,1,,,64,0
1612320,note_on,0,0,3,,,,,,,,,2,,,45,127
1612320,note_on,0,0,3,,,,,,,,,2,,,45,0
1612320,note_on,240,0,3,,,,,,,,,2,,,57,0
1612320,note_on,240,0,1,,,,,,,,,0,,,79,0
1612320,note_on,0,0,1,,,,,,,,,0,,,73,0
1612320,note_on,0,0,1,,,,,,,,,0,,,73,127
1612320,note_on,0,0,1,,,,,,,,,0,,,76,127
1612320,note_on,0,0,1,,,,,,,,,0,,,79,127
1612320,note_on,0,0,1,,,,,,,,,0,,,76,0
1612320,note_on,0,0,2,,,,,,,,,1,,,67,127
1612320,note_on,0,0,2,,,,,,,,,1,,,64,127
1612320,note_on,0,0,2,,,,,,,,,1,,,61,127
1612320,note_on,0,0,2,,,,,,,,,1,,,61,0
1612320,note_on,240,0,2,,,,,,,,,1,,,67,0
1612800,note_on,480,0,4,,,,,,,,,3,,,33,0
1612800,note_on,0,0,4,,,,,,,,,3,,,34,101
1612800,note_on,0,0,2,,,,,,,,,1,,,65,101
1612800,note_on,480,0,2,,,,,,,,,1,,,67,0
1612800,note_on,0,0,2,,,,,,,,,1,,,64,0
1612800,note_on,0,0,2,,,,,,,,,1,,,62,101
1612800,note_on,0,0,3,,,,,,,,,2,,,58,101
1612800,note_on,480,0,1,,,,,,,,,0,,,79,0
1612800,note_on,0,0,1,,,,,,,,,0,,,76,0
1612800,note_on,0,0,1,,,,,,,,,0,,,73,0
1612800,note_on,0,0,2,,,,,,,,,1,,,61,0
1612800,note_on,0,0,1,,,,,,,,,0,,,77,101
1612800,note_on,0,0,1,,,,,,,,,0,,,74,101
1612800,note_on,480,0,3,,,,,,,,,2,,,57,0
1612800,note_on,0,0,3,,,,,,,,,2,,,45,0
1612800,note_on,0,0,3,,,,,,,,,2,,,46,101
1613280,note_on,0,0,1,,,,,,,,,0,,,74,0
1613280,note_on,480,0,1,,,,,,,,,0,,,77,0
1613280,note_on,480,0,2,,,,,,,,,1,,,65,0
1613280,note_on,0,0,2,,,,,,,,,1,,,62,0
1613280,note_on,480,0,3,,,,,,,,,2,,,58,0
1613280,note_on,0,0,3,,,,,,,,,2,,,46,0
1613280,note_on,480,0,4,,,,,,,,,3,,,34,0
1613760,note_on,480,0,3,,,,,,,,,2,,,46,101
1613760,note_on,0,0,3,,,,,,,,,2,,,58,101
1613760,note_on,0,0,1,,,,,,,,,0,,,77,101
1613760,note_on,480,0,4,,,,,,,,,3,,,34,101
1613760,note_on,480,0,1,,,,,,,,,0,,,74,101
1613760,note_on,480,0,2,,,,,,,,,1,,,70,88
1614000,note_on,0,0,2,,,,,,,,,1,,,69,88
1614000,note_on,240,0,3,,,,,,,,,2,,,58,0
1614000,note_on,0,0,3,,,,,,,,,2,,,46,0
1614000,note_on,0,0,3,,,,,,,,,2,,,46,101
1614000,note_on,0,0,3,,,,,,,,,2,,,58,101
1614000,note_on,0,0,1,,,,,,,,,0,,,77,101
1614000,note_on,240,0,2,,,,,,,,,1,,,70,0
1614000,note_on,240,0,1,,,,,,,,,0,,,77,0
1614000,note_on,0,0,1,,,,,,,,,0,,,74,0
1614000,note_on,0,0,4,,,,,,,,,3,,,34,101
1614000,note_on,0,0,1,,,,,,,,,0,,,74,101
1614000,note_on,240,0,4,,,,,,,,,3,,,34,0
1614240,note_on,0,0,3,,,,,,,,,2,,,46,0
1614240,note_on,240,0,3,,,,,,,,,2,,,58,0
1614240,note_on,240,0,2,,,,,,,,,1,,,69,0
1614240,note_on,0,0,3,,,,,,,,,2,,,59,101
1614240,note_on,0,0,3,,,,,,,,,2,,,47,101
1614240,note_on,0,0,2,,,,,,,,,1,,,68,88
1614240,note_on,240,0,1,,,,,,,,,0,,,77,0
1614240,note_on,0,0,1,,,,,,,,,0,,,77,101
1614240,note_on,0,0,4,,,,,,,,,3,,,35,101
1614240,note_on,240,0,4,,,,,,,,,3,,,34,0
1614240,note_on,0,0,1,,,,,,,,,0,,,74,101
1614240,note_on,0,0,1,,,,,,,,,0,,,74,0
1614287,note_on,47,0,4,,,,,,,,,3,,,35,0
1614287,note_on,0,0,3,,,,,,,,,2,,,47,0
1614287,note_on,47,0,3,,,,,,,,,2,,,59,0
1614287,note_on,0,0,1,,,,,,,,,0,,,74,0
1614287,note_on,47,0,1,,,,,,,,,0,,,77,0
1614287,note_on,47,0,2,,,,,,,,,1,,,68,0
1614720,note_on,0,0,3,,,,,,,,,2,,,59,101
1614720,note_on,433,0,3,,,,,,,,,2,,,47,101
1614720,note_on,433,0,2,,,,,,,,,1,,,68,88
1614720,note_on,0,0,1,,,,,,,,,0,,,77,101
1614720,note_on,433,0,4,,,,,,,,,3,,,35,101
1614720,note_on,433,0,1,,,,,,,,,0,,,74,101
1614767,note_on,47,0,4,,,,,,,,,3,,,35,0
1614767,note_on,47,0,2,,,,,,,,,1,,,68,0
1614767,note_on,0,0,3,,,,,,,,,2,,,47,0
1614767,note_on,0,0,1,,,,,,,,,0,,,74,0
1614767,note_on,47,0,1,,,,,,,,,0,,,77,0
1614767,note_on,47,0,3,,,,,,,,,2,,,59,0
1615200,note_on,433,0,3,,,,,,,,,2,,,47,101
1615200,note_on,433,0,1,,,,,,,,,0,,,74,101
1615200,note_on,433,0,4,,,,,,,,,3,,,35,101
1615200,note_on,0,0,3,,,,,,,,,2,,,59,101
1615200,note_on,0,0,1,,,,,,,,,0,,,77,101
1615200,note_on,433,0,2,,,,,,,,,1,,,68,88
1615247,note_on,47,0,2,,,,,,,,,1,,,68,0
1615247,note_on,47,0,3,,,,,,,,,2,,,59,0
1615247,note_on,0,0,3,,,,,,,,,2,,,47,0
1615247,note_on,47,0,4,,,,,,,,,3,,,35,0
1615247,note_on,0,0,1,,,,,,,,,0,,,74,0
1615247,note_on,47,0,1,,,,,,,,,0,,,77,0
1615680,note_on,433,0,3,,,,,,,,,2,,,47,101
1615680,note_on,0,0,3,,,,,,,,,2,,,59,101
1615680,note_on,433,0,4,,,,,,,,,3,,,35,101
1615680,note_on,0,0,1,,,,,,,,,0,,,77,101
1615680,note_on,433,0,2,,,,,,,,,1,,,68,88
1615680,note_on,433,0,1,,,,,,,,,0,,,74,101
1615727,note_on,47,0,4,,,,,,,,,3,,,35,0
1615727,note_on,47,0,2,,,,,,,,,1,,,68,0
1615727,note_on,47,0,1,,,,,,,,,0,,,77,0
1615727,note_on,0,0,1,,,,,,,,,0,,,74,0
1615727,note_on,47,0,3,,,,,,,,,2,,,59,0
1615727,note_on,0,0,3,,,,,,,,,2,,,47,0
1616160,note_on,0,0,3,,,,,,,,,2,,,59,127
1616160,note_on,433,0,4,,,,,,,,,3,,,35,127
1616160,note_on,433,0,3,,,,,,,,,2,,,47,127
1616160,note_on,433,0,1,,,,,,,,,0,,,74,127
1616160,note_on,433,0,2,,,,,,,,,1,,,68,114
1616160,note_on,0,0,1,,,,,,,,,0,,,77,127
1616640,note_on,480,0,4,,,,,,,,,3,,,35,0
1616640,note_on,0,0,4,,,,,,,,,3,,,36,101
1616640,note_on,0,0,1,,,,,,,,,0,,,74,0
1616640,note_on,480,0,1,,,,,,,,,0,,,77,0
1616640,note_on,480,0,2,,,,,,,,,1,,,68,0
1616640,note_on,0,0,3,,,,,,,,,2,,,48,101
1616640,note_on,0,0,3,,,,,,,,,2,,,47,0
1616640,note_on,480,0,3,,,,,,,,,2,,,59,0
1616640,note_on,0,0,2,,,,,,,,,1,,,69,88
1616640,note_on,0,0,1,,,,,,,,,0,,,76,101
1616640,note_on,0,0,3,,,,,,,,,2,,,60,101
1616640,note_on,0,0,1,,,,,,,,,0,,,72,101
1617120,note_on,480,0,2,,,,,,,,,1,,,69,0
1617120,note_on,0,0,1,,,,,,,,,0,,,72,0
1617120,note_on,480,0,4,,,,,,,,,3,,,36,0
1617120,note_on,480,0,3,,,,,,,,,2,,,60,0
1617120,note_on,480,0,1,,,,,,,,,0,,,76,0
1617120,note_on,0,0,3,,,,,,,,,2,,,48,0
1617600,note_on,0,0,1,,,,,,,,,0,,,86,101
1617600,note_on,480,0,3,,,,,,,,,2,,,50,101
1617600,note_on,0,0,3,,,,,,,,,2,,,62,101
1617600,note_on,0,0,1,,,,,,,,,0,,,83,101
1617600,note_on,480,0,1,,,,,,,,,0,,,80,101
1617600,note_on,480,0,2,,,,,,,,,1,,,68,101
1617600,note_on,0,0,2,,,,,,,,,1,,,71,101
1617600,note_on,0,0,2,,,,,,,,,1,,,74,101
1617600,note_on,480,0,4,,,,,,,,,3,,,38,101
1617647,note_on,0,0,1,,,,,,,,,0,,,80,0
1617647,note_on,0,0,1,,,,,,,,,0,,,83,0
1617647,note_on,47,0,1,,,,,,,,,0,,,86,0
1617647,note_on,47,0,2,,,,,,,,,1,,,74,0
1617647,note_on,0,0,2,,,,,,,,,1,,,71,0
1617647,note_on,0,0,2,,,,,,,,,1,,,68,0
1617840,note_on,0,0,4,,,,,,,,,3,,,39,101
1617840,note_on,0,0,3,,,,,,,,,2,,,50,0
1617840,note_on,240,0,3,,,,,,,,,2,,,62,0
1617840,note_on,240,0,4,,,,,,,,,3,,,38,0
1617840,note_on,0,0,3,,,,,,,,,2,,,51,101
1617840,note_on,0,0,3,,,,,,,,,2,,,63,101
1618080,note_on,0,0,3,,,,,,,,,2,,,52,101
1618080,note_on,0,0,3,,,,,,,,,2,,,51,0
1618080,note_on,240,0,4,,,,,,,,,3,,,39,0
1618080,note_on,433,0,2,,,,,,,,,1,,,68,101
1618080,note_on,0,0,2,,,,,,,,,1,,,71,101
1618080,note_on,0,0,2,,,,,,,,,1,,,74,101
1618080,note_on,0,0,1,,,,,,,,,0,,,86,101
1618080,note_on,0,0,3,,,,,,,,,2,,,64,101
1618080,note_on,0,0,4,,,,,,,,,3,,,40,101
1618080,note_on,433,0,1,,,,,,,,,0,,,80,101
1618080,note_on,0,0,1,,,,,,,,,0,,,83,101
1618080,note_on,240,0,3,,,,,,,,,2,,,63,0
1618127,note_on,47,0,4,,,,,,,,,3,,,40,0
1618127,note_on,47,0,3,,,,,,,,,2,,,64,0
1618127,note_on,0,0,1,,,,,,,,,0,,,80,0
1618127,note_on,0,0,1,,,,,,,,,0,,,83,0
1618127,note_on,0,0,3,,,,,,,,,2,,,52,0
1618127,note_on,47,0,1,,,,,,,,,0,,,86,0
1618127,note_on,0,0,2,,,,,,,,,1,,,71,0
1618127,note_on,0,0,2,,,,,,,,,1,,,68,0
1618127,note_on,47,0,2,,,,,,,,,1,,,74,0
1618560,note_on,0,0,1,,,,,,,,,0,,,83,101
1618560,note_on,433,0,2,,,,,,,,,1,,,68,101
1618560,note_on,433,0,3,,,,,,,,,2,,,52,101
1618560,note_on,0,0,3,,,,,,,,,2,,,64,101
1618560,note_on,0,0,2,,,,,,,,,1,,,71,101
1618560,note_on,433,0,1,,,,,,,,,0,,,80,101
1618560,note_on,0,0,2,,,,,,,,,1,,,74,101
1618560,note_on,0,0,1,,,,,,,,,0,,,86,101
1618560,note_on,433,0,4,,,,,,,,,3,,,40,101
1618607,note_on,47,0,1,,,,,,,,,0,,,86,0
1618607,note_on,0,0,1,,,,,,,,,0,,,83,0
1618607,note_on,47,0,4,,,,,,,,,3,,,40,0
1618607,note_on,0,0,3,,,,,,,,,2,,,52,0
1618607,note_on,47,0,3,,,,,,,,,2,,,64,0
1618607,note_on,0,0,1,,,,,,,,,0,,,80,0
1618607,note_on,47,0,2,,,,,,,,,1,,,74,0
1618607,note_on,0,0,2,,,,,,,,,1,,,71,0
1618607,note_on,0,0,2,,,,,,,,,1,,,68,0
1619040,note_on,0,0,3,,,,,,,,,2,,,64,101
1619040,note_on,0,0,1,,,,,,,,,0,,,86,101
1619040,note_on,433,0,2,,,,,,,,,1,,,68,101
1619040,note_on,433,0,1,,,,,,,,,0,,,80,101
1619040,note_on,433,0,3,,,,,,,,,2,,,52,101
1619040,note_on,0,0,2,,,,,,,,,1,,,71,101
1619040,note_on,0,0,2,,,,,,,,,1,,,74,101
1619040,note_on,0,0,1,,,,,,,,,0,,,83,101
1619040,note_on,433,0,4,,,,,,,,,3,,,40,101
1619087,note_on,47,0,4,,,,,,,,,3,,,40,0
1619087,note_on,0,0,3,,,,,,,,,2,,,52,0
1619087,note_on,47,0,3,,,,,,,,,2,,,64,0
1619087,note_on,0,0,1,,,,,,,,,0,,,80,0
1619087,note_on,0,0,1,,,,,,,,,0,,,83,0
1619087,note_on,47,0,1,,,,,,,,,0,,,86,0
1619087,note_on,0,0,2,,,,,,,,,1,,,68,0
1619087,note_on,0,0,2,,,,,,,,,1,,,71,0
1619087,note_on,47,0,2,,,,,,,,,1,,,74,0
1619520,note_on,0,0,1,,,,,,,,,0,,,83,101
1619520,note_on,0,0,2,,,,,,,,,1,,,74,101
1619520,note_on,0,0,2,,,,,,,,,1,,,71,101
1619520,note_on,433,0,2,,,,,,,,,1,,,68,101
1619520,note_on,0,0,3,,,,,,,,,2,,,64,101
1619520,note_on,433,0,3,,,,,,,,,2,,,52,101
1619520,note_on,433,0,4,,,,,,,,,3,,,40,101
1619520,note_on,433,0,1,,,,,,,,,0,,,80,101
1619520,note_on,0,0,1,,,,,,,,,0,,,86,101
1619567,note_on,47,0,3,,,,,,,,,2,,,64,0
1619567,note_on,47,0,4,,,,,,,,,3,,,40,0
1619567,note_on,0,0,3,,,,,,,,,2,,,52,0
1619567,note_on,0,0,2,,,,,,,,,1,,,71,0
1619567,note_on,0,0,1,,,,,,,,,0,,,83,0
1619567,note_on,0,0,2,,,,,,,,,1,,,68,0
1619567,note_on,47,0,1,,,,,,,,,0,,,86,0
1619567,note_on,47,0,2,,,,,,,,,1,,,74,0
1619567,note_on,0,0,1,,,,,,,,,0,,,80,0
1620000,note_on,0,0,1,,,,,,,,,0,,,83,127
1620000,note_on,0,0,2,,,,,,,,,1,,,71,127
1620000,note_on,433,0,2,,,,,,,,,1,,,68,127
1620000,note_on,433,0,3,,,,,,,,,2,,,52,127
1620000,note_on,0,0,3,,,,,,,,,2,,,64,127
1620000,note_on,433,0,1,,,,,,,,,0,,,80,127
1620000,note_on,433,0,4,,,,,,,,,3,,,40,127
1620000,note_on,0,0,1,,,,,,,,,0,,,86,127
1620000,note_on,0,0,2,,,,,,,,,1,,,74,127
1620480,note_on,0,0,1,,,,,,,,,0,,,83,0
1620480,note_on,0,0,2,,,,,,,,,1,,,71,0
1620480,note_on,0,0,2,,,,,,,,,1,,,68,0
1620480,note_on,0,0,2,,,,,,,,,1,,,69,101
1620480,note_on,0,0,2,,,,,,,,,1,,,72,101
1620480,note_on,0,0,3,,,,,,,,,2,,,65,101
1620480,note_on,480,0,1,,,,,,,,,0,,,86,0
1620480,note_on,480,0,3,,,,,,,,,2,,,64,0
1620480,note_on,0,0,3,,,,,,,,,2,,,52,0
1620480,note_on,0,0,3,,,,,,,,,2,,,53,101
1620480,note_on,0,0,1,,,,,,,,,0,,,84,101
1620480,note_on,0,0,1,,,,,,,,,0,,,81,101
1620480,note_on,0,0,1,,,,,,,,,0,,,80,0
1620480,note_on,480,0,2,,,,,,,,,1,,,74,0
1620480,note_on,0,0,4,,,,,,,,,3,,,41,101
1620480,note_on,480,0,4,,,,,,,,,3,,,40,0
1620960,note_on,0,0,3,,,,,,,,,2,,,53,0
1620960,note_on,480,0,3,,,,,,,,,2,,,65,0
1620960,note_on,0,0,2,,,,,,,,,1,,,69,0
1620960,note_on,480,0,2,,,,,,,,,1,,,72,0
1620960,note_on,480,0,4,,,,,,,,,3,,,41,0
1620960,note_on,480,0,1,,,,,,,,,0,,,84,0
1620960,note_on,0,0,1,,,,,,,,,0,,,81,0
1621440,note_on,480,0,3,,,,,,,,,2,,,53,101
1621440,note_on,0,0,3,,,,,,,,,2,,,57,101
1621440,note_on,0,0,2,,,,,,,,,1,,,69,101
1621440,note_on,0,0,2,,,,,,,,,1,,,65,101
1621440,note_on,0,0,1,,,,,,,,,0,,,81,101
1621440,note_on,0,0,1,,,,,,,,,0,,,77,101
1621440,note_on,480,0,1,,,,,,,,,0,,,72,101
1621440,note_on,480,0,4,,,,,,,,,3,,,41,101
1621440,note_on,480,0,2,,,,,,,,,1,,,60,101
1621487,note_on,47,0,1,,,,,,,,,0,,,81,0
1621487,note_on,0,0,1,,,,,,,,,0,,,77,0
1621487,note_on,0,0,2,,,,,,,,,1,,,60,0
1621487,note_on,0,0,2,,,,,,,,,1,,,65,0
1621487,note_on,47,0,2,,,,,,,,,1,,,69,0
1621487,note_on,0,0,1,,,,,,,,,0,,,72,0
1621920,note_on,0,0,3,,,,,,,,,2,,,53,127
1621920,note_on,480,0,3,,,,,,,,,2,,,57,0
1621920,note_on,0,0,3,,,,,,,,,2,,,58,127
1621920,note_on,0,0,3,,,,,,,,,2,,,50,127
1621920,note_on,0,0,3,,,,,,,,,2,,,53,0
1621920,note_on,433,0,2,,,,,,,,,1,,,62,127
1621920,note_on,0,0,4,,,,,,,,,3,,,38,127
1621920,note_on,480,0,4,,,,,,,,,3,,,41,0
1621920,note_on,0,0,1,,,,,,,,,0,,,82,127
1621920,note_on,0,0,1,,,,,,,,,0,,,77,127
1621920,note_on,433,0,1,,,,,,,,,0,,,74,127
1621920,note_on,0,0,2,,,,,,,,,1,,,65,127
1621920,note_on,0,0,2,,,,,,,,,1,,,70,127
1622880,note_on,0,0,1,,,,,,,,,0,,,65,127
1622880,note_on,0,0,1,,,,,,,,,0,,,74,0
1622880,note_on,0,0,1,,,,,,,,,0,,,77,0
1622880,note_on,960,0,1,,,,,,,,,0,,,82,0
1622880,note_on,960,0,2,,,,,,,,,1,,,70,0
1622880,note_on,0,0,2,,,,,,,,,1,,,65,0
1622880,note_on,0,0,2,,,,,,,,,1,,,62,0
1622880,note_on,0,0,1,,,,,,,,,0,,,70,127
1622880,note_on,0,0,3,,,,,,,,,2,,,50,0
1622880,note_on,0,0,3,,,,,,,,,2,,,53,0
1622880,note_on,960,0,3,,,,,,,,,2,,,58,0
1622880,note_on,960,0,4,,,,,,,,,3,,,38,0
1622880,note_on,0,0,1,,,,,,,,,0,,,74,127
1623840,note_on,0,0,1,,,,,,,,,0,,,70,0
1623840,note_on,0,0,1,,,,,,,,,0,,,65,0
1623840,note_on,0,0,1,,,,,,,,,0,,,70,101
1623840,note_on,0,0,1,,,,,,,,,0,,,74,101
1623840,note_on,0,0,1,,,,,,,,,0,,,77,101
1623840,note_on,960,0,1,,,,,,,,,0,,,74,0
1623887,note_on,0,0,1,,,,,,,,,0,,,70,0
1623887,note_on,47,0,1,,,,,,,,,0,,,77,0
1623887,note_on,0,0,1,,,,,,,,,0,,,74,0
1624320,note_on,433,0,1,,,,,,,,,0,,,74,101
1624320,note_on,0,0,1,,,,,,,,,0,,,77,101
1624320,note_on,0,0,1,,,,,,,,,0,,,82,101
1624367,note_on,47,0,1,,,,,,,,,0,,,82,0
1624367,note_on,0,0,1,,,,,,,,,0,,,74,0
1624367,note_on,0,0,1,,,,,,,,,0,,,77,0
1624800,note_on,0,0,1,,,,,,,,,0,,,86,101
1624800,note_on,0,0,1,,,,,,,,,0,,,82,101
1624800,note_on,433,0,1,,,,,,,,,0,,,77,101
1624847,note_on,0,0,1,,,,,,,,,0,,,77,0
1624847,note_on,47,0,1,,,,,,,,,0,,,86,0
1624847,note_on,0,0,1,,,,,,,,,0,,,82,0
1625280,note_on,2400,0,4,,,,,,,,,3,,,53,101
1625280,note_on,0,0,1,,,,,,,,,0,,,82,101
1625280,note_on,0,0,1,,,,,,,,,0,,,77,101
1625280,note_on,433,0,1,,,,,,,,,0,,,74,101
1625280,note_on,2400,0,3,,,,,,,,,2,,,58,101
1625280,note_on,2400,0,2,,,,,,,,,1,,,62,101
1625327,note_on,47,0,1,,,,,,,,,0,,,82,0
1625327,note_on,0,0,1,,,,,,,,,0,,,74,0
1625327,note_on,0,0,1,,,,,,,,,0,,,77,0
1625439,note_on,0,0,4,,,,,,,,,3,,,52,101
1625439,note_on,159,0,4,,,,,,,,,3,,,53,0
1625600,note_on,0,0,4,,,,,,,,,3,,,50,101
1625600,note_on,161,0,4,,,,,,,,,3,,,52,0
1625760,note_on,480,0,3,,,,,,,,,2,,,58,0
1625760,note_on,0,0,3,,,,,,,,,2,,,57,127
1625760,note_on,160,0,4,,,,,,,,,3,,,50,0
1625760,note_on,0,0,1,,,,,,,,,0,,,81,101
1625760,note_on,0,0,2,,,,,,,,,1,,,64,127
1625760,note_on,480,0,2,,,,,,,,,1,,,62,0
1625760,note_on,0,0,4,,,,,,,,,3,,,49,127
1625760,note_on,433,0,1,,,,,,,,,0,,,76,101
1626720,note_on,960,0,4,,,,,,,,,3,,,49,0
1626720,note_on,0,0,2,,,,,,,,,1,,,66,127
1626720,note_on,0,0,2,,,,,,,,,1,,,63,127
1626720,note_on,960,0,2,,,,,,,,,1,,,64,0
1626720,note_on,960,0,3,,,,,,,,,2,,,57,0
1626720,note_on,0,0,3,,,,,,,,,2,,,57,127
1626720,note_on,0,0,4,,,,,,,,,3,,,48,127
1626720,note_on,960,0,1,,,,,,,,,0,,,81,0
1626720,note_on,0,0,1,,,,,,,,,0,,,76,0
1627680,note_on,960,0,4,,,,,,,,,3,,,48,0
1627680,note_on,0,0,2,,,,,,,,,1,,,67,101
1627680,note_on,0,0,3,,,,,,,,,2,,,58,101
1627680,note_on,960,0,3,,,,,,,,,2,,,57,0
1627680,note_on,0,0,2,,,,,,,,,1,,,63,101
1627680,note_on,0,0,2,,,,,,,,,1,,,63,0
1627680,note_on,960,0,2,,,,,,,,,1,,,66,0
1627680,note_on,0,0,4,,,,,,,,,3,,,46,101
1627727,note_on,0,0,2,,,,,,,,,1,,,63,0
1627727,note_on,47,0,2,,,,,,,,,1,,,67,0
1627727,note_on,47,0,3,,,,,,,,,2,,,58,0
1627727,note_on,47,0,4,,,,,,,,,3,,,46,0
1628160,note_on,0,0,3,,,,,,,,,2,,,63,101
1628160,note_on,433,0,2,,,,,,,,,1,,,66,101
1628160,note_on,433,0,4,,,,,,,,,3,,,45,101
1628160,note_on,0,0,2,,,,,,,,,1,,,69,101
1628160,note_on,433,0,3,,,,,,,,,2,,,60,101
1628207,note_on,47,0,4,,,,,,,,,3,,,45,0
1628207,note_on,47,0,3,,,,,,,,,2,,,63,0
1628207,note_on,0,0,3,,,,,,,,,2,,,60,0
1628207,note_on,0,0,2,,,,,,,,,1,,,66,0
1628207,note_on,47,0,2,,,,,,,,,1,,,69,0
1628640,note_on,433,0,4,,,,,,,,,3,,,43,101
1628640,note_on,0,0,3,,,,,,,,,2,,,63,101
1628640,note_on,433,0,3,,,,,,,,,2,,,58,101
1628640,note_on,433,0,2,,,,,,,,,1,,,67,101
1628640,note_on,0,0,2,,,,,,,,,1,,,70,101
1628687,note_on,47,0,3,,,,,,,,,2,,,63,0
1628687,note_on,0,0,3,,,,,,,,,2,,,58,0
1628687,note_on,0,0,2,,,,,,,,,1,,,67,0
1628687,note_on,47,0,2,,,,,,,,,1,,,70,0
1628687,note_on,47,0,4,,,,,,,,,3,,,43,0
1629120,note_on,0,0,2,,,,,,,,,1,,,71,101
1629120,note_on,2400,0,1,,,,,,,,,0,,,79,101
1629120,note_on,433,0,4,,,,,,,,,3,,,41,101
1629120,note_on,0,0,3,,,,,,,,,2,,,65,101
1629120,note_on,433,0,2,,,,,,,,,1,,,67,101
1629120,note_on,433,0,3,,,,,,,,,2,,,55,101
1629167,note_on,47,0,3,,,,,,,,,2,,,65,0
1629167,note_on,0,0,3,,,,,,,,,2,,,55,0
1629167,note_on,47,0,1,,,,,,,,,0,,,79,0
1629167,note_on,47,0,2,,,,,,,,,1,,,71,0
1629167,note_on,0,0,2,,,,,,,,,1,,,67,0
1629279,note_on,159,0,4,,,,,,,,,3,,,41,0
1629279,note_on,0,0,4,,,,,,,,,3,,,39,101
1629440,note_on,161,0,4,,,,,,,,,3,,,39,0
1629440,note_on,0,0,4,,,,,,,,,3,,,37,101
1629600,note_on,433,0,2,,,,,,,,,1,,,68,127
1629600,note_on,0,0,2,,,,,,,,,1,,,72,127
1629600,note_on,160,0,4,,,,,,,,,3,,,37,0
1629600,note_on,0,0,4,,,,,,,,,3,,,36,127
1629600,note_on,0,0,3,,,,,,,,,2,,,63,127
1629600,note_on,433,0,3,,,,,,,,,2,,,56,127
1629600,note_on,433,0,1,,,,,,,,,0,,,75,127
1629600,note_on,0,0,1,,,,,,,,,0,,,80,127
1630560,note_on,0,0,3,,,,,,,,,2,,,56,0
1630560,note_on,960,0,4,,,,,,,,,3,,,36,0
1630560,note_on,0,0,2,,,,,,,,,1,,,68,0
1630560,note_on,960,0,2,,,,,,,,,1,,,72,0
1630560,note_on,960,0,1,,,,,,,,,0,,,80,0
1630560,note_on,0,0,1,,,,,,,,,0,,,75,0
1630560,note_on,0,0,1,,,,,,,,,0,,,63,127
1630560,note_on,0,0,1,,,,,,,,,0,,,68,127
1630560,note_on,0,0,1,,,,,,,,,0,,,72,127
1630560,note_on,960,0,3,,,,,,,,,2,,,63,0
1631520,note_on,0,0,1,,,,,,,,,0,,,75,101
1631520,note_on,0,0,1,,,,,,,,,0,,,72,101
1631520,note_on,0,0,1,,,,,,,,,0,,,68,101
1631520,note_on,0,0,1,,,,,,,,,0,,,63,0
1631520,note_on,0,0,1,,,,,,,,,0,,,68,0
1631520,note_on,960,0,1,,,,,,,,,0,,,72,0
1631567,note_on,47,0,1,,,,,,,,,0,,,75,0
1631567,note_on,0,0,1,,,,,,,,,0,,,72,0
1631567,note_on,0,0,1,,,,,,,,,0,,,68,0
1632000,note_on,433,0,1,,,,,,,,,0,,,72,101
1632000,note_on,0,0,1,,,,,,,,,0,,,75,101
1632000,note_on,0,0,1,,,,,,,,,0,,,80,101
1632047,note_on,47,0,1,,,,,,,,,0,,,80,0
1632047,note_on,0,0,1,,,,,,,,,0,,,75,0
1632047,note_on,0,0,1,,,,,,,,,0,,,72,0
1632480,note_on,0,0,1,,,,,,,,,0,,,80,101
1632480,note_on,433,0,1,,,,,,,,,0,,,75,101
1632480,note_on,0,0,1,,,,,,,,,0,,,84,101
1632527,note_on,0,0,1,,,,,,,,,0,,,80,0
1632527,note_on,0,0,1,,,,,,,,,0,,,75,0
1632527,note_on,47,0,1,,,,,,,,,0,,,84,0
1632960,note_on,2400,0,2,,,,,,,,,1,,,60,101
1632960,note_on,0,0,1,,,,,,,,,0,,,75,101
1632960,note_on,2400,0,4,,,,,,,,,3,,,51,101
1632960,note_on,433,0,1,,,,,,,,,0,,,72,101
1632960,note_on,0,0,1,,,,,,,,,0,,,80,101
1632960,note_on,2400,0,3,,,,,,,,,2,,,56,101
1633007,note_on,0,0,1,,,,,,,,,0,,,72,0
1633007,note_on,0,0,1,,,,,,,,,0,,,75,0
1633007,note_on,47,0,1,,,,,,,,,0,,,80,0
1633007,note_on,47,0,2,,,,,,,,,1,,,60,0
1633119,note_on,159,0,4,,,,,,,,,3,,,51,0
1633119,note_on,0,0,4,,,,,,,,,3,,,50,101
1633280,note_on,161,0,4,,,,,,,,,3,,,50,0
1633280,note_on,0,0,4,,,,,,,,,3,,,48,101
1633440,note_on,0,0,3,,,,,,,,,2,,,55,101
1633440,note_on,433,0,2,,,,,,,,,1,,,62,127
1633440,note_on,433,0,1,,,,,,,,,0,,,74,101
1633440,note_on,0,0,4,,,,,,,,,3,,,47,101
1633440,note_on,160,0,4,,,,,,,,,3,,,48,0
1633440,note_on,480,0,3,,,,,,,,,2,,,56,0
1633440,note_on,0,0,1,,,,,,,,,0,,,79,101
1634400,note_on,960,0,2,,,,,,,,,1,,,62,0
1634400,note_on,0,0,2,,,,,,,,,1,,,61,127
1634400,note_on,0,0,2,,,,,,,,,1,,,64,127
1634400,note_on,0,0,3,,,,,,,,,2,,,55,101
1634400,note_on,0,0,1,,,,,,,,,0,,,74,0
1634400,note_on,960,0,3,,,,,,,,,2,,,55,0
1634400,note_on,0,0,4,,,,,,,,,3,,,46,101
1634400,note_on,960,0,4,,,,,,,,,3,,,47,0
1634400,note_on,960,0,1,,,,,,,,,0,,,79,0
1635360,note_on,0,0,3,,,,,,,,,2,,,56,101
1635360,note_on,960,0,3,,,,,,,,,2,,,55,0
1635360,note_on,0,0,2,,,,,,,,,1,,,61,0
1635360,note_on,0,0,4,,,,,,,,,3,,,44,101
1635360,note_on,960,0,4,,,,,,,,,3,,,46,0
1635360,note_on,0,0,2,,,,,,,,,1,,,61,101
1635360,note_on,960,0,2,,,,,,,,,1,,,64,0
1635360,note_on,0,0,2,,,,,,,,,1,,,65,101
1635407,note_on,47,0,2,,,,,,,,,1,,,65,0
1635407,note_on,0,0,2,,,,,,,,,1,,,61,0
1635840,note_on,0,0,3,,,,,,,,,2,,,61,101
1635840,note_on,0,0,3,,,,,,,,,2,,,58,101
1635840,note_on,480,0,3,,,,,,,,,2,,,56,0
1635840,note_on,480,0,4,,,,,,,,,3,,,44,0
1635840,note_on,0,0,4,,,,,,,,,3,,,43,101
1635840,note_on,0,0,2,,,,,,,,,1,,,67,101
1635840,note_on,433,0,2,,,,,,,,,1,,,64,101
1635887,note_on,0,0,2,,,,,,,,,1,,,64,0
1635887,note_on,47,0,2,,,,,,,,,1,,,67,0
1636320,note_on,480,0,4,,,,,,,,,3,,,43,0
1636320,note_on,0,0,4,,,,,,,,,3,,,41,101
1636320,note_on,433,0,2,,,,,,,,,1,,,65,101
1636320,note_on,480,0,3,,,,,,,,,2,,,61,0
1636320,note_on,0,0,2,,,,,,,,,1,,,68,101
1636320,note_on,0,0,3,,,,,,,,,2,,,61,101
1636320,note_on,0,0,3,,,,,,,,,2,,,56,101
1636320,note_on,0,0,3,,,,,,,,,2,,,58,0
1636367,note_on,0,0,2,,,,,,,,,1,,,65,0
1636367,note_on,47,0,2,,,,,,,,,1,,,68,0
1636800,note_on,480,0,3,,,,,,,,,2,,,61,0
1636800,note_on,0,0,3,,,,,,,,,2,,,56,0
1636800,note_on,0,0,3,,,,,,,,,2,,,53,101
1636800,note_on,2400,0,1,,,,,,,,,0,,,77,101
1636800,note_on,0,0,3,,,,,,,,,2,,,63,101
1636800,note_on,480,0,4,,,,,,,,,3,,,41,0
1636800,note_on,0,0,4,,,,,,,,,3,,,39,101
1636800,note_on,433,0,2,,,,,,,,,1,,,65,101
1636800,note_on,0,0,2,,,,,,,,,1,,,69,101
1636847,note_on,47,0,2,,,,,,,,,1,,,69,0
1636847,note_on,0,0,2,,,,,,,,,1,,,65,0
1636959,note_on,159,0,4,,,,,,,,,3,,,39,0
1636959,note_on,0,0,4,,,,,,,,,3,,,37,101
1637120,note_on,161,0,4,,,,,,,,,3,,,37,0
1637120,note_on,0,0,4,,,,,,,,,3,,,35,101
1637280,note_on,480,0,3,,,,,,,,,2,,,63,0
1637280,note_on,160,0,4,,,,,,,,,3,,,35,0
1637280,note_on,0,0,4,,,,,,,,,3,,,34,101
1637280,note_on,0,0,3,,,,,,,,,2,,,61,101
1637280,note_on,0,0,3,,,,,,,,,2,,,53,0
1637280,note_on,0,0,1,,,,,,,,,0,,,78,101
1637280,note_on,0,0,1,,,,,,,,,0,,,73,101
1637280,note_on,480,0,1,,,,,,,,,0,,,77,0
1637280,note_on,433,0,2,,,,,,,,,1,,,66,101
1637280,note_on,0,0,2,,,,,,,,,1,,,70,101
1637280,note_on,0,0,3,,,,,,,,,2,,,54,101
1638240,note_on,0,0,1,,,,,,,,,0,,,66,101
1638240,note_on,0,0,1,,,,,,,,,0,,,61,101
1638240,note_on,960,0,4,,,,,,,,,3,,,34,0
1638240,note_on,0,0,1,,,,,,,,,0,,,73,0
1638240,note_on,960,0,1,,,,,,,,,0,,,78,0
1638240,note_on,0,0,1,,,,,,,,,0,,,70,101
1638240,note_on,0,0,2,,,,,,,,,1,,,66,0
1638240,note_on,960,0,3,,,,,,,,,2,,,61,0
1638240,note_on,0,0,3,,,,,,,,,2,,,54,0
1638240,note_on,960,0,2,,,,,,,,,1,,,70,0
1639200,note_on,0,0,1,,,,,,,,,0,,,73,101
1639200,note_on,960,0,1,,,,,,,,,0,,,70,0
1639200,note_on,0,0,1,,,,,,,,,0,,,66,101
1639200,note_on,0,0,1,,,,,,,,,0,,,70,101
1639200,note_on,0,0,1,,,,,,,,,0,,,61,0
1639200,note_on,0,0,1,,,,,,,,,0,,,66,0
1639247,note_on,0,0,1,,,,,,,,,0,,,70,0
1639247,note_on,47,0,1,,,,,,,,,0,,,73,0
1639247,note_on,0,0,1,,,,,,,,,0,,,66,0
1639680,note_on,433,0,1,,,,,,,,,0,,,70,101
1639680,note_on,0,0,1,,,,,,,,,0,,,73,101
1639680,note_on,0,0,1,,,,,,,,,0,,,78,101
1639727,note_on,47,0,1,,,,,,,,,0,,,78,0
1639727,note_on,0,0,1,,,,,,,,,0,,,70,0
1639727,note_on,0,0,1,,,,,,,,,0,,,73,0
1640160,note_on,433,0,1,,,,,,,,,0,,,73,101
1640160,note_on,0,0,1,,,,,,,,,0,,,78,101
1640160,note_on,0,0,1,,,,,,,,,0,,,82,101
1640207,note_on,47,0,1,,,,,,,,,0,,,82,0
1640207,note_on,0,0,1,,,,,,,,,0,,,78,0
1640207,note_on,0,0,1,,,,,,,,,0,,,73,0
1640640,note_on,2400,0,3,,,,,,,,,2,,,58,101
1640640,note_on,0,0,1,,,,,,,,,0,,,73,101
1640640,note_on,433,0,1,,,,,,,,,0,,,70,101
1640640,note_on,0,0,1,,,,,,,,,0,,,78,101
1640640,note_on,2400,0,4,,,,,,,,,3,,,46,101
1640687,note_on,0,0,1,,,,,,,,,0,,,73,0
1640687,note_on,47,0,1,,,,,,,,,0,,,78,0
1640687,note_on,0,0,1,,,,,,,,,0,,,70,0
1641120,note_on,480,0,3,,,,,,,,,2,,,58,0
1641120,note_on,433,0,1,,,,,,,,,0,,,72,101
1641120,note_on,0,0,1,,,,,,,,,0,,,77,101
1641120,note_on,480,0,4,,,,,,,,,3,,,46,0
1641120,note_on,0,0,4,,,,,,,,,3,,,45,101
1641120,note_on,0,0,3,,,,,,,,,2,,,57,101
1641279,note_on,0,0,3,,,,,,,,,2,,,60,101
1641279,note_on,159,0,3,,,,,,,,,2,,,57,0
1641440,note_on,161,0,3,,,,,,,,,2,,,60,0
1641440,note_on,0,0,3,,,,,,,,,2,,,58,101
1641600,note_on,160,0,3,,,,,,,,,2,,,58,0
1641600,note_on,3360,0,2,,,,,,,,,1,,,60,101
1641600,note_on,0,0,2,,,,,,,,,1,,,69,101
1641600,note_on,0,0,2,,,,,,,,,1,,,65,101
1641600,note_on,0,0,3,,,,,,,,,2,,,57,101
1641647,note_on,0,0,2,,,,,,,,,1,,,60,0
1641647,note_on,47,0,2,,,,,,,,,1,,,69,0
1641647,note_on,0,0,2,,,,,,,,,1,,,65,0
1641759,note_on,0,0,3,,,,,,,,,2,,,55,101
1641759,note_on,159,0,3,,,,,,,,,2,,,57,0
1641920,note_on,0,0,3,,,,,,,,,2,,,54,101
1641920,note_on,161,0,3,,,,,,,,,2,,,55,0
1642080,note_on,0,0,3,,,,,,,,,2,,,53,101
1642080,note_on,0,0,2,,,,,,,,,1,,,69,101
1642080,note_on,960,0,1,,,,,,,,,0,,,77,0
1642080,note_on,0,0,2,,,,,,,,,1,,,72,101
1642080,note_on,160,0,3,,,,,,,,,2,,,54,0
1642080,note_on,433,0,2,,,,,,,,,1,,,65,101
1642080,note_on,0,0,1,,,,,,,,,0,,,72,0
1642080,note_on,960,0,4,,,,,,,,,3,,,45,0
1642127,note_on,47,0,2,,,,,,,,,1,,,72,0
1642127,note_on,0,0,2,,,,,,,,,1,,,65,0
1642127,note_on,0,0,2,,,,,,,,,1,,,69,0
1642239,note_on,159,0,3,,,,,,,,,2,,,53,0
1642239,note_on,0,0,3,,,,,,,,,2,,,52,101
1642400,note_on,161,0,3,,,,,,,,,2,,,52,0
1642400,note_on,0,0,3,,,,,,,,,2,,,50,101
1642560,note_on,160,0,3,,,,,,,,,2,,,50,0
1642560,note_on,0,0,3,,,,,,,,,2,,,48,101
1642560,note_on,0,0,2,,,,,,,,,1,,,77,101
1642560,note_on,480,0,4,,,,,,,,,3,,,29,101
1642560,note_on,433,0,2,,,,,,,,,1,,,69,101
1642560,note_on,0,0,2,,,,,,,,,1,,,72,101
1642560,note_on,480,0,1,,,,,,,,,0,,,89,101
1642607,note_on,47,0,2,,,,,,,,,1,,,77,0
1642607,note_on,0,0,2,,,,,,,,,1,,,69,0
1642607,note_on,0,0,2,,,,,,,,,1,,,72,0
1642607,note_on,47,0,1,,,,,,,,,0,,,89,0
1642719,note_on,159,0,3,,,,,,,,,2,,,48,0
1642719,note_on,0,0,3,,,,,,,,,2,,,46,101
1642880,note_on,161,0,3,,,,,,,,,2,,,46,0
1642880,note_on,0,0,3,,,,,,,,,2,,,45,101
1643040,note_on,0,0,3,,,,,,,,,2,,,43,101
1643040,note_on,433,0,2,,,,,,,,,1,,,70,101
1643040,note_on,0,0,2,,,,,,,,,1,,,76,101
1643040,note_on,480,0,4,,,,,,,,,3,,,29,0
1643040,note_on,0,0,4,,,,,,,,,3,,,31,101
1643040,note_on,433,0,1,,,,,,,,,0,,,88,101
1643040,note_on,160,0,3,,,,,,,,,2,,,45,0
1643199,note_on,0,0,1,,,,,,,,,0,,,91,101
1643199,note_on,159,0,1,,,,,,,,,0,,,88,0
1643360,note_on,0,0,1,,,,,,,,,0,,,89,101
1643360,note_on,161,0,1,,,,,,,,,0,,,91,0
1643520,note_on,0,0,3,,,,,,,,,2,,,55,101
1643520,note_on,0,0,3,,,,,,,,,2,,,46,101
1643520,note_on,480,0,3,,,,,,,,,2,,,43,0
1643520,note_on,0,0,3,,,,,,,,,2,,,52,101
1643520,note_on,0,0,1,,,,,,,,,0,,,88,101
1643520,note_on,160,0,1,,,,,,,,,0,,,89,0
1643567,note_on,0,0,3,,,,,,,,,2,,,52,0
1643567,note_on,0,0,3,,,,,,,,,2,,,46,0
1643567,note_on,47,0,3,,,,,,,,,2,,,55,0
1643679,note_on,0,0,1,,,,,,,,,0,,,86,101
1643679,note_on,159,0,1,,,,,,,,,0,,,88,0
1643840,note_on,0,0,1,,,,,,,,,0,,,85,101
1643840,note_on,161,0,1,,,,,,,,,0,,,86,0
1644000,note_on,0,0,2,,,,,,,,,1,,,70,0
1644000,note_on,960,0,2,,,,,,,,,1,,,76,0
1644000,note_on,0,0,3,,,,,,,,,2,,,58,101
1644000,note_on,0,0,3,,,,,,,,,2,,,55,101
1644000,note_on,433,0,3,,,,,,,,,2,,,52,101
1644000,note_on,160,0,1,,,,,,,,,0,,,85,0
1644000,note_on,0,0,1,,,,,,,,,0,,,84,101
1644000,note_on,960,0,4,,,,,,,,,3,,,31,0
1644047,note_on,47,0,3,,,,,,,,,2,,,58,0
1644047,note_on,0,0,3,,,,,,,,,2,,,55,0
1644047,note_on,0,0,3,,,,,,,,,2,,,52,0
1644159,note_on,0,0,1,,,,,,,,,0,,,82,101
1644159,note_on,159,0,1,,,,,,,,,0,,,84,0
1644320,note_on,0,0,1,,,,,,,,,0,,,81,101
1644320,note_on,161,0,1,,,,,,,,,0,,,82,0
1644480,note_on,0,0,3,,,,,,,,,2,,,64,101
1644480,note_on,0,0,3,,,,,,,,,2,,,58,101
1644480,note_on,433,0,3,,,,,,,,,2,,,55,101
1644480,note_on,0,0,1,,,,,,,,,0,,,79,101
1644480,note_on,480,0,2,,,,,,,,,1,,,70,101
1644480,note_on,160,0,1,,,,,,,,,0,,,81,0
1644480,note_on,480,0,4,,,,,,,,,3,,,43,101
1644527,note_on,0,0,3,,,,,,,,,2,,,58,0
1644527,note_on,47,0,3,,,,,,,,,2,,,64,0
1644527,note_on,0,0,3,,,,,,,,,2,,,55,0
1644639,note_on,0,0,1,,,,,,,,,0,,,77,101
1644639,note_on,159,0,1,,,,,,,,,0,,,79,0
1644800,note_on,0,0,1,,,,,,,,,0,,,76,101
1644800,note_on,161,0,1,,,,,,,,,0,,,77,0
1644960,note_on,0,0,2,,,,,,,,,1,,,69,101
1644960,note_on,480,0,2,,,,,,,,,1,,,70,0
1644960,note_on,0,0,1,,,,,,,,,0,,,74,101
1644960,note_on,160,0,1,,,,,,,,,0,,,76,0
1644960,note_on,480,0,4,,,,,,,,,3,,,43,0
1644960,note_on,0,0,4,,,,,,,,,3,,,41,101
1644960,note_on,433,0,3,,,,,,,,,2,,,53,101
1645119,note_on,159,0,3,,,,,,,,,2,,,53,0
1645119,note_on,0,0,3,,,,,,,,,2,,,57,101
1645280,note_on,161,0,3,,,,,,,,,2,,,57,0
1645280,note_on,0,0,3,,,,,,,,,2,,,55,101
1645440,note_on,0,0,2,,,,,,,,,1,,,65,101
1645440,note_on,0,0,2,,,,,,,,,1,,,62,101
1645440,note_on,0,0,2,,,,,,,,,1,,,57,101
1645440,note_on,480,0,2,,,,,,,,,1,,,69,0
1645440,note_on,0,0,3,,,,,,,,,2,,,53,101
1645440,note_on,160,0,3,,,,,,,,,2,,,55,0
1645487,note_on,0,0,2,,,,,,,,,1,,,57,0
1645487,note_on,0,0,2,,,,,,,,,1,,,62,0
1645487,note_on,47,0,2,,,,,,,,,1,,,65,0
1645599,note_on,159,0,3,,,,,,,,,2,,,53,0
1645599,note_on,0,0,3,,,,,,,,,2,,,52,101
1645760,note_on,0,0,3,,,,,,,,,2,,,51,101
1645760,note_on,161,0,3,,,,,,,,,2,,,52,0
1645920,note_on,0,0,2,,,,,,,,,1,,,69,101
1645920,note_on,0,0,2,,,,,,,,,1,,,65,101
1645920,note_on,433,0,2,,,,,,,,,1,,,62,101
1645920,note_on,160,0,3,,,,,,,,,2,,,51,0
1645920,note_on,0,0,3,,,,,,,,,2,,,50,101
1645920,note_on,960,0,1,,,,,,,,,0,,,74,0
1645920,note_on,960,0,4,,,,,,,,,3,,,41,0
1645967,note_on,47,0,2,,,,,,,,,1,,,69,0
1645967,note_on,0,0,2,,,,,,,,,1,,,65,0
1645967,note_on,0,0,2,,,,,,,,,1,,,62,0
1646079,note_on,0,0,3,,,,,,,,,2,,,48,101
1646079,note_on,159,0,3,,,,,,,,,2,,,50,0
1646240,note_on,161,0,3,,,,,,,,,2,,,48,0
1646240,note_on,0,0,3,,,,,,,,,2,,,46,101
1646400,note_on,0,0,2,,,,,,,,,1,,,69,101
1646400,note_on,480,0,1,,,,,,,,,0,,,86,101
1646400,note_on,160,0,3,,,,,,,,,2,,,46,0
1646400,note_on,433,0,2,,,,,,,,,1,,,65,101
1646400,note_on,0,0,3,,,,,,,,,2,,,45,101
1646400,note_on,0,0,2,,,,,,,,,1,,,74,101
1646400,note_on,480,0,4,,,,,,,,,3,,,29,101
1646447,note_on,47,0,2,,,,,,,,,1,,,74,0
1646447,note_on,0,0,2,,,,,,,,,1,,,65,0
1646447,note_on,0,0,2,,,,,,,,,1,,,69,0
1646447,note_on,47,0,1,,,,,,,,,0,,,86,0
1646559,note_on,0,0,3,,,,,,,,,2,,,43,101
1646559,note_on,159,0,3,,,,,,,,,2,,,45,0
1646720,note_on,161,0,3,,,,,,,,,2,,,43,0
1646720,note_on,0,0,3,,,,,,,,,2,,,41,101
1646880,note_on,433,0,1,,,,,,,,,0,,,84,101
1646880,note_on,433,0,2,,,,,,,,,1,,,67,101
1646880,note_on,0,0,2,,,,,,,,,1,,,72,101
1646880,note_on,0,0,4,,,,,,,,,3,,,28,101
1646880,note_on,480,0,4,,,,,,,,,3,,,29,0
1646880,note_on,160,0,3,,,,,,,,,2,,,41,0
1646880,note_on,0,0,3,,,,,,,,,2,,,40,101
1647039,note_on,0,0,1,,,,,,,,,0,,,88,101
1647039,note_on,159,0,1,,,,,,,,,0,,,84,0
1647200,note_on,161,0,1,,,,,,,,,0,,,88,0
1647200,note_on,0,0,1,,,,,,,,,0,,,86,101
1647360,note_on,0,0,1,,,,,,,,,0,,,84,101
1647360,note_on,480,0,3,,,,,,,,,2,,,40,0
1647360,note_on,0,0,3,,,,,,,,,2,,,48,101
1647360,note_on,0,0,3,,,,,,,,,2,,,52,101
1647360,note_on,160,0,1,,,,,,,,,0,,,86,0
1647360,note_on,0,0,3,,,,,,,,,2,,,55,101
1647407,note_on,0,0,3,,,,,,,,,2,,,48,0
1647407,note_on,0,0,3,,,,,,,,,2,,,52,0
1647407,note_on,47,0,3,,,,,,,,,2,,,55,0
1647519,note_on,0,0,1,,,,,,,,,0,,,83,101
1647519,note_on,159,0,1,,,,,,,,,0,,,84,0
1647680,note_on,0,0,1,,,,,,,,,0,,,81,101
1647680,note_on,161,0,1,,,,,,,,,0,,,83,0
1647840,note_on,0,0,2,,,,,,,,,1,,,67,0
1647840,note_on,433,0,3,,,,,,,,,2,,,52,101
1647840,note_on,0,0,3,,,,,,,,,2,,,55,101
1647840,note_on,960,0,4,,,,,,,,,3,,,28,0
1647840,note_on,0,0,1,,,,,,,,,0,,,79,101
1647840,note_on,0,0,3,,,,,,,,,2,,,60,101
1647840,note_on,960,0,2,,,,,,,,,1,,,72,0
1647840,note_on,160,0,1,,,,,,,,,0,,,81,0
1647887,note_on,0,0,3,,,,,,,,,2,,,52,0
1647887,note_on,47,0,3,,,,,,,,,2,,,60,0
1647887,note_on,0,0,3,,,,,,,,,2,,,55,0
1647999,note_on,0,0,1,,,,,,,,,0,,,78,101
1647999,note_on,159,0,1,,,,,,,,,0,,,79,0
1648160,note_on,161,0,1,,,,,,,,,0,,,78,0
1648160,note_on,0,0,1,,,,,,,,,0,,,77,101
1648320,note_on,160,0,1,,,,,,,,,0,,,77,0
1648320,note_on,0,0,4,,,,,,,,,3,,,52,101
1648320,note_on,480,0,4,,,,,,,,,3,,,40,101
1648320,note_on,433,0,3,,,,,,,,,2,,,55,101
1648320,note_on,0,0,1,,,,,,,,,0,,,76,101
1648320,note_on,480,0,2,,,,,,,,,1,,,67,101
1648320,note_on,0,0,3,,,,,,,,,2,,,64,101
1648320,note_on,0,0,3,,,,,,,,,2,,,60,101
1648367,note_on,0,0,3,,,,,,,,,2,,,55,0
1648367,note_on,0,0,3,,,,,,,,,2,,,60,0
1648367,note_on,47,0,3,,,,,,,,,2,,,64,0
1648479,note_on,159,0,1,,,,,,,,,0,,,76,0
1648479,note_on,0,0,1,,,,,,,,,0,,,74,101
1648640,note_on,161,0,1,,,,,,,,,0,,,74,0
1648640,note_on,0,0,1,,,,,,,,,0,,,72,101
1648800,note_on,480,0,2,,,,,,,,,1,,,67,0
1648800,note_on,0,0,2,,,,,,,,,1,,,65,101
1648800,note_on,0,0,4,,,,,,,,,3,,,38,101
1648800,note_on,160,0,1,,,,,,,,,0,,,72,0
1648800,note_on,0,0,1,,,,,,,,,0,,,70,101
1648800,note_on,0,0,4,,,,,,,,,3,,,40,0
1648800,note_on,480,0,4,,,,,,,,,3,,,52,0
1648800,note_on,0,0,4,,,,,,,,,3,,,50,101
1648800,note_on,433,0,3,,,,,,,,,2,,,62,101
1648959,note_on,159,0,3,,,,,,,,,2,,,62,0
1648959,note_on,0,0,3,,,,,,,,,2,,,65,101
1649120,note_on,161,0,3,,,,,,,,,2,,,65,0
1649120,note_on,0,0,3,,,,,,,,,2,,,64,101
1649280,note_on,0,0,3,,,,,,,,,2,,,62,101
1649280,note_on,160,0,3,,,,,,,,,2,,,64,0
1649280,note_on,0,0,1,,,,,,,,,0,,,74,101
1649280,note_on,0,0,2,,,,,,,,,1,,,70,101
1649280,note_on,0,0,2,,,,,,,,,1,,,65,101
1649280,note_on,480,0,1,,,,,,,,,0,,,70,0
1649280,note_on,480,0,2,,,,,,,,,1,,,65,0
1649327,note_on,47,0,1,,,,,,,,,0,,,74,0
1649327,note_on,0,0,2,,,,,,,,,1,,,65,0
1649327,note_on,47,0,2,,,,,,,,,1,,,70,0
1649439,note_on,159,0,3,,,,,,,,,2,,,62,0
1649439,note_on,0,0,3,,,,,,,,,2,,,60,101
1649600,note_on,0,0,3,,,,,,,,,2,,,59,101
1649600,note_on,161,0,3,,,,,,,,,2,,,60,0
1649760,note_on,160,0,3,,,,,,,,,2,,,59,0
1649760,note_on,0,0,3,,,,,,,,,2,,,58,101
1649760,note_on,0,0,2,,,,,,,,,1,,,74,101
1649760,note_on,433,0,2,,,,,,,,,1,,,70,101
1649760,note_on,433,0,1,,,,,,,,,0,,,77,101
1649760,note_on,960,0,4,,,,,,,,,3,,,50,0
1649760,note_on,0,0,4,,,,,,,,,3,,,38,0
1649807,note_on,0,0,2,,,,,,,,,1,,,70,0
1649807,note_on,47,0,2,,,,,,,,,1,,,74,0
1649807,note_on,47,0,1,,,,,,,,,0,,,77,0
1649919,note_on,0,0,3,,,,,,,,,2,,,57,101
1649919,note_on,159,0,3,,,,,,,,,2,,,58,0
1650080,note_on,161,0,3,,,,,,,,,2,,,57,0
1650080,note_on,0,0,3,,,,,,,,,2,,,55,101
1650240,note_on,0,0,2,,,,,,,,,1,,,77,101
1650240,note_on,433,0,2,,,,,,,,,1,,,74,101
1650240,note_on,480,0,4,,,,,,,,,3,,,38,101
1650240,note_on,0,0,3,,,,,,,,,2,,,53,101
1650240,note_on,160,0,3,,,,,,,,,2,,,55,0
1650240,note_on,433,0,1,,,,,,,,,0,,,82,101
1650287,note_on,0,0,2,,,,,,,,,1,,,74,0
1650287,note_on,47,0,2,,,,,,,,,1,,,77,0
1650287,note_on,47,0,1,,,,,,,,,0,,,82,0
1650399,note_on,159,0,3,,,,,,,,,2,,,53,0
1650399,note_on,0,0,3,,,,,,,,,2,,,52,101
1650560,note_on,161,0,3,,,,,,,,,2,,,52,0
1650560,note_on,0,0,3,,,,,,,,,2,,,50,101
1650720,note_on,480,0,4,,,,,,,,,3,,,38,0
1650720,note_on,433,0,2,,,,,,,,,1,,,69,101
1650720,note_on,433,0,1,,,,,,,,,0,,,81,101
1650720,note_on,160,0,3,,,,,,,,,2,,,50,0
1650720,note_on,0,0,3,,,,,,,,,2,,,51,101
1650720,note_on,0,0,4,,,,,,,,,3,,,39,101
1650879,note_on,159,0,1,,,,,,,,,0,,,81,0
1650879,note_on,0,0,2,,,,,,,,,1,,,72,101
1650879,note_on,159,0,2,,,,,,,,,1,,,69,0
1650879,note_on,0,0,1,,,,,,,,,0,,,84,101
1651040,note_on,0,0,2,,,,,,,,,1,,,71,101
1651040,note_on,161,0,2,,,,,,,,,1,,,72,0
1651040,note_on,161,0,1,,,,,,,,,0,,,84,0
1651040,note_on,0,0,1,,,,,,,,,0,,,83,101
1651200,note_on,160,0,1,,,,,,,,,0,,,83,0
1651200,note_on,0,0,4,,,,,,,,,3,,,40,101
1651200,note_on,0,0,3,,,,,,,,,2,,,52,127
1651200,note_on,0,0,1,,,,,,,,,0,,,86,101
1651200,note_on,0,0,3,,,,,,,,,2,,,60,127
1651200,note_on,480,0,4,,,,,,,,,3,,,39,0
1651200,note_on,160,0,2,,,,,,,,,1,,,71,0
1651200,note_on,0,0,2,,,,,,,,,1,,,74,101
1651200,note_on,480,0,3,,,,,,,,,2,,,51,0
1651200,note_on,0,0,3,,,,,,,,,2,,,57,127
1651359,note_on,0,0,1,,,,,,,,,0,,,84,101
1651359,note_on,159,0,1,,,,,,,,,0,,,86,0
1651359,note_on,159,0,2,,,,,,,,,1,,,74,0
1651359,note_on,0,0,2,,,,,,,,,1,,,72,101
1651520,note_on,161,0,2,,,,,,,,,1,,,72,0
1651520,note_on,0,0,1,,,,,,,,,0,,,83,101
1651520,note_on,161,0,1,,,,,,,,,0,,,84,0
1651520,note_on,0,0,2,,,,,,,,,1,,,71,101
1651680,note_on,0,0,1,,,,,,,,,0,,,81,101
1651680,note_on,160,0,1,,,,,,,,,0,,,83,0
1651680,note_on,0,0,3,,,,,,,,,2,,,60,101
1651680,note_on,0,0,3,,,,,,,,,2,,,57,101
1651680,note_on,0,0,3,,,,,,,,,2,,,53,101
1651680,note_on,0,0,2,,,,,,,,,1,,,69,101
1651680,note_on,0,0,3,,,,,,,,,2,,,57,0
1651680,note_on,480,0,3,,,,,,,,,2,,,60,0
1651680,note_on,160,0,2,,,,,,,,,1,,,71,0
1651680,note_on,0,0,3,,,,,,,,,2,,,52,0
1651680,note_on,480,0,4,,,,,,,,,3,,,40,0
1651680,note_on,0,0,4,,,,,,,,,3,,,41,101
1651839,note_on,0,0,1,,,,,,,,,0,,,80,101
1651839,note_on,0,0,2,,,,,,,,,1,,,68,101
1651839,note_on,159,0,2,,,,,,,,,1,,,69,0
1651839,note_on,159,0,1,,,,,,,,,0,,,81,0
1652000,note_on,161,0,1,,,,,,,,,0,,,80,0
1652000,note_on,0,0,1,,,,,,,,,0,,,79,101
1652000,note_on,0,0,2,,,,,,,,,1,,,67,101
1652000,note_on,161,0,2,,,,,,,,,1,,,68,0
1652160,note_on,0,0,2,,,,,,,,,1,,,65,101
1652160,note_on,160,0,2,,,,,,,,,1,,,67,0
1652160,note_on,160,0,1,,,,,,,,,0,,,79,0
1652160,note_on,0,0,1,,,,,,,,,0,,,77,101
1652319,note_on,159,0,2,,,,,,,,,1,,,65,0
1652319,note_on,0,0,2,,,,,,,,,1,,,64,101
1652319,note_on,159,0,1,,,,,,,,,0,,,77,0
1652319,note_on,0,0,1,,,,,,,,,0,,,76,101
1652480,note_on,161,0,2,,,,,,,,,1,,,64,0
1652480,note_on,0,0,2,,,,,,,,,1,,,63,101
1652480,note_on,0,0,1,,,,,,,,,0,,,75,101
1652480,note_on,161,0,1,,,,,,,,,0,,,76,0
1652640,note_on,0,0,3,,,,,,,,,2,,,60,62
1652640,note_on,0,0,2,,,,,,,,,1,,,64,101
1652640,note_on,160,0,2,,,,,,,,,1,,,63,0
1652640,note_on,0,0,3,,,,,,,,,2,,,57,62
1652640,note_on,0,0,3,,,,,,,,,2,,,52,62
1652640,note_on,0,0,3,,,,,,,,,2,,,57,0
1652640,note_on,960,0,3,,,,,,,,,2,,,60,0
1652640,note_on,0,0,3,,,,,,,,,2,,,53,0
1652640,note_on,0,0,4,,,,,,,,,3,,,40,101
1652640,note_on,960,0,4,,,,,,,,,3,,,41,0
1652640,note_on,0,0,1,,,,,,,,,0,,,76,101
1652640,note_on,160,0,1,,,,,,,,,0,,,75,0
1653120,note_on,0,0,1,,,,,,,,,0,,,81,101
1653120,note_on,0,0,3,,,,,,,,,2,,,57,62
1653120,note_on,0,0,3,,,,,,,,,2,,,64,62
1653120,note_on,480,0,3,,,,,,,,,2,,,60,0
1653120,note_on,0,0,3,,,,,,,,,2,,,57,0
1653120,note_on,0,0,3,,,,,,,,,2,,,52,0
1653120,note_on,0,0,3,,,,,,,,,2,,,60,62
1653120,note_on,0,0,3,,,,,,,,,2,,,52,62
1653120,note_on,0,0,1,,,,,,,,,0,,,76,101
1653120,note_on,0,0,4,,,,,,,,,3,,,40,101
1653120,note_on,0,0,2,,,,,,,,,1,,,69,101
1653120,note_on,480,0,2,,,,,,,,,1,,,64,0
1653120,note_on,480,0,4,,,,,,,,,3,,,40,0
1653120,note_on,0,0,2,,,,,,,,,1,,,64,101
1653120,note_on,480,0,1,,,,,,,,,0,,,76,0
1653120,note_on,0,0,1,,,,,,,,,0,,,72,101
1653167,note_on,47,0,1,,,,,,,,,0,,,81,0
1653167,note_on,0,0,1,,,,,,,,,0,,,76,0
1653167,note_on,0,0,1,,,,,,,,,0,,,72,0
1653167,note_on,47,0,2,,,,,,,,,1,,,69,0
1653167,note_on,0,0,2,,,,,,,,,1,,,64,0
1653600,note_on,0,0,4,,,,,,,,,3,,,40,101
1653600,note_on,480,0,4,,,,,,,,,3,,,40,0
1653600,note_on,0,0,3,,,,,,,,,2,,,64,62
1653600,note_on,0,0,3,,,,,,,,,2,,,52,62
1653600,note_on,0,0,3,,,,,,,,,2,,,57,62
1653600,note_on,0,0,3,,,,,,,,,2,,,60,62
1653600,note_on,0,0,3,,,,,,,,,2,,,60,0
1653600,note_on,0,0,2,,,,,,,,,1,,,72,101
1653600,note_on,0,0,3,,,,,,,,,2,,,57,0
1653600,note_on,433,0,2,,,,,,,,,1,,,64,101
1653600,note_on,433,0,1,,,,,,,,,0,,,76,101
1653600,note_on,0,0,1,,,,,,,,,0,,,81,101
1653600,note_on,0,0,2,,,,,,,,,1,,,69,101
1653600,note_on,480,0,3,,,,,,,,,2,,,64,0
1653600,note_on,0,0,1,,,,,,,,,0,,,84,101
1653600,note_on,0,0,3,,,,,,,,,2,,,52,0
1653647,note_on,0,0,1,,,,,,,,,0,,,76,0
1653647,note_on,0,0,1,,,,,,,,,0,,,81,0
1653647,note_on,47,0,1,,,,,,,,,0,,,84,0
1653647,note_on,47,0,2,,,,,,,,,1,,,72,0
1653647,note_on,0,0,2,,,,,,,,,1,,,69,0
1653647,note_on,0,0,2,,,,,,,,,1,,,64,0
1654080,note_on,0,0,1,,,,,,,,,0,,,88,101
1654080,note_on,0,0,1,,,,,,,,,0,,,84,101
1654080,note_on,433,0,1,,,,,,,,,0,,,81,101
1654080,note_on,0,0,3,,,,,,,,,2,,,60,62
1654080,note_on,0,0,3,,,,,,,,,2,,,52,62
1654080,note_on,0,0,3,,,,,,,,,2,,,60,0
1654080,note_on,0,0,3,,,,,,,,,2,,,52,0
1654080,note_on,0,0,3,,,,,,,,,2,,,57,0
1654080,note_on,0,0,2,,,,,,,,,1,,,72,101
1654080,note_on,480,0,4,,,,,,,,,3,,,40,0
1654080,note_on,0,0,4,,,,,,,,,3,,,40,101
1654080,note_on,0,0,2,,,,,,,,,1,,,76,101
1654080,note_on,433,0,2,,,,,,,,,1,,,69,101
1654080,note_on,480,0,3,,,,,,,,,2,,,64,0
1654127,note_on,47,0,2,,,,,,,,,1,,,76,0
1654127,note_on,0,0,2,,,,,,,,,1,,,72,0
1654127,note_on,0,0,2,,,,,,,,,1,,,69,0
1654127,note_on,47,0,1,,,,,,,,,0,,,88,0
1654127,note_on,0,0,1,,,,,,,,,0,,,84,0
1654127,note_on,0,0,1,,,,,,,,,0,,,81,0
1654560,note_on,0,0,3,,,,,,,,,2,,,52,0
1654560,note_on,0,0,3,,,,,,,,,2,,,62,62
1654560,note_on,0,0,1,,,,,,,,,0,,,88,101
1654560,note_on,433,0,1,,,,,,,,,0,,,83,101
1654560,note_on,0,0,3,,,,,,,,,2,,,52,62
1654560,note_on,480,0,3,,,,,,,,,2,,,60,0
1654560,note_on,0,0,1,,,,,,,,,0,,,93,101
1654560,note_on,433,0,2,,,,,,,,,1,,,71,101
1654560,note_on,0,0,2,,,,,,,,,1,,,76,101
1654560,note_on,0,0,2,,,,,,,,,1,,,81,101
1654560,note_on,0,0,4,,,,,,,,,3,,,40,101
1654560,note_on,480,0,4,,,,,,,,,3,,,40,0
1654607,note_on,0,0,1,,,,,,,,,0,,,83,0
1654607,note_on,0,0,1,,,,,,,,,0,,,88,0
1654607,note_on,47,0,1,,,,,,,,,0,,,93,0
1654607,note_on,47,0,2,,,,,,,,,1,,,81,0
1654607,note_on,0,0,2,,,,,,,,,1,,,76,0
1654607,note_on,0,0,2,,,,,,,,,1,,,71,0
1655040,note_on,0,0,3,,,,,,,,,2,,,52,0
1655040,note_on,480,0,3,,,,,,,,,2,,,62,0
1655040,note_on,480,0,4,,,,,,,,,3,,,40,0
1655520,note_on,480,0,3,,,,,,,,,2,,,52,62
1655520,note_on,480,0,4,,,,,,,,,3,,,40,101
1655520,note_on,0,0,2,,,,,,,,,1,,,76,101
1655520,note_on,0,0,2,,,,,,,,,1,,,80,101
1655520,note_on,0,0,3,,,,,,,,,2,,,64,62
1655520,note_on,913,0,2,,,,,,,,,1,,,71,101
1655520,note_on,0,0,1,,,,,,,,,0,,,92,101
1655520,note_on,0,0,1,,,,,,,,,0,,,88,101
1655520,note_on,913,0,1,,,,,,,,,0,,,83,101
1655567,note_on,0,0,2,,,,,,,,,1,,,76,0
1655567,note_on,0,0,2,,,,,,,,,1,,,71,0
1655567,note_on,47,0,2,,,,,,,,,1,,,80,0
1655567,note_on,47,0,1,,,,,,,,,0,,,92,0
1655567,note_on,0,0,1,,,,,,,,,0,,,88,0
1655567,note_on,0,0,1,,,,,,,,,0,,,83,0
1656000,note_on,480,0,4,,,,,,,,,3,,,40,0
1656000,note_on,0,0,3,,,,,,,,,2,,,52,0
1656000,note_on,480,0,3,,,,,,,,,2,,,64,0
1658400,note_on,2833,0,1,,,,,,,,,0,,,81,75
1658400,note_on,2400,0,4,,,,,,,,,3,,,33,62
1658400,note_on,0,0,4,,,,,,,,,3,,,45,62
1658640,note_on,0,0,3,,,,,,,,,2,,,60,49
1658640,control_change,2640,0,3,,,,,,,,,2,64,127,,
1658880,note_on,240,0,3,,,,,,,,,2,,,60,0
1658880,note_on,0,0,3,,,,,,,,,2,,,52,49
1659120,note_on,0,0,3,,,,,,,,,2,,,60,49
1659120,note_on,240,0,3,,,,,,,,,2,,,52,0
1659360,note_on,0,0,4,,,,,,,,,3,,,33,0
1659360,note_on,960,0,4,,,,,,,,,3,,,45,0
1659360,note_on,0,0,3,,,,,,,,,2,,,64,49
1659360,note_on,240,0,3,,,,,,,,,2,,,60,0
1659600,note_on,0,0,3,,,,,,,,,2,,,60,49
1659600,note_on,240,0,3,,,,,,,,,2,,,64,0
1659840,note_on,240,0,3,,,,,,,,,2,,,60,0
1659840,note_on,0,0,3,,,,,,,,,2,,,53,49
1659840,note_on,1440,0,1,,,,,,,,,0,,,81,0
1659840,note_on,0,0,1,,,,,,,,,0,,,84,75
1660080,note_on,0,0,3,,,,,,,,,2,,,60,49
1660080,control_change,0,0,3,,,,,,,,,2,64,0,,
1660080,note_on,240,0,3,,,,,,,,,2,,,53,0
1660320,note_on,480,0,1,,,,,,,,,0,,,84,0
1660320,note_on,0,0,1,,,,,,,,,0,,,81,75
1660320,note_on,4753,0,2,,,,,,,,,1,,,76,88
1660320,note_on,240,0,3,,,,,,,,,2,,,60,0
1660320,note_on,960,0,4,,,,,,,,,3,,,35,62
1660320,note_on,0,0,4,,,,,,,,,3,,,47,62
1660560,control_change,240,0,3,,,,,,,,,2,64,127,,
1660560,note_on,0,0,3,,,,,,,,,2,,,62,49
1660800,note_on,0,0,1,,,,,,,,,0,,,80,75
1660800,note_on,480,0,1,,,,,,,,,0,,,81,0
1660800,note_on,0,0,3,,,,,,,,,2,,,52,49
1660800,note_on,240,0,3,,,,,,,,,2,,,62,0
1661040,note_on,240,0,3,,,,,,,,,2,,,52,0
1661040,note_on,0,0,3,,,,,,,,,2,,,62,49
1661280,note_on,480,0,1,,,,,,,,,0,,,80,0
1661280,note_on,0,0,3,,,,,,,,,2,,,64,49
1661280,note_on,240,0,3,,,,,,,,,2,,,62,0
1661520,note_on,240,0,3,,,,,,,,,2,,,64,0
1661520,note_on,0,0,3,,,,,,,,,2,,,62,49
1661760,note_on,0,0,4,,,,,,,,,3,,,50,62
1661760,note_on,0,0,4,,,,,,,,,3,,,38,62
1661760,note_on,0,0,4,,,,,,,,,3,,,35,0
1661760,note_on,1440,0,4,,,,,,,,,3,,,47,0
1661760,note_on,0,0,2,,,,,,,,,1,,,76,62
1661760,note_on,1440,0,2,,,,,,,,,1,,,76,0
1661760,note_on,240,0,3,,,,,,,,,2,,,62,0
1661760,note_on,0,0,3,,,,,,,,,2,,,53,49
1662000,note_on,240,0,3,,,,,,,,,2,,,53,0
1662000,control_change,0,0,3,,,,,,,,,2,64,0,,
1662000,note_on,0,0,3,,,,,,,,,2,,,62,49
1662240,note_on,0,0,4,,,,,,,,,3,,,47,62
1662240,note_on,0,0,4,,,,,,,,,3,,,35,62
1662240,note_on,0,0,4,,,,,,,,,3,,,38,0
1662240,note_on,480,0,4,,,,,,,,,3,,,50,0
1662240,note_on,960,0,1,,,,,,,,,0,,,81,75
1662240,note_on,240,0,3,,,,,,,,,2,,,62,0
1662240,note_on,480,0,2,,,,,,,,,1,,,76,0
1662240,note_on,0,0,2,,,,,,,,,1,,,76,62
1662480,control_change,240,0,3,,,,,,,,,2,64,127,,
1662480,note_on,0,0,3,,,,,,,,,2,,,60,49
1662720,note_on,0,0,4,,,,,,,,,3,,,45,62
1662720,note_on,0,0,4,,,,,,,,,3,,,33,62
1662720,note_on,0,0,4,,,,,,,,,3,,,35,0
1662720,note_on,480,0,4,,,,,,,,,3,,,47,0
1662720,note_on,240,0,3,,,,,,,,,2,,,60,0
1662720,note_on,0,0,3,,,,,,,,,2,,,52,49
1662960,note_on,240,0,3,,,,,,,,,2,,,52,0
1662960,note_on,0,0,3,,,,,,,,,2,,,60,49
1663200,note_on,240,0,3,,,,,,,,,2,,,60,0
1663200,note_on,960,0,2,,,,,,,,,1,,,76,0
1663200,note_on,0,0,3,,,,,,,,,2,,,64,49
1663200,note_on,0,0,4,,,,,,,,,3,,,33,0
1663200,note_on,480,0,4,,,,,,,,,3,,,45,0
1663440,note_on,0,0,3,,,,,,,,,2,,,60,49
1663440,note_on,240,0,3,,,,,,,,,2,,,64,0
1663680,note_on,0,0,1,,,,,,,,,0,,,84,75
1663680,note_on,240,0,3,,,,,,,,,2,,,60,0
1663680,note_on,0,0,3,,,,,,,,,2,,,53,49
1663680,note_on,1440,0,1,,,,,,,,,0,,,81,0
1663920,note_on,0,0,3,,,,,,,,,2,,,60,49
1663920,control_change,0,0,3,,,,,,,,,2,64,0,,
1663920,note_on,240,0,3,,,,,,,,,2,,,53,0
1664160,note_on,480,0,1,,,,,,,,,0,,,84,0
1664160,note_on,0,0,1,,,,,,,,,0,,,81,75
1664160,note_on,960,0,2,,,,,,,,,1,,,76,88
1664160,note_on,960,0,4,,,,,,,,,3,,,35,62
1664160,note_on,0,0,4,,,,,,,,,3,,,47,62
1664160,note_on,240,0,3,,,,,,,,,2,,,60,0
1664400,note_on,0,0,3,,,,,,,,,2,,,62,49
1664400,control_change,240,0,3,,,,,,,,,2,64,127,,
1664640,note_on,0,0,1,,,,,,,,,0,,,80,75
1664640,note_on,480,0,1,,,,,,,,,0,,,81,0
1664640,note_on,240,0,3,,,,,,,,,2,,,62,0
1664640,note_on,0,0,3,,,,,,,,,2,,,52,49
1664880,note_on,240,0,3,,,,,,,,,2,,,52,0
1664880,note_on,0,0,3,,,,,,,,,2,,,62,49
1665120,note_on,240,0,3,,,,,,,,,2,,,62,0
1665120,note_on,0,0,3,,,,,,,,,2,,,64,49
1665120,note_on,480,0,1,,,,,,,,,0,,,80,0
1665360,note_on,240,0,3,,,,,,,,,2,,,64,0
1665360,note_on,0,0,3,,,,,,,,,2,,,62,49
1665600,note_on,0,0,4,,,,,,,,,3,,,38,62
1665600,note_on,1440,0,4,,,,,,,,,3,,,47,0
1665600,note_on,0,0,4,,,,,,,,,3,,,50,62
1665600,note_on,0,0,3,,,,,,,,,2,,,53,49
1665600,note_on,240,0,3,,,,,,,,,2,,,62,0
1665600,note_on,1440,0,2,,,,,,,,,1,,,76,0
1665600,note_on,0,0,2,,,,,,,,,1,,,76,62
1665600,note_on,0,0,4,,,,,,,,,3,,,35,0
1665840,note_on,0,0,3,,,,,,,,,2,,,62,49
1665840,control_change,0,0,3,,,,,,,,,2,64,0,,
1665840,note_on,240,0,3,,,,,,,,,2,,,53,0
1666080,note_on,480,0,2,,,,,,,,,1,,,76,0
1666080,note_on,0,0,2,,,,,,,,,1,,,76,62
1666080,note_on,0,0,4,,,,,,,,,3,,,38,0
1666080,note_on,960,0,1,,,,,,,,,0,,,79,75
1666080,note_on,0,0,4,,,,,,,,,3,,,50,62
1666080,note_on,240,0,3,,,,,,,,,2,,,62,0
1666080,note_on,0,0,4,,,,,,,,,3,,,38,62
1666080,note_on,480,0,4,,,,,,,,,3,,,50,0
1666320,control_change,240,0,3,,,,,,,,,2,64,127,,
1666320,note_on,0,0,3,,,,,,,,,2,,,64,49
1666560,note_on,0,0,4,,,,,,,,,3,,,37,62
1666560,note_on,0,0,3,,,,,,,,,2,,,58,49
1666560,note_on,240,0,3,,,,,,,,,2,,,64,0
1666560,note_on,0,0,4,,,,,,,,,3,,,49,62
1666560,note_on,0,0,4,,,,,,,,,3,,,38,0
1666560,note_on,480,0,4,,,,,,,,,3,,,50,0
1666800,note_on,0,0,3,,,,,,,,,2,,,64,49
1666800,note_on,240,0,3,,,,,,,,,2,,,58,0
1667040,note_on,960,0,2,,,,,,,,,1,,,76,0
1667040,note_on,480,0,4,,,,,,,,,3,,,49,0
1667040,note_on,0,0,4,,,,,,,,,3,,,37,0
1667040,note_on,0,0,3,,,,,,,,,2,,,67,49
1667040,note_on,240,0,3,,,,,,,,,2,,,64,0
1667280,note_on,240,0,3,,,,,,,,,2,,,67,0
1667280,note_on,0,0,3,,,,,,,,,2,,,64,49
1667520,note_on,240,0,3,,,,,,,,,2,,,64,0
1667520,note_on,0,0,3,,,,,,,,,2,,,58,49
1667520,note_on,1440,0,1,,,,,,,,,0,,,79,0
1667520,note_on,0,0,1,,,,,,,,,0,,,82,75
1667760,note_on,240,0,3,,,,,,,,,2,,,58,0
1667760,note_on,0,0,3,,,,,,,,,2,,,64,49
1667760,control_change,0,0,3,,,,,,,,,2,64,0,,
1668000,note_on,480,0,1,,,,,,,,,0,,,82,0
1668000,control_change,960,0,2,,,,,,,,,1,64,127,,
1668000,note_on,0,0,2,,,,,,,,,1,,,69,62
1668000,note_on,960,0,4,,,,,,,,,3,,,38,62
1668000,note_on,0,0,4,,,,,,,,,3,,,50,62
1668000,note_on,0,0,1,,,,,,,,,0,,,76,75
1668000,note_on,0,0,3,,,,,,,,,2,,,62,49
1668000,control_change,0,0,3,,,,,,,,,2,64,127,,
1668000,note_on,240,0,3,,,,,,,,,2,,,64,0
1668240,note_on,240,0,3,,,,,,,,,2,,,62,0
1668240,note_on,0,0,3,,,,,,,,,2,,,57,49
1668480,note_on,0,0,3,,,,,,,,,2,,,65,49
1668480,note_on,0,0,3,,,,,,,,,2,,,62,49
1668480,note_on,240,0,3,,,,,,,,,2,,,57,0
1668480,note_on,480,0,1,,,,,,,,,0,,,76,0
1668480,note_on,0,0,1,,,,,,,,,0,,,77,75
1668720,note_on,240,0,3,,,,,,,,,2,,,65,0
1668720,note_on,0,0,3,,,,,,,,,2,,,62,0
1668720,note_on,0,0,3,,,,,,,,,2,,,57,49
1668960,note_on,240,0,3,,,,,,,,,2,,,57,0
1668960,note_on,0,0,3,,,,,,,,,2,,,64,49
1668960,note_on,0,0,3,,,,,,,,,2,,,60,49
1668960,note_on,480,0,1,,,,,,,,,0,,,77,0
1669200,note_on,0,0,3,,,,,,,,,2,,,60,0
1669200,note_on,240,0,3,,,,,,,,,2,,,64,0
1669200,note_on,0,0,3,,,,,,,,,2,,,57,49
1669440,note_on,1440,0,2,,,,,,,,,1,,,69,0
1669440,note_on,0,0,3,,,,,,,,,2,,,63,49
1669440,note_on,0,0,3,,,,,,,,,2,,,59,49
1669440,note_on,480,0,1,,,,,,,,,0,,,87,75
1669440,note_on,1440,0,4,,,,,,,,,3,,,50,0
1669440,note_on,0,0,4,,,,,,,,,3,,,41,62
1669440,note_on,0,0,4,,,,,,,,,3,,,53,62
1669440,note_on,240,0,3,,,,,,,,,2,,,57,0
1669440,note_on,0,0,2,,,,,,,,,1,,,71,62
1669440,note_on,0,0,4,,,,,,,,,3,,,38,0
1669680,note_on,240,0,3,,,,,,,,,2,,,63,0
1669680,control_change,0,0,3,,,,,,,,,2,64,0,,
1669680,note_on,0,0,3,,,,,,,,,2,,,57,49
1669680,note_on,0,0,3,,,,,,,,,2,,,59,0
1669920,note_on,480,0,1,,,,,,,,,0,,,87,0
1669920,note_on,0,0,1,,,,,,,,,0,,,88,75
1669920,note_on,480,0,4,,,,,,,,,3,,,53,0
1669920,note_on,0,0,4,,,,,,,,,3,,,41,0
1669920,note_on,0,0,4,,,,,,,,,3,,,40,62
1669920,note_on,0,0,2,,,,,,,,,1,,,72,62
1669920,note_on,480,0,2,,,,,,,,,1,,,71,0
1669920,note_on,0,0,4,,,,,,,,,3,,,52,62
1669920,note_on,240,0,3,,,,,,,,,2,,,57,0
1670160,control_change,240,0,3,,,,,,,,,2,64,127,,
1670160,note_on,0,0,3,,,,,,,,,2,,,60,49
1670400,note_on,240,0,3,,,,,,,,,2,,,60,0
1670400,note_on,0,0,3,,,,,,,,,2,,,57,49
1670640,note_on,720,0,1,,,,,,,,,0,,,88,0
1670640,note_on,0,0,1,,,,,,,,,0,,,81,75
1670640,note_on,240,0,3,,,,,,,,,2,,,57,0
1670640,note_on,0,0,3,,,,,,,,,2,,,60,49
1670880,note_on,0,0,3,,,,,,,,,2,,,64,49
1670880,note_on,960,0,4,,,,,,,,,3,,,52,0
1670880,note_on,240,0,3,,,,,,,,,2,,,60,0
1670880,note_on,0,0,4,,,,,,,,,3,,,40,0
1670880,note_on,0,0,4,,,,,,,,,3,,,43,62
1670880,note_on,0,0,4,,,,,,,,,3,,,55,62
1670880,note_on,240,0,1,,,,,,,,,0,,,81,0
1670880,note_on,960,0,2,,,,,,,,,1,,,72,0
1670880,control_change,0,0,2,,,,,,,,,1,64,0,,
1670880,note_on,0,0,2,,,,,,,,,1,,,73,62
1670880,note_on,0,0,1,,,,,,,,,0,,,81,75
1671120,note_on,240,0,3,,,,,,,,,2,,,64,0
1671120,note_on,0,0,3,,,,,,,,,2,,,61,49
1671360,note_on,0,0,1,,,,,,,,,0,,,81,75
1671360,control_change,0,0,1,,,,,,,,,0,64,127,,
1671360,note_on,480,0,1,,,,,,,,,0,,,81,0
1671360,note_on,240,0,3,,,,,,,,,2,,,61,0
1671360,note_on,0,0,3,,,,,,,,,2,,,57,49
1671600,note_on,240,0,3,,,,,,,,,2,,,57,0
1671600,note_on,0,0,3,,,,,,,,,2,,,61,49
1671600,control_change,0,0,3,,,,,,,,,2,64,0,,
1671840,note_on,0,0,3,,,,,,,,,2,,,62,49
1671840,note_on,0,0,4,,,,,,,,,3,,,43,0
1671840,note_on,0,0,4,,,,,,,,,3,,,42,62
1671840,note_on,0,0,4,,,,,,,,,3,,,54,62
1671840,note_on,960,0,2,,,,,,,,,1,,,73,0
1671840,control_change,0,0,3,,,,,,,,,2,64,127,,
1671840,note_on,480,0,1,,,,,,,,,0,,,81,0
1671840,control_change,0,0,2,,,,,,,,,1,64,127,,
1671840,note_on,960,0,4,,,,,,,,,3,,,55,0
1671840,note_on,240,0,3,,,,,,,,,2,,,61,0
1671840,note_on,0,0,2,,,,,,,,,1,,,74,62
1671840,note_on,0,0,1,,,,,,,,,0,,,80,75
1672080,note_on,0,0,1,,,,,,,,,0,,,81,75
1672080,note_on,240,0,1,,,,,,,,,0,,,80,0
1672080,note_on,0,0,3,,,,,,,,,2,,,57,49
1672080,note_on,240,0,3,,,,,,,,,2,,,62,0
1672320,note_on,0,0,2,,,,,,,,,1,,,69,62
1672320,note_on,480,0,2,,,,,,,,,1,,,74,0
1672320,note_on,0,0,3,,,,,,,,,2,,,56,49
1672320,note_on,0,0,1,,,,,,,,,0,,,82,75
1672320,note_on,240,0,1,,,,,,,,,0,,,81,0
1672320,note_on,240,0,3,,,,,,,,,2,,,57,0
1672560,note_on,240,0,3,,,,,,,,,2,,,56,0
1672560,note_on,240,0,1,,,,,,,,,0,,,82,0
1672560,control_change,0,0,1,,,,,,,,,0,64,0,,
1672560,note_on,0,0,1,,,,,,,,,0,,,81,75
1672560,note_on,0,0,3,,,,,,,,,2,,,57,49
1672800,note_on,0,0,4,,,,,,,,,3,,,42,0
1672800,note_on,0,0,4,,,,,,,,,3,,,41,62
1672800,note_on,0,0,4,,,,,,,,,3,,,53,62
1672800,note_on,240,0,1,,,,,,,,,0,,,81,0
1672800,note_on,0,0,1,,,,,,,,,0,,,74,75
1672800,note_on,960,0,4,,,,,,,,,3,,,54,0
1672800,note_on,0,0,2,,,,,,,,,1,,,70,62
1672800,note_on,0,0,3,,,,,,,,,2,,,58,49
1672800,note_on,240,0,3,,,,,,,,,2,,,57,0
1672800,note_on,480,0,2,,,,,,,,,1,,,69,0
1673040,note_on,240,0,3,,,,,,,,,2,,,58,0
1673040,note_on,0,0,3,,,,,,,,,2,,,62,49
1673280,note_on,0,0,1,,,,,,,,,0,,,74,75
1673280,note_on,480,0,1,,,,,,,,,0,,,74,0
1673280,control_change,0,0,2,,,,,,,,,1,64,0,,
1673280,note_on,0,0,2,,,,,,,,,1,,,69,62
1673280,note_on,480,0,2,,,,,,,,,1,,,70,0
1673280,note_on,240,0,3,,,,,,,,,2,,,62,0
1673280,note_on,0,0,3,,,,,,,,,2,,,57,49
1673520,note_on,0,0,3,,,,,,,,,2,,,62,49
1673520,control_change,0,0,3,,,,,,,,,2,64,0,,
1673520,note_on,240,0,3,,,,,,,,,2,,,57,0
1673760,note_on,0,0,4,,,,,,,,,3,,,52,62
1673760,note_on,480,0,1,,,,,,,,,0,,,74,0
1673760,control_change,0,0,1,,,,,,,,,0,64,127,,
1673760,note_on,0,0,1,,,,,,,,,0,,,76,75
1673760,note_on,960,0,4,,,,,,,,,3,,,53,0
1673760,note_on,0,0,4,,,,,,,,,3,,,41,0
1673760,note_on,240,0,3,,,,,,,,,2,,,62,0
1673760,note_on,480,0,2,,,,,,,,,1,,,69,0
1673760,note_on,0,0,2,,,,,,,,,1,,,64,62
1673760,note_on,0,0,2,,,,,,,,,1,,,68,62
1673760,note_on,0,0,4,,,,,,,,,3,,,40,62
1674000,note_on,0,0,3,,,,,,,,,2,,,59,49
1674000,control_change,240,0,3,,,,,,,,,2,64,127,,
1674240,note_on,0,0,3,,,,,,,,,2,,,56,49
1674240,note_on,240,0,3,,,,,,,,,2,,,59,0
1674480,note_on,0,0,3,,,,,,,,,2,,,59,49
1674480,note_on,240,0,3,,,,,,,,,2,,,56,0
1674720,note_on,960,0,2,,,,,,,,,1,,,68,0
1674720,note_on,0,0,3,,,,,,,,,2,,,62,49
1674720,note_on,240,0,3,,,,,,,,,2,,,59,0
1674720,note_on,0,0,4,,,,,,,,,3,,,32,62
1674720,note_on,0,0,2,,,,,,,,,1,,,71,62
1674720,note_on,0,0,4,,,,,,,,,3,,,44,62
1674720,note_on,960,0,4,,,,,,,,,3,,,52,0
1674720,note_on,0,0,4,,,,,,,,,3,,,40,0
1674960,note_on,1200,0,1,,,,,,,,,0,,,76,0
1674960,note_on,0,0,1,,,,,,,,,0,,,74,75
1674960,note_on,240,0,3,,,,,,,,,2,,,62,0
1674960,note_on,0,0,3,,,,,,,,,2,,,59,49
1675200,note_on,240,0,3,,,,,,,,,2,,,59,0
1675200,note_on,0,0,3,,,,,,,,,2,,,60,49
1675200,note_on,240,0,1,,,,,,,,,0,,,74,0
1675200,note_on,0,0,2,,,,,,,,,1,,,64,62
1675200,note_on,480,0,2,,,,,,,,,1,,,71,0
1675200,note_on,0,0,2,,,,,,,,,1,,,64,0
1675200,note_on,0,0,1,,,,,,,,,0,,,72,75
1675440,note_on,0,0,1,,,,,,,,,0,,,71,75
1675440,control_change,0,0,1,,,,,,,,,0,64,0,,
1675440,control_change,0,0,3,,,,,,,,,2,64,0,,
1675440,note_on,240,0,1,,,,,,,,,0,,,72,0
1675440,note_on,240,0,3,,,,,,,,,2,,,60,0
1675440,note_on,0,0,3,,,,,,,,,2,,,62,49
1675680,note_on,0,0,4,,,,,,,,,3,,,33,62
1675680,note_on,240,0,3,,,,,,,,,2,,,62,0
1675680,note_on,0,0,4,,,,,,,,,3,,,45,62
1675680,note_on,0,0,4,,,,,,,,,3,,,32,0
1675680,note_on,960,0,4,,,,,,,,,3,,,44,0
1675680,note_on,0,0,2,,,,,,,,,1,,,64,62
1675680,note_on,480,0,2,,,,,,,,,1,,,64,0
1675680,control_change,0,0,1,,,,,,,,,0,64,127,,
1675680,note_on,0,0,1,,,,,,,,,0,,,74,75
1675680,note_on,240,0,1,,,,,,,,,0,,,71,0
1675920,note_on,240,0,1,,,,,,,,,0,,,74,0
1675920,note_on,0,0,3,,,,,,,,,2,,,57,49
1675920,control_change,240,0,3,,,,,,,,,2,64,127,,
1675920,note_on,0,0,1,,,,,,,,,0,,,72,75
1676160,note_on,240,0,1,,,,,,,,,0,,,72,0
1676160,note_on,0,0,3,,,,,,,,,2,,,52,49
1676160,note_on,240,0,3,,,,,,,,,2,,,57,0
1676160,note_on,0,0,1,,,,,,,,,0,,,71,75
1676400,note_on,240,0,3,,,,,,,,,2,,,52,0
1676400,note_on,0,0,3,,,,,,,,,2,,,57,49
1676400,note_on,240,0,1,,,,,,,,,0,,,71,0
1676400,note_on,0,0,1,,,,,,,,,0,,,72,75
1676640,note_on,240,0,3,,,,,,,,,2,,,57,0
1676640,note_on,0,0,3,,,,,,,,,2,,,60,49
1676640,note_on,240,0,1,,,,,,,,,0,,,72,0
1676640,control_change,0,0,1,,,,,,,,,0,64,0,,
1676640,note_on,0,0,1,,,,,,,,,0,,,69,75
1676880,note_on,240,0,3,,,,,,,,,2,,,60,0
1676880,note_on,0,0,3,,,,,,,,,2,,,57,49
1677120,note_on,240,0,3,,,,,,,,,2,,,57,0
1677120,note_on,480,0,1,,,,,,,,,0,,,69,0
1677120,note_on,1440,0,4,,,,,,,,,3,,,45,0
1677120,note_on,0,0,4,,,,,,,,,3,,,33,0
1677120,note_on,0,0,4,,,,,,,,,3,,,35,62
1677120,note_on,0,0,4,,,,,,,,,3,,,47,62
1677120,note_on,0,0,1,,,,,,,,,0,,,88,75
1677120,note_on,1440,0,2,,,,,,,,,1,,,64,0
1677120,note_on,0,0,3,,,,,,,,,2,,,56,49
1677360,note_on,0,0,3,,,,,,,,,2,,,52,49
1677360,control_change,0,0,3,,,,,,,,,2,64,0,,
1677360,note_on,240,0,3,,,,,,,,,2,,,56,0
1677600,note_on,240,0,3,,,,,,,,,2,,,52,0
1677600,note_on,480,0,1,,,,,,,,,0,,,88,0
1677600,control_change,0,0,1,,,,,,,,,0,64,127,,
1677600,note_on,0,0,1,,,,,,,,,0,,,87,75
1677600,note_on,480,0,4,,,,,,,,,3,,,47,0
1677600,note_on,0,0,4,,,,,,,,,3,,,35,0
1677600,note_on,0,0,4,,,,,,,,,3,,,36,62
1677600,note_on,0,0,4,,,,,,,,,3,,,48,62
1677840,note_on,240,0,1,,,,,,,,,0,,,87,0
1677840,note_on,0,0,3,,,,,,,,,2,,,57,49
1677840,control_change,240,0,3,,,,,,,,,2,64,127,,
1677840,note_on,0,0,1,,,,,,,,,0,,,88,75
1678080,note_on,0,0,2,,,,,,,,,1,,,69,62
1678080,control_change,960,0,2,,,,,,,,,1,64,127,,
1678080,note_on,0,0,1,,,,,,,,,0,,,89,75
1678080,note_on,240,0,1,,,,,,,,,0,,,88,0
1678080,note_on,0,0,3,,,,,,,,,2,,,52,49
1678080,note_on,240,0,3,,,,,,,,,2,,,57,0
1678320,note_on,0,0,3,,,,,,,,,2,,,57,49
1678320,note_on,0,0,1,,,,,,,,,0,,,88,75
1678320,note_on,240,0,3,,,,,,,,,2,,,52,0
1678320,note_on,240,0,1,,,,,,,,,0,,,89,0
1678560,note_on,960,0,4,,,,,,,,,3,,,48,0
1678560,note_on,0,0,4,,,,,,,,,3,,,36,0
1678560,note_on,240,0,1,,,,,,,,,0,,,88,0
1678560,note_on,0,0,4,,,,,,,,,3,,,49,62
1678560,note_on,0,0,4,,,,,,,,,3,,,37,62
1678560,note_on,0,0,1,,,,,,,,,0,,,81,75
1678560,note_on,0,0,3,,,,,,,,,2,,,64,49
1678560,note_on,240,0,3,,,,,,,,,2,,,57,0
1678560,control_change,0,0,1,,,,,,,,,0,64,0,,
1678560,note_on,0,0,2,,,,,,,,,1,,,76,62
1678560,note_on,480,0,2,,,,,,,,,1,,,69,0
1678800,note_on,240,0,3,,,,,,,,,2,,,64,0
1678800,note_on,0,0,3,,,,,,,,,2,,,57,49
1679040,note_on,480,0,2,,,,,,,,,1,,,76,0
1679040,note_on,240,0,3,,,,,,,,,2,,,57,0
1679040,note_on,0,0,3,,,,,,,,,2,,,52,49
1679040,control_change,0,0,1,,,,,,,,,0,64,127,,
1679040,note_on,0,0,1,,,,,,,,,0,,,81,75
1679040,note_on,480,0,1,,,,,,,,,0,,,81,0
1679280,note_on,240,0,3,,,,,,,,,2,,,52,0
1679280,control_change,0,0,3,,,,,,,,,2,64,0,,
1679280,note_on,0,0,3,,,,,,,,,2,,,57,49
1679520,note_on,0,0,4,,,,,,,,,3,,,37,0
1679520,note_on,960,0,4,,,,,,,,,3,,,49,0
1679520,note_on,0,0,4,,,,,,,,,3,,,38,62
1679520,note_on,0,0,1,,,,,,,,,0,,,82,75
1679520,note_on,0,0,4,,,,,,,,,3,,,50,62
1679520,note_on,480,0,2,,,,,,,,,1,,,79,62
1679520,note_on,480,0,1,,,,,,,,,0,,,81,0
1679520,note_on,240,0,3,,,,,,,,,2,,,57,0
1679760,note_on,0,0,1,,,,,,,,,0,,,81,75
1679760,note_on,240,0,1,,,,,,,,,0,,,82,0
1679760,control_change,240,0,3,,,,,,,,,2,64,127,,
1679760,note_on,0,0,3,,,,,,,,,2,,,57,49
1680000,note_on,240,0,3,,,,,,,,,2,,,57,0
1680000,note_on,0,0,3,,,,,,,,,2,,,53,49
1680000,note_on,0,0,2,,,,,,,,,1,,,77,62
1680000,note_on,480,0,2,,,,,,,,,1,,,79,0
1680000,note_on,240,0,1,,,,,,,,,0,,,81,0
1680000,note_on,0,0,1,,,,,,,,,0,,,80,75
1680240,note_on,0,0,3,,,,,,,,,2,,,57,49
1680240,note_on,240,0,3,,,,,,,,,2,,,53,0
1680240,note_on,0,0,1,,,,,,,,,0,,,81,75
1680240,control_change,0,0,1,,,,,,,,,0,64,0,,
1680240,note_on,240,0,1,,,,,,,,,0,,,80,0
1680480,note_on,0,0,4,,,,,,,,,3,,,41,62
1680480,note_on,480,0,2,,,,,,,,,1,,,77,0
1680480,note_on,240,0,3,,,,,,,,,2,,,57,0
1680480,note_on,0,0,3,,,,,,,,,2,,,58,49
1680480,note_on,0,0,2,,,,,,,,,1,,,70,62
1680480,note_on,960,0,4,,,,,,,,,3,,,50,0
1680480,note_on,240,0,1,,,,,,,,,0,,,81,0
1680480,note_on,0,0,1,,,,,,,,,0,,,74,75
1680480,note_on,0,0,4,,,,,,,,,3,,,53,62
1680480,note_on,0,0,4,,,,,,,,,3,,,38,0
1680720,note_on,0,0,3,,,,,,,,,2,,,62,49
1680720,note_on,240,0,3,,,,,,,,,2,,,58,0
1680960,note_on,480,0,1,,,,,,,,,0,,,74,0
1680960,control_change,0,0,2,,,,,,,,,1,64,0,,
1680960,note_on,0,0,1,,,,,,,,,0,,,74,75
1680960,note_on,0,0,2,,,,,,,,,1,,,69,62
1680960,note_on,480,0,2,,,,,,,,,1,,,70,0
1680960,note_on,0,0,3,,,,,,,,,2,,,57,49
1680960,note_on,240,0,3,,,,,,,,,2,,,62,0
1681200,note_on,240,0,3,,,,,,,,,2,,,57,0
1681200,control_change,0,0,3,,,,,,,,,2,64,0,,
1681200,note_on,0,0,3,,,,,,,,,2,,,62,49
1681440,note_on,0,0,4,,,,,,,,,3,,,52,62
1681440,note_on,0,0,4,,,,,,,,,3,,,40,62
1681440,control_change,0,0,4,,,,,,,,,3,64,127,,
1681440,note_on,960,0,4,,,,,,,,,3,,,53,0
1681440,note_on,480,0,2,,,,,,,,,1,,,69,0
1681440,control_change,0,0,2,,,,,,,,,1,64,127,,
1681440,note_on,0,0,2,,,,,,,,,1,,,71,62
1681440,note_on,0,0,4,,,,,,,,,3,,,41,0
1681440,note_on,0,0,3,,,,,,,,,2,,,59,49
1681440,note_on,0,0,3,,,,,,,,,2,,,56,49
1681440,control_change,0,0,3,,,,,,,,,2,64,127,,
1681440,note_on,0,0,1,,,,,,,,,0,,,76,75
1681440,control_change,0,0,1,,,,,,,,,0,64,127,,
1681440,note_on,480,0,1,,,,,,,,,0,,,74,0
1681440,note_on,240,0,3,,,,,,,,,2,,,62,0
1681440,note_on,0,0,3,,,,,,,,,2,,,62,49
1681920,note_on,480,0,2,,,,,,,,,1,,,71,0
1681920,note_on,0,0,2,,,,,,,,,1,,,74,62
1682400,note_on,960,0,1,,,,,,,,,0,,,76,0
1682400,note_on,0,0,4,,,,,,,,,3,,,40,0
1682400,note_on,960,0,4,,,,,,,,,3,,,52,0
1682400,note_on,0,0,2,,,,,,,,,1,,,72,62
1682400,note_on,0,0,4,,,,,,,,,3,,,41,62
1682400,note_on,0,0,4,,,,,,,,,3,,,53,62
1682400,note_on,480,0,2,,,,,,,,,1,,,74,0
1682400,note_on,0,0,1,,,,,,,,,0,,,77,75
1682400,note_on,0,0,3,,,,,,,,,2,,,60,49
1682400,note_on,0,0,3,,,,,,,,,2,,,57,49
1682400,note_on,0,0,3,,,,,,,,,2,,,56,0
1682400,note_on,0,0,3,,,,,,,,,2,,,59,0
1682400,note_on,960,0,3,,,,,,,,,2,,,62,0
1682880,note_on,480,0,2,,,,,,,,,1,,,72,0
1682880,note_on,0,0,2,,,,,,,,,1,,,69,62
1683360,note_on,0,0,1,,,,,,,,,0,,,74,75
1683360,note_on,0,0,4,,,,,,,,,3,,,41,0
1683360,note_on,0,0,4,,,,,,,,,3,,,38,62
1683360,note_on,0,0,3,,,,,,,,,2,,,57,49
1683360,note_on,0,0,4,,,,,,,,,3,,,50,62
1683360,note_on,0,0,3,,,,,,,,,2,,,53,49
1683360,note_on,480,0,2,,,,,,,,,1,,,69,0
1683360,note_on,960,0,1,,,,,,,,,0,,,77,0
1683360,note_on,0,0,3,,,,,,,,,2,,,59,49
1683360,note_on,960,0,3,,,,,,,,,2,,,60,0
1683360,note_on,0,0,3,,,,,,,,,2,,,57,0
1683360,note_on,0,0,2,,,,,,,,,1,,,65,62
1683360,note_on,960,0,4,,,,,,,,,3,,,53,0
1683840,note_on,0,0,2,,,,,,,,,1,,,69,62
1683840,note_on,480,0,2,,,,,,,,,1,,,65,0
1684320,note_on,480,0,2,,,,,,,,,1,,,69,0
1684320,note_on,960,0,4,,,,,,,,,3,,,50,0
1684320,note_on,0,0,4,,,,,,,,,3,,,38,0
1684320,control_change,0,0,4,,,,,,,,,3,64,0,,
1684320,note_on,0,0,4,,,,,,,,,3,,,40,62
1684320,note_on,0,0,2,,,,,,,,,1,,,68,62
1684320,note_on,960,0,1,,,,,,,,,0,,,74,0
1684320,control_change,0,0,1,,,,,,,,,0,64,0,,
1684320,note_on,0,0,1,,,,,,,,,0,,,76,75
1684320,note_on,960,0,3,,,,,,,,,2,,,59,0
1684320,note_on,0,0,3,,,,,,,,,2,,,57,0
1684320,note_on,0,0,3,,,,,,,,,2,,,53,0
1684320,control_change,0,0,3,,,,,,,,,2,64,0,,
1684320,note_on,0,0,3,,,,,,,,,2,,,56,49
1684320,note_on,0,0,3,,,,,,,,,2,,,59,49
1684320,note_on,0,0,3,,,,,,,,,2,,,62,49
1684320,note_on,0,0,4,,,,,,,,,3,,,52,62
1684800,note_on,480,0,2,,,,,,,,,1,,,68,0
1684800,note_on,0,0,2,,,,,,,,,1,,,71,62
1684800,control_change,0,0,2,,,,,,,,,1,64,0,,
1685280,note_on,0,0,4,,,,,,,,,3,,,40,0
1685280,note_on,960,0,4,,,,,,,,,3,,,52,0
1685280,note_on,0,0,2,,,,,,,,,1,,,64,62
1685280,note_on,480,0,2,,,,,,,,,1,,,71,0
1685280,note_on,0,0,1,,,,,,,,,0,,,69,75
1685280,note_on,0,0,3,,,,,,,,,2,,,60,49
1685280,note_on,0,0,3,,,,,,,,,2,,,56,0
1685280,note_on,0,0,3,,,,,,,,,2,,,59,0
1685280,note_on,960,0,3,,,,,,,,,2,,,62,0
1685280,note_on,960,0,1,,,,,,,,,0,,,76,0
1685760,control_change,480,0,4,,,,,,,,,3,64,127,,
1685760,note_on,0,0,4,,,,,,,,,3,,,57,62
1686240,note_on,480,0,4,,,,,,,,,3,,,57,0
1686240,note_on,0,0,4,,,,,,,,,3,,,52,62
1686720,note_on,480,0,4,,,,,,,,,3,,,52,0
1686720,note_on,0,0,4,,,,,,,,,3,,,48,62
1687200,set_tempo,82560,1,0,,,,,,312500,,,,,,,
1687200,note_on,480,0,4,,,,,,,,,3,,,48,0
1687200,note_on,0,0,4,,,,,,,,,3,,,45,62
1687680,note_on,480,0,4,,,,,,,,,3,,,45,0
1687680,note_on,0,0,4,,,,,,,,,3,,,40,62
1688160,note_on,480,0,4,,,,,,,,,3,,,40,0
1688160,note_on,0,0,4,,,,,,,,,3,,,36,62
1688640,note_on,480,0,4,,,,,,,,,3,,,36,0
1688640,control_change,0,0,4,,,,,,,,,3,64,0,,
1688640,note_on,0,0,4,,,,,,,,,3,,,35,62
1689120,note_on,0,0,4,,,,,,,,,3,,,33,62
1689120,set_tempo,1920,1,0,,,,,,312500,,,,,,,
1689120,note_on,480,0,4,,,,,,,,,3,,,35,0
1689600,note_on,4320,0,1,,,,,,,,,0,,,69,0
1689600,note_on,4320,0,3,,,,,,,,,2,,,60,0
1689600,note_on,4320,0,2,,,,,,,,,1,,,64,0
1689600,note_on,480,0,4,,,,,,,,,3,,,33,0
1691040,note_on,1440,0,3,,,,,,,,,2,,,52,127
1691040,note_on,1440,0,4,,,,,,,,,3,,,40,127
1691040,note_on,0,0,2,,,,,,,,,1,,,68,127
1691040,note_on,1440,0,2,,,,,,,,,1,,,64,127
1691040,note_on,0,0,3,,,,,,,,,2,,,59,127
1691040,note_on,0,0,1,,,,,,,,,0,,,76,127
1691040,note_on,1440,0,1,,,,,,,,,0,,,71,127
1691040,note_on,0,0,3,,,,,,,,,2,,,56,127
1691136,note_on,0,0,1,,,,,,,,,0,,,71,0
1691136,note_on,96,0,1,,,,,,,,,0,,,76,0
1691136,note_on,0,0,2,,,,,,,,,1,,,64,0
1691136,note_on,0,0,3,,,,,,,,,2,,,52,0
1691136,note_on,0,0,3,,,,,,,,,2,,,56,0
1691136,note_on,96,0,4,,,,,,,,,3,,,40,0
1691136,note_on,96,0,3,,,,,,,,,2,,,59,0
1691136,note_on,96,0,2,,,,,,,,,1,,,68,0
1692960,note_on,1824,0,3,,,,,,,,,2,,,52,127
1692960,note_on,0,0,3,,,,,,,,,2,,,57,127
1692960,note_on,0,0,3,,,,,,,,,2,,,60,127
1692960,note_on,0,0,4,,,,,,,,,3,,,45,127
1692960,time_signature,3840,1,0,8,4,24,8,,,,,,,,,
1692960,note_on,0,0,2,,,,,,,,,1,,,69,127
1692960,note_on,1824,0,2,,,,,,,,,1,,,64,127
1692960,note_on,0,0,1,,,,,,,,,0,,,81,127
1692960,note_on,0,0,1,,,,,,,,,0,,,76,127
1692960,note_on,1824,0,1,,,,,,,,,0,,,72,127
1692960,end_of_track,0,1,0,,,,,,,,,,,,,
1692960,note_on,1824,0,4,,,,,,,,,3,,,33,127
1693056,note_on,96,0,4,,,,,,,,,3,,,45,0
1693056,note_on,0,0,3,,,,,,,,,2,,,52,0
1693056,end_of_track,0,1,4,,,,,,,,,,,,,
1693056,note_on,0,0,1,,,,,,,,,0,,,76,0
1693056,note_on,0,0,1,,,,,,,,,0,,,72,0
1693056,end_of_track,0,1,3,,,,,,,,,,,,,
1693056,note_on,0,0,4,,,,,,,,,3,,,33,0
1693056,note_on,96,0,2,,,,,,,,,1,,,69,0
1693056,note_on,0,0,2,,,,,,,,,1,,,64,0
1693056,end_of_track,0,1,2,,,,,,,,,,,,,
1693056,note_on,96,0,3,,,,,,,,,2,,,60,0
1693056,note_on,0,0,3,,,,,,,,,2,,,57,0
1693056,note_on,96,0,1,,,,,,,,,0,,,81,0
1693920,control_change,864,0,1,,,,,,,,,0,64,127,,
1695360,control_change,1440,0,1,,,,,,,,,0,64,0,,
1695360,end_of_track,0,1,1,,,,,,,,,,,,,
