tick,type,numerator,denominator,clocks_per_click,notated_32nd_notes_per_beat,time,meta,track,key,tempo,program,channel,note,velocity
0,time_signature,2,4,24,8,0,1,0,,,,,,
0,program_change,,,,,0,0,1,,,0,0,,
0,program_change,,,,,0,0,2,,,0,1,,
0,track_name,,,,,0,1,2,,,,,,
0,track_name,,,,,0,1,1,,,,,,
0,set_tempo,,,,,0,1,0,,535714,,,,
0,set_tempo,,,,,0,1,0,,535714,,,,
0,key_signature,,,,,0,1,0,C#m,,,,,
1536,note_on,,,,,1536,0,1,,,,0,68,82
2048,note_on,,,,,2048,0,2,,,,1,49,89
2048,note_on,,,,,0,0,1,,,,0,64,104
2048,note_off,,,,,512,0,1,,,,0,68,0
2304,note_off,,,,,256,0,1,,,,0,64,0
2304,note_on,,,,,0,0,1,,,,0,61,106
2560,note_off,,,,,256,0,1,,,,0,61,0
2560,note_on,,,,,0,0,1,,,,0,64,106
2560,note_on,,,,,0,0,2,,,,1,56,91
2560,note_off,,,,,512,0,2,,,,1,49,0
2765,note_off,,,,,205,0,2,,,,1,56,0
2816,note_on,,,,,0,0,1,,,,0,68,108
2816,note_off,,,,,256,0,1,,,,0,64,0
3072,note_on,,,,,307,0,2,,,,1,49,94
3072,note_on,,,,,0,0,1,,,,0,64,109
3072,note_off,,,,,256,0,1,,,,0,68,0
3277,note_off,,,,,205,0,2,,,,1,49,0
3328,note_off,,,,,256,0,1,,,,0,64,0
3328,note_on,,,,,0,0,1,,,,0,61,110
3584,note_on,,,,,0,0,1,,,,0,64,111
3584,note_off,,,,,256,0,1,,,,0,61,0
3584,note_on,,,,,307,0,2,,,,1,57,96
3789,note_off,,,,,205,0,2,,,,1,57,0
3840,note_on,,,,,0,0,1,,,,0,69,112
3840,note_off,,,,,256,0,1,,,,0,64,0
4096,note_on,,,,,0,0,1,,,,0,63,113
4096,note_on,,,,,307,0,2,,,,1,48,98
4096,note_off,,,,,256,0,1,,,,0,69,0
4301,note_off,,,,,205,0,2,,,,1,48,0
4352,note_off,,,,,256,0,1,,,,0,63,0
4352,note_on,,,,,0,0,1,,,,0,60,116
4608,note_on,,,,,0,0,1,,,,0,63,116
4608,note_on,,,,,307,0,2,,,,1,57,101
4608,note_off,,,,,256,0,1,,,,0,60,0
4813,note_off,,,,,205,0,2,,,,1,57,0
4864,note_off,,,,,256,0,1,,,,0,63,0
4864,note_on,,,,,0,0,1,,,,0,69,118
5120,note_on,,,,,0,0,1,,,,0,63,119
5120,note_off,,,,,256,0,1,,,,0,69,0
5120,note_on,,,,,307,0,2,,,,1,48,104
5325,note_off,,,,,205,0,2,,,,1,48,0
5376,note_off,,,,,256,0,1,,,,0,63,0
5376,note_on,,,,,0,0,1,,,,0,60,120
5632,note_on,,,,,307,0,2,,,,1,56,106
5632,note_off,,,,,256,0,1,,,,0,60,0
5632,note_on,,,,,0,0,1,,,,0,63,121
5837,note_off,,,,,205,0,2,,,,1,56,0
5888,note_off,,,,,256,0,1,,,,0,63,0
5888,note_on,,,,,0,0,1,,,,0,68,122
6144,note_on,,,,,307,0,2,,,,1,49,109
6144,note_on,,,,,0,0,1,,,,0,68,124
6144,note_off,,,,,256,0,1,,,,0,68,0
6349,note_off,,,,,205,0,2,,,,1,49,0
6400,note_on,,,,,0,0,1,,,,0,64,125
6400,note_off,,,,,256,0,1,,,,0,68,0
6656,note_off,,,,,256,0,1,,,,0,64,0
6656,note_on,,,,,0,0,1,,,,0,68,127
6656,note_on,,,,,307,0,2,,,,1,56,112
6861,note_off,,,,,205,0,2,,,,1,56,0
6912,note_off,,,,,256,0,1,,,,0,68,0
6912,note_on,,,,,0,0,1,,,,0,76,127
7168,note_off,,,,,256,0,1,,,,0,76,0
7168,note_on,,,,,0,0,1,,,,0,68,127
7168,note_on,,,,,307,0,2,,,,1,52,115
7373,note_off,,,,,205,0,2,,,,1,52,0
7424,note_off,,,,,256,0,1,,,,0,68,0
7424,note_on,,,,,0,0,1,,,,0,64,127
7680,note_off,,,,,256,0,1,,,,0,64,0
7680,note_on,,,,,0,0,1,,,,0,68,127
7680,note_on,,,,,307,0,2,,,,1,56,117
7885,note_off,,,,,205,0,2,,,,1,56,0
7936,note_on,,,,,0,0,1,,,,0,73,127
7936,note_off,,,,,256,0,1,,,,0,68,0
8192,note_on,,,,,0,0,1,,,,0,69,127
8192,note_off,,,,,256,0,1,,,,0,73,0
8192,note_on,,,,,307,0,2,,,,1,51,120
8397,note_off,,,,,205,0,2,,,,1,51,0
8448,note_on,,,,,0,0,1,,,,0,68,127
8448,note_off,,,,,256,0,1,,,,0,69,0
8704,note_off,,,,,256,0,1,,,,0,68,0
8704,note_on,,,,,0,0,1,,,,0,66,127
8704,note_on,,,,,307,0,2,,,,1,57,122
8909,note_off,,,,,205,0,2,,,,1,57,0
8960,note_off,,,,,256,0,1,,,,0,66,0
8960,note_on,,,,,0,0,1,,,,0,73,127
9216,note_on,,,,,307,0,2,,,,1,51,125
9216,note_off,,,,,256,0,1,,,,0,73,0
9216,note_on,,,,,0,0,1,,,,0,72,127
9421,note_off,,,,,205,0,2,,,,1,51,0
9472,note_on,,,,,0,0,1,,,,0,66,127
9472,note_off,,,,,256,0,1,,,,0,72,0
9728,note_on,,,,,0,0,1,,,,0,68,127
9728,note_on,,,,,307,0,2,,,,1,56,127
9728,note_off,,,,,256,0,1,,,,0,66,0
9933,note_off,,,,,205,0,2,,,,1,56,0
9984,note_off,,,,,256,0,1,,,,0,68,0
9984,note_on,,,,,0,0,1,,,,0,72,127
10240,note_off,,,,,256,0,1,,,,0,72,0
10240,note_on,,,,,0,0,1,,,,0,73,127
10240,note_on,,,,,307,0,2,,,,1,49,127
10445,note_off,,,,,205,0,2,,,,1,49,0
10496,note_off,,,,,256,0,1,,,,0,73,0
10496,note_on,,,,,0,0,1,,,,0,64,127
10752,note_off,,,,,256,0,1,,,,0,64,0
10752,note_on,,,,,307,0,2,,,,1,61,127
10752,note_on,,,,,0,0,1,,,,0,68,127
10957,note_off,,,,,205,0,2,,,,1,61,0
11008,note_off,,,,,256,0,1,,,,0,68,0
11008,note_on,,,,,0,0,1,,,,0,73,127
11264,note_on,,,,,307,0,2,,,,1,49,127
11264,note_off,,,,,256,0,1,,,,0,73,0
11264,note_on,,,,,0,0,1,,,,0,76,127
11469,note_off,,,,,205,0,2,,,,1,49,0
11520,note_on,,,,,0,0,1,,,,0,68,127
11520,note_off,,,,,256,0,1,,,,0,76,0
11776,note_on,,,,,307,0,2,,,,1,59,127
11776,note_on,,,,,0,0,1,,,,0,76,127
11776,note_off,,,,,256,0,1,,,,0,68,0
11981,note_off,,,,,205,0,2,,,,1,59,0
12032,note_on,,,,,0,0,1,,,,0,80,127
12032,note_off,,,,,256,0,1,,,,0,76,0
12288,note_on,,,,,307,0,2,,,,1,54,127
12288,note_off,,,,,256,0,1,,,,0,80,0
12288,note_on,,,,,0,0,1,,,,0,76,127
12493,note_off,,,,,205,0,2,,,,1,54,0
12544,note_on,,,,,0,0,1,,,,0,68,127
12544,note_off,,,,,256,0,1,,,,0,76,0
12800,note_on,,,,,0,0,1,,,,0,76,127
12800,note_off,,,,,256,0,1,,,,0,68,0
12800,note_on,,,,,307,0,2,,,,1,57,127
13005,note_off,,,,,205,0,2,,,,1,57,0
13056,note_on,,,,,0,0,1,,,,0,80,127
13056,note_off,,,,,256,0,1,,,,0,76,0
13312,note_on,,,,,0,0,1,,,,0,74,127
13312,note_off,,,,,256,0,1,,,,0,80,0
13312,note_on,,,,,307,0,2,,,,1,54,127
13517,note_off,,,,,205,0,2,,,,1,54,0
13568,note_off,,,,,256,0,1,,,,0,74,0
13568,note_on,,,,,0,0,1,,,,0,78,127
13824,note_on,,,,,307,0,2,,,,1,57,127
13824,note_on,,,,,0,0,1,,,,0,73,127
13824,note_off,,,,,256,0,1,,,,0,78,0
14029,note_off,,,,,205,0,2,,,,1,57,0
14080,note_on,,,,,0,0,1,,,,0,76,127
14080,note_off,,,,,256,0,1,,,,0,73,0
14336,note_on,,,,,0,0,1,,,,0,72,127
14336,note_off,,,,,256,0,1,,,,0,76,0
14336,note_on,,,,,307,0,2,,,,1,45,122
14541,note_off,,,,,205,0,2,,,,1,45,0
14592,note_on,,,,,0,0,1,,,,0,75,127
14592,note_off,,,,,256,0,1,,,,0,72,0
14848,note_on,,,,,0,0,1,,,,0,73,127
14848,note_on,,,,,307,0,2,,,,1,54,117
14848,note_off,,,,,256,0,1,,,,0,75,0
15053,note_off,,,,,205,0,2,,,,1,54,0
15104,note_off,,,,,256,0,1,,,,0,73,0
15104,note_on,,,,,0,0,1,,,,0,76,127
15360,note_on,,,,,307,0,2,,,,1,44,110
15360,note_on,,,,,0,0,1,,,,0,75,125
15360,note_off,,,,,256,0,1,,,,0,76,0
15565,note_off,,,,,205,0,2,,,,1,44,0
15616,note_on,,,,,0,0,1,,,,0,78,123
15616,note_off,,,,,256,0,1,,,,0,75,0
15872,note_off,,,,,256,0,1,,,,0,78,0
15872,note_on,,,,,307,0,2,,,,1,56,106
15872,note_on,,,,,0,0,1,,,,0,72,121
16077,note_off,,,,,205,0,2,,,,1,56,0
16128,note_on,,,,,0,0,1,,,,0,75,119
16128,note_off,,,,,256,0,1,,,,0,72,0
16384,note_on,,,,,307,0,2,,,,1,49,102
16384,note_on,,,,,0,0,1,,,,0,76,117
16384,note_off,,,,,256,0,1,,,,0,75,0
16589,note_off,,,,,205,0,2,,,,1,49,0
16640,note_off,,,,,256,0,1,,,,0,76,0
16640,note_on,,,,,0,0,1,,,,0,73,114
16896,note_on,,,,,0,0,1,,,,0,71,112
16896,note_on,,,,,307,0,2,,,,1,51,97
16896,note_off,,,,,256,0,1,,,,0,73,0
17101,note_off,,,,,205,0,2,,,,1,51,0
17152,note_off,,,,,256,0,1,,,,0,71,0
17152,note_on,,,,,0,0,1,,,,0,69,110
17408,note_on,,,,,0,0,1,,,,0,68,108
17408,note_on,,,,,307,0,2,,,,1,52,93
17408,note_off,,,,,256,0,1,,,,0,69,0
17613,note_off,,,,,205,0,2,,,,1,52,0
17664,note_on,,,,,0,0,1,,,,0,66,106
17664,note_off,,,,,256,0,1,,,,0,68,0
17920,note_on,,,,,307,0,2,,,,1,56,89
17920,note_off,,,,,256,0,1,,,,0,66,0
17920,note_on,,,,,0,0,1,,,,0,64,104
18125,note_off,,,,,205,0,2,,,,1,56,0
18176,note_on,,,,,0,0,1,,,,0,63,102
18176,note_off,,,,,256,0,1,,,,0,64,0
18432,note_on,,,,,307,0,2,,,,1,49,49
18432,note_on,,,,,0,0,1,,,,0,64,64
18432,note_off,,,,,256,0,1,,,,0,63,0
18637,note_off,,,,,205,0,2,,,,1,49,0
18688,note_on,,,,,0,0,1,,,,0,61,66
18688,note_off,,,,,256,0,1,,,,0,64,0
18944,note_off,,,,,256,0,1,,,,0,61,0
18944,note_on,,,,,0,0,1,,,,0,64,67
18944,note_on,,,,,307,0,2,,,,1,56,52
19149,note_off,,,,,205,0,2,,,,1,56,0
19200,note_off,,,,,256,0,1,,,,0,64,0
19200,note_on,,,,,0,0,1,,,,0,68,68
19456,note_on,,,,,0,0,1,,,,0,64,69
19456,note_on,,,,,307,0,2,,,,1,49,54
19456,note_off,,,,,256,0,1,,,,0,68,0
19661,note_off,,,,,205,0,2,,,,1,49,0
19712,note_on,,,,,0,0,1,,,,0,61,70
19712,note_off,,,,,256,0,1,,,,0,64,0
19968,note_on,,,,,307,0,2,,,,1,57,57
19968,note_on,,,,,0,0,1,,,,0,64,72
19968,note_off,,,,,256,0,1,,,,0,61,0
20173,note_off,,,,,205,0,2,,,,1,57,0
20224,note_on,,,,,0,0,1,,,,0,69,73
20224,note_off,,,,,256,0,1,,,,0,64,0
20480,note_on,,,,,0,0,1,,,,0,63,74
20480,note_off,,,,,256,0,1,,,,0,69,0
20480,note_on,,,,,307,0,2,,,,1,47,59
20685,note_off,,,,,205,0,2,,,,1,47,0
20736,note_off,,,,,256,0,1,,,,0,63,0
20736,note_on,,,,,0,0,1,,,,0,59,75
20992,note_off,,,,,256,0,1,,,,0,59,0
20992,note_on,,,,,0,0,1,,,,0,63,77
20992,note_on,,,,,307,0,2,,,,1,57,62
21197,note_off,,,,,205,0,2,,,,1,57,0
21248,note_on,,,,,0,0,1,,,,0,69,78
21248,note_off,,,,,256,0,1,,,,0,63,0
21504,note_on,,,,,307,0,2,,,,1,47,64
21504,note_on,,,,,0,0,1,,,,0,63,79
21504,note_off,,,,,256,0,1,,,,0,69,0
21709,note_off,,,,,205,0,2,,,,1,47,0
21760,note_on,,,,,0,0,1,,,,0,59,80
21760,note_off,,,,,256,0,1,,,,0,63,0
22016,note_on,,,,,307,0,2,,,,1,56,68
22016,note_off,,,,,256,0,1,,,,0,59,0
22016,note_on,,,,,0,0,1,,,,0,63,83
22221,note_off,,,,,205,0,2,,,,1,56,0
22272,note_off,,,,,256,0,1,,,,0,63,0
22272,note_on,,,,,0,0,1,,,,0,68,83
22528,note_off,,,,,256,0,1,,,,0,68,0
22528,note_on,,,,,307,0,2,,,,1,52,69
22528,note_on,,,,,0,0,1,,,,0,68,84
22733,note_off,,,,,205,0,2,,,,1,52,0
22784,note_off,,,,,256,0,1,,,,0,68,0
22784,note_on,,,,,0,0,1,,,,0,61,86
23040,note_on,,,,,307,0,2,,,,1,56,72
23040,note_off,,,,,256,0,1,,,,0,61,0
23040,note_on,,,,,0,0,1,,,,0,68,87
23245,note_off,,,,,205,0,2,,,,1,56,0
23296,note_off,,,,,256,0,1,,,,0,68,0
23296,note_on,,,,,0,0,1,,,,0,73,89
23552,note_on,,,,,0,0,1,,,,0,66,90
23552,note_off,,,,,256,0,1,,,,0,73,0
23552,note_on,,,,,307,0,2,,,,1,45,75
23757,note_off,,,,,205,0,2,,,,1,45,0
23808,note_off,,,,,256,0,1,,,,0,66,0
23808,note_on,,,,,0,0,1,,,,0,63,91
24064,note_off,,,,,256,0,1,,,,0,63,0
24064,note_on,,,,,0,0,1,,,,0,66,93
24064,note_on,,,,,307,0,2,,,,1,57,78
24269,note_off,,,,,205,0,2,,,,1,57,0
24320,note_on,,,,,0,0,1,,,,0,73,94
24320,note_off,,,,,256,0,1,,,,0,66,0
24576,note_on,,,,,307,0,2,,,,1,44,81
24576,note_off,,,,,256,0,1,,,,0,73,0
24576,note_on,,,,,0,0,1,,,,0,68,96
24781,note_off,,,,,205,0,2,,,,1,44,0
24832,note_on,,,,,0,0,1,,,,0,64,97
24832,note_off,,,,,256,0,1,,,,0,68,0
25088,note_on,,,,,307,0,2,,,,1,59,83
25088,note_off,,,,,256,0,1,,,,0,64,0
25088,note_on,,,,,0,0,1,,,,0,68,98
25293,note_off,,,,,205,0,2,,,,1,59,0
25344,note_off,,,,,256,0,1,,,,0,68,0
25344,note_on,,,,,0,0,1,,,,0,73,101
25600,note_on,,,,,0,0,1,,,,0,68,103
25600,note_on,,,,,307,0,2,,,,1,56,88
25600,note_off,,,,,256,0,1,,,,0,73,0
25805,note_off,,,,,205,0,2,,,,1,56,0
25856,note_off,,,,,256,0,1,,,,0,68,0
25856,note_on,,,,,0,0,1,,,,0,64,103
26112,note_on,,,,,307,0,2,,,,1,59,90
26112,note_off,,,,,256,0,1,,,,0,64,0
26112,note_on,,,,,0,0,1,,,,0,68,105
26317,note_off,,,,,205,0,2,,,,1,59,0
26368,note_on,,,,,0,0,1,,,,0,71,106
26368,note_off,,,,,256,0,1,,,,0,68,0
26624,note_on,,,,,0,0,1,,,,0,67,108
26624,note_off,,,,,256,0,1,,,,0,71,0
26624,note_on,,,,,307,0,2,,,,1,49,93
26829,note_off,,,,,205,0,2,,,,1,49,0
26880,note_on,,,,,0,0,1,,,,0,64,109
26880,note_off,,,,,256,0,1,,,,0,67,0
27136,note_on,,,,,307,0,2,,,,1,52,95
27136,note_off,,,,,256,0,1,,,,0,64,0
27136,note_on,,,,,0,0,1,,,,0,67,110
27341,note_off,,,,,205,0,2,,,,1,52,0
27392,note_on,,,,,0,0,1,,,,0,70,112
27392,note_off,,,,,256,0,1,,,,0,67,0
27648,note_off,,,,,256,0,1,,,,0,70,0
27648,note_on,,,,,307,0,2,,,,1,48,100
27648,note_on,,,,,0,0,1,,,,0,76,115
27853,note_off,,,,,205,0,2,,,,1,48,0
27904,note_off,,,,,256,0,1,,,,0,76,0
27904,note_on,,,,,0,0,1,,,,0,70,115
28160,note_off,,,,,256,0,1,,,,0,70,0
28160,note_on,,,,,0,0,1,,,,0,76,117
28160,note_on,,,,,307,0,2,,,,1,58,102
28365,note_off,,,,,205,0,2,,,,1,58,0
28416,note_off,,,,,256,0,1,,,,0,76,0
28416,note_on,,,,,0,0,1,,,,0,79,118
28672,note_on,,,,,0,0,1,,,,0,75,120
28672,note_on,,,,,307,0,2,,,,1,47,105
28672,note_off,,,,,256,0,1,,,,0,79,0
28877,note_off,,,,,205,0,2,,,,1,47,0
28928,note_on,,,,,0,0,1,,,,0,79,117
28928,note_off,,,,,256,0,1,,,,0,75,0
29184,note_on,,,,,0,0,1,,,,0,75,115
29184,note_on,,,,,307,0,2,,,,1,59,100
29184,note_off,,,,,256,0,1,,,,0,79,0
29389,note_off,,,,,205,0,2,,,,1,59,0
29440,note_on,,,,,0,0,1,,,,0,78,112
29440,note_off,,,,,256,0,1,,,,0,75,0
29696,note_on,,,,,307,0,2,,,,1,48,94
29696,note_on,,,,,0,0,1,,,,0,69,109
29696,note_off,,,,,256,0,1,,,,0,78,0
29901,note_off,,,,,205,0,2,,,,1,48,0
29952,note_on,,,,,0,0,1,,,,0,76,108
29952,note_off,,,,,256,0,1,,,,0,69,0
30208,note_off,,,,,256,0,1,,,,0,76,0
30208,note_on,,,,,0,0,1,,,,0,69,104
30208,note_on,,,,,307,0,2,,,,1,54,89
30413,note_off,,,,,205,0,2,,,,1,54,0
30464,note_on,,,,,0,0,1,,,,0,75,103
30464,note_off,,,,,256,0,1,,,,0,69,0
30720,note_on,,,,,307,0,2,,,,1,49,85
30720,note_off,,,,,256,0,1,,,,0,75,0
30720,note_on,,,,,0,0,1,,,,0,69,100
30925,note_off,,,,,205,0,2,,,,1,49,0
30976,note_off,,,,,256,0,1,,,,0,69,0
30976,note_on,,,,,0,0,1,,,,0,78,97
31232,note_off,,,,,256,0,1,,,,0,78,0
31232,note_on,,,,,0,0,1,,,,0,68,95
31232,note_on,,,,,307,0,2,,,,1,52,80
31437,note_off,,,,,205,0,2,,,,1,52,0
31488,note_on,,,,,0,0,1,,,,0,76,93
31488,note_off,,,,,256,0,1,,,,0,68,0
31744,note_on,,,,,0,0,1,,,,0,64,90
31744,note_on,,,,,307,0,2,,,,1,45,75
31744,note_off,,,,,256,0,1,,,,0,76,0
31949,note_off,,,,,205,0,2,,,,1,45,0
32000,note_off,,,,,256,0,1,,,,0,64,0
32000,note_on,,,,,0,0,1,,,,0,73,87
32256,note_off,,,,,256,0,1,,,,0,73,0
32256,note_on,,,,,0,0,1,,,,0,61,85
32256,note_on,,,,,307,0,2,,,,1,54,70
32461,note_off,,,,,205,0,2,,,,1,54,0
32512,note_off,,,,,256,0,1,,,,0,61,0
32512,note_on,,,,,0,0,1,,,,0,69,83
32768,note_off,,,,,256,0,1,,,,0,69,0
32768,note_on,,,,,307,0,2,,,,1,47,66
32768,note_on,,,,,0,0,1,,,,0,59,81
32973,note_off,,,,,205,0,2,,,,1,47,0
33024,note_on,,,,,0,0,1,,,,0,68,78
33024,note_off,,,,,256,0,1,,,,0,59,0
33280,note_on,,,,,0,0,1,,,,0,64,76
33280,note_on,,,,,307,0,2,,,,1,56,61
33280,note_off,,,,,256,0,1,,,,0,68,0
33485,note_off,,,,,205,0,2,,,,1,56,0
33536,note_off,,,,,256,0,1,,,,0,64,0
33536,note_on,,,,,0,0,1,,,,0,71,74
33792,note_on,,,,,307,0,2,,,,1,47,57
33792,note_off,,,,,256,0,1,,,,0,71,0
33792,note_on,,,,,0,0,1,,,,0,59,72
33997,note_off,,,,,205,0,2,,,,1,47,0
34048,note_off,,,,,256,0,1,,,,0,59,0
34048,note_on,,,,,0,0,1,,,,0,69,70
34304,note_on,,,,,307,0,2,,,,1,57,53
34304,note_off,,,,,256,0,1,,,,0,69,0
34304,note_on,,,,,0,0,1,,,,0,63,68
34509,note_off,,,,,205,0,2,,,,1,57,0
34560,note_off,,,,,256,0,1,,,,0,63,0
34560,note_on,,,,,0,0,1,,,,0,71,66
34816,note_on,,,,,307,0,2,,,,1,47,49
34816,note_off,,,,,256,0,1,,,,0,71,0
34816,note_on,,,,,0,0,1,,,,0,69,64
34816,note_on,,,,,0,0,1,,,,0,69,64
35072,note_on,,,,,0,0,1,,,,0,63,66
35072,note_off,,,,,256,0,1,,,,0,69,0
35328,note_on,,,,,0,0,1,,,,0,59,68
35328,note_off,,,,,512,0,2,,,,1,47,0
35328,note_on,,,,,0,0,2,,,,1,54,53
35328,note_off,,,,,256,0,1,,,,0,63,0
35533,note_off,,,,,205,0,2,,,,1,54,0
35584,note_off,,,,,256,0,1,,,,0,59,0
35584,note_on,,,,,0,0,1,,,,0,69,70
35584,note_on,,,,,0,0,1,,,,0,69,64
35584,note_off,,,,,0,0,1,,,,0,69,0
35840,note_on,,,,,307,0,2,,,,1,52,57
35840,note_off,,,,,0,0,1,,,,0,69,0
35840,note_on,,,,,0,0,1,,,,0,68,72
35840,note_off,,,,,256,0,1,,,,0,69,0
36045,note_off,,,,,205,0,2,,,,1,52,0
36096,note_on,,,,,0,0,1,,,,0,64,74
36096,note_off,,,,,256,0,1,,,,0,68,0
36352,note_on,,,,,0,0,1,,,,0,68,76
36352,note_on,,,,,307,0,2,,,,1,54,61
36352,note_off,,,,,256,0,1,,,,0,64,0
36557,note_off,,,,,205,0,2,,,,1,54,0
36608,note_on,,,,,0,0,1,,,,0,69,78
36608,note_off,,,,,256,0,1,,,,0,68,0
36864,note_on,,,,,307,0,2,,,,1,56,65
36864,note_on,,,,,0,0,1,,,,0,71,80
36864,note_off,,,,,256,0,1,,,,0,69,0
37069,note_off,,,,,205,0,2,,,,1,56,0
37120,note_on,,,,,0,0,1,,,,0,68,82
37120,note_off,,,,,256,0,1,,,,0,71,0
37376,note_on,,,,,0,0,1,,,,0,71,84
37376,note_off,,,,,256,0,1,,,,0,68,0
37376,note_on,,,,,307,0,2,,,,1,59,69
37581,note_off,,,,,205,0,2,,,,1,59,0
37632,note_off,,,,,256,0,1,,,,0,71,0
37632,note_on,,,,,0,0,1,,,,0,80,86
37888,note_on,,,,,0,0,1,,,,0,71,88
37888,note_on,,,,,307,0,2,,,,1,56,73
37888,note_off,,,,,256,0,1,,,,0,80,0
38093,note_off,,,,,205,0,2,,,,1,56,0
38144,note_off,,,,,256,0,1,,,,0,71,0
38144,note_on,,,,,0,0,1,,,,0,80,90
38400,note_off,,,,,256,0,1,,,,0,80,0
38400,note_on,,,,,0,0,1,,,,0,72,92
38400,note_on,,,,,307,0,2,,,,1,64,77
38605,note_off,,,,,205,0,2,,,,1,64,0
38656,note_off,,,,,256,0,1,,,,0,72,0
38656,note_on,,,,,0,0,1,,,,0,76,94
38912,note_off,,,,,256,0,1,,,,0,76,0
38912,note_on,,,,,0,0,1,,,,0,73,96
38912,note_on,,,,,307,0,2,,,,1,57,81
39117,note_off,,,,,205,0,2,,,,1,57,0
39168,note_off,,,,,256,0,1,,,,0,73,0
39168,note_on,,,,,0,0,1,,,,0,64,94
39424,note_on,,,,,307,0,2,,,,1,45,77
39424,note_off,,,,,256,0,1,,,,0,64,0
39424,note_on,,,,,0,0,1,,,,0,73,92
39629,note_off,,,,,205,0,2,,,,1,45,0
39680,note_off,,,,,256,0,1,,,,0,73,0
39680,note_on,,,,,0,0,1,,,,0,76,90
39936,note_on,,,,,307,0,2,,,,1,47,73
39936,note_on,,,,,0,0,1,,,,0,71,88
39936,note_off,,,,,256,0,1,,,,0,76,0
40141,note_off,,,,,205,0,2,,,,1,47,0
40192,note_on,,,,,0,0,1,,,,0,75,86
40192,note_off,,,,,256,0,1,,,,0,71,0
40448,note_on,,,,,0,0,1,,,,0,69,84
40448,note_on,,,,,307,0,2,,,,1,49,69
40448,note_off,,,,,256,0,1,,,,0,75,0
40653,note_off,,,,,205,0,2,,,,1,49,0
40704,note_off,,,,,256,0,1,,,,0,69,0
40704,note_on,,,,,0,0,1,,,,0,73,82
40960,note_on,,,,,307,0,2,,,,1,47,65
40960,note_off,,,,,256,0,1,,,,0,73,0
40960,note_on,,,,,0,0,1,,,,0,68,80
41165,note_off,,,,,205,0,2,,,,1,47,0
41216,note_on,,,,,0,0,1,,,,0,59,78
41216,note_off,,,,,256,0,1,,,,0,68,0
41472,note_on,,,,,0,0,1,,,,0,68,76
41472,note_off,,,,,256,0,1,,,,0,59,0
41472,note_on,,,,,307,0,2,,,,1,52,61
41677,note_off,,,,,205,0,2,,,,1,52,0
41728,note_on,,,,,0,0,1,,,,0,71,74
41728,note_off,,,,,256,0,1,,,,0,68,0
41984,note_on,,,,,307,0,2,,,,1,47,57
41984,note_on,,,,,0,0,1,,,,0,64,72
41984,note_off,,,,,256,0,1,,,,0,71,0
42189,note_off,,,,,205,0,2,,,,1,47,0
42240,note_on,,,,,0,0,1,,,,0,58,70
42240,note_off,,,,,256,0,1,,,,0,64,0
42496,note_on,,,,,307,0,2,,,,1,55,53
42496,note_off,,,,,256,0,1,,,,0,58,0
42496,note_on,,,,,0,0,1,,,,0,64,68
42701,note_off,,,,,205,0,2,,,,1,55,0
42752,note_on,,,,,0,0,1,,,,0,73,66
42752,note_off,,,,,256,0,1,,,,0,64,0
43008,note_on,,,,,0,0,1,,,,0,66,64
43008,note_off,,,,,256,0,1,,,,0,73,0
43008,note_on,,,,,307,0,2,,,,1,47,49
43213,note_off,,,,,205,0,2,,,,1,47,0
43264,note_on,,,,,0,0,1,,,,0,57,64
43264,note_off,,,,,256,0,1,,,,0,66,0
43520,note_on,,,,,0,0,1,,,,0,66,64
43520,note_off,,,,,256,0,1,,,,0,57,0
43520,note_on,,,,,307,0,2,,,,1,52,49
43725,note_off,,,,,205,0,2,,,,1,52,0
43776,note_on,,,,,0,0,1,,,,0,71,64
43776,note_off,,,,,256,0,1,,,,0,66,0
44032,note_off,,,,,256,0,1,,,,0,71,0
44032,note_on,,,,,0,0,1,,,,0,66,64
44032,note_on,,,,,307,0,2,,,,1,47,49
44237,note_off,,,,,205,0,2,,,,1,47,0
44288,note_off,,,,,256,0,1,,,,0,66,0
44288,note_on,,,,,0,0,1,,,,0,57,64
44544,note_on,,,,,307,0,2,,,,1,51,49
44544,note_off,,,,,256,0,1,,,,0,57,0
44544,note_on,,,,,0,0,1,,,,0,66,64
44749,note_off,,,,,205,0,2,,,,1,51,0
44800,note_off,,,,,256,0,1,,,,0,66,0
44800,note_on,,,,,0,0,1,,,,0,71,64
45056,note_on,,,,,307,0,2,,,,1,52,64
45056,note_off,,,,,256,0,1,,,,0,71,0
45056,note_on,,,,,0,0,1,,,,0,64,64
45312,note_off,,,,,256,0,1,,,,0,64,0
45312,note_on,,,,,0,0,1,,,,0,56,64
45568,note_off,,,,,512,0,2,,,,1,52,0
45568,note_off,,,,,256,0,1,,,,0,56,0
45568,note_on,,,,,0,0,1,,,,0,64,64
45824,note_off,,,,,256,0,1,,,,0,64,0
45824,note_on,,,,,0,0,1,,,,0,68,64
46080,note_off,,,,,256,0,1,,,,0,68,0
46080,note_on,,,,,512,0,2,,,,1,47,64
46336,note_on,,,,,0,0,2,,,,1,40,64
46336,note_off,,,,,256,0,2,,,,1,47,0
46592,note_on,,,,,0,0,2,,,,1,47,64
46592,note_off,,,,,256,0,2,,,,1,40,0
46848,note_on,,,,,0,0,2,,,,1,52,64
46848,note_off,,,,,256,0,2,,,,1,47,0
47104,note_on,,,,,1024,0,1,,,,0,63,64
47104,note_off,,,,,256,0,2,,,,1,52,0
47360,note_on,,,,,0,0,1,,,,0,57,64
47360,note_off,,,,,256,0,1,,,,0,63,0
47616,note_off,,,,,256,0,1,,,,0,57,0
47616,note_on,,,,,0,0,1,,,,0,63,64
47872,note_off,,,,,256,0,1,,,,0,63,0
47872,note_on,,,,,0,0,1,,,,0,71,64
48128,note_on,,,,,1024,0,2,,,,1,47,64
48128,note_off,,,,,256,0,1,,,,0,71,0
48384,note_on,,,,,0,0,2,,,,1,40,64
48384,note_off,,,,,256,0,2,,,,1,47,0
48640,note_on,,,,,0,0,2,,,,1,47,64
48640,note_off,,,,,256,0,2,,,,1,40,0
48896,note_off,,,,,256,0,2,,,,1,47,0
48896,note_on,,,,,0,0,2,,,,1,54,64
49152,note_on,,,,,1024,0,1,,,,0,64,64
49152,note_off,,,,,256,0,2,,,,1,54,0
49408,note_on,,,,,0,0,1,,,,0,56,68
49408,note_off,,,,,256,0,1,,,,0,64,0
49664,note_on,,,,,0,0,1,,,,0,64,72
49664,note_off,,,,,256,0,1,,,,0,56,0
49920,note_off,,,,,256,0,1,,,,0,64,0
49920,note_on,,,,,0,0,1,,,,0,68,76
50176,note_off,,,,,256,0,1,,,,0,68,0
50176,note_on,,,,,1024,0,2,,,,1,54,80
50176,note_on,,,,,0,0,1,,,,0,68,80
50432,note_off,,,,,256,0,2,,,,1,54,0
50432,note_on,,,,,0,0,1,,,,0,71,84
50432,note_on,,,,,0,0,2,,,,1,56,84
50432,note_off,,,,,256,0,1,,,,0,68,0
50688,note_on,,,,,0,0,2,,,,1,59,88
50688,note_off,,,,,256,0,1,,,,0,71,0
50688,note_on,,,,,0,0,1,,,,0,76,88
50688,note_off,,,,,256,0,2,,,,1,56,0
50944,note_on,,,,,0,0,1,,,,0,80,92
50944,note_off,,,,,256,0,2,,,,1,59,0
50944,note_on,,,,,0,0,2,,,,1,64,92
50944,note_off,,,,,256,0,1,,,,0,76,0
51200,note_off,,,,,256,0,2,,,,1,64,0
51200,note_on,,,,,0,0,2,,,,1,64,96
51200,note_off,,,,,256,0,1,,,,0,80,0
51200,note_on,,,,,0,0,1,,,,0,80,96
51405,note_off,,,,,205,0,2,,,,1,64,0
51456,note_off,,,,,256,0,1,,,,0,80,0
51456,note_on,,,,,0,0,1,,,,0,68,92
51712,note_on,,,,,307,0,2,,,,1,61,88
51712,note_off,,,,,256,0,1,,,,0,68,0
51712,note_on,,,,,0,0,1,,,,0,76,88
51917,note_off,,,,,205,0,2,,,,1,61,0
51968,note_on,,,,,0,0,1,,,,0,68,84
51968,note_off,,,,,256,0,1,,,,0,76,0
52224,note_on,,,,,307,0,2,,,,1,60,80
52224,note_off,,,,,256,0,1,,,,0,68,0
52224,note_on,,,,,0,0,1,,,,0,75,80
52429,note_off,,,,,205,0,2,,,,1,60,0
52480,note_off,,,,,256,0,1,,,,0,75,0
52480,note_on,,,,,0,0,1,,,,0,68,76
52736,note_on,,,,,307,0,2,,,,1,59,72
52736,note_off,,,,,256,0,1,,,,0,68,0
52736,note_on,,,,,0,0,1,,,,0,74,72
52941,note_off,,,,,205,0,2,,,,1,59,0
52992,note_on,,,,,0,0,1,,,,0,68,68
52992,note_off,,,,,256,0,1,,,,0,74,0
53248,note_on,,,,,307,0,2,,,,1,57,64
53248,note_on,,,,,0,0,1,,,,0,73,64
53248,note_off,,,,,256,0,1,,,,0,68,0
53504,note_off,,,,,256,0,1,,,,0,73,0
53504,note_on,,,,,0,0,1,,,,0,61,64
53760,note_off,,,,,256,0,1,,,,0,61,0
53760,note_on,,,,,0,0,1,,,,0,69,64
53760,note_off,,,,,512,0,2,,,,1,57,0
54016,note_off,,,,,256,0,1,,,,0,69,0
54016,note_on,,,,,0,0,1,,,,0,73,64
54272,note_off,,,,,256,0,1,,,,0,73,0
54272,note_on,,,,,512,0,2,,,,1,52,64
54528,note_off,,,,,256,0,2,,,,1,52,0
54528,note_on,,,,,0,0,2,,,,1,45,64
54784,note_off,,,,,256,0,2,,,,1,45,0
54784,note_on,,,,,0,0,2,,,,1,52,64
55040,note_on,,,,,0,0,2,,,,1,57,64
55040,note_off,,,,,256,0,2,,,,1,52,0
55296,note_on,,,,,1024,0,1,,,,0,68,64
55296,note_off,,,,,256,0,2,,,,1,57,0
55552,note_off,,,,,256,0,1,,,,0,68,0
55552,note_on,,,,,0,0,1,,,,0,62,64
55808,note_on,,,,,0,0,1,,,,0,68,64
55808,note_off,,,,,256,0,1,,,,0,62,0
56064,note_off,,,,,256,0,1,,,,0,68,0
56064,note_on,,,,,0,0,1,,,,0,76,64
56320,note_off,,,,,256,0,1,,,,0,76,0
56320,note_on,,,,,1024,0,2,,,,1,52,64
56576,note_off,,,,,256,0,2,,,,1,52,0
56576,note_on,,,,,0,0,2,,,,1,45,64
56832,note_on,,,,,0,0,2,,,,1,52,64
56832,note_off,,,,,256,0,2,,,,1,45,0
57088,note_on,,,,,0,0,2,,,,1,59,64
57088,note_off,,,,,256,0,2,,,,1,52,0
57344,note_on,,,,,1024,0,1,,,,0,69,64
57344,note_off,,,,,256,0,2,,,,1,59,0
57600,note_off,,,,,256,0,1,,,,0,69,0
57600,note_on,,,,,0,0,1,,,,0,61,68
57856,note_on,,,,,0,0,1,,,,0,69,72
57856,note_off,,,,,256,0,1,,,,0,61,0
58112,note_on,,,,,0,0,1,,,,0,73,76
58112,note_off,,,,,256,0,1,,,,0,69,0
58368,note_on,,,,,0,0,1,,,,0,73,80
58368,note_on,,,,,1024,0,2,,,,1,57,80
58368,note_off,,,,,256,0,1,,,,0,73,0
58624,note_off,,,,,256,0,1,,,,0,73,0
58624,note_off,,,,,256,0,2,,,,1,57,0
58624,note_on,,,,,0,0,2,,,,1,61,84
58624,note_on,,,,,0,0,1,,,,0,76,84
58880,note_off,,,,,256,0,1,,,,0,76,0
58880,note_on,,,,,0,0,2,,,,1,64,88
58880,note_on,,,,,0,0,1,,,,0,81,88
58880,note_off,,,,,256,0,2,,,,1,61,0
59136,note_off,,,,,256,0,2,,,,1,64,0
59136,note_on,,,,,0,0,1,,,,0,85,92
59136,note_off,,,,,256,0,1,,,,0,81,0
59136,note_on,,,,,0,0,2,,,,1,69,92
59392,note_on,,,,,0,0,2,,,,1,69,96
59392,note_off,,,,,256,0,2,,,,1,69,0
59392,note_on,,,,,0,0,1,,,,0,85,96
59392,note_off,,,,,256,0,1,,,,0,85,0
59597,note_off,,,,,205,0,2,,,,1,69,0
59648,note_on,,,,,0,0,1,,,,0,73,92
59648,note_off,,,,,256,0,1,,,,0,85,0
59904,note_off,,,,,256,0,1,,,,0,73,0
59904,note_on,,,,,307,0,2,,,,1,66,88
59904,note_on,,,,,0,0,1,,,,0,81,88
60109,note_off,,,,,205,0,2,,,,1,66,0
60160,note_off,,,,,256,0,1,,,,0,81,0
60160,note_on,,,,,0,0,1,,,,0,73,84
60416,note_off,,,,,256,0,1,,,,0,73,0
60416,note_on,,,,,0,0,1,,,,0,80,80
60416,note_on,,,,,307,0,2,,,,1,71,80
60621,note_off,,,,,205,0,2,,,,1,71,0
60672,note_on,,,,,0,0,1,,,,0,76,76
60672,note_off,,,,,256,0,1,,,,0,80,0
60928,note_off,,,,,256,0,1,,,,0,76,0
60928,note_on,,,,,0,0,1,,,,0,78,72
60928,note_on,,,,,307,0,2,,,,1,59,72
60928,note_on,,,,,0,0,2,,,,1,69,72
61133,note_off,,,,,205,0,2,,,,1,59,0
61133,note_off,,,,,0,0,2,,,,1,69,0
61184,note_off,,,,,256,0,1,,,,0,78,0
61184,note_on,,,,,0,0,1,,,,0,75,68
61440,note_on,,,,,0,0,1,,,,0,68,64
61440,note_off,,,,,256,0,1,,,,0,75,0
61440,note_on,,,,,0,0,1,,,,0,64,64
61440,note_on,,,,,0,0,1,,,,0,76,64
61696,note_on,,,,,0,0,1,,,,0,68,67
61696,note_off,,,,,0,0,1,,,,0,68,0
61696,note_off,,,,,256,0,1,,,,0,64,0
61696,note_off,,,,,0,0,1,,,,0,76,0
61952,note_off,,,,,256,0,1,,,,0,68,0
61952,note_on,,,,,0,0,1,,,,0,66,70
61952,note_on,,,,,819,0,2,,,,1,54,70
61952,note_on,,,,,0,0,2,,,,1,56,70
62208,note_off,,,,,256,0,1,,,,0,66,0
62208,note_on,,,,,0,0,1,,,,0,68,73
62464,note_off,,,,,512,0,2,,,,1,54,0
62464,note_on,,,,,0,0,1,,,,0,64,76
62464,note_off,,,,,256,0,1,,,,0,68,0
62464,note_on,,,,,0,0,2,,,,1,52,76
62720,note_on,,,,,0,0,1,,,,0,68,79
62720,note_off,,,,,256,0,1,,,,0,64,0
62976,note_off,,,,,512,0,2,,,,1,52,0
62976,note_on,,,,,0,0,1,,,,0,63,82
62976,note_off,,,,,256,0,1,,,,0,68,0
62976,note_on,,,,,0,0,2,,,,1,51,82
63232,note_off,,,,,256,0,1,,,,0,63,0
63232,note_on,,,,,0,0,1,,,,0,68,85
63488,note_on,,,,,0,0,2,,,,1,49,75
63488,note_off,,,,,0,0,2,,,,1,56,0
63488,note_off,,,,,512,0,2,,,,1,51,0
63488,note_off,,,,,256,0,1,,,,0,68,0
63488,note_on,,,,,0,0,1,,,,0,64,88
63744,note_on,,,,,0,0,1,,,,0,61,88
63744,note_off,,,,,256,0,1,,,,0,64,0
64000,note_on,,,,,0,0,2,,,,1,48,75
64000,note_off,,,,,256,0,1,,,,0,61,0
64000,note_off,,,,,512,0,2,,,,1,49,0
64000,note_on,,,,,0,0,1,,,,0,64,88
64205,note_off,,,,,205,0,2,,,,1,48,0
64256,note_off,,,,,256,0,1,,,,0,64,0
64256,note_on,,,,,0,0,1,,,,0,68,88
64512,note_off,,,,,256,0,1,,,,0,68,0
64512,note_on,,,,,0,0,1,,,,0,64,88
64512,note_on,,,,,307,0,2,,,,1,49,75
64717,note_off,,,,,205,0,2,,,,1,49,0
64768,note_off,,,,,256,0,1,,,,0,64,0
64768,note_on,,,,,0,0,1,,,,0,61,88
65024,note_on,,,,,307,0,2,,,,1,52,75
65024,note_off,,,,,256,0,1,,,,0,61,0
65024,note_on,,,,,0,0,1,,,,0,64,88
65229,note_off,,,,,205,0,2,,,,1,52,0
65280,note_off,,,,,256,0,1,,,,0,64,0
65280,note_on,,,,,0,0,1,,,,0,69,88
65536,note_on,,,,,307,0,2,,,,1,48,75
65536,note_on,,,,,0,0,1,,,,0,64,88
65536,note_off,,,,,256,0,1,,,,0,69,0
65741,note_off,,,,,205,0,2,,,,1,48,0
65792,note_off,,,,,256,0,1,,,,0,64,0
65792,note_on,,,,,0,0,1,,,,0,60,88
66048,note_on,,,,,307,0,2,,,,1,51,75
66048,note_off,,,,,256,0,1,,,,0,60,0
66048,note_on,,,,,0,0,1,,,,0,63,88
66253,note_off,,,,,205,0,2,,,,1,51,0
66304,note_off,,,,,256,0,1,,,,0,63,0
66304,note_on,,,,,0,0,1,,,,0,69,88
66560,note_off,,,,,256,0,1,,,,0,69,0
66560,note_on,,,,,307,0,2,,,,1,56,75
66560,note_on,,,,,0,0,1,,,,0,63,88
66765,note_off,,,,,205,0,2,,,,1,56,0
66816,note_off,,,,,256,0,1,,,,0,63,0
66816,note_on,,,,,0,0,1,,,,0,60,88
67072,note_off,,,,,256,0,1,,,,0,60,0
67072,note_on,,,,,0,0,1,,,,0,63,88
67072,note_on,,,,,307,0,2,,,,1,48,75
67277,note_off,,,,,205,0,2,,,,1,48,0
67328,note_off,,,,,256,0,1,,,,0,63,0
67328,note_on,,,,,0,0,1,,,,0,68,88
67584,note_on,,,,,0,0,1,,,,0,68,88
67584,note_on,,,,,307,0,2,,,,1,49,75
67584,note_off,,,,,256,0,1,,,,0,68,0
67789,note_off,,,,,205,0,2,,,,1,49,0
67840,note_off,,,,,256,0,1,,,,0,68,0
67840,note_on,,,,,0,0,1,,,,0,64,88
68096,note_off,,,,,256,0,1,,,,0,64,0
68096,note_on,,,,,307,0,2,,,,1,51,75
68096,note_on,,,,,0,0,1,,,,0,68,88
68301,note_off,,,,,205,0,2,,,,1,51,0
68352,note_on,,,,,0,0,1,,,,0,76,88
68352,note_off,,,,,256,0,1,,,,0,68,0
68608,note_on,,,,,0,0,1,,,,0,68,88
68608,note_off,,,,,256,0,1,,,,0,76,0
68608,note_on,,,,,307,0,2,,,,1,52,75
68813,note_off,,,,,205,0,2,,,,1,52,0
68864,note_on,,,,,0,0,1,,,,0,64,88
68864,note_off,,,,,256,0,1,,,,0,68,0
69120,note_on,,,,,0,0,1,,,,0,68,88
69120,note_on,,,,,307,0,2,,,,1,49,75
69120,note_off,,,,,256,0,1,,,,0,64,0
69325,note_off,,,,,205,0,2,,,,1,49,0
69376,note_on,,,,,0,0,1,,,,0,73,88
69376,note_off,,,,,256,0,1,,,,0,68,0
69632,note_off,,,,,256,0,1,,,,0,73,0
69632,note_on,,,,,0,0,1,,,,0,69,88
69632,note_on,,,,,307,0,2,,,,1,51,75
69837,note_off,,,,,205,0,2,,,,1,51,0
69888,note_on,,,,,0,0,1,,,,0,68,88
69888,note_off,,,,,256,0,1,,,,0,69,0
70144,note_on,,,,,307,0,2,,,,1,57,75
70144,note_on,,,,,0,0,1,,,,0,66,88
70144,note_off,,,,,256,0,1,,,,0,68,0
70349,note_off,,,,,205,0,2,,,,1,57,0
70400,note_off,,,,,256,0,1,,,,0,66,0
70400,note_on,,,,,0,0,1,,,,0,73,88
70656,note_on,,,,,307,0,2,,,,1,56,75
70656,note_off,,,,,256,0,1,,,,0,73,0
70656,note_on,,,,,0,0,1,,,,0,72,88
70861,note_off,,,,,205,0,2,,,,1,56,0
70912,note_on,,,,,0,0,1,,,,0,63,88
70912,note_off,,,,,256,0,1,,,,0,72,0
71168,note_off,,,,,256,0,1,,,,0,63,0
71168,note_on,,,,,0,0,1,,,,0,68,88
71168,note_on,,,,,307,0,2,,,,1,54,75
71373,note_off,,,,,205,0,2,,,,1,54,0
71424,note_on,,,,,0,0,1,,,,0,72,88
71424,note_off,,,,,256,0,1,,,,0,68,0
71680,note_on,,,,,0,0,1,,,,0,73,88
71680,note_on,,,,,307,0,2,,,,1,52,75
71680,note_off,,,,,256,0,1,,,,0,72,0
71885,note_off,,,,,205,0,2,,,,1,52,0
71936,note_on,,,,,0,0,1,,,,0,68,92
71936,note_off,,,,,256,0,1,,,,0,73,0
72192,note_off,,,,,256,0,1,,,,0,68,0
72192,note_on,,,,,0,0,1,,,,0,73,96
72192,note_on,,,,,307,0,2,,,,1,51,83
72397,note_off,,,,,205,0,2,,,,1,51,0
72448,note_off,,,,,256,0,1,,,,0,73,0
72448,note_on,,,,,0,0,1,,,,0,76,100
72704,note_on,,,,,307,0,2,,,,1,49,91
72704,note_off,,,,,256,0,1,,,,0,76,0
72704,note_on,,,,,0,0,1,,,,0,76,104
72909,note_off,,,,,205,0,2,,,,1,49,0
72960,note_off,,,,,256,0,1,,,,0,76,0
72960,note_on,,,,,0,0,1,,,,0,68,108
73216,note_on,,,,,307,0,2,,,,1,47,99
73216,note_off,,,,,256,0,1,,,,0,68,0
73216,note_on,,,,,0,0,1,,,,0,76,112
73421,note_off,,,,,205,0,2,,,,1,47,0
73472,note_off,,,,,256,0,1,,,,0,76,0
73472,note_on,,,,,0,0,1,,,,0,80,116
73728,note_off,,,,,256,0,1,,,,0,80,0
73728,note_on,,,,,307,0,2,,,,1,45,107
73728,note_on,,,,,0,0,1,,,,0,76,120
73933,note_off,,,,,205,0,2,,,,1,45,0
73984,note_on,,,,,0,0,1,,,,0,69,116
73984,note_off,,,,,256,0,1,,,,0,76,0
74240,note_on,,,,,0,0,1,,,,0,76,112
74240,note_off,,,,,256,0,1,,,,0,69,0
74240,note_on,,,,,307,0,2,,,,1,42,99
74496,note_on,,,,,0,0,1,,,,0,80,108
74496,note_on,,,,,0,0,2,,,,1,44,95
74496,note_off,,,,,256,0,2,,,,1,42,0
74496,note_off,,,,,256,0,1,,,,0,76,0
74752,note_on,,,,,0,0,1,,,,0,74,104
74752,note_off,,,,,256,0,1,,,,0,80,0
74752,note_on,,,,,0,0,2,,,,1,45,91
74752,note_off,,,,,256,0,2,,,,1,44,0
74957,note_off,,,,,205,0,2,,,,1,45,0
75008,note_off,,,,,256,0,1,,,,0,74,0
75008,note_on,,,,,0,0,1,,,,0,80,100
75264,note_off,,,,,256,0,1,,,,0,80,0
75264,note_on,,,,,0,0,1,,,,0,73,96
75264,note_on,,,,,307,0,2,,,,1,42,83
75469,note_off,,,,,205,0,2,,,,1,42,0
75520,note_on,,,,,0,0,1,,,,0,76,92
75520,note_off,,,,,256,0,1,,,,0,73,0
75776,note_off,,,,,256,0,1,,,,0,76,0
75776,note_on,,,,,307,0,2,,,,1,44,75
75776,note_on,,,,,0,0,1,,,,0,72,88
75981,note_off,,,,,205,0,2,,,,1,44,0
76032,note_on,,,,,0,0,1,,,,0,75,88
76032,note_off,,,,,256,0,1,,,,0,72,0
76288,note_on,,,,,307,0,2,,,,1,42,75
76288,note_off,,,,,256,0,1,,,,0,75,0
76288,note_on,,,,,0,0,1,,,,0,73,88
76544,note_on,,,,,0,0,2,,,,1,40,75
76544,note_off,,,,,256,0,2,,,,1,42,0
76544,note_off,,,,,256,0,1,,,,0,73,0
76544,note_on,,,,,0,0,1,,,,0,76,88
76800,note_on,,,,,0,0,2,,,,1,39,75
76800,note_off,,,,,256,0,2,,,,1,40,0
76800,note_off,,,,,256,0,1,,,,0,76,0
76800,note_on,,,,,0,0,1,,,,0,75,88
77005,note_off,,,,,205,0,2,,,,1,39,0
77056,note_on,,,,,0,0,1,,,,0,78,88
77056,note_off,,,,,256,0,1,,,,0,75,0
77312,note_on,,,,,307,0,2,,,,1,44,75
77312,note_on,,,,,0,0,1,,,,0,72,88
77312,note_off,,,,,256,0,1,,,,0,78,0
77517,note_off,,,,,205,0,2,,,,1,44,0
77568,note_on,,,,,0,0,1,,,,0,75,88
77568,note_off,,,,,256,0,1,,,,0,72,0
77824,note_off,,,,,256,0,1,,,,0,75,0
77824,note_on,,,,,0,0,1,,,,0,76,88
77824,note_on,,,,,307,0,2,,,,1,37,75
78029,note_off,,,,,205,0,2,,,,1,37,0
78080,note_on,,,,,0,0,1,,,,0,73,88
78080,note_off,,,,,256,0,1,,,,0,76,0
78336,note_on,,,,,307,0,2,,,,1,44,75
78336,note_off,,,,,256,0,1,,,,0,73,0
78336,note_on,,,,,0,0,1,,,,0,71,88
78592,note_off,,,,,256,0,1,,,,0,71,0
78592,note_on,,,,,0,0,1,,,,0,69,88
78848,note_off,,,,,512,0,2,,,,1,44,0
78848,note_off,,,,,256,0,1,,,,0,69,0
78848,note_on,,,,,0,0,1,,,,0,68,88
78848,note_on,,,,,0,0,2,,,,1,46,75
79104,note_off,,,,,256,0,1,,,,0,68,0
79104,note_on,,,,,0,0,1,,,,0,66,88
79360,note_off,,,,,512,0,2,,,,1,46,0
79360,note_on,,,,,0,0,2,,,,1,48,75
79360,note_off,,,,,256,0,1,,,,0,66,0
79360,note_on,,,,,0,0,1,,,,0,64,88
79616,note_on,,,,,0,0,1,,,,0,63,88
79616,note_off,,,,,256,0,1,,,,0,64,0
79872,note_off,,,,,256,0,1,,,,0,63,0
79872,note_on,,,,,0,0,1,,,,0,64,49
79872,note_off,,,,,512,0,2,,,,1,48,0
79872,note_on,,,,,0,0,2,,,,1,49,36
80128,note_on,,,,,0,0,1,,,,0,61,50
80128,note_off,,,,,256,0,1,,,,0,64,0
80384,note_off,,,,,512,0,2,,,,1,49,0
80384,note_off,,,,,256,0,1,,,,0,61,0
80384,note_on,,,,,0,0,1,,,,0,64,50
80384,note_on,,,,,0,0,2,,,,1,52,37
80640,note_off,,,,,256,0,1,,,,0,64,0
80640,note_on,,,,,0,0,1,,,,0,68,50
80896,note_off,,,,,256,0,1,,,,0,68,0
80896,note_on,,,,,0,0,1,,,,0,64,51
80896,note_on,,,,,0,0,2,,,,1,51,38
80896,note_off,,,,,512,0,2,,,,1,52,0
81152,note_on,,,,,0,0,1,,,,0,61,52
81152,note_off,,,,,256,0,1,,,,0,64,0
81408,note_on,,,,,0,0,2,,,,1,49,39
81408,note_off,,,,,512,0,2,,,,1,51,0
81408,note_off,,,,,256,0,1,,,,0,61,0
81408,note_on,,,,,0,0,1,,,,0,64,52
81664,note_off,,,,,256,0,1,,,,0,64,0
81664,note_on,,,,,0,0,1,,,,0,69,52
81920,note_off,,,,,256,0,1,,,,0,69,0
81920,note_on,,,,,0,0,1,,,,0,63,53
81920,note_on,,,,,0,0,2,,,,1,47,40
81920,note_off,,,,,512,0,2,,,,1,49,0
82176,note_off,,,,,256,0,1,,,,0,63,0
82176,note_on,,,,,0,0,1,,,,0,59,53
82432,note_off,,,,,512,0,2,,,,1,47,0
82432,note_off,,,,,256,0,1,,,,0,59,0
82432,note_on,,,,,0,0,1,,,,0,63,54
82432,note_on,,,,,0,0,2,,,,1,51,41
82688,note_off,,,,,256,0,1,,,,0,63,0
82688,note_on,,,,,0,0,1,,,,0,69,55
82944,note_on,,,,,0,0,1,,,,0,63,55
82944,note_off,,,,,256,0,1,,,,0,69,0
82944,note_on,,,,,0,0,2,,,,1,56,42
82944,note_off,,,,,512,0,2,,,,1,51,0
83200,note_on,,,,,0,0,1,,,,0,59,55
83200,note_off,,,,,256,0,1,,,,0,63,0
83456,note_on,,,,,0,0,1,,,,0,63,56
83456,note_off,,,,,512,0,2,,,,1,56,0
83456,note_off,,,,,256,0,1,,,,0,59,0
83456,note_on,,,,,0,0,2,,,,1,47,43
83712,note_on,,,,,0,0,1,,,,0,68,57
83712,note_off,,,,,256,0,1,,,,0,63,0
83968,note_on,,,,,0,0,2,,,,1,45,44
83968,note_off,,,,,512,0,2,,,,1,47,0
83968,note_on,,,,,0,0,1,,,,0,68,57
83968,note_off,,,,,256,0,1,,,,0,68,0
84224,note_on,,,,,0,0,1,,,,0,61,57
84224,note_off,,,,,256,0,1,,,,0,68,0
84480,note_on,,,,,0,0,2,,,,1,49,45
84480,note_on,,,,,0,0,1,,,,0,68,58
84480,note_off,,,,,512,0,2,,,,1,45,0
84480,note_off,,,,,256,0,1,,,,0,61,0
84736,note_off,,,,,256,0,1,,,,0,68,0
84736,note_on,,,,,0,0,1,,,,0,73,59
84992,note_on,,,,,0,0,2,,,,1,47,46
84992,note_off,,,,,256,0,1,,,,0,73,0
84992,note_on,,,,,0,0,1,,,,0,66,59
84992,note_off,,,,,512,0,2,,,,1,49,0
85248,note_off,,,,,256,0,1,,,,0,66,0
85248,note_on,,,,,0,0,1,,,,0,63,59
85504,note_off,,,,,512,0,2,,,,1,47,0
85504,note_on,,,,,0,0,1,,,,0,66,60
85504,note_off,,,,,256,0,1,,,,0,63,0
85504,note_on,,,,,0,0,2,,,,1,45,47
85760,note_off,,,,,256,0,1,,,,0,66,0
85760,note_on,,,,,0,0,1,,,,0,73,61
86016,note_on,,,,,0,0,1,,,,0,68,61
86016,note_off,,,,,256,0,1,,,,0,73,0
86016,note_on,,,,,0,0,2,,,,1,44,48
86016,note_off,,,,,512,0,2,,,,1,45,0
86272,note_on,,,,,0,0,1,,,,0,64,62
86272,note_off,,,,,256,0,1,,,,0,68,0
86528,note_off,,,,,512,0,2,,,,1,44,0
86528,note_on,,,,,0,0,1,,,,0,68,62
86528,note_off,,,,,256,0,1,,,,0,64,0
86528,note_on,,,,,0,0,2,,,,1,47,49
86784,note_on,,,,,0,0,1,,,,0,73,62
86784,note_off,,,,,256,0,1,,,,0,68,0
87040,note_on,,,,,0,0,2,,,,1,52,50
87040,note_off,,,,,512,0,2,,,,1,47,0
87040,note_on,,,,,0,0,1,,,,0,68,63
87040,note_off,,,,,256,0,1,,,,0,73,0
87296,note_off,,,,,256,0,1,,,,0,68,0
87296,note_on,,,,,0,0,1,,,,0,64,64
87552,note_on,,,,,0,0,2,,,,1,44,51
87552,note_off,,,,,512,0,2,,,,1,52,0
87552,note_off,,,,,256,0,1,,,,0,64,0
87552,note_on,,,,,0,0,1,,,,0,68,64
87808,note_off,,,,,256,0,1,,,,0,68,0
87808,note_on,,,,,0,0,1,,,,0,71,64
88064,note_on,,,,,0,0,2,,,,1,40,49
88064,note_off,,,,,512,0,2,,,,1,44,0
88064,note_off,,,,,256,0,1,,,,0,71,0
88064,note_on,,,,,0,0,1,,,,0,67,64
88320,note_off,,,,,256,0,1,,,,0,67,0
88320,note_on,,,,,0,0,1,,,,0,64,64
88576,note_on,,,,,0,0,1,,,,0,67,64
88576,note_off,,,,,512,0,2,,,,1,40,0
88576,note_on,,,,,0,0,2,,,,1,52,49
88576,note_off,,,,,256,0,1,,,,0,64,0
88832,note_on,,,,,0,0,2,,,,1,51,49
88832,note_off,,,,,256,0,2,,,,1,52,0
88832,note_on,,,,,0,0,1,,,,0,70,64
88832,note_off,,,,,256,0,1,,,,0,67,0
89088,note_off,,,,,256,0,2,,,,1,51,0
89088,note_on,,,,,0,0,2,,,,1,49,49
89088,note_off,,,,,256,0,1,,,,0,70,0
89088,note_on,,,,,0,0,1,,,,0,76,64
89344,note_off,,,,,256,0,1,,,,0,76,0
89344,note_on,,,,,0,0,1,,,,0,70,64
89600,note_off,,,,,512,0,2,,,,1,49,0
89600,note_on,,,,,0,0,2,,,,1,48,49
89600,note_on,,,,,0,0,1,,,,0,76,64
89600,note_off,,,,,256,0,1,,,,0,70,0
89856,note_on,,,,,0,0,1,,,,0,79,64
89856,note_off,,,,,256,0,1,,,,0,76,0
90112,note_on,,,,,0,0,2,,,,1,47,49
90112,note_off,,,,,512,0,2,,,,1,48,0
90112,note_on,,,,,0,0,1,,,,0,75,64
90112,note_off,,,,,256,0,1,,,,0,79,0
90368,note_on,,,,,0,0,1,,,,0,79,64
90368,note_off,,,,,256,0,1,,,,0,75,0
90624,note_off,,,,,512,0,2,,,,1,47,0
90624,note_on,,,,,0,0,2,,,,1,54,49
90624,note_off,,,,,256,0,1,,,,0,79,0
90624,note_on,,,,,0,0,1,,,,0,75,64
90880,note_on,,,,,0,0,1,,,,0,78,64
90880,note_off,,,,,256,0,1,,,,0,75,0
91136,note_off,,,,,256,0,1,,,,0,78,0
91136,note_off,,,,,512,0,2,,,,1,54,0
91136,note_on,,,,,0,0,1,,,,0,69,64
91136,note_on,,,,,0,0,2,,,,1,59,49
91392,note_off,,,,,256,0,1,,,,0,69,0
91392,note_on,,,,,0,0,1,,,,0,76,64
91648,note_on,,,,,0,0,1,,,,0,69,64
91648,note_off,,,,,256,0,1,,,,0,76,0
91648,note_on,,,,,0,0,2,,,,1,47,49
91648,note_off,,,,,512,0,2,,,,1,59,0
91904,note_off,,,,,256,0,1,,,,0,69,0
91904,note_on,,,,,0,0,1,,,,0,75,64
92160,note_off,,,,,256,0,1,,,,0,75,0
92160,note_on,,,,,0,0,1,,,,0,69,64
92160,note_on,,,,,0,0,2,,,,1,48,49
92160,note_off,,,,,512,0,2,,,,1,47,0
92416,note_off,,,,,256,0,1,,,,0,69,0
92416,note_on,,,,,0,0,1,,,,0,78,64
92672,note_on,,,,,0,0,2,,,,1,49,49
92672,note_off,,,,,512,0,2,,,,1,48,0
92672,note_on,,,,,0,0,1,,,,0,68,64
92672,note_off,,,,,256,0,1,,,,0,78,0
92928,note_on,,,,,0,0,1,,,,0,76,64
92928,note_off,,,,,256,0,1,,,,0,68,0
93184,note_off,,,,,512,0,2,,,,1,49,0
93184,note_on,,,,,0,0,2,,,,1,44,49
93184,note_off,,,,,256,0,1,,,,0,76,0
93184,note_on,,,,,0,0,1,,,,0,64,64
93440,note_off,,,,,256,0,1,,,,0,64,0
93440,note_on,,,,,0,0,1,,,,0,73,64
93696,note_off,,,,,512,0,2,,,,1,44,0
93696,note_on,,,,,0,0,2,,,,1,45,49
93696,note_off,,,,,256,0,1,,,,0,73,0
93696,note_on,,,,,0,0,1,,,,0,61,64
93952,note_on,,,,,0,0,1,,,,0,69,64
93952,note_off,,,,,256,0,1,,,,0,61,0
94208,note_on,,,,,0,0,2,,,,1,47,49
94208,note_off,,,,,256,0,1,,,,0,69,0
94208,note_off,,,,,512,0,2,,,,1,45,0
94208,note_on,,,,,0,0,1,,,,0,59,64
94464,note_on,,,,,0,0,1,,,,0,68,64
94464,note_off,,,,,256,0,1,,,,0,59,0
94720,note_on,,,,,0,0,2,,,,1,56,49
94720,note_off,,,,,256,0,1,,,,0,68,0
94720,note_on,,,,,0,0,1,,,,0,64,64
94720,note_off,,,,,512,0,2,,,,1,47,0
94976,note_off,,,,,256,0,1,,,,0,64,0
94976,note_on,,,,,0,0,1,,,,0,71,64
95232,note_off,,,,,256,0,1,,,,0,71,0
95232,note_on,,,,,0,0,1,,,,0,59,64
95232,note_off,,,,,512,0,2,,,,1,56,0
95232,note_on,,,,,0,0,2,,,,1,47,49
95488,note_on,,,,,0,0,1,,,,0,69,64
95488,note_off,,,,,256,0,1,,,,0,59,0
95744,note_on,,,,,0,0,1,,,,0,63,64
95744,note_off,,,,,256,0,1,,,,0,69,0
95744,note_off,,,,,512,0,2,,,,1,47,0
95744,note_on,,,,,0,0,2,,,,1,57,49
96000,note_off,,,,,256,0,1,,,,0,63,0
96000,note_on,,,,,0,0,1,,,,0,71,64
96256,note_on,,,,,0,0,2,,,,1,47,49
96256,note_off,,,,,512,0,2,,,,1,57,0
96256,note_on,,,,,0,0,1,,,,0,69,64
96256,note_off,,,,,256,0,1,,,,0,71,0
96512,note_on,,,,,0,0,1,,,,0,63,64
96512,note_off,,,,,256,0,1,,,,0,69,0
96768,note_off,,,,,512,0,2,,,,1,47,0
96768,note_on,,,,,0,0,1,,,,0,59,64
96768,note_off,,,,,256,0,1,,,,0,63,0
96768,note_on,,,,,0,0,2,,,,1,54,49
97024,note_off,,,,,256,0,1,,,,0,59,0
97024,note_on,,,,,0,0,1,,,,0,69,64
97280,note_on,,,,,0,0,2,,,,1,52,49
97280,note_off,,,,,512,0,2,,,,1,54,0
97280,note_on,,,,,0,0,1,,,,0,68,64
97280,note_off,,,,,256,0,1,,,,0,69,0
97536,note_off,,,,,256,0,1,,,,0,68,0
97536,note_on,,,,,0,0,1,,,,0,59,64
97792,note_off,,,,,256,0,1,,,,0,59,0
97792,note_on,,,,,0,0,1,,,,0,64,64
97792,note_off,,,,,512,0,2,,,,1,52,0
97792,note_on,,,,,0,0,2,,,,1,49,49
98048,note_on,,,,,0,0,1,,,,0,66,64
98048,note_on,,,,,0,0,2,,,,1,51,49
98048,note_off,,,,,256,0,2,,,,1,49,0
98048,note_off,,,,,256,0,1,,,,0,64,0
98304,note_on,,,,,0,0,1,,,,0,68,64
98304,note_off,,,,,256,0,1,,,,0,66,0
98304,note_on,,,,,0,0,2,,,,1,52,49
98304,note_off,,,,,256,0,2,,,,1,51,0
98560,note_off,,,,,256,0,1,,,,0,68,0
98560,note_on,,,,,0,0,1,,,,0,64,64
98816,note_on,,,,,0,0,1,,,,0,68,64
98816,note_off,,,,,256,0,1,,,,0,64,0
98816,note_off,,,,,512,0,2,,,,1,52,0
98816,note_on,,,,,0,0,2,,,,1,56,49
99072,note_off,,,,,256,0,1,,,,0,68,0
99072,note_on,,,,,0,0,1,,,,0,76,64
99328,note_off,,,,,512,0,2,,,,1,56,0
99328,note_on,,,,,0,0,2,,,,1,53,49
99328,note_off,,,,,256,0,1,,,,0,76,0
99328,note_on,,,,,0,0,1,,,,0,68,64
99584,note_on,,,,,0,0,1,,,,0,75,64
99584,note_off,,,,,256,0,1,,,,0,68,0
99840,note_on,,,,,0,0,2,,,,1,61,49
99840,note_on,,,,,0,0,1,,,,0,68,64
99840,note_off,,,,,256,0,1,,,,0,75,0
99840,note_off,,,,,512,0,2,,,,1,53,0
100096,note_on,,,,,0,0,1,,,,0,73,64
100096,note_off,,,,,256,0,1,,,,0,68,0
100352,note_off,,,,,512,0,2,,,,1,61,0
100352,note_on,,,,,0,0,2,,,,1,54,49
100352,note_on,,,,,0,0,1,,,,0,69,64
100352,note_off,,,,,256,0,1,,,,0,73,0
100608,note_on,,,,,0,0,1,,,,0,61,64
100608,note_off,,,,,256,0,1,,,,0,69,0
100864,note_on,,,,,0,0,2,,,,1,42,49
100864,note_off,,,,,512,0,2,,,,1,54,0
100864,note_off,,,,,256,0,1,,,,0,61,0
100864,note_on,,,,,0,0,1,,,,0,69,64
101120,note_off,,,,,256,0,1,,,,0,69,0
101120,note_on,,,,,0,0,1,,,,0,73,64
101376,note_off,,,,,512,0,2,,,,1,42,0
101376,note_on,,,,,0,0,1,,,,0,68,64
101376,note_on,,,,,0,0,2,,,,1,44,49
101376,note_off,,,,,256,0,1,,,,0,73,0
101632,note_off,,,,,256,0,1,,,,0,68,0
101632,note_on,,,,,0,0,1,,,,0,71,64
101888,note_off,,,,,256,0,1,,,,0,71,0
101888,note_on,,,,,0,0,2,,,,1,45,49
101888,note_off,,,,,512,0,2,,,,1,44,0
101888,note_on,,,,,0,0,1,,,,0,66,64
102144,note_off,,,,,256,0,1,,,,0,66,0
102144,note_on,,,,,0,0,1,,,,0,71,64
102400,note_on,,,,,0,0,1,,,,0,64,64
102400,note_off,,,,,512,0,2,,,,1,45,0
102400,note_on,,,,,0,0,2,,,,1,44,49
102400,note_off,,,,,256,0,1,,,,0,71,0
102656,note_off,,,,,256,0,1,,,,0,64,0
102656,note_on,,,,,0,0,1,,,,0,56,64
102912,note_off,,,,,256,0,1,,,,0,56,0
102912,note_on,,,,,0,0,1,,,,0,64,64
102912,note_off,,,,,512,0,2,,,,1,44,0
102912,note_on,,,,,0,0,2,,,,1,49,49
103168,note_off,,,,,256,0,1,,,,0,64,0
103168,note_on,,,,,0,0,1,,,,0,68,64
103424,note_on,,,,,0,0,1,,,,0,61,64
103424,note_off,,,,,256,0,1,,,,0,68,0
103424,note_on,,,,,0,0,2,,,,1,45,49
103424,note_off,,,,,512,0,2,,,,1,49,0
103680,note_on,,,,,0,0,1,,,,0,55,64
103680,note_off,,,,,256,0,1,,,,0,61,0
103936,note_off,,,,,512,0,2,,,,1,45,0
103936,note_on,,,,,0,0,1,,,,0,61,64
103936,note_off,,,,,256,0,1,,,,0,55,0
103936,note_on,,,,,0,0,2,,,,1,52,49
104192,note_off,,,,,256,0,1,,,,0,61,0
104192,note_on,,,,,0,0,1,,,,0,69,64
104448,note_on,,,,,0,0,2,,,,1,44,49
104448,note_off,,,,,512,0,2,,,,1,52,0
104448,note_off,,,,,256,0,1,,,,0,69,0
104448,note_on,,,,,0,0,1,,,,0,63,64
104704,note_off,,,,,256,0,1,,,,0,63,0
104704,note_on,,,,,0,0,1,,,,0,54,64
104960,note_off,,,,,512,0,2,,,,1,44,0
104960,note_off,,,,,256,0,1,,,,0,54,0
104960,note_on,,,,,0,0,1,,,,0,63,64
104960,note_on,,,,,0,0,2,,,,1,49,49
105216,note_off,,,,,256,0,1,,,,0,63,0
105216,note_on,,,,,0,0,1,,,,0,68,64
105472,note_off,,,,,256,0,1,,,,0,68,0
105472,note_on,,,,,0,0,1,,,,0,63,64
105472,note_off,,,,,512,0,2,,,,1,49,0
105472,note_on,,,,,0,0,2,,,,1,44,49
105728,note_on,,,,,0,0,1,,,,0,54,64
105728,note_off,,,,,256,0,1,,,,0,63,0
105984,note_off,,,,,256,0,1,,,,0,54,0
105984,note_on,,,,,0,0,1,,,,0,63,64
105984,note_off,,,,,512,0,2,,,,1,44,0
105984,note_on,,,,,0,0,2,,,,1,48,49
106240,note_off,,,,,256,0,1,,,,0,63,0
106240,note_on,,,,,0,0,1,,,,0,68,64
106496,note_off,,,,,512,0,2,,,,1,48,0
106496,note_off,,,,,256,0,1,,,,0,68,0
106496,note_on,,,,,0,0,2,,,,1,49,64
106496,note_on,,,,,0,0,2,,,,1,61,64
106752,note_on,,,,,0,0,2,,,,1,52,64
106752,note_off,,,,,256,0,2,,,,1,61,0
107008,note_off,,,,,0,0,2,,,,1,49,0
107008,note_on,,,,,0,0,2,,,,1,61,64
107008,note_off,,,,,256,0,2,,,,1,52,0
107264,note_on,,,,,0,0,2,,,,1,64,64
107264,note_off,,,,,256,0,2,,,,1,61,0
107520,note_on,,,,,0,0,2,,,,1,44,64
107520,note_off,,,,,256,0,2,,,,1,64,0
107776,note_on,,,,,0,0,2,,,,1,37,64
107776,note_off,,,,,256,0,2,,,,1,44,0
108032,note_on,,,,,0,0,2,,,,1,44,64
108032,note_off,,,,,256,0,2,,,,1,37,0
108288,note_on,,,,,0,0,2,,,,1,49,64
108288,note_off,,,,,256,0,2,,,,1,44,0
108544,note_on,,,,,0,0,2,,,,1,45,64
108544,note_on,,,,,0,0,2,,,,1,61,64
108544,note_off,,,,,256,0,2,,,,1,49,0
108800,note_on,,,,,0,0,2,,,,1,52,64
108800,note_off,,,,,256,0,2,,,,1,61,0
109056,note_off,,,,,256,0,2,,,,1,52,0
109056,note_off,,,,,0,0,2,,,,1,45,0
109056,note_on,,,,,0,0,2,,,,1,61,64
109312,note_off,,,,,256,0,2,,,,1,61,0
109312,note_on,,,,,0,0,2,,,,1,64,64
109568,note_off,,,,,256,0,2,,,,1,64,0
109568,note_on,,,,,0,0,2,,,,1,40,64
109824,note_off,,,,,256,0,2,,,,1,40,0
109824,note_on,,,,,0,0,2,,,,1,33,64
110080,note_off,,,,,256,0,2,,,,1,33,0
110080,note_on,,,,,0,0,2,,,,1,40,64
110336,note_off,,,,,256,0,2,,,,1,40,0
110336,note_on,,,,,0,0,2,,,,1,45,64
110592,note_on,,,,,4096,0,1,,,,0,62,64
110592,note_on,,,,,0,0,2,,,,1,42,64
110592,note_off,,,,,256,0,2,,,,1,45,0
110848,note_off,,,,,256,0,1,,,,0,62,0
110848,note_on,,,,,0,0,1,,,,0,57,68
111104,note_off,,,,,512,0,2,,,,1,42,0
111104,note_off,,,,,256,0,1,,,,0,57,0
111104,note_on,,,,,0,0,1,,,,0,62,72
111360,note_off,,,,,256,0,1,,,,0,62,0
111360,note_on,,,,,0,0,1,,,,0,66,76
111616,note_off,,,,,256,0,1,,,,0,66,0
111616,note_on,,,,,0,0,1,,,,0,50,80
111616,note_on,,,,,0,0,1,,,,0,66,80
111872,note_on,,,,,0,0,1,,,,0,69,84
111872,note_off,,,,,256,0,1,,,,0,50,0
111872,note_off,,,,,0,0,1,,,,0,66,0
111872,note_on,,,,,0,0,1,,,,0,54,84
112128,note_on,,,,,0,0,1,,,,0,74,88
112128,note_on,,,,,0,0,1,,,,0,57,88
112128,note_off,,,,,0,0,1,,,,0,69,0
112128,note_off,,,,,256,0,1,,,,0,54,0
112384,note_on,,,,,0,0,1,,,,0,78,92
112384,note_on,,,,,0,0,1,,,,0,62,92
112384,note_off,,,,,0,0,1,,,,0,74,0
112384,note_off,,,,,256,0,1,,,,0,57,0
112640,note_on,,,,,0,0,1,,,,0,81,96
112640,note_off,,,,,0,0,1,,,,0,78,0
112640,note_off,,,,,256,0,1,,,,0,62,0
112640,note_on,,,,,1536,0,2,,,,1,66,112
112896,note_off,,,,,256,0,1,,,,0,81,0
112896,note_on,,,,,0,0,1,,,,0,74,92
113152,note_on,,,,,0,0,2,,,,1,62,88
113152,note_on,,,,,0,0,1,,,,0,78,88
113152,note_on,,,,,0,0,1,,,,0,69,88
113152,note_off,,,,,256,0,1,,,,0,74,0
113152,note_on,,,,,0,0,2,,,,1,54,88
113152,note_off,,,,,512,0,2,,,,1,66,0
113357,note_off,,,,,205,0,2,,,,1,54,0
113357,note_off,,,,,0,0,2,,,,1,62,0
113408,note_off,,,,,256,0,1,,,,0,69,0
113408,note_on,,,,,0,0,1,,,,0,71,84
113664,note_off,,,,,256,0,1,,,,0,78,0
113664,note_on,,,,,0,0,1,,,,0,76,80
113664,note_on,,,,,0,0,1,,,,0,73,80
113664,note_off,,,,,0,0,1,,,,0,71,0
113664,note_on,,,,,307,0,2,,,,1,56,80
113664,note_on,,,,,0,0,2,,,,1,64,80
113869,note_off,,,,,205,0,2,,,,1,56,0
113869,note_off,,,,,0,0,2,,,,1,64,0
113920,note_off,,,,,256,0,1,,,,0,73,0
113920,note_on,,,,,0,0,1,,,,0,68,76
114176,note_off,,,,,256,0,1,,,,0,76,0
114176,note_on,,,,,0,0,1,,,,0,72,72
114176,note_on,,,,,0,0,1,,,,0,75,72
114176,note_on,,,,,307,0,2,,,,1,56,72
114176,note_on,,,,,0,0,2,,,,1,66,72
114176,note_off,,,,,0,0,1,,,,0,68,0
114381,note_off,,,,,0,0,2,,,,1,66,0
114381,note_off,,,,,205,0,2,,,,1,56,0
114432,note_on,,,,,0,0,1,,,,0,68,68
114432,note_off,,,,,256,0,1,,,,0,72,0
114688,note_on,,,,,0,0,2,,,,1,64,64
114688,note_on,,,,,307,0,2,,,,1,61,64
114688,note_off,,,,,256,0,1,,,,0,75,0
114688,note_off,,,,,0,0,1,,,,0,68,0
114688,note_on,,,,,0,0,1,,,,0,73,64
114944,note_off,,,,,256,0,1,,,,0,73,0
114944,note_on,,,,,0,0,1,,,,0,64,64
115200,note_off,,,,,0,0,2,,,,1,64,0
115200,note_off,,,,,512,0,2,,,,1,61,0
115200,note_off,,,,,256,0,1,,,,0,64,0
115200,note_on,,,,,0,0,1,,,,0,73,64
115456,note_off,,,,,256,0,1,,,,0,73,0
115456,note_on,,,,,0,0,1,,,,0,76,64
115712,note_off,,,,,256,0,1,,,,0,76,0
115712,note_on,,,,,512,0,2,,,,1,56,64
115968,note_off,,,,,256,0,2,,,,1,56,0
115968,note_on,,,,,0,0,2,,,,1,49,64
116224,note_on,,,,,0,0,2,,,,1,56,64
116224,note_off,,,,,256,0,2,,,,1,49,0
116480,note_off,,,,,256,0,2,,,,1,56,0
116480,note_on,,,,,0,0,2,,,,1,61,64
116736,note_on,,,,,1024,0,1,,,,0,73,64
116736,note_on,,,,,0,0,2,,,,1,57,64
116736,note_off,,,,,256,0,2,,,,1,61,0
116992,note_on,,,,,0,0,1,,,,0,64,64
116992,note_off,,,,,256,0,1,,,,0,73,0
117248,note_off,,,,,512,0,2,,,,1,57,0
117248,note_on,,,,,0,0,1,,,,0,73,64
117248,note_off,,,,,256,0,1,,,,0,64,0
117504,note_on,,,,,0,0,1,,,,0,76,64
117504,note_off,,,,,256,0,1,,,,0,73,0
117760,note_on,,,,,512,0,2,,,,1,52,64
117760,note_off,,,,,256,0,1,,,,0,76,0
118016,note_off,,,,,256,0,2,,,,1,52,0
118016,note_on,,,,,0,0,2,,,,1,45,64
118272,note_off,,,,,256,0,2,,,,1,45,0
118272,note_on,,,,,0,0,2,,,,1,52,64
118528,note_on,,,,,0,0,2,,,,1,57,64
118528,note_off,,,,,256,0,2,,,,1,52,0
118784,note_on,,,,,1024,0,1,,,,0,74,64
118784,note_off,,,,,256,0,2,,,,1,57,0
118784,note_on,,,,,0,0,2,,,,1,54,64
119040,note_on,,,,,0,0,1,,,,0,69,68
119040,note_off,,,,,256,0,1,,,,0,74,0
119296,note_on,,,,,0,0,1,,,,0,74,72
119296,note_off,,,,,512,0,2,,,,1,54,0
119296,note_on,,,,,0,0,2,,,,1,57,72
119296,note_off,,,,,256,0,1,,,,0,69,0
119552,note_off,,,,,256,0,2,,,,1,57,0
119552,note_off,,,,,256,0,1,,,,0,74,0
119552,note_on,,,,,0,0,2,,,,1,62,76
119552,note_on,,,,,0,0,1,,,,0,78,76
119808,note_on,,,,,0,0,2,,,,1,66,80
119808,note_off,,,,,256,0,2,,,,1,62,0
119808,note_on,,,,,0,0,1,,,,0,81,80
119808,note_off,,,,,256,0,1,,,,0,78,0
120064,note_off,,,,,256,0,2,,,,1,66,0
120064,note_on,,,,,0,0,1,,,,0,78,84
120064,note_off,,,,,256,0,1,,,,0,81,0
120064,note_on,,,,,0,0,2,,,,1,62,84
120320,note_off,,,,,256,0,2,,,,1,62,0
120320,note_on,,,,,0,0,2,,,,1,57,88
120320,note_on,,,,,0,0,1,,,,0,74,88
120320,note_off,,,,,256,0,1,,,,0,78,0
120576,note_off,,,,,256,0,1,,,,0,74,0
120576,note_on,,,,,0,0,2,,,,1,54,92
120576,note_off,,,,,256,0,2,,,,1,57,0
120576,note_on,,,,,0,0,1,,,,0,69,92
120832,note_on,,,,,0,0,1,,,,0,68,96
120832,note_off,,,,,256,0,2,,,,1,54,0
120832,note_on,,,,,0,0,2,,,,1,56,96
120832,note_off,,,,,256,0,1,,,,0,69,0
121037,note_off,,,,,205,0,2,,,,1,56,0
121088,note_on,,,,,0,0,1,,,,0,76,93
121088,note_off,,,,,256,0,1,,,,0,68,0
121344,note_on,,,,,0,0,1,,,,0,64,90
121344,note_off,,,,,256,0,1,,,,0,76,0
121344,note_on,,,,,307,0,2,,,,1,56,90
121549,note_off,,,,,205,0,2,,,,1,56,0
121600,note_on,,,,,0,0,1,,,,0,73,87
121600,note_off,,,,,256,0,1,,,,0,64,0
121856,note_on,,,,,307,0,2,,,,1,56,84
121856,note_on,,,,,0,0,1,,,,0,66,84
121856,note_off,,,,,256,0,1,,,,0,73,0
122061,note_off,,,,,205,0,2,,,,1,56,0
122112,note_off,,,,,256,0,1,,,,0,66,0
122112,note_on,,,,,0,0,1,,,,0,75,81
122368,note_on,,,,,307,0,2,,,,1,56,78
122368,note_off,,,,,256,0,1,,,,0,75,0
122368,note_on,,,,,0,0,1,,,,0,63,78
122573,note_off,,,,,205,0,2,,,,1,56,0
122624,note_off,,,,,256,0,1,,,,0,63,0
122624,note_on,,,,,0,0,1,,,,0,72,75
122880,note_on,,,,,307,0,2,,,,1,56,72
122880,note_off,,,,,256,0,1,,,,0,72,0
122880,note_on,,,,,0,0,1,,,,0,64,72
123085,note_off,,,,,205,0,2,,,,1,56,0
123136,note_off,,,,,256,0,1,,,,0,64,0
123136,note_on,,,,,0,0,1,,,,0,73,69
123392,note_on,,,,,307,0,2,,,,1,44,66
123392,note_off,,,,,256,0,1,,,,0,73,0
123392,note_on,,,,,0,0,1,,,,0,61,66
123392,note_on,,,,,0,0,1,,,,0,64,66
123392,set_tempo,,,,,123392,1,0,,550458,,,,
123392,set_tempo,,,,,0,1,0,,566037,,,,
123648,note_on,,,,,0,0,1,,,,0,68,63
123648,note_off,,,,,0,0,1,,,,0,64,0
123648,note_off,,,,,256,0,1,,,,0,61,0
123904,note_off,,,,,512,0,2,,,,1,44,0
123904,note_on,,,,,0,0,2,,,,1,44,60
123904,note_on,,,,,0,0,1,,,,0,66,60
123904,set_tempo,,,,,0,1,0,,600000,,,,
123904,note_on,,,,,0,0,1,,,,0,63,60
123904,note_off,,,,,256,0,1,,,,0,68,0
123904,set_tempo,,,,,512,1,0,,582524,,,,
124160,note_off,,,,,0,0,1,,,,0,66,0
124160,note_off,,,,,256,0,1,,,,0,63,0
124160,note_on,,,,,0,0,1,,,,0,68,57
124416,note_on,,,,,0,0,2,,,,1,44,54
124416,note_off,,,,,512,0,2,,,,1,44,0
124416,set_tempo,,,,,0,1,0,,638297,,,,
124416,set_tempo,,,,,512,1,0,,618556,,,,
124416,note_on,,,,,0,0,1,,,,0,63,54
124416,note_on,,,,,0,0,1,,,,0,60,54
124416,note_off,,,,,256,0,1,,,,0,68,0
124672,note_on,,,,,0,0,1,,,,0,68,51
124672,note_off,,,,,0,0,1,,,,0,63,0
124672,note_off,,,,,256,0,1,,,,0,60,0
124928,set_tempo,,,,,0,1,0,,697674,,,,
124928,set_tempo,,,,,512,1,0,,666666,,,,
124928,note_off,,,,,512,0,2,,,,1,44,0
124928,note_off,,,,,256,0,1,,,,0,68,0
125440,set_tempo,,,,,0,1,0,,750000,,,,
125440,set_tempo,,,,,512,1,0,,722891,,,,
125952,set_tempo,,,,,512,1,0,,779220,,,,
125952,set_tempo,,,,,0,1,0,,810810,,,,
126464,set_tempo,,,,,512,1,0,,845070,,,,
126464,set_tempo,,,,,0,1,0,,882352,,,,
126976,set_tempo,,,,,0,1,0,,491803,,,,
126976,set_tempo,,,,,0,1,0,,491803,,,,
126976,key_signature,,,,,512,1,0,Db,,,,,
126976,set_tempo,,,,,0,1,0,,508474,,,,
126976,note_on,,,,,0,0,2,,,,1,61,36
126976,note_on,,,,,2048,0,1,,,,0,65,49
126976,set_tempo,,,,,0,1,0,,526315,,,,
126976,note_on,,,,,0,0,2,,,,1,56,36
126976,note_on,,,,,2048,0,2,,,,1,49,36
127181,note_off,,,,,205,0,2,,,,1,49,0
127181,note_off,,,,,0,0,2,,,,1,61,0
127181,note_off,,,,,0,0,2,,,,1,56,0
127232,note_off,,,,,256,0,1,,,,0,65,0
127232,note_on,,,,,0,0,1,,,,0,68,49
127488,note_on,,,,,0,0,1,,,,0,70,61
127488,note_off,,,,,256,0,1,,,,0,68,0
127488,note_on,,,,,0,0,1,,,,0,66,61
127488,note_on,,,,,0,0,2,,,,1,56,36
127488,note_on,,,,,0,0,2,,,,1,61,36
127488,note_on,,,,,307,0,2,,,,1,49,36
127898,note_off,,,,,410,0,2,,,,1,49,0
127898,note_off,,,,,0,0,2,,,,1,56,0
127898,note_off,,,,,0,0,2,,,,1,61,0
128512,note_on,,,,,0,0,2,,,,1,61,36
128512,note_on,,,,,614,0,2,,,,1,49,36
128512,note_on,,,,,0,0,2,,,,1,56,36
128512,note_on,,,,,0,0,1,,,,0,68,49
128512,note_on,,,,,0,0,1,,,,0,65,49
128512,note_off,,,,,0,0,1,,,,0,70,0
128512,note_off,,,,,1024,0,1,,,,0,66,0
128717,note_off,,,,,205,0,2,,,,1,49,0
128717,note_off,,,,,0,0,2,,,,1,61,0
128717,note_off,,,,,0,0,1,,,,0,68,0
128717,note_off,,,,,205,0,1,,,,0,65,0
128717,note_off,,,,,0,0,2,,,,1,56,0
129024,note_on,,,,,307,0,1,,,,0,65,49
129024,note_on,,,,,0,0,2,,,,1,61,36
129024,note_on,,,,,307,0,2,,,,1,49,36
129024,note_on,,,,,0,0,2,,,,1,56,36
129229,note_off,,,,,205,0,2,,,,1,49,0
129229,note_off,,,,,0,0,2,,,,1,56,0
129229,note_off,,,,,0,0,2,,,,1,61,0
129280,note_on,,,,,0,0,1,,,,0,68,49
129280,note_off,,,,,256,0,1,,,,0,65,0
129536,note_on,,,,,0,0,1,,,,0,73,61
129536,note_on,,,,,0,0,1,,,,0,70,61
129536,note_on,,,,,0,0,1,,,,0,66,61
129536,note_off,,,,,256,0,1,,,,0,68,0
129536,note_on,,,,,307,0,2,,,,1,49,36
129536,note_on,,,,,0,0,2,,,,1,61,36
129536,note_on,,,,,0,0,2,,,,1,56,36
129946,note_off,,,,,410,0,2,,,,1,49,0
129946,note_off,,,,,0,0,2,,,,1,56,0
129946,note_off,,,,,0,0,2,,,,1,61,0
130560,note_on,,,,,0,0,1,,,,0,68,49
130560,note_on,,,,,0,0,1,,,,0,65,49
130560,note_off,,,,,0,0,1,,,,0,73,0
130560,note_off,,,,,0,0,1,,,,0,70,0
130560,note_off,,,,,1024,0,1,,,,0,66,0
130560,note_on,,,,,614,0,2,,,,1,49,36
130560,note_on,,,,,0,0,2,,,,1,56,36
130560,note_on,,,,,0,0,2,,,,1,61,36
130765,note_off,,,,,205,0,1,,,,0,65,0
130765,note_off,,,,,205,0,2,,,,1,49,0
130765,note_off,,,,,0,0,2,,,,1,56,0
130765,note_off,,,,,0,0,2,,,,1,61,0
130765,note_off,,,,,0,0,1,,,,0,68,0
131072,note_on,,,,,0,0,1,,,,0,68,49
131072,note_on,,,,,307,0,2,,,,1,56,36
131072,note_on,,,,,0,0,2,,,,1,60,36
131072,note_on,,,,,307,0,1,,,,0,65,49
131277,note_off,,,,,0,0,2,,,,1,60,0
131277,note_off,,,,,205,0,2,,,,1,56,0
131328,note_off,,,,,0,0,1,,,,0,68,0
131328,note_on,,,,,0,0,1,,,,0,62,49
131328,note_off,,,,,256,0,1,,,,0,65,0
131584,note_on,,,,,0,0,2,,,,1,60,36
131584,note_off,,,,,256,0,1,,,,0,62,0
131584,note_on,,,,,0,0,1,,,,0,63,61
131584,note_on,,,,,0,0,1,,,,0,66,61
131584,note_on,,,,,307,0,2,,,,1,56,36
131994,note_off,,,,,0,0,2,,,,1,60,0
131994,note_off,,,,,410,0,2,,,,1,56,0
132608,note_on,,,,,0,0,2,,,,1,60,36
132608,note_on,,,,,0,0,1,,,,0,75,49
132608,note_on,,,,,614,0,2,,,,1,56,36
132608,note_off,,,,,1024,0,1,,,,0,63,0
132608,note_off,,,,,0,0,1,,,,0,66,0
132608,note_on,,,,,0,0,1,,,,0,66,49
132813,note_off,,,,,0,0,2,,,,1,60,0
132813,note_off,,,,,205,0,2,,,,1,56,0
132813,note_off,,,,,205,0,1,,,,0,66,0
132813,note_off,,,,,0,0,1,,,,0,75,0
133120,note_on,,,,,0,0,2,,,,1,61,36
133120,note_on,,,,,0,0,1,,,,0,77,49
133120,note_on,,,,,307,0,1,,,,0,68,49
133120,note_on,,,,,307,0,2,,,,1,49,36
133120,note_on,,,,,0,0,2,,,,1,56,36
133325,note_off,,,,,0,0,2,,,,1,61,0
133325,note_off,,,,,0,0,2,,,,1,56,0
133325,note_off,,,,,205,0,2,,,,1,49,0
133376,note_on,,,,,0,0,1,,,,0,75,49
133376,note_on,,,,,0,0,1,,,,0,66,49
133376,note_off,,,,,0,0,1,,,,0,77,0
133376,note_off,,,,,256,0,1,,,,0,68,0
133632,note_on,,,,,0,0,2,,,,1,61,36
133632,note_on,,,,,0,0,2,,,,1,56,36
133632,note_on,,,,,307,0,2,,,,1,49,36
133632,note_off,,,,,0,0,1,,,,0,75,0
133632,note_on,,,,,0,0,1,,,,0,73,61
133632,note_on,,,,,0,0,1,,,,0,65,61
133632,note_off,,,,,256,0,1,,,,0,66,0
134042,note_off,,,,,410,0,2,,,,1,49,0
134042,note_off,,,,,0,0,2,,,,1,56,0
134042,note_off,,,,,0,0,2,,,,1,61,0
134656,note_on,,,,,0,0,1,,,,0,68,49
134656,note_on,,,,,0,0,1,,,,0,65,49
134656,note_off,,,,,0,0,1,,,,0,73,0
134656,note_off,,,,,1024,0,1,,,,0,65,0
134656,note_on,,,,,614,0,2,,,,1,49,36
134656,note_on,,,,,0,0,2,,,,1,56,36
134656,note_on,,,,,0,0,2,,,,1,61,36
134861,note_off,,,,,205,0,2,,,,1,49,0
134861,note_off,,,,,0,0,2,,,,1,56,0
134861,note_off,,,,,0,0,2,,,,1,61,0
134861,note_off,,,,,0,0,1,,,,0,68,0
134861,note_off,,,,,205,0,1,,,,0,65,0
135168,note_on,,,,,0,0,2,,,,1,56,36
135168,note_on,,,,,0,0,2,,,,1,61,36
135168,note_on,,,,,307,0,1,,,,0,65,49
135168,note_on,,,,,307,0,2,,,,1,49,36
135373,note_off,,,,,0,0,2,,,,1,61,0
135373,note_off,,,,,0,0,2,,,,1,56,0
135373,note_off,,,,,205,0,2,,,,1,49,0
135424,note_off,,,,,256,0,1,,,,0,65,0
135424,note_on,,,,,0,0,1,,,,0,68,49
135680,note_on,,,,,0,0,2,,,,1,61,36
135680,note_off,,,,,256,0,1,,,,0,68,0
135680,note_on,,,,,0,0,1,,,,0,66,61
135680,note_on,,,,,0,0,1,,,,0,70,61
135680,note_on,,,,,0,0,2,,,,1,56,36
135680,note_on,,,,,307,0,2,,,,1,49,36
136090,note_off,,,,,0,0,2,,,,1,61,0
136090,note_off,,,,,0,0,2,,,,1,56,0
136090,note_off,,,,,410,0,2,,,,1,49,0
136704,note_on,,,,,0,0,1,,,,0,68,49
136704,note_on,,,,,0,0,2,,,,1,61,36
136704,note_on,,,,,0,0,2,,,,1,56,36
136704,note_on,,,,,614,0,2,,,,1,49,36
136704,note_off,,,,,0,0,1,,,,0,70,0
136704,note_on,,,,,0,0,1,,,,0,65,49
136704,note_off,,,,,1024,0,1,,,,0,66,0
136909,note_off,,,,,0,0,2,,,,1,61,0
136909,note_off,,,,,205,0,2,,,,1,49,0
136909,note_off,,,,,205,0,1,,,,0,65,0
136909,note_off,,,,,0,0,2,,,,1,56,0
136909,note_off,,,,,0,0,1,,,,0,68,0
137216,note_on,,,,,307,0,1,,,,0,65,49
137216,note_on,,,,,307,0,2,,,,1,49,36
137216,note_on,,,,,0,0,2,,,,1,56,36
137216,note_on,,,,,0,0,2,,,,1,61,36
137421,note_off,,,,,0,0,2,,,,1,56,0
137421,note_off,,,,,205,0,2,,,,1,49,0
137421,note_off,,,,,0,0,2,,,,1,61,0
137472,note_off,,,,,256,0,1,,,,0,65,0
137472,note_on,,,,,0,0,1,,,,0,68,49
137728,note_on,,,,,307,0,2,,,,1,49,36
137728,note_on,,,,,0,0,2,,,,1,56,36
137728,note_on,,,,,0,0,2,,,,1,61,36
137728,note_off,,,,,256,0,1,,,,0,68,0
137728,note_on,,,,,0,0,1,,,,0,70,61
137728,note_on,,,,,0,0,1,,,,0,66,61
137728,note_on,,,,,0,0,1,,,,0,73,61
138138,note_off,,,,,410,0,2,,,,1,49,0
138138,note_off,,,,,0,0,2,,,,1,61,0
138138,note_off,,,,,0,0,2,,,,1,56,0
138752,note_off,,,,,1024,0,1,,,,0,66,0
138752,note_on,,,,,614,0,2,,,,1,49,36
138752,note_on,,,,,0,0,2,,,,1,56,36
138752,note_on,,,,,0,0,2,,,,1,61,36
138752,note_off,,,,,0,0,1,,,,0,73,0
138752,note_on,,,,,0,0,1,,,,0,65,49
138752,note_on,,,,,0,0,1,,,,0,68,49
138752,note_off,,,,,0,0,1,,,,0,70,0
138957,note_off,,,,,205,0,1,,,,0,65,0
138957,note_off,,,,,0,0,1,,,,0,68,0
138957,note_off,,,,,0,0,2,,,,1,61,0
138957,note_off,,,,,0,0,2,,,,1,56,0
138957,note_off,,,,,205,0,2,,,,1,49,0
139264,note_on,,,,,0,0,2,,,,1,60,36
139264,note_on,,,,,0,0,1,,,,0,68,49
139264,note_on,,,,,307,0,1,,,,0,65,49
139264,note_on,,,,,307,0,2,,,,1,56,36
139469,note_off,,,,,205,0,2,,,,1,56,0
139469,note_off,,,,,0,0,2,,,,1,60,0
139520,note_on,,,,,0,0,1,,,,0,62,49
139520,note_off,,,,,256,0,1,,,,0,65,0
139520,note_off,,,,,0,0,1,,,,0,68,0
139776,note_on,,,,,0,0,1,,,,0,66,61
139776,note_on,,,,,0,0,1,,,,0,63,61
139776,note_off,,,,,256,0,1,,,,0,62,0
139776,note_on,,,,,307,0,2,,,,1,56,36
139776,note_on,,,,,0,0,2,,,,1,60,36
140544,note_on,,,,,0,0,1,,,,0,66,49
140544,note_off,,,,,0,0,1,,,,0,66,0
140544,note_off,,,,,768,0,1,,,,0,63,0
140544,note_on,,,,,0,0,1,,,,0,75,49
140800,note_off,,,,,0,0,2,,,,1,60,0
140800,note_on,,,,,0,0,2,,,,1,60,36
140800,note_off,,,,,1024,0,2,,,,1,56,0
140800,note_on,,,,,0,0,2,,,,1,56,36
140800,note_off,,,,,256,0,1,,,,0,66,0
140800,note_on,,,,,0,0,1,,,,0,77,49
140800,note_on,,,,,0,0,1,,,,0,68,49
140800,note_off,,,,,0,0,1,,,,0,75,0
141005,note_off,,,,,0,0,2,,,,1,60,0
141005,note_off,,,,,205,0,2,,,,1,56,0
141056,note_off,,,,,0,0,1,,,,0,77,0
141056,note_on,,,,,0,0,1,,,,0,66,49
141056,note_on,,,,,0,0,1,,,,0,75,49
141056,note_off,,,,,256,0,1,,,,0,68,0
141312,note_on,,,,,0,0,2,,,,1,61,36
141312,note_on,,,,,0,0,1,,,,0,73,49
141312,note_on,,,,,0,0,1,,,,0,65,49
141312,note_on,,,,,307,0,2,,,,1,49,36
141312,note_on,,,,,0,0,2,,,,1,56,36
141312,note_off,,,,,0,0,1,,,,0,75,0
141312,note_off,,,,,256,0,1,,,,0,66,0
141517,note_off,,,,,0,0,2,,,,1,56,0
141517,note_off,,,,,0,0,2,,,,1,61,0
141517,note_off,,,,,205,0,2,,,,1,49,0
141568,note_on,,,,,0,0,1,,,,0,75,49
141568,note_off,,,,,256,0,1,,,,0,65,0
141568,note_off,,,,,0,0,1,,,,0,73,0
141568,note_on,,,,,0,0,1,,,,0,66,49
141824,note_on,,,,,307,0,2,,,,1,49,36
141824,note_on,,,,,0,0,2,,,,1,61,36
141824,note_on,,,,,0,0,1,,,,0,65,49
141824,note_on,,,,,0,0,1,,,,0,73,49
141824,note_off,,,,,0,0,1,,,,0,75,0
141824,note_on,,,,,0,0,2,,,,1,56,36
141824,note_off,,,,,256,0,1,,,,0,66,0
142438,note_off,,,,,0,0,2,,,,1,56,0
142438,note_off,,,,,614,0,2,,,,1,49,0
142438,note_off,,,,,0,0,2,,,,1,61,0
143360,note_off,,,,,1536,0,1,,,,0,65,0
143360,note_off,,,,,0,0,1,,,,0,73,0
143360,note_on,,,,,922,0,2,,,,1,32,49
143360,note_on,,,,,0,0,2,,,,1,44,49
143360,note_on,,,,,0,0,1,,,,0,56,64
143565,note_off,,,,,205,0,2,,,,1,32,0
143565,note_off,,,,,0,0,2,,,,1,44,0
143616,note_off,,,,,256,0,1,,,,0,56,0
143616,note_on,,,,,0,0,1,,,,0,60,64
143872,note_off,,,,,256,0,1,,,,0,60,0
143872,note_on,,,,,0,0,1,,,,0,52,80
143872,note_on,,,,,0,0,1,,,,0,56,80
143872,note_on,,,,,0,0,1,,,,0,61,80
143872,note_on,,,,,307,0,2,,,,1,37,49
143872,note_on,,,,,0,0,2,,,,1,44,49
144896,note_off,,,,,1024,0,2,,,,1,37,0
144896,note_off,,,,,0,0,2,,,,1,44,0
144896,note_off,,,,,0,0,1,,,,0,61,0
144896,note_on,,,,,0,0,2,,,,1,44,49
144896,note_on,,,,,0,0,1,,,,0,60,64
144896,note_on,,,,,0,0,1,,,,0,56,64
144896,note_on,,,,,0,0,1,,,,0,51,64
144896,note_off,,,,,0,0,1,,,,0,56,0
144896,note_off,,,,,1024,0,1,,,,0,52,0
144896,note_on,,,,,0,0,2,,,,1,32,49
145101,note_off,,,,,0,0,1,,,,0,56,0
145101,note_off,,,,,0,0,1,,,,0,60,0
145101,note_off,,,,,205,0,1,,,,0,51,0
145408,note_on,,,,,0,0,2,,,,1,32,49
145408,note_on,,,,,307,0,1,,,,0,56,64
145408,note_on,,,,,0,0,2,,,,1,44,49
145408,note_off,,,,,512,0,2,,,,1,32,0
145408,note_off,,,,,0,0,2,,,,1,44,0
145613,note_off,,,,,0,0,2,,,,1,44,0
145613,note_off,,,,,205,0,2,,,,1,32,0
145664,note_off,,,,,256,0,1,,,,0,56,0
145664,note_on,,,,,0,0,1,,,,0,60,64
145920,note_on,,,,,0,0,2,,,,1,44,49
145920,note_on,,,,,307,0,2,,,,1,37,49
145920,note_on,,,,,0,0,1,,,,0,61,80
145920,note_off,,,,,256,0,1,,,,0,60,0
145920,note_on,,,,,0,0,1,,,,0,56,80
145920,note_on,,,,,0,0,1,,,,0,64,80
146944,note_off,,,,,1024,0,2,,,,1,37,0
146944,note_off,,,,,0,0,2,,,,1,44,0
146944,note_on,,,,,0,0,2,,,,1,32,49
146944,note_on,,,,,0,0,2,,,,1,44,49
146944,note_on,,,,,0,0,1,,,,0,60,64
146944,note_off,,,,,1024,0,1,,,,0,56,0
146944,note_off,,,,,0,0,1,,,,0,61,0
146944,note_off,,,,,0,0,1,,,,0,64,0
146944,note_on,,,,,0,0,1,,,,0,63,64
146944,note_on,,,,,0,0,1,,,,0,56,64
147149,note_off,,,,,0,0,1,,,,0,63,0
147149,note_off,,,,,0,0,1,,,,0,60,0
147149,note_off,,,,,205,0,1,,,,0,56,0
147456,note_off,,,,,512,0,2,,,,1,32,0
147456,note_on,,,,,0,0,2,,,,1,32,49
147456,note_on,,,,,0,0,2,,,,1,44,49
147456,note_on,,,,,0,0,1,,,,0,63,64
147456,note_off,,,,,0,0,2,,,,1,44,0
147456,note_on,,,,,307,0,1,,,,0,60,64
147661,note_off,,,,,205,0,2,,,,1,32,0
147661,note_off,,,,,0,0,2,,,,1,44,0
147712,note_on,,,,,0,0,1,,,,0,69,63
147712,note_off,,,,,0,0,1,,,,0,63,0
147712,note_off,,,,,256,0,1,,,,0,60,0
147968,note_on,,,,,0,0,1,,,,0,64,78
147968,note_on,,,,,0,0,1,,,,0,61,78
147968,note_off,,,,,256,0,1,,,,0,69,0
147968,note_on,,,,,0,0,2,,,,1,44,47
147968,note_on,,,,,307,0,2,,,,1,37,47
147968,note_on,,,,,0,0,1,,,,0,68,78
148992,note_on,,,,,0,0,1,,,,0,63,58
148992,note_on,,,,,0,0,1,,,,0,60,58
148992,note_off,,,,,0,0,1,,,,0,68,0
148992,note_off,,,,,1024,0,1,,,,0,61,0
148992,note_on,,,,,0,0,1,,,,0,68,58
148992,note_off,,,,,0,0,1,,,,0,64,0
148992,note_off,,,,,0,0,2,,,,1,44,0
148992,note_on,,,,,0,0,2,,,,1,32,43
148992,note_off,,,,,1024,0,2,,,,1,37,0
148992,note_on,,,,,0,0,2,,,,1,44,43
149197,note_off,,,,,205,0,1,,,,0,60,0
149197,note_off,,,,,0,0,1,,,,0,63,0
149197,note_off,,,,,0,0,1,,,,0,68,0
149504,note_on,,,,,307,0,1,,,,0,59,56
149504,note_on,,,,,0,0,1,,,,0,63,56
149504,note_on,,,,,0,0,1,,,,0,69,56
149504,note_off,,,,,512,0,2,,,,1,32,0
149504,note_off,,,,,0,0,2,,,,1,44,0
149504,note_on,,,,,0,0,2,,,,1,47,41
149504,note_on,,,,,0,0,2,,,,1,42,41
149760,note_on,,,,,0,0,1,,,,0,71,55
149760,note_off,,,,,0,0,1,,,,0,69,0
149760,note_off,,,,,0,0,1,,,,0,63,0
149760,note_off,,,,,256,0,1,,,,0,59,0
150016,note_on,,,,,0,0,2,,,,1,40,39
150016,note_off,,,,,256,0,1,,,,0,71,0
150016,note_on,,,,,0,0,1,,,,0,60,54
150016,note_off,,,,,0,0,2,,,,1,47,0
150016,note_off,,,,,512,0,2,,,,1,42,0
150016,note_on,,,,,0,0,2,,,,1,47,39
150016,note_on,,,,,0,0,1,,,,0,64,54
150016,note_on,,,,,0,0,1,,,,0,68,54
151552,note_off,,,,,0,0,2,,,,1,47,0
151552,note_off,,,,,1536,0,2,,,,1,40,0
151552,note_on,,,,,0,0,2,,,,1,49,36
151552,note_on,,,,,0,0,2,,,,1,56,36
151552,note_off,,,,,0,0,1,,,,0,68,0
151552,set_tempo,,,,,0,1,0,,491803,,,,
151552,note_on,,,,,0,0,1,,,,0,65,49
151552,note_off,,,,,1536,0,1,,,,0,60,0
151552,note_off,,,,,0,0,1,,,,0,64,0
151552,note_on,,,,,0,0,2,,,,1,61,36
151552,set_tempo,,,,,24576,1,0,,491803,,,,
151757,note_off,,,,,0,0,2,,,,1,56,0
151757,note_off,,,,,0,0,2,,,,1,61,0
151757,note_off,,,,,205,0,2,,,,1,49,0
151808,note_off,,,,,256,0,1,,,,0,65,0
151808,note_on,,,,,0,0,1,,,,0,68,49
152064,note_on,,,,,307,0,2,,,,1,49,36
152064,note_on,,,,,0,0,2,,,,1,56,36
152064,note_on,,,,,0,0,2,,,,1,61,36
152064,note_off,,,,,256,0,1,,,,0,68,0
152064,note_on,,,,,0,0,1,,,,0,70,61
152064,note_on,,,,,0,0,1,,,,0,66,61
152474,note_off,,,,,410,0,2,,,,1,49,0
152474,note_off,,,,,0,0,2,,,,1,56,0
152474,note_off,,,,,0,0,2,,,,1,61,0
153088,note_off,,,,,0,0,1,,,,0,70,0
153088,note_off,,,,,1024,0,1,,,,0,66,0
153088,note_on,,,,,0,0,1,,,,0,68,49
153088,note_on,,,,,0,0,2,,,,1,56,36
153088,note_on,,,,,614,0,2,,,,1,49,36
153088,note_on,,,,,0,0,2,,,,1,61,36
153088,note_on,,,,,0,0,1,,,,0,65,49
153293,note_off,,,,,0,0,2,,,,1,61,0
153293,note_off,,,,,0,0,2,,,,1,56,0
153293,note_off,,,,,0,0,1,,,,0,68,0
153293,note_off,,,,,205,0,1,,,,0,65,0
153293,note_off,,,,,205,0,2,,,,1,49,0
153600,note_on,,,,,307,0,2,,,,1,49,36
153600,note_on,,,,,307,0,1,,,,0,65,49
153600,note_on,,,,,0,0,2,,,,1,61,36
153600,note_on,,,,,0,0,2,,,,1,56,36
153805,note_off,,,,,205,0,2,,,,1,49,0
153805,note_off,,,,,0,0,2,,,,1,56,0
153805,note_off,,,,,0,0,2,,,,1,61,0
153856,note_on,,,,,0,0,1,,,,0,68,49
153856,note_off,,,,,256,0,1,,,,0,65,0
154112,note_on,,,,,0,0,1,,,,0,73,61
154112,note_on,,,,,0,0,1,,,,0,70,61
154112,note_on,,,,,0,0,1,,,,0,66,61
154112,note_off,,,,,256,0,1,,,,0,68,0
154112,note_on,,,,,0,0,2,,,,1,61,36
154112,note_on,,,,,0,0,2,,,,1,56,36
154112,note_on,,,,,307,0,2,,,,1,49,36
154522,note_off,,,,,0,0,2,,,,1,56,0
154522,note_off,,,,,410,0,2,,,,1,49,0
154522,note_off,,,,,0,0,2,,,,1,61,0
155136,note_off,,,,,0,0,1,,,,0,73,0
155136,note_off,,,,,1024,0,1,,,,0,66,0
155136,note_on,,,,,0,0,1,,,,0,68,49
155136,note_off,,,,,0,0,1,,,,0,70,0
155136,note_on,,,,,0,0,1,,,,0,65,49
155136,note_on,,,,,0,0,2,,,,1,61,36
155136,note_on,,,,,614,0,2,,,,1,49,36
155136,note_on,,,,,0,0,2,,,,1,56,36
155341,note_off,,,,,0,0,1,,,,0,68,0
155341,note_off,,,,,205,0,1,,,,0,65,0
155341,note_off,,,,,0,0,2,,,,1,61,0
155341,note_off,,,,,0,0,2,,,,1,56,0
155341,note_off,,,,,205,0,2,,,,1,49,0
155648,note_on,,,,,307,0,1,,,,0,65,49
155648,note_on,,,,,307,0,2,,,,1,56,36
155648,note_on,,,,,0,0,1,,,,0,68,49
155648,note_on,,,,,0,0,2,,,,1,60,36
155853,note_off,,,,,205,0,2,,,,1,56,0
155853,note_off,,,,,0,0,2,,,,1,60,0
155904,note_off,,,,,0,0,1,,,,0,68,0
155904,note_off,,,,,256,0,1,,,,0,65,0
155904,note_on,,,,,0,0,1,,,,0,62,49
156160,note_off,,,,,256,0,1,,,,0,62,0
156160,note_on,,,,,0,0,1,,,,0,63,61
156160,note_on,,,,,0,0,1,,,,0,66,61
156160,note_on,,,,,0,0,2,,,,1,60,36
156160,note_on,,,,,307,0,2,,,,1,56,36
156570,note_off,,,,,0,0,2,,,,1,60,0
156570,note_off,,,,,410,0,2,,,,1,56,0
157184,note_on,,,,,0,0,1,,,,0,75,49
157184,note_off,,,,,1024,0,1,,,,0,63,0
157184,note_off,,,,,0,0,1,,,,0,66,0
157184,note_on,,,,,0,0,1,,,,0,66,49
157184,note_on,,,,,614,0,2,,,,1,56,36
157184,note_on,,,,,0,0,2,,,,1,60,36
157389,note_off,,,,,205,0,1,,,,0,66,0
157389,note_off,,,,,0,0,1,,,,0,75,0
157389,note_off,,,,,205,0,2,,,,1,56,0
157389,note_off,,,,,0,0,2,,,,1,60,0
157696,note_on,,,,,307,0,1,,,,0,68,49
157696,note_on,,,,,0,0,1,,,,0,77,49
157696,note_on,,,,,307,0,2,,,,1,49,36
157696,note_on,,,,,0,0,2,,,,1,56,36
157696,note_on,,,,,0,0,2,,,,1,61,36
157901,note_off,,,,,205,0,2,,,,1,49,0
157901,note_off,,,,,0,0,2,,,,1,56,0
157901,note_off,,,,,0,0,2,,,,1,61,0
157952,note_on,,,,,0,0,1,,,,0,75,49
157952,note_off,,,,,256,0,1,,,,0,68,0
157952,note_off,,,,,0,0,1,,,,0,77,0
157952,note_on,,,,,0,0,1,,,,0,66,49
158208,note_on,,,,,0,0,2,,,,1,61,36
158208,note_off,,,,,0,0,1,,,,0,75,0
158208,note_on,,,,,0,0,1,,,,0,65,61
158208,note_off,,,,,256,0,1,,,,0,66,0
158208,note_on,,,,,307,0,2,,,,1,49,36
158208,note_on,,,,,0,0,2,,,,1,56,36
158208,note_on,,,,,0,0,1,,,,0,73,61
158618,note_off,,,,,0,0,2,,,,1,56,0
158618,note_off,,,,,410,0,2,,,,1,49,0
158618,note_off,,,,,0,0,2,,,,1,61,0
159232,note_off,,,,,1024,0,1,,,,0,65,0
159232,note_on,,,,,0,0,1,,,,0,68,49
159232,note_off,,,,,0,0,1,,,,0,73,0
159232,note_on,,,,,614,0,2,,,,1,49,36
159232,note_on,,,,,0,0,2,,,,1,56,36
159232,note_on,,,,,0,0,2,,,,1,61,36
159232,note_on,,,,,0,0,1,,,,0,65,49
159437,note_off,,,,,205,0,1,,,,0,65,0
159437,note_off,,,,,0,0,2,,,,1,56,0
159437,note_off,,,,,0,0,2,,,,1,61,0
159437,note_off,,,,,0,0,1,,,,0,68,0
159437,note_off,,,,,205,0,2,,,,1,49,0
159744,note_on,,,,,0,0,2,,,,1,56,36
159744,note_on,,,,,0,0,2,,,,1,61,36
159744,note_on,,,,,307,0,1,,,,0,65,49
159744,note_on,,,,,307,0,2,,,,1,49,36
159949,note_off,,,,,205,0,2,,,,1,49,0
159949,note_off,,,,,0,0,2,,,,1,56,0
159949,note_off,,,,,0,0,2,,,,1,61,0
160000,note_on,,,,,0,0,1,,,,0,68,49
160000,note_off,,,,,256,0,1,,,,0,65,0
160256,note_on,,,,,0,0,1,,,,0,66,61
160256,note_on,,,,,0,0,2,,,,1,56,36
160256,note_on,,,,,0,0,1,,,,0,70,61
160256,note_off,,,,,256,0,1,,,,0,68,0
160256,note_on,,,,,307,0,2,,,,1,49,36
160256,note_on,,,,,0,0,2,,,,1,61,36
160666,note_off,,,,,0,0,2,,,,1,61,0
160666,note_off,,,,,410,0,2,,,,1,49,0
160666,note_off,,,,,0,0,2,,,,1,56,0
161280,note_on,,,,,614,0,2,,,,1,49,36
161280,note_on,,,,,0,0,2,,,,1,56,36
161280,note_on,,,,,0,0,2,,,,1,61,36
161280,note_off,,,,,1024,0,1,,,,0,66,0
161280,note_off,,,,,0,0,1,,,,0,70,0
161280,note_on,,,,,0,0,1,,,,0,65,49
161280,note_on,,,,,0,0,1,,,,0,68,49
161485,note_off,,,,,205,0,2,,,,1,49,0
161485,note_off,,,,,0,0,2,,,,1,56,0
161485,note_off,,,,,0,0,2,,,,1,61,0
161485,note_off,,,,,0,0,1,,,,0,68,0
161485,note_off,,,,,205,0,1,,,,0,65,0
161792,note_on,,,,,0,0,2,,,,1,56,36
161792,note_on,,,,,0,0,2,,,,1,61,36
161792,note_on,,,,,307,0,1,,,,0,65,49
161792,note_on,,,,,307,0,2,,,,1,49,36
161997,note_off,,,,,0,0,2,,,,1,56,0
161997,note_off,,,,,0,0,2,,,,1,61,0
161997,note_off,,,,,205,0,2,,,,1,49,0
162048,note_on,,,,,0,0,1,,,,0,68,49
162048,note_off,,,,,256,0,1,,,,0,65,0
162304,note_on,,,,,0,0,1,,,,0,66,61
162304,note_off,,,,,256,0,1,,,,0,68,0
162304,note_on,,,,,0,0,1,,,,0,73,61
162304,note_on,,,,,0,0,2,,,,1,56,36
162304,note_on,,,,,307,0,2,,,,1,49,36
162304,note_on,,,,,0,0,1,,,,0,70,61
162304,note_on,,,,,0,0,2,,,,1,61,36
162714,note_off,,,,,0,0,2,,,,1,61,0
162714,note_off,,,,,0,0,2,,,,1,56,0
162714,note_off,,,,,410,0,2,,,,1,49,0
163328,note_off,,,,,1024,0,1,,,,0,66,0
163328,note_off,,,,,0,0,1,,,,0,70,0
163328,note_on,,,,,614,0,2,,,,1,49,36
163328,note_on,,,,,0,0,2,,,,1,61,36
163328,note_on,,,,,0,0,2,,,,1,56,36
163328,note_off,,,,,0,0,1,,,,0,73,0
163328,note_on,,,,,0,0,1,,,,0,68,49
163328,note_on,,,,,0,0,1,,,,0,65,49
163533,note_off,,,,,205,0,1,,,,0,65,0
163533,note_off,,,,,0,0,1,,,,0,68,0
163533,note_off,,,,,205,0,2,,,,1,49,0
163533,note_off,,,,,0,0,2,,,,1,56,0
163533,note_off,,,,,0,0,2,,,,1,61,0
163840,note_on,,,,,307,0,2,,,,1,56,36
163840,note_on,,,,,307,0,1,,,,0,65,49
163840,note_on,,,,,0,0,2,,,,1,60,36
163840,note_on,,,,,0,0,1,,,,0,68,49
164045,note_off,,,,,0,0,2,,,,1,60,0
164045,note_off,,,,,205,0,2,,,,1,56,0
164096,note_on,,,,,0,0,1,,,,0,62,49
164096,note_off,,,,,0,0,1,,,,0,68,0
164096,note_off,,,,,256,0,1,,,,0,65,0
164352,note_on,,,,,0,0,2,,,,1,60,36
164352,note_on,,,,,307,0,2,,,,1,56,36
164352,note_on,,,,,0,0,1,,,,0,66,61
164352,note_on,,,,,0,0,1,,,,0,63,61
164352,note_off,,,,,256,0,1,,,,0,62,0
165120,note_on,,,,,0,0,1,,,,0,75,49
165120,note_off,,,,,0,0,1,,,,0,66,0
165120,note_off,,,,,768,0,1,,,,0,63,0
165120,note_on,,,,,0,0,1,,,,0,66,49
165376,note_off,,,,,256,0,1,,,,0,66,0
165376,note_on,,,,,0,0,1,,,,0,68,49
165376,note_on,,,,,0,0,1,,,,0,77,49
165376,note_off,,,,,0,0,1,,,,0,75,0
165376,note_on,,,,,0,0,2,,,,1,60,36
165376,note_off,,,,,1024,0,2,,,,1,56,0
165376,note_off,,,,,0,0,2,,,,1,60,0
165376,note_on,,,,,0,0,2,,,,1,56,36
165581,note_off,,,,,205,0,2,,,,1,56,0
165581,note_off,,,,,0,0,2,,,,1,60,0
165632,note_on,,,,,0,0,1,,,,0,66,49
165632,note_off,,,,,256,0,1,,,,0,68,0
165632,note_off,,,,,0,0,1,,,,0,77,0
165632,note_on,,,,,0,0,1,,,,0,75,49
165888,note_on,,,,,0,0,2,,,,1,56,36
165888,note_on,,,,,307,0,2,,,,1,49,36
165888,note_off,,,,,256,0,1,,,,0,66,0
165888,note_on,,,,,0,0,1,,,,0,65,49
165888,note_on,,,,,0,0,2,,,,1,61,36
165888,note_on,,,,,0,0,1,,,,0,73,49
165888,note_off,,,,,0,0,1,,,,0,75,0
166093,note_off,,,,,205,0,2,,,,1,49,0
166093,note_off,,,,,0,0,2,,,,1,56,0
166093,note_off,,,,,0,0,2,,,,1,61,0
166144,note_off,,,,,256,0,1,,,,0,65,0
166144,note_off,,,,,0,0,1,,,,0,73,0
166144,note_on,,,,,0,0,1,,,,0,66,49
166144,note_on,,,,,0,0,1,,,,0,75,49
166400,note_on,,,,,307,0,2,,,,1,49,36
166400,note_on,,,,,0,0,2,,,,1,56,36
166400,note_off,,,,,0,0,1,,,,0,75,0
166400,note_on,,,,,0,0,1,,,,0,73,49
166400,note_on,,,,,0,0,1,,,,0,65,49
166400,note_off,,,,,256,0,1,,,,0,66,0
166400,note_on,,,,,0,0,2,,,,1,61,36
167014,note_off,,,,,0,0,2,,,,1,56,0
167014,note_off,,,,,0,0,2,,,,1,61,0
167014,note_off,,,,,614,0,2,,,,1,49,0
167936,note_on,,,,,922,0,2,,,,1,32,49
167936,note_on,,,,,0,0,1,,,,0,56,64
167936,note_off,,,,,0,0,1,,,,0,73,0
167936,note_off,,,,,1536,0,1,,,,0,65,0
167936,note_on,,,,,0,0,2,,,,1,44,49
168141,note_off,,,,,205,0,2,,,,1,32,0
168141,note_off,,,,,0,0,2,,,,1,44,0
168192,note_on,,,,,0,0,1,,,,0,60,64
168192,note_off,,,,,256,0,1,,,,0,56,0
168448,note_on,,,,,0,0,1,,,,0,52,80
168448,note_on,,,,,0,0,1,,,,0,61,80
168448,note_on,,,,,0,0,1,,,,0,56,80
168448,note_off,,,,,256,0,1,,,,0,60,0
168448,note_on,,,,,307,0,2,,,,1,37,49
168448,note_on,,,,,0,0,2,,,,1,44,49
169472,note_off,,,,,1024,0,2,,,,1,37,0
169472,note_off,,,,,0,0,1,,,,0,61,0
169472,note_off,,,,,0,0,1,,,,0,56,0
169472,note_off,,,,,1024,0,1,,,,0,52,0
169472,note_on,,,,,0,0,1,,,,0,60,64
169472,note_off,,,,,0,0,2,,,,1,44,0
169472,note_on,,,,,0,0,1,,,,0,56,64
169472,note_on,,,,,0,0,2,,,,1,44,49
169472,note_on,,,,,0,0,2,,,,1,32,49
169472,note_on,,,,,0,0,1,,,,0,51,64
169677,note_off,,,,,205,0,1,,,,0,51,0
169677,note_off,,,,,0,0,1,,,,0,56,0
169677,note_off,,,,,0,0,1,,,,0,60,0
169984,note_on,,,,,0,0,2,,,,1,44,49
169984,note_off,,,,,0,0,2,,,,1,44,0
169984,note_off,,,,,512,0,2,,,,1,32,0
169984,note_on,,,,,307,0,1,,,,0,56,64
169984,note_on,,,,,0,0,2,,,,1,32,49
170189,note_off,,,,,205,0,2,,,,1,32,0
170189,note_off,,,,,0,0,2,,,,1,44,0
170240,note_off,,,,,256,0,1,,,,0,56,0
170240,note_on,,,,,0,0,1,,,,0,60,64
170496,note_on,,,,,0,0,2,,,,1,44,49
170496,note_off,,,,,256,0,1,,,,0,60,0
170496,note_on,,,,,0,0,1,,,,0,56,80
170496,note_on,,,,,0,0,1,,,,0,61,80
170496,note_on,,,,,0,0,1,,,,0,64,80
170496,note_on,,,,,307,0,2,,,,1,37,49
171520,note_off,,,,,1024,0,1,,,,0,56,0
171520,note_off,,,,,0,0,1,,,,0,61,0
171520,note_off,,,,,0,0,1,,,,0,64,0
171520,note_on,,,,,0,0,1,,,,0,60,64
171520,note_on,,,,,0,0,1,,,,0,63,64
171520,note_on,,,,,0,0,2,,,,1,32,49
171520,note_off,,,,,0,0,2,,,,1,44,0
171520,note_off,,,,,1024,0,2,,,,1,37,0
171520,note_on,,,,,0,0,1,,,,0,56,64
171520,note_on,,,,,0,0,2,,,,1,44,49
171725,note_off,,,,,205,0,1,,,,0,56,0
171725,note_off,,,,,0,0,1,,,,0,60,0
171725,note_off,,,,,0,0,1,,,,0,63,0
172032,note_on,,,,,0,0,1,,,,0,63,64
172032,note_off,,,,,512,0,2,,,,1,32,0
172032,note_off,,,,,0,0,2,,,,1,44,0
172032,note_on,,,,,0,0,2,,,,1,32,49
172032,note_on,,,,,0,0,2,,,,1,44,49
172032,note_on,,,,,307,0,1,,,,0,60,64
172237,note_off,,,,,205,0,2,,,,1,32,0
172237,note_off,,,,,0,0,2,,,,1,44,0
172288,note_off,,,,,256,0,1,,,,0,60,0
172288,note_off,,,,,0,0,1,,,,0,63,0
172288,note_on,,,,,0,0,1,,,,0,69,63
172544,note_off,,,,,256,0,1,,,,0,69,0
172544,note_on,,,,,0,0,1,,,,0,61,78
172544,note_on,,,,,0,0,1,,,,0,64,78
172544,note_on,,,,,0,0,1,,,,0,68,78
172544,note_on,,,,,307,0,2,,,,1,37,47
172544,note_on,,,,,0,0,2,,,,1,44,47
173568,note_on,,,,,0,0,1,,,,0,60,58
173568,note_off,,,,,1024,0,1,,,,0,61,0
173568,note_off,,,,,1024,0,2,,,,1,37,0
173568,note_off,,,,,0,0,1,,,,0,68,0
173568,note_on,,,,,0,0,2,,,,1,32,43
173568,note_on,,,,,0,0,2,,,,1,44,43
173568,note_off,,,,,0,0,1,,,,0,64,0
173568,note_off,,,,,0,0,2,,,,1,44,0
173568,note_on,,,,,0,0,1,,,,0,68,58
173568,note_on,,,,,0,0,1,,,,0,63,58
173773,note_off,,,,,0,0,1,,,,0,63,0
173773,note_off,,,,,205,0,1,,,,0,60,0
173773,note_off,,,,,0,0,1,,,,0,68,0
174080,note_on,,,,,0,0,2,,,,1,47,41
174080,note_on,,,,,0,0,2,,,,1,42,41
174080,note_off,,,,,0,0,2,,,,1,44,0
174080,note_on,,,,,307,0,1,,,,0,59,56
174080,note_on,,,,,0,0,1,,,,0,63,56
174080,note_off,,,,,512,0,2,,,,1,32,0
174080,note_on,,,,,0,0,1,,,,0,69,56
174336,note_on,,,,,0,0,1,,,,0,71,55
174336,note_off,,,,,0,0,1,,,,0,69,0
174336,note_off,,,,,0,0,1,,,,0,63,0
174336,note_off,,,,,256,0,1,,,,0,59,0
174592,note_off,,,,,512,0,2,,,,1,42,0
174592,note_off,,,,,256,0,1,,,,0,71,0
174592,note_on,,,,,0,0,2,,,,1,40,39
174592,note_off,,,,,0,0,2,,,,1,47,0
174592,note_on,,,,,0,0,2,,,,1,47,39
174592,note_on,,,,,0,0,1,,,,0,60,54
174592,note_on,,,,,0,0,1,,,,0,64,54
174592,note_on,,,,,0,0,1,,,,0,68,54
176128,note_on,,,,,0,0,2,,,,1,64,49
176128,note_on,,,,,0,0,2,,,,1,59,49
176128,note_on,,,,,0,0,2,,,,1,52,49
176128,note_on,,,,,0,0,2,,,,1,40,49
176128,note_off,,,,,1536,0,2,,,,1,40,0
176128,note_off,,,,,1536,0,1,,,,0,60,0
176128,note_off,,,,,0,0,2,,,,1,47,0
176128,note_off,,,,,0,0,1,,,,0,68,0
176128,note_on,,,,,0,0,1,,,,0,68,64
176128,key_signature,,,,,24576,1,0,E,,,,,
176128,note_off,,,,,0,0,1,,,,0,64,0
176333,note_off,,,,,0,0,2,,,,1,59,0
176333,note_off,,,,,205,0,2,,,,1,40,0
176333,note_off,,,,,0,0,2,,,,1,52,0
176333,note_off,,,,,0,0,2,,,,1,64,0
176384,note_off,,,,,256,0,1,,,,0,68,0
176384,note_on,,,,,0,0,1,,,,0,69,65
176640,note_on,,,,,307,0,2,,,,1,35,50
176640,note_on,,,,,0,0,2,,,,1,47,50
176640,note_on,,,,,0,0,1,,,,0,59,65
176640,note_off,,,,,256,0,1,,,,0,69,0
176640,note_on,,,,,0,0,1,,,,0,66,65
176640,note_on,,,,,0,0,1,,,,0,63,65
177664,note_on,,,,,0,0,2,,,,1,52,52
177664,note_off,,,,,0,0,2,,,,1,47,0
177664,note_off,,,,,1024,0,2,,,,1,35,0
177664,note_off,,,,,1024,0,1,,,,0,59,0
177664,note_off,,,,,0,0,1,,,,0,63,0
177664,note_off,,,,,0,0,1,,,,0,66,0
177664,note_on,,,,,0,0,1,,,,0,59,67
177664,note_on,,,,,0,0,1,,,,0,64,67
177664,note_on,,,,,0,0,1,,,,0,68,67
177664,note_on,,,,,0,0,2,,,,1,40,52
178176,note_off,,,,,0,0,2,,,,1,52,0
178176,note_off,,,,,0,0,1,,,,0,64,0
178176,note_off,,,,,0,0,1,,,,0,68,0
178176,note_on,,,,,0,0,1,,,,0,68,68
178176,note_off,,,,,512,0,2,,,,1,40,0
178176,note_off,,,,,512,0,1,,,,0,59,0
178176,note_on,,,,,0,0,2,,,,1,64,53
178176,note_on,,,,,0,0,2,,,,1,59,53
178176,note_on,,,,,0,0,2,,,,1,52,53
178176,note_on,,,,,0,0,2,,,,1,40,53
178381,note_off,,,,,0,0,2,,,,1,64,0
178381,note_off,,,,,0,0,2,,,,1,59,0
178381,note_off,,,,,0,0,2,,,,1,52,0
178381,note_off,,,,,205,0,2,,,,1,40,0
178432,note_off,,,,,256,0,1,,,,0,68,0
178432,note_on,,,,,0,0,1,,,,0,69,68
178688,note_on,,,,,0,0,2,,,,1,47,54
178688,note_on,,,,,307,0,2,,,,1,35,54
178688,note_off,,,,,256,0,1,,,,0,69,0
178688,note_on,,,,,0,0,1,,,,0,63,69
178688,note_on,,,,,0,0,1,,,,0,66,69
178688,note_on,,,,,0,0,1,,,,0,59,69
179712,note_off,,,,,0,0,2,,,,1,47,0
179712,note_off,,,,,1024,0,1,,,,0,59,0
179712,note_off,,,,,0,0,1,,,,0,63,0
179712,note_off,,,,,0,0,1,,,,0,66,0
179712,note_on,,,,,0,0,1,,,,0,59,71
179712,note_on,,,,,0,0,2,,,,1,52,56
179712,note_on,,,,,0,0,1,,,,0,64,71
179712,note_on,,,,,0,0,2,,,,1,40,56
179712,note_on,,,,,0,0,1,,,,0,68,71
179712,note_off,,,,,1024,0,2,,,,1,35,0
180224,note_off,,,,,0,0,1,,,,0,64,0
180224,note_off,,,,,0,0,1,,,,0,68,0
180224,note_on,,,,,0,0,1,,,,0,66,72
180224,note_off,,,,,512,0,1,,,,0,59,0
180224,note_on,,,,,0,0,2,,,,1,35,57
180224,note_on,,,,,0,0,2,,,,1,47,57
180224,note_on,,,,,0,0,2,,,,1,59,57
180224,note_off,,,,,0,0,2,,,,1,52,0
180224,note_on,,,,,0,0,2,,,,1,63,57
180224,note_off,,,,,512,0,2,,,,1,40,0
180429,note_off,,,,,205,0,2,,,,1,35,0
180429,note_off,,,,,0,0,2,,,,1,47,0
180429,note_off,,,,,0,0,2,,,,1,59,0
180429,note_off,,,,,0,0,2,,,,1,63,0
180480,note_on,,,,,0,0,1,,,,0,68,72
180480,note_off,,,,,256,0,1,,,,0,66,0
180736,note_on,,,,,0,0,1,,,,0,64,73
180736,note_on,,,,,0,0,1,,,,0,61,73
180736,note_on,,,,,0,0,1,,,,0,56,73
180736,note_off,,,,,256,0,1,,,,0,68,0
180736,note_on,,,,,307,0,2,,,,1,37,58
180736,note_on,,,,,0,0,2,,,,1,49,58
181760,note_off,,,,,0,0,1,,,,0,61,0
181760,note_off,,,,,0,0,1,,,,0,64,0
181760,note_on,,,,,0,0,1,,,,0,57,75
181760,note_on,,,,,0,0,1,,,,0,61,75
181760,note_on,,,,,0,0,1,,,,0,66,75
181760,note_off,,,,,1024,0,2,,,,1,37,0
181760,note_off,,,,,0,0,2,,,,1,49,0
181760,note_on,,,,,0,0,2,,,,1,33,60
181760,note_on,,,,,0,0,2,,,,1,45,60
181760,note_off,,,,,1024,0,1,,,,0,56,0
182272,note_off,,,,,512,0,2,,,,1,33,0
182272,note_off,,,,,0,0,2,,,,1,45,0
182272,note_on,,,,,0,0,2,,,,1,35,61
182272,note_on,,,,,0,0,2,,,,1,47,61
182272,note_off,,,,,0,0,1,,,,0,66,0
182272,note_on,,,,,0,0,1,,,,0,63,76
182272,note_off,,,,,0,0,1,,,,0,61,0
182272,note_off,,,,,512,0,1,,,,0,57,0
182272,note_on,,,,,0,0,2,,,,1,57,61
182477,note_off,,,,,0,0,2,,,,1,47,0
182477,note_off,,,,,0,0,2,,,,1,57,0
182477,note_off,,,,,205,0,2,,,,1,35,0
182528,note_on,,,,,0,0,1,,,,0,66,77
182528,note_off,,,,,256,0,1,,,,0,63,0
182784,note_on,,,,,0,0,1,,,,0,56,77
182784,note_on,,,,,307,0,2,,,,1,40,62
182784,note_off,,,,,256,0,1,,,,0,66,0
182784,note_on,,,,,0,0,1,,,,0,64,77
182784,note_on,,,,,0,0,2,,,,1,47,62
183808,note_off,,,,,1024,0,1,,,,0,56,0
183808,note_off,,,,,0,0,1,,,,0,64,0
183808,note_on,,,,,0,0,1,,,,0,68,79
183808,note_on,,,,,0,0,1,,,,0,76,79
183808,note_off,,,,,1024,0,2,,,,1,40,0
183808,note_off,,,,,0,0,2,,,,1,47,0
183808,note_on,,,,,0,0,2,,,,1,59,64
184013,note_off,,,,,0,0,1,,,,0,76,0
184013,note_off,,,,,205,0,1,,,,0,68,0
184013,note_off,,,,,205,0,2,,,,1,59,0
184320,note_on,,,,,307,0,2,,,,1,59,65
184320,note_on,,,,,0,0,2,,,,1,69,65
184320,note_on,,,,,0,0,2,,,,1,63,65
184320,note_on,,,,,307,0,1,,,,0,77,80
184525,note_off,,,,,205,0,2,,,,1,59,0
184525,note_off,,,,,0,0,2,,,,1,63,0
184525,note_off,,,,,0,0,2,,,,1,69,0
184576,note_on,,,,,0,0,1,,,,0,80,81
184576,note_off,,,,,256,0,1,,,,0,77,0
184832,note_on,,,,,0,0,2,,,,1,69,66
184832,note_on,,,,,0,0,2,,,,1,63,66
184832,note_on,,,,,307,0,2,,,,1,59,66
184832,note_off,,,,,256,0,1,,,,0,80,0
184832,note_on,,,,,0,0,1,,,,0,78,81
185242,note_off,,,,,0,0,2,,,,1,69,0
185242,note_off,,,,,0,0,2,,,,1,63,0
185242,note_off,,,,,410,0,2,,,,1,59,0
185856,note_off,,,,,1024,0,1,,,,0,78,0
185856,note_on,,,,,0,0,1,,,,0,69,83
185856,note_on,,,,,0,0,2,,,,1,66,68
185856,note_on,,,,,614,0,2,,,,1,59,68
185856,note_on,,,,,0,0,2,,,,1,63,68
186061,note_off,,,,,205,0,1,,,,0,69,0
186061,note_off,,,,,0,0,2,,,,1,66,0
186061,note_off,,,,,0,0,2,,,,1,63,0
186061,note_off,,,,,205,0,2,,,,1,59,0
186368,note_on,,,,,0,0,1,,,,0,68,84
186368,note_on,,,,,307,0,1,,,,0,64,84
186368,note_on,,,,,0,0,2,,,,1,64,69
186368,note_on,,,,,307,0,2,,,,1,59,69
186573,note_off,,,,,0,0,2,,,,1,64,0
186573,note_off,,,,,205,0,2,,,,1,59,0
186624,note_off,,,,,0,0,1,,,,0,68,0
186624,note_on,,,,,0,0,1,,,,0,69,84
186624,note_off,,,,,256,0,1,,,,0,64,0
186624,note_on,,,,,0,0,1,,,,0,66,84
186880,note_on,,,,,0,0,1,,,,0,68,85
186880,note_off,,,,,0,0,1,,,,0,69,0
186880,note_off,,,,,256,0,1,,,,0,66,0
186880,note_on,,,,,307,0,2,,,,1,59,70
186880,note_on,,,,,0,0,2,,,,1,64,70
186880,note_on,,,,,0,0,1,,,,0,71,85
187290,note_off,,,,,0,0,2,,,,1,64,0
187290,note_off,,,,,410,0,2,,,,1,59,0
187904,note_on,,,,,614,0,2,,,,1,59,72
187904,note_on,,,,,0,0,1,,,,0,76,87
187904,note_off,,,,,1024,0,1,,,,0,68,0
187904,note_off,,,,,0,0,1,,,,0,71,0
187904,note_on,,,,,0,0,1,,,,0,68,87
187904,note_on,,,,,0,0,2,,,,1,64,72
188109,note_off,,,,,205,0,1,,,,0,68,0
188109,note_off,,,,,0,0,1,,,,0,76,0
188109,note_off,,,,,0,0,2,,,,1,64,0
188109,note_off,,,,,205,0,2,,,,1,59,0
188416,note_on,,,,,307,0,1,,,,0,77,88
188416,note_on,,,,,0,0,2,,,,1,69,73
188416,note_on,,,,,0,0,2,,,,1,63,73
188416,note_on,,,,,307,0,2,,,,1,59,73
188621,note_off,,,,,0,0,2,,,,1,69,0
188621,note_off,,,,,0,0,2,,,,1,63,0
188621,note_off,,,,,205,0,2,,,,1,59,0
188672,note_off,,,,,256,0,1,,,,0,77,0
188672,note_on,,,,,0,0,1,,,,0,80,88
188928,note_on,,,,,0,0,1,,,,0,69,89
188928,note_on,,,,,0,0,2,,,,1,63,74
188928,note_on,,,,,307,0,2,,,,1,59,74
188928,note_on,,,,,0,0,1,,,,0,78,89
188928,note_off,,,,,256,0,1,,,,0,80,0
188928,note_on,,,,,0,0,2,,,,1,69,74
189338,note_off,,,,,0,0,2,,,,1,69,0
189338,note_off,,,,,0,0,2,,,,1,63,0
189338,note_off,,,,,410,0,2,,,,1,59,0
189952,note_on,,,,,0,0,1,,,,0,75,91
189952,note_on,,,,,0,0,1,,,,0,69,91
189952,note_off,,,,,0,0,1,,,,0,78,0
189952,note_off,,,,,1024,0,1,,,,0,69,0
189952,note_on,,,,,614,0,2,,,,1,59,76
189952,note_on,,,,,0,0,2,,,,1,66,76
190157,note_off,,,,,205,0,1,,,,0,69,0
190157,note_off,,,,,0,0,2,,,,1,66,0
190157,note_off,,,,,205,0,2,,,,1,59,0
190157,note_off,,,,,0,0,1,,,,0,75,0
190464,note_on,,,,,0,0,1,,,,0,76,92
190464,note_on,,,,,0,0,2,,,,1,59,77
190464,note_on,,,,,307,0,2,,,,1,52,77
190464,note_on,,,,,0,0,2,,,,1,64,77
190464,note_on,,,,,307,0,1,,,,0,68,92
190669,note_off,,,,,205,0,2,,,,1,52,0
190669,note_off,,,,,0,0,2,,,,1,59,0
190669,note_off,,,,,0,0,2,,,,1,64,0
190720,note_on,,,,,0,0,1,,,,0,69,93
190720,note_off,,,,,256,0,1,,,,0,68,0
190720,note_on,,,,,0,0,1,,,,0,73,93
190720,note_off,,,,,0,0,1,,,,0,76,0
190976,note_on,,,,,0,0,1,,,,0,68,93
190976,note_off,,,,,0,0,1,,,,0,73,0
190976,note_off,,,,,256,0,1,,,,0,69,0
190976,note_on,,,,,0,0,1,,,,0,71,93
190976,note_on,,,,,0,0,2,,,,1,64,78
190976,note_on,,,,,0,0,2,,,,1,59,78
190976,note_on,,,,,307,0,2,,,,1,52,78
192000,note_on,,,,,0,0,2,,,,1,52,80
192000,note_on,,,,,0,0,2,,,,1,40,80
192000,note_off,,,,,0,0,2,,,,1,64,0
192000,note_off,,,,,0,0,2,,,,1,59,0
192000,note_off,,,,,1024,0,2,,,,1,52,0
192000,note_off,,,,,1024,0,1,,,,0,68,0
192000,note_off,,,,,0,0,1,,,,0,71,0
192000,note_on,,,,,0,0,1,,,,0,68,95
192000,note_on,,,,,0,0,1,,,,0,64,95
192000,note_on,,,,,0,0,1,,,,0,59,95
192205,note_off,,,,,0,0,2,,,,1,52,0
192205,note_off,,,,,205,0,2,,,,1,40,0
192512,note_on,,,,,0,0,2,,,,1,64,64
192512,note_on,,,,,0,0,2,,,,1,59,64
192512,note_on,,,,,0,0,2,,,,1,52,64
192512,note_on,,,,,307,0,2,,,,1,40,64
192512,note_off,,,,,0,0,1,,,,0,68,0
192512,note_off,,,,,0,0,1,,,,0,64,0
192512,note_on,,,,,0,0,1,,,,0,68,75
192512,note_off,,,,,512,0,1,,,,0,59,0
192717,note_off,,,,,0,0,2,,,,1,64,0
192717,note_off,,,,,0,0,2,,,,1,59,0
192717,note_off,,,,,205,0,2,,,,1,40,0
192717,note_off,,,,,0,0,2,,,,1,52,0
192768,note_off,,,,,256,0,1,,,,0,68,0
192768,note_on,,,,,0,0,1,,,,0,69,77
193024,note_on,,,,,0,0,1,,,,0,59,96
193024,note_on,,,,,0,0,1,,,,0,63,96
193024,note_on,,,,,0,0,1,,,,0,66,96
193024,note_on,,,,,307,0,2,,,,1,35,65
193024,note_on,,,,,0,0,2,,,,1,47,65
193024,note_off,,,,,256,0,1,,,,0,69,0
194048,note_off,,,,,1024,0,2,,,,1,35,0
194048,note_off,,,,,0,0,2,,,,1,47,0
194048,note_on,,,,,0,0,2,,,,1,52,67
194048,note_on,,,,,0,0,2,,,,1,40,67
194048,note_off,,,,,1024,0,1,,,,0,59,0
194048,note_off,,,,,0,0,1,,,,0,63,0
194048,note_off,,,,,0,0,1,,,,0,66,0
194048,note_on,,,,,0,0,1,,,,0,59,81
194048,note_on,,,,,0,0,1,,,,0,64,81
194048,note_on,,,,,0,0,1,,,,0,68,81
194560,note_on,,,,,0,0,2,,,,1,64,68
194560,note_on,,,,,0,0,2,,,,1,59,68
194560,note_on,,,,,0,0,2,,,,1,52,68
194560,note_on,,,,,0,0,2,,,,1,40,68
194560,note_off,,,,,0,0,2,,,,1,52,0
194560,note_off,,,,,512,0,1,,,,0,59,0
194560,note_off,,,,,0,0,1,,,,0,68,0
194560,note_off,,,,,0,0,1,,,,0,64,0
194560,note_off,,,,,512,0,2,,,,1,40,0
194560,note_on,,,,,0,0,1,,,,0,68,83
194765,note_off,,,,,0,0,2,,,,1,52,0
194765,note_off,,,,,205,0,2,,,,1,40,0
194765,note_off,,,,,0,0,2,,,,1,59,0
194765,note_off,,,,,0,0,2,,,,1,64,0
194816,note_off,,,,,256,0,1,,,,0,68,0
194816,note_on,,,,,0,0,1,,,,0,69,84
195072,note_on,,,,,307,0,2,,,,1,35,69
195072,note_on,,,,,0,0,1,,,,0,63,105
195072,note_on,,,,,0,0,1,,,,0,59,105
195072,note_off,,,,,256,0,1,,,,0,69,0
195072,note_on,,,,,0,0,1,,,,0,66,105
195072,note_on,,,,,0,0,2,,,,1,47,69
196096,note_off,,,,,1024,0,2,,,,1,35,0
196096,note_off,,,,,0,0,2,,,,1,47,0
196096,note_on,,,,,0,0,2,,,,1,40,71
196096,note_on,,,,,0,0,2,,,,1,52,71
196096,note_on,,,,,0,0,1,,,,0,59,90
196096,note_off,,,,,1024,0,1,,,,0,59,0
196096,note_off,,,,,0,0,1,,,,0,63,0
196096,note_off,,,,,0,0,1,,,,0,66,0
196096,note_on,,,,,0,0,1,,,,0,64,90
196096,note_on,,,,,0,0,1,,,,0,68,90
196608,note_off,,,,,0,0,1,,,,0,68,0
196608,note_off,,,,,512,0,1,,,,0,59,0
196608,note_off,,,,,512,0,2,,,,1,40,0
196608,note_off,,,,,0,0,2,,,,1,52,0
196608,note_on,,,,,0,0,2,,,,1,35,72
196608,note_on,,,,,0,0,2,,,,1,47,72
196608,note_on,,,,,0,0,2,,,,1,59,72
196608,note_on,,,,,0,0,2,,,,1,63,72
196608,note_on,,,,,0,0,1,,,,0,66,83
196608,note_off,,,,,0,0,1,,,,0,64,0
196864,note_on,,,,,0,0,1,,,,0,68,83
196864,note_off,,,,,256,0,1,,,,0,66,0
197120,note_on,,,,,0,0,2,,,,1,37,73
197120,note_off,,,,,0,0,2,,,,1,63,0
197120,note_off,,,,,0,0,2,,,,1,59,0
197120,note_off,,,,,0,0,2,,,,1,47,0
197120,note_off,,,,,512,0,2,,,,1,35,0
197120,note_off,,,,,256,0,1,,,,0,68,0
197120,note_on,,,,,0,0,1,,,,0,56,103
197120,note_on,,,,,0,0,1,,,,0,61,103
197120,note_on,,,,,0,0,1,,,,0,64,103
197120,note_on,,,,,0,0,2,,,,1,49,73
198144,note_on,,,,,0,0,2,,,,1,57,75
198144,note_on,,,,,0,0,2,,,,1,54,75
198144,note_on,,,,,0,0,1,,,,0,63,86
198144,note_off,,,,,0,0,1,,,,0,64,0
198144,note_off,,,,,0,0,1,,,,0,61,0
198144,note_off,,,,,1024,0,1,,,,0,56,0
198144,note_on,,,,,0,0,2,,,,1,42,75
198144,note_on,,,,,0,0,2,,,,1,30,75
198144,note_off,,,,,0,0,2,,,,1,49,0
198144,note_off,,,,,1024,0,2,,,,1,37,0
198400,note_on,,,,,0,0,1,,,,0,61,87
198400,note_off,,,,,256,0,1,,,,0,63,0
198656,note_on,,,,,0,0,2,,,,1,32,76
198656,note_off,,,,,0,0,2,,,,1,57,0
198656,note_off,,,,,0,0,2,,,,1,54,0
198656,note_off,,,,,0,0,2,,,,1,42,0
198656,note_off,,,,,512,0,2,,,,1,30,0
198656,note_off,,,,,256,0,1,,,,0,61,0
198656,note_on,,,,,0,0,2,,,,1,54,76
198656,note_on,,,,,0,0,1,,,,0,60,87
198656,note_on,,,,,0,0,2,,,,1,44,76
198912,note_on,,,,,0,0,1,,,,0,63,88
198912,note_off,,,,,256,0,1,,,,0,60,0
199168,note_off,,,,,512,0,2,,,,1,32,0
199168,note_off,,,,,0,0,2,,,,1,44,0
199168,note_off,,,,,0,0,2,,,,1,54,0
199168,note_on,,,,,0,0,2,,,,1,37,77
199168,note_on,,,,,0,0,2,,,,1,44,77
199168,note_on,,,,,0,0,1,,,,0,61,88
199168,note_off,,,,,256,0,1,,,,0,63,0
199168,note_on,,,,,0,0,1,,,,0,53,88
200192,note_on,,,,,0,0,1,,,,0,65,90
200192,note_off,,,,,0,0,1,,,,0,61,0
200192,note_off,,,,,1024,0,1,,,,0,53,0
200192,note_off,,,,,1024,0,2,,,,1,37,0
200192,note_off,,,,,0,0,2,,,,1,44,0
200192,note_on,,,,,0,0,2,,,,1,56,51
200192,note_on,,,,,0,0,2,,,,1,61,51
200192,note_on,,,,,0,0,1,,,,0,73,90
200704,note_on,,,,,0,0,2,,,,1,60,36
200704,note_off,,,,,512,0,2,,,,1,56,0
200704,note_off,,,,,0,0,2,,,,1,61,0
200704,note_on,,,,,0,0,2,,,,1,56,36
200704,note_on,,,,,0,0,2,,,,1,66,36
200704,note_off,,,,,0,0,1,,,,0,73,0
200704,note_off,,,,,512,0,1,,,,0,65,0
200704,note_on,,,,,0,0,1,,,,0,74,49
200909,note_off,,,,,205,0,2,,,,1,56,0
200909,note_off,,,,,0,0,2,,,,1,60,0
200909,note_off,,,,,0,0,2,,,,1,66,0
200960,note_off,,,,,256,0,1,,,,0,74,0
200960,note_on,,,,,0,0,1,,,,0,77,50
201216,note_on,,,,,0,0,1,,,,0,75,52
201216,note_off,,,,,256,0,1,,,,0,77,0
201216,note_on,,,,,307,0,2,,,,1,56,39
201216,note_on,,,,,0,0,2,,,,1,60,39
201216,note_on,,,,,0,0,2,,,,1,66,39
201626,note_off,,,,,410,0,2,,,,1,56,0
201626,note_off,,,,,0,0,2,,,,1,60,0
201626,note_off,,,,,0,0,2,,,,1,66,0
202240,note_on,,,,,614,0,2,,,,1,56,44
202240,note_on,,,,,0,0,2,,,,1,60,44
202240,note_on,,,,,0,0,2,,,,1,63,44
202240,note_off,,,,,1024,0,1,,,,0,75,0
202240,note_on,,,,,0,0,1,,,,0,66,57
202445,note_off,,,,,0,0,2,,,,1,63,0
202445,note_off,,,,,205,0,2,,,,1,56,0
202445,note_off,,,,,0,0,2,,,,1,60,0
202752,note_on,,,,,0,0,1,,,,0,65,60
202752,note_on,,,,,0,0,1,,,,0,61,60
202752,note_off,,,,,512,0,1,,,,0,66,0
202752,note_on,,,,,307,0,2,,,,1,56,47
202752,note_on,,,,,0,0,2,,,,1,61,47
202957,note_off,,,,,205,0,2,,,,1,56,0
202957,note_off,,,,,0,0,2,,,,1,61,0
203008,note_off,,,,,0,0,1,,,,0,65,0
203008,note_off,,,,,256,0,1,,,,0,61,0
203008,note_on,,,,,0,0,1,,,,0,66,61
203008,note_on,,,,,0,0,1,,,,0,63,61
203264,note_on,,,,,0,0,1,,,,0,68,62
203264,note_off,,,,,256,0,1,,,,0,63,0
203264,note_on,,,,,0,0,1,,,,0,65,62
203264,note_off,,,,,0,0,1,,,,0,66,0
203264,note_on,,,,,307,0,2,,,,1,56,49
203264,note_on,,,,,0,0,2,,,,1,61,49
203674,note_off,,,,,410,0,2,,,,1,56,0
203674,note_off,,,,,0,0,2,,,,1,61,0
204288,note_off,,,,,1024,0,1,,,,0,65,0
204288,note_off,,,,,0,0,1,,,,0,68,0
204288,note_on,,,,,0,0,1,,,,0,65,68
204288,note_on,,,,,0,0,1,,,,0,73,68
204288,note_on,,,,,0,0,2,,,,1,61,55
204288,note_on,,,,,614,0,2,,,,1,56,55
204493,note_off,,,,,0,0,2,,,,1,61,0
204493,note_off,,,,,205,0,2,,,,1,56,0
204800,note_on,,,,,0,0,2,,,,1,66,57
204800,note_on,,,,,0,0,2,,,,1,60,57
204800,note_on,,,,,307,0,2,,,,1,56,57
204800,note_off,,,,,0,0,1,,,,0,73,0
204800,note_on,,,,,0,0,1,,,,0,74,70
204800,note_off,,,,,512,0,1,,,,0,65,0
205005,note_off,,,,,205,0,2,,,,1,56,0
205005,note_off,,,,,0,0,2,,,,1,60,0
205005,note_off,,,,,0,0,2,,,,1,66,0
205056,note_on,,,,,0,0,1,,,,0,77,71
205056,note_off,,,,,256,0,1,,,,0,74,0
205312,note_on,,,,,0,0,2,,,,1,66,60
205312,note_on,,,,,0,0,1,,,,0,75,73
205312,note_off,,,,,256,0,1,,,,0,77,0
205312,note_on,,,,,0,0,2,,,,1,60,60
205312,note_on,,,,,307,0,2,,,,1,56,60
205722,note_off,,,,,410,0,2,,,,1,56,0
205722,note_off,,,,,0,0,2,,,,1,66,0
205722,note_off,,,,,0,0,2,,,,1,60,0
206336,note_on,,,,,614,0,2,,,,1,56,65
206336,note_off,,,,,1024,0,1,,,,0,75,0
206336,note_on,,,,,0,0,1,,,,0,71,78
206336,note_on,,,,,0,0,1,,,,0,77,78
206336,note_on,,,,,0,0,2,,,,1,62,65
206541,note_off,,,,,205,0,2,,,,1,56,0
206541,note_off,,,,,0,0,2,,,,1,62,0
206848,note_off,,,,,0,0,1,,,,0,77,0
206848,note_on,,,,,0,0,1,,,,0,77,81
206848,note_on,,,,,307,0,2,,,,1,56,68
206848,note_on,,,,,0,0,2,,,,1,63,68
206848,note_on,,,,,0,0,2,,,,1,72,68
206848,note_off,,,,,512,0,1,,,,0,71,0
207104,note_off,,,,,256,0,1,,,,0,77,0
207104,note_on,,,,,0,0,1,,,,0,80,77
207360,note_on,,,,,0,0,2,,,,1,56,60
207360,note_off,,,,,256,0,1,,,,0,80,0
207360,note_on,,,,,0,0,1,,,,0,72,73
207360,note_on,,,,,0,0,2,,,,1,63,60
207360,note_off,,,,,0,0,2,,,,1,72,0
207360,note_off,,,,,0,0,2,,,,1,63,0
207360,note_on,,,,,0,0,1,,,,0,78,73
207360,note_off,,,,,512,0,2,,,,1,56,0
208896,note_off,,,,,1536,0,2,,,,1,56,0
208896,note_off,,,,,0,0,2,,,,1,63,0
208896,note_on,,,,,0,0,2,,,,1,49,36
208896,note_off,,,,,1536,0,1,,,,0,72,0
208896,note_off,,,,,0,0,1,,,,0,78,0
208896,note_on,,,,,0,0,1,,,,0,65,49
208896,note_on,,,,,0,0,2,,,,1,56,36
208896,note_on,,,,,0,0,2,,,,1,61,36
209101,note_off,,,,,0,0,2,,,,1,61,0
209101,note_off,,,,,205,0,2,,,,1,49,0
209101,note_off,,,,,0,0,2,,,,1,56,0
209152,note_on,,,,,0,0,1,,,,0,68,49
209152,note_off,,,,,256,0,1,,,,0,65,0
209408,note_on,,,,,0,0,1,,,,0,70,61
209408,note_on,,,,,0,0,1,,,,0,66,61
209408,note_off,,,,,256,0,1,,,,0,68,0
209408,note_on,,,,,307,0,2,,,,1,49,36
209408,note_on,,,,,0,0,2,,,,1,61,36
209408,note_on,,,,,0,0,2,,,,1,56,36
209818,note_off,,,,,410,0,2,,,,1,49,0
209818,note_off,,,,,0,0,2,,,,1,56,0
209818,note_off,,,,,0,0,2,,,,1,61,0
210432,note_off,,,,,0,0,1,,,,0,70,0
210432,note_off,,,,,1024,0,1,,,,0,66,0
210432,note_on,,,,,0,0,1,,,,0,65,49
210432,note_on,,,,,0,0,1,,,,0,68,49
210432,note_on,,,,,0,0,2,,,,1,61,36
210432,note_on,,,,,0,0,2,,,,1,56,36
210432,note_on,,,,,614,0,2,,,,1,49,36
210637,note_off,,,,,0,0,2,,,,1,61,0
210637,note_off,,,,,0,0,1,,,,0,68,0
210637,note_off,,,,,205,0,1,,,,0,65,0
210637,note_off,,,,,205,0,2,,,,1,49,0
210637,note_off,,,,,0,0,2,,,,1,56,0
210944,note_on,,,,,307,0,2,,,,1,49,36
210944,note_on,,,,,0,0,2,,,,1,56,36
210944,note_on,,,,,0,0,2,,,,1,61,36
210944,note_on,,,,,307,0,1,,,,0,65,49
211149,note_off,,,,,0,0,2,,,,1,61,0
211149,note_off,,,,,0,0,2,,,,1,56,0
211149,note_off,,,,,205,0,2,,,,1,49,0
211200,note_on,,,,,0,0,1,,,,0,68,49
211200,note_off,,,,,256,0,1,,,,0,65,0
211456,note_off,,,,,256,0,1,,,,0,68,0
211456,note_on,,,,,0,0,1,,,,0,70,61
211456,note_on,,,,,0,0,1,,,,0,73,61
211456,note_on,,,,,0,0,2,,,,1,61,36
211456,note_on,,,,,0,0,2,,,,1,56,36
211456,note_on,,,,,307,0,2,,,,1,49,36
211456,note_on,,,,,0,0,1,,,,0,66,61
211866,note_off,,,,,0,0,2,,,,1,56,0
211866,note_off,,,,,0,0,2,,,,1,61,0
211866,note_off,,,,,410,0,2,,,,1,49,0
212480,note_on,,,,,0,0,1,,,,0,68,49
212480,note_off,,,,,0,0,1,,,,0,70,0
212480,note_off,,,,,0,0,1,,,,0,73,0
212480,note_on,,,,,0,0,1,,,,0,65,49
212480,note_on,,,,,614,0,2,,,,1,49,36
212480,note_on,,,,,0,0,2,,,,1,56,36
212480,note_on,,,,,0,0,2,,,,1,61,36
212480,note_off,,,,,1024,0,1,,,,0,66,0
212685,note_off,,,,,205,0,2,,,,1,49,0
212685,note_off,,,,,0,0,2,,,,1,56,0
212685,note_off,,,,,0,0,2,,,,1,61,0
212685,note_off,,,,,205,0,1,,,,0,65,0
212685,note_off,,,,,0,0,1,,,,0,68,0
212992,note_on,,,,,307,0,1,,,,0,65,49
212992,note_on,,,,,0,0,1,,,,0,68,49
212992,note_on,,,,,0,0,2,,,,1,60,36
212992,note_on,,,,,307,0,2,,,,1,56,36
213197,note_off,,,,,205,0,2,,,,1,56,0
213197,note_off,,,,,0,0,2,,,,1,60,0
213248,note_off,,,,,0,0,1,,,,0,68,0
213248,note_off,,,,,256,0,1,,,,0,65,0
213248,note_on,,,,,0,0,1,,,,0,62,49
213504,note_off,,,,,256,0,1,,,,0,62,0
213504,note_on,,,,,0,0,2,,,,1,60,36
213504,note_on,,,,,0,0,1,,,,0,66,61
213504,note_on,,,,,0,0,1,,,,0,63,61
213504,note_on,,,,,307,0,2,,,,1,56,36
213914,note_off,,,,,410,0,2,,,,1,56,0
213914,note_off,,,,,0,0,2,,,,1,60,0
214528,note_on,,,,,0,0,2,,,,1,60,36
214528,note_off,,,,,0,0,1,,,,0,66,0
214528,note_on,,,,,0,0,1,,,,0,66,49
214528,note_on,,,,,0,0,1,,,,0,75,49
214528,note_on,,,,,614,0,2,,,,1,56,36
214528,note_off,,,,,1024,0,1,,,,0,63,0
214733,note_off,,,,,205,0,1,,,,0,66,0
214733,note_off,,,,,0,0,1,,,,0,75,0
214733,note_off,,,,,205,0,2,,,,1,56,0
214733,note_off,,,,,0,0,2,,,,1,60,0
215040,note_on,,,,,307,0,1,,,,0,68,49
215040,note_on,,,,,0,0,1,,,,0,77,49
215040,note_on,,,,,0,0,2,,,,1,61,36
215040,note_on,,,,,0,0,2,,,,1,56,36
215040,note_on,,,,,307,0,2,,,,1,49,36
215245,note_off,,,,,205,0,2,,,,1,49,0
215245,note_off,,,,,0,0,2,,,,1,61,0
215245,note_off,,,,,0,0,2,,,,1,56,0
215296,note_on,,,,,0,0,1,,,,0,66,49
215296,note_on,,,,,0,0,1,,,,0,75,49
215296,note_off,,,,,256,0,1,,,,0,68,0
215296,note_off,,,,,0,0,1,,,,0,77,0
215552,note_on,,,,,307,0,2,,,,1,49,36
215552,note_on,,,,,0,0,2,,,,1,56,36
215552,note_on,,,,,0,0,2,,,,1,61,36
215552,note_off,,,,,256,0,1,,,,0,66,0
215552,note_off,,,,,0,0,1,,,,0,75,0
215552,note_on,,,,,0,0,1,,,,0,65,61
215552,note_on,,,,,0,0,1,,,,0,73,61
215962,note_off,,,,,410,0,2,,,,1,49,0
215962,note_off,,,,,0,0,2,,,,1,56,0
215962,note_off,,,,,0,0,2,,,,1,61,0
216576,note_off,,,,,1024,0,1,,,,0,65,0
216576,note_on,,,,,0,0,1,,,,0,65,49
216576,note_off,,,,,0,0,1,,,,0,73,0
216576,note_on,,,,,614,0,2,,,,1,49,36
216576,note_on,,,,,0,0,2,,,,1,56,36
216576,note_on,,,,,0,0,1,,,,0,68,49
216576,note_on,,,,,0,0,2,,,,1,61,36
216781,note_off,,,,,205,0,1,,,,0,65,0
216781,note_off,,,,,0,0,2,,,,1,56,0
216781,note_off,,,,,0,0,2,,,,1,61,0
216781,note_off,,,,,205,0,2,,,,1,49,0
216781,note_off,,,,,0,0,1,,,,0,68,0
217088,note_on,,,,,307,0,1,,,,0,65,49
217088,note_on,,,,,0,0,2,,,,1,56,36
217088,note_on,,,,,307,0,2,,,,1,49,36
217088,note_on,,,,,0,0,2,,,,1,61,36
217293,note_off,,,,,0,0,2,,,,1,61,0
217293,note_off,,,,,0,0,2,,,,1,56,0
217293,note_off,,,,,205,0,2,,,,1,49,0
217344,note_on,,,,,0,0,1,,,,0,68,49
217344,note_off,,,,,256,0,1,,,,0,65,0
217600,note_on,,,,,0,0,1,,,,0,66,61
217600,note_on,,,,,0,0,1,,,,0,70,61
217600,note_off,,,,,256,0,1,,,,0,68,0
217600,note_on,,,,,307,0,2,,,,1,49,36
217600,note_on,,,,,0,0,2,,,,1,56,36
217600,note_on,,,,,0,0,2,,,,1,61,36
218010,note_off,,,,,410,0,2,,,,1,49,0
218010,note_off,,,,,0,0,2,,,,1,61,0
218010,note_off,,,,,0,0,2,,,,1,56,0
218624,note_on,,,,,0,0,2,,,,1,61,36
218624,note_on,,,,,614,0,2,,,,1,49,36
218624,note_on,,,,,0,0,1,,,,0,68,49
218624,note_on,,,,,0,0,1,,,,0,65,49
218624,note_off,,,,,0,0,1,,,,0,70,0
218624,note_off,,,,,1024,0,1,,,,0,66,0
218624,note_on,,,,,0,0,2,,,,1,56,36
218829,note_off,,,,,0,0,1,,,,0,68,0
218829,note_off,,,,,205,0,1,,,,0,65,0
218829,note_off,,,,,205,0,2,,,,1,49,0
218829,note_off,,,,,0,0,2,,,,1,61,0
218829,note_off,,,,,0,0,2,,,,1,56,0
219136,note_on,,,,,307,0,2,,,,1,49,36
219136,note_on,,,,,0,0,2,,,,1,56,36
219136,note_on,,,,,0,0,2,,,,1,61,36
219136,note_on,,,,,307,0,1,,,,0,65,49
219341,note_off,,,,,205,0,2,,,,1,49,0
219341,note_off,,,,,0,0,2,,,,1,56,0
219341,note_off,,,,,0,0,2,,,,1,61,0
219392,note_off,,,,,256,0,1,,,,0,65,0
219392,note_on,,,,,0,0,1,,,,0,68,49
219648,note_on,,,,,0,0,2,,,,1,61,36
219648,note_on,,,,,0,0,2,,,,1,56,36
219648,note_on,,,,,0,0,1,,,,0,73,61
219648,note_on,,,,,0,0,1,,,,0,70,61
219648,note_on,,,,,0,0,1,,,,0,66,61
219648,note_off,,,,,256,0,1,,,,0,68,0
219648,note_on,,,,,307,0,2,,,,1,49,36
220058,note_off,,,,,0,0,2,,,,1,61,0
220058,note_off,,,,,0,0,2,,,,1,56,0
220058,note_off,,,,,410,0,2,,,,1,49,0
220672,note_on,,,,,0,0,2,,,,1,56,36
220672,note_on,,,,,0,0,2,,,,1,61,36
220672,note_on,,,,,0,0,1,,,,0,65,49
220672,note_off,,,,,0,0,1,,,,0,70,0
220672,note_off,,,,,0,0,1,,,,0,73,0
220672,note_on,,,,,614,0,2,,,,1,49,36
220672,note_on,,,,,0,0,1,,,,0,68,49
220672,note_off,,,,,1024,0,1,,,,0,66,0
220877,note_off,,,,,0,0,1,,,,0,68,0
220877,note_off,,,,,205,0,1,,,,0,65,0
220877,note_off,,,,,205,0,2,,,,1,49,0
220877,note_off,,,,,0,0,2,,,,1,56,0
220877,note_off,,,,,0,0,2,,,,1,61,0
221184,note_on,,,,,307,0,1,,,,0,65,49
221184,note_on,,,,,307,0,2,,,,1,56,36
221184,note_on,,,,,0,0,2,,,,1,60,36
221184,note_on,,,,,0,0,1,,,,0,68,49
221389,note_off,,,,,205,0,2,,,,1,56,0
221389,note_off,,,,,0,0,2,,,,1,60,0
221440,note_off,,,,,256,0,1,,,,0,65,0
221440,note_off,,,,,0,0,1,,,,0,68,0
221440,note_on,,,,,0,0,1,,,,0,62,49
221696,note_on,,,,,307,0,2,,,,1,56,36
221696,note_off,,,,,256,0,1,,,,0,62,0
221696,note_on,,,,,0,0,1,,,,0,66,61
221696,note_on,,,,,0,0,1,,,,0,63,61
221696,note_on,,,,,0,0,2,,,,1,60,36
222464,note_on,,,,,0,0,1,,,,0,66,49
222464,note_off,,,,,0,0,1,,,,0,66,0
222464,note_off,,,,,768,0,1,,,,0,63,0
222464,note_on,,,,,0,0,1,,,,0,75,49
222720,note_on,,,,,0,0,1,,,,0,77,49
222720,note_on,,,,,0,0,1,,,,0,68,49
222720,note_off,,,,,0,0,1,,,,0,75,0
222720,note_on,,,,,0,0,2,,,,1,60,36
222720,note_off,,,,,0,0,2,,,,1,60,0
222720,note_off,,,,,1024,0,2,,,,1,56,0
222720,note_off,,,,,256,0,1,,,,0,66,0
222720,note_on,,,,,0,0,2,,,,1,56,36
222925,note_off,,,,,0,0,2,,,,1,60,0
222925,note_off,,,,,205,0,2,,,,1,56,0
222976,note_on,,,,,0,0,1,,,,0,66,49
222976,note_off,,,,,256,0,1,,,,0,68,0
222976,note_on,,,,,0,0,1,,,,0,75,49
222976,note_off,,,,,0,0,1,,,,0,77,0
223232,note_off,,,,,256,0,1,,,,0,66,0
223232,note_on,,,,,0,0,2,,,,1,61,36
223232,note_on,,,,,0,0,2,,,,1,56,36
223232,note_off,,,,,0,0,1,,,,0,75,0
223232,note_on,,,,,0,0,1,,,,0,65,49
223232,note_on,,,,,0,0,1,,,,0,73,49
223232,note_on,,,,,307,0,2,,,,1,49,36
223437,note_off,,,,,205,0,2,,,,1,49,0
223437,note_off,,,,,0,0,2,,,,1,56,0
223437,note_off,,,,,0,0,2,,,,1,61,0
223488,note_off,,,,,0,0,1,,,,0,73,0
223488,note_off,,,,,256,0,1,,,,0,65,0
223488,note_on,,,,,0,0,1,,,,0,75,49
223488,note_on,,,,,0,0,1,,,,0,66,49
223744,note_off,,,,,256,0,1,,,,0,66,0
223744,note_off,,,,,0,0,1,,,,0,75,0
223744,note_on,,,,,0,0,1,,,,0,65,49
223744,note_on,,,,,0,0,1,,,,0,73,49
223744,note_on,,,,,307,0,2,,,,1,49,36
223744,note_on,,,,,0,0,2,,,,1,56,36
223744,note_on,,,,,0,0,2,,,,1,61,36
224358,note_off,,,,,0,0,2,,,,1,61,0
224358,note_off,,,,,0,0,2,,,,1,56,0
224358,note_off,,,,,614,0,2,,,,1,49,0
225280,note_on,,,,,922,0,2,,,,1,29,49
225280,note_on,,,,,0,0,2,,,,1,41,49
225280,note_off,,,,,0,0,1,,,,0,73,0
225280,note_on,,,,,0,0,1,,,,0,53,64
225280,note_off,,,,,1536,0,1,,,,0,65,0
225485,note_off,,,,,205,0,2,,,,1,29,0
225485,note_off,,,,,0,0,2,,,,1,41,0
225536,note_on,,,,,0,0,1,,,,0,57,65
225536,note_off,,,,,256,0,1,,,,0,53,0
225792,note_on,,,,,0,0,1,,,,0,49,83
225792,note_on,,,,,0,0,2,,,,1,41,64
225792,note_off,,,,,256,0,1,,,,0,57,0
225792,note_on,,,,,0,0,1,,,,0,58,83
225792,note_on,,,,,307,0,2,,,,1,34,64
225792,note_on,,,,,0,0,1,,,,0,53,83
226816,note_off,,,,,1024,0,2,,,,1,34,0
226816,note_off,,,,,0,0,2,,,,1,41,0
226816,note_off,,,,,1024,0,1,,,,0,49,0
226816,note_off,,,,,0,0,1,,,,0,53,0
226816,note_off,,,,,0,0,1,,,,0,58,0
226816,note_on,,,,,0,0,1,,,,0,48,72
226816,note_on,,,,,0,0,1,,,,0,53,72
226816,note_on,,,,,0,0,1,,,,0,57,72
226816,note_on,,,,,0,0,2,,,,1,29,57
226816,note_on,,,,,0,0,2,,,,1,41,57
227021,note_off,,,,,205,0,2,,,,1,29,0
227021,note_off,,,,,0,0,2,,,,1,41,0
227328,note_off,,,,,512,0,1,,,,0,48,0
227328,note_off,,,,,0,0,1,,,,0,53,0
227328,note_on,,,,,0,0,1,,,,0,53,75
227328,note_on,,,,,0,0,2,,,,1,41,60
227328,note_on,,,,,307,0,2,,,,1,29,60
227328,note_off,,,,,0,0,1,,,,0,57,0
227533,note_off,,,,,0,0,2,,,,1,41,0
227533,note_off,,,,,205,0,2,,,,1,29,0
227584,note_off,,,,,256,0,1,,,,0,53,0
227584,note_on,,,,,0,0,1,,,,0,57,76
227840,note_off,,,,,256,0,1,,,,0,57,0
227840,note_on,,,,,0,0,1,,,,0,53,93
227840,note_on,,,,,0,0,1,,,,0,58,93
227840,note_on,,,,,0,0,1,,,,0,61,93
227840,note_on,,,,,0,0,2,,,,1,41,74
227840,note_on,,,,,307,0,2,,,,1,34,74
228864,note_off,,,,,0,0,2,,,,1,41,0
228864,note_on,,,,,0,0,2,,,,1,29,68
228864,note_off,,,,,1024,0,1,,,,0,53,0
228864,note_off,,,,,0,0,1,,,,0,58,0
228864,note_off,,,,,0,0,1,,,,0,61,0
228864,note_on,,,,,0,0,1,,,,0,53,83
228864,note_on,,,,,0,0,1,,,,0,57,83
228864,note_on,,,,,0,0,1,,,,0,60,83
228864,note_off,,,,,1024,0,2,,,,1,34,0
228864,note_on,,,,,0,0,2,,,,1,41,68
229069,note_off,,,,,205,0,2,,,,1,29,0
229069,note_off,,,,,0,0,2,,,,1,41,0
229376,note_off,,,,,0,0,1,,,,0,57,0
229376,note_on,,,,,0,0,2,,,,1,57,70
229376,note_on,,,,,0,0,2,,,,1,41,70
229376,note_on,,,,,307,0,2,,,,1,29,70
229376,note_off,,,,,512,0,1,,,,0,53,0
229376,note_off,,,,,0,0,1,,,,0,60,0
229376,note_on,,,,,0,0,1,,,,0,60,85
229581,note_off,,,,,0,0,2,,,,1,57,0
229581,note_off,,,,,0,0,2,,,,1,41,0
229581,note_off,,,,,205,0,2,,,,1,29,0
229632,note_on,,,,,0,0,1,,,,0,66,86
229632,note_off,,,,,256,0,1,,,,0,60,0
229888,note_off,,,,,256,0,1,,,,0,66,0
229888,note_on,,,,,0,0,1,,,,0,61,88
229888,note_on,,,,,0,0,1,,,,0,58,88
229888,note_on,,,,,307,0,2,,,,1,34,85
229888,note_on,,,,,0,0,2,,,,1,41,85
229888,note_on,,,,,0,0,1,,,,0,65,88
230912,note_off,,,,,0,0,1,,,,0,65,0
230912,note_on,,,,,0,0,2,,,,1,41,78
230912,note_on,,,,,0,0,2,,,,1,29,78
230912,note_off,,,,,0,0,1,,,,0,61,0
230912,note_off,,,,,1024,0,2,,,,1,34,0
230912,note_off,,,,,1024,0,1,,,,0,58,0
230912,note_off,,,,,0,0,2,,,,1,41,0
230912,note_on,,,,,0,0,1,,,,0,57,93
230912,note_on,,,,,0,0,1,,,,0,60,93
230912,note_on,,,,,0,0,1,,,,0,65,93
231117,note_off,,,,,0,0,2,,,,1,41,0
231117,note_off,,,,,205,0,2,,,,1,29,0
231424,note_on,,,,,0,0,2,,,,1,60,36
231424,note_on,,,,,0,0,2,,,,1,56,36
231424,note_on,,,,,0,0,2,,,,1,44,36
231424,note_on,,,,,307,0,2,,,,1,39,36
231424,note_on,,,,,0,0,1,,,,0,66,49
231424,note_off,,,,,512,0,1,,,,0,57,0
231424,note_off,,,,,0,0,1,,,,0,60,0
231424,note_off,,,,,0,0,1,,,,0,65,0
231680,note_off,,,,,256,0,1,,,,0,66,0
231680,note_on,,,,,0,0,1,,,,0,68,49
231936,note_off,,,,,0,0,2,,,,1,44,0
231936,note_on,,,,,0,0,2,,,,1,37,36
231936,note_on,,,,,0,0,2,,,,1,44,36
231936,note_on,,,,,0,0,2,,,,1,56,36
231936,note_off,,,,,512,0,2,,,,1,39,0
231936,note_off,,,,,256,0,1,,,,0,68,0
231936,note_on,,,,,0,0,1,,,,0,56,49
231936,note_on,,,,,0,0,1,,,,0,61,49
231936,note_on,,,,,0,0,1,,,,0,65,49
231936,note_off,,,,,0,0,2,,,,1,60,0
231936,note_off,,,,,0,0,2,,,,1,56,0
232960,note_off,,,,,1024,0,1,,,,0,56,0
232960,note_off,,,,,1024,0,2,,,,1,37,0
232960,note_off,,,,,0,0,2,,,,1,44,0
232960,note_off,,,,,0,0,2,,,,1,56,0
232960,note_on,,,,,0,0,1,,,,0,68,49
232960,note_on,,,,,0,0,1,,,,0,64,49
232960,note_on,,,,,0,0,1,,,,0,59,49
232960,note_off,,,,,0,0,1,,,,0,65,0
232960,note_off,,,,,0,0,1,,,,0,61,0
232960,note_on,,,,,0,0,2,,,,1,40,36
232960,note_on,,,,,0,0,2,,,,1,52,36
233472,note_on,,,,,0,0,2,,,,1,52,49
233472,note_on,,,,,0,0,2,,,,1,40,49
233472,note_off,,,,,0,0,2,,,,1,52,0
233472,note_off,,,,,512,0,2,,,,1,40,0
233472,note_off,,,,,0,0,1,,,,0,64,0
233472,note_off,,,,,0,0,1,,,,0,68,0
233472,note_on,,,,,0,0,2,,,,1,59,49
233472,note_off,,,,,512,0,1,,,,0,59,0
233472,note_on,,,,,0,0,1,,,,0,68,64
233472,note_on,,,,,0,0,2,,,,1,64,49
233677,note_off,,,,,0,0,2,,,,1,59,0
233677,note_off,,,,,0,0,2,,,,1,52,0
233677,note_off,,,,,205,0,2,,,,1,40,0
233677,note_off,,,,,0,0,2,,,,1,64,0
233728,note_on,,,,,0,0,1,,,,0,69,65
233728,note_off,,,,,256,0,1,,,,0,68,0
233984,note_on,,,,,0,0,1,,,,0,66,65
233984,note_on,,,,,0,0,1,,,,0,59,65
233984,note_on,,,,,0,0,1,,,,0,63,65
233984,note_on,,,,,0,0,2,,,,1,47,50
233984,note_off,,,,,256,0,1,,,,0,69,0
233984,note_on,,,,,307,0,2,,,,1,35,50
235008,note_on,,,,,0,0,1,,,,0,64,67
235008,note_off,,,,,0,0,2,,,,1,47,0
235008,note_on,,,,,0,0,1,,,,0,68,67
235008,note_off,,,,,0,0,1,,,,0,66,0
235008,note_off,,,,,0,0,1,,,,0,63,0
235008,note_off,,,,,1024,0,2,,,,1,35,0
235008,note_off,,,,,1024,0,1,,,,0,59,0
235008,note_on,,,,,0,0,1,,,,0,59,67
235008,note_on,,,,,0,0,2,,,,1,52,52
235008,note_on,,,,,0,0,2,,,,1,40,52
235520,note_on,,,,,0,0,2,,,,1,52,53
235520,note_on,,,,,0,0,2,,,,1,59,53
235520,note_on,,,,,0,0,2,,,,1,64,53
235520,note_off,,,,,0,0,2,,,,1,52,0
235520,note_on,,,,,0,0,1,,,,0,68,68
235520,note_off,,,,,0,0,1,,,,0,68,0
235520,note_off,,,,,0,0,1,,,,0,64,0
235520,note_off,,,,,512,0,1,,,,0,59,0
235520,note_on,,,,,0,0,2,,,,1,40,53
235520,note_off,,,,,512,0,2,,,,1,40,0
235725,note_off,,,,,0,0,2,,,,1,52,0
235725,note_off,,,,,0,0,2,,,,1,59,0
235725,note_off,,,,,0,0,2,,,,1,64,0
235725,note_off,,,,,205,0,2,,,,1,40,0
235776,note_on,,,,,0,0,1,,,,0,69,68
235776,note_off,,,,,256,0,1,,,,0,68,0
236032,note_on,,,,,307,0,2,,,,1,35,54
236032,note_on,,,,,0,0,2,,,,1,47,54
236032,note_on,,,,,0,0,1,,,,0,66,69
236032,note_on,,,,,0,0,1,,,,0,63,69
236032,note_on,,,,,0,0,1,,,,0,59,69
236032,note_off,,,,,256,0,1,,,,0,69,0
237056,note_off,,,,,0,0,1,,,,0,66,0
237056,note_off,,,,,0,0,1,,,,0,63,0
237056,note_off,,,,,1024,0,1,,,,0,59,0
237056,note_on,,,,,0,0,1,,,,0,59,71
237056,note_on,,,,,0,0,1,,,,0,68,71
237056,note_on,,,,,0,0,2,,,,1,52,56
237056,note_on,,,,,0,0,1,,,,0,64,71
237056,note_on,,,,,0,0,2,,,,1,40,56
237056,note_off,,,,,0,0,2,,,,1,47,0
237056,note_off,,,,,1024,0,2,,,,1,35,0
237568,note_off,,,,,512,0,1,,,,0,59,0
237568,note_on,,,,,0,0,2,,,,1,63,57
237568,note_on,,,,,0,0,2,,,,1,59,57
237568,note_on,,,,,0,0,2,,,,1,47,57
237568,note_on,,,,,0,0,2,,,,1,35,57
237568,note_off,,,,,0,0,2,,,,1,52,0
237568,note_off,,,,,512,0,2,,,,1,40,0
237568,note_off,,,,,0,0,1,,,,0,64,0
237568,note_off,,,,,0,0,1,,,,0,68,0
237568,note_on,,,,,0,0,1,,,,0,66,72
237773,note_off,,,,,0,0,2,,,,1,63,0
237773,note_off,,,,,205,0,2,,,,1,35,0
237773,note_off,,,,,0,0,2,,,,1,47,0
237773,note_off,,,,,0,0,2,,,,1,59,0
237824,note_off,,,,,256,0,1,,,,0,66,0
237824,note_on,,,,,0,0,1,,,,0,68,72
238080,note_on,,,,,0,0,2,,,,1,49,58
238080,note_on,,,,,307,0,2,,,,1,37,58
238080,note_on,,,,,0,0,1,,,,0,64,73
238080,note_on,,,,,0,0,1,,,,0,61,73
238080,note_on,,,,,0,0,1,,,,0,56,73
238080,note_off,,,,,256,0,1,,,,0,68,0
239104,note_off,,,,,0,0,2,,,,1,49,0
239104,note_off,,,,,1024,0,2,,,,1,37,0
239104,note_on,,,,,0,0,1,,,,0,61,75
239104,note_on,,,,,0,0,2,,,,1,45,60
239104,note_off,,,,,1024,0,1,,,,0,56,0
239104,note_off,,,,,0,0,1,,,,0,61,0
239104,note_off,,,,,0,0,1,,,,0,64,0
239104,note_on,,,,,0,0,1,,,,0,66,75
239104,note_on,,,,,0,0,1,,,,0,57,75
239104,note_on,,,,,0,0,2,,,,1,33,60
239616,note_on,,,,,0,0,2,,,,1,57,61
239616,note_off,,,,,0,0,2,,,,1,45,0
239616,note_on,,,,,0,0,2,,,,1,35,61
239616,note_on,,,,,0,0,2,,,,1,47,61
239616,note_off,,,,,512,0,1,,,,0,57,0
239616,note_off,,,,,0,0,1,,,,0,61,0
239616,note_off,,,,,0,0,1,,,,0,66,0
239616,note_on,,,,,0,0,1,,,,0,63,76
239616,note_off,,,,,512,0,2,,,,1,33,0
239821,note_off,,,,,0,0,2,,,,1,47,0
239821,note_off,,,,,0,0,2,,,,1,57,0
239821,note_off,,,,,205,0,2,,,,1,35,0
239872,note_on,,,,,0,0,1,,,,0,66,77
239872,note_off,,,,,256,0,1,,,,0,63,0
240128,note_off,,,,,256,0,1,,,,0,66,0
240128,note_on,,,,,0,0,2,,,,1,47,62
240128,note_on,,,,,307,0,2,,,,1,40,62
240128,note_on,,,,,0,0,1,,,,0,64,77
240128,note_on,,,,,0,0,1,,,,0,56,77
241152,note_off,,,,,1024,0,1,,,,0,56,0
241152,note_on,,,,,0,0,1,,,,0,68,79
241152,note_off,,,,,1024,0,2,,,,1,40,0
241152,note_off,,,,,0,0,2,,,,1,47,0
241152,note_on,,,,,0,0,2,,,,1,59,64
241152,note_off,,,,,0,0,1,,,,0,64,0
241152,note_on,,,,,0,0,1,,,,0,76,79
241357,note_off,,,,,205,0,1,,,,0,68,0
241357,note_off,,,,,0,0,1,,,,0,76,0
241357,note_off,,,,,205,0,2,,,,1,59,0
241664,note_on,,,,,307,0,1,,,,0,77,80
241664,note_on,,,,,307,0,2,,,,1,59,65
241664,note_on,,,,,0,0,2,,,,1,63,65
241664,note_on,,,,,0,0,2,,,,1,69,65
241869,note_off,,,,,205,0,2,,,,1,59,0
241869,note_off,,,,,0,0,2,,,,1,69,0
241869,note_off,,,,,0,0,2,,,,1,63,0
241920,note_on,,,,,0,0,1,,,,0,80,81
241920,note_off,,,,,256,0,1,,,,0,77,0
242176,note_on,,,,,0,0,2,,,,1,69,66
242176,note_on,,,,,0,0,1,,,,0,78,81
242176,note_off,,,,,256,0,1,,,,0,80,0
242176,note_on,,,,,307,0,2,,,,1,59,66
242176,note_on,,,,,0,0,2,,,,1,63,66
242586,note_off,,,,,410,0,2,,,,1,59,0
242586,note_off,,,,,0,0,2,,,,1,63,0
242586,note_off,,,,,0,0,2,,,,1,69,0
243200,note_on,,,,,0,0,1,,,,0,69,83
243200,note_off,,,,,1024,0,1,,,,0,78,0
243200,note_on,,,,,614,0,2,,,,1,59,68
243200,note_on,,,,,0,0,2,,,,1,66,68
243200,note_on,,,,,0,0,2,,,,1,63,68
243405,note_off,,,,,0,0,2,,,,1,66,0
243405,note_off,,,,,0,0,2,,,,1,63,0
243405,note_off,,,,,205,0,2,,,,1,59,0
243405,note_off,,,,,205,0,1,,,,0,69,0
243712,note_on,,,,,0,0,2,,,,1,64,69
243712,note_on,,,,,307,0,2,,,,1,59,69
243712,note_on,,,,,307,0,1,,,,0,64,84
243712,note_on,,,,,0,0,1,,,,0,68,84
243917,note_off,,,,,205,0,2,,,,1,59,0
243917,note_off,,,,,0,0,2,,,,1,64,0
243968,note_on,,,,,0,0,1,,,,0,66,84
243968,note_off,,,,,0,0,1,,,,0,68,0
243968,note_on,,,,,0,0,1,,,,0,69,84
243968,note_off,,,,,256,0,1,,,,0,64,0
244224,note_on,,,,,307,0,2,,,,1,59,70
244224,note_on,,,,,0,0,1,,,,0,71,85
244224,note_on,,,,,0,0,1,,,,0,68,85
244224,note_off,,,,,0,0,1,,,,0,69,0
244224,note_off,,,,,256,0,1,,,,0,66,0
244224,note_on,,,,,0,0,2,,,,1,64,70
244634,note_off,,,,,0,0,2,,,,1,64,0
244634,note_off,,,,,410,0,2,,,,1,59,0
245248,note_off,,,,,1024,0,1,,,,0,68,0
245248,note_on,,,,,0,0,1,,,,0,76,87
245248,note_on,,,,,0,0,1,,,,0,68,87
245248,note_off,,,,,0,0,1,,,,0,71,0
245248,note_on,,,,,0,0,2,,,,1,64,72
245248,note_on,,,,,614,0,2,,,,1,59,72
245453,note_off,,,,,0,0,1,,,,0,76,0
245453,note_off,,,,,205,0,1,,,,0,68,0
245453,note_off,,,,,0,0,2,,,,1,64,0
245453,note_off,,,,,205,0,2,,,,1,59,0
245760,note_on,,,,,307,0,2,,,,1,59,73
245760,note_on,,,,,0,0,2,,,,1,69,73
245760,note_on,,,,,307,0,1,,,,0,77,88
245760,note_on,,,,,0,0,2,,,,1,63,73
245965,note_off,,,,,0,0,2,,,,1,69,0
245965,note_off,,,,,0,0,2,,,,1,63,0
245965,note_off,,,,,205,0,2,,,,1,59,0
246016,note_off,,,,,256,0,1,,,,0,77,0
246016,note_on,,,,,0,0,1,,,,0,80,88
246272,note_on,,,,,0,0,2,,,,1,69,74
246272,note_on,,,,,307,0,2,,,,1,59,74
246272,note_off,,,,,256,0,1,,,,0,80,0
246272,note_on,,,,,0,0,1,,,,0,69,89
246272,note_on,,,,,0,0,1,,,,0,78,89
246272,note_on,,,,,0,0,2,,,,1,63,74
246682,note_off,,,,,410,0,2,,,,1,59,0
246682,note_off,,,,,0,0,2,,,,1,69,0
246682,note_off,,,,,0,0,2,,,,1,63,0
247296,note_on,,,,,0,0,2,,,,1,66,76
247296,note_on,,,,,0,0,1,,,,0,75,91
247296,note_on,,,,,0,0,1,,,,0,69,91
247296,note_off,,,,,0,0,1,,,,0,78,0
247296,note_off,,,,,1024,0,1,,,,0,69,0
247296,note_on,,,,,614,0,2,,,,1,59,76
247501,note_off,,,,,0,0,1,,,,0,75,0
247501,note_off,,,,,205,0,1,,,,0,69,0
247501,note_off,,,,,205,0,2,,,,1,59,0
247501,note_off,,,,,0,0,2,,,,1,66,0
247808,note_on,,,,,0,0,1,,,,0,76,92
247808,note_on,,,,,307,0,1,,,,0,68,92
247808,note_on,,,,,0,0,2,,,,1,59,77
247808,note_on,,,,,307,0,2,,,,1,52,77
247808,note_on,,,,,0,0,2,,,,1,64,77
248013,note_off,,,,,205,0,2,,,,1,52,0
248013,note_off,,,,,0,0,2,,,,1,59,0
248013,note_off,,,,,0,0,2,,,,1,64,0
248064,note_on,,,,,0,0,1,,,,0,69,93
248064,note_off,,,,,0,0,1,,,,0,76,0
248064,note_off,,,,,256,0,1,,,,0,68,0
248064,note_on,,,,,0,0,1,,,,0,73,93
248320,note_off,,,,,0,0,1,,,,0,73,0
248320,note_off,,,,,256,0,1,,,,0,69,0
248320,note_on,,,,,0,0,1,,,,0,71,93
248320,note_on,,,,,0,0,2,,,,1,59,78
248320,note_on,,,,,307,0,2,,,,1,52,78
248320,note_on,,,,,0,0,2,,,,1,64,78
248320,note_on,,,,,0,0,1,,,,0,68,93
249344,note_off,,,,,1024,0,1,,,,0,68,0
249344,note_on,,,,,0,0,1,,,,0,59,95
249344,note_on,,,,,0,0,1,,,,0,64,95
249344,note_on,,,,,0,0,1,,,,0,68,95
249344,note_off,,,,,0,0,1,,,,0,71,0
249344,note_off,,,,,1024,0,2,,,,1,52,0
249344,note_off,,,,,0,0,2,,,,1,59,0
249344,note_off,,,,,0,0,2,,,,1,64,0
249344,note_on,,,,,0,0,2,,,,1,40,80
249344,note_on,,,,,0,0,2,,,,1,52,80
249549,note_off,,,,,205,0,2,,,,1,40,0
249549,note_off,,,,,0,0,2,,,,1,52,0
249856,note_on,,,,,0,0,2,,,,1,59,64
249856,note_off,,,,,512,0,1,,,,0,59,0
249856,note_off,,,,,0,0,1,,,,0,64,0
249856,note_off,,,,,0,0,1,,,,0,68,0
249856,note_on,,,,,0,0,2,,,,1,52,64
249856,note_on,,,,,0,0,1,,,,0,68,75
249856,note_on,,,,,0,0,2,,,,1,64,64
249856,note_on,,,,,307,0,2,,,,1,40,64
250061,note_off,,,,,205,0,2,,,,1,40,0
250061,note_off,,,,,0,0,2,,,,1,59,0
250061,note_off,,,,,0,0,2,,,,1,64,0
250061,note_off,,,,,0,0,2,,,,1,52,0
250112,note_off,,,,,256,0,1,,,,0,68,0
250112,note_on,,,,,0,0,1,,,,0,69,77
250368,note_on,,,,,0,0,1,,,,0,66,96
250368,note_on,,,,,0,0,1,,,,0,63,96
250368,note_on,,,,,0,0,1,,,,0,59,96
250368,note_on,,,,,0,0,2,,,,1,47,65
250368,note_on,,,,,307,0,2,,,,1,35,65
250368,note_off,,,,,256,0,1,,,,0,69,0
251392,note_off,,,,,0,0,2,,,,1,47,0
251392,note_on,,,,,0,0,2,,,,1,52,67
251392,note_on,,,,,0,0,2,,,,1,40,67
251392,note_off,,,,,1024,0,2,,,,1,35,0
251392,note_on,,,,,0,0,1,,,,0,59,81
251392,note_off,,,,,0,0,1,,,,0,63,0
251392,note_off,,,,,0,0,1,,,,0,66,0
251392,note_on,,,,,0,0,1,,,,0,64,81
251392,note_on,,,,,0,0,1,,,,0,68,81
251392,note_off,,,,,1024,0,1,,,,0,59,0
251904,note_on,,,,,0,0,1,,,,0,68,83
251904,note_off,,,,,0,0,1,,,,0,68,0
251904,note_off,,,,,0,0,1,,,,0,64,0
251904,note_off,,,,,512,0,1,,,,0,59,0
251904,note_on,,,,,0,0,2,,,,1,64,68
251904,note_off,,,,,512,0,2,,,,1,40,0
251904,note_off,,,,,0,0,2,,,,1,52,0
251904,note_on,,,,,0,0,2,,,,1,40,68
251904,note_on,,,,,0,0,2,,,,1,52,68
251904,note_on,,,,,0,0,2,,,,1,59,68
252109,note_off,,,,,0,0,2,,,,1,52,0
252109,note_off,,,,,205,0,2,,,,1,40,0
252109,note_off,,,,,0,0,2,,,,1,64,0
252109,note_off,,,,,0,0,2,,,,1,59,0
252160,note_on,,,,,0,0,1,,,,0,69,84
252160,note_off,,,,,256,0,1,,,,0,68,0
252416,note_on,,,,,307,0,2,,,,1,35,69
252416,note_on,,,,,0,0,2,,,,1,47,69
252416,note_on,,,,,0,0,1,,,,0,59,105
252416,note_off,,,,,256,0,1,,,,0,69,0
252416,note_on,,,,,0,0,1,,,,0,66,105
252416,note_on,,,,,0,0,1,,,,0,63,105
253440,note_on,,,,,0,0,1,,,,0,64,90
253440,note_on,,,,,0,0,2,,,,1,52,71
253440,note_on,,,,,0,0,2,,,,1,40,71
253440,note_off,,,,,0,0,2,,,,1,47,0
253440,note_on,,,,,0,0,1,,,,0,68,90
253440,note_off,,,,,1024,0,2,,,,1,35,0
253440,note_off,,,,,0,0,1,,,,0,63,0
253440,note_on,,,,,0,0,1,,,,0,59,90
253440,note_off,,,,,1024,0,1,,,,0,59,0
253440,note_off,,,,,0,0,1,,,,0,66,0
253952,note_on,,,,,0,0,2,,,,1,35,72
253952,note_off,,,,,512,0,2,,,,1,40,0
253952,note_on,,,,,0,0,2,,,,1,63,72
253952,note_on,,,,,0,0,2,,,,1,59,72
253952,note_on,,,,,0,0,2,,,,1,47,72
253952,note_off,,,,,0,0,2,,,,1,52,0
253952,note_off,,,,,0,0,1,,,,0,64,0
253952,note_on,,,,,0,0,1,,,,0,66,83
253952,note_off,,,,,512,0,1,,,,0,59,0
253952,note_off,,,,,0,0,1,,,,0,68,0
254208,note_off,,,,,256,0,1,,,,0,66,0
254208,note_on,,,,,0,0,1,,,,0,68,83
254464,note_off,,,,,512,0,2,,,,1,35,0
254464,note_off,,,,,0,0,2,,,,1,47,0
254464,note_off,,,,,0,0,2,,,,1,59,0
254464,note_off,,,,,0,0,2,,,,1,63,0
254464,note_on,,,,,0,0,2,,,,1,49,73
254464,note_off,,,,,256,0,1,,,,0,68,0
254464,note_on,,,,,0,0,1,,,,0,56,103
254464,note_on,,,,,0,0,1,,,,0,61,103
254464,note_on,,,,,0,0,1,,,,0,64,103
254464,note_on,,,,,0,0,2,,,,1,37,73
255488,note_on,,,,,0,0,2,,,,1,57,75
255488,note_on,,,,,0,0,2,,,,1,54,75
255488,note_on,,,,,0,0,2,,,,1,42,75
255488,note_off,,,,,0,0,1,,,,0,64,0
255488,note_off,,,,,1024,0,2,,,,1,37,0
255488,note_off,,,,,1024,0,1,,,,0,56,0
255488,note_off,,,,,0,0,1,,,,0,61,0
255488,note_off,,,,,0,0,2,,,,1,49,0
255488,note_on,,,,,0,0,2,,,,1,30,75
255488,note_on,,,,,0,0,1,,,,0,63,86
255744,note_on,,,,,0,0,1,,,,0,61,87
255744,note_off,,,,,256,0,1,,,,0,63,0
256000,note_off,,,,,256,0,1,,,,0,61,0
256000,note_on,,,,,0,0,2,,,,1,32,76
256000,note_on,,,,,0,0,1,,,,0,60,87
256000,note_off,,,,,512,0,2,,,,1,30,0
256000,note_off,,,,,0,0,2,,,,1,42,0
256000,note_off,,,,,0,0,2,,,,1,54,0
256000,note_off,,,,,0,0,2,,,,1,57,0
256000,note_on,,,,,0,0,2,,,,1,54,76
256000,note_on,,,,,0,0,2,,,,1,44,76
256256,note_off,,,,,256,0,1,,,,0,60,0
256256,note_on,,,,,0,0,1,,,,0,63,88
256512,note_off,,,,,256,0,1,,,,0,63,0
256512,note_on,,,,,0,0,1,,,,0,53,88
256512,note_on,,,,,0,0,1,,,,0,61,88
256512,note_off,,,,,512,0,2,,,,1,32,0
256512,note_off,,,,,0,0,2,,,,1,44,0
256512,note_off,,,,,0,0,2,,,,1,54,0
256512,note_on,,,,,0,0,2,,,,1,37,77
256512,note_on,,,,,0,0,2,,,,1,44,77
257536,note_off,,,,,1024,0,1,,,,0,53,0
257536,note_off,,,,,0,0,1,,,,0,61,0
257536,note_on,,,,,0,0,1,,,,0,65,90
257536,note_on,,,,,0,0,1,,,,0,73,90
257536,note_off,,,,,1024,0,2,,,,1,37,0
257536,note_off,,,,,0,0,2,,,,1,44,0
257536,note_on,,,,,0,0,2,,,,1,61,51
257536,note_on,,,,,0,0,2,,,,1,56,51
258048,note_off,,,,,512,0,2,,,,1,56,0
258048,note_off,,,,,0,0,2,,,,1,61,0
258048,note_on,,,,,0,0,2,,,,1,56,36
258048,note_on,,,,,0,0,2,,,,1,60,36
258048,note_on,,,,,0,0,2,,,,1,66,36
258048,note_off,,,,,512,0,1,,,,0,65,0
258048,note_off,,,,,0,0,1,,,,0,73,0
258048,note_on,,,,,0,0,1,,,,0,74,49
258253,note_off,,,,,0,0,2,,,,1,60,0
258253,note_off,,,,,205,0,2,,,,1,56,0
258253,note_off,,,,,0,0,2,,,,1,66,0
258304,note_off,,,,,256,0,1,,,,0,74,0
258304,note_on,,,,,0,0,1,,,,0,77,50
258560,note_off,,,,,256,0,1,,,,0,77,0
258560,note_on,,,,,0,0,1,,,,0,75,52
258560,note_on,,,,,0,0,2,,,,1,66,39
258560,note_on,,,,,0,0,2,,,,1,60,39
258560,note_on,,,,,307,0,2,,,,1,56,39
258970,note_off,,,,,0,0,2,,,,1,66,0
258970,note_off,,,,,0,0,2,,,,1,60,0
258970,note_off,,,,,410,0,2,,,,1,56,0
259584,note_on,,,,,614,0,2,,,,1,56,44
259584,note_on,,,,,0,0,2,,,,1,63,44
259584,note_on,,,,,0,0,2,,,,1,60,44
259584,note_off,,,,,1024,0,1,,,,0,75,0
259584,note_on,,,,,0,0,1,,,,0,66,57
259789,note_off,,,,,0,0,2,,,,1,63,0
259789,note_off,,,,,0,0,2,,,,1,60,0
259789,note_off,,,,,205,0,2,,,,1,56,0
260096,note_on,,,,,0,0,2,,,,1,61,47
260096,note_on,,,,,307,0,2,,,,1,56,47
260096,note_off,,,,,512,0,1,,,,0,66,0
260096,note_on,,,,,0,0,1,,,,0,65,60
260096,note_on,,,,,0,0,1,,,,0,61,60
260301,note_off,,,,,0,0,2,,,,1,61,0
260301,note_off,,,,,205,0,2,,,,1,56,0
260352,note_off,,,,,0,0,1,,,,0,65,0
260352,note_on,,,,,0,0,1,,,,0,66,61
260352,note_on,,,,,0,0,1,,,,0,63,61
260352,note_off,,,,,256,0,1,,,,0,61,0
260608,note_on,,,,,307,0,2,,,,1,56,49
260608,note_on,,,,,0,0,1,,,,0,68,62
260608,note_on,,,,,0,0,2,,,,1,61,49
260608,note_on,,,,,0,0,1,,,,0,65,62
260608,note_off,,,,,0,0,1,,,,0,66,0
260608,note_off,,,,,256,0,1,,,,0,63,0
261018,note_off,,,,,0,0,2,,,,1,61,0
261018,note_off,,,,,410,0,2,,,,1,56,0
261632,note_on,,,,,0,0,2,,,,1,61,55
261632,note_off,,,,,0,0,1,,,,0,68,0
261632,note_on,,,,,0,0,1,,,,0,65,68
261632,note_on,,,,,0,0,1,,,,0,73,68
261632,note_off,,,,,1024,0,1,,,,0,65,0
261632,note_on,,,,,614,0,2,,,,1,56,55
261837,note_off,,,,,0,0,2,,,,1,61,0
261837,note_off,,,,,205,0,2,,,,1,56,0
262144,note_on,,,,,0,0,2,,,,1,60,57
262144,note_on,,,,,307,0,2,,,,1,56,57
262144,note_on,,,,,0,0,2,,,,1,66,57
262144,note_off,,,,,0,0,1,,,,0,73,0
262144,note_on,,,,,0,0,1,,,,0,74,70
262144,note_off,,,,,512,0,1,,,,0,65,0
262349,note_off,,,,,0,0,2,,,,1,60,0
262349,note_off,,,,,205,0,2,,,,1,56,0
262349,note_off,,,,,0,0,2,,,,1,66,0
262400,note_on,,,,,0,0,1,,,,0,77,71
262400,note_off,,,,,256,0,1,,,,0,74,0
262656,note_on,,,,,0,0,2,,,,1,60,60
262656,note_on,,,,,0,0,1,,,,0,75,73
262656,note_on,,,,,307,0,2,,,,1,56,60
262656,note_on,,,,,0,0,2,,,,1,66,60
262656,note_off,,,,,256,0,1,,,,0,77,0
263066,note_off,,,,,0,0,2,,,,1,60,0
263066,note_off,,,,,410,0,2,,,,1,56,0
263066,note_off,,,,,0,0,2,,,,1,66,0
263680,note_on,,,,,614,0,2,,,,1,56,65
263680,note_on,,,,,0,0,2,,,,1,62,65
263680,note_on,,,,,0,0,1,,,,0,77,78
263680,note_on,,,,,0,0,1,,,,0,71,78
263680,note_off,,,,,1024,0,1,,,,0,75,0
263885,note_off,,,,,205,0,2,,,,1,56,0
263885,note_off,,,,,0,0,2,,,,1,62,0
264192,note_off,,,,,0,0,1,,,,0,77,0
264192,note_off,,,,,512,0,1,,,,0,71,0
264192,note_on,,,,,307,0,2,,,,1,56,68
264192,note_on,,,,,0,0,1,,,,0,77,81
264192,note_on,,,,,0,0,2,,,,1,63,68
264192,note_on,,,,,0,0,2,,,,1,72,68
264448,note_on,,,,,0,0,1,,,,0,80,77
264448,note_off,,,,,256,0,1,,,,0,77,0
264704,note_off,,,,,256,0,1,,,,0,80,0
264704,note_on,,,,,0,0,1,,,,0,78,73
264704,note_on,,,,,0,0,1,,,,0,72,73
264704,note_on,,,,,0,0,2,,,,1,63,60
264704,note_on,,,,,0,0,2,,,,1,56,60
264704,note_off,,,,,0,0,2,,,,1,72,0
264704,note_off,,,,,0,0,2,,,,1,63,0
264704,note_off,,,,,512,0,2,,,,1,56,0
266240,note_off,,,,,1536,0,1,,,,0,72,0
266240,note_off,,,,,0,0,1,,,,0,78,0
266240,note_off,,,,,1536,0,2,,,,1,56,0
266240,note_on,,,,,0,0,2,,,,1,61,36
266240,note_on,,,,,0,0,2,,,,1,56,36
266240,note_on,,,,,0,0,2,,,,1,49,36
266240,note_off,,,,,0,0,2,,,,1,63,0
266240,note_on,,,,,0,0,1,,,,0,65,49
266445,note_off,,,,,0,0,2,,,,1,61,0
266445,note_off,,,,,0,0,2,,,,1,56,0
266445,note_off,,,,,205,0,2,,,,1,49,0
266496,note_off,,,,,256,0,1,,,,0,65,0
266496,note_on,,,,,0,0,1,,,,0,68,49
266752,note_off,,,,,256,0,1,,,,0,68,0
266752,note_on,,,,,0,0,1,,,,0,66,61
266752,note_on,,,,,0,0,1,,,,0,70,61
266752,note_on,,,,,0,0,2,,,,1,61,36
266752,note_on,,,,,0,0,2,,,,1,56,36
266752,note_on,,,,,307,0,2,,,,1,49,36
267162,note_off,,,,,0,0,2,,,,1,56,0
267162,note_off,,,,,0,0,2,,,,1,61,0
267162,note_off,,,,,410,0,2,,,,1,49,0
267776,note_off,,,,,0,0,1,,,,0,70,0
267776,note_on,,,,,0,0,1,,,,0,65,49
267776,note_on,,,,,0,0,1,,,,0,68,49
267776,note_off,,,,,1024,0,1,,,,0,66,0
267776,note_on,,,,,0,0,2,,,,1,61,36
267776,note_on,,,,,0,0,2,,,,1,56,36
267776,note_on,,,,,614,0,2,,,,1,49,36
267981,note_off,,,,,0,0,2,,,,1,61,0
267981,note_off,,,,,0,0,1,,,,0,68,0
267981,note_off,,,,,205,0,1,,,,0,65,0
267981,note_off,,,,,0,0,2,,,,1,56,0
267981,note_off,,,,,205,0,2,,,,1,49,0
268288,note_on,,,,,0,0,2,,,,1,61,36
268288,note_on,,,,,0,0,2,,,,1,56,36
268288,note_on,,,,,307,0,2,,,,1,49,36
268288,note_on,,,,,307,0,1,,,,0,65,49
268493,note_off,,,,,0,0,2,,,,1,56,0
268493,note_off,,,,,205,0,2,,,,1,49,0
268493,note_off,,,,,0,0,2,,,,1,61,0
268544,note_off,,,,,256,0,1,,,,0,65,0
268544,note_on,,,,,0,0,1,,,,0,68,49
268800,note_on,,,,,0,0,1,,,,0,70,61
268800,note_on,,,,,0,0,1,,,,0,66,61
268800,note_on,,,,,0,0,1,,,,0,73,61
268800,note_on,,,,,0,0,2,,,,1,61,36
268800,note_on,,,,,307,0,2,,,,1,49,36
268800,note_off,,,,,256,0,1,,,,0,68,0
268800,note_on,,,,,0,0,2,,,,1,56,36
269210,note_off,,,,,410,0,2,,,,1,49,0
269210,note_off,,,,,0,0,2,,,,1,61,0
269210,note_off,,,,,0,0,2,,,,1,56,0
269824,note_on,,,,,0,0,1,,,,0,68,49
269824,note_on,,,,,0,0,1,,,,0,65,49
269824,note_off,,,,,0,0,1,,,,0,73,0
269824,note_off,,,,,1024,0,1,,,,0,66,0
269824,note_off,,,,,0,0,1,,,,0,70,0
269824,note_on,,,,,614,0,2,,,,1,49,36
269824,note_on,,,,,0,0,2,,,,1,56,36
269824,note_on,,,,,0,0,2,,,,1,61,36
270029,note_off,,,,,205,0,1,,,,0,65,0
270029,note_off,,,,,0,0,1,,,,0,68,0
270029,note_off,,,,,0,0,2,,,,1,61,0
270029,note_off,,,,,0,0,2,,,,1,56,0
270029,note_off,,,,,205,0,2,,,,1,49,0
270336,note_on,,,,,0,0,1,,,,0,68,49
270336,note_on,,,,,307,0,1,,,,0,65,49
270336,note_on,,,,,307,0,2,,,,1,56,36
270336,note_on,,,,,0,0,2,,,,1,60,36
270541,note_off,,,,,0,0,2,,,,1,60,0
270541,note_off,,,,,205,0,2,,,,1,56,0
270592,note_off,,,,,256,0,1,,,,0,65,0
270592,note_off,,,,,0,0,1,,,,0,68,0
270592,note_on,,,,,0,0,1,,,,0,62,49
270848,note_on,,,,,0,0,2,,,,1,60,36
270848,note_on,,,,,307,0,2,,,,1,56,36
270848,note_off,,,,,256,0,1,,,,0,62,0
270848,note_on,,,,,0,0,1,,,,0,63,61
270848,note_on,,,,,0,0,1,,,,0,66,61
271258,note_off,,,,,0,0,2,,,,1,60,0
271258,note_off,,,,,410,0,2,,,,1,56,0
271872,note_off,,,,,0,0,1,,,,0,66,0
271872,note_on,,,,,0,0,1,,,,0,66,49
271872,note_on,,,,,0,0,1,,,,0,75,49
271872,note_off,,,,,1024,0,1,,,,0,63,0
271872,note_on,,,,,614,0,2,,,,1,56,36
271872,note_on,,,,,0,0,2,,,,1,60,36
272077,note_off,,,,,205,0,1,,,,0,66,0
272077,note_off,,,,,205,0,2,,,,1,56,0
272077,note_off,,,,,0,0,2,,,,1,60,0
272077,note_off,,,,,0,0,1,,,,0,75,0
272384,note_on,,,,,0,0,2,,,,1,61,36
272384,note_on,,,,,0,0,2,,,,1,56,36
272384,note_on,,,,,307,0,1,,,,0,68,49
272384,note_on,,,,,0,0,1,,,,0,77,49
272384,note_on,,,,,307,0,2,,,,1,49,36
272589,note_off,,,,,205,0,2,,,,1,49,0
272589,note_off,,,,,0,0,2,,,,1,56,0
272589,note_off,,,,,0,0,2,,,,1,61,0
272640,note_off,,,,,256,0,1,,,,0,68,0
272640,note_on,,,,,0,0,1,,,,0,66,49
272640,note_on,,,,,0,0,1,,,,0,75,49
272640,note_off,,,,,0,0,1,,,,0,77,0
272896,note_on,,,,,0,0,1,,,,0,73,61
272896,note_on,,,,,0,0,1,,,,0,65,61
272896,note_on,,,,,307,0,2,,,,1,49,36
272896,note_on,,,,,0,0,2,,,,1,61,36
272896,note_on,,,,,0,0,2,,,,1,56,36
272896,note_off,,,,,0,0,1,,,,0,75,0
272896,note_off,,,,,256,0,1,,,,0,66,0
273306,note_off,,,,,0,0,2,,,,1,61,0
273306,note_off,,,,,410,0,2,,,,1,49,0
273306,note_off,,,,,0,0,2,,,,1,56,0
273920,note_on,,,,,614,0,2,,,,1,49,36
273920,note_on,,,,,0,0,2,,,,1,56,36
273920,note_on,,,,,0,0,2,,,,1,61,36
273920,note_on,,,,,0,0,1,,,,0,68,49
273920,note_on,,,,,0,0,1,,,,0,65,49
273920,note_off,,,,,0,0,1,,,,0,73,0
273920,note_off,,,,,1024,0,1,,,,0,65,0
274125,note_off,,,,,205,0,1,,,,0,65,0
274125,note_off,,,,,0,0,2,,,,1,61,0
274125,note_off,,,,,0,0,2,,,,1,56,0
274125,note_off,,,,,205,0,2,,,,1,49,0
274125,note_off,,,,,0,0,1,,,,0,68,0
274432,note_on,,,,,0,0,2,,,,1,56,36
274432,note_on,,,,,307,0,2,,,,1,49,36
274432,note_on,,,,,0,0,2,,,,1,61,36
274432,note_on,,,,,307,0,1,,,,0,65,49
274637,note_off,,,,,0,0,2,,,,1,61,0
274637,note_off,,,,,205,0,2,,,,1,49,0
274637,note_off,,,,,0,0,2,,,,1,56,0
274688,note_off,,,,,256,0,1,,,,0,65,0
274688,note_on,,,,,0,0,1,,,,0,68,49
274944,note_on,,,,,307,0,2,,,,1,49,36
274944,note_on,,,,,0,0,2,,,,1,56,36
274944,note_on,,,,,0,0,2,,,,1,61,36
274944,note_on,,,,,0,0,1,,,,0,66,61
274944,note_on,,,,,0,0,1,,,,0,70,61
274944,note_off,,,,,256,0,1,,,,0,68,0
275354,note_off,,,,,410,0,2,,,,1,49,0
275354,note_off,,,,,0,0,2,,,,1,56,0
275354,note_off,,,,,0,0,2,,,,1,61,0
275968,note_off,,,,,1024,0,1,,,,0,66,0
275968,note_off,,,,,0,0,1,,,,0,70,0
275968,note_on,,,,,614,0,2,,,,1,49,36
275968,note_on,,,,,0,0,2,,,,1,56,36
275968,note_on,,,,,0,0,2,,,,1,61,36
275968,note_on,,,,,0,0,1,,,,0,68,49
275968,note_on,,,,,0,0,1,,,,0,65,49
276173,note_off,,,,,205,0,2,,,,1,49,0
276173,note_off,,,,,205,0,1,,,,0,65,0
276173,note_off,,,,,0,0,1,,,,0,68,0
276173,note_off,,,,,0,0,2,,,,1,61,0
276173,note_off,,,,,0,0,2,,,,1,56,0
276480,note_on,,,,,0,0,2,,,,1,61,36
276480,note_on,,,,,307,0,2,,,,1,49,36
276480,note_on,,,,,0,0,2,,,,1,56,36
276480,note_on,,,,,307,0,1,,,,0,65,49
276685,note_off,,,,,205,0,2,,,,1,49,0
276685,note_off,,,,,0,0,2,,,,1,61,0
276685,note_off,,,,,0,0,2,,,,1,56,0
276736,note_on,,,,,0,0,1,,,,0,68,49
276736,note_off,,,,,256,0,1,,,,0,65,0
276992,note_on,,,,,0,0,2,,,,1,56,36
276992,note_on,,,,,0,0,1,,,,0,73,61
276992,note_on,,,,,0,0,1,,,,0,70,61
276992,note_on,,,,,0,0,1,,,,0,66,61
276992,note_off,,,,,256,0,1,,,,0,68,0
276992,note_on,,,,,307,0,2,,,,1,49,36
276992,note_on,,,,,0,0,2,,,,1,61,36
277402,note_off,,,,,0,0,2,,,,1,61,0
277402,note_off,,,,,0,0,2,,,,1,56,0
277402,note_off,,,,,410,0,2,,,,1,49,0
278016,note_on,,,,,0,0,2,,,,1,61,36
278016,note_on,,,,,614,0,2,,,,1,49,36
278016,note_off,,,,,1024,0,1,,,,0,66,0
278016,note_off,,,,,0,0,1,,,,0,70,0
278016,note_off,,,,,0,0,1,,,,0,73,0
278016,note_on,,,,,0,0,1,,,,0,65,49
278016,note_on,,,,,0,0,1,,,,0,68,49
278016,note_on,,,,,0,0,2,,,,1,56,36
278221,note_off,,,,,205,0,1,,,,0,65,0
278221,note_off,,,,,0,0,1,,,,0,68,0
278221,note_off,,,,,205,0,2,,,,1,49,0
278221,note_off,,,,,0,0,2,,,,1,56,0
278221,note_off,,,,,0,0,2,,,,1,61,0
278528,note_on,,,,,307,0,1,,,,0,65,49
278528,note_on,,,,,0,0,2,,,,1,60,36
278528,note_on,,,,,307,0,2,,,,1,56,36
278528,note_on,,,,,0,0,1,,,,0,68,49
278733,note_off,,,,,0,0,2,,,,1,60,0
278733,note_off,,,,,205,0,2,,,,1,56,0
278784,note_off,,,,,256,0,1,,,,0,65,0
278784,note_off,,,,,0,0,1,,,,0,68,0
278784,note_on,,,,,0,0,1,,,,0,62,49
279040,note_on,,,,,0,0,1,,,,0,63,61
279040,note_on,,,,,0,0,1,,,,0,66,61
279040,note_on,,,,,307,0,2,,,,1,56,36
279040,note_on,,,,,0,0,2,,,,1,60,36
279040,note_off,,,,,256,0,1,,,,0,62,0
279808,note_off,,,,,768,0,1,,,,0,63,0
279808,note_off,,,,,0,0,1,,,,0,66,0
279808,note_on,,,,,0,0,1,,,,0,66,49
279808,note_on,,,,,0,0,1,,,,0,75,49
280064,note_on,,,,,0,0,1,,,,0,68,49
280064,note_off,,,,,0,0,2,,,,1,60,0
280064,note_on,,,,,0,0,2,,,,1,56,36
280064,note_off,,,,,256,0,1,,,,0,66,0
280064,note_off,,,,,1024,0,2,,,,1,56,0
280064,note_on,,,,,0,0,1,,,,0,77,49
280064,note_on,,,,,0,0,2,,,,1,60,36
280064,note_off,,,,,0,0,1,,,,0,75,0
280269,note_off,,,,,205,0,2,,,,1,56,0
280269,note_off,,,,,0,0,2,,,,1,60,0
280320,note_off,,,,,256,0,1,,,,0,68,0
280320,note_off,,,,,0,0,1,,,,0,77,0
280320,note_on,,,,,0,0,1,,,,0,66,49
280320,note_on,,,,,0,0,1,,,,0,75,49
280576,note_off,,,,,256,0,1,,,,0,66,0
280576,note_off,,,,,0,0,1,,,,0,75,0
280576,note_on,,,,,0,0,2,,,,1,56,36
280576,note_on,,,,,0,0,1,,,,0,65,49
280576,note_on,,,,,0,0,2,,,,1,61,36
280576,note_on,,,,,307,0,2,,,,1,49,36
280576,note_on,,,,,0,0,1,,,,0,73,49
280781,note_off,,,,,205,0,2,,,,1,49,0
280781,note_off,,,,,0,0,2,,,,1,61,0
280781,note_off,,,,,0,0,2,,,,1,56,0
280832,note_off,,,,,0,0,1,,,,0,73,0
280832,note_on,,,,,0,0,1,,,,0,66,49
280832,note_on,,,,,0,0,1,,,,0,75,49
280832,note_off,,,,,256,0,1,,,,0,65,0
281088,note_off,,,,,256,0,1,,,,0,66,0
281088,note_off,,,,,0,0,1,,,,0,75,0
281088,note_on,,,,,0,0,1,,,,0,73,49
281088,note_on,,,,,307,0,2,,,,1,49,36
281088,note_on,,,,,0,0,2,,,,1,56,36
281088,note_on,,,,,0,0,2,,,,1,61,36
281088,note_on,,,,,0,0,1,,,,0,65,49
281702,note_off,,,,,0,0,2,,,,1,61,0
281702,note_off,,,,,614,0,2,,,,1,49,0
281702,note_off,,,,,0,0,2,,,,1,56,0
282624,note_off,,,,,0,0,1,,,,0,73,0
282624,note_on,,,,,0,0,1,,,,0,53,64
282624,note_on,,,,,922,0,2,,,,1,29,49
282624,note_on,,,,,0,0,2,,,,1,41,49
282624,note_off,,,,,1536,0,1,,,,0,65,0
282829,note_off,,,,,205,0,2,,,,1,29,0
282829,note_off,,,,,0,0,2,,,,1,41,0
282880,note_off,,,,,256,0,1,,,,0,53,0
282880,note_on,,,,,0,0,1,,,,0,57,65
283136,note_off,,,,,256,0,1,,,,0,57,0
283136,note_on,,,,,0,0,1,,,,0,49,83
283136,note_on,,,,,0,0,1,,,,0,53,83
283136,note_on,,,,,0,0,1,,,,0,58,83
283136,note_on,,,,,307,0,2,,,,1,34,64
283136,note_on,,,,,0,0,2,,,,1,41,64
284160,note_on,,,,,0,0,2,,,,1,41,57
284160,note_off,,,,,1024,0,2,,,,1,34,0
284160,note_off,,,,,0,0,2,,,,1,41,0
284160,note_on,,,,,0,0,2,,,,1,29,57
284160,note_off,,,,,1024,0,1,,,,0,49,0
284160,note_on,,,,,0,0,1,,,,0,57,72
284160,note_on,,,,,0,0,1,,,,0,53,72
284160,note_on,,,,,0,0,1,,,,0,48,72
284160,note_off,,,,,0,0,1,,,,0,58,0
284160,note_off,,,,,0,0,1,,,,0,53,0
284365,note_off,,,,,0,0,2,,,,1,41,0
284365,note_off,,,,,205,0,2,,,,1,29,0
284672,note_on,,,,,0,0,2,,,,1,41,60
284672,note_on,,,,,307,0,2,,,,1,29,60
284672,note_on,,,,,0,0,1,,,,0,53,75
284672,note_off,,,,,0,0,1,,,,0,57,0
284672,note_off,,,,,0,0,1,,,,0,53,0
284672,note_off,,,,,512,0,1,,,,0,48,0
284877,note_off,,,,,205,0,2,,,,1,29,0
284877,note_off,,,,,0,0,2,,,,1,41,0
284928,note_off,,,,,256,0,1,,,,0,53,0
284928,note_on,,,,,0,0,1,,,,0,57,76
285184,note_on,,,,,0,0,1,,,,0,61,93
285184,note_on,,,,,307,0,2,,,,1,34,74
285184,note_off,,,,,256,0,1,,,,0,57,0
285184,note_on,,,,,0,0,1,,,,0,53,93
285184,note_on,,,,,0,0,1,,,,0,58,93
285184,note_on,,,,,0,0,2,,,,1,41,74
286208,note_on,,,,,0,0,2,,,,1,41,68
286208,note_on,,,,,0,0,2,,,,1,29,68
286208,note_off,,,,,0,0,2,,,,1,41,0
286208,note_off,,,,,1024,0,2,,,,1,34,0
286208,note_off,,,,,1024,0,1,,,,0,53,0
286208,note_off,,,,,0,0,1,,,,0,58,0
286208,note_off,,,,,0,0,1,,,,0,61,0
286208,note_on,,,,,0,0,1,,,,0,57,83
286208,note_on,,,,,0,0,1,,,,0,60,83
286208,note_on,,,,,0,0,1,,,,0,53,83
286413,note_off,,,,,205,0,2,,,,1,29,0
286413,note_off,,,,,0,0,2,,,,1,41,0
286720,note_on,,,,,0,0,1,,,,0,60,85
286720,note_off,,,,,0,0,1,,,,0,60,0
286720,note_off,,,,,512,0,1,,,,0,53,0
286720,note_on,,,,,307,0,2,,,,1,29,70
286720,note_on,,,,,0,0,2,,,,1,41,70
286720,note_on,,,,,0,0,2,,,,1,57,70
286720,note_off,,,,,0,0,1,,,,0,57,0
286925,note_off,,,,,0,0,2,,,,1,41,0
286925,note_off,,,,,205,0,2,,,,1,29,0
286925,note_off,,,,,0,0,2,,,,1,57,0
286976,note_on,,,,,0,0,1,,,,0,66,86
286976,note_off,,,,,256,0,1,,,,0,60,0
287232,note_on,,,,,0,0,2,,,,1,41,85
287232,note_off,,,,,256,0,1,,,,0,66,0
287232,note_on,,,,,0,0,1,,,,0,58,88
287232,note_on,,,,,0,0,1,,,,0,61,88
287232,note_on,,,,,307,0,2,,,,1,34,85
287232,note_on,,,,,0,0,1,,,,0,65,88
288256,note_off,,,,,0,0,2,,,,1,41,0
288256,note_off,,,,,1024,0,1,,,,0,58,0
288256,note_off,,,,,0,0,1,,,,0,61,0
288256,note_off,,,,,0,0,1,,,,0,65,0
288256,note_on,,,,,0,0,1,,,,0,57,93
288256,note_on,,,,,0,0,1,,,,0,60,93
288256,note_on,,,,,0,0,2,,,,1,41,78
288256,note_on,,,,,0,0,2,,,,1,29,78
288256,note_off,,,,,1024,0,2,,,,1,34,0
288256,note_on,,,,,0,0,1,,,,0,65,93
288461,note_off,,,,,205,0,2,,,,1,29,0
288461,note_off,,,,,0,0,2,,,,1,41,0
288768,note_off,,,,,0,0,1,,,,0,60,0
288768,note_off,,,,,512,0,1,,,,0,57,0
288768,note_on,,,,,307,0,2,,,,1,39,36
288768,note_on,,,,,0,0,2,,,,1,44,36
288768,note_on,,,,,0,0,2,,,,1,56,36
288768,note_on,,,,,0,0,2,,,,1,60,36
288768,note_on,,,,,0,0,1,,,,0,66,49
288768,note_off,,,,,0,0,1,,,,0,65,0
289024,note_on,,,,,0,0,1,,,,0,68,49
289024,note_off,,,,,256,0,1,,,,0,66,0
289280,note_off,,,,,0,0,2,,,,1,56,0
289280,note_on,,,,,0,0,1,,,,0,65,49
289280,note_on,,,,,0,0,1,,,,0,61,49
289280,note_off,,,,,0,0,2,,,,1,60,0
289280,note_off,,,,,256,0,1,,,,0,68,0
289280,note_on,,,,,0,0,1,,,,0,56,49
289280,note_on,,,,,0,0,2,,,,1,56,36
289280,note_on,,,,,0,0,2,,,,1,44,36
289280,note_on,,,,,0,0,2,,,,1,37,36
289280,note_off,,,,,512,0,2,,,,1,39,0
289280,note_off,,,,,0,0,2,,,,1,44,0
290304,note_off,,,,,0,0,2,,,,1,56,0
290304,note_off,,,,,0,0,1,,,,0,65,0
290304,note_off,,,,,1024,0,1,,,,0,56,0
290304,note_off,,,,,0,0,1,,,,0,61,0
290304,note_off,,,,,1024,0,2,,,,1,37,0
290304,note_off,,,,,0,0,2,,,,1,44,0
292864,set_tempo,,,,,0,1,0,,535714,,,,
292864,key_signature,,,,,116736,1,0,C#m,,,,,
292864,set_tempo,,,,,0,1,0,,535714,,,,
294400,note_on,,,,,4096,0,1,,,,0,68,82
294912,note_on,,,,,4608,0,2,,,,1,49,89
294912,note_off,,,,,512,0,1,,,,0,68,0
294912,note_on,,,,,0,0,1,,,,0,64,104
295168,note_off,,,,,256,0,1,,,,0,64,0
295168,note_on,,,,,0,0,1,,,,0,61,106
295424,note_off,,,,,256,0,1,,,,0,61,0
295424,note_on,,,,,0,0,1,,,,0,64,106
295424,note_on,,,,,0,0,2,,,,1,56,91
295424,note_off,,,,,512,0,2,,,,1,49,0
295629,note_off,,,,,205,0,2,,,,1,56,0
295680,note_on,,,,,0,0,1,,,,0,68,108
295680,note_off,,,,,256,0,1,,,,0,64,0
295936,note_on,,,,,307,0,2,,,,1,49,94
295936,note_on,,,,,0,0,1,,,,0,64,109
295936,note_off,,,,,256,0,1,,,,0,68,0
296141,note_off,,,,,205,0,2,,,,1,49,0
296192,note_on,,,,,0,0,1,,,,0,61,110
296192,note_off,,,,,256,0,1,,,,0,64,0
296448,note_on,,,,,307,0,2,,,,1,57,96
296448,note_on,,,,,0,0,1,,,,0,64,111
296448,note_off,,,,,256,0,1,,,,0,61,0
296653,note_off,,,,,205,0,2,,,,1,57,0
296704,note_off,,,,,256,0,1,,,,0,64,0
296704,note_on,,,,,0,0,1,,,,0,69,112
296960,note_on,,,,,0,0,1,,,,0,63,113
296960,note_off,,,,,256,0,1,,,,0,69,0
296960,note_on,,,,,307,0,2,,,,1,48,98
297165,note_off,,,,,205,0,2,,,,1,48,0
297216,note_on,,,,,0,0,1,,,,0,60,116
297216,note_off,,,,,256,0,1,,,,0,63,0
297472,note_off,,,,,256,0,1,,,,0,60,0
297472,note_on,,,,,307,0,2,,,,1,57,101
297472,note_on,,,,,0,0,1,,,,0,63,116
297677,note_off,,,,,205,0,2,,,,1,57,0
297728,note_on,,,,,0,0,1,,,,0,69,118
297728,note_off,,,,,256,0,1,,,,0,63,0
297984,note_on,,,,,307,0,2,,,,1,48,104
297984,note_on,,,,,0,0,1,,,,0,63,119
297984,note_off,,,,,256,0,1,,,,0,69,0
298189,note_off,,,,,205,0,2,,,,1,48,0
298240,note_on,,,,,0,0,1,,,,0,60,120
298240,note_off,,,,,256,0,1,,,,0,63,0
298496,note_on,,,,,0,0,1,,,,0,63,121
298496,note_off,,,,,256,0,1,,,,0,60,0
298496,note_on,,,,,307,0,2,,,,1,56,106
298701,note_off,,,,,205,0,2,,,,1,56,0
298752,note_off,,,,,256,0,1,,,,0,63,0
298752,note_on,,,,,0,0,1,,,,0,68,122
299008,note_on,,,,,307,0,2,,,,1,49,109
299008,note_off,,,,,256,0,1,,,,0,68,0
299008,note_on,,,,,0,0,1,,,,0,68,124
299213,note_off,,,,,205,0,2,,,,1,49,0
299264,note_on,,,,,0,0,1,,,,0,64,125
299264,note_off,,,,,256,0,1,,,,0,68,0
299520,note_on,,,,,0,0,1,,,,0,68,127
299520,note_off,,,,,256,0,1,,,,0,64,0
299520,note_on,,,,,307,0,2,,,,1,56,112
299725,note_off,,,,,205,0,2,,,,1,56,0
299776,note_off,,,,,256,0,1,,,,0,68,0
299776,note_on,,,,,0,0,1,,,,0,76,127
300032,note_on,,,,,307,0,2,,,,1,52,115
300032,note_on,,,,,0,0,1,,,,0,68,127
300032,note_off,,,,,256,0,1,,,,0,76,0
300237,note_off,,,,,205,0,2,,,,1,52,0
300288,note_off,,,,,256,0,1,,,,0,68,0
300288,note_on,,,,,0,0,1,,,,0,64,127
300544,note_on,,,,,307,0,2,,,,1,56,117
300544,note_on,,,,,0,0,1,,,,0,68,127
300544,note_off,,,,,256,0,1,,,,0,64,0
300749,note_off,,,,,205,0,2,,,,1,56,0
300800,note_on,,,,,0,0,1,,,,0,73,127
300800,note_off,,,,,256,0,1,,,,0,68,0
301056,note_on,,,,,307,0,2,,,,1,51,120
301056,note_off,,,,,256,0,1,,,,0,73,0
301056,note_on,,,,,0,0,1,,,,0,69,127
301261,note_off,,,,,205,0,2,,,,1,51,0
301312,note_off,,,,,256,0,1,,,,0,69,0
301312,note_on,,,,,0,0,1,,,,0,68,127
301568,note_on,,,,,0,0,1,,,,0,66,127
301568,note_on,,,,,307,0,2,,,,1,57,122
301568,note_off,,,,,256,0,1,,,,0,68,0
301773,note_off,,,,,205,0,2,,,,1,57,0
301824,note_off,,,,,256,0,1,,,,0,66,0
301824,note_on,,,,,0,0,1,,,,0,73,127
302080,note_off,,,,,256,0,1,,,,0,73,0
302080,note_on,,,,,0,0,1,,,,0,72,127
302080,note_on,,,,,307,0,2,,,,1,51,125
302285,note_off,,,,,205,0,2,,,,1,51,0
302336,note_off,,,,,256,0,1,,,,0,72,0
302336,note_on,,,,,0,0,1,,,,0,66,127
302592,note_off,,,,,256,0,1,,,,0,66,0
302592,note_on,,,,,0,0,1,,,,0,68,127
302592,note_on,,,,,307,0,2,,,,1,56,127
302797,note_off,,,,,205,0,2,,,,1,56,0
302848,note_off,,,,,256,0,1,,,,0,68,0
302848,note_on,,,,,0,0,1,,,,0,72,127
303104,note_off,,,,,256,0,1,,,,0,72,0
303104,note_on,,,,,0,0,1,,,,0,73,127
303104,note_on,,,,,307,0,2,,,,1,49,127
303309,note_off,,,,,205,0,2,,,,1,49,0
303360,note_off,,,,,256,0,1,,,,0,73,0
303360,note_on,,,,,0,0,1,,,,0,64,127
303616,note_off,,,,,256,0,1,,,,0,64,0
303616,note_on,,,,,0,0,1,,,,0,68,127
303616,note_on,,,,,307,0,2,,,,1,61,127
303821,note_off,,,,,205,0,2,,,,1,61,0
303872,note_off,,,,,256,0,1,,,,0,68,0
303872,note_on,,,,,0,0,1,,,,0,73,127
304128,note_on,,,,,0,0,1,,,,0,76,127
304128,note_off,,,,,256,0,1,,,,0,73,0
304128,note_on,,,,,307,0,2,,,,1,49,127
304333,note_off,,,,,205,0,2,,,,1,49,0
304384,note_off,,,,,256,0,1,,,,0,76,0
304384,note_on,,,,,0,0,1,,,,0,68,127
304640,note_off,,,,,256,0,1,,,,0,68,0
304640,note_on,,,,,0,0,1,,,,0,76,127
304640,note_on,,,,,307,0,2,,,,1,59,127
304845,note_off,,,,,205,0,2,,,,1,59,0
304896,note_on,,,,,0,0,1,,,,0,80,127
304896,note_off,,,,,256,0,1,,,,0,76,0
305152,note_on,,,,,0,0,1,,,,0,76,127
305152,note_on,,,,,307,0,2,,,,1,54,127
305152,note_off,,,,,256,0,1,,,,0,80,0
305357,note_off,,,,,205,0,2,,,,1,54,0
305408,note_on,,,,,0,0,1,,,,0,68,127
305408,note_off,,,,,256,0,1,,,,0,76,0
305664,note_on,,,,,307,0,2,,,,1,57,127
305664,note_on,,,,,0,0,1,,,,0,76,127
305664,note_off,,,,,256,0,1,,,,0,68,0
305869,note_off,,,,,205,0,2,,,,1,57,0
305920,note_off,,,,,256,0,1,,,,0,76,0
305920,note_on,,,,,0,0,1,,,,0,80,127
306176,note_on,,,,,0,0,1,,,,0,74,127
306176,note_off,,,,,256,0,1,,,,0,80,0
306176,note_on,,,,,307,0,2,,,,1,54,127
306381,note_off,,,,,205,0,2,,,,1,54,0
306432,note_on,,,,,0,0,1,,,,0,78,127
306432,note_off,,,,,256,0,1,,,,0,74,0
306688,note_on,,,,,307,0,2,,,,1,57,127
306688,note_on,,,,,0,0,1,,,,0,73,127
306688,note_off,,,,,256,0,1,,,,0,78,0
306893,note_off,,,,,205,0,2,,,,1,57,0
306944,note_on,,,,,0,0,1,,,,0,76,127
306944,note_off,,,,,256,0,1,,,,0,73,0
307200,note_off,,,,,256,0,1,,,,0,76,0
307200,note_on,,,,,0,0,1,,,,0,72,127
307200,note_on,,,,,307,0,2,,,,1,45,122
307405,note_off,,,,,205,0,2,,,,1,45,0
307456,note_off,,,,,256,0,1,,,,0,72,0
307456,note_on,,,,,0,0,1,,,,0,75,127
307712,note_on,,,,,0,0,1,,,,0,73,127
307712,note_on,,,,,307,0,2,,,,1,54,117
307712,note_off,,,,,256,0,1,,,,0,75,0
307917,note_off,,,,,205,0,2,,,,1,54,0
307968,note_on,,,,,0,0,1,,,,0,76,127
307968,note_off,,,,,256,0,1,,,,0,73,0
308224,note_on,,,,,307,0,2,,,,1,44,110
308224,note_off,,,,,256,0,1,,,,0,76,0
308224,note_on,,,,,0,0,1,,,,0,75,125
308429,note_off,,,,,205,0,2,,,,1,44,0
308480,note_off,,,,,256,0,1,,,,0,75,0
308480,note_on,,,,,0,0,1,,,,0,78,123
308736,note_on,,,,,307,0,2,,,,1,56,106
308736,note_on,,,,,0,0,1,,,,0,72,121
308736,note_off,,,,,256,0,1,,,,0,78,0
308941,note_off,,,,,205,0,2,,,,1,56,0
308992,note_on,,,,,0,0,1,,,,0,75,119
308992,note_off,,,,,256,0,1,,,,0,72,0
309248,note_on,,,,,0,0,1,,,,0,76,117
309248,note_on,,,,,307,0,2,,,,1,49,102
309248,note_off,,,,,256,0,1,,,,0,75,0
309453,note_off,,,,,205,0,2,,,,1,49,0
309504,note_on,,,,,0,0,1,,,,0,73,114
309504,note_off,,,,,256,0,1,,,,0,76,0
309760,note_on,,,,,307,0,2,,,,1,51,97
309760,note_off,,,,,256,0,1,,,,0,73,0
309760,note_on,,,,,0,0,1,,,,0,71,112
309965,note_off,,,,,205,0,2,,,,1,51,0
310016,note_on,,,,,0,0,1,,,,0,69,110
310016,note_off,,,,,256,0,1,,,,0,71,0
310272,note_on,,,,,307,0,2,,,,1,52,93
310272,note_on,,,,,0,0,1,,,,0,68,108
310272,note_off,,,,,256,0,1,,,,0,69,0
310477,note_off,,,,,205,0,2,,,,1,52,0
310528,note_on,,,,,0,0,1,,,,0,66,106
310528,note_off,,,,,256,0,1,,,,0,68,0
310784,note_on,,,,,0,0,1,,,,0,64,104
310784,note_off,,,,,256,0,1,,,,0,66,0
310784,note_on,,,,,307,0,2,,,,1,56,89
310989,note_off,,,,,205,0,2,,,,1,56,0
311040,note_off,,,,,256,0,1,,,,0,64,0
311040,note_on,,,,,0,0,1,,,,0,63,102
311296,note_off,,,,,256,0,1,,,,0,63,0
311296,note_on,,,,,0,0,1,,,,0,64,64
311296,note_on,,,,,307,0,2,,,,1,49,49
311501,note_off,,,,,205,0,2,,,,1,49,0
311552,note_on,,,,,0,0,1,,,,0,61,66
311552,note_off,,,,,256,0,1,,,,0,64,0
311808,note_off,,,,,256,0,1,,,,0,61,0
311808,note_on,,,,,0,0,1,,,,0,64,67
311808,note_on,,,,,307,0,2,,,,1,56,52
312013,note_off,,,,,205,0,2,,,,1,56,0
312064,note_on,,,,,0,0,1,,,,0,68,68
312064,note_off,,,,,256,0,1,,,,0,64,0
312320,note_off,,,,,256,0,1,,,,0,68,0
312320,note_on,,,,,0,0,1,,,,0,64,69
312320,note_on,,,,,307,0,2,,,,1,49,54
312525,note_off,,,,,205,0,2,,,,1,49,0
312576,note_off,,,,,256,0,1,,,,0,64,0
312576,note_on,,,,,0,0,1,,,,0,61,70
312832,note_off,,,,,256,0,1,,,,0,61,0
312832,note_on,,,,,0,0,1,,,,0,64,72
312832,note_on,,,,,307,0,2,,,,1,57,57
313037,note_off,,,,,205,0,2,,,,1,57,0
313088,note_off,,,,,256,0,1,,,,0,64,0
313088,note_on,,,,,0,0,1,,,,0,69,73
313344,note_on,,,,,307,0,2,,,,1,47,59
313344,note_off,,,,,256,0,1,,,,0,69,0
313344,note_on,,,,,0,0,1,,,,0,63,74
313549,note_off,,,,,205,0,2,,,,1,47,0
313600,note_off,,,,,256,0,1,,,,0,63,0
313600,note_on,,,,,0,0,1,,,,0,59,75
313856,note_on,,,,,307,0,2,,,,1,57,62
313856,note_on,,,,,0,0,1,,,,0,63,77
313856,note_off,,,,,256,0,1,,,,0,59,0
314061,note_off,,,,,205,0,2,,,,1,57,0
314112,note_off,,,,,256,0,1,,,,0,63,0
314112,note_on,,,,,0,0,1,,,,0,69,78
314368,note_on,,,,,307,0,2,,,,1,47,64
314368,note_off,,,,,256,0,1,,,,0,69,0
314368,note_on,,,,,0,0,1,,,,0,63,79
314573,note_off,,,,,205,0,2,,,,1,47,0
314624,note_on,,,,,0,0,1,,,,0,59,80
314624,note_off,,,,,256,0,1,,,,0,63,0
314880,note_off,,,,,256,0,1,,,,0,59,0
314880,note_on,,,,,307,0,2,,,,1,56,68
314880,note_on,,,,,0,0,1,,,,0,63,83
315085,note_off,,,,,205,0,2,,,,1,56,0
315136,note_off,,,,,256,0,1,,,,0,63,0
315136,note_on,,,,,0,0,1,,,,0,68,83
315392,note_off,,,,,256,0,1,,,,0,68,0
315392,note_on,,,,,0,0,1,,,,0,68,84
315392,note_on,,,,,307,0,2,,,,1,52,69
315597,note_off,,,,,205,0,2,,,,1,52,0
315648,note_off,,,,,256,0,1,,,,0,68,0
315648,note_on,,,,,0,0,1,,,,0,61,86
315904,note_on,,,,,307,0,2,,,,1,56,72
315904,note_off,,,,,256,0,1,,,,0,61,0
315904,note_on,,,,,0,0,1,,,,0,68,87
316109,note_off,,,,,205,0,2,,,,1,56,0
316160,note_off,,,,,256,0,1,,,,0,68,0
316160,note_on,,,,,0,0,1,,,,0,73,89
316416,note_off,,,,,256,0,1,,,,0,73,0
316416,note_on,,,,,307,0,2,,,,1,45,75
316416,note_on,,,,,0,0,1,,,,0,66,90
316621,note_off,,,,,205,0,2,,,,1,45,0
316672,note_on,,,,,0,0,1,,,,0,63,91
316672,note_off,,,,,256,0,1,,,,0,66,0
316928,note_on,,,,,307,0,2,,,,1,57,78
316928,note_off,,,,,256,0,1,,,,0,63,0
316928,note_on,,,,,0,0,1,,,,0,66,93
317133,note_off,,,,,205,0,2,,,,1,57,0
317184,note_off,,,,,256,0,1,,,,0,66,0
317184,note_on,,,,,0,0,1,,,,0,73,94
317440,note_off,,,,,256,0,1,,,,0,73,0
317440,note_on,,,,,0,0,1,,,,0,68,96
317440,note_on,,,,,307,0,2,,,,1,44,81
317645,note_off,,,,,205,0,2,,,,1,44,0
317696,note_off,,,,,256,0,1,,,,0,68,0
317696,note_on,,,,,0,0,1,,,,0,64,97
317952,note_on,,,,,0,0,1,,,,0,68,98
317952,note_on,,,,,307,0,2,,,,1,59,83
317952,note_off,,,,,256,0,1,,,,0,64,0
318157,note_off,,,,,205,0,2,,,,1,59,0
318208,note_on,,,,,0,0,1,,,,0,73,101
318208,note_off,,,,,256,0,1,,,,0,68,0
318464,note_on,,,,,307,0,2,,,,1,56,88
318464,note_off,,,,,256,0,1,,,,0,73,0
318464,note_on,,,,,0,0,1,,,,0,68,103
318669,note_off,,,,,205,0,2,,,,1,56,0
318720,note_on,,,,,0,0,1,,,,0,64,103
318720,note_off,,,,,256,0,1,,,,0,68,0
318976,note_on,,,,,307,0,2,,,,1,59,90
318976,note_off,,,,,256,0,1,,,,0,64,0
318976,note_on,,,,,0,0,1,,,,0,68,105
319181,note_off,,,,,205,0,2,,,,1,59,0
319232,note_off,,,,,256,0,1,,,,0,68,0
319232,note_on,,,,,0,0,1,,,,0,71,106
319488,note_on,,,,,307,0,2,,,,1,49,93
319488,note_off,,,,,256,0,1,,,,0,71,0
319488,note_on,,,,,0,0,1,,,,0,67,108
319693,note_off,,,,,205,0,2,,,,1,49,0
319744,note_off,,,,,256,0,1,,,,0,67,0
319744,note_on,,,,,0,0,1,,,,0,64,109
320000,note_on,,,,,307,0,2,,,,1,52,95
320000,note_off,,,,,256,0,1,,,,0,64,0
320000,note_on,,,,,0,0,1,,,,0,67,110
320205,note_off,,,,,205,0,2,,,,1,52,0
320256,note_on,,,,,0,0,1,,,,0,70,112
320256,note_off,,,,,256,0,1,,,,0,67,0
320512,note_on,,,,,0,0,1,,,,0,76,115
320512,note_off,,,,,256,0,1,,,,0,70,0
320512,note_on,,,,,307,0,2,,,,1,48,100
320717,note_off,,,,,205,0,2,,,,1,48,0
320768,note_on,,,,,0,0,1,,,,0,70,115
320768,note_off,,,,,256,0,1,,,,0,76,0
321024,note_on,,,,,0,0,1,,,,0,76,117
321024,note_on,,,,,307,0,2,,,,1,58,102
321024,note_off,,,,,256,0,1,,,,0,70,0
321229,note_off,,,,,205,0,2,,,,1,58,0
321280,note_off,,,,,256,0,1,,,,0,76,0
321280,note_on,,,,,0,0,1,,,,0,79,118
321536,note_on,,,,,307,0,2,,,,1,47,105
321536,note_on,,,,,0,0,1,,,,0,75,120
321536,note_off,,,,,256,0,1,,,,0,79,0
321741,note_off,,,,,205,0,2,,,,1,47,0
321792,note_on,,,,,0,0,1,,,,0,79,117
321792,note_off,,,,,256,0,1,,,,0,75,0
322048,note_on,,,,,0,0,1,,,,0,75,115
322048,note_off,,,,,256,0,1,,,,0,79,0
322048,note_on,,,,,307,0,2,,,,1,59,100
322253,note_off,,,,,205,0,2,,,,1,59,0
322304,note_off,,,,,256,0,1,,,,0,75,0
322304,note_on,,,,,0,0,1,,,,0,78,112
322560,note_on,,,,,307,0,2,,,,1,48,94
322560,note_off,,,,,256,0,1,,,,0,78,0
322560,note_on,,,,,0,0,1,,,,0,69,109
322765,note_off,,,,,205,0,2,,,,1,48,0
322816,note_on,,,,,0,0,1,,,,0,76,108
322816,note_off,,,,,256,0,1,,,,0,69,0
323072,note_off,,,,,256,0,1,,,,0,76,0
323072,note_on,,,,,0,0,1,,,,0,69,104
323072,note_on,,,,,307,0,2,,,,1,54,89
323277,note_off,,,,,205,0,2,,,,1,54,0
323328,note_off,,,,,256,0,1,,,,0,69,0
323328,note_on,,,,,0,0,1,,,,0,75,103
323584,note_on,,,,,0,0,1,,,,0,69,100
323584,note_off,,,,,256,0,1,,,,0,75,0
323584,note_on,,,,,307,0,2,,,,1,49,85
323789,note_off,,,,,205,0,2,,,,1,49,0
323840,note_off,,,,,256,0,1,,,,0,69,0
323840,note_on,,,,,0,0,1,,,,0,78,97
324096,note_on,,,,,0,0,1,,,,0,68,95
324096,note_on,,,,,307,0,2,,,,1,52,80
324096,note_off,,,,,256,0,1,,,,0,78,0
324301,note_off,,,,,205,0,2,,,,1,52,0
324352,note_on,,,,,0,0,1,,,,0,76,93
324352,note_off,,,,,256,0,1,,,,0,68,0
324608,note_off,,,,,256,0,1,,,,0,76,0
324608,note_on,,,,,0,0,1,,,,0,64,90
324608,note_on,,,,,307,0,2,,,,1,45,75
324813,note_off,,,,,205,0,2,,,,1,45,0
324864,note_off,,,,,256,0,1,,,,0,64,0
324864,note_on,,,,,0,0,1,,,,0,73,87
325120,note_on,,,,,0,0,1,,,,0,61,85
325120,note_off,,,,,256,0,1,,,,0,73,0
325120,note_on,,,,,307,0,2,,,,1,54,70
325325,note_off,,,,,205,0,2,,,,1,54,0
325376,note_on,,,,,0,0,1,,,,0,69,83
325376,note_off,,,,,256,0,1,,,,0,61,0
325632,note_off,,,,,256,0,1,,,,0,69,0
325632,note_on,,,,,0,0,1,,,,0,59,81
325632,note_on,,,,,307,0,2,,,,1,47,66
325837,note_off,,,,,205,0,2,,,,1,47,0
325888,note_on,,,,,0,0,1,,,,0,68,78
325888,note_off,,,,,256,0,1,,,,0,59,0
326144,note_off,,,,,256,0,1,,,,0,68,0
326144,note_on,,,,,0,0,1,,,,0,64,76
326144,note_on,,,,,307,0,2,,,,1,56,61
326349,note_off,,,,,205,0,2,,,,1,56,0
326400,note_on,,,,,0,0,1,,,,0,71,74
326400,note_off,,,,,256,0,1,,,,0,64,0
326656,note_on,,,,,0,0,1,,,,0,59,72
326656,note_off,,,,,256,0,1,,,,0,71,0
326656,note_on,,,,,307,0,2,,,,1,47,57
326861,note_off,,,,,205,0,2,,,,1,47,0
326912,note_on,,,,,0,0,1,,,,0,69,70
326912,note_off,,,,,256,0,1,,,,0,59,0
327168,note_on,,,,,307,0,2,,,,1,57,53
327168,note_off,,,,,256,0,1,,,,0,69,0
327168,note_on,,,,,0,0,1,,,,0,63,68
327373,note_off,,,,,205,0,2,,,,1,57,0
327424,note_on,,,,,0,0,1,,,,0,71,66
327424,note_off,,,,,256,0,1,,,,0,63,0
327680,note_on,,,,,0,0,1,,,,0,69,64
327680,note_on,,,,,0,0,1,,,,0,69,64
327680,note_off,,,,,256,0,1,,,,0,71,0
327680,note_on,,,,,307,0,2,,,,1,47,49
327936,note_on,,,,,0,0,1,,,,0,63,66
327936,note_off,,,,,256,0,1,,,,0,69,0
328192,note_on,,,,,0,0,1,,,,0,59,68
328192,note_off,,,,,512,0,2,,,,1,47,0
328192,note_off,,,,,256,0,1,,,,0,63,0
328192,note_on,,,,,0,0,2,,,,1,54,53
328397,note_off,,,,,205,0,2,,,,1,54,0
328448,note_on,,,,,0,0,1,,,,0,69,70
328448,note_off,,,,,0,0,1,,,,0,69,0
328448,note_off,,,,,256,0,1,,,,0,59,0
328448,note_on,,,,,0,0,1,,,,0,69,64
328704,note_on,,,,,307,0,2,,,,1,52,57
328704,note_off,,,,,256,0,1,,,,0,69,0
328704,note_on,,,,,0,0,1,,,,0,68,72
328704,note_off,,,,,0,0,1,,,,0,69,0
328909,note_off,,,,,205,0,2,,,,1,52,0
328960,note_off,,,,,256,0,1,,,,0,68,0
328960,note_on,,,,,0,0,1,,,,0,64,74
329216,note_on,,,,,307,0,2,,,,1,54,61
329216,note_on,,,,,0,0,1,,,,0,68,76
329216,note_off,,,,,256,0,1,,,,0,64,0
329421,note_off,,,,,205,0,2,,,,1,54,0
329472,note_on,,,,,0,0,1,,,,0,69,78
329472,note_off,,,,,256,0,1,,,,0,68,0
329728,note_on,,,,,0,0,1,,,,0,71,80
329728,note_on,,,,,307,0,2,,,,1,56,65
329728,note_off,,,,,256,0,1,,,,0,69,0
329933,note_off,,,,,205,0,2,,,,1,56,0
329984,note_on,,,,,0,0,1,,,,0,68,82
329984,note_off,,,,,256,0,1,,,,0,71,0
330240,note_on,,,,,0,0,1,,,,0,71,84
330240,note_off,,,,,256,0,1,,,,0,68,0
330240,note_on,,,,,307,0,2,,,,1,59,69
330445,note_off,,,,,205,0,2,,,,1,59,0
330496,note_on,,,,,0,0,1,,,,0,80,86
330496,note_off,,,,,256,0,1,,,,0,71,0
330752,note_off,,,,,256,0,1,,,,0,80,0
330752,note_on,,,,,307,0,2,,,,1,56,73
330752,note_on,,,,,0,0,1,,,,0,71,88
330957,note_off,,,,,205,0,2,,,,1,56,0
331008,note_off,,,,,256,0,1,,,,0,71,0
331008,note_on,,,,,0,0,1,,,,0,80,90
331264,note_on,,,,,0,0,1,,,,0,72,92
331264,note_on,,,,,307,0,2,,,,1,64,77
331264,note_off,,,,,256,0,1,,,,0,80,0
331469,note_off,,,,,205,0,2,,,,1,64,0
331520,note_on,,,,,0,0,1,,,,0,76,94
331520,note_off,,,,,256,0,1,,,,0,72,0
331776,note_on,,,,,307,0,2,,,,1,57,81
331776,note_off,,,,,256,0,1,,,,0,76,0
331776,note_on,,,,,0,0,1,,,,0,73,96
331981,note_off,,,,,205,0,2,,,,1,57,0
332032,note_off,,,,,256,0,1,,,,0,73,0
332032,note_on,,,,,0,0,1,,,,0,64,94
332288,note_on,,,,,307,0,2,,,,1,45,77
332288,note_on,,,,,0,0,1,,,,0,73,92
332288,note_off,,,,,256,0,1,,,,0,64,0
332493,note_off,,,,,205,0,2,,,,1,45,0
332544,note_on,,,,,0,0,1,,,,0,76,90
332544,note_off,,,,,256,0,1,,,,0,73,0
332800,note_off,,,,,256,0,1,,,,0,76,0
332800,note_on,,,,,307,0,2,,,,1,47,73
332800,note_on,,,,,0,0,1,,,,0,71,88
333005,note_off,,,,,205,0,2,,,,1,47,0
333056,note_off,,,,,256,0,1,,,,0,71,0
333056,note_on,,,,,0,0,1,,,,0,75,86
333312,note_off,,,,,256,0,1,,,,0,75,0
333312,note_on,,,,,0,0,1,,,,0,69,84
333312,note_on,,,,,307,0,2,,,,1,49,69
333517,note_off,,,,,205,0,2,,,,1,49,0
333568,note_off,,,,,256,0,1,,,,0,69,0
333568,note_on,,,,,0,0,1,,,,0,73,82
333824,note_on,,,,,307,0,2,,,,1,47,65
333824,note_off,,,,,256,0,1,,,,0,73,0
333824,note_on,,,,,0,0,1,,,,0,68,80
334029,note_off,,,,,205,0,2,,,,1,47,0
334080,note_off,,,,,256,0,1,,,,0,68,0
334080,note_on,,,,,0,0,1,,,,0,59,78
334336,note_off,,,,,256,0,1,,,,0,59,0
334336,note_on,,,,,0,0,1,,,,0,68,76
334336,note_on,,,,,307,0,2,,,,1,52,61
334541,note_off,,,,,205,0,2,,,,1,52,0
334592,note_off,,,,,256,0,1,,,,0,68,0
334592,note_on,,,,,0,0,1,,,,0,71,74
334848,note_on,,,,,307,0,2,,,,1,47,57
334848,note_off,,,,,256,0,1,,,,0,71,0
334848,note_on,,,,,0,0,1,,,,0,64,72
335053,note_off,,,,,205,0,2,,,,1,47,0
335104,note_on,,,,,0,0,1,,,,0,58,70
335104,note_off,,,,,256,0,1,,,,0,64,0
335360,note_off,,,,,256,0,1,,,,0,58,0
335360,note_on,,,,,0,0,1,,,,0,64,68
335360,note_on,,,,,307,0,2,,,,1,55,53
335565,note_off,,,,,205,0,2,,,,1,55,0
335616,note_off,,,,,256,0,1,,,,0,64,0
335616,note_on,,,,,0,0,1,,,,0,73,66
335872,note_on,,,,,0,0,1,,,,0,66,64
335872,note_on,,,,,307,0,2,,,,1,47,49
335872,note_off,,,,,256,0,1,,,,0,73,0
336077,note_off,,,,,205,0,2,,,,1,47,0
336128,note_off,,,,,256,0,1,,,,0,66,0
336128,note_on,,,,,0,0,1,,,,0,57,64
336384,note_on,,,,,307,0,2,,,,1,52,49
336384,note_on,,,,,0,0,1,,,,0,66,64
336384,note_off,,,,,256,0,1,,,,0,57,0
336589,note_off,,,,,205,0,2,,,,1,52,0
336640,note_on,,,,,0,0,1,,,,0,71,64
336640,note_off,,,,,256,0,1,,,,0,66,0
336896,note_off,,,,,256,0,1,,,,0,71,0
336896,note_on,,,,,307,0,2,,,,1,47,49
336896,note_on,,,,,0,0,1,,,,0,66,64
337101,note_off,,,,,205,0,2,,,,1,47,0
337152,note_on,,,,,0,0,1,,,,0,57,64
337152,note_off,,,,,256,0,1,,,,0,66,0
337408,note_off,,,,,256,0,1,,,,0,57,0
337408,note_on,,,,,0,0,1,,,,0,66,64
337408,note_on,,,,,307,0,2,,,,1,51,49
337613,note_off,,,,,205,0,2,,,,1,51,0
337664,note_off,,,,,256,0,1,,,,0,66,0
337664,note_on,,,,,0,0,1,,,,0,71,64
337920,note_on,,,,,0,0,1,,,,0,64,64
337920,note_off,,,,,256,0,1,,,,0,71,0
337920,note_on,,,,,307,0,2,,,,1,52,64
338176,note_on,,,,,0,0,1,,,,0,56,64
338176,note_off,,,,,256,0,1,,,,0,64,0
338432,note_off,,,,,512,0,2,,,,1,52,0
338432,note_off,,,,,256,0,1,,,,0,56,0
338432,note_on,,,,,0,0,1,,,,0,64,64
338688,note_on,,,,,0,0,1,,,,0,68,64
338688,note_off,,,,,256,0,1,,,,0,64,0
338944,note_off,,,,,256,0,1,,,,0,68,0
338944,note_on,,,,,512,0,2,,,,1,47,64
339200,note_on,,,,,0,0,2,,,,1,40,64
339200,note_off,,,,,256,0,2,,,,1,47,0
339456,note_on,,,,,0,0,2,,,,1,47,64
339456,note_off,,,,,256,0,2,,,,1,40,0
339712,note_on,,,,,0,0,2,,,,1,52,64
339712,note_off,,,,,256,0,2,,,,1,47,0
339968,note_on,,,,,1024,0,1,,,,0,63,64
339968,note_off,,,,,256,0,2,,,,1,52,0
340224,note_off,,,,,256,0,1,,,,0,63,0
340224,note_on,,,,,0,0,1,,,,0,57,64
340480,note_off,,,,,256,0,1,,,,0,57,0
340480,note_on,,,,,0,0,1,,,,0,63,64
340736,note_off,,,,,256,0,1,,,,0,63,0
340736,note_on,,,,,0,0,1,,,,0,71,64
340992,note_off,,,,,256,0,1,,,,0,71,0
340992,note_on,,,,,1024,0,2,,,,1,47,64
341248,note_off,,,,,256,0,2,,,,1,47,0
341248,note_on,,,,,0,0,2,,,,1,40,64
341504,note_on,,,,,0,0,2,,,,1,47,64
341504,note_off,,,,,256,0,2,,,,1,40,0
341760,note_off,,,,,256,0,2,,,,1,47,0
341760,note_on,,,,,0,0,2,,,,1,54,64
342016,note_off,,,,,256,0,2,,,,1,54,0
342016,note_on,,,,,1024,0,1,,,,0,64,64
342272,note_off,,,,,256,0,1,,,,0,64,0
342272,note_on,,,,,0,0,1,,,,0,56,68
342528,note_on,,,,,0,0,1,,,,0,64,72
342528,note_off,,,,,256,0,1,,,,0,56,0
342784,note_off,,,,,256,0,1,,,,0,64,0
342784,note_on,,,,,0,0,1,,,,0,68,76
343040,note_off,,,,,256,0,1,,,,0,68,0
343040,note_on,,,,,1024,0,2,,,,1,54,80
343040,note_on,,,,,0,0,1,,,,0,68,80
343296,note_off,,,,,256,0,1,,,,0,68,0
343296,note_off,,,,,256,0,2,,,,1,54,0
343296,note_on,,,,,0,0,2,,,,1,56,84
343296,note_on,,,,,0,0,1,,,,0,71,84
343552,note_off,,,,,256,0,2,,,,1,56,0
343552,note_on,,,,,0,0,2,,,,1,59,88
343552,note_off,,,,,256,0,1,,,,0,71,0
343552,note_on,,,,,0,0,1,,,,0,76,88
343808,note_off,,,,,256,0,1,,,,0,76,0
343808,note_on,,,,,0,0,2,,,,1,64,92
343808,note_off,,,,,256,0,2,,,,1,59,0
343808,note_on,,,,,0,0,1,,,,0,80,92
344064,note_on,,,,,0,0,2,,,,1,64,96
344064,note_off,,,,,256,0,2,,,,1,64,0
344064,note_off,,,,,256,0,1,,,,0,80,0
344064,note_on,,,,,0,0,1,,,,0,80,96
344269,note_off,,,,,205,0,2,,,,1,64,0
344320,note_off,,,,,256,0,1,,,,0,80,0
344320,note_on,,,,,0,0,1,,,,0,68,92
344576,note_on,,,,,307,0,2,,,,1,61,88
344576,note_on,,,,,0,0,1,,,,0,76,88
344576,note_off,,,,,256,0,1,,,,0,68,0
344781,note_off,,,,,205,0,2,,,,1,61,0
344832,note_on,,,,,0,0,1,,,,0,68,84
344832,note_off,,,,,256,0,1,,,,0,76,0
345088,note_off,,,,,256,0,1,,,,0,68,0
345088,note_on,,,,,307,0,2,,,,1,60,80
345088,note_on,,,,,0,0,1,,,,0,75,80
345293,note_off,,,,,205,0,2,,,,1,60,0
345344,note_off,,,,,256,0,1,,,,0,75,0
345344,note_on,,,,,0,0,1,,,,0,68,76
345600,note_off,,,,,256,0,1,,,,0,68,0
345600,note_on,,,,,0,0,1,,,,0,74,72
345600,note_on,,,,,307,0,2,,,,1,59,72
345805,note_off,,,,,205,0,2,,,,1,59,0
345856,note_off,,,,,256,0,1,,,,0,74,0
345856,note_on,,,,,0,0,1,,,,0,68,68
346112,note_off,,,,,256,0,1,,,,0,68,0
346112,note_on,,,,,0,0,1,,,,0,73,64
346112,note_on,,,,,307,0,2,,,,1,57,64
346368,note_on,,,,,0,0,1,,,,0,61,64
346368,note_off,,,,,256,0,1,,,,0,73,0
346624,note_off,,,,,512,0,2,,,,1,57,0
346624,note_on,,,,,0,0,1,,,,0,69,64
346624,note_off,,,,,256,0,1,,,,0,61,0
346880,note_off,,,,,256,0,1,,,,0,69,0
346880,note_on,,,,,0,0,1,,,,0,73,64
347136,note_on,,,,,512,0,2,,,,1,52,64
347136,note_off,,,,,256,0,1,,,,0,73,0
347392,note_off,,,,,256,0,2,,,,1,52,0
347392,note_on,,,,,0,0,2,,,,1,45,64
347648,note_off,,,,,256,0,2,,,,1,45,0
347648,note_on,,,,,0,0,2,,,,1,52,64
347904,note_off,,,,,256,0,2,,,,1,52,0
347904,note_on,,,,,0,0,2,,,,1,57,64
348160,note_on,,,,,1024,0,1,,,,0,68,64
348160,note_off,,,,,256,0,2,,,,1,57,0
348416,note_off,,,,,256,0,1,,,,0,68,0
348416,note_on,,,,,0,0,1,,,,0,62,64
348672,note_off,,,,,256,0,1,,,,0,62,0
348672,note_on,,,,,0,0,1,,,,0,68,64
348928,note_off,,,,,256,0,1,,,,0,68,0
348928,note_on,,,,,0,0,1,,,,0,76,64
349184,note_off,,,,,256,0,1,,,,0,76,0
349184,note_on,,,,,1024,0,2,,,,1,52,64
349440,note_on,,,,,0,0,2,,,,1,45,64
349440,note_off,,,,,256,0,2,,,,1,52,0
349696,note_on,,,,,0,0,2,,,,1,52,64
349696,note_off,,,,,256,0,2,,,,1,45,0
349952,note_on,,,,,0,0,2,,,,1,59,64
349952,note_off,,,,,256,0,2,,,,1,52,0
350208,note_on,,,,,1024,0,1,,,,0,69,64
350208,note_off,,,,,256,0,2,,,,1,59,0
350464,note_on,,,,,0,0,1,,,,0,61,68
350464,note_off,,,,,256,0,1,,,,0,69,0
350720,note_off,,,,,256,0,1,,,,0,61,0
350720,note_on,,,,,0,0,1,,,,0,69,72
350976,note_on,,,,,0,0,1,,,,0,73,76
350976,note_off,,,,,256,0,1,,,,0,69,0
351232,note_on,,,,,0,0,1,,,,0,73,80
351232,note_off,,,,,256,0,1,,,,0,73,0
351232,note_on,,,,,1024,0,2,,,,1,57,80
351488,note_off,,,,,256,0,1,,,,0,73,0
351488,note_off,,,,,256,0,2,,,,1,57,0
351488,note_on,,,,,0,0,2,,,,1,61,84
351488,note_on,,,,,0,0,1,,,,0,76,84
351744,note_on,,,,,0,0,2,,,,1,64,88
351744,note_off,,,,,256,0,2,,,,1,61,0
351744,note_off,,,,,256,0,1,,,,0,76,0
351744,note_on,,,,,0,0,1,,,,0,81,88
352000,note_off,,,,,256,0,2,,,,1,64,0
352000,note_on,,,,,0,0,1,,,,0,85,92
352000,note_off,,,,,256,0,1,,,,0,81,0
352000,note_on,,,,,0,0,2,,,,1,69,92
352256,note_off,,,,,256,0,1,,,,0,85,0
352256,note_on,,,,,0,0,1,,,,0,85,96
352256,note_off,,,,,256,0,2,,,,1,69,0
352256,note_on,,,,,0,0,2,,,,1,69,96
352461,note_off,,,,,205,0,2,,,,1,69,0
352512,note_on,,,,,0,0,1,,,,0,73,92
352512,note_off,,,,,256,0,1,,,,0,85,0
352768,note_on,,,,,0,0,1,,,,0,81,88
352768,note_on,,,,,307,0,2,,,,1,66,88
352768,note_off,,,,,256,0,1,,,,0,73,0
352973,note_off,,,,,205,0,2,,,,1,66,0
353024,note_off,,,,,256,0,1,,,,0,81,0
353024,note_on,,,,,0,0,1,,,,0,73,84
353280,note_on,,,,,307,0,2,,,,1,71,80
353280,note_off,,,,,256,0,1,,,,0,73,0
353280,note_on,,,,,0,0,1,,,,0,80,80
353485,note_off,,,,,205,0,2,,,,1,71,0
353536,note_off,,,,,256,0,1,,,,0,80,0
353536,note_on,,,,,0,0,1,,,,0,76,76
353792,note_on,,,,,0,0,2,,,,1,69,72
353792,note_on,,,,,307,0,2,,,,1,59,72
353792,note_off,,,,,256,0,1,,,,0,76,0
353792,note_on,,,,,0,0,1,,,,0,78,72
353997,note_off,,,,,0,0,2,,,,1,69,0
353997,note_off,,,,,205,0,2,,,,1,59,0
354048,note_off,,,,,256,0,1,,,,0,78,0
354048,note_on,,,,,0,0,1,,,,0,75,68
354304,note_on,,,,,0,0,1,,,,0,64,64
354304,note_off,,,,,256,0,1,,,,0,75,0
354304,note_on,,,,,0,0,1,,,,0,68,64
354304,note_on,,,,,0,0,1,,,,0,76,64
354560,note_on,,,,,0,0,1,,,,0,68,67
354560,note_off,,,,,0,0,1,,,,0,68,0
354560,note_off,,,,,0,0,1,,,,0,76,0
354560,note_off,,,,,256,0,1,,,,0,64,0
354816,note_off,,,,,256,0,1,,,,0,68,0
354816,note_on,,,,,0,0,1,,,,0,66,70
354816,note_on,,,,,819,0,2,,,,1,54,70
354816,note_on,,,,,0,0,2,,,,1,56,70
355072,note_off,,,,,256,0,1,,,,0,66,0
355072,note_on,,,,,0,0,1,,,,0,68,73
355328,note_on,,,,,0,0,1,,,,0,64,76
355328,note_off,,,,,256,0,1,,,,0,68,0
355328,note_off,,,,,512,0,2,,,,1,54,0
355328,note_on,,,,,0,0,2,,,,1,52,76
355584,note_off,,,,,256,0,1,,,,0,64,0
355584,note_on,,,,,0,0,1,,,,0,68,79
355840,note_on,,,,,0,0,2,,,,1,51,82
355840,note_off,,,,,512,0,2,,,,1,52,0
355840,note_off,,,,,256,0,1,,,,0,68,0
355840,note_on,,,,,0,0,1,,,,0,63,82
356096,note_off,,,,,256,0,1,,,,0,63,0
356096,note_on,,,,,0,0,1,,,,0,68,85
356352,note_on,,,,,0,0,2,,,,1,49,75
356352,note_on,,,,,0,0,1,,,,0,64,88
356352,note_off,,,,,256,0,1,,,,0,68,0
356352,note_off,,,,,0,0,2,,,,1,56,0
356352,note_off,,,,,512,0,2,,,,1,51,0
356608,note_on,,,,,0,0,1,,,,0,61,88
356608,note_off,,,,,256,0,1,,,,0,64,0
356864,note_off,,,,,512,0,2,,,,1,49,0
356864,note_on,,,,,0,0,2,,,,1,48,75
356864,note_off,,,,,256,0,1,,,,0,61,0
356864,note_on,,,,,0,0,1,,,,0,64,88
357069,note_off,,,,,205,0,2,,,,1,48,0
357120,note_on,,,,,0,0,1,,,,0,68,88
357120,note_off,,,,,256,0,1,,,,0,64,0
357376,note_off,,,,,256,0,1,,,,0,68,0
357376,note_on,,,,,0,0,1,,,,0,64,88
357376,note_on,,,,,307,0,2,,,,1,49,75
357581,note_off,,,,,205,0,2,,,,1,49,0
357632,note_off,,,,,256,0,1,,,,0,64,0
357632,note_on,,,,,0,0,1,,,,0,61,88
357888,note_on,,,,,307,0,2,,,,1,52,75
357888,note_off,,,,,256,0,1,,,,0,61,0
357888,note_on,,,,,0,0,1,,,,0,64,88
358093,note_off,,,,,205,0,2,,,,1,52,0
358144,note_off,,,,,256,0,1,,,,0,64,0
358144,note_on,,,,,0,0,1,,,,0,69,88
358400,note_on,,,,,307,0,2,,,,1,48,75
358400,note_on,,,,,0,0,1,,,,0,64,88
358400,note_off,,,,,256,0,1,,,,0,69,0
358605,note_off,,,,,205,0,2,,,,1,48,0
358656,note_on,,,,,0,0,1,,,,0,60,88
358656,note_off,,,,,256,0,1,,,,0,64,0
358912,note_off,,,,,256,0,1,,,,0,60,0
358912,note_on,,,,,0,0,1,,,,0,63,88
358912,note_on,,,,,307,0,2,,,,1,51,75
359117,note_off,,,,,205,0,2,,,,1,51,0
359168,note_off,,,,,256,0,1,,,,0,63,0
359168,note_on,,,,,0,0,1,,,,0,69,88
359424,note_off,,,,,256,0,1,,,,0,69,0
359424,note_on,,,,,0,0,1,,,,0,63,88
359424,note_on,,,,,307,0,2,,,,1,56,75
359629,note_off,,,,,205,0,2,,,,1,56,0
359680,note_on,,,,,0,0,1,,,,0,60,88
359680,note_off,,,,,256,0,1,,,,0,63,0
359936,note_off,,,,,256,0,1,,,,0,60,0
359936,note_on,,,,,0,0,1,,,,0,63,88
359936,note_on,,,,,307,0,2,,,,1,48,75
360141,note_off,,,,,205,0,2,,,,1,48,0
360192,note_off,,,,,256,0,1,,,,0,63,0
360192,note_on,,,,,0,0,1,,,,0,68,88
360448,note_off,,,,,256,0,1,,,,0,68,0
360448,note_on,,,,,0,0,1,,,,0,68,88
360448,note_on,,,,,307,0,2,,,,1,49,75
360653,note_off,,,,,205,0,2,,,,1,49,0
360704,note_off,,,,,256,0,1,,,,0,68,0
360704,note_on,,,,,0,0,1,,,,0,64,88
360960,note_on,,,,,307,0,2,,,,1,51,75
360960,note_off,,,,,256,0,1,,,,0,64,0
360960,note_on,,,,,0,0,1,,,,0,68,88
361165,note_off,,,,,205,0,2,,,,1,51,0
361216,note_on,,,,,0,0,1,,,,0,76,88
361216,note_off,,,,,256,0,1,,,,0,68,0
361472,note_off,,,,,256,0,1,,,,0,76,0
361472,note_on,,,,,307,0,2,,,,1,52,75
361472,note_on,,,,,0,0,1,,,,0,68,88
361677,note_off,,,,,205,0,2,,,,1,52,0
361728,note_off,,,,,256,0,1,,,,0,68,0
361728,note_on,,,,,0,0,1,,,,0,64,88
361984,note_on,,,,,307,0,2,,,,1,49,75
361984,note_on,,,,,0,0,1,,,,0,68,88
361984,note_off,,,,,256,0,1,,,,0,64,0
362189,note_off,,,,,205,0,2,,,,1,49,0
362240,note_on,,,,,0,0,1,,,,0,73,88
362240,note_off,,,,,256,0,1,,,,0,68,0
362496,note_on,,,,,307,0,2,,,,1,51,75
362496,note_off,,,,,256,0,1,,,,0,73,0
362496,note_on,,,,,0,0,1,,,,0,69,88
362701,note_off,,,,,205,0,2,,,,1,51,0
362752,note_off,,,,,256,0,1,,,,0,69,0
362752,note_on,,,,,0,0,1,,,,0,68,88
363008,note_on,,,,,307,0,2,,,,1,57,75
363008,note_on,,,,,0,0,1,,,,0,66,88
363008,note_off,,,,,256,0,1,,,,0,68,0
363213,note_off,,,,,205,0,2,,,,1,57,0
363264,note_on,,,,,0,0,1,,,,0,73,88
363264,note_off,,,,,256,0,1,,,,0,66,0
363520,note_on,,,,,0,0,1,,,,0,72,88
363520,note_off,,,,,256,0,1,,,,0,73,0
363520,note_on,,,,,307,0,2,,,,1,56,75
363725,note_off,,,,,205,0,2,,,,1,56,0
363776,note_off,,,,,256,0,1,,,,0,72,0
363776,note_on,,,,,0,0,1,,,,0,63,88
364032,note_off,,,,,256,0,1,,,,0,63,0
364032,note_on,,,,,0,0,1,,,,0,68,88
364032,note_on,,,,,307,0,2,,,,1,54,75
364237,note_off,,,,,205,0,2,,,,1,54,0
364288,note_off,,,,,256,0,1,,,,0,68,0
364288,note_on,,,,,0,0,1,,,,0,72,88
364544,note_on,,,,,307,0,2,,,,1,52,75
364544,note_off,,,,,256,0,1,,,,0,72,0
364544,note_on,,,,,0,0,1,,,,0,73,88
364749,note_off,,,,,205,0,2,,,,1,52,0
364800,note_off,,,,,256,0,1,,,,0,73,0
364800,note_on,,,,,0,0,1,,,,0,68,92
365056,note_on,,,,,307,0,2,,,,1,51,83
365056,note_off,,,,,256,0,1,,,,0,68,0
365056,note_on,,,,,0,0,1,,,,0,73,96
365261,note_off,,,,,205,0,2,,,,1,51,0
365312,note_off,,,,,256,0,1,,,,0,73,0
365312,note_on,,,,,0,0,1,,,,0,76,100
365568,note_off,,,,,256,0,1,,,,0,76,0
365568,note_on,,,,,0,0,1,,,,0,76,104
365568,note_on,,,,,307,0,2,,,,1,49,91
365773,note_off,,,,,205,0,2,,,,1,49,0
365824,note_off,,,,,256,0,1,,,,0,76,0
365824,note_on,,,,,0,0,1,,,,0,68,108
366080,note_on,,,,,307,0,2,,,,1,47,99
366080,note_on,,,,,0,0,1,,,,0,76,112
366080,note_off,,,,,256,0,1,,,,0,68,0
366285,note_off,,,,,205,0,2,,,,1,47,0
366336,note_on,,,,,0,0,1,,,,0,80,116
366336,note_off,,,,,256,0,1,,,,0,76,0
366592,note_on,,,,,0,0,1,,,,0,76,120
366592,note_off,,,,,256,0,1,,,,0,80,0
366592,note_on,,,,,307,0,2,,,,1,45,107
366797,note_off,,,,,205,0,2,,,,1,45,0
366848,note_on,,,,,0,0,1,,,,0,69,116
366848,note_off,,,,,256,0,1,,,,0,76,0
367104,note_off,,,,,256,0,1,,,,0,69,0
367104,note_on,,,,,0,0,1,,,,0,76,112
367104,note_on,,,,,307,0,2,,,,1,42,99
367360,note_on,,,,,0,0,1,,,,0,80,108
367360,note_on,,,,,0,0,2,,,,1,44,95
367360,note_off,,,,,256,0,1,,,,0,76,0
367360,note_off,,,,,256,0,2,,,,1,42,0
367616,note_on,,,,,0,0,1,,,,0,74,104
367616,note_on,,,,,0,0,2,,,,1,45,91
367616,note_off,,,,,256,0,1,,,,0,80,0
367616,note_off,,,,,256,0,2,,,,1,44,0
367821,note_off,,,,,205,0,2,,,,1,45,0
367872,note_off,,,,,256,0,1,,,,0,74,0
367872,note_on,,,,,0,0,1,,,,0,80,100
368128,note_on,,,,,307,0,2,,,,1,42,83
368128,note_on,,,,,0,0,1,,,,0,73,96
368128,note_off,,,,,256,0,1,,,,0,80,0
368333,note_off,,,,,205,0,2,,,,1,42,0
368384,note_off,,,,,256,0,1,,,,0,73,0
368384,note_on,,,,,0,0,1,,,,0,76,92
368640,note_off,,,,,256,0,1,,,,0,76,0
368640,note_on,,,,,0,0,1,,,,0,72,88
368640,note_on,,,,,307,0,2,,,,1,44,75
368845,note_off,,,,,205,0,2,,,,1,44,0
368896,note_on,,,,,0,0,1,,,,0,75,88
368896,note_off,,,,,256,0,1,,,,0,72,0
369152,note_on,,,,,307,0,2,,,,1,42,75
369152,note_off,,,,,256,0,1,,,,0,75,0
369152,note_on,,,,,0,0,1,,,,0,73,88
369408,note_off,,,,,256,0,2,,,,1,42,0
369408,note_on,,,,,0,0,1,,,,0,76,88
369408,note_on,,,,,0,0,2,,,,1,40,75
369408,note_off,,,,,256,0,1,,,,0,73,0
369664,note_off,,,,,256,0,1,,,,0,76,0
369664,note_on,,,,,0,0,1,,,,0,75,88
369664,note_off,,,,,256,0,2,,,,1,40,0
369664,note_on,,,,,0,0,2,,,,1,39,75
369869,note_off,,,,,205,0,2,,,,1,39,0
369920,note_off,,,,,256,0,1,,,,0,75,0
369920,note_on,,,,,0,0,1,,,,0,78,88
370176,note_on,,,,,307,0,2,,,,1,44,75
370176,note_on,,,,,0,0,1,,,,0,72,88
370176,note_off,,,,,256,0,1,,,,0,78,0
370381,note_off,,,,,205,0,2,,,,1,44,0
370432,note_on,,,,,0,0,1,,,,0,75,88
370432,note_off,,,,,256,0,1,,,,0,72,0
370688,note_on,,,,,307,0,2,,,,1,37,75
370688,note_on,,,,,0,0,1,,,,0,76,88
370688,note_off,,,,,256,0,1,,,,0,75,0
370893,note_off,,,,,205,0,2,,,,1,37,0
370944,note_on,,,,,0,0,1,,,,0,73,88
370944,note_off,,,,,256,0,1,,,,0,76,0
371200,note_on,,,,,307,0,2,,,,1,44,75
371200,note_on,,,,,0,0,1,,,,0,71,88
371200,note_off,,,,,256,0,1,,,,0,73,0
371456,note_off,,,,,256,0,1,,,,0,71,0
371456,note_on,,,,,0,0,1,,,,0,69,88
371712,note_off,,,,,512,0,2,,,,1,44,0
371712,note_on,,,,,0,0,2,,,,1,46,75
371712,note_off,,,,,256,0,1,,,,0,69,0
371712,note_on,,,,,0,0,1,,,,0,68,88
371968,note_on,,,,,0,0,1,,,,0,66,88
371968,note_off,,,,,256,0,1,,,,0,68,0
372224,note_on,,,,,0,0,1,,,,0,64,88
372224,note_off,,,,,256,0,1,,,,0,66,0
372224,note_off,,,,,512,0,2,,,,1,46,0
372224,note_on,,,,,0,0,2,,,,1,48,75
372480,note_on,,,,,0,0,1,,,,0,63,88
372480,note_off,,,,,256,0,1,,,,0,64,0
372736,note_on,,,,,0,0,1,,,,0,64,49
372736,note_off,,,,,256,0,1,,,,0,63,0
372736,note_off,,,,,512,0,2,,,,1,48,0
372736,note_on,,,,,0,0,2,,,,1,49,36
372992,note_on,,,,,0,0,1,,,,0,61,50
372992,note_off,,,,,256,0,1,,,,0,64,0
373248,note_on,,,,,0,0,2,,,,1,52,37
373248,note_off,,,,,512,0,2,,,,1,49,0
373248,note_on,,,,,0,0,1,,,,0,64,50
373248,note_off,,,,,256,0,1,,,,0,61,0
373504,note_on,,,,,0,0,1,,,,0,68,50
373504,note_off,,,,,256,0,1,,,,0,64,0
373760,note_on,,,,,0,0,2,,,,1,51,38
373760,note_off,,,,,512,0,2,,,,1,52,0
373760,note_on,,,,,0,0,1,,,,0,64,51
373760,note_off,,,,,256,0,1,,,,0,68,0
374016,note_off,,,,,256,0,1,,,,0,64,0
374016,note_on,,,,,0,0,1,,,,0,61,52
374272,note_off,,,,,256,0,1,,,,0,61,0
374272,note_on,,,,,0,0,1,,,,0,64,52
374272,note_off,,,,,512,0,2,,,,1,51,0
374272,note_on,,,,,0,0,2,,,,1,49,39
374528,note_on,,,,,0,0,1,,,,0,69,52
374528,note_off,,,,,256,0,1,,,,0,64,0
374784,note_off,,,,,256,0,1,,,,0,69,0
374784,note_off,,,,,512,0,2,,,,1,49,0
374784,note_on,,,,,0,0,1,,,,0,63,53
374784,note_on,,,,,0,0,2,,,,1,47,40
375040,note_on,,,,,0,0,1,,,,0,59,53
375040,note_off,,,,,256,0,1,,,,0,63,0
375296,note_off,,,,,512,0,2,,,,1,47,0
375296,note_on,,,,,0,0,2,,,,1,51,41
375296,note_on,,,,,0,0,1,,,,0,63,54
375296,note_off,,,,,256,0,1,,,,0,59,0
375552,note_on,,,,,0,0,1,,,,0,69,55
375552,note_off,,,,,256,0,1,,,,0,63,0
375808,note_on,,,,,0,0,1,,,,0,63,55
375808,note_on,,,,,0,0,2,,,,1,56,42
375808,note_off,,,,,256,0,1,,,,0,69,0
375808,note_off,,,,,512,0,2,,,,1,51,0
376064,note_on,,,,,0,0,1,,,,0,59,55
376064,note_off,,,,,256,0,1,,,,0,63,0
376320,note_off,,,,,256,0,1,,,,0,59,0
376320,note_on,,,,,0,0,1,,,,0,63,56
376320,note_on,,,,,0,0,2,,,,1,47,43
376320,note_off,,,,,512,0,2,,,,1,56,0
376576,note_off,,,,,256,0,1,,,,0,63,0
376576,note_on,,,,,0,0,1,,,,0,68,57
376832,note_on,,,,,0,0,1,,,,0,68,57
376832,note_on,,,,,0,0,2,,,,1,45,44
376832,note_off,,,,,512,0,2,,,,1,47,0
376832,note_off,,,,,256,0,1,,,,0,68,0
377088,note_off,,,,,256,0,1,,,,0,68,0
377088,note_on,,,,,0,0,1,,,,0,61,57
377344,note_off,,,,,512,0,2,,,,1,45,0
377344,note_on,,,,,0,0,1,,,,0,68,58
377344,note_off,,,,,256,0,1,,,,0,61,0
377344,note_on,,,,,0,0,2,,,,1,49,45
377600,note_on,,,,,0,0,1,,,,0,73,59
377600,note_off,,,,,256,0,1,,,,0,68,0
377856,note_off,,,,,256,0,1,,,,0,73,0
377856,note_off,,,,,512,0,2,,,,1,49,0
377856,note_on,,,,,0,0,1,,,,0,66,59
377856,note_on,,,,,0,0,2,,,,1,47,46
378112,note_off,,,,,256,0,1,,,,0,66,0
378112,note_on,,,,,0,0,1,,,,0,63,59
378368,note_off,,,,,512,0,2,,,,1,47,0
378368,note_off,,,,,256,0,1,,,,0,63,0
378368,note_on,,,,,0,0,1,,,,0,66,60
378368,note_on,,,,,0,0,2,,,,1,45,47
378624,note_off,,,,,256,0,1,,,,0,66,0
378624,note_on,,,,,0,0,1,,,,0,73,61
378880,note_on,,,,,0,0,2,,,,1,44,48
378880,note_off,,,,,256,0,1,,,,0,73,0
378880,note_off,,,,,512,0,2,,,,1,45,0
378880,note_on,,,,,0,0,1,,,,0,68,61
379136,note_off,,,,,256,0,1,,,,0,68,0
379136,note_on,,,,,0,0,1,,,,0,64,62
379392,note_off,,,,,512,0,2,,,,1,44,0
379392,note_on,,,,,0,0,2,,,,1,47,49
379392,note_off,,,,,256,0,1,,,,0,64,0
379392,note_on,,,,,0,0,1,,,,0,68,62
379648,note_off,,,,,256,0,1,,,,0,68,0
379648,note_on,,,,,0,0,1,,,,0,73,62
379904,note_off,,,,,512,0,2,,,,1,47,0
379904,note_on,,,,,0,0,2,,,,1,52,50
379904,note_off,,,,,256,0,1,,,,0,73,0
379904,note_on,,,,,0,0,1,,,,0,68,63
380160,note_off,,,,,256,0,1,,,,0,68,0
380160,note_on,,,,,0,0,1,,,,0,64,64
380416,note_on,,,,,0,0,1,,,,0,68,64
380416,note_off,,,,,256,0,1,,,,0,64,0
380416,note_on,,,,,0,0,2,,,,1,44,51
380416,note_off,,,,,512,0,2,,,,1,52,0
380672,note_on,,,,,0,0,1,,,,0,71,64
380672,note_off,,,,,256,0,1,,,,0,68,0
380928,note_on,,,,,0,0,2,,,,1,40,49
380928,note_off,,,,,512,0,2,,,,1,44,0
380928,note_on,,,,,0,0,1,,,,0,67,64
380928,note_off,,,,,256,0,1,,,,0,71,0
381184,note_off,,,,,256,0,1,,,,0,67,0
381184,note_on,,,,,0,0,1,,,,0,64,64
381440,note_on,,,,,0,0,1,,,,0,67,64
381440,note_off,,,,,256,0,1,,,,0,64,0
381440,note_on,,,,,0,0,2,,,,1,52,49
381440,note_off,,,,,512,0,2,,,,1,40,0
381696,note_on,,,,,0,0,1,,,,0,70,64
381696,note_on,,,,,0,0,2,,,,1,51,49
381696,note_off,,,,,256,0,2,,,,1,52,0
381696,note_off,,,,,256,0,1,,,,0,67,0
381952,note_on,,,,,0,0,2,,,,1,49,49
381952,note_off,,,,,256,0,2,,,,1,51,0
381952,note_off,,,,,256,0,1,,,,0,70,0
381952,note_on,,,,,0,0,1,,,,0,76,64
382208,note_on,,,,,0,0,1,,,,0,70,64
382208,note_off,,,,,256,0,1,,,,0,76,0
382464,note_off,,,,,256,0,1,,,,0,70,0
382464,note_on,,,,,0,0,1,,,,0,76,64
382464,note_off,,,,,512,0,2,,,,1,49,0
382464,note_on,,,,,0,0,2,,,,1,48,49
382720,note_off,,,,,256,0,1,,,,0,76,0
382720,note_on,,,,,0,0,1,,,,0,79,64
382976,note_on,,,,,0,0,2,,,,1,47,49
382976,note_off,,,,,256,0,1,,,,0,79,0
382976,note_on,,,,,0,0,1,,,,0,75,64
382976,note_off,,,,,512,0,2,,,,1,48,0
383232,note_off,,,,,256,0,1,,,,0,75,0
383232,note_on,,,,,0,0,1,,,,0,79,64
383488,note_on,,,,,0,0,1,,,,0,75,64
383488,note_off,,,,,256,0,1,,,,0,79,0
383488,note_on,,,,,0,0,2,,,,1,54,49
383488,note_off,,,,,512,0,2,,,,1,47,0
383744,note_off,,,,,256,0,1,,,,0,75,0
383744,note_on,,,,,0,0,1,,,,0,78,64
384000,note_on,,,,,0,0,2,,,,1,59,49
384000,note_off,,,,,256,0,1,,,,0,78,0
384000,note_on,,,,,0,0,1,,,,0,69,64
384000,note_off,,,,,512,0,2,,,,1,54,0
384256,note_on,,,,,0,0,1,,,,0,76,64
384256,note_off,,,,,256,0,1,,,,0,69,0
384512,note_off,,,,,512,0,2,,,,1,59,0
384512,note_off,,,,,256,0,1,,,,0,76,0
384512,note_on,,,,,0,0,2,,,,1,47,49
384512,note_on,,,,,0,0,1,,,,0,69,64
384768,note_off,,,,,256,0,1,,,,0,69,0
384768,note_on,,,,,0,0,1,,,,0,75,64
385024,note_off,,,,,512,0,2,,,,1,47,0
385024,note_off,,,,,256,0,1,,,,0,75,0
385024,note_on,,,,,0,0,1,,,,0,69,64
385024,note_on,,,,,0,0,2,,,,1,48,49
385280,note_off,,,,,256,0,1,,,,0,69,0
385280,note_on,,,,,0,0,1,,,,0,78,64
385536,note_off,,,,,256,0,1,,,,0,78,0
385536,note_on,,,,,0,0,1,,,,0,68,64
385536,note_on,,,,,0,0,2,,,,1,49,49
385536,note_off,,,,,512,0,2,,,,1,48,0
385792,note_on,,,,,0,0,1,,,,0,76,64
385792,note_off,,,,,256,0,1,,,,0,68,0
386048,note_on,,,,,0,0,1,,,,0,64,64
386048,note_off,,,,,256,0,1,,,,0,76,0
386048,note_off,,,,,512,0,2,,,,1,49,0
386048,note_on,,,,,0,0,2,,,,1,44,49
386304,note_on,,,,,0,0,1,,,,0,73,64
386304,note_off,,,,,256,0,1,,,,0,64,0
386560,note_on,,,,,0,0,2,,,,1,45,49
386560,note_on,,,,,0,0,1,,,,0,61,64
386560,note_off,,,,,256,0,1,,,,0,73,0
386560,note_off,,,,,512,0,2,,,,1,44,0
386816,note_on,,,,,0,0,1,,,,0,69,64
386816,note_off,,,,,256,0,1,,,,0,61,0
387072,note_on,,,,,0,0,2,,,,1,47,49
387072,note_on,,,,,0,0,1,,,,0,59,64
387072,note_off,,,,,512,0,2,,,,1,45,0
387072,note_off,,,,,256,0,1,,,,0,69,0
387328,note_on,,,,,0,0,1,,,,0,68,64
387328,note_off,,,,,256,0,1,,,,0,59,0
387584,note_off,,,,,512,0,2,,,,1,47,0
387584,note_on,,,,,0,0,2,,,,1,56,49
387584,note_on,,,,,0,0,1,,,,0,64,64
387584,note_off,,,,,256,0,1,,,,0,68,0
387840,note_off,,,,,256,0,1,,,,0,64,0
387840,note_on,,,,,0,0,1,,,,0,71,64
388096,note_on,,,,,0,0,2,,,,1,47,49
388096,note_off,,,,,512,0,2,,,,1,56,0
388096,note_off,,,,,256,0,1,,,,0,71,0
388096,note_on,,,,,0,0,1,,,,0,59,64
388352,note_off,,,,,256,0,1,,,,0,59,0
388352,note_on,,,,,0,0,1,,,,0,69,64
388608,note_on,,,,,0,0,2,,,,1,57,49
388608,note_off,,,,,512,0,2,,,,1,47,0
388608,note_off,,,,,256,0,1,,,,0,69,0
388608,note_on,,,,,0,0,1,,,,0,63,64
388864,note_on,,,,,0,0,1,,,,0,71,64
388864,note_off,,,,,256,0,1,,,,0,63,0
389120,note_off,,,,,256,0,1,,,,0,71,0
389120,note_on,,,,,0,0,2,,,,1,47,49
389120,note_off,,,,,512,0,2,,,,1,57,0
389120,note_on,,,,,0,0,1,,,,0,69,64
389376,note_on,,,,,0,0,1,,,,0,63,64
389376,note_off,,,,,256,0,1,,,,0,69,0
389632,note_on,,,,,0,0,2,,,,1,54,49
389632,note_off,,,,,512,0,2,,,,1,47,0
389632,note_off,,,,,256,0,1,,,,0,63,0
389632,note_on,,,,,0,0,1,,,,0,59,64
389888,note_off,,,,,256,0,1,,,,0,59,0
389888,note_on,,,,,0,0,1,,,,0,69,64
390144,note_on,,,,,0,0,1,,,,0,68,64
390144,note_off,,,,,256,0,1,,,,0,69,0
390144,note_on,,,,,0,0,2,,,,1,52,49
390144,note_off,,,,,512,0,2,,,,1,54,0
390400,note_on,,,,,0,0,1,,,,0,59,64
390400,note_off,,,,,256,0,1,,,,0,68,0
390656,note_on,,,,,0,0,1,,,,0,64,64
390656,note_on,,,,,0,0,2,,,,1,49,49
390656,note_off,,,,,512,0,2,,,,1,52,0
390656,note_off,,,,,256,0,1,,,,0,59,0
390912,note_off,,,,,256,0,1,,,,0,64,0
390912,note_on,,,,,0,0,1,,,,0,66,64
390912,note_off,,,,,256,0,2,,,,1,49,0
390912,note_on,,,,,0,0,2,,,,1,51,49
391168,note_on,,,,,0,0,2,,,,1,52,49
391168,note_on,,,,,0,0,1,,,,0,68,64
391168,note_off,,,,,256,0,2,,,,1,51,0
391168,note_off,,,,,256,0,1,,,,0,66,0
391424,note_off,,,,,256,0,1,,,,0,68,0
391424,note_on,,,,,0,0,1,,,,0,64,64
391680,note_off,,,,,512,0,2,,,,1,52,0
391680,note_off,,,,,256,0,1,,,,0,64,0
391680,note_on,,,,,0,0,1,,,,0,68,64
391680,note_on,,,,,0,0,2,,,,1,56,49
391936,note_off,,,,,256,0,1,,,,0,68,0
391936,note_on,,,,,0,0,1,,,,0,76,64
392192,note_off,,,,,256,0,1,,,,0,76,0
392192,note_off,,,,,512,0,2,,,,1,56,0
392192,note_on,,,,,0,0,2,,,,1,53,49
392192,note_on,,,,,0,0,1,,,,0,68,64
392448,note_off,,,,,256,0,1,,,,0,68,0
392448,note_on,,,,,0,0,1,,,,0,75,64
392704,note_off,,,,,512,0,2,,,,1,53,0
392704,note_on,,,,,0,0,2,,,,1,61,49
392704,note_on,,,,,0,0,1,,,,0,68,64
392704,note_off,,,,,256,0,1,,,,0,75,0
392960,note_on,,,,,0,0,1,,,,0,73,64
392960,note_off,,,,,256,0,1,,,,0,68,0
393216,note_on,,,,,0,0,1,,,,0,69,64
393216,note_off,,,,,256,0,1,,,,0,73,0
393216,note_off,,,,,512,0,2,,,,1,61,0
393216,note_on,,,,,0,0,2,,,,1,54,49
393472,note_off,,,,,256,0,1,,,,0,69,0
393472,note_on,,,,,0,0,1,,,,0,61,64
393728,note_on,,,,,0,0,2,,,,1,42,49
393728,note_off,,,,,512,0,2,,,,1,54,0
393728,note_on,,,,,0,0,1,,,,0,69,64
393728,note_off,,,,,256,0,1,,,,0,61,0
393984,note_on,,,,,0,0,1,,,,0,73,64
393984,note_off,,,,,256,0,1,,,,0,69,0
394240,note_on,,,,,0,0,1,,,,0,68,64
394240,note_off,,,,,256,0,1,,,,0,73,0
394240,note_on,,,,,0,0,2,,,,1,44,49
394240,note_off,,,,,512,0,2,,,,1,42,0
394496,note_on,,,,,0,0,1,,,,0,71,64
394496,note_off,,,,,256,0,1,,,,0,68,0
394752,note_on,,,,,0,0,1,,,,0,66,64
394752,note_off,,,,,256,0,1,,,,0,71,0
394752,note_on,,,,,0,0,2,,,,1,45,49
394752,note_off,,,,,512,0,2,,,,1,44,0
395008,note_off,,,,,256,0,1,,,,0,66,0
395008,note_on,,,,,0,0,1,,,,0,71,64
395264,note_on,,,,,0,0,2,,,,1,44,49
395264,note_off,,,,,256,0,1,,,,0,71,0
395264,note_on,,,,,0,0,1,,,,0,64,64
395264,note_off,,,,,512,0,2,,,,1,45,0
395520,note_off,,,,,256,0,1,,,,0,64,0
395520,note_on,,,,,0,0,1,,,,0,56,64
395776,note_on,,,,,0,0,1,,,,0,64,64
395776,note_off,,,,,256,0,1,,,,0,56,0
395776,note_off,,,,,512,0,2,,,,1,44,0
395776,note_on,,,,,0,0,2,,,,1,49,49
396032,note_off,,,,,256,0,1,,,,0,64,0
396032,note_on,,,,,0,0,1,,,,0,68,64
396288,note_on,,,,,0,0,2,,,,1,45,49
396288,note_off,,,,,256,0,1,,,,0,68,0
396288,note_on,,,,,0,0,1,,,,0,61,64
396288,note_off,,,,,512,0,2,,,,1,49,0
396544,note_on,,,,,0,0,1,,,,0,55,64
396544,note_off,,,,,256,0,1,,,,0,61,0
396800,note_on,,,,,0,0,2,,,,1,52,49
396800,note_off,,,,,512,0,2,,,,1,45,0
396800,note_on,,,,,0,0,1,,,,0,61,64
396800,note_off,,,,,256,0,1,,,,0,55,0
397056,note_on,,,,,0,0,1,,,,0,69,64
397056,note_off,,,,,256,0,1,,,,0,61,0
397312,note_on,,,,,0,0,2,,,,1,44,49
397312,note_off,,,,,256,0,1,,,,0,69,0
397312,note_on,,,,,0,0,1,,,,0,63,64
397312,note_off,,,,,512,0,2,,,,1,52,0
397568,note_off,,,,,256,0,1,,,,0,63,0
397568,note_on,,,,,0,0,1,,,,0,54,64
397824,note_on,,,,,0,0,1,,,,0,63,64
397824,note_on,,,,,0,0,2,,,,1,49,49
397824,note_off,,,,,512,0,2,,,,1,44,0
397824,note_off,,,,,256,0,1,,,,0,54,0
398080,note_on,,,,,0,0,1,,,,0,68,64
398080,note_off,,,,,256,0,1,,,,0,63,0
398336,note_on,,,,,0,0,1,,,,0,63,64
398336,note_off,,,,,256,0,1,,,,0,68,0
398336,note_on,,,,,0,0,2,,,,1,44,49
398336,note_off,,,,,512,0,2,,,,1,49,0
398592,note_off,,,,,256,0,1,,,,0,63,0
398592,note_on,,,,,0,0,1,,,,0,54,64
398848,note_off,,,,,512,0,2,,,,1,44,0
398848,note_off,,,,,256,0,1,,,,0,54,0
398848,note_on,,,,,0,0,1,,,,0,63,64
398848,note_on,,,,,0,0,2,,,,1,48,49
399104,note_off,,,,,256,0,1,,,,0,63,0
399104,note_on,,,,,0,0,1,,,,0,68,64
399360,note_off,,,,,256,0,1,,,,0,68,0
399360,note_off,,,,,512,0,2,,,,1,48,0
399360,note_on,,,,,0,0,2,,,,1,49,64
399360,note_on,,,,,0,0,2,,,,1,61,64
399616,note_on,,,,,0,0,2,,,,1,52,64
399616,note_off,,,,,256,0,2,,,,1,61,0
399872,note_off,,,,,0,0,2,,,,1,49,0
399872,note_on,,,,,0,0,2,,,,1,61,64
399872,note_off,,,,,256,0,2,,,,1,52,0
400128,note_on,,,,,0,0,2,,,,1,64,64
400128,note_off,,,,,256,0,2,,,,1,61,0
400384,note_on,,,,,0,0,2,,,,1,44,64
400384,note_off,,,,,256,0,2,,,,1,64,0
400640,note_on,,,,,0,0,2,,,,1,37,64
400640,note_off,,,,,256,0,2,,,,1,44,0
400896,note_off,,,,,256,0,2,,,,1,37,0
400896,note_on,,,,,0,0,2,,,,1,44,64
401152,note_off,,,,,256,0,2,,,,1,44,0
401152,note_on,,,,,0,0,2,,,,1,49,64
401408,note_off,,,,,256,0,2,,,,1,49,0
401408,note_on,,,,,0,0,2,,,,1,61,64
401408,note_on,,,,,0,0,2,,,,1,45,64
401664,note_off,,,,,256,0,2,,,,1,61,0
401664,note_on,,,,,0,0,2,,,,1,52,64
401920,note_off,,,,,0,0,2,,,,1,45,0
401920,note_off,,,,,256,0,2,,,,1,52,0
401920,note_on,,,,,0,0,2,,,,1,61,64
402176,note_on,,,,,0,0,2,,,,1,64,64
402176,note_off,,,,,256,0,2,,,,1,61,0
402432,note_off,,,,,256,0,2,,,,1,64,0
402432,note_on,,,,,0,0,2,,,,1,40,64
402688,note_off,,,,,256,0,2,,,,1,40,0
402688,note_on,,,,,0,0,2,,,,1,33,64
402944,note_off,,,,,256,0,2,,,,1,33,0
402944,note_on,,,,,0,0,2,,,,1,40,64
403200,note_on,,,,,0,0,2,,,,1,45,64
403200,note_off,,,,,256,0,2,,,,1,40,0
403456,note_on,,,,,4096,0,1,,,,0,62,64
403456,note_off,,,,,256,0,2,,,,1,45,0
403456,note_on,,,,,0,0,2,,,,1,42,64
403712,note_off,,,,,256,0,1,,,,0,62,0
403712,note_on,,,,,0,0,1,,,,0,57,68
403968,note_off,,,,,256,0,1,,,,0,57,0
403968,note_on,,,,,0,0,1,,,,0,62,72
403968,note_off,,,,,512,0,2,,,,1,42,0
404224,note_on,,,,,0,0,1,,,,0,66,76
404224,note_off,,,,,256,0,1,,,,0,62,0
404480,note_on,,,,,0,0,1,,,,0,50,80
404480,note_on,,,,,0,0,1,,,,0,66,80
404480,note_off,,,,,256,0,1,,,,0,66,0
404736,note_on,,,,,0,0,1,,,,0,69,84
404736,note_off,,,,,256,0,1,,,,0,50,0
404736,note_on,,,,,0,0,1,,,,0,54,84
404736,note_off,,,,,0,0,1,,,,0,66,0
404992,note_off,,,,,256,0,1,,,,0,54,0
404992,note_off,,,,,0,0,1,,,,0,69,0
404992,note_on,,,,,0,0,1,,,,0,57,88
404992,note_on,,,,,0,0,1,,,,0,74,88
405248,note_on,,,,,0,0,1,,,,0,78,92
405248,note_off,,,,,256,0,1,,,,0,57,0
405248,note_off,,,,,0,0,1,,,,0,74,0
405248,note_on,,,,,0,0,1,,,,0,62,92
405504,note_on,,,,,1536,0,2,,,,1,66,112
405504,note_off,,,,,256,0,1,,,,0,62,0
405504,note_off,,,,,0,0,1,,,,0,78,0
405504,note_on,,,,,0,0,1,,,,0,81,96
405760,note_on,,,,,0,0,1,,,,0,74,92
405760,note_off,,,,,256,0,1,,,,0,81,0
406016,note_off,,,,,256,0,1,,,,0,74,0
406016,note_on,,,,,0,0,2,,,,1,62,88
406016,note_on,,,,,0,0,2,,,,1,54,88
406016,note_on,,,,,0,0,1,,,,0,69,88
406016,note_on,,,,,0,0,1,,,,0,78,88
406016,note_off,,,,,512,0,2,,,,1,66,0
406221,note_off,,,,,0,0,2,,,,1,62,0
406221,note_off,,,,,205,0,2,,,,1,54,0
406272,note_off,,,,,256,0,1,,,,0,69,0
406272,note_on,,,,,0,0,1,,,,0,71,84
406528,note_off,,,,,0,0,1,,,,0,71,0
406528,note_on,,,,,307,0,2,,,,1,56,80
406528,note_on,,,,,0,0,2,,,,1,64,80
406528,note_on,,,,,0,0,1,,,,0,73,80
406528,note_on,,,,,0,0,1,,,,0,76,80
406528,note_off,,,,,256,0,1,,,,0,78,0
406733,note_off,,,,,0,0,2,,,,1,64,0
406733,note_off,,,,,205,0,2,,,,1,56,0
406784,note_off,,,,,256,0,1,,,,0,73,0
406784,note_on,,,,,0,0,1,,,,0,68,76
407040,note_on,,,,,0,0,1,,,,0,72,72
407040,note_off,,,,,0,0,1,,,,0,68,0
407040,note_on,,,,,0,0,1,,,,0,75,72
407040,note_off,,,,,256,0,1,,,,0,76,0
407040,note_on,,,,,307,0,2,,,,1,56,72
407040,note_on,,,,,0,0,2,,,,1,66,72
407245,note_off,,,,,0,0,2,,,,1,66,0
407245,note_off,,,,,205,0,2,,,,1,56,0
407296,note_on,,,,,0,0,1,,,,0,68,68
407296,note_off,,,,,256,0,1,,,,0,72,0
407552,note_on,,,,,0,0,1,,,,0,73,64
407552,note_off,,,,,0,0,1,,,,0,68,0
407552,note_off,,,,,256,0,1,,,,0,75,0
407552,note_on,,,,,307,0,2,,,,1,61,64
407552,note_on,,,,,0,0,2,,,,1,64,64
407808,note_off,,,,,256,0,1,,,,0,73,0
407808,note_on,,,,,0,0,1,,,,0,64,64
408064,note_off,,,,,0,0,2,,,,1,64,0
408064,note_off,,,,,256,0,1,,,,0,64,0
408064,note_on,,,,,0,0,1,,,,0,73,64
408064,note_off,,,,,512,0,2,,,,1,61,0
408320,note_off,,,,,256,0,1,,,,0,73,0
408320,note_on,,,,,0,0,1,,,,0,76,64
408576,note_off,,,,,256,0,1,,,,0,76,0
408576,note_on,,,,,512,0,2,,,,1,56,64
408832,note_off,,,,,256,0,2,,,,1,56,0
408832,note_on,,,,,0,0,2,,,,1,49,64
409088,note_on,,,,,0,0,2,,,,1,56,64
409088,note_off,,,,,256,0,2,,,,1,49,0
409344,note_on,,,,,0,0,2,,,,1,61,64
409344,note_off,,,,,256,0,2,,,,1,56,0
409600,note_off,,,,,256,0,2,,,,1,61,0
409600,note_on,,,,,0,0,2,,,,1,57,64
409600,note_on,,,,,1024,0,1,,,,0,73,64
409856,note_off,,,,,256,0,1,,,,0,73,0
409856,note_on,,,,,0,0,1,,,,0,64,64
410112,note_on,,,,,0,0,1,,,,0,73,64
410112,note_off,,,,,256,0,1,,,,0,64,0
410112,note_off,,,,,512,0,2,,,,1,57,0
410368,note_on,,,,,0,0,1,,,,0,76,64
410368,note_off,,,,,256,0,1,,,,0,73,0
410624,note_on,,,,,512,0,2,,,,1,52,64
410624,note_off,,,,,256,0,1,,,,0,76,0
410880,note_off,,,,,256,0,2,,,,1,52,0
410880,note_on,,,,,0,0,2,,,,1,45,64
411136,note_on,,,,,0,0,2,,,,1,52,64
411136,note_off,,,,,256,0,2,,,,1,45,0
411392,note_on,,,,,0,0,2,,,,1,57,64
411392,note_off,,,,,256,0,2,,,,1,52,0
411648,note_on,,,,,1024,0,1,,,,0,74,64
411648,note_off,,,,,256,0,2,,,,1,57,0
411648,note_on,,,,,0,0,2,,,,1,54,64
411904,note_off,,,,,256,0,1,,,,0,74,0
411904,note_on,,,,,0,0,1,,,,0,69,68
412160,note_off,,,,,512,0,2,,,,1,54,0
412160,note_off,,,,,256,0,1,,,,0,69,0
412160,note_on,,,,,0,0,1,,,,0,74,72
412160,note_on,,,,,0,0,2,,,,1,57,72
412416,note_off,,,,,256,0,2,,,,1,57,0
412416,note_on,,,,,0,0,2,,,,1,62,76
412416,note_on,,,,,0,0,1,,,,0,78,76
412416,note_off,,,,,256,0,1,,,,0,74,0
412672,note_off,,,,,256,0,2,,,,1,62,0
412672,note_on,,,,,0,0,1,,,,0,81,80
412672,note_off,,,,,256,0,1,,,,0,78,0
412672,note_on,,,,,0,0,2,,,,1,66,80
412928,note_on,,,,,0,0,2,,,,1,62,84
412928,note_on,,,,,0,0,1,,,,0,78,84
412928,note_off,,,,,256,0,1,,,,0,81,0
412928,note_off,,,,,256,0,2,,,,1,66,0
413184,note_off,,,,,256,0,2,,,,1,62,0
413184,note_off,,,,,256,0,1,,,,0,78,0
413184,note_on,,,,,0,0,1,,,,0,74,88
413184,note_on,,,,,0,0,2,,,,1,57,88
413440,note_off,,,,,256,0,2,,,,1,57,0
413440,note_on,,,,,0,0,1,,,,0,69,92
413440,note_on,,,,,0,0,2,,,,1,54,92
413440,note_off,,,,,256,0,1,,,,0,74,0
413696,note_on,,,,,0,0,1,,,,0,68,96
413696,note_off,,,,,256,0,2,,,,1,54,0
413696,note_on,,,,,0,0,2,,,,1,56,96
413696,note_off,,,,,256,0,1,,,,0,69,0
413901,note_off,,,,,205,0,2,,,,1,56,0
413952,note_off,,,,,256,0,1,,,,0,68,0
413952,note_on,,,,,0,0,1,,,,0,76,93
414208,note_off,,,,,256,0,1,,,,0,76,0
414208,note_on,,,,,0,0,1,,,,0,64,90
414208,note_on,,,,,307,0,2,,,,1,56,90
414413,note_off,,,,,205,0,2,,,,1,56,0
414464,note_on,,,,,0,0,1,,,,0,73,87
414464,note_off,,,,,256,0,1,,,,0,64,0
414720,note_off,,,,,256,0,1,,,,0,73,0
414720,note_on,,,,,0,0,1,,,,0,66,84
414720,note_on,,,,,307,0,2,,,,1,56,84
414925,note_off,,,,,205,0,2,,,,1,56,0
414976,note_off,,,,,256,0,1,,,,0,66,0
414976,note_on,,,,,0,0,1,,,,0,75,81
415232,note_on,,,,,307,0,2,,,,1,56,78
415232,note_on,,,,,0,0,1,,,,0,63,78
415232,note_off,,,,,256,0,1,,,,0,75,0
415437,note_off,,,,,205,0,2,,,,1,56,0
415488,note_on,,,,,0,0,1,,,,0,72,75
415488,note_off,,,,,256,0,1,,,,0,63,0
415744,note_on,,,,,0,0,1,,,,0,64,72
415744,note_on,,,,,307,0,2,,,,1,56,72
415744,note_off,,,,,256,0,1,,,,0,72,0
415949,note_off,,,,,205,0,2,,,,1,56,0
416000,note_off,,,,,256,0,1,,,,0,64,0
416000,note_on,,,,,0,0,1,,,,0,73,69
416256,note_on,,,,,0,0,1,,,,0,64,66
416256,set_tempo,,,,,0,1,0,,566037,,,,
416256,note_on,,,,,0,0,1,,,,0,61,66
416256,note_on,,,,,307,0,2,,,,1,44,66
416256,set_tempo,,,,,123392,1,0,,550458,,,,
416256,note_off,,,,,256,0,1,,,,0,73,0
416512,note_off,,,,,0,0,1,,,,0,64,0
416512,note_off,,,,,256,0,1,,,,0,61,0
416512,note_on,,,,,0,0,1,,,,0,68,63
416768,note_on,,,,,0,0,1,,,,0,63,60
416768,note_off,,,,,512,0,2,,,,1,44,0
416768,set_tempo,,,,,0,1,0,,600000,,,,
416768,set_tempo,,,,,512,1,0,,582524,,,,
416768,note_off,,,,,256,0,1,,,,0,68,0
416768,note_on,,,,,0,0,2,,,,1,44,60
416768,note_on,,,,,0,0,1,,,,0,66,60
417024,note_on,,,,,0,0,1,,,,0,68,57
417024,note_off,,,,,0,0,1,,,,0,66,0
417024,note_off,,,,,256,0,1,,,,0,63,0
417280,note_on,,,,,0,0,2,,,,1,44,54
417280,note_off,,,,,256,0,1,,,,0,68,0
417280,note_on,,,,,0,0,1,,,,0,60,54
417280,note_on,,,,,0,0,1,,,,0,63,54
417280,set_tempo,,,,,512,1,0,,618556,,,,
417280,set_tempo,,,,,0,1,0,,638297,,,,
417280,note_off,,,,,512,0,2,,,,1,44,0
417536,note_on,,,,,0,0,1,,,,0,68,51
417536,note_off,,,,,0,0,1,,,,0,63,0
417536,note_off,,,,,256,0,1,,,,0,60,0
417792,set_tempo,,,,,0,1,0,,697674,,,,
417792,note_off,,,,,256,0,1,,,,0,68,0
417792,set_tempo,,,,,512,1,0,,666666,,,,
417792,note_off,,,,,512,0,2,,,,1,44,0
418304,set_tempo,,,,,0,1,0,,750000,,,,
418304,set_tempo,,,,,512,1,0,,722891,,,,
418816,set_tempo,,,,,512,1,0,,779220,,,,
418816,set_tempo,,,,,0,1,0,,810810,,,,
419328,set_tempo,,,,,512,1,0,,845070,,,,
419328,set_tempo,,,,,0,1,0,,882352,,,,
419840,set_tempo,,,,,0,1,0,,937500,,,,
419840,set_tempo,,,,,0,1,0,,1000000,,,,
419840,key_signature,,,,,512,1,0,Db,,,,,
419840,note_on,,,,,0,0,2,,,,1,61,36
419840,note_on,,,,,2048,0,1,,,,0,65,49
419840,note_on,,,,,0,0,2,,,,1,56,36
419840,note_on,,,,,2048,0,2,,,,1,49,36
420045,note_off,,,,,205,0,2,,,,1,49,0
420045,note_off,,,,,0,0,2,,,,1,56,0
420045,note_off,,,,,0,0,2,,,,1,61,0
420096,note_off,,,,,256,0,1,,,,0,65,0
420096,note_on,,,,,0,0,1,,,,0,68,49
420352,note_on,,,,,0,0,1,,,,0,66,61
420352,note_on,,,,,0,0,1,,,,0,70,61
420352,note_off,,,,,256,0,1,,,,0,68,0
420352,note_on,,,,,0,0,2,,,,1,61,36
420352,note_on,,,,,0,0,2,,,,1,56,36
420352,note_on,,,,,307,0,2,,,,1,49,36
420762,note_off,,,,,0,0,2,,,,1,56,0
420762,note_off,,,,,410,0,2,,,,1,49,0
420762,note_off,,,,,0,0,2,,,,1,61,0
421376,note_off,,,,,1024,0,1,,,,0,66,0
421376,note_off,,,,,0,0,1,,,,0,70,0
421376,note_on,,,,,0,0,1,,,,0,65,49
421376,note_on,,,,,0,0,2,,,,1,61,36
421376,note_on,,,,,0,0,1,,,,0,68,49
421376,note_on,,,,,614,0,2,,,,1,49,36
421376,note_on,,,,,0,0,2,,,,1,56,36
421581,note_off,,,,,0,0,2,,,,1,61,0
421581,note_off,,,,,0,0,2,,,,1,56,0
421581,note_off,,,,,205,0,2,,,,1,49,0
421581,note_off,,,,,0,0,1,,,,0,68,0
421581,note_off,,,,,205,0,1,,,,0,65,0
421888,note_on,,,,,0,0,2,,,,1,61,36
421888,note_on,,,,,0,0,2,,,,1,56,36
421888,note_on,,,,,307,0,2,,,,1,49,36
421888,note_on,,,,,307,0,1,,,,0,65,49
422093,note_off,,,,,205,0,2,,,,1,49,0
422093,note_off,,,,,0,0,2,,,,1,56,0
422093,note_off,,,,,0,0,2,,,,1,61,0
422144,note_on,,,,,0,0,1,,,,0,68,49
422144,note_off,,,,,256,0,1,,,,0,65,0
422400,note_on,,,,,307,0,2,,,,1,49,36
422400,note_on,,,,,0,0,2,,,,1,56,36
422400,note_on,,,,,0,0,1,,,,0,70,61
422400,note_on,,,,,0,0,2,,,,1,61,36
422400,note_off,,,,,256,0,1,,,,0,68,0
422400,note_on,,,,,0,0,1,,,,0,66,61
422400,note_on,,,,,0,0,1,,,,0,73,61
422810,note_off,,,,,0,0,2,,,,1,61,0
422810,note_off,,,,,0,0,2,,,,1,56,0
422810,note_off,,,,,410,0,2,,,,1,49,0
423424,note_on,,,,,0,0,1,,,,0,68,49
423424,note_on,,,,,0,0,1,,,,0,65,49
423424,note_off,,,,,0,0,1,,,,0,73,0
423424,note_off,,,,,0,0,1,,,,0,70,0
423424,note_on,,,,,0,0,2,,,,1,56,36
423424,note_on,,,,,614,0,2,,,,1,49,36
423424,note_on,,,,,0,0,2,,,,1,61,36
423424,note_off,,,,,1024,0,1,,,,0,66,0
423629,note_off,,,,,0,0,2,,,,1,61,0
423629,note_off,,,,,205,0,2,,,,1,49,0
423629,note_off,,,,,205,0,1,,,,0,65,0
423629,note_off,,,,,0,0,1,,,,0,68,0
423629,note_off,,,,,0,0,2,,,,1,56,0
423936,note_on,,,,,0,0,1,,,,0,68,49
423936,note_on,,,,,0,0,2,,,,1,61,36
423936,note_on,,,,,307,0,2,,,,1,49,36
423936,key_signature,,,,,4096,1,0,E,,,,,
423936,note_on,,,,,307,0,1,,,,0,65,49
423936,note_on,,,,,0,0,2,,,,1,56,36
424448,set_tempo,,,,,0,1,0,,1111111,,,,
424448,set_tempo,,,,,512,1,0,,1052631,,,,
424960,note_off,,,,,0,0,2,,,,1,61,0
424960,note_off,,,,,0,0,2,,,,1,56,0
424960,note_off,,,,,1024,0,2,,,,1,49,0
424960,note_on,,,,,0,0,2,,,,1,44,112
424960,note_on,,,,,0,0,2,,,,1,54,112
424960,note_off,,,,,0,0,1,,,,0,68,0
424960,set_tempo,,,,,0,1,0,,1250000,,,,
424960,set_tempo,,,,,512,1,0,,1176470,,,,
424960,note_off,,,,,1024,0,1,,,,0,65,0
425216,note_on,,,,,0,0,2,,,,1,63,109
425216,note_off,,,,,256,0,2,,,,1,54,0
425472,set_tempo,,,,,512,1,0,,1333333,,,,
425472,set_tempo,,,,,0,1,0,,1428571,,,,
425472,note_off,,,,,0,0,2,,,,1,44,0
425472,note_on,,,,,0,0,2,,,,1,51,107
425472,note_off,,,,,256,0,2,,,,1,63,0
425472,note_on,,,,,0,0,2,,,,1,44,107
425728,note_on,,,,,0,0,2,,,,1,60,104
425728,note_off,,,,,256,0,2,,,,1,51,0
425984,note_off,,,,,0,0,2,,,,1,44,0
425984,note_off,,,,,256,0,2,,,,1,60,0
425984,set_tempo,,,,,0,1,0,,1764705,,,,
425984,set_tempo,,,,,512,1,0,,1578947,,,,
425984,note_on,,,,,0,0,2,,,,1,52,102
425984,note_on,,,,,0,0,2,,,,1,44,102
426240,note_off,,,,,256,0,2,,,,1,52,0
426240,note_on,,,,,0,0,2,,,,1,61,99
426496,note_on,,,,,0,0,2,,,,1,56,97
426496,note_off,,,,,0,0,2,,,,1,44,0
426496,note_on,,,,,0,0,2,,,,1,44,97
426496,note_off,,,,,256,0,2,,,,1,61,0
426496,set_tempo,,,,,0,1,0,,2142857,,,,
426496,set_tempo,,,,,512,1,0,,1935483,,,,
426752,note_off,,,,,256,0,2,,,,1,56,0
426752,note_on,,,,,0,0,2,,,,1,64,94
427008,note_on,,,,,0,0,2,,,,1,44,92
427008,set_tempo,,,,,0,1,0,,2727272,,,,
427008,set_tempo,,,,,512,1,0,,2400000,,,,
427008,note_off,,,,,256,0,2,,,,1,64,0
427008,note_on,,,,,0,0,2,,,,1,54,92
427008,note_off,,,,,0,0,2,,,,1,44,0
427264,note_off,,,,,256,0,2,,,,1,54,0
427264,note_on,,,,,0,0,2,,,,1,63,89
427520,note_on,,,,,0,0,2,,,,1,44,87
427520,note_off,,,,,0,0,2,,,,1,44,0
427520,note_off,,,,,256,0,2,,,,1,63,0
427520,note_on,,,,,0,0,2,,,,1,51,87
427520,set_tempo,,,,,0,1,0,,3750000,,,,
427520,set_tempo,,,,,512,1,0,,3157894,,,,
427776,note_off,,,,,256,0,2,,,,1,51,0
427776,note_on,,,,,0,0,2,,,,1,60,84
428032,note_on,,,,,0,0,2,,,,1,61,82
428032,note_on,,,,,0,0,2,,,,1,56,82
428032,note_on,,,,,0,0,2,,,,1,52,82
428032,note_on,,,,,0,0,2,,,,1,49,82
428032,note_on,,,,,0,0,2,,,,1,44,82
428032,note_on,,,,,0,0,2,,,,1,37,82
428032,note_off,,,,,256,0,2,,,,1,60,0
428032,set_tempo,,,,,0,1,0,,7500000,,,,
428032,set_tempo,,,,,512,1,0,,5000000,,,,
428032,note_off,,,,,0,0,2,,,,1,44,0
430080,note_off,,,,,0,0,2,,,,1,56,0
430080,note_off,,,,,0,0,2,,,,1,52,0
430080,note_off,,,,,0,0,2,,,,1,49,0
430080,note_off,,,,,0,0,2,,,,1,61,0
430080,note_off,,,,,2048,0,2,,,,1,37,0
430080,end_of_track,,,,,5120,1,1,,,,,,
430080,end_of_track,,,,,2048,1,0,,,,,,
430080,note_off,,,,,0,0,2,,,,1,44,0
430080,end_of_track,,,,,0,1,2,,,,,,
