tick,type,time,meta,track,numerator,denominator,clocks_per_click,notated_32nd_notes_per_beat,key,tempo,port,program,channel,control,value,note,velocity
0,track_name,0,1,0,,,,,,,,,,,,,
0,program_change,0,0,1,,,,,,,,0,0,,,,
0,control_change,0,0,1,,,,,,,,,0,7,100,,
0,control_change,0,0,1,,,,,,,,,0,91,127,,
0,text,0,1,1,,,,,,,,,,,,,
0,track_name,0,1,7,,,,,,,,,,,,,
0,midi_port,0,1,2,,,,,,,0,,,,,,
0,track_name,0,1,2,,,,,,,,,,,,,
0,program_change,0,0,2,,,,,,,,0,0,,,,
0,control_change,0,0,2,,,,,,,,,0,7,100,,
0,control_change,0,0,2,,,,,,,,,0,64,0,,
0,midi_port,0,1,3,,,,,,,0,,,,,,
0,track_name,0,1,3,,,,,,,,,,,,,
0,end_of_track,0,1,3,,,,,,,,,,,,,
0,midi_port,0,1,4,,,,,,,0,,,,,,
0,track_name,0,1,4,,,,,,,,,,,,,
0,end_of_track,0,1,4,,,,,,,,,,,,,
0,midi_port,0,1,5,,,,,,,0,,,,,,
0,track_name,0,1,5,,,,,,,,,,,,,
0,end_of_track,0,1,5,,,,,,,,,,,,,
0,midi_port,0,1,6,,,,,,,0,,,,,,
0,track_name,0,1,6,,,,,,,,,,,,,
0,end_of_track,0,1,6,,,,,,,,,,,,,
0,midi_port,0,1,7,,,,,,,0,,,,,,
0,track_name,0,1,1,,,,,,,,,,,,,
0,midi_port,0,1,1,,,,,,,0,,,,,,
0,end_of_track,0,1,7,,,,,,,,,,,,,
0,track_name,0,1,0,,,,,,,,,,,,,
0,set_tempo,0,1,0,,,,,,923077,,,,,,,
0,key_signature,0,1,0,,,,,Ab,,,,,,,,
0,time_signature,0,1,0,9,8,12,8,,,,,,,,,
0,text,0,1,0,,,,,,,,,,,,,
0,text,0,1,0,,,,,,,,,,,,,
0,text,0,1,0,,,,,,,,,,,,,
0,text,0,1,0,,,,,,,,,,,,,
0,text,0,1,0,,,,,,,,,,,,,
0,text,0,1,0,,,,,,,,,,,,,
0,copyright,0,1,0,,,,,,,,,,,,,
20,set_tempo,20,1,0,,,,,,819336,,,,,,,
1412,control_change,1412,0,2,,,,,,,,,0,64,0,,
1440,note_on,0,0,1,,,,,,,,,0,,,60,47
1440,control_change,0,0,2,,,,,,,,,0,91,127,,
1440,note_on,0,0,2,,,,,,,,,0,,,51,44
1440,note_on,28,0,2,,,,,,,,,0,,,44,44
1440,note_on,1440,0,1,,,,,,,,,0,,,68,47
1440,control_change,0,0,1,,,,,,,,,0,91,127,,
1440,note_on,0,0,1,,,,,,,,,0,,,72,52
1800,note_on,0,0,2,,,,,,,,,0,,,46,44
1800,note_on,360,0,1,,,,,,,,,0,,,67,47
1800,note_on,0,0,1,,,,,,,,,0,,,61,47
1800,note_on,0,0,1,,,,,,,,,0,,,73,52
1800,note_on,0,0,2,,,,,,,,,0,,,51,44
1800,note_on,360,0,2,,,,,,,,,0,,,51,0
1810,note_on,0,0,1,,,,,,,,,0,,,68,0
1810,note_on,0,0,1,,,,,,,,,0,,,72,0
1810,note_on,10,0,2,,,,,,,,,0,,,44,0
1810,note_on,10,0,1,,,,,,,,,0,,,60,0
1920,note_on,0,0,1,,,,,,,,,0,,,60,47
1920,set_tempo,1900,1,0,,,,,,959693,,,,,,,
1920,note_on,0,0,2,,,,,,,,,0,,,51,44
1920,note_on,0,0,2,,,,,,,,,0,,,44,44
1920,note_on,110,0,1,,,,,,,,,0,,,68,47
1920,note_on,0,0,1,,,,,,,,,0,,,72,52
1920,note_on,110,0,2,,,,,,,,,0,,,51,0
1930,note_on,10,0,2,,,,,,,,,0,,,46,0
1930,note_on,0,0,1,,,,,,,,,0,,,61,0
1930,note_on,0,0,1,,,,,,,,,0,,,73,0
1930,note_on,10,0,1,,,,,,,,,0,,,67,0
2152,set_tempo,232,1,0,,,,,,819336,,,,,,,
2160,note_on,0,0,2,,,,,,,,,0,,,44,0
2160,note_on,230,0,2,,,,,,,,,0,,,51,0
2160,note_on,0,0,1,,,,,,,,,0,,,67,38
2160,note_on,0,0,1,,,,,,,,,0,,,61,38
2160,note_on,230,0,1,,,,,,,,,0,,,68,0
2160,note_on,0,0,1,,,,,,,,,0,,,72,0
2160,note_on,0,0,1,,,,,,,,,0,,,60,0
2160,note_on,0,0,1,,,,,,,,,0,,,73,42
2160,note_on,0,0,2,,,,,,,,,0,,,51,37
2160,note_on,0,0,2,,,,,,,,,0,,,46,37
3600,note_on,0,0,2,,,,,,,,,0,,,44,44
3600,note_on,0,0,1,,,,,,,,,0,,,68,47
3600,note_on,0,0,2,,,,,,,,,0,,,51,0
3600,note_on,0,0,1,,,,,,,,,0,,,72,52
3600,note_on,0,0,1,,,,,,,,,0,,,60,47
3600,note_on,0,0,1,,,,,,,,,0,,,73,0
3600,note_on,0,0,1,,,,,,,,,0,,,61,0
3600,note_on,1440,0,2,,,,,,,,,0,,,46,0
3600,note_on,0,0,2,,,,,,,,,0,,,51,44
3600,note_on,1440,0,1,,,,,,,,,0,,,67,0
3960,note_on,360,0,1,,,,,,,,,0,,,61,47
3960,note_on,0,0,1,,,,,,,,,0,,,67,47
3960,note_on,0,0,2,,,,,,,,,0,,,46,44
3960,note_on,0,0,2,,,,,,,,,0,,,51,44
3960,note_on,360,0,2,,,,,,,,,0,,,51,0
3960,note_on,0,0,1,,,,,,,,,0,,,73,52
3970,note_on,10,0,2,,,,,,,,,0,,,44,0
3970,note_on,10,0,1,,,,,,,,,0,,,68,0
3970,note_on,0,0,1,,,,,,,,,0,,,72,0
3970,note_on,0,0,1,,,,,,,,,0,,,60,0
4080,note_on,0,0,2,,,,,,,,,0,,,51,44
4080,set_tempo,1928,1,0,,,,,,1065152,,,,,,,
4080,note_on,0,0,1,,,,,,,,,0,,,72,52
4080,note_on,0,0,1,,,,,,,,,0,,,68,47
4080,note_on,110,0,2,,,,,,,,,0,,,51,0
4080,note_on,110,0,1,,,,,,,,,0,,,60,47
4080,note_on,0,0,2,,,,,,,,,0,,,44,44
4090,note_on,10,0,2,,,,,,,,,0,,,46,0
4090,note_on,10,0,1,,,,,,,,,0,,,61,0
4090,note_on,0,0,1,,,,,,,,,0,,,67,0
4090,note_on,0,0,1,,,,,,,,,0,,,73,0
4320,note_on,230,0,1,,,,,,,,,0,,,60,0
4320,note_on,0,0,1,,,,,,,,,0,,,72,0
4320,note_on,230,0,2,,,,,,,,,0,,,51,0
4320,note_on,0,0,2,,,,,,,,,0,,,44,0
4320,note_on,0,0,2,,,,,,,,,0,,,51,37
4320,note_on,0,0,2,,,,,,,,,0,,,39,37
4320,note_on,0,0,1,,,,,,,,,0,,,70,45
4320,note_on,0,0,1,,,,,,,,,0,,,58,39
4320,note_on,0,0,1,,,,,,,,,0,,,67,39
4320,note_on,0,0,1,,,,,,,,,0,,,68,0
4328,set_tempo,248,1,0,,,,,,819336,,,,,,,
5760,note_on,0,0,1,,,,,,,,,0,,,67,0
5760,note_on,1440,0,2,,,,,,,,,0,,,39,0
5760,note_on,0,0,2,,,,,,,,,0,,,44,44
5760,note_on,0,0,2,,,,,,,,,0,,,51,44
5760,note_on,1440,0,1,,,,,,,,,0,,,70,0
5760,note_on,0,0,1,,,,,,,,,0,,,58,0
5760,note_on,0,0,1,,,,,,,,,0,,,68,47
5760,note_on,0,0,1,,,,,,,,,0,,,60,47
5760,note_on,0,0,1,,,,,,,,,0,,,72,52
5760,note_on,0,0,2,,,,,,,,,0,,,51,0
6120,note_on,360,0,1,,,,,,,,,0,,,67,47
6120,note_on,0,0,1,,,,,,,,,0,,,73,52
6120,note_on,0,0,1,,,,,,,,,0,,,61,47
6120,note_on,360,0,2,,,,,,,,,0,,,51,0
6120,note_on,0,0,2,,,,,,,,,0,,,46,44
6120,note_on,0,0,2,,,,,,,,,0,,,51,44
6130,note_on,0,0,1,,,,,,,,,0,,,60,0
6130,note_on,0,0,1,,,,,,,,,0,,,68,0
6130,note_on,10,0,1,,,,,,,,,0,,,72,0
6130,note_on,10,0,2,,,,,,,,,0,,,44,0
6240,note_on,0,0,1,,,,,,,,,0,,,68,47
6240,note_on,0,0,2,,,,,,,,,0,,,44,44
6240,note_on,0,0,1,,,,,,,,,0,,,60,47
6240,note_on,110,0,1,,,,,,,,,0,,,72,52
6240,note_on,0,0,2,,,,,,,,,0,,,51,44
6240,note_on,110,0,2,,,,,,,,,0,,,51,0
6250,note_on,10,0,2,,,,,,,,,0,,,46,0
6250,note_on,0,0,1,,,,,,,,,0,,,61,0
6250,note_on,10,0,1,,,,,,,,,0,,,67,0
6250,note_on,0,0,1,,,,,,,,,0,,,73,0
6480,note_on,0,0,1,,,,,,,,,0,,,60,41
6480,note_on,0,0,1,,,,,,,,,0,,,72,47
6480,note_on,0,0,1,,,,,,,,,0,,,68,0
6480,note_on,0,0,1,,,,,,,,,0,,,60,0
6480,note_on,0,0,1,,,,,,,,,0,,,68,41
6480,note_on,230,0,1,,,,,,,,,0,,,72,0
6480,note_on,0,0,2,,,,,,,,,0,,,51,0
6480,note_on,230,0,2,,,,,,,,,0,,,44,0
6480,note_on,0,0,2,,,,,,,,,0,,,44,39
6480,note_on,0,0,2,,,,,,,,,0,,,51,39
6840,note_on,0,0,1,,,,,,,,,0,,,67,50
6840,note_on,360,0,1,,,,,,,,,0,,,61,50
6840,note_on,360,0,2,,,,,,,,,0,,,51,0
6840,note_on,0,0,2,,,,,,,,,0,,,51,45
6840,note_on,0,0,2,,,,,,,,,0,,,46,45
6840,note_on,0,0,1,,,,,,,,,0,,,73,57
6850,note_on,10,0,1,,,,,,,,,0,,,68,0
6850,note_on,0,0,1,,,,,,,,,0,,,60,0
6850,note_on,0,0,1,,,,,,,,,0,,,72,0
6850,note_on,10,0,2,,,,,,,,,0,,,44,0
6960,note_on,0,0,1,,,,,,,,,0,,,68,53
6960,note_on,0,0,1,,,,,,,,,0,,,72,60
6960,note_on,110,0,1,,,,,,,,,0,,,60,53
6960,note_on,110,0,2,,,,,,,,,0,,,51,0
6960,note_on,0,0,2,,,,,,,,,0,,,51,49
6960,note_on,0,0,2,,,,,,,,,0,,,44,49
6970,note_on,0,0,1,,,,,,,,,0,,,67,0
6970,note_on,10,0,2,,,,,,,,,0,,,46,0
6970,note_on,10,0,1,,,,,,,,,0,,,61,0
6970,note_on,0,0,1,,,,,,,,,0,,,73,0
7000,set_tempo,2672,1,0,,,,,,1054667,,,,,,,
7200,note_on,0,0,1,,,,,,,,,0,,,63,59
7200,note_on,0,0,1,,,,,,,,,0,,,68,59
7200,note_on,0,0,1,,,,,,,,,0,,,68,0
7200,note_on,0,0,2,,,,,,,,,0,,,48,51
7200,note_on,230,0,1,,,,,,,,,0,,,60,0
7200,note_on,0,0,1,,,,,,,,,0,,,75,66
7200,note_on,230,0,2,,,,,,,,,0,,,51,0
7200,note_on,0,0,2,,,,,,,,,0,,,44,0
7200,note_on,0,0,1,,,,,,,,,0,,,72,0
7200,note_on,0,0,2,,,,,,,,,0,,,51,51
7208,set_tempo,208,1,0,,,,,,819336,,,,,,,
7800,note_on,0,0,1,,,,,,,,,0,,,63,0
7800,note_on,0,0,1,,,,,,,,,0,,,75,48
7800,note_on,0,0,1,,,,,,,,,0,,,63,42
7800,note_on,0,0,1,,,,,,,,,0,,,68,0
7800,note_on,600,0,1,,,,,,,,,0,,,75,0
7920,note_on,120,0,1,,,,,,,,,0,,,63,0
7920,note_on,0,0,1,,,,,,,,,0,,,75,0
7920,note_on,0,0,1,,,,,,,,,0,,,67,42
7920,note_on,0,0,1,,,,,,,,,0,,,61,42
7920,note_on,0,0,1,,,,,,,,,0,,,73,48
7920,note_on,720,0,2,,,,,,,,,0,,,48,0
7920,note_on,0,0,2,,,,,,,,,0,,,51,0
7920,note_on,0,0,2,,,,,,,,,0,,,46,37
7920,note_on,0,0,2,,,,,,,,,0,,,51,37
8520,note_on,0,0,1,,,,,,,,,0,,,73,0
8520,set_tempo,1312,1,0,,,,,,1054667,,,,,,,
8520,note_on,0,0,2,,,,,,,,,0,,,51,33
8520,note_on,0,0,2,,,,,,,,,0,,,44,33
8520,note_on,0,0,1,,,,,,,,,0,,,72,44
8520,note_on,0,0,1,,,,,,,,,0,,,68,39
8520,note_on,0,0,1,,,,,,,,,0,,,60,39
8520,note_on,0,0,1,,,,,,,,,0,,,67,0
8520,note_on,600,0,1,,,,,,,,,0,,,61,0
8520,note_on,0,0,2,,,,,,,,,0,,,46,0
8520,note_on,600,0,2,,,,,,,,,0,,,51,0
8632,set_tempo,112,1,0,,,,,,819336,,,,,,,
8640,note_on,120,0,1,,,,,,,,,0,,,72,0
8640,note_on,0,0,1,,,,,,,,,0,,,60,0
8640,note_on,0,0,1,,,,,,,,,0,,,60,36
8640,note_on,0,0,1,,,,,,,,,0,,,68,36
8640,note_on,0,0,1,,,,,,,,,0,,,72,40
8640,note_on,0,0,1,,,,,,,,,0,,,68,0
8640,note_on,120,0,2,,,,,,,,,0,,,51,0
8640,note_on,0,0,2,,,,,,,,,0,,,44,0
8640,note_on,0,0,2,,,,,,,,,0,,,51,33
8640,note_on,0,0,2,,,,,,,,,0,,,44,33
10080,note_on,0,0,1,,,,,,,,,0,,,60,0
10080,note_on,0,0,1,,,,,,,,,0,,,70,44
10080,note_on,0,0,1,,,,,,,,,0,,,58,39
10080,note_on,0,0,1,,,,,,,,,0,,,67,39
10080,note_on,0,0,1,,,,,,,,,0,,,72,0
10080,note_on,1440,0,1,,,,,,,,,0,,,68,0
10080,note_on,1440,0,2,,,,,,,,,0,,,44,0
10080,note_on,0,0,2,,,,,,,,,0,,,51,0
10080,note_on,0,0,2,,,,,,,,,0,,,39,36
10080,note_on,0,0,2,,,,,,,,,0,,,51,36
10440,note_on,0,0,2,,,,,,,,,0,,,44,37
10440,note_on,0,0,2,,,,,,,,,0,,,51,37
10440,note_on,360,0,2,,,,,,,,,0,,,51,0
10440,note_on,0,0,1,,,,,,,,,0,,,68,39
10440,note_on,0,0,1,,,,,,,,,0,,,59,39
10440,note_on,360,0,1,,,,,,,,,0,,,71,44
10450,note_on,0,0,1,,,,,,,,,0,,,58,0
10450,note_on,10,0,2,,,,,,,,,0,,,39,0
10450,note_on,0,0,1,,,,,,,,,0,,,67,0
10450,note_on,10,0,1,,,,,,,,,0,,,70,0
10560,note_on,110,0,1,,,,,,,,,0,,,67,39
10560,note_on,110,0,2,,,,,,,,,0,,,51,0
10560,note_on,0,0,1,,,,,,,,,0,,,58,39
10560,note_on,0,0,1,,,,,,,,,0,,,70,44
10560,note_on,0,0,2,,,,,,,,,0,,,51,37
10560,note_on,0,0,2,,,,,,,,,0,,,39,37
10570,note_on,10,0,1,,,,,,,,,0,,,71,0
10570,note_on,10,0,2,,,,,,,,,0,,,44,0
10570,note_on,0,0,1,,,,,,,,,0,,,68,0
10570,note_on,0,0,1,,,,,,,,,0,,,59,0
10800,note_on,230,0,1,,,,,,,,,0,,,67,0
10800,note_on,0,0,1,,,,,,,,,0,,,70,0
10800,note_on,0,0,1,,,,,,,,,0,,,58,0
10800,note_on,0,0,1,,,,,,,,,0,,,70,44
10800,note_on,0,0,1,,,,,,,,,0,,,58,39
10800,note_on,0,0,1,,,,,,,,,0,,,67,39
10800,note_on,0,0,2,,,,,,,,,0,,,39,37
10800,note_on,230,0,2,,,,,,,,,0,,,51,0
10800,note_on,0,0,2,,,,,,,,,0,,,39,0
10800,note_on,0,0,2,,,,,,,,,0,,,51,37
11160,note_on,0,0,2,,,,,,,,,0,,,44,36
11160,note_on,0,0,1,,,,,,,,,0,,,59,39
11160,note_on,360,0,1,,,,,,,,,0,,,68,39
11160,note_on,360,0,2,,,,,,,,,0,,,51,0
11160,note_on,0,0,2,,,,,,,,,0,,,51,36
11160,note_on,0,0,1,,,,,,,,,0,,,71,44
11170,note_on,10,0,1,,,,,,,,,0,,,67,0
11170,note_on,0,0,1,,,,,,,,,0,,,58,0
11170,note_on,0,0,1,,,,,,,,,0,,,70,0
11170,note_on,10,0,2,,,,,,,,,0,,,39,0
11280,note_on,110,0,2,,,,,,,,,0,,,51,0
11280,note_on,0,0,2,,,,,,,,,0,,,39,36
11280,note_on,0,0,2,,,,,,,,,0,,,51,36
11280,note_on,0,0,1,,,,,,,,,0,,,70,44
11280,note_on,0,0,1,,,,,,,,,0,,,67,39
11280,note_on,110,0,1,,,,,,,,,0,,,58,39
11280,set_tempo,2648,1,0,,,,,,1065152,,,,,,,
11290,note_on,10,0,1,,,,,,,,,0,,,68,0
11290,note_on,0,0,1,,,,,,,,,0,,,71,0
11290,note_on,0,0,1,,,,,,,,,0,,,59,0
11290,note_on,10,0,2,,,,,,,,,0,,,44,0
11520,set_tempo,240,1,0,,,,,,819336,,,,,,,
11520,note_on,0,0,2,,,,,,,,,0,,,39,0
11520,note_on,0,0,2,,,,,,,,,0,,,50,53
11520,note_on,0,0,2,,,,,,,,,0,,,38,53
11520,note_on,230,0,2,,,,,,,,,0,,,51,0
11520,note_on,230,0,1,,,,,,,,,0,,,58,0
11520,note_on,0,0,1,,,,,,,,,0,,,67,0
11520,note_on,0,0,1,,,,,,,,,0,,,70,0
11520,note_on,0,0,1,,,,,,,,,0,,,71,63
11520,note_on,0,0,1,,,,,,,,,0,,,65,57
11520,note_on,0,0,1,,,,,,,,,0,,,68,57
12960,note_on,1440,0,1,,,,,,,,,0,,,65,0
12960,note_on,1440,0,2,,,,,,,,,0,,,38,0
12960,note_on,0,0,2,,,,,,,,,0,,,50,0
12960,note_on,0,0,2,,,,,,,,,0,,,39,29
12960,note_on,0,0,2,,,,,,,,,0,,,51,29
12960,note_on,0,0,1,,,,,,,,,0,,,63,30
13680,note_on,0,0,1,,,,,,,,,0,,,70,30
13680,note_on,0,0,1,,,,,,,,,0,,,67,27
13680,note_on,0,0,1,,,,,,,,,0,,,71,0
13680,note_on,720,0,1,,,,,,,,,0,,,68,0
13920,note_on,0,0,1,,,,,,,,,0,,,63,0
13920,note_on,0,0,1,,,,,,,,,0,,,67,0
13920,note_on,0,0,2,,,,,,,,,0,,,39,0
13920,note_on,960,0,2,,,,,,,,,0,,,51,0
13920,note_on,240,0,1,,,,,,,,,0,,,70,0
14400,note_on,0,0,2,,,,,,,,,0,,,39,44
14400,note_on,480,0,2,,,,,,,,,0,,,51,44
14400,note_on,480,0,1,,,,,,,,,0,,,58,46
14400,note_on,0,0,1,,,,,,,,,0,,,66,46
14400,note_on,0,0,1,,,,,,,,,0,,,70,51
14760,note_on,360,0,2,,,,,,,,,0,,,51,0
14760,note_on,360,0,1,,,,,,,,,0,,,71,51
14760,note_on,0,0,1,,,,,,,,,0,,,68,46
14760,note_on,0,0,1,,,,,,,,,0,,,59,46
14760,note_on,0,0,2,,,,,,,,,0,,,51,44
14760,note_on,0,0,2,,,,,,,,,0,,,44,44
14770,note_on,10,0,1,,,,,,,,,0,,,70,0
14770,note_on,0,0,1,,,,,,,,,0,,,58,0
14770,note_on,0,0,1,,,,,,,,,0,,,66,0
14770,note_on,10,0,2,,,,,,,,,0,,,39,0
14880,note_on,110,0,1,,,,,,,,,0,,,70,51
14880,note_on,0,0,1,,,,,,,,,0,,,58,46
14880,note_on,110,0,2,,,,,,,,,0,,,51,0
14880,note_on,0,0,2,,,,,,,,,0,,,51,44
14880,note_on,0,0,2,,,,,,,,,0,,,39,44
14880,note_on,0,0,1,,,,,,,,,0,,,66,46
14890,note_on,10,0,1,,,,,,,,,0,,,71,0
14890,note_on,10,0,2,,,,,,,,,0,,,44,0
14890,note_on,0,0,1,,,,,,,,,0,,,68,0
14890,note_on,0,0,1,,,,,,,,,0,,,59,0
15120,note_on,230,0,2,,,,,,,,,0,,,39,0
15120,note_on,0,0,2,,,,,,,,,0,,,51,0
15120,note_on,0,0,2,,,,,,,,,0,,,39,44
15120,note_on,0,0,2,,,,,,,,,0,,,51,44
15120,note_on,0,0,1,,,,,,,,,0,,,66,45
15120,note_on,0,0,1,,,,,,,,,0,,,58,0
15120,note_on,230,0,1,,,,,,,,,0,,,70,0
15120,note_on,0,0,1,,,,,,,,,0,,,66,0
15120,note_on,0,0,1,,,,,,,,,0,,,58,45
15120,note_on,0,0,1,,,,,,,,,0,,,70,50
15360,note_on,0,0,2,,,,,,,,,0,,,42,47
15360,note_on,0,0,2,,,,,,,,,0,,,51,47
15360,note_on,0,0,2,,,,,,,,,0,,,39,0
15360,note_on,240,0,2,,,,,,,,,0,,,51,0
15360,note_on,0,0,1,,,,,,,,,0,,,75,55
15360,note_on,240,0,1,,,,,,,,,0,,,66,0
15360,note_on,0,0,1,,,,,,,,,0,,,58,0
15360,note_on,0,0,1,,,,,,,,,0,,,70,0
15360,note_on,0,0,1,,,,,,,,,0,,,63,49
15360,note_on,0,0,1,,,,,,,,,0,,,70,49
15600,note_on,0,0,2,,,,,,,,,0,,,51,0
15600,note_on,240,0,2,,,,,,,,,0,,,42,0
15600,set_tempo,4080,1,0,,,,,,986355,,,,,,,
15600,note_on,0,0,2,,,,,,,,,0,,,47,56
15600,note_on,240,0,1,,,,,,,,,0,,,75,0
15600,note_on,0,0,2,,,,,,,,,0,,,51,56
15600,note_on,0,0,1,,,,,,,,,0,,,75,59
15600,note_on,0,0,1,,,,,,,,,0,,,77,66
15600,note_on,0,0,1,,,,,,,,,0,,,65,59
15600,note_on,0,0,1,,,,,,,,,0,,,63,0
15600,note_on,0,0,1,,,,,,,,,0,,,70,0
15840,note_on,240,0,2,,,,,,,,,0,,,51,0
15840,note_on,0,0,1,,,,,,,,,0,,,78,68
15840,note_on,0,0,1,,,,,,,,,0,,,66,60
15840,note_on,0,0,1,,,,,,,,,0,,,75,60
15840,note_on,0,0,1,,,,,,,,,0,,,65,0
15840,note_on,0,0,1,,,,,,,,,0,,,77,0
15840,note_on,240,0,1,,,,,,,,,0,,,75,0
15840,note_on,0,0,2,,,,,,,,,0,,,47,0
15840,note_on,0,0,2,,,,,,,,,0,,,51,59
15840,note_on,0,0,2,,,,,,,,,0,,,46,59
15848,set_tempo,248,1,0,,,,,,819336,,,,,,,
16440,note_on,600,0,1,,,,,,,,,0,,,78,0
16440,note_on,0,0,1,,,,,,,,,0,,,78,61
16440,note_on,0,0,1,,,,,,,,,0,,,66,55
16440,note_on,0,0,1,,,,,,,,,0,,,66,0
16440,note_on,0,0,1,,,,,,,,,0,,,75,0
16560,note_on,0,0,1,,,,,,,,,0,,,78,0
16560,note_on,720,0,2,,,,,,,,,0,,,46,0
16560,note_on,0,0,1,,,,,,,,,0,,,74,46
16560,note_on,0,0,1,,,,,,,,,0,,,65,46
16560,note_on,0,0,2,,,,,,,,,0,,,51,0
16560,note_on,0,0,1,,,,,,,,,0,,,77,51
16560,note_on,0,0,2,,,,,,,,,0,,,46,42
16560,note_on,120,0,1,,,,,,,,,0,,,66,0
16560,note_on,0,0,2,,,,,,,,,0,,,56,42
17144,set_tempo,1296,1,0,,,,,,1054667,,,,,,,
17160,note_on,600,0,2,,,,,,,,,0,,,56,0
17160,note_on,0,0,2,,,,,,,,,0,,,46,0
17160,note_on,0,0,1,,,,,,,,,0,,,77,0
17160,note_on,0,0,2,,,,,,,,,0,,,55,29
17160,note_on,0,0,1,,,,,,,,,0,,,75,35
17160,note_on,600,0,1,,,,,,,,,0,,,74,0
17160,note_on,0,0,1,,,,,,,,,0,,,65,0
17160,note_on,0,0,1,,,,,,,,,0,,,63,30
17160,note_on,0,0,2,,,,,,,,,0,,,51,29
17272,set_tempo,128,1,0,,,,,,819336,,,,,,,
17280,note_on,120,0,1,,,,,,,,,0,,,75,0
17280,note_on,0,0,1,,,,,,,,,0,,,63,0
17280,note_on,0,0,1,,,,,,,,,0,,,75,35
17280,note_on,0,0,1,,,,,,,,,0,,,63,30
17280,note_on,0,0,2,,,,,,,,,0,,,51,0
17280,note_on,0,0,2,,,,,,,,,0,,,55,29
17280,note_on,0,0,2,,,,,,,,,0,,,51,29
17280,note_on,120,0,2,,,,,,,,,0,,,55,0
18720,note_on,0,0,2,,,,,,,,,0,,,55,0
18720,note_on,1440,0,2,,,,,,,,,0,,,51,0
18720,note_on,0,0,2,,,,,,,,,0,,,44,29
18720,note_on,0,0,2,,,,,,,,,0,,,51,29
18720,note_on,1440,0,1,,,,,,,,,0,,,63,0
18720,note_on,0,0,1,,,,,,,,,0,,,75,0
18720,note_on,0,0,1,,,,,,,,,0,,,72,35
18720,note_on,0,0,1,,,,,,,,,0,,,60,30
18720,note_on,0,0,1,,,,,,,,,0,,,68,30
19080,note_on,360,0,2,,,,,,,,,0,,,51,0
19080,note_on,360,0,1,,,,,,,,,0,,,61,30
19080,note_on,0,0,1,,,,,,,,,0,,,67,30
19080,note_on,0,0,1,,,,,,,,,0,,,73,35
19080,note_on,0,0,2,,,,,,,,,0,,,46,29
19080,note_on,0,0,2,,,,,,,,,0,,,51,29
19090,note_on,10,0,1,,,,,,,,,0,,,68,0
19090,note_on,0,0,1,,,,,,,,,0,,,72,0
19090,note_on,0,0,1,,,,,,,,,0,,,60,0
19090,note_on,10,0,2,,,,,,,,,0,,,44,0
19200,note_on,110,0,2,,,,,,,,,0,,,51,0
19200,note_on,0,0,2,,,,,,,,,0,,,44,28
19200,note_on,0,0,2,,,,,,,,,0,,,51,28
19200,note_on,0,0,1,,,,,,,,,0,,,68,30
19200,note_on,0,0,1,,,,,,,,,0,,,72,35
19200,note_on,110,0,1,,,,,,,,,0,,,60,30
19208,set_tempo,1936,1,0,,,,,,1065152,,,,,,,
19210,note_on,0,0,1,,,,,,,,,0,,,73,0
19210,note_on,10,0,2,,,,,,,,,0,,,46,0
19210,note_on,10,0,1,,,,,,,,,0,,,61,0
19210,note_on,0,0,1,,,,,,,,,0,,,67,0
19440,note_on,230,0,1,,,,,,,,,0,,,60,0
19440,note_on,0,0,1,,,,,,,,,0,,,72,0
19440,note_on,0,0,1,,,,,,,,,0,,,68,0
19440,note_on,0,0,1,,,,,,,,,0,,,67,25
19440,note_on,0,0,1,,,,,,,,,0,,,61,25
19440,note_on,0,0,1,,,,,,,,,0,,,73,28
19440,note_on,230,0,2,,,,,,,,,0,,,51,0
19440,note_on,0,0,2,,,,,,,,,0,,,44,0
19440,note_on,0,0,2,,,,,,,,,0,,,51,23
19440,note_on,0,0,2,,,,,,,,,0,,,46,23
19440,set_tempo,232,1,0,,,,,,819336,,,,,,,
20872,set_tempo,1432,1,0,,,,,,819336,,,,,,,
20880,note_on,0,0,1,,,,,,,,,0,,,72,35
20880,note_on,0,0,1,,,,,,,,,0,,,60,30
20880,note_on,0,0,2,,,,,,,,,0,,,51,29
20880,note_on,0,0,1,,,,,,,,,0,,,67,0
20880,note_on,0,0,1,,,,,,,,,0,,,61,0
20880,note_on,1440,0,1,,,,,,,,,0,,,73,0
20880,note_on,1440,0,2,,,,,,,,,0,,,46,0
20880,note_on,0,0,2,,,,,,,,,0,,,51,0
20880,note_on,0,0,1,,,,,,,,,0,,,68,30
20880,note_on,0,0,2,,,,,,,,,0,,,44,29
20920,set_tempo,48,1,0,,,,,,825764,,,,,,,
20960,set_tempo,40,1,0,,,,,,832178,,,,,,,
21000,set_tempo,40,1,0,,,,,,838692,,,,,,,
21048,set_tempo,48,1,0,,,,,,845428,,,,,,,
21088,set_tempo,40,1,0,,,,,,852152,,,,,,,
21128,set_tempo,40,1,0,,,,,,858984,,,,,,,
21176,set_tempo,48,1,0,,,,,,866051,,,,,,,
21216,set_tempo,40,1,0,,,,,,873108,,,,,,,
21240,note_on,360,0,2,,,,,,,,,0,,,51,0
21240,note_on,0,0,2,,,,,,,,,0,,,48,29
21240,note_on,0,0,2,,,,,,,,,0,,,51,29
21240,note_on,0,0,1,,,,,,,,,0,,,63,31
21240,note_on,360,0,1,,,,,,,,,0,,,75,36
21250,note_on,10,0,2,,,,,,,,,0,,,44,0
21250,note_on,0,0,1,,,,,,,,,0,,,68,0
21250,note_on,10,0,1,,,,,,,,,0,,,72,0
21250,note_on,0,0,1,,,,,,,,,0,,,60,0
21256,set_tempo,40,1,0,,,,,,880282,,,,,,,
21296,set_tempo,40,1,0,,,,,,887705,,,,,,,
21344,set_tempo,48,1,0,,,,,,895122,,,,,,,
21352,set_tempo,8,1,0,,,,,,1065152,,,,,,,
21360,note_on,110,0,2,,,,,,,,,0,,,51,0
21360,note_on,0,0,2,,,,,,,,,0,,,44,29
21360,note_on,0,0,2,,,,,,,,,0,,,51,29
21360,note_on,0,0,1,,,,,,,,,0,,,72,35
21360,note_on,0,0,1,,,,,,,,,0,,,68,30
21360,note_on,110,0,1,,,,,,,,,0,,,60,30
21370,note_on,0,0,1,,,,,,,,,0,,,63,0
21370,note_on,10,0,2,,,,,,,,,0,,,48,0
21370,note_on,10,0,1,,,,,,,,,0,,,75,0
21592,set_tempo,240,1,0,,,,,,942655,,,,,,,
21600,note_on,230,0,2,,,,,,,,,0,,,44,0
21600,note_on,0,0,2,,,,,,,,,0,,,51,0
21600,note_on,0,0,2,,,,,,,,,0,,,39,23
21600,note_on,0,0,2,,,,,,,,,0,,,51,23
21600,note_on,230,0,1,,,,,,,,,0,,,68,0
21600,note_on,0,0,1,,,,,,,,,0,,,60,0
21600,note_on,0,0,1,,,,,,,,,0,,,72,0
21600,note_on,0,0,1,,,,,,,,,0,,,58,25
21600,note_on,0,0,1,,,,,,,,,0,,,70,28
21600,note_on,0,0,1,,,,,,,,,0,,,67,25
21600,set_tempo,8,1,0,,,,,,819336,,,,,,,
23040,note_on,0,0,2,,,,,,,,,0,,,51,28
23040,note_on,1440,0,1,,,,,,,,,0,,,67,0
23040,note_on,0,0,1,,,,,,,,,0,,,70,0
23040,note_on,0,0,1,,,,,,,,,0,,,58,0
23040,note_on,0,0,1,,,,,,,,,0,,,68,29
23040,note_on,0,0,1,,,,,,,,,0,,,60,29
23040,note_on,0,0,1,,,,,,,,,0,,,72,34
23040,note_on,1440,0,2,,,,,,,,,0,,,51,0
23040,note_on,0,0,2,,,,,,,,,0,,,39,0
23040,note_on,0,0,2,,,,,,,,,0,,,44,28
23400,note_on,360,0,1,,,,,,,,,0,,,67,29
23400,note_on,0,0,1,,,,,,,,,0,,,73,34
23400,note_on,0,0,2,,,,,,,,,0,,,51,29
23400,note_on,0,0,2,,,,,,,,,0,,,46,29
23400,note_on,360,0,2,,,,,,,,,0,,,51,0
23400,note_on,0,0,1,,,,,,,,,0,,,61,29
23410,note_on,10,0,2,,,,,,,,,0,,,44,0
23410,note_on,0,0,1,,,,,,,,,0,,,68,0
23410,note_on,10,0,1,,,,,,,,,0,,,72,0
23410,note_on,0,0,1,,,,,,,,,0,,,60,0
23520,note_on,0,0,1,,,,,,,,,0,,,72,34
23520,note_on,0,0,2,,,,,,,,,0,,,44,29
23520,note_on,0,0,2,,,,,,,,,0,,,51,29
23520,note_on,110,0,1,,,,,,,,,0,,,68,29
23520,note_on,0,0,1,,,,,,,,,0,,,60,29
23520,note_on,110,0,2,,,,,,,,,0,,,51,0
23530,note_on,0,0,1,,,,,,,,,0,,,61,0
23530,note_on,0,0,1,,,,,,,,,0,,,73,0
23530,note_on,10,0,1,,,,,,,,,0,,,67,0
23530,note_on,10,0,2,,,,,,,,,0,,,46,0
23760,note_on,0,0,1,,,,,,,,,0,,,60,0
23760,note_on,0,0,1,,,,,,,,,0,,,72,0
23760,note_on,230,0,1,,,,,,,,,0,,,68,0
23760,note_on,0,0,1,,,,,,,,,0,,,60,27
23760,note_on,0,0,1,,,,,,,,,0,,,68,27
23760,note_on,230,0,2,,,,,,,,,0,,,44,0
23760,note_on,0,0,2,,,,,,,,,0,,,51,0
23760,note_on,0,0,1,,,,,,,,,0,,,72,30
23760,note_on,0,0,2,,,,,,,,,0,,,44,25
23760,note_on,0,0,2,,,,,,,,,0,,,51,25
24120,note_on,360,0,2,,,,,,,,,0,,,51,0
24120,note_on,0,0,1,,,,,,,,,0,,,68,39
24120,note_on,0,0,2,,,,,,,,,0,,,51,33
24120,note_on,0,0,1,,,,,,,,,0,,,65,39
24120,note_on,360,0,1,,,,,,,,,0,,,77,44
24120,note_on,0,0,2,,,,,,,,,0,,,49,33
24130,note_on,10,0,2,,,,,,,,,0,,,44,0
24130,note_on,0,0,1,,,,,,,,,0,,,60,0
24130,note_on,10,0,1,,,,,,,,,0,,,68,0
24130,note_on,0,0,1,,,,,,,,,0,,,72,0
24240,note_on,0,0,1,,,,,,,,,0,,,68,41
24240,note_on,0,0,2,,,,,,,,,0,,,51,37
24240,note_on,0,0,2,,,,,,,,,0,,,48,37
24240,set_tempo,2640,1,0,,,,,,1004857,,,,,,,
24240,note_on,110,0,1,,,,,,,,,0,,,68,0
24240,note_on,0,0,1,,,,,,,,,0,,,63,41
24240,note_on,0,0,1,,,,,,,,,0,,,75,47
24240,note_on,110,0,2,,,,,,,,,0,,,51,0
24250,note_on,10,0,1,,,,,,,,,0,,,65,0
24250,note_on,0,0,1,,,,,,,,,0,,,77,0
24250,note_on,10,0,2,,,,,,,,,0,,,49,0
24480,note_on,230,0,2,,,,,,,,,0,,,48,0
24480,note_on,0,0,2,,,,,,,,,0,,,51,0
24480,note_on,0,0,2,,,,,,,,,0,,,48,42
24480,note_on,0,0,2,,,,,,,,,0,,,51,42
24480,note_on,230,0,1,,,,,,,,,0,,,75,0
24480,note_on,0,0,1,,,,,,,,,0,,,68,0
24480,note_on,0,0,1,,,,,,,,,0,,,63,46
24480,note_on,0,0,1,,,,,,,,,0,,,63,0
24480,note_on,0,0,1,,,,,,,,,0,,,68,46
24480,note_on,0,0,1,,,,,,,,,0,,,75,51
24488,set_tempo,248,1,0,,,,,,819336,,,,,,,
25080,note_on,0,0,1,,,,,,,,,0,,,75,0
25080,note_on,0,0,1,,,,,,,,,0,,,63,47
25080,note_on,0,0,1,,,,,,,,,0,,,75,52
25080,note_on,600,0,1,,,,,,,,,0,,,68,0
25080,note_on,0,0,1,,,,,,,,,0,,,63,0
25200,note_on,0,0,1,,,,,,,,,0,,,75,0
25200,note_on,120,0,1,,,,,,,,,0,,,63,0
25200,note_on,0,0,1,,,,,,,,,0,,,73,52
25200,note_on,0,0,1,,,,,,,,,0,,,61,47
25200,note_on,0,0,1,,,,,,,,,0,,,67,47
25200,note_on,0,0,2,,,,,,,,,0,,,51,44
25200,note_on,720,0,2,,,,,,,,,0,,,51,0
25200,note_on,0,0,2,,,,,,,,,0,,,46,44
25200,note_on,0,0,2,,,,,,,,,0,,,48,0
25800,note_on,0,0,1,,,,,,,,,0,,,60,24
25800,note_on,0,0,2,,,,,,,,,0,,,51,23
25800,note_on,0,0,2,,,,,,,,,0,,,44,23
25800,note_on,0,0,2,,,,,,,,,0,,,51,0
25800,note_on,600,0,2,,,,,,,,,0,,,46,0
25800,note_on,600,0,1,,,,,,,,,0,,,67,0
25800,note_on,0,0,1,,,,,,,,,0,,,73,0
25800,note_on,0,0,1,,,,,,,,,0,,,72,27
25800,note_on,0,0,1,,,,,,,,,0,,,68,24
25800,note_on,0,0,1,,,,,,,,,0,,,61,0
25808,set_tempo,1320,1,0,,,,,,1054667,,,,,,,
25920,note_on,120,0,2,,,,,,,,,0,,,51,0
25920,note_on,0,0,2,,,,,,,,,0,,,44,0
25920,note_on,0,0,1,,,,,,,,,0,,,72,27
25920,note_on,0,0,1,,,,,,,,,0,,,68,24
25920,note_on,0,0,1,,,,,,,,,0,,,60,24
25920,note_on,0,0,1,,,,,,,,,0,,,72,0
25920,note_on,120,0,1,,,,,,,,,0,,,68,0
25920,note_on,0,0,1,,,,,,,,,0,,,60,0
25920,note_on,0,0,2,,,,,,,,,0,,,44,22
25920,note_on,0,0,2,,,,,,,,,0,,,51,22
25920,set_tempo,112,1,0,,,,,,819336,,,,,,,
27360,note_on,0,0,2,,,,,,,,,0,,,39,36
27360,note_on,0,0,1,,,,,,,,,0,,,70,44
27360,note_on,0,0,2,,,,,,,,,0,,,51,0
27360,note_on,1440,0,2,,,,,,,,,0,,,44,0
27360,note_on,1440,0,1,,,,,,,,,0,,,72,0
27360,note_on,0,0,1,,,,,,,,,0,,,68,0
27360,note_on,0,0,1,,,,,,,,,0,,,60,0
27360,note_on,0,0,2,,,,,,,,,0,,,51,36
27360,note_on,0,0,1,,,,,,,,,0,,,67,39
27360,note_on,0,0,1,,,,,,,,,0,,,58,39
27720,note_on,0,0,2,,,,,,,,,0,,,51,37
27720,note_on,0,0,2,,,,,,,,,0,,,44,37
27720,note_on,360,0,2,,,,,,,,,0,,,51,0
27720,note_on,360,0,1,,,,,,,,,0,,,71,44
27720,note_on,0,0,1,,,,,,,,,0,,,59,39
27720,note_on,0,0,1,,,,,,,,,0,,,68,39
27730,note_on,0,0,1,,,,,,,,,0,,,58,0
27730,note_on,10,0,2,,,,,,,,,0,,,39,0
27730,note_on,10,0,1,,,,,,,,,0,,,67,0
27730,note_on,0,0,1,,,,,,,,,0,,,70,0
27840,note_on,0,0,2,,,,,,,,,0,,,39,37
27840,note_on,110,0,2,,,,,,,,,0,,,51,0
27840,note_on,110,0,1,,,,,,,,,0,,,67,39
27840,note_on,0,0,1,,,,,,,,,0,,,58,39
27840,note_on,0,0,1,,,,,,,,,0,,,70,44
27840,note_on,0,0,2,,,,,,,,,0,,,51,37
27850,note_on,0,0,1,,,,,,,,,0,,,59,0
27850,note_on,0,0,1,,,,,,,,,0,,,68,0
27850,note_on,10,0,1,,,,,,,,,0,,,71,0
27850,note_on,10,0,2,,,,,,,,,0,,,44,0
28080,note_on,0,0,1,,,,,,,,,0,,,67,39
28080,note_on,230,0,2,,,,,,,,,0,,,39,0
28080,note_on,0,0,2,,,,,,,,,0,,,51,0
28080,note_on,0,0,2,,,,,,,,,0,,,51,37
28080,note_on,0,0,2,,,,,,,,,0,,,39,37
28080,note_on,0,0,1,,,,,,,,,0,,,70,44
28080,note_on,0,0,1,,,,,,,,,0,,,58,39
28080,note_on,230,0,1,,,,,,,,,0,,,67,0
28080,note_on,0,0,1,,,,,,,,,0,,,58,0
28080,note_on,0,0,1,,,,,,,,,0,,,70,0
28440,note_on,0,0,1,,,,,,,,,0,,,71,44
28440,note_on,0,0,2,,,,,,,,,0,,,44,36
28440,note_on,360,0,2,,,,,,,,,0,,,51,0
28440,note_on,0,0,2,,,,,,,,,0,,,51,36
28440,note_on,360,0,1,,,,,,,,,0,,,68,39
28440,note_on,0,0,1,,,,,,,,,0,,,59,39
28450,note_on,10,0,2,,,,,,,,,0,,,39,0
28450,note_on,0,0,1,,,,,,,,,0,,,70,0
28450,note_on,0,0,1,,,,,,,,,0,,,67,0
28450,note_on,10,0,1,,,,,,,,,0,,,58,0
28560,set_tempo,2640,1,0,,,,,,1076040,,,,,,,
28560,note_on,0,0,2,,,,,,,,,0,,,51,36
28560,note_on,0,0,1,,,,,,,,,0,,,67,39
28560,note_on,0,0,1,,,,,,,,,0,,,58,39
28560,note_on,110,0,2,,,,,,,,,0,,,51,0
28560,note_on,0,0,2,,,,,,,,,0,,,39,36
28560,note_on,110,0,1,,,,,,,,,0,,,70,44
28570,note_on,10,0,2,,,,,,,,,0,,,44,0
28570,note_on,0,0,1,,,,,,,,,0,,,71,0
28570,note_on,0,0,1,,,,,,,,,0,,,59,0
28570,note_on,10,0,1,,,,,,,,,0,,,68,0
28792,set_tempo,232,1,0,,,,,,819336,,,,,,,
28800,note_on,0,0,2,,,,,,,,,0,,,50,51
28800,note_on,230,0,2,,,,,,,,,0,,,51,0
28800,note_on,0,0,2,,,,,,,,,0,,,39,0
28800,note_on,0,0,2,,,,,,,,,0,,,38,51
28800,note_on,0,0,1,,,,,,,,,0,,,58,0
28800,note_on,230,0,1,,,,,,,,,0,,,70,0
28800,note_on,0,0,1,,,,,,,,,0,,,65,56
28800,note_on,0,0,1,,,,,,,,,0,,,68,56
28800,note_on,0,0,1,,,,,,,,,0,,,71,62
28800,note_on,0,0,1,,,,,,,,,0,,,67,0
29520,note_on,720,0,1,,,,,,,,,0,,,71,0
29520,note_on,0,0,1,,,,,,,,,0,,,68,0
29520,note_on,0,0,1,,,,,,,,,0,,,65,0
29520,note_on,0,0,1,,,,,,,,,0,,,77,61
29520,note_on,0,0,1,,,,,,,,,0,,,68,55
29520,note_on,0,0,1,,,,,,,,,0,,,71,55
30000,note_on,480,0,1,,,,,,,,,0,,,71,0
30000,note_on,0,0,1,,,,,,,,,0,,,68,0
30120,note_on,0,0,1,,,,,,,,,0,,,75,42
30120,note_on,120,0,1,,,,,,,,,0,,,77,0
30128,set_tempo,1336,1,0,,,,,,1076040,,,,,,,
30232,set_tempo,104,1,0,,,,,,819336,,,,,,,
30240,note_on,0,0,2,,,,,,,,,0,,,51,36
30240,note_on,0,0,2,,,,,,,,,0,,,50,0
30240,note_on,0,0,1,,,,,,,,,0,,,71,38
30240,note_on,0,0,1,,,,,,,,,0,,,68,38
30240,note_on,0,0,1,,,,,,,,,0,,,75,42
30240,note_on,120,0,1,,,,,,,,,0,,,75,0
30240,note_on,1440,0,2,,,,,,,,,0,,,38,0
30240,note_on,0,0,2,,,,,,,,,0,,,39,36
30240,set_tempo,8,1,0,,,,,,857143,,,,,,,
30260,set_tempo,20,1,0,,,,,,863309,,,,,,,
30360,set_tempo,100,1,0,,,,,,869565,,,,,,,
30460,set_tempo,100,1,0,,,,,,875912,,,,,,,
30540,set_tempo,80,1,0,,,,,,882353,,,,,,,
30640,set_tempo,100,1,0,,,,,,888889,,,,,,,
30720,set_tempo,80,1,0,,,,,,895522,,,,,,,
30820,set_tempo,100,1,0,,,,,,902256,,,,,,,
30920,set_tempo,100,1,0,,,,,,909091,,,,,,,
30960,note_on,0,0,1,,,,,,,,,0,,,70,28
30960,note_on,720,0,1,,,,,,,,,0,,,71,0
30960,note_on,0,0,1,,,,,,,,,0,,,68,0
30960,note_on,0,0,1,,,,,,,,,0,,,67,25
31000,set_tempo,80,1,0,,,,,,916031,,,,,,,
31100,set_tempo,100,1,0,,,,,,923077,,,,,,,
31180,set_tempo,80,1,0,,,,,,930233,,,,,,,
31200,note_on,0,0,1,,,,,,,,,0,,,67,0
31200,note_on,240,0,1,,,,,,,,,0,,,70,0
31200,note_on,0,0,2,,,,,,,,,0,,,39,0
31200,note_on,960,0,2,,,,,,,,,0,,,51,0
31200,note_on,0,0,1,,,,,,,,,0,,,75,0
31220,set_tempo,40,1,0,,,,,,882353,,,,,,,
31680,set_tempo,460,1,0,,,,,,887705,,,,,,,
31680,note_on,480,0,1,,,,,,,,,0,,,60,30
31680,note_on,0,0,1,,,,,,,,,0,,,66,30
31680,note_on,0,0,1,,,,,,,,,0,,,75,35
31680,note_on,0,0,1,,,,,,,,,0,,,69,30
32040,note_on,360,0,1,,,,,,,,,0,,,77,35
32050,note_on,10,0,1,,,,,,,,,0,,,75,0
32160,note_on,0,0,1,,,,,,,,,0,,,60,30
32160,note_on,0,0,1,,,,,,,,,0,,,69,30
32160,note_on,0,0,1,,,,,,,,,0,,,66,30
32160,note_on,0,0,1,,,,,,,,,0,,,60,0
32160,note_on,0,0,1,,,,,,,,,0,,,66,0
32160,note_on,110,0,1,,,,,,,,,0,,,69,0
32160,note_on,0,0,1,,,,,,,,,0,,,75,35
32170,note_on,10,0,1,,,,,,,,,0,,,77,0
32400,note_on,0,0,1,,,,,,,,,0,,,61,30
32400,set_tempo,720,1,0,,,,,,882353,,,,,,,
32400,note_on,230,0,1,,,,,,,,,0,,,60,0
32400,note_on,0,0,1,,,,,,,,,0,,,75,0
32400,note_on,0,0,1,,,,,,,,,0,,,69,0
32400,note_on,0,0,1,,,,,,,,,0,,,66,0
32400,note_on,0,0,1,,,,,,,,,0,,,68,30
32400,note_on,0,0,1,,,,,,,,,0,,,66,30
32400,note_on,0,0,1,,,,,,,,,0,,,75,35
32540,set_tempo,140,1,0,,,,,,888889,,,,,,,
32680,set_tempo,140,1,0,,,,,,895522,,,,,,,
32820,set_tempo,140,1,0,,,,,,902256,,,,,,,
32880,note_on,0,0,1,,,,,,,,,0,,,72,35
32880,note_on,0,0,1,,,,,,,,,0,,,68,0
32880,note_on,480,0,1,,,,,,,,,0,,,75,0
32960,set_tempo,140,1,0,,,,,,909091,,,,,,,
33080,set_tempo,120,1,0,,,,,,916031,,,,,,,
33120,note_on,0,0,1,,,,,,,,,0,,,68,30
33120,note_on,0,0,1,,,,,,,,,0,,,65,30
33120,note_on,0,0,1,,,,,,,,,0,,,73,35
33120,note_on,0,0,1,,,,,,,,,0,,,66,0
33120,note_on,240,0,1,,,,,,,,,0,,,72,0
33120,set_tempo,40,1,0,,,,,,819336,,,,,,,
33360,note_on,0,0,1,,,,,,,,,0,,,73,0
33360,note_on,0,0,1,,,,,,,,,0,,,61,0
33360,note_on,240,0,1,,,,,,,,,0,,,68,0
33360,note_on,0,0,1,,,,,,,,,0,,,65,0
33840,note_on,0,0,1,,,,,,,,,0,,,65,56
33840,set_tempo,720,1,0,,,,,,813118,,,,,,,
33840,note_on,0,0,1,,,,,,,,,0,,,73,62
33840,note_on,2640,0,2,,,,,,,,,0,,,47,50
33840,note_on,0,0,2,,,,,,,,,0,,,35,50
33840,note_on,480,0,1,,,,,,,,,0,,,68,56
33952,set_tempo,112,1,0,,,,,,819336,,,,,,,
34064,set_tempo,112,1,0,,,,,,825764,,,,,,,
34168,set_tempo,104,1,0,,,,,,832178,,,,,,,
34200,note_on,360,0,1,,,,,,,,,0,,,75,62
34210,note_on,10,0,1,,,,,,,,,0,,,73,0
34280,set_tempo,112,1,0,,,,,,838692,,,,,,,
34320,note_on,0,0,1,,,,,,,,,0,,,73,62
34320,note_on,110,0,1,,,,,,,,,0,,,68,0
34320,note_on,0,0,2,,,,,,,,,0,,,47,50
34320,note_on,0,0,2,,,,,,,,,0,,,47,0
34320,note_on,480,0,2,,,,,,,,,0,,,35,0
34320,note_on,0,0,1,,,,,,,,,0,,,65,0
34320,note_on,0,0,1,,,,,,,,,0,,,65,56
34320,note_on,0,0,2,,,,,,,,,0,,,35,50
34320,note_on,0,0,1,,,,,,,,,0,,,68,56
34330,note_on,10,0,1,,,,,,,,,0,,,75,0
34392,set_tempo,112,1,0,,,,,,845428,,,,,,,
34496,set_tempo,104,1,0,,,,,,852152,,,,,,,
34560,note_on,0,0,1,,,,,,,,,0,,,68,0
34560,note_on,0,0,2,,,,,,,,,0,,,46,48
34560,note_on,0,0,2,,,,,,,,,0,,,35,0
34560,note_on,240,0,2,,,,,,,,,0,,,47,0
34560,note_on,0,0,1,,,,,,,,,0,,,66,56
34560,note_on,0,0,1,,,,,,,,,0,,,75,62
34560,note_on,0,0,1,,,,,,,,,0,,,73,0
34560,note_on,0,0,2,,,,,,,,,0,,,34,48
34560,note_on,230,0,1,,,,,,,,,0,,,65,0
34608,set_tempo,112,1,0,,,,,,858984,,,,,,,
34720,set_tempo,112,1,0,,,,,,866051,,,,,,,
34824,set_tempo,104,1,0,,,,,,873108,,,,,,,
34920,note_on,360,0,1,,,,,,,,,0,,,73,63
34930,note_on,10,0,1,,,,,,,,,0,,,75,0
34936,set_tempo,112,1,0,,,,,,880282,,,,,,,
35040,set_tempo,104,1,0,,,,,,1065152,,,,,,,
35040,note_on,110,0,1,,,,,,,,,0,,,73,0
35040,note_on,480,0,2,,,,,,,,,0,,,34,0
35040,note_on,0,0,1,,,,,,,,,0,,,66,0
35040,note_on,0,0,1,,,,,,,,,0,,,66,57
35040,note_on,0,0,1,,,,,,,,,0,,,73,63
35040,note_on,0,0,2,,,,,,,,,0,,,46,0
35040,note_on,0,0,2,,,,,,,,,0,,,33,61
35040,note_on,0,0,2,,,,,,,,,0,,,45,61
35100,note_on,60,0,1,,,,,,,,,0,,,73,0
35160,note_on,60,0,1,,,,,,,,,0,,,73,62
35280,note_on,240,0,2,,,,,,,,,0,,,45,0
35280,note_on,0,0,2,,,,,,,,,0,,,33,0
35280,note_on,0,0,2,,,,,,,,,0,,,32,63
35280,note_on,0,0,2,,,,,,,,,0,,,44,63
35280,note_on,0,0,1,,,,,,,,,0,,,73,59
35280,note_on,0,0,1,,,,,,,,,0,,,66,59
35280,note_on,0,0,1,,,,,,,,,0,,,78,67
35280,note_on,0,0,1,,,,,,,,,0,,,66,0
35280,note_on,120,0,1,,,,,,,,,0,,,73,0
35288,set_tempo,248,1,0,,,,,,819336,,,,,,,
35760,note_on,480,0,1,,,,,,,,,0,,,78,0
35760,note_on,0,0,1,,,,,,,,,0,,,77,62
35880,note_on,120,0,1,,,,,,,,,0,,,77,0
35880,note_on,0,0,1,,,,,,,,,0,,,77,50
35880,set_tempo,592,1,0,,,,,,1065152,,,,,,,
35992,set_tempo,112,1,0,,,,,,819336,,,,,,,
36000,note_on,0,0,2,,,,,,,,,0,,,56,42
36000,note_on,0,0,2,,,,,,,,,0,,,44,42
36000,note_on,0,0,1,,,,,,,,,0,,,66,45
36000,note_on,0,0,1,,,,,,,,,0,,,75,51
36000,note_on,720,0,2,,,,,,,,,0,,,44,0
36000,note_on,0,0,1,,,,,,,,,0,,,72,45
36000,note_on,0,0,1,,,,,,,,,0,,,66,0
36000,note_on,0,0,1,,,,,,,,,0,,,73,0
36000,note_on,120,0,1,,,,,,,,,0,,,77,0
36000,note_on,0,0,2,,,,,,,,,0,,,32,0
36592,set_tempo,600,1,0,,,,,,1183665,,,,,,,
36600,note_on,0,0,2,,,,,,,,,0,,,56,36
36600,note_on,0,0,2,,,,,,,,,0,,,49,36
36600,note_on,0,0,2,,,,,,,,,0,,,44,0
36600,note_on,600,0,2,,,,,,,,,0,,,56,0
36600,note_on,0,0,1,,,,,,,,,0,,,72,0
36600,note_on,0,0,1,,,,,,,,,0,,,73,42
36600,note_on,0,0,1,,,,,,,,,0,,,65,39
36600,note_on,0,0,1,,,,,,,,,0,,,66,0
36600,note_on,600,0,1,,,,,,,,,0,,,75,0
36720,note_on,0,0,1,,,,,,,,,0,,,65,39
36720,note_on,0,0,1,,,,,,,,,0,,,65,0
36720,note_on,120,0,1,,,,,,,,,0,,,73,0
36720,note_on,120,0,2,,,,,,,,,0,,,56,0
36720,note_on,0,0,2,,,,,,,,,0,,,49,0
36720,note_on,0,0,2,,,,,,,,,0,,,56,36
36720,note_on,0,0,2,,,,,,,,,0,,,49,36
36720,set_tempo,128,1,0,,,,,,819336,,,,,,,
36720,note_on,0,0,1,,,,,,,,,0,,,73,42
38860,set_tempo,2140,1,0,,,,,,560590,,,,,,,
38880,note_on,2160,0,2,,,,,,,,,0,,,49,0
38880,set_tempo,0,1,0,,,,,,593003,,,,,,,
38880,note_on,0,0,2,,,,,,,,,0,,,56,0
38880,control_change,0,0,2,,,,,,,,,0,91,127,,
38880,key_signature,20,1,0,,,,,A,,,,,,,,
38880,note_on,2160,0,1,,,,,,,,,0,,,73,0
38880,note_on,0,0,1,,,,,,,,,0,,,65,0
38880,note_on,0,0,1,,,,,,,,,0,,,73,36
38880,control_change,0,0,1,,,,,,,,,0,91,127,,
38880,note_on,0,0,2,,,,,,,,,0,,,42,35
38884,set_tempo,4,1,0,,,,,,668077,,,,,,,
38888,control_change,8,0,2,,,,,,,,,0,64,127,,
38900,set_tempo,16,1,0,,,,,,649491,,,,,,,
39000,note_on,112,0,2,,,,,,,,,0,,,42,0
39120,note_on,120,0,2,,,,,,,,,0,,,49,26
39360,note_on,240,0,2,,,,,,,,,0,,,49,0
39360,note_on,0,0,2,,,,,,,,,0,,,57,26
39600,note_on,240,0,2,,,,,,,,,0,,,57,0
39600,note_on,0,0,1,,,,,,,,,0,,,73,35
39600,note_on,720,0,1,,,,,,,,,0,,,73,0
39600,note_on,0,0,2,,,,,,,,,0,,,42,35
39720,note_on,120,0,2,,,,,,,,,0,,,42,0
39840,note_on,120,0,2,,,,,,,,,0,,,49,26
40080,note_on,240,0,2,,,,,,,,,0,,,49,0
40080,note_on,0,0,2,,,,,,,,,0,,,57,26
40320,note_on,0,0,1,,,,,,,,,0,,,73,34
40320,note_on,0,0,2,,,,,,,,,0,,,42,35
40320,note_on,240,0,2,,,,,,,,,0,,,57,0
40320,note_on,720,0,1,,,,,,,,,0,,,73,0
40440,note_on,120,0,2,,,,,,,,,0,,,42,0
40560,note_on,120,0,2,,,,,,,,,0,,,49,26
40800,note_on,240,0,2,,,,,,,,,0,,,49,0
40800,note_on,0,0,2,,,,,,,,,0,,,57,26
40800,set_tempo,1900,1,0,,,,,,685636,,,,,,,
40984,control_change,184,0,2,,,,,,,,,0,64,0,,
40992,control_change,8,0,2,,,,,,,,,0,64,1,,
41032,control_change,40,0,2,,,,,,,,,0,64,127,,
41040,note_on,8,0,2,,,,,,,,,0,,,57,0
41040,note_on,0,0,2,,,,,,,,,0,,,42,36
41040,set_tempo,240,1,0,,,,,,649491,,,,,,,
41040,note_on,0,0,1,,,,,,,,,0,,,74,46
41040,note_on,720,0,1,,,,,,,,,0,,,73,0
41160,note_on,120,0,2,,,,,,,,,0,,,42,0
41280,note_on,120,0,2,,,,,,,,,0,,,50,26
41520,note_on,0,0,2,,,,,,,,,0,,,59,28
41520,note_on,240,0,2,,,,,,,,,0,,,50,0
41760,note_on,0,0,2,,,,,,,,,0,,,42,35
41760,note_on,240,0,2,,,,,,,,,0,,,59,0
41880,note_on,120,0,2,,,,,,,,,0,,,42,0
42000,note_on,120,0,2,,,,,,,,,0,,,50,26
42240,note_on,0,0,2,,,,,,,,,0,,,59,26
42240,note_on,240,0,2,,,,,,,,,0,,,50,0
42480,note_on,240,0,2,,,,,,,,,0,,,59,0
42480,note_on,0,0,2,,,,,,,,,0,,,42,35
42600,note_on,120,0,2,,,,,,,,,0,,,42,0
42720,note_on,120,0,2,,,,,,,,,0,,,50,27
42960,note_on,240,0,2,,,,,,,,,0,,,50,0
42960,note_on,0,0,2,,,,,,,,,0,,,59,27
43144,control_change,184,0,2,,,,,,,,,0,64,0,,
43200,note_on,0,0,2,,,,,,,,,0,,,42,35
43200,control_change,0,0,2,,,,,,,,,0,64,127,,
43200,note_on,0,0,1,,,,,,,,,0,,,76,41
43200,note_on,2160,0,1,,,,,,,,,0,,,74,0
43200,note_on,56,0,2,,,,,,,,,0,,,59,0
43320,note_on,120,0,2,,,,,,,,,0,,,42,0
43440,note_on,120,0,2,,,,,,,,,0,,,47,28
43680,set_tempo,2640,1,0,,,,,,685636,,,,,,,
43680,note_on,0,0,2,,,,,,,,,0,,,56,28
43680,note_on,480,0,1,,,,,,,,,0,,,76,0
43680,note_on,0,0,1,,,,,,,,,0,,,74,40
43680,note_on,240,0,2,,,,,,,,,0,,,47,0
43840,control_change,160,0,2,,,,,,,,,0,64,0,,
43920,set_tempo,240,1,0,,,,,,649491,,,,,,,
43920,note_on,0,0,1,,,,,,,,,0,,,74,44
43920,note_on,240,0,1,,,,,,,,,0,,,74,0
43920,note_on,80,0,2,,,,,,,,,0,,,56,0
43920,note_on,0,0,2,,,,,,,,,0,,,42,35
43920,control_change,0,0,2,,,,,,,,,0,64,126,,
44040,note_on,120,0,2,,,,,,,,,0,,,42,0
44160,note_on,120,0,2,,,,,,,,,0,,,49,29
44400,note_on,240,0,2,,,,,,,,,0,,,49,0
44400,note_on,480,0,1,,,,,,,,,0,,,74,0
44400,note_on,0,0,1,,,,,,,,,0,,,73,39
44400,set_tempo,480,1,0,,,,,,689338,,,,,,,
44400,note_on,0,0,2,,,,,,,,,0,,,57,29
44576,control_change,176,0,2,,,,,,,,,0,64,0,,
44632,control_change,56,0,2,,,,,,,,,0,64,126,,
44632,set_tempo,232,1,0,,,,,,689338,,,,,,,
44640,note_on,0,0,2,,,,,,,,,0,,,42,35
44640,note_on,8,0,2,,,,,,,,,0,,,57,0
44640,set_tempo,8,1,0,,,,,,649491,,,,,,,
44640,note_on,0,0,1,,,,,,,,,0,,,73,41
44640,note_on,240,0,1,,,,,,,,,0,,,73,0
44760,note_on,120,0,2,,,,,,,,,0,,,42,0
44880,note_on,120,0,2,,,,,,,,,0,,,50,27
45120,note_on,0,0,1,,,,,,,,,0,,,71,39
45120,note_on,480,0,1,,,,,,,,,0,,,73,0
45120,note_on,0,0,2,,,,,,,,,0,,,59,27
45120,note_on,240,0,2,,,,,,,,,0,,,50,0
45120,set_tempo,480,1,0,,,,,,709220,,,,,,,
45296,control_change,176,0,2,,,,,,,,,0,64,0,,
45352,control_change,56,0,2,,,,,,,,,0,64,126,,
45360,note_on,240,0,1,,,,,,,,,0,,,71,0
45360,note_on,0,0,1,,,,,,,,,0,,,73,42
45360,note_on,8,0,2,,,,,,,,,0,,,59,0
45360,note_on,0,0,2,,,,,,,,,0,,,42,35
45360,set_tempo,240,1,0,,,,,,649491,,,,,,,
45368,control_change,8,0,2,,,,,,,,,0,64,127,,
45480,note_on,112,0,2,,,,,,,,,0,,,42,0
45600,note_on,120,0,2,,,,,,,,,0,,,49,30
45840,note_on,0,0,2,,,,,,,,,0,,,57,30
45840,note_on,240,0,2,,,,,,,,,0,,,49,0
46080,note_on,0,0,2,,,,,,,,,0,,,42,35
46080,note_on,240,0,2,,,,,,,,,0,,,57,0
46200,note_on,120,0,2,,,,,,,,,0,,,42,0
46320,note_on,120,0,2,,,,,,,,,0,,,49,27
46560,note_on,0,0,2,,,,,,,,,0,,,57,28
46560,note_on,240,0,2,,,,,,,,,0,,,49,0
46800,note_on,240,0,2,,,,,,,,,0,,,57,0
46800,note_on,1440,0,1,,,,,,,,,0,,,73,0
46800,note_on,0,0,1,,,,,,,,,0,,,73,36
46800,note_on,0,0,2,,,,,,,,,0,,,42,35
46920,note_on,120,0,2,,,,,,,,,0,,,42,0
47040,note_on,120,0,2,,,,,,,,,0,,,49,29
47280,note_on,240,0,2,,,,,,,,,0,,,49,0
47280,note_on,0,0,2,,,,,,,,,0,,,54,29
47280,note_on,480,0,1,,,,,,,,,0,,,73,0
47280,note_on,0,0,1,,,,,,,,,0,,,69,44
47464,control_change,184,0,2,,,,,,,,,0,64,0,,
47472,control_change,8,0,2,,,,,,,,,0,64,1,,
47512,control_change,40,0,2,,,,,,,,,0,64,127,,
47520,note_on,0,0,1,,,,,,,,,0,,,68,52
47520,note_on,8,0,2,,,,,,,,,0,,,54,0
47520,note_on,0,0,2,,,,,,,,,0,,,49,35
47520,note_on,240,0,1,,,,,,,,,0,,,69,0
47760,note_on,240,0,2,,,,,,,,,0,,,49,0
47760,note_on,0,0,2,,,,,,,,,0,,,53,35
48000,note_on,240,0,2,,,,,,,,,0,,,53,0
48000,note_on,0,0,2,,,,,,,,,0,,,56,35
48240,note_on,240,0,2,,,,,,,,,0,,,56,0
48240,note_on,0,0,2,,,,,,,,,0,,,49,35
48480,note_on,0,0,2,,,,,,,,,0,,,53,35
48480,note_on,240,0,2,,,,,,,,,0,,,49,0
48720,note_on,240,0,2,,,,,,,,,0,,,53,0
48720,note_on,0,0,2,,,,,,,,,0,,,56,35
48960,note_on,0,0,1,,,,,,,,,0,,,78,61
48960,note_on,1440,0,1,,,,,,,,,0,,,68,0
48960,note_on,240,0,2,,,,,,,,,0,,,56,0
48960,note_on,0,0,2,,,,,,,,,0,,,45,35
49200,note_on,240,0,2,,,,,,,,,0,,,45,0
49200,note_on,0,0,2,,,,,,,,,0,,,49,35
49432,set_tempo,4072,1,0,,,,,,734574,,,,,,,
49440,note_on,480,0,1,,,,,,,,,0,,,78,0
49440,note_on,0,0,2,,,,,,,,,0,,,54,35
49440,set_tempo,8,1,0,,,,,,693241,,,,,,,
49440,note_on,0,0,1,,,,,,,,,0,,,69,52
49440,note_on,240,0,2,,,,,,,,,0,,,49,0
49604,control_change,164,0,2,,,,,,,,,0,64,0,,
49680,note_on,0,0,1,,,,,,,,,0,,,68,42
49680,control_change,0,0,2,,,,,,,,,0,64,126,,
49680,set_tempo,240,1,0,,,,,,649491,,,,,,,
49680,note_on,240,0,1,,,,,,,,,0,,,69,0
49680,note_on,76,0,2,,,,,,,,,0,,,54,0
49680,note_on,0,0,2,,,,,,,,,0,,,49,35
49920,note_on,0,0,2,,,,,,,,,0,,,53,35
49920,note_on,240,0,2,,,,,,,,,0,,,49,0
50160,note_on,0,0,2,,,,,,,,,0,,,56,35
50160,note_on,240,0,2,,,,,,,,,0,,,53,0
50344,control_change,184,0,2,,,,,,,,,0,64,0,,
50352,control_change,8,0,2,,,,,,,,,0,64,1,,
50400,note_on,48,0,2,,,,,,,,,0,,,56,0
50400,note_on,0,0,2,,,,,,,,,0,,,50,35
50640,note_on,240,0,2,,,,,,,,,0,,,56,35
50640,note_on,960,0,1,,,,,,,,,0,,,68,0
50640,note_on,0,0,1,,,,,,,,,0,,,71,35
50720,set_tempo,1040,1,0,,,,,,645995,,,,,,,
50820,set_tempo,100,1,0,,,,,,649491,,,,,,,
50880,note_on,0,0,1,,,,,,,,,0,,,69,34
50880,note_on,240,0,1,,,,,,,,,0,,,71,0
50880,note_on,240,0,2,,,,,,,,,0,,,56,0
50880,note_on,0,0,2,,,,,,,,,0,,,54,35
50900,set_tempo,80,1,0,,,,,,652884,,,,,,,
50980,set_tempo,80,1,0,,,,,,656312,,,,,,,
51060,set_tempo,80,1,0,,,,,,659921,,,,,,,
51120,note_on,240,0,2,,,,,,,,,0,,,54,0
51120,note_on,0,0,2,,,,,,,,,0,,,53,33
51120,note_on,240,0,1,,,,,,,,,0,,,69,0
51120,note_on,0,0,1,,,,,,,,,0,,,68,28
51160,set_tempo,100,1,0,,,,,,663423,,,,,,,
51240,set_tempo,80,1,0,,,,,,666963,,,,,,,
51320,set_tempo,80,1,0,,,,,,670766,,,,,,,
51360,note_on,240,0,1,,,,,,,,,0,,,68,0
51360,note_on,0,0,1,,,,,,,,,0,,,69,26
51360,note_on,0,0,2,,,,,,,,,0,,,54,30
51360,note_on,240,0,2,,,,,,,,,0,,,53,0
51400,set_tempo,80,1,0,,,,,,674309,,,,,,,
51500,set_tempo,100,1,0,,,,,,677966,,,,,,,
51580,set_tempo,80,1,0,,,,,,681741,,,,,,,
51600,note_on,240,0,1,,,,,,,,,0,,,69,0
51600,note_on,0,0,1,,,,,,,,,0,,,71,25
51600,note_on,0,0,2,,,,,,,,,0,,,49,27
51600,note_on,0,0,2,,,,,,,,,0,,,56,27
51600,note_on,0,0,2,,,,,,,,,0,,,50,0
51600,note_on,240,0,2,,,,,,,,,0,,,54,0
51660,set_tempo,80,1,0,,,,,,685636,,,,,,,
51740,set_tempo,80,1,0,,,,,,689338,,,,,,,
51840,note_on,0,0,2,,,,,,,,,0,,,56,0
51840,set_tempo,100,1,0,,,,,,649491,,,,,,,
51840,note_on,0,0,1,,,,,,,,,0,,,73,36
51840,control_change,0,0,1,,,,,,,,,0,91,127,,
51840,note_on,240,0,1,,,,,,,,,0,,,71,0
51840,control_change,0,0,2,,,,,,,,,0,91,127,,
51840,note_on,0,0,2,,,,,,,,,0,,,42,35
51840,note_on,240,0,2,,,,,,,,,0,,,49,0
51848,control_change,8,0,2,,,,,,,,,0,64,127,,
52080,note_on,0,0,2,,,,,,,,,0,,,49,30
52080,note_on,232,0,2,,,,,,,,,0,,,42,0
52320,note_on,0,0,2,,,,,,,,,0,,,57,31
52320,note_on,240,0,2,,,,,,,,,0,,,49,0
52504,control_change,184,0,2,,,,,,,,,0,64,0,,
52560,note_on,720,0,1,,,,,,,,,0,,,73,0
52560,note_on,0,0,1,,,,,,,,,0,,,73,47
52560,control_change,0,0,2,,,,,,,,,0,64,125,,
52560,note_on,0,0,2,,,,,,,,,0,,,42,37
52560,note_on,56,0,2,,,,,,,,,0,,,57,0
52800,note_on,0,0,2,,,,,,,,,0,,,47,33
52800,note_on,240,0,2,,,,,,,,,0,,,42,0
53040,note_on,240,0,2,,,,,,,,,0,,,47,0
53040,note_on,0,0,2,,,,,,,,,0,,,56,33
53216,control_change,176,0,2,,,,,,,,,0,64,0,,
53280,note_on,64,0,2,,,,,,,,,0,,,56,0
53280,control_change,0,0,2,,,,,,,,,0,64,126,,
53280,note_on,0,0,2,,,,,,,,,0,,,42,42
53280,note_on,720,0,1,,,,,,,,,0,,,73,0
53280,note_on,0,0,1,,,,,,,,,0,,,73,57
53520,note_on,240,0,2,,,,,,,,,0,,,42,0
53520,note_on,0,0,2,,,,,,,,,0,,,45,37
53760,set_tempo,1920,1,0,,,,,,725865,,,,,,,
53760,note_on,240,0,2,,,,,,,,,0,,,45,0
53760,note_on,0,0,2,,,,,,,,,0,,,54,37
53944,control_change,184,0,2,,,,,,,,,0,64,0,,
53952,control_change,8,0,2,,,,,,,,,0,64,1,,
53992,set_tempo,232,1,0,,,,,,685636,,,,,,,
53992,control_change,40,0,2,,,,,,,,,0,64,127,,
54000,note_on,0,0,1,,,,,,,,,0,,,74,66
54000,set_tempo,8,1,0,,,,,,649491,,,,,,,
54000,note_on,0,0,2,,,,,,,,,0,,,40,45
54000,note_on,8,0,2,,,,,,,,,0,,,54,0
54000,note_on,720,0,1,,,,,,,,,0,,,73,0
54240,note_on,240,0,2,,,,,,,,,0,,,40,0
54240,note_on,0,0,2,,,,,,,,,0,,,47,40
54480,note_on,240,0,2,,,,,,,,,0,,,47,0
54480,note_on,0,0,2,,,,,,,,,0,,,56,40
54720,note_on,0,0,2,,,,,,,,,0,,,40,39
54720,note_on,240,0,2,,,,,,,,,0,,,56,0
54960,note_on,0,0,2,,,,,,,,,0,,,47,36
54960,note_on,240,0,2,,,,,,,,,0,,,40,0
55200,note_on,240,0,2,,,,,,,,,0,,,47,0
55200,note_on,0,0,2,,,,,,,,,0,,,56,36
55440,note_on,240,0,2,,,,,,,,,0,,,56,0
55440,note_on,0,0,2,,,,,,,,,0,,,40,34
55680,note_on,240,0,2,,,,,,,,,0,,,40,0
55680,note_on,0,0,2,,,,,,,,,0,,,47,34
55920,note_on,240,0,2,,,,,,,,,0,,,47,0
55920,note_on,0,0,2,,,,,,,,,0,,,56,34
56040,note_on,2040,0,1,,,,,,,,,0,,,74,53
56104,control_change,184,0,2,,,,,,,,,0,64,0,,
56160,note_on,0,0,2,,,,,,,,,0,,,40,45
56160,control_change,0,0,2,,,,,,,,,0,64,126,,
56160,note_on,56,0,2,,,,,,,,,0,,,56,0
56160,note_on,120,0,1,,,,,,,,,0,,,74,0
56160,note_on,0,0,1,,,,,,,,,0,,,74,0
56160,note_on,0,0,1,,,,,,,,,0,,,78,50
56400,note_on,240,0,2,,,,,,,,,0,,,40,0
56400,note_on,0,0,2,,,,,,,,,0,,,47,39
56640,set_tempo,2640,1,0,,,,,,689338,,,,,,,
56640,note_on,480,0,1,,,,,,,,,0,,,78,0
56640,note_on,0,0,1,,,,,,,,,0,,,74,48
56640,note_on,0,0,2,,,,,,,,,0,,,56,40
56640,note_on,240,0,2,,,,,,,,,0,,,47,0
56832,control_change,192,0,2,,,,,,,,,0,64,0,,
56880,set_tempo,240,1,0,,,,,,649491,,,,,,,
56880,note_on,0,0,2,,,,,,,,,0,,,40,40
56880,note_on,48,0,2,,,,,,,,,0,,,56,0
56880,note_on,0,0,1,,,,,,,,,0,,,74,48
56880,note_on,240,0,1,,,,,,,,,0,,,74,0
56888,control_change,8,0,2,,,,,,,,,0,64,126,,
57120,note_on,232,0,2,,,,,,,,,0,,,40,0
57120,note_on,0,0,2,,,,,,,,,0,,,49,38
57360,note_on,480,0,1,,,,,,,,,0,,,74,0
57360,note_on,240,0,2,,,,,,,,,0,,,49,0
57360,set_tempo,480,1,0,,,,,,693241,,,,,,,
57360,note_on,0,0,1,,,,,,,,,0,,,73,44
57360,note_on,0,0,2,,,,,,,,,0,,,57,36
57544,control_change,184,0,2,,,,,,,,,0,64,0,,
57600,note_on,0,0,2,,,,,,,,,0,,,40,35
57600,note_on,56,0,2,,,,,,,,,0,,,57,0
57600,set_tempo,240,1,0,,,,,,649491,,,,,,,
57600,note_on,240,0,1,,,,,,,,,0,,,73,0
57600,control_change,0,0,2,,,,,,,,,0,64,126,,
57600,note_on,0,0,1,,,,,,,,,0,,,73,44
57840,note_on,240,0,2,,,,,,,,,0,,,40,0
57840,note_on,0,0,2,,,,,,,,,0,,,50,33
58072,set_tempo,472,1,0,,,,,,747943,,,,,,,
58080,set_tempo,8,1,0,,,,,,709220,,,,,,,
58080,note_on,0,0,1,,,,,,,,,0,,,71,38
58080,note_on,0,0,2,,,,,,,,,0,,,56,33
58080,note_on,240,0,2,,,,,,,,,0,,,50,0
58080,note_on,480,0,1,,,,,,,,,0,,,73,0
58240,control_change,160,0,2,,,,,,,,,0,64,0,,
58320,note_on,240,0,1,,,,,,,,,0,,,71,0
58320,note_on,0,0,1,,,,,,,,,0,,,73,44
58320,control_change,0,0,2,,,,,,,,,0,64,127,,
58320,set_tempo,240,1,0,,,,,,649491,,,,,,,
58320,note_on,80,0,2,,,,,,,,,0,,,56,0
58320,note_on,0,0,2,,,,,,,,,0,,,45,38
58560,note_on,240,0,2,,,,,,,,,0,,,45,0
58560,note_on,0,0,2,,,,,,,,,0,,,49,35
58800,note_on,240,0,2,,,,,,,,,0,,,49,0
58800,note_on,0,0,2,,,,,,,,,0,,,57,37
58976,control_change,176,0,2,,,,,,,,,0,64,0,,
59040,control_change,0,0,2,,,,,,,,,0,64,127,,
59040,note_on,0,0,2,,,,,,,,,0,,,45,39
59040,note_on,64,0,2,,,,,,,,,0,,,57,0
59280,note_on,240,0,2,,,,,,,,,0,,,45,0
59280,note_on,0,0,2,,,,,,,,,0,,,49,42
59520,note_on,240,0,2,,,,,,,,,0,,,49,0
59520,note_on,0,0,2,,,,,,,,,0,,,56,46
59712,control_change,192,0,2,,,,,,,,,0,64,0,,
59720,control_change,8,0,2,,,,,,,,,0,64,1,,
59760,note_on,40,0,2,,,,,,,,,0,,,56,0
59760,note_on,0,0,1,,,,,,,,,0,,,73,52
59760,note_on,1440,0,1,,,,,,,,,0,,,73,0
59760,control_change,0,0,2,,,,,,,,,0,64,125,,
59760,note_on,0,0,2,,,,,,,,,0,,,45,47
60000,note_on,0,0,2,,,,,,,,,0,,,49,45
60000,note_on,240,0,2,,,,,,,,,0,,,45,0
60240,note_on,0,0,2,,,,,,,,,0,,,54,42
60240,note_on,0,0,1,,,,,,,,,0,,,69,52
60240,note_on,480,0,1,,,,,,,,,0,,,73,0
60240,note_on,240,0,2,,,,,,,,,0,,,49,0
60424,control_change,184,0,2,,,,,,,,,0,64,0,,
60480,note_on,0,0,2,,,,,,,,,0,,,47,44
60480,note_on,0,0,1,,,,,,,,,0,,,68,52
60480,note_on,56,0,2,,,,,,,,,0,,,54,0
60480,note_on,240,0,1,,,,,,,,,0,,,69,0
60480,control_change,0,0,2,,,,,,,,,0,64,127,,
60720,note_on,0,0,2,,,,,,,,,0,,,50,40
60720,note_on,240,0,2,,,,,,,,,0,,,47,0
60960,note_on,240,0,2,,,,,,,,,0,,,50,0
60960,note_on,0,0,2,,,,,,,,,0,,,54,40
61200,note_on,240,0,2,,,,,,,,,0,,,54,0
61200,note_on,0,0,2,,,,,,,,,0,,,50,44
61440,note_on,240,0,2,,,,,,,,,0,,,50,0
61440,note_on,0,0,2,,,,,,,,,0,,,54,40
61680,note_on,240,0,2,,,,,,,,,0,,,54,0
61680,note_on,0,0,2,,,,,,,,,0,,,59,40
61864,control_change,184,0,2,,,,,,,,,0,64,0,,
61900,set_tempo,3580,1,0,,,,,,645995,,,,,,,
61920,note_on,56,0,2,,,,,,,,,0,,,59,0
61920,note_on,0,0,2,,,,,,,,,0,,,49,39
61920,note_on,0,0,1,,,,,,,,,0,,,71,47
61920,note_on,1440,0,1,,,,,,,,,0,,,68,0
62020,set_tempo,120,1,0,,,,,,649491,,,,,,,
62140,set_tempo,120,1,0,,,,,,652884,,,,,,,
62160,note_on,240,0,2,,,,,,,,,0,,,49,0
62160,note_on,0,0,2,,,,,,,,,0,,,53,38
62160,note_on,240,0,1,,,,,,,,,0,,,71,0
62160,note_on,0,0,1,,,,,,,,,0,,,69,44
62260,set_tempo,120,1,0,,,,,,656312,,,,,,,
62380,set_tempo,120,1,0,,,,,,659921,,,,,,,
62400,note_on,240,0,2,,,,,,,,,0,,,53,0
62400,note_on,240,0,1,,,,,,,,,0,,,69,0
62400,note_on,0,0,2,,,,,,,,,0,,,47,30
62400,note_on,0,0,1,,,,,,,,,0,,,68,36
62500,set_tempo,120,1,0,,,,,,663423,,,,,,,
62600,set_tempo,100,1,0,,,,,,666963,,,,,,,
62632,control_change,232,0,2,,,,,,,,,0,64,126,,
62640,note_on,0,0,1,,,,,,,,,0,,,73,45
62640,note_on,8,0,2,,,,,,,,,0,,,47,0
62640,note_on,0,0,2,,,,,,,,,0,,,45,42
62640,note_on,240,0,1,,,,,,,,,0,,,68,0
62640,set_tempo,40,1,0,,,,,,649491,,,,,,,
62880,note_on,240,0,2,,,,,,,,,0,,,45,0
62880,note_on,0,0,2,,,,,,,,,0,,,49,39
63120,note_on,0,0,2,,,,,,,,,0,,,54,39
63120,note_on,240,0,2,,,,,,,,,0,,,49,0
63296,control_change,176,0,2,,,,,,,,,0,64,0,,
63360,control_change,0,0,2,,,,,,,,,0,64,127,,
63360,note_on,64,0,2,,,,,,,,,0,,,54,0
63360,note_on,0,0,2,,,,,,,,,0,,,44,42
63600,note_on,240,0,2,,,,,,,,,0,,,44,0
63600,note_on,0,0,2,,,,,,,,,0,,,47,39
63840,note_on,240,0,2,,,,,,,,,0,,,47,0
63840,set_tempo,1200,1,0,,,,,,709220,,,,,,,
63840,note_on,0,0,2,,,,,,,,,0,,,54,39
63960,note_on,0,0,1,,,,,,,,,0,,,73,52
63960,note_on,1320,0,1,,,,,,,,,0,,,73,0
64024,control_change,184,0,2,,,,,,,,,0,64,0,,
64072,set_tempo,232,1,0,,,,,,689338,,,,,,,
64080,note_on,0,0,1,,,,,,,,,0,,,78,70
64080,note_on,56,0,2,,,,,,,,,0,,,54,0
64080,note_on,0,0,2,,,,,,,,,0,,,45,52
64080,set_tempo,8,1,0,,,,,,649491,,,,,,,
64080,note_on,120,0,1,,,,,,,,,0,,,73,0
64088,control_change,8,0,2,,,,,,,,,0,64,127,,
64320,note_on,0,0,2,,,,,,,,,0,,,49,48
64320,note_on,232,0,2,,,,,,,,,0,,,45,0
64560,note_on,0,0,1,,,,,,,,,0,,,69,60
64560,note_on,480,0,1,,,,,,,,,0,,,78,0
64560,note_on,0,0,2,,,,,,,,,0,,,54,48
64560,note_on,240,0,2,,,,,,,,,0,,,49,0
64744,control_change,184,0,2,,,,,,,,,0,64,0,,
64792,control_change,48,0,2,,,,,,,,,0,64,127,,
64800,note_on,8,0,2,,,,,,,,,0,,,54,0
64800,note_on,0,0,2,,,,,,,,,0,,,47,52
64800,note_on,0,0,1,,,,,,,,,0,,,68,60
64800,note_on,240,0,1,,,,,,,,,0,,,69,0
65040,note_on,240,0,2,,,,,,,,,0,,,47,0
65040,note_on,0,0,2,,,,,,,,,0,,,50,48
65280,note_on,240,0,2,,,,,,,,,0,,,50,0
65280,note_on,0,0,2,,,,,,,,,0,,,54,49
65520,note_on,240,0,2,,,,,,,,,0,,,54,0
65520,note_on,0,0,2,,,,,,,,,0,,,50,52
65760,note_on,0,0,1,,,,,,,,,0,,,69,52
65760,note_on,240,0,2,,,,,,,,,0,,,50,0
65760,note_on,0,0,2,,,,,,,,,0,,,54,49
65760,note_on,960,0,1,,,,,,,,,0,,,68,0
65840,set_tempo,1760,1,0,,,,,,645995,,,,,,,
65920,set_tempo,80,1,0,,,,,,649491,,,,,,,
65980,set_tempo,60,1,0,,,,,,652884,,,,,,,
66000,note_on,240,0,2,,,,,,,,,0,,,54,0
66000,note_on,0,0,2,,,,,,,,,0,,,59,44
66000,note_on,240,0,1,,,,,,,,,0,,,69,0
66000,note_on,0,0,1,,,,,,,,,0,,,68,52
66060,set_tempo,80,1,0,,,,,,656312,,,,,,,
66120,set_tempo,60,1,0,,,,,,659921,,,,,,,
66152,control_change,152,0,2,,,,,,,,,0,64,0,,
66180,set_tempo,60,1,0,,,,,,663423,,,,,,,
66240,note_on,0,0,1,,,,,,,,,0,,,71,52
66240,note_on,240,0,1,,,,,,,,,0,,,68,0
66240,note_on,0,0,2,,,,,,,,,0,,,49,48
66240,note_on,88,0,2,,,,,,,,,0,,,59,0
66260,set_tempo,80,1,0,,,,,,666963,,,,,,,
66320,set_tempo,60,1,0,,,,,,670766,,,,,,,
66380,set_tempo,60,1,0,,,,,,674309,,,,,,,
66460,set_tempo,80,1,0,,,,,,677966,,,,,,,
66480,note_on,240,0,1,,,,,,,,,0,,,71,0
66480,note_on,0,0,1,,,,,,,,,0,,,69,49
66480,note_on,0,0,2,,,,,,,,,0,,,53,42
66480,note_on,240,0,2,,,,,,,,,0,,,49,0
66520,set_tempo,60,1,0,,,,,,681741,,,,,,,
66600,set_tempo,80,1,0,,,,,,685636,,,,,,,
66660,set_tempo,60,1,0,,,,,,689338,,,,,,,
66720,note_on,0,0,2,,,,,,,,,0,,,59,39
66720,note_on,240,0,1,,,,,,,,,0,,,69,0
66720,note_on,0,0,1,,,,,,,,,0,,,68,48
66720,set_tempo,60,1,0,,,,,,693241,,,,,,,
66720,note_on,240,0,2,,,,,,,,,0,,,53,0
66800,set_tempo,80,1,0,,,,,,697188,,,,,,,
66860,set_tempo,60,1,0,,,,,,701098,,,,,,,
66920,set_tempo,60,1,0,,,,,,705136,,,,,,,
66960,note_on,0,0,2,,,,,,,,,0,,,57,37
66960,note_on,0,0,1,,,,,,,,,0,,,66,51
66960,note_on,240,0,2,,,,,,,,,0,,,59,0
66960,note_on,0,0,2,,,,,,,,,0,,,54,37
66960,set_tempo,40,1,0,,,,,,649491,,,,,,,
66960,note_on,240,0,1,,,,,,,,,0,,,68,0
67200,note_on,240,0,2,,,,,,,,,0,,,57,0
67200,note_on,0,0,2,,,,,,,,,0,,,42,38
67200,note_on,0,0,2,,,,,,,,,0,,,54,0
67440,note_on,0,0,2,,,,,,,,,0,,,45,39
67440,note_on,240,0,2,,,,,,,,,0,,,42,0
67680,note_on,240,0,2,,,,,,,,,0,,,45,0
67680,note_on,0,0,2,,,,,,,,,0,,,49,41
67920,note_on,0,0,2,,,,,,,,,0,,,54,44
67920,note_on,240,0,2,,,,,,,,,0,,,49,0
68160,note_on,0,0,2,,,,,,,,,0,,,56,45
68160,note_on,240,0,2,,,,,,,,,0,,,54,0
68400,note_on,1440,0,1,,,,,,,,,0,,,66,0
68400,note_on,240,0,2,,,,,,,,,0,,,56,0
68400,note_on,0,0,2,,,,,,,,,0,,,57,47
68640,note_on,240,0,2,,,,,,,,,0,,,57,0
68640,note_on,0,0,2,,,,,,,,,0,,,61,48
68880,note_on,240,0,2,,,,,,,,,0,,,61,0
68880,note_on,0,0,2,,,,,,,,,0,,,54,50
69120,note_on,0,0,2,,,,,,,,,0,,,53,52
69120,note_on,720,0,1,,,,,,,,,0,,,73,52
69120,control_change,0,0,2,,,,,,,,,0,64,127,,
69120,note_on,240,0,2,,,,,,,,,0,,,54,0
69360,note_on,240,0,2,,,,,,,,,0,,,53,0
69360,note_on,0,0,2,,,,,,,,,0,,,56,49
69600,note_on,240,0,2,,,,,,,,,0,,,56,0
69600,note_on,0,0,2,,,,,,,,,0,,,61,49
69840,note_on,720,0,1,,,,,,,,,0,,,73,0
69840,note_on,0,0,1,,,,,,,,,0,,,73,52
69840,note_on,0,0,2,,,,,,,,,0,,,53,52
69840,note_on,240,0,2,,,,,,,,,0,,,61,0
70080,note_on,240,0,2,,,,,,,,,0,,,53,0
70080,note_on,0,0,2,,,,,,,,,0,,,56,46
70320,note_on,0,0,2,,,,,,,,,0,,,61,46
70320,note_on,240,0,2,,,,,,,,,0,,,56,0
70560,note_on,0,0,1,,,,,,,,,0,,,73,52
70560,note_on,720,0,1,,,,,,,,,0,,,73,0
70560,note_on,0,0,2,,,,,,,,,0,,,53,52
70560,note_on,240,0,2,,,,,,,,,0,,,61,0
70800,note_on,240,0,2,,,,,,,,,0,,,53,0
70800,note_on,0,0,2,,,,,,,,,0,,,56,47
71040,set_tempo,4080,1,0,,,,,,689338,,,,,,,
71040,note_on,240,0,2,,,,,,,,,0,,,56,0
71040,note_on,0,0,2,,,,,,,,,0,,,61,47
71184,control_change,144,0,2,,,,,,,,,0,64,0,,
71272,control_change,88,0,2,,,,,,,,,0,64,126,,
71280,note_on,0,0,1,,,,,,,,,0,,,73,46
71280,note_on,8,0,2,,,,,,,,,0,,,61,0
71280,note_on,0,0,2,,,,,,,,,0,,,52,45
71280,set_tempo,240,1,0,,,,,,649491,,,,,,,
71280,note_on,720,0,1,,,,,,,,,0,,,73,0
71520,note_on,240,0,2,,,,,,,,,0,,,52,0
71520,note_on,0,0,2,,,,,,,,,0,,,56,41
71760,note_on,0,0,2,,,,,,,,,0,,,61,41
71760,note_on,240,0,2,,,,,,,,,0,,,56,0
72000,note_on,0,0,2,,,,,,,,,0,,,52,45
72000,note_on,240,0,2,,,,,,,,,0,,,61,0
72000,note_on,0,0,1,,,,,,,,,0,,,73,44
72000,note_on,720,0,1,,,,,,,,,0,,,73,0
72240,note_on,0,0,2,,,,,,,,,0,,,56,41
72240,note_on,240,0,2,,,,,,,,,0,,,52,0
72480,note_on,240,0,2,,,,,,,,,0,,,56,0
72480,note_on,0,0,2,,,,,,,,,0,,,61,41
72720,note_on,240,0,2,,,,,,,,,0,,,61,0
72720,note_on,0,0,2,,,,,,,,,0,,,52,45
72720,note_on,0,0,1,,,,,,,,,0,,,73,44
72720,note_on,720,0,1,,,,,,,,,0,,,73,0
72960,note_on,240,0,2,,,,,,,,,0,,,52,0
72960,note_on,0,0,2,,,,,,,,,0,,,56,46
73200,note_on,0,0,2,,,,,,,,,0,,,61,52
73200,note_on,240,0,2,,,,,,,,,0,,,56,0
73320,set_tempo,2040,1,0,,,,,,693241,,,,,,,
73320,note_on,600,0,1,,,,,,,,,0,,,73,0
73320,note_on,0,0,1,,,,,,,,,0,,,73,35
73376,control_change,176,0,2,,,,,,,,,0,64,0,,
73440,note_on,120,0,1,,,,,,,,,0,,,73,0
73440,note_on,64,0,2,,,,,,,,,0,,,61,0
73440,note_on,0,0,2,,,,,,,,,0,,,51,52
73440,control_change,0,0,2,,,,,,,,,0,64,127,,
73440,set_tempo,120,1,0,,,,,,649491,,,,,,,
73440,note_on,0,0,1,,,,,,,,,0,,,76,60
73680,note_on,240,0,2,,,,,,,,,0,,,51,0
73680,note_on,0,0,2,,,,,,,,,0,,,55,52
73920,note_on,0,0,1,,,,,,,,,0,,,75,52
73920,note_on,480,0,1,,,,,,,,,0,,,76,0
73920,note_on,0,0,2,,,,,,,,,0,,,61,50
73920,note_on,240,0,2,,,,,,,,,0,,,55,0
74140,set_tempo,700,1,0,,,,,,645995,,,,,,,
74160,note_on,240,0,1,,,,,,,,,0,,,75,0
74160,note_on,0,0,1,,,,,,,,,0,,,75,51
74160,note_on,0,0,2,,,,,,,,,0,,,51,50
74160,note_on,240,0,2,,,,,,,,,0,,,61,0
74160,set_tempo,20,1,0,,,,,,645161,,,,,,,
74220,set_tempo,60,1,0,,,,,,648649,,,,,,,
74260,set_tempo,40,1,0,,,,,,652174,,,,,,,
74320,set_tempo,60,1,0,,,,,,655738,,,,,,,
74360,set_tempo,40,1,0,,,,,,659341,,,,,,,
74400,set_tempo,40,1,0,,,,,,662983,,,,,,,
74400,note_on,0,0,1,,,,,,,,,0,,,75,50
74400,note_on,240,0,1,,,,,,,,,0,,,75,0
74400,note_on,0,0,2,,,,,,,,,0,,,55,49
74400,note_on,240,0,2,,,,,,,,,0,,,51,0
74460,set_tempo,60,1,0,,,,,,666667,,,,,,,
74500,set_tempo,40,1,0,,,,,,670391,,,,,,,
74540,set_tempo,40,1,0,,,,,,674157,,,,,,,
74600,set_tempo,60,1,0,,,,,,677966,,,,,,,
74640,note_on,240,0,1,,,,,,,,,0,,,75,0
74640,note_on,0,0,1,,,,,,,,,0,,,75,49
74640,set_tempo,40,1,0,,,,,,681818,,,,,,,
74640,note_on,240,0,2,,,,,,,,,0,,,55,0
74640,note_on,0,0,2,,,,,,,,,0,,,61,48
74700,set_tempo,60,1,0,,,,,,685714,,,,,,,
74740,set_tempo,40,1,0,,,,,,689655,,,,,,,
74780,set_tempo,40,1,0,,,,,,693642,,,,,,,
74840,set_tempo,60,1,0,,,,,,697674,,,,,,,
74880,note_on,240,0,2,,,,,,,,,0,,,61,0
74880,set_tempo,40,1,0,,,,,,701754,,,,,,,
74880,note_on,0,0,1,,,,,,,,,0,,,75,48
74880,note_on,240,0,1,,,,,,,,,0,,,75,0
74880,note_on,0,0,2,,,,,,,,,0,,,51,48
74920,set_tempo,40,1,0,,,,,,705882,,,,,,,
74980,set_tempo,60,1,0,,,,,,710059,,,,,,,
75020,set_tempo,40,1,0,,,,,,714286,,,,,,,
75060,set_tempo,40,1,0,,,,,,718563,,,,,,,
75120,note_on,0,0,2,,,,,,,,,0,,,55,48
75120,note_on,240,0,1,,,,,,,,,0,,,75,0
75120,note_on,0,0,1,,,,,,,,,0,,,75,48
75120,set_tempo,60,1,0,,,,,,722892,,,,,,,
75120,note_on,240,0,2,,,,,,,,,0,,,51,0
75160,set_tempo,40,1,0,,,,,,727273,,,,,,,
75220,set_tempo,60,1,0,,,,,,731707,,,,,,,
75260,set_tempo,40,1,0,,,,,,736196,,,,,,,
75300,set_tempo,40,1,0,,,,,,740741,,,,,,,
75360,note_on,240,0,2,,,,,,,,,0,,,55,0
75360,note_on,0,0,2,,,,,,,,,0,,,61,47
75360,note_on,240,0,1,,,,,,,,,0,,,75,0
75360,set_tempo,60,1,0,,,,,,745342,,,,,,,
75360,note_on,0,0,1,,,,,,,,,0,,,75,47
75400,set_tempo,40,1,0,,,,,,750000,,,,,,,
75440,set_tempo,40,1,0,,,,,,754717,,,,,,,
75500,set_tempo,60,1,0,,,,,,759494,,,,,,,
75540,set_tempo,40,1,0,,,,,,764331,,,,,,,
75552,control_change,192,0,2,,,,,,,,,0,64,0,,
75580,set_tempo,40,1,0,,,,,,769231,,,,,,,
75600,note_on,0,0,2,,,,,,,,,0,,,51,45
75600,note_on,240,0,1,,,,,,,,,0,,,75,0
75600,note_on,0,0,1,,,,,,,,,0,,,75,46
75600,note_on,48,0,2,,,,,,,,,0,,,61,0
75600,note_on,0,0,2,,,,,,,,,0,,,55,45
75600,set_tempo,20,1,0,,,,,,779221,,,,,,,
75620,set_tempo,20,1,0,,,,,,789474,,,,,,,
75640,set_tempo,20,1,0,,,,,,800000,,,,,,,
75660,set_tempo,20,1,0,,,,,,810811,,,,,,,
75680,set_tempo,20,1,0,,,,,,821918,,,,,,,
75700,set_tempo,20,1,0,,,,,,833333,,,,,,,
75720,set_tempo,20,1,0,,,,,,845070,,,,,,,
75740,set_tempo,20,1,0,,,,,,857143,,,,,,,
75760,set_tempo,20,1,0,,,,,,869565,,,,,,,
75780,set_tempo,20,1,0,,,,,,882353,,,,,,,
75800,set_tempo,20,1,0,,,,,,895522,,,,,,,
75820,set_tempo,20,1,0,,,,,,909091,,,,,,,
75840,note_on,240,0,2,,,,,,,,,0,,,58,40
75840,set_tempo,20,1,0,,,,,,923077,,,,,,,
75860,set_tempo,20,1,0,,,,,,937500,,,,,,,
75880,set_tempo,20,1,0,,,,,,952381,,,,,,,
75900,set_tempo,20,1,0,,,,,,967742,,,,,,,
75920,set_tempo,20,1,0,,,,,,983607,,,,,,,
75940,set_tempo,20,1,0,,,,,,1000000,,,,,,,
75960,set_tempo,20,1,0,,,,,,1016949,,,,,,,
75980,set_tempo,20,1,0,,,,,,1034483,,,,,,,
76000,set_tempo,20,1,0,,,,,,1052632,,,,,,,
76020,set_tempo,20,1,0,,,,,,1071429,,,,,,,
76040,set_tempo,20,1,0,,,,,,1090909,,,,,,,
76060,set_tempo,20,1,0,,,,,,1111111,,,,,,,
76080,note_on,0,0,2,,,,,,,,,0,,,60,36
76080,note_on,240,0,2,,,,,,,,,0,,,58,0
76080,set_tempo,20,1,0,,,,,,1132075,,,,,,,
76100,set_tempo,20,1,0,,,,,,1153846,,,,,,,
76120,set_tempo,20,1,0,,,,,,1176471,,,,,,,
76140,set_tempo,20,1,0,,,,,,1200000,,,,,,,
76160,set_tempo,20,1,0,,,,,,1224490,,,,,,,
76180,set_tempo,20,1,0,,,,,,1250000,,,,,,,
76200,set_tempo,20,1,0,,,,,,1276596,,,,,,,
76220,set_tempo,20,1,0,,,,,,1304348,,,,,,,
76240,set_tempo,20,1,0,,,,,,1333333,,,,,,,
76260,set_tempo,20,1,0,,,,,,1363636,,,,,,,
76280,set_tempo,20,1,0,,,,,,1395349,,,,,,,
76300,set_tempo,20,1,0,,,,,,1428571,,,,,,,
76320,note_on,240,0,2,,,,,,,,,0,,,60,0
76320,note_on,0,0,2,,,,,,,,,0,,,61,31
77040,note_on,1440,0,1,,,,,,,,,0,,,75,0
77040,control_change,0,0,1,,,,,,,,,0,91,127,,
77040,note_on,0,0,1,,,,,,,,,0,,,68,42
77040,note_on,0,0,2,,,,,,,,,0,,,55,0
77040,note_on,0,0,2,,,,,,,,,0,,,51,0
77040,note_on,720,0,2,,,,,,,,,0,,,61,0
77040,note_on,0,0,2,,,,,,,,,0,,,44,40
77040,note_on,0,0,2,,,,,,,,,0,,,51,40
77040,note_on,0,0,1,,,,,,,,,0,,,60,42
77040,control_change,0,0,2,,,,,,,,,0,91,127,,
77040,note_on,0,0,1,,,,,,,,,0,,,72,48
77040,set_tempo,740,1,0,,,,,,813118,,,,,,,
77400,note_on,0,0,2,,,,,,,,,0,,,51,40
77400,note_on,0,0,1,,,,,,,,,0,,,67,42
77400,note_on,0,0,1,,,,,,,,,0,,,61,42
77400,note_on,360,0,1,,,,,,,,,0,,,73,48
77400,note_on,0,0,2,,,,,,,,,0,,,46,40
77400,note_on,360,0,2,,,,,,,,,0,,,51,0
77410,note_on,0,0,1,,,,,,,,,0,,,60,0
77410,note_on,10,0,1,,,,,,,,,0,,,68,0
77410,note_on,10,0,2,,,,,,,,,0,,,44,0
77410,note_on,0,0,1,,,,,,,,,0,,,72,0
77520,note_on,0,0,1,,,,,,,,,0,,,68,42
77520,note_on,0,0,1,,,,,,,,,0,,,60,42
77520,note_on,0,0,2,,,,,,,,,0,,,51,40
77520,note_on,0,0,2,,,,,,,,,0,,,44,40
77520,set_tempo,480,1,0,,,,,,1005699,,,,,,,
77520,note_on,110,0,1,,,,,,,,,0,,,72,48
77520,note_on,110,0,2,,,,,,,,,0,,,51,0
77530,note_on,10,0,1,,,,,,,,,0,,,73,0
77530,note_on,0,0,1,,,,,,,,,0,,,67,0
77530,note_on,0,0,1,,,,,,,,,0,,,61,0
77530,note_on,10,0,2,,,,,,,,,0,,,46,0
77752,set_tempo,232,1,0,,,,,,932836,,,,,,,
77760,note_on,0,0,1,,,,,,,,,0,,,68,0
77760,note_on,230,0,1,,,,,,,,,0,,,72,0
77760,note_on,0,0,2,,,,,,,,,0,,,46,31
77760,note_on,0,0,2,,,,,,,,,0,,,51,31
77760,note_on,0,0,2,,,,,,,,,0,,,44,0
77760,note_on,230,0,2,,,,,,,,,0,,,51,0
77760,note_on,0,0,1,,,,,,,,,0,,,60,0
77760,key_signature,8,1,0,,,,,Ab,,,,,,,,
77760,note_on,0,0,1,,,,,,,,,0,,,73,38
77760,note_on,0,0,1,,,,,,,,,0,,,67,34
77760,note_on,0,0,1,,,,,,,,,0,,,61,34
77764,set_tempo,4,1,0,,,,,,881964,,,,,,,
77800,set_tempo,36,1,0,,,,,,814332,,,,,,,
79200,note_on,0,0,1,,,,,,,,,0,,,67,0
79200,note_on,0,0,1,,,,,,,,,0,,,61,0
79200,note_on,0,0,1,,,,,,,,,0,,,60,42
79200,note_on,0,0,1,,,,,,,,,0,,,72,48
79200,note_on,0,0,1,,,,,,,,,0,,,68,42
79200,note_on,0,0,2,,,,,,,,,0,,,51,40
79200,note_on,1440,0,1,,,,,,,,,0,,,73,0
79200,note_on,1440,0,2,,,,,,,,,0,,,46,0
79200,note_on,0,0,2,,,,,,,,,0,,,51,0
79200,note_on,0,0,2,,,,,,,,,0,,,44,40
79560,note_on,0,0,2,,,,,,,,,0,,,46,40
79560,note_on,0,0,1,,,,,,,,,0,,,61,42
79560,note_on,360,0,1,,,,,,,,,0,,,67,42
79560,note_on,0,0,2,,,,,,,,,0,,,51,40
79560,note_on,0,0,1,,,,,,,,,0,,,73,48
79560,note_on,360,0,2,,,,,,,,,0,,,51,0
79570,note_on,10,0,1,,,,,,,,,0,,,68,0
79570,note_on,0,0,1,,,,,,,,,0,,,60,0
79570,note_on,0,0,1,,,,,,,,,0,,,72,0
79570,note_on,10,0,2,,,,,,,,,0,,,44,0
79680,note_on,110,0,2,,,,,,,,,0,,,51,0
79680,note_on,110,0,1,,,,,,,,,0,,,68,42
79680,note_on,0,0,1,,,,,,,,,0,,,60,42
79680,set_tempo,1880,1,0,,,,,,1058948,,,,,,,
79680,note_on,0,0,1,,,,,,,,,0,,,72,48
79680,note_on,0,0,2,,,,,,,,,0,,,51,40
79680,note_on,0,0,2,,,,,,,,,0,,,44,40
79690,note_on,0,0,1,,,,,,,,,0,,,73,0
79690,note_on,0,0,1,,,,,,,,,0,,,61,0
79690,note_on,10,0,2,,,,,,,,,0,,,46,0
79690,note_on,10,0,1,,,,,,,,,0,,,67,0
79920,note_on,0,0,1,,,,,,,,,0,,,72,0
79920,note_on,0,0,1,,,,,,,,,0,,,67,35
79920,note_on,230,0,1,,,,,,,,,0,,,68,0
79920,note_on,0,0,1,,,,,,,,,0,,,60,0
79920,note_on,0,0,1,,,,,,,,,0,,,70,39
79920,note_on,0,0,2,,,,,,,,,0,,,51,30
79920,note_on,0,0,2,,,,,,,,,0,,,39,30
79920,note_on,0,0,2,,,,,,,,,0,,,44,0
79920,note_on,230,0,2,,,,,,,,,0,,,51,0
79920,note_on,0,0,1,,,,,,,,,0,,,58,35
79928,set_tempo,248,1,0,,,,,,814332,,,,,,,
81360,note_on,0,0,1,,,,,,,,,0,,,70,0
81360,note_on,0,0,2,,,,,,,,,0,,,39,0
81360,note_on,0,0,2,,,,,,,,,0,,,51,44
81360,note_on,0,0,2,,,,,,,,,0,,,44,44
81360,note_on,1440,0,1,,,,,,,,,0,,,58,0
81360,note_on,0,0,1,,,,,,,,,0,,,67,0
81360,note_on,0,0,1,,,,,,,,,0,,,72,52
81360,note_on,0,0,1,,,,,,,,,0,,,60,47
81360,note_on,0,0,1,,,,,,,,,0,,,68,47
81360,note_on,1440,0,2,,,,,,,,,0,,,51,0
81720,note_on,0,0,1,,,,,,,,,0,,,61,47
81720,note_on,0,0,2,,,,,,,,,0,,,51,44
81720,note_on,0,0,2,,,,,,,,,0,,,46,44
81720,note_on,360,0,2,,,,,,,,,0,,,51,0
81720,note_on,0,0,1,,,,,,,,,0,,,67,47
81720,note_on,360,0,1,,,,,,,,,0,,,73,52
81730,note_on,0,0,1,,,,,,,,,0,,,72,0
81730,note_on,0,0,1,,,,,,,,,0,,,60,0
81730,note_on,10,0,1,,,,,,,,,0,,,68,0
81730,note_on,10,0,2,,,,,,,,,0,,,44,0
81840,note_on,110,0,2,,,,,,,,,0,,,51,0
81840,note_on,0,0,2,,,,,,,,,0,,,51,44
81840,note_on,0,0,2,,,,,,,,,0,,,44,44
81840,note_on,110,0,1,,,,,,,,,0,,,60,47
81840,note_on,0,0,1,,,,,,,,,0,,,68,47
81840,note_on,0,0,1,,,,,,,,,0,,,72,52
81850,note_on,10,0,2,,,,,,,,,0,,,46,0
81850,note_on,10,0,1,,,,,,,,,0,,,73,0
81850,note_on,0,0,1,,,,,,,,,0,,,67,0
81850,note_on,0,0,1,,,,,,,,,0,,,61,0
82080,note_on,230,0,1,,,,,,,,,0,,,60,0
82080,note_on,0,0,1,,,,,,,,,0,,,68,0
82080,note_on,0,0,1,,,,,,,,,0,,,72,0
82080,note_on,0,0,1,,,,,,,,,0,,,60,41
82080,note_on,0,0,1,,,,,,,,,0,,,72,47
82080,note_on,0,0,2,,,,,,,,,0,,,51,0
82080,note_on,0,0,2,,,,,,,,,0,,,51,39
82080,note_on,0,0,2,,,,,,,,,0,,,44,39
82080,note_on,230,0,2,,,,,,,,,0,,,44,0
82080,note_on,0,0,1,,,,,,,,,0,,,68,41
82440,note_on,0,0,1,,,,,,,,,0,,,68,50
82440,note_on,0,0,1,,,,,,,,,0,,,65,50
82440,note_on,0,0,1,,,,,,,,,0,,,77,57
82440,note_on,0,0,2,,,,,,,,,0,,,49,45
82440,note_on,0,0,2,,,,,,,,,0,,,51,45
82440,note_on,360,0,2,,,,,,,,,0,,,51,0
82440,note_on,360,0,1,,,,,,,,,0,,,68,0
82450,note_on,10,0,1,,,,,,,,,0,,,72,0
82450,note_on,0,0,1,,,,,,,,,0,,,60,0
82450,note_on,10,0,2,,,,,,,,,0,,,44,0
82560,note_on,0,0,2,,,,,,,,,0,,,51,49
82560,note_on,0,0,1,,,,,,,,,0,,,68,53
82560,note_on,110,0,2,,,,,,,,,0,,,51,0
82560,note_on,0,0,2,,,,,,,,,0,,,48,49
82560,note_on,110,0,1,,,,,,,,,0,,,75,60
82560,note_on,0,0,1,,,,,,,,,0,,,63,53
82570,note_on,10,0,2,,,,,,,,,0,,,49,0
82570,note_on,10,0,1,,,,,,,,,0,,,65,0
82570,note_on,0,0,1,,,,,,,,,0,,,77,0
82570,note_on,0,0,1,,,,,,,,,0,,,68,0
82600,set_tempo,2672,1,0,,,,,,1048401,,,,,,,
82800,note_on,230,0,2,,,,,,,,,0,,,51,0
82800,note_on,0,0,1,,,,,,,,,0,,,63,0
82800,note_on,0,0,1,,,,,,,,,0,,,68,0
82800,note_on,0,0,1,,,,,,,,,0,,,68,59
82800,note_on,0,0,1,,,,,,,,,0,,,75,66
82800,note_on,0,0,1,,,,,,,,,0,,,63,59
82800,note_on,0,0,2,,,,,,,,,0,,,51,51
82800,note_on,0,0,2,,,,,,,,,0,,,48,51
82800,note_on,0,0,2,,,,,,,,,0,,,48,0
82800,note_on,230,0,1,,,,,,,,,0,,,75,0
82808,set_tempo,208,1,0,,,,,,814332,,,,,,,
83400,note_on,0,0,1,,,,,,,,,0,,,63,42
83400,note_on,600,0,1,,,,,,,,,0,,,63,0
83400,note_on,0,0,1,,,,,,,,,0,,,75,0
83400,note_on,0,0,1,,,,,,,,,0,,,68,0
83400,note_on,0,0,1,,,,,,,,,0,,,75,42
83520,note_on,720,0,2,,,,,,,,,0,,,51,0
83520,note_on,0,0,2,,,,,,,,,0,,,51,37
83520,note_on,120,0,1,,,,,,,,,0,,,75,0
83520,note_on,0,0,1,,,,,,,,,0,,,61,42
83520,note_on,0,0,2,,,,,,,,,0,,,48,0
83520,note_on,0,0,1,,,,,,,,,0,,,67,42
83520,note_on,0,0,1,,,,,,,,,0,,,63,0
83520,note_on,0,0,2,,,,,,,,,0,,,46,37
83520,note_on,0,0,1,,,,,,,,,0,,,73,48
84120,note_on,600,0,2,,,,,,,,,0,,,46,0
84120,note_on,0,0,2,,,,,,,,,0,,,51,0
84120,set_tempo,1312,1,0,,,,,,1048401,,,,,,,
84120,note_on,0,0,1,,,,,,,,,0,,,67,0
84120,note_on,0,0,1,,,,,,,,,0,,,60,30
84120,note_on,0,0,1,,,,,,,,,0,,,68,30
84120,note_on,0,0,2,,,,,,,,,0,,,44,29
84120,note_on,0,0,1,,,,,,,,,0,,,73,0
84120,note_on,600,0,1,,,,,,,,,0,,,61,0
84120,note_on,0,0,1,,,,,,,,,0,,,72,35
84120,note_on,0,0,2,,,,,,,,,0,,,51,29
84232,set_tempo,112,1,0,,,,,,814332,,,,,,,
84240,note_on,0,0,1,,,,,,,,,0,,,60,30
84240,note_on,0,0,2,,,,,,,,,0,,,44,0
84240,note_on,0,0,2,,,,,,,,,0,,,51,29
84240,note_on,0,0,2,,,,,,,,,0,,,44,29
84240,note_on,0,0,1,,,,,,,,,0,,,72,35
84240,note_on,0,0,1,,,,,,,,,0,,,68,30
84240,note_on,0,0,1,,,,,,,,,0,,,68,0
84240,note_on,0,0,1,,,,,,,,,0,,,60,0
84240,note_on,120,0,1,,,,,,,,,0,,,72,0
84240,note_on,120,0,2,,,,,,,,,0,,,51,0
85680,note_on,1440,0,1,,,,,,,,,0,,,72,0
85680,note_on,0,0,1,,,,,,,,,0,,,67,39
85680,note_on,0,0,1,,,,,,,,,0,,,60,0
85680,note_on,0,0,1,,,,,,,,,0,,,68,0
85680,note_on,0,0,1,,,,,,,,,0,,,70,44
85680,note_on,0,0,2,,,,,,,,,0,,,51,0
85680,note_on,1440,0,2,,,,,,,,,0,,,44,0
85680,note_on,0,0,2,,,,,,,,,0,,,39,36
85680,note_on,0,0,2,,,,,,,,,0,,,51,36
85680,note_on,0,0,1,,,,,,,,,0,,,58,39
86040,note_on,360,0,1,,,,,,,,,0,,,68,39
86040,note_on,0,0,1,,,,,,,,,0,,,59,39
86040,note_on,0,0,1,,,,,,,,,0,,,71,44
86040,note_on,0,0,2,,,,,,,,,0,,,51,37
86040,note_on,0,0,2,,,,,,,,,0,,,44,37
86040,note_on,360,0,2,,,,,,,,,0,,,51,0
86050,note_on,10,0,2,,,,,,,,,0,,,39,0
86050,note_on,0,0,1,,,,,,,,,0,,,70,0
86050,note_on,0,0,1,,,,,,,,,0,,,67,0
86050,note_on,10,0,1,,,,,,,,,0,,,58,0
86160,note_on,0,0,1,,,,,,,,,0,,,58,39
86160,note_on,110,0,1,,,,,,,,,0,,,70,44
86160,note_on,0,0,1,,,,,,,,,0,,,67,39
86160,note_on,110,0,2,,,,,,,,,0,,,51,0
86160,note_on,0,0,2,,,,,,,,,0,,,39,37
86160,note_on,0,0,2,,,,,,,,,0,,,51,37
86170,note_on,0,0,1,,,,,,,,,0,,,71,0
86170,note_on,0,0,1,,,,,,,,,0,,,59,0
86170,note_on,10,0,1,,,,,,,,,0,,,68,0
86170,note_on,10,0,2,,,,,,,,,0,,,44,0
86400,note_on,230,0,2,,,,,,,,,0,,,51,0
86400,note_on,0,0,1,,,,,,,,,0,,,67,39
86400,note_on,0,0,1,,,,,,,,,0,,,58,39
86400,note_on,0,0,1,,,,,,,,,0,,,67,0
86400,note_on,230,0,1,,,,,,,,,0,,,70,0
86400,note_on,0,0,1,,,,,,,,,0,,,58,0
86400,note_on,0,0,2,,,,,,,,,0,,,39,37
86400,note_on,0,0,2,,,,,,,,,0,,,51,37
86400,note_on,0,0,2,,,,,,,,,0,,,39,0
86400,note_on,0,0,1,,,,,,,,,0,,,70,44
86760,note_on,0,0,2,,,,,,,,,0,,,51,36
86760,note_on,360,0,2,,,,,,,,,0,,,51,0
86760,note_on,360,0,1,,,,,,,,,0,,,59,39
86760,note_on,0,0,1,,,,,,,,,0,,,71,44
86760,note_on,0,0,1,,,,,,,,,0,,,68,39
86760,note_on,0,0,2,,,,,,,,,0,,,44,36
86770,note_on,10,0,2,,,,,,,,,0,,,39,0
86770,note_on,0,0,1,,,,,,,,,0,,,67,0
86770,note_on,0,0,1,,,,,,,,,0,,,58,0
86770,note_on,10,0,1,,,,,,,,,0,,,70,0
86880,note_on,110,0,2,,,,,,,,,0,,,51,0
86880,note_on,0,0,2,,,,,,,,,0,,,51,36
86880,note_on,110,0,1,,,,,,,,,0,,,67,39
86880,note_on,0,0,1,,,,,,,,,0,,,70,44
86880,set_tempo,2648,1,0,,,,,,1058948,,,,,,,
86880,note_on,0,0,1,,,,,,,,,0,,,58,39
86880,note_on,0,0,2,,,,,,,,,0,,,39,36
86890,note_on,10,0,1,,,,,,,,,0,,,59,0
86890,note_on,0,0,1,,,,,,,,,0,,,71,0
86890,note_on,0,0,1,,,,,,,,,0,,,68,0
86890,note_on,10,0,2,,,,,,,,,0,,,44,0
87120,note_on,0,0,1,,,,,,,,,0,,,68,57
87120,note_on,0,0,2,,,,,,,,,0,,,38,53
87120,note_on,0,0,2,,,,,,,,,0,,,50,53
87120,note_on,0,0,2,,,,,,,,,0,,,51,0
87120,note_on,230,0,2,,,,,,,,,0,,,39,0
87120,note_on,230,0,1,,,,,,,,,0,,,67,0
87120,set_tempo,240,1,0,,,,,,814332,,,,,,,
87120,note_on,0,0,1,,,,,,,,,0,,,65,57
87120,note_on,0,0,1,,,,,,,,,0,,,71,63
87120,note_on,0,0,1,,,,,,,,,0,,,70,0
87120,note_on,0,0,1,,,,,,,,,0,,,58,0
88560,note_on,0,0,2,,,,,,,,,0,,,51,29
88560,note_on,0,0,2,,,,,,,,,0,,,39,29
88560,note_on,0,0,2,,,,,,,,,0,,,38,0
88560,note_on,1440,0,2,,,,,,,,,0,,,50,0
88560,note_on,0,0,1,,,,,,,,,0,,,63,30
88560,note_on,1440,0,1,,,,,,,,,0,,,65,0
89280,note_on,0,0,1,,,,,,,,,0,,,68,0
89280,note_on,720,0,1,,,,,,,,,0,,,71,0
89280,note_on,0,0,1,,,,,,,,,0,,,67,24
89280,note_on,0,0,1,,,,,,,,,0,,,70,24
89520,note_on,0,0,1,,,,,,,,,0,,,63,0
89520,note_on,0,0,1,,,,,,,,,0,,,70,0
89520,note_on,240,0,1,,,,,,,,,0,,,67,0
89520,note_on,960,0,2,,,,,,,,,0,,,51,0
89520,note_on,0,0,2,,,,,,,,,0,,,39,0
90000,note_on,0,0,1,,,,,,,,,0,,,63,47
90000,note_on,0,0,1,,,,,,,,,0,,,71,52
90000,note_on,480,0,1,,,,,,,,,0,,,66,47
90360,note_on,360,0,1,,,,,,,,,0,,,73,53
90370,note_on,10,0,1,,,,,,,,,0,,,71,0
90480,note_on,110,0,1,,,,,,,,,0,,,66,0
90480,note_on,960,0,2,,,,,,,,,0,,,51,45
90480,note_on,0,0,1,,,,,,,,,0,,,71,53
90480,note_on,0,0,1,,,,,,,,,0,,,73,0
90480,note_on,0,0,1,,,,,,,,,0,,,63,48
90480,note_on,0,0,1,,,,,,,,,0,,,66,48
90480,note_on,0,0,1,,,,,,,,,0,,,63,0
90720,note_on,240,0,2,,,,,,,,,0,,,51,0
90720,note_on,0,0,2,,,,,,,,,0,,,56,44
90720,note_on,0,0,1,,,,,,,,,0,,,71,48
90720,note_on,0,0,1,,,,,,,,,0,,,65,48
90720,note_on,240,0,1,,,,,,,,,0,,,71,0
90720,note_on,0,0,1,,,,,,,,,0,,,73,58
90720,note_on,0,0,1,,,,,,,,,0,,,63,0
90720,note_on,0,0,1,,,,,,,,,0,,,66,0
91080,note_on,360,0,2,,,,,,,,,0,,,58,44
91090,note_on,10,0,2,,,,,,,,,0,,,56,0
91200,note_on,0,0,1,,,,,,,,,0,,,74,61
91200,note_on,480,0,1,,,,,,,,,0,,,73,0
91200,note_on,110,0,2,,,,,,,,,0,,,58,0
91200,note_on,0,0,2,,,,,,,,,0,,,56,44
91440,note_on,0,0,1,,,,,,,,,0,,,65,0
91440,note_on,0,0,1,,,,,,,,,0,,,71,49
91440,note_on,0,0,1,,,,,,,,,0,,,75,55
91440,note_on,0,0,1,,,,,,,,,0,,,66,49
91440,note_on,240,0,1,,,,,,,,,0,,,74,0
91440,set_tempo,4320,1,0,,,,,,808081,,,,,,,
91440,note_on,0,0,2,,,,,,,,,0,,,59,44
91440,note_on,240,0,2,,,,,,,,,0,,,56,0
91440,note_on,0,0,1,,,,,,,,,0,,,71,0
91440,note_on,0,0,2,,,,,,,,,0,,,57,44
91584,set_tempo,144,1,0,,,,,,814332,,,,,,,
91680,note_on,0,0,1,,,,,,,,,0,,,75,0
91680,note_on,0,0,2,,,,,,,,,0,,,56,52
91680,note_on,240,0,2,,,,,,,,,0,,,57,0
91680,note_on,240,0,1,,,,,,,,,0,,,66,0
91680,note_on,0,0,1,,,,,,,,,0,,,71,0
91680,note_on,0,0,1,,,,,,,,,0,,,64,59
91680,note_on,0,0,1,,,,,,,,,0,,,71,59
91680,note_on,0,0,1,,,,,,,,,0,,,76,66
91728,set_tempo,144,1,0,,,,,,820681,,,,,,,
91872,set_tempo,144,1,0,,,,,,827130,,,,,,,
91920,note_on,240,0,1,,,,,,,,,0,,,71,0
91920,note_on,0,0,1,,,,,,,,,0,,,76,0
91920,note_on,0,0,1,,,,,,,,,0,,,78,70
91920,note_on,0,0,2,,,,,,,,,0,,,54,60
91920,note_on,0,0,1,,,,,,,,,0,,,66,63
91920,note_on,0,0,1,,,,,,,,,0,,,71,63
91920,note_on,240,0,2,,,,,,,,,0,,,56,0
91920,note_on,0,0,2,,,,,,,,,0,,,59,0
91920,note_on,0,0,1,,,,,,,,,0,,,64,0
91920,note_on,0,0,2,,,,,,,,,0,,,63,60
92008,set_tempo,136,1,0,,,,,,833449,,,,,,,
92152,set_tempo,144,1,0,,,,,,840101,,,,,,,
92160,note_on,0,0,2,,,,,,,,,0,,,54,0
92160,note_on,0,0,1,,,,,,,,,0,,,80,77
92160,note_on,0,0,2,,,,,,,,,0,,,64,64
92160,note_on,0,0,1,,,,,,,,,0,,,78,0
92160,note_on,0,0,2,,,,,,,,,0,,,52,64
92160,note_on,240,0,2,,,,,,,,,0,,,63,0
92160,note_on,0,0,1,,,,,,,,,0,,,66,0
92160,note_on,240,0,1,,,,,,,,,0,,,71,0
92160,note_on,0,0,1,,,,,,,,,0,,,68,68
92160,note_on,0,0,1,,,,,,,,,0,,,71,68
92296,set_tempo,144,1,0,,,,,,846860,,,,,,,
92400,note_on,240,0,1,,,,,,,,,0,,,80,0
92400,note_on,0,0,1,,,,,,,,,0,,,76,66
92400,note_on,0,0,2,,,,,,,,,0,,,56,58
92400,note_on,240,0,2,,,,,,,,,0,,,52,0
92432,set_tempo,136,1,0,,,,,,853849,,,,,,,
92576,set_tempo,144,1,0,,,,,,860709,,,,,,,
92640,note_on,0,0,1,,,,,,,,,0,,,65,51
92640,note_on,0,0,2,,,,,,,,,0,,,64,0
92640,note_on,0,0,2,,,,,,,,,0,,,63,48
92640,note_on,240,0,1,,,,,,,,,0,,,76,0
92640,note_on,0,0,1,,,,,,,,,0,,,71,0
92640,note_on,0,0,1,,,,,,,,,0,,,68,0
92640,note_on,0,0,1,,,,,,,,,0,,,68,51
92640,note_on,0,0,1,,,,,,,,,0,,,75,59
92640,note_on,0,0,2,,,,,,,,,0,,,59,48
92640,note_on,240,0,2,,,,,,,,,0,,,56,0
92640,set_tempo,64,1,0,,,,,,1058948,,,,,,,
92872,set_tempo,232,1,0,,,,,,814332,,,,,,,
92880,note_on,0,0,2,,,,,,,,,0,,,59,41
92880,note_on,0,0,1,,,,,,,,,0,,,71,47
92880,note_on,0,0,1,,,,,,,,,0,,,75,52
92880,set_tempo,8,1,0,,,,,,882353,,,,,,,
92880,note_on,0,0,1,,,,,,,,,0,,,75,0
92880,note_on,0,0,2,,,,,,,,,0,,,63,41
92880,note_on,0,0,1,,,,,,,,,0,,,66,47
92880,note_on,0,0,1,,,,,,,,,0,,,68,0
92880,note_on,240,0,1,,,,,,,,,0,,,65,0
92880,note_on,240,0,2,,,,,,,,,0,,,59,0
92880,note_on,0,0,2,,,,,,,,,0,,,63,0
92880,note_on,0,0,2,,,,,,,,,0,,,54,41
93120,set_tempo,240,1,0,,,,,,888889,,,,,,,
93360,set_tempo,240,1,0,,,,,,895522,,,,,,,
93580,set_tempo,220,1,0,,,,,,902256,,,,,,,
93600,set_tempo,20,1,0,,,,,,863309,,,,,,,
93600,note_on,0,0,1,,,,,,,,,0,,,70,30
93600,note_on,0,0,1,,,,,,,,,0,,,71,0
93600,note_on,0,0,1,,,,,,,,,0,,,73,35
93600,note_on,720,0,2,,,,,,,,,0,,,59,0
93600,note_on,0,0,2,,,,,,,,,0,,,63,0
93600,note_on,720,0,1,,,,,,,,,0,,,75,0
93600,note_on,0,0,2,,,,,,,,,0,,,61,29
93600,note_on,0,0,2,,,,,,,,,0,,,58,29
93840,note_on,240,0,1,,,,,,,,,0,,,73,0
93840,note_on,0,0,1,,,,,,,,,0,,,70,0
93840,note_on,0,0,1,,,,,,,,,0,,,66,0
93840,note_on,0,0,2,,,,,,,,,0,,,54,0
93840,note_on,0,0,2,,,,,,,,,0,,,58,0
93840,note_on,240,0,2,,,,,,,,,0,,,61,0
94080,set_tempo,480,1,0,,,,,,833333,,,,,,,
94320,note_on,0,0,2,,,,,,,,,0,,,52,29
94320,note_on,480,0,2,,,,,,,,,0,,,64,29
94320,note_on,0,0,1,,,,,,,,,0,,,80,34
94320,note_on,480,0,1,,,,,,,,,0,,,71,29
94320,note_on,0,0,1,,,,,,,,,0,,,68,29
94560,note_on,240,0,1,,,,,,,,,0,,,80,0
94560,note_on,0,0,1,,,,,,,,,0,,,76,35
94560,note_on,0,0,2,,,,,,,,,0,,,56,29
94560,note_on,240,0,2,,,,,,,,,0,,,52,0
94800,note_on,0,0,2,,,,,,,,,0,,,59,30
94800,note_on,0,0,2,,,,,,,,,0,,,64,0
94800,note_on,240,0,2,,,,,,,,,0,,,56,0
94800,note_on,0,0,1,,,,,,,,,0,,,75,35
94800,set_tempo,720,1,0,,,,,,1069519,,,,,,,
94800,note_on,0,0,1,,,,,,,,,0,,,65,30
94800,note_on,0,0,1,,,,,,,,,0,,,68,30
94800,note_on,0,0,1,,,,,,,,,0,,,71,0
94800,note_on,0,0,1,,,,,,,,,0,,,68,0
94800,note_on,240,0,1,,,,,,,,,0,,,76,0
94800,note_on,0,0,2,,,,,,,,,0,,,63,30
95040,note_on,0,0,1,,,,,,,,,0,,,66,31
95040,note_on,0,0,1,,,,,,,,,0,,,75,36
95040,note_on,0,0,1,,,,,,,,,0,,,65,0
95040,note_on,240,0,1,,,,,,,,,0,,,75,0
95040,note_on,0,0,1,,,,,,,,,0,,,71,31
95040,note_on,0,0,1,,,,,,,,,0,,,68,0
95040,note_on,0,0,2,,,,,,,,,0,,,59,30
95040,note_on,0,0,2,,,,,,,,,0,,,54,30
95040,note_on,0,0,2,,,,,,,,,0,,,63,30
95040,note_on,0,0,2,,,,,,,,,0,,,59,0
95040,note_on,240,0,2,,,,,,,,,0,,,63,0
95040,set_tempo,240,1,0,,,,,,869565,,,,,,,
95100,set_tempo,60,1,0,,,,,,875912,,,,,,,
95140,set_tempo,40,1,0,,,,,,882353,,,,,,,
95200,set_tempo,60,1,0,,,,,,888889,,,,,,,
95240,set_tempo,40,1,0,,,,,,895522,,,,,,,
95300,set_tempo,60,1,0,,,,,,902256,,,,,,,
95340,set_tempo,40,1,0,,,,,,909091,,,,,,,
95400,set_tempo,60,1,0,,,,,,916031,,,,,,,
95440,set_tempo,40,1,0,,,,,,923077,,,,,,,
95480,set_tempo,40,1,0,,,,,,930233,,,,,,,
95520,set_tempo,40,1,0,,,,,,814332,,,,,,,
95760,note_on,0,0,1,,,,,,,,,0,,,73,29
95760,note_on,0,0,1,,,,,,,,,0,,,70,26
95760,note_on,0,0,1,,,,,,,,,0,,,71,0
95760,note_on,720,0,1,,,,,,,,,0,,,75,0
95760,note_on,0,0,2,,,,,,,,,0,,,58,24
95760,note_on,0,0,2,,,,,,,,,0,,,61,24
95760,note_on,0,0,2,,,,,,,,,0,,,59,0
95760,note_on,720,0,2,,,,,,,,,0,,,63,0
96000,note_on,0,0,2,,,,,,,,,0,,,58,0
96000,note_on,0,0,2,,,,,,,,,0,,,54,0
96000,note_on,240,0,1,,,,,,,,,0,,,73,0
96000,note_on,0,0,1,,,,,,,,,0,,,70,0
96000,note_on,0,0,1,,,,,,,,,0,,,66,0
96000,note_on,240,0,2,,,,,,,,,0,,,61,0
96480,note_on,480,0,2,,,,,,,,,0,,,51,44
96480,note_on,0,0,2,,,,,,,,,0,,,43,44
96480,note_on,480,0,1,,,,,,,,,0,,,73,53
96480,note_on,0,0,1,,,,,,,,,0,,,63,48
96840,note_on,360,0,1,,,,,,,,,0,,,75,52
96850,note_on,10,0,1,,,,,,,,,0,,,73,0
96960,note_on,0,0,1,,,,,,,,,0,,,70,52
96960,note_on,110,0,1,,,,,,,,,0,,,75,0
97200,note_on,0,0,2,,,,,,,,,0,,,44,44
97200,note_on,0,0,2,,,,,,,,,0,,,51,44
97200,note_on,720,0,2,,,,,,,,,0,,,43,0
97200,note_on,0,0,2,,,,,,,,,0,,,51,0
97200,note_on,0,0,1,,,,,,,,,0,,,73,52
97200,note_on,0,0,1,,,,,,,,,0,,,63,0
97200,note_on,240,0,1,,,,,,,,,0,,,70,0
97200,note_on,0,0,1,,,,,,,,,0,,,63,47
97920,note_on,720,0,1,,,,,,,,,0,,,73,0
97920,note_on,0,0,1,,,,,,,,,0,,,72,52
98400,note_on,480,0,1,,,,,,,,,0,,,72,0
98400,note_on,0,0,2,,,,,,,,,0,,,46,52
98400,note_on,1200,0,2,,,,,,,,,0,,,44,0
98400,note_on,0,0,1,,,,,,,,,0,,,73,63
98640,set_tempo,3120,1,0,,,,,,814332,,,,,,,
98640,note_on,0,0,1,,,,,,,,,0,,,63,59
98640,note_on,0,0,1,,,,,,,,,0,,,75,67
98640,note_on,0,0,2,,,,,,,,,0,,,51,0
98640,note_on,0,0,2,,,,,,,,,0,,,51,59
98640,note_on,0,0,1,,,,,,,,,0,,,63,0
98640,note_on,240,0,1,,,,,,,,,0,,,73,0
98640,note_on,240,0,2,,,,,,,,,0,,,46,0
98640,note_on,0,0,2,,,,,,,,,0,,,48,59
98736,set_tempo,96,1,0,,,,,,820681,,,,,,,
98832,set_tempo,96,1,0,,,,,,827130,,,,,,,
98880,note_on,0,0,1,,,,,,,,,0,,,73,63
98880,note_on,0,0,1,,,,,,,,,0,,,75,0
98880,note_on,240,0,2,,,,,,,,,0,,,48,0
98880,note_on,0,0,2,,,,,,,,,0,,,46,56
98880,note_on,240,0,1,,,,,,,,,0,,,63,0
98880,note_on,0,0,1,,,,,,,,,0,,,67,57
98928,set_tempo,96,1,0,,,,,,833449,,,,,,,
99024,set_tempo,96,1,0,,,,,,840101,,,,,,,
99120,note_on,0,0,1,,,,,,,,,0,,,73,0
99120,note_on,0,0,1,,,,,,,,,0,,,68,50
99120,note_on,0,0,1,,,,,,,,,0,,,72,57
99120,set_tempo,96,1,0,,,,,,889680,,,,,,,
99120,note_on,240,0,1,,,,,,,,,0,,,67,0
99120,note_on,0,0,2,,,,,,,,,0,,,44,49
99120,note_on,240,0,2,,,,,,,,,0,,,46,0
99360,note_on,0,0,2,,,,,,,,,0,,,51,0
99360,note_on,240,0,2,,,,,,,,,0,,,44,0
99360,note_on,0,0,2,,,,,,,,,0,,,49,46
99360,note_on,0,0,1,,,,,,,,,0,,,72,52
99360,note_on,0,0,1,,,,,,,,,0,,,65,47
99360,note_on,0,0,1,,,,,,,,,0,,,68,0
99360,note_on,240,0,1,,,,,,,,,0,,,72,0
99360,set_tempo,240,1,0,,,,,,874763,,,,,,,
99600,note_on,240,0,1,,,,,,,,,0,,,72,0
99600,note_on,0,0,1,,,,,,,,,0,,,70,52
99832,set_tempo,472,1,0,,,,,,920387,,,,,,,
99840,note_on,480,0,2,,,,,,,,,0,,,58,37
99840,note_on,0,0,1,,,,,,,,,0,,,64,47
99840,note_on,0,0,1,,,,,,,,,0,,,73,52
99840,note_on,0,0,1,,,,,,,,,0,,,65,0
99840,note_on,240,0,1,,,,,,,,,0,,,70,0
100080,note_on,0,0,2,,,,,,,,,0,,,49,0
100080,note_on,0,0,2,,,,,,,,,0,,,51,39
100080,note_on,240,0,2,,,,,,,,,0,,,58,0
100080,note_on,0,0,2,,,,,,,,,0,,,60,39
100080,note_on,240,0,1,,,,,,,,,0,,,64,0
100080,note_on,0,0,1,,,,,,,,,0,,,68,45
100080,note_on,0,0,1,,,,,,,,,0,,,63,39
100080,note_on,0,0,1,,,,,,,,,0,,,73,0
100088,set_tempo,256,1,0,,,,,,814332,,,,,,,
100680,note_on,600,0,1,,,,,,,,,0,,,63,0
100680,note_on,0,0,1,,,,,,,,,0,,,67,39
100680,note_on,0,0,1,,,,,,,,,0,,,61,35
100680,note_on,0,0,1,,,,,,,,,0,,,68,0
100680,set_tempo,592,1,0,,,,,,962464,,,,,,,
100680,note_on,0,0,2,,,,,,,,,0,,,51,0
100680,note_on,0,0,2,,,,,,,,,0,,,58,33
100680,note_on,0,0,2,,,,,,,,,0,,,51,33
100680,note_on,600,0,2,,,,,,,,,0,,,60,0
100800,note_on,0,0,2,,,,,,,,,0,,,58,34
100800,set_tempo,120,1,0,,,,,,814332,,,,,,,
100800,note_on,0,0,2,,,,,,,,,0,,,51,34
100800,note_on,0,0,2,,,,,,,,,0,,,58,0
100800,note_on,120,0,1,,,,,,,,,0,,,67,0
100800,note_on,0,0,1,,,,,,,,,0,,,61,0
100800,note_on,0,0,1,,,,,,,,,0,,,61,35
100800,note_on,120,0,2,,,,,,,,,0,,,51,0
100800,note_on,0,0,1,,,,,,,,,0,,,67,39
101400,note_on,600,0,1,,,,,,,,,0,,,61,0
101400,note_on,0,0,1,,,,,,,,,0,,,60,33
101400,note_on,0,0,1,,,,,,,,,0,,,67,0
101400,set_tempo,600,1,0,,,,,,971188,,,,,,,
101400,note_on,600,0,2,,,,,,,,,0,,,51,0
101400,note_on,0,0,2,,,,,,,,,0,,,58,0
101400,note_on,0,0,2,,,,,,,,,0,,,44,29
101400,note_on,0,0,2,,,,,,,,,0,,,56,29
101400,note_on,0,0,1,,,,,,,,,0,,,68,37
101520,note_on,0,0,1,,,,,,,,,0,,,60,33
101520,note_on,0,0,1,,,,,,,,,0,,,68,37
101520,note_on,0,0,1,,,,,,,,,0,,,60,0
101520,note_on,120,0,2,,,,,,,,,0,,,56,0
101520,note_on,0,0,2,,,,,,,,,0,,,44,0
101520,note_on,0,0,2,,,,,,,,,0,,,56,29
101520,note_on,0,0,2,,,,,,,,,0,,,44,29
101520,note_on,120,0,1,,,,,,,,,0,,,68,0
101520,set_tempo,120,1,0,,,,,,743126,,,,,,,
101524,set_tempo,4,1,0,,,,,,777807,,,,,,,
101584,set_tempo,60,1,0,,,,,,842223,,,,,,,
102000,note_on,480,0,2,,,,,,,,,0,,,44,0
102000,note_on,0,0,2,,,,,,,,,0,,,56,0
102112,control_change,112,0,2,,,,,,,,,0,64,126,,
102120,note_on,8,0,2,,,,,,,,,0,,,51,24
102120,set_tempo,536,1,0,,,,,,912548,,,,,,,
102240,note_on,0,0,1,,,,,,,,,0,,,68,0
102240,note_on,120,0,2,,,,,,,,,0,,,51,0
102240,set_tempo,120,1,0,,,,,,842223,,,,,,,
102240,note_on,0,0,2,,,,,,,,,0,,,51,24
102240,note_on,720,0,1,,,,,,,,,0,,,60,0
102712,control_change,472,0,2,,,,,,,,,0,64,0,,
102840,note_on,128,0,2,,,,,,,,,0,,,44,29
102840,note_on,0,0,1,,,,,,,,,0,,,60,30
102840,note_on,0,0,1,,,,,,,,,0,,,68,30
102840,note_on,600,0,1,,,,,,,,,0,,,72,35
102840,set_tempo,600,1,0,,,,,,904977,,,,,,,
102960,note_on,120,0,1,,,,,,,,,0,,,68,0
102960,note_on,0,0,1,,,,,,,,,0,,,60,0
102960,note_on,0,0,1,,,,,,,,,0,,,72,0
102960,note_on,0,0,1,,,,,,,,,0,,,60,30
102960,note_on,0,0,1,,,,,,,,,0,,,68,30
102960,note_on,0,0,1,,,,,,,,,0,,,72,35
102960,note_on,0,0,2,,,,,,,,,0,,,44,29
102960,set_tempo,120,1,0,,,,,,842223,,,,,,,
102960,note_on,120,0,2,,,,,,,,,0,,,44,0
103320,note_on,0,0,1,,,,,,,,,0,,,67,30
103320,note_on,360,0,1,,,,,,,,,0,,,61,30
103320,note_on,0,0,1,,,,,,,,,0,,,73,35
103320,note_on,360,0,2,,,,,,,,,0,,,46,29
103330,note_on,10,0,2,,,,,,,,,0,,,44,0
103330,note_on,0,0,1,,,,,,,,,0,,,60,0
103330,note_on,10,0,1,,,,,,,,,0,,,72,0
103330,note_on,0,0,1,,,,,,,,,0,,,68,0
103432,set_tempo,472,1,0,,,,,,912548,,,,,,,
103440,note_on,110,0,2,,,,,,,,,0,,,44,29
103440,note_on,110,0,1,,,,,,,,,0,,,68,30
103440,note_on,0,0,1,,,,,,,,,0,,,72,35
103440,note_on,0,0,1,,,,,,,,,0,,,60,30
103450,note_on,10,0,2,,,,,,,,,0,,,46,0
103450,note_on,10,0,1,,,,,,,,,0,,,61,0
103450,note_on,0,0,1,,,,,,,,,0,,,67,0
103450,note_on,0,0,1,,,,,,,,,0,,,73,0
103680,note_on,230,0,2,,,,,,,,,0,,,44,0
103680,set_tempo,248,1,0,,,,,,842223,,,,,,,
103680,note_on,0,0,1,,,,,,,,,0,,,73,30
103680,note_on,0,0,1,,,,,,,,,0,,,61,27
103680,note_on,0,0,2,,,,,,,,,0,,,46,25
103680,note_on,0,0,1,,,,,,,,,0,,,72,0
103680,note_on,0,0,1,,,,,,,,,0,,,60,0
103680,note_on,230,0,1,,,,,,,,,0,,,68,0
103680,note_on,0,0,1,,,,,,,,,0,,,67,27
104280,note_on,600,0,2,,,,,,,,,0,,,51,0
104280,control_change,0,0,2,,,,,,,,,0,64,127,,
104280,note_on,0,0,2,,,,,,,,,0,,,51,25
104280,set_tempo,600,1,0,,,,,,920104,,,,,,,
104400,note_on,120,0,2,,,,,,,,,0,,,51,0
104400,set_tempo,120,1,0,,,,,,842223,,,,,,,
104400,note_on,0,0,2,,,,,,,,,0,,,51,25
104880,control_change,480,0,2,,,,,,,,,0,64,0,,
105000,note_on,0,0,1,,,,,,,,,0,,,67,0
105000,note_on,0,0,1,,,,,,,,,0,,,58,30
105000,note_on,0,0,1,,,,,,,,,0,,,70,35
105000,note_on,0,0,2,,,,,,,,,0,,,39,29
105000,note_on,120,0,2,,,,,,,,,0,,,46,0
105000,set_tempo,600,1,0,,,,,,904977,,,,,,,
105000,note_on,0,0,1,,,,,,,,,0,,,67,30
105000,note_on,0,0,1,,,,,,,,,0,,,61,0
105000,note_on,1320,0,1,,,,,,,,,0,,,73,0
105120,note_on,0,0,1,,,,,,,,,0,,,67,30
105120,note_on,0,0,1,,,,,,,,,0,,,67,0
105120,note_on,0,0,1,,,,,,,,,0,,,70,0
105120,note_on,120,0,1,,,,,,,,,0,,,58,0
105120,note_on,0,0,2,,,,,,,,,0,,,39,29
105120,note_on,120,0,2,,,,,,,,,0,,,39,0
105120,note_on,0,0,1,,,,,,,,,0,,,58,30
105120,note_on,0,0,1,,,,,,,,,0,,,70,35
105128,set_tempo,128,1,0,,,,,,842223,,,,,,,
105480,note_on,0,0,1,,,,,,,,,0,,,68,30
105480,note_on,0,0,1,,,,,,,,,0,,,60,30
105480,note_on,360,0,1,,,,,,,,,0,,,72,35
105480,note_on,360,0,2,,,,,,,,,0,,,44,29
105490,note_on,0,0,1,,,,,,,,,0,,,58,0
105490,note_on,0,0,1,,,,,,,,,0,,,70,0
105490,note_on,10,0,2,,,,,,,,,0,,,39,0
105490,note_on,10,0,1,,,,,,,,,0,,,67,0
105592,set_tempo,464,1,0,,,,,,912548,,,,,,,
105600,note_on,110,0,2,,,,,,,,,0,,,39,29
105600,note_on,110,0,1,,,,,,,,,0,,,58,30
105600,note_on,0,0,1,,,,,,,,,0,,,67,30
105600,note_on,0,0,1,,,,,,,,,0,,,70,35
105610,note_on,10,0,1,,,,,,,,,0,,,72,0
105610,note_on,0,0,1,,,,,,,,,0,,,68,0
105610,note_on,0,0,1,,,,,,,,,0,,,60,0
105610,note_on,10,0,2,,,,,,,,,0,,,44,0
105832,set_tempo,240,1,0,,,,,,842223,,,,,,,
105840,note_on,230,0,1,,,,,,,,,0,,,58,0
105840,note_on,0,0,1,,,,,,,,,0,,,67,0
105840,note_on,0,0,1,,,,,,,,,0,,,70,0
105840,note_on,0,0,1,,,,,,,,,0,,,60,27
105840,note_on,0,0,1,,,,,,,,,0,,,72,30
105840,note_on,0,0,1,,,,,,,,,0,,,68,27
105840,note_on,230,0,2,,,,,,,,,0,,,39,0
105840,note_on,0,0,2,,,,,,,,,0,,,44,24
106320,note_on,480,0,2,,,,,,,,,0,,,51,0
106440,note_on,120,0,2,,,,,,,,,0,,,51,25
106440,set_tempo,608,1,0,,,,,,977676,,,,,,,
106448,control_change,8,0,2,,,,,,,,,0,64,127,,
106560,set_tempo,120,1,0,,,,,,842223,,,,,,,
106560,note_on,0,0,2,,,,,,,,,0,,,51,25
106560,note_on,112,0,2,,,,,,,,,0,,,51,0
107032,control_change,472,0,2,,,,,,,,,0,64,0,,
107160,note_on,0,0,1,,,,,,,,,0,,,63,35
107160,note_on,0,0,2,,,,,,,,,0,,,48,29
107160,note_on,128,0,2,,,,,,,,,0,,,44,0
107160,note_on,0,0,1,,,,,,,,,0,,,60,0
107160,note_on,0,0,1,,,,,,,,,0,,,72,0
107160,note_on,1320,0,1,,,,,,,,,0,,,68,0
107160,set_tempo,600,1,0,,,,,,904977,,,,,,,
107280,set_tempo,120,1,0,,,,,,842223,,,,,,,
107280,note_on,120,0,1,,,,,,,,,0,,,63,0
107280,note_on,0,0,1,,,,,,,,,0,,,63,35
107280,note_on,120,0,2,,,,,,,,,0,,,48,0
107280,note_on,0,0,2,,,,,,,,,0,,,48,29
107440,set_tempo,160,1,0,,,,,,848896,,,,,,,
107600,set_tempo,160,1,0,,,,,,855554,,,,,,,
107640,note_on,360,0,2,,,,,,,,,0,,,49,28
107640,note_on,360,0,1,,,,,,,,,0,,,65,42
107650,note_on,10,0,1,,,,,,,,,0,,,63,0
107650,note_on,10,0,2,,,,,,,,,0,,,48,0
107752,set_tempo,152,1,0,,,,,,862193,,,,,,,
107760,note_on,110,0,1,,,,,,,,,0,,,63,44
107760,note_on,110,0,2,,,,,,,,,0,,,48,30
107770,note_on,10,0,2,,,,,,,,,0,,,49,0
107770,note_on,10,0,1,,,,,,,,,0,,,65,0
107912,set_tempo,160,1,0,,,,,,869061,,,,,,,
108000,note_on,230,0,1,,,,,,,,,0,,,63,0
108000,note_on,230,0,2,,,,,,,,,0,,,48,0
108000,note_on,0,0,1,,,,,,,,,0,,,65,45
108000,note_on,0,0,2,,,,,,,,,0,,,49,36
108072,set_tempo,160,1,0,,,,,,875912,,,,,,,
108224,set_tempo,152,1,0,,,,,,883132,,,,,,,
108360,note_on,360,0,1,,,,,,,,,0,,,63,44
108360,note_on,360,0,2,,,,,,,,,0,,,48,37
108370,note_on,10,0,2,,,,,,,,,0,,,49,0
108370,note_on,10,0,1,,,,,,,,,0,,,65,0
108384,set_tempo,160,1,0,,,,,,890208,,,,,,,
108480,note_on,0,0,1,,,,,,,,,0,,,63,44
108480,note_on,0,0,2,,,,,,,,,0,,,48,37
108480,note_on,110,0,2,,,,,,,,,0,,,48,0
108480,note_on,110,0,1,,,,,,,,,0,,,63,0
108544,set_tempo,160,1,0,,,,,,897532,,,,,,,
108696,set_tempo,152,1,0,,,,,,904977,,,,,,,
108720,note_on,0,0,1,,,,,,,,,0,,,68,44
108720,note_on,0,0,1,,,,,,,,,0,,,60,39
108720,note_on,0,0,2,,,,,,,,,0,,,51,37
108720,set_tempo,24,1,0,,,,,,842223,,,,,,,
108720,note_on,240,0,2,,,,,,,,,0,,,48,0
108720,note_on,240,0,1,,,,,,,,,0,,,63,0
108720,note_on,0,0,2,,,,,,,,,0,,,51,0
109440,note_on,0,0,1,,,,,,,,,0,,,61,39
109440,note_on,0,0,1,,,,,,,,,0,,,67,39
109440,note_on,0,0,1,,,,,,,,,0,,,70,44
109440,note_on,0,0,2,,,,,,,,,0,,,51,37
109440,note_on,0,0,2,,,,,,,,,0,,,39,37
109440,note_on,0,0,1,,,,,,,,,0,,,68,0
109440,note_on,720,0,1,,,,,,,,,0,,,60,0
109440,note_on,720,0,2,,,,,,,,,0,,,51,0
110032,set_tempo,1312,1,0,,,,,,1084207,,,,,,,
110040,note_on,0,0,1,,,,,,,,,0,,,68,35
110040,note_on,600,0,1,,,,,,,,,0,,,67,0
110040,note_on,0,0,1,,,,,,,,,0,,,70,0
110040,note_on,0,0,1,,,,,,,,,0,,,60,30
110040,note_on,0,0,1,,,,,,,,,0,,,61,0
110040,note_on,0,0,2,,,,,,,,,0,,,44,29
110040,note_on,600,0,2,,,,,,,,,0,,,39,0
110040,note_on,0,0,2,,,,,,,,,0,,,51,29
110040,note_on,0,0,2,,,,,,,,,0,,,51,0
110152,set_tempo,120,1,0,,,,,,842223,,,,,,,
110160,note_on,120,0,2,,,,,,,,,0,,,51,0
110160,note_on,0,0,2,,,,,,,,,0,,,44,0
110160,note_on,120,0,1,,,,,,,,,0,,,60,0
110160,note_on,0,0,2,,,,,,,,,0,,,44,29
110160,note_on,0,0,1,,,,,,,,,0,,,68,0
110160,note_on,0,0,1,,,,,,,,,0,,,60,30
110160,note_on,0,0,1,,,,,,,,,0,,,68,35
110160,note_on,0,0,2,,,,,,,,,0,,,51,29
110740,set_tempo,588,1,0,,,,,,912548,,,,,,,
110752,control_change,592,0,1,,,,,,,,,0,64,126,,
110760,note_on,0,0,1,,,,,,,,,0,,,75,29
110760,control_change,8,0,1,,,,,,,,,0,64,127,,
110880,note_on,0,0,1,,,,,,,,,0,,,75,29
110880,note_on,0,0,1,,,,,,,,,0,,,68,0
110880,note_on,720,0,2,,,,,,,,,0,,,51,0
110880,set_tempo,140,1,0,,,,,,842223,,,,,,,
110880,note_on,120,0,1,,,,,,,,,0,,,75,0
110880,note_on,0,0,1,,,,,,,,,0,,,60,0
110880,note_on,0,0,2,,,,,,,,,0,,,44,0
111352,control_change,472,0,1,,,,,,,,,0,64,0,,
111472,set_tempo,592,1,0,,,,,,912548,,,,,,,
111480,note_on,128,0,1,,,,,,,,,0,,,63,30
111480,note_on,0,0,1,,,,,,,,,0,,,68,35
111480,note_on,600,0,2,,,,,,,,,0,,,60,29
111480,note_on,0,0,2,,,,,,,,,0,,,51,29
111592,set_tempo,120,1,0,,,,,,842223,,,,,,,
111600,note_on,0,0,1,,,,,,,,,0,,,63,0
111600,note_on,120,0,1,,,,,,,,,0,,,68,0
111600,note_on,0,0,1,,,,,,,,,0,,,63,30
111600,note_on,0,0,1,,,,,,,,,0,,,68,35
111600,note_on,0,0,2,,,,,,,,,0,,,60,29
111600,note_on,0,0,2,,,,,,,,,0,,,51,37
111600,note_on,120,0,2,,,,,,,,,0,,,51,0
111600,note_on,0,0,2,,,,,,,,,0,,,60,0
111960,note_on,0,0,1,,,,,,,,,0,,,70,35
111960,note_on,360,0,1,,,,,,,,,0,,,65,30
111960,note_on,360,0,2,,,,,,,,,0,,,51,0
111960,note_on,0,0,2,,,,,,,,,0,,,61,29
111960,note_on,0,0,2,,,,,,,,,0,,,51,29
111970,note_on,10,0,1,,,,,,,,,0,,,63,0
111970,note_on,0,0,1,,,,,,,,,0,,,68,0
111970,note_on,10,0,2,,,,,,,,,0,,,60,0
112080,note_on,0,0,2,,,,,,,,,0,,,60,29
112080,note_on,0,0,2,,,,,,,,,0,,,51,29
112080,set_tempo,488,1,0,,,,,,920104,,,,,,,
112080,note_on,110,0,2,,,,,,,,,0,,,51,0
112080,note_on,110,0,1,,,,,,,,,0,,,63,30
112080,note_on,0,0,1,,,,,,,,,0,,,68,35
112090,note_on,10,0,2,,,,,,,,,0,,,61,0
112090,note_on,10,0,1,,,,,,,,,0,,,70,0
112090,note_on,0,0,1,,,,,,,,,0,,,65,0
112312,set_tempo,232,1,0,,,,,,848896,,,,,,,
112320,note_on,230,0,1,,,,,,,,,0,,,68,0
112320,set_tempo,8,1,0,,,,,,842223,,,,,,,
112320,note_on,0,0,1,,,,,,,,,0,,,70,30
112320,note_on,0,0,2,,,,,,,,,0,,,51,25
112320,note_on,0,0,2,,,,,,,,,0,,,61,25
112320,note_on,0,0,2,,,,,,,,,0,,,51,0
112320,note_on,230,0,2,,,,,,,,,0,,,60,0
112320,note_on,0,0,1,,,,,,,,,0,,,65,27
112320,note_on,0,0,1,,,,,,,,,0,,,63,0
112920,note_on,600,0,1,,,,,,,,,0,,,75,0
112920,control_change,0,0,1,,,,,,,,,0,64,125,,
112920,note_on,0,0,1,,,,,,,,,0,,,75,27
112920,set_tempo,600,1,0,,,,,,912548,,,,,,,
113040,note_on,0,0,1,,,,,,,,,0,,,75,27
113040,note_on,120,0,1,,,,,,,,,0,,,75,0
113040,set_tempo,120,1,0,,,,,,842223,,,,,,,
113504,control_change,464,0,1,,,,,,,,,0,64,0,,
113520,control_change,16,0,1,,,,,,,,,0,64,1,,
113640,note_on,0,0,1,,,,,,,,,0,,,61,30
113640,note_on,0,0,2,,,,,,,,,0,,,58,29
113640,note_on,0,0,2,,,,,,,,,0,,,51,29
113640,note_on,0,0,2,,,,,,,,,0,,,61,0
113640,note_on,1320,0,2,,,,,,,,,0,,,51,0
113640,set_tempo,600,1,0,,,,,,904977,,,,,,,
113640,note_on,120,0,1,,,,,,,,,0,,,65,0
113640,note_on,0,0,1,,,,,,,,,0,,,70,0
113640,note_on,0,0,1,,,,,,,,,0,,,67,35
113760,note_on,120,0,2,,,,,,,,,0,,,58,0
113760,set_tempo,120,1,0,,,,,,842223,,,,,,,
113760,note_on,120,0,1,,,,,,,,,0,,,61,0
113760,note_on,0,0,1,,,,,,,,,0,,,67,35
113760,note_on,0,0,1,,,,,,,,,0,,,61,30
113760,note_on,0,0,1,,,,,,,,,0,,,67,0
113760,note_on,0,0,2,,,,,,,,,0,,,51,0
113760,note_on,0,0,2,,,,,,,,,0,,,58,29
113760,note_on,0,0,2,,,,,,,,,0,,,51,29
114120,note_on,0,0,2,,,,,,,,,0,,,51,29
114120,note_on,0,0,1,,,,,,,,,0,,,63,30
114120,note_on,360,0,1,,,,,,,,,0,,,68,35
114120,note_on,0,0,2,,,,,,,,,0,,,60,29
114120,note_on,360,0,2,,,,,,,,,0,,,51,0
114130,note_on,10,0,1,,,,,,,,,0,,,67,0
114130,note_on,0,0,1,,,,,,,,,0,,,61,0
114130,note_on,10,0,2,,,,,,,,,0,,,58,0
114240,set_tempo,480,1,0,,,,,,904977,,,,,,,
114240,note_on,0,0,1,,,,,,,,,0,,,65,30
114240,note_on,0,0,2,,,,,,,,,0,,,61,29
114240,note_on,110,0,1,,,,,,,,,0,,,70,35
114240,note_on,110,0,2,,,,,,,,,0,,,51,0
114240,note_on,0,0,2,,,,,,,,,0,,,51,29
114250,note_on,10,0,2,,,,,,,,,0,,,60,0
114250,note_on,10,0,1,,,,,,,,,0,,,63,0
114250,note_on,0,0,1,,,,,,,,,0,,,68,0
114480,note_on,0,0,1,,,,,,,,,0,,,68,30
114480,note_on,0,0,2,,,,,,,,,0,,,60,24
114480,note_on,0,0,2,,,,,,,,,0,,,51,24
114480,set_tempo,240,1,0,,,,,,842223,,,,,,,
114480,note_on,230,0,2,,,,,,,,,0,,,51,0
114480,note_on,0,0,2,,,,,,,,,0,,,61,0
114480,note_on,0,0,1,,,,,,,,,0,,,63,27
114480,note_on,230,0,1,,,,,,,,,0,,,65,0
114480,note_on,0,0,1,,,,,,,,,0,,,70,0
115060,set_tempo,580,1,0,,,,,,1152959,,,,,,,
115080,control_change,0,0,1,,,,,,,,,0,64,126,,
115080,note_on,600,0,1,,,,,,,,,0,,,75,0
115080,note_on,0,0,1,,,,,,,,,0,,,75,39
115200,note_on,120,0,1,,,,,,,,,0,,,75,0
115200,set_tempo,140,1,0,,,,,,842223,,,,,,,
115200,note_on,0,0,1,,,,,,,,,0,,,75,39
115672,control_change,472,0,1,,,,,,,,,0,64,0,,
115800,note_on,128,0,1,,,,,,,,,0,,,63,0
115800,note_on,0,0,1,,,,,,,,,0,,,63,35
115800,note_on,0,0,1,,,,,,,,,0,,,68,0
115800,note_on,0,0,2,,,,,,,,,0,,,51,29
115800,set_tempo,600,1,0,,,,,,904977,,,,,,,
115800,note_on,0,0,2,,,,,,,,,0,,,51,0
115800,note_on,1320,0,2,,,,,,,,,0,,,60,0
115800,note_on,0,0,2,,,,,,,,,0,,,60,29
115920,note_on,0,0,1,,,,,,,,,0,,,63,35
115920,note_on,120,0,2,,,,,,,,,0,,,60,0
115920,note_on,0,0,2,,,,,,,,,0,,,51,0
115920,note_on,0,0,2,,,,,,,,,0,,,51,29
115920,note_on,0,0,2,,,,,,,,,0,,,60,29
115920,note_on,120,0,1,,,,,,,,,0,,,63,0
115920,set_tempo,120,1,0,,,,,,839161,,,,,,,
116000,set_tempo,80,1,0,,,,,,845070,,,,,,,
116080,set_tempo,80,1,0,,,,,,851064,,,,,,,
116160,set_tempo,80,1,0,,,,,,857143,,,,,,,
116240,set_tempo,80,1,0,,,,,,863309,,,,,,,
116280,note_on,0,0,2,,,,,,,,,0,,,61,28
116280,note_on,0,0,2,,,,,,,,,0,,,51,29
116280,note_on,360,0,2,,,,,,,,,0,,,51,0
116280,note_on,360,0,1,,,,,,,,,0,,,65,42
116290,note_on,10,0,1,,,,,,,,,0,,,63,0
116290,note_on,10,0,2,,,,,,,,,0,,,60,0
116320,set_tempo,80,1,0,,,,,,869565,,,,,,,
116400,note_on,0,0,2,,,,,,,,,0,,,51,30
116400,note_on,0,0,2,,,,,,,,,0,,,60,30
116400,note_on,110,0,1,,,,,,,,,0,,,63,44
116400,note_on,110,0,2,,,,,,,,,0,,,51,0
116400,set_tempo,80,1,0,,,,,,875912,,,,,,,
116410,note_on,10,0,2,,,,,,,,,0,,,61,0
116410,note_on,10,0,1,,,,,,,,,0,,,65,0
116480,set_tempo,80,1,0,,,,,,882353,,,,,,,
116560,set_tempo,80,1,0,,,,,,888889,,,,,,,
116620,set_tempo,60,1,0,,,,,,895522,,,,,,,
116640,note_on,0,0,2,,,,,,,,,0,,,51,36
116640,note_on,0,0,2,,,,,,,,,0,,,60,0
116640,note_on,230,0,2,,,,,,,,,0,,,51,0
116640,note_on,0,0,2,,,,,,,,,0,,,61,36
116640,note_on,0,0,1,,,,,,,,,0,,,68,45
116640,note_on,230,0,1,,,,,,,,,0,,,63,0
116640,note_on,0,0,1,,,,,,,,,0,,,65,39
116700,set_tempo,80,1,0,,,,,,902256,,,,,,,
116780,set_tempo,80,1,0,,,,,,909091,,,,,,,
116860,set_tempo,80,1,0,,,,,,916031,,,,,,,
116940,set_tempo,80,1,0,,,,,,923077,,,,,,,
117000,note_on,0,0,2,,,,,,,,,0,,,51,37
117000,note_on,0,0,2,,,,,,,,,0,,,60,37
117000,note_on,360,0,1,,,,,,,,,0,,,63,44
117000,note_on,360,0,2,,,,,,,,,0,,,51,0
117010,note_on,10,0,2,,,,,,,,,0,,,61,0
117010,note_on,10,0,1,,,,,,,,,0,,,68,0
117010,note_on,0,0,1,,,,,,,,,0,,,65,0
117020,set_tempo,80,1,0,,,,,,930233,,,,,,,
117100,set_tempo,80,1,0,,,,,,937500,,,,,,,
117120,note_on,110,0,1,,,,,,,,,0,,,63,0
117120,note_on,110,0,2,,,,,,,,,0,,,51,0
117120,note_on,0,0,1,,,,,,,,,0,,,63,44
117120,note_on,0,0,2,,,,,,,,,0,,,51,37
117120,note_on,0,0,2,,,,,,,,,0,,,60,37
117120,note_on,0,0,2,,,,,,,,,0,,,60,0
117180,set_tempo,80,1,0,,,,,,944882,,,,,,,
117260,set_tempo,80,1,0,,,,,,952381,,,,,,,
117320,set_tempo,60,1,0,,,,,,960000,,,,,,,
117336,set_tempo,16,1,0,,,,,,904977,,,,,,,
117360,note_on,0,0,2,,,,,,,,,0,,,63,41
117360,note_on,0,0,2,,,,,,,,,0,,,51,41
117360,note_on,240,0,1,,,,,,,,,0,,,63,0
117360,note_on,0,0,1,,,,,,,,,0,,,75,0
117360,note_on,0,0,1,,,,,,,,,0,,,72,44
117360,note_on,0,0,1,,,,,,,,,0,,,75,51
117360,set_tempo,24,1,0,,,,,,875912,,,,,,,
117360,note_on,0,0,2,,,,,,,,,0,,,51,0
117360,note_on,240,0,2,,,,,,,,,0,,,60,0
118080,note_on,0,0,1,,,,,,,,,0,,,75,45
118080,note_on,0,0,1,,,,,,,,,0,,,79,51
118080,note_on,720,0,1,,,,,,,,,0,,,75,0
118080,note_on,0,0,1,,,,,,,,,0,,,72,0
118080,note_on,720,0,2,,,,,,,,,0,,,51,0
118080,note_on,0,0,2,,,,,,,,,0,,,63,0
118080,note_on,0,0,1,,,,,,,,,0,,,70,45
118080,note_on,0,0,2,,,,,,,,,0,,,51,42
118080,note_on,0,0,2,,,,,,,,,0,,,61,42
118080,note_on,0,0,2,,,,,,,,,0,,,63,42
118680,note_on,0,0,2,,,,,,,,,0,,,51,0
118680,note_on,0,0,2,,,,,,,,,0,,,60,41
118680,note_on,0,0,1,,,,,,,,,0,,,75,45
118680,note_on,0,0,2,,,,,,,,,0,,,63,0
118680,note_on,600,0,1,,,,,,,,,0,,,75,0
118680,note_on,0,0,1,,,,,,,,,0,,,79,0
118680,note_on,0,0,1,,,,,,,,,0,,,68,45
118680,note_on,0,0,1,,,,,,,,,0,,,80,49
118680,set_tempo,1320,1,0,,,,,,977676,,,,,,,
118680,note_on,0,0,2,,,,,,,,,0,,,56,41
118680,note_on,600,0,2,,,,,,,,,0,,,61,0
118680,note_on,0,0,2,,,,,,,,,0,,,63,41
118680,note_on,0,0,1,,,,,,,,,0,,,70,0
118792,set_tempo,112,1,0,,,,,,842223,,,,,,,
118800,note_on,120,0,1,,,,,,,,,0,,,75,0
118800,note_on,0,0,1,,,,,,,,,0,,,68,0
118800,note_on,0,0,1,,,,,,,,,0,,,80,0
118800,note_on,0,0,1,,,,,,,,,0,,,75,45
118800,note_on,0,0,1,,,,,,,,,0,,,68,45
118800,note_on,0,0,1,,,,,,,,,0,,,80,50
118800,note_on,0,0,2,,,,,,,,,0,,,63,0
118800,note_on,0,0,2,,,,,,,,,0,,,56,0
118800,note_on,0,0,2,,,,,,,,,0,,,56,41
118800,note_on,0,0,2,,,,,,,,,0,,,63,41
118800,note_on,0,0,2,,,,,,,,,0,,,60,41
118800,note_on,120,0,2,,,,,,,,,0,,,60,0
119280,set_tempo,488,1,0,,,,,,600000,,,,,,,
120840,note_on,2040,0,2,,,,,,,,,0,,,60,0
120840,note_on,0,0,1,,,,,,,,,0,,,81,88
120840,note_on,0,0,1,,,,,,,,,0,,,78,88
120840,note_on,0,0,2,,,,,,,,,0,,,63,0
120840,note_on,0,0,2,,,,,,,,,0,,,56,0
120840,note_on,0,0,2,,,,,,,,,0,,,42,82
120840,note_on,0,0,1,,,,,,,,,0,,,75,0
120840,note_on,0,0,1,,,,,,,,,0,,,69,88
120840,note_on,0,0,1,,,,,,,,,0,,,68,0
120840,note_on,2040,0,1,,,,,,,,,0,,,80,0
120960,note_on,0,0,1,,,,,,,,,0,,,69,97
120960,note_on,0,0,1,,,,,,,,,0,,,78,97
120960,note_on,0,0,2,,,,,,,,,0,,,42,88
120960,note_on,0,0,1,,,,,,,,,0,,,78,0
120960,note_on,0,0,1,,,,,,,,,0,,,81,97
120960,control_change,0,0,2,,,,,,,,,0,91,127,,
120960,note_on,120,0,2,,,,,,,,,0,,,42,0
120960,control_change,0,0,1,,,,,,,,,0,91,127,,
120960,key_signature,1680,1,0,,,,,A,,,,,,,,
120960,note_on,0,0,1,,,,,,,,,0,,,81,0
120960,note_on,120,0,1,,,,,,,,,0,,,69,0
120964,control_change,4,0,2,,,,,,,,,0,64,126,,
120984,set_tempo,24,1,0,,,,,,600000,,,,,,,
121080,note_on,116,0,2,,,,,,,,,0,,,42,0
121200,note_on,120,0,2,,,,,,,,,0,,,49,78
121440,note_on,0,0,2,,,,,,,,,0,,,57,78
121440,note_on,240,0,2,,,,,,,,,0,,,49,0
121680,note_on,0,0,1,,,,,,,,,0,,,81,96
121680,note_on,720,0,1,,,,,,,,,0,,,78,0
121680,note_on,0,0,1,,,,,,,,,0,,,69,0
121680,note_on,0,0,1,,,,,,,,,0,,,81,0
121680,note_on,0,0,1,,,,,,,,,0,,,78,96
121680,note_on,0,0,1,,,,,,,,,0,,,69,96
121680,note_on,0,0,2,,,,,,,,,0,,,42,88
121680,note_on,240,0,2,,,,,,,,,0,,,57,0
121800,note_on,120,0,2,,,,,,,,,0,,,42,0
121920,note_on,120,0,2,,,,,,,,,0,,,49,77
122160,note_on,240,0,2,,,,,,,,,0,,,49,0
122160,note_on,0,0,2,,,,,,,,,0,,,57,77
122400,note_on,0,0,1,,,,,,,,,0,,,82,96
122400,note_on,0,0,1,,,,,,,,,0,,,78,0
122400,note_on,0,0,1,,,,,,,,,0,,,81,0
122400,note_on,720,0,1,,,,,,,,,0,,,69,0
122400,note_on,0,0,1,,,,,,,,,0,,,70,96
122400,note_on,0,0,1,,,,,,,,,0,,,76,96
122400,note_on,0,0,2,,,,,,,,,0,,,42,88
122400,note_on,240,0,2,,,,,,,,,0,,,57,0
122520,note_on,120,0,2,,,,,,,,,0,,,42,0
122640,note_on,120,0,2,,,,,,,,,0,,,49,78
122880,note_on,0,0,2,,,,,,,,,0,,,54,77
122880,set_tempo,1896,1,0,,,,,,670391,,,,,,,
122880,note_on,240,0,2,,,,,,,,,0,,,49,0
123076,control_change,196,0,2,,,,,,,,,0,64,0,,
123120,note_on,0,0,1,,,,,,,,,0,,,70,0
123120,note_on,0,0,1,,,,,,,,,0,,,74,88
123120,note_on,0,0,1,,,,,,,,,0,,,71,88
123120,note_on,720,0,1,,,,,,,,,0,,,76,0
123120,set_tempo,240,1,0,,,,,,600000,,,,,,,
123120,note_on,0,0,1,,,,,,,,,0,,,82,0
123120,note_on,44,0,2,,,,,,,,,0,,,54,0
123120,note_on,0,0,2,,,,,,,,,0,,,42,88
123120,note_on,0,0,1,,,,,,,,,0,,,83,88
123128,control_change,8,0,2,,,,,,,,,0,64,127,,
123240,note_on,112,0,2,,,,,,,,,0,,,42,0
123360,note_on,120,0,2,,,,,,,,,0,,,50,79
123600,note_on,0,0,2,,,,,,,,,0,,,59,81
123600,note_on,240,0,2,,,,,,,,,0,,,50,0
123840,note_on,0,0,2,,,,,,,,,0,,,42,88
123840,note_on,240,0,2,,,,,,,,,0,,,59,0
123960,note_on,120,0,2,,,,,,,,,0,,,42,0
124080,note_on,120,0,2,,,,,,,,,0,,,50,79
124320,note_on,240,0,2,,,,,,,,,0,,,50,0
124320,note_on,0,0,2,,,,,,,,,0,,,59,81
124560,note_on,0,0,2,,,,,,,,,0,,,42,88
124560,note_on,240,0,2,,,,,,,,,0,,,59,0
124680,note_on,120,0,2,,,,,,,,,0,,,42,0
124800,note_on,120,0,2,,,,,,,,,0,,,50,82
125040,note_on,0,0,2,,,,,,,,,0,,,59,82
125040,note_on,240,0,2,,,,,,,,,0,,,50,0
125160,note_on,0,0,1,,,,,,,,,0,,,71,0
125160,note_on,0,0,1,,,,,,,,,0,,,83,0
125160,note_on,0,0,1,,,,,,,,,0,,,74,88
125160,note_on,0,0,1,,,,,,,,,0,,,83,88
125160,note_on,0,0,1,,,,,,,,,0,,,71,88
125160,set_tempo,2040,1,0,,,,,,666667,,,,,,,
125160,note_on,2040,0,1,,,,,,,,,0,,,74,0
125208,control_change,168,0,2,,,,,,,,,0,64,0,,
125280,note_on,0,0,1,,,,,,,,,0,,,74,0
125280,note_on,0,0,1,,,,,,,,,0,,,73,96
125280,note_on,0,0,1,,,,,,,,,0,,,85,96
125280,note_on,0,0,1,,,,,,,,,0,,,76,96
125280,note_on,120,0,1,,,,,,,,,0,,,71,0
125280,note_on,0,0,1,,,,,,,,,0,,,83,0
125280,note_on,72,0,2,,,,,,,,,0,,,59,0
125280,note_on,0,0,2,,,,,,,,,0,,,42,88
125280,set_tempo,120,1,0,,,,,,600000,,,,,,,
125288,control_change,8,0,2,,,,,,,,,0,64,127,,
125400,note_on,112,0,2,,,,,,,,,0,,,42,0
125520,note_on,120,0,2,,,,,,,,,0,,,47,78
125760,note_on,240,0,2,,,,,,,,,0,,,47,0
125760,note_on,0,0,2,,,,,,,,,0,,,56,81
125880,set_tempo,600,1,0,,,,,,666667,,,,,,,
125880,note_on,0,0,1,,,,,,,,,0,,,85,0
125880,note_on,600,0,1,,,,,,,,,0,,,76,0
125880,note_on,0,0,1,,,,,,,,,0,,,73,0
125880,note_on,0,0,1,,,,,,,,,0,,,74,88
125880,note_on,0,0,1,,,,,,,,,0,,,83,88
125880,note_on,0,0,1,,,,,,,,,0,,,71,88
125936,control_change,176,0,2,,,,,,,,,0,64,0,,
126000,set_tempo,120,1,0,,,,,,600000,,,,,,,
126000,note_on,0,0,1,,,,,,,,,0,,,71,0
126000,note_on,0,0,1,,,,,,,,,0,,,74,96
126000,note_on,120,0,1,,,,,,,,,0,,,83,0
126000,note_on,0,0,1,,,,,,,,,0,,,74,0
126000,note_on,0,0,1,,,,,,,,,0,,,83,96
126000,note_on,0,0,1,,,,,,,,,0,,,71,96
126000,note_on,0,0,2,,,,,,,,,0,,,42,88
126000,note_on,64,0,2,,,,,,,,,0,,,56,0
126008,control_change,8,0,2,,,,,,,,,0,64,127,,
126120,note_on,112,0,2,,,,,,,,,0,,,42,0
126240,note_on,120,0,2,,,,,,,,,0,,,49,79
126480,note_on,0,0,2,,,,,,,,,0,,,57,82
126480,note_on,240,0,2,,,,,,,,,0,,,49,0
126600,note_on,0,0,1,,,,,,,,,0,,,71,0
126600,note_on,0,0,1,,,,,,,,,0,,,74,0
126600,note_on,600,0,1,,,,,,,,,0,,,83,0
126600,note_on,0,0,1,,,,,,,,,0,,,81,88
126600,note_on,0,0,1,,,,,,,,,0,,,73,88
126600,set_tempo,600,1,0,,,,,,670391,,,,,,,
126600,note_on,0,0,1,,,,,,,,,0,,,69,88
126672,control_change,192,0,2,,,,,,,,,0,64,0,,
126720,note_on,0,0,2,,,,,,,,,0,,,42,88
126720,note_on,48,0,2,,,,,,,,,0,,,57,0
126720,note_on,0,0,1,,,,,,,,,0,,,81,0
126720,note_on,120,0,1,,,,,,,,,0,,,69,0
126720,note_on,0,0,1,,,,,,,,,0,,,81,96
126720,note_on,0,0,1,,,,,,,,,0,,,69,96
126720,note_on,0,0,1,,,,,,,,,0,,,73,96
126720,set_tempo,120,1,0,,,,,,600000,,,,,,,
126720,note_on,0,0,1,,,,,,,,,0,,,73,0
126728,control_change,8,0,2,,,,,,,,,0,64,126,,
126840,note_on,112,0,2,,,,,,,,,0,,,42,0
126960,note_on,120,0,2,,,,,,,,,0,,,50,78
127200,note_on,240,0,2,,,,,,,,,0,,,50,0
127200,note_on,0,0,2,,,,,,,,,0,,,59,80
127280,set_tempo,560,1,0,,,,,,750000,,,,,,,
127320,note_on,0,0,1,,,,,,,,,0,,,68,79
127320,note_on,0,0,1,,,,,,,,,0,,,81,0
127320,note_on,0,0,1,,,,,,,,,0,,,69,0
127320,note_on,0,0,1,,,,,,,,,0,,,80,79
127320,note_on,600,0,1,,,,,,,,,0,,,73,0
127320,note_on,0,0,1,,,,,,,,,0,,,71,79
127384,control_change,184,0,2,,,,,,,,,0,64,0,,
127432,control_change,48,0,2,,,,,,,,,0,64,127,,
127440,note_on,0,0,1,,,,,,,,,0,,,81,83
127440,note_on,8,0,2,,,,,,,,,0,,,59,0
127440,note_on,0,0,2,,,,,,,,,0,,,42,78
127440,set_tempo,160,1,0,,,,,,603015,,,,,,,
127440,note_on,0,0,1,,,,,,,,,0,,,73,83
127440,note_on,0,0,1,,,,,,,,,0,,,69,83
127440,note_on,120,0,1,,,,,,,,,0,,,71,0
127440,note_on,0,0,1,,,,,,,,,0,,,68,0
127440,note_on,0,0,1,,,,,,,,,0,,,80,0
127560,note_on,120,0,2,,,,,,,,,0,,,42,0
127680,note_on,120,0,2,,,,,,,,,0,,,49,72
127920,note_on,240,0,2,,,,,,,,,0,,,49,0
127920,note_on,0,0,2,,,,,,,,,0,,,57,73
128160,note_on,0,0,2,,,,,,,,,0,,,42,78
128160,note_on,240,0,2,,,,,,,,,0,,,57,0
128280,note_on,120,0,2,,,,,,,,,0,,,42,0
128400,note_on,120,0,2,,,,,,,,,0,,,49,73
128640,note_on,240,0,2,,,,,,,,,0,,,49,0
128640,note_on,0,0,2,,,,,,,,,0,,,57,73
128640,set_tempo,1200,1,0,,,,,,666667,,,,,,,
128880,note_on,0,0,1,,,,,,,,,0,,,69,0
128880,note_on,0,0,1,,,,,,,,,0,,,73,97
128880,note_on,0,0,1,,,,,,,,,0,,,85,97
128880,note_on,0,0,1,,,,,,,,,0,,,73,0
128880,note_on,1440,0,1,,,,,,,,,0,,,81,0
128880,set_tempo,240,1,0,,,,,,600000,,,,,,,
128880,note_on,0,0,2,,,,,,,,,0,,,45,88
128880,note_on,240,0,2,,,,,,,,,0,,,57,0
129000,note_on,120,0,2,,,,,,,,,0,,,45,0
129120,note_on,120,0,2,,,,,,,,,0,,,49,79
129360,note_on,0,0,2,,,,,,,,,0,,,54,79
129360,note_on,240,0,2,,,,,,,,,0,,,49,0
129360,set_tempo,480,1,0,,,,,,621762,,,,,,,
129480,note_on,600,0,1,,,,,,,,,0,,,85,0
129480,note_on,0,0,1,,,,,,,,,0,,,81,78
129480,note_on,0,0,1,,,,,,,,,0,,,69,78
129480,note_on,0,0,1,,,,,,,,,0,,,78,78
129480,note_on,0,0,1,,,,,,,,,0,,,73,0
129520,control_change,160,0,2,,,,,,,,,0,64,0,,
129600,note_on,0,0,2,,,,,,,,,0,,,49,71
129600,note_on,80,0,2,,,,,,,,,0,,,54,0
129600,control_change,0,0,2,,,,,,,,,0,64,126,,
129600,set_tempo,240,1,0,,,,,,600000,,,,,,,
129600,note_on,0,0,1,,,,,,,,,0,,,78,0
129600,note_on,0,0,1,,,,,,,,,0,,,77,78
129600,note_on,0,0,1,,,,,,,,,0,,,68,78
129600,note_on,0,0,1,,,,,,,,,0,,,80,78
129600,note_on,0,0,1,,,,,,,,,0,,,81,0
129600,note_on,120,0,1,,,,,,,,,0,,,69,0
129840,note_on,0,0,2,,,,,,,,,0,,,53,60
129840,note_on,240,0,2,,,,,,,,,0,,,49,0
130080,note_on,0,0,2,,,,,,,,,0,,,56,63
130080,note_on,240,0,2,,,,,,,,,0,,,53,0
130320,note_on,0,0,2,,,,,,,,,0,,,49,71
130320,note_on,240,0,2,,,,,,,,,0,,,56,0
130560,note_on,240,0,2,,,,,,,,,0,,,49,0
130560,note_on,0,0,2,,,,,,,,,0,,,53,60
130800,note_on,240,0,2,,,,,,,,,0,,,53,0
130800,note_on,0,0,2,,,,,,,,,0,,,56,64
130800,set_tempo,1200,1,0,,,,,,638298,,,,,,,
130992,control_change,192,0,2,,,,,,,,,0,64,0,,
131040,note_on,1440,0,1,,,,,,,,,0,,,77,0
131040,note_on,0,0,1,,,,,,,,,0,,,68,0
131040,note_on,0,0,1,,,,,,,,,0,,,80,0
131040,note_on,0,0,1,,,,,,,,,0,,,90,99
131040,note_on,0,0,1,,,,,,,,,0,,,78,99
131040,note_on,0,0,1,,,,,,,,,0,,,81,99
131040,note_on,0,0,2,,,,,,,,,0,,,45,88
131040,set_tempo,240,1,0,,,,,,600000,,,,,,,
131040,note_on,48,0,2,,,,,,,,,0,,,56,0
131048,control_change,8,0,2,,,,,,,,,0,64,126,,
131280,note_on,0,0,2,,,,,,,,,0,,,49,70
131280,note_on,232,0,2,,,,,,,,,0,,,45,0
131520,note_on,0,0,2,,,,,,,,,0,,,54,70
131520,note_on,240,0,2,,,,,,,,,0,,,49,0
131640,note_on,600,0,1,,,,,,,,,0,,,81,0
131640,note_on,0,0,1,,,,,,,,,0,,,69,70
131640,note_on,0,0,1,,,,,,,,,0,,,90,0
131640,set_tempo,600,1,0,,,,,,705882,,,,,,,
131640,note_on,0,0,1,,,,,,,,,0,,,78,70
131640,note_on,0,0,1,,,,,,,,,0,,,81,70
131640,note_on,0,0,1,,,,,,,,,0,,,78,0
131696,control_change,176,0,2,,,,,,,,,0,64,0,,
131760,note_on,120,0,1,,,,,,,,,0,,,78,0
131760,note_on,0,0,1,,,,,,,,,0,,,81,0
131760,note_on,0,0,1,,,,,,,,,0,,,69,0
131760,note_on,0,0,1,,,,,,,,,0,,,68,70
131760,note_on,0,0,1,,,,,,,,,0,,,80,70
131760,set_tempo,120,1,0,,,,,,600000,,,,,,,
131760,note_on,0,0,1,,,,,,,,,0,,,77,70
131760,note_on,64,0,2,,,,,,,,,0,,,54,0
131760,control_change,0,0,2,,,,,,,,,0,64,126,,
131760,note_on,0,0,2,,,,,,,,,0,,,49,70
132000,note_on,240,0,2,,,,,,,,,0,,,49,0
132000,note_on,0,0,2,,,,,,,,,0,,,53,62
132240,note_on,240,0,2,,,,,,,,,0,,,53,0
132240,note_on,0,0,2,,,,,,,,,0,,,56,58
132432,control_change,192,0,2,,,,,,,,,0,64,0,,
132480,note_on,48,0,2,,,,,,,,,0,,,56,0
132480,note_on,0,0,2,,,,,,,,,0,,,50,62
132680,set_tempo,920,1,0,,,,,,600000,,,,,,,
132720,set_tempo,40,1,0,,,,,,603015,,,,,,,
132720,note_on,960,0,1,,,,,,,,,0,,,77,0
132720,note_on,0,0,1,,,,,,,,,0,,,80,0
132720,note_on,0,0,1,,,,,,,,,0,,,68,0
132720,note_on,0,0,1,,,,,,,,,0,,,71,70
132720,note_on,240,0,2,,,,,,,,,0,,,56,59
132760,set_tempo,40,1,0,,,,,,606061,,,,,,,
132780,set_tempo,20,1,0,,,,,,609137,,,,,,,
132820,set_tempo,40,1,0,,,,,,612245,,,,,,,
132860,set_tempo,40,1,0,,,,,,615385,,,,,,,
132880,set_tempo,20,1,0,,,,,,618557,,,,,,,
132920,set_tempo,40,1,0,,,,,,621762,,,,,,,
132960,note_on,240,0,2,,,,,,,,,0,,,56,0
132960,set_tempo,40,1,0,,,,,,625000,,,,,,,
132960,note_on,0,0,2,,,,,,,,,0,,,54,59
132960,note_on,240,0,1,,,,,,,,,0,,,71,0
132960,note_on,0,0,1,,,,,,,,,0,,,69,63
132980,set_tempo,20,1,0,,,,,,628272,,,,,,,
133020,set_tempo,40,1,0,,,,,,631579,,,,,,,
133040,set_tempo,20,1,0,,,,,,634921,,,,,,,
133080,set_tempo,40,1,0,,,,,,638298,,,,,,,
133120,set_tempo,40,1,0,,,,,,641711,,,,,,,
133140,set_tempo,20,1,0,,,,,,645161,,,,,,,
133180,set_tempo,40,1,0,,,,,,648649,,,,,,,
133200,note_on,0,0,2,,,,,,,,,0,,,53,60
133200,note_on,240,0,2,,,,,,,,,0,,,54,0
133200,note_on,240,0,1,,,,,,,,,0,,,69,0
133200,note_on,0,0,1,,,,,,,,,0,,,68,58
133220,set_tempo,40,1,0,,,,,,652174,,,,,,,
133240,set_tempo,20,1,0,,,,,,655738,,,,,,,
133280,set_tempo,40,1,0,,,,,,659341,,,,,,,
133320,set_tempo,40,1,0,,,,,,662983,,,,,,,
133340,set_tempo,20,1,0,,,,,,666667,,,,,,,
133380,set_tempo,40,1,0,,,,,,670391,,,,,,,
133400,set_tempo,20,1,0,,,,,,674157,,,,,,,
133440,note_on,240,0,2,,,,,,,,,0,,,53,0
133440,set_tempo,40,1,0,,,,,,677966,,,,,,,
133440,note_on,240,0,1,,,,,,,,,0,,,68,0
133440,note_on,0,0,1,,,,,,,,,0,,,69,55
133440,note_on,0,0,2,,,,,,,,,0,,,54,55
133480,set_tempo,40,1,0,,,,,,681818,,,,,,,
133500,set_tempo,20,1,0,,,,,,685714,,,,,,,
133540,set_tempo,40,1,0,,,,,,689655,,,,,,,
133560,note_on,120,0,2,,,,,,,,,0,,,50,0
133580,set_tempo,40,1,0,,,,,,693642,,,,,,,
133600,set_tempo,20,1,0,,,,,,697674,,,,,,,
133640,set_tempo,40,1,0,,,,,,701754,,,,,,,
133660,set_tempo,20,1,0,,,,,,705882,,,,,,,
133680,note_on,240,0,1,,,,,,,,,0,,,69,0
133680,note_on,0,0,1,,,,,,,,,0,,,71,53
133680,note_on,0,0,2,,,,,,,,,0,,,49,50
133680,note_on,0,0,2,,,,,,,,,0,,,56,50
133680,note_on,120,0,2,,,,,,,,,0,,,54,0
133720,set_tempo,60,1,0,,,,,,670391,,,,,,,
133920,control_change,0,0,1,,,,,,,,,0,91,127,,
133920,note_on,240,0,2,,,,,,,,,0,,,49,0
133920,note_on,0,0,2,,,,,,,,,0,,,56,0
133920,note_on,0,0,2,,,,,,,,,0,,,42,44
133920,control_change,0,0,2,,,,,,,,,0,91,127,,
133920,note_on,0,0,1,,,,,,,,,0,,,73,51
133920,note_on,240,0,1,,,,,,,,,0,,,71,0
133928,control_change,8,0,2,,,,,,,,,0,64,127,,
134040,set_tempo,320,1,0,,,,,,615385,,,,,,,
134160,note_on,232,0,2,,,,,,,,,0,,,42,0
134160,note_on,0,0,2,,,,,,,,,0,,,49,40
134260,set_tempo,220,1,0,,,,,,618557,,,,,,,
134400,note_on,240,0,2,,,,,,,,,0,,,49,0
134400,note_on,0,0,2,,,,,,,,,0,,,57,40
134480,set_tempo,220,1,0,,,,,,621762,,,,,,,
134584,control_change,184,0,2,,,,,,,,,0,64,0,,
134640,note_on,0,0,2,,,,,,,,,0,,,42,42
134640,control_change,0,0,2,,,,,,,,,0,64,125,,
134640,note_on,56,0,2,,,,,,,,,0,,,57,0
134640,note_on,720,0,1,,,,,,,,,0,,,73,0
134640,note_on,0,0,1,,,,,,,,,0,,,73,51
134700,set_tempo,220,1,0,,,,,,625000,,,,,,,
134880,note_on,0,0,2,,,,,,,,,0,,,47,39
134880,note_on,240,0,2,,,,,,,,,0,,,42,0
134920,set_tempo,220,1,0,,,,,,628272,,,,,,,
135120,note_on,240,0,2,,,,,,,,,0,,,47,0
135120,note_on,0,0,2,,,,,,,,,0,,,56,39
135140,set_tempo,220,1,0,,,,,,631579,,,,,,,
135296,control_change,176,0,2,,,,,,,,,0,64,0,,
135360,note_on,0,0,1,,,,,,,,,0,,,73,52
135360,note_on,720,0,1,,,,,,,,,0,,,73,0
135360,note_on,64,0,2,,,,,,,,,0,,,56,0
135360,note_on,0,0,2,,,,,,,,,0,,,42,41
135360,control_change,0,0,2,,,,,,,,,0,64,126,,
135600,note_on,240,0,2,,,,,,,,,0,,,42,0
135600,note_on,0,0,2,,,,,,,,,0,,,45,38
135832,set_tempo,692,1,0,,,,,,705882,,,,,,,
135840,note_on,240,0,2,,,,,,,,,0,,,45,0
135840,note_on,0,0,2,,,,,,,,,0,,,54,38
135840,set_tempo,8,1,0,,,,,,662983,,,,,,,
136024,control_change,184,0,2,,,,,,,,,0,64,0,,
136032,control_change,8,0,2,,,,,,,,,0,64,1,,
136072,control_change,40,0,2,,,,,,,,,0,64,127,,
136080,note_on,8,0,2,,,,,,,,,0,,,54,0
136080,note_on,720,0,1,,,,,,,,,0,,,73,0
136080,note_on,0,0,1,,,,,,,,,0,,,74,60
136080,set_tempo,240,1,0,,,,,,631579,,,,,,,
136080,note_on,0,0,2,,,,,,,,,0,,,40,41
136320,note_on,240,0,2,,,,,,,,,0,,,40,0
136320,note_on,0,0,2,,,,,,,,,0,,,47,40
136560,note_on,240,0,2,,,,,,,,,0,,,47,0
136560,note_on,0,0,2,,,,,,,,,0,,,56,40
136800,note_on,0,0,2,,,,,,,,,0,,,40,44
136800,note_on,240,0,2,,,,,,,,,0,,,56,0
137040,note_on,0,0,2,,,,,,,,,0,,,47,40
137040,note_on,240,0,2,,,,,,,,,0,,,40,0
137280,note_on,0,0,2,,,,,,,,,0,,,56,44
137280,note_on,240,0,2,,,,,,,,,0,,,47,0
137520,note_on,240,0,2,,,,,,,,,0,,,56,0
137520,note_on,0,0,2,,,,,,,,,0,,,40,44
137760,note_on,240,0,2,,,,,,,,,0,,,40,0
137760,note_on,0,0,2,,,,,,,,,0,,,47,41
138000,note_on,240,0,2,,,,,,,,,0,,,47,0
138000,note_on,0,0,2,,,,,,,,,0,,,56,39
138120,note_on,2040,0,1,,,,,,,,,0,,,74,41
138184,control_change,184,0,2,,,,,,,,,0,64,0,,
138240,note_on,0,0,1,,,,,,,,,0,,,74,0
138240,note_on,120,0,1,,,,,,,,,0,,,74,0
138240,note_on,56,0,2,,,,,,,,,0,,,56,0
138240,note_on,0,0,2,,,,,,,,,0,,,40,35
138240,control_change,0,0,2,,,,,,,,,0,64,126,,
138240,note_on,0,0,1,,,,,,,,,0,,,78,41
138480,note_on,240,0,2,,,,,,,,,0,,,40,0
138480,note_on,0,0,2,,,,,,,,,0,,,47,34
138720,note_on,240,0,2,,,,,,,,,0,,,47,0
138720,note_on,0,0,2,,,,,,,,,0,,,56,34
138720,note_on,0,0,1,,,,,,,,,0,,,74,41
138720,note_on,480,0,1,,,,,,,,,0,,,78,0
138720,set_tempo,2640,1,0,,,,,,666667,,,,,,,
138912,control_change,192,0,2,,,,,,,,,0,64,0,,
138960,note_on,0,0,1,,,,,,,,,0,,,74,41
138960,note_on,240,0,1,,,,,,,,,0,,,74,0
138960,set_tempo,240,1,0,,,,,,631579,,,,,,,
138960,note_on,0,0,2,,,,,,,,,0,,,40,34
138960,note_on,48,0,2,,,,,,,,,0,,,56,0
138968,control_change,8,0,2,,,,,,,,,0,64,126,,
139200,note_on,0,0,2,,,,,,,,,0,,,49,33
139200,note_on,232,0,2,,,,,,,,,0,,,40,0
139440,note_on,240,0,2,,,,,,,,,0,,,49,0
139440,set_tempo,480,1,0,,,,,,670391,,,,,,,
139440,note_on,480,0,1,,,,,,,,,0,,,74,0
139440,note_on,0,0,2,,,,,,,,,0,,,57,34
139440,note_on,0,0,1,,,,,,,,,0,,,73,41
139624,control_change,184,0,2,,,,,,,,,0,64,0,,
139672,set_tempo,232,1,0,,,,,,666667,,,,,,,
139680,set_tempo,8,1,0,,,,,,631579,,,,,,,
139680,note_on,0,0,1,,,,,,,,,0,,,73,41
139680,note_on,240,0,1,,,,,,,,,0,,,73,0
139680,note_on,56,0,2,,,,,,,,,0,,,57,0
139680,control_change,0,0,2,,,,,,,,,0,64,126,,
139680,note_on,0,0,2,,,,,,,,,0,,,40,34
139920,note_on,240,0,2,,,,,,,,,0,,,40,0
139920,note_on,0,0,2,,,,,,,,,0,,,50,33
140160,note_on,0,0,1,,,,,,,,,0,,,71,44
140160,note_on,480,0,1,,,,,,,,,0,,,73,0
140160,note_on,240,0,2,,,,,,,,,0,,,50,0
140160,note_on,0,0,2,,,,,,,,,0,,,56,33
140160,set_tempo,480,1,0,,,,,,666667,,,,,,,
140320,control_change,160,0,2,,,,,,,,,0,64,0,,
140400,set_tempo,240,1,0,,,,,,631579,,,,,,,
140400,note_on,0,0,2,,,,,,,,,0,,,45,34
140400,control_change,0,0,2,,,,,,,,,0,64,127,,
140400,note_on,0,0,1,,,,,,,,,0,,,73,44
140400,note_on,240,0,1,,,,,,,,,0,,,71,0
140400,note_on,80,0,2,,,,,,,,,0,,,56,0
140640,note_on,0,0,2,,,,,,,,,0,,,49,34
140640,note_on,240,0,2,,,,,,,,,0,,,45,0
140880,note_on,0,0,2,,,,,,,,,0,,,57,34
140880,note_on,240,0,2,,,,,,,,,0,,,49,0
141056,control_change,176,0,2,,,,,,,,,0,64,0,,
141120,note_on,0,0,2,,,,,,,,,0,,,45,35
141120,control_change,0,0,2,,,,,,,,,0,64,127,,
141120,note_on,64,0,2,,,,,,,,,0,,,57,0
141360,note_on,240,0,2,,,,,,,,,0,,,45,0
141360,note_on,0,0,2,,,,,,,,,0,,,49,34
141600,note_on,0,0,2,,,,,,,,,0,,,56,33
141600,note_on,240,0,2,,,,,,,,,0,,,49,0
141792,control_change,192,0,2,,,,,,,,,0,64,0,,
141800,control_change,8,0,2,,,,,,,,,0,64,1,,
141840,control_change,0,0,2,,,,,,,,,0,64,125,,
141840,note_on,0,0,2,,,,,,,,,0,,,45,42
141840,note_on,40,0,2,,,,,,,,,0,,,56,0
141840,note_on,1440,0,1,,,,,,,,,0,,,73,0
141840,note_on,0,0,1,,,,,,,,,0,,,73,52
142080,note_on,240,0,2,,,,,,,,,0,,,45,0
142080,note_on,0,0,2,,,,,,,,,0,,,49,38
142320,note_on,0,0,2,,,,,,,,,0,,,54,37
142320,note_on,480,0,1,,,,,,,,,0,,,73,0
142320,note_on,0,0,1,,,,,,,,,0,,,69,52
142320,note_on,240,0,2,,,,,,,,,0,,,49,0
142504,control_change,184,0,2,,,,,,,,,0,64,0,,
142560,note_on,0,0,2,,,,,,,,,0,,,47,42
142560,note_on,240,0,1,,,,,,,,,0,,,69,0
142560,note_on,0,0,1,,,,,,,,,0,,,68,52
142560,note_on,56,0,2,,,,,,,,,0,,,54,0
142560,control_change,0,0,2,,,,,,,,,0,64,127,,
142800,note_on,240,0,2,,,,,,,,,0,,,47,0
142800,note_on,0,0,2,,,,,,,,,0,,,50,39
143040,note_on,240,0,2,,,,,,,,,0,,,50,0
143040,note_on,0,0,2,,,,,,,,,0,,,54,39
143280,note_on,240,0,2,,,,,,,,,0,,,54,0
143280,note_on,0,0,2,,,,,,,,,0,,,50,44
143520,note_on,0,0,2,,,,,,,,,0,,,54,40
143520,note_on,240,0,2,,,,,,,,,0,,,50,0
143760,note_on,240,0,2,,,,,,,,,0,,,54,0
143760,note_on,0,0,2,,,,,,,,,0,,,59,40
143944,control_change,184,0,2,,,,,,,,,0,64,0,,
143980,set_tempo,3580,1,0,,,,,,631579,,,,,,,
144000,set_tempo,20,1,0,,,,,,628272,,,,,,,
144000,note_on,56,0,2,,,,,,,,,0,,,59,0
144000,note_on,0,0,2,,,,,,,,,0,,,49,39
144000,note_on,0,0,1,,,,,,,,,0,,,71,47
144000,note_on,1440,0,1,,,,,,,,,0,,,68,0
144060,set_tempo,60,1,0,,,,,,631579,,,,,,,
144100,set_tempo,40,1,0,,,,,,634921,,,,,,,
144140,set_tempo,40,1,0,,,,,,638298,,,,,,,
144180,set_tempo,40,1,0,,,,,,641711,,,,,,,
144220,set_tempo,40,1,0,,,,,,645161,,,,,,,
144240,note_on,0,0,2,,,,,,,,,0,,,53,38
144240,note_on,240,0,2,,,,,,,,,0,,,49,0
144240,note_on,0,0,1,,,,,,,,,0,,,69,44
144240,note_on,240,0,1,,,,,,,,,0,,,71,0
144260,set_tempo,40,1,0,,,,,,648649,,,,,,,
144300,set_tempo,40,1,0,,,,,,652174,,,,,,,
144340,set_tempo,40,1,0,,,,,,655738,,,,,,,
144380,set_tempo,40,1,0,,,,,,659341,,,,,,,
144420,set_tempo,40,1,0,,,,,,662983,,,,,,,
144460,set_tempo,40,1,0,,,,,,666667,,,,,,,
144480,note_on,0,0,1,,,,,,,,,0,,,68,36
144480,note_on,0,0,2,,,,,,,,,0,,,59,30
144480,note_on,240,0,2,,,,,,,,,0,,,53,0
144480,note_on,240,0,1,,,,,,,,,0,,,69,0
144500,set_tempo,40,1,0,,,,,,670391,,,,,,,
144540,set_tempo,40,1,0,,,,,,674157,,,,,,,
144580,set_tempo,40,1,0,,,,,,677966,,,,,,,
144620,set_tempo,40,1,0,,,,,,681818,,,,,,,
144660,set_tempo,40,1,0,,,,,,685714,,,,,,,
144700,set_tempo,40,1,0,,,,,,659341,,,,,,,
144712,control_change,232,0,2,,,,,,,,,0,64,126,,
144712,set_tempo,12,1,0,,,,,,689655,,,,,,,
144720,note_on,0,0,1,,,,,,,,,0,,,73,45
144720,note_on,8,0,2,,,,,,,,,0,,,59,0
144720,set_tempo,8,1,0,,,,,,631579,,,,,,,
144720,note_on,0,0,2,,,,,,,,,0,,,45,42
144720,note_on,240,0,1,,,,,,,,,0,,,68,0
144960,note_on,240,0,2,,,,,,,,,0,,,45,0
144960,note_on,0,0,2,,,,,,,,,0,,,49,36
145200,note_on,240,0,2,,,,,,,,,0,,,49,0
145200,note_on,0,0,2,,,,,,,,,0,,,54,37
145376,control_change,176,0,2,,,,,,,,,0,64,0,,
145440,note_on,0,0,2,,,,,,,,,0,,,44,37
145440,control_change,0,0,2,,,,,,,,,0,64,127,,
145440,note_on,64,0,2,,,,,,,,,0,,,54,0
145680,note_on,0,0,2,,,,,,,,,0,,,47,37
145680,note_on,240,0,2,,,,,,,,,0,,,44,0
145920,note_on,0,0,2,,,,,,,,,0,,,54,37
145920,note_on,240,0,2,,,,,,,,,0,,,47,0
145920,set_tempo,1200,1,0,,,,,,701754,,,,,,,
146040,note_on,1320,0,1,,,,,,,,,0,,,73,0
146040,note_on,0,0,1,,,,,,,,,0,,,73,52
146104,control_change,184,0,2,,,,,,,,,0,64,0,,
146160,note_on,0,0,2,,,,,,,,,0,,,46,44
146160,note_on,56,0,2,,,,,,,,,0,,,54,0
146160,note_on,0,0,1,,,,,,,,,0,,,78,70
146160,set_tempo,240,1,0,,,,,,631579,,,,,,,
146160,note_on,120,0,1,,,,,,,,,0,,,73,0
146168,control_change,8,0,2,,,,,,,,,0,64,127,,
146400,note_on,232,0,2,,,,,,,,,0,,,46,0
146400,note_on,0,0,2,,,,,,,,,0,,,49,40
146640,note_on,480,0,1,,,,,,,,,0,,,78,0
146640,note_on,0,0,2,,,,,,,,,0,,,54,40
146640,note_on,0,0,1,,,,,,,,,0,,,70,62
146640,note_on,240,0,2,,,,,,,,,0,,,49,0
146824,control_change,184,0,2,,,,,,,,,0,64,0,,
146872,control_change,48,0,2,,,,,,,,,0,64,127,,
146880,note_on,8,0,2,,,,,,,,,0,,,54,0
146880,note_on,0,0,2,,,,,,,,,0,,,47,44
146880,note_on,240,0,1,,,,,,,,,0,,,70,0
146880,note_on,0,0,1,,,,,,,,,0,,,68,62
147120,note_on,240,0,2,,,,,,,,,0,,,47,0
147120,note_on,0,0,2,,,,,,,,,0,,,51,41
147360,note_on,240,0,2,,,,,,,,,0,,,51,0
147360,note_on,0,0,2,,,,,,,,,0,,,54,40
147600,note_on,0,0,2,,,,,,,,,0,,,48,44
147600,note_on,240,0,2,,,,,,,,,0,,,54,0
147840,note_on,0,0,1,,,,,,,,,0,,,70,61
147840,note_on,960,0,1,,,,,,,,,0,,,68,0
147840,note_on,240,0,2,,,,,,,,,0,,,48,0
147840,note_on,0,0,2,,,,,,,,,0,,,54,41
148080,note_on,0,0,2,,,,,,,,,0,,,56,40
148080,note_on,0,0,1,,,,,,,,,0,,,68,61
148080,note_on,240,0,1,,,,,,,,,0,,,70,0
148080,note_on,240,0,2,,,,,,,,,0,,,54,0
148232,control_change,152,0,2,,,,,,,,,0,64,0,,
148320,note_on,88,0,2,,,,,,,,,0,,,56,0
148320,note_on,0,0,2,,,,,,,,,0,,,49,39
148320,note_on,240,0,1,,,,,,,,,0,,,68,0
148320,note_on,0,0,1,,,,,,,,,0,,,71,60
148560,note_on,0,0,1,,,,,,,,,0,,,70,57
148560,note_on,240,0,1,,,,,,,,,0,,,71,0
148560,note_on,240,0,2,,,,,,,,,0,,,49,0
148560,note_on,0,0,2,,,,,,,,,0,,,53,39
148800,note_on,240,0,1,,,,,,,,,0,,,70,0
148800,note_on,240,0,2,,,,,,,,,0,,,53,0
148800,note_on,0,0,2,,,,,,,,,0,,,59,37
148800,note_on,0,0,1,,,,,,,,,0,,,68,57
149000,set_tempo,2840,1,0,,,,,,645161,,,,,,,
149040,note_on,0,0,1,,,,,,,,,0,,,66,62
149040,set_tempo,40,1,0,,,,,,641711,,,,,,,
149040,note_on,240,0,1,,,,,,,,,0,,,68,0
149040,note_on,0,0,2,,,,,,,,,0,,,58,34
149040,note_on,240,0,2,,,,,,,,,0,,,59,0
149040,note_on,0,0,2,,,,,,,,,0,,,54,34
149280,note_on,0,0,2,,,,,,,,,0,,,58,0
149280,note_on,0,0,2,,,,,,,,,0,,,42,31
149280,note_on,240,0,2,,,,,,,,,0,,,54,0
149520,note_on,240,0,2,,,,,,,,,0,,,42,0
149520,note_on,0,0,2,,,,,,,,,0,,,46,34
149760,note_on,240,0,2,,,,,,,,,0,,,46,0
149760,note_on,0,0,2,,,,,,,,,0,,,49,35
150000,note_on,0,0,2,,,,,,,,,0,,,54,37
150000,note_on,240,0,2,,,,,,,,,0,,,49,0
150240,note_on,0,0,2,,,,,,,,,0,,,56,39
150240,note_on,240,0,2,,,,,,,,,0,,,54,0
150480,note_on,240,0,2,,,,,,,,,0,,,56,0
150480,note_on,1440,0,1,,,,,,,,,0,,,66,0
150480,note_on,0,0,2,,,,,,,,,0,,,58,41
150720,note_on,0,0,2,,,,,,,,,0,,,61,45
150720,note_on,240,0,2,,,,,,,,,0,,,58,0
150960,note_on,0,0,2,,,,,,,,,0,,,54,45
150960,note_on,240,0,2,,,,,,,,,0,,,61,0
151200,note_on,720,0,1,,,,,,,,,0,,,73,45
151200,note_on,240,0,2,,,,,,,,,0,,,54,0
151200,note_on,0,0,2,,,,,,,,,0,,,53,44
151257,control_change,57,0,2,,,,,,,,,0,64,127,,
151440,note_on,0,0,2,,,,,,,,,0,,,56,35
151440,note_on,183,0,2,,,,,,,,,0,,,53,0
151680,note_on,240,0,2,,,,,,,,,0,,,56,0
151680,note_on,0,0,2,,,,,,,,,0,,,61,35
151920,note_on,720,0,1,,,,,,,,,0,,,73,0
151920,note_on,0,0,1,,,,,,,,,0,,,73,45
151920,note_on,240,0,2,,,,,,,,,0,,,61,0
151920,note_on,0,0,2,,,,,,,,,0,,,53,36
152160,note_on,240,0,2,,,,,,,,,0,,,53,0
152160,note_on,0,0,2,,,,,,,,,0,,,56,36
152400,note_on,240,0,2,,,,,,,,,0,,,56,0
152400,note_on,0,0,2,,,,,,,,,0,,,61,36
152640,note_on,0,0,1,,,,,,,,,0,,,73,44
152640,note_on,240,0,2,,,,,,,,,0,,,61,0
152640,note_on,720,0,1,,,,,,,,,0,,,73,0
152640,note_on,0,0,2,,,,,,,,,0,,,53,36
152880,note_on,240,0,2,,,,,,,,,0,,,53,0
152880,note_on,0,0,2,,,,,,,,,0,,,56,36
153112,set_tempo,4072,1,0,,,,,,714286,,,,,,,
153120,note_on,0,0,2,,,,,,,,,0,,,61,36
153120,note_on,240,0,2,,,,,,,,,0,,,56,0
153120,set_tempo,8,1,0,,,,,,689655,,,,,,,
153264,control_change,144,0,2,,,,,,,,,0,64,0,,
153352,control_change,88,0,2,,,,,,,,,0,64,126,,
153352,set_tempo,232,1,0,,,,,,670391,,,,,,,
153360,set_tempo,8,1,0,,,,,,638298,,,,,,,
153360,note_on,0,0,1,,,,,,,,,0,,,73,46
153360,note_on,720,0,1,,,,,,,,,0,,,73,0
153360,note_on,0,0,2,,,,,,,,,0,,,52,36
153360,note_on,8,0,2,,,,,,,,,0,,,61,0
153600,note_on,240,0,2,,,,,,,,,0,,,52,0
153600,note_on,0,0,2,,,,,,,,,0,,,56,34
153840,note_on,0,0,2,,,,,,,,,0,,,61,35
153840,note_on,240,0,2,,,,,,,,,0,,,56,0
154080,note_on,0,0,2,,,,,,,,,0,,,52,35
154080,note_on,240,0,2,,,,,,,,,0,,,61,0
154080,note_on,0,0,1,,,,,,,,,0,,,73,44
154080,note_on,720,0,1,,,,,,,,,0,,,73,0
154320,note_on,240,0,2,,,,,,,,,0,,,52,0
154320,note_on,0,0,2,,,,,,,,,0,,,56,34
154560,note_on,240,0,2,,,,,,,,,0,,,56,0
154560,note_on,0,0,2,,,,,,,,,0,,,61,34
154800,note_on,720,0,1,,,,,,,,,0,,,73,0
154800,note_on,240,0,2,,,,,,,,,0,,,61,0
154800,note_on,0,0,2,,,,,,,,,0,,,52,35
154800,note_on,0,0,1,,,,,,,,,0,,,73,44
155040,note_on,240,0,2,,,,,,,,,0,,,52,0
155040,note_on,0,0,2,,,,,,,,,0,,,56,36
155272,set_tempo,1912,1,0,,,,,,705882,,,,,,,
155280,set_tempo,8,1,0,,,,,,677966,,,,,,,
155280,note_on,0,0,2,,,,,,,,,0,,,61,38
155280,note_on,240,0,2,,,,,,,,,0,,,56,0
155400,note_on,600,0,1,,,,,,,,,0,,,73,0
155400,note_on,0,0,1,,,,,,,,,0,,,73,35
155456,control_change,176,0,2,,,,,,,,,0,64,0,,
155520,note_on,64,0,2,,,,,,,,,0,,,61,0
155520,note_on,120,0,1,,,,,,,,,0,,,73,0
155520,note_on,0,0,1,,,,,,,,,0,,,76,52
155520,set_tempo,240,1,0,,,,,,634921,,,,,,,
155520,control_change,0,0,2,,,,,,,,,0,64,127,,
155520,note_on,0,0,2,,,,,,,,,0,,,51,42
155760,note_on,240,0,2,,,,,,,,,0,,,51,0
155760,note_on,0,0,2,,,,,,,,,0,,,55,41
156000,note_on,480,0,1,,,,,,,,,0,,,76,0
156000,note_on,0,0,2,,,,,,,,,0,,,61,42
156000,note_on,0,0,1,,,,,,,,,0,,,75,47
156000,note_on,240,0,2,,,,,,,,,0,,,55,0
156220,set_tempo,700,1,0,,,,,,631579,,,,,,,
156240,set_tempo,20,1,0,,,,,,628272,,,,,,,
156240,note_on,240,0,1,,,,,,,,,0,,,75,0
156240,note_on,240,0,2,,,,,,,,,0,,,61,0
156240,note_on,0,0,2,,,,,,,,,0,,,51,41
156240,note_on,0,0,1,,,,,,,,,0,,,75,46
156280,set_tempo,40,1,0,,,,,,631579,,,,,,,
156320,set_tempo,40,1,0,,,,,,634921,,,,,,,
156360,set_tempo,40,1,0,,,,,,638298,,,,,,,
156380,set_tempo,20,1,0,,,,,,641711,,,,,,,
156420,set_tempo,40,1,0,,,,,,645161,,,,,,,
156460,set_tempo,40,1,0,,,,,,648649,,,,,,,
156480,note_on,0,0,1,,,,,,,,,0,,,75,45
156480,note_on,240,0,1,,,,,,,,,0,,,75,0
156480,set_tempo,20,1,0,,,,,,652174,,,,,,,
156480,note_on,0,0,2,,,,,,,,,0,,,55,40
156480,note_on,240,0,2,,,,,,,,,0,,,51,0
156520,set_tempo,40,1,0,,,,,,655738,,,,,,,
156560,set_tempo,40,1,0,,,,,,659341,,,,,,,
156580,set_tempo,20,1,0,,,,,,662983,,,,,,,
156620,set_tempo,40,1,0,,,,,,666667,,,,,,,
156660,set_tempo,40,1,0,,,,,,670391,,,,,,,
156680,set_tempo,20,1,0,,,,,,674157,,,,,,,
156720,note_on,240,0,2,,,,,,,,,0,,,55,0
156720,note_on,0,0,2,,,,,,,,,0,,,61,39
156720,note_on,240,0,1,,,,,,,,,0,,,75,0
156720,set_tempo,40,1,0,,,,,,677966,,,,,,,
156720,note_on,0,0,1,,,,,,,,,0,,,75,44
156760,set_tempo,40,1,0,,,,,,681818,,,,,,,
156780,set_tempo,20,1,0,,,,,,685714,,,,,,,
156820,set_tempo,40,1,0,,,,,,689655,,,,,,,
156860,set_tempo,40,1,0,,,,,,693642,,,,,,,
156880,set_tempo,20,1,0,,,,,,697674,,,,,,,
156920,set_tempo,40,1,0,,,,,,701754,,,,,,,
156960,set_tempo,40,1,0,,,,,,705882,,,,,,,
156960,note_on,240,0,1,,,,,,,,,0,,,75,0
156960,note_on,0,0,2,,,,,,,,,0,,,51,38
156960,note_on,240,0,2,,,,,,,,,0,,,61,0
156960,note_on,0,0,1,,,,,,,,,0,,,75,42
156980,set_tempo,20,1,0,,,,,,710059,,,,,,,
157020,set_tempo,40,1,0,,,,,,714286,,,,,,,
157060,set_tempo,40,1,0,,,,,,718563,,,,,,,
157080,set_tempo,20,1,0,,,,,,722892,,,,,,,
157120,set_tempo,40,1,0,,,,,,727273,,,,,,,
157160,set_tempo,40,1,0,,,,,,731707,,,,,,,
157180,set_tempo,20,1,0,,,,,,736196,,,,,,,
157200,note_on,0,0,1,,,,,,,,,0,,,75,41
157200,note_on,240,0,1,,,,,,,,,0,,,75,0
157200,note_on,240,0,2,,,,,,,,,0,,,51,0
157200,note_on,0,0,2,,,,,,,,,0,,,55,36
157220,set_tempo,40,1,0,,,,,,740741,,,,,,,
157260,set_tempo,40,1,0,,,,,,745342,,,,,,,
157280,set_tempo,20,1,0,,,,,,750000,,,,,,,
157320,set_tempo,40,1,0,,,,,,754717,,,,,,,
157360,set_tempo,40,1,0,,,,,,759494,,,,,,,
157380,set_tempo,20,1,0,,,,,,764331,,,,,,,
157420,set_tempo,40,1,0,,,,,,769231,,,,,,,
157440,note_on,0,0,1,,,,,,,,,0,,,75,40
157440,note_on,240,0,1,,,,,,,,,0,,,75,0
157440,note_on,0,0,2,,,,,,,,,0,,,61,35
157440,note_on,240,0,2,,,,,,,,,0,,,55,0
157460,set_tempo,40,1,0,,,,,,774194,,,,,,,
157480,set_tempo,20,1,0,,,,,,779221,,,,,,,
157520,set_tempo,40,1,0,,,,,,784314,,,,,,,
157560,set_tempo,40,1,0,,,,,,789474,,,,,,,
157580,set_tempo,20,1,0,,,,,,794702,,,,,,,
157620,set_tempo,40,1,0,,,,,,800000,,,,,,,
157632,control_change,192,0,2,,,,,,,,,0,64,0,,
157660,set_tempo,40,1,0,,,,,,805369,,,,,,,
157680,set_tempo,20,1,0,,,,,,810811,,,,,,,
157680,note_on,0,0,2,,,,,,,,,0,,,51,33
157680,note_on,240,0,1,,,,,,,,,0,,,75,0
157680,note_on,48,0,2,,,,,,,,,0,,,61,0
157680,note_on,0,0,2,,,,,,,,,0,,,55,33
157680,note_on,0,0,1,,,,,,,,,0,,,75,39
157700,set_tempo,20,1,0,,,,,,816327,,,,,,,
157720,set_tempo,20,1,0,,,,,,827586,,,,,,,
157740,set_tempo,20,1,0,,,,,,839161,,,,,,,
157760,set_tempo,20,1,0,,,,,,851064,,,,,,,
157780,set_tempo,20,1,0,,,,,,863309,,,,,,,
157800,set_tempo,20,1,0,,,,,,869565,,,,,,,
157820,set_tempo,20,1,0,,,,,,882353,,,,,,,
157840,set_tempo,20,1,0,,,,,,895522,,,,,,,
157860,set_tempo,20,1,0,,,,,,909091,,,,,,,
157880,set_tempo,20,1,0,,,,,,923077,,,,,,,
157900,set_tempo,20,1,0,,,,,,930233,,,,,,,
157920,set_tempo,20,1,0,,,,,,944882,,,,,,,
157920,note_on,240,0,2,,,,,,,,,0,,,58,29
157940,set_tempo,20,1,0,,,,,,960000,,,,,,,
157960,set_tempo,20,1,0,,,,,,975610,,,,,,,
157980,set_tempo,20,1,0,,,,,,991736,,,,,,,
158000,set_tempo,20,1,0,,,,,,1000000,,,,,,,
158020,set_tempo,20,1,0,,,,,,1016949,,,,,,,
158040,set_tempo,20,1,0,,,,,,1034483,,,,,,,
158060,set_tempo,20,1,0,,,,,,1052632,,,,,,,
158080,set_tempo,20,1,0,,,,,,1071429,,,,,,,
158100,set_tempo,20,1,0,,,,,,1081081,,,,,,,
158120,set_tempo,20,1,0,,,,,,1100917,,,,,,,
158140,set_tempo,20,1,0,,,,,,1121495,,,,,,,
158160,note_on,0,0,2,,,,,,,,,0,,,60,26
158160,note_on,240,0,2,,,,,,,,,0,,,58,0
158160,set_tempo,20,1,0,,,,,,1142857,,,,,,,
158180,set_tempo,20,1,0,,,,,,1165049,,,,,,,
158200,set_tempo,20,1,0,,,,,,1176471,,,,,,,
158220,set_tempo,20,1,0,,,,,,1200000,,,,,,,
158240,set_tempo,20,1,0,,,,,,1224490,,,,,,,
158260,set_tempo,20,1,0,,,,,,1250000,,,,,,,
158280,set_tempo,20,1,0,,,,,,1276596,,,,,,,
158300,set_tempo,20,1,0,,,,,,1290323,,,,,,,
158320,set_tempo,20,1,0,,,,,,1318681,,,,,,,
158340,set_tempo,20,1,0,,,,,,1348315,,,,,,,
158360,set_tempo,20,1,0,,,,,,1379310,,,,,,,
158380,set_tempo,20,1,0,,,,,,1411765,,,,,,,
158400,note_on,240,0,2,,,,,,,,,0,,,60,0
158400,set_tempo,20,1,0,,,,,,1445783,,,,,,,
158400,note_on,0,0,2,,,,,,,,,0,,,61,22
158640,set_tempo,240,1,0,,,,,,2000000,,,,,,,
159120,note_on,0,0,2,,,,,,,,,0,,,55,0
159120,note_on,0,0,2,,,,,,,,,0,,,51,0
159120,note_on,720,0,2,,,,,,,,,0,,,61,0
159120,note_on,0,0,1,,,,,,,,,0,,,72,30
159120,note_on,0,0,1,,,,,,,,,0,,,68,27
159120,note_on,0,0,1,,,,,,,,,0,,,60,27
159120,note_on,0,0,2,,,,,,,,,0,,,44,24
159120,note_on,1440,0,1,,,,,,,,,0,,,75,0
159120,control_change,0,0,1,,,,,,,,,0,91,127,,
159120,control_change,0,0,2,,,,,,,,,0,91,127,,
159120,note_on,0,0,2,,,,,,,,,0,,,51,24
159120,set_tempo,480,1,0,,,,,,923077,,,,,,,
159160,set_tempo,40,1,0,,,,,,835073,,,,,,,
159480,note_on,360,0,2,,,,,,,,,0,,,51,0
159480,note_on,0,0,2,,,,,,,,,0,,,46,24
159480,note_on,0,0,2,,,,,,,,,0,,,51,24
159480,note_on,360,0,1,,,,,,,,,0,,,67,27
159480,note_on,0,0,1,,,,,,,,,0,,,61,27
159480,note_on,0,0,1,,,,,,,,,0,,,73,30
159490,note_on,0,0,1,,,,,,,,,0,,,68,0
159490,note_on,0,0,1,,,,,,,,,0,,,72,0
159490,note_on,10,0,1,,,,,,,,,0,,,60,0
159490,note_on,10,0,2,,,,,,,,,0,,,44,0
159600,note_on,0,0,2,,,,,,,,,0,,,44,24
159600,note_on,0,0,2,,,,,,,,,0,,,51,24
159600,note_on,110,0,2,,,,,,,,,0,,,51,0
159600,set_tempo,440,1,0,,,,,,977836,,,,,,,
159600,note_on,110,0,1,,,,,,,,,0,,,72,30
159600,note_on,0,0,1,,,,,,,,,0,,,60,27
159600,note_on,0,0,1,,,,,,,,,0,,,68,27
159610,note_on,10,0,1,,,,,,,,,0,,,67,0
159610,note_on,0,0,1,,,,,,,,,0,,,73,0
159610,note_on,0,0,1,,,,,,,,,0,,,61,0
159610,note_on,10,0,2,,,,,,,,,0,,,46,0
159832,set_tempo,232,1,0,,,,,,835073,,,,,,,
159840,note_on,0,0,1,,,,,,,,,0,,,68,0
159840,note_on,0,0,1,,,,,,,,,0,,,60,0
159840,note_on,0,0,1,,,,,,,,,0,,,67,19
159840,note_on,0,0,2,,,,,,,,,0,,,51,18
159840,note_on,0,0,2,,,,,,,,,0,,,46,18
159840,note_on,0,0,2,,,,,,,,,0,,,51,0
159840,note_on,230,0,2,,,,,,,,,0,,,44,0
159840,note_on,230,0,1,,,,,,,,,0,,,72,0
159840,note_on,0,0,1,,,,,,,,,0,,,61,19
159840,note_on,0,0,1,,,,,,,,,0,,,73,22
159840,key_signature,8,1,0,,,,,Ab,,,,,,,,
159840,set_tempo,0,1,0,,,,,,835073,,,,,,,
161272,set_tempo,1432,1,0,,,,,,835073,,,,,,,
161280,note_on,0,0,1,,,,,,,,,0,,,73,0
161280,note_on,1440,0,1,,,,,,,,,0,,,67,0
161280,note_on,0,0,1,,,,,,,,,0,,,61,0
161280,note_on,0,0,1,,,,,,,,,0,,,60,30
161280,note_on,0,0,1,,,,,,,,,0,,,72,35
161280,note_on,1440,0,2,,,,,,,,,0,,,51,0
161280,note_on,0,0,1,,,,,,,,,0,,,68,30
161280,note_on,0,0,2,,,,,,,,,0,,,51,29
161280,note_on,0,0,2,,,,,,,,,0,,,44,29
161280,set_tempo,8,1,0,,,,,,841633,,,,,,,
161280,note_on,0,0,2,,,,,,,,,0,,,46,0
161320,set_tempo,40,1,0,,,,,,848057,,,,,,,
161340,set_tempo,20,1,0,,,,,,854823,,,,,,,
161360,set_tempo,20,1,0,,,,,,861698,,,,,,,
161400,set_tempo,40,1,0,,,,,,868432,,,,,,,
161420,set_tempo,20,1,0,,,,,,875401,,,,,,,
161440,set_tempo,20,1,0,,,,,,882483,,,,,,,
161480,set_tempo,40,1,0,,,,,,889944,,,,,,,
161500,set_tempo,20,1,0,,,,,,897129,,,,,,,
161520,set_tempo,20,1,0,,,,,,904704,,,,,,,
161540,set_tempo,20,1,0,,,,,,912270,,,,,,,
161580,set_tempo,40,1,0,,,,,,919963,,,,,,,
161600,set_tempo,20,1,0,,,,,,927931,,,,,,,
161620,set_tempo,20,1,0,,,,,,935745,,,,,,,
161640,note_on,360,0,2,,,,,,,,,0,,,51,0
161640,note_on,0,0,2,,,,,,,,,0,,,48,29
161640,note_on,360,0,1,,,,,,,,,0,,,63,35
161640,note_on,0,0,1,,,,,,,,,0,,,75,39
161640,note_on,0,0,2,,,,,,,,,0,,,51,29
161650,note_on,10,0,2,,,,,,,,,0,,,44,0
161650,note_on,0,0,1,,,,,,,,,0,,,68,0
161650,note_on,0,0,1,,,,,,,,,0,,,60,0
161650,note_on,10,0,1,,,,,,,,,0,,,72,0
161660,set_tempo,40,1,0,,,,,,944138,,,,,,,
161680,set_tempo,20,1,0,,,,,,952381,,,,,,,
161700,set_tempo,20,1,0,,,,,,960769,,,,,,,
161720,set_tempo,20,1,0,,,,,,969462,,,,,,,
161760,note_on,110,0,2,,,,,,,,,0,,,51,0
161760,note_on,0,0,2,,,,,,,,,0,,,44,29
161760,note_on,0,0,2,,,,,,,,,0,,,51,29
161760,note_on,0,0,1,,,,,,,,,0,,,60,30
161760,set_tempo,40,1,0,,,,,,1206515,,,,,,,
161760,note_on,0,0,1,,,,,,,,,0,,,72,35
161760,note_on,110,0,1,,,,,,,,,0,,,68,30
161770,note_on,10,0,1,,,,,,,,,0,,,63,0
161770,note_on,0,0,1,,,,,,,,,0,,,75,0
161770,note_on,10,0,2,,,,,,,,,0,,,48,0
161992,set_tempo,232,1,0,,,,,,960769,,,,,,,
162000,note_on,0,0,1,,,,,,,,,0,,,60,0
162000,note_on,0,0,1,,,,,,,,,0,,,68,0
162000,note_on,230,0,1,,,,,,,,,0,,,72,0
162000,note_on,0,0,1,,,,,,,,,0,,,58,25
162000,set_tempo,8,1,0,,,,,,835073,,,,,,,
162000,note_on,230,0,2,,,,,,,,,0,,,51,0
162000,note_on,0,0,2,,,,,,,,,0,,,44,0
162000,note_on,0,0,2,,,,,,,,,0,,,51,23
162000,note_on,0,0,1,,,,,,,,,0,,,67,25
162000,note_on,0,0,2,,,,,,,,,0,,,39,23
162000,note_on,0,0,1,,,,,,,,,0,,,70,28
163440,note_on,1440,0,1,,,,,,,,,0,,,67,0
163440,note_on,0,0,1,,,,,,,,,0,,,58,0
163440,note_on,0,0,1,,,,,,,,,0,,,70,0
163440,note_on,0,0,1,,,,,,,,,0,,,72,34
163440,note_on,0,0,1,,,,,,,,,0,,,60,29
163440,note_on,0,0,2,,,,,,,,,0,,,51,0
163440,note_on,0,0,2,,,,,,,,,0,,,44,28
163440,note_on,1440,0,2,,,,,,,,,0,,,39,0
163440,note_on,0,0,2,,,,,,,,,0,,,51,28
163440,note_on,0,0,1,,,,,,,,,0,,,68,29
163800,note_on,0,0,2,,,,,,,,,0,,,46,29
163800,note_on,0,0,2,,,,,,,,,0,,,51,29
163800,note_on,360,0,2,,,,,,,,,0,,,51,0
163800,note_on,360,0,1,,,,,,,,,0,,,61,29
163800,note_on,0,0,1,,,,,,,,,0,,,67,29
163800,note_on,0,0,1,,,,,,,,,0,,,73,34
163810,note_on,10,0,2,,,,,,,,,0,,,44,0
163810,note_on,0,0,1,,,,,,,,,0,,,60,0
163810,note_on,0,0,1,,,,,,,,,0,,,72,0
163810,note_on,10,0,1,,,,,,,,,0,,,68,0
163920,note_on,110,0,1,,,,,,,,,0,,,60,29
163920,note_on,0,0,1,,,,,,,,,0,,,72,34
163920,note_on,0,0,1,,,,,,,,,0,,,68,29
163920,note_on,0,0,2,,,,,,,,,0,,,44,29
163920,note_on,110,0,2,,,,,,,,,0,,,51,0
163920,note_on,0,0,2,,,,,,,,,0,,,51,29
163930,note_on,10,0,2,,,,,,,,,0,,,46,0
163930,note_on,0,0,1,,,,,,,,,0,,,73,0
163930,note_on,0,0,1,,,,,,,,,0,,,67,0
163930,note_on,10,0,1,,,,,,,,,0,,,61,0
164160,note_on,0,0,1,,,,,,,,,0,,,68,0
164160,note_on,0,0,1,,,,,,,,,0,,,68,27
164160,note_on,0,0,1,,,,,,,,,0,,,60,27
164160,note_on,0,0,1,,,,,,,,,0,,,72,30
164160,note_on,230,0,1,,,,,,,,,0,,,60,0
164160,note_on,230,0,2,,,,,,,,,0,,,51,0
164160,note_on,0,0,2,,,,,,,,,0,,,44,0
164160,note_on,0,0,2,,,,,,,,,0,,,51,25
164160,note_on,0,0,2,,,,,,,,,0,,,44,25
164160,note_on,0,0,1,,,,,,,,,0,,,72,0
164520,note_on,0,0,2,,,,,,,,,0,,,51,33
164520,note_on,0,0,2,,,,,,,,,0,,,49,33
164520,note_on,360,0,2,,,,,,,,,0,,,51,0
164520,note_on,0,0,1,,,,,,,,,0,,,77,44
164520,note_on,0,0,1,,,,,,,,,0,,,65,39
164520,note_on,360,0,1,,,,,,,,,0,,,68,39
164530,note_on,10,0,2,,,,,,,,,0,,,44,0
164530,note_on,0,0,1,,,,,,,,,0,,,60,0
164530,note_on,0,0,1,,,,,,,,,0,,,68,0
164530,note_on,10,0,1,,,,,,,,,0,,,72,0
164640,note_on,0,0,2,,,,,,,,,0,,,48,37
164640,note_on,0,0,2,,,,,,,,,0,,,51,37
164640,set_tempo,2640,1,0,,,,,,1024240,,,,,,,
164640,note_on,110,0,2,,,,,,,,,0,,,51,0
164640,note_on,110,0,1,,,,,,,,,0,,,75,47
164640,note_on,0,0,1,,,,,,,,,0,,,68,41
164640,note_on,0,0,1,,,,,,,,,0,,,63,41
164650,note_on,10,0,2,,,,,,,,,0,,,49,0
164650,note_on,0,0,1,,,,,,,,,0,,,65,0
164650,note_on,0,0,1,,,,,,,,,0,,,77,0
164650,note_on,10,0,1,,,,,,,,,0,,,68,0
164880,note_on,0,0,2,,,,,,,,,0,,,48,42
164880,note_on,0,0,2,,,,,,,,,0,,,51,42
164880,note_on,0,0,2,,,,,,,,,0,,,48,0
164880,note_on,230,0,2,,,,,,,,,0,,,51,0
164880,note_on,0,0,1,,,,,,,,,0,,,68,46
164880,note_on,0,0,1,,,,,,,,,0,,,63,46
164880,note_on,0,0,1,,,,,,,,,0,,,75,51
164880,note_on,0,0,1,,,,,,,,,0,,,63,0
164880,note_on,0,0,1,,,,,,,,,0,,,68,0
164880,note_on,230,0,1,,,,,,,,,0,,,75,0
164888,set_tempo,248,1,0,,,,,,835073,,,,,,,
165480,note_on,0,0,1,,,,,,,,,0,,,63,47
165480,note_on,0,0,1,,,,,,,,,0,,,75,52
165480,note_on,0,0,1,,,,,,,,,0,,,75,0
165480,note_on,0,0,1,,,,,,,,,0,,,63,0
165480,note_on,600,0,1,,,,,,,,,0,,,68,0
165600,note_on,0,0,1,,,,,,,,,0,,,67,47
165600,note_on,0,0,1,,,,,,,,,0,,,73,52
165600,note_on,0,0,1,,,,,,,,,0,,,61,47
165600,note_on,120,0,1,,,,,,,,,0,,,63,0
165600,note_on,720,0,2,,,,,,,,,0,,,48,0
165600,note_on,0,0,2,,,,,,,,,0,,,51,0
165600,note_on,0,0,2,,,,,,,,,0,,,46,44
165600,note_on,0,0,2,,,,,,,,,0,,,51,44
165600,note_on,0,0,1,,,,,,,,,0,,,75,0
166200,note_on,0,0,1,,,,,,,,,0,,,61,0
166200,note_on,0,0,1,,,,,,,,,0,,,68,24
166200,note_on,600,0,1,,,,,,,,,0,,,73,0
166200,note_on,600,0,2,,,,,,,,,0,,,51,0
166200,note_on,0,0,2,,,,,,,,,0,,,46,0
166200,note_on,0,0,2,,,,,,,,,0,,,51,23
166200,note_on,0,0,2,,,,,,,,,0,,,44,23
166200,note_on,0,0,1,,,,,,,,,0,,,60,24
166200,note_on,0,0,1,,,,,,,,,0,,,72,27
166200,note_on,0,0,1,,,,,,,,,0,,,67,0
166208,set_tempo,1320,1,0,,,,,,1075076,,,,,,,
166320,note_on,0,0,1,,,,,,,,,0,,,60,24
166320,note_on,0,0,1,,,,,,,,,0,,,72,27
166320,note_on,0,0,1,,,,,,,,,0,,,68,24
166320,note_on,0,0,1,,,,,,,,,0,,,68,0
166320,note_on,120,0,1,,,,,,,,,0,,,72,0
166320,set_tempo,112,1,0,,,,,,835073,,,,,,,
166320,note_on,120,0,2,,,,,,,,,0,,,44,0
166320,note_on,0,0,2,,,,,,,,,0,,,51,0
166320,note_on,0,0,2,,,,,,,,,0,,,44,22
166320,note_on,0,0,2,,,,,,,,,0,,,51,22
166320,note_on,0,0,1,,,,,,,,,0,,,60,0
167760,note_on,0,0,2,,,,,,,,,0,,,44,0
167760,note_on,0,0,1,,,,,,,,,0,,,67,39
167760,note_on,0,0,1,,,,,,,,,0,,,58,39
167760,note_on,0,0,1,,,,,,,,,0,,,70,44
167760,note_on,0,0,1,,,,,,,,,0,,,68,0
167760,note_on,1440,0,2,,,,,,,,,0,,,51,0
167760,note_on,1440,0,1,,,,,,,,,0,,,60,0
167760,note_on,0,0,1,,,,,,,,,0,,,72,0
167760,note_on,0,0,2,,,,,,,,,0,,,51,36
167760,note_on,0,0,2,,,,,,,,,0,,,39,36
168120,note_on,0,0,2,,,,,,,,,0,,,51,37
168120,note_on,0,0,2,,,,,,,,,0,,,44,37
168120,note_on,360,0,2,,,,,,,,,0,,,51,0
168120,note_on,360,0,1,,,,,,,,,0,,,68,39
168120,note_on,0,0,1,,,,,,,,,0,,,59,39
168120,note_on,0,0,1,,,,,,,,,0,,,71,44
168130,note_on,0,0,1,,,,,,,,,0,,,58,0
168130,note_on,0,0,1,,,,,,,,,0,,,70,0
168130,note_on,10,0,1,,,,,,,,,0,,,67,0
168130,note_on,10,0,2,,,,,,,,,0,,,39,0
168240,note_on,110,0,2,,,,,,,,,0,,,51,0
168240,note_on,0,0,2,,,,,,,,,0,,,39,37
168240,note_on,0,0,2,,,,,,,,,0,,,51,37
168240,note_on,110,0,1,,,,,,,,,0,,,58,39
168240,note_on,0,0,1,,,,,,,,,0,,,67,39
168240,note_on,0,0,1,,,,,,,,,0,,,70,44
168250,note_on,10,0,2,,,,,,,,,0,,,44,0
168250,note_on,10,0,1,,,,,,,,,0,,,68,0
168250,note_on,0,0,1,,,,,,,,,0,,,71,0
168250,note_on,0,0,1,,,,,,,,,0,,,59,0
168480,note_on,0,0,1,,,,,,,,,0,,,67,39
168480,note_on,0,0,2,,,,,,,,,0,,,51,37
168480,note_on,0,0,2,,,,,,,,,0,,,39,37
168480,note_on,0,0,2,,,,,,,,,0,,,51,0
168480,note_on,230,0,2,,,,,,,,,0,,,39,0
168480,note_on,0,0,1,,,,,,,,,0,,,67,0
168480,note_on,0,0,1,,,,,,,,,0,,,70,0
168480,note_on,0,0,1,,,,,,,,,0,,,58,39
168480,note_on,230,0,1,,,,,,,,,0,,,58,0
168480,note_on,0,0,1,,,,,,,,,0,,,70,44
168840,note_on,360,0,1,,,,,,,,,0,,,71,44
168840,note_on,0,0,2,,,,,,,,,0,,,44,36
168840,note_on,0,0,2,,,,,,,,,0,,,51,36
168840,note_on,360,0,2,,,,,,,,,0,,,51,0
168840,note_on,0,0,1,,,,,,,,,0,,,59,39
168840,note_on,0,0,1,,,,,,,,,0,,,68,39
168850,note_on,10,0,2,,,,,,,,,0,,,39,0
168850,note_on,0,0,1,,,,,,,,,0,,,58,0
168850,note_on,10,0,1,,,,,,,,,0,,,67,0
168850,note_on,0,0,1,,,,,,,,,0,,,70,0
168960,set_tempo,2640,1,0,,,,,,1096491,,,,,,,
168960,note_on,110,0,1,,,,,,,,,0,,,67,39
168960,note_on,0,0,1,,,,,,,,,0,,,58,39
168960,note_on,0,0,1,,,,,,,,,0,,,70,44
168960,note_on,0,0,2,,,,,,,,,0,,,51,36
168960,note_on,110,0,2,,,,,,,,,0,,,51,0
168960,note_on,0,0,2,,,,,,,,,0,,,39,36
168970,note_on,10,0,1,,,,,,,,,0,,,71,0
168970,note_on,0,0,1,,,,,,,,,0,,,68,0
168970,note_on,10,0,2,,,,,,,,,0,,,44,0
168970,note_on,0,0,1,,,,,,,,,0,,,59,0
169192,set_tempo,232,1,0,,,,,,835073,,,,,,,
169200,note_on,0,0,2,,,,,,,,,0,,,38,51
169200,note_on,230,0,2,,,,,,,,,0,,,51,0
169200,note_on,0,0,2,,,,,,,,,0,,,39,0
169200,note_on,0,0,1,,,,,,,,,0,,,68,56
169200,note_on,0,0,2,,,,,,,,,0,,,50,51
169200,note_on,230,0,1,,,,,,,,,0,,,67,0
169200,note_on,0,0,1,,,,,,,,,0,,,58,0
169200,note_on,0,0,1,,,,,,,,,0,,,71,62
169200,note_on,0,0,1,,,,,,,,,0,,,70,0
169200,note_on,0,0,1,,,,,,,,,0,,,65,56
169920,note_on,0,0,1,,,,,,,,,0,,,77,63
169920,note_on,0,0,1,,,,,,,,,0,,,68,57
169920,note_on,0,0,1,,,,,,,,,0,,,68,0
169920,note_on,0,0,1,,,,,,,,,0,,,71,0
169920,note_on,720,0,1,,,,,,,,,0,,,65,0
169920,note_on,0,0,1,,,,,,,,,0,,,71,57
170400,note_on,0,0,1,,,,,,,,,0,,,68,0
170400,note_on,480,0,1,,,,,,,,,0,,,71,0
170520,note_on,120,0,1,,,,,,,,,0,,,77,0
170520,note_on,0,0,1,,,,,,,,,0,,,75,42
170528,set_tempo,1336,1,0,,,,,,1096491,,,,,,,
170640,note_on,0,0,1,,,,,,,,,0,,,68,38
170640,note_on,0,0,1,,,,,,,,,0,,,71,38
170640,note_on,1440,0,2,,,,,,,,,0,,,50,0
170640,note_on,0,0,2,,,,,,,,,0,,,38,0
170640,set_tempo,112,1,0,,,,,,888889,,,,,,,
170640,note_on,0,0,2,,,,,,,,,0,,,51,36
170640,note_on,0,0,2,,,,,,,,,0,,,39,36
170640,note_on,0,0,1,,,,,,,,,0,,,75,42
170640,note_on,120,0,1,,,,,,,,,0,,,75,0
171120,set_tempo,480,1,0,,,,,,833333,,,,,,,
171360,note_on,0,0,1,,,,,,,,,0,,,67,25
171360,note_on,720,0,1,,,,,,,,,0,,,71,0
171360,note_on,0,0,1,,,,,,,,,0,,,68,0
171360,note_on,0,0,1,,,,,,,,,0,,,70,28
171600,note_on,960,0,2,,,,,,,,,0,,,39,0
171600,note_on,0,0,2,,,,,,,,,0,,,51,0
171600,note_on,0,0,1,,,,,,,,,0,,,75,0
171600,note_on,240,0,1,,,,,,,,,0,,,70,0
171600,note_on,0,0,1,,,,,,,,,0,,,67,0
172080,note_on,0,0,1,,,,,,,,,0,,,69,30
172080,set_tempo,960,1,0,,,,,,904704,,,,,,,
172080,note_on,0,0,1,,,,,,,,,0,,,60,30
172080,note_on,480,0,1,,,,,,,,,0,,,75,35
172080,note_on,0,0,1,,,,,,,,,0,,,66,30
172440,note_on,360,0,1,,,,,,,,,0,,,77,35
172450,note_on,10,0,1,,,,,,,,,0,,,75,0
172560,note_on,0,0,1,,,,,,,,,0,,,69,30
172560,note_on,0,0,1,,,,,,,,,0,,,60,30
172560,note_on,0,0,1,,,,,,,,,0,,,75,35
172560,note_on,0,0,1,,,,,,,,,0,,,60,0
172560,note_on,0,0,1,,,,,,,,,0,,,69,0
172560,note_on,0,0,1,,,,,,,,,0,,,66,30
172560,note_on,110,0,1,,,,,,,,,0,,,66,0
172570,note_on,10,0,1,,,,,,,,,0,,,77,0
172800,note_on,0,0,1,,,,,,,,,0,,,68,30
172800,note_on,0,0,1,,,,,,,,,0,,,61,30
172800,note_on,0,0,1,,,,,,,,,0,,,66,30
172800,note_on,0,0,1,,,,,,,,,0,,,75,0
172800,note_on,0,0,1,,,,,,,,,0,,,66,0
172800,note_on,230,0,1,,,,,,,,,0,,,60,0
172800,note_on,0,0,1,,,,,,,,,0,,,69,0
172800,note_on,0,0,1,,,,,,,,,0,,,75,35
173280,note_on,480,0,1,,,,,,,,,0,,,68,0
173280,note_on,0,0,1,,,,,,,,,0,,,75,0
173280,note_on,0,0,1,,,,,,,,,0,,,72,35
173520,set_tempo,1440,1,0,,,,,,835073,,,,,,,
173520,note_on,240,0,1,,,,,,,,,0,,,72,0
173520,note_on,0,0,1,,,,,,,,,0,,,66,0
173520,note_on,0,0,1,,,,,,,,,0,,,68,30
173520,note_on,0,0,1,,,,,,,,,0,,,65,30
173520,note_on,0,0,1,,,,,,,,,0,,,73,35
173760,note_on,240,0,1,,,,,,,,,0,,,73,0
173760,note_on,0,0,1,,,,,,,,,0,,,65,0
173760,note_on,0,0,1,,,,,,,,,0,,,61,0
173760,note_on,0,0,1,,,,,,,,,0,,,68,0
174240,note_on,480,0,1,,,,,,,,,0,,,75,68
174240,note_on,0,0,2,,,,,,,,,0,,,54,60
174240,note_on,2640,0,2,,,,,,,,,0,,,42,60
174240,set_tempo,720,1,0,,,,,,828729,,,,,,,
174240,note_on,0,0,1,,,,,,,,,0,,,72,68
174240,note_on,0,0,1,,,,,,,,,0,,,80,77
174352,set_tempo,112,1,0,,,,,,835073,,,,,,,
174464,set_tempo,112,1,0,,,,,,841633,,,,,,,
174568,set_tempo,104,1,0,,,,,,848057,,,,,,,
174600,note_on,360,0,1,,,,,,,,,0,,,82,77
174610,note_on,10,0,1,,,,,,,,,0,,,80,0
174680,set_tempo,112,1,0,,,,,,854823,,,,,,,
174720,note_on,0,0,1,,,,,,,,,0,,,72,68
174720,note_on,0,0,2,,,,,,,,,0,,,54,59
174720,note_on,0,0,2,,,,,,,,,0,,,42,0
174720,note_on,480,0,2,,,,,,,,,0,,,54,0
174720,note_on,0,0,1,,,,,,,,,0,,,80,77
174720,note_on,0,0,1,,,,,,,,,0,,,75,68
174720,note_on,0,0,2,,,,,,,,,0,,,42,59
174720,note_on,110,0,1,,,,,,,,,0,,,75,0
174720,note_on,0,0,1,,,,,,,,,0,,,72,0
174730,note_on,10,0,1,,,,,,,,,0,,,82,0
174792,set_tempo,112,1,0,,,,,,861698,,,,,,,
174896,set_tempo,104,1,0,,,,,,868432,,,,,,,
174960,note_on,0,0,1,,,,,,,,,0,,,80,0
174960,note_on,0,0,1,,,,,,,,,0,,,75,0
174960,note_on,0,0,1,,,,,,,,,0,,,82,77
174960,note_on,0,0,1,,,,,,,,,0,,,73,68
174960,note_on,230,0,1,,,,,,,,,0,,,72,0
174960,note_on,0,0,2,,,,,,,,,0,,,54,0
174960,note_on,0,0,2,,,,,,,,,0,,,53,59
174960,set_tempo,64,1,0,,,,,,868432,,,,,,,
174960,note_on,0,0,2,,,,,,,,,0,,,41,59
174960,note_on,240,0,2,,,,,,,,,0,,,42,0
175008,set_tempo,48,1,0,,,,,,875401,,,,,,,
175120,set_tempo,112,1,0,,,,,,882483,,,,,,,
175224,set_tempo,104,1,0,,,,,,889944,,,,,,,
175320,note_on,360,0,1,,,,,,,,,0,,,80,77
175330,note_on,10,0,1,,,,,,,,,0,,,82,0
175336,set_tempo,112,1,0,,,,,,897129,,,,,,,
175440,note_on,0,0,2,,,,,,,,,0,,,52,67
175440,set_tempo,104,1,0,,,,,,1085776,,,,,,,
175440,note_on,0,0,2,,,,,,,,,0,,,40,67
175440,note_on,0,0,2,,,,,,,,,0,,,41,0
175440,note_on,480,0,2,,,,,,,,,0,,,53,0
175440,note_on,110,0,1,,,,,,,,,0,,,80,0
175440,note_on,0,0,1,,,,,,,,,0,,,73,0
175440,note_on,0,0,1,,,,,,,,,0,,,80,77
175440,note_on,0,0,1,,,,,,,,,0,,,73,68
175500,note_on,60,0,1,,,,,,,,,0,,,80,0
175560,note_on,60,0,1,,,,,,,,,0,,,80,77
175680,note_on,0,0,1,,,,,,,,,0,,,80,81
175680,note_on,240,0,2,,,,,,,,,0,,,40,0
175680,note_on,0,0,2,,,,,,,,,0,,,52,0
175680,note_on,0,0,2,,,,,,,,,0,,,39,74
175680,note_on,0,0,2,,,,,,,,,0,,,51,74
175680,note_on,0,0,1,,,,,,,,,0,,,73,81
175680,note_on,120,0,1,,,,,,,,,0,,,80,0
175680,note_on,0,0,1,,,,,,,,,0,,,85,91
175680,note_on,0,0,1,,,,,,,,,0,,,73,0
175688,set_tempo,248,1,0,,,,,,835073,,,,,,,
176160,note_on,0,0,1,,,,,,,,,0,,,84,77
176160,note_on,480,0,1,,,,,,,,,0,,,85,0
176280,note_on,120,0,1,,,,,,,,,0,,,84,0
176280,note_on,0,0,1,,,,,,,,,0,,,84,57
176280,set_tempo,592,1,0,,,,,,1085776,,,,,,,
176392,set_tempo,112,1,0,,,,,,835073,,,,,,,
176400,note_on,0,0,2,,,,,,,,,0,,,39,44
176400,note_on,0,0,2,,,,,,,,,0,,,51,44
176400,note_on,0,0,2,,,,,,,,,0,,,39,0
176400,note_on,720,0,2,,,,,,,,,0,,,51,0
176400,note_on,120,0,1,,,,,,,,,0,,,84,0
176400,note_on,0,0,1,,,,,,,,,0,,,73,0
176400,note_on,0,0,1,,,,,,,,,0,,,80,0
176400,note_on,0,0,1,,,,,,,,,0,,,82,57
176400,note_on,0,0,1,,,,,,,,,0,,,79,51
176400,note_on,0,0,1,,,,,,,,,0,,,73,51
176992,set_tempo,600,1,0,,,,,,1206515,,,,,,,
177000,note_on,0,0,1,,,,,,,,,0,,,82,0
177000,note_on,600,0,2,,,,,,,,,0,,,39,0
177000,note_on,0,0,2,,,,,,,,,0,,,51,0
177000,note_on,0,0,2,,,,,,,,,0,,,44,42
177000,note_on,0,0,2,,,,,,,,,0,,,51,42
177000,note_on,600,0,1,,,,,,,,,0,,,73,0
177000,note_on,0,0,1,,,,,,,,,0,,,72,45
177000,note_on,0,0,1,,,,,,,,,0,,,80,50
177000,note_on,0,0,1,,,,,,,,,0,,,79,0
177120,set_tempo,128,1,0,,,,,,835073,,,,,,,
177120,note_on,0,0,2,,,,,,,,,0,,,51,42
177120,note_on,0,0,2,,,,,,,,,0,,,44,42
177120,note_on,120,0,2,,,,,,,,,0,,,51,0
177120,note_on,0,0,1,,,,,,,,,0,,,72,37
177120,note_on,0,0,1,,,,,,,,,0,,,80,50
177120,note_on,0,0,1,,,,,,,,,0,,,80,0
177120,note_on,120,0,1,,,,,,,,,0,,,72,0
177120,note_on,0,0,2,,,,,,,,,0,,,44,0
177712,control_change,592,0,2,,,,,,,,,0,64,126,,
177720,set_tempo,600,1,0,,,,,,904704,,,,,,,
177720,note_on,8,0,2,,,,,,,,,0,,,51,0
177720,note_on,0,0,2,,,,,,,,,0,,,51,24
177840,note_on,120,0,2,,,,,,,,,0,,,51,0
177840,set_tempo,120,1,0,,,,,,835073,,,,,,,
177840,note_on,0,0,2,,,,,,,,,0,,,44,0
177840,note_on,0,0,2,,,,,,,,,0,,,51,24
177840,note_on,0,0,1,,,,,,,,,0,,,80,0
177840,note_on,720,0,1,,,,,,,,,0,,,72,0
178312,control_change,472,0,2,,,,,,,,,0,64,0,,
178440,note_on,128,0,2,,,,,,,,,0,,,44,29
178440,note_on,600,0,1,,,,,,,,,0,,,60,30
178440,set_tempo,600,1,0,,,,,,897129,,,,,,,
178440,note_on,0,0,1,,,,,,,,,0,,,72,35
178440,note_on,0,0,1,,,,,,,,,0,,,68,30
178560,note_on,0,0,1,,,,,,,,,0,,,72,0
178560,note_on,120,0,1,,,,,,,,,0,,,68,0
178560,note_on,0,0,1,,,,,,,,,0,,,60,0
178560,note_on,120,0,2,,,,,,,,,0,,,44,0
178560,note_on,0,0,1,,,,,,,,,0,,,68,30
178560,note_on,0,0,1,,,,,,,,,0,,,72,35
178560,set_tempo,120,1,0,,,,,,835073,,,,,,,
178560,note_on,0,0,1,,,,,,,,,0,,,60,30
178560,note_on,0,0,2,,,,,,,,,0,,,44,29
178920,note_on,360,0,1,,,,,,,,,0,,,67,30
178920,note_on,0,0,1,,,,,,,,,0,,,61,30
178920,note_on,360,0,2,,,,,,,,,0,,,46,29
178920,note_on,0,0,1,,,,,,,,,0,,,73,35
178930,note_on,10,0,2,,,,,,,,,0,,,44,0
178930,note_on,10,0,1,,,,,,,,,0,,,72,0
178930,note_on,0,0,1,,,,,,,,,0,,,68,0
178930,note_on,0,0,1,,,,,,,,,0,,,60,0
179032,set_tempo,472,1,0,,,,,,904704,,,,,,,
179040,note_on,110,0,1,,,,,,,,,0,,,68,30
179040,note_on,0,0,1,,,,,,,,,0,,,72,35
179040,note_on,110,0,2,,,,,,,,,0,,,44,29
179040,note_on,0,0,1,,,,,,,,,0,,,60,30
179050,note_on,10,0,2,,,,,,,,,0,,,46,0
179050,note_on,0,0,1,,,,,,,,,0,,,73,0
179050,note_on,0,0,1,,,,,,,,,0,,,61,0
179050,note_on,10,0,1,,,,,,,,,0,,,67,0
179280,note_on,230,0,2,,,,,,,,,0,,,44,0
179280,note_on,0,0,2,,,,,,,,,0,,,46,25
179280,note_on,0,0,1,,,,,,,,,0,,,67,27
179280,set_tempo,248,1,0,,,,,,835073,,,,,,,
179280,note_on,0,0,1,,,,,,,,,0,,,73,30
179280,note_on,230,0,1,,,,,,,,,0,,,68,0
179280,note_on,0,0,1,,,,,,,,,0,,,72,0
179280,note_on,0,0,1,,,,,,,,,0,,,61,27
179280,note_on,0,0,1,,,,,,,,,0,,,60,0
179880,note_on,600,0,2,,,,,,,,,0,,,51,0
179880,note_on,0,0,2,,,,,,,,,0,,,51,25
179880,control_change,0,0,2,,,,,,,,,0,64,127,,
179880,set_tempo,600,1,0,,,,,,912270,,,,,,,
180000,note_on,120,0,2,,,,,,,,,0,,,51,0
180000,note_on,0,0,2,,,,,,,,,0,,,51,25
180000,set_tempo,120,1,0,,,,,,835073,,,,,,,
180480,control_change,480,0,2,,,,,,,,,0,64,0,,
180600,note_on,0,0,1,,,,,,,,,0,,,70,35
180600,note_on,0,0,1,,,,,,,,,0,,,73,0
180600,note_on,0,0,1,,,,,,,,,0,,,61,0
180600,note_on,0,0,1,,,,,,,,,0,,,58,30
180600,note_on,0,0,1,,,,,,,,,0,,,67,30
180600,set_tempo,600,1,0,,,,,,897129,,,,,,,
180600,note_on,1320,0,1,,,,,,,,,0,,,67,0
180600,note_on,0,0,2,,,,,,,,,0,,,39,29
180600,note_on,120,0,2,,,,,,,,,0,,,46,0
180720,note_on,0,0,1,,,,,,,,,0,,,58,0
180720,note_on,0,0,1,,,,,,,,,0,,,58,30
180720,note_on,0,0,1,,,,,,,,,0,,,70,35
180720,note_on,0,0,2,,,,,,,,,0,,,39,29
180720,note_on,120,0,2,,,,,,,,,0,,,39,0
180720,note_on,120,0,1,,,,,,,,,0,,,67,0
180720,note_on,0,0,1,,,,,,,,,0,,,67,30
180720,note_on,0,0,1,,,,,,,,,0,,,70,0
180728,set_tempo,128,1,0,,,,,,835073,,,,,,,
181080,note_on,360,0,1,,,,,,,,,0,,,60,30
181080,note_on,360,0,2,,,,,,,,,0,,,44,29
181080,note_on,0,0,1,,,,,,,,,0,,,72,35
181080,note_on,0,0,1,,,,,,,,,0,,,68,30
181090,note_on,0,0,1,,,,,,,,,0,,,58,0
181090,note_on,10,0,2,,,,,,,,,0,,,39,0
181090,note_on,10,0,1,,,,,,,,,0,,,70,0
181090,note_on,0,0,1,,,,,,,,,0,,,67,0
181192,set_tempo,464,1,0,,,,,,904704,,,,,,,
181200,note_on,110,0,1,,,,,,,,,0,,,67,30
181200,note_on,0,0,1,,,,,,,,,0,,,58,30
181200,note_on,0,0,1,,,,,,,,,0,,,70,35
181200,note_on,110,0,2,,,,,,,,,0,,,39,29
181210,note_on,0,0,1,,,,,,,,,0,,,72,0
181210,note_on,0,0,1,,,,,,,,,0,,,68,0
181210,note_on,10,0,1,,,,,,,,,0,,,60,0
181210,note_on,10,0,2,,,,,,,,,0,,,44,0
181432,set_tempo,240,1,0,,,,,,835073,,,,,,,
181440,note_on,0,0,1,,,,,,,,,0,,,72,30
181440,note_on,0,0,1,,,,,,,,,0,,,68,27
181440,note_on,230,0,2,,,,,,,,,0,,,39,0
181440,note_on,0,0,1,,,,,,,,,0,,,70,0
181440,note_on,0,0,1,,,,,,,,,0,,,60,27
181440,note_on,230,0,1,,,,,,,,,0,,,67,0
181440,note_on,0,0,1,,,,,,,,,0,,,58,0
181440,note_on,0,0,2,,,,,,,,,0,,,44,24
181920,note_on,480,0,2,,,,,,,,,0,,,51,0
182040,set_tempo,608,1,0,,,,,,969462,,,,,,,
182040,note_on,120,0,2,,,,,,,,,0,,,51,25
182048,control_change,8,0,2,,,,,,,,,0,64,127,,
182160,note_on,112,0,2,,,,,,,,,0,,,51,0
182160,set_tempo,120,1,0,,,,,,835073,,,,,,,
182160,note_on,0,0,2,,,,,,,,,0,,,51,25
182632,control_change,472,0,2,,,,,,,,,0,64,0,,
182760,note_on,0,0,1,,,,,,,,,0,,,63,35
182760,note_on,0,0,1,,,,,,,,,0,,,68,0
182760,note_on,0,0,1,,,,,,,,,0,,,60,0
182760,set_tempo,600,1,0,,,,,,897129,,,,,,,
182760,note_on,1320,0,1,,,,,,,,,0,,,72,0
182760,note_on,128,0,2,,,,,,,,,0,,,44,0
182760,note_on,0,0,2,,,,,,,,,0,,,48,29
182880,note_on,0,0,1,,,,,,,,,0,,,63,35
182880,note_on,0,0,2,,,,,,,,,0,,,48,29
182880,note_on,120,0,2,,,,,,,,,0,,,48,0
182880,set_tempo,120,1,0,,,,,,835073,,,,,,,
182880,note_on,120,0,1,,,,,,,,,0,,,63,0
183040,set_tempo,160,1,0,,,,,,841633,,,,,,,
183200,set_tempo,160,1,0,,,,,,848057,,,,,,,
183240,note_on,360,0,1,,,,,,,,,0,,,65,42
183240,note_on,360,0,2,,,,,,,,,0,,,49,28
183250,note_on,10,0,1,,,,,,,,,0,,,63,0
183250,note_on,10,0,2,,,,,,,,,0,,,48,0
183352,set_tempo,152,1,0,,,,,,854823,,,,,,,
183360,note_on,110,0,1,,,,,,,,,0,,,63,44
183360,note_on,110,0,2,,,,,,,,,0,,,48,30
183370,note_on,10,0,1,,,,,,,,,0,,,65,0
183370,note_on,10,0,2,,,,,,,,,0,,,49,0
183512,set_tempo,160,1,0,,,,,,861698,,,,,,,
183600,note_on,0,0,1,,,,,,,,,0,,,65,45
183600,note_on,230,0,1,,,,,,,,,0,,,63,0
183600,note_on,0,0,2,,,,,,,,,0,,,49,36
183600,note_on,230,0,2,,,,,,,,,0,,,48,0
183672,set_tempo,160,1,0,,,,,,868432,,,,,,,
183824,set_tempo,152,1,0,,,,,,875401,,,,,,,
183960,note_on,360,0,2,,,,,,,,,0,,,48,37
183960,note_on,360,0,1,,,,,,,,,0,,,63,44
183970,note_on,10,0,2,,,,,,,,,0,,,49,0
183970,note_on,10,0,1,,,,,,,,,0,,,65,0
183984,set_tempo,160,1,0,,,,,,882483,,,,,,,
184080,note_on,110,0,1,,,,,,,,,0,,,63,0
184080,note_on,110,0,2,,,,,,,,,0,,,48,0
184080,note_on,0,0,2,,,,,,,,,0,,,48,37
184080,note_on,0,0,1,,,,,,,,,0,,,63,44
184144,set_tempo,160,1,0,,,,,,889944,,,,,,,
184296,set_tempo,152,1,0,,,,,,897129,,,,,,,
184320,note_on,0,0,1,,,,,,,,,0,,,60,39
184320,note_on,0,0,1,,,,,,,,,0,,,68,44
184320,note_on,240,0,1,,,,,,,,,0,,,63,0
184320,note_on,0,0,2,,,,,,,,,0,,,51,37
184320,set_tempo,24,1,0,,,,,,835073,,,,,,,
184320,note_on,0,0,2,,,,,,,,,0,,,51,0
184320,note_on,240,0,2,,,,,,,,,0,,,48,0
185040,note_on,720,0,1,,,,,,,,,0,,,60,0
185040,note_on,0,0,1,,,,,,,,,0,,,68,0
185040,note_on,0,0,2,,,,,,,,,0,,,51,37
185040,note_on,720,0,2,,,,,,,,,0,,,51,0
185040,note_on,0,0,2,,,,,,,,,0,,,39,44
185040,note_on,0,0,1,,,,,,,,,0,,,70,44
185040,note_on,0,0,1,,,,,,,,,0,,,67,39
185040,note_on,0,0,1,,,,,,,,,0,,,61,39
185632,set_tempo,1312,1,0,,,,,,1075076,,,,,,,
185640,note_on,600,0,1,,,,,,,,,0,,,70,0
185640,note_on,0,0,1,,,,,,,,,0,,,68,35
185640,note_on,600,0,2,,,,,,,,,0,,,51,0
185640,note_on,0,0,1,,,,,,,,,0,,,60,30
185640,note_on,0,0,1,,,,,,,,,0,,,61,0
185640,note_on,0,0,2,,,,,,,,,0,,,39,0
185640,note_on,0,0,1,,,,,,,,,0,,,67,0
185640,note_on,0,0,2,,,,,,,,,0,,,51,29
185640,note_on,0,0,2,,,,,,,,,0,,,44,29
185752,set_tempo,120,1,0,,,,,,835073,,,,,,,
185760,note_on,0,0,1,,,,,,,,,0,,,60,0
185760,note_on,0,0,2,,,,,,,,,0,,,51,0
185760,note_on,0,0,1,,,,,,,,,0,,,68,35
185760,note_on,0,0,1,,,,,,,,,0,,,60,30
185760,note_on,0,0,2,,,,,,,,,0,,,44,29
185760,note_on,0,0,2,,,,,,,,,0,,,51,29
185760,note_on,120,0,2,,,,,,,,,0,,,44,0
185760,note_on,120,0,1,,,,,,,,,0,,,68,0
186352,control_change,592,0,1,,,,,,,,,0,64,126,,
186360,note_on,8,0,1,,,,,,,,,0,,,75,29
186360,set_tempo,608,1,0,,,,,,912270,,,,,,,
186360,control_change,0,0,1,,,,,,,,,0,64,127,,
186480,note_on,0,0,1,,,,,,,,,0,,,75,29
186480,note_on,0,0,1,,,,,,,,,0,,,68,0
186480,note_on,0,0,1,,,,,,,,,0,,,60,0
186480,note_on,120,0,1,,,,,,,,,0,,,75,0
186480,note_on,720,0,2,,,,,,,,,0,,,51,0
186480,set_tempo,120,1,0,,,,,,835073,,,,,,,
186480,note_on,0,0,2,,,,,,,,,0,,,44,0
186952,control_change,472,0,1,,,,,,,,,0,64,0,,
187072,set_tempo,592,1,0,,,,,,904704,,,,,,,
187080,note_on,0,0,2,,,,,,,,,0,,,51,29
187080,note_on,600,0,2,,,,,,,,,0,,,60,29
187080,note_on,128,0,1,,,,,,,,,0,,,63,30
187080,note_on,0,0,1,,,,,,,,,0,,,68,35
187192,set_tempo,120,1,0,,,,,,835073,,,,,,,
187200,note_on,0,0,1,,,,,,,,,0,,,63,0
187200,note_on,0,0,1,,,,,,,,,0,,,68,35
187200,note_on,0,0,1,,,,,,,,,0,,,63,30
187200,note_on,120,0,2,,,,,,,,,0,,,51,0
187200,note_on,0,0,2,,,,,,,,,0,,,60,0
187200,note_on,120,0,1,,,,,,,,,0,,,68,0
187200,note_on,0,0,2,,,,,,,,,0,,,51,37
187200,note_on,0,0,2,,,,,,,,,0,,,60,29
187560,note_on,360,0,1,,,,,,,,,0,,,70,35
187560,note_on,0,0,1,,,,,,,,,0,,,65,30
187560,note_on,0,0,2,,,,,,,,,0,,,51,29
187560,note_on,0,0,2,,,,,,,,,0,,,61,29
187560,note_on,360,0,2,,,,,,,,,0,,,51,0
187570,note_on,0,0,1,,,,,,,,,0,,,68,0
187570,note_on,10,0,2,,,,,,,,,0,,,60,0
187570,note_on,10,0,1,,,,,,,,,0,,,63,0
187680,set_tempo,488,1,0,,,,,,912270,,,,,,,
187680,note_on,0,0,1,,,,,,,,,0,,,68,35
187680,note_on,110,0,1,,,,,,,,,0,,,63,30
187680,note_on,110,0,2,,,,,,,,,0,,,51,0
187680,note_on,0,0,2,,,,,,,,,0,,,51,29
187680,note_on,0,0,2,,,,,,,,,0,,,60,29
187690,note_on,10,0,1,,,,,,,,,0,,,65,0
187690,note_on,0,0,1,,,,,,,,,0,,,70,0
187690,note_on,10,0,2,,,,,,,,,0,,,61,0
187912,set_tempo,232,1,0,,,,,,841633,,,,,,,
187920,note_on,0,0,1,,,,,,,,,0,,,70,30
187920,note_on,0,0,1,,,,,,,,,0,,,65,27
187920,note_on,0,0,1,,,,,,,,,0,,,63,0
187920,note_on,230,0,1,,,,,,,,,0,,,68,0
187920,note_on,0,0,2,,,,,,,,,0,,,61,25
187920,note_on,230,0,2,,,,,,,,,0,,,60,0
187920,note_on,0,0,2,,,,,,,,,0,,,51,0
187920,set_tempo,8,1,0,,,,,,835073,,,,,,,
187920,note_on,0,0,2,,,,,,,,,0,,,51,25
188500,set_tempo,580,1,0,,,,,,977836,,,,,,,
188520,note_on,600,0,1,,,,,,,,,0,,,75,0
188520,note_on,0,0,1,,,,,,,,,0,,,75,27
188520,control_change,0,0,1,,,,,,,,,0,64,125,,
188640,note_on,0,0,1,,,,,,,,,0,,,75,27
188640,set_tempo,140,1,0,,,,,,835073,,,,,,,
188640,note_on,120,0,1,,,,,,,,,0,,,75,0
189104,control_change,464,0,1,,,,,,,,,0,64,0,,
189120,control_change,16,0,1,,,,,,,,,0,64,1,,
189240,note_on,1320,0,2,,,,,,,,,0,,,61,0
189240,note_on,0,0,2,,,,,,,,,0,,,51,0
189240,note_on,0,0,2,,,,,,,,,0,,,58,29
189240,note_on,0,0,2,,,,,,,,,0,,,51,29
189240,note_on,0,0,1,,,,,,,,,0,,,67,35
189240,note_on,0,0,1,,,,,,,,,0,,,61,30
189240,note_on,0,0,1,,,,,,,,,0,,,65,0
189240,note_on,120,0,1,,,,,,,,,0,,,70,0
189240,set_tempo,600,1,0,,,,,,897129,,,,,,,
189360,note_on,120,0,2,,,,,,,,,0,,,51,0
189360,note_on,0,0,2,,,,,,,,,0,,,58,0
189360,note_on,0,0,2,,,,,,,,,0,,,51,29
189360,note_on,0,0,2,,,,,,,,,0,,,58,29
189360,note_on,120,0,1,,,,,,,,,0,,,67,0
189360,note_on,0,0,1,,,,,,,,,0,,,61,0
189360,note_on,0,0,1,,,,,,,,,0,,,67,35
189360,note_on,0,0,1,,,,,,,,,0,,,61,30
189360,set_tempo,120,1,0,,,,,,835073,,,,,,,
189720,note_on,360,0,2,,,,,,,,,0,,,51,0
189720,note_on,360,0,1,,,,,,,,,0,,,63,30
189720,note_on,0,0,1,,,,,,,,,0,,,68,35
189720,note_on,0,0,2,,,,,,,,,0,,,51,29
189720,note_on,0,0,2,,,,,,,,,0,,,60,29
189730,note_on,10,0,1,,,,,,,,,0,,,61,0
189730,note_on,0,0,1,,,,,,,,,0,,,67,0
189730,note_on,10,0,2,,,,,,,,,0,,,58,0
189840,note_on,0,0,2,,,,,,,,,0,,,61,29
189840,set_tempo,480,1,0,,,,,,897129,,,,,,,
189840,note_on,110,0,2,,,,,,,,,0,,,51,0
189840,note_on,0,0,1,,,,,,,,,0,,,65,30
189840,note_on,110,0,1,,,,,,,,,0,,,70,35
189840,note_on,0,0,2,,,,,,,,,0,,,51,29
189850,note_on,0,0,1,,,,,,,,,0,,,63,0
189850,note_on,10,0,1,,,,,,,,,0,,,68,0
189850,note_on,10,0,2,,,,,,,,,0,,,60,0
190080,note_on,230,0,1,,,,,,,,,0,,,65,0
190080,note_on,0,0,1,,,,,,,,,0,,,70,0
190080,note_on,0,0,1,,,,,,,,,0,,,63,27
190080,note_on,0,0,2,,,,,,,,,0,,,51,24
190080,note_on,0,0,2,,,,,,,,,0,,,51,0
190080,note_on,230,0,2,,,,,,,,,0,,,61,0
190080,note_on,0,0,2,,,,,,,,,0,,,60,24
190080,note_on,0,0,1,,,,,,,,,0,,,68,30
190080,set_tempo,240,1,0,,,,,,835073,,,,,,,
190680,note_on,0,0,1,,,,,,,,,0,,,75,27
190680,set_tempo,600,1,0,,,,,,977836,,,,,,,
190680,control_change,0,0,1,,,,,,,,,0,64,126,,
190680,note_on,600,0,1,,,,,,,,,0,,,75,0
190800,note_on,0,0,1,,,,,,,,,0,,,75,27
190800,note_on,120,0,1,,,,,,,,,0,,,75,0
190800,set_tempo,120,1,0,,,,,,835073,,,,,,,
191272,control_change,472,0,1,,,,,,,,,0,64,0,,
191400,note_on,128,0,1,,,,,,,,,0,,,63,0
191400,note_on,0,0,1,,,,,,,,,0,,,63,35
191400,note_on,0,0,1,,,,,,,,,0,,,68,0
191400,note_on,0,0,2,,,,,,,,,0,,,60,29
191400,note_on,0,0,2,,,,,,,,,0,,,60,0
191400,note_on,1320,0,2,,,,,,,,,0,,,51,0
191400,set_tempo,600,1,0,,,,,,897129,,,,,,,
191400,note_on,0,0,2,,,,,,,,,0,,,51,29
191520,note_on,120,0,1,,,,,,,,,0,,,63,0
191520,note_on,120,0,2,,,,,,,,,0,,,60,0
191520,note_on,0,0,2,,,,,,,,,0,,,51,0
191520,note_on,0,0,2,,,,,,,,,0,,,60,29
191520,note_on,0,0,2,,,,,,,,,0,,,51,29
191520,set_tempo,120,1,0,,,,,,833333,,,,,,,
191520,note_on,0,0,1,,,,,,,,,0,,,63,35
191620,set_tempo,100,1,0,,,,,,839161,,,,,,,
191700,set_tempo,80,1,0,,,,,,845070,,,,,,,
191800,set_tempo,100,1,0,,,,,,851064,,,,,,,
191880,note_on,360,0,2,,,,,,,,,0,,,51,0
191880,note_on,360,0,1,,,,,,,,,0,,,65,42
191880,note_on,0,0,2,,,,,,,,,0,,,51,29
191880,note_on,0,0,2,,,,,,,,,0,,,61,34
191880,set_tempo,80,1,0,,,,,,857143,,,,,,,
191890,note_on,10,0,2,,,,,,,,,0,,,60,0
191890,note_on,10,0,1,,,,,,,,,0,,,63,0
191960,set_tempo,80,1,0,,,,,,863309,,,,,,,
192000,note_on,0,0,2,,,,,,,,,0,,,51,30
192000,note_on,110,0,1,,,,,,,,,0,,,63,44
192000,note_on,0,0,2,,,,,,,,,0,,,60,30
192000,note_on,110,0,2,,,,,,,,,0,,,51,0
192010,note_on,10,0,1,,,,,,,,,0,,,65,0
192010,note_on,10,0,2,,,,,,,,,0,,,61,0
192060,set_tempo,100,1,0,,,,,,869565,,,,,,,
192140,set_tempo,80,1,0,,,,,,875912,,,,,,,
192220,set_tempo,80,1,0,,,,,,882353,,,,,,,
192240,note_on,0,0,2,,,,,,,,,0,,,51,0
192240,note_on,230,0,2,,,,,,,,,0,,,60,0
192240,note_on,0,0,2,,,,,,,,,0,,,51,36
192240,note_on,0,0,2,,,,,,,,,0,,,61,42
192240,note_on,0,0,1,,,,,,,,,0,,,68,45
192240,note_on,230,0,1,,,,,,,,,0,,,63,0
192240,note_on,0,0,1,,,,,,,,,0,,,65,39
192320,set_tempo,100,1,0,,,,,,888889,,,,,,,
192400,set_tempo,80,1,0,,,,,,895522,,,,,,,
192500,set_tempo,100,1,0,,,,,,902256,,,,,,,
192580,set_tempo,80,1,0,,,,,,909091,,,,,,,
192600,note_on,360,0,1,,,,,,,,,0,,,63,44
192600,note_on,360,0,2,,,,,,,,,0,,,51,0
192600,note_on,0,0,2,,,,,,,,,0,,,51,37
192600,note_on,0,0,2,,,,,,,,,0,,,60,37
192610,note_on,10,0,1,,,,,,,,,0,,,65,0
192610,note_on,10,0,2,,,,,,,,,0,,,61,0
192610,note_on,0,0,1,,,,,,,,,0,,,68,0
192660,set_tempo,80,1,0,,,,,,916031,,,,,,,
192720,note_on,0,0,1,,,,,,,,,0,,,63,44
192720,note_on,110,0,2,,,,,,,,,0,,,60,0
192720,note_on,0,0,2,,,,,,,,,0,,,51,37
192720,note_on,0,0,2,,,,,,,,,0,,,60,37
192720,note_on,0,0,2,,,,,,,,,0,,,51,0
192720,note_on,110,0,1,,,,,,,,,0,,,63,0
192760,set_tempo,100,1,0,,,,,,923077,,,,,,,
192840,set_tempo,80,1,0,,,,,,930233,,,,,,,
192920,set_tempo,80,1,0,,,,,,937500,,,,,,,
192936,set_tempo,16,1,0,,,,,,897129,,,,,,,
192960,note_on,240,0,2,,,,,,,,,0,,,51,0
192960,note_on,0,0,2,,,,,,,,,0,,,60,0
192960,note_on,0,0,2,,,,,,,,,0,,,63,41
192960,note_on,0,0,1,,,,,,,,,0,,,72,59
192960,note_on,240,0,1,,,,,,,,,0,,,63,0
192960,note_on,0,0,1,,,,,,,,,0,,,75,0
192960,note_on,0,0,2,,,,,,,,,0,,,51,41
192960,note_on,0,0,1,,,,,,,,,0,,,75,67
192960,set_tempo,24,1,0,,,,,,857143,,,,,,,
193680,note_on,0,0,2,,,,,,,,,0,,,63,0
193680,note_on,720,0,1,,,,,,,,,0,,,75,0
193680,note_on,0,0,1,,,,,,,,,0,,,72,0
193680,note_on,0,0,1,,,,,,,,,0,,,75,63
193680,note_on,0,0,1,,,,,,,,,0,,,70,63
193680,note_on,0,0,1,,,,,,,,,0,,,79,71
193680,set_tempo,720,1,0,,,,,,952381,,,,,,,
193680,note_on,0,0,2,,,,,,,,,0,,,61,56
193680,note_on,0,0,2,,,,,,,,,0,,,63,56
193680,note_on,0,0,2,,,,,,,,,0,,,51,56
193680,note_on,720,0,2,,,,,,,,,0,,,51,0
194280,note_on,0,0,2,,,,,,,,,0,,,60,63
194280,note_on,0,0,2,,,,,,,,,0,,,56,63
194280,note_on,0,0,2,,,,,,,,,0,,,63,63
194280,note_on,0,0,2,,,,,,,,,0,,,61,0
194280,note_on,0,0,2,,,,,,,,,0,,,63,0
194280,note_on,0,0,1,,,,,,,,,0,,,75,68
194280,note_on,0,0,1,,,,,,,,,0,,,80,77
194280,set_tempo,600,1,0,,,,,,1096491,,,,,,,
194280,note_on,0,0,1,,,,,,,,,0,,,68,68
194280,note_on,600,0,2,,,,,,,,,0,,,51,0
194280,note_on,0,0,1,,,,,,,,,0,,,70,0
194280,note_on,600,0,1,,,,,,,,,0,,,79,0
194280,note_on,0,0,1,,,,,,,,,0,,,75,0
194400,note_on,120,0,1,,,,,,,,,0,,,68,0
194400,note_on,0,0,1,,,,,,,,,0,,,75,0
194400,note_on,0,0,1,,,,,,,,,0,,,80,0
194400,note_on,0,0,2,,,,,,,,,0,,,63,64
194400,note_on,0,0,2,,,,,,,,,0,,,60,64
194400,note_on,0,0,2,,,,,,,,,0,,,60,0
194400,note_on,0,0,2,,,,,,,,,0,,,63,0
194400,note_on,120,0,2,,,,,,,,,0,,,56,0
194400,note_on,0,0,1,,,,,,,,,0,,,80,77
194400,note_on,0,0,1,,,,,,,,,0,,,68,68
194400,note_on,0,0,1,,,,,,,,,0,,,75,68
194400,note_on,0,0,2,,,,,,,,,0,,,56,64
196560,end_of_track,0,1,1,,,,,,,,,,,,,
196560,note_on,0,0,1,,,,,,,,,0,,,68,0
196560,note_on,2160,0,1,,,,,,,,,0,,,75,0
196560,end_of_track,0,1,2,,,,,,,,,,,,,
196560,note_on,0,0,2,,,,,,,,,0,,,60,0
196560,note_on,0,0,2,,,,,,,,,0,,,63,0
196560,note_on,2160,0,2,,,,,,,,,0,,,56,0
196560,note_on,0,0,1,,,,,,,,,0,,,80,0
196584,set_tempo,2304,1,0,,,,,,1212121,,,,,,,
196584,end_of_track,0,1,0,,,,,,,,,,,,,
