tick,type,time,meta,track,numerator,denominator,clocks_per_click,notated_32nd_notes_per_beat,key,tempo,port,program,channel,control,value,note,velocity
0,track_name,0,1,0,,,,,,,,,,,,,
0,program_change,0,0,1,,,,,,,,0,0,,,,
0,control_change,0,0,1,,,,,,,,,0,7,100,,
0,control_change,0,0,1,,,,,,,,,0,10,64,,
0,control_change,0,0,1,,,,,,,,,0,91,127,,
0,text,0,1,1,,,,,,,,,,,,,
0,midi_port,0,1,8,,,,,,,0,,,,,,
0,midi_port,0,1,2,,,,,,,0,,,,,,
0,track_name,0,1,2,,,,,,,,,,,,,
0,program_change,0,0,2,,,,,,,,0,0,,,,
0,control_change,0,0,2,,,,,,,,,0,7,100,,
0,control_change,0,0,2,,,,,,,,,0,10,64,,
0,control_change,0,0,2,,,,,,,,,0,91,127,,
0,control_change,0,0,2,,,,,,,,,0,64,0,,
0,note_on,0,0,2,,,,,,,,,0,,,53,34
0,midi_port,0,1,3,,,,,,,0,,,,,,
0,track_name,0,1,3,,,,,,,,,,,,,
0,end_of_track,0,1,3,,,,,,,,,,,,,
0,midi_port,0,1,4,,,,,,,0,,,,,,
0,track_name,0,1,4,,,,,,,,,,,,,
0,end_of_track,0,1,4,,,,,,,,,,,,,
0,midi_port,0,1,5,,,,,,,0,,,,,,
0,track_name,0,1,5,,,,,,,,,,,,,
0,end_of_track,0,1,5,,,,,,,,,,,,,
0,midi_port,0,1,6,,,,,,,0,,,,,,
0,track_name,0,1,6,,,,,,,,,,,,,
0,end_of_track,0,1,6,,,,,,,,,,,,,
0,midi_port,0,1,7,,,,,,,0,,,,,,
0,track_name,0,1,7,,,,,,,,,,,,,
0,end_of_track,0,1,7,,,,,,,,,,,,,
0,track_name,0,1,1,,,,,,,,,,,,,
0,midi_port,0,1,1,,,,,,,0,,,,,,
0,end_of_track,0,1,8,,,,,,,,,,,,,
0,track_name,0,1,0,,,,,,,,,,,,,
0,set_tempo,0,1,0,,,,,,602047,,,,,,,
0,key_signature,0,1,0,,,,,Ab,,,,,,,,
0,time_signature,0,1,0,2,4,24,8,,,,,,,,,
0,text,0,1,0,,,,,,,,,,,,,
0,text,0,1,0,,,,,,,,,,,,,
0,text,0,1,0,,,,,,,,,,,,,
0,text,0,1,0,,,,,,,,,,,,,
0,text,0,1,0,,,,,,,,,,,,,
0,text,0,1,0,,,,,,,,,,,,,
0,text,0,1,0,,,,,,,,,,,,,
0,text,0,1,0,,,,,,,,,,,,,
0,text,0,1,0,,,,,,,,,,,,,
0,copyright,0,1,0,,,,,,,,,,,,,
120,note_on,120,0,2,,,,,,,,,0,,,53,0
240,note_on,120,0,2,,,,,,,,,0,,,65,27
240,set_tempo,240,1,0,,,,,,615322,,,,,,,
240,note_on,0,0,2,,,,,,,,,0,,,60,22
360,note_on,120,0,2,,,,,,,,,0,,,60,0
360,note_on,0,0,2,,,,,,,,,0,,,65,0
480,set_tempo,240,1,0,,,,,,602047,,,,,,,
480,note_on,120,0,2,,,,,,,,,0,,,53,34
600,note_on,120,0,2,,,,,,,,,0,,,53,0
720,set_tempo,240,1,0,,,,,,608581,,,,,,,
720,note_on,0,0,2,,,,,,,,,0,,,60,22
720,note_on,120,0,2,,,,,,,,,0,,,65,27
840,note_on,0,0,2,,,,,,,,,0,,,65,0
840,note_on,120,0,2,,,,,,,,,0,,,60,0
960,note_on,120,0,2,,,,,,,,,0,,,53,34
960,set_tempo,240,1,0,,,,,,595593,,,,,,,
1080,note_on,120,0,2,,,,,,,,,0,,,53,0
1200,note_on,120,0,2,,,,,,,,,0,,,65,27
1200,note_on,0,0,2,,,,,,,,,0,,,60,22
1200,set_tempo,240,1,0,,,,,,605327,,,,,,,
1320,note_on,120,0,2,,,,,,,,,0,,,60,0
1320,note_on,0,0,2,,,,,,,,,0,,,65,0
1440,set_tempo,240,1,0,,,,,,586166,,,,,,,
1440,note_on,120,0,2,,,,,,,,,0,,,53,34
1560,note_on,120,0,2,,,,,,,,,0,,,53,0
1680,note_on,0,0,2,,,,,,,,,0,,,60,20
1680,note_on,120,0,2,,,,,,,,,0,,,65,25
1680,set_tempo,240,1,0,,,,,,595593,,,,,,,
1800,note_on,0,0,2,,,,,,,,,0,,,65,0
1800,note_on,120,0,2,,,,,,,,,0,,,60,0
1860,note_on,1860,0,1,,,,,,,,,0,,,70,48
1920,set_tempo,240,1,0,,,,,,595593,,,,,,,
1920,marker,0,1,0,,,,,,,,,,,,,
1920,note_on,60,0,1,,,,,,,,,0,,,70,0
1920,note_on,0,0,1,,,,,,,,,0,,,68,56
1920,note_on,120,0,2,,,,,,,,,0,,,53,34
2040,note_on,120,0,1,,,,,,,,,0,,,68,0
2040,note_on,120,0,2,,,,,,,,,0,,,53,0
2160,note_on,120,0,1,,,,,,,,,0,,,68,50
2160,set_tempo,240,1,0,,,,,,571157,,,,,,,
2160,note_on,120,0,2,,,,,,,,,0,,,65,27
2160,note_on,0,0,2,,,,,,,,,0,,,60,23
2280,note_on,120,0,2,,,,,,,,,0,,,60,0
2280,note_on,0,0,2,,,,,,,,,0,,,65,0
2280,note_on,120,0,1,,,,,,,,,0,,,68,0
2280,note_on,0,0,1,,,,,,,,,0,,,70,50
2400,note_on,120,0,2,,,,,,,,,0,,,53,34
2400,set_tempo,240,1,0,,,,,,589275,,,,,,,
2400,note_on,0,0,1,,,,,,,,,0,,,68,55
2400,note_on,120,0,1,,,,,,,,,0,,,70,0
2520,note_on,120,0,2,,,,,,,,,0,,,53,0
2520,note_on,120,0,1,,,,,,,,,0,,,68,0
2640,note_on,0,0,2,,,,,,,,,0,,,60,22
2640,note_on,120,0,1,,,,,,,,,0,,,67,52
2640,set_tempo,240,1,0,,,,,,592417,,,,,,,
2640,note_on,120,0,2,,,,,,,,,0,,,64,27
2760,note_on,0,0,1,,,,,,,,,0,,,68,48
2760,note_on,120,0,1,,,,,,,,,0,,,67,0
2760,note_on,0,0,2,,,,,,,,,0,,,64,0
2760,note_on,120,0,2,,,,,,,,,0,,,60,0
2820,note_on,60,0,1,,,,,,,,,0,,,68,0
2820,note_on,0,0,1,,,,,,,,,0,,,70,48
2880,note_on,0,0,1,,,,,,,,,0,,,72,57
2880,set_tempo,240,1,0,,,,,,636470,,,,,,,
2880,note_on,120,0,2,,,,,,,,,0,,,53,37
2880,note_on,60,0,1,,,,,,,,,0,,,70,0
2880,note_on,0,0,1,,,,,,,,,0,,,68,51
3000,note_on,120,0,2,,,,,,,,,0,,,53,0
3120,note_on,0,0,2,,,,,,,,,0,,,60,23
3120,note_on,120,0,2,,,,,,,,,0,,,65,27
3240,note_on,0,0,1,,,,,,,,,0,,,68,0
3240,note_on,0,0,1,,,,,,,,,0,,,68,48
3240,note_on,360,0,1,,,,,,,,,0,,,72,0
3240,note_on,0,0,2,,,,,,,,,0,,,65,0
3240,note_on,120,0,2,,,,,,,,,0,,,60,0
3300,note_on,0,0,1,,,,,,,,,0,,,70,48
3300,note_on,60,0,1,,,,,,,,,0,,,68,0
3360,set_tempo,480,1,0,,,,,,618748,,,,,,,
3360,note_on,0,0,1,,,,,,,,,0,,,72,56
3360,note_on,0,0,1,,,,,,,,,0,,,68,50
3360,note_on,60,0,1,,,,,,,,,0,,,70,0
3360,note_on,120,0,2,,,,,,,,,0,,,53,37
3480,note_on,120,0,2,,,,,,,,,0,,,53,0
3600,note_on,0,0,2,,,,,,,,,0,,,60,24
3600,note_on,120,0,2,,,,,,,,,0,,,65,28
3720,note_on,120,0,2,,,,,,,,,0,,,60,0
3720,note_on,0,0,2,,,,,,,,,0,,,65,0
3780,note_on,420,0,1,,,,,,,,,0,,,72,0
3780,note_on,0,0,1,,,,,,,,,0,,,68,0
3780,note_on,0,0,1,,,,,,,,,0,,,70,48
3840,set_tempo,480,1,0,,,,,,589275,,,,,,,
3840,note_on,60,0,1,,,,,,,,,0,,,70,0
3840,note_on,120,0,2,,,,,,,,,0,,,53,34
3840,note_on,0,0,1,,,,,,,,,0,,,68,56
3960,note_on,120,0,1,,,,,,,,,0,,,68,0
3960,note_on,120,0,2,,,,,,,,,0,,,53,0
4080,set_tempo,240,1,0,,,,,,571157,,,,,,,
4080,note_on,0,0,2,,,,,,,,,0,,,60,24
4080,note_on,120,0,2,,,,,,,,,0,,,65,28
4080,note_on,120,0,1,,,,,,,,,0,,,68,51
4200,note_on,120,0,2,,,,,,,,,0,,,60,0
4200,note_on,0,0,2,,,,,,,,,0,,,65,0
4200,note_on,120,0,1,,,,,,,,,0,,,68,0
4200,note_on,0,0,1,,,,,,,,,0,,,70,51
4320,note_on,120,0,2,,,,,,,,,0,,,53,34
4320,set_tempo,240,1,0,,,,,,589275,,,,,,,
4320,note_on,0,0,1,,,,,,,,,0,,,68,55
4320,note_on,120,0,1,,,,,,,,,0,,,70,0
4440,note_on,120,0,2,,,,,,,,,0,,,53,0
4440,note_on,120,0,1,,,,,,,,,0,,,68,0
4560,note_on,0,0,2,,,,,,,,,0,,,60,24
4560,note_on,120,0,2,,,,,,,,,0,,,64,28
4560,note_on,0,0,1,,,,,,,,,0,,,72,51
4560,note_on,120,0,1,,,,,,,,,0,,,67,45
4560,set_tempo,240,1,0,,,,,,608581,,,,,,,
4680,note_on,0,0,2,,,,,,,,,0,,,64,0
4680,note_on,120,0,2,,,,,,,,,0,,,60,0
4680,note_on,0,0,1,,,,,,,,,0,,,67,0
4680,note_on,120,0,1,,,,,,,,,0,,,72,0
4740,note_on,60,0,1,,,,,,,,,0,,,72,48
4800,note_on,0,0,1,,,,,,,,,0,,,68,54
4800,note_on,60,0,1,,,,,,,,,0,,,72,0
4800,note_on,0,0,1,,,,,,,,,0,,,77,60
4800,note_on,120,0,2,,,,,,,,,0,,,53,38
4800,set_tempo,240,1,0,,,,,,643846,,,,,,,
4920,note_on,120,0,2,,,,,,,,,0,,,53,0
5040,note_on,120,0,2,,,,,,,,,0,,,65,29
5040,note_on,0,0,2,,,,,,,,,0,,,60,25
5160,note_on,120,0,2,,,,,,,,,0,,,60,0
5160,note_on,0,0,2,,,,,,,,,0,,,65,0
5220,note_on,420,0,1,,,,,,,,,0,,,68,0
5220,note_on,0,0,1,,,,,,,,,0,,,72,48
5220,note_on,0,0,1,,,,,,,,,0,,,77,0
5280,note_on,0,0,1,,,,,,,,,0,,,68,52
5280,note_on,60,0,1,,,,,,,,,0,,,72,0
5280,note_on,120,0,2,,,,,,,,,0,,,53,38
5280,note_on,0,0,1,,,,,,,,,0,,,77,58
5400,note_on,120,0,2,,,,,,,,,0,,,53,0
5520,note_on,0,0,2,,,,,,,,,0,,,60,25
5520,note_on,120,0,2,,,,,,,,,0,,,65,29
5640,note_on,0,0,2,,,,,,,,,0,,,65,0
5640,note_on,120,0,2,,,,,,,,,0,,,60,0
5700,note_on,420,0,1,,,,,,,,,0,,,78,43
5760,note_on,0,0,1,,,,,,,,,0,,,77,52
5760,note_on,0,0,1,,,,,,,,,0,,,68,52
5760,note_on,0,0,1,,,,,,,,,0,,,68,0
5760,note_on,60,0,1,,,,,,,,,0,,,78,0
5760,note_on,120,0,2,,,,,,,,,0,,,49,32
5760,note_on,0,0,1,,,,,,,,,0,,,77,0
5880,note_on,120,0,2,,,,,,,,,0,,,49,0
6000,note_on,0,0,1,,,,,,,,,0,,,77,45
6000,note_on,240,0,1,,,,,,,,,0,,,77,0
6000,note_on,0,0,1,,,,,,,,,0,,,68,0
6000,note_on,0,0,1,,,,,,,,,0,,,68,40
6000,note_on,120,0,2,,,,,,,,,0,,,65,27
6000,note_on,0,0,2,,,,,,,,,0,,,61,22
6120,note_on,0,0,1,,,,,,,,,0,,,78,45
6120,note_on,120,0,2,,,,,,,,,0,,,61,0
6120,note_on,0,0,2,,,,,,,,,0,,,65,0
6120,note_on,120,0,1,,,,,,,,,0,,,77,0
6240,note_on,120,0,1,,,,,,,,,0,,,78,0
6240,note_on,0,0,1,,,,,,,,,0,,,68,0
6240,note_on,0,0,1,,,,,,,,,0,,,69,43
6240,note_on,120,0,2,,,,,,,,,0,,,48,32
6240,note_on,0,0,1,,,,,,,,,0,,,77,48
6360,note_on,120,0,2,,,,,,,,,0,,,48,0
6480,note_on,0,0,1,,,,,,,,,0,,,69,40
6480,note_on,0,0,2,,,,,,,,,0,,,63,22
6480,note_on,120,0,2,,,,,,,,,0,,,65,27
6480,note_on,0,0,1,,,,,,,,,0,,,77,45
6480,note_on,0,0,2,,,,,,,,,0,,,60,22
6480,note_on,240,0,1,,,,,,,,,0,,,77,0
6480,note_on,0,0,1,,,,,,,,,0,,,69,0
6600,note_on,120,0,2,,,,,,,,,0,,,60,0
6600,note_on,0,0,2,,,,,,,,,0,,,63,0
6600,note_on,0,0,2,,,,,,,,,0,,,65,0
6720,control_change,120,0,2,,,,,,,,,0,64,127,,
6720,note_on,0,0,1,,,,,,,,,0,,,69,0
6720,note_on,0,0,1,,,,,,,,,0,,,70,43
6720,note_on,0,0,1,,,,,,,,,0,,,77,48
6720,note_on,0,0,2,,,,,,,,,0,,,46,32
6720,set_tempo,1920,1,0,,,,,,658979,,,,,,,
6720,note_on,240,0,1,,,,,,,,,0,,,77,0
6960,note_on,0,0,1,,,,,,,,,0,,,82,43
6960,note_on,240,0,2,,,,,,,,,0,,,46,0
6960,note_on,240,0,1,,,,,,,,,0,,,77,0
6960,note_on,0,0,2,,,,,,,,,0,,,65,25
6960,note_on,0,0,2,,,,,,,,,0,,,58,20
6960,note_on,0,0,2,,,,,,,,,0,,,61,20
6960,set_tempo,240,1,0,,,,,,723240,,,,,,,
7080,note_on,0,0,1,,,,,,,,,0,,,70,0
7080,note_on,120,0,1,,,,,,,,,0,,,82,0
7129,control_change,169,0,2,,,,,,,,,0,64,0,,
7200,note_on,0,0,2,,,,,,,,,0,,,65,0
7200,set_tempo,240,1,0,,,,,,683293,,,,,,,
7200,note_on,0,0,1,,,,,,,,,0,,,77,42
7200,note_on,120,0,1,,,,,,,,,0,,,68,37
7200,note_on,71,0,2,,,,,,,,,0,,,58,0
7200,note_on,0,0,2,,,,,,,,,0,,,61,0
7200,note_on,0,0,2,,,,,,,,,0,,,53,30
7228,control_change,28,0,2,,,,,,,,,0,64,127,,
7440,note_on,0,0,2,,,,,,,,,0,,,60,20
7440,note_on,212,0,2,,,,,,,,,0,,,53,0
7440,note_on,0,0,2,,,,,,,,,0,,,65,25
7616,control_change,176,0,2,,,,,,,,,0,64,0,,
7680,note_on,64,0,2,,,,,,,,,0,,,60,0
7680,set_tempo,480,1,0,,,,,,580046,,,,,,,
7680,note_on,0,0,2,,,,,,,,,0,,,65,0
7680,note_on,0,0,2,,,,,,,,,0,,,48,30
7680,note_on,0,0,1,,,,,,,,,0,,,72,42
7680,note_on,0,0,1,,,,,,,,,0,,,68,37
7680,note_on,480,0,1,,,,,,,,,0,,,77,0
7680,note_on,0,0,1,,,,,,,,,0,,,68,0
7800,note_on,120,0,2,,,,,,,,,0,,,48,0
7800,note_on,0,0,1,,,,,,,,,0,,,70,39
7800,note_on,0,0,1,,,,,,,,,0,,,67,35
7800,note_on,0,0,1,,,,,,,,,0,,,68,0
7800,note_on,120,0,1,,,,,,,,,0,,,72,0
7920,note_on,0,0,2,,,,,,,,,0,,,60,22
7920,note_on,120,0,2,,,,,,,,,0,,,65,27
7920,note_on,0,0,1,,,,,,,,,0,,,65,35
7920,note_on,0,0,1,,,,,,,,,0,,,67,0
7920,note_on,120,0,1,,,,,,,,,0,,,70,0
7920,note_on,0,0,1,,,,,,,,,0,,,68,39
8040,note_on,120,0,2,,,,,,,,,0,,,60,0
8040,note_on,120,0,1,,,,,,,,,0,,,68,0
8040,note_on,0,0,1,,,,,,,,,0,,,65,0
8040,note_on,0,0,2,,,,,,,,,0,,,65,0
8040,note_on,0,0,1,,,,,,,,,0,,,70,39
8040,note_on,0,0,1,,,,,,,,,0,,,67,35
8160,note_on,0,0,1,,,,,,,,,0,,,72,42
8160,set_tempo,480,1,0,,,,,,589275,,,,,,,
8160,note_on,0,0,1,,,,,,,,,0,,,68,37
8160,note_on,120,0,2,,,,,,,,,0,,,48,29
8160,note_on,120,0,1,,,,,,,,,0,,,70,0
8160,note_on,0,0,1,,,,,,,,,0,,,67,0
8240,set_tempo,80,1,0,,,,,,592417,,,,,,,
8280,note_on,120,0,1,,,,,,,,,0,,,72,0
8280,note_on,120,0,2,,,,,,,,,0,,,48,0
8280,note_on,0,0,1,,,,,,,,,0,,,73,39
8320,set_tempo,80,1,0,,,,,,595593,,,,,,,
8380,set_tempo,60,1,0,,,,,,598802,,,,,,,
8400,note_on,0,0,1,,,,,,,,,0,,,68,0
8400,note_on,0,0,1,,,,,,,,,0,,,67,35
8400,note_on,0,0,1,,,,,,,,,0,,,72,39
8400,note_on,0,0,1,,,,,,,,,0,,,70,39
8400,note_on,120,0,1,,,,,,,,,0,,,73,0
8400,note_on,0,0,2,,,,,,,,,0,,,60,20
8400,note_on,120,0,2,,,,,,,,,0,,,64,25
8460,set_tempo,80,1,0,,,,,,602047,,,,,,,
8520,note_on,120,0,2,,,,,,,,,0,,,60,0
8520,note_on,0,0,1,,,,,,,,,0,,,76,39
8520,note_on,120,0,1,,,,,,,,,0,,,72,0
8520,note_on,0,0,2,,,,,,,,,0,,,64,0
8540,set_tempo,80,1,0,,,,,,605327,,,,,,,
8600,set_tempo,60,1,0,,,,,,608581,,,,,,,
8620,set_tempo,20,1,0,,,,,,592417,,,,,,,
8640,note_on,0,0,1,,,,,,,,,0,,,68,38
8640,note_on,0,0,1,,,,,,,,,0,,,72,38
8640,note_on,0,0,1,,,,,,,,,0,,,77,43
8640,note_on,0,0,1,,,,,,,,,0,,,70,0
8640,note_on,0,0,1,,,,,,,,,0,,,67,0
8640,note_on,120,0,1,,,,,,,,,0,,,76,0
8640,note_on,120,0,2,,,,,,,,,0,,,53,32
8640,set_tempo,20,1,0,,,,,,636470,,,,,,,
8760,note_on,120,0,2,,,,,,,,,0,,,53,0
8880,note_on,0,0,2,,,,,,,,,0,,,60,22
8880,note_on,120,0,2,,,,,,,,,0,,,65,27
9000,note_on,120,0,2,,,,,,,,,0,,,60,0
9000,note_on,0,0,2,,,,,,,,,0,,,65,0
9120,note_on,0,0,1,,,,,,,,,0,,,77,43
9120,note_on,0,0,1,,,,,,,,,0,,,72,38
9120,note_on,0,0,1,,,,,,,,,0,,,68,38
9120,note_on,0,0,1,,,,,,,,,0,,,77,0
9120,note_on,0,0,1,,,,,,,,,0,,,72,0
9120,note_on,480,0,1,,,,,,,,,0,,,68,0
9120,note_on,120,0,2,,,,,,,,,0,,,53,29
9120,set_tempo,480,1,0,,,,,,658979,,,,,,,
9240,note_on,120,0,2,,,,,,,,,0,,,53,0
9360,note_on,0,0,2,,,,,,,,,0,,,60,23
9360,note_on,120,0,2,,,,,,,,,0,,,65,27
9480,note_on,0,0,2,,,,,,,,,0,,,65,0
9480,set_tempo,360,1,0,,,,,,598802,,,,,,,
9480,note_on,120,0,2,,,,,,,,,0,,,60,0
9520,note_on,400,0,1,,,,,,,,,0,,,77,0
9520,note_on,0,0,1,,,,,,,,,0,,,72,0
9520,note_on,0,0,1,,,,,,,,,0,,,68,0
9540,note_on,20,0,1,,,,,,,,,0,,,70,48
9600,note_on,120,0,2,,,,,,,,,0,,,53,34
9600,set_tempo,120,1,0,,,,,,595593,,,,,,,
9600,marker,0,1,0,,,,,,,,,,,,,
9600,note_on,60,0,1,,,,,,,,,0,,,70,0
9600,note_on,0,0,1,,,,,,,,,0,,,68,56
9720,note_on,120,0,2,,,,,,,,,0,,,53,0
9720,note_on,120,0,1,,,,,,,,,0,,,68,0
9840,note_on,120,0,1,,,,,,,,,0,,,68,50
9840,note_on,120,0,2,,,,,,,,,0,,,65,27
9840,note_on,0,0,2,,,,,,,,,0,,,60,23
9840,set_tempo,240,1,0,,,,,,571157,,,,,,,
9960,note_on,120,0,2,,,,,,,,,0,,,60,0
9960,note_on,0,0,2,,,,,,,,,0,,,65,0
9960,note_on,0,0,1,,,,,,,,,0,,,70,50
9960,note_on,120,0,1,,,,,,,,,0,,,68,0
10080,note_on,120,0,2,,,,,,,,,0,,,53,34
10080,set_tempo,240,1,0,,,,,,589275,,,,,,,
10080,note_on,120,0,1,,,,,,,,,0,,,70,0
10080,note_on,0,0,1,,,,,,,,,0,,,68,55
10200,note_on,120,0,1,,,,,,,,,0,,,68,0
10200,note_on,120,0,2,,,,,,,,,0,,,53,0
10320,note_on,120,0,1,,,,,,,,,0,,,67,52
10320,set_tempo,240,1,0,,,,,,608581,,,,,,,
10320,note_on,0,0,2,,,,,,,,,0,,,60,22
10320,note_on,120,0,2,,,,,,,,,0,,,64,27
10440,note_on,0,0,2,,,,,,,,,0,,,64,0
10440,note_on,120,0,1,,,,,,,,,0,,,67,0
10440,note_on,120,0,2,,,,,,,,,0,,,60,0
10440,note_on,0,0,1,,,,,,,,,0,,,68,48
10500,note_on,60,0,1,,,,,,,,,0,,,68,0
10500,note_on,0,0,1,,,,,,,,,0,,,70,48
10560,note_on,60,0,1,,,,,,,,,0,,,70,0
10560,set_tempo,240,1,0,,,,,,640137,,,,,,,
10560,note_on,0,0,1,,,,,,,,,0,,,68,51
10560,note_on,0,0,1,,,,,,,,,0,,,72,57
10560,note_on,120,0,2,,,,,,,,,0,,,53,36
10680,note_on,120,0,2,,,,,,,,,0,,,53,0
10800,note_on,0,0,2,,,,,,,,,0,,,60,25
10800,note_on,120,0,2,,,,,,,,,0,,,65,29
10920,note_on,120,0,2,,,,,,,,,0,,,60,0
10920,note_on,360,0,1,,,,,,,,,0,,,72,0
10920,note_on,0,0,1,,,,,,,,,0,,,68,0
10920,note_on,0,0,2,,,,,,,,,0,,,65,0
10920,note_on,0,0,1,,,,,,,,,0,,,68,48
10980,note_on,60,0,1,,,,,,,,,0,,,68,0
10980,note_on,0,0,1,,,,,,,,,0,,,70,48
11040,note_on,0,0,1,,,,,,,,,0,,,72,57
11040,set_tempo,480,1,0,,,,,,618748,,,,,,,
11040,note_on,120,0,2,,,,,,,,,0,,,53,32
11040,note_on,60,0,1,,,,,,,,,0,,,70,0
11040,note_on,0,0,1,,,,,,,,,0,,,68,51
11160,note_on,120,0,2,,,,,,,,,0,,,53,0
11280,note_on,120,0,2,,,,,,,,,0,,,65,28
11280,note_on,0,0,2,,,,,,,,,0,,,60,24
11400,note_on,120,0,2,,,,,,,,,0,,,60,0
11400,note_on,0,0,2,,,,,,,,,0,,,65,0
11460,note_on,420,0,1,,,,,,,,,0,,,72,0
11460,note_on,0,0,1,,,,,,,,,0,,,70,48
11460,note_on,0,0,1,,,,,,,,,0,,,68,0
11520,note_on,120,0,2,,,,,,,,,0,,,53,34
11520,note_on,60,0,1,,,,,,,,,0,,,70,0
11520,note_on,0,0,1,,,,,,,,,0,,,68,56
11520,set_tempo,480,1,0,,,,,,589275,,,,,,,
11640,note_on,120,0,2,,,,,,,,,0,,,53,0
11640,note_on,120,0,1,,,,,,,,,0,,,68,0
11760,note_on,120,0,2,,,,,,,,,0,,,65,28
11760,note_on,0,0,2,,,,,,,,,0,,,60,24
11760,note_on,120,0,1,,,,,,,,,0,,,68,51
11760,set_tempo,240,1,0,,,,,,571157,,,,,,,
11880,note_on,120,0,1,,,,,,,,,0,,,68,0
11880,note_on,0,0,2,,,,,,,,,0,,,65,0
11880,note_on,120,0,2,,,,,,,,,0,,,60,0
11880,note_on,0,0,1,,,,,,,,,0,,,70,51
12000,set_tempo,240,1,0,,,,,,589275,,,,,,,
12000,note_on,120,0,2,,,,,,,,,0,,,53,32
12000,note_on,120,0,1,,,,,,,,,0,,,70,0
12000,note_on,0,0,1,,,,,,,,,0,,,68,55
12120,note_on,120,0,1,,,,,,,,,0,,,68,0
12120,note_on,120,0,2,,,,,,,,,0,,,53,0
12240,note_on,120,0,2,,,,,,,,,0,,,64,28
12240,note_on,120,0,1,,,,,,,,,0,,,67,45
12240,note_on,0,0,1,,,,,,,,,0,,,72,51
12240,note_on,0,0,2,,,,,,,,,0,,,60,24
12240,set_tempo,240,1,0,,,,,,608581,,,,,,,
12360,note_on,0,0,2,,,,,,,,,0,,,64,0
12360,note_on,120,0,1,,,,,,,,,0,,,72,0
12360,note_on,0,0,1,,,,,,,,,0,,,67,0
12360,note_on,120,0,2,,,,,,,,,0,,,60,0
12420,note_on,60,0,1,,,,,,,,,0,,,72,48
12480,set_tempo,240,1,0,,,,,,643846,,,,,,,
12480,note_on,60,0,1,,,,,,,,,0,,,72,0
12480,note_on,0,0,1,,,,,,,,,0,,,77,60
12480,note_on,0,0,1,,,,,,,,,0,,,68,54
12480,note_on,120,0,2,,,,,,,,,0,,,53,38
12600,note_on,120,0,2,,,,,,,,,0,,,53,0
12720,note_on,0,0,2,,,,,,,,,0,,,60,25
12720,note_on,120,0,2,,,,,,,,,0,,,65,29
12840,note_on,120,0,2,,,,,,,,,0,,,60,0
12840,note_on,0,0,2,,,,,,,,,0,,,65,0
12900,note_on,0,0,1,,,,,,,,,0,,,72,48
12900,note_on,0,0,1,,,,,,,,,0,,,77,0
12900,note_on,420,0,1,,,,,,,,,0,,,68,0
12960,note_on,0,0,1,,,,,,,,,0,,,68,52
12960,note_on,0,0,1,,,,,,,,,0,,,77,58
12960,note_on,120,0,2,,,,,,,,,0,,,53,38
12960,note_on,60,0,1,,,,,,,,,0,,,72,0
13080,note_on,120,0,2,,,,,,,,,0,,,53,0
13200,note_on,120,0,2,,,,,,,,,0,,,65,29
13200,note_on,0,0,2,,,,,,,,,0,,,60,25
13320,note_on,120,0,2,,,,,,,,,0,,,60,0
13320,note_on,0,0,2,,,,,,,,,0,,,65,0
13380,note_on,420,0,1,,,,,,,,,0,,,78,43
13440,note_on,120,0,2,,,,,,,,,0,,,49,32
13440,note_on,0,0,1,,,,,,,,,0,,,77,0
13440,note_on,0,0,1,,,,,,,,,0,,,68,0
13440,note_on,0,0,1,,,,,,,,,0,,,68,46
13440,note_on,60,0,1,,,,,,,,,0,,,78,0
13440,note_on,0,0,1,,,,,,,,,0,,,77,52
13560,note_on,120,0,2,,,,,,,,,0,,,49,0
13680,note_on,0,0,1,,,,,,,,,0,,,68,0
13680,note_on,0,0,2,,,,,,,,,0,,,61,22
13680,note_on,0,0,1,,,,,,,,,0,,,68,40
13680,note_on,0,0,1,,,,,,,,,0,,,77,45
13680,note_on,240,0,1,,,,,,,,,0,,,77,0
13680,note_on,120,0,2,,,,,,,,,0,,,65,27
13800,note_on,120,0,2,,,,,,,,,0,,,61,0
13800,note_on,0,0,2,,,,,,,,,0,,,65,0
13800,note_on,0,0,1,,,,,,,,,0,,,78,45
13800,note_on,120,0,1,,,,,,,,,0,,,77,0
13920,note_on,120,0,2,,,,,,,,,0,,,48,32
13920,note_on,0,0,1,,,,,,,,,0,,,77,48
13920,note_on,120,0,1,,,,,,,,,0,,,78,0
13920,note_on,0,0,1,,,,,,,,,0,,,68,0
13920,note_on,0,0,1,,,,,,,,,0,,,69,43
14040,note_on,120,0,2,,,,,,,,,0,,,48,0
14160,note_on,120,0,2,,,,,,,,,0,,,65,27
14160,note_on,240,0,1,,,,,,,,,0,,,77,0
14160,note_on,0,0,1,,,,,,,,,0,,,69,0
14160,note_on,0,0,1,,,,,,,,,0,,,69,40
14160,note_on,0,0,1,,,,,,,,,0,,,77,45
14160,note_on,0,0,2,,,,,,,,,0,,,60,22
14160,note_on,0,0,2,,,,,,,,,0,,,63,22
14280,note_on,0,0,2,,,,,,,,,0,,,65,0
14280,note_on,0,0,2,,,,,,,,,0,,,63,0
14280,note_on,120,0,2,,,,,,,,,0,,,60,0
14400,set_tempo,1920,1,0,,,,,,696136,,,,,,,
14400,note_on,240,0,1,,,,,,,,,0,,,77,0
14400,note_on,0,0,1,,,,,,,,,0,,,70,43
14400,note_on,0,0,1,,,,,,,,,0,,,77,48
14400,note_on,0,0,1,,,,,,,,,0,,,69,0
14400,note_on,120,0,2,,,,,,,,,0,,,46,32
14407,control_change,7,0,2,,,,,,,,,0,64,127,,
14640,note_on,0,0,1,,,,,,,,,0,,,82,43
14640,note_on,240,0,1,,,,,,,,,0,,,77,0
14640,set_tempo,240,1,0,,,,,,819001,,,,,,,
14640,note_on,0,0,2,,,,,,,,,0,,,58,20
14640,note_on,0,0,2,,,,,,,,,0,,,61,20
14640,note_on,0,0,2,,,,,,,,,0,,,65,25
14640,note_on,233,0,2,,,,,,,,,0,,,46,0
14746,control_change,106,0,2,,,,,,,,,0,64,0,,
14760,note_on,0,0,1,,,,,,,,,0,,,70,0
14760,note_on,120,0,1,,,,,,,,,0,,,82,0
14880,note_on,0,0,2,,,,,,,,,0,,,53,29
14880,note_on,134,0,2,,,,,,,,,0,,,58,0
14880,note_on,120,0,1,,,,,,,,,0,,,68,37
14880,note_on,0,0,2,,,,,,,,,0,,,61,0
14880,set_tempo,240,1,0,,,,,,768147,,,,,,,
14880,note_on,0,0,2,,,,,,,,,0,,,65,0
14880,note_on,0,0,1,,,,,,,,,0,,,77,42
14901,control_change,21,0,2,,,,,,,,,0,64,127,,
15120,note_on,0,0,2,,,,,,,,,0,,,60,20
15120,note_on,0,0,2,,,,,,,,,0,,,65,25
15120,note_on,219,0,2,,,,,,,,,0,,,53,0
15296,control_change,176,0,2,,,,,,,,,0,64,0,,
15360,note_on,0,0,2,,,,,,,,,0,,,65,0
15360,note_on,0,0,2,,,,,,,,,0,,,48,30
15360,note_on,0,0,1,,,,,,,,,0,,,72,42
15360,note_on,0,0,1,,,,,,,,,0,,,68,37
15360,note_on,0,0,1,,,,,,,,,0,,,68,0
15360,note_on,480,0,1,,,,,,,,,0,,,77,0
15360,set_tempo,480,1,0,,,,,,580046,,,,,,,
15360,note_on,64,0,2,,,,,,,,,0,,,60,0
15480,note_on,120,0,2,,,,,,,,,0,,,48,0
15480,note_on,0,0,1,,,,,,,,,0,,,70,39
15480,note_on,0,0,1,,,,,,,,,0,,,67,35
15480,note_on,120,0,1,,,,,,,,,0,,,72,0
15480,note_on,0,0,1,,,,,,,,,0,,,68,0
15600,note_on,0,0,1,,,,,,,,,0,,,68,39
15600,note_on,120,0,2,,,,,,,,,0,,,65,27
15600,note_on,0,0,1,,,,,,,,,0,,,65,35
15600,note_on,0,0,1,,,,,,,,,0,,,67,0
15600,note_on,120,0,1,,,,,,,,,0,,,70,0
15600,note_on,0,0,2,,,,,,,,,0,,,60,22
15720,note_on,0,0,1,,,,,,,,,0,,,70,39
15720,note_on,0,0,1,,,,,,,,,0,,,67,35
15720,note_on,0,0,1,,,,,,,,,0,,,65,0
15720,note_on,120,0,2,,,,,,,,,0,,,60,0
15720,note_on,0,0,2,,,,,,,,,0,,,65,0
15720,note_on,120,0,1,,,,,,,,,0,,,68,0
15840,note_on,120,0,2,,,,,,,,,0,,,48,29
15840,note_on,120,0,1,,,,,,,,,0,,,70,0
15840,note_on,0,0,1,,,,,,,,,0,,,67,0
15840,note_on,0,0,1,,,,,,,,,0,,,68,42
15840,note_on,0,0,1,,,,,,,,,0,,,72,42
15840,set_tempo,480,1,0,,,,,,589275,,,,,,,
15920,set_tempo,80,1,0,,,,,,592417,,,,,,,
15960,note_on,120,0,1,,,,,,,,,0,,,72,0
15960,note_on,120,0,2,,,,,,,,,0,,,48,0
15960,note_on,0,0,1,,,,,,,,,0,,,73,39
16000,set_tempo,80,1,0,,,,,,595593,,,,,,,
16060,set_tempo,60,1,0,,,,,,598802,,,,,,,
16080,note_on,0,0,1,,,,,,,,,0,,,72,39
16080,note_on,0,0,1,,,,,,,,,0,,,70,39
16080,note_on,0,0,1,,,,,,,,,0,,,67,35
16080,note_on,0,0,2,,,,,,,,,0,,,60,20
16080,note_on,120,0,2,,,,,,,,,0,,,64,25
16080,note_on,120,0,1,,,,,,,,,0,,,73,0
16080,note_on,0,0,1,,,,,,,,,0,,,68,0
16140,set_tempo,80,1,0,,,,,,602047,,,,,,,
16200,note_on,0,0,1,,,,,,,,,0,,,76,39
16200,note_on,0,0,2,,,,,,,,,0,,,64,0
16200,note_on,120,0,2,,,,,,,,,0,,,60,0
16200,note_on,120,0,1,,,,,,,,,0,,,72,0
16220,set_tempo,80,1,0,,,,,,605327,,,,,,,
16280,set_tempo,60,1,0,,,,,,608581,,,,,,,
16300,set_tempo,20,1,0,,,,,,592417,,,,,,,
16320,note_on,120,0,1,,,,,,,,,0,,,76,0
16320,set_tempo,20,1,0,,,,,,674992,,,,,,,
16320,note_on,120,0,2,,,,,,,,,0,,,53,32
16320,note_on,0,0,1,,,,,,,,,0,,,68,38
16320,note_on,0,0,1,,,,,,,,,0,,,70,0
16320,note_on,0,0,1,,,,,,,,,0,,,67,0
16320,note_on,0,0,1,,,,,,,,,0,,,77,43
16320,note_on,0,0,1,,,,,,,,,0,,,72,38
16362,control_change,42,0,2,,,,,,,,,0,64,127,,
16560,note_on,198,0,2,,,,,,,,,0,,,53,0
16560,note_on,0,0,2,,,,,,,,,0,,,65,27
16560,note_on,0,0,2,,,,,,,,,0,,,60,22
16715,control_change,155,0,2,,,,,,,,,0,64,0,,
16800,note_on,480,0,1,,,,,,,,,0,,,68,0
16800,control_change,0,0,2,,,,,,,,,0,64,127,,
16800,note_on,0,0,2,,,,,,,,,0,,,53,29
16800,note_on,85,0,2,,,,,,,,,0,,,60,0
16800,note_on,0,0,1,,,,,,,,,0,,,77,43
16800,note_on,0,0,1,,,,,,,,,0,,,72,38
16800,note_on,0,0,1,,,,,,,,,0,,,68,38
16800,note_on,0,0,1,,,,,,,,,0,,,77,0
16800,note_on,0,0,1,,,,,,,,,0,,,72,0
16800,note_on,0,0,2,,,,,,,,,0,,,65,0
17040,note_on,240,0,2,,,,,,,,,0,,,53,0
17040,note_on,0,0,2,,,,,,,,,0,,,60,23
17040,note_on,0,0,2,,,,,,,,,0,,,65,27
17082,control_change,42,0,2,,,,,,,,,0,64,0,,
17280,note_on,198,0,2,,,,,,,,,0,,,60,0
17280,note_on,0,0,2,,,,,,,,,0,,,65,0
17280,note_on,0,0,2,,,,,,,,,0,,,56,30
17280,note_on,0,0,1,,,,,,,,,0,,,72,57
17280,marker,0,1,0,,,,,,,,,,,,,
17280,set_tempo,960,1,0,,,,,,666889,,,,,,,
17280,note_on,0,0,1,,,,,,,,,0,,,68,0
17280,note_on,480,0,1,,,,,,,,,0,,,77,0
17280,note_on,0,0,1,,,,,,,,,0,,,72,0
17400,note_on,120,0,2,,,,,,,,,0,,,56,0
17520,note_on,0,0,2,,,,,,,,,0,,,68,27
17520,note_on,0,0,2,,,,,,,,,0,,,63,23
17520,note_on,120,0,2,,,,,,,,,0,,,60,23
17640,note_on,0,0,2,,,,,,,,,0,,,60,0
17640,note_on,120,0,2,,,,,,,,,0,,,68,0
17640,note_on,0,0,2,,,,,,,,,0,,,63,0
17760,note_on,120,0,2,,,,,,,,,0,,,56,29
17760,note_on,0,0,1,,,,,,,,,0,,,72,57
17760,note_on,480,0,1,,,,,,,,,0,,,72,0
17880,note_on,120,0,2,,,,,,,,,0,,,56,0
18000,note_on,0,0,2,,,,,,,,,0,,,68,27
18000,note_on,120,0,2,,,,,,,,,0,,,60,23
18000,note_on,0,0,2,,,,,,,,,0,,,63,23
18120,note_on,0,0,2,,,,,,,,,0,,,63,0
18120,note_on,0,0,2,,,,,,,,,0,,,60,0
18120,note_on,120,0,2,,,,,,,,,0,,,68,0
18240,note_on,120,0,2,,,,,,,,,0,,,56,32
18240,note_on,480,0,1,,,,,,,,,0,,,72,0
18240,note_on,0,0,1,,,,,,,,,0,,,72,50
18240,set_tempo,960,1,0,,,,,,602047,,,,,,,
18360,note_on,120,0,2,,,,,,,,,0,,,56,0
18360,note_on,120,0,1,,,,,,,,,0,,,72,0
18360,note_on,0,0,1,,,,,,,,,0,,,73,51
18480,note_on,0,0,2,,,,,,,,,0,,,58,23
18480,note_on,0,0,2,,,,,,,,,0,,,63,23
18480,note_on,120,0,2,,,,,,,,,0,,,67,27
18480,note_on,0,0,1,,,,,,,,,0,,,75,55
18480,note_on,120,0,1,,,,,,,,,0,,,73,0
18600,note_on,0,0,2,,,,,,,,,0,,,63,0
18600,note_on,0,0,1,,,,,,,,,0,,,73,52
18600,note_on,120,0,2,,,,,,,,,0,,,58,0
18600,note_on,120,0,1,,,,,,,,,0,,,75,0
18600,note_on,0,0,2,,,,,,,,,0,,,67,0
18720,note_on,0,0,1,,,,,,,,,0,,,73,52
18720,note_on,120,0,1,,,,,,,,,0,,,73,0
18720,note_on,120,0,2,,,,,,,,,0,,,56,28
18840,note_on,120,0,2,,,,,,,,,0,,,56,0
18960,note_on,0,0,2,,,,,,,,,0,,,58,22
18960,note_on,120,0,2,,,,,,,,,0,,,67,27
18960,note_on,0,0,2,,,,,,,,,0,,,63,22
19080,note_on,120,0,2,,,,,,,,,0,,,58,0
19080,note_on,0,0,2,,,,,,,,,0,,,63,0
19080,note_on,0,0,1,,,,,,,,,0,,,72,49
19080,note_on,360,0,1,,,,,,,,,0,,,73,0
19080,note_on,0,0,2,,,,,,,,,0,,,67,0
19140,note_on,60,0,1,,,,,,,,,0,,,72,0
19140,set_tempo,900,1,0,,,,,,611933,,,,,,,
19170,note_on,30,0,1,,,,,,,,,0,,,72,43
19200,note_on,120,0,2,,,,,,,,,0,,,56,29
19200,note_on,30,0,1,,,,,,,,,0,,,72,0
19200,note_on,0,0,1,,,,,,,,,0,,,70,52
19320,note_on,120,0,2,,,,,,,,,0,,,56,0
19440,note_on,0,0,2,,,,,,,,,0,,,61,22
19440,note_on,0,0,2,,,,,,,,,0,,,63,22
19440,note_on,120,0,2,,,,,,,,,0,,,67,27
19440,note_on,240,0,1,,,,,,,,,0,,,70,0
19440,note_on,0,0,1,,,,,,,,,0,,,70,48
19560,note_on,0,0,2,,,,,,,,,0,,,67,0
19560,note_on,0,0,2,,,,,,,,,0,,,63,0
19560,note_on,120,0,2,,,,,,,,,0,,,61,0
19680,note_on,120,0,2,,,,,,,,,0,,,56,29
19680,note_on,0,0,1,,,,,,,,,0,,,72,51
19680,note_on,240,0,1,,,,,,,,,0,,,70,0
19680,set_tempo,540,1,0,,,,,,589275,,,,,,,
19800,note_on,120,0,1,,,,,,,,,0,,,72,0
19800,note_on,0,0,1,,,,,,,,,0,,,70,49
19800,note_on,120,0,2,,,,,,,,,0,,,56,0
19920,note_on,0,0,1,,,,,,,,,0,,,68,46
19920,note_on,120,0,1,,,,,,,,,0,,,70,0
19920,note_on,0,0,2,,,,,,,,,0,,,63,22
19920,note_on,120,0,2,,,,,,,,,0,,,67,27
19920,note_on,0,0,2,,,,,,,,,0,,,61,22
20040,note_on,0,0,1,,,,,,,,,0,,,70,50
20040,note_on,120,0,2,,,,,,,,,0,,,61,0
20040,set_tempo,360,1,0,,,,,,625717,,,,,,,
20040,note_on,0,0,2,,,,,,,,,0,,,63,0
20040,note_on,0,0,2,,,,,,,,,0,,,67,0
20040,note_on,120,0,1,,,,,,,,,0,,,68,0
20160,note_on,120,0,2,,,,,,,,,0,,,56,32
20160,set_tempo,120,1,0,,,,,,608581,,,,,,,
20160,note_on,0,0,1,,,,,,,,,0,,,70,54
20160,note_on,120,0,1,,,,,,,,,0,,,70,0
20280,note_on,120,0,2,,,,,,,,,0,,,56,0
20400,note_on,0,0,2,,,,,,,,,0,,,63,23
20400,note_on,0,0,2,,,,,,,,,0,,,60,23
20400,note_on,120,0,2,,,,,,,,,0,,,68,27
20520,note_on,120,0,2,,,,,,,,,0,,,60,0
20520,note_on,0,0,2,,,,,,,,,0,,,63,0
20520,note_on,0,0,2,,,,,,,,,0,,,68,0
20640,note_on,0,0,1,,,,,,,,,0,,,72,54
20640,set_tempo,480,1,0,,,,,,595593,,,,,,,
20640,note_on,120,0,2,,,,,,,,,0,,,56,29
20640,note_on,480,0,1,,,,,,,,,0,,,70,0
20760,note_on,120,0,2,,,,,,,,,0,,,56,0
20880,note_on,120,0,2,,,,,,,,,0,,,68,27
20880,note_on,0,0,2,,,,,,,,,0,,,63,23
20880,note_on,0,0,2,,,,,,,,,0,,,60,23
21000,note_on,120,0,2,,,,,,,,,0,,,60,0
21000,note_on,0,0,2,,,,,,,,,0,,,63,0
21000,note_on,0,0,2,,,,,,,,,0,,,68,0
21060,note_on,420,0,1,,,,,,,,,0,,,72,0
21060,note_on,0,0,1,,,,,,,,,0,,,75,46
21120,note_on,120,0,2,,,,,,,,,0,,,56,34
21120,note_on,60,0,1,,,,,,,,,0,,,75,0
21120,note_on,0,0,1,,,,,,,,,0,,,72,51
21120,note_on,0,0,1,,,,,,,,,0,,,80,57
21120,set_tempo,480,1,0,,,,,,666889,,,,,,,
21127,control_change,7,0,2,,,,,,,,,0,64,127,,
21360,note_on,0,0,2,,,,,,,,,0,,,63,24
21360,note_on,0,0,2,,,,,,,,,0,,,68,28
21360,note_on,233,0,2,,,,,,,,,0,,,56,0
21360,note_on,0,0,2,,,,,,,,,0,,,60,24
21491,control_change,131,0,2,,,,,,,,,0,64,0,,
21540,note_on,0,0,1,,,,,,,,,0,,,75,45
21540,note_on,0,0,1,,,,,,,,,0,,,80,0
21540,note_on,420,0,1,,,,,,,,,0,,,72,0
21600,note_on,60,0,1,,,,,,,,,0,,,75,0
21600,note_on,0,0,1,,,,,,,,,0,,,72,56
21600,control_change,0,0,2,,,,,,,,,0,64,127,,
21600,note_on,0,0,1,,,,,,,,,0,,,80,56
21600,note_on,0,0,2,,,,,,,,,0,,,56,32
21600,note_on,0,0,2,,,,,,,,,0,,,68,0
21600,note_on,0,0,2,,,,,,,,,0,,,60,0
21600,note_on,109,0,2,,,,,,,,,0,,,63,0
21840,note_on,0,0,2,,,,,,,,,0,,,60,25
21840,note_on,0,0,2,,,,,,,,,0,,,63,25
21840,note_on,0,0,2,,,,,,,,,0,,,68,29
21840,note_on,240,0,2,,,,,,,,,0,,,56,0
22027,control_change,187,0,2,,,,,,,,,0,64,0,,
22080,note_on,480,0,1,,,,,,,,,0,,,80,0
22080,note_on,0,0,1,,,,,,,,,0,,,72,0
22080,note_on,0,0,1,,,,,,,,,0,,,75,45
22080,note_on,0,0,2,,,,,,,,,0,,,49,29
22080,note_on,53,0,2,,,,,,,,,0,,,60,0
22080,note_on,0,0,2,,,,,,,,,0,,,63,0
22080,note_on,0,0,2,,,,,,,,,0,,,68,0
22080,note_on,0,0,1,,,,,,,,,0,,,79,50
22080,set_tempo,960,1,0,,,,,,608581,,,,,,,
22200,note_on,120,0,1,,,,,,,,,0,,,79,0
22200,note_on,0,0,1,,,,,,,,,0,,,73,45
22200,note_on,120,0,2,,,,,,,,,0,,,49,0
22200,note_on,0,0,1,,,,,,,,,0,,,75,0
22200,note_on,0,0,1,,,,,,,,,0,,,77,50
22320,note_on,0,0,1,,,,,,,,,0,,,73,0
22320,note_on,0,0,1,,,,,,,,,0,,,72,40
22320,note_on,0,0,1,,,,,,,,,0,,,76,45
22320,note_on,0,0,2,,,,,,,,,0,,,61,23
22320,note_on,120,0,2,,,,,,,,,0,,,65,27
22320,note_on,120,0,1,,,,,,,,,0,,,77,0
22440,note_on,120,0,1,,,,,,,,,0,,,76,0
22440,note_on,0,0,1,,,,,,,,,0,,,72,0
22440,note_on,0,0,1,,,,,,,,,0,,,77,45
22440,note_on,0,0,2,,,,,,,,,0,,,65,0
22440,note_on,120,0,2,,,,,,,,,0,,,61,0
22440,note_on,0,0,1,,,,,,,,,0,,,73,40
22560,note_on,120,0,2,,,,,,,,,0,,,49,30
22560,note_on,120,0,1,,,,,,,,,0,,,77,0
22560,note_on,0,0,1,,,,,,,,,0,,,77,50
22560,note_on,0,0,1,,,,,,,,,0,,,73,0
22560,note_on,0,0,1,,,,,,,,,0,,,73,45
22680,note_on,120,0,2,,,,,,,,,0,,,49,0
22800,note_on,0,0,2,,,,,,,,,0,,,61,23
22800,note_on,120,0,2,,,,,,,,,0,,,65,27
22920,note_on,0,0,2,,,,,,,,,0,,,65,0
22920,note_on,120,0,2,,,,,,,,,0,,,61,0
23040,note_on,120,0,2,,,,,,,,,0,,,51,29
23040,set_tempo,960,1,0,,,,,,622213,,,,,,,
23040,note_on,0,0,1,,,,,,,,,0,,,73,49
23040,note_on,0,0,1,,,,,,,,,0,,,77,55
23040,note_on,480,0,1,,,,,,,,,0,,,77,0
23040,note_on,0,0,1,,,,,,,,,0,,,67,49
23040,note_on,0,0,1,,,,,,,,,0,,,73,0
23160,note_on,120,0,2,,,,,,,,,0,,,51,0
23160,note_on,120,0,1,,,,,,,,,0,,,77,0
23160,note_on,0,0,1,,,,,,,,,0,,,75,46
23280,note_on,0,0,2,,,,,,,,,0,,,58,22
23280,note_on,0,0,2,,,,,,,,,0,,,61,22
23280,note_on,120,0,2,,,,,,,,,0,,,63,27
23280,note_on,120,0,1,,,,,,,,,0,,,75,0
23280,note_on,0,0,1,,,,,,,,,0,,,73,0
23280,note_on,0,0,1,,,,,,,,,0,,,73,46
23280,note_on,0,0,1,,,,,,,,,0,,,75,46
23280,note_on,0,0,1,,,,,,,,,0,,,67,46
23280,note_on,0,0,1,,,,,,,,,0,,,67,0
23400,note_on,120,0,1,,,,,,,,,0,,,67,0
23400,note_on,0,0,1,,,,,,,,,0,,,68,46
23400,note_on,120,0,2,,,,,,,,,0,,,58,0
23400,note_on,0,0,2,,,,,,,,,0,,,61,0
23400,note_on,0,0,2,,,,,,,,,0,,,63,0
23520,set_tempo,480,1,0,,,,,,636470,,,,,,,
23520,note_on,0,0,1,,,,,,,,,0,,,70,52
23520,note_on,120,0,2,,,,,,,,,0,,,51,29
23520,note_on,120,0,1,,,,,,,,,0,,,68,0
23640,note_on,120,0,2,,,,,,,,,0,,,51,0
23760,note_on,0,0,1,,,,,,,,,0,,,75,42
23760,note_on,120,0,2,,,,,,,,,0,,,61,22
23760,note_on,0,0,1,,,,,,,,,0,,,73,42
23760,note_on,0,0,1,,,,,,,,,0,,,68,42
23760,note_on,0,0,1,,,,,,,,,0,,,75,0
23760,note_on,0,0,1,,,,,,,,,0,,,73,0
23760,note_on,0,0,2,,,,,,,,,0,,,63,27
23760,note_on,0,0,2,,,,,,,,,0,,,58,22
23760,note_on,240,0,1,,,,,,,,,0,,,70,0
23880,note_on,120,0,2,,,,,,,,,0,,,58,0
23880,note_on,0,0,2,,,,,,,,,0,,,61,0
23880,note_on,0,0,1,,,,,,,,,0,,,67,42
23880,set_tempo,360,1,0,,,,,,674992,,,,,,,
23880,note_on,0,0,2,,,,,,,,,0,,,63,0
23880,note_on,120,0,1,,,,,,,,,0,,,68,0
24000,note_on,0,0,1,,,,,,,,,0,,,68,35
24000,note_on,0,0,1,,,,,,,,,0,,,73,0
24000,note_on,0,0,1,,,,,,,,,0,,,75,0
24000,note_on,120,0,1,,,,,,,,,0,,,67,0
24000,note_on,0,0,1,,,,,,,,,0,,,75,39
24000,note_on,0,0,1,,,,,,,,,0,,,72,35
24000,note_on,120,0,2,,,,,,,,,0,,,56,29
24000,set_tempo,120,1,0,,,,,,679117,,,,,,,
24071,control_change,71,0,2,,,,,,,,,0,64,127,,
24240,note_on,169,0,2,,,,,,,,,0,,,56,0
24240,note_on,0,0,2,,,,,,,,,0,,,63,25
24240,note_on,0,0,2,,,,,,,,,0,,,60,20
24339,control_change,99,0,2,,,,,,,,,0,64,0,,
24466,control_change,127,0,2,,,,,,,,,0,64,127,,
24480,note_on,480,0,1,,,,,,,,,0,,,75,0
24480,note_on,14,0,2,,,,,,,,,0,,,60,0
24480,note_on,0,0,1,,,,,,,,,0,,,68,35
24480,note_on,0,0,1,,,,,,,,,0,,,72,35
24480,note_on,0,0,1,,,,,,,,,0,,,75,39
24480,note_on,0,0,1,,,,,,,,,0,,,68,0
24480,note_on,0,0,1,,,,,,,,,0,,,72,0
24480,note_on,0,0,2,,,,,,,,,0,,,63,0
24480,note_on,0,0,2,,,,,,,,,0,,,56,28
24720,note_on,0,0,2,,,,,,,,,0,,,60,20
24720,note_on,240,0,2,,,,,,,,,0,,,56,0
24720,note_on,0,0,2,,,,,,,,,0,,,63,25
24833,control_change,113,0,2,,,,,,,,,0,64,0,,
24960,note_on,0,0,2,,,,,,,,,0,,,63,0
24960,note_on,480,0,1,,,,,,,,,0,,,68,0
24960,note_on,0,0,1,,,,,,,,,0,,,72,0
24960,note_on,0,0,1,,,,,,,,,0,,,75,0
24960,note_on,0,0,1,,,,,,,,,0,,,72,57
24960,set_tempo,960,1,0,,,,,,666889,,,,,,,
24960,note_on,0,0,2,,,,,,,,,0,,,56,30
24960,marker,0,1,0,,,,,,,,,,,,,
24960,note_on,127,0,2,,,,,,,,,0,,,60,0
25080,note_on,120,0,2,,,,,,,,,0,,,56,0
25200,note_on,0,0,2,,,,,,,,,0,,,63,23
25200,note_on,0,0,2,,,,,,,,,0,,,68,27
25200,note_on,120,0,2,,,,,,,,,0,,,60,23
25320,note_on,120,0,2,,,,,,,,,0,,,68,0
25320,note_on,0,0,2,,,,,,,,,0,,,60,0
25320,note_on,0,0,2,,,,,,,,,0,,,63,0
25440,note_on,120,0,2,,,,,,,,,0,,,56,29
25440,note_on,0,0,1,,,,,,,,,0,,,72,57
25440,note_on,480,0,1,,,,,,,,,0,,,72,0
25560,note_on,120,0,2,,,,,,,,,0,,,56,0
25680,note_on,0,0,2,,,,,,,,,0,,,68,27
25680,note_on,0,0,2,,,,,,,,,0,,,63,23
25680,note_on,120,0,2,,,,,,,,,0,,,60,23
25800,note_on,120,0,2,,,,,,,,,0,,,68,0
25800,note_on,0,0,2,,,,,,,,,0,,,60,0
25800,note_on,0,0,2,,,,,,,,,0,,,63,0
25920,note_on,120,0,2,,,,,,,,,0,,,56,32
25920,note_on,0,0,1,,,,,,,,,0,,,72,50
25920,note_on,480,0,1,,,,,,,,,0,,,72,0
25920,set_tempo,960,1,0,,,,,,602047,,,,,,,
26040,note_on,0,0,1,,,,,,,,,0,,,73,51
26040,note_on,120,0,1,,,,,,,,,0,,,72,0
26040,note_on,120,0,2,,,,,,,,,0,,,56,0
26160,note_on,0,0,1,,,,,,,,,0,,,75,55
26160,note_on,120,0,1,,,,,,,,,0,,,73,0
26160,note_on,120,0,2,,,,,,,,,0,,,67,27
26160,note_on,0,0,2,,,,,,,,,0,,,63,23
26160,note_on,0,0,2,,,,,,,,,0,,,58,23
26280,note_on,120,0,1,,,,,,,,,0,,,75,0
26280,note_on,0,0,1,,,,,,,,,0,,,73,52
26280,note_on,0,0,2,,,,,,,,,0,,,67,0
26280,note_on,0,0,2,,,,,,,,,0,,,63,0
26280,note_on,120,0,2,,,,,,,,,0,,,58,0
26400,note_on,120,0,1,,,,,,,,,0,,,73,0
26400,note_on,0,0,1,,,,,,,,,0,,,73,52
26400,note_on,120,0,2,,,,,,,,,0,,,56,28
26520,note_on,120,0,2,,,,,,,,,0,,,56,0
26640,note_on,0,0,2,,,,,,,,,0,,,58,22
26640,note_on,0,0,2,,,,,,,,,0,,,63,22
26640,note_on,120,0,2,,,,,,,,,0,,,67,27
26760,note_on,0,0,1,,,,,,,,,0,,,72,49
26760,note_on,120,0,2,,,,,,,,,0,,,58,0
26760,note_on,360,0,1,,,,,,,,,0,,,73,0
26760,note_on,0,0,2,,,,,,,,,0,,,67,0
26760,note_on,0,0,2,,,,,,,,,0,,,63,0
26820,set_tempo,900,1,0,,,,,,611933,,,,,,,
26820,note_on,60,0,1,,,,,,,,,0,,,72,0
26850,note_on,30,0,1,,,,,,,,,0,,,72,43
26880,note_on,30,0,1,,,,,,,,,0,,,72,0
26880,note_on,120,0,2,,,,,,,,,0,,,56,29
26880,note_on,0,0,1,,,,,,,,,0,,,70,52
27000,note_on,120,0,2,,,,,,,,,0,,,56,0
27120,note_on,0,0,2,,,,,,,,,0,,,61,22
27120,note_on,0,0,1,,,,,,,,,0,,,70,48
27120,note_on,0,0,2,,,,,,,,,0,,,63,22
27120,note_on,120,0,2,,,,,,,,,0,,,67,27
27120,note_on,240,0,1,,,,,,,,,0,,,70,0
27240,note_on,0,0,2,,,,,,,,,0,,,67,0
27240,note_on,0,0,2,,,,,,,,,0,,,63,0
27240,note_on,120,0,2,,,,,,,,,0,,,61,0
27360,note_on,240,0,1,,,,,,,,,0,,,70,0
27360,note_on,120,0,2,,,,,,,,,0,,,56,29
27360,set_tempo,540,1,0,,,,,,589275,,,,,,,
27360,note_on,0,0,1,,,,,,,,,0,,,72,51
27480,note_on,120,0,1,,,,,,,,,0,,,72,0
27480,note_on,0,0,1,,,,,,,,,0,,,70,49
27480,note_on,120,0,2,,,,,,,,,0,,,56,0
27600,note_on,0,0,2,,,,,,,,,0,,,63,22
27600,note_on,120,0,2,,,,,,,,,0,,,67,27
27600,note_on,0,0,2,,,,,,,,,0,,,61,22
27600,note_on,0,0,1,,,,,,,,,0,,,68,46
27600,note_on,120,0,1,,,,,,,,,0,,,70,0
27720,note_on,0,0,1,,,,,,,,,0,,,70,50
27720,note_on,120,0,2,,,,,,,,,0,,,61,0
27720,note_on,0,0,2,,,,,,,,,0,,,63,0
27720,note_on,0,0,2,,,,,,,,,0,,,67,0
27720,note_on,120,0,1,,,,,,,,,0,,,68,0
27720,set_tempo,360,1,0,,,,,,625717,,,,,,,
27840,note_on,120,0,1,,,,,,,,,0,,,70,0
27840,set_tempo,120,1,0,,,,,,608581,,,,,,,
27840,note_on,0,0,1,,,,,,,,,0,,,70,54
27840,note_on,120,0,2,,,,,,,,,0,,,56,32
27960,note_on,120,0,2,,,,,,,,,0,,,56,0
28080,note_on,0,0,2,,,,,,,,,0,,,60,23
28080,note_on,0,0,2,,,,,,,,,0,,,63,23
28080,note_on,120,0,2,,,,,,,,,0,,,68,27
28200,note_on,0,0,2,,,,,,,,,0,,,63,0
28200,note_on,120,0,2,,,,,,,,,0,,,60,0
28200,note_on,0,0,2,,,,,,,,,0,,,68,0
28320,note_on,120,0,2,,,,,,,,,0,,,56,29
28320,set_tempo,480,1,0,,,,,,595593,,,,,,,
28320,note_on,0,0,1,,,,,,,,,0,,,72,54
28320,note_on,480,0,1,,,,,,,,,0,,,70,0
28440,note_on,120,0,2,,,,,,,,,0,,,56,0
28560,note_on,0,0,2,,,,,,,,,0,,,60,23
28560,note_on,120,0,2,,,,,,,,,0,,,68,27
28560,note_on,0,0,2,,,,,,,,,0,,,63,23
28680,note_on,0,0,2,,,,,,,,,0,,,68,0
28680,note_on,0,0,2,,,,,,,,,0,,,63,0
28680,note_on,120,0,2,,,,,,,,,0,,,60,0
28740,note_on,420,0,1,,,,,,,,,0,,,72,0
28740,note_on,0,0,1,,,,,,,,,0,,,75,46
28800,note_on,0,0,1,,,,,,,,,0,,,72,51
28800,note_on,0,0,1,,,,,,,,,0,,,80,57
28800,note_on,60,0,1,,,,,,,,,0,,,75,0
28800,note_on,120,0,2,,,,,,,,,0,,,56,34
28800,set_tempo,480,1,0,,,,,,666889,,,,,,,
28807,control_change,7,0,2,,,,,,,,,0,64,127,,
29040,note_on,0,0,2,,,,,,,,,0,,,63,24
29040,note_on,0,0,2,,,,,,,,,0,,,60,24
29040,note_on,0,0,2,,,,,,,,,0,,,68,28
29040,note_on,233,0,2,,,,,,,,,0,,,56,0
29160,control_change,120,0,2,,,,,,,,,0,64,0,,
29220,note_on,420,0,1,,,,,,,,,0,,,72,0
29220,note_on,0,0,1,,,,,,,,,0,,,80,0
29220,note_on,0,0,1,,,,,,,,,0,,,75,45
29280,note_on,0,0,1,,,,,,,,,0,,,72,56
29280,note_on,0,0,1,,,,,,,,,0,,,80,56
29280,note_on,120,0,2,,,,,,,,,0,,,63,0
29280,note_on,0,0,2,,,,,,,,,0,,,60,0
29280,note_on,0,0,2,,,,,,,,,0,,,68,0
29280,note_on,0,0,2,,,,,,,,,0,,,56,32
29280,note_on,60,0,1,,,,,,,,,0,,,75,0
29287,control_change,7,0,2,,,,,,,,,0,64,127,,
29520,note_on,0,0,2,,,,,,,,,0,,,60,25
29520,note_on,0,0,2,,,,,,,,,0,,,68,29
29520,note_on,233,0,2,,,,,,,,,0,,,56,0
29520,note_on,0,0,2,,,,,,,,,0,,,63,25
29707,control_change,187,0,2,,,,,,,,,0,64,0,,
29760,note_on,0,0,1,,,,,,,,,0,,,72,0
29760,note_on,0,0,1,,,,,,,,,0,,,75,45
29760,note_on,0,0,1,,,,,,,,,0,,,79,50
29760,note_on,0,0,2,,,,,,,,,0,,,68,0
29760,note_on,480,0,1,,,,,,,,,0,,,80,0
29760,note_on,0,0,2,,,,,,,,,0,,,49,29
29760,note_on,0,0,2,,,,,,,,,0,,,63,0
29760,set_tempo,960,1,0,,,,,,608581,,,,,,,
29760,note_on,53,0,2,,,,,,,,,0,,,60,0
29880,note_on,0,0,1,,,,,,,,,0,,,77,50
29880,note_on,0,0,1,,,,,,,,,0,,,73,45
29880,note_on,120,0,1,,,,,,,,,0,,,79,0
29880,note_on,120,0,2,,,,,,,,,0,,,49,0
29880,note_on,0,0,1,,,,,,,,,0,,,75,0
30000,note_on,0,0,2,,,,,,,,,0,,,61,23
30000,note_on,0,0,1,,,,,,,,,0,,,76,45
30000,note_on,120,0,1,,,,,,,,,0,,,77,0
30000,note_on,0,0,1,,,,,,,,,0,,,73,0
30000,note_on,0,0,1,,,,,,,,,0,,,72,40
30000,note_on,120,0,2,,,,,,,,,0,,,65,27
30120,note_on,0,0,1,,,,,,,,,0,,,73,40
30120,note_on,120,0,2,,,,,,,,,0,,,61,0
30120,note_on,0,0,1,,,,,,,,,0,,,72,0
30120,note_on,0,0,2,,,,,,,,,0,,,65,0
30120,note_on,0,0,1,,,,,,,,,0,,,77,45
30120,note_on,120,0,1,,,,,,,,,0,,,76,0
30240,note_on,0,0,1,,,,,,,,,0,,,73,45
30240,note_on,0,0,1,,,,,,,,,0,,,77,50
30240,note_on,120,0,2,,,,,,,,,0,,,49,30
30240,note_on,120,0,1,,,,,,,,,0,,,77,0
30240,note_on,0,0,1,,,,,,,,,0,,,73,0
30360,note_on,120,0,2,,,,,,,,,0,,,49,0
30480,note_on,0,0,2,,,,,,,,,0,,,61,23
30480,note_on,120,0,2,,,,,,,,,0,,,65,27
30600,note_on,120,0,2,,,,,,,,,0,,,61,0
30600,note_on,0,0,2,,,,,,,,,0,,,65,0
30720,note_on,120,0,2,,,,,,,,,0,,,51,29
30720,set_tempo,960,1,0,,,,,,622213,,,,,,,
30720,note_on,0,0,1,,,,,,,,,0,,,73,49
30720,note_on,0,0,1,,,,,,,,,0,,,67,49
30720,note_on,0,0,1,,,,,,,,,0,,,73,0
30720,note_on,480,0,1,,,,,,,,,0,,,77,0
30720,note_on,0,0,1,,,,,,,,,0,,,77,55
30840,note_on,120,0,1,,,,,,,,,0,,,77,0
30840,note_on,0,0,1,,,,,,,,,0,,,75,46
30840,note_on,120,0,2,,,,,,,,,0,,,51,0
30960,note_on,0,0,2,,,,,,,,,0,,,61,22
30960,note_on,120,0,2,,,,,,,,,0,,,63,27
30960,note_on,0,0,2,,,,,,,,,0,,,58,22
30960,note_on,0,0,1,,,,,,,,,0,,,73,46
30960,note_on,0,0,1,,,,,,,,,0,,,67,46
30960,note_on,0,0,1,,,,,,,,,0,,,75,46
30960,note_on,0,0,1,,,,,,,,,0,,,67,0
30960,note_on,0,0,1,,,,,,,,,0,,,73,0
30960,note_on,120,0,1,,,,,,,,,0,,,75,0
31080,note_on,120,0,2,,,,,,,,,0,,,58,0
31080,note_on,0,0,2,,,,,,,,,0,,,61,0
31080,note_on,0,0,2,,,,,,,,,0,,,63,0
31080,note_on,0,0,1,,,,,,,,,0,,,68,46
31080,note_on,120,0,1,,,,,,,,,0,,,67,0
31200,set_tempo,480,1,0,,,,,,636470,,,,,,,
31200,note_on,120,0,1,,,,,,,,,0,,,68,0
31200,note_on,0,0,1,,,,,,,,,0,,,70,52
31200,note_on,120,0,2,,,,,,,,,0,,,51,29
31320,note_on,120,0,2,,,,,,,,,0,,,51,0
31440,note_on,0,0,2,,,,,,,,,0,,,58,22
31440,note_on,0,0,2,,,,,,,,,0,,,63,27
31440,note_on,120,0,2,,,,,,,,,0,,,61,22
31440,note_on,0,0,1,,,,,,,,,0,,,75,42
31440,note_on,0,0,1,,,,,,,,,0,,,73,42
31440,note_on,0,0,1,,,,,,,,,0,,,75,0
31440,note_on,0,0,1,,,,,,,,,0,,,73,0
31440,note_on,240,0,1,,,,,,,,,0,,,70,0
31440,note_on,0,0,1,,,,,,,,,0,,,68,42
31560,note_on,0,0,2,,,,,,,,,0,,,61,0
31560,note_on,120,0,1,,,,,,,,,0,,,68,0
31560,note_on,0,0,1,,,,,,,,,0,,,67,42
31560,set_tempo,360,1,0,,,,,,674992,,,,,,,
31560,note_on,120,0,2,,,,,,,,,0,,,58,0
31560,note_on,0,0,2,,,,,,,,,0,,,63,0
31680,note_on,120,0,1,,,,,,,,,0,,,67,0
31680,set_tempo,120,1,0,,,,,,679117,,,,,,,
31680,note_on,120,0,2,,,,,,,,,0,,,56,29
31680,note_on,0,0,1,,,,,,,,,0,,,75,0
31680,note_on,0,0,1,,,,,,,,,0,,,73,0
31680,note_on,0,0,1,,,,,,,,,0,,,68,35
31680,note_on,0,0,1,,,,,,,,,0,,,72,35
31680,note_on,0,0,1,,,,,,,,,0,,,75,39
31736,control_change,56,0,2,,,,,,,,,0,64,127,,
31920,note_on,0,0,2,,,,,,,,,0,,,60,20
31920,note_on,0,0,2,,,,,,,,,0,,,63,25
31920,note_on,184,0,2,,,,,,,,,0,,,56,0
32061,control_change,141,0,2,,,,,,,,,0,64,0,,
32160,note_on,99,0,2,,,,,,,,,0,,,60,0
32160,note_on,480,0,1,,,,,,,,,0,,,75,0
32160,note_on,0,0,1,,,,,,,,,0,,,72,0
32160,note_on,0,0,1,,,,,,,,,0,,,68,0
32160,note_on,0,0,1,,,,,,,,,0,,,75,39
32160,note_on,0,0,1,,,,,,,,,0,,,72,35
32160,note_on,0,0,1,,,,,,,,,0,,,68,35
32160,note_on,0,0,2,,,,,,,,,0,,,63,0
32160,note_on,0,0,2,,,,,,,,,0,,,56,28
32174,control_change,14,0,2,,,,,,,,,0,64,127,,
32400,note_on,0,0,2,,,,,,,,,0,,,63,25
32400,note_on,0,0,2,,,,,,,,,0,,,60,20
32400,note_on,226,0,2,,,,,,,,,0,,,56,0
32513,control_change,113,0,2,,,,,,,,,0,64,0,,
32640,note_on,127,0,2,,,,,,,,,0,,,60,0
32640,note_on,0,0,2,,,,,,,,,0,,,63,0
32640,note_on,0,0,2,,,,,,,,,0,,,48,51
32640,marker,960,1,0,,,,,,,,,,,,,
32640,note_on,0,0,1,,,,,,,,,0,,,70,57
32640,note_on,480,0,1,,,,,,,,,0,,,68,0
32640,note_on,0,0,1,,,,,,,,,0,,,72,0
32640,note_on,0,0,1,,,,,,,,,0,,,75,0
32640,note_on,0,0,1,,,,,,,,,0,,,76,64
32640,note_on,0,0,1,,,,,,,,,0,,,72,57
32640,note_on,0,0,1,,,,,,,,,0,,,67,57
32760,note_on,120,0,2,,,,,,,,,0,,,48,0
32880,note_on,0,0,2,,,,,,,,,0,,,60,38
32880,note_on,120,0,2,,,,,,,,,0,,,64,45
33000,note_on,0,0,2,,,,,,,,,0,,,64,0
33000,note_on,120,0,2,,,,,,,,,0,,,60,0
33120,note_on,0,0,1,,,,,,,,,0,,,70,57
33120,note_on,480,0,1,,,,,,,,,0,,,67,0
33120,note_on,120,0,2,,,,,,,,,0,,,48,51
33120,note_on,0,0,1,,,,,,,,,0,,,72,0
33120,note_on,0,0,1,,,,,,,,,0,,,70,0
33120,note_on,0,0,1,,,,,,,,,0,,,76,64
33120,note_on,0,0,1,,,,,,,,,0,,,72,57
33120,note_on,0,0,1,,,,,,,,,0,,,76,0
33120,note_on,0,0,1,,,,,,,,,0,,,67,57
33240,note_on,120,0,2,,,,,,,,,0,,,48,0
33360,note_on,120,0,2,,,,,,,,,0,,,64,45
33360,note_on,0,0,2,,,,,,,,,0,,,60,38
33480,note_on,0,0,2,,,,,,,,,0,,,64,0
33480,note_on,120,0,2,,,,,,,,,0,,,60,0
33540,note_on,0,0,1,,,,,,,,,0,,,77,56
33540,note_on,420,0,1,,,,,,,,,0,,,67,0
33540,note_on,0,0,1,,,,,,,,,0,,,76,0
33540,note_on,0,0,1,,,,,,,,,0,,,72,0
33540,note_on,0,0,1,,,,,,,,,0,,,70,0
33600,set_tempo,960,1,0,,,,,,618748,,,,,,,
33600,note_on,120,0,2,,,,,,,,,0,,,48,46
33600,note_on,0,0,1,,,,,,,,,0,,,68,54
33600,note_on,0,0,1,,,,,,,,,0,,,72,54
33600,note_on,0,0,1,,,,,,,,,0,,,80,69
33600,note_on,60,0,1,,,,,,,,,0,,,77,0
33720,note_on,120,0,2,,,,,,,,,0,,,48,0
33840,note_on,120,0,2,,,,,,,,,0,,,65,37
33840,set_tempo,240,1,0,,,,,,625717,,,,,,,
33840,note_on,0,0,1,,,,,,,,,0,,,80,66
33840,note_on,0,0,1,,,,,,,,,0,,,72,48
33840,note_on,0,0,1,,,,,,,,,0,,,68,48
33840,note_on,0,0,1,,,,,,,,,0,,,68,0
33840,note_on,0,0,1,,,,,,,,,0,,,72,0
33840,note_on,240,0,1,,,,,,,,,0,,,80,0
33840,note_on,0,0,2,,,,,,,,,0,,,60,31
33960,note_on,0,0,2,,,,,,,,,0,,,65,0
33960,note_on,120,0,2,,,,,,,,,0,,,60,0
33960,note_on,0,0,1,,,,,,,,,0,,,79,67
33960,note_on,120,0,1,,,,,,,,,0,,,80,0
34080,note_on,0,0,1,,,,,,,,,0,,,77,67
34080,note_on,120,0,1,,,,,,,,,0,,,79,0
34080,set_tempo,240,1,0,,,,,,643846,,,,,,,
34080,note_on,120,0,2,,,,,,,,,0,,,48,46
34200,note_on,120,0,2,,,,,,,,,0,,,48,0
34320,note_on,0,0,1,,,,,,,,,0,,,75,63
34320,note_on,0,0,2,,,,,,,,,0,,,60,31
34320,note_on,240,0,1,,,,,,,,,0,,,77,0
34320,note_on,120,0,2,,,,,,,,,0,,,65,37
34440,note_on,0,0,2,,,,,,,,,0,,,65,0
34440,note_on,120,0,1,,,,,,,,,0,,,75,0
34440,note_on,0,0,1,,,,,,,,,0,,,73,63
34440,note_on,120,0,2,,,,,,,,,0,,,60,0
34560,note_on,0,0,1,,,,,,,,,0,,,70,57
34560,note_on,0,0,1,,,,,,,,,0,,,67,57
34560,note_on,120,0,2,,,,,,,,,0,,,48,52
34560,set_tempo,480,1,0,,,,,,629261,,,,,,,
34560,note_on,0,0,1,,,,,,,,,0,,,68,0
34560,note_on,0,0,1,,,,,,,,,0,,,72,0
34560,note_on,120,0,1,,,,,,,,,0,,,73,0
34560,note_on,0,0,1,,,,,,,,,0,,,72,64
34680,note_on,120,0,2,,,,,,,,,0,,,48,0
34800,note_on,120,0,2,,,,,,,,,0,,,64,48
34800,note_on,0,0,2,,,,,,,,,0,,,60,40
34920,note_on,120,0,2,,,,,,,,,0,,,60,0
34920,note_on,0,0,2,,,,,,,,,0,,,64,0
35040,note_on,120,0,2,,,,,,,,,0,,,48,52
35040,note_on,0,0,1,,,,,,,,,0,,,70,57
35040,note_on,0,0,1,,,,,,,,,0,,,67,57
35040,note_on,0,0,1,,,,,,,,,0,,,70,0
35040,note_on,480,0,1,,,,,,,,,0,,,72,0
35040,set_tempo,480,1,0,,,,,,611933,,,,,,,
35040,note_on,0,0,1,,,,,,,,,0,,,72,57
35040,note_on,0,0,1,,,,,,,,,0,,,76,64
35040,note_on,0,0,1,,,,,,,,,0,,,67,0
35160,note_on,120,0,2,,,,,,,,,0,,,48,0
35280,note_on,120,0,2,,,,,,,,,0,,,64,48
35280,note_on,0,0,2,,,,,,,,,0,,,60,40
35400,note_on,0,0,2,,,,,,,,,0,,,64,0
35400,note_on,120,0,2,,,,,,,,,0,,,60,0
35460,note_on,0,0,1,,,,,,,,,0,,,77,57
35460,note_on,420,0,1,,,,,,,,,0,,,76,0
35460,note_on,0,0,1,,,,,,,,,0,,,72,0
35460,note_on,0,0,1,,,,,,,,,0,,,67,0
35460,note_on,0,0,1,,,,,,,,,0,,,70,0
35520,note_on,0,0,1,,,,,,,,,0,,,80,73
35520,note_on,0,0,1,,,,,,,,,0,,,72,55
35520,note_on,0,0,1,,,,,,,,,0,,,68,55
35520,note_on,60,0,1,,,,,,,,,0,,,77,0
35520,note_on,120,0,2,,,,,,,,,0,,,48,45
35640,note_on,120,0,2,,,,,,,,,0,,,48,0
35760,note_on,0,0,1,,,,,,,,,0,,,72,46
35760,note_on,0,0,1,,,,,,,,,0,,,68,46
35760,note_on,0,0,1,,,,,,,,,0,,,68,0
35760,note_on,0,0,1,,,,,,,,,0,,,72,0
35760,note_on,0,0,2,,,,,,,,,0,,,60,32
35760,note_on,120,0,2,,,,,,,,,0,,,65,38
35760,note_on,0,0,1,,,,,,,,,0,,,80,62
35760,note_on,240,0,1,,,,,,,,,0,,,80,0
35880,note_on,120,0,1,,,,,,,,,0,,,80,0
35880,note_on,0,0,1,,,,,,,,,0,,,79,62
35880,note_on,120,0,2,,,,,,,,,0,,,60,0
35880,note_on,0,0,2,,,,,,,,,0,,,65,0
36000,set_tempo,960,1,0,,,,,,622213,,,,,,,
36000,note_on,120,0,1,,,,,,,,,0,,,79,0
36000,note_on,0,0,1,,,,,,,,,0,,,77,62
36000,note_on,120,0,2,,,,,,,,,0,,,53,45
36120,set_tempo,120,1,0,,,,,,674992,,,,,,,
36120,note_on,120,0,2,,,,,,,,,0,,,53,0
36240,note_on,120,0,2,,,,,,,,,0,,,65,38
36240,set_tempo,120,1,0,,,,,,622213,,,,,,,
36240,note_on,0,0,1,,,,,,,,,0,,,75,56
36240,note_on,240,0,1,,,,,,,,,0,,,77,0
36240,note_on,0,0,2,,,,,,,,,0,,,60,32
36360,note_on,0,0,1,,,,,,,,,0,,,73,56
36360,note_on,120,0,1,,,,,,,,,0,,,75,0
36360,note_on,120,0,2,,,,,,,,,0,,,60,0
36360,note_on,0,0,2,,,,,,,,,0,,,65,0
36480,note_on,0,0,1,,,,,,,,,0,,,68,0
36480,note_on,0,0,1,,,,,,,,,0,,,68,45
36480,note_on,0,0,1,,,,,,,,,0,,,72,51
36480,set_tempo,240,1,0,,,,,,709471,,,,,,,
36480,note_on,0,0,1,,,,,,,,,0,,,72,0
36480,note_on,120,0,2,,,,,,,,,0,,,44,46
36480,note_on,120,0,1,,,,,,,,,0,,,73,0
36600,note_on,120,0,2,,,,,,,,,0,,,44,0
36720,note_on,120,0,2,,,,,,,,,0,,,60,40
36720,note_on,0,0,2,,,,,,,,,0,,,56,34
36840,note_on,120,0,2,,,,,,,,,0,,,56,0
36840,note_on,0,0,2,,,,,,,,,0,,,60,0
36960,note_on,0,0,1,,,,,,,,,0,,,68,0
36960,note_on,120,0,2,,,,,,,,,0,,,45,45
36960,set_tempo,480,1,0,,,,,,732780,,,,,,,
36960,note_on,480,0,1,,,,,,,,,0,,,72,0
36960,note_on,0,0,1,,,,,,,,,0,,,66,49
36960,note_on,0,0,1,,,,,,,,,0,,,72,55
37080,note_on,120,0,2,,,,,,,,,0,,,45,0
37200,note_on,120,0,2,,,,,,,,,0,,,54,33
37200,note_on,0,0,2,,,,,,,,,0,,,60,39
37320,note_on,0,0,2,,,,,,,,,0,,,54,0
37320,note_on,120,0,2,,,,,,,,,0,,,60,0
37440,note_on,120,0,2,,,,,,,,,0,,,46,38
37440,set_tempo,480,1,0,,,,,,647598,,,,,,,
37440,note_on,480,0,1,,,,,,,,,0,,,72,0
37440,note_on,0,0,1,,,,,,,,,0,,,65,51
37440,note_on,0,0,1,,,,,,,,,0,,,66,0
37440,note_on,0,0,1,,,,,,,,,0,,,72,57
37560,note_on,0,0,1,,,,,,,,,0,,,73,60
37560,note_on,120,0,1,,,,,,,,,0,,,72,0
37560,note_on,120,0,2,,,,,,,,,0,,,46,0
37680,note_on,0,0,2,,,,,,,,,0,,,53,27
37680,note_on,0,0,1,,,,,,,,,0,,,75,62
37680,note_on,120,0,1,,,,,,,,,0,,,73,0
37680,note_on,120,0,2,,,,,,,,,0,,,58,33
37800,note_on,120,0,2,,,,,,,,,0,,,53,0
37800,note_on,120,0,1,,,,,,,,,0,,,75,0
37800,note_on,0,0,1,,,,,,,,,0,,,73,58
37800,note_on,0,0,2,,,,,,,,,0,,,58,0
37920,note_on,120,0,1,,,,,,,,,0,,,73,0
37920,note_on,0,0,1,,,,,,,,,0,,,73,58
37920,note_on,0,0,1,,,,,,,,,0,,,65,52
37920,set_tempo,480,1,0,,,,,,655165,,,,,,,
37920,note_on,0,0,1,,,,,,,,,0,,,65,0
37920,note_on,120,0,2,,,,,,,,,0,,,37,38
38040,note_on,120,0,2,,,,,,,,,0,,,37,0
38160,note_on,240,0,1,,,,,,,,,0,,,73,0
38160,note_on,0,0,1,,,,,,,,,0,,,65,0
38160,note_on,0,0,1,,,,,,,,,0,,,63,46
38160,note_on,0,0,1,,,,,,,,,0,,,72,52
38160,note_on,120,0,2,,,,,,,,,0,,,49,27
38160,note_on,0,0,2,,,,,,,,,0,,,53,33
38280,note_on,0,0,2,,,,,,,,,0,,,49,0
38280,note_on,0,0,1,,,,,,,,,0,,,70,50
38280,note_on,0,0,1,,,,,,,,,0,,,63,0
38280,note_on,120,0,1,,,,,,,,,0,,,72,0
38280,note_on,0,0,1,,,,,,,,,0,,,61,45
38280,note_on,120,0,2,,,,,,,,,0,,,53,0
38400,note_on,120,0,1,,,,,,,,,0,,,70,0
38400,note_on,0,0,1,,,,,,,,,0,,,61,0
38400,note_on,0,0,1,,,,,,,,,0,,,60,43
38400,note_on,0,0,1,,,,,,,,,0,,,68,48
38400,note_on,120,0,2,,,,,,,,,0,,,39,29
38520,note_on,120,0,2,,,,,,,,,0,,,39,0
38640,note_on,240,0,1,,,,,,,,,0,,,68,0
38640,note_on,0,0,1,,,,,,,,,0,,,60,0
38640,note_on,120,0,2,,,,,,,,,0,,,56,25
38640,note_on,0,0,1,,,,,,,,,0,,,60,43
38640,note_on,0,0,1,,,,,,,,,0,,,68,48
38640,note_on,0,0,2,,,,,,,,,0,,,51,20
38760,note_on,120,0,2,,,,,,,,,0,,,51,0
38760,note_on,0,0,2,,,,,,,,,0,,,56,0
38880,note_on,0,0,1,,,,,,,,,0,,,60,38
38880,note_on,0,0,1,,,,,,,,,0,,,68,43
38880,note_on,240,0,1,,,,,,,,,0,,,68,0
38880,set_tempo,960,1,0,,,,,,615322,,,,,,,
38880,note_on,120,0,2,,,,,,,,,0,,,39,29
38880,note_on,0,0,1,,,,,,,,,0,,,60,0
39000,note_on,120,0,2,,,,,,,,,0,,,39,0
39000,note_on,0,0,1,,,,,,,,,0,,,60,0
39000,note_on,0,0,1,,,,,,,,,0,,,70,44
39000,note_on,0,0,1,,,,,,,,,0,,,61,39
39000,note_on,120,0,1,,,,,,,,,0,,,68,0
39120,note_on,0,0,1,,,,,,,,,0,,,72,45
39120,note_on,0,0,1,,,,,,,,,0,,,63,40
39120,note_on,0,0,1,,,,,,,,,0,,,61,0
39120,note_on,120,0,1,,,,,,,,,0,,,70,0
39120,note_on,120,0,2,,,,,,,,,0,,,55,25
39120,note_on,0,0,2,,,,,,,,,0,,,51,20
39240,note_on,120,0,2,,,,,,,,,0,,,51,0
39240,note_on,0,0,2,,,,,,,,,0,,,55,0
39240,set_tempo,360,1,0,,,,,,700525,,,,,,,
39240,note_on,0,0,1,,,,,,,,,0,,,70,44
39240,note_on,0,0,1,,,,,,,,,0,,,61,39
39240,note_on,0,0,1,,,,,,,,,0,,,63,0
39240,note_on,120,0,1,,,,,,,,,0,,,72,0
39360,set_tempo,120,1,0,,,,,,629261,,,,,,,
39360,control_change,120,0,2,,,,,,,,,0,64,127,,
39360,note_on,0,0,2,,,,,,,,,0,,,44,27
39360,note_on,120,0,1,,,,,,,,,0,,,70,0
39360,note_on,0,0,1,,,,,,,,,0,,,68,43
39360,note_on,0,0,1,,,,,,,,,0,,,60,38
39360,note_on,0,0,1,,,,,,,,,0,,,61,0
39600,note_on,240,0,2,,,,,,,,,0,,,44,0
39600,note_on,0,0,2,,,,,,,,,0,,,51,18
39600,note_on,0,0,2,,,,,,,,,0,,,56,21
39699,control_change,99,0,2,,,,,,,,,0,64,0,,
39840,note_on,0,0,1,,,,,,,,,0,,,60,0
39840,note_on,0,0,1,,,,,,,,,0,,,60,38
39840,note_on,0,0,1,,,,,,,,,0,,,68,43
39840,note_on,0,0,2,,,,,,,,,0,,,44,27
39840,note_on,0,0,2,,,,,,,,,0,,,56,0
39840,note_on,141,0,2,,,,,,,,,0,,,51,0
39840,note_on,480,0,1,,,,,,,,,0,,,68,0
39854,control_change,14,0,2,,,,,,,,,0,64,127,,
40080,note_on,0,0,2,,,,,,,,,0,,,56,21
40080,note_on,226,0,2,,,,,,,,,0,,,44,0
40080,note_on,0,0,2,,,,,,,,,0,,,51,18
40136,control_change,56,0,2,,,,,,,,,0,64,0,,
40320,marker,0,1,0,,,,,,,,,,,,,
40320,set_tempo,960,1,0,,,,,,670916,,,,,,,
40320,note_on,0,0,1,,,,,,,,,0,,,76,64
40320,note_on,184,0,2,,,,,,,,,0,,,51,0
40320,note_on,0,0,2,,,,,,,,,0,,,56,0
40320,note_on,0,0,2,,,,,,,,,0,,,48,51
40320,note_on,480,0,1,,,,,,,,,0,,,68,0
40320,note_on,0,0,1,,,,,,,,,0,,,60,0
40320,note_on,0,0,1,,,,,,,,,0,,,72,57
40320,note_on,0,0,1,,,,,,,,,0,,,70,57
40320,note_on,0,0,1,,,,,,,,,0,,,67,57
40440,note_on,120,0,2,,,,,,,,,0,,,48,0
40560,note_on,120,0,2,,,,,,,,,0,,,64,45
40560,note_on,0,0,2,,,,,,,,,0,,,60,38
40680,note_on,120,0,2,,,,,,,,,0,,,60,0
40680,note_on,0,0,2,,,,,,,,,0,,,64,0
40800,note_on,0,0,1,,,,,,,,,0,,,72,57
40800,note_on,0,0,1,,,,,,,,,0,,,76,0
40800,note_on,120,0,2,,,,,,,,,0,,,48,51
40800,note_on,480,0,1,,,,,,,,,0,,,67,0
40800,note_on,0,0,1,,,,,,,,,0,,,67,57
40800,note_on,0,0,1,,,,,,,,,0,,,70,57
40800,note_on,0,0,1,,,,,,,,,0,,,76,64
40800,note_on,0,0,1,,,,,,,,,0,,,70,0
40800,note_on,0,0,1,,,,,,,,,0,,,72,0
40920,note_on,120,0,2,,,,,,,,,0,,,48,0
41040,note_on,120,0,2,,,,,,,,,0,,,64,45
41040,note_on,0,0,2,,,,,,,,,0,,,60,38
41160,note_on,120,0,2,,,,,,,,,0,,,60,0
41160,note_on,0,0,2,,,,,,,,,0,,,64,0
41220,note_on,420,0,1,,,,,,,,,0,,,67,0
41220,note_on,0,0,1,,,,,,,,,0,,,76,0
41220,note_on,0,0,1,,,,,,,,,0,,,77,56
41220,note_on,0,0,1,,,,,,,,,0,,,70,0
41220,note_on,0,0,1,,,,,,,,,0,,,72,0
41280,note_on,60,0,1,,,,,,,,,0,,,77,0
41280,note_on,0,0,1,,,,,,,,,0,,,72,54
41280,set_tempo,960,1,0,,,,,,618748,,,,,,,
41280,note_on,120,0,2,,,,,,,,,0,,,48,46
41280,note_on,0,0,1,,,,,,,,,0,,,68,54
41280,note_on,0,0,1,,,,,,,,,0,,,80,69
41400,note_on,120,0,2,,,,,,,,,0,,,48,0
41520,note_on,240,0,1,,,,,,,,,0,,,80,0
41520,note_on,0,0,1,,,,,,,,,0,,,72,0
41520,note_on,0,0,1,,,,,,,,,0,,,68,0
41520,note_on,0,0,1,,,,,,,,,0,,,68,48
41520,note_on,0,0,1,,,,,,,,,0,,,72,48
41520,note_on,0,0,1,,,,,,,,,0,,,80,66
41520,set_tempo,240,1,0,,,,,,625717,,,,,,,
41520,note_on,120,0,2,,,,,,,,,0,,,65,37
41520,note_on,0,0,2,,,,,,,,,0,,,60,31
41640,note_on,0,0,2,,,,,,,,,0,,,65,0
41640,note_on,120,0,2,,,,,,,,,0,,,60,0
41640,note_on,120,0,1,,,,,,,,,0,,,80,0
41640,note_on,0,0,1,,,,,,,,,0,,,79,67
41760,note_on,120,0,2,,,,,,,,,0,,,48,46
41760,set_tempo,240,1,0,,,,,,643846,,,,,,,
41760,note_on,120,0,1,,,,,,,,,0,,,79,0
41760,note_on,0,0,1,,,,,,,,,0,,,77,67
41880,note_on,120,0,2,,,,,,,,,0,,,48,0
42000,note_on,0,0,2,,,,,,,,,0,,,60,31
42000,note_on,120,0,2,,,,,,,,,0,,,65,37
42000,note_on,0,0,1,,,,,,,,,0,,,75,63
42000,note_on,240,0,1,,,,,,,,,0,,,77,0
42120,note_on,120,0,2,,,,,,,,,0,,,60,0
42120,note_on,0,0,2,,,,,,,,,0,,,65,0
42120,note_on,0,0,1,,,,,,,,,0,,,73,63
42120,note_on,120,0,1,,,,,,,,,0,,,75,0
42240,note_on,0,0,1,,,,,,,,,0,,,70,57
42240,note_on,120,0,2,,,,,,,,,0,,,48,52
42240,note_on,120,0,1,,,,,,,,,0,,,73,0
42240,note_on,0,0,1,,,,,,,,,0,,,72,0
42240,note_on,0,0,1,,,,,,,,,0,,,68,0
42240,note_on,0,0,1,,,,,,,,,0,,,67,57
42240,note_on,0,0,1,,,,,,,,,0,,,72,64
42240,set_tempo,480,1,0,,,,,,629261,,,,,,,
42360,note_on,120,0,2,,,,,,,,,0,,,48,0
42480,note_on,0,0,2,,,,,,,,,0,,,60,40
42480,note_on,120,0,2,,,,,,,,,0,,,64,48
42600,note_on,120,0,2,,,,,,,,,0,,,60,0
42600,note_on,0,0,2,,,,,,,,,0,,,64,0
42720,note_on,0,0,1,,,,,,,,,0,,,67,0
42720,set_tempo,480,1,0,,,,,,611933,,,,,,,
42720,note_on,480,0,1,,,,,,,,,0,,,72,0
42720,note_on,0,0,1,,,,,,,,,0,,,70,0
42720,note_on,120,0,2,,,,,,,,,0,,,48,52
42720,note_on,0,0,1,,,,,,,,,0,,,70,57
42720,note_on,0,0,1,,,,,,,,,0,,,72,57
42720,note_on,0,0,1,,,,,,,,,0,,,76,64
42720,note_on,0,0,1,,,,,,,,,0,,,67,57
42840,note_on,120,0,2,,,,,,,,,0,,,48,0
42960,note_on,0,0,2,,,,,,,,,0,,,60,40
42960,note_on,120,0,2,,,,,,,,,0,,,64,48
43080,note_on,120,0,2,,,,,,,,,0,,,60,0
43080,note_on,0,0,2,,,,,,,,,0,,,64,0
43140,note_on,0,0,1,,,,,,,,,0,,,77,57
43140,note_on,420,0,1,,,,,,,,,0,,,76,0
43140,note_on,0,0,1,,,,,,,,,0,,,67,0
43140,note_on,0,0,1,,,,,,,,,0,,,70,0
43140,note_on,0,0,1,,,,,,,,,0,,,72,0
43200,note_on,120,0,2,,,,,,,,,0,,,48,45
43200,note_on,0,0,1,,,,,,,,,0,,,80,73
43200,note_on,0,0,1,,,,,,,,,0,,,72,55
43200,note_on,0,0,1,,,,,,,,,0,,,68,55
43200,note_on,60,0,1,,,,,,,,,0,,,77,0
43320,note_on,120,0,2,,,,,,,,,0,,,48,0
43440,note_on,120,0,2,,,,,,,,,0,,,65,38
43440,note_on,0,0,2,,,,,,,,,0,,,60,32
43440,note_on,0,0,1,,,,,,,,,0,,,68,46
43440,note_on,0,0,1,,,,,,,,,0,,,68,0
43440,note_on,0,0,1,,,,,,,,,0,,,72,0
43440,note_on,240,0,1,,,,,,,,,0,,,80,0
43440,note_on,0,0,1,,,,,,,,,0,,,72,46
43440,note_on,0,0,1,,,,,,,,,0,,,80,62
43560,note_on,120,0,1,,,,,,,,,0,,,80,0
43560,note_on,0,0,1,,,,,,,,,0,,,79,62
43560,note_on,0,0,2,,,,,,,,,0,,,65,0
43560,note_on,120,0,2,,,,,,,,,0,,,60,0
43680,set_tempo,960,1,0,,,,,,622213,,,,,,,
43680,note_on,120,0,2,,,,,,,,,0,,,53,45
43680,note_on,120,0,1,,,,,,,,,0,,,79,0
43680,note_on,0,0,1,,,,,,,,,0,,,77,62
43800,set_tempo,120,1,0,,,,,,674992,,,,,,,
43800,note_on,120,0,2,,,,,,,,,0,,,53,0
43920,note_on,0,0,1,,,,,,,,,0,,,75,56
43920,note_on,0,0,2,,,,,,,,,0,,,60,32
43920,set_tempo,120,1,0,,,,,,622213,,,,,,,
43920,note_on,240,0,1,,,,,,,,,0,,,77,0
43920,note_on,120,0,2,,,,,,,,,0,,,65,38
44040,note_on,120,0,1,,,,,,,,,0,,,75,0
44040,note_on,0,0,1,,,,,,,,,0,,,73,56
44040,note_on,0,0,2,,,,,,,,,0,,,65,0
44040,note_on,120,0,2,,,,,,,,,0,,,60,0
44160,note_on,0,0,1,,,,,,,,,0,,,68,45
44160,note_on,0,0,1,,,,,,,,,0,,,72,51
44160,note_on,120,0,1,,,,,,,,,0,,,73,0
44160,note_on,0,0,1,,,,,,,,,0,,,72,0
44160,note_on,0,0,1,,,,,,,,,0,,,68,0
44160,set_tempo,240,1,0,,,,,,709471,,,,,,,
44160,note_on,120,0,2,,,,,,,,,0,,,44,46
44280,note_on,120,0,2,,,,,,,,,0,,,44,0
44400,note_on,120,0,2,,,,,,,,,0,,,60,40
44400,note_on,0,0,2,,,,,,,,,0,,,56,34
44520,note_on,120,0,2,,,,,,,,,0,,,56,0
44520,note_on,0,0,2,,,,,,,,,0,,,60,0
44640,set_tempo,480,1,0,,,,,,732780,,,,,,,
44640,note_on,0,0,1,,,,,,,,,0,,,72,55
44640,note_on,120,0,2,,,,,,,,,0,,,45,45
44640,note_on,480,0,1,,,,,,,,,0,,,72,0
44640,note_on,0,0,1,,,,,,,,,0,,,68,0
44640,note_on,0,0,1,,,,,,,,,0,,,66,49
44760,note_on,120,0,2,,,,,,,,,0,,,45,0
44880,note_on,120,0,2,,,,,,,,,0,,,54,33
44880,note_on,0,0,2,,,,,,,,,0,,,60,39
45000,note_on,0,0,2,,,,,,,,,0,,,54,0
45000,note_on,120,0,2,,,,,,,,,0,,,60,0
45120,note_on,120,0,2,,,,,,,,,0,,,46,38
45120,note_on,480,0,1,,,,,,,,,0,,,72,0
45120,note_on,0,0,1,,,,,,,,,0,,,66,0
45120,note_on,0,0,1,,,,,,,,,0,,,72,57
45120,set_tempo,480,1,0,,,,,,647598,,,,,,,
45120,note_on,0,0,1,,,,,,,,,0,,,65,51
45240,note_on,120,0,1,,,,,,,,,0,,,72,0
45240,note_on,120,0,2,,,,,,,,,0,,,46,0
45240,note_on,0,0,1,,,,,,,,,0,,,73,60
45360,note_on,120,0,2,,,,,,,,,0,,,58,33
45360,note_on,0,0,2,,,,,,,,,0,,,53,27
45360,note_on,120,0,1,,,,,,,,,0,,,73,0
45360,note_on,0,0,1,,,,,,,,,0,,,75,62
45480,note_on,120,0,2,,,,,,,,,0,,,53,0
45480,note_on,0,0,1,,,,,,,,,0,,,73,58
45480,note_on,0,0,2,,,,,,,,,0,,,58,0
45480,note_on,120,0,1,,,,,,,,,0,,,75,0
45600,note_on,120,0,1,,,,,,,,,0,,,73,0
45600,note_on,0,0,1,,,,,,,,,0,,,65,52
45600,note_on,0,0,1,,,,,,,,,0,,,73,58
45600,note_on,120,0,2,,,,,,,,,0,,,37,38
45600,set_tempo,480,1,0,,,,,,655165,,,,,,,
45600,note_on,0,0,1,,,,,,,,,0,,,65,0
45720,note_on,120,0,2,,,,,,,,,0,,,37,0
45840,note_on,120,0,2,,,,,,,,,0,,,49,27
45840,note_on,0,0,2,,,,,,,,,0,,,53,33
45840,note_on,0,0,1,,,,,,,,,0,,,65,0
45840,note_on,240,0,1,,,,,,,,,0,,,73,0
45840,note_on,0,0,1,,,,,,,,,0,,,63,46
45840,note_on,0,0,1,,,,,,,,,0,,,72,52
45960,note_on,0,0,1,,,,,,,,,0,,,61,45
45960,note_on,0,0,1,,,,,,,,,0,,,63,0
45960,note_on,120,0,1,,,,,,,,,0,,,72,0
45960,note_on,120,0,2,,,,,,,,,0,,,53,0
45960,note_on,0,0,1,,,,,,,,,0,,,70,50
45960,note_on,0,0,2,,,,,,,,,0,,,49,0
46080,note_on,120,0,1,,,,,,,,,0,,,70,0
46080,note_on,0,0,1,,,,,,,,,0,,,61,0
46080,note_on,0,0,1,,,,,,,,,0,,,60,43
46080,note_on,0,0,1,,,,,,,,,0,,,68,48
46080,note_on,120,0,2,,,,,,,,,0,,,39,29
46200,note_on,120,0,2,,,,,,,,,0,,,39,0
46320,note_on,0,0,1,,,,,,,,,0,,,68,48
46320,note_on,0,0,2,,,,,,,,,0,,,51,20
46320,note_on,0,0,1,,,,,,,,,0,,,60,43
46320,note_on,0,0,1,,,,,,,,,0,,,60,0
46320,note_on,240,0,1,,,,,,,,,0,,,68,0
46320,note_on,120,0,2,,,,,,,,,0,,,56,25
46440,note_on,0,0,2,,,,,,,,,0,,,56,0
46440,note_on,120,0,2,,,,,,,,,0,,,51,0
46560,set_tempo,960,1,0,,,,,,622213,,,,,,,
46560,note_on,240,0,1,,,,,,,,,0,,,68,0
46560,note_on,0,0,1,,,,,,,,,0,,,60,0
46560,note_on,0,0,1,,,,,,,,,0,,,60,38
46560,note_on,0,0,1,,,,,,,,,0,,,68,43
46560,note_on,120,0,2,,,,,,,,,0,,,39,29
46680,note_on,120,0,1,,,,,,,,,0,,,68,0
46680,note_on,0,0,1,,,,,,,,,0,,,60,0
46680,note_on,0,0,1,,,,,,,,,0,,,61,39
46680,note_on,0,0,1,,,,,,,,,0,,,70,44
46680,note_on,120,0,2,,,,,,,,,0,,,39,0
46800,note_on,0,0,2,,,,,,,,,0,,,51,20
46800,note_on,120,0,2,,,,,,,,,0,,,55,25
46800,note_on,0,0,1,,,,,,,,,0,,,61,0
46800,note_on,0,0,1,,,,,,,,,0,,,72,45
46800,note_on,0,0,1,,,,,,,,,0,,,63,40
46800,note_on,120,0,1,,,,,,,,,0,,,70,0
46920,set_tempo,360,1,0,,,,,,700525,,,,,,,
46920,note_on,0,0,1,,,,,,,,,0,,,70,44
46920,note_on,0,0,1,,,,,,,,,0,,,63,0
46920,note_on,0,0,1,,,,,,,,,0,,,61,39
46920,note_on,120,0,2,,,,,,,,,0,,,51,0
46920,note_on,0,0,2,,,,,,,,,0,,,55,0
46920,note_on,120,0,1,,,,,,,,,0,,,72,0
47040,note_on,120,0,2,,,,,,,,,0,,,44,27
47040,set_tempo,120,1,0,,,,,,629261,,,,,,,
47040,note_on,0,0,1,,,,,,,,,0,,,68,43
47040,note_on,0,0,1,,,,,,,,,0,,,60,38
47040,note_on,0,0,1,,,,,,,,,0,,,61,0
47040,note_on,120,0,1,,,,,,,,,0,,,70,0
47047,control_change,7,0,2,,,,,,,,,0,64,127,,
47280,note_on,233,0,2,,,,,,,,,0,,,44,0
47280,note_on,0,0,2,,,,,,,,,0,,,56,21
47280,note_on,0,0,2,,,,,,,,,0,,,51,18
47481,control_change,201,0,2,,,,,,,,,0,64,0,,
47520,note_on,0,0,1,,,,,,,,,0,,,60,0
47520,note_on,0,0,1,,,,,,,,,0,,,68,43
47520,note_on,0,0,1,,,,,,,,,0,,,60,38
47520,note_on,480,0,1,,,,,,,,,0,,,68,0
47520,note_on,39,0,2,,,,,,,,,0,,,51,0
47520,note_on,0,0,2,,,,,,,,,0,,,56,0
47520,note_on,0,0,2,,,,,,,,,0,,,44,27
47538,control_change,18,0,2,,,,,,,,,0,64,127,,
47760,note_on,222,0,2,,,,,,,,,0,,,44,0
47760,note_on,0,0,2,,,,,,,,,0,,,56,21
47760,note_on,0,0,2,,,,,,,,,0,,,51,18
47940,note_on,0,0,1,,,,,,,,,0,,,70,48
47940,note_on,0,0,2,,,,,,,,,0,,,56,0
47940,note_on,420,0,1,,,,,,,,,0,,,68,0
47940,note_on,0,0,1,,,,,,,,,0,,,60,0
47940,note_on,180,0,2,,,,,,,,,0,,,51,0
47961,control_change,21,0,2,,,,,,,,,0,64,0,,
48000,marker,0,1,0,,,,,,,,,,,,,
48000,set_tempo,960,1,0,,,,,,662910,,,,,,,
48000,note_on,60,0,1,,,,,,,,,0,,,70,0
48000,note_on,39,0,2,,,,,,,,,0,,,53,27
48000,note_on,0,0,1,,,,,,,,,0,,,68,46
48120,note_on,120,0,2,,,,,,,,,0,,,53,0
48120,note_on,120,0,1,,,,,,,,,0,,,68,0
48240,set_tempo,240,1,0,,,,,,636470,,,,,,,
48240,note_on,0,0,2,,,,,,,,,0,,,60,18
48240,note_on,120,0,2,,,,,,,,,0,,,65,22
48240,note_on,120,0,1,,,,,,,,,0,,,68,40
48360,note_on,120,0,1,,,,,,,,,0,,,68,0
48360,note_on,0,0,2,,,,,,,,,0,,,65,0
48360,note_on,120,0,2,,,,,,,,,0,,,60,0
48360,note_on,0,0,1,,,,,,,,,0,,,70,40
48480,note_on,0,0,1,,,,,,,,,0,,,68,45
48480,set_tempo,240,1,0,,,,,,658979,,,,,,,
48480,note_on,120,0,2,,,,,,,,,0,,,53,27
48480,note_on,120,0,1,,,,,,,,,0,,,70,0
48600,note_on,120,0,2,,,,,,,,,0,,,53,0
48600,note_on,120,0,1,,,,,,,,,0,,,68,0
48720,note_on,120,0,2,,,,,,,,,0,,,64,21
48720,note_on,0,0,2,,,,,,,,,0,,,60,18
48720,note_on,120,0,1,,,,,,,,,0,,,67,43
48840,note_on,120,0,2,,,,,,,,,0,,,60,0
48840,note_on,0,0,2,,,,,,,,,0,,,64,0
48840,note_on,0,0,1,,,,,,,,,0,,,68,39
48840,note_on,120,0,1,,,,,,,,,0,,,67,0
48900,note_on,0,0,1,,,,,,,,,0,,,70,39
48900,note_on,60,0,1,,,,,,,,,0,,,68,0
48960,note_on,60,0,1,,,,,,,,,0,,,70,0
48960,note_on,0,0,1,,,,,,,,,0,,,72,45
48960,note_on,0,0,1,,,,,,,,,0,,,68,40
48960,note_on,120,0,2,,,,,,,,,0,,,53,29
48960,set_tempo,480,1,0,,,,,,666889,,,,,,,
49080,note_on,120,0,2,,,,,,,,,0,,,53,0
49200,note_on,120,0,2,,,,,,,,,0,,,65,22
49200,note_on,0,0,2,,,,,,,,,0,,,60,18
49320,note_on,0,0,1,,,,,,,,,0,,,68,0
49320,note_on,0,0,1,,,,,,,,,0,,,68,39
49320,note_on,120,0,2,,,,,,,,,0,,,60,0
49320,note_on,360,0,1,,,,,,,,,0,,,72,0
49320,note_on,0,0,2,,,,,,,,,0,,,65,0
49380,note_on,60,0,1,,,,,,,,,0,,,68,0
49380,note_on,0,0,1,,,,,,,,,0,,,70,39
49440,set_tempo,480,1,0,,,,,,647598,,,,,,,
49440,note_on,60,0,1,,,,,,,,,0,,,70,0
49440,note_on,0,0,1,,,,,,,,,0,,,68,40
49440,note_on,0,0,1,,,,,,,,,0,,,72,45
49440,note_on,120,0,2,,,,,,,,,0,,,53,29
49560,note_on,120,0,2,,,,,,,,,0,,,53,0
49680,note_on,0,0,2,,,,,,,,,0,,,60,19
49680,note_on,120,0,2,,,,,,,,,0,,,65,23
49800,note_on,120,0,2,,,,,,,,,0,,,60,0
49800,note_on,0,0,2,,,,,,,,,0,,,65,0
49860,note_on,420,0,1,,,,,,,,,0,,,72,0
49860,note_on,0,0,1,,,,,,,,,0,,,68,0
49860,note_on,0,0,1,,,,,,,,,0,,,70,39
49920,set_tempo,480,1,0,,,,,,640137,,,,,,,
49920,note_on,60,0,1,,,,,,,,,0,,,70,0
49920,note_on,0,0,1,,,,,,,,,0,,,68,46
49920,note_on,120,0,2,,,,,,,,,0,,,53,27
50040,note_on,120,0,2,,,,,,,,,0,,,53,0
50040,note_on,120,0,1,,,,,,,,,0,,,68,0
50160,set_tempo,240,1,0,,,,,,622213,,,,,,,
50160,note_on,120,0,1,,,,,,,,,0,,,68,42
50160,note_on,0,0,2,,,,,,,,,0,,,60,19
50160,note_on,120,0,2,,,,,,,,,0,,,65,23
50280,note_on,0,0,1,,,,,,,,,0,,,70,42
50280,note_on,120,0,1,,,,,,,,,0,,,68,0
50280,note_on,120,0,2,,,,,,,,,0,,,60,0
50280,note_on,0,0,2,,,,,,,,,0,,,65,0
50400,note_on,0,0,1,,,,,,,,,0,,,68,45
50400,note_on,120,0,1,,,,,,,,,0,,,70,0
50400,set_tempo,240,1,0,,,,,,643846,,,,,,,
50400,note_on,120,0,2,,,,,,,,,0,,,53,27
50520,note_on,120,0,1,,,,,,,,,0,,,68,0
50520,note_on,120,0,2,,,,,,,,,0,,,53,0
50640,note_on,0,0,2,,,,,,,,,0,,,60,19
50640,note_on,120,0,2,,,,,,,,,0,,,64,23
50640,note_on,0,0,1,,,,,,,,,0,,,72,42
50640,note_on,120,0,1,,,,,,,,,0,,,67,37
50760,note_on,120,0,2,,,,,,,,,0,,,60,0
50760,note_on,0,0,2,,,,,,,,,0,,,64,0
50760,note_on,0,0,1,,,,,,,,,0,,,67,0
50760,note_on,120,0,1,,,,,,,,,0,,,72,0
50820,note_on,60,0,1,,,,,,,,,0,,,72,39
50880,note_on,60,0,1,,,,,,,,,0,,,72,0
50880,note_on,0,0,1,,,,,,,,,0,,,77,49
50880,note_on,0,0,1,,,,,,,,,0,,,68,44
50880,set_tempo,480,1,0,,,,,,643846,,,,,,,
50880,note_on,120,0,2,,,,,,,,,0,,,53,30
51000,note_on,120,0,2,,,,,,,,,0,,,53,0
51120,note_on,0,0,2,,,,,,,,,0,,,60,19
51120,note_on,120,0,2,,,,,,,,,0,,,65,24
51240,note_on,120,0,2,,,,,,,,,0,,,60,0
51240,note_on,0,0,2,,,,,,,,,0,,,65,0
51300,note_on,0,0,1,,,,,,,,,0,,,72,39
51300,note_on,420,0,1,,,,,,,,,0,,,68,0
51300,note_on,0,0,1,,,,,,,,,0,,,77,0
51360,note_on,0,0,1,,,,,,,,,0,,,68,43
51360,note_on,0,0,1,,,,,,,,,0,,,77,48
51360,note_on,120,0,2,,,,,,,,,0,,,53,30
51360,note_on,60,0,1,,,,,,,,,0,,,72,0
51480,note_on,120,0,2,,,,,,,,,0,,,53,0
51600,note_on,120,0,2,,,,,,,,,0,,,65,24
51600,note_on,0,0,2,,,,,,,,,0,,,60,19
51720,note_on,120,0,2,,,,,,,,,0,,,60,0
51720,note_on,0,0,2,,,,,,,,,0,,,65,0
51780,note_on,420,0,1,,,,,,,,,0,,,78,34
51840,note_on,60,0,1,,,,,,,,,0,,,78,0
51840,note_on,0,0,1,,,,,,,,,0,,,68,0
51840,note_on,0,0,1,,,,,,,,,0,,,68,38
51840,note_on,0,0,1,,,,,,,,,0,,,77,43
51840,set_tempo,960,1,0,,,,,,670916,,,,,,,
51840,note_on,0,0,1,,,,,,,,,0,,,77,0
51840,note_on,120,0,2,,,,,,,,,0,,,49,27
51863,control_change,23,0,2,,,,,,,,,0,64,127,,
52080,note_on,0,0,2,,,,,,,,,0,,,65,21
52080,note_on,0,0,1,,,,,,,,,0,,,68,33
52080,note_on,0,0,1,,,,,,,,,0,,,68,0
52080,note_on,240,0,1,,,,,,,,,0,,,77,0
52080,note_on,217,0,2,,,,,,,,,0,,,49,0
52080,note_on,0,0,2,,,,,,,,,0,,,61,18
52080,note_on,0,0,1,,,,,,,,,0,,,77,37
52177,control_change,97,0,2,,,,,,,,,0,64,0,,
52200,note_on,120,0,1,,,,,,,,,0,,,77,0
52200,note_on,0,0,1,,,,,,,,,0,,,78,37
52320,note_on,143,0,2,,,,,,,,,0,,,61,0
52320,note_on,0,0,1,,,,,,,,,0,,,69,35
52320,note_on,0,0,1,,,,,,,,,0,,,68,0
52320,note_on,120,0,1,,,,,,,,,0,,,78,0
52320,note_on,0,0,2,,,,,,,,,0,,,65,0
52320,set_tempo,480,1,0,,,,,,687521,,,,,,,
52320,note_on,0,0,2,,,,,,,,,0,,,48,27
52320,note_on,0,0,1,,,,,,,,,0,,,77,39
52343,control_change,23,0,2,,,,,,,,,0,64,127,,
52560,note_on,0,0,2,,,,,,,,,0,,,63,18
52560,note_on,0,0,1,,,,,,,,,0,,,69,0
52560,note_on,217,0,2,,,,,,,,,0,,,48,0
52560,note_on,0,0,1,,,,,,,,,0,,,69,33
52560,note_on,0,0,1,,,,,,,,,0,,,77,37
52560,note_on,0,0,2,,,,,,,,,0,,,60,18
52560,note_on,0,0,2,,,,,,,,,0,,,65,21
52560,note_on,240,0,1,,,,,,,,,0,,,77,0
52731,control_change,171,0,2,,,,,,,,,0,64,0,,
52800,note_on,240,0,1,,,,,,,,,0,,,77,0
52800,note_on,0,0,1,,,,,,,,,0,,,69,0
52800,note_on,0,0,1,,,,,,,,,0,,,70,35
52800,note_on,0,0,2,,,,,,,,,0,,,65,0
52800,set_tempo,480,1,0,,,,,,737644,,,,,,,
52800,note_on,0,0,1,,,,,,,,,0,,,77,39
52800,note_on,69,0,2,,,,,,,,,0,,,60,0
52800,note_on,0,0,2,,,,,,,,,0,,,63,0
52800,note_on,0,0,2,,,,,,,,,0,,,46,27
52814,control_change,14,0,2,,,,,,,,,0,64,127,,
53040,note_on,0,0,1,,,,,,,,,0,,,82,34
53040,note_on,0,0,2,,,,,,,,,0,,,61,16
53040,note_on,0,0,2,,,,,,,,,0,,,58,16
53040,note_on,0,0,2,,,,,,,,,0,,,65,19
53040,set_tempo,240,1,0,,,,,,883913,,,,,,,
53040,note_on,226,0,2,,,,,,,,,0,,,46,0
53040,note_on,240,0,1,,,,,,,,,0,,,77,0
53118,control_change,78,0,2,,,,,,,,,0,64,0,,
53160,note_on,120,0,1,,,,,,,,,0,,,82,0
53160,note_on,0,0,1,,,,,,,,,0,,,70,0
53280,note_on,162,0,2,,,,,,,,,0,,,58,0
53280,note_on,0,0,2,,,,,,,,,0,,,61,0
53280,note_on,0,0,2,,,,,,,,,0,,,65,0
53280,set_tempo,240,1,0,,,,,,807103,,,,,,,
53280,note_on,0,0,1,,,,,,,,,0,,,77,33
53280,note_on,120,0,1,,,,,,,,,0,,,68,29
53280,note_on,0,0,2,,,,,,,,,0,,,53,25
53322,control_change,42,0,2,,,,,,,,,0,64,127,,
53520,note_on,0,0,2,,,,,,,,,0,,,65,19
53520,note_on,0,0,2,,,,,,,,,0,,,60,16
53520,note_on,198,0,2,,,,,,,,,0,,,53,0
53640,control_change,120,0,2,,,,,,,,,0,64,0,,
53760,note_on,120,0,2,,,,,,,,,0,,,60,0
53760,note_on,0,0,2,,,,,,,,,0,,,48,25
53760,note_on,0,0,1,,,,,,,,,0,,,72,33
53760,note_on,0,0,1,,,,,,,,,0,,,68,29
53760,note_on,0,0,1,,,,,,,,,0,,,68,0
53760,note_on,480,0,1,,,,,,,,,0,,,77,0
53760,set_tempo,480,1,0,,,,,,679117,,,,,,,
53760,note_on,0,0,2,,,,,,,,,0,,,65,0
53880,note_on,0,0,1,,,,,,,,,0,,,70,31
53880,note_on,0,0,1,,,,,,,,,0,,,67,27
53880,note_on,0,0,1,,,,,,,,,0,,,68,0
53880,note_on,120,0,1,,,,,,,,,0,,,72,0
53880,note_on,120,0,2,,,,,,,,,0,,,48,0
54000,note_on,120,0,1,,,,,,,,,0,,,70,0
54000,note_on,0,0,1,,,,,,,,,0,,,68,31
54000,note_on,0,0,1,,,,,,,,,0,,,65,27
54000,note_on,0,0,1,,,,,,,,,0,,,67,0
54000,note_on,120,0,2,,,,,,,,,0,,,65,21
54000,note_on,0,0,2,,,,,,,,,0,,,60,18
54120,note_on,0,0,1,,,,,,,,,0,,,70,31
54120,note_on,0,0,1,,,,,,,,,0,,,67,27
54120,note_on,0,0,1,,,,,,,,,0,,,65,0
54120,note_on,120,0,2,,,,,,,,,0,,,60,0
54120,note_on,0,0,2,,,,,,,,,0,,,65,0
54120,note_on,120,0,1,,,,,,,,,0,,,68,0
54240,note_on,0,0,1,,,,,,,,,0,,,72,33
54240,set_tempo,480,1,0,,,,,,629261,,,,,,,
54240,note_on,0,0,1,,,,,,,,,0,,,68,29
54240,note_on,0,0,1,,,,,,,,,0,,,67,0
54240,note_on,120,0,1,,,,,,,,,0,,,70,0
54240,note_on,120,0,2,,,,,,,,,0,,,48,24
54360,note_on,120,0,1,,,,,,,,,0,,,72,0
54360,note_on,0,0,1,,,,,,,,,0,,,73,31
54360,note_on,120,0,2,,,,,,,,,0,,,48,0
54480,note_on,0,0,1,,,,,,,,,0,,,67,27
54480,note_on,0,0,1,,,,,,,,,0,,,72,31
54480,note_on,0,0,1,,,,,,,,,0,,,70,27
54480,note_on,0,0,1,,,,,,,,,0,,,68,0
54480,note_on,120,0,1,,,,,,,,,0,,,73,0
54480,set_tempo,240,1,0,,,,,,629261,,,,,,,
54480,note_on,120,0,2,,,,,,,,,0,,,64,19
54480,note_on,0,0,2,,,,,,,,,0,,,60,16
54520,set_tempo,40,1,0,,,,,,632845,,,,,,,
54600,note_on,120,0,1,,,,,,,,,0,,,72,0
54600,note_on,0,0,2,,,,,,,,,0,,,64,0
54600,note_on,120,0,2,,,,,,,,,0,,,60,0
54600,note_on,0,0,1,,,,,,,,,0,,,76,31
54720,note_on,120,0,1,,,,,,,,,0,,,76,0
54720,note_on,0,0,1,,,,,,,,,0,,,67,0
54720,note_on,0,0,1,,,,,,,,,0,,,70,0
54720,note_on,0,0,1,,,,,,,,,0,,,77,34
54720,note_on,0,0,1,,,,,,,,,0,,,68,30
54720,set_tempo,200,1,0,,,,,,651324,,,,,,,
54720,note_on,0,0,1,,,,,,,,,0,,,72,30
54720,note_on,120,0,2,,,,,,,,,0,,,53,27
54840,note_on,120,0,2,,,,,,,,,0,,,53,0
54960,note_on,0,0,2,,,,,,,,,0,,,60,18
54960,note_on,120,0,2,,,,,,,,,0,,,65,21
55080,note_on,0,0,2,,,,,,,,,0,,,65,0
55080,note_on,120,0,2,,,,,,,,,0,,,60,0
55200,note_on,0,0,1,,,,,,,,,0,,,72,30
55200,note_on,0,0,1,,,,,,,,,0,,,77,0
55200,note_on,0,0,1,,,,,,,,,0,,,72,0
55200,note_on,120,0,2,,,,,,,,,0,,,53,24
55200,note_on,0,0,1,,,,,,,,,0,,,77,34
55200,note_on,0,0,1,,,,,,,,,0,,,68,30
55200,set_tempo,480,1,0,,,,,,679117,,,,,,,
55200,note_on,480,0,1,,,,,,,,,0,,,68,0
55320,note_on,120,0,2,,,,,,,,,0,,,53,0
55440,note_on,120,0,2,,,,,,,,,0,,,65,22
55440,note_on,0,0,2,,,,,,,,,0,,,60,18
55560,note_on,0,0,2,,,,,,,,,0,,,65,0
55560,note_on,120,0,2,,,,,,,,,0,,,60,0
55560,set_tempo,360,1,0,,,,,,640137,,,,,,,
55600,note_on,0,0,1,,,,,,,,,0,,,68,0
55600,note_on,0,0,1,,,,,,,,,0,,,72,0
55600,note_on,400,0,1,,,,,,,,,0,,,77,0
55620,note_on,20,0,1,,,,,,,,,0,,,80,34
55680,note_on,0,0,1,,,,,,,,,0,,,79,39
55680,note_on,0,0,1,,,,,,,,,0,,,76,35
55680,set_tempo,120,1,0,,,,,,640137,,,,,,,
55680,note_on,60,0,1,,,,,,,,,0,,,80,0
55680,note_on,120,0,2,,,,,,,,,0,,,46,24
55800,note_on,120,0,2,,,,,,,,,0,,,46,0
55920,note_on,0,0,1,,,,,,,,,0,,,79,37
55920,note_on,240,0,1,,,,,,,,,0,,,79,0
55920,note_on,0,0,1,,,,,,,,,0,,,76,33
55920,note_on,0,0,1,,,,,,,,,0,,,76,0
55920,note_on,120,0,2,,,,,,,,,0,,,61,21
55920,note_on,0,0,2,,,,,,,,,0,,,58,18
56040,note_on,120,0,1,,,,,,,,,0,,,79,0
56040,note_on,0,0,2,,,,,,,,,0,,,61,0
56040,note_on,0,0,1,,,,,,,,,0,,,80,37
56040,note_on,120,0,2,,,,,,,,,0,,,58,0
56160,note_on,120,0,2,,,,,,,,,0,,,46,24
56160,note_on,0,0,1,,,,,,,,,0,,,79,39
56160,note_on,120,0,1,,,,,,,,,0,,,80,0
56280,note_on,120,0,2,,,,,,,,,0,,,46,0
56400,note_on,120,0,2,,,,,,,,,0,,,61,25
56400,note_on,0,0,2,,,,,,,,,0,,,58,20
56400,note_on,240,0,1,,,,,,,,,0,,,79,0
56400,note_on,0,0,1,,,,,,,,,0,,,76,0
56400,note_on,0,0,1,,,,,,,,,0,,,79,40
56400,note_on,0,0,1,,,,,,,,,0,,,76,36
56520,note_on,120,0,2,,,,,,,,,0,,,58,0
56520,note_on,0,0,2,,,,,,,,,0,,,61,0
56640,note_on,240,0,1,,,,,,,,,0,,,76,0
56640,note_on,0,0,1,,,,,,,,,0,,,77,40
56640,note_on,0,0,1,,,,,,,,,0,,,82,45
56640,note_on,0,0,1,,,,,,,,,0,,,79,0
56640,note_on,120,0,2,,,,,,,,,0,,,47,29
56640,set_tempo,960,1,0,,,,,,709471,,,,,,,
56880,note_on,0,0,2,,,,,,,,,0,,,59,23
56880,note_on,0,0,1,,,,,,,,,0,,,80,43
56880,note_on,240,0,1,,,,,,,,,0,,,82,0
56880,set_tempo,240,1,0,,,,,,679117,,,,,,,
56880,note_on,0,0,2,,,,,,,,,0,,,62,27
56880,note_on,240,0,2,,,,,,,,,0,,,47,0
57120,note_on,240,0,2,,,,,,,,,0,,,59,0
57120,note_on,0,0,2,,,,,,,,,0,,,62,0
57120,note_on,0,0,2,,,,,,,,,0,,,47,24
57360,note_on,0,0,1,,,,,,,,,0,,,77,0
57360,note_on,480,0,1,,,,,,,,,0,,,80,0
57360,note_on,0,0,1,,,,,,,,,0,,,79,39
57360,note_on,0,0,2,,,,,,,,,0,,,59,19
57360,note_on,0,0,2,,,,,,,,,0,,,62,24
57360,note_on,240,0,2,,,,,,,,,0,,,47,0
57360,set_tempo,480,1,0,,,,,,643846,,,,,,,
57480,note_on,0,0,2,,,,,,,,,0,,,62,0
57480,note_on,120,0,2,,,,,,,,,0,,,59,0
57480,note_on,120,0,1,,,,,,,,,0,,,79,0
57480,note_on,0,0,1,,,,,,,,,0,,,77,39
57540,note_on,60,0,1,,,,,,,,,0,,,77,0
57540,note_on,0,0,1,,,,,,,,,0,,,73,34
57600,note_on,120,0,2,,,,,,,,,0,,,48,27
57600,note_on,0,0,1,,,,,,,,,0,,,72,43
57600,note_on,0,0,1,,,,,,,,,0,,,68,38
57600,note_on,60,0,1,,,,,,,,,0,,,73,0
57720,note_on,0,0,1,,,,,,,,,0,,,68,0
57720,note_on,120,0,1,,,,,,,,,0,,,72,0
57720,note_on,120,0,2,,,,,,,,,0,,,48,0
57840,note_on,0,0,2,,,,,,,,,0,,,60,19
57840,note_on,0,0,1,,,,,,,,,0,,,72,39
57840,note_on,120,0,2,,,,,,,,,0,,,65,24
57840,note_on,120,0,1,,,,,,,,,0,,,68,35
57960,note_on,120,0,1,,,,,,,,,0,,,72,0
57960,note_on,0,0,1,,,,,,,,,0,,,73,39
57960,note_on,0,0,2,,,,,,,,,0,,,65,0
57960,note_on,120,0,2,,,,,,,,,0,,,60,0
58080,note_on,120,0,1,,,,,,,,,0,,,73,0
58080,note_on,0,0,1,,,,,,,,,0,,,72,39
58080,set_tempo,720,1,0,,,,,,679117,,,,,,,
58080,note_on,120,0,2,,,,,,,,,0,,,48,27
58200,note_on,120,0,2,,,,,,,,,0,,,48,0
58320,note_on,240,0,1,,,,,,,,,0,,,72,0
58320,note_on,0,0,1,,,,,,,,,0,,,76,36
58320,note_on,0,0,1,,,,,,,,,0,,,72,32
58320,note_on,0,0,1,,,,,,,,,0,,,70,32
58320,note_on,0,0,1,,,,,,,,,0,,,68,0
58320,note_on,0,0,1,,,,,,,,,0,,,67,32
58320,note_on,120,0,2,,,,,,,,,0,,,64,24
58320,note_on,0,0,2,,,,,,,,,0,,,60,19
58320,set_tempo,240,1,0,,,,,,643846,,,,,,,
58440,note_on,120,0,1,,,,,,,,,0,,,76,0
58440,note_on,0,0,1,,,,,,,,,0,,,72,0
58440,note_on,0,0,1,,,,,,,,,0,,,70,0
58440,note_on,120,0,2,,,,,,,,,0,,,60,0
58440,note_on,0,0,2,,,,,,,,,0,,,64,0
58440,note_on,0,0,1,,,,,,,,,0,,,67,0
58560,set_tempo,240,1,0,,,,,,662910,,,,,,,
58560,note_on,0,0,1,,,,,,,,,0,,,77,42
58560,note_on,0,0,1,,,,,,,,,0,,,72,37
58560,note_on,120,0,1,,,,,,,,,0,,,68,37
58560,note_on,120,0,2,,,,,,,,,0,,,53,27
58571,control_change,11,0,2,,,,,,,,,0,64,127,,
58800,note_on,0,0,2,,,,,,,,,0,,,60,19
58800,note_on,0,0,2,,,,,,,,,0,,,65,23
58800,note_on,229,0,2,,,,,,,,,0,,,53,0
59005,control_change,205,0,2,,,,,,,,,0,64,0,,
59033,control_change,28,0,2,,,,,,,,,0,64,127,,
59040,note_on,0,0,2,,,,,,,,,0,,,53,27
59040,note_on,0,0,1,,,,,,,,,0,,,77,42
59040,note_on,0,0,1,,,,,,,,,0,,,72,37
59040,note_on,0,0,1,,,,,,,,,0,,,68,37
59040,set_tempo,480,1,0,,,,,,704970,,,,,,,
59040,note_on,0,0,1,,,,,,,,,0,,,68,0
59040,note_on,0,0,1,,,,,,,,,0,,,72,0
59040,note_on,480,0,1,,,,,,,,,0,,,77,0
59040,note_on,7,0,2,,,,,,,,,0,,,60,0
59040,note_on,0,0,2,,,,,,,,,0,,,65,0
59280,note_on,0,0,2,,,,,,,,,0,,,60,19
59280,note_on,0,0,2,,,,,,,,,0,,,65,24
59280,note_on,240,0,2,,,,,,,,,0,,,53,0
59414,control_change,134,0,2,,,,,,,,,0,64,0,,
59460,note_on,420,0,1,,,,,,,,,0,,,77,0
59460,note_on,0,0,1,,,,,,,,,0,,,72,0
59460,note_on,0,0,1,,,,,,,,,0,,,68,0
59460,note_on,0,0,1,,,,,,,,,0,,,80,30
59520,note_on,0,0,1,,,,,,,,,0,,,76,30
59520,note_on,60,0,1,,,,,,,,,0,,,80,0
59520,note_on,0,0,1,,,,,,,,,0,,,79,34
59520,note_on,106,0,2,,,,,,,,,0,,,60,0
59520,set_tempo,480,1,0,,,,,,747477,,,,,,,
59520,note_on,0,0,2,,,,,,,,,0,,,46,21
59520,note_on,0,0,2,,,,,,,,,0,,,65,0
59640,note_on,120,0,2,,,,,,,,,0,,,46,0
59760,note_on,120,0,2,,,,,,,,,0,,,61,18
59760,note_on,0,0,2,,,,,,,,,0,,,58,15
59760,note_on,240,0,1,,,,,,,,,0,,,79,0
59760,note_on,0,0,1,,,,,,,,,0,,,76,0
59760,note_on,0,0,1,,,,,,,,,0,,,79,32
59760,note_on,0,0,1,,,,,,,,,0,,,76,28
59880,note_on,0,0,2,,,,,,,,,0,,,61,0
59880,note_on,120,0,2,,,,,,,,,0,,,58,0
59880,note_on,0,0,1,,,,,,,,,0,,,80,32
59880,note_on,120,0,1,,,,,,,,,0,,,79,0
60000,note_on,0,0,1,,,,,,,,,0,,,79,34
60000,note_on,120,0,2,,,,,,,,,0,,,46,21
60000,note_on,120,0,1,,,,,,,,,0,,,80,0
60120,note_on,120,0,2,,,,,,,,,0,,,46,0
60240,note_on,120,0,2,,,,,,,,,0,,,61,22
60240,note_on,0,0,1,,,,,,,,,0,,,79,36
60240,note_on,0,0,1,,,,,,,,,0,,,76,32
60240,note_on,0,0,2,,,,,,,,,0,,,58,18
60240,note_on,0,0,1,,,,,,,,,0,,,76,0
60240,note_on,240,0,1,,,,,,,,,0,,,79,0
60360,note_on,0,0,2,,,,,,,,,0,,,61,0
60360,note_on,120,0,2,,,,,,,,,0,,,58,0
60480,set_tempo,960,1,0,,,,,,928218,,,,,,,
60480,note_on,120,0,2,,,,,,,,,0,,,47,27
60480,note_on,240,0,1,,,,,,,,,0,,,76,0
60480,note_on,0,0,1,,,,,,,,,0,,,79,0
60480,note_on,0,0,1,,,,,,,,,0,,,82,38
60480,note_on,0,0,1,,,,,,,,,0,,,77,34
60720,note_on,240,0,1,,,,,,,,,0,,,82,0
60720,set_tempo,240,1,0,,,,,,870196,,,,,,,
60720,note_on,0,0,2,,,,,,,,,0,,,59,19
60720,note_on,240,0,2,,,,,,,,,0,,,47,0
60720,note_on,0,0,2,,,,,,,,,0,,,62,24
60720,note_on,0,0,1,,,,,,,,,0,,,80,36
60960,note_on,0,0,2,,,,,,,,,0,,,62,0
60960,note_on,0,0,2,,,,,,,,,0,,,47,21
60960,note_on,240,0,2,,,,,,,,,0,,,59,0
61200,set_tempo,480,1,0,,,,,,789889,,,,,,,
61200,note_on,0,0,1,,,,,,,,,0,,,79,34
61200,note_on,0,0,1,,,,,,,,,0,,,77,0
61200,note_on,240,0,2,,,,,,,,,0,,,47,0
61200,note_on,0,0,2,,,,,,,,,0,,,62,21
61200,note_on,0,0,2,,,,,,,,,0,,,59,18
61200,note_on,480,0,1,,,,,,,,,0,,,80,0
61320,note_on,120,0,1,,,,,,,,,0,,,79,0
61320,note_on,120,0,2,,,,,,,,,0,,,59,0
61320,note_on,0,0,2,,,,,,,,,0,,,62,0
61320,note_on,0,0,1,,,,,,,,,0,,,77,34
61380,note_on,60,0,1,,,,,,,,,0,,,77,0
61380,note_on,0,0,1,,,,,,,,,0,,,74,31
61440,note_on,60,0,1,,,,,,,,,0,,,74,0
61440,note_on,0,0,1,,,,,,,,,0,,,69,34
61440,note_on,0,0,1,,,,,,,,,0,,,72,38
61440,set_tempo,240,1,0,,,,,,837521,,,,,,,
61440,note_on,120,0,2,,,,,,,,,0,,,48,24
61560,note_on,120,0,1,,,,,,,,,0,,,72,0
61560,note_on,0,0,1,,,,,,,,,0,,,69,0
61560,note_on,120,0,2,,,,,,,,,0,,,48,0
61680,note_on,0,0,2,,,,,,,,,0,,,60,18
61680,note_on,120,0,1,,,,,,,,,0,,,69,30
61680,note_on,0,0,1,,,,,,,,,0,,,72,34
61680,set_tempo,240,1,0,,,,,,795545,,,,,,,
61680,note_on,120,0,2,,,,,,,,,0,,,65,21
61800,note_on,0,0,2,,,,,,,,,0,,,65,0
61800,note_on,120,0,2,,,,,,,,,0,,,60,0
61800,note_on,0,0,1,,,,,,,,,0,,,74,34
61800,note_on,120,0,1,,,,,,,,,0,,,72,0
61920,note_on,120,0,2,,,,,,,,,0,,,48,24
61920,set_tempo,240,1,0,,,,,,709471,,,,,,,
61920,note_on,0,0,1,,,,,,,,,0,,,72,34
61920,note_on,120,0,1,,,,,,,,,0,,,74,0
62040,note_on,120,0,2,,,,,,,,,0,,,48,0
62160,note_on,120,0,2,,,,,,,,,0,,,64,21
62160,note_on,0,0,2,,,,,,,,,0,,,60,18
62160,note_on,0,0,1,,,,,,,,,0,,,70,30
62160,note_on,0,0,1,,,,,,,,,0,,,69,0
62160,note_on,240,0,1,,,,,,,,,0,,,72,0
62160,set_tempo,240,1,0,,,,,,658979,,,,,,,
62160,note_on,0,0,1,,,,,,,,,0,,,74,34
62280,note_on,0,0,2,,,,,,,,,0,,,64,0
62280,note_on,120,0,2,,,,,,,,,0,,,60,0
62340,note_on,180,0,1,,,,,,,,,0,,,74,0
62340,note_on,0,0,1,,,,,,,,,0,,,70,0
62340,note_on,0,0,1,,,,,,,,,0,,,74,31
62400,note_on,0,0,1,,,,,,,,,0,,,69,34
62400,set_tempo,240,1,0,,,,,,670916,,,,,,,
62400,note_on,0,0,1,,,,,,,,,0,,,72,38
62400,note_on,60,0,1,,,,,,,,,0,,,74,0
62400,note_on,120,0,2,,,,,,,,,0,,,48,24
62520,note_on,120,0,1,,,,,,,,,0,,,72,0
62520,note_on,0,0,1,,,,,,,,,0,,,69,0
62520,note_on,120,0,2,,,,,,,,,0,,,48,0
62640,note_on,120,0,1,,,,,,,,,0,,,69,30
62640,set_tempo,240,1,0,,,,,,643846,,,,,,,
62640,note_on,0,0,1,,,,,,,,,0,,,72,34
62640,note_on,0,0,2,,,,,,,,,0,,,60,18
62640,note_on,120,0,2,,,,,,,,,0,,,65,21
62760,note_on,120,0,2,,,,,,,,,0,,,60,0
62760,note_on,0,0,2,,,,,,,,,0,,,65,0
62760,note_on,120,0,1,,,,,,,,,0,,,72,0
62760,note_on,0,0,1,,,,,,,,,0,,,74,34
62880,set_tempo,240,1,0,,,,,,666889,,,,,,,
62880,note_on,120,0,2,,,,,,,,,0,,,48,24
62880,note_on,0,0,1,,,,,,,,,0,,,72,34
62880,note_on,120,0,1,,,,,,,,,0,,,74,0
63000,note_on,120,0,2,,,,,,,,,0,,,48,0
63120,note_on,0,0,1,,,,,,,,,0,,,70,30
63120,note_on,0,0,1,,,,,,,,,0,,,69,0
63120,set_tempo,240,1,0,,,,,,643846,,,,,,,
63120,note_on,120,0,2,,,,,,,,,0,,,64,21
63120,note_on,0,0,2,,,,,,,,,0,,,60,18
63120,note_on,240,0,1,,,,,,,,,0,,,72,0
63120,note_on,0,0,1,,,,,,,,,0,,,74,34
63240,note_on,0,0,2,,,,,,,,,0,,,64,0
63240,note_on,120,0,2,,,,,,,,,0,,,60,0
63300,note_on,180,0,1,,,,,,,,,0,,,74,0
63300,note_on,0,0,1,,,,,,,,,0,,,70,0
63300,note_on,0,0,1,,,,,,,,,0,,,74,31
63360,note_on,60,0,1,,,,,,,,,0,,,74,0
63360,note_on,0,0,1,,,,,,,,,0,,,69,34
63360,note_on,0,0,1,,,,,,,,,0,,,72,38
63360,note_on,120,0,2,,,,,,,,,0,,,48,24
63480,note_on,120,0,1,,,,,,,,,0,,,72,0
63480,note_on,0,0,1,,,,,,,,,0,,,69,0
63480,note_on,120,0,2,,,,,,,,,0,,,48,0
63600,note_on,120,0,2,,,,,,,,,0,,,65,21
63600,set_tempo,480,1,0,,,,,,605327,,,,,,,
63600,note_on,0,0,2,,,,,,,,,0,,,60,18
63600,note_on,120,0,1,,,,,,,,,0,,,69,30
63600,note_on,0,0,1,,,,,,,,,0,,,72,34
63720,note_on,120,0,1,,,,,,,,,0,,,72,0
63720,note_on,0,0,1,,,,,,,,,0,,,74,34
63720,note_on,0,0,2,,,,,,,,,0,,,65,0
63720,note_on,120,0,2,,,,,,,,,0,,,60,0
63840,set_tempo,240,1,0,,,,,,625717,,,,,,,
63840,note_on,120,0,1,,,,,,,,,0,,,74,0
63840,note_on,0,0,1,,,,,,,,,0,,,72,34
63840,note_on,120,0,2,,,,,,,,,0,,,48,24
63960,note_on,120,0,2,,,,,,,,,0,,,48,0
64080,note_on,0,0,1,,,,,,,,,0,,,76,38
64080,note_on,0,0,1,,,,,,,,,0,,,70,34
64080,note_on,0,0,2,,,,,,,,,0,,,60,18
64080,note_on,120,0,2,,,,,,,,,0,,,67,21
64080,note_on,240,0,1,,,,,,,,,0,,,72,0
64080,note_on,0,0,1,,,,,,,,,0,,,69,0
64200,note_on,120,0,2,,,,,,,,,0,,,60,0
64200,note_on,0,0,2,,,,,,,,,0,,,67,0
64320,note_on,120,0,2,,,,,,,,,0,,,41,27
64320,note_on,0,0,1,,,,,,,,,0,,,77,42
64320,note_on,0,0,1,,,,,,,,,0,,,69,37
64320,note_on,0,0,1,,,,,,,,,0,,,70,0
64320,note_on,240,0,1,,,,,,,,,0,,,76,0
64329,control_change,9,0,2,,,,,,,,,0,64,127,,
64560,note_on,0,0,2,,,,,,,,,0,,,48,18
64560,note_on,231,0,2,,,,,,,,,0,,,41,0
64560,note_on,0,0,2,,,,,,,,,0,,,53,21
64786,control_change,226,0,2,,,,,,,,,0,64,0,,
64800,note_on,0,0,1,,,,,,,,,0,,,77,42
64800,note_on,0,0,1,,,,,,,,,0,,,69,37
64800,note_on,0,0,1,,,,,,,,,0,,,69,0
64800,note_on,480,0,1,,,,,,,,,0,,,77,0
64800,note_on,14,0,2,,,,,,,,,0,,,48,0
64800,note_on,0,0,2,,,,,,,,,0,,,53,0
64800,note_on,0,0,2,,,,,,,,,0,,,41,27
64814,control_change,14,0,2,,,,,,,,,0,64,127,,
65040,note_on,226,0,2,,,,,,,,,0,,,41,0
65040,note_on,0,0,2,,,,,,,,,0,,,48,18
65040,note_on,0,0,2,,,,,,,,,0,,,53,22
65220,note_on,420,0,1,,,,,,,,,0,,,77,0
65220,note_on,0,0,1,,,,,,,,,0,,,74,38
65220,note_on,0,0,1,,,,,,,,,0,,,69,0
65240,control_change,200,0,2,,,,,,,,,0,64,0,,
65280,note_on,0,0,2,,,,,,,,,0,,,53,0
65280,note_on,60,0,1,,,,,,,,,0,,,74,0
65280,note_on,0,0,2,,,,,,,,,0,,,41,27
65280,note_on,0,0,1,,,,,,,,,0,,,72,42
65280,set_tempo,1440,1,0,,,,,,602047,,,,,,,
65280,note_on,40,0,2,,,,,,,,,0,,,48,0
65280,note_on,0,0,1,,,,,,,,,0,,,69,37
65300,set_tempo,20,1,0,,,,,,623118,,,,,,,
65400,note_on,120,0,2,,,,,,,,,0,,,41,0
65520,note_on,240,0,1,,,,,,,,,0,,,72,0
65520,note_on,0,0,1,,,,,,,,,0,,,69,0
65520,note_on,0,0,1,,,,,,,,,0,,,69,35
65520,note_on,0,0,1,,,,,,,,,0,,,72,39
65520,note_on,0,0,2,,,,,,,,,0,,,48,18
65520,note_on,120,0,2,,,,,,,,,0,,,53,22
65520,set_tempo,220,1,0,,,,,,600420,,,,,,,
65640,note_on,120,0,2,,,,,,,,,0,,,48,0
65640,note_on,0,0,2,,,,,,,,,0,,,53,0
65640,note_on,120,0,1,,,,,,,,,0,,,72,0
65640,note_on,0,0,1,,,,,,,,,0,,,74,39
65760,note_on,120,0,2,,,,,,,,,0,,,41,27
65760,set_tempo,240,1,0,,,,,,613121,,,,,,,
65760,note_on,0,0,1,,,,,,,,,0,,,72,42
65760,note_on,120,0,1,,,,,,,,,0,,,74,0
65880,note_on,120,0,2,,,,,,,,,0,,,41,0
66000,note_on,0,0,1,,,,,,,,,0,,,69,36
66000,note_on,0,0,1,,,,,,,,,0,,,65,32
66000,note_on,0,0,1,,,,,,,,,0,,,69,0
66000,note_on,240,0,1,,,,,,,,,0,,,72,0
66000,set_tempo,240,1,0,,,,,,626501,,,,,,,
66000,note_on,120,0,2,,,,,,,,,0,,,53,23
66000,note_on,0,0,2,,,,,,,,,0,,,48,19
66120,note_on,0,0,2,,,,,,,,,0,,,53,0
66120,note_on,120,0,2,,,,,,,,,0,,,48,0
66240,note_on,0,0,1,,,,,,,,,0,,,70,39
66240,note_on,0,0,1,,,,,,,,,0,,,65,0
66240,note_on,120,0,2,,,,,,,,,0,,,41,27
66240,note_on,240,0,1,,,,,,,,,0,,,69,0
66240,note_on,0,0,1,,,,,,,,,0,,,64,35
66240,set_tempo,240,1,0,,,,,,647668,,,,,,,
66261,control_change,21,0,2,,,,,,,,,0,64,127,,
66480,note_on,0,0,2,,,,,,,,,0,,,48,19
66480,note_on,0,0,2,,,,,,,,,0,,,55,23
66480,note_on,219,0,2,,,,,,,,,0,,,41,0
66688,control_change,208,0,2,,,,,,,,,0,64,0,,
66716,control_change,28,0,2,,,,,,,,,0,64,127,,
66720,note_on,0,0,1,,,,,,,,,0,,,64,35
66720,note_on,4,0,2,,,,,,,,,0,,,48,0
66720,note_on,480,0,1,,,,,,,,,0,,,70,0
66720,note_on,0,0,2,,,,,,,,,0,,,55,0
66720,note_on,0,0,2,,,,,,,,,0,,,41,27
66720,note_on,0,0,1,,,,,,,,,0,,,70,39
66720,note_on,0,0,1,,,,,,,,,0,,,64,0
66960,note_on,240,0,2,,,,,,,,,0,,,41,0
66960,note_on,0,0,2,,,,,,,,,0,,,55,23
66960,note_on,0,0,2,,,,,,,,,0,,,48,19
67140,note_on,420,0,1,,,,,,,,,0,,,70,0
67140,note_on,0,0,1,,,,,,,,,0,,,72,37
67140,note_on,0,0,1,,,,,,,,,0,,,64,0
67144,control_change,184,0,2,,,,,,,,,0,64,0,,
67200,note_on,0,0,2,,,,,,,,,0,,,55,0
67200,note_on,0,0,2,,,,,,,,,0,,,41,27
67200,set_tempo,960,1,0,,,,,,643846,,,,,,,
67200,note_on,60,0,1,,,,,,,,,0,,,72,0
67200,note_on,56,0,2,,,,,,,,,0,,,48,0
67200,note_on,0,0,1,,,,,,,,,0,,,70,42
67200,note_on,0,0,1,,,,,,,,,0,,,64,37
67320,note_on,120,0,2,,,,,,,,,0,,,41,0
67440,note_on,240,0,1,,,,,,,,,0,,,70,0
67440,note_on,0,0,1,,,,,,,,,0,,,64,0
67440,note_on,0,0,1,,,,,,,,,0,,,70,38
67440,note_on,0,0,1,,,,,,,,,0,,,64,34
67440,note_on,120,0,2,,,,,,,,,0,,,55,22
67440,note_on,0,0,2,,,,,,,,,0,,,48,18
67440,set_tempo,240,1,0,,,,,,605327,,,,,,,
67560,note_on,120,0,2,,,,,,,,,0,,,48,0
67560,note_on,0,0,2,,,,,,,,,0,,,55,0
67560,note_on,0,0,1,,,,,,,,,0,,,72,39
67560,note_on,120,0,1,,,,,,,,,0,,,70,0
67680,note_on,0,0,1,,,,,,,,,0,,,70,42
67680,note_on,120,0,1,,,,,,,,,0,,,72,0
67680,note_on,120,0,2,,,,,,,,,0,,,41,27
67680,set_tempo,240,1,0,,,,,,626501,,,,,,,
67800,note_on,120,0,2,,,,,,,,,0,,,41,0
67920,note_on,0,0,2,,,,,,,,,0,,,48,18
67920,set_tempo,240,1,0,,,,,,698731,,,,,,,
67920,note_on,120,0,2,,,,,,,,,0,,,55,22
67920,note_on,0,0,1,,,,,,,,,0,,,64,37
67920,note_on,0,0,1,,,,,,,,,0,,,58,33
67920,note_on,0,0,1,,,,,,,,,0,,,64,0
67920,note_on,240,0,1,,,,,,,,,0,,,70,0
68040,note_on,0,0,2,,,,,,,,,0,,,55,0
68040,note_on,120,0,2,,,,,,,,,0,,,48,0
68160,set_tempo,240,1,0,,,,,,662471,,,,,,,
68160,note_on,0,0,1,,,,,,,,,0,,,57,27
68160,note_on,0,0,1,,,,,,,,,0,,,58,0
68160,note_on,240,0,1,,,,,,,,,0,,,64,0
68160,note_on,120,0,2,,,,,,,,,0,,,41,21
68160,note_on,0,0,1,,,,,,,,,0,,,65,31
68161,set_tempo,1,1,0,,,,,,640137,,,,,,,
68191,control_change,31,0,2,,,,,,,,,0,64,127,,
68400,note_on,209,0,2,,,,,,,,,0,,,41,0
68400,note_on,0,0,2,,,,,,,,,0,,,53,17
68400,note_on,0,0,2,,,,,,,,,0,,,48,14
68620,control_change,220,0,2,,,,,,,,,0,64,0,,
68640,note_on,0,0,1,,,,,,,,,0,,,57,27
68640,note_on,0,0,2,,,,,,,,,0,,,41,21
68640,note_on,0,0,1,,,,,,,,,0,,,57,0
68640,note_on,20,0,2,,,,,,,,,0,,,48,0
68640,note_on,0,0,2,,,,,,,,,0,,,53,0
68640,note_on,480,0,1,,,,,,,,,0,,,65,0
68640,note_on,0,0,1,,,,,,,,,0,,,65,31
68646,control_change,6,0,2,,,,,,,,,0,64,127,,
68880,note_on,0,0,2,,,,,,,,,0,,,48,14
68880,note_on,234,0,2,,,,,,,,,0,,,41,0
68880,note_on,0,0,2,,,,,,,,,0,,,53,17
69043,control_change,163,0,2,,,,,,,,,0,64,0,,
69060,note_on,0,0,1,,,,,,,,,0,,,74,30
69060,note_on,0,0,1,,,,,,,,,0,,,57,0
69060,note_on,420,0,1,,,,,,,,,0,,,65,0
69120,note_on,0,0,1,,,,,,,,,0,,,72,33
69120,note_on,0,0,1,,,,,,,,,0,,,69,29
69120,note_on,60,0,1,,,,,,,,,0,,,74,0
69120,set_tempo,959,1,0,,,,,,691802,,,,,,,
69120,note_on,0,0,2,,,,,,,,,0,,,41,21
69120,note_on,77,0,2,,,,,,,,,0,,,48,0
69120,note_on,0,0,2,,,,,,,,,0,,,53,0
69143,control_change,23,0,2,,,,,,,,,0,64,127,,
69360,note_on,0,0,1,,,,,,,,,0,,,72,31
69360,note_on,0,0,1,,,,,,,,,0,,,69,27
69360,note_on,0,0,1,,,,,,,,,0,,,69,0
69360,note_on,240,0,1,,,,,,,,,0,,,72,0
69360,note_on,0,0,2,,,,,,,,,0,,,48,14
69360,note_on,217,0,2,,,,,,,,,0,,,41,0
69360,note_on,0,0,2,,,,,,,,,0,,,53,17
69360,set_tempo,240,1,0,,,,,,662910,,,,,,,
69434,control_change,74,0,2,,,,,,,,,0,64,0,,
69480,note_on,120,0,1,,,,,,,,,0,,,72,0
69480,note_on,0,0,1,,,,,,,,,0,,,74,31
69600,note_on,0,0,1,,,,,,,,,0,,,72,33
69600,note_on,120,0,1,,,,,,,,,0,,,74,0
69600,note_on,166,0,2,,,,,,,,,0,,,48,0
69600,note_on,0,0,2,,,,,,,,,0,,,53,0
69600,set_tempo,240,1,0,,,,,,704970,,,,,,,
69600,note_on,0,0,2,,,,,,,,,0,,,41,21
69720,note_on,120,0,2,,,,,,,,,0,,,41,0
69840,note_on,120,0,2,,,,,,,,,0,,,54,18
69840,set_tempo,240,1,0,,,,,,768147,,,,,,,
69840,note_on,0,0,2,,,,,,,,,0,,,48,15
69840,note_on,240,0,1,,,,,,,,,0,,,72,0
69840,note_on,0,0,1,,,,,,,,,0,,,69,0
69840,note_on,0,0,1,,,,,,,,,0,,,63,25
69840,note_on,0,0,1,,,,,,,,,0,,,69,28
69960,note_on,120,0,2,,,,,,,,,0,,,48,0
69960,note_on,0,0,2,,,,,,,,,0,,,54,0
70080,note_on,120,0,2,,,,,,,,,0,,,41,21
70080,note_on,240,0,1,,,,,,,,,0,,,69,0
70080,note_on,0,0,1,,,,,,,,,0,,,64,27
70080,note_on,0,0,1,,,,,,,,,0,,,70,31
70080,set_tempo,240,1,0,,,,,,687521,,,,,,,
70080,note_on,0,0,1,,,,,,,,,0,,,63,0
70087,control_change,7,0,2,,,,,,,,,0,64,127,,
70320,note_on,233,0,2,,,,,,,,,0,,,41,0
70320,note_on,0,0,2,,,,,,,,,0,,,48,15
70320,note_on,0,0,2,,,,,,,,,0,,,55,18
70504,control_change,184,0,2,,,,,,,,,0,64,0,,
70560,note_on,0,0,1,,,,,,,,,0,,,70,31
70560,note_on,0,0,1,,,,,,,,,0,,,64,27
70560,note_on,0,0,1,,,,,,,,,0,,,64,0
70560,note_on,480,0,1,,,,,,,,,0,,,70,0
70560,note_on,0,0,2,,,,,,,,,0,,,41,21
70560,note_on,56,0,2,,,,,,,,,0,,,48,0
70560,note_on,0,0,2,,,,,,,,,0,,,55,0
70564,control_change,4,0,2,,,,,,,,,0,64,127,,
70800,note_on,0,0,2,,,,,,,,,0,,,55,18
70800,note_on,0,0,2,,,,,,,,,0,,,48,15
70800,note_on,236,0,2,,,,,,,,,0,,,41,0
70934,control_change,134,0,2,,,,,,,,,0,64,0,,
70980,note_on,420,0,1,,,,,,,,,0,,,70,0
70980,note_on,0,0,1,,,,,,,,,0,,,64,0
70980,note_on,0,0,1,,,,,,,,,0,,,72,28
71040,note_on,60,0,1,,,,,,,,,0,,,72,0
71040,note_on,0,0,2,,,,,,,,,0,,,55,0
71040,note_on,0,0,2,,,,,,,,,0,,,41,21
71040,note_on,0,0,1,,,,,,,,,0,,,70,33
71040,note_on,106,0,2,,,,,,,,,0,,,48,0
71040,note_on,0,0,1,,,,,,,,,0,,,64,29
71040,set_tempo,960,1,0,,,,,,714031,,,,,,,
71061,control_change,21,0,2,,,,,,,,,0,64,127,,
71280,note_on,0,0,2,,,,,,,,,0,,,55,17
71280,note_on,0,0,2,,,,,,,,,0,,,48,14
71280,note_on,0,0,1,,,,,,,,,0,,,64,27
71280,note_on,0,0,1,,,,,,,,,0,,,70,30
71280,note_on,0,0,1,,,,,,,,,0,,,64,0
71280,note_on,240,0,1,,,,,,,,,0,,,70,0
71280,note_on,219,0,2,,,,,,,,,0,,,41,0
71280,set_tempo,240,1,0,,,,,,679117,,,,,,,
71393,control_change,113,0,2,,,,,,,,,0,64,0,,
71400,note_on,0,0,1,,,,,,,,,0,,,72,31
71400,note_on,120,0,1,,,,,,,,,0,,,70,0
71520,note_on,127,0,2,,,,,,,,,0,,,48,0
71520,note_on,0,0,2,,,,,,,,,0,,,41,21
71520,note_on,0,0,2,,,,,,,,,0,,,55,0
71520,note_on,120,0,1,,,,,,,,,0,,,72,0
71520,note_on,0,0,1,,,,,,,,,0,,,70,33
71520,set_tempo,240,1,0,,,,,,762873,,,,,,,
71534,control_change,14,0,2,,,,,,,,,0,64,127,,
71760,note_on,240,0,1,,,,,,,,,0,,,70,0
71760,note_on,0,0,1,,,,,,,,,0,,,64,0
71760,note_on,0,0,1,,,,,,,,,0,,,58,23
71760,note_on,0,0,1,,,,,,,,,0,,,64,26
71760,note_on,226,0,2,,,,,,,,,0,,,41,0
71760,note_on,0,0,2,,,,,,,,,0,,,55,17
71760,note_on,0,0,2,,,,,,,,,0,,,49,14
71760,set_tempo,240,1,0,,,,,,831255,,,,,,,
71951,control_change,191,0,2,,,,,,,,,0,64,0,,
72000,note_on,0,0,1,,,,,,,,,0,,,65,24
72000,note_on,0,0,1,,,,,,,,,0,,,57,21
72000,note_on,0,0,1,,,,,,,,,0,,,58,0
72000,note_on,240,0,1,,,,,,,,,0,,,64,0
72000,set_tempo,240,1,0,,,,,,762873,,,,,,,
72000,note_on,0,0,2,,,,,,,,,0,,,41,18
72000,note_on,0,0,2,,,,,,,,,0,,,55,0
72000,note_on,49,0,2,,,,,,,,,0,,,49,0
72071,control_change,71,0,2,,,,,,,,,0,64,127,,
72240,note_on,0,0,2,,,,,,,,,0,,,48,10
72240,note_on,0,0,2,,,,,,,,,0,,,53,13
72240,note_on,169,0,2,,,,,,,,,0,,,41,0
72480,note_on,0,0,1,,,,,,,,,0,,,65,21
72480,note_on,240,0,2,,,,,,,,,0,,,48,0
72480,note_on,0,0,2,,,,,,,,,0,,,41,16
72480,note_on,0,0,2,,,,,,,,,0,,,53,0
72480,note_on,480,0,1,,,,,,,,,0,,,65,0
72480,note_on,0,0,1,,,,,,,,,0,,,57,0
72480,note_on,0,0,1,,,,,,,,,0,,,57,18
72494,control_change,14,0,2,,,,,,,,,0,64,0,,
72536,control_change,42,0,2,,,,,,,,,0,64,127,,
72720,note_on,184,0,2,,,,,,,,,0,,,41,0
72720,note_on,0,0,2,,,,,,,,,0,,,48,10
72720,note_on,0,0,2,,,,,,,,,0,,,53,13
72847,control_change,127,0,2,,,,,,,,,0,64,0,,
72960,control_change,0,0,2,,,,,,,,,0,64,127,,
72960,note_on,0,0,1,,,,,,,,,0,,,65,21
72960,note_on,0,0,2,,,,,,,,,0,,,41,14
72960,note_on,0,0,2,,,,,,,,,0,,,53,0
72960,note_on,0,0,1,,,,,,,,,0,,,57,18
72960,note_on,0,0,1,,,,,,,,,0,,,57,0
72960,note_on,480,0,1,,,,,,,,,0,,,65,0
72960,set_tempo,960,1,0,,,,,,778917,,,,,,,
72960,note_on,113,0,2,,,,,,,,,0,,,48,0
73200,note_on,240,0,2,,,,,,,,,0,,,41,0
73200,note_on,0,0,2,,,,,,,,,0,,,53,10
73200,note_on,0,0,2,,,,,,,,,0,,,48,9
73327,control_change,127,0,2,,,,,,,,,0,64,0,,
73440,note_on,0,0,1,,,,,,,,,0,,,57,0
73440,note_on,480,0,1,,,,,,,,,0,,,65,0
73440,note_on,0,0,2,,,,,,,,,0,,,53,0
73440,note_on,113,0,2,,,,,,,,,0,,,48,0
73440,note_on,0,0,2,,,,,,,,,0,,,41,13
73440,note_on,0,0,1,,,,,,,,,0,,,65,19
73440,note_on,0,0,1,,,,,,,,,0,,,57,17
73468,control_change,28,0,2,,,,,,,,,0,64,127,,
73680,note_on,0,0,2,,,,,,,,,0,,,53,10
73680,note_on,0,0,2,,,,,,,,,0,,,48,9
73680,set_tempo,720,1,0,,,,,,1050788,,,,,,,
73680,note_on,212,0,2,,,,,,,,,0,,,41,0
73765,control_change,85,0,2,,,,,,,,,0,64,0,,
73920,note_on,0,0,1,,,,,,,,,0,,,57,0
73920,note_on,0,0,1,,,,,,,,,0,,,65,18
73920,note_on,0,0,1,,,,,,,,,0,,,57,16
73920,note_on,480,0,1,,,,,,,,,0,,,65,0
73920,note_on,0,0,2,,,,,,,,,0,,,53,0
73920,control_change,0,0,2,,,,,,,,,0,64,127,,
73920,note_on,0,0,2,,,,,,,,,0,,,41,9
73920,note_on,0,0,2,,,,,,,,,0,,,48,9
73920,note_on,0,0,2,,,,,,,,,0,,,53,10
73920,note_on,155,0,2,,,,,,,,,0,,,48,0
73921,set_tempo,241,1,0,,,,,,1112347,,,,,,,
74693,control_change,773,0,2,,,,,,,,,0,64,0,,
74880,note_on,960,0,1,,,,,,,,,0,,,65,0
74880,end_of_track,0,1,1,,,,,,,,,,,,,
74880,set_tempo,959,1,0,,,,,,1132075,,,,,,,
74880,end_of_track,0,1,2,,,,,,,,,,,,,
74880,end_of_track,0,1,0,,,,,,,,,,,,,
74880,note_on,0,0,2,,,,,,,,,0,,,53,0
74880,note_on,187,0,2,,,,,,,,,0,,,41,0
74880,note_on,0,0,2,,,,,,,,,0,,,48,0
74880,marker,0,1,0,,,,,,,,,,,,,
74880,note_on,0,0,1,,,,,,,,,0,,,57,0
