tick,type,time,meta,track,numerator,denominator,clocks_per_click,notated_32nd_notes_per_beat,key,tempo,port,program,channel,control,value,note,velocity
0,track_name,0,1,0,,,,,,,,,,,,,
0,program_change,0,0,1,,,,,,,,0,0,,,,
0,control_change,0,0,1,,,,,,,,,0,7,100,,
0,control_change,0,0,1,,,,,,,,,0,91,127,,
0,text,0,1,1,,,,,,,,,,,,,
0,track_name,0,1,7,,,,,,,,,,,,,
0,midi_port,0,1,2,,,,,,,0,,,,,,
0,track_name,0,1,2,,,,,,,,,,,,,
0,program_change,0,0,2,,,,,,,,0,0,,,,
0,control_change,0,0,2,,,,,,,,,0,7,100,,
0,control_change,0,0,2,,,,,,,,,0,64,127,,
0,control_change,0,0,2,,,,,,,,,0,91,127,,
0,track_name,0,1,1,,,,,,,,,,,,,
0,midi_port,0,1,3,,,,,,,0,,,,,,
0,end_of_track,0,1,3,,,,,,,,,,,,,
0,midi_port,0,1,4,,,,,,,0,,,,,,
0,track_name,0,1,4,,,,,,,,,,,,,
0,end_of_track,0,1,4,,,,,,,,,,,,,
0,midi_port,0,1,5,,,,,,,0,,,,,,
0,track_name,0,1,5,,,,,,,,,,,,,
0,end_of_track,0,1,5,,,,,,,,,,,,,
0,midi_port,0,1,6,,,,,,,0,,,,,,
0,track_name,0,1,6,,,,,,,,,,,,,
0,end_of_track,0,1,6,,,,,,,,,,,,,
0,midi_port,0,1,7,,,,,,,0,,,,,,
0,track_name,0,1,3,,,,,,,,,,,,,
0,midi_port,0,1,1,,,,,,,0,,,,,,
0,end_of_track,0,1,7,,,,,,,,,,,,,
0,track_name,0,1,0,,,,,,,,,,,,,
0,text,0,1,0,,,,,,,,,,,,,
0,text,0,1,0,,,,,,,,,,,,,
0,text,0,1,0,,,,,,,,,,,,,
0,text,0,1,0,,,,,,,,,,,,,
0,text,0,1,0,,,,,,,,,,,,,
0,text,0,1,0,,,,,,,,,,,,,
0,time_signature,0,1,0,2,4,24,8,,,,,,,,,
0,set_tempo,0,1,0,,,,,,265498,,,,,,,
0,key_signature,0,1,0,,,,,Ab,,,,,,,,
0,copyright,0,1,0,,,,,,,,,,,,,
0,marker,0,1,0,,,,,,,,,,,,,
4,note_on,0,0,2,,,,,,,,,0,,,41,61
4,note_on,4,0,1,,,,,,,,,0,,,68,72
4,note_on,0,0,1,,,,,,,,,0,,,72,72
4,note_on,0,0,1,,,,,,,,,0,,,80,81
4,note_on,4,0,2,,,,,,,,,0,,,53,68
480,set_tempo,480,1,0,,,,,,267547,,,,,,,
480,note_on,476,0,1,,,,,,,,,0,,,79,77
480,note_on,0,0,1,,,,,,,,,0,,,68,69
480,note_on,476,0,2,,,,,,,,,0,,,53,66
480,note_on,0,0,1,,,,,,,,,0,,,72,69
484,note_on,0,0,1,,,,,,,,,0,,,68,0
484,note_on,4,0,1,,,,,,,,,0,,,80,0
484,note_on,0,0,1,,,,,,,,,0,,,72,0
484,note_on,0,0,2,,,,,,,,,0,,,53,0
484,note_on,4,0,2,,,,,,,,,0,,,41,0
600,note_on,116,0,1,,,,,,,,,0,,,79,0
600,note_on,0,0,1,,,,,,,,,0,,,68,0
600,note_on,0,0,1,,,,,,,,,0,,,72,0
600,note_on,116,0,2,,,,,,,,,0,,,53,0
720,note_on,120,0,1,,,,,,,,,0,,,77,77
720,note_on,0,0,1,,,,,,,,,0,,,72,69
720,note_on,0,0,1,,,,,,,,,0,,,68,69
720,note_on,120,0,2,,,,,,,,,0,,,53,66
840,note_on,120,0,1,,,,,,,,,0,,,68,0
840,note_on,0,0,1,,,,,,,,,0,,,77,0
840,note_on,0,0,1,,,,,,,,,0,,,72,0
840,note_on,120,0,2,,,,,,,,,0,,,53,0
960,note_on,0,0,2,,,,,,,,,0,,,53,68
960,note_on,120,0,1,,,,,,,,,0,,,68,72
960,set_tempo,480,1,0,,,,,,265498,,,,,,,
960,note_on,0,0,1,,,,,,,,,0,,,77,81
960,note_on,0,0,1,,,,,,,,,0,,,72,72
960,note_on,120,0,2,,,,,,,,,0,,,41,61
1072,control_change,112,0,2,,,,,,,,,0,64,0,,
1412,control_change,340,0,2,,,,,,,,,0,64,127,,
1440,note_on,0,0,2,,,,,,,,,0,,,41,0
1440,note_on,0,0,1,,,,,,,,,0,,,72,78
1440,note_on,0,0,1,,,,,,,,,0,,,68,70
1440,note_on,0,0,1,,,,,,,,,0,,,68,0
1440,note_on,0,0,1,,,,,,,,,0,,,77,0
1440,note_on,0,0,2,,,,,,,,,0,,,53,66
1440,set_tempo,480,1,0,,,,,,268240,,,,,,,
1440,note_on,28,0,2,,,,,,,,,0,,,53,0
1440,note_on,480,0,1,,,,,,,,,0,,,72,0
1680,note_on,240,0,2,,,,,,,,,0,,,53,0
1680,note_on,0,0,2,,,,,,,,,0,,,53,65
1680,note_on,0,0,1,,,,,,,,,0,,,68,70
1680,note_on,240,0,1,,,,,,,,,0,,,72,0
1680,note_on,0,0,1,,,,,,,,,0,,,68,0
1680,note_on,0,0,1,,,,,,,,,0,,,72,78
1920,note_on,0,0,1,,,,,,,,,0,,,70,72
1920,note_on,240,0,1,,,,,,,,,0,,,68,0
1920,note_on,0,0,1,,,,,,,,,0,,,72,0
1920,note_on,0,0,1,,,,,,,,,0,,,77,81
1920,note_on,0,0,2,,,,,,,,,0,,,53,68
1920,note_on,0,0,1,,,,,,,,,0,,,73,72
1920,note_on,240,0,2,,,,,,,,,0,,,53,0
1920,note_on,0,0,2,,,,,,,,,0,,,41,61
1920,set_tempo,480,1,0,,,,,,265498,,,,,,,
2132,control_change,212,0,2,,,,,,,,,0,64,0,,
2400,note_on,0,0,1,,,,,,,,,0,,,70,69
2400,note_on,0,0,1,,,,,,,,,0,,,77,0
2400,note_on,0,0,1,,,,,,,,,0,,,73,0
2400,note_on,480,0,1,,,,,,,,,0,,,70,0
2400,note_on,268,0,2,,,,,,,,,0,,,41,0
2400,set_tempo,480,1,0,,,,,,267547,,,,,,,
2400,note_on,0,0,2,,,,,,,,,0,,,53,0
2400,note_on,0,0,2,,,,,,,,,0,,,53,66
2400,note_on,0,0,1,,,,,,,,,0,,,73,77
2444,control_change,44,0,2,,,,,,,,,0,64,127,,
2640,note_on,0,0,2,,,,,,,,,0,,,53,66
2640,note_on,196,0,2,,,,,,,,,0,,,53,0
2640,note_on,0,0,1,,,,,,,,,0,,,73,0
2640,note_on,0,0,1,,,,,,,,,0,,,70,68
2640,note_on,0,0,1,,,,,,,,,0,,,73,76
2640,note_on,240,0,1,,,,,,,,,0,,,70,0
2880,note_on,0,0,1,,,,,,,,,0,,,72,72
2880,note_on,240,0,1,,,,,,,,,0,,,73,0
2880,set_tempo,480,1,0,,,,,,265498,,,,,,,
2880,note_on,0,0,1,,,,,,,,,0,,,70,0
2880,note_on,0,0,2,,,,,,,,,0,,,53,68
2880,note_on,0,0,2,,,,,,,,,0,,,41,61
2880,note_on,0,0,1,,,,,,,,,0,,,77,81
2880,note_on,0,0,1,,,,,,,,,0,,,68,72
2880,note_on,240,0,2,,,,,,,,,0,,,53,0
3064,control_change,184,0,2,,,,,,,,,0,64,0,,
3350,note_on,470,0,1,,,,,,,,,0,,,72,0
3350,note_on,0,0,1,,,,,,,,,0,,,77,0
3350,note_on,0,0,2,,,,,,,,,0,,,41,0
3350,note_on,286,0,2,,,,,,,,,0,,,53,0
3350,note_on,0,0,1,,,,,,,,,0,,,68,0
3360,note_on,10,0,1,,,,,,,,,0,,,68,49
3360,note_on,0,0,1,,,,,,,,,0,,,72,55
3360,set_tempo,480,1,0,,,,,,272480,,,,,,,
3360,note_on,10,0,2,,,,,,,,,0,,,53,45
3376,control_change,16,0,2,,,,,,,,,0,64,127,,
3600,note_on,240,0,1,,,,,,,,,0,,,72,0
3600,note_on,0,0,1,,,,,,,,,0,,,68,0
3600,note_on,0,0,2,,,,,,,,,0,,,53,45
3600,note_on,224,0,2,,,,,,,,,0,,,53,0
3600,note_on,0,0,1,,,,,,,,,0,,,68,49
3600,note_on,0,0,1,,,,,,,,,0,,,72,55
3840,note_on,0,0,1,,,,,,,,,0,,,68,43
3840,note_on,0,0,1,,,,,,,,,0,,,68,0
3840,note_on,0,0,1,,,,,,,,,0,,,72,48
3840,note_on,240,0,1,,,,,,,,,0,,,72,0
3840,note_on,240,0,2,,,,,,,,,0,,,53,0
3840,note_on,0,0,2,,,,,,,,,0,,,29,36
3840,set_tempo,480,1,0,,,,,,265498,,,,,,,
3840,note_on,0,0,2,,,,,,,,,0,,,41,40
4320,note_on,0,0,1,,,,,,,,,0,,,68,43
4320,set_tempo,480,1,0,,,,,,268240,,,,,,,
4320,note_on,480,0,1,,,,,,,,,0,,,68,0
4320,note_on,0,0,1,,,,,,,,,0,,,72,0
4320,note_on,0,0,1,,,,,,,,,0,,,67,43
4320,note_on,0,0,1,,,,,,,,,0,,,72,48
4320,note_on,480,0,2,,,,,,,,,0,,,29,0
4320,note_on,0,0,2,,,,,,,,,0,,,41,0
4320,note_on,0,0,2,,,,,,,,,0,,,41,38
4440,note_on,0,0,1,,,,,,,,,0,,,68,0
4440,note_on,0,0,1,,,,,,,,,0,,,67,0
4440,note_on,120,0,2,,,,,,,,,0,,,41,0
4440,note_on,120,0,1,,,,,,,,,0,,,72,0
4560,note_on,120,0,2,,,,,,,,,0,,,41,38
4560,note_on,120,0,1,,,,,,,,,0,,,68,40
4560,note_on,0,0,1,,,,,,,,,0,,,65,40
4560,note_on,0,0,1,,,,,,,,,0,,,72,45
4680,note_on,0,0,1,,,,,,,,,0,,,65,0
4680,note_on,120,0,2,,,,,,,,,0,,,41,0
4680,note_on,0,0,1,,,,,,,,,0,,,68,0
4680,note_on,120,0,1,,,,,,,,,0,,,72,0
4800,set_tempo,480,1,0,,,,,,265498,,,,,,,
4800,note_on,120,0,2,,,,,,,,,0,,,29,36
4800,note_on,120,0,1,,,,,,,,,0,,,65,40
4800,note_on,0,0,1,,,,,,,,,0,,,68,40
4800,note_on,0,0,2,,,,,,,,,0,,,41,40
4800,note_on,0,0,1,,,,,,,,,0,,,72,45
5096,control_change,296,0,2,,,,,,,,,0,64,0,,
5280,note_on,184,0,2,,,,,,,,,0,,,41,0
5280,note_on,0,0,2,,,,,,,,,0,,,29,0
5280,note_on,0,0,2,,,,,,,,,0,,,41,38
5280,set_tempo,480,1,0,,,,,,268240,,,,,,,
5280,note_on,0,0,1,,,,,,,,,0,,,65,0
5280,note_on,0,0,1,,,,,,,,,0,,,72,48
5280,note_on,480,0,1,,,,,,,,,0,,,68,0
5280,note_on,0,0,1,,,,,,,,,0,,,72,0
5280,note_on,0,0,1,,,,,,,,,0,,,60,43
5280,note_on,0,0,1,,,,,,,,,0,,,68,43
5380,control_change,100,0,2,,,,,,,,,0,64,127,,
5520,note_on,0,0,1,,,,,,,,,0,,,68,0
5520,note_on,0,0,1,,,,,,,,,0,,,60,0
5520,note_on,240,0,1,,,,,,,,,0,,,72,0
5520,note_on,0,0,1,,,,,,,,,0,,,60,40
5520,note_on,0,0,1,,,,,,,,,0,,,68,40
5520,note_on,140,0,2,,,,,,,,,0,,,41,0
5520,note_on,0,0,1,,,,,,,,,0,,,72,45
5520,note_on,0,0,2,,,,,,,,,0,,,41,38
5760,note_on,0,0,2,,,,,,,,,0,,,41,40
5760,note_on,0,0,2,,,,,,,,,0,,,29,36
5760,note_on,240,0,2,,,,,,,,,0,,,41,0
5760,note_on,0,0,1,,,,,,,,,0,,,70,40
5760,note_on,0,0,1,,,,,,,,,0,,,65,40
5760,note_on,0,0,1,,,,,,,,,0,,,73,45
5760,note_on,0,0,1,,,,,,,,,0,,,60,0
5760,note_on,0,0,1,,,,,,,,,0,,,72,0
5760,note_on,240,0,1,,,,,,,,,0,,,68,0
5760,set_tempo,480,1,0,,,,,,265498,,,,,,,
6056,control_change,296,0,2,,,,,,,,,0,64,0,,
6240,set_tempo,480,1,0,,,,,,267547,,,,,,,
6240,note_on,184,0,2,,,,,,,,,0,,,41,0
6240,note_on,0,0,2,,,,,,,,,0,,,29,0
6240,note_on,0,0,2,,,,,,,,,0,,,41,38
6240,note_on,0,0,1,,,,,,,,,0,,,73,0
6240,note_on,480,0,1,,,,,,,,,0,,,65,0
6240,note_on,0,0,1,,,,,,,,,0,,,70,0
6240,note_on,0,0,1,,,,,,,,,0,,,73,48
6240,note_on,0,0,1,,,,,,,,,0,,,61,43
6240,note_on,0,0,1,,,,,,,,,0,,,70,43
6340,control_change,100,0,2,,,,,,,,,0,64,127,,
6480,note_on,0,0,1,,,,,,,,,0,,,73,0
6480,note_on,240,0,1,,,,,,,,,0,,,70,0
6480,note_on,0,0,1,,,,,,,,,0,,,61,0
6480,note_on,0,0,2,,,,,,,,,0,,,41,38
6480,note_on,140,0,2,,,,,,,,,0,,,41,0
6480,note_on,0,0,1,,,,,,,,,0,,,61,40
6480,note_on,0,0,1,,,,,,,,,0,,,70,40
6480,note_on,0,0,1,,,,,,,,,0,,,73,45
6720,note_on,0,0,1,,,,,,,,,0,,,68,40
6720,note_on,240,0,2,,,,,,,,,0,,,41,0
6720,note_on,0,0,1,,,,,,,,,0,,,61,0
6720,note_on,0,0,1,,,,,,,,,0,,,70,0
6720,note_on,0,0,2,,,,,,,,,0,,,41,40
6720,set_tempo,480,1,0,,,,,,265498,,,,,,,
6720,note_on,0,0,1,,,,,,,,,0,,,65,40
6720,note_on,240,0,1,,,,,,,,,0,,,73,0
6720,note_on,0,0,1,,,,,,,,,0,,,72,45
6720,note_on,0,0,2,,,,,,,,,0,,,29,36
7200,note_on,0,0,1,,,,,,,,,0,,,65,0
7200,note_on,480,0,1,,,,,,,,,0,,,72,0
7200,note_on,0,0,1,,,,,,,,,0,,,68,0
7200,note_on,0,0,1,,,,,,,,,0,,,60,40
7200,note_on,480,0,2,,,,,,,,,0,,,29,0
7200,note_on,0,0,1,,,,,,,,,0,,,68,40
7200,note_on,0,0,2,,,,,,,,,0,,,41,0
7200,note_on,0,0,2,,,,,,,,,0,,,41,38
7200,set_tempo,480,1,0,,,,,,271764,,,,,,,
7200,note_on,0,0,1,,,,,,,,,0,,,72,45
7440,note_on,0,0,1,,,,,,,,,0,,,68,40
7440,note_on,240,0,1,,,,,,,,,0,,,68,0
7440,note_on,0,0,1,,,,,,,,,0,,,60,0
7440,note_on,240,0,2,,,,,,,,,0,,,41,0
7440,note_on,0,0,2,,,,,,,,,0,,,41,38
7440,note_on,0,0,1,,,,,,,,,0,,,72,45
7440,note_on,0,0,1,,,,,,,,,0,,,60,40
7440,note_on,0,0,1,,,,,,,,,0,,,72,0
7524,control_change,84,0,2,,,,,,,,,0,64,0,,
7680,note_on,156,0,2,,,,,,,,,0,,,41,0
7680,control_change,0,0,2,,,,,,,,,0,64,127,,
7680,note_on,0,0,2,,,,,,,,,0,,,53,67
7680,note_on,0,0,1,,,,,,,,,0,,,68,70
7680,note_on,0,0,1,,,,,,,,,0,,,71,78
7680,note_on,0,0,1,,,,,,,,,0,,,65,70
7680,note_on,0,0,1,,,,,,,,,0,,,60,0
7680,note_on,0,0,1,,,,,,,,,0,,,68,0
7680,note_on,240,0,1,,,,,,,,,0,,,72,0
7680,set_tempo,480,1,0,,,,,,265498,,,,,,,
8160,note_on,480,0,1,,,,,,,,,0,,,68,0
8160,note_on,0,0,1,,,,,,,,,0,,,71,0
8160,note_on,0,0,2,,,,,,,,,0,,,50,62
8160,note_on,0,0,1,,,,,,,,,0,,,62,66
8160,note_on,0,0,1,,,,,,,,,0,,,68,66
8160,note_on,0,0,1,,,,,,,,,0,,,71,74
8160,note_on,480,0,2,,,,,,,,,0,,,53,0
8160,set_tempo,480,1,0,,,,,,267547,,,,,,,
8160,note_on,0,0,1,,,,,,,,,0,,,65,0
8400,note_on,0,0,2,,,,,,,,,0,,,50,62
8400,note_on,240,0,1,,,,,,,,,0,,,62,0
8400,note_on,0,0,1,,,,,,,,,0,,,68,0
8400,note_on,0,0,1,,,,,,,,,0,,,71,0
8400,note_on,0,0,1,,,,,,,,,0,,,68,66
8400,note_on,0,0,1,,,,,,,,,0,,,71,74
8400,note_on,0,0,1,,,,,,,,,0,,,62,66
8400,note_on,240,0,2,,,,,,,,,0,,,50,0
8508,control_change,108,0,2,,,,,,,,,0,64,0,,
8640,note_on,132,0,2,,,,,,,,,0,,,50,0
8640,note_on,0,0,2,,,,,,,,,0,,,51,69
8640,note_on,0,0,1,,,,,,,,,0,,,67,75
8640,set_tempo,480,1,0,,,,,,265498,,,,,,,
8640,note_on,0,0,1,,,,,,,,,0,,,63,75
8640,note_on,240,0,1,,,,,,,,,0,,,62,0
8640,note_on,0,0,1,,,,,,,,,0,,,71,0
8640,note_on,0,0,1,,,,,,,,,0,,,68,0
8640,note_on,0,0,1,,,,,,,,,0,,,72,84
8739,control_change,99,0,2,,,,,,,,,0,64,127,,
9120,set_tempo,480,1,0,,,,,,268240,,,,,,,
9120,note_on,381,0,2,,,,,,,,,0,,,51,0
9120,note_on,0,0,1,,,,,,,,,0,,,72,78
9120,note_on,0,0,1,,,,,,,,,0,,,67,70
9120,note_on,0,0,1,,,,,,,,,0,,,60,70
9120,note_on,0,0,1,,,,,,,,,0,,,63,0
9120,note_on,0,0,1,,,,,,,,,0,,,72,0
9120,note_on,0,0,2,,,,,,,,,0,,,48,65
9120,note_on,480,0,1,,,,,,,,,0,,,67,0
9360,note_on,240,0,2,,,,,,,,,0,,,48,0
9360,note_on,0,0,2,,,,,,,,,0,,,48,65
9360,note_on,0,0,1,,,,,,,,,0,,,67,70
9360,note_on,0,0,1,,,,,,,,,0,,,67,0
9360,note_on,0,0,1,,,,,,,,,0,,,60,70
9360,note_on,240,0,1,,,,,,,,,0,,,72,0
9360,note_on,0,0,1,,,,,,,,,0,,,72,78
9360,note_on,0,0,1,,,,,,,,,0,,,60,0
9432,control_change,72,0,2,,,,,,,,,0,64,0,,
9600,note_on,0,0,2,,,,,,,,,0,,,47,69
9600,note_on,168,0,2,,,,,,,,,0,,,48,0
9600,set_tempo,480,1,0,,,,,,265498,,,,,,,
9600,note_on,0,0,1,,,,,,,,,0,,,74,83
9600,note_on,240,0,1,,,,,,,,,0,,,60,0
9600,note_on,0,0,1,,,,,,,,,0,,,67,0
9600,note_on,0,0,1,,,,,,,,,0,,,72,0
9600,note_on,0,0,1,,,,,,,,,0,,,62,74
9600,note_on,0,0,1,,,,,,,,,0,,,67,74
9669,control_change,69,0,2,,,,,,,,,0,64,127,,
10080,note_on,0,0,2,,,,,,,,,0,,,43,66
10080,note_on,411,0,2,,,,,,,,,0,,,47,0
10080,set_tempo,480,1,0,,,,,,268240,,,,,,,
10080,note_on,0,0,1,,,,,,,,,0,,,62,70
10080,note_on,480,0,1,,,,,,,,,0,,,67,0
10080,note_on,0,0,1,,,,,,,,,0,,,74,0
10080,note_on,0,0,1,,,,,,,,,0,,,62,0
10080,note_on,0,0,1,,,,,,,,,0,,,71,78
10080,note_on,0,0,1,,,,,,,,,0,,,67,70
10320,note_on,240,0,1,,,,,,,,,0,,,67,0
10320,note_on,0,0,1,,,,,,,,,0,,,71,0
10320,note_on,0,0,1,,,,,,,,,0,,,62,0
10320,note_on,0,0,1,,,,,,,,,0,,,71,78
10320,note_on,0,0,1,,,,,,,,,0,,,67,70
10320,note_on,240,0,2,,,,,,,,,0,,,43,0
10320,note_on,0,0,2,,,,,,,,,0,,,43,66
10320,note_on,0,0,1,,,,,,,,,0,,,62,70
10424,control_change,104,0,2,,,,,,,,,0,64,0,,
10560,note_on,136,0,2,,,,,,,,,0,,,43,0
10560,note_on,240,0,1,,,,,,,,,0,,,62,0
10560,note_on,0,0,1,,,,,,,,,0,,,67,0
10560,note_on,0,0,1,,,,,,,,,0,,,71,0
10560,note_on,0,0,1,,,,,,,,,0,,,67,74
10560,note_on,0,0,1,,,,,,,,,0,,,63,74
10560,note_on,0,0,1,,,,,,,,,0,,,75,83
10560,note_on,0,0,2,,,,,,,,,0,,,48,70
10560,set_tempo,480,1,0,,,,,,265498,,,,,,,
10659,control_change,99,0,2,,,,,,,,,0,64,127,,
11040,note_on,0,0,2,,,,,,,,,0,,,43,70
11040,note_on,0,0,1,,,,,,,,,0,,,67,72
11040,note_on,0,0,1,,,,,,,,,0,,,72,81
11040,note_on,0,0,1,,,,,,,,,0,,,63,72
11040,note_on,381,0,2,,,,,,,,,0,,,48,0
11040,note_on,0,0,1,,,,,,,,,0,,,63,0
11040,note_on,480,0,1,,,,,,,,,0,,,75,0
11040,note_on,0,0,1,,,,,,,,,0,,,67,0
11040,set_tempo,480,1,0,,,,,,267547,,,,,,,
11280,note_on,0,0,1,,,,,,,,,0,,,72,81
11280,note_on,0,0,1,,,,,,,,,0,,,67,72
11280,note_on,0,0,1,,,,,,,,,0,,,63,72
11280,note_on,0,0,1,,,,,,,,,0,,,63,0
11280,note_on,0,0,2,,,,,,,,,0,,,43,70
11280,note_on,240,0,2,,,,,,,,,0,,,43,0
11280,note_on,0,0,1,,,,,,,,,0,,,72,0
11280,note_on,240,0,1,,,,,,,,,0,,,67,0
11364,control_change,84,0,2,,,,,,,,,0,64,0,,
11520,note_on,0,0,2,,,,,,,,,0,,,50,76
11520,note_on,156,0,2,,,,,,,,,0,,,43,0
11520,set_tempo,480,1,0,,,,,,265498,,,,,,,
11520,note_on,0,0,1,,,,,,,,,0,,,63,0
11520,note_on,0,0,1,,,,,,,,,0,,,67,0
11520,note_on,240,0,1,,,,,,,,,0,,,72,0
11520,note_on,0,0,1,,,,,,,,,0,,,77,90
11520,note_on,0,0,1,,,,,,,,,0,,,67,81
11633,control_change,113,0,2,,,,,,,,,0,64,127,,
12000,note_on,0,0,2,,,,,,,,,0,,,43,73
12000,note_on,0,0,1,,,,,,,,,0,,,67,78
12000,note_on,367,0,2,,,,,,,,,0,,,50,0
12000,set_tempo,480,1,0,,,,,,267547,,,,,,,
12000,note_on,480,0,1,,,,,,,,,0,,,77,0
12000,note_on,0,0,1,,,,,,,,,0,,,67,0
12000,note_on,0,0,1,,,,,,,,,0,,,79,87
12240,note_on,0,0,1,,,,,,,,,0,,,79,87
12240,note_on,240,0,2,,,,,,,,,0,,,43,0
12240,note_on,0,0,2,,,,,,,,,0,,,43,73
12240,note_on,0,0,1,,,,,,,,,0,,,67,78
12240,note_on,0,0,1,,,,,,,,,0,,,79,0
12240,note_on,240,0,1,,,,,,,,,0,,,67,0
12396,control_change,156,0,2,,,,,,,,,0,64,0,,
12480,set_tempo,480,1,0,,,,,,265498,,,,,,,
12480,note_on,0,0,1,,,,,,,,,0,,,78,92
12480,note_on,84,0,2,,,,,,,,,0,,,43,0
12480,note_on,240,0,1,,,,,,,,,0,,,67,0
12480,note_on,0,0,1,,,,,,,,,0,,,79,0
12480,note_on,0,0,1,,,,,,,,,0,,,67,82
12480,note_on,0,0,2,,,,,,,,,0,,,51,78
12876,control_change,396,0,2,,,,,,,,,0,64,127,,
12960,set_tempo,480,1,0,,,,,,267547,,,,,,,
12960,note_on,0,0,1,,,,,,,,,0,,,67,81
12960,note_on,480,0,1,,,,,,,,,0,,,78,0
12960,note_on,0,0,1,,,,,,,,,0,,,67,0
12960,note_on,0,0,1,,,,,,,,,0,,,79,90
12960,note_on,84,0,2,,,,,,,,,0,,,51,0
12960,note_on,0,0,2,,,,,,,,,0,,,43,75
13200,note_on,240,0,2,,,,,,,,,0,,,43,0
13200,note_on,0,0,2,,,,,,,,,0,,,43,75
13200,note_on,0,0,1,,,,,,,,,0,,,79,90
13200,note_on,0,0,1,,,,,,,,,0,,,67,81
13200,note_on,0,0,1,,,,,,,,,0,,,79,0
13200,note_on,240,0,1,,,,,,,,,0,,,67,0
13440,note_on,0,0,1,,,,,,,,,0,,,79,97
13440,note_on,240,0,2,,,,,,,,,0,,,43,0
13440,note_on,0,0,2,,,,,,,,,0,,,51,82
13440,note_on,240,0,1,,,,,,,,,0,,,79,0
13440,set_tempo,480,1,0,,,,,,280597,,,,,,,
13440,note_on,0,0,1,,,,,,,,,0,,,67,0
13440,note_on,0,0,1,,,,,,,,,0,,,67,87
13628,control_change,188,0,2,,,,,,,,,0,64,0,,
13910,note_on,282,0,2,,,,,,,,,0,,,51,0
13910,note_on,470,0,1,,,,,,,,,0,,,67,0
13910,note_on,0,0,1,,,,,,,,,0,,,79,0
13920,note_on,0,0,2,,,,,,,,,0,,,49,82
13920,control_change,10,0,2,,,,,,,,,0,64,127,,
13920,note_on,0,0,1,,,,,,,,,0,,,68,87
13920,note_on,0,0,1,,,,,,,,,0,,,77,87
13920,set_tempo,480,1,0,,,,,,277598,,,,,,,
13920,note_on,0,0,2,,,,,,,,,0,,,37,73
13920,note_on,10,0,1,,,,,,,,,0,,,80,97
14160,note_on,240,0,1,,,,,,,,,0,,,77,0
14160,note_on,0,0,1,,,,,,,,,0,,,80,0
14160,note_on,0,0,1,,,,,,,,,0,,,68,0
14160,note_on,240,0,2,,,,,,,,,0,,,37,0
14160,note_on,0,0,2,,,,,,,,,0,,,49,0
14400,note_on,240,0,2,,,,,,,,,0,,,49,82
14400,note_on,0,0,1,,,,,,,,,0,,,68,87
14400,note_on,0,0,2,,,,,,,,,0,,,37,73
14400,note_on,240,0,1,,,,,,,,,0,,,80,97
14400,note_on,0,0,1,,,,,,,,,0,,,77,87
14640,note_on,240,0,1,,,,,,,,,0,,,68,0
14640,note_on,0,0,1,,,,,,,,,0,,,77,0
14640,note_on,0,0,1,,,,,,,,,0,,,80,0
14640,note_on,0,0,2,,,,,,,,,0,,,49,0
14640,note_on,240,0,2,,,,,,,,,0,,,37,0
14880,note_on,240,0,2,,,,,,,,,0,,,37,73
14880,note_on,0,0,2,,,,,,,,,0,,,49,82
14880,note_on,240,0,1,,,,,,,,,0,,,68,87
14880,note_on,0,0,1,,,,,,,,,0,,,77,87
14880,note_on,0,0,1,,,,,,,,,0,,,80,97
15120,note_on,0,0,1,,,,,,,,,0,,,68,0
15120,note_on,240,0,2,,,,,,,,,0,,,49,0
15120,note_on,0,0,2,,,,,,,,,0,,,37,0
15120,note_on,240,0,1,,,,,,,,,0,,,80,0
15120,note_on,0,0,1,,,,,,,,,0,,,77,0
15360,note_on,240,0,1,,,,,,,,,0,,,80,97
15360,note_on,0,0,1,,,,,,,,,0,,,77,87
15360,set_tempo,1440,1,0,,,,,,280597,,,,,,,
15360,note_on,0,0,2,,,,,,,,,0,,,49,82
15360,note_on,240,0,2,,,,,,,,,0,,,37,73
15360,note_on,0,0,1,,,,,,,,,0,,,68,87
15600,note_on,0,0,2,,,,,,,,,0,,,37,0
15600,note_on,240,0,2,,,,,,,,,0,,,49,0
15600,note_on,0,0,1,,,,,,,,,0,,,77,0
15600,note_on,240,0,1,,,,,,,,,0,,,68,0
15600,note_on,0,0,1,,,,,,,,,0,,,80,0
15712,control_change,112,0,2,,,,,,,,,0,64,0,,
15840,note_on,240,0,1,,,,,,,,,0,,,73,87
15840,note_on,0,0,1,,,,,,,,,0,,,80,87
15840,note_on,0,0,1,,,,,,,,,0,,,85,97
15840,note_on,128,0,2,,,,,,,,,0,,,53,82
15840,note_on,0,0,2,,,,,,,,,0,,,41,73
15840,set_tempo,480,1,0,,,,,,276116,,,,,,,
15868,control_change,28,0,2,,,,,,,,,0,64,127,,
16080,note_on,0,0,1,,,,,,,,,0,,,85,0
16080,note_on,240,0,1,,,,,,,,,0,,,80,0
16080,note_on,0,0,1,,,,,,,,,0,,,73,0
16080,note_on,212,0,2,,,,,,,,,0,,,41,0
16080,note_on,0,0,2,,,,,,,,,0,,,53,0
16320,note_on,0,0,2,,,,,,,,,0,,,44,67
16320,note_on,0,0,1,,,,,,,,,0,,,73,81
16320,note_on,240,0,2,,,,,,,,,0,,,53,67
16320,note_on,0,0,1,,,,,,,,,0,,,80,81
16320,note_on,0,0,2,,,,,,,,,0,,,56,75
16320,note_on,240,0,1,,,,,,,,,0,,,85,90
16800,set_tempo,960,1,0,,,,,,278345,,,,,,,
16800,note_on,0,0,1,,,,,,,,,0,,,73,85
16800,note_on,0,0,1,,,,,,,,,0,,,85,95
16800,note_on,0,0,1,,,,,,,,,0,,,80,85
16800,note_on,0,0,1,,,,,,,,,0,,,85,0
16800,note_on,480,0,2,,,,,,,,,0,,,56,0
16800,note_on,0,0,2,,,,,,,,,0,,,44,0
16800,note_on,0,0,2,,,,,,,,,0,,,53,0
16800,note_on,0,0,2,,,,,,,,,0,,,56,80
16800,note_on,0,0,2,,,,,,,,,0,,,44,72
16800,note_on,0,0,2,,,,,,,,,0,,,53,72
16800,note_on,0,0,1,,,,,,,,,0,,,80,0
16800,note_on,480,0,1,,,,,,,,,0,,,73,0
17040,note_on,0,0,1,,,,,,,,,0,,,80,87
17040,note_on,0,0,1,,,,,,,,,0,,,73,87
17040,note_on,0,0,1,,,,,,,,,0,,,85,97
17040,note_on,0,0,1,,,,,,,,,0,,,80,0
17040,note_on,0,0,1,,,,,,,,,0,,,85,0
17040,note_on,240,0,1,,,,,,,,,0,,,73,0
17040,note_on,0,0,2,,,,,,,,,0,,,44,73
17040,note_on,0,0,2,,,,,,,,,0,,,56,82
17040,note_on,0,0,2,,,,,,,,,0,,,53,73
17040,note_on,240,0,2,,,,,,,,,0,,,44,0
17040,note_on,0,0,2,,,,,,,,,0,,,53,0
17040,note_on,0,0,2,,,,,,,,,0,,,56,0
17152,control_change,112,0,2,,,,,,,,,0,64,0,,
17280,note_on,0,0,2,,,,,,,,,0,,,53,0
17280,note_on,0,0,1,,,,,,,,,0,,,84,89
17280,note_on,0,0,1,,,,,,,,,0,,,75,89
17280,note_on,0,0,1,,,,,,,,,0,,,73,0
17280,note_on,240,0,1,,,,,,,,,0,,,80,0
17280,set_tempo,480,1,0,,,,,,275381,,,,,,,
17280,note_on,128,0,2,,,,,,,,,0,,,44,0
17280,note_on,0,0,2,,,,,,,,,0,,,56,0
17280,note_on,0,0,2,,,,,,,,,0,,,56,84
17280,note_on,0,0,2,,,,,,,,,0,,,54,75
17280,note_on,0,0,2,,,,,,,,,0,,,44,75
17280,note_on,0,0,1,,,,,,,,,0,,,87,99
17280,note_on,0,0,1,,,,,,,,,0,,,85,0
17356,control_change,76,0,2,,,,,,,,,0,64,127,,
17760,note_on,0,0,2,,,,,,,,,0,,,44,0
17760,note_on,0,0,1,,,,,,,,,0,,,84,0
17760,note_on,0,0,1,,,,,,,,,0,,,87,0
17760,note_on,0,0,1,,,,,,,,,0,,,75,84
17760,note_on,0,0,1,,,,,,,,,0,,,87,94
17760,note_on,0,0,1,,,,,,,,,0,,,84,84
17760,note_on,0,0,2,,,,,,,,,0,,,54,72
17760,note_on,0,0,2,,,,,,,,,0,,,44,72
17760,note_on,0,0,2,,,,,,,,,0,,,56,80
17760,note_on,404,0,2,,,,,,,,,0,,,56,0
17760,note_on,0,0,2,,,,,,,,,0,,,54,0
17760,note_on,480,0,1,,,,,,,,,0,,,75,0
17760,set_tempo,480,1,0,,,,,,279838,,,,,,,
18000,note_on,0,0,2,,,,,,,,,0,,,44,70
18000,note_on,0,0,2,,,,,,,,,0,,,56,0
18000,note_on,240,0,2,,,,,,,,,0,,,44,0
18000,note_on,0,0,2,,,,,,,,,0,,,56,78
18000,note_on,0,0,2,,,,,,,,,0,,,54,0
18000,note_on,240,0,1,,,,,,,,,0,,,84,0
18000,note_on,0,0,1,,,,,,,,,0,,,87,0
18000,note_on,0,0,2,,,,,,,,,0,,,54,70
18000,note_on,0,0,1,,,,,,,,,0,,,75,0
18000,note_on,0,0,1,,,,,,,,,0,,,87,91
18000,note_on,0,0,1,,,,,,,,,0,,,84,81
18000,note_on,0,0,1,,,,,,,,,0,,,75,81
18100,control_change,100,0,2,,,,,,,,,0,64,0,,
18240,note_on,0,0,2,,,,,,,,,0,,,56,75
18240,note_on,0,0,2,,,,,,,,,0,,,53,67
18240,note_on,0,0,2,,,,,,,,,0,,,49,67
18240,note_on,0,0,2,,,,,,,,,0,,,54,0
18240,note_on,0,0,2,,,,,,,,,0,,,56,0
18240,note_on,0,0,1,,,,,,,,,0,,,85,89
18240,note_on,0,0,1,,,,,,,,,0,,,73,80
18240,note_on,0,0,1,,,,,,,,,0,,,87,0
18240,note_on,0,0,1,,,,,,,,,0,,,84,0
18240,note_on,240,0,1,,,,,,,,,0,,,75,0
18240,note_on,140,0,2,,,,,,,,,0,,,44,0
18240,set_tempo,480,1,0,,,,,,275381,,,,,,,
18298,control_change,58,0,2,,,,,,,,,0,64,127,,
18480,note_on,240,0,1,,,,,,,,,0,,,85,0
18480,note_on,0,0,1,,,,,,,,,0,,,73,0
18480,note_on,0,0,2,,,,,,,,,0,,,49,0
18480,note_on,0,0,2,,,,,,,,,0,,,53,0
18480,note_on,182,0,2,,,,,,,,,0,,,56,0
18720,note_on,0,0,2,,,,,,,,,0,,,49,77
18720,note_on,240,0,2,,,,,,,,,0,,,37,69
18720,note_on,240,0,1,,,,,,,,,0,,,83,92
18720,note_on,0,0,1,,,,,,,,,0,,,71,82
18720,note_on,0,0,1,,,,,,,,,0,,,80,82
18720,set_tempo,480,1,0,,,,,,284455,,,,,,,
18720,note_on,0,0,1,,,,,,,,,0,,,77,82
18960,note_on,240,0,2,,,,,,,,,0,,,49,0
18960,note_on,0,0,2,,,,,,,,,0,,,37,0
18960,note_on,0,0,1,,,,,,,,,0,,,71,0
18960,note_on,240,0,1,,,,,,,,,0,,,77,0
18960,note_on,0,0,1,,,,,,,,,0,,,83,0
18960,note_on,0,0,1,,,,,,,,,0,,,80,0
19200,set_tempo,480,1,0,,,,,,294146,,,,,,,
19200,note_on,240,0,1,,,,,,,,,0,,,84,92
19200,control_change,0,0,2,,,,,,,,,0,64,0,,
19200,note_on,0,0,2,,,,,,,,,0,,,48,77
19200,note_on,240,0,2,,,,,,,,,0,,,36,69
19200,note_on,0,0,1,,,,,,,,,0,,,80,82
19200,note_on,0,0,1,,,,,,,,,0,,,77,82
19200,note_on,0,0,1,,,,,,,,,0,,,72,82
19428,control_change,228,0,2,,,,,,,,,0,64,127,,
19440,note_on,240,0,1,,,,,,,,,0,,,72,0
19440,note_on,0,0,1,,,,,,,,,0,,,77,0
19440,note_on,0,0,1,,,,,,,,,0,,,80,0
19440,note_on,12,0,2,,,,,,,,,0,,,48,0
19440,note_on,0,0,2,,,,,,,,,0,,,36,0
19440,note_on,0,0,1,,,,,,,,,0,,,84,0
19680,note_on,0,0,1,,,,,,,,,0,,,76,82
19680,note_on,240,0,1,,,,,,,,,0,,,79,82
19680,note_on,0,0,1,,,,,,,,,0,,,72,82
19680,note_on,0,0,2,,,,,,,,,0,,,36,69
19680,note_on,240,0,2,,,,,,,,,0,,,48,77
19680,set_tempo,480,1,0,,,,,,302755,,,,,,,
19680,note_on,0,0,1,,,,,,,,,0,,,84,92
19920,note_on,0,0,1,,,,,,,,,0,,,79,0
19920,note_on,240,0,1,,,,,,,,,0,,,84,0
19920,note_on,0,0,1,,,,,,,,,0,,,72,0
19920,note_on,0,0,1,,,,,,,,,0,,,76,0
19920,note_on,240,0,2,,,,,,,,,0,,,36,0
19920,note_on,0,0,2,,,,,,,,,0,,,48,0
20012,control_change,92,0,2,,,,,,,,,0,64,0,,
20140,set_tempo,460,1,0,,,,,,292497,,,,,,,
20160,note_on,240,0,1,,,,,,,,,0,,,72,66
20160,note_on,0,0,1,,,,,,,,,0,,,68,66
20160,note_on,0,0,1,,,,,,,,,0,,,80,74
20160,note_on,148,0,2,,,,,,,,,0,,,41,55
20160,set_tempo,20,1,0,,,,,,265498,,,,,,,
20160,note_on,0,0,2,,,,,,,,,0,,,53,62
20209,control_change,49,0,2,,,,,,,,,0,64,127,,
20640,set_tempo,480,1,0,,,,,,267547,,,,,,,
20640,note_on,0,0,2,,,,,,,,,0,,,53,61
20640,note_on,431,0,2,,,,,,,,,0,,,53,0
20640,note_on,0,0,2,,,,,,,,,0,,,41,0
20640,note_on,0,0,1,,,,,,,,,0,,,68,63
20640,note_on,0,0,1,,,,,,,,,0,,,72,63
20640,note_on,0,0,1,,,,,,,,,0,,,79,71
20640,note_on,0,0,1,,,,,,,,,0,,,72,0
20640,note_on,0,0,1,,,,,,,,,0,,,68,0
20640,note_on,480,0,1,,,,,,,,,0,,,80,0
20760,note_on,120,0,2,,,,,,,,,0,,,53,0
20760,note_on,120,0,1,,,,,,,,,0,,,68,0
20760,note_on,0,0,1,,,,,,,,,0,,,72,0
20760,note_on,0,0,1,,,,,,,,,0,,,79,0
20880,note_on,0,0,1,,,,,,,,,0,,,68,63
20880,note_on,120,0,1,,,,,,,,,0,,,77,70
20880,note_on,0,0,1,,,,,,,,,0,,,72,63
20880,note_on,120,0,2,,,,,,,,,0,,,53,61
21000,note_on,120,0,1,,,,,,,,,0,,,68,0
21000,note_on,0,0,1,,,,,,,,,0,,,72,0
21000,note_on,120,0,2,,,,,,,,,0,,,53,0
21000,note_on,0,0,1,,,,,,,,,0,,,77,0
21120,note_on,120,0,2,,,,,,,,,0,,,41,55
21120,note_on,120,0,1,,,,,,,,,0,,,77,74
21120,note_on,0,0,1,,,,,,,,,0,,,72,66
21120,note_on,0,0,1,,,,,,,,,0,,,68,66
21120,set_tempo,480,1,0,,,,,,265498,,,,,,,
21120,note_on,0,0,2,,,,,,,,,0,,,53,62
21232,control_change,112,0,2,,,,,,,,,0,64,0,,
21572,control_change,340,0,2,,,,,,,,,0,64,127,,
21600,note_on,0,0,2,,,,,,,,,0,,,53,61
21600,note_on,0,0,2,,,,,,,,,0,,,41,0
21600,note_on,28,0,2,,,,,,,,,0,,,53,0
21600,set_tempo,480,1,0,,,,,,268240,,,,,,,
21600,note_on,0,0,1,,,,,,,,,0,,,68,64
21600,note_on,0,0,1,,,,,,,,,0,,,77,0
21600,note_on,480,0,1,,,,,,,,,0,,,68,0
21600,note_on,0,0,1,,,,,,,,,0,,,72,72
21600,note_on,0,0,1,,,,,,,,,0,,,72,0
21840,note_on,0,0,2,,,,,,,,,0,,,53,61
21840,note_on,0,0,1,,,,,,,,,0,,,68,0
21840,note_on,0,0,1,,,,,,,,,0,,,68,64
21840,note_on,0,0,1,,,,,,,,,0,,,72,72
21840,note_on,240,0,2,,,,,,,,,0,,,53,0
21840,note_on,240,0,1,,,,,,,,,0,,,72,0
22080,note_on,240,0,1,,,,,,,,,0,,,72,0
22080,note_on,0,0,1,,,,,,,,,0,,,68,0
22080,note_on,0,0,1,,,,,,,,,0,,,77,75
22080,note_on,0,0,1,,,,,,,,,0,,,73,67
22080,note_on,0,0,1,,,,,,,,,0,,,70,67
22080,note_on,240,0,2,,,,,,,,,0,,,53,0
22080,set_tempo,480,1,0,,,,,,265498,,,,,,,
22080,note_on,0,0,2,,,,,,,,,0,,,41,57
22080,note_on,0,0,2,,,,,,,,,0,,,53,64
22292,control_change,212,0,2,,,,,,,,,0,64,0,,
22560,note_on,0,0,1,,,,,,,,,0,,,70,64
22560,note_on,268,0,2,,,,,,,,,0,,,53,0
22560,note_on,0,0,2,,,,,,,,,0,,,41,0
22560,note_on,0,0,2,,,,,,,,,0,,,53,62
22560,set_tempo,480,1,0,,,,,,267547,,,,,,,
22560,note_on,0,0,1,,,,,,,,,0,,,73,72
22560,note_on,0,0,1,,,,,,,,,0,,,77,0
22560,note_on,0,0,1,,,,,,,,,0,,,73,0
22560,note_on,480,0,1,,,,,,,,,0,,,70,0
22604,control_change,44,0,2,,,,,,,,,0,64,127,,
22800,note_on,0,0,1,,,,,,,,,0,,,70,0
22800,note_on,240,0,1,,,,,,,,,0,,,73,0
22800,note_on,0,0,2,,,,,,,,,0,,,53,62
22800,note_on,196,0,2,,,,,,,,,0,,,53,0
22800,note_on,0,0,1,,,,,,,,,0,,,70,64
22800,note_on,0,0,1,,,,,,,,,0,,,73,72
23040,set_tempo,480,1,0,,,,,,265498,,,,,,,
23040,note_on,0,0,1,,,,,,,,,0,,,68,68
23040,note_on,0,0,1,,,,,,,,,0,,,70,0
23040,note_on,0,0,1,,,,,,,,,0,,,77,76
23040,note_on,0,0,1,,,,,,,,,0,,,72,68
23040,note_on,0,0,2,,,,,,,,,0,,,53,65
23040,note_on,0,0,2,,,,,,,,,0,,,41,58
23040,note_on,240,0,2,,,,,,,,,0,,,53,0
23040,note_on,240,0,1,,,,,,,,,0,,,73,0
23224,control_change,184,0,2,,,,,,,,,0,64,0,,
23510,note_on,0,0,1,,,,,,,,,0,,,72,0
23510,note_on,0,0,1,,,,,,,,,0,,,77,0
23510,note_on,470,0,1,,,,,,,,,0,,,68,0
23510,note_on,286,0,2,,,,,,,,,0,,,53,0
23510,note_on,0,0,2,,,,,,,,,0,,,41,0
23520,set_tempo,480,1,0,,,,,,272480,,,,,,,
23520,note_on,10,0,2,,,,,,,,,0,,,53,45
23520,note_on,10,0,1,,,,,,,,,0,,,68,48
23520,note_on,0,0,1,,,,,,,,,0,,,72,54
23536,control_change,16,0,2,,,,,,,,,0,64,127,,
23760,note_on,224,0,2,,,,,,,,,0,,,53,0
23760,note_on,0,0,2,,,,,,,,,0,,,53,46
23760,note_on,0,0,1,,,,,,,,,0,,,72,54
23760,note_on,0,0,1,,,,,,,,,0,,,68,48
23760,note_on,0,0,1,,,,,,,,,0,,,68,0
23760,note_on,240,0,1,,,,,,,,,0,,,72,0
24000,note_on,240,0,2,,,,,,,,,0,,,53,0
24000,note_on,0,0,2,,,,,,,,,0,,,29,36
24000,note_on,0,0,2,,,,,,,,,0,,,41,40
24000,note_on,240,0,1,,,,,,,,,0,,,72,0
24000,note_on,0,0,1,,,,,,,,,0,,,68,0
24000,note_on,0,0,1,,,,,,,,,0,,,68,43
24000,note_on,0,0,1,,,,,,,,,0,,,72,48
24000,set_tempo,480,1,0,,,,,,265498,,,,,,,
24480,note_on,0,0,2,,,,,,,,,0,,,41,38
24480,set_tempo,480,1,0,,,,,,268240,,,,,,,
24480,note_on,0,0,2,,,,,,,,,0,,,29,0
24480,note_on,480,0,2,,,,,,,,,0,,,41,0
24480,note_on,480,0,1,,,,,,,,,0,,,72,0
24480,note_on,0,0,1,,,,,,,,,0,,,68,43
24480,note_on,0,0,1,,,,,,,,,0,,,68,0
24480,note_on,0,0,1,,,,,,,,,0,,,67,43
24480,note_on,0,0,1,,,,,,,,,0,,,72,48
24600,note_on,120,0,1,,,,,,,,,0,,,72,0
24600,note_on,0,0,1,,,,,,,,,0,,,68,0
24600,note_on,0,0,1,,,,,,,,,0,,,67,0
24600,note_on,120,0,2,,,,,,,,,0,,,41,0
24720,note_on,120,0,2,,,,,,,,,0,,,41,38
24720,note_on,0,0,1,,,,,,,,,0,,,72,45
24720,note_on,0,0,1,,,,,,,,,0,,,68,40
24720,note_on,120,0,1,,,,,,,,,0,,,65,40
24840,note_on,0,0,1,,,,,,,,,0,,,65,0
24840,note_on,0,0,1,,,,,,,,,0,,,68,0
24840,note_on,120,0,2,,,,,,,,,0,,,41,0
24840,note_on,120,0,1,,,,,,,,,0,,,72,0
24960,note_on,120,0,2,,,,,,,,,0,,,29,36
24960,note_on,0,0,2,,,,,,,,,0,,,41,40
24960,note_on,0,0,1,,,,,,,,,0,,,68,40
24960,note_on,0,0,1,,,,,,,,,0,,,72,45
24960,set_tempo,480,1,0,,,,,,265498,,,,,,,
24960,note_on,120,0,1,,,,,,,,,0,,,65,40
25256,control_change,296,0,2,,,,,,,,,0,64,0,,
25440,note_on,0,0,1,,,,,,,,,0,,,68,43
25440,note_on,0,0,1,,,,,,,,,0,,,60,43
25440,note_on,0,0,1,,,,,,,,,0,,,65,0
25440,note_on,480,0,1,,,,,,,,,0,,,72,0
25440,note_on,0,0,1,,,,,,,,,0,,,72,48
25440,note_on,184,0,2,,,,,,,,,0,,,41,0
25440,note_on,0,0,1,,,,,,,,,0,,,68,0
25440,note_on,0,0,2,,,,,,,,,0,,,29,0
25440,note_on,0,0,2,,,,,,,,,0,,,41,38
25440,set_tempo,480,1,0,,,,,,268240,,,,,,,
25540,control_change,100,0,2,,,,,,,,,0,64,127,,
25680,note_on,0,0,1,,,,,,,,,0,,,72,45
25680,note_on,140,0,2,,,,,,,,,0,,,41,0
25680,note_on,0,0,2,,,,,,,,,0,,,41,38
25680,note_on,240,0,1,,,,,,,,,0,,,72,0
25680,note_on,0,0,1,,,,,,,,,0,,,68,0
25680,note_on,0,0,1,,,,,,,,,0,,,60,40
25680,note_on,0,0,1,,,,,,,,,0,,,68,40
25680,note_on,0,0,1,,,,,,,,,0,,,60,0
25920,note_on,0,0,1,,,,,,,,,0,,,65,40
25920,note_on,0,0,1,,,,,,,,,0,,,70,40
25920,note_on,0,0,1,,,,,,,,,0,,,73,45
25920,note_on,0,0,1,,,,,,,,,0,,,60,0
25920,note_on,240,0,1,,,,,,,,,0,,,72,0
25920,note_on,0,0,1,,,,,,,,,0,,,68,0
25920,note_on,240,0,2,,,,,,,,,0,,,41,0
25920,note_on,0,0,2,,,,,,,,,0,,,29,36
25920,note_on,0,0,2,,,,,,,,,0,,,41,40
25920,set_tempo,480,1,0,,,,,,265498,,,,,,,
26216,control_change,296,0,2,,,,,,,,,0,64,0,,
26400,note_on,0,0,2,,,,,,,,,0,,,41,38
26400,note_on,0,0,2,,,,,,,,,0,,,29,0
26400,note_on,184,0,2,,,,,,,,,0,,,41,0
26400,note_on,480,0,1,,,,,,,,,0,,,65,0
26400,note_on,0,0,1,,,,,,,,,0,,,70,0
26400,note_on,0,0,1,,,,,,,,,0,,,61,43
26400,note_on,0,0,1,,,,,,,,,0,,,70,43
26400,note_on,0,0,1,,,,,,,,,0,,,73,48
26400,note_on,0,0,1,,,,,,,,,0,,,73,0
26400,set_tempo,480,1,0,,,,,,267547,,,,,,,
26500,control_change,100,0,2,,,,,,,,,0,64,127,,
26640,note_on,140,0,2,,,,,,,,,0,,,41,0
26640,note_on,0,0,2,,,,,,,,,0,,,41,38
26640,note_on,240,0,1,,,,,,,,,0,,,73,0
26640,note_on,0,0,1,,,,,,,,,0,,,70,0
26640,note_on,0,0,1,,,,,,,,,0,,,61,0
26640,note_on,0,0,1,,,,,,,,,0,,,61,40
26640,note_on,0,0,1,,,,,,,,,0,,,70,40
26640,note_on,0,0,1,,,,,,,,,0,,,73,45
26880,note_on,0,0,2,,,,,,,,,0,,,29,36
26880,note_on,0,0,2,,,,,,,,,0,,,41,40
26880,note_on,0,0,1,,,,,,,,,0,,,72,45
26880,note_on,0,0,1,,,,,,,,,0,,,68,40
26880,note_on,0,0,1,,,,,,,,,0,,,65,40
26880,note_on,240,0,1,,,,,,,,,0,,,73,0
26880,note_on,0,0,1,,,,,,,,,0,,,70,0
26880,note_on,240,0,2,,,,,,,,,0,,,41,0
26880,set_tempo,480,1,0,,,,,,265498,,,,,,,
26880,note_on,0,0,1,,,,,,,,,0,,,61,0
27360,note_on,480,0,2,,,,,,,,,0,,,41,0
27360,note_on,0,0,1,,,,,,,,,0,,,72,45
27360,note_on,480,0,1,,,,,,,,,0,,,72,0
27360,note_on,0,0,1,,,,,,,,,0,,,60,40
27360,note_on,0,0,1,,,,,,,,,0,,,65,0
27360,note_on,0,0,1,,,,,,,,,0,,,68,0
27360,note_on,0,0,2,,,,,,,,,0,,,41,38
27360,set_tempo,480,1,0,,,,,,271764,,,,,,,
27360,note_on,0,0,1,,,,,,,,,0,,,68,40
27360,note_on,0,0,2,,,,,,,,,0,,,29,0
27600,note_on,240,0,1,,,,,,,,,0,,,72,0
27600,note_on,0,0,1,,,,,,,,,0,,,68,0
27600,note_on,0,0,1,,,,,,,,,0,,,60,0
27600,note_on,0,0,1,,,,,,,,,0,,,68,40
27600,note_on,0,0,1,,,,,,,,,0,,,60,40
27600,note_on,0,0,2,,,,,,,,,0,,,41,38
27600,note_on,240,0,2,,,,,,,,,0,,,41,0
27600,note_on,0,0,1,,,,,,,,,0,,,72,45
27684,control_change,84,0,2,,,,,,,,,0,64,0,,
27840,note_on,0,0,2,,,,,,,,,0,,,53,67
27840,note_on,0,0,1,,,,,,,,,0,,,60,0
27840,note_on,0,0,1,,,,,,,,,0,,,71,78
27840,note_on,0,0,1,,,,,,,,,0,,,68,70
27840,note_on,0,0,1,,,,,,,,,0,,,65,70
27840,set_tempo,480,1,0,,,,,,265498,,,,,,,
27840,note_on,0,0,1,,,,,,,,,0,,,68,0
27840,note_on,156,0,2,,,,,,,,,0,,,41,0
27840,note_on,240,0,1,,,,,,,,,0,,,72,0
27881,control_change,41,0,2,,,,,,,,,0,64,127,,
28320,note_on,0,0,1,,,,,,,,,0,,,71,0
28320,note_on,0,0,1,,,,,,,,,0,,,71,74
28320,note_on,0,0,1,,,,,,,,,0,,,62,66
28320,set_tempo,480,1,0,,,,,,267547,,,,,,,
28320,note_on,0,0,1,,,,,,,,,0,,,68,66
28320,note_on,0,0,1,,,,,,,,,0,,,68,0
28320,note_on,480,0,1,,,,,,,,,0,,,65,0
28320,note_on,0,0,2,,,,,,,,,0,,,50,62
28320,note_on,439,0,2,,,,,,,,,0,,,53,0
28560,note_on,0,0,1,,,,,,,,,0,,,71,0
28560,note_on,240,0,1,,,,,,,,,0,,,62,0
28560,note_on,0,0,1,,,,,,,,,0,,,68,66
28560,note_on,0,0,1,,,,,,,,,0,,,68,0
28560,note_on,0,0,1,,,,,,,,,0,,,62,66
28560,note_on,0,0,1,,,,,,,,,0,,,71,74
28560,note_on,240,0,2,,,,,,,,,0,,,50,0
28560,note_on,0,0,2,,,,,,,,,0,,,50,62
28668,control_change,108,0,2,,,,,,,,,0,64,0,,
28800,note_on,0,0,1,,,,,,,,,0,,,67,75
28800,note_on,0,0,1,,,,,,,,,0,,,63,75
28800,note_on,0,0,1,,,,,,,,,0,,,71,0
28800,note_on,0,0,1,,,,,,,,,0,,,68,0
28800,note_on,240,0,1,,,,,,,,,0,,,62,0
28800,note_on,0,0,2,,,,,,,,,0,,,51,69
28800,note_on,0,0,1,,,,,,,,,0,,,72,84
28800,set_tempo,480,1,0,,,,,,265498,,,,,,,
28800,note_on,132,0,2,,,,,,,,,0,,,50,0
28941,control_change,141,0,2,,,,,,,,,0,64,127,,
29280,note_on,0,0,1,,,,,,,,,0,,,60,70
29280,note_on,0,0,1,,,,,,,,,0,,,67,70
29280,set_tempo,480,1,0,,,,,,268240,,,,,,,
29280,note_on,0,0,1,,,,,,,,,0,,,63,0
29280,note_on,0,0,1,,,,,,,,,0,,,72,78
29280,note_on,480,0,1,,,,,,,,,0,,,72,0
29280,note_on,339,0,2,,,,,,,,,0,,,51,0
29280,note_on,0,0,2,,,,,,,,,0,,,48,65
29280,note_on,0,0,1,,,,,,,,,0,,,67,0
29520,note_on,240,0,1,,,,,,,,,0,,,72,0
29520,note_on,0,0,1,,,,,,,,,0,,,67,0
29520,note_on,0,0,1,,,,,,,,,0,,,60,0
29520,note_on,0,0,1,,,,,,,,,0,,,60,70
29520,note_on,0,0,1,,,,,,,,,0,,,67,70
29520,note_on,0,0,1,,,,,,,,,0,,,72,78
29520,note_on,0,0,2,,,,,,,,,0,,,48,65
29520,note_on,240,0,2,,,,,,,,,0,,,48,0
29592,control_change,72,0,2,,,,,,,,,0,64,0,,
29760,note_on,168,0,2,,,,,,,,,0,,,48,0
29760,set_tempo,480,1,0,,,,,,265498,,,,,,,
29760,note_on,0,0,1,,,,,,,,,0,,,62,74
29760,note_on,0,0,1,,,,,,,,,0,,,74,83
29760,note_on,0,0,1,,,,,,,,,0,,,60,0
29760,note_on,0,0,1,,,,,,,,,0,,,67,0
29760,note_on,240,0,1,,,,,,,,,0,,,72,0
29760,note_on,0,0,2,,,,,,,,,0,,,47,69
29760,note_on,0,0,1,,,,,,,,,0,,,67,74
29817,control_change,57,0,2,,,,,,,,,0,64,127,,
30240,note_on,480,0,1,,,,,,,,,0,,,67,0
30240,note_on,0,0,1,,,,,,,,,0,,,74,0
30240,note_on,0,0,1,,,,,,,,,0,,,62,0
30240,note_on,0,0,1,,,,,,,,,0,,,71,78
30240,note_on,0,0,1,,,,,,,,,0,,,62,70
30240,note_on,0,0,1,,,,,,,,,0,,,67,70
30240,set_tempo,480,1,0,,,,,,268240,,,,,,,
30240,note_on,0,0,2,,,,,,,,,0,,,43,66
30240,note_on,423,0,2,,,,,,,,,0,,,47,0
30480,note_on,240,0,1,,,,,,,,,0,,,62,0
30480,note_on,0,0,2,,,,,,,,,0,,,43,66
30480,note_on,240,0,2,,,,,,,,,0,,,43,0
30480,note_on,0,0,1,,,,,,,,,0,,,67,0
30480,note_on,0,0,1,,,,,,,,,0,,,62,70
30480,note_on,0,0,1,,,,,,,,,0,,,67,70
30480,note_on,0,0,1,,,,,,,,,0,,,71,0
30480,note_on,0,0,1,,,,,,,,,0,,,71,78
30584,control_change,104,0,2,,,,,,,,,0,64,0,,
30720,note_on,0,0,1,,,,,,,,,0,,,67,0
30720,set_tempo,480,1,0,,,,,,265498,,,,,,,
30720,note_on,0,0,1,,,,,,,,,0,,,71,0
30720,note_on,0,0,1,,,,,,,,,0,,,67,74
30720,note_on,0,0,1,,,,,,,,,0,,,63,74
30720,note_on,0,0,1,,,,,,,,,0,,,75,83
30720,note_on,0,0,2,,,,,,,,,0,,,48,70
30720,note_on,240,0,1,,,,,,,,,0,,,62,0
30720,note_on,136,0,2,,,,,,,,,0,,,43,0
30904,control_change,184,0,2,,,,,,,,,0,64,127,,
31200,note_on,0,0,1,,,,,,,,,0,,,63,72
31200,set_tempo,480,1,0,,,,,,267547,,,,,,,
31200,note_on,0,0,2,,,,,,,,,0,,,43,70
31200,note_on,296,0,2,,,,,,,,,0,,,48,0
31200,note_on,480,0,1,,,,,,,,,0,,,75,0
31200,note_on,0,0,1,,,,,,,,,0,,,67,0
31200,note_on,0,0,1,,,,,,,,,0,,,63,0
31200,note_on,0,0,1,,,,,,,,,0,,,67,72
31200,note_on,0,0,1,,,,,,,,,0,,,72,81
31440,note_on,0,0,1,,,,,,,,,0,,,72,81
31440,note_on,0,0,1,,,,,,,,,0,,,67,72
31440,note_on,0,0,2,,,,,,,,,0,,,43,70
31440,note_on,240,0,2,,,,,,,,,0,,,43,0
31440,note_on,0,0,1,,,,,,,,,0,,,67,0
31440,note_on,240,0,1,,,,,,,,,0,,,72,0
31440,note_on,0,0,1,,,,,,,,,0,,,63,72
31440,note_on,0,0,1,,,,,,,,,0,,,63,0
31524,control_change,84,0,2,,,,,,,,,0,64,0,,
31680,note_on,240,0,1,,,,,,,,,0,,,72,0
31680,note_on,0,0,1,,,,,,,,,0,,,67,0
31680,note_on,0,0,1,,,,,,,,,0,,,63,0
31680,note_on,0,0,1,,,,,,,,,0,,,77,90
31680,note_on,0,0,1,,,,,,,,,0,,,67,81
31680,set_tempo,480,1,0,,,,,,265498,,,,,,,
31680,note_on,0,0,2,,,,,,,,,0,,,50,76
31680,note_on,156,0,2,,,,,,,,,0,,,43,0
31751,control_change,71,0,2,,,,,,,,,0,64,127,,
32160,note_on,0,0,1,,,,,,,,,0,,,79,87
32160,note_on,480,0,1,,,,,,,,,0,,,67,0
32160,note_on,0,0,1,,,,,,,,,0,,,77,0
32160,note_on,0,0,1,,,,,,,,,0,,,67,78
32160,note_on,409,0,2,,,,,,,,,0,,,50,0
32160,set_tempo,480,1,0,,,,,,267547,,,,,,,
32160,note_on,0,0,2,,,,,,,,,0,,,43,73
32400,note_on,240,0,2,,,,,,,,,0,,,43,0
32400,note_on,0,0,2,,,,,,,,,0,,,43,73
32400,note_on,0,0,1,,,,,,,,,0,,,79,0
32400,note_on,0,0,1,,,,,,,,,0,,,79,87
32400,note_on,240,0,1,,,,,,,,,0,,,67,0
32400,note_on,0,0,1,,,,,,,,,0,,,67,78
32556,control_change,156,0,2,,,,,,,,,0,64,0,,
32640,note_on,240,0,1,,,,,,,,,0,,,67,0
32640,set_tempo,480,1,0,,,,,,265498,,,,,,,
32640,note_on,0,0,1,,,,,,,,,0,,,78,92
32640,note_on,0,0,1,,,,,,,,,0,,,67,82
32640,note_on,0,0,2,,,,,,,,,0,,,51,78
32640,note_on,84,0,2,,,,,,,,,0,,,43,0
32640,note_on,0,0,1,,,,,,,,,0,,,79,0
33036,control_change,396,0,2,,,,,,,,,0,64,127,,
33120,note_on,0,0,1,,,,,,,,,0,,,67,81
33120,note_on,0,0,1,,,,,,,,,0,,,79,90
33120,note_on,480,0,1,,,,,,,,,0,,,67,0
33120,note_on,0,0,1,,,,,,,,,0,,,78,0
33120,set_tempo,480,1,0,,,,,,267547,,,,,,,
33120,note_on,0,0,2,,,,,,,,,0,,,43,75
33120,note_on,84,0,2,,,,,,,,,0,,,51,0
33360,note_on,240,0,2,,,,,,,,,0,,,43,0
33360,note_on,0,0,2,,,,,,,,,0,,,43,75
33360,note_on,0,0,1,,,,,,,,,0,,,67,81
33360,note_on,0,0,1,,,,,,,,,0,,,79,90
33360,note_on,0,0,1,,,,,,,,,0,,,79,0
33360,note_on,240,0,1,,,,,,,,,0,,,67,0
33600,set_tempo,480,1,0,,,,,,280597,,,,,,,
33600,note_on,0,0,1,,,,,,,,,0,,,67,87
33600,note_on,0,0,1,,,,,,,,,0,,,79,97
33600,note_on,0,0,1,,,,,,,,,0,,,79,0
33600,note_on,240,0,1,,,,,,,,,0,,,67,0
33600,note_on,240,0,2,,,,,,,,,0,,,43,0
33600,note_on,0,0,2,,,,,,,,,0,,,51,82
33788,control_change,188,0,2,,,,,,,,,0,64,0,,
34070,note_on,282,0,2,,,,,,,,,0,,,51,0
34070,note_on,470,0,1,,,,,,,,,0,,,67,0
34070,note_on,0,0,1,,,,,,,,,0,,,79,0
34080,control_change,10,0,2,,,,,,,,,0,64,127,,
34080,note_on,0,0,2,,,,,,,,,0,,,37,73
34080,note_on,0,0,2,,,,,,,,,0,,,49,82
34080,set_tempo,480,1,0,,,,,,277598,,,,,,,
34080,note_on,10,0,1,,,,,,,,,0,,,80,97
34080,note_on,0,0,1,,,,,,,,,0,,,77,87
34080,note_on,0,0,1,,,,,,,,,0,,,68,87
34320,note_on,0,0,1,,,,,,,,,0,,,77,0
34320,note_on,0,0,1,,,,,,,,,0,,,80,0
34320,note_on,240,0,1,,,,,,,,,0,,,68,0
34320,note_on,240,0,2,,,,,,,,,0,,,49,0
34320,note_on,0,0,2,,,,,,,,,0,,,37,0
34560,note_on,240,0,1,,,,,,,,,0,,,80,97
34560,note_on,0,0,1,,,,,,,,,0,,,77,87
34560,note_on,0,0,1,,,,,,,,,0,,,68,87
34560,note_on,0,0,2,,,,,,,,,0,,,49,82
34560,note_on,240,0,2,,,,,,,,,0,,,37,73
34800,note_on,240,0,1,,,,,,,,,0,,,68,0
34800,note_on,0,0,1,,,,,,,,,0,,,77,0
34800,note_on,0,0,1,,,,,,,,,0,,,80,0
34800,note_on,0,0,2,,,,,,,,,0,,,37,0
34800,note_on,240,0,2,,,,,,,,,0,,,49,0
35040,note_on,0,0,2,,,,,,,,,0,,,49,82
35040,note_on,240,0,2,,,,,,,,,0,,,37,73
35040,note_on,0,0,1,,,,,,,,,0,,,68,87
35040,note_on,0,0,1,,,,,,,,,0,,,77,87
35040,note_on,240,0,1,,,,,,,,,0,,,80,97
35280,note_on,0,0,1,,,,,,,,,0,,,77,0
35280,note_on,240,0,1,,,,,,,,,0,,,68,0
35280,note_on,240,0,2,,,,,,,,,0,,,49,0
35280,note_on,0,0,2,,,,,,,,,0,,,37,0
35280,note_on,0,0,1,,,,,,,,,0,,,80,0
35520,note_on,0,0,2,,,,,,,,,0,,,49,82
35520,note_on,0,0,1,,,,,,,,,0,,,77,87
35520,note_on,0,0,1,,,,,,,,,0,,,68,87
35520,note_on,240,0,2,,,,,,,,,0,,,37,73
35520,set_tempo,1440,1,0,,,,,,280597,,,,,,,
35520,note_on,240,0,1,,,,,,,,,0,,,80,97
35760,note_on,0,0,2,,,,,,,,,0,,,37,0
35760,note_on,240,0,2,,,,,,,,,0,,,49,0
35760,note_on,0,0,1,,,,,,,,,0,,,80,0
35760,note_on,240,0,1,,,,,,,,,0,,,68,0
35760,note_on,0,0,1,,,,,,,,,0,,,77,0
35872,control_change,112,0,2,,,,,,,,,0,64,0,,
36000,note_on,0,0,2,,,,,,,,,0,,,53,82
36000,note_on,240,0,1,,,,,,,,,0,,,85,97
36000,note_on,128,0,2,,,,,,,,,0,,,41,73
36000,note_on,0,0,1,,,,,,,,,0,,,73,87
36000,note_on,0,0,1,,,,,,,,,0,,,80,87
36000,set_tempo,480,1,0,,,,,,276116,,,,,,,
36028,control_change,28,0,2,,,,,,,,,0,64,127,,
36240,note_on,240,0,1,,,,,,,,,0,,,73,0
36240,note_on,0,0,1,,,,,,,,,0,,,80,0
36240,note_on,0,0,2,,,,,,,,,0,,,41,0
36240,note_on,212,0,2,,,,,,,,,0,,,53,0
36240,note_on,0,0,1,,,,,,,,,0,,,85,0
36480,note_on,240,0,1,,,,,,,,,0,,,85,90
36480,note_on,0,0,1,,,,,,,,,0,,,73,81
36480,note_on,0,0,1,,,,,,,,,0,,,80,81
36480,note_on,240,0,2,,,,,,,,,0,,,56,75
36480,note_on,0,0,2,,,,,,,,,0,,,53,67
36480,note_on,0,0,2,,,,,,,,,0,,,44,67
36960,note_on,480,0,2,,,,,,,,,0,,,44,0
36960,note_on,0,0,2,,,,,,,,,0,,,53,0
36960,note_on,0,0,2,,,,,,,,,0,,,56,0
36960,note_on,0,0,2,,,,,,,,,0,,,44,72
36960,note_on,0,0,2,,,,,,,,,0,,,53,72
36960,note_on,0,0,2,,,,,,,,,0,,,56,80
36960,note_on,480,0,1,,,,,,,,,0,,,73,0
36960,note_on,0,0,1,,,,,,,,,0,,,80,0
36960,set_tempo,960,1,0,,,,,,278345,,,,,,,
36960,note_on,0,0,1,,,,,,,,,0,,,85,95
36960,note_on,0,0,1,,,,,,,,,0,,,73,85
36960,note_on,0,0,1,,,,,,,,,0,,,80,85
36960,note_on,0,0,1,,,,,,,,,0,,,85,0
37200,note_on,0,0,1,,,,,,,,,0,,,73,87
37200,note_on,0,0,1,,,,,,,,,0,,,80,87
37200,note_on,0,0,1,,,,,,,,,0,,,85,97
37200,note_on,0,0,1,,,,,,,,,0,,,85,0
37200,note_on,0,0,1,,,,,,,,,0,,,80,0
37200,note_on,240,0,1,,,,,,,,,0,,,73,0
37200,note_on,0,0,2,,,,,,,,,0,,,53,0
37200,note_on,240,0,2,,,,,,,,,0,,,56,0
37200,note_on,0,0,2,,,,,,,,,0,,,44,73
37200,note_on,0,0,2,,,,,,,,,0,,,53,73
37200,note_on,0,0,2,,,,,,,,,0,,,56,82
37200,note_on,0,0,2,,,,,,,,,0,,,44,0
37312,control_change,112,0,2,,,,,,,,,0,64,0,,
37440,note_on,0,0,1,,,,,,,,,0,,,87,99
37440,note_on,128,0,2,,,,,,,,,0,,,56,0
37440,note_on,0,0,2,,,,,,,,,0,,,53,0
37440,note_on,0,0,2,,,,,,,,,0,,,44,0
37440,note_on,0,0,2,,,,,,,,,0,,,44,75
37440,note_on,0,0,2,,,,,,,,,0,,,56,84
37440,note_on,0,0,2,,,,,,,,,0,,,54,75
37440,note_on,240,0,1,,,,,,,,,0,,,73,0
37440,note_on,0,0,1,,,,,,,,,0,,,85,0
37440,note_on,0,0,1,,,,,,,,,0,,,84,89
37440,note_on,0,0,1,,,,,,,,,0,,,80,0
37440,set_tempo,480,1,0,,,,,,275381,,,,,,,
37440,note_on,0,0,1,,,,,,,,,0,,,75,89
37528,control_change,88,0,2,,,,,,,,,0,64,127,,
37920,note_on,480,0,1,,,,,,,,,0,,,75,0
37920,note_on,0,0,2,,,,,,,,,0,,,54,72
37920,note_on,0,0,2,,,,,,,,,0,,,44,0
37920,note_on,0,0,2,,,,,,,,,0,,,56,0
37920,note_on,392,0,2,,,,,,,,,0,,,54,0
37920,note_on,0,0,1,,,,,,,,,0,,,75,84
37920,note_on,0,0,1,,,,,,,,,0,,,84,84
37920,note_on,0,0,2,,,,,,,,,0,,,44,72
37920,note_on,0,0,1,,,,,,,,,0,,,87,0
37920,set_tempo,480,1,0,,,,,,279838,,,,,,,
37920,note_on,0,0,2,,,,,,,,,0,,,56,80
37920,note_on,0,0,1,,,,,,,,,0,,,84,0
37920,note_on,0,0,1,,,,,,,,,0,,,87,94
38160,note_on,0,0,2,,,,,,,,,0,,,56,0
38160,note_on,0,0,2,,,,,,,,,0,,,54,0
38160,note_on,0,0,2,,,,,,,,,0,,,54,70
38160,note_on,0,0,2,,,,,,,,,0,,,44,70
38160,note_on,0,0,1,,,,,,,,,0,,,84,81
38160,note_on,0,0,1,,,,,,,,,0,,,75,81
38160,note_on,0,0,1,,,,,,,,,0,,,87,91
38160,note_on,0,0,1,,,,,,,,,0,,,87,0
38160,note_on,0,0,1,,,,,,,,,0,,,84,0
38160,note_on,240,0,2,,,,,,,,,0,,,44,0
38160,note_on,240,0,1,,,,,,,,,0,,,75,0
38160,note_on,0,0,2,,,,,,,,,0,,,56,78
38260,control_change,100,0,2,,,,,,,,,0,64,0,,
38400,note_on,0,0,2,,,,,,,,,0,,,56,0
38400,note_on,0,0,2,,,,,,,,,0,,,54,0
38400,note_on,0,0,2,,,,,,,,,0,,,49,67
38400,note_on,0,0,2,,,,,,,,,0,,,53,67
38400,note_on,0,0,2,,,,,,,,,0,,,56,75
38400,note_on,140,0,2,,,,,,,,,0,,,44,0
38400,note_on,0,0,1,,,,,,,,,0,,,87,0
38400,set_tempo,480,1,0,,,,,,275381,,,,,,,
38400,note_on,240,0,1,,,,,,,,,0,,,75,0
38400,note_on,0,0,1,,,,,,,,,0,,,85,89
38400,note_on,0,0,1,,,,,,,,,0,,,73,80
38400,note_on,0,0,1,,,,,,,,,0,,,84,0
38458,control_change,58,0,2,,,,,,,,,0,64,127,,
38640,note_on,0,0,2,,,,,,,,,0,,,49,0
38640,note_on,0,0,2,,,,,,,,,0,,,53,0
38640,note_on,182,0,2,,,,,,,,,0,,,56,0
38640,note_on,240,0,1,,,,,,,,,0,,,73,0
38640,note_on,0,0,1,,,,,,,,,0,,,85,0
38880,note_on,240,0,1,,,,,,,,,0,,,83,92
38880,note_on,0,0,1,,,,,,,,,0,,,80,82
38880,note_on,0,0,1,,,,,,,,,0,,,77,82
38880,note_on,0,0,1,,,,,,,,,0,,,71,82
38880,set_tempo,480,1,0,,,,,,284455,,,,,,,
38880,note_on,240,0,2,,,,,,,,,0,,,37,69
38880,note_on,0,0,2,,,,,,,,,0,,,49,77
39120,note_on,240,0,2,,,,,,,,,0,,,49,0
39120,note_on,0,0,2,,,,,,,,,0,,,37,0
39120,note_on,0,0,1,,,,,,,,,0,,,83,0
39120,note_on,0,0,1,,,,,,,,,0,,,80,0
39120,note_on,0,0,1,,,,,,,,,0,,,77,0
39120,note_on,240,0,1,,,,,,,,,0,,,71,0
39360,note_on,0,0,2,,,,,,,,,0,,,48,77
39360,note_on,0,0,1,,,,,,,,,0,,,72,82
39360,note_on,0,0,1,,,,,,,,,0,,,77,82
39360,set_tempo,480,1,0,,,,,,284455,,,,,,,
39360,note_on,0,0,2,,,,,,,,,0,,,36,69
39360,control_change,240,0,2,,,,,,,,,0,64,0,,
39360,note_on,0,0,1,,,,,,,,,0,,,80,82
39360,note_on,240,0,1,,,,,,,,,0,,,84,92
39460,set_tempo,100,1,0,,,,,,285239,,,,,,,
39560,set_tempo,100,1,0,,,,,,286028,,,,,,,
39588,control_change,228,0,2,,,,,,,,,0,64,127,,
39600,note_on,12,0,2,,,,,,,,,0,,,48,0
39600,note_on,0,0,2,,,,,,,,,0,,,36,0
39600,note_on,240,0,1,,,,,,,,,0,,,72,0
39600,note_on,0,0,1,,,,,,,,,0,,,84,0
39600,note_on,0,0,1,,,,,,,,,0,,,80,0
39600,note_on,0,0,1,,,,,,,,,0,,,77,0
39660,set_tempo,100,1,0,,,,,,286821,,,,,,,
39740,set_tempo,80,1,0,,,,,,287618,,,,,,,
39840,note_on,240,0,2,,,,,,,,,0,,,36,69
39840,note_on,0,0,2,,,,,,,,,0,,,48,77
39840,note_on,240,0,1,,,,,,,,,0,,,84,92
39840,note_on,0,0,1,,,,,,,,,0,,,72,82
39840,note_on,0,0,1,,,,,,,,,0,,,76,82
39840,note_on,0,0,1,,,,,,,,,0,,,79,82
39840,set_tempo,100,1,0,,,,,,288420,,,,,,,
39940,set_tempo,100,1,0,,,,,,289226,,,,,,,
40020,set_tempo,80,1,0,,,,,,290037,,,,,,,
40080,note_on,0,0,1,,,,,,,,,0,,,84,0
40080,note_on,0,0,1,,,,,,,,,0,,,79,0
40080,note_on,0,0,1,,,,,,,,,0,,,76,0
40080,note_on,240,0,2,,,,,,,,,0,,,48,0
40080,note_on,0,0,2,,,,,,,,,0,,,36,0
40080,note_on,240,0,1,,,,,,,,,0,,,72,0
40120,set_tempo,100,1,0,,,,,,290853,,,,,,,
40172,control_change,92,0,2,,,,,,,,,0,64,0,,
40320,set_tempo,200,1,0,,,,,,265498,,,,,,,
40320,note_on,0,0,2,,,,,,,,,0,,,60,40
40320,note_on,148,0,2,,,,,,,,,0,,,58,36
40320,note_on,240,0,1,,,,,,,,,0,,,70,43
40320,note_on,0,0,1,,,,,,,,,0,,,72,48
40369,control_change,49,0,2,,,,,,,,,0,64,127,,
40800,note_on,0,0,1,,,,,,,,,0,,,72,45
40800,set_tempo,480,1,0,,,,,,267547,,,,,,,
40800,note_on,0,0,1,,,,,,,,,0,,,67,40
40800,note_on,0,0,2,,,,,,,,,0,,,58,0
40800,note_on,0,0,2,,,,,,,,,0,,,55,35
40800,note_on,0,0,2,,,,,,,,,0,,,60,39
40800,note_on,431,0,2,,,,,,,,,0,,,60,0
40800,note_on,0,0,1,,,,,,,,,0,,,70,0
40800,note_on,480,0,1,,,,,,,,,0,,,72,0
40920,note_on,0,0,2,,,,,,,,,0,,,55,0
40920,note_on,120,0,2,,,,,,,,,0,,,60,0
40920,note_on,120,0,1,,,,,,,,,0,,,72,0
40920,note_on,0,0,1,,,,,,,,,0,,,67,0
41040,note_on,0,0,2,,,,,,,,,0,,,60,39
41040,note_on,120,0,2,,,,,,,,,0,,,55,35
41040,note_on,120,0,1,,,,,,,,,0,,,67,40
41040,note_on,0,0,1,,,,,,,,,0,,,72,45
41160,note_on,120,0,1,,,,,,,,,0,,,72,0
41160,note_on,0,0,1,,,,,,,,,0,,,67,0
41160,note_on,0,0,2,,,,,,,,,0,,,55,0
41160,note_on,120,0,2,,,,,,,,,0,,,60,0
41188,control_change,28,0,2,,,,,,,,,0,64,0,,
41280,set_tempo,480,1,0,,,,,,265498,,,,,,,
41280,note_on,92,0,2,,,,,,,,,0,,,56,36
41280,note_on,0,0,2,,,,,,,,,0,,,60,40
41280,note_on,0,0,1,,,,,,,,,0,,,72,48
41280,note_on,120,0,1,,,,,,,,,0,,,68,43
41365,control_change,85,0,2,,,,,,,,,0,64,127,,
41760,note_on,0,0,1,,,,,,,,,0,,,65,40
41760,note_on,395,0,2,,,,,,,,,0,,,60,0
41760,note_on,0,0,2,,,,,,,,,0,,,53,34
41760,note_on,0,0,1,,,,,,,,,0,,,72,45
41760,note_on,480,0,1,,,,,,,,,0,,,72,0
41760,note_on,0,0,1,,,,,,,,,0,,,68,0
41760,note_on,0,0,2,,,,,,,,,0,,,60,38
41760,note_on,0,0,2,,,,,,,,,0,,,56,0
41760,set_tempo,480,1,0,,,,,,267547,,,,,,,
42000,note_on,240,0,1,,,,,,,,,0,,,72,0
42000,note_on,0,0,1,,,,,,,,,0,,,72,45
42000,note_on,0,0,2,,,,,,,,,0,,,53,34
42000,note_on,0,0,2,,,,,,,,,0,,,53,0
42000,note_on,0,0,1,,,,,,,,,0,,,65,0
42000,note_on,240,0,2,,,,,,,,,0,,,60,0
42000,note_on,0,0,2,,,,,,,,,0,,,60,38
42000,note_on,0,0,1,,,,,,,,,0,,,65,40
42044,control_change,44,0,2,,,,,,,,,0,64,0,,
42240,note_on,0,0,2,,,,,,,,,0,,,53,0
42240,note_on,240,0,1,,,,,,,,,0,,,72,0
42240,note_on,0,0,1,,,,,,,,,0,,,65,0
42240,note_on,0,0,1,,,,,,,,,0,,,66,43
42240,note_on,0,0,1,,,,,,,,,0,,,68,48
42240,note_on,196,0,2,,,,,,,,,0,,,60,0
42240,set_tempo,480,1,0,,,,,,265498,,,,,,,
42240,note_on,0,0,2,,,,,,,,,0,,,54,36
42240,note_on,0,0,2,,,,,,,,,0,,,56,40
42305,control_change,65,0,2,,,,,,,,,0,64,127,,
42720,set_tempo,480,1,0,,,,,,271052,,,,,,,
42720,note_on,0,0,1,,,,,,,,,0,,,60,40
42720,note_on,0,0,1,,,,,,,,,0,,,68,45
42720,note_on,0,0,1,,,,,,,,,0,,,66,0
42720,note_on,480,0,1,,,,,,,,,0,,,68,0
42720,note_on,0,0,2,,,,,,,,,0,,,54,0
42720,note_on,0,0,2,,,,,,,,,0,,,56,38
42720,note_on,0,0,2,,,,,,,,,0,,,48,34
42720,note_on,415,0,2,,,,,,,,,0,,,56,0
42960,note_on,240,0,2,,,,,,,,,0,,,56,0
42960,note_on,240,0,1,,,,,,,,,0,,,68,0
42960,note_on,0,0,1,,,,,,,,,0,,,60,0
42960,note_on,0,0,1,,,,,,,,,0,,,60,40
42960,note_on,0,0,2,,,,,,,,,0,,,48,34
42960,note_on,0,0,2,,,,,,,,,0,,,56,38
42960,note_on,0,0,1,,,,,,,,,0,,,68,45
42960,note_on,0,0,2,,,,,,,,,0,,,48,0
43044,control_change,84,0,2,,,,,,,,,0,64,0,,
43200,note_on,0,0,1,,,,,,,,,0,,,65,80
43200,note_on,0,0,1,,,,,,,,,0,,,68,80
43200,note_on,0,0,1,,,,,,,,,0,,,77,89
43200,note_on,0,0,2,,,,,,,,,0,,,49,76
43200,note_on,240,0,1,,,,,,,,,0,,,68,0
43200,note_on,0,0,2,,,,,,,,,0,,,37,68
43200,set_tempo,480,1,0,,,,,,268240,,,,,,,
43200,note_on,0,0,2,,,,,,,,,0,,,48,0
43200,note_on,0,0,1,,,,,,,,,0,,,60,0
43200,note_on,156,0,2,,,,,,,,,0,,,56,0
43292,control_change,92,0,2,,,,,,,,,0,64,127,,
43560,note_on,360,0,1,,,,,,,,,0,,,77,0
43560,note_on,0,0,1,,,,,,,,,0,,,68,0
43560,note_on,0,0,1,,,,,,,,,0,,,65,0
43560,note_on,0,0,2,,,,,,,,,0,,,37,0
43560,note_on,268,0,2,,,,,,,,,0,,,49,0
43672,note_on,112,0,2,,,,,,,,,0,,,49,68
43672,note_on,112,0,1,,,,,,,,,0,,,65,80
43672,note_on,0,0,1,,,,,,,,,0,,,68,80
43672,note_on,0,0,1,,,,,,,,,0,,,73,89
43672,note_on,0,0,2,,,,,,,,,0,,,56,76
43940,set_tempo,740,1,0,,,,,,272480,,,,,,,
44032,note_on,0,0,2,,,,,,,,,0,,,49,0
44032,note_on,360,0,2,,,,,,,,,0,,,56,0
44032,note_on,0,0,1,,,,,,,,,0,,,65,0
44032,note_on,360,0,1,,,,,,,,,0,,,73,0
44032,note_on,0,0,1,,,,,,,,,0,,,68,0
44048,control_change,16,0,2,,,,,,,,,0,64,0,,
44160,note_on,0,0,2,,,,,,,,,0,,,56,40
44160,note_on,112,0,2,,,,,,,,,0,,,54,36
44160,note_on,128,0,1,,,,,,,,,0,,,66,43
44160,set_tempo,220,1,0,,,,,,265498,,,,,,,
44160,note_on,0,0,1,,,,,,,,,0,,,68,48
44238,control_change,78,0,2,,,,,,,,,0,64,127,,
44640,note_on,0,0,2,,,,,,,,,0,,,56,38
44640,set_tempo,480,1,0,,,,,,271764,,,,,,,
44640,note_on,0,0,2,,,,,,,,,0,,,54,0
44640,note_on,402,0,2,,,,,,,,,0,,,56,0
44640,note_on,0,0,2,,,,,,,,,0,,,48,34
44640,note_on,0,0,1,,,,,,,,,0,,,68,45
44640,note_on,480,0,1,,,,,,,,,0,,,68,0
44640,note_on,0,0,1,,,,,,,,,0,,,66,0
44640,note_on,0,0,1,,,,,,,,,0,,,60,40
44880,note_on,240,0,1,,,,,,,,,0,,,68,0
44880,note_on,240,0,2,,,,,,,,,0,,,56,0
44880,note_on,0,0,2,,,,,,,,,0,,,48,0
44880,note_on,0,0,2,,,,,,,,,0,,,48,34
44880,note_on,0,0,2,,,,,,,,,0,,,56,38
44880,note_on,0,0,1,,,,,,,,,0,,,60,0
44880,note_on,0,0,1,,,,,,,,,0,,,60,40
44880,note_on,0,0,1,,,,,,,,,0,,,68,45
44964,control_change,84,0,2,,,,,,,,,0,64,0,,
45120,note_on,240,0,1,,,,,,,,,0,,,68,0
45120,note_on,0,0,2,,,,,,,,,0,,,49,75
45120,note_on,0,0,2,,,,,,,,,0,,,37,67
45120,note_on,0,0,1,,,,,,,,,0,,,77,89
45120,note_on,0,0,1,,,,,,,,,0,,,68,80
45120,note_on,0,0,1,,,,,,,,,0,,,65,80
45120,note_on,0,0,1,,,,,,,,,0,,,60,0
45120,set_tempo,480,1,0,,,,,,267547,,,,,,,
45120,note_on,156,0,2,,,,,,,,,0,,,56,0
45120,note_on,0,0,2,,,,,,,,,0,,,48,0
45184,control_change,64,0,2,,,,,,,,,0,64,127,,
45480,note_on,360,0,1,,,,,,,,,0,,,77,0
45480,note_on,0,0,1,,,,,,,,,0,,,65,0
45480,note_on,0,0,1,,,,,,,,,0,,,68,0
45480,note_on,0,0,2,,,,,,,,,0,,,37,0
45480,note_on,296,0,2,,,,,,,,,0,,,49,0
45592,note_on,0,0,2,,,,,,,,,0,,,56,75
45592,note_on,0,0,1,,,,,,,,,0,,,68,80
45592,note_on,112,0,1,,,,,,,,,0,,,65,80
45592,note_on,112,0,2,,,,,,,,,0,,,49,67
45592,note_on,0,0,1,,,,,,,,,0,,,73,89
45780,set_tempo,660,1,0,,,,,,271052,,,,,,,
45952,note_on,0,0,1,,,,,,,,,0,,,68,0
45952,note_on,0,0,1,,,,,,,,,0,,,65,0
45952,note_on,360,0,2,,,,,,,,,0,,,56,0
45952,note_on,0,0,2,,,,,,,,,0,,,49,0
45952,note_on,360,0,1,,,,,,,,,0,,,73,0
45968,control_change,16,0,2,,,,,,,,,0,64,0,,
46080,set_tempo,300,1,0,,,,,,265498,,,,,,,
46080,note_on,0,0,2,,,,,,,,,0,,,65,40
46080,note_on,112,0,2,,,,,,,,,0,,,63,36
46080,note_on,128,0,1,,,,,,,,,0,,,75,43
46080,note_on,0,0,1,,,,,,,,,0,,,77,48
46136,control_change,56,0,2,,,,,,,,,0,64,127,,
46560,note_on,0,0,2,,,,,,,,,0,,,60,35
46560,note_on,0,0,1,,,,,,,,,0,,,77,45
46560,note_on,0,0,1,,,,,,,,,0,,,72,40
46560,note_on,0,0,1,,,,,,,,,0,,,75,0
46560,set_tempo,480,1,0,,,,,,267547,,,,,,,
46560,note_on,0,0,2,,,,,,,,,0,,,65,39
46560,note_on,424,0,2,,,,,,,,,0,,,65,0
46560,note_on,0,0,2,,,,,,,,,0,,,63,0
46560,note_on,480,0,1,,,,,,,,,0,,,77,0
46680,note_on,120,0,1,,,,,,,,,0,,,77,0
46680,note_on,0,0,1,,,,,,,,,0,,,72,0
46680,note_on,0,0,2,,,,,,,,,0,,,60,0
46680,note_on,120,0,2,,,,,,,,,0,,,65,0
46800,note_on,120,0,1,,,,,,,,,0,,,72,40
46800,note_on,0,0,2,,,,,,,,,0,,,65,39
46800,note_on,120,0,2,,,,,,,,,0,,,60,35
46800,note_on,0,0,1,,,,,,,,,0,,,77,45
46920,note_on,0,0,1,,,,,,,,,0,,,72,0
46920,note_on,120,0,2,,,,,,,,,0,,,65,0
46920,note_on,120,0,1,,,,,,,,,0,,,77,0
46920,note_on,0,0,2,,,,,,,,,0,,,60,0
46948,control_change,28,0,2,,,,,,,,,0,64,0,,
47040,set_tempo,480,1,0,,,,,,265498,,,,,,,
47040,note_on,0,0,1,,,,,,,,,0,,,77,48
47040,note_on,120,0,1,,,,,,,,,0,,,73,43
47040,note_on,0,0,2,,,,,,,,,0,,,65,40
47040,note_on,92,0,2,,,,,,,,,0,,,61,36
47125,control_change,85,0,2,,,,,,,,,0,64,127,,
47520,note_on,0,0,2,,,,,,,,,0,,,58,34
47520,set_tempo,480,1,0,,,,,,267547,,,,,,,
47520,note_on,395,0,2,,,,,,,,,0,,,65,0
47520,note_on,480,0,1,,,,,,,,,0,,,77,0
47520,note_on,0,0,1,,,,,,,,,0,,,73,0
47520,note_on,0,0,1,,,,,,,,,0,,,70,40
47520,note_on,0,0,1,,,,,,,,,0,,,77,45
47520,note_on,0,0,2,,,,,,,,,0,,,65,38
47520,note_on,0,0,2,,,,,,,,,0,,,61,0
47760,note_on,240,0,1,,,,,,,,,0,,,77,0
47760,note_on,0,0,1,,,,,,,,,0,,,70,0
47760,note_on,240,0,2,,,,,,,,,0,,,65,0
47760,note_on,0,0,2,,,,,,,,,0,,,58,0
47760,note_on,0,0,2,,,,,,,,,0,,,58,34
47760,note_on,0,0,2,,,,,,,,,0,,,65,38
47760,note_on,0,0,1,,,,,,,,,0,,,70,40
47760,note_on,0,0,1,,,,,,,,,0,,,77,45
47804,control_change,44,0,2,,,,,,,,,0,64,0,,
48000,note_on,196,0,2,,,,,,,,,0,,,65,0
48000,note_on,0,0,2,,,,,,,,,0,,,58,0
48000,note_on,0,0,2,,,,,,,,,0,,,61,40
48000,note_on,0,0,2,,,,,,,,,0,,,59,36
48000,set_tempo,480,1,0,,,,,,265498,,,,,,,
48000,note_on,0,0,1,,,,,,,,,0,,,70,0
48000,note_on,0,0,1,,,,,,,,,0,,,71,43
48000,note_on,0,0,1,,,,,,,,,0,,,73,48
48000,note_on,240,0,1,,,,,,,,,0,,,77,0
48091,control_change,91,0,2,,,,,,,,,0,64,127,,
48480,note_on,480,0,1,,,,,,,,,0,,,73,0
48480,note_on,0,0,1,,,,,,,,,0,,,71,0
48480,note_on,0,0,1,,,,,,,,,0,,,65,40
48480,note_on,0,0,1,,,,,,,,,0,,,73,45
48480,note_on,389,0,2,,,,,,,,,0,,,61,0
48480,set_tempo,480,1,0,,,,,,273199,,,,,,,
48480,note_on,0,0,2,,,,,,,,,0,,,59,0
48480,note_on,0,0,2,,,,,,,,,0,,,53,34
48480,note_on,0,0,2,,,,,,,,,0,,,61,38
48720,note_on,0,0,1,,,,,,,,,0,,,73,45
48720,note_on,0,0,2,,,,,,,,,0,,,53,0
48720,note_on,0,0,2,,,,,,,,,0,,,53,34
48720,note_on,0,0,1,,,,,,,,,0,,,65,40
48720,note_on,0,0,1,,,,,,,,,0,,,65,0
48720,note_on,240,0,1,,,,,,,,,0,,,73,0
48720,note_on,240,0,2,,,,,,,,,0,,,61,0
48720,note_on,0,0,2,,,,,,,,,0,,,61,38
48804,control_change,84,0,2,,,,,,,,,0,64,0,,
48960,note_on,0,0,2,,,,,,,,,0,,,53,0
48960,note_on,240,0,1,,,,,,,,,0,,,73,0
48960,note_on,0,0,1,,,,,,,,,0,,,65,0
48960,note_on,0,0,1,,,,,,,,,0,,,70,85
48960,note_on,0,0,1,,,,,,,,,0,,,73,85
48960,note_on,0,0,1,,,,,,,,,0,,,82,95
48960,note_on,0,0,2,,,,,,,,,0,,,42,72
48960,note_on,156,0,2,,,,,,,,,0,,,61,0
48960,note_on,0,0,2,,,,,,,,,0,,,54,80
48960,set_tempo,480,1,0,,,,,,268938,,,,,,,
49016,control_change,56,0,2,,,,,,,,,0,64,127,,
49320,note_on,0,0,1,,,,,,,,,0,,,73,0
49320,note_on,360,0,1,,,,,,,,,0,,,82,0
49320,note_on,0,0,2,,,,,,,,,0,,,42,0
49320,note_on,304,0,2,,,,,,,,,0,,,54,0
49320,note_on,0,0,1,,,,,,,,,0,,,70,0
49432,note_on,112,0,2,,,,,,,,,0,,,54,72
49432,note_on,0,0,2,,,,,,,,,0,,,61,80
49432,note_on,0,0,1,,,,,,,,,0,,,73,84
49432,note_on,0,0,1,,,,,,,,,0,,,78,94
49432,note_on,112,0,1,,,,,,,,,0,,,70,84
49700,set_tempo,740,1,0,,,,,,272480,,,,,,,
49792,note_on,0,0,2,,,,,,,,,0,,,54,0
49792,note_on,360,0,2,,,,,,,,,0,,,61,0
49792,note_on,360,0,1,,,,,,,,,0,,,78,0
49792,note_on,0,0,1,,,,,,,,,0,,,73,0
49792,note_on,0,0,1,,,,,,,,,0,,,70,0
49808,control_change,16,0,2,,,,,,,,,0,64,0,,
49920,note_on,112,0,2,,,,,,,,,0,,,59,36
49920,note_on,0,0,2,,,,,,,,,0,,,61,40
49920,note_on,128,0,1,,,,,,,,,0,,,71,43
49920,note_on,0,0,1,,,,,,,,,0,,,73,48
49920,set_tempo,220,1,0,,,,,,265498,,,,,,,
50024,control_change,104,0,2,,,,,,,,,0,64,127,,
50400,note_on,480,0,1,,,,,,,,,0,,,73,0
50400,note_on,0,0,1,,,,,,,,,0,,,71,0
50400,note_on,0,0,1,,,,,,,,,0,,,65,40
50400,note_on,0,0,1,,,,,,,,,0,,,73,45
50400,set_tempo,480,1,0,,,,,,273923,,,,,,,
50400,note_on,0,0,2,,,,,,,,,0,,,61,38
50400,note_on,0,0,2,,,,,,,,,0,,,53,34
50400,note_on,0,0,2,,,,,,,,,0,,,59,0
50400,note_on,376,0,2,,,,,,,,,0,,,61,0
50640,note_on,0,0,1,,,,,,,,,0,,,65,40
50640,note_on,0,0,1,,,,,,,,,0,,,65,0
50640,note_on,240,0,1,,,,,,,,,0,,,73,0
50640,note_on,0,0,2,,,,,,,,,0,,,53,34
50640,note_on,0,0,2,,,,,,,,,0,,,53,0
50640,note_on,240,0,2,,,,,,,,,0,,,61,0
50640,note_on,0,0,1,,,,,,,,,0,,,73,45
50640,note_on,0,0,2,,,,,,,,,0,,,61,38
50724,control_change,84,0,2,,,,,,,,,0,64,0,,
50880,note_on,156,0,2,,,,,,,,,0,,,61,0
50880,note_on,0,0,2,,,,,,,,,0,,,42,70
50880,note_on,0,0,1,,,,,,,,,0,,,65,0
50880,set_tempo,480,1,0,,,,,,268938,,,,,,,
50880,note_on,0,0,1,,,,,,,,,0,,,73,85
50880,note_on,0,0,1,,,,,,,,,0,,,70,85
50880,note_on,0,0,2,,,,,,,,,0,,,53,0
50880,note_on,240,0,1,,,,,,,,,0,,,73,0
50880,note_on,0,0,1,,,,,,,,,0,,,82,95
50880,note_on,0,0,2,,,,,,,,,0,,,54,78
50944,control_change,64,0,2,,,,,,,,,0,64,127,,
51240,note_on,0,0,2,,,,,,,,,0,,,42,0
51240,note_on,360,0,1,,,,,,,,,0,,,82,0
51240,note_on,296,0,2,,,,,,,,,0,,,54,0
51240,note_on,0,0,1,,,,,,,,,0,,,70,0
51240,note_on,0,0,1,,,,,,,,,0,,,73,0
51352,note_on,112,0,2,,,,,,,,,0,,,54,70
51352,note_on,0,0,1,,,,,,,,,0,,,78,95
51352,note_on,0,0,1,,,,,,,,,0,,,73,85
51352,note_on,112,0,1,,,,,,,,,0,,,70,85
51352,note_on,0,0,2,,,,,,,,,0,,,61,78
51360,set_tempo,480,1,0,,,,,,271052,,,,,,,
51712,note_on,360,0,1,,,,,,,,,0,,,78,0
51712,note_on,0,0,1,,,,,,,,,0,,,70,0
51712,note_on,360,0,2,,,,,,,,,0,,,61,0
51712,note_on,0,0,1,,,,,,,,,0,,,73,0
51712,note_on,0,0,2,,,,,,,,,0,,,54,0
51728,control_change,16,0,2,,,,,,,,,0,64,0,,
51840,note_on,112,0,2,,,,,,,,,0,,,49,44
51840,note_on,128,0,1,,,,,,,,,0,,,82,46
51840,set_tempo,480,1,0,,,,,,265498,,,,,,,
51909,control_change,69,0,2,,,,,,,,,0,64,127,,
52080,note_on,0,0,1,,,,,,,,,0,,,70,40
52080,note_on,240,0,1,,,,,,,,,0,,,82,0
52320,note_on,0,0,1,,,,,,,,,0,,,73,36
52320,note_on,0,0,1,,,,,,,,,0,,,78,40
52320,note_on,240,0,1,,,,,,,,,0,,,70,0
52320,note_on,0,0,2,,,,,,,,,0,,,54,38
52320,note_on,411,0,2,,,,,,,,,0,,,49,0
52560,note_on,0,0,1,,,,,,,,,0,,,78,0
52560,note_on,240,0,1,,,,,,,,,0,,,73,0
52560,note_on,0,0,1,,,,,,,,,0,,,70,40
52676,control_change,356,0,2,,,,,,,,,0,64,0,,
52800,note_on,124,0,2,,,,,,,,,0,,,54,0
52800,note_on,240,0,1,,,,,,,,,0,,,70,0
52800,note_on,0,0,1,,,,,,,,,0,,,78,44
52800,note_on,0,0,2,,,,,,,,,0,,,54,40
52846,control_change,46,0,2,,,,,,,,,0,64,127,,
53040,note_on,240,0,1,,,,,,,,,0,,,78,0
53040,note_on,0,0,1,,,,,,,,,0,,,66,39
53280,note_on,240,0,1,,,,,,,,,0,,,66,0
53280,note_on,0,0,1,,,,,,,,,0,,,71,34
53280,note_on,0,0,2,,,,,,,,,0,,,59,37
53280,note_on,0,0,1,,,,,,,,,0,,,74,38
53280,note_on,434,0,2,,,,,,,,,0,,,54,0
53520,note_on,240,0,1,,,,,,,,,0,,,74,0
53520,note_on,0,0,1,,,,,,,,,0,,,71,0
53520,note_on,0,0,1,,,,,,,,,0,,,66,38
53612,control_change,332,0,2,,,,,,,,,0,64,0,,
53760,note_on,148,0,2,,,,,,,,,0,,,59,0
53760,note_on,0,0,2,,,,,,,,,0,,,42,39
53760,note_on,0,0,1,,,,,,,,,0,,,76,41
53760,note_on,240,0,1,,,,,,,,,0,,,66,0
53840,control_change,80,0,2,,,,,,,,,0,64,127,,
54000,note_on,240,0,1,,,,,,,,,0,,,76,0
54000,note_on,0,0,1,,,,,,,,,0,,,67,36
54240,note_on,0,0,1,,,,,,,,,0,,,70,32
54240,note_on,0,0,1,,,,,,,,,0,,,73,36
54240,note_on,0,0,2,,,,,,,,,0,,,54,36
54240,note_on,400,0,2,,,,,,,,,0,,,42,0
54240,note_on,240,0,1,,,,,,,,,0,,,67,0
54480,note_on,0,0,1,,,,,,,,,0,,,70,0
54480,note_on,0,0,1,,,,,,,,,0,,,67,36
54480,note_on,240,0,1,,,,,,,,,0,,,73,0
54640,control_change,400,0,2,,,,,,,,,0,64,0,,
54720,note_on,0,0,1,,,,,,,,,0,,,73,38
54720,note_on,0,0,1,,,,,,,,,0,,,71,34
54720,note_on,240,0,1,,,,,,,,,0,,,67,0
54720,note_on,80,0,2,,,,,,,,,0,,,54,0
54720,note_on,0,0,2,,,,,,,,,0,,,42,34
54720,note_on,0,0,2,,,,,,,,,0,,,54,38
54778,control_change,58,0,2,,,,,,,,,0,64,127,,
54960,note_on,240,0,1,,,,,,,,,0,,,71,0
54960,note_on,0,0,1,,,,,,,,,0,,,73,0
54960,note_on,0,0,1,,,,,,,,,0,,,66,32
55200,note_on,0,0,1,,,,,,,,,0,,,74,32
55200,note_on,240,0,1,,,,,,,,,0,,,66,0
55200,note_on,422,0,2,,,,,,,,,0,,,54,0
55200,note_on,0,0,2,,,,,,,,,0,,,42,0
55200,note_on,0,0,2,,,,,,,,,0,,,47,28
55200,note_on,0,0,1,,,,,,,,,0,,,71,28
55200,note_on,0,0,2,,,,,,,,,0,,,54,32
55440,note_on,240,0,1,,,,,,,,,0,,,74,0
55440,note_on,0,0,1,,,,,,,,,0,,,66,32
55440,note_on,0,0,1,,,,,,,,,0,,,71,0
55560,set_tempo,3720,1,0,,,,,,268938,,,,,,,
55576,control_change,376,0,2,,,,,,,,,0,64,0,,
55680,note_on,0,0,1,,,,,,,,,0,,,79,40
55680,set_tempo,120,1,0,,,,,,265498,,,,,,,
55680,note_on,104,0,2,,,,,,,,,0,,,54,0
55680,note_on,0,0,2,,,,,,,,,0,,,47,0
55680,note_on,0,0,2,,,,,,,,,0,,,54,40
55680,note_on,240,0,1,,,,,,,,,0,,,66,0
55714,control_change,34,0,2,,,,,,,,,0,64,127,,
55920,note_on,240,0,1,,,,,,,,,0,,,79,0
55920,note_on,0,0,1,,,,,,,,,0,,,70,36
56160,note_on,446,0,2,,,,,,,,,0,,,54,0
56160,note_on,0,0,2,,,,,,,,,0,,,67,36
56160,note_on,0,0,1,,,,,,,,,0,,,76,36
56160,note_on,0,0,1,,,,,,,,,0,,,73,32
56160,note_on,240,0,1,,,,,,,,,0,,,70,0
56400,note_on,0,0,1,,,,,,,,,0,,,73,0
56400,note_on,240,0,1,,,,,,,,,0,,,76,0
56400,note_on,0,0,1,,,,,,,,,0,,,70,36
56516,control_change,356,0,2,,,,,,,,,0,64,0,,
56640,note_on,240,0,1,,,,,,,,,0,,,70,0
56640,note_on,0,0,2,,,,,,,,,0,,,66,39
56640,note_on,0,0,2,,,,,,,,,0,,,54,35
56640,note_on,0,0,1,,,,,,,,,0,,,78,39
56640,note_on,124,0,2,,,,,,,,,0,,,67,0
56640,note_on,0,0,1,,,,,,,,,0,,,73,35
56731,control_change,91,0,2,,,,,,,,,0,64,127,,
56880,note_on,240,0,1,,,,,,,,,0,,,78,0
56880,note_on,0,0,1,,,,,,,,,0,,,73,0
56880,note_on,0,0,1,,,,,,,,,0,,,70,32
57120,note_on,240,0,1,,,,,,,,,0,,,70,0
57120,note_on,0,0,1,,,,,,,,,0,,,74,28
57120,note_on,0,0,1,,,,,,,,,0,,,78,32
57120,note_on,389,0,2,,,,,,,,,0,,,66,0
57120,note_on,0,0,2,,,,,,,,,0,,,54,0
57120,note_on,0,0,2,,,,,,,,,0,,,59,28
57120,note_on,0,0,2,,,,,,,,,0,,,66,32
57360,note_on,0,0,1,,,,,,,,,0,,,71,32
57360,note_on,0,0,1,,,,,,,,,0,,,74,0
57360,note_on,240,0,1,,,,,,,,,0,,,78,0
57400,set_tempo,1720,1,0,,,,,,272480,,,,,,,
57440,control_change,320,0,2,,,,,,,,,0,64,0,,
57600,note_on,0,0,2,,,,,,,,,0,,,50,45
57600,note_on,0,0,2,,,,,,,,,0,,,59,0
57600,note_on,160,0,2,,,,,,,,,0,,,66,0
57600,set_tempo,200,1,0,,,,,,265498,,,,,,,
57600,note_on,240,0,1,,,,,,,,,0,,,71,0
57600,note_on,0,0,1,,,,,,,,,0,,,83,46
57646,control_change,46,0,2,,,,,,,,,0,64,127,,
57840,note_on,0,0,1,,,,,,,,,0,,,71,40
57840,note_on,194,0,2,,,,,,,,,0,,,50,0
57840,note_on,240,0,1,,,,,,,,,0,,,83,0
58080,note_on,240,0,2,,,,,,,,,0,,,55,40
58080,note_on,0,0,1,,,,,,,,,0,,,79,40
58080,note_on,0,0,1,,,,,,,,,0,,,74,36
58080,note_on,240,0,1,,,,,,,,,0,,,71,0
58320,note_on,240,0,2,,,,,,,,,0,,,55,0
58320,note_on,0,0,1,,,,,,,,,0,,,71,40
58320,note_on,0,0,1,,,,,,,,,0,,,74,0
58320,note_on,240,0,1,,,,,,,,,0,,,79,0
58412,control_change,92,0,2,,,,,,,,,0,64,0,,
58560,note_on,240,0,1,,,,,,,,,0,,,71,0
58560,note_on,0,0,1,,,,,,,,,0,,,79,44
58560,note_on,148,0,2,,,,,,,,,0,,,55,41
58631,control_change,71,0,2,,,,,,,,,0,64,127,,
58800,note_on,169,0,2,,,,,,,,,0,,,55,0
58800,note_on,0,0,1,,,,,,,,,0,,,67,33
58800,note_on,240,0,1,,,,,,,,,0,,,79,0
59040,note_on,0,0,1,,,,,,,,,0,,,72,34
59040,note_on,240,0,1,,,,,,,,,0,,,67,0
59040,note_on,240,0,2,,,,,,,,,0,,,60,39
59040,note_on,0,0,1,,,,,,,,,0,,,75,38
59264,control_change,224,0,2,,,,,,,,,0,64,0,,
59280,note_on,0,0,1,,,,,,,,,0,,,67,38
59280,note_on,240,0,1,,,,,,,,,0,,,75,0
59280,note_on,0,0,1,,,,,,,,,0,,,72,0
59280,note_on,16,0,2,,,,,,,,,0,,,60,0
59520,note_on,240,0,2,,,,,,,,,0,,,43,40
59520,note_on,0,0,1,,,,,,,,,0,,,77,41
59520,note_on,240,0,1,,,,,,,,,0,,,67,0
59600,control_change,80,0,2,,,,,,,,,0,64,127,,
59760,note_on,240,0,1,,,,,,,,,0,,,77,0
59760,note_on,0,0,1,,,,,,,,,0,,,68,37
60000,note_on,240,0,1,,,,,,,,,0,,,68,0
60000,note_on,0,0,1,,,,,,,,,0,,,71,33
60000,note_on,0,0,1,,,,,,,,,0,,,74,37
60000,note_on,0,0,2,,,,,,,,,0,,,55,36
60000,note_on,400,0,2,,,,,,,,,0,,,43,0
60240,note_on,240,0,1,,,,,,,,,0,,,74,0
60240,note_on,0,0,1,,,,,,,,,0,,,71,0
60240,note_on,0,0,1,,,,,,,,,0,,,68,37
60284,control_change,284,0,2,,,,,,,,,0,64,0,,
60480,note_on,0,0,2,,,,,,,,,0,,,55,38
60480,note_on,0,0,2,,,,,,,,,0,,,43,34
60480,note_on,196,0,2,,,,,,,,,0,,,55,0
60480,note_on,240,0,1,,,,,,,,,0,,,68,0
60480,note_on,0,0,1,,,,,,,,,0,,,74,40
60480,note_on,0,0,1,,,,,,,,,0,,,72,36
60538,control_change,58,0,2,,,,,,,,,0,64,127,,
60720,note_on,240,0,1,,,,,,,,,0,,,72,0
60720,note_on,0,0,1,,,,,,,,,0,,,67,33
60720,note_on,0,0,1,,,,,,,,,0,,,74,0
60960,note_on,0,0,1,,,,,,,,,0,,,75,33
60960,note_on,0,0,2,,,,,,,,,0,,,55,33
60960,note_on,0,0,2,,,,,,,,,0,,,48,29
60960,note_on,0,0,2,,,,,,,,,0,,,43,0
60960,note_on,422,0,2,,,,,,,,,0,,,55,0
60960,note_on,240,0,1,,,,,,,,,0,,,67,0
60960,note_on,0,0,1,,,,,,,,,0,,,72,29
61200,note_on,240,0,1,,,,,,,,,0,,,75,0
61200,note_on,0,0,1,,,,,,,,,0,,,72,0
61200,note_on,0,0,1,,,,,,,,,0,,,67,33
61292,control_change,332,0,2,,,,,,,,,0,64,0,,
61440,note_on,0,0,2,,,,,,,,,0,,,55,41
61440,note_on,148,0,2,,,,,,,,,0,,,55,0
61440,note_on,240,0,1,,,,,,,,,0,,,67,0
61440,note_on,0,0,1,,,,,,,,,0,,,80,44
61440,note_on,0,0,2,,,,,,,,,0,,,48,0
61509,control_change,69,0,2,,,,,,,,,0,64,127,,
61680,note_on,0,0,1,,,,,,,,,0,,,71,37
61680,note_on,240,0,1,,,,,,,,,0,,,80,0
61920,note_on,240,0,1,,,,,,,,,0,,,71,0
61920,note_on,0,0,1,,,,,,,,,0,,,77,37
61920,note_on,0,0,1,,,,,,,,,0,,,74,33
61920,note_on,411,0,2,,,,,,,,,0,,,55,0
61920,note_on,0,0,2,,,,,,,,,0,,,68,38
62160,note_on,240,0,1,,,,,,,,,0,,,77,0
62160,note_on,0,0,1,,,,,,,,,0,,,74,0
62160,note_on,0,0,1,,,,,,,,,0,,,71,35
62204,control_change,284,0,2,,,,,,,,,0,64,0,,
62400,note_on,0,0,2,,,,,,,,,0,,,55,36
62400,note_on,196,0,2,,,,,,,,,0,,,68,0
62400,note_on,0,0,1,,,,,,,,,0,,,74,36
62400,note_on,240,0,1,,,,,,,,,0,,,71,0
62400,note_on,0,0,1,,,,,,,,,0,,,79,40
62400,note_on,0,0,2,,,,,,,,,0,,,67,40
62526,control_change,126,0,2,,,,,,,,,0,64,127,,
62640,note_on,240,0,1,,,,,,,,,0,,,79,0
62640,note_on,0,0,1,,,,,,,,,0,,,74,0
62640,note_on,0,0,1,,,,,,,,,0,,,71,36
62880,note_on,0,0,2,,,,,,,,,0,,,55,0
62880,note_on,0,0,2,,,,,,,,,0,,,67,36
62880,note_on,0,0,2,,,,,,,,,0,,,60,32
62880,note_on,240,0,1,,,,,,,,,0,,,71,0
62880,note_on,0,0,1,,,,,,,,,0,,,75,32
62880,note_on,0,0,1,,,,,,,,,0,,,79,36
62880,note_on,354,0,2,,,,,,,,,0,,,67,0
63120,note_on,0,0,1,,,,,,,,,0,,,72,36
63120,note_on,240,0,1,,,,,,,,,0,,,79,0
63120,note_on,0,0,1,,,,,,,,,0,,,75,0
63200,control_change,320,0,2,,,,,,,,,0,64,0,,
63220,set_tempo,5620,1,0,,,,,,272480,,,,,,,
63360,set_tempo,140,1,0,,,,,,265498,,,,,,,
63360,note_on,240,0,1,,,,,,,,,0,,,72,0
63360,note_on,0,0,1,,,,,,,,,0,,,70,45
63360,control_change,0,0,2,,,,,,,,,0,64,127,,
63360,note_on,0,0,2,,,,,,,,,0,,,67,45
63360,note_on,0,0,2,,,,,,,,,0,,,60,0
63360,note_on,160,0,2,,,,,,,,,0,,,67,0
63600,note_on,0,0,1,,,,,,,,,0,,,75,41
63600,note_on,240,0,1,,,,,,,,,0,,,70,0
63600,note_on,240,0,2,,,,,,,,,0,,,67,0
63840,note_on,0,0,1,,,,,,,,,0,,,74,41
63840,note_on,240,0,2,,,,,,,,,0,,,63,41
63840,note_on,240,0,1,,,,,,,,,0,,,75,0
64080,note_on,240,0,1,,,,,,,,,0,,,74,0
64080,note_on,0,0,1,,,,,,,,,0,,,75,41
64080,note_on,240,0,2,,,,,,,,,0,,,63,0
64196,control_change,116,0,2,,,,,,,,,0,64,0,,
64320,note_on,240,0,1,,,,,,,,,0,,,75,0
64320,note_on,0,0,1,,,,,,,,,0,,,75,48
64320,note_on,0,0,2,,,,,,,,,0,,,63,47
64320,control_change,124,0,2,,,,,,,,,0,64,127,,
64560,note_on,240,0,2,,,,,,,,,0,,,63,0
64560,note_on,240,0,1,,,,,,,,,0,,,75,0
64560,note_on,0,0,1,,,,,,,,,0,,,80,45
64800,note_on,240,0,2,,,,,,,,,0,,,59,40
64800,note_on,0,0,2,,,,,,,,,0,,,63,45
64800,note_on,0,0,1,,,,,,,,,0,,,79,45
64800,note_on,240,0,1,,,,,,,,,0,,,80,0
65040,note_on,240,0,2,,,,,,,,,0,,,63,0
65040,note_on,0,0,2,,,,,,,,,0,,,59,0
65040,note_on,240,0,1,,,,,,,,,0,,,79,0
65040,note_on,0,0,1,,,,,,,,,0,,,80,45
65080,set_tempo,1720,1,0,,,,,,273923,,,,,,,
65108,control_change,68,0,2,,,,,,,,,0,64,0,,
65280,set_tempo,200,1,0,,,,,,265498,,,,,,,
65280,control_change,172,0,2,,,,,,,,,0,64,127,,
65280,note_on,0,0,2,,,,,,,,,0,,,61,43
65280,note_on,0,0,2,,,,,,,,,0,,,63,48
65280,note_on,240,0,1,,,,,,,,,0,,,80,0
65280,note_on,0,0,1,,,,,,,,,0,,,87,54
65520,note_on,0,0,2,,,,,,,,,0,,,61,0
65520,note_on,240,0,1,,,,,,,,,0,,,87,0
65520,note_on,240,0,2,,,,,,,,,0,,,63,0
65520,note_on,0,0,1,,,,,,,,,0,,,75,45
65760,note_on,0,0,2,,,,,,,,,0,,,63,45
65760,note_on,240,0,1,,,,,,,,,0,,,75,0
65760,note_on,240,0,2,,,,,,,,,0,,,58,40
65760,note_on,0,0,1,,,,,,,,,0,,,79,45
66000,note_on,0,0,1,,,,,,,,,0,,,75,45
66000,note_on,240,0,1,,,,,,,,,0,,,79,0
66000,note_on,240,0,2,,,,,,,,,0,,,63,0
66000,note_on,0,0,2,,,,,,,,,0,,,58,0
66088,control_change,88,0,2,,,,,,,,,0,64,0,,
66240,note_on,0,0,1,,,,,,,,,0,,,75,50
66240,note_on,240,0,1,,,,,,,,,0,,,75,0
66240,note_on,0,0,2,,,,,,,,,0,,,63,48
66240,note_on,152,0,2,,,,,,,,,0,,,58,48
66309,control_change,69,0,2,,,,,,,,,0,64,127,,
66480,note_on,171,0,2,,,,,,,,,0,,,63,0
66480,note_on,0,0,1,,,,,,,,,0,,,80,41
66480,note_on,240,0,1,,,,,,,,,0,,,75,0
66480,note_on,0,0,2,,,,,,,,,0,,,58,0
66720,note_on,240,0,1,,,,,,,,,0,,,80,0
66720,note_on,240,0,2,,,,,,,,,0,,,59,41
66720,note_on,0,0,1,,,,,,,,,0,,,79,41
66720,note_on,0,0,2,,,,,,,,,0,,,63,41
66960,note_on,240,0,2,,,,,,,,,0,,,63,0
66960,note_on,0,0,1,,,,,,,,,0,,,80,41
66960,note_on,240,0,1,,,,,,,,,0,,,79,0
66960,note_on,0,0,2,,,,,,,,,0,,,59,0
66980,set_tempo,1700,1,0,,,,,,273199,,,,,,,
67131,control_change,171,0,2,,,,,,,,,0,64,0,,
67200,note_on,0,0,1,,,,,,,,,0,,,78,48
67200,set_tempo,220,1,0,,,,,,265498,,,,,,,
67200,note_on,240,0,1,,,,,,,,,0,,,80,0
67200,note_on,69,0,2,,,,,,,,,0,,,64,45
67280,control_change,80,0,2,,,,,,,,,0,64,127,,
67440,note_on,0,0,1,,,,,,,,,0,,,66,42
67440,note_on,240,0,1,,,,,,,,,0,,,78,0
67680,note_on,400,0,2,,,,,,,,,0,,,64,0
67680,note_on,0,0,2,,,,,,,,,0,,,61,41
67680,note_on,240,0,1,,,,,,,,,0,,,66,0
67680,note_on,0,0,1,,,,,,,,,0,,,70,42
67920,note_on,0,0,1,,,,,,,,,0,,,66,42
67920,note_on,240,0,1,,,,,,,,,0,,,70,0
68024,control_change,344,0,2,,,,,,,,,0,64,0,,
68160,note_on,136,0,2,,,,,,,,,0,,,61,0
68160,note_on,0,0,1,,,,,,,,,0,,,66,47
68160,note_on,240,0,1,,,,,,,,,0,,,66,0
68160,note_on,0,0,2,,,,,,,,,0,,,61,45
68160,control_change,0,0,2,,,,,,,,,0,64,127,,
68400,note_on,240,0,1,,,,,,,,,0,,,66,0
68400,note_on,0,0,1,,,,,,,,,0,,,71,43
68524,control_change,364,0,2,,,,,,,,,0,64,0,,
68640,note_on,116,0,2,,,,,,,,,0,,,61,0
68640,note_on,0,0,1,,,,,,,,,0,,,70,43
68640,note_on,240,0,1,,,,,,,,,0,,,71,0
68640,note_on,0,0,2,,,,,,,,,0,,,63,41
68880,note_on,0,0,1,,,,,,,,,0,,,71,44
68880,note_on,240,0,1,,,,,,,,,0,,,70,0
69120,note_on,480,0,2,,,,,,,,,0,,,63,0
69120,control_change,0,0,2,,,,,,,,,0,64,127,,
69120,note_on,0,0,1,,,,,,,,,0,,,71,51
69120,note_on,240,0,1,,,,,,,,,0,,,71,0
69120,note_on,0,0,2,,,,,,,,,0,,,68,48
69360,note_on,240,0,1,,,,,,,,,0,,,71,0
69360,note_on,0,0,1,,,,,,,,,0,,,76,47
69600,note_on,240,0,1,,,,,,,,,0,,,76,0
69600,note_on,480,0,2,,,,,,,,,0,,,68,0
69600,note_on,0,0,1,,,,,,,,,0,,,75,47
69600,note_on,0,0,2,,,,,,,,,0,,,64,45
69840,note_on,0,0,1,,,,,,,,,0,,,76,48
69840,note_on,240,0,1,,,,,,,,,0,,,75,0
69876,control_change,276,0,2,,,,,,,,,0,64,0,,
70080,note_on,204,0,2,,,,,,,,,0,,,64,0
70080,note_on,240,0,1,,,,,,,,,0,,,76,0
70080,note_on,0,0,1,,,,,,,,,0,,,76,59
70080,note_on,0,0,2,,,,,,,,,0,,,64,54
70080,control_change,0,0,2,,,,,,,,,0,64,127,,
70320,note_on,0,0,1,,,,,,,,,0,,,81,54
70320,note_on,240,0,1,,,,,,,,,0,,,76,0
70560,note_on,0,0,2,,,,,,,,,0,,,64,48
70560,note_on,240,0,1,,,,,,,,,0,,,81,0
70560,note_on,0,0,1,,,,,,,,,0,,,80,54
70560,note_on,0,0,2,,,,,,,,,0,,,60,48
70560,note_on,480,0,2,,,,,,,,,0,,,64,0
70800,note_on,240,0,1,,,,,,,,,0,,,80,0
70800,note_on,0,0,1,,,,,,,,,0,,,81,54
70824,control_change,264,0,2,,,,,,,,,0,64,0,,
70840,set_tempo,3640,1,0,,,,,,270343,,,,,,,
71040,note_on,216,0,2,,,,,,,,,0,,,64,0
71040,note_on,0,0,2,,,,,,,,,0,,,60,0
71040,note_on,240,0,1,,,,,,,,,0,,,81,0
71040,note_on,0,0,1,,,,,,,,,0,,,88,71
71040,set_tempo,200,1,0,,,,,,265498,,,,,,,
71040,note_on,0,0,2,,,,,,,,,0,,,64,59
71040,note_on,0,0,2,,,,,,,,,0,,,62,53
71131,control_change,91,0,2,,,,,,,,,0,64,127,,
71280,note_on,240,0,1,,,,,,,,,0,,,88,0
71280,note_on,0,0,1,,,,,,,,,0,,,76,60
71520,note_on,240,0,1,,,,,,,,,0,,,76,0
71520,note_on,0,0,1,,,,,,,,,0,,,80,61
71520,note_on,0,0,2,,,,,,,,,0,,,62,0
71520,note_on,389,0,2,,,,,,,,,0,,,64,0
71520,note_on,0,0,2,,,,,,,,,0,,,64,54
71520,note_on,0,0,2,,,,,,,,,0,,,59,48
71760,note_on,0,0,1,,,,,,,,,0,,,76,61
71760,note_on,240,0,1,,,,,,,,,0,,,80,0
71864,control_change,344,0,2,,,,,,,,,0,64,0,,
72000,note_on,0,0,1,,,,,,,,,0,,,76,65
72000,control_change,0,0,2,,,,,,,,,0,64,127,,
72000,note_on,0,0,2,,,,,,,,,0,,,64,58
72000,note_on,0,0,2,,,,,,,,,0,,,59,52
72000,note_on,0,0,2,,,,,,,,,0,,,59,0
72000,note_on,136,0,2,,,,,,,,,0,,,64,0
72000,note_on,240,0,1,,,,,,,,,0,,,76,0
72240,note_on,240,0,1,,,,,,,,,0,,,76,0
72240,note_on,0,0,1,,,,,,,,,0,,,81,60
72480,note_on,480,0,2,,,,,,,,,0,,,64,0
72480,note_on,0,0,2,,,,,,,,,0,,,59,0
72480,note_on,0,0,2,,,,,,,,,0,,,60,48
72480,note_on,240,0,1,,,,,,,,,0,,,81,0
72480,note_on,0,0,1,,,,,,,,,0,,,80,60
72480,note_on,0,0,2,,,,,,,,,0,,,64,54
72720,note_on,0,0,1,,,,,,,,,0,,,81,60
72720,note_on,240,0,1,,,,,,,,,0,,,80,0
72764,control_change,284,0,2,,,,,,,,,0,64,0,,
72960,note_on,0,0,1,,,,,,,,,0,,,79,69
72960,note_on,240,0,1,,,,,,,,,0,,,81,0
72960,note_on,196,0,2,,,,,,,,,0,,,64,0
72960,note_on,0,0,2,,,,,,,,,0,,,60,0
72960,note_on,0,0,2,,,,,,,,,0,,,65,59
73063,control_change,103,0,2,,,,,,,,,0,64,127,,
73200,note_on,0,0,1,,,,,,,,,0,,,67,62
73200,note_on,240,0,1,,,,,,,,,0,,,79,0
73440,note_on,240,0,1,,,,,,,,,0,,,67,0
73440,note_on,0,0,1,,,,,,,,,0,,,71,62
73440,note_on,0,0,2,,,,,,,,,0,,,62,50
73440,note_on,377,0,2,,,,,,,,,0,,,65,0
73680,note_on,0,0,1,,,,,,,,,0,,,67,62
73680,note_on,240,0,1,,,,,,,,,0,,,71,0
73748,control_change,308,0,2,,,,,,,,,0,64,0,,
73920,note_on,0,0,2,,,,,,,,,0,,,62,58
73920,control_change,0,0,2,,,,,,,,,0,64,127,,
73920,note_on,172,0,2,,,,,,,,,0,,,62,0
73920,note_on,240,0,1,,,,,,,,,0,,,67,0
73920,note_on,0,0,1,,,,,,,,,0,,,67,67
74160,note_on,240,0,1,,,,,,,,,0,,,67,0
74160,note_on,0,0,1,,,,,,,,,0,,,72,58
74400,note_on,240,0,1,,,,,,,,,0,,,72,0
74400,note_on,0,0,1,,,,,,,,,0,,,71,58
74400,note_on,480,0,2,,,,,,,,,0,,,62,0
74400,note_on,0,0,2,,,,,,,,,0,,,64,50
74640,control_change,240,0,2,,,,,,,,,0,64,0,,
74640,note_on,0,0,1,,,,,,,,,0,,,72,58
74640,note_on,240,0,1,,,,,,,,,0,,,71,0
74660,set_tempo,3620,1,0,,,,,,276116,,,,,,,
74870,note_on,230,0,1,,,,,,,,,0,,,72,0
74870,note_on,230,0,2,,,,,,,,,0,,,64,0
74880,note_on,10,0,1,,,,,,,,,0,,,73,81
74880,set_tempo,220,1,0,,,,,,265498,,,,,,,
74880,note_on,10,0,2,,,,,,,,,0,,,61,68
75360,note_on,480,0,2,,,,,,,,,0,,,61,0
75360,note_on,0,0,2,,,,,,,,,0,,,60,58
75360,note_on,0,0,2,,,,,,,,,0,,,61,65
75360,set_tempo,480,1,0,,,,,,267547,,,,,,,
75360,note_on,0,0,1,,,,,,,,,0,,,72,69
75360,note_on,0,0,1,,,,,,,,,0,,,73,77
75360,note_on,480,0,1,,,,,,,,,0,,,73,0
75600,note_on,240,0,1,,,,,,,,,0,,,73,0
75600,note_on,0,0,1,,,,,,,,,0,,,72,0
75600,note_on,0,0,1,,,,,,,,,0,,,70,69
75600,note_on,0,0,1,,,,,,,,,0,,,73,77
75600,note_on,240,0,2,,,,,,,,,0,,,61,0
75600,note_on,0,0,2,,,,,,,,,0,,,60,0
75600,note_on,0,0,2,,,,,,,,,0,,,61,65
75600,note_on,0,0,2,,,,,,,,,0,,,58,58
75840,note_on,0,0,1,,,,,,,,,0,,,73,81
75840,note_on,0,0,1,,,,,,,,,0,,,70,0
75840,note_on,240,0,1,,,,,,,,,0,,,73,0
75840,note_on,240,0,2,,,,,,,,,0,,,61,0
75840,note_on,0,0,2,,,,,,,,,0,,,58,0
75840,note_on,0,0,2,,,,,,,,,0,,,58,61
75840,note_on,0,0,2,,,,,,,,,0,,,61,68
75840,note_on,0,0,1,,,,,,,,,0,,,70,72
75840,set_tempo,480,1,0,,,,,,265498,,,,,,,
76320,note_on,0,0,2,,,,,,,,,0,,,58,0
76320,note_on,0,0,2,,,,,,,,,0,,,56,58
76320,set_tempo,480,1,0,,,,,,267547,,,,,,,
76320,note_on,0,0,2,,,,,,,,,0,,,61,65
76320,note_on,0,0,1,,,,,,,,,0,,,73,78
76320,note_on,480,0,2,,,,,,,,,0,,,61,0
76320,note_on,480,0,1,,,,,,,,,0,,,73,0
76320,note_on,0,0,1,,,,,,,,,0,,,70,0
76320,note_on,0,0,1,,,,,,,,,0,,,68,70
76560,note_on,0,0,1,,,,,,,,,0,,,68,0
76560,note_on,240,0,1,,,,,,,,,0,,,73,0
76560,note_on,0,0,2,,,,,,,,,0,,,61,65
76560,note_on,240,0,2,,,,,,,,,0,,,61,0
76560,note_on,0,0,1,,,,,,,,,0,,,67,70
76560,note_on,0,0,2,,,,,,,,,0,,,55,58
76560,note_on,0,0,1,,,,,,,,,0,,,73,78
76560,note_on,0,0,2,,,,,,,,,0,,,56,0
76800,note_on,240,0,1,,,,,,,,,0,,,73,0
76800,note_on,0,0,1,,,,,,,,,0,,,67,72
76800,note_on,0,0,1,,,,,,,,,0,,,70,72
76800,note_on,0,0,1,,,,,,,,,0,,,73,81
76800,note_on,240,0,2,,,,,,,,,0,,,61,0
76800,note_on,0,0,2,,,,,,,,,0,,,55,0
76800,note_on,0,0,2,,,,,,,,,0,,,55,61
76800,note_on,0,0,2,,,,,,,,,0,,,61,68
76800,set_tempo,480,1,0,,,,,,265498,,,,,,,
76800,note_on,0,0,1,,,,,,,,,0,,,67,0
77280,note_on,480,0,2,,,,,,,,,0,,,61,0
77280,note_on,0,0,2,,,,,,,,,0,,,55,0
77280,note_on,0,0,2,,,,,,,,,0,,,53,58
77280,note_on,0,0,2,,,,,,,,,0,,,61,65
77280,set_tempo,480,1,0,,,,,,268240,,,,,,,
77280,note_on,480,0,1,,,,,,,,,0,,,73,0
77280,note_on,0,0,1,,,,,,,,,0,,,70,0
77280,note_on,0,0,1,,,,,,,,,0,,,67,0
77280,note_on,0,0,1,,,,,,,,,0,,,65,69
77280,note_on,0,0,1,,,,,,,,,0,,,68,69
77280,note_on,0,0,1,,,,,,,,,0,,,73,77
77520,note_on,0,0,1,,,,,,,,,0,,,73,77
77520,note_on,0,0,2,,,,,,,,,0,,,52,58
77520,note_on,0,0,2,,,,,,,,,0,,,53,0
77520,note_on,240,0,2,,,,,,,,,0,,,61,0
77520,note_on,0,0,1,,,,,,,,,0,,,68,0
77520,set_tempo,240,1,0,,,,,,295829,,,,,,,
77520,note_on,0,0,1,,,,,,,,,0,,,64,69
77520,note_on,0,0,2,,,,,,,,,0,,,61,65
77520,note_on,240,0,1,,,,,,,,,0,,,73,0
77520,note_on,0,0,1,,,,,,,,,0,,,65,0
77520,note_on,0,0,1,,,,,,,,,0,,,67,69
77750,note_on,0,0,2,,,,,,,,,0,,,52,0
77750,note_on,0,0,1,,,,,,,,,0,,,64,0
77750,note_on,0,0,1,,,,,,,,,0,,,67,0
77750,note_on,230,0,1,,,,,,,,,0,,,73,0
77750,note_on,230,0,2,,,,,,,,,0,,,61,0
77760,note_on,10,0,2,,,,,,,,,0,,,36,73
77760,note_on,0,0,2,,,,,,,,,0,,,48,82
77760,set_tempo,240,1,0,,,,,,271764,,,,,,,
77760,note_on,0,0,1,,,,,,,,,0,,,79,90
77760,note_on,0,0,1,,,,,,,,,0,,,82,90
77760,note_on,10,0,1,,,,,,,,,0,,,84,100
78240,note_on,0,0,1,,,,,,,,,0,,,77,84
78240,note_on,0,0,1,,,,,,,,,0,,,84,0
78240,note_on,0,0,1,,,,,,,,,0,,,82,0
78240,note_on,480,0,1,,,,,,,,,0,,,79,0
78240,note_on,0,0,1,,,,,,,,,0,,,80,84
78240,note_on,0,0,2,,,,,,,,,0,,,36,0
78240,note_on,0,0,2,,,,,,,,,0,,,48,79
78240,note_on,480,0,2,,,,,,,,,0,,,48,0
78240,note_on,0,0,1,,,,,,,,,0,,,84,94
78240,set_tempo,480,1,0,,,,,,282899,,,,,,,
78480,note_on,0,0,2,,,,,,,,,0,,,48,79
78480,note_on,240,0,1,,,,,,,,,0,,,84,0
78480,note_on,0,0,1,,,,,,,,,0,,,84,94
78480,note_on,240,0,2,,,,,,,,,0,,,48,0
78480,note_on,0,0,1,,,,,,,,,0,,,80,0
78480,note_on,0,0,1,,,,,,,,,0,,,77,0
78480,note_on,0,0,1,,,,,,,,,0,,,76,84
78480,note_on,0,0,1,,,,,,,,,0,,,79,84
78710,note_on,0,0,1,,,,,,,,,0,,,76,0
78710,note_on,0,0,1,,,,,,,,,0,,,79,0
78710,note_on,230,0,2,,,,,,,,,0,,,48,0
78710,note_on,230,0,1,,,,,,,,,0,,,84,0
78720,set_tempo,480,1,0,,,,,,265498,,,,,,,
78720,note_on,10,0,1,,,,,,,,,0,,,73,81
78720,note_on,10,0,2,,,,,,,,,0,,,61,68
79200,note_on,0,0,1,,,,,,,,,0,,,73,77
79200,note_on,480,0,2,,,,,,,,,0,,,61,0
79200,note_on,0,0,2,,,,,,,,,0,,,60,58
79200,note_on,0,0,2,,,,,,,,,0,,,61,65
79200,note_on,0,0,1,,,,,,,,,0,,,72,69
79200,note_on,480,0,1,,,,,,,,,0,,,73,0
79200,set_tempo,480,1,0,,,,,,267547,,,,,,,
79440,note_on,240,0,2,,,,,,,,,0,,,61,0
79440,note_on,0,0,2,,,,,,,,,0,,,60,0
79440,note_on,0,0,2,,,,,,,,,0,,,58,58
79440,note_on,0,0,2,,,,,,,,,0,,,61,65
79440,note_on,0,0,1,,,,,,,,,0,,,73,77
79440,note_on,0,0,1,,,,,,,,,0,,,70,69
79440,note_on,0,0,1,,,,,,,,,0,,,72,0
79440,note_on,240,0,1,,,,,,,,,0,,,73,0
79680,note_on,240,0,2,,,,,,,,,0,,,61,0
79680,note_on,0,0,2,,,,,,,,,0,,,58,0
79680,note_on,0,0,2,,,,,,,,,0,,,58,61
79680,set_tempo,480,1,0,,,,,,265498,,,,,,,
79680,note_on,240,0,1,,,,,,,,,0,,,73,0
79680,note_on,0,0,1,,,,,,,,,0,,,70,0
79680,note_on,0,0,1,,,,,,,,,0,,,70,72
79680,note_on,0,0,1,,,,,,,,,0,,,73,81
79680,note_on,0,0,2,,,,,,,,,0,,,61,68
80160,note_on,0,0,1,,,,,,,,,0,,,68,70
80160,note_on,480,0,1,,,,,,,,,0,,,73,0
80160,note_on,0,0,1,,,,,,,,,0,,,73,78
80160,set_tempo,480,1,0,,,,,,267547,,,,,,,
80160,note_on,0,0,1,,,,,,,,,0,,,70,0
80160,note_on,480,0,2,,,,,,,,,0,,,61,0
80160,note_on,0,0,2,,,,,,,,,0,,,58,0
80160,note_on,0,0,2,,,,,,,,,0,,,56,58
80160,note_on,0,0,2,,,,,,,,,0,,,61,65
80400,note_on,0,0,2,,,,,,,,,0,,,56,0
80400,note_on,240,0,1,,,,,,,,,0,,,73,0
80400,note_on,0,0,1,,,,,,,,,0,,,68,0
80400,note_on,240,0,2,,,,,,,,,0,,,61,0
80400,note_on,0,0,2,,,,,,,,,0,,,55,58
80400,note_on,0,0,2,,,,,,,,,0,,,61,65
80400,note_on,0,0,1,,,,,,,,,0,,,73,78
80400,note_on,0,0,1,,,,,,,,,0,,,67,70
80640,note_on,0,0,1,,,,,,,,,0,,,67,72
80640,note_on,0,0,1,,,,,,,,,0,,,67,0
80640,note_on,240,0,1,,,,,,,,,0,,,73,0
80640,note_on,0,0,2,,,,,,,,,0,,,61,68
80640,note_on,240,0,2,,,,,,,,,0,,,61,0
80640,note_on,0,0,1,,,,,,,,,0,,,70,72
80640,set_tempo,480,1,0,,,,,,265498,,,,,,,
80640,note_on,0,0,2,,,,,,,,,0,,,55,61
80640,note_on,0,0,2,,,,,,,,,0,,,55,0
80640,note_on,0,0,1,,,,,,,,,0,,,73,81
81120,note_on,0,0,2,,,,,,,,,0,,,53,58
81120,note_on,0,0,1,,,,,,,,,0,,,70,0
81120,note_on,0,0,1,,,,,,,,,0,,,67,0
81120,note_on,0,0,1,,,,,,,,,0,,,65,69
81120,note_on,0,0,2,,,,,,,,,0,,,61,65
81120,note_on,0,0,1,,,,,,,,,0,,,73,77
81120,note_on,480,0,2,,,,,,,,,0,,,61,0
81120,set_tempo,480,1,0,,,,,,268240,,,,,,,
81120,note_on,0,0,2,,,,,,,,,0,,,55,0
81120,note_on,480,0,1,,,,,,,,,0,,,73,0
81120,note_on,0,0,1,,,,,,,,,0,,,68,69
81360,note_on,0,0,2,,,,,,,,,0,,,61,65
81360,note_on,0,0,1,,,,,,,,,0,,,68,0
81360,note_on,0,0,1,,,,,,,,,0,,,65,0
81360,note_on,0,0,1,,,,,,,,,0,,,64,69
81360,note_on,0,0,1,,,,,,,,,0,,,67,69
81360,note_on,0,0,1,,,,,,,,,0,,,73,77
81360,set_tempo,240,1,0,,,,,,295829,,,,,,,
81360,note_on,240,0,2,,,,,,,,,0,,,61,0
81360,note_on,0,0,2,,,,,,,,,0,,,53,0
81360,note_on,0,0,2,,,,,,,,,0,,,52,58
81360,note_on,240,0,1,,,,,,,,,0,,,73,0
81590,note_on,230,0,2,,,,,,,,,0,,,61,0
81590,note_on,0,0,1,,,,,,,,,0,,,67,0
81590,note_on,0,0,1,,,,,,,,,0,,,64,0
81590,note_on,0,0,2,,,,,,,,,0,,,52,0
81590,note_on,230,0,1,,,,,,,,,0,,,73,0
81600,note_on,10,0,1,,,,,,,,,0,,,84,99
81600,note_on,10,0,2,,,,,,,,,0,,,36,75
81600,note_on,0,0,2,,,,,,,,,0,,,48,84
81600,set_tempo,240,1,0,,,,,,271764,,,,,,,
81600,note_on,0,0,1,,,,,,,,,0,,,79,89
81600,note_on,0,0,1,,,,,,,,,0,,,82,89
82080,set_tempo,480,1,0,,,,,,282899,,,,,,,
82080,note_on,0,0,1,,,,,,,,,0,,,84,92
82080,note_on,0,0,1,,,,,,,,,0,,,82,0
82080,note_on,0,0,1,,,,,,,,,0,,,84,0
82080,note_on,0,0,1,,,,,,,,,0,,,77,82
82080,note_on,0,0,1,,,,,,,,,0,,,80,82
82080,note_on,0,0,2,,,,,,,,,0,,,36,0
82080,note_on,480,0,2,,,,,,,,,0,,,48,0
82080,note_on,480,0,1,,,,,,,,,0,,,79,0
82080,note_on,0,0,2,,,,,,,,,0,,,48,79
82320,note_on,0,0,2,,,,,,,,,0,,,48,79
82320,note_on,0,0,1,,,,,,,,,0,,,84,92
82320,note_on,240,0,2,,,,,,,,,0,,,48,0
82320,note_on,0,0,1,,,,,,,,,0,,,79,82
82320,note_on,0,0,1,,,,,,,,,0,,,80,0
82320,note_on,0,0,1,,,,,,,,,0,,,76,82
82320,note_on,0,0,1,,,,,,,,,0,,,77,0
82320,note_on,240,0,1,,,,,,,,,0,,,84,0
82550,note_on,230,0,1,,,,,,,,,0,,,84,0
82550,note_on,0,0,1,,,,,,,,,0,,,79,0
82550,note_on,0,0,1,,,,,,,,,0,,,76,0
82550,note_on,230,0,2,,,,,,,,,0,,,48,0
82560,note_on,0,0,2,,,,,,,,,0,,,61,45
82560,note_on,10,0,2,,,,,,,,,0,,,55,40
82560,set_tempo,480,1,0,,,,,,265498,,,,,,,
82560,note_on,0,0,1,,,,,,,,,0,,,73,56
82560,note_on,0,0,1,,,,,,,,,0,,,70,50
82560,note_on,10,0,1,,,,,,,,,0,,,67,50
83040,note_on,0,0,1,,,,,,,,,0,,,68,44
83040,note_on,0,0,1,,,,,,,,,0,,,65,44
83040,note_on,0,0,1,,,,,,,,,0,,,67,0
83040,set_tempo,480,1,0,,,,,,268240,,,,,,,
83040,note_on,0,0,1,,,,,,,,,0,,,70,0
83040,note_on,480,0,1,,,,,,,,,0,,,73,0
83040,note_on,480,0,2,,,,,,,,,0,,,61,0
83040,note_on,0,0,2,,,,,,,,,0,,,55,0
83040,note_on,0,0,2,,,,,,,,,0,,,61,40
83040,note_on,0,0,1,,,,,,,,,0,,,73,49
83040,note_on,0,0,2,,,,,,,,,0,,,53,36
83280,set_tempo,240,1,0,,,,,,303644,,,,,,,
83280,note_on,0,0,1,,,,,,,,,0,,,65,0
83280,note_on,0,0,2,,,,,,,,,0,,,53,0
83280,note_on,0,0,2,,,,,,,,,0,,,52,36
83280,note_on,0,0,2,,,,,,,,,0,,,61,40
83280,note_on,0,0,1,,,,,,,,,0,,,73,49
83280,note_on,0,0,1,,,,,,,,,0,,,67,44
83280,note_on,0,0,1,,,,,,,,,0,,,64,44
83280,note_on,0,0,1,,,,,,,,,0,,,68,0
83280,note_on,240,0,1,,,,,,,,,0,,,73,0
83280,note_on,240,0,2,,,,,,,,,0,,,61,0
83520,note_on,0,0,2,,,,,,,,,0,,,52,0
83520,note_on,0,0,2,,,,,,,,,0,,,36,73
83520,note_on,240,0,2,,,,,,,,,0,,,61,0
83520,note_on,0,0,1,,,,,,,,,0,,,79,87
83520,note_on,0,0,2,,,,,,,,,0,,,48,82
83520,note_on,240,0,1,,,,,,,,,0,,,73,0
83520,note_on,0,0,1,,,,,,,,,0,,,67,0
83520,note_on,0,0,1,,,,,,,,,0,,,64,0
83520,note_on,0,0,1,,,,,,,,,0,,,84,97
83520,note_on,0,0,1,,,,,,,,,0,,,82,87
83520,set_tempo,240,1,0,,,,,,276855,,,,,,,
84000,note_on,0,0,2,,,,,,,,,0,,,48,79
84000,set_tempo,480,1,0,,,,,,287618,,,,,,,
84000,note_on,0,0,1,,,,,,,,,0,,,82,0
84000,note_on,0,0,1,,,,,,,,,0,,,84,0
84000,note_on,0,0,1,,,,,,,,,0,,,77,79
84000,note_on,0,0,1,,,,,,,,,0,,,80,79
84000,note_on,0,0,1,,,,,,,,,0,,,84,88
84000,note_on,0,0,2,,,,,,,,,0,,,36,0
84000,note_on,480,0,1,,,,,,,,,0,,,79,0
84000,note_on,480,0,2,,,,,,,,,0,,,48,0
84240,note_on,0,0,2,,,,,,,,,0,,,48,79
84240,note_on,240,0,1,,,,,,,,,0,,,84,0
84240,note_on,0,0,1,,,,,,,,,0,,,80,0
84240,note_on,0,0,1,,,,,,,,,0,,,77,0
84240,note_on,0,0,1,,,,,,,,,0,,,76,81
84240,note_on,0,0,1,,,,,,,,,0,,,79,81
84240,note_on,0,0,1,,,,,,,,,0,,,84,91
84240,note_on,240,0,2,,,,,,,,,0,,,48,0
84480,note_on,0,0,1,,,,,,,,,0,,,60,48
84480,note_on,240,0,2,,,,,,,,,0,,,48,0
84480,set_tempo,480,1,0,,,,,,265498,,,,,,,
84480,note_on,240,0,1,,,,,,,,,0,,,84,0
84480,note_on,0,0,1,,,,,,,,,0,,,79,0
84480,note_on,0,0,2,,,,,,,,,0,,,48,40
84480,note_on,0,0,1,,,,,,,,,0,,,76,0
84720,note_on,240,0,1,,,,,,,,,0,,,60,0
84720,note_on,240,0,2,,,,,,,,,0,,,48,0
84960,note_on,240,0,1,,,,,,,,,0,,,61,45
84960,note_on,240,0,2,,,,,,,,,0,,,49,38
85080,note_on,120,0,1,,,,,,,,,0,,,61,0
85080,note_on,120,0,2,,,,,,,,,0,,,49,0
85200,note_on,120,0,1,,,,,,,,,0,,,60,45
85200,note_on,120,0,2,,,,,,,,,0,,,48,38
85320,note_on,120,0,1,,,,,,,,,0,,,60,0
85320,note_on,120,0,2,,,,,,,,,0,,,48,0
85440,note_on,120,0,1,,,,,,,,,0,,,61,48
85440,note_on,120,0,2,,,,,,,,,0,,,49,40
85680,note_on,240,0,1,,,,,,,,,0,,,61,0
85680,note_on,240,0,2,,,,,,,,,0,,,49,0
85920,note_on,240,0,2,,,,,,,,,0,,,48,38
85920,note_on,240,0,1,,,,,,,,,0,,,60,45
86040,note_on,120,0,1,,,,,,,,,0,,,60,0
86040,note_on,120,0,2,,,,,,,,,0,,,48,0
86160,note_on,120,0,1,,,,,,,,,0,,,62,45
86160,note_on,120,0,2,,,,,,,,,0,,,50,38
86280,note_on,120,0,1,,,,,,,,,0,,,62,0
86280,note_on,120,0,2,,,,,,,,,0,,,50,0
86400,note_on,120,0,1,,,,,,,,,0,,,64,48
86400,set_tempo,1920,1,0,,,,,,265498,,,,,,,
86400,note_on,120,0,2,,,,,,,,,0,,,52,40
86640,note_on,240,0,1,,,,,,,,,0,,,64,0
86640,note_on,240,0,2,,,,,,,,,0,,,52,0
86880,note_on,240,0,1,,,,,,,,,0,,,65,45
86880,note_on,240,0,2,,,,,,,,,0,,,53,38
87000,note_on,120,0,1,,,,,,,,,0,,,65,0
87000,note_on,120,0,2,,,,,,,,,0,,,53,0
87120,note_on,120,0,1,,,,,,,,,0,,,64,45
87120,note_on,120,0,2,,,,,,,,,0,,,52,38
87240,note_on,120,0,2,,,,,,,,,0,,,52,0
87240,note_on,120,0,1,,,,,,,,,0,,,64,0
87360,note_on,120,0,1,,,,,,,,,0,,,65,48
87360,note_on,120,0,2,,,,,,,,,0,,,53,39
87600,note_on,240,0,1,,,,,,,,,0,,,65,0
87600,note_on,240,0,2,,,,,,,,,0,,,53,0
87840,note_on,240,0,1,,,,,,,,,0,,,64,50
87840,note_on,240,0,2,,,,,,,,,0,,,52,42
87960,note_on,120,0,1,,,,,,,,,0,,,64,0
87960,note_on,120,0,2,,,,,,,,,0,,,52,0
88080,note_on,120,0,1,,,,,,,,,0,,,66,52
88080,note_on,120,0,2,,,,,,,,,0,,,54,44
88200,note_on,120,0,2,,,,,,,,,0,,,54,0
88200,note_on,120,0,1,,,,,,,,,0,,,66,0
88320,note_on,120,0,2,,,,,,,,,0,,,55,45
88320,note_on,120,0,1,,,,,,,,,0,,,67,54
88800,note_on,480,0,2,,,,,,,,,0,,,55,0
88800,note_on,0,0,2,,,,,,,,,0,,,56,47
88800,note_on,0,0,1,,,,,,,,,0,,,68,56
88800,note_on,480,0,1,,,,,,,,,0,,,67,0
89040,note_on,240,0,2,,,,,,,,,0,,,56,0
89040,note_on,0,0,2,,,,,,,,,0,,,55,49
89040,note_on,0,0,1,,,,,,,,,0,,,67,58
89040,note_on,240,0,1,,,,,,,,,0,,,68,0
89280,note_on,240,0,1,,,,,,,,,0,,,67,0
89280,note_on,0,0,1,,,,,,,,,0,,,70,60
89280,note_on,0,0,2,,,,,,,,,0,,,58,51
89280,note_on,240,0,2,,,,,,,,,0,,,55,0
89760,note_on,0,0,2,,,,,,,,,0,,,56,54
89760,note_on,480,0,1,,,,,,,,,0,,,70,0
89760,note_on,0,0,1,,,,,,,,,0,,,68,63
89760,note_on,480,0,2,,,,,,,,,0,,,58,0
90000,note_on,240,0,2,,,,,,,,,0,,,56,0
90000,note_on,240,0,1,,,,,,,,,0,,,68,0
90000,note_on,0,0,2,,,,,,,,,0,,,61,55
90000,note_on,0,0,1,,,,,,,,,0,,,73,64
90240,note_on,240,0,1,,,,,,,,,0,,,73,0
90240,set_tempo,3840,1,0,,,,,,264819,,,,,,,
90240,note_on,0,0,2,,,,,,,,,0,,,60,56
90240,note_on,240,0,2,,,,,,,,,0,,,61,0
90240,note_on,0,0,1,,,,,,,,,0,,,72,66
90440,set_tempo,200,1,0,,,,,,265498,,,,,,,
90640,set_tempo,200,1,0,,,,,,266182,,,,,,,
90720,note_on,480,0,1,,,,,,,,,0,,,72,0
90720,note_on,0,0,1,,,,,,,,,0,,,74,70
90720,note_on,0,0,2,,,,,,,,,0,,,62,60
90720,note_on,480,0,2,,,,,,,,,0,,,60,0
90820,set_tempo,180,1,0,,,,,,266868,,,,,,,
90960,note_on,0,0,2,,,,,,,,,0,,,63,61
90960,note_on,240,0,1,,,,,,,,,0,,,74,0
90960,note_on,0,0,1,,,,,,,,,0,,,75,72
90960,note_on,240,0,2,,,,,,,,,0,,,62,0
91020,set_tempo,200,1,0,,,,,,267547,,,,,,,
91200,note_on,240,0,2,,,,,,,,,0,,,63,0
91200,set_tempo,180,1,0,,,,,,268240,,,,,,,
91200,note_on,240,0,1,,,,,,,,,0,,,75,0
91200,note_on,0,0,1,,,,,,,,,0,,,76,72
91200,note_on,0,0,2,,,,,,,,,0,,,64,62
91240,set_tempo,40,1,0,,,,,,268938,,,,,,,
91260,set_tempo,20,1,0,,,,,,269639,,,,,,,
91280,set_tempo,20,1,0,,,,,,270343,,,,,,,
91300,set_tempo,20,1,0,,,,,,271052,,,,,,,
91320,set_tempo,20,1,0,,,,,,271764,,,,,,,
91340,set_tempo,20,1,0,,,,,,272480,,,,,,,
91360,set_tempo,20,1,0,,,,,,273199,,,,,,,
91380,set_tempo,20,1,0,,,,,,273923,,,,,,,
91420,set_tempo,40,1,0,,,,,,274650,,,,,,,
91440,set_tempo,20,1,0,,,,,,275381,,,,,,,
91460,set_tempo,20,1,0,,,,,,276116,,,,,,,
91480,set_tempo,20,1,0,,,,,,276855,,,,,,,
91500,set_tempo,20,1,0,,,,,,277598,,,,,,,
91520,set_tempo,20,1,0,,,,,,278345,,,,,,,
91540,set_tempo,20,1,0,,,,,,279096,,,,,,,
91560,set_tempo,20,1,0,,,,,,279838,,,,,,,
91600,set_tempo,40,1,0,,,,,,280597,,,,,,,
91620,set_tempo,20,1,0,,,,,,281360,,,,,,,
91640,set_tempo,20,1,0,,,,,,282127,,,,,,,
91660,set_tempo,20,1,0,,,,,,282899,,,,,,,
91680,set_tempo,20,1,0,,,,,,283675,,,,,,,
91680,note_on,480,0,1,,,,,,,,,0,,,76,0
91680,note_on,480,0,2,,,,,,,,,0,,,64,0
91680,note_on,0,0,2,,,,,,,,,0,,,65,65
91680,note_on,0,0,1,,,,,,,,,0,,,77,76
91700,set_tempo,20,1,0,,,,,,284455,,,,,,,
91720,set_tempo,20,1,0,,,,,,285239,,,,,,,
91740,set_tempo,20,1,0,,,,,,286028,,,,,,,
91760,set_tempo,20,1,0,,,,,,286821,,,,,,,
91800,set_tempo,40,1,0,,,,,,287618,,,,,,,
91820,set_tempo,20,1,0,,,,,,288420,,,,,,,
91840,set_tempo,20,1,0,,,,,,289226,,,,,,,
91860,set_tempo,20,1,0,,,,,,290037,,,,,,,
91880,set_tempo,20,1,0,,,,,,290853,,,,,,,
91900,set_tempo,20,1,0,,,,,,291673,,,,,,,
91920,set_tempo,20,1,0,,,,,,292497,,,,,,,
91920,note_on,240,0,2,,,,,,,,,0,,,65,0
91920,note_on,240,0,1,,,,,,,,,0,,,77,0
91920,note_on,0,0,2,,,,,,,,,0,,,67,67
91920,note_on,0,0,1,,,,,,,,,0,,,79,78
91940,set_tempo,20,1,0,,,,,,293312,,,,,,,
91980,set_tempo,40,1,0,,,,,,294146,,,,,,,
92000,set_tempo,20,1,0,,,,,,313758,,,,,,,
92160,note_on,240,0,1,,,,,,,,,0,,,79,0
92160,note_on,0,0,1,,,,,,,,,0,,,72,72
92160,control_change,0,0,2,,,,,,,,,0,64,127,,
92160,note_on,0,0,1,,,,,,,,,0,,,80,81
92160,set_tempo,160,1,0,,,,,,265498,,,,,,,
92160,note_on,240,0,2,,,,,,,,,0,,,67,0
92160,note_on,0,0,2,,,,,,,,,0,,,53,68
92160,note_on,0,0,1,,,,,,,,,0,,,68,72
92160,note_on,0,0,2,,,,,,,,,0,,,41,68
92640,note_on,480,0,1,,,,,,,,,0,,,80,0
92640,note_on,0,0,1,,,,,,,,,0,,,72,0
92640,note_on,0,0,1,,,,,,,,,0,,,79,77
92640,note_on,0,0,1,,,,,,,,,0,,,72,69
92640,note_on,0,0,1,,,,,,,,,0,,,68,69
92640,note_on,480,0,2,,,,,,,,,0,,,53,0
92640,note_on,0,0,2,,,,,,,,,0,,,41,0
92640,note_on,0,0,2,,,,,,,,,0,,,53,66
92640,note_on,0,0,1,,,,,,,,,0,,,68,0
92640,set_tempo,480,1,0,,,,,,267547,,,,,,,
92760,note_on,120,0,1,,,,,,,,,0,,,68,0
92760,note_on,0,0,1,,,,,,,,,0,,,72,0
92760,note_on,0,0,1,,,,,,,,,0,,,79,0
92760,note_on,120,0,2,,,,,,,,,0,,,53,0
92880,note_on,120,0,1,,,,,,,,,0,,,77,77
92880,note_on,0,0,1,,,,,,,,,0,,,72,69
92880,note_on,0,0,1,,,,,,,,,0,,,68,69
92880,note_on,120,0,2,,,,,,,,,0,,,53,66
93000,note_on,0,0,1,,,,,,,,,0,,,72,0
93000,note_on,120,0,1,,,,,,,,,0,,,68,0
93000,note_on,0,0,1,,,,,,,,,0,,,77,0
93000,note_on,120,0,2,,,,,,,,,0,,,53,0
93120,note_on,0,0,1,,,,,,,,,0,,,68,72
93120,note_on,0,0,1,,,,,,,,,0,,,72,72
93120,note_on,120,0,1,,,,,,,,,0,,,77,81
93120,set_tempo,480,1,0,,,,,,265498,,,,,,,
93120,note_on,0,0,2,,,,,,,,,0,,,53,68
93120,note_on,120,0,2,,,,,,,,,0,,,41,61
93232,control_change,112,0,2,,,,,,,,,0,64,0,,
93572,control_change,340,0,2,,,,,,,,,0,64,127,,
93600,note_on,0,0,1,,,,,,,,,0,,,72,0
93600,note_on,0,0,1,,,,,,,,,0,,,68,70
93600,note_on,0,0,1,,,,,,,,,0,,,72,78
93600,note_on,28,0,2,,,,,,,,,0,,,53,0
93600,note_on,0,0,2,,,,,,,,,0,,,41,0
93600,note_on,0,0,2,,,,,,,,,0,,,53,66
93600,note_on,0,0,1,,,,,,,,,0,,,77,0
93600,note_on,480,0,1,,,,,,,,,0,,,68,0
93600,set_tempo,480,1,0,,,,,,268240,,,,,,,
93840,note_on,240,0,1,,,,,,,,,0,,,72,0
93840,note_on,0,0,1,,,,,,,,,0,,,68,70
93840,note_on,0,0,1,,,,,,,,,0,,,72,78
93840,note_on,240,0,2,,,,,,,,,0,,,53,0
93840,note_on,0,0,2,,,,,,,,,0,,,53,65
93840,note_on,0,0,1,,,,,,,,,0,,,68,0
94080,note_on,240,0,1,,,,,,,,,0,,,72,0
94080,note_on,0,0,1,,,,,,,,,0,,,68,0
94080,note_on,0,0,1,,,,,,,,,0,,,77,81
94080,note_on,0,0,1,,,,,,,,,0,,,73,72
94080,note_on,0,0,1,,,,,,,,,0,,,70,72
94080,set_tempo,480,1,0,,,,,,265498,,,,,,,
94080,note_on,240,0,2,,,,,,,,,0,,,53,0
94080,note_on,0,0,2,,,,,,,,,0,,,41,61
94080,note_on,0,0,2,,,,,,,,,0,,,53,68
94292,control_change,212,0,2,,,,,,,,,0,64,0,,
94560,note_on,0,0,2,,,,,,,,,0,,,53,66
94560,note_on,0,0,2,,,,,,,,,0,,,41,0
94560,note_on,268,0,2,,,,,,,,,0,,,53,0
94560,note_on,0,0,1,,,,,,,,,0,,,70,69
94560,note_on,0,0,1,,,,,,,,,0,,,73,77
94560,note_on,0,0,1,,,,,,,,,0,,,77,0
94560,note_on,480,0,1,,,,,,,,,0,,,70,0
94560,note_on,0,0,1,,,,,,,,,0,,,73,0
94560,set_tempo,480,1,0,,,,,,267547,,,,,,,
94604,control_change,44,0,2,,,,,,,,,0,64,127,,
94800,note_on,240,0,1,,,,,,,,,0,,,73,0
94800,note_on,196,0,2,,,,,,,,,0,,,53,0
94800,note_on,0,0,1,,,,,,,,,0,,,73,76
94800,note_on,0,0,1,,,,,,,,,0,,,70,68
94800,note_on,0,0,1,,,,,,,,,0,,,70,0
94800,note_on,0,0,2,,,,,,,,,0,,,53,66
95040,set_tempo,480,1,0,,,,,,265498,,,,,,,
95040,note_on,0,0,1,,,,,,,,,0,,,77,81
95040,note_on,0,0,1,,,,,,,,,0,,,72,72
95040,note_on,0,0,1,,,,,,,,,0,,,68,72
95040,note_on,0,0,1,,,,,,,,,0,,,70,0
95040,note_on,240,0,1,,,,,,,,,0,,,73,0
95040,note_on,0,0,2,,,,,,,,,0,,,53,68
95040,note_on,0,0,2,,,,,,,,,0,,,41,61
95040,note_on,240,0,2,,,,,,,,,0,,,53,0
95224,control_change,184,0,2,,,,,,,,,0,64,0,,
95510,note_on,0,0,1,,,,,,,,,0,,,72,0
95510,note_on,0,0,2,,,,,,,,,0,,,41,0
95510,note_on,286,0,2,,,,,,,,,0,,,53,0
95510,note_on,470,0,1,,,,,,,,,0,,,68,0
95510,note_on,0,0,1,,,,,,,,,0,,,77,0
95520,set_tempo,480,1,0,,,,,,272480,,,,,,,
95520,note_on,0,0,1,,,,,,,,,0,,,72,54
95520,note_on,10,0,1,,,,,,,,,0,,,68,48
95520,note_on,10,0,2,,,,,,,,,0,,,53,46
95536,control_change,16,0,2,,,,,,,,,0,64,127,,
95760,note_on,0,0,2,,,,,,,,,0,,,53,46
95760,note_on,224,0,2,,,,,,,,,0,,,53,0
95760,note_on,0,0,1,,,,,,,,,0,,,68,48
95760,note_on,0,0,1,,,,,,,,,0,,,72,54
95760,note_on,240,0,1,,,,,,,,,0,,,72,0
95760,note_on,0,0,1,,,,,,,,,0,,,68,0
96000,note_on,0,0,1,,,,,,,,,0,,,72,48
96000,note_on,0,0,1,,,,,,,,,0,,,68,43
96000,note_on,240,0,2,,,,,,,,,0,,,53,0
96000,note_on,0,0,2,,,,,,,,,0,,,29,36
96000,note_on,0,0,2,,,,,,,,,0,,,41,40
96000,note_on,0,0,1,,,,,,,,,0,,,68,0
96000,note_on,240,0,1,,,,,,,,,0,,,72,0
96000,set_tempo,480,1,0,,,,,,265498,,,,,,,
96480,note_on,0,0,2,,,,,,,,,0,,,41,38
96480,note_on,0,0,1,,,,,,,,,0,,,68,0
96480,set_tempo,480,1,0,,,,,,268240,,,,,,,
96480,note_on,0,0,1,,,,,,,,,0,,,68,43
96480,note_on,0,0,1,,,,,,,,,0,,,72,48
96480,note_on,480,0,2,,,,,,,,,0,,,41,0
96480,note_on,0,0,2,,,,,,,,,0,,,29,0
96480,note_on,480,0,1,,,,,,,,,0,,,72,0
96480,note_on,0,0,1,,,,,,,,,0,,,67,48
96600,note_on,120,0,1,,,,,,,,,0,,,72,0
96600,note_on,0,0,1,,,,,,,,,0,,,67,0
96600,note_on,120,0,2,,,,,,,,,0,,,41,0
96600,note_on,0,0,1,,,,,,,,,0,,,68,0
96720,note_on,0,0,1,,,,,,,,,0,,,72,45
96720,note_on,0,0,1,,,,,,,,,0,,,68,40
96720,note_on,120,0,1,,,,,,,,,0,,,65,40
96720,note_on,120,0,2,,,,,,,,,0,,,41,38
96840,note_on,0,0,1,,,,,,,,,0,,,65,0
96840,note_on,120,0,2,,,,,,,,,0,,,41,0
96840,note_on,0,0,1,,,,,,,,,0,,,68,0
96840,note_on,120,0,1,,,,,,,,,0,,,72,0
96960,note_on,120,0,1,,,,,,,,,0,,,65,40
96960,note_on,0,0,1,,,,,,,,,0,,,72,45
96960,note_on,0,0,1,,,,,,,,,0,,,68,40
96960,note_on,120,0,2,,,,,,,,,0,,,29,36
96960,set_tempo,480,1,0,,,,,,265498,,,,,,,
96960,note_on,0,0,2,,,,,,,,,0,,,41,40
97256,control_change,296,0,2,,,,,,,,,0,64,0,,
97440,set_tempo,480,1,0,,,,,,268240,,,,,,,
97440,note_on,0,0,2,,,,,,,,,0,,,41,38
97440,note_on,0,0,2,,,,,,,,,0,,,29,0
97440,note_on,184,0,2,,,,,,,,,0,,,41,0
97440,note_on,480,0,1,,,,,,,,,0,,,72,0
97440,note_on,0,0,1,,,,,,,,,0,,,68,0
97440,note_on,0,0,1,,,,,,,,,0,,,65,0
97440,note_on,0,0,1,,,,,,,,,0,,,60,43
97440,note_on,0,0,1,,,,,,,,,0,,,72,48
97440,note_on,0,0,1,,,,,,,,,0,,,68,43
97540,control_change,100,0,2,,,,,,,,,0,64,127,,
97680,note_on,0,0,1,,,,,,,,,0,,,60,40
97680,note_on,0,0,2,,,,,,,,,0,,,41,38
97680,note_on,0,0,1,,,,,,,,,0,,,72,45
97680,note_on,0,0,1,,,,,,,,,0,,,68,40
97680,note_on,0,0,1,,,,,,,,,0,,,60,0
97680,note_on,0,0,1,,,,,,,,,0,,,68,0
97680,note_on,240,0,1,,,,,,,,,0,,,72,0
97680,note_on,140,0,2,,,,,,,,,0,,,41,0
97920,note_on,0,0,1,,,,,,,,,0,,,68,0
97920,set_tempo,480,1,0,,,,,,265498,,,,,,,
97920,note_on,0,0,2,,,,,,,,,0,,,41,40
97920,note_on,0,0,2,,,,,,,,,0,,,29,36
97920,note_on,240,0,2,,,,,,,,,0,,,41,0
97920,note_on,240,0,1,,,,,,,,,0,,,72,0
97920,note_on,0,0,1,,,,,,,,,0,,,60,0
97920,note_on,0,0,1,,,,,,,,,0,,,73,45
97920,note_on,0,0,1,,,,,,,,,0,,,70,40
97920,note_on,0,0,1,,,,,,,,,0,,,65,40
98216,control_change,296,0,2,,,,,,,,,0,64,0,,
98400,note_on,0,0,1,,,,,,,,,0,,,70,43
98400,note_on,0,0,1,,,,,,,,,0,,,61,43
98400,note_on,0,0,1,,,,,,,,,0,,,73,0
98400,note_on,0,0,1,,,,,,,,,0,,,70,0
98400,note_on,480,0,1,,,,,,,,,0,,,65,0
98400,note_on,0,0,2,,,,,,,,,0,,,41,38
98400,note_on,0,0,1,,,,,,,,,0,,,73,48
98400,note_on,184,0,2,,,,,,,,,0,,,41,0
98400,set_tempo,480,1,0,,,,,,267547,,,,,,,
98400,note_on,0,0,2,,,,,,,,,0,,,29,0
98500,control_change,100,0,2,,,,,,,,,0,64,127,,
98640,note_on,240,0,1,,,,,,,,,0,,,73,0
98640,note_on,0,0,1,,,,,,,,,0,,,73,45
98640,note_on,0,0,1,,,,,,,,,0,,,61,0
98640,note_on,0,0,1,,,,,,,,,0,,,61,40
98640,note_on,0,0,1,,,,,,,,,0,,,70,40
98640,note_on,0,0,1,,,,,,,,,0,,,70,0
98640,note_on,140,0,2,,,,,,,,,0,,,41,0
98640,note_on,0,0,2,,,,,,,,,0,,,41,38
98880,set_tempo,480,1,0,,,,,,265498,,,,,,,
98880,note_on,240,0,1,,,,,,,,,0,,,73,0
98880,note_on,0,0,1,,,,,,,,,0,,,70,0
98880,note_on,0,0,1,,,,,,,,,0,,,61,0
98880,note_on,0,0,1,,,,,,,,,0,,,65,40
98880,note_on,0,0,1,,,,,,,,,0,,,68,40
98880,note_on,0,0,1,,,,,,,,,0,,,72,45
98880,note_on,240,0,2,,,,,,,,,0,,,41,0
98880,note_on,0,0,2,,,,,,,,,0,,,29,36
98880,note_on,0,0,2,,,,,,,,,0,,,41,40
99360,note_on,0,0,1,,,,,,,,,0,,,68,0
99360,note_on,0,0,1,,,,,,,,,0,,,68,40
99360,note_on,0,0,1,,,,,,,,,0,,,60,40
99360,note_on,0,0,1,,,,,,,,,0,,,65,0
99360,note_on,0,0,1,,,,,,,,,0,,,72,45
99360,set_tempo,480,1,0,,,,,,271764,,,,,,,
99360,note_on,480,0,1,,,,,,,,,0,,,72,0
99360,note_on,480,0,2,,,,,,,,,0,,,41,0
99360,note_on,0,0,2,,,,,,,,,0,,,41,38
99360,note_on,0,0,2,,,,,,,,,0,,,29,0
99600,note_on,0,0,2,,,,,,,,,0,,,41,38
99600,note_on,240,0,2,,,,,,,,,0,,,41,0
99600,note_on,240,0,1,,,,,,,,,0,,,72,0
99600,note_on,0,0,1,,,,,,,,,0,,,68,0
99600,note_on,0,0,1,,,,,,,,,0,,,60,0
99600,note_on,0,0,1,,,,,,,,,0,,,60,40
99600,note_on,0,0,1,,,,,,,,,0,,,68,40
99600,note_on,0,0,1,,,,,,,,,0,,,72,45
99684,control_change,84,0,2,,,,,,,,,0,64,0,,
99840,note_on,240,0,1,,,,,,,,,0,,,72,0
99840,note_on,0,0,2,,,,,,,,,0,,,58,47
99840,note_on,156,0,2,,,,,,,,,0,,,41,0
99840,note_on,0,0,1,,,,,,,,,0,,,68,0
99840,set_tempo,480,1,0,,,,,,265498,,,,,,,
99840,note_on,0,0,1,,,,,,,,,0,,,76,55
99840,note_on,0,0,1,,,,,,,,,0,,,73,49
99840,note_on,0,0,1,,,,,,,,,0,,,70,49
99840,note_on,0,0,1,,,,,,,,,0,,,60,0
99928,control_change,88,0,2,,,,,,,,,0,64,127,,
100320,set_tempo,480,1,0,,,,,,267547,,,,,,,
100320,note_on,480,0,1,,,,,,,,,0,,,70,0
100320,note_on,0,0,1,,,,,,,,,0,,,73,0
100320,note_on,0,0,1,,,,,,,,,0,,,76,0
100320,note_on,0,0,1,,,,,,,,,0,,,76,52
100320,note_on,0,0,1,,,,,,,,,0,,,73,46
100320,note_on,0,0,1,,,,,,,,,0,,,67,46
100320,note_on,0,0,2,,,,,,,,,0,,,55,44
100320,note_on,392,0,2,,,,,,,,,0,,,58,0
100560,note_on,0,0,2,,,,,,,,,0,,,55,44
100560,note_on,240,0,1,,,,,,,,,0,,,67,0
100560,note_on,0,0,1,,,,,,,,,0,,,73,46
100560,note_on,0,0,1,,,,,,,,,0,,,76,0
100560,note_on,0,0,1,,,,,,,,,0,,,73,0
100560,note_on,0,0,1,,,,,,,,,0,,,67,46
100560,note_on,0,0,1,,,,,,,,,0,,,76,52
100560,note_on,240,0,2,,,,,,,,,0,,,55,0
100668,control_change,108,0,2,,,,,,,,,0,64,0,,
100800,note_on,0,0,1,,,,,,,,,0,,,72,54
100800,note_on,0,0,1,,,,,,,,,0,,,76,0
100800,note_on,0,0,1,,,,,,,,,0,,,73,0
100800,note_on,0,0,1,,,,,,,,,0,,,68,54
100800,note_on,240,0,1,,,,,,,,,0,,,67,0
100800,note_on,0,0,1,,,,,,,,,0,,,77,61
100800,set_tempo,480,1,0,,,,,,265498,,,,,,,
100800,note_on,132,0,2,,,,,,,,,0,,,55,0
100800,note_on,0,0,2,,,,,,,,,0,,,56,53
100899,control_change,99,0,2,,,,,,,,,0,64,127,,
101280,set_tempo,480,1,0,,,,,,268240,,,,,,,
101280,note_on,0,0,1,,,,,,,,,0,,,77,58
101280,note_on,0,0,2,,,,,,,,,0,,,53,51
101280,note_on,381,0,2,,,,,,,,,0,,,56,0
101280,note_on,0,0,1,,,,,,,,,0,,,68,0
101280,note_on,480,0,1,,,,,,,,,0,,,77,0
101280,note_on,0,0,1,,,,,,,,,0,,,72,0
101280,note_on,0,0,1,,,,,,,,,0,,,72,52
101280,note_on,0,0,1,,,,,,,,,0,,,65,52
101520,note_on,0,0,1,,,,,,,,,0,,,72,0
101520,note_on,240,0,1,,,,,,,,,0,,,77,0
101520,note_on,0,0,1,,,,,,,,,0,,,72,52
101520,note_on,0,0,1,,,,,,,,,0,,,65,0
101520,note_on,0,0,1,,,,,,,,,0,,,77,58
101520,note_on,240,0,2,,,,,,,,,0,,,53,0
101520,note_on,0,0,2,,,,,,,,,0,,,53,51
101520,note_on,0,0,1,,,,,,,,,0,,,65,52
101592,control_change,72,0,2,,,,,,,,,0,64,0,,
101760,note_on,240,0,1,,,,,,,,,0,,,77,0
101760,note_on,0,0,1,,,,,,,,,0,,,72,0
101760,note_on,0,0,1,,,,,,,,,0,,,72,60
101760,set_tempo,480,1,0,,,,,,265498,,,,,,,
101760,note_on,168,0,2,,,,,,,,,0,,,53,0
101760,note_on,0,0,1,,,,,,,,,0,,,65,0
101760,note_on,0,0,2,,,,,,,,,0,,,52,57
101760,note_on,0,0,1,,,,,,,,,0,,,79,67
101760,note_on,0,0,1,,,,,,,,,0,,,67,60
101863,control_change,103,0,2,,,,,,,,,0,64,127,,
102240,note_on,0,0,1,,,,,,,,,0,,,72,54
102240,note_on,0,0,1,,,,,,,,,0,,,76,60
102240,set_tempo,480,1,0,,,,,,268240,,,,,,,
102240,note_on,0,0,1,,,,,,,,,0,,,79,0
102240,note_on,480,0,1,,,,,,,,,0,,,72,0
102240,note_on,0,0,2,,,,,,,,,0,,,48,50
102240,note_on,0,0,1,,,,,,,,,0,,,67,54
102240,note_on,377,0,2,,,,,,,,,0,,,52,0
102240,note_on,0,0,1,,,,,,,,,0,,,67,0
102480,note_on,0,0,2,,,,,,,,,0,,,48,51
102480,note_on,240,0,2,,,,,,,,,0,,,48,0
102480,note_on,0,0,1,,,,,,,,,0,,,72,0
102480,note_on,0,0,1,,,,,,,,,0,,,76,0
102480,note_on,0,0,1,,,,,,,,,0,,,76,60
102480,note_on,0,0,1,,,,,,,,,0,,,72,54
102480,note_on,0,0,1,,,,,,,,,0,,,67,54
102480,note_on,240,0,1,,,,,,,,,0,,,67,0
102584,control_change,104,0,2,,,,,,,,,0,64,0,,
102720,set_tempo,480,1,0,,,,,,265498,,,,,,,
102720,note_on,0,0,1,,,,,,,,,0,,,76,0
102720,note_on,240,0,1,,,,,,,,,0,,,67,0
102720,note_on,0,0,1,,,,,,,,,0,,,72,0
102720,note_on,136,0,2,,,,,,,,,0,,,48,0
102720,note_on,0,0,2,,,,,,,,,0,,,53,63
102720,note_on,0,0,1,,,,,,,,,0,,,80,73
102720,note_on,0,0,1,,,,,,,,,0,,,72,65
102720,note_on,0,0,1,,,,,,,,,0,,,68,65
102833,control_change,113,0,2,,,,,,,,,0,64,127,,
103200,note_on,480,0,1,,,,,,,,,0,,,80,0
103200,note_on,0,0,1,,,,,,,,,0,,,77,68
103200,note_on,0,0,2,,,,,,,,,0,,,48,56
103200,note_on,367,0,2,,,,,,,,,0,,,53,0
103200,set_tempo,480,1,0,,,,,,267547,,,,,,,
103200,note_on,0,0,1,,,,,,,,,0,,,72,0
103200,note_on,0,0,1,,,,,,,,,0,,,68,0
103200,note_on,0,0,1,,,,,,,,,0,,,68,61
103200,note_on,0,0,1,,,,,,,,,0,,,72,61
103440,note_on,240,0,2,,,,,,,,,0,,,48,0
103440,note_on,0,0,2,,,,,,,,,0,,,48,56
103440,note_on,0,0,1,,,,,,,,,0,,,72,0
103440,note_on,0,0,1,,,,,,,,,0,,,68,0
103440,note_on,0,0,1,,,,,,,,,0,,,68,61
103440,note_on,0,0,1,,,,,,,,,0,,,72,61
103440,note_on,0,0,1,,,,,,,,,0,,,77,68
103440,note_on,240,0,1,,,,,,,,,0,,,77,0
103524,control_change,84,0,2,,,,,,,,,0,64,0,,
103680,note_on,0,0,1,,,,,,,,,0,,,72,75
103680,note_on,240,0,1,,,,,,,,,0,,,77,0
103680,note_on,0,0,1,,,,,,,,,0,,,72,0
103680,note_on,0,0,1,,,,,,,,,0,,,68,0
103680,note_on,0,0,1,,,,,,,,,0,,,82,84
103680,note_on,0,0,2,,,,,,,,,0,,,55,72
103680,set_tempo,480,1,0,,,,,,265498,,,,,,,
103680,note_on,156,0,2,,,,,,,,,0,,,48,0
103793,control_change,113,0,2,,,,,,,,,0,64,127,,
104160,note_on,0,0,1,,,,,,,,,0,,,72,69
104160,set_tempo,480,1,0,,,,,,267547,,,,,,,
104160,note_on,0,0,1,,,,,,,,,0,,,84,77
104160,note_on,0,0,1,,,,,,,,,0,,,82,0
104160,note_on,480,0,1,,,,,,,,,0,,,72,0
104160,note_on,367,0,2,,,,,,,,,0,,,55,0
104160,note_on,0,0,2,,,,,,,,,0,,,48,65
104400,note_on,0,0,1,,,,,,,,,0,,,72,69
104400,note_on,0,0,1,,,,,,,,,0,,,84,77
104400,note_on,0,0,1,,,,,,,,,0,,,84,0
104400,note_on,240,0,1,,,,,,,,,0,,,72,0
104400,note_on,240,0,2,,,,,,,,,0,,,48,0
104400,note_on,0,0,2,,,,,,,,,0,,,48,65
104556,control_change,156,0,2,,,,,,,,,0,64,0,,
104640,note_on,240,0,1,,,,,,,,,0,,,72,0
104640,note_on,0,0,1,,,,,,,,,0,,,84,0
104640,note_on,0,0,2,,,,,,,,,0,,,56,76
104640,note_on,84,0,2,,,,,,,,,0,,,48,0
104640,note_on,0,0,1,,,,,,,,,0,,,83,89
104640,note_on,0,0,1,,,,,,,,,0,,,72,80
104640,set_tempo,480,1,0,,,,,,265498,,,,,,,
105036,control_change,396,0,2,,,,,,,,,0,64,127,,
105120,set_tempo,480,1,0,,,,,,267547,,,,,,,
105120,note_on,0,0,2,,,,,,,,,0,,,48,72
105120,note_on,84,0,2,,,,,,,,,0,,,56,0
105120,note_on,480,0,1,,,,,,,,,0,,,72,0
105120,note_on,0,0,1,,,,,,,,,0,,,72,76
105120,note_on,0,0,1,,,,,,,,,0,,,84,85
105120,note_on,0,0,1,,,,,,,,,0,,,83,0
105360,note_on,0,0,1,,,,,,,,,0,,,84,0
105360,note_on,0,0,1,,,,,,,,,0,,,84,85
105360,note_on,0,0,1,,,,,,,,,0,,,72,76
105360,note_on,240,0,2,,,,,,,,,0,,,48,0
105360,note_on,0,0,2,,,,,,,,,0,,,48,72
105360,note_on,240,0,1,,,,,,,,,0,,,72,0
105600,note_on,240,0,2,,,,,,,,,0,,,48,0
105600,note_on,0,0,1,,,,,,,,,0,,,84,0
105600,note_on,0,0,2,,,,,,,,,0,,,56,82
105600,note_on,0,0,1,,,,,,,,,0,,,72,87
105600,note_on,0,0,1,,,,,,,,,0,,,84,97
105600,note_on,240,0,1,,,,,,,,,0,,,72,0
105600,set_tempo,480,1,0,,,,,,280597,,,,,,,
105788,control_change,188,0,2,,,,,,,,,0,64,0,,
106070,note_on,0,0,1,,,,,,,,,0,,,84,0
106070,note_on,470,0,1,,,,,,,,,0,,,72,0
106070,note_on,282,0,2,,,,,,,,,0,,,56,0
106080,note_on,0,0,1,,,,,,,,,0,,,82,87
106080,note_on,10,0,1,,,,,,,,,0,,,85,97
106080,note_on,0,0,1,,,,,,,,,0,,,73,87
106080,set_tempo,480,1,0,,,,,,277598,,,,,,,
106080,note_on,0,0,2,,,,,,,,,0,,,42,73
106080,note_on,0,0,2,,,,,,,,,0,,,54,82
106080,control_change,10,0,2,,,,,,,,,0,64,127,,
106320,note_on,240,0,2,,,,,,,,,0,,,54,0
106320,note_on,0,0,2,,,,,,,,,0,,,42,0
106320,note_on,240,0,1,,,,,,,,,0,,,73,0
106320,note_on,0,0,1,,,,,,,,,0,,,82,0
106320,note_on,0,0,1,,,,,,,,,0,,,85,0
106560,note_on,240,0,2,,,,,,,,,0,,,42,73
106560,note_on,0,0,2,,,,,,,,,0,,,54,82
106560,note_on,240,0,1,,,,,,,,,0,,,85,97
106560,note_on,0,0,1,,,,,,,,,0,,,82,87
106560,note_on,0,0,1,,,,,,,,,0,,,73,87
106800,note_on,0,0,1,,,,,,,,,0,,,82,0
106800,note_on,0,0,1,,,,,,,,,0,,,85,0
106800,note_on,240,0,1,,,,,,,,,0,,,73,0
106800,note_on,240,0,2,,,,,,,,,0,,,54,0
106800,note_on,0,0,2,,,,,,,,,0,,,42,0
107040,note_on,0,0,1,,,,,,,,,0,,,73,87
107040,note_on,0,0,1,,,,,,,,,0,,,82,87
107040,note_on,240,0,1,,,,,,,,,0,,,85,97
107040,note_on,240,0,2,,,,,,,,,0,,,42,73
107040,note_on,0,0,2,,,,,,,,,0,,,54,82
107280,note_on,0,0,1,,,,,,,,,0,,,85,0
107280,note_on,0,0,1,,,,,,,,,0,,,82,0
107280,note_on,240,0,1,,,,,,,,,0,,,73,0
107280,note_on,0,0,2,,,,,,,,,0,,,42,0
107280,note_on,240,0,2,,,,,,,,,0,,,54,0
107520,set_tempo,1440,1,0,,,,,,280597,,,,,,,
107520,note_on,0,0,2,,,,,,,,,0,,,54,82
107520,note_on,240,0,2,,,,,,,,,0,,,42,73
107520,note_on,0,0,1,,,,,,,,,0,,,73,87
107520,note_on,240,0,1,,,,,,,,,0,,,85,97
107520,note_on,0,0,1,,,,,,,,,0,,,82,87
107760,note_on,0,0,1,,,,,,,,,0,,,82,0
107760,note_on,240,0,2,,,,,,,,,0,,,54,0
107760,note_on,0,0,2,,,,,,,,,0,,,42,0
107760,note_on,0,0,1,,,,,,,,,0,,,85,0
107760,note_on,240,0,1,,,,,,,,,0,,,73,0
107872,control_change,112,0,2,,,,,,,,,0,64,0,,
108000,note_on,240,0,1,,,,,,,,,0,,,90,97
108000,set_tempo,480,1,0,,,,,,276116,,,,,,,
108000,note_on,0,0,1,,,,,,,,,0,,,85,87
108000,note_on,0,0,2,,,,,,,,,0,,,58,82
108000,note_on,128,0,2,,,,,,,,,0,,,46,73
108000,note_on,0,0,1,,,,,,,,,0,,,78,87
108028,control_change,28,0,2,,,,,,,,,0,64,127,,
108240,note_on,0,0,2,,,,,,,,,0,,,46,0
108240,note_on,212,0,2,,,,,,,,,0,,,58,0
108240,note_on,0,0,1,,,,,,,,,0,,,90,0
108240,note_on,0,0,1,,,,,,,,,0,,,85,0
108240,note_on,240,0,1,,,,,,,,,0,,,78,0
108480,note_on,0,0,1,,,,,,,,,0,,,78,81
108480,note_on,0,0,1,,,,,,,,,0,,,85,81
108480,note_on,240,0,1,,,,,,,,,0,,,90,90
108480,note_on,240,0,2,,,,,,,,,0,,,61,75
108480,note_on,0,0,2,,,,,,,,,0,,,58,67
108480,note_on,0,0,2,,,,,,,,,0,,,49,67
108960,note_on,0,0,2,,,,,,,,,0,,,58,72
108960,note_on,0,0,1,,,,,,,,,0,,,78,85
108960,note_on,0,0,1,,,,,,,,,0,,,85,85
108960,note_on,0,0,1,,,,,,,,,0,,,90,95
108960,note_on,0,0,1,,,,,,,,,0,,,90,0
108960,note_on,0,0,2,,,,,,,,,0,,,61,80
108960,note_on,0,0,1,,,,,,,,,0,,,85,0
108960,set_tempo,960,1,0,,,,,,278345,,,,,,,
108960,note_on,0,0,2,,,,,,,,,0,,,61,0
108960,note_on,0,0,2,,,,,,,,,0,,,49,72
108960,note_on,0,0,2,,,,,,,,,0,,,58,0
108960,note_on,480,0,1,,,,,,,,,0,,,78,0
108960,note_on,480,0,2,,,,,,,,,0,,,49,0
109200,note_on,0,0,1,,,,,,,,,0,,,78,87
109200,note_on,0,0,1,,,,,,,,,0,,,85,87
109200,note_on,0,0,1,,,,,,,,,0,,,90,97
109200,note_on,0,0,1,,,,,,,,,0,,,90,0
109200,note_on,240,0,1,,,,,,,,,0,,,78,0
109200,note_on,0,0,1,,,,,,,,,0,,,85,0
109200,note_on,240,0,2,,,,,,,,,0,,,61,0
109200,note_on,0,0,2,,,,,,,,,0,,,58,0
109200,note_on,0,0,2,,,,,,,,,0,,,49,0
109200,note_on,0,0,2,,,,,,,,,0,,,49,73
109200,note_on,0,0,2,,,,,,,,,0,,,58,73
109200,note_on,0,0,2,,,,,,,,,0,,,61,82
109312,control_change,112,0,2,,,,,,,,,0,64,0,,
109440,note_on,128,0,2,,,,,,,,,0,,,61,0
109440,note_on,0,0,1,,,,,,,,,0,,,90,0
109440,note_on,0,0,1,,,,,,,,,0,,,92,99
109440,note_on,0,0,1,,,,,,,,,0,,,89,89
109440,note_on,0,0,1,,,,,,,,,0,,,80,89
109440,note_on,0,0,2,,,,,,,,,0,,,59,75
109440,note_on,0,0,2,,,,,,,,,0,,,49,0
109440,note_on,0,0,2,,,,,,,,,0,,,61,84
109440,note_on,0,0,2,,,,,,,,,0,,,49,75
109440,note_on,0,0,1,,,,,,,,,0,,,85,0
109440,set_tempo,480,1,0,,,,,,275381,,,,,,,
109440,note_on,0,0,2,,,,,,,,,0,,,58,0
109440,note_on,240,0,1,,,,,,,,,0,,,78,0
109541,control_change,101,0,2,,,,,,,,,0,64,127,,
109920,set_tempo,480,1,0,,,,,,279838,,,,,,,
109920,note_on,0,0,2,,,,,,,,,0,,,49,0
109920,note_on,0,0,2,,,,,,,,,0,,,59,72
109920,note_on,0,0,2,,,,,,,,,0,,,61,80
109920,note_on,379,0,2,,,,,,,,,0,,,59,0
109920,note_on,0,0,2,,,,,,,,,0,,,61,0
109920,note_on,0,0,2,,,,,,,,,0,,,49,72
109920,note_on,0,0,1,,,,,,,,,0,,,89,0
109920,note_on,0,0,1,,,,,,,,,0,,,92,0
109920,note_on,0,0,1,,,,,,,,,0,,,92,94
109920,note_on,0,0,1,,,,,,,,,0,,,89,84
109920,note_on,0,0,1,,,,,,,,,0,,,80,84
109920,note_on,480,0,1,,,,,,,,,0,,,80,0
110160,note_on,0,0,2,,,,,,,,,0,,,61,78
110160,note_on,0,0,2,,,,,,,,,0,,,59,70
110160,note_on,0,0,2,,,,,,,,,0,,,59,0
110160,note_on,0,0,2,,,,,,,,,0,,,61,0
110160,note_on,240,0,2,,,,,,,,,0,,,49,0
110160,note_on,0,0,2,,,,,,,,,0,,,49,70
110160,note_on,240,0,1,,,,,,,,,0,,,80,0
110160,note_on,0,0,1,,,,,,,,,0,,,89,0
110160,note_on,0,0,1,,,,,,,,,0,,,92,0
110160,note_on,0,0,1,,,,,,,,,0,,,92,91
110160,note_on,0,0,1,,,,,,,,,0,,,89,81
110160,note_on,0,0,1,,,,,,,,,0,,,80,81
110260,control_change,100,0,2,,,,,,,,,0,64,0,,
110400,note_on,0,0,1,,,,,,,,,0,,,89,0
110400,set_tempo,480,1,0,,,,,,275381,,,,,,,
110400,note_on,0,0,2,,,,,,,,,0,,,61,75
110400,note_on,240,0,1,,,,,,,,,0,,,80,0
110400,note_on,0,0,2,,,,,,,,,0,,,54,67
110400,note_on,0,0,2,,,,,,,,,0,,,59,0
110400,note_on,0,0,2,,,,,,,,,0,,,61,0
110400,note_on,140,0,2,,,,,,,,,0,,,49,0
110400,note_on,0,0,2,,,,,,,,,0,,,58,67
110400,note_on,0,0,1,,,,,,,,,0,,,92,0
110400,note_on,0,0,1,,,,,,,,,0,,,90,89
110400,note_on,0,0,1,,,,,,,,,0,,,78,80
110474,control_change,74,0,2,,,,,,,,,0,64,127,,
110640,note_on,0,0,1,,,,,,,,,0,,,90,0
110640,note_on,0,0,2,,,,,,,,,0,,,54,0
110640,note_on,0,0,2,,,,,,,,,0,,,58,0
110640,note_on,166,0,2,,,,,,,,,0,,,61,0
110640,note_on,240,0,1,,,,,,,,,0,,,78,0
110880,note_on,0,0,2,,,,,,,,,0,,,49,77
110880,note_on,240,0,1,,,,,,,,,0,,,83,92
110880,note_on,0,0,1,,,,,,,,,0,,,80,82
110880,note_on,0,0,1,,,,,,,,,0,,,77,82
110880,note_on,0,0,1,,,,,,,,,0,,,71,82
110880,set_tempo,480,1,0,,,,,,284455,,,,,,,
110880,note_on,240,0,2,,,,,,,,,0,,,37,69
111120,note_on,0,0,2,,,,,,,,,0,,,37,0
111120,note_on,240,0,2,,,,,,,,,0,,,49,0
111120,note_on,0,0,1,,,,,,,,,0,,,80,0
111120,note_on,0,0,1,,,,,,,,,0,,,83,0
111120,note_on,240,0,1,,,,,,,,,0,,,71,0
111120,note_on,0,0,1,,,,,,,,,0,,,77,0
111360,note_on,240,0,1,,,,,,,,,0,,,84,92
111360,note_on,0,0,1,,,,,,,,,0,,,80,82
111360,note_on,0,0,1,,,,,,,,,0,,,77,82
111360,note_on,0,0,1,,,,,,,,,0,,,72,82
111360,set_tempo,480,1,0,,,,,,294146,,,,,,,
111360,note_on,0,0,2,,,,,,,,,0,,,48,77
111360,note_on,0,0,2,,,,,,,,,0,,,36,69
111360,control_change,240,0,2,,,,,,,,,0,64,0,,
111588,control_change,228,0,2,,,,,,,,,0,64,127,,
111600,note_on,0,0,2,,,,,,,,,0,,,36,0
111600,note_on,12,0,2,,,,,,,,,0,,,48,0
111600,note_on,240,0,1,,,,,,,,,0,,,72,0
111600,note_on,0,0,1,,,,,,,,,0,,,77,0
111600,note_on,0,0,1,,,,,,,,,0,,,80,0
111600,note_on,0,0,1,,,,,,,,,0,,,84,0
111840,note_on,240,0,2,,,,,,,,,0,,,36,69
111840,note_on,0,0,1,,,,,,,,,0,,,76,82
111840,note_on,0,0,1,,,,,,,,,0,,,79,82
111840,note_on,0,0,2,,,,,,,,,0,,,48,77
111840,note_on,0,0,1,,,,,,,,,0,,,72,82
111840,set_tempo,480,1,0,,,,,,302755,,,,,,,
111840,note_on,240,0,1,,,,,,,,,0,,,84,92
112080,note_on,240,0,1,,,,,,,,,0,,,72,0
112080,note_on,0,0,1,,,,,,,,,0,,,79,0
112080,note_on,0,0,1,,,,,,,,,0,,,84,0
112080,note_on,0,0,1,,,,,,,,,0,,,76,0
112080,note_on,0,0,2,,,,,,,,,0,,,36,0
112080,note_on,240,0,2,,,,,,,,,0,,,48,0
112200,control_change,120,0,2,,,,,,,,,0,64,0,,
112320,note_on,0,0,2,,,,,,,,,0,,,53,78
112320,note_on,0,0,1,,,,,,,,,0,,,77,92
112320,note_on,240,0,1,,,,,,,,,0,,,65,82
112320,note_on,120,0,2,,,,,,,,,0,,,41,70
112800,note_on,480,0,2,,,,,,,,,0,,,53,0
112800,note_on,0,0,2,,,,,,,,,0,,,53,40
112800,note_on,0,0,2,,,,,,,,,0,,,41,0
112800,set_tempo,960,1,0,,,,,,265498,,,,,,,
112800,note_on,480,0,1,,,,,,,,,0,,,77,0
112800,note_on,0,0,1,,,,,,,,,0,,,65,0
112800,note_on,0,0,1,,,,,,,,,0,,,65,48
113040,note_on,0,0,2,,,,,,,,,0,,,55,40
113040,note_on,240,0,1,,,,,,,,,0,,,65,0
113040,note_on,240,0,2,,,,,,,,,0,,,53,0
113040,note_on,0,0,1,,,,,,,,,0,,,67,48
113280,note_on,240,0,1,,,,,,,,,0,,,67,0
113280,note_on,0,0,1,,,,,,,,,0,,,69,48
113280,note_on,240,0,2,,,,,,,,,0,,,55,0
113280,note_on,0,0,2,,,,,,,,,0,,,57,40
113760,note_on,0,0,1,,,,,,,,,0,,,70,48
113760,note_on,480,0,1,,,,,,,,,0,,,69,0
113760,note_on,0,0,2,,,,,,,,,0,,,58,40
113760,note_on,480,0,2,,,,,,,,,0,,,57,0
113880,note_on,120,0,2,,,,,,,,,0,,,58,0
113880,note_on,120,0,1,,,,,,,,,0,,,70,0
114000,note_on,120,0,2,,,,,,,,,0,,,60,40
114000,note_on,120,0,1,,,,,,,,,0,,,72,48
114120,note_on,120,0,2,,,,,,,,,0,,,60,0
114120,note_on,120,0,1,,,,,,,,,0,,,72,0
114240,note_on,0,0,2,,,,,,,,,0,,,57,36
114240,key_signature,1440,1,0,,,,,F,,,,,,,,
114240,set_tempo,0,1,0,,,,,,265498,,,,,,,
114240,note_on,0,0,1,,,,,,,,,0,,,74,48
114240,control_change,0,0,2,,,,,,,,,0,64,127,,
114240,note_on,120,0,1,,,,,,,,,0,,,72,43
114240,note_on,0,0,2,,,,,,,,,0,,,60,40
114240,note_on,120,0,2,,,,,,,,,0,,,48,36
114720,note_on,0,0,2,,,,,,,,,0,,,55,35
114720,note_on,0,0,2,,,,,,,,,0,,,60,39
114720,set_tempo,480,1,0,,,,,,267547,,,,,,,
114720,note_on,0,0,2,,,,,,,,,0,,,48,0
114720,note_on,0,0,1,,,,,,,,,0,,,76,45
114720,note_on,0,0,1,,,,,,,,,0,,,70,40
114720,note_on,0,0,1,,,,,,,,,0,,,72,0
114720,note_on,480,0,1,,,,,,,,,0,,,74,0
114720,note_on,480,0,2,,,,,,,,,0,,,60,0
114720,note_on,0,0,2,,,,,,,,,0,,,57,0
114720,note_on,0,0,2,,,,,,,,,0,,,48,35
114960,note_on,0,0,1,,,,,,,,,0,,,76,45
114960,note_on,0,0,1,,,,,,,,,0,,,70,40
114960,note_on,0,0,1,,,,,,,,,0,,,70,0
114960,note_on,0,0,2,,,,,,,,,0,,,60,39
114960,note_on,0,0,2,,,,,,,,,0,,,48,35
114960,note_on,0,0,2,,,,,,,,,0,,,55,35
114960,note_on,0,0,2,,,,,,,,,0,,,55,0
114960,note_on,240,0,2,,,,,,,,,0,,,60,0
114960,note_on,240,0,1,,,,,,,,,0,,,76,0
114960,note_on,0,0,2,,,,,,,,,0,,,48,0
115108,control_change,148,0,2,,,,,,,,,0,64,0,,
115200,note_on,92,0,2,,,,,,,,,0,,,60,0
115200,note_on,0,0,2,,,,,,,,,0,,,55,0
115200,note_on,0,0,2,,,,,,,,,0,,,48,0
115200,note_on,0,0,2,,,,,,,,,0,,,48,36
115200,note_on,0,0,2,,,,,,,,,0,,,55,36
115200,note_on,0,0,2,,,,,,,,,0,,,60,40
115200,note_on,0,0,1,,,,,,,,,0,,,76,48
115200,note_on,0,0,1,,,,,,,,,0,,,70,43
115200,note_on,0,0,1,,,,,,,,,0,,,70,0
115200,note_on,240,0,1,,,,,,,,,0,,,76,0
115200,set_tempo,480,1,0,,,,,,265498,,,,,,,
115256,control_change,56,0,2,,,,,,,,,0,64,127,,
115680,note_on,0,0,2,,,,,,,,,0,,,48,0
115680,note_on,0,0,1,,,,,,,,,0,,,77,45
115680,note_on,0,0,1,,,,,,,,,0,,,69,40
115680,note_on,0,0,1,,,,,,,,,0,,,70,0
115680,set_tempo,480,1,0,,,,,,267547,,,,,,,
115680,note_on,0,0,2,,,,,,,,,0,,,60,38
115680,note_on,0,0,2,,,,,,,,,0,,,53,34
115680,note_on,0,0,2,,,,,,,,,0,,,48,34
115680,note_on,480,0,1,,,,,,,,,0,,,76,0
115680,note_on,0,0,2,,,,,,,,,0,,,55,0
115680,note_on,424,0,2,,,,,,,,,0,,,60,0
115920,note_on,0,0,2,,,,,,,,,0,,,48,0
115920,note_on,0,0,2,,,,,,,,,0,,,60,38
115920,note_on,0,0,2,,,,,,,,,0,,,53,34
115920,note_on,0,0,2,,,,,,,,,0,,,48,34
115920,note_on,240,0,2,,,,,,,,,0,,,60,0
115920,note_on,0,0,2,,,,,,,,,0,,,53,0
115920,note_on,240,0,1,,,,,,,,,0,,,77,0
115920,note_on,0,0,1,,,,,,,,,0,,,77,45
115920,note_on,0,0,1,,,,,,,,,0,,,69,40
115920,note_on,0,0,1,,,,,,,,,0,,,69,0
115964,control_change,44,0,2,,,,,,,,,0,64,0,,
116160,note_on,0,0,1,,,,,,,,,0,,,69,43
116160,note_on,0,0,1,,,,,,,,,0,,,72,48
116160,note_on,0,0,1,,,,,,,,,0,,,69,0
116160,note_on,240,0,1,,,,,,,,,0,,,77,0
116160,set_tempo,480,1,0,,,,,,265498,,,,,,,
116160,note_on,196,0,2,,,,,,,,,0,,,60,0
116160,note_on,0,0,2,,,,,,,,,0,,,53,0
116160,note_on,0,0,2,,,,,,,,,0,,,48,0
116160,note_on,0,0,2,,,,,,,,,0,,,48,36
116160,note_on,0,0,2,,,,,,,,,0,,,50,36
116160,note_on,0,0,2,,,,,,,,,0,,,60,40
116245,control_change,85,0,2,,,,,,,,,0,64,127,,
116640,note_on,0,0,2,,,,,,,,,0,,,50,0
116640,note_on,0,0,1,,,,,,,,,0,,,67,40
116640,note_on,0,0,1,,,,,,,,,0,,,70,45
116640,set_tempo,480,1,0,,,,,,271052,,,,,,,
116640,note_on,395,0,2,,,,,,,,,0,,,60,0
116640,note_on,480,0,1,,,,,,,,,0,,,72,0
116640,note_on,0,0,2,,,,,,,,,0,,,48,0
116640,note_on,0,0,2,,,,,,,,,0,,,52,34
116640,note_on,0,0,2,,,,,,,,,0,,,48,34
116640,note_on,0,0,2,,,,,,,,,0,,,60,38
116640,note_on,0,0,1,,,,,,,,,0,,,69,0
116880,note_on,0,0,2,,,,,,,,,0,,,52,34
116880,note_on,0,0,2,,,,,,,,,0,,,52,0
116880,note_on,0,0,2,,,,,,,,,0,,,48,0
116880,note_on,240,0,2,,,,,,,,,0,,,60,0
116880,note_on,0,0,2,,,,,,,,,0,,,60,38
116880,note_on,240,0,1,,,,,,,,,0,,,70,0
116880,note_on,0,0,1,,,,,,,,,0,,,67,0
116880,note_on,0,0,1,,,,,,,,,0,,,67,40
116880,note_on,0,0,1,,,,,,,,,0,,,70,45
116880,note_on,0,0,2,,,,,,,,,0,,,48,34
116964,control_change,84,0,2,,,,,,,,,0,64,0,,
117120,set_tempo,480,1,0,,,,,,268240,,,,,,,
117120,note_on,240,0,1,,,,,,,,,0,,,70,0
117120,note_on,0,0,1,,,,,,,,,0,,,67,0
117120,note_on,0,0,1,,,,,,,,,0,,,69,80
117120,note_on,0,0,1,,,,,,,,,0,,,72,80
117120,note_on,0,0,1,,,,,,,,,0,,,81,89
117120,note_on,0,0,2,,,,,,,,,0,,,53,76
117120,note_on,0,0,2,,,,,,,,,0,,,41,68
117120,note_on,0,0,2,,,,,,,,,0,,,52,0
117120,note_on,0,0,2,,,,,,,,,0,,,48,0
117120,note_on,156,0,2,,,,,,,,,0,,,60,0
117219,control_change,99,0,2,,,,,,,,,0,64,127,,
117480,note_on,0,0,1,,,,,,,,,0,,,72,0
117480,note_on,360,0,1,,,,,,,,,0,,,81,0
117480,note_on,261,0,2,,,,,,,,,0,,,53,0
117480,note_on,0,0,2,,,,,,,,,0,,,41,0
117480,note_on,0,0,1,,,,,,,,,0,,,69,0
117600,note_on,0,0,1,,,,,,,,,0,,,72,80
117600,note_on,0,0,1,,,,,,,,,0,,,77,89
117600,note_on,120,0,1,,,,,,,,,0,,,69,80
117600,note_on,120,0,2,,,,,,,,,0,,,53,68
117600,note_on,0,0,2,,,,,,,,,0,,,60,76
117860,set_tempo,740,1,0,,,,,,272480,,,,,,,
117960,note_on,0,0,1,,,,,,,,,0,,,69,0
117960,note_on,360,0,2,,,,,,,,,0,,,60,0
117960,note_on,0,0,2,,,,,,,,,0,,,53,0
117960,note_on,0,0,1,,,,,,,,,0,,,72,0
117960,note_on,360,0,1,,,,,,,,,0,,,77,0
117968,control_change,8,0,2,,,,,,,,,0,64,0,,
118080,set_tempo,220,1,0,,,,,,265498,,,,,,,
118080,note_on,120,0,1,,,,,,,,,0,,,72,48
118080,note_on,112,0,2,,,,,,,,,0,,,48,36
118080,note_on,0,0,2,,,,,,,,,0,,,60,40
118080,note_on,0,0,2,,,,,,,,,0,,,57,36
118156,control_change,76,0,2,,,,,,,,,0,64,127,,
118560,note_on,0,0,2,,,,,,,,,0,,,57,35
118560,note_on,0,0,2,,,,,,,,,0,,,57,0
118560,note_on,0,0,2,,,,,,,,,0,,,48,0
118560,note_on,0,0,2,,,,,,,,,0,,,48,35
118560,note_on,0,0,2,,,,,,,,,0,,,60,39
118560,note_on,404,0,2,,,,,,,,,0,,,60,0
118560,set_tempo,480,1,0,,,,,,267547,,,,,,,
118560,note_on,0,0,1,,,,,,,,,0,,,72,40
118560,note_on,480,0,1,,,,,,,,,0,,,72,0
118560,note_on,0,0,1,,,,,,,,,0,,,74,45
118800,note_on,240,0,1,,,,,,,,,0,,,74,0
118800,note_on,0,0,1,,,,,,,,,0,,,72,0
118800,note_on,0,0,1,,,,,,,,,0,,,72,40
118800,note_on,0,0,1,,,,,,,,,0,,,74,45
118800,note_on,240,0,2,,,,,,,,,0,,,60,0
118800,note_on,0,0,2,,,,,,,,,0,,,60,39
118800,note_on,0,0,2,,,,,,,,,0,,,57,35
118800,note_on,0,0,2,,,,,,,,,0,,,48,35
118800,note_on,0,0,2,,,,,,,,,0,,,57,0
118800,note_on,0,0,2,,,,,,,,,0,,,48,0
118948,control_change,148,0,2,,,,,,,,,0,64,0,,
119040,note_on,240,0,1,,,,,,,,,0,,,74,0
119040,set_tempo,480,1,0,,,,,,265498,,,,,,,
119040,note_on,0,0,2,,,,,,,,,0,,,55,36
119040,note_on,0,0,1,,,,,,,,,0,,,72,0
119040,note_on,0,0,2,,,,,,,,,0,,,48,36
119040,note_on,0,0,2,,,,,,,,,0,,,48,0
119040,note_on,0,0,2,,,,,,,,,0,,,57,0
119040,note_on,0,0,2,,,,,,,,,0,,,60,40
119040,note_on,0,0,1,,,,,,,,,0,,,70,43
119040,note_on,0,0,1,,,,,,,,,0,,,76,48
119040,note_on,92,0,2,,,,,,,,,0,,,60,0
119139,control_change,99,0,2,,,,,,,,,0,64,127,,
119520,note_on,0,0,1,,,,,,,,,0,,,69,40
119520,note_on,480,0,1,,,,,,,,,0,,,76,0
119520,note_on,0,0,2,,,,,,,,,0,,,60,38
119520,note_on,0,0,2,,,,,,,,,0,,,53,34
119520,note_on,0,0,2,,,,,,,,,0,,,48,34
119520,note_on,0,0,1,,,,,,,,,0,,,70,0
119520,set_tempo,480,1,0,,,,,,267547,,,,,,,
119520,note_on,0,0,2,,,,,,,,,0,,,48,0
119520,note_on,0,0,2,,,,,,,,,0,,,55,0
119520,note_on,381,0,2,,,,,,,,,0,,,60,0
119520,note_on,0,0,1,,,,,,,,,0,,,77,45
119760,note_on,0,0,2,,,,,,,,,0,,,53,0
119760,note_on,0,0,2,,,,,,,,,0,,,48,34
119760,note_on,0,0,2,,,,,,,,,0,,,53,34
119760,note_on,0,0,2,,,,,,,,,0,,,60,38
119760,note_on,0,0,1,,,,,,,,,0,,,77,45
119760,note_on,0,0,1,,,,,,,,,0,,,69,40
119760,note_on,0,0,1,,,,,,,,,0,,,69,0
119760,note_on,240,0,1,,,,,,,,,0,,,77,0
119760,note_on,240,0,2,,,,,,,,,0,,,60,0
119760,note_on,0,0,2,,,,,,,,,0,,,48,0
119804,control_change,44,0,2,,,,,,,,,0,64,0,,
120000,note_on,196,0,2,,,,,,,,,0,,,60,0
120000,note_on,0,0,2,,,,,,,,,0,,,53,0
120000,note_on,0,0,2,,,,,,,,,0,,,48,36
120000,note_on,0,0,1,,,,,,,,,0,,,69,43
120000,note_on,0,0,2,,,,,,,,,0,,,48,0
120000,note_on,240,0,1,,,,,,,,,0,,,77,0
120000,note_on,0,0,1,,,,,,,,,0,,,69,0
120000,set_tempo,480,1,0,,,,,,265498,,,,,,,
120000,note_on,0,0,2,,,,,,,,,0,,,50,36
120000,note_on,0,0,1,,,,,,,,,0,,,72,48
120000,note_on,0,0,2,,,,,,,,,0,,,60,40
120113,control_change,113,0,2,,,,,,,,,0,64,127,,
120480,note_on,480,0,1,,,,,,,,,0,,,72,0
120480,note_on,0,0,1,,,,,,,,,0,,,67,40
120480,note_on,0,0,1,,,,,,,,,0,,,69,0
120480,note_on,0,0,2,,,,,,,,,0,,,50,0
120480,note_on,0,0,2,,,,,,,,,0,,,48,34
120480,set_tempo,480,1,0,,,,,,271052,,,,,,,
120480,note_on,0,0,2,,,,,,,,,0,,,52,34
120480,note_on,367,0,2,,,,,,,,,0,,,60,0
120480,note_on,0,0,2,,,,,,,,,0,,,48,0
120480,note_on,0,0,1,,,,,,,,,0,,,70,45
120480,note_on,0,0,2,,,,,,,,,0,,,60,38
120720,note_on,0,0,1,,,,,,,,,0,,,67,0
120720,note_on,240,0,1,,,,,,,,,0,,,70,0
120720,note_on,240,0,2,,,,,,,,,0,,,60,0
120720,note_on,0,0,2,,,,,,,,,0,,,48,0
120720,note_on,0,0,2,,,,,,,,,0,,,52,0
120720,note_on,0,0,1,,,,,,,,,0,,,70,45
120720,note_on,0,0,1,,,,,,,,,0,,,67,40
120720,note_on,0,0,2,,,,,,,,,0,,,52,34
120720,note_on,0,0,2,,,,,,,,,0,,,48,34
120720,note_on,0,0,2,,,,,,,,,0,,,60,38
120804,control_change,84,0,2,,,,,,,,,0,64,0,,
120960,note_on,0,0,2,,,,,,,,,0,,,53,79
120960,set_tempo,480,1,0,,,,,,268240,,,,,,,
120960,note_on,156,0,2,,,,,,,,,0,,,60,0
120960,note_on,0,0,2,,,,,,,,,0,,,48,0
120960,note_on,0,0,2,,,,,,,,,0,,,52,0
120960,note_on,0,0,1,,,,,,,,,0,,,67,0
120960,note_on,0,0,1,,,,,,,,,0,,,69,84
120960,note_on,0,0,1,,,,,,,,,0,,,72,84
120960,note_on,0,0,1,,,,,,,,,0,,,81,94
120960,note_on,0,0,2,,,,,,,,,0,,,41,71
120960,note_on,240,0,1,,,,,,,,,0,,,70,0
121038,control_change,78,0,2,,,,,,,,,0,64,127,,
121320,note_on,360,0,1,,,,,,,,,0,,,81,0
121320,note_on,0,0,2,,,,,,,,,0,,,41,0
121320,note_on,282,0,2,,,,,,,,,0,,,53,0
121320,note_on,0,0,1,,,,,,,,,0,,,72,0
121320,note_on,0,0,1,,,,,,,,,0,,,69,0
121440,note_on,0,0,2,,,,,,,,,0,,,60,79
121440,note_on,120,0,2,,,,,,,,,0,,,53,71
121440,note_on,0,0,1,,,,,,,,,0,,,77,95
121440,note_on,0,0,1,,,,,,,,,0,,,72,85
121440,note_on,120,0,1,,,,,,,,,0,,,69,85
121700,set_tempo,740,1,0,,,,,,272480,,,,,,,
121800,note_on,360,0,1,,,,,,,,,0,,,77,0
121800,note_on,0,0,1,,,,,,,,,0,,,72,0
121800,note_on,0,0,1,,,,,,,,,0,,,69,0
121800,note_on,0,0,2,,,,,,,,,0,,,53,0
121800,note_on,360,0,2,,,,,,,,,0,,,60,0
121808,control_change,8,0,2,,,,,,,,,0,64,0,,
121920,note_on,0,0,2,,,,,,,,,0,,,60,40
121920,note_on,0,0,2,,,,,,,,,0,,,50,36
121920,set_tempo,220,1,0,,,,,,265498,,,,,,,
121920,note_on,112,0,2,,,,,,,,,0,,,48,36
121920,note_on,120,0,1,,,,,,,,,0,,,69,43
121920,note_on,0,0,1,,,,,,,,,0,,,72,48
121991,control_change,71,0,2,,,,,,,,,0,64,127,,
122400,note_on,0,0,2,,,,,,,,,0,,,52,34
122400,note_on,0,0,2,,,,,,,,,0,,,48,0
122400,note_on,0,0,1,,,,,,,,,0,,,70,45
122400,note_on,0,0,2,,,,,,,,,0,,,50,0
122400,note_on,0,0,2,,,,,,,,,0,,,48,34
122400,note_on,0,0,2,,,,,,,,,0,,,60,38
122400,set_tempo,480,1,0,,,,,,279838,,,,,,,
122400,note_on,409,0,2,,,,,,,,,0,,,60,0
122400,note_on,480,0,1,,,,,,,,,0,,,72,0
122400,note_on,0,0,1,,,,,,,,,0,,,69,0
122400,note_on,0,0,1,,,,,,,,,0,,,67,40
122640,note_on,240,0,2,,,,,,,,,0,,,60,0
122640,note_on,0,0,2,,,,,,,,,0,,,48,0
122640,note_on,0,0,2,,,,,,,,,0,,,52,34
122640,note_on,0,0,2,,,,,,,,,0,,,52,0
122640,note_on,0,0,1,,,,,,,,,0,,,70,45
122640,note_on,0,0,1,,,,,,,,,0,,,67,40
122640,note_on,0,0,1,,,,,,,,,0,,,67,0
122640,note_on,240,0,1,,,,,,,,,0,,,70,0
122640,note_on,0,0,2,,,,,,,,,0,,,48,34
122640,note_on,0,0,2,,,,,,,,,0,,,60,38
122724,control_change,84,0,2,,,,,,,,,0,64,0,,
122880,note_on,0,0,2,,,,,,,,,0,,,52,0
122880,note_on,0,0,2,,,,,,,,,0,,,41,73
122880,set_tempo,480,1,0,,,,,,273923,,,,,,,
122880,note_on,0,0,2,,,,,,,,,0,,,53,82
122880,note_on,156,0,2,,,,,,,,,0,,,60,0
122880,note_on,240,0,1,,,,,,,,,0,,,70,0
122880,note_on,0,0,1,,,,,,,,,0,,,67,0
122880,note_on,0,0,1,,,,,,,,,0,,,69,87
122880,note_on,0,0,1,,,,,,,,,0,,,72,87
122880,note_on,0,0,2,,,,,,,,,0,,,48,0
122880,note_on,0,0,1,,,,,,,,,0,,,81,97
122958,control_change,78,0,2,,,,,,,,,0,64,127,,
123240,note_on,0,0,2,,,,,,,,,0,,,41,0
123240,note_on,0,0,1,,,,,,,,,0,,,69,0
123240,note_on,0,0,1,,,,,,,,,0,,,72,0
123240,note_on,360,0,1,,,,,,,,,0,,,81,0
123240,note_on,282,0,2,,,,,,,,,0,,,53,0
123360,note_on,0,0,2,,,,,,,,,0,,,60,82
123360,note_on,120,0,2,,,,,,,,,0,,,53,73
123360,note_on,120,0,1,,,,,,,,,0,,,69,87
123360,note_on,0,0,1,,,,,,,,,0,,,72,87
123360,note_on,0,0,1,,,,,,,,,0,,,77,97
123620,set_tempo,740,1,0,,,,,,272480,,,,,,,
123720,note_on,0,0,2,,,,,,,,,0,,,53,0
123720,note_on,360,0,2,,,,,,,,,0,,,60,0
123720,note_on,360,0,1,,,,,,,,,0,,,77,0
123720,note_on,0,0,1,,,,,,,,,0,,,72,0
123720,note_on,0,0,1,,,,,,,,,0,,,69,0
123728,control_change,8,0,2,,,,,,,,,0,64,0,,
123840,note_on,0,0,1,,,,,,,,,0,,,72,48
123840,note_on,0,0,2,,,,,,,,,0,,,50,36
123840,note_on,0,0,2,,,,,,,,,0,,,60,40
123840,note_on,120,0,1,,,,,,,,,0,,,69,43
123840,control_change,0,0,2,,,,,,,,,0,64,127,,
123840,set_tempo,220,1,0,,,,,,269639,,,,,,,
123840,note_on,112,0,2,,,,,,,,,0,,,48,36
124320,note_on,0,0,1,,,,,,,,,0,,,67,40
124320,note_on,0,0,1,,,,,,,,,0,,,69,0
124320,note_on,480,0,1,,,,,,,,,0,,,72,0
124320,note_on,0,0,2,,,,,,,,,0,,,60,38
124320,note_on,0,0,2,,,,,,,,,0,,,48,34
124320,note_on,0,0,2,,,,,,,,,0,,,52,34
124320,note_on,0,0,2,,,,,,,,,0,,,50,0
124320,set_tempo,480,1,0,,,,,,296677,,,,,,,
124320,note_on,480,0,2,,,,,,,,,0,,,60,0
124320,note_on,0,0,1,,,,,,,,,0,,,70,45
124320,note_on,0,0,2,,,,,,,,,0,,,48,0
124560,note_on,240,0,1,,,,,,,,,0,,,70,0
124560,note_on,0,0,1,,,,,,,,,0,,,67,0
124560,note_on,0,0,1,,,,,,,,,0,,,67,40
124560,note_on,0,0,1,,,,,,,,,0,,,70,45
124560,note_on,240,0,2,,,,,,,,,0,,,60,0
124560,note_on,0,0,2,,,,,,,,,0,,,48,0
124560,note_on,0,0,2,,,,,,,,,0,,,60,38
124560,note_on,0,0,2,,,,,,,,,0,,,52,0
124560,note_on,0,0,2,,,,,,,,,0,,,52,34
124560,note_on,0,0,2,,,,,,,,,0,,,48,34
124644,control_change,84,0,2,,,,,,,,,0,64,0,,
124800,note_on,0,0,1,,,,,,,,,0,,,81,89
124800,note_on,0,0,1,,,,,,,,,0,,,84,89
124800,note_on,0,0,1,,,,,,,,,0,,,89,99
124800,note_on,240,0,1,,,,,,,,,0,,,70,0
124800,note_on,156,0,2,,,,,,,,,0,,,60,0
124800,note_on,0,0,2,,,,,,,,,0,,,48,0
124800,note_on,0,0,2,,,,,,,,,0,,,52,0
124800,note_on,0,0,1,,,,,,,,,0,,,67,0
124800,note_on,0,0,2,,,,,,,,,0,,,53,84
124800,control_change,0,0,2,,,,,,,,,0,64,127,,
124800,set_tempo,480,1,0,,,,,,286821,,,,,,,
124800,note_on,0,0,1,,,,,,,,,0,,,77,89
124800,note_on,0,0,2,,,,,,,,,0,,,41,75
125280,note_on,480,0,1,,,,,,,,,0,,,89,0
125280,note_on,0,0,1,,,,,,,,,0,,,77,0
125280,note_on,0,0,1,,,,,,,,,0,,,81,0
125280,note_on,0,0,1,,,,,,,,,0,,,84,0
125280,note_on,0,0,1,,,,,,,,,0,,,65,99
125280,note_on,0,0,1,,,,,,,,,0,,,77,99
125280,note_on,0,0,2,,,,,,,,,0,,,53,75
125280,note_on,0,0,2,,,,,,,,,0,,,41,0
125280,note_on,480,0,2,,,,,,,,,0,,,53,0
125540,set_tempo,740,1,0,,,,,,272480,,,,,,,
125648,control_change,368,0,2,,,,,,,,,0,64,0,,
125760,note_on,0,0,1,,,,,,,,,0,,,65,0
125760,note_on,112,0,2,,,,,,,,,0,,,53,0
125760,note_on,480,0,1,,,,,,,,,0,,,77,0
126720,set_tempo,0,1,0,,,,,,265498,,,,,,,
126720,key_signature,1180,1,0,,,,,Ab,,,,,,,,
126720,note_on,0,0,1,,,,,,,,,0,,,72,48
126720,control_change,960,0,2,,,,,,,,,0,64,127,,
126720,note_on,0,0,2,,,,,,,,,0,,,58,36
126720,note_on,0,0,2,,,,,,,,,0,,,60,40
126720,note_on,960,0,1,,,,,,,,,0,,,70,43
127200,note_on,480,0,1,,,,,,,,,0,,,72,0
127200,note_on,0,0,1,,,,,,,,,0,,,70,0
127200,note_on,0,0,1,,,,,,,,,0,,,67,40
127200,note_on,0,0,1,,,,,,,,,0,,,72,45
127200,note_on,480,0,2,,,,,,,,,0,,,60,0
127200,note_on,0,0,2,,,,,,,,,0,,,58,0
127200,set_tempo,480,1,0,,,,,,267547,,,,,,,
127200,note_on,0,0,2,,,,,,,,,0,,,55,35
127200,note_on,0,0,2,,,,,,,,,0,,,60,39
127320,note_on,120,0,2,,,,,,,,,0,,,60,0
127320,note_on,0,0,2,,,,,,,,,0,,,55,0
127320,note_on,0,0,1,,,,,,,,,0,,,67,0
127320,note_on,120,0,1,,,,,,,,,0,,,72,0
127440,note_on,0,0,2,,,,,,,,,0,,,60,39
127440,note_on,0,0,1,,,,,,,,,0,,,72,45
127440,note_on,120,0,1,,,,,,,,,0,,,67,40
127440,note_on,120,0,2,,,,,,,,,0,,,55,35
127560,note_on,0,0,2,,,,,,,,,0,,,55,0
127560,note_on,0,0,1,,,,,,,,,0,,,67,0
127560,note_on,120,0,1,,,,,,,,,0,,,72,0
127560,note_on,120,0,2,,,,,,,,,0,,,60,0
127588,control_change,28,0,2,,,,,,,,,0,64,0,,
127680,note_on,0,0,1,,,,,,,,,0,,,72,48
127680,note_on,120,0,1,,,,,,,,,0,,,68,43
127680,set_tempo,480,1,0,,,,,,265498,,,,,,,
127680,note_on,0,0,2,,,,,,,,,0,,,60,40
127680,note_on,92,0,2,,,,,,,,,0,,,56,36
127765,control_change,85,0,2,,,,,,,,,0,64,127,,
128160,note_on,0,0,2,,,,,,,,,0,,,60,38
128160,note_on,0,0,2,,,,,,,,,0,,,53,34
128160,note_on,0,0,2,,,,,,,,,0,,,56,0
128160,note_on,395,0,2,,,,,,,,,0,,,60,0
128160,note_on,480,0,1,,,,,,,,,0,,,72,0
128160,note_on,0,0,1,,,,,,,,,0,,,68,0
128160,note_on,0,0,1,,,,,,,,,0,,,65,40
128160,set_tempo,480,1,0,,,,,,267547,,,,,,,
128160,note_on,0,0,1,,,,,,,,,0,,,72,45
128400,note_on,240,0,1,,,,,,,,,0,,,72,0
128400,note_on,0,0,1,,,,,,,,,0,,,65,0
128400,note_on,0,0,1,,,,,,,,,0,,,65,40
128400,note_on,0,0,2,,,,,,,,,0,,,60,38
128400,note_on,0,0,1,,,,,,,,,0,,,72,45
128400,note_on,0,0,2,,,,,,,,,0,,,53,34
128400,note_on,0,0,2,,,,,,,,,0,,,53,0
128400,note_on,240,0,2,,,,,,,,,0,,,60,0
128444,control_change,44,0,2,,,,,,,,,0,64,0,,
128640,note_on,0,0,1,,,,,,,,,0,,,65,0
128640,note_on,240,0,1,,,,,,,,,0,,,72,0
128640,note_on,0,0,2,,,,,,,,,0,,,56,40
128640,note_on,196,0,2,,,,,,,,,0,,,60,0
128640,note_on,0,0,2,,,,,,,,,0,,,53,0
128640,note_on,0,0,2,,,,,,,,,0,,,54,36
128640,note_on,0,0,1,,,,,,,,,0,,,66,43
128640,note_on,0,0,1,,,,,,,,,0,,,68,48
128640,set_tempo,480,1,0,,,,,,265498,,,,,,,
128692,control_change,52,0,2,,,,,,,,,0,64,127,,
129120,note_on,428,0,2,,,,,,,,,0,,,56,0
129120,set_tempo,480,1,0,,,,,,271052,,,,,,,
129120,note_on,0,0,2,,,,,,,,,0,,,56,38
129120,note_on,0,0,2,,,,,,,,,0,,,48,34
129120,note_on,0,0,2,,,,,,,,,0,,,54,0
129120,note_on,0,0,1,,,,,,,,,0,,,68,45
129120,note_on,0,0,1,,,,,,,,,0,,,60,40
129120,note_on,0,0,1,,,,,,,,,0,,,66,0
129120,note_on,480,0,1,,,,,,,,,0,,,68,0
129360,note_on,240,0,2,,,,,,,,,0,,,56,0
129360,note_on,0,0,2,,,,,,,,,0,,,56,38
129360,note_on,0,0,2,,,,,,,,,0,,,48,34
129360,note_on,0,0,2,,,,,,,,,0,,,48,0
129360,note_on,0,0,1,,,,,,,,,0,,,68,45
129360,note_on,0,0,1,,,,,,,,,0,,,60,0
129360,note_on,0,0,1,,,,,,,,,0,,,60,40
129360,note_on,240,0,1,,,,,,,,,0,,,68,0
129444,control_change,84,0,2,,,,,,,,,0,64,0,,
129600,note_on,0,0,1,,,,,,,,,0,,,60,0
129600,note_on,0,0,2,,,,,,,,,0,,,49,76
129600,note_on,0,0,2,,,,,,,,,0,,,37,68
129600,note_on,0,0,2,,,,,,,,,0,,,48,0
129600,note_on,156,0,2,,,,,,,,,0,,,56,0
129600,set_tempo,480,1,0,,,,,,268240,,,,,,,
129600,note_on,0,0,1,,,,,,,,,0,,,65,80
129600,note_on,0,0,1,,,,,,,,,0,,,68,80
129600,note_on,240,0,1,,,,,,,,,0,,,68,0
129600,note_on,0,0,1,,,,,,,,,0,,,77,89
129685,control_change,85,0,2,,,,,,,,,0,64,127,,
129960,note_on,360,0,1,,,,,,,,,0,,,77,0
129960,note_on,0,0,1,,,,,,,,,0,,,68,0
129960,note_on,0,0,1,,,,,,,,,0,,,65,0
129960,note_on,275,0,2,,,,,,,,,0,,,49,0
129960,note_on,0,0,2,,,,,,,,,0,,,37,0
130072,note_on,0,0,1,,,,,,,,,0,,,73,89
130072,note_on,112,0,1,,,,,,,,,0,,,65,80
130072,note_on,0,0,1,,,,,,,,,0,,,68,80
130072,note_on,0,0,2,,,,,,,,,0,,,56,76
130072,note_on,112,0,2,,,,,,,,,0,,,49,68
130340,set_tempo,740,1,0,,,,,,272480,,,,,,,
130432,note_on,360,0,2,,,,,,,,,0,,,56,0
130432,note_on,0,0,1,,,,,,,,,0,,,65,0
130432,note_on,0,0,2,,,,,,,,,0,,,49,0
130432,note_on,0,0,1,,,,,,,,,0,,,68,0
130432,note_on,360,0,1,,,,,,,,,0,,,73,0
130448,control_change,16,0,2,,,,,,,,,0,64,0,,
130560,note_on,0,0,1,,,,,,,,,0,,,68,48
130560,note_on,128,0,1,,,,,,,,,0,,,66,43
130560,set_tempo,220,1,0,,,,,,265498,,,,,,,
130560,note_on,0,0,2,,,,,,,,,0,,,56,40
130560,note_on,0,0,2,,,,,,,,,0,,,54,36
130560,control_change,112,0,2,,,,,,,,,0,64,127,,
131040,note_on,480,0,1,,,,,,,,,0,,,68,0
131040,set_tempo,480,1,0,,,,,,271764,,,,,,,
131040,note_on,0,0,1,,,,,,,,,0,,,68,45
131040,note_on,0,0,2,,,,,,,,,0,,,56,38
131040,note_on,0,0,1,,,,,,,,,0,,,66,0
131040,note_on,0,0,2,,,,,,,,,0,,,48,34
131040,note_on,0,0,1,,,,,,,,,0,,,60,40
131040,note_on,480,0,2,,,,,,,,,0,,,56,0
131040,note_on,0,0,2,,,,,,,,,0,,,54,0
131280,note_on,0,0,1,,,,,,,,,0,,,60,0
131280,note_on,0,0,2,,,,,,,,,0,,,48,0
131280,note_on,240,0,2,,,,,,,,,0,,,56,0
131280,note_on,0,0,2,,,,,,,,,0,,,48,34
131280,note_on,0,0,1,,,,,,,,,0,,,68,45
131280,note_on,0,0,2,,,,,,,,,0,,,56,38
131280,note_on,240,0,1,,,,,,,,,0,,,68,0
131280,note_on,0,0,1,,,,,,,,,0,,,60,40
131364,control_change,84,0,2,,,,,,,,,0,64,0,,
131520,note_on,0,0,1,,,,,,,,,0,,,77,89
131520,note_on,0,0,1,,,,,,,,,0,,,68,80
131520,note_on,0,0,1,,,,,,,,,0,,,60,0
131520,note_on,0,0,1,,,,,,,,,0,,,65,80
131520,note_on,0,0,2,,,,,,,,,0,,,37,67
131520,note_on,0,0,2,,,,,,,,,0,,,48,0
131520,note_on,156,0,2,,,,,,,,,0,,,56,0
131520,note_on,240,0,1,,,,,,,,,0,,,68,0
131520,set_tempo,480,1,0,,,,,,267547,,,,,,,
131520,note_on,0,0,2,,,,,,,,,0,,,49,75
131591,control_change,71,0,2,,,,,,,,,0,64,127,,
131880,note_on,289,0,2,,,,,,,,,0,,,49,0
131880,note_on,0,0,2,,,,,,,,,0,,,37,0
131880,note_on,360,0,1,,,,,,,,,0,,,77,0
131880,note_on,0,0,1,,,,,,,,,0,,,68,0
131880,note_on,0,0,1,,,,,,,,,0,,,65,0
131992,note_on,0,0,2,,,,,,,,,0,,,56,75
131992,note_on,0,0,1,,,,,,,,,0,,,73,89
131992,note_on,112,0,2,,,,,,,,,0,,,49,67
131992,note_on,112,0,1,,,,,,,,,0,,,65,80
131992,note_on,0,0,1,,,,,,,,,0,,,68,80
132180,set_tempo,660,1,0,,,,,,271052,,,,,,,
132352,note_on,360,0,2,,,,,,,,,0,,,56,0
132352,note_on,0,0,2,,,,,,,,,0,,,49,0
132352,note_on,360,0,1,,,,,,,,,0,,,73,0
132352,note_on,0,0,1,,,,,,,,,0,,,65,0
132352,note_on,0,0,1,,,,,,,,,0,,,68,0
132368,control_change,16,0,2,,,,,,,,,0,64,0,,
132480,note_on,0,0,2,,,,,,,,,0,,,65,40
132480,note_on,0,0,2,,,,,,,,,0,,,63,36
132480,note_on,128,0,1,,,,,,,,,0,,,75,43
132480,set_tempo,300,1,0,,,,,,265498,,,,,,,
132480,note_on,0,0,1,,,,,,,,,0,,,77,48
132480,control_change,112,0,2,,,,,,,,,0,64,127,,
132960,note_on,480,0,1,,,,,,,,,0,,,77,0
132960,note_on,0,0,1,,,,,,,,,0,,,75,0
132960,note_on,0,0,1,,,,,,,,,0,,,72,40
132960,note_on,0,0,1,,,,,,,,,0,,,77,45
132960,note_on,0,0,2,,,,,,,,,0,,,63,0
132960,note_on,480,0,2,,,,,,,,,0,,,65,0
132960,note_on,0,0,2,,,,,,,,,0,,,60,35
132960,note_on,0,0,2,,,,,,,,,0,,,65,39
132960,set_tempo,480,1,0,,,,,,267547,,,,,,,
133080,note_on,120,0,2,,,,,,,,,0,,,65,0
133080,note_on,0,0,2,,,,,,,,,0,,,60,0
133080,note_on,120,0,1,,,,,,,,,0,,,77,0
133080,note_on,0,0,1,,,,,,,,,0,,,72,0
133200,note_on,0,0,1,,,,,,,,,0,,,77,45
133200,note_on,120,0,1,,,,,,,,,0,,,72,40
133200,note_on,0,0,2,,,,,,,,,0,,,65,39
133200,note_on,120,0,2,,,,,,,,,0,,,60,35
133320,note_on,0,0,1,,,,,,,,,0,,,72,0
133320,note_on,120,0,2,,,,,,,,,0,,,65,0
133320,note_on,120,0,1,,,,,,,,,0,,,77,0
133320,note_on,0,0,2,,,,,,,,,0,,,60,0
133348,control_change,28,0,2,,,,,,,,,0,64,0,,
133440,note_on,120,0,1,,,,,,,,,0,,,73,43
133440,set_tempo,480,1,0,,,,,,265498,,,,,,,
133440,note_on,0,0,1,,,,,,,,,0,,,77,48
133440,note_on,0,0,2,,,,,,,,,0,,,65,40
133440,note_on,92,0,2,,,,,,,,,0,,,61,36
133525,control_change,85,0,2,,,,,,,,,0,64,127,,
133920,note_on,480,0,1,,,,,,,,,0,,,77,0
133920,note_on,0,0,2,,,,,,,,,0,,,61,0
133920,set_tempo,480,1,0,,,,,,267547,,,,,,,
133920,note_on,395,0,2,,,,,,,,,0,,,65,0
133920,note_on,0,0,1,,,,,,,,,0,,,77,45
133920,note_on,0,0,1,,,,,,,,,0,,,70,40
133920,note_on,0,0,1,,,,,,,,,0,,,73,0
133920,note_on,0,0,2,,,,,,,,,0,,,65,38
133920,note_on,0,0,2,,,,,,,,,0,,,58,34
134160,note_on,0,0,2,,,,,,,,,0,,,65,38
134160,note_on,0,0,2,,,,,,,,,0,,,58,34
134160,note_on,0,0,1,,,,,,,,,0,,,70,0
134160,note_on,0,0,1,,,,,,,,,0,,,70,40
134160,note_on,0,0,2,,,,,,,,,0,,,58,0
134160,note_on,240,0,2,,,,,,,,,0,,,65,0
134160,note_on,240,0,1,,,,,,,,,0,,,77,0
134160,note_on,0,0,1,,,,,,,,,0,,,77,45
134204,control_change,44,0,2,,,,,,,,,0,64,0,,
134400,note_on,0,0,2,,,,,,,,,0,,,61,40
134400,note_on,0,0,2,,,,,,,,,0,,,59,36
134400,note_on,0,0,2,,,,,,,,,0,,,58,0
134400,note_on,196,0,2,,,,,,,,,0,,,65,0
134400,note_on,0,0,1,,,,,,,,,0,,,73,48
134400,note_on,0,0,1,,,,,,,,,0,,,71,43
134400,note_on,0,0,1,,,,,,,,,0,,,70,0
134400,note_on,240,0,1,,,,,,,,,0,,,77,0
134400,set_tempo,480,1,0,,,,,,265498,,,,,,,
134465,control_change,65,0,2,,,,,,,,,0,64,127,,
134880,note_on,0,0,1,,,,,,,,,0,,,73,45
134880,note_on,0,0,1,,,,,,,,,0,,,65,40
134880,note_on,0,0,1,,,,,,,,,0,,,71,0
134880,note_on,480,0,1,,,,,,,,,0,,,73,0
134880,note_on,0,0,2,,,,,,,,,0,,,59,0
134880,set_tempo,480,1,0,,,,,,273199,,,,,,,
134880,note_on,415,0,2,,,,,,,,,0,,,61,0
134880,note_on,0,0,2,,,,,,,,,0,,,53,34
134880,note_on,0,0,2,,,,,,,,,0,,,61,38
135120,note_on,0,0,2,,,,,,,,,0,,,61,38
135120,note_on,0,0,2,,,,,,,,,0,,,53,34
135120,note_on,0,0,2,,,,,,,,,0,,,53,0
135120,note_on,240,0,2,,,,,,,,,0,,,61,0
135120,note_on,240,0,1,,,,,,,,,0,,,73,0
135120,note_on,0,0,1,,,,,,,,,0,,,65,0
135120,note_on,0,0,1,,,,,,,,,0,,,65,40
135120,note_on,0,0,1,,,,,,,,,0,,,73,45
135204,control_change,84,0,2,,,,,,,,,0,64,0,,
135360,note_on,0,0,1,,,,,,,,,0,,,82,95
135360,note_on,0,0,1,,,,,,,,,0,,,73,85
135360,note_on,0,0,1,,,,,,,,,0,,,70,85
135360,note_on,0,0,1,,,,,,,,,0,,,65,0
135360,note_on,240,0,1,,,,,,,,,0,,,73,0
135360,set_tempo,480,1,0,,,,,,268938,,,,,,,
135360,note_on,156,0,2,,,,,,,,,0,,,61,0
135360,note_on,0,0,2,,,,,,,,,0,,,53,0
135360,note_on,0,0,2,,,,,,,,,0,,,42,72
135360,note_on,0,0,2,,,,,,,,,0,,,54,80
135459,control_change,99,0,2,,,,,,,,,0,64,127,,
135720,note_on,360,0,1,,,,,,,,,0,,,82,0
135720,note_on,0,0,1,,,,,,,,,0,,,73,0
135720,note_on,0,0,1,,,,,,,,,0,,,70,0
135720,note_on,261,0,2,,,,,,,,,0,,,54,0
135720,note_on,0,0,2,,,,,,,,,0,,,42,0
135832,note_on,112,0,1,,,,,,,,,0,,,70,84
135832,note_on,0,0,2,,,,,,,,,0,,,61,80
135832,note_on,0,0,1,,,,,,,,,0,,,78,94
135832,note_on,0,0,1,,,,,,,,,0,,,73,84
135832,note_on,112,0,2,,,,,,,,,0,,,54,72
136100,set_tempo,740,1,0,,,,,,272480,,,,,,,
136192,note_on,0,0,1,,,,,,,,,0,,,73,0
136192,note_on,360,0,1,,,,,,,,,0,,,78,0
136192,note_on,360,0,2,,,,,,,,,0,,,61,0
136192,note_on,0,0,1,,,,,,,,,0,,,70,0
136192,note_on,0,0,2,,,,,,,,,0,,,54,0
136208,control_change,16,0,2,,,,,,,,,0,64,0,,
136320,set_tempo,220,1,0,,,,,,265498,,,,,,,
136320,note_on,0,0,2,,,,,,,,,0,,,61,40
136320,note_on,112,0,2,,,,,,,,,0,,,59,36
136320,note_on,128,0,1,,,,,,,,,0,,,71,43
136320,note_on,0,0,1,,,,,,,,,0,,,73,48
136398,control_change,78,0,2,,,,,,,,,0,64,127,,
136800,set_tempo,480,1,0,,,,,,273923,,,,,,,
136800,note_on,0,0,1,,,,,,,,,0,,,73,45
136800,note_on,0,0,1,,,,,,,,,0,,,65,40
136800,note_on,402,0,2,,,,,,,,,0,,,61,0
136800,note_on,0,0,2,,,,,,,,,0,,,61,38
136800,note_on,0,0,2,,,,,,,,,0,,,53,34
136800,note_on,0,0,2,,,,,,,,,0,,,59,0
136800,note_on,0,0,1,,,,,,,,,0,,,71,0
136800,note_on,480,0,1,,,,,,,,,0,,,73,0
137040,note_on,0,0,1,,,,,,,,,0,,,73,45
137040,note_on,240,0,1,,,,,,,,,0,,,73,0
137040,note_on,0,0,1,,,,,,,,,0,,,65,0
137040,note_on,0,0,1,,,,,,,,,0,,,65,40
137040,note_on,240,0,2,,,,,,,,,0,,,61,0
137040,note_on,0,0,2,,,,,,,,,0,,,53,0
137040,note_on,0,0,2,,,,,,,,,0,,,53,34
137040,note_on,0,0,2,,,,,,,,,0,,,61,38
137124,control_change,84,0,2,,,,,,,,,0,64,0,,
137280,note_on,0,0,1,,,,,,,,,0,,,65,0
137280,set_tempo,480,1,0,,,,,,268938,,,,,,,
137280,note_on,240,0,1,,,,,,,,,0,,,73,0
137280,note_on,0,0,1,,,,,,,,,0,,,70,85
137280,note_on,0,0,1,,,,,,,,,0,,,73,85
137280,note_on,0,0,1,,,,,,,,,0,,,82,95
137280,note_on,0,0,2,,,,,,,,,0,,,54,78
137280,note_on,0,0,2,,,,,,,,,0,,,42,70
137280,note_on,0,0,2,,,,,,,,,0,,,53,0
137280,note_on,156,0,2,,,,,,,,,0,,,61,0
137336,control_change,56,0,2,,,,,,,,,0,64,127,,
137640,note_on,304,0,2,,,,,,,,,0,,,54,0
137640,note_on,360,0,1,,,,,,,,,0,,,82,0
137640,note_on,0,0,1,,,,,,,,,0,,,73,0
137640,note_on,0,0,1,,,,,,,,,0,,,70,0
137640,note_on,0,0,2,,,,,,,,,0,,,42,0
137752,note_on,0,0,1,,,,,,,,,0,,,78,95
137752,note_on,0,0,2,,,,,,,,,0,,,61,78
137752,note_on,112,0,1,,,,,,,,,0,,,70,85
137752,note_on,0,0,1,,,,,,,,,0,,,73,85
137752,note_on,112,0,2,,,,,,,,,0,,,54,70
137760,set_tempo,480,1,0,,,,,,271052,,,,,,,
138112,note_on,360,0,2,,,,,,,,,0,,,61,0
138112,note_on,360,0,1,,,,,,,,,0,,,78,0
138112,note_on,0,0,1,,,,,,,,,0,,,73,0
138112,note_on,0,0,1,,,,,,,,,0,,,70,0
138112,note_on,0,0,2,,,,,,,,,0,,,54,0
138128,control_change,16,0,2,,,,,,,,,0,64,0,,
138240,note_on,128,0,1,,,,,,,,,0,,,82,46
138240,set_tempo,480,1,0,,,,,,265498,,,,,,,
138240,note_on,112,0,2,,,,,,,,,0,,,49,44
138354,control_change,114,0,2,,,,,,,,,0,64,127,,
138480,note_on,240,0,1,,,,,,,,,0,,,82,0
138480,note_on,0,0,1,,,,,,,,,0,,,70,40
138720,note_on,240,0,1,,,,,,,,,0,,,70,0
138720,note_on,0,0,1,,,,,,,,,0,,,73,36
138720,note_on,0,0,1,,,,,,,,,0,,,78,40
138720,note_on,0,0,2,,,,,,,,,0,,,54,38
138720,note_on,366,0,2,,,,,,,,,0,,,49,0
138960,note_on,240,0,1,,,,,,,,,0,,,73,0
138960,note_on,0,0,1,,,,,,,,,0,,,78,0
138960,note_on,0,0,1,,,,,,,,,0,,,70,40
139076,control_change,356,0,2,,,,,,,,,0,64,0,,
139200,note_on,240,0,1,,,,,,,,,0,,,70,0
139200,note_on,0,0,1,,,,,,,,,0,,,78,44
139200,note_on,0,0,2,,,,,,,,,0,,,54,40
139200,note_on,124,0,2,,,,,,,,,0,,,54,0
139303,control_change,103,0,2,,,,,,,,,0,64,127,,
139440,note_on,0,0,1,,,,,,,,,0,,,66,39
139440,note_on,240,0,1,,,,,,,,,0,,,78,0
139680,note_on,0,0,2,,,,,,,,,0,,,59,37
139680,note_on,377,0,2,,,,,,,,,0,,,54,0
139680,note_on,0,0,1,,,,,,,,,0,,,74,38
139680,note_on,0,0,1,,,,,,,,,0,,,71,34
139680,note_on,240,0,1,,,,,,,,,0,,,66,0
139920,note_on,0,0,1,,,,,,,,,0,,,71,0
139920,note_on,0,0,1,,,,,,,,,0,,,66,38
139920,note_on,240,0,1,,,,,,,,,0,,,74,0
140012,control_change,332,0,2,,,,,,,,,0,64,0,,
140160,note_on,240,0,1,,,,,,,,,0,,,66,0
140160,note_on,148,0,2,,,,,,,,,0,,,59,0
140160,note_on,0,0,2,,,,,,,,,0,,,42,39
140160,note_on,0,0,1,,,,,,,,,0,,,76,41
140229,control_change,69,0,2,,,,,,,,,0,64,127,,
140400,note_on,0,0,1,,,,,,,,,0,,,67,36
140400,note_on,240,0,1,,,,,,,,,0,,,76,0
140640,note_on,0,0,1,,,,,,,,,0,,,70,32
140640,note_on,0,0,1,,,,,,,,,0,,,73,36
140640,note_on,0,0,2,,,,,,,,,0,,,54,36
140640,note_on,411,0,2,,,,,,,,,0,,,42,0
140640,note_on,240,0,1,,,,,,,,,0,,,67,0
140880,note_on,240,0,1,,,,,,,,,0,,,73,0
140880,note_on,0,0,1,,,,,,,,,0,,,70,0
140880,note_on,0,0,1,,,,,,,,,0,,,67,36
141040,control_change,400,0,2,,,,,,,,,0,64,0,,
141120,note_on,0,0,2,,,,,,,,,0,,,54,38
141120,note_on,240,0,1,,,,,,,,,0,,,67,0
141120,note_on,0,0,2,,,,,,,,,0,,,42,34
141120,note_on,80,0,2,,,,,,,,,0,,,54,0
141120,note_on,0,0,1,,,,,,,,,0,,,73,38
141120,note_on,0,0,1,,,,,,,,,0,,,71,34
141165,control_change,45,0,2,,,,,,,,,0,64,127,,
141360,note_on,240,0,1,,,,,,,,,0,,,71,0
141360,note_on,0,0,1,,,,,,,,,0,,,73,0
141360,note_on,0,0,1,,,,,,,,,0,,,66,32
141600,note_on,0,0,2,,,,,,,,,0,,,54,32
141600,note_on,0,0,2,,,,,,,,,0,,,47,28
141600,note_on,0,0,2,,,,,,,,,0,,,42,0
141600,note_on,435,0,2,,,,,,,,,0,,,54,0
141600,note_on,240,0,1,,,,,,,,,0,,,66,0
141600,note_on,0,0,1,,,,,,,,,0,,,71,28
141600,note_on,0,0,1,,,,,,,,,0,,,74,32
141840,note_on,0,0,1,,,,,,,,,0,,,71,0
141840,note_on,0,0,1,,,,,,,,,0,,,66,32
141840,note_on,240,0,1,,,,,,,,,0,,,74,0
141960,set_tempo,3720,1,0,,,,,,268938,,,,,,,
141976,control_change,376,0,2,,,,,,,,,0,64,0,,
142080,note_on,0,0,1,,,,,,,,,0,,,79,40
142080,set_tempo,120,1,0,,,,,,265498,,,,,,,
142080,note_on,240,0,1,,,,,,,,,0,,,66,0
142080,note_on,104,0,2,,,,,,,,,0,,,54,0
142080,note_on,0,0,2,,,,,,,,,0,,,47,0
142080,note_on,0,0,2,,,,,,,,,0,,,54,40
142137,control_change,57,0,2,,,,,,,,,0,64,127,,
142320,note_on,0,0,1,,,,,,,,,0,,,70,36
142320,note_on,240,0,1,,,,,,,,,0,,,79,0
142560,note_on,0,0,1,,,,,,,,,0,,,76,36
142560,note_on,240,0,1,,,,,,,,,0,,,70,0
142560,note_on,423,0,2,,,,,,,,,0,,,54,0
142560,note_on,0,0,1,,,,,,,,,0,,,73,32
142560,note_on,0,0,2,,,,,,,,,0,,,67,36
142800,note_on,240,0,1,,,,,,,,,0,,,76,0
142800,note_on,0,0,1,,,,,,,,,0,,,73,0
142800,note_on,0,0,1,,,,,,,,,0,,,70,36
142916,control_change,356,0,2,,,,,,,,,0,64,0,,
143040,note_on,240,0,1,,,,,,,,,0,,,70,0
143040,note_on,124,0,2,,,,,,,,,0,,,67,0
143040,note_on,0,0,2,,,,,,,,,0,,,54,35
143040,note_on,0,0,2,,,,,,,,,0,,,66,39
143040,note_on,0,0,1,,,,,,,,,0,,,78,39
143040,note_on,0,0,1,,,,,,,,,0,,,73,35
143120,control_change,80,0,2,,,,,,,,,0,64,127,,
143280,note_on,240,0,1,,,,,,,,,0,,,78,0
143280,note_on,0,0,1,,,,,,,,,0,,,73,0
143280,note_on,0,0,1,,,,,,,,,0,,,70,32
143520,note_on,240,0,1,,,,,,,,,0,,,70,0
143520,note_on,0,0,1,,,,,,,,,0,,,74,28
143520,note_on,400,0,2,,,,,,,,,0,,,66,0
143520,note_on,0,0,2,,,,,,,,,0,,,54,0
143520,note_on,0,0,2,,,,,,,,,0,,,59,28
143520,note_on,0,0,2,,,,,,,,,0,,,66,32
143520,note_on,0,0,1,,,,,,,,,0,,,78,32
143760,note_on,0,0,1,,,,,,,,,0,,,71,32
143760,note_on,0,0,1,,,,,,,,,0,,,74,0
143760,note_on,240,0,1,,,,,,,,,0,,,78,0
143800,set_tempo,1720,1,0,,,,,,272480,,,,,,,
143840,control_change,320,0,2,,,,,,,,,0,64,0,,
144000,note_on,0,0,1,,,,,,,,,0,,,83,46
144000,note_on,240,0,1,,,,,,,,,0,,,71,0
144000,set_tempo,200,1,0,,,,,,265498,,,,,,,
144000,note_on,160,0,2,,,,,,,,,0,,,66,0
144000,note_on,0,0,2,,,,,,,,,0,,,50,45
144000,note_on,0,0,2,,,,,,,,,0,,,59,0
144057,control_change,57,0,2,,,,,,,,,0,64,127,,
144240,note_on,240,0,1,,,,,,,,,0,,,83,0
144240,note_on,0,0,1,,,,,,,,,0,,,71,40
144240,note_on,183,0,2,,,,,,,,,0,,,50,0
144480,note_on,240,0,1,,,,,,,,,0,,,71,0
144480,note_on,0,0,1,,,,,,,,,0,,,74,36
144480,note_on,0,0,1,,,,,,,,,0,,,79,40
144480,note_on,240,0,2,,,,,,,,,0,,,55,40
144720,note_on,240,0,2,,,,,,,,,0,,,55,0
144720,note_on,0,0,1,,,,,,,,,0,,,71,40
144720,note_on,240,0,1,,,,,,,,,0,,,79,0
144720,note_on,0,0,1,,,,,,,,,0,,,74,0
144812,control_change,92,0,2,,,,,,,,,0,64,0,,
144960,note_on,148,0,2,,,,,,,,,0,,,55,41
144960,note_on,0,0,1,,,,,,,,,0,,,79,44
144960,note_on,240,0,1,,,,,,,,,0,,,71,0
145031,control_change,71,0,2,,,,,,,,,0,64,127,,
145200,note_on,240,0,1,,,,,,,,,0,,,79,0
145200,note_on,169,0,2,,,,,,,,,0,,,55,0
145200,note_on,0,0,1,,,,,,,,,0,,,67,33
145440,note_on,240,0,2,,,,,,,,,0,,,60,39
145440,note_on,0,0,1,,,,,,,,,0,,,75,38
145440,note_on,0,0,1,,,,,,,,,0,,,72,34
145440,note_on,240,0,1,,,,,,,,,0,,,67,0
145664,control_change,224,0,2,,,,,,,,,0,64,0,,
145680,note_on,16,0,2,,,,,,,,,0,,,60,0
145680,note_on,240,0,1,,,,,,,,,0,,,75,0
145680,note_on,0,0,1,,,,,,,,,0,,,67,38
145680,note_on,0,0,1,,,,,,,,,0,,,72,0
145920,note_on,0,0,1,,,,,,,,,0,,,77,41
145920,note_on,240,0,1,,,,,,,,,0,,,67,0
145920,note_on,240,0,2,,,,,,,,,0,,,43,40
145989,control_change,69,0,2,,,,,,,,,0,64,127,,
146160,note_on,240,0,1,,,,,,,,,0,,,77,0
146160,note_on,0,0,1,,,,,,,,,0,,,68,37
146400,note_on,411,0,2,,,,,,,,,0,,,43,0
146400,note_on,0,0,1,,,,,,,,,0,,,71,33
146400,note_on,240,0,1,,,,,,,,,0,,,68,0
146400,note_on,0,0,1,,,,,,,,,0,,,74,37
146400,note_on,0,0,2,,,,,,,,,0,,,55,36
146640,note_on,0,0,1,,,,,,,,,0,,,71,0
146640,note_on,240,0,1,,,,,,,,,0,,,74,0
146640,note_on,0,0,1,,,,,,,,,0,,,68,37
146684,control_change,284,0,2,,,,,,,,,0,64,0,,
146880,note_on,0,0,1,,,,,,,,,0,,,74,40
146880,note_on,0,0,2,,,,,,,,,0,,,55,38
146880,note_on,0,0,2,,,,,,,,,0,,,43,34
146880,control_change,0,0,2,,,,,,,,,0,64,127,,
146880,note_on,196,0,2,,,,,,,,,0,,,55,0
146880,note_on,240,0,1,,,,,,,,,0,,,68,0
146880,note_on,0,0,1,,,,,,,,,0,,,72,36
147120,note_on,240,0,1,,,,,,,,,0,,,72,0
147120,note_on,0,0,1,,,,,,,,,0,,,67,33
147120,note_on,0,0,1,,,,,,,,,0,,,74,0
147360,note_on,0,0,1,,,,,,,,,0,,,75,33
147360,note_on,0,0,2,,,,,,,,,0,,,43,0
147360,note_on,0,0,2,,,,,,,,,0,,,48,29
147360,note_on,0,0,2,,,,,,,,,0,,,55,33
147360,note_on,240,0,1,,,,,,,,,0,,,67,0
147360,note_on,0,0,1,,,,,,,,,0,,,72,29
147360,note_on,480,0,2,,,,,,,,,0,,,55,0
147600,note_on,240,0,1,,,,,,,,,0,,,75,0
147600,note_on,0,0,1,,,,,,,,,0,,,72,0
147600,note_on,0,0,1,,,,,,,,,0,,,67,33
147692,control_change,332,0,2,,,,,,,,,0,64,0,,
147840,note_on,0,0,1,,,,,,,,,0,,,80,44
147840,note_on,240,0,1,,,,,,,,,0,,,67,0
147840,control_change,0,0,2,,,,,,,,,0,64,127,,
147840,note_on,0,0,2,,,,,,,,,0,,,55,41
147840,note_on,0,0,2,,,,,,,,,0,,,48,0
147840,note_on,148,0,2,,,,,,,,,0,,,55,0
148080,note_on,0,0,1,,,,,,,,,0,,,71,37
148080,note_on,240,0,1,,,,,,,,,0,,,80,0
148320,note_on,0,0,2,,,,,,,,,0,,,68,38
148320,note_on,240,0,1,,,,,,,,,0,,,71,0
148320,note_on,0,0,1,,,,,,,,,0,,,74,33
148320,note_on,0,0,1,,,,,,,,,0,,,77,37
148320,note_on,480,0,2,,,,,,,,,0,,,55,0
148560,note_on,240,0,1,,,,,,,,,0,,,77,0
148560,note_on,0,0,1,,,,,,,,,0,,,74,0
148560,note_on,0,0,1,,,,,,,,,0,,,71,35
148604,control_change,284,0,2,,,,,,,,,0,64,0,,
148800,note_on,0,0,1,,,,,,,,,0,,,74,36
148800,note_on,0,0,1,,,,,,,,,0,,,79,40
148800,note_on,196,0,2,,,,,,,,,0,,,68,0
148800,note_on,0,0,2,,,,,,,,,0,,,55,36
148800,note_on,0,0,2,,,,,,,,,0,,,67,40
148800,note_on,240,0,1,,,,,,,,,0,,,71,0
148857,control_change,57,0,2,,,,,,,,,0,64,127,,
149040,note_on,240,0,1,,,,,,,,,0,,,79,0
149040,note_on,0,0,1,,,,,,,,,0,,,74,0
149040,note_on,0,0,1,,,,,,,,,0,,,71,36
149280,note_on,423,0,2,,,,,,,,,0,,,67,0
149280,note_on,0,0,2,,,,,,,,,0,,,55,0
149280,note_on,0,0,2,,,,,,,,,0,,,60,32
149280,note_on,0,0,2,,,,,,,,,0,,,67,36
149280,note_on,240,0,1,,,,,,,,,0,,,71,0
149280,note_on,0,0,1,,,,,,,,,0,,,75,32
149280,note_on,0,0,1,,,,,,,,,0,,,79,36
149520,note_on,240,0,1,,,,,,,,,0,,,79,0
149520,note_on,0,0,1,,,,,,,,,0,,,72,36
149520,note_on,0,0,1,,,,,,,,,0,,,75,0
149600,control_change,320,0,2,,,,,,,,,0,64,0,,
149620,set_tempo,5620,1,0,,,,,,272480,,,,,,,
149760,note_on,0,0,1,,,,,,,,,0,,,70,45
149760,note_on,0,0,2,,,,,,,,,0,,,67,45
149760,note_on,240,0,1,,,,,,,,,0,,,72,0
149760,set_tempo,140,1,0,,,,,,265498,,,,,,,
149760,note_on,160,0,2,,,,,,,,,0,,,67,0
149760,note_on,0,0,2,,,,,,,,,0,,,60,0
149806,control_change,46,0,2,,,,,,,,,0,64,127,,
150000,note_on,240,0,1,,,,,,,,,0,,,70,0
150000,note_on,0,0,1,,,,,,,,,0,,,75,41
150000,note_on,194,0,2,,,,,,,,,0,,,67,0
150240,note_on,0,0,1,,,,,,,,,0,,,74,41
150240,note_on,240,0,1,,,,,,,,,0,,,75,0
150240,note_on,240,0,2,,,,,,,,,0,,,63,41
150480,note_on,240,0,2,,,,,,,,,0,,,63,0
150480,note_on,0,0,1,,,,,,,,,0,,,75,41
150480,note_on,240,0,1,,,,,,,,,0,,,74,0
150596,control_change,116,0,2,,,,,,,,,0,64,0,,
150720,note_on,240,0,1,,,,,,,,,0,,,75,0
150720,note_on,0,0,2,,,,,,,,,0,,,63,47
150720,control_change,124,0,2,,,,,,,,,0,64,127,,
150720,note_on,0,0,1,,,,,,,,,0,,,75,48
150960,note_on,0,0,1,,,,,,,,,0,,,80,45
150960,note_on,240,0,2,,,,,,,,,0,,,63,0
150960,note_on,240,0,1,,,,,,,,,0,,,75,0
151200,note_on,240,0,1,,,,,,,,,0,,,80,0
151200,note_on,0,0,2,,,,,,,,,0,,,63,45
151200,note_on,240,0,2,,,,,,,,,0,,,59,40
151200,note_on,0,0,1,,,,,,,,,0,,,79,45
151440,note_on,240,0,2,,,,,,,,,0,,,63,0
151440,note_on,0,0,1,,,,,,,,,0,,,80,45
151440,note_on,0,0,2,,,,,,,,,0,,,59,0
151440,note_on,240,0,1,,,,,,,,,0,,,79,0
151480,set_tempo,1720,1,0,,,,,,273923,,,,,,,
151508,control_change,68,0,2,,,,,,,,,0,64,0,,
151680,control_change,172,0,2,,,,,,,,,0,64,127,,
151680,note_on,0,0,2,,,,,,,,,0,,,61,43
151680,note_on,0,0,2,,,,,,,,,0,,,63,48
151680,note_on,0,0,1,,,,,,,,,0,,,87,54
151680,note_on,240,0,1,,,,,,,,,0,,,80,0
151680,set_tempo,200,1,0,,,,,,265498,,,,,,,
151920,note_on,240,0,2,,,,,,,,,0,,,63,0
151920,note_on,0,0,2,,,,,,,,,0,,,61,0
151920,note_on,240,0,1,,,,,,,,,0,,,87,0
151920,note_on,0,0,1,,,,,,,,,0,,,75,45
152160,note_on,240,0,1,,,,,,,,,0,,,75,0
152160,note_on,0,0,1,,,,,,,,,0,,,79,45
152160,note_on,0,0,2,,,,,,,,,0,,,63,45
152160,note_on,240,0,2,,,,,,,,,0,,,58,40
152400,note_on,240,0,2,,,,,,,,,0,,,63,0
152400,note_on,0,0,2,,,,,,,,,0,,,58,0
152400,note_on,0,0,1,,,,,,,,,0,,,75,45
152400,note_on,240,0,1,,,,,,,,,0,,,79,0
152476,control_change,76,0,2,,,,,,,,,0,64,0,,
152640,note_on,240,0,1,,,,,,,,,0,,,75,0
152640,note_on,0,0,1,,,,,,,,,0,,,75,50
152640,control_change,164,0,2,,,,,,,,,0,64,127,,
152640,note_on,0,0,2,,,,,,,,,0,,,58,43
152640,note_on,0,0,2,,,,,,,,,0,,,63,48
152880,note_on,240,0,2,,,,,,,,,0,,,63,0
152880,note_on,0,0,1,,,,,,,,,0,,,80,41
152880,note_on,240,0,1,,,,,,,,,0,,,75,0
152880,note_on,0,0,2,,,,,,,,,0,,,58,0
153120,note_on,240,0,2,,,,,,,,,0,,,59,36
153120,note_on,0,0,2,,,,,,,,,0,,,63,41
153120,note_on,240,0,1,,,,,,,,,0,,,80,0
153120,note_on,0,0,1,,,,,,,,,0,,,79,41
153348,control_change,228,0,2,,,,,,,,,0,64,0,,
153360,note_on,0,0,2,,,,,,,,,0,,,59,0
153360,note_on,240,0,1,,,,,,,,,0,,,79,0
153360,note_on,12,0,2,,,,,,,,,0,,,63,0
153360,note_on,0,0,1,,,,,,,,,0,,,80,41
153380,set_tempo,1700,1,0,,,,,,273199,,,,,,,
153600,note_on,240,0,1,,,,,,,,,0,,,80,0
153600,note_on,0,0,1,,,,,,,,,0,,,78,48
153600,set_tempo,220,1,0,,,,,,265498,,,,,,,
153600,control_change,240,0,2,,,,,,,,,0,64,127,,
153600,note_on,0,0,2,,,,,,,,,0,,,64,45
153840,note_on,240,0,1,,,,,,,,,0,,,78,0
153840,note_on,0,0,1,,,,,,,,,0,,,66,42
154080,note_on,0,0,2,,,,,,,,,0,,,61,41
154080,note_on,480,0,2,,,,,,,,,0,,,64,0
154080,note_on,0,0,1,,,,,,,,,0,,,70,42
154080,note_on,240,0,1,,,,,,,,,0,,,66,0
154320,note_on,0,0,1,,,,,,,,,0,,,66,42
154320,note_on,240,0,1,,,,,,,,,0,,,70,0
154424,control_change,344,0,2,,,,,,,,,0,64,0,,
154560,note_on,240,0,1,,,,,,,,,0,,,66,0
154560,note_on,0,0,1,,,,,,,,,0,,,66,47
154560,note_on,136,0,2,,,,,,,,,0,,,61,0
154560,control_change,0,0,2,,,,,,,,,0,64,127,,
154560,note_on,0,0,2,,,,,,,,,0,,,61,45
154800,note_on,0,0,1,,,,,,,,,0,,,71,43
154800,note_on,240,0,1,,,,,,,,,0,,,66,0
154924,control_change,364,0,2,,,,,,,,,0,64,0,,
155040,note_on,116,0,2,,,,,,,,,0,,,61,0
155040,note_on,0,0,2,,,,,,,,,0,,,63,41
155040,note_on,0,0,1,,,,,,,,,0,,,70,43
155040,note_on,240,0,1,,,,,,,,,0,,,71,0
155280,note_on,0,0,1,,,,,,,,,0,,,71,44
155280,note_on,240,0,1,,,,,,,,,0,,,70,0
155520,note_on,0,0,1,,,,,,,,,0,,,71,51
155520,note_on,240,0,1,,,,,,,,,0,,,71,0
155520,note_on,0,0,2,,,,,,,,,0,,,68,48
155520,control_change,0,0,2,,,,,,,,,0,64,127,,
155520,note_on,480,0,2,,,,,,,,,0,,,63,0
155760,note_on,0,0,1,,,,,,,,,0,,,76,47
155760,note_on,240,0,1,,,,,,,,,0,,,71,0
156000,note_on,480,0,2,,,,,,,,,0,,,68,0
156000,note_on,0,0,1,,,,,,,,,0,,,75,47
156000,note_on,240,0,1,,,,,,,,,0,,,76,0
156000,note_on,0,0,2,,,,,,,,,0,,,64,45
156240,note_on,0,0,1,,,,,,,,,0,,,76,48
156240,note_on,240,0,1,,,,,,,,,0,,,75,0
156276,control_change,276,0,2,,,,,,,,,0,64,0,,
156480,note_on,204,0,2,,,,,,,,,0,,,64,0
156480,note_on,0,0,1,,,,,,,,,0,,,76,59
156480,control_change,0,0,2,,,,,,,,,0,64,127,,
156480,note_on,240,0,1,,,,,,,,,0,,,76,0
156480,note_on,0,0,2,,,,,,,,,0,,,64,54
156720,note_on,240,0,1,,,,,,,,,0,,,76,0
156720,note_on,0,0,1,,,,,,,,,0,,,81,54
156960,note_on,480,0,2,,,,,,,,,0,,,64,0
156960,note_on,0,0,1,,,,,,,,,0,,,80,54
156960,note_on,0,0,2,,,,,,,,,0,,,64,48
156960,note_on,0,0,2,,,,,,,,,0,,,60,43
156960,note_on,240,0,1,,,,,,,,,0,,,81,0
157200,note_on,240,0,1,,,,,,,,,0,,,80,0
157200,note_on,0,0,1,,,,,,,,,0,,,81,54
157224,control_change,264,0,2,,,,,,,,,0,64,0,,
157240,set_tempo,3640,1,0,,,,,,270343,,,,,,,
157440,set_tempo,200,1,0,,,,,,265498,,,,,,,
157440,control_change,0,0,2,,,,,,,,,0,64,127,,
157440,note_on,0,0,2,,,,,,,,,0,,,64,59
157440,note_on,0,0,2,,,,,,,,,0,,,62,53
157440,note_on,240,0,1,,,,,,,,,0,,,81,0
157440,note_on,216,0,2,,,,,,,,,0,,,64,0
157440,note_on,0,0,1,,,,,,,,,0,,,88,71
157440,note_on,0,0,2,,,,,,,,,0,,,60,0
157680,note_on,240,0,1,,,,,,,,,0,,,88,0
157680,note_on,0,0,1,,,,,,,,,0,,,76,60
157920,note_on,0,0,2,,,,,,,,,0,,,64,54
157920,note_on,0,0,2,,,,,,,,,0,,,62,0
157920,note_on,480,0,2,,,,,,,,,0,,,64,0
157920,note_on,240,0,1,,,,,,,,,0,,,76,0
157920,note_on,0,0,1,,,,,,,,,0,,,80,61
157920,note_on,0,0,2,,,,,,,,,0,,,59,48
158160,note_on,0,0,1,,,,,,,,,0,,,76,61
158160,note_on,240,0,1,,,,,,,,,0,,,80,0
158264,control_change,344,0,2,,,,,,,,,0,64,0,,
158400,note_on,0,0,2,,,,,,,,,0,,,59,0
158400,note_on,240,0,1,,,,,,,,,0,,,76,0
158400,note_on,136,0,2,,,,,,,,,0,,,64,0
158400,note_on,0,0,1,,,,,,,,,0,,,76,65
158400,note_on,0,0,2,,,,,,,,,0,,,59,52
158400,note_on,0,0,2,,,,,,,,,0,,,64,58
158434,control_change,34,0,2,,,,,,,,,0,64,127,,
158640,note_on,0,0,1,,,,,,,,,0,,,81,60
158640,note_on,240,0,1,,,,,,,,,0,,,76,0
158880,note_on,446,0,2,,,,,,,,,0,,,64,0
158880,note_on,0,0,2,,,,,,,,,0,,,59,0
158880,note_on,0,0,2,,,,,,,,,0,,,60,48
158880,note_on,0,0,2,,,,,,,,,0,,,64,54
158880,note_on,0,0,1,,,,,,,,,0,,,80,60
158880,note_on,240,0,1,,,,,,,,,0,,,81,0
159120,note_on,240,0,1,,,,,,,,,0,,,80,0
159120,note_on,0,0,1,,,,,,,,,0,,,81,60
159164,control_change,284,0,2,,,,,,,,,0,64,0,,
159360,note_on,196,0,2,,,,,,,,,0,,,64,0
159360,note_on,0,0,2,,,,,,,,,0,,,65,59
159360,note_on,0,0,2,,,,,,,,,0,,,60,0
159360,note_on,240,0,1,,,,,,,,,0,,,81,0
159360,note_on,0,0,1,,,,,,,,,0,,,79,69
159406,control_change,46,0,2,,,,,,,,,0,64,127,,
159600,note_on,240,0,1,,,,,,,,,0,,,79,0
159600,note_on,0,0,1,,,,,,,,,0,,,67,62
159840,note_on,0,0,2,,,,,,,,,0,,,62,50
159840,note_on,434,0,2,,,,,,,,,0,,,65,0
159840,note_on,240,0,1,,,,,,,,,0,,,67,0
159840,note_on,0,0,1,,,,,,,,,0,,,71,62
160080,note_on,0,0,1,,,,,,,,,0,,,67,62
160080,note_on,240,0,1,,,,,,,,,0,,,71,0
160148,control_change,308,0,2,,,,,,,,,0,64,0,,
160320,control_change,0,0,2,,,,,,,,,0,64,127,,
160320,note_on,0,0,1,,,,,,,,,0,,,67,67
160320,note_on,240,0,1,,,,,,,,,0,,,67,0
160320,note_on,172,0,2,,,,,,,,,0,,,62,0
160320,note_on,0,0,2,,,,,,,,,0,,,62,58
160560,note_on,0,0,1,,,,,,,,,0,,,72,58
160560,note_on,240,0,1,,,,,,,,,0,,,67,0
160800,note_on,0,0,1,,,,,,,,,0,,,71,58
160800,note_on,240,0,1,,,,,,,,,0,,,72,0
160800,note_on,0,0,2,,,,,,,,,0,,,64,50
160800,note_on,480,0,2,,,,,,,,,0,,,62,0
161040,control_change,240,0,2,,,,,,,,,0,64,0,,
161040,note_on,240,0,1,,,,,,,,,0,,,71,0
161040,note_on,0,0,1,,,,,,,,,0,,,72,58
161060,set_tempo,3620,1,0,,,,,,276116,,,,,,,
161270,note_on,230,0,2,,,,,,,,,0,,,64,0
161270,note_on,230,0,1,,,,,,,,,0,,,72,0
161280,set_tempo,220,1,0,,,,,,265498,,,,,,,
161280,note_on,10,0,2,,,,,,,,,0,,,61,68
161280,note_on,10,0,1,,,,,,,,,0,,,73,81
161760,note_on,0,0,2,,,,,,,,,0,,,60,58
161760,note_on,0,0,1,,,,,,,,,0,,,73,77
161760,note_on,480,0,2,,,,,,,,,0,,,61,0
161760,note_on,0,0,1,,,,,,,,,0,,,72,69
161760,note_on,480,0,1,,,,,,,,,0,,,73,0
161760,note_on,0,0,2,,,,,,,,,0,,,61,65
161760,set_tempo,480,1,0,,,,,,267547,,,,,,,
162000,note_on,0,0,1,,,,,,,,,0,,,73,77
162000,note_on,0,0,1,,,,,,,,,0,,,72,0
162000,note_on,240,0,2,,,,,,,,,0,,,61,0
162000,note_on,0,0,2,,,,,,,,,0,,,60,0
162000,note_on,0,0,2,,,,,,,,,0,,,58,65
162000,note_on,0,0,2,,,,,,,,,0,,,61,65
162000,note_on,0,0,1,,,,,,,,,0,,,70,69
162000,note_on,240,0,1,,,,,,,,,0,,,73,0
162240,note_on,0,0,1,,,,,,,,,0,,,70,72
162240,note_on,240,0,2,,,,,,,,,0,,,61,0
162240,note_on,0,0,2,,,,,,,,,0,,,58,0
162240,note_on,0,0,2,,,,,,,,,0,,,58,61
162240,note_on,0,0,2,,,,,,,,,0,,,61,68
162240,note_on,240,0,1,,,,,,,,,0,,,73,0
162240,note_on,0,0,1,,,,,,,,,0,,,70,0
162240,note_on,0,0,1,,,,,,,,,0,,,73,81
162240,set_tempo,480,1,0,,,,,,265498,,,,,,,
162720,note_on,0,0,2,,,,,,,,,0,,,58,0
162720,note_on,0,0,1,,,,,,,,,0,,,70,0
162720,note_on,0,0,1,,,,,,,,,0,,,73,78
162720,note_on,480,0,1,,,,,,,,,0,,,73,0
162720,set_tempo,480,1,0,,,,,,267547,,,,,,,
162720,note_on,480,0,2,,,,,,,,,0,,,61,0
162720,note_on,0,0,1,,,,,,,,,0,,,68,70
162720,note_on,0,0,2,,,,,,,,,0,,,61,65
162720,note_on,0,0,2,,,,,,,,,0,,,56,58
162960,note_on,0,0,1,,,,,,,,,0,,,68,0
162960,note_on,0,0,1,,,,,,,,,0,,,67,70
162960,note_on,0,0,1,,,,,,,,,0,,,73,78
162960,note_on,0,0,2,,,,,,,,,0,,,61,65
162960,note_on,240,0,2,,,,,,,,,0,,,61,0
162960,note_on,0,0,2,,,,,,,,,0,,,56,0
162960,note_on,0,0,2,,,,,,,,,0,,,55,58
162960,note_on,240,0,1,,,,,,,,,0,,,73,0
163200,note_on,0,0,2,,,,,,,,,0,,,55,61
163200,note_on,0,0,2,,,,,,,,,0,,,61,68
163200,note_on,0,0,2,,,,,,,,,0,,,55,0
163200,note_on,0,0,1,,,,,,,,,0,,,67,72
163200,note_on,0,0,1,,,,,,,,,0,,,70,72
163200,note_on,0,0,1,,,,,,,,,0,,,73,81
163200,set_tempo,480,1,0,,,,,,265498,,,,,,,
163200,note_on,240,0,2,,,,,,,,,0,,,61,0
163200,note_on,0,0,1,,,,,,,,,0,,,67,0
163200,note_on,240,0,1,,,,,,,,,0,,,73,0
163680,note_on,0,0,1,,,,,,,,,0,,,70,0
163680,note_on,0,0,2,,,,,,,,,0,,,61,65
163680,note_on,0,0,2,,,,,,,,,0,,,53,58
163680,note_on,0,0,2,,,,,,,,,0,,,55,0
163680,note_on,480,0,2,,,,,,,,,0,,,61,0
163680,note_on,0,0,1,,,,,,,,,0,,,67,0
163680,note_on,480,0,1,,,,,,,,,0,,,73,0
163680,set_tempo,480,1,0,,,,,,268240,,,,,,,
163680,note_on,0,0,1,,,,,,,,,0,,,65,69
163680,note_on,0,0,1,,,,,,,,,0,,,68,69
163680,note_on,0,0,1,,,,,,,,,0,,,73,77
163920,note_on,0,0,1,,,,,,,,,0,,,68,0
163920,note_on,0,0,2,,,,,,,,,0,,,52,58
163920,note_on,0,0,2,,,,,,,,,0,,,53,0
163920,note_on,240,0,2,,,,,,,,,0,,,61,0
163920,note_on,240,0,1,,,,,,,,,0,,,73,0
163920,note_on,0,0,2,,,,,,,,,0,,,61,65
163920,set_tempo,240,1,0,,,,,,295829,,,,,,,
163920,note_on,0,0,1,,,,,,,,,0,,,65,0
163920,note_on,0,0,1,,,,,,,,,0,,,64,69
163920,note_on,0,0,1,,,,,,,,,0,,,67,69
163920,note_on,0,0,1,,,,,,,,,0,,,73,77
164150,note_on,0,0,2,,,,,,,,,0,,,52,0
164150,note_on,230,0,1,,,,,,,,,0,,,73,0
164150,note_on,0,0,1,,,,,,,,,0,,,67,0
164150,note_on,0,0,1,,,,,,,,,0,,,64,0
164150,note_on,230,0,2,,,,,,,,,0,,,61,0
164160,note_on,10,0,2,,,,,,,,,0,,,36,82
164160,note_on,0,0,2,,,,,,,,,0,,,48,82
164160,set_tempo,240,1,0,,,,,,271764,,,,,,,
164160,note_on,0,0,1,,,,,,,,,0,,,79,87
164160,note_on,10,0,1,,,,,,,,,0,,,84,97
164160,note_on,0,0,1,,,,,,,,,0,,,82,87
164640,note_on,480,0,2,,,,,,,,,0,,,48,0
164640,note_on,0,0,2,,,,,,,,,0,,,36,0
164640,note_on,0,0,2,,,,,,,,,0,,,48,79
164640,note_on,0,0,1,,,,,,,,,0,,,82,0
164640,note_on,0,0,1,,,,,,,,,0,,,84,88
164640,note_on,0,0,1,,,,,,,,,0,,,80,79
164640,note_on,0,0,1,,,,,,,,,0,,,77,79
164640,note_on,0,0,1,,,,,,,,,0,,,84,0
164640,note_on,480,0,1,,,,,,,,,0,,,79,0
164640,set_tempo,480,1,0,,,,,,282899,,,,,,,
164880,note_on,240,0,2,,,,,,,,,0,,,48,0
164880,note_on,0,0,2,,,,,,,,,0,,,48,79
164880,note_on,0,0,1,,,,,,,,,0,,,84,91
164880,note_on,240,0,1,,,,,,,,,0,,,84,0
164880,note_on,0,0,1,,,,,,,,,0,,,80,0
164880,note_on,0,0,1,,,,,,,,,0,,,77,0
164880,note_on,0,0,1,,,,,,,,,0,,,76,81
164880,note_on,0,0,1,,,,,,,,,0,,,79,81
165110,note_on,230,0,1,,,,,,,,,0,,,84,0
165110,note_on,0,0,1,,,,,,,,,0,,,79,0
165110,note_on,0,0,1,,,,,,,,,0,,,76,0
165110,note_on,230,0,2,,,,,,,,,0,,,48,0
165120,set_tempo,480,1,0,,,,,,265498,,,,,,,
165120,note_on,10,0,1,,,,,,,,,0,,,73,81
165120,note_on,10,0,2,,,,,,,,,0,,,61,68
165600,note_on,480,0,2,,,,,,,,,0,,,61,0
165600,note_on,0,0,2,,,,,,,,,0,,,60,58
165600,note_on,0,0,2,,,,,,,,,0,,,61,65
165600,note_on,480,0,1,,,,,,,,,0,,,73,0
165600,note_on,0,0,1,,,,,,,,,0,,,73,77
165600,note_on,0,0,1,,,,,,,,,0,,,72,69
165600,set_tempo,480,1,0,,,,,,267547,,,,,,,
165840,note_on,0,0,2,,,,,,,,,0,,,60,0
165840,note_on,240,0,2,,,,,,,,,0,,,61,0
165840,note_on,0,0,2,,,,,,,,,0,,,58,58
165840,note_on,0,0,2,,,,,,,,,0,,,61,65
165840,note_on,0,0,1,,,,,,,,,0,,,73,77
165840,note_on,0,0,1,,,,,,,,,0,,,70,69
165840,note_on,0,0,1,,,,,,,,,0,,,72,0
165840,note_on,240,0,1,,,,,,,,,0,,,73,0
166080,note_on,0,0,1,,,,,,,,,0,,,73,81
166080,note_on,0,0,1,,,,,,,,,0,,,70,72
166080,note_on,240,0,1,,,,,,,,,0,,,73,0
166080,note_on,0,0,2,,,,,,,,,0,,,61,68
166080,note_on,0,0,2,,,,,,,,,0,,,58,61
166080,note_on,0,0,2,,,,,,,,,0,,,58,0
166080,note_on,240,0,2,,,,,,,,,0,,,61,0
166080,set_tempo,480,1,0,,,,,,265498,,,,,,,
166080,note_on,0,0,1,,,,,,,,,0,,,70,0
166560,set_tempo,480,1,0,,,,,,267547,,,,,,,
166560,note_on,0,0,1,,,,,,,,,0,,,68,70
166560,note_on,0,0,2,,,,,,,,,0,,,58,0
166560,note_on,0,0,2,,,,,,,,,0,,,56,58
166560,note_on,0,0,2,,,,,,,,,0,,,61,65
166560,note_on,0,0,1,,,,,,,,,0,,,73,78
166560,note_on,0,0,1,,,,,,,,,0,,,70,0
166560,note_on,480,0,1,,,,,,,,,0,,,73,0
166560,note_on,480,0,2,,,,,,,,,0,,,61,0
166800,note_on,240,0,2,,,,,,,,,0,,,61,0
166800,note_on,0,0,2,,,,,,,,,0,,,56,0
166800,note_on,0,0,2,,,,,,,,,0,,,61,65
166800,note_on,0,0,2,,,,,,,,,0,,,55,58
166800,note_on,0,0,1,,,,,,,,,0,,,73,78
166800,note_on,240,0,1,,,,,,,,,0,,,73,0
166800,note_on,0,0,1,,,,,,,,,0,,,68,0
166800,note_on,0,0,1,,,,,,,,,0,,,67,70
167040,note_on,0,0,1,,,,,,,,,0,,,70,72
167040,note_on,0,0,1,,,,,,,,,0,,,73,81
167040,note_on,240,0,1,,,,,,,,,0,,,73,0
167040,set_tempo,480,1,0,,,,,,265498,,,,,,,
167040,note_on,0,0,1,,,,,,,,,0,,,67,72
167040,note_on,0,0,2,,,,,,,,,0,,,61,68
167040,note_on,0,0,2,,,,,,,,,0,,,55,61
167040,note_on,0,0,2,,,,,,,,,0,,,55,0
167040,note_on,240,0,2,,,,,,,,,0,,,61,0
167040,note_on,0,0,1,,,,,,,,,0,,,67,0
167520,note_on,0,0,1,,,,,,,,,0,,,65,69
167520,note_on,0,0,1,,,,,,,,,0,,,67,0
167520,note_on,0,0,1,,,,,,,,,0,,,70,0
167520,note_on,480,0,1,,,,,,,,,0,,,73,0
167520,note_on,480,0,2,,,,,,,,,0,,,61,0
167520,note_on,0,0,2,,,,,,,,,0,,,53,58
167520,note_on,0,0,2,,,,,,,,,0,,,55,0
167520,note_on,0,0,1,,,,,,,,,0,,,68,69
167520,set_tempo,480,1,0,,,,,,268240,,,,,,,
167520,note_on,0,0,2,,,,,,,,,0,,,61,65
167520,note_on,0,0,1,,,,,,,,,0,,,73,77
167760,note_on,0,0,2,,,,,,,,,0,,,61,65
167760,note_on,0,0,1,,,,,,,,,0,,,68,0
167760,note_on,0,0,1,,,,,,,,,0,,,73,77
167760,note_on,0,0,1,,,,,,,,,0,,,67,69
167760,set_tempo,240,1,0,,,,,,295829,,,,,,,
167760,note_on,240,0,1,,,,,,,,,0,,,73,0
167760,note_on,0,0,2,,,,,,,,,0,,,53,0
167760,note_on,240,0,2,,,,,,,,,0,,,61,0
167760,note_on,0,0,1,,,,,,,,,0,,,65,0
167760,note_on,0,0,2,,,,,,,,,0,,,52,58
167760,note_on,0,0,1,,,,,,,,,0,,,64,69
167990,note_on,0,0,1,,,,,,,,,0,,,64,0
167990,note_on,230,0,2,,,,,,,,,0,,,61,0
167990,note_on,230,0,1,,,,,,,,,0,,,73,0
167990,note_on,0,0,1,,,,,,,,,0,,,67,0
167990,note_on,0,0,2,,,,,,,,,0,,,52,0
168000,note_on,10,0,2,,,,,,,,,0,,,36,76
168000,note_on,0,0,2,,,,,,,,,0,,,48,85
168000,note_on,10,0,1,,,,,,,,,0,,,84,102
168000,note_on,0,0,1,,,,,,,,,0,,,82,91
168000,note_on,0,0,1,,,,,,,,,0,,,79,91
168000,set_tempo,240,1,0,,,,,,271764,,,,,,,
168480,note_on,0,0,2,,,,,,,,,0,,,36,0
168480,note_on,480,0,1,,,,,,,,,0,,,79,0
168480,note_on,0,0,1,,,,,,,,,0,,,82,0
168480,set_tempo,480,1,0,,,,,,282899,,,,,,,
168480,note_on,480,0,2,,,,,,,,,0,,,48,0
168480,note_on,0,0,1,,,,,,,,,0,,,84,92
168480,note_on,0,0,1,,,,,,,,,0,,,84,0
168480,note_on,0,0,1,,,,,,,,,0,,,77,82
168480,note_on,0,0,1,,,,,,,,,0,,,80,82
168480,note_on,0,0,2,,,,,,,,,0,,,48,79
168720,note_on,0,0,1,,,,,,,,,0,,,80,0
168720,note_on,240,0,1,,,,,,,,,0,,,84,0
168720,note_on,0,0,1,,,,,,,,,0,,,77,0
168720,note_on,0,0,1,,,,,,,,,0,,,84,92
168720,note_on,0,0,1,,,,,,,,,0,,,76,82
168720,note_on,0,0,2,,,,,,,,,0,,,48,79
168720,note_on,240,0,2,,,,,,,,,0,,,48,0
168720,note_on,0,0,1,,,,,,,,,0,,,79,82
168950,note_on,230,0,2,,,,,,,,,0,,,48,0
168950,note_on,0,0,1,,,,,,,,,0,,,76,0
168950,note_on,0,0,1,,,,,,,,,0,,,79,0
168950,note_on,230,0,1,,,,,,,,,0,,,84,0
168960,note_on,0,0,1,,,,,,,,,0,,,73,56
168960,note_on,0,0,1,,,,,,,,,0,,,70,50
168960,note_on,10,0,1,,,,,,,,,0,,,67,50
168960,note_on,10,0,2,,,,,,,,,0,,,55,40
168960,note_on,0,0,2,,,,,,,,,0,,,61,45
168960,set_tempo,480,1,0,,,,,,265498,,,,,,,
169440,note_on,0,0,2,,,,,,,,,0,,,61,40
169440,note_on,0,0,1,,,,,,,,,0,,,73,49
169440,note_on,0,0,1,,,,,,,,,0,,,68,44
169440,set_tempo,480,1,0,,,,,,268240,,,,,,,
169440,note_on,0,0,1,,,,,,,,,0,,,65,44
169440,note_on,0,0,1,,,,,,,,,0,,,67,0
169440,note_on,480,0,1,,,,,,,,,0,,,73,0
169440,note_on,480,0,2,,,,,,,,,0,,,61,0
169440,note_on,0,0,2,,,,,,,,,0,,,55,0
169440,note_on,0,0,2,,,,,,,,,0,,,53,36
169440,note_on,0,0,1,,,,,,,,,0,,,70,0
169680,note_on,0,0,1,,,,,,,,,0,,,65,0
169680,note_on,240,0,1,,,,,,,,,0,,,73,0
169680,note_on,0,0,1,,,,,,,,,0,,,68,0
169680,note_on,0,0,1,,,,,,,,,0,,,64,44
169680,note_on,240,0,2,,,,,,,,,0,,,61,0
169680,note_on,0,0,1,,,,,,,,,0,,,73,49
169680,note_on,0,0,2,,,,,,,,,0,,,53,0
169680,note_on,0,0,2,,,,,,,,,0,,,52,36
169680,set_tempo,240,1,0,,,,,,303644,,,,,,,
169680,note_on,0,0,2,,,,,,,,,0,,,61,40
169680,note_on,0,0,1,,,,,,,,,0,,,67,44
169910,note_on,230,0,1,,,,,,,,,0,,,73,0
169910,note_on,0,0,1,,,,,,,,,0,,,67,0
169910,note_on,0,0,1,,,,,,,,,0,,,64,0
169910,note_on,230,0,2,,,,,,,,,0,,,61,0
169910,note_on,0,0,2,,,,,,,,,0,,,52,0
169920,note_on,10,0,1,,,,,,,,,0,,,84,100
169920,note_on,0,0,2,,,,,,,,,0,,,48,85
169920,set_tempo,240,1,0,,,,,,276855,,,,,,,
169920,note_on,0,0,1,,,,,,,,,0,,,79,90
169920,note_on,0,0,1,,,,,,,,,0,,,82,90
169920,note_on,10,0,2,,,,,,,,,0,,,36,76
170400,set_tempo,480,1,0,,,,,,287618,,,,,,,
170400,note_on,0,0,1,,,,,,,,,0,,,80,82
170400,note_on,0,0,1,,,,,,,,,0,,,84,92
170400,note_on,0,0,1,,,,,,,,,0,,,82,0
170400,note_on,0,0,2,,,,,,,,,0,,,48,79
170400,note_on,0,0,2,,,,,,,,,0,,,36,0
170400,note_on,480,0,1,,,,,,,,,0,,,79,0
170400,note_on,0,0,1,,,,,,,,,0,,,77,82
170400,note_on,0,0,1,,,,,,,,,0,,,84,0
170400,note_on,480,0,2,,,,,,,,,0,,,48,0
170640,note_on,0,0,2,,,,,,,,,0,,,48,79
170640,note_on,0,0,1,,,,,,,,,0,,,84,92
170640,note_on,0,0,1,,,,,,,,,0,,,76,82
170640,note_on,0,0,1,,,,,,,,,0,,,79,82
170640,note_on,0,0,1,,,,,,,,,0,,,80,0
170640,note_on,240,0,1,,,,,,,,,0,,,84,0
170640,note_on,240,0,2,,,,,,,,,0,,,48,0
170640,note_on,0,0,1,,,,,,,,,0,,,77,0
170870,note_on,230,0,1,,,,,,,,,0,,,84,0
170870,note_on,0,0,1,,,,,,,,,0,,,79,0
170870,note_on,0,0,1,,,,,,,,,0,,,76,0
170870,note_on,230,0,2,,,,,,,,,0,,,48,0
170880,note_on,10,0,1,,,,,,,,,0,,,60,48
170880,set_tempo,480,1,0,,,,,,265498,,,,,,,
170880,note_on,10,0,2,,,,,,,,,0,,,48,40
171120,note_on,240,0,1,,,,,,,,,0,,,60,0
171120,note_on,240,0,2,,,,,,,,,0,,,48,0
171360,note_on,240,0,2,,,,,,,,,0,,,49,38
171360,note_on,240,0,1,,,,,,,,,0,,,61,45
171480,note_on,120,0,2,,,,,,,,,0,,,49,0
171480,note_on,120,0,1,,,,,,,,,0,,,61,0
171600,note_on,120,0,2,,,,,,,,,0,,,48,38
171600,note_on,120,0,1,,,,,,,,,0,,,60,45
171720,note_on,120,0,2,,,,,,,,,0,,,48,0
171720,note_on,120,0,1,,,,,,,,,0,,,60,0
171840,note_on,120,0,2,,,,,,,,,0,,,49,40
171840,note_on,120,0,1,,,,,,,,,0,,,61,48
172080,note_on,240,0,1,,,,,,,,,0,,,61,0
172080,note_on,240,0,2,,,,,,,,,0,,,49,0
172320,note_on,240,0,1,,,,,,,,,0,,,60,45
172320,note_on,240,0,2,,,,,,,,,0,,,48,38
172440,note_on,120,0,2,,,,,,,,,0,,,48,0
172440,note_on,120,0,1,,,,,,,,,0,,,60,0
172560,note_on,120,0,1,,,,,,,,,0,,,62,45
172560,note_on,120,0,2,,,,,,,,,0,,,50,38
172680,note_on,120,0,1,,,,,,,,,0,,,62,0
172680,note_on,120,0,2,,,,,,,,,0,,,50,0
172800,note_on,120,0,1,,,,,,,,,0,,,64,48
172800,set_tempo,1920,1,0,,,,,,265498,,,,,,,
172800,note_on,120,0,2,,,,,,,,,0,,,52,40
173040,note_on,240,0,2,,,,,,,,,0,,,52,0
173040,note_on,240,0,1,,,,,,,,,0,,,64,0
173280,note_on,240,0,2,,,,,,,,,0,,,53,38
173280,note_on,240,0,1,,,,,,,,,0,,,65,45
173400,note_on,120,0,1,,,,,,,,,0,,,65,0
173400,note_on,120,0,2,,,,,,,,,0,,,53,0
173520,note_on,120,0,2,,,,,,,,,0,,,52,38
173520,note_on,120,0,1,,,,,,,,,0,,,64,45
173640,note_on,120,0,2,,,,,,,,,0,,,52,0
173640,note_on,120,0,1,,,,,,,,,0,,,64,0
173760,note_on,120,0,2,,,,,,,,,0,,,53,39
173760,note_on,120,0,1,,,,,,,,,0,,,65,48
174000,note_on,240,0,2,,,,,,,,,0,,,53,0
174000,note_on,240,0,1,,,,,,,,,0,,,65,0
174240,note_on,240,0,2,,,,,,,,,0,,,52,42
174240,note_on,240,0,1,,,,,,,,,0,,,64,50
174360,note_on,120,0,2,,,,,,,,,0,,,52,0
174360,note_on,120,0,1,,,,,,,,,0,,,64,0
174480,note_on,120,0,2,,,,,,,,,0,,,54,44
174480,note_on,120,0,1,,,,,,,,,0,,,66,52
174600,note_on,120,0,1,,,,,,,,,0,,,66,0
174600,note_on,120,0,2,,,,,,,,,0,,,54,0
174720,note_on,120,0,2,,,,,,,,,0,,,55,45
174720,note_on,120,0,1,,,,,,,,,0,,,67,54
175200,note_on,0,0,1,,,,,,,,,0,,,68,56
175200,note_on,480,0,1,,,,,,,,,0,,,67,0
175200,note_on,0,0,2,,,,,,,,,0,,,56,47
175200,note_on,480,0,2,,,,,,,,,0,,,55,0
175440,note_on,0,0,1,,,,,,,,,0,,,67,58
175440,note_on,240,0,1,,,,,,,,,0,,,68,0
175440,note_on,0,0,2,,,,,,,,,0,,,55,49
175440,note_on,240,0,2,,,,,,,,,0,,,56,0
175680,note_on,240,0,2,,,,,,,,,0,,,55,0
175680,note_on,0,0,1,,,,,,,,,0,,,70,60
175680,note_on,240,0,1,,,,,,,,,0,,,67,0
175680,note_on,0,0,2,,,,,,,,,0,,,58,51
176160,note_on,480,0,1,,,,,,,,,0,,,70,0
176160,note_on,0,0,1,,,,,,,,,0,,,68,63
176160,note_on,480,0,2,,,,,,,,,0,,,58,0
176160,note_on,0,0,2,,,,,,,,,0,,,56,54
176400,note_on,0,0,2,,,,,,,,,0,,,61,55
176400,note_on,0,0,1,,,,,,,,,0,,,73,64
176400,note_on,240,0,1,,,,,,,,,0,,,68,0
176400,note_on,240,0,2,,,,,,,,,0,,,56,0
176640,set_tempo,3840,1,0,,,,,,264819,,,,,,,
176640,note_on,240,0,1,,,,,,,,,0,,,73,0
176640,note_on,0,0,1,,,,,,,,,0,,,72,66
176640,note_on,0,0,2,,,,,,,,,0,,,60,56
176640,note_on,240,0,2,,,,,,,,,0,,,61,0
176840,set_tempo,200,1,0,,,,,,265498,,,,,,,
177040,set_tempo,200,1,0,,,,,,266182,,,,,,,
177120,note_on,480,0,2,,,,,,,,,0,,,60,0
177120,note_on,0,0,2,,,,,,,,,0,,,62,60
177120,note_on,480,0,1,,,,,,,,,0,,,72,0
177120,note_on,0,0,1,,,,,,,,,0,,,74,70
177220,set_tempo,180,1,0,,,,,,266868,,,,,,,
177360,note_on,240,0,2,,,,,,,,,0,,,62,0
177360,note_on,240,0,1,,,,,,,,,0,,,74,0
177360,note_on,0,0,2,,,,,,,,,0,,,63,61
177360,note_on,0,0,1,,,,,,,,,0,,,75,72
177420,set_tempo,200,1,0,,,,,,267547,,,,,,,
177600,note_on,240,0,2,,,,,,,,,0,,,63,0
177600,note_on,0,0,2,,,,,,,,,0,,,64,62
177600,note_on,240,0,1,,,,,,,,,0,,,75,0
177600,set_tempo,180,1,0,,,,,,268240,,,,,,,
177600,note_on,0,0,1,,,,,,,,,0,,,76,72
177640,set_tempo,40,1,0,,,,,,268938,,,,,,,
177660,set_tempo,20,1,0,,,,,,269639,,,,,,,
177680,set_tempo,20,1,0,,,,,,270343,,,,,,,
177700,set_tempo,20,1,0,,,,,,271052,,,,,,,
177720,set_tempo,20,1,0,,,,,,271764,,,,,,,
177740,set_tempo,20,1,0,,,,,,272480,,,,,,,
177760,set_tempo,20,1,0,,,,,,273199,,,,,,,
177780,set_tempo,20,1,0,,,,,,273923,,,,,,,
177820,set_tempo,40,1,0,,,,,,274650,,,,,,,
177840,set_tempo,20,1,0,,,,,,275381,,,,,,,
177860,set_tempo,20,1,0,,,,,,276116,,,,,,,
177880,set_tempo,20,1,0,,,,,,276855,,,,,,,
177900,set_tempo,20,1,0,,,,,,277598,,,,,,,
177920,set_tempo,20,1,0,,,,,,278345,,,,,,,
177940,set_tempo,20,1,0,,,,,,279096,,,,,,,
177960,set_tempo,20,1,0,,,,,,279838,,,,,,,
178000,set_tempo,40,1,0,,,,,,280597,,,,,,,
178020,set_tempo,20,1,0,,,,,,281360,,,,,,,
178040,set_tempo,20,1,0,,,,,,282127,,,,,,,
178060,set_tempo,20,1,0,,,,,,282899,,,,,,,
178080,note_on,480,0,2,,,,,,,,,0,,,64,0
178080,note_on,0,0,2,,,,,,,,,0,,,65,65
178080,note_on,480,0,1,,,,,,,,,0,,,76,0
178080,note_on,0,0,1,,,,,,,,,0,,,77,76
178080,set_tempo,20,1,0,,,,,,283675,,,,,,,
178100,set_tempo,20,1,0,,,,,,284455,,,,,,,
178120,set_tempo,20,1,0,,,,,,285239,,,,,,,
178140,set_tempo,20,1,0,,,,,,286028,,,,,,,
178160,set_tempo,20,1,0,,,,,,286821,,,,,,,
178200,set_tempo,40,1,0,,,,,,287618,,,,,,,
178220,set_tempo,20,1,0,,,,,,288420,,,,,,,
178240,set_tempo,20,1,0,,,,,,289226,,,,,,,
178260,set_tempo,20,1,0,,,,,,290037,,,,,,,
178280,set_tempo,20,1,0,,,,,,290853,,,,,,,
178300,set_tempo,20,1,0,,,,,,291673,,,,,,,
178320,note_on,0,0,2,,,,,,,,,0,,,67,67
178320,note_on,0,0,1,,,,,,,,,0,,,79,78
178320,note_on,240,0,1,,,,,,,,,0,,,77,0
178320,note_on,240,0,2,,,,,,,,,0,,,65,0
178320,set_tempo,20,1,0,,,,,,292497,,,,,,,
178340,set_tempo,20,1,0,,,,,,293312,,,,,,,
178380,set_tempo,40,1,0,,,,,,294146,,,,,,,
178400,set_tempo,20,1,0,,,,,,313758,,,,,,,
178560,note_on,0,0,2,,,,,,,,,0,,,53,68
178560,note_on,0,0,2,,,,,,,,,0,,,41,61
178560,note_on,240,0,2,,,,,,,,,0,,,67,0
178560,set_tempo,160,1,0,,,,,,265498,,,,,,,
178560,note_on,0,0,1,,,,,,,,,0,,,80,81
178560,note_on,0,0,1,,,,,,,,,0,,,68,72
178560,note_on,0,0,1,,,,,,,,,0,,,72,72
178560,note_on,240,0,1,,,,,,,,,0,,,79,0
178602,control_change,42,0,2,,,,,,,,,0,64,127,,
179040,set_tempo,480,1,0,,,,,,267547,,,,,,,
179040,note_on,0,0,2,,,,,,,,,0,,,53,66
179040,note_on,0,0,2,,,,,,,,,0,,,41,0
179040,note_on,438,0,2,,,,,,,,,0,,,53,0
179040,note_on,480,0,1,,,,,,,,,0,,,80,0
179040,note_on,0,0,1,,,,,,,,,0,,,68,0
179040,note_on,0,0,1,,,,,,,,,0,,,72,0
179040,note_on,0,0,1,,,,,,,,,0,,,79,77
179040,note_on,0,0,1,,,,,,,,,0,,,68,69
179040,note_on,0,0,1,,,,,,,,,0,,,72,69
179160,note_on,120,0,2,,,,,,,,,0,,,53,0
179160,note_on,0,0,1,,,,,,,,,0,,,72,0
179160,note_on,0,0,1,,,,,,,,,0,,,79,0
179160,note_on,120,0,1,,,,,,,,,0,,,68,0
179280,note_on,0,0,1,,,,,,,,,0,,,68,69
179280,note_on,0,0,1,,,,,,,,,0,,,72,69
179280,note_on,120,0,1,,,,,,,,,0,,,77,77
179280,note_on,120,0,2,,,,,,,,,0,,,53,66
179400,note_on,120,0,1,,,,,,,,,0,,,68,0
179400,note_on,120,0,2,,,,,,,,,0,,,53,0
179400,note_on,0,0,1,,,,,,,,,0,,,72,0
179400,note_on,0,0,1,,,,,,,,,0,,,77,0
179520,note_on,120,0,2,,,,,,,,,0,,,41,61
179520,note_on,0,0,1,,,,,,,,,0,,,72,72
179520,note_on,0,0,1,,,,,,,,,0,,,68,72
179520,note_on,120,0,1,,,,,,,,,0,,,77,81
179520,set_tempo,480,1,0,,,,,,265498,,,,,,,
179520,note_on,0,0,2,,,,,,,,,0,,,53,68
179632,control_change,112,0,2,,,,,,,,,0,64,0,,
179972,control_change,340,0,2,,,,,,,,,0,64,127,,
180000,note_on,480,0,1,,,,,,,,,0,,,68,0
180000,note_on,0,0,1,,,,,,,,,0,,,72,0
180000,note_on,0,0,1,,,,,,,,,0,,,77,0
180000,note_on,0,0,1,,,,,,,,,0,,,72,78
180000,note_on,0,0,1,,,,,,,,,0,,,68,70
180000,note_on,28,0,2,,,,,,,,,0,,,53,0
180000,note_on,0,0,2,,,,,,,,,0,,,41,0
180000,note_on,0,0,2,,,,,,,,,0,,,53,66
180000,set_tempo,480,1,0,,,,,,268240,,,,,,,
180240,note_on,240,0,2,,,,,,,,,0,,,53,0
180240,note_on,0,0,2,,,,,,,,,0,,,53,65
180240,note_on,240,0,1,,,,,,,,,0,,,72,0
180240,note_on,0,0,1,,,,,,,,,0,,,68,70
180240,note_on,0,0,1,,,,,,,,,0,,,72,78
180240,note_on,0,0,1,,,,,,,,,0,,,68,0
180480,note_on,0,0,1,,,,,,,,,0,,,77,81
180480,note_on,0,0,1,,,,,,,,,0,,,70,72
180480,note_on,0,0,1,,,,,,,,,0,,,73,72
180480,note_on,0,0,1,,,,,,,,,0,,,68,0
180480,set_tempo,480,1,0,,,,,,265498,,,,,,,
180480,note_on,240,0,2,,,,,,,,,0,,,53,0
180480,note_on,0,0,2,,,,,,,,,0,,,41,61
180480,note_on,0,0,2,,,,,,,,,0,,,53,68
180480,note_on,240,0,1,,,,,,,,,0,,,72,0
180692,control_change,212,0,2,,,,,,,,,0,64,0,,
180960,note_on,0,0,1,,,,,,,,,0,,,73,0
180960,note_on,0,0,1,,,,,,,,,0,,,73,77
180960,note_on,0,0,1,,,,,,,,,0,,,70,69
180960,note_on,0,0,1,,,,,,,,,0,,,77,0
180960,note_on,480,0,1,,,,,,,,,0,,,70,0
180960,set_tempo,480,1,0,,,,,,267547,,,,,,,
180960,note_on,0,0,2,,,,,,,,,0,,,53,66
180960,note_on,0,0,2,,,,,,,,,0,,,41,0
180960,note_on,268,0,2,,,,,,,,,0,,,53,0
181004,control_change,44,0,2,,,,,,,,,0,64,127,,
181200,note_on,240,0,1,,,,,,,,,0,,,73,0
181200,note_on,0,0,1,,,,,,,,,0,,,73,76
181200,note_on,0,0,1,,,,,,,,,0,,,70,0
181200,note_on,0,0,1,,,,,,,,,0,,,70,68
181200,note_on,0,0,2,,,,,,,,,0,,,53,66
181200,note_on,196,0,2,,,,,,,,,0,,,53,0
181440,note_on,0,0,1,,,,,,,,,0,,,77,81
181440,note_on,240,0,2,,,,,,,,,0,,,53,0
181440,set_tempo,480,1,0,,,,,,265498,,,,,,,
181440,note_on,0,0,2,,,,,,,,,0,,,53,68
181440,note_on,0,0,1,,,,,,,,,0,,,68,72
181440,note_on,0,0,1,,,,,,,,,0,,,72,72
181440,note_on,0,0,1,,,,,,,,,0,,,70,0
181440,note_on,240,0,1,,,,,,,,,0,,,73,0
181440,note_on,0,0,2,,,,,,,,,0,,,41,61
181624,control_change,184,0,2,,,,,,,,,0,64,0,,
181910,note_on,0,0,2,,,,,,,,,0,,,41,0
181910,note_on,286,0,2,,,,,,,,,0,,,53,0
181910,note_on,0,0,1,,,,,,,,,0,,,77,0
181910,note_on,0,0,1,,,,,,,,,0,,,72,0
181910,note_on,470,0,1,,,,,,,,,0,,,68,0
181920,set_tempo,480,1,0,,,,,,272480,,,,,,,
181920,note_on,10,0,1,,,,,,,,,0,,,68,49
181920,note_on,10,0,2,,,,,,,,,0,,,53,45
181920,note_on,0,0,1,,,,,,,,,0,,,72,55
181936,control_change,16,0,2,,,,,,,,,0,64,127,,
182160,note_on,240,0,1,,,,,,,,,0,,,72,0
182160,note_on,0,0,2,,,,,,,,,0,,,53,45
182160,note_on,224,0,2,,,,,,,,,0,,,53,0
182160,note_on,0,0,1,,,,,,,,,0,,,68,0
182160,note_on,0,0,1,,,,,,,,,0,,,68,49
182160,note_on,0,0,1,,,,,,,,,0,,,72,55
182400,note_on,0,0,1,,,,,,,,,0,,,72,48
182400,note_on,0,0,1,,,,,,,,,0,,,68,43
182400,set_tempo,480,1,0,,,,,,265498,,,,,,,
182400,note_on,0,0,2,,,,,,,,,0,,,41,40
182400,note_on,0,0,2,,,,,,,,,0,,,29,36
182400,note_on,240,0,2,,,,,,,,,0,,,53,0
182400,note_on,240,0,1,,,,,,,,,0,,,72,0
182400,note_on,0,0,1,,,,,,,,,0,,,68,0
182880,note_on,0,0,1,,,,,,,,,0,,,68,0
182880,note_on,480,0,1,,,,,,,,,0,,,72,0
182880,note_on,0,0,2,,,,,,,,,0,,,41,38
182880,note_on,0,0,1,,,,,,,,,0,,,67,43
182880,note_on,480,0,2,,,,,,,,,0,,,41,0
182880,note_on,0,0,2,,,,,,,,,0,,,29,0
182880,set_tempo,480,1,0,,,,,,268240,,,,,,,
182880,note_on,0,0,1,,,,,,,,,0,,,68,43
182880,note_on,0,0,1,,,,,,,,,0,,,72,48
183000,note_on,120,0,1,,,,,,,,,0,,,72,0
183000,note_on,0,0,1,,,,,,,,,0,,,67,0
183000,note_on,120,0,2,,,,,,,,,0,,,41,0
183000,note_on,0,0,1,,,,,,,,,0,,,68,0
183120,note_on,120,0,2,,,,,,,,,0,,,41,38
183120,note_on,120,0,1,,,,,,,,,0,,,65,40
183120,note_on,0,0,1,,,,,,,,,0,,,68,40
183120,note_on,0,0,1,,,,,,,,,0,,,72,45
183240,note_on,0,0,1,,,,,,,,,0,,,65,0
183240,note_on,0,0,1,,,,,,,,,0,,,68,0
183240,note_on,120,0,1,,,,,,,,,0,,,72,0
183240,note_on,120,0,2,,,,,,,,,0,,,41,0
183360,note_on,0,0,1,,,,,,,,,0,,,72,45
183360,set_tempo,480,1,0,,,,,,265498,,,,,,,
183360,note_on,120,0,2,,,,,,,,,0,,,29,36
183360,note_on,0,0,2,,,,,,,,,0,,,41,40
183360,note_on,0,0,1,,,,,,,,,0,,,68,40
183360,note_on,120,0,1,,,,,,,,,0,,,65,40
183656,control_change,296,0,2,,,,,,,,,0,64,0,,
183840,note_on,480,0,1,,,,,,,,,0,,,72,0
183840,note_on,0,0,1,,,,,,,,,0,,,68,0
183840,note_on,0,0,1,,,,,,,,,0,,,65,0
183840,note_on,0,0,1,,,,,,,,,0,,,68,43
183840,note_on,0,0,1,,,,,,,,,0,,,72,48
183840,note_on,0,0,1,,,,,,,,,0,,,60,43
183840,set_tempo,480,1,0,,,,,,268240,,,,,,,
183840,note_on,184,0,2,,,,,,,,,0,,,41,0
183840,note_on,0,0,2,,,,,,,,,0,,,29,0
183840,note_on,0,0,2,,,,,,,,,0,,,41,38
183940,control_change,100,0,2,,,,,,,,,0,64,127,,
184080,note_on,140,0,2,,,,,,,,,0,,,41,0
184080,note_on,0,0,1,,,,,,,,,0,,,72,45
184080,note_on,0,0,1,,,,,,,,,0,,,68,40
184080,note_on,0,0,1,,,,,,,,,0,,,60,0
184080,note_on,0,0,1,,,,,,,,,0,,,68,0
184080,note_on,240,0,1,,,,,,,,,0,,,72,0
184080,note_on,0,0,1,,,,,,,,,0,,,60,40
184080,note_on,0,0,2,,,,,,,,,0,,,41,38
184320,note_on,0,0,1,,,,,,,,,0,,,73,45
184320,note_on,240,0,1,,,,,,,,,0,,,72,0
184320,note_on,240,0,2,,,,,,,,,0,,,41,0
184320,note_on,0,0,1,,,,,,,,,0,,,60,0
184320,note_on,0,0,2,,,,,,,,,0,,,41,40
184320,note_on,0,0,1,,,,,,,,,0,,,70,40
184320,note_on,0,0,1,,,,,,,,,0,,,65,40
184320,note_on,0,0,2,,,,,,,,,0,,,29,36
184320,note_on,0,0,1,,,,,,,,,0,,,68,0
184320,set_tempo,480,1,0,,,,,,265498,,,,,,,
184616,control_change,296,0,2,,,,,,,,,0,64,0,,
184800,set_tempo,480,1,0,,,,,,267547,,,,,,,
184800,note_on,184,0,2,,,,,,,,,0,,,41,0
184800,note_on,0,0,2,,,,,,,,,0,,,41,38
184800,note_on,480,0,1,,,,,,,,,0,,,65,0
184800,note_on,0,0,1,,,,,,,,,0,,,70,0
184800,note_on,0,0,1,,,,,,,,,0,,,73,0
184800,note_on,0,0,1,,,,,,,,,0,,,61,43
184800,note_on,0,0,1,,,,,,,,,0,,,70,43
184800,note_on,0,0,1,,,,,,,,,0,,,73,48
184800,note_on,0,0,2,,,,,,,,,0,,,29,0
184900,control_change,100,0,2,,,,,,,,,0,64,127,,
185040,note_on,0,0,1,,,,,,,,,0,,,70,40
185040,note_on,0,0,1,,,,,,,,,0,,,73,45
185040,note_on,0,0,1,,,,,,,,,0,,,61,40
185040,note_on,140,0,2,,,,,,,,,0,,,41,0
185040,note_on,240,0,1,,,,,,,,,0,,,73,0
185040,note_on,0,0,1,,,,,,,,,0,,,70,0
185040,note_on,0,0,1,,,,,,,,,0,,,61,0
185040,note_on,0,0,2,,,,,,,,,0,,,41,38
185280,note_on,0,0,1,,,,,,,,,0,,,70,0
185280,note_on,0,0,1,,,,,,,,,0,,,61,0
185280,note_on,0,0,1,,,,,,,,,0,,,65,40
185280,note_on,0,0,1,,,,,,,,,0,,,68,40
185280,note_on,0,0,1,,,,,,,,,0,,,72,45
185280,note_on,240,0,1,,,,,,,,,0,,,73,0
185280,note_on,240,0,2,,,,,,,,,0,,,41,0
185280,note_on,0,0,2,,,,,,,,,0,,,29,36
185280,note_on,0,0,2,,,,,,,,,0,,,41,40
185280,set_tempo,480,1,0,,,,,,265498,,,,,,,
185760,note_on,0,0,1,,,,,,,,,0,,,65,0
185760,note_on,0,0,2,,,,,,,,,0,,,41,38
185760,note_on,0,0,2,,,,,,,,,0,,,29,0
185760,note_on,480,0,2,,,,,,,,,0,,,41,0
185760,note_on,480,0,1,,,,,,,,,0,,,72,0
185760,note_on,0,0,1,,,,,,,,,0,,,68,0
185760,note_on,0,0,1,,,,,,,,,0,,,60,40
185760,set_tempo,480,1,0,,,,,,271764,,,,,,,
185760,note_on,0,0,1,,,,,,,,,0,,,72,45
185760,note_on,0,0,1,,,,,,,,,0,,,68,40
186000,note_on,240,0,1,,,,,,,,,0,,,72,0
186000,note_on,0,0,1,,,,,,,,,0,,,68,0
186000,note_on,0,0,1,,,,,,,,,0,,,60,0
186000,note_on,0,0,1,,,,,,,,,0,,,60,40
186000,note_on,0,0,1,,,,,,,,,0,,,68,40
186000,note_on,0,0,1,,,,,,,,,0,,,72,45
186000,note_on,240,0,2,,,,,,,,,0,,,41,0
186000,note_on,0,0,2,,,,,,,,,0,,,41,38
186084,control_change,84,0,2,,,,,,,,,0,64,0,,
186240,note_on,156,0,2,,,,,,,,,0,,,41,0
186240,note_on,0,0,1,,,,,,,,,0,,,68,0
186240,note_on,0,0,1,,,,,,,,,0,,,60,0
186240,note_on,0,0,1,,,,,,,,,0,,,70,49
186240,note_on,0,0,1,,,,,,,,,0,,,76,55
186240,note_on,0,0,2,,,,,,,,,0,,,58,47
186240,note_on,0,0,1,,,,,,,,,0,,,73,49
186240,note_on,240,0,1,,,,,,,,,0,,,72,0
186240,set_tempo,480,1,0,,,,,,265498,,,,,,,
186303,control_change,63,0,2,,,,,,,,,0,64,127,,
186720,note_on,480,0,1,,,,,,,,,0,,,70,0
186720,note_on,0,0,1,,,,,,,,,0,,,73,0
186720,note_on,0,0,1,,,,,,,,,0,,,76,0
186720,note_on,0,0,1,,,,,,,,,0,,,73,46
186720,note_on,0,0,1,,,,,,,,,0,,,67,46
186720,note_on,0,0,1,,,,,,,,,0,,,76,52
186720,note_on,417,0,2,,,,,,,,,0,,,58,0
186720,note_on,0,0,2,,,,,,,,,0,,,55,44
186720,set_tempo,480,1,0,,,,,,267547,,,,,,,
186960,note_on,0,0,2,,,,,,,,,0,,,55,44
186960,note_on,0,0,1,,,,,,,,,0,,,67,46
186960,note_on,0,0,1,,,,,,,,,0,,,73,46
186960,note_on,0,0,1,,,,,,,,,0,,,76,52
186960,note_on,0,0,1,,,,,,,,,0,,,76,0
186960,note_on,0,0,1,,,,,,,,,0,,,73,0
186960,note_on,240,0,1,,,,,,,,,0,,,67,0
186960,note_on,240,0,2,,,,,,,,,0,,,55,0
187068,control_change,108,0,2,,,,,,,,,0,64,0,,
187200,note_on,0,0,1,,,,,,,,,0,,,77,61
187200,note_on,0,0,1,,,,,,,,,0,,,72,54
187200,note_on,0,0,1,,,,,,,,,0,,,68,54
187200,note_on,0,0,1,,,,,,,,,0,,,73,0
187200,set_tempo,480,1,0,,,,,,265498,,,,,,,
187200,note_on,240,0,1,,,,,,,,,0,,,67,0
187200,note_on,0,0,1,,,,,,,,,0,,,76,0
187200,note_on,0,0,2,,,,,,,,,0,,,56,53
187200,note_on,132,0,2,,,,,,,,,0,,,55,0
187299,control_change,99,0,2,,,,,,,,,0,64,127,,
187680,note_on,0,0,1,,,,,,,,,0,,,72,52
187680,note_on,0,0,1,,,,,,,,,0,,,65,52
187680,note_on,0,0,1,,,,,,,,,0,,,68,0
187680,note_on,0,0,1,,,,,,,,,0,,,72,0
187680,note_on,480,0,1,,,,,,,,,0,,,77,0
187680,note_on,381,0,2,,,,,,,,,0,,,56,0
187680,note_on,0,0,2,,,,,,,,,0,,,53,51
187680,note_on,0,0,1,,,,,,,,,0,,,77,58
187680,set_tempo,480,1,0,,,,,,268240,,,,,,,
187920,note_on,240,0,1,,,,,,,,,0,,,77,0
187920,note_on,0,0,1,,,,,,,,,0,,,65,0
187920,note_on,0,0,2,,,,,,,,,0,,,53,51
187920,note_on,240,0,2,,,,,,,,,0,,,53,0
187920,note_on,0,0,1,,,,,,,,,0,,,65,52
187920,note_on,0,0,1,,,,,,,,,0,,,72,0
187920,note_on,0,0,1,,,,,,,,,0,,,77,58
187920,note_on,0,0,1,,,,,,,,,0,,,72,52
187992,control_change,72,0,2,,,,,,,,,0,64,0,,
188160,note_on,0,0,1,,,,,,,,,0,,,79,67
188160,note_on,0,0,1,,,,,,,,,0,,,72,60
188160,note_on,0,0,1,,,,,,,,,0,,,65,0
188160,note_on,0,0,1,,,,,,,,,0,,,67,60
188160,note_on,0,0,1,,,,,,,,,0,,,72,0
188160,note_on,168,0,2,,,,,,,,,0,,,53,0
188160,note_on,0,0,2,,,,,,,,,0,,,52,57
188160,set_tempo,480,1,0,,,,,,265498,,,,,,,
188160,note_on,240,0,1,,,,,,,,,0,,,77,0
188251,control_change,91,0,2,,,,,,,,,0,64,127,,
188640,note_on,0,0,1,,,,,,,,,0,,,76,60
188640,note_on,480,0,1,,,,,,,,,0,,,72,0
188640,note_on,0,0,2,,,,,,,,,0,,,48,50
188640,note_on,389,0,2,,,,,,,,,0,,,52,0
188640,note_on,0,0,1,,,,,,,,,0,,,67,0
188640,note_on,0,0,1,,,,,,,,,0,,,67,54
188640,set_tempo,480,1,0,,,,,,268240,,,,,,,
188640,note_on,0,0,1,,,,,,,,,0,,,72,54
188640,note_on,0,0,1,,,,,,,,,0,,,79,0
188880,note_on,240,0,1,,,,,,,,,0,,,67,0
188880,note_on,0,0,1,,,,,,,,,0,,,72,54
188880,note_on,0,0,1,,,,,,,,,0,,,76,60
188880,note_on,0,0,1,,,,,,,,,0,,,76,0
188880,note_on,0,0,1,,,,,,,,,0,,,72,0
188880,note_on,0,0,1,,,,,,,,,0,,,67,54
188880,note_on,0,0,2,,,,,,,,,0,,,48,51
188880,note_on,240,0,2,,,,,,,,,0,,,48,0
188984,control_change,104,0,2,,,,,,,,,0,64,0,,
189120,note_on,0,0,1,,,,,,,,,0,,,72,65
189120,set_tempo,480,1,0,,,,,,265498,,,,,,,
189120,note_on,0,0,2,,,,,,,,,0,,,53,63
189120,note_on,136,0,2,,,,,,,,,0,,,48,0
189120,note_on,240,0,1,,,,,,,,,0,,,67,0
189120,note_on,0,0,1,,,,,,,,,0,,,72,0
189120,note_on,0,0,1,,,,,,,,,0,,,76,0
189120,note_on,0,0,1,,,,,,,,,0,,,68,65
189120,note_on,0,0,1,,,,,,,,,0,,,80,73
189205,control_change,85,0,2,,,,,,,,,0,64,127,,
189600,set_tempo,480,1,0,,,,,,267547,,,,,,,
189600,note_on,0,0,1,,,,,,,,,0,,,77,68
189600,note_on,0,0,1,,,,,,,,,0,,,72,0
189600,note_on,395,0,2,,,,,,,,,0,,,53,0
189600,note_on,0,0,2,,,,,,,,,0,,,48,56
189600,note_on,480,0,1,,,,,,,,,0,,,80,0
189600,note_on,0,0,1,,,,,,,,,0,,,72,61
189600,note_on,0,0,1,,,,,,,,,0,,,68,0
189600,note_on,0,0,1,,,,,,,,,0,,,68,61
189840,note_on,240,0,1,,,,,,,,,0,,,77,0
189840,note_on,0,0,1,,,,,,,,,0,,,72,0
189840,note_on,0,0,1,,,,,,,,,0,,,68,0
189840,note_on,0,0,1,,,,,,,,,0,,,68,61
189840,note_on,0,0,1,,,,,,,,,0,,,72,61
189840,note_on,0,0,1,,,,,,,,,0,,,77,68
189840,note_on,0,0,2,,,,,,,,,0,,,48,56
189840,note_on,240,0,2,,,,,,,,,0,,,48,0
189924,control_change,84,0,2,,,,,,,,,0,64,0,,
190080,set_tempo,480,1,0,,,,,,265498,,,,,,,
190080,note_on,156,0,2,,,,,,,,,0,,,48,0
190080,note_on,0,0,1,,,,,,,,,0,,,82,84
190080,note_on,0,0,2,,,,,,,,,0,,,55,72
190080,note_on,0,0,1,,,,,,,,,0,,,68,0
190080,note_on,0,0,1,,,,,,,,,0,,,72,0
190080,note_on,240,0,1,,,,,,,,,0,,,77,0
190080,note_on,0,0,1,,,,,,,,,0,,,72,75
190080,control_change,0,0,2,,,,,,,,,0,64,127,,
190560,note_on,0,0,1,,,,,,,,,0,,,84,77
190560,note_on,0,0,2,,,,,,,,,0,,,48,65
190560,note_on,0,0,1,,,,,,,,,0,,,72,69
190560,note_on,0,0,1,,,,,,,,,0,,,82,0
190560,note_on,480,0,1,,,,,,,,,0,,,72,0
190560,note_on,480,0,2,,,,,,,,,0,,,55,0
190560,set_tempo,480,1,0,,,,,,267547,,,,,,,
190800,note_on,240,0,2,,,,,,,,,0,,,48,0
190800,note_on,0,0,2,,,,,,,,,0,,,48,65
190800,note_on,240,0,1,,,,,,,,,0,,,72,0
190800,note_on,0,0,1,,,,,,,,,0,,,84,0
190800,note_on,0,0,1,,,,,,,,,0,,,84,77
190800,note_on,0,0,1,,,,,,,,,0,,,72,69
190956,control_change,156,0,2,,,,,,,,,0,64,0,,
191040,note_on,240,0,1,,,,,,,,,0,,,72,0
191040,note_on,84,0,2,,,,,,,,,0,,,48,0
191040,note_on,0,0,2,,,,,,,,,0,,,56,76
191040,set_tempo,480,1,0,,,,,,265498,,,,,,,
191040,note_on,0,0,1,,,,,,,,,0,,,72,80
191040,note_on,0,0,1,,,,,,,,,0,,,83,89
191040,note_on,0,0,1,,,,,,,,,0,,,84,0
191436,control_change,396,0,2,,,,,,,,,0,64,127,,
191520,note_on,480,0,1,,,,,,,,,0,,,72,0
191520,note_on,0,0,1,,,,,,,,,0,,,83,0
191520,note_on,0,0,1,,,,,,,,,0,,,84,85
191520,note_on,0,0,1,,,,,,,,,0,,,72,76
191520,set_tempo,480,1,0,,,,,,267547,,,,,,,
191520,note_on,84,0,2,,,,,,,,,0,,,56,0
191520,note_on,0,0,2,,,,,,,,,0,,,48,72
191760,note_on,0,0,1,,,,,,,,,0,,,84,85
191760,note_on,0,0,2,,,,,,,,,0,,,48,72
191760,note_on,0,0,1,,,,,,,,,0,,,84,0
191760,note_on,0,0,1,,,,,,,,,0,,,72,76
191760,note_on,240,0,2,,,,,,,,,0,,,48,0
191760,note_on,240,0,1,,,,,,,,,0,,,72,0
192000,set_tempo,480,1,0,,,,,,280597,,,,,,,
192000,note_on,0,0,1,,,,,,,,,0,,,84,97
192000,note_on,0,0,2,,,,,,,,,0,,,56,82
192000,note_on,0,0,1,,,,,,,,,0,,,72,87
192000,note_on,0,0,1,,,,,,,,,0,,,84,0
192000,note_on,240,0,1,,,,,,,,,0,,,72,0
192000,note_on,240,0,2,,,,,,,,,0,,,48,0
192188,control_change,188,0,2,,,,,,,,,0,64,0,,
192480,note_on,292,0,2,,,,,,,,,0,,,56,0
192480,control_change,0,0,2,,,,,,,,,0,64,127,,
192480,note_on,0,0,2,,,,,,,,,0,,,42,73
192480,note_on,0,0,2,,,,,,,,,0,,,54,82
192480,note_on,0,0,1,,,,,,,,,0,,,73,87
192480,note_on,0,0,1,,,,,,,,,0,,,82,87
192480,note_on,0,0,1,,,,,,,,,0,,,85,97
192480,note_on,0,0,1,,,,,,,,,0,,,84,0
192480,set_tempo,480,1,0,,,,,,277598,,,,,,,
192480,note_on,480,0,1,,,,,,,,,0,,,72,0
192720,note_on,0,0,2,,,,,,,,,0,,,42,0
192720,note_on,240,0,2,,,,,,,,,0,,,54,0
192720,note_on,0,0,1,,,,,,,,,0,,,85,0
192720,note_on,0,0,1,,,,,,,,,0,,,82,0
192720,note_on,240,0,1,,,,,,,,,0,,,73,0
192960,note_on,0,0,1,,,,,,,,,0,,,73,87
192960,note_on,0,0,1,,,,,,,,,0,,,82,87
192960,note_on,240,0,2,,,,,,,,,0,,,42,73
192960,note_on,240,0,1,,,,,,,,,0,,,85,97
192960,note_on,0,0,2,,,,,,,,,0,,,54,82
193200,note_on,240,0,2,,,,,,,,,0,,,54,0
193200,note_on,0,0,2,,,,,,,,,0,,,42,0
193200,note_on,240,0,1,,,,,,,,,0,,,73,0
193200,note_on,0,0,1,,,,,,,,,0,,,82,0
193200,note_on,0,0,1,,,,,,,,,0,,,85,0
193440,note_on,240,0,2,,,,,,,,,0,,,42,73
193440,note_on,0,0,2,,,,,,,,,0,,,54,82
193440,note_on,240,0,1,,,,,,,,,0,,,85,97
193440,note_on,0,0,1,,,,,,,,,0,,,82,87
193440,note_on,0,0,1,,,,,,,,,0,,,73,87
193680,note_on,0,0,1,,,,,,,,,0,,,85,0
193680,note_on,240,0,2,,,,,,,,,0,,,54,0
193680,note_on,240,0,1,,,,,,,,,0,,,73,0
193680,note_on,0,0,1,,,,,,,,,0,,,82,0
193680,note_on,0,0,2,,,,,,,,,0,,,42,0
193920,note_on,240,0,1,,,,,,,,,0,,,85,97
193920,note_on,0,0,1,,,,,,,,,0,,,73,87
193920,note_on,0,0,2,,,,,,,,,0,,,54,82
193920,note_on,240,0,2,,,,,,,,,0,,,42,73
193920,set_tempo,1440,1,0,,,,,,280597,,,,,,,
193920,note_on,0,0,1,,,,,,,,,0,,,82,87
194160,note_on,240,0,2,,,,,,,,,0,,,54,0
194160,note_on,0,0,2,,,,,,,,,0,,,42,0
194160,note_on,0,0,1,,,,,,,,,0,,,82,0
194160,note_on,0,0,1,,,,,,,,,0,,,85,0
194160,note_on,240,0,1,,,,,,,,,0,,,73,0
194272,control_change,112,0,2,,,,,,,,,0,64,0,,
194400,note_on,0,0,1,,,,,,,,,0,,,78,87
194400,note_on,128,0,2,,,,,,,,,0,,,46,73
194400,note_on,0,0,1,,,,,,,,,0,,,85,87
194400,note_on,240,0,1,,,,,,,,,0,,,90,97
194400,set_tempo,480,1,0,,,,,,276116,,,,,,,
194400,note_on,0,0,2,,,,,,,,,0,,,58,82
194428,control_change,28,0,2,,,,,,,,,0,64,127,,
194640,note_on,240,0,1,,,,,,,,,0,,,78,0
194640,note_on,0,0,1,,,,,,,,,0,,,90,0
194640,note_on,0,0,1,,,,,,,,,0,,,85,0
194640,note_on,0,0,2,,,,,,,,,0,,,46,0
194640,note_on,212,0,2,,,,,,,,,0,,,58,0
194880,note_on,240,0,2,,,,,,,,,0,,,61,75
194880,note_on,0,0,2,,,,,,,,,0,,,58,67
194880,note_on,0,0,2,,,,,,,,,0,,,49,67
194880,note_on,0,0,1,,,,,,,,,0,,,78,81
194880,note_on,0,0,1,,,,,,,,,0,,,85,81
194880,note_on,240,0,1,,,,,,,,,0,,,90,90
195360,note_on,480,0,2,,,,,,,,,0,,,49,0
195360,note_on,0,0,2,,,,,,,,,0,,,58,0
195360,note_on,0,0,2,,,,,,,,,0,,,61,0
195360,note_on,0,0,2,,,,,,,,,0,,,49,72
195360,note_on,0,0,2,,,,,,,,,0,,,58,72
195360,note_on,0,0,2,,,,,,,,,0,,,61,80
195360,note_on,0,0,1,,,,,,,,,0,,,78,85
195360,note_on,0,0,1,,,,,,,,,0,,,85,0
195360,note_on,0,0,1,,,,,,,,,0,,,85,85
195360,note_on,0,0,1,,,,,,,,,0,,,90,95
195360,note_on,0,0,1,,,,,,,,,0,,,90,0
195360,set_tempo,960,1,0,,,,,,278345,,,,,,,
195360,note_on,480,0,1,,,,,,,,,0,,,78,0
195600,note_on,0,0,2,,,,,,,,,0,,,61,82
195600,note_on,0,0,2,,,,,,,,,0,,,58,73
195600,note_on,0,0,2,,,,,,,,,0,,,49,73
195600,note_on,0,0,2,,,,,,,,,0,,,49,0
195600,note_on,0,0,2,,,,,,,,,0,,,58,0
195600,note_on,0,0,1,,,,,,,,,0,,,85,87
195600,note_on,240,0,2,,,,,,,,,0,,,61,0
195600,note_on,240,0,1,,,,,,,,,0,,,78,0
195600,note_on,0,0,1,,,,,,,,,0,,,85,0
195600,note_on,0,0,1,,,,,,,,,0,,,90,0
195600,note_on,0,0,1,,,,,,,,,0,,,90,97
195600,note_on,0,0,1,,,,,,,,,0,,,78,87
195712,control_change,112,0,2,,,,,,,,,0,64,0,,
195840,note_on,0,0,2,,,,,,,,,0,,,59,75
195840,control_change,0,0,2,,,,,,,,,0,64,127,,
195840,note_on,0,0,2,,,,,,,,,0,,,61,84
195840,note_on,0,0,1,,,,,,,,,0,,,85,0
195840,note_on,0,0,2,,,,,,,,,0,,,49,0
195840,note_on,0,0,2,,,,,,,,,0,,,58,0
195840,note_on,128,0,2,,,,,,,,,0,,,61,0
195840,note_on,0,0,1,,,,,,,,,0,,,80,89
195840,note_on,0,0,1,,,,,,,,,0,,,89,89
195840,note_on,0,0,1,,,,,,,,,0,,,92,99
195840,note_on,0,0,1,,,,,,,,,0,,,90,0
195840,note_on,240,0,1,,,,,,,,,0,,,78,0
195840,set_tempo,480,1,0,,,,,,275381,,,,,,,
195840,note_on,0,0,2,,,,,,,,,0,,,49,75
196320,note_on,480,0,2,,,,,,,,,0,,,59,0
196320,note_on,0,0,2,,,,,,,,,0,,,49,72
196320,note_on,0,0,2,,,,,,,,,0,,,61,80
196320,note_on,0,0,2,,,,,,,,,0,,,59,72
196320,set_tempo,480,1,0,,,,,,279838,,,,,,,
196320,note_on,0,0,2,,,,,,,,,0,,,49,0
196320,note_on,0,0,1,,,,,,,,,0,,,92,94
196320,note_on,0,0,2,,,,,,,,,0,,,61,0
196320,note_on,480,0,1,,,,,,,,,0,,,80,0
196320,note_on,0,0,1,,,,,,,,,0,,,89,0
196320,note_on,0,0,1,,,,,,,,,0,,,92,0
196320,note_on,0,0,1,,,,,,,,,0,,,89,84
196320,note_on,0,0,1,,,,,,,,,0,,,80,84
196560,note_on,0,0,2,,,,,,,,,0,,,49,70
196560,note_on,0,0,1,,,,,,,,,0,,,92,0
196560,note_on,0,0,1,,,,,,,,,0,,,89,0
196560,note_on,240,0,1,,,,,,,,,0,,,80,0
196560,note_on,0,0,2,,,,,,,,,0,,,59,0
196560,note_on,240,0,2,,,,,,,,,0,,,49,0
196560,note_on,0,0,2,,,,,,,,,0,,,61,0
196560,note_on,0,0,2,,,,,,,,,0,,,59,70
196560,note_on,0,0,1,,,,,,,,,0,,,89,81
196560,note_on,0,0,1,,,,,,,,,0,,,80,81
196560,note_on,0,0,1,,,,,,,,,0,,,92,91
196560,note_on,0,0,2,,,,,,,,,0,,,61,78
196660,control_change,100,0,2,,,,,,,,,0,64,0,,
196800,note_on,0,0,2,,,,,,,,,0,,,61,75
196800,note_on,0,0,2,,,,,,,,,0,,,58,67
196800,note_on,0,0,2,,,,,,,,,0,,,54,67
196800,note_on,0,0,2,,,,,,,,,0,,,59,0
196800,note_on,0,0,2,,,,,,,,,0,,,61,0
196800,note_on,240,0,1,,,,,,,,,0,,,80,0
196800,note_on,0,0,1,,,,,,,,,0,,,89,0
196800,note_on,0,0,1,,,,,,,,,0,,,90,89
196800,note_on,0,0,1,,,,,,,,,0,,,78,80
196800,set_tempo,480,1,0,,,,,,275381,,,,,,,
196800,note_on,0,0,1,,,,,,,,,0,,,92,0
196800,note_on,140,0,2,,,,,,,,,0,,,49,0
196883,control_change,83,0,2,,,,,,,,,0,64,127,,
197040,note_on,0,0,1,,,,,,,,,0,,,90,0
197040,note_on,240,0,1,,,,,,,,,0,,,78,0
197040,note_on,157,0,2,,,,,,,,,0,,,61,0
197040,note_on,0,0,2,,,,,,,,,0,,,58,0
197040,note_on,0,0,2,,,,,,,,,0,,,54,0
197280,note_on,240,0,1,,,,,,,,,0,,,83,92
197280,note_on,0,0,1,,,,,,,,,0,,,80,82
197280,note_on,0,0,1,,,,,,,,,0,,,77,82
197280,note_on,0,0,1,,,,,,,,,0,,,71,82
197280,note_on,0,0,2,,,,,,,,,0,,,49,77
197280,note_on,240,0,2,,,,,,,,,0,,,37,69
197280,set_tempo,480,1,0,,,,,,284455,,,,,,,
197520,note_on,0,0,2,,,,,,,,,0,,,37,0
197520,note_on,240,0,2,,,,,,,,,0,,,49,0
197520,note_on,0,0,1,,,,,,,,,0,,,77,0
197520,note_on,0,0,1,,,,,,,,,0,,,83,0
197520,note_on,240,0,1,,,,,,,,,0,,,71,0
197520,note_on,0,0,1,,,,,,,,,0,,,80,0
197760,note_on,0,0,2,,,,,,,,,0,,,36,69
197760,control_change,240,0,2,,,,,,,,,0,64,0,,
197760,note_on,0,0,2,,,,,,,,,0,,,48,77
197760,note_on,240,0,1,,,,,,,,,0,,,84,92
197760,set_tempo,480,1,0,,,,,,294146,,,,,,,
197760,note_on,0,0,1,,,,,,,,,0,,,80,82
197760,note_on,0,0,1,,,,,,,,,0,,,77,82
197760,note_on,0,0,1,,,,,,,,,0,,,72,82
197988,control_change,228,0,2,,,,,,,,,0,64,127,,
198000,note_on,0,0,2,,,,,,,,,0,,,36,0
198000,note_on,12,0,2,,,,,,,,,0,,,48,0
198000,note_on,240,0,1,,,,,,,,,0,,,72,0
198000,note_on,0,0,1,,,,,,,,,0,,,84,0
198000,note_on,0,0,1,,,,,,,,,0,,,80,0
198000,note_on,0,0,1,,,,,,,,,0,,,77,0
198240,note_on,240,0,1,,,,,,,,,0,,,84,92
198240,set_tempo,480,1,0,,,,,,302755,,,,,,,
198240,note_on,0,0,1,,,,,,,,,0,,,76,82
198240,note_on,0,0,1,,,,,,,,,0,,,79,82
198240,note_on,0,0,1,,,,,,,,,0,,,72,82
198240,note_on,240,0,2,,,,,,,,,0,,,36,69
198240,note_on,0,0,2,,,,,,,,,0,,,48,77
198480,note_on,240,0,2,,,,,,,,,0,,,48,0
198480,note_on,240,0,1,,,,,,,,,0,,,72,0
198480,note_on,0,0,1,,,,,,,,,0,,,84,0
198480,note_on,0,0,2,,,,,,,,,0,,,36,0
198480,note_on,0,0,1,,,,,,,,,0,,,76,0
198480,note_on,0,0,1,,,,,,,,,0,,,79,0
198600,control_change,120,0,2,,,,,,,,,0,64,0,,
198720,note_on,0,0,1,,,,,,,,,0,,,77,92
198720,note_on,240,0,1,,,,,,,,,0,,,65,82
198720,note_on,0,0,2,,,,,,,,,0,,,53,78
198720,note_on,120,0,2,,,,,,,,,0,,,41,78
199200,note_on,0,0,1,,,,,,,,,0,,,65,0
199200,note_on,0,0,2,,,,,,,,,0,,,41,0
199200,note_on,480,0,2,,,,,,,,,0,,,53,0
199200,note_on,0,0,2,,,,,,,,,0,,,53,40
199200,note_on,0,0,1,,,,,,,,,0,,,65,48
199200,set_tempo,960,1,0,,,,,,265498,,,,,,,
199200,note_on,480,0,1,,,,,,,,,0,,,77,0
199440,note_on,0,0,2,,,,,,,,,0,,,55,40
199440,note_on,240,0,2,,,,,,,,,0,,,53,0
199440,note_on,0,0,1,,,,,,,,,0,,,67,48
199440,note_on,240,0,1,,,,,,,,,0,,,65,0
199680,note_on,240,0,1,,,,,,,,,0,,,67,0
199680,note_on,0,0,1,,,,,,,,,0,,,69,48
199680,note_on,0,0,2,,,,,,,,,0,,,57,40
199680,note_on,240,0,2,,,,,,,,,0,,,55,0
200160,note_on,480,0,1,,,,,,,,,0,,,69,0
200160,note_on,0,0,1,,,,,,,,,0,,,70,48
200160,note_on,480,0,2,,,,,,,,,0,,,57,0
200160,note_on,0,0,2,,,,,,,,,0,,,58,40
200280,note_on,120,0,2,,,,,,,,,0,,,58,0
200280,note_on,120,0,1,,,,,,,,,0,,,70,0
200400,note_on,120,0,2,,,,,,,,,0,,,60,40
200400,note_on,120,0,1,,,,,,,,,0,,,72,48
200520,note_on,120,0,2,,,,,,,,,0,,,60,0
200520,note_on,120,0,1,,,,,,,,,0,,,72,0
200640,note_on,0,0,2,,,,,,,,,0,,,60,40
200640,note_on,0,0,2,,,,,,,,,0,,,57,36
200640,note_on,120,0,2,,,,,,,,,0,,,48,36
200640,note_on,120,0,1,,,,,,,,,0,,,72,48
200640,note_on,0,0,1,,,,,,,,,0,,,74,48
200640,key_signature,1440,1,0,,,,,F,,,,,,,,
200640,set_tempo,0,1,0,,,,,,265498,,,,,,,
200640,control_change,0,0,2,,,,,,,,,0,64,127,,
201120,note_on,480,0,2,,,,,,,,,0,,,60,0
201120,note_on,0,0,2,,,,,,,,,0,,,57,0
201120,note_on,0,0,2,,,,,,,,,0,,,48,0
201120,note_on,0,0,2,,,,,,,,,0,,,55,35
201120,note_on,0,0,2,,,,,,,,,0,,,60,39
201120,note_on,0,0,1,,,,,,,,,0,,,76,45
201120,note_on,0,0,1,,,,,,,,,0,,,70,40
201120,note_on,0,0,1,,,,,,,,,0,,,72,0
201120,note_on,480,0,1,,,,,,,,,0,,,74,0
201120,set_tempo,480,1,0,,,,,,267547,,,,,,,
201120,note_on,0,0,2,,,,,,,,,0,,,48,35
201360,note_on,0,0,1,,,,,,,,,0,,,70,0
201360,note_on,0,0,1,,,,,,,,,0,,,70,40
201360,note_on,0,0,1,,,,,,,,,0,,,76,45
201360,note_on,0,0,2,,,,,,,,,0,,,55,35
201360,note_on,240,0,2,,,,,,,,,0,,,60,0
201360,note_on,0,0,2,,,,,,,,,0,,,55,0
201360,note_on,240,0,1,,,,,,,,,0,,,76,0
201360,note_on,0,0,2,,,,,,,,,0,,,48,35
201360,note_on,0,0,2,,,,,,,,,0,,,48,0
201360,note_on,0,0,2,,,,,,,,,0,,,60,39
201508,control_change,148,0,2,,,,,,,,,0,64,0,,
201600,note_on,0,0,1,,,,,,,,,0,,,76,48
201600,note_on,0,0,1,,,,,,,,,0,,,70,43
201600,note_on,0,0,1,,,,,,,,,0,,,70,0
201600,note_on,240,0,1,,,,,,,,,0,,,76,0
201600,note_on,92,0,2,,,,,,,,,0,,,60,0
201600,note_on,0,0,2,,,,,,,,,0,,,48,0
201600,note_on,0,0,2,,,,,,,,,0,,,48,36
201600,note_on,0,0,2,,,,,,,,,0,,,55,0
201600,set_tempo,480,1,0,,,,,,265498,,,,,,,
201600,note_on,0,0,2,,,,,,,,,0,,,55,36
201600,note_on,0,0,2,,,,,,,,,0,,,60,40
201600,control_change,0,0,2,,,,,,,,,0,64,127,,
202080,note_on,0,0,1,,,,,,,,,0,,,77,45
202080,note_on,0,0,1,,,,,,,,,0,,,69,40
202080,note_on,0,0,1,,,,,,,,,0,,,70,0
202080,note_on,480,0,1,,,,,,,,,0,,,76,0
202080,note_on,0,0,2,,,,,,,,,0,,,60,38
202080,note_on,0,0,2,,,,,,,,,0,,,53,34
202080,note_on,0,0,2,,,,,,,,,0,,,48,34
202080,note_on,0,0,2,,,,,,,,,0,,,48,0
202080,note_on,0,0,2,,,,,,,,,0,,,55,0
202080,note_on,480,0,2,,,,,,,,,0,,,60,0
202080,set_tempo,480,1,0,,,,,,267547,,,,,,,
202320,note_on,240,0,1,,,,,,,,,0,,,77,0
202320,note_on,0,0,1,,,,,,,,,0,,,69,0
202320,note_on,240,0,2,,,,,,,,,0,,,60,0
202320,note_on,0,0,1,,,,,,,,,0,,,77,45
202320,note_on,0,0,2,,,,,,,,,0,,,48,0
202320,note_on,0,0,1,,,,,,,,,0,,,69,40
202320,note_on,0,0,2,,,,,,,,,0,,,53,0
202320,note_on,0,0,2,,,,,,,,,0,,,48,34
202320,note_on,0,0,2,,,,,,,,,0,,,53,34
202320,note_on,0,0,2,,,,,,,,,0,,,60,38
202364,control_change,44,0,2,,,,,,,,,0,64,0,,
202560,note_on,0,0,1,,,,,,,,,0,,,72,48
202560,note_on,0,0,1,,,,,,,,,0,,,69,43
202560,note_on,0,0,1,,,,,,,,,0,,,69,0
202560,set_tempo,480,1,0,,,,,,265498,,,,,,,
202560,note_on,240,0,1,,,,,,,,,0,,,77,0
202560,note_on,0,0,2,,,,,,,,,0,,,48,36
202560,note_on,0,0,2,,,,,,,,,0,,,53,0
202560,note_on,0,0,2,,,,,,,,,0,,,48,0
202560,note_on,0,0,2,,,,,,,,,0,,,50,36
202560,note_on,0,0,2,,,,,,,,,0,,,60,40
202560,control_change,0,0,2,,,,,,,,,0,64,127,,
202560,note_on,196,0,2,,,,,,,,,0,,,60,0
203040,note_on,0,0,1,,,,,,,,,0,,,70,45
203040,note_on,0,0,1,,,,,,,,,0,,,67,40
203040,note_on,0,0,1,,,,,,,,,0,,,69,0
203040,note_on,480,0,1,,,,,,,,,0,,,72,0
203040,note_on,0,0,2,,,,,,,,,0,,,48,34
203040,note_on,0,0,2,,,,,,,,,0,,,48,0
203040,set_tempo,480,1,0,,,,,,271052,,,,,,,
203040,note_on,0,0,2,,,,,,,,,0,,,50,0
203040,note_on,480,0,2,,,,,,,,,0,,,60,0
203040,note_on,0,0,2,,,,,,,,,0,,,52,34
203040,note_on,0,0,2,,,,,,,,,0,,,60,38
203280,note_on,240,0,1,,,,,,,,,0,,,70,0
203280,note_on,0,0,1,,,,,,,,,0,,,67,0
203280,note_on,0,0,1,,,,,,,,,0,,,67,40
203280,note_on,0,0,1,,,,,,,,,0,,,70,45
203280,note_on,0,0,2,,,,,,,,,0,,,48,0
203280,note_on,0,0,2,,,,,,,,,0,,,52,0
203280,note_on,0,0,2,,,,,,,,,0,,,52,34
203280,note_on,0,0,2,,,,,,,,,0,,,48,34
203280,note_on,0,0,2,,,,,,,,,0,,,60,38
203280,note_on,240,0,2,,,,,,,,,0,,,60,0
203364,control_change,84,0,2,,,,,,,,,0,64,0,,
203520,set_tempo,480,1,0,,,,,,268240,,,,,,,
203520,note_on,0,0,1,,,,,,,,,0,,,81,89
203520,note_on,0,0,1,,,,,,,,,0,,,72,80
203520,note_on,0,0,1,,,,,,,,,0,,,69,80
203520,note_on,0,0,1,,,,,,,,,0,,,67,0
203520,note_on,0,0,2,,,,,,,,,0,,,52,0
203520,note_on,0,0,2,,,,,,,,,0,,,53,76
203520,note_on,0,0,2,,,,,,,,,0,,,41,68
203520,note_on,0,0,2,,,,,,,,,0,,,48,0
203520,note_on,156,0,2,,,,,,,,,0,,,60,0
203520,note_on,240,0,1,,,,,,,,,0,,,70,0
203569,control_change,49,0,2,,,,,,,,,0,64,127,,
203880,note_on,360,0,1,,,,,,,,,0,,,81,0
203880,note_on,0,0,1,,,,,,,,,0,,,69,0
203880,note_on,311,0,2,,,,,,,,,0,,,53,0
203880,note_on,0,0,1,,,,,,,,,0,,,72,0
203880,note_on,0,0,2,,,,,,,,,0,,,41,0
204000,note_on,120,0,1,,,,,,,,,0,,,69,80
204000,note_on,0,0,1,,,,,,,,,0,,,72,80
204000,note_on,0,0,1,,,,,,,,,0,,,77,89
204000,note_on,120,0,2,,,,,,,,,0,,,53,68
204000,note_on,0,0,2,,,,,,,,,0,,,60,76
204260,set_tempo,740,1,0,,,,,,272480,,,,,,,
204360,note_on,360,0,2,,,,,,,,,0,,,60,0
204360,note_on,0,0,2,,,,,,,,,0,,,53,0
204360,note_on,360,0,1,,,,,,,,,0,,,77,0
204360,note_on,0,0,1,,,,,,,,,0,,,69,0
204360,note_on,0,0,1,,,,,,,,,0,,,72,0
204368,control_change,8,0,2,,,,,,,,,0,64,0,,
204480,set_tempo,220,1,0,,,,,,265498,,,,,,,
204480,note_on,0,0,2,,,,,,,,,0,,,60,40
204480,note_on,0,0,2,,,,,,,,,0,,,57,36
204480,control_change,0,0,2,,,,,,,,,0,64,127,,
204480,note_on,112,0,2,,,,,,,,,0,,,48,36
204480,note_on,120,0,1,,,,,,,,,0,,,72,48
204960,set_tempo,480,1,0,,,,,,267547,,,,,,,
204960,note_on,480,0,1,,,,,,,,,0,,,72,0
204960,note_on,0,0,2,,,,,,,,,0,,,57,0
204960,note_on,0,0,2,,,,,,,,,0,,,48,0
204960,note_on,0,0,2,,,,,,,,,0,,,48,35
204960,note_on,0,0,1,,,,,,,,,0,,,74,45
204960,note_on,0,0,2,,,,,,,,,0,,,60,39
204960,note_on,0,0,2,,,,,,,,,0,,,57,35
204960,note_on,480,0,2,,,,,,,,,0,,,60,0
204960,note_on,0,0,1,,,,,,,,,0,,,72,40
205200,note_on,240,0,1,,,,,,,,,0,,,74,0
205200,note_on,0,0,1,,,,,,,,,0,,,72,0
205200,note_on,0,0,1,,,,,,,,,0,,,72,40
205200,note_on,0,0,1,,,,,,,,,0,,,74,45
205200,note_on,0,0,2,,,,,,,,,0,,,60,39
205200,note_on,0,0,2,,,,,,,,,0,,,48,35
205200,note_on,0,0,2,,,,,,,,,0,,,48,0
205200,note_on,0,0,2,,,,,,,,,0,,,57,0
205200,note_on,240,0,2,,,,,,,,,0,,,60,0
205200,note_on,0,0,2,,,,,,,,,0,,,57,35
205348,control_change,148,0,2,,,,,,,,,0,64,0,,
205440,note_on,0,0,2,,,,,,,,,0,,,55,36
205440,note_on,0,0,2,,,,,,,,,0,,,60,40
205440,control_change,0,0,2,,,,,,,,,0,64,127,,
205440,note_on,92,0,2,,,,,,,,,0,,,60,0
205440,note_on,0,0,1,,,,,,,,,0,,,76,48
205440,note_on,0,0,1,,,,,,,,,0,,,70,43
205440,note_on,0,0,2,,,,,,,,,0,,,57,0
205440,note_on,240,0,1,,,,,,,,,0,,,74,0
205440,set_tempo,480,1,0,,,,,,265498,,,,,,,
205440,note_on,0,0,2,,,,,,,,,0,,,48,36
205440,note_on,0,0,2,,,,,,,,,0,,,48,0
205440,note_on,0,0,1,,,,,,,,,0,,,72,0
205920,set_tempo,480,1,0,,,,,,267547,,,,,,,
205920,note_on,0,0,1,,,,,,,,,0,,,70,0
205920,note_on,0,0,1,,,,,,,,,0,,,69,40
205920,note_on,0,0,1,,,,,,,,,0,,,77,45
205920,note_on,0,0,2,,,,,,,,,0,,,55,0
205920,note_on,480,0,1,,,,,,,,,0,,,76,0
205920,note_on,0,0,2,,,,,,,,,0,,,48,0
205920,note_on,0,0,2,,,,,,,,,0,,,48,34
205920,note_on,0,0,2,,,,,,,,,0,,,53,34
205920,note_on,480,0,2,,,,,,,,,0,,,60,0
205920,note_on,0,0,2,,,,,,,,,0,,,60,38
206160,note_on,240,0,2,,,,,,,,,0,,,60,0
206160,note_on,0,0,2,,,,,,,,,0,,,53,0
206160,note_on,0,0,2,,,,,,,,,0,,,48,0
206160,note_on,0,0,2,,,,,,,,,0,,,48,34
206160,note_on,0,0,1,,,,,,,,,0,,,77,45
206160,note_on,0,0,1,,,,,,,,,0,,,69,40
206160,note_on,0,0,1,,,,,,,,,0,,,69,0
206160,note_on,240,0,1,,,,,,,,,0,,,77,0
206160,note_on,0,0,2,,,,,,,,,0,,,53,34
206160,note_on,0,0,2,,,,,,,,,0,,,60,38
206204,control_change,44,0,2,,,,,,,,,0,64,0,,
206400,note_on,0,0,2,,,,,,,,,0,,,48,0
206400,note_on,0,0,2,,,,,,,,,0,,,53,0
206400,set_tempo,480,1,0,,,,,,265498,,,,,,,
206400,note_on,240,0,1,,,,,,,,,0,,,77,0
206400,note_on,0,0,1,,,,,,,,,0,,,69,0
206400,note_on,0,0,1,,,,,,,,,0,,,69,43
206400,note_on,0,0,1,,,,,,,,,0,,,72,48
206400,control_change,0,0,2,,,,,,,,,0,64,127,,
206400,note_on,0,0,2,,,,,,,,,0,,,50,36
206400,note_on,0,0,2,,,,,,,,,0,,,48,36
206400,note_on,196,0,2,,,,,,,,,0,,,60,0
206400,note_on,0,0,2,,,,,,,,,0,,,60,40
206880,note_on,0,0,2,,,,,,,,,0,,,52,34
206880,note_on,0,0,1,,,,,,,,,0,,,69,0
206880,note_on,0,0,1,,,,,,,,,0,,,67,40
206880,note_on,0,0,1,,,,,,,,,0,,,70,45
206880,note_on,0,0,2,,,,,,,,,0,,,48,34
206880,set_tempo,480,1,0,,,,,,271052,,,,,,,
206880,note_on,480,0,2,,,,,,,,,0,,,60,0
206880,note_on,0,0,2,,,,,,,,,0,,,50,0
206880,note_on,0,0,2,,,,,,,,,0,,,48,0
206880,note_on,480,0,1,,,,,,,,,0,,,72,0
206880,note_on,0,0,2,,,,,,,,,0,,,60,38
207120,note_on,240,0,2,,,,,,,,,0,,,60,0
207120,note_on,0,0,2,,,,,,,,,0,,,60,38
207120,note_on,0,0,2,,,,,,,,,0,,,52,34
207120,note_on,0,0,2,,,,,,,,,0,,,48,34
207120,note_on,240,0,1,,,,,,,,,0,,,70,0
207120,note_on,0,0,1,,,,,,,,,0,,,67,0
207120,note_on,0,0,1,,,,,,,,,0,,,67,40
207120,note_on,0,0,1,,,,,,,,,0,,,70,45
207120,note_on,0,0,2,,,,,,,,,0,,,52,0
207120,note_on,0,0,2,,,,,,,,,0,,,48,0
207204,control_change,84,0,2,,,,,,,,,0,64,0,,
207360,note_on,0,0,1,,,,,,,,,0,,,69,84
207360,note_on,0,0,2,,,,,,,,,0,,,41,71
207360,note_on,240,0,1,,,,,,,,,0,,,70,0
207360,note_on,0,0,1,,,,,,,,,0,,,81,94
207360,note_on,156,0,2,,,,,,,,,0,,,60,0
207360,set_tempo,480,1,0,,,,,,268240,,,,,,,
207360,note_on,0,0,2,,,,,,,,,0,,,48,0
207360,note_on,0,0,2,,,,,,,,,0,,,52,0
207360,note_on,0,0,1,,,,,,,,,0,,,72,84
207360,note_on,0,0,1,,,,,,,,,0,,,67,0
207360,note_on,0,0,2,,,,,,,,,0,,,53,79
207409,control_change,49,0,2,,,,,,,,,0,64,127,,
207720,note_on,0,0,1,,,,,,,,,0,,,72,0
207720,note_on,311,0,2,,,,,,,,,0,,,53,0
207720,note_on,0,0,1,,,,,,,,,0,,,69,0
207720,note_on,360,0,1,,,,,,,,,0,,,81,0
207720,note_on,0,0,2,,,,,,,,,0,,,41,0
207840,note_on,0,0,1,,,,,,,,,0,,,77,95
207840,note_on,0,0,1,,,,,,,,,0,,,72,85
207840,note_on,120,0,1,,,,,,,,,0,,,69,85
207840,note_on,120,0,2,,,,,,,,,0,,,53,71
207840,note_on,0,0,2,,,,,,,,,0,,,60,79
208100,set_tempo,740,1,0,,,,,,272480,,,,,,,
208200,note_on,0,0,1,,,,,,,,,0,,,72,0
208200,note_on,0,0,2,,,,,,,,,0,,,53,0
208200,note_on,360,0,2,,,,,,,,,0,,,60,0
208200,note_on,0,0,1,,,,,,,,,0,,,69,0
208200,note_on,360,0,1,,,,,,,,,0,,,77,0
208208,control_change,8,0,2,,,,,,,,,0,64,0,,
208320,note_on,0,0,2,,,,,,,,,0,,,60,40
208320,note_on,0,0,2,,,,,,,,,0,,,50,36
208320,note_on,112,0,2,,,,,,,,,0,,,48,36
208320,set_tempo,220,1,0,,,,,,265498,,,,,,,
208320,note_on,0,0,1,,,,,,,,,0,,,72,48
208320,note_on,120,0,1,,,,,,,,,0,,,69,43
208391,control_change,71,0,2,,,,,,,,,0,64,127,,
208800,note_on,0,0,1,,,,,,,,,0,,,67,40
208800,note_on,0,0,2,,,,,,,,,0,,,50,0
208800,set_tempo,480,1,0,,,,,,288420,,,,,,,
208800,note_on,0,0,1,,,,,,,,,0,,,70,45
208800,note_on,0,0,1,,,,,,,,,0,,,69,0
208800,note_on,480,0,1,,,,,,,,,0,,,72,0
208800,note_on,0,0,2,,,,,,,,,0,,,48,0
208800,note_on,0,0,2,,,,,,,,,0,,,60,38
208800,note_on,409,0,2,,,,,,,,,0,,,60,0
208800,note_on,0,0,2,,,,,,,,,0,,,48,34
208800,note_on,0,0,2,,,,,,,,,0,,,52,34
209040,note_on,0,0,2,,,,,,,,,0,,,60,38
209040,note_on,240,0,1,,,,,,,,,0,,,70,0
209040,note_on,0,0,1,,,,,,,,,0,,,67,0
209040,note_on,0,0,1,,,,,,,,,0,,,67,40
209040,note_on,0,0,1,,,,,,,,,0,,,70,45
209040,note_on,0,0,2,,,,,,,,,0,,,48,0
209040,note_on,240,0,2,,,,,,,,,0,,,60,0
209040,note_on,0,0,2,,,,,,,,,0,,,52,0
209040,note_on,0,0,2,,,,,,,,,0,,,52,34
209040,note_on,0,0,2,,,,,,,,,0,,,48,34
209124,control_change,84,0,2,,,,,,,,,0,64,0,,
209280,note_on,0,0,1,,,,,,,,,0,,,81,97
209280,note_on,156,0,2,,,,,,,,,0,,,60,0
209280,note_on,0,0,2,,,,,,,,,0,,,53,82
209280,note_on,0,0,2,,,,,,,,,0,,,52,0
209280,note_on,0,0,2,,,,,,,,,0,,,41,73
209280,note_on,240,0,1,,,,,,,,,0,,,70,0
209280,note_on,0,0,1,,,,,,,,,0,,,67,0
209280,note_on,0,0,1,,,,,,,,,0,,,69,87
209280,note_on,0,0,1,,,,,,,,,0,,,72,87
209280,set_tempo,480,1,0,,,,,,281360,,,,,,,
209280,note_on,0,0,2,,,,,,,,,0,,,48,0
209336,control_change,56,0,2,,,,,,,,,0,64,127,,
209640,note_on,0,0,1,,,,,,,,,0,,,72,0
209640,note_on,304,0,2,,,,,,,,,0,,,53,0
209640,note_on,0,0,2,,,,,,,,,0,,,41,0
209640,note_on,0,0,1,,,,,,,,,0,,,69,0
209640,note_on,360,0,1,,,,,,,,,0,,,81,0
209760,note_on,0,0,1,,,,,,,,,0,,,72,87
209760,note_on,120,0,1,,,,,,,,,0,,,69,87
209760,note_on,0,0,1,,,,,,,,,0,,,77,97
209760,note_on,0,0,2,,,,,,,,,0,,,60,82
209760,note_on,120,0,2,,,,,,,,,0,,,53,73
210020,set_tempo,740,1,0,,,,,,272480,,,,,,,
210120,note_on,0,0,2,,,,,,,,,0,,,53,0
210120,note_on,360,0,1,,,,,,,,,0,,,77,0
210120,note_on,360,0,2,,,,,,,,,0,,,60,0
210120,note_on,0,0,1,,,,,,,,,0,,,69,0
210120,note_on,0,0,1,,,,,,,,,0,,,72,0
210128,control_change,8,0,2,,,,,,,,,0,64,0,,
210240,note_on,112,0,2,,,,,,,,,0,,,48,36
210240,control_change,0,0,2,,,,,,,,,0,64,127,,
210240,note_on,0,0,2,,,,,,,,,0,,,60,40
210240,note_on,0,0,2,,,,,,,,,0,,,50,36
210240,note_on,0,0,1,,,,,,,,,0,,,72,48
210240,note_on,120,0,1,,,,,,,,,0,,,69,43
210240,set_tempo,220,1,0,,,,,,269639,,,,,,,
210720,note_on,0,0,2,,,,,,,,,0,,,50,0
210720,note_on,0,0,2,,,,,,,,,0,,,48,0
210720,note_on,0,0,2,,,,,,,,,0,,,52,34
210720,note_on,0,0,2,,,,,,,,,0,,,48,34
210720,note_on,480,0,2,,,,,,,,,0,,,60,0
210720,note_on,0,0,2,,,,,,,,,0,,,60,38
210720,set_tempo,480,1,0,,,,,,323572,,,,,,,
210720,note_on,480,0,1,,,,,,,,,0,,,72,0
210720,note_on,0,0,1,,,,,,,,,0,,,69,0
210720,note_on,0,0,1,,,,,,,,,0,,,67,40
210720,note_on,0,0,1,,,,,,,,,0,,,70,45
210960,note_on,240,0,1,,,,,,,,,0,,,70,0
210960,note_on,0,0,2,,,,,,,,,0,,,60,38
210960,note_on,0,0,2,,,,,,,,,0,,,48,34
210960,note_on,0,0,2,,,,,,,,,0,,,52,34
210960,note_on,0,0,2,,,,,,,,,0,,,52,0
210960,note_on,0,0,2,,,,,,,,,0,,,48,0
210960,note_on,240,0,2,,,,,,,,,0,,,60,0
210960,note_on,0,0,1,,,,,,,,,0,,,70,45
210960,note_on,0,0,1,,,,,,,,,0,,,67,0
210960,note_on,0,0,1,,,,,,,,,0,,,67,40
211044,control_change,84,0,2,,,,,,,,,0,64,0,,
211200,set_tempo,480,1,0,,,,,,330506,,,,,,,
211200,note_on,0,0,2,,,,,,,,,0,,,53,84
211200,note_on,240,0,1,,,,,,,,,0,,,70,0
211200,note_on,0,0,1,,,,,,,,,0,,,67,0
211200,note_on,0,0,1,,,,,,,,,0,,,77,89
211200,note_on,0,0,1,,,,,,,,,0,,,81,89
211200,note_on,0,0,1,,,,,,,,,0,,,84,89
211200,note_on,0,0,1,,,,,,,,,0,,,89,99
211200,note_on,0,0,2,,,,,,,,,0,,,41,75
211200,note_on,0,0,2,,,,,,,,,0,,,52,0
211200,note_on,0,0,2,,,,,,,,,0,,,48,0
211200,note_on,156,0,2,,,,,,,,,0,,,60,0
211307,control_change,107,0,2,,,,,,,,,0,64,127,,
211680,note_on,373,0,2,,,,,,,,,0,,,53,0
211680,note_on,0,0,2,,,,,,,,,0,,,41,0
211680,note_on,0,0,2,,,,,,,,,0,,,53,84
211680,note_on,0,0,1,,,,,,,,,0,,,77,99
211680,note_on,0,0,1,,,,,,,,,0,,,65,89
211680,note_on,0,0,1,,,,,,,,,0,,,84,0
211680,note_on,0,0,1,,,,,,,,,0,,,81,0
211680,note_on,0,0,1,,,,,,,,,0,,,77,0
211680,note_on,480,0,1,,,,,,,,,0,,,89,0
212048,control_change,368,0,2,,,,,,,,,0,64,0,,
212160,note_on,480,0,1,,,,,,,,,0,,,77,0
212160,marker,960,1,0,,,,,,,,,,,,,
212160,note_on,0,0,1,,,,,,,,,0,,,65,0
212160,end_of_track,0,1,1,,,,,,,,,,,,,
212160,end_of_track,0,1,2,,,,,,,,,,,,,
212160,note_on,112,0,2,,,,,,,,,0,,,53,0
212168,set_tempo,8,1,0,,,,,,319149,,,,,,,
232320,set_tempo,20152,1,0,,,,,,307692,,,,,,,
240960,set_tempo,8640,1,0,,,,,,307692,,,,,,,
241920,set_tempo,960,1,0,,,,,,307692,,,,,,,
243840,set_tempo,1920,1,0,,,,,,307692,,,,,,,
243840,end_of_track,0,1,0,,,,,,,,,,,,,
