tick,type,time,meta,track,frame_rate,hours,minutes,seconds,frames,sub_frames,numerator,denominator,clocks_per_click,notated_32nd_notes_per_beat,key,tempo,port,program,channel,control,value,note,velocity
0,track_name,0,1,0,,,,,,,,,,,,,,,,,,,
0,program_change,0,0,1,,,,,,,,,,,,,,0,0,,,,
0,control_change,0,0,1,,,,,,,,,,,,,,,0,7,100,,
0,control_change,0,0,1,,,,,,,,,,,,,,,0,91,127,,
0,text,0,1,1,,,,,,,,,,,,,,,,,,,
0,track_name,0,1,7,,,,,,,,,,,,,,,,,,,
0,midi_port,0,1,2,,,,,,,,,,,,,0,,,,,,
0,track_name,0,1,2,,,,,,,,,,,,,,,,,,,
0,program_change,0,0,2,,,,,,,,,,,,,,0,0,,,,
0,control_change,0,0,2,,,,,,,,,,,,,,,0,7,100,,
0,control_change,0,0,2,,,,,,,,,,,,,,,0,64,0,,
0,midi_port,0,1,3,,,,,,,,,,,,,0,,,,,,
0,track_name,0,1,3,,,,,,,,,,,,,,,,,,,
0,end_of_track,0,1,3,,,,,,,,,,,,,,,,,,,
0,midi_port,0,1,4,,,,,,,,,,,,,0,,,,,,
0,track_name,0,1,4,,,,,,,,,,,,,,,,,,,
0,end_of_track,0,1,4,,,,,,,,,,,,,,,,,,,
0,midi_port,0,1,5,,,,,,,,,,,,,0,,,,,,
0,track_name,0,1,5,,,,,,,,,,,,,,,,,,,
0,end_of_track,0,1,5,,,,,,,,,,,,,,,,,,,
0,midi_port,0,1,6,,,,,,,,,,,,,0,,,,,,
0,track_name,0,1,6,,,,,,,,,,,,,,,,,,,
0,end_of_track,0,1,6,,,,,,,,,,,,,,,,,,,
0,midi_port,0,1,7,,,,,,,,,,,,,0,,,,,,
0,track_name,0,1,1,,,,,,,,,,,,,,,,,,,
0,midi_port,0,1,1,,,,,,,,,,,,,0,,,,,,
0,end_of_track,0,1,7,,,,,,,,,,,,,,,,,,,
0,text,0,1,0,,,,,,,,,,,,,,,,,,,
0,text,0,1,0,,,,,,,,,,,,,,,,,,,
0,text,0,1,0,,,,,,,,,,,,,,,,,,,
0,text,0,1,0,,,,,,,,,,,,,,,,,,,
0,text,0,1,0,,,,,,,,,,,,,,,,,,,
0,text,0,1,0,,,,,,,,,,,,,,,,,,,
0,text,0,1,0,,,,,,,,,,,,,,,,,,,
0,smpte_offset,0,1,0,25,32,0,3,0,0,,,,,,,,,,,,,
0,time_signature,0,1,0,,,,,,,2,4,24,8,,,,,,,,,
0,key_signature,0,1,0,,,,,,,,,,,E,,,,,,,,
0,set_tempo,0,1,0,,,,,,,,,,,,585366,,,,,,,
0,copyright,0,1,0,,,,,,,,,,,,,,,,,,,
0,track_name,0,1,0,,,,,,,,,,,,,,,,,,,
716,control_change,716,0,1,,,,,,,,,,,,,,,0,91,127,,
716,set_tempo,716,1,0,,,,,,,,,,,,591599,,,,,,,
716,control_change,716,0,2,,,,,,,,,,,,,,,0,91,127,,
720,note_on,4,0,1,,,,,,,,,,,,,,,0,,,68,60
960,note_on,0,0,1,,,,,,,,,,,,,,,0,,,64,66
960,note_on,240,0,1,,,,,,,,,,,,,,,0,,,68,0
960,note_on,244,0,2,,,,,,,,,,,,,,,0,,,49,54
1080,set_tempo,364,1,0,,,,,,,,,,,,580271,,,,,,,
1080,note_on,0,0,1,,,,,,,,,,,,,,,0,,,61,60
1080,note_on,120,0,1,,,,,,,,,,,,,,,0,,,64,0
1080,note_on,120,0,2,,,,,,,,,,,,,,,0,,,49,0
1120,set_tempo,40,1,0,,,,,,,,,,,,580889,,,,,,,
1140,set_tempo,20,1,0,,,,,,,,,,,,581395,,,,,,,
1160,set_tempo,20,1,0,,,,,,,,,,,,581959,,,,,,,
1180,set_tempo,20,1,0,,,,,,,,,,,,582524,,,,,,,
1200,note_on,120,0,2,,,,,,,,,,,,,,,0,,,56,50
1200,note_on,0,0,1,,,,,,,,,,,,,,,0,,,64,60
1200,note_on,120,0,1,,,,,,,,,,,,,,,0,,,61,0
1200,set_tempo,20,1,0,,,,,,,,,,,,583090,,,,,,,
1220,set_tempo,20,1,0,,,,,,,,,,,,583658,,,,,,,
1260,set_tempo,40,1,0,,,,,,,,,,,,584226,,,,,,,
1280,set_tempo,20,1,0,,,,,,,,,,,,584738,,,,,,,
1300,set_tempo,20,1,0,,,,,,,,,,,,585309,,,,,,,
1320,note_on,0,0,1,,,,,,,,,,,,,,,0,,,68,60
1320,note_on,120,0,1,,,,,,,,,,,,,,,0,,,64,0
1320,note_on,120,0,2,,,,,,,,,,,,,,,0,,,56,0
1320,set_tempo,20,1,0,,,,,,,,,,,,585880,,,,,,,
1340,set_tempo,20,1,0,,,,,,,,,,,,586396,,,,,,,
1360,set_tempo,20,1,0,,,,,,,,,,,,587027,,,,,,,
1380,set_tempo,20,1,0,,,,,,,,,,,,587544,,,,,,,
1420,set_tempo,40,1,0,,,,,,,,,,,,588178,,,,,,,
1440,set_tempo,20,1,0,,,,,,,,,,,,588697,,,,,,,
1440,note_on,0,0,1,,,,,,,,,,,,,,,0,,,64,64
1440,note_on,120,0,1,,,,,,,,,,,,,,,0,,,68,0
1440,note_on,120,0,2,,,,,,,,,,,,,,,0,,,49,54
1460,set_tempo,20,1,0,,,,,,,,,,,,589275,,,,,,,
1480,set_tempo,20,1,0,,,,,,,,,,,,589855,,,,,,,
1500,set_tempo,20,1,0,,,,,,,,,,,,590435,,,,,,,
1520,set_tempo,20,1,0,,,,,,,,,,,,590958,,,,,,,
1540,set_tempo,20,1,0,,,,,,,,,,,,591599,,,,,,,
1560,note_on,0,0,1,,,,,,,,,,,,,,,0,,,61,60
1560,note_on,120,0,1,,,,,,,,,,,,,,,0,,,64,0
1560,set_tempo,20,1,0,,,,,,,,,,,,588697,,,,,,,
1560,note_on,120,0,2,,,,,,,,,,,,,,,0,,,49,0
1580,set_tempo,20,1,0,,,,,,,,,,,,577534,,,,,,,
1680,note_on,120,0,2,,,,,,,,,,,,,,,0,,,57,50
1680,note_on,0,0,1,,,,,,,,,,,,,,,0,,,64,60
1680,note_on,120,0,1,,,,,,,,,,,,,,,0,,,61,0
1680,set_tempo,100,1,0,,,,,,,,,,,,580271,,,,,,,
1780,set_tempo,100,1,0,,,,,,,,,,,,583090,,,,,,,
1800,note_on,120,0,1,,,,,,,,,,,,,,,0,,,64,0
1800,note_on,0,0,1,,,,,,,,,,,,,,,0,,,69,60
1800,note_on,120,0,2,,,,,,,,,,,,,,,0,,,57,0
1860,set_tempo,80,1,0,,,,,,,,,,,,585880,,,,,,,
1920,note_on,0,0,1,,,,,,,,,,,,,,,0,,,63,63
1920,note_on,120,0,2,,,,,,,,,,,,,,,0,,,48,54
1920,note_on,120,0,1,,,,,,,,,,,,,,,0,,,69,0
1960,set_tempo,100,1,0,,,,,,,,,,,,588697,,,,,,,
2040,set_tempo,80,1,0,,,,,,,,,,,,580271,,,,,,,
2040,note_on,120,0,1,,,,,,,,,,,,,,,0,,,63,0
2040,note_on,120,0,2,,,,,,,,,,,,,,,0,,,48,0
2040,note_on,0,0,1,,,,,,,,,,,,,,,0,,,60,60
2080,set_tempo,40,1,0,,,,,,,,,,,,580889,,,,,,,
2100,set_tempo,20,1,0,,,,,,,,,,,,581395,,,,,,,
2120,set_tempo,20,1,0,,,,,,,,,,,,581959,,,,,,,
2140,set_tempo,20,1,0,,,,,,,,,,,,582524,,,,,,,
2160,set_tempo,20,1,0,,,,,,,,,,,,583090,,,,,,,
2160,note_on,120,0,1,,,,,,,,,,,,,,,0,,,60,0
2160,note_on,0,0,1,,,,,,,,,,,,,,,0,,,63,60
2160,note_on,120,0,2,,,,,,,,,,,,,,,0,,,57,51
2180,set_tempo,20,1,0,,,,,,,,,,,,583658,,,,,,,
2220,set_tempo,40,1,0,,,,,,,,,,,,584226,,,,,,,
2240,set_tempo,20,1,0,,,,,,,,,,,,584738,,,,,,,
2260,set_tempo,20,1,0,,,,,,,,,,,,585309,,,,,,,
2280,note_on,120,0,2,,,,,,,,,,,,,,,0,,,57,0
2280,note_on,0,0,1,,,,,,,,,,,,,,,0,,,69,60
2280,note_on,120,0,1,,,,,,,,,,,,,,,0,,,63,0
2280,set_tempo,20,1,0,,,,,,,,,,,,585880,,,,,,,
2300,set_tempo,20,1,0,,,,,,,,,,,,586396,,,,,,,
2320,set_tempo,20,1,0,,,,,,,,,,,,587027,,,,,,,
2360,set_tempo,40,1,0,,,,,,,,,,,,587544,,,,,,,
2380,set_tempo,20,1,0,,,,,,,,,,,,588178,,,,,,,
2400,set_tempo,20,1,0,,,,,,,,,,,,588697,,,,,,,
2400,note_on,120,0,1,,,,,,,,,,,,,,,0,,,69,0
2400,note_on,120,0,2,,,,,,,,,,,,,,,0,,,48,54
2400,note_on,0,0,1,,,,,,,,,,,,,,,0,,,63,63
2420,set_tempo,20,1,0,,,,,,,,,,,,589275,,,,,,,
2440,set_tempo,20,1,0,,,,,,,,,,,,589855,,,,,,,
2460,set_tempo,20,1,0,,,,,,,,,,,,590435,,,,,,,
2480,set_tempo,20,1,0,,,,,,,,,,,,590958,,,,,,,
2520,set_tempo,40,1,0,,,,,,,,,,,,580271,,,,,,,
2520,note_on,120,0,2,,,,,,,,,,,,,,,0,,,48,0
2520,note_on,0,0,1,,,,,,,,,,,,,,,0,,,60,60
2520,note_on,120,0,1,,,,,,,,,,,,,,,0,,,63,0
2640,note_on,0,0,1,,,,,,,,,,,,,,,0,,,63,60
2640,note_on,120,0,1,,,,,,,,,,,,,,,0,,,60,0
2640,note_on,120,0,2,,,,,,,,,,,,,,,0,,,56,50
2680,set_tempo,160,1,0,,,,,,,,,,,,583090,,,,,,,
2760,note_on,120,0,2,,,,,,,,,,,,,,,0,,,56,0
2760,note_on,0,0,1,,,,,,,,,,,,,,,0,,,68,60
2760,note_on,120,0,1,,,,,,,,,,,,,,,0,,,63,0
2840,set_tempo,160,1,0,,,,,,,,,,,,585880,,,,,,,
2880,note_on,120,0,2,,,,,,,,,,,,,,,0,,,49,55
2880,note_on,0,0,1,,,,,,,,,,,,,,,0,,,68,66
2880,note_on,120,0,1,,,,,,,,,,,,,,,0,,,68,0
2980,set_tempo,140,1,0,,,,,,,,,,,,588697,,,,,,,
3000,note_on,120,0,1,,,,,,,,,,,,,,,0,,,68,0
3000,note_on,0,0,1,,,,,,,,,,,,,,,0,,,64,63
3000,set_tempo,20,1,0,,,,,,,,,,,,577534,,,,,,,
3000,note_on,120,0,2,,,,,,,,,,,,,,,0,,,49,0
3020,set_tempo,20,1,0,,,,,,,,,,,,578090,,,,,,,
3040,set_tempo,20,1,0,,,,,,,,,,,,578648,,,,,,,
3060,set_tempo,20,1,0,,,,,,,,,,,,579206,,,,,,,
3080,set_tempo,20,1,0,,,,,,,,,,,,579766,,,,,,,
3100,set_tempo,20,1,0,,,,,,,,,,,,580271,,,,,,,
3120,note_on,120,0,2,,,,,,,,,,,,,,,0,,,56,51
3120,set_tempo,20,1,0,,,,,,,,,,,,580889,,,,,,,
3120,note_on,0,0,1,,,,,,,,,,,,,,,0,,,68,63
3120,note_on,120,0,1,,,,,,,,,,,,,,,0,,,64,0
3140,set_tempo,20,1,0,,,,,,,,,,,,581395,,,,,,,
3160,set_tempo,20,1,0,,,,,,,,,,,,581959,,,,,,,
3180,set_tempo,20,1,0,,,,,,,,,,,,582524,,,,,,,
3200,set_tempo,20,1,0,,,,,,,,,,,,583090,,,,,,,
3220,set_tempo,20,1,0,,,,,,,,,,,,583658,,,,,,,
3240,note_on,0,0,1,,,,,,,,,,,,,,,0,,,76,63
3240,set_tempo,20,1,0,,,,,,,,,,,,584226,,,,,,,
3240,note_on,120,0,1,,,,,,,,,,,,,,,0,,,68,0
3240,note_on,120,0,2,,,,,,,,,,,,,,,0,,,56,0
3260,set_tempo,20,1,0,,,,,,,,,,,,584738,,,,,,,
3280,set_tempo,20,1,0,,,,,,,,,,,,585309,,,,,,,
3300,set_tempo,20,1,0,,,,,,,,,,,,585880,,,,,,,
3320,set_tempo,20,1,0,,,,,,,,,,,,586396,,,,,,,
3340,set_tempo,20,1,0,,,,,,,,,,,,587027,,,,,,,
3360,note_on,120,0,2,,,,,,,,,,,,,,,0,,,52,55
3360,note_on,0,0,1,,,,,,,,,,,,,,,0,,,68,66
3360,note_on,120,0,1,,,,,,,,,,,,,,,0,,,76,0
3360,set_tempo,20,1,0,,,,,,,,,,,,587544,,,,,,,
3380,set_tempo,20,1,0,,,,,,,,,,,,588178,,,,,,,
3400,set_tempo,20,1,0,,,,,,,,,,,,588697,,,,,,,
3420,set_tempo,20,1,0,,,,,,,,,,,,589275,,,,,,,
3440,set_tempo,20,1,0,,,,,,,,,,,,590435,,,,,,,
3480,set_tempo,40,1,0,,,,,,,,,,,,580271,,,,,,,
3480,note_on,120,0,2,,,,,,,,,,,,,,,0,,,52,0
3480,note_on,120,0,1,,,,,,,,,,,,,,,0,,,68,0
3480,note_on,0,0,1,,,,,,,,,,,,,,,0,,,64,63
3600,note_on,120,0,2,,,,,,,,,,,,,,,0,,,56,52
3600,note_on,0,0,1,,,,,,,,,,,,,,,0,,,68,63
3600,note_on,120,0,1,,,,,,,,,,,,,,,0,,,64,0
3640,set_tempo,160,1,0,,,,,,,,,,,,583090,,,,,,,
3720,note_on,120,0,2,,,,,,,,,,,,,,,0,,,56,0
3720,note_on,120,0,1,,,,,,,,,,,,,,,0,,,68,0
3720,note_on,0,0,1,,,,,,,,,,,,,,,0,,,73,63
3780,set_tempo,140,1,0,,,,,,,,,,,,585880,,,,,,,
3840,note_on,120,0,2,,,,,,,,,,,,,,,0,,,51,56
3840,note_on,0,0,1,,,,,,,,,,,,,,,0,,,69,67
3840,note_on,120,0,1,,,,,,,,,,,,,,,0,,,73,0
3920,set_tempo,140,1,0,,,,,,,,,,,,588697,,,,,,,
3960,set_tempo,40,1,0,,,,,,,,,,,,577534,,,,,,,
3960,note_on,120,0,2,,,,,,,,,,,,,,,0,,,51,0
3960,note_on,0,0,1,,,,,,,,,,,,,,,0,,,68,60
3960,note_on,120,0,1,,,,,,,,,,,,,,,0,,,69,0
4080,set_tempo,120,1,0,,,,,,,,,,,,580271,,,,,,,
4080,note_on,120,0,1,,,,,,,,,,,,,,,0,,,68,0
4080,note_on,120,0,2,,,,,,,,,,,,,,,0,,,57,52
4080,note_on,0,0,1,,,,,,,,,,,,,,,0,,,66,61
4200,note_on,120,0,1,,,,,,,,,,,,,,,0,,,66,0
4200,note_on,0,0,1,,,,,,,,,,,,,,,0,,,73,62
4200,set_tempo,120,1,0,,,,,,,,,,,,583090,,,,,,,
4200,note_on,120,0,2,,,,,,,,,,,,,,,0,,,57,0
4320,note_on,120,0,1,,,,,,,,,,,,,,,0,,,73,0
4320,set_tempo,120,1,0,,,,,,,,,,,,585880,,,,,,,
4320,note_on,120,0,2,,,,,,,,,,,,,,,0,,,51,55
4320,note_on,0,0,1,,,,,,,,,,,,,,,0,,,72,68
4440,note_on,120,0,2,,,,,,,,,,,,,,,0,,,51,0
4440,set_tempo,120,1,0,,,,,,,,,,,,588697,,,,,,,
4440,note_on,0,0,1,,,,,,,,,,,,,,,0,,,66,65
4440,note_on,120,0,1,,,,,,,,,,,,,,,0,,,72,0
4540,set_tempo,100,1,0,,,,,,,,,,,,582581,,,,,,,
4560,note_on,120,0,1,,,,,,,,,,,,,,,0,,,66,0
4560,note_on,0,0,1,,,,,,,,,,,,,,,0,,,68,66
4560,note_on,120,0,2,,,,,,,,,,,,,,,0,,,56,52
4640,set_tempo,100,1,0,,,,,,,,,,,,585480,,,,,,,
4680,note_on,120,0,1,,,,,,,,,,,,,,,0,,,68,0
4680,note_on,0,0,1,,,,,,,,,,,,,,,0,,,72,67
4680,note_on,120,0,2,,,,,,,,,,,,,,,0,,,56,0
4740,set_tempo,100,1,0,,,,,,,,,,,,588466,,,,,,,
4800,note_on,120,0,2,,,,,,,,,,,,,,,0,,,49,56
4800,note_on,0,0,1,,,,,,,,,,,,,,,0,,,73,72
4800,note_on,120,0,1,,,,,,,,,,,,,,,0,,,72,0
4840,set_tempo,100,1,0,,,,,,,,,,,,591541,,,,,,,
4920,set_tempo,80,1,0,,,,,,,,,,,,579654,,,,,,,
4920,note_on,0,0,1,,,,,,,,,,,,,,,0,,,64,63
4920,note_on,120,0,1,,,,,,,,,,,,,,,0,,,73,0
4920,note_on,120,0,2,,,,,,,,,,,,,,,0,,,49,0
5040,set_tempo,120,1,0,,,,,,,,,,,,582581,,,,,,,
5040,note_on,120,0,2,,,,,,,,,,,,,,,0,,,61,50
5040,note_on,0,0,1,,,,,,,,,,,,,,,0,,,68,65
5040,note_on,120,0,1,,,,,,,,,,,,,,,0,,,64,0
5160,note_on,0,0,1,,,,,,,,,,,,,,,0,,,73,67
5160,set_tempo,120,1,0,,,,,,,,,,,,585480,,,,,,,
5160,note_on,120,0,2,,,,,,,,,,,,,,,0,,,61,0
5160,note_on,120,0,1,,,,,,,,,,,,,,,0,,,68,0
5280,note_on,120,0,1,,,,,,,,,,,,,,,0,,,73,0
5280,set_tempo,120,1,0,,,,,,,,,,,,588466,,,,,,,
5280,note_on,0,0,1,,,,,,,,,,,,,,,0,,,76,69
5280,note_on,120,0,2,,,,,,,,,,,,,,,0,,,49,55
5400,note_on,0,0,1,,,,,,,,,,,,,,,0,,,68,64
5400,note_on,120,0,1,,,,,,,,,,,,,,,0,,,76,0
5400,set_tempo,120,1,0,,,,,,,,,,,,579654,,,,,,,
5400,note_on,120,0,2,,,,,,,,,,,,,,,0,,,49,0
5440,set_tempo,40,1,0,,,,,,,,,,,,576757,,,,,,,
5520,note_on,120,0,1,,,,,,,,,,,,,,,0,,,68,0
5520,note_on,0,0,1,,,,,,,,,,,,,,,0,,,76,66
5520,set_tempo,80,1,0,,,,,,,,,,,,579654,,,,,,,
5520,note_on,120,0,2,,,,,,,,,,,,,,,0,,,59,51
5600,set_tempo,80,1,0,,,,,,,,,,,,582581,,,,,,,
5640,note_on,120,0,2,,,,,,,,,,,,,,,0,,,59,0
5640,note_on,120,0,1,,,,,,,,,,,,,,,0,,,76,0
5640,note_on,0,0,1,,,,,,,,,,,,,,,0,,,80,68
5680,set_tempo,80,1,0,,,,,,,,,,,,585480,,,,,,,
5760,note_on,120,0,1,,,,,,,,,,,,,,,0,,,80,0
5760,note_on,0,0,1,,,,,,,,,,,,,,,0,,,76,73
5760,set_tempo,80,1,0,,,,,,,,,,,,593120,,,,,,,
5760,note_on,120,0,2,,,,,,,,,,,,,,,0,,,54,57
5840,set_tempo,80,1,0,,,,,,,,,,,,596244,,,,,,,
5880,note_on,120,0,1,,,,,,,,,,,,,,,0,,,76,0
5880,note_on,0,0,1,,,,,,,,,,,,,,,0,,,69,64
5880,set_tempo,40,1,0,,,,,,,,,,,,584226,,,,,,,
5880,note_on,120,0,2,,,,,,,,,,,,,,,0,,,54,0
6000,note_on,120,0,2,,,,,,,,,,,,,,,0,,,57,56
6000,note_on,0,0,1,,,,,,,,,,,,,,,0,,,76,66
6000,note_on,120,0,1,,,,,,,,,,,,,,,0,,,69,0
6120,note_on,0,0,1,,,,,,,,,,,,,,,0,,,80,68
6120,note_on,120,0,2,,,,,,,,,,,,,,,0,,,57,0
6120,note_on,120,0,1,,,,,,,,,,,,,,,0,,,76,0
6240,note_on,120,0,1,,,,,,,,,,,,,,,0,,,80,0
6240,note_on,0,0,1,,,,,,,,,,,,,,,0,,,74,70
6240,note_on,120,0,2,,,,,,,,,,,,,,,0,,,54,57
6360,note_on,120,0,1,,,,,,,,,,,,,,,0,,,74,0
6360,note_on,0,0,1,,,,,,,,,,,,,,,0,,,78,67
6360,note_on,120,0,2,,,,,,,,,,,,,,,0,,,54,0
6480,note_on,120,0,2,,,,,,,,,,,,,,,0,,,57,54
6480,note_on,120,0,1,,,,,,,,,,,,,,,0,,,78,0
6480,note_on,0,0,1,,,,,,,,,,,,,,,0,,,73,70
6600,note_on,120,0,2,,,,,,,,,,,,,,,0,,,57,0
6600,note_on,0,0,1,,,,,,,,,,,,,,,0,,,76,67
6600,note_on,120,0,1,,,,,,,,,,,,,,,0,,,73,0
6720,note_on,120,0,1,,,,,,,,,,,,,,,0,,,76,0
6720,note_on,120,0,2,,,,,,,,,,,,,,,0,,,45,58
6720,set_tempo,840,1,0,,,,,,,,,,,,579654,,,,,,,
6720,note_on,0,0,1,,,,,,,,,,,,,,,0,,,72,68
6840,note_on,120,0,2,,,,,,,,,,,,,,,0,,,45,0
6840,note_on,0,0,1,,,,,,,,,,,,,,,0,,,75,65
6840,set_tempo,120,1,0,,,,,,,,,,,,582355,,,,,,,
6840,note_on,120,0,1,,,,,,,,,,,,,,,0,,,72,0
6940,set_tempo,100,1,0,,,,,,,,,,,,584966,,,,,,,
6960,note_on,120,0,2,,,,,,,,,,,,,,,0,,,54,54
6960,note_on,120,0,1,,,,,,,,,,,,,,,0,,,75,0
6960,note_on,0,0,1,,,,,,,,,,,,,,,0,,,73,67
7040,set_tempo,100,1,0,,,,,,,,,,,,587659,,,,,,,
7080,note_on,120,0,2,,,,,,,,,,,,,,,0,,,54,0
7080,note_on,120,0,1,,,,,,,,,,,,,,,0,,,73,0
7080,note_on,0,0,1,,,,,,,,,,,,,,,0,,,76,65
7140,set_tempo,100,1,0,,,,,,,,,,,,590377,,,,,,,
7200,note_on,0,0,1,,,,,,,,,,,,,,,0,,,75,68
7200,note_on,120,0,1,,,,,,,,,,,,,,,0,,,76,0
7200,note_on,120,0,2,,,,,,,,,,,,,,,0,,,44,56
7240,set_tempo,100,1,0,,,,,,,,,,,,593061,,,,,,,
7320,note_on,120,0,2,,,,,,,,,,,,,,,0,,,44,0
7320,note_on,0,0,1,,,,,,,,,,,,,,,0,,,78,64
7320,note_on,120,0,1,,,,,,,,,,,,,,,0,,,75,0
7340,set_tempo,100,1,0,,,,,,,,,,,,595829,,,,,,,
7440,note_on,120,0,1,,,,,,,,,,,,,,,0,,,78,0
7440,note_on,0,0,1,,,,,,,,,,,,,,,0,,,72,69
7440,set_tempo,100,1,0,,,,,,,,,,,,598623,,,,,,,
7440,note_on,120,0,2,,,,,,,,,,,,,,,0,,,56,54
7540,set_tempo,100,1,0,,,,,,,,,,,,601383,,,,,,,
7560,note_on,120,0,2,,,,,,,,,,,,,,,0,,,56,0
7560,note_on,120,0,1,,,,,,,,,,,,,,,0,,,72,0
7560,note_on,0,0,1,,,,,,,,,,,,,,,0,,,75,64
7560,set_tempo,20,1,0,,,,,,,,,,,,621697,,,,,,,
7640,set_tempo,80,1,0,,,,,,,,,,,,604230,,,,,,,
7680,set_tempo,40,1,0,,,,,,,,,,,,582355,,,,,,,
7680,note_on,120,0,2,,,,,,,,,,,,,,,0,,,49,54
7680,note_on,120,0,1,,,,,,,,,,,,,,,0,,,75,0
7680,note_on,0,0,1,,,,,,,,,,,,,,,0,,,76,68
7700,set_tempo,20,1,0,,,,,,,,,,,,584966,,,,,,,
7780,set_tempo,80,1,0,,,,,,,,,,,,587659,,,,,,,
7800,note_on,120,0,1,,,,,,,,,,,,,,,0,,,76,0
7800,note_on,0,0,1,,,,,,,,,,,,,,,0,,,73,67
7800,note_on,120,0,2,,,,,,,,,,,,,,,0,,,49,0
7860,set_tempo,80,1,0,,,,,,,,,,,,590377,,,,,,,
7920,set_tempo,60,1,0,,,,,,,,,,,,593061,,,,,,,
7920,note_on,120,0,2,,,,,,,,,,,,,,,0,,,51,54
7920,note_on,0,0,1,,,,,,,,,,,,,,,0,,,71,66
7920,note_on,120,0,1,,,,,,,,,,,,,,,0,,,73,0
8000,set_tempo,80,1,0,,,,,,,,,,,,595829,,,,,,,
8040,note_on,120,0,2,,,,,,,,,,,,,,,0,,,51,0
8040,note_on,0,0,1,,,,,,,,,,,,,,,0,,,69,64
8040,note_on,120,0,1,,,,,,,,,,,,,,,0,,,71,0
8080,set_tempo,80,1,0,,,,,,,,,,,,598623,,,,,,,
8140,set_tempo,60,1,0,,,,,,,,,,,,601383,,,,,,,
8160,note_on,0,0,1,,,,,,,,,,,,,,,0,,,68,63
8160,note_on,120,0,1,,,,,,,,,,,,,,,0,,,69,0
8160,note_on,120,0,2,,,,,,,,,,,,,,,0,,,52,55
8220,set_tempo,80,1,0,,,,,,,,,,,,604230,,,,,,,
8280,note_on,0,0,1,,,,,,,,,,,,,,,0,,,66,62
8280,note_on,120,0,2,,,,,,,,,,,,,,,0,,,52,0
8280,note_on,120,0,1,,,,,,,,,,,,,,,0,,,68,0
8280,set_tempo,60,1,0,,,,,,,,,,,,607042,,,,,,,
8360,set_tempo,80,1,0,,,,,,,,,,,,609880,,,,,,,
8400,note_on,120,0,1,,,,,,,,,,,,,,,0,,,66,0
8400,note_on,0,0,1,,,,,,,,,,,,,,,0,,,64,60
8400,note_on,120,0,2,,,,,,,,,,,,,,,0,,,56,56
8440,set_tempo,80,1,0,,,,,,,,,,,,612870,,,,,,,
8500,set_tempo,60,1,0,,,,,,,,,,,,615700,,,,,,,
8520,note_on,120,0,1,,,,,,,,,,,,,,,0,,,64,0
8520,note_on,0,0,1,,,,,,,,,,,,,,,0,,,63,59
8520,note_on,120,0,2,,,,,,,,,,,,,,,0,,,56,0
8580,set_tempo,80,1,0,,,,,,,,,,,,618748,,,,,,,
8640,note_on,0,0,1,,,,,,,,,,,,,,,0,,,64,62
8640,note_on,120,0,1,,,,,,,,,,,,,,,0,,,63,0
8640,note_on,120,0,2,,,,,,,,,,,,,,,0,,,49,51
8640,set_tempo,60,1,0,,,,,,,,,,,,628009,,,,,,,
8760,note_on,0,0,1,,,,,,,,,,,,,,,0,,,61,57
8760,note_on,120,0,1,,,,,,,,,,,,,,,0,,,64,0
8760,note_on,120,0,2,,,,,,,,,,,,,,,0,,,49,0
8760,set_tempo,120,1,0,,,,,,,,,,,,593648,,,,,,,
8880,note_on,120,0,1,,,,,,,,,,,,,,,0,,,61,0
8880,note_on,0,0,1,,,,,,,,,,,,,,,0,,,64,57
8880,note_on,120,0,2,,,,,,,,,,,,,,,0,,,56,47
8920,set_tempo,160,1,0,,,,,,,,,,,,596540,,,,,,,
9000,note_on,120,0,2,,,,,,,,,,,,,,,0,,,56,0
9000,note_on,0,0,1,,,,,,,,,,,,,,,0,,,68,57
9000,note_on,120,0,1,,,,,,,,,,,,,,,0,,,64,0
9080,set_tempo,160,1,0,,,,,,,,,,,,599401,,,,,,,
9120,note_on,120,0,1,,,,,,,,,,,,,,,0,,,68,0
9120,note_on,120,0,2,,,,,,,,,,,,,,,0,,,49,51
9120,note_on,0,0,1,,,,,,,,,,,,,,,0,,,64,60
9220,set_tempo,140,1,0,,,,,,,,,,,,590842,,,,,,,
9240,note_on,120,0,2,,,,,,,,,,,,,,,0,,,49,0
9240,note_on,120,0,1,,,,,,,,,,,,,,,0,,,64,0
9240,note_on,0,0,1,,,,,,,,,,,,,,,0,,,61,57
9340,set_tempo,120,1,0,,,,,,,,,,,,593648,,,,,,,
9360,note_on,0,0,1,,,,,,,,,,,,,,,0,,,64,57
9360,note_on,120,0,2,,,,,,,,,,,,,,,0,,,57,47
9360,note_on,120,0,1,,,,,,,,,,,,,,,0,,,61,0
9460,set_tempo,120,1,0,,,,,,,,,,,,596540,,,,,,,
9480,note_on,0,0,1,,,,,,,,,,,,,,,0,,,69,57
9480,note_on,120,0,1,,,,,,,,,,,,,,,0,,,64,0
9480,note_on,120,0,2,,,,,,,,,,,,,,,0,,,57,0
9600,note_on,120,0,1,,,,,,,,,,,,,,,0,,,69,0
9600,note_on,120,0,2,,,,,,,,,,,,,,,0,,,47,51
9600,note_on,0,0,1,,,,,,,,,,,,,,,0,,,63,59
9720,note_on,120,0,2,,,,,,,,,,,,,,,0,,,47,0
9720,set_tempo,260,1,0,,,,,,,,,,,,590842,,,,,,,
9720,note_on,120,0,1,,,,,,,,,,,,,,,0,,,63,0
9720,note_on,0,0,1,,,,,,,,,,,,,,,0,,,59,57
9820,set_tempo,100,1,0,,,,,,,,,,,,593648,,,,,,,
9840,note_on,120,0,2,,,,,,,,,,,,,,,0,,,57,48
9840,note_on,120,0,1,,,,,,,,,,,,,,,0,,,59,0
9840,note_on,0,0,1,,,,,,,,,,,,,,,0,,,63,57
9920,set_tempo,100,1,0,,,,,,,,,,,,596540,,,,,,,
9960,note_on,120,0,2,,,,,,,,,,,,,,,0,,,57,0
9960,note_on,0,0,1,,,,,,,,,,,,,,,0,,,69,57
9960,note_on,120,0,1,,,,,,,,,,,,,,,0,,,63,0
10020,set_tempo,100,1,0,,,,,,,,,,,,599401,,,,,,,
10080,note_on,120,0,1,,,,,,,,,,,,,,,0,,,69,0
10080,note_on,120,0,2,,,,,,,,,,,,,,,0,,,47,51
10080,note_on,0,0,1,,,,,,,,,,,,,,,0,,,63,59
10120,set_tempo,100,1,0,,,,,,,,,,,,602228,,,,,,,
10200,note_on,0,0,1,,,,,,,,,,,,,,,0,,,59,57
10200,note_on,120,0,1,,,,,,,,,,,,,,,0,,,63,0
10200,set_tempo,80,1,0,,,,,,,,,,,,593648,,,,,,,
10200,note_on,120,0,2,,,,,,,,,,,,,,,0,,,47,0
10320,note_on,0,0,1,,,,,,,,,,,,,,,0,,,63,57
10320,note_on,120,0,1,,,,,,,,,,,,,,,0,,,59,0
10320,note_on,120,0,2,,,,,,,,,,,,,,,0,,,56,47
10360,set_tempo,160,1,0,,,,,,,,,,,,596540,,,,,,,
10440,note_on,120,0,2,,,,,,,,,,,,,,,0,,,56,0
10440,note_on,120,0,1,,,,,,,,,,,,,,,0,,,63,0
10440,note_on,0,0,1,,,,,,,,,,,,,,,0,,,68,57
10500,set_tempo,140,1,0,,,,,,,,,,,,599401,,,,,,,
10560,note_on,120,0,2,,,,,,,,,,,,,,,0,,,52,52
10560,note_on,120,0,1,,,,,,,,,,,,,,,0,,,68,0
10560,note_on,0,0,1,,,,,,,,,,,,,,,0,,,68,62
10640,set_tempo,140,1,0,,,,,,,,,,,,602228,,,,,,,
10680,set_tempo,40,1,0,,,,,,,,,,,,590842,,,,,,,
10680,note_on,120,0,1,,,,,,,,,,,,,,,0,,,68,0
10680,note_on,0,0,1,,,,,,,,,,,,,,,0,,,61,59
10680,note_on,120,0,2,,,,,,,,,,,,,,,0,,,52,0
10800,note_on,120,0,1,,,,,,,,,,,,,,,0,,,61,0
10800,note_on,0,0,1,,,,,,,,,,,,,,,0,,,68,59
10800,set_tempo,120,1,0,,,,,,,,,,,,593648,,,,,,,
10800,note_on,120,0,2,,,,,,,,,,,,,,,0,,,56,48
10920,note_on,0,0,1,,,,,,,,,,,,,,,0,,,73,59
10920,note_on,120,0,1,,,,,,,,,,,,,,,0,,,68,0
10920,note_on,120,0,2,,,,,,,,,,,,,,,0,,,56,0
10920,set_tempo,120,1,0,,,,,,,,,,,,596540,,,,,,,
11040,note_on,0,0,1,,,,,,,,,,,,,,,0,,,66,62
11040,note_on,120,0,1,,,,,,,,,,,,,,,0,,,73,0
11040,note_on,120,0,2,,,,,,,,,,,,,,,0,,,45,52
11040,set_tempo,120,1,0,,,,,,,,,,,,599401,,,,,,,
11140,set_tempo,100,1,0,,,,,,,,,,,,602228,,,,,,,
11160,note_on,0,0,1,,,,,,,,,,,,,,,0,,,63,59
11160,set_tempo,20,1,0,,,,,,,,,,,,593648,,,,,,,
11160,note_on,120,0,1,,,,,,,,,,,,,,,0,,,66,0
11160,note_on,120,0,2,,,,,,,,,,,,,,,0,,,45,0
11280,note_on,0,0,1,,,,,,,,,,,,,,,0,,,66,59
11280,note_on,120,0,2,,,,,,,,,,,,,,,0,,,57,49
11280,note_on,120,0,1,,,,,,,,,,,,,,,0,,,63,0
11320,set_tempo,160,1,0,,,,,,,,,,,,596540,,,,,,,
11400,note_on,120,0,1,,,,,,,,,,,,,,,0,,,66,0
11400,note_on,120,0,2,,,,,,,,,,,,,,,0,,,57,0
11400,note_on,0,0,1,,,,,,,,,,,,,,,0,,,73,59
11480,set_tempo,160,1,0,,,,,,,,,,,,599401,,,,,,,
11520,note_on,120,0,1,,,,,,,,,,,,,,,0,,,73,0
11520,note_on,120,0,2,,,,,,,,,,,,,,,0,,,44,51
11520,note_on,0,0,1,,,,,,,,,,,,,,,0,,,68,63
11620,set_tempo,140,1,0,,,,,,,,,,,,602228,,,,,,,
11640,note_on,120,0,1,,,,,,,,,,,,,,,0,,,68,0
11640,note_on,0,0,1,,,,,,,,,,,,,,,0,,,64,59
11640,set_tempo,20,1,0,,,,,,,,,,,,588062,,,,,,,
11640,note_on,120,0,2,,,,,,,,,,,,,,,0,,,44,0
11740,set_tempo,100,1,0,,,,,,,,,,,,590842,,,,,,,
11760,note_on,0,0,1,,,,,,,,,,,,,,,0,,,68,59
11760,note_on,120,0,2,,,,,,,,,,,,,,,0,,,59,49
11760,note_on,120,0,1,,,,,,,,,,,,,,,0,,,64,0
11840,set_tempo,100,1,0,,,,,,,,,,,,593648,,,,,,,
11880,note_on,120,0,1,,,,,,,,,,,,,,,0,,,68,0
11880,note_on,0,0,1,,,,,,,,,,,,,,,0,,,73,59
11880,note_on,120,0,2,,,,,,,,,,,,,,,0,,,59,0
11920,set_tempo,80,1,0,,,,,,,,,,,,596540,,,,,,,
12000,note_on,120,0,1,,,,,,,,,,,,,,,0,,,73,0
12000,note_on,0,0,1,,,,,,,,,,,,,,,0,,,68,62
12000,note_on,120,0,2,,,,,,,,,,,,,,,0,,,56,52
12000,set_tempo,80,1,0,,,,,,,,,,,,590842,,,,,,,
12120,note_on,120,0,2,,,,,,,,,,,,,,,0,,,56,0
12120,note_on,0,0,1,,,,,,,,,,,,,,,0,,,64,60
12120,note_on,120,0,1,,,,,,,,,,,,,,,0,,,68,0
12140,set_tempo,140,1,0,,,,,,,,,,,,593648,,,,,,,
12240,note_on,0,0,1,,,,,,,,,,,,,,,0,,,68,60
12240,note_on,120,0,1,,,,,,,,,,,,,,,0,,,64,0
12240,note_on,120,0,2,,,,,,,,,,,,,,,0,,,59,49
12280,set_tempo,140,1,0,,,,,,,,,,,,596540,,,,,,,
12360,note_on,120,0,2,,,,,,,,,,,,,,,0,,,59,0
12360,note_on,120,0,1,,,,,,,,,,,,,,,0,,,68,0
12360,note_on,0,0,1,,,,,,,,,,,,,,,0,,,71,60
12420,set_tempo,140,1,0,,,,,,,,,,,,599401,,,,,,,
12480,note_on,120,0,2,,,,,,,,,,,,,,,0,,,49,52
12480,note_on,0,0,1,,,,,,,,,,,,,,,0,,,67,68
12480,note_on,120,0,1,,,,,,,,,,,,,,,0,,,71,0
12540,set_tempo,120,1,0,,,,,,,,,,,,602228,,,,,,,
12600,note_on,0,0,1,,,,,,,,,,,,,,,0,,,64,59
12600,note_on,120,0,2,,,,,,,,,,,,,,,0,,,49,0
12600,note_on,120,0,1,,,,,,,,,,,,,,,0,,,67,0
12600,set_tempo,60,1,0,,,,,,,,,,,,593003,,,,,,,
12720,note_on,0,0,1,,,,,,,,,,,,,,,0,,,67,61
12720,note_on,120,0,1,,,,,,,,,,,,,,,0,,,64,0
12720,set_tempo,120,1,0,,,,,,,,,,,,596007,,,,,,,
12720,note_on,120,0,2,,,,,,,,,,,,,,,0,,,52,47
12840,note_on,120,0,2,,,,,,,,,,,,,,,0,,,52,0
12840,set_tempo,120,1,0,,,,,,,,,,,,598922,,,,,,,
12840,note_on,120,0,1,,,,,,,,,,,,,,,0,,,67,0
12840,note_on,0,0,1,,,,,,,,,,,,,,,0,,,70,63
12960,note_on,120,0,1,,,,,,,,,,,,,,,0,,,70,0
12960,note_on,120,0,2,,,,,,,,,,,,,,,0,,,48,52
12960,set_tempo,120,1,0,,,,,,,,,,,,601987,,,,,,,
12960,note_on,0,0,1,,,,,,,,,,,,,,,0,,,76,65
13080,set_tempo,120,1,0,,,,,,,,,,,,593003,,,,,,,
13080,note_on,120,0,1,,,,,,,,,,,,,,,0,,,76,0
13080,note_on,0,0,1,,,,,,,,,,,,,,,0,,,70,60
13080,note_on,120,0,2,,,,,,,,,,,,,,,0,,,48,0
13120,set_tempo,40,1,0,,,,,,,,,,,,590029,,,,,,,
13200,note_on,120,0,1,,,,,,,,,,,,,,,0,,,70,0
13200,note_on,0,0,1,,,,,,,,,,,,,,,0,,,76,62
13200,set_tempo,80,1,0,,,,,,,,,,,,593003,,,,,,,
13200,note_on,120,0,2,,,,,,,,,,,,,,,0,,,58,44
13280,set_tempo,80,1,0,,,,,,,,,,,,596007,,,,,,,
13320,note_on,120,0,2,,,,,,,,,,,,,,,0,,,58,0
13320,note_on,0,0,1,,,,,,,,,,,,,,,0,,,79,64
13320,note_on,120,0,1,,,,,,,,,,,,,,,0,,,76,0
13360,set_tempo,80,1,0,,,,,,,,,,,,598922,,,,,,,
13440,note_on,120,0,1,,,,,,,,,,,,,,,0,,,79,0
13440,set_tempo,80,1,0,,,,,,,,,,,,590842,,,,,,,
13440,note_on,120,0,2,,,,,,,,,,,,,,,0,,,47,48
13440,note_on,0,0,1,,,,,,,,,,,,,,,0,,,75,64
13560,note_on,120,0,1,,,,,,,,,,,,,,,0,,,75,0
13560,note_on,0,0,1,,,,,,,,,,,,,,,0,,,79,62
13560,note_on,120,0,2,,,,,,,,,,,,,,,0,,,47,0
13580,set_tempo,140,1,0,,,,,,,,,,,,593648,,,,,,,
13680,note_on,120,0,2,,,,,,,,,,,,,,,0,,,59,45
13680,note_on,0,0,1,,,,,,,,,,,,,,,0,,,75,63
13680,note_on,120,0,1,,,,,,,,,,,,,,,0,,,79,0
13720,set_tempo,140,1,0,,,,,,,,,,,,596540,,,,,,,
13800,note_on,120,0,2,,,,,,,,,,,,,,,0,,,59,0
13800,note_on,120,0,1,,,,,,,,,,,,,,,0,,,75,0
13800,note_on,0,0,1,,,,,,,,,,,,,,,0,,,78,61
13860,set_tempo,140,1,0,,,,,,,,,,,,599401,,,,,,,
13920,note_on,120,0,1,,,,,,,,,,,,,,,0,,,78,0
13920,note_on,0,0,1,,,,,,,,,,,,,,,0,,,69,62
13920,note_on,120,0,2,,,,,,,,,,,,,,,0,,,48,48
13980,set_tempo,120,1,0,,,,,,,,,,,,602228,,,,,,,
14040,note_on,120,0,1,,,,,,,,,,,,,,,0,,,69,0
14040,note_on,0,0,1,,,,,,,,,,,,,,,0,,,76,61
14040,note_on,120,0,2,,,,,,,,,,,,,,,0,,,48,0
14120,set_tempo,140,1,0,,,,,,,,,,,,605205,,,,,,,
14160,note_on,120,0,2,,,,,,,,,,,,,,,0,,,54,43
14160,note_on,0,0,1,,,,,,,,,,,,,,,0,,,69,62
14160,note_on,120,0,1,,,,,,,,,,,,,,,0,,,76,0
14260,set_tempo,140,1,0,,,,,,,,,,,,608149,,,,,,,
14280,note_on,120,0,1,,,,,,,,,,,,,,,0,,,69,0
14280,note_on,0,0,1,,,,,,,,,,,,,,,0,,,75,60
14280,note_on,120,0,2,,,,,,,,,,,,,,,0,,,54,0
14380,set_tempo,120,1,0,,,,,,,,,,,,611122,,,,,,,
14400,note_on,120,0,1,,,,,,,,,,,,,,,0,,,75,0
14400,note_on,0,0,1,,,,,,,,,,,,,,,0,,,69,59
14400,note_on,120,0,2,,,,,,,,,,,,,,,0,,,49,45
14520,note_on,120,0,2,,,,,,,,,,,,,,,0,,,49,0
14520,note_on,0,0,1,,,,,,,,,,,,,,,0,,,78,56
14520,note_on,120,0,1,,,,,,,,,,,,,,,0,,,69,0
14520,set_tempo,140,1,0,,,,,,,,,,,,614125,,,,,,,
14640,note_on,120,0,2,,,,,,,,,,,,,,,0,,,52,39
14640,note_on,120,0,1,,,,,,,,,,,,,,,0,,,78,0
14640,note_on,0,0,1,,,,,,,,,,,,,,,0,,,68,59
14660,set_tempo,140,1,0,,,,,,,,,,,,617157,,,,,,,
14760,note_on,120,0,2,,,,,,,,,,,,,,,0,,,52,0
14760,note_on,120,0,1,,,,,,,,,,,,,,,0,,,68,0
14760,note_on,0,0,1,,,,,,,,,,,,,,,0,,,76,56
14800,set_tempo,140,1,0,,,,,,,,,,,,620219,,,,,,,
14880,note_on,120,0,1,,,,,,,,,,,,,,,0,,,76,0
14880,note_on,0,0,1,,,,,,,,,,,,,,,0,,,64,58
14880,note_on,120,0,2,,,,,,,,,,,,,,,0,,,45,46
14920,set_tempo,120,1,0,,,,,,,,,,,,623377,,,,,,,
15000,note_on,120,0,2,,,,,,,,,,,,,,,0,,,45,0
15000,note_on,0,0,1,,,,,,,,,,,,,,,0,,,73,55
15000,note_on,120,0,1,,,,,,,,,,,,,,,0,,,64,0
15060,set_tempo,140,1,0,,,,,,,,,,,,626436,,,,,,,
15120,note_on,120,0,1,,,,,,,,,,,,,,,0,,,73,0
15120,note_on,0,0,1,,,,,,,,,,,,,,,0,,,61,57
15120,note_on,120,0,2,,,,,,,,,,,,,,,0,,,54,40
15200,set_tempo,140,1,0,,,,,,,,,,,,629657,,,,,,,
15240,note_on,120,0,1,,,,,,,,,,,,,,,0,,,61,0
15240,note_on,0,0,1,,,,,,,,,,,,,,,0,,,69,55
15240,note_on,120,0,2,,,,,,,,,,,,,,,0,,,54,0
15320,set_tempo,120,1,0,,,,,,,,,,,,628272,,,,,,,
15360,note_on,120,0,2,,,,,,,,,,,,,,,0,,,47,46
15360,set_tempo,40,1,0,,,,,,,,,,,,628272,,,,,,,
15360,note_on,120,0,1,,,,,,,,,,,,,,,0,,,69,0
15360,note_on,0,0,1,,,,,,,,,,,,,,,0,,,59,57
15480,note_on,0,0,1,,,,,,,,,,,,,,,0,,,68,55
15480,set_tempo,120,1,0,,,,,,,,,,,,625000,,,,,,,
15480,note_on,120,0,1,,,,,,,,,,,,,,,0,,,59,0
15480,note_on,120,0,2,,,,,,,,,,,,,,,0,,,47,0
15580,set_tempo,100,1,0,,,,,,,,,,,,621762,,,,,,,
15600,note_on,120,0,1,,,,,,,,,,,,,,,0,,,68,0
15600,note_on,0,0,1,,,,,,,,,,,,,,,0,,,64,57
15600,note_on,120,0,2,,,,,,,,,,,,,,,0,,,56,43
15680,set_tempo,100,1,0,,,,,,,,,,,,618557,,,,,,,
15720,note_on,120,0,1,,,,,,,,,,,,,,,0,,,64,0
15720,note_on,0,0,1,,,,,,,,,,,,,,,0,,,71,56
15720,note_on,120,0,2,,,,,,,,,,,,,,,0,,,56,0
15800,set_tempo,120,1,0,,,,,,,,,,,,615385,,,,,,,
15840,note_on,120,0,2,,,,,,,,,,,,,,,0,,,47,45
15840,note_on,120,0,1,,,,,,,,,,,,,,,0,,,71,0
15840,note_on,0,0,1,,,,,,,,,,,,,,,0,,,59,57
15900,set_tempo,100,1,0,,,,,,,,,,,,612245,,,,,,,
15960,note_on,120,0,1,,,,,,,,,,,,,,,0,,,59,0
15960,note_on,120,0,2,,,,,,,,,,,,,,,0,,,47,0
15960,note_on,0,0,1,,,,,,,,,,,,,,,0,,,69,56
16000,set_tempo,100,1,0,,,,,,,,,,,,609137,,,,,,,
16080,note_on,120,0,1,,,,,,,,,,,,,,,0,,,69,0
16080,note_on,0,0,1,,,,,,,,,,,,,,,0,,,63,57
16080,note_on,120,0,2,,,,,,,,,,,,,,,0,,,57,41
16100,set_tempo,100,1,0,,,,,,,,,,,,606061,,,,,,,
16200,note_on,120,0,2,,,,,,,,,,,,,,,0,,,57,0
16200,note_on,0,0,1,,,,,,,,,,,,,,,0,,,71,56
16200,note_on,120,0,1,,,,,,,,,,,,,,,0,,,63,0
16220,set_tempo,120,1,0,,,,,,,,,,,,603015,,,,,,,
16320,note_on,120,0,1,,,,,,,,,,,,,,,0,,,71,0
16320,note_on,0,0,1,,,,,,,,,,,,,,,0,,,69,57
16320,note_on,120,0,2,,,,,,,,,,,,,,,0,,,47,46
16320,set_tempo,100,1,0,,,,,,,,,,,,600000,,,,,,,
16420,set_tempo,100,1,0,,,,,,,,,,,,597015,,,,,,,
16440,note_on,120,0,1,,,,,,,,,,,,,,,0,,,63,54
16440,note_on,120,0,2,,,,,,,,,,,,,,,0,,,47,0
16520,set_tempo,100,1,0,,,,,,,,,,,,594059,,,,,,,
16560,note_on,120,0,1,,,,,,,,,,,,,,,0,,,63,0
16560,note_on,0,0,1,,,,,,,,,,,,,,,0,,,59,54
16560,note_on,120,0,2,,,,,,,,,,,,,,,0,,,54,39
16580,set_tempo,60,1,0,,,,,,,,,,,,597015,,,,,,,
16680,note_on,0,0,1,,,,,,,,,,,,,,,0,,,69,0
16680,note_on,120,0,2,,,,,,,,,,,,,,,0,,,54,0
16680,note_on,0,0,1,,,,,,,,,,,,,,,0,,,69,57
16680,note_on,120,0,1,,,,,,,,,,,,,,,0,,,59,0
16800,note_on,0,0,1,,,,,,,,,,,,,,,0,,,68,57
16800,note_on,120,0,1,,,,,,,,,,,,,,,0,,,69,0
16800,note_on,120,0,2,,,,,,,,,,,,,,,0,,,52,47
16920,note_on,120,0,1,,,,,,,,,,,,,,,0,,,68,0
16920,note_on,0,0,1,,,,,,,,,,,,,,,0,,,64,53
16920,note_on,120,0,2,,,,,,,,,,,,,,,0,,,52,0
16940,set_tempo,360,1,0,,,,,,,,,,,,600000,,,,,,,
17000,set_tempo,60,1,0,,,,,,,,,,,,585080,,,,,,,
17040,note_on,120,0,2,,,,,,,,,,,,,,,0,,,54,41
17040,note_on,0,0,1,,,,,,,,,,,,,,,0,,,68,55
17040,note_on,120,0,1,,,,,,,,,,,,,,,0,,,64,0
17080,set_tempo,80,1,0,,,,,,,,,,,,587889,,,,,,,
17160,note_on,120,0,2,,,,,,,,,,,,,,,0,,,54,0
17160,set_tempo,80,1,0,,,,,,,,,,,,590667,,,,,,,
17160,note_on,0,0,1,,,,,,,,,,,,,,,0,,,69,57
17160,note_on,120,0,1,,,,,,,,,,,,,,,0,,,68,0
17240,set_tempo,80,1,0,,,,,,,,,,,,593472,,,,,,,
17260,set_tempo,20,1,0,,,,,,,,,,,,604047,,,,,,,
17280,note_on,120,0,1,,,,,,,,,,,,,,,0,,,69,0
17280,note_on,0,0,1,,,,,,,,,,,,,,,0,,,71,59
17280,set_tempo,20,1,0,,,,,,,,,,,,609137,,,,,,,
17280,note_on,120,0,2,,,,,,,,,,,,,,,0,,,56,45
17400,note_on,120,0,1,,,,,,,,,,,,,,,0,,,71,0
17400,note_on,0,0,1,,,,,,,,,,,,,,,0,,,68,50
17400,set_tempo,120,1,0,,,,,,,,,,,,612245,,,,,,,
17400,note_on,120,0,2,,,,,,,,,,,,,,,0,,,56,0
17520,note_on,120,0,2,,,,,,,,,,,,,,,0,,,59,36
17520,note_on,120,0,1,,,,,,,,,,,,,,,0,,,68,0
17520,note_on,0,0,1,,,,,,,,,,,,,,,0,,,71,53
17520,set_tempo,120,1,0,,,,,,,,,,,,615385,,,,,,,
17640,note_on,120,0,2,,,,,,,,,,,,,,,0,,,59,0
17640,note_on,0,0,1,,,,,,,,,,,,,,,0,,,80,46
17640,note_on,120,0,1,,,,,,,,,,,,,,,0,,,71,0
17760,note_on,120,0,2,,,,,,,,,,,,,,,0,,,56,34
17760,set_tempo,240,1,0,,,,,,,,,,,,603015,,,,,,,
17760,note_on,0,0,1,,,,,,,,,,,,,,,0,,,71,49
17760,note_on,120,0,1,,,,,,,,,,,,,,,0,,,80,0
17880,note_on,120,0,1,,,,,,,,,,,,,,,0,,,71,0
17880,note_on,120,0,2,,,,,,,,,,,,,,,0,,,56,0
17880,note_on,0,0,1,,,,,,,,,,,,,,,0,,,78,44
18000,note_on,120,0,1,,,,,,,,,,,,,,,0,,,78,0
18000,note_on,120,0,2,,,,,,,,,,,,,,,0,,,64,31
18000,note_on,0,0,1,,,,,,,,,,,,,,,0,,,72,49
18120,note_on,120,0,2,,,,,,,,,,,,,,,0,,,64,0
18120,note_on,120,0,1,,,,,,,,,,,,,,,0,,,72,0
18120,note_on,0,0,1,,,,,,,,,,,,,,,0,,,76,46
18240,note_on,0,0,1,,,,,,,,,,,,,,,0,,,73,53
18240,note_on,120,0,1,,,,,,,,,,,,,,,0,,,76,0
18240,set_tempo,480,1,0,,,,,,,,,,,,646482,,,,,,,
18240,note_on,120,0,2,,,,,,,,,,,,,,,0,,,57,45
18360,note_on,120,0,2,,,,,,,,,,,,,,,0,,,57,0
18360,set_tempo,120,1,0,,,,,,,,,,,,630583,,,,,,,
18360,note_on,0,0,1,,,,,,,,,,,,,,,0,,,64,56
18360,note_on,120,0,1,,,,,,,,,,,,,,,0,,,73,0
18480,note_on,0,0,1,,,,,,,,,,,,,,,0,,,73,54
18480,note_on,120,0,1,,,,,,,,,,,,,,,0,,,64,0
18480,note_on,120,0,2,,,,,,,,,,,,,,,0,,,45,40
18520,set_tempo,160,1,0,,,,,,,,,,,,633580,,,,,,,
18600,note_on,120,0,2,,,,,,,,,,,,,,,0,,,45,0
18600,note_on,120,0,1,,,,,,,,,,,,,,,0,,,73,0
18600,note_on,0,0,1,,,,,,,,,,,,,,,0,,,76,55
18680,set_tempo,160,1,0,,,,,,,,,,,,636605,,,,,,,
18720,note_on,120,0,2,,,,,,,,,,,,,,,0,,,47,41
18720,note_on,0,0,1,,,,,,,,,,,,,,,0,,,71,59
18720,note_on,120,0,1,,,,,,,,,,,,,,,0,,,76,0
18840,note_on,0,0,1,,,,,,,,,,,,,,,0,,,75,54
18840,set_tempo,160,1,0,,,,,,,,,,,,627615,,,,,,,
18840,note_on,120,0,2,,,,,,,,,,,,,,,0,,,47,0
18840,note_on,120,0,1,,,,,,,,,,,,,,,0,,,71,0
18940,set_tempo,100,1,0,,,,,,,,,,,,630583,,,,,,,
18960,note_on,120,0,1,,,,,,,,,,,,,,,0,,,75,0
18960,note_on,0,0,1,,,,,,,,,,,,,,,0,,,69,57
18960,note_on,120,0,2,,,,,,,,,,,,,,,0,,,49,42
19040,set_tempo,100,1,0,,,,,,,,,,,,633580,,,,,,,
19080,note_on,0,0,1,,,,,,,,,,,,,,,0,,,73,54
19080,note_on,120,0,2,,,,,,,,,,,,,,,0,,,49,0
19080,note_on,120,0,1,,,,,,,,,,,,,,,0,,,69,0
19140,set_tempo,100,1,0,,,,,,,,,,,,636605,,,,,,,
19200,note_on,120,0,2,,,,,,,,,,,,,,,0,,,47,45
19200,note_on,0,0,1,,,,,,,,,,,,,,,0,,,68,57
19200,note_on,120,0,1,,,,,,,,,,,,,,,0,,,73,0
19240,set_tempo,100,1,0,,,,,,,,,,,,639659,,,,,,,
19320,note_on,0,0,1,,,,,,,,,,,,,,,0,,,59,54
19320,note_on,120,0,1,,,,,,,,,,,,,,,0,,,68,0
19320,note_on,120,0,2,,,,,,,,,,,,,,,0,,,47,0
19320,set_tempo,80,1,0,,,,,,,,,,,,630583,,,,,,,
19440,note_on,0,0,1,,,,,,,,,,,,,,,0,,,68,54
19440,note_on,120,0,1,,,,,,,,,,,,,,,0,,,59,0
19440,note_on,120,0,2,,,,,,,,,,,,,,,0,,,52,39
19480,set_tempo,160,1,0,,,,,,,,,,,,633580,,,,,,,
19560,note_on,0,0,1,,,,,,,,,,,,,,,0,,,71,54
19560,note_on,120,0,1,,,,,,,,,,,,,,,0,,,68,0
19560,note_on,120,0,2,,,,,,,,,,,,,,,0,,,52,0
19640,set_tempo,160,1,0,,,,,,,,,,,,636605,,,,,,,
19680,note_on,120,0,2,,,,,,,,,,,,,,,0,,,47,43
19680,note_on,0,0,1,,,,,,,,,,,,,,,0,,,64,57
19680,note_on,120,0,1,,,,,,,,,,,,,,,0,,,71,0
19800,note_on,0,0,1,,,,,,,,,,,,,,,0,,,58,51
19800,note_on,120,0,1,,,,,,,,,,,,,,,0,,,64,0
19800,set_tempo,160,1,0,,,,,,,,,,,,630583,,,,,,,
19800,note_on,120,0,2,,,,,,,,,,,,,,,0,,,47,0
19920,note_on,120,0,2,,,,,,,,,,,,,,,0,,,55,41
19920,set_tempo,120,1,0,,,,,,,,,,,,633580,,,,,,,
19920,note_on,0,0,1,,,,,,,,,,,,,,,0,,,64,52
19920,note_on,120,0,1,,,,,,,,,,,,,,,0,,,58,0
20040,note_on,120,0,2,,,,,,,,,,,,,,,0,,,55,0
20040,note_on,0,0,1,,,,,,,,,,,,,,,0,,,73,52
20040,set_tempo,120,1,0,,,,,,,,,,,,636605,,,,,,,
20040,note_on,120,0,1,,,,,,,,,,,,,,,0,,,64,0
20160,set_tempo,120,1,0,,,,,,,,,,,,656383,,,,,,,
20160,note_on,0,0,1,,,,,,,,,,,,,,,0,,,66,54
20160,note_on,120,0,1,,,,,,,,,,,,,,,0,,,73,0
20160,note_on,120,0,2,,,,,,,,,,,,,,,0,,,47,41
20280,note_on,0,0,1,,,,,,,,,,,,,,,0,,,57,49
20280,note_on,120,0,1,,,,,,,,,,,,,,,0,,,66,0
20280,note_on,120,0,2,,,,,,,,,,,,,,,0,,,47,0
20280,set_tempo,120,1,0,,,,,,,,,,,,647040,,,,,,,
20400,note_on,120,0,1,,,,,,,,,,,,,,,0,,,57,0
20400,note_on,0,0,1,,,,,,,,,,,,,,,0,,,66,49
20400,note_on,120,0,2,,,,,,,,,,,,,,,0,,,52,39
20520,note_on,120,0,2,,,,,,,,,,,,,,,0,,,52,0
20520,note_on,120,0,1,,,,,,,,,,,,,,,0,,,66,0
20520,note_on,0,0,1,,,,,,,,,,,,,,,0,,,71,49
20640,note_on,120,0,1,,,,,,,,,,,,,,,0,,,71,0
20640,note_on,0,0,1,,,,,,,,,,,,,,,0,,,66,53
20640,note_on,120,0,2,,,,,,,,,,,,,,,0,,,47,41
20760,note_on,120,0,2,,,,,,,,,,,,,,,0,,,47,0
20760,note_on,120,0,1,,,,,,,,,,,,,,,0,,,66,0
20760,note_on,0,0,1,,,,,,,,,,,,,,,0,,,57,48
20880,note_on,120,0,2,,,,,,,,,,,,,,,0,,,51,37
20880,note_on,0,0,1,,,,,,,,,,,,,,,0,,,66,48
20880,note_on,120,0,1,,,,,,,,,,,,,,,0,,,57,0
21000,note_on,120,0,1,,,,,,,,,,,,,,,0,,,66,0
21000,note_on,120,0,2,,,,,,,,,,,,,,,0,,,51,0
21000,note_on,0,0,1,,,,,,,,,,,,,,,0,,,71,48
21120,note_on,120,0,2,,,,,,,,,,,,,,,0,,,52,48
21120,set_tempo,840,1,0,,,,,,,,,,,,619067,,,,,,,
21120,note_on,0,0,1,,,,,,,,,,,,,,,0,,,64,48
21120,control_change,0,0,1,,,,,,,,,,,,,,,0,64,127,,
21120,note_on,120,0,1,,,,,,,,,,,,,,,0,,,71,0
21240,note_on,0,0,1,,,,,,,,,,,,,,,0,,,56,44
21240,note_on,120,0,1,,,,,,,,,,,,,,,0,,,64,0
21360,note_on,120,0,1,,,,,,,,,,,,,,,0,,,56,0
21360,note_on,0,0,1,,,,,,,,,,,,,,,0,,,64,44
21360,note_on,240,0,2,,,,,,,,,,,,,,,0,,,52,0
21480,note_on,120,0,1,,,,,,,,,,,,,,,0,,,64,0
21480,note_on,0,0,1,,,,,,,,,,,,,,,0,,,68,44
21580,control_change,100,0,1,,,,,,,,,,,,,,,0,64,0,,
21600,control_change,240,0,2,,,,,,,,,,,,,,,0,64,127,,
21600,note_on,0,0,2,,,,,,,,,,,,,,,0,,,47,48
21600,note_on,20,0,1,,,,,,,,,,,,,,,0,,,68,0
21720,note_on,120,0,2,,,,,,,,,,,,,,,0,,,47,0
21720,note_on,0,0,2,,,,,,,,,,,,,,,0,,,40,44
21840,note_on,120,0,2,,,,,,,,,,,,,,,0,,,40,0
21840,note_on,0,0,2,,,,,,,,,,,,,,,0,,,47,44
21960,note_on,0,0,2,,,,,,,,,,,,,,,0,,,52,45
21960,note_on,120,0,2,,,,,,,,,,,,,,,0,,,47,0
22080,control_change,0,0,2,,,,,,,,,,,,,,,0,64,0,,
22080,note_on,480,0,1,,,,,,,,,,,,,,,0,,,63,48
22080,note_on,120,0,2,,,,,,,,,,,,,,,0,,,52,0
22200,note_on,120,0,1,,,,,,,,,,,,,,,0,,,63,0
22200,note_on,0,0,1,,,,,,,,,,,,,,,0,,,57,43
22320,note_on,0,0,1,,,,,,,,,,,,,,,0,,,63,43
22320,note_on,120,0,1,,,,,,,,,,,,,,,0,,,57,0
22440,note_on,120,0,1,,,,,,,,,,,,,,,0,,,63,0
22440,note_on,0,0,1,,,,,,,,,,,,,,,0,,,71,43
22560,control_change,0,0,2,,,,,,,,,,,,,,,0,64,127,,
22560,note_on,480,0,2,,,,,,,,,,,,,,,0,,,47,48
22560,note_on,120,0,1,,,,,,,,,,,,,,,0,,,71,0
22680,note_on,0,0,2,,,,,,,,,,,,,,,0,,,40,44
22680,note_on,120,0,2,,,,,,,,,,,,,,,0,,,47,0
22800,note_on,0,0,2,,,,,,,,,,,,,,,0,,,47,44
22800,note_on,120,0,2,,,,,,,,,,,,,,,0,,,40,0
22920,note_on,0,0,2,,,,,,,,,,,,,,,0,,,54,44
22920,note_on,120,0,2,,,,,,,,,,,,,,,0,,,47,0
23040,note_on,0,0,1,,,,,,,,,,,,,,,0,,,64,48
23040,note_on,120,0,2,,,,,,,,,,,,,,,0,,,54,0
23040,set_tempo,1920,1,0,,,,,,,,,,,,626828,,,,,,,
23040,control_change,480,0,1,,,,,,,,,,,,,,,0,64,127,,
23040,control_change,0,0,2,,,,,,,,,,,,,,,0,64,0,,
23160,note_on,0,0,1,,,,,,,,,,,,,,,0,,,56,45
23160,note_on,120,0,1,,,,,,,,,,,,,,,0,,,64,0
23280,note_on,0,0,1,,,,,,,,,,,,,,,0,,,64,45
23280,note_on,120,0,1,,,,,,,,,,,,,,,0,,,56,0
23400,note_on,120,0,1,,,,,,,,,,,,,,,0,,,64,0
23400,note_on,0,0,1,,,,,,,,,,,,,,,0,,,68,45
23504,control_change,464,0,2,,,,,,,,,,,,,,,0,64,127,,
23520,note_on,120,0,1,,,,,,,,,,,,,,,0,,,68,0
23520,note_on,16,0,2,,,,,,,,,,,,,,,0,,,52,46
23520,set_tempo,480,1,0,,,,,,,,,,,,626828,,,,,,,
23520,note_on,0,0,1,,,,,,,,,,,,,,,0,,,68,44
23600,set_tempo,80,1,0,,,,,,,,,,,,629921,,,,,,,
23640,note_on,120,0,2,,,,,,,,,,,,,,,0,,,52,0
23640,note_on,0,0,1,,,,,,,,,,,,,,,0,,,71,49
23640,note_on,0,0,2,,,,,,,,,,,,,,,0,,,56,47
23640,note_on,120,0,1,,,,,,,,,,,,,,,0,,,68,0
23680,set_tempo,80,1,0,,,,,,,,,,,,632911,,,,,,,
23760,note_on,0,0,2,,,,,,,,,,,,,,,0,,,59,52
23760,set_tempo,80,1,0,,,,,,,,,,,,635997,,,,,,,
23760,note_on,0,0,1,,,,,,,,,,,,,,,0,,,76,53
23760,note_on,120,0,1,,,,,,,,,,,,,,,0,,,71,0
23760,note_on,120,0,2,,,,,,,,,,,,,,,0,,,56,0
23880,note_on,120,0,2,,,,,,,,,,,,,,,0,,,59,0
23880,note_on,0,0,2,,,,,,,,,,,,,,,0,,,64,56
23880,note_on,0,0,1,,,,,,,,,,,,,,,0,,,80,58
23880,note_on,120,0,1,,,,,,,,,,,,,,,0,,,76,0
23880,set_tempo,120,1,0,,,,,,,,,,,,707798,,,,,,,
23924,control_change,44,0,1,,,,,,,,,,,,,,,0,64,0,,
23936,control_change,56,0,2,,,,,,,,,,,,,,,0,64,0,,
23980,set_tempo,100,1,0,,,,,,,,,,,,645300,,,,,,,
24000,note_on,76,0,1,,,,,,,,,,,,,,,0,,,80,0
24000,note_on,64,0,2,,,,,,,,,,,,,,,0,,,64,0
24000,note_on,0,0,2,,,,,,,,,,,,,,,0,,,64,58
24000,control_change,0,0,2,,,,,,,,,,,,,,,0,64,127,,
24000,set_tempo,20,1,0,,,,,,,,,,,,629591,,,,,,,
24000,note_on,0,0,1,,,,,,,,,,,,,,,0,,,80,62
24120,note_on,120,0,1,,,,,,,,,,,,,,,0,,,68,46
24240,note_on,120,0,1,,,,,,,,,,,,,,,0,,,68,0
24240,note_on,0,0,1,,,,,,,,,,,,,,,0,,,80,0
24240,note_on,0,0,1,,,,,,,,,,,,,,,0,,,76,56
24240,note_on,240,0,2,,,,,,,,,,,,,,,0,,,64,0
24240,note_on,0,0,2,,,,,,,,,,,,,,,0,,,61,55
24344,control_change,104,0,2,,,,,,,,,,,,,,,0,64,0,,
24360,note_on,120,0,1,,,,,,,,,,,,,,,0,,,68,47
24480,note_on,0,0,1,,,,,,,,,,,,,,,0,,,75,53
24480,note_on,120,0,1,,,,,,,,,,,,,,,0,,,68,0
24480,note_on,136,0,2,,,,,,,,,,,,,,,0,,,61,0
24480,note_on,0,0,2,,,,,,,,,,,,,,,0,,,60,52
24480,note_on,0,0,1,,,,,,,,,,,,,,,0,,,76,0
24600,note_on,120,0,1,,,,,,,,,,,,,,,0,,,68,44
24720,note_on,240,0,2,,,,,,,,,,,,,,,0,,,60,0
24720,note_on,0,0,1,,,,,,,,,,,,,,,0,,,74,50
24720,note_on,0,0,1,,,,,,,,,,,,,,,0,,,75,0
24720,note_on,120,0,1,,,,,,,,,,,,,,,0,,,68,0
24720,note_on,0,0,2,,,,,,,,,,,,,,,0,,,59,49
24840,note_on,120,0,1,,,,,,,,,,,,,,,0,,,68,44
24960,note_on,240,0,2,,,,,,,,,,,,,,,0,,,59,0
24960,control_change,0,0,1,,,,,,,,,,,,,,,0,64,127,,
24960,note_on,0,0,1,,,,,,,,,,,,,,,0,,,73,48
24960,note_on,0,0,1,,,,,,,,,,,,,,,0,,,74,0
24960,note_on,120,0,1,,,,,,,,,,,,,,,0,,,68,0
24960,note_on,0,0,2,,,,,,,,,,,,,,,0,,,57,46
24960,set_tempo,960,1,0,,,,,,,,,,,,610874,,,,,,,
25080,note_on,0,0,1,,,,,,,,,,,,,,,0,,,61,43
25080,note_on,120,0,1,,,,,,,,,,,,,,,0,,,73,0
25200,note_on,240,0,2,,,,,,,,,,,,,,,0,,,57,0
25200,note_on,120,0,1,,,,,,,,,,,,,,,0,,,61,0
25200,note_on,0,0,1,,,,,,,,,,,,,,,0,,,69,43
25320,note_on,0,0,1,,,,,,,,,,,,,,,0,,,73,43
25320,note_on,120,0,1,,,,,,,,,,,,,,,0,,,69,0
25384,control_change,64,0,1,,,,,,,,,,,,,,,0,64,0,,
25440,note_on,240,0,2,,,,,,,,,,,,,,,0,,,52,48
25440,note_on,56,0,1,,,,,,,,,,,,,,,0,,,73,0
25440,control_change,0,0,2,,,,,,,,,,,,,,,0,64,127,,
25560,note_on,0,0,2,,,,,,,,,,,,,,,0,,,45,44
25560,note_on,120,0,2,,,,,,,,,,,,,,,0,,,52,0
25680,note_on,120,0,2,,,,,,,,,,,,,,,0,,,45,0
25680,note_on,0,0,2,,,,,,,,,,,,,,,0,,,52,44
25800,note_on,0,0,2,,,,,,,,,,,,,,,0,,,57,44
25800,note_on,120,0,2,,,,,,,,,,,,,,,0,,,52,0
25864,control_change,64,0,2,,,,,,,,,,,,,,,0,64,0,,
25920,note_on,56,0,2,,,,,,,,,,,,,,,0,,,57,0
25920,note_on,480,0,1,,,,,,,,,,,,,,,0,,,68,48
26040,note_on,0,0,1,,,,,,,,,,,,,,,0,,,62,42
26040,note_on,120,0,1,,,,,,,,,,,,,,,0,,,68,0
26160,note_on,0,0,1,,,,,,,,,,,,,,,0,,,68,42
26160,note_on,120,0,1,,,,,,,,,,,,,,,0,,,62,0
26280,note_on,0,0,1,,,,,,,,,,,,,,,0,,,76,42
26280,note_on,120,0,1,,,,,,,,,,,,,,,0,,,68,0
26400,note_on,120,0,1,,,,,,,,,,,,,,,0,,,76,0
26400,note_on,480,0,2,,,,,,,,,,,,,,,0,,,52,48
26520,note_on,0,0,2,,,,,,,,,,,,,,,0,,,45,41
26520,note_on,120,0,2,,,,,,,,,,,,,,,0,,,52,0
26640,note_on,0,0,2,,,,,,,,,,,,,,,0,,,52,41
26640,note_on,120,0,2,,,,,,,,,,,,,,,0,,,45,0
26760,note_on,120,0,2,,,,,,,,,,,,,,,0,,,52,0
26760,note_on,0,0,2,,,,,,,,,,,,,,,0,,,59,41
26880,note_on,120,0,2,,,,,,,,,,,,,,,0,,,59,0
26880,control_change,0,0,1,,,,,,,,,,,,,,,0,64,127,,
26880,note_on,480,0,1,,,,,,,,,,,,,,,0,,,69,48
27000,note_on,120,0,1,,,,,,,,,,,,,,,0,,,69,0
27000,note_on,0,0,1,,,,,,,,,,,,,,,0,,,61,42
27120,note_on,0,0,1,,,,,,,,,,,,,,,0,,,69,42
27120,note_on,120,0,1,,,,,,,,,,,,,,,0,,,61,0
27240,note_on,120,0,1,,,,,,,,,,,,,,,0,,,69,0
27240,note_on,0,0,1,,,,,,,,,,,,,,,0,,,73,43
27360,note_on,480,0,2,,,,,,,,,,,,,,,0,,,57,44
27360,control_change,0,0,2,,,,,,,,,,,,,,,0,64,127,,
27360,set_tempo,2400,1,0,,,,,,,,,,,,608026,,,,,,,
27360,note_on,0,0,1,,,,,,,,,,,,,,,0,,,73,43
27360,note_on,120,0,1,,,,,,,,,,,,,,,0,,,73,0
27440,set_tempo,80,1,0,,,,,,,,,,,,610874,,,,,,,
27480,note_on,0,0,2,,,,,,,,,,,,,,,0,,,61,49
27480,note_on,0,0,1,,,,,,,,,,,,,,,0,,,76,48
27480,note_on,120,0,1,,,,,,,,,,,,,,,0,,,73,0
27480,note_on,120,0,2,,,,,,,,,,,,,,,0,,,57,0
27500,set_tempo,60,1,0,,,,,,,,,,,,613874,,,,,,,
27580,set_tempo,80,1,0,,,,,,,,,,,,616776,,,,,,,
27600,note_on,120,0,1,,,,,,,,,,,,,,,0,,,76,0
27600,note_on,0,0,2,,,,,,,,,,,,,,,0,,,64,54
27600,note_on,0,0,1,,,,,,,,,,,,,,,0,,,81,53
27600,note_on,120,0,2,,,,,,,,,,,,,,,0,,,61,0
27640,set_tempo,60,1,0,,,,,,,,,,,,619771,,,,,,,
27720,note_on,120,0,1,,,,,,,,,,,,,,,0,,,81,0
27720,set_tempo,80,1,0,,,,,,,,,,,,712758,,,,,,,
27720,note_on,120,0,2,,,,,,,,,,,,,,,0,,,64,0
27720,note_on,0,0,1,,,,,,,,,,,,,,,0,,,85,59
27720,note_on,0,0,2,,,,,,,,,,,,,,,0,,,69,59
27776,control_change,56,0,2,,,,,,,,,,,,,,,0,64,0,,
27804,control_change,84,0,1,,,,,,,,,,,,,,,0,64,0,,
27840,note_on,36,0,1,,,,,,,,,,,,,,,0,,,85,0
27840,note_on,0,0,2,,,,,,,,,,,,,,,0,,,69,62
27840,control_change,0,0,2,,,,,,,,,,,,,,,0,64,127,,
27840,note_on,0,0,1,,,,,,,,,,,,,,,0,,,85,64
27840,set_tempo,120,1,0,,,,,,,,,,,,621054,,,,,,,
27840,note_on,64,0,2,,,,,,,,,,,,,,,0,,,69,0
27960,note_on,120,0,1,,,,,,,,,,,,,,,0,,,85,0
27960,note_on,0,0,1,,,,,,,,,,,,,,,0,,,73,56
28080,note_on,120,0,1,,,,,,,,,,,,,,,0,,,73,0
28080,note_on,0,0,1,,,,,,,,,,,,,,,0,,,81,61
28080,note_on,0,0,2,,,,,,,,,,,,,,,0,,,66,51
28080,note_on,240,0,2,,,,,,,,,,,,,,,0,,,69,0
28200,note_on,0,0,1,,,,,,,,,,,,,,,0,,,73,56
28200,note_on,120,0,1,,,,,,,,,,,,,,,0,,,81,0
28228,control_change,148,0,2,,,,,,,,,,,,,,,0,64,0,,
28320,note_on,92,0,2,,,,,,,,,,,,,,,0,,,66,0
28320,note_on,0,0,1,,,,,,,,,,,,,,,0,,,80,61
28320,note_on,0,0,2,,,,,,,,,,,,,,,0,,,71,51
28320,note_on,120,0,1,,,,,,,,,,,,,,,0,,,73,0
28440,note_on,120,0,1,,,,,,,,,,,,,,,0,,,80,0
28440,note_on,0,0,1,,,,,,,,,,,,,,,0,,,76,56
28560,note_on,0,0,1,,,,,,,,,,,,,,,0,,,78,61
28560,note_on,0,0,2,,,,,,,,,,,,,,,0,,,69,51
28560,note_on,0,0,2,,,,,,,,,,,,,,,0,,,59,51
28560,note_on,120,0,1,,,,,,,,,,,,,,,0,,,76,0
28560,note_on,240,0,2,,,,,,,,,,,,,,,0,,,71,0
28680,note_on,120,0,1,,,,,,,,,,,,,,,0,,,78,0
28680,note_on,0,0,1,,,,,,,,,,,,,,,0,,,75,55
28800,note_on,0,0,2,,,,,,,,,,,,,,,0,,,69,0
28800,note_on,240,0,2,,,,,,,,,,,,,,,0,,,59,0
28800,set_tempo,960,1,0,,,,,,,,,,,,618047,,,,,,,
28800,note_on,0,0,1,,,,,,,,,,,,,,,0,,,68,66
28800,note_on,0,0,1,,,,,,,,,,,,,,,0,,,76,66
28800,note_on,120,0,1,,,,,,,,,,,,,,,0,,,75,0
28800,note_on,0,0,1,,,,,,,,,,,,,,,0,,,64,66
28820,set_tempo,20,1,0,,,,,,,,,,,,653097,,,,,,,
28900,set_tempo,80,1,0,,,,,,,,,,,,656455,,,,,,,
28920,note_on,120,0,1,,,,,,,,,,,,,,,0,,,76,0
28920,note_on,0,0,1,,,,,,,,,,,,,,,0,,,68,0
28920,note_on,0,0,1,,,,,,,,,,,,,,,0,,,64,0
28920,note_on,0,0,1,,,,,,,,,,,,,,,0,,,68,61
28960,set_tempo,60,1,0,,,,,,,,,,,,659921,,,,,,,
29020,set_tempo,60,1,0,,,,,,,,,,,,663350,,,,,,,
29040,note_on,240,0,2,,,,,,,,,,,,,,,0,,,54,62
29040,note_on,0,0,2,,,,,,,,,,,,,,,0,,,56,62
29040,note_on,0,0,1,,,,,,,,,,,,,,,0,,,66,61
29040,note_on,120,0,1,,,,,,,,,,,,,,,0,,,68,0
29100,set_tempo,80,1,0,,,,,,,,,,,,666815,,,,,,,
29160,note_on,0,0,1,,,,,,,,,,,,,,,0,,,68,61
29160,note_on,120,0,1,,,,,,,,,,,,,,,0,,,66,0
29160,set_tempo,60,1,0,,,,,,,,,,,,670391,,,,,,,
29220,set_tempo,60,1,0,,,,,,,,,,,,673930,,,,,,,
29280,note_on,0,0,2,,,,,,,,,,,,,,,0,,,52,71
29280,note_on,240,0,2,,,,,,,,,,,,,,,0,,,54,0
29280,note_on,120,0,1,,,,,,,,,,,,,,,0,,,68,0
29280,note_on,0,0,1,,,,,,,,,,,,,,,0,,,64,58
29300,set_tempo,80,1,0,,,,,,,,,,,,677507,,,,,,,
29360,set_tempo,60,1,0,,,,,,,,,,,,681199,,,,,,,
29400,note_on,120,0,1,,,,,,,,,,,,,,,0,,,64,0
29400,note_on,0,0,1,,,,,,,,,,,,,,,0,,,68,62
29420,set_tempo,60,1,0,,,,,,,,,,,,684853,,,,,,,
29500,set_tempo,80,1,0,,,,,,,,,,,,688626,,,,,,,
29520,note_on,0,0,2,,,,,,,,,,,,,,,0,,,51,78
29520,note_on,240,0,2,,,,,,,,,,,,,,,0,,,52,0
29520,note_on,0,0,1,,,,,,,,,,,,,,,0,,,63,66
29520,note_on,120,0,1,,,,,,,,,,,,,,,0,,,68,0
29560,set_tempo,60,1,0,,,,,,,,,,,,692361,,,,,,,
29620,set_tempo,60,1,0,,,,,,,,,,,,696136,,,,,,,
29640,note_on,0,0,1,,,,,,,,,,,,,,,0,,,68,69
29640,note_on,120,0,1,,,,,,,,,,,,,,,0,,,63,0
29760,note_on,120,0,1,,,,,,,,,,,,,,,0,,,68,0
29760,set_tempo,140,1,0,,,,,,,,,,,,634317,,,,,,,
29760,note_on,0,0,1,,,,,,,,,,,,,,,0,,,64,85
29760,note_on,0,0,2,,,,,,,,,,,,,,,0,,,49,90
29760,note_on,0,0,2,,,,,,,,,,,,,,,0,,,56,0
29760,note_on,240,0,2,,,,,,,,,,,,,,,0,,,51,0
29880,note_on,120,0,2,,,,,,,,,,,,,,,0,,,49,0
29880,note_on,0,0,1,,,,,,,,,,,,,,,0,,,61,78
29880,note_on,120,0,1,,,,,,,,,,,,,,,0,,,64,0
30000,note_on,120,0,2,,,,,,,,,,,,,,,0,,,48,82
30000,note_on,120,0,1,,,,,,,,,,,,,,,0,,,61,0
30000,note_on,0,0,1,,,,,,,,,,,,,,,0,,,64,78
30120,note_on,120,0,2,,,,,,,,,,,,,,,0,,,48,0
30120,note_on,120,0,1,,,,,,,,,,,,,,,0,,,64,0
30120,note_on,0,0,1,,,,,,,,,,,,,,,0,,,68,78
30240,note_on,120,0,1,,,,,,,,,,,,,,,0,,,68,0
30240,note_on,0,0,1,,,,,,,,,,,,,,,0,,,64,83
30240,note_on,120,0,2,,,,,,,,,,,,,,,0,,,49,81
30360,note_on,0,0,1,,,,,,,,,,,,,,,0,,,61,78
30360,note_on,120,0,2,,,,,,,,,,,,,,,0,,,49,0
30360,note_on,120,0,1,,,,,,,,,,,,,,,0,,,64,0
30480,note_on,120,0,1,,,,,,,,,,,,,,,0,,,61,0
30480,set_tempo,720,1,0,,,,,,,,,,,,611621,,,,,,,
30480,note_on,120,0,2,,,,,,,,,,,,,,,0,,,52,81
30480,note_on,0,0,1,,,,,,,,,,,,,,,0,,,64,78
30600,note_on,120,0,1,,,,,,,,,,,,,,,0,,,64,0
30600,note_on,120,0,2,,,,,,,,,,,,,,,0,,,52,0
30600,note_on,0,0,1,,,,,,,,,,,,,,,0,,,69,78
30640,set_tempo,160,1,0,,,,,,,,,,,,614754,,,,,,,
30720,note_on,0,0,1,,,,,,,,,,,,,,,0,,,63,81
30720,note_on,120,0,2,,,,,,,,,,,,,,,0,,,48,87
30720,note_on,120,0,1,,,,,,,,,,,,,,,0,,,69,0
30800,set_tempo,160,1,0,,,,,,,,,,,,617920,,,,,,,
30840,note_on,120,0,1,,,,,,,,,,,,,,,0,,,63,0
30840,note_on,0,0,1,,,,,,,,,,,,,,,0,,,60,78
30840,note_on,120,0,2,,,,,,,,,,,,,,,0,,,48,0
30940,set_tempo,140,1,0,,,,,,,,,,,,621118,,,,,,,
30960,note_on,0,0,1,,,,,,,,,,,,,,,0,,,63,78
30960,note_on,120,0,1,,,,,,,,,,,,,,,0,,,60,0
30960,note_on,120,0,2,,,,,,,,,,,,,,,0,,,51,80
31080,note_on,0,0,1,,,,,,,,,,,,,,,0,,,69,78
31080,note_on,120,0,1,,,,,,,,,,,,,,,0,,,63,0
31080,note_on,120,0,2,,,,,,,,,,,,,,,0,,,51,0
31100,set_tempo,160,1,0,,,,,,,,,,,,624350,,,,,,,
31200,note_on,120,0,1,,,,,,,,,,,,,,,0,,,69,0
31200,note_on,120,0,2,,,,,,,,,,,,,,,0,,,56,80
31200,note_on,0,0,1,,,,,,,,,,,,,,,0,,,63,81
31260,set_tempo,160,1,0,,,,,,,,,,,,627681,,,,,,,
31320,note_on,120,0,1,,,,,,,,,,,,,,,0,,,63,0
31320,note_on,0,0,1,,,,,,,,,,,,,,,0,,,60,78
31320,note_on,120,0,2,,,,,,,,,,,,,,,0,,,56,0
31400,set_tempo,140,1,0,,,,,,,,,,,,630981,,,,,,,
31440,set_tempo,40,1,0,,,,,,,,,,,,608519,,,,,,,
31440,note_on,120,0,1,,,,,,,,,,,,,,,0,,,60,0
31440,note_on,0,0,1,,,,,,,,,,,,,,,0,,,63,78
31440,note_on,120,0,2,,,,,,,,,,,,,,,0,,,48,80
31560,note_on,120,0,2,,,,,,,,,,,,,,,0,,,48,0
31560,note_on,120,0,1,,,,,,,,,,,,,,,0,,,63,0
31560,note_on,0,0,1,,,,,,,,,,,,,,,0,,,68,78
31580,set_tempo,140,1,0,,,,,,,,,,,,611621,,,,,,,
31680,note_on,120,0,2,,,,,,,,,,,,,,,0,,,49,85
31680,note_on,120,0,1,,,,,,,,,,,,,,,0,,,68,0
31680,note_on,0,0,1,,,,,,,,,,,,,,,0,,,68,85
31700,set_tempo,120,1,0,,,,,,,,,,,,614754,,,,,,,
31800,note_on,120,0,1,,,,,,,,,,,,,,,0,,,68,0
31800,note_on,0,0,1,,,,,,,,,,,,,,,0,,,64,81
31800,note_on,120,0,2,,,,,,,,,,,,,,,0,,,49,0
31840,set_tempo,140,1,0,,,,,,,,,,,,617920,,,,,,,
31920,note_on,0,0,1,,,,,,,,,,,,,,,0,,,68,81
31920,note_on,120,0,2,,,,,,,,,,,,,,,0,,,51,81
31920,note_on,120,0,1,,,,,,,,,,,,,,,0,,,64,0
31960,set_tempo,120,1,0,,,,,,,,,,,,621118,,,,,,,
32040,note_on,0,0,1,,,,,,,,,,,,,,,0,,,76,81
32040,note_on,120,0,1,,,,,,,,,,,,,,,0,,,68,0
32040,note_on,120,0,2,,,,,,,,,,,,,,,0,,,51,0
32100,set_tempo,140,1,0,,,,,,,,,,,,624350,,,,,,,
32160,note_on,0,0,1,,,,,,,,,,,,,,,0,,,68,85
32160,note_on,120,0,2,,,,,,,,,,,,,,,0,,,52,81
32160,note_on,120,0,1,,,,,,,,,,,,,,,0,,,76,0
32220,set_tempo,120,1,0,,,,,,,,,,,,627681,,,,,,,
32280,note_on,0,0,1,,,,,,,,,,,,,,,0,,,64,81
32280,note_on,120,0,1,,,,,,,,,,,,,,,0,,,68,0
32280,note_on,120,0,2,,,,,,,,,,,,,,,0,,,52,0
32340,set_tempo,120,1,0,,,,,,,,,,,,630981,,,,,,,
32360,set_tempo,20,1,0,,,,,,,,,,,,627681,,,,,,,
32400,note_on,120,0,2,,,,,,,,,,,,,,,0,,,49,81
32400,note_on,120,0,1,,,,,,,,,,,,,,,0,,,64,0
32400,note_on,0,0,1,,,,,,,,,,,,,,,0,,,68,81
32400,set_tempo,40,1,0,,,,,,,,,,,,608519,,,,,,,
32520,note_on,0,0,1,,,,,,,,,,,,,,,0,,,73,81
32520,note_on,120,0,1,,,,,,,,,,,,,,,0,,,68,0
32520,note_on,120,0,2,,,,,,,,,,,,,,,0,,,49,0
32520,set_tempo,120,1,0,,,,,,,,,,,,611621,,,,,,,
32640,note_on,120,0,2,,,,,,,,,,,,,,,0,,,51,80
32640,note_on,0,0,1,,,,,,,,,,,,,,,0,,,69,87
32640,note_on,120,0,1,,,,,,,,,,,,,,,0,,,73,0
32640,set_tempo,120,1,0,,,,,,,,,,,,614754,,,,,,,
32760,note_on,120,0,2,,,,,,,,,,,,,,,0,,,51,0
32760,note_on,0,0,1,,,,,,,,,,,,,,,0,,,68,78
32760,note_on,120,0,1,,,,,,,,,,,,,,,0,,,69,0
32760,set_tempo,120,1,0,,,,,,,,,,,,617920,,,,,,,
32860,set_tempo,100,1,0,,,,,,,,,,,,621118,,,,,,,
32880,note_on,120,0,1,,,,,,,,,,,,,,,0,,,68,0
32880,note_on,0,0,1,,,,,,,,,,,,,,,0,,,66,79
32880,note_on,120,0,2,,,,,,,,,,,,,,,0,,,57,88
32980,set_tempo,120,1,0,,,,,,,,,,,,624350,,,,,,,
33000,note_on,120,0,2,,,,,,,,,,,,,,,0,,,57,0
33000,note_on,0,0,1,,,,,,,,,,,,,,,0,,,73,80
33000,note_on,120,0,1,,,,,,,,,,,,,,,0,,,66,0
33100,set_tempo,120,1,0,,,,,,,,,,,,627681,,,,,,,
33120,note_on,0,0,1,,,,,,,,,,,,,,,0,,,72,88
33120,note_on,120,0,1,,,,,,,,,,,,,,,0,,,73,0
33120,note_on,120,0,2,,,,,,,,,,,,,,,0,,,56,86
33220,set_tempo,120,1,0,,,,,,,,,,,,630981,,,,,,,
33240,note_on,120,0,1,,,,,,,,,,,,,,,0,,,72,0
33240,note_on,0,0,1,,,,,,,,,,,,,,,0,,,66,84
33240,note_on,120,0,2,,,,,,,,,,,,,,,0,,,56,0
33320,set_tempo,100,1,0,,,,,,,,,,,,634317,,,,,,,
33340,set_tempo,20,1,0,,,,,,,,,,,,630981,,,,,,,
33360,note_on,120,0,2,,,,,,,,,,,,,,,0,,,54,81
33360,note_on,120,0,1,,,,,,,,,,,,,,,0,,,66,0
33360,note_on,0,0,1,,,,,,,,,,,,,,,0,,,68,85
33360,set_tempo,20,1,0,,,,,,,,,,,,608519,,,,,,,
33480,note_on,120,0,2,,,,,,,,,,,,,,,0,,,54,0
33480,note_on,120,0,1,,,,,,,,,,,,,,,0,,,68,0
33480,note_on,0,0,1,,,,,,,,,,,,,,,0,,,72,87
33480,set_tempo,120,1,0,,,,,,,,,,,,611621,,,,,,,
33600,note_on,120,0,1,,,,,,,,,,,,,,,0,,,72,0
33600,note_on,0,0,1,,,,,,,,,,,,,,,0,,,73,93
33600,note_on,120,0,2,,,,,,,,,,,,,,,0,,,52,78
33600,set_tempo,120,1,0,,,,,,,,,,,,614754,,,,,,,
33720,note_on,0,0,1,,,,,,,,,,,,,,,0,,,68,81
33720,note_on,120,0,1,,,,,,,,,,,,,,,0,,,73,0
33720,note_on,120,0,2,,,,,,,,,,,,,,,0,,,52,0
33720,set_tempo,120,1,0,,,,,,,,,,,,617920,,,,,,,
33820,set_tempo,100,1,0,,,,,,,,,,,,621118,,,,,,,
33840,note_on,0,0,1,,,,,,,,,,,,,,,0,,,73,84
33840,note_on,120,0,1,,,,,,,,,,,,,,,0,,,68,0
33840,note_on,120,0,2,,,,,,,,,,,,,,,0,,,51,81
33940,set_tempo,120,1,0,,,,,,,,,,,,624350,,,,,,,
33960,note_on,120,0,1,,,,,,,,,,,,,,,0,,,73,0
33960,note_on,0,0,1,,,,,,,,,,,,,,,0,,,76,87
33960,note_on,120,0,2,,,,,,,,,,,,,,,0,,,51,0
34060,set_tempo,120,1,0,,,,,,,,,,,,627681,,,,,,,
34080,note_on,120,0,1,,,,,,,,,,,,,,,0,,,76,0
34080,note_on,120,0,2,,,,,,,,,,,,,,,0,,,49,84
34080,note_on,0,0,1,,,,,,,,,,,,,,,0,,,76,89
34180,set_tempo,120,1,0,,,,,,,,,,,,630981,,,,,,,
34200,note_on,120,0,2,,,,,,,,,,,,,,,0,,,49,0
34200,note_on,120,0,1,,,,,,,,,,,,,,,0,,,76,0
34200,note_on,0,0,1,,,,,,,,,,,,,,,0,,,68,87
34280,set_tempo,100,1,0,,,,,,,,,,,,634317,,,,,,,
34300,set_tempo,20,1,0,,,,,,,,,,,,637687,,,,,,,
34320,note_on,120,0,1,,,,,,,,,,,,,,,0,,,68,0
34320,set_tempo,20,1,0,,,,,,,,,,,,611621,,,,,,,
34320,note_on,0,0,1,,,,,,,,,,,,,,,0,,,76,91
34320,note_on,120,0,2,,,,,,,,,,,,,,,0,,,47,85
34440,set_tempo,120,1,0,,,,,,,,,,,,614754,,,,,,,
34440,note_on,120,0,1,,,,,,,,,,,,,,,0,,,76,0
34440,note_on,120,0,2,,,,,,,,,,,,,,,0,,,47,0
34440,note_on,0,0,1,,,,,,,,,,,,,,,0,,,80,95
34560,set_tempo,120,1,0,,,,,,,,,,,,617920,,,,,,,
34560,note_on,120,0,2,,,,,,,,,,,,,,,0,,,45,89
34560,note_on,120,0,1,,,,,,,,,,,,,,,0,,,80,0
34560,note_on,0,0,1,,,,,,,,,,,,,,,0,,,76,98
34660,set_tempo,100,1,0,,,,,,,,,,,,621118,,,,,,,
34680,note_on,120,0,1,,,,,,,,,,,,,,,0,,,76,0
34680,note_on,120,0,2,,,,,,,,,,,,,,,0,,,45,0
34680,note_on,0,0,1,,,,,,,,,,,,,,,0,,,69,95
34780,set_tempo,120,1,0,,,,,,,,,,,,624350,,,,,,,
34800,note_on,120,0,2,,,,,,,,,,,,,,,0,,,42,83
34800,note_on,0,0,1,,,,,,,,,,,,,,,0,,,76,93
34800,note_on,120,0,1,,,,,,,,,,,,,,,0,,,69,0
34860,note_on,60,0,2,,,,,,,,,,,,,,,0,,,42,0
34900,set_tempo,120,1,0,,,,,,,,,,,,627681,,,,,,,
34920,note_on,0,0,1,,,,,,,,,,,,,,,0,,,80,90
34920,note_on,60,0,2,,,,,,,,,,,,,,,0,,,44,83
34920,note_on,120,0,1,,,,,,,,,,,,,,,0,,,76,0
34980,note_on,60,0,2,,,,,,,,,,,,,,,0,,,44,0
35000,set_tempo,100,1,0,,,,,,,,,,,,630981,,,,,,,
35040,note_on,0,0,1,,,,,,,,,,,,,,,0,,,74,91
35040,note_on,120,0,1,,,,,,,,,,,,,,,0,,,80,0
35040,note_on,60,0,2,,,,,,,,,,,,,,,0,,,45,88
35120,set_tempo,120,1,0,,,,,,,,,,,,634317,,,,,,,
35160,note_on,120,0,2,,,,,,,,,,,,,,,0,,,45,0
35160,note_on,0,0,1,,,,,,,,,,,,,,,0,,,78,87
35160,note_on,120,0,1,,,,,,,,,,,,,,,0,,,74,0
35220,set_tempo,100,1,0,,,,,,,,,,,,637687,,,,,,,
35240,set_tempo,20,1,0,,,,,,,,,,,,637687,,,,,,,
35280,set_tempo,40,1,0,,,,,,,,,,,,608519,,,,,,,
35280,note_on,120,0,2,,,,,,,,,,,,,,,0,,,42,84
35280,note_on,0,0,1,,,,,,,,,,,,,,,0,,,73,91
35280,note_on,120,0,1,,,,,,,,,,,,,,,0,,,78,0
35400,note_on,0,0,1,,,,,,,,,,,,,,,0,,,76,87
35400,note_on,120,0,1,,,,,,,,,,,,,,,0,,,73,0
35400,note_on,120,0,2,,,,,,,,,,,,,,,0,,,42,0
35520,note_on,120,0,1,,,,,,,,,,,,,,,0,,,76,0
35520,note_on,0,0,1,,,,,,,,,,,,,,,0,,,72,88
35520,set_tempo,240,1,0,,,,,,,,,,,,611621,,,,,,,
35520,note_on,120,0,2,,,,,,,,,,,,,,,0,,,44,90
35640,note_on,120,0,2,,,,,,,,,,,,,,,0,,,44,0
35640,note_on,0,0,1,,,,,,,,,,,,,,,0,,,75,84
35640,note_on,120,0,1,,,,,,,,,,,,,,,0,,,72,0
35740,set_tempo,220,1,0,,,,,,,,,,,,614754,,,,,,,
35760,note_on,120,0,2,,,,,,,,,,,,,,,0,,,42,85
35760,note_on,120,0,1,,,,,,,,,,,,,,,0,,,75,0
35760,note_on,0,0,1,,,,,,,,,,,,,,,0,,,73,87
35820,note_on,60,0,2,,,,,,,,,,,,,,,0,,,42,0
35880,note_on,60,0,2,,,,,,,,,,,,,,,0,,,40,85
35880,note_on,120,0,1,,,,,,,,,,,,,,,0,,,73,0
35880,note_on,0,0,1,,,,,,,,,,,,,,,0,,,76,81
35940,note_on,60,0,2,,,,,,,,,,,,,,,0,,,40,0
35980,set_tempo,240,1,0,,,,,,,,,,,,617920,,,,,,,
36000,note_on,60,0,2,,,,,,,,,,,,,,,0,,,39,90
36000,note_on,0,0,1,,,,,,,,,,,,,,,0,,,75,86
36000,note_on,120,0,1,,,,,,,,,,,,,,,0,,,76,0
36120,note_on,120,0,1,,,,,,,,,,,,,,,0,,,75,0
36120,note_on,120,0,2,,,,,,,,,,,,,,,0,,,39,0
36120,note_on,0,0,1,,,,,,,,,,,,,,,0,,,78,79
36200,set_tempo,220,1,0,,,,,,,,,,,,621118,,,,,,,
36240,note_on,0,0,1,,,,,,,,,,,,,,,0,,,72,84
36240,note_on,120,0,2,,,,,,,,,,,,,,,0,,,44,85
36240,note_on,120,0,1,,,,,,,,,,,,,,,0,,,78,0
36360,note_on,120,0,1,,,,,,,,,,,,,,,0,,,72,0
36360,note_on,120,0,2,,,,,,,,,,,,,,,0,,,44,0
36360,note_on,0,0,1,,,,,,,,,,,,,,,0,,,75,76
36480,note_on,120,0,2,,,,,,,,,,,,,,,0,,,37,88
36480,note_on,0,0,1,,,,,,,,,,,,,,,0,,,76,79
36480,note_on,120,0,1,,,,,,,,,,,,,,,0,,,75,0
36480,set_tempo,280,1,0,,,,,,,,,,,,611621,,,,,,,
36600,note_on,120,0,1,,,,,,,,,,,,,,,0,,,76,0
36600,set_tempo,120,1,0,,,,,,,,,,,,614754,,,,,,,
36600,note_on,120,0,2,,,,,,,,,,,,,,,0,,,37,0
36600,note_on,0,0,1,,,,,,,,,,,,,,,0,,,73,74
36700,set_tempo,100,1,0,,,,,,,,,,,,617920,,,,,,,
36720,note_on,120,0,2,,,,,,,,,,,,,,,0,,,44,70
36720,note_on,0,0,1,,,,,,,,,,,,,,,0,,,71,69
36720,note_on,120,0,1,,,,,,,,,,,,,,,0,,,73,0
36800,set_tempo,100,1,0,,,,,,,,,,,,621118,,,,,,,
36840,note_on,120,0,1,,,,,,,,,,,,,,,0,,,71,0
36840,note_on,0,0,1,,,,,,,,,,,,,,,0,,,69,65
36920,set_tempo,120,1,0,,,,,,,,,,,,624350,,,,,,,
36960,note_on,0,0,1,,,,,,,,,,,,,,,0,,,68,61
36960,note_on,120,0,1,,,,,,,,,,,,,,,0,,,69,0
36960,note_on,0,0,2,,,,,,,,,,,,,,,0,,,46,58
36960,note_on,240,0,2,,,,,,,,,,,,,,,0,,,44,0
37020,set_tempo,100,1,0,,,,,,,,,,,,627681,,,,,,,
37080,note_on,120,0,1,,,,,,,,,,,,,,,0,,,68,0
37080,note_on,0,0,1,,,,,,,,,,,,,,,0,,,66,57
37120,set_tempo,100,1,0,,,,,,,,,,,,630981,,,,,,,
37200,note_on,120,0,1,,,,,,,,,,,,,,,0,,,66,0
37200,note_on,0,0,1,,,,,,,,,,,,,,,0,,,64,53
37200,note_on,0,0,2,,,,,,,,,,,,,,,0,,,48,48
37200,note_on,240,0,2,,,,,,,,,,,,,,,0,,,46,0
37240,set_tempo,120,1,0,,,,,,,,,,,,634317,,,,,,,
37320,note_on,120,0,1,,,,,,,,,,,,,,,0,,,64,0
37320,note_on,0,0,1,,,,,,,,,,,,,,,0,,,63,48
37340,set_tempo,100,1,0,,,,,,,,,,,,637687,,,,,,,
37440,note_on,120,0,1,,,,,,,,,,,,,,,0,,,63,0
37440,note_on,240,0,2,,,,,,,,,,,,,,,0,,,48,0
37440,note_on,0,0,2,,,,,,,,,,,,,,,0,,,49,40
37440,set_tempo,100,1,0,,,,,,,,,,,,661594,,,,,,,
37440,note_on,0,0,1,,,,,,,,,,,,,,,0,,,64,42
37560,set_tempo,120,1,0,,,,,,,,,,,,618620,,,,,,,
37560,note_on,0,0,1,,,,,,,,,,,,,,,0,,,61,45
37560,note_on,120,0,1,,,,,,,,,,,,,,,0,,,64,0
37640,set_tempo,80,1,0,,,,,,,,,,,,621697,,,,,,,
37680,note_on,0,0,1,,,,,,,,,,,,,,,0,,,64,45
37680,note_on,0,0,2,,,,,,,,,,,,,,,0,,,52,37
37680,note_on,240,0,2,,,,,,,,,,,,,,,0,,,49,0
37680,note_on,120,0,1,,,,,,,,,,,,,,,0,,,61,0
37700,set_tempo,60,1,0,,,,,,,,,,,,624870,,,,,,,
37760,set_tempo,60,1,0,,,,,,,,,,,,628009,,,,,,,
37800,note_on,120,0,1,,,,,,,,,,,,,,,0,,,64,0
37800,note_on,0,0,1,,,,,,,,,,,,,,,0,,,68,45
37840,set_tempo,80,1,0,,,,,,,,,,,,631247,,,,,,,
37900,set_tempo,60,1,0,,,,,,,,,,,,634451,,,,,,,
37920,note_on,0,0,1,,,,,,,,,,,,,,,0,,,64,48
37920,note_on,0,0,2,,,,,,,,,,,,,,,0,,,51,38
37920,note_on,240,0,2,,,,,,,,,,,,,,,0,,,52,0
37920,note_on,120,0,1,,,,,,,,,,,,,,,0,,,68,0
37960,set_tempo,60,1,0,,,,,,,,,,,,637755,,,,,,,
38020,set_tempo,60,1,0,,,,,,,,,,,,641026,,,,,,,
38040,note_on,120,0,1,,,,,,,,,,,,,,,0,,,64,0
38040,note_on,0,0,1,,,,,,,,,,,,,,,0,,,61,45
38040,set_tempo,20,1,0,,,,,,,,,,,,621697,,,,,,,
38140,set_tempo,100,1,0,,,,,,,,,,,,624870,,,,,,,
38160,note_on,0,0,2,,,,,,,,,,,,,,,0,,,49,37
38160,note_on,120,0,1,,,,,,,,,,,,,,,0,,,61,0
38160,note_on,0,0,1,,,,,,,,,,,,,,,0,,,64,45
38160,note_on,240,0,2,,,,,,,,,,,,,,,0,,,51,0
38240,set_tempo,100,1,0,,,,,,,,,,,,628009,,,,,,,
38280,note_on,120,0,1,,,,,,,,,,,,,,,0,,,64,0
38280,note_on,0,0,1,,,,,,,,,,,,,,,0,,,69,45
38340,set_tempo,100,1,0,,,,,,,,,,,,631247,,,,,,,
38400,note_on,240,0,2,,,,,,,,,,,,,,,0,,,49,0
38400,note_on,0,0,2,,,,,,,,,,,,,,,0,,,47,40
38400,note_on,0,0,1,,,,,,,,,,,,,,,0,,,63,47
38400,note_on,120,0,1,,,,,,,,,,,,,,,0,,,69,0
38440,set_tempo,100,1,0,,,,,,,,,,,,634451,,,,,,,
38520,note_on,0,0,1,,,,,,,,,,,,,,,0,,,59,45
38520,set_tempo,80,1,0,,,,,,,,,,,,618620,,,,,,,
38520,note_on,120,0,1,,,,,,,,,,,,,,,0,,,63,0
38640,note_on,240,0,2,,,,,,,,,,,,,,,0,,,47,0
38640,note_on,0,0,2,,,,,,,,,,,,,,,0,,,51,38
38640,note_on,0,0,1,,,,,,,,,,,,,,,0,,,63,45
38640,note_on,120,0,1,,,,,,,,,,,,,,,0,,,59,0
38640,set_tempo,120,1,0,,,,,,,,,,,,621697,,,,,,,
38740,set_tempo,100,1,0,,,,,,,,,,,,624870,,,,,,,
38760,note_on,120,0,1,,,,,,,,,,,,,,,0,,,63,0
38760,note_on,0,0,1,,,,,,,,,,,,,,,0,,,69,45
38840,set_tempo,100,1,0,,,,,,,,,,,,628009,,,,,,,
38880,note_on,120,0,1,,,,,,,,,,,,,,,0,,,69,0
38880,note_on,240,0,2,,,,,,,,,,,,,,,0,,,51,0
38880,note_on,0,0,2,,,,,,,,,,,,,,,0,,,56,40
38880,note_on,0,0,1,,,,,,,,,,,,,,,0,,,63,47
38940,set_tempo,100,1,0,,,,,,,,,,,,631247,,,,,,,
39000,note_on,0,0,1,,,,,,,,,,,,,,,0,,,59,45
39000,note_on,120,0,1,,,,,,,,,,,,,,,0,,,63,0
39000,set_tempo,60,1,0,,,,,,,,,,,,621697,,,,,,,
39100,set_tempo,100,1,0,,,,,,,,,,,,624870,,,,,,,
39120,note_on,0,0,2,,,,,,,,,,,,,,,0,,,47,37
39120,note_on,120,0,1,,,,,,,,,,,,,,,0,,,59,0
39120,note_on,0,0,1,,,,,,,,,,,,,,,0,,,63,45
39120,note_on,240,0,2,,,,,,,,,,,,,,,0,,,56,0
39200,set_tempo,100,1,0,,,,,,,,,,,,628009,,,,,,,
39240,note_on,120,0,1,,,,,,,,,,,,,,,0,,,63,0
39240,note_on,0,0,1,,,,,,,,,,,,,,,0,,,68,45
39280,set_tempo,80,1,0,,,,,,,,,,,,631247,,,,,,,
39360,note_on,0,0,1,,,,,,,,,,,,,,,0,,,68,49
39360,note_on,0,0,2,,,,,,,,,,,,,,,0,,,45,41
39360,note_on,240,0,2,,,,,,,,,,,,,,,0,,,47,0
39360,note_on,120,0,1,,,,,,,,,,,,,,,0,,,68,0
39380,set_tempo,100,1,0,,,,,,,,,,,,634451,,,,,,,
39460,set_tempo,80,1,0,,,,,,,,,,,,637755,,,,,,,
39480,note_on,120,0,1,,,,,,,,,,,,,,,0,,,68,0
39480,set_tempo,20,1,0,,,,,,,,,,,,618620,,,,,,,
39480,note_on,0,0,1,,,,,,,,,,,,,,,0,,,61,47
39580,set_tempo,100,1,0,,,,,,,,,,,,621697,,,,,,,
39600,note_on,0,0,2,,,,,,,,,,,,,,,0,,,49,38
39600,note_on,240,0,2,,,,,,,,,,,,,,,0,,,45,0
39600,note_on,120,0,1,,,,,,,,,,,,,,,0,,,61,0
39600,note_on,0,0,1,,,,,,,,,,,,,,,0,,,68,47
39680,set_tempo,100,1,0,,,,,,,,,,,,624870,,,,,,,
39720,note_on,0,0,1,,,,,,,,,,,,,,,0,,,73,47
39720,note_on,120,0,1,,,,,,,,,,,,,,,0,,,68,0
39760,set_tempo,80,1,0,,,,,,,,,,,,628009,,,,,,,
39840,note_on,0,0,1,,,,,,,,,,,,,,,0,,,66,49
39840,note_on,120,0,1,,,,,,,,,,,,,,,0,,,73,0
39840,note_on,0,0,2,,,,,,,,,,,,,,,0,,,47,38
39840,note_on,240,0,2,,,,,,,,,,,,,,,0,,,49,0
39860,set_tempo,100,1,0,,,,,,,,,,,,631247,,,,,,,
39940,set_tempo,80,1,0,,,,,,,,,,,,634451,,,,,,,
39960,note_on,0,0,1,,,,,,,,,,,,,,,0,,,63,47
39960,note_on,120,0,1,,,,,,,,,,,,,,,0,,,66,0
39960,set_tempo,20,1,0,,,,,,,,,,,,621697,,,,,,,
40080,note_on,120,0,1,,,,,,,,,,,,,,,0,,,63,0
40080,note_on,240,0,2,,,,,,,,,,,,,,,0,,,47,0
40080,note_on,0,0,2,,,,,,,,,,,,,,,0,,,45,39
40080,set_tempo,120,1,0,,,,,,,,,,,,624870,,,,,,,
40080,note_on,0,0,1,,,,,,,,,,,,,,,0,,,66,47
40180,set_tempo,100,1,0,,,,,,,,,,,,628009,,,,,,,
40200,note_on,0,0,1,,,,,,,,,,,,,,,0,,,73,47
40200,note_on,120,0,1,,,,,,,,,,,,,,,0,,,66,0
40300,set_tempo,120,1,0,,,,,,,,,,,,631247,,,,,,,
40320,note_on,0,0,2,,,,,,,,,,,,,,,0,,,44,40
40320,note_on,240,0,2,,,,,,,,,,,,,,,0,,,45,0
40320,note_on,120,0,1,,,,,,,,,,,,,,,0,,,73,0
40320,note_on,0,0,1,,,,,,,,,,,,,,,0,,,68,50
40400,set_tempo,100,1,0,,,,,,,,,,,,634451,,,,,,,
40420,set_tempo,20,1,0,,,,,,,,,,,,597669,,,,,,,
40440,set_tempo,20,1,0,,,,,,,,,,,,618620,,,,,,,
40440,note_on,0,0,1,,,,,,,,,,,,,,,0,,,64,47
40440,note_on,120,0,1,,,,,,,,,,,,,,,0,,,68,0
40540,set_tempo,100,1,0,,,,,,,,,,,,621697,,,,,,,
40560,note_on,0,0,1,,,,,,,,,,,,,,,0,,,68,47
40560,note_on,240,0,2,,,,,,,,,,,,,,,0,,,44,0
40560,note_on,120,0,1,,,,,,,,,,,,,,,0,,,64,0
40560,note_on,0,0,2,,,,,,,,,,,,,,,0,,,47,39
40620,set_tempo,80,1,0,,,,,,,,,,,,624870,,,,,,,
40680,note_on,120,0,1,,,,,,,,,,,,,,,0,,,68,0
40680,note_on,0,0,1,,,,,,,,,,,,,,,0,,,73,47
40720,set_tempo,100,1,0,,,,,,,,,,,,628009,,,,,,,
40800,note_on,240,0,2,,,,,,,,,,,,,,,0,,,47,0
40800,note_on,120,0,1,,,,,,,,,,,,,,,0,,,73,0
40800,note_on,0,0,1,,,,,,,,,,,,,,,0,,,68,49
40800,note_on,0,0,2,,,,,,,,,,,,,,,0,,,52,41
40800,set_tempo,80,1,0,,,,,,,,,,,,631247,,,,,,,
40880,set_tempo,80,1,0,,,,,,,,,,,,634451,,,,,,,
40920,set_tempo,40,1,0,,,,,,,,,,,,618620,,,,,,,
40920,note_on,0,0,1,,,,,,,,,,,,,,,0,,,64,48
40920,note_on,120,0,1,,,,,,,,,,,,,,,0,,,68,0
41020,set_tempo,100,1,0,,,,,,,,,,,,621697,,,,,,,
41040,note_on,120,0,1,,,,,,,,,,,,,,,0,,,64,0
41040,note_on,0,0,1,,,,,,,,,,,,,,,0,,,68,48
41040,note_on,0,0,2,,,,,,,,,,,,,,,0,,,44,39
41040,note_on,240,0,2,,,,,,,,,,,,,,,0,,,52,0
41120,set_tempo,100,1,0,,,,,,,,,,,,624870,,,,,,,
41160,note_on,0,0,1,,,,,,,,,,,,,,,0,,,71,48
41160,note_on,120,0,1,,,,,,,,,,,,,,,0,,,68,0
41200,set_tempo,80,1,0,,,,,,,,,,,,628009,,,,,,,
41280,note_on,240,0,2,,,,,,,,,,,,,,,0,,,44,0
41280,note_on,0,0,2,,,,,,,,,,,,,,,0,,,40,41
41280,note_on,120,0,1,,,,,,,,,,,,,,,0,,,71,0
41280,note_on,0,0,1,,,,,,,,,,,,,,,0,,,67,54
41300,set_tempo,100,1,0,,,,,,,,,,,,631247,,,,,,,
41380,set_tempo,80,1,0,,,,,,,,,,,,634451,,,,,,,
41400,note_on,0,0,1,,,,,,,,,,,,,,,0,,,64,47
41400,note_on,120,0,1,,,,,,,,,,,,,,,0,,,67,0
41400,set_tempo,20,1,0,,,,,,,,,,,,618620,,,,,,,
41460,set_tempo,60,1,0,,,,,,,,,,,,621697,,,,,,,
41520,note_on,0,0,2,,,,,,,,,,,,,,,0,,,52,37
41520,note_on,0,0,1,,,,,,,,,,,,,,,0,,,67,48
41520,note_on,240,0,2,,,,,,,,,,,,,,,0,,,40,0
41520,note_on,120,0,1,,,,,,,,,,,,,,,0,,,64,0
41520,set_tempo,60,1,0,,,,,,,,,,,,624870,,,,,,,
41580,set_tempo,60,1,0,,,,,,,,,,,,628009,,,,,,,
41640,note_on,120,0,1,,,,,,,,,,,,,,,0,,,67,0
41640,note_on,0,0,1,,,,,,,,,,,,,,,0,,,70,50
41640,note_on,0,0,2,,,,,,,,,,,,,,,0,,,51,37
41640,set_tempo,60,1,0,,,,,,,,,,,,631247,,,,,,,
41640,note_on,120,0,2,,,,,,,,,,,,,,,0,,,52,0
41700,set_tempo,60,1,0,,,,,,,,,,,,634451,,,,,,,
41760,set_tempo,60,1,0,,,,,,,,,,,,637755,,,,,,,
41760,note_on,120,0,1,,,,,,,,,,,,,,,0,,,70,0
41760,note_on,120,0,2,,,,,,,,,,,,,,,0,,,51,0
41760,note_on,0,0,2,,,,,,,,,,,,,,,0,,,49,36
41760,note_on,0,0,1,,,,,,,,,,,,,,,0,,,76,52
41800,set_tempo,40,1,0,,,,,,,,,,,,641026,,,,,,,
41880,set_tempo,80,1,0,,,,,,,,,,,,618620,,,,,,,
41880,note_on,0,0,1,,,,,,,,,,,,,,,0,,,70,48
41880,note_on,120,0,1,,,,,,,,,,,,,,,0,,,76,0
41960,set_tempo,80,1,0,,,,,,,,,,,,621697,,,,,,,
42000,note_on,240,0,2,,,,,,,,,,,,,,,0,,,49,0
42000,note_on,120,0,1,,,,,,,,,,,,,,,0,,,70,0
42000,note_on,0,0,1,,,,,,,,,,,,,,,0,,,76,49
42000,note_on,0,0,2,,,,,,,,,,,,,,,0,,,48,38
42040,set_tempo,80,1,0,,,,,,,,,,,,624870,,,,,,,
42120,note_on,120,0,1,,,,,,,,,,,,,,,0,,,76,0
42120,note_on,0,0,1,,,,,,,,,,,,,,,0,,,79,51
42120,set_tempo,80,1,0,,,,,,,,,,,,628009,,,,,,,
42200,set_tempo,80,1,0,,,,,,,,,,,,631247,,,,,,,
42240,note_on,0,0,1,,,,,,,,,,,,,,,0,,,75,51
42240,note_on,120,0,1,,,,,,,,,,,,,,,0,,,79,0
42240,note_on,240,0,2,,,,,,,,,,,,,,,0,,,48,0
42240,note_on,0,0,2,,,,,,,,,,,,,,,0,,,47,43
42280,set_tempo,80,1,0,,,,,,,,,,,,634451,,,,,,,
42360,set_tempo,80,1,0,,,,,,,,,,,,615511,,,,,,,
42360,note_on,0,0,1,,,,,,,,,,,,,,,0,,,79,49
42360,note_on,120,0,1,,,,,,,,,,,,,,,0,,,75,0
42480,note_on,240,0,2,,,,,,,,,,,,,,,0,,,47,0
42480,note_on,0,0,1,,,,,,,,,,,,,,,0,,,75,50
42480,note_on,0,0,2,,,,,,,,,,,,,,,0,,,54,39
42480,note_on,120,0,1,,,,,,,,,,,,,,,0,,,79,0
42500,set_tempo,140,1,0,,,,,,,,,,,,618620,,,,,,,
42600,note_on,120,0,1,,,,,,,,,,,,,,,0,,,75,0
42600,note_on,0,0,1,,,,,,,,,,,,,,,0,,,78,48
42620,set_tempo,120,1,0,,,,,,,,,,,,621697,,,,,,,
42720,note_on,240,0,2,,,,,,,,,,,,,,,0,,,54,0
42720,note_on,0,0,2,,,,,,,,,,,,,,,0,,,59,47
42720,note_on,120,0,1,,,,,,,,,,,,,,,0,,,78,0
42720,note_on,0,0,1,,,,,,,,,,,,,,,0,,,69,49
42740,set_tempo,120,1,0,,,,,,,,,,,,624870,,,,,,,
42840,note_on,120,0,1,,,,,,,,,,,,,,,0,,,69,0
42840,note_on,0,0,1,,,,,,,,,,,,,,,0,,,76,48
42860,set_tempo,120,1,0,,,,,,,,,,,,628009,,,,,,,
42960,note_on,120,0,1,,,,,,,,,,,,,,,0,,,76,0
42960,note_on,0,0,1,,,,,,,,,,,,,,,0,,,69,49
42960,note_on,0,0,2,,,,,,,,,,,,,,,0,,,47,34
42960,note_on,240,0,2,,,,,,,,,,,,,,,0,,,59,0
42980,set_tempo,120,1,0,,,,,,,,,,,,631247,,,,,,,
43080,note_on,120,0,1,,,,,,,,,,,,,,,0,,,69,0
43080,note_on,0,0,1,,,,,,,,,,,,,,,0,,,75,48
43100,set_tempo,120,1,0,,,,,,,,,,,,634451,,,,,,,
43200,note_on,0,0,1,,,,,,,,,,,,,,,0,,,69,47
43200,note_on,120,0,1,,,,,,,,,,,,,,,0,,,75,0
43200,note_on,0,0,2,,,,,,,,,,,,,,,0,,,48,36
43200,note_on,240,0,2,,,,,,,,,,,,,,,0,,,47,0
43220,set_tempo,120,1,0,,,,,,,,,,,,637755,,,,,,,
43320,note_on,0,0,1,,,,,,,,,,,,,,,0,,,78,44
43320,note_on,120,0,1,,,,,,,,,,,,,,,0,,,69,0
43360,set_tempo,140,1,0,,,,,,,,,,,,641026,,,,,,,
43440,note_on,0,0,2,,,,,,,,,,,,,,,0,,,49,31
43440,note_on,0,0,1,,,,,,,,,,,,,,,0,,,68,47
43440,note_on,120,0,1,,,,,,,,,,,,,,,0,,,78,0
43440,note_on,240,0,2,,,,,,,,,,,,,,,0,,,48,0
43480,set_tempo,120,1,0,,,,,,,,,,,,644399,,,,,,,
43560,note_on,0,0,1,,,,,,,,,,,,,,,0,,,76,44
43560,note_on,120,0,1,,,,,,,,,,,,,,,0,,,68,0
43600,set_tempo,120,1,0,,,,,,,,,,,,647738,,,,,,,
43680,note_on,120,0,1,,,,,,,,,,,,,,,0,,,76,0
43680,note_on,0,0,2,,,,,,,,,,,,,,,0,,,44,36
43680,note_on,240,0,2,,,,,,,,,,,,,,,0,,,49,0
43680,note_on,0,0,1,,,,,,,,,,,,,,,0,,,64,46
43720,set_tempo,120,1,0,,,,,,,,,,,,651183,,,,,,,
43800,note_on,120,0,1,,,,,,,,,,,,,,,0,,,64,0
43800,note_on,0,0,1,,,,,,,,,,,,,,,0,,,73,44
43840,set_tempo,120,1,0,,,,,,,,,,,,654593,,,,,,,
43920,note_on,120,0,1,,,,,,,,,,,,,,,0,,,73,0
43920,note_on,0,0,1,,,,,,,,,,,,,,,0,,,61,45
43920,note_on,240,0,2,,,,,,,,,,,,,,,0,,,44,0
43920,note_on,0,0,2,,,,,,,,,,,,,,,0,,,45,32
43960,set_tempo,120,1,0,,,,,,,,,,,,658111,,,,,,,
44040,note_on,120,0,1,,,,,,,,,,,,,,,0,,,61,0
44040,note_on,0,0,1,,,,,,,,,,,,,,,0,,,69,44
44080,set_tempo,120,1,0,,,,,,,,,,,,661594,,,,,,,
44160,note_on,120,0,1,,,,,,,,,,,,,,,0,,,69,0
44160,note_on,0,0,1,,,,,,,,,,,,,,,0,,,59,45
44160,set_tempo,80,1,0,,,,,,,,,,,,631579,,,,,,,
44160,note_on,240,0,2,,,,,,,,,,,,,,,0,,,45,0
44160,note_on,0,0,2,,,,,,,,,,,,,,,0,,,47,36
44280,note_on,120,0,1,,,,,,,,,,,,,,,0,,,59,0
44280,note_on,0,0,1,,,,,,,,,,,,,,,0,,,68,44
44400,note_on,0,0,1,,,,,,,,,,,,,,,0,,,64,45
44400,note_on,120,0,1,,,,,,,,,,,,,,,0,,,68,0
44400,note_on,240,0,2,,,,,,,,,,,,,,,0,,,47,0
44400,note_on,0,0,2,,,,,,,,,,,,,,,0,,,56,34
44520,note_on,120,0,1,,,,,,,,,,,,,,,0,,,64,0
44520,note_on,0,0,1,,,,,,,,,,,,,,,0,,,71,44
44640,note_on,0,0,1,,,,,,,,,,,,,,,0,,,59,45
44640,note_on,0,0,2,,,,,,,,,,,,,,,0,,,47,36
44640,note_on,240,0,2,,,,,,,,,,,,,,,0,,,56,0
44640,note_on,120,0,1,,,,,,,,,,,,,,,0,,,71,0
44660,set_tempo,500,1,0,,,,,,,,,,,,633513,,,,,,,
44740,set_tempo,80,1,0,,,,,,,,,,,,630252,,,,,,,
44760,note_on,0,0,1,,,,,,,,,,,,,,,0,,,69,44
44760,note_on,120,0,1,,,,,,,,,,,,,,,0,,,59,0
44800,set_tempo,60,1,0,,,,,,,,,,,,626959,,,,,,,
44860,set_tempo,60,1,0,,,,,,,,,,,,623765,,,,,,,
44880,note_on,120,0,1,,,,,,,,,,,,,,,0,,,69,0
44880,note_on,240,0,2,,,,,,,,,,,,,,,0,,,47,0
44880,note_on,0,0,2,,,,,,,,,,,,,,,0,,,57,32
44880,note_on,0,0,1,,,,,,,,,,,,,,,0,,,63,45
44940,set_tempo,80,1,0,,,,,,,,,,,,620604,,,,,,,
45000,note_on,120,0,1,,,,,,,,,,,,,,,0,,,63,0
45000,set_tempo,60,1,0,,,,,,,,,,,,617411,,,,,,,
45000,note_on,0,0,1,,,,,,,,,,,,,,,0,,,71,44
45080,set_tempo,80,1,0,,,,,,,,,,,,614314,,,,,,,
45120,note_on,240,0,2,,,,,,,,,,,,,,,0,,,57,0
45120,note_on,0,0,2,,,,,,,,,,,,,,,0,,,47,36
45120,note_on,120,0,1,,,,,,,,,,,,,,,0,,,71,0
45120,note_on,0,0,1,,,,,,,,,,,,,,,0,,,69,45
45140,set_tempo,60,1,0,,,,,,,,,,,,611247,,,,,,,
45200,set_tempo,60,1,0,,,,,,,,,,,,608149,,,,,,,
45240,note_on,120,0,1,,,,,,,,,,,,,,,0,,,63,43
45300,set_tempo,100,1,0,,,,,,,,,,,,611247,,,,,,,
45360,note_on,120,0,1,,,,,,,,,,,,,,,0,,,63,0
45360,note_on,0,0,1,,,,,,,,,,,,,,,0,,,59,43
45360,note_on,0,0,2,,,,,,,,,,,,,,,0,,,54,31
45360,note_on,240,0,2,,,,,,,,,,,,,,,0,,,47,0
45400,set_tempo,100,1,0,,,,,,,,,,,,614314,,,,,,,
45480,note_on,120,0,1,,,,,,,,,,,,,,,0,,,59,0
45480,note_on,0,0,1,,,,,,,,,,,,,,,0,,,69,0
45480,note_on,0,0,1,,,,,,,,,,,,,,,0,,,69,45
45500,set_tempo,100,1,0,,,,,,,,,,,,617411,,,,,,,
45600,set_tempo,100,1,0,,,,,,,,,,,,620604,,,,,,,
45600,note_on,0,0,2,,,,,,,,,,,,,,,0,,,52,37
45600,note_on,240,0,2,,,,,,,,,,,,,,,0,,,54,0
45600,note_on,0,0,1,,,,,,,,,,,,,,,0,,,68,45
45600,note_on,120,0,1,,,,,,,,,,,,,,,0,,,69,0
45700,set_tempo,100,1,0,,,,,,,,,,,,623765,,,,,,,
45720,note_on,120,0,1,,,,,,,,,,,,,,,0,,,68,0
45720,note_on,0,0,1,,,,,,,,,,,,,,,0,,,59,42
45800,set_tempo,100,1,0,,,,,,,,,,,,626959,,,,,,,
45840,note_on,0,0,2,,,,,,,,,,,,,,,0,,,49,32
45840,note_on,0,0,1,,,,,,,,,,,,,,,0,,,64,44
45840,note_on,120,0,1,,,,,,,,,,,,,,,0,,,59,0
45840,note_on,240,0,2,,,,,,,,,,,,,,,0,,,52,0
45880,set_tempo,80,1,0,,,,,,,,,,,,608149,,,,,,,
45940,set_tempo,60,1,0,,,,,,,,,,,,611247,,,,,,,
45960,note_on,0,0,1,,,,,,,,,,,,,,,0,,,66,45
45960,note_on,0,0,2,,,,,,,,,,,,,,,0,,,51,32
45960,note_on,120,0,2,,,,,,,,,,,,,,,0,,,49,0
45960,note_on,120,0,1,,,,,,,,,,,,,,,0,,,64,0
46000,set_tempo,60,1,0,,,,,,,,,,,,614314,,,,,,,
46060,set_tempo,60,1,0,,,,,,,,,,,,617411,,,,,,,
46080,note_on,0,0,2,,,,,,,,,,,,,,,0,,,52,36
46080,set_tempo,20,1,0,,,,,,,,,,,,608149,,,,,,,
46080,note_on,120,0,1,,,,,,,,,,,,,,,0,,,66,0
46080,note_on,120,0,2,,,,,,,,,,,,,,,0,,,51,0
46080,note_on,0,0,1,,,,,,,,,,,,,,,0,,,68,47
46120,set_tempo,40,1,0,,,,,,,,,,,,623441,,,,,,,
46200,set_tempo,80,1,0,,,,,,,,,,,,611558,,,,,,,
46200,note_on,120,0,1,,,,,,,,,,,,,,,0,,,68,0
46200,note_on,0,0,1,,,,,,,,,,,,,,,0,,,64,43
46300,set_tempo,100,1,0,,,,,,,,,,,,614502,,,,,,,
46320,note_on,0,0,1,,,,,,,,,,,,,,,0,,,68,45
46320,note_on,240,0,2,,,,,,,,,,,,,,,0,,,52,0
46320,note_on,0,0,2,,,,,,,,,,,,,,,0,,,56,33
46320,note_on,120,0,1,,,,,,,,,,,,,,,0,,,64,0
46400,set_tempo,100,1,0,,,,,,,,,,,,617411,,,,,,,
46440,note_on,120,0,1,,,,,,,,,,,,,,,0,,,68,0
46440,note_on,0,0,1,,,,,,,,,,,,,,,0,,,76,44
46560,note_on,120,0,1,,,,,,,,,,,,,,,0,,,76,0
46560,note_on,0,0,1,,,,,,,,,,,,,,,0,,,68,47
46560,note_on,240,0,2,,,,,,,,,,,,,,,0,,,56,0
46560,set_tempo,160,1,0,,,,,,,,,,,,629525,,,,,,,
46560,note_on,0,0,2,,,,,,,,,,,,,,,0,,,53,36
46680,note_on,120,0,1,,,,,,,,,,,,,,,0,,,68,0
46680,note_on,0,0,1,,,,,,,,,,,,,,,0,,,75,44
46800,note_on,240,0,2,,,,,,,,,,,,,,,0,,,53,0
46800,note_on,120,0,1,,,,,,,,,,,,,,,0,,,75,0
46800,note_on,0,0,1,,,,,,,,,,,,,,,0,,,68,48
46800,note_on,0,0,2,,,,,,,,,,,,,,,0,,,61,33
46920,note_on,0,0,1,,,,,,,,,,,,,,,0,,,73,44
46920,note_on,120,0,1,,,,,,,,,,,,,,,0,,,68,0
47040,note_on,240,0,2,,,,,,,,,,,,,,,0,,,61,0
47040,note_on,0,0,2,,,,,,,,,,,,,,,0,,,54,36
47040,set_tempo,480,1,0,,,,,,,,,,,,633580,,,,,,,
47040,note_on,120,0,1,,,,,,,,,,,,,,,0,,,73,0
47040,note_on,0,0,1,,,,,,,,,,,,,,,0,,,69,48
47160,note_on,120,0,1,,,,,,,,,,,,,,,0,,,69,0
47160,note_on,0,0,1,,,,,,,,,,,,,,,0,,,61,44
47160,set_tempo,120,1,0,,,,,,,,,,,,615511,,,,,,,
47280,note_on,0,0,1,,,,,,,,,,,,,,,0,,,69,46
47280,note_on,240,0,2,,,,,,,,,,,,,,,0,,,54,0
47280,note_on,0,0,2,,,,,,,,,,,,,,,0,,,42,32
47280,note_on,120,0,1,,,,,,,,,,,,,,,0,,,61,0
47320,set_tempo,160,1,0,,,,,,,,,,,,618493,,,,,,,
47400,note_on,120,0,1,,,,,,,,,,,,,,,0,,,69,0
47400,note_on,0,0,1,,,,,,,,,,,,,,,0,,,73,46
47480,set_tempo,160,1,0,,,,,,,,,,,,621375,,,,,,,
47520,note_on,120,0,1,,,,,,,,,,,,,,,0,,,73,0
47520,note_on,0,0,2,,,,,,,,,,,,,,,0,,,44,32
47520,note_on,0,0,1,,,,,,,,,,,,,,,0,,,68,47
47520,note_on,240,0,2,,,,,,,,,,,,,,,0,,,42,0
47640,set_tempo,160,1,0,,,,,,,,,,,,612557,,,,,,,
47640,note_on,0,0,1,,,,,,,,,,,,,,,0,,,71,43
47640,note_on,120,0,1,,,,,,,,,,,,,,,0,,,68,0
47740,set_tempo,100,1,0,,,,,,,,,,,,615511,,,,,,,
47760,note_on,240,0,2,,,,,,,,,,,,,,,0,,,44,0
47760,note_on,0,0,1,,,,,,,,,,,,,,,0,,,66,45
47760,note_on,120,0,1,,,,,,,,,,,,,,,0,,,71,0
47760,note_on,0,0,2,,,,,,,,,,,,,,,0,,,45,33
47840,set_tempo,100,1,0,,,,,,,,,,,,618493,,,,,,,
47880,note_on,120,0,1,,,,,,,,,,,,,,,0,,,66,0
47880,note_on,0,0,1,,,,,,,,,,,,,,,0,,,69,43
47940,set_tempo,100,1,0,,,,,,,,,,,,621375,,,,,,,
48000,note_on,120,0,1,,,,,,,,,,,,,,,0,,,69,0
48000,note_on,0,0,1,,,,,,,,,,,,,,,0,,,64,45
48000,note_on,240,0,2,,,,,,,,,,,,,,,0,,,45,0
48000,note_on,0,0,2,,,,,,,,,,,,,,,0,,,44,36
48000,set_tempo,60,1,0,,,,,,,,,,,,710059,,,,,,,
48040,set_tempo,40,1,0,,,,,,,,,,,,713436,,,,,,,
48120,set_tempo,80,1,0,,,,,,,,,,,,703235,,,,,,,
48120,note_on,120,0,1,,,,,,,,,,,,,,,0,,,64,0
48120,note_on,0,0,1,,,,,,,,,,,,,,,0,,,56,43
48240,note_on,240,0,2,,,,,,,,,,,,,,,0,,,44,0
48240,note_on,0,0,2,,,,,,,,,,,,,,,0,,,49,31
48240,note_on,120,0,1,,,,,,,,,,,,,,,0,,,56,0
48240,note_on,0,0,1,,,,,,,,,,,,,,,0,,,64,43
48280,set_tempo,160,1,0,,,,,,,,,,,,706714,,,,,,,
48360,note_on,0,0,1,,,,,,,,,,,,,,,0,,,68,43
48360,note_on,120,0,1,,,,,,,,,,,,,,,0,,,64,0
48440,set_tempo,160,1,0,,,,,,,,,,,,710059,,,,,,,
48480,note_on,120,0,1,,,,,,,,,,,,,,,0,,,68,0
48480,note_on,0,0,1,,,,,,,,,,,,,,,0,,,61,45
48480,note_on,0,0,2,,,,,,,,,,,,,,,0,,,44,34
48480,note_on,240,0,2,,,,,,,,,,,,,,,0,,,49,0
48600,note_on,0,0,1,,,,,,,,,,,,,,,0,,,55,40
48600,set_tempo,160,1,0,,,,,,,,,,,,703235,,,,,,,
48600,note_on,120,0,1,,,,,,,,,,,,,,,0,,,61,0
48720,note_on,0,0,2,,,,,,,,,,,,,,,0,,,52,32
48720,set_tempo,120,1,0,,,,,,,,,,,,706714,,,,,,,
48720,note_on,240,0,2,,,,,,,,,,,,,,,0,,,44,0
48720,note_on,120,0,1,,,,,,,,,,,,,,,0,,,55,0
48720,note_on,0,0,1,,,,,,,,,,,,,,,0,,,61,41
48840,set_tempo,120,1,0,,,,,,,,,,,,710059,,,,,,,
48840,note_on,120,0,1,,,,,,,,,,,,,,,0,,,61,0
48840,note_on,0,0,1,,,,,,,,,,,,,,,0,,,69,41
48960,note_on,0,0,1,,,,,,,,,,,,,,,0,,,63,43
48960,set_tempo,120,1,0,,,,,,,,,,,,761325,,,,,,,
48960,note_on,0,0,2,,,,,,,,,,,,,,,0,,,44,32
48960,note_on,240,0,2,,,,,,,,,,,,,,,0,,,52,0
48960,note_on,120,0,1,,,,,,,,,,,,,,,0,,,69,0
49080,note_on,120,0,1,,,,,,,,,,,,,,,0,,,63,0
49080,note_on,0,0,1,,,,,,,,,,,,,,,0,,,54,39
49080,set_tempo,120,1,0,,,,,,,,,,,,750375,,,,,,,
49200,note_on,120,0,1,,,,,,,,,,,,,,,0,,,54,0
49200,note_on,0,0,1,,,,,,,,,,,,,,,0,,,63,39
49200,note_on,240,0,2,,,,,,,,,,,,,,,0,,,44,0
49200,note_on,0,0,2,,,,,,,,,,,,,,,0,,,49,31
49320,note_on,120,0,1,,,,,,,,,,,,,,,0,,,63,0
49320,note_on,0,0,1,,,,,,,,,,,,,,,0,,,68,39
49440,note_on,120,0,1,,,,,,,,,,,,,,,0,,,68,0
49440,note_on,0,0,1,,,,,,,,,,,,,,,0,,,63,42
49440,note_on,240,0,2,,,,,,,,,,,,,,,0,,,49,0
49440,note_on,0,0,2,,,,,,,,,,,,,,,0,,,44,32
49560,note_on,120,0,1,,,,,,,,,,,,,,,0,,,63,0
49560,note_on,0,0,1,,,,,,,,,,,,,,,0,,,54,38
49680,note_on,0,0,2,,,,,,,,,,,,,,,0,,,48,29
49680,note_on,0,0,1,,,,,,,,,,,,,,,0,,,63,38
49680,note_on,240,0,2,,,,,,,,,,,,,,,0,,,44,0
49680,note_on,120,0,1,,,,,,,,,,,,,,,0,,,54,0
49800,note_on,120,0,1,,,,,,,,,,,,,,,0,,,63,0
49800,note_on,0,0,1,,,,,,,,,,,,,,,0,,,68,38
49920,note_on,240,0,2,,,,,,,,,,,,,,,0,,,48,0
49920,note_on,120,0,1,,,,,,,,,,,,,,,0,,,68,0
49920,control_change,0,0,1,,,,,,,,,,,,,,,0,64,127,,
49920,note_on,0,0,1,,,,,,,,,,,,,,,0,,,61,38
49920,set_tempo,840,1,0,,,,,,,,,,,,703235,,,,,,,
49920,note_on,0,0,2,,,,,,,,,,,,,,,0,,,49,38
50040,note_on,120,0,1,,,,,,,,,,,,,,,0,,,61,0
50040,note_on,0,0,1,,,,,,,,,,,,,,,0,,,52,35
50160,note_on,240,0,2,,,,,,,,,,,,,,,0,,,49,0
50160,note_on,0,0,1,,,,,,,,,,,,,,,0,,,61,35
50160,note_on,120,0,1,,,,,,,,,,,,,,,0,,,52,0
50280,note_on,0,0,1,,,,,,,,,,,,,,,0,,,64,35
50280,note_on,120,0,1,,,,,,,,,,,,,,,0,,,61,0
50380,control_change,100,0,1,,,,,,,,,,,,,,,0,64,0,,
50400,note_on,20,0,1,,,,,,,,,,,,,,,0,,,64,0
50400,control_change,240,0,2,,,,,,,,,,,,,,,0,64,127,,
50400,note_on,0,0,2,,,,,,,,,,,,,,,0,,,44,38
50520,note_on,120,0,2,,,,,,,,,,,,,,,0,,,44,0
50520,note_on,0,0,2,,,,,,,,,,,,,,,0,,,37,35
50640,note_on,120,0,2,,,,,,,,,,,,,,,0,,,37,0
50640,note_on,0,0,2,,,,,,,,,,,,,,,0,,,44,35
50760,note_on,120,0,2,,,,,,,,,,,,,,,0,,,44,0
50760,note_on,0,0,2,,,,,,,,,,,,,,,0,,,49,36
50880,note_on,0,0,1,,,,,,,,,,,,,,,0,,,61,38
50880,control_change,480,0,1,,,,,,,,,,,,,,,0,64,127,,
50880,note_on,120,0,2,,,,,,,,,,,,,,,0,,,49,0
50880,note_on,0,0,2,,,,,,,,,,,,,,,0,,,45,38
50880,control_change,0,0,2,,,,,,,,,,,,,,,0,64,0,,
51000,note_on,0,0,1,,,,,,,,,,,,,,,0,,,52,34
51000,note_on,120,0,1,,,,,,,,,,,,,,,0,,,61,0
51120,note_on,120,0,1,,,,,,,,,,,,,,,0,,,52,0
51120,note_on,0,0,1,,,,,,,,,,,,,,,0,,,61,34
51120,note_on,240,0,2,,,,,,,,,,,,,,,0,,,45,0
51240,note_on,120,0,1,,,,,,,,,,,,,,,0,,,61,0
51240,note_on,0,0,1,,,,,,,,,,,,,,,0,,,64,34
51311,control_change,71,0,1,,,,,,,,,,,,,,,0,64,0,,
51360,note_on,0,0,2,,,,,,,,,,,,,,,0,,,40,38
51360,note_on,49,0,1,,,,,,,,,,,,,,,0,,,64,0
51360,control_change,240,0,2,,,,,,,,,,,,,,,0,64,127,,
51480,note_on,120,0,2,,,,,,,,,,,,,,,0,,,40,0
51480,note_on,0,0,2,,,,,,,,,,,,,,,0,,,33,35
51600,note_on,120,0,2,,,,,,,,,,,,,,,0,,,33,0
51600,note_on,0,0,2,,,,,,,,,,,,,,,0,,,40,35
51720,note_on,120,0,2,,,,,,,,,,,,,,,0,,,40,0
51720,note_on,0,0,2,,,,,,,,,,,,,,,0,,,45,35
51776,control_change,56,0,2,,,,,,,,,,,,,,,0,64,0,,
51840,set_tempo,1920,1,0,,,,,,,,,,,,605449,,,,,,,
51840,note_on,64,0,2,,,,,,,,,,,,,,,0,,,45,0
51840,note_on,0,0,2,,,,,,,,,,,,,,,0,,,42,38
51840,note_on,480,0,1,,,,,,,,,,,,,,,0,,,62,38
51869,control_change,29,0,2,,,,,,,,,,,,,,,0,64,127,,
51960,note_on,120,0,1,,,,,,,,,,,,,,,0,,,62,0
51960,note_on,0,0,1,,,,,,,,,,,,,,,0,,,57,36
52080,note_on,0,0,1,,,,,,,,,,,,,,,0,,,62,36
52080,note_on,120,0,1,,,,,,,,,,,,,,,0,,,57,0
52080,note_on,211,0,2,,,,,,,,,,,,,,,0,,,42,0
52200,note_on,120,0,1,,,,,,,,,,,,,,,0,,,62,0
52200,note_on,0,0,1,,,,,,,,,,,,,,,0,,,66,36
52234,control_change,154,0,2,,,,,,,,,,,,,,,0,64,0,,
52304,control_change,70,0,2,,,,,,,,,,,,,,,0,64,127,,
52320,note_on,0,0,1,,,,,,,,,,,,,,,0,,,66,35
52320,note_on,120,0,1,,,,,,,,,,,,,,,0,,,66,0
52320,note_on,16,0,2,,,,,,,,,,,,,,,0,,,50,36
52320,set_tempo,480,1,0,,,,,,,,,,,,605449,,,,,,,
52400,set_tempo,80,1,0,,,,,,,,,,,,608396,,,,,,,
52440,note_on,0,0,1,,,,,,,,,,,,,,,0,,,69,39
52440,note_on,0,0,2,,,,,,,,,,,,,,,0,,,54,37
52440,note_on,120,0,2,,,,,,,,,,,,,,,0,,,50,0
52440,note_on,120,0,1,,,,,,,,,,,,,,,0,,,66,0
52480,set_tempo,80,1,0,,,,,,,,,,,,611309,,,,,,,
52560,set_tempo,80,1,0,,,,,,,,,,,,614188,,,,,,,
52560,note_on,0,0,1,,,,,,,,,,,,,,,0,,,74,42
52560,note_on,120,0,1,,,,,,,,,,,,,,,0,,,69,0
52560,note_on,0,0,2,,,,,,,,,,,,,,,0,,,57,41
52560,note_on,120,0,2,,,,,,,,,,,,,,,0,,,54,0
52680,set_tempo,120,1,0,,,,,,,,,,,,683683,,,,,,,
52680,note_on,0,0,2,,,,,,,,,,,,,,,0,,,62,44
52680,note_on,0,0,1,,,,,,,,,,,,,,,0,,,78,46
52680,note_on,120,0,1,,,,,,,,,,,,,,,0,,,74,0
52680,note_on,120,0,2,,,,,,,,,,,,,,,0,,,57,0
52736,control_change,56,0,2,,,,,,,,,,,,,,,0,64,0,,
52780,set_tempo,100,1,0,,,,,,,,,,,,623182,,,,,,,
52800,set_tempo,20,1,0,,,,,,,,,,,,674157,,,,,,,
52800,control_change,0,0,2,,,,,,,,,,,,,,,0,64,127,,
52800,note_on,64,0,2,,,,,,,,,,,,,,,0,,,62,0
52800,note_on,0,0,1,,,,,,,,,,,,,,,0,,,81,49
52800,note_on,120,0,1,,,,,,,,,,,,,,,0,,,78,0
52800,note_on,0,0,2,,,,,,,,,,,,,,,0,,,66,46
52920,note_on,120,0,1,,,,,,,,,,,,,,,0,,,74,36
53040,note_on,0,0,1,,,,,,,,,,,,,,,0,,,78,44
53040,note_on,0,0,1,,,,,,,,,,,,,,,0,,,81,0
53040,note_on,0,0,2,,,,,,,,,,,,,,,0,,,62,44
53040,note_on,120,0,1,,,,,,,,,,,,,,,0,,,74,0
53040,note_on,240,0,2,,,,,,,,,,,,,,,0,,,66,0
53040,note_on,0,0,2,,,,,,,,,,,,,,,0,,,54,44
53040,note_on,0,0,1,,,,,,,,,,,,,,,0,,,69,37
53144,control_change,104,0,2,,,,,,,,,,,,,,,0,64,0,,
53160,note_on,120,0,1,,,,,,,,,,,,,,,0,,,69,0
53160,note_on,0,0,1,,,,,,,,,,,,,,,0,,,71,37
53280,note_on,0,0,2,,,,,,,,,,,,,,,0,,,54,0
53280,note_on,136,0,2,,,,,,,,,,,,,,,0,,,62,0
53280,note_on,0,0,2,,,,,,,,,,,,,,,0,,,64,41
53280,note_on,120,0,1,,,,,,,,,,,,,,,0,,,71,0
53280,note_on,0,0,1,,,,,,,,,,,,,,,0,,,73,35
53280,note_on,0,0,1,,,,,,,,,,,,,,,0,,,78,0
53280,note_on,0,0,1,,,,,,,,,,,,,,,0,,,76,42
53280,note_on,0,0,2,,,,,,,,,,,,,,,0,,,56,41
53400,note_on,120,0,1,,,,,,,,,,,,,,,0,,,73,0
53400,note_on,0,0,1,,,,,,,,,,,,,,,0,,,68,35
53520,note_on,0,0,1,,,,,,,,,,,,,,,0,,,72,35
53520,note_on,0,0,1,,,,,,,,,,,,,,,0,,,76,0
53520,note_on,0,0,1,,,,,,,,,,,,,,,0,,,75,40
53520,note_on,120,0,1,,,,,,,,,,,,,,,0,,,68,0
53520,note_on,0,0,2,,,,,,,,,,,,,,,0,,,56,39
53520,note_on,0,0,2,,,,,,,,,,,,,,,0,,,56,0
53520,note_on,240,0,2,,,,,,,,,,,,,,,0,,,64,0
53520,note_on,0,0,2,,,,,,,,,,,,,,,0,,,66,39
53640,note_on,0,0,1,,,,,,,,,,,,,,,0,,,68,35
53640,note_on,120,0,1,,,,,,,,,,,,,,,0,,,72,0
53760,note_on,240,0,2,,,,,,,,,,,,,,,0,,,66,0
53760,note_on,0,0,2,,,,,,,,,,,,,,,0,,,56,0
53760,note_on,0,0,2,,,,,,,,,,,,,,,0,,,61,36
53760,set_tempo,960,1,0,,,,,,,,,,,,619835,,,,,,,
53760,note_on,0,0,2,,,,,,,,,,,,,,,0,,,64,36
53760,note_on,120,0,1,,,,,,,,,,,,,,,0,,,68,0
53760,note_on,0,0,1,,,,,,,,,,,,,,,0,,,73,38
53760,control_change,0,0,1,,,,,,,,,,,,,,,0,64,127,,
53760,note_on,0,0,1,,,,,,,,,,,,,,,0,,,75,0
53880,note_on,120,0,1,,,,,,,,,,,,,,,0,,,73,0
53880,note_on,0,0,1,,,,,,,,,,,,,,,0,,,64,34
54000,note_on,120,0,1,,,,,,,,,,,,,,,0,,,64,0
54000,note_on,0,0,1,,,,,,,,,,,,,,,0,,,73,34
54000,note_on,240,0,2,,,,,,,,,,,,,,,0,,,61,0
54000,note_on,0,0,2,,,,,,,,,,,,,,,0,,,64,0
54120,note_on,120,0,1,,,,,,,,,,,,,,,0,,,73,0
54120,note_on,0,0,1,,,,,,,,,,,,,,,0,,,76,34
54184,control_change,64,0,1,,,,,,,,,,,,,,,0,64,0,,
54240,note_on,56,0,1,,,,,,,,,,,,,,,0,,,76,0
54240,control_change,240,0,2,,,,,,,,,,,,,,,0,64,127,,
54240,note_on,0,0,2,,,,,,,,,,,,,,,0,,,56,38
54360,note_on,120,0,2,,,,,,,,,,,,,,,0,,,56,0
54360,note_on,0,0,2,,,,,,,,,,,,,,,0,,,49,35
54480,note_on,0,0,2,,,,,,,,,,,,,,,0,,,56,35
54480,note_on,120,0,2,,,,,,,,,,,,,,,0,,,49,0
54600,note_on,120,0,2,,,,,,,,,,,,,,,0,,,56,0
54600,note_on,0,0,2,,,,,,,,,,,,,,,0,,,61,35
54664,control_change,64,0,2,,,,,,,,,,,,,,,0,64,0,,
54720,note_on,56,0,2,,,,,,,,,,,,,,,0,,,61,0
54720,note_on,0,0,2,,,,,,,,,,,,,,,0,,,57,36
54720,control_change,480,0,1,,,,,,,,,,,,,,,0,64,127,,
54720,note_on,0,0,1,,,,,,,,,,,,,,,0,,,73,38
54840,note_on,120,0,1,,,,,,,,,,,,,,,0,,,73,0
54840,note_on,0,0,1,,,,,,,,,,,,,,,0,,,64,33
54960,note_on,120,0,1,,,,,,,,,,,,,,,0,,,64,0
54960,note_on,0,0,1,,,,,,,,,,,,,,,0,,,73,33
54960,note_on,240,0,2,,,,,,,,,,,,,,,0,,,57,0
55080,note_on,120,0,1,,,,,,,,,,,,,,,0,,,73,0
55080,note_on,0,0,1,,,,,,,,,,,,,,,0,,,76,33
55151,control_change,71,0,1,,,,,,,,,,,,,,,0,64,0,,
55200,note_on,0,0,2,,,,,,,,,,,,,,,0,,,52,38
55200,control_change,240,0,2,,,,,,,,,,,,,,,0,64,127,,
55200,note_on,49,0,1,,,,,,,,,,,,,,,0,,,76,0
55320,note_on,0,0,2,,,,,,,,,,,,,,,0,,,45,32
55320,note_on,120,0,2,,,,,,,,,,,,,,,0,,,52,0
55440,note_on,0,0,2,,,,,,,,,,,,,,,0,,,52,32
55440,note_on,120,0,2,,,,,,,,,,,,,,,0,,,45,0
55560,note_on,120,0,2,,,,,,,,,,,,,,,0,,,52,0
55560,note_on,0,0,2,,,,,,,,,,,,,,,0,,,57,32
55624,control_change,64,0,2,,,,,,,,,,,,,,,0,64,0,,
55680,note_on,480,0,1,,,,,,,,,,,,,,,0,,,74,38
55680,set_tempo,1920,1,0,,,,,,,,,,,,592885,,,,,,,
55680,note_on,56,0,2,,,,,,,,,,,,,,,0,,,57,0
55680,note_on,0,0,2,,,,,,,,,,,,,,,0,,,54,38
55684,control_change,4,0,2,,,,,,,,,,,,,,,0,64,127,,
55800,note_on,120,0,1,,,,,,,,,,,,,,,0,,,74,0
55800,note_on,0,0,1,,,,,,,,,,,,,,,0,,,69,39
55920,note_on,0,0,1,,,,,,,,,,,,,,,0,,,74,44
55920,note_on,120,0,1,,,,,,,,,,,,,,,0,,,69,0
55920,note_on,236,0,2,,,,,,,,,,,,,,,0,,,54,0
55920,note_on,0,0,2,,,,,,,,,,,,,,,0,,,57,41
56040,note_on,120,0,2,,,,,,,,,,,,,,,0,,,57,0
56040,note_on,120,0,1,,,,,,,,,,,,,,,0,,,74,0
56040,note_on,0,0,2,,,,,,,,,,,,,,,0,,,62,47
56040,note_on,0,0,1,,,,,,,,,,,,,,,0,,,78,49
56160,note_on,0,0,2,,,,,,,,,,,,,,,0,,,66,53
56160,note_on,0,0,1,,,,,,,,,,,,,,,0,,,81,55
56160,note_on,120,0,2,,,,,,,,,,,,,,,0,,,62,0
56160,set_tempo,480,1,0,,,,,,,,,,,,590145,,,,,,,
56160,note_on,120,0,1,,,,,,,,,,,,,,,0,,,78,0
56240,set_tempo,80,1,0,,,,,,,,,,,,592885,,,,,,,
56280,note_on,120,0,1,,,,,,,,,,,,,,,0,,,81,0
56280,note_on,0,0,1,,,,,,,,,,,,,,,0,,,78,53
56280,note_on,0,0,2,,,,,,,,,,,,,,,0,,,62,50
56280,note_on,120,0,2,,,,,,,,,,,,,,,0,,,66,0
56300,set_tempo,60,1,0,,,,,,,,,,,,595770,,,,,,,
56380,set_tempo,80,1,0,,,,,,,,,,,,598623,,,,,,,
56400,note_on,0,0,2,,,,,,,,,,,,,,,0,,,57,48
56400,note_on,120,0,2,,,,,,,,,,,,,,,0,,,62,0
56400,note_on,120,0,1,,,,,,,,,,,,,,,0,,,78,0
56400,note_on,0,0,1,,,,,,,,,,,,,,,0,,,74,50
56440,set_tempo,60,1,0,,,,,,,,,,,,601443,,,,,,,
56520,set_tempo,80,1,0,,,,,,,,,,,,691722,,,,,,,
56520,note_on,0,0,2,,,,,,,,,,,,,,,0,,,54,46
56520,note_on,120,0,2,,,,,,,,,,,,,,,0,,,57,0
56520,note_on,120,0,1,,,,,,,,,,,,,,,0,,,74,0
56520,note_on,0,0,1,,,,,,,,,,,,,,,0,,,69,47
56576,control_change,56,0,2,,,,,,,,,,,,,,,0,64,0,,
56640,note_on,120,0,1,,,,,,,,,,,,,,,0,,,69,0
56640,set_tempo,120,1,0,,,,,,,,,,,,655738,,,,,,,
56640,note_on,0,0,2,,,,,,,,,,,,,,,0,,,56,44
56640,note_on,64,0,2,,,,,,,,,,,,,,,0,,,54,0
56640,note_on,0,0,1,,,,,,,,,,,,,,,0,,,68,44
56640,control_change,0,0,2,,,,,,,,,,,,,,,0,64,127,,
56760,note_on,120,0,1,,,,,,,,,,,,,,,0,,,68,0
56760,note_on,0,0,1,,,,,,,,,,,,,,,0,,,76,44
56880,note_on,120,0,1,,,,,,,,,,,,,,,0,,,76,0
56880,note_on,0,0,1,,,,,,,,,,,,,,,0,,,64,48
56880,note_on,0,0,2,,,,,,,,,,,,,,,0,,,56,40
56880,note_on,240,0,2,,,,,,,,,,,,,,,0,,,56,0
57000,note_on,120,0,1,,,,,,,,,,,,,,,0,,,64,0
57000,note_on,0,0,1,,,,,,,,,,,,,,,0,,,73,44
57028,control_change,148,0,2,,,,,,,,,,,,,,,0,64,0,,
57120,note_on,0,0,2,,,,,,,,,,,,,,,0,,,56,40
57120,note_on,92,0,2,,,,,,,,,,,,,,,0,,,56,0
57120,note_on,120,0,1,,,,,,,,,,,,,,,0,,,73,0
57120,note_on,0,0,1,,,,,,,,,,,,,,,0,,,66,48
57240,note_on,120,0,1,,,,,,,,,,,,,,,0,,,66,0
57240,note_on,0,0,1,,,,,,,,,,,,,,,0,,,75,44
57360,note_on,240,0,2,,,,,,,,,,,,,,,0,,,56,0
57360,note_on,0,0,2,,,,,,,,,,,,,,,0,,,56,40
57360,note_on,0,0,1,,,,,,,,,,,,,,,0,,,63,48
57360,note_on,120,0,1,,,,,,,,,,,,,,,0,,,75,0
57480,note_on,120,0,1,,,,,,,,,,,,,,,0,,,63,0
57480,note_on,0,0,1,,,,,,,,,,,,,,,0,,,72,44
57600,note_on,0,0,2,,,,,,,,,,,,,,,0,,,56,39
57600,note_on,240,0,2,,,,,,,,,,,,,,,0,,,56,0
57600,set_tempo,960,1,0,,,,,,,,,,,,750000,,,,,,,
57600,note_on,120,0,1,,,,,,,,,,,,,,,0,,,72,0
57600,note_on,0,0,1,,,,,,,,,,,,,,,0,,,64,51
57720,note_on,120,0,1,,,,,,,,,,,,,,,0,,,64,0
57720,note_on,0,0,1,,,,,,,,,,,,,,,0,,,73,42
57840,note_on,120,0,1,,,,,,,,,,,,,,,0,,,73,0
57840,note_on,0,0,1,,,,,,,,,,,,,,,0,,,61,43
57840,note_on,0,0,1,,,,,,,,,,,,,,,0,,,64,43
57840,note_on,240,0,2,,,,,,,,,,,,,,,0,,,44,37
57960,note_on,120,0,1,,,,,,,,,,,,,,,0,,,64,0
57960,note_on,0,0,1,,,,,,,,,,,,,,,0,,,61,0
57960,note_on,0,0,1,,,,,,,,,,,,,,,0,,,68,35
58080,note_on,120,0,1,,,,,,,,,,,,,,,0,,,68,0
58080,note_on,0,0,1,,,,,,,,,,,,,,,0,,,66,38
58080,note_on,0,0,1,,,,,,,,,,,,,,,0,,,63,38
58080,note_on,0,0,2,,,,,,,,,,,,,,,0,,,44,32
58080,note_on,0,0,2,,,,,,,,,,,,,,,0,,,56,0
58080,note_on,240,0,2,,,,,,,,,,,,,,,0,,,44,0
58100,set_tempo,500,1,0,,,,,,,,,,,,810811,,,,,,,
58140,set_tempo,40,1,0,,,,,,,,,,,,816327,,,,,,,
58160,set_tempo,20,1,0,,,,,,,,,,,,821918,,,,,,,
58200,set_tempo,40,1,0,,,,,,,,,,,,827586,,,,,,,
58200,note_on,120,0,1,,,,,,,,,,,,,,,0,,,66,0
58200,note_on,0,0,1,,,,,,,,,,,,,,,0,,,63,0
58200,note_on,0,0,1,,,,,,,,,,,,,,,0,,,68,31
58220,set_tempo,20,1,0,,,,,,,,,,,,833333,,,,,,,
58240,set_tempo,20,1,0,,,,,,,,,,,,839161,,,,,,,
58280,set_tempo,40,1,0,,,,,,,,,,,,845070,,,,,,,
58300,set_tempo,20,1,0,,,,,,,,,,,,851064,,,,,,,
58320,note_on,0,0,1,,,,,,,,,,,,,,,0,,,60,34
58320,note_on,0,0,1,,,,,,,,,,,,,,,0,,,63,34
58320,set_tempo,20,1,0,,,,,,,,,,,,857143,,,,,,,
58320,note_on,240,0,2,,,,,,,,,,,,,,,0,,,44,0
58320,note_on,0,0,2,,,,,,,,,,,,,,,0,,,44,29
58320,note_on,120,0,1,,,,,,,,,,,,,,,0,,,68,0
58360,set_tempo,40,1,0,,,,,,,,,,,,863309,,,,,,,
58380,set_tempo,20,1,0,,,,,,,,,,,,869565,,,,,,,
58400,set_tempo,20,1,0,,,,,,,,,,,,875912,,,,,,,
58440,set_tempo,40,1,0,,,,,,,,,,,,882353,,,,,,,
58440,note_on,0,0,1,,,,,,,,,,,,,,,0,,,60,0
58440,note_on,120,0,1,,,,,,,,,,,,,,,0,,,63,0
58440,note_on,0,0,1,,,,,,,,,,,,,,,0,,,68,30
58460,set_tempo,20,1,0,,,,,,,,,,,,888889,,,,,,,
58480,set_tempo,20,1,0,,,,,,,,,,,,895522,,,,,,,
58520,set_tempo,40,1,0,,,,,,,,,,,,902256,,,,,,,
58540,set_tempo,20,1,0,,,,,,,,,,,,909091,,,,,,,
58560,set_tempo,20,1,0,,,,,,,,,,,,975610,,,,,,,
58560,note_on,240,0,2,,,,,,,,,,,,,,,0,,,44,0
58560,note_on,120,0,1,,,,,,,,,,,,,,,0,,,68,0
59520,set_tempo,0,1,0,,,,,,,,,,,,779221,,,,,,,
59520,control_change,0,0,2,,,,,,,,,,,,,,,0,91,127,,
59520,note_on,0,0,2,,,,,,,,,,,,,,,0,,,61,22
59520,note_on,960,0,2,,,,,,,,,,,,,,,0,,,49,22
59520,control_change,960,0,1,,,,,,,,,,,,,,,0,91,127,,
59520,note_on,0,0,1,,,,,,,,,,,,,,,0,,,65,36
59520,key_signature,960,1,0,,,,,,,,,,,Db,,,,,,,,
59520,note_on,0,0,2,,,,,,,,,,,,,,,0,,,56,22
59640,note_on,120,0,1,,,,,,,,,,,,,,,0,,,65,0
59640,set_tempo,120,1,0,,,,,,,,,,,,857143,,,,,,,
59640,note_on,0,0,1,,,,,,,,,,,,,,,0,,,68,36
59760,note_on,0,0,2,,,,,,,,,,,,,,,0,,,56,0
59760,note_on,0,0,2,,,,,,,,,,,,,,,0,,,49,0
59760,note_on,0,0,2,,,,,,,,,,,,,,,0,,,49,20
59760,note_on,0,0,2,,,,,,,,,,,,,,,0,,,56,20
59760,note_on,0,0,2,,,,,,,,,,,,,,,0,,,61,20
59760,note_on,0,0,1,,,,,,,,,,,,,,,0,,,70,32
59760,note_on,0,0,1,,,,,,,,,,,,,,,0,,,66,32
59760,note_on,120,0,1,,,,,,,,,,,,,,,0,,,68,0
59760,set_tempo,120,1,0,,,,,,,,,,,,821918,,,,,,,
59760,note_on,240,0,2,,,,,,,,,,,,,,,0,,,61,0
60240,note_on,0,0,1,,,,,,,,,,,,,,,0,,,68,28
60240,note_on,0,0,1,,,,,,,,,,,,,,,0,,,65,28
60240,note_on,0,0,1,,,,,,,,,,,,,,,0,,,66,0
60240,note_on,480,0,1,,,,,,,,,,,,,,,0,,,70,0
60240,set_tempo,480,1,0,,,,,,,,,,,,779221,,,,,,,
60240,note_on,0,0,2,,,,,,,,,,,,,,,0,,,56,0
60240,note_on,0,0,2,,,,,,,,,,,,,,,0,,,61,18
60240,note_on,480,0,2,,,,,,,,,,,,,,,0,,,61,0
60240,note_on,0,0,2,,,,,,,,,,,,,,,0,,,56,18
60240,note_on,0,0,2,,,,,,,,,,,,,,,0,,,49,0
60240,note_on,0,0,2,,,,,,,,,,,,,,,0,,,49,18
60420,note_on,0,0,2,,,,,,,,,,,,,,,0,,,49,0
60420,note_on,0,0,2,,,,,,,,,,,,,,,0,,,56,0
60420,note_on,180,0,2,,,,,,,,,,,,,,,0,,,61,0
60420,note_on,0,0,1,,,,,,,,,,,,,,,0,,,65,0
60420,note_on,180,0,1,,,,,,,,,,,,,,,0,,,68,0
60480,note_on,60,0,2,,,,,,,,,,,,,,,0,,,49,19
60480,note_on,60,0,1,,,,,,,,,,,,,,,0,,,65,36
60480,set_tempo,240,1,0,,,,,,,,,,,,779221,,,,,,,
60480,note_on,0,0,2,,,,,,,,,,,,,,,0,,,56,19
60480,note_on,0,0,2,,,,,,,,,,,,,,,0,,,61,19
60600,note_on,120,0,1,,,,,,,,,,,,,,,0,,,65,0
60600,note_on,0,0,1,,,,,,,,,,,,,,,0,,,68,36
60600,set_tempo,120,1,0,,,,,,,,,,,,839161,,,,,,,
60720,set_tempo,120,1,0,,,,,,,,,,,,821918,,,,,,,
60720,note_on,0,0,2,,,,,,,,,,,,,,,0,,,61,20
60720,note_on,0,0,2,,,,,,,,,,,,,,,0,,,56,20
60720,note_on,0,0,2,,,,,,,,,,,,,,,0,,,49,20
60720,note_on,0,0,2,,,,,,,,,,,,,,,0,,,49,0
60720,note_on,0,0,2,,,,,,,,,,,,,,,0,,,56,0
60720,note_on,240,0,2,,,,,,,,,,,,,,,0,,,61,0
60720,note_on,120,0,1,,,,,,,,,,,,,,,0,,,68,0
60720,note_on,0,0,1,,,,,,,,,,,,,,,0,,,70,33
60720,note_on,0,0,1,,,,,,,,,,,,,,,0,,,73,33
60720,note_on,0,0,1,,,,,,,,,,,,,,,0,,,66,33
61200,note_on,480,0,1,,,,,,,,,,,,,,,0,,,73,0
61200,note_on,0,0,1,,,,,,,,,,,,,,,0,,,66,0
61200,note_on,0,0,2,,,,,,,,,,,,,,,0,,,56,0
61200,note_on,480,0,2,,,,,,,,,,,,,,,0,,,61,0
61200,note_on,0,0,1,,,,,,,,,,,,,,,0,,,70,0
61200,set_tempo,480,1,0,,,,,,,,,,,,779221,,,,,,,
61200,note_on,0,0,2,,,,,,,,,,,,,,,0,,,61,18
61200,note_on,0,0,1,,,,,,,,,,,,,,,0,,,65,30
61200,note_on,0,0,1,,,,,,,,,,,,,,,0,,,68,30
61200,note_on,0,0,2,,,,,,,,,,,,,,,0,,,56,18
61200,note_on,0,0,2,,,,,,,,,,,,,,,0,,,49,18
61200,note_on,0,0,2,,,,,,,,,,,,,,,0,,,49,0
61380,note_on,0,0,2,,,,,,,,,,,,,,,0,,,49,0
61380,note_on,180,0,1,,,,,,,,,,,,,,,0,,,68,0
61380,note_on,0,0,1,,,,,,,,,,,,,,,0,,,65,0
61380,note_on,0,0,2,,,,,,,,,,,,,,,0,,,56,0
61380,note_on,180,0,2,,,,,,,,,,,,,,,0,,,61,0
61440,note_on,0,0,1,,,,,,,,,,,,,,,0,,,68,37
61440,note_on,60,0,2,,,,,,,,,,,,,,,0,,,56,19
61440,note_on,0,0,2,,,,,,,,,,,,,,,0,,,60,19
61440,set_tempo,240,1,0,,,,,,,,,,,,779221,,,,,,,
61440,note_on,60,0,1,,,,,,,,,,,,,,,0,,,65,37
61560,note_on,0,0,1,,,,,,,,,,,,,,,0,,,62,37
61560,note_on,0,0,1,,,,,,,,,,,,,,,0,,,65,0
61560,note_on,120,0,1,,,,,,,,,,,,,,,0,,,68,0
61680,note_on,120,0,1,,,,,,,,,,,,,,,0,,,62,0
61680,note_on,0,0,1,,,,,,,,,,,,,,,0,,,63,39
61680,note_on,0,0,1,,,,,,,,,,,,,,,0,,,66,39
61680,note_on,0,0,2,,,,,,,,,,,,,,,0,,,60,19
61680,note_on,240,0,2,,,,,,,,,,,,,,,0,,,60,0
61680,note_on,0,0,2,,,,,,,,,,,,,,,0,,,56,0
61680,note_on,0,0,2,,,,,,,,,,,,,,,0,,,56,19
61680,set_tempo,240,1,0,,,,,,,,,,,,800000,,,,,,,
62160,note_on,0,0,2,,,,,,,,,,,,,,,0,,,56,0
62160,note_on,0,0,2,,,,,,,,,,,,,,,0,,,56,25
62160,note_on,480,0,2,,,,,,,,,,,,,,,0,,,60,0
62160,note_on,480,0,1,,,,,,,,,,,,,,,0,,,66,0
62160,note_on,0,0,1,,,,,,,,,,,,,,,0,,,63,0
62160,note_on,0,0,1,,,,,,,,,,,,,,,0,,,66,36
62160,note_on,0,0,1,,,,,,,,,,,,,,,0,,,75,36
62160,set_tempo,480,1,0,,,,,,,,,,,,769231,,,,,,,
62160,note_on,0,0,2,,,,,,,,,,,,,,,0,,,60,25
62400,note_on,0,0,2,,,,,,,,,,,,,,,0,,,61,25
62400,note_on,0,0,2,,,,,,,,,,,,,,,0,,,56,0
62400,note_on,0,0,1,,,,,,,,,,,,,,,0,,,77,39
62400,note_on,240,0,2,,,,,,,,,,,,,,,0,,,60,0
62400,note_on,0,0,1,,,,,,,,,,,,,,,0,,,66,0
62400,note_on,240,0,1,,,,,,,,,,,,,,,0,,,75,0
62400,note_on,0,0,1,,,,,,,,,,,,,,,0,,,68,39
62400,note_on,0,0,2,,,,,,,,,,,,,,,0,,,56,25
62400,note_on,0,0,2,,,,,,,,,,,,,,,0,,,49,25
62520,note_on,120,0,1,,,,,,,,,,,,,,,0,,,77,0
62520,note_on,0,0,1,,,,,,,,,,,,,,,0,,,68,0
62520,note_on,0,0,1,,,,,,,,,,,,,,,0,,,66,37
62520,note_on,0,0,1,,,,,,,,,,,,,,,0,,,75,37
62640,note_on,0,0,2,,,,,,,,,,,,,,,0,,,56,26
62640,note_on,0,0,2,,,,,,,,,,,,,,,0,,,61,26
62640,note_on,0,0,2,,,,,,,,,,,,,,,0,,,56,0
62640,note_on,0,0,2,,,,,,,,,,,,,,,0,,,49,26
62640,note_on,0,0,2,,,,,,,,,,,,,,,0,,,49,0
62640,note_on,0,0,1,,,,,,,,,,,,,,,0,,,66,0
62640,note_on,0,0,1,,,,,,,,,,,,,,,0,,,65,38
62640,note_on,240,0,2,,,,,,,,,,,,,,,0,,,61,0
62640,note_on,0,0,1,,,,,,,,,,,,,,,0,,,73,38
62640,note_on,120,0,1,,,,,,,,,,,,,,,0,,,75,0
62640,set_tempo,480,1,0,,,,,,,,,,,,800000,,,,,,,
63120,note_on,0,0,2,,,,,,,,,,,,,,,0,,,56,22
63120,note_on,0,0,2,,,,,,,,,,,,,,,0,,,61,22
63120,note_on,0,0,1,,,,,,,,,,,,,,,0,,,68,31
63120,note_on,0,0,1,,,,,,,,,,,,,,,0,,,65,31
63120,note_on,0,0,2,,,,,,,,,,,,,,,0,,,49,0
63120,note_on,0,0,1,,,,,,,,,,,,,,,0,,,65,0
63120,note_on,480,0,1,,,,,,,,,,,,,,,0,,,73,0
63120,note_on,0,0,2,,,,,,,,,,,,,,,0,,,49,22
63120,set_tempo,480,1,0,,,,,,,,,,,,821918,,,,,,,
63120,note_on,0,0,2,,,,,,,,,,,,,,,0,,,56,0
63120,note_on,480,0,2,,,,,,,,,,,,,,,0,,,61,0
63300,note_on,180,0,2,,,,,,,,,,,,,,,0,,,61,0
63300,note_on,0,0,1,,,,,,,,,,,,,,,0,,,65,0
63300,note_on,180,0,1,,,,,,,,,,,,,,,0,,,68,0
63300,note_on,0,0,2,,,,,,,,,,,,,,,0,,,49,0
63300,note_on,0,0,2,,,,,,,,,,,,,,,0,,,56,0
63360,note_on,0,0,2,,,,,,,,,,,,,,,0,,,61,22
63360,set_tempo,240,1,0,,,,,,,,,,,,750000,,,,,,,
63360,note_on,0,0,2,,,,,,,,,,,,,,,0,,,56,22
63360,note_on,60,0,2,,,,,,,,,,,,,,,0,,,49,22
63360,control_change,60,0,1,,,,,,,,,,,,,,,0,91,127,,
63360,note_on,0,0,1,,,,,,,,,,,,,,,0,,,65,36
63360,control_change,0,0,2,,,,,,,,,,,,,,,0,91,127,,
63480,note_on,120,0,1,,,,,,,,,,,,,,,0,,,65,0
63480,note_on,0,0,1,,,,,,,,,,,,,,,0,,,68,36
63600,set_tempo,240,1,0,,,,,,,,,,,,784314,,,,,,,
63600,note_on,120,0,1,,,,,,,,,,,,,,,0,,,68,0
63600,note_on,0,0,1,,,,,,,,,,,,,,,0,,,70,32
63600,note_on,0,0,2,,,,,,,,,,,,,,,0,,,61,21
63600,note_on,240,0,2,,,,,,,,,,,,,,,0,,,61,0
63600,note_on,0,0,2,,,,,,,,,,,,,,,0,,,56,0
63600,note_on,0,0,2,,,,,,,,,,,,,,,0,,,49,0
63600,note_on,0,0,1,,,,,,,,,,,,,,,0,,,66,32
63600,note_on,0,0,2,,,,,,,,,,,,,,,0,,,56,21
63600,note_on,0,0,2,,,,,,,,,,,,,,,0,,,49,21
64080,note_on,0,0,2,,,,,,,,,,,,,,,0,,,56,0
64080,note_on,0,0,2,,,,,,,,,,,,,,,0,,,49,0
64080,set_tempo,480,1,0,,,,,,,,,,,,754717,,,,,,,
64080,note_on,0,0,2,,,,,,,,,,,,,,,0,,,49,21
64080,note_on,0,0,2,,,,,,,,,,,,,,,0,,,56,21
64080,note_on,480,0,1,,,,,,,,,,,,,,,0,,,70,0
64080,note_on,0,0,1,,,,,,,,,,,,,,,0,,,66,0
64080,note_on,0,0,1,,,,,,,,,,,,,,,0,,,65,30
64080,note_on,0,0,2,,,,,,,,,,,,,,,0,,,61,21
64080,note_on,0,0,1,,,,,,,,,,,,,,,0,,,68,30
64080,note_on,480,0,2,,,,,,,,,,,,,,,0,,,61,0
64260,note_on,180,0,1,,,,,,,,,,,,,,,0,,,68,0
64260,note_on,0,0,1,,,,,,,,,,,,,,,0,,,65,0
64260,note_on,180,0,2,,,,,,,,,,,,,,,0,,,61,0
64260,note_on,0,0,2,,,,,,,,,,,,,,,0,,,56,0
64260,note_on,0,0,2,,,,,,,,,,,,,,,0,,,49,0
64320,note_on,0,0,2,,,,,,,,,,,,,,,0,,,61,23
64320,note_on,60,0,1,,,,,,,,,,,,,,,0,,,65,36
64320,note_on,0,0,2,,,,,,,,,,,,,,,0,,,56,23
64320,note_on,60,0,2,,,,,,,,,,,,,,,0,,,49,23
64440,note_on,120,0,1,,,,,,,,,,,,,,,0,,,65,0
64440,set_tempo,360,1,0,,,,,,,,,,,,863309,,,,,,,
64440,note_on,0,0,1,,,,,,,,,,,,,,,0,,,68,36
64560,note_on,120,0,1,,,,,,,,,,,,,,,0,,,68,0
64560,note_on,0,0,1,,,,,,,,,,,,,,,0,,,73,32
64560,note_on,0,0,1,,,,,,,,,,,,,,,0,,,66,32
64560,note_on,0,0,1,,,,,,,,,,,,,,,0,,,70,32
64560,note_on,240,0,2,,,,,,,,,,,,,,,0,,,61,0
64560,note_on,0,0,2,,,,,,,,,,,,,,,0,,,56,0
64560,note_on,0,0,2,,,,,,,,,,,,,,,0,,,49,0
64560,note_on,0,0,2,,,,,,,,,,,,,,,0,,,49,21
64560,set_tempo,120,1,0,,,,,,,,,,,,789474,,,,,,,
64560,note_on,0,0,2,,,,,,,,,,,,,,,0,,,56,21
64560,note_on,0,0,2,,,,,,,,,,,,,,,0,,,61,21
65040,note_on,0,0,1,,,,,,,,,,,,,,,0,,,65,28
65040,note_on,0,0,1,,,,,,,,,,,,,,,0,,,68,28
65040,note_on,0,0,1,,,,,,,,,,,,,,,0,,,66,0
65040,note_on,0,0,1,,,,,,,,,,,,,,,0,,,70,0
65040,note_on,480,0,1,,,,,,,,,,,,,,,0,,,73,0
65040,note_on,0,0,2,,,,,,,,,,,,,,,0,,,61,19
65040,note_on,0,0,2,,,,,,,,,,,,,,,0,,,49,0
65040,note_on,0,0,2,,,,,,,,,,,,,,,0,,,49,19
65040,note_on,0,0,2,,,,,,,,,,,,,,,0,,,56,0
65040,note_on,480,0,2,,,,,,,,,,,,,,,0,,,61,0
65040,set_tempo,480,1,0,,,,,,,,,,,,754717,,,,,,,
65040,note_on,0,0,2,,,,,,,,,,,,,,,0,,,56,19
65220,note_on,180,0,2,,,,,,,,,,,,,,,0,,,61,0
65220,note_on,0,0,2,,,,,,,,,,,,,,,0,,,56,0
65220,note_on,0,0,1,,,,,,,,,,,,,,,0,,,65,0
65220,note_on,0,0,2,,,,,,,,,,,,,,,0,,,49,0
65220,note_on,180,0,1,,,,,,,,,,,,,,,0,,,68,0
65280,note_on,0,0,2,,,,,,,,,,,,,,,0,,,60,25
65280,note_on,0,0,1,,,,,,,,,,,,,,,0,,,68,37
65280,note_on,60,0,1,,,,,,,,,,,,,,,0,,,65,37
65280,note_on,60,0,2,,,,,,,,,,,,,,,0,,,56,25
65400,note_on,0,0,1,,,,,,,,,,,,,,,0,,,62,37
65400,note_on,120,0,1,,,,,,,,,,,,,,,0,,,68,0
65400,note_on,0,0,1,,,,,,,,,,,,,,,0,,,65,0
65520,note_on,120,0,1,,,,,,,,,,,,,,,0,,,62,0
65520,note_on,0,0,1,,,,,,,,,,,,,,,0,,,63,39
65520,note_on,0,0,1,,,,,,,,,,,,,,,0,,,66,39
65520,note_on,240,0,2,,,,,,,,,,,,,,,0,,,60,0
65520,note_on,0,0,2,,,,,,,,,,,,,,,0,,,56,0
65520,note_on,0,0,2,,,,,,,,,,,,,,,0,,,56,28
65520,note_on,0,0,2,,,,,,,,,,,,,,,0,,,60,28
65880,note_on,360,0,1,,,,,,,,,,,,,,,0,,,66,0
65880,note_on,0,0,1,,,,,,,,,,,,,,,0,,,63,0
65880,note_on,0,0,1,,,,,,,,,,,,,,,0,,,66,36
65880,note_on,0,0,1,,,,,,,,,,,,,,,0,,,75,36
65880,set_tempo,840,1,0,,,,,,,,,,,,736196,,,,,,,
66000,note_on,0,0,1,,,,,,,,,,,,,,,0,,,77,37
66000,note_on,0,0,2,,,,,,,,,,,,,,,0,,,56,0
66000,note_on,0,0,1,,,,,,,,,,,,,,,0,,,66,0
66000,note_on,480,0,2,,,,,,,,,,,,,,,0,,,60,0
66000,note_on,0,0,2,,,,,,,,,,,,,,,0,,,60,24
66000,note_on,120,0,1,,,,,,,,,,,,,,,0,,,75,0
66000,note_on,0,0,1,,,,,,,,,,,,,,,0,,,68,37
66000,note_on,0,0,2,,,,,,,,,,,,,,,0,,,56,24
66120,note_on,120,0,1,,,,,,,,,,,,,,,0,,,77,0
66120,note_on,0,0,1,,,,,,,,,,,,,,,0,,,66,36
66120,note_on,0,0,1,,,,,,,,,,,,,,,0,,,68,0
66120,note_on,0,0,1,,,,,,,,,,,,,,,0,,,75,36
66240,note_on,120,0,1,,,,,,,,,,,,,,,0,,,75,0
66240,note_on,240,0,2,,,,,,,,,,,,,,,0,,,60,0
66240,note_on,0,0,2,,,,,,,,,,,,,,,0,,,56,0
66240,note_on,0,0,2,,,,,,,,,,,,,,,0,,,49,25
66240,note_on,0,0,2,,,,,,,,,,,,,,,0,,,61,25
66240,note_on,0,0,2,,,,,,,,,,,,,,,0,,,56,25
66240,note_on,0,0,1,,,,,,,,,,,,,,,0,,,66,0
66240,note_on,0,0,1,,,,,,,,,,,,,,,0,,,73,37
66240,note_on,0,0,1,,,,,,,,,,,,,,,0,,,65,37
66360,note_on,120,0,1,,,,,,,,,,,,,,,0,,,73,0
66360,note_on,0,0,1,,,,,,,,,,,,,,,0,,,66,37
66360,note_on,0,0,1,,,,,,,,,,,,,,,0,,,65,0
66360,note_on,0,0,1,,,,,,,,,,,,,,,0,,,75,37
66480,note_on,0,0,1,,,,,,,,,,,,,,,0,,,73,40
66480,note_on,0,0,1,,,,,,,,,,,,,,,0,,,65,40
66480,note_on,0,0,1,,,,,,,,,,,,,,,0,,,66,0
66480,set_tempo,600,1,0,,,,,,,,,,,,833333,,,,,,,
66480,note_on,120,0,1,,,,,,,,,,,,,,,0,,,75,0
66480,note_on,0,0,2,,,,,,,,,,,,,,,0,,,56,0
66480,note_on,0,0,2,,,,,,,,,,,,,,,0,,,49,25
66480,note_on,0,0,2,,,,,,,,,,,,,,,0,,,56,25
66480,note_on,0,0,2,,,,,,,,,,,,,,,0,,,61,25
66480,note_on,240,0,2,,,,,,,,,,,,,,,0,,,61,0
66480,note_on,0,0,2,,,,,,,,,,,,,,,0,,,49,0
67200,note_on,720,0,2,,,,,,,,,,,,,,,0,,,61,0
67200,note_on,0,0,2,,,,,,,,,,,,,,,0,,,44,40
67200,note_on,0,0,2,,,,,,,,,,,,,,,0,,,32,40
67200,note_on,0,0,2,,,,,,,,,,,,,,,0,,,49,0
67200,note_on,0,0,2,,,,,,,,,,,,,,,0,,,56,0
67200,note_on,720,0,1,,,,,,,,,,,,,,,0,,,73,0
67200,set_tempo,720,1,0,,,,,,,,,,,,800000,,,,,,,
67200,note_on,0,0,1,,,,,,,,,,,,,,,0,,,56,43
67200,note_on,0,0,1,,,,,,,,,,,,,,,0,,,65,0
67320,note_on,120,0,1,,,,,,,,,,,,,,,0,,,56,0
67320,note_on,0,0,1,,,,,,,,,,,,,,,0,,,60,43
67440,note_on,120,0,1,,,,,,,,,,,,,,,0,,,60,0
67440,note_on,0,0,1,,,,,,,,,,,,,,,0,,,52,47
67440,note_on,0,0,1,,,,,,,,,,,,,,,0,,,56,47
67440,note_on,0,0,1,,,,,,,,,,,,,,,0,,,61,47
67440,note_on,240,0,2,,,,,,,,,,,,,,,0,,,44,0
67440,note_on,0,0,2,,,,,,,,,,,,,,,0,,,44,42
67440,note_on,0,0,2,,,,,,,,,,,,,,,0,,,37,42
67440,note_on,0,0,2,,,,,,,,,,,,,,,0,,,32,0
67440,set_tempo,240,1,0,,,,,,,,,,,,816327,,,,,,,
67920,note_on,0,0,1,,,,,,,,,,,,,,,0,,,56,38
67920,note_on,0,0,2,,,,,,,,,,,,,,,0,,,44,36
67920,note_on,0,0,1,,,,,,,,,,,,,,,0,,,60,38
67920,note_on,0,0,2,,,,,,,,,,,,,,,0,,,32,36
67920,note_on,0,0,1,,,,,,,,,,,,,,,0,,,51,38
67920,note_on,0,0,2,,,,,,,,,,,,,,,0,,,37,0
67920,note_on,0,0,1,,,,,,,,,,,,,,,0,,,56,0
67920,note_on,480,0,1,,,,,,,,,,,,,,,0,,,61,0
67920,note_on,480,0,2,,,,,,,,,,,,,,,0,,,44,0
67920,set_tempo,480,1,0,,,,,,,,,,,,779221,,,,,,,
67920,note_on,0,0,1,,,,,,,,,,,,,,,0,,,52,0
68160,note_on,0,0,2,,,,,,,,,,,,,,,0,,,44,37
68160,note_on,240,0,2,,,,,,,,,,,,,,,0,,,44,0
68160,note_on,0,0,2,,,,,,,,,,,,,,,0,,,32,0
68160,note_on,0,0,2,,,,,,,,,,,,,,,0,,,32,37
68160,note_on,240,0,1,,,,,,,,,,,,,,,0,,,60,0
68160,note_on,0,0,1,,,,,,,,,,,,,,,0,,,56,0
68160,set_tempo,240,1,0,,,,,,,,,,,,789474,,,,,,,
68160,note_on,0,0,1,,,,,,,,,,,,,,,0,,,51,0
68160,note_on,0,0,1,,,,,,,,,,,,,,,0,,,56,48
68280,note_on,120,0,1,,,,,,,,,,,,,,,0,,,56,0
68280,note_on,0,0,1,,,,,,,,,,,,,,,0,,,60,48
68400,note_on,0,0,2,,,,,,,,,,,,,,,0,,,44,45
68400,note_on,0,0,2,,,,,,,,,,,,,,,0,,,37,45
68400,note_on,0,0,2,,,,,,,,,,,,,,,0,,,32,0
68400,note_on,240,0,2,,,,,,,,,,,,,,,0,,,44,0
68400,set_tempo,240,1,0,,,,,,,,,,,,810811,,,,,,,
68400,note_on,0,0,1,,,,,,,,,,,,,,,0,,,56,53
68400,note_on,120,0,1,,,,,,,,,,,,,,,0,,,60,0
68400,note_on,0,0,1,,,,,,,,,,,,,,,0,,,64,53
68400,note_on,0,0,1,,,,,,,,,,,,,,,0,,,61,53
68880,note_on,0,0,1,,,,,,,,,,,,,,,0,,,56,0
68880,note_on,0,0,2,,,,,,,,,,,,,,,0,,,44,40
68880,note_on,0,0,2,,,,,,,,,,,,,,,0,,,32,40
68880,note_on,0,0,1,,,,,,,,,,,,,,,0,,,60,45
68880,note_on,0,0,2,,,,,,,,,,,,,,,0,,,37,0
68880,note_on,480,0,2,,,,,,,,,,,,,,,0,,,44,0
68880,set_tempo,480,1,0,,,,,,,,,,,,764331,,,,,,,
68880,note_on,0,0,1,,,,,,,,,,,,,,,0,,,63,45
68880,note_on,0,0,1,,,,,,,,,,,,,,,0,,,56,45
68880,note_on,0,0,1,,,,,,,,,,,,,,,0,,,64,0
68880,note_on,480,0,1,,,,,,,,,,,,,,,0,,,61,0
69120,note_on,0,0,2,,,,,,,,,,,,,,,0,,,32,0
69120,note_on,240,0,2,,,,,,,,,,,,,,,0,,,44,0
69120,note_on,0,0,1,,,,,,,,,,,,,,,0,,,63,53
69120,set_tempo,240,1,0,,,,,,,,,,,,805369,,,,,,,
69120,note_on,240,0,1,,,,,,,,,,,,,,,0,,,60,0
69120,note_on,0,0,1,,,,,,,,,,,,,,,0,,,63,0
69120,note_on,0,0,1,,,,,,,,,,,,,,,0,,,56,0
69120,note_on,0,0,1,,,,,,,,,,,,,,,0,,,60,53
69120,note_on,0,0,2,,,,,,,,,,,,,,,0,,,32,46
69120,note_on,0,0,2,,,,,,,,,,,,,,,0,,,44,46
69240,note_on,120,0,1,,,,,,,,,,,,,,,0,,,63,0
69240,note_on,0,0,1,,,,,,,,,,,,,,,0,,,60,0
69240,note_on,0,0,1,,,,,,,,,,,,,,,0,,,69,53
69360,note_on,0,0,2,,,,,,,,,,,,,,,0,,,37,49
69360,note_on,0,0,1,,,,,,,,,,,,,,,0,,,61,56
69360,note_on,0,0,1,,,,,,,,,,,,,,,0,,,64,56
69360,note_on,0,0,1,,,,,,,,,,,,,,,0,,,68,56
69360,note_on,240,0,2,,,,,,,,,,,,,,,0,,,44,0
69360,note_on,0,0,2,,,,,,,,,,,,,,,0,,,32,0
69360,note_on,0,0,2,,,,,,,,,,,,,,,0,,,44,49
69360,note_on,120,0,1,,,,,,,,,,,,,,,0,,,69,0
69360,set_tempo,240,1,0,,,,,,,,,,,,1052632,,,,,,,
69840,note_on,0,0,2,,,,,,,,,,,,,,,0,,,44,36
69840,note_on,0,0,2,,,,,,,,,,,,,,,0,,,32,36
69840,note_on,0,0,2,,,,,,,,,,,,,,,0,,,37,0
69840,note_on,480,0,2,,,,,,,,,,,,,,,0,,,44,0
69840,note_on,0,0,1,,,,,,,,,,,,,,,0,,,63,38
69840,note_on,0,0,1,,,,,,,,,,,,,,,0,,,68,38
69840,note_on,0,0,1,,,,,,,,,,,,,,,0,,,60,38
69840,note_on,0,0,1,,,,,,,,,,,,,,,0,,,61,0
69840,note_on,480,0,1,,,,,,,,,,,,,,,0,,,68,0
69840,note_on,0,0,1,,,,,,,,,,,,,,,0,,,64,0
69840,set_tempo,480,1,0,,,,,,,,,,,,1237113,,,,,,,
70080,note_on,240,0,1,,,,,,,,,,,,,,,0,,,68,0
70080,note_on,0,0,1,,,,,,,,,,,,,,,0,,,63,0
70080,note_on,0,0,1,,,,,,,,,,,,,,,0,,,60,0
70080,note_on,240,0,2,,,,,,,,,,,,,,,0,,,44,0
70080,note_on,0,0,1,,,,,,,,,,,,,,,0,,,63,25
70080,set_tempo,240,1,0,,,,,,,,,,,,1428571,,,,,,,
70080,note_on,0,0,2,,,,,,,,,,,,,,,0,,,32,0
70080,note_on,0,0,2,,,,,,,,,,,,,,,0,,,47,21
70080,note_on,0,0,2,,,,,,,,,,,,,,,0,,,42,21
70080,note_on,0,0,1,,,,,,,,,,,,,,,0,,,59,25
70080,note_on,0,0,1,,,,,,,,,,,,,,,0,,,69,25
70200,note_on,0,0,1,,,,,,,,,,,,,,,0,,,71,25
70200,note_on,120,0,1,,,,,,,,,,,,,,,0,,,69,0
70320,note_on,120,0,1,,,,,,,,,,,,,,,0,,,71,0
70320,note_on,0,0,1,,,,,,,,,,,,,,,0,,,63,0
70320,note_on,0,0,1,,,,,,,,,,,,,,,0,,,59,0
70320,note_on,240,0,2,,,,,,,,,,,,,,,0,,,47,0
70320,note_on,0,0,2,,,,,,,,,,,,,,,0,,,42,0
70320,note_on,0,0,2,,,,,,,,,,,,,,,0,,,40,21
70320,note_on,0,0,2,,,,,,,,,,,,,,,0,,,47,21
70320,note_on,0,0,1,,,,,,,,,,,,,,,0,,,59,24
70320,set_tempo,240,1,0,,,,,,,,,,,,1263158,,,,,,,
70320,note_on,0,0,1,,,,,,,,,,,,,,,0,,,64,24
70320,note_on,0,0,1,,,,,,,,,,,,,,,0,,,68,24
71040,note_on,720,0,2,,,,,,,,,,,,,,,0,,,47,0
71040,control_change,0,0,2,,,,,,,,,,,,,,,0,91,127,,
71040,note_on,0,0,2,,,,,,,,,,,,,,,0,,,61,18
71040,note_on,0,0,2,,,,,,,,,,,,,,,0,,,56,18
71040,note_on,0,0,2,,,,,,,,,,,,,,,0,,,49,18
71040,note_on,0,0,2,,,,,,,,,,,,,,,0,,,40,0
71040,set_tempo,720,1,0,,,,,,,,,,,,796284,,,,,,,
71040,note_on,720,0,1,,,,,,,,,,,,,,,0,,,68,0
71040,note_on,0,0,1,,,,,,,,,,,,,,,0,,,64,0
71040,note_on,0,0,1,,,,,,,,,,,,,,,0,,,59,0
71040,note_on,0,0,1,,,,,,,,,,,,,,,0,,,65,27
71040,control_change,0,0,1,,,,,,,,,,,,,,,0,91,127,,
71160,note_on,120,0,1,,,,,,,,,,,,,,,0,,,65,0
71160,note_on,0,0,1,,,,,,,,,,,,,,,0,,,68,27
71160,set_tempo,120,1,0,,,,,,,,,,,,869565,,,,,,,
71280,note_on,0,0,2,,,,,,,,,,,,,,,0,,,49,0
71280,note_on,0,0,2,,,,,,,,,,,,,,,0,,,49,18
71280,note_on,0,0,2,,,,,,,,,,,,,,,0,,,56,18
71280,note_on,0,0,2,,,,,,,,,,,,,,,0,,,61,18
71280,note_on,240,0,2,,,,,,,,,,,,,,,0,,,61,0
71280,set_tempo,120,1,0,,,,,,,,,,,,839983,,,,,,,
71280,note_on,120,0,1,,,,,,,,,,,,,,,0,,,68,0
71280,note_on,0,0,1,,,,,,,,,,,,,,,0,,,66,23
71280,note_on,0,0,1,,,,,,,,,,,,,,,0,,,70,23
71280,note_on,0,0,2,,,,,,,,,,,,,,,0,,,56,0
71760,note_on,0,0,1,,,,,,,,,,,,,,,0,,,66,0
71760,set_tempo,480,1,0,,,,,,,,,,,,779221,,,,,,,
71760,note_on,480,0,2,,,,,,,,,,,,,,,0,,,61,0
71760,note_on,0,0,2,,,,,,,,,,,,,,,0,,,56,0
71760,note_on,480,0,1,,,,,,,,,,,,,,,0,,,70,0
71760,note_on,0,0,2,,,,,,,,,,,,,,,0,,,49,15
71760,note_on,0,0,2,,,,,,,,,,,,,,,0,,,49,0
71760,note_on,0,0,2,,,,,,,,,,,,,,,0,,,61,15
71760,note_on,0,0,1,,,,,,,,,,,,,,,0,,,68,21
71760,note_on,0,0,1,,,,,,,,,,,,,,,0,,,65,21
71760,note_on,0,0,2,,,,,,,,,,,,,,,0,,,56,15
71940,note_on,180,0,2,,,,,,,,,,,,,,,0,,,61,0
71940,note_on,180,0,1,,,,,,,,,,,,,,,0,,,68,0
71940,note_on,0,0,1,,,,,,,,,,,,,,,0,,,65,0
71940,note_on,0,0,2,,,,,,,,,,,,,,,0,,,49,0
71940,note_on,0,0,2,,,,,,,,,,,,,,,0,,,56,0
72000,note_on,60,0,2,,,,,,,,,,,,,,,0,,,49,18
72000,note_on,0,0,2,,,,,,,,,,,,,,,0,,,56,18
72000,note_on,60,0,1,,,,,,,,,,,,,,,0,,,65,27
72000,note_on,0,0,2,,,,,,,,,,,,,,,0,,,61,18
72120,set_tempo,360,1,0,,,,,,,,,,,,833333,,,,,,,
72120,note_on,120,0,1,,,,,,,,,,,,,,,0,,,65,0
72120,note_on,0,0,1,,,,,,,,,,,,,,,0,,,68,27
72240,note_on,240,0,2,,,,,,,,,,,,,,,0,,,61,0
72240,note_on,0,0,2,,,,,,,,,,,,,,,0,,,56,0
72240,note_on,0,0,2,,,,,,,,,,,,,,,0,,,49,0
72240,note_on,0,0,1,,,,,,,,,,,,,,,0,,,73,25
72240,note_on,0,0,1,,,,,,,,,,,,,,,0,,,70,25
72240,note_on,0,0,2,,,,,,,,,,,,,,,0,,,49,18
72240,note_on,0,0,1,,,,,,,,,,,,,,,0,,,66,25
72240,set_tempo,120,1,0,,,,,,,,,,,,810811,,,,,,,
72240,note_on,120,0,1,,,,,,,,,,,,,,,0,,,68,0
72240,note_on,0,0,2,,,,,,,,,,,,,,,0,,,56,18
72240,note_on,0,0,2,,,,,,,,,,,,,,,0,,,61,18
72720,note_on,480,0,2,,,,,,,,,,,,,,,0,,,61,0
72720,note_on,0,0,2,,,,,,,,,,,,,,,0,,,56,0
72720,note_on,0,0,1,,,,,,,,,,,,,,,0,,,65,20
72720,note_on,0,0,2,,,,,,,,,,,,,,,0,,,49,15
72720,note_on,0,0,1,,,,,,,,,,,,,,,0,,,68,20
72720,note_on,0,0,2,,,,,,,,,,,,,,,0,,,61,15
72720,set_tempo,480,1,0,,,,,,,,,,,,740741,,,,,,,
72720,note_on,480,0,1,,,,,,,,,,,,,,,0,,,73,0
72720,note_on,0,0,1,,,,,,,,,,,,,,,0,,,70,0
72720,note_on,0,0,1,,,,,,,,,,,,,,,0,,,66,0
72720,note_on,0,0,2,,,,,,,,,,,,,,,0,,,49,0
72720,note_on,0,0,2,,,,,,,,,,,,,,,0,,,56,15
72900,note_on,0,0,2,,,,,,,,,,,,,,,0,,,49,0
72900,note_on,0,0,2,,,,,,,,,,,,,,,0,,,56,0
72900,note_on,0,0,1,,,,,,,,,,,,,,,0,,,65,0
72900,note_on,180,0,1,,,,,,,,,,,,,,,0,,,68,0
72900,note_on,180,0,2,,,,,,,,,,,,,,,0,,,61,0
72960,note_on,0,0,2,,,,,,,,,,,,,,,0,,,60,18
72960,note_on,60,0,2,,,,,,,,,,,,,,,0,,,56,18
72960,note_on,60,0,1,,,,,,,,,,,,,,,0,,,65,28
72960,note_on,0,0,1,,,,,,,,,,,,,,,0,,,68,28
73080,note_on,120,0,1,,,,,,,,,,,,,,,0,,,68,0
73080,note_on,0,0,1,,,,,,,,,,,,,,,0,,,62,28
73080,note_on,0,0,1,,,,,,,,,,,,,,,0,,,65,0
73200,note_on,0,0,1,,,,,,,,,,,,,,,0,,,66,32
73200,note_on,0,0,1,,,,,,,,,,,,,,,0,,,63,32
73200,note_on,120,0,1,,,,,,,,,,,,,,,0,,,62,0
73200,set_tempo,480,1,0,,,,,,,,,,,,769231,,,,,,,
73200,note_on,240,0,2,,,,,,,,,,,,,,,0,,,60,0
73200,note_on,0,0,2,,,,,,,,,,,,,,,0,,,56,0
73200,note_on,0,0,2,,,,,,,,,,,,,,,0,,,60,18
73200,note_on,0,0,2,,,,,,,,,,,,,,,0,,,56,18
73680,note_on,0,0,2,,,,,,,,,,,,,,,0,,,60,18
73680,note_on,0,0,2,,,,,,,,,,,,,,,0,,,56,18
73680,note_on,0,0,2,,,,,,,,,,,,,,,0,,,56,0
73680,note_on,480,0,2,,,,,,,,,,,,,,,0,,,60,0
73680,note_on,480,0,1,,,,,,,,,,,,,,,0,,,66,0
73680,note_on,0,0,1,,,,,,,,,,,,,,,0,,,63,0
73680,note_on,0,0,1,,,,,,,,,,,,,,,0,,,66,26
73680,note_on,0,0,1,,,,,,,,,,,,,,,0,,,75,26
73920,note_on,240,0,1,,,,,,,,,,,,,,,0,,,75,0
73920,note_on,0,0,1,,,,,,,,,,,,,,,0,,,66,0
73920,note_on,0,0,1,,,,,,,,,,,,,,,0,,,68,31
73920,note_on,0,0,1,,,,,,,,,,,,,,,0,,,77,31
73920,set_tempo,720,1,0,,,,,,,,,,,,764331,,,,,,,
73920,note_on,0,0,2,,,,,,,,,,,,,,,0,,,56,0
73920,note_on,240,0,2,,,,,,,,,,,,,,,0,,,60,0
73920,note_on,0,0,2,,,,,,,,,,,,,,,0,,,49,20
73920,note_on,0,0,2,,,,,,,,,,,,,,,0,,,56,20
73920,note_on,0,0,2,,,,,,,,,,,,,,,0,,,61,20
74040,note_on,0,0,1,,,,,,,,,,,,,,,0,,,68,0
74040,note_on,0,0,1,,,,,,,,,,,,,,,0,,,66,28
74040,note_on,0,0,1,,,,,,,,,,,,,,,0,,,75,28
74040,note_on,120,0,1,,,,,,,,,,,,,,,0,,,77,0
74160,note_on,0,0,1,,,,,,,,,,,,,,,0,,,73,34
74160,note_on,120,0,1,,,,,,,,,,,,,,,0,,,75,0
74160,note_on,0,0,1,,,,,,,,,,,,,,,0,,,66,0
74160,note_on,0,0,1,,,,,,,,,,,,,,,0,,,65,34
74160,note_on,0,0,2,,,,,,,,,,,,,,,0,,,49,0
74160,note_on,0,0,2,,,,,,,,,,,,,,,0,,,49,21
74160,note_on,0,0,2,,,,,,,,,,,,,,,0,,,56,0
74160,set_tempo,240,1,0,,,,,,,,,,,,789474,,,,,,,
74160,note_on,240,0,2,,,,,,,,,,,,,,,0,,,61,0
74160,note_on,0,0,2,,,,,,,,,,,,,,,0,,,61,21
74160,note_on,0,0,2,,,,,,,,,,,,,,,0,,,56,21
74640,note_on,480,0,2,,,,,,,,,,,,,,,0,,,61,0
74640,note_on,0,0,2,,,,,,,,,,,,,,,0,,,49,18
74640,set_tempo,480,1,0,,,,,,,,,,,,764331,,,,,,,
74640,note_on,0,0,2,,,,,,,,,,,,,,,0,,,56,0
74640,note_on,0,0,2,,,,,,,,,,,,,,,0,,,49,0
74640,note_on,0,0,1,,,,,,,,,,,,,,,0,,,65,25
74640,note_on,0,0,2,,,,,,,,,,,,,,,0,,,56,18
74640,note_on,0,0,2,,,,,,,,,,,,,,,0,,,61,18
74640,note_on,480,0,1,,,,,,,,,,,,,,,0,,,73,0
74640,note_on,0,0,1,,,,,,,,,,,,,,,0,,,65,0
74640,note_on,0,0,1,,,,,,,,,,,,,,,0,,,68,25
74820,note_on,180,0,2,,,,,,,,,,,,,,,0,,,61,0
74820,note_on,0,0,2,,,,,,,,,,,,,,,0,,,56,0
74820,note_on,0,0,2,,,,,,,,,,,,,,,0,,,49,0
74820,note_on,180,0,1,,,,,,,,,,,,,,,0,,,68,0
74820,note_on,0,0,1,,,,,,,,,,,,,,,0,,,65,0
74880,control_change,0,0,2,,,,,,,,,,,,,,,0,91,127,,
74880,note_on,0,0,1,,,,,,,,,,,,,,,0,,,65,27
74880,control_change,60,0,1,,,,,,,,,,,,,,,0,91,127,,
74880,note_on,0,0,2,,,,,,,,,,,,,,,0,,,61,18
74880,note_on,0,0,2,,,,,,,,,,,,,,,0,,,56,18
74880,note_on,60,0,2,,,,,,,,,,,,,,,0,,,49,18
75000,set_tempo,360,1,0,,,,,,,,,,,,800000,,,,,,,
75000,note_on,120,0,1,,,,,,,,,,,,,,,0,,,65,0
75000,note_on,0,0,1,,,,,,,,,,,,,,,0,,,68,27
75120,note_on,0,0,2,,,,,,,,,,,,,,,0,,,49,18
75120,note_on,0,0,2,,,,,,,,,,,,,,,0,,,56,18
75120,note_on,0,0,2,,,,,,,,,,,,,,,0,,,61,18
75120,set_tempo,120,1,0,,,,,,,,,,,,779221,,,,,,,
75120,note_on,0,0,2,,,,,,,,,,,,,,,0,,,49,0
75120,note_on,0,0,2,,,,,,,,,,,,,,,0,,,56,0
75120,note_on,240,0,2,,,,,,,,,,,,,,,0,,,61,0
75120,note_on,120,0,1,,,,,,,,,,,,,,,0,,,68,0
75120,note_on,0,0,1,,,,,,,,,,,,,,,0,,,66,26
75120,note_on,0,0,1,,,,,,,,,,,,,,,0,,,70,26
75600,note_on,0,0,2,,,,,,,,,,,,,,,0,,,56,0
75600,note_on,0,0,2,,,,,,,,,,,,,,,0,,,61,18
75600,note_on,0,0,2,,,,,,,,,,,,,,,0,,,56,18
75600,note_on,0,0,2,,,,,,,,,,,,,,,0,,,49,18
75600,note_on,0,0,2,,,,,,,,,,,,,,,0,,,49,0
75600,note_on,480,0,2,,,,,,,,,,,,,,,0,,,61,0
75600,set_tempo,480,1,0,,,,,,,,,,,,754717,,,,,,,
75600,note_on,480,0,1,,,,,,,,,,,,,,,0,,,70,0
75600,note_on,0,0,1,,,,,,,,,,,,,,,0,,,66,0
75600,note_on,0,0,1,,,,,,,,,,,,,,,0,,,65,25
75600,note_on,0,0,1,,,,,,,,,,,,,,,0,,,68,25
75780,note_on,180,0,2,,,,,,,,,,,,,,,0,,,61,0
75780,note_on,0,0,2,,,,,,,,,,,,,,,0,,,49,0
75780,note_on,0,0,2,,,,,,,,,,,,,,,0,,,56,0
75780,note_on,0,0,1,,,,,,,,,,,,,,,0,,,65,0
75780,note_on,180,0,1,,,,,,,,,,,,,,,0,,,68,0
75840,note_on,0,0,2,,,,,,,,,,,,,,,0,,,61,18
75840,note_on,0,0,2,,,,,,,,,,,,,,,0,,,56,18
75840,note_on,60,0,2,,,,,,,,,,,,,,,0,,,49,18
75840,note_on,60,0,1,,,,,,,,,,,,,,,0,,,65,27
75960,set_tempo,360,1,0,,,,,,,,,,,,800000,,,,,,,
75960,note_on,0,0,1,,,,,,,,,,,,,,,0,,,68,27
75960,note_on,120,0,1,,,,,,,,,,,,,,,0,,,65,0
76080,note_on,0,0,2,,,,,,,,,,,,,,,0,,,56,0
76080,note_on,0,0,1,,,,,,,,,,,,,,,0,,,66,26
76080,note_on,120,0,1,,,,,,,,,,,,,,,0,,,68,0
76080,note_on,240,0,2,,,,,,,,,,,,,,,0,,,61,0
76080,note_on,0,0,2,,,,,,,,,,,,,,,0,,,49,0
76080,note_on,0,0,2,,,,,,,,,,,,,,,0,,,49,18
76080,note_on,0,0,2,,,,,,,,,,,,,,,0,,,56,18
76080,note_on,0,0,2,,,,,,,,,,,,,,,0,,,61,18
76080,set_tempo,120,1,0,,,,,,,,,,,,774194,,,,,,,
76080,note_on,0,0,1,,,,,,,,,,,,,,,0,,,70,26
76080,note_on,0,0,1,,,,,,,,,,,,,,,0,,,73,26
76560,note_on,480,0,2,,,,,,,,,,,,,,,0,,,61,0
76560,note_on,0,0,2,,,,,,,,,,,,,,,0,,,56,0
76560,note_on,0,0,2,,,,,,,,,,,,,,,0,,,49,0
76560,note_on,0,0,2,,,,,,,,,,,,,,,0,,,49,17
76560,note_on,0,0,2,,,,,,,,,,,,,,,0,,,56,17
76560,note_on,0,0,2,,,,,,,,,,,,,,,0,,,61,17
76560,set_tempo,480,1,0,,,,,,,,,,,,740741,,,,,,,
76560,note_on,0,0,1,,,,,,,,,,,,,,,0,,,70,0
76560,note_on,0,0,1,,,,,,,,,,,,,,,0,,,66,0
76560,note_on,0,0,1,,,,,,,,,,,,,,,0,,,65,22
76560,note_on,0,0,1,,,,,,,,,,,,,,,0,,,68,22
76560,note_on,480,0,1,,,,,,,,,,,,,,,0,,,73,0
76740,note_on,0,0,2,,,,,,,,,,,,,,,0,,,49,0
76740,note_on,0,0,2,,,,,,,,,,,,,,,0,,,56,0
76740,note_on,180,0,2,,,,,,,,,,,,,,,0,,,61,0
76740,note_on,0,0,1,,,,,,,,,,,,,,,0,,,65,0
76740,note_on,180,0,1,,,,,,,,,,,,,,,0,,,68,0
76800,note_on,0,0,2,,,,,,,,,,,,,,,0,,,60,20
76800,note_on,60,0,1,,,,,,,,,,,,,,,0,,,65,28
76800,note_on,60,0,2,,,,,,,,,,,,,,,0,,,56,20
76800,note_on,0,0,1,,,,,,,,,,,,,,,0,,,68,28
76920,note_on,0,0,1,,,,,,,,,,,,,,,0,,,65,0
76920,note_on,120,0,1,,,,,,,,,,,,,,,0,,,68,0
76920,set_tempo,360,1,0,,,,,,,,,,,,789474,,,,,,,
76920,note_on,0,0,1,,,,,,,,,,,,,,,0,,,62,28
77040,note_on,0,0,1,,,,,,,,,,,,,,,0,,,66,34
77040,set_tempo,120,1,0,,,,,,,,,,,,769231,,,,,,,
77040,note_on,0,0,2,,,,,,,,,,,,,,,0,,,60,22
77040,note_on,0,0,2,,,,,,,,,,,,,,,0,,,56,22
77040,note_on,0,0,2,,,,,,,,,,,,,,,0,,,56,0
77040,note_on,0,0,1,,,,,,,,,,,,,,,0,,,63,34
77040,note_on,120,0,1,,,,,,,,,,,,,,,0,,,62,0
77040,note_on,240,0,2,,,,,,,,,,,,,,,0,,,60,0
77400,note_on,0,0,1,,,,,,,,,,,,,,,0,,,63,0
77400,set_tempo,360,1,0,,,,,,,,,,,,722892,,,,,,,
77400,note_on,0,0,1,,,,,,,,,,,,,,,0,,,75,27
77400,note_on,0,0,1,,,,,,,,,,,,,,,0,,,66,27
77400,note_on,360,0,1,,,,,,,,,,,,,,,0,,,66,0
77520,note_on,0,0,2,,,,,,,,,,,,,,,0,,,56,0
77520,note_on,0,0,2,,,,,,,,,,,,,,,0,,,56,19
77520,note_on,0,0,2,,,,,,,,,,,,,,,0,,,60,19
77520,note_on,480,0,2,,,,,,,,,,,,,,,0,,,60,0
77520,note_on,120,0,1,,,,,,,,,,,,,,,0,,,75,0
77520,note_on,0,0,1,,,,,,,,,,,,,,,0,,,66,0
77520,note_on,0,0,1,,,,,,,,,,,,,,,0,,,68,28
77520,note_on,0,0,1,,,,,,,,,,,,,,,0,,,77,28
77640,note_on,0,0,1,,,,,,,,,,,,,,,0,,,75,27
77640,note_on,0,0,1,,,,,,,,,,,,,,,0,,,66,27
77640,note_on,120,0,1,,,,,,,,,,,,,,,0,,,77,0
77640,note_on,0,0,1,,,,,,,,,,,,,,,0,,,68,0
77760,note_on,0,0,1,,,,,,,,,,,,,,,0,,,73,28
77760,note_on,0,0,1,,,,,,,,,,,,,,,0,,,65,28
77760,note_on,0,0,1,,,,,,,,,,,,,,,0,,,66,0
77760,note_on,120,0,1,,,,,,,,,,,,,,,0,,,75,0
77760,note_on,240,0,2,,,,,,,,,,,,,,,0,,,60,0
77760,note_on,0,0,2,,,,,,,,,,,,,,,0,,,61,20
77760,note_on,0,0,2,,,,,,,,,,,,,,,0,,,56,20
77760,note_on,0,0,2,,,,,,,,,,,,,,,0,,,49,20
77760,note_on,0,0,2,,,,,,,,,,,,,,,0,,,56,0
77880,note_on,120,0,1,,,,,,,,,,,,,,,0,,,73,0
77880,note_on,0,0,1,,,,,,,,,,,,,,,0,,,65,0
77880,note_on,0,0,1,,,,,,,,,,,,,,,0,,,66,28
77880,note_on,0,0,1,,,,,,,,,,,,,,,0,,,75,28
78000,note_on,0,0,2,,,,,,,,,,,,,,,0,,,56,21
78000,note_on,0,0,2,,,,,,,,,,,,,,,0,,,56,0
78000,note_on,0,0,2,,,,,,,,,,,,,,,0,,,49,0
78000,note_on,0,0,2,,,,,,,,,,,,,,,0,,,49,21
78000,note_on,240,0,2,,,,,,,,,,,,,,,0,,,61,0
78000,note_on,0,0,2,,,,,,,,,,,,,,,0,,,61,21
78000,note_on,120,0,1,,,,,,,,,,,,,,,0,,,75,0
78000,note_on,0,0,1,,,,,,,,,,,,,,,0,,,65,30
78000,set_tempo,600,1,0,,,,,,,,,,,,851547,,,,,,,
78000,note_on,0,0,1,,,,,,,,,,,,,,,0,,,66,0
78000,note_on,0,0,1,,,,,,,,,,,,,,,0,,,73,30
78720,note_on,0,0,2,,,,,,,,,,,,,,,0,,,44,30
78720,note_on,0,0,2,,,,,,,,,,,,,,,0,,,32,30
78720,set_tempo,720,1,0,,,,,,,,,,,,781047,,,,,,,
78720,note_on,0,0,1,,,,,,,,,,,,,,,0,,,65,0
78720,note_on,0,0,1,,,,,,,,,,,,,,,0,,,56,33
78720,note_on,720,0,2,,,,,,,,,,,,,,,0,,,61,0
78720,note_on,0,0,2,,,,,,,,,,,,,,,0,,,56,0
78720,note_on,0,0,2,,,,,,,,,,,,,,,0,,,49,0
78720,note_on,720,0,1,,,,,,,,,,,,,,,0,,,73,0
78840,note_on,0,0,1,,,,,,,,,,,,,,,0,,,60,33
78840,note_on,120,0,1,,,,,,,,,,,,,,,0,,,56,0
78960,note_on,0,0,2,,,,,,,,,,,,,,,0,,,44,32
78960,note_on,240,0,2,,,,,,,,,,,,,,,0,,,44,0
78960,note_on,0,0,1,,,,,,,,,,,,,,,0,,,52,36
78960,note_on,0,0,2,,,,,,,,,,,,,,,0,,,37,32
78960,set_tempo,240,1,0,,,,,,,,,,,,806777,,,,,,,
78960,note_on,120,0,1,,,,,,,,,,,,,,,0,,,60,0
78960,note_on,0,0,2,,,,,,,,,,,,,,,0,,,32,0
78960,note_on,0,0,1,,,,,,,,,,,,,,,0,,,56,36
78960,note_on,0,0,1,,,,,,,,,,,,,,,0,,,61,36
79440,note_on,0,0,2,,,,,,,,,,,,,,,0,,,37,0
79440,set_tempo,480,1,0,,,,,,,,,,,,781047,,,,,,,
79440,note_on,480,0,2,,,,,,,,,,,,,,,0,,,44,0
79440,note_on,480,0,1,,,,,,,,,,,,,,,0,,,61,0
79440,note_on,0,0,1,,,,,,,,,,,,,,,0,,,52,0
79440,note_on,0,0,1,,,,,,,,,,,,,,,0,,,51,29
79440,note_on,0,0,1,,,,,,,,,,,,,,,0,,,60,29
79440,note_on,0,0,2,,,,,,,,,,,,,,,0,,,44,27
79440,note_on,0,0,2,,,,,,,,,,,,,,,0,,,32,27
79440,note_on,0,0,1,,,,,,,,,,,,,,,0,,,56,0
79440,note_on,0,0,1,,,,,,,,,,,,,,,0,,,56,29
79680,note_on,0,0,2,,,,,,,,,,,,,,,0,,,32,0
79680,note_on,240,0,2,,,,,,,,,,,,,,,0,,,44,0
79680,note_on,0,0,2,,,,,,,,,,,,,,,0,,,44,30
79680,note_on,0,0,2,,,,,,,,,,,,,,,0,,,32,30
79680,note_on,0,0,1,,,,,,,,,,,,,,,0,,,51,0
79680,note_on,0,0,1,,,,,,,,,,,,,,,0,,,56,0
79680,note_on,240,0,1,,,,,,,,,,,,,,,0,,,60,0
79680,note_on,0,0,1,,,,,,,,,,,,,,,0,,,56,36
79800,note_on,120,0,1,,,,,,,,,,,,,,,0,,,56,0
79800,note_on,0,0,1,,,,,,,,,,,,,,,0,,,60,36
79920,note_on,0,0,2,,,,,,,,,,,,,,,0,,,37,34
79920,note_on,0,0,1,,,,,,,,,,,,,,,0,,,56,40
79920,set_tempo,480,1,0,,,,,,,,,,,,794702,,,,,,,
79920,note_on,240,0,2,,,,,,,,,,,,,,,0,,,44,0
79920,note_on,0,0,2,,,,,,,,,,,,,,,0,,,32,0
79920,note_on,0,0,2,,,,,,,,,,,,,,,0,,,44,34
79920,note_on,0,0,1,,,,,,,,,,,,,,,0,,,64,40
79920,note_on,120,0,1,,,,,,,,,,,,,,,0,,,60,0
79920,note_on,0,0,1,,,,,,,,,,,,,,,0,,,61,40
80400,note_on,0,0,2,,,,,,,,,,,,,,,0,,,37,0
80400,note_on,480,0,2,,,,,,,,,,,,,,,0,,,44,0
80400,note_on,0,0,1,,,,,,,,,,,,,,,0,,,60,34
80400,note_on,0,0,1,,,,,,,,,,,,,,,0,,,56,34
80400,note_on,0,0,1,,,,,,,,,,,,,,,0,,,56,0
80400,note_on,0,0,1,,,,,,,,,,,,,,,0,,,64,0
80400,note_on,480,0,1,,,,,,,,,,,,,,,0,,,61,0
80400,set_tempo,480,1,0,,,,,,,,,,,,781047,,,,,,,
80400,note_on,0,0,1,,,,,,,,,,,,,,,0,,,63,34
80400,note_on,0,0,2,,,,,,,,,,,,,,,0,,,32,30
80400,note_on,0,0,2,,,,,,,,,,,,,,,0,,,44,30
80640,note_on,0,0,1,,,,,,,,,,,,,,,0,,,60,40
80640,note_on,240,0,2,,,,,,,,,,,,,,,0,,,44,0
80640,note_on,0,0,1,,,,,,,,,,,,,,,0,,,56,0
80640,note_on,0,0,2,,,,,,,,,,,,,,,0,,,32,0
80640,note_on,0,0,2,,,,,,,,,,,,,,,0,,,32,34
80640,note_on,0,0,2,,,,,,,,,,,,,,,0,,,44,34
80640,note_on,0,0,1,,,,,,,,,,,,,,,0,,,63,40
80640,note_on,240,0,1,,,,,,,,,,,,,,,0,,,60,0
80640,note_on,0,0,1,,,,,,,,,,,,,,,0,,,63,0
80760,note_on,120,0,1,,,,,,,,,,,,,,,0,,,63,0
80760,note_on,0,0,1,,,,,,,,,,,,,,,0,,,60,0
80760,note_on,0,0,1,,,,,,,,,,,,,,,0,,,69,40
80880,note_on,0,0,2,,,,,,,,,,,,,,,0,,,44,36
80880,note_on,120,0,1,,,,,,,,,,,,,,,0,,,69,0
80880,note_on,0,0,1,,,,,,,,,,,,,,,0,,,61,44
80880,note_on,0,0,1,,,,,,,,,,,,,,,0,,,68,44
80880,note_on,240,0,2,,,,,,,,,,,,,,,0,,,44,0
80880,note_on,0,0,2,,,,,,,,,,,,,,,0,,,32,0
80880,note_on,0,0,2,,,,,,,,,,,,,,,0,,,37,36
80880,set_tempo,480,1,0,,,,,,,,,,,,1008403,,,,,,,
80880,note_on,0,0,1,,,,,,,,,,,,,,,0,,,64,44
81360,note_on,0,0,1,,,,,,,,,,,,,,,0,,,61,0
81360,note_on,0,0,1,,,,,,,,,,,,,,,0,,,60,35
81360,note_on,0,0,1,,,,,,,,,,,,,,,0,,,63,35
81360,note_on,0,0,1,,,,,,,,,,,,,,,0,,,68,35
81360,note_on,0,0,1,,,,,,,,,,,,,,,0,,,64,0
81360,note_on,480,0,2,,,,,,,,,,,,,,,0,,,44,0
81360,set_tempo,480,1,0,,,,,,,,,,,,1188119,,,,,,,
81360,note_on,0,0,2,,,,,,,,,,,,,,,0,,,44,31
81360,note_on,0,0,2,,,,,,,,,,,,,,,0,,,32,31
81360,note_on,0,0,2,,,,,,,,,,,,,,,0,,,37,0
81360,note_on,480,0,1,,,,,,,,,,,,,,,0,,,68,0
81600,note_on,0,0,1,,,,,,,,,,,,,,,0,,,63,0
81600,set_tempo,240,1,0,,,,,,,,,,,,1600000,,,,,,,
81600,note_on,240,0,1,,,,,,,,,,,,,,,0,,,68,0
81600,note_on,0,0,1,,,,,,,,,,,,,,,0,,,60,0
81600,note_on,0,0,1,,,,,,,,,,,,,,,0,,,63,24
81600,note_on,240,0,2,,,,,,,,,,,,,,,0,,,44,0
81600,note_on,0,0,2,,,,,,,,,,,,,,,0,,,32,0
81600,note_on,0,0,2,,,,,,,,,,,,,,,0,,,42,19
81600,note_on,0,0,1,,,,,,,,,,,,,,,0,,,59,24
81600,note_on,0,0,1,,,,,,,,,,,,,,,0,,,69,24
81600,note_on,0,0,2,,,,,,,,,,,,,,,0,,,47,19
81720,note_on,120,0,1,,,,,,,,,,,,,,,0,,,69,0
81720,note_on,0,0,1,,,,,,,,,,,,,,,0,,,71,24
81840,set_tempo,240,1,0,,,,,,,,,,,,882353,,,,,,,
81840,note_on,0,0,2,,,,,,,,,,,,,,,0,,,42,0
81840,note_on,240,0,2,,,,,,,,,,,,,,,0,,,47,0
81840,note_on,0,0,1,,,,,,,,,,,,,,,0,,,68,24
81840,note_on,0,0,1,,,,,,,,,,,,,,,0,,,64,24
81840,note_on,0,0,1,,,,,,,,,,,,,,,0,,,59,0
81840,note_on,0,0,2,,,,,,,,,,,,,,,0,,,40,19
81840,note_on,0,0,1,,,,,,,,,,,,,,,0,,,63,0
81840,note_on,120,0,1,,,,,,,,,,,,,,,0,,,71,0
81840,note_on,0,0,1,,,,,,,,,,,,,,,0,,,59,24
81840,note_on,0,0,2,,,,,,,,,,,,,,,0,,,47,19
82560,note_on,0,0,1,,,,,,,,,,,,,,,0,,,59,47
82560,note_on,0,0,1,,,,,,,,,,,,,,,0,,,64,47
82560,note_on,0,0,1,,,,,,,,,,,,,,,0,,,68,47
82560,note_on,0,0,2,,,,,,,,,,,,,,,0,,,40,45
82560,note_on,720,0,1,,,,,,,,,,,,,,,0,,,68,0
82560,set_tempo,720,1,0,,,,,,,,,,,,740741,,,,,,,
82560,note_on,0,0,1,,,,,,,,,,,,,,,0,,,59,0
82560,note_on,0,0,1,,,,,,,,,,,,,,,0,,,64,0
82560,note_on,0,0,2,,,,,,,,,,,,,,,0,,,40,0
82560,note_on,0,0,2,,,,,,,,,,,,,,,0,,,52,45
82560,note_on,720,0,2,,,,,,,,,,,,,,,0,,,47,0
82680,note_on,0,0,1,,,,,,,,,,,,,,,0,,,69,47
82680,note_on,120,0,1,,,,,,,,,,,,,,,0,,,68,0
82800,note_on,0,0,1,,,,,,,,,,,,,,,0,,,59,0
82800,note_on,0,0,2,,,,,,,,,,,,,,,0,,,40,0
82800,note_on,0,0,1,,,,,,,,,,,,,,,0,,,59,51
82800,note_on,0,0,2,,,,,,,,,,,,,,,0,,,47,48
82800,note_on,120,0,1,,,,,,,,,,,,,,,0,,,69,0
82800,note_on,0,0,1,,,,,,,,,,,,,,,0,,,66,51
82800,note_on,0,0,1,,,,,,,,,,,,,,,0,,,63,51
82800,note_on,0,0,1,,,,,,,,,,,,,,,0,,,64,0
82800,note_on,240,0,2,,,,,,,,,,,,,,,0,,,52,0
82800,note_on,0,0,2,,,,,,,,,,,,,,,0,,,35,48
83280,note_on,0,0,1,,,,,,,,,,,,,,,0,,,59,44
83280,note_on,0,0,2,,,,,,,,,,,,,,,0,,,52,46
83280,set_tempo,720,1,0,,,,,,,,,,,,701754,,,,,,,
83280,note_on,480,0,1,,,,,,,,,,,,,,,0,,,66,0
83280,note_on,0,0,1,,,,,,,,,,,,,,,0,,,63,0
83280,note_on,0,0,1,,,,,,,,,,,,,,,0,,,64,44
83280,note_on,0,0,1,,,,,,,,,,,,,,,0,,,68,44
83280,note_on,0,0,1,,,,,,,,,,,,,,,0,,,59,0
83280,note_on,480,0,2,,,,,,,,,,,,,,,0,,,47,0
83280,note_on,0,0,2,,,,,,,,,,,,,,,0,,,35,0
83280,note_on,0,0,2,,,,,,,,,,,,,,,0,,,40,46
83520,note_on,0,0,1,,,,,,,,,,,,,,,0,,,59,0
83520,note_on,0,0,1,,,,,,,,,,,,,,,0,,,59,49
83520,note_on,0,0,1,,,,,,,,,,,,,,,0,,,68,49
83520,note_on,0,0,2,,,,,,,,,,,,,,,0,,,52,50
83520,note_on,0,0,2,,,,,,,,,,,,,,,0,,,40,50
83520,note_on,0,0,1,,,,,,,,,,,,,,,0,,,64,49
83520,note_on,240,0,2,,,,,,,,,,,,,,,0,,,52,0
83520,note_on,0,0,1,,,,,,,,,,,,,,,0,,,64,0
83520,note_on,0,0,2,,,,,,,,,,,,,,,0,,,40,0
83520,note_on,240,0,1,,,,,,,,,,,,,,,0,,,68,0
83640,note_on,0,0,1,,,,,,,,,,,,,,,0,,,69,49
83640,note_on,120,0,1,,,,,,,,,,,,,,,0,,,68,0
83760,note_on,0,0,1,,,,,,,,,,,,,,,0,,,64,0
83760,note_on,120,0,1,,,,,,,,,,,,,,,0,,,69,0
83760,note_on,0,0,1,,,,,,,,,,,,,,,0,,,59,0
83760,note_on,0,0,1,,,,,,,,,,,,,,,0,,,59,53
83760,note_on,0,0,1,,,,,,,,,,,,,,,0,,,63,53
83760,note_on,0,0,1,,,,,,,,,,,,,,,0,,,66,53
83760,set_tempo,480,1,0,,,,,,,,,,,,718563,,,,,,,
83760,note_on,240,0,2,,,,,,,,,,,,,,,0,,,52,0
83760,note_on,0,0,2,,,,,,,,,,,,,,,0,,,40,0
83760,note_on,0,0,2,,,,,,,,,,,,,,,0,,,35,53
83760,note_on,0,0,2,,,,,,,,,,,,,,,0,,,47,53
84240,note_on,0,0,1,,,,,,,,,,,,,,,0,,,59,48
84240,note_on,0,0,1,,,,,,,,,,,,,,,0,,,59,0
84240,note_on,0,0,1,,,,,,,,,,,,,,,0,,,63,0
84240,note_on,480,0,1,,,,,,,,,,,,,,,0,,,66,0
84240,set_tempo,480,1,0,,,,,,,,,,,,685714,,,,,,,
84240,note_on,480,0,2,,,,,,,,,,,,,,,0,,,47,0
84240,note_on,0,0,1,,,,,,,,,,,,,,,0,,,68,48
84240,note_on,0,0,2,,,,,,,,,,,,,,,0,,,35,0
84240,note_on,0,0,2,,,,,,,,,,,,,,,0,,,40,50
84240,note_on,0,0,2,,,,,,,,,,,,,,,0,,,52,50
84240,note_on,0,0,1,,,,,,,,,,,,,,,0,,,64,48
84480,note_on,0,0,2,,,,,,,,,,,,,,,0,,,47,54
84480,note_on,240,0,2,,,,,,,,,,,,,,,0,,,52,0
84480,note_on,0,0,2,,,,,,,,,,,,,,,0,,,40,0
84480,note_on,0,0,1,,,,,,,,,,,,,,,0,,,66,53
84480,note_on,0,0,1,,,,,,,,,,,,,,,0,,,63,53
84480,note_on,0,0,2,,,,,,,,,,,,,,,0,,,35,54
84480,note_on,0,0,1,,,,,,,,,,,,,,,0,,,59,0
84480,note_on,0,0,1,,,,,,,,,,,,,,,0,,,64,0
84480,note_on,240,0,1,,,,,,,,,,,,,,,0,,,68,0
84480,note_on,0,0,1,,,,,,,,,,,,,,,0,,,59,53
84600,note_on,120,0,1,,,,,,,,,,,,,,,0,,,66,0
84600,note_on,0,0,1,,,,,,,,,,,,,,,0,,,68,53
84720,note_on,0,0,2,,,,,,,,,,,,,,,0,,,35,0
84720,note_on,0,0,2,,,,,,,,,,,,,,,0,,,37,58
84720,note_on,0,0,2,,,,,,,,,,,,,,,0,,,49,58
84720,set_tempo,480,1,0,,,,,,,,,,,,714286,,,,,,,
84720,note_on,0,0,1,,,,,,,,,,,,,,,0,,,59,0
84720,note_on,0,0,1,,,,,,,,,,,,,,,0,,,56,56
84720,note_on,0,0,1,,,,,,,,,,,,,,,0,,,63,0
84720,note_on,0,0,1,,,,,,,,,,,,,,,0,,,64,56
84720,note_on,0,0,1,,,,,,,,,,,,,,,0,,,61,56
84720,note_on,240,0,2,,,,,,,,,,,,,,,0,,,47,0
84720,note_on,120,0,1,,,,,,,,,,,,,,,0,,,68,0
85200,note_on,480,0,1,,,,,,,,,,,,,,,0,,,64,0
85200,note_on,0,0,1,,,,,,,,,,,,,,,0,,,61,0
85200,note_on,0,0,1,,,,,,,,,,,,,,,0,,,57,60
85200,note_on,0,0,1,,,,,,,,,,,,,,,0,,,61,60
85200,note_on,0,0,1,,,,,,,,,,,,,,,0,,,66,60
85200,note_on,0,0,1,,,,,,,,,,,,,,,0,,,56,0
85200,set_tempo,480,1,0,,,,,,,,,,,,681818,,,,,,,
85200,note_on,480,0,2,,,,,,,,,,,,,,,0,,,49,0
85200,note_on,0,0,2,,,,,,,,,,,,,,,0,,,37,0
85200,note_on,0,0,2,,,,,,,,,,,,,,,0,,,33,60
85200,note_on,0,0,2,,,,,,,,,,,,,,,0,,,45,60
85440,set_tempo,240,1,0,,,,,,,,,,,,693642,,,,,,,
85440,note_on,240,0,2,,,,,,,,,,,,,,,0,,,45,0
85440,note_on,0,0,2,,,,,,,,,,,,,,,0,,,33,0
85440,note_on,0,0,2,,,,,,,,,,,,,,,0,,,35,57
85440,note_on,0,0,2,,,,,,,,,,,,,,,0,,,47,57
85440,note_on,240,0,1,,,,,,,,,,,,,,,0,,,66,0
85440,note_on,0,0,1,,,,,,,,,,,,,,,0,,,61,0
85440,note_on,0,0,1,,,,,,,,,,,,,,,0,,,57,0
85440,note_on,0,0,1,,,,,,,,,,,,,,,0,,,57,56
85440,note_on,0,0,1,,,,,,,,,,,,,,,0,,,63,56
85560,note_on,0,0,1,,,,,,,,,,,,,,,0,,,66,56
85560,note_on,120,0,1,,,,,,,,,,,,,,,0,,,63,0
85680,note_on,0,0,2,,,,,,,,,,,,,,,0,,,40,54
85680,note_on,0,0,1,,,,,,,,,,,,,,,0,,,57,0
85680,note_on,0,0,1,,,,,,,,,,,,,,,0,,,56,52
85680,note_on,0,0,1,,,,,,,,,,,,,,,0,,,64,52
85680,note_on,0,0,2,,,,,,,,,,,,,,,0,,,47,54
85680,note_on,0,0,2,,,,,,,,,,,,,,,0,,,35,0
85680,note_on,240,0,2,,,,,,,,,,,,,,,0,,,47,0
85680,note_on,120,0,1,,,,,,,,,,,,,,,0,,,66,0
85680,set_tempo,240,1,0,,,,,,,,,,,,722892,,,,,,,
86120,note_on,440,0,1,,,,,,,,,,,,,,,0,,,64,0
86120,note_on,0,0,1,,,,,,,,,,,,,,,0,,,56,0
86120,note_on,440,0,2,,,,,,,,,,,,,,,0,,,47,0
86120,note_on,0,0,2,,,,,,,,,,,,,,,0,,,40,0
86160,note_on,40,0,2,,,,,,,,,,,,,,,0,,,59,45
86160,set_tempo,480,1,0,,,,,,,,,,,,685714,,,,,,,
86160,note_on,0,0,1,,,,,,,,,,,,,,,0,,,76,45
86160,note_on,40,0,1,,,,,,,,,,,,,,,0,,,68,45
86400,note_on,0,0,1,,,,,,,,,,,,,,,0,,,76,48
86400,note_on,0,0,2,,,,,,,,,,,,,,,0,,,59,39
86400,note_on,0,0,2,,,,,,,,,,,,,,,0,,,63,39
86400,note_on,240,0,2,,,,,,,,,,,,,,,0,,,59,0
86400,note_on,0,0,1,,,,,,,,,,,,,,,0,,,69,48
86400,note_on,0,0,1,,,,,,,,,,,,,,,0,,,68,0
86400,note_on,240,0,1,,,,,,,,,,,,,,,0,,,76,0
86520,note_on,120,0,1,,,,,,,,,,,,,,,0,,,76,0
86520,note_on,0,0,1,,,,,,,,,,,,,,,0,,,80,48
86640,note_on,0,0,2,,,,,,,,,,,,,,,0,,,59,48
86640,note_on,0,0,1,,,,,,,,,,,,,,,0,,,69,0
86640,note_on,0,0,1,,,,,,,,,,,,,,,0,,,69,51
86640,note_on,0,0,1,,,,,,,,,,,,,,,0,,,78,51
86640,set_tempo,480,1,0,,,,,,,,,,,,705882,,,,,,,
86640,note_on,240,0,2,,,,,,,,,,,,,,,0,,,59,0
86640,note_on,0,0,2,,,,,,,,,,,,,,,0,,,63,0
86640,note_on,0,0,2,,,,,,,,,,,,,,,0,,,63,48
86640,note_on,120,0,1,,,,,,,,,,,,,,,0,,,80,0
87120,set_tempo,480,1,0,,,,,,,,,,,,681818,,,,,,,
87120,note_on,480,0,2,,,,,,,,,,,,,,,0,,,63,0
87120,note_on,0,0,2,,,,,,,,,,,,,,,0,,,59,0
87120,note_on,0,0,2,,,,,,,,,,,,,,,0,,,63,48
87120,note_on,0,0,1,,,,,,,,,,,,,,,0,,,69,47
87120,note_on,0,0,1,,,,,,,,,,,,,,,0,,,66,47
87120,note_on,0,0,1,,,,,,,,,,,,,,,0,,,69,0
87120,note_on,0,0,2,,,,,,,,,,,,,,,0,,,59,48
87120,note_on,480,0,1,,,,,,,,,,,,,,,0,,,78,0
87360,note_on,240,0,2,,,,,,,,,,,,,,,0,,,63,0
87360,note_on,0,0,2,,,,,,,,,,,,,,,0,,,59,0
87360,note_on,0,0,2,,,,,,,,,,,,,,,0,,,64,53
87360,note_on,0,0,2,,,,,,,,,,,,,,,0,,,59,53
87360,note_on,0,0,1,,,,,,,,,,,,,,,0,,,66,0
87360,note_on,0,0,1,,,,,,,,,,,,,,,0,,,68,53
87360,note_on,0,0,1,,,,,,,,,,,,,,,0,,,64,53
87360,note_on,240,0,1,,,,,,,,,,,,,,,0,,,69,0
87480,note_on,120,0,1,,,,,,,,,,,,,,,0,,,68,0
87480,note_on,0,0,1,,,,,,,,,,,,,,,0,,,69,53
87480,note_on,0,0,1,,,,,,,,,,,,,,,0,,,66,53
87480,note_on,0,0,1,,,,,,,,,,,,,,,0,,,64,0
87600,note_on,0,0,1,,,,,,,,,,,,,,,0,,,71,54
87600,note_on,0,0,1,,,,,,,,,,,,,,,0,,,68,54
87600,note_on,0,0,1,,,,,,,,,,,,,,,0,,,66,0
87600,note_on,120,0,1,,,,,,,,,,,,,,,0,,,69,0
87600,note_on,240,0,2,,,,,,,,,,,,,,,0,,,59,0
87600,note_on,0,0,2,,,,,,,,,,,,,,,0,,,64,0
87600,note_on,0,0,2,,,,,,,,,,,,,,,0,,,59,54
87600,set_tempo,480,1,0,,,,,,,,,,,,697674,,,,,,,
87600,note_on,0,0,2,,,,,,,,,,,,,,,0,,,64,54
88080,note_on,480,0,2,,,,,,,,,,,,,,,0,,,64,0
88080,note_on,0,0,1,,,,,,,,,,,,,,,0,,,76,48
88080,note_on,0,0,1,,,,,,,,,,,,,,,0,,,68,48
88080,note_on,0,0,1,,,,,,,,,,,,,,,0,,,68,0
88080,note_on,480,0,1,,,,,,,,,,,,,,,0,,,71,0
88080,note_on,0,0,2,,,,,,,,,,,,,,,0,,,59,0
88080,note_on,0,0,2,,,,,,,,,,,,,,,0,,,59,47
88080,note_on,0,0,2,,,,,,,,,,,,,,,0,,,64,47
88080,set_tempo,480,1,0,,,,,,,,,,,,674157,,,,,,,
88320,note_on,0,0,1,,,,,,,,,,,,,,,0,,,68,0
88320,note_on,0,0,1,,,,,,,,,,,,,,,0,,,76,54
88320,note_on,0,0,1,,,,,,,,,,,,,,,0,,,69,54
88320,note_on,240,0,1,,,,,,,,,,,,,,,0,,,76,0
88320,note_on,0,0,2,,,,,,,,,,,,,,,0,,,63,51
88320,note_on,0,0,2,,,,,,,,,,,,,,,0,,,59,0
88320,note_on,240,0,2,,,,,,,,,,,,,,,0,,,64,0
88320,note_on,0,0,2,,,,,,,,,,,,,,,0,,,59,51
88440,note_on,120,0,1,,,,,,,,,,,,,,,0,,,76,0
88440,note_on,0,0,1,,,,,,,,,,,,,,,0,,,80,54
88560,note_on,0,0,1,,,,,,,,,,,,,,,0,,,69,55
88560,note_on,240,0,2,,,,,,,,,,,,,,,0,,,59,0
88560,note_on,0,0,2,,,,,,,,,,,,,,,0,,,63,54
88560,note_on,0,0,2,,,,,,,,,,,,,,,0,,,59,54
88560,note_on,120,0,1,,,,,,,,,,,,,,,0,,,80,0
88560,note_on,0,0,1,,,,,,,,,,,,,,,0,,,69,0
88560,note_on,0,0,2,,,,,,,,,,,,,,,0,,,63,0
88560,note_on,0,0,1,,,,,,,,,,,,,,,0,,,78,55
88560,set_tempo,480,1,0,,,,,,,,,,,,685714,,,,,,,
89040,note_on,0,0,2,,,,,,,,,,,,,,,0,,,66,51
89040,note_on,0,0,2,,,,,,,,,,,,,,,0,,,59,51
89040,note_on,0,0,2,,,,,,,,,,,,,,,0,,,59,0
89040,note_on,480,0,2,,,,,,,,,,,,,,,0,,,63,0
89040,set_tempo,480,1,0,,,,,,,,,,,,666667,,,,,,,
89040,note_on,0,0,1,,,,,,,,,,,,,,,0,,,69,51
89040,note_on,0,0,1,,,,,,,,,,,,,,,0,,,75,51
89040,note_on,0,0,1,,,,,,,,,,,,,,,0,,,69,0
89040,note_on,480,0,1,,,,,,,,,,,,,,,0,,,78,0
89280,note_on,0,0,1,,,,,,,,,,,,,,,0,,,75,0
89280,note_on,240,0,1,,,,,,,,,,,,,,,0,,,69,0
89280,note_on,0,0,2,,,,,,,,,,,,,,,0,,,59,53
89280,note_on,240,0,2,,,,,,,,,,,,,,,0,,,66,0
89280,note_on,0,0,2,,,,,,,,,,,,,,,0,,,59,0
89280,note_on,0,0,2,,,,,,,,,,,,,,,0,,,64,53
89280,note_on,0,0,1,,,,,,,,,,,,,,,0,,,76,51
89280,note_on,0,0,2,,,,,,,,,,,,,,,0,,,52,53
89280,note_on,0,0,1,,,,,,,,,,,,,,,0,,,68,51
89400,note_on,0,0,1,,,,,,,,,,,,,,,0,,,73,51
89400,note_on,0,0,1,,,,,,,,,,,,,,,0,,,69,51
89400,note_on,0,0,1,,,,,,,,,,,,,,,0,,,68,0
89400,note_on,120,0,1,,,,,,,,,,,,,,,0,,,76,0
89520,note_on,0,0,1,,,,,,,,,,,,,,,0,,,71,50
89520,note_on,120,0,1,,,,,,,,,,,,,,,0,,,73,0
89520,set_tempo,480,1,0,,,,,,,,,,,,689655,,,,,,,
89520,note_on,0,0,1,,,,,,,,,,,,,,,0,,,68,50
89520,note_on,0,0,1,,,,,,,,,,,,,,,0,,,69,0
89520,note_on,240,0,2,,,,,,,,,,,,,,,0,,,52,0
89520,note_on,0,0,2,,,,,,,,,,,,,,,0,,,59,0
89520,note_on,0,0,2,,,,,,,,,,,,,,,0,,,64,0
89520,note_on,0,0,2,,,,,,,,,,,,,,,0,,,64,53
89520,note_on,0,0,2,,,,,,,,,,,,,,,0,,,59,53
89520,note_on,0,0,2,,,,,,,,,,,,,,,0,,,52,53
90000,note_on,0,0,2,,,,,,,,,,,,,,,0,,,52,47
90000,note_on,0,0,2,,,,,,,,,,,,,,,0,,,59,0
90000,note_on,480,0,1,,,,,,,,,,,,,,,0,,,71,0
90000,note_on,0,0,1,,,,,,,,,,,,,,,0,,,68,0
90000,note_on,0,0,1,,,,,,,,,,,,,,,0,,,59,47
90000,note_on,0,0,1,,,,,,,,,,,,,,,0,,,68,47
90000,note_on,0,0,1,,,,,,,,,,,,,,,0,,,64,47
90000,note_on,480,0,2,,,,,,,,,,,,,,,0,,,64,0
90000,note_on,0,0,2,,,,,,,,,,,,,,,0,,,40,47
90000,note_on,0,0,2,,,,,,,,,,,,,,,0,,,52,0
90240,note_on,0,0,1,,,,,,,,,,,,,,,0,,,68,0
90240,note_on,0,0,1,,,,,,,,,,,,,,,0,,,68,60
90240,note_on,0,0,1,,,,,,,,,,,,,,,0,,,59,0
90240,note_on,0,0,1,,,,,,,,,,,,,,,0,,,64,60
90240,note_on,240,0,1,,,,,,,,,,,,,,,0,,,64,0
90240,note_on,0,0,2,,,,,,,,,,,,,,,0,,,52,56
90240,note_on,0,0,1,,,,,,,,,,,,,,,0,,,59,60
90240,note_on,0,0,2,,,,,,,,,,,,,,,0,,,40,56
90240,note_on,0,0,2,,,,,,,,,,,,,,,0,,,40,0
90240,note_on,240,0,2,,,,,,,,,,,,,,,0,,,52,0
90360,note_on,0,0,1,,,,,,,,,,,,,,,0,,,69,60
90360,note_on,120,0,1,,,,,,,,,,,,,,,0,,,68,0
90480,note_on,240,0,2,,,,,,,,,,,,,,,0,,,52,0
90480,note_on,0,0,2,,,,,,,,,,,,,,,0,,,35,61
90480,note_on,0,0,2,,,,,,,,,,,,,,,0,,,40,0
90480,set_tempo,960,1,0,,,,,,,,,,,,701754,,,,,,,
90480,note_on,0,0,1,,,,,,,,,,,,,,,0,,,66,65
90480,note_on,0,0,1,,,,,,,,,,,,,,,0,,,63,65
90480,note_on,0,0,1,,,,,,,,,,,,,,,0,,,59,65
90480,note_on,0,0,1,,,,,,,,,,,,,,,0,,,59,0
90480,note_on,120,0,1,,,,,,,,,,,,,,,0,,,69,0
90480,note_on,0,0,2,,,,,,,,,,,,,,,0,,,47,61
90480,note_on,0,0,1,,,,,,,,,,,,,,,0,,,64,0
90960,note_on,0,0,2,,,,,,,,,,,,,,,0,,,52,59
90960,note_on,480,0,1,,,,,,,,,,,,,,,0,,,66,0
90960,note_on,0,0,1,,,,,,,,,,,,,,,0,,,63,0
90960,note_on,0,0,1,,,,,,,,,,,,,,,0,,,59,0
90960,note_on,0,0,1,,,,,,,,,,,,,,,0,,,64,55
90960,note_on,0,0,1,,,,,,,,,,,,,,,0,,,68,55
90960,note_on,480,0,2,,,,,,,,,,,,,,,0,,,47,0
90960,set_tempo,480,1,0,,,,,,,,,,,,681818,,,,,,,
90960,note_on,0,0,2,,,,,,,,,,,,,,,0,,,35,0
90960,note_on,0,0,2,,,,,,,,,,,,,,,0,,,40,59
90960,note_on,0,0,1,,,,,,,,,,,,,,,0,,,59,55
91200,note_on,0,0,1,,,,,,,,,,,,,,,0,,,59,62
91200,note_on,0,0,1,,,,,,,,,,,,,,,0,,,64,0
91200,note_on,0,0,1,,,,,,,,,,,,,,,0,,,59,0
91200,note_on,0,0,1,,,,,,,,,,,,,,,0,,,64,62
91200,note_on,0,0,1,,,,,,,,,,,,,,,0,,,68,62
91200,note_on,240,0,2,,,,,,,,,,,,,,,0,,,52,0
91200,note_on,0,0,2,,,,,,,,,,,,,,,0,,,40,0
91200,note_on,0,0,2,,,,,,,,,,,,,,,0,,,40,64
91200,note_on,0,0,2,,,,,,,,,,,,,,,0,,,52,64
91200,note_on,240,0,1,,,,,,,,,,,,,,,0,,,68,0
91320,note_on,120,0,1,,,,,,,,,,,,,,,0,,,68,0
91320,note_on,0,0,1,,,,,,,,,,,,,,,0,,,69,62
91440,note_on,0,0,2,,,,,,,,,,,,,,,0,,,35,67
91440,set_tempo,480,1,0,,,,,,,,,,,,697674,,,,,,,
91440,note_on,0,0,2,,,,,,,,,,,,,,,0,,,47,67
91440,note_on,0,0,2,,,,,,,,,,,,,,,0,,,40,0
91440,note_on,0,0,1,,,,,,,,,,,,,,,0,,,63,67
91440,note_on,240,0,2,,,,,,,,,,,,,,,0,,,52,0
91440,note_on,0,0,1,,,,,,,,,,,,,,,0,,,64,0
91440,note_on,0,0,1,,,,,,,,,,,,,,,0,,,59,0
91440,note_on,0,0,1,,,,,,,,,,,,,,,0,,,59,67
91440,note_on,0,0,1,,,,,,,,,,,,,,,0,,,66,67
91440,note_on,120,0,1,,,,,,,,,,,,,,,0,,,69,0
91920,note_on,0,0,1,,,,,,,,,,,,,,,0,,,63,0
91920,note_on,0,0,1,,,,,,,,,,,,,,,0,,,59,0
91920,note_on,0,0,1,,,,,,,,,,,,,,,0,,,59,61
91920,note_on,0,0,1,,,,,,,,,,,,,,,0,,,64,61
91920,note_on,0,0,2,,,,,,,,,,,,,,,0,,,52,64
91920,note_on,0,0,2,,,,,,,,,,,,,,,0,,,40,64
91920,note_on,0,0,2,,,,,,,,,,,,,,,0,,,35,0
91920,note_on,480,0,2,,,,,,,,,,,,,,,0,,,47,0
91920,note_on,480,0,1,,,,,,,,,,,,,,,0,,,66,0
91920,note_on,0,0,1,,,,,,,,,,,,,,,0,,,68,61
92160,note_on,0,0,1,,,,,,,,,,,,,,,0,,,64,0
92160,note_on,0,0,1,,,,,,,,,,,,,,,0,,,66,67
92160,set_tempo,720,1,0,,,,,,,,,,,,779221,,,,,,,
92160,note_on,0,0,1,,,,,,,,,,,,,,,0,,,59,0
92160,note_on,0,0,1,,,,,,,,,,,,,,,0,,,59,67
92160,note_on,0,0,1,,,,,,,,,,,,,,,0,,,63,67
92160,note_on,240,0,1,,,,,,,,,,,,,,,0,,,68,0
92160,note_on,0,0,2,,,,,,,,,,,,,,,0,,,35,69
92160,note_on,0,0,2,,,,,,,,,,,,,,,0,,,47,69
92160,note_on,0,0,2,,,,,,,,,,,,,,,0,,,40,0
92160,note_on,240,0,2,,,,,,,,,,,,,,,0,,,52,0
92280,note_on,0,0,1,,,,,,,,,,,,,,,0,,,68,67
92280,note_on,120,0,1,,,,,,,,,,,,,,,0,,,66,0
92400,set_tempo,240,1,0,,,,,,,,,,,,800000,,,,,,,
92400,note_on,0,0,1,,,,,,,,,,,,,,,0,,,64,72
92400,note_on,0,0,1,,,,,,,,,,,,,,,0,,,61,72
92400,note_on,0,0,1,,,,,,,,,,,,,,,0,,,56,72
92400,note_on,0,0,1,,,,,,,,,,,,,,,0,,,59,0
92400,note_on,0,0,1,,,,,,,,,,,,,,,0,,,63,0
92400,note_on,240,0,2,,,,,,,,,,,,,,,0,,,47,0
92400,note_on,0,0,2,,,,,,,,,,,,,,,0,,,35,0
92400,note_on,0,0,2,,,,,,,,,,,,,,,0,,,37,73
92400,note_on,0,0,2,,,,,,,,,,,,,,,0,,,49,73
92400,note_on,120,0,1,,,,,,,,,,,,,,,0,,,68,0
92860,set_tempo,460,1,0,,,,,,,,,,,,794702,,,,,,,
92880,note_on,480,0,1,,,,,,,,,,,,,,,0,,,64,0
92880,note_on,0,0,1,,,,,,,,,,,,,,,0,,,61,0
92880,note_on,0,0,1,,,,,,,,,,,,,,,0,,,56,0
92880,note_on,0,0,1,,,,,,,,,,,,,,,0,,,63,72
92880,note_on,0,0,2,,,,,,,,,,,,,,,0,,,30,72
92880,note_on,0,0,2,,,,,,,,,,,,,,,0,,,57,72
92880,note_on,0,0,2,,,,,,,,,,,,,,,0,,,54,72
92880,note_on,0,0,2,,,,,,,,,,,,,,,0,,,42,72
92880,note_on,0,0,2,,,,,,,,,,,,,,,0,,,37,0
92880,note_on,480,0,2,,,,,,,,,,,,,,,0,,,49,0
92900,set_tempo,40,1,0,,,,,,,,,,,,800000,,,,,,,
92940,set_tempo,40,1,0,,,,,,,,,,,,805369,,,,,,,
92980,set_tempo,40,1,0,,,,,,,,,,,,810811,,,,,,,
93000,note_on,0,0,1,,,,,,,,,,,,,,,0,,,61,70
93000,note_on,120,0,1,,,,,,,,,,,,,,,0,,,63,0
93020,set_tempo,40,1,0,,,,,,,,,,,,816327,,,,,,,
93060,set_tempo,40,1,0,,,,,,,,,,,,821918,,,,,,,
93100,set_tempo,40,1,0,,,,,,,,,,,,827586,,,,,,,
93120,note_on,0,0,2,,,,,,,,,,,,,,,0,,,44,72
93120,note_on,0,0,2,,,,,,,,,,,,,,,0,,,32,72
93120,note_on,0,0,2,,,,,,,,,,,,,,,0,,,54,72
93120,note_on,0,0,2,,,,,,,,,,,,,,,0,,,57,0
93120,note_on,240,0,2,,,,,,,,,,,,,,,0,,,42,0
93120,note_on,120,0,1,,,,,,,,,,,,,,,0,,,61,0
93120,note_on,0,0,1,,,,,,,,,,,,,,,0,,,60,72
93120,note_on,0,0,2,,,,,,,,,,,,,,,0,,,30,0
93120,note_on,0,0,2,,,,,,,,,,,,,,,0,,,54,0
93140,set_tempo,40,1,0,,,,,,,,,,,,833333,,,,,,,
93180,set_tempo,40,1,0,,,,,,,,,,,,839161,,,,,,,
93220,set_tempo,40,1,0,,,,,,,,,,,,845070,,,,,,,
93240,note_on,120,0,1,,,,,,,,,,,,,,,0,,,60,0
93240,note_on,0,0,1,,,,,,,,,,,,,,,0,,,63,70
93260,set_tempo,40,1,0,,,,,,,,,,,,851064,,,,,,,
93300,set_tempo,40,1,0,,,,,,,,,,,,857143,,,,,,,
93320,set_tempo,20,1,0,,,,,,,,,,,,863309,,,,,,,
93340,set_tempo,20,1,0,,,,,,,,,,,,895522,,,,,,,
93360,note_on,0,0,2,,,,,,,,,,,,,,,0,,,44,69
93360,note_on,0,0,2,,,,,,,,,,,,,,,0,,,37,69
93360,note_on,0,0,2,,,,,,,,,,,,,,,0,,,53,69
93360,note_on,0,0,2,,,,,,,,,,,,,,,0,,,54,0
93360,note_on,240,0,2,,,,,,,,,,,,,,,0,,,44,0
93360,note_on,0,0,1,,,,,,,,,,,,,,,0,,,61,66
93360,note_on,120,0,1,,,,,,,,,,,,,,,0,,,63,0
93360,note_on,0,0,2,,,,,,,,,,,,,,,0,,,32,0
93360,set_tempo,20,1,0,,,,,,,,,,,,952381,,,,,,,
93800,note_on,0,0,2,,,,,,,,,,,,,,,0,,,53,0
93800,note_on,0,0,2,,,,,,,,,,,,,,,0,,,37,0
93800,note_on,440,0,2,,,,,,,,,,,,,,,0,,,44,0
93800,note_on,440,0,1,,,,,,,,,,,,,,,0,,,61,0
93840,note_on,0,0,2,,,,,,,,,,,,,,,0,,,61,28
93840,note_on,40,0,2,,,,,,,,,,,,,,,0,,,56,28
93840,set_tempo,480,1,0,,,,,,,,,,,,888889,,,,,,,
93840,note_on,0,0,1,,,,,,,,,,,,,,,0,,,73,40
93840,note_on,40,0,1,,,,,,,,,,,,,,,0,,,65,40
94080,note_on,0,0,2,,,,,,,,,,,,,,,0,,,56,29
94080,note_on,0,0,2,,,,,,,,,,,,,,,0,,,60,29
94080,note_on,0,0,2,,,,,,,,,,,,,,,0,,,56,0
94080,note_on,240,0,2,,,,,,,,,,,,,,,0,,,61,0
94080,note_on,0,0,1,,,,,,,,,,,,,,,0,,,65,0
94080,note_on,240,0,1,,,,,,,,,,,,,,,0,,,73,0
94080,note_on,0,0,1,,,,,,,,,,,,,,,0,,,66,42
94080,note_on,0,0,1,,,,,,,,,,,,,,,0,,,74,42
94200,note_on,0,0,1,,,,,,,,,,,,,,,0,,,77,42
94200,note_on,120,0,1,,,,,,,,,,,,,,,0,,,74,0
94320,note_on,0,0,2,,,,,,,,,,,,,,,0,,,60,28
94320,note_on,0,0,2,,,,,,,,,,,,,,,0,,,56,28
94320,note_on,0,0,1,,,,,,,,,,,,,,,0,,,75,40
94320,note_on,0,0,1,,,,,,,,,,,,,,,0,,,66,40
94320,note_on,0,0,1,,,,,,,,,,,,,,,0,,,66,0
94320,note_on,0,0,2,,,,,,,,,,,,,,,0,,,60,0
94320,note_on,240,0,2,,,,,,,,,,,,,,,0,,,56,0
94320,set_tempo,480,1,0,,,,,,,,,,,,810811,,,,,,,
94320,note_on,120,0,1,,,,,,,,,,,,,,,0,,,77,0
94800,note_on,0,0,2,,,,,,,,,,,,,,,0,,,60,0
94800,note_on,480,0,2,,,,,,,,,,,,,,,0,,,56,0
94800,note_on,0,0,2,,,,,,,,,,,,,,,0,,,60,24
94800,note_on,0,0,2,,,,,,,,,,,,,,,0,,,56,24
94800,note_on,0,0,1,,,,,,,,,,,,,,,0,,,66,0
94800,note_on,0,0,1,,,,,,,,,,,,,,,0,,,66,34
94800,note_on,480,0,1,,,,,,,,,,,,,,,0,,,75,0
94800,set_tempo,480,1,0,,,,,,,,,,,,779221,,,,,,,
94800,note_on,0,0,1,,,,,,,,,,,,,,,0,,,63,34
95040,note_on,0,0,1,,,,,,,,,,,,,,,0,,,61,37
95040,note_on,240,0,1,,,,,,,,,,,,,,,0,,,66,0
95040,note_on,0,0,1,,,,,,,,,,,,,,,0,,,65,37
95040,note_on,240,0,2,,,,,,,,,,,,,,,0,,,56,0
95040,note_on,0,0,2,,,,,,,,,,,,,,,0,,,60,0
95040,note_on,0,0,2,,,,,,,,,,,,,,,0,,,61,26
95040,note_on,0,0,2,,,,,,,,,,,,,,,0,,,56,26
95040,note_on,0,0,1,,,,,,,,,,,,,,,0,,,63,0
95160,note_on,0,0,1,,,,,,,,,,,,,,,0,,,63,37
95160,note_on,0,0,1,,,,,,,,,,,,,,,0,,,66,37
95160,note_on,120,0,1,,,,,,,,,,,,,,,0,,,65,0
95160,note_on,0,0,1,,,,,,,,,,,,,,,0,,,61,0
95280,set_tempo,480,1,0,,,,,,,,,,,,800000,,,,,,,
95280,note_on,120,0,1,,,,,,,,,,,,,,,0,,,66,0
95280,note_on,0,0,1,,,,,,,,,,,,,,,0,,,63,0
95280,note_on,0,0,1,,,,,,,,,,,,,,,0,,,65,40
95280,note_on,0,0,2,,,,,,,,,,,,,,,0,,,61,0
95280,note_on,0,0,1,,,,,,,,,,,,,,,0,,,68,40
95280,note_on,0,0,2,,,,,,,,,,,,,,,0,,,56,28
95280,note_on,240,0,2,,,,,,,,,,,,,,,0,,,56,0
95280,note_on,0,0,2,,,,,,,,,,,,,,,0,,,61,28
95760,set_tempo,480,1,0,,,,,,,,,,,,779221,,,,,,,
95760,note_on,0,0,1,,,,,,,,,,,,,,,0,,,65,38
95760,note_on,0,0,1,,,,,,,,,,,,,,,0,,,65,0
95760,note_on,480,0,2,,,,,,,,,,,,,,,0,,,56,0
95760,note_on,0,0,1,,,,,,,,,,,,,,,0,,,73,38
95760,note_on,0,0,2,,,,,,,,,,,,,,,0,,,61,26
95760,note_on,480,0,1,,,,,,,,,,,,,,,0,,,68,0
95760,note_on,0,0,2,,,,,,,,,,,,,,,0,,,56,26
95760,note_on,0,0,2,,,,,,,,,,,,,,,0,,,61,0
96000,note_on,240,0,2,,,,,,,,,,,,,,,0,,,56,0
96000,note_on,0,0,1,,,,,,,,,,,,,,,0,,,74,40
96000,note_on,0,0,1,,,,,,,,,,,,,,,0,,,66,40
96000,note_on,0,0,1,,,,,,,,,,,,,,,0,,,73,0
96000,note_on,240,0,1,,,,,,,,,,,,,,,0,,,65,0
96000,note_on,0,0,2,,,,,,,,,,,,,,,0,,,56,28
96000,note_on,0,0,2,,,,,,,,,,,,,,,0,,,60,28
96000,note_on,0,0,2,,,,,,,,,,,,,,,0,,,61,0
96120,note_on,0,0,1,,,,,,,,,,,,,,,0,,,77,40
96120,note_on,120,0,1,,,,,,,,,,,,,,,0,,,74,0
96240,note_on,120,0,1,,,,,,,,,,,,,,,0,,,77,0
96240,note_on,0,0,1,,,,,,,,,,,,,,,0,,,66,0
96240,note_on,0,0,1,,,,,,,,,,,,,,,0,,,66,38
96240,note_on,0,0,1,,,,,,,,,,,,,,,0,,,75,38
96240,note_on,240,0,2,,,,,,,,,,,,,,,0,,,56,0
96240,note_on,0,0,2,,,,,,,,,,,,,,,0,,,60,0
96240,set_tempo,480,1,0,,,,,,,,,,,,810811,,,,,,,
96240,note_on,0,0,2,,,,,,,,,,,,,,,0,,,60,25
96240,note_on,0,0,2,,,,,,,,,,,,,,,0,,,56,25
96720,set_tempo,480,1,0,,,,,,,,,,,,930233,,,,,,,
96720,note_on,0,0,1,,,,,,,,,,,,,,,0,,,77,32
96720,note_on,0,0,1,,,,,,,,,,,,,,,0,,,66,0
96720,note_on,480,0,1,,,,,,,,,,,,,,,0,,,75,0
96720,note_on,0,0,1,,,,,,,,,,,,,,,0,,,71,32
96720,note_on,0,0,2,,,,,,,,,,,,,,,0,,,62,25
96720,note_on,0,0,2,,,,,,,,,,,,,,,0,,,60,0
96720,note_on,480,0,2,,,,,,,,,,,,,,,0,,,56,0
96720,note_on,0,0,2,,,,,,,,,,,,,,,0,,,56,25
96960,note_on,240,0,2,,,,,,,,,,,,,,,0,,,56,0
96960,set_tempo,240,1,0,,,,,,,,,,,,1132075,,,,,,,
96960,note_on,0,0,2,,,,,,,,,,,,,,,0,,,56,26
96960,note_on,0,0,2,,,,,,,,,,,,,,,0,,,63,26
96960,note_on,0,0,1,,,,,,,,,,,,,,,0,,,77,35
96960,note_on,0,0,1,,,,,,,,,,,,,,,0,,,72,35
96960,note_on,240,0,1,,,,,,,,,,,,,,,0,,,77,0
96960,note_on,0,0,2,,,,,,,,,,,,,,,0,,,62,0
96960,note_on,0,0,1,,,,,,,,,,,,,,,0,,,71,0
97080,note_on,120,0,1,,,,,,,,,,,,,,,0,,,77,0
97080,note_on,0,0,1,,,,,,,,,,,,,,,0,,,80,35
97200,note_on,0,0,2,,,,,,,,,,,,,,,0,,,63,23
97200,note_on,240,0,2,,,,,,,,,,,,,,,0,,,56,0
97200,note_on,0,0,2,,,,,,,,,,,,,,,0,,,56,23
97200,note_on,0,0,1,,,,,,,,,,,,,,,0,,,72,0
97200,note_on,0,0,1,,,,,,,,,,,,,,,0,,,72,32
97200,note_on,120,0,1,,,,,,,,,,,,,,,0,,,80,0
97200,note_on,0,0,2,,,,,,,,,,,,,,,0,,,63,0
97200,note_on,0,0,1,,,,,,,,,,,,,,,0,,,78,32
97200,set_tempo,240,1,0,,,,,,,,,,,,1714286,,,,,,,
97920,note_on,720,0,1,,,,,,,,,,,,,,,0,,,78,0
97920,control_change,0,0,1,,,,,,,,,,,,,,,0,91,127,,
97920,note_on,0,0,1,,,,,,,,,,,,,,,0,,,72,0
97920,control_change,0,0,2,,,,,,,,,,,,,,,0,91,127,,
97920,note_on,0,0,2,,,,,,,,,,,,,,,0,,,61,16
97920,note_on,0,0,2,,,,,,,,,,,,,,,0,,,56,16
97920,note_on,0,0,2,,,,,,,,,,,,,,,0,,,49,16
97920,note_on,0,0,2,,,,,,,,,,,,,,,0,,,63,0
97920,note_on,720,0,2,,,,,,,,,,,,,,,0,,,56,0
97920,set_tempo,720,1,0,,,,,,,,,,,,810811,,,,,,,
97920,note_on,0,0,1,,,,,,,,,,,,,,,0,,,65,29
98040,set_tempo,120,1,0,,,,,,,,,,,,875912,,,,,,,
98040,note_on,0,0,1,,,,,,,,,,,,,,,0,,,68,29
98040,note_on,120,0,1,,,,,,,,,,,,,,,0,,,65,0
98160,note_on,0,0,2,,,,,,,,,,,,,,,0,,,56,18
98160,note_on,120,0,1,,,,,,,,,,,,,,,0,,,68,0
98160,note_on,0,0,1,,,,,,,,,,,,,,,0,,,66,27
98160,set_tempo,120,1,0,,,,,,,,,,,,839161,,,,,,,
98160,note_on,0,0,1,,,,,,,,,,,,,,,0,,,70,27
98160,note_on,240,0,2,,,,,,,,,,,,,,,0,,,61,0
98160,note_on,0,0,2,,,,,,,,,,,,,,,0,,,56,0
98160,note_on,0,0,2,,,,,,,,,,,,,,,0,,,49,0
98160,note_on,0,0,2,,,,,,,,,,,,,,,0,,,49,18
98160,note_on,0,0,2,,,,,,,,,,,,,,,0,,,61,18
98640,note_on,0,0,2,,,,,,,,,,,,,,,0,,,61,15
98640,note_on,0,0,2,,,,,,,,,,,,,,,0,,,56,15
98640,note_on,0,0,2,,,,,,,,,,,,,,,0,,,49,15
98640,note_on,0,0,2,,,,,,,,,,,,,,,0,,,49,0
98640,note_on,0,0,2,,,,,,,,,,,,,,,0,,,56,0
98640,note_on,480,0,2,,,,,,,,,,,,,,,0,,,61,0
98640,note_on,480,0,1,,,,,,,,,,,,,,,0,,,70,0
98640,note_on,0,0,1,,,,,,,,,,,,,,,0,,,68,25
98640,set_tempo,480,1,0,,,,,,,,,,,,800000,,,,,,,
98640,note_on,0,0,1,,,,,,,,,,,,,,,0,,,65,25
98640,note_on,0,0,1,,,,,,,,,,,,,,,0,,,66,0
98820,note_on,180,0,1,,,,,,,,,,,,,,,0,,,68,0
98820,note_on,0,0,1,,,,,,,,,,,,,,,0,,,65,0
98820,note_on,180,0,2,,,,,,,,,,,,,,,0,,,61,0
98820,note_on,0,0,2,,,,,,,,,,,,,,,0,,,56,0
98820,note_on,0,0,2,,,,,,,,,,,,,,,0,,,49,0
98880,set_tempo,240,1,0,,,,,,,,,,,,779221,,,,,,,
98880,note_on,0,0,2,,,,,,,,,,,,,,,0,,,56,18
98880,note_on,60,0,1,,,,,,,,,,,,,,,0,,,65,29
98880,note_on,60,0,2,,,,,,,,,,,,,,,0,,,49,18
98880,note_on,0,0,2,,,,,,,,,,,,,,,0,,,61,18
99000,note_on,0,0,1,,,,,,,,,,,,,,,0,,,68,29
99000,note_on,120,0,1,,,,,,,,,,,,,,,0,,,65,0
99120,note_on,0,0,2,,,,,,,,,,,,,,,0,,,49,0
99120,note_on,0,0,1,,,,,,,,,,,,,,,0,,,66,26
99120,note_on,120,0,1,,,,,,,,,,,,,,,0,,,68,0
99120,set_tempo,240,1,0,,,,,,,,,,,,839161,,,,,,,
99120,note_on,0,0,1,,,,,,,,,,,,,,,0,,,70,26
99120,note_on,240,0,2,,,,,,,,,,,,,,,0,,,61,0
99120,note_on,0,0,2,,,,,,,,,,,,,,,0,,,61,18
99120,note_on,0,0,2,,,,,,,,,,,,,,,0,,,56,18
99120,note_on,0,0,2,,,,,,,,,,,,,,,0,,,49,18
99120,note_on,0,0,2,,,,,,,,,,,,,,,0,,,56,0
99120,note_on,0,0,1,,,,,,,,,,,,,,,0,,,73,26
99600,note_on,0,0,2,,,,,,,,,,,,,,,0,,,61,16
99600,note_on,0,0,2,,,,,,,,,,,,,,,0,,,56,16
99600,note_on,0,0,2,,,,,,,,,,,,,,,0,,,49,16
99600,note_on,0,0,2,,,,,,,,,,,,,,,0,,,49,0
99600,note_on,0,0,2,,,,,,,,,,,,,,,0,,,56,0
99600,note_on,480,0,2,,,,,,,,,,,,,,,0,,,61,0
99600,note_on,0,0,1,,,,,,,,,,,,,,,0,,,65,24
99600,set_tempo,480,1,0,,,,,,,,,,,,779221,,,,,,,
99600,note_on,480,0,1,,,,,,,,,,,,,,,0,,,73,0
99600,note_on,0,0,1,,,,,,,,,,,,,,,0,,,70,0
99600,note_on,0,0,1,,,,,,,,,,,,,,,0,,,66,0
99600,note_on,0,0,1,,,,,,,,,,,,,,,0,,,68,24
99780,note_on,180,0,1,,,,,,,,,,,,,,,0,,,68,0
99780,note_on,0,0,1,,,,,,,,,,,,,,,0,,,65,0
99780,note_on,0,0,2,,,,,,,,,,,,,,,0,,,49,0
99780,note_on,0,0,2,,,,,,,,,,,,,,,0,,,56,0
99780,note_on,180,0,2,,,,,,,,,,,,,,,0,,,61,0
99840,note_on,0,0,1,,,,,,,,,,,,,,,0,,,68,30
99840,note_on,60,0,1,,,,,,,,,,,,,,,0,,,65,30
99840,set_tempo,240,1,0,,,,,,,,,,,,754717,,,,,,,
99840,note_on,60,0,2,,,,,,,,,,,,,,,0,,,56,20
99840,note_on,0,0,2,,,,,,,,,,,,,,,0,,,60,20
99960,note_on,0,0,1,,,,,,,,,,,,,,,0,,,62,30
99960,note_on,120,0,1,,,,,,,,,,,,,,,0,,,68,0
99960,note_on,0,0,1,,,,,,,,,,,,,,,0,,,65,0
100080,note_on,240,0,2,,,,,,,,,,,,,,,0,,,60,0
100080,note_on,0,0,2,,,,,,,,,,,,,,,0,,,56,0
100080,note_on,0,0,2,,,,,,,,,,,,,,,0,,,56,22
100080,note_on,0,0,2,,,,,,,,,,,,,,,0,,,60,22
100080,note_on,120,0,1,,,,,,,,,,,,,,,0,,,62,0
100080,note_on,0,0,1,,,,,,,,,,,,,,,0,,,63,31
100080,note_on,0,0,1,,,,,,,,,,,,,,,0,,,66,31
100080,set_tempo,240,1,0,,,,,,,,,,,,779221,,,,,,,
100560,note_on,0,0,2,,,,,,,,,,,,,,,0,,,60,20
100560,note_on,0,0,2,,,,,,,,,,,,,,,0,,,56,20
100560,note_on,0,0,2,,,,,,,,,,,,,,,0,,,56,0
100560,note_on,480,0,2,,,,,,,,,,,,,,,0,,,60,0
100560,note_on,480,0,1,,,,,,,,,,,,,,,0,,,66,0
100560,note_on,0,0,1,,,,,,,,,,,,,,,0,,,66,29
100560,note_on,0,0,1,,,,,,,,,,,,,,,0,,,75,29
100560,set_tempo,480,1,0,,,,,,,,,,,,759494,,,,,,,
100560,note_on,0,0,1,,,,,,,,,,,,,,,0,,,63,0
100800,note_on,0,0,1,,,,,,,,,,,,,,,0,,,66,0
100800,note_on,0,0,2,,,,,,,,,,,,,,,0,,,61,20
100800,note_on,0,0,2,,,,,,,,,,,,,,,0,,,56,20
100800,note_on,0,0,2,,,,,,,,,,,,,,,0,,,49,20
100800,note_on,0,0,2,,,,,,,,,,,,,,,0,,,56,0
100800,note_on,0,0,1,,,,,,,,,,,,,,,0,,,68,33
100800,note_on,240,0,2,,,,,,,,,,,,,,,0,,,60,0
100800,note_on,0,0,1,,,,,,,,,,,,,,,0,,,77,33
100800,note_on,240,0,1,,,,,,,,,,,,,,,0,,,75,0
100920,note_on,0,0,1,,,,,,,,,,,,,,,0,,,66,30
100920,note_on,0,0,1,,,,,,,,,,,,,,,0,,,75,30
100920,note_on,0,0,1,,,,,,,,,,,,,,,0,,,68,0
100920,note_on,120,0,1,,,,,,,,,,,,,,,0,,,77,0
101040,note_on,120,0,1,,,,,,,,,,,,,,,0,,,75,0
101040,note_on,0,0,1,,,,,,,,,,,,,,,0,,,73,32
101040,note_on,0,0,1,,,,,,,,,,,,,,,0,,,66,0
101040,note_on,0,0,2,,,,,,,,,,,,,,,0,,,56,0
101040,note_on,0,0,2,,,,,,,,,,,,,,,0,,,49,0
101040,note_on,0,0,2,,,,,,,,,,,,,,,0,,,49,21
101040,note_on,0,0,2,,,,,,,,,,,,,,,0,,,56,21
101040,note_on,0,0,2,,,,,,,,,,,,,,,0,,,61,21
101040,note_on,0,0,1,,,,,,,,,,,,,,,0,,,65,32
101040,note_on,240,0,2,,,,,,,,,,,,,,,0,,,61,0
101040,set_tempo,480,1,0,,,,,,,,,,,,794702,,,,,,,
101520,note_on,0,0,2,,,,,,,,,,,,,,,0,,,61,18
101520,note_on,0,0,2,,,,,,,,,,,,,,,0,,,56,18
101520,note_on,0,0,2,,,,,,,,,,,,,,,0,,,49,18
101520,note_on,0,0,2,,,,,,,,,,,,,,,0,,,49,0
101520,note_on,0,0,2,,,,,,,,,,,,,,,0,,,56,0
101520,note_on,480,0,2,,,,,,,,,,,,,,,0,,,61,0
101520,set_tempo,480,1,0,,,,,,,,,,,,779221,,,,,,,
101520,note_on,480,0,1,,,,,,,,,,,,,,,0,,,73,0
101520,note_on,0,0,1,,,,,,,,,,,,,,,0,,,65,0
101520,note_on,0,0,1,,,,,,,,,,,,,,,0,,,65,27
101520,note_on,0,0,1,,,,,,,,,,,,,,,0,,,68,27
101700,note_on,180,0,1,,,,,,,,,,,,,,,0,,,68,0
101700,note_on,0,0,1,,,,,,,,,,,,,,,0,,,65,0
101700,note_on,0,0,2,,,,,,,,,,,,,,,0,,,56,0
101700,note_on,180,0,2,,,,,,,,,,,,,,,0,,,61,0
101700,note_on,0,0,2,,,,,,,,,,,,,,,0,,,49,0
101760,note_on,0,0,2,,,,,,,,,,,,,,,0,,,61,18
101760,note_on,0,0,1,,,,,,,,,,,,,,,0,,,65,29
101760,set_tempo,240,1,0,,,,,,,,,,,,779221,,,,,,,
101760,note_on,60,0,2,,,,,,,,,,,,,,,0,,,49,18
101760,control_change,0,0,2,,,,,,,,,,,,,,,0,91,127,,
101760,note_on,0,0,2,,,,,,,,,,,,,,,0,,,56,18
101760,control_change,60,0,1,,,,,,,,,,,,,,,0,91,127,,
101880,note_on,120,0,1,,,,,,,,,,,,,,,0,,,65,0
101880,note_on,0,0,1,,,,,,,,,,,,,,,0,,,68,29
102000,note_on,0,0,2,,,,,,,,,,,,,,,0,,,56,19
102000,note_on,0,0,1,,,,,,,,,,,,,,,0,,,66,26
102000,note_on,240,0,2,,,,,,,,,,,,,,,0,,,61,0
102000,note_on,0,0,1,,,,,,,,,,,,,,,0,,,70,26
102000,set_tempo,240,1,0,,,,,,,,,,,,805369,,,,,,,
102000,note_on,120,0,1,,,,,,,,,,,,,,,0,,,68,0
102000,note_on,0,0,2,,,,,,,,,,,,,,,0,,,56,0
102000,note_on,0,0,2,,,,,,,,,,,,,,,0,,,61,19
102000,note_on,0,0,2,,,,,,,,,,,,,,,0,,,49,19
102000,note_on,0,0,2,,,,,,,,,,,,,,,0,,,49,0
102480,set_tempo,480,1,0,,,,,,,,,,,,779221,,,,,,,
102480,note_on,480,0,2,,,,,,,,,,,,,,,0,,,61,0
102480,note_on,0,0,2,,,,,,,,,,,,,,,0,,,56,0
102480,note_on,0,0,2,,,,,,,,,,,,,,,0,,,49,0
102480,note_on,0,0,2,,,,,,,,,,,,,,,0,,,49,17
102480,note_on,0,0,1,,,,,,,,,,,,,,,0,,,65,26
102480,note_on,0,0,1,,,,,,,,,,,,,,,0,,,66,0
102480,note_on,0,0,1,,,,,,,,,,,,,,,0,,,68,26
102480,note_on,0,0,2,,,,,,,,,,,,,,,0,,,56,17
102480,note_on,0,0,2,,,,,,,,,,,,,,,0,,,61,17
102480,note_on,480,0,1,,,,,,,,,,,,,,,0,,,70,0
102660,note_on,180,0,1,,,,,,,,,,,,,,,0,,,68,0
102660,note_on,0,0,1,,,,,,,,,,,,,,,0,,,65,0
102660,note_on,180,0,2,,,,,,,,,,,,,,,0,,,61,0
102660,note_on,0,0,2,,,,,,,,,,,,,,,0,,,56,0
102660,note_on,0,0,2,,,,,,,,,,,,,,,0,,,49,0
102720,note_on,60,0,2,,,,,,,,,,,,,,,0,,,49,18
102720,note_on,0,0,2,,,,,,,,,,,,,,,0,,,56,18
102720,note_on,60,0,1,,,,,,,,,,,,,,,0,,,65,29
102720,set_tempo,240,1,0,,,,,,,,,,,,779221,,,,,,,
102720,note_on,0,0,2,,,,,,,,,,,,,,,0,,,61,18
102840,note_on,0,0,1,,,,,,,,,,,,,,,0,,,68,29
102840,note_on,120,0,1,,,,,,,,,,,,,,,0,,,65,0
102960,note_on,240,0,2,,,,,,,,,,,,,,,0,,,61,0
102960,set_tempo,240,1,0,,,,,,,,,,,,800000,,,,,,,
102960,note_on,120,0,1,,,,,,,,,,,,,,,0,,,68,0
102960,note_on,0,0,1,,,,,,,,,,,,,,,0,,,70,27
102960,note_on,0,0,1,,,,,,,,,,,,,,,0,,,73,27
102960,note_on,0,0,1,,,,,,,,,,,,,,,0,,,66,27
102960,note_on,0,0,2,,,,,,,,,,,,,,,0,,,56,0
102960,note_on,0,0,2,,,,,,,,,,,,,,,0,,,49,0
102960,note_on,0,0,2,,,,,,,,,,,,,,,0,,,61,18
102960,note_on,0,0,2,,,,,,,,,,,,,,,0,,,49,18
102960,note_on,0,0,2,,,,,,,,,,,,,,,0,,,56,18
103440,note_on,0,0,2,,,,,,,,,,,,,,,0,,,56,0
103440,set_tempo,480,1,0,,,,,,,,,,,,764331,,,,,,,
103440,note_on,480,0,1,,,,,,,,,,,,,,,0,,,73,0
103440,note_on,0,0,1,,,,,,,,,,,,,,,0,,,70,0
103440,note_on,0,0,1,,,,,,,,,,,,,,,0,,,66,0
103440,note_on,0,0,1,,,,,,,,,,,,,,,0,,,65,24
103440,note_on,0,0,1,,,,,,,,,,,,,,,0,,,68,24
103440,note_on,0,0,2,,,,,,,,,,,,,,,0,,,56,17
103440,note_on,0,0,2,,,,,,,,,,,,,,,0,,,49,17
103440,note_on,0,0,2,,,,,,,,,,,,,,,0,,,49,0
103440,note_on,480,0,2,,,,,,,,,,,,,,,0,,,61,0
103440,note_on,0,0,2,,,,,,,,,,,,,,,0,,,61,17
103620,note_on,180,0,1,,,,,,,,,,,,,,,0,,,68,0
103620,note_on,180,0,2,,,,,,,,,,,,,,,0,,,61,0
103620,note_on,0,0,2,,,,,,,,,,,,,,,0,,,56,0
103620,note_on,0,0,2,,,,,,,,,,,,,,,0,,,49,0
103620,note_on,0,0,1,,,,,,,,,,,,,,,0,,,65,0
103680,note_on,60,0,2,,,,,,,,,,,,,,,0,,,56,20
103680,note_on,0,0,2,,,,,,,,,,,,,,,0,,,60,20
103680,note_on,0,0,1,,,,,,,,,,,,,,,0,,,68,30
103680,note_on,60,0,1,,,,,,,,,,,,,,,0,,,65,30
103800,note_on,120,0,1,,,,,,,,,,,,,,,0,,,68,0
103800,note_on,0,0,1,,,,,,,,,,,,,,,0,,,62,30
103800,note_on,0,0,1,,,,,,,,,,,,,,,0,,,65,0
103920,note_on,0,0,1,,,,,,,,,,,,,,,0,,,63,36
103920,set_tempo,480,1,0,,,,,,,,,,,,800000,,,,,,,
103920,note_on,120,0,1,,,,,,,,,,,,,,,0,,,62,0
103920,note_on,0,0,1,,,,,,,,,,,,,,,0,,,66,36
103920,note_on,0,0,2,,,,,,,,,,,,,,,0,,,60,22
103920,note_on,240,0,2,,,,,,,,,,,,,,,0,,,60,0
103920,note_on,0,0,2,,,,,,,,,,,,,,,0,,,56,0
103920,note_on,0,0,2,,,,,,,,,,,,,,,0,,,56,22
104280,note_on,0,0,1,,,,,,,,,,,,,,,0,,,75,29
104280,note_on,0,0,1,,,,,,,,,,,,,,,0,,,63,0
104280,note_on,360,0,1,,,,,,,,,,,,,,,0,,,66,0
104280,note_on,0,0,1,,,,,,,,,,,,,,,0,,,66,29
104280,set_tempo,360,1,0,,,,,,,,,,,,736196,,,,,,,
104400,note_on,0,0,2,,,,,,,,,,,,,,,0,,,60,19
104400,note_on,0,0,2,,,,,,,,,,,,,,,0,,,56,19
104400,note_on,0,0,2,,,,,,,,,,,,,,,0,,,56,0
104400,note_on,480,0,2,,,,,,,,,,,,,,,0,,,60,0
104400,note_on,0,0,1,,,,,,,,,,,,,,,0,,,77,30
104400,note_on,0,0,1,,,,,,,,,,,,,,,0,,,68,30
104400,note_on,0,0,1,,,,,,,,,,,,,,,0,,,66,0
104400,note_on,120,0,1,,,,,,,,,,,,,,,0,,,75,0
104520,note_on,0,0,1,,,,,,,,,,,,,,,0,,,66,29
104520,note_on,0,0,1,,,,,,,,,,,,,,,0,,,75,29
104520,note_on,120,0,1,,,,,,,,,,,,,,,0,,,77,0
104520,note_on,0,0,1,,,,,,,,,,,,,,,0,,,68,0
104640,note_on,120,0,1,,,,,,,,,,,,,,,0,,,75,0
104640,note_on,0,0,1,,,,,,,,,,,,,,,0,,,66,0
104640,note_on,0,0,1,,,,,,,,,,,,,,,0,,,65,30
104640,note_on,0,0,1,,,,,,,,,,,,,,,0,,,73,30
104640,note_on,0,0,2,,,,,,,,,,,,,,,0,,,61,20
104640,note_on,240,0,2,,,,,,,,,,,,,,,0,,,60,0
104640,note_on,0,0,2,,,,,,,,,,,,,,,0,,,56,0
104640,note_on,0,0,2,,,,,,,,,,,,,,,0,,,56,20
104640,note_on,0,0,2,,,,,,,,,,,,,,,0,,,49,20
104760,note_on,120,0,1,,,,,,,,,,,,,,,0,,,73,0
104760,note_on,0,0,1,,,,,,,,,,,,,,,0,,,75,30
104760,note_on,0,0,1,,,,,,,,,,,,,,,0,,,66,30
104760,note_on,0,0,1,,,,,,,,,,,,,,,0,,,65,0
104880,set_tempo,600,1,0,,,,,,,,,,,,1043478,,,,,,,
104880,note_on,0,0,1,,,,,,,,,,,,,,,0,,,73,32
104880,note_on,0,0,1,,,,,,,,,,,,,,,0,,,65,32
104880,note_on,0,0,1,,,,,,,,,,,,,,,0,,,66,0
104880,note_on,0,0,2,,,,,,,,,,,,,,,0,,,49,0
104880,note_on,120,0,1,,,,,,,,,,,,,,,0,,,75,0
104880,note_on,240,0,2,,,,,,,,,,,,,,,0,,,61,0
104880,note_on,0,0,2,,,,,,,,,,,,,,,0,,,61,21
104880,note_on,0,0,2,,,,,,,,,,,,,,,0,,,56,21
104880,note_on,0,0,2,,,,,,,,,,,,,,,0,,,49,21
104880,note_on,0,0,2,,,,,,,,,,,,,,,0,,,56,0
105600,note_on,720,0,1,,,,,,,,,,,,,,,0,,,73,0
105600,note_on,0,0,1,,,,,,,,,,,,,,,0,,,65,0
105600,note_on,0,0,2,,,,,,,,,,,,,,,0,,,41,32
105600,note_on,0,0,2,,,,,,,,,,,,,,,0,,,29,32
105600,note_on,0,0,2,,,,,,,,,,,,,,,0,,,49,0
105600,note_on,0,0,2,,,,,,,,,,,,,,,0,,,56,0
105600,note_on,720,0,2,,,,,,,,,,,,,,,0,,,61,0
105600,note_on,0,0,2,,,,,,,,,,,,,,,0,,,53,35
105600,set_tempo,720,1,0,,,,,,,,,,,,745342,,,,,,,
105720,note_on,120,0,2,,,,,,,,,,,,,,,0,,,53,0
105720,note_on,0,0,2,,,,,,,,,,,,,,,0,,,57,35
105840,set_tempo,240,1,0,,,,,,,,,,,,779221,,,,,,,
105840,note_on,0,0,2,,,,,,,,,,,,,,,0,,,49,38
105840,note_on,0,0,2,,,,,,,,,,,,,,,0,,,41,34
105840,note_on,0,0,2,,,,,,,,,,,,,,,0,,,34,34
105840,note_on,120,0,2,,,,,,,,,,,,,,,0,,,57,0
105840,note_on,0,0,2,,,,,,,,,,,,,,,0,,,41,0
105840,note_on,0,0,2,,,,,,,,,,,,,,,0,,,29,0
105840,note_on,0,0,2,,,,,,,,,,,,,,,0,,,58,38
105840,note_on,0,0,2,,,,,,,,,,,,,,,0,,,53,38
106320,note_on,0,0,2,,,,,,,,,,,,,,,0,,,58,0
106320,set_tempo,480,1,0,,,,,,,,,,,,745342,,,,,,,
106320,note_on,480,0,2,,,,,,,,,,,,,,,0,,,41,0
106320,note_on,0,0,2,,,,,,,,,,,,,,,0,,,49,0
106320,note_on,0,0,2,,,,,,,,,,,,,,,0,,,53,0
106320,note_on,0,0,2,,,,,,,,,,,,,,,0,,,34,0
106320,note_on,0,0,2,,,,,,,,,,,,,,,0,,,48,31
106320,note_on,0,0,2,,,,,,,,,,,,,,,0,,,53,31
106320,note_on,0,0,2,,,,,,,,,,,,,,,0,,,57,31
106320,note_on,0,0,2,,,,,,,,,,,,,,,0,,,29,29
106320,note_on,0,0,2,,,,,,,,,,,,,,,0,,,41,29
106560,note_on,0,0,2,,,,,,,,,,,,,,,0,,,29,0
106560,note_on,0,0,2,,,,,,,,,,,,,,,0,,,53,0
106560,note_on,240,0,2,,,,,,,,,,,,,,,0,,,41,0
106560,note_on,0,0,2,,,,,,,,,,,,,,,0,,,53,39
106560,note_on,0,0,2,,,,,,,,,,,,,,,0,,,57,0
106560,note_on,0,0,2,,,,,,,,,,,,,,,0,,,41,32
106560,note_on,0,0,2,,,,,,,,,,,,,,,0,,,48,0
106560,note_on,0,0,2,,,,,,,,,,,,,,,0,,,29,32
106680,note_on,120,0,2,,,,,,,,,,,,,,,0,,,53,0
106680,note_on,0,0,2,,,,,,,,,,,,,,,0,,,57,39
106800,note_on,0,0,2,,,,,,,,,,,,,,,0,,,61,43
106800,note_on,120,0,2,,,,,,,,,,,,,,,0,,,57,0
106800,set_tempo,480,1,0,,,,,,,,,,,,789474,,,,,,,
106800,note_on,0,0,2,,,,,,,,,,,,,,,0,,,41,36
106800,note_on,0,0,2,,,,,,,,,,,,,,,0,,,34,36
106800,note_on,0,0,2,,,,,,,,,,,,,,,0,,,41,0
106800,note_on,0,0,2,,,,,,,,,,,,,,,0,,,58,43
106800,note_on,0,0,2,,,,,,,,,,,,,,,0,,,29,0
106800,note_on,0,0,2,,,,,,,,,,,,,,,0,,,53,43
107280,set_tempo,480,1,0,,,,,,,,,,,,764331,,,,,,,
107280,note_on,0,0,2,,,,,,,,,,,,,,,0,,,34,0
107280,note_on,0,0,2,,,,,,,,,,,,,,,0,,,53,36
107280,note_on,0,0,2,,,,,,,,,,,,,,,0,,,60,36
107280,note_on,0,0,2,,,,,,,,,,,,,,,0,,,58,0
107280,note_on,0,0,2,,,,,,,,,,,,,,,0,,,57,36
107280,note_on,0,0,2,,,,,,,,,,,,,,,0,,,61,0
107280,note_on,480,0,2,,,,,,,,,,,,,,,0,,,41,0
107280,note_on,0,0,2,,,,,,,,,,,,,,,0,,,41,32
107280,note_on,0,0,2,,,,,,,,,,,,,,,0,,,53,0
107280,note_on,0,0,2,,,,,,,,,,,,,,,0,,,29,32
107520,note_on,0,0,2,,,,,,,,,,,,,,,0,,,60,0
107520,note_on,0,0,2,,,,,,,,,,,,,,,0,,,57,0
107520,note_on,0,0,1,,,,,,,,,,,,,,,0,,,57,42
107520,note_on,240,0,2,,,,,,,,,,,,,,,0,,,41,0
107520,note_on,0,0,2,,,,,,,,,,,,,,,0,,,29,0
107520,note_on,0,0,2,,,,,,,,,,,,,,,0,,,29,36
107520,note_on,0,0,2,,,,,,,,,,,,,,,0,,,41,36
107520,note_on,1920,0,1,,,,,,,,,,,,,,,0,,,60,42
107520,note_on,0,0,2,,,,,,,,,,,,,,,0,,,53,0
107520,set_tempo,240,1,0,,,,,,,,,,,,944882,,,,,,,
107640,note_on,0,0,1,,,,,,,,,,,,,,,0,,,66,42
107640,note_on,0,0,1,,,,,,,,,,,,,,,0,,,60,0
107640,note_on,120,0,1,,,,,,,,,,,,,,,0,,,57,0
107760,note_on,120,0,1,,,,,,,,,,,,,,,0,,,66,0
107760,note_on,0,0,2,,,,,,,,,,,,,,,0,,,41,38
107760,note_on,0,0,2,,,,,,,,,,,,,,,0,,,34,38
107760,note_on,0,0,2,,,,,,,,,,,,,,,0,,,29,0
107760,note_on,240,0,2,,,,,,,,,,,,,,,0,,,41,0
107760,note_on,0,0,1,,,,,,,,,,,,,,,0,,,58,46
107760,note_on,0,0,1,,,,,,,,,,,,,,,0,,,61,46
107760,note_on,0,0,1,,,,,,,,,,,,,,,0,,,65,46
107760,set_tempo,240,1,0,,,,,,,,,,,,869565,,,,,,,
108240,set_tempo,480,1,0,,,,,,,,,,,,1000000,,,,,,,
108240,note_on,0,0,1,,,,,,,,,,,,,,,0,,,60,36
108240,note_on,0,0,1,,,,,,,,,,,,,,,0,,,65,36
108240,note_on,0,0,2,,,,,,,,,,,,,,,0,,,29,33
108240,note_on,480,0,2,,,,,,,,,,,,,,,0,,,41,0
108240,note_on,480,0,1,,,,,,,,,,,,,,,0,,,65,0
108240,note_on,0,0,1,,,,,,,,,,,,,,,0,,,61,0
108240,note_on,0,0,1,,,,,,,,,,,,,,,0,,,58,0
108240,note_on,0,0,1,,,,,,,,,,,,,,,0,,,57,36
108240,note_on,0,0,2,,,,,,,,,,,,,,,0,,,41,33
108240,note_on,0,0,2,,,,,,,,,,,,,,,0,,,34,0
108480,note_on,0,0,1,,,,,,,,,,,,,,,0,,,66,25
108480,note_on,0,0,1,,,,,,,,,,,,,,,0,,,60,25
108480,note_on,0,0,1,,,,,,,,,,,,,,,0,,,56,25
108480,note_on,0,0,1,,,,,,,,,,,,,,,0,,,57,0
108480,note_on,0,0,1,,,,,,,,,,,,,,,0,,,60,0
108480,note_on,240,0,2,,,,,,,,,,,,,,,0,,,41,0
108480,note_on,0,0,2,,,,,,,,,,,,,,,0,,,29,0
108480,note_on,0,0,2,,,,,,,,,,,,,,,0,,,39,21
108480,note_on,0,0,2,,,,,,,,,,,,,,,0,,,44,21
108480,note_on,240,0,1,,,,,,,,,,,,,,,0,,,65,0
108480,set_tempo,240,1,0,,,,,,,,,,,,1290323,,,,,,,
108600,note_on,120,0,1,,,,,,,,,,,,,,,0,,,66,0
108600,note_on,0,0,1,,,,,,,,,,,,,,,0,,,68,25
108720,note_on,120,0,1,,,,,,,,,,,,,,,0,,,68,0
108720,note_on,0,0,1,,,,,,,,,,,,,,,0,,,65,25
108720,note_on,0,0,1,,,,,,,,,,,,,,,0,,,61,25
108720,note_on,0,0,1,,,,,,,,,,,,,,,0,,,56,25
108720,note_on,0,0,1,,,,,,,,,,,,,,,0,,,60,0
108720,note_on,0,0,1,,,,,,,,,,,,,,,0,,,56,0
108720,note_on,0,0,2,,,,,,,,,,,,,,,0,,,44,21
108720,note_on,0,0,2,,,,,,,,,,,,,,,0,,,37,21
108720,note_on,0,0,2,,,,,,,,,,,,,,,0,,,39,0
108720,note_on,240,0,2,,,,,,,,,,,,,,,0,,,44,0
109200,note_on,480,0,1,,,,,,,,,,,,,,,0,,,68,47
109200,set_tempo,720,1,0,,,,,,,,,,,,718563,,,,,,,
109200,note_on,0,0,2,,,,,,,,,,,,,,,0,,,52,45
109200,note_on,0,0,1,,,,,,,,,,,,,,,0,,,64,47
109200,note_on,480,0,2,,,,,,,,,,,,,,,0,,,40,45
109216,note_on,16,0,1,,,,,,,,,,,,,,,0,,,59,47
109440,note_on,0,0,1,,,,,,,,,,,,,,,0,,,68,0
109440,note_on,0,0,2,,,,,,,,,,,,,,,0,,,40,45
109440,note_on,0,0,2,,,,,,,,,,,,,,,0,,,52,45
109440,note_on,0,0,2,,,,,,,,,,,,,,,0,,,37,0
109440,note_on,240,0,2,,,,,,,,,,,,,,,0,,,52,0
109440,note_on,0,0,2,,,,,,,,,,,,,,,0,,,44,0
109440,note_on,0,0,2,,,,,,,,,,,,,,,0,,,40,0
109440,note_on,0,0,1,,,,,,,,,,,,,,,0,,,65,0
109440,note_on,0,0,1,,,,,,,,,,,,,,,0,,,56,0
109440,note_on,0,0,1,,,,,,,,,,,,,,,0,,,61,0
109440,note_on,0,0,1,,,,,,,,,,,,,,,0,,,59,47
109440,note_on,0,0,1,,,,,,,,,,,,,,,0,,,64,47
109440,note_on,0,0,1,,,,,,,,,,,,,,,0,,,68,47
109440,note_on,224,0,1,,,,,,,,,,,,,,,0,,,64,0
109456,note_on,16,0,1,,,,,,,,,,,,,,,0,,,59,0
109560,note_on,0,0,1,,,,,,,,,,,,,,,0,,,69,47
109560,note_on,104,0,1,,,,,,,,,,,,,,,0,,,68,0
109680,note_on,0,0,2,,,,,,,,,,,,,,,0,,,40,0
109680,set_tempo,480,1,0,,,,,,,,,,,,740741,,,,,,,
109680,note_on,0,0,1,,,,,,,,,,,,,,,0,,,66,51
109680,note_on,0,0,1,,,,,,,,,,,,,,,0,,,63,51
109680,note_on,0,0,1,,,,,,,,,,,,,,,0,,,59,51
109680,note_on,0,0,1,,,,,,,,,,,,,,,0,,,59,0
109680,note_on,0,0,1,,,,,,,,,,,,,,,0,,,64,0
109680,note_on,120,0,1,,,,,,,,,,,,,,,0,,,69,0
109680,note_on,240,0,2,,,,,,,,,,,,,,,0,,,52,0
109680,note_on,0,0,2,,,,,,,,,,,,,,,0,,,47,48
109680,note_on,0,0,2,,,,,,,,,,,,,,,0,,,35,48
110160,note_on,0,0,1,,,,,,,,,,,,,,,0,,,63,0
110160,note_on,0,0,2,,,,,,,,,,,,,,,0,,,52,46
110160,note_on,0,0,2,,,,,,,,,,,,,,,0,,,40,46
110160,note_on,0,0,2,,,,,,,,,,,,,,,0,,,35,0
110160,note_on,480,0,2,,,,,,,,,,,,,,,0,,,47,0
110160,note_on,480,0,1,,,,,,,,,,,,,,,0,,,66,0
110160,note_on,0,0,1,,,,,,,,,,,,,,,0,,,68,44
110160,note_on,0,0,1,,,,,,,,,,,,,,,0,,,64,44
110160,note_on,0,0,1,,,,,,,,,,,,,,,0,,,59,44
110160,note_on,0,0,1,,,,,,,,,,,,,,,0,,,59,0
110160,set_tempo,480,1,0,,,,,,,,,,,,701754,,,,,,,
110400,note_on,240,0,1,,,,,,,,,,,,,,,0,,,68,0
110400,note_on,0,0,1,,,,,,,,,,,,,,,0,,,59,0
110400,note_on,0,0,1,,,,,,,,,,,,,,,0,,,59,49
110400,note_on,0,0,2,,,,,,,,,,,,,,,0,,,52,50
110400,note_on,0,0,1,,,,,,,,,,,,,,,0,,,68,49
110400,note_on,0,0,2,,,,,,,,,,,,,,,0,,,40,50
110400,note_on,0,0,2,,,,,,,,,,,,,,,0,,,40,0
110400,note_on,240,0,2,,,,,,,,,,,,,,,0,,,52,0
110400,note_on,0,0,1,,,,,,,,,,,,,,,0,,,64,0
110400,note_on,0,0,1,,,,,,,,,,,,,,,0,,,64,49
110520,note_on,120,0,1,,,,,,,,,,,,,,,0,,,68,0
110520,note_on,0,0,1,,,,,,,,,,,,,,,0,,,69,49
110640,note_on,240,0,2,,,,,,,,,,,,,,,0,,,52,0
110640,note_on,120,0,1,,,,,,,,,,,,,,,0,,,69,0
110640,note_on,0,0,2,,,,,,,,,,,,,,,0,,,47,53
110640,note_on,0,0,2,,,,,,,,,,,,,,,0,,,35,53
110640,note_on,0,0,1,,,,,,,,,,,,,,,0,,,66,53
110640,note_on,0,0,1,,,,,,,,,,,,,,,0,,,63,53
110640,note_on,0,0,1,,,,,,,,,,,,,,,0,,,59,53
110640,note_on,0,0,1,,,,,,,,,,,,,,,0,,,59,0
110640,note_on,0,0,1,,,,,,,,,,,,,,,0,,,64,0
110640,note_on,0,0,2,,,,,,,,,,,,,,,0,,,40,0
110640,set_tempo,480,1,0,,,,,,,,,,,,718563,,,,,,,
111120,note_on,0,0,1,,,,,,,,,,,,,,,0,,,68,48
111120,note_on,0,0,1,,,,,,,,,,,,,,,0,,,63,0
111120,note_on,480,0,2,,,,,,,,,,,,,,,0,,,47,0
111120,note_on,0,0,2,,,,,,,,,,,,,,,0,,,35,0
111120,note_on,0,0,2,,,,,,,,,,,,,,,0,,,40,50
111120,note_on,0,0,2,,,,,,,,,,,,,,,0,,,52,50
111120,note_on,480,0,1,,,,,,,,,,,,,,,0,,,66,0
111120,set_tempo,480,1,0,,,,,,,,,,,,685714,,,,,,,
111120,note_on,0,0,1,,,,,,,,,,,,,,,0,,,64,48
111120,note_on,0,0,1,,,,,,,,,,,,,,,0,,,59,48
111120,note_on,0,0,1,,,,,,,,,,,,,,,0,,,59,0
111360,note_on,0,0,1,,,,,,,,,,,,,,,0,,,59,53
111360,note_on,0,0,1,,,,,,,,,,,,,,,0,,,66,53
111360,note_on,0,0,1,,,,,,,,,,,,,,,0,,,64,0
111360,note_on,0,0,2,,,,,,,,,,,,,,,0,,,47,54
111360,note_on,0,0,2,,,,,,,,,,,,,,,0,,,35,54
111360,note_on,0,0,2,,,,,,,,,,,,,,,0,,,40,0
111360,note_on,240,0,2,,,,,,,,,,,,,,,0,,,52,0
111360,note_on,240,0,1,,,,,,,,,,,,,,,0,,,68,0
111360,note_on,0,0,1,,,,,,,,,,,,,,,0,,,59,0
111360,note_on,0,0,1,,,,,,,,,,,,,,,0,,,63,53
111480,note_on,120,0,1,,,,,,,,,,,,,,,0,,,66,0
111480,note_on,0,0,1,,,,,,,,,,,,,,,0,,,68,53
111600,note_on,120,0,1,,,,,,,,,,,,,,,0,,,68,0
111600,note_on,0,0,1,,,,,,,,,,,,,,,0,,,63,0
111600,note_on,0,0,1,,,,,,,,,,,,,,,0,,,59,0
111600,note_on,0,0,1,,,,,,,,,,,,,,,0,,,56,56
111600,note_on,0,0,1,,,,,,,,,,,,,,,0,,,61,56
111600,note_on,0,0,1,,,,,,,,,,,,,,,0,,,64,56
111600,note_on,240,0,2,,,,,,,,,,,,,,,0,,,47,0
111600,note_on,0,0,2,,,,,,,,,,,,,,,0,,,49,58
111600,set_tempo,480,1,0,,,,,,,,,,,,714286,,,,,,,
111600,note_on,0,0,2,,,,,,,,,,,,,,,0,,,37,58
111600,note_on,0,0,2,,,,,,,,,,,,,,,0,,,35,0
112080,note_on,0,0,2,,,,,,,,,,,,,,,0,,,45,60
112080,set_tempo,480,1,0,,,,,,,,,,,,681818,,,,,,,
112080,note_on,0,0,2,,,,,,,,,,,,,,,0,,,37,0
112080,note_on,480,0,2,,,,,,,,,,,,,,,0,,,49,0
112080,note_on,0,0,2,,,,,,,,,,,,,,,0,,,33,60
112080,note_on,0,0,1,,,,,,,,,,,,,,,0,,,61,0
112080,note_on,0,0,1,,,,,,,,,,,,,,,0,,,56,0
112080,note_on,0,0,1,,,,,,,,,,,,,,,0,,,57,60
112080,note_on,0,0,1,,,,,,,,,,,,,,,0,,,61,60
112080,note_on,0,0,1,,,,,,,,,,,,,,,0,,,66,60
112080,note_on,480,0,1,,,,,,,,,,,,,,,0,,,64,0
112320,note_on,0,0,2,,,,,,,,,,,,,,,0,,,35,57
112320,note_on,0,0,2,,,,,,,,,,,,,,,0,,,47,57
112320,set_tempo,240,1,0,,,,,,,,,,,,693642,,,,,,,
112320,note_on,0,0,2,,,,,,,,,,,,,,,0,,,33,0
112320,note_on,240,0,2,,,,,,,,,,,,,,,0,,,45,0
112320,note_on,0,0,1,,,,,,,,,,,,,,,0,,,57,56
112320,note_on,240,0,1,,,,,,,,,,,,,,,0,,,66,0
112320,note_on,0,0,1,,,,,,,,,,,,,,,0,,,61,0
112320,note_on,0,0,1,,,,,,,,,,,,,,,0,,,57,0
112320,note_on,0,0,1,,,,,,,,,,,,,,,0,,,63,56
112440,note_on,120,0,1,,,,,,,,,,,,,,,0,,,63,0
112440,note_on,0,0,1,,,,,,,,,,,,,,,0,,,66,56
112560,note_on,0,0,1,,,,,,,,,,,,,,,0,,,64,52
112560,note_on,0,0,2,,,,,,,,,,,,,,,0,,,40,54
112560,note_on,0,0,2,,,,,,,,,,,,,,,0,,,35,0
112560,note_on,240,0,2,,,,,,,,,,,,,,,0,,,47,0
112560,note_on,0,0,1,,,,,,,,,,,,,,,0,,,56,52
112560,set_tempo,240,1,0,,,,,,,,,,,,722892,,,,,,,
112560,note_on,0,0,1,,,,,,,,,,,,,,,0,,,57,0
112560,note_on,0,0,2,,,,,,,,,,,,,,,0,,,47,54
112560,note_on,120,0,1,,,,,,,,,,,,,,,0,,,66,0
113000,note_on,440,0,1,,,,,,,,,,,,,,,0,,,64,0
113000,note_on,440,0,2,,,,,,,,,,,,,,,0,,,47,0
113000,note_on,0,0,1,,,,,,,,,,,,,,,0,,,56,0
113000,note_on,0,0,2,,,,,,,,,,,,,,,0,,,40,0
113040,set_tempo,480,1,0,,,,,,,,,,,,677966,,,,,,,
113040,note_on,0,0,1,,,,,,,,,,,,,,,0,,,76,45
113040,note_on,40,0,2,,,,,,,,,,,,,,,0,,,59,45
113040,note_on,40,0,1,,,,,,,,,,,,,,,0,,,68,45
113280,note_on,0,0,1,,,,,,,,,,,,,,,0,,,76,48
113280,note_on,0,0,1,,,,,,,,,,,,,,,0,,,69,48
113280,note_on,0,0,1,,,,,,,,,,,,,,,0,,,68,0
113280,note_on,240,0,1,,,,,,,,,,,,,,,0,,,76,0
113280,note_on,0,0,2,,,,,,,,,,,,,,,0,,,59,39
113280,note_on,0,0,2,,,,,,,,,,,,,,,0,,,63,39
113280,note_on,240,0,2,,,,,,,,,,,,,,,0,,,59,0
113400,note_on,120,0,1,,,,,,,,,,,,,,,0,,,76,0
113400,note_on,0,0,1,,,,,,,,,,,,,,,0,,,80,48
113520,note_on,0,0,2,,,,,,,,,,,,,,,0,,,59,48
113520,note_on,0,0,2,,,,,,,,,,,,,,,0,,,63,48
113520,set_tempo,480,1,0,,,,,,,,,,,,705882,,,,,,,
113520,note_on,240,0,2,,,,,,,,,,,,,,,0,,,59,0
113520,note_on,0,0,2,,,,,,,,,,,,,,,0,,,63,0
113520,note_on,0,0,1,,,,,,,,,,,,,,,0,,,69,51
113520,note_on,120,0,1,,,,,,,,,,,,,,,0,,,80,0
113520,note_on,0,0,1,,,,,,,,,,,,,,,0,,,69,0
113520,note_on,0,0,1,,,,,,,,,,,,,,,0,,,78,51
114000,note_on,0,0,1,,,,,,,,,,,,,,,0,,,66,47
114000,set_tempo,480,1,0,,,,,,,,,,,,670391,,,,,,,
114000,note_on,0,0,2,,,,,,,,,,,,,,,0,,,59,48
114000,note_on,0,0,1,,,,,,,,,,,,,,,0,,,69,0
114000,note_on,480,0,1,,,,,,,,,,,,,,,0,,,78,0
114000,note_on,0,0,2,,,,,,,,,,,,,,,0,,,59,0
114000,note_on,480,0,2,,,,,,,,,,,,,,,0,,,63,0
114000,note_on,0,0,1,,,,,,,,,,,,,,,0,,,69,47
114000,note_on,0,0,2,,,,,,,,,,,,,,,0,,,63,48
114240,note_on,0,0,2,,,,,,,,,,,,,,,0,,,59,0
114240,note_on,240,0,1,,,,,,,,,,,,,,,0,,,69,0
114240,note_on,0,0,1,,,,,,,,,,,,,,,0,,,66,0
114240,note_on,0,0,1,,,,,,,,,,,,,,,0,,,64,53
114240,note_on,240,0,2,,,,,,,,,,,,,,,0,,,63,0
114240,note_on,0,0,2,,,,,,,,,,,,,,,0,,,64,53
114240,note_on,0,0,2,,,,,,,,,,,,,,,0,,,59,53
114240,note_on,0,0,1,,,,,,,,,,,,,,,0,,,68,53
114360,note_on,120,0,1,,,,,,,,,,,,,,,0,,,68,0
114360,note_on,0,0,1,,,,,,,,,,,,,,,0,,,64,0
114360,note_on,0,0,1,,,,,,,,,,,,,,,0,,,69,53
114360,note_on,0,0,1,,,,,,,,,,,,,,,0,,,66,53
114480,note_on,240,0,2,,,,,,,,,,,,,,,0,,,59,0
114480,note_on,0,0,2,,,,,,,,,,,,,,,0,,,64,0
114480,note_on,0,0,2,,,,,,,,,,,,,,,0,,,64,54
114480,note_on,0,0,2,,,,,,,,,,,,,,,0,,,59,54
114480,note_on,120,0,1,,,,,,,,,,,,,,,0,,,69,0
114480,note_on,0,0,1,,,,,,,,,,,,,,,0,,,66,0
114480,note_on,0,0,1,,,,,,,,,,,,,,,0,,,68,54
114480,note_on,0,0,1,,,,,,,,,,,,,,,0,,,71,54
114480,set_tempo,480,1,0,,,,,,,,,,,,685714,,,,,,,
114960,note_on,480,0,1,,,,,,,,,,,,,,,0,,,71,0
114960,note_on,480,0,2,,,,,,,,,,,,,,,0,,,64,0
114960,note_on,0,0,2,,,,,,,,,,,,,,,0,,,59,0
114960,note_on,0,0,2,,,,,,,,,,,,,,,0,,,59,47
114960,note_on,0,0,2,,,,,,,,,,,,,,,0,,,64,47
114960,note_on,0,0,1,,,,,,,,,,,,,,,0,,,68,0
114960,note_on,0,0,1,,,,,,,,,,,,,,,0,,,68,48
114960,note_on,0,0,1,,,,,,,,,,,,,,,0,,,76,48
114960,set_tempo,480,1,0,,,,,,,,,,,,655738,,,,,,,
115200,note_on,240,0,1,,,,,,,,,,,,,,,0,,,76,0
115200,note_on,0,0,1,,,,,,,,,,,,,,,0,,,68,0
115200,note_on,0,0,1,,,,,,,,,,,,,,,0,,,69,54
115200,note_on,0,0,1,,,,,,,,,,,,,,,0,,,76,54
115200,note_on,240,0,2,,,,,,,,,,,,,,,0,,,64,0
115200,note_on,0,0,2,,,,,,,,,,,,,,,0,,,59,0
115200,note_on,0,0,2,,,,,,,,,,,,,,,0,,,59,51
115200,note_on,0,0,2,,,,,,,,,,,,,,,0,,,63,51
115320,note_on,120,0,1,,,,,,,,,,,,,,,0,,,76,0
115320,note_on,0,0,1,,,,,,,,,,,,,,,0,,,80,54
115440,set_tempo,480,1,0,,,,,,,,,,,,662983,,,,,,,
115440,note_on,120,0,1,,,,,,,,,,,,,,,0,,,80,0
115440,note_on,0,0,2,,,,,,,,,,,,,,,0,,,63,0
115440,note_on,0,0,1,,,,,,,,,,,,,,,0,,,78,55
115440,note_on,0,0,1,,,,,,,,,,,,,,,0,,,69,55
115440,note_on,0,0,1,,,,,,,,,,,,,,,0,,,69,0
115440,note_on,0,0,2,,,,,,,,,,,,,,,0,,,63,54
115440,note_on,240,0,2,,,,,,,,,,,,,,,0,,,59,0
115440,note_on,0,0,2,,,,,,,,,,,,,,,0,,,59,54
115920,note_on,0,0,1,,,,,,,,,,,,,,,0,,,69,51
115920,note_on,0,0,1,,,,,,,,,,,,,,,0,,,75,51
115920,set_tempo,480,1,0,,,,,,,,,,,,652174,,,,,,,
115920,note_on,480,0,1,,,,,,,,,,,,,,,0,,,78,0
115920,note_on,0,0,1,,,,,,,,,,,,,,,0,,,69,0
115920,note_on,480,0,2,,,,,,,,,,,,,,,0,,,63,0
115920,note_on,0,0,2,,,,,,,,,,,,,,,0,,,66,51
115920,note_on,0,0,2,,,,,,,,,,,,,,,0,,,59,51
115920,note_on,0,0,2,,,,,,,,,,,,,,,0,,,59,0
116160,note_on,0,0,2,,,,,,,,,,,,,,,0,,,52,53
116160,note_on,0,0,1,,,,,,,,,,,,,,,0,,,76,51
116160,note_on,0,0,2,,,,,,,,,,,,,,,0,,,64,53
116160,note_on,0,0,2,,,,,,,,,,,,,,,0,,,59,0
116160,note_on,240,0,2,,,,,,,,,,,,,,,0,,,66,0
116160,note_on,0,0,1,,,,,,,,,,,,,,,0,,,68,51
116160,note_on,0,0,1,,,,,,,,,,,,,,,0,,,75,0
116160,note_on,0,0,2,,,,,,,,,,,,,,,0,,,59,53
116160,note_on,240,0,1,,,,,,,,,,,,,,,0,,,69,0
116280,note_on,120,0,1,,,,,,,,,,,,,,,0,,,76,0
116280,note_on,0,0,1,,,,,,,,,,,,,,,0,,,69,51
116280,note_on,0,0,1,,,,,,,,,,,,,,,0,,,68,0
116280,note_on,0,0,1,,,,,,,,,,,,,,,0,,,73,51
116400,note_on,120,0,1,,,,,,,,,,,,,,,0,,,73,0
116400,note_on,0,0,1,,,,,,,,,,,,,,,0,,,69,0
116400,note_on,0,0,1,,,,,,,,,,,,,,,0,,,68,50
116400,note_on,240,0,2,,,,,,,,,,,,,,,0,,,52,0
116400,note_on,0,0,1,,,,,,,,,,,,,,,0,,,71,50
116400,note_on,0,0,2,,,,,,,,,,,,,,,0,,,52,53
116400,note_on,0,0,2,,,,,,,,,,,,,,,0,,,64,0
116400,note_on,0,0,2,,,,,,,,,,,,,,,0,,,59,0
116400,set_tempo,480,1,0,,,,,,,,,,,,689655,,,,,,,
116400,note_on,0,0,2,,,,,,,,,,,,,,,0,,,59,53
116400,note_on,0,0,2,,,,,,,,,,,,,,,0,,,64,53
116880,note_on,480,0,2,,,,,,,,,,,,,,,0,,,64,0
116880,note_on,0,0,1,,,,,,,,,,,,,,,0,,,68,47
116880,note_on,0,0,1,,,,,,,,,,,,,,,0,,,64,47
116880,note_on,0,0,2,,,,,,,,,,,,,,,0,,,52,47
116880,note_on,480,0,1,,,,,,,,,,,,,,,0,,,71,0
116880,note_on,0,0,1,,,,,,,,,,,,,,,0,,,68,0
116880,note_on,0,0,1,,,,,,,,,,,,,,,0,,,59,47
116880,note_on,0,0,2,,,,,,,,,,,,,,,0,,,40,47
116880,note_on,0,0,2,,,,,,,,,,,,,,,0,,,59,0
116880,note_on,0,0,2,,,,,,,,,,,,,,,0,,,52,0
117120,note_on,0,0,1,,,,,,,,,,,,,,,0,,,68,67
117120,note_on,0,0,1,,,,,,,,,,,,,,,0,,,64,67
117120,note_on,0,0,1,,,,,,,,,,,,,,,0,,,59,67
117120,note_on,0,0,1,,,,,,,,,,,,,,,0,,,59,0
117120,note_on,0,0,1,,,,,,,,,,,,,,,0,,,68,0
117120,note_on,240,0,1,,,,,,,,,,,,,,,0,,,64,0
117120,note_on,240,0,2,,,,,,,,,,,,,,,0,,,52,0
117120,note_on,0,0,2,,,,,,,,,,,,,,,0,,,40,0
117120,note_on,0,0,2,,,,,,,,,,,,,,,0,,,40,63
117120,note_on,0,0,2,,,,,,,,,,,,,,,0,,,52,63
117240,note_on,120,0,1,,,,,,,,,,,,,,,0,,,68,0
117240,note_on,0,0,1,,,,,,,,,,,,,,,0,,,69,67
117360,note_on,120,0,1,,,,,,,,,,,,,,,0,,,69,0
117360,note_on,0,0,2,,,,,,,,,,,,,,,0,,,47,68
117360,note_on,0,0,1,,,,,,,,,,,,,,,0,,,64,0
117360,note_on,0,0,1,,,,,,,,,,,,,,,0,,,59,0
117360,note_on,0,0,1,,,,,,,,,,,,,,,0,,,59,73
117360,note_on,0,0,1,,,,,,,,,,,,,,,0,,,63,73
117360,note_on,0,0,2,,,,,,,,,,,,,,,0,,,35,68
117360,note_on,0,0,1,,,,,,,,,,,,,,,0,,,66,73
117360,note_on,240,0,2,,,,,,,,,,,,,,,0,,,52,0
117360,set_tempo,960,1,0,,,,,,,,,,,,701754,,,,,,,
117360,note_on,0,0,2,,,,,,,,,,,,,,,0,,,40,0
117840,note_on,480,0,2,,,,,,,,,,,,,,,0,,,47,0
117840,note_on,0,0,1,,,,,,,,,,,,,,,0,,,63,0
117840,note_on,0,0,1,,,,,,,,,,,,,,,0,,,59,0
117840,note_on,0,0,1,,,,,,,,,,,,,,,0,,,59,62
117840,note_on,0,0,1,,,,,,,,,,,,,,,0,,,64,62
117840,set_tempo,480,1,0,,,,,,,,,,,,681818,,,,,,,
117840,note_on,0,0,2,,,,,,,,,,,,,,,0,,,35,0
117840,note_on,0,0,2,,,,,,,,,,,,,,,0,,,40,66
117840,note_on,0,0,1,,,,,,,,,,,,,,,0,,,68,62
117840,note_on,0,0,2,,,,,,,,,,,,,,,0,,,52,66
117840,note_on,480,0,1,,,,,,,,,,,,,,,0,,,66,0
118080,note_on,240,0,2,,,,,,,,,,,,,,,0,,,52,0
118080,note_on,0,0,2,,,,,,,,,,,,,,,0,,,52,72
118080,note_on,0,0,2,,,,,,,,,,,,,,,0,,,40,72
118080,note_on,240,0,1,,,,,,,,,,,,,,,0,,,68,0
118080,note_on,0,0,1,,,,,,,,,,,,,,,0,,,64,0
118080,note_on,0,0,1,,,,,,,,,,,,,,,0,,,59,0
118080,note_on,0,0,1,,,,,,,,,,,,,,,0,,,64,69
118080,note_on,0,0,1,,,,,,,,,,,,,,,0,,,68,69
118080,note_on,0,0,2,,,,,,,,,,,,,,,0,,,40,0
118080,note_on,0,0,1,,,,,,,,,,,,,,,0,,,59,69
118200,note_on,120,0,1,,,,,,,,,,,,,,,0,,,68,0
118200,note_on,0,0,1,,,,,,,,,,,,,,,0,,,69,69
118320,note_on,0,0,2,,,,,,,,,,,,,,,0,,,40,0
118320,note_on,240,0,2,,,,,,,,,,,,,,,0,,,52,0
118320,note_on,0,0,2,,,,,,,,,,,,,,,0,,,47,75
118320,note_on,0,0,2,,,,,,,,,,,,,,,0,,,35,75
118320,note_on,120,0,1,,,,,,,,,,,,,,,0,,,69,0
118320,note_on,0,0,1,,,,,,,,,,,,,,,0,,,59,0
118320,note_on,0,0,1,,,,,,,,,,,,,,,0,,,64,0
118320,note_on,0,0,1,,,,,,,,,,,,,,,0,,,66,75
118320,set_tempo,480,1,0,,,,,,,,,,,,697674,,,,,,,
118320,note_on,0,0,1,,,,,,,,,,,,,,,0,,,63,75
118320,note_on,0,0,1,,,,,,,,,,,,,,,0,,,59,75
118800,note_on,480,0,1,,,,,,,,,,,,,,,0,,,66,0
118800,note_on,0,0,1,,,,,,,,,,,,,,,0,,,68,68
118800,note_on,480,0,2,,,,,,,,,,,,,,,0,,,47,0
118800,note_on,0,0,2,,,,,,,,,,,,,,,0,,,35,0
118800,note_on,0,0,2,,,,,,,,,,,,,,,0,,,52,72
118800,note_on,0,0,2,,,,,,,,,,,,,,,0,,,40,72
118800,note_on,0,0,1,,,,,,,,,,,,,,,0,,,64,68
118800,note_on,0,0,1,,,,,,,,,,,,,,,0,,,59,68
118800,note_on,0,0,1,,,,,,,,,,,,,,,0,,,59,0
118800,note_on,0,0,1,,,,,,,,,,,,,,,0,,,63,0
119040,note_on,0,0,2,,,,,,,,,,,,,,,0,,,35,77
119040,note_on,0,0,1,,,,,,,,,,,,,,,0,,,66,75
119040,note_on,0,0,1,,,,,,,,,,,,,,,0,,,63,75
119040,note_on,0,0,1,,,,,,,,,,,,,,,0,,,59,75
119040,note_on,0,0,1,,,,,,,,,,,,,,,0,,,59,0
119040,note_on,240,0,1,,,,,,,,,,,,,,,0,,,68,0
119040,note_on,0,0,2,,,,,,,,,,,,,,,0,,,47,77
119040,set_tempo,720,1,0,,,,,,,,,,,,779221,,,,,,,
119040,note_on,0,0,2,,,,,,,,,,,,,,,0,,,40,0
119040,note_on,0,0,1,,,,,,,,,,,,,,,0,,,64,0
119040,note_on,240,0,2,,,,,,,,,,,,,,,0,,,52,0
119160,note_on,120,0,1,,,,,,,,,,,,,,,0,,,66,0
119160,note_on,0,0,1,,,,,,,,,,,,,,,0,,,68,75
119280,set_tempo,240,1,0,,,,,,,,,,,,800000,,,,,,,
119280,note_on,0,0,1,,,,,,,,,,,,,,,0,,,64,80
119280,note_on,0,0,2,,,,,,,,,,,,,,,0,,,35,0
119280,note_on,0,0,1,,,,,,,,,,,,,,,0,,,61,80
119280,note_on,0,0,1,,,,,,,,,,,,,,,0,,,56,80
119280,note_on,0,0,1,,,,,,,,,,,,,,,0,,,59,0
119280,note_on,0,0,2,,,,,,,,,,,,,,,0,,,37,82
119280,note_on,0,0,2,,,,,,,,,,,,,,,0,,,49,82
119280,note_on,0,0,1,,,,,,,,,,,,,,,0,,,63,0
119280,note_on,120,0,1,,,,,,,,,,,,,,,0,,,68,0
119280,note_on,240,0,2,,,,,,,,,,,,,,,0,,,47,0
119740,set_tempo,460,1,0,,,,,,,,,,,,827586,,,,,,,
119760,note_on,0,0,1,,,,,,,,,,,,,,,0,,,61,0
119760,note_on,0,0,1,,,,,,,,,,,,,,,0,,,56,0
119760,note_on,0,0,1,,,,,,,,,,,,,,,0,,,63,81
119760,note_on,0,0,2,,,,,,,,,,,,,,,0,,,42,80
119760,note_on,0,0,2,,,,,,,,,,,,,,,0,,,30,80
119760,note_on,0,0,2,,,,,,,,,,,,,,,0,,,54,80
119760,note_on,0,0,2,,,,,,,,,,,,,,,0,,,57,80
119760,note_on,480,0,1,,,,,,,,,,,,,,,0,,,64,0
119760,note_on,480,0,2,,,,,,,,,,,,,,,0,,,49,0
119760,note_on,0,0,2,,,,,,,,,,,,,,,0,,,37,0
119800,set_tempo,60,1,0,,,,,,,,,,,,833333,,,,,,,
119840,set_tempo,40,1,0,,,,,,,,,,,,839161,,,,,,,
119880,note_on,120,0,1,,,,,,,,,,,,,,,0,,,63,0
119880,set_tempo,40,1,0,,,,,,,,,,,,845070,,,,,,,
119880,note_on,0,0,1,,,,,,,,,,,,,,,0,,,61,78
119920,set_tempo,40,1,0,,,,,,,,,,,,851064,,,,,,,
119960,set_tempo,40,1,0,,,,,,,,,,,,857143,,,,,,,
120000,note_on,0,0,2,,,,,,,,,,,,,,,0,,,44,81
120000,note_on,0,0,2,,,,,,,,,,,,,,,0,,,54,0
120000,note_on,0,0,2,,,,,,,,,,,,,,,0,,,30,0
120000,note_on,0,0,2,,,,,,,,,,,,,,,0,,,54,81
120000,note_on,0,0,2,,,,,,,,,,,,,,,0,,,32,81
120000,note_on,120,0,1,,,,,,,,,,,,,,,0,,,61,0
120000,note_on,0,0,1,,,,,,,,,,,,,,,0,,,60,80
120000,note_on,0,0,2,,,,,,,,,,,,,,,0,,,57,0
120000,note_on,240,0,2,,,,,,,,,,,,,,,0,,,42,0
120020,set_tempo,60,1,0,,,,,,,,,,,,863309,,,,,,,
120060,set_tempo,40,1,0,,,,,,,,,,,,869565,,,,,,,
120100,set_tempo,40,1,0,,,,,,,,,,,,875912,,,,,,,
120120,note_on,120,0,1,,,,,,,,,,,,,,,0,,,60,0
120120,note_on,0,0,1,,,,,,,,,,,,,,,0,,,63,78
120140,set_tempo,40,1,0,,,,,,,,,,,,882353,,,,,,,
120180,set_tempo,40,1,0,,,,,,,,,,,,888889,,,,,,,
120220,set_tempo,40,1,0,,,,,,,,,,,,895522,,,,,,,
120240,set_tempo,20,1,0,,,,,,,,,,,,1034483,,,,,,,
120240,note_on,240,0,2,,,,,,,,,,,,,,,0,,,44,0
120240,note_on,0,0,2,,,,,,,,,,,,,,,0,,,32,0
120240,note_on,0,0,2,,,,,,,,,,,,,,,0,,,54,0
120240,note_on,0,0,2,,,,,,,,,,,,,,,0,,,53,77
120240,note_on,0,0,2,,,,,,,,,,,,,,,0,,,37,77
120240,note_on,0,0,2,,,,,,,,,,,,,,,0,,,44,77
120240,note_on,0,0,1,,,,,,,,,,,,,,,0,,,61,74
120240,note_on,120,0,1,,,,,,,,,,,,,,,0,,,63,0
120680,note_on,440,0,1,,,,,,,,,,,,,,,0,,,61,0
120680,note_on,440,0,2,,,,,,,,,,,,,,,0,,,44,0
120680,note_on,0,0,2,,,,,,,,,,,,,,,0,,,37,0
120680,note_on,0,0,2,,,,,,,,,,,,,,,0,,,53,0
120720,set_tempo,480,1,0,,,,,,,,,,,,909091,,,,,,,
120720,note_on,40,0,1,,,,,,,,,,,,,,,0,,,65,40
120720,note_on,0,0,2,,,,,,,,,,,,,,,0,,,61,28
120720,note_on,40,0,2,,,,,,,,,,,,,,,0,,,56,28
120720,note_on,0,0,1,,,,,,,,,,,,,,,0,,,73,40
120960,note_on,0,0,2,,,,,,,,,,,,,,,0,,,56,29
120960,note_on,0,0,2,,,,,,,,,,,,,,,0,,,60,29
120960,note_on,0,0,2,,,,,,,,,,,,,,,0,,,56,0
120960,note_on,240,0,2,,,,,,,,,,,,,,,0,,,61,0
120960,note_on,0,0,1,,,,,,,,,,,,,,,0,,,74,42
120960,note_on,0,0,1,,,,,,,,,,,,,,,0,,,66,42
120960,note_on,0,0,1,,,,,,,,,,,,,,,0,,,65,0
120960,note_on,240,0,1,,,,,,,,,,,,,,,0,,,73,0
121080,note_on,0,0,1,,,,,,,,,,,,,,,0,,,77,42
121080,note_on,120,0,1,,,,,,,,,,,,,,,0,,,74,0
121200,set_tempo,480,1,0,,,,,,,,,,,,810811,,,,,,,
121200,note_on,0,0,1,,,,,,,,,,,,,,,0,,,75,40
121200,note_on,0,0,1,,,,,,,,,,,,,,,0,,,66,40
121200,note_on,0,0,2,,,,,,,,,,,,,,,0,,,60,0
121200,note_on,120,0,1,,,,,,,,,,,,,,,0,,,77,0
121200,note_on,0,0,2,,,,,,,,,,,,,,,0,,,56,28
121200,note_on,240,0,2,,,,,,,,,,,,,,,0,,,56,0
121200,note_on,0,0,1,,,,,,,,,,,,,,,0,,,66,0
121200,note_on,0,0,2,,,,,,,,,,,,,,,0,,,60,28
121680,note_on,480,0,1,,,,,,,,,,,,,,,0,,,75,0
121680,note_on,0,0,1,,,,,,,,,,,,,,,0,,,66,0
121680,note_on,0,0,1,,,,,,,,,,,,,,,0,,,63,34
121680,note_on,0,0,1,,,,,,,,,,,,,,,0,,,66,34
121680,note_on,0,0,2,,,,,,,,,,,,,,,0,,,60,0
121680,note_on,480,0,2,,,,,,,,,,,,,,,0,,,56,0
121680,note_on,0,0,2,,,,,,,,,,,,,,,0,,,60,24
121680,note_on,0,0,2,,,,,,,,,,,,,,,0,,,56,24
121680,set_tempo,480,1,0,,,,,,,,,,,,779221,,,,,,,
121920,note_on,0,0,1,,,,,,,,,,,,,,,0,,,65,37
121920,note_on,0,0,1,,,,,,,,,,,,,,,0,,,61,37
121920,note_on,0,0,1,,,,,,,,,,,,,,,0,,,63,0
121920,note_on,240,0,1,,,,,,,,,,,,,,,0,,,66,0
121920,note_on,240,0,2,,,,,,,,,,,,,,,0,,,56,0
121920,note_on,0,0,2,,,,,,,,,,,,,,,0,,,60,0
121920,note_on,0,0,2,,,,,,,,,,,,,,,0,,,61,26
121920,note_on,0,0,2,,,,,,,,,,,,,,,0,,,56,26
122040,note_on,120,0,1,,,,,,,,,,,,,,,0,,,65,0
122040,note_on,0,0,1,,,,,,,,,,,,,,,0,,,66,37
122040,note_on,0,0,1,,,,,,,,,,,,,,,0,,,63,37
122040,note_on,0,0,1,,,,,,,,,,,,,,,0,,,61,0
122160,note_on,0,0,1,,,,,,,,,,,,,,,0,,,68,40
122160,note_on,0,0,1,,,,,,,,,,,,,,,0,,,65,40
122160,note_on,0,0,1,,,,,,,,,,,,,,,0,,,63,0
122160,note_on,120,0,1,,,,,,,,,,,,,,,0,,,66,0
122160,note_on,240,0,2,,,,,,,,,,,,,,,0,,,56,0
122160,note_on,0,0,2,,,,,,,,,,,,,,,0,,,61,0
122160,note_on,0,0,2,,,,,,,,,,,,,,,0,,,61,28
122160,note_on,0,0,2,,,,,,,,,,,,,,,0,,,56,28
122160,set_tempo,480,1,0,,,,,,,,,,,,800000,,,,,,,
122640,note_on,0,0,1,,,,,,,,,,,,,,,0,,,65,0
122640,note_on,0,0,1,,,,,,,,,,,,,,,0,,,65,38
122640,note_on,0,0,1,,,,,,,,,,,,,,,0,,,73,38
122640,note_on,480,0,1,,,,,,,,,,,,,,,0,,,68,0
122640,note_on,480,0,2,,,,,,,,,,,,,,,0,,,56,0
122640,set_tempo,480,1,0,,,,,,,,,,,,779221,,,,,,,
122640,note_on,0,0,2,,,,,,,,,,,,,,,0,,,61,26
122640,note_on,0,0,2,,,,,,,,,,,,,,,0,,,56,26
122640,note_on,0,0,2,,,,,,,,,,,,,,,0,,,61,0
122880,note_on,0,0,2,,,,,,,,,,,,,,,0,,,56,28
122880,note_on,240,0,2,,,,,,,,,,,,,,,0,,,56,0
122880,note_on,0,0,2,,,,,,,,,,,,,,,0,,,61,0
122880,note_on,240,0,1,,,,,,,,,,,,,,,0,,,65,0
122880,note_on,0,0,1,,,,,,,,,,,,,,,0,,,73,0
122880,note_on,0,0,1,,,,,,,,,,,,,,,0,,,66,40
122880,note_on,0,0,1,,,,,,,,,,,,,,,0,,,74,40
122880,note_on,0,0,2,,,,,,,,,,,,,,,0,,,60,28
123000,note_on,120,0,1,,,,,,,,,,,,,,,0,,,74,0
123000,note_on,0,0,1,,,,,,,,,,,,,,,0,,,77,40
123120,note_on,240,0,2,,,,,,,,,,,,,,,0,,,56,0
123120,note_on,0,0,2,,,,,,,,,,,,,,,0,,,60,0
123120,note_on,0,0,2,,,,,,,,,,,,,,,0,,,60,25
123120,set_tempo,480,1,0,,,,,,,,,,,,810811,,,,,,,
123120,note_on,0,0,1,,,,,,,,,,,,,,,0,,,75,38
123120,note_on,0,0,1,,,,,,,,,,,,,,,0,,,66,38
123120,note_on,0,0,1,,,,,,,,,,,,,,,0,,,66,0
123120,note_on,120,0,1,,,,,,,,,,,,,,,0,,,77,0
123120,note_on,0,0,2,,,,,,,,,,,,,,,0,,,56,25
123600,note_on,480,0,1,,,,,,,,,,,,,,,0,,,75,0
123600,note_on,0,0,1,,,,,,,,,,,,,,,0,,,66,0
123600,note_on,0,0,1,,,,,,,,,,,,,,,0,,,71,32
123600,note_on,0,0,2,,,,,,,,,,,,,,,0,,,56,25
123600,note_on,0,0,2,,,,,,,,,,,,,,,0,,,62,25
123600,note_on,0,0,2,,,,,,,,,,,,,,,0,,,60,0
123600,note_on,480,0,2,,,,,,,,,,,,,,,0,,,56,0
123600,set_tempo,480,1,0,,,,,,,,,,,,983607,,,,,,,
123600,note_on,0,0,1,,,,,,,,,,,,,,,0,,,77,32
123840,note_on,0,0,2,,,,,,,,,,,,,,,0,,,62,0
123840,note_on,0,0,2,,,,,,,,,,,,,,,0,,,63,26
123840,note_on,240,0,2,,,,,,,,,,,,,,,0,,,56,0
123840,set_tempo,240,1,0,,,,,,,,,,,,1132075,,,,,,,
123840,note_on,0,0,1,,,,,,,,,,,,,,,0,,,71,0
123840,note_on,0,0,1,,,,,,,,,,,,,,,0,,,72,35
123840,note_on,0,0,1,,,,,,,,,,,,,,,0,,,77,35
123840,note_on,240,0,1,,,,,,,,,,,,,,,0,,,77,0
123840,note_on,0,0,2,,,,,,,,,,,,,,,0,,,56,26
123960,note_on,120,0,1,,,,,,,,,,,,,,,0,,,77,0
123960,note_on,0,0,1,,,,,,,,,,,,,,,0,,,80,35
124080,note_on,0,0,1,,,,,,,,,,,,,,,0,,,78,32
124080,note_on,0,0,2,,,,,,,,,,,,,,,0,,,63,23
124080,note_on,0,0,2,,,,,,,,,,,,,,,0,,,63,0
124080,set_tempo,240,1,0,,,,,,,,,,,,1714286,,,,,,,
124080,note_on,0,0,1,,,,,,,,,,,,,,,0,,,72,32
124080,note_on,0,0,2,,,,,,,,,,,,,,,0,,,56,23
124080,note_on,0,0,1,,,,,,,,,,,,,,,0,,,72,0
124080,note_on,120,0,1,,,,,,,,,,,,,,,0,,,80,0
124080,note_on,240,0,2,,,,,,,,,,,,,,,0,,,56,0
124800,note_on,0,0,2,,,,,,,,,,,,,,,0,,,63,0
124800,note_on,0,0,2,,,,,,,,,,,,,,,0,,,61,16
124800,note_on,720,0,2,,,,,,,,,,,,,,,0,,,56,0
124800,control_change,0,0,2,,,,,,,,,,,,,,,0,91,127,,
124800,note_on,0,0,2,,,,,,,,,,,,,,,0,,,56,16
124800,note_on,0,0,2,,,,,,,,,,,,,,,0,,,49,16
124800,control_change,0,0,1,,,,,,,,,,,,,,,0,91,127,,
124800,note_on,0,0,1,,,,,,,,,,,,,,,0,,,65,29
124800,note_on,0,0,1,,,,,,,,,,,,,,,0,,,72,0
124800,note_on,720,0,1,,,,,,,,,,,,,,,0,,,78,0
124800,set_tempo,720,1,0,,,,,,,,,,,,810811,,,,,,,
124920,note_on,120,0,1,,,,,,,,,,,,,,,0,,,65,0
124920,set_tempo,120,1,0,,,,,,,,,,,,827586,,,,,,,
124920,note_on,0,0,1,,,,,,,,,,,,,,,0,,,68,29
125040,note_on,0,0,2,,,,,,,,,,,,,,,0,,,49,18
125040,note_on,0,0,2,,,,,,,,,,,,,,,0,,,61,18
125040,note_on,0,0,2,,,,,,,,,,,,,,,0,,,56,18
125040,note_on,240,0,2,,,,,,,,,,,,,,,0,,,61,0
125040,note_on,0,0,2,,,,,,,,,,,,,,,0,,,56,0
125040,note_on,0,0,1,,,,,,,,,,,,,,,0,,,70,26
125040,note_on,0,0,1,,,,,,,,,,,,,,,0,,,66,26
125040,note_on,120,0,1,,,,,,,,,,,,,,,0,,,68,0
125040,set_tempo,120,1,0,,,,,,,,,,,,839161,,,,,,,
125040,note_on,0,0,2,,,,,,,,,,,,,,,0,,,49,0
125520,note_on,0,0,2,,,,,,,,,,,,,,,0,,,56,0
125520,note_on,480,0,2,,,,,,,,,,,,,,,0,,,61,0
125520,note_on,0,0,2,,,,,,,,,,,,,,,0,,,49,15
125520,note_on,0,0,1,,,,,,,,,,,,,,,0,,,66,0
125520,note_on,0,0,1,,,,,,,,,,,,,,,0,,,65,25
125520,note_on,0,0,1,,,,,,,,,,,,,,,0,,,68,25
125520,note_on,0,0,2,,,,,,,,,,,,,,,0,,,56,15
125520,note_on,0,0,2,,,,,,,,,,,,,,,0,,,61,15
125520,note_on,0,0,2,,,,,,,,,,,,,,,0,,,49,0
125520,set_tempo,480,1,0,,,,,,,,,,,,800000,,,,,,,
125520,note_on,480,0,1,,,,,,,,,,,,,,,0,,,70,0
125700,note_on,180,0,2,,,,,,,,,,,,,,,0,,,61,0
125700,note_on,0,0,2,,,,,,,,,,,,,,,0,,,56,0
125700,note_on,0,0,2,,,,,,,,,,,,,,,0,,,49,0
125700,note_on,180,0,1,,,,,,,,,,,,,,,0,,,68,0
125700,note_on,0,0,1,,,,,,,,,,,,,,,0,,,65,0
125760,note_on,60,0,1,,,,,,,,,,,,,,,0,,,65,29
125760,set_tempo,240,1,0,,,,,,,,,,,,779221,,,,,,,
125760,note_on,60,0,2,,,,,,,,,,,,,,,0,,,49,18
125760,note_on,0,0,2,,,,,,,,,,,,,,,0,,,56,18
125760,note_on,0,0,2,,,,,,,,,,,,,,,0,,,61,18
125880,note_on,120,0,1,,,,,,,,,,,,,,,0,,,65,0
125880,note_on,0,0,1,,,,,,,,,,,,,,,0,,,68,29
126000,note_on,0,0,2,,,,,,,,,,,,,,,0,,,56,0
126000,note_on,240,0,2,,,,,,,,,,,,,,,0,,,61,0
126000,note_on,0,0,1,,,,,,,,,,,,,,,0,,,70,28
126000,note_on,0,0,2,,,,,,,,,,,,,,,0,,,49,0
126000,note_on,0,0,2,,,,,,,,,,,,,,,0,,,49,18
126000,note_on,0,0,2,,,,,,,,,,,,,,,0,,,56,18
126000,note_on,0,0,2,,,,,,,,,,,,,,,0,,,61,18
126000,note_on,0,0,1,,,,,,,,,,,,,,,0,,,73,28
126000,note_on,0,0,1,,,,,,,,,,,,,,,0,,,66,28
126000,set_tempo,240,1,0,,,,,,,,,,,,839161,,,,,,,
126000,note_on,120,0,1,,,,,,,,,,,,,,,0,,,68,0
126480,note_on,480,0,2,,,,,,,,,,,,,,,0,,,61,0
126480,note_on,0,0,1,,,,,,,,,,,,,,,0,,,68,24
126480,note_on,0,0,1,,,,,,,,,,,,,,,0,,,65,24
126480,note_on,0,0,1,,,,,,,,,,,,,,,0,,,66,0
126480,set_tempo,480,1,0,,,,,,,,,,,,759494,,,,,,,
126480,note_on,480,0,1,,,,,,,,,,,,,,,0,,,73,0
126480,note_on,0,0,2,,,,,,,,,,,,,,,0,,,56,0
126480,note_on,0,0,2,,,,,,,,,,,,,,,0,,,49,0
126480,note_on,0,0,2,,,,,,,,,,,,,,,0,,,49,16
126480,note_on,0,0,2,,,,,,,,,,,,,,,0,,,56,16
126480,note_on,0,0,2,,,,,,,,,,,,,,,0,,,61,16
126480,note_on,0,0,1,,,,,,,,,,,,,,,0,,,70,0
126660,note_on,180,0,2,,,,,,,,,,,,,,,0,,,61,0
126660,note_on,0,0,2,,,,,,,,,,,,,,,0,,,56,0
126660,note_on,0,0,2,,,,,,,,,,,,,,,0,,,49,0
126660,note_on,180,0,1,,,,,,,,,,,,,,,0,,,68,0
126660,note_on,0,0,1,,,,,,,,,,,,,,,0,,,65,0
126720,note_on,0,0,2,,,,,,,,,,,,,,,0,,,60,20
126720,note_on,0,0,1,,,,,,,,,,,,,,,0,,,68,30
126720,set_tempo,240,1,0,,,,,,,,,,,,779221,,,,,,,
126720,note_on,60,0,2,,,,,,,,,,,,,,,0,,,56,20
126720,note_on,60,0,1,,,,,,,,,,,,,,,0,,,65,30
126840,note_on,120,0,1,,,,,,,,,,,,,,,0,,,68,0
126840,note_on,0,0,1,,,,,,,,,,,,,,,0,,,65,0
126840,note_on,0,0,1,,,,,,,,,,,,,,,0,,,62,30
126960,note_on,0,0,1,,,,,,,,,,,,,,,0,,,66,31
126960,set_tempo,240,1,0,,,,,,,,,,,,779221,,,,,,,
126960,note_on,240,0,2,,,,,,,,,,,,,,,0,,,60,0
126960,note_on,0,0,2,,,,,,,,,,,,,,,0,,,56,0
126960,note_on,0,0,2,,,,,,,,,,,,,,,0,,,56,22
126960,note_on,0,0,2,,,,,,,,,,,,,,,0,,,60,22
126960,note_on,120,0,1,,,,,,,,,,,,,,,0,,,62,0
126960,note_on,0,0,1,,,,,,,,,,,,,,,0,,,63,31
127440,note_on,0,0,1,,,,,,,,,,,,,,,0,,,63,0
127440,note_on,0,0,1,,,,,,,,,,,,,,,0,,,66,29
127440,note_on,0,0,1,,,,,,,,,,,,,,,0,,,75,29
127440,note_on,0,0,2,,,,,,,,,,,,,,,0,,,60,20
127440,set_tempo,480,1,0,,,,,,,,,,,,759494,,,,,,,
127440,note_on,0,0,2,,,,,,,,,,,,,,,0,,,56,20
127440,note_on,0,0,2,,,,,,,,,,,,,,,0,,,56,0
127440,note_on,480,0,2,,,,,,,,,,,,,,,0,,,60,0
127440,note_on,480,0,1,,,,,,,,,,,,,,,0,,,66,0
127680,note_on,240,0,1,,,,,,,,,,,,,,,0,,,75,0
127680,note_on,0,0,2,,,,,,,,,,,,,,,0,,,56,20
127680,set_tempo,240,1,0,,,,,,,,,,,,740741,,,,,,,
127680,note_on,0,0,2,,,,,,,,,,,,,,,0,,,61,20
127680,note_on,0,0,1,,,,,,,,,,,,,,,0,,,66,0
127680,note_on,0,0,1,,,,,,,,,,,,,,,0,,,68,33
127680,note_on,0,0,1,,,,,,,,,,,,,,,0,,,77,33
127680,note_on,0,0,2,,,,,,,,,,,,,,,0,,,49,20
127680,note_on,0,0,2,,,,,,,,,,,,,,,0,,,56,0
127680,note_on,240,0,2,,,,,,,,,,,,,,,0,,,60,0
127800,note_on,120,0,1,,,,,,,,,,,,,,,0,,,77,0
127800,note_on,0,0,1,,,,,,,,,,,,,,,0,,,75,30
127800,note_on,0,0,1,,,,,,,,,,,,,,,0,,,66,30
127800,note_on,0,0,1,,,,,,,,,,,,,,,0,,,68,0
127920,note_on,240,0,2,,,,,,,,,,,,,,,0,,,61,0
127920,note_on,0,0,2,,,,,,,,,,,,,,,0,,,61,21
127920,note_on,0,0,2,,,,,,,,,,,,,,,0,,,56,21
127920,note_on,0,0,2,,,,,,,,,,,,,,,0,,,49,21
127920,note_on,0,0,2,,,,,,,,,,,,,,,0,,,56,0
127920,set_tempo,240,1,0,,,,,,,,,,,,794702,,,,,,,
127920,note_on,0,0,2,,,,,,,,,,,,,,,0,,,49,0
127920,note_on,120,0,1,,,,,,,,,,,,,,,0,,,75,0
127920,note_on,0,0,1,,,,,,,,,,,,,,,0,,,66,0
127920,note_on,0,0,1,,,,,,,,,,,,,,,0,,,65,32
127920,note_on,0,0,1,,,,,,,,,,,,,,,0,,,73,32
128400,note_on,0,0,1,,,,,,,,,,,,,,,0,,,68,27
128400,note_on,0,0,1,,,,,,,,,,,,,,,0,,,65,0
128400,note_on,0,0,2,,,,,,,,,,,,,,,0,,,49,18
128400,note_on,0,0,2,,,,,,,,,,,,,,,0,,,56,0
128400,note_on,0,0,2,,,,,,,,,,,,,,,0,,,49,0
128400,note_on,0,0,1,,,,,,,,,,,,,,,0,,,65,27
128400,note_on,0,0,2,,,,,,,,,,,,,,,0,,,56,18
128400,note_on,0,0,2,,,,,,,,,,,,,,,0,,,61,18
128400,note_on,480,0,1,,,,,,,,,,,,,,,0,,,73,0
128400,note_on,480,0,2,,,,,,,,,,,,,,,0,,,61,0
128400,set_tempo,480,1,0,,,,,,,,,,,,779221,,,,,,,
128580,note_on,180,0,1,,,,,,,,,,,,,,,0,,,68,0
128580,note_on,0,0,1,,,,,,,,,,,,,,,0,,,65,0
128580,note_on,0,0,2,,,,,,,,,,,,,,,0,,,56,0
128580,note_on,180,0,2,,,,,,,,,,,,,,,0,,,61,0
128580,note_on,0,0,2,,,,,,,,,,,,,,,0,,,49,0
128640,control_change,60,0,1,,,,,,,,,,,,,,,0,91,127,,
128640,note_on,0,0,1,,,,,,,,,,,,,,,0,,,65,29
128640,note_on,60,0,2,,,,,,,,,,,,,,,0,,,49,18
128640,set_tempo,240,1,0,,,,,,,,,,,,779221,,,,,,,
128640,note_on,0,0,2,,,,,,,,,,,,,,,0,,,61,18
128640,control_change,0,0,2,,,,,,,,,,,,,,,0,91,127,,
128640,note_on,0,0,2,,,,,,,,,,,,,,,0,,,56,18
128760,note_on,0,0,1,,,,,,,,,,,,,,,0,,,68,29
128760,note_on,120,0,1,,,,,,,,,,,,,,,0,,,65,0
128880,note_on,0,0,2,,,,,,,,,,,,,,,0,,,56,0
128880,note_on,0,0,1,,,,,,,,,,,,,,,0,,,70,25
128880,note_on,0,0,1,,,,,,,,,,,,,,,0,,,66,25
128880,note_on,240,0,2,,,,,,,,,,,,,,,0,,,61,0
128880,set_tempo,240,1,0,,,,,,,,,,,,805369,,,,,,,
128880,note_on,0,0,2,,,,,,,,,,,,,,,0,,,49,0
128880,note_on,120,0,1,,,,,,,,,,,,,,,0,,,68,0
128880,note_on,0,0,2,,,,,,,,,,,,,,,0,,,56,19
128880,note_on,0,0,2,,,,,,,,,,,,,,,0,,,61,19
128880,note_on,0,0,2,,,,,,,,,,,,,,,0,,,49,19
129360,note_on,0,0,2,,,,,,,,,,,,,,,0,,,61,17
129360,note_on,0,0,1,,,,,,,,,,,,,,,0,,,68,26
129360,note_on,0,0,1,,,,,,,,,,,,,,,0,,,66,0
129360,note_on,480,0,1,,,,,,,,,,,,,,,0,,,70,0
129360,note_on,0,0,1,,,,,,,,,,,,,,,0,,,65,26
129360,note_on,0,0,2,,,,,,,,,,,,,,,0,,,49,17
129360,set_tempo,480,1,0,,,,,,,,,,,,779221,,,,,,,
129360,note_on,0,0,2,,,,,,,,,,,,,,,0,,,49,0
129360,note_on,0,0,2,,,,,,,,,,,,,,,0,,,56,0
129360,note_on,480,0,2,,,,,,,,,,,,,,,0,,,61,0
129360,note_on,0,0,2,,,,,,,,,,,,,,,0,,,56,17
129540,note_on,0,0,2,,,,,,,,,,,,,,,0,,,56,0
129540,note_on,180,0,1,,,,,,,,,,,,,,,0,,,68,0
129540,note_on,0,0,1,,,,,,,,,,,,,,,0,,,65,0
129540,note_on,180,0,2,,,,,,,,,,,,,,,0,,,61,0
129540,note_on,0,0,2,,,,,,,,,,,,,,,0,,,49,0
129600,note_on,0,0,2,,,,,,,,,,,,,,,0,,,61,18
129600,note_on,0,0,2,,,,,,,,,,,,,,,0,,,56,18
129600,note_on,60,0,2,,,,,,,,,,,,,,,0,,,49,18
129600,note_on,60,0,1,,,,,,,,,,,,,,,0,,,65,29
129600,set_tempo,240,1,0,,,,,,,,,,,,779221,,,,,,,
129720,note_on,0,0,1,,,,,,,,,,,,,,,0,,,68,29
129720,note_on,120,0,1,,,,,,,,,,,,,,,0,,,65,0
129840,note_on,0,0,2,,,,,,,,,,,,,,,0,,,56,18
129840,note_on,0,0,2,,,,,,,,,,,,,,,0,,,61,18
129840,note_on,0,0,2,,,,,,,,,,,,,,,0,,,49,18
129840,set_tempo,240,1,0,,,,,,,,,,,,800000,,,,,,,
129840,note_on,0,0,2,,,,,,,,,,,,,,,0,,,49,0
129840,note_on,0,0,2,,,,,,,,,,,,,,,0,,,56,0
129840,note_on,240,0,2,,,,,,,,,,,,,,,0,,,61,0
129840,note_on,120,0,1,,,,,,,,,,,,,,,0,,,68,0
129840,note_on,0,0,1,,,,,,,,,,,,,,,0,,,66,26
129840,note_on,0,0,1,,,,,,,,,,,,,,,0,,,70,26
129840,note_on,0,0,1,,,,,,,,,,,,,,,0,,,73,26
130320,note_on,0,0,1,,,,,,,,,,,,,,,0,,,68,24
130320,note_on,0,0,2,,,,,,,,,,,,,,,0,,,49,17
130320,note_on,0,0,2,,,,,,,,,,,,,,,0,,,49,0
130320,note_on,0,0,2,,,,,,,,,,,,,,,0,,,56,0
130320,note_on,480,0,2,,,,,,,,,,,,,,,0,,,61,0
130320,note_on,480,0,1,,,,,,,,,,,,,,,0,,,73,0
130320,note_on,0,0,1,,,,,,,,,,,,,,,0,,,70,0
130320,note_on,0,0,1,,,,,,,,,,,,,,,0,,,66,0
130320,note_on,0,0,1,,,,,,,,,,,,,,,0,,,65,24
130320,note_on,0,0,2,,,,,,,,,,,,,,,0,,,56,17
130320,note_on,0,0,2,,,,,,,,,,,,,,,0,,,61,17
130320,set_tempo,480,1,0,,,,,,,,,,,,764331,,,,,,,
130500,note_on,180,0,1,,,,,,,,,,,,,,,0,,,68,0
130500,note_on,0,0,1,,,,,,,,,,,,,,,0,,,65,0
130500,note_on,0,0,2,,,,,,,,,,,,,,,0,,,56,0
130500,note_on,0,0,2,,,,,,,,,,,,,,,0,,,49,0
130500,note_on,180,0,2,,,,,,,,,,,,,,,0,,,61,0
130560,note_on,60,0,1,,,,,,,,,,,,,,,0,,,65,30
130560,note_on,0,0,1,,,,,,,,,,,,,,,0,,,68,30
130560,note_on,60,0,2,,,,,,,,,,,,,,,0,,,56,20
130560,note_on,0,0,2,,,,,,,,,,,,,,,0,,,60,20
130680,note_on,120,0,1,,,,,,,,,,,,,,,0,,,68,0
130680,note_on,0,0,1,,,,,,,,,,,,,,,0,,,62,30
130680,note_on,0,0,1,,,,,,,,,,,,,,,0,,,65,0
130800,note_on,240,0,2,,,,,,,,,,,,,,,0,,,60,0
130800,note_on,0,0,2,,,,,,,,,,,,,,,0,,,56,0
130800,note_on,0,0,2,,,,,,,,,,,,,,,0,,,60,22
130800,note_on,0,0,2,,,,,,,,,,,,,,,0,,,56,22
130800,set_tempo,480,1,0,,,,,,,,,,,,800000,,,,,,,
130800,note_on,120,0,1,,,,,,,,,,,,,,,0,,,62,0
130800,note_on,0,0,1,,,,,,,,,,,,,,,0,,,63,36
130800,note_on,0,0,1,,,,,,,,,,,,,,,0,,,66,36
131160,note_on,0,0,1,,,,,,,,,,,,,,,0,,,75,29
131160,note_on,0,0,1,,,,,,,,,,,,,,,0,,,66,29
131160,note_on,0,0,1,,,,,,,,,,,,,,,0,,,63,0
131160,note_on,360,0,1,,,,,,,,,,,,,,,0,,,66,0
131160,set_tempo,360,1,0,,,,,,,,,,,,745342,,,,,,,
131280,note_on,0,0,1,,,,,,,,,,,,,,,0,,,77,30
131280,note_on,0,0,1,,,,,,,,,,,,,,,0,,,68,30
131280,note_on,120,0,1,,,,,,,,,,,,,,,0,,,75,0
131280,note_on,0,0,1,,,,,,,,,,,,,,,0,,,66,0
131280,note_on,480,0,2,,,,,,,,,,,,,,,0,,,60,0
131280,note_on,0,0,2,,,,,,,,,,,,,,,0,,,56,0
131280,note_on,0,0,2,,,,,,,,,,,,,,,0,,,60,19
131280,note_on,0,0,2,,,,,,,,,,,,,,,0,,,56,19
131400,note_on,120,0,1,,,,,,,,,,,,,,,0,,,77,0
131400,note_on,0,0,1,,,,,,,,,,,,,,,0,,,75,29
131400,note_on,0,0,1,,,,,,,,,,,,,,,0,,,66,29
131400,note_on,0,0,1,,,,,,,,,,,,,,,0,,,68,0
131520,note_on,0,0,1,,,,,,,,,,,,,,,0,,,73,30
131520,note_on,0,0,1,,,,,,,,,,,,,,,0,,,65,30
131520,note_on,0,0,1,,,,,,,,,,,,,,,0,,,66,0
131520,note_on,120,0,1,,,,,,,,,,,,,,,0,,,75,0
131520,note_on,240,0,2,,,,,,,,,,,,,,,0,,,60,0
131520,note_on,0,0,2,,,,,,,,,,,,,,,0,,,56,0
131520,note_on,0,0,2,,,,,,,,,,,,,,,0,,,49,20
131520,note_on,0,0,2,,,,,,,,,,,,,,,0,,,61,20
131520,note_on,0,0,2,,,,,,,,,,,,,,,0,,,56,20
131640,note_on,0,0,1,,,,,,,,,,,,,,,0,,,75,30
131640,note_on,0,0,1,,,,,,,,,,,,,,,0,,,66,30
131640,note_on,0,0,1,,,,,,,,,,,,,,,0,,,65,0
131640,note_on,120,0,1,,,,,,,,,,,,,,,0,,,73,0
131760,note_on,0,0,1,,,,,,,,,,,,,,,0,,,73,32
131760,note_on,0,0,1,,,,,,,,,,,,,,,0,,,65,32
131760,note_on,0,0,1,,,,,,,,,,,,,,,0,,,66,0
131760,note_on,120,0,1,,,,,,,,,,,,,,,0,,,75,0
131760,note_on,0,0,2,,,,,,,,,,,,,,,0,,,61,21
131760,note_on,240,0,2,,,,,,,,,,,,,,,0,,,61,0
131760,note_on,0,0,2,,,,,,,,,,,,,,,0,,,56,0
131760,note_on,0,0,2,,,,,,,,,,,,,,,0,,,49,0
131760,note_on,0,0,2,,,,,,,,,,,,,,,0,,,49,21
131760,note_on,0,0,2,,,,,,,,,,,,,,,0,,,56,21
131760,set_tempo,600,1,0,,,,,,,,,,,,1100917,,,,,,,
132480,note_on,720,0,1,,,,,,,,,,,,,,,0,,,73,0
132480,note_on,0,0,1,,,,,,,,,,,,,,,0,,,65,0
132480,note_on,0,0,2,,,,,,,,,,,,,,,0,,,53,35
132480,note_on,0,0,2,,,,,,,,,,,,,,,0,,,29,32
132480,note_on,0,0,2,,,,,,,,,,,,,,,0,,,49,0
132480,note_on,0,0,2,,,,,,,,,,,,,,,0,,,56,0
132480,set_tempo,720,1,0,,,,,,,,,,,,745342,,,,,,,
132480,note_on,720,0,2,,,,,,,,,,,,,,,0,,,61,0
132480,note_on,0,0,2,,,,,,,,,,,,,,,0,,,41,32
132600,note_on,120,0,2,,,,,,,,,,,,,,,0,,,53,0
132600,note_on,0,0,2,,,,,,,,,,,,,,,0,,,57,35
132720,note_on,0,0,2,,,,,,,,,,,,,,,0,,,41,34
132720,note_on,0,0,2,,,,,,,,,,,,,,,0,,,34,34
132720,note_on,0,0,2,,,,,,,,,,,,,,,0,,,58,38
132720,note_on,0,0,2,,,,,,,,,,,,,,,0,,,53,38
132720,note_on,0,0,2,,,,,,,,,,,,,,,0,,,41,0
132720,note_on,0,0,2,,,,,,,,,,,,,,,0,,,29,0
132720,note_on,120,0,2,,,,,,,,,,,,,,,0,,,57,0
132720,set_tempo,240,1,0,,,,,,,,,,,,779221,,,,,,,
132720,note_on,0,0,2,,,,,,,,,,,,,,,0,,,49,38
133200,note_on,0,0,2,,,,,,,,,,,,,,,0,,,57,31
133200,set_tempo,480,1,0,,,,,,,,,,,,745342,,,,,,,
133200,note_on,0,0,2,,,,,,,,,,,,,,,0,,,29,29
133200,note_on,0,0,2,,,,,,,,,,,,,,,0,,,48,31
133200,note_on,0,0,2,,,,,,,,,,,,,,,0,,,41,29
133200,note_on,0,0,2,,,,,,,,,,,,,,,0,,,53,0
133200,note_on,0,0,2,,,,,,,,,,,,,,,0,,,34,0
133200,note_on,480,0,2,,,,,,,,,,,,,,,0,,,41,0
133200,note_on,0,0,2,,,,,,,,,,,,,,,0,,,53,31
133200,note_on,0,0,2,,,,,,,,,,,,,,,0,,,49,0
133200,note_on,0,0,2,,,,,,,,,,,,,,,0,,,58,0
133440,note_on,0,0,2,,,,,,,,,,,,,,,0,,,53,0
133440,note_on,240,0,2,,,,,,,,,,,,,,,0,,,41,0
133440,note_on,0,0,2,,,,,,,,,,,,,,,0,,,57,0
133440,note_on,0,0,2,,,,,,,,,,,,,,,0,,,41,32
133440,note_on,0,0,2,,,,,,,,,,,,,,,0,,,48,0
133440,note_on,0,0,2,,,,,,,,,,,,,,,0,,,29,0
133440,note_on,0,0,2,,,,,,,,,,,,,,,0,,,53,39
133440,note_on,0,0,2,,,,,,,,,,,,,,,0,,,29,32
133560,note_on,0,0,2,,,,,,,,,,,,,,,0,,,57,39
133560,note_on,120,0,2,,,,,,,,,,,,,,,0,,,53,0
133680,note_on,0,0,2,,,,,,,,,,,,,,,0,,,41,0
133680,note_on,120,0,2,,,,,,,,,,,,,,,0,,,57,0
133680,note_on,0,0,2,,,,,,,,,,,,,,,0,,,53,43
133680,note_on,0,0,2,,,,,,,,,,,,,,,0,,,58,43
133680,set_tempo,480,1,0,,,,,,,,,,,,789474,,,,,,,
133680,note_on,0,0,2,,,,,,,,,,,,,,,0,,,41,36
133680,note_on,0,0,2,,,,,,,,,,,,,,,0,,,34,36
133680,note_on,0,0,2,,,,,,,,,,,,,,,0,,,29,0
133680,note_on,0,0,2,,,,,,,,,,,,,,,0,,,61,43
134160,set_tempo,480,1,0,,,,,,,,,,,,764331,,,,,,,
134160,note_on,0,0,2,,,,,,,,,,,,,,,0,,,57,31
134160,note_on,0,0,2,,,,,,,,,,,,,,,0,,,34,0
134160,note_on,0,0,2,,,,,,,,,,,,,,,0,,,53,31
134160,note_on,0,0,2,,,,,,,,,,,,,,,0,,,29,31
134160,note_on,0,0,2,,,,,,,,,,,,,,,0,,,60,31
134160,note_on,0,0,2,,,,,,,,,,,,,,,0,,,58,0
134160,note_on,0,0,2,,,,,,,,,,,,,,,0,,,41,31
134160,note_on,0,0,2,,,,,,,,,,,,,,,0,,,53,0
134160,note_on,480,0,2,,,,,,,,,,,,,,,0,,,41,0
134160,note_on,0,0,2,,,,,,,,,,,,,,,0,,,61,0
134400,set_tempo,240,1,0,,,,,,,,,,,,1025641,,,,,,,
134400,note_on,240,0,2,,,,,,,,,,,,,,,0,,,41,0
134400,note_on,1920,0,1,,,,,,,,,,,,,,,0,,,60,29
134400,note_on,0,0,1,,,,,,,,,,,,,,,0,,,57,29
134400,note_on,0,0,2,,,,,,,,,,,,,,,0,,,29,24
134400,note_on,0,0,2,,,,,,,,,,,,,,,0,,,29,0
134400,note_on,0,0,2,,,,,,,,,,,,,,,0,,,57,0
134400,note_on,0,0,2,,,,,,,,,,,,,,,0,,,60,0
134400,note_on,0,0,2,,,,,,,,,,,,,,,0,,,53,0
134400,note_on,0,0,2,,,,,,,,,,,,,,,0,,,41,24
134520,note_on,0,0,1,,,,,,,,,,,,,,,0,,,66,29
134520,note_on,120,0,1,,,,,,,,,,,,,,,0,,,57,0
134520,note_on,0,0,1,,,,,,,,,,,,,,,0,,,60,0
134640,note_on,240,0,2,,,,,,,,,,,,,,,0,,,41,0
134640,note_on,0,0,1,,,,,,,,,,,,,,,0,,,58,33
134640,note_on,0,0,1,,,,,,,,,,,,,,,0,,,61,33
134640,set_tempo,240,1,0,,,,,,,,,,,,930233,,,,,,,
134640,note_on,0,0,1,,,,,,,,,,,,,,,0,,,65,33
134640,note_on,120,0,1,,,,,,,,,,,,,,,0,,,66,0
134640,note_on,0,0,2,,,,,,,,,,,,,,,0,,,41,24
134640,note_on,0,0,2,,,,,,,,,,,,,,,0,,,34,24
134640,note_on,0,0,2,,,,,,,,,,,,,,,0,,,29,0
135120,note_on,0,0,1,,,,,,,,,,,,,,,0,,,65,24
135120,note_on,0,0,1,,,,,,,,,,,,,,,0,,,57,24
135120,note_on,0,0,1,,,,,,,,,,,,,,,0,,,58,0
135120,note_on,0,0,1,,,,,,,,,,,,,,,0,,,61,0
135120,note_on,0,0,1,,,,,,,,,,,,,,,0,,,60,24
135120,set_tempo,480,1,0,,,,,,,,,,,,1200000,,,,,,,
135120,note_on,480,0,1,,,,,,,,,,,,,,,0,,,65,0
135120,note_on,480,0,2,,,,,,,,,,,,,,,0,,,41,0
135120,note_on,0,0,2,,,,,,,,,,,,,,,0,,,41,20
135120,note_on,0,0,2,,,,,,,,,,,,,,,0,,,29,20
135120,note_on,0,0,2,,,,,,,,,,,,,,,0,,,34,0
135360,note_on,0,0,1,,,,,,,,,,,,,,,0,,,56,18
135360,note_on,0,0,1,,,,,,,,,,,,,,,0,,,57,0
135360,note_on,0,0,1,,,,,,,,,,,,,,,0,,,60,0
135360,note_on,240,0,1,,,,,,,,,,,,,,,0,,,65,0
135360,note_on,0,0,2,,,,,,,,,,,,,,,0,,,44,17
135360,note_on,240,0,2,,,,,,,,,,,,,,,0,,,41,0
135360,set_tempo,240,1,0,,,,,,,,,,,,1690141,,,,,,,
135360,note_on,0,0,2,,,,,,,,,,,,,,,0,,,29,0
135360,note_on,0,0,2,,,,,,,,,,,,,,,0,,,39,17
135360,note_on,0,0,1,,,,,,,,,,,,,,,0,,,66,18
135360,note_on,0,0,1,,,,,,,,,,,,,,,0,,,60,18
135480,note_on,0,0,1,,,,,,,,,,,,,,,0,,,68,18
135480,note_on,120,0,1,,,,,,,,,,,,,,,0,,,66,0
135600,note_on,0,0,1,,,,,,,,,,,,,,,0,,,65,18
135600,note_on,0,0,1,,,,,,,,,,,,,,,0,,,60,0
135600,note_on,0,0,1,,,,,,,,,,,,,,,0,,,56,0
135600,note_on,0,0,1,,,,,,,,,,,,,,,0,,,56,18
135600,note_on,0,0,1,,,,,,,,,,,,,,,0,,,61,18
135600,set_tempo,240,1,0,,,,,,,,,,,,2926829,,,,,,,
135600,note_on,0,0,2,,,,,,,,,,,,,,,0,,,44,17
135600,note_on,0,0,2,,,,,,,,,,,,,,,0,,,37,17
135600,note_on,240,0,2,,,,,,,,,,,,,,,0,,,44,0
135600,note_on,120,0,1,,,,,,,,,,,,,,,0,,,68,0
135600,note_on,0,0,2,,,,,,,,,,,,,,,0,,,39,0
136080,note_on,480,0,1,,,,,,,,,,,,,,,0,,,68,60
136080,set_tempo,480,1,0,,,,,,,,,,,,600000,,,,,,,
136320,control_change,0,0,2,,,,,,,,,,,,,,,0,91,127,,
136320,note_on,0,0,2,,,,,,,,,,,,,,,0,,,49,54
136320,note_on,0,0,2,,,,,,,,,,,,,,,0,,,37,0
136320,note_on,720,0,2,,,,,,,,,,,,,,,0,,,44,0
136320,control_change,0,0,1,,,,,,,,,,,,,,,0,91,127,,
136320,note_on,0,0,1,,,,,,,,,,,,,,,0,,,65,0
136320,key_signature,240,1,0,,,,,,,,,,,E,,,,,,,,
136320,note_on,0,0,1,,,,,,,,,,,,,,,0,,,56,0
136320,note_on,240,0,1,,,,,,,,,,,,,,,0,,,68,0
136320,note_on,0,0,1,,,,,,,,,,,,,,,0,,,64,66
136320,note_on,0,0,1,,,,,,,,,,,,,,,0,,,61,0
136440,set_tempo,120,1,0,,,,,,,,,,,,580271,,,,,,,
136440,note_on,0,0,1,,,,,,,,,,,,,,,0,,,61,60
136440,note_on,120,0,2,,,,,,,,,,,,,,,0,,,49,0
136440,note_on,120,0,1,,,,,,,,,,,,,,,0,,,64,0
136480,set_tempo,40,1,0,,,,,,,,,,,,580889,,,,,,,
136500,set_tempo,20,1,0,,,,,,,,,,,,581395,,,,,,,
136520,set_tempo,20,1,0,,,,,,,,,,,,581959,,,,,,,
136540,set_tempo,20,1,0,,,,,,,,,,,,582524,,,,,,,
136560,note_on,120,0,2,,,,,,,,,,,,,,,0,,,56,50
136560,note_on,0,0,1,,,,,,,,,,,,,,,0,,,64,60
136560,set_tempo,20,1,0,,,,,,,,,,,,583090,,,,,,,
136560,note_on,120,0,1,,,,,,,,,,,,,,,0,,,61,0
136580,set_tempo,20,1,0,,,,,,,,,,,,583658,,,,,,,
136620,set_tempo,40,1,0,,,,,,,,,,,,584226,,,,,,,
136640,set_tempo,20,1,0,,,,,,,,,,,,584738,,,,,,,
136660,set_tempo,20,1,0,,,,,,,,,,,,585309,,,,,,,
136680,note_on,0,0,1,,,,,,,,,,,,,,,0,,,68,60
136680,note_on,120,0,1,,,,,,,,,,,,,,,0,,,64,0
136680,set_tempo,20,1,0,,,,,,,,,,,,585880,,,,,,,
136680,note_on,120,0,2,,,,,,,,,,,,,,,0,,,56,0
136700,set_tempo,20,1,0,,,,,,,,,,,,586396,,,,,,,
136720,set_tempo,20,1,0,,,,,,,,,,,,587027,,,,,,,
136740,set_tempo,20,1,0,,,,,,,,,,,,587544,,,,,,,
136780,set_tempo,40,1,0,,,,,,,,,,,,588178,,,,,,,
136796,set_tempo,16,1,0,,,,,,,,,,,,591599,,,,,,,
136800,note_on,0,0,1,,,,,,,,,,,,,,,0,,,64,64
136800,note_on,120,0,2,,,,,,,,,,,,,,,0,,,49,54
136800,set_tempo,4,1,0,,,,,,,,,,,,588697,,,,,,,
136800,note_on,120,0,1,,,,,,,,,,,,,,,0,,,68,0
136820,set_tempo,20,1,0,,,,,,,,,,,,589275,,,,,,,
136840,set_tempo,20,1,0,,,,,,,,,,,,589855,,,,,,,
136860,set_tempo,20,1,0,,,,,,,,,,,,590435,,,,,,,
136880,set_tempo,20,1,0,,,,,,,,,,,,590958,,,,,,,
136900,set_tempo,20,1,0,,,,,,,,,,,,591599,,,,,,,
136920,set_tempo,20,1,0,,,,,,,,,,,,588697,,,,,,,
136920,note_on,0,0,1,,,,,,,,,,,,,,,0,,,61,60
136920,note_on,120,0,2,,,,,,,,,,,,,,,0,,,49,0
136920,note_on,120,0,1,,,,,,,,,,,,,,,0,,,64,0
136940,set_tempo,20,1,0,,,,,,,,,,,,577534,,,,,,,
137040,note_on,120,0,1,,,,,,,,,,,,,,,0,,,61,0
137040,note_on,0,0,1,,,,,,,,,,,,,,,0,,,64,60
137040,set_tempo,100,1,0,,,,,,,,,,,,580271,,,,,,,
137040,note_on,120,0,2,,,,,,,,,,,,,,,0,,,57,50
137140,set_tempo,100,1,0,,,,,,,,,,,,583090,,,,,,,
137160,note_on,120,0,2,,,,,,,,,,,,,,,0,,,57,0
137160,note_on,120,0,1,,,,,,,,,,,,,,,0,,,64,0
137160,note_on,0,0,1,,,,,,,,,,,,,,,0,,,69,60
137220,set_tempo,80,1,0,,,,,,,,,,,,585880,,,,,,,
137280,note_on,120,0,2,,,,,,,,,,,,,,,0,,,48,54
137280,note_on,120,0,1,,,,,,,,,,,,,,,0,,,69,0
137280,note_on,0,0,1,,,,,,,,,,,,,,,0,,,63,63
137320,set_tempo,100,1,0,,,,,,,,,,,,588697,,,,,,,
137400,note_on,120,0,2,,,,,,,,,,,,,,,0,,,48,0
137400,set_tempo,80,1,0,,,,,,,,,,,,580271,,,,,,,
137400,note_on,0,0,1,,,,,,,,,,,,,,,0,,,60,60
137400,note_on,120,0,1,,,,,,,,,,,,,,,0,,,63,0
137440,set_tempo,40,1,0,,,,,,,,,,,,580889,,,,,,,
137460,set_tempo,20,1,0,,,,,,,,,,,,581395,,,,,,,
137480,set_tempo,20,1,0,,,,,,,,,,,,581959,,,,,,,
137500,set_tempo,20,1,0,,,,,,,,,,,,582524,,,,,,,
137520,note_on,0,0,1,,,,,,,,,,,,,,,0,,,63,60
137520,note_on,120,0,1,,,,,,,,,,,,,,,0,,,60,0
137520,set_tempo,20,1,0,,,,,,,,,,,,583090,,,,,,,
137520,note_on,120,0,2,,,,,,,,,,,,,,,0,,,57,51
137540,set_tempo,20,1,0,,,,,,,,,,,,583658,,,,,,,
137580,set_tempo,40,1,0,,,,,,,,,,,,584226,,,,,,,
137600,set_tempo,20,1,0,,,,,,,,,,,,584738,,,,,,,
137620,set_tempo,20,1,0,,,,,,,,,,,,585309,,,,,,,
137640,note_on,0,0,1,,,,,,,,,,,,,,,0,,,69,60
137640,note_on,120,0,1,,,,,,,,,,,,,,,0,,,63,0
137640,set_tempo,20,1,0,,,,,,,,,,,,585880,,,,,,,
137640,note_on,120,0,2,,,,,,,,,,,,,,,0,,,57,0
137660,set_tempo,20,1,0,,,,,,,,,,,,586396,,,,,,,
137680,set_tempo,20,1,0,,,,,,,,,,,,587027,,,,,,,
137720,set_tempo,40,1,0,,,,,,,,,,,,587544,,,,,,,
137740,set_tempo,20,1,0,,,,,,,,,,,,588178,,,,,,,
137760,note_on,0,0,1,,,,,,,,,,,,,,,0,,,63,63
137760,note_on,120,0,1,,,,,,,,,,,,,,,0,,,69,0
137760,set_tempo,20,1,0,,,,,,,,,,,,588697,,,,,,,
137760,note_on,120,0,2,,,,,,,,,,,,,,,0,,,48,54
137780,set_tempo,20,1,0,,,,,,,,,,,,589275,,,,,,,
137800,set_tempo,20,1,0,,,,,,,,,,,,589855,,,,,,,
137820,set_tempo,20,1,0,,,,,,,,,,,,590435,,,,,,,
137840,set_tempo,20,1,0,,,,,,,,,,,,590958,,,,,,,
137880,note_on,0,0,1,,,,,,,,,,,,,,,0,,,60,60
137880,note_on,120,0,1,,,,,,,,,,,,,,,0,,,63,0
137880,set_tempo,40,1,0,,,,,,,,,,,,580271,,,,,,,
137880,note_on,120,0,2,,,,,,,,,,,,,,,0,,,48,0
138000,note_on,120,0,2,,,,,,,,,,,,,,,0,,,56,50
138000,note_on,120,0,1,,,,,,,,,,,,,,,0,,,60,0
138000,note_on,0,0,1,,,,,,,,,,,,,,,0,,,63,60
138040,set_tempo,160,1,0,,,,,,,,,,,,583090,,,,,,,
138120,note_on,0,0,1,,,,,,,,,,,,,,,0,,,68,60
138120,note_on,120,0,1,,,,,,,,,,,,,,,0,,,63,0
138120,note_on,120,0,2,,,,,,,,,,,,,,,0,,,56,0
138200,set_tempo,160,1,0,,,,,,,,,,,,585880,,,,,,,
138240,note_on,0,0,1,,,,,,,,,,,,,,,0,,,68,66
138240,note_on,120,0,1,,,,,,,,,,,,,,,0,,,68,0
138240,note_on,120,0,2,,,,,,,,,,,,,,,0,,,49,55
138340,set_tempo,140,1,0,,,,,,,,,,,,588697,,,,,,,
138360,note_on,120,0,1,,,,,,,,,,,,,,,0,,,68,0
138360,note_on,0,0,1,,,,,,,,,,,,,,,0,,,64,63
138360,note_on,120,0,2,,,,,,,,,,,,,,,0,,,49,0
138360,set_tempo,20,1,0,,,,,,,,,,,,577534,,,,,,,
138380,set_tempo,20,1,0,,,,,,,,,,,,578090,,,,,,,
138400,set_tempo,20,1,0,,,,,,,,,,,,578648,,,,,,,
138420,set_tempo,20,1,0,,,,,,,,,,,,579206,,,,,,,
138440,set_tempo,20,1,0,,,,,,,,,,,,579766,,,,,,,
138460,set_tempo,20,1,0,,,,,,,,,,,,580271,,,,,,,
138480,note_on,120,0,2,,,,,,,,,,,,,,,0,,,56,51
138480,note_on,120,0,1,,,,,,,,,,,,,,,0,,,64,0
138480,note_on,0,0,1,,,,,,,,,,,,,,,0,,,68,63
138480,set_tempo,20,1,0,,,,,,,,,,,,580889,,,,,,,
138500,set_tempo,20,1,0,,,,,,,,,,,,581395,,,,,,,
138520,set_tempo,20,1,0,,,,,,,,,,,,581959,,,,,,,
138540,set_tempo,20,1,0,,,,,,,,,,,,582524,,,,,,,
138560,set_tempo,20,1,0,,,,,,,,,,,,583090,,,,,,,
138580,set_tempo,20,1,0,,,,,,,,,,,,583658,,,,,,,
138600,note_on,120,0,2,,,,,,,,,,,,,,,0,,,56,0
138600,note_on,120,0,1,,,,,,,,,,,,,,,0,,,68,0
138600,note_on,0,0,1,,,,,,,,,,,,,,,0,,,76,63
138600,set_tempo,20,1,0,,,,,,,,,,,,584226,,,,,,,
138620,set_tempo,20,1,0,,,,,,,,,,,,584738,,,,,,,
138640,set_tempo,20,1,0,,,,,,,,,,,,585309,,,,,,,
138660,set_tempo,20,1,0,,,,,,,,,,,,585880,,,,,,,
138680,set_tempo,20,1,0,,,,,,,,,,,,586396,,,,,,,
138700,set_tempo,20,1,0,,,,,,,,,,,,587027,,,,,,,
138720,note_on,120,0,1,,,,,,,,,,,,,,,0,,,76,0
138720,note_on,0,0,1,,,,,,,,,,,,,,,0,,,68,66
138720,set_tempo,20,1,0,,,,,,,,,,,,587544,,,,,,,
138720,note_on,120,0,2,,,,,,,,,,,,,,,0,,,52,55
138740,set_tempo,20,1,0,,,,,,,,,,,,588178,,,,,,,
138760,set_tempo,20,1,0,,,,,,,,,,,,588697,,,,,,,
138780,set_tempo,20,1,0,,,,,,,,,,,,589275,,,,,,,
138800,set_tempo,20,1,0,,,,,,,,,,,,590435,,,,,,,
138840,note_on,120,0,2,,,,,,,,,,,,,,,0,,,52,0
138840,note_on,0,0,1,,,,,,,,,,,,,,,0,,,64,63
138840,set_tempo,40,1,0,,,,,,,,,,,,580271,,,,,,,
138840,note_on,120,0,1,,,,,,,,,,,,,,,0,,,68,0
138960,note_on,120,0,1,,,,,,,,,,,,,,,0,,,64,0
138960,note_on,0,0,1,,,,,,,,,,,,,,,0,,,68,63
138960,note_on,120,0,2,,,,,,,,,,,,,,,0,,,56,52
139000,set_tempo,160,1,0,,,,,,,,,,,,583090,,,,,,,
139080,note_on,0,0,1,,,,,,,,,,,,,,,0,,,73,63
139080,note_on,120,0,1,,,,,,,,,,,,,,,0,,,68,0
139080,note_on,120,0,2,,,,,,,,,,,,,,,0,,,56,0
139140,set_tempo,140,1,0,,,,,,,,,,,,585880,,,,,,,
139200,note_on,0,0,1,,,,,,,,,,,,,,,0,,,69,67
139200,note_on,120,0,1,,,,,,,,,,,,,,,0,,,73,0
139200,note_on,120,0,2,,,,,,,,,,,,,,,0,,,51,56
139280,set_tempo,140,1,0,,,,,,,,,,,,588697,,,,,,,
139320,note_on,120,0,2,,,,,,,,,,,,,,,0,,,51,0
139320,note_on,0,0,1,,,,,,,,,,,,,,,0,,,68,60
139320,note_on,120,0,1,,,,,,,,,,,,,,,0,,,69,0
139320,set_tempo,40,1,0,,,,,,,,,,,,577534,,,,,,,
139440,set_tempo,120,1,0,,,,,,,,,,,,580271,,,,,,,
139440,note_on,0,0,1,,,,,,,,,,,,,,,0,,,66,61
139440,note_on,120,0,1,,,,,,,,,,,,,,,0,,,68,0
139440,note_on,120,0,2,,,,,,,,,,,,,,,0,,,57,52
139560,note_on,120,0,1,,,,,,,,,,,,,,,0,,,66,0
139560,set_tempo,120,1,0,,,,,,,,,,,,583090,,,,,,,
139560,note_on,120,0,2,,,,,,,,,,,,,,,0,,,57,0
139560,note_on,0,0,1,,,,,,,,,,,,,,,0,,,73,62
139680,note_on,120,0,2,,,,,,,,,,,,,,,0,,,51,55
139680,note_on,120,0,1,,,,,,,,,,,,,,,0,,,73,0
139680,note_on,0,0,1,,,,,,,,,,,,,,,0,,,72,68
139680,set_tempo,120,1,0,,,,,,,,,,,,585880,,,,,,,
139800,note_on,0,0,1,,,,,,,,,,,,,,,0,,,66,65
139800,note_on,120,0,1,,,,,,,,,,,,,,,0,,,72,0
139800,note_on,120,0,2,,,,,,,,,,,,,,,0,,,51,0
139800,set_tempo,120,1,0,,,,,,,,,,,,588697,,,,,,,
139900,set_tempo,100,1,0,,,,,,,,,,,,582581,,,,,,,
139920,note_on,120,0,2,,,,,,,,,,,,,,,0,,,56,52
139920,note_on,120,0,1,,,,,,,,,,,,,,,0,,,66,0
139920,note_on,0,0,1,,,,,,,,,,,,,,,0,,,68,66
140000,set_tempo,100,1,0,,,,,,,,,,,,585480,,,,,,,
140040,note_on,120,0,2,,,,,,,,,,,,,,,0,,,56,0
140040,note_on,0,0,1,,,,,,,,,,,,,,,0,,,72,67
140040,note_on,120,0,1,,,,,,,,,,,,,,,0,,,68,0
140100,set_tempo,100,1,0,,,,,,,,,,,,588466,,,,,,,
140160,note_on,0,0,1,,,,,,,,,,,,,,,0,,,73,72
140160,note_on,120,0,1,,,,,,,,,,,,,,,0,,,72,0
140160,note_on,120,0,2,,,,,,,,,,,,,,,0,,,49,56
140200,set_tempo,100,1,0,,,,,,,,,,,,591541,,,,,,,
140280,note_on,0,0,1,,,,,,,,,,,,,,,0,,,64,63
140280,note_on,120,0,2,,,,,,,,,,,,,,,0,,,49,0
140280,set_tempo,80,1,0,,,,,,,,,,,,579654,,,,,,,
140280,note_on,120,0,1,,,,,,,,,,,,,,,0,,,73,0
140400,set_tempo,120,1,0,,,,,,,,,,,,582581,,,,,,,
140400,note_on,0,0,1,,,,,,,,,,,,,,,0,,,68,65
140400,note_on,120,0,1,,,,,,,,,,,,,,,0,,,64,0
140400,note_on,120,0,2,,,,,,,,,,,,,,,0,,,61,50
140520,note_on,120,0,2,,,,,,,,,,,,,,,0,,,61,0
140520,set_tempo,120,1,0,,,,,,,,,,,,585480,,,,,,,
140520,note_on,0,0,1,,,,,,,,,,,,,,,0,,,73,67
140520,note_on,120,0,1,,,,,,,,,,,,,,,0,,,68,0
140640,note_on,120,0,1,,,,,,,,,,,,,,,0,,,73,0
140640,note_on,0,0,1,,,,,,,,,,,,,,,0,,,76,69
140640,note_on,120,0,2,,,,,,,,,,,,,,,0,,,49,55
140640,set_tempo,120,1,0,,,,,,,,,,,,588466,,,,,,,
140760,note_on,120,0,1,,,,,,,,,,,,,,,0,,,76,0
140760,note_on,0,0,1,,,,,,,,,,,,,,,0,,,68,64
140760,note_on,120,0,2,,,,,,,,,,,,,,,0,,,49,0
140760,set_tempo,120,1,0,,,,,,,,,,,,579654,,,,,,,
140800,set_tempo,40,1,0,,,,,,,,,,,,576757,,,,,,,
140880,note_on,120,0,1,,,,,,,,,,,,,,,0,,,68,0
140880,set_tempo,80,1,0,,,,,,,,,,,,579654,,,,,,,
140880,note_on,0,0,1,,,,,,,,,,,,,,,0,,,76,66
140880,note_on,120,0,2,,,,,,,,,,,,,,,0,,,59,51
140960,set_tempo,80,1,0,,,,,,,,,,,,582581,,,,,,,
141000,note_on,0,0,1,,,,,,,,,,,,,,,0,,,80,68
141000,note_on,120,0,1,,,,,,,,,,,,,,,0,,,76,0
141000,note_on,120,0,2,,,,,,,,,,,,,,,0,,,59,0
141040,set_tempo,80,1,0,,,,,,,,,,,,585480,,,,,,,
141120,note_on,120,0,1,,,,,,,,,,,,,,,0,,,80,0
141120,note_on,0,0,1,,,,,,,,,,,,,,,0,,,76,73
141120,set_tempo,80,1,0,,,,,,,,,,,,593120,,,,,,,
141120,note_on,120,0,2,,,,,,,,,,,,,,,0,,,54,57
141200,set_tempo,80,1,0,,,,,,,,,,,,596244,,,,,,,
141240,set_tempo,40,1,0,,,,,,,,,,,,584226,,,,,,,
141240,note_on,120,0,2,,,,,,,,,,,,,,,0,,,54,0
141240,note_on,120,0,1,,,,,,,,,,,,,,,0,,,76,0
141240,note_on,0,0,1,,,,,,,,,,,,,,,0,,,69,64
141360,note_on,120,0,1,,,,,,,,,,,,,,,0,,,69,0
141360,note_on,0,0,1,,,,,,,,,,,,,,,0,,,76,66
141360,note_on,120,0,2,,,,,,,,,,,,,,,0,,,57,56
141480,note_on,120,0,2,,,,,,,,,,,,,,,0,,,57,0
141480,note_on,0,0,1,,,,,,,,,,,,,,,0,,,80,68
141480,note_on,120,0,1,,,,,,,,,,,,,,,0,,,76,0
141600,note_on,0,0,1,,,,,,,,,,,,,,,0,,,74,70
141600,note_on,120,0,2,,,,,,,,,,,,,,,0,,,54,57
141600,note_on,120,0,1,,,,,,,,,,,,,,,0,,,80,0
141720,note_on,0,0,1,,,,,,,,,,,,,,,0,,,78,67
141720,note_on,120,0,1,,,,,,,,,,,,,,,0,,,74,0
141720,note_on,120,0,2,,,,,,,,,,,,,,,0,,,54,0
141840,note_on,120,0,2,,,,,,,,,,,,,,,0,,,57,54
141840,note_on,120,0,1,,,,,,,,,,,,,,,0,,,78,0
141840,note_on,0,0,1,,,,,,,,,,,,,,,0,,,73,70
141960,note_on,120,0,2,,,,,,,,,,,,,,,0,,,57,0
141960,note_on,0,0,1,,,,,,,,,,,,,,,0,,,76,67
141960,note_on,120,0,1,,,,,,,,,,,,,,,0,,,73,0
142080,set_tempo,840,1,0,,,,,,,,,,,,579654,,,,,,,
142080,note_on,120,0,2,,,,,,,,,,,,,,,0,,,45,58
142080,note_on,0,0,1,,,,,,,,,,,,,,,0,,,72,68
142080,note_on,120,0,1,,,,,,,,,,,,,,,0,,,76,0
142200,set_tempo,120,1,0,,,,,,,,,,,,582355,,,,,,,
142200,note_on,0,0,1,,,,,,,,,,,,,,,0,,,75,65
142200,note_on,120,0,1,,,,,,,,,,,,,,,0,,,72,0
142200,note_on,120,0,2,,,,,,,,,,,,,,,0,,,45,0
142300,set_tempo,100,1,0,,,,,,,,,,,,584966,,,,,,,
142320,note_on,120,0,2,,,,,,,,,,,,,,,0,,,54,54
142320,note_on,0,0,1,,,,,,,,,,,,,,,0,,,73,67
142320,note_on,120,0,1,,,,,,,,,,,,,,,0,,,75,0
142400,set_tempo,100,1,0,,,,,,,,,,,,587659,,,,,,,
142440,note_on,120,0,2,,,,,,,,,,,,,,,0,,,54,0
142440,note_on,0,0,1,,,,,,,,,,,,,,,0,,,76,65
142440,note_on,120,0,1,,,,,,,,,,,,,,,0,,,73,0
142500,set_tempo,100,1,0,,,,,,,,,,,,590377,,,,,,,
142560,note_on,0,0,1,,,,,,,,,,,,,,,0,,,75,68
142560,note_on,120,0,1,,,,,,,,,,,,,,,0,,,76,0
142560,note_on,120,0,2,,,,,,,,,,,,,,,0,,,44,56
142600,set_tempo,100,1,0,,,,,,,,,,,,593061,,,,,,,
142680,note_on,120,0,2,,,,,,,,,,,,,,,0,,,44,0
142680,note_on,0,0,1,,,,,,,,,,,,,,,0,,,78,64
142680,note_on,120,0,1,,,,,,,,,,,,,,,0,,,75,0
142700,set_tempo,100,1,0,,,,,,,,,,,,595829,,,,,,,
142800,note_on,0,0,1,,,,,,,,,,,,,,,0,,,72,69
142800,note_on,120,0,1,,,,,,,,,,,,,,,0,,,78,0
142800,set_tempo,100,1,0,,,,,,,,,,,,598623,,,,,,,
142800,note_on,120,0,2,,,,,,,,,,,,,,,0,,,56,54
142900,set_tempo,100,1,0,,,,,,,,,,,,601383,,,,,,,
142920,set_tempo,20,1,0,,,,,,,,,,,,621697,,,,,,,
142920,note_on,0,0,1,,,,,,,,,,,,,,,0,,,75,64
142920,note_on,120,0,1,,,,,,,,,,,,,,,0,,,72,0
142920,note_on,120,0,2,,,,,,,,,,,,,,,0,,,56,0
143000,set_tempo,80,1,0,,,,,,,,,,,,604230,,,,,,,
143040,set_tempo,40,1,0,,,,,,,,,,,,582355,,,,,,,
143040,note_on,120,0,1,,,,,,,,,,,,,,,0,,,75,0
143040,note_on,0,0,1,,,,,,,,,,,,,,,0,,,76,68
143040,note_on,120,0,2,,,,,,,,,,,,,,,0,,,49,54
143060,set_tempo,20,1,0,,,,,,,,,,,,584966,,,,,,,
143140,set_tempo,80,1,0,,,,,,,,,,,,587659,,,,,,,
143160,note_on,120,0,2,,,,,,,,,,,,,,,0,,,49,0
143160,note_on,120,0,1,,,,,,,,,,,,,,,0,,,76,0
143160,note_on,0,0,1,,,,,,,,,,,,,,,0,,,73,67
143220,set_tempo,80,1,0,,,,,,,,,,,,590377,,,,,,,
143280,set_tempo,60,1,0,,,,,,,,,,,,593061,,,,,,,
143280,note_on,120,0,1,,,,,,,,,,,,,,,0,,,73,0
143280,note_on,0,0,1,,,,,,,,,,,,,,,0,,,71,66
143280,note_on,120,0,2,,,,,,,,,,,,,,,0,,,51,54
143360,set_tempo,80,1,0,,,,,,,,,,,,595829,,,,,,,
143400,note_on,120,0,1,,,,,,,,,,,,,,,0,,,71,0
143400,note_on,0,0,1,,,,,,,,,,,,,,,0,,,69,64
143400,note_on,120,0,2,,,,,,,,,,,,,,,0,,,51,0
143440,set_tempo,80,1,0,,,,,,,,,,,,598623,,,,,,,
143500,set_tempo,60,1,0,,,,,,,,,,,,601383,,,,,,,
143520,note_on,120,0,2,,,,,,,,,,,,,,,0,,,52,55
143520,note_on,120,0,1,,,,,,,,,,,,,,,0,,,69,0
143520,note_on,0,0,1,,,,,,,,,,,,,,,0,,,68,63
143580,set_tempo,80,1,0,,,,,,,,,,,,604230,,,,,,,
143640,note_on,120,0,1,,,,,,,,,,,,,,,0,,,68,0
143640,note_on,120,0,2,,,,,,,,,,,,,,,0,,,52,0
143640,note_on,0,0,1,,,,,,,,,,,,,,,0,,,66,62
143640,set_tempo,60,1,0,,,,,,,,,,,,607042,,,,,,,
143720,set_tempo,80,1,0,,,,,,,,,,,,609880,,,,,,,
143760,note_on,120,0,2,,,,,,,,,,,,,,,0,,,56,56
143760,note_on,120,0,1,,,,,,,,,,,,,,,0,,,66,0
143760,note_on,0,0,1,,,,,,,,,,,,,,,0,,,64,60
143800,set_tempo,80,1,0,,,,,,,,,,,,612870,,,,,,,
143860,set_tempo,60,1,0,,,,,,,,,,,,615700,,,,,,,
143880,note_on,0,0,1,,,,,,,,,,,,,,,0,,,63,59
143880,note_on,120,0,1,,,,,,,,,,,,,,,0,,,64,0
143880,note_on,120,0,2,,,,,,,,,,,,,,,0,,,56,0
143940,set_tempo,80,1,0,,,,,,,,,,,,618748,,,,,,,
144000,note_on,120,0,2,,,,,,,,,,,,,,,0,,,49,51
144000,note_on,120,0,1,,,,,,,,,,,,,,,0,,,63,0
144000,note_on,0,0,1,,,,,,,,,,,,,,,0,,,64,62
144000,set_tempo,60,1,0,,,,,,,,,,,,628009,,,,,,,
144120,note_on,120,0,2,,,,,,,,,,,,,,,0,,,49,0
144120,note_on,120,0,1,,,,,,,,,,,,,,,0,,,64,0
144120,set_tempo,120,1,0,,,,,,,,,,,,593648,,,,,,,
144120,note_on,0,0,1,,,,,,,,,,,,,,,0,,,61,57
144240,note_on,0,0,1,,,,,,,,,,,,,,,0,,,64,57
144240,note_on,120,0,2,,,,,,,,,,,,,,,0,,,56,47
144240,note_on,120,0,1,,,,,,,,,,,,,,,0,,,61,0
144280,set_tempo,160,1,0,,,,,,,,,,,,596540,,,,,,,
144360,note_on,120,0,1,,,,,,,,,,,,,,,0,,,64,0
144360,note_on,120,0,2,,,,,,,,,,,,,,,0,,,56,0
144360,note_on,0,0,1,,,,,,,,,,,,,,,0,,,68,57
144440,set_tempo,160,1,0,,,,,,,,,,,,599401,,,,,,,
144480,note_on,120,0,2,,,,,,,,,,,,,,,0,,,49,51
144480,note_on,0,0,1,,,,,,,,,,,,,,,0,,,64,60
144480,note_on,120,0,1,,,,,,,,,,,,,,,0,,,68,0
144580,set_tempo,140,1,0,,,,,,,,,,,,590842,,,,,,,
144600,note_on,120,0,1,,,,,,,,,,,,,,,0,,,64,0
144600,note_on,120,0,2,,,,,,,,,,,,,,,0,,,49,0
144600,note_on,0,0,1,,,,,,,,,,,,,,,0,,,61,57
144700,set_tempo,120,1,0,,,,,,,,,,,,593648,,,,,,,
144720,note_on,120,0,1,,,,,,,,,,,,,,,0,,,61,0
144720,note_on,0,0,1,,,,,,,,,,,,,,,0,,,64,57
144720,note_on,120,0,2,,,,,,,,,,,,,,,0,,,57,47
144820,set_tempo,120,1,0,,,,,,,,,,,,596540,,,,,,,
144840,note_on,120,0,1,,,,,,,,,,,,,,,0,,,64,0
144840,note_on,0,0,1,,,,,,,,,,,,,,,0,,,69,57
144840,note_on,120,0,2,,,,,,,,,,,,,,,0,,,57,0
144960,note_on,120,0,1,,,,,,,,,,,,,,,0,,,69,0
144960,note_on,0,0,1,,,,,,,,,,,,,,,0,,,63,59
144960,note_on,120,0,2,,,,,,,,,,,,,,,0,,,47,51
145080,set_tempo,260,1,0,,,,,,,,,,,,590842,,,,,,,
145080,note_on,0,0,1,,,,,,,,,,,,,,,0,,,59,57
145080,note_on,120,0,1,,,,,,,,,,,,,,,0,,,63,0
145080,note_on,120,0,2,,,,,,,,,,,,,,,0,,,47,0
145180,set_tempo,100,1,0,,,,,,,,,,,,593648,,,,,,,
145200,note_on,120,0,1,,,,,,,,,,,,,,,0,,,59,0
145200,note_on,0,0,1,,,,,,,,,,,,,,,0,,,63,57
145200,note_on,120,0,2,,,,,,,,,,,,,,,0,,,57,48
145280,set_tempo,100,1,0,,,,,,,,,,,,596540,,,,,,,
145320,note_on,0,0,1,,,,,,,,,,,,,,,0,,,69,57
145320,note_on,120,0,1,,,,,,,,,,,,,,,0,,,63,0
145320,note_on,120,0,2,,,,,,,,,,,,,,,0,,,57,0
145380,set_tempo,100,1,0,,,,,,,,,,,,599401,,,,,,,
145440,note_on,0,0,1,,,,,,,,,,,,,,,0,,,63,59
145440,note_on,120,0,2,,,,,,,,,,,,,,,0,,,47,51
145440,note_on,120,0,1,,,,,,,,,,,,,,,0,,,69,0
145480,set_tempo,100,1,0,,,,,,,,,,,,602228,,,,,,,
145560,note_on,0,0,1,,,,,,,,,,,,,,,0,,,59,57
145560,note_on,120,0,2,,,,,,,,,,,,,,,0,,,47,0
145560,set_tempo,80,1,0,,,,,,,,,,,,593648,,,,,,,
145560,note_on,120,0,1,,,,,,,,,,,,,,,0,,,63,0
145680,note_on,120,0,2,,,,,,,,,,,,,,,0,,,56,47
145680,note_on,120,0,1,,,,,,,,,,,,,,,0,,,59,0
145680,note_on,0,0,1,,,,,,,,,,,,,,,0,,,63,57
145720,set_tempo,160,1,0,,,,,,,,,,,,596540,,,,,,,
145800,note_on,120,0,2,,,,,,,,,,,,,,,0,,,56,0
145800,note_on,120,0,1,,,,,,,,,,,,,,,0,,,63,0
145800,note_on,0,0,1,,,,,,,,,,,,,,,0,,,68,57
145860,set_tempo,140,1,0,,,,,,,,,,,,599401,,,,,,,
145920,note_on,0,0,1,,,,,,,,,,,,,,,0,,,68,62
145920,note_on,120,0,2,,,,,,,,,,,,,,,0,,,52,52
145920,note_on,120,0,1,,,,,,,,,,,,,,,0,,,68,0
146000,set_tempo,140,1,0,,,,,,,,,,,,602228,,,,,,,
146040,note_on,0,0,1,,,,,,,,,,,,,,,0,,,61,59
146040,note_on,120,0,2,,,,,,,,,,,,,,,0,,,52,0
146040,note_on,120,0,1,,,,,,,,,,,,,,,0,,,68,0
146040,set_tempo,40,1,0,,,,,,,,,,,,590842,,,,,,,
146160,note_on,120,0,1,,,,,,,,,,,,,,,0,,,61,0
146160,set_tempo,120,1,0,,,,,,,,,,,,593648,,,,,,,
146160,note_on,120,0,2,,,,,,,,,,,,,,,0,,,56,48
146160,note_on,0,0,1,,,,,,,,,,,,,,,0,,,68,59
146280,set_tempo,120,1,0,,,,,,,,,,,,596540,,,,,,,
146280,note_on,120,0,2,,,,,,,,,,,,,,,0,,,56,0
146280,note_on,120,0,1,,,,,,,,,,,,,,,0,,,68,0
146280,note_on,0,0,1,,,,,,,,,,,,,,,0,,,73,59
146400,note_on,120,0,1,,,,,,,,,,,,,,,0,,,73,0
146400,note_on,0,0,1,,,,,,,,,,,,,,,0,,,66,62
146400,set_tempo,120,1,0,,,,,,,,,,,,599401,,,,,,,
146400,note_on,120,0,2,,,,,,,,,,,,,,,0,,,45,52
146500,set_tempo,100,1,0,,,,,,,,,,,,602228,,,,,,,
146520,set_tempo,20,1,0,,,,,,,,,,,,593648,,,,,,,
146520,note_on,120,0,1,,,,,,,,,,,,,,,0,,,66,0
146520,note_on,0,0,1,,,,,,,,,,,,,,,0,,,63,59
146520,note_on,120,0,2,,,,,,,,,,,,,,,0,,,45,0
146640,note_on,120,0,2,,,,,,,,,,,,,,,0,,,57,49
146640,note_on,120,0,1,,,,,,,,,,,,,,,0,,,63,0
146640,note_on,0,0,1,,,,,,,,,,,,,,,0,,,66,59
146680,set_tempo,160,1,0,,,,,,,,,,,,596540,,,,,,,
146760,note_on,120,0,1,,,,,,,,,,,,,,,0,,,66,0
146760,note_on,0,0,1,,,,,,,,,,,,,,,0,,,73,59
146760,note_on,120,0,2,,,,,,,,,,,,,,,0,,,57,0
146840,set_tempo,160,1,0,,,,,,,,,,,,599401,,,,,,,
146880,note_on,120,0,2,,,,,,,,,,,,,,,0,,,44,51
146880,note_on,0,0,1,,,,,,,,,,,,,,,0,,,68,63
146880,note_on,120,0,1,,,,,,,,,,,,,,,0,,,73,0
146980,set_tempo,140,1,0,,,,,,,,,,,,602228,,,,,,,
147000,note_on,120,0,2,,,,,,,,,,,,,,,0,,,44,0
147000,note_on,0,0,1,,,,,,,,,,,,,,,0,,,64,59
147000,note_on,120,0,1,,,,,,,,,,,,,,,0,,,68,0
147000,set_tempo,20,1,0,,,,,,,,,,,,588062,,,,,,,
147100,set_tempo,100,1,0,,,,,,,,,,,,590842,,,,,,,
147120,note_on,120,0,2,,,,,,,,,,,,,,,0,,,59,49
147120,note_on,120,0,1,,,,,,,,,,,,,,,0,,,64,0
147120,note_on,0,0,1,,,,,,,,,,,,,,,0,,,68,59
147200,set_tempo,100,1,0,,,,,,,,,,,,593648,,,,,,,
147240,note_on,120,0,1,,,,,,,,,,,,,,,0,,,68,0
147240,note_on,0,0,1,,,,,,,,,,,,,,,0,,,73,59
147240,note_on,120,0,2,,,,,,,,,,,,,,,0,,,59,0
147280,set_tempo,80,1,0,,,,,,,,,,,,596540,,,,,,,
147360,note_on,120,0,1,,,,,,,,,,,,,,,0,,,73,0
147360,note_on,0,0,1,,,,,,,,,,,,,,,0,,,68,62
147360,note_on,120,0,2,,,,,,,,,,,,,,,0,,,56,52
147360,set_tempo,80,1,0,,,,,,,,,,,,590842,,,,,,,
147480,note_on,120,0,1,,,,,,,,,,,,,,,0,,,68,0
147480,note_on,0,0,1,,,,,,,,,,,,,,,0,,,64,60
147480,note_on,120,0,2,,,,,,,,,,,,,,,0,,,56,0
147500,set_tempo,140,1,0,,,,,,,,,,,,593648,,,,,,,
147600,note_on,120,0,2,,,,,,,,,,,,,,,0,,,59,49
147600,note_on,0,0,1,,,,,,,,,,,,,,,0,,,68,60
147600,note_on,120,0,1,,,,,,,,,,,,,,,0,,,64,0
147640,set_tempo,140,1,0,,,,,,,,,,,,596540,,,,,,,
147720,note_on,120,0,1,,,,,,,,,,,,,,,0,,,68,0
147720,note_on,120,0,2,,,,,,,,,,,,,,,0,,,59,0
147720,note_on,0,0,1,,,,,,,,,,,,,,,0,,,71,60
147780,set_tempo,140,1,0,,,,,,,,,,,,599401,,,,,,,
147840,note_on,120,0,2,,,,,,,,,,,,,,,0,,,49,52
147840,note_on,120,0,1,,,,,,,,,,,,,,,0,,,71,0
147840,note_on,0,0,1,,,,,,,,,,,,,,,0,,,67,68
147900,set_tempo,120,1,0,,,,,,,,,,,,602228,,,,,,,
147960,note_on,120,0,2,,,,,,,,,,,,,,,0,,,49,0
147960,note_on,0,0,1,,,,,,,,,,,,,,,0,,,64,59
147960,set_tempo,60,1,0,,,,,,,,,,,,593003,,,,,,,
147960,note_on,120,0,1,,,,,,,,,,,,,,,0,,,67,0
148080,note_on,120,0,1,,,,,,,,,,,,,,,0,,,64,0
148080,set_tempo,120,1,0,,,,,,,,,,,,596007,,,,,,,
148080,note_on,120,0,2,,,,,,,,,,,,,,,0,,,52,47
148080,note_on,0,0,1,,,,,,,,,,,,,,,0,,,67,61
148200,note_on,120,0,2,,,,,,,,,,,,,,,0,,,52,0
148200,note_on,0,0,1,,,,,,,,,,,,,,,0,,,70,63
148200,note_on,120,0,1,,,,,,,,,,,,,,,0,,,67,0
148200,set_tempo,120,1,0,,,,,,,,,,,,598922,,,,,,,
148320,note_on,120,0,2,,,,,,,,,,,,,,,0,,,48,52
148320,note_on,120,0,1,,,,,,,,,,,,,,,0,,,70,0
148320,note_on,0,0,1,,,,,,,,,,,,,,,0,,,76,65
148320,set_tempo,120,1,0,,,,,,,,,,,,601987,,,,,,,
148440,set_tempo,120,1,0,,,,,,,,,,,,593003,,,,,,,
148440,note_on,120,0,1,,,,,,,,,,,,,,,0,,,76,0
148440,note_on,0,0,1,,,,,,,,,,,,,,,0,,,70,60
148440,note_on,120,0,2,,,,,,,,,,,,,,,0,,,48,0
148480,set_tempo,40,1,0,,,,,,,,,,,,590029,,,,,,,
148560,note_on,0,0,1,,,,,,,,,,,,,,,0,,,76,62
148560,note_on,120,0,2,,,,,,,,,,,,,,,0,,,58,44
148560,set_tempo,80,1,0,,,,,,,,,,,,593003,,,,,,,
148560,note_on,120,0,1,,,,,,,,,,,,,,,0,,,70,0
148640,set_tempo,80,1,0,,,,,,,,,,,,596007,,,,,,,
148680,note_on,120,0,1,,,,,,,,,,,,,,,0,,,76,0
148680,note_on,120,0,2,,,,,,,,,,,,,,,0,,,58,0
148680,note_on,0,0,1,,,,,,,,,,,,,,,0,,,79,64
148720,set_tempo,80,1,0,,,,,,,,,,,,598922,,,,,,,
148800,set_tempo,80,1,0,,,,,,,,,,,,590842,,,,,,,
148800,note_on,120,0,2,,,,,,,,,,,,,,,0,,,47,48
148800,note_on,120,0,1,,,,,,,,,,,,,,,0,,,79,0
148800,note_on,0,0,1,,,,,,,,,,,,,,,0,,,75,64
148920,note_on,120,0,2,,,,,,,,,,,,,,,0,,,47,0
148920,note_on,120,0,1,,,,,,,,,,,,,,,0,,,75,0
148920,note_on,0,0,1,,,,,,,,,,,,,,,0,,,79,62
148940,set_tempo,140,1,0,,,,,,,,,,,,593648,,,,,,,
149040,note_on,0,0,1,,,,,,,,,,,,,,,0,,,75,63
149040,note_on,120,0,1,,,,,,,,,,,,,,,0,,,79,0
149040,note_on,120,0,2,,,,,,,,,,,,,,,0,,,59,45
149080,set_tempo,140,1,0,,,,,,,,,,,,596540,,,,,,,
149160,note_on,0,0,1,,,,,,,,,,,,,,,0,,,78,61
149160,note_on,120,0,1,,,,,,,,,,,,,,,0,,,75,0
149160,note_on,120,0,2,,,,,,,,,,,,,,,0,,,59,0
149220,set_tempo,140,1,0,,,,,,,,,,,,599401,,,,,,,
149280,note_on,0,0,1,,,,,,,,,,,,,,,0,,,69,62
149280,note_on,120,0,1,,,,,,,,,,,,,,,0,,,78,0
149280,note_on,120,0,2,,,,,,,,,,,,,,,0,,,48,48
149340,set_tempo,120,1,0,,,,,,,,,,,,602228,,,,,,,
149400,note_on,0,0,1,,,,,,,,,,,,,,,0,,,76,61
149400,note_on,120,0,1,,,,,,,,,,,,,,,0,,,69,0
149400,note_on,120,0,2,,,,,,,,,,,,,,,0,,,48,0
149480,set_tempo,140,1,0,,,,,,,,,,,,605205,,,,,,,
149520,note_on,120,0,2,,,,,,,,,,,,,,,0,,,54,43
149520,note_on,120,0,1,,,,,,,,,,,,,,,0,,,76,0
149520,note_on,0,0,1,,,,,,,,,,,,,,,0,,,69,62
149620,set_tempo,140,1,0,,,,,,,,,,,,608149,,,,,,,
149640,note_on,120,0,2,,,,,,,,,,,,,,,0,,,54,0
149640,note_on,0,0,1,,,,,,,,,,,,,,,0,,,75,60
149640,note_on,120,0,1,,,,,,,,,,,,,,,0,,,69,0
149740,set_tempo,120,1,0,,,,,,,,,,,,611122,,,,,,,
149760,note_on,0,0,1,,,,,,,,,,,,,,,0,,,69,59
149760,note_on,120,0,1,,,,,,,,,,,,,,,0,,,75,0
149760,note_on,120,0,2,,,,,,,,,,,,,,,0,,,49,45
149880,note_on,120,0,1,,,,,,,,,,,,,,,0,,,69,0
149880,note_on,120,0,2,,,,,,,,,,,,,,,0,,,49,0
149880,set_tempo,140,1,0,,,,,,,,,,,,614125,,,,,,,
149880,note_on,0,0,1,,,,,,,,,,,,,,,0,,,78,56
150000,note_on,120,0,1,,,,,,,,,,,,,,,0,,,78,0
150000,note_on,120,0,2,,,,,,,,,,,,,,,0,,,52,39
150000,note_on,0,0,1,,,,,,,,,,,,,,,0,,,68,59
150020,set_tempo,140,1,0,,,,,,,,,,,,617157,,,,,,,
150120,note_on,120,0,1,,,,,,,,,,,,,,,0,,,68,0
150120,note_on,0,0,1,,,,,,,,,,,,,,,0,,,76,56
150120,note_on,120,0,2,,,,,,,,,,,,,,,0,,,52,0
150160,set_tempo,140,1,0,,,,,,,,,,,,620219,,,,,,,
150240,note_on,120,0,2,,,,,,,,,,,,,,,0,,,45,46
150240,note_on,0,0,1,,,,,,,,,,,,,,,0,,,64,58
150240,note_on,120,0,1,,,,,,,,,,,,,,,0,,,76,0
150280,set_tempo,120,1,0,,,,,,,,,,,,623377,,,,,,,
150360,note_on,120,0,1,,,,,,,,,,,,,,,0,,,64,0
150360,note_on,0,0,1,,,,,,,,,,,,,,,0,,,73,55
150360,note_on,120,0,2,,,,,,,,,,,,,,,0,,,45,0
150420,set_tempo,140,1,0,,,,,,,,,,,,626436,,,,,,,
150480,note_on,120,0,1,,,,,,,,,,,,,,,0,,,73,0
150480,note_on,0,0,1,,,,,,,,,,,,,,,0,,,61,57
150480,note_on,120,0,2,,,,,,,,,,,,,,,0,,,54,40
150560,set_tempo,140,1,0,,,,,,,,,,,,629657,,,,,,,
150600,note_on,120,0,2,,,,,,,,,,,,,,,0,,,54,0
150600,note_on,120,0,1,,,,,,,,,,,,,,,0,,,61,0
150600,note_on,0,0,1,,,,,,,,,,,,,,,0,,,69,55
150680,set_tempo,120,1,0,,,,,,,,,,,,628272,,,,,,,
150700,set_tempo,20,1,0,,,,,,,,,,,,631579,,,,,,,
150720,note_on,120,0,2,,,,,,,,,,,,,,,0,,,47,46
150720,note_on,120,0,1,,,,,,,,,,,,,,,0,,,69,0
150720,note_on,0,0,1,,,,,,,,,,,,,,,0,,,59,57
150820,set_tempo,120,1,0,,,,,,,,,,,,628272,,,,,,,
150840,note_on,0,0,1,,,,,,,,,,,,,,,0,,,68,55
150840,note_on,120,0,1,,,,,,,,,,,,,,,0,,,59,0
150840,note_on,120,0,2,,,,,,,,,,,,,,,0,,,47,0
150920,set_tempo,100,1,0,,,,,,,,,,,,625000,,,,,,,
150960,note_on,120,0,1,,,,,,,,,,,,,,,0,,,68,0
150960,note_on,120,0,2,,,,,,,,,,,,,,,0,,,56,43
150960,note_on,0,0,1,,,,,,,,,,,,,,,0,,,64,57
151020,set_tempo,100,1,0,,,,,,,,,,,,621762,,,,,,,
151080,note_on,120,0,1,,,,,,,,,,,,,,,0,,,64,0
151080,note_on,120,0,2,,,,,,,,,,,,,,,0,,,56,0
151080,note_on,0,0,1,,,,,,,,,,,,,,,0,,,71,56
151140,set_tempo,120,1,0,,,,,,,,,,,,618557,,,,,,,
151200,note_on,120,0,1,,,,,,,,,,,,,,,0,,,71,0
151200,note_on,0,0,1,,,,,,,,,,,,,,,0,,,59,57
151200,note_on,120,0,2,,,,,,,,,,,,,,,0,,,47,45
151240,set_tempo,100,1,0,,,,,,,,,,,,615385,,,,,,,
151320,note_on,120,0,2,,,,,,,,,,,,,,,0,,,47,0
151320,note_on,0,0,1,,,,,,,,,,,,,,,0,,,69,56
151320,note_on,120,0,1,,,,,,,,,,,,,,,0,,,59,0
151340,set_tempo,100,1,0,,,,,,,,,,,,612245,,,,,,,
151440,set_tempo,100,1,0,,,,,,,,,,,,609137,,,,,,,
151440,note_on,120,0,2,,,,,,,,,,,,,,,0,,,57,41
151440,note_on,0,0,1,,,,,,,,,,,,,,,0,,,63,57
151440,note_on,120,0,1,,,,,,,,,,,,,,,0,,,69,0
151560,set_tempo,120,1,0,,,,,,,,,,,,606061,,,,,,,
151560,note_on,120,0,2,,,,,,,,,,,,,,,0,,,57,0
151560,note_on,0,0,1,,,,,,,,,,,,,,,0,,,71,56
151560,note_on,120,0,1,,,,,,,,,,,,,,,0,,,63,0
151660,set_tempo,100,1,0,,,,,,,,,,,,603015,,,,,,,
151680,note_on,120,0,2,,,,,,,,,,,,,,,0,,,47,46
151680,note_on,0,0,1,,,,,,,,,,,,,,,0,,,69,57
151680,note_on,120,0,1,,,,,,,,,,,,,,,0,,,71,0
151760,set_tempo,100,1,0,,,,,,,,,,,,600000,,,,,,,
151800,note_on,120,0,2,,,,,,,,,,,,,,,0,,,47,0
151800,note_on,120,0,1,,,,,,,,,,,,,,,0,,,63,54
151860,set_tempo,100,1,0,,,,,,,,,,,,597015,,,,,,,
151920,note_on,120,0,2,,,,,,,,,,,,,,,0,,,54,39
151920,note_on,120,0,1,,,,,,,,,,,,,,,0,,,63,0
151920,note_on,0,0,1,,,,,,,,,,,,,,,0,,,59,54
152000,set_tempo,140,1,0,,,,,,,,,,,,597015,,,,,,,
152040,note_on,0,0,1,,,,,,,,,,,,,,,0,,,69,0
152040,note_on,120,0,1,,,,,,,,,,,,,,,0,,,59,0
152040,note_on,0,0,1,,,,,,,,,,,,,,,0,,,69,57
152040,note_on,120,0,2,,,,,,,,,,,,,,,0,,,54,0
152160,note_on,120,0,2,,,,,,,,,,,,,,,0,,,52,47
152160,note_on,0,0,1,,,,,,,,,,,,,,,0,,,68,57
152160,note_on,120,0,1,,,,,,,,,,,,,,,0,,,69,0
152160,set_tempo,160,1,0,,,,,,,,,,,,600000,,,,,,,
152280,note_on,120,0,2,,,,,,,,,,,,,,,0,,,52,0
152280,note_on,0,0,1,,,,,,,,,,,,,,,0,,,64,53
152280,note_on,120,0,1,,,,,,,,,,,,,,,0,,,68,0
152320,set_tempo,160,1,0,,,,,,,,,,,,603015,,,,,,,
152360,set_tempo,40,1,0,,,,,,,,,,,,588235,,,,,,,
152400,note_on,0,0,1,,,,,,,,,,,,,,,0,,,68,55
152400,note_on,120,0,2,,,,,,,,,,,,,,,0,,,54,41
152400,note_on,120,0,1,,,,,,,,,,,,,,,0,,,64,0
152440,set_tempo,80,1,0,,,,,,,,,,,,591133,,,,,,,
152520,note_on,120,0,2,,,,,,,,,,,,,,,0,,,54,0
152520,set_tempo,80,1,0,,,,,,,,,,,,594059,,,,,,,
152520,note_on,120,0,1,,,,,,,,,,,,,,,0,,,68,0
152520,note_on,0,0,1,,,,,,,,,,,,,,,0,,,69,57
152580,set_tempo,60,1,0,,,,,,,,,,,,597015,,,,,,,
152600,set_tempo,20,1,0,,,,,,,,,,,,593472,,,,,,,
152620,set_tempo,20,1,0,,,,,,,,,,,,604047,,,,,,,
152640,note_on,120,0,1,,,,,,,,,,,,,,,0,,,69,0
152640,note_on,120,0,2,,,,,,,,,,,,,,,0,,,56,45
152640,set_tempo,20,1,0,,,,,,,,,,,,609137,,,,,,,
152640,note_on,0,0,1,,,,,,,,,,,,,,,0,,,71,59
152760,note_on,120,0,2,,,,,,,,,,,,,,,0,,,56,0
152760,set_tempo,120,1,0,,,,,,,,,,,,612245,,,,,,,
152760,note_on,120,0,1,,,,,,,,,,,,,,,0,,,71,0
152760,note_on,0,0,1,,,,,,,,,,,,,,,0,,,68,50
152880,note_on,120,0,2,,,,,,,,,,,,,,,0,,,59,36
152880,set_tempo,120,1,0,,,,,,,,,,,,615385,,,,,,,
152880,note_on,120,0,1,,,,,,,,,,,,,,,0,,,68,0
152880,note_on,0,0,1,,,,,,,,,,,,,,,0,,,71,53
153000,note_on,0,0,1,,,,,,,,,,,,,,,0,,,80,46
153000,note_on,120,0,2,,,,,,,,,,,,,,,0,,,59,0
153000,note_on,120,0,1,,,,,,,,,,,,,,,0,,,71,0
153120,set_tempo,240,1,0,,,,,,,,,,,,603015,,,,,,,
153120,note_on,0,0,1,,,,,,,,,,,,,,,0,,,71,49
153120,note_on,120,0,2,,,,,,,,,,,,,,,0,,,56,34
153120,note_on,120,0,1,,,,,,,,,,,,,,,0,,,80,0
153240,note_on,0,0,1,,,,,,,,,,,,,,,0,,,78,44
153240,note_on,120,0,1,,,,,,,,,,,,,,,0,,,71,0
153240,note_on,120,0,2,,,,,,,,,,,,,,,0,,,56,0
153360,note_on,120,0,1,,,,,,,,,,,,,,,0,,,78,0
153360,note_on,0,0,1,,,,,,,,,,,,,,,0,,,72,49
153360,note_on,120,0,2,,,,,,,,,,,,,,,0,,,64,31
153480,note_on,120,0,2,,,,,,,,,,,,,,,0,,,64,0
153480,note_on,120,0,1,,,,,,,,,,,,,,,0,,,72,0
153480,note_on,0,0,1,,,,,,,,,,,,,,,0,,,76,46
153600,note_on,120,0,2,,,,,,,,,,,,,,,0,,,57,45
153600,set_tempo,480,1,0,,,,,,,,,,,,646482,,,,,,,
153600,note_on,120,0,1,,,,,,,,,,,,,,,0,,,76,0
153600,note_on,0,0,1,,,,,,,,,,,,,,,0,,,73,53
153720,note_on,0,0,1,,,,,,,,,,,,,,,0,,,64,56
153720,note_on,120,0,1,,,,,,,,,,,,,,,0,,,73,0
153720,note_on,120,0,2,,,,,,,,,,,,,,,0,,,57,0
153720,set_tempo,120,1,0,,,,,,,,,,,,630583,,,,,,,
153840,note_on,120,0,2,,,,,,,,,,,,,,,0,,,45,40
153840,note_on,120,0,1,,,,,,,,,,,,,,,0,,,64,0
153840,note_on,0,0,1,,,,,,,,,,,,,,,0,,,73,54
153880,set_tempo,160,1,0,,,,,,,,,,,,633580,,,,,,,
153960,note_on,120,0,2,,,,,,,,,,,,,,,0,,,45,0
153960,note_on,120,0,1,,,,,,,,,,,,,,,0,,,73,0
153960,note_on,0,0,1,,,,,,,,,,,,,,,0,,,76,55
154040,set_tempo,160,1,0,,,,,,,,,,,,636605,,,,,,,
154080,note_on,120,0,2,,,,,,,,,,,,,,,0,,,47,41
154080,note_on,0,0,1,,,,,,,,,,,,,,,0,,,71,59
154080,note_on,120,0,1,,,,,,,,,,,,,,,0,,,76,0
154200,note_on,120,0,1,,,,,,,,,,,,,,,0,,,71,0
154200,note_on,120,0,2,,,,,,,,,,,,,,,0,,,47,0
154200,set_tempo,160,1,0,,,,,,,,,,,,627615,,,,,,,
154200,note_on,0,0,1,,,,,,,,,,,,,,,0,,,75,54
154300,set_tempo,100,1,0,,,,,,,,,,,,630583,,,,,,,
154320,note_on,120,0,1,,,,,,,,,,,,,,,0,,,75,0
154320,note_on,120,0,2,,,,,,,,,,,,,,,0,,,49,42
154320,note_on,0,0,1,,,,,,,,,,,,,,,0,,,69,57
154400,set_tempo,100,1,0,,,,,,,,,,,,633580,,,,,,,
154440,note_on,120,0,1,,,,,,,,,,,,,,,0,,,69,0
154440,note_on,0,0,1,,,,,,,,,,,,,,,0,,,73,54
154440,note_on,120,0,2,,,,,,,,,,,,,,,0,,,49,0
154500,set_tempo,100,1,0,,,,,,,,,,,,636605,,,,,,,
154560,note_on,120,0,1,,,,,,,,,,,,,,,0,,,73,0
154560,note_on,120,0,2,,,,,,,,,,,,,,,0,,,47,45
154560,note_on,0,0,1,,,,,,,,,,,,,,,0,,,68,57
154600,set_tempo,100,1,0,,,,,,,,,,,,639659,,,,,,,
154680,note_on,120,0,2,,,,,,,,,,,,,,,0,,,47,0
154680,note_on,120,0,1,,,,,,,,,,,,,,,0,,,68,0
154680,note_on,0,0,1,,,,,,,,,,,,,,,0,,,59,54
154680,set_tempo,80,1,0,,,,,,,,,,,,630583,,,,,,,
154800,note_on,0,0,1,,,,,,,,,,,,,,,0,,,68,54
154800,note_on,120,0,1,,,,,,,,,,,,,,,0,,,59,0
154800,note_on,120,0,2,,,,,,,,,,,,,,,0,,,52,39
154840,set_tempo,160,1,0,,,,,,,,,,,,633580,,,,,,,
154920,note_on,0,0,1,,,,,,,,,,,,,,,0,,,71,54
154920,note_on,120,0,1,,,,,,,,,,,,,,,0,,,68,0
154920,note_on,120,0,2,,,,,,,,,,,,,,,0,,,52,0
155000,set_tempo,160,1,0,,,,,,,,,,,,636605,,,,,,,
155040,note_on,120,0,1,,,,,,,,,,,,,,,0,,,71,0
155040,note_on,0,0,1,,,,,,,,,,,,,,,0,,,64,57
155040,note_on,120,0,2,,,,,,,,,,,,,,,0,,,47,43
155160,note_on,0,0,1,,,,,,,,,,,,,,,0,,,58,51
155160,set_tempo,160,1,0,,,,,,,,,,,,630583,,,,,,,
155160,note_on,120,0,2,,,,,,,,,,,,,,,0,,,47,0
155160,note_on,120,0,1,,,,,,,,,,,,,,,0,,,64,0
155280,note_on,120,0,2,,,,,,,,,,,,,,,0,,,55,41
155280,note_on,120,0,1,,,,,,,,,,,,,,,0,,,58,0
155280,note_on,0,0,1,,,,,,,,,,,,,,,0,,,64,52
155280,set_tempo,120,1,0,,,,,,,,,,,,633580,,,,,,,
155400,set_tempo,120,1,0,,,,,,,,,,,,636605,,,,,,,
155400,note_on,120,0,2,,,,,,,,,,,,,,,0,,,55,0
155400,note_on,120,0,1,,,,,,,,,,,,,,,0,,,64,0
155400,note_on,0,0,1,,,,,,,,,,,,,,,0,,,73,52
155520,note_on,120,0,1,,,,,,,,,,,,,,,0,,,73,0
155520,note_on,0,0,1,,,,,,,,,,,,,,,0,,,66,54
155520,note_on,120,0,2,,,,,,,,,,,,,,,0,,,47,41
155520,set_tempo,120,1,0,,,,,,,,,,,,656383,,,,,,,
155640,note_on,120,0,2,,,,,,,,,,,,,,,0,,,47,0
155640,set_tempo,120,1,0,,,,,,,,,,,,647040,,,,,,,
155640,note_on,120,0,1,,,,,,,,,,,,,,,0,,,66,0
155640,note_on,0,0,1,,,,,,,,,,,,,,,0,,,57,49
155760,note_on,0,0,1,,,,,,,,,,,,,,,0,,,66,49
155760,note_on,120,0,2,,,,,,,,,,,,,,,0,,,52,39
155760,note_on,120,0,1,,,,,,,,,,,,,,,0,,,57,0
155880,note_on,0,0,1,,,,,,,,,,,,,,,0,,,71,49
155880,note_on,120,0,2,,,,,,,,,,,,,,,0,,,52,0
155880,note_on,120,0,1,,,,,,,,,,,,,,,0,,,66,0
156000,note_on,120,0,2,,,,,,,,,,,,,,,0,,,47,41
156000,note_on,120,0,1,,,,,,,,,,,,,,,0,,,71,0
156000,note_on,0,0,1,,,,,,,,,,,,,,,0,,,66,53
156120,note_on,0,0,1,,,,,,,,,,,,,,,0,,,57,48
156120,note_on,120,0,1,,,,,,,,,,,,,,,0,,,66,0
156120,note_on,120,0,2,,,,,,,,,,,,,,,0,,,47,0
156240,note_on,0,0,1,,,,,,,,,,,,,,,0,,,66,48
156240,note_on,120,0,1,,,,,,,,,,,,,,,0,,,57,0
156240,note_on,120,0,2,,,,,,,,,,,,,,,0,,,51,37
156360,note_on,0,0,1,,,,,,,,,,,,,,,0,,,71,48
156360,note_on,120,0,1,,,,,,,,,,,,,,,0,,,66,0
156360,note_on,120,0,2,,,,,,,,,,,,,,,0,,,51,0
156480,note_on,120,0,2,,,,,,,,,,,,,,,0,,,52,48
156480,set_tempo,840,1,0,,,,,,,,,,,,619067,,,,,,,
156480,control_change,0,0,1,,,,,,,,,,,,,,,0,64,127,,
156480,note_on,0,0,1,,,,,,,,,,,,,,,0,,,64,48
156480,note_on,120,0,1,,,,,,,,,,,,,,,0,,,71,0
156600,note_on,120,0,1,,,,,,,,,,,,,,,0,,,64,0
156600,note_on,0,0,1,,,,,,,,,,,,,,,0,,,56,44
156720,note_on,120,0,1,,,,,,,,,,,,,,,0,,,56,0
156720,note_on,0,0,1,,,,,,,,,,,,,,,0,,,64,44
156720,note_on,240,0,2,,,,,,,,,,,,,,,0,,,52,0
156840,note_on,0,0,1,,,,,,,,,,,,,,,0,,,68,44
156840,note_on,120,0,1,,,,,,,,,,,,,,,0,,,64,0
156940,control_change,100,0,1,,,,,,,,,,,,,,,0,64,0,,
156960,note_on,20,0,1,,,,,,,,,,,,,,,0,,,68,0
156960,note_on,0,0,2,,,,,,,,,,,,,,,0,,,47,48
156960,control_change,240,0,2,,,,,,,,,,,,,,,0,64,127,,
157080,note_on,0,0,2,,,,,,,,,,,,,,,0,,,40,44
157080,note_on,120,0,2,,,,,,,,,,,,,,,0,,,47,0
157200,note_on,0,0,2,,,,,,,,,,,,,,,0,,,47,44
157200,note_on,120,0,2,,,,,,,,,,,,,,,0,,,40,0
157320,note_on,0,0,2,,,,,,,,,,,,,,,0,,,52,45
157320,note_on,120,0,2,,,,,,,,,,,,,,,0,,,47,0
157440,control_change,0,0,2,,,,,,,,,,,,,,,0,64,0,,
157440,note_on,480,0,1,,,,,,,,,,,,,,,0,,,63,48
157440,note_on,120,0,2,,,,,,,,,,,,,,,0,,,52,0
157560,note_on,120,0,1,,,,,,,,,,,,,,,0,,,63,0
157560,note_on,0,0,1,,,,,,,,,,,,,,,0,,,57,43
157680,note_on,120,0,1,,,,,,,,,,,,,,,0,,,57,0
157680,note_on,0,0,1,,,,,,,,,,,,,,,0,,,63,43
157800,note_on,120,0,1,,,,,,,,,,,,,,,0,,,63,0
157800,note_on,0,0,1,,,,,,,,,,,,,,,0,,,71,43
157920,control_change,480,0,2,,,,,,,,,,,,,,,0,64,127,,
157920,note_on,120,0,1,,,,,,,,,,,,,,,0,,,71,0
157920,note_on,0,0,2,,,,,,,,,,,,,,,0,,,47,48
158040,note_on,120,0,2,,,,,,,,,,,,,,,0,,,47,0
158040,note_on,0,0,2,,,,,,,,,,,,,,,0,,,40,44
158160,note_on,0,0,2,,,,,,,,,,,,,,,0,,,47,44
158160,note_on,120,0,2,,,,,,,,,,,,,,,0,,,40,0
158280,note_on,120,0,2,,,,,,,,,,,,,,,0,,,47,0
158280,note_on,0,0,2,,,,,,,,,,,,,,,0,,,54,44
158351,control_change,71,0,2,,,,,,,,,,,,,,,0,64,0,,
158400,set_tempo,1920,1,0,,,,,,,,,,,,626828,,,,,,,
158400,note_on,49,0,2,,,,,,,,,,,,,,,0,,,54,0
158400,control_change,480,0,1,,,,,,,,,,,,,,,0,64,127,,
158400,note_on,0,0,1,,,,,,,,,,,,,,,0,,,64,48
158520,note_on,120,0,1,,,,,,,,,,,,,,,0,,,64,0
158520,note_on,0,0,1,,,,,,,,,,,,,,,0,,,56,45
158640,note_on,120,0,1,,,,,,,,,,,,,,,0,,,56,0
158640,note_on,0,0,1,,,,,,,,,,,,,,,0,,,64,45
158760,note_on,0,0,1,,,,,,,,,,,,,,,0,,,68,45
158760,note_on,120,0,1,,,,,,,,,,,,,,,0,,,64,0
158864,control_change,464,0,2,,,,,,,,,,,,,,,0,64,127,,
158880,set_tempo,480,1,0,,,,,,,,,,,,626828,,,,,,,
158880,note_on,16,0,2,,,,,,,,,,,,,,,0,,,52,46
158880,note_on,120,0,1,,,,,,,,,,,,,,,0,,,68,0
158880,note_on,0,0,1,,,,,,,,,,,,,,,0,,,68,44
158960,set_tempo,80,1,0,,,,,,,,,,,,629921,,,,,,,
159000,note_on,120,0,1,,,,,,,,,,,,,,,0,,,68,0
159000,note_on,0,0,1,,,,,,,,,,,,,,,0,,,71,49
159000,note_on,0,0,2,,,,,,,,,,,,,,,0,,,56,47
159000,note_on,120,0,2,,,,,,,,,,,,,,,0,,,52,0
159040,set_tempo,80,1,0,,,,,,,,,,,,632911,,,,,,,
159120,set_tempo,80,1,0,,,,,,,,,,,,635997,,,,,,,
159120,note_on,120,0,2,,,,,,,,,,,,,,,0,,,56,0
159120,note_on,0,0,2,,,,,,,,,,,,,,,0,,,59,52
159120,note_on,0,0,1,,,,,,,,,,,,,,,0,,,76,53
159120,note_on,120,0,1,,,,,,,,,,,,,,,0,,,71,0
159240,note_on,0,0,2,,,,,,,,,,,,,,,0,,,64,56
159240,note_on,0,0,1,,,,,,,,,,,,,,,0,,,80,58
159240,note_on,120,0,1,,,,,,,,,,,,,,,0,,,76,0
159240,set_tempo,120,1,0,,,,,,,,,,,,707798,,,,,,,
159240,note_on,120,0,2,,,,,,,,,,,,,,,0,,,59,0
159284,control_change,44,0,1,,,,,,,,,,,,,,,0,64,0,,
159296,control_change,56,0,2,,,,,,,,,,,,,,,0,64,0,,
159340,set_tempo,100,1,0,,,,,,,,,,,,645300,,,,,,,
159360,control_change,0,0,2,,,,,,,,,,,,,,,0,64,127,,
159360,note_on,0,0,2,,,,,,,,,,,,,,,0,,,64,58
159360,set_tempo,20,1,0,,,,,,,,,,,,629591,,,,,,,
159360,note_on,64,0,2,,,,,,,,,,,,,,,0,,,64,0
159360,note_on,76,0,1,,,,,,,,,,,,,,,0,,,80,0
159360,note_on,0,0,1,,,,,,,,,,,,,,,0,,,80,62
159480,note_on,120,0,1,,,,,,,,,,,,,,,0,,,68,46
159600,note_on,240,0,2,,,,,,,,,,,,,,,0,,,64,0
159600,note_on,0,0,2,,,,,,,,,,,,,,,0,,,61,55
159600,note_on,120,0,1,,,,,,,,,,,,,,,0,,,68,0
159600,note_on,0,0,1,,,,,,,,,,,,,,,0,,,80,0
159600,note_on,0,0,1,,,,,,,,,,,,,,,0,,,76,56
159704,control_change,104,0,2,,,,,,,,,,,,,,,0,64,0,,
159720,note_on,120,0,1,,,,,,,,,,,,,,,0,,,68,47
159840,note_on,0,0,1,,,,,,,,,,,,,,,0,,,76,0
159840,note_on,136,0,2,,,,,,,,,,,,,,,0,,,61,0
159840,note_on,0,0,2,,,,,,,,,,,,,,,0,,,60,52
159840,note_on,0,0,1,,,,,,,,,,,,,,,0,,,75,53
159840,note_on,120,0,1,,,,,,,,,,,,,,,0,,,68,0
159960,note_on,120,0,1,,,,,,,,,,,,,,,0,,,68,44
160080,note_on,0,0,1,,,,,,,,,,,,,,,0,,,75,0
160080,note_on,0,0,2,,,,,,,,,,,,,,,0,,,59,49
160080,note_on,0,0,1,,,,,,,,,,,,,,,0,,,74,50
160080,note_on,120,0,1,,,,,,,,,,,,,,,0,,,68,0
160080,note_on,240,0,2,,,,,,,,,,,,,,,0,,,60,0
160200,note_on,120,0,1,,,,,,,,,,,,,,,0,,,68,44
160320,note_on,0,0,1,,,,,,,,,,,,,,,0,,,74,0
160320,set_tempo,960,1,0,,,,,,,,,,,,610874,,,,,,,
160320,note_on,0,0,2,,,,,,,,,,,,,,,0,,,57,46
160320,note_on,240,0,2,,,,,,,,,,,,,,,0,,,59,0
160320,note_on,0,0,1,,,,,,,,,,,,,,,0,,,73,48
160320,note_on,120,0,1,,,,,,,,,,,,,,,0,,,68,0
160320,control_change,0,0,1,,,,,,,,,,,,,,,0,64,127,,
160440,note_on,0,0,1,,,,,,,,,,,,,,,0,,,61,43
160440,note_on,120,0,1,,,,,,,,,,,,,,,0,,,73,0
160560,note_on,0,0,1,,,,,,,,,,,,,,,0,,,69,43
160560,note_on,240,0,2,,,,,,,,,,,,,,,0,,,57,0
160560,note_on,120,0,1,,,,,,,,,,,,,,,0,,,61,0
160680,note_on,120,0,1,,,,,,,,,,,,,,,0,,,69,0
160680,note_on,0,0,1,,,,,,,,,,,,,,,0,,,73,43
160744,control_change,64,0,1,,,,,,,,,,,,,,,0,64,0,,
160800,control_change,240,0,2,,,,,,,,,,,,,,,0,64,127,,
160800,note_on,0,0,2,,,,,,,,,,,,,,,0,,,52,48
160800,note_on,56,0,1,,,,,,,,,,,,,,,0,,,73,0
160920,note_on,0,0,2,,,,,,,,,,,,,,,0,,,45,44
160920,note_on,120,0,2,,,,,,,,,,,,,,,0,,,52,0
161040,note_on,0,0,2,,,,,,,,,,,,,,,0,,,52,44
161040,note_on,120,0,2,,,,,,,,,,,,,,,0,,,45,0
161160,note_on,0,0,2,,,,,,,,,,,,,,,0,,,57,44
161160,note_on,120,0,2,,,,,,,,,,,,,,,0,,,52,0
161224,control_change,64,0,2,,,,,,,,,,,,,,,0,64,0,,
161280,note_on,480,0,1,,,,,,,,,,,,,,,0,,,68,48
161280,note_on,56,0,2,,,,,,,,,,,,,,,0,,,57,0
161400,note_on,120,0,1,,,,,,,,,,,,,,,0,,,68,0
161400,note_on,0,0,1,,,,,,,,,,,,,,,0,,,62,42
161520,note_on,0,0,1,,,,,,,,,,,,,,,0,,,68,42
161520,note_on,120,0,1,,,,,,,,,,,,,,,0,,,62,0
161640,note_on,120,0,1,,,,,,,,,,,,,,,0,,,68,0
161640,note_on,0,0,1,,,,,,,,,,,,,,,0,,,76,42
161760,note_on,480,0,2,,,,,,,,,,,,,,,0,,,52,48
161760,note_on,120,0,1,,,,,,,,,,,,,,,0,,,76,0
161880,note_on,120,0,2,,,,,,,,,,,,,,,0,,,52,0
161880,note_on,0,0,2,,,,,,,,,,,,,,,0,,,45,41
162000,note_on,120,0,2,,,,,,,,,,,,,,,0,,,45,0
162000,note_on,0,0,2,,,,,,,,,,,,,,,0,,,52,41
162120,note_on,0,0,2,,,,,,,,,,,,,,,0,,,59,41
162120,note_on,120,0,2,,,,,,,,,,,,,,,0,,,52,0
162240,note_on,120,0,2,,,,,,,,,,,,,,,0,,,59,0
162240,note_on,0,0,1,,,,,,,,,,,,,,,0,,,69,48
162240,control_change,480,0,1,,,,,,,,,,,,,,,0,64,127,,
162360,note_on,120,0,1,,,,,,,,,,,,,,,0,,,69,0
162360,note_on,0,0,1,,,,,,,,,,,,,,,0,,,61,42
162480,note_on,120,0,1,,,,,,,,,,,,,,,0,,,61,0
162480,note_on,0,0,1,,,,,,,,,,,,,,,0,,,69,42
162600,note_on,120,0,1,,,,,,,,,,,,,,,0,,,69,0
162600,note_on,0,0,1,,,,,,,,,,,,,,,0,,,73,43
162720,set_tempo,2400,1,0,,,,,,,,,,,,608026,,,,,,,
162720,note_on,480,0,2,,,,,,,,,,,,,,,0,,,57,44
162720,note_on,120,0,1,,,,,,,,,,,,,,,0,,,73,0
162720,note_on,0,0,1,,,,,,,,,,,,,,,0,,,73,43
162800,set_tempo,80,1,0,,,,,,,,,,,,610874,,,,,,,
162840,note_on,120,0,2,,,,,,,,,,,,,,,0,,,57,0
162840,note_on,120,0,1,,,,,,,,,,,,,,,0,,,73,0
162840,note_on,0,0,1,,,,,,,,,,,,,,,0,,,76,48
162840,note_on,0,0,2,,,,,,,,,,,,,,,0,,,61,49
162860,set_tempo,60,1,0,,,,,,,,,,,,613874,,,,,,,
162940,set_tempo,80,1,0,,,,,,,,,,,,616776,,,,,,,
162960,note_on,120,0,1,,,,,,,,,,,,,,,0,,,76,0
162960,note_on,0,0,1,,,,,,,,,,,,,,,0,,,81,53
162960,note_on,120,0,2,,,,,,,,,,,,,,,0,,,61,0
162960,note_on,0,0,2,,,,,,,,,,,,,,,0,,,64,54
163000,set_tempo,60,1,0,,,,,,,,,,,,619771,,,,,,,
163080,note_on,0,0,2,,,,,,,,,,,,,,,0,,,69,59
163080,note_on,120,0,2,,,,,,,,,,,,,,,0,,,64,0
163080,note_on,0,0,1,,,,,,,,,,,,,,,0,,,85,59
163080,note_on,120,0,1,,,,,,,,,,,,,,,0,,,81,0
163080,set_tempo,80,1,0,,,,,,,,,,,,712758,,,,,,,
163164,control_change,84,0,1,,,,,,,,,,,,,,,0,64,0,,
163200,set_tempo,120,1,0,,,,,,,,,,,,621054,,,,,,,
163200,note_on,0,0,2,,,,,,,,,,,,,,,0,,,69,62
163200,control_change,0,0,2,,,,,,,,,,,,,,,0,64,127,,
163200,note_on,120,0,2,,,,,,,,,,,,,,,0,,,69,0
163200,note_on,36,0,1,,,,,,,,,,,,,,,0,,,85,0
163200,note_on,0,0,1,,,,,,,,,,,,,,,0,,,85,64
163320,note_on,0,0,1,,,,,,,,,,,,,,,0,,,73,56
163320,note_on,120,0,1,,,,,,,,,,,,,,,0,,,85,0
163440,note_on,0,0,2,,,,,,,,,,,,,,,0,,,66,51
163440,note_on,120,0,1,,,,,,,,,,,,,,,0,,,73,0
163440,note_on,0,0,1,,,,,,,,,,,,,,,0,,,81,61
163440,note_on,240,0,2,,,,,,,,,,,,,,,0,,,69,0
163560,note_on,120,0,1,,,,,,,,,,,,,,,0,,,81,0
163560,note_on,0,0,1,,,,,,,,,,,,,,,0,,,73,56
163588,control_change,148,0,2,,,,,,,,,,,,,,,0,64,0,,
163680,note_on,92,0,2,,,,,,,,,,,,,,,0,,,66,0
163680,note_on,0,0,2,,,,,,,,,,,,,,,0,,,71,51
163680,note_on,120,0,1,,,,,,,,,,,,,,,0,,,73,0
163680,note_on,0,0,1,,,,,,,,,,,,,,,0,,,80,61
163800,note_on,0,0,1,,,,,,,,,,,,,,,0,,,76,56
163800,note_on,120,0,1,,,,,,,,,,,,,,,0,,,80,0
163920,note_on,240,0,2,,,,,,,,,,,,,,,0,,,71,0
163920,note_on,0,0,2,,,,,,,,,,,,,,,0,,,59,51
163920,note_on,0,0,2,,,,,,,,,,,,,,,0,,,69,51
163920,note_on,0,0,1,,,,,,,,,,,,,,,0,,,78,61
163920,note_on,120,0,1,,,,,,,,,,,,,,,0,,,76,0
164040,note_on,0,0,1,,,,,,,,,,,,,,,0,,,75,55
164040,note_on,120,0,1,,,,,,,,,,,,,,,0,,,78,0
164160,set_tempo,960,1,0,,,,,,,,,,,,618047,,,,,,,
164160,note_on,0,0,2,,,,,,,,,,,,,,,0,,,59,0
164160,note_on,120,0,1,,,,,,,,,,,,,,,0,,,75,0
164160,note_on,0,0,1,,,,,,,,,,,,,,,0,,,64,66
164160,note_on,0,0,1,,,,,,,,,,,,,,,0,,,68,66
164160,note_on,0,0,1,,,,,,,,,,,,,,,0,,,76,66
164160,note_on,240,0,2,,,,,,,,,,,,,,,0,,,69,0
164180,set_tempo,20,1,0,,,,,,,,,,,,653097,,,,,,,
164260,set_tempo,80,1,0,,,,,,,,,,,,656455,,,,,,,
164280,note_on,0,0,1,,,,,,,,,,,,,,,0,,,68,0
164280,note_on,120,0,1,,,,,,,,,,,,,,,0,,,76,0
164280,note_on,0,0,1,,,,,,,,,,,,,,,0,,,68,61
164280,note_on,0,0,1,,,,,,,,,,,,,,,0,,,64,0
164320,set_tempo,60,1,0,,,,,,,,,,,,659921,,,,,,,
164380,set_tempo,60,1,0,,,,,,,,,,,,663350,,,,,,,
164400,note_on,120,0,1,,,,,,,,,,,,,,,0,,,68,0
164400,note_on,0,0,1,,,,,,,,,,,,,,,0,,,66,61
164400,note_on,240,0,2,,,,,,,,,,,,,,,0,,,56,62
164400,note_on,0,0,2,,,,,,,,,,,,,,,0,,,54,62
164460,set_tempo,80,1,0,,,,,,,,,,,,666815,,,,,,,
164520,note_on,120,0,1,,,,,,,,,,,,,,,0,,,66,0
164520,note_on,0,0,1,,,,,,,,,,,,,,,0,,,68,61
164520,set_tempo,60,1,0,,,,,,,,,,,,670391,,,,,,,
164580,set_tempo,60,1,0,,,,,,,,,,,,673930,,,,,,,
164640,note_on,0,0,2,,,,,,,,,,,,,,,0,,,52,71
164640,note_on,0,0,1,,,,,,,,,,,,,,,0,,,64,58
164640,note_on,120,0,1,,,,,,,,,,,,,,,0,,,68,0
164640,note_on,240,0,2,,,,,,,,,,,,,,,0,,,54,0
164660,set_tempo,80,1,0,,,,,,,,,,,,677507,,,,,,,
164720,set_tempo,60,1,0,,,,,,,,,,,,681199,,,,,,,
164760,note_on,0,0,1,,,,,,,,,,,,,,,0,,,68,62
164760,note_on,120,0,1,,,,,,,,,,,,,,,0,,,64,0
164780,set_tempo,60,1,0,,,,,,,,,,,,684853,,,,,,,
164860,set_tempo,80,1,0,,,,,,,,,,,,688626,,,,,,,
164880,note_on,0,0,2,,,,,,,,,,,,,,,0,,,51,78
164880,note_on,0,0,1,,,,,,,,,,,,,,,0,,,63,66
164880,note_on,240,0,2,,,,,,,,,,,,,,,0,,,52,0
164880,note_on,120,0,1,,,,,,,,,,,,,,,0,,,68,0
164920,set_tempo,60,1,0,,,,,,,,,,,,692361,,,,,,,
164980,set_tempo,60,1,0,,,,,,,,,,,,696136,,,,,,,
165000,note_on,0,0,1,,,,,,,,,,,,,,,0,,,68,69
165000,note_on,120,0,1,,,,,,,,,,,,,,,0,,,63,0
165120,note_on,120,0,1,,,,,,,,,,,,,,,0,,,68,0
165120,note_on,240,0,2,,,,,,,,,,,,,,,0,,,51,0
165120,note_on,0,0,2,,,,,,,,,,,,,,,0,,,56,0
165120,note_on,0,0,2,,,,,,,,,,,,,,,0,,,49,90
165120,set_tempo,140,1,0,,,,,,,,,,,,634317,,,,,,,
165120,note_on,0,0,1,,,,,,,,,,,,,,,0,,,64,85
165240,note_on,120,0,2,,,,,,,,,,,,,,,0,,,49,0
165240,note_on,0,0,1,,,,,,,,,,,,,,,0,,,61,78
165240,note_on,120,0,1,,,,,,,,,,,,,,,0,,,64,0
165360,note_on,0,0,1,,,,,,,,,,,,,,,0,,,64,78
165360,note_on,120,0,2,,,,,,,,,,,,,,,0,,,48,82
165360,note_on,120,0,1,,,,,,,,,,,,,,,0,,,61,0
165480,note_on,120,0,1,,,,,,,,,,,,,,,0,,,64,0
165480,note_on,0,0,1,,,,,,,,,,,,,,,0,,,68,78
165480,note_on,120,0,2,,,,,,,,,,,,,,,0,,,48,0
165600,note_on,120,0,1,,,,,,,,,,,,,,,0,,,68,0
165600,note_on,120,0,2,,,,,,,,,,,,,,,0,,,49,81
165600,note_on,0,0,1,,,,,,,,,,,,,,,0,,,64,83
165720,note_on,120,0,2,,,,,,,,,,,,,,,0,,,49,0
165720,note_on,0,0,1,,,,,,,,,,,,,,,0,,,61,78
165720,note_on,120,0,1,,,,,,,,,,,,,,,0,,,64,0
165840,note_on,120,0,1,,,,,,,,,,,,,,,0,,,61,0
165840,note_on,120,0,2,,,,,,,,,,,,,,,0,,,52,81
165840,set_tempo,720,1,0,,,,,,,,,,,,611621,,,,,,,
165840,note_on,0,0,1,,,,,,,,,,,,,,,0,,,64,78
165960,note_on,0,0,1,,,,,,,,,,,,,,,0,,,69,78
165960,note_on,120,0,2,,,,,,,,,,,,,,,0,,,52,0
165960,note_on,120,0,1,,,,,,,,,,,,,,,0,,,64,0
166000,set_tempo,160,1,0,,,,,,,,,,,,614754,,,,,,,
166080,note_on,120,0,1,,,,,,,,,,,,,,,0,,,69,0
166080,note_on,120,0,2,,,,,,,,,,,,,,,0,,,48,87
166080,note_on,0,0,1,,,,,,,,,,,,,,,0,,,63,81
166160,set_tempo,160,1,0,,,,,,,,,,,,617920,,,,,,,
166200,note_on,0,0,1,,,,,,,,,,,,,,,0,,,60,78
166200,note_on,120,0,2,,,,,,,,,,,,,,,0,,,48,0
166200,note_on,120,0,1,,,,,,,,,,,,,,,0,,,63,0
166300,set_tempo,140,1,0,,,,,,,,,,,,621118,,,,,,,
166320,note_on,120,0,1,,,,,,,,,,,,,,,0,,,60,0
166320,note_on,0,0,1,,,,,,,,,,,,,,,0,,,63,78
166320,note_on,120,0,2,,,,,,,,,,,,,,,0,,,51,80
166440,note_on,120,0,2,,,,,,,,,,,,,,,0,,,51,0
166440,note_on,120,0,1,,,,,,,,,,,,,,,0,,,63,0
166440,note_on,0,0,1,,,,,,,,,,,,,,,0,,,69,78
166460,set_tempo,160,1,0,,,,,,,,,,,,624350,,,,,,,
166560,note_on,120,0,1,,,,,,,,,,,,,,,0,,,69,0
166560,note_on,0,0,1,,,,,,,,,,,,,,,0,,,63,81
166560,note_on,120,0,2,,,,,,,,,,,,,,,0,,,56,80
166620,set_tempo,160,1,0,,,,,,,,,,,,627681,,,,,,,
166680,note_on,120,0,1,,,,,,,,,,,,,,,0,,,63,0
166680,note_on,0,0,1,,,,,,,,,,,,,,,0,,,60,78
166680,note_on,120,0,2,,,,,,,,,,,,,,,0,,,56,0
166760,set_tempo,140,1,0,,,,,,,,,,,,630981,,,,,,,
166800,note_on,120,0,1,,,,,,,,,,,,,,,0,,,60,0
166800,note_on,0,0,1,,,,,,,,,,,,,,,0,,,63,78
166800,set_tempo,40,1,0,,,,,,,,,,,,608519,,,,,,,
166800,note_on,120,0,2,,,,,,,,,,,,,,,0,,,48,80
166920,note_on,120,0,2,,,,,,,,,,,,,,,0,,,48,0
166920,note_on,120,0,1,,,,,,,,,,,,,,,0,,,63,0
166920,note_on,0,0,1,,,,,,,,,,,,,,,0,,,68,78
166940,set_tempo,140,1,0,,,,,,,,,,,,611621,,,,,,,
167040,note_on,120,0,2,,,,,,,,,,,,,,,0,,,49,85
167040,note_on,120,0,1,,,,,,,,,,,,,,,0,,,68,0
167040,note_on,0,0,1,,,,,,,,,,,,,,,0,,,68,85
167060,set_tempo,120,1,0,,,,,,,,,,,,614754,,,,,,,
167160,note_on,120,0,2,,,,,,,,,,,,,,,0,,,49,0
167160,note_on,120,0,1,,,,,,,,,,,,,,,0,,,68,0
167160,note_on,0,0,1,,,,,,,,,,,,,,,0,,,64,81
167200,set_tempo,140,1,0,,,,,,,,,,,,617920,,,,,,,
167280,note_on,120,0,2,,,,,,,,,,,,,,,0,,,51,81
167280,note_on,120,0,1,,,,,,,,,,,,,,,0,,,64,0
167280,note_on,0,0,1,,,,,,,,,,,,,,,0,,,68,81
167320,set_tempo,120,1,0,,,,,,,,,,,,621118,,,,,,,
167400,note_on,120,0,1,,,,,,,,,,,,,,,0,,,68,0
167400,note_on,120,0,2,,,,,,,,,,,,,,,0,,,51,0
167400,note_on,0,0,1,,,,,,,,,,,,,,,0,,,76,81
167460,set_tempo,140,1,0,,,,,,,,,,,,624350,,,,,,,
167520,note_on,0,0,1,,,,,,,,,,,,,,,0,,,68,85
167520,note_on,120,0,1,,,,,,,,,,,,,,,0,,,76,0
167520,note_on,120,0,2,,,,,,,,,,,,,,,0,,,52,81
167580,set_tempo,120,1,0,,,,,,,,,,,,627681,,,,,,,
167640,note_on,120,0,2,,,,,,,,,,,,,,,0,,,52,0
167640,note_on,0,0,1,,,,,,,,,,,,,,,0,,,64,81
167640,note_on,120,0,1,,,,,,,,,,,,,,,0,,,68,0
167700,set_tempo,120,1,0,,,,,,,,,,,,630981,,,,,,,
167720,set_tempo,20,1,0,,,,,,,,,,,,627681,,,,,,,
167760,set_tempo,40,1,0,,,,,,,,,,,,608519,,,,,,,
167760,note_on,0,0,1,,,,,,,,,,,,,,,0,,,68,81
167760,note_on,120,0,1,,,,,,,,,,,,,,,0,,,64,0
167760,note_on,120,0,2,,,,,,,,,,,,,,,0,,,49,81
167880,note_on,120,0,2,,,,,,,,,,,,,,,0,,,49,0
167880,note_on,120,0,1,,,,,,,,,,,,,,,0,,,68,0
167880,note_on,0,0,1,,,,,,,,,,,,,,,0,,,73,81
167880,set_tempo,120,1,0,,,,,,,,,,,,611621,,,,,,,
168000,note_on,0,0,1,,,,,,,,,,,,,,,0,,,69,87
168000,note_on,120,0,1,,,,,,,,,,,,,,,0,,,73,0
168000,note_on,120,0,2,,,,,,,,,,,,,,,0,,,51,80
168000,set_tempo,120,1,0,,,,,,,,,,,,614754,,,,,,,
168120,note_on,120,0,2,,,,,,,,,,,,,,,0,,,51,0
168120,note_on,0,0,1,,,,,,,,,,,,,,,0,,,68,78
168120,note_on,120,0,1,,,,,,,,,,,,,,,0,,,69,0
168120,set_tempo,120,1,0,,,,,,,,,,,,617920,,,,,,,
168220,set_tempo,100,1,0,,,,,,,,,,,,621118,,,,,,,
168240,note_on,0,0,1,,,,,,,,,,,,,,,0,,,66,79
168240,note_on,120,0,2,,,,,,,,,,,,,,,0,,,57,88
168240,note_on,120,0,1,,,,,,,,,,,,,,,0,,,68,0
168340,set_tempo,120,1,0,,,,,,,,,,,,624350,,,,,,,
168360,note_on,0,0,1,,,,,,,,,,,,,,,0,,,73,80
168360,note_on,120,0,1,,,,,,,,,,,,,,,0,,,66,0
168360,note_on,120,0,2,,,,,,,,,,,,,,,0,,,57,0
168460,set_tempo,120,1,0,,,,,,,,,,,,627681,,,,,,,
168480,note_on,120,0,2,,,,,,,,,,,,,,,0,,,56,86
168480,note_on,120,0,1,,,,,,,,,,,,,,,0,,,73,0
168480,note_on,0,0,1,,,,,,,,,,,,,,,0,,,72,88
168580,set_tempo,120,1,0,,,,,,,,,,,,630981,,,,,,,
168600,note_on,120,0,2,,,,,,,,,,,,,,,0,,,56,0
168600,note_on,120,0,1,,,,,,,,,,,,,,,0,,,72,0
168600,note_on,0,0,1,,,,,,,,,,,,,,,0,,,66,84
168680,set_tempo,100,1,0,,,,,,,,,,,,634317,,,,,,,
168700,set_tempo,20,1,0,,,,,,,,,,,,630981,,,,,,,
168720,note_on,120,0,2,,,,,,,,,,,,,,,0,,,54,81
168720,note_on,0,0,1,,,,,,,,,,,,,,,0,,,68,85
168720,note_on,120,0,1,,,,,,,,,,,,,,,0,,,66,0
168720,set_tempo,20,1,0,,,,,,,,,,,,608519,,,,,,,
168840,set_tempo,120,1,0,,,,,,,,,,,,611621,,,,,,,
168840,note_on,120,0,1,,,,,,,,,,,,,,,0,,,68,0
168840,note_on,0,0,1,,,,,,,,,,,,,,,0,,,72,87
168840,note_on,120,0,2,,,,,,,,,,,,,,,0,,,54,0
168960,note_on,0,0,1,,,,,,,,,,,,,,,0,,,73,93
168960,note_on,120,0,2,,,,,,,,,,,,,,,0,,,52,78
168960,note_on,120,0,1,,,,,,,,,,,,,,,0,,,72,0
168960,set_tempo,120,1,0,,,,,,,,,,,,614754,,,,,,,
169080,note_on,0,0,1,,,,,,,,,,,,,,,0,,,68,81
169080,note_on,120,0,1,,,,,,,,,,,,,,,0,,,73,0
169080,note_on,120,0,2,,,,,,,,,,,,,,,0,,,52,0
169080,set_tempo,120,1,0,,,,,,,,,,,,617920,,,,,,,
169180,set_tempo,100,1,0,,,,,,,,,,,,621118,,,,,,,
169200,note_on,120,0,1,,,,,,,,,,,,,,,0,,,68,0
169200,note_on,0,0,1,,,,,,,,,,,,,,,0,,,73,84
169200,note_on,120,0,2,,,,,,,,,,,,,,,0,,,51,81
169300,set_tempo,120,1,0,,,,,,,,,,,,624350,,,,,,,
169320,note_on,0,0,1,,,,,,,,,,,,,,,0,,,76,87
169320,note_on,120,0,1,,,,,,,,,,,,,,,0,,,73,0
169320,note_on,120,0,2,,,,,,,,,,,,,,,0,,,51,0
169420,set_tempo,120,1,0,,,,,,,,,,,,627681,,,,,,,
169440,note_on,0,0,1,,,,,,,,,,,,,,,0,,,76,89
169440,note_on,120,0,1,,,,,,,,,,,,,,,0,,,76,0
169440,note_on,120,0,2,,,,,,,,,,,,,,,0,,,49,84
169540,set_tempo,120,1,0,,,,,,,,,,,,630981,,,,,,,
169560,note_on,120,0,2,,,,,,,,,,,,,,,0,,,49,0
169560,note_on,0,0,1,,,,,,,,,,,,,,,0,,,68,87
169560,note_on,120,0,1,,,,,,,,,,,,,,,0,,,76,0
169640,set_tempo,100,1,0,,,,,,,,,,,,634317,,,,,,,
169660,set_tempo,20,1,0,,,,,,,,,,,,637687,,,,,,,
169680,note_on,120,0,1,,,,,,,,,,,,,,,0,,,68,0
169680,note_on,0,0,1,,,,,,,,,,,,,,,0,,,76,91
169680,note_on,120,0,2,,,,,,,,,,,,,,,0,,,47,85
169680,set_tempo,20,1,0,,,,,,,,,,,,611621,,,,,,,
169800,note_on,120,0,1,,,,,,,,,,,,,,,0,,,76,0
169800,note_on,0,0,1,,,,,,,,,,,,,,,0,,,80,95
169800,note_on,120,0,2,,,,,,,,,,,,,,,0,,,47,0
169800,set_tempo,120,1,0,,,,,,,,,,,,614754,,,,,,,
169920,set_tempo,120,1,0,,,,,,,,,,,,617920,,,,,,,
169920,note_on,120,0,2,,,,,,,,,,,,,,,0,,,45,89
169920,note_on,120,0,1,,,,,,,,,,,,,,,0,,,80,0
169920,note_on,0,0,1,,,,,,,,,,,,,,,0,,,76,98
170020,set_tempo,100,1,0,,,,,,,,,,,,621118,,,,,,,
170040,note_on,120,0,2,,,,,,,,,,,,,,,0,,,45,0
170040,note_on,0,0,1,,,,,,,,,,,,,,,0,,,69,95
170040,note_on,120,0,1,,,,,,,,,,,,,,,0,,,76,0
170140,set_tempo,120,1,0,,,,,,,,,,,,624350,,,,,,,
170160,note_on,120,0,2,,,,,,,,,,,,,,,0,,,42,83
170160,note_on,120,0,1,,,,,,,,,,,,,,,0,,,69,0
170160,note_on,0,0,1,,,,,,,,,,,,,,,0,,,76,93
170220,note_on,60,0,2,,,,,,,,,,,,,,,0,,,42,0
170260,set_tempo,120,1,0,,,,,,,,,,,,627681,,,,,,,
170280,note_on,60,0,2,,,,,,,,,,,,,,,0,,,44,83
170280,note_on,120,0,1,,,,,,,,,,,,,,,0,,,76,0
170280,note_on,0,0,1,,,,,,,,,,,,,,,0,,,80,90
170340,note_on,60,0,2,,,,,,,,,,,,,,,0,,,44,0
170360,set_tempo,100,1,0,,,,,,,,,,,,630981,,,,,,,
170400,note_on,60,0,2,,,,,,,,,,,,,,,0,,,45,88
170400,note_on,0,0,1,,,,,,,,,,,,,,,0,,,74,91
170400,note_on,120,0,1,,,,,,,,,,,,,,,0,,,80,0
170480,set_tempo,120,1,0,,,,,,,,,,,,634317,,,,,,,
170520,note_on,120,0,2,,,,,,,,,,,,,,,0,,,45,0
170520,note_on,0,0,1,,,,,,,,,,,,,,,0,,,78,87
170520,note_on,120,0,1,,,,,,,,,,,,,,,0,,,74,0
170580,set_tempo,100,1,0,,,,,,,,,,,,637687,,,,,,,
170600,set_tempo,20,1,0,,,,,,,,,,,,637687,,,,,,,
170640,set_tempo,40,1,0,,,,,,,,,,,,608519,,,,,,,
170640,note_on,120,0,2,,,,,,,,,,,,,,,0,,,42,84
170640,note_on,120,0,1,,,,,,,,,,,,,,,0,,,78,0
170640,note_on,0,0,1,,,,,,,,,,,,,,,0,,,73,91
170760,note_on,0,0,1,,,,,,,,,,,,,,,0,,,76,87
170760,note_on,120,0,2,,,,,,,,,,,,,,,0,,,42,0
170760,note_on,120,0,1,,,,,,,,,,,,,,,0,,,73,0
170880,note_on,120,0,2,,,,,,,,,,,,,,,0,,,44,90
170880,note_on,0,0,1,,,,,,,,,,,,,,,0,,,72,88
170880,note_on,120,0,1,,,,,,,,,,,,,,,0,,,76,0
170880,set_tempo,240,1,0,,,,,,,,,,,,611621,,,,,,,
171000,note_on,120,0,2,,,,,,,,,,,,,,,0,,,44,0
171000,note_on,0,0,1,,,,,,,,,,,,,,,0,,,75,84
171000,note_on,120,0,1,,,,,,,,,,,,,,,0,,,72,0
171100,set_tempo,220,1,0,,,,,,,,,,,,614754,,,,,,,
171120,note_on,120,0,2,,,,,,,,,,,,,,,0,,,42,85
171120,note_on,120,0,1,,,,,,,,,,,,,,,0,,,75,0
171120,note_on,0,0,1,,,,,,,,,,,,,,,0,,,73,87
171180,note_on,60,0,2,,,,,,,,,,,,,,,0,,,42,0
171240,note_on,60,0,2,,,,,,,,,,,,,,,0,,,40,85
171240,note_on,0,0,1,,,,,,,,,,,,,,,0,,,76,81
171240,note_on,120,0,1,,,,,,,,,,,,,,,0,,,73,0
171300,note_on,60,0,2,,,,,,,,,,,,,,,0,,,40,0
171340,set_tempo,240,1,0,,,,,,,,,,,,617920,,,,,,,
171360,note_on,120,0,1,,,,,,,,,,,,,,,0,,,76,0
171360,note_on,0,0,1,,,,,,,,,,,,,,,0,,,75,86
171360,note_on,60,0,2,,,,,,,,,,,,,,,0,,,39,90
171480,note_on,120,0,1,,,,,,,,,,,,,,,0,,,75,0
171480,note_on,0,0,1,,,,,,,,,,,,,,,0,,,78,79
171480,note_on,120,0,2,,,,,,,,,,,,,,,0,,,39,0
171560,set_tempo,220,1,0,,,,,,,,,,,,621118,,,,,,,
171600,note_on,0,0,1,,,,,,,,,,,,,,,0,,,72,84
171600,note_on,120,0,1,,,,,,,,,,,,,,,0,,,78,0
171600,note_on,120,0,2,,,,,,,,,,,,,,,0,,,44,85
171720,note_on,0,0,1,,,,,,,,,,,,,,,0,,,75,76
171720,note_on,120,0,1,,,,,,,,,,,,,,,0,,,72,0
171720,note_on,120,0,2,,,,,,,,,,,,,,,0,,,44,0
171840,note_on,0,0,1,,,,,,,,,,,,,,,0,,,76,79
171840,note_on,120,0,1,,,,,,,,,,,,,,,0,,,75,0
171840,set_tempo,280,1,0,,,,,,,,,,,,611621,,,,,,,
171840,note_on,120,0,2,,,,,,,,,,,,,,,0,,,37,88
171960,note_on,120,0,2,,,,,,,,,,,,,,,0,,,37,0
171960,note_on,0,0,1,,,,,,,,,,,,,,,0,,,73,74
171960,note_on,120,0,1,,,,,,,,,,,,,,,0,,,76,0
171960,set_tempo,120,1,0,,,,,,,,,,,,614754,,,,,,,
172060,set_tempo,100,1,0,,,,,,,,,,,,617920,,,,,,,
172080,note_on,120,0,1,,,,,,,,,,,,,,,0,,,73,0
172080,note_on,0,0,1,,,,,,,,,,,,,,,0,,,71,69
172080,note_on,120,0,2,,,,,,,,,,,,,,,0,,,44,70
172160,set_tempo,100,1,0,,,,,,,,,,,,621118,,,,,,,
172200,note_on,0,0,1,,,,,,,,,,,,,,,0,,,69,65
172200,note_on,120,0,1,,,,,,,,,,,,,,,0,,,71,0
172280,set_tempo,120,1,0,,,,,,,,,,,,624350,,,,,,,
172320,note_on,240,0,2,,,,,,,,,,,,,,,0,,,44,0
172320,note_on,0,0,2,,,,,,,,,,,,,,,0,,,46,58
172320,note_on,120,0,1,,,,,,,,,,,,,,,0,,,69,0
172320,note_on,0,0,1,,,,,,,,,,,,,,,0,,,68,61
172380,set_tempo,100,1,0,,,,,,,,,,,,627681,,,,,,,
172440,note_on,0,0,1,,,,,,,,,,,,,,,0,,,66,57
172440,note_on,120,0,1,,,,,,,,,,,,,,,0,,,68,0
172480,set_tempo,100,1,0,,,,,,,,,,,,630981,,,,,,,
172560,note_on,0,0,1,,,,,,,,,,,,,,,0,,,64,53
172560,note_on,240,0,2,,,,,,,,,,,,,,,0,,,46,0
172560,note_on,0,0,2,,,,,,,,,,,,,,,0,,,48,48
172560,note_on,120,0,1,,,,,,,,,,,,,,,0,,,66,0
172600,set_tempo,120,1,0,,,,,,,,,,,,634317,,,,,,,
172680,note_on,120,0,1,,,,,,,,,,,,,,,0,,,64,0
172680,note_on,0,0,1,,,,,,,,,,,,,,,0,,,63,48
172700,set_tempo,100,1,0,,,,,,,,,,,,637687,,,,,,,
172800,set_tempo,100,1,0,,,,,,,,,,,,661594,,,,,,,
172800,note_on,0,0,1,,,,,,,,,,,,,,,0,,,64,42
172800,note_on,240,0,2,,,,,,,,,,,,,,,0,,,48,0
172800,note_on,0,0,2,,,,,,,,,,,,,,,0,,,49,40
172800,note_on,120,0,1,,,,,,,,,,,,,,,0,,,63,0
172920,set_tempo,120,1,0,,,,,,,,,,,,618620,,,,,,,
172920,note_on,120,0,1,,,,,,,,,,,,,,,0,,,64,0
172920,note_on,0,0,1,,,,,,,,,,,,,,,0,,,61,45
173000,set_tempo,80,1,0,,,,,,,,,,,,621697,,,,,,,
173040,note_on,120,0,1,,,,,,,,,,,,,,,0,,,61,0
173040,note_on,0,0,1,,,,,,,,,,,,,,,0,,,64,45
173040,note_on,240,0,2,,,,,,,,,,,,,,,0,,,49,0
173040,note_on,0,0,2,,,,,,,,,,,,,,,0,,,52,37
173060,set_tempo,60,1,0,,,,,,,,,,,,624870,,,,,,,
173120,set_tempo,60,1,0,,,,,,,,,,,,628009,,,,,,,
173160,note_on,120,0,1,,,,,,,,,,,,,,,0,,,64,0
173160,note_on,0,0,1,,,,,,,,,,,,,,,0,,,68,45
173200,set_tempo,80,1,0,,,,,,,,,,,,631247,,,,,,,
173260,set_tempo,60,1,0,,,,,,,,,,,,634451,,,,,,,
173280,note_on,0,0,2,,,,,,,,,,,,,,,0,,,51,38
173280,note_on,240,0,2,,,,,,,,,,,,,,,0,,,52,0
173280,note_on,120,0,1,,,,,,,,,,,,,,,0,,,68,0
173280,note_on,0,0,1,,,,,,,,,,,,,,,0,,,64,48
173320,set_tempo,60,1,0,,,,,,,,,,,,637755,,,,,,,
173380,set_tempo,60,1,0,,,,,,,,,,,,641026,,,,,,,
173400,set_tempo,20,1,0,,,,,,,,,,,,621697,,,,,,,
173400,note_on,0,0,1,,,,,,,,,,,,,,,0,,,61,45
173400,note_on,120,0,1,,,,,,,,,,,,,,,0,,,64,0
173500,set_tempo,100,1,0,,,,,,,,,,,,624870,,,,,,,
173520,note_on,120,0,1,,,,,,,,,,,,,,,0,,,61,0
173520,note_on,0,0,1,,,,,,,,,,,,,,,0,,,64,45
173520,note_on,240,0,2,,,,,,,,,,,,,,,0,,,51,0
173520,note_on,0,0,2,,,,,,,,,,,,,,,0,,,49,37
173600,set_tempo,100,1,0,,,,,,,,,,,,628009,,,,,,,
173640,note_on,0,0,1,,,,,,,,,,,,,,,0,,,69,45
173640,note_on,120,0,1,,,,,,,,,,,,,,,0,,,64,0
173700,set_tempo,100,1,0,,,,,,,,,,,,631247,,,,,,,
173760,note_on,0,0,2,,,,,,,,,,,,,,,0,,,47,40
173760,note_on,240,0,2,,,,,,,,,,,,,,,0,,,49,0
173760,note_on,0,0,1,,,,,,,,,,,,,,,0,,,63,47
173760,note_on,120,0,1,,,,,,,,,,,,,,,0,,,69,0
173800,set_tempo,100,1,0,,,,,,,,,,,,634451,,,,,,,
173880,set_tempo,80,1,0,,,,,,,,,,,,618620,,,,,,,
173880,note_on,120,0,1,,,,,,,,,,,,,,,0,,,63,0
173880,note_on,0,0,1,,,,,,,,,,,,,,,0,,,59,45
174000,note_on,0,0,1,,,,,,,,,,,,,,,0,,,63,45
174000,note_on,120,0,1,,,,,,,,,,,,,,,0,,,59,0
174000,set_tempo,120,1,0,,,,,,,,,,,,621697,,,,,,,
174000,note_on,240,0,2,,,,,,,,,,,,,,,0,,,47,0
174000,note_on,0,0,2,,,,,,,,,,,,,,,0,,,51,38
174100,set_tempo,100,1,0,,,,,,,,,,,,624870,,,,,,,
174120,note_on,0,0,1,,,,,,,,,,,,,,,0,,,69,45
174120,note_on,120,0,1,,,,,,,,,,,,,,,0,,,63,0
174200,set_tempo,100,1,0,,,,,,,,,,,,628009,,,,,,,
174240,note_on,0,0,2,,,,,,,,,,,,,,,0,,,56,40
174240,note_on,120,0,1,,,,,,,,,,,,,,,0,,,69,0
174240,note_on,0,0,1,,,,,,,,,,,,,,,0,,,63,47
174240,note_on,240,0,2,,,,,,,,,,,,,,,0,,,51,0
174300,set_tempo,100,1,0,,,,,,,,,,,,631247,,,,,,,
174360,note_on,120,0,1,,,,,,,,,,,,,,,0,,,63,0
174360,note_on,0,0,1,,,,,,,,,,,,,,,0,,,59,45
174360,set_tempo,60,1,0,,,,,,,,,,,,621697,,,,,,,
174460,set_tempo,100,1,0,,,,,,,,,,,,624870,,,,,,,
174480,note_on,120,0,1,,,,,,,,,,,,,,,0,,,59,0
174480,note_on,240,0,2,,,,,,,,,,,,,,,0,,,56,0
174480,note_on,0,0,2,,,,,,,,,,,,,,,0,,,47,37
174480,note_on,0,0,1,,,,,,,,,,,,,,,0,,,63,45
174560,set_tempo,100,1,0,,,,,,,,,,,,628009,,,,,,,
174600,note_on,0,0,1,,,,,,,,,,,,,,,0,,,68,45
174600,note_on,120,0,1,,,,,,,,,,,,,,,0,,,63,0
174640,set_tempo,80,1,0,,,,,,,,,,,,631247,,,,,,,
174720,note_on,240,0,2,,,,,,,,,,,,,,,0,,,47,0
174720,note_on,0,0,2,,,,,,,,,,,,,,,0,,,45,41
174720,note_on,120,0,1,,,,,,,,,,,,,,,0,,,68,0
174720,note_on,0,0,1,,,,,,,,,,,,,,,0,,,68,49
174740,set_tempo,100,1,0,,,,,,,,,,,,634451,,,,,,,
174820,set_tempo,80,1,0,,,,,,,,,,,,637755,,,,,,,
174840,note_on,0,0,1,,,,,,,,,,,,,,,0,,,61,47
174840,note_on,120,0,1,,,,,,,,,,,,,,,0,,,68,0
174840,set_tempo,20,1,0,,,,,,,,,,,,618620,,,,,,,
174940,set_tempo,100,1,0,,,,,,,,,,,,621697,,,,,,,
174960,note_on,0,0,1,,,,,,,,,,,,,,,0,,,68,47
174960,note_on,0,0,2,,,,,,,,,,,,,,,0,,,49,38
174960,note_on,240,0,2,,,,,,,,,,,,,,,0,,,45,0
174960,note_on,120,0,1,,,,,,,,,,,,,,,0,,,61,0
175040,set_tempo,100,1,0,,,,,,,,,,,,624870,,,,,,,
175080,note_on,0,0,1,,,,,,,,,,,,,,,0,,,73,47
175080,note_on,120,0,1,,,,,,,,,,,,,,,0,,,68,0
175120,set_tempo,80,1,0,,,,,,,,,,,,628009,,,,,,,
175200,note_on,120,0,1,,,,,,,,,,,,,,,0,,,73,0
175200,note_on,0,0,1,,,,,,,,,,,,,,,0,,,66,49
175200,note_on,240,0,2,,,,,,,,,,,,,,,0,,,49,0
175200,note_on,0,0,2,,,,,,,,,,,,,,,0,,,47,38
175220,set_tempo,100,1,0,,,,,,,,,,,,631247,,,,,,,
175300,set_tempo,80,1,0,,,,,,,,,,,,634451,,,,,,,
175320,set_tempo,20,1,0,,,,,,,,,,,,621697,,,,,,,
175320,note_on,120,0,1,,,,,,,,,,,,,,,0,,,66,0
175320,note_on,0,0,1,,,,,,,,,,,,,,,0,,,63,47
175440,note_on,0,0,2,,,,,,,,,,,,,,,0,,,45,39
175440,note_on,120,0,1,,,,,,,,,,,,,,,0,,,63,0
175440,note_on,240,0,2,,,,,,,,,,,,,,,0,,,47,0
175440,note_on,0,0,1,,,,,,,,,,,,,,,0,,,66,47
175440,set_tempo,120,1,0,,,,,,,,,,,,624870,,,,,,,
175540,set_tempo,100,1,0,,,,,,,,,,,,628009,,,,,,,
175560,note_on,0,0,1,,,,,,,,,,,,,,,0,,,73,47
175560,note_on,120,0,1,,,,,,,,,,,,,,,0,,,66,0
175660,set_tempo,120,1,0,,,,,,,,,,,,631247,,,,,,,
175680,note_on,0,0,1,,,,,,,,,,,,,,,0,,,68,50
175680,note_on,240,0,2,,,,,,,,,,,,,,,0,,,45,0
175680,note_on,0,0,2,,,,,,,,,,,,,,,0,,,44,40
175680,note_on,120,0,1,,,,,,,,,,,,,,,0,,,73,0
175760,set_tempo,100,1,0,,,,,,,,,,,,634451,,,,,,,
175780,set_tempo,20,1,0,,,,,,,,,,,,597669,,,,,,,
175800,note_on,120,0,1,,,,,,,,,,,,,,,0,,,68,0
175800,note_on,0,0,1,,,,,,,,,,,,,,,0,,,64,47
175800,set_tempo,20,1,0,,,,,,,,,,,,618620,,,,,,,
175900,set_tempo,100,1,0,,,,,,,,,,,,621697,,,,,,,
175920,note_on,240,0,2,,,,,,,,,,,,,,,0,,,44,0
175920,note_on,120,0,1,,,,,,,,,,,,,,,0,,,64,0
175920,note_on,0,0,1,,,,,,,,,,,,,,,0,,,68,47
175920,note_on,0,0,2,,,,,,,,,,,,,,,0,,,47,39
175980,set_tempo,80,1,0,,,,,,,,,,,,624870,,,,,,,
176040,note_on,120,0,1,,,,,,,,,,,,,,,0,,,68,0
176040,note_on,0,0,1,,,,,,,,,,,,,,,0,,,73,47
176080,set_tempo,100,1,0,,,,,,,,,,,,628009,,,,,,,
176160,note_on,120,0,1,,,,,,,,,,,,,,,0,,,73,0
176160,note_on,0,0,1,,,,,,,,,,,,,,,0,,,68,49
176160,set_tempo,80,1,0,,,,,,,,,,,,631247,,,,,,,
176160,note_on,240,0,2,,,,,,,,,,,,,,,0,,,47,0
176160,note_on,0,0,2,,,,,,,,,,,,,,,0,,,52,41
176240,set_tempo,80,1,0,,,,,,,,,,,,634451,,,,,,,
176280,set_tempo,40,1,0,,,,,,,,,,,,618620,,,,,,,
176280,note_on,120,0,1,,,,,,,,,,,,,,,0,,,68,0
176280,note_on,0,0,1,,,,,,,,,,,,,,,0,,,64,48
176380,set_tempo,100,1,0,,,,,,,,,,,,621697,,,,,,,
176400,note_on,240,0,2,,,,,,,,,,,,,,,0,,,52,0
176400,note_on,0,0,2,,,,,,,,,,,,,,,0,,,44,39
176400,note_on,120,0,1,,,,,,,,,,,,,,,0,,,64,0
176400,note_on,0,0,1,,,,,,,,,,,,,,,0,,,68,48
176480,set_tempo,100,1,0,,,,,,,,,,,,624870,,,,,,,
176520,note_on,0,0,1,,,,,,,,,,,,,,,0,,,71,48
176520,note_on,120,0,1,,,,,,,,,,,,,,,0,,,68,0
176560,set_tempo,80,1,0,,,,,,,,,,,,628009,,,,,,,
176640,note_on,120,0,1,,,,,,,,,,,,,,,0,,,71,0
176640,note_on,0,0,1,,,,,,,,,,,,,,,0,,,67,54
176640,note_on,0,0,2,,,,,,,,,,,,,,,0,,,40,41
176640,note_on,240,0,2,,,,,,,,,,,,,,,0,,,44,0
176660,set_tempo,100,1,0,,,,,,,,,,,,631247,,,,,,,
176740,set_tempo,80,1,0,,,,,,,,,,,,634451,,,,,,,
176760,note_on,120,0,1,,,,,,,,,,,,,,,0,,,67,0
176760,set_tempo,20,1,0,,,,,,,,,,,,618620,,,,,,,
176760,note_on,0,0,1,,,,,,,,,,,,,,,0,,,64,47
176820,set_tempo,60,1,0,,,,,,,,,,,,621697,,,,,,,
176880,note_on,120,0,1,,,,,,,,,,,,,,,0,,,64,0
176880,note_on,0,0,1,,,,,,,,,,,,,,,0,,,67,48
176880,note_on,0,0,2,,,,,,,,,,,,,,,0,,,52,37
176880,set_tempo,60,1,0,,,,,,,,,,,,624870,,,,,,,
176880,note_on,240,0,2,,,,,,,,,,,,,,,0,,,40,0
176940,set_tempo,60,1,0,,,,,,,,,,,,628009,,,,,,,
177000,note_on,120,0,1,,,,,,,,,,,,,,,0,,,67,0
177000,set_tempo,60,1,0,,,,,,,,,,,,631247,,,,,,,
177000,note_on,0,0,2,,,,,,,,,,,,,,,0,,,51,37
177000,note_on,120,0,2,,,,,,,,,,,,,,,0,,,52,0
177000,note_on,0,0,1,,,,,,,,,,,,,,,0,,,70,50
177060,set_tempo,60,1,0,,,,,,,,,,,,634451,,,,,,,
177120,note_on,0,0,1,,,,,,,,,,,,,,,0,,,76,52
177120,note_on,120,0,1,,,,,,,,,,,,,,,0,,,70,0
177120,note_on,120,0,2,,,,,,,,,,,,,,,0,,,51,0
177120,set_tempo,60,1,0,,,,,,,,,,,,637755,,,,,,,
177120,note_on,0,0,2,,,,,,,,,,,,,,,0,,,49,36
177160,set_tempo,40,1,0,,,,,,,,,,,,641026,,,,,,,
177240,set_tempo,80,1,0,,,,,,,,,,,,618620,,,,,,,
177240,note_on,0,0,1,,,,,,,,,,,,,,,0,,,70,48
177240,note_on,120,0,1,,,,,,,,,,,,,,,0,,,76,0
177320,set_tempo,80,1,0,,,,,,,,,,,,621697,,,,,,,
177360,note_on,240,0,2,,,,,,,,,,,,,,,0,,,49,0
177360,note_on,0,0,2,,,,,,,,,,,,,,,0,,,48,38
177360,note_on,120,0,1,,,,,,,,,,,,,,,0,,,70,0
177360,note_on,0,0,1,,,,,,,,,,,,,,,0,,,76,49
177400,set_tempo,80,1,0,,,,,,,,,,,,624870,,,,,,,
177480,set_tempo,80,1,0,,,,,,,,,,,,628009,,,,,,,
177480,note_on,120,0,1,,,,,,,,,,,,,,,0,,,76,0
177480,note_on,0,0,1,,,,,,,,,,,,,,,0,,,79,51
177560,set_tempo,80,1,0,,,,,,,,,,,,631247,,,,,,,
177600,note_on,240,0,2,,,,,,,,,,,,,,,0,,,48,0
177600,note_on,0,0,2,,,,,,,,,,,,,,,0,,,47,43
177600,note_on,0,0,1,,,,,,,,,,,,,,,0,,,75,51
177600,note_on,120,0,1,,,,,,,,,,,,,,,0,,,79,0
177640,set_tempo,80,1,0,,,,,,,,,,,,634451,,,,,,,
177720,set_tempo,80,1,0,,,,,,,,,,,,615511,,,,,,,
177720,note_on,120,0,1,,,,,,,,,,,,,,,0,,,75,0
177720,note_on,0,0,1,,,,,,,,,,,,,,,0,,,79,49
177840,note_on,0,0,1,,,,,,,,,,,,,,,0,,,75,50
177840,note_on,120,0,1,,,,,,,,,,,,,,,0,,,79,0
177840,note_on,240,0,2,,,,,,,,,,,,,,,0,,,47,0
177840,note_on,0,0,2,,,,,,,,,,,,,,,0,,,54,39
177860,set_tempo,140,1,0,,,,,,,,,,,,618620,,,,,,,
177960,note_on,0,0,1,,,,,,,,,,,,,,,0,,,78,48
177960,note_on,120,0,1,,,,,,,,,,,,,,,0,,,75,0
177980,set_tempo,120,1,0,,,,,,,,,,,,621697,,,,,,,
178080,note_on,0,0,2,,,,,,,,,,,,,,,0,,,59,47
178080,note_on,240,0,2,,,,,,,,,,,,,,,0,,,54,0
178080,note_on,120,0,1,,,,,,,,,,,,,,,0,,,78,0
178080,note_on,0,0,1,,,,,,,,,,,,,,,0,,,69,49
178100,set_tempo,120,1,0,,,,,,,,,,,,624870,,,,,,,
178200,note_on,120,0,1,,,,,,,,,,,,,,,0,,,69,0
178200,note_on,0,0,1,,,,,,,,,,,,,,,0,,,76,48
178220,set_tempo,120,1,0,,,,,,,,,,,,628009,,,,,,,
178320,note_on,240,0,2,,,,,,,,,,,,,,,0,,,59,0
178320,note_on,0,0,1,,,,,,,,,,,,,,,0,,,69,49
178320,note_on,120,0,1,,,,,,,,,,,,,,,0,,,76,0
178320,note_on,0,0,2,,,,,,,,,,,,,,,0,,,47,34
178340,set_tempo,120,1,0,,,,,,,,,,,,631247,,,,,,,
178440,note_on,0,0,1,,,,,,,,,,,,,,,0,,,75,48
178440,note_on,120,0,1,,,,,,,,,,,,,,,0,,,69,0
178460,set_tempo,120,1,0,,,,,,,,,,,,634451,,,,,,,
178560,note_on,0,0,2,,,,,,,,,,,,,,,0,,,48,36
178560,note_on,240,0,2,,,,,,,,,,,,,,,0,,,47,0
178560,note_on,0,0,1,,,,,,,,,,,,,,,0,,,69,47
178560,note_on,120,0,1,,,,,,,,,,,,,,,0,,,75,0
178580,set_tempo,120,1,0,,,,,,,,,,,,637755,,,,,,,
178680,note_on,0,0,1,,,,,,,,,,,,,,,0,,,78,44
178680,note_on,120,0,1,,,,,,,,,,,,,,,0,,,69,0
178720,set_tempo,140,1,0,,,,,,,,,,,,641026,,,,,,,
178800,note_on,0,0,1,,,,,,,,,,,,,,,0,,,68,47
178800,note_on,120,0,1,,,,,,,,,,,,,,,0,,,78,0
178800,note_on,0,0,2,,,,,,,,,,,,,,,0,,,49,31
178800,note_on,240,0,2,,,,,,,,,,,,,,,0,,,48,0
178840,set_tempo,120,1,0,,,,,,,,,,,,644399,,,,,,,
178920,note_on,0,0,1,,,,,,,,,,,,,,,0,,,76,44
178920,note_on,120,0,1,,,,,,,,,,,,,,,0,,,68,0
178960,set_tempo,120,1,0,,,,,,,,,,,,647738,,,,,,,
179040,note_on,120,0,1,,,,,,,,,,,,,,,0,,,76,0
179040,note_on,0,0,1,,,,,,,,,,,,,,,0,,,64,46
179040,note_on,0,0,2,,,,,,,,,,,,,,,0,,,44,36
179040,note_on,240,0,2,,,,,,,,,,,,,,,0,,,49,0
179080,set_tempo,120,1,0,,,,,,,,,,,,651183,,,,,,,
179160,note_on,120,0,1,,,,,,,,,,,,,,,0,,,64,0
179160,note_on,0,0,1,,,,,,,,,,,,,,,0,,,73,44
179200,set_tempo,120,1,0,,,,,,,,,,,,654593,,,,,,,
179280,note_on,240,0,2,,,,,,,,,,,,,,,0,,,44,0
179280,note_on,0,0,2,,,,,,,,,,,,,,,0,,,45,32
179280,note_on,120,0,1,,,,,,,,,,,,,,,0,,,73,0
179280,note_on,0,0,1,,,,,,,,,,,,,,,0,,,61,45
179320,set_tempo,120,1,0,,,,,,,,,,,,658111,,,,,,,
179400,note_on,120,0,1,,,,,,,,,,,,,,,0,,,61,0
179400,note_on,0,0,1,,,,,,,,,,,,,,,0,,,69,44
179440,set_tempo,120,1,0,,,,,,,,,,,,661594,,,,,,,
179520,set_tempo,80,1,0,,,,,,,,,,,,631579,,,,,,,
179520,note_on,120,0,1,,,,,,,,,,,,,,,0,,,69,0
179520,note_on,0,0,2,,,,,,,,,,,,,,,0,,,47,36
179520,note_on,240,0,2,,,,,,,,,,,,,,,0,,,45,0
179520,note_on,0,0,1,,,,,,,,,,,,,,,0,,,59,45
179640,note_on,120,0,1,,,,,,,,,,,,,,,0,,,59,0
179640,note_on,0,0,1,,,,,,,,,,,,,,,0,,,68,44
179760,note_on,120,0,1,,,,,,,,,,,,,,,0,,,68,0
179760,note_on,0,0,2,,,,,,,,,,,,,,,0,,,56,34
179760,note_on,240,0,2,,,,,,,,,,,,,,,0,,,47,0
179760,note_on,0,0,1,,,,,,,,,,,,,,,0,,,64,45
179880,note_on,0,0,1,,,,,,,,,,,,,,,0,,,71,44
179880,note_on,120,0,1,,,,,,,,,,,,,,,0,,,64,0
180000,note_on,240,0,2,,,,,,,,,,,,,,,0,,,56,0
180000,note_on,0,0,2,,,,,,,,,,,,,,,0,,,47,36
180000,note_on,120,0,1,,,,,,,,,,,,,,,0,,,71,0
180000,note_on,0,0,1,,,,,,,,,,,,,,,0,,,59,45
180020,set_tempo,500,1,0,,,,,,,,,,,,633513,,,,,,,
180040,set_tempo,20,1,0,,,,,,,,,,,,634921,,,,,,,
180120,note_on,0,0,1,,,,,,,,,,,,,,,0,,,69,44
180120,note_on,120,0,1,,,,,,,,,,,,,,,0,,,59,0
180140,set_tempo,100,1,0,,,,,,,,,,,,631579,,,,,,,
180240,note_on,0,0,1,,,,,,,,,,,,,,,0,,,63,45
180240,note_on,120,0,1,,,,,,,,,,,,,,,0,,,69,0
180240,note_on,240,0,2,,,,,,,,,,,,,,,0,,,47,0
180240,note_on,0,0,2,,,,,,,,,,,,,,,0,,,57,32
180240,set_tempo,100,1,0,,,,,,,,,,,,628272,,,,,,,
180320,set_tempo,80,1,0,,,,,,,,,,,,625000,,,,,,,
180360,note_on,120,0,1,,,,,,,,,,,,,,,0,,,63,0
180360,note_on,0,0,1,,,,,,,,,,,,,,,0,,,71,44
180420,set_tempo,100,1,0,,,,,,,,,,,,621762,,,,,,,
180480,note_on,0,0,2,,,,,,,,,,,,,,,0,,,47,36
180480,note_on,240,0,2,,,,,,,,,,,,,,,0,,,57,0
180480,note_on,0,0,1,,,,,,,,,,,,,,,0,,,69,45
180480,note_on,120,0,1,,,,,,,,,,,,,,,0,,,71,0
180520,set_tempo,100,1,0,,,,,,,,,,,,618557,,,,,,,
180600,set_tempo,80,1,0,,,,,,,,,,,,615385,,,,,,,
180600,note_on,120,0,1,,,,,,,,,,,,,,,0,,,63,43
180660,set_tempo,60,1,0,,,,,,,,,,,,615385,,,,,,,
180720,note_on,0,0,2,,,,,,,,,,,,,,,0,,,54,31
180720,note_on,240,0,2,,,,,,,,,,,,,,,0,,,47,0
180720,note_on,120,0,1,,,,,,,,,,,,,,,0,,,63,0
180720,note_on,0,0,1,,,,,,,,,,,,,,,0,,,59,43
180840,note_on,120,0,1,,,,,,,,,,,,,,,0,,,59,0
180840,note_on,0,0,1,,,,,,,,,,,,,,,0,,,69,0
180840,note_on,0,0,1,,,,,,,,,,,,,,,0,,,69,45
180840,set_tempo,180,1,0,,,,,,,,,,,,618557,,,,,,,
180960,note_on,120,0,1,,,,,,,,,,,,,,,0,,,69,0
180960,note_on,0,0,1,,,,,,,,,,,,,,,0,,,68,45
180960,note_on,0,0,2,,,,,,,,,,,,,,,0,,,52,37
180960,note_on,240,0,2,,,,,,,,,,,,,,,0,,,54,0
181020,set_tempo,180,1,0,,,,,,,,,,,,621762,,,,,,,
181080,note_on,120,0,1,,,,,,,,,,,,,,,0,,,68,0
181080,note_on,0,0,1,,,,,,,,,,,,,,,0,,,59,42
181180,set_tempo,160,1,0,,,,,,,,,,,,625000,,,,,,,
181200,note_on,120,0,1,,,,,,,,,,,,,,,0,,,59,0
181200,note_on,240,0,2,,,,,,,,,,,,,,,0,,,52,0
181200,note_on,0,0,2,,,,,,,,,,,,,,,0,,,49,32
181200,note_on,0,0,1,,,,,,,,,,,,,,,0,,,64,44
181240,set_tempo,60,1,0,,,,,,,,,,,,608149,,,,,,,
181300,set_tempo,60,1,0,,,,,,,,,,,,611247,,,,,,,
181320,note_on,0,0,2,,,,,,,,,,,,,,,0,,,51,32
181320,note_on,120,0,2,,,,,,,,,,,,,,,0,,,49,0
181320,note_on,120,0,1,,,,,,,,,,,,,,,0,,,64,0
181320,note_on,0,0,1,,,,,,,,,,,,,,,0,,,66,45
181360,set_tempo,60,1,0,,,,,,,,,,,,614314,,,,,,,
181420,set_tempo,60,1,0,,,,,,,,,,,,617411,,,,,,,
181440,note_on,0,0,2,,,,,,,,,,,,,,,0,,,52,36
181440,note_on,120,0,2,,,,,,,,,,,,,,,0,,,51,0
181440,note_on,120,0,1,,,,,,,,,,,,,,,0,,,66,0
181440,note_on,0,0,1,,,,,,,,,,,,,,,0,,,68,47
181440,set_tempo,20,1,0,,,,,,,,,,,,608149,,,,,,,
181480,set_tempo,40,1,0,,,,,,,,,,,,623441,,,,,,,
181560,note_on,0,0,1,,,,,,,,,,,,,,,0,,,64,43
181560,set_tempo,80,1,0,,,,,,,,,,,,611558,,,,,,,
181560,note_on,120,0,1,,,,,,,,,,,,,,,0,,,68,0
181660,set_tempo,100,1,0,,,,,,,,,,,,614502,,,,,,,
181680,note_on,0,0,2,,,,,,,,,,,,,,,0,,,56,33
181680,note_on,120,0,1,,,,,,,,,,,,,,,0,,,64,0
181680,note_on,240,0,2,,,,,,,,,,,,,,,0,,,52,0
181680,note_on,0,0,1,,,,,,,,,,,,,,,0,,,68,45
181760,set_tempo,100,1,0,,,,,,,,,,,,617411,,,,,,,
181800,note_on,0,0,1,,,,,,,,,,,,,,,0,,,76,44
181800,note_on,120,0,1,,,,,,,,,,,,,,,0,,,68,0
181920,set_tempo,160,1,0,,,,,,,,,,,,629525,,,,,,,
181920,note_on,240,0,2,,,,,,,,,,,,,,,0,,,56,0
181920,note_on,0,0,2,,,,,,,,,,,,,,,0,,,53,36
181920,note_on,0,0,1,,,,,,,,,,,,,,,0,,,68,47
181920,note_on,120,0,1,,,,,,,,,,,,,,,0,,,76,0
182040,note_on,0,0,1,,,,,,,,,,,,,,,0,,,75,44
182040,note_on,120,0,1,,,,,,,,,,,,,,,0,,,68,0
182160,note_on,0,0,2,,,,,,,,,,,,,,,0,,,61,33
182160,note_on,0,0,1,,,,,,,,,,,,,,,0,,,68,48
182160,note_on,120,0,1,,,,,,,,,,,,,,,0,,,75,0
182160,note_on,240,0,2,,,,,,,,,,,,,,,0,,,53,0
182280,note_on,0,0,1,,,,,,,,,,,,,,,0,,,73,44
182280,note_on,120,0,1,,,,,,,,,,,,,,,0,,,68,0
182400,note_on,0,0,2,,,,,,,,,,,,,,,0,,,54,36
182400,note_on,240,0,2,,,,,,,,,,,,,,,0,,,61,0
182400,note_on,120,0,1,,,,,,,,,,,,,,,0,,,73,0
182400,note_on,0,0,1,,,,,,,,,,,,,,,0,,,69,48
182400,set_tempo,480,1,0,,,,,,,,,,,,633580,,,,,,,
182520,set_tempo,120,1,0,,,,,,,,,,,,615511,,,,,,,
182520,note_on,120,0,1,,,,,,,,,,,,,,,0,,,69,0
182520,note_on,0,0,1,,,,,,,,,,,,,,,0,,,61,44
182640,note_on,0,0,1,,,,,,,,,,,,,,,0,,,69,46
182640,note_on,120,0,1,,,,,,,,,,,,,,,0,,,61,0
182640,note_on,240,0,2,,,,,,,,,,,,,,,0,,,54,0
182640,note_on,0,0,2,,,,,,,,,,,,,,,0,,,42,32
182680,set_tempo,160,1,0,,,,,,,,,,,,618493,,,,,,,
182760,note_on,0,0,1,,,,,,,,,,,,,,,0,,,73,46
182760,note_on,120,0,1,,,,,,,,,,,,,,,0,,,69,0
182840,set_tempo,160,1,0,,,,,,,,,,,,621375,,,,,,,
182880,note_on,120,0,1,,,,,,,,,,,,,,,0,,,73,0
182880,note_on,0,0,2,,,,,,,,,,,,,,,0,,,44,32
182880,note_on,240,0,2,,,,,,,,,,,,,,,0,,,42,0
182880,note_on,0,0,1,,,,,,,,,,,,,,,0,,,68,47
183000,note_on,120,0,1,,,,,,,,,,,,,,,0,,,68,0
183000,set_tempo,160,1,0,,,,,,,,,,,,612557,,,,,,,
183000,note_on,0,0,1,,,,,,,,,,,,,,,0,,,71,43
183100,set_tempo,100,1,0,,,,,,,,,,,,615511,,,,,,,
183120,note_on,120,0,1,,,,,,,,,,,,,,,0,,,71,0
183120,note_on,0,0,1,,,,,,,,,,,,,,,0,,,66,45
183120,note_on,0,0,2,,,,,,,,,,,,,,,0,,,45,33
183120,note_on,240,0,2,,,,,,,,,,,,,,,0,,,44,0
183200,set_tempo,100,1,0,,,,,,,,,,,,618493,,,,,,,
183240,note_on,120,0,1,,,,,,,,,,,,,,,0,,,66,0
183240,note_on,0,0,1,,,,,,,,,,,,,,,0,,,69,43
183300,set_tempo,100,1,0,,,,,,,,,,,,621375,,,,,,,
183360,note_on,120,0,1,,,,,,,,,,,,,,,0,,,69,0
183360,set_tempo,60,1,0,,,,,,,,,,,,710059,,,,,,,
183360,note_on,0,0,1,,,,,,,,,,,,,,,0,,,64,45
183360,note_on,240,0,2,,,,,,,,,,,,,,,0,,,45,0
183360,note_on,0,0,2,,,,,,,,,,,,,,,0,,,44,36
183400,set_tempo,40,1,0,,,,,,,,,,,,713436,,,,,,,
183480,set_tempo,80,1,0,,,,,,,,,,,,703235,,,,,,,
183480,note_on,0,0,1,,,,,,,,,,,,,,,0,,,56,43
183480,note_on,120,0,1,,,,,,,,,,,,,,,0,,,64,0
183600,note_on,0,0,2,,,,,,,,,,,,,,,0,,,49,31
183600,note_on,240,0,2,,,,,,,,,,,,,,,0,,,44,0
183600,note_on,0,0,1,,,,,,,,,,,,,,,0,,,64,43
183600,note_on,120,0,1,,,,,,,,,,,,,,,0,,,56,0
183640,set_tempo,160,1,0,,,,,,,,,,,,706714,,,,,,,
183720,note_on,0,0,1,,,,,,,,,,,,,,,0,,,68,43
183720,note_on,120,0,1,,,,,,,,,,,,,,,0,,,64,0
183800,set_tempo,160,1,0,,,,,,,,,,,,710059,,,,,,,
183840,note_on,0,0,1,,,,,,,,,,,,,,,0,,,61,45
183840,note_on,120,0,1,,,,,,,,,,,,,,,0,,,68,0
183840,note_on,0,0,2,,,,,,,,,,,,,,,0,,,44,34
183840,note_on,240,0,2,,,,,,,,,,,,,,,0,,,49,0
183960,set_tempo,160,1,0,,,,,,,,,,,,703235,,,,,,,
183960,note_on,120,0,1,,,,,,,,,,,,,,,0,,,61,0
183960,note_on,0,0,1,,,,,,,,,,,,,,,0,,,55,40
184080,note_on,0,0,1,,,,,,,,,,,,,,,0,,,61,41
184080,note_on,0,0,2,,,,,,,,,,,,,,,0,,,52,32
184080,note_on,240,0,2,,,,,,,,,,,,,,,0,,,44,0
184080,note_on,120,0,1,,,,,,,,,,,,,,,0,,,55,0
184080,set_tempo,120,1,0,,,,,,,,,,,,706714,,,,,,,
184200,note_on,0,0,1,,,,,,,,,,,,,,,0,,,69,41
184200,note_on,120,0,1,,,,,,,,,,,,,,,0,,,61,0
184200,set_tempo,120,1,0,,,,,,,,,,,,710059,,,,,,,
184320,note_on,0,0,2,,,,,,,,,,,,,,,0,,,44,32
184320,note_on,120,0,1,,,,,,,,,,,,,,,0,,,69,0
184320,note_on,0,0,1,,,,,,,,,,,,,,,0,,,63,43
184320,set_tempo,120,1,0,,,,,,,,,,,,761325,,,,,,,
184320,note_on,240,0,2,,,,,,,,,,,,,,,0,,,52,0
184440,note_on,120,0,1,,,,,,,,,,,,,,,0,,,63,0
184440,note_on,0,0,1,,,,,,,,,,,,,,,0,,,54,39
184440,set_tempo,120,1,0,,,,,,,,,,,,750375,,,,,,,
184560,note_on,0,0,2,,,,,,,,,,,,,,,0,,,49,31
184560,note_on,240,0,2,,,,,,,,,,,,,,,0,,,44,0
184560,note_on,120,0,1,,,,,,,,,,,,,,,0,,,54,0
184560,note_on,0,0,1,,,,,,,,,,,,,,,0,,,63,39
184680,note_on,120,0,1,,,,,,,,,,,,,,,0,,,63,0
184680,note_on,0,0,1,,,,,,,,,,,,,,,0,,,68,39
184800,note_on,120,0,1,,,,,,,,,,,,,,,0,,,68,0
184800,note_on,240,0,2,,,,,,,,,,,,,,,0,,,49,0
184800,note_on,0,0,1,,,,,,,,,,,,,,,0,,,63,42
184800,note_on,0,0,2,,,,,,,,,,,,,,,0,,,44,32
184920,note_on,120,0,1,,,,,,,,,,,,,,,0,,,63,0
184920,note_on,0,0,1,,,,,,,,,,,,,,,0,,,54,38
185040,note_on,0,0,2,,,,,,,,,,,,,,,0,,,48,29
185040,note_on,240,0,2,,,,,,,,,,,,,,,0,,,44,0
185040,note_on,120,0,1,,,,,,,,,,,,,,,0,,,54,0
185040,note_on,0,0,1,,,,,,,,,,,,,,,0,,,63,38
185160,note_on,0,0,1,,,,,,,,,,,,,,,0,,,68,38
185160,note_on,120,0,1,,,,,,,,,,,,,,,0,,,63,0
185280,control_change,0,0,1,,,,,,,,,,,,,,,0,64,127,,
185280,note_on,0,0,1,,,,,,,,,,,,,,,0,,,61,38
185280,note_on,120,0,1,,,,,,,,,,,,,,,0,,,68,0
185280,note_on,240,0,2,,,,,,,,,,,,,,,0,,,48,0
185280,note_on,0,0,2,,,,,,,,,,,,,,,0,,,49,38
185280,set_tempo,840,1,0,,,,,,,,,,,,703235,,,,,,,
185400,note_on,120,0,1,,,,,,,,,,,,,,,0,,,61,0
185400,note_on,0,0,1,,,,,,,,,,,,,,,0,,,52,35
185520,note_on,120,0,1,,,,,,,,,,,,,,,0,,,52,0
185520,note_on,0,0,1,,,,,,,,,,,,,,,0,,,61,35
185520,note_on,240,0,2,,,,,,,,,,,,,,,0,,,49,0
185640,note_on,120,0,1,,,,,,,,,,,,,,,0,,,61,0
185640,note_on,0,0,1,,,,,,,,,,,,,,,0,,,64,35
185696,control_change,56,0,1,,,,,,,,,,,,,,,0,64,0,,
185760,note_on,64,0,1,,,,,,,,,,,,,,,0,,,64,0
185760,control_change,240,0,2,,,,,,,,,,,,,,,0,64,127,,
185760,note_on,0,0,2,,,,,,,,,,,,,,,0,,,44,38
185880,note_on,120,0,2,,,,,,,,,,,,,,,0,,,44,0
185880,note_on,0,0,2,,,,,,,,,,,,,,,0,,,37,35
186000,note_on,120,0,2,,,,,,,,,,,,,,,0,,,37,0
186000,note_on,0,0,2,,,,,,,,,,,,,,,0,,,44,35
186120,note_on,120,0,2,,,,,,,,,,,,,,,0,,,44,0
186120,note_on,0,0,2,,,,,,,,,,,,,,,0,,,49,36
186205,control_change,85,0,2,,,,,,,,,,,,,,,0,64,0,,
186240,note_on,35,0,2,,,,,,,,,,,,,,,0,,,49,0
186240,note_on,0,0,1,,,,,,,,,,,,,,,0,,,61,38
186240,control_change,480,0,1,,,,,,,,,,,,,,,0,64,127,,
186240,note_on,0,0,2,,,,,,,,,,,,,,,0,,,45,38
186360,note_on,120,0,1,,,,,,,,,,,,,,,0,,,61,0
186360,note_on,0,0,1,,,,,,,,,,,,,,,0,,,52,34
186480,note_on,240,0,2,,,,,,,,,,,,,,,0,,,45,0
186480,note_on,0,0,1,,,,,,,,,,,,,,,0,,,61,34
186480,note_on,120,0,1,,,,,,,,,,,,,,,0,,,52,0
186600,note_on,120,0,1,,,,,,,,,,,,,,,0,,,61,0
186600,note_on,0,0,1,,,,,,,,,,,,,,,0,,,64,34
186720,control_change,240,0,2,,,,,,,,,,,,,,,0,64,127,,
186720,note_on,0,0,2,,,,,,,,,,,,,,,0,,,40,38
186720,note_on,120,0,1,,,,,,,,,,,,,,,0,,,64,0
186720,control_change,0,0,1,,,,,,,,,,,,,,,0,64,0,,
186840,note_on,0,0,2,,,,,,,,,,,,,,,0,,,33,35
186840,note_on,120,0,2,,,,,,,,,,,,,,,0,,,40,0
186960,note_on,0,0,2,,,,,,,,,,,,,,,0,,,40,35
186960,note_on,120,0,2,,,,,,,,,,,,,,,0,,,33,0
187080,note_on,0,0,2,,,,,,,,,,,,,,,0,,,45,35
187080,note_on,120,0,2,,,,,,,,,,,,,,,0,,,40,0
187165,control_change,85,0,2,,,,,,,,,,,,,,,0,64,0,,
187200,note_on,0,0,2,,,,,,,,,,,,,,,0,,,42,38
187200,set_tempo,1920,1,0,,,,,,,,,,,,618557,,,,,,,
187200,note_on,0,0,1,,,,,,,,,,,,,,,0,,,62,38
187200,control_change,480,0,1,,,,,,,,,,,,,,,0,64,127,,
187200,note_on,35,0,2,,,,,,,,,,,,,,,0,,,45,0
187320,note_on,120,0,1,,,,,,,,,,,,,,,0,,,62,0
187320,note_on,0,0,1,,,,,,,,,,,,,,,0,,,57,36
187440,note_on,0,0,1,,,,,,,,,,,,,,,0,,,62,36
187440,note_on,240,0,2,,,,,,,,,,,,,,,0,,,42,0
187440,note_on,120,0,1,,,,,,,,,,,,,,,0,,,57,0
187560,note_on,0,0,1,,,,,,,,,,,,,,,0,,,66,36
187560,note_on,120,0,1,,,,,,,,,,,,,,,0,,,62,0
187680,note_on,0,0,1,,,,,,,,,,,,,,,0,,,66,35
187680,note_on,120,0,1,,,,,,,,,,,,,,,0,,,66,0
187680,note_on,240,0,2,,,,,,,,,,,,,,,0,,,50,36
187680,set_tempo,480,1,0,,,,,,,,,,,,605449,,,,,,,
187700,set_tempo,20,1,0,,,,,,,,,,,,618557,,,,,,,
187780,set_tempo,80,1,0,,,,,,,,,,,,621762,,,,,,,
187800,note_on,120,0,2,,,,,,,,,,,,,,,0,,,50,0
187800,note_on,0,0,2,,,,,,,,,,,,,,,0,,,54,37
187800,note_on,120,0,1,,,,,,,,,,,,,,,0,,,66,0
187800,note_on,0,0,1,,,,,,,,,,,,,,,0,,,69,39
187860,set_tempo,80,1,0,,,,,,,,,,,,625000,,,,,,,
187920,note_on,120,0,1,,,,,,,,,,,,,,,0,,,69,0
187920,note_on,0,0,1,,,,,,,,,,,,,,,0,,,74,42
187920,note_on,0,0,2,,,,,,,,,,,,,,,0,,,57,41
187920,note_on,120,0,2,,,,,,,,,,,,,,,0,,,54,0
187940,set_tempo,80,1,0,,,,,,,,,,,,628272,,,,,,,
188020,set_tempo,80,1,0,,,,,,,,,,,,631579,,,,,,,
188040,set_tempo,20,1,0,,,,,,,,,,,,683683,,,,,,,
188040,note_on,120,0,1,,,,,,,,,,,,,,,0,,,74,0
188040,note_on,0,0,1,,,,,,,,,,,,,,,0,,,78,46
188040,note_on,120,0,2,,,,,,,,,,,,,,,0,,,57,0
188040,note_on,0,0,2,,,,,,,,,,,,,,,0,,,62,44
188084,control_change,44,0,1,,,,,,,,,,,,,,,0,64,0,,
188140,set_tempo,100,1,0,,,,,,,,,,,,623182,,,,,,,
188160,note_on,120,0,2,,,,,,,,,,,,,,,0,,,62,0
188160,note_on,0,0,2,,,,,,,,,,,,,,,0,,,66,46
188160,set_tempo,20,1,0,,,,,,,,,,,,674157,,,,,,,
188160,note_on,76,0,1,,,,,,,,,,,,,,,0,,,78,0
188160,note_on,0,0,1,,,,,,,,,,,,,,,0,,,81,49
188160,control_change,0,0,2,,,,,,,,,,,,,,,0,64,127,,
188280,note_on,120,0,1,,,,,,,,,,,,,,,0,,,74,36
188400,note_on,0,0,1,,,,,,,,,,,,,,,0,,,78,44
188400,note_on,0,0,2,,,,,,,,,,,,,,,0,,,62,44
188400,note_on,0,0,2,,,,,,,,,,,,,,,0,,,54,44
188400,note_on,240,0,2,,,,,,,,,,,,,,,0,,,66,0
188400,note_on,120,0,1,,,,,,,,,,,,,,,0,,,74,0
188400,note_on,0,0,1,,,,,,,,,,,,,,,0,,,81,0
188400,note_on,0,0,1,,,,,,,,,,,,,,,0,,,69,37
188504,control_change,104,0,2,,,,,,,,,,,,,,,0,64,0,,
188520,note_on,120,0,1,,,,,,,,,,,,,,,0,,,69,0
188520,note_on,0,0,1,,,,,,,,,,,,,,,0,,,71,37
188540,control_change,20,0,1,,,,,,,,,,,,,,,0,64,0,,
188640,note_on,0,0,2,,,,,,,,,,,,,,,0,,,54,0
188640,note_on,0,0,2,,,,,,,,,,,,,,,0,,,56,41
188640,note_on,0,0,2,,,,,,,,,,,,,,,0,,,64,41
188640,note_on,136,0,2,,,,,,,,,,,,,,,0,,,62,0
188640,note_on,0,0,1,,,,,,,,,,,,,,,0,,,76,42
188640,note_on,0,0,1,,,,,,,,,,,,,,,0,,,73,35
188640,note_on,0,0,1,,,,,,,,,,,,,,,0,,,78,0
188640,note_on,100,0,1,,,,,,,,,,,,,,,0,,,71,0
188760,note_on,0,0,1,,,,,,,,,,,,,,,0,,,68,35
188760,note_on,120,0,1,,,,,,,,,,,,,,,0,,,73,0
188880,note_on,0,0,1,,,,,,,,,,,,,,,0,,,75,40
188880,note_on,0,0,2,,,,,,,,,,,,,,,0,,,66,39
188880,note_on,0,0,2,,,,,,,,,,,,,,,0,,,56,39
188880,note_on,0,0,2,,,,,,,,,,,,,,,0,,,56,0
188880,note_on,240,0,2,,,,,,,,,,,,,,,0,,,64,0
188880,note_on,0,0,1,,,,,,,,,,,,,,,0,,,72,35
188880,note_on,0,0,1,,,,,,,,,,,,,,,0,,,76,0
188880,note_on,120,0,1,,,,,,,,,,,,,,,0,,,68,0
189000,note_on,120,0,1,,,,,,,,,,,,,,,0,,,72,0
189000,note_on,0,0,1,,,,,,,,,,,,,,,0,,,68,35
189120,control_change,0,0,1,,,,,,,,,,,,,,,0,64,127,,
189120,note_on,0,0,2,,,,,,,,,,,,,,,0,,,61,36
189120,note_on,0,0,2,,,,,,,,,,,,,,,0,,,64,36
189120,note_on,240,0,2,,,,,,,,,,,,,,,0,,,66,0
189120,note_on,0,0,1,,,,,,,,,,,,,,,0,,,73,38
189120,note_on,0,0,1,,,,,,,,,,,,,,,0,,,75,0
189120,note_on,120,0,1,,,,,,,,,,,,,,,0,,,68,0
189120,set_tempo,960,1,0,,,,,,,,,,,,631579,,,,,,,
189120,note_on,0,0,2,,,,,,,,,,,,,,,0,,,56,0
189240,note_on,0,0,1,,,,,,,,,,,,,,,0,,,64,34
189240,note_on,120,0,1,,,,,,,,,,,,,,,0,,,73,0
189360,note_on,240,0,2,,,,,,,,,,,,,,,0,,,61,0
189360,note_on,0,0,2,,,,,,,,,,,,,,,0,,,64,0
189360,note_on,120,0,1,,,,,,,,,,,,,,,0,,,64,0
189360,note_on,0,0,1,,,,,,,,,,,,,,,0,,,73,34
189480,note_on,120,0,1,,,,,,,,,,,,,,,0,,,73,0
189480,note_on,0,0,1,,,,,,,,,,,,,,,0,,,76,34
189544,control_change,64,0,1,,,,,,,,,,,,,,,0,64,0,,
189600,control_change,240,0,2,,,,,,,,,,,,,,,0,64,127,,
189600,note_on,0,0,2,,,,,,,,,,,,,,,0,,,56,38
189600,note_on,56,0,1,,,,,,,,,,,,,,,0,,,76,0
189720,note_on,120,0,2,,,,,,,,,,,,,,,0,,,56,0
189720,note_on,0,0,2,,,,,,,,,,,,,,,0,,,49,35
189840,note_on,120,0,2,,,,,,,,,,,,,,,0,,,49,0
189840,note_on,0,0,2,,,,,,,,,,,,,,,0,,,56,35
189960,note_on,120,0,2,,,,,,,,,,,,,,,0,,,56,0
189960,note_on,0,0,2,,,,,,,,,,,,,,,0,,,61,35
190024,control_change,64,0,2,,,,,,,,,,,,,,,0,64,0,,
190080,control_change,480,0,1,,,,,,,,,,,,,,,0,64,127,,
190080,note_on,0,0,1,,,,,,,,,,,,,,,0,,,73,38
190080,note_on,56,0,2,,,,,,,,,,,,,,,0,,,61,0
190080,note_on,0,0,2,,,,,,,,,,,,,,,0,,,57,36
190200,note_on,120,0,1,,,,,,,,,,,,,,,0,,,73,0
190200,note_on,0,0,1,,,,,,,,,,,,,,,0,,,64,33
190320,note_on,120,0,1,,,,,,,,,,,,,,,0,,,64,0
190320,note_on,0,0,1,,,,,,,,,,,,,,,0,,,73,33
190320,note_on,240,0,2,,,,,,,,,,,,,,,0,,,57,0
190440,note_on,120,0,1,,,,,,,,,,,,,,,0,,,73,0
190440,note_on,0,0,1,,,,,,,,,,,,,,,0,,,76,33
190560,note_on,120,0,1,,,,,,,,,,,,,,,0,,,76,0
190560,control_change,0,0,1,,,,,,,,,,,,,,,0,64,0,,
190560,note_on,0,0,2,,,,,,,,,,,,,,,0,,,52,38
190560,control_change,240,0,2,,,,,,,,,,,,,,,0,64,127,,
190680,note_on,0,0,2,,,,,,,,,,,,,,,0,,,45,32
190680,note_on,120,0,2,,,,,,,,,,,,,,,0,,,52,0
190800,note_on,120,0,2,,,,,,,,,,,,,,,0,,,45,0
190800,note_on,0,0,2,,,,,,,,,,,,,,,0,,,52,32
190920,note_on,0,0,2,,,,,,,,,,,,,,,0,,,57,32
190920,note_on,120,0,2,,,,,,,,,,,,,,,0,,,52,0
190984,control_change,64,0,2,,,,,,,,,,,,,,,0,64,0,,
191040,note_on,0,0,2,,,,,,,,,,,,,,,0,,,54,38
191040,note_on,56,0,2,,,,,,,,,,,,,,,0,,,57,0
191040,note_on,480,0,1,,,,,,,,,,,,,,,0,,,74,38
191040,set_tempo,1920,1,0,,,,,,,,,,,,606061,,,,,,,
191044,control_change,4,0,2,,,,,,,,,,,,,,,0,64,127,,
191160,note_on,0,0,1,,,,,,,,,,,,,,,0,,,69,39
191160,note_on,120,0,1,,,,,,,,,,,,,,,0,,,74,0
191280,note_on,120,0,1,,,,,,,,,,,,,,,0,,,69,0
191280,note_on,0,0,2,,,,,,,,,,,,,,,0,,,57,41
191280,note_on,0,0,1,,,,,,,,,,,,,,,0,,,74,44
191280,note_on,236,0,2,,,,,,,,,,,,,,,0,,,54,0
191400,note_on,120,0,1,,,,,,,,,,,,,,,0,,,74,0
191400,note_on,120,0,2,,,,,,,,,,,,,,,0,,,57,0
191400,note_on,0,0,2,,,,,,,,,,,,,,,0,,,62,47
191400,note_on,0,0,1,,,,,,,,,,,,,,,0,,,78,49
191500,set_tempo,460,1,0,,,,,,,,,,,,606061,,,,,,,
191520,note_on,120,0,1,,,,,,,,,,,,,,,0,,,78,0
191520,note_on,0,0,1,,,,,,,,,,,,,,,0,,,81,55
191520,note_on,0,0,2,,,,,,,,,,,,,,,0,,,66,53
191520,note_on,120,0,2,,,,,,,,,,,,,,,0,,,62,0
191580,set_tempo,80,1,0,,,,,,,,,,,,609137,,,,,,,
191640,set_tempo,60,1,0,,,,,,,,,,,,612245,,,,,,,
191640,note_on,0,0,2,,,,,,,,,,,,,,,0,,,62,50
191640,note_on,120,0,2,,,,,,,,,,,,,,,0,,,66,0
191640,note_on,120,0,1,,,,,,,,,,,,,,,0,,,81,0
191640,note_on,0,0,1,,,,,,,,,,,,,,,0,,,78,53
191720,set_tempo,80,1,0,,,,,,,,,,,,615385,,,,,,,
191760,note_on,0,0,1,,,,,,,,,,,,,,,0,,,74,50
191760,note_on,0,0,2,,,,,,,,,,,,,,,0,,,57,48
191760,note_on,120,0,2,,,,,,,,,,,,,,,0,,,62,0
191760,note_on,120,0,1,,,,,,,,,,,,,,,0,,,78,0
191780,set_tempo,60,1,0,,,,,,,,,,,,618557,,,,,,,
191840,set_tempo,60,1,0,,,,,,,,,,,,621762,,,,,,,
191880,set_tempo,40,1,0,,,,,,,,,,,,691722,,,,,,,
191880,note_on,0,0,1,,,,,,,,,,,,,,,0,,,69,47
191880,note_on,120,0,1,,,,,,,,,,,,,,,0,,,74,0
191880,note_on,120,0,2,,,,,,,,,,,,,,,0,,,57,0
191880,note_on,0,0,2,,,,,,,,,,,,,,,0,,,54,46
191936,control_change,56,0,2,,,,,,,,,,,,,,,0,64,0,,
192000,set_tempo,120,1,0,,,,,,,,,,,,670391,,,,,,,
192000,note_on,0,0,2,,,,,,,,,,,,,,,0,,,56,44
192000,note_on,64,0,2,,,,,,,,,,,,,,,0,,,54,0
192000,note_on,120,0,1,,,,,,,,,,,,,,,0,,,69,0
192000,note_on,0,0,1,,,,,,,,,,,,,,,0,,,68,44
192000,control_change,0,0,2,,,,,,,,,,,,,,,0,64,127,,
192120,note_on,120,0,1,,,,,,,,,,,,,,,0,,,68,0
192120,note_on,0,0,1,,,,,,,,,,,,,,,0,,,76,43
192240,note_on,240,0,2,,,,,,,,,,,,,,,0,,,56,0
192240,note_on,0,0,2,,,,,,,,,,,,,,,0,,,56,39
192240,note_on,120,0,1,,,,,,,,,,,,,,,0,,,76,0
192240,note_on,0,0,1,,,,,,,,,,,,,,,0,,,64,47
192360,note_on,120,0,1,,,,,,,,,,,,,,,0,,,64,0
192360,note_on,0,0,1,,,,,,,,,,,,,,,0,,,73,42
192388,control_change,148,0,2,,,,,,,,,,,,,,,0,64,0,,
192480,set_tempo,480,1,0,,,,,,,,,,,,689655,,,,,,,
192480,note_on,120,0,1,,,,,,,,,,,,,,,0,,,73,0
192480,note_on,0,0,2,,,,,,,,,,,,,,,0,,,56,38
192480,note_on,92,0,2,,,,,,,,,,,,,,,0,,,56,0
192480,note_on,0,0,1,,,,,,,,,,,,,,,0,,,66,46
192600,note_on,120,0,1,,,,,,,,,,,,,,,0,,,66,0
192600,note_on,0,0,1,,,,,,,,,,,,,,,0,,,75,41
192720,note_on,0,0,2,,,,,,,,,,,,,,,0,,,56,37
192720,note_on,0,0,1,,,,,,,,,,,,,,,0,,,63,44
192720,note_on,240,0,2,,,,,,,,,,,,,,,0,,,56,0
192720,note_on,120,0,1,,,,,,,,,,,,,,,0,,,75,0
192840,note_on,120,0,1,,,,,,,,,,,,,,,0,,,63,0
192840,note_on,0,0,1,,,,,,,,,,,,,,,0,,,72,40
192960,note_on,0,0,2,,,,,,,,,,,,,,,0,,,56,35
192960,note_on,240,0,2,,,,,,,,,,,,,,,0,,,56,0
192960,note_on,120,0,1,,,,,,,,,,,,,,,0,,,72,0
192960,note_on,0,0,1,,,,,,,,,,,,,,,0,,,64,46
192960,set_tempo,480,1,0,,,,,,,,,,,,764331,,,,,,,
193080,note_on,120,0,1,,,,,,,,,,,,,,,0,,,64,0
193080,note_on,0,0,1,,,,,,,,,,,,,,,0,,,73,37
193200,note_on,240,0,2,,,,,,,,,,,,,,,0,,,44,32
193200,note_on,120,0,1,,,,,,,,,,,,,,,0,,,73,0
193200,note_on,0,0,1,,,,,,,,,,,,,,,0,,,61,37
193200,note_on,0,0,1,,,,,,,,,,,,,,,0,,,64,37
193320,note_on,0,0,1,,,,,,,,,,,,,,,0,,,68,30
193320,note_on,0,0,1,,,,,,,,,,,,,,,0,,,61,0
193320,note_on,120,0,1,,,,,,,,,,,,,,,0,,,64,0
193440,note_on,120,0,1,,,,,,,,,,,,,,,0,,,68,0
193440,set_tempo,480,1,0,,,,,,,,,,,,967742,,,,,,,
193440,note_on,240,0,2,,,,,,,,,,,,,,,0,,,44,0
193440,note_on,0,0,2,,,,,,,,,,,,,,,0,,,56,0
193440,note_on,0,0,2,,,,,,,,,,,,,,,0,,,44,27
193440,note_on,0,0,1,,,,,,,,,,,,,,,0,,,66,32
193440,note_on,0,0,1,,,,,,,,,,,,,,,0,,,63,32
193560,note_on,0,0,1,,,,,,,,,,,,,,,0,,,68,26
193560,note_on,0,0,1,,,,,,,,,,,,,,,0,,,63,0
193560,note_on,120,0,1,,,,,,,,,,,,,,,0,,,66,0
193680,note_on,120,0,1,,,,,,,,,,,,,,,0,,,68,0
193680,note_on,0,0,1,,,,,,,,,,,,,,,0,,,60,28
193680,note_on,0,0,1,,,,,,,,,,,,,,,0,,,63,28
193680,note_on,0,0,2,,,,,,,,,,,,,,,0,,,44,24
193680,note_on,240,0,2,,,,,,,,,,,,,,,0,,,44,0
193740,set_tempo,300,1,0,,,,,,,,,,,,1142857,,,,,,,
193760,set_tempo,20,1,0,,,,,,,,,,,,1153846,,,,,,,
193780,set_tempo,20,1,0,,,,,,,,,,,,1165049,,,,,,,
193800,note_on,120,0,1,,,,,,,,,,,,,,,0,,,63,0
193800,note_on,0,0,1,,,,,,,,,,,,,,,0,,,60,0
193800,note_on,0,0,1,,,,,,,,,,,,,,,0,,,68,24
193800,set_tempo,20,1,0,,,,,,,,,,,,1176471,,,,,,,
193820,set_tempo,20,1,0,,,,,,,,,,,,1188119,,,,,,,
193840,set_tempo,20,1,0,,,,,,,,,,,,1200000,,,,,,,
193860,set_tempo,20,1,0,,,,,,,,,,,,1212121,,,,,,,
193880,set_tempo,20,1,0,,,,,,,,,,,,1224490,,,,,,,
193900,set_tempo,20,1,0,,,,,,,,,,,,1250000,,,,,,,
193920,note_on,120,0,1,,,,,,,,,,,,,,,0,,,68,0
193920,note_on,240,0,2,,,,,,,,,,,,,,,0,,,44,0
193920,set_tempo,20,1,0,,,,,,,,,,,,975610,,,,,,,
194880,note_on,960,0,2,,,,,,,,,,,,,,,0,,,49,14
194880,note_on,0,0,2,,,,,,,,,,,,,,,0,,,56,14
194880,note_on,0,0,2,,,,,,,,,,,,,,,0,,,61,14
194880,control_change,0,0,2,,,,,,,,,,,,,,,0,91,127,,
194880,note_on,960,0,1,,,,,,,,,,,,,,,0,,,65,21
194880,key_signature,960,1,0,,,,,,,,,,,Db,,,,,,,,
194880,set_tempo,0,1,0,,,,,,,,,,,,952381,,,,,,,
194880,control_change,0,0,1,,,,,,,,,,,,,,,0,91,127,,
194901,control_change,21,0,2,,,,,,,,,,,,,,,0,64,127,,
195000,note_on,0,0,1,,,,,,,,,,,,,,,0,,,68,21
195000,note_on,120,0,1,,,,,,,,,,,,,,,0,,,65,0
195056,control_change,155,0,2,,,,,,,,,,,,,,,0,64,0,,
195120,note_on,120,0,1,,,,,,,,,,,,,,,0,,,68,0
195120,note_on,0,0,1,,,,,,,,,,,,,,,0,,,66,18
195120,note_on,0,0,1,,,,,,,,,,,,,,,0,,,70,18
195120,set_tempo,240,1,0,,,,,,,,,,,,1000000,,,,,,,
195120,note_on,64,0,2,,,,,,,,,,,,,,,0,,,61,0
195120,note_on,0,0,2,,,,,,,,,,,,,,,0,,,61,14
195120,note_on,0,0,2,,,,,,,,,,,,,,,0,,,56,14
195120,note_on,0,0,2,,,,,,,,,,,,,,,0,,,49,14
195120,note_on,0,0,2,,,,,,,,,,,,,,,0,,,49,0
195120,note_on,0,0,2,,,,,,,,,,,,,,,0,,,56,0
195155,control_change,35,0,2,,,,,,,,,,,,,,,0,64,127,,
195522,control_change,367,0,2,,,,,,,,,,,,,,,0,64,0,,
195600,note_on,0,0,2,,,,,,,,,,,,,,,0,,,49,0
195600,set_tempo,480,1,0,,,,,,,,,,,,1081081,,,,,,,
195600,note_on,0,0,2,,,,,,,,,,,,,,,0,,,56,0
195600,note_on,0,0,1,,,,,,,,,,,,,,,0,,,68,16
195600,note_on,0,0,1,,,,,,,,,,,,,,,0,,,65,16
195600,note_on,0,0,1,,,,,,,,,,,,,,,0,,,66,0
195600,note_on,78,0,2,,,,,,,,,,,,,,,0,,,61,0
195600,note_on,480,0,1,,,,,,,,,,,,,,,0,,,70,0
195600,note_on,0,0,2,,,,,,,,,,,,,,,0,,,61,12
195600,note_on,0,0,2,,,,,,,,,,,,,,,0,,,56,12
195600,note_on,0,0,2,,,,,,,,,,,,,,,0,,,49,12
195840,note_on,0,0,2,,,,,,,,,,,,,,,0,,,49,0
195840,note_on,0,0,2,,,,,,,,,,,,,,,0,,,56,14
195840,note_on,0,0,2,,,,,,,,,,,,,,,0,,,61,14
195840,note_on,240,0,2,,,,,,,,,,,,,,,0,,,61,0
195840,note_on,240,0,1,,,,,,,,,,,,,,,0,,,68,0
195840,note_on,0,0,1,,,,,,,,,,,,,,,0,,,65,0
195840,note_on,0,0,1,,,,,,,,,,,,,,,0,,,65,21
195840,control_change,0,0,2,,,,,,,,,,,,,,,0,64,127,,
195840,note_on,0,0,2,,,,,,,,,,,,,,,0,,,56,0
195840,note_on,0,0,2,,,,,,,,,,,,,,,0,,,49,14
195960,note_on,0,0,1,,,,,,,,,,,,,,,0,,,68,21
195960,note_on,120,0,1,,,,,,,,,,,,,,,0,,,65,0
195960,set_tempo,360,1,0,,,,,,,,,,,,1428571,,,,,,,
196031,control_change,191,0,2,,,,,,,,,,,,,,,0,64,0,,
196080,set_tempo,120,1,0,,,,,,,,,,,,1304348,,,,,,,
196080,note_on,0,0,2,,,,,,,,,,,,,,,0,,,49,0
196080,note_on,0,0,2,,,,,,,,,,,,,,,0,,,56,0
196080,note_on,49,0,2,,,,,,,,,,,,,,,0,,,61,0
196080,note_on,0,0,2,,,,,,,,,,,,,,,0,,,61,14
196080,note_on,120,0,1,,,,,,,,,,,,,,,0,,,68,0
196080,note_on,0,0,2,,,,,,,,,,,,,,,0,,,49,14
196080,note_on,0,0,1,,,,,,,,,,,,,,,0,,,66,20
196080,note_on,0,0,1,,,,,,,,,,,,,,,0,,,70,20
196080,note_on,0,0,1,,,,,,,,,,,,,,,0,,,73,20
196080,note_on,0,0,2,,,,,,,,,,,,,,,0,,,56,14
196122,control_change,42,0,2,,,,,,,,,,,,,,,0,64,127,,
196511,control_change,389,0,2,,,,,,,,,,,,,,,0,64,0,,
196540,set_tempo,460,1,0,,,,,,,,,,,,1967213,,,,,,,
196560,note_on,0,0,2,,,,,,,,,,,,,,,0,,,56,12
196560,note_on,0,0,2,,,,,,,,,,,,,,,0,,,49,12
196560,note_on,0,0,2,,,,,,,,,,,,,,,0,,,49,0
196560,note_on,0,0,2,,,,,,,,,,,,,,,0,,,56,0
196560,note_on,49,0,2,,,,,,,,,,,,,,,0,,,61,0
196560,note_on,480,0,1,,,,,,,,,,,,,,,0,,,73,0
196560,note_on,0,0,1,,,,,,,,,,,,,,,0,,,70,0
196560,set_tempo,20,1,0,,,,,,,,,,,,3000000,,,,,,,
196560,note_on,0,0,1,,,,,,,,,,,,,,,0,,,68,16
196560,note_on,0,0,1,,,,,,,,,,,,,,,0,,,65,16
196560,note_on,0,0,1,,,,,,,,,,,,,,,0,,,66,0
196560,note_on,0,0,2,,,,,,,,,,,,,,,0,,,61,12
196800,note_on,0,0,1,,,,,,,,,,,,,,,0,,,65,0
196800,note_on,0,0,1,,,,,,,,,,,,,,,0,,,68,13
196800,key_signature,240,1,0,,,,,,,,,,,E,,,,,,,,
196800,note_on,0,0,1,,,,,,,,,,,,,,,0,,,65,13
196800,note_on,240,0,2,,,,,,,,,,,,,,,0,,,61,0
196800,note_on,0,0,2,,,,,,,,,,,,,,,0,,,49,0
196800,note_on,0,0,2,,,,,,,,,,,,,,,0,,,49,10
196800,note_on,0,0,2,,,,,,,,,,,,,,,0,,,56,10
196800,note_on,0,0,2,,,,,,,,,,,,,,,0,,,61,10
196800,control_change,0,0,2,,,,,,,,,,,,,,,0,64,127,,
196800,note_on,240,0,1,,,,,,,,,,,,,,,0,,,68,0
196800,note_on,0,0,2,,,,,,,,,,,,,,,0,,,56,0
197189,control_change,389,0,2,,,,,,,,,,,,,,,0,64,0,,
197269,control_change,80,0,2,,,,,,,,,,,,,,,0,64,127,,
197280,note_on,11,0,2,,,,,,,,,,,,,,,0,,,61,0
197280,note_on,0,0,2,,,,,,,,,,,,,,,0,,,56,0
197280,note_on,480,0,1,,,,,,,,,,,,,,,0,,,68,0
197280,note_on,0,0,2,,,,,,,,,,,,,,,0,,,49,0
197280,note_on,0,0,2,,,,,,,,,,,,,,,0,,,54,24
197280,note_on,0,0,2,,,,,,,,,,,,,,,0,,,44,24
197280,note_on,0,0,1,,,,,,,,,,,,,,,0,,,65,0
197280,set_tempo,480,1,0,,,,,,,,,,,,1061947,,,,,,,
197280,end_of_track,0,1,1,,,,,,,,,,,,,,,,,,,
197320,set_tempo,40,1,0,,,,,,,,,,,,1052632,,,,,,,
197340,set_tempo,20,1,0,,,,,,,,,,,,1043478,,,,,,,
197380,set_tempo,40,1,0,,,,,,,,,,,,1034483,,,,,,,
197400,note_on,0,0,2,,,,,,,,,,,,,,,0,,,63,20
197400,set_tempo,20,1,0,,,,,,,,,,,,1025641,,,,,,,
197400,note_on,120,0,2,,,,,,,,,,,,,,,0,,,54,0
197434,control_change,34,0,2,,,,,,,,,,,,,,,0,64,0,,
197440,set_tempo,40,1,0,,,,,,,,,,,,1016949,,,,,,,
197460,set_tempo,20,1,0,,,,,,,,,,,,1008403,,,,,,,
197500,set_tempo,40,1,0,,,,,,,,,,,,1000000,,,,,,,
197520,set_tempo,20,1,0,,,,,,,,,,,,991736,,,,,,,
197520,note_on,0,0,2,,,,,,,,,,,,,,,0,,,44,24
197520,note_on,0,0,2,,,,,,,,,,,,,,,0,,,51,24
197520,note_on,0,0,2,,,,,,,,,,,,,,,0,,,44,0
197520,note_on,86,0,2,,,,,,,,,,,,,,,0,,,63,0
197526,control_change,6,0,2,,,,,,,,,,,,,,,0,64,127,,
197560,set_tempo,40,1,0,,,,,,,,,,,,983607,,,,,,,
197580,set_tempo,20,1,0,,,,,,,,,,,,975610,,,,,,,
197620,set_tempo,40,1,0,,,,,,,,,,,,967742,,,,,,,
197640,set_tempo,20,1,0,,,,,,,,,,,,960000,,,,,,,
197640,note_on,0,0,2,,,,,,,,,,,,,,,0,,,60,19
197640,note_on,114,0,2,,,,,,,,,,,,,,,0,,,51,0
197680,set_tempo,40,1,0,,,,,,,,,,,,952381,,,,,,,
197697,control_change,57,0,2,,,,,,,,,,,,,,,0,64,0,,
197700,set_tempo,20,1,0,,,,,,,,,,,,944882,,,,,,,
197740,set_tempo,40,1,0,,,,,,,,,,,,937500,,,,,,,
197760,note_on,0,0,2,,,,,,,,,,,,,,,0,,,44,27
197760,note_on,0,0,2,,,,,,,,,,,,,,,0,,,52,27
197760,note_on,0,0,2,,,,,,,,,,,,,,,0,,,44,0
197760,note_on,63,0,2,,,,,,,,,,,,,,,0,,,60,0
197760,set_tempo,20,1,0,,,,,,,,,,,,1016949,,,,,,,
197766,control_change,6,0,2,,,,,,,,,,,,,,,0,64,127,,
197820,set_tempo,60,1,0,,,,,,,,,,,,1025641,,,,,,,
197880,set_tempo,60,1,0,,,,,,,,,,,,1034483,,,,,,,
197880,note_on,0,0,2,,,,,,,,,,,,,,,0,,,61,22
197880,note_on,114,0,2,,,,,,,,,,,,,,,0,,,52,0
197940,set_tempo,60,1,0,,,,,,,,,,,,1043478,,,,,,,
197966,control_change,86,0,2,,,,,,,,,,,,,,,0,64,0,,
198000,note_on,34,0,2,,,,,,,,,,,,,,,0,,,61,0
198000,note_on,0,0,2,,,,,,,,,,,,,,,0,,,44,0
198000,note_on,0,0,2,,,,,,,,,,,,,,,0,,,56,28
198000,note_on,0,0,2,,,,,,,,,,,,,,,0,,,44,28
198000,set_tempo,60,1,0,,,,,,,,,,,,1052632,,,,,,,
198017,control_change,17,0,2,,,,,,,,,,,,,,,0,64,127,,
198060,set_tempo,60,1,0,,,,,,,,,,,,1061947,,,,,,,
198120,set_tempo,60,1,0,,,,,,,,,,,,1071429,,,,,,,
198120,note_on,103,0,2,,,,,,,,,,,,,,,0,,,56,0
198120,note_on,0,0,2,,,,,,,,,,,,,,,0,,,64,25
198149,control_change,29,0,2,,,,,,,,,,,,,,,0,64,0,,
198180,set_tempo,60,1,0,,,,,,,,,,,,1081081,,,,,,,
198220,set_tempo,40,1,0,,,,,,,,,,,,1090909,,,,,,,
198240,note_on,0,0,2,,,,,,,,,,,,,,,0,,,54,23
198240,set_tempo,20,1,0,,,,,,,,,,,,1290323,,,,,,,
198240,note_on,0,0,2,,,,,,,,,,,,,,,0,,,44,0
198240,note_on,91,0,2,,,,,,,,,,,,,,,0,,,64,0
198240,note_on,0,0,2,,,,,,,,,,,,,,,0,,,44,23
198251,control_change,11,0,2,,,,,,,,,,,,,,,0,64,127,,
198260,set_tempo,20,1,0,,,,,,,,,,,,1304348,,,,,,,
198320,set_tempo,60,1,0,,,,,,,,,,,,1318681,,,,,,,
198360,note_on,0,0,2,,,,,,,,,,,,,,,0,,,63,19
198360,note_on,109,0,2,,,,,,,,,,,,,,,0,,,54,0
198360,set_tempo,40,1,0,,,,,,,,,,,,1333333,,,,,,,
198420,set_tempo,60,1,0,,,,,,,,,,,,1348315,,,,,,,
198429,control_change,69,0,2,,,,,,,,,,,,,,,0,64,0,,
198460,set_tempo,40,1,0,,,,,,,,,,,,1363636,,,,,,,
198469,control_change,40,0,2,,,,,,,,,,,,,,,0,64,127,,
198480,note_on,11,0,2,,,,,,,,,,,,,,,0,,,63,0
198480,note_on,0,0,2,,,,,,,,,,,,,,,0,,,44,0
198480,note_on,0,0,2,,,,,,,,,,,,,,,0,,,51,22
198480,note_on,0,0,2,,,,,,,,,,,,,,,0,,,44,22
198520,set_tempo,60,1,0,,,,,,,,,,,,1379310,,,,,,,
198560,set_tempo,40,1,0,,,,,,,,,,,,1395349,,,,,,,
198600,set_tempo,40,1,0,,,,,,,,,,,,2400000,,,,,,,
198600,note_on,0,0,2,,,,,,,,,,,,,,,0,,,60,17
198600,note_on,120,0,2,,,,,,,,,,,,,,,0,,,51,0
198663,control_change,63,0,2,,,,,,,,,,,,,,,0,64,0,,
198720,control_change,0,0,2,,,,,,,,,,,,,,,0,64,127,,
198720,note_on,0,0,2,,,,,,,,,,,,,,,0,,,56,14
198720,note_on,57,0,2,,,,,,,,,,,,,,,0,,,60,0
198720,note_on,0,0,2,,,,,,,,,,,,,,,0,,,44,0
198720,note_on,0,0,2,,,,,,,,,,,,,,,0,,,37,14
198720,note_on,0,0,2,,,,,,,,,,,,,,,0,,,44,14
198720,note_on,0,0,2,,,,,,,,,,,,,,,0,,,49,14
198720,note_on,0,0,2,,,,,,,,,,,,,,,0,,,61,14
198720,note_on,0,0,2,,,,,,,,,,,,,,,0,,,52,14
199467,control_change,747,0,2,,,,,,,,,,,,,,,0,64,0,,
199680,note_on,0,0,2,,,,,,,,,,,,,,,0,,,56,0
199680,note_on,213,0,2,,,,,,,,,,,,,,,0,,,61,0
199680,note_on,0,0,2,,,,,,,,,,,,,,,0,,,44,0
199680,note_on,0,0,2,,,,,,,,,,,,,,,0,,,49,0
199680,end_of_track,0,1,2,,,,,,,,,,,,,,,,,,,
199680,note_on,0,0,2,,,,,,,,,,,,,,,0,,,52,0
199680,note_on,0,0,2,,,,,,,,,,,,,,,0,,,37,0
265920,set_tempo,67320,1,0,,,,,,,,,,,,796284,,,,,,,
265920,end_of_track,0,1,0,,,,,,,,,,,,,,,,,,,
