tick,type,numerator,denominator,clocks_per_click,notated_32nd_notes_per_beat,time,meta,track,key,tempo,program,channel,note,velocity
0,time_signature,3,4,24,8,0,1,0,,,,,,
0,key_signature,,,,,0,1,0,C,,,,,
0,set_tempo,,,,,0,1,0,,625000,,,,
0,set_tempo,,,,,0,1,0,,625000,,,,
0,note_on,,,,,0,0,1,,,,0,67,64
0,track_name,,,,,0,1,2,,,,,,
0,program_change,,,,,0,0,2,,,0,1,,
0,note_on,,,,,0,0,2,,,,1,55,64
0,program_change,,,,,0,0,1,,,0,0,,
0,track_name,,,,,0,1,1,,,,,,
896,note_on,,,,,896,0,1,,,,0,69,64
896,note_on,,,,,896,0,2,,,,1,57,64
1024,note_on,,,,,0,0,1,,,,0,67,64
1024,note_off,,,,,0,0,1,,,,0,69,0
1024,note_off,,,,,128,0,1,,,,0,67,0
1024,note_on,,,,,0,0,2,,,,1,55,64
1024,note_off,,,,,128,0,2,,,,1,55,0
1024,note_off,,,,,0,0,2,,,,1,57,0
1365,note_on,,,,,0,0,2,,,,1,52,64
1365,note_off,,,,,341,0,2,,,,1,55,0
1365,note_off,,,,,341,0,1,,,,0,67,0
1365,note_on,,,,,0,0,1,,,,0,64,64
1707,note_off,,,,,342,0,2,,,,1,52,0
1707,note_on,,,,,0,0,2,,,,1,48,64
1707,note_off,,,,,342,0,1,,,,0,64,0
1707,note_on,,,,,0,0,1,,,,0,60,64
2048,note_on,,,,,0,0,1,,,,0,67,64
2048,note_on,,,,,0,0,2,,,,1,55,64
2048,note_off,,,,,341,0,2,,,,1,48,0
2048,note_off,,,,,341,0,1,,,,0,60,0
2816,note_off,,,,,768,0,1,,,,0,67,0
2816,note_off,,,,,768,0,2,,,,1,55,0
2816,note_on,,,,,0,0,2,,,,1,64,64
2816,note_on,,,,,0,0,1,,,,0,76,64
3072,note_on,,,,,0,0,2,,,,1,64,80
3072,note_off,,,,,256,0,2,,,,1,64,0
3072,note_on,,,,,0,0,1,,,,0,76,64
3072,note_off,,,,,256,0,1,,,,0,76,0
5120,note_on,,,,,0,0,2,,,,1,60,64
5120,note_off,,,,,2048,0,2,,,,1,64,0
5120,note_off,,,,,2048,0,1,,,,0,76,0
5120,note_on,,,,,0,0,1,,,,0,72,64
5632,note_off,,,,,512,0,1,,,,0,72,0
5632,note_off,,,,,512,0,2,,,,1,60,0
6144,note_on,,,,,512,0,1,,,,0,67,64
7040,note_on,,,,,896,0,1,,,,0,65,64
7168,note_on,,,,,0,0,1,,,,0,64,64
7168,note_off,,,,,0,0,1,,,,0,65,0
7168,note_off,,,,,128,0,1,,,,0,67,0
7509,note_off,,,,,341,0,1,,,,0,64,0
7509,note_on,,,,,0,0,1,,,,0,60,64
7851,note_off,,,,,342,0,1,,,,0,60,0
7851,note_on,,,,,0,0,1,,,,0,55,64
8192,note_on,,,,,0,0,1,,,,0,60,64
8192,note_off,,,,,341,0,1,,,,0,55,0
8533,note_off,,,,,341,0,1,,,,0,60,0
8533,note_on,,,,,0,0,1,,,,0,64,64
8875,note_on,,,,,0,0,1,,,,0,67,64
8875,note_off,,,,,342,0,1,,,,0,64,0
9216,note_on,,,,,0,0,1,,,,0,67,64
9216,note_on,,,,,0,0,1,,,,0,64,64
9216,note_on,,,,,0,0,1,,,,0,55,64
9216,note_off,,,,,341,0,1,,,,0,67,0
9216,note_on,,,,,3584,0,2,,,,1,43,64
9421,note_off,,,,,205,0,2,,,,1,43,0
9728,note_on,,,,,0,0,1,,,,0,62,64
9728,note_on,,,,,0,0,1,,,,0,65,64
9728,note_off,,,,,0,0,1,,,,0,67,0
9728,note_off,,,,,0,0,1,,,,0,64,0
9728,note_off,,,,,512,0,1,,,,0,55,0
9728,note_on,,,,,0,0,1,,,,0,55,64
9728,note_on,,,,,307,0,2,,,,1,45,64
9933,note_off,,,,,0,0,1,,,,0,62,0
9933,note_off,,,,,205,0,1,,,,0,55,0
9933,note_off,,,,,0,0,1,,,,0,65,0
9984,note_off,,,,,256,0,2,,,,1,45,0
9984,note_on,,,,,0,0,2,,,,1,47,64
10240,note_on,,,,,307,0,1,,,,0,55,64
10240,note_on,,,,,0,0,1,,,,0,60,64
10240,note_on,,,,,0,0,1,,,,0,64,64
10240,note_off,,,,,256,0,2,,,,1,47,0
10240,note_on,,,,,0,0,2,,,,1,48,64
10445,note_off,,,,,0,0,1,,,,0,60,0
10445,note_off,,,,,205,0,1,,,,0,55,0
10445,note_off,,,,,0,0,1,,,,0,64,0
10752,note_on,,,,,307,0,1,,,,0,55,64
10752,note_on,,,,,0,0,1,,,,0,59,64
10752,note_on,,,,,0,0,1,,,,0,62,64
10752,note_off,,,,,512,0,2,,,,1,48,0
10752,note_on,,,,,0,0,2,,,,1,43,64
10957,note_off,,,,,205,0,2,,,,1,43,0
10957,note_off,,,,,0,0,1,,,,0,62,0
10957,note_off,,,,,205,0,1,,,,0,55,0
10957,note_off,,,,,0,0,1,,,,0,59,0
11264,note_on,,,,,0,0,1,,,,0,64,64
11264,note_on,,,,,0,0,1,,,,0,60,64
11264,note_on,,,,,307,0,1,,,,0,55,64
11264,note_on,,,,,307,0,2,,,,1,48,64
11469,note_off,,,,,205,0,2,,,,1,48,0
11469,note_off,,,,,0,0,1,,,,0,60,0
11469,note_off,,,,,205,0,1,,,,0,55,0
11469,note_off,,,,,0,0,1,,,,0,64,0
12288,note_on,,,,,0,0,1,,,,0,67,34
12288,note_on,,,,,0,0,1,,,,0,63,34
12288,note_on,,,,,819,0,1,,,,0,55,34
12288,note_on,,,,,819,0,2,,,,1,43,34
12493,note_off,,,,,205,0,2,,,,1,43,0
12493,note_off,,,,,205,0,1,,,,0,55,0
12493,note_off,,,,,0,0,1,,,,0,63,0
12493,note_off,,,,,0,0,1,,,,0,67,0
12800,note_on,,,,,307,0,2,,,,1,45,37
12800,note_on,,,,,307,0,1,,,,0,55,37
12800,note_on,,,,,0,0,1,,,,0,62,37
12800,note_on,,,,,0,0,1,,,,0,65,37
13005,note_off,,,,,205,0,1,,,,0,55,0
13005,note_off,,,,,0,0,1,,,,0,62,0
13005,note_off,,,,,0,0,1,,,,0,65,0
13056,note_on,,,,,0,0,2,,,,1,47,38
13056,note_off,,,,,256,0,2,,,,1,45,0
13312,note_on,,,,,0,0,1,,,,0,60,40
13312,note_on,,,,,0,0,1,,,,0,63,40
13312,note_on,,,,,307,0,1,,,,0,55,40
13312,note_on,,,,,0,0,2,,,,1,48,40
13312,note_off,,,,,256,0,2,,,,1,47,0
13517,note_off,,,,,205,0,2,,,,1,48,0
13517,note_off,,,,,0,0,1,,,,0,63,0
13517,note_off,,,,,0,0,1,,,,0,60,0
13517,note_off,,,,,205,0,1,,,,0,55,0
13824,note_on,,,,,0,0,1,,,,0,62,42
13824,note_on,,,,,307,0,2,,,,1,43,42
13824,note_on,,,,,307,0,1,,,,0,55,42
13824,note_on,,,,,0,0,1,,,,0,59,42
14029,note_off,,,,,205,0,1,,,,0,55,0
14029,note_off,,,,,0,0,1,,,,0,62,0
14029,note_off,,,,,0,0,1,,,,0,59,0
14029,note_off,,,,,205,0,2,,,,1,43,0
14336,note_on,,,,,307,0,1,,,,0,55,45
14336,note_on,,,,,307,0,2,,,,1,48,45
14336,note_on,,,,,0,0,1,,,,0,63,45
14336,note_on,,,,,0,0,1,,,,0,60,45
14541,note_off,,,,,205,0,2,,,,1,48,0
14541,note_off,,,,,205,0,1,,,,0,55,0
14541,note_off,,,,,0,0,1,,,,0,63,0
14541,note_off,,,,,0,0,1,,,,0,60,0
14848,note_on,,,,,0,0,1,,,,0,65,48
14848,note_on,,,,,0,0,1,,,,0,62,48
14848,note_on,,,,,307,0,1,,,,0,58,48
14848,note_on,,,,,307,0,2,,,,1,46,48
15053,note_off,,,,,0,0,1,,,,0,65,0
15053,note_off,,,,,0,0,1,,,,0,62,0
15053,note_off,,,,,205,0,1,,,,0,58,0
15053,note_off,,,,,205,0,2,,,,1,46,0
15360,note_on,,,,,307,0,2,,,,1,46,51
15360,note_on,,,,,307,0,1,,,,0,58,51
15360,note_on,,,,,0,0,1,,,,0,62,51
15360,note_on,,,,,0,0,1,,,,0,65,51
15872,note_off,,,,,512,0,1,,,,0,58,0
15872,note_off,,,,,0,0,1,,,,0,62,0
15872,note_off,,,,,0,0,1,,,,0,65,0
15872,note_on,,,,,0,0,1,,,,0,58,54
15872,note_on,,,,,0,0,1,,,,0,63,54
15872,note_on,,,,,0,0,1,,,,0,67,54
15872,note_on,,,,,0,0,2,,,,1,51,54
15872,note_off,,,,,512,0,2,,,,1,46,0
16077,note_off,,,,,0,0,1,,,,0,63,0
16077,note_off,,,,,205,0,1,,,,0,58,0
16077,note_off,,,,,205,0,2,,,,1,51,0
16077,note_off,,,,,0,0,1,,,,0,67,0
16384,note_on,,,,,307,0,2,,,,1,51,56
16384,note_on,,,,,0,0,1,,,,0,63,56
16384,note_on,,,,,307,0,1,,,,0,58,56
16384,note_on,,,,,0,0,1,,,,0,67,56
16589,note_off,,,,,205,0,1,,,,0,58,0
16589,note_off,,,,,0,0,1,,,,0,67,0
16589,note_off,,,,,205,0,2,,,,1,51,0
16589,note_off,,,,,0,0,1,,,,0,63,0
16896,note_on,,,,,307,0,1,,,,0,62,59
16896,note_on,,,,,0,0,1,,,,0,66,59
16896,note_on,,,,,0,0,1,,,,0,69,59
16896,note_on,,,,,307,0,2,,,,1,50,59
17101,note_off,,,,,205,0,2,,,,1,50,0
17101,note_off,,,,,205,0,1,,,,0,62,0
17101,note_off,,,,,0,0,1,,,,0,66,0
17101,note_off,,,,,0,0,1,,,,0,69,0
17408,note_on,,,,,307,0,2,,,,1,50,62
17408,note_on,,,,,307,0,1,,,,0,62,62
17408,note_on,,,,,0,0,1,,,,0,66,62
17408,note_on,,,,,0,0,1,,,,0,69,62
17613,note_off,,,,,0,0,1,,,,0,66,0
17613,note_off,,,,,205,0,2,,,,1,50,0
17613,note_off,,,,,205,0,1,,,,0,62,0
17613,note_off,,,,,0,0,1,,,,0,69,0
17920,note_on,,,,,307,0,1,,,,0,62,65
17920,note_on,,,,,0,0,1,,,,0,67,65
17920,note_on,,,,,0,0,1,,,,0,70,65
17920,note_on,,,,,307,0,2,,,,1,55,65
18125,note_off,,,,,205,0,2,,,,1,55,0
18125,note_off,,,,,205,0,1,,,,0,62,0
18125,note_off,,,,,0,0,1,,,,0,67,0
18125,note_off,,,,,0,0,1,,,,0,70,0
18432,note_on,,,,,0,0,1,,,,0,67,67
18432,note_on,,,,,307,0,2,,,,1,55,67
18432,note_on,,,,,0,0,1,,,,0,70,67
18432,note_on,,,,,307,0,1,,,,0,62,67
18944,note_off,,,,,512,0,1,,,,0,62,0
18944,note_off,,,,,0,0,1,,,,0,67,0
18944,note_off,,,,,0,0,1,,,,0,70,0
18944,note_on,,,,,0,0,1,,,,0,62,70
18944,note_on,,,,,0,0,1,,,,0,67,70
18944,note_on,,,,,0,0,2,,,,1,55,70
18944,note_on,,,,,0,0,2,,,,1,53,70
18944,note_on,,,,,0,0,2,,,,1,43,70
18944,note_off,,,,,512,0,2,,,,1,55,0
18944,note_on,,,,,0,0,1,,,,0,71,70
19456,note_off,,,,,0,0,2,,,,1,53,0
19456,note_off,,,,,512,0,2,,,,1,43,0
19456,note_on,,,,,0,0,2,,,,1,55,61
19456,note_off,,,,,0,0,2,,,,1,55,0
19456,note_on,,,,,0,0,2,,,,1,43,61
19456,note_on,,,,,0,0,2,,,,1,53,61
19456,note_on,,,,,0,0,1,,,,0,62,61
19456,note_on,,,,,0,0,1,,,,0,71,61
19456,note_on,,,,,0,0,1,,,,0,67,61
19456,note_off,,,,,0,0,1,,,,0,71,0
19456,note_off,,,,,0,0,1,,,,0,67,0
19456,note_off,,,,,512,0,1,,,,0,62,0
20992,note_on,,,,,0,0,2,,,,1,55,88
20992,note_on,,,,,0,0,2,,,,1,50,88
20992,note_on,,,,,0,0,2,,,,1,43,88
20992,note_off,,,,,0,0,2,,,,1,55,0
20992,note_off,,,,,0,0,2,,,,1,53,0
20992,note_off,,,,,1536,0,2,,,,1,43,0
20992,note_on,,,,,0,0,1,,,,0,77,88
20992,note_on,,,,,0,0,1,,,,0,71,88
20992,note_on,,,,,0,0,1,,,,0,65,88
20992,note_off,,,,,0,0,1,,,,0,71,0
20992,note_off,,,,,0,0,1,,,,0,67,0
20992,note_off,,,,,1536,0,1,,,,0,62,0
21504,note_off,,,,,0,0,2,,,,1,50,0
21504,note_off,,,,,0,0,1,,,,0,77,0
21504,note_off,,,,,0,0,1,,,,0,71,0
21504,note_off,,,,,512,0,1,,,,0,65,0
21504,note_on,,,,,0,0,1,,,,0,76,64
21504,note_off,,,,,0,0,2,,,,1,55,0
21504,note_on,,,,,0,0,2,,,,1,55,64
21504,note_on,,,,,0,0,2,,,,1,48,64
21504,note_on,,,,,0,0,1,,,,0,64,64
21504,note_off,,,,,512,0,2,,,,1,43,0
21504,note_on,,,,,0,0,1,,,,0,72,64
24576,note_off,,,,,0,0,1,,,,0,72,0
24576,note_off,,,,,3072,0,1,,,,0,64,0
24576,note_off,,,,,0,0,1,,,,0,76,0
24576,note_on,,,,,0,0,2,,,,1,55,64
24576,set_tempo,,,,,24576,1,0,,625000,,,,
24576,note_off,,,,,3072,0,2,,,,1,48,0
24576,note_off,,,,,0,0,2,,,,1,55,0
24576,note_on,,,,,0,0,1,,,,0,67,64
25472,note_on,,,,,896,0,1,,,,0,69,64
25472,note_on,,,,,896,0,2,,,,1,57,64
25600,note_off,,,,,128,0,1,,,,0,67,0
25600,note_on,,,,,0,0,1,,,,0,67,64
25600,note_off,,,,,0,0,1,,,,0,69,0
25600,note_off,,,,,0,0,2,,,,1,57,0
25600,note_off,,,,,128,0,2,,,,1,55,0
25600,note_on,,,,,0,0,2,,,,1,55,64
25941,note_on,,,,,0,0,1,,,,0,64,64
25941,note_off,,,,,341,0,1,,,,0,67,0
25941,note_on,,,,,0,0,2,,,,1,52,64
25941,note_off,,,,,341,0,2,,,,1,55,0
26283,note_on,,,,,0,0,1,,,,0,60,64
26283,note_off,,,,,342,0,1,,,,0,64,0
26283,note_on,,,,,0,0,2,,,,1,48,64
26283,note_off,,,,,342,0,2,,,,1,52,0
26624,note_off,,,,,341,0,2,,,,1,48,0
26624,note_on,,,,,0,0,2,,,,1,55,64
26624,note_on,,,,,0,0,1,,,,0,67,64
26624,note_off,,,,,341,0,1,,,,0,60,0
27392,note_on,,,,,0,0,2,,,,1,64,64
27392,note_off,,,,,768,0,2,,,,1,55,0
27392,note_off,,,,,768,0,1,,,,0,67,0
27392,note_on,,,,,0,0,1,,,,0,76,64
27648,note_on,,,,,0,0,2,,,,1,64,80
27648,note_off,,,,,256,0,2,,,,1,64,0
27648,note_on,,,,,0,0,1,,,,0,76,64
27648,note_off,,,,,256,0,1,,,,0,76,0
29696,note_on,,,,,0,0,1,,,,0,72,64
29696,note_off,,,,,2048,0,1,,,,0,76,0
29696,note_on,,,,,0,0,2,,,,1,60,64
29696,note_off,,,,,2048,0,2,,,,1,64,0
30208,note_off,,,,,512,0,1,,,,0,72,0
30208,note_off,,,,,512,0,2,,,,1,60,0
30720,note_on,,,,,512,0,1,,,,0,67,64
31616,note_on,,,,,896,0,1,,,,0,65,64
31744,note_off,,,,,128,0,1,,,,0,67,0
31744,note_off,,,,,0,0,1,,,,0,65,0
31744,note_on,,,,,0,0,1,,,,0,64,64
32085,note_off,,,,,341,0,1,,,,0,64,0
32085,note_on,,,,,0,0,1,,,,0,60,64
32427,note_on,,,,,0,0,1,,,,0,55,64
32427,note_off,,,,,342,0,1,,,,0,60,0
32768,note_off,,,,,341,0,1,,,,0,55,0
32768,note_on,,,,,0,0,1,,,,0,60,64
33109,note_off,,,,,341,0,1,,,,0,60,0
33109,note_on,,,,,0,0,1,,,,0,64,64
33451,note_off,,,,,342,0,1,,,,0,64,0
33451,note_on,,,,,0,0,1,,,,0,67,64
33792,note_on,,,,,0,0,1,,,,0,64,64
33792,note_off,,,,,341,0,1,,,,0,67,0
33792,note_on,,,,,3584,0,2,,,,1,43,64
33792,note_on,,,,,0,0,1,,,,0,67,64
33792,note_on,,,,,0,0,1,,,,0,55,64
33997,note_off,,,,,205,0,2,,,,1,43,0
34304,note_on,,,,,307,0,2,,,,1,45,64
34304,note_off,,,,,512,0,1,,,,0,55,0
34304,note_off,,,,,0,0,1,,,,0,64,0
34304,note_off,,,,,0,0,1,,,,0,67,0
34304,note_on,,,,,0,0,1,,,,0,55,64
34304,note_on,,,,,0,0,1,,,,0,62,64
34304,note_on,,,,,0,0,1,,,,0,65,64
34509,note_off,,,,,205,0,1,,,,0,55,0
34509,note_off,,,,,0,0,1,,,,0,62,0
34509,note_off,,,,,0,0,1,,,,0,65,0
34560,note_on,,,,,0,0,2,,,,1,47,64
34560,note_off,,,,,256,0,2,,,,1,45,0
34816,note_off,,,,,256,0,2,,,,1,47,0
34816,note_on,,,,,0,0,2,,,,1,48,64
34816,note_on,,,,,0,0,1,,,,0,64,64
34816,note_on,,,,,0,0,1,,,,0,60,64
34816,note_on,,,,,307,0,1,,,,0,55,64
35021,note_off,,,,,0,0,1,,,,0,60,0
35021,note_off,,,,,0,0,1,,,,0,64,0
35021,note_off,,,,,205,0,1,,,,0,55,0
35328,note_on,,,,,307,0,1,,,,0,55,64
35328,note_on,,,,,0,0,1,,,,0,59,64
35328,note_on,,,,,0,0,1,,,,0,62,64
35328,note_on,,,,,0,0,2,,,,1,43,64
35328,note_off,,,,,512,0,2,,,,1,48,0
35533,note_off,,,,,205,0,2,,,,1,43,0
35533,note_off,,,,,205,0,1,,,,0,55,0
35533,note_off,,,,,0,0,1,,,,0,62,0
35533,note_off,,,,,0,0,1,,,,0,59,0
35840,note_on,,,,,0,0,1,,,,0,64,64
35840,note_on,,,,,0,0,1,,,,0,60,64
35840,note_on,,,,,307,0,1,,,,0,55,64
35840,note_on,,,,,307,0,2,,,,1,48,64
36045,note_off,,,,,0,0,1,,,,0,60,0
36045,note_off,,,,,0,0,1,,,,0,64,0
36045,note_off,,,,,205,0,2,,,,1,48,0
36045,note_off,,,,,205,0,1,,,,0,55,0
36864,note_on,,,,,819,0,2,,,,1,43,34
36864,note_on,,,,,0,0,1,,,,0,63,34
36864,note_on,,,,,0,0,1,,,,0,67,34
36864,note_on,,,,,819,0,1,,,,0,55,34
37069,note_off,,,,,0,0,1,,,,0,67,0
37069,note_off,,,,,0,0,1,,,,0,63,0
37069,note_off,,,,,205,0,1,,,,0,55,0
37069,note_off,,,,,205,0,2,,,,1,43,0
37376,note_on,,,,,307,0,1,,,,0,55,37
37376,note_on,,,,,0,0,1,,,,0,62,37
37376,note_on,,,,,0,0,1,,,,0,65,37
37376,note_on,,,,,307,0,2,,,,1,45,37
37581,note_off,,,,,205,0,1,,,,0,55,0
37581,note_off,,,,,0,0,1,,,,0,62,0
37581,note_off,,,,,0,0,1,,,,0,65,0
37632,note_off,,,,,256,0,2,,,,1,45,0
37632,note_on,,,,,0,0,2,,,,1,47,38
37888,note_on,,,,,307,0,1,,,,0,55,40
37888,note_off,,,,,256,0,2,,,,1,47,0
37888,note_on,,,,,0,0,1,,,,0,60,40
37888,note_on,,,,,0,0,1,,,,0,63,40
37888,note_on,,,,,0,0,2,,,,1,48,40
38093,note_off,,,,,205,0,1,,,,0,55,0
38093,note_off,,,,,0,0,1,,,,0,60,0
38093,note_off,,,,,205,0,2,,,,1,48,0
38093,note_off,,,,,0,0,1,,,,0,63,0
38400,note_on,,,,,307,0,2,,,,1,43,42
38400,note_on,,,,,307,0,1,,,,0,55,42
38400,note_on,,,,,0,0,1,,,,0,59,42
38400,note_on,,,,,0,0,1,,,,0,62,42
38605,note_off,,,,,205,0,2,,,,1,43,0
38605,note_off,,,,,0,0,1,,,,0,62,0
38605,note_off,,,,,0,0,1,,,,0,59,0
38605,note_off,,,,,205,0,1,,,,0,55,0
38912,note_on,,,,,0,0,1,,,,0,63,45
38912,note_on,,,,,0,0,1,,,,0,60,45
38912,note_on,,,,,307,0,1,,,,0,55,45
38912,note_on,,,,,307,0,2,,,,1,48,45
39117,note_off,,,,,205,0,2,,,,1,48,0
39117,note_off,,,,,205,0,1,,,,0,55,0
39117,note_off,,,,,0,0,1,,,,0,60,0
39117,note_off,,,,,0,0,1,,,,0,63,0
39424,note_on,,,,,0,0,1,,,,0,62,48
39424,note_on,,,,,307,0,1,,,,0,58,48
39424,note_on,,,,,0,0,1,,,,0,65,48
39424,note_on,,,,,307,0,2,,,,1,46,48
39629,note_off,,,,,205,0,1,,,,0,58,0
39629,note_off,,,,,0,0,1,,,,0,65,0
39629,note_off,,,,,0,0,1,,,,0,62,0
39629,note_off,,,,,205,0,2,,,,1,46,0
39936,note_on,,,,,307,0,2,,,,1,46,51
39936,note_on,,,,,0,0,1,,,,0,65,51
39936,note_on,,,,,0,0,1,,,,0,62,51
39936,note_on,,,,,307,0,1,,,,0,58,51
40448,note_off,,,,,512,0,1,,,,0,58,0
40448,note_off,,,,,0,0,1,,,,0,65,0
40448,note_on,,,,,0,0,1,,,,0,58,54
40448,note_on,,,,,0,0,1,,,,0,63,54
40448,note_on,,,,,0,0,1,,,,0,67,54
40448,note_on,,,,,0,0,2,,,,1,51,54
40448,note_off,,,,,512,0,2,,,,1,46,0
40448,note_off,,,,,0,0,1,,,,0,62,0
40653,note_off,,,,,205,0,1,,,,0,58,0
40653,note_off,,,,,0,0,1,,,,0,67,0
40653,note_off,,,,,205,0,2,,,,1,51,0
40653,note_off,,,,,0,0,1,,,,0,63,0
40960,note_on,,,,,307,0,2,,,,1,51,56
40960,note_on,,,,,307,0,1,,,,0,58,56
40960,note_on,,,,,0,0,1,,,,0,63,56
40960,note_on,,,,,0,0,1,,,,0,67,56
41165,note_off,,,,,205,0,2,,,,1,51,0
41165,note_off,,,,,205,0,1,,,,0,58,0
41165,note_off,,,,,0,0,1,,,,0,63,0
41165,note_off,,,,,0,0,1,,,,0,67,0
41472,note_on,,,,,307,0,1,,,,0,62,59
41472,note_on,,,,,0,0,1,,,,0,66,59
41472,note_on,,,,,0,0,1,,,,0,69,59
41472,note_on,,,,,307,0,2,,,,1,50,59
41677,note_off,,,,,205,0,1,,,,0,62,0
41677,note_off,,,,,0,0,1,,,,0,66,0
41677,note_off,,,,,0,0,1,,,,0,69,0
41677,note_off,,,,,205,0,2,,,,1,50,0
41984,note_on,,,,,307,0,2,,,,1,50,62
41984,note_on,,,,,0,0,1,,,,0,66,62
41984,note_on,,,,,0,0,1,,,,0,69,62
41984,note_on,,,,,307,0,1,,,,0,62,62
42189,note_off,,,,,0,0,1,,,,0,66,0
42189,note_off,,,,,0,0,1,,,,0,69,0
42189,note_off,,,,,205,0,2,,,,1,50,0
42189,note_off,,,,,205,0,1,,,,0,62,0
42496,note_on,,,,,0,0,1,,,,0,70,65
42496,note_on,,,,,307,0,1,,,,0,62,65
42496,note_on,,,,,0,0,1,,,,0,67,65
42496,note_on,,,,,307,0,2,,,,1,55,65
42701,note_off,,,,,205,0,1,,,,0,62,0
42701,note_off,,,,,0,0,1,,,,0,67,0
42701,note_off,,,,,0,0,1,,,,0,70,0
42701,note_off,,,,,205,0,2,,,,1,55,0
43008,note_on,,,,,307,0,2,,,,1,55,67
43008,note_on,,,,,307,0,1,,,,0,62,67
43008,note_on,,,,,0,0,1,,,,0,67,67
43008,note_on,,,,,0,0,1,,,,0,70,67
43520,note_off,,,,,512,0,1,,,,0,62,0
43520,note_off,,,,,512,0,2,,,,1,55,0
43520,note_on,,,,,0,0,1,,,,0,62,70
43520,note_on,,,,,0,0,1,,,,0,67,70
43520,note_on,,,,,0,0,1,,,,0,71,70
43520,note_on,,,,,0,0,2,,,,1,55,70
43520,note_on,,,,,0,0,2,,,,1,53,70
43520,note_on,,,,,0,0,2,,,,1,43,70
43520,note_off,,,,,0,0,1,,,,0,70,0
43520,note_off,,,,,0,0,1,,,,0,67,0
44032,note_off,,,,,0,0,2,,,,1,53,0
44032,note_off,,,,,512,0,2,,,,1,43,0
44032,note_on,,,,,0,0,2,,,,1,43,61
44032,note_on,,,,,0,0,2,,,,1,55,61
44032,note_on,,,,,0,0,2,,,,1,53,61
44032,note_off,,,,,512,0,1,,,,0,62,0
44032,note_on,,,,,0,0,1,,,,0,71,61
44032,note_on,,,,,0,0,1,,,,0,67,61
44032,note_on,,,,,0,0,1,,,,0,62,61
44032,note_off,,,,,0,0,1,,,,0,71,0
44032,note_off,,,,,0,0,1,,,,0,67,0
44032,note_off,,,,,0,0,2,,,,1,55,0
45568,note_on,,,,,0,0,1,,,,0,77,88
45568,note_on,,,,,0,0,1,,,,0,71,88
45568,note_on,,,,,0,0,1,,,,0,65,88
45568,note_off,,,,,0,0,1,,,,0,71,0
45568,note_off,,,,,0,0,1,,,,0,67,0
45568,note_off,,,,,1536,0,1,,,,0,62,0
45568,note_off,,,,,1536,0,2,,,,1,43,0
45568,note_off,,,,,0,0,2,,,,1,53,0
45568,note_on,,,,,0,0,2,,,,1,55,88
45568,note_on,,,,,0,0,2,,,,1,50,88
45568,note_on,,,,,0,0,2,,,,1,43,88
45568,note_off,,,,,0,0,2,,,,1,55,0
46080,note_off,,,,,0,0,1,,,,0,77,0
46080,note_on,,,,,0,0,1,,,,0,72,64
46080,note_on,,,,,0,0,1,,,,0,64,64
46080,note_off,,,,,0,0,1,,,,0,71,0
46080,note_off,,,,,512,0,1,,,,0,65,0
46080,note_on,,,,,0,0,1,,,,0,76,64
46080,note_off,,,,,512,0,2,,,,1,43,0
46080,note_off,,,,,0,0,2,,,,1,50,0
46080,note_off,,,,,0,0,2,,,,1,55,0
46080,note_on,,,,,0,0,2,,,,1,48,64
46080,note_on,,,,,0,0,2,,,,1,55,64
49152,note_off,,,,,0,0,1,,,,0,72,0
49152,note_off,,,,,0,0,1,,,,0,76,0
49152,note_on,,,,,0,0,1,,,,0,76,64
49152,note_off,,,,,3072,0,2,,,,1,48,0
49152,note_off,,,,,0,0,2,,,,1,55,0
49152,note_off,,,,,3072,0,1,,,,0,64,0
50048,note_on,,,,,896,0,1,,,,0,77,64
50176,note_off,,,,,0,0,1,,,,0,77,0
50176,note_off,,,,,128,0,1,,,,0,76,0
50176,note_on,,,,,0,0,1,,,,0,76,64
50517,note_off,,,,,341,0,1,,,,0,76,0
50517,note_on,,,,,0,0,1,,,,0,72,64
50859,note_on,,,,,0,0,1,,,,0,69,64
50859,note_off,,,,,342,0,1,,,,0,72,0
51072,note_on,,,,,213,0,1,,,,0,74,64
51200,note_off,,,,,128,0,1,,,,0,69,0
51200,note_off,,,,,0,0,1,,,,0,74,0
51200,note_on,,,,,0,0,1,,,,0,72,64
51541,note_off,,,,,341,0,1,,,,0,72,0
51541,note_on,,,,,0,0,1,,,,0,69,64
51883,note_off,,,,,342,0,1,,,,0,69,0
51883,note_on,,,,,0,0,1,,,,0,64,64
52224,note_on,,,,,0,0,2,,,,1,64,64
52224,note_off,,,,,341,0,1,,,,0,64,0
52224,note_on,,,,,0,0,1,,,,0,69,64
52224,note_on,,,,,0,0,1,,,,0,72,64
52224,note_on,,,,,3072,0,2,,,,1,52,64
52736,note_off,,,,,512,0,1,,,,0,69,0
52736,note_off,,,,,0,0,1,,,,0,72,0
52736,note_on,,,,,0,0,1,,,,0,68,64
52736,note_on,,,,,0,0,1,,,,0,71,64
53120,note_on,,,,,896,0,2,,,,1,53,64
53248,note_off,,,,,0,0,2,,,,1,64,0
53248,note_off,,,,,0,0,2,,,,1,53,0
53248,note_on,,,,,0,0,2,,,,1,52,64
53248,note_off,,,,,512,0,1,,,,0,68,0
53248,note_off,,,,,0,0,1,,,,0,71,0
53248,note_on,,,,,0,0,1,,,,0,64,64
53248,note_on,,,,,0,0,1,,,,0,68,64
53248,note_on,,,,,0,0,1,,,,0,71,64
53248,note_off,,,,,128,0,2,,,,1,52,0
53453,note_off,,,,,0,0,1,,,,0,68,0
53453,note_off,,,,,0,0,1,,,,0,71,0
53453,note_off,,,,,205,0,1,,,,0,64,0
53589,note_off,,,,,341,0,2,,,,1,52,0
53589,note_on,,,,,0,0,2,,,,1,48,64
53760,note_on,,,,,307,0,1,,,,0,64,64
53760,note_on,,,,,0,0,1,,,,0,69,64
53760,note_on,,,,,0,0,1,,,,0,66,64
53931,note_off,,,,,342,0,2,,,,1,48,0
53931,note_on,,,,,0,0,2,,,,1,40,64
53965,note_off,,,,,0,0,1,,,,0,69,0
53965,note_off,,,,,205,0,1,,,,0,64,0
53965,note_off,,,,,0,0,1,,,,0,66,0
54272,note_off,,,,,341,0,2,,,,1,40,0
54272,note_on,,,,,0,0,2,,,,1,52,64
54272,note_on,,,,,0,0,1,,,,0,71,64
54272,note_on,,,,,0,0,1,,,,0,67,64
54272,note_on,,,,,307,0,1,,,,0,64,64
55296,note_off,,,,,1024,0,2,,,,1,52,0
55296,note_on,,,,,0,0,2,,,,1,52,64
55296,note_on,,,,,0,0,2,,,,1,64,64
55296,note_on,,,,,0,0,2,,,,1,67,64
55296,note_off,,,,,1024,0,1,,,,0,64,0
55296,note_off,,,,,0,0,1,,,,0,67,0
55296,note_off,,,,,0,0,1,,,,0,71,0
55296,note_on,,,,,0,0,1,,,,0,72,64
55808,note_off,,,,,512,0,1,,,,0,72,0
55808,note_on,,,,,0,0,1,,,,0,71,64
56192,note_on,,,,,896,0,2,,,,1,53,64
56320,note_on,,,,,0,0,2,,,,1,52,64
56320,note_off,,,,,0,0,2,,,,1,53,0
56320,note_off,,,,,0,0,2,,,,1,67,0
56320,note_off,,,,,0,0,2,,,,1,64,0
56320,note_off,,,,,128,0,2,,,,1,52,0
56320,note_on,,,,,0,0,1,,,,0,64,64
56320,note_on,,,,,0,0,1,,,,0,67,64
56320,note_on,,,,,0,0,1,,,,0,71,64
56320,note_off,,,,,512,0,1,,,,0,71,0
56525,note_off,,,,,205,0,1,,,,0,64,0
56525,note_off,,,,,0,0,1,,,,0,67,0
56525,note_off,,,,,0,0,1,,,,0,71,0
56661,note_off,,,,,341,0,2,,,,1,52,0
56661,note_on,,,,,0,0,2,,,,1,55,64
56832,note_on,,,,,307,0,1,,,,0,64,64
56832,note_on,,,,,0,0,1,,,,0,67,64
56832,note_on,,,,,0,0,1,,,,0,72,64
57003,note_off,,,,,342,0,2,,,,1,55,0
57003,note_on,,,,,0,0,2,,,,1,60,64
57037,note_off,,,,,0,0,1,,,,0,72,0
57037,note_off,,,,,205,0,1,,,,0,64,0
57037,note_off,,,,,0,0,1,,,,0,67,0
57344,note_on,,,,,0,0,2,,,,1,62,64
57344,note_on,,,,,0,0,2,,,,1,65,64
57344,note_on,,,,,0,0,2,,,,1,67,64
57344,note_off,,,,,341,0,2,,,,1,60,0
57344,note_on,,,,,307,0,1,,,,0,71,64
57856,note_on,,,,,0,0,1,,,,0,77,64
57856,note_off,,,,,512,0,1,,,,0,71,0
58368,note_on,,,,,0,0,2,,,,1,64,64
58368,note_off,,,,,0,0,2,,,,1,67,0
58368,note_off,,,,,0,0,2,,,,1,65,0
58368,note_off,,,,,1024,0,2,,,,1,62,0
58368,note_off,,,,,512,0,1,,,,0,77,0
58368,note_on,,,,,0,0,1,,,,0,67,64
58368,note_on,,,,,0,0,1,,,,0,76,64
58368,note_on,,,,,0,0,2,,,,1,60,64
59264,note_on,,,,,896,0,1,,,,0,74,64
59392,note_on,,,,,0,0,2,,,,1,62,64
59392,note_on,,,,,0,0,2,,,,1,66,64
59392,note_off,,,,,0,0,2,,,,1,64,0
59392,note_off,,,,,1024,0,2,,,,1,60,0
59392,note_on,,,,,0,0,1,,,,0,72,64
59392,note_off,,,,,128,0,1,,,,0,67,0
59392,note_off,,,,,0,0,1,,,,0,76,0
59392,note_off,,,,,0,0,1,,,,0,74,0
59597,note_off,,,,,205,0,2,,,,1,62,0
59597,note_off,,,,,0,0,2,,,,1,66,0
59733,note_on,,,,,0,0,1,,,,0,71,64
59733,note_off,,,,,341,0,1,,,,0,72,0
59904,note_on,,,,,307,0,2,,,,1,62,64
59904,note_on,,,,,0,0,2,,,,1,66,64
60075,note_off,,,,,342,0,1,,,,0,71,0
60075,note_on,,,,,0,0,1,,,,0,69,64
60109,note_off,,,,,0,0,2,,,,1,66,0
60109,note_off,,,,,205,0,2,,,,1,62,0
60416,note_on,,,,,0,0,2,,,,1,62,64
60416,note_on,,,,,307,0,2,,,,1,55,64
60416,note_on,,,,,0,0,1,,,,0,71,64
60416,note_off,,,,,341,0,1,,,,0,69,0
60416,note_on,,,,,0,0,2,,,,1,67,64
61440,note_off,,,,,0,0,2,,,,1,62,0
61440,note_off,,,,,0,0,2,,,,1,67,0
61440,note_on,,,,,0,0,1,,,,0,71,88
61440,note_off,,,,,1024,0,1,,,,0,71,0
61440,note_off,,,,,1024,0,2,,,,1,55,0
61440,note_on,,,,,0,0,2,,,,1,59,88
62336,note_on,,,,,896,0,2,,,,1,60,88
62336,note_on,,,,,896,0,1,,,,0,72,88
62464,note_off,,,,,0,0,1,,,,0,72,0
62464,note_on,,,,,0,0,1,,,,0,71,88
62464,note_off,,,,,128,0,1,,,,0,71,0
62464,note_off,,,,,128,0,2,,,,1,59,0
62464,note_off,,,,,0,0,2,,,,1,60,0
62464,note_on,,,,,0,0,2,,,,1,59,88
62805,note_on,,,,,0,0,2,,,,1,55,88
62805,note_off,,,,,341,0,1,,,,0,71,0
62805,note_on,,,,,0,0,1,,,,0,67,88
62805,note_off,,,,,341,0,2,,,,1,59,0
63147,note_off,,,,,342,0,2,,,,1,55,0
63147,note_on,,,,,0,0,2,,,,1,52,88
63147,note_on,,,,,0,0,1,,,,0,64,88
63147,note_off,,,,,342,0,1,,,,0,67,0
63488,note_off,,,,,341,0,2,,,,1,52,0
63488,note_on,,,,,0,0,2,,,,1,67,88
63488,note_on,,,,,0,0,1,,,,0,79,88
63488,note_off,,,,,341,0,1,,,,0,64,0
64000,note_off,,,,,512,0,1,,,,0,79,0
64000,note_on,,,,,0,0,2,,,,1,64,88
64000,note_off,,,,,512,0,2,,,,1,67,0
64000,note_on,,,,,0,0,1,,,,0,76,88
64256,note_off,,,,,256,0,1,,,,0,76,0
64256,note_off,,,,,256,0,2,,,,1,64,0
64512,note_on,,,,,256,0,1,,,,0,71,88
64512,note_on,,,,,256,0,2,,,,1,59,88
65408,note_on,,,,,896,0,1,,,,0,72,88
65408,note_on,,,,,896,0,2,,,,1,60,88
65536,note_on,,,,,0,0,1,,,,0,71,88
65536,note_off,,,,,0,0,1,,,,0,72,0
65536,note_on,,,,,0,0,2,,,,1,59,88
65536,note_off,,,,,128,0,1,,,,0,71,0
65536,note_off,,,,,128,0,2,,,,1,59,0
65536,note_off,,,,,0,0,2,,,,1,60,0
65877,note_on,,,,,0,0,2,,,,1,55,88
65877,note_on,,,,,0,0,1,,,,0,67,88
65877,note_off,,,,,341,0,1,,,,0,71,0
65877,note_off,,,,,341,0,2,,,,1,59,0
66219,note_off,,,,,342,0,2,,,,1,55,0
66219,note_on,,,,,0,0,2,,,,1,52,88
66219,note_on,,,,,0,0,1,,,,0,64,88
66219,note_off,,,,,342,0,1,,,,0,67,0
66560,note_off,,,,,341,0,1,,,,0,64,0
66560,note_on,,,,,0,0,1,,,,0,79,88
66560,note_on,,,,,0,0,2,,,,1,67,88
66560,note_off,,,,,341,0,2,,,,1,52,0
67072,note_on,,,,,0,0,1,,,,0,76,88
67072,note_off,,,,,512,0,1,,,,0,79,0
67072,note_on,,,,,0,0,2,,,,1,64,88
67072,note_off,,,,,512,0,2,,,,1,67,0
67328,note_off,,,,,256,0,1,,,,0,76,0
67328,note_off,,,,,256,0,2,,,,1,64,0
67584,note_on,,,,,256,0,2,,,,1,47,110
67584,note_on,,,,,0,0,1,,,,0,83,110
67584,note_on,,,,,0,0,1,,,,0,78,110
67584,note_on,,,,,256,0,1,,,,0,75,110
68096,note_off,,,,,512,0,2,,,,1,47,0
68096,note_on,,,,,0,0,2,,,,1,59,88
68096,note_on,,,,,0,0,1,,,,0,71,88
68096,note_off,,,,,0,0,1,,,,0,83,0
68096,note_off,,,,,0,0,1,,,,0,78,0
68096,note_off,,,,,512,0,1,,,,0,75,0
68352,note_off,,,,,256,0,2,,,,1,59,0
68352,note_off,,,,,256,0,1,,,,0,71,0
68480,note_on,,,,,128,0,2,,,,1,63,88
68480,note_on,,,,,128,0,1,,,,0,81,88
68608,note_off,,,,,128,0,1,,,,0,81,0
68608,note_on,,,,,0,0,1,,,,0,79,88
68608,note_on,,,,,0,0,2,,,,1,64,88
68608,note_off,,,,,128,0,2,,,,1,63,0
68949,note_off,,,,,341,0,1,,,,0,79,0
68949,note_on,,,,,0,0,2,,,,1,66,88
68949,note_off,,,,,341,0,2,,,,1,64,0
68949,note_on,,,,,0,0,1,,,,0,78,88
69291,note_off,,,,,342,0,1,,,,0,78,0
69291,note_on,,,,,0,0,1,,,,0,76,88
69291,note_off,,,,,342,0,2,,,,1,66,0
69291,note_on,,,,,0,0,2,,,,1,67,88
69632,note_off,,,,,341,0,2,,,,1,67,0
69632,note_on,,,,,0,0,1,,,,0,75,110
69632,note_on,,,,,0,0,1,,,,0,78,110
69632,note_on,,,,,0,0,1,,,,0,83,110
69632,note_off,,,,,341,0,1,,,,0,76,0
69632,note_on,,,,,0,0,2,,,,1,47,110
70144,note_off,,,,,512,0,1,,,,0,75,0
70144,note_off,,,,,0,0,1,,,,0,78,0
70144,note_off,,,,,0,0,1,,,,0,83,0
70144,note_on,,,,,0,0,1,,,,0,71,88
70144,note_on,,,,,0,0,2,,,,1,59,88
70144,note_off,,,,,512,0,2,,,,1,47,0
70400,note_off,,,,,256,0,1,,,,0,71,0
70400,note_off,,,,,256,0,2,,,,1,59,0
70528,note_on,,,,,128,0,2,,,,1,63,88
70528,note_on,,,,,128,0,1,,,,0,81,88
70656,note_on,,,,,0,0,1,,,,0,79,88
70656,note_off,,,,,128,0,1,,,,0,81,0
70656,note_on,,,,,0,0,2,,,,1,64,88
70656,note_off,,,,,128,0,2,,,,1,63,0
70997,note_on,,,,,0,0,1,,,,0,78,88
70997,note_off,,,,,341,0,1,,,,0,79,0
70997,note_on,,,,,0,0,2,,,,1,66,88
70997,note_off,,,,,341,0,2,,,,1,64,0
71339,note_on,,,,,0,0,1,,,,0,76,88
71339,note_on,,,,,0,0,2,,,,1,67,88
71339,note_off,,,,,342,0,2,,,,1,66,0
71339,note_off,,,,,342,0,1,,,,0,78,0
71680,note_on,,,,,0,0,1,,,,0,78,110
71680,note_on,,,,,0,0,2,,,,1,47,110
71680,note_on,,,,,0,0,1,,,,0,83,110
71680,note_on,,,,,0,0,1,,,,0,75,110
71680,note_off,,,,,341,0,2,,,,1,67,0
71680,note_off,,,,,341,0,1,,,,0,76,0
72192,note_off,,,,,0,0,1,,,,0,78,0
72192,note_on,,,,,0,0,1,,,,0,71,88
72192,note_off,,,,,512,0,2,,,,1,47,0
72192,note_on,,,,,0,0,2,,,,1,59,88
72192,note_off,,,,,512,0,1,,,,0,75,0
72192,note_off,,,,,0,0,1,,,,0,83,0
72448,note_off,,,,,256,0,2,,,,1,59,0
72448,note_off,,,,,256,0,1,,,,0,71,0
72704,note_on,,,,,256,0,2,,,,1,35,110
72704,note_on,,,,,256,0,1,,,,0,95,110
73216,note_off,,,,,512,0,1,,,,0,95,0
73216,note_on,,,,,0,0,2,,,,1,47,88
73216,note_off,,,,,512,0,2,,,,1,35,0
73216,note_on,,,,,0,0,1,,,,0,83,88
73472,note_off,,,,,256,0,1,,,,0,83,0
73472,note_off,,,,,256,0,2,,,,1,47,0
76800,note_on,,,,,3328,0,1,,,,0,79,64
76800,note_on,,,,,3328,0,2,,,,1,64,64
77312,note_off,,,,,512,0,2,,,,1,64,0
77312,note_on,,,,,0,0,2,,,,1,67,63
77312,note_on,,,,,0,0,1,,,,0,76,63
77312,note_off,,,,,512,0,1,,,,0,79,0
77568,note_off,,,,,256,0,2,,,,1,67,0
77568,note_off,,,,,256,0,1,,,,0,76,0
77824,note_on,,,,,256,0,1,,,,0,79,61
77824,note_on,,,,,256,0,2,,,,1,64,61
78336,note_on,,,,,0,0,1,,,,0,76,60
78336,note_off,,,,,512,0,1,,,,0,79,0
78336,note_off,,,,,512,0,2,,,,1,64,0
78336,note_on,,,,,0,0,2,,,,1,67,60
78592,note_off,,,,,256,0,1,,,,0,76,0
78592,note_off,,,,,256,0,2,,,,1,67,0
78848,note_on,,,,,256,0,2,,,,1,64,59
78848,note_on,,,,,256,0,1,,,,0,79,59
79360,note_on,,,,,0,0,2,,,,1,67,58
79360,note_on,,,,,0,0,1,,,,0,76,58
79360,note_off,,,,,512,0,2,,,,1,64,0
79360,note_off,,,,,512,0,1,,,,0,79,0
79616,note_off,,,,,256,0,2,,,,1,67,0
79616,note_off,,,,,256,0,1,,,,0,76,0
79872,note_on,,,,,256,0,1,,,,0,79,56
79872,note_on,,,,,256,0,2,,,,1,64,56
80384,note_on,,,,,0,0,1,,,,0,76,55
80384,note_on,,,,,0,0,2,,,,1,67,55
80384,note_off,,,,,512,0,2,,,,1,64,0
80384,note_off,,,,,512,0,1,,,,0,79,0
80640,note_off,,,,,256,0,1,,,,0,76,0
80640,note_off,,,,,256,0,2,,,,1,67,0
80896,note_on,,,,,256,0,2,,,,1,64,54
80896,note_on,,,,,256,0,1,,,,0,79,54
81408,note_on,,,,,0,0,1,,,,0,76,53
81408,note_off,,,,,512,0,1,,,,0,79,0
81408,note_off,,,,,512,0,2,,,,1,64,0
81408,note_on,,,,,0,0,2,,,,1,67,53
81664,note_off,,,,,256,0,2,,,,1,67,0
81664,note_off,,,,,256,0,1,,,,0,76,0
81920,note_on,,,,,256,0,1,,,,0,79,51
81920,note_on,,,,,256,0,2,,,,1,64,51
82432,note_off,,,,,512,0,2,,,,1,64,0
82432,note_on,,,,,0,0,2,,,,1,67,50
82432,note_off,,,,,512,0,1,,,,0,79,0
82432,note_on,,,,,0,0,1,,,,0,76,50
82688,note_off,,,,,256,0,2,,,,1,67,0
82688,note_off,,,,,256,0,1,,,,0,76,0
82944,note_on,,,,,256,0,2,,,,1,55,64
82944,note_on,,,,,0,0,1,,,,0,79,41
82944,note_on,,,,,256,0,1,,,,0,76,49
83456,note_on,,,,,0,0,1,,,,0,67,40
83456,note_off,,,,,0,0,1,,,,0,79,0
83456,note_off,,,,,512,0,1,,,,0,76,0
83712,note_off,,,,,256,0,1,,,,0,67,0
83840,note_on,,,,,896,0,2,,,,1,57,64
83968,note_on,,,,,0,0,1,,,,0,79,39
83968,note_off,,,,,128,0,2,,,,1,55,0
83968,note_off,,,,,0,0,2,,,,1,57,0
83968,note_on,,,,,0,0,2,,,,1,55,64
83968,note_on,,,,,256,0,1,,,,0,76,49
84309,note_on,,,,,0,0,2,,,,1,52,64
84309,note_off,,,,,341,0,2,,,,1,55,0
84480,note_off,,,,,512,0,1,,,,0,76,0
84480,note_on,,,,,0,0,1,,,,0,67,38
84480,note_off,,,,,0,0,1,,,,0,79,0
84651,note_on,,,,,0,0,2,,,,1,48,64
84651,note_off,,,,,342,0,2,,,,1,52,0
84736,note_off,,,,,256,0,1,,,,0,67,0
84992,note_off,,,,,341,0,2,,,,1,48,0
84992,note_on,,,,,0,0,2,,,,1,55,64
84992,note_on,,,,,256,0,1,,,,0,76,49
84992,note_on,,,,,0,0,1,,,,0,79,36
85504,note_off,,,,,512,0,1,,,,0,76,0
85504,note_off,,,,,0,0,1,,,,0,79,0
85504,note_on,,,,,0,0,1,,,,0,67,35
85760,note_off,,,,,256,0,1,,,,0,67,0
85760,note_off,,,,,768,0,2,,,,1,55,0
85760,note_on,,,,,0,0,2,,,,1,64,64
86016,note_on,,,,,0,0,2,,,,1,64,80
86016,note_on,,,,,0,0,1,,,,0,79,41
86016,note_on,,,,,256,0,1,,,,0,76,49
86016,note_off,,,,,256,0,2,,,,1,64,0
86528,note_on,,,,,0,0,1,,,,0,67,40
86528,note_off,,,,,0,0,1,,,,0,79,0
86528,note_off,,,,,512,0,1,,,,0,76,0
86784,note_off,,,,,256,0,1,,,,0,67,0
87040,note_on,,,,,0,0,1,,,,0,79,39
87040,note_on,,,,,256,0,1,,,,0,76,49
87552,note_on,,,,,0,0,1,,,,0,67,38
87552,note_off,,,,,512,0,1,,,,0,76,0
87552,note_off,,,,,0,0,1,,,,0,79,0
87808,note_off,,,,,256,0,1,,,,0,67,0
88064,note_on,,,,,0,0,2,,,,1,60,64
88064,note_off,,,,,2048,0,2,,,,1,64,0
88064,note_on,,,,,0,0,1,,,,0,79,36
88064,note_on,,,,,256,0,1,,,,0,76,49
88576,note_on,,,,,0,0,1,,,,0,67,35
88576,note_off,,,,,512,0,2,,,,1,60,0
88576,note_off,,,,,0,0,1,,,,0,79,0
88576,note_off,,,,,512,0,1,,,,0,76,0
88832,note_off,,,,,256,0,1,,,,0,67,0
89088,note_on,,,,,256,0,1,,,,0,67,64
89984,note_on,,,,,896,0,1,,,,0,69,64
90112,note_on,,,,,0,0,1,,,,0,67,64
90112,note_off,,,,,0,0,1,,,,0,69,0
90112,note_off,,,,,128,0,1,,,,0,67,0
90453,note_on,,,,,0,0,1,,,,0,64,64
90453,note_off,,,,,341,0,1,,,,0,67,0
90795,note_off,,,,,342,0,1,,,,0,64,0
90795,note_on,,,,,0,0,1,,,,0,60,64
91136,note_off,,,,,341,0,1,,,,0,60,0
91136,note_on,,,,,0,0,1,,,,0,67,64
91904,note_off,,,,,768,0,1,,,,0,67,0
91904,note_on,,,,,0,0,1,,,,0,76,64
92160,note_off,,,,,256,0,1,,,,0,76,0
92160,note_on,,,,,3584,0,2,,,,1,55,64
92160,note_on,,,,,0,0,1,,,,0,76,64
93056,note_on,,,,,896,0,2,,,,1,57,64
93184,note_off,,,,,128,0,2,,,,1,55,0
93184,note_off,,,,,0,0,2,,,,1,57,0
93184,note_on,,,,,0,0,2,,,,1,55,64
93525,note_off,,,,,341,0,2,,,,1,55,0
93525,note_on,,,,,0,0,2,,,,1,52,64
93867,note_off,,,,,342,0,2,,,,1,52,0
93867,note_on,,,,,0,0,2,,,,1,48,64
94208,note_off,,,,,2048,0,1,,,,0,76,0
94208,note_on,,,,,0,0,1,,,,0,72,64
94208,note_on,,,,,0,0,2,,,,1,55,64
94208,note_off,,,,,341,0,2,,,,1,48,0
94720,note_off,,,,,512,0,1,,,,0,72,0
94976,note_off,,,,,768,0,2,,,,1,55,0
94976,note_on,,,,,0,0,2,,,,1,64,64
95232,note_off,,,,,256,0,2,,,,1,64,0
95232,note_on,,,,,512,0,1,,,,0,79,64
95232,note_on,,,,,0,0,2,,,,1,64,80
96128,note_on,,,,,896,0,1,,,,0,77,64
96256,note_off,,,,,0,0,1,,,,0,77,0
96256,note_on,,,,,0,0,1,,,,0,76,64
96256,note_off,,,,,128,0,1,,,,0,79,0
96597,note_on,,,,,0,0,1,,,,0,72,64
96597,note_off,,,,,341,0,1,,,,0,76,0
96939,note_off,,,,,342,0,1,,,,0,72,0
96939,note_on,,,,,0,0,1,,,,0,67,64
97280,note_off,,,,,341,0,1,,,,0,67,0
97280,note_on,,,,,0,0,1,,,,0,72,64
97280,note_on,,,,,0,0,2,,,,1,60,64
97280,note_off,,,,,2048,0,2,,,,1,64,0
97621,note_off,,,,,341,0,1,,,,0,72,0
97621,note_on,,,,,0,0,1,,,,0,76,64
97792,note_off,,,,,512,0,2,,,,1,60,0
97963,note_on,,,,,0,0,1,,,,0,79,64
97963,note_off,,,,,342,0,1,,,,0,76,0
98304,note_on,,,,,0,0,1,,,,0,76,64
98304,note_on,,,,,0,0,1,,,,0,79,64
98304,note_on,,,,,512,0,2,,,,1,43,64
98304,note_on,,,,,0,0,1,,,,0,67,64
98304,note_off,,,,,341,0,1,,,,0,79,0
98509,note_off,,,,,205,0,2,,,,1,43,0
98816,note_on,,,,,307,0,2,,,,1,45,64
98816,note_on,,,,,0,0,1,,,,0,74,64
98816,note_on,,,,,0,0,1,,,,0,77,64
98816,note_on,,,,,0,0,1,,,,0,67,64
98816,note_off,,,,,0,0,1,,,,0,79,0
98816,note_off,,,,,0,0,1,,,,0,76,0
98816,note_off,,,,,512,0,1,,,,0,67,0
99021,note_off,,,,,0,0,1,,,,0,77,0
99021,note_off,,,,,205,0,1,,,,0,67,0
99021,note_off,,,,,0,0,1,,,,0,74,0
99072,note_off,,,,,256,0,2,,,,1,45,0
99072,note_on,,,,,0,0,2,,,,1,47,64
99328,note_on,,,,,307,0,1,,,,0,67,64
99328,note_on,,,,,0,0,1,,,,0,72,64
99328,note_on,,,,,0,0,1,,,,0,76,64
99328,note_off,,,,,256,0,2,,,,1,47,0
99328,note_on,,,,,0,0,2,,,,1,48,64
99533,note_off,,,,,0,0,1,,,,0,76,0
99533,note_off,,,,,205,0,1,,,,0,67,0
99533,note_off,,,,,0,0,1,,,,0,72,0
99840,note_on,,,,,307,0,1,,,,0,67,64
99840,note_on,,,,,0,0,1,,,,0,71,64
99840,note_on,,,,,0,0,1,,,,0,74,64
99840,note_on,,,,,0,0,2,,,,1,43,64
99840,note_off,,,,,512,0,2,,,,1,48,0
100045,note_off,,,,,205,0,1,,,,0,67,0
100045,note_off,,,,,205,0,2,,,,1,43,0
100045,note_off,,,,,0,0,1,,,,0,71,0
100045,note_off,,,,,0,0,1,,,,0,74,0
100352,note_on,,,,,0,0,1,,,,0,72,64
100352,note_on,,,,,0,0,1,,,,0,76,64
100352,note_on,,,,,307,0,2,,,,1,48,64
100352,note_on,,,,,307,0,1,,,,0,67,64
100557,note_off,,,,,205,0,2,,,,1,48,0
100557,note_off,,,,,0,0,1,,,,0,76,0
100557,note_off,,,,,0,0,1,,,,0,72,0
100557,note_off,,,,,205,0,1,,,,0,67,0
101376,note_on,,,,,819,0,2,,,,1,51,49
101376,note_on,,,,,819,0,1,,,,0,67,49
101376,note_on,,,,,0,0,2,,,,1,55,49
101581,note_off,,,,,205,0,2,,,,1,51,0
101581,note_off,,,,,0,0,2,,,,1,55,0
101581,note_off,,,,,205,0,1,,,,0,67,0
101888,note_on,,,,,0,0,2,,,,1,55,52
101888,note_on,,,,,0,0,2,,,,1,53,52
101888,note_on,,,,,307,0,2,,,,1,50,52
101888,note_on,,,,,307,0,1,,,,0,69,52
102093,note_off,,,,,0,0,2,,,,1,55,0
102093,note_off,,,,,0,0,2,,,,1,53,0
102093,note_off,,,,,205,0,2,,,,1,50,0
102144,note_off,,,,,256,0,1,,,,0,69,0
102144,note_on,,,,,0,0,1,,,,0,71,53
102400,note_off,,,,,256,0,1,,,,0,71,0
102400,note_on,,,,,0,0,1,,,,0,72,54
102400,note_on,,,,,307,0,2,,,,1,48,54
102400,note_on,,,,,0,0,2,,,,1,51,54
102400,note_on,,,,,0,0,2,,,,1,55,54
102605,note_off,,,,,205,0,1,,,,0,72,0
102605,note_off,,,,,0,0,2,,,,1,55,0
102605,note_off,,,,,0,0,2,,,,1,51,0
102605,note_off,,,,,205,0,2,,,,1,48,0
102912,note_on,,,,,0,0,2,,,,1,55,57
102912,note_on,,,,,0,0,2,,,,1,50,57
102912,note_on,,,,,307,0,1,,,,0,67,57
102912,note_on,,,,,307,0,2,,,,1,47,57
103117,note_off,,,,,205,0,1,,,,0,67,0
103117,note_off,,,,,0,0,2,,,,1,50,0
103117,note_off,,,,,205,0,2,,,,1,47,0
103117,note_off,,,,,0,0,2,,,,1,55,0
103424,note_on,,,,,307,0,1,,,,0,72,60
103424,note_on,,,,,307,0,2,,,,1,48,60
103424,note_on,,,,,0,0,2,,,,1,55,60
103424,note_on,,,,,0,0,2,,,,1,51,60
103629,note_off,,,,,0,0,2,,,,1,55,0
103629,note_off,,,,,205,0,2,,,,1,48,0
103629,note_off,,,,,205,0,1,,,,0,72,0
103629,note_off,,,,,0,0,2,,,,1,51,0
103936,note_on,,,,,307,0,2,,,,1,50,62
103936,note_on,,,,,0,0,2,,,,1,53,62
103936,note_on,,,,,0,0,1,,,,0,82,62
103936,note_on,,,,,307,0,1,,,,0,70,62
103936,note_on,,,,,0,0,2,,,,1,58,62
104141,note_off,,,,,205,0,2,,,,1,50,0
104141,note_off,,,,,0,0,1,,,,0,82,0
104141,note_off,,,,,0,0,2,,,,1,53,0
104141,note_off,,,,,205,0,1,,,,0,70,0
104141,note_off,,,,,0,0,2,,,,1,58,0
104448,note_on,,,,,0,0,2,,,,1,56,65
104448,note_on,,,,,0,0,2,,,,1,58,65
104448,note_on,,,,,0,0,1,,,,0,82,65
104448,note_on,,,,,307,0,1,,,,0,70,65
104448,note_on,,,,,307,0,2,,,,1,53,65
104960,note_off,,,,,512,0,2,,,,1,53,0
104960,note_off,,,,,0,0,2,,,,1,56,0
104960,note_off,,,,,0,0,2,,,,1,58,0
104960,note_on,,,,,0,0,2,,,,1,51,68
104960,note_on,,,,,0,0,2,,,,1,55,68
104960,note_on,,,,,0,0,2,,,,1,58,68
104960,note_on,,,,,0,0,1,,,,0,87,68
104960,note_on,,,,,0,0,1,,,,0,75,68
104960,note_off,,,,,0,0,1,,,,0,82,0
104960,note_off,,,,,512,0,1,,,,0,70,0
105165,note_off,,,,,205,0,1,,,,0,75,0
105165,note_off,,,,,0,0,2,,,,1,58,0
105165,note_off,,,,,0,0,2,,,,1,55,0
105165,note_off,,,,,205,0,2,,,,1,51,0
105165,note_off,,,,,0,0,1,,,,0,87,0
105472,note_on,,,,,307,0,1,,,,0,75,70
105472,note_on,,,,,0,0,2,,,,1,58,70
105472,note_on,,,,,0,0,2,,,,1,55,70
105472,note_on,,,,,307,0,2,,,,1,51,70
105472,note_on,,,,,0,0,1,,,,0,87,70
105677,note_off,,,,,0,0,2,,,,1,58,0
105677,note_off,,,,,0,0,2,,,,1,55,0
105677,note_off,,,,,205,0,2,,,,1,51,0
105677,note_off,,,,,205,0,1,,,,0,75,0
105677,note_off,,,,,0,0,1,,,,0,87,0
105984,note_on,,,,,0,0,1,,,,0,86,73
105984,note_on,,,,,307,0,1,,,,0,74,73
105984,note_on,,,,,307,0,2,,,,1,54,73
105984,note_on,,,,,0,0,2,,,,1,57,73
105984,note_on,,,,,0,0,2,,,,1,62,73
106189,note_off,,,,,0,0,2,,,,1,62,0
106189,note_off,,,,,0,0,2,,,,1,57,0
106189,note_off,,,,,205,0,1,,,,0,74,0
106189,note_off,,,,,205,0,2,,,,1,54,0
106189,note_off,,,,,0,0,1,,,,0,86,0
106496,note_on,,,,,0,0,1,,,,0,86,75
106496,note_on,,,,,307,0,1,,,,0,74,75
106496,note_on,,,,,307,0,2,,,,1,57,75
106496,note_on,,,,,0,0,2,,,,1,60,75
106496,note_on,,,,,0,0,2,,,,1,62,75
107008,note_on,,,,,0,0,2,,,,1,58,78
107008,note_on,,,,,0,0,1,,,,0,91,78
107008,note_on,,,,,0,0,1,,,,0,79,78
107008,note_on,,,,,0,0,2,,,,1,55,78
107008,note_off,,,,,512,0,1,,,,0,74,0
107008,note_off,,,,,512,0,2,,,,1,57,0
107008,note_off,,,,,0,0,2,,,,1,60,0
107008,note_off,,,,,0,0,2,,,,1,62,0
107008,note_off,,,,,0,0,1,,,,0,86,0
107008,note_on,,,,,0,0,2,,,,1,62,78
107213,note_off,,,,,0,0,1,,,,0,91,0
107213,note_off,,,,,205,0,1,,,,0,79,0
107213,note_off,,,,,0,0,2,,,,1,62,0
107213,note_off,,,,,205,0,2,,,,1,55,0
107213,note_off,,,,,0,0,2,,,,1,58,0
107520,note_on,,,,,0,0,2,,,,1,62,81
107520,note_on,,,,,0,0,2,,,,1,58,81
107520,note_on,,,,,307,0,2,,,,1,55,81
107520,note_on,,,,,0,0,1,,,,0,91,81
107520,note_on,,,,,307,0,1,,,,0,79,81
107725,note_off,,,,,0,0,2,,,,1,62,0
107725,note_off,,,,,0,0,2,,,,1,58,0
107725,note_off,,,,,205,0,2,,,,1,55,0
107725,note_off,,,,,205,0,1,,,,0,79,0
107725,note_off,,,,,0,0,1,,,,0,91,0
108032,note_on,,,,,0,0,2,,,,1,59,83
108032,note_on,,,,,307,0,1,,,,0,77,83
108032,note_on,,,,,0,0,1,,,,0,89,83
108032,note_on,,,,,307,0,2,,,,1,43,83
108032,note_on,,,,,0,0,2,,,,1,50,83
108237,note_off,,,,,205,0,1,,,,0,77,0
108237,note_off,,,,,0,0,1,,,,0,89,0
108237,note_off,,,,,205,0,2,,,,1,43,0
108237,note_off,,,,,0,0,2,,,,1,50,0
108237,note_off,,,,,0,0,2,,,,1,59,0
108544,note_on,,,,,307,0,2,,,,1,43,126
108544,note_on,,,,,0,0,2,,,,1,59,126
108544,note_on,,,,,307,0,1,,,,0,77,126
108544,note_on,,,,,0,0,1,,,,0,89,126
108544,note_on,,,,,0,0,2,,,,1,50,126
110080,note_on,,,,,0,0,1,,,,0,71,64
110080,note_on,,,,,0,0,1,,,,0,83,64
110080,note_on,,,,,0,0,2,,,,1,67,64
110080,note_on,,,,,0,0,2,,,,1,65,64
110080,note_on,,,,,0,0,2,,,,1,55,64
110080,note_off,,,,,0,0,2,,,,1,59,0
110080,note_off,,,,,0,0,2,,,,1,50,0
110080,note_off,,,,,1536,0,2,,,,1,43,0
110080,note_off,,,,,0,0,1,,,,0,89,0
110080,note_off,,,,,1536,0,1,,,,0,77,0
110592,note_off,,,,,0,0,1,,,,0,83,0
110592,note_on,,,,,0,0,1,,,,0,72,64
110592,note_on,,,,,0,0,1,,,,0,84,64
110592,note_off,,,,,512,0,1,,,,0,71,0
110592,note_off,,,,,0,0,2,,,,1,65,0
110592,note_off,,,,,0,0,2,,,,1,67,0
110592,note_on,,,,,0,0,2,,,,1,60,64
110592,note_on,,,,,0,0,2,,,,1,64,64
110592,note_off,,,,,512,0,2,,,,1,55,0
110592,note_on,,,,,0,0,2,,,,1,67,64
113664,note_off,,,,,3072,0,2,,,,1,60,0
113664,note_off,,,,,0,0,2,,,,1,64,0
113664,note_on,,,,,0,0,1,,,,0,76,64
113664,note_off,,,,,0,0,2,,,,1,67,0
113664,note_off,,,,,0,0,1,,,,0,84,0
113664,note_off,,,,,3072,0,1,,,,0,72,0
114560,note_on,,,,,896,0,1,,,,0,77,64
114688,note_off,,,,,128,0,1,,,,0,76,0
114688,note_off,,,,,0,0,1,,,,0,77,0
114688,note_on,,,,,0,0,1,,,,0,76,64
115029,note_off,,,,,341,0,1,,,,0,76,0
115029,note_on,,,,,0,0,1,,,,0,72,64
115371,note_off,,,,,342,0,1,,,,0,72,0
115371,note_on,,,,,0,0,1,,,,0,69,64
115584,note_on,,,,,213,0,1,,,,0,74,64
115712,note_on,,,,,0,0,1,,,,0,72,64
115712,note_off,,,,,128,0,1,,,,0,69,0
115712,note_off,,,,,0,0,1,,,,0,74,0
116053,note_on,,,,,0,0,1,,,,0,69,64
116053,note_off,,,,,341,0,1,,,,0,72,0
116395,note_on,,,,,0,0,1,,,,0,64,64
116395,note_off,,,,,342,0,1,,,,0,69,0
116736,note_off,,,,,341,0,1,,,,0,64,0
116736,note_on,,,,,0,0,1,,,,0,72,64
116736,note_on,,,,,0,0,1,,,,0,69,64
116736,note_on,,,,,0,0,2,,,,1,64,64
116736,note_on,,,,,3072,0,2,,,,1,52,64
117248,note_on,,,,,0,0,1,,,,0,71,64
117248,note_off,,,,,512,0,1,,,,0,69,0
117248,note_off,,,,,0,0,1,,,,0,72,0
117248,note_on,,,,,0,0,1,,,,0,68,64
117632,note_on,,,,,896,0,2,,,,1,53,64
117760,note_off,,,,,512,0,1,,,,0,68,0
117760,note_off,,,,,0,0,2,,,,1,64,0
117760,note_off,,,,,0,0,2,,,,1,53,0
117760,note_on,,,,,0,0,2,,,,1,52,64
117760,note_off,,,,,0,0,1,,,,0,71,0
117760,note_on,,,,,0,0,1,,,,0,64,64
117760,note_on,,,,,0,0,1,,,,0,68,64
117760,note_on,,,,,0,0,1,,,,0,71,64
117760,note_off,,,,,128,0,2,,,,1,52,0
117965,note_off,,,,,205,0,1,,,,0,64,0
117965,note_off,,,,,0,0,1,,,,0,68,0
117965,note_off,,,,,0,0,1,,,,0,71,0
118101,note_off,,,,,341,0,2,,,,1,52,0
118101,note_on,,,,,0,0,2,,,,1,48,64
118272,note_on,,,,,0,0,1,,,,0,66,64
118272,note_on,,,,,0,0,1,,,,0,69,64
118272,note_on,,,,,307,0,1,,,,0,64,64
118443,note_off,,,,,342,0,2,,,,1,48,0
118443,note_on,,,,,0,0,2,,,,1,40,64
118477,note_off,,,,,205,0,1,,,,0,64,0
118477,note_off,,,,,0,0,1,,,,0,66,0
118477,note_off,,,,,0,0,1,,,,0,69,0
118784,note_off,,,,,341,0,2,,,,1,40,0
118784,note_on,,,,,0,0,2,,,,1,52,64
118784,note_on,,,,,307,0,1,,,,0,64,64
118784,note_on,,,,,0,0,1,,,,0,71,64
118784,note_on,,,,,0,0,1,,,,0,67,64
119808,note_off,,,,,0,0,1,,,,0,71,0
119808,note_off,,,,,1024,0,2,,,,1,52,0
119808,note_on,,,,,0,0,2,,,,1,52,64
119808,note_on,,,,,0,0,2,,,,1,64,64
119808,note_on,,,,,0,0,2,,,,1,67,64
119808,note_on,,,,,0,0,1,,,,0,72,64
119808,note_off,,,,,0,0,1,,,,0,67,0
119808,note_off,,,,,1024,0,1,,,,0,64,0
120320,note_on,,,,,0,0,1,,,,0,71,64
120320,note_off,,,,,512,0,1,,,,0,72,0
120704,note_on,,,,,896,0,2,,,,1,53,64
120832,note_on,,,,,0,0,1,,,,0,71,64
120832,note_on,,,,,0,0,1,,,,0,64,64
120832,note_off,,,,,512,0,1,,,,0,71,0
120832,note_off,,,,,128,0,2,,,,1,52,0
120832,note_off,,,,,0,0,2,,,,1,64,0
120832,note_on,,,,,0,0,1,,,,0,67,64
120832,note_off,,,,,0,0,2,,,,1,67,0
120832,note_off,,,,,0,0,2,,,,1,53,0
120832,note_on,,,,,0,0,2,,,,1,52,64
121037,note_off,,,,,0,0,1,,,,0,71,0
121037,note_off,,,,,205,0,1,,,,0,64,0
121037,note_off,,,,,0,0,1,,,,0,67,0
121173,note_on,,,,,0,0,2,,,,1,55,64
121173,note_off,,,,,341,0,2,,,,1,52,0
121344,note_on,,,,,307,0,1,,,,0,64,64
121344,note_on,,,,,0,0,1,,,,0,67,64
121344,note_on,,,,,0,0,1,,,,0,72,64
121515,note_off,,,,,342,0,2,,,,1,55,0
121515,note_on,,,,,0,0,2,,,,1,60,64
121549,note_off,,,,,205,0,1,,,,0,64,0
121549,note_off,,,,,0,0,1,,,,0,67,0
121549,note_off,,,,,0,0,1,,,,0,72,0
121856,note_on,,,,,0,0,2,,,,1,65,64
121856,note_on,,,,,307,0,1,,,,0,71,64
121856,note_off,,,,,341,0,2,,,,1,60,0
121856,note_on,,,,,0,0,2,,,,1,62,64
121856,note_on,,,,,0,0,2,,,,1,67,64
122368,note_off,,,,,512,0,1,,,,0,71,0
122368,note_on,,,,,0,0,1,,,,0,77,64
122880,note_off,,,,,1024,0,2,,,,1,62,0
122880,note_off,,,,,0,0,2,,,,1,67,0
122880,note_on,,,,,0,0,2,,,,1,60,64
122880,note_on,,,,,0,0,2,,,,1,64,64
122880,note_off,,,,,0,0,2,,,,1,65,0
122880,note_off,,,,,512,0,1,,,,0,77,0
122880,note_on,,,,,0,0,1,,,,0,76,64
122880,note_on,,,,,0,0,1,,,,0,67,64
123776,note_on,,,,,896,0,1,,,,0,74,64
123904,note_off,,,,,0,0,1,,,,0,74,0
123904,note_on,,,,,0,0,1,,,,0,72,64
123904,note_off,,,,,128,0,1,,,,0,67,0
123904,note_on,,,,,0,0,2,,,,1,62,64
123904,note_off,,,,,0,0,2,,,,1,64,0
123904,note_off,,,,,1024,0,2,,,,1,60,0
123904,note_off,,,,,0,0,1,,,,0,76,0
123904,note_on,,,,,0,0,2,,,,1,66,64
124109,note_off,,,,,0,0,2,,,,1,66,0
124109,note_off,,,,,205,0,2,,,,1,62,0
124245,note_on,,,,,0,0,1,,,,0,71,64
124245,note_off,,,,,341,0,1,,,,0,72,0
124416,note_on,,,,,0,0,2,,,,1,66,64
124416,note_on,,,,,307,0,2,,,,1,62,64
124587,note_on,,,,,0,0,1,,,,0,69,64
124587,note_off,,,,,342,0,1,,,,0,71,0
124621,note_off,,,,,205,0,2,,,,1,62,0
124621,note_off,,,,,0,0,2,,,,1,66,0
124928,note_on,,,,,307,0,2,,,,1,55,64
124928,note_on,,,,,0,0,2,,,,1,67,64
124928,note_on,,,,,0,0,2,,,,1,62,64
124928,note_on,,,,,0,0,1,,,,0,71,64
124928,note_off,,,,,341,0,1,,,,0,69,0
125952,note_on,,,,,0,0,2,,,,1,59,88
125952,note_off,,,,,0,0,2,,,,1,67,0
125952,note_off,,,,,0,0,2,,,,1,62,0
125952,note_off,,,,,1024,0,2,,,,1,55,0
125952,note_off,,,,,1024,0,1,,,,0,71,0
125952,note_on,,,,,0,0,1,,,,0,71,88
126848,note_on,,,,,896,0,2,,,,1,60,88
126848,note_on,,,,,896,0,1,,,,0,72,88
126976,note_off,,,,,0,0,2,,,,1,60,0
126976,note_on,,,,,0,0,2,,,,1,59,88
126976,note_off,,,,,128,0,2,,,,1,59,0
126976,note_off,,,,,0,0,1,,,,0,72,0
126976,note_on,,,,,0,0,1,,,,0,71,88
126976,note_off,,,,,128,0,1,,,,0,71,0
127317,note_on,,,,,0,0,1,,,,0,67,88
127317,note_off,,,,,341,0,1,,,,0,71,0
127317,note_off,,,,,341,0,2,,,,1,59,0
127317,note_on,,,,,0,0,2,,,,1,55,88
127659,note_on,,,,,0,0,1,,,,0,64,88
127659,note_off,,,,,342,0,1,,,,0,67,0
127659,note_off,,,,,342,0,2,,,,1,55,0
127659,note_on,,,,,0,0,2,,,,1,52,88
128000,note_off,,,,,341,0,1,,,,0,64,0
128000,note_off,,,,,341,0,2,,,,1,52,0
128000,note_on,,,,,0,0,1,,,,0,79,88
128000,note_on,,,,,0,0,2,,,,1,67,88
128512,note_off,,,,,512,0,1,,,,0,79,0
128512,note_on,,,,,0,0,1,,,,0,76,88
128512,note_on,,,,,0,0,2,,,,1,64,88
128512,note_off,,,,,512,0,2,,,,1,67,0
128768,note_off,,,,,256,0,2,,,,1,64,0
128768,note_off,,,,,256,0,1,,,,0,76,0
129024,note_on,,,,,256,0,1,,,,0,71,88
129024,note_on,,,,,256,0,2,,,,1,59,88
129920,note_on,,,,,896,0,2,,,,1,60,88
129920,note_on,,,,,896,0,1,,,,0,72,88
130048,note_off,,,,,128,0,1,,,,0,71,0
130048,note_off,,,,,0,0,1,,,,0,72,0
130048,note_on,,,,,0,0,1,,,,0,71,88
130048,note_off,,,,,0,0,2,,,,1,60,0
130048,note_on,,,,,0,0,2,,,,1,59,88
130048,note_off,,,,,128,0,2,,,,1,59,0
130389,note_off,,,,,341,0,1,,,,0,71,0
130389,note_off,,,,,341,0,2,,,,1,59,0
130389,note_on,,,,,0,0,2,,,,1,55,88
130389,note_on,,,,,0,0,1,,,,0,67,88
130731,note_off,,,,,342,0,2,,,,1,55,0
130731,note_on,,,,,0,0,2,,,,1,52,88
130731,note_off,,,,,342,0,1,,,,0,67,0
130731,note_on,,,,,0,0,1,,,,0,64,88
131072,note_off,,,,,341,0,2,,,,1,52,0
131072,note_on,,,,,0,0,2,,,,1,67,88
131072,note_off,,,,,341,0,1,,,,0,64,0
131072,note_on,,,,,0,0,1,,,,0,79,88
131584,note_on,,,,,0,0,1,,,,0,76,88
131584,note_off,,,,,512,0,2,,,,1,67,0
131584,note_off,,,,,512,0,1,,,,0,79,0
131584,note_on,,,,,0,0,2,,,,1,64,88
131840,note_off,,,,,256,0,2,,,,1,64,0
131840,note_off,,,,,256,0,1,,,,0,76,0
132096,note_on,,,,,256,0,1,,,,0,75,110
132096,note_on,,,,,0,0,1,,,,0,78,110
132096,note_on,,,,,0,0,1,,,,0,83,110
132096,note_on,,,,,256,0,2,,,,1,47,110
132608,note_off,,,,,512,0,1,,,,0,75,0
132608,note_on,,,,,0,0,2,,,,1,59,88
132608,note_off,,,,,512,0,2,,,,1,47,0
132608,note_off,,,,,0,0,1,,,,0,83,0
132608,note_on,,,,,0,0,1,,,,0,71,88
132608,note_off,,,,,0,0,1,,,,0,78,0
132864,note_off,,,,,256,0,1,,,,0,71,0
132864,note_off,,,,,256,0,2,,,,1,59,0
132992,note_on,,,,,128,0,1,,,,0,81,88
132992,note_on,,,,,128,0,2,,,,1,63,88
133120,note_on,,,,,0,0,1,,,,0,79,88
133120,note_off,,,,,128,0,1,,,,0,81,0
133120,note_on,,,,,0,0,2,,,,1,64,88
133120,note_off,,,,,128,0,2,,,,1,63,0
133461,note_on,,,,,0,0,1,,,,0,78,88
133461,note_off,,,,,341,0,1,,,,0,79,0
133461,note_off,,,,,341,0,2,,,,1,64,0
133461,note_on,,,,,0,0,2,,,,1,66,88
133803,note_off,,,,,342,0,1,,,,0,78,0
133803,note_on,,,,,0,0,2,,,,1,67,88
133803,note_off,,,,,342,0,2,,,,1,66,0
133803,note_on,,,,,0,0,1,,,,0,76,88
134144,note_off,,,,,341,0,2,,,,1,67,0
134144,note_on,,,,,0,0,2,,,,1,47,110
134144,note_on,,,,,0,0,1,,,,0,78,110
134144,note_on,,,,,0,0,1,,,,0,75,110
134144,note_off,,,,,341,0,1,,,,0,76,0
134144,note_on,,,,,0,0,1,,,,0,83,110
134656,note_off,,,,,512,0,2,,,,1,47,0
134656,note_off,,,,,0,0,1,,,,0,83,0
134656,note_off,,,,,0,0,1,,,,0,78,0
134656,note_off,,,,,512,0,1,,,,0,75,0
134656,note_on,,,,,0,0,2,,,,1,59,88
134656,note_on,,,,,0,0,1,,,,0,71,88
134912,note_off,,,,,256,0,2,,,,1,59,0
134912,note_off,,,,,256,0,1,,,,0,71,0
135040,note_on,,,,,128,0,2,,,,1,63,88
135040,note_on,,,,,128,0,1,,,,0,81,88
135168,note_on,,,,,0,0,2,,,,1,64,88
135168,note_off,,,,,128,0,1,,,,0,81,0
135168,note_on,,,,,0,0,1,,,,0,79,88
135168,note_off,,,,,128,0,2,,,,1,63,0
135509,note_off,,,,,341,0,2,,,,1,64,0
135509,note_on,,,,,0,0,2,,,,1,66,88
135509,note_on,,,,,0,0,1,,,,0,78,88
135509,note_off,,,,,341,0,1,,,,0,79,0
135851,note_off,,,,,342,0,2,,,,1,66,0
135851,note_on,,,,,0,0,2,,,,1,67,88
135851,note_on,,,,,0,0,1,,,,0,76,88
135851,note_off,,,,,342,0,1,,,,0,78,0
136192,note_on,,,,,0,0,2,,,,1,47,110
136192,note_on,,,,,0,0,1,,,,0,75,110
136192,note_on,,,,,0,0,1,,,,0,83,110
136192,note_off,,,,,341,0,2,,,,1,67,0
136192,note_on,,,,,0,0,1,,,,0,78,110
136192,note_off,,,,,341,0,1,,,,0,76,0
136704,note_off,,,,,0,0,1,,,,0,78,0
136704,note_off,,,,,0,0,1,,,,0,83,0
136704,note_on,,,,,0,0,1,,,,0,71,88
136704,note_off,,,,,512,0,2,,,,1,47,0
136704,note_on,,,,,0,0,2,,,,1,59,88
136704,note_off,,,,,512,0,1,,,,0,75,0
136960,note_off,,,,,256,0,1,,,,0,71,0
136960,note_off,,,,,256,0,2,,,,1,59,0
137216,note_on,,,,,256,0,1,,,,0,95,110
137216,note_on,,,,,256,0,2,,,,1,35,110
137728,note_on,,,,,0,0,1,,,,0,83,88
137728,note_off,,,,,512,0,2,,,,1,35,0
137728,note_on,,,,,0,0,2,,,,1,47,88
137728,note_off,,,,,512,0,1,,,,0,95,0
137984,note_off,,,,,256,0,1,,,,0,83,0
137984,note_off,,,,,256,0,2,,,,1,47,0
141312,note_on,,,,,3328,0,1,,,,0,79,64
141312,note_on,,,,,3328,0,2,,,,1,64,64
141824,note_off,,,,,512,0,1,,,,0,79,0
141824,note_on,,,,,0,0,1,,,,0,76,63
141824,note_off,,,,,512,0,2,,,,1,64,0
141824,note_on,,,,,0,0,2,,,,1,67,63
142080,note_off,,,,,256,0,1,,,,0,76,0
142080,note_off,,,,,256,0,2,,,,1,67,0
142336,note_on,,,,,256,0,2,,,,1,64,61
142336,note_on,,,,,256,0,1,,,,0,79,61
142848,note_off,,,,,512,0,1,,,,0,79,0
142848,note_on,,,,,0,0,1,,,,0,76,60
142848,note_on,,,,,0,0,2,,,,1,67,60
142848,note_off,,,,,512,0,2,,,,1,64,0
143104,note_off,,,,,256,0,1,,,,0,76,0
143104,note_off,,,,,256,0,2,,,,1,67,0
143360,note_on,,,,,256,0,2,,,,1,64,59
143360,note_on,,,,,256,0,1,,,,0,79,59
143872,note_on,,,,,0,0,2,,,,1,67,58
143872,note_off,,,,,512,0,2,,,,1,64,0
143872,note_off,,,,,512,0,1,,,,0,79,0
143872,note_on,,,,,0,0,1,,,,0,76,58
144128,note_off,,,,,256,0,1,,,,0,76,0
144128,note_off,,,,,256,0,2,,,,1,67,0
144384,note_on,,,,,256,0,1,,,,0,79,56
144384,note_on,,,,,256,0,2,,,,1,64,56
144896,note_off,,,,,512,0,1,,,,0,79,0
144896,note_on,,,,,0,0,1,,,,0,76,55
144896,note_on,,,,,0,0,2,,,,1,67,55
144896,note_off,,,,,512,0,2,,,,1,64,0
145152,note_off,,,,,256,0,2,,,,1,67,0
145152,note_off,,,,,256,0,1,,,,0,76,0
145408,note_on,,,,,256,0,2,,,,1,64,54
145408,note_on,,,,,256,0,1,,,,0,79,54
145920,note_off,,,,,512,0,2,,,,1,64,0
145920,note_off,,,,,512,0,1,,,,0,79,0
145920,note_on,,,,,0,0,1,,,,0,76,53
145920,note_on,,,,,0,0,2,,,,1,67,53
146176,note_off,,,,,256,0,1,,,,0,76,0
146176,note_off,,,,,256,0,2,,,,1,67,0
146432,note_on,,,,,256,0,2,,,,1,64,51
146432,note_on,,,,,256,0,1,,,,0,79,51
146944,note_on,,,,,0,0,2,,,,1,67,50
146944,note_off,,,,,512,0,1,,,,0,79,0
146944,note_on,,,,,0,0,1,,,,0,76,50
146944,note_off,,,,,512,0,2,,,,1,64,0
147200,note_off,,,,,256,0,2,,,,1,67,0
147200,note_off,,,,,256,0,1,,,,0,76,0
147456,note_on,,,,,256,0,2,,,,1,55,64
147456,note_on,,,,,0,0,1,,,,0,79,41
147456,note_on,,,,,256,0,1,,,,0,76,49
147968,note_off,,,,,512,0,1,,,,0,76,0
147968,note_on,,,,,0,0,1,,,,0,67,40
147968,note_off,,,,,0,0,1,,,,0,79,0
148224,note_off,,,,,256,0,1,,,,0,67,0
148352,note_on,,,,,896,0,2,,,,1,57,64
148480,note_on,,,,,0,0,2,,,,1,55,64
148480,note_on,,,,,0,0,1,,,,0,79,39
148480,note_off,,,,,0,0,2,,,,1,57,0
148480,note_off,,,,,128,0,2,,,,1,55,0
148480,note_on,,,,,256,0,1,,,,0,76,49
148821,note_on,,,,,0,0,2,,,,1,52,64
148821,note_off,,,,,341,0,2,,,,1,55,0
148992,note_on,,,,,0,0,1,,,,0,67,38
148992,note_off,,,,,0,0,1,,,,0,79,0
148992,note_off,,,,,512,0,1,,,,0,76,0
149163,note_on,,,,,0,0,2,,,,1,48,64
149163,note_off,,,,,342,0,2,,,,1,52,0
149248,note_off,,,,,256,0,1,,,,0,67,0
149504,note_off,,,,,341,0,2,,,,1,48,0
149504,note_on,,,,,0,0,2,,,,1,55,64
149504,note_on,,,,,256,0,1,,,,0,76,49
149504,note_on,,,,,0,0,1,,,,0,79,36
150016,note_on,,,,,0,0,1,,,,0,67,35
150016,note_off,,,,,512,0,1,,,,0,76,0
150016,note_off,,,,,0,0,1,,,,0,79,0
150272,note_off,,,,,256,0,1,,,,0,67,0
150272,note_on,,,,,0,0,2,,,,1,64,64
150272,note_off,,,,,768,0,2,,,,1,55,0
150528,note_on,,,,,0,0,2,,,,1,64,80
150528,note_on,,,,,256,0,1,,,,0,76,49
150528,note_off,,,,,256,0,2,,,,1,64,0
150528,note_on,,,,,0,0,1,,,,0,79,41
151040,note_off,,,,,512,0,1,,,,0,76,0
151040,note_off,,,,,0,0,1,,,,0,79,0
151040,note_on,,,,,0,0,1,,,,0,67,40
151296,note_off,,,,,256,0,1,,,,0,67,0
151552,note_on,,,,,256,0,1,,,,0,76,49
151552,note_on,,,,,0,0,1,,,,0,79,39
152064,note_on,,,,,0,0,1,,,,0,67,38
152064,note_off,,,,,512,0,1,,,,0,76,0
152064,note_off,,,,,0,0,1,,,,0,79,0
152320,note_off,,,,,256,0,1,,,,0,67,0
152576,note_on,,,,,0,0,1,,,,0,79,36
152576,note_on,,,,,0,0,2,,,,1,60,64
152576,note_on,,,,,256,0,1,,,,0,76,49
152576,note_off,,,,,2048,0,2,,,,1,64,0
153088,note_off,,,,,512,0,2,,,,1,60,0
153088,note_off,,,,,0,0,1,,,,0,79,0
153088,note_on,,,,,0,0,1,,,,0,67,35
153088,note_off,,,,,512,0,1,,,,0,76,0
153344,note_off,,,,,256,0,1,,,,0,67,0
153600,note_on,,,,,256,0,1,,,,0,67,64
154496,note_on,,,,,896,0,1,,,,0,69,64
154624,note_off,,,,,128,0,1,,,,0,67,0
154624,note_off,,,,,0,0,1,,,,0,69,0
154624,note_on,,,,,0,0,1,,,,0,67,64
154965,note_off,,,,,341,0,1,,,,0,67,0
154965,note_on,,,,,0,0,1,,,,0,64,64
155307,note_on,,,,,0,0,1,,,,0,60,64
155307,note_off,,,,,342,0,1,,,,0,64,0
155648,note_on,,,,,0,0,1,,,,0,67,64
155648,note_off,,,,,341,0,1,,,,0,60,0
156416,note_off,,,,,768,0,1,,,,0,67,0
156416,note_on,,,,,0,0,1,,,,0,76,64
156672,note_off,,,,,256,0,1,,,,0,76,0
156672,note_on,,,,,3584,0,2,,,,1,55,64
156672,note_on,,,,,0,0,1,,,,0,76,64
157568,note_on,,,,,896,0,2,,,,1,57,64
157696,note_off,,,,,128,0,2,,,,1,55,0
157696,note_off,,,,,0,0,2,,,,1,57,0
157696,note_on,,,,,0,0,2,,,,1,55,64
158037,note_off,,,,,341,0,2,,,,1,55,0
158037,note_on,,,,,0,0,2,,,,1,52,64
158379,note_off,,,,,342,0,2,,,,1,52,0
158379,note_on,,,,,0,0,2,,,,1,48,64
158720,note_off,,,,,341,0,2,,,,1,48,0
158720,note_on,,,,,0,0,1,,,,0,72,64
158720,note_off,,,,,2048,0,1,,,,0,76,0
158720,note_on,,,,,0,0,2,,,,1,55,64
159232,note_off,,,,,512,0,1,,,,0,72,0
159488,note_on,,,,,0,0,2,,,,1,64,64
159488,note_off,,,,,768,0,2,,,,1,55,0
159744,note_on,,,,,512,0,1,,,,0,79,64
159744,note_off,,,,,256,0,2,,,,1,64,0
159744,note_on,,,,,0,0,2,,,,1,64,80
160640,note_on,,,,,896,0,1,,,,0,77,64
160768,note_off,,,,,0,0,1,,,,0,77,0
160768,note_on,,,,,0,0,1,,,,0,76,64
160768,note_off,,,,,128,0,1,,,,0,79,0
161109,note_off,,,,,341,0,1,,,,0,76,0
161109,note_on,,,,,0,0,1,,,,0,72,64
161451,note_off,,,,,342,0,1,,,,0,72,0
161451,note_on,,,,,0,0,1,,,,0,67,64
161792,note_off,,,,,2048,0,2,,,,1,64,0
161792,note_on,,,,,0,0,2,,,,1,60,64
161792,note_on,,,,,0,0,1,,,,0,72,64
161792,note_off,,,,,341,0,1,,,,0,67,0
162133,note_off,,,,,341,0,1,,,,0,72,0
162133,note_on,,,,,0,0,1,,,,0,76,64
162304,note_off,,,,,512,0,2,,,,1,60,0
162475,note_on,,,,,0,0,1,,,,0,79,64
162475,note_off,,,,,342,0,1,,,,0,76,0
162816,note_off,,,,,341,0,1,,,,0,79,0
162816,note_on,,,,,0,0,1,,,,0,67,64
162816,note_on,,,,,0,0,1,,,,0,76,64
162816,note_on,,,,,512,0,2,,,,1,43,64
162816,note_on,,,,,0,0,1,,,,0,79,64
163021,note_off,,,,,205,0,2,,,,1,43,0
163328,note_off,,,,,512,0,1,,,,0,67,0
163328,note_on,,,,,0,0,1,,,,0,77,64
163328,note_on,,,,,307,0,2,,,,1,45,64
163328,note_on,,,,,0,0,1,,,,0,74,64
163328,note_off,,,,,0,0,1,,,,0,76,0
163328,note_off,,,,,0,0,1,,,,0,79,0
163328,note_on,,,,,0,0,1,,,,0,67,64
163533,note_off,,,,,0,0,1,,,,0,77,0
163533,note_off,,,,,0,0,1,,,,0,74,0
163533,note_off,,,,,205,0,1,,,,0,67,0
163584,note_off,,,,,256,0,2,,,,1,45,0
163584,note_on,,,,,0,0,2,,,,1,47,64
163840,note_on,,,,,0,0,1,,,,0,76,64
163840,note_off,,,,,256,0,2,,,,1,47,0
163840,note_on,,,,,0,0,2,,,,1,48,64
163840,note_on,,,,,307,0,1,,,,0,67,64
163840,note_on,,,,,0,0,1,,,,0,72,64
164045,note_off,,,,,0,0,1,,,,0,76,0
164045,note_off,,,,,205,0,1,,,,0,67,0
164045,note_off,,,,,0,0,1,,,,0,72,0
164352,note_on,,,,,307,0,1,,,,0,67,64
164352,note_on,,,,,0,0,1,,,,0,71,64
164352,note_on,,,,,0,0,1,,,,0,74,64
164352,note_on,,,,,0,0,2,,,,1,43,64
164352,note_off,,,,,512,0,2,,,,1,48,0
164557,note_off,,,,,205,0,2,,,,1,43,0
164557,note_off,,,,,0,0,1,,,,0,74,0
164557,note_off,,,,,0,0,1,,,,0,71,0
164557,note_off,,,,,205,0,1,,,,0,67,0
164864,note_on,,,,,0,0,1,,,,0,76,64
164864,note_on,,,,,0,0,1,,,,0,72,64
164864,note_on,,,,,307,0,1,,,,0,67,64
164864,note_on,,,,,307,0,2,,,,1,48,64
165069,note_off,,,,,0,0,1,,,,0,72,0
165069,note_off,,,,,0,0,1,,,,0,76,0
165069,note_off,,,,,205,0,1,,,,0,67,0
165069,note_off,,,,,205,0,2,,,,1,48,0
165888,note_on,,,,,0,0,2,,,,1,55,49
165888,note_on,,,,,819,0,2,,,,1,51,49
165888,note_on,,,,,819,0,1,,,,0,67,49
166093,note_off,,,,,0,0,2,,,,1,55,0
166093,note_off,,,,,205,0,2,,,,1,51,0
166093,note_off,,,,,205,0,1,,,,0,67,0
166400,note_on,,,,,307,0,1,,,,0,69,52
166400,note_on,,,,,0,0,2,,,,1,55,52
166400,note_on,,,,,0,0,2,,,,1,53,52
166400,note_on,,,,,307,0,2,,,,1,50,52
166605,note_off,,,,,0,0,2,,,,1,55,0
166605,note_off,,,,,0,0,2,,,,1,53,0
166605,note_off,,,,,205,0,2,,,,1,50,0
166656,note_off,,,,,256,0,1,,,,0,69,0
166656,note_on,,,,,0,0,1,,,,0,71,53
166912,note_on,,,,,307,0,2,,,,1,48,54
166912,note_off,,,,,256,0,1,,,,0,71,0
166912,note_on,,,,,0,0,2,,,,1,55,54
166912,note_on,,,,,0,0,1,,,,0,72,54
166912,note_on,,,,,0,0,2,,,,1,51,54
167117,note_off,,,,,0,0,2,,,,1,51,0
167117,note_off,,,,,0,0,2,,,,1,55,0
167117,note_off,,,,,205,0,2,,,,1,48,0
167117,note_off,,,,,205,0,1,,,,0,72,0
167424,note_on,,,,,0,0,2,,,,1,50,57
167424,note_on,,,,,307,0,2,,,,1,47,57
167424,note_on,,,,,307,0,1,,,,0,67,57
167424,note_on,,,,,0,0,2,,,,1,55,57
167629,note_off,,,,,205,0,2,,,,1,47,0
167629,note_off,,,,,0,0,2,,,,1,50,0
167629,note_off,,,,,0,0,2,,,,1,55,0
167629,note_off,,,,,205,0,1,,,,0,67,0
167936,note_on,,,,,307,0,1,,,,0,72,60
167936,note_on,,,,,0,0,2,,,,1,55,60
167936,note_on,,,,,307,0,2,,,,1,48,60
167936,note_on,,,,,0,0,2,,,,1,51,60
168141,note_off,,,,,205,0,1,,,,0,72,0
168141,note_off,,,,,0,0,2,,,,1,55,0
168141,note_off,,,,,0,0,2,,,,1,51,0
168141,note_off,,,,,205,0,2,,,,1,48,0
168448,note_on,,,,,307,0,2,,,,1,50,62
168448,note_on,,,,,0,0,1,,,,0,82,62
168448,note_on,,,,,0,0,2,,,,1,53,62
168448,note_on,,,,,0,0,2,,,,1,58,62
168448,note_on,,,,,307,0,1,,,,0,70,62
168653,note_off,,,,,205,0,1,,,,0,70,0
168653,note_off,,,,,0,0,1,,,,0,82,0
168653,note_off,,,,,205,0,2,,,,1,50,0
168653,note_off,,,,,0,0,2,,,,1,53,0
168653,note_off,,,,,0,0,2,,,,1,58,0
168960,note_on,,,,,0,0,2,,,,1,58,65
168960,note_on,,,,,0,0,2,,,,1,56,65
168960,note_on,,,,,307,0,2,,,,1,53,65
168960,note_on,,,,,307,0,1,,,,0,70,65
168960,note_on,,,,,0,0,1,,,,0,82,65
169472,note_off,,,,,512,0,2,,,,1,53,0
169472,note_off,,,,,0,0,2,,,,1,56,0
169472,note_off,,,,,0,0,2,,,,1,58,0
169472,note_on,,,,,0,0,2,,,,1,51,68
169472,note_on,,,,,0,0,2,,,,1,58,68
169472,note_on,,,,,0,0,2,,,,1,55,68
169472,note_on,,,,,0,0,1,,,,0,75,68
169472,note_off,,,,,512,0,1,,,,0,70,0
169472,note_off,,,,,0,0,1,,,,0,82,0
169472,note_on,,,,,0,0,1,,,,0,87,68
169677,note_off,,,,,205,0,1,,,,0,75,0
169677,note_off,,,,,0,0,1,,,,0,87,0
169677,note_off,,,,,0,0,2,,,,1,55,0
169677,note_off,,,,,205,0,2,,,,1,51,0
169677,note_off,,,,,0,0,2,,,,1,58,0
169984,note_on,,,,,307,0,1,,,,0,75,70
169984,note_on,,,,,0,0,2,,,,1,58,70
169984,note_on,,,,,0,0,2,,,,1,55,70
169984,note_on,,,,,307,0,2,,,,1,51,70
169984,note_on,,,,,0,0,1,,,,0,87,70
170189,note_off,,,,,205,0,2,,,,1,51,0
170189,note_off,,,,,0,0,2,,,,1,58,0
170189,note_off,,,,,205,0,1,,,,0,75,0
170189,note_off,,,,,0,0,1,,,,0,87,0
170189,note_off,,,,,0,0,2,,,,1,55,0
170496,note_on,,,,,307,0,2,,,,1,54,73
170496,note_on,,,,,0,0,2,,,,1,57,73
170496,note_on,,,,,0,0,2,,,,1,62,73
170496,note_on,,,,,307,0,1,,,,0,74,73
170496,note_on,,,,,0,0,1,,,,0,86,73
170701,note_off,,,,,0,0,1,,,,0,86,0
170701,note_off,,,,,0,0,2,,,,1,62,0
170701,note_off,,,,,0,0,2,,,,1,57,0
170701,note_off,,,,,205,0,2,,,,1,54,0
170701,note_off,,,,,205,0,1,,,,0,74,0
171008,note_on,,,,,307,0,2,,,,1,57,75
171008,note_on,,,,,0,0,2,,,,1,62,75
171008,note_on,,,,,307,0,1,,,,0,74,75
171008,note_on,,,,,0,0,2,,,,1,60,75
171008,note_on,,,,,0,0,1,,,,0,86,75
171520,note_off,,,,,0,0,1,,,,0,86,0
171520,note_on,,,,,0,0,1,,,,0,79,78
171520,note_on,,,,,0,0,1,,,,0,91,78
171520,note_on,,,,,0,0,2,,,,1,62,78
171520,note_off,,,,,512,0,2,,,,1,57,0
171520,note_off,,,,,0,0,2,,,,1,60,0
171520,note_off,,,,,0,0,2,,,,1,62,0
171520,note_on,,,,,0,0,2,,,,1,55,78
171520,note_off,,,,,512,0,1,,,,0,74,0
171520,note_on,,,,,0,0,2,,,,1,58,78
171725,note_off,,,,,0,0,1,,,,0,91,0
171725,note_off,,,,,205,0,1,,,,0,79,0
171725,note_off,,,,,205,0,2,,,,1,55,0
171725,note_off,,,,,0,0,2,,,,1,58,0
171725,note_off,,,,,0,0,2,,,,1,62,0
172032,note_on,,,,,307,0,1,,,,0,79,81
172032,note_on,,,,,307,0,2,,,,1,55,81
172032,note_on,,,,,0,0,2,,,,1,58,81
172032,note_on,,,,,0,0,2,,,,1,62,81
172032,note_on,,,,,0,0,1,,,,0,91,81
172237,note_off,,,,,205,0,2,,,,1,55,0
172237,note_off,,,,,0,0,2,,,,1,58,0
172237,note_off,,,,,0,0,2,,,,1,62,0
172237,note_off,,,,,0,0,1,,,,0,91,0
172237,note_off,,,,,205,0,1,,,,0,79,0
172544,note_on,,,,,0,0,1,,,,0,89,83
172544,note_on,,,,,307,0,1,,,,0,77,83
172544,note_on,,,,,0,0,2,,,,1,59,83
172544,note_on,,,,,0,0,2,,,,1,50,83
172544,note_on,,,,,307,0,2,,,,1,43,83
172749,note_off,,,,,0,0,2,,,,1,50,0
172749,note_off,,,,,205,0,2,,,,1,43,0
172749,note_off,,,,,205,0,1,,,,0,77,0
172749,note_off,,,,,0,0,1,,,,0,89,0
172749,note_off,,,,,0,0,2,,,,1,59,0
173056,note_on,,,,,307,0,1,,,,0,77,126
173056,note_on,,,,,0,0,1,,,,0,89,126
173056,note_on,,,,,0,0,2,,,,1,59,126
173056,note_on,,,,,0,0,2,,,,1,50,126
173056,note_on,,,,,307,0,2,,,,1,43,126
174592,note_off,,,,,0,0,1,,,,0,89,0
174592,note_off,,,,,1536,0,1,,,,0,77,0
174592,note_on,,,,,0,0,2,,,,1,67,64
174592,note_on,,,,,0,0,2,,,,1,65,64
174592,note_on,,,,,0,0,2,,,,1,55,64
174592,note_off,,,,,0,0,2,,,,1,59,0
174592,note_off,,,,,0,0,2,,,,1,50,0
174592,note_off,,,,,1536,0,2,,,,1,43,0
174592,note_on,,,,,0,0,1,,,,0,71,64
174592,note_on,,,,,0,0,1,,,,0,83,64
175104,note_on,,,,,0,0,2,,,,1,64,64
175104,note_off,,,,,0,0,1,,,,0,83,0
175104,note_on,,,,,0,0,1,,,,0,72,64
175104,note_on,,,,,0,0,1,,,,0,84,64
175104,note_on,,,,,0,0,2,,,,1,67,64
175104,note_on,,,,,0,0,2,,,,1,60,64
175104,note_off,,,,,0,0,2,,,,1,67,0
175104,note_off,,,,,0,0,2,,,,1,65,0
175104,note_off,,,,,512,0,1,,,,0,71,0
175104,note_off,,,,,512,0,2,,,,1,55,0
178176,note_off,,,,,3072,0,1,,,,0,72,0
178176,note_off,,,,,0,0,1,,,,0,84,0
178176,note_on,,,,,0,0,1,,,,0,47,49
178176,key_signature,,,,,153600,1,0,G,,,,,
178176,note_on,,,,,0,0,2,,,,1,43,64
178176,note_off,,,,,0,0,2,,,,1,67,0
178176,note_off,,,,,0,0,2,,,,1,64,0
178176,note_off,,,,,3072,0,2,,,,1,60,0
178176,note_on,,,,,0,0,1,,,,0,67,49
178176,set_tempo,,,,,0,1,0,,666666,,,,
178517,note_on,,,,,0,0,1,,,,0,62,49
178517,note_on,,,,,0,0,1,,,,0,50,49
178517,note_off,,,,,341,0,1,,,,0,47,0
178517,note_off,,,,,0,0,1,,,,0,67,0
178859,note_off,,,,,342,0,1,,,,0,50,0
178859,note_off,,,,,0,0,1,,,,0,62,0
178859,note_on,,,,,0,0,1,,,,0,55,49
178859,note_on,,,,,0,0,1,,,,0,59,49
179200,note_off,,,,,341,0,1,,,,0,55,0
179200,note_off,,,,,0,0,1,,,,0,59,0
179200,note_on,,,,,0,0,1,,,,0,47,49
179200,note_on,,,,,0,0,1,,,,0,67,49
179541,note_on,,,,,0,0,1,,,,0,50,49
179541,note_off,,,,,341,0,1,,,,0,47,0
179541,note_off,,,,,0,0,1,,,,0,67,0
179541,note_on,,,,,0,0,1,,,,0,62,49
179883,note_on,,,,,0,0,1,,,,0,59,49
179883,note_on,,,,,0,0,1,,,,0,55,49
179883,note_off,,,,,0,0,1,,,,0,62,0
179883,note_off,,,,,342,0,1,,,,0,50,0
180224,note_off,,,,,341,0,1,,,,0,55,0
180224,note_off,,,,,0,0,1,,,,0,59,0
180224,note_on,,,,,0,0,1,,,,0,45,49
180224,note_on,,,,,0,0,1,,,,0,66,49
180565,note_on,,,,,0,0,1,,,,0,50,49
180565,note_off,,,,,341,0,1,,,,0,45,0
180565,note_off,,,,,0,0,1,,,,0,66,0
180565,note_on,,,,,0,0,1,,,,0,62,49
180907,note_off,,,,,0,0,1,,,,0,62,0
180907,note_on,,,,,0,0,1,,,,0,54,49
180907,note_on,,,,,0,0,1,,,,0,57,49
180907,note_off,,,,,342,0,1,,,,0,50,0
181248,note_on,,,,,0,0,1,,,,0,69,49
181248,note_on,,,,,0,0,1,,,,0,48,49
181248,note_on,,,,,0,0,2,,,,1,43,64
181248,note_off,,,,,341,0,1,,,,0,54,0
181248,note_off,,,,,3072,0,2,,,,1,43,0
181248,note_off,,,,,0,0,1,,,,0,57,0
181589,note_off,,,,,341,0,1,,,,0,48,0
181589,note_off,,,,,0,0,1,,,,0,69,0
181589,note_on,,,,,0,0,1,,,,0,50,49
181589,note_on,,,,,0,0,1,,,,0,62,49
181931,note_off,,,,,342,0,1,,,,0,50,0
181931,note_off,,,,,0,0,1,,,,0,62,0
181931,note_on,,,,,0,0,1,,,,0,57,49
181931,note_on,,,,,0,0,1,,,,0,60,49
182272,note_on,,,,,0,0,1,,,,0,69,49
182272,note_on,,,,,0,0,1,,,,0,48,49
182272,note_off,,,,,341,0,1,,,,0,57,0
182272,note_off,,,,,0,0,1,,,,0,60,0
182613,note_off,,,,,341,0,1,,,,0,48,0
182613,note_off,,,,,0,0,1,,,,0,69,0
182613,note_on,,,,,0,0,1,,,,0,50,49
182613,note_on,,,,,0,0,1,,,,0,62,49
182955,note_off,,,,,342,0,1,,,,0,50,0
182955,note_off,,,,,0,0,1,,,,0,62,0
182955,note_on,,,,,0,0,1,,,,0,57,49
182955,note_on,,,,,0,0,1,,,,0,60,49
183296,note_off,,,,,341,0,1,,,,0,57,0
183296,note_off,,,,,0,0,1,,,,0,60,0
183296,note_on,,,,,0,0,1,,,,0,67,49
183296,note_on,,,,,0,0,1,,,,0,47,49
183637,note_off,,,,,341,0,1,,,,0,47,0
183637,note_off,,,,,0,0,1,,,,0,67,0
183637,note_on,,,,,0,0,1,,,,0,50,49
183637,note_on,,,,,0,0,1,,,,0,62,49
183979,note_off,,,,,342,0,1,,,,0,50,0
183979,note_off,,,,,0,0,1,,,,0,62,0
183979,note_on,,,,,0,0,1,,,,0,55,49
183979,note_on,,,,,0,0,1,,,,0,59,49
184320,note_on,,,,,0,0,1,,,,0,47,49
184320,note_off,,,,,3072,0,2,,,,1,43,0
184320,note_on,,,,,0,0,1,,,,0,67,49
184320,note_off,,,,,341,0,1,,,,0,55,0
184320,note_off,,,,,0,0,1,,,,0,59,0
184661,note_off,,,,,341,0,1,,,,0,47,0
184661,note_off,,,,,0,0,1,,,,0,67,0
184661,note_on,,,,,0,0,1,,,,0,50,49
184661,note_on,,,,,0,0,1,,,,0,62,49
185003,note_off,,,,,342,0,1,,,,0,50,0
185003,note_off,,,,,0,0,1,,,,0,62,0
185003,note_on,,,,,0,0,1,,,,0,55,49
185003,note_on,,,,,0,0,1,,,,0,59,49
185344,note_on,,,,,0,0,1,,,,0,66,63
185344,note_off,,,,,341,0,1,,,,0,55,0
185344,note_off,,,,,0,0,1,,,,0,59,0
185344,note_on,,,,,0,0,1,,,,0,69,63
185344,note_on,,,,,0,0,1,,,,0,62,63
185344,note_on,,,,,0,0,2,,,,1,54,78
185344,note_on,,,,,1024,0,2,,,,1,50,78
185344,note_on,,,,,0,0,2,,,,1,57,78
185856,note_off,,,,,0,0,2,,,,1,57,0
185856,note_on,,,,,0,0,2,,,,1,50,85
185856,note_on,,,,,0,0,2,,,,1,55,85
185856,note_on,,,,,0,0,2,,,,1,59,85
185856,note_off,,,,,512,0,2,,,,1,50,0
185856,note_off,,,,,0,0,1,,,,0,66,0
185856,note_off,,,,,512,0,1,,,,0,62,0
185856,note_off,,,,,0,0,1,,,,0,69,0
185856,note_off,,,,,0,0,2,,,,1,54,0
185856,note_on,,,,,0,0,1,,,,0,62,70
185856,note_on,,,,,0,0,1,,,,0,71,70
185856,note_on,,,,,0,0,1,,,,0,67,70
186368,note_on,,,,,0,0,2,,,,1,57,91
186368,note_on,,,,,0,0,2,,,,1,50,91
186368,note_off,,,,,0,0,2,,,,1,55,0
186368,note_on,,,,,0,0,2,,,,1,60,91
186368,note_off,,,,,0,0,2,,,,1,59,0
186368,note_off,,,,,512,0,2,,,,1,50,0
186368,note_off,,,,,0,0,1,,,,0,71,0
186368,note_on,,,,,0,0,1,,,,0,72,76
186368,note_on,,,,,0,0,1,,,,0,69,76
186368,note_on,,,,,0,0,1,,,,0,62,76
186368,note_off,,,,,0,0,1,,,,0,67,0
186368,note_off,,,,,512,0,1,,,,0,62,0
187136,note_off,,,,,0,0,2,,,,1,57,0
187136,note_off,,,,,768,0,2,,,,1,50,0
187136,note_off,,,,,0,0,1,,,,0,72,0
187136,note_on,,,,,0,0,2,,,,1,50,68
187136,note_on,,,,,0,0,1,,,,0,67,53
187136,note_on,,,,,0,0,2,,,,1,55,68
187136,note_on,,,,,0,0,2,,,,1,59,68
187136,note_on,,,,,0,0,1,,,,0,71,53
187136,note_off,,,,,768,0,1,,,,0,62,0
187136,note_off,,,,,0,0,1,,,,0,69,0
187136,note_off,,,,,0,0,2,,,,1,60,0
187136,note_on,,,,,0,0,1,,,,0,62,53
187392,note_off,,,,,0,0,2,,,,1,59,0
187392,note_on,,,,,0,0,2,,,,1,59,66
187392,note_on,,,,,0,0,2,,,,1,50,66
187392,note_on,,,,,0,0,2,,,,1,55,66
187392,note_off,,,,,256,0,1,,,,0,62,0
187392,note_off,,,,,0,0,2,,,,1,55,0
187392,note_off,,,,,0,0,1,,,,0,67,0
187392,note_on,,,,,0,0,1,,,,0,67,51
187392,note_off,,,,,256,0,2,,,,1,50,0
187392,note_on,,,,,0,0,1,,,,0,71,51
187392,note_on,,,,,0,0,1,,,,0,62,51
187392,note_off,,,,,0,0,1,,,,0,71,0
188416,note_on,,,,,0,0,1,,,,0,62,43
188416,note_off,,,,,0,0,1,,,,0,71,0
188416,note_off,,,,,0,0,1,,,,0,67,0
188416,note_off,,,,,1024,0,1,,,,0,62,0
188416,note_off,,,,,0,0,2,,,,1,55,0
188416,note_on,,,,,0,0,1,,,,0,69,43
188416,note_on,,,,,0,0,2,,,,1,57,58
188416,note_on,,,,,0,0,2,,,,1,54,58
188416,note_on,,,,,0,0,2,,,,1,50,58
188416,note_off,,,,,0,0,2,,,,1,59,0
188416,note_on,,,,,0,0,1,,,,0,66,43
188416,note_off,,,,,1024,0,2,,,,1,50,0
188621,note_off,,,,,0,0,1,,,,0,69,0
188621,note_off,,,,,0,0,2,,,,1,57,0
188621,note_off,,,,,205,0,1,,,,0,62,0
188621,note_off,,,,,0,0,1,,,,0,66,0
188621,note_off,,,,,0,0,2,,,,1,54,0
188621,note_off,,,,,205,0,2,,,,1,50,0
188928,note_on,,,,,0,0,2,,,,1,52,55
188928,note_on,,,,,307,0,2,,,,1,50,55
188928,note_on,,,,,0,0,1,,,,0,67,40
188928,note_on,,,,,0,0,2,,,,1,55,55
188928,note_on,,,,,307,0,1,,,,0,62,40
188928,note_on,,,,,0,0,1,,,,0,64,40
189133,note_off,,,,,205,0,1,,,,0,62,0
189133,note_off,,,,,0,0,2,,,,1,55,0
189133,note_off,,,,,205,0,2,,,,1,50,0
189133,note_off,,,,,0,0,2,,,,1,52,0
189133,note_off,,,,,0,0,1,,,,0,64,0
189133,note_off,,,,,0,0,1,,,,0,67,0
189440,note_on,,,,,0,0,2,,,,1,57,51
189440,note_on,,,,,0,0,2,,,,1,54,51
189440,note_on,,,,,307,0,2,,,,1,50,51
189440,note_on,,,,,0,0,1,,,,0,69,36
189440,note_on,,,,,0,0,1,,,,0,66,36
189440,note_on,,,,,307,0,1,,,,0,62,36
190464,note_off,,,,,1024,0,2,,,,1,50,0
190464,note_on,,,,,0,0,2,,,,1,74,64
190464,note_on,,,,,0,0,2,,,,1,43,64
190464,note_off,,,,,0,0,2,,,,1,57,0
190464,note_off,,,,,0,0,2,,,,1,54,0
190464,note_on,,,,,0,0,1,,,,0,47,49
190464,note_off,,,,,0,0,1,,,,0,69,0
190464,note_off,,,,,0,0,1,,,,0,66,0
190464,note_off,,,,,1024,0,1,,,,0,62,0
190464,note_on,,,,,0,0,1,,,,0,67,49
190805,note_off,,,,,341,0,1,,,,0,47,0
190805,note_off,,,,,0,0,1,,,,0,67,0
190805,note_on,,,,,0,0,1,,,,0,50,49
190805,note_on,,,,,0,0,1,,,,0,62,49
191147,note_off,,,,,342,0,1,,,,0,50,0
191147,note_off,,,,,0,0,1,,,,0,62,0
191147,note_on,,,,,0,0,1,,,,0,55,49
191147,note_on,,,,,0,0,1,,,,0,71,49
191488,note_on,,,,,0,0,1,,,,0,47,49
191488,note_on,,,,,0,0,1,,,,0,67,49
191488,note_off,,,,,341,0,1,,,,0,55,0
191488,note_off,,,,,0,0,1,,,,0,71,0
191829,note_off,,,,,341,0,1,,,,0,47,0
191829,note_off,,,,,0,0,1,,,,0,67,0
191829,note_on,,,,,0,0,1,,,,0,50,49
191829,note_on,,,,,0,0,1,,,,0,62,49
192171,note_on,,,,,0,0,1,,,,0,71,49
192171,note_off,,,,,342,0,1,,,,0,50,0
192171,note_off,,,,,0,0,1,,,,0,62,0
192171,note_on,,,,,0,0,1,,,,0,55,49
192512,note_on,,,,,0,0,1,,,,0,66,49
192512,note_off,,,,,0,0,1,,,,0,71,0
192512,note_on,,,,,0,0,1,,,,0,45,49
192512,note_off,,,,,341,0,1,,,,0,55,0
192853,note_on,,,,,0,0,1,,,,0,50,49
192853,note_off,,,,,341,0,1,,,,0,45,0
192853,note_on,,,,,0,0,1,,,,0,62,49
192853,note_off,,,,,0,0,1,,,,0,66,0
193195,note_off,,,,,0,0,1,,,,0,62,0
193195,note_on,,,,,0,0,1,,,,0,54,49
193195,note_on,,,,,0,0,1,,,,0,69,49
193195,note_off,,,,,342,0,1,,,,0,50,0
193536,note_off,,,,,0,0,2,,,,1,74,0
193536,note_off,,,,,3072,0,2,,,,1,43,0
193536,note_on,,,,,0,0,2,,,,1,74,64
193536,note_on,,,,,0,0,2,,,,1,43,64
193536,note_on,,,,,0,0,1,,,,0,48,49
193536,note_off,,,,,0,0,1,,,,0,69,0
193536,note_off,,,,,341,0,1,,,,0,54,0
193536,note_on,,,,,0,0,1,,,,0,69,49
193877,note_off,,,,,341,0,1,,,,0,48,0
193877,note_off,,,,,0,0,1,,,,0,69,0
193877,note_on,,,,,0,0,1,,,,0,62,49
193877,note_on,,,,,0,0,1,,,,0,50,49
194219,note_off,,,,,342,0,1,,,,0,50,0
194219,note_off,,,,,0,0,1,,,,0,62,0
194219,note_on,,,,,0,0,1,,,,0,57,49
194219,note_on,,,,,0,0,1,,,,0,72,49
194560,note_on,,,,,0,0,1,,,,0,69,49
194560,note_off,,,,,0,0,1,,,,0,72,0
194560,note_off,,,,,341,0,1,,,,0,57,0
194560,note_on,,,,,0,0,1,,,,0,48,49
194901,note_off,,,,,341,0,1,,,,0,48,0
194901,note_on,,,,,0,0,1,,,,0,62,49
194901,note_on,,,,,0,0,1,,,,0,50,49
194901,note_off,,,,,0,0,1,,,,0,69,0
195243,note_on,,,,,0,0,1,,,,0,72,49
195243,note_on,,,,,0,0,1,,,,0,57,49
195243,note_off,,,,,0,0,1,,,,0,62,0
195243,note_off,,,,,342,0,1,,,,0,50,0
195584,note_on,,,,,0,0,1,,,,0,67,49
195584,note_on,,,,,0,0,1,,,,0,47,49
195584,note_off,,,,,0,0,1,,,,0,72,0
195584,note_off,,,,,341,0,1,,,,0,57,0
195925,note_off,,,,,341,0,1,,,,0,47,0
195925,note_on,,,,,0,0,1,,,,0,50,49
195925,note_on,,,,,0,0,1,,,,0,62,49
195925,note_off,,,,,0,0,1,,,,0,67,0
196267,note_on,,,,,0,0,1,,,,0,71,49
196267,note_on,,,,,0,0,1,,,,0,55,49
196267,note_off,,,,,0,0,1,,,,0,62,0
196267,note_off,,,,,342,0,1,,,,0,50,0
196608,note_on,,,,,0,0,1,,,,0,62,49
196608,note_off,,,,,0,0,1,,,,0,71,0
196608,note_off,,,,,341,0,1,,,,0,55,0
196608,note_off,,,,,0,0,2,,,,1,74,0
196608,note_on,,,,,0,0,2,,,,1,50,64
196608,note_on,,,,,0,0,2,,,,1,47,64
196608,note_on,,,,,0,0,2,,,,1,43,64
196608,note_off,,,,,3072,0,2,,,,1,43,0
197120,note_off,,,,,512,0,1,,,,0,62,0
197120,note_on,,,,,0,0,1,,,,0,74,56
197632,note_on,,,,,0,0,2,,,,1,52,77
197632,note_off,,,,,512,0,1,,,,0,74,0
197632,note_on,,,,,0,0,2,,,,1,48,77
197632,note_on,,,,,0,0,2,,,,1,43,77
197632,note_off,,,,,0,0,2,,,,1,50,0
197632,note_off,,,,,0,0,2,,,,1,47,0
197632,note_off,,,,,1024,0,2,,,,1,43,0
197632,note_on,,,,,0,0,1,,,,0,76,62
197632,note_on,,,,,0,0,1,,,,0,64,62
198144,note_on,,,,,0,0,1,,,,0,66,69
198144,note_off,,,,,0,0,1,,,,0,76,0
198144,note_on,,,,,0,0,1,,,,0,78,69
198144,note_on,,,,,0,0,2,,,,1,54,84
198144,note_on,,,,,0,0,2,,,,1,45,84
198144,note_on,,,,,0,0,2,,,,1,43,84
198144,note_off,,,,,0,0,2,,,,1,52,0
198144,note_off,,,,,0,0,2,,,,1,48,0
198144,note_off,,,,,512,0,2,,,,1,43,0
198144,note_off,,,,,512,0,1,,,,0,64,0
198656,note_on,,,,,0,0,2,,,,1,43,91
198656,note_on,,,,,0,0,2,,,,1,47,91
198656,note_on,,,,,0,0,2,,,,1,55,91
198656,note_off,,,,,0,0,2,,,,1,54,0
198656,note_off,,,,,0,0,1,,,,0,78,0
198656,note_off,,,,,0,0,2,,,,1,45,0
198656,note_off,,,,,512,0,2,,,,1,43,0
198656,note_off,,,,,512,0,1,,,,0,66,0
198656,note_on,,,,,0,0,1,,,,0,67,76
198656,note_on,,,,,0,0,1,,,,0,79,76
199424,note_on,,,,,0,0,2,,,,1,59,70
199424,note_on,,,,,0,0,2,,,,1,55,70
199424,note_on,,,,,0,0,2,,,,1,50,70
199424,note_off,,,,,768,0,1,,,,0,67,0
199424,note_off,,,,,0,0,2,,,,1,47,0
199424,note_off,,,,,768,0,2,,,,1,43,0
199424,note_off,,,,,0,0,1,,,,0,79,0
199424,note_off,,,,,0,0,2,,,,1,55,0
199424,note_on,,,,,0,0,1,,,,0,71,55
199424,note_on,,,,,0,0,1,,,,0,67,55
199424,note_on,,,,,0,0,1,,,,0,62,55
199680,note_on,,,,,0,0,2,,,,1,62,67
199680,note_on,,,,,0,0,2,,,,1,59,67
199680,note_on,,,,,0,0,2,,,,1,50,67
199680,note_on,,,,,0,0,1,,,,0,74,52
199680,note_off,,,,,0,0,2,,,,1,55,0
199680,note_on,,,,,0,0,1,,,,0,71,52
199680,note_off,,,,,256,0,1,,,,0,62,0
199680,note_off,,,,,0,0,1,,,,0,67,0
199680,note_off,,,,,0,0,1,,,,0,71,0
199680,note_on,,,,,0,0,1,,,,0,62,52
199680,note_off,,,,,256,0,2,,,,1,50,0
199680,note_off,,,,,0,0,2,,,,1,59,0
200704,note_off,,,,,1024,0,2,,,,1,50,0
200704,note_off,,,,,0,0,2,,,,1,59,0
200704,note_off,,,,,0,0,2,,,,1,62,0
200704,note_on,,,,,0,0,2,,,,1,50,55
200704,note_on,,,,,0,0,2,,,,1,57,55
200704,note_on,,,,,0,0,2,,,,1,60,55
200704,note_on,,,,,0,0,1,,,,0,62,40
200704,note_off,,,,,1024,0,1,,,,0,62,0
200704,note_off,,,,,0,0,1,,,,0,71,0
200704,note_off,,,,,0,0,1,,,,0,74,0
200704,note_on,,,,,0,0,1,,,,0,66,40
200704,note_on,,,,,0,0,1,,,,0,72,40
201472,note_off,,,,,0,0,2,,,,1,57,0
201472,note_off,,,,,0,0,2,,,,1,60,0
201472,note_on,,,,,0,0,2,,,,1,55,47
201472,note_on,,,,,0,0,2,,,,1,59,47
201472,note_on,,,,,0,0,1,,,,0,71,32
201472,note_on,,,,,0,0,1,,,,0,67,32
201472,note_on,,,,,0,0,1,,,,0,62,32
201472,note_off,,,,,0,0,1,,,,0,72,0
201472,note_off,,,,,0,0,1,,,,0,66,0
201472,note_off,,,,,768,0,1,,,,0,62,0
201472,note_off,,,,,768,0,2,,,,1,50,0
201728,note_off,,,,,0,0,2,,,,1,59,0
201728,note_off,,,,,256,0,2,,,,1,55,0
201728,note_on,,,,,0,0,2,,,,1,59,44
201728,note_on,,,,,0,0,2,,,,1,55,44
201728,note_on,,,,,0,0,1,,,,0,71,29
201728,note_off,,,,,256,0,1,,,,0,62,0
201728,note_off,,,,,0,0,1,,,,0,67,0
201728,note_off,,,,,0,0,1,,,,0,71,0
201728,note_on,,,,,0,0,1,,,,0,62,29
201728,note_on,,,,,0,0,1,,,,0,67,29
202752,note_off,,,,,1024,0,2,,,,1,55,0
202752,note_off,,,,,0,0,2,,,,1,59,0
202752,set_tempo,,,,,24576,1,0,,666666,,,,
202752,note_on,,,,,0,0,2,,,,1,43,64
202752,note_off,,,,,0,0,1,,,,0,71,0
202752,note_on,,,,,0,0,1,,,,0,47,49
202752,note_off,,,,,0,0,1,,,,0,67,0
202752,note_off,,,,,1024,0,1,,,,0,62,0
202752,note_on,,,,,0,0,1,,,,0,67,49
203093,note_on,,,,,0,0,1,,,,0,62,49
203093,note_on,,,,,0,0,1,,,,0,50,49
203093,note_off,,,,,0,0,1,,,,0,67,0
203093,note_off,,,,,341,0,1,,,,0,47,0
203435,note_on,,,,,0,0,1,,,,0,59,49
203435,note_on,,,,,0,0,1,,,,0,55,49
203435,note_off,,,,,0,0,1,,,,0,62,0
203435,note_off,,,,,342,0,1,,,,0,50,0
203776,note_on,,,,,0,0,1,,,,0,67,49
203776,note_on,,,,,0,0,1,,,,0,47,49
203776,note_off,,,,,0,0,1,,,,0,59,0
203776,note_off,,,,,341,0,1,,,,0,55,0
204117,note_off,,,,,0,0,1,,,,0,67,0
204117,note_off,,,,,341,0,1,,,,0,47,0
204117,note_on,,,,,0,0,1,,,,0,62,49
204117,note_on,,,,,0,0,1,,,,0,50,49
204459,note_off,,,,,342,0,1,,,,0,50,0
204459,note_off,,,,,0,0,1,,,,0,62,0
204459,note_on,,,,,0,0,1,,,,0,55,49
204459,note_on,,,,,0,0,1,,,,0,59,49
204800,note_on,,,,,0,0,1,,,,0,66,49
204800,note_on,,,,,0,0,1,,,,0,45,49
204800,note_off,,,,,341,0,1,,,,0,55,0
204800,note_off,,,,,0,0,1,,,,0,59,0
205141,note_on,,,,,0,0,1,,,,0,62,49
205141,note_off,,,,,341,0,1,,,,0,45,0
205141,note_off,,,,,0,0,1,,,,0,66,0
205141,note_on,,,,,0,0,1,,,,0,50,49
205483,note_on,,,,,0,0,1,,,,0,57,49
205483,note_on,,,,,0,0,1,,,,0,54,49
205483,note_off,,,,,0,0,1,,,,0,62,0
205483,note_off,,,,,342,0,1,,,,0,50,0
205824,note_on,,,,,0,0,2,,,,1,43,64
205824,note_off,,,,,0,0,1,,,,0,57,0
205824,note_on,,,,,0,0,1,,,,0,48,49
205824,note_on,,,,,0,0,1,,,,0,69,49
205824,note_off,,,,,341,0,1,,,,0,54,0
205824,note_off,,,,,3072,0,2,,,,1,43,0
206165,note_off,,,,,341,0,1,,,,0,48,0
206165,note_off,,,,,0,0,1,,,,0,69,0
206165,note_on,,,,,0,0,1,,,,0,50,49
206165,note_on,,,,,0,0,1,,,,0,62,49
206507,note_off,,,,,342,0,1,,,,0,50,0
206507,note_off,,,,,0,0,1,,,,0,62,0
206507,note_on,,,,,0,0,1,,,,0,57,49
206507,note_on,,,,,0,0,1,,,,0,60,49
206848,note_off,,,,,341,0,1,,,,0,57,0
206848,note_off,,,,,0,0,1,,,,0,60,0
206848,note_on,,,,,0,0,1,,,,0,48,49
206848,note_on,,,,,0,0,1,,,,0,69,49
207189,note_off,,,,,341,0,1,,,,0,48,0
207189,note_off,,,,,0,0,1,,,,0,69,0
207189,note_on,,,,,0,0,1,,,,0,50,49
207189,note_on,,,,,0,0,1,,,,0,62,49
207531,note_off,,,,,342,0,1,,,,0,50,0
207531,note_on,,,,,0,0,1,,,,0,57,49
207531,note_on,,,,,0,0,1,,,,0,60,49
207531,note_off,,,,,0,0,1,,,,0,62,0
207872,note_off,,,,,341,0,1,,,,0,57,0
207872,note_on,,,,,0,0,1,,,,0,67,49
207872,note_on,,,,,0,0,1,,,,0,47,49
207872,note_off,,,,,0,0,1,,,,0,60,0
208213,note_on,,,,,0,0,1,,,,0,62,49
208213,note_on,,,,,0,0,1,,,,0,50,49
208213,note_off,,,,,0,0,1,,,,0,67,0
208213,note_off,,,,,341,0,1,,,,0,47,0
208555,note_on,,,,,0,0,1,,,,0,59,49
208555,note_on,,,,,0,0,1,,,,0,55,49
208555,note_off,,,,,0,0,1,,,,0,62,0
208555,note_off,,,,,342,0,1,,,,0,50,0
208896,note_on,,,,,0,0,1,,,,0,67,49
208896,note_off,,,,,3072,0,2,,,,1,43,0
208896,note_on,,,,,0,0,1,,,,0,47,49
208896,note_off,,,,,341,0,1,,,,0,55,0
208896,note_off,,,,,0,0,1,,,,0,59,0
209237,note_off,,,,,341,0,1,,,,0,47,0
209237,note_on,,,,,0,0,1,,,,0,62,49
209237,note_off,,,,,0,0,1,,,,0,67,0
209237,note_on,,,,,0,0,1,,,,0,50,49
209579,note_off,,,,,342,0,1,,,,0,50,0
209579,note_off,,,,,0,0,1,,,,0,62,0
209579,note_on,,,,,0,0,1,,,,0,55,49
209579,note_on,,,,,0,0,1,,,,0,59,49
209920,note_on,,,,,1024,0,2,,,,1,50,78
209920,note_on,,,,,0,0,2,,,,1,54,78
209920,note_on,,,,,0,0,2,,,,1,57,78
209920,note_on,,,,,0,0,1,,,,0,69,63
209920,note_on,,,,,0,0,1,,,,0,66,63
209920,note_off,,,,,0,0,1,,,,0,59,0
209920,note_off,,,,,341,0,1,,,,0,55,0
209920,note_on,,,,,0,0,1,,,,0,62,63
210432,note_off,,,,,0,0,2,,,,1,57,0
210432,note_off,,,,,0,0,2,,,,1,54,0
210432,note_off,,,,,512,0,2,,,,1,50,0
210432,note_on,,,,,0,0,2,,,,1,50,85
210432,note_off,,,,,0,0,1,,,,0,69,0
210432,note_on,,,,,0,0,1,,,,0,67,70
210432,note_off,,,,,512,0,1,,,,0,62,0
210432,note_off,,,,,0,0,1,,,,0,66,0
210432,note_on,,,,,0,0,2,,,,1,59,85
210432,note_on,,,,,0,0,1,,,,0,62,70
210432,note_on,,,,,0,0,1,,,,0,71,70
210432,note_on,,,,,0,0,2,,,,1,55,85
210944,note_off,,,,,0,0,1,,,,0,71,0
210944,note_off,,,,,512,0,2,,,,1,50,0
210944,note_off,,,,,0,0,2,,,,1,55,0
210944,note_off,,,,,0,0,2,,,,1,59,0
210944,note_on,,,,,0,0,2,,,,1,50,91
210944,note_on,,,,,0,0,2,,,,1,57,91
210944,note_on,,,,,0,0,2,,,,1,60,91
210944,note_on,,,,,0,0,1,,,,0,72,76
210944,note_on,,,,,0,0,1,,,,0,62,76
210944,note_off,,,,,512,0,1,,,,0,62,0
210944,note_off,,,,,0,0,1,,,,0,67,0
210944,note_on,,,,,0,0,1,,,,0,69,76
211712,note_on,,,,,0,0,1,,,,0,71,53
211712,note_off,,,,,0,0,1,,,,0,69,0
211712,note_on,,,,,0,0,1,,,,0,62,53
211712,note_on,,,,,0,0,1,,,,0,67,53
211712,note_off,,,,,768,0,1,,,,0,62,0
211712,note_off,,,,,0,0,1,,,,0,72,0
211712,note_off,,,,,0,0,2,,,,1,57,0
211712,note_off,,,,,0,0,2,,,,1,60,0
211712,note_on,,,,,0,0,2,,,,1,50,68
211712,note_on,,,,,0,0,2,,,,1,55,68
211712,note_on,,,,,0,0,2,,,,1,59,68
211712,note_off,,,,,768,0,2,,,,1,50,0
211968,note_on,,,,,0,0,2,,,,1,55,66
211968,note_on,,,,,0,0,2,,,,1,59,66
211968,note_off,,,,,0,0,1,,,,0,67,0
211968,note_off,,,,,0,0,1,,,,0,71,0
211968,note_on,,,,,0,0,1,,,,0,71,51
211968,note_on,,,,,0,0,1,,,,0,67,51
211968,note_on,,,,,0,0,2,,,,1,50,66
211968,note_off,,,,,0,0,2,,,,1,59,0
211968,note_off,,,,,0,0,2,,,,1,55,0
211968,note_off,,,,,256,0,2,,,,1,50,0
211968,note_on,,,,,0,0,1,,,,0,62,51
211968,note_off,,,,,256,0,1,,,,0,62,0
212992,note_off,,,,,0,0,2,,,,1,59,0
212992,note_off,,,,,0,0,2,,,,1,55,0
212992,note_on,,,,,0,0,2,,,,1,54,58
212992,note_on,,,,,0,0,2,,,,1,57,58
212992,note_off,,,,,1024,0,2,,,,1,50,0
212992,note_off,,,,,1024,0,1,,,,0,62,0
212992,note_on,,,,,0,0,2,,,,1,50,58
212992,note_off,,,,,0,0,1,,,,0,71,0
212992,note_on,,,,,0,0,1,,,,0,62,43
212992,note_on,,,,,0,0,1,,,,0,66,43
212992,note_on,,,,,0,0,1,,,,0,69,43
212992,note_off,,,,,0,0,1,,,,0,67,0
213197,note_off,,,,,0,0,2,,,,1,57,0
213197,note_off,,,,,205,0,2,,,,1,50,0
213197,note_off,,,,,0,0,2,,,,1,54,0
213197,note_off,,,,,0,0,1,,,,0,69,0
213197,note_off,,,,,0,0,1,,,,0,66,0
213197,note_off,,,,,205,0,1,,,,0,62,0
213504,note_on,,,,,0,0,1,,,,0,67,40
213504,note_on,,,,,0,0,2,,,,1,55,55
213504,note_on,,,,,0,0,2,,,,1,52,55
213504,note_on,,,,,307,0,2,,,,1,50,55
213504,note_on,,,,,307,0,1,,,,0,62,40
213504,note_on,,,,,0,0,1,,,,0,64,40
213709,note_off,,,,,205,0,2,,,,1,50,0
213709,note_off,,,,,0,0,1,,,,0,67,0
213709,note_off,,,,,0,0,2,,,,1,52,0
213709,note_off,,,,,0,0,1,,,,0,64,0
213709,note_off,,,,,205,0,1,,,,0,62,0
213709,note_off,,,,,0,0,2,,,,1,55,0
214016,note_on,,,,,0,0,2,,,,1,57,51
214016,note_on,,,,,307,0,2,,,,1,50,51
214016,note_on,,,,,0,0,2,,,,1,54,51
214016,note_on,,,,,0,0,1,,,,0,66,36
214016,note_on,,,,,307,0,1,,,,0,62,36
214016,note_on,,,,,0,0,1,,,,0,69,36
215040,note_on,,,,,0,0,1,,,,0,67,49
215040,note_on,,,,,0,0,1,,,,0,47,49
215040,note_off,,,,,0,0,1,,,,0,69,0
215040,note_off,,,,,0,0,1,,,,0,66,0
215040,note_off,,,,,1024,0,1,,,,0,62,0
215040,note_on,,,,,0,0,2,,,,1,43,64
215040,note_off,,,,,0,0,2,,,,1,57,0
215040,note_off,,,,,0,0,2,,,,1,54,0
215040,note_on,,,,,0,0,2,,,,1,74,64
215040,note_off,,,,,1024,0,2,,,,1,50,0
215381,note_on,,,,,0,0,1,,,,0,62,49
215381,note_on,,,,,0,0,1,,,,0,50,49
215381,note_off,,,,,341,0,1,,,,0,47,0
215381,note_off,,,,,0,0,1,,,,0,67,0
215723,note_off,,,,,342,0,1,,,,0,50,0
215723,note_off,,,,,0,0,1,,,,0,62,0
215723,note_on,,,,,0,0,1,,,,0,71,49
215723,note_on,,,,,0,0,1,,,,0,55,49
216064,note_off,,,,,341,0,1,,,,0,55,0
216064,note_off,,,,,0,0,1,,,,0,71,0
216064,note_on,,,,,0,0,1,,,,0,47,49
216064,note_on,,,,,0,0,1,,,,0,67,49
216405,note_off,,,,,341,0,1,,,,0,47,0
216405,note_off,,,,,0,0,1,,,,0,67,0
216405,note_on,,,,,0,0,1,,,,0,62,49
216405,note_on,,,,,0,0,1,,,,0,50,49
216747,note_off,,,,,342,0,1,,,,0,50,0
216747,note_off,,,,,0,0,1,,,,0,62,0
216747,note_on,,,,,0,0,1,,,,0,55,49
216747,note_on,,,,,0,0,1,,,,0,71,49
217088,note_on,,,,,0,0,1,,,,0,66,49
217088,note_off,,,,,341,0,1,,,,0,55,0
217088,note_off,,,,,0,0,1,,,,0,71,0
217088,note_on,,,,,0,0,1,,,,0,45,49
217429,note_off,,,,,341,0,1,,,,0,45,0
217429,note_off,,,,,0,0,1,,,,0,66,0
217429,note_on,,,,,0,0,1,,,,0,50,49
217429,note_on,,,,,0,0,1,,,,0,62,49
217771,note_on,,,,,0,0,1,,,,0,69,49
217771,note_off,,,,,0,0,1,,,,0,62,0
217771,note_on,,,,,0,0,1,,,,0,54,49
217771,note_off,,,,,342,0,1,,,,0,50,0
218112,note_on,,,,,0,0,2,,,,1,74,64
218112,note_off,,,,,3072,0,2,,,,1,43,0
218112,note_on,,,,,0,0,1,,,,0,69,49
218112,note_off,,,,,0,0,2,,,,1,74,0
218112,note_off,,,,,0,0,1,,,,0,69,0
218112,note_off,,,,,341,0,1,,,,0,54,0
218112,note_on,,,,,0,0,2,,,,1,43,64
218112,note_on,,,,,0,0,1,,,,0,48,49
218453,note_off,,,,,341,0,1,,,,0,48,0
218453,note_off,,,,,0,0,1,,,,0,69,0
218453,note_on,,,,,0,0,1,,,,0,62,49
218453,note_on,,,,,0,0,1,,,,0,50,49
218795,note_on,,,,,0,0,1,,,,0,72,49
218795,note_off,,,,,0,0,1,,,,0,62,0
218795,note_off,,,,,342,0,1,,,,0,50,0
218795,note_on,,,,,0,0,1,,,,0,57,49
219136,note_on,,,,,0,0,1,,,,0,69,49
219136,note_off,,,,,341,0,1,,,,0,57,0
219136,note_off,,,,,0,0,1,,,,0,72,0
219136,note_on,,,,,0,0,1,,,,0,48,49
219477,note_off,,,,,341,0,1,,,,0,48,0
219477,note_off,,,,,0,0,1,,,,0,69,0
219477,note_on,,,,,0,0,1,,,,0,50,49
219477,note_on,,,,,0,0,1,,,,0,62,49
219819,note_on,,,,,0,0,1,,,,0,57,49
219819,note_off,,,,,342,0,1,,,,0,50,0
219819,note_on,,,,,0,0,1,,,,0,72,49
219819,note_off,,,,,0,0,1,,,,0,62,0
220160,note_on,,,,,0,0,1,,,,0,67,49
220160,note_on,,,,,0,0,1,,,,0,47,49
220160,note_off,,,,,0,0,1,,,,0,72,0
220160,note_off,,,,,341,0,1,,,,0,57,0
220501,note_on,,,,,0,0,1,,,,0,50,49
220501,note_off,,,,,0,0,1,,,,0,67,0
220501,note_on,,,,,0,0,1,,,,0,62,49
220501,note_off,,,,,341,0,1,,,,0,47,0
220843,note_off,,,,,342,0,1,,,,0,50,0
220843,note_off,,,,,0,0,1,,,,0,62,0
220843,note_on,,,,,0,0,1,,,,0,55,49
220843,note_on,,,,,0,0,1,,,,0,71,49
221184,note_on,,,,,0,0,1,,,,0,62,49
221184,note_off,,,,,0,0,1,,,,0,71,0
221184,note_on,,,,,0,0,2,,,,1,50,64
221184,note_on,,,,,0,0,2,,,,1,47,64
221184,note_off,,,,,341,0,1,,,,0,55,0
221184,note_off,,,,,0,0,2,,,,1,74,0
221184,note_off,,,,,3072,0,2,,,,1,43,0
221184,note_on,,,,,0,0,2,,,,1,43,64
221696,note_off,,,,,512,0,1,,,,0,62,0
221696,note_on,,,,,0,0,1,,,,0,74,56
222208,note_off,,,,,512,0,1,,,,0,74,0
222208,note_on,,,,,0,0,1,,,,0,64,62
222208,note_on,,,,,0,0,1,,,,0,76,62
222208,note_off,,,,,1024,0,2,,,,1,43,0
222208,note_on,,,,,0,0,2,,,,1,48,77
222208,note_on,,,,,0,0,2,,,,1,43,77
222208,note_off,,,,,0,0,2,,,,1,50,0
222208,note_off,,,,,0,0,2,,,,1,47,0
222208,note_on,,,,,0,0,2,,,,1,52,77
222720,note_off,,,,,512,0,1,,,,0,64,0
222720,note_off,,,,,0,0,1,,,,0,76,0
222720,note_on,,,,,0,0,1,,,,0,78,69
222720,note_on,,,,,0,0,1,,,,0,66,69
222720,note_on,,,,,0,0,2,,,,1,43,84
222720,note_off,,,,,0,0,2,,,,1,48,0
222720,note_on,,,,,0,0,2,,,,1,45,84
222720,note_off,,,,,0,0,2,,,,1,52,0
222720,note_off,,,,,512,0,2,,,,1,43,0
222720,note_on,,,,,0,0,2,,,,1,54,84
223232,note_off,,,,,0,0,2,,,,1,54,0
223232,note_on,,,,,0,0,2,,,,1,43,91
223232,note_on,,,,,0,0,2,,,,1,47,91
223232,note_on,,,,,0,0,2,,,,1,55,91
223232,note_off,,,,,0,0,2,,,,1,45,0
223232,note_off,,,,,512,0,2,,,,1,43,0
223232,note_on,,,,,0,0,1,,,,0,79,76
223232,note_on,,,,,0,0,1,,,,0,67,76
223232,note_off,,,,,0,0,1,,,,0,78,0
223232,note_off,,,,,512,0,1,,,,0,66,0
224000,note_on,,,,,0,0,1,,,,0,62,55
224000,note_off,,,,,0,0,1,,,,0,79,0
224000,note_off,,,,,768,0,1,,,,0,67,0
224000,note_on,,,,,0,0,1,,,,0,71,55
224000,note_on,,,,,0,0,1,,,,0,67,55
224000,note_on,,,,,0,0,2,,,,1,50,70
224000,note_off,,,,,768,0,2,,,,1,43,0
224000,note_on,,,,,0,0,2,,,,1,59,70
224000,note_on,,,,,0,0,2,,,,1,55,70
224000,note_off,,,,,0,0,2,,,,1,47,0
224000,note_off,,,,,0,0,2,,,,1,55,0
224256,note_off,,,,,256,0,1,,,,0,62,0
224256,note_off,,,,,0,0,1,,,,0,67,0
224256,note_off,,,,,0,0,1,,,,0,71,0
224256,note_on,,,,,0,0,1,,,,0,62,52
224256,note_on,,,,,0,0,1,,,,0,71,52
224256,note_on,,,,,0,0,1,,,,0,74,52
224256,note_on,,,,,0,0,2,,,,1,59,67
224256,note_off,,,,,256,0,2,,,,1,50,0
224256,note_off,,,,,0,0,2,,,,1,55,0
224256,note_off,,,,,0,0,2,,,,1,59,0
224256,note_on,,,,,0,0,2,,,,1,50,67
224256,note_on,,,,,0,0,2,,,,1,62,67
225280,note_off,,,,,0,0,2,,,,1,62,0
225280,note_on,,,,,0,0,2,,,,1,50,55
225280,note_on,,,,,0,0,2,,,,1,60,55
225280,note_on,,,,,0,0,2,,,,1,57,55
225280,note_off,,,,,0,0,1,,,,0,71,0
225280,note_off,,,,,0,0,1,,,,0,74,0
225280,note_off,,,,,1024,0,2,,,,1,50,0
225280,note_off,,,,,0,0,2,,,,1,59,0
225280,note_off,,,,,1024,0,1,,,,0,62,0
225280,note_on,,,,,0,0,1,,,,0,62,40
225280,note_on,,,,,0,0,1,,,,0,72,40
225280,note_on,,,,,0,0,1,,,,0,66,40
226048,note_off,,,,,0,0,1,,,,0,72,0
226048,note_on,,,,,0,0,1,,,,0,62,32
226048,note_on,,,,,0,0,1,,,,0,67,32
226048,note_off,,,,,768,0,1,,,,0,62,0
226048,note_off,,,,,768,0,2,,,,1,50,0
226048,note_off,,,,,0,0,2,,,,1,57,0
226048,note_off,,,,,0,0,2,,,,1,60,0
226048,note_on,,,,,0,0,2,,,,1,55,47
226048,note_on,,,,,0,0,2,,,,1,59,47
226048,note_off,,,,,0,0,1,,,,0,66,0
226048,note_on,,,,,0,0,1,,,,0,71,32
226304,note_on,,,,,0,0,1,,,,0,71,29
226304,note_off,,,,,0,0,1,,,,0,67,0
226304,note_on,,,,,0,0,2,,,,1,55,44
226304,note_on,,,,,0,0,2,,,,1,59,44
226304,note_off,,,,,256,0,1,,,,0,62,0
226304,note_off,,,,,256,0,2,,,,1,55,0
226304,note_off,,,,,0,0,2,,,,1,59,0
226304,note_off,,,,,0,0,1,,,,0,71,0
226304,note_on,,,,,0,0,1,,,,0,62,29
226304,note_on,,,,,0,0,1,,,,0,67,29
227328,note_off,,,,,0,0,1,,,,0,67,0
227328,note_off,,,,,0,0,1,,,,0,71,0
227328,note_on,,,,,0,0,1,,,,0,57,61
227328,note_on,,,,,0,0,1,,,,0,66,61
227328,note_on,,,,,0,0,1,,,,0,69,61
227328,note_off,,,,,1024,0,2,,,,1,55,0
227328,set_tempo,,,,,24576,1,0,,705882,,,,
227328,note_off,,,,,0,0,2,,,,1,59,0
227328,note_on,,,,,0,0,2,,,,1,38,36
227328,note_off,,,,,1024,0,1,,,,0,62,0
227669,note_off,,,,,341,0,2,,,,1,38,0
227669,note_on,,,,,0,0,2,,,,1,45,36
228011,note_on,,,,,0,0,2,,,,1,38,36
228011,note_off,,,,,342,0,2,,,,1,45,0
228352,note_off,,,,,341,0,2,,,,1,38,0
228352,note_on,,,,,0,0,1,,,,0,67,49
228352,note_on,,,,,0,0,1,,,,0,57,49
228352,note_off,,,,,0,0,1,,,,0,69,0
228352,note_off,,,,,0,0,1,,,,0,66,0
228352,note_off,,,,,1024,0,1,,,,0,57,0
228352,note_on,,,,,0,0,2,,,,1,33,36
228352,note_on,,,,,0,0,1,,,,0,64,49
228693,note_off,,,,,341,0,2,,,,1,33,0
228693,note_on,,,,,0,0,2,,,,1,38,36
229035,note_off,,,,,342,0,2,,,,1,38,0
229035,note_on,,,,,0,0,2,,,,1,33,36
229120,note_on,,,,,0,0,1,,,,0,66,49
229120,note_on,,,,,0,0,1,,,,0,57,49
229120,note_off,,,,,0,0,1,,,,0,67,0
229120,note_off,,,,,0,0,1,,,,0,64,0
229120,note_off,,,,,768,0,1,,,,0,57,0
229120,note_on,,,,,0,0,1,,,,0,62,49
229376,note_off,,,,,341,0,2,,,,1,33,0
229376,note_on,,,,,0,0,2,,,,1,38,36
229376,note_on,,,,,0,0,1,,,,0,57,49
229376,note_on,,,,,0,0,1,,,,0,62,49
229376,note_off,,,,,0,0,1,,,,0,66,0
229376,note_off,,,,,0,0,1,,,,0,62,0
229376,note_off,,,,,256,0,1,,,,0,57,0
229376,note_on,,,,,0,0,1,,,,0,66,49
229717,note_off,,,,,341,0,2,,,,1,38,0
229717,note_on,,,,,0,0,2,,,,1,45,36
230059,note_off,,,,,342,0,2,,,,1,45,0
230059,note_on,,,,,0,0,2,,,,1,38,36
230400,note_off,,,,,1024,0,1,,,,0,57,0
230400,note_on,,,,,0,0,2,,,,1,33,36
230400,note_on,,,,,0,0,1,,,,0,66,49
230400,note_on,,,,,0,0,1,,,,0,74,49
230400,note_off,,,,,0,0,1,,,,0,66,0
230400,note_off,,,,,341,0,2,,,,1,38,0
230400,note_off,,,,,0,0,1,,,,0,62,0
230741,note_off,,,,,341,0,2,,,,1,33,0
230741,note_on,,,,,0,0,2,,,,1,38,36
231083,note_off,,,,,342,0,2,,,,1,38,0
231083,note_on,,,,,0,0,2,,,,1,33,36
231168,note_on,,,,,0,0,1,,,,0,76,49
231168,note_off,,,,,768,0,1,,,,0,66,0
231168,note_on,,,,,0,0,1,,,,0,69,49
231168,note_off,,,,,0,0,1,,,,0,74,0
231424,note_on,,,,,0,0,2,,,,1,37,36
231424,note_off,,,,,256,0,1,,,,0,69,0
231424,note_off,,,,,0,0,1,,,,0,76,0
231424,note_on,,,,,0,0,1,,,,0,66,49
231424,note_on,,,,,0,0,1,,,,0,74,49
231424,note_off,,,,,341,0,2,,,,1,33,0
231765,note_off,,,,,341,0,2,,,,1,37,0
231765,note_on,,,,,0,0,2,,,,1,45,36
232107,note_on,,,,,0,0,2,,,,1,37,36
232107,note_off,,,,,342,0,2,,,,1,45,0
232448,note_on,,,,,0,0,1,,,,0,69,49
232448,note_on,,,,,0,0,1,,,,0,76,49
232448,note_on,,,,,0,0,2,,,,1,33,36
232448,note_off,,,,,0,0,1,,,,0,74,0
232448,note_off,,,,,1024,0,1,,,,0,66,0
232448,note_off,,,,,341,0,2,,,,1,37,0
232789,note_off,,,,,341,0,2,,,,1,33,0
232789,note_on,,,,,0,0,2,,,,1,37,36
232960,note_off,,,,,0,0,1,,,,0,76,0
232960,note_off,,,,,512,0,1,,,,0,69,0
233131,note_off,,,,,342,0,2,,,,1,37,0
233131,note_on,,,,,0,0,2,,,,1,33,36
233472,note_off,,,,,341,0,2,,,,1,33,0
233472,note_on,,,,,0,0,2,,,,1,38,36
233472,note_on,,,,,0,0,1,,,,0,71,61
233472,note_on,,,,,0,0,1,,,,0,67,61
233472,note_on,,,,,512,0,1,,,,0,57,61
233813,note_off,,,,,341,0,2,,,,1,38,0
233813,note_on,,,,,0,0,2,,,,1,45,36
234155,note_off,,,,,342,0,2,,,,1,45,0
234155,note_on,,,,,0,0,2,,,,1,38,36
234496,note_off,,,,,341,0,2,,,,1,38,0
234496,note_on,,,,,0,0,1,,,,0,69,49
234496,note_off,,,,,1024,0,1,,,,0,57,0
234496,note_off,,,,,0,0,1,,,,0,67,0
234496,note_off,,,,,0,0,1,,,,0,71,0
234496,note_on,,,,,0,0,1,,,,0,57,49
234496,note_on,,,,,0,0,1,,,,0,66,49
234496,note_on,,,,,0,0,2,,,,1,33,36
234837,note_off,,,,,341,0,2,,,,1,33,0
234837,note_on,,,,,0,0,2,,,,1,38,36
235179,note_on,,,,,0,0,2,,,,1,33,36
235179,note_off,,,,,342,0,2,,,,1,38,0
235264,note_off,,,,,0,0,1,,,,0,69,0
235264,note_on,,,,,0,0,1,,,,0,57,49
235264,note_on,,,,,0,0,1,,,,0,64,49
235264,note_off,,,,,768,0,1,,,,0,57,0
235264,note_on,,,,,0,0,1,,,,0,67,49
235264,note_off,,,,,0,0,1,,,,0,66,0
235520,note_off,,,,,0,0,1,,,,0,67,0
235520,note_on,,,,,0,0,1,,,,0,67,49
235520,note_on,,,,,0,0,1,,,,0,64,49
235520,note_on,,,,,0,0,1,,,,0,57,49
235520,note_off,,,,,0,0,1,,,,0,64,0
235520,note_off,,,,,256,0,1,,,,0,57,0
235520,note_on,,,,,0,0,2,,,,1,38,36
235520,note_off,,,,,341,0,2,,,,1,33,0
235861,note_off,,,,,341,0,2,,,,1,38,0
235861,note_on,,,,,0,0,2,,,,1,45,36
236203,note_off,,,,,342,0,2,,,,1,45,0
236203,note_on,,,,,0,0,2,,,,1,38,36
236544,note_on,,,,,0,0,1,,,,0,69,49
236544,note_off,,,,,341,0,2,,,,1,38,0
236544,note_on,,,,,0,0,2,,,,1,33,36
236544,note_off,,,,,1024,0,1,,,,0,57,0
236544,note_off,,,,,0,0,1,,,,0,64,0
236544,note_on,,,,,0,0,1,,,,0,76,49
236544,note_off,,,,,0,0,1,,,,0,67,0
236885,note_off,,,,,341,0,2,,,,1,33,0
236885,note_on,,,,,0,0,2,,,,1,37,36
237227,note_off,,,,,342,0,2,,,,1,37,0
237227,note_on,,,,,0,0,2,,,,1,33,36
237312,note_on,,,,,0,0,1,,,,0,78,49
237312,note_on,,,,,0,0,1,,,,0,74,49
237312,note_off,,,,,0,0,1,,,,0,76,0
237312,note_off,,,,,768,0,1,,,,0,69,0
237568,note_on,,,,,0,0,1,,,,0,76,49
237568,note_off,,,,,341,0,2,,,,1,33,0
237568,note_on,,,,,0,0,2,,,,1,37,36
237568,note_on,,,,,0,0,1,,,,0,69,49
237568,note_off,,,,,256,0,1,,,,0,74,0
237568,note_off,,,,,0,0,1,,,,0,78,0
237909,note_on,,,,,0,0,2,,,,1,45,36
237909,note_off,,,,,341,0,2,,,,1,37,0
238251,note_on,,,,,0,0,2,,,,1,37,36
238251,note_off,,,,,342,0,2,,,,1,45,0
238592,note_off,,,,,341,0,2,,,,1,37,0
238592,note_on,,,,,0,0,2,,,,1,33,36
238592,note_off,,,,,0,0,1,,,,0,76,0
238592,note_off,,,,,1024,0,1,,,,0,69,0
238592,note_on,,,,,0,0,1,,,,0,74,49
238592,note_on,,,,,0,0,1,,,,0,78,49
238933,note_on,,,,,0,0,2,,,,1,38,36
238933,note_off,,,,,341,0,2,,,,1,33,0
239104,note_off,,,,,0,0,1,,,,0,78,0
239104,note_off,,,,,512,0,1,,,,0,74,0
239275,note_on,,,,,0,0,2,,,,1,33,36
239275,note_off,,,,,342,0,2,,,,1,38,0
239616,note_off,,,,,341,0,2,,,,1,33,0
239616,note_on,,,,,0,0,1,,,,0,74,61
239616,note_on,,,,,512,0,1,,,,0,66,61
239616,note_on,,,,,0,0,2,,,,1,38,36
239957,note_on,,,,,0,0,2,,,,1,45,36
239957,note_off,,,,,341,0,2,,,,1,38,0
240299,note_on,,,,,0,0,2,,,,1,38,36
240299,note_off,,,,,342,0,2,,,,1,45,0
240640,note_off,,,,,341,0,2,,,,1,38,0
240640,note_off,,,,,1024,0,1,,,,0,66,0
240640,note_off,,,,,0,0,1,,,,0,74,0
240640,note_on,,,,,0,0,1,,,,0,69,49
240640,note_on,,,,,0,0,1,,,,0,73,49
240640,note_on,,,,,0,0,2,,,,1,33,36
240845,note_off,,,,,205,0,1,,,,0,69,0
240845,note_off,,,,,0,0,1,,,,0,73,0
240981,note_on,,,,,0,0,2,,,,1,36,36
240981,note_off,,,,,341,0,2,,,,1,33,0
241152,note_on,,,,,307,0,1,,,,0,67,49
241152,note_on,,,,,0,0,1,,,,0,71,49
241323,note_off,,,,,342,0,2,,,,1,36,0
241323,note_on,,,,,0,0,2,,,,1,33,36
241357,note_off,,,,,205,0,1,,,,0,67,0
241357,note_off,,,,,0,0,1,,,,0,71,0
241664,note_on,,,,,0,0,1,,,,0,66,61
241664,note_on,,,,,0,0,1,,,,0,69,61
241664,note_on,,,,,0,0,2,,,,1,38,36
241664,note_off,,,,,341,0,2,,,,1,33,0
241664,note_on,,,,,307,0,1,,,,0,57,61
242005,note_on,,,,,0,0,2,,,,1,45,36
242005,note_off,,,,,341,0,2,,,,1,38,0
242347,note_off,,,,,342,0,2,,,,1,45,0
242347,note_on,,,,,0,0,2,,,,1,38,36
242688,note_off,,,,,341,0,2,,,,1,38,0
242688,note_on,,,,,0,0,2,,,,1,33,36
242688,note_off,,,,,1024,0,1,,,,0,57,0
242688,note_off,,,,,0,0,1,,,,0,66,0
242688,note_off,,,,,0,0,1,,,,0,69,0
242688,note_on,,,,,0,0,1,,,,0,57,49
242688,note_on,,,,,0,0,1,,,,0,64,49
242688,note_on,,,,,0,0,1,,,,0,67,49
242893,note_off,,,,,205,0,1,,,,0,57,0
242893,note_off,,,,,0,0,1,,,,0,67,0
242893,note_off,,,,,0,0,1,,,,0,64,0
243029,note_off,,,,,341,0,2,,,,1,33,0
243029,note_on,,,,,0,0,2,,,,1,38,36
243200,note_on,,,,,307,0,1,,,,0,57,49
243200,note_on,,,,,0,0,1,,,,0,62,49
243200,note_on,,,,,0,0,1,,,,0,66,49
243371,note_on,,,,,0,0,2,,,,1,33,36
243371,note_off,,,,,342,0,2,,,,1,38,0
243405,note_off,,,,,205,0,1,,,,0,57,0
243405,note_off,,,,,0,0,1,,,,0,62,0
243405,note_off,,,,,0,0,1,,,,0,66,0
243712,note_on,,,,,307,0,1,,,,0,57,61
243712,note_on,,,,,0,0,2,,,,1,37,36
243712,note_on,,,,,0,0,1,,,,0,71,61
243712,note_off,,,,,341,0,2,,,,1,33,0
243712,note_on,,,,,0,0,1,,,,0,67,61
244053,note_on,,,,,0,0,2,,,,1,45,36
244053,note_off,,,,,341,0,2,,,,1,37,0
244395,note_on,,,,,0,0,2,,,,1,37,36
244395,note_off,,,,,342,0,2,,,,1,45,0
244736,note_on,,,,,0,0,2,,,,1,33,36
244736,note_off,,,,,341,0,2,,,,1,37,0
244736,note_off,,,,,0,0,1,,,,0,71,0
244736,note_on,,,,,0,0,1,,,,0,57,49
244736,note_on,,,,,0,0,1,,,,0,66,49
244736,note_on,,,,,0,0,1,,,,0,69,49
244736,note_off,,,,,1024,0,1,,,,0,57,0
244736,note_off,,,,,0,0,1,,,,0,67,0
244941,note_off,,,,,0,0,1,,,,0,66,0
244941,note_off,,,,,0,0,1,,,,0,69,0
244941,note_off,,,,,205,0,1,,,,0,57,0
245077,note_off,,,,,341,0,2,,,,1,33,0
245077,note_on,,,,,0,0,2,,,,1,37,36
245248,note_on,,,,,307,0,1,,,,0,57,49
245248,note_on,,,,,0,0,1,,,,0,64,49
245248,note_on,,,,,0,0,1,,,,0,67,49
245419,note_on,,,,,0,0,2,,,,1,33,36
245419,note_off,,,,,342,0,2,,,,1,37,0
245453,note_off,,,,,0,0,1,,,,0,67,0
245453,note_off,,,,,205,0,1,,,,0,57,0
245453,note_off,,,,,0,0,1,,,,0,64,0
245760,note_on,,,,,0,0,1,,,,0,66,49
245760,note_on,,,,,307,0,1,,,,0,62,49
245760,note_off,,,,,341,0,2,,,,1,33,0
245760,note_on,,,,,0,0,2,,,,1,38,36
245965,note_off,,,,,205,0,1,,,,0,62,0
245965,note_off,,,,,0,0,1,,,,0,66,0
246101,note_off,,,,,341,0,2,,,,1,38,0
246101,note_on,,,,,0,0,2,,,,1,45,36
246272,note_on,,,,,307,0,1,,,,0,57,49
246272,note_on,,,,,0,0,1,,,,0,64,49
246443,note_off,,,,,342,0,2,,,,1,45,0
246443,note_on,,,,,0,0,2,,,,1,38,36
246477,note_off,,,,,0,0,1,,,,0,64,0
246477,note_off,,,,,205,0,1,,,,0,57,0
246784,note_on,,,,,0,0,2,,,,1,33,36
246784,note_off,,,,,341,0,2,,,,1,38,0
246784,note_on,,,,,0,0,1,,,,0,62,49
246784,note_on,,,,,307,0,1,,,,0,54,49
247125,note_on,,,,,0,0,2,,,,1,38,36
247125,note_off,,,,,341,0,2,,,,1,33,0
247467,note_off,,,,,342,0,2,,,,1,38,0
247467,note_on,,,,,0,0,2,,,,1,33,36
247808,note_off,,,,,341,0,2,,,,1,33,0
247808,note_on,,,,,0,0,2,,,,1,38,36
248149,note_off,,,,,341,0,2,,,,1,38,0
248149,note_on,,,,,0,0,2,,,,1,45,36
248491,note_on,,,,,0,0,2,,,,1,38,36
248491,note_off,,,,,342,0,2,,,,1,45,0
248832,note_off,,,,,341,0,2,,,,1,38,0
248832,note_on,,,,,0,0,2,,,,1,33,8
248832,note_off,,,,,0,0,1,,,,0,62,0
248832,note_on,,,,,0,0,1,,,,0,57,34
248832,note_on,,,,,0,0,1,,,,0,66,34
248832,note_on,,,,,0,0,1,,,,0,69,34
248832,note_off,,,,,2048,0,1,,,,0,54,0
249173,note_off,,,,,341,0,2,,,,1,33,0
249173,note_on,,,,,0,0,2,,,,1,38,9
249515,note_on,,,,,0,0,2,,,,1,33,11
249515,note_off,,,,,342,0,2,,,,1,38,0
249856,note_off,,,,,341,0,2,,,,1,33,0
249856,note_off,,,,,0,0,1,,,,0,66,0
249856,note_on,,,,,0,0,2,,,,1,35,12
249856,note_off,,,,,0,0,1,,,,0,69,0
249856,note_off,,,,,1024,0,1,,,,0,57,0
249856,note_on,,,,,0,0,1,,,,0,57,38
249856,note_on,,,,,0,0,1,,,,0,64,38
249856,note_on,,,,,0,0,1,,,,0,67,38
250197,note_off,,,,,341,0,2,,,,1,35,0
250197,note_on,,,,,0,0,2,,,,1,38,14
250539,note_off,,,,,342,0,2,,,,1,38,0
250539,note_on,,,,,0,0,2,,,,1,36,15
250624,note_on,,,,,0,0,1,,,,0,66,42
250624,note_on,,,,,0,0,1,,,,0,62,42
250624,note_on,,,,,0,0,1,,,,0,57,42
250624,note_off,,,,,768,0,1,,,,0,57,0
250624,note_off,,,,,0,0,1,,,,0,64,0
250624,note_off,,,,,0,0,1,,,,0,67,0
250880,note_on,,,,,0,0,1,,,,0,57,43
250880,note_on,,,,,0,0,2,,,,1,36,17
250880,note_off,,,,,256,0,1,,,,0,57,0
250880,note_off,,,,,341,0,2,,,,1,36,0
250880,note_off,,,,,0,0,1,,,,0,62,0
250880,note_on,,,,,0,0,1,,,,0,66,43
250880,note_on,,,,,0,0,1,,,,0,62,43
250880,note_off,,,,,0,0,1,,,,0,66,0
251221,note_on,,,,,0,0,2,,,,1,38,18
251221,note_off,,,,,341,0,2,,,,1,36,0
251563,note_on,,,,,0,0,2,,,,1,36,20
251563,note_off,,,,,342,0,2,,,,1,38,0
251904,note_off,,,,,0,0,1,,,,0,66,0
251904,note_on,,,,,0,0,1,,,,0,57,59
251904,note_on,,,,,0,0,1,,,,0,66,59
251904,note_on,,,,,0,0,1,,,,0,69,59
251904,note_on,,,,,0,0,2,,,,1,33,21
251904,note_off,,,,,341,0,2,,,,1,36,0
251904,note_off,,,,,1024,0,1,,,,0,57,0
251904,note_off,,,,,0,0,1,,,,0,62,0
252245,note_on,,,,,0,0,2,,,,1,38,22
252245,note_off,,,,,341,0,2,,,,1,33,0
252587,note_off,,,,,342,0,2,,,,1,38,0
252587,note_on,,,,,0,0,2,,,,1,33,24
252928,note_off,,,,,341,0,2,,,,1,33,0
252928,note_on,,,,,0,0,2,,,,1,35,25
252928,note_on,,,,,0,0,1,,,,0,67,51
252928,note_on,,,,,0,0,1,,,,0,64,51
252928,note_on,,,,,0,0,1,,,,0,57,51
252928,note_off,,,,,0,0,1,,,,0,66,0
252928,note_off,,,,,1024,0,1,,,,0,57,0
252928,note_off,,,,,0,0,1,,,,0,69,0
253269,note_off,,,,,341,0,2,,,,1,35,0
253269,note_on,,,,,0,0,2,,,,1,38,27
253611,note_off,,,,,342,0,2,,,,1,38,0
253611,note_on,,,,,0,0,2,,,,1,36,28
253696,note_on,,,,,0,0,1,,,,0,66,55
253696,note_off,,,,,768,0,1,,,,0,57,0
253696,note_off,,,,,0,0,1,,,,0,64,0
253696,note_off,,,,,0,0,1,,,,0,67,0
253696,note_on,,,,,0,0,1,,,,0,57,55
253696,note_on,,,,,0,0,1,,,,0,62,55
253952,note_off,,,,,256,0,1,,,,0,57,0
253952,note_on,,,,,0,0,1,,,,0,57,56
253952,note_on,,,,,0,0,1,,,,0,62,56
253952,note_on,,,,,0,0,1,,,,0,66,56
253952,note_off,,,,,0,0,1,,,,0,62,0
253952,note_off,,,,,0,0,1,,,,0,66,0
253952,note_off,,,,,341,0,2,,,,1,36,0
253952,note_on,,,,,0,0,2,,,,1,36,30
254293,note_off,,,,,341,0,2,,,,1,36,0
254293,note_on,,,,,0,0,2,,,,1,38,31
254635,note_on,,,,,0,0,2,,,,1,36,33
254635,note_off,,,,,342,0,2,,,,1,38,0
254976,note_on,,,,,0,0,2,,,,1,33,34
254976,note_off,,,,,1024,0,1,,,,0,57,0
254976,note_off,,,,,0,0,1,,,,0,62,0
254976,note_off,,,,,0,0,1,,,,0,66,0
254976,note_on,,,,,0,0,1,,,,0,62,72
254976,note_on,,,,,0,0,1,,,,0,72,72
254976,note_on,,,,,0,0,1,,,,0,66,72
254976,note_off,,,,,341,0,2,,,,1,36,0
255317,note_on,,,,,0,0,2,,,,1,38,35
255317,note_off,,,,,341,0,2,,,,1,33,0
255659,note_on,,,,,0,0,2,,,,1,33,37
255659,note_off,,,,,342,0,2,,,,1,38,0
256000,note_on,,,,,0,0,2,,,,1,35,38
256000,note_off,,,,,0,0,1,,,,0,72,0
256000,note_on,,,,,0,0,1,,,,0,62,64
256000,note_on,,,,,0,0,1,,,,0,67,64
256000,note_on,,,,,0,0,1,,,,0,71,64
256000,note_off,,,,,341,0,2,,,,1,33,0
256000,note_off,,,,,0,0,1,,,,0,66,0
256000,note_off,,,,,1024,0,1,,,,0,62,0
256341,note_on,,,,,0,0,2,,,,1,38,40
256341,note_off,,,,,341,0,2,,,,1,35,0
256683,note_off,,,,,342,0,2,,,,1,38,0
256683,note_on,,,,,0,0,2,,,,1,36,41
256768,note_on,,,,,0,0,1,,,,0,66,68
256768,note_on,,,,,0,0,1,,,,0,69,68
256768,note_on,,,,,0,0,1,,,,0,62,68
256768,note_off,,,,,0,0,1,,,,0,71,0
256768,note_off,,,,,0,0,1,,,,0,67,0
256768,note_off,,,,,768,0,1,,,,0,62,0
257024,note_on,,,,,0,0,1,,,,0,66,69
257024,note_on,,,,,0,0,2,,,,1,36,43
257024,note_off,,,,,341,0,2,,,,1,36,0
257024,note_off,,,,,256,0,1,,,,0,62,0
257024,note_off,,,,,0,0,1,,,,0,66,0
257024,note_off,,,,,0,0,1,,,,0,69,0
257024,note_on,,,,,0,0,1,,,,0,62,69
257024,note_on,,,,,0,0,1,,,,0,69,69
257365,note_off,,,,,341,0,2,,,,1,36,0
257365,note_on,,,,,0,0,2,,,,1,38,44
257707,note_on,,,,,0,0,2,,,,1,36,46
257707,note_off,,,,,342,0,2,,,,1,38,0
258048,note_off,,,,,0,0,1,,,,0,69,0
258048,note_on,,,,,0,0,2,,,,1,38,75
258048,note_off,,,,,1024,0,1,,,,0,62,0
258048,note_off,,,,,0,0,1,,,,0,66,0
258048,note_on,,,,,0,0,1,,,,0,72,110
258048,note_on,,,,,0,0,1,,,,0,76,110
258048,note_on,,,,,0,0,1,,,,0,62,110
258048,note_off,,,,,341,0,2,,,,1,36,0
258389,note_on,,,,,0,0,2,,,,1,50,75
258389,note_off,,,,,341,0,2,,,,1,38,0
258731,note_off,,,,,342,0,2,,,,1,50,0
258731,note_on,,,,,0,0,2,,,,1,38,75
259072,note_on,,,,,0,0,1,,,,0,71,88
259072,note_off,,,,,341,0,2,,,,1,38,0
259072,note_on,,,,,0,0,2,,,,1,40,75
259072,note_off,,,,,1024,0,1,,,,0,62,0
259072,note_off,,,,,0,0,1,,,,0,72,0
259072,note_off,,,,,0,0,1,,,,0,76,0
259072,note_on,,,,,0,0,1,,,,0,62,88
259072,note_on,,,,,0,0,1,,,,0,74,88
259413,note_off,,,,,341,0,2,,,,1,40,0
259413,note_on,,,,,0,0,2,,,,1,50,75
259755,note_off,,,,,342,0,2,,,,1,50,0
259755,note_on,,,,,0,0,2,,,,1,42,75
259840,note_off,,,,,768,0,1,,,,0,62,0
259840,note_off,,,,,0,0,1,,,,0,71,0
259840,note_off,,,,,0,0,1,,,,0,74,0
259840,note_on,,,,,0,0,1,,,,0,62,88
259840,note_on,,,,,0,0,1,,,,0,69,88
259840,note_on,,,,,0,0,1,,,,0,72,88
260096,note_off,,,,,341,0,2,,,,1,42,0
260096,note_on,,,,,0,0,2,,,,1,42,75
260096,note_on,,,,,0,0,1,,,,0,72,88
260096,note_off,,,,,256,0,1,,,,0,62,0
260096,note_off,,,,,0,0,1,,,,0,69,0
260096,note_off,,,,,0,0,1,,,,0,72,0
260096,note_on,,,,,0,0,1,,,,0,62,88
260096,note_on,,,,,0,0,1,,,,0,69,88
260437,note_off,,,,,341,0,2,,,,1,42,0
260437,note_on,,,,,0,0,2,,,,1,50,75
260779,note_on,,,,,0,0,2,,,,1,42,75
260779,note_off,,,,,342,0,2,,,,1,50,0
260950,note_on,,,,,854,0,1,,,,0,57,110
261035,note_on,,,,,85,0,1,,,,0,62,110
261120,note_on,,,,,0,0,2,,,,1,42,36
261120,note_off,,,,,341,0,2,,,,1,42,0
261120,note_on,,,,,0,0,1,,,,0,72,61
261120,note_off,,,,,0,0,1,,,,0,69,0
261120,note_off,,,,,0,0,1,,,,0,72,0
261120,note_off,,,,,85,0,1,,,,0,62,0
261461,note_off,,,,,341,0,2,,,,1,42,0
261461,note_on,,,,,0,0,2,,,,1,50,36
261803,note_off,,,,,342,0,2,,,,1,50,0
261803,note_on,,,,,0,0,2,,,,1,42,36
262144,note_on,,,,,0,0,2,,,,1,50,36
262144,note_off,,,,,341,0,2,,,,1,42,0
262144,note_on,,,,,0,0,1,,,,0,59,49
262144,note_off,,,,,0,0,1,,,,0,72,0
262144,note_on,,,,,0,0,1,,,,0,62,49
262144,note_off,,,,,0,0,1,,,,0,62,0
262144,note_off,,,,,1024,0,1,,,,0,57,0
262144,note_on,,,,,0,0,1,,,,0,71,49
262485,note_off,,,,,341,0,2,,,,1,50,0
262485,note_on,,,,,0,0,2,,,,1,42,36
262827,note_on,,,,,0,0,2,,,,1,50,36
262827,note_off,,,,,342,0,2,,,,1,42,0
262912,note_on,,,,,0,0,1,,,,0,69,49
262912,note_on,,,,,0,0,1,,,,0,62,49
262912,note_on,,,,,0,0,1,,,,0,60,49
262912,note_off,,,,,0,0,1,,,,0,71,0
262912,note_off,,,,,0,0,1,,,,0,62,0
262912,note_off,,,,,768,0,1,,,,0,59,0
263168,note_off,,,,,341,0,2,,,,1,50,0
263168,note_on,,,,,0,0,1,,,,0,60,49
263168,note_off,,,,,0,0,1,,,,0,69,0
263168,note_off,,,,,0,0,1,,,,0,62,0
263168,note_off,,,,,256,0,1,,,,0,60,0
263168,note_on,,,,,0,0,2,,,,1,42,36
263168,note_on,,,,,0,0,1,,,,0,62,49
263168,note_on,,,,,0,0,1,,,,0,69,49
263509,note_off,,,,,341,0,2,,,,1,42,0
263509,note_on,,,,,0,0,2,,,,1,50,36
263851,note_off,,,,,342,0,2,,,,1,50,0
263851,note_on,,,,,0,0,2,,,,1,42,36
264192,note_on,,,,,0,0,2,,,,1,50,36
264192,note_off,,,,,341,0,2,,,,1,42,0
264533,note_on,,,,,0,0,2,,,,1,42,36
264533,note_off,,,,,341,0,2,,,,1,50,0
264875,note_off,,,,,342,0,2,,,,1,42,0
264875,note_on,,,,,0,0,2,,,,1,50,36
265216,note_off,,,,,341,0,2,,,,1,50,0
265216,note_on,,,,,0,0,2,,,,1,42,36
265557,note_on,,,,,0,0,2,,,,1,50,36
265557,note_off,,,,,341,0,2,,,,1,42,0
265899,note_off,,,,,342,0,2,,,,1,50,0
265899,note_on,,,,,0,0,2,,,,1,42,36
266240,note_off,,,,,341,0,2,,,,1,42,0
266240,note_on,,,,,0,0,2,,,,1,50,36
266581,note_off,,,,,341,0,2,,,,1,50,0
266581,note_on,,,,,0,0,2,,,,1,42,36
266923,note_on,,,,,0,0,2,,,,1,50,36
266923,note_off,,,,,342,0,2,,,,1,42,0
267264,note_on,,,,,0,0,2,,,,1,43,64
267264,note_off,,,,,0,0,1,,,,0,62,0
267264,note_off,,,,,0,0,1,,,,0,69,0
267264,note_on,,,,,0,0,1,,,,0,46,49
267264,note_on,,,,,0,0,1,,,,0,67,49
267264,note_off,,,,,341,0,2,,,,1,50,0
267264,note_off,,,,,4096,0,1,,,,0,60,0
267605,note_off,,,,,341,0,1,,,,0,46,0
267605,note_off,,,,,0,0,1,,,,0,67,0
267605,note_on,,,,,0,0,1,,,,0,50,49
267605,note_on,,,,,0,0,1,,,,0,62,49
267947,note_off,,,,,342,0,1,,,,0,50,0
267947,note_off,,,,,0,0,1,,,,0,62,0
267947,note_on,,,,,0,0,1,,,,0,58,49
267947,note_on,,,,,0,0,1,,,,0,55,49
268288,note_off,,,,,341,0,1,,,,0,55,0
268288,note_on,,,,,0,0,1,,,,0,46,49
268288,note_on,,,,,0,0,1,,,,0,67,49
268288,note_off,,,,,0,0,1,,,,0,58,0
268629,note_off,,,,,341,0,1,,,,0,46,0
268629,note_off,,,,,0,0,1,,,,0,67,0
268629,note_on,,,,,0,0,1,,,,0,50,49
268629,note_on,,,,,0,0,1,,,,0,62,49
268971,note_off,,,,,342,0,1,,,,0,50,0
268971,note_off,,,,,0,0,1,,,,0,62,0
268971,note_on,,,,,0,0,1,,,,0,55,49
268971,note_on,,,,,0,0,1,,,,0,58,49
269312,note_off,,,,,341,0,1,,,,0,55,0
269312,note_off,,,,,0,0,1,,,,0,58,0
269312,note_on,,,,,0,0,1,,,,0,45,49
269312,note_on,,,,,0,0,1,,,,0,66,49
269653,note_on,,,,,0,0,1,,,,0,62,49
269653,note_on,,,,,0,0,1,,,,0,50,49
269653,note_off,,,,,0,0,1,,,,0,66,0
269653,note_off,,,,,341,0,1,,,,0,45,0
269995,note_off,,,,,342,0,1,,,,0,50,0
269995,note_off,,,,,0,0,1,,,,0,62,0
269995,note_on,,,,,0,0,1,,,,0,54,49
269995,note_on,,,,,0,0,1,,,,0,57,49
270336,note_off,,,,,341,0,1,,,,0,54,0
270336,note_off,,,,,0,0,1,,,,0,57,0
270336,note_on,,,,,0,0,1,,,,0,48,49
270336,note_on,,,,,0,0,1,,,,0,69,49
270336,note_on,,,,,0,0,2,,,,1,43,64
270336,note_off,,,,,3072,0,2,,,,1,43,0
270677,note_on,,,,,0,0,1,,,,0,50,49
270677,note_off,,,,,0,0,1,,,,0,69,0
270677,note_off,,,,,341,0,1,,,,0,48,0
270677,note_on,,,,,0,0,1,,,,0,62,49
271019,note_off,,,,,342,0,1,,,,0,50,0
271019,note_off,,,,,0,0,1,,,,0,62,0
271019,note_on,,,,,0,0,1,,,,0,57,49
271019,note_on,,,,,0,0,1,,,,0,60,49
271360,note_on,,,,,0,0,1,,,,0,48,49
271360,note_on,,,,,0,0,1,,,,0,69,49
271360,note_off,,,,,341,0,1,,,,0,57,0
271360,note_off,,,,,0,0,1,,,,0,60,0
271701,note_off,,,,,0,0,1,,,,0,69,0
271701,note_on,,,,,0,0,1,,,,0,50,49
271701,note_on,,,,,0,0,1,,,,0,62,49
271701,note_off,,,,,341,0,1,,,,0,48,0
272043,note_off,,,,,342,0,1,,,,0,50,0
272043,note_off,,,,,0,0,1,,,,0,62,0
272043,note_on,,,,,0,0,1,,,,0,57,49
272043,note_on,,,,,0,0,1,,,,0,60,49
272384,note_on,,,,,0,0,1,,,,0,67,49
272384,note_on,,,,,0,0,1,,,,0,46,49
272384,note_off,,,,,341,0,1,,,,0,57,0
272384,note_off,,,,,0,0,1,,,,0,60,0
272725,note_off,,,,,341,0,1,,,,0,46,0
272725,note_off,,,,,0,0,1,,,,0,67,0
272725,note_on,,,,,0,0,1,,,,0,50,49
272725,note_on,,,,,0,0,1,,,,0,62,49
273067,note_off,,,,,342,0,1,,,,0,50,0
273067,note_off,,,,,0,0,1,,,,0,62,0
273067,note_on,,,,,0,0,1,,,,0,55,49
273067,note_on,,,,,0,0,1,,,,0,58,49
273408,note_off,,,,,3072,0,2,,,,1,43,0
273408,note_on,,,,,0,0,1,,,,0,67,49
273408,note_off,,,,,341,0,1,,,,0,55,0
273408,note_off,,,,,0,0,1,,,,0,58,0
273408,note_on,,,,,0,0,1,,,,0,46,49
273749,note_off,,,,,341,0,1,,,,0,46,0
273749,note_off,,,,,0,0,1,,,,0,67,0
273749,note_on,,,,,0,0,1,,,,0,50,52
273749,note_on,,,,,0,0,1,,,,0,62,52
274091,note_on,,,,,0,0,1,,,,0,58,55
274091,note_off,,,,,0,0,1,,,,0,62,0
274091,note_off,,,,,342,0,1,,,,0,50,0
274091,note_on,,,,,0,0,1,,,,0,55,55
274432,note_off,,,,,341,0,1,,,,0,55,0
274432,note_off,,,,,0,0,1,,,,0,58,0
274432,note_on,,,,,0,0,1,,,,0,62,58
274432,note_on,,,,,0,0,1,,,,0,66,58
274432,note_on,,,,,0,0,1,,,,0,69,58
274432,note_on,,,,,1024,0,2,,,,1,50,73
274432,note_on,,,,,0,0,2,,,,1,54,73
274432,note_on,,,,,0,0,2,,,,1,57,73
274944,note_off,,,,,512,0,2,,,,1,50,0
274944,note_off,,,,,0,0,2,,,,1,54,0
274944,note_off,,,,,0,0,2,,,,1,57,0
274944,note_on,,,,,0,0,2,,,,1,50,77
274944,note_on,,,,,0,0,2,,,,1,55,77
274944,note_on,,,,,0,0,2,,,,1,58,77
274944,note_off,,,,,0,0,1,,,,0,66,0
274944,note_on,,,,,0,0,1,,,,0,70,62
274944,note_on,,,,,0,0,1,,,,0,67,62
274944,note_on,,,,,0,0,1,,,,0,62,62
274944,note_off,,,,,0,0,1,,,,0,69,0
274944,note_off,,,,,512,0,1,,,,0,62,0
275456,note_on,,,,,0,0,2,,,,1,60,81
275456,note_on,,,,,0,0,2,,,,1,57,81
275456,note_on,,,,,0,0,2,,,,1,50,81
275456,note_off,,,,,0,0,2,,,,1,58,0
275456,note_off,,,,,0,0,2,,,,1,55,0
275456,note_on,,,,,0,0,1,,,,0,72,66
275456,note_off,,,,,512,0,1,,,,0,62,0
275456,note_off,,,,,0,0,1,,,,0,67,0
275456,note_off,,,,,0,0,1,,,,0,70,0
275456,note_on,,,,,0,0,1,,,,0,62,66
275456,note_off,,,,,512,0,2,,,,1,50,0
275456,note_on,,,,,0,0,1,,,,0,69,66
276224,note_on,,,,,0,0,2,,,,1,55,68
276224,note_off,,,,,768,0,2,,,,1,50,0
276224,note_on,,,,,0,0,2,,,,1,50,68
276224,note_on,,,,,0,0,2,,,,1,58,68
276224,note_off,,,,,0,0,2,,,,1,60,0
276224,note_off,,,,,0,0,1,,,,0,69,0
276224,note_off,,,,,0,0,1,,,,0,72,0
276224,note_on,,,,,0,0,1,,,,0,62,53
276224,note_on,,,,,0,0,1,,,,0,67,53
276224,note_off,,,,,0,0,2,,,,1,57,0
276224,note_on,,,,,0,0,1,,,,0,70,53
276224,note_off,,,,,768,0,1,,,,0,62,0
276480,note_on,,,,,0,0,1,,,,0,62,51
276480,note_off,,,,,0,0,1,,,,0,70,0
276480,note_off,,,,,0,0,1,,,,0,67,0
276480,note_off,,,,,256,0,1,,,,0,62,0
276480,note_on,,,,,0,0,1,,,,0,70,51
276480,note_on,,,,,0,0,2,,,,1,58,66
276480,note_on,,,,,0,0,2,,,,1,55,66
276480,note_on,,,,,0,0,2,,,,1,50,66
276480,note_off,,,,,0,0,2,,,,1,58,0
276480,note_off,,,,,0,0,2,,,,1,55,0
276480,note_off,,,,,256,0,2,,,,1,50,0
276480,note_on,,,,,0,0,1,,,,0,67,51
277504,note_off,,,,,1024,0,1,,,,0,62,0
277504,note_off,,,,,0,0,1,,,,0,67,0
277504,note_off,,,,,0,0,1,,,,0,70,0
277504,note_on,,,,,0,0,1,,,,0,62,43
277504,note_off,,,,,1024,0,2,,,,1,50,0
277504,note_on,,,,,0,0,1,,,,0,69,43
277504,note_on,,,,,0,0,2,,,,1,57,58
277504,note_on,,,,,0,0,2,,,,1,54,58
277504,note_on,,,,,0,0,1,,,,0,66,43
277504,note_off,,,,,0,0,2,,,,1,58,0
277504,note_off,,,,,0,0,2,,,,1,55,0
277504,note_on,,,,,0,0,2,,,,1,50,58
277709,note_off,,,,,205,0,2,,,,1,50,0
277709,note_off,,,,,0,0,2,,,,1,54,0
277709,note_off,,,,,0,0,2,,,,1,57,0
277709,note_off,,,,,205,0,1,,,,0,62,0
277709,note_off,,,,,0,0,1,,,,0,66,0
277709,note_off,,,,,0,0,1,,,,0,69,0
278016,note_on,,,,,307,0,1,,,,0,62,40
278016,note_on,,,,,0,0,2,,,,1,52,55
278016,note_on,,,,,0,0,1,,,,0,67,40
278016,note_on,,,,,0,0,2,,,,1,55,55
278016,note_on,,,,,307,0,2,,,,1,50,55
278016,note_on,,,,,0,0,1,,,,0,64,40
278221,note_off,,,,,205,0,2,,,,1,50,0
278221,note_off,,,,,0,0,2,,,,1,55,0
278221,note_off,,,,,0,0,2,,,,1,52,0
278221,note_off,,,,,0,0,1,,,,0,64,0
278221,note_off,,,,,0,0,1,,,,0,67,0
278221,note_off,,,,,205,0,1,,,,0,62,0
278528,note_on,,,,,307,0,1,,,,0,62,36
278528,note_on,,,,,0,0,1,,,,0,66,36
278528,note_on,,,,,0,0,1,,,,0,69,36
278528,note_on,,,,,0,0,2,,,,1,57,51
278528,note_on,,,,,0,0,2,,,,1,54,51
278528,note_on,,,,,307,0,2,,,,1,50,51
279552,note_off,,,,,0,0,2,,,,1,57,0
279552,note_off,,,,,0,0,2,,,,1,54,0
279552,note_off,,,,,1024,0,2,,,,1,50,0
279552,note_on,,,,,0,0,2,,,,1,43,64
279552,note_on,,,,,0,0,2,,,,1,74,64
279552,note_on,,,,,0,0,1,,,,0,67,49
279552,note_on,,,,,0,0,1,,,,0,47,49
279552,note_off,,,,,0,0,1,,,,0,69,0
279552,note_off,,,,,0,0,1,,,,0,66,0
279552,note_off,,,,,1024,0,1,,,,0,62,0
279893,note_off,,,,,0,0,1,,,,0,67,0
279893,note_off,,,,,341,0,1,,,,0,47,0
279893,note_on,,,,,0,0,1,,,,0,50,49
279893,note_on,,,,,0,0,1,,,,0,62,49
280235,note_off,,,,,342,0,1,,,,0,50,0
280235,note_off,,,,,0,0,1,,,,0,62,0
280235,note_on,,,,,0,0,1,,,,0,55,49
280235,note_on,,,,,0,0,1,,,,0,71,49
280576,note_on,,,,,0,0,1,,,,0,47,49
280576,note_off,,,,,341,0,1,,,,0,55,0
280576,note_off,,,,,0,0,1,,,,0,71,0
280576,note_on,,,,,0,0,1,,,,0,67,49
280917,note_off,,,,,341,0,1,,,,0,47,0
280917,note_off,,,,,0,0,1,,,,0,67,0
280917,note_on,,,,,0,0,1,,,,0,50,49
280917,note_on,,,,,0,0,1,,,,0,62,49
281259,note_off,,,,,0,0,1,,,,0,62,0
281259,note_on,,,,,0,0,1,,,,0,55,49
281259,note_on,,,,,0,0,1,,,,0,71,49
281259,note_off,,,,,342,0,1,,,,0,50,0
281600,note_on,,,,,0,0,1,,,,0,66,49
281600,note_on,,,,,0,0,1,,,,0,45,49
281600,note_off,,,,,0,0,1,,,,0,71,0
281600,note_off,,,,,341,0,1,,,,0,55,0
281941,note_off,,,,,341,0,1,,,,0,45,0
281941,note_on,,,,,0,0,1,,,,0,50,49
281941,note_off,,,,,0,0,1,,,,0,66,0
281941,note_on,,,,,0,0,1,,,,0,62,49
282283,note_off,,,,,342,0,1,,,,0,50,0
282283,note_off,,,,,0,0,1,,,,0,62,0
282283,note_on,,,,,0,0,1,,,,0,54,49
282283,note_on,,,,,0,0,1,,,,0,69,49
282624,note_off,,,,,0,0,2,,,,1,74,0
282624,note_on,,,,,0,0,1,,,,0,69,49
282624,note_on,,,,,0,0,1,,,,0,48,49
282624,note_off,,,,,0,0,1,,,,0,69,0
282624,note_off,,,,,3072,0,2,,,,1,43,0
282624,note_on,,,,,0,0,2,,,,1,74,64
282624,note_on,,,,,0,0,2,,,,1,43,64
282624,note_off,,,,,341,0,1,,,,0,54,0
282965,note_off,,,,,341,0,1,,,,0,48,0
282965,note_off,,,,,0,0,1,,,,0,69,0
282965,note_on,,,,,0,0,1,,,,0,50,49
282965,note_on,,,,,0,0,1,,,,0,62,49
283307,note_off,,,,,342,0,1,,,,0,50,0
283307,note_off,,,,,0,0,1,,,,0,62,0
283307,note_on,,,,,0,0,1,,,,0,57,49
283307,note_on,,,,,0,0,1,,,,0,72,49
283648,note_on,,,,,0,0,1,,,,0,69,49
283648,note_on,,,,,0,0,1,,,,0,48,49
283648,note_off,,,,,0,0,1,,,,0,72,0
283648,note_off,,,,,341,0,1,,,,0,57,0
283989,note_on,,,,,0,0,1,,,,0,62,49
283989,note_on,,,,,0,0,1,,,,0,50,49
283989,note_off,,,,,341,0,1,,,,0,48,0
283989,note_off,,,,,0,0,1,,,,0,69,0
284331,note_off,,,,,342,0,1,,,,0,50,0
284331,note_off,,,,,0,0,1,,,,0,62,0
284331,note_on,,,,,0,0,1,,,,0,57,49
284331,note_on,,,,,0,0,1,,,,0,72,49
284672,note_on,,,,,0,0,1,,,,0,47,49
284672,note_on,,,,,0,0,1,,,,0,67,49
284672,note_off,,,,,341,0,1,,,,0,57,0
284672,note_off,,,,,0,0,1,,,,0,72,0
285013,note_off,,,,,341,0,1,,,,0,47,0
285013,note_off,,,,,0,0,1,,,,0,67,0
285013,note_on,,,,,0,0,1,,,,0,50,49
285013,note_on,,,,,0,0,1,,,,0,62,49
285355,note_off,,,,,342,0,1,,,,0,50,0
285355,note_off,,,,,0,0,1,,,,0,62,0
285355,note_on,,,,,0,0,1,,,,0,55,49
285355,note_on,,,,,0,0,1,,,,0,71,49
285696,note_off,,,,,0,0,1,,,,0,71,0
285696,note_off,,,,,341,0,1,,,,0,55,0
285696,note_on,,,,,0,0,2,,,,1,50,64
285696,note_on,,,,,0,0,2,,,,1,47,64
285696,note_on,,,,,0,0,2,,,,1,43,64
285696,note_off,,,,,0,0,2,,,,1,74,0
285696,note_on,,,,,0,0,1,,,,0,62,49
285696,note_off,,,,,3072,0,2,,,,1,43,0
286208,note_off,,,,,512,0,1,,,,0,62,0
286208,note_on,,,,,0,0,1,,,,0,74,56
286720,note_on,,,,,0,0,2,,,,1,48,77
286720,note_on,,,,,0,0,2,,,,1,43,77
286720,note_off,,,,,0,0,2,,,,1,50,0
286720,note_off,,,,,0,0,2,,,,1,47,0
286720,note_off,,,,,1024,0,2,,,,1,43,0
286720,note_on,,,,,0,0,1,,,,0,76,62
286720,note_on,,,,,0,0,1,,,,0,64,62
286720,note_off,,,,,512,0,1,,,,0,74,0
286720,note_on,,,,,0,0,2,,,,1,52,77
287232,note_on,,,,,0,0,2,,,,1,43,84
287232,note_on,,,,,0,0,2,,,,1,45,84
287232,note_off,,,,,512,0,1,,,,0,64,0
287232,note_off,,,,,0,0,1,,,,0,76,0
287232,note_on,,,,,0,0,1,,,,0,66,69
287232,note_on,,,,,0,0,1,,,,0,78,69
287232,note_off,,,,,0,0,2,,,,1,48,0
287232,note_off,,,,,0,0,2,,,,1,52,0
287232,note_on,,,,,0,0,2,,,,1,54,84
287232,note_off,,,,,512,0,2,,,,1,43,0
287744,note_on,,,,,0,0,1,,,,0,79,76
287744,note_off,,,,,512,0,2,,,,1,43,0
287744,note_off,,,,,0,0,2,,,,1,45,0
287744,note_off,,,,,0,0,2,,,,1,54,0
287744,note_on,,,,,0,0,2,,,,1,43,91
287744,note_on,,,,,0,0,2,,,,1,47,91
287744,note_on,,,,,0,0,2,,,,1,55,91
287744,note_off,,,,,512,0,1,,,,0,66,0
287744,note_off,,,,,0,0,1,,,,0,78,0
287744,note_on,,,,,0,0,1,,,,0,67,76
288512,note_off,,,,,768,0,1,,,,0,67,0
288512,note_off,,,,,768,0,2,,,,1,43,0
288512,note_on,,,,,0,0,1,,,,0,62,55
288512,note_on,,,,,0,0,1,,,,0,67,55
288512,note_on,,,,,0,0,1,,,,0,71,55
288512,note_off,,,,,0,0,2,,,,1,47,0
288512,note_on,,,,,0,0,2,,,,1,59,70
288512,note_on,,,,,0,0,2,,,,1,55,70
288512,note_on,,,,,0,0,2,,,,1,50,70
288512,note_off,,,,,0,0,2,,,,1,55,0
288512,note_off,,,,,0,0,1,,,,0,79,0
288768,note_off,,,,,256,0,2,,,,1,50,0
288768,note_on,,,,,0,0,2,,,,1,62,67
288768,note_on,,,,,0,0,2,,,,1,59,67
288768,note_on,,,,,0,0,2,,,,1,50,67
288768,note_off,,,,,0,0,2,,,,1,59,0
288768,note_off,,,,,0,0,2,,,,1,55,0
288768,note_off,,,,,0,0,1,,,,0,67,0
288768,note_off,,,,,256,0,1,,,,0,62,0
288768,note_on,,,,,0,0,1,,,,0,74,52
288768,note_on,,,,,0,0,1,,,,0,71,52
288768,note_on,,,,,0,0,1,,,,0,62,52
288768,note_off,,,,,0,0,1,,,,0,71,0
289792,note_on,,,,,0,0,1,,,,0,72,40
289792,note_on,,,,,0,0,1,,,,0,66,40
289792,note_on,,,,,0,0,1,,,,0,62,40
289792,note_off,,,,,0,0,1,,,,0,71,0
289792,note_off,,,,,1024,0,1,,,,0,62,0
289792,note_off,,,,,1024,0,2,,,,1,50,0
289792,note_off,,,,,0,0,2,,,,1,59,0
289792,note_off,,,,,0,0,2,,,,1,62,0
289792,note_on,,,,,0,0,2,,,,1,50,55
289792,note_on,,,,,0,0,2,,,,1,57,55
289792,note_off,,,,,0,0,1,,,,0,74,0
289792,note_on,,,,,0,0,2,,,,1,60,55
290560,note_off,,,,,768,0,2,,,,1,50,0
290560,note_on,,,,,0,0,1,,,,0,71,32
290560,note_on,,,,,0,0,1,,,,0,62,32
290560,note_off,,,,,0,0,1,,,,0,72,0
290560,note_off,,,,,0,0,1,,,,0,66,0
290560,note_off,,,,,768,0,1,,,,0,62,0
290560,note_on,,,,,0,0,1,,,,0,67,32
290560,note_off,,,,,0,0,2,,,,1,57,0
290560,note_on,,,,,0,0,2,,,,1,59,47
290560,note_on,,,,,0,0,2,,,,1,55,47
290560,note_off,,,,,0,0,2,,,,1,60,0
290816,note_on,,,,,0,0,2,,,,1,59,44
290816,note_on,,,,,0,0,1,,,,0,71,29
290816,note_on,,,,,0,0,1,,,,0,67,29
290816,note_on,,,,,0,0,1,,,,0,62,29
290816,note_on,,,,,0,0,2,,,,1,55,44
290816,note_off,,,,,0,0,1,,,,0,67,0
290816,note_off,,,,,256,0,1,,,,0,62,0
290816,note_off,,,,,0,0,1,,,,0,71,0
290816,note_off,,,,,0,0,2,,,,1,59,0
290816,note_off,,,,,256,0,2,,,,1,55,0
291840,note_on,,,,,0,0,1,,,,0,69,61
291840,note_on,,,,,0,0,1,,,,0,66,61
291840,note_on,,,,,0,0,1,,,,0,57,61
291840,note_off,,,,,0,0,1,,,,0,67,0
291840,note_off,,,,,0,0,1,,,,0,71,0
291840,note_off,,,,,0,0,2,,,,1,59,0
291840,note_on,,,,,0,0,2,,,,1,38,36
291840,set_tempo,,,,,64512,1,0,,705882,,,,
291840,note_off,,,,,1024,0,2,,,,1,55,0
291840,note_off,,,,,1024,0,1,,,,0,62,0
292181,note_off,,,,,341,0,2,,,,1,38,0
292181,note_on,,,,,0,0,2,,,,1,45,36
292523,note_off,,,,,342,0,2,,,,1,45,0
292523,note_on,,,,,0,0,2,,,,1,38,36
292864,note_off,,,,,341,0,2,,,,1,38,0
292864,note_on,,,,,0,0,2,,,,1,33,36
292864,note_on,,,,,0,0,1,,,,0,67,49
292864,note_off,,,,,1024,0,1,,,,0,57,0
292864,note_on,,,,,0,0,1,,,,0,64,49
292864,note_on,,,,,0,0,1,,,,0,57,49
292864,note_off,,,,,0,0,1,,,,0,69,0
292864,note_off,,,,,0,0,1,,,,0,66,0
293205,note_on,,,,,0,0,2,,,,1,38,36
293205,note_off,,,,,341,0,2,,,,1,33,0
293547,note_on,,,,,0,0,2,,,,1,33,36
293547,note_off,,,,,342,0,2,,,,1,38,0
293632,note_off,,,,,0,0,1,,,,0,64,0
293632,note_off,,,,,0,0,1,,,,0,67,0
293632,note_on,,,,,0,0,1,,,,0,57,49
293632,note_on,,,,,0,0,1,,,,0,62,49
293632,note_on,,,,,0,0,1,,,,0,66,49
293632,note_off,,,,,768,0,1,,,,0,57,0
293888,note_off,,,,,0,0,1,,,,0,66,0
293888,note_off,,,,,0,0,1,,,,0,62,0
293888,note_off,,,,,256,0,1,,,,0,57,0
293888,note_on,,,,,0,0,1,,,,0,62,49
293888,note_on,,,,,0,0,1,,,,0,66,49
293888,note_on,,,,,0,0,2,,,,1,38,36
293888,note_off,,,,,341,0,2,,,,1,33,0
293888,note_on,,,,,0,0,1,,,,0,57,49
294229,note_off,,,,,341,0,2,,,,1,38,0
294229,note_on,,,,,0,0,2,,,,1,45,36
294571,note_on,,,,,0,0,2,,,,1,38,36
294571,note_off,,,,,342,0,2,,,,1,45,0
294912,note_on,,,,,0,0,2,,,,1,33,36
294912,note_off,,,,,341,0,2,,,,1,38,0
294912,note_off,,,,,0,0,1,,,,0,66,0
294912,note_off,,,,,0,0,1,,,,0,62,0
294912,note_off,,,,,1024,0,1,,,,0,57,0
294912,note_on,,,,,0,0,1,,,,0,66,49
294912,note_on,,,,,0,0,1,,,,0,74,49
295253,note_on,,,,,0,0,2,,,,1,38,36
295253,note_off,,,,,341,0,2,,,,1,33,0
295595,note_on,,,,,0,0,2,,,,1,33,36
295595,note_off,,,,,342,0,2,,,,1,38,0
295680,note_on,,,,,0,0,1,,,,0,69,49
295680,note_off,,,,,0,0,1,,,,0,74,0
295680,note_off,,,,,768,0,1,,,,0,66,0
295680,note_on,,,,,0,0,1,,,,0,76,49
295936,note_on,,,,,0,0,2,,,,1,37,36
295936,note_off,,,,,341,0,2,,,,1,33,0
295936,note_off,,,,,0,0,1,,,,0,76,0
295936,note_on,,,,,0,0,1,,,,0,74,49
295936,note_off,,,,,256,0,1,,,,0,69,0
295936,note_on,,,,,0,0,1,,,,0,66,49
296277,note_off,,,,,341,0,2,,,,1,37,0
296277,note_on,,,,,0,0,2,,,,1,45,36
296619,note_off,,,,,342,0,2,,,,1,45,0
296619,note_on,,,,,0,0,2,,,,1,37,36
296960,note_on,,,,,0,0,2,,,,1,33,36
296960,note_off,,,,,341,0,2,,,,1,37,0
296960,note_off,,,,,0,0,1,,,,0,74,0
296960,note_on,,,,,0,0,1,,,,0,69,49
296960,note_on,,,,,0,0,1,,,,0,76,49
296960,note_off,,,,,1024,0,1,,,,0,66,0
297301,note_off,,,,,341,0,2,,,,1,33,0
297301,note_on,,,,,0,0,2,,,,1,37,36
297472,note_off,,,,,0,0,1,,,,0,76,0
297472,note_off,,,,,512,0,1,,,,0,69,0
297643,note_on,,,,,0,0,2,,,,1,33,36
297643,note_off,,,,,342,0,2,,,,1,37,0
297984,note_on,,,,,0,0,2,,,,1,38,36
297984,note_off,,,,,341,0,2,,,,1,33,0
297984,note_on,,,,,0,0,1,,,,0,67,61
297984,note_on,,,,,512,0,1,,,,0,57,61
297984,note_on,,,,,0,0,1,,,,0,71,61
298325,note_off,,,,,341,0,2,,,,1,38,0
298325,note_on,,,,,0,0,2,,,,1,45,36
298667,note_off,,,,,342,0,2,,,,1,45,0
298667,note_on,,,,,0,0,2,,,,1,38,36
299008,note_on,,,,,0,0,1,,,,0,66,49
299008,note_on,,,,,0,0,1,,,,0,57,49
299008,note_off,,,,,341,0,2,,,,1,38,0
299008,note_off,,,,,0,0,1,,,,0,71,0
299008,note_off,,,,,0,0,1,,,,0,67,0
299008,note_on,,,,,0,0,1,,,,0,69,49
299008,note_on,,,,,0,0,2,,,,1,33,36
299008,note_off,,,,,1024,0,1,,,,0,57,0
299349,note_on,,,,,0,0,2,,,,1,38,36
299349,note_off,,,,,341,0,2,,,,1,33,0
299691,note_on,,,,,0,0,2,,,,1,33,36
299691,note_off,,,,,342,0,2,,,,1,38,0
299776,note_off,,,,,0,0,1,,,,0,66,0
299776,note_off,,,,,768,0,1,,,,0,57,0
299776,note_on,,,,,0,0,1,,,,0,67,49
299776,note_on,,,,,0,0,1,,,,0,64,49
299776,note_on,,,,,0,0,1,,,,0,57,49
299776,note_off,,,,,0,0,1,,,,0,69,0
300032,note_off,,,,,0,0,1,,,,0,64,0
300032,note_off,,,,,0,0,1,,,,0,67,0
300032,note_on,,,,,0,0,2,,,,1,38,36
300032,note_on,,,,,0,0,1,,,,0,67,49
300032,note_off,,,,,341,0,2,,,,1,33,0
300032,note_off,,,,,256,0,1,,,,0,57,0
300032,note_on,,,,,0,0,1,,,,0,57,49
300032,note_on,,,,,0,0,1,,,,0,64,49
300373,note_on,,,,,0,0,2,,,,1,45,36
300373,note_off,,,,,341,0,2,,,,1,38,0
300715,note_on,,,,,0,0,2,,,,1,38,36
300715,note_off,,,,,342,0,2,,,,1,45,0
301056,note_off,,,,,1024,0,1,,,,0,57,0
301056,note_off,,,,,0,0,1,,,,0,64,0
301056,note_off,,,,,0,0,1,,,,0,67,0
301056,note_on,,,,,0,0,1,,,,0,69,49
301056,note_on,,,,,0,0,1,,,,0,76,49
301056,note_off,,,,,341,0,2,,,,1,38,0
301056,note_on,,,,,0,0,2,,,,1,33,36
301397,note_off,,,,,341,0,2,,,,1,33,0
301397,note_on,,,,,0,0,2,,,,1,37,36
301739,note_off,,,,,342,0,2,,,,1,37,0
301739,note_on,,,,,0,0,2,,,,1,33,36
301824,note_on,,,,,0,0,1,,,,0,78,49
301824,note_on,,,,,0,0,1,,,,0,74,49
301824,note_off,,,,,0,0,1,,,,0,76,0
301824,note_off,,,,,768,0,1,,,,0,69,0
302080,note_off,,,,,341,0,2,,,,1,33,0
302080,note_on,,,,,0,0,2,,,,1,37,36
302080,note_on,,,,,0,0,1,,,,0,76,49
302080,note_on,,,,,0,0,1,,,,0,69,49
302080,note_off,,,,,0,0,1,,,,0,78,0
302080,note_off,,,,,256,0,1,,,,0,74,0
302421,note_off,,,,,341,0,2,,,,1,37,0
302421,note_on,,,,,0,0,2,,,,1,45,36
302763,note_off,,,,,342,0,2,,,,1,45,0
302763,note_on,,,,,0,0,2,,,,1,37,36
303104,note_on,,,,,0,0,2,,,,1,33,36
303104,note_off,,,,,341,0,2,,,,1,37,0
303104,note_off,,,,,1024,0,1,,,,0,69,0
303104,note_off,,,,,0,0,1,,,,0,76,0
303104,note_on,,,,,0,0,1,,,,0,74,49
303104,note_on,,,,,0,0,1,,,,0,78,49
303445,note_on,,,,,0,0,2,,,,1,38,36
303445,note_off,,,,,341,0,2,,,,1,33,0
303616,note_off,,,,,512,0,1,,,,0,74,0
303616,note_off,,,,,0,0,1,,,,0,78,0
303787,note_on,,,,,0,0,2,,,,1,33,36
303787,note_off,,,,,342,0,2,,,,1,38,0
304128,note_on,,,,,0,0,1,,,,0,74,61
304128,note_off,,,,,341,0,2,,,,1,33,0
304128,note_on,,,,,0,0,2,,,,1,38,36
304128,note_on,,,,,512,0,1,,,,0,66,61
304469,note_off,,,,,341,0,2,,,,1,38,0
304469,note_on,,,,,0,0,2,,,,1,45,36
304811,note_on,,,,,0,0,2,,,,1,38,36
304811,note_off,,,,,342,0,2,,,,1,45,0
305152,note_off,,,,,341,0,2,,,,1,38,0
305152,note_on,,,,,0,0,2,,,,1,33,36
305152,note_on,,,,,0,0,1,,,,0,73,49
305152,note_on,,,,,0,0,1,,,,0,69,49
305152,note_off,,,,,0,0,1,,,,0,74,0
305152,note_off,,,,,1024,0,1,,,,0,66,0
305357,note_off,,,,,205,0,1,,,,0,69,0
305357,note_off,,,,,0,0,1,,,,0,73,0
305493,note_off,,,,,341,0,2,,,,1,33,0
305493,note_on,,,,,0,0,2,,,,1,36,36
305664,note_on,,,,,0,0,1,,,,0,71,49
305664,note_on,,,,,307,0,1,,,,0,67,49
305835,note_on,,,,,0,0,2,,,,1,33,36
305835,note_off,,,,,342,0,2,,,,1,36,0
305869,note_off,,,,,0,0,1,,,,0,71,0
305869,note_off,,,,,205,0,1,,,,0,67,0
306176,note_on,,,,,0,0,1,,,,0,69,61
306176,note_on,,,,,0,0,1,,,,0,66,61
306176,note_off,,,,,341,0,2,,,,1,33,0
306176,note_on,,,,,0,0,2,,,,1,38,36
306176,note_on,,,,,307,0,1,,,,0,57,61
306517,note_on,,,,,0,0,2,,,,1,45,36
306517,note_off,,,,,341,0,2,,,,1,38,0
306859,note_off,,,,,342,0,2,,,,1,45,0
306859,note_on,,,,,0,0,2,,,,1,38,36
307200,note_on,,,,,0,0,1,,,,0,67,49
307200,note_on,,,,,0,0,1,,,,0,64,49
307200,note_on,,,,,0,0,1,,,,0,57,49
307200,note_off,,,,,0,0,1,,,,0,69,0
307200,note_off,,,,,341,0,2,,,,1,38,0
307200,note_off,,,,,1024,0,1,,,,0,57,0
307200,note_on,,,,,0,0,2,,,,1,33,36
307200,note_off,,,,,0,0,1,,,,0,66,0
307405,note_off,,,,,205,0,1,,,,0,57,0
307405,note_off,,,,,0,0,1,,,,0,64,0
307405,note_off,,,,,0,0,1,,,,0,67,0
307541,note_on,,,,,0,0,2,,,,1,38,36
307541,note_off,,,,,341,0,2,,,,1,33,0
307712,note_on,,,,,0,0,1,,,,0,66,49
307712,note_on,,,,,0,0,1,,,,0,62,49
307712,note_on,,,,,307,0,1,,,,0,57,49
307883,note_off,,,,,342,0,2,,,,1,38,0
307883,note_on,,,,,0,0,2,,,,1,33,36
307917,note_off,,,,,0,0,1,,,,0,62,0
307917,note_off,,,,,205,0,1,,,,0,57,0
307917,note_off,,,,,0,0,1,,,,0,66,0
308224,note_on,,,,,307,0,1,,,,0,57,61
308224,note_on,,,,,0,0,1,,,,0,67,61
308224,note_off,,,,,341,0,2,,,,1,33,0
308224,note_on,,,,,0,0,2,,,,1,37,36
308224,note_on,,,,,0,0,1,,,,0,71,61
308565,note_off,,,,,341,0,2,,,,1,37,0
308565,note_on,,,,,0,0,2,,,,1,45,36
308907,note_on,,,,,0,0,2,,,,1,37,36
308907,note_off,,,,,342,0,2,,,,1,45,0
309248,note_on,,,,,0,0,2,,,,1,33,36
309248,note_off,,,,,1024,0,1,,,,0,57,0
309248,note_on,,,,,0,0,1,,,,0,69,49
309248,note_on,,,,,0,0,1,,,,0,66,49
309248,note_on,,,,,0,0,1,,,,0,57,49
309248,note_off,,,,,0,0,1,,,,0,71,0
309248,note_off,,,,,0,0,1,,,,0,67,0
309248,note_off,,,,,341,0,2,,,,1,37,0
309453,note_off,,,,,0,0,1,,,,0,66,0
309453,note_off,,,,,205,0,1,,,,0,57,0
309453,note_off,,,,,0,0,1,,,,0,69,0
309589,note_on,,,,,0,0,2,,,,1,37,36
309589,note_off,,,,,341,0,2,,,,1,33,0
309760,note_on,,,,,0,0,1,,,,0,67,49
309760,note_on,,,,,0,0,1,,,,0,64,49
309760,note_on,,,,,307,0,1,,,,0,57,49
309931,note_on,,,,,0,0,2,,,,1,33,36
309931,note_off,,,,,342,0,2,,,,1,37,0
309965,note_off,,,,,0,0,1,,,,0,64,0
309965,note_off,,,,,205,0,1,,,,0,57,0
309965,note_off,,,,,0,0,1,,,,0,67,0
310272,note_off,,,,,341,0,2,,,,1,33,0
310272,note_on,,,,,0,0,2,,,,1,38,36
310272,note_on,,,,,0,0,1,,,,0,66,49
310272,note_on,,,,,307,0,1,,,,0,62,49
310477,note_off,,,,,205,0,1,,,,0,62,0
310477,note_off,,,,,0,0,1,,,,0,66,0
310613,note_off,,,,,341,0,2,,,,1,38,0
310613,note_on,,,,,0,0,2,,,,1,45,36
310784,note_on,,,,,0,0,1,,,,0,64,49
310784,note_on,,,,,307,0,1,,,,0,57,49
310955,note_off,,,,,342,0,2,,,,1,45,0
310955,note_on,,,,,0,0,2,,,,1,38,36
310989,note_off,,,,,0,0,1,,,,0,64,0
310989,note_off,,,,,205,0,1,,,,0,57,0
311296,note_off,,,,,341,0,2,,,,1,38,0
311296,note_on,,,,,0,0,2,,,,1,33,36
311296,note_on,,,,,0,0,1,,,,0,62,49
311296,note_on,,,,,307,0,1,,,,0,54,49
311637,note_on,,,,,0,0,2,,,,1,38,36
311637,note_off,,,,,341,0,2,,,,1,33,0
311979,note_off,,,,,342,0,2,,,,1,38,0
311979,note_on,,,,,0,0,2,,,,1,33,36
312320,note_off,,,,,341,0,2,,,,1,33,0
312320,note_on,,,,,0,0,2,,,,1,38,36
312661,note_off,,,,,341,0,2,,,,1,38,0
312661,note_on,,,,,0,0,2,,,,1,45,36
313003,note_off,,,,,342,0,2,,,,1,45,0
313003,note_on,,,,,0,0,2,,,,1,38,36
313344,note_on,,,,,0,0,1,,,,0,69,34
313344,note_on,,,,,0,0,1,,,,0,66,34
313344,note_off,,,,,0,0,1,,,,0,62,0
313344,note_off,,,,,2048,0,1,,,,0,54,0
313344,note_off,,,,,341,0,2,,,,1,38,0
313344,note_on,,,,,0,0,2,,,,1,33,8
313344,note_on,,,,,0,0,1,,,,0,57,34
313685,note_on,,,,,0,0,2,,,,1,38,9
313685,note_off,,,,,341,0,2,,,,1,33,0
314027,note_on,,,,,0,0,2,,,,1,33,11
314027,note_off,,,,,342,0,2,,,,1,38,0
314368,note_off,,,,,341,0,2,,,,1,33,0
314368,note_on,,,,,0,0,1,,,,0,67,38
314368,note_on,,,,,0,0,1,,,,0,64,38
314368,note_on,,,,,0,0,1,,,,0,57,38
314368,note_off,,,,,0,0,1,,,,0,69,0
314368,note_off,,,,,0,0,1,,,,0,66,0
314368,note_on,,,,,0,0,2,,,,1,35,12
314368,note_off,,,,,1024,0,1,,,,0,57,0
314709,note_off,,,,,341,0,2,,,,1,35,0
314709,note_on,,,,,0,0,2,,,,1,38,14
315051,note_off,,,,,342,0,2,,,,1,38,0
315051,note_on,,,,,0,0,2,,,,1,36,15
315136,note_on,,,,,0,0,1,,,,0,66,42
315136,note_on,,,,,0,0,1,,,,0,62,42
315136,note_on,,,,,0,0,1,,,,0,57,42
315136,note_off,,,,,0,0,1,,,,0,67,0
315136,note_off,,,,,0,0,1,,,,0,64,0
315136,note_off,,,,,768,0,1,,,,0,57,0
315392,note_on,,,,,0,0,2,,,,1,36,17
315392,note_off,,,,,0,0,1,,,,0,66,0
315392,note_on,,,,,0,0,1,,,,0,62,43
315392,note_on,,,,,0,0,1,,,,0,66,43
315392,note_off,,,,,256,0,1,,,,0,57,0
315392,note_off,,,,,0,0,1,,,,0,62,0
315392,note_off,,,,,341,0,2,,,,1,36,0
315392,note_on,,,,,0,0,1,,,,0,57,43
315733,note_off,,,,,341,0,2,,,,1,36,0
315733,note_on,,,,,0,0,2,,,,1,38,18
316075,note_on,,,,,0,0,2,,,,1,36,20
316075,note_off,,,,,342,0,2,,,,1,38,0
316416,note_off,,,,,1024,0,1,,,,0,57,0
316416,note_off,,,,,0,0,1,,,,0,62,0
316416,note_off,,,,,0,0,1,,,,0,66,0
316416,note_on,,,,,0,0,2,,,,1,33,21
316416,note_off,,,,,341,0,2,,,,1,36,0
316416,note_on,,,,,0,0,1,,,,0,66,59
316416,note_on,,,,,0,0,1,,,,0,69,59
316416,note_on,,,,,0,0,1,,,,0,57,59
316757,note_on,,,,,0,0,2,,,,1,38,22
316757,note_off,,,,,341,0,2,,,,1,33,0
317099,note_off,,,,,342,0,2,,,,1,38,0
317099,note_on,,,,,0,0,2,,,,1,33,24
317440,note_off,,,,,1024,0,1,,,,0,57,0
317440,note_off,,,,,0,0,1,,,,0,66,0
317440,note_off,,,,,0,0,1,,,,0,69,0
317440,note_on,,,,,0,0,1,,,,0,57,51
317440,note_on,,,,,0,0,1,,,,0,67,51
317440,note_on,,,,,0,0,1,,,,0,64,51
317440,note_off,,,,,341,0,2,,,,1,33,0
317440,note_on,,,,,0,0,2,,,,1,35,25
317781,note_off,,,,,341,0,2,,,,1,35,0
317781,note_on,,,,,0,0,2,,,,1,38,27
318123,note_off,,,,,342,0,2,,,,1,38,0
318123,note_on,,,,,0,0,2,,,,1,36,28
318208,note_on,,,,,0,0,1,,,,0,62,55
318208,note_on,,,,,0,0,1,,,,0,57,55
318208,note_on,,,,,0,0,1,,,,0,66,55
318208,note_off,,,,,768,0,1,,,,0,57,0
318208,note_off,,,,,0,0,1,,,,0,67,0
318208,note_off,,,,,0,0,1,,,,0,64,0
318464,note_on,,,,,0,0,1,,,,0,57,56
318464,note_off,,,,,341,0,2,,,,1,36,0
318464,note_on,,,,,0,0,1,,,,0,66,56
318464,note_on,,,,,0,0,1,,,,0,62,56
318464,note_off,,,,,0,0,1,,,,0,66,0
318464,note_off,,,,,0,0,1,,,,0,62,0
318464,note_off,,,,,256,0,1,,,,0,57,0
318464,note_on,,,,,0,0,2,,,,1,36,30
318805,note_off,,,,,341,0,2,,,,1,36,0
318805,note_on,,,,,0,0,2,,,,1,38,31
319147,note_off,,,,,342,0,2,,,,1,38,0
319147,note_on,,,,,0,0,2,,,,1,36,33
319488,note_on,,,,,0,0,1,,,,0,62,72
319488,note_off,,,,,0,0,1,,,,0,66,0
319488,note_off,,,,,0,0,1,,,,0,62,0
319488,note_off,,,,,1024,0,1,,,,0,57,0
319488,note_on,,,,,0,0,2,,,,1,33,34
319488,note_on,,,,,0,0,1,,,,0,72,72
319488,note_off,,,,,341,0,2,,,,1,36,0
319488,note_on,,,,,0,0,1,,,,0,66,72
319829,note_on,,,,,0,0,2,,,,1,38,35
319829,note_off,,,,,341,0,2,,,,1,33,0
320171,note_on,,,,,0,0,2,,,,1,33,37
320171,note_off,,,,,342,0,2,,,,1,38,0
320512,note_off,,,,,1024,0,1,,,,0,62,0
320512,note_off,,,,,0,0,1,,,,0,66,0
320512,note_off,,,,,341,0,2,,,,1,33,0
320512,note_off,,,,,0,0,1,,,,0,72,0
320512,note_on,,,,,0,0,1,,,,0,62,64
320512,note_on,,,,,0,0,1,,,,0,67,64
320512,note_on,,,,,0,0,1,,,,0,71,64
320512,note_on,,,,,0,0,2,,,,1,35,38
320853,note_off,,,,,341,0,2,,,,1,35,0
320853,note_on,,,,,0,0,2,,,,1,38,40
321195,note_on,,,,,0,0,2,,,,1,36,41
321195,note_off,,,,,342,0,2,,,,1,38,0
321280,note_off,,,,,0,0,1,,,,0,71,0
321280,note_on,,,,,0,0,1,,,,0,66,68
321280,note_on,,,,,0,0,1,,,,0,62,68
321280,note_off,,,,,0,0,1,,,,0,67,0
321280,note_off,,,,,768,0,1,,,,0,62,0
321280,note_on,,,,,0,0,1,,,,0,69,68
321536,note_on,,,,,0,0,2,,,,1,36,43
321536,note_on,,,,,0,0,1,,,,0,69,69
321536,note_on,,,,,0,0,1,,,,0,66,69
321536,note_on,,,,,0,0,1,,,,0,62,69
321536,note_off,,,,,0,0,1,,,,0,69,0
321536,note_off,,,,,0,0,1,,,,0,66,0
321536,note_off,,,,,341,0,2,,,,1,36,0
321536,note_off,,,,,256,0,1,,,,0,62,0
321877,note_off,,,,,341,0,2,,,,1,36,0
321877,note_on,,,,,0,0,2,,,,1,38,44
322219,note_off,,,,,342,0,2,,,,1,38,0
322219,note_on,,,,,0,0,2,,,,1,36,46
322560,note_off,,,,,0,0,1,,,,0,69,0
322560,note_off,,,,,0,0,1,,,,0,66,0
322560,note_off,,,,,1024,0,1,,,,0,62,0
322560,note_off,,,,,341,0,2,,,,1,36,0
322560,note_on,,,,,0,0,2,,,,1,38,75
322560,note_on,,,,,0,0,1,,,,0,62,110
322560,note_on,,,,,0,0,1,,,,0,76,110
322560,note_on,,,,,0,0,1,,,,0,72,110
322901,note_off,,,,,341,0,2,,,,1,38,0
322901,note_on,,,,,0,0,2,,,,1,50,75
323243,note_off,,,,,342,0,2,,,,1,50,0
323243,note_on,,,,,0,0,2,,,,1,38,75
323584,note_on,,,,,0,0,1,,,,0,74,88
323584,note_on,,,,,0,0,1,,,,0,62,88
323584,note_off,,,,,0,0,1,,,,0,76,0
323584,note_off,,,,,0,0,1,,,,0,72,0
323584,note_on,,,,,0,0,2,,,,1,40,75
323584,note_off,,,,,341,0,2,,,,1,38,0
323584,note_on,,,,,0,0,1,,,,0,71,88
323584,note_off,,,,,1024,0,1,,,,0,62,0
323925,note_on,,,,,0,0,2,,,,1,50,75
323925,note_off,,,,,341,0,2,,,,1,40,0
324267,note_on,,,,,0,0,2,,,,1,42,75
324267,note_off,,,,,342,0,2,,,,1,50,0
324352,note_on,,,,,0,0,1,,,,0,72,88
324352,note_on,,,,,0,0,1,,,,0,62,88
324352,note_off,,,,,0,0,1,,,,0,74,0
324352,note_on,,,,,0,0,1,,,,0,69,88
324352,note_off,,,,,0,0,1,,,,0,71,0
324352,note_off,,,,,768,0,1,,,,0,62,0
324608,note_off,,,,,0,0,1,,,,0,69,0
324608,note_on,,,,,0,0,1,,,,0,72,88
324608,note_on,,,,,0,0,1,,,,0,69,88
324608,note_on,,,,,0,0,1,,,,0,62,88
324608,note_off,,,,,0,0,1,,,,0,72,0
324608,note_off,,,,,256,0,1,,,,0,62,0
324608,note_off,,,,,341,0,2,,,,1,42,0
324608,note_on,,,,,0,0,2,,,,1,42,75
324949,note_on,,,,,0,0,2,,,,1,50,75
324949,note_off,,,,,341,0,2,,,,1,42,0
325291,note_on,,,,,0,0,2,,,,1,42,75
325291,note_off,,,,,342,0,2,,,,1,50,0
325462,note_on,,,,,854,0,1,,,,0,57,110
325547,note_on,,,,,85,0,1,,,,0,62,110
325632,note_off,,,,,341,0,2,,,,1,42,0
325632,note_off,,,,,0,0,1,,,,0,69,0
325632,note_off,,,,,85,0,1,,,,0,62,0
325632,note_off,,,,,0,0,1,,,,0,72,0
325632,note_on,,,,,0,0,1,,,,0,72,61
325632,note_on,,,,,0,0,2,,,,1,42,36
325973,note_off,,,,,341,0,2,,,,1,42,0
325973,note_on,,,,,0,0,2,,,,1,50,36
326315,note_off,,,,,342,0,2,,,,1,50,0
326315,note_on,,,,,0,0,2,,,,1,42,36
326656,note_off,,,,,0,0,1,,,,0,62,0
326656,note_off,,,,,0,0,1,,,,0,72,0
326656,note_on,,,,,0,0,1,,,,0,59,49
326656,note_on,,,,,0,0,1,,,,0,62,49
326656,note_on,,,,,0,0,1,,,,0,71,49
326656,note_off,,,,,1024,0,1,,,,0,57,0
326656,note_off,,,,,341,0,2,,,,1,42,0
326656,note_on,,,,,0,0,2,,,,1,50,36
326997,note_off,,,,,341,0,2,,,,1,50,0
326997,note_on,,,,,0,0,2,,,,1,42,36
327339,note_off,,,,,342,0,2,,,,1,42,0
327339,note_on,,,,,0,0,2,,,,1,50,36
327424,note_on,,,,,0,0,1,,,,0,62,49
327424,note_off,,,,,0,0,1,,,,0,62,0
327424,note_off,,,,,0,0,1,,,,0,71,0
327424,note_on,,,,,0,0,1,,,,0,69,49
327424,note_off,,,,,768,0,1,,,,0,59,0
327424,note_on,,,,,0,0,1,,,,0,60,49
327680,note_on,,,,,0,0,1,,,,0,62,49
327680,note_on,,,,,0,0,1,,,,0,60,49
327680,note_off,,,,,0,0,1,,,,0,62,0
327680,note_off,,,,,341,0,2,,,,1,50,0
327680,note_on,,,,,0,0,2,,,,1,42,36
327680,note_off,,,,,0,0,1,,,,0,69,0
327680,note_off,,,,,256,0,1,,,,0,60,0
327680,note_on,,,,,0,0,1,,,,0,69,49
328021,note_off,,,,,341,0,2,,,,1,42,0
328021,note_on,,,,,0,0,2,,,,1,50,36
328363,note_on,,,,,0,0,2,,,,1,42,36
328363,note_off,,,,,342,0,2,,,,1,50,0
328704,note_on,,,,,0,0,2,,,,1,50,36
328704,note_off,,,,,341,0,2,,,,1,42,0
329045,note_off,,,,,341,0,2,,,,1,50,0
329045,note_on,,,,,0,0,2,,,,1,42,36
329387,note_off,,,,,342,0,2,,,,1,42,0
329387,note_on,,,,,0,0,2,,,,1,50,36
329728,note_off,,,,,341,0,2,,,,1,50,0
329728,note_on,,,,,0,0,2,,,,1,42,36
330069,note_off,,,,,341,0,2,,,,1,42,0
330069,note_on,,,,,0,0,2,,,,1,50,36
330411,note_on,,,,,0,0,2,,,,1,42,36
330411,note_off,,,,,342,0,2,,,,1,50,0
330752,note_off,,,,,341,0,2,,,,1,42,0
330752,note_on,,,,,0,0,2,,,,1,50,36
331093,note_off,,,,,341,0,2,,,,1,50,0
331093,note_on,,,,,0,0,2,,,,1,42,36
331435,note_on,,,,,0,0,2,,,,1,50,36
331435,note_off,,,,,342,0,2,,,,1,42,0
331776,note_on,,,,,0,0,1,,,,0,67,49
331776,note_off,,,,,0,0,1,,,,0,69,0
331776,note_off,,,,,0,0,1,,,,0,62,0
331776,note_off,,,,,4096,0,1,,,,0,60,0
331776,note_on,,,,,0,0,1,,,,0,46,49
331776,note_off,,,,,341,0,2,,,,1,50,0
331776,note_on,,,,,0,0,2,,,,1,43,64
332117,note_on,,,,,0,0,1,,,,0,62,49
332117,note_off,,,,,341,0,1,,,,0,46,0
332117,note_off,,,,,0,0,1,,,,0,67,0
332117,note_on,,,,,0,0,1,,,,0,50,49
332459,note_on,,,,,0,0,1,,,,0,58,49
332459,note_off,,,,,342,0,1,,,,0,50,0
332459,note_off,,,,,0,0,1,,,,0,62,0
332459,note_on,,,,,0,0,1,,,,0,55,49
332800,note_off,,,,,0,0,1,,,,0,58,0
332800,note_off,,,,,341,0,1,,,,0,55,0
332800,note_on,,,,,0,0,1,,,,0,46,49
332800,note_on,,,,,0,0,1,,,,0,67,49
333141,note_on,,,,,0,0,1,,,,0,50,49
333141,note_on,,,,,0,0,1,,,,0,62,49
333141,note_off,,,,,341,0,1,,,,0,46,0
333141,note_off,,,,,0,0,1,,,,0,67,0
333483,note_off,,,,,342,0,1,,,,0,50,0
333483,note_off,,,,,0,0,1,,,,0,62,0
333483,note_on,,,,,0,0,1,,,,0,55,49
333483,note_on,,,,,0,0,1,,,,0,58,49
333824,note_off,,,,,341,0,1,,,,0,55,0
333824,note_off,,,,,0,0,1,,,,0,58,0
333824,note_on,,,,,0,0,1,,,,0,45,49
333824,note_on,,,,,0,0,1,,,,0,66,49
334165,note_on,,,,,0,0,1,,,,0,62,49
334165,note_off,,,,,341,0,1,,,,0,45,0
334165,note_off,,,,,0,0,1,,,,0,66,0
334165,note_on,,,,,0,0,1,,,,0,50,49
334507,note_off,,,,,342,0,1,,,,0,50,0
334507,note_off,,,,,0,0,1,,,,0,62,0
334507,note_on,,,,,0,0,1,,,,0,57,49
334507,note_on,,,,,0,0,1,,,,0,54,49
334848,note_on,,,,,0,0,1,,,,0,69,49
334848,note_off,,,,,0,0,1,,,,0,57,0
334848,note_on,,,,,0,0,1,,,,0,48,49
334848,note_on,,,,,0,0,2,,,,1,43,64
334848,note_off,,,,,341,0,1,,,,0,54,0
334848,note_off,,,,,3072,0,2,,,,1,43,0
335189,note_off,,,,,341,0,1,,,,0,48,0
335189,note_off,,,,,0,0,1,,,,0,69,0
335189,note_on,,,,,0,0,1,,,,0,50,49
335189,note_on,,,,,0,0,1,,,,0,62,49
335531,note_on,,,,,0,0,1,,,,0,57,49
335531,note_off,,,,,342,0,1,,,,0,50,0
335531,note_off,,,,,0,0,1,,,,0,62,0
335531,note_on,,,,,0,0,1,,,,0,60,49
335872,note_off,,,,,341,0,1,,,,0,57,0
335872,note_off,,,,,0,0,1,,,,0,60,0
335872,note_on,,,,,0,0,1,,,,0,48,49
335872,note_on,,,,,0,0,1,,,,0,69,49
336213,note_off,,,,,0,0,1,,,,0,69,0
336213,note_on,,,,,0,0,1,,,,0,50,49
336213,note_on,,,,,0,0,1,,,,0,62,49
336213,note_off,,,,,341,0,1,,,,0,48,0
336555,note_on,,,,,0,0,1,,,,0,57,49
336555,note_off,,,,,0,0,1,,,,0,62,0
336555,note_on,,,,,0,0,1,,,,0,60,49
336555,note_off,,,,,342,0,1,,,,0,50,0
336896,note_off,,,,,341,0,1,,,,0,57,0
336896,note_off,,,,,0,0,1,,,,0,60,0
336896,note_on,,,,,0,0,1,,,,0,46,49
336896,note_on,,,,,0,0,1,,,,0,67,49
337237,note_off,,,,,341,0,1,,,,0,46,0
337237,note_off,,,,,0,0,1,,,,0,67,0
337237,note_on,,,,,0,0,1,,,,0,50,49
337237,note_on,,,,,0,0,1,,,,0,62,49
337579,note_on,,,,,0,0,1,,,,0,58,49
337579,note_off,,,,,342,0,1,,,,0,50,0
337579,note_off,,,,,0,0,1,,,,0,62,0
337579,note_on,,,,,0,0,1,,,,0,55,49
337920,note_on,,,,,0,0,1,,,,0,67,49
337920,note_on,,,,,0,0,1,,,,0,46,49
337920,note_off,,,,,3072,0,2,,,,1,43,0
337920,note_off,,,,,341,0,1,,,,0,55,0
337920,note_off,,,,,0,0,1,,,,0,58,0
338261,note_off,,,,,341,0,1,,,,0,46,0
338261,note_off,,,,,0,0,1,,,,0,67,0
338261,note_on,,,,,0,0,1,,,,0,50,52
338261,note_on,,,,,0,0,1,,,,0,62,52
338603,note_off,,,,,0,0,1,,,,0,62,0
338603,note_off,,,,,342,0,1,,,,0,50,0
338603,note_on,,,,,0,0,1,,,,0,58,55
338603,note_on,,,,,0,0,1,,,,0,55,55
338944,note_off,,,,,341,0,1,,,,0,55,0
338944,note_on,,,,,0,0,1,,,,0,62,58
338944,note_off,,,,,0,0,1,,,,0,58,0
338944,note_on,,,,,0,0,1,,,,0,66,58
338944,note_on,,,,,0,0,1,,,,0,69,58
338944,note_on,,,,,0,0,2,,,,1,57,73
338944,note_on,,,,,0,0,2,,,,1,54,73
338944,note_on,,,,,1024,0,2,,,,1,50,73
339456,note_off,,,,,0,0,2,,,,1,54,0
339456,note_off,,,,,512,0,2,,,,1,50,0
339456,note_on,,,,,0,0,2,,,,1,55,77
339456,note_on,,,,,0,0,2,,,,1,58,77
339456,note_off,,,,,0,0,2,,,,1,57,0
339456,note_on,,,,,0,0,2,,,,1,50,77
339456,note_on,,,,,0,0,1,,,,0,67,62
339456,note_on,,,,,0,0,1,,,,0,62,62
339456,note_off,,,,,0,0,1,,,,0,69,0
339456,note_on,,,,,0,0,1,,,,0,70,62
339456,note_off,,,,,0,0,1,,,,0,66,0
339456,note_off,,,,,512,0,1,,,,0,62,0
339968,note_on,,,,,0,0,2,,,,1,50,81
339968,note_on,,,,,0,0,2,,,,1,57,81
339968,note_on,,,,,0,0,2,,,,1,60,81
339968,note_off,,,,,0,0,1,,,,0,70,0
339968,note_off,,,,,0,0,2,,,,1,58,0
339968,note_off,,,,,512,0,1,,,,0,62,0
339968,note_off,,,,,512,0,2,,,,1,50,0
339968,note_off,,,,,0,0,1,,,,0,67,0
339968,note_on,,,,,0,0,1,,,,0,62,66
339968,note_off,,,,,0,0,2,,,,1,55,0
339968,note_on,,,,,0,0,1,,,,0,69,66
339968,note_on,,,,,0,0,1,,,,0,72,66
340736,note_on,,,,,0,0,2,,,,1,58,68
340736,note_on,,,,,0,0,2,,,,1,55,68
340736,note_on,,,,,0,0,2,,,,1,50,68
340736,note_off,,,,,0,0,2,,,,1,60,0
340736,note_off,,,,,0,0,1,,,,0,69,0
340736,note_off,,,,,0,0,1,,,,0,72,0
340736,note_on,,,,,0,0,1,,,,0,67,53
340736,note_on,,,,,0,0,1,,,,0,70,53
340736,note_on,,,,,0,0,1,,,,0,62,53
340736,note_off,,,,,0,0,2,,,,1,57,0
340736,note_off,,,,,768,0,2,,,,1,50,0
340736,note_off,,,,,768,0,1,,,,0,62,0
340992,note_off,,,,,0,0,1,,,,0,67,0
340992,note_off,,,,,0,0,2,,,,1,58,0
340992,note_off,,,,,0,0,1,,,,0,70,0
340992,note_on,,,,,0,0,1,,,,0,62,51
340992,note_on,,,,,0,0,1,,,,0,67,51
340992,note_on,,,,,0,0,1,,,,0,70,51
340992,note_off,,,,,256,0,2,,,,1,50,0
340992,note_on,,,,,0,0,2,,,,1,58,66
340992,note_on,,,,,0,0,2,,,,1,55,66
340992,note_on,,,,,0,0,2,,,,1,50,66
340992,note_off,,,,,256,0,1,,,,0,62,0
340992,note_off,,,,,0,0,2,,,,1,55,0
342016,note_off,,,,,1024,0,1,,,,0,62,0
342016,note_off,,,,,0,0,2,,,,1,55,0
342016,note_on,,,,,0,0,2,,,,1,50,58
342016,note_on,,,,,0,0,2,,,,1,54,58
342016,note_on,,,,,0,0,2,,,,1,57,58
342016,note_on,,,,,0,0,1,,,,0,69,43
342016,note_on,,,,,0,0,1,,,,0,66,43
342016,note_on,,,,,0,0,1,,,,0,62,43
342016,note_off,,,,,0,0,1,,,,0,70,0
342016,note_off,,,,,0,0,1,,,,0,67,0
342016,note_off,,,,,1024,0,2,,,,1,50,0
342016,note_off,,,,,0,0,2,,,,1,58,0
342221,note_off,,,,,0,0,2,,,,1,54,0
342221,note_off,,,,,0,0,2,,,,1,57,0
342221,note_off,,,,,0,0,1,,,,0,69,0
342221,note_off,,,,,205,0,1,,,,0,62,0
342221,note_off,,,,,205,0,2,,,,1,50,0
342221,note_off,,,,,0,0,1,,,,0,66,0
342528,note_on,,,,,0,0,1,,,,0,67,40
342528,note_on,,,,,0,0,1,,,,0,64,40
342528,note_on,,,,,307,0,1,,,,0,62,40
342528,note_on,,,,,0,0,2,,,,1,52,55
342528,note_on,,,,,307,0,2,,,,1,50,55
342528,note_on,,,,,0,0,2,,,,1,55,55
342733,note_off,,,,,0,0,2,,,,1,52,0
342733,note_off,,,,,0,0,2,,,,1,55,0
342733,note_off,,,,,205,0,2,,,,1,50,0
342733,note_off,,,,,0,0,1,,,,0,64,0
342733,note_off,,,,,0,0,1,,,,0,67,0
342733,note_off,,,,,205,0,1,,,,0,62,0
343040,note_on,,,,,0,0,1,,,,0,69,36
343040,note_on,,,,,0,0,1,,,,0,66,36
343040,note_on,,,,,0,0,2,,,,1,57,51
343040,note_on,,,,,0,0,2,,,,1,54,51
343040,note_on,,,,,307,0,2,,,,1,50,51
343040,note_on,,,,,307,0,1,,,,0,62,36
344064,note_on,,,,,0,0,1,,,,0,67,49
344064,note_off,,,,,0,0,1,,,,0,69,0
344064,note_off,,,,,0,0,1,,,,0,66,0
344064,note_off,,,,,1024,0,1,,,,0,62,0
344064,note_on,,,,,0,0,1,,,,0,47,49
344064,note_off,,,,,1024,0,2,,,,1,50,0
344064,note_off,,,,,0,0,2,,,,1,54,0
344064,note_off,,,,,0,0,2,,,,1,57,0
344064,note_on,,,,,0,0,2,,,,1,43,64
344064,note_on,,,,,0,0,2,,,,1,74,64
344405,note_on,,,,,0,0,1,,,,0,62,49
344405,note_off,,,,,341,0,1,,,,0,47,0
344405,note_off,,,,,0,0,1,,,,0,67,0
344405,note_on,,,,,0,0,1,,,,0,50,49
344747,note_on,,,,,0,0,1,,,,0,55,49
344747,note_off,,,,,0,0,1,,,,0,62,0
344747,note_on,,,,,0,0,1,,,,0,71,49
344747,note_off,,,,,342,0,1,,,,0,50,0
345088,note_off,,,,,0,0,1,,,,0,71,0
345088,note_on,,,,,0,0,1,,,,0,47,49
345088,note_on,,,,,0,0,1,,,,0,67,49
345088,note_off,,,,,341,0,1,,,,0,55,0
345429,note_off,,,,,0,0,1,,,,0,67,0
345429,note_on,,,,,0,0,1,,,,0,62,49
345429,note_off,,,,,341,0,1,,,,0,47,0
345429,note_on,,,,,0,0,1,,,,0,50,49
345771,note_on,,,,,0,0,1,,,,0,71,49
345771,note_on,,,,,0,0,1,,,,0,55,49
345771,note_off,,,,,0,0,1,,,,0,62,0
345771,note_off,,,,,342,0,1,,,,0,50,0
346112,note_on,,,,,0,0,1,,,,0,66,49
346112,note_on,,,,,0,0,1,,,,0,45,49
346112,note_off,,,,,341,0,1,,,,0,55,0
346112,note_off,,,,,0,0,1,,,,0,71,0
346453,note_on,,,,,0,0,1,,,,0,62,49
346453,note_on,,,,,0,0,1,,,,0,50,49
346453,note_off,,,,,0,0,1,,,,0,66,0
346453,note_off,,,,,341,0,1,,,,0,45,0
346795,note_on,,,,,0,0,1,,,,0,54,49
346795,note_on,,,,,0,0,1,,,,0,69,49
346795,note_off,,,,,0,0,1,,,,0,62,0
346795,note_off,,,,,342,0,1,,,,0,50,0
347136,note_off,,,,,0,0,2,,,,1,74,0
347136,note_on,,,,,0,0,2,,,,1,43,64
347136,note_on,,,,,0,0,2,,,,1,74,64
347136,note_off,,,,,341,0,1,,,,0,54,0
347136,note_off,,,,,0,0,1,,,,0,69,0
347136,note_on,,,,,0,0,1,,,,0,48,49
347136,note_on,,,,,0,0,1,,,,0,69,49
347136,note_off,,,,,3072,0,2,,,,1,43,0
347477,note_on,,,,,0,0,1,,,,0,50,49
347477,note_on,,,,,0,0,1,,,,0,62,49
347477,note_off,,,,,341,0,1,,,,0,48,0
347477,note_off,,,,,0,0,1,,,,0,69,0
347819,note_off,,,,,342,0,1,,,,0,50,0
347819,note_off,,,,,0,0,1,,,,0,62,0
347819,note_on,,,,,0,0,1,,,,0,57,49
347819,note_on,,,,,0,0,1,,,,0,72,49
348160,note_on,,,,,0,0,1,,,,0,69,49
348160,note_off,,,,,341,0,1,,,,0,57,0
348160,note_off,,,,,0,0,1,,,,0,72,0
348160,note_on,,,,,0,0,1,,,,0,48,49
348501,note_off,,,,,341,0,1,,,,0,48,0
348501,note_off,,,,,0,0,1,,,,0,69,0
348501,note_on,,,,,0,0,1,,,,0,50,49
348501,note_on,,,,,0,0,1,,,,0,62,49
348843,note_on,,,,,0,0,1,,,,0,72,49
348843,note_on,,,,,0,0,1,,,,0,57,49
348843,note_off,,,,,0,0,1,,,,0,62,0
348843,note_off,,,,,342,0,1,,,,0,50,0
349184,note_off,,,,,341,0,1,,,,0,57,0
349184,note_off,,,,,0,0,1,,,,0,72,0
349184,note_on,,,,,0,0,1,,,,0,47,49
349184,note_on,,,,,0,0,1,,,,0,67,49
349525,note_off,,,,,341,0,1,,,,0,47,0
349525,note_off,,,,,0,0,1,,,,0,67,0
349525,note_on,,,,,0,0,1,,,,0,50,49
349525,note_on,,,,,0,0,1,,,,0,62,49
349867,note_off,,,,,342,0,1,,,,0,50,0
349867,note_on,,,,,0,0,1,,,,0,55,49
349867,note_off,,,,,0,0,1,,,,0,62,0
349867,note_on,,,,,0,0,1,,,,0,71,49
350208,note_off,,,,,0,0,2,,,,1,74,0
350208,note_off,,,,,341,0,1,,,,0,55,0
350208,note_off,,,,,0,0,1,,,,0,71,0
350208,note_on,,,,,0,0,1,,,,0,62,49
350208,note_on,,,,,0,0,2,,,,1,43,64
350208,note_on,,,,,0,0,2,,,,1,47,64
350208,note_on,,,,,0,0,2,,,,1,50,64
350208,note_off,,,,,3072,0,2,,,,1,43,0
350720,note_off,,,,,512,0,1,,,,0,62,0
350720,note_on,,,,,0,0,1,,,,0,74,56
351232,note_off,,,,,0,0,2,,,,1,47,0
351232,note_off,,,,,0,0,2,,,,1,50,0
351232,note_on,,,,,0,0,2,,,,1,43,77
351232,note_on,,,,,0,0,2,,,,1,48,77
351232,note_off,,,,,1024,0,2,,,,1,43,0
351232,note_on,,,,,0,0,1,,,,0,76,62
351232,note_on,,,,,0,0,1,,,,0,64,62
351232,note_off,,,,,512,0,1,,,,0,74,0
351232,note_on,,,,,0,0,2,,,,1,52,77
351744,note_off,,,,,512,0,2,,,,1,43,0
351744,note_off,,,,,0,0,2,,,,1,52,0
351744,note_on,,,,,0,0,2,,,,1,43,84
351744,note_on,,,,,0,0,2,,,,1,45,84
351744,note_on,,,,,0,0,2,,,,1,54,84
351744,note_off,,,,,0,0,2,,,,1,48,0
351744,note_on,,,,,0,0,1,,,,0,66,69
351744,note_on,,,,,0,0,1,,,,0,78,69
351744,note_off,,,,,512,0,1,,,,0,64,0
351744,note_off,,,,,0,0,1,,,,0,76,0
352256,note_on,,,,,0,0,2,,,,1,55,91
352256,note_on,,,,,0,0,2,,,,1,47,91
352256,note_on,,,,,0,0,2,,,,1,43,91
352256,note_off,,,,,0,0,2,,,,1,54,0
352256,note_off,,,,,512,0,2,,,,1,43,0
352256,note_off,,,,,512,0,1,,,,0,66,0
352256,note_off,,,,,0,0,1,,,,0,78,0
352256,note_on,,,,,0,0,1,,,,0,67,76
352256,note_on,,,,,0,0,1,,,,0,79,76
352256,note_off,,,,,0,0,2,,,,1,45,0
353024,note_off,,,,,0,0,2,,,,1,55,0
353024,note_off,,,,,768,0,2,,,,1,43,0
353024,note_on,,,,,0,0,2,,,,1,50,70
353024,note_on,,,,,0,0,2,,,,1,55,70
353024,note_on,,,,,0,0,1,,,,0,71,55
353024,note_on,,,,,0,0,1,,,,0,67,55
353024,note_on,,,,,0,0,1,,,,0,62,55
353024,note_off,,,,,0,0,1,,,,0,79,0
353024,note_off,,,,,768,0,1,,,,0,67,0
353024,note_on,,,,,0,0,2,,,,1,59,70
353024,note_off,,,,,0,0,2,,,,1,47,0
353280,note_on,,,,,0,0,1,,,,0,71,52
353280,note_off,,,,,256,0,2,,,,1,50,0
353280,note_off,,,,,0,0,2,,,,1,55,0
353280,note_off,,,,,0,0,2,,,,1,59,0
353280,note_on,,,,,0,0,1,,,,0,62,52
353280,note_on,,,,,0,0,2,,,,1,59,67
353280,note_on,,,,,0,0,2,,,,1,62,67
353280,note_on,,,,,0,0,1,,,,0,74,52
353280,note_off,,,,,256,0,1,,,,0,62,0
353280,note_off,,,,,0,0,1,,,,0,67,0
353280,note_off,,,,,0,0,1,,,,0,71,0
353280,note_on,,,,,0,0,2,,,,1,50,67
354304,note_off,,,,,0,0,2,,,,1,59,0
354304,note_off,,,,,0,0,2,,,,1,62,0
354304,note_off,,,,,1024,0,2,,,,1,50,0
354304,note_on,,,,,0,0,2,,,,1,57,55
354304,note_on,,,,,0,0,2,,,,1,60,55
354304,note_on,,,,,0,0,1,,,,0,72,40
354304,note_on,,,,,0,0,1,,,,0,66,40
354304,note_on,,,,,0,0,1,,,,0,62,40
354304,note_on,,,,,0,0,2,,,,1,50,55
354304,note_off,,,,,0,0,1,,,,0,74,0
354304,note_off,,,,,0,0,1,,,,0,71,0
354304,note_off,,,,,1024,0,1,,,,0,62,0
355072,note_on,,,,,0,0,2,,,,1,55,47
355072,note_off,,,,,0,0,2,,,,1,60,0
355072,note_off,,,,,768,0,2,,,,1,50,0
355072,note_on,,,,,0,0,2,,,,1,59,47
355072,note_off,,,,,0,0,2,,,,1,57,0
355072,note_on,,,,,0,0,1,,,,0,67,32
355072,note_off,,,,,768,0,1,,,,0,62,0
355072,note_off,,,,,0,0,1,,,,0,66,0
355072,note_off,,,,,0,0,1,,,,0,72,0
355072,note_on,,,,,0,0,1,,,,0,62,32
355072,note_on,,,,,0,0,1,,,,0,71,32
355328,note_on,,,,,0,0,2,,,,1,55,44
355328,note_off,,,,,256,0,2,,,,1,55,0
355328,note_off,,,,,0,0,2,,,,1,59,0
355328,note_on,,,,,0,0,2,,,,1,59,44
355328,note_off,,,,,256,0,1,,,,0,62,0
355328,note_off,,,,,0,0,1,,,,0,67,0
355328,note_off,,,,,0,0,1,,,,0,71,0
355328,note_on,,,,,0,0,1,,,,0,62,29
355328,note_on,,,,,0,0,1,,,,0,67,29
355328,note_on,,,,,0,0,1,,,,0,71,29
356352,note_on,,,,,0,0,2,,,,1,43,36
356352,note_on,,,,,0,0,1,,,,0,72,49
356352,note_off,,,,,0,0,1,,,,0,71,0
356352,note_off,,,,,0,0,1,,,,0,67,0
356352,note_off,,,,,1024,0,1,,,,0,62,0
356352,note_off,,,,,1024,0,2,,,,1,55,0
356352,note_off,,,,,0,0,2,,,,1,59,0
356352,note_on,,,,,0,0,1,,,,0,67,49
356352,note_on,,,,,0,0,1,,,,0,64,49
356693,note_off,,,,,341,0,2,,,,1,43,0
356693,note_on,,,,,0,0,2,,,,1,55,36
357035,note_off,,,,,342,0,2,,,,1,55,0
357035,note_on,,,,,0,0,2,,,,1,43,36
357376,note_off,,,,,1024,0,1,,,,0,64,0
357376,note_off,,,,,0,0,1,,,,0,72,0
357376,note_off,,,,,0,0,1,,,,0,67,0
357376,note_on,,,,,0,0,1,,,,0,71,49
357376,note_off,,,,,341,0,2,,,,1,43,0
357376,note_on,,,,,0,0,2,,,,1,55,36
357376,note_on,,,,,0,0,1,,,,0,62,49
357376,note_on,,,,,0,0,1,,,,0,67,49
357717,note_on,,,,,0,0,2,,,,1,43,36
357717,note_off,,,,,341,0,2,,,,1,55,0
358059,note_on,,,,,0,0,2,,,,1,55,36
358059,note_off,,,,,342,0,2,,,,1,43,0
358144,note_off,,,,,768,0,1,,,,0,62,0
358144,note_off,,,,,0,0,1,,,,0,67,0
358144,note_off,,,,,0,0,1,,,,0,71,0
358144,note_on,,,,,0,0,1,,,,0,60,49
358144,note_on,,,,,0,0,1,,,,0,67,49
358144,note_on,,,,,0,0,1,,,,0,69,49
358400,note_on,,,,,0,0,1,,,,0,69,49
358400,note_on,,,,,0,0,1,,,,0,67,49
358400,note_on,,,,,0,0,1,,,,0,60,49
358400,note_off,,,,,0,0,1,,,,0,69,0
358400,note_off,,,,,256,0,1,,,,0,60,0
358400,note_off,,,,,341,0,2,,,,1,55,0
358400,note_on,,,,,0,0,2,,,,1,43,36
358400,note_off,,,,,0,0,1,,,,0,67,0
358741,note_off,,,,,341,0,2,,,,1,43,0
358741,note_on,,,,,0,0,2,,,,1,55,36
359083,note_off,,,,,342,0,2,,,,1,55,0
359083,note_on,,,,,0,0,2,,,,1,43,36
359424,note_on,,,,,0,0,1,,,,0,71,49
359424,note_off,,,,,0,0,1,,,,0,69,0
359424,note_off,,,,,0,0,1,,,,0,67,0
359424,note_off,,,,,1024,0,1,,,,0,60,0
359424,note_off,,,,,341,0,2,,,,1,43,0
359424,note_on,,,,,0,0,2,,,,1,43,36
359424,note_on,,,,,0,0,1,,,,0,62,49
359765,note_off,,,,,341,0,2,,,,1,43,0
359765,note_on,,,,,0,0,2,,,,1,55,36
360107,note_off,,,,,342,0,2,,,,1,55,0
360107,note_on,,,,,0,0,2,,,,1,43,36
360448,note_off,,,,,1024,0,1,,,,0,62,0
360448,note_off,,,,,0,0,1,,,,0,71,0
360448,note_on,,,,,0,0,1,,,,0,60,49
360448,note_on,,,,,0,0,1,,,,0,69,49
360448,note_on,,,,,0,0,2,,,,1,55,36
360448,note_off,,,,,341,0,2,,,,1,43,0
360448,note_on,,,,,0,0,1,,,,0,62,49
360789,note_on,,,,,0,0,2,,,,1,43,36
360789,note_off,,,,,341,0,2,,,,1,55,0
361131,note_on,,,,,0,0,2,,,,1,55,36
361131,note_off,,,,,342,0,2,,,,1,43,0
361216,note_on,,,,,0,0,1,,,,0,59,49
361216,note_on,,,,,0,0,1,,,,0,67,49
361216,note_on,,,,,0,0,1,,,,0,62,49
361216,note_off,,,,,768,0,1,,,,0,60,0
361216,note_off,,,,,0,0,1,,,,0,62,0
361216,note_off,,,,,0,0,1,,,,0,69,0
361472,note_on,,,,,0,0,1,,,,0,67,49
361472,note_on,,,,,0,0,1,,,,0,62,49
361472,note_on,,,,,0,0,1,,,,0,59,49
361472,note_off,,,,,0,0,1,,,,0,62,0
361472,note_off,,,,,256,0,1,,,,0,59,0
361472,note_off,,,,,0,0,1,,,,0,67,0
361472,note_on,,,,,0,0,2,,,,1,43,36
361472,note_off,,,,,341,0,2,,,,1,55,0
361813,note_on,,,,,0,0,2,,,,1,55,36
361813,note_off,,,,,341,0,2,,,,1,43,0
362155,note_on,,,,,0,0,2,,,,1,43,36
362155,note_off,,,,,342,0,2,,,,1,55,0
362496,note_on,,,,,0,0,1,,,,0,69,49
362496,note_off,,,,,1024,0,1,,,,0,59,0
362496,note_off,,,,,0,0,1,,,,0,62,0
362496,note_off,,,,,0,0,1,,,,0,67,0
362496,note_on,,,,,0,0,1,,,,0,60,49
362496,note_on,,,,,0,0,1,,,,0,62,49
362496,note_on,,,,,0,0,2,,,,1,31,36
362496,note_off,,,,,341,0,2,,,,1,43,0
362837,note_on,,,,,0,0,2,,,,1,43,36
362837,note_off,,,,,341,0,2,,,,1,31,0
363179,note_on,,,,,0,0,2,,,,1,31,36
363179,note_off,,,,,342,0,2,,,,1,43,0
363520,note_on,,,,,0,0,2,,,,1,43,36
363520,note_off,,,,,341,0,2,,,,1,31,0
363520,note_off,,,,,1024,0,1,,,,0,60,0
363520,note_off,,,,,0,0,1,,,,0,62,0
363520,note_off,,,,,0,0,1,,,,0,69,0
363520,note_on,,,,,0,0,1,,,,0,59,49
363520,note_on,,,,,0,0,1,,,,0,62,49
363520,note_on,,,,,0,0,1,,,,0,67,49
363861,note_on,,,,,0,0,2,,,,1,31,36
363861,note_off,,,,,341,0,2,,,,1,43,0
364203,note_on,,,,,0,0,2,,,,1,43,36
364203,note_off,,,,,342,0,2,,,,1,31,0
364288,note_on,,,,,0,0,1,,,,0,66,49
364288,note_on,,,,,0,0,1,,,,0,62,49
364288,note_on,,,,,0,0,1,,,,0,57,49
364288,note_off,,,,,0,0,1,,,,0,67,0
364288,note_off,,,,,768,0,1,,,,0,59,0
364288,note_off,,,,,0,0,1,,,,0,62,0
364544,note_off,,,,,256,0,1,,,,0,57,0
364544,note_off,,,,,341,0,2,,,,1,43,0
364544,note_on,,,,,0,0,2,,,,1,31,36
364544,note_on,,,,,0,0,1,,,,0,66,49
364544,note_on,,,,,0,0,1,,,,0,57,49
364544,note_off,,,,,0,0,1,,,,0,66,0
364544,note_off,,,,,0,0,1,,,,0,62,0
364544,note_on,,,,,0,0,1,,,,0,62,49
364885,note_on,,,,,0,0,2,,,,1,43,36
364885,note_off,,,,,341,0,2,,,,1,31,0
365227,note_off,,,,,342,0,2,,,,1,43,0
365227,note_on,,,,,0,0,2,,,,1,31,36
365568,note_off,,,,,341,0,2,,,,1,31,0
365568,note_on,,,,,0,0,2,,,,1,31,36
365568,note_on,,,,,0,0,1,,,,0,67,49
365568,note_off,,,,,1024,0,1,,,,0,57,0
365568,note_off,,,,,0,0,1,,,,0,62,0
365568,note_off,,,,,0,0,1,,,,0,66,0
365568,note_on,,,,,0,0,1,,,,0,59,49
365909,note_off,,,,,341,0,2,,,,1,31,0
365909,note_on,,,,,0,0,2,,,,1,43,36
366251,note_on,,,,,0,0,2,,,,1,31,36
366251,note_off,,,,,342,0,2,,,,1,43,0
366592,note_on,,,,,0,0,2,,,,1,43,36
366592,note_off,,,,,341,0,2,,,,1,31,0
366592,note_on,,,,,0,0,1,,,,0,62,49
366592,note_off,,,,,1024,0,1,,,,0,59,0
366592,note_off,,,,,0,0,1,,,,0,67,0
366592,note_on,,,,,0,0,1,,,,0,57,49
366933,note_on,,,,,0,0,2,,,,1,31,36
366933,note_off,,,,,341,0,2,,,,1,43,0
367275,note_on,,,,,0,0,2,,,,1,43,36
367275,note_off,,,,,342,0,2,,,,1,31,0
367360,note_on,,,,,0,0,1,,,,0,59,49
367360,note_off,,,,,768,0,1,,,,0,57,0
367360,note_off,,,,,0,0,1,,,,0,62,0
367360,note_on,,,,,0,0,1,,,,0,55,49
367616,note_on,,,,,0,0,2,,,,1,31,36
367616,note_off,,,,,256,0,1,,,,0,55,0
367616,note_off,,,,,0,0,1,,,,0,59,0
367616,note_on,,,,,0,0,1,,,,0,55,49
367616,note_on,,,,,0,0,1,,,,0,59,49
367616,note_off,,,,,341,0,2,,,,1,43,0
367957,note_off,,,,,341,0,2,,,,1,31,0
367957,note_on,,,,,0,0,2,,,,1,43,36
368299,note_off,,,,,342,0,2,,,,1,43,0
368299,note_on,,,,,0,0,2,,,,1,31,36
368640,note_off,,,,,1024,0,1,,,,0,55,0
368640,note_on,,,,,0,0,1,,,,0,62,49
368640,note_on,,,,,0,0,1,,,,0,55,49
368640,note_on,,,,,0,0,1,,,,0,65,49
368640,note_on,,,,,0,0,2,,,,1,31,36
368640,note_off,,,,,341,0,2,,,,1,31,0
368640,note_off,,,,,0,0,1,,,,0,59,0
368981,note_on,,,,,0,0,2,,,,1,43,36
368981,note_off,,,,,341,0,2,,,,1,31,0
369323,note_on,,,,,0,0,2,,,,1,31,36
369323,note_off,,,,,342,0,2,,,,1,43,0
369664,note_off,,,,,1024,0,1,,,,0,55,0
369664,note_off,,,,,0,0,1,,,,0,62,0
369664,note_off,,,,,0,0,1,,,,0,65,0
369664,note_on,,,,,0,0,2,,,,1,43,36
369664,note_off,,,,,341,0,2,,,,1,31,0
369664,note_on,,,,,0,0,1,,,,0,55,49
369664,note_on,,,,,0,0,1,,,,0,64,49
369664,note_on,,,,,0,0,1,,,,0,60,49
370005,note_off,,,,,341,0,2,,,,1,43,0
370005,note_on,,,,,0,0,2,,,,1,31,36
370347,note_off,,,,,342,0,2,,,,1,31,0
370347,note_on,,,,,0,0,2,,,,1,43,36
370432,note_off,,,,,0,0,1,,,,0,60,0
370432,note_off,,,,,0,0,1,,,,0,64,0
370432,note_on,,,,,0,0,1,,,,0,55,49
370432,note_on,,,,,0,0,1,,,,0,59,49
370432,note_off,,,,,768,0,1,,,,0,55,0
370432,note_on,,,,,0,0,1,,,,0,62,49
370688,note_on,,,,,0,0,2,,,,1,31,36
370688,note_off,,,,,341,0,2,,,,1,43,0
370688,note_on,,,,,0,0,1,,,,0,59,49
370688,note_off,,,,,256,0,1,,,,0,55,0
370688,note_off,,,,,0,0,1,,,,0,59,0
370688,note_off,,,,,0,0,1,,,,0,62,0
370688,note_on,,,,,0,0,1,,,,0,55,49
370688,note_on,,,,,0,0,1,,,,0,62,49
371029,note_off,,,,,341,0,2,,,,1,31,0
371029,note_on,,,,,0,0,2,,,,1,43,36
371371,note_off,,,,,342,0,2,,,,1,43,0
371371,note_on,,,,,0,0,2,,,,1,31,36
371712,note_on,,,,,0,0,1,,,,0,69,49
371712,note_off,,,,,1024,0,1,,,,0,55,0
371712,note_off,,,,,0,0,1,,,,0,59,0
371712,note_off,,,,,0,0,1,,,,0,62,0
371712,note_off,,,,,341,0,2,,,,1,31,0
371712,note_on,,,,,0,0,1,,,,0,65,49
371712,note_on,,,,,0,0,2,,,,1,31,36
371712,note_on,,,,,0,0,1,,,,0,59,49
372053,note_on,,,,,0,0,2,,,,1,43,36
372053,note_off,,,,,341,0,2,,,,1,31,0
372395,note_on,,,,,0,0,2,,,,1,31,36
372395,note_off,,,,,342,0,2,,,,1,43,0
372736,note_off,,,,,1024,0,1,,,,0,59,0
372736,note_off,,,,,0,0,1,,,,0,65,0
372736,note_off,,,,,0,0,1,,,,0,69,0
372736,note_on,,,,,0,0,1,,,,0,59,49
372736,note_on,,,,,0,0,1,,,,0,64,49
372736,note_off,,,,,341,0,2,,,,1,31,0
372736,note_on,,,,,0,0,1,,,,0,67,49
372736,note_on,,,,,0,0,2,,,,1,43,36
373077,note_off,,,,,341,0,2,,,,1,43,0
373077,note_on,,,,,0,0,2,,,,1,31,36
373419,note_off,,,,,342,0,2,,,,1,31,0
373419,note_on,,,,,0,0,2,,,,1,43,36
373504,note_off,,,,,0,0,1,,,,0,64,0
373504,note_off,,,,,0,0,1,,,,0,67,0
373504,note_on,,,,,0,0,1,,,,0,62,49
373504,note_on,,,,,0,0,1,,,,0,65,49
373504,note_off,,,,,768,0,1,,,,0,59,0
373504,note_on,,,,,0,0,1,,,,0,59,49
373760,note_off,,,,,341,0,2,,,,1,43,0
373760,note_on,,,,,0,0,2,,,,1,31,36
373760,note_off,,,,,256,0,1,,,,0,59,0
373760,note_off,,,,,0,0,1,,,,0,65,0
373760,note_on,,,,,0,0,1,,,,0,65,49
373760,note_on,,,,,0,0,1,,,,0,62,49
373760,note_on,,,,,0,0,1,,,,0,59,49
373760,note_off,,,,,0,0,1,,,,0,62,0
374101,note_on,,,,,0,0,2,,,,1,43,36
374101,note_off,,,,,341,0,2,,,,1,31,0
374443,note_on,,,,,0,0,2,,,,1,31,36
374443,note_off,,,,,342,0,2,,,,1,43,0
374784,set_tempo,,,,,82944,1,0,,857142,,,,
374784,note_off,,,,,0,0,1,,,,0,65,0
374784,note_off,,,,,0,0,1,,,,0,62,0
374784,note_on,,,,,0,0,1,,,,0,69,49
374784,note_on,,,,,0,0,1,,,,0,59,49
374784,note_on,,,,,0,0,1,,,,0,65,49
374784,note_off,,,,,341,0,2,,,,1,31,0
374784,note_on,,,,,0,0,2,,,,1,31,36
374784,note_off,,,,,1024,0,1,,,,0,59,0
375125,note_off,,,,,341,0,2,,,,1,31,0
375125,note_on,,,,,0,0,2,,,,1,43,36
375467,note_off,,,,,342,0,2,,,,1,43,0
375467,note_on,,,,,0,0,2,,,,1,31,36
375808,note_off,,,,,341,0,2,,,,1,31,0
375808,note_on,,,,,0,0,2,,,,1,43,36
376149,note_off,,,,,341,0,2,,,,1,43,0
376149,note_on,,,,,0,0,2,,,,1,31,36
376320,note_off,,,,,1536,0,1,,,,0,69,0
376320,note_on,,,,,0,0,1,,,,0,68,49
376491,note_off,,,,,342,0,2,,,,1,31,0
376491,note_on,,,,,0,0,2,,,,1,43,36
376832,note_off,,,,,341,0,2,,,,1,43,0
376832,note_on,,,,,0,0,1,,,,0,67,49
376832,note_off,,,,,512,0,1,,,,0,68,0
376832,note_on,,,,,0,0,2,,,,1,31,36
377173,note_off,,,,,341,0,2,,,,1,31,0
377173,note_on,,,,,0,0,2,,,,1,43,36
377344,note_off,,,,,512,0,1,,,,0,67,0
377344,note_on,,,,,0,0,1,,,,0,69,49
377515,note_on,,,,,0,0,2,,,,1,31,36
377515,note_off,,,,,342,0,2,,,,1,43,0
377856,note_on,,,,,0,0,1,,,,0,65,49
377856,note_on,,,,,0,0,1,,,,0,59,49
377856,note_on,,,,,0,0,1,,,,0,69,49
377856,note_off,,,,,0,0,1,,,,0,65,0
377856,note_off,,,,,512,0,1,,,,0,69,0
377856,note_on,,,,,0,0,2,,,,1,50,36
377856,note_on,,,,,0,0,2,,,,1,43,36
377856,note_off,,,,,341,0,2,,,,1,31,0
377856,note_off,,,,,0,0,1,,,,0,59,0
378880,note_off,,,,,1024,0,1,,,,0,69,0
378880,note_on,,,,,0,0,1,,,,0,67,49
380928,set_tempo,,,,,0,1,0,,625000,,,,
380928,key_signature,,,,,6144,1,0,C,,,,,
380928,note_off,,,,,0,0,1,,,,0,59,0
380928,note_off,,,,,0,0,1,,,,0,65,0
380928,note_on,,,,,0,0,1,,,,0,67,64
380928,note_on,,,,,0,0,2,,,,1,55,64
380928,note_off,,,,,0,0,2,,,,1,50,0
380928,note_off,,,,,3072,0,2,,,,1,43,0
380928,set_tempo,,,,,0,1,0,,625000,,,,
380928,note_off,,,,,2048,0,1,,,,0,67,0
381824,note_on,,,,,896,0,1,,,,0,69,64
381824,note_on,,,,,896,0,2,,,,1,57,64
381952,note_off,,,,,128,0,1,,,,0,67,0
381952,note_off,,,,,0,0,1,,,,0,69,0
381952,note_on,,,,,0,0,2,,,,1,55,64
381952,note_on,,,,,0,0,1,,,,0,67,64
381952,note_off,,,,,0,0,2,,,,1,57,0
381952,note_off,,,,,128,0,2,,,,1,55,0
382293,note_on,,,,,0,0,1,,,,0,64,64
382293,note_off,,,,,341,0,1,,,,0,67,0
382293,note_off,,,,,341,0,2,,,,1,55,0
382293,note_on,,,,,0,0,2,,,,1,52,64
382635,note_on,,,,,0,0,1,,,,0,60,64
382635,note_off,,,,,342,0,1,,,,0,64,0
382635,note_off,,,,,342,0,2,,,,1,52,0
382635,note_on,,,,,0,0,2,,,,1,48,64
382976,note_on,,,,,0,0,1,,,,0,67,64
382976,note_off,,,,,341,0,1,,,,0,60,0
382976,note_on,,,,,0,0,2,,,,1,55,64
382976,note_off,,,,,341,0,2,,,,1,48,0
383744,note_on,,,,,0,0,1,,,,0,76,64
383744,note_off,,,,,768,0,1,,,,0,67,0
383744,note_on,,,,,0,0,2,,,,1,64,64
383744,note_off,,,,,768,0,2,,,,1,55,0
384000,note_off,,,,,256,0,2,,,,1,64,0
384000,note_on,,,,,0,0,2,,,,1,64,80
384000,note_on,,,,,0,0,1,,,,0,76,64
384000,note_off,,,,,256,0,1,,,,0,76,0
386048,note_off,,,,,2048,0,1,,,,0,76,0
386048,note_on,,,,,0,0,1,,,,0,72,64
386048,note_on,,,,,0,0,2,,,,1,60,64
386048,note_off,,,,,2048,0,2,,,,1,64,0
386560,note_off,,,,,512,0,1,,,,0,72,0
386560,note_off,,,,,512,0,2,,,,1,60,0
387072,note_on,,,,,512,0,1,,,,0,67,64
387968,note_on,,,,,896,0,1,,,,0,65,64
388096,note_off,,,,,128,0,1,,,,0,67,0
388096,note_off,,,,,0,0,1,,,,0,65,0
388096,note_on,,,,,0,0,1,,,,0,64,64
388437,note_off,,,,,341,0,1,,,,0,64,0
388437,note_on,,,,,0,0,1,,,,0,60,64
388779,note_on,,,,,0,0,1,,,,0,55,64
388779,note_off,,,,,342,0,1,,,,0,60,0
389120,note_on,,,,,0,0,1,,,,0,60,64
389120,note_off,,,,,341,0,1,,,,0,55,0
389461,note_on,,,,,0,0,1,,,,0,64,64
389461,note_off,,,,,341,0,1,,,,0,60,0
389803,note_off,,,,,342,0,1,,,,0,64,0
389803,note_on,,,,,0,0,1,,,,0,67,64
390144,note_on,,,,,0,0,1,,,,0,55,64
390144,note_off,,,,,341,0,1,,,,0,67,0
390144,note_on,,,,,0,0,1,,,,0,67,64
390144,note_on,,,,,0,0,1,,,,0,64,64
390144,note_on,,,,,3584,0,2,,,,1,43,64
390349,note_off,,,,,205,0,2,,,,1,43,0
390656,note_off,,,,,0,0,1,,,,0,64,0
390656,note_off,,,,,0,0,1,,,,0,67,0
390656,note_off,,,,,512,0,1,,,,0,55,0
390656,note_on,,,,,307,0,2,,,,1,45,64
390656,note_on,,,,,0,0,1,,,,0,62,64
390656,note_on,,,,,0,0,1,,,,0,65,64
390656,note_on,,,,,0,0,1,,,,0,55,64
390861,note_off,,,,,205,0,1,,,,0,55,0
390861,note_off,,,,,0,0,1,,,,0,62,0
390861,note_off,,,,,0,0,1,,,,0,65,0
390912,note_on,,,,,0,0,2,,,,1,47,64
390912,note_off,,,,,256,0,2,,,,1,45,0
391168,note_on,,,,,0,0,1,,,,0,60,64
391168,note_on,,,,,0,0,2,,,,1,48,64
391168,note_off,,,,,256,0,2,,,,1,47,0
391168,note_on,,,,,307,0,1,,,,0,55,64
391168,note_on,,,,,0,0,1,,,,0,64,64
391373,note_off,,,,,205,0,1,,,,0,55,0
391373,note_off,,,,,0,0,1,,,,0,60,0
391373,note_off,,,,,0,0,1,,,,0,64,0
391680,note_on,,,,,0,0,1,,,,0,62,64
391680,note_on,,,,,0,0,1,,,,0,59,64
391680,note_on,,,,,0,0,2,,,,1,43,64
391680,note_off,,,,,512,0,2,,,,1,48,0
391680,note_on,,,,,307,0,1,,,,0,55,64
391885,note_off,,,,,0,0,1,,,,0,62,0
391885,note_off,,,,,205,0,1,,,,0,55,0
391885,note_off,,,,,0,0,1,,,,0,59,0
391885,note_off,,,,,205,0,2,,,,1,43,0
392192,note_on,,,,,0,0,1,,,,0,60,64
392192,note_on,,,,,307,0,2,,,,1,48,64
392192,note_on,,,,,307,0,1,,,,0,55,64
392192,note_on,,,,,0,0,1,,,,0,64,64
392397,note_off,,,,,0,0,1,,,,0,60,0
392397,note_off,,,,,205,0,1,,,,0,55,0
392397,note_off,,,,,0,0,1,,,,0,64,0
392397,note_off,,,,,205,0,2,,,,1,48,0
393216,note_on,,,,,819,0,2,,,,1,43,34
393216,note_on,,,,,819,0,1,,,,0,55,34
393216,note_on,,,,,0,0,1,,,,0,63,34
393216,note_on,,,,,0,0,1,,,,0,67,34
393421,note_off,,,,,205,0,2,,,,1,43,0
393421,note_off,,,,,205,0,1,,,,0,55,0
393421,note_off,,,,,0,0,1,,,,0,63,0
393421,note_off,,,,,0,0,1,,,,0,67,0
393728,note_on,,,,,0,0,1,,,,0,62,37
393728,note_on,,,,,307,0,1,,,,0,55,37
393728,note_on,,,,,307,0,2,,,,1,45,37
393728,note_on,,,,,0,0,1,,,,0,65,37
393933,note_off,,,,,0,0,1,,,,0,65,0
393933,note_off,,,,,0,0,1,,,,0,62,0
393933,note_off,,,,,205,0,1,,,,0,55,0
393984,note_on,,,,,0,0,2,,,,1,47,38
393984,note_off,,,,,256,0,2,,,,1,45,0
394240,note_on,,,,,307,0,1,,,,0,55,40
394240,note_on,,,,,0,0,1,,,,0,63,40
394240,note_on,,,,,0,0,2,,,,1,48,40
394240,note_off,,,,,256,0,2,,,,1,47,0
394240,note_on,,,,,0,0,1,,,,0,60,40
394445,note_off,,,,,205,0,1,,,,0,55,0
394445,note_off,,,,,0,0,1,,,,0,60,0
394445,note_off,,,,,0,0,1,,,,0,63,0
394445,note_off,,,,,205,0,2,,,,1,48,0
394752,note_on,,,,,307,0,1,,,,0,55,42
394752,note_on,,,,,0,0,1,,,,0,62,42
394752,note_on,,,,,0,0,1,,,,0,59,42
394752,note_on,,,,,307,0,2,,,,1,43,42
394957,note_off,,,,,0,0,1,,,,0,62,0
394957,note_off,,,,,0,0,1,,,,0,59,0
394957,note_off,,,,,205,0,1,,,,0,55,0
394957,note_off,,,,,205,0,2,,,,1,43,0
395264,note_on,,,,,0,0,1,,,,0,60,45
395264,note_on,,,,,0,0,1,,,,0,63,45
395264,note_on,,,,,307,0,1,,,,0,55,45
395264,note_on,,,,,307,0,2,,,,1,48,45
395469,note_off,,,,,0,0,1,,,,0,63,0
395469,note_off,,,,,0,0,1,,,,0,60,0
395469,note_off,,,,,205,0,1,,,,0,55,0
395469,note_off,,,,,205,0,2,,,,1,48,0
395776,note_on,,,,,0,0,1,,,,0,65,48
395776,note_on,,,,,0,0,1,,,,0,62,48
395776,note_on,,,,,307,0,2,,,,1,46,48
395776,note_on,,,,,307,0,1,,,,0,58,48
395981,note_off,,,,,205,0,2,,,,1,46,0
395981,note_off,,,,,0,0,1,,,,0,65,0
395981,note_off,,,,,0,0,1,,,,0,62,0
395981,note_off,,,,,205,0,1,,,,0,58,0
396288,note_on,,,,,0,0,1,,,,0,65,51
396288,note_on,,,,,0,0,1,,,,0,62,51
396288,note_on,,,,,307,0,1,,,,0,58,51
396288,note_on,,,,,307,0,2,,,,1,46,51
396800,note_off,,,,,512,0,2,,,,1,46,0
396800,note_on,,,,,0,0,1,,,,0,67,54
396800,note_on,,,,,0,0,1,,,,0,63,54
396800,note_on,,,,,0,0,1,,,,0,58,54
396800,note_off,,,,,0,0,1,,,,0,65,0
396800,note_off,,,,,0,0,1,,,,0,62,0
396800,note_off,,,,,512,0,1,,,,0,58,0
396800,note_on,,,,,0,0,2,,,,1,51,54
397005,note_off,,,,,0,0,1,,,,0,67,0
397005,note_off,,,,,0,0,1,,,,0,63,0
397005,note_off,,,,,205,0,1,,,,0,58,0
397005,note_off,,,,,205,0,2,,,,1,51,0
397312,note_on,,,,,0,0,1,,,,0,67,56
397312,note_on,,,,,0,0,1,,,,0,63,56
397312,note_on,,,,,307,0,1,,,,0,58,56
397312,note_on,,,,,307,0,2,,,,1,51,56
397517,note_off,,,,,0,0,1,,,,0,67,0
397517,note_off,,,,,205,0,1,,,,0,58,0
397517,note_off,,,,,0,0,1,,,,0,63,0
397517,note_off,,,,,205,0,2,,,,1,51,0
397824,note_on,,,,,307,0,1,,,,0,62,59
397824,note_on,,,,,0,0,1,,,,0,69,59
397824,note_on,,,,,0,0,1,,,,0,66,59
397824,note_on,,,,,307,0,2,,,,1,50,59
398029,note_off,,,,,205,0,2,,,,1,50,0
398029,note_off,,,,,205,0,1,,,,0,62,0
398029,note_off,,,,,0,0,1,,,,0,66,0
398029,note_off,,,,,0,0,1,,,,0,69,0
398336,note_on,,,,,307,0,2,,,,1,50,62
398336,note_on,,,,,307,0,1,,,,0,62,62
398336,note_on,,,,,0,0,1,,,,0,66,62
398336,note_on,,,,,0,0,1,,,,0,69,62
398541,note_off,,,,,205,0,1,,,,0,62,0
398541,note_off,,,,,0,0,1,,,,0,66,0
398541,note_off,,,,,205,0,2,,,,1,50,0
398541,note_off,,,,,0,0,1,,,,0,69,0
398848,note_on,,,,,307,0,2,,,,1,55,65
398848,note_on,,,,,0,0,1,,,,0,70,65
398848,note_on,,,,,0,0,1,,,,0,67,65
398848,note_on,,,,,307,0,1,,,,0,62,65
399053,note_off,,,,,0,0,1,,,,0,70,0
399053,note_off,,,,,0,0,1,,,,0,67,0
399053,note_off,,,,,205,0,1,,,,0,62,0
399053,note_off,,,,,205,0,2,,,,1,55,0
399360,note_on,,,,,307,0,2,,,,1,55,67
399360,note_on,,,,,307,0,1,,,,0,62,67
399360,note_on,,,,,0,0,1,,,,0,67,67
399360,note_on,,,,,0,0,1,,,,0,70,67
399872,note_on,,,,,0,0,2,,,,1,55,70
399872,note_on,,,,,0,0,2,,,,1,53,70
399872,note_on,,,,,0,0,2,,,,1,43,70
399872,note_off,,,,,512,0,2,,,,1,55,0
399872,note_off,,,,,512,0,1,,,,0,62,0
399872,note_off,,,,,0,0,1,,,,0,67,0
399872,note_off,,,,,0,0,1,,,,0,70,0
399872,note_on,,,,,0,0,1,,,,0,62,70
399872,note_on,,,,,0,0,1,,,,0,67,70
399872,note_on,,,,,0,0,1,,,,0,71,70
400384,note_off,,,,,0,0,1,,,,0,67,0
400384,note_off,,,,,512,0,1,,,,0,62,0
400384,note_on,,,,,0,0,1,,,,0,62,61
400384,note_on,,,,,0,0,1,,,,0,67,61
400384,note_on,,,,,0,0,1,,,,0,71,61
400384,note_off,,,,,512,0,2,,,,1,43,0
400384,note_off,,,,,0,0,1,,,,0,71,0
400384,note_on,,,,,0,0,2,,,,1,55,61
400384,note_on,,,,,0,0,2,,,,1,53,61
400384,note_on,,,,,0,0,2,,,,1,43,61
400384,note_off,,,,,0,0,2,,,,1,55,0
400384,note_off,,,,,0,0,2,,,,1,53,0
401920,note_on,,,,,0,0,1,,,,0,71,88
401920,note_off,,,,,0,0,1,,,,0,71,0
401920,note_off,,,,,0,0,1,,,,0,67,0
401920,note_off,,,,,1536,0,1,,,,0,62,0
401920,note_on,,,,,0,0,1,,,,0,77,88
401920,note_on,,,,,0,0,1,,,,0,65,88
401920,note_on,,,,,0,0,2,,,,1,55,88
401920,note_on,,,,,0,0,2,,,,1,50,88
401920,note_on,,,,,0,0,2,,,,1,43,88
401920,note_off,,,,,0,0,2,,,,1,55,0
401920,note_off,,,,,0,0,2,,,,1,53,0
401920,note_off,,,,,1536,0,2,,,,1,43,0
402432,note_on,,,,,0,0,2,,,,1,48,64
402432,note_on,,,,,0,0,2,,,,1,55,64
402432,note_off,,,,,512,0,2,,,,1,43,0
402432,note_off,,,,,512,0,1,,,,0,65,0
402432,note_off,,,,,0,0,1,,,,0,71,0
402432,note_off,,,,,0,0,1,,,,0,77,0
402432,note_on,,,,,0,0,1,,,,0,64,64
402432,note_off,,,,,0,0,2,,,,1,55,0
402432,note_on,,,,,0,0,1,,,,0,76,64
402432,note_on,,,,,0,0,1,,,,0,72,64
402432,note_off,,,,,0,0,2,,,,1,50,0
405504,note_off,,,,,3072,0,2,,,,1,48,0
405504,note_off,,,,,0,0,2,,,,1,55,0
405504,note_off,,,,,3072,0,1,,,,0,64,0
405504,note_off,,,,,0,0,1,,,,0,72,0
405504,note_off,,,,,0,0,1,,,,0,76,0
405504,note_on,,,,,0,0,1,,,,0,76,64
406400,note_on,,,,,896,0,1,,,,0,77,64
406528,note_off,,,,,128,0,1,,,,0,76,0
406528,note_off,,,,,0,0,1,,,,0,77,0
406528,note_on,,,,,0,0,1,,,,0,76,64
406869,note_on,,,,,0,0,1,,,,0,72,64
406869,note_off,,,,,341,0,1,,,,0,76,0
407211,note_off,,,,,342,0,1,,,,0,72,0
407211,note_on,,,,,0,0,1,,,,0,69,64
407424,note_on,,,,,213,0,1,,,,0,74,64
407552,note_off,,,,,128,0,1,,,,0,69,0
407552,note_on,,,,,0,0,1,,,,0,72,64
407552,note_off,,,,,0,0,1,,,,0,74,0
407893,note_on,,,,,0,0,1,,,,0,69,64
407893,note_off,,,,,341,0,1,,,,0,72,0
408235,note_off,,,,,342,0,1,,,,0,69,0
408235,note_on,,,,,0,0,1,,,,0,64,64
408576,note_on,,,,,0,0,2,,,,1,64,64
408576,note_on,,,,,0,0,1,,,,0,72,64
408576,note_on,,,,,3072,0,2,,,,1,52,64
408576,note_off,,,,,341,0,1,,,,0,64,0
408576,note_on,,,,,0,0,1,,,,0,69,64
409088,note_off,,,,,512,0,1,,,,0,69,0
409088,note_on,,,,,0,0,1,,,,0,68,64
409088,note_on,,,,,0,0,1,,,,0,71,64
409088,note_off,,,,,0,0,1,,,,0,72,0
409472,note_on,,,,,896,0,2,,,,1,53,64
409600,note_off,,,,,0,0,2,,,,1,53,0
409600,note_off,,,,,0,0,2,,,,1,64,0
409600,note_off,,,,,128,0,2,,,,1,52,0
409600,note_on,,,,,0,0,1,,,,0,64,64
409600,note_on,,,,,0,0,1,,,,0,71,64
409600,note_on,,,,,0,0,1,,,,0,68,64
409600,note_off,,,,,0,0,1,,,,0,71,0
409600,note_off,,,,,512,0,1,,,,0,68,0
409600,note_on,,,,,0,0,2,,,,1,52,64
409805,note_off,,,,,0,0,1,,,,0,71,0
409805,note_off,,,,,205,0,1,,,,0,64,0
409805,note_off,,,,,0,0,1,,,,0,68,0
409941,note_off,,,,,341,0,2,,,,1,52,0
409941,note_on,,,,,0,0,2,,,,1,48,64
410112,note_on,,,,,0,0,1,,,,0,69,64
410112,note_on,,,,,307,0,1,,,,0,64,64
410112,note_on,,,,,0,0,1,,,,0,66,64
410283,note_on,,,,,0,0,2,,,,1,40,64
410283,note_off,,,,,342,0,2,,,,1,48,0
410317,note_off,,,,,0,0,1,,,,0,69,0
410317,note_off,,,,,0,0,1,,,,0,66,0
410317,note_off,,,,,205,0,1,,,,0,64,0
410624,note_off,,,,,341,0,2,,,,1,40,0
410624,note_on,,,,,0,0,2,,,,1,52,64
410624,note_on,,,,,0,0,1,,,,0,71,64
410624,note_on,,,,,307,0,1,,,,0,64,64
410624,note_on,,,,,0,0,1,,,,0,67,64
411648,note_off,,,,,1024,0,1,,,,0,64,0
411648,note_on,,,,,0,0,2,,,,1,67,64
411648,note_on,,,,,0,0,2,,,,1,64,64
411648,note_on,,,,,0,0,2,,,,1,52,64
411648,note_on,,,,,0,0,1,,,,0,72,64
411648,note_off,,,,,0,0,1,,,,0,71,0
411648,note_off,,,,,0,0,1,,,,0,67,0
411648,note_off,,,,,1024,0,2,,,,1,52,0
412160,note_on,,,,,0,0,1,,,,0,71,64
412160,note_off,,,,,512,0,1,,,,0,72,0
412544,note_on,,,,,896,0,2,,,,1,53,64
412672,note_off,,,,,0,0,2,,,,1,64,0
412672,note_off,,,,,128,0,2,,,,1,52,0
412672,note_on,,,,,0,0,2,,,,1,52,64
412672,note_off,,,,,0,0,2,,,,1,67,0
412672,note_off,,,,,512,0,1,,,,0,71,0
412672,note_on,,,,,0,0,1,,,,0,64,64
412672,note_on,,,,,0,0,1,,,,0,67,64
412672,note_on,,,,,0,0,1,,,,0,71,64
412672,note_off,,,,,0,0,2,,,,1,53,0
412877,note_off,,,,,205,0,1,,,,0,64,0
412877,note_off,,,,,0,0,1,,,,0,67,0
412877,note_off,,,,,0,0,1,,,,0,71,0
413013,note_on,,,,,0,0,2,,,,1,55,64
413013,note_off,,,,,341,0,2,,,,1,52,0
413184,note_on,,,,,307,0,1,,,,0,64,64
413184,note_on,,,,,0,0,1,,,,0,67,64
413184,note_on,,,,,0,0,1,,,,0,72,64
413355,note_off,,,,,342,0,2,,,,1,55,0
413355,note_on,,,,,0,0,2,,,,1,60,64
413389,note_off,,,,,0,0,1,,,,0,72,0
413389,note_off,,,,,0,0,1,,,,0,67,0
413389,note_off,,,,,205,0,1,,,,0,64,0
413696,note_on,,,,,0,0,2,,,,1,62,64
413696,note_on,,,,,0,0,2,,,,1,65,64
413696,note_on,,,,,0,0,2,,,,1,67,64
413696,note_on,,,,,307,0,1,,,,0,71,64
413696,note_off,,,,,341,0,2,,,,1,60,0
414208,note_on,,,,,0,0,1,,,,0,77,64
414208,note_off,,,,,512,0,1,,,,0,71,0
414720,note_on,,,,,0,0,1,,,,0,67,64
414720,note_off,,,,,512,0,1,,,,0,77,0
414720,note_on,,,,,0,0,2,,,,1,64,64
414720,note_on,,,,,0,0,2,,,,1,60,64
414720,note_off,,,,,0,0,2,,,,1,67,0
414720,note_off,,,,,0,0,2,,,,1,65,0
414720,note_off,,,,,1024,0,2,,,,1,62,0
414720,note_on,,,,,0,0,1,,,,0,76,64
415616,note_on,,,,,896,0,1,,,,0,74,64
415744,note_on,,,,,0,0,2,,,,1,62,64
415744,note_off,,,,,0,0,2,,,,1,64,0
415744,note_off,,,,,1024,0,2,,,,1,60,0
415744,note_on,,,,,0,0,2,,,,1,66,64
415744,note_off,,,,,0,0,1,,,,0,74,0
415744,note_off,,,,,0,0,1,,,,0,76,0
415744,note_off,,,,,128,0,1,,,,0,67,0
415744,note_on,,,,,0,0,1,,,,0,72,64
415949,note_off,,,,,0,0,2,,,,1,66,0
415949,note_off,,,,,205,0,2,,,,1,62,0
416085,note_off,,,,,341,0,1,,,,0,72,0
416085,note_on,,,,,0,0,1,,,,0,71,64
416256,note_on,,,,,0,0,2,,,,1,66,64
416256,note_on,,,,,307,0,2,,,,1,62,64
416427,note_off,,,,,342,0,1,,,,0,71,0
416427,note_on,,,,,0,0,1,,,,0,69,64
416461,note_off,,,,,0,0,2,,,,1,66,0
416461,note_off,,,,,205,0,2,,,,1,62,0
416768,note_on,,,,,307,0,2,,,,1,55,64
416768,note_on,,,,,0,0,2,,,,1,62,64
416768,note_on,,,,,0,0,2,,,,1,67,64
416768,note_on,,,,,0,0,1,,,,0,71,64
416768,note_off,,,,,341,0,1,,,,0,69,0
417792,note_on,,,,,0,0,2,,,,1,59,88
417792,note_off,,,,,0,0,2,,,,1,67,0
417792,note_off,,,,,0,0,2,,,,1,62,0
417792,note_off,,,,,1024,0,2,,,,1,55,0
417792,note_on,,,,,0,0,1,,,,0,71,88
417792,note_off,,,,,1024,0,1,,,,0,71,0
418688,note_on,,,,,896,0,1,,,,0,72,88
418688,note_on,,,,,896,0,2,,,,1,60,88
418816,note_on,,,,,0,0,2,,,,1,59,88
418816,note_off,,,,,0,0,2,,,,1,60,0
418816,note_off,,,,,128,0,2,,,,1,59,0
418816,note_off,,,,,0,0,1,,,,0,72,0
418816,note_off,,,,,128,0,1,,,,0,71,0
418816,note_on,,,,,0,0,1,,,,0,71,88
419157,note_off,,,,,341,0,1,,,,0,71,0
419157,note_on,,,,,0,0,1,,,,0,67,88
419157,note_off,,,,,341,0,2,,,,1,59,0
419157,note_on,,,,,0,0,2,,,,1,55,88
419499,note_off,,,,,342,0,2,,,,1,55,0
419499,note_on,,,,,0,0,2,,,,1,52,88
419499,note_off,,,,,342,0,1,,,,0,67,0
419499,note_on,,,,,0,0,1,,,,0,64,88
419840,note_off,,,,,341,0,1,,,,0,64,0
419840,note_off,,,,,341,0,2,,,,1,52,0
419840,note_on,,,,,0,0,2,,,,1,67,88
419840,note_on,,,,,0,0,1,,,,0,79,88
420352,note_off,,,,,512,0,2,,,,1,67,0
420352,note_off,,,,,512,0,1,,,,0,79,0
420352,note_on,,,,,0,0,2,,,,1,64,88
420352,note_on,,,,,0,0,1,,,,0,76,88
420608,note_off,,,,,256,0,2,,,,1,64,0
420608,note_off,,,,,256,0,1,,,,0,76,0
420864,note_on,,,,,256,0,2,,,,1,59,88
420864,note_on,,,,,256,0,1,,,,0,71,88
421760,note_on,,,,,896,0,1,,,,0,72,88
421760,note_on,,,,,896,0,2,,,,1,60,88
421888,note_off,,,,,128,0,2,,,,1,59,0
421888,note_on,,,,,0,0,2,,,,1,59,88
421888,note_on,,,,,0,0,1,,,,0,71,88
421888,note_off,,,,,0,0,1,,,,0,72,0
421888,note_off,,,,,128,0,1,,,,0,71,0
421888,note_off,,,,,0,0,2,,,,1,60,0
422229,note_off,,,,,341,0,2,,,,1,59,0
422229,note_on,,,,,0,0,2,,,,1,55,88
422229,note_on,,,,,0,0,1,,,,0,67,88
422229,note_off,,,,,341,0,1,,,,0,71,0
422571,note_on,,,,,0,0,2,,,,1,52,88
422571,note_off,,,,,342,0,2,,,,1,55,0
422571,note_on,,,,,0,0,1,,,,0,64,88
422571,note_off,,,,,342,0,1,,,,0,67,0
422912,note_off,,,,,341,0,2,,,,1,52,0
422912,note_on,,,,,0,0,2,,,,1,67,88
422912,note_on,,,,,0,0,1,,,,0,79,88
422912,note_off,,,,,341,0,1,,,,0,64,0
423424,note_off,,,,,512,0,2,,,,1,67,0
423424,note_on,,,,,0,0,2,,,,1,64,88
423424,note_off,,,,,512,0,1,,,,0,79,0
423424,note_on,,,,,0,0,1,,,,0,76,88
423680,note_off,,,,,256,0,2,,,,1,64,0
423680,note_off,,,,,256,0,1,,,,0,76,0
423936,note_on,,,,,256,0,2,,,,1,47,110
423936,note_on,,,,,256,0,1,,,,0,75,110
423936,note_on,,,,,0,0,1,,,,0,78,110
423936,note_on,,,,,0,0,1,,,,0,83,110
424448,note_off,,,,,0,0,1,,,,0,83,0
424448,note_off,,,,,0,0,1,,,,0,78,0
424448,note_on,,,,,0,0,1,,,,0,71,88
424448,note_off,,,,,512,0,2,,,,1,47,0
424448,note_off,,,,,512,0,1,,,,0,75,0
424448,note_on,,,,,0,0,2,,,,1,59,88
424704,note_off,,,,,256,0,1,,,,0,71,0
424704,note_off,,,,,256,0,2,,,,1,59,0
424832,note_on,,,,,128,0,1,,,,0,81,88
424832,note_on,,,,,128,0,2,,,,1,63,88
424960,note_off,,,,,128,0,1,,,,0,81,0
424960,note_on,,,,,0,0,1,,,,0,79,88
424960,note_on,,,,,0,0,2,,,,1,64,88
424960,note_off,,,,,128,0,2,,,,1,63,0
425301,note_off,,,,,341,0,1,,,,0,79,0
425301,note_on,,,,,0,0,1,,,,0,78,88
425301,note_on,,,,,0,0,2,,,,1,66,88
425301,note_off,,,,,341,0,2,,,,1,64,0
425643,note_off,,,,,342,0,2,,,,1,66,0
425643,note_on,,,,,0,0,2,,,,1,67,88
425643,note_on,,,,,0,0,1,,,,0,76,88
425643,note_off,,,,,342,0,1,,,,0,78,0
425984,note_on,,,,,0,0,1,,,,0,78,110
425984,note_on,,,,,0,0,1,,,,0,75,110
425984,note_off,,,,,341,0,1,,,,0,76,0
425984,note_off,,,,,341,0,2,,,,1,67,0
425984,note_on,,,,,0,0,1,,,,0,83,110
425984,note_on,,,,,0,0,2,,,,1,47,110
426496,note_on,,,,,0,0,1,,,,0,71,88
426496,note_off,,,,,512,0,2,,,,1,47,0
426496,note_on,,,,,0,0,2,,,,1,59,88
426496,note_off,,,,,512,0,1,,,,0,75,0
426496,note_off,,,,,0,0,1,,,,0,78,0
426496,note_off,,,,,0,0,1,,,,0,83,0
426752,note_off,,,,,256,0,2,,,,1,59,0
426752,note_off,,,,,256,0,1,,,,0,71,0
426880,note_on,,,,,128,0,2,,,,1,63,88
426880,note_on,,,,,128,0,1,,,,0,81,88
427008,note_off,,,,,128,0,2,,,,1,63,0
427008,note_on,,,,,0,0,1,,,,0,79,88
427008,note_off,,,,,128,0,1,,,,0,81,0
427008,note_on,,,,,0,0,2,,,,1,64,88
427349,note_off,,,,,341,0,2,,,,1,64,0
427349,note_on,,,,,0,0,2,,,,1,66,88
427349,note_off,,,,,341,0,1,,,,0,79,0
427349,note_on,,,,,0,0,1,,,,0,78,88
427691,note_on,,,,,0,0,2,,,,1,67,88
427691,note_off,,,,,342,0,2,,,,1,66,0
427691,note_on,,,,,0,0,1,,,,0,76,88
427691,note_off,,,,,342,0,1,,,,0,78,0
428032,note_on,,,,,0,0,1,,,,0,78,110
428032,note_off,,,,,341,0,2,,,,1,67,0
428032,note_on,,,,,0,0,2,,,,1,47,110
428032,note_on,,,,,0,0,1,,,,0,83,110
428032,note_on,,,,,0,0,1,,,,0,75,110
428032,note_off,,,,,341,0,1,,,,0,76,0
428544,note_off,,,,,512,0,2,,,,1,47,0
428544,note_off,,,,,512,0,1,,,,0,75,0
428544,note_off,,,,,0,0,1,,,,0,78,0
428544,note_off,,,,,0,0,1,,,,0,83,0
428544,note_on,,,,,0,0,1,,,,0,71,88
428544,note_on,,,,,0,0,2,,,,1,59,88
428800,note_off,,,,,256,0,2,,,,1,59,0
428800,note_off,,,,,256,0,1,,,,0,71,0
429056,note_on,,,,,256,0,2,,,,1,35,110
429056,note_on,,,,,256,0,1,,,,0,95,110
429568,note_on,,,,,0,0,1,,,,0,83,88
429568,note_off,,,,,512,0,2,,,,1,35,0
429568,note_on,,,,,0,0,2,,,,1,47,88
429568,note_off,,,,,512,0,1,,,,0,95,0
429824,note_off,,,,,256,0,2,,,,1,47,0
429824,note_off,,,,,256,0,1,,,,0,83,0
433152,note_on,,,,,3328,0,1,,,,0,79,64
433152,note_on,,,,,3328,0,2,,,,1,64,64
433664,note_off,,,,,512,0,1,,,,0,79,0
433664,note_on,,,,,0,0,1,,,,0,76,63
433664,note_on,,,,,0,0,2,,,,1,67,63
433664,note_off,,,,,512,0,2,,,,1,64,0
433920,note_off,,,,,256,0,2,,,,1,67,0
433920,note_off,,,,,256,0,1,,,,0,76,0
434176,note_on,,,,,256,0,2,,,,1,64,61
434176,note_on,,,,,256,0,1,,,,0,79,61
434688,note_on,,,,,0,0,1,,,,0,76,60
434688,note_off,,,,,512,0,2,,,,1,64,0
434688,note_on,,,,,0,0,2,,,,1,67,60
434688,note_off,,,,,512,0,1,,,,0,79,0
434944,note_off,,,,,256,0,1,,,,0,76,0
434944,note_off,,,,,256,0,2,,,,1,67,0
435200,note_on,,,,,256,0,1,,,,0,79,59
435200,note_on,,,,,256,0,2,,,,1,64,59
435712,note_off,,,,,512,0,1,,,,0,79,0
435712,note_on,,,,,0,0,2,,,,1,67,58
435712,note_off,,,,,512,0,2,,,,1,64,0
435712,note_on,,,,,0,0,1,,,,0,76,58
435968,note_off,,,,,256,0,2,,,,1,67,0
435968,note_off,,,,,256,0,1,,,,0,76,0
436224,note_on,,,,,256,0,2,,,,1,64,56
436224,note_on,,,,,256,0,1,,,,0,79,56
436736,note_off,,,,,512,0,1,,,,0,79,0
436736,note_on,,,,,0,0,1,,,,0,76,55
436736,note_off,,,,,512,0,2,,,,1,64,0
436736,note_on,,,,,0,0,2,,,,1,67,55
436992,note_off,,,,,256,0,1,,,,0,76,0
436992,note_off,,,,,256,0,2,,,,1,67,0
437248,note_on,,,,,256,0,1,,,,0,79,54
437248,note_on,,,,,256,0,2,,,,1,64,54
437760,note_on,,,,,0,0,1,,,,0,76,53
437760,note_on,,,,,0,0,2,,,,1,67,53
437760,note_off,,,,,512,0,2,,,,1,64,0
437760,note_off,,,,,512,0,1,,,,0,79,0
438016,note_off,,,,,256,0,1,,,,0,76,0
438016,note_off,,,,,256,0,2,,,,1,67,0
438272,note_on,,,,,256,0,2,,,,1,64,51
438272,note_on,,,,,256,0,1,,,,0,79,51
438784,note_off,,,,,512,0,2,,,,1,64,0
438784,note_on,,,,,0,0,1,,,,0,76,50
438784,note_off,,,,,512,0,1,,,,0,79,0
438784,note_on,,,,,0,0,2,,,,1,67,50
439040,note_off,,,,,256,0,1,,,,0,76,0
439040,note_off,,,,,256,0,2,,,,1,67,0
439296,note_on,,,,,256,0,1,,,,0,76,49
439296,note_on,,,,,0,0,1,,,,0,79,41
439296,note_on,,,,,256,0,2,,,,1,55,49
439808,note_on,,,,,0,0,1,,,,0,67,40
439808,note_off,,,,,0,0,1,,,,0,79,0
439808,note_off,,,,,512,0,1,,,,0,76,0
440064,note_off,,,,,256,0,1,,,,0,67,0
440192,note_on,,,,,896,0,2,,,,1,57,49
440320,note_on,,,,,256,0,1,,,,0,76,49
440320,note_off,,,,,128,0,2,,,,1,55,0
440320,note_off,,,,,0,0,2,,,,1,57,0
440320,note_on,,,,,0,0,2,,,,1,55,49
440320,note_on,,,,,0,0,1,,,,0,79,39
440661,note_on,,,,,0,0,2,,,,1,52,49
440661,note_off,,,,,341,0,2,,,,1,55,0
440832,note_off,,,,,512,0,1,,,,0,76,0
440832,note_off,,,,,0,0,1,,,,0,79,0
440832,note_on,,,,,0,0,1,,,,0,67,38
441003,note_on,,,,,0,0,2,,,,1,48,49
441003,note_off,,,,,342,0,2,,,,1,52,0
441088,note_off,,,,,256,0,1,,,,0,67,0
441344,note_on,,,,,0,0,2,,,,1,55,49
441344,note_off,,,,,341,0,2,,,,1,48,0
441344,note_on,,,,,0,0,1,,,,0,79,36
441344,note_on,,,,,256,0,1,,,,0,76,49
441856,note_off,,,,,0,0,1,,,,0,79,0
441856,note_on,,,,,0,0,1,,,,0,67,35
441856,note_off,,,,,512,0,1,,,,0,76,0
442112,note_on,,,,,0,0,2,,,,1,64,49
442112,note_off,,,,,768,0,2,,,,1,55,0
442112,note_off,,,,,256,0,1,,,,0,67,0
442368,note_on,,,,,256,0,1,,,,0,76,49
442368,note_off,,,,,256,0,2,,,,1,64,0
442368,note_on,,,,,0,0,2,,,,1,64,61
442368,note_on,,,,,0,0,1,,,,0,79,41
442880,note_on,,,,,0,0,1,,,,0,67,40
442880,note_off,,,,,0,0,1,,,,0,79,0
442880,note_off,,,,,512,0,1,,,,0,76,0
443136,note_off,,,,,256,0,1,,,,0,67,0
443392,note_on,,,,,0,0,1,,,,0,79,39
443392,note_on,,,,,256,0,1,,,,0,76,49
443904,note_off,,,,,0,0,1,,,,0,79,0
443904,note_on,,,,,0,0,1,,,,0,67,38
443904,note_off,,,,,512,0,1,,,,0,76,0
444160,note_off,,,,,256,0,1,,,,0,67,0
444416,note_on,,,,,256,0,1,,,,0,76,49
444416,note_on,,,,,0,0,2,,,,1,60,49
444416,note_off,,,,,2048,0,2,,,,1,64,0
444416,note_on,,,,,0,0,1,,,,0,79,36
444928,note_off,,,,,512,0,1,,,,0,76,0
444928,note_off,,,,,0,0,1,,,,0,79,0
444928,note_on,,,,,0,0,1,,,,0,67,35
444928,note_off,,,,,512,0,2,,,,1,60,0
445184,note_off,,,,,256,0,1,,,,0,67,0
445440,note_on,,,,,256,0,1,,,,0,67,64
446336,note_on,,,,,896,0,1,,,,0,69,64
446464,note_off,,,,,128,0,1,,,,0,67,0
446464,note_off,,,,,0,0,1,,,,0,69,0
446464,note_on,,,,,0,0,1,,,,0,67,64
446805,note_off,,,,,341,0,1,,,,0,67,0
446805,note_on,,,,,0,0,1,,,,0,64,64
447147,note_off,,,,,342,0,1,,,,0,64,0
447147,note_on,,,,,0,0,1,,,,0,60,64
447488,note_off,,,,,341,0,1,,,,0,60,0
447488,note_on,,,,,0,0,1,,,,0,67,64
448256,note_off,,,,,768,0,1,,,,0,67,0
448256,note_on,,,,,0,0,1,,,,0,76,64
448512,note_on,,,,,0,0,1,,,,0,76,64
448512,note_on,,,,,3584,0,2,,,,1,55,64
448512,note_off,,,,,256,0,1,,,,0,76,0
449408,note_on,,,,,896,0,2,,,,1,57,64
449536,note_on,,,,,0,0,2,,,,1,55,64
449536,note_off,,,,,0,0,2,,,,1,57,0
449536,note_off,,,,,128,0,2,,,,1,55,0
449877,note_off,,,,,341,0,2,,,,1,55,0
449877,note_on,,,,,0,0,2,,,,1,52,64
450219,note_on,,,,,0,0,2,,,,1,48,64
450219,note_off,,,,,342,0,2,,,,1,52,0
450560,note_off,,,,,341,0,2,,,,1,48,0
450560,note_on,,,,,0,0,2,,,,1,55,64
450560,note_on,,,,,0,0,1,,,,0,72,64
450560,note_off,,,,,2048,0,1,,,,0,76,0
451072,note_off,,,,,512,0,1,,,,0,72,0
451328,note_off,,,,,768,0,2,,,,1,55,0
451328,note_on,,,,,0,0,2,,,,1,64,64
451584,note_on,,,,,512,0,1,,,,0,79,64
451584,note_off,,,,,256,0,2,,,,1,64,0
451584,note_on,,,,,0,0,2,,,,1,64,80
452480,note_on,,,,,896,0,1,,,,0,77,64
452608,note_on,,,,,0,0,1,,,,0,76,64
452608,note_off,,,,,128,0,1,,,,0,79,0
452608,note_off,,,,,0,0,1,,,,0,77,0
452949,note_on,,,,,0,0,1,,,,0,72,64
452949,note_off,,,,,341,0,1,,,,0,76,0
453291,note_on,,,,,0,0,1,,,,0,67,64
453291,note_off,,,,,342,0,1,,,,0,72,0
453632,note_on,,,,,0,0,2,,,,1,60,64
453632,note_off,,,,,341,0,1,,,,0,67,0
453632,note_on,,,,,0,0,1,,,,0,72,64
453632,note_off,,,,,2048,0,2,,,,1,64,0
453973,note_off,,,,,341,0,1,,,,0,72,0
453973,note_on,,,,,0,0,1,,,,0,76,64
454144,note_off,,,,,512,0,2,,,,1,60,0
454315,note_off,,,,,342,0,1,,,,0,76,0
454315,note_on,,,,,0,0,1,,,,0,79,64
454656,note_on,,,,,512,0,2,,,,1,43,64
454656,note_on,,,,,0,0,1,,,,0,79,64
454656,note_on,,,,,0,0,1,,,,0,76,64
454656,note_on,,,,,0,0,1,,,,0,67,64
454656,note_off,,,,,341,0,1,,,,0,79,0
454861,note_off,,,,,205,0,2,,,,1,43,0
455168,note_on,,,,,0,0,1,,,,0,74,64
455168,note_on,,,,,0,0,1,,,,0,67,64
455168,note_off,,,,,0,0,1,,,,0,79,0
455168,note_off,,,,,512,0,1,,,,0,67,0
455168,note_on,,,,,307,0,2,,,,1,45,64
455168,note_on,,,,,0,0,1,,,,0,77,64
455168,note_off,,,,,0,0,1,,,,0,76,0
455373,note_off,,,,,205,0,1,,,,0,67,0
455373,note_off,,,,,0,0,1,,,,0,77,0
455373,note_off,,,,,0,0,1,,,,0,74,0
455424,note_on,,,,,0,0,2,,,,1,47,64
455424,note_off,,,,,256,0,2,,,,1,45,0
455680,note_on,,,,,307,0,1,,,,0,67,64
455680,note_on,,,,,0,0,2,,,,1,48,64
455680,note_off,,,,,256,0,2,,,,1,47,0
455680,note_on,,,,,0,0,1,,,,0,72,64
455680,note_on,,,,,0,0,1,,,,0,76,64
455885,note_off,,,,,0,0,1,,,,0,76,0
455885,note_off,,,,,0,0,1,,,,0,72,0
455885,note_off,,,,,205,0,1,,,,0,67,0
456192,note_off,,,,,512,0,2,,,,1,48,0
456192,note_on,,,,,0,0,2,,,,1,43,64
456192,note_on,,,,,307,0,1,,,,0,67,64
456192,note_on,,,,,0,0,1,,,,0,71,64
456192,note_on,,,,,0,0,1,,,,0,74,64
456397,note_off,,,,,0,0,1,,,,0,71,0
456397,note_off,,,,,0,0,1,,,,0,74,0
456397,note_off,,,,,205,0,2,,,,1,43,0
456397,note_off,,,,,205,0,1,,,,0,67,0
456704,note_on,,,,,307,0,1,,,,0,67,64
456704,note_on,,,,,0,0,1,,,,0,72,64
456704,note_on,,,,,0,0,1,,,,0,76,64
456704,note_on,,,,,307,0,2,,,,1,48,64
456909,note_off,,,,,205,0,2,,,,1,48,0
456909,note_off,,,,,205,0,1,,,,0,67,0
456909,note_off,,,,,0,0,1,,,,0,72,0
456909,note_off,,,,,0,0,1,,,,0,76,0
457728,note_on,,,,,0,0,2,,,,1,55,49
457728,note_on,,,,,819,0,2,,,,1,51,49
457728,note_on,,,,,819,0,1,,,,0,67,49
457933,note_off,,,,,205,0,1,,,,0,67,0
457933,note_off,,,,,205,0,2,,,,1,51,0
457933,note_off,,,,,0,0,2,,,,1,55,0
458240,note_on,,,,,0,0,2,,,,1,55,52
458240,note_on,,,,,307,0,1,,,,0,69,52
458240,note_on,,,,,0,0,2,,,,1,53,52
458240,note_on,,,,,307,0,2,,,,1,50,52
458445,note_off,,,,,0,0,2,,,,1,55,0
458445,note_off,,,,,0,0,2,,,,1,53,0
458445,note_off,,,,,205,0,2,,,,1,50,0
458496,note_on,,,,,0,0,1,,,,0,71,53
458496,note_off,,,,,256,0,1,,,,0,69,0
458752,note_on,,,,,0,0,1,,,,0,72,54
458752,note_off,,,,,256,0,1,,,,0,71,0
458752,note_on,,,,,0,0,2,,,,1,55,54
458752,note_on,,,,,307,0,2,,,,1,48,54
458752,note_on,,,,,0,0,2,,,,1,51,54
458957,note_off,,,,,205,0,2,,,,1,48,0
458957,note_off,,,,,0,0,2,,,,1,51,0
458957,note_off,,,,,0,0,2,,,,1,55,0
458957,note_off,,,,,205,0,1,,,,0,72,0
459264,note_on,,,,,307,0,2,,,,1,47,57
459264,note_on,,,,,0,0,2,,,,1,55,57
459264,note_on,,,,,307,0,1,,,,0,67,57
459264,note_on,,,,,0,0,2,,,,1,50,57
459469,note_off,,,,,0,0,2,,,,1,55,0
459469,note_off,,,,,0,0,2,,,,1,50,0
459469,note_off,,,,,205,0,2,,,,1,47,0
459469,note_off,,,,,205,0,1,,,,0,67,0
459776,note_on,,,,,0,0,2,,,,1,55,60
459776,note_on,,,,,0,0,2,,,,1,51,60
459776,note_on,,,,,307,0,2,,,,1,48,60
459776,note_on,,,,,307,0,1,,,,0,72,60
459981,note_off,,,,,205,0,2,,,,1,48,0
459981,note_off,,,,,0,0,2,,,,1,55,0
459981,note_off,,,,,0,0,2,,,,1,51,0
459981,note_off,,,,,205,0,1,,,,0,72,0
460288,note_on,,,,,307,0,2,,,,1,50,62
460288,note_on,,,,,0,0,2,,,,1,53,62
460288,note_on,,,,,307,0,1,,,,0,70,62
460288,note_on,,,,,0,0,1,,,,0,82,62
460288,note_on,,,,,0,0,2,,,,1,58,62
460493,note_off,,,,,0,0,1,,,,0,82,0
460493,note_off,,,,,0,0,2,,,,1,53,0
460493,note_off,,,,,205,0,2,,,,1,50,0
460493,note_off,,,,,0,0,2,,,,1,58,0
460493,note_off,,,,,205,0,1,,,,0,70,0
460800,note_on,,,,,0,0,2,,,,1,56,65
460800,note_on,,,,,0,0,2,,,,1,58,65
460800,note_on,,,,,307,0,2,,,,1,53,65
460800,note_on,,,,,307,0,1,,,,0,70,65
460800,note_on,,,,,0,0,1,,,,0,82,65
461312,note_on,,,,,0,0,1,,,,0,87,68
461312,note_off,,,,,512,0,1,,,,0,70,0
461312,note_on,,,,,0,0,1,,,,0,75,68
461312,note_off,,,,,512,0,2,,,,1,53,0
461312,note_off,,,,,0,0,2,,,,1,56,0
461312,note_off,,,,,0,0,2,,,,1,58,0
461312,note_on,,,,,0,0,2,,,,1,51,68
461312,note_on,,,,,0,0,2,,,,1,55,68
461312,note_on,,,,,0,0,2,,,,1,58,68
461312,note_off,,,,,0,0,1,,,,0,82,0
461517,note_off,,,,,205,0,2,,,,1,51,0
461517,note_off,,,,,0,0,1,,,,0,87,0
461517,note_off,,,,,0,0,2,,,,1,55,0
461517,note_off,,,,,205,0,1,,,,0,75,0
461517,note_off,,,,,0,0,2,,,,1,58,0
461824,note_on,,,,,307,0,2,,,,1,51,70
461824,note_on,,,,,0,0,2,,,,1,55,70
461824,note_on,,,,,0,0,2,,,,1,58,70
461824,note_on,,,,,0,0,1,,,,0,87,70
461824,note_on,,,,,307,0,1,,,,0,75,70
462029,note_off,,,,,205,0,2,,,,1,51,0
462029,note_off,,,,,0,0,2,,,,1,55,0
462029,note_off,,,,,0,0,2,,,,1,58,0
462029,note_off,,,,,0,0,1,,,,0,87,0
462029,note_off,,,,,205,0,1,,,,0,75,0
462336,note_on,,,,,0,0,1,,,,0,86,73
462336,note_on,,,,,307,0,1,,,,0,74,73
462336,note_on,,,,,307,0,2,,,,1,54,73
462336,note_on,,,,,0,0,2,,,,1,62,73
462336,note_on,,,,,0,0,2,,,,1,57,73
462541,note_off,,,,,0,0,2,,,,1,62,0
462541,note_off,,,,,0,0,2,,,,1,57,0
462541,note_off,,,,,205,0,2,,,,1,54,0
462541,note_off,,,,,205,0,1,,,,0,74,0
462541,note_off,,,,,0,0,1,,,,0,86,0
462848,note_on,,,,,0,0,2,,,,1,62,75
462848,note_on,,,,,0,0,2,,,,1,60,75
462848,note_on,,,,,307,0,2,,,,1,57,75
462848,note_on,,,,,307,0,1,,,,0,74,75
462848,note_on,,,,,0,0,1,,,,0,86,75
463360,note_off,,,,,0,0,2,,,,1,60,0
463360,note_on,,,,,0,0,2,,,,1,62,78
463360,note_on,,,,,0,0,2,,,,1,58,78
463360,note_on,,,,,0,0,2,,,,1,55,78
463360,note_off,,,,,0,0,2,,,,1,62,0
463360,note_off,,,,,512,0,2,,,,1,57,0
463360,note_off,,,,,512,0,1,,,,0,74,0
463360,note_off,,,,,0,0,1,,,,0,86,0
463360,note_on,,,,,0,0,1,,,,0,79,78
463360,note_on,,,,,0,0,1,,,,0,91,78
463565,note_off,,,,,205,0,1,,,,0,79,0
463565,note_off,,,,,0,0,2,,,,1,62,0
463565,note_off,,,,,0,0,2,,,,1,58,0
463565,note_off,,,,,205,0,2,,,,1,55,0
463565,note_off,,,,,0,0,1,,,,0,91,0
463872,note_on,,,,,307,0,1,,,,0,79,81
463872,note_on,,,,,307,0,2,,,,1,55,81
463872,note_on,,,,,0,0,2,,,,1,58,81
463872,note_on,,,,,0,0,2,,,,1,62,81
463872,note_on,,,,,0,0,1,,,,0,91,81
464077,note_off,,,,,0,0,2,,,,1,58,0
464077,note_off,,,,,0,0,2,,,,1,62,0
464077,note_off,,,,,205,0,1,,,,0,79,0
464077,note_off,,,,,0,0,1,,,,0,91,0
464077,note_off,,,,,205,0,2,,,,1,55,0
464384,note_on,,,,,307,0,1,,,,0,77,83
464384,note_on,,,,,0,0,1,,,,0,89,83
464384,note_on,,,,,0,0,2,,,,1,59,83
464384,note_on,,,,,0,0,2,,,,1,50,83
464384,note_on,,,,,307,0,2,,,,1,43,83
464589,note_off,,,,,0,0,2,,,,1,59,0
464589,note_off,,,,,0,0,1,,,,0,89,0
464589,note_off,,,,,205,0,2,,,,1,43,0
464589,note_off,,,,,205,0,1,,,,0,77,0
464589,note_off,,,,,0,0,2,,,,1,50,0
464896,note_on,,,,,307,0,2,,,,1,43,126
464896,note_on,,,,,0,0,1,,,,0,89,126
464896,note_on,,,,,307,0,1,,,,0,77,126
464896,note_on,,,,,0,0,2,,,,1,50,126
464896,note_on,,,,,0,0,2,,,,1,59,126
466432,note_on,,,,,0,0,2,,,,1,65,64
466432,note_off,,,,,0,0,2,,,,1,59,0
466432,note_off,,,,,0,0,2,,,,1,50,0
466432,note_off,,,,,1536,0,1,,,,0,77,0
466432,note_off,,,,,0,0,1,,,,0,89,0
466432,note_on,,,,,0,0,1,,,,0,71,64
466432,note_on,,,,,0,0,1,,,,0,83,64
466432,note_on,,,,,0,0,2,,,,1,67,64
466432,note_off,,,,,1536,0,2,,,,1,43,0
466432,note_on,,,,,0,0,2,,,,1,55,64
466944,note_off,,,,,512,0,2,,,,1,55,0
466944,note_off,,,,,0,0,2,,,,1,65,0
466944,note_on,,,,,0,0,1,,,,0,84,64
466944,note_off,,,,,0,0,2,,,,1,67,0
466944,note_on,,,,,0,0,2,,,,1,67,64
466944,note_on,,,,,0,0,2,,,,1,64,64
466944,note_off,,,,,512,0,1,,,,0,71,0
466944,note_off,,,,,0,0,1,,,,0,83,0
466944,note_on,,,,,0,0,1,,,,0,72,64
466944,note_on,,,,,0,0,2,,,,1,60,64
470016,note_off,,,,,3072,0,2,,,,1,60,0
470016,note_off,,,,,0,0,2,,,,1,64,0
470016,note_off,,,,,0,0,1,,,,0,84,0
470016,note_off,,,,,0,0,2,,,,1,67,0
470016,end_of_track,,,,,0,1,1,,,,,,
470016,note_off,,,,,3072,0,1,,,,0,72,0
470016,end_of_track,,,,,89088,1,0,,,,,,
470016,end_of_track,,,,,0,1,2,,,,,,
