tick,type,numerator,denominator,clocks_per_click,notated_32nd_notes_per_beat,time,meta,track,key,tempo,program,channel,note,velocity
0,time_signature,2,4,24,8,0,1,0,,,,,,
0,note_on,,,,,0,0,1,,,,0,80,110
0,note_on,,,,,0,0,1,,,,0,72,110
0,track_name,,,,,0,1,2,,,,,,
0,program_change,,,,,0,0,1,,,0,0,,
0,track_name,,,,,0,1,1,,,,,,
0,note_on,,,,,0,0,1,,,,0,68,110
0,note_on,,,,,0,0,2,,,,1,41,94
0,program_change,,,,,0,0,2,,,0,1,,
0,set_tempo,,,,,0,1,0,,263157,,,,
0,set_tempo,,,,,0,1,0,,288461,,,,
0,key_signature,,,,,0,1,0,Fm,,,,,
0,note_on,,,,,0,0,2,,,,1,53,94
1024,note_off,,,,,1024,0,2,,,,1,41,0
1024,note_on,,,,,0,0,1,,,,0,79,88
1024,note_on,,,,,0,0,1,,,,0,72,88
1024,note_on,,,,,0,0,1,,,,0,68,88
1024,note_off,,,,,0,0,1,,,,0,80,0
1024,note_off,,,,,1024,0,1,,,,0,68,0
1024,note_on,,,,,0,0,2,,,,1,53,75
1024,note_off,,,,,0,0,2,,,,1,53,0
1024,note_off,,,,,0,0,1,,,,0,72,0
1229,note_off,,,,,205,0,2,,,,1,53,0
1229,note_off,,,,,205,0,1,,,,0,68,0
1229,note_off,,,,,0,0,1,,,,0,72,0
1229,note_off,,,,,0,0,1,,,,0,79,0
1536,note_on,,,,,0,0,1,,,,0,77,88
1536,note_on,,,,,307,0,2,,,,1,53,75
1536,note_on,,,,,0,0,1,,,,0,72,88
1536,note_on,,,,,307,0,1,,,,0,68,88
1741,note_off,,,,,205,0,2,,,,1,53,0
1741,note_off,,,,,205,0,1,,,,0,68,0
1741,note_off,,,,,0,0,1,,,,0,72,0
1741,note_off,,,,,0,0,1,,,,0,77,0
2048,note_on,,,,,0,0,1,,,,0,72,110
2048,note_on,,,,,0,0,1,,,,0,77,110
2048,note_on,,,,,307,0,1,,,,0,68,110
2048,note_on,,,,,0,0,2,,,,1,53,94
2048,note_on,,,,,307,0,2,,,,1,41,94
3072,note_off,,,,,1024,0,1,,,,0,68,0
3072,note_off,,,,,0,0,1,,,,0,72,0
3072,note_off,,,,,0,0,1,,,,0,77,0
3072,note_on,,,,,0,0,1,,,,0,68,88
3072,note_on,,,,,0,0,1,,,,0,72,88
3072,note_off,,,,,0,0,2,,,,1,53,0
3072,note_off,,,,,1024,0,2,,,,1,41,0
3072,note_on,,,,,0,0,2,,,,1,53,75
3277,note_off,,,,,205,0,2,,,,1,53,0
3277,note_off,,,,,0,0,1,,,,0,72,0
3277,note_off,,,,,205,0,1,,,,0,68,0
3584,note_on,,,,,0,0,1,,,,0,72,88
3584,note_on,,,,,307,0,1,,,,0,68,88
3584,note_on,,,,,307,0,2,,,,1,53,75
3789,note_off,,,,,205,0,2,,,,1,53,0
3789,note_off,,,,,205,0,1,,,,0,68,0
3789,note_off,,,,,0,0,1,,,,0,72,0
4096,note_on,,,,,0,0,2,,,,1,53,94
4096,note_on,,,,,0,0,1,,,,0,73,110
4096,note_on,,,,,307,0,1,,,,0,70,110
4096,note_on,,,,,0,0,1,,,,0,77,110
4096,note_on,,,,,307,0,2,,,,1,41,94
5120,note_on,,,,,0,0,1,,,,0,70,88
5120,note_off,,,,,1024,0,2,,,,1,41,0
5120,note_off,,,,,0,0,2,,,,1,53,0
5120,note_on,,,,,0,0,2,,,,1,53,75
5120,note_on,,,,,0,0,1,,,,0,73,88
5120,note_off,,,,,0,0,1,,,,0,77,0
5120,note_off,,,,,1024,0,1,,,,0,70,0
5120,note_off,,,,,0,0,1,,,,0,73,0
5325,note_off,,,,,0,0,1,,,,0,73,0
5325,note_off,,,,,205,0,1,,,,0,70,0
5325,note_off,,,,,205,0,2,,,,1,53,0
5632,note_on,,,,,307,0,2,,,,1,53,75
5632,note_on,,,,,307,0,1,,,,0,70,88
5632,note_on,,,,,0,0,1,,,,0,73,88
5837,note_off,,,,,205,0,2,,,,1,53,0
5837,note_off,,,,,205,0,1,,,,0,70,0
5837,note_off,,,,,0,0,1,,,,0,73,0
6144,note_on,,,,,0,0,1,,,,0,72,110
6144,note_on,,,,,0,0,1,,,,0,77,110
6144,note_on,,,,,307,0,2,,,,1,41,94
6144,note_on,,,,,307,0,1,,,,0,68,110
6144,note_on,,,,,0,0,2,,,,1,53,94
7168,note_on,,,,,0,0,1,,,,0,68,88
7168,note_off,,,,,1024,0,1,,,,0,68,0
7168,note_on,,,,,0,0,1,,,,0,72,88
7168,note_on,,,,,0,0,2,,,,1,53,75
7168,note_off,,,,,0,0,2,,,,1,53,0
7168,note_off,,,,,1024,0,2,,,,1,41,0
7168,note_off,,,,,0,0,1,,,,0,77,0
7168,note_off,,,,,0,0,1,,,,0,72,0
7373,note_off,,,,,205,0,2,,,,1,53,0
7373,note_off,,,,,205,0,1,,,,0,68,0
7373,note_off,,,,,0,0,1,,,,0,72,0
7680,note_on,,,,,0,0,1,,,,0,72,88
7680,note_on,,,,,307,0,1,,,,0,68,88
7680,note_on,,,,,307,0,2,,,,1,53,75
7885,note_off,,,,,0,0,1,,,,0,72,0
7885,note_off,,,,,205,0,1,,,,0,68,0
7885,note_off,,,,,205,0,2,,,,1,53,0
8192,note_on,,,,,307,0,1,,,,0,68,64
8192,note_on,,,,,307,0,2,,,,1,29,49
8192,note_on,,,,,0,0,2,,,,1,41,49
8192,note_on,,,,,0,0,1,,,,0,72,64
9216,note_off,,,,,0,0,2,,,,1,41,0
9216,note_off,,,,,1024,0,2,,,,1,29,0
9216,note_on,,,,,0,0,2,,,,1,41,49
9216,note_on,,,,,0,0,1,,,,0,68,64
9216,note_off,,,,,1024,0,1,,,,0,68,0
9216,note_off,,,,,0,0,1,,,,0,72,0
9216,note_on,,,,,0,0,1,,,,0,67,64
9216,note_on,,,,,0,0,1,,,,0,72,64
9421,note_off,,,,,205,0,1,,,,0,67,0
9421,note_off,,,,,0,0,1,,,,0,68,0
9421,note_off,,,,,0,0,1,,,,0,72,0
9421,note_off,,,,,205,0,2,,,,1,41,0
9728,note_on,,,,,307,0,1,,,,0,65,64
9728,note_on,,,,,0,0,1,,,,0,72,64
9728,note_on,,,,,307,0,2,,,,1,41,49
9728,note_on,,,,,0,0,1,,,,0,68,64
9933,note_off,,,,,0,0,1,,,,0,68,0
9933,note_off,,,,,205,0,1,,,,0,65,0
9933,note_off,,,,,205,0,2,,,,1,41,0
9933,note_off,,,,,0,0,1,,,,0,72,0
10240,note_on,,,,,307,0,2,,,,1,29,49
10240,note_on,,,,,0,0,1,,,,0,68,80
10240,note_on,,,,,0,0,2,,,,1,41,49
10240,note_on,,,,,307,0,1,,,,0,65,80
10240,note_on,,,,,0,0,1,,,,0,72,80
11264,note_off,,,,,0,0,1,,,,0,68,0
11264,note_on,,,,,0,0,1,,,,0,72,64
11264,note_off,,,,,0,0,1,,,,0,72,0
11264,note_off,,,,,1024,0,1,,,,0,65,0
11264,note_off,,,,,1024,0,2,,,,1,29,0
11264,note_off,,,,,0,0,2,,,,1,41,0
11264,note_on,,,,,0,0,2,,,,1,41,49
11264,note_on,,,,,0,0,1,,,,0,68,64
11264,note_on,,,,,0,0,1,,,,0,60,64
11469,note_off,,,,,0,0,1,,,,0,72,0
11469,note_off,,,,,0,0,1,,,,0,68,0
11469,note_off,,,,,205,0,1,,,,0,60,0
11469,note_off,,,,,205,0,2,,,,1,41,0
11776,note_on,,,,,0,0,1,,,,0,72,64
11776,note_on,,,,,307,0,2,,,,1,41,49
11776,note_on,,,,,307,0,1,,,,0,60,64
11776,note_on,,,,,0,0,1,,,,0,68,64
11981,note_off,,,,,205,0,1,,,,0,60,0
11981,note_off,,,,,0,0,1,,,,0,68,0
11981,note_off,,,,,0,0,1,,,,0,72,0
11981,note_off,,,,,205,0,2,,,,1,41,0
12288,note_on,,,,,307,0,1,,,,0,65,80
12288,note_on,,,,,307,0,2,,,,1,29,49
12288,note_on,,,,,0,0,2,,,,1,41,49
12288,note_on,,,,,0,0,1,,,,0,73,80
12288,note_on,,,,,0,0,1,,,,0,70,80
13312,note_off,,,,,1024,0,2,,,,1,29,0
13312,note_off,,,,,0,0,2,,,,1,41,0
13312,note_on,,,,,0,0,2,,,,1,41,49
13312,note_on,,,,,0,0,1,,,,0,73,64
13312,note_off,,,,,1024,0,1,,,,0,65,0
13312,note_on,,,,,0,0,1,,,,0,70,64
13312,note_on,,,,,0,0,1,,,,0,61,64
13312,note_off,,,,,0,0,1,,,,0,73,0
13312,note_off,,,,,0,0,1,,,,0,70,0
13517,note_off,,,,,0,0,1,,,,0,73,0
13517,note_off,,,,,0,0,1,,,,0,70,0
13517,note_off,,,,,205,0,2,,,,1,41,0
13517,note_off,,,,,205,0,1,,,,0,61,0
13824,note_on,,,,,307,0,1,,,,0,61,64
13824,note_on,,,,,0,0,1,,,,0,73,64
13824,note_on,,,,,307,0,2,,,,1,41,49
13824,note_on,,,,,0,0,1,,,,0,70,64
14029,note_off,,,,,205,0,2,,,,1,41,0
14029,note_off,,,,,205,0,1,,,,0,61,0
14029,note_off,,,,,0,0,1,,,,0,70,0
14029,note_off,,,,,0,0,1,,,,0,73,0
14336,note_on,,,,,307,0,1,,,,0,65,80
14336,note_on,,,,,0,0,1,,,,0,72,80
14336,note_on,,,,,0,0,1,,,,0,68,80
14336,note_on,,,,,307,0,2,,,,1,29,49
14336,note_on,,,,,0,0,2,,,,1,41,49
15360,note_off,,,,,1024,0,2,,,,1,29,0
15360,note_off,,,,,0,0,2,,,,1,41,0
15360,note_on,,,,,0,0,2,,,,1,41,49
15360,note_off,,,,,1024,0,1,,,,0,65,0
15360,note_off,,,,,0,0,1,,,,0,68,0
15360,note_off,,,,,0,0,1,,,,0,72,0
15360,note_on,,,,,0,0,1,,,,0,68,64
15360,note_on,,,,,0,0,1,,,,0,60,64
15360,note_on,,,,,0,0,1,,,,0,72,64
15565,note_off,,,,,205,0,1,,,,0,60,0
15565,note_off,,,,,0,0,1,,,,0,68,0
15565,note_off,,,,,0,0,1,,,,0,72,0
15565,note_off,,,,,205,0,2,,,,1,41,0
15872,note_on,,,,,307,0,2,,,,1,41,49
15872,note_on,,,,,307,0,1,,,,0,60,64
15872,note_on,,,,,0,0,1,,,,0,68,64
15872,note_on,,,,,0,0,1,,,,0,72,64
16077,note_off,,,,,0,0,1,,,,0,72,0
16077,note_off,,,,,205,0,2,,,,1,41,0
16077,note_off,,,,,205,0,1,,,,0,60,0
16077,note_off,,,,,0,0,1,,,,0,68,0
16384,note_on,,,,,307,0,1,,,,0,65,80
16384,note_on,,,,,0,0,1,,,,0,68,80
16384,note_on,,,,,0,0,1,,,,0,71,80
16384,note_on,,,,,307,0,2,,,,1,53,46
17408,note_off,,,,,1024,0,2,,,,1,53,0
17408,note_on,,,,,0,0,2,,,,1,50,37
17408,note_on,,,,,0,0,1,,,,0,71,67
17408,note_off,,,,,0,0,1,,,,0,71,0
17408,note_on,,,,,0,0,1,,,,0,65,67
17408,note_off,,,,,0,0,1,,,,0,68,0
17408,note_off,,,,,1024,0,1,,,,0,65,0
17408,note_on,,,,,0,0,1,,,,0,68,67
17613,note_off,,,,,205,0,1,,,,0,65,0
17613,note_off,,,,,0,0,1,,,,0,71,0
17613,note_off,,,,,205,0,2,,,,1,50,0
17613,note_off,,,,,0,0,1,,,,0,68,0
17920,note_on,,,,,307,0,1,,,,0,65,69
17920,note_on,,,,,0,0,1,,,,0,68,69
17920,note_on,,,,,0,0,1,,,,0,71,69
17920,note_on,,,,,307,0,2,,,,1,50,39
18125,note_off,,,,,205,0,2,,,,1,50,0
18125,note_off,,,,,0,0,1,,,,0,68,0
18125,note_off,,,,,205,0,1,,,,0,65,0
18125,note_off,,,,,0,0,1,,,,0,71,0
18432,note_on,,,,,0,0,1,,,,0,72,86
18432,note_on,,,,,0,0,1,,,,0,67,86
18432,note_on,,,,,307,0,1,,,,0,63,86
18432,note_on,,,,,307,0,2,,,,1,51,53
19456,note_off,,,,,1024,0,2,,,,1,51,0
19456,note_on,,,,,0,0,2,,,,1,48,44
19456,note_off,,,,,0,0,1,,,,0,72,0
19456,note_off,,,,,0,0,1,,,,0,67,0
19456,note_on,,,,,0,0,1,,,,0,60,73
19456,note_on,,,,,0,0,1,,,,0,67,73
19456,note_on,,,,,0,0,1,,,,0,72,73
19456,note_off,,,,,1024,0,1,,,,0,63,0
19661,note_off,,,,,205,0,2,,,,1,48,0
19661,note_off,,,,,205,0,1,,,,0,60,0
19661,note_off,,,,,0,0,1,,,,0,67,0
19661,note_off,,,,,0,0,1,,,,0,72,0
19968,note_on,,,,,307,0,2,,,,1,48,45
19968,note_on,,,,,0,0,1,,,,0,67,75
19968,note_on,,,,,307,0,1,,,,0,60,75
19968,note_on,,,,,0,0,1,,,,0,72,75
20173,note_off,,,,,205,0,1,,,,0,60,0
20173,note_off,,,,,205,0,2,,,,1,48,0
20173,note_off,,,,,0,0,1,,,,0,72,0
20173,note_off,,,,,0,0,1,,,,0,67,0
20480,note_on,,,,,0,0,1,,,,0,74,92
20480,note_on,,,,,307,0,1,,,,0,62,92
20480,note_on,,,,,307,0,2,,,,1,47,59
20480,note_on,,,,,0,0,1,,,,0,67,92
21504,note_on,,,,,0,0,2,,,,1,43,50
21504,note_on,,,,,0,0,1,,,,0,71,79
21504,note_off,,,,,1024,0,2,,,,1,47,0
21504,note_on,,,,,0,0,1,,,,0,62,79
21504,note_off,,,,,0,0,1,,,,0,74,0
21504,note_off,,,,,0,0,1,,,,0,67,0
21504,note_off,,,,,1024,0,1,,,,0,62,0
21504,note_on,,,,,0,0,1,,,,0,67,79
21709,note_off,,,,,0,0,1,,,,0,71,0
21709,note_off,,,,,205,0,2,,,,1,43,0
21709,note_off,,,,,205,0,1,,,,0,62,0
21709,note_off,,,,,0,0,1,,,,0,67,0
22016,note_on,,,,,307,0,2,,,,1,43,52
22016,note_on,,,,,307,0,1,,,,0,62,81
22016,note_on,,,,,0,0,1,,,,0,67,81
22016,note_on,,,,,0,0,1,,,,0,71,81
22221,note_off,,,,,0,0,1,,,,0,71,0
22221,note_off,,,,,205,0,2,,,,1,43,0
22221,note_off,,,,,0,0,1,,,,0,67,0
22221,note_off,,,,,205,0,1,,,,0,62,0
22528,note_on,,,,,307,0,1,,,,0,63,83
22528,note_on,,,,,0,0,1,,,,0,75,83
22528,note_on,,,,,0,0,1,,,,0,67,83
22528,note_on,,,,,307,0,2,,,,1,48,54
23552,note_on,,,,,0,0,1,,,,0,67,86
23552,note_off,,,,,0,0,1,,,,0,75,0
23552,note_on,,,,,0,0,1,,,,0,72,86
23552,note_on,,,,,0,0,1,,,,0,63,86
23552,note_off,,,,,1024,0,1,,,,0,63,0
23552,note_off,,,,,0,0,1,,,,0,67,0
23552,note_off,,,,,1024,0,2,,,,1,48,0
23552,note_on,,,,,0,0,2,,,,1,43,57
23757,note_off,,,,,0,0,1,,,,0,72,0
23757,note_off,,,,,205,0,2,,,,1,43,0
23757,note_off,,,,,0,0,1,,,,0,67,0
23757,note_off,,,,,205,0,1,,,,0,63,0
24064,note_on,,,,,0,0,1,,,,0,67,87
24064,note_on,,,,,307,0,1,,,,0,63,87
24064,note_on,,,,,307,0,2,,,,1,43,58
24064,note_on,,,,,0,0,1,,,,0,72,87
24269,note_off,,,,,205,0,1,,,,0,63,0
24269,note_off,,,,,0,0,1,,,,0,67,0
24269,note_off,,,,,0,0,1,,,,0,72,0
24269,note_off,,,,,205,0,2,,,,1,43,0
24576,note_on,,,,,307,0,1,,,,0,67,89
24576,note_on,,,,,0,0,1,,,,0,77,89
24576,note_on,,,,,307,0,2,,,,1,50,60
25600,note_off,,,,,1024,0,2,,,,1,50,0
25600,note_on,,,,,0,0,2,,,,1,43,63
25600,note_on,,,,,0,0,1,,,,0,79,92
25600,note_off,,,,,0,0,1,,,,0,77,0
25600,note_off,,,,,1024,0,1,,,,0,67,0
25600,note_on,,,,,0,0,1,,,,0,67,92
25805,note_off,,,,,205,0,2,,,,1,43,0
25805,note_off,,,,,205,0,1,,,,0,67,0
25805,note_off,,,,,0,0,1,,,,0,79,0
26112,note_on,,,,,307,0,2,,,,1,43,65
26112,note_on,,,,,0,0,1,,,,0,79,93
26112,note_on,,,,,307,0,1,,,,0,67,93
26317,note_off,,,,,0,0,1,,,,0,79,0
26317,note_off,,,,,205,0,1,,,,0,67,0
26317,note_off,,,,,205,0,2,,,,1,43,0
26624,note_on,,,,,0,0,1,,,,0,78,95
26624,note_on,,,,,307,0,2,,,,1,51,67
26624,note_on,,,,,307,0,1,,,,0,67,95
27648,note_off,,,,,0,0,1,,,,0,78,0
27648,note_on,,,,,0,0,1,,,,0,67,98
27648,note_on,,,,,0,0,1,,,,0,79,98
27648,note_off,,,,,1024,0,2,,,,1,51,0
27648,note_on,,,,,0,0,2,,,,1,43,70
27648,note_off,,,,,1024,0,1,,,,0,67,0
27853,note_off,,,,,205,0,2,,,,1,43,0
27853,note_off,,,,,205,0,1,,,,0,67,0
27853,note_off,,,,,0,0,1,,,,0,79,0
28160,note_on,,,,,0,0,1,,,,0,79,99
28160,note_on,,,,,307,0,1,,,,0,67,99
28160,note_on,,,,,307,0,2,,,,1,43,71
28365,note_off,,,,,205,0,1,,,,0,67,0
28365,note_off,,,,,0,0,1,,,,0,79,0
28365,note_off,,,,,205,0,2,,,,1,43,0
28672,note_on,,,,,307,0,2,,,,1,51,88
28672,note_on,,,,,307,0,1,,,,0,67,101
28672,note_on,,,,,0,0,1,,,,0,79,101
29696,note_on,,,,,0,0,1,,,,0,77,126
29696,note_off,,,,,1024,0,1,,,,0,67,0
29696,note_off,,,,,0,0,1,,,,0,79,0
29696,note_on,,,,,0,0,2,,,,1,49,110
29696,note_on,,,,,0,0,2,,,,1,37,110
29696,note_off,,,,,1024,0,2,,,,1,51,0
29696,note_on,,,,,0,0,1,,,,0,68,126
29696,note_on,,,,,0,0,1,,,,0,80,126
30720,note_on,,,,,0,0,2,,,,1,49,110
30720,note_on,,,,,0,0,2,,,,1,37,110
30720,note_off,,,,,0,0,2,,,,1,49,0
30720,note_off,,,,,1024,0,2,,,,1,37,0
30720,note_off,,,,,1024,0,1,,,,0,68,0
30720,note_off,,,,,0,0,1,,,,0,80,0
30720,note_on,,,,,0,0,1,,,,0,68,126
30720,note_on,,,,,0,0,1,,,,0,77,126
30720,note_on,,,,,0,0,1,,,,0,80,126
30720,note_off,,,,,0,0,1,,,,0,77,0
31744,note_off,,,,,0,0,2,,,,1,49,0
31744,note_off,,,,,1024,0,1,,,,0,68,0
31744,note_off,,,,,0,0,1,,,,0,77,0
31744,note_off,,,,,0,0,1,,,,0,80,0
31744,note_on,,,,,0,0,1,,,,0,68,126
31744,note_on,,,,,0,0,1,,,,0,77,126
31744,note_on,,,,,0,0,1,,,,0,80,126
31744,note_off,,,,,1024,0,2,,,,1,37,0
31744,note_on,,,,,0,0,2,,,,1,37,110
31744,note_on,,,,,0,0,2,,,,1,49,110
32768,note_on,,,,,0,0,2,,,,1,49,110
32768,note_on,,,,,0,0,2,,,,1,37,110
32768,note_off,,,,,0,0,2,,,,1,49,0
32768,note_off,,,,,1024,0,2,,,,1,37,0
32768,note_on,,,,,0,0,1,,,,0,80,126
32768,note_on,,,,,0,0,1,,,,0,77,126
32768,note_on,,,,,0,0,1,,,,0,68,126
32768,note_off,,,,,0,0,1,,,,0,80,0
32768,note_off,,,,,0,0,1,,,,0,77,0
32768,note_off,,,,,1024,0,1,,,,0,68,0
33792,note_off,,,,,0,0,2,,,,1,49,0
33792,note_on,,,,,0,0,1,,,,0,73,126
33792,note_off,,,,,0,0,1,,,,0,80,0
33792,note_off,,,,,0,0,1,,,,0,77,0
33792,note_off,,,,,1024,0,1,,,,0,68,0
33792,note_on,,,,,0,0,2,,,,1,41,110
33792,note_on,,,,,0,0,1,,,,0,85,126
33792,note_off,,,,,1024,0,2,,,,1,37,0
33792,note_on,,,,,0,0,1,,,,0,80,126
33792,note_on,,,,,0,0,2,,,,1,53,110
34816,note_off,,,,,0,0,1,,,,0,85,0
34816,note_off,,,,,1024,0,1,,,,0,73,0
34816,note_off,,,,,0,0,1,,,,0,80,0
34816,note_on,,,,,0,0,1,,,,0,73,101
34816,note_on,,,,,0,0,1,,,,0,80,101
34816,note_on,,,,,0,0,1,,,,0,85,101
34816,note_off,,,,,1024,0,2,,,,1,41,0
34816,note_off,,,,,0,0,2,,,,1,53,0
34816,note_on,,,,,0,0,2,,,,1,44,88
34816,note_on,,,,,0,0,2,,,,1,53,88
34816,note_on,,,,,0,0,2,,,,1,56,88
35840,note_off,,,,,1024,0,2,,,,1,44,0
35840,note_on,,,,,0,0,2,,,,1,53,88
35840,note_on,,,,,0,0,2,,,,1,44,88
35840,note_on,,,,,0,0,1,,,,0,80,101
35840,note_on,,,,,0,0,1,,,,0,73,101
35840,note_off,,,,,0,0,1,,,,0,85,0
35840,note_off,,,,,0,0,1,,,,0,80,0
35840,note_off,,,,,1024,0,1,,,,0,73,0
35840,note_off,,,,,0,0,2,,,,1,56,0
35840,note_on,,,,,0,0,2,,,,1,56,88
35840,note_off,,,,,0,0,2,,,,1,53,0
35840,note_on,,,,,0,0,1,,,,0,85,101
36045,note_off,,,,,205,0,1,,,,0,73,0
36045,note_off,,,,,0,0,1,,,,0,80,0
36045,note_off,,,,,205,0,2,,,,1,44,0
36045,note_off,,,,,0,0,2,,,,1,53,0
36045,note_off,,,,,0,0,2,,,,1,56,0
36045,note_off,,,,,0,0,1,,,,0,85,0
36352,note_on,,,,,307,0,2,,,,1,44,88
36352,note_on,,,,,0,0,2,,,,1,53,88
36352,note_on,,,,,0,0,2,,,,1,56,88
36352,note_on,,,,,307,0,1,,,,0,73,101
36352,note_on,,,,,0,0,1,,,,0,80,101
36352,note_on,,,,,0,0,1,,,,0,85,101
36557,note_off,,,,,205,0,2,,,,1,44,0
36557,note_off,,,,,0,0,2,,,,1,53,0
36557,note_off,,,,,0,0,2,,,,1,56,0
36557,note_off,,,,,205,0,1,,,,0,73,0
36557,note_off,,,,,0,0,1,,,,0,85,0
36557,note_off,,,,,0,0,1,,,,0,80,0
36864,note_on,,,,,0,0,2,,,,1,54,88
36864,note_on,,,,,0,0,1,,,,0,84,101
36864,note_on,,,,,0,0,2,,,,1,56,88
36864,note_on,,,,,307,0,2,,,,1,44,88
36864,note_on,,,,,307,0,1,,,,0,75,101
36864,note_on,,,,,0,0,1,,,,0,87,101
37888,note_on,,,,,0,0,2,,,,1,56,88
37888,note_off,,,,,1024,0,1,,,,0,75,0
37888,note_on,,,,,0,0,2,,,,1,44,88
37888,note_off,,,,,0,0,2,,,,1,56,0
37888,note_off,,,,,0,0,2,,,,1,54,0
37888,note_off,,,,,1024,0,2,,,,1,44,0
37888,note_on,,,,,0,0,2,,,,1,54,88
37888,note_on,,,,,0,0,1,,,,0,75,101
37888,note_off,,,,,0,0,1,,,,0,84,0
37888,note_off,,,,,0,0,1,,,,0,87,0
37888,note_on,,,,,0,0,1,,,,0,87,101
37888,note_on,,,,,0,0,1,,,,0,84,101
38093,note_off,,,,,0,0,2,,,,1,56,0
38093,note_off,,,,,0,0,2,,,,1,54,0
38093,note_off,,,,,205,0,2,,,,1,44,0
38093,note_off,,,,,205,0,1,,,,0,75,0
38093,note_off,,,,,0,0,1,,,,0,87,0
38093,note_off,,,,,0,0,1,,,,0,84,0
38400,note_on,,,,,307,0,1,,,,0,75,101
38400,note_on,,,,,0,0,1,,,,0,87,101
38400,note_on,,,,,0,0,1,,,,0,84,101
38400,note_on,,,,,307,0,2,,,,1,44,88
38400,note_on,,,,,0,0,2,,,,1,56,88
38400,note_on,,,,,0,0,2,,,,1,54,88
38605,note_off,,,,,205,0,1,,,,0,75,0
38605,note_off,,,,,0,0,2,,,,1,54,0
38605,note_off,,,,,0,0,2,,,,1,56,0
38605,note_off,,,,,0,0,1,,,,0,87,0
38605,note_off,,,,,205,0,2,,,,1,44,0
38605,note_off,,,,,0,0,1,,,,0,84,0
38912,note_on,,,,,307,0,2,,,,1,49,88
38912,note_on,,,,,0,0,2,,,,1,53,88
38912,note_on,,,,,0,0,2,,,,1,56,88
38912,note_on,,,,,307,0,1,,,,0,73,101
38912,note_on,,,,,0,0,1,,,,0,85,101
39936,note_off,,,,,0,0,1,,,,0,85,0
39936,note_off,,,,,0,0,2,,,,1,53,0
39936,note_off,,,,,1024,0,2,,,,1,49,0
39936,note_off,,,,,1024,0,1,,,,0,73,0
39936,note_on,,,,,0,0,2,,,,1,49,110
39936,note_on,,,,,0,0,1,,,,0,71,126
39936,note_on,,,,,0,0,1,,,,0,77,126
39936,note_on,,,,,0,0,1,,,,0,83,126
39936,note_on,,,,,0,0,1,,,,0,84,126
39936,note_off,,,,,0,0,2,,,,1,56,0
39936,note_on,,,,,0,0,2,,,,1,37,110
40960,note_on,,,,,0,0,1,,,,0,72,126
40960,note_on,,,,,0,0,1,,,,0,77,126
40960,note_off,,,,,0,0,1,,,,0,83,0
40960,note_off,,,,,0,0,1,,,,0,77,0
40960,note_off,,,,,1024,0,1,,,,0,71,0
40960,note_off,,,,,0,0,2,,,,1,49,0
40960,note_on,,,,,0,0,1,,,,0,80,126
40960,note_on,,,,,0,0,1,,,,0,84,126
40960,note_on,,,,,0,0,2,,,,1,36,110
40960,note_on,,,,,0,0,2,,,,1,48,110
40960,note_off,,,,,1024,0,2,,,,1,37,0
40960,note_off,,,,,0,0,1,,,,0,84,0
41984,note_off,,,,,1024,0,2,,,,1,36,0
41984,note_off,,,,,0,0,2,,,,1,48,0
41984,note_on,,,,,0,0,2,,,,1,36,110
41984,note_on,,,,,0,0,2,,,,1,48,110
41984,note_off,,,,,0,0,1,,,,0,80,0
41984,note_off,,,,,1024,0,1,,,,0,72,0
41984,note_on,,,,,0,0,1,,,,0,84,126
41984,note_on,,,,,0,0,1,,,,0,76,126
41984,note_on,,,,,0,0,1,,,,0,72,126
41984,note_off,,,,,0,0,1,,,,0,84,0
41984,note_off,,,,,0,0,1,,,,0,77,0
41984,note_on,,,,,0,0,1,,,,0,79,126
43008,set_tempo,,,,,43008,1,0,,263157,,,,
43008,note_off,,,,,1024,0,1,,,,0,72,0
43008,note_on,,,,,0,0,2,,,,1,53,94
43008,note_off,,,,,0,0,1,,,,0,76,0
43008,note_off,,,,,1024,0,2,,,,1,36,0
43008,note_off,,,,,0,0,2,,,,1,48,0
43008,note_on,,,,,0,0,2,,,,1,41,94
43008,note_off,,,,,0,0,1,,,,0,79,0
43008,note_off,,,,,0,0,1,,,,0,84,0
43008,note_on,,,,,0,0,1,,,,0,80,110
43008,note_on,,,,,0,0,1,,,,0,68,110
43008,note_on,,,,,0,0,1,,,,0,72,110
44032,note_off,,,,,0,0,1,,,,0,72,0
44032,note_off,,,,,0,0,1,,,,0,80,0
44032,note_on,,,,,0,0,1,,,,0,68,88
44032,note_on,,,,,0,0,1,,,,0,72,88
44032,note_on,,,,,0,0,1,,,,0,79,88
44032,note_off,,,,,1024,0,1,,,,0,68,0
44032,note_off,,,,,0,0,2,,,,1,53,0
44032,note_off,,,,,1024,0,2,,,,1,41,0
44032,note_on,,,,,0,0,2,,,,1,53,75
44237,note_off,,,,,0,0,1,,,,0,72,0
44237,note_off,,,,,205,0,1,,,,0,68,0
44237,note_off,,,,,205,0,2,,,,1,53,0
44237,note_off,,,,,0,0,1,,,,0,79,0
44544,note_on,,,,,307,0,1,,,,0,68,88
44544,note_on,,,,,0,0,1,,,,0,77,88
44544,note_on,,,,,307,0,2,,,,1,53,75
44544,note_on,,,,,0,0,1,,,,0,72,88
44749,note_off,,,,,0,0,1,,,,0,77,0
44749,note_off,,,,,0,0,1,,,,0,72,0
44749,note_off,,,,,205,0,1,,,,0,68,0
44749,note_off,,,,,205,0,2,,,,1,53,0
45056,note_on,,,,,0,0,1,,,,0,77,110
45056,note_on,,,,,0,0,1,,,,0,72,110
45056,note_on,,,,,307,0,1,,,,0,68,110
45056,note_on,,,,,307,0,2,,,,1,41,94
45056,note_on,,,,,0,0,2,,,,1,53,94
46080,note_on,,,,,0,0,1,,,,0,72,88
46080,note_on,,,,,0,0,1,,,,0,68,88
46080,note_off,,,,,0,0,1,,,,0,77,0
46080,note_off,,,,,0,0,1,,,,0,72,0
46080,note_off,,,,,1024,0,1,,,,0,68,0
46080,note_off,,,,,1024,0,2,,,,1,41,0
46080,note_off,,,,,0,0,2,,,,1,53,0
46080,note_on,,,,,0,0,2,,,,1,53,75
46285,note_off,,,,,0,0,1,,,,0,72,0
46285,note_off,,,,,205,0,1,,,,0,68,0
46285,note_off,,,,,205,0,2,,,,1,53,0
46592,note_on,,,,,307,0,2,,,,1,53,75
46592,note_on,,,,,0,0,1,,,,0,72,88
46592,note_on,,,,,307,0,1,,,,0,68,88
46797,note_off,,,,,205,0,2,,,,1,53,0
46797,note_off,,,,,0,0,1,,,,0,72,0
46797,note_off,,,,,205,0,1,,,,0,68,0
47104,note_on,,,,,307,0,2,,,,1,41,94
47104,note_on,,,,,0,0,2,,,,1,53,94
47104,note_on,,,,,0,0,1,,,,0,77,110
47104,note_on,,,,,0,0,1,,,,0,73,110
47104,note_on,,,,,307,0,1,,,,0,70,110
48128,note_on,,,,,0,0,1,,,,0,73,88
48128,note_on,,,,,0,0,1,,,,0,70,88
48128,note_off,,,,,0,0,1,,,,0,77,0
48128,note_off,,,,,0,0,1,,,,0,73,0
48128,note_off,,,,,1024,0,1,,,,0,70,0
48128,note_off,,,,,1024,0,2,,,,1,41,0
48128,note_off,,,,,0,0,2,,,,1,53,0
48128,note_on,,,,,0,0,2,,,,1,53,75
48333,note_off,,,,,0,0,1,,,,0,73,0
48333,note_off,,,,,205,0,1,,,,0,70,0
48333,note_off,,,,,205,0,2,,,,1,53,0
48640,note_on,,,,,307,0,2,,,,1,53,75
48640,note_on,,,,,307,0,1,,,,0,70,88
48640,note_on,,,,,0,0,1,,,,0,73,88
48845,note_off,,,,,205,0,2,,,,1,53,0
48845,note_off,,,,,0,0,1,,,,0,73,0
48845,note_off,,,,,205,0,1,,,,0,70,0
49152,note_on,,,,,0,0,1,,,,0,72,110
49152,note_on,,,,,307,0,1,,,,0,68,110
49152,note_on,,,,,307,0,2,,,,1,41,94
49152,note_on,,,,,0,0,1,,,,0,77,110
49152,note_on,,,,,0,0,2,,,,1,53,94
50176,note_off,,,,,1024,0,2,,,,1,41,0
50176,note_off,,,,,0,0,2,,,,1,53,0
50176,note_on,,,,,0,0,2,,,,1,53,75
50176,note_off,,,,,1024,0,1,,,,0,68,0
50176,note_off,,,,,0,0,1,,,,0,72,0
50176,note_off,,,,,0,0,1,,,,0,77,0
50176,note_on,,,,,0,0,1,,,,0,68,88
50176,note_on,,,,,0,0,1,,,,0,72,88
50381,note_off,,,,,205,0,1,,,,0,68,0
50381,note_off,,,,,0,0,1,,,,0,72,0
50381,note_off,,,,,205,0,2,,,,1,53,0
50688,note_on,,,,,307,0,2,,,,1,53,75
50688,note_on,,,,,307,0,1,,,,0,68,88
50688,note_on,,,,,0,0,1,,,,0,72,88
50893,note_off,,,,,0,0,1,,,,0,72,0
50893,note_off,,,,,205,0,1,,,,0,68,0
50893,note_off,,,,,205,0,2,,,,1,53,0
51200,note_on,,,,,0,0,2,,,,1,41,49
51200,note_on,,,,,307,0,2,,,,1,29,49
51200,note_on,,,,,307,0,1,,,,0,68,64
51200,note_on,,,,,0,0,1,,,,0,72,64
52224,note_on,,,,,0,0,1,,,,0,72,64
52224,note_on,,,,,0,0,2,,,,1,41,49
52224,note_off,,,,,0,0,2,,,,1,41,0
52224,note_off,,,,,1024,0,2,,,,1,29,0
52224,note_off,,,,,1024,0,1,,,,0,68,0
52224,note_off,,,,,0,0,1,,,,0,72,0
52224,note_on,,,,,0,0,1,,,,0,67,64
52224,note_on,,,,,0,0,1,,,,0,68,64
52429,note_off,,,,,205,0,2,,,,1,41,0
52429,note_off,,,,,0,0,1,,,,0,68,0
52429,note_off,,,,,0,0,1,,,,0,72,0
52429,note_off,,,,,205,0,1,,,,0,67,0
52736,note_on,,,,,0,0,1,,,,0,68,64
52736,note_on,,,,,307,0,1,,,,0,65,64
52736,note_on,,,,,0,0,1,,,,0,72,64
52736,note_on,,,,,307,0,2,,,,1,41,49
52941,note_off,,,,,205,0,1,,,,0,65,0
52941,note_off,,,,,0,0,1,,,,0,68,0
52941,note_off,,,,,0,0,1,,,,0,72,0
52941,note_off,,,,,205,0,2,,,,1,41,0
53248,note_on,,,,,0,0,2,,,,1,41,49
53248,note_on,,,,,307,0,1,,,,0,65,80
53248,note_on,,,,,0,0,1,,,,0,68,80
53248,note_on,,,,,0,0,1,,,,0,72,80
53248,note_on,,,,,307,0,2,,,,1,29,49
54272,note_off,,,,,1024,0,2,,,,1,29,0
54272,note_on,,,,,0,0,1,,,,0,72,64
54272,note_off,,,,,0,0,1,,,,0,72,0
54272,note_on,,,,,0,0,1,,,,0,60,64
54272,note_off,,,,,0,0,1,,,,0,68,0
54272,note_off,,,,,1024,0,1,,,,0,65,0
54272,note_off,,,,,0,0,2,,,,1,41,0
54272,note_on,,,,,0,0,1,,,,0,68,64
54272,note_on,,,,,0,0,2,,,,1,41,49
54477,note_off,,,,,205,0,1,,,,0,60,0
54477,note_off,,,,,0,0,1,,,,0,68,0
54477,note_off,,,,,0,0,1,,,,0,72,0
54477,note_off,,,,,205,0,2,,,,1,41,0
54784,note_on,,,,,307,0,1,,,,0,60,64
54784,note_on,,,,,307,0,2,,,,1,41,49
54784,note_on,,,,,0,0,1,,,,0,68,64
54784,note_on,,,,,0,0,1,,,,0,72,64
54989,note_off,,,,,205,0,1,,,,0,60,0
54989,note_off,,,,,0,0,1,,,,0,68,0
54989,note_off,,,,,0,0,1,,,,0,72,0
54989,note_off,,,,,205,0,2,,,,1,41,0
55296,note_on,,,,,307,0,1,,,,0,65,80
55296,note_on,,,,,0,0,1,,,,0,70,80
55296,note_on,,,,,0,0,1,,,,0,73,80
55296,note_on,,,,,0,0,2,,,,1,41,49
55296,note_on,,,,,307,0,2,,,,1,29,49
56320,note_off,,,,,1024,0,2,,,,1,29,0
56320,note_on,,,,,0,0,1,,,,0,73,64
56320,note_on,,,,,0,0,1,,,,0,61,64
56320,note_on,,,,,0,0,2,,,,1,41,49
56320,note_off,,,,,0,0,1,,,,0,73,0
56320,note_off,,,,,0,0,1,,,,0,70,0
56320,note_off,,,,,1024,0,1,,,,0,65,0
56320,note_on,,,,,0,0,1,,,,0,70,64
56320,note_off,,,,,0,0,2,,,,1,41,0
56525,note_off,,,,,205,0,1,,,,0,61,0
56525,note_off,,,,,0,0,1,,,,0,70,0
56525,note_off,,,,,0,0,1,,,,0,73,0
56525,note_off,,,,,205,0,2,,,,1,41,0
56832,note_on,,,,,0,0,1,,,,0,73,64
56832,note_on,,,,,307,0,1,,,,0,61,64
56832,note_on,,,,,0,0,1,,,,0,70,64
56832,note_on,,,,,307,0,2,,,,1,41,49
57037,note_off,,,,,205,0,1,,,,0,61,0
57037,note_off,,,,,0,0,1,,,,0,70,0
57037,note_off,,,,,0,0,1,,,,0,73,0
57037,note_off,,,,,205,0,2,,,,1,41,0
57344,note_on,,,,,0,0,2,,,,1,41,49
57344,note_on,,,,,307,0,1,,,,0,65,80
57344,note_on,,,,,307,0,2,,,,1,29,49
57344,note_on,,,,,0,0,1,,,,0,68,80
57344,note_on,,,,,0,0,1,,,,0,72,80
58368,note_off,,,,,0,0,1,,,,0,68,0
58368,note_off,,,,,0,0,1,,,,0,72,0
58368,note_on,,,,,0,0,2,,,,1,41,49
58368,note_off,,,,,0,0,2,,,,1,41,0
58368,note_on,,,,,0,0,1,,,,0,68,64
58368,note_off,,,,,1024,0,2,,,,1,29,0
58368,note_on,,,,,0,0,1,,,,0,72,64
58368,note_off,,,,,1024,0,1,,,,0,65,0
58368,note_on,,,,,0,0,1,,,,0,60,64
58573,note_off,,,,,205,0,2,,,,1,41,0
58573,note_off,,,,,205,0,1,,,,0,60,0
58573,note_off,,,,,0,0,1,,,,0,68,0
58573,note_off,,,,,0,0,1,,,,0,72,0
58880,note_on,,,,,307,0,1,,,,0,60,64
58880,note_on,,,,,0,0,1,,,,0,68,64
58880,note_on,,,,,0,0,1,,,,0,72,64
58880,note_on,,,,,307,0,2,,,,1,41,49
59085,note_off,,,,,0,0,1,,,,0,72,0
59085,note_off,,,,,205,0,1,,,,0,60,0
59085,note_off,,,,,205,0,2,,,,1,41,0
59085,note_off,,,,,0,0,1,,,,0,68,0
59392,note_on,,,,,307,0,1,,,,0,65,80
59392,note_on,,,,,0,0,1,,,,0,68,80
59392,note_on,,,,,0,0,1,,,,0,71,80
59392,note_on,,,,,307,0,2,,,,1,53,46
60416,note_off,,,,,1024,0,2,,,,1,53,0
60416,note_on,,,,,0,0,1,,,,0,71,67
60416,note_on,,,,,0,0,2,,,,1,50,37
60416,note_on,,,,,0,0,1,,,,0,65,67
60416,note_off,,,,,0,0,1,,,,0,68,0
60416,note_off,,,,,0,0,1,,,,0,71,0
60416,note_off,,,,,1024,0,1,,,,0,65,0
60416,note_on,,,,,0,0,1,,,,0,68,67
60621,note_off,,,,,0,0,1,,,,0,71,0
60621,note_off,,,,,205,0,2,,,,1,50,0
60621,note_off,,,,,205,0,1,,,,0,65,0
60621,note_off,,,,,0,0,1,,,,0,68,0
60928,note_on,,,,,307,0,2,,,,1,50,39
60928,note_on,,,,,307,0,1,,,,0,65,69
60928,note_on,,,,,0,0,1,,,,0,68,69
60928,note_on,,,,,0,0,1,,,,0,71,69
61133,note_off,,,,,0,0,1,,,,0,71,0
61133,note_off,,,,,0,0,1,,,,0,68,0
61133,note_off,,,,,205,0,1,,,,0,65,0
61133,note_off,,,,,205,0,2,,,,1,50,0
61440,note_on,,,,,0,0,1,,,,0,72,86
61440,note_on,,,,,307,0,1,,,,0,63,86
61440,note_on,,,,,307,0,2,,,,1,51,53
61440,note_on,,,,,0,0,1,,,,0,67,86
62464,note_off,,,,,1024,0,2,,,,1,51,0
62464,note_on,,,,,0,0,2,,,,1,48,44
62464,note_off,,,,,0,0,1,,,,0,67,0
62464,note_off,,,,,1024,0,1,,,,0,63,0
62464,note_off,,,,,0,0,1,,,,0,72,0
62464,note_on,,,,,0,0,1,,,,0,60,73
62464,note_on,,,,,0,0,1,,,,0,67,73
62464,note_on,,,,,0,0,1,,,,0,72,73
62669,note_off,,,,,205,0,1,,,,0,60,0
62669,note_off,,,,,0,0,1,,,,0,67,0
62669,note_off,,,,,0,0,1,,,,0,72,0
62669,note_off,,,,,205,0,2,,,,1,48,0
62976,note_on,,,,,0,0,1,,,,0,72,75
62976,note_on,,,,,307,0,1,,,,0,60,75
62976,note_on,,,,,307,0,2,,,,1,48,45
62976,note_on,,,,,0,0,1,,,,0,67,75
63181,note_off,,,,,0,0,1,,,,0,72,0
63181,note_off,,,,,0,0,1,,,,0,67,0
63181,note_off,,,,,205,0,1,,,,0,60,0
63181,note_off,,,,,205,0,2,,,,1,48,0
63488,note_on,,,,,307,0,2,,,,1,47,59
63488,note_on,,,,,0,0,1,,,,0,74,92
63488,note_on,,,,,0,0,1,,,,0,67,92
63488,note_on,,,,,307,0,1,,,,0,62,92
64512,note_off,,,,,1024,0,2,,,,1,47,0
64512,note_on,,,,,0,0,2,,,,1,43,50
64512,note_on,,,,,0,0,1,,,,0,62,79
64512,note_on,,,,,0,0,1,,,,0,67,79
64512,note_off,,,,,0,0,1,,,,0,74,0
64512,note_on,,,,,0,0,1,,,,0,71,79
64512,note_off,,,,,0,0,1,,,,0,67,0
64512,note_off,,,,,1024,0,1,,,,0,62,0
64717,note_off,,,,,0,0,1,,,,0,71,0
64717,note_off,,,,,205,0,1,,,,0,62,0
64717,note_off,,,,,205,0,2,,,,1,43,0
64717,note_off,,,,,0,0,1,,,,0,67,0
65024,note_on,,,,,0,0,1,,,,0,71,81
65024,note_on,,,,,307,0,2,,,,1,43,52
65024,note_on,,,,,0,0,1,,,,0,67,81
65024,note_on,,,,,307,0,1,,,,0,62,81
65229,note_off,,,,,0,0,1,,,,0,71,0
65229,note_off,,,,,0,0,1,,,,0,67,0
65229,note_off,,,,,205,0,1,,,,0,62,0
65229,note_off,,,,,205,0,2,,,,1,43,0
65536,note_on,,,,,307,0,2,,,,1,48,54
65536,note_on,,,,,307,0,1,,,,0,63,83
65536,note_on,,,,,0,0,1,,,,0,67,83
65536,note_on,,,,,0,0,1,,,,0,75,83
66560,note_off,,,,,0,0,1,,,,0,67,0
66560,note_on,,,,,0,0,2,,,,1,43,57
66560,note_off,,,,,1024,0,2,,,,1,48,0
66560,note_off,,,,,1024,0,1,,,,0,63,0
66560,note_on,,,,,0,0,1,,,,0,63,86
66560,note_off,,,,,0,0,1,,,,0,75,0
66560,note_on,,,,,0,0,1,,,,0,67,86
66560,note_on,,,,,0,0,1,,,,0,72,86
66765,note_off,,,,,0,0,1,,,,0,72,0
66765,note_off,,,,,205,0,1,,,,0,63,0
66765,note_off,,,,,0,0,1,,,,0,67,0
66765,note_off,,,,,205,0,2,,,,1,43,0
67072,note_on,,,,,0,0,1,,,,0,72,87
67072,note_on,,,,,307,0,1,,,,0,63,87
67072,note_on,,,,,0,0,1,,,,0,67,87
67072,note_on,,,,,307,0,2,,,,1,43,58
67277,note_off,,,,,0,0,1,,,,0,67,0
67277,note_off,,,,,205,0,2,,,,1,43,0
67277,note_off,,,,,205,0,1,,,,0,63,0
67277,note_off,,,,,0,0,1,,,,0,72,0
67584,note_on,,,,,307,0,2,,,,1,50,60
67584,note_on,,,,,0,0,1,,,,0,77,89
67584,note_on,,,,,307,0,1,,,,0,67,89
68608,note_off,,,,,1024,0,1,,,,0,67,0
68608,note_off,,,,,0,0,1,,,,0,77,0
68608,note_on,,,,,0,0,1,,,,0,67,92
68608,note_off,,,,,1024,0,2,,,,1,50,0
68608,note_on,,,,,0,0,2,,,,1,43,63
68608,note_on,,,,,0,0,1,,,,0,79,92
68813,note_off,,,,,205,0,2,,,,1,43,0
68813,note_off,,,,,205,0,1,,,,0,67,0
68813,note_off,,,,,0,0,1,,,,0,79,0
69120,note_on,,,,,0,0,1,,,,0,79,93
69120,note_on,,,,,307,0,1,,,,0,67,93
69120,note_on,,,,,307,0,2,,,,1,43,65
69325,note_off,,,,,205,0,2,,,,1,43,0
69325,note_off,,,,,205,0,1,,,,0,67,0
69325,note_off,,,,,0,0,1,,,,0,79,0
69632,note_on,,,,,307,0,1,,,,0,67,95
69632,note_on,,,,,0,0,1,,,,0,78,95
69632,note_on,,,,,307,0,2,,,,1,51,67
70656,note_on,,,,,0,0,1,,,,0,79,98
70656,note_off,,,,,0,0,1,,,,0,78,0
70656,note_on,,,,,0,0,1,,,,0,67,98
70656,note_on,,,,,0,0,2,,,,1,43,70
70656,note_off,,,,,1024,0,2,,,,1,51,0
70656,note_off,,,,,1024,0,1,,,,0,67,0
70861,note_off,,,,,0,0,1,,,,0,79,0
70861,note_off,,,,,205,0,1,,,,0,67,0
70861,note_off,,,,,205,0,2,,,,1,43,0
71168,note_on,,,,,307,0,2,,,,1,43,71
71168,note_on,,,,,0,0,1,,,,0,79,99
71168,note_on,,,,,307,0,1,,,,0,67,99
71373,note_off,,,,,0,0,1,,,,0,79,0
71373,note_off,,,,,205,0,1,,,,0,67,0
71373,note_off,,,,,205,0,2,,,,1,43,0
71680,note_on,,,,,307,0,2,,,,1,51,88
71680,note_on,,,,,307,0,1,,,,0,67,101
71680,note_on,,,,,0,0,1,,,,0,79,101
72704,note_on,,,,,0,0,1,,,,0,80,126
72704,note_on,,,,,0,0,1,,,,0,77,126
72704,note_on,,,,,0,0,1,,,,0,68,126
72704,note_off,,,,,0,0,1,,,,0,79,0
72704,note_off,,,,,1024,0,1,,,,0,67,0
72704,note_off,,,,,1024,0,2,,,,1,51,0
72704,note_on,,,,,0,0,2,,,,1,37,110
72704,note_on,,,,,0,0,2,,,,1,49,110
73728,note_off,,,,,1024,0,1,,,,0,68,0
73728,note_on,,,,,0,0,1,,,,0,80,126
73728,note_on,,,,,0,0,1,,,,0,77,126
73728,note_on,,,,,0,0,1,,,,0,68,126
73728,note_off,,,,,0,0,1,,,,0,80,0
73728,note_off,,,,,0,0,1,,,,0,77,0
73728,note_off,,,,,1024,0,2,,,,1,37,0
73728,note_off,,,,,0,0,2,,,,1,49,0
73728,note_on,,,,,0,0,2,,,,1,37,110
73728,note_on,,,,,0,0,2,,,,1,49,110
74752,note_on,,,,,0,0,2,,,,1,49,110
74752,note_on,,,,,0,0,1,,,,0,80,126
74752,note_on,,,,,0,0,1,,,,0,77,126
74752,note_on,,,,,0,0,2,,,,1,37,110
74752,note_off,,,,,0,0,1,,,,0,80,0
74752,note_off,,,,,0,0,1,,,,0,77,0
74752,note_off,,,,,1024,0,1,,,,0,68,0
74752,note_off,,,,,1024,0,2,,,,1,37,0
74752,note_on,,,,,0,0,1,,,,0,68,126
74752,note_off,,,,,0,0,2,,,,1,49,0
75776,note_on,,,,,0,0,1,,,,0,77,126
75776,note_on,,,,,0,0,1,,,,0,80,126
75776,note_on,,,,,0,0,1,,,,0,68,126
75776,note_off,,,,,0,0,1,,,,0,80,0
75776,note_off,,,,,0,0,1,,,,0,77,0
75776,note_off,,,,,1024,0,1,,,,0,68,0
75776,note_off,,,,,1024,0,2,,,,1,37,0
75776,note_on,,,,,0,0,2,,,,1,37,110
75776,note_on,,,,,0,0,2,,,,1,49,110
75776,note_off,,,,,0,0,2,,,,1,49,0
76800,note_on,,,,,0,0,1,,,,0,73,126
76800,note_off,,,,,0,0,1,,,,0,77,0
76800,note_off,,,,,0,0,1,,,,0,80,0
76800,note_on,,,,,0,0,1,,,,0,80,126
76800,note_on,,,,,0,0,1,,,,0,85,126
76800,note_off,,,,,1024,0,2,,,,1,37,0
76800,note_off,,,,,1024,0,1,,,,0,68,0
76800,note_off,,,,,0,0,2,,,,1,49,0
76800,note_on,,,,,0,0,2,,,,1,53,110
76800,note_on,,,,,0,0,2,,,,1,41,110
77824,note_off,,,,,0,0,1,,,,0,80,0
77824,note_off,,,,,1024,0,1,,,,0,73,0
77824,note_off,,,,,0,0,1,,,,0,85,0
77824,note_on,,,,,0,0,1,,,,0,73,101
77824,note_on,,,,,0,0,1,,,,0,80,101
77824,note_on,,,,,0,0,1,,,,0,85,101
77824,note_on,,,,,0,0,2,,,,1,53,88
77824,note_on,,,,,0,0,2,,,,1,56,88
77824,note_on,,,,,0,0,2,,,,1,44,88
77824,note_off,,,,,0,0,2,,,,1,53,0
77824,note_off,,,,,1024,0,2,,,,1,41,0
78848,note_off,,,,,0,0,2,,,,1,56,0
78848,note_on,,,,,0,0,1,,,,0,85,101
78848,note_on,,,,,0,0,1,,,,0,80,101
78848,note_on,,,,,0,0,1,,,,0,73,101
78848,note_off,,,,,0,0,1,,,,0,85,0
78848,note_off,,,,,0,0,1,,,,0,80,0
78848,note_off,,,,,0,0,2,,,,1,53,0
78848,note_off,,,,,1024,0,1,,,,0,73,0
78848,note_on,,,,,0,0,2,,,,1,56,88
78848,note_on,,,,,0,0,2,,,,1,53,88
78848,note_on,,,,,0,0,2,,,,1,44,88
78848,note_off,,,,,1024,0,2,,,,1,44,0
79053,note_off,,,,,205,0,1,,,,0,73,0
79053,note_off,,,,,0,0,2,,,,1,53,0
79053,note_off,,,,,205,0,2,,,,1,44,0
79053,note_off,,,,,0,0,2,,,,1,56,0
79053,note_off,,,,,0,0,1,,,,0,80,0
79053,note_off,,,,,0,0,1,,,,0,85,0
79360,note_on,,,,,0,0,1,,,,0,85,101
79360,note_on,,,,,0,0,1,,,,0,80,101
79360,note_on,,,,,0,0,2,,,,1,53,88
79360,note_on,,,,,307,0,2,,,,1,44,88
79360,note_on,,,,,0,0,2,,,,1,56,88
79360,note_on,,,,,307,0,1,,,,0,73,101
79565,note_off,,,,,205,0,1,,,,0,73,0
79565,note_off,,,,,0,0,1,,,,0,80,0
79565,note_off,,,,,0,0,1,,,,0,85,0
79565,note_off,,,,,0,0,2,,,,1,56,0
79565,note_off,,,,,205,0,2,,,,1,44,0
79565,note_off,,,,,0,0,2,,,,1,53,0
79872,note_on,,,,,0,0,1,,,,0,84,101
79872,note_on,,,,,307,0,2,,,,1,44,88
79872,note_on,,,,,0,0,2,,,,1,54,88
79872,note_on,,,,,0,0,2,,,,1,56,88
79872,note_on,,,,,0,0,1,,,,0,87,101
79872,note_on,,,,,307,0,1,,,,0,75,101
80896,note_off,,,,,0,0,1,,,,0,87,0
80896,note_off,,,,,0,0,1,,,,0,84,0
80896,note_off,,,,,1024,0,1,,,,0,75,0
80896,note_on,,,,,0,0,2,,,,1,44,88
80896,note_on,,,,,0,0,2,,,,1,54,88
80896,note_on,,,,,0,0,1,,,,0,84,101
80896,note_off,,,,,0,0,2,,,,1,56,0
80896,note_off,,,,,0,0,2,,,,1,54,0
80896,note_off,,,,,1024,0,2,,,,1,44,0
80896,note_on,,,,,0,0,2,,,,1,56,88
80896,note_on,,,,,0,0,1,,,,0,87,101
80896,note_on,,,,,0,0,1,,,,0,75,101
81101,note_off,,,,,0,0,2,,,,1,54,0
81101,note_off,,,,,0,0,1,,,,0,87,0
81101,note_off,,,,,0,0,1,,,,0,84,0
81101,note_off,,,,,205,0,1,,,,0,75,0
81101,note_off,,,,,205,0,2,,,,1,44,0
81101,note_off,,,,,0,0,2,,,,1,56,0
81408,note_on,,,,,0,0,1,,,,0,87,101
81408,note_on,,,,,0,0,1,,,,0,84,101
81408,note_on,,,,,307,0,1,,,,0,75,101
81408,note_on,,,,,0,0,2,,,,1,56,88
81408,note_on,,,,,0,0,2,,,,1,54,88
81408,note_on,,,,,307,0,2,,,,1,44,88
81613,note_off,,,,,0,0,1,,,,0,87,0
81613,note_off,,,,,0,0,1,,,,0,84,0
81613,note_off,,,,,205,0,1,,,,0,75,0
81613,note_off,,,,,205,0,2,,,,1,44,0
81613,note_off,,,,,0,0,2,,,,1,54,0
81613,note_off,,,,,0,0,2,,,,1,56,0
81920,note_on,,,,,307,0,2,,,,1,49,88
81920,note_on,,,,,0,0,2,,,,1,53,88
81920,note_on,,,,,0,0,2,,,,1,56,88
81920,note_on,,,,,307,0,1,,,,0,73,101
81920,note_on,,,,,0,0,1,,,,0,85,101
82944,note_on,,,,,0,0,2,,,,1,49,110
82944,note_off,,,,,0,0,2,,,,1,53,0
82944,note_on,,,,,0,0,2,,,,1,37,110
82944,note_off,,,,,0,0,2,,,,1,56,0
82944,note_off,,,,,1024,0,1,,,,0,73,0
82944,note_off,,,,,0,0,1,,,,0,85,0
82944,note_off,,,,,1024,0,2,,,,1,49,0
82944,note_on,,,,,0,0,1,,,,0,77,126
82944,note_on,,,,,0,0,1,,,,0,84,126
82944,note_on,,,,,0,0,1,,,,0,71,126
82944,note_on,,,,,0,0,1,,,,0,83,126
83968,note_off,,,,,1024,0,1,,,,0,71,0
83968,note_on,,,,,0,0,2,,,,1,48,110
83968,note_on,,,,,0,0,2,,,,1,36,110
83968,note_off,,,,,0,0,2,,,,1,49,0
83968,note_on,,,,,0,0,1,,,,0,84,126
83968,note_off,,,,,1024,0,2,,,,1,37,0
83968,note_on,,,,,0,0,1,,,,0,77,126
83968,note_on,,,,,0,0,1,,,,0,72,126
83968,note_off,,,,,0,0,1,,,,0,84,0
83968,note_off,,,,,0,0,1,,,,0,83,0
83968,note_off,,,,,0,0,1,,,,0,77,0
83968,note_on,,,,,0,0,1,,,,0,80,126
84992,note_off,,,,,1024,0,2,,,,1,36,0
84992,note_off,,,,,0,0,2,,,,1,48,0
84992,note_on,,,,,0,0,2,,,,1,36,110
84992,note_on,,,,,0,0,2,,,,1,48,110
84992,note_on,,,,,0,0,1,,,,0,84,126
84992,note_on,,,,,0,0,1,,,,0,79,126
84992,note_off,,,,,1024,0,1,,,,0,72,0
84992,note_off,,,,,0,0,1,,,,0,77,0
84992,note_off,,,,,0,0,1,,,,0,80,0
84992,note_off,,,,,0,0,1,,,,0,84,0
84992,note_on,,,,,0,0,1,,,,0,72,126
84992,note_on,,,,,0,0,1,,,,0,76,126
86016,note_on,,,,,0,0,1,,,,0,70,80
86016,note_off,,,,,1024,0,1,,,,0,72,0
86016,note_off,,,,,0,0,2,,,,1,48,0
86016,note_on,,,,,0,0,2,,,,1,58,80
86016,note_on,,,,,0,0,2,,,,1,60,80
86016,note_off,,,,,0,0,1,,,,0,84,0
86016,note_off,,,,,0,0,1,,,,0,79,0
86016,note_off,,,,,0,0,1,,,,0,76,0
86016,note_off,,,,,1024,0,2,,,,1,36,0
86016,note_on,,,,,0,0,1,,,,0,72,80
87040,note_on,,,,,0,0,2,,,,1,60,64
87040,note_on,,,,,0,0,2,,,,1,55,64
87040,note_off,,,,,0,0,2,,,,1,60,0
87040,note_off,,,,,0,0,1,,,,0,72,0
87040,note_off,,,,,1024,0,2,,,,1,58,0
87040,note_on,,,,,0,0,1,,,,0,72,64
87040,note_off,,,,,1024,0,1,,,,0,70,0
87040,note_on,,,,,0,0,1,,,,0,67,64
87245,note_off,,,,,205,0,1,,,,0,67,0
87245,note_off,,,,,0,0,1,,,,0,72,0
87245,note_off,,,,,205,0,2,,,,1,55,0
87245,note_off,,,,,0,0,2,,,,1,60,0
87552,note_on,,,,,0,0,1,,,,0,72,64
87552,note_on,,,,,307,0,1,,,,0,67,64
87552,note_on,,,,,307,0,2,,,,1,55,64
87552,note_on,,,,,0,0,2,,,,1,60,64
87757,note_off,,,,,0,0,1,,,,0,72,0
87757,note_off,,,,,0,0,2,,,,1,60,0
87757,note_off,,,,,205,0,1,,,,0,67,0
87757,note_off,,,,,205,0,2,,,,1,55,0
88064,note_on,,,,,307,0,2,,,,1,56,80
88064,note_on,,,,,0,0,2,,,,1,60,80
88064,note_on,,,,,307,0,1,,,,0,68,80
88064,note_on,,,,,0,0,1,,,,0,72,80
89088,note_on,,,,,0,0,2,,,,1,60,64
89088,note_on,,,,,0,0,2,,,,1,53,64
89088,note_on,,,,,0,0,1,,,,0,65,64
89088,note_off,,,,,0,0,1,,,,0,72,0
89088,note_off,,,,,0,0,2,,,,1,60,0
89088,note_off,,,,,1024,0,2,,,,1,56,0
89088,note_on,,,,,0,0,1,,,,0,72,64
89088,note_off,,,,,1024,0,1,,,,0,68,0
89293,note_off,,,,,205,0,2,,,,1,53,0
89293,note_off,,,,,205,0,1,,,,0,65,0
89293,note_off,,,,,0,0,2,,,,1,60,0
89293,note_off,,,,,0,0,1,,,,0,72,0
89600,note_on,,,,,0,0,1,,,,0,72,64
89600,note_on,,,,,307,0,1,,,,0,65,64
89600,note_on,,,,,0,0,2,,,,1,60,64
89600,note_on,,,,,307,0,2,,,,1,53,64
89805,note_off,,,,,0,0,2,,,,1,60,0
89805,note_off,,,,,205,0,2,,,,1,53,0
89805,note_off,,,,,0,0,1,,,,0,72,0
89805,note_off,,,,,205,0,1,,,,0,65,0
90112,note_on,,,,,307,0,1,,,,0,66,80
90112,note_on,,,,,307,0,2,,,,1,54,80
90112,note_on,,,,,0,0,1,,,,0,68,80
90112,note_on,,,,,0,0,2,,,,1,56,80
91136,note_on,,,,,0,0,2,,,,1,48,64
91136,note_on,,,,,0,0,2,,,,1,56,64
91136,note_off,,,,,0,0,2,,,,1,56,0
91136,note_off,,,,,0,0,1,,,,0,68,0
91136,note_on,,,,,0,0,1,,,,0,60,64
91136,note_off,,,,,1024,0,1,,,,0,66,0
91136,note_off,,,,,1024,0,2,,,,1,54,0
91136,note_on,,,,,0,0,1,,,,0,68,64
91341,note_off,,,,,0,0,2,,,,1,56,0
91341,note_off,,,,,205,0,2,,,,1,48,0
91341,note_off,,,,,205,0,1,,,,0,60,0
91341,note_off,,,,,0,0,1,,,,0,68,0
91648,note_on,,,,,307,0,2,,,,1,48,64
91648,note_on,,,,,0,0,1,,,,0,68,64
91648,note_on,,,,,307,0,1,,,,0,60,64
91648,note_on,,,,,0,0,2,,,,1,56,64
91853,note_off,,,,,0,0,1,,,,0,68,0
91853,note_off,,,,,205,0,1,,,,0,60,0
91853,note_off,,,,,205,0,2,,,,1,48,0
91853,note_off,,,,,0,0,2,,,,1,56,0
92160,note_on,,,,,0,0,1,,,,0,77,80
92160,note_on,,,,,0,0,1,,,,0,68,80
92160,note_on,,,,,307,0,2,,,,1,37,80
92160,note_on,,,,,0,0,2,,,,1,49,80
92160,note_on,,,,,307,0,1,,,,0,65,80
93184,note_off,,,,,0,0,2,,,,1,49,0
93184,note_on,,,,,0,0,1,,,,0,68,64
93184,note_on,,,,,0,0,1,,,,0,73,64
93184,note_off,,,,,0,0,1,,,,0,68,0
93184,note_off,,,,,1024,0,1,,,,0,65,0
93184,note_off,,,,,1024,0,2,,,,1,37,0
93184,note_off,,,,,0,0,1,,,,0,77,0
93184,note_on,,,,,0,0,1,,,,0,65,64
93184,note_on,,,,,0,0,2,,,,1,56,64
93184,note_on,,,,,0,0,2,,,,1,49,64
94208,note_on,,,,,0,0,2,,,,1,56,64
94208,note_off,,,,,0,0,2,,,,1,56,0
94208,note_off,,,,,1024,0,2,,,,1,49,0
94208,note_on,,,,,0,0,1,,,,0,68,64
94208,note_on,,,,,0,0,1,,,,0,66,64
94208,note_off,,,,,0,0,1,,,,0,73,0
94208,note_off,,,,,0,0,1,,,,0,68,0
94208,note_off,,,,,1024,0,1,,,,0,65,0
94208,note_on,,,,,0,0,2,,,,1,54,64
95232,note_off,,,,,1024,0,2,,,,1,54,0
95232,note_off,,,,,0,0,2,,,,1,56,0
95232,note_on,,,,,0,0,2,,,,1,48,64
95232,note_on,,,,,0,0,2,,,,1,56,64
95232,note_on,,,,,0,0,1,,,,0,60,64
95232,note_off,,,,,0,0,1,,,,0,68,0
95232,note_on,,,,,0,0,1,,,,0,68,64
95232,note_off,,,,,1024,0,1,,,,0,66,0
95744,note_off,,,,,512,0,1,,,,0,60,0
95744,note_off,,,,,0,0,1,,,,0,68,0
95744,note_on,,,,,0,0,1,,,,0,60,64
95744,note_on,,,,,0,0,1,,,,0,68,64
95744,note_on,,,,,0,0,2,,,,1,56,64
95744,note_on,,,,,0,0,2,,,,1,48,64
95744,note_off,,,,,0,0,2,,,,1,56,0
95744,note_off,,,,,512,0,2,,,,1,48,0
96256,note_off,,,,,512,0,2,,,,1,48,0
96256,note_on,,,,,0,0,2,,,,1,49,80
96256,note_off,,,,,0,0,2,,,,1,56,0
96256,note_on,,,,,0,0,2,,,,1,37,80
96256,note_off,,,,,512,0,1,,,,0,60,0
96256,note_off,,,,,0,0,1,,,,0,68,0
96256,note_on,,,,,0,0,1,,,,0,65,80
96256,note_on,,,,,0,0,1,,,,0,68,80
96256,note_on,,,,,0,0,1,,,,0,77,80
97280,note_on,,,,,0,0,1,,,,0,65,64
97280,note_off,,,,,1024,0,2,,,,1,37,0
97280,note_off,,,,,0,0,1,,,,0,77,0
97280,note_off,,,,,0,0,2,,,,1,49,0
97280,note_off,,,,,1024,0,1,,,,0,65,0
97280,note_on,,,,,0,0,2,,,,1,56,64
97280,note_on,,,,,0,0,1,,,,0,73,64
97280,note_off,,,,,0,0,1,,,,0,68,0
97280,note_on,,,,,0,0,2,,,,1,49,64
97280,note_on,,,,,0,0,1,,,,0,68,64
98304,note_off,,,,,1024,0,2,,,,1,49,0
98304,note_off,,,,,0,0,2,,,,1,56,0
98304,note_on,,,,,0,0,2,,,,1,63,80
98304,note_on,,,,,0,0,2,,,,1,65,80
98304,note_on,,,,,0,0,1,,,,0,77,80
98304,note_on,,,,,0,0,1,,,,0,75,80
98304,note_off,,,,,0,0,1,,,,0,73,0
98304,note_off,,,,,0,0,1,,,,0,68,0
98304,note_off,,,,,1024,0,1,,,,0,65,0
99328,note_on,,,,,0,0,1,,,,0,72,64
99328,note_off,,,,,0,0,1,,,,0,77,0
99328,note_off,,,,,1024,0,1,,,,0,75,0
99328,note_off,,,,,0,0,2,,,,1,65,0
99328,note_on,,,,,0,0,1,,,,0,77,64
99328,note_on,,,,,0,0,2,,,,1,60,64
99328,note_off,,,,,1024,0,2,,,,1,63,0
99328,note_on,,,,,0,0,2,,,,1,65,64
99533,note_off,,,,,205,0,2,,,,1,60,0
99533,note_off,,,,,0,0,1,,,,0,77,0
99533,note_off,,,,,0,0,2,,,,1,65,0
99533,note_off,,,,,205,0,1,,,,0,72,0
99840,note_on,,,,,0,0,1,,,,0,77,64
99840,note_on,,,,,307,0,1,,,,0,72,64
99840,note_on,,,,,307,0,2,,,,1,60,64
99840,note_on,,,,,0,0,2,,,,1,65,64
100045,note_off,,,,,0,0,2,,,,1,65,0
100045,note_off,,,,,205,0,1,,,,0,72,0
100045,note_off,,,,,205,0,2,,,,1,60,0
100045,note_off,,,,,0,0,1,,,,0,77,0
100352,note_on,,,,,307,0,1,,,,0,73,80
100352,note_on,,,,,0,0,1,,,,0,77,80
100352,note_on,,,,,307,0,2,,,,1,61,80
100352,note_on,,,,,0,0,2,,,,1,65,80
101376,note_on,,,,,0,0,1,,,,0,70,64
101376,note_off,,,,,1024,0,2,,,,1,61,0
101376,note_on,,,,,0,0,1,,,,0,77,64
101376,note_off,,,,,0,0,2,,,,1,65,0
101376,note_off,,,,,0,0,1,,,,0,77,0
101376,note_off,,,,,1024,0,1,,,,0,73,0
101376,note_on,,,,,0,0,2,,,,1,58,64
101376,note_on,,,,,0,0,2,,,,1,65,64
101581,note_off,,,,,0,0,2,,,,1,65,0
101581,note_off,,,,,0,0,1,,,,0,77,0
101581,note_off,,,,,205,0,1,,,,0,70,0
101581,note_off,,,,,205,0,2,,,,1,58,0
101888,note_on,,,,,0,0,1,,,,0,77,64
101888,note_on,,,,,307,0,2,,,,1,58,64
101888,note_on,,,,,307,0,1,,,,0,70,64
101888,note_on,,,,,0,0,2,,,,1,65,64
102093,note_off,,,,,205,0,2,,,,1,58,0
102093,note_off,,,,,0,0,2,,,,1,65,0
102093,note_off,,,,,0,0,1,,,,0,77,0
102093,note_off,,,,,205,0,1,,,,0,70,0
102400,note_on,,,,,0,0,1,,,,0,73,80
102400,note_on,,,,,307,0,1,,,,0,71,80
102400,note_on,,,,,307,0,2,,,,1,59,80
102400,note_on,,,,,0,0,2,,,,1,61,80
103424,note_on,,,,,0,0,1,,,,0,73,64
103424,note_on,,,,,0,0,1,,,,0,65,64
103424,note_off,,,,,1024,0,1,,,,0,71,0
103424,note_off,,,,,1024,0,2,,,,1,59,0
103424,note_off,,,,,0,0,2,,,,1,61,0
103424,note_on,,,,,0,0,2,,,,1,53,64
103424,note_off,,,,,0,0,1,,,,0,73,0
103424,note_on,,,,,0,0,2,,,,1,61,64
103629,note_off,,,,,205,0,2,,,,1,53,0
103629,note_off,,,,,0,0,2,,,,1,61,0
103629,note_off,,,,,205,0,1,,,,0,65,0
103629,note_off,,,,,0,0,1,,,,0,73,0
103936,note_on,,,,,307,0,2,,,,1,53,64
103936,note_on,,,,,0,0,2,,,,1,61,64
103936,note_on,,,,,0,0,1,,,,0,73,64
103936,note_on,,,,,307,0,1,,,,0,65,64
104141,note_off,,,,,205,0,2,,,,1,53,0
104141,note_off,,,,,0,0,1,,,,0,73,0
104141,note_off,,,,,0,0,2,,,,1,61,0
104141,note_off,,,,,205,0,1,,,,0,65,0
104448,note_on,,,,,0,0,2,,,,1,54,80
104448,note_on,,,,,0,0,1,,,,0,82,80
104448,note_on,,,,,0,0,1,,,,0,73,80
104448,note_on,,,,,307,0,1,,,,0,70,80
104448,note_on,,,,,307,0,2,,,,1,42,80
105472,note_off,,,,,1024,0,2,,,,1,42,0
105472,note_off,,,,,0,0,2,,,,1,54,0
105472,note_on,,,,,0,0,1,,,,0,73,64
105472,note_on,,,,,0,0,1,,,,0,70,64
105472,note_off,,,,,0,0,1,,,,0,82,0
105472,note_on,,,,,0,0,2,,,,1,54,64
105472,note_off,,,,,1024,0,1,,,,0,70,0
105472,note_on,,,,,0,0,2,,,,1,61,64
105472,note_off,,,,,0,0,1,,,,0,73,0
105472,note_on,,,,,0,0,1,,,,0,78,64
106496,note_on,,,,,0,0,2,,,,1,59,80
106496,note_off,,,,,0,0,2,,,,1,61,0
106496,note_off,,,,,1024,0,2,,,,1,54,0
106496,note_off,,,,,1024,0,1,,,,0,70,0
106496,note_off,,,,,0,0,1,,,,0,73,0
106496,note_off,,,,,0,0,1,,,,0,78,0
106496,note_on,,,,,0,0,1,,,,0,71,80
106496,note_on,,,,,0,0,1,,,,0,73,80
106496,note_on,,,,,0,0,2,,,,1,61,80
107520,note_off,,,,,1024,0,1,,,,0,71,0
107520,note_off,,,,,0,0,1,,,,0,73,0
107520,note_on,,,,,0,0,1,,,,0,65,64
107520,note_off,,,,,1024,0,2,,,,1,59,0
107520,note_off,,,,,0,0,2,,,,1,61,0
107520,note_on,,,,,0,0,2,,,,1,53,64
107520,note_on,,,,,0,0,2,,,,1,61,64
107520,note_on,,,,,0,0,1,,,,0,73,64
107725,note_off,,,,,0,0,1,,,,0,73,0
107725,note_off,,,,,205,0,1,,,,0,65,0
107725,note_off,,,,,0,0,2,,,,1,61,0
107725,note_off,,,,,205,0,2,,,,1,53,0
108032,note_on,,,,,0,0,2,,,,1,61,64
108032,note_on,,,,,307,0,1,,,,0,65,64
108032,note_on,,,,,0,0,1,,,,0,73,64
108032,note_on,,,,,307,0,2,,,,1,53,64
108237,note_off,,,,,205,0,2,,,,1,53,0
108237,note_off,,,,,0,0,2,,,,1,61,0
108237,note_off,,,,,205,0,1,,,,0,65,0
108237,note_off,,,,,0,0,1,,,,0,73,0
108544,note_on,,,,,307,0,2,,,,1,42,80
108544,note_on,,,,,0,0,2,,,,1,54,80
108544,note_on,,,,,0,0,1,,,,0,82,80
108544,note_on,,,,,0,0,1,,,,0,73,80
108544,note_on,,,,,307,0,1,,,,0,70,80
109568,note_off,,,,,0,0,1,,,,0,82,0
109568,note_on,,,,,0,0,1,,,,0,70,64
109568,note_on,,,,,0,0,1,,,,0,73,64
109568,note_off,,,,,1024,0,1,,,,0,70,0
109568,note_on,,,,,0,0,1,,,,0,78,64
109568,note_off,,,,,0,0,1,,,,0,73,0
109568,note_off,,,,,0,0,2,,,,1,54,0
109568,note_on,,,,,0,0,2,,,,1,61,64
109568,note_off,,,,,1024,0,2,,,,1,42,0
109568,note_on,,,,,0,0,2,,,,1,54,64
110592,note_off,,,,,1024,0,2,,,,1,54,0
110592,note_off,,,,,1024,0,1,,,,0,70,0
110592,note_off,,,,,0,0,2,,,,1,61,0
110592,note_on,,,,,0,0,2,,,,1,49,17
110592,note_off,,,,,0,0,1,,,,0,73,0
110592,note_on,,,,,0,0,1,,,,0,82,46
110592,note_off,,,,,0,0,1,,,,0,78,0
111104,note_off,,,,,512,0,1,,,,0,82,0
111104,note_on,,,,,0,0,1,,,,0,70,34
111616,note_on,,,,,0,0,2,,,,1,54,9
111616,note_off,,,,,1024,0,2,,,,1,49,0
111616,note_off,,,,,512,0,1,,,,0,70,0
111616,note_on,,,,,0,0,1,,,,0,73,35
111616,note_on,,,,,0,0,1,,,,0,78,35
112128,note_on,,,,,0,0,1,,,,0,70,35
112128,note_off,,,,,512,0,1,,,,0,73,0
112128,note_off,,,,,0,0,1,,,,0,78,0
112640,note_off,,,,,1024,0,2,,,,1,54,0
112640,note_on,,,,,0,0,2,,,,1,54,19
112640,note_off,,,,,512,0,1,,,,0,70,0
112640,note_on,,,,,0,0,1,,,,0,78,48
113152,note_on,,,,,0,0,1,,,,0,66,36
113152,note_off,,,,,512,0,1,,,,0,78,0
113664,note_on,,,,,0,0,1,,,,0,74,36
113664,note_on,,,,,0,0,1,,,,0,71,36
113664,note_off,,,,,512,0,1,,,,0,66,0
113664,note_on,,,,,0,0,2,,,,1,59,11
113664,note_off,,,,,1024,0,2,,,,1,54,0
114176,note_off,,,,,512,0,1,,,,0,71,0
114176,note_off,,,,,0,0,1,,,,0,74,0
114176,note_on,,,,,0,0,1,,,,0,66,37
114688,note_off,,,,,1024,0,2,,,,1,59,0
114688,note_off,,,,,512,0,1,,,,0,66,0
114688,note_on,,,,,0,0,1,,,,0,76,49
114688,note_on,,,,,0,0,2,,,,1,42,21
115200,note_off,,,,,512,0,1,,,,0,76,0
115200,note_on,,,,,0,0,1,,,,0,67,38
115712,note_on,,,,,0,0,1,,,,0,73,38
115712,note_on,,,,,0,0,1,,,,0,70,38
115712,note_off,,,,,1024,0,2,,,,1,42,0
115712,note_off,,,,,512,0,1,,,,0,67,0
115712,note_on,,,,,0,0,2,,,,1,54,13
116224,note_off,,,,,512,0,1,,,,0,70,0
116224,note_off,,,,,0,0,1,,,,0,73,0
116224,note_on,,,,,0,0,1,,,,0,67,38
116736,note_off,,,,,512,0,1,,,,0,67,0
116736,note_on,,,,,0,0,1,,,,0,71,51
116736,note_on,,,,,0,0,1,,,,0,73,51
116736,note_on,,,,,0,0,2,,,,1,42,24
116736,note_on,,,,,0,0,2,,,,1,54,24
116736,note_off,,,,,1024,0,2,,,,1,54,0
117248,note_off,,,,,512,0,1,,,,0,71,0
117248,note_off,,,,,0,0,1,,,,0,73,0
117248,note_on,,,,,0,0,1,,,,0,66,39
117760,note_on,,,,,0,0,1,,,,0,71,40
117760,note_on,,,,,0,0,1,,,,0,74,40
117760,note_off,,,,,0,0,2,,,,1,54,0
117760,note_off,,,,,512,0,1,,,,0,66,0
117760,note_off,,,,,1024,0,2,,,,1,42,0
117760,note_on,,,,,0,0,2,,,,1,54,16
117760,note_on,,,,,0,0,2,,,,1,47,16
118272,note_on,,,,,0,0,1,,,,0,66,40
118272,note_off,,,,,0,0,1,,,,0,74,0
118272,note_off,,,,,512,0,1,,,,0,71,0
118784,note_off,,,,,512,0,1,,,,0,66,0
118784,note_on,,,,,0,0,2,,,,1,54,26
118784,note_off,,,,,0,0,2,,,,1,54,0
118784,note_off,,,,,1024,0,2,,,,1,47,0
118784,note_on,,,,,0,0,1,,,,0,79,53
119296,note_off,,,,,512,0,1,,,,0,79,0
119296,note_on,,,,,0,0,1,,,,0,70,41
119808,note_off,,,,,512,0,1,,,,0,70,0
119808,note_on,,,,,0,0,1,,,,0,73,41
119808,note_on,,,,,0,0,2,,,,1,67,18
119808,note_off,,,,,1024,0,2,,,,1,54,0
119808,note_on,,,,,0,0,1,,,,0,76,41
120320,note_off,,,,,0,0,1,,,,0,76,0
120320,note_off,,,,,512,0,1,,,,0,73,0
120320,note_on,,,,,0,0,1,,,,0,70,42
120832,note_off,,,,,1024,0,2,,,,1,67,0
120832,note_on,,,,,0,0,2,,,,1,66,19
120832,note_on,,,,,0,0,1,,,,0,73,42
120832,note_on,,,,,0,0,2,,,,1,54,19
120832,note_off,,,,,512,0,1,,,,0,70,0
120832,note_on,,,,,0,0,1,,,,0,78,42
121344,note_off,,,,,0,0,1,,,,0,78,0
121344,note_on,,,,,0,0,1,,,,0,70,43
121344,note_off,,,,,512,0,1,,,,0,73,0
121856,note_off,,,,,0,0,2,,,,1,66,0
121856,note_off,,,,,1024,0,2,,,,1,54,0
121856,note_on,,,,,0,0,2,,,,1,59,20
121856,note_on,,,,,0,0,2,,,,1,66,20
121856,note_on,,,,,0,0,1,,,,0,78,43
121856,note_on,,,,,0,0,1,,,,0,74,43
121856,note_off,,,,,512,0,1,,,,0,70,0
122368,note_off,,,,,0,0,1,,,,0,78,0
122368,note_off,,,,,512,0,1,,,,0,74,0
122368,note_on,,,,,0,0,1,,,,0,71,43
122880,note_off,,,,,512,0,1,,,,0,71,0
122880,note_on,,,,,0,0,1,,,,0,83,44
122880,note_on,,,,,0,0,2,,,,1,50,21
122880,note_off,,,,,0,0,2,,,,1,66,0
122880,note_off,,,,,1024,0,2,,,,1,59,0
123392,note_off,,,,,512,0,1,,,,0,83,0
123392,note_on,,,,,0,0,1,,,,0,71,44
123904,note_on,,,,,0,0,2,,,,1,55,22
123904,note_off,,,,,1024,0,2,,,,1,50,0
123904,note_on,,,,,0,0,1,,,,0,74,45
123904,note_on,,,,,0,0,1,,,,0,79,45
123904,note_off,,,,,512,0,1,,,,0,71,0
124416,note_off,,,,,0,0,1,,,,0,79,0
124416,note_on,,,,,0,0,1,,,,0,71,45
124416,note_off,,,,,512,0,1,,,,0,74,0
124928,note_on,,,,,0,0,2,,,,1,55,23
124928,note_off,,,,,1024,0,2,,,,1,55,0
124928,note_on,,,,,0,0,1,,,,0,79,45
124928,note_off,,,,,512,0,1,,,,0,71,0
125440,note_on,,,,,0,0,1,,,,0,67,46
125440,note_off,,,,,512,0,1,,,,0,79,0
125952,note_on,,,,,0,0,1,,,,0,72,46
125952,note_off,,,,,512,0,1,,,,0,67,0
125952,note_off,,,,,1024,0,2,,,,1,55,0
125952,note_on,,,,,0,0,1,,,,0,75,46
125952,note_on,,,,,0,0,2,,,,1,60,24
126464,note_off,,,,,0,0,1,,,,0,75,0
126464,note_off,,,,,512,0,1,,,,0,72,0
126464,note_on,,,,,0,0,1,,,,0,67,47
126976,note_on,,,,,0,0,1,,,,0,77,47
126976,note_off,,,,,512,0,1,,,,0,67,0
126976,note_off,,,,,1024,0,2,,,,1,60,0
126976,note_on,,,,,0,0,2,,,,1,43,25
127488,note_off,,,,,512,0,1,,,,0,77,0
127488,note_on,,,,,0,0,1,,,,0,68,47
128000,note_off,,,,,1024,0,2,,,,1,43,0
128000,note_on,,,,,0,0,2,,,,1,55,26
128000,note_off,,,,,512,0,1,,,,0,68,0
128000,note_on,,,,,0,0,1,,,,0,74,48
128000,note_on,,,,,0,0,1,,,,0,71,48
128512,note_on,,,,,0,0,1,,,,0,68,48
128512,note_off,,,,,0,0,1,,,,0,74,0
128512,note_off,,,,,512,0,1,,,,0,71,0
129024,note_on,,,,,0,0,1,,,,0,72,49
129024,note_off,,,,,512,0,1,,,,0,68,0
129024,note_off,,,,,1024,0,2,,,,1,55,0
129024,note_on,,,,,0,0,2,,,,1,43,28
129024,note_on,,,,,0,0,1,,,,0,74,49
129024,note_on,,,,,0,0,2,,,,1,55,28
129536,note_on,,,,,0,0,1,,,,0,67,49
129536,note_off,,,,,512,0,1,,,,0,72,0
129536,note_off,,,,,0,0,1,,,,0,74,0
130048,note_off,,,,,512,0,1,,,,0,67,0
130048,note_on,,,,,0,0,2,,,,1,55,29
130048,note_on,,,,,0,0,2,,,,1,49,29
130048,note_off,,,,,0,0,2,,,,1,55,0
130048,note_off,,,,,1024,0,2,,,,1,43,0
130048,note_on,,,,,0,0,1,,,,0,72,49
130048,note_on,,,,,0,0,1,,,,0,75,49
130560,note_on,,,,,0,0,1,,,,0,67,50
130560,note_off,,,,,512,0,1,,,,0,72,0
130560,note_off,,,,,0,0,1,,,,0,75,0
131072,note_off,,,,,0,0,2,,,,1,55,0
131072,note_off,,,,,1024,0,2,,,,1,49,0
131072,note_on,,,,,0,0,2,,,,1,55,30
131072,note_on,,,,,0,0,1,,,,0,80,50
131072,note_off,,,,,512,0,1,,,,0,67,0
131584,note_on,,,,,0,0,1,,,,0,71,51
131584,note_off,,,,,512,0,1,,,,0,80,0
132096,note_off,,,,,512,0,1,,,,0,71,0
132096,note_on,,,,,0,0,1,,,,0,74,51
132096,note_on,,,,,0,0,1,,,,0,77,51
132096,note_on,,,,,0,0,2,,,,1,68,31
132096,note_off,,,,,1024,0,2,,,,1,55,0
132608,note_off,,,,,512,0,1,,,,0,74,0
132608,note_off,,,,,0,0,1,,,,0,77,0
132608,note_on,,,,,0,0,1,,,,0,71,51
133120,note_off,,,,,1024,0,2,,,,1,68,0
133120,note_on,,,,,0,0,2,,,,1,67,32
133120,note_on,,,,,0,0,1,,,,0,79,52
133120,note_on,,,,,0,0,1,,,,0,74,52
133120,note_off,,,,,512,0,1,,,,0,71,0
133120,note_on,,,,,0,0,2,,,,1,55,32
133632,note_on,,,,,0,0,1,,,,0,71,52
133632,note_off,,,,,0,0,1,,,,0,79,0
133632,note_off,,,,,512,0,1,,,,0,74,0
134144,note_on,,,,,0,0,1,,,,0,75,53
134144,note_on,,,,,0,0,2,,,,1,67,33
134144,note_on,,,,,0,0,1,,,,0,79,53
134144,note_off,,,,,512,0,1,,,,0,71,0
134144,note_off,,,,,1024,0,2,,,,1,55,0
134144,note_off,,,,,0,0,2,,,,1,67,0
134144,note_on,,,,,0,0,2,,,,1,60,33
134656,note_on,,,,,0,0,1,,,,0,72,53
134656,note_off,,,,,0,0,1,,,,0,79,0
134656,note_off,,,,,512,0,1,,,,0,75,0
135168,note_off,,,,,1024,0,2,,,,1,60,0
135168,note_on,,,,,0,0,1,,,,0,70,54
135168,note_off,,,,,512,0,1,,,,0,72,0
135168,note_off,,,,,0,0,2,,,,1,67,0
135168,note_on,,,,,0,0,2,,,,1,67,34
135680,note_on,,,,,0,0,1,,,,0,75,54
135680,note_off,,,,,512,0,1,,,,0,70,0
136192,note_on,,,,,0,0,1,,,,0,74,54
136192,note_off,,,,,1024,0,2,,,,1,67,0
136192,note_off,,,,,512,0,1,,,,0,75,0
136192,note_on,,,,,0,0,2,,,,1,63,35
136704,note_off,,,,,512,0,1,,,,0,74,0
136704,note_on,,,,,0,0,1,,,,0,75,55
137216,note_on,,,,,0,0,1,,,,0,75,55
137216,note_off,,,,,1024,0,2,,,,1,63,0
137216,note_on,,,,,0,0,2,,,,1,63,36
137216,note_off,,,,,512,0,1,,,,0,75,0
137728,note_on,,,,,0,0,1,,,,0,80,56
137728,note_off,,,,,512,0,1,,,,0,75,0
138240,note_off,,,,,1024,0,2,,,,1,63,0
138240,note_on,,,,,0,0,2,,,,1,59,37
138240,note_on,,,,,0,0,2,,,,1,63,37
138240,note_off,,,,,512,0,1,,,,0,80,0
138240,note_on,,,,,0,0,1,,,,0,79,56
138752,note_on,,,,,0,0,1,,,,0,80,56
138752,note_off,,,,,512,0,1,,,,0,79,0
139264,note_on,,,,,0,0,1,,,,0,87,57
139264,note_off,,,,,512,0,1,,,,0,80,0
139264,note_on,,,,,0,0,2,,,,1,63,38
139264,note_on,,,,,0,0,2,,,,1,61,38
139264,note_off,,,,,1024,0,2,,,,1,59,0
139264,note_off,,,,,0,0,2,,,,1,63,0
139776,note_off,,,,,512,0,1,,,,0,87,0
139776,note_on,,,,,0,0,1,,,,0,75,57
140288,note_off,,,,,512,0,1,,,,0,75,0
140288,note_on,,,,,0,0,1,,,,0,79,58
140288,note_on,,,,,0,0,2,,,,1,63,39
140288,note_off,,,,,1024,0,2,,,,1,61,0
140288,note_on,,,,,0,0,2,,,,1,58,39
140288,note_off,,,,,0,0,2,,,,1,63,0
140800,note_on,,,,,0,0,1,,,,0,75,58
140800,note_off,,,,,512,0,1,,,,0,79,0
141312,note_on,,,,,0,0,1,,,,0,75,58
141312,note_off,,,,,512,0,1,,,,0,75,0
141312,note_on,,,,,0,0,2,,,,1,63,41
141312,note_on,,,,,0,0,2,,,,1,58,41
141312,note_off,,,,,0,0,2,,,,1,63,0
141312,note_off,,,,,1024,0,2,,,,1,58,0
141824,note_on,,,,,0,0,1,,,,0,80,59
141824,note_off,,,,,512,0,1,,,,0,75,0
142336,note_off,,,,,1024,0,2,,,,1,58,0
142336,note_off,,,,,0,0,2,,,,1,63,0
142336,note_on,,,,,0,0,2,,,,1,59,42
142336,note_off,,,,,512,0,1,,,,0,80,0
142336,note_on,,,,,0,0,1,,,,0,79,59
142336,note_on,,,,,0,0,2,,,,1,63,42
142848,note_on,,,,,0,0,1,,,,0,80,60
142848,note_off,,,,,512,0,1,,,,0,79,0
143360,note_off,,,,,512,0,1,,,,0,80,0
143360,note_on,,,,,0,0,1,,,,0,78,60
143360,note_off,,,,,0,0,2,,,,1,63,0
143360,note_off,,,,,1024,0,2,,,,1,59,0
143360,note_on,,,,,0,0,2,,,,1,64,43
143872,note_on,,,,,0,0,1,,,,0,66,60
143872,note_off,,,,,512,0,1,,,,0,78,0
144384,note_on,,,,,0,0,1,,,,0,70,61
144384,note_on,,,,,0,0,2,,,,1,61,44
144384,note_off,,,,,1024,0,2,,,,1,64,0
144384,note_off,,,,,512,0,1,,,,0,66,0
144896,note_off,,,,,512,0,1,,,,0,70,0
144896,note_on,,,,,0,0,1,,,,0,66,61
145408,note_off,,,,,512,0,1,,,,0,66,0
145408,note_on,,,,,0,0,1,,,,0,66,62
145408,note_on,,,,,0,0,2,,,,1,61,45
145408,note_off,,,,,1024,0,2,,,,1,61,0
145920,note_off,,,,,512,0,1,,,,0,66,0
145920,note_on,,,,,0,0,1,,,,0,71,62
146432,note_off,,,,,512,0,1,,,,0,71,0
146432,note_on,,,,,0,0,2,,,,1,63,46
146432,note_on,,,,,0,0,1,,,,0,70,62
146432,note_off,,,,,1024,0,2,,,,1,61,0
146944,note_off,,,,,512,0,1,,,,0,70,0
146944,note_on,,,,,0,0,1,,,,0,71,63
147456,note_on,,,,,0,0,2,,,,1,70,47
147456,note_on,,,,,0,0,1,,,,0,71,63
147456,note_off,,,,,512,0,1,,,,0,71,0
147456,note_off,,,,,1024,0,2,,,,1,63,0
147968,note_on,,,,,0,0,1,,,,0,76,64
147968,note_off,,,,,512,0,1,,,,0,71,0
148480,note_off,,,,,512,0,1,,,,0,76,0
148480,note_on,,,,,0,0,2,,,,1,64,48
148480,note_on,,,,,0,0,1,,,,0,75,64
148480,note_off,,,,,1024,0,2,,,,1,70,0
148992,note_on,,,,,0,0,1,,,,0,76,64
148992,note_off,,,,,512,0,1,,,,0,75,0
149504,note_off,,,,,1024,0,2,,,,1,64,0
149504,note_on,,,,,0,0,2,,,,1,64,49
149504,note_on,,,,,0,0,1,,,,0,76,65
149504,note_off,,,,,512,0,1,,,,0,76,0
150016,note_on,,,,,0,0,1,,,,0,81,65
150016,note_off,,,,,512,0,1,,,,0,76,0
150528,note_off,,,,,1024,0,2,,,,1,64,0
150528,note_on,,,,,0,0,2,,,,1,60,50
150528,note_off,,,,,512,0,1,,,,0,81,0
150528,note_on,,,,,0,0,2,,,,1,64,50
150528,note_on,,,,,0,0,1,,,,0,80,66
151040,note_on,,,,,0,0,1,,,,0,81,66
151040,note_off,,,,,512,0,1,,,,0,80,0
151552,note_off,,,,,512,0,1,,,,0,81,0
151552,note_off,,,,,1024,0,2,,,,1,60,0
151552,note_on,,,,,0,0,1,,,,0,88,67
151552,note_off,,,,,0,0,2,,,,1,64,0
151552,note_on,,,,,0,0,2,,,,1,64,51
151552,note_on,,,,,0,0,2,,,,1,62,51
152064,note_off,,,,,512,0,1,,,,0,88,0
152064,note_on,,,,,0,0,1,,,,0,76,67
152576,note_off,,,,,0,0,2,,,,1,64,0
152576,note_on,,,,,0,0,1,,,,0,80,67
152576,note_on,,,,,0,0,2,,,,1,59,52
152576,note_on,,,,,0,0,2,,,,1,64,52
152576,note_off,,,,,1024,0,2,,,,1,62,0
152576,note_off,,,,,512,0,1,,,,0,76,0
153088,note_off,,,,,512,0,1,,,,0,80,0
153088,note_on,,,,,0,0,1,,,,0,76,68
153600,note_on,,,,,0,0,2,,,,1,59,54
153600,note_off,,,,,0,0,2,,,,1,64,0
153600,note_off,,,,,1024,0,2,,,,1,59,0
153600,note_on,,,,,0,0,2,,,,1,64,54
153600,note_off,,,,,512,0,1,,,,0,76,0
153600,note_on,,,,,0,0,1,,,,0,76,68
154112,note_on,,,,,0,0,1,,,,0,81,69
154112,note_off,,,,,512,0,1,,,,0,76,0
154624,note_off,,,,,512,0,1,,,,0,81,0
154624,note_on,,,,,0,0,1,,,,0,80,69
154624,note_on,,,,,0,0,2,,,,1,60,55
154624,note_on,,,,,0,0,2,,,,1,64,55
154624,note_off,,,,,0,0,2,,,,1,64,0
154624,note_off,,,,,1024,0,2,,,,1,59,0
155136,note_on,,,,,0,0,1,,,,0,81,69
155136,note_off,,,,,512,0,1,,,,0,80,0
155648,note_off,,,,,512,0,1,,,,0,81,0
155648,note_on,,,,,0,0,2,,,,1,65,56
155648,note_off,,,,,0,0,2,,,,1,64,0
155648,note_off,,,,,1024,0,2,,,,1,60,0
155648,note_on,,,,,0,0,1,,,,0,79,70
156160,note_on,,,,,0,0,1,,,,0,67,70
156160,note_off,,,,,512,0,1,,,,0,79,0
156672,note_on,,,,,0,0,1,,,,0,71,71
156672,note_off,,,,,512,0,1,,,,0,67,0
156672,note_off,,,,,1024,0,2,,,,1,65,0
156672,note_on,,,,,0,0,2,,,,1,62,57
157184,note_on,,,,,0,0,1,,,,0,67,71
157184,note_off,,,,,512,0,1,,,,0,71,0
157696,note_on,,,,,0,0,2,,,,1,62,58
157696,note_off,,,,,512,0,1,,,,0,67,0
157696,note_on,,,,,0,0,1,,,,0,67,71
157696,note_off,,,,,1024,0,2,,,,1,62,0
158208,note_off,,,,,512,0,1,,,,0,67,0
158208,note_on,,,,,0,0,1,,,,0,72,72
158720,note_off,,,,,512,0,1,,,,0,72,0
158720,note_on,,,,,0,0,1,,,,0,71,72
158720,note_on,,,,,0,0,2,,,,1,64,59
158720,note_off,,,,,1024,0,2,,,,1,62,0
159232,note_off,,,,,512,0,1,,,,0,71,0
159232,note_on,,,,,0,0,1,,,,0,72,73
159744,note_off,,,,,512,0,1,,,,0,72,0
159744,note_on,,,,,0,0,2,,,,1,61,110
159744,note_off,,,,,1024,0,2,,,,1,64,0
159744,note_on,,,,,0,0,1,,,,0,73,110
160768,note_on,,,,,0,0,1,,,,0,73,88
160768,note_on,,,,,0,0,1,,,,0,72,88
160768,note_off,,,,,1024,0,1,,,,0,73,0
160768,note_on,,,,,0,0,2,,,,1,61,88
160768,note_on,,,,,0,0,2,,,,1,60,88
160768,note_off,,,,,1024,0,2,,,,1,61,0
160973,note_off,,,,,0,0,1,,,,0,73,0
160973,note_off,,,,,205,0,1,,,,0,72,0
160973,note_off,,,,,0,0,2,,,,1,61,0
160973,note_off,,,,,205,0,2,,,,1,60,0
161280,note_on,,,,,0,0,1,,,,0,73,88
161280,note_on,,,,,0,0,2,,,,1,61,88
161280,note_on,,,,,307,0,2,,,,1,58,88
161280,note_on,,,,,307,0,1,,,,0,70,88
161485,note_off,,,,,205,0,1,,,,0,70,0
161485,note_off,,,,,0,0,2,,,,1,61,0
161485,note_off,,,,,205,0,2,,,,1,58,0
161485,note_off,,,,,0,0,1,,,,0,73,0
161792,note_on,,,,,307,0,1,,,,0,70,110
161792,note_on,,,,,0,0,1,,,,0,73,110
161792,note_on,,,,,0,0,2,,,,1,61,110
161792,note_on,,,,,307,0,2,,,,1,58,110
162816,note_off,,,,,1024,0,1,,,,0,70,0
162816,note_on,,,,,0,0,2,,,,1,61,88
162816,note_on,,,,,0,0,2,,,,1,56,88
162816,note_off,,,,,0,0,2,,,,1,61,0
162816,note_off,,,,,1024,0,2,,,,1,58,0
162816,note_on,,,,,0,0,1,,,,0,73,88
162816,note_off,,,,,0,0,1,,,,0,73,0
162816,note_on,,,,,0,0,1,,,,0,68,88
163021,note_off,,,,,205,0,2,,,,1,56,0
163021,note_off,,,,,0,0,1,,,,0,73,0
163021,note_off,,,,,205,0,1,,,,0,68,0
163021,note_off,,,,,0,0,2,,,,1,61,0
163328,note_on,,,,,0,0,2,,,,1,61,88
163328,note_on,,,,,307,0,1,,,,0,67,88
163328,note_on,,,,,307,0,2,,,,1,55,88
163328,note_on,,,,,0,0,1,,,,0,73,88
163533,note_off,,,,,205,0,1,,,,0,67,0
163533,note_off,,,,,0,0,1,,,,0,73,0
163533,note_off,,,,,0,0,2,,,,1,61,0
163533,note_off,,,,,205,0,2,,,,1,55,0
163840,note_on,,,,,307,0,1,,,,0,67,110
163840,note_on,,,,,0,0,1,,,,0,70,110
163840,note_on,,,,,0,0,1,,,,0,73,110
163840,note_on,,,,,307,0,2,,,,1,55,110
163840,note_on,,,,,0,0,2,,,,1,61,110
164864,note_off,,,,,1024,0,2,,,,1,55,0
164864,note_off,,,,,0,0,2,,,,1,61,0
164864,note_on,,,,,0,0,2,,,,1,53,88
164864,note_on,,,,,0,0,1,,,,0,73,88
164864,note_on,,,,,0,0,1,,,,0,65,88
164864,note_off,,,,,0,0,1,,,,0,73,0
164864,note_off,,,,,0,0,1,,,,0,70,0
164864,note_off,,,,,1024,0,1,,,,0,67,0
164864,note_on,,,,,0,0,2,,,,1,61,88
164864,note_on,,,,,0,0,1,,,,0,68,88
165069,note_off,,,,,205,0,2,,,,1,53,0
165069,note_off,,,,,0,0,2,,,,1,61,0
165069,note_off,,,,,0,0,1,,,,0,73,0
165069,note_off,,,,,0,0,1,,,,0,68,0
165069,note_off,,,,,205,0,1,,,,0,65,0
165376,note_on,,,,,0,0,1,,,,0,67,88
165376,note_on,,,,,307,0,1,,,,0,64,88
165376,note_on,,,,,307,0,2,,,,1,52,88
165376,note_on,,,,,0,0,1,,,,0,73,88
165376,note_on,,,,,0,0,2,,,,1,61,88
165581,note_off,,,,,205,0,1,,,,0,64,0
165581,note_off,,,,,0,0,2,,,,1,61,0
165581,note_off,,,,,0,0,1,,,,0,73,0
165581,note_off,,,,,0,0,1,,,,0,67,0
165581,note_off,,,,,205,0,2,,,,1,52,0
165888,note_on,,,,,307,0,2,,,,1,36,126
165888,note_on,,,,,0,0,2,,,,1,48,126
165888,note_on,,,,,0,0,1,,,,0,82,126
165888,note_on,,,,,307,0,1,,,,0,79,126
165888,note_on,,,,,0,0,1,,,,0,84,126
166912,note_on,,,,,0,0,1,,,,0,84,101
166912,note_on,,,,,0,0,1,,,,0,77,101
166912,note_off,,,,,0,0,1,,,,0,84,0
166912,note_off,,,,,0,0,1,,,,0,82,0
166912,note_off,,,,,1024,0,1,,,,0,79,0
166912,note_on,,,,,0,0,1,,,,0,80,101
166912,note_off,,,,,0,0,2,,,,1,48,0
166912,note_off,,,,,1024,0,2,,,,1,36,0
166912,note_on,,,,,0,0,2,,,,1,48,101
167117,note_off,,,,,0,0,1,,,,0,84,0
167117,note_off,,,,,205,0,1,,,,0,77,0
167117,note_off,,,,,0,0,1,,,,0,80,0
167117,note_off,,,,,205,0,2,,,,1,48,0
167424,note_on,,,,,0,0,1,,,,0,79,101
167424,note_on,,,,,307,0,1,,,,0,76,101
167424,note_on,,,,,307,0,2,,,,1,48,101
167424,note_on,,,,,0,0,1,,,,0,84,101
167629,note_off,,,,,0,0,1,,,,0,79,0
167629,note_off,,,,,205,0,1,,,,0,76,0
167629,note_off,,,,,205,0,2,,,,1,48,0
167629,note_off,,,,,0,0,1,,,,0,84,0
167936,note_on,,,,,307,0,1,,,,0,73,110
167936,note_on,,,,,307,0,2,,,,1,61,110
168960,note_off,,,,,1024,0,2,,,,1,61,0
168960,note_on,,,,,0,0,2,,,,1,60,88
168960,note_on,,,,,0,0,1,,,,0,72,88
168960,note_off,,,,,1024,0,1,,,,0,73,0
168960,note_on,,,,,0,0,1,,,,0,73,88
168960,note_on,,,,,0,0,2,,,,1,61,88
169165,note_off,,,,,205,0,1,,,,0,72,0
169165,note_off,,,,,0,0,1,,,,0,73,0
169165,note_off,,,,,205,0,2,,,,1,60,0
169165,note_off,,,,,0,0,2,,,,1,61,0
169472,note_on,,,,,0,0,2,,,,1,61,88
169472,note_on,,,,,0,0,1,,,,0,73,88
169472,note_on,,,,,307,0,2,,,,1,58,88
169472,note_on,,,,,307,0,1,,,,0,70,88
169677,note_off,,,,,0,0,1,,,,0,73,0
169677,note_off,,,,,0,0,2,,,,1,61,0
169677,note_off,,,,,205,0,2,,,,1,58,0
169677,note_off,,,,,205,0,1,,,,0,70,0
169984,note_on,,,,,0,0,1,,,,0,73,110
169984,note_on,,,,,307,0,2,,,,1,58,110
169984,note_on,,,,,0,0,2,,,,1,61,110
169984,note_on,,,,,307,0,1,,,,0,70,110
171008,note_on,,,,,0,0,2,,,,1,61,88
171008,note_on,,,,,0,0,2,,,,1,56,88
171008,note_off,,,,,0,0,2,,,,1,61,0
171008,note_off,,,,,1024,0,2,,,,1,58,0
171008,note_off,,,,,1024,0,1,,,,0,70,0
171008,note_off,,,,,0,0,1,,,,0,73,0
171008,note_on,,,,,0,0,1,,,,0,68,88
171008,note_on,,,,,0,0,1,,,,0,73,88
171213,note_off,,,,,0,0,1,,,,0,73,0
171213,note_off,,,,,0,0,2,,,,1,61,0
171213,note_off,,,,,205,0,1,,,,0,68,0
171213,note_off,,,,,205,0,2,,,,1,56,0
171520,note_on,,,,,307,0,1,,,,0,67,88
171520,note_on,,,,,0,0,2,,,,1,61,88
171520,note_on,,,,,307,0,2,,,,1,55,88
171520,note_on,,,,,0,0,1,,,,0,73,88
171725,note_off,,,,,205,0,1,,,,0,67,0
171725,note_off,,,,,0,0,1,,,,0,73,0
171725,note_off,,,,,205,0,2,,,,1,55,0
171725,note_off,,,,,0,0,2,,,,1,61,0
172032,note_on,,,,,307,0,1,,,,0,67,110
172032,note_on,,,,,0,0,1,,,,0,73,110
172032,note_on,,,,,0,0,2,,,,1,61,110
172032,note_on,,,,,307,0,2,,,,1,55,110
172032,note_on,,,,,0,0,1,,,,0,70,110
173056,note_on,,,,,0,0,2,,,,1,53,88
173056,note_off,,,,,1024,0,1,,,,0,67,0
173056,note_on,,,,,0,0,1,,,,0,65,88
173056,note_off,,,,,0,0,1,,,,0,73,0
173056,note_on,,,,,0,0,1,,,,0,68,88
173056,note_off,,,,,0,0,2,,,,1,61,0
173056,note_off,,,,,1024,0,2,,,,1,55,0
173056,note_off,,,,,0,0,1,,,,0,70,0
173056,note_on,,,,,0,0,1,,,,0,73,88
173056,note_on,,,,,0,0,2,,,,1,61,88
173261,note_off,,,,,205,0,2,,,,1,53,0
173261,note_off,,,,,0,0,2,,,,1,61,0
173261,note_off,,,,,205,0,1,,,,0,65,0
173261,note_off,,,,,0,0,1,,,,0,68,0
173261,note_off,,,,,0,0,1,,,,0,73,0
173568,note_on,,,,,307,0,2,,,,1,52,88
173568,note_on,,,,,0,0,2,,,,1,61,88
173568,note_on,,,,,307,0,1,,,,0,64,88
173568,note_on,,,,,0,0,1,,,,0,73,88
173568,note_on,,,,,0,0,1,,,,0,67,88
173773,note_off,,,,,0,0,1,,,,0,73,0
173773,note_off,,,,,205,0,1,,,,0,64,0
173773,note_off,,,,,0,0,2,,,,1,61,0
173773,note_off,,,,,205,0,2,,,,1,52,0
173773,note_off,,,,,0,0,1,,,,0,67,0
174080,note_on,,,,,0,0,2,,,,1,48,126
174080,note_on,,,,,307,0,2,,,,1,36,126
174080,note_on,,,,,0,0,1,,,,0,84,126
174080,note_on,,,,,0,0,1,,,,0,82,126
174080,note_on,,,,,307,0,1,,,,0,79,126
175104,note_on,,,,,0,0,1,,,,0,80,101
175104,note_on,,,,,0,0,1,,,,0,84,101
175104,note_off,,,,,0,0,1,,,,0,82,0
175104,note_off,,,,,1024,0,1,,,,0,79,0
175104,note_off,,,,,0,0,1,,,,0,84,0
175104,note_off,,,,,1024,0,2,,,,1,36,0
175104,note_off,,,,,0,0,2,,,,1,48,0
175104,note_on,,,,,0,0,2,,,,1,48,101
175104,note_on,,,,,0,0,1,,,,0,77,101
175309,note_off,,,,,0,0,1,,,,0,80,0
175309,note_off,,,,,205,0,2,,,,1,48,0
175309,note_off,,,,,0,0,1,,,,0,84,0
175309,note_off,,,,,205,0,1,,,,0,77,0
175616,note_on,,,,,0,0,1,,,,0,79,101
175616,note_on,,,,,307,0,1,,,,0,76,101
175616,note_on,,,,,0,0,1,,,,0,84,101
175616,note_on,,,,,307,0,2,,,,1,48,101
175821,note_off,,,,,205,0,2,,,,1,48,0
175821,note_off,,,,,205,0,1,,,,0,76,0
175821,note_off,,,,,0,0,1,,,,0,79,0
175821,note_off,,,,,0,0,1,,,,0,84,0
176128,note_on,,,,,0,0,2,,,,1,61,80
176128,note_on,,,,,307,0,2,,,,1,55,80
176128,note_on,,,,,307,0,1,,,,0,67,80
176128,note_on,,,,,0,0,1,,,,0,70,80
176128,note_on,,,,,0,0,1,,,,0,73,80
177152,note_off,,,,,0,0,1,,,,0,73,0
177152,note_on,,,,,0,0,1,,,,0,65,64
177152,note_on,,,,,0,0,1,,,,0,68,64
177152,note_on,,,,,0,0,1,,,,0,73,64
177152,note_on,,,,,0,0,2,,,,1,53,64
177152,note_off,,,,,0,0,1,,,,0,70,0
177152,note_off,,,,,1024,0,2,,,,1,55,0
177152,note_on,,,,,0,0,2,,,,1,61,64
177152,note_off,,,,,0,0,2,,,,1,61,0
177152,note_off,,,,,1024,0,1,,,,0,67,0
177357,note_off,,,,,0,0,1,,,,0,68,0
177357,note_off,,,,,0,0,1,,,,0,73,0
177357,note_off,,,,,0,0,2,,,,1,61,0
177357,note_off,,,,,205,0,2,,,,1,53,0
177357,note_off,,,,,205,0,1,,,,0,65,0
177664,note_on,,,,,307,0,1,,,,0,64,64
177664,note_on,,,,,0,0,1,,,,0,73,64
177664,note_on,,,,,0,0,2,,,,1,61,64
177664,note_on,,,,,307,0,2,,,,1,52,64
177664,note_on,,,,,0,0,1,,,,0,67,64
177869,note_off,,,,,205,0,2,,,,1,52,0
177869,note_off,,,,,0,0,2,,,,1,61,0
177869,note_off,,,,,0,0,1,,,,0,67,0
177869,note_off,,,,,0,0,1,,,,0,73,0
177869,note_off,,,,,205,0,1,,,,0,64,0
178176,note_on,,,,,0,0,2,,,,1,48,126
178176,note_on,,,,,307,0,1,,,,0,79,126
178176,note_on,,,,,0,0,1,,,,0,82,126
178176,note_on,,,,,307,0,2,,,,1,36,126
178176,note_on,,,,,0,0,1,,,,0,84,126
179200,note_off,,,,,1024,0,1,,,,0,79,0
179200,note_off,,,,,0,0,2,,,,1,48,0
179200,note_on,,,,,0,0,2,,,,1,48,101
179200,note_on,,,,,0,0,1,,,,0,84,101
179200,note_off,,,,,1024,0,2,,,,1,36,0
179200,note_on,,,,,0,0,1,,,,0,80,101
179200,note_on,,,,,0,0,1,,,,0,77,101
179200,note_off,,,,,0,0,1,,,,0,82,0
179200,note_off,,,,,0,0,1,,,,0,84,0
179405,note_off,,,,,205,0,1,,,,0,77,0
179405,note_off,,,,,0,0,1,,,,0,80,0
179405,note_off,,,,,0,0,1,,,,0,84,0
179405,note_off,,,,,205,0,2,,,,1,48,0
179712,note_on,,,,,307,0,1,,,,0,76,101
179712,note_on,,,,,0,0,1,,,,0,79,101
179712,note_on,,,,,0,0,1,,,,0,84,101
179712,note_on,,,,,307,0,2,,,,1,48,101
179917,note_off,,,,,0,0,1,,,,0,84,0
179917,note_off,,,,,0,0,1,,,,0,79,0
179917,note_off,,,,,205,0,1,,,,0,76,0
179917,note_off,,,,,205,0,2,,,,1,48,0
180224,note_on,,,,,307,0,2,,,,1,48,126
180224,note_on,,,,,307,0,1,,,,0,60,126
181248,note_on,,,,,0,0,2,,,,1,49,103
181248,note_on,,,,,0,0,1,,,,0,61,103
181248,note_off,,,,,1024,0,1,,,,0,60,0
181248,note_off,,,,,1024,0,2,,,,1,48,0
181453,note_off,,,,,205,0,2,,,,1,49,0
181453,note_off,,,,,205,0,1,,,,0,61,0
181760,note_on,,,,,307,0,2,,,,1,48,103
181760,note_on,,,,,307,0,1,,,,0,60,103
181965,note_off,,,,,205,0,2,,,,1,48,0
181965,note_off,,,,,205,0,1,,,,0,60,0
182272,note_on,,,,,307,0,2,,,,1,49,127
182272,note_on,,,,,307,0,1,,,,0,61,127
183296,note_on,,,,,0,0,2,,,,1,48,106
183296,note_off,,,,,1024,0,2,,,,1,49,0
183296,note_off,,,,,1024,0,1,,,,0,61,0
183296,note_on,,,,,0,0,1,,,,0,60,106
183501,note_off,,,,,205,0,1,,,,0,60,0
183501,note_off,,,,,205,0,2,,,,1,48,0
183808,note_on,,,,,307,0,1,,,,0,62,106
183808,note_on,,,,,307,0,2,,,,1,50,106
184013,note_off,,,,,205,0,1,,,,0,62,0
184013,note_off,,,,,205,0,2,,,,1,50,0
184320,note_on,,,,,307,0,1,,,,0,64,127
184320,note_on,,,,,307,0,2,,,,1,52,127
185344,note_off,,,,,1024,0,1,,,,0,64,0
185344,note_off,,,,,1024,0,2,,,,1,52,0
185344,note_on,,,,,0,0,2,,,,1,53,109
185344,note_on,,,,,0,0,1,,,,0,65,109
185549,note_off,,,,,205,0,2,,,,1,53,0
185549,note_off,,,,,205,0,1,,,,0,65,0
185856,note_on,,,,,307,0,1,,,,0,64,109
185856,note_on,,,,,307,0,2,,,,1,52,109
186061,note_off,,,,,205,0,2,,,,1,52,0
186061,note_off,,,,,205,0,1,,,,0,64,0
186368,note_on,,,,,307,0,2,,,,1,53,127
186368,note_on,,,,,307,0,1,,,,0,65,127
187392,note_off,,,,,1024,0,2,,,,1,53,0
187392,note_on,,,,,0,0,1,,,,0,64,112
187392,note_off,,,,,1024,0,1,,,,0,65,0
187392,note_on,,,,,0,0,2,,,,1,52,112
187597,note_off,,,,,205,0,1,,,,0,64,0
187597,note_off,,,,,205,0,2,,,,1,52,0
187904,note_on,,,,,307,0,1,,,,0,66,112
187904,note_on,,,,,307,0,2,,,,1,54,112
188109,note_off,,,,,205,0,1,,,,0,66,0
188109,note_off,,,,,205,0,2,,,,1,54,0
188416,note_on,,,,,307,0,1,,,,0,67,127
188416,note_on,,,,,307,0,2,,,,1,55,127
189440,note_off,,,,,1024,0,1,,,,0,67,0
189440,note_on,,,,,0,0,1,,,,0,68,115
189440,note_on,,,,,0,0,2,,,,1,56,115
189440,note_off,,,,,1024,0,2,,,,1,55,0
189952,note_off,,,,,512,0,2,,,,1,56,0
189952,note_on,,,,,0,0,1,,,,0,67,115
189952,note_off,,,,,512,0,1,,,,0,68,0
189952,note_on,,,,,0,0,2,,,,1,55,115
190464,note_off,,,,,512,0,2,,,,1,55,0
190464,note_off,,,,,512,0,1,,,,0,67,0
190464,note_on,,,,,0,0,1,,,,0,70,127
190464,note_on,,,,,0,0,2,,,,1,58,127
191488,note_off,,,,,1024,0,1,,,,0,70,0
191488,note_on,,,,,0,0,2,,,,1,56,118
191488,note_on,,,,,0,0,1,,,,0,68,118
191488,note_off,,,,,1024,0,2,,,,1,58,0
191693,note_off,,,,,205,0,2,,,,1,56,0
191693,note_off,,,,,205,0,1,,,,0,68,0
192000,note_on,,,,,307,0,2,,,,1,61,118
192000,note_on,,,,,307,0,1,,,,0,73,118
192205,note_off,,,,,205,0,1,,,,0,73,0
192205,note_off,,,,,205,0,2,,,,1,61,0
192512,note_on,,,,,307,0,1,,,,0,72,127
192512,note_on,,,,,307,0,2,,,,1,60,127
193536,note_off,,,,,1024,0,2,,,,1,60,0
193536,note_on,,,,,0,0,2,,,,1,62,121
193536,note_on,,,,,0,0,1,,,,0,74,121
193536,note_off,,,,,1024,0,1,,,,0,72,0
193741,note_off,,,,,205,0,2,,,,1,62,0
193741,note_off,,,,,205,0,1,,,,0,74,0
194048,note_on,,,,,307,0,2,,,,1,63,121
194048,note_on,,,,,307,0,1,,,,0,75,121
194253,note_off,,,,,205,0,2,,,,1,63,0
194253,note_off,,,,,205,0,1,,,,0,75,0
194560,note_on,,,,,307,0,2,,,,1,64,127
194560,note_on,,,,,307,0,1,,,,0,76,127
195584,note_on,,,,,0,0,2,,,,1,65,124
195584,note_off,,,,,1024,0,2,,,,1,64,0
195584,note_on,,,,,0,0,1,,,,0,77,124
195584,note_off,,,,,1024,0,1,,,,0,76,0
195789,note_off,,,,,205,0,2,,,,1,65,0
195789,note_off,,,,,205,0,1,,,,0,77,0
196096,note_on,,,,,307,0,2,,,,1,67,124
196096,note_on,,,,,307,0,1,,,,0,79,124
196301,note_off,,,,,205,0,1,,,,0,79,0
196301,note_off,,,,,205,0,2,,,,1,67,0
196608,note_on,,,,,307,0,1,,,,0,68,110
196608,note_on,,,,,0,0,1,,,,0,72,110
196608,note_on,,,,,0,0,1,,,,0,80,110
196608,note_on,,,,,0,0,2,,,,1,53,94
196608,note_on,,,,,307,0,2,,,,1,41,94
197632,note_on,,,,,0,0,1,,,,0,79,88
197632,note_on,,,,,0,0,1,,,,0,72,88
197632,note_on,,,,,0,0,1,,,,0,68,88
197632,note_off,,,,,0,0,1,,,,0,80,0
197632,note_off,,,,,0,0,1,,,,0,72,0
197632,note_off,,,,,1024,0,1,,,,0,68,0
197632,note_on,,,,,0,0,2,,,,1,53,75
197632,note_off,,,,,0,0,2,,,,1,53,0
197632,note_off,,,,,1024,0,2,,,,1,41,0
197837,note_off,,,,,0,0,1,,,,0,79,0
197837,note_off,,,,,205,0,1,,,,0,68,0
197837,note_off,,,,,0,0,1,,,,0,72,0
197837,note_off,,,,,205,0,2,,,,1,53,0
198144,note_on,,,,,0,0,1,,,,0,72,88
198144,note_on,,,,,0,0,1,,,,0,77,88
198144,note_on,,,,,307,0,1,,,,0,68,88
198144,note_on,,,,,307,0,2,,,,1,53,75
198349,note_off,,,,,0,0,1,,,,0,77,0
198349,note_off,,,,,0,0,1,,,,0,72,0
198349,note_off,,,,,205,0,2,,,,1,53,0
198349,note_off,,,,,205,0,1,,,,0,68,0
198656,note_on,,,,,0,0,2,,,,1,53,94
198656,note_on,,,,,0,0,1,,,,0,77,110
198656,note_on,,,,,307,0,1,,,,0,68,110
198656,note_on,,,,,307,0,2,,,,1,41,94
198656,note_on,,,,,0,0,1,,,,0,72,110
199680,note_off,,,,,1024,0,2,,,,1,41,0
199680,note_off,,,,,0,0,2,,,,1,53,0
199680,note_on,,,,,0,0,2,,,,1,53,75
199680,note_on,,,,,0,0,1,,,,0,72,88
199680,note_on,,,,,0,0,1,,,,0,68,88
199680,note_off,,,,,0,0,1,,,,0,77,0
199680,note_off,,,,,0,0,1,,,,0,72,0
199680,note_off,,,,,1024,0,1,,,,0,68,0
199885,note_off,,,,,205,0,2,,,,1,53,0
199885,note_off,,,,,0,0,1,,,,0,72,0
199885,note_off,,,,,205,0,1,,,,0,68,0
200192,note_on,,,,,307,0,2,,,,1,53,75
200192,note_on,,,,,0,0,1,,,,0,72,88
200192,note_on,,,,,307,0,1,,,,0,68,88
200397,note_off,,,,,205,0,1,,,,0,68,0
200397,note_off,,,,,0,0,1,,,,0,72,0
200397,note_off,,,,,205,0,2,,,,1,53,0
200704,note_on,,,,,307,0,1,,,,0,70,110
200704,note_on,,,,,0,0,1,,,,0,77,110
200704,note_on,,,,,307,0,2,,,,1,41,94
200704,note_on,,,,,0,0,1,,,,0,73,110
200704,note_on,,,,,0,0,2,,,,1,53,94
201728,note_off,,,,,1024,0,1,,,,0,70,0
201728,note_off,,,,,0,0,1,,,,0,73,0
201728,note_off,,,,,0,0,1,,,,0,77,0
201728,note_on,,,,,0,0,1,,,,0,70,88
201728,note_on,,,,,0,0,1,,,,0,73,88
201728,note_on,,,,,0,0,2,,,,1,53,75
201728,note_off,,,,,0,0,2,,,,1,53,0
201728,note_off,,,,,1024,0,2,,,,1,41,0
201933,note_off,,,,,205,0,1,,,,0,70,0
201933,note_off,,,,,0,0,1,,,,0,73,0
201933,note_off,,,,,205,0,2,,,,1,53,0
202240,note_on,,,,,307,0,1,,,,0,70,88
202240,note_on,,,,,0,0,1,,,,0,73,88
202240,note_on,,,,,307,0,2,,,,1,53,75
202445,note_off,,,,,205,0,2,,,,1,53,0
202445,note_off,,,,,205,0,1,,,,0,70,0
202445,note_off,,,,,0,0,1,,,,0,73,0
202752,note_on,,,,,0,0,1,,,,0,72,110
202752,note_on,,,,,307,0,1,,,,0,68,110
202752,note_on,,,,,0,0,1,,,,0,77,110
202752,note_on,,,,,307,0,2,,,,1,41,94
202752,note_on,,,,,0,0,2,,,,1,53,94
203776,note_on,,,,,0,0,1,,,,0,72,88
203776,note_on,,,,,0,0,1,,,,0,68,88
203776,note_off,,,,,0,0,1,,,,0,77,0
203776,note_off,,,,,1024,0,1,,,,0,68,0
203776,note_off,,,,,0,0,1,,,,0,72,0
203776,note_off,,,,,0,0,2,,,,1,53,0
203776,note_on,,,,,0,0,2,,,,1,53,75
203776,note_off,,,,,1024,0,2,,,,1,41,0
203981,note_off,,,,,205,0,2,,,,1,53,0
203981,note_off,,,,,205,0,1,,,,0,68,0
203981,note_off,,,,,0,0,1,,,,0,72,0
204288,note_on,,,,,307,0,2,,,,1,53,75
204288,note_on,,,,,307,0,1,,,,0,68,88
204288,note_on,,,,,0,0,1,,,,0,72,88
204493,note_off,,,,,205,0,2,,,,1,53,0
204493,note_off,,,,,205,0,1,,,,0,68,0
204493,note_off,,,,,0,0,1,,,,0,72,0
204800,note_on,,,,,0,0,1,,,,0,72,64
204800,note_on,,,,,307,0,2,,,,1,29,34
204800,note_on,,,,,0,0,2,,,,1,41,34
204800,note_on,,,,,307,0,1,,,,0,68,64
205824,note_on,,,,,0,0,2,,,,1,41,36
205824,note_off,,,,,0,0,1,,,,0,72,0
205824,note_on,,,,,0,0,1,,,,0,67,66
205824,note_on,,,,,0,0,1,,,,0,72,66
205824,note_off,,,,,1024,0,2,,,,1,29,0
205824,note_off,,,,,0,0,2,,,,1,41,0
205824,note_off,,,,,1024,0,1,,,,0,68,0
205824,note_on,,,,,0,0,1,,,,0,68,66
206029,note_off,,,,,205,0,2,,,,1,41,0
206029,note_off,,,,,205,0,1,,,,0,67,0
206029,note_off,,,,,0,0,1,,,,0,68,0
206029,note_off,,,,,0,0,1,,,,0,72,0
206336,note_on,,,,,307,0,1,,,,0,65,67
206336,note_on,,,,,0,0,1,,,,0,68,67
206336,note_on,,,,,0,0,1,,,,0,72,67
206336,note_on,,,,,307,0,2,,,,1,41,37
206541,note_off,,,,,0,0,1,,,,0,72,0
206541,note_off,,,,,0,0,1,,,,0,68,0
206541,note_off,,,,,205,0,1,,,,0,65,0
206541,note_off,,,,,205,0,2,,,,1,41,0
206848,note_on,,,,,307,0,2,,,,1,29,38
206848,note_on,,,,,0,0,2,,,,1,41,38
206848,note_on,,,,,0,0,1,,,,0,72,84
206848,note_on,,,,,0,0,1,,,,0,68,84
206848,note_on,,,,,307,0,1,,,,0,65,84
207872,note_off,,,,,0,0,1,,,,0,68,0
207872,note_off,,,,,1024,0,1,,,,0,65,0
207872,note_on,,,,,0,0,1,,,,0,68,70
207872,note_on,,,,,0,0,1,,,,0,72,70
207872,note_off,,,,,0,0,1,,,,0,72,0
207872,note_on,,,,,0,0,1,,,,0,60,70
207872,note_off,,,,,1024,0,2,,,,1,29,0
207872,note_off,,,,,0,0,2,,,,1,41,0
207872,note_on,,,,,0,0,2,,,,1,41,40
208077,note_off,,,,,205,0,1,,,,0,60,0
208077,note_off,,,,,205,0,2,,,,1,41,0
208077,note_off,,,,,0,0,1,,,,0,68,0
208077,note_off,,,,,0,0,1,,,,0,72,0
208384,note_on,,,,,307,0,2,,,,1,41,41
208384,note_on,,,,,0,0,1,,,,0,72,70
208384,note_on,,,,,307,0,1,,,,0,60,70
208384,note_on,,,,,0,0,1,,,,0,68,70
208589,note_off,,,,,205,0,2,,,,1,41,0
208589,note_off,,,,,0,0,1,,,,0,72,0
208589,note_off,,,,,0,0,1,,,,0,68,0
208589,note_off,,,,,205,0,1,,,,0,60,0
208896,note_on,,,,,0,0,1,,,,0,70,87
208896,note_on,,,,,0,0,2,,,,1,41,42
208896,note_on,,,,,307,0,2,,,,1,29,42
208896,note_on,,,,,307,0,1,,,,0,65,87
208896,note_on,,,,,0,0,1,,,,0,73,87
209920,note_off,,,,,1024,0,2,,,,1,29,0
209920,note_on,,,,,0,0,1,,,,0,73,73
209920,note_off,,,,,1024,0,1,,,,0,65,0
209920,note_off,,,,,0,0,1,,,,0,70,0
209920,note_off,,,,,0,0,1,,,,0,73,0
209920,note_on,,,,,0,0,1,,,,0,61,73
209920,note_on,,,,,0,0,1,,,,0,70,73
209920,note_off,,,,,0,0,2,,,,1,41,0
209920,note_on,,,,,0,0,2,,,,1,41,44
210125,note_off,,,,,205,0,1,,,,0,61,0
210125,note_off,,,,,0,0,1,,,,0,70,0
210125,note_off,,,,,0,0,1,,,,0,73,0
210125,note_off,,,,,205,0,2,,,,1,41,0
210432,note_on,,,,,0,0,1,,,,0,70,74
210432,note_on,,,,,307,0,1,,,,0,61,74
210432,note_on,,,,,0,0,1,,,,0,73,74
210432,note_on,,,,,307,0,2,,,,1,41,45
210637,note_off,,,,,205,0,1,,,,0,61,0
210637,note_off,,,,,0,0,1,,,,0,70,0
210637,note_off,,,,,0,0,1,,,,0,73,0
210637,note_off,,,,,205,0,2,,,,1,41,0
210944,note_on,,,,,0,0,1,,,,0,68,91
210944,note_on,,,,,0,0,1,,,,0,72,91
210944,note_on,,,,,307,0,1,,,,0,65,91
210944,note_on,,,,,307,0,2,,,,1,29,46
210944,note_on,,,,,0,0,2,,,,1,41,46
211968,note_on,,,,,0,0,1,,,,0,72,77
211968,note_on,,,,,0,0,1,,,,0,60,77
211968,note_off,,,,,0,0,1,,,,0,72,0
211968,note_off,,,,,0,0,1,,,,0,68,0
211968,note_off,,,,,1024,0,1,,,,0,65,0
211968,note_off,,,,,1024,0,2,,,,1,29,0
211968,note_off,,,,,0,0,2,,,,1,41,0
211968,note_on,,,,,0,0,2,,,,1,41,48
211968,note_on,,,,,0,0,1,,,,0,68,77
212173,note_off,,,,,205,0,2,,,,1,41,0
212173,note_off,,,,,205,0,1,,,,0,60,0
212173,note_off,,,,,0,0,1,,,,0,72,0
212173,note_off,,,,,0,0,1,,,,0,68,0
212480,note_on,,,,,0,0,1,,,,0,68,78
212480,note_on,,,,,307,0,1,,,,0,60,78
212480,note_on,,,,,0,0,1,,,,0,72,78
212480,note_on,,,,,307,0,2,,,,1,41,49
212685,note_off,,,,,205,0,1,,,,0,60,0
212685,note_off,,,,,0,0,1,,,,0,68,0
212685,note_off,,,,,0,0,1,,,,0,72,0
212685,note_off,,,,,205,0,2,,,,1,41,0
212992,note_on,,,,,0,0,1,,,,0,76,79
212992,note_on,,,,,0,0,1,,,,0,73,79
212992,note_on,,,,,307,0,1,,,,0,70,79
212992,note_on,,,,,307,0,2,,,,1,58,50
214016,note_off,,,,,1024,0,2,,,,1,58,0
214016,note_on,,,,,0,0,2,,,,1,55,52
214016,note_off,,,,,1024,0,1,,,,0,70,0
214016,note_off,,,,,0,0,1,,,,0,73,0
214016,note_off,,,,,0,0,1,,,,0,76,0
214016,note_on,,,,,0,0,1,,,,0,67,81
214016,note_on,,,,,0,0,1,,,,0,73,81
214016,note_on,,,,,0,0,1,,,,0,76,81
214221,note_off,,,,,0,0,1,,,,0,73,0
214221,note_off,,,,,0,0,1,,,,0,76,0
214221,note_off,,,,,205,0,1,,,,0,67,0
214221,note_off,,,,,205,0,2,,,,1,55,0
214528,note_on,,,,,307,0,2,,,,1,55,53
214528,note_on,,,,,307,0,1,,,,0,67,82
214528,note_on,,,,,0,0,1,,,,0,73,82
214528,note_on,,,,,0,0,1,,,,0,76,82
214733,note_off,,,,,205,0,2,,,,1,55,0
214733,note_off,,,,,205,0,1,,,,0,67,0
214733,note_off,,,,,0,0,1,,,,0,73,0
214733,note_off,,,,,0,0,1,,,,0,76,0
215040,note_on,,,,,307,0,1,,,,0,68,83
215040,note_on,,,,,307,0,2,,,,1,56,54
215040,note_on,,,,,0,0,1,,,,0,72,83
215040,note_on,,,,,0,0,1,,,,0,77,83
216064,note_off,,,,,1024,0,1,,,,0,68,0
216064,note_off,,,,,0,0,1,,,,0,77,0
216064,note_off,,,,,0,0,1,,,,0,72,0
216064,note_on,,,,,0,0,1,,,,0,65,84
216064,note_on,,,,,0,0,1,,,,0,72,84
216064,note_on,,,,,0,0,1,,,,0,77,84
216064,note_off,,,,,1024,0,2,,,,1,56,0
216064,note_on,,,,,0,0,2,,,,1,53,55
216269,note_off,,,,,205,0,1,,,,0,65,0
216269,note_off,,,,,0,0,1,,,,0,77,0
216269,note_off,,,,,0,0,1,,,,0,72,0
216269,note_off,,,,,205,0,2,,,,1,53,0
216576,note_on,,,,,0,0,1,,,,0,72,85
216576,note_on,,,,,307,0,1,,,,0,65,85
216576,note_on,,,,,307,0,2,,,,1,53,56
216576,note_on,,,,,0,0,1,,,,0,77,85
216781,note_off,,,,,0,0,1,,,,0,77,0
216781,note_off,,,,,205,0,2,,,,1,53,0
216781,note_off,,,,,0,0,1,,,,0,72,0
216781,note_off,,,,,205,0,1,,,,0,65,0
217088,note_on,,,,,0,0,1,,,,0,72,86
217088,note_on,,,,,307,0,2,,,,1,52,57
217088,note_on,,,,,307,0,1,,,,0,67,86
217088,note_on,,,,,0,0,1,,,,0,79,86
218112,note_off,,,,,1024,0,1,,,,0,67,0
218112,note_off,,,,,0,0,1,,,,0,79,0
218112,note_on,,,,,0,0,1,,,,0,67,88
218112,note_on,,,,,0,0,1,,,,0,72,88
218112,note_on,,,,,0,0,1,,,,0,76,88
218112,note_off,,,,,0,0,1,,,,0,72,0
218112,note_on,,,,,0,0,2,,,,1,48,59
218112,note_off,,,,,1024,0,2,,,,1,52,0
218317,note_off,,,,,205,0,2,,,,1,48,0
218317,note_off,,,,,0,0,1,,,,0,76,0
218317,note_off,,,,,0,0,1,,,,0,72,0
218317,note_off,,,,,205,0,1,,,,0,67,0
218624,note_on,,,,,0,0,1,,,,0,76,89
218624,note_on,,,,,0,0,1,,,,0,72,89
218624,note_on,,,,,307,0,1,,,,0,67,89
218624,note_on,,,,,307,0,2,,,,1,48,60
218829,note_off,,,,,0,0,1,,,,0,72,0
218829,note_off,,,,,205,0,2,,,,1,48,0
218829,note_off,,,,,205,0,1,,,,0,67,0
218829,note_off,,,,,0,0,1,,,,0,76,0
219136,note_on,,,,,307,0,2,,,,1,53,61
219136,note_on,,,,,0,0,1,,,,0,80,90
219136,note_on,,,,,307,0,1,,,,0,68,90
219136,note_on,,,,,0,0,1,,,,0,72,90
220160,note_off,,,,,0,0,1,,,,0,80,0
220160,note_off,,,,,0,0,1,,,,0,72,0
220160,note_off,,,,,1024,0,1,,,,0,68,0
220160,note_on,,,,,0,0,1,,,,0,72,92
220160,note_on,,,,,0,0,1,,,,0,68,92
220160,note_on,,,,,0,0,1,,,,0,77,92
220160,note_off,,,,,1024,0,2,,,,1,53,0
220160,note_on,,,,,0,0,2,,,,1,48,63
220365,note_off,,,,,205,0,1,,,,0,68,0
220365,note_off,,,,,205,0,2,,,,1,48,0
220365,note_off,,,,,0,0,1,,,,0,72,0
220365,note_off,,,,,0,0,1,,,,0,77,0
220672,note_on,,,,,307,0,1,,,,0,68,93
220672,note_on,,,,,307,0,2,,,,1,48,64
220672,note_on,,,,,0,0,1,,,,0,77,93
220672,note_on,,,,,0,0,1,,,,0,72,93
220877,note_off,,,,,0,0,1,,,,0,77,0
220877,note_off,,,,,205,0,2,,,,1,48,0
220877,note_off,,,,,0,0,1,,,,0,72,0
220877,note_off,,,,,205,0,1,,,,0,68,0
221184,note_on,,,,,307,0,2,,,,1,55,65
221184,note_on,,,,,0,0,1,,,,0,82,94
221184,note_on,,,,,307,0,1,,,,0,72,94
222208,note_off,,,,,1024,0,2,,,,1,55,0
222208,note_on,,,,,0,0,2,,,,1,48,67
222208,note_on,,,,,0,0,1,,,,0,84,95
222208,note_on,,,,,0,0,1,,,,0,72,95
222208,note_off,,,,,0,0,1,,,,0,82,0
222208,note_off,,,,,1024,0,1,,,,0,72,0
222413,note_off,,,,,205,0,1,,,,0,72,0
222413,note_off,,,,,0,0,1,,,,0,84,0
222413,note_off,,,,,205,0,2,,,,1,48,0
222720,note_on,,,,,307,0,2,,,,1,48,68
222720,note_on,,,,,307,0,1,,,,0,72,96
222720,note_on,,,,,0,0,1,,,,0,84,96
222925,note_off,,,,,205,0,2,,,,1,48,0
222925,note_off,,,,,205,0,1,,,,0,72,0
222925,note_off,,,,,0,0,1,,,,0,84,0
223232,note_on,,,,,307,0,2,,,,1,56,69
223232,note_on,,,,,307,0,1,,,,0,72,97
223232,note_on,,,,,0,0,1,,,,0,83,97
224256,note_off,,,,,1024,0,1,,,,0,72,0
224256,note_on,,,,,0,0,2,,,,1,48,71
224256,note_off,,,,,1024,0,2,,,,1,56,0
224256,note_off,,,,,0,0,1,,,,0,83,0
224256,note_on,,,,,0,0,1,,,,0,84,99
224256,note_on,,,,,0,0,1,,,,0,72,99
224461,note_off,,,,,0,0,1,,,,0,84,0
224461,note_off,,,,,205,0,2,,,,1,48,0
224461,note_off,,,,,205,0,1,,,,0,72,0
224768,note_on,,,,,307,0,2,,,,1,48,72
224768,note_on,,,,,307,0,1,,,,0,72,100
224768,note_on,,,,,0,0,1,,,,0,84,100
224973,note_off,,,,,205,0,2,,,,1,48,0
224973,note_off,,,,,205,0,1,,,,0,72,0
224973,note_off,,,,,0,0,1,,,,0,84,0
225280,note_on,,,,,0,0,1,,,,0,84,101
225280,note_on,,,,,307,0,1,,,,0,72,101
225280,note_on,,,,,0,0,2,,,,1,56,88
225280,note_on,,,,,307,0,2,,,,1,44,88
226304,note_off,,,,,0,0,1,,,,0,84,0
226304,note_on,,,,,0,0,1,,,,0,73,101
226304,note_on,,,,,0,0,1,,,,0,82,101
226304,note_on,,,,,0,0,1,,,,0,85,101
226304,note_off,,,,,1024,0,1,,,,0,72,0
226304,note_off,,,,,1024,0,2,,,,1,44,0
226304,note_on,,,,,0,0,2,,,,1,54,88
226304,note_off,,,,,0,0,2,,,,1,56,0
226304,note_on,,,,,0,0,2,,,,1,42,88
227328,note_on,,,,,0,0,1,,,,0,85,101
227328,note_on,,,,,0,0,1,,,,0,82,101
227328,note_on,,,,,0,0,1,,,,0,73,101
227328,note_off,,,,,0,0,1,,,,0,85,0
227328,note_off,,,,,1024,0,1,,,,0,73,0
227328,note_off,,,,,1024,0,2,,,,1,42,0
227328,note_off,,,,,0,0,1,,,,0,82,0
227328,note_on,,,,,0,0,2,,,,1,42,88
227328,note_on,,,,,0,0,2,,,,1,54,88
227328,note_off,,,,,0,0,2,,,,1,54,0
228352,note_on,,,,,0,0,1,,,,0,82,101
228352,note_off,,,,,1024,0,2,,,,1,42,0
228352,note_off,,,,,0,0,2,,,,1,54,0
228352,note_on,,,,,0,0,2,,,,1,42,88
228352,note_on,,,,,0,0,2,,,,1,54,88
228352,note_off,,,,,0,0,1,,,,0,82,0
228352,note_off,,,,,0,0,1,,,,0,85,0
228352,note_on,,,,,0,0,1,,,,0,73,101
228352,note_on,,,,,0,0,1,,,,0,85,101
228352,note_off,,,,,1024,0,1,,,,0,73,0
229376,note_off,,,,,0,0,2,,,,1,54,0
229376,note_on,,,,,0,0,2,,,,1,42,88
229376,note_on,,,,,0,0,1,,,,0,85,101
229376,note_on,,,,,0,0,1,,,,0,82,101
229376,note_on,,,,,0,0,1,,,,0,70,101
229376,note_off,,,,,0,0,1,,,,0,85,0
229376,note_off,,,,,0,0,1,,,,0,82,0
229376,note_off,,,,,1024,0,1,,,,0,73,0
229376,note_on,,,,,0,0,2,,,,1,54,88
229376,note_off,,,,,1024,0,2,,,,1,42,0
230400,note_off,,,,,0,0,1,,,,0,85,0
230400,note_off,,,,,1024,0,2,,,,1,42,0
230400,note_off,,,,,0,0,2,,,,1,54,0
230400,note_on,,,,,0,0,2,,,,1,46,88
230400,note_on,,,,,0,0,1,,,,0,78,101
230400,note_on,,,,,0,0,1,,,,0,90,101
230400,note_on,,,,,0,0,1,,,,0,85,101
230400,note_off,,,,,1024,0,1,,,,0,70,0
230400,note_off,,,,,0,0,1,,,,0,82,0
230400,note_on,,,,,0,0,2,,,,1,58,88
231424,note_off,,,,,1024,0,2,,,,1,46,0
231424,note_off,,,,,0,0,2,,,,1,58,0
231424,note_on,,,,,0,0,2,,,,1,49,88
231424,note_on,,,,,0,0,2,,,,1,61,88
231424,note_off,,,,,1024,0,1,,,,0,78,0
231424,note_off,,,,,0,0,1,,,,0,85,0
231424,note_off,,,,,0,0,1,,,,0,90,0
231424,note_on,,,,,0,0,1,,,,0,78,101
231424,note_on,,,,,0,0,1,,,,0,85,101
231424,note_on,,,,,0,0,1,,,,0,90,101
231424,note_on,,,,,0,0,2,,,,1,58,88
232448,note_on,,,,,0,0,1,,,,0,90,101
232448,note_off,,,,,1024,0,1,,,,0,78,0
232448,note_on,,,,,0,0,2,,,,1,61,88
232448,note_off,,,,,0,0,1,,,,0,85,0
232448,note_off,,,,,1024,0,2,,,,1,49,0
232448,note_off,,,,,0,0,2,,,,1,58,0
232448,note_off,,,,,0,0,2,,,,1,61,0
232448,note_on,,,,,0,0,2,,,,1,49,88
232448,note_on,,,,,0,0,1,,,,0,78,101
232448,note_on,,,,,0,0,2,,,,1,58,88
232448,note_on,,,,,0,0,1,,,,0,85,101
232448,note_off,,,,,0,0,1,,,,0,90,0
232960,note_off,,,,,512,0,2,,,,1,49,0
232960,note_off,,,,,0,0,1,,,,0,85,0
232960,note_on,,,,,0,0,1,,,,0,85,101
232960,note_on,,,,,0,0,1,,,,0,78,101
232960,note_off,,,,,0,0,1,,,,0,90,0
232960,note_off,,,,,512,0,1,,,,0,78,0
232960,note_on,,,,,0,0,2,,,,1,49,88
232960,note_off,,,,,0,0,2,,,,1,58,0
232960,note_on,,,,,0,0,1,,,,0,90,101
232960,note_off,,,,,0,0,2,,,,1,61,0
232960,note_on,,,,,0,0,2,,,,1,58,88
232960,note_on,,,,,0,0,2,,,,1,61,88
233472,note_off,,,,,0,0,2,,,,1,61,0
233472,note_on,,,,,0,0,2,,,,1,61,110
233472,note_on,,,,,0,0,2,,,,1,59,110
233472,note_on,,,,,0,0,2,,,,1,49,110
233472,note_off,,,,,0,0,2,,,,1,58,0
233472,note_off,,,,,512,0,2,,,,1,49,0
233472,note_off,,,,,512,0,1,,,,0,78,0
233472,note_off,,,,,0,0,1,,,,0,90,0
233472,note_on,,,,,0,0,1,,,,0,80,126
233472,note_on,,,,,0,0,1,,,,0,89,126
233472,note_on,,,,,0,0,1,,,,0,92,126
233472,note_off,,,,,0,0,1,,,,0,85,0
234496,note_on,,,,,0,0,1,,,,0,89,101
234496,note_on,,,,,0,0,1,,,,0,80,101
234496,note_off,,,,,0,0,1,,,,0,92,0
234496,note_off,,,,,0,0,1,,,,0,89,0
234496,note_off,,,,,1024,0,1,,,,0,80,0
234496,note_on,,,,,0,0,2,,,,1,61,88
234496,note_on,,,,,0,0,2,,,,1,59,88
234496,note_on,,,,,0,0,2,,,,1,49,88
234496,note_off,,,,,0,0,2,,,,1,61,0
234496,note_off,,,,,0,0,2,,,,1,59,0
234496,note_off,,,,,1024,0,2,,,,1,49,0
234496,note_on,,,,,0,0,1,,,,0,92,101
235008,note_off,,,,,0,0,2,,,,1,59,0
235008,note_off,,,,,512,0,2,,,,1,49,0
235008,note_on,,,,,0,0,2,,,,1,59,88
235008,note_on,,,,,0,0,2,,,,1,49,88
235008,note_off,,,,,0,0,2,,,,1,61,0
235008,note_on,,,,,0,0,1,,,,0,92,101
235008,note_on,,,,,0,0,1,,,,0,89,101
235008,note_on,,,,,0,0,1,,,,0,80,101
235008,note_off,,,,,0,0,1,,,,0,92,0
235008,note_off,,,,,0,0,1,,,,0,89,0
235008,note_off,,,,,512,0,1,,,,0,80,0
235008,note_on,,,,,0,0,2,,,,1,61,88
235520,note_off,,,,,0,0,2,,,,1,59,0
235520,note_on,,,,,0,0,2,,,,1,54,88
235520,note_off,,,,,512,0,2,,,,1,49,0
235520,note_on,,,,,0,0,1,,,,0,90,101
235520,note_off,,,,,0,0,1,,,,0,92,0
235520,note_off,,,,,0,0,1,,,,0,89,0
235520,note_off,,,,,512,0,1,,,,0,80,0
235520,note_on,,,,,0,0,2,,,,1,58,88
235520,note_on,,,,,0,0,1,,,,0,78,101
235520,note_on,,,,,0,0,2,,,,1,61,88
235520,note_off,,,,,0,0,2,,,,1,61,0
236544,note_off,,,,,1024,0,1,,,,0,78,0
236544,note_off,,,,,0,0,1,,,,0,90,0
236544,note_off,,,,,1024,0,2,,,,1,54,0
236544,note_off,,,,,0,0,2,,,,1,58,0
236544,note_off,,,,,0,0,2,,,,1,61,0
236544,note_on,,,,,0,0,2,,,,1,37,110
236544,note_on,,,,,0,0,2,,,,1,49,110
236544,note_on,,,,,0,0,1,,,,0,80,126
236544,note_on,,,,,0,0,1,,,,0,71,126
236544,note_on,,,,,0,0,1,,,,0,77,126
236544,note_on,,,,,0,0,1,,,,0,83,126
237568,note_on,,,,,0,0,1,,,,0,84,126
237568,note_on,,,,,0,0,1,,,,0,80,126
237568,note_on,,,,,0,0,1,,,,0,77,126
237568,note_off,,,,,0,0,1,,,,0,77,0
237568,note_off,,,,,1024,0,1,,,,0,71,0
237568,note_off,,,,,1024,0,2,,,,1,37,0
237568,note_off,,,,,0,0,2,,,,1,49,0
237568,note_on,,,,,0,0,2,,,,1,36,110
237568,note_off,,,,,0,0,1,,,,0,80,0
237568,note_on,,,,,0,0,2,,,,1,48,110
237568,note_off,,,,,0,0,1,,,,0,83,0
237568,note_on,,,,,0,0,1,,,,0,72,126
238592,note_off,,,,,1024,0,2,,,,1,36,0
238592,note_on,,,,,0,0,1,,,,0,76,126
238592,note_off,,,,,0,0,1,,,,0,80,0
238592,note_on,,,,,0,0,1,,,,0,79,126
238592,note_on,,,,,0,0,1,,,,0,84,126
238592,note_off,,,,,1024,0,1,,,,0,72,0
238592,note_off,,,,,0,0,1,,,,0,77,0
238592,note_on,,,,,0,0,2,,,,1,48,110
238592,note_on,,,,,0,0,2,,,,1,36,110
238592,note_on,,,,,0,0,1,,,,0,72,126
238592,note_off,,,,,0,0,2,,,,1,48,0
238592,note_off,,,,,0,0,1,,,,0,84,0
239616,note_on,,,,,0,0,2,,,,1,41,110
239616,note_off,,,,,0,0,2,,,,1,48,0
239616,note_off,,,,,1024,0,2,,,,1,36,0
239616,note_on,,,,,0,0,1,,,,0,77,126
239616,note_on,,,,,0,0,1,,,,0,65,126
239616,note_off,,,,,0,0,1,,,,0,84,0
239616,note_off,,,,,0,0,1,,,,0,79,0
239616,note_off,,,,,0,0,1,,,,0,76,0
239616,note_off,,,,,1024,0,1,,,,0,72,0
239616,note_on,,,,,0,0,2,,,,1,53,110
240640,note_off,,,,,0,0,1,,,,0,77,0
240640,note_off,,,,,1024,0,1,,,,0,65,0
240640,note_off,,,,,0,0,2,,,,1,53,0
240640,note_off,,,,,1024,0,2,,,,1,41,0
240640,note_on,,,,,0,0,2,,,,1,53,49
240640,note_on,,,,,0,0,1,,,,0,65,64
240845,note_off,,,,,205,0,1,,,,0,65,0
240845,note_off,,,,,205,0,2,,,,1,53,0
241152,note_on,,,,,307,0,1,,,,0,67,64
241152,note_on,,,,,307,0,2,,,,1,55,49
241357,note_off,,,,,205,0,1,,,,0,67,0
241357,note_off,,,,,205,0,2,,,,1,55,0
241664,note_on,,,,,307,0,2,,,,1,57,49
241664,note_on,,,,,307,0,1,,,,0,69,64
242688,note_off,,,,,1024,0,1,,,,0,69,0
242688,note_on,,,,,0,0,1,,,,0,70,64
242688,note_off,,,,,1024,0,2,,,,1,57,0
242688,note_on,,,,,0,0,2,,,,1,58,49
242893,note_off,,,,,205,0,2,,,,1,58,0
242893,note_off,,,,,205,0,1,,,,0,70,0
243200,note_on,,,,,307,0,1,,,,0,72,64
243200,note_on,,,,,307,0,2,,,,1,60,49
243405,note_off,,,,,205,0,2,,,,1,60,0
243405,note_off,,,,,205,0,1,,,,0,72,0
243712,note_on,,,,,307,0,2,,,,1,48,49
243712,note_on,,,,,0,0,2,,,,1,57,49
243712,note_on,,,,,0,0,2,,,,1,60,49
243712,key_signature,,,,,200704,1,0,F,,,,,
243712,note_on,,,,,307,0,1,,,,0,72,64
243712,note_on,,,,,0,0,1,,,,0,74,64
244736,note_on,,,,,0,0,2,,,,1,60,49
244736,note_off,,,,,1024,0,1,,,,0,72,0
244736,note_off,,,,,0,0,1,,,,0,74,0
244736,note_on,,,,,0,0,1,,,,0,70,64
244736,note_on,,,,,0,0,1,,,,0,76,64
244736,note_on,,,,,0,0,2,,,,1,57,49
244736,note_on,,,,,0,0,2,,,,1,48,49
244736,note_off,,,,,0,0,2,,,,1,60,0
244736,note_off,,,,,0,0,2,,,,1,57,0
244736,note_off,,,,,1024,0,2,,,,1,48,0
244941,note_off,,,,,205,0,1,,,,0,70,0
244941,note_off,,,,,0,0,1,,,,0,76,0
244941,note_off,,,,,205,0,2,,,,1,48,0
244941,note_off,,,,,0,0,2,,,,1,57,0
244941,note_off,,,,,0,0,2,,,,1,60,0
245248,note_on,,,,,307,0,2,,,,1,48,49
245248,note_on,,,,,0,0,2,,,,1,57,49
245248,note_on,,,,,307,0,1,,,,0,70,64
245248,note_on,,,,,0,0,1,,,,0,76,64
245248,note_on,,,,,0,0,2,,,,1,60,49
245453,note_off,,,,,205,0,2,,,,1,48,0
245453,note_off,,,,,0,0,2,,,,1,57,0
245453,note_off,,,,,0,0,2,,,,1,60,0
245453,note_off,,,,,0,0,1,,,,0,76,0
245453,note_off,,,,,205,0,1,,,,0,70,0
245760,note_on,,,,,307,0,2,,,,1,48,49
245760,note_on,,,,,0,0,2,,,,1,60,49
245760,note_on,,,,,0,0,1,,,,0,76,64
245760,note_on,,,,,307,0,1,,,,0,70,64
245760,note_on,,,,,0,0,2,,,,1,55,49
246784,note_on,,,,,0,0,1,,,,0,77,64
246784,note_on,,,,,0,0,1,,,,0,69,64
246784,note_off,,,,,0,0,1,,,,0,76,0
246784,note_off,,,,,1024,0,1,,,,0,70,0
246784,note_off,,,,,0,0,2,,,,1,55,0
246784,note_off,,,,,0,0,2,,,,1,60,0
246784,note_on,,,,,0,0,2,,,,1,48,49
246784,note_on,,,,,0,0,2,,,,1,53,49
246784,note_on,,,,,0,0,2,,,,1,60,49
246784,note_off,,,,,1024,0,2,,,,1,48,0
246989,note_off,,,,,0,0,2,,,,1,53,0
246989,note_off,,,,,0,0,1,,,,0,77,0
246989,note_off,,,,,205,0,1,,,,0,69,0
246989,note_off,,,,,205,0,2,,,,1,48,0
246989,note_off,,,,,0,0,2,,,,1,60,0
247296,note_on,,,,,307,0,1,,,,0,69,64
247296,note_on,,,,,307,0,2,,,,1,48,49
247296,note_on,,,,,0,0,2,,,,1,53,49
247296,note_on,,,,,0,0,2,,,,1,60,49
247296,note_on,,,,,0,0,1,,,,0,77,64
247501,note_off,,,,,205,0,2,,,,1,48,0
247501,note_off,,,,,0,0,2,,,,1,53,0
247501,note_off,,,,,0,0,2,,,,1,60,0
247501,note_off,,,,,0,0,1,,,,0,77,0
247501,note_off,,,,,205,0,1,,,,0,69,0
247808,note_on,,,,,307,0,2,,,,1,48,49
247808,note_on,,,,,0,0,2,,,,1,50,49
247808,note_on,,,,,0,0,2,,,,1,60,49
247808,note_on,,,,,307,0,1,,,,0,69,64
247808,note_on,,,,,0,0,1,,,,0,72,64
248832,note_off,,,,,1024,0,1,,,,0,69,0
248832,note_off,,,,,0,0,1,,,,0,72,0
248832,note_on,,,,,0,0,1,,,,0,67,64
248832,note_on,,,,,0,0,1,,,,0,70,64
248832,note_off,,,,,0,0,2,,,,1,50,0
248832,note_off,,,,,0,0,2,,,,1,60,0
248832,note_on,,,,,0,0,2,,,,1,48,49
248832,note_on,,,,,0,0,2,,,,1,52,49
248832,note_on,,,,,0,0,2,,,,1,60,49
248832,note_off,,,,,1024,0,2,,,,1,48,0
249037,note_off,,,,,0,0,1,,,,0,70,0
249037,note_off,,,,,205,0,1,,,,0,67,0
249037,note_off,,,,,0,0,2,,,,1,60,0
249037,note_off,,,,,0,0,2,,,,1,52,0
249037,note_off,,,,,205,0,2,,,,1,48,0
249344,note_on,,,,,307,0,2,,,,1,48,49
249344,note_on,,,,,0,0,2,,,,1,60,49
249344,note_on,,,,,0,0,2,,,,1,52,49
249344,note_on,,,,,307,0,1,,,,0,67,64
249344,note_on,,,,,0,0,1,,,,0,70,64
249549,note_off,,,,,205,0,2,,,,1,48,0
249549,note_off,,,,,0,0,2,,,,1,60,0
249549,note_off,,,,,205,0,1,,,,0,67,0
249549,note_off,,,,,0,0,1,,,,0,70,0
249549,note_off,,,,,0,0,2,,,,1,52,0
249856,note_on,,,,,307,0,1,,,,0,69,101
249856,note_on,,,,,0,0,1,,,,0,72,101
249856,note_on,,,,,0,0,1,,,,0,81,101
249856,note_on,,,,,0,0,2,,,,1,53,101
249856,note_on,,,,,307,0,2,,,,1,41,101
250880,note_off,,,,,1024,0,1,,,,0,69,0
250880,note_off,,,,,0,0,1,,,,0,72,0
250880,note_off,,,,,0,0,1,,,,0,81,0
250880,note_on,,,,,0,0,1,,,,0,69,101
250880,note_on,,,,,0,0,1,,,,0,72,101
250880,note_on,,,,,0,0,1,,,,0,77,101
250880,note_off,,,,,0,0,2,,,,1,53,0
250880,note_on,,,,,0,0,2,,,,1,53,101
250880,note_on,,,,,0,0,2,,,,1,60,101
250880,note_off,,,,,1024,0,2,,,,1,41,0
251904,note_off,,,,,1024,0,2,,,,1,53,0
251904,note_off,,,,,0,0,2,,,,1,60,0
251904,note_on,,,,,0,0,2,,,,1,48,49
251904,note_on,,,,,0,0,2,,,,1,57,49
251904,note_on,,,,,0,0,2,,,,1,60,49
251904,note_on,,,,,0,0,1,,,,0,72,64
251904,note_off,,,,,0,0,1,,,,0,77,0
251904,note_off,,,,,0,0,1,,,,0,72,0
251904,note_off,,,,,1024,0,1,,,,0,69,0
252928,note_on,,,,,0,0,2,,,,1,60,49
252928,note_off,,,,,1024,0,1,,,,0,72,0
252928,note_on,,,,,0,0,2,,,,1,48,49
252928,note_on,,,,,0,0,1,,,,0,72,64
252928,note_off,,,,,0,0,2,,,,1,60,0
252928,note_off,,,,,0,0,2,,,,1,57,0
252928,note_off,,,,,1024,0,2,,,,1,48,0
252928,note_on,,,,,0,0,2,,,,1,57,49
252928,note_on,,,,,0,0,1,,,,0,74,64
253133,note_off,,,,,205,0,2,,,,1,48,0
253133,note_off,,,,,0,0,2,,,,1,57,0
253133,note_off,,,,,0,0,2,,,,1,60,0
253133,note_off,,,,,205,0,1,,,,0,72,0
253133,note_off,,,,,0,0,1,,,,0,74,0
253440,note_on,,,,,0,0,2,,,,1,60,49
253440,note_on,,,,,307,0,1,,,,0,72,64
253440,note_on,,,,,307,0,2,,,,1,48,49
253440,note_on,,,,,0,0,1,,,,0,74,64
253440,note_on,,,,,0,0,2,,,,1,57,49
253645,note_off,,,,,0,0,2,,,,1,57,0
253645,note_off,,,,,0,0,2,,,,1,60,0
253645,note_off,,,,,205,0,1,,,,0,72,0
253645,note_off,,,,,0,0,1,,,,0,74,0
253645,note_off,,,,,205,0,2,,,,1,48,0
253952,note_on,,,,,0,0,1,,,,0,76,64
253952,note_on,,,,,0,0,2,,,,1,60,49
253952,note_on,,,,,0,0,2,,,,1,55,49
253952,note_on,,,,,307,0,2,,,,1,48,49
253952,note_on,,,,,307,0,1,,,,0,70,64
254976,note_on,,,,,0,0,2,,,,1,60,49
254976,note_on,,,,,0,0,2,,,,1,53,49
254976,note_on,,,,,0,0,1,,,,0,77,64
254976,note_off,,,,,0,0,2,,,,1,60,0
254976,note_off,,,,,0,0,2,,,,1,55,0
254976,note_off,,,,,1024,0,2,,,,1,48,0
254976,note_on,,,,,0,0,2,,,,1,48,49
254976,note_on,,,,,0,0,1,,,,0,69,64
254976,note_off,,,,,0,0,1,,,,0,76,0
254976,note_off,,,,,1024,0,1,,,,0,70,0
255181,note_off,,,,,205,0,1,,,,0,69,0
255181,note_off,,,,,0,0,2,,,,1,53,0
255181,note_off,,,,,205,0,2,,,,1,48,0
255181,note_off,,,,,0,0,1,,,,0,77,0
255181,note_off,,,,,0,0,2,,,,1,60,0
255488,note_on,,,,,0,0,2,,,,1,53,49
255488,note_on,,,,,0,0,2,,,,1,60,49
255488,note_on,,,,,307,0,2,,,,1,48,49
255488,note_on,,,,,307,0,1,,,,0,69,64
255488,note_on,,,,,0,0,1,,,,0,77,64
255693,note_off,,,,,205,0,1,,,,0,69,0
255693,note_off,,,,,205,0,2,,,,1,48,0
255693,note_off,,,,,0,0,2,,,,1,53,0
255693,note_off,,,,,0,0,2,,,,1,60,0
255693,note_off,,,,,0,0,1,,,,0,77,0
256000,note_on,,,,,307,0,2,,,,1,48,49
256000,note_on,,,,,0,0,1,,,,0,72,64
256000,note_on,,,,,0,0,2,,,,1,50,49
256000,note_on,,,,,307,0,1,,,,0,69,64
256000,note_on,,,,,0,0,2,,,,1,60,49
257024,note_off,,,,,0,0,2,,,,1,50,0
257024,note_off,,,,,0,0,2,,,,1,60,0
257024,note_on,,,,,0,0,2,,,,1,60,49
257024,note_off,,,,,1024,0,2,,,,1,48,0
257024,note_on,,,,,0,0,1,,,,0,70,64
257024,note_on,,,,,0,0,2,,,,1,52,49
257024,note_off,,,,,1024,0,1,,,,0,69,0
257024,note_off,,,,,0,0,1,,,,0,72,0
257024,note_on,,,,,0,0,1,,,,0,67,64
257024,note_on,,,,,0,0,2,,,,1,48,49
257229,note_off,,,,,205,0,1,,,,0,67,0
257229,note_off,,,,,0,0,1,,,,0,70,0
257229,note_off,,,,,0,0,2,,,,1,52,0
257229,note_off,,,,,0,0,2,,,,1,60,0
257229,note_off,,,,,205,0,2,,,,1,48,0
257536,note_on,,,,,307,0,1,,,,0,67,64
257536,note_on,,,,,0,0,1,,,,0,70,64
257536,note_on,,,,,307,0,2,,,,1,48,49
257536,note_on,,,,,0,0,2,,,,1,52,49
257536,note_on,,,,,0,0,2,,,,1,60,49
257741,note_off,,,,,0,0,1,,,,0,70,0
257741,note_off,,,,,205,0,1,,,,0,67,0
257741,note_off,,,,,205,0,2,,,,1,48,0
257741,note_off,,,,,0,0,2,,,,1,52,0
257741,note_off,,,,,0,0,2,,,,1,60,0
258048,note_on,,,,,307,0,2,,,,1,41,101
258048,note_on,,,,,307,0,1,,,,0,69,101
258048,note_on,,,,,0,0,1,,,,0,72,101
258048,note_on,,,,,0,0,1,,,,0,81,101
258048,note_on,,,,,0,0,2,,,,1,53,101
259072,note_off,,,,,1024,0,1,,,,0,69,0
259072,note_off,,,,,0,0,1,,,,0,72,0
259072,note_off,,,,,0,0,1,,,,0,81,0
259072,note_on,,,,,0,0,1,,,,0,69,101
259072,note_on,,,,,0,0,1,,,,0,77,101
259072,note_on,,,,,0,0,1,,,,0,72,101
259072,note_off,,,,,0,0,2,,,,1,53,0
259072,note_on,,,,,0,0,2,,,,1,53,101
259072,note_off,,,,,1024,0,2,,,,1,41,0
259072,note_on,,,,,0,0,2,,,,1,60,101
260096,note_on,,,,,0,0,2,,,,1,60,49
260096,note_on,,,,,0,0,2,,,,1,50,49
260096,note_on,,,,,0,0,2,,,,1,48,49
260096,note_off,,,,,1024,0,2,,,,1,53,0
260096,note_on,,,,,0,0,1,,,,0,69,64
260096,note_off,,,,,0,0,1,,,,0,77,0
260096,note_off,,,,,0,0,1,,,,0,72,0
260096,note_off,,,,,1024,0,1,,,,0,69,0
260096,note_off,,,,,0,0,2,,,,1,60,0
260096,note_on,,,,,0,0,1,,,,0,72,64
261120,note_off,,,,,1024,0,2,,,,1,48,0
261120,note_off,,,,,0,0,2,,,,1,60,0
261120,note_on,,,,,0,0,2,,,,1,48,49
261120,note_off,,,,,0,0,2,,,,1,50,0
261120,note_on,,,,,0,0,2,,,,1,52,49
261120,note_off,,,,,1024,0,1,,,,0,69,0
261120,note_off,,,,,0,0,1,,,,0,72,0
261120,note_on,,,,,0,0,1,,,,0,67,64
261120,note_on,,,,,0,0,1,,,,0,70,64
261120,note_on,,,,,0,0,2,,,,1,60,49
261325,note_off,,,,,205,0,2,,,,1,48,0
261325,note_off,,,,,205,0,1,,,,0,67,0
261325,note_off,,,,,0,0,1,,,,0,70,0
261325,note_off,,,,,0,0,2,,,,1,52,0
261325,note_off,,,,,0,0,2,,,,1,60,0
261632,note_on,,,,,0,0,1,,,,0,70,64
261632,note_on,,,,,307,0,1,,,,0,67,64
261632,note_on,,,,,0,0,2,,,,1,60,49
261632,note_on,,,,,0,0,2,,,,1,52,49
261632,note_on,,,,,307,0,2,,,,1,48,49
261837,note_off,,,,,205,0,1,,,,0,67,0
261837,note_off,,,,,0,0,2,,,,1,52,0
261837,note_off,,,,,0,0,1,,,,0,70,0
261837,note_off,,,,,205,0,2,,,,1,48,0
261837,note_off,,,,,0,0,2,,,,1,60,0
262144,note_on,,,,,0,0,1,,,,0,72,101
262144,note_on,,,,,0,0,2,,,,1,53,101
262144,note_on,,,,,0,0,1,,,,0,81,101
262144,note_on,,,,,307,0,1,,,,0,69,101
262144,note_on,,,,,307,0,2,,,,1,41,101
263168,note_off,,,,,1024,0,2,,,,1,41,0
263168,note_off,,,,,0,0,2,,,,1,53,0
263168,note_on,,,,,0,0,2,,,,1,53,101
263168,note_on,,,,,0,0,2,,,,1,60,101
263168,note_on,,,,,0,0,1,,,,0,77,101
263168,note_on,,,,,0,0,1,,,,0,72,101
263168,note_on,,,,,0,0,1,,,,0,69,101
263168,note_off,,,,,0,0,1,,,,0,81,0
263168,note_off,,,,,0,0,1,,,,0,72,0
263168,note_off,,,,,1024,0,1,,,,0,69,0
264192,note_on,,,,,0,0,1,,,,0,69,64
264192,note_off,,,,,0,0,2,,,,1,60,0
264192,note_off,,,,,0,0,1,,,,0,77,0
264192,note_off,,,,,0,0,1,,,,0,72,0
264192,note_off,,,,,1024,0,1,,,,0,69,0
264192,note_off,,,,,1024,0,2,,,,1,53,0
264192,note_on,,,,,0,0,1,,,,0,72,64
264192,note_on,,,,,0,0,2,,,,1,60,49
264192,note_on,,,,,0,0,2,,,,1,50,49
264192,note_on,,,,,0,0,2,,,,1,48,49
265216,note_off,,,,,0,0,2,,,,1,60,0
265216,note_on,,,,,0,0,2,,,,1,48,49
265216,note_on,,,,,0,0,2,,,,1,52,49
265216,note_on,,,,,0,0,2,,,,1,60,49
265216,note_off,,,,,1024,0,2,,,,1,48,0
265216,note_off,,,,,0,0,1,,,,0,72,0
265216,note_on,,,,,0,0,1,,,,0,67,64
265216,note_on,,,,,0,0,1,,,,0,70,64
265216,note_off,,,,,0,0,2,,,,1,50,0
265216,note_off,,,,,1024,0,1,,,,0,69,0
265421,note_off,,,,,205,0,1,,,,0,67,0
265421,note_off,,,,,0,0,1,,,,0,70,0
265421,note_off,,,,,0,0,2,,,,1,52,0
265421,note_off,,,,,205,0,2,,,,1,48,0
265421,note_off,,,,,0,0,2,,,,1,60,0
265728,note_on,,,,,0,0,1,,,,0,70,64
265728,note_on,,,,,307,0,2,,,,1,48,49
265728,note_on,,,,,0,0,2,,,,1,52,49
265728,note_on,,,,,0,0,2,,,,1,60,49
265728,note_on,,,,,307,0,1,,,,0,67,64
265933,note_off,,,,,205,0,2,,,,1,48,0
265933,note_off,,,,,0,0,2,,,,1,60,0
265933,note_off,,,,,205,0,1,,,,0,67,0
265933,note_off,,,,,0,0,1,,,,0,70,0
265933,note_off,,,,,0,0,2,,,,1,52,0
266240,note_on,,,,,307,0,1,,,,0,77,114
266240,note_on,,,,,0,0,1,,,,0,81,114
266240,note_on,,,,,0,0,1,,,,0,84,114
266240,note_on,,,,,0,0,1,,,,0,89,114
266240,note_on,,,,,307,0,2,,,,1,41,114
266240,note_on,,,,,0,0,2,,,,1,53,114
267264,note_off,,,,,1024,0,2,,,,1,41,0
267264,note_on,,,,,0,0,2,,,,1,53,114
267264,note_on,,,,,0,0,1,,,,0,77,114
267264,note_on,,,,,0,0,1,,,,0,65,114
267264,note_off,,,,,0,0,1,,,,0,84,0
267264,note_off,,,,,0,0,1,,,,0,81,0
267264,note_off,,,,,0,0,1,,,,0,89,0
267264,note_off,,,,,1024,0,1,,,,0,77,0
267264,note_off,,,,,0,0,2,,,,1,53,0
268288,note_off,,,,,1024,0,2,,,,1,53,0
268288,note_off,,,,,1024,0,1,,,,0,65,0
268288,note_off,,,,,0,0,1,,,,0,77,0
270336,key_signature,,,,,26624,1,0,Fm,,,,,
270336,note_on,,,,,0,0,2,,,,1,60,80
270336,note_on,,,,,2048,0,2,,,,1,58,80
270336,note_on,,,,,2048,0,1,,,,0,70,80
270336,note_on,,,,,0,0,1,,,,0,72,80
271360,note_off,,,,,1024,0,1,,,,0,70,0
271360,note_off,,,,,0,0,1,,,,0,72,0
271360,note_on,,,,,0,0,2,,,,1,60,64
271360,note_off,,,,,1024,0,2,,,,1,58,0
271360,note_off,,,,,0,0,2,,,,1,60,0
271360,note_on,,,,,0,0,2,,,,1,55,64
271360,note_on,,,,,0,0,1,,,,0,67,64
271360,note_on,,,,,0,0,1,,,,0,72,64
271565,note_off,,,,,0,0,2,,,,1,60,0
271565,note_off,,,,,205,0,2,,,,1,55,0
271565,note_off,,,,,0,0,1,,,,0,72,0
271565,note_off,,,,,205,0,1,,,,0,67,0
271872,note_on,,,,,307,0,2,,,,1,55,64
271872,note_on,,,,,0,0,2,,,,1,60,64
271872,note_on,,,,,0,0,1,,,,0,72,64
271872,note_on,,,,,307,0,1,,,,0,67,64
272077,note_off,,,,,205,0,1,,,,0,67,0
272077,note_off,,,,,205,0,2,,,,1,55,0
272077,note_off,,,,,0,0,2,,,,1,60,0
272077,note_off,,,,,0,0,1,,,,0,72,0
272384,note_on,,,,,0,0,2,,,,1,60,80
272384,note_on,,,,,307,0,2,,,,1,56,80
272384,note_on,,,,,0,0,1,,,,0,72,80
272384,note_on,,,,,307,0,1,,,,0,68,80
273408,note_off,,,,,0,0,2,,,,1,60,0
273408,note_on,,,,,0,0,1,,,,0,72,64
273408,note_on,,,,,0,0,1,,,,0,65,64
273408,note_off,,,,,0,0,1,,,,0,72,0
273408,note_off,,,,,1024,0,1,,,,0,68,0
273408,note_off,,,,,1024,0,2,,,,1,56,0
273408,note_on,,,,,0,0,2,,,,1,60,64
273408,note_on,,,,,0,0,2,,,,1,53,64
273613,note_off,,,,,0,0,2,,,,1,60,0
273613,note_off,,,,,205,0,2,,,,1,53,0
273613,note_off,,,,,205,0,1,,,,0,65,0
273613,note_off,,,,,0,0,1,,,,0,72,0
273920,note_on,,,,,307,0,2,,,,1,53,64
273920,note_on,,,,,307,0,1,,,,0,65,64
273920,note_on,,,,,0,0,1,,,,0,72,64
273920,note_on,,,,,0,0,2,,,,1,60,64
274125,note_off,,,,,205,0,2,,,,1,53,0
274125,note_off,,,,,205,0,1,,,,0,65,0
274125,note_off,,,,,0,0,1,,,,0,72,0
274125,note_off,,,,,0,0,2,,,,1,60,0
274432,note_on,,,,,307,0,1,,,,0,66,80
274432,note_on,,,,,0,0,1,,,,0,68,80
274432,note_on,,,,,307,0,2,,,,1,54,80
274432,note_on,,,,,0,0,2,,,,1,56,80
275456,note_off,,,,,1024,0,1,,,,0,66,0
275456,note_off,,,,,1024,0,2,,,,1,54,0
275456,note_off,,,,,0,0,2,,,,1,56,0
275456,note_on,,,,,0,0,2,,,,1,48,64
275456,note_on,,,,,0,0,2,,,,1,56,64
275456,note_on,,,,,0,0,1,,,,0,60,64
275456,note_on,,,,,0,0,1,,,,0,68,64
275456,note_off,,,,,0,0,1,,,,0,68,0
275661,note_off,,,,,205,0,2,,,,1,48,0
275661,note_off,,,,,0,0,2,,,,1,56,0
275661,note_off,,,,,205,0,1,,,,0,60,0
275661,note_off,,,,,0,0,1,,,,0,68,0
275968,note_on,,,,,0,0,1,,,,0,68,64
275968,note_on,,,,,307,0,1,,,,0,60,64
275968,note_on,,,,,0,0,2,,,,1,56,64
275968,note_on,,,,,307,0,2,,,,1,48,64
276173,note_off,,,,,0,0,1,,,,0,68,0
276173,note_off,,,,,205,0,1,,,,0,60,0
276173,note_off,,,,,205,0,2,,,,1,48,0
276173,note_off,,,,,0,0,2,,,,1,56,0
276480,note_on,,,,,307,0,1,,,,0,65,80
276480,note_on,,,,,0,0,1,,,,0,77,80
276480,note_on,,,,,307,0,2,,,,1,37,80
276480,note_on,,,,,0,0,2,,,,1,49,80
276480,note_on,,,,,0,0,1,,,,0,68,80
277504,note_on,,,,,0,0,2,,,,1,56,64
277504,note_off,,,,,1024,0,1,,,,0,65,0
277504,note_off,,,,,0,0,1,,,,0,77,0
277504,note_on,,,,,0,0,1,,,,0,65,64
277504,note_on,,,,,0,0,1,,,,0,68,64
277504,note_on,,,,,0,0,1,,,,0,73,64
277504,note_off,,,,,1024,0,2,,,,1,37,0
277504,note_off,,,,,0,0,2,,,,1,49,0
277504,note_on,,,,,0,0,2,,,,1,49,64
277504,note_off,,,,,0,0,1,,,,0,68,0
278528,note_off,,,,,1024,0,1,,,,0,65,0
278528,note_off,,,,,0,0,1,,,,0,68,0
278528,note_off,,,,,0,0,1,,,,0,73,0
278528,note_on,,,,,0,0,1,,,,0,68,64
278528,note_on,,,,,0,0,1,,,,0,66,64
278528,note_on,,,,,0,0,2,,,,1,56,64
278528,note_on,,,,,0,0,2,,,,1,54,64
278528,note_off,,,,,0,0,2,,,,1,56,0
278528,note_off,,,,,1024,0,2,,,,1,49,0
279552,note_on,,,,,0,0,1,,,,0,60,64
279552,note_on,,,,,0,0,2,,,,1,56,64
279552,note_on,,,,,0,0,2,,,,1,48,64
279552,note_off,,,,,0,0,2,,,,1,56,0
279552,note_off,,,,,1024,0,2,,,,1,54,0
279552,note_off,,,,,0,0,1,,,,0,68,0
279552,note_on,,,,,0,0,1,,,,0,68,64
279552,note_off,,,,,1024,0,1,,,,0,66,0
280064,note_on,,,,,0,0,1,,,,0,60,64
280064,note_off,,,,,512,0,1,,,,0,60,0
280064,note_off,,,,,0,0,2,,,,1,56,0
280064,note_on,,,,,0,0,2,,,,1,48,64
280064,note_on,,,,,0,0,2,,,,1,56,64
280064,note_off,,,,,0,0,1,,,,0,68,0
280064,note_off,,,,,512,0,2,,,,1,48,0
280064,note_on,,,,,0,0,1,,,,0,68,64
280576,note_off,,,,,512,0,1,,,,0,60,0
280576,note_off,,,,,0,0,1,,,,0,68,0
280576,note_on,,,,,0,0,1,,,,0,68,80
280576,note_on,,,,,0,0,2,,,,1,49,80
280576,note_on,,,,,0,0,1,,,,0,77,80
280576,note_off,,,,,0,0,2,,,,1,56,0
280576,note_off,,,,,512,0,2,,,,1,48,0
280576,note_on,,,,,0,0,1,,,,0,65,80
280576,note_on,,,,,0,0,2,,,,1,37,80
281600,note_on,,,,,0,0,2,,,,1,56,64
281600,note_off,,,,,0,0,2,,,,1,49,0
281600,note_off,,,,,1024,0,1,,,,0,65,0
281600,note_off,,,,,0,0,1,,,,0,68,0
281600,note_off,,,,,0,0,1,,,,0,77,0
281600,note_on,,,,,0,0,1,,,,0,65,64
281600,note_on,,,,,0,0,1,,,,0,68,64
281600,note_on,,,,,0,0,1,,,,0,73,64
281600,note_off,,,,,1024,0,2,,,,1,37,0
281600,note_on,,,,,0,0,2,,,,1,49,64
282624,note_off,,,,,1024,0,1,,,,0,65,0
282624,note_off,,,,,1024,0,2,,,,1,49,0
282624,note_off,,,,,0,0,2,,,,1,56,0
282624,note_on,,,,,0,0,2,,,,1,63,80
282624,note_on,,,,,0,0,2,,,,1,65,80
282624,note_on,,,,,0,0,1,,,,0,75,80
282624,note_off,,,,,0,0,1,,,,0,73,0
282624,note_off,,,,,0,0,1,,,,0,68,0
282624,note_on,,,,,0,0,1,,,,0,77,80
283648,note_off,,,,,1024,0,2,,,,1,63,0
283648,note_on,,,,,0,0,1,,,,0,72,64
283648,note_on,,,,,0,0,1,,,,0,77,64
283648,note_off,,,,,0,0,2,,,,1,65,0
283648,note_off,,,,,0,0,1,,,,0,77,0
283648,note_off,,,,,1024,0,1,,,,0,75,0
283648,note_on,,,,,0,0,2,,,,1,65,64
283648,note_on,,,,,0,0,2,,,,1,60,64
283853,note_off,,,,,205,0,2,,,,1,60,0
283853,note_off,,,,,0,0,2,,,,1,65,0
283853,note_off,,,,,0,0,1,,,,0,77,0
283853,note_off,,,,,205,0,1,,,,0,72,0
284160,note_on,,,,,307,0,2,,,,1,60,64
284160,note_on,,,,,307,0,1,,,,0,72,64
284160,note_on,,,,,0,0,2,,,,1,65,64
284160,note_on,,,,,0,0,1,,,,0,77,64
284365,note_off,,,,,205,0,1,,,,0,72,0
284365,note_off,,,,,0,0,1,,,,0,77,0
284365,note_off,,,,,205,0,2,,,,1,60,0
284365,note_off,,,,,0,0,2,,,,1,65,0
284672,note_on,,,,,307,0,2,,,,1,61,80
284672,note_on,,,,,307,0,1,,,,0,73,80
284672,note_on,,,,,0,0,1,,,,0,77,80
284672,note_on,,,,,0,0,2,,,,1,65,80
285696,note_on,,,,,0,0,1,,,,0,77,64
285696,note_on,,,,,0,0,2,,,,1,58,64
285696,note_off,,,,,0,0,2,,,,1,65,0
285696,note_off,,,,,1024,0,2,,,,1,61,0
285696,note_on,,,,,0,0,1,,,,0,70,64
285696,note_off,,,,,0,0,1,,,,0,77,0
285696,note_off,,,,,1024,0,1,,,,0,73,0
285696,note_on,,,,,0,0,2,,,,1,65,64
285901,note_off,,,,,0,0,2,,,,1,65,0
285901,note_off,,,,,205,0,1,,,,0,70,0
285901,note_off,,,,,0,0,1,,,,0,77,0
285901,note_off,,,,,205,0,2,,,,1,58,0
286208,note_on,,,,,0,0,1,,,,0,77,64
286208,note_on,,,,,307,0,1,,,,0,70,64
286208,note_on,,,,,0,0,2,,,,1,65,64
286208,note_on,,,,,307,0,2,,,,1,58,64
286413,note_off,,,,,0,0,2,,,,1,65,0
286413,note_off,,,,,0,0,1,,,,0,77,0
286413,note_off,,,,,205,0,1,,,,0,70,0
286413,note_off,,,,,205,0,2,,,,1,58,0
286720,note_on,,,,,307,0,2,,,,1,59,80
286720,note_on,,,,,0,0,1,,,,0,73,80
286720,note_on,,,,,0,0,2,,,,1,61,80
286720,note_on,,,,,307,0,1,,,,0,71,80
287744,note_on,,,,,0,0,2,,,,1,61,64
287744,note_on,,,,,0,0,2,,,,1,53,64
287744,note_off,,,,,0,0,2,,,,1,61,0
287744,note_off,,,,,1024,0,2,,,,1,59,0
287744,note_on,,,,,0,0,1,,,,0,73,64
287744,note_on,,,,,0,0,1,,,,0,65,64
287744,note_off,,,,,0,0,1,,,,0,73,0
287744,note_off,,,,,1024,0,1,,,,0,71,0
287949,note_off,,,,,0,0,1,,,,0,73,0
287949,note_off,,,,,0,0,2,,,,1,61,0
287949,note_off,,,,,205,0,2,,,,1,53,0
287949,note_off,,,,,205,0,1,,,,0,65,0
288256,note_on,,,,,307,0,2,,,,1,53,64
288256,note_on,,,,,0,0,2,,,,1,61,64
288256,note_on,,,,,307,0,1,,,,0,65,64
288256,note_on,,,,,0,0,1,,,,0,73,64
288461,note_off,,,,,205,0,2,,,,1,53,0
288461,note_off,,,,,0,0,1,,,,0,73,0
288461,note_off,,,,,205,0,1,,,,0,65,0
288461,note_off,,,,,0,0,2,,,,1,61,0
288768,note_on,,,,,307,0,2,,,,1,42,80
288768,note_on,,,,,0,0,2,,,,1,54,80
288768,note_on,,,,,0,0,1,,,,0,82,80
288768,note_on,,,,,0,0,1,,,,0,73,80
288768,note_on,,,,,307,0,1,,,,0,70,80
289792,note_off,,,,,0,0,2,,,,1,54,0
289792,note_off,,,,,1024,0,2,,,,1,42,0
289792,note_on,,,,,0,0,1,,,,0,73,64
289792,note_on,,,,,0,0,1,,,,0,70,64
289792,note_off,,,,,0,0,1,,,,0,73,0
289792,note_off,,,,,1024,0,1,,,,0,70,0
289792,note_on,,,,,0,0,2,,,,1,54,64
289792,note_on,,,,,0,0,1,,,,0,78,64
289792,note_on,,,,,0,0,2,,,,1,61,64
289792,note_off,,,,,0,0,1,,,,0,82,0
290816,note_off,,,,,1024,0,1,,,,0,70,0
290816,note_off,,,,,0,0,1,,,,0,78,0
290816,note_on,,,,,0,0,1,,,,0,71,80
290816,note_on,,,,,0,0,2,,,,1,61,80
290816,note_on,,,,,0,0,2,,,,1,59,80
290816,note_off,,,,,0,0,2,,,,1,61,0
290816,note_off,,,,,1024,0,2,,,,1,54,0
290816,note_on,,,,,0,0,1,,,,0,73,80
290816,note_off,,,,,0,0,1,,,,0,73,0
291840,note_off,,,,,1024,0,1,,,,0,71,0
291840,note_off,,,,,0,0,1,,,,0,73,0
291840,note_on,,,,,0,0,1,,,,0,65,64
291840,note_on,,,,,0,0,1,,,,0,73,64
291840,note_on,,,,,0,0,2,,,,1,61,64
291840,note_on,,,,,0,0,2,,,,1,53,64
291840,note_off,,,,,0,0,2,,,,1,61,0
291840,note_off,,,,,1024,0,2,,,,1,59,0
292045,note_off,,,,,0,0,1,,,,0,73,0
292045,note_off,,,,,205,0,2,,,,1,53,0
292045,note_off,,,,,0,0,2,,,,1,61,0
292045,note_off,,,,,205,0,1,,,,0,65,0
292352,note_on,,,,,307,0,2,,,,1,53,64
292352,note_on,,,,,0,0,2,,,,1,61,64
292352,note_on,,,,,307,0,1,,,,0,65,64
292352,note_on,,,,,0,0,1,,,,0,73,64
292557,note_off,,,,,205,0,2,,,,1,53,0
292557,note_off,,,,,0,0,1,,,,0,73,0
292557,note_off,,,,,0,0,2,,,,1,61,0
292557,note_off,,,,,205,0,1,,,,0,65,0
292864,note_on,,,,,307,0,1,,,,0,70,80
292864,note_on,,,,,307,0,2,,,,1,42,80
292864,note_on,,,,,0,0,1,,,,0,73,80
292864,note_on,,,,,0,0,2,,,,1,54,80
292864,note_on,,,,,0,0,1,,,,0,82,80
293888,note_off,,,,,1024,0,2,,,,1,42,0
293888,note_off,,,,,1024,0,1,,,,0,70,0
293888,note_off,,,,,0,0,1,,,,0,82,0
293888,note_on,,,,,0,0,1,,,,0,70,64
293888,note_on,,,,,0,0,1,,,,0,73,64
293888,note_on,,,,,0,0,1,,,,0,78,64
293888,note_off,,,,,0,0,2,,,,1,54,0
293888,note_on,,,,,0,0,2,,,,1,54,64
293888,note_on,,,,,0,0,2,,,,1,61,64
293888,note_off,,,,,0,0,1,,,,0,73,0
294912,note_off,,,,,1024,0,2,,,,1,54,0
294912,note_off,,,,,0,0,2,,,,1,61,0
294912,note_on,,,,,0,0,2,,,,1,49,17
294912,note_on,,,,,0,0,1,,,,0,82,46
294912,note_off,,,,,0,0,1,,,,0,78,0
294912,note_off,,,,,0,0,1,,,,0,73,0
294912,note_off,,,,,1024,0,1,,,,0,70,0
295424,note_on,,,,,0,0,1,,,,0,70,34
295424,note_off,,,,,512,0,1,,,,0,82,0
295936,note_on,,,,,0,0,1,,,,0,78,35
295936,note_on,,,,,0,0,1,,,,0,73,35
295936,note_off,,,,,512,0,1,,,,0,70,0
295936,note_off,,,,,1024,0,2,,,,1,49,0
295936,note_on,,,,,0,0,2,,,,1,54,9
296448,note_off,,,,,0,0,1,,,,0,78,0
296448,note_on,,,,,0,0,1,,,,0,70,35
296448,note_off,,,,,512,0,1,,,,0,73,0
296960,note_on,,,,,0,0,1,,,,0,78,48
296960,note_off,,,,,512,0,1,,,,0,70,0
296960,note_off,,,,,1024,0,2,,,,1,54,0
296960,note_on,,,,,0,0,2,,,,1,54,19
297472,note_on,,,,,0,0,1,,,,0,66,36
297472,note_off,,,,,512,0,1,,,,0,78,0
297984,note_on,,,,,0,0,1,,,,0,71,36
297984,note_off,,,,,512,0,1,,,,0,66,0
297984,note_on,,,,,0,0,1,,,,0,74,36
297984,note_off,,,,,1024,0,2,,,,1,54,0
297984,note_on,,,,,0,0,2,,,,1,59,11
298496,note_off,,,,,0,0,1,,,,0,74,0
298496,note_on,,,,,0,0,1,,,,0,66,37
298496,note_off,,,,,512,0,1,,,,0,71,0
299008,note_off,,,,,1024,0,2,,,,1,59,0
299008,note_on,,,,,0,0,1,,,,0,76,49
299008,note_off,,,,,512,0,1,,,,0,66,0
299008,note_on,,,,,0,0,2,,,,1,42,21
299520,note_on,,,,,0,0,1,,,,0,67,38
299520,note_off,,,,,512,0,1,,,,0,76,0
300032,note_on,,,,,0,0,1,,,,0,73,38
300032,note_off,,,,,1024,0,2,,,,1,42,0
300032,note_on,,,,,0,0,2,,,,1,54,13
300032,note_on,,,,,0,0,1,,,,0,70,38
300032,note_off,,,,,512,0,1,,,,0,67,0
300544,note_off,,,,,0,0,1,,,,0,73,0
300544,note_off,,,,,512,0,1,,,,0,70,0
300544,note_on,,,,,0,0,1,,,,0,67,38
301056,note_on,,,,,0,0,1,,,,0,73,51
301056,note_on,,,,,0,0,2,,,,1,54,24
301056,note_on,,,,,0,0,2,,,,1,42,24
301056,note_off,,,,,1024,0,2,,,,1,54,0
301056,note_off,,,,,512,0,1,,,,0,67,0
301056,note_on,,,,,0,0,1,,,,0,71,51
301568,note_on,,,,,0,0,1,,,,0,66,39
301568,note_off,,,,,0,0,1,,,,0,73,0
301568,note_off,,,,,512,0,1,,,,0,71,0
302080,note_off,,,,,0,0,2,,,,1,54,0
302080,note_on,,,,,0,0,2,,,,1,47,16
302080,note_off,,,,,512,0,1,,,,0,66,0
302080,note_on,,,,,0,0,1,,,,0,71,40
302080,note_on,,,,,0,0,1,,,,0,74,40
302080,note_on,,,,,0,0,2,,,,1,54,16
302080,note_off,,,,,1024,0,2,,,,1,42,0
302592,note_off,,,,,512,0,1,,,,0,71,0
302592,note_off,,,,,0,0,1,,,,0,74,0
302592,note_on,,,,,0,0,1,,,,0,66,40
303104,note_off,,,,,512,0,1,,,,0,66,0
303104,note_on,,,,,0,0,1,,,,0,79,53
303104,note_off,,,,,1024,0,2,,,,1,47,0
303104,note_on,,,,,0,0,2,,,,1,54,26
303104,note_off,,,,,0,0,2,,,,1,54,0
303616,note_off,,,,,512,0,1,,,,0,79,0
303616,note_on,,,,,0,0,1,,,,0,70,41
304128,note_on,,,,,0,0,2,,,,1,67,18
304128,note_off,,,,,1024,0,2,,,,1,54,0
304128,note_off,,,,,512,0,1,,,,0,70,0
304128,note_on,,,,,0,0,1,,,,0,73,41
304128,note_on,,,,,0,0,1,,,,0,76,41
304640,note_off,,,,,512,0,1,,,,0,73,0
304640,note_on,,,,,0,0,1,,,,0,70,42
304640,note_off,,,,,0,0,1,,,,0,76,0
305152,note_off,,,,,1024,0,2,,,,1,67,0
305152,note_on,,,,,0,0,2,,,,1,66,19
305152,note_off,,,,,512,0,1,,,,0,70,0
305152,note_on,,,,,0,0,1,,,,0,73,42
305152,note_on,,,,,0,0,1,,,,0,78,42
305152,note_on,,,,,0,0,2,,,,1,54,19
305664,note_off,,,,,512,0,1,,,,0,73,0
305664,note_off,,,,,0,0,1,,,,0,78,0
305664,note_on,,,,,0,0,1,,,,0,70,43
306176,note_off,,,,,512,0,1,,,,0,70,0
306176,note_on,,,,,0,0,1,,,,0,78,43
306176,note_on,,,,,0,0,1,,,,0,74,43
306176,note_off,,,,,0,0,2,,,,1,66,0
306176,note_on,,,,,0,0,2,,,,1,66,20
306176,note_on,,,,,0,0,2,,,,1,59,20
306176,note_off,,,,,1024,0,2,,,,1,54,0
306688,note_off,,,,,512,0,1,,,,0,74,0
306688,note_off,,,,,0,0,1,,,,0,78,0
306688,note_on,,,,,0,0,1,,,,0,71,43
307200,note_on,,,,,0,0,2,,,,1,50,21
307200,note_off,,,,,0,0,2,,,,1,66,0
307200,note_on,,,,,0,0,1,,,,0,83,44
307200,note_off,,,,,512,0,1,,,,0,71,0
307200,note_off,,,,,1024,0,2,,,,1,59,0
307712,note_on,,,,,0,0,1,,,,0,71,44
307712,note_off,,,,,512,0,1,,,,0,83,0
308224,note_on,,,,,0,0,2,,,,1,55,22
308224,note_on,,,,,0,0,1,,,,0,79,45
308224,note_on,,,,,0,0,1,,,,0,74,45
308224,note_off,,,,,512,0,1,,,,0,71,0
308224,note_off,,,,,1024,0,2,,,,1,50,0
308736,note_on,,,,,0,0,1,,,,0,71,45
308736,note_off,,,,,512,0,1,,,,0,74,0
308736,note_off,,,,,0,0,1,,,,0,79,0
309248,note_on,,,,,0,0,2,,,,1,55,23
309248,note_off,,,,,1024,0,2,,,,1,55,0
309248,note_off,,,,,512,0,1,,,,0,71,0
309248,note_on,,,,,0,0,1,,,,0,79,45
309760,note_off,,,,,512,0,1,,,,0,79,0
309760,note_on,,,,,0,0,1,,,,0,67,46
310272,note_on,,,,,0,0,1,,,,0,72,46
310272,note_on,,,,,0,0,1,,,,0,75,46
310272,note_off,,,,,512,0,1,,,,0,67,0
310272,note_on,,,,,0,0,2,,,,1,60,24
310272,note_off,,,,,1024,0,2,,,,1,55,0
310784,note_on,,,,,0,0,1,,,,0,67,47
310784,note_off,,,,,512,0,1,,,,0,72,0
310784,note_off,,,,,0,0,1,,,,0,75,0
311296,note_on,,,,,0,0,2,,,,1,43,25
311296,note_off,,,,,512,0,1,,,,0,67,0
311296,note_on,,,,,0,0,1,,,,0,77,47
311296,note_off,,,,,1024,0,2,,,,1,60,0
311808,note_off,,,,,512,0,1,,,,0,77,0
311808,note_on,,,,,0,0,1,,,,0,68,47
312320,note_off,,,,,1024,0,2,,,,1,43,0
312320,note_on,,,,,0,0,2,,,,1,55,26
312320,note_off,,,,,512,0,1,,,,0,68,0
312320,note_on,,,,,0,0,1,,,,0,71,48
312320,note_on,,,,,0,0,1,,,,0,74,48
312832,note_on,,,,,0,0,1,,,,0,68,48
312832,note_off,,,,,512,0,1,,,,0,71,0
312832,note_off,,,,,0,0,1,,,,0,74,0
313344,note_on,,,,,0,0,1,,,,0,74,49
313344,note_on,,,,,0,0,1,,,,0,72,49
313344,note_on,,,,,0,0,2,,,,1,55,28
313344,note_off,,,,,1024,0,2,,,,1,55,0
313344,note_off,,,,,512,0,1,,,,0,68,0
313344,note_on,,,,,0,0,2,,,,1,43,28
313856,note_off,,,,,512,0,1,,,,0,72,0
313856,note_off,,,,,0,0,1,,,,0,74,0
313856,note_on,,,,,0,0,1,,,,0,67,49
314368,note_off,,,,,1024,0,2,,,,1,43,0
314368,note_off,,,,,0,0,2,,,,1,55,0
314368,note_on,,,,,0,0,2,,,,1,49,29
314368,note_on,,,,,0,0,2,,,,1,55,29
314368,note_on,,,,,0,0,1,,,,0,75,49
314368,note_on,,,,,0,0,1,,,,0,72,49
314368,note_off,,,,,512,0,1,,,,0,67,0
314880,note_off,,,,,512,0,1,,,,0,72,0
314880,note_off,,,,,0,0,1,,,,0,75,0
314880,note_on,,,,,0,0,1,,,,0,67,50
315392,note_off,,,,,512,0,1,,,,0,67,0
315392,note_on,,,,,0,0,1,,,,0,80,50
315392,note_on,,,,,0,0,2,,,,1,55,30
315392,note_off,,,,,0,0,2,,,,1,55,0
315392,note_off,,,,,1024,0,2,,,,1,49,0
315904,note_off,,,,,512,0,1,,,,0,80,0
315904,note_on,,,,,0,0,1,,,,0,71,51
316416,note_off,,,,,512,0,1,,,,0,71,0
316416,note_off,,,,,1024,0,2,,,,1,55,0
316416,note_on,,,,,0,0,1,,,,0,77,51
316416,note_on,,,,,0,0,1,,,,0,74,51
316416,note_on,,,,,0,0,2,,,,1,68,31
316928,note_on,,,,,0,0,1,,,,0,71,51
316928,note_off,,,,,0,0,1,,,,0,77,0
316928,note_off,,,,,512,0,1,,,,0,74,0
317440,note_off,,,,,512,0,1,,,,0,71,0
317440,note_on,,,,,0,0,2,,,,1,67,32
317440,note_on,,,,,0,0,2,,,,1,55,32
317440,note_off,,,,,1024,0,2,,,,1,68,0
317440,note_on,,,,,0,0,1,,,,0,74,52
317440,note_on,,,,,0,0,1,,,,0,79,52
317952,note_on,,,,,0,0,1,,,,0,71,52
317952,note_off,,,,,512,0,1,,,,0,74,0
317952,note_off,,,,,0,0,1,,,,0,79,0
318464,note_on,,,,,0,0,1,,,,0,79,53
318464,note_on,,,,,0,0,1,,,,0,75,53
318464,note_off,,,,,512,0,1,,,,0,71,0
318464,note_off,,,,,1024,0,2,,,,1,55,0
318464,note_off,,,,,0,0,2,,,,1,67,0
318464,note_on,,,,,0,0,2,,,,1,60,33
318464,note_on,,,,,0,0,2,,,,1,67,33
318976,note_off,,,,,512,0,1,,,,0,75,0
318976,note_on,,,,,0,0,1,,,,0,72,53
318976,note_off,,,,,0,0,1,,,,0,79,0
319488,note_on,,,,,0,0,1,,,,0,70,54
319488,note_off,,,,,512,0,1,,,,0,72,0
319488,note_on,,,,,0,0,2,,,,1,67,34
319488,note_off,,,,,1024,0,2,,,,1,60,0
319488,note_off,,,,,0,0,2,,,,1,67,0
320000,note_off,,,,,512,0,1,,,,0,70,0
320000,note_on,,,,,0,0,1,,,,0,75,54
320512,note_on,,,,,0,0,1,,,,0,74,54
320512,note_off,,,,,512,0,1,,,,0,75,0
320512,note_off,,,,,1024,0,2,,,,1,67,0
320512,note_on,,,,,0,0,2,,,,1,63,35
321024,note_off,,,,,512,0,1,,,,0,74,0
321024,note_on,,,,,0,0,1,,,,0,75,55
321536,note_off,,,,,512,0,1,,,,0,75,0
321536,note_on,,,,,0,0,1,,,,0,75,55
321536,note_on,,,,,0,0,2,,,,1,63,36
321536,note_off,,,,,1024,0,2,,,,1,63,0
322048,note_on,,,,,0,0,1,,,,0,80,56
322048,note_off,,,,,512,0,1,,,,0,75,0
322560,note_on,,,,,0,0,1,,,,0,79,56
322560,note_off,,,,,512,0,1,,,,0,80,0
322560,note_on,,,,,0,0,2,,,,1,59,37
322560,note_off,,,,,1024,0,2,,,,1,63,0
322560,note_on,,,,,0,0,2,,,,1,63,37
323072,note_on,,,,,0,0,1,,,,0,80,56
323072,note_off,,,,,512,0,1,,,,0,79,0
323584,note_on,,,,,0,0,1,,,,0,87,57
323584,note_off,,,,,512,0,1,,,,0,80,0
323584,note_off,,,,,0,0,2,,,,1,63,0
323584,note_off,,,,,1024,0,2,,,,1,59,0
323584,note_on,,,,,0,0,2,,,,1,63,38
323584,note_on,,,,,0,0,2,,,,1,61,38
324096,note_off,,,,,512,0,1,,,,0,87,0
324096,note_on,,,,,0,0,1,,,,0,75,57
324608,note_off,,,,,512,0,1,,,,0,75,0
324608,note_on,,,,,0,0,2,,,,1,63,39
324608,note_on,,,,,0,0,2,,,,1,58,39
324608,note_off,,,,,0,0,2,,,,1,63,0
324608,note_off,,,,,1024,0,2,,,,1,61,0
324608,note_on,,,,,0,0,1,,,,0,79,58
325120,note_on,,,,,0,0,1,,,,0,75,58
325120,note_off,,,,,512,0,1,,,,0,79,0
325632,note_off,,,,,512,0,1,,,,0,75,0
325632,note_on,,,,,0,0,2,,,,1,58,41
325632,note_on,,,,,0,0,1,,,,0,75,58
325632,note_on,,,,,0,0,2,,,,1,63,41
325632,note_off,,,,,1024,0,2,,,,1,58,0
325632,note_off,,,,,0,0,2,,,,1,63,0
326144,note_on,,,,,0,0,1,,,,0,80,59
326144,note_off,,,,,512,0,1,,,,0,75,0
326656,note_off,,,,,512,0,1,,,,0,80,0
326656,note_on,,,,,0,0,1,,,,0,79,59
326656,note_on,,,,,0,0,2,,,,1,63,42
326656,note_on,,,,,0,0,2,,,,1,59,42
326656,note_off,,,,,0,0,2,,,,1,63,0
326656,note_off,,,,,1024,0,2,,,,1,58,0
327168,note_off,,,,,512,0,1,,,,0,79,0
327168,note_on,,,,,0,0,1,,,,0,80,60
327680,note_off,,,,,512,0,1,,,,0,80,0
327680,note_on,,,,,0,0,1,,,,0,78,60
327680,note_off,,,,,0,0,2,,,,1,63,0
327680,note_off,,,,,1024,0,2,,,,1,59,0
327680,note_on,,,,,0,0,2,,,,1,64,43
328192,note_off,,,,,512,0,1,,,,0,78,0
328192,note_on,,,,,0,0,1,,,,0,66,60
328704,note_off,,,,,1024,0,2,,,,1,64,0
328704,note_on,,,,,0,0,1,,,,0,70,61
328704,note_off,,,,,512,0,1,,,,0,66,0
328704,note_on,,,,,0,0,2,,,,1,61,44
329216,note_on,,,,,0,0,1,,,,0,66,61
329216,note_off,,,,,512,0,1,,,,0,70,0
329728,note_off,,,,,1024,0,2,,,,1,61,0
329728,note_on,,,,,0,0,2,,,,1,61,45
329728,note_on,,,,,0,0,1,,,,0,66,62
329728,note_off,,,,,512,0,1,,,,0,66,0
330240,note_on,,,,,0,0,1,,,,0,71,62
330240,note_off,,,,,512,0,1,,,,0,66,0
330752,note_off,,,,,512,0,1,,,,0,71,0
330752,note_off,,,,,1024,0,2,,,,1,61,0
330752,note_on,,,,,0,0,1,,,,0,70,62
330752,note_on,,,,,0,0,2,,,,1,63,46
331264,note_off,,,,,512,0,1,,,,0,70,0
331264,note_on,,,,,0,0,1,,,,0,71,63
331776,note_on,,,,,0,0,2,,,,1,70,47
331776,note_off,,,,,1024,0,2,,,,1,63,0
331776,note_off,,,,,512,0,1,,,,0,71,0
331776,note_on,,,,,0,0,1,,,,0,71,63
332288,note_off,,,,,512,0,1,,,,0,71,0
332288,note_on,,,,,0,0,1,,,,0,76,64
332800,note_on,,,,,0,0,2,,,,1,64,48
332800,note_off,,,,,1024,0,2,,,,1,70,0
332800,note_on,,,,,0,0,1,,,,0,75,64
332800,note_off,,,,,512,0,1,,,,0,76,0
333312,note_on,,,,,0,0,1,,,,0,76,64
333312,note_off,,,,,512,0,1,,,,0,75,0
333824,note_off,,,,,1024,0,2,,,,1,64,0
333824,note_on,,,,,0,0,1,,,,0,76,65
333824,note_on,,,,,0,0,2,,,,1,64,49
333824,note_off,,,,,512,0,1,,,,0,76,0
334336,note_off,,,,,512,0,1,,,,0,76,0
334336,note_on,,,,,0,0,1,,,,0,81,65
334848,note_on,,,,,0,0,1,,,,0,80,66
334848,note_off,,,,,512,0,1,,,,0,81,0
334848,note_on,,,,,0,0,2,,,,1,64,50
334848,note_on,,,,,0,0,2,,,,1,60,50
334848,note_off,,,,,1024,0,2,,,,1,64,0
335360,note_off,,,,,512,0,1,,,,0,80,0
335360,note_on,,,,,0,0,1,,,,0,81,66
335872,note_off,,,,,512,0,1,,,,0,81,0
335872,note_on,,,,,0,0,2,,,,1,64,51
335872,note_off,,,,,1024,0,2,,,,1,60,0
335872,note_on,,,,,0,0,2,,,,1,62,51
335872,note_on,,,,,0,0,1,,,,0,88,67
335872,note_off,,,,,0,0,2,,,,1,64,0
336384,note_on,,,,,0,0,1,,,,0,76,67
336384,note_off,,,,,512,0,1,,,,0,88,0
336896,note_on,,,,,0,0,2,,,,1,64,52
336896,note_on,,,,,0,0,2,,,,1,59,52
336896,note_off,,,,,0,0,2,,,,1,64,0
336896,note_off,,,,,1024,0,2,,,,1,62,0
336896,note_on,,,,,0,0,1,,,,0,80,67
336896,note_off,,,,,512,0,1,,,,0,76,0
337408,note_on,,,,,0,0,1,,,,0,76,68
337408,note_off,,,,,512,0,1,,,,0,80,0
337920,note_on,,,,,0,0,1,,,,0,76,68
337920,note_off,,,,,512,0,1,,,,0,76,0
337920,note_on,,,,,0,0,2,,,,1,59,54
337920,note_off,,,,,0,0,2,,,,1,64,0
337920,note_on,,,,,0,0,2,,,,1,64,54
337920,note_off,,,,,1024,0,2,,,,1,59,0
338432,note_on,,,,,0,0,1,,,,0,81,69
338432,note_off,,,,,512,0,1,,,,0,76,0
338944,note_off,,,,,512,0,1,,,,0,81,0
338944,note_off,,,,,0,0,2,,,,1,64,0
338944,note_off,,,,,1024,0,2,,,,1,59,0
338944,note_on,,,,,0,0,2,,,,1,60,55
338944,note_on,,,,,0,0,2,,,,1,64,55
338944,note_on,,,,,0,0,1,,,,0,80,69
339456,note_off,,,,,512,0,1,,,,0,80,0
339456,note_on,,,,,0,0,1,,,,0,81,69
339968,note_off,,,,,1024,0,2,,,,1,60,0
339968,note_on,,,,,0,0,2,,,,1,65,56
339968,note_on,,,,,0,0,1,,,,0,79,70
339968,note_off,,,,,512,0,1,,,,0,81,0
339968,note_off,,,,,0,0,2,,,,1,64,0
340480,note_on,,,,,0,0,1,,,,0,67,70
340480,note_off,,,,,512,0,1,,,,0,79,0
340992,note_off,,,,,512,0,1,,,,0,67,0
340992,note_on,,,,,0,0,2,,,,1,62,57
340992,note_on,,,,,0,0,1,,,,0,71,71
340992,note_off,,,,,1024,0,2,,,,1,65,0
341504,note_on,,,,,0,0,1,,,,0,67,71
341504,note_off,,,,,512,0,1,,,,0,71,0
342016,note_off,,,,,1024,0,2,,,,1,62,0
342016,note_on,,,,,0,0,2,,,,1,62,58
342016,note_on,,,,,0,0,1,,,,0,67,71
342016,note_off,,,,,512,0,1,,,,0,67,0
342528,note_on,,,,,0,0,1,,,,0,72,72
342528,note_off,,,,,512,0,1,,,,0,67,0
343040,note_off,,,,,1024,0,2,,,,1,62,0
343040,note_on,,,,,0,0,2,,,,1,64,59
343040,note_on,,,,,0,0,1,,,,0,71,72
343040,note_off,,,,,512,0,1,,,,0,72,0
343552,note_off,,,,,512,0,1,,,,0,71,0
343552,note_on,,,,,0,0,1,,,,0,72,73
344064,note_on,,,,,0,0,2,,,,1,61,110
344064,note_off,,,,,1024,0,2,,,,1,64,0
344064,note_on,,,,,0,0,1,,,,0,73,110
344064,note_off,,,,,512,0,1,,,,0,72,0
345088,note_on,,,,,0,0,1,,,,0,73,88
345088,note_off,,,,,1024,0,1,,,,0,73,0
345088,note_on,,,,,0,0,1,,,,0,72,88
345088,note_off,,,,,1024,0,2,,,,1,61,0
345088,note_on,,,,,0,0,2,,,,1,60,88
345088,note_on,,,,,0,0,2,,,,1,61,88
345293,note_off,,,,,0,0,1,,,,0,73,0
345293,note_off,,,,,0,0,2,,,,1,61,0
345293,note_off,,,,,205,0,1,,,,0,72,0
345293,note_off,,,,,205,0,2,,,,1,60,0
345600,note_on,,,,,0,0,1,,,,0,73,88
345600,note_on,,,,,307,0,1,,,,0,70,88
345600,note_on,,,,,307,0,2,,,,1,58,88
345600,note_on,,,,,0,0,2,,,,1,61,88
345805,note_off,,,,,205,0,1,,,,0,70,0
345805,note_off,,,,,0,0,2,,,,1,61,0
345805,note_off,,,,,0,0,1,,,,0,73,0
345805,note_off,,,,,205,0,2,,,,1,58,0
346112,note_on,,,,,307,0,1,,,,0,70,110
346112,note_on,,,,,0,0,1,,,,0,73,110
346112,note_on,,,,,0,0,2,,,,1,61,110
346112,note_on,,,,,307,0,2,,,,1,58,110
347136,note_on,,,,,0,0,2,,,,1,56,88
347136,note_on,,,,,0,0,2,,,,1,61,88
347136,note_off,,,,,1024,0,2,,,,1,58,0
347136,note_off,,,,,0,0,2,,,,1,61,0
347136,note_on,,,,,0,0,1,,,,0,73,88
347136,note_on,,,,,0,0,1,,,,0,68,88
347136,note_off,,,,,0,0,1,,,,0,73,0
347136,note_off,,,,,1024,0,1,,,,0,70,0
347341,note_off,,,,,205,0,1,,,,0,68,0
347341,note_off,,,,,0,0,1,,,,0,73,0
347341,note_off,,,,,205,0,2,,,,1,56,0
347341,note_off,,,,,0,0,2,,,,1,61,0
347648,note_on,,,,,307,0,1,,,,0,67,88
347648,note_on,,,,,0,0,1,,,,0,73,88
347648,note_on,,,,,307,0,2,,,,1,55,88
347648,note_on,,,,,0,0,2,,,,1,61,88
347853,note_off,,,,,0,0,2,,,,1,61,0
347853,note_off,,,,,205,0,1,,,,0,67,0
347853,note_off,,,,,0,0,1,,,,0,73,0
347853,note_off,,,,,205,0,2,,,,1,55,0
348160,note_on,,,,,0,0,2,,,,1,61,110
348160,note_on,,,,,307,0,1,,,,0,67,110
348160,note_on,,,,,0,0,1,,,,0,70,110
348160,note_on,,,,,307,0,2,,,,1,55,110
348160,note_on,,,,,0,0,1,,,,0,73,110
349184,note_on,,,,,0,0,1,,,,0,68,88
349184,note_off,,,,,0,0,1,,,,0,70,0
349184,note_off,,,,,1024,0,1,,,,0,67,0
349184,note_on,,,,,0,0,1,,,,0,73,88
349184,note_on,,,,,0,0,2,,,,1,53,88
349184,note_on,,,,,0,0,2,,,,1,61,88
349184,note_off,,,,,0,0,2,,,,1,61,0
349184,note_off,,,,,1024,0,2,,,,1,55,0
349184,note_on,,,,,0,0,1,,,,0,65,88
349184,note_off,,,,,0,0,1,,,,0,73,0
349389,note_off,,,,,205,0,1,,,,0,65,0
349389,note_off,,,,,0,0,1,,,,0,68,0
349389,note_off,,,,,0,0,1,,,,0,73,0
349389,note_off,,,,,205,0,2,,,,1,53,0
349389,note_off,,,,,0,0,2,,,,1,61,0
349696,note_on,,,,,307,0,2,,,,1,52,88
349696,note_on,,,,,0,0,1,,,,0,67,88
349696,note_on,,,,,0,0,1,,,,0,73,88
349696,note_on,,,,,0,0,2,,,,1,61,88
349696,note_on,,,,,307,0,1,,,,0,64,88
349901,note_off,,,,,0,0,1,,,,0,67,0
349901,note_off,,,,,0,0,1,,,,0,73,0
349901,note_off,,,,,0,0,2,,,,1,61,0
349901,note_off,,,,,205,0,2,,,,1,52,0
349901,note_off,,,,,205,0,1,,,,0,64,0
350208,note_on,,,,,307,0,1,,,,0,79,126
350208,note_on,,,,,0,0,1,,,,0,82,126
350208,note_on,,,,,0,0,1,,,,0,84,126
350208,note_on,,,,,307,0,2,,,,1,36,126
350208,note_on,,,,,0,0,2,,,,1,48,126
351232,note_on,,,,,0,0,1,,,,0,80,101
351232,note_off,,,,,0,0,1,,,,0,82,0
351232,note_on,,,,,0,0,2,,,,1,48,101
351232,note_off,,,,,0,0,2,,,,1,48,0
351232,note_off,,,,,1024,0,2,,,,1,36,0
351232,note_off,,,,,1024,0,1,,,,0,79,0
351232,note_off,,,,,0,0,1,,,,0,84,0
351232,note_on,,,,,0,0,1,,,,0,84,101
351232,note_on,,,,,0,0,1,,,,0,77,101
351437,note_off,,,,,205,0,2,,,,1,48,0
351437,note_off,,,,,205,0,1,,,,0,77,0
351437,note_off,,,,,0,0,1,,,,0,80,0
351437,note_off,,,,,0,0,1,,,,0,84,0
351744,note_on,,,,,0,0,1,,,,0,84,101
351744,note_on,,,,,0,0,1,,,,0,79,101
351744,note_on,,,,,307,0,1,,,,0,76,101
351744,note_on,,,,,307,0,2,,,,1,48,101
351949,note_off,,,,,205,0,1,,,,0,76,0
351949,note_off,,,,,0,0,1,,,,0,84,0
351949,note_off,,,,,205,0,2,,,,1,48,0
351949,note_off,,,,,0,0,1,,,,0,79,0
352256,note_on,,,,,307,0,2,,,,1,61,110
352256,note_on,,,,,307,0,1,,,,0,73,110
353280,note_off,,,,,1024,0,2,,,,1,61,0
353280,note_on,,,,,0,0,2,,,,1,60,88
353280,note_on,,,,,0,0,2,,,,1,61,88
353280,note_on,,,,,0,0,1,,,,0,72,88
353280,note_on,,,,,0,0,1,,,,0,73,88
353280,note_off,,,,,1024,0,1,,,,0,73,0
353485,note_off,,,,,0,0,2,,,,1,61,0
353485,note_off,,,,,205,0,2,,,,1,60,0
353485,note_off,,,,,0,0,1,,,,0,73,0
353485,note_off,,,,,205,0,1,,,,0,72,0
353792,note_on,,,,,0,0,2,,,,1,61,88
353792,note_on,,,,,307,0,2,,,,1,58,88
353792,note_on,,,,,0,0,1,,,,0,73,88
353792,note_on,,,,,307,0,1,,,,0,70,88
353997,note_off,,,,,205,0,1,,,,0,70,0
353997,note_off,,,,,0,0,2,,,,1,61,0
353997,note_off,,,,,0,0,1,,,,0,73,0
353997,note_off,,,,,205,0,2,,,,1,58,0
354304,note_on,,,,,0,0,2,,,,1,61,110
354304,note_on,,,,,307,0,2,,,,1,58,110
354304,note_on,,,,,307,0,1,,,,0,70,110
354304,note_on,,,,,0,0,1,,,,0,73,110
355328,note_on,,,,,0,0,2,,,,1,61,88
355328,note_off,,,,,1024,0,1,,,,0,70,0
355328,note_off,,,,,0,0,1,,,,0,73,0
355328,note_on,,,,,0,0,1,,,,0,68,88
355328,note_on,,,,,0,0,1,,,,0,73,88
355328,note_on,,,,,0,0,2,,,,1,56,88
355328,note_off,,,,,1024,0,2,,,,1,58,0
355328,note_off,,,,,0,0,2,,,,1,61,0
355533,note_off,,,,,0,0,1,,,,0,73,0
355533,note_off,,,,,205,0,1,,,,0,68,0
355533,note_off,,,,,0,0,2,,,,1,61,0
355533,note_off,,,,,205,0,2,,,,1,56,0
355840,note_on,,,,,0,0,2,,,,1,61,88
355840,note_on,,,,,0,0,1,,,,0,73,88
355840,note_on,,,,,307,0,1,,,,0,67,88
355840,note_on,,,,,307,0,2,,,,1,55,88
356045,note_off,,,,,0,0,1,,,,0,73,0
356045,note_off,,,,,0,0,2,,,,1,61,0
356045,note_off,,,,,205,0,1,,,,0,67,0
356045,note_off,,,,,205,0,2,,,,1,55,0
356352,note_on,,,,,0,0,1,,,,0,73,110
356352,note_on,,,,,0,0,1,,,,0,70,110
356352,note_on,,,,,0,0,2,,,,1,61,110
356352,note_on,,,,,307,0,2,,,,1,55,110
356352,note_on,,,,,307,0,1,,,,0,67,110
357376,note_off,,,,,0,0,1,,,,0,73,0
357376,note_off,,,,,0,0,2,,,,1,61,0
357376,note_on,,,,,0,0,2,,,,1,53,88
357376,note_on,,,,,0,0,2,,,,1,61,88
357376,note_off,,,,,1024,0,1,,,,0,67,0
357376,note_on,,,,,0,0,1,,,,0,73,88
357376,note_on,,,,,0,0,1,,,,0,68,88
357376,note_on,,,,,0,0,1,,,,0,65,88
357376,note_off,,,,,1024,0,2,,,,1,55,0
357376,note_off,,,,,0,0,1,,,,0,70,0
357581,note_off,,,,,0,0,1,,,,0,68,0
357581,note_off,,,,,0,0,2,,,,1,61,0
357581,note_off,,,,,0,0,1,,,,0,73,0
357581,note_off,,,,,205,0,1,,,,0,65,0
357581,note_off,,,,,205,0,2,,,,1,53,0
357888,note_on,,,,,307,0,2,,,,1,52,88
357888,note_on,,,,,0,0,2,,,,1,61,88
357888,note_on,,,,,0,0,1,,,,0,73,88
357888,note_on,,,,,0,0,1,,,,0,67,88
357888,note_on,,,,,307,0,1,,,,0,64,88
358093,note_off,,,,,205,0,2,,,,1,52,0
358093,note_off,,,,,0,0,2,,,,1,61,0
358093,note_off,,,,,0,0,1,,,,0,73,0
358093,note_off,,,,,0,0,1,,,,0,67,0
358093,note_off,,,,,205,0,1,,,,0,64,0
358400,note_on,,,,,307,0,2,,,,1,36,126
358400,note_on,,,,,0,0,2,,,,1,48,126
358400,note_on,,,,,0,0,1,,,,0,84,126
358400,note_on,,,,,0,0,1,,,,0,82,126
358400,note_on,,,,,307,0,1,,,,0,79,126
359424,note_on,,,,,0,0,1,,,,0,77,101
359424,note_off,,,,,1024,0,2,,,,1,36,0
359424,note_off,,,,,0,0,1,,,,0,84,0
359424,note_on,,,,,0,0,1,,,,0,80,101
359424,note_on,,,,,0,0,1,,,,0,84,101
359424,note_off,,,,,0,0,1,,,,0,82,0
359424,note_on,,,,,0,0,2,,,,1,48,101
359424,note_off,,,,,0,0,2,,,,1,48,0
359424,note_off,,,,,1024,0,1,,,,0,79,0
359629,note_off,,,,,0,0,1,,,,0,80,0
359629,note_off,,,,,0,0,1,,,,0,84,0
359629,note_off,,,,,205,0,2,,,,1,48,0
359629,note_off,,,,,205,0,1,,,,0,77,0
359936,note_on,,,,,0,0,1,,,,0,79,101
359936,note_on,,,,,0,0,1,,,,0,84,101
359936,note_on,,,,,307,0,1,,,,0,76,101
359936,note_on,,,,,307,0,2,,,,1,48,101
360141,note_off,,,,,0,0,1,,,,0,79,0
360141,note_off,,,,,0,0,1,,,,0,84,0
360141,note_off,,,,,205,0,1,,,,0,76,0
360141,note_off,,,,,205,0,2,,,,1,48,0
360448,note_on,,,,,0,0,1,,,,0,70,80
360448,note_on,,,,,307,0,1,,,,0,67,80
360448,note_on,,,,,0,0,1,,,,0,73,80
360448,note_on,,,,,0,0,2,,,,1,61,80
360448,note_on,,,,,307,0,2,,,,1,55,80
361472,note_on,,,,,0,0,2,,,,1,61,64
361472,note_off,,,,,1024,0,2,,,,1,55,0
361472,note_off,,,,,0,0,2,,,,1,61,0
361472,note_on,,,,,0,0,2,,,,1,53,64
361472,note_on,,,,,0,0,1,,,,0,73,64
361472,note_on,,,,,0,0,1,,,,0,68,64
361472,note_on,,,,,0,0,1,,,,0,65,64
361472,note_off,,,,,0,0,1,,,,0,73,0
361472,note_off,,,,,0,0,1,,,,0,70,0
361472,note_off,,,,,1024,0,1,,,,0,67,0
361677,note_off,,,,,0,0,1,,,,0,68,0
361677,note_off,,,,,0,0,2,,,,1,61,0
361677,note_off,,,,,0,0,1,,,,0,73,0
361677,note_off,,,,,205,0,2,,,,1,53,0
361677,note_off,,,,,205,0,1,,,,0,65,0
361984,note_on,,,,,307,0,1,,,,0,64,64
361984,note_on,,,,,0,0,1,,,,0,67,64
361984,note_on,,,,,0,0,1,,,,0,73,64
361984,note_on,,,,,307,0,2,,,,1,52,64
361984,note_on,,,,,0,0,2,,,,1,61,64
362189,note_off,,,,,205,0,1,,,,0,64,0
362189,note_off,,,,,0,0,1,,,,0,67,0
362189,note_off,,,,,0,0,1,,,,0,73,0
362189,note_off,,,,,205,0,2,,,,1,52,0
362189,note_off,,,,,0,0,2,,,,1,61,0
362496,note_on,,,,,0,0,1,,,,0,82,126
362496,note_on,,,,,0,0,2,,,,1,48,126
362496,note_on,,,,,0,0,1,,,,0,84,126
362496,note_on,,,,,307,0,2,,,,1,36,126
362496,note_on,,,,,307,0,1,,,,0,79,126
363520,note_off,,,,,0,0,2,,,,1,48,0
363520,note_off,,,,,1024,0,2,,,,1,36,0
363520,note_on,,,,,0,0,2,,,,1,48,101
363520,note_off,,,,,0,0,1,,,,0,84,0
363520,note_off,,,,,1024,0,1,,,,0,79,0
363520,note_on,,,,,0,0,1,,,,0,84,101
363520,note_off,,,,,0,0,1,,,,0,82,0
363520,note_on,,,,,0,0,1,,,,0,77,101
363520,note_on,,,,,0,0,1,,,,0,80,101
363725,note_off,,,,,205,0,2,,,,1,48,0
363725,note_off,,,,,205,0,1,,,,0,77,0
363725,note_off,,,,,0,0,1,,,,0,80,0
363725,note_off,,,,,0,0,1,,,,0,84,0
364032,note_on,,,,,307,0,2,,,,1,48,101
364032,note_on,,,,,307,0,1,,,,0,76,101
364032,note_on,,,,,0,0,1,,,,0,79,101
364032,note_on,,,,,0,0,1,,,,0,84,101
364237,note_off,,,,,205,0,2,,,,1,48,0
364237,note_off,,,,,0,0,1,,,,0,84,0
364237,note_off,,,,,205,0,1,,,,0,76,0
364237,note_off,,,,,0,0,1,,,,0,79,0
364544,note_on,,,,,307,0,2,,,,1,48,126
364544,note_on,,,,,307,0,1,,,,0,60,126
365568,note_off,,,,,1024,0,1,,,,0,60,0
365568,note_on,,,,,0,0,1,,,,0,61,103
365568,note_off,,,,,1024,0,2,,,,1,48,0
365568,note_on,,,,,0,0,2,,,,1,49,103
365773,note_off,,,,,205,0,1,,,,0,61,0
365773,note_off,,,,,205,0,2,,,,1,49,0
366080,note_on,,,,,307,0,1,,,,0,60,103
366080,note_on,,,,,307,0,2,,,,1,48,103
366285,note_off,,,,,205,0,1,,,,0,60,0
366285,note_off,,,,,205,0,2,,,,1,48,0
366592,note_on,,,,,307,0,1,,,,0,61,127
366592,note_on,,,,,307,0,2,,,,1,49,127
367616,note_off,,,,,1024,0,1,,,,0,61,0
367616,note_on,,,,,0,0,2,,,,1,48,106
367616,note_on,,,,,0,0,1,,,,0,60,106
367616,note_off,,,,,1024,0,2,,,,1,49,0
367821,note_off,,,,,205,0,2,,,,1,48,0
367821,note_off,,,,,205,0,1,,,,0,60,0
368128,note_on,,,,,307,0,2,,,,1,50,106
368128,note_on,,,,,307,0,1,,,,0,62,106
368333,note_off,,,,,205,0,2,,,,1,50,0
368333,note_off,,,,,205,0,1,,,,0,62,0
368640,note_on,,,,,307,0,1,,,,0,64,127
368640,note_on,,,,,307,0,2,,,,1,52,127
369664,note_off,,,,,1024,0,1,,,,0,64,0
369664,note_on,,,,,0,0,1,,,,0,65,109
369664,note_on,,,,,0,0,2,,,,1,53,109
369664,note_off,,,,,1024,0,2,,,,1,52,0
369869,note_off,,,,,205,0,1,,,,0,65,0
369869,note_off,,,,,205,0,2,,,,1,53,0
370176,note_on,,,,,307,0,1,,,,0,64,109
370176,note_on,,,,,307,0,2,,,,1,52,109
370381,note_off,,,,,205,0,1,,,,0,64,0
370381,note_off,,,,,205,0,2,,,,1,52,0
370688,note_on,,,,,307,0,1,,,,0,65,127
370688,note_on,,,,,307,0,2,,,,1,53,127
371712,note_off,,,,,1024,0,1,,,,0,65,0
371712,note_on,,,,,0,0,1,,,,0,64,112
371712,note_off,,,,,1024,0,2,,,,1,53,0
371712,note_on,,,,,0,0,2,,,,1,52,112
371917,note_off,,,,,205,0,1,,,,0,64,0
371917,note_off,,,,,205,0,2,,,,1,52,0
372224,note_on,,,,,307,0,1,,,,0,66,112
372224,note_on,,,,,307,0,2,,,,1,54,112
372429,note_off,,,,,205,0,1,,,,0,66,0
372429,note_off,,,,,205,0,2,,,,1,54,0
372736,note_on,,,,,307,0,1,,,,0,67,127
372736,note_on,,,,,307,0,2,,,,1,55,127
373760,note_off,,,,,1024,0,1,,,,0,67,0
373760,note_on,,,,,0,0,1,,,,0,68,115
373760,note_on,,,,,0,0,2,,,,1,56,115
373760,note_off,,,,,1024,0,2,,,,1,55,0
374272,note_off,,,,,512,0,2,,,,1,56,0
374272,note_on,,,,,0,0,1,,,,0,67,115
374272,note_off,,,,,512,0,1,,,,0,68,0
374272,note_on,,,,,0,0,2,,,,1,55,115
374784,note_on,,,,,0,0,1,,,,0,70,127
374784,note_off,,,,,512,0,1,,,,0,67,0
374784,note_on,,,,,0,0,2,,,,1,58,127
374784,note_off,,,,,512,0,2,,,,1,55,0
375808,note_on,,,,,0,0,1,,,,0,68,118
375808,note_on,,,,,0,0,2,,,,1,56,118
375808,note_off,,,,,1024,0,2,,,,1,58,0
375808,note_off,,,,,1024,0,1,,,,0,70,0
376013,note_off,,,,,205,0,1,,,,0,68,0
376013,note_off,,,,,205,0,2,,,,1,56,0
376320,note_on,,,,,307,0,1,,,,0,73,118
376320,note_on,,,,,307,0,2,,,,1,61,118
376525,note_off,,,,,205,0,1,,,,0,73,0
376525,note_off,,,,,205,0,2,,,,1,61,0
376832,note_on,,,,,307,0,1,,,,0,72,127
376832,note_on,,,,,307,0,2,,,,1,60,127
377856,note_on,,,,,0,0,1,,,,0,74,121
377856,note_off,,,,,1024,0,1,,,,0,72,0
377856,note_off,,,,,1024,0,2,,,,1,60,0
377856,note_on,,,,,0,0,2,,,,1,62,121
378061,note_off,,,,,205,0,2,,,,1,62,0
378061,note_off,,,,,205,0,1,,,,0,74,0
378368,note_on,,,,,307,0,2,,,,1,63,121
378368,note_on,,,,,307,0,1,,,,0,75,121
378573,note_off,,,,,205,0,1,,,,0,75,0
378573,note_off,,,,,205,0,2,,,,1,63,0
378880,note_on,,,,,307,0,1,,,,0,76,127
378880,note_on,,,,,307,0,2,,,,1,64,127
379904,note_on,,,,,0,0,2,,,,1,65,124
379904,note_off,,,,,1024,0,2,,,,1,64,0
379904,note_off,,,,,1024,0,1,,,,0,76,0
379904,note_on,,,,,0,0,1,,,,0,77,124
380109,note_off,,,,,205,0,2,,,,1,65,0
380109,note_off,,,,,205,0,1,,,,0,77,0
380416,note_on,,,,,307,0,1,,,,0,79,124
380416,note_on,,,,,307,0,2,,,,1,67,124
380621,note_off,,,,,205,0,1,,,,0,79,0
380621,note_off,,,,,205,0,2,,,,1,67,0
380928,note_on,,,,,307,0,1,,,,0,68,110
380928,note_on,,,,,0,0,1,,,,0,72,110
380928,note_on,,,,,0,0,1,,,,0,80,110
380928,note_on,,,,,307,0,2,,,,1,41,94
380928,note_on,,,,,0,0,2,,,,1,53,94
381952,note_off,,,,,1024,0,2,,,,1,41,0
381952,note_off,,,,,0,0,2,,,,1,53,0
381952,note_on,,,,,0,0,2,,,,1,53,75
381952,note_on,,,,,0,0,1,,,,0,79,88
381952,note_off,,,,,0,0,1,,,,0,72,0
381952,note_off,,,,,0,0,1,,,,0,80,0
381952,note_on,,,,,0,0,1,,,,0,68,88
381952,note_on,,,,,0,0,1,,,,0,72,88
381952,note_off,,,,,1024,0,1,,,,0,68,0
382157,note_off,,,,,205,0,2,,,,1,53,0
382157,note_off,,,,,205,0,1,,,,0,68,0
382157,note_off,,,,,0,0,1,,,,0,72,0
382157,note_off,,,,,0,0,1,,,,0,79,0
382464,note_on,,,,,0,0,1,,,,0,72,88
382464,note_on,,,,,0,0,1,,,,0,77,88
382464,note_on,,,,,307,0,2,,,,1,53,75
382464,note_on,,,,,307,0,1,,,,0,68,88
382669,note_off,,,,,205,0,1,,,,0,68,0
382669,note_off,,,,,0,0,1,,,,0,77,0
382669,note_off,,,,,0,0,1,,,,0,72,0
382669,note_off,,,,,205,0,2,,,,1,53,0
382976,note_on,,,,,307,0,2,,,,1,41,94
382976,note_on,,,,,0,0,2,,,,1,53,94
382976,note_on,,,,,0,0,1,,,,0,77,110
382976,note_on,,,,,0,0,1,,,,0,72,110
382976,note_on,,,,,307,0,1,,,,0,68,110
384000,note_on,,,,,0,0,2,,,,1,53,75
384000,note_off,,,,,0,0,2,,,,1,53,0
384000,note_off,,,,,1024,0,2,,,,1,41,0
384000,note_on,,,,,0,0,1,,,,0,72,88
384000,note_off,,,,,1024,0,1,,,,0,68,0
384000,note_off,,,,,0,0,1,,,,0,72,0
384000,note_off,,,,,0,0,1,,,,0,77,0
384000,note_on,,,,,0,0,1,,,,0,68,88
384205,note_off,,,,,205,0,2,,,,1,53,0
384205,note_off,,,,,205,0,1,,,,0,68,0
384205,note_off,,,,,0,0,1,,,,0,72,0
384512,note_on,,,,,307,0,2,,,,1,53,75
384512,note_on,,,,,0,0,1,,,,0,72,88
384512,note_on,,,,,307,0,1,,,,0,68,88
384717,note_off,,,,,205,0,1,,,,0,68,0
384717,note_off,,,,,205,0,2,,,,1,53,0
384717,note_off,,,,,0,0,1,,,,0,72,0
385024,note_on,,,,,307,0,1,,,,0,70,110
385024,note_on,,,,,0,0,2,,,,1,53,94
385024,note_on,,,,,0,0,1,,,,0,73,110
385024,note_on,,,,,0,0,1,,,,0,77,110
385024,note_on,,,,,307,0,2,,,,1,41,94
386048,note_on,,,,,0,0,1,,,,0,73,88
386048,note_off,,,,,1024,0,1,,,,0,70,0
386048,note_off,,,,,0,0,1,,,,0,73,0
386048,note_off,,,,,0,0,1,,,,0,77,0
386048,note_on,,,,,0,0,1,,,,0,70,88
386048,note_on,,,,,0,0,2,,,,1,53,75
386048,note_off,,,,,0,0,2,,,,1,53,0
386048,note_off,,,,,1024,0,2,,,,1,41,0
386253,note_off,,,,,205,0,1,,,,0,70,0
386253,note_off,,,,,0,0,1,,,,0,73,0
386253,note_off,,,,,205,0,2,,,,1,53,0
386560,note_on,,,,,307,0,2,,,,1,53,75
386560,note_on,,,,,307,0,1,,,,0,70,88
386560,note_on,,,,,0,0,1,,,,0,73,88
386765,note_off,,,,,0,0,1,,,,0,73,0
386765,note_off,,,,,205,0,1,,,,0,70,0
386765,note_off,,,,,205,0,2,,,,1,53,0
387072,note_on,,,,,307,0,2,,,,1,41,94
387072,note_on,,,,,307,0,1,,,,0,68,110
387072,note_on,,,,,0,0,1,,,,0,72,110
387072,note_on,,,,,0,0,1,,,,0,77,110
387072,note_on,,,,,0,0,2,,,,1,53,94
388096,note_off,,,,,0,0,1,,,,0,77,0
388096,note_off,,,,,0,0,1,,,,0,72,0
388096,note_off,,,,,1024,0,1,,,,0,68,0
388096,note_off,,,,,1024,0,2,,,,1,41,0
388096,note_off,,,,,0,0,2,,,,1,53,0
388096,note_on,,,,,0,0,2,,,,1,53,75
388096,note_on,,,,,0,0,1,,,,0,68,88
388096,note_on,,,,,0,0,1,,,,0,72,88
388301,note_off,,,,,205,0,1,,,,0,68,0
388301,note_off,,,,,0,0,1,,,,0,72,0
388301,note_off,,,,,205,0,2,,,,1,53,0
388608,note_on,,,,,307,0,2,,,,1,53,75
388608,note_on,,,,,0,0,1,,,,0,72,88
388608,note_on,,,,,307,0,1,,,,0,68,88
388813,note_off,,,,,205,0,2,,,,1,53,0
388813,note_off,,,,,205,0,1,,,,0,68,0
388813,note_off,,,,,0,0,1,,,,0,72,0
389120,note_on,,,,,307,0,1,,,,0,68,64
389120,note_on,,,,,0,0,2,,,,1,41,34
389120,note_on,,,,,307,0,2,,,,1,29,34
389120,note_on,,,,,0,0,1,,,,0,72,64
390144,note_off,,,,,1024,0,2,,,,1,29,0
390144,note_on,,,,,0,0,1,,,,0,67,66
390144,note_off,,,,,1024,0,1,,,,0,68,0
390144,note_off,,,,,0,0,1,,,,0,72,0
390144,note_on,,,,,0,0,1,,,,0,68,66
390144,note_on,,,,,0,0,1,,,,0,72,66
390144,note_off,,,,,0,0,2,,,,1,41,0
390144,note_on,,,,,0,0,2,,,,1,41,36
390349,note_off,,,,,0,0,1,,,,0,68,0
390349,note_off,,,,,0,0,1,,,,0,72,0
390349,note_off,,,,,205,0,1,,,,0,67,0
390349,note_off,,,,,205,0,2,,,,1,41,0
390656,note_on,,,,,307,0,2,,,,1,41,37
390656,note_on,,,,,0,0,1,,,,0,72,67
390656,note_on,,,,,0,0,1,,,,0,68,67
390656,note_on,,,,,307,0,1,,,,0,65,67
390861,note_off,,,,,0,0,1,,,,0,72,0
390861,note_off,,,,,0,0,1,,,,0,68,0
390861,note_off,,,,,205,0,1,,,,0,65,0
390861,note_off,,,,,205,0,2,,,,1,41,0
391168,note_on,,,,,0,0,1,,,,0,68,84
391168,note_on,,,,,0,0,1,,,,0,72,84
391168,note_on,,,,,307,0,1,,,,0,65,84
391168,note_on,,,,,307,0,2,,,,1,29,38
391168,note_on,,,,,0,0,2,,,,1,41,38
392192,note_off,,,,,0,0,1,,,,0,68,0
392192,note_off,,,,,1024,0,1,,,,0,65,0
392192,note_off,,,,,1024,0,2,,,,1,29,0
392192,note_off,,,,,0,0,1,,,,0,72,0
392192,note_off,,,,,0,0,2,,,,1,41,0
392192,note_on,,,,,0,0,1,,,,0,68,70
392192,note_on,,,,,0,0,1,,,,0,72,70
392192,note_on,,,,,0,0,2,,,,1,41,40
392192,note_on,,,,,0,0,1,,,,0,60,70
392397,note_off,,,,,205,0,1,,,,0,60,0
392397,note_off,,,,,0,0,1,,,,0,68,0
392397,note_off,,,,,0,0,1,,,,0,72,0
392397,note_off,,,,,205,0,2,,,,1,41,0
392704,note_on,,,,,307,0,1,,,,0,60,70
392704,note_on,,,,,0,0,1,,,,0,68,70
392704,note_on,,,,,0,0,1,,,,0,72,70
392704,note_on,,,,,307,0,2,,,,1,41,41
392909,note_off,,,,,0,0,1,,,,0,72,0
392909,note_off,,,,,205,0,2,,,,1,41,0
392909,note_off,,,,,205,0,1,,,,0,60,0
392909,note_off,,,,,0,0,1,,,,0,68,0
393216,note_on,,,,,0,0,1,,,,0,70,87
393216,note_on,,,,,0,0,1,,,,0,73,87
393216,note_on,,,,,0,0,2,,,,1,41,42
393216,note_on,,,,,307,0,2,,,,1,29,42
393216,note_on,,,,,307,0,1,,,,0,65,87
394240,note_off,,,,,1024,0,1,,,,0,65,0
394240,note_off,,,,,0,0,1,,,,0,73,0
394240,note_off,,,,,0,0,1,,,,0,70,0
394240,note_off,,,,,1024,0,2,,,,1,29,0
394240,note_off,,,,,0,0,2,,,,1,41,0
394240,note_on,,,,,0,0,2,,,,1,41,44
394240,note_on,,,,,0,0,1,,,,0,61,73
394240,note_on,,,,,0,0,1,,,,0,73,73
394240,note_on,,,,,0,0,1,,,,0,70,73
394445,note_off,,,,,0,0,1,,,,0,73,0
394445,note_off,,,,,0,0,1,,,,0,70,0
394445,note_off,,,,,205,0,1,,,,0,61,0
394445,note_off,,,,,205,0,2,,,,1,41,0
394752,note_on,,,,,0,0,1,,,,0,73,74
394752,note_on,,,,,0,0,1,,,,0,70,74
394752,note_on,,,,,307,0,1,,,,0,61,74
394752,note_on,,,,,307,0,2,,,,1,41,45
394957,note_off,,,,,0,0,1,,,,0,70,0
394957,note_off,,,,,205,0,1,,,,0,61,0
394957,note_off,,,,,205,0,2,,,,1,41,0
394957,note_off,,,,,0,0,1,,,,0,73,0
395264,note_on,,,,,0,0,1,,,,0,72,91
395264,note_on,,,,,307,0,2,,,,1,29,46
395264,note_on,,,,,0,0,2,,,,1,41,46
395264,note_on,,,,,0,0,1,,,,0,68,91
395264,note_on,,,,,307,0,1,,,,0,65,91
396288,note_on,,,,,0,0,1,,,,0,72,77
396288,note_off,,,,,0,0,2,,,,1,41,0
396288,note_on,,,,,0,0,2,,,,1,41,48
396288,note_off,,,,,1024,0,1,,,,0,65,0
396288,note_off,,,,,1024,0,2,,,,1,29,0
396288,note_off,,,,,0,0,1,,,,0,72,0
396288,note_off,,,,,0,0,1,,,,0,68,0
396288,note_on,,,,,0,0,1,,,,0,60,77
396288,note_on,,,,,0,0,1,,,,0,68,77
396493,note_off,,,,,0,0,1,,,,0,68,0
396493,note_off,,,,,0,0,1,,,,0,72,0
396493,note_off,,,,,205,0,2,,,,1,41,0
396493,note_off,,,,,205,0,1,,,,0,60,0
396800,note_on,,,,,0,0,1,,,,0,68,78
396800,note_on,,,,,307,0,1,,,,0,60,78
396800,note_on,,,,,0,0,1,,,,0,72,78
396800,note_on,,,,,307,0,2,,,,1,41,49
397005,note_off,,,,,205,0,2,,,,1,41,0
397005,note_off,,,,,205,0,1,,,,0,60,0
397005,note_off,,,,,0,0,1,,,,0,68,0
397005,note_off,,,,,0,0,1,,,,0,72,0
397312,note_on,,,,,307,0,2,,,,1,58,50
397312,note_on,,,,,307,0,1,,,,0,70,79
397312,note_on,,,,,0,0,1,,,,0,73,79
397312,note_on,,,,,0,0,1,,,,0,76,79
398336,note_off,,,,,0,0,1,,,,0,73,0
398336,note_off,,,,,0,0,1,,,,0,76,0
398336,note_on,,,,,0,0,1,,,,0,67,81
398336,note_on,,,,,0,0,1,,,,0,76,81
398336,note_on,,,,,0,0,1,,,,0,73,81
398336,note_off,,,,,1024,0,1,,,,0,70,0
398336,note_on,,,,,0,0,2,,,,1,55,52
398336,note_off,,,,,1024,0,2,,,,1,58,0
398541,note_off,,,,,205,0,2,,,,1,55,0
398541,note_off,,,,,0,0,1,,,,0,73,0
398541,note_off,,,,,205,0,1,,,,0,67,0
398541,note_off,,,,,0,0,1,,,,0,76,0
398848,note_on,,,,,0,0,1,,,,0,73,82
398848,note_on,,,,,0,0,1,,,,0,76,82
398848,note_on,,,,,307,0,1,,,,0,67,82
398848,note_on,,,,,307,0,2,,,,1,55,53
399053,note_off,,,,,205,0,2,,,,1,55,0
399053,note_off,,,,,205,0,1,,,,0,67,0
399053,note_off,,,,,0,0,1,,,,0,73,0
399053,note_off,,,,,0,0,1,,,,0,76,0
399360,note_on,,,,,307,0,1,,,,0,68,83
399360,note_on,,,,,307,0,2,,,,1,56,54
399360,note_on,,,,,0,0,1,,,,0,77,83
399360,note_on,,,,,0,0,1,,,,0,72,83
400384,note_off,,,,,1024,0,2,,,,1,56,0
400384,note_off,,,,,0,0,1,,,,0,77,0
400384,note_off,,,,,1024,0,1,,,,0,68,0
400384,note_off,,,,,0,0,1,,,,0,72,0
400384,note_on,,,,,0,0,2,,,,1,53,55
400384,note_on,,,,,0,0,1,,,,0,65,84
400384,note_on,,,,,0,0,1,,,,0,72,84
400384,note_on,,,,,0,0,1,,,,0,77,84
400589,note_off,,,,,0,0,1,,,,0,77,0
400589,note_off,,,,,205,0,1,,,,0,65,0
400589,note_off,,,,,0,0,1,,,,0,72,0
400589,note_off,,,,,205,0,2,,,,1,53,0
400896,note_on,,,,,0,0,1,,,,0,72,85
400896,note_on,,,,,307,0,2,,,,1,53,56
400896,note_on,,,,,0,0,1,,,,0,77,85
400896,note_on,,,,,307,0,1,,,,0,65,85
401101,note_off,,,,,205,0,2,,,,1,53,0
401101,note_off,,,,,205,0,1,,,,0,65,0
401101,note_off,,,,,0,0,1,,,,0,72,0
401101,note_off,,,,,0,0,1,,,,0,77,0
401408,note_on,,,,,0,0,1,,,,0,72,86
401408,note_on,,,,,0,0,1,,,,0,79,86
401408,note_on,,,,,307,0,2,,,,1,52,57
401408,note_on,,,,,307,0,1,,,,0,67,86
402432,note_off,,,,,1024,0,1,,,,0,67,0
402432,note_off,,,,,0,0,1,,,,0,72,0
402432,note_on,,,,,0,0,1,,,,0,67,88
402432,note_on,,,,,0,0,1,,,,0,76,88
402432,note_on,,,,,0,0,1,,,,0,72,88
402432,note_off,,,,,0,0,1,,,,0,79,0
402432,note_on,,,,,0,0,2,,,,1,48,59
402432,note_off,,,,,1024,0,2,,,,1,52,0
402637,note_off,,,,,205,0,2,,,,1,48,0
402637,note_off,,,,,0,0,1,,,,0,76,0
402637,note_off,,,,,0,0,1,,,,0,72,0
402637,note_off,,,,,205,0,1,,,,0,67,0
402944,note_on,,,,,0,0,1,,,,0,72,89
402944,note_on,,,,,307,0,1,,,,0,67,89
402944,note_on,,,,,0,0,1,,,,0,76,89
402944,note_on,,,,,307,0,2,,,,1,48,60
403149,note_off,,,,,205,0,1,,,,0,67,0
403149,note_off,,,,,0,0,1,,,,0,76,0
403149,note_off,,,,,0,0,1,,,,0,72,0
403149,note_off,,,,,205,0,2,,,,1,48,0
403456,note_on,,,,,0,0,1,,,,0,80,90
403456,note_on,,,,,307,0,1,,,,0,68,90
403456,note_on,,,,,0,0,1,,,,0,72,90
403456,note_on,,,,,307,0,2,,,,1,53,61
404480,note_off,,,,,1024,0,2,,,,1,53,0
404480,note_on,,,,,0,0,1,,,,0,68,92
404480,note_on,,,,,0,0,2,,,,1,48,63
404480,note_on,,,,,0,0,1,,,,0,77,92
404480,note_off,,,,,1024,0,1,,,,0,68,0
404480,note_off,,,,,0,0,1,,,,0,72,0
404480,note_off,,,,,0,0,1,,,,0,80,0
404480,note_on,,,,,0,0,1,,,,0,72,92
404685,note_off,,,,,205,0,1,,,,0,68,0
404685,note_off,,,,,0,0,1,,,,0,72,0
404685,note_off,,,,,0,0,1,,,,0,77,0
404685,note_off,,,,,205,0,2,,,,1,48,0
404992,note_on,,,,,307,0,2,,,,1,48,64
404992,note_on,,,,,307,0,1,,,,0,68,93
404992,note_on,,,,,0,0,1,,,,0,72,93
404992,note_on,,,,,0,0,1,,,,0,77,93
405197,note_off,,,,,0,0,1,,,,0,72,0
405197,note_off,,,,,205,0,1,,,,0,68,0
405197,note_off,,,,,205,0,2,,,,1,48,0
405197,note_off,,,,,0,0,1,,,,0,77,0
405504,note_on,,,,,307,0,2,,,,1,55,65
405504,note_on,,,,,0,0,1,,,,0,82,94
405504,note_on,,,,,307,0,1,,,,0,72,94
406528,note_on,,,,,0,0,2,,,,1,48,67
406528,note_on,,,,,0,0,1,,,,0,72,95
406528,note_off,,,,,0,0,1,,,,0,82,0
406528,note_off,,,,,1024,0,1,,,,0,72,0
406528,note_off,,,,,1024,0,2,,,,1,55,0
406528,note_on,,,,,0,0,1,,,,0,84,95
406733,note_off,,,,,205,0,2,,,,1,48,0
406733,note_off,,,,,205,0,1,,,,0,72,0
406733,note_off,,,,,0,0,1,,,,0,84,0
407040,note_on,,,,,307,0,2,,,,1,48,68
407040,note_on,,,,,307,0,1,,,,0,72,96
407040,note_on,,,,,0,0,1,,,,0,84,96
407245,note_off,,,,,205,0,2,,,,1,48,0
407245,note_off,,,,,205,0,1,,,,0,72,0
407245,note_off,,,,,0,0,1,,,,0,84,0
407552,note_on,,,,,307,0,1,,,,0,72,97
407552,note_on,,,,,0,0,1,,,,0,83,97
407552,note_on,,,,,307,0,2,,,,1,56,69
408576,note_on,,,,,0,0,2,,,,1,48,71
408576,note_on,,,,,0,0,1,,,,0,72,99
408576,note_off,,,,,1024,0,1,,,,0,72,0
408576,note_on,,,,,0,0,1,,,,0,84,99
408576,note_off,,,,,0,0,1,,,,0,83,0
408576,note_off,,,,,1024,0,2,,,,1,56,0
408781,note_off,,,,,205,0,2,,,,1,48,0
408781,note_off,,,,,205,0,1,,,,0,72,0
408781,note_off,,,,,0,0,1,,,,0,84,0
409088,note_on,,,,,307,0,1,,,,0,72,100
409088,note_on,,,,,0,0,1,,,,0,84,100
409088,note_on,,,,,307,0,2,,,,1,48,72
409293,note_off,,,,,0,0,1,,,,0,84,0
409293,note_off,,,,,205,0,1,,,,0,72,0
409293,note_off,,,,,205,0,2,,,,1,48,0
409600,note_on,,,,,307,0,2,,,,1,44,88
409600,note_on,,,,,0,0,2,,,,1,56,88
409600,note_on,,,,,307,0,1,,,,0,72,101
409600,note_on,,,,,0,0,1,,,,0,84,101
410624,note_off,,,,,0,0,1,,,,0,84,0
410624,note_on,,,,,0,0,2,,,,1,54,88
410624,note_on,,,,,0,0,2,,,,1,42,88
410624,note_off,,,,,0,0,2,,,,1,56,0
410624,note_off,,,,,1024,0,2,,,,1,44,0
410624,note_on,,,,,0,0,1,,,,0,85,101
410624,note_on,,,,,0,0,1,,,,0,82,101
410624,note_on,,,,,0,0,1,,,,0,73,101
410624,note_off,,,,,1024,0,1,,,,0,72,0
411648,note_off,,,,,0,0,2,,,,1,54,0
411648,note_off,,,,,1024,0,2,,,,1,42,0
411648,note_on,,,,,0,0,2,,,,1,54,88
411648,note_off,,,,,1024,0,1,,,,0,73,0
411648,note_off,,,,,0,0,1,,,,0,82,0
411648,note_off,,,,,0,0,1,,,,0,85,0
411648,note_on,,,,,0,0,1,,,,0,73,101
411648,note_on,,,,,0,0,1,,,,0,82,101
411648,note_on,,,,,0,0,1,,,,0,85,101
411648,note_on,,,,,0,0,2,,,,1,42,88
412672,note_on,,,,,0,0,2,,,,1,54,88
412672,note_off,,,,,0,0,1,,,,0,85,0
412672,note_on,,,,,0,0,2,,,,1,42,88
412672,note_off,,,,,0,0,2,,,,1,54,0
412672,note_on,,,,,0,0,1,,,,0,73,101
412672,note_off,,,,,0,0,1,,,,0,82,0
412672,note_on,,,,,0,0,1,,,,0,85,101
412672,note_on,,,,,0,0,1,,,,0,82,101
412672,note_off,,,,,1024,0,2,,,,1,42,0
412672,note_off,,,,,1024,0,1,,,,0,73,0
413696,note_on,,,,,0,0,1,,,,0,85,101
413696,note_on,,,,,0,0,1,,,,0,82,101
413696,note_off,,,,,1024,0,2,,,,1,42,0
413696,note_on,,,,,0,0,2,,,,1,42,88
413696,note_on,,,,,0,0,2,,,,1,54,88
413696,note_off,,,,,1024,0,1,,,,0,73,0
413696,note_off,,,,,0,0,1,,,,0,82,0
413696,note_off,,,,,0,0,1,,,,0,85,0
413696,note_off,,,,,0,0,2,,,,1,54,0
413696,note_on,,,,,0,0,1,,,,0,70,101
414720,note_off,,,,,1024,0,1,,,,0,70,0
414720,note_off,,,,,1024,0,2,,,,1,42,0
414720,note_off,,,,,0,0,2,,,,1,54,0
414720,note_on,,,,,0,0,2,,,,1,46,88
414720,note_on,,,,,0,0,2,,,,1,58,88
414720,note_on,,,,,0,0,1,,,,0,90,101
414720,note_on,,,,,0,0,1,,,,0,85,101
414720,note_on,,,,,0,0,1,,,,0,78,101
414720,note_off,,,,,0,0,1,,,,0,82,0
414720,note_off,,,,,0,0,1,,,,0,85,0
415744,note_off,,,,,1024,0,2,,,,1,46,0
415744,note_off,,,,,0,0,2,,,,1,58,0
415744,note_on,,,,,0,0,2,,,,1,49,88
415744,note_off,,,,,0,0,1,,,,0,90,0
415744,note_on,,,,,0,0,1,,,,0,90,101
415744,note_on,,,,,0,0,1,,,,0,85,101
415744,note_on,,,,,0,0,1,,,,0,78,101
415744,note_on,,,,,0,0,2,,,,1,58,88
415744,note_off,,,,,0,0,1,,,,0,85,0
415744,note_off,,,,,1024,0,1,,,,0,78,0
415744,note_on,,,,,0,0,2,,,,1,61,88
416768,note_off,,,,,0,0,2,,,,1,58,0
416768,note_off,,,,,0,0,2,,,,1,61,0
416768,note_on,,,,,0,0,2,,,,1,49,88
416768,note_on,,,,,0,0,2,,,,1,58,88
416768,note_on,,,,,0,0,2,,,,1,61,88
416768,note_off,,,,,1024,0,2,,,,1,49,0
416768,note_off,,,,,0,0,1,,,,0,90,0
416768,note_on,,,,,0,0,1,,,,0,85,101
416768,note_on,,,,,0,0,1,,,,0,78,101
416768,note_off,,,,,0,0,1,,,,0,85,0
416768,note_off,,,,,1024,0,1,,,,0,78,0
416768,note_on,,,,,0,0,1,,,,0,90,101
417280,note_on,,,,,0,0,2,,,,1,58,88
417280,note_off,,,,,512,0,2,,,,1,49,0
417280,note_off,,,,,0,0,2,,,,1,58,0
417280,note_off,,,,,0,0,2,,,,1,61,0
417280,note_on,,,,,0,0,2,,,,1,49,88
417280,note_on,,,,,0,0,2,,,,1,61,88
417280,note_on,,,,,0,0,1,,,,0,90,101
417280,note_on,,,,,0,0,1,,,,0,85,101
417280,note_on,,,,,0,0,1,,,,0,78,101
417280,note_off,,,,,0,0,1,,,,0,90,0
417280,note_off,,,,,0,0,1,,,,0,85,0
417280,note_off,,,,,512,0,1,,,,0,78,0
417792,note_off,,,,,512,0,2,,,,1,49,0
417792,note_off,,,,,0,0,2,,,,1,58,0
417792,note_on,,,,,0,0,2,,,,1,61,110
417792,note_on,,,,,0,0,2,,,,1,59,110
417792,note_on,,,,,0,0,2,,,,1,49,110
417792,note_off,,,,,0,0,2,,,,1,61,0
417792,note_off,,,,,512,0,1,,,,0,78,0
417792,note_on,,,,,0,0,1,,,,0,80,126
417792,note_off,,,,,0,0,1,,,,0,85,0
417792,note_off,,,,,0,0,1,,,,0,90,0
417792,note_on,,,,,0,0,1,,,,0,92,126
417792,note_on,,,,,0,0,1,,,,0,89,126
418816,note_on,,,,,0,0,2,,,,1,61,88
418816,note_on,,,,,0,0,2,,,,1,59,88
418816,note_on,,,,,0,0,2,,,,1,49,88
418816,note_off,,,,,0,0,2,,,,1,61,0
418816,note_off,,,,,0,0,2,,,,1,59,0
418816,note_off,,,,,1024,0,2,,,,1,49,0
418816,note_off,,,,,1024,0,1,,,,0,80,0
418816,note_off,,,,,0,0,1,,,,0,89,0
418816,note_on,,,,,0,0,1,,,,0,80,101
418816,note_off,,,,,0,0,1,,,,0,92,0
418816,note_on,,,,,0,0,1,,,,0,89,101
418816,note_on,,,,,0,0,1,,,,0,92,101
419328,note_off,,,,,0,0,2,,,,1,61,0
419328,note_off,,,,,0,0,2,,,,1,59,0
419328,note_off,,,,,512,0,2,,,,1,49,0
419328,note_on,,,,,0,0,2,,,,1,61,88
419328,note_off,,,,,512,0,1,,,,0,80,0
419328,note_off,,,,,0,0,1,,,,0,89,0
419328,note_off,,,,,0,0,1,,,,0,92,0
419328,note_on,,,,,0,0,1,,,,0,80,101
419328,note_on,,,,,0,0,1,,,,0,89,101
419328,note_on,,,,,0,0,1,,,,0,92,101
419328,note_on,,,,,0,0,2,,,,1,49,88
419328,note_on,,,,,0,0,2,,,,1,59,88
419840,note_off,,,,,512,0,2,,,,1,49,0
419840,note_off,,,,,0,0,2,,,,1,59,0
419840,note_off,,,,,0,0,2,,,,1,61,0
419840,note_on,,,,,0,0,2,,,,1,54,88
419840,note_on,,,,,0,0,2,,,,1,58,88
419840,note_on,,,,,0,0,1,,,,0,90,101
419840,note_on,,,,,0,0,1,,,,0,78,101
419840,note_off,,,,,0,0,1,,,,0,92,0
419840,note_off,,,,,0,0,1,,,,0,89,0
419840,note_off,,,,,512,0,1,,,,0,80,0
419840,note_on,,,,,0,0,2,,,,1,61,88
420864,note_on,,,,,0,0,2,,,,1,37,110
420864,note_off,,,,,1024,0,2,,,,1,54,0
420864,note_off,,,,,1024,0,1,,,,0,78,0
420864,note_off,,,,,0,0,1,,,,0,90,0
420864,note_on,,,,,0,0,1,,,,0,71,126
420864,note_on,,,,,0,0,1,,,,0,77,126
420864,note_on,,,,,0,0,1,,,,0,80,126
420864,note_on,,,,,0,0,1,,,,0,83,126
420864,note_off,,,,,0,0,2,,,,1,58,0
420864,note_off,,,,,0,0,2,,,,1,61,0
420864,note_on,,,,,0,0,2,,,,1,49,110
421888,note_on,,,,,0,0,1,,,,0,77,126
421888,note_off,,,,,1024,0,1,,,,0,71,0
421888,note_on,,,,,0,0,1,,,,0,72,126
421888,note_off,,,,,1024,0,2,,,,1,37,0
421888,note_on,,,,,0,0,2,,,,1,48,110
421888,note_off,,,,,0,0,1,,,,0,77,0
421888,note_off,,,,,0,0,1,,,,0,80,0
421888,note_off,,,,,0,0,1,,,,0,83,0
421888,note_on,,,,,0,0,1,,,,0,84,126
421888,note_on,,,,,0,0,1,,,,0,80,126
421888,note_off,,,,,0,0,2,,,,1,49,0
421888,note_on,,,,,0,0,2,,,,1,36,110
422912,note_off,,,,,0,0,1,,,,0,80,0
422912,note_on,,,,,0,0,1,,,,0,84,126
422912,note_on,,,,,0,0,1,,,,0,72,126
422912,note_on,,,,,0,0,1,,,,0,76,126
422912,note_on,,,,,0,0,1,,,,0,79,126
422912,note_off,,,,,0,0,1,,,,0,84,0
422912,note_on,,,,,0,0,2,,,,1,36,110
422912,note_off,,,,,0,0,2,,,,1,48,0
422912,note_off,,,,,1024,0,2,,,,1,36,0
422912,note_off,,,,,0,0,1,,,,0,77,0
422912,note_on,,,,,0,0,2,,,,1,48,110
422912,note_off,,,,,1024,0,1,,,,0,72,0
423936,note_off,,,,,1024,0,1,,,,0,72,0
423936,note_off,,,,,0,0,1,,,,0,79,0
423936,note_off,,,,,0,0,1,,,,0,76,0
423936,note_on,,,,,0,0,2,,,,1,53,110
423936,note_on,,,,,0,0,2,,,,1,41,110
423936,note_off,,,,,0,0,2,,,,1,48,0
423936,note_off,,,,,1024,0,2,,,,1,36,0
423936,note_off,,,,,0,0,1,,,,0,84,0
423936,note_on,,,,,0,0,1,,,,0,65,126
423936,note_on,,,,,0,0,1,,,,0,77,126
424960,note_on,,,,,0,0,2,,,,1,53,49
424960,note_off,,,,,1024,0,1,,,,0,65,0
424960,note_off,,,,,0,0,1,,,,0,77,0
424960,note_on,,,,,0,0,1,,,,0,65,64
424960,note_off,,,,,0,0,2,,,,1,53,0
424960,note_off,,,,,1024,0,2,,,,1,41,0
425165,note_off,,,,,205,0,1,,,,0,65,0
425165,note_off,,,,,205,0,2,,,,1,53,0
425472,note_on,,,,,307,0,2,,,,1,55,49
425472,note_on,,,,,307,0,1,,,,0,67,64
425677,note_off,,,,,205,0,2,,,,1,55,0
425677,note_off,,,,,205,0,1,,,,0,67,0
425984,note_on,,,,,307,0,2,,,,1,57,49
425984,note_on,,,,,307,0,1,,,,0,69,64
427008,note_off,,,,,1024,0,2,,,,1,57,0
427008,note_off,,,,,1024,0,1,,,,0,69,0
427008,note_on,,,,,0,0,1,,,,0,70,64
427008,note_on,,,,,0,0,2,,,,1,58,49
427213,note_off,,,,,205,0,2,,,,1,58,0
427213,note_off,,,,,205,0,1,,,,0,70,0
427520,note_on,,,,,307,0,1,,,,0,72,64
427520,note_on,,,,,307,0,2,,,,1,60,49
427725,note_off,,,,,205,0,1,,,,0,72,0
427725,note_off,,,,,205,0,2,,,,1,60,0
428032,note_on,,,,,0,0,2,,,,1,60,49
428032,key_signature,,,,,157696,1,0,F,,,,,
428032,note_on,,,,,0,0,2,,,,1,57,49
428032,note_on,,,,,307,0,2,,,,1,48,49
428032,note_on,,,,,0,0,1,,,,0,74,64
428032,note_on,,,,,307,0,1,,,,0,72,64
429056,note_on,,,,,0,0,2,,,,1,48,49
429056,note_off,,,,,0,0,2,,,,1,60,0
429056,note_off,,,,,0,0,2,,,,1,57,0
429056,note_on,,,,,0,0,2,,,,1,60,49
429056,note_off,,,,,0,0,1,,,,0,74,0
429056,note_on,,,,,0,0,1,,,,0,70,64
429056,note_on,,,,,0,0,1,,,,0,76,64
429056,note_off,,,,,1024,0,1,,,,0,72,0
429056,note_on,,,,,0,0,2,,,,1,57,49
429056,note_off,,,,,1024,0,2,,,,1,48,0
429261,note_off,,,,,205,0,2,,,,1,48,0
429261,note_off,,,,,0,0,2,,,,1,57,0
429261,note_off,,,,,0,0,2,,,,1,60,0
429261,note_off,,,,,205,0,1,,,,0,70,0
429261,note_off,,,,,0,0,1,,,,0,76,0
429568,note_on,,,,,0,0,1,,,,0,76,64
429568,note_on,,,,,0,0,2,,,,1,60,49
429568,note_on,,,,,0,0,2,,,,1,57,49
429568,note_on,,,,,307,0,2,,,,1,48,49
429568,note_on,,,,,307,0,1,,,,0,70,64
429773,note_off,,,,,0,0,2,,,,1,60,0
429773,note_off,,,,,0,0,2,,,,1,57,0
429773,note_off,,,,,205,0,1,,,,0,70,0
429773,note_off,,,,,205,0,2,,,,1,48,0
429773,note_off,,,,,0,0,1,,,,0,76,0
430080,note_on,,,,,307,0,1,,,,0,70,64
430080,note_on,,,,,0,0,1,,,,0,76,64
430080,note_on,,,,,307,0,2,,,,1,48,49
430080,note_on,,,,,0,0,2,,,,1,55,49
430080,note_on,,,,,0,0,2,,,,1,60,49
431104,note_off,,,,,1024,0,1,,,,0,70,0
431104,note_off,,,,,0,0,1,,,,0,76,0
431104,note_on,,,,,0,0,1,,,,0,69,64
431104,note_off,,,,,1024,0,2,,,,1,48,0
431104,note_off,,,,,0,0,2,,,,1,55,0
431104,note_off,,,,,0,0,2,,,,1,60,0
431104,note_on,,,,,0,0,2,,,,1,48,49
431104,note_on,,,,,0,0,2,,,,1,53,49
431104,note_on,,,,,0,0,2,,,,1,60,49
431104,note_on,,,,,0,0,1,,,,0,77,64
431309,note_off,,,,,0,0,2,,,,1,53,0
431309,note_off,,,,,0,0,2,,,,1,60,0
431309,note_off,,,,,205,0,2,,,,1,48,0
431309,note_off,,,,,205,0,1,,,,0,69,0
431309,note_off,,,,,0,0,1,,,,0,77,0
431616,note_on,,,,,307,0,1,,,,0,69,64
431616,note_on,,,,,0,0,1,,,,0,77,64
431616,note_on,,,,,307,0,2,,,,1,48,49
431616,note_on,,,,,0,0,2,,,,1,60,49
431616,note_on,,,,,0,0,2,,,,1,53,49
431821,note_off,,,,,0,0,1,,,,0,77,0
431821,note_off,,,,,0,0,2,,,,1,53,0
431821,note_off,,,,,205,0,2,,,,1,48,0
431821,note_off,,,,,205,0,1,,,,0,69,0
431821,note_off,,,,,0,0,2,,,,1,60,0
432128,note_on,,,,,0,0,2,,,,1,50,49
432128,note_on,,,,,0,0,2,,,,1,60,49
432128,note_on,,,,,307,0,1,,,,0,69,64
432128,note_on,,,,,0,0,1,,,,0,72,64
432128,note_on,,,,,307,0,2,,,,1,48,49
433152,note_off,,,,,1024,0,1,,,,0,69,0
433152,note_off,,,,,0,0,1,,,,0,72,0
433152,note_on,,,,,0,0,1,,,,0,67,64
433152,note_on,,,,,0,0,1,,,,0,70,64
433152,note_on,,,,,0,0,2,,,,1,52,49
433152,note_on,,,,,0,0,2,,,,1,60,49
433152,note_off,,,,,0,0,2,,,,1,50,0
433152,note_off,,,,,0,0,2,,,,1,60,0
433152,note_on,,,,,0,0,2,,,,1,48,49
433152,note_off,,,,,1024,0,2,,,,1,48,0
433357,note_off,,,,,0,0,1,,,,0,70,0
433357,note_off,,,,,205,0,1,,,,0,67,0
433357,note_off,,,,,0,0,2,,,,1,60,0
433357,note_off,,,,,0,0,2,,,,1,52,0
433357,note_off,,,,,205,0,2,,,,1,48,0
433664,note_on,,,,,307,0,1,,,,0,67,64
433664,note_on,,,,,0,0,2,,,,1,60,49
433664,note_on,,,,,0,0,2,,,,1,52,49
433664,note_on,,,,,307,0,2,,,,1,48,49
433664,note_on,,,,,0,0,1,,,,0,70,64
433869,note_off,,,,,205,0,1,,,,0,67,0
433869,note_off,,,,,0,0,2,,,,1,60,0
433869,note_off,,,,,205,0,2,,,,1,48,0
433869,note_off,,,,,0,0,1,,,,0,70,0
433869,note_off,,,,,0,0,2,,,,1,52,0
434176,note_on,,,,,0,0,1,,,,0,81,101
434176,note_on,,,,,0,0,1,,,,0,72,101
434176,note_on,,,,,307,0,2,,,,1,41,101
434176,note_on,,,,,0,0,2,,,,1,53,101
434176,note_on,,,,,307,0,1,,,,0,69,101
435200,note_off,,,,,0,0,1,,,,0,72,0
435200,note_off,,,,,1024,0,1,,,,0,69,0
435200,note_off,,,,,0,0,1,,,,0,81,0
435200,note_on,,,,,0,0,1,,,,0,69,101
435200,note_on,,,,,0,0,1,,,,0,72,101
435200,note_on,,,,,0,0,1,,,,0,77,101
435200,note_off,,,,,0,0,2,,,,1,53,0
435200,note_off,,,,,1024,0,2,,,,1,41,0
435200,note_on,,,,,0,0,2,,,,1,53,101
435200,note_on,,,,,0,0,2,,,,1,60,101
436224,note_on,,,,,0,0,2,,,,1,60,49
436224,note_off,,,,,1024,0,2,,,,1,53,0
436224,note_off,,,,,0,0,2,,,,1,60,0
436224,note_on,,,,,0,0,2,,,,1,57,49
436224,note_on,,,,,0,0,2,,,,1,48,49
436224,note_off,,,,,0,0,1,,,,0,72,0
436224,note_off,,,,,0,0,1,,,,0,77,0
436224,note_on,,,,,0,0,1,,,,0,72,64
436224,note_off,,,,,1024,0,1,,,,0,69,0
437248,note_off,,,,,1024,0,1,,,,0,72,0
437248,note_on,,,,,0,0,1,,,,0,74,64
437248,note_on,,,,,0,0,1,,,,0,72,64
437248,note_off,,,,,1024,0,2,,,,1,48,0
437248,note_off,,,,,0,0,2,,,,1,57,0
437248,note_on,,,,,0,0,2,,,,1,60,49
437248,note_on,,,,,0,0,2,,,,1,57,49
437248,note_on,,,,,0,0,2,,,,1,48,49
437248,note_off,,,,,0,0,2,,,,1,60,0
437453,note_off,,,,,205,0,2,,,,1,48,0
437453,note_off,,,,,0,0,2,,,,1,60,0
437453,note_off,,,,,0,0,1,,,,0,74,0
437453,note_off,,,,,0,0,2,,,,1,57,0
437453,note_off,,,,,205,0,1,,,,0,72,0
437760,note_on,,,,,0,0,2,,,,1,60,49
437760,note_on,,,,,307,0,1,,,,0,72,64
437760,note_on,,,,,0,0,1,,,,0,74,64
437760,note_on,,,,,307,0,2,,,,1,48,49
437760,note_on,,,,,0,0,2,,,,1,57,49
437965,note_off,,,,,205,0,1,,,,0,72,0
437965,note_off,,,,,0,0,1,,,,0,74,0
437965,note_off,,,,,0,0,2,,,,1,60,0
437965,note_off,,,,,0,0,2,,,,1,57,0
437965,note_off,,,,,205,0,2,,,,1,48,0
438272,note_on,,,,,0,0,1,,,,0,76,64
438272,note_on,,,,,307,0,2,,,,1,48,49
438272,note_on,,,,,0,0,2,,,,1,55,49
438272,note_on,,,,,0,0,2,,,,1,60,49
438272,note_on,,,,,307,0,1,,,,0,70,64
439296,note_off,,,,,0,0,1,,,,0,76,0
439296,note_off,,,,,1024,0,2,,,,1,48,0
439296,note_off,,,,,0,0,2,,,,1,55,0
439296,note_off,,,,,0,0,2,,,,1,60,0
439296,note_on,,,,,0,0,2,,,,1,53,49
439296,note_off,,,,,1024,0,1,,,,0,70,0
439296,note_on,,,,,0,0,2,,,,1,60,49
439296,note_on,,,,,0,0,1,,,,0,77,64
439296,note_on,,,,,0,0,1,,,,0,69,64
439296,note_on,,,,,0,0,2,,,,1,48,49
439501,note_off,,,,,0,0,2,,,,1,53,0
439501,note_off,,,,,0,0,2,,,,1,60,0
439501,note_off,,,,,0,0,1,,,,0,77,0
439501,note_off,,,,,205,0,1,,,,0,69,0
439501,note_off,,,,,205,0,2,,,,1,48,0
439808,note_on,,,,,0,0,1,,,,0,77,64
439808,note_on,,,,,307,0,1,,,,0,69,64
439808,note_on,,,,,0,0,2,,,,1,60,49
439808,note_on,,,,,0,0,2,,,,1,53,49
439808,note_on,,,,,307,0,2,,,,1,48,49
440013,note_off,,,,,0,0,2,,,,1,60,0
440013,note_off,,,,,0,0,2,,,,1,53,0
440013,note_off,,,,,205,0,2,,,,1,48,0
440013,note_off,,,,,205,0,1,,,,0,69,0
440013,note_off,,,,,0,0,1,,,,0,77,0
440320,note_on,,,,,0,0,2,,,,1,50,49
440320,note_on,,,,,307,0,2,,,,1,48,49
440320,note_on,,,,,307,0,1,,,,0,69,64
440320,note_on,,,,,0,0,1,,,,0,72,64
440320,note_on,,,,,0,0,2,,,,1,60,49
441344,note_off,,,,,1024,0,2,,,,1,48,0
441344,note_off,,,,,0,0,1,,,,0,72,0
441344,note_off,,,,,0,0,2,,,,1,60,0
441344,note_on,,,,,0,0,2,,,,1,52,49
441344,note_on,,,,,0,0,2,,,,1,60,49
441344,note_off,,,,,1024,0,1,,,,0,69,0
441344,note_on,,,,,0,0,1,,,,0,70,64
441344,note_off,,,,,0,0,2,,,,1,50,0
441344,note_on,,,,,0,0,2,,,,1,48,49
441344,note_on,,,,,0,0,1,,,,0,67,64
441549,note_off,,,,,205,0,1,,,,0,67,0
441549,note_off,,,,,0,0,1,,,,0,70,0
441549,note_off,,,,,0,0,2,,,,1,60,0
441549,note_off,,,,,0,0,2,,,,1,52,0
441549,note_off,,,,,205,0,2,,,,1,48,0
441856,note_on,,,,,0,0,2,,,,1,60,49
441856,note_on,,,,,0,0,1,,,,0,70,64
441856,note_on,,,,,307,0,1,,,,0,67,64
441856,note_on,,,,,0,0,2,,,,1,52,49
441856,note_on,,,,,307,0,2,,,,1,48,49
442061,note_off,,,,,205,0,2,,,,1,48,0
442061,note_off,,,,,0,0,1,,,,0,70,0
442061,note_off,,,,,205,0,1,,,,0,67,0
442061,note_off,,,,,0,0,2,,,,1,52,0
442061,note_off,,,,,0,0,2,,,,1,60,0
442368,note_on,,,,,0,0,1,,,,0,81,101
442368,note_on,,,,,307,0,2,,,,1,41,101
442368,note_on,,,,,0,0,2,,,,1,53,101
442368,note_on,,,,,0,0,1,,,,0,72,101
442368,note_on,,,,,307,0,1,,,,0,69,101
443392,note_off,,,,,0,0,2,,,,1,53,0
443392,note_off,,,,,1024,0,1,,,,0,69,0
443392,note_off,,,,,0,0,1,,,,0,72,0
443392,note_on,,,,,0,0,1,,,,0,77,101
443392,note_on,,,,,0,0,2,,,,1,60,101
443392,note_off,,,,,0,0,1,,,,0,81,0
443392,note_on,,,,,0,0,2,,,,1,53,101
443392,note_off,,,,,1024,0,2,,,,1,41,0
443392,note_on,,,,,0,0,1,,,,0,69,101
443392,note_on,,,,,0,0,1,,,,0,72,101
444416,note_off,,,,,0,0,1,,,,0,77,0
444416,note_off,,,,,0,0,1,,,,0,72,0
444416,note_off,,,,,1024,0,1,,,,0,69,0
444416,note_on,,,,,0,0,2,,,,1,50,49
444416,note_on,,,,,0,0,2,,,,1,60,49
444416,note_off,,,,,1024,0,2,,,,1,53,0
444416,note_off,,,,,0,0,2,,,,1,60,0
444416,note_on,,,,,0,0,2,,,,1,48,49
444416,note_on,,,,,0,0,1,,,,0,69,64
444416,note_on,,,,,0,0,1,,,,0,72,64
445440,note_off,,,,,1024,0,2,,,,1,48,0
445440,note_on,,,,,0,0,2,,,,1,60,49
445440,note_off,,,,,0,0,1,,,,0,72,0
445440,note_on,,,,,0,0,1,,,,0,67,64
445440,note_on,,,,,0,0,2,,,,1,52,49
445440,note_off,,,,,0,0,2,,,,1,50,0
445440,note_off,,,,,0,0,2,,,,1,60,0
445440,note_on,,,,,0,0,2,,,,1,48,49
445440,note_off,,,,,1024,0,1,,,,0,69,0
445440,note_on,,,,,0,0,1,,,,0,70,64
445645,note_off,,,,,205,0,1,,,,0,67,0
445645,note_off,,,,,0,0,1,,,,0,70,0
445645,note_off,,,,,0,0,2,,,,1,60,0
445645,note_off,,,,,0,0,2,,,,1,52,0
445645,note_off,,,,,205,0,2,,,,1,48,0
445952,note_on,,,,,307,0,1,,,,0,67,64
445952,note_on,,,,,0,0,2,,,,1,60,49
445952,note_on,,,,,0,0,2,,,,1,52,49
445952,note_on,,,,,307,0,2,,,,1,48,49
445952,note_on,,,,,0,0,1,,,,0,70,64
446157,note_off,,,,,205,0,1,,,,0,67,0
446157,note_off,,,,,0,0,1,,,,0,70,0
446157,note_off,,,,,0,0,2,,,,1,60,0
446157,note_off,,,,,205,0,2,,,,1,48,0
446157,note_off,,,,,0,0,2,,,,1,52,0
446464,note_on,,,,,307,0,2,,,,1,41,101
446464,note_on,,,,,0,0,2,,,,1,53,101
446464,note_on,,,,,0,0,1,,,,0,81,101
446464,note_on,,,,,0,0,1,,,,0,72,101
446464,note_on,,,,,307,0,1,,,,0,69,101
447488,note_on,,,,,0,0,1,,,,0,77,101
447488,note_on,,,,,0,0,1,,,,0,72,101
447488,note_off,,,,,0,0,1,,,,0,81,0
447488,note_off,,,,,0,0,1,,,,0,72,0
447488,note_off,,,,,1024,0,1,,,,0,69,0
447488,note_on,,,,,0,0,1,,,,0,69,101
447488,note_off,,,,,1024,0,2,,,,1,41,0
447488,note_off,,,,,0,0,2,,,,1,53,0
447488,note_on,,,,,0,0,2,,,,1,53,101
447488,note_on,,,,,0,0,2,,,,1,60,101
448512,note_on,,,,,0,0,1,,,,0,69,64
448512,note_off,,,,,1024,0,2,,,,1,53,0
448512,note_off,,,,,0,0,2,,,,1,60,0
448512,note_off,,,,,1024,0,1,,,,0,69,0
448512,note_off,,,,,0,0,1,,,,0,72,0
448512,note_off,,,,,0,0,1,,,,0,77,0
448512,note_on,,,,,0,0,2,,,,1,60,49
448512,note_on,,,,,0,0,2,,,,1,48,49
448512,note_on,,,,,0,0,2,,,,1,50,49
448512,note_on,,,,,0,0,1,,,,0,72,64
449536,note_on,,,,,0,0,2,,,,1,52,49
449536,note_on,,,,,0,0,2,,,,1,60,49
449536,note_off,,,,,1024,0,2,,,,1,48,0
449536,note_on,,,,,0,0,1,,,,0,70,64
449536,note_off,,,,,0,0,2,,,,1,60,0
449536,note_off,,,,,0,0,2,,,,1,50,0
449536,note_on,,,,,0,0,1,,,,0,67,64
449536,note_off,,,,,0,0,1,,,,0,72,0
449536,note_on,,,,,0,0,2,,,,1,48,49
449536,note_off,,,,,1024,0,1,,,,0,69,0
449741,note_off,,,,,0,0,2,,,,1,60,0
449741,note_off,,,,,0,0,2,,,,1,52,0
449741,note_off,,,,,205,0,2,,,,1,48,0
449741,note_off,,,,,0,0,1,,,,0,70,0
449741,note_off,,,,,205,0,1,,,,0,67,0
450048,note_on,,,,,0,0,1,,,,0,70,64
450048,note_on,,,,,307,0,1,,,,0,67,64
450048,note_on,,,,,307,0,2,,,,1,48,49
450048,note_on,,,,,0,0,2,,,,1,52,49
450048,note_on,,,,,0,0,2,,,,1,60,49
450253,note_off,,,,,0,0,2,,,,1,60,0
450253,note_off,,,,,205,0,2,,,,1,48,0
450253,note_off,,,,,0,0,2,,,,1,52,0
450253,note_off,,,,,0,0,1,,,,0,70,0
450253,note_off,,,,,205,0,1,,,,0,67,0
450560,note_on,,,,,307,0,2,,,,1,41,114
450560,note_on,,,,,0,0,2,,,,1,53,114
450560,set_tempo,,,,,0,1,0,,428571,,,,
450560,set_tempo,,,,,22528,1,0,,428571,,,,
450560,note_on,,,,,307,0,1,,,,0,77,114
450560,note_on,,,,,0,0,1,,,,0,81,114
450560,note_on,,,,,0,0,1,,,,0,84,114
450560,note_on,,,,,0,0,1,,,,0,89,114
451584,note_on,,,,,0,0,2,,,,1,53,127
451584,note_off,,,,,1024,0,2,,,,1,41,0
451584,note_off,,,,,1024,0,1,,,,0,77,0
451584,note_off,,,,,0,0,1,,,,0,81,0
451584,note_off,,,,,0,0,1,,,,0,84,0
451584,note_off,,,,,0,0,1,,,,0,89,0
451584,note_on,,,,,0,0,1,,,,0,65,127
451584,note_off,,,,,0,0,2,,,,1,53,0
451584,note_on,,,,,0,0,1,,,,0,77,127
452608,note_off,,,,,0,0,1,,,,0,77,0
452608,note_off,,,,,1024,0,2,,,,1,53,0
452608,note_off,,,,,1024,0,1,,,,0,65,0
452609,end_of_track,,,,,1,1,1,,,,,,
452609,end_of_track,,,,,2049,1,0,,,,,,
452609,end_of_track,,,,,1,1,2,,,,,,
