tick,type,time,meta,track,frame_rate,hours,minutes,seconds,frames,sub_frames,numerator,denominator,clocks_per_click,notated_32nd_notes_per_beat,key,tempo,port,program,channel,control,value,note,velocity
0,track_name,0,1,0,,,,,,,,,,,,,,,,,,,
0,program_change,0,0,1,,,,,,,,,,,,,,0,0,,,,
0,control_change,0,0,1,,,,,,,,,,,,,,,0,7,100,,
0,control_change,0,0,1,,,,,,,,,,,,,,,0,91,127,,
0,text,0,1,1,,,,,,,,,,,,,,,,,,,
0,track_name,0,1,7,,,,,,,,,,,,,,,,,,,
0,midi_port,0,1,2,,,,,,,,,,,,,0,,,,,,
0,track_name,0,1,2,,,,,,,,,,,,,,,,,,,
0,program_change,0,0,2,,,,,,,,,,,,,,0,0,,,,
0,control_change,0,0,2,,,,,,,,,,,,,,,0,7,100,,
0,control_change,0,0,2,,,,,,,,,,,,,,,0,64,0,,
0,midi_port,0,1,3,,,,,,,,,,,,,0,,,,,,
0,track_name,0,1,3,,,,,,,,,,,,,,,,,,,
0,end_of_track,0,1,3,,,,,,,,,,,,,,,,,,,
0,midi_port,0,1,4,,,,,,,,,,,,,0,,,,,,
0,track_name,0,1,4,,,,,,,,,,,,,,,,,,,
0,end_of_track,0,1,4,,,,,,,,,,,,,,,,,,,
0,midi_port,0,1,5,,,,,,,,,,,,,0,,,,,,
0,track_name,0,1,5,,,,,,,,,,,,,,,,,,,
0,end_of_track,0,1,5,,,,,,,,,,,,,,,,,,,
0,midi_port,0,1,6,,,,,,,,,,,,,0,,,,,,
0,track_name,0,1,6,,,,,,,,,,,,,,,,,,,
0,end_of_track,0,1,6,,,,,,,,,,,,,,,,,,,
0,midi_port,0,1,7,,,,,,,,,,,,,0,,,,,,
0,track_name,0,1,1,,,,,,,,,,,,,,,,,,,
0,midi_port,0,1,1,,,,,,,,,,,,,0,,,,,,
0,end_of_track,0,1,7,,,,,,,,,,,,,,,,,,,
0,track_name,0,1,0,,,,,,,,,,,,,,,,,,,
0,marker,0,1,0,,,,,,,,,,,,,,,,,,,
0,key_signature,0,1,0,,,,,,,,,,,Ab,,,,,,,,
0,time_signature,0,1,0,,,,,,,3,4,24,8,,,,,,,,,
0,smpte_offset,0,1,0,25,32,0,3,0,0,,,,,,,,,,,,,
0,text,0,1,0,,,,,,,,,,,,,,,,,,,
0,set_tempo,0,1,0,,,,,,,,,,,,465188,,,,,,,
0,text,0,1,0,,,,,,,,,,,,,,,,,,,
0,text,0,1,0,,,,,,,,,,,,,,,,,,,
0,text,0,1,0,,,,,,,,,,,,,,,,,,,
0,text,0,1,0,,,,,,,,,,,,,,,,,,,
0,copyright,0,1,0,,,,,,,,,,,,,,,,,,,
0,text,0,1,0,,,,,,,,,,,,,,,,,,,
960,set_tempo,960,1,0,,,,,,,,,,,,550459,,,,,,,
960,note_on,960,0,1,,,,,,,,,,,,,,,0,,,72,57
960,control_change,0,0,1,,,,,,,,,,,,,,,0,91,127,,
960,note_on,0,0,1,,,,,,,,,,,,,,,0,,,63,51
960,note_on,0,0,1,,,,,,,,,,,,,,,0,,,68,51
960,control_change,960,0,2,,,,,,,,,,,,,,,0,91,127,,
960,note_on,0,0,2,,,,,,,,,,,,,,,0,,,56,45
1440,note_on,480,0,2,,,,,,,,,,,,,,,0,,,56,0
1440,set_tempo,480,1,0,,,,,,,,,,,,465188,,,,,,,
1440,note_on,0,0,2,,,,,,,,,,,,,,,0,,,61,47
1440,note_on,0,0,1,,,,,,,,,,,,,,,0,,,68,53
1440,note_on,0,0,1,,,,,,,,,,,,,,,0,,,65,53
1440,note_on,0,0,1,,,,,,,,,,,,,,,0,,,72,0
1440,note_on,0,0,1,,,,,,,,,,,,,,,0,,,72,59
1440,note_on,0,0,1,,,,,,,,,,,,,,,0,,,63,0
1440,note_on,480,0,1,,,,,,,,,,,,,,,0,,,68,0
1680,control_change,240,0,2,,,,,,,,,,,,,,,0,64,127,,
2880,note_on,1440,0,1,,,,,,,,,,,,,,,0,,,72,0
2880,note_on,0,0,1,,,,,,,,,,,,,,,0,,,70,56
2880,control_change,1200,0,2,,,,,,,,,,,,,,,0,64,0,,
3360,note_on,480,0,1,,,,,,,,,,,,,,,0,,,70,0
3360,note_on,0,0,1,,,,,,,,,,,,,,,0,,,68,0
3360,note_on,0,0,1,,,,,,,,,,,,,,,0,,,65,0
3360,note_on,480,0,2,,,,,,,,,,,,,,,0,,,61,0
3840,note_on,480,0,2,,,,,,,,,,,,,,,0,,,65,50
3840,note_on,0,0,2,,,,,,,,,,,,,,,0,,,61,45
3840,note_on,0,0,1,,,,,,,,,,,,,,,0,,,70,56
3840,note_on,0,0,1,,,,,,,,,,,,,,,0,,,67,56
3840,note_on,480,0,1,,,,,,,,,,,,,,,0,,,77,63
3840,set_tempo,2400,1,0,,,,,,,,,,,,548697,,,,,,,
4320,note_on,0,0,1,,,,,,,,,,,,,,,0,,,77,65
4320,note_on,0,0,1,,,,,,,,,,,,,,,0,,,72,58
4320,note_on,0,0,1,,,,,,,,,,,,,,,0,,,68,58
4320,set_tempo,480,1,0,,,,,,,,,,,,465188,,,,,,,
4320,note_on,480,0,2,,,,,,,,,,,,,,,0,,,61,0
4320,note_on,0,0,2,,,,,,,,,,,,,,,0,,,60,45
4320,note_on,480,0,1,,,,,,,,,,,,,,,0,,,70,0
4320,note_on,0,0,2,,,,,,,,,,,,,,,0,,,65,0
4320,note_on,0,0,1,,,,,,,,,,,,,,,0,,,77,0
4320,note_on,0,0,1,,,,,,,,,,,,,,,0,,,67,0
4320,note_on,0,0,2,,,,,,,,,,,,,,,0,,,65,51
4640,control_change,320,0,2,,,,,,,,,,,,,,,0,64,127,,
5573,control_change,933,0,2,,,,,,,,,,,,,,,0,64,0,,
5760,note_on,0,0,2,,,,,,,,,,,,,,,0,,,63,48
5760,note_on,1440,0,1,,,,,,,,,,,,,,,0,,,77,0
5760,note_on,0,0,1,,,,,,,,,,,,,,,0,,,75,60
5760,note_on,187,0,2,,,,,,,,,,,,,,,0,,,65,0
6240,note_on,480,0,2,,,,,,,,,,,,,,,0,,,63,0
6240,note_on,0,0,2,,,,,,,,,,,,,,,0,,,60,0
6240,note_on,480,0,1,,,,,,,,,,,,,,,0,,,75,0
6240,note_on,0,0,1,,,,,,,,,,,,,,,0,,,68,0
6240,note_on,0,0,1,,,,,,,,,,,,,,,0,,,72,0
6368,control_change,128,0,2,,,,,,,,,,,,,,,0,64,127,,
6480,note_on,0,0,1,,,,,,,,,,,,,,,0,,,63,54
6480,note_on,240,0,1,,,,,,,,,,,,,,,0,,,60,48
6480,set_tempo,2160,1,0,,,,,,,,,,,,401687,,,,,,,
6480,note_on,112,0,2,,,,,,,,,,,,,,,0,,,56,42
6720,note_on,240,0,2,,,,,,,,,,,,,,,0,,,56,0
6720,note_on,240,0,1,,,,,,,,,,,,,,,0,,,63,0
6720,note_on,0,0,1,,,,,,,,,,,,,,,0,,,68,56
6720,note_on,0,0,2,,,,,,,,,,,,,,,0,,,51,44
6960,note_on,0,0,2,,,,,,,,,,,,,,,0,,,48,45
6960,note_on,240,0,1,,,,,,,,,,,,,,,0,,,68,0
6960,note_on,0,0,1,,,,,,,,,,,,,,,0,,,72,58
6960,note_on,240,0,2,,,,,,,,,,,,,,,0,,,51,0
7088,control_change,128,0,2,,,,,,,,,,,,,,,0,64,0,,
7200,note_on,0,0,1,,,,,,,,,,,,,,,0,,,67,54
7200,set_tempo,720,1,0,,,,,,,,,,,,446097,,,,,,,
7200,note_on,112,0,2,,,,,,,,,,,,,,,0,,,48,0
7200,note_on,0,0,2,,,,,,,,,,,,,,,0,,,46,42
7200,note_on,0,0,2,,,,,,,,,,,,,,,0,,,55,47
7200,note_on,0,0,2,,,,,,,,,,,,,,,0,,,51,42
7200,note_on,240,0,1,,,,,,,,,,,,,,,0,,,72,0
7200,note_on,0,0,1,,,,,,,,,,,,,,,0,,,60,0
7200,note_on,0,0,1,,,,,,,,,,,,,,,0,,,63,54
7200,note_on,0,0,1,,,,,,,,,,,,,,,0,,,61,54
7200,note_on,0,0,1,,,,,,,,,,,,,,,0,,,73,60
8160,note_on,0,0,2,,,,,,,,,,,,,,,0,,,55,0
8160,note_on,0,0,2,,,,,,,,,,,,,,,0,,,44,45
8160,note_on,960,0,2,,,,,,,,,,,,,,,0,,,51,0
8160,note_on,0,0,2,,,,,,,,,,,,,,,0,,,46,0
8160,note_on,0,0,2,,,,,,,,,,,,,,,0,,,56,51
8160,note_on,0,0,2,,,,,,,,,,,,,,,0,,,51,45
8160,note_on,960,0,1,,,,,,,,,,,,,,,0,,,63,0
8160,note_on,0,0,1,,,,,,,,,,,,,,,0,,,67,0
8160,note_on,0,0,1,,,,,,,,,,,,,,,0,,,73,0
8160,note_on,0,0,1,,,,,,,,,,,,,,,0,,,61,0
8160,note_on,0,0,1,,,,,,,,,,,,,,,0,,,60,56
8160,note_on,0,0,1,,,,,,,,,,,,,,,0,,,72,63
8160,note_on,0,0,1,,,,,,,,,,,,,,,0,,,68,56
8160,note_on,0,0,1,,,,,,,,,,,,,,,0,,,63,56
8160,set_tempo,960,1,0,,,,,,,,,,,,521739,,,,,,,
8640,note_on,0,0,2,,,,,,,,,,,,,,,0,,,43,46
8640,note_on,480,0,2,,,,,,,,,,,,,,,0,,,51,0
8640,note_on,0,0,2,,,,,,,,,,,,,,,0,,,44,0
8640,note_on,0,0,2,,,,,,,,,,,,,,,0,,,56,0
8640,note_on,0,0,2,,,,,,,,,,,,,,,0,,,51,46
8640,note_on,0,0,2,,,,,,,,,,,,,,,0,,,55,52
8640,set_tempo,480,1,0,,,,,,,,,,,,434468,,,,,,,
8640,note_on,0,0,1,,,,,,,,,,,,,,,0,,,70,64
8640,note_on,0,0,1,,,,,,,,,,,,,,,0,,,63,57
8640,note_on,480,0,1,,,,,,,,,,,,,,,0,,,63,0
8640,note_on,0,0,1,,,,,,,,,,,,,,,0,,,60,0
8640,note_on,0,0,1,,,,,,,,,,,,,,,0,,,72,0
8640,note_on,0,0,1,,,,,,,,,,,,,,,0,,,68,0
8640,note_on,0,0,1,,,,,,,,,,,,,,,0,,,58,57
9600,set_tempo,960,1,0,,,,,,,,,,,,568720,,,,,,,
9600,note_on,0,0,2,,,,,,,,,,,,,,,0,,,53,54
9600,note_on,0,0,2,,,,,,,,,,,,,,,0,,,46,48
9600,note_on,0,0,2,,,,,,,,,,,,,,,0,,,41,48
9600,note_on,0,0,2,,,,,,,,,,,,,,,0,,,43,0
9600,note_on,0,0,2,,,,,,,,,,,,,,,0,,,51,0
9600,note_on,960,0,2,,,,,,,,,,,,,,,0,,,55,0
9600,note_on,0,0,1,,,,,,,,,,,,,,,0,,,70,0
9600,note_on,960,0,1,,,,,,,,,,,,,,,0,,,63,0
9600,note_on,0,0,1,,,,,,,,,,,,,,,0,,,68,60
9600,note_on,0,0,1,,,,,,,,,,,,,,,0,,,58,0
9600,note_on,0,0,1,,,,,,,,,,,,,,,0,,,62,60
9600,note_on,0,0,1,,,,,,,,,,,,,,,0,,,74,67
9600,note_on,0,0,1,,,,,,,,,,,,,,,0,,,70,60
10080,note_on,0,0,2,,,,,,,,,,,,,,,0,,,51,57
10080,note_on,0,0,2,,,,,,,,,,,,,,,0,,,46,51
10080,note_on,0,0,2,,,,,,,,,,,,,,,0,,,41,0
10080,note_on,0,0,2,,,,,,,,,,,,,,,0,,,46,0
10080,note_on,480,0,2,,,,,,,,,,,,,,,0,,,53,0
10080,note_on,0,0,1,,,,,,,,,,,,,,,0,,,62,63
10080,note_on,0,0,1,,,,,,,,,,,,,,,0,,,68,63
10080,note_on,0,0,1,,,,,,,,,,,,,,,0,,,62,0
10080,note_on,0,0,1,,,,,,,,,,,,,,,0,,,70,0
10080,note_on,0,0,2,,,,,,,,,,,,,,,0,,,39,51
10080,note_on,0,0,1,,,,,,,,,,,,,,,0,,,68,0
10080,note_on,480,0,1,,,,,,,,,,,,,,,0,,,74,0
10080,set_tempo,480,1,0,,,,,,,,,,,,506885,,,,,,,
10080,note_on,0,0,1,,,,,,,,,,,,,,,0,,,70,63
10080,note_on,0,0,1,,,,,,,,,,,,,,,0,,,74,70
10120,control_change,40,0,2,,,,,,,,,,,,,,,0,64,127,,
11520,set_tempo,1440,1,0,,,,,,,,,,,,465188,,,,,,,
11520,note_on,0,0,1,,,,,,,,,,,,,,,0,,,63,45
11520,note_on,0,0,1,,,,,,,,,,,,,,,0,,,67,45
11520,note_on,0,0,1,,,,,,,,,,,,,,,0,,,75,51
11520,note_on,0,0,1,,,,,,,,,,,,,,,0,,,68,0
11520,note_on,0,0,1,,,,,,,,,,,,,,,0,,,62,0
11520,note_on,1440,0,1,,,,,,,,,,,,,,,0,,,74,0
11520,control_change,1400,0,2,,,,,,,,,,,,,,,0,64,0,,
12000,note_on,0,0,2,,,,,,,,,,,,,,,0,,,46,0
12000,note_on,0,0,2,,,,,,,,,,,,,,,0,,,51,0
12000,note_on,480,0,2,,,,,,,,,,,,,,,0,,,39,0
12000,note_on,0,0,1,,,,,,,,,,,,,,,0,,,70,0
12000,note_on,480,0,1,,,,,,,,,,,,,,,0,,,63,0
12000,note_on,0,0,1,,,,,,,,,,,,,,,0,,,75,0
12000,note_on,0,0,1,,,,,,,,,,,,,,,0,,,67,0
12480,set_tempo,960,1,0,,,,,,,,,,,,548697,,,,,,,
12480,note_on,480,0,2,,,,,,,,,,,,,,,0,,,56,42
12480,note_on,0,0,1,,,,,,,,,,,,,,,0,,,63,47
12480,note_on,0,0,1,,,,,,,,,,,,,,,0,,,68,47
12480,note_on,480,0,1,,,,,,,,,,,,,,,0,,,72,53
12960,note_on,0,0,1,,,,,,,,,,,,,,,0,,,68,52
12960,set_tempo,480,1,0,,,,,,,,,,,,465188,,,,,,,
12960,note_on,0,0,2,,,,,,,,,,,,,,,0,,,61,46
12960,note_on,480,0,2,,,,,,,,,,,,,,,0,,,56,0
12960,note_on,480,0,1,,,,,,,,,,,,,,,0,,,63,0
12960,note_on,0,0,1,,,,,,,,,,,,,,,0,,,68,0
12960,note_on,0,0,1,,,,,,,,,,,,,,,0,,,72,0
12960,note_on,0,0,1,,,,,,,,,,,,,,,0,,,72,58
12960,note_on,0,0,1,,,,,,,,,,,,,,,0,,,65,52
13173,control_change,213,0,2,,,,,,,,,,,,,,,0,64,127,,
14400,note_on,0,0,1,,,,,,,,,,,,,,,0,,,70,50
14400,control_change,1227,0,2,,,,,,,,,,,,,,,0,64,0,,
14400,note_on,1440,0,1,,,,,,,,,,,,,,,0,,,72,0
14880,note_on,480,0,1,,,,,,,,,,,,,,,0,,,70,0
14880,note_on,0,0,1,,,,,,,,,,,,,,,0,,,65,0
14880,note_on,0,0,1,,,,,,,,,,,,,,,0,,,68,0
14880,note_on,480,0,2,,,,,,,,,,,,,,,0,,,61,0
15360,note_on,480,0,1,,,,,,,,,,,,,,,0,,,67,71
15360,note_on,0,0,1,,,,,,,,,,,,,,,0,,,77,79
15360,note_on,0,0,1,,,,,,,,,,,,,,,0,,,71,71
15360,set_tempo,2400,1,0,,,,,,,,,,,,544119,,,,,,,
15360,note_on,480,0,2,,,,,,,,,,,,,,,0,,,37,45
15360,note_on,0,0,2,,,,,,,,,,,,,,,0,,,49,50
15840,note_on,480,0,2,,,,,,,,,,,,,,,0,,,49,0
15840,set_tempo,480,1,0,,,,,,,,,,,,461538,,,,,,,
15840,note_on,0,0,2,,,,,,,,,,,,,,,0,,,37,0
15840,note_on,0,0,2,,,,,,,,,,,,,,,0,,,36,49
15840,note_on,0,0,2,,,,,,,,,,,,,,,0,,,48,55
15840,note_on,0,0,1,,,,,,,,,,,,,,,0,,,77,85
15840,note_on,0,0,1,,,,,,,,,,,,,,,0,,,72,76
15840,note_on,0,0,1,,,,,,,,,,,,,,,0,,,67,76
15840,note_on,0,0,1,,,,,,,,,,,,,,,0,,,67,0
15840,note_on,0,0,1,,,,,,,,,,,,,,,0,,,77,0
15840,note_on,480,0,1,,,,,,,,,,,,,,,0,,,71,0
16107,control_change,267,0,2,,,,,,,,,,,,,,,0,64,127,,
17280,set_tempo,1440,1,0,,,,,,,,,,,,465188,,,,,,,
17280,note_on,0,0,1,,,,,,,,,,,,,,,0,,,76,51
17280,note_on,1440,0,1,,,,,,,,,,,,,,,0,,,77,0
17576,control_change,1469,0,2,,,,,,,,,,,,,,,0,64,0,,
17760,note_on,0,0,2,,,,,,,,,,,,,,,0,,,36,0
17760,note_on,184,0,2,,,,,,,,,,,,,,,0,,,48,0
17760,note_on,480,0,1,,,,,,,,,,,,,,,0,,,76,0
17760,note_on,0,0,1,,,,,,,,,,,,,,,0,,,72,0
17760,note_on,0,0,1,,,,,,,,,,,,,,,0,,,67,0
18240,note_on,480,0,1,,,,,,,,,,,,,,,0,,,67,46
18240,set_tempo,960,1,0,,,,,,,,,,,,537634,,,,,,,
18240,note_on,0,0,2,,,,,,,,,,,,,,,0,,,60,36
18240,note_on,480,0,2,,,,,,,,,,,,,,,0,,,64,41
18240,note_on,0,0,1,,,,,,,,,,,,,,,0,,,72,46
18240,note_on,0,0,1,,,,,,,,,,,,,,,0,,,76,52
18720,note_on,0,0,1,,,,,,,,,,,,,,,0,,,67,51
18720,note_on,0,0,1,,,,,,,,,,,,,,,0,,,73,51
18720,note_on,0,0,1,,,,,,,,,,,,,,,0,,,75,57
18720,note_on,0,0,1,,,,,,,,,,,,,,,0,,,67,0
18720,note_on,480,0,1,,,,,,,,,,,,,,,0,,,76,0
18720,note_on,0,0,2,,,,,,,,,,,,,,,0,,,63,45
18720,set_tempo,480,1,0,,,,,,,,,,,,473111,,,,,,,
18720,note_on,480,0,2,,,,,,,,,,,,,,,0,,,60,0
18720,note_on,0,0,2,,,,,,,,,,,,,,,0,,,64,0
18720,note_on,0,0,2,,,,,,,,,,,,,,,0,,,58,40
18720,note_on,0,0,1,,,,,,,,,,,,,,,0,,,72,0
19680,note_on,0,0,2,,,,,,,,,,,,,,,0,,,63,47
19680,note_on,0,0,1,,,,,,,,,,,,,,,0,,,75,59
19680,note_on,960,0,2,,,,,,,,,,,,,,,0,,,63,0
19680,note_on,0,0,1,,,,,,,,,,,,,,,0,,,68,53
19680,note_on,0,0,1,,,,,,,,,,,,,,,0,,,73,0
19680,note_on,960,0,1,,,,,,,,,,,,,,,0,,,67,0
19680,note_on,0,0,2,,,,,,,,,,,,,,,0,,,56,42
19680,note_on,0,0,1,,,,,,,,,,,,,,,0,,,72,53
19680,note_on,0,0,2,,,,,,,,,,,,,,,0,,,58,0
19680,note_on,0,0,1,,,,,,,,,,,,,,,0,,,75,0
19680,set_tempo,960,1,0,,,,,,,,,,,,521785,,,,,,,
20160,note_on,0,0,2,,,,,,,,,,,,,,,0,,,49,51
20160,note_on,480,0,2,,,,,,,,,,,,,,,0,,,56,0
20160,note_on,0,0,1,,,,,,,,,,,,,,,0,,,68,0
20160,note_on,0,0,1,,,,,,,,,,,,,,,0,,,73,64
20160,note_on,0,0,1,,,,,,,,,,,,,,,0,,,70,57
20160,note_on,0,0,1,,,,,,,,,,,,,,,0,,,65,57
20160,set_tempo,480,1,0,,,,,,,,,,,,465188,,,,,,,
20160,note_on,480,0,1,,,,,,,,,,,,,,,0,,,75,0
20160,note_on,0,0,1,,,,,,,,,,,,,,,0,,,72,0
20160,note_on,0,0,2,,,,,,,,,,,,,,,0,,,63,0
21120,note_on,960,0,2,,,,,,,,,,,,,,,0,,,49,0
21120,note_on,0,0,2,,,,,,,,,,,,,,,0,,,51,51
21120,note_on,0,0,1,,,,,,,,,,,,,,,0,,,67,56
21120,note_on,960,0,1,,,,,,,,,,,,,,,0,,,65,0
21120,note_on,0,0,1,,,,,,,,,,,,,,,0,,,70,0
21120,note_on,0,0,1,,,,,,,,,,,,,,,0,,,73,0
21120,set_tempo,960,1,0,,,,,,,,,,,,508431,,,,,,,
21120,note_on,0,0,1,,,,,,,,,,,,,,,0,,,61,63
21120,note_on,0,0,1,,,,,,,,,,,,,,,0,,,72,63
21360,set_tempo,240,1,0,,,,,,,,,,,,624415,,,,,,,
21360,note_on,0,0,1,,,,,,,,,,,,,,,0,,,70,60
21360,note_on,240,0,1,,,,,,,,,,,,,,,0,,,72,0
21600,note_on,0,0,1,,,,,,,,,,,,,,,0,,,61,46
21600,note_on,0,0,1,,,,,,,,,,,,,,,0,,,67,0
21600,note_on,0,0,1,,,,,,,,,,,,,,,0,,,61,0
21600,note_on,240,0,1,,,,,,,,,,,,,,,0,,,70,0
21600,note_on,0,0,2,,,,,,,,,,,,,,,0,,,44,37
21600,note_on,0,0,2,,,,,,,,,,,,,,,0,,,51,42
21600,note_on,480,0,2,,,,,,,,,,,,,,,0,,,51,0
21600,note_on,0,0,1,,,,,,,,,,,,,,,0,,,67,46
21600,note_on,0,0,1,,,,,,,,,,,,,,,0,,,70,52
21600,set_tempo,240,1,0,,,,,,,,,,,,491803,,,,,,,
21813,control_change,213,0,2,,,,,,,,,,,,,,,0,64,127,,
22800,control_change,987,0,2,,,,,,,,,,,,,,,0,64,0,,
23040,note_on,1440,0,1,,,,,,,,,,,,,,,0,,,70,0
23040,note_on,0,0,1,,,,,,,,,,,,,,,0,,,61,0
23040,note_on,0,0,1,,,,,,,,,,,,,,,0,,,60,41
23040,note_on,0,0,1,,,,,,,,,,,,,,,0,,,68,46
23040,note_on,0,0,1,,,,,,,,,,,,,,,0,,,67,0
23520,note_on,480,0,1,,,,,,,,,,,,,,,0,,,68,0
23520,note_on,0,0,1,,,,,,,,,,,,,,,0,,,60,0
23520,note_on,720,0,2,,,,,,,,,,,,,,,0,,,44,0
23520,note_on,0,0,2,,,,,,,,,,,,,,,0,,,51,0
23528,set_tempo,1928,1,0,,,,,,,,,,,,563222,,,,,,,
24000,note_on,0,0,2,,,,,,,,,,,,,,,0,,,56,28
24000,note_on,0,0,2,,,,,,,,,,,,,,,0,,,59,32
24000,note_on,480,0,1,,,,,,,,,,,,,,,0,,,62,36
24000,note_on,0,0,1,,,,,,,,,,,,,,,0,,,68,36
24000,note_on,0,0,1,,,,,,,,,,,,,,,0,,,71,40
24000,note_on,480,0,2,,,,,,,,,,,,,,,0,,,52,28
24480,note_on,480,0,1,,,,,,,,,,,,,,,0,,,71,0
24480,note_on,0,0,1,,,,,,,,,,,,,,,0,,,68,0
24480,note_on,0,0,1,,,,,,,,,,,,,,,0,,,62,0
24480,note_on,0,0,1,,,,,,,,,,,,,,,0,,,62,36
24480,note_on,0,0,1,,,,,,,,,,,,,,,0,,,68,36
24480,set_tempo,952,1,0,,,,,,,,,,,,462820,,,,,,,
24480,note_on,0,0,2,,,,,,,,,,,,,,,0,,,59,32
24480,note_on,0,0,2,,,,,,,,,,,,,,,0,,,56,28
24480,note_on,0,0,2,,,,,,,,,,,,,,,0,,,52,28
24480,note_on,0,0,2,,,,,,,,,,,,,,,0,,,52,0
24480,note_on,0,0,2,,,,,,,,,,,,,,,0,,,56,0
24480,note_on,480,0,2,,,,,,,,,,,,,,,0,,,59,0
24480,note_on,0,0,1,,,,,,,,,,,,,,,0,,,71,40
25920,note_on,1440,0,1,,,,,,,,,,,,,,,0,,,62,0
25920,note_on,1440,0,2,,,,,,,,,,,,,,,0,,,52,0
25920,note_on,0,0,1,,,,,,,,,,,,,,,0,,,63,32
25920,note_on,0,0,2,,,,,,,,,,,,,,,0,,,51,25
26400,note_on,0,0,1,,,,,,,,,,,,,,,0,,,68,0
26400,note_on,480,0,1,,,,,,,,,,,,,,,0,,,63,0
26400,note_on,0,0,1,,,,,,,,,,,,,,,0,,,71,0
26400,note_on,480,0,2,,,,,,,,,,,,,,,0,,,51,0
26400,note_on,0,0,2,,,,,,,,,,,,,,,0,,,59,0
26400,note_on,0,0,2,,,,,,,,,,,,,,,0,,,56,0
26880,note_on,0,0,2,,,,,,,,,,,,,,,0,,,56,30
26880,note_on,0,0,1,,,,,,,,,,,,,,,0,,,71,45
26880,set_tempo,2400,1,0,,,,,,,,,,,,545455,,,,,,,
26880,note_on,0,0,1,,,,,,,,,,,,,,,0,,,68,40
26880,note_on,480,0,1,,,,,,,,,,,,,,,0,,,64,40
26880,note_on,480,0,2,,,,,,,,,,,,,,,0,,,49,30
26880,note_on,0,0,2,,,,,,,,,,,,,,,0,,,59,34
27360,note_on,0,0,2,,,,,,,,,,,,,,,0,,,49,32
27360,note_on,0,0,2,,,,,,,,,,,,,,,0,,,49,0
27360,note_on,0,0,2,,,,,,,,,,,,,,,0,,,56,0
27360,note_on,480,0,2,,,,,,,,,,,,,,,0,,,59,0
27360,note_on,0,0,1,,,,,,,,,,,,,,,0,,,64,0
27360,note_on,0,0,2,,,,,,,,,,,,,,,0,,,56,32
27360,set_tempo,480,1,0,,,,,,,,,,,,462820,,,,,,,
27360,note_on,0,0,1,,,,,,,,,,,,,,,0,,,68,44
27360,note_on,480,0,1,,,,,,,,,,,,,,,0,,,71,0
27360,note_on,0,0,1,,,,,,,,,,,,,,,0,,,68,0
27360,note_on,0,0,1,,,,,,,,,,,,,,,0,,,64,44
27360,note_on,0,0,2,,,,,,,,,,,,,,,0,,,59,36
27360,note_on,0,0,1,,,,,,,,,,,,,,,0,,,71,49
28800,note_on,0,0,2,,,,,,,,,,,,,,,0,,,47,24
28800,note_on,1440,0,2,,,,,,,,,,,,,,,0,,,49,0
28800,note_on,0,0,1,,,,,,,,,,,,,,,0,,,63,33
28800,note_on,1440,0,1,,,,,,,,,,,,,,,0,,,64,0
29280,note_on,0,0,2,,,,,,,,,,,,,,,0,,,59,0
29280,note_on,0,0,2,,,,,,,,,,,,,,,0,,,56,0
29280,note_on,480,0,1,,,,,,,,,,,,,,,0,,,63,0
29280,note_on,0,0,1,,,,,,,,,,,,,,,0,,,71,0
29280,note_on,0,0,1,,,,,,,,,,,,,,,0,,,68,0
29280,note_on,480,0,2,,,,,,,,,,,,,,,0,,,47,0
29760,note_on,480,0,1,,,,,,,,,,,,,,,0,,,63,46
29760,note_on,0,0,1,,,,,,,,,,,,,,,0,,,68,46
29760,note_on,0,0,1,,,,,,,,,,,,,,,0,,,71,52
29760,note_on,0,0,2,,,,,,,,,,,,,,,0,,,56,33
29760,note_on,0,0,2,,,,,,,,,,,,,,,0,,,59,37
29760,note_on,480,0,2,,,,,,,,,,,,,,,0,,,47,37
29760,set_tempo,2400,1,0,,,,,,,,,,,,515021,,,,,,,
30240,note_on,480,0,1,,,,,,,,,,,,,,,0,,,71,0
30240,note_on,0,0,1,,,,,,,,,,,,,,,0,,,70,58
30240,note_on,0,0,1,,,,,,,,,,,,,,,0,,,63,0
30240,note_on,0,0,1,,,,,,,,,,,,,,,0,,,68,0
30240,note_on,480,0,2,,,,,,,,,,,,,,,0,,,59,0
30240,note_on,0,0,2,,,,,,,,,,,,,,,0,,,56,0
30240,note_on,0,0,2,,,,,,,,,,,,,,,0,,,47,0
30240,note_on,0,0,2,,,,,,,,,,,,,,,0,,,49,39
30240,note_on,0,0,2,,,,,,,,,,,,,,,0,,,58,44
30240,note_on,0,0,2,,,,,,,,,,,,,,,0,,,56,39
30240,set_tempo,480,1,0,,,,,,,,,,,,515021,,,,,,,
30240,note_on,0,0,1,,,,,,,,,,,,,,,0,,,64,52
30240,note_on,0,0,1,,,,,,,,,,,,,,,0,,,68,52
30720,set_tempo,480,1,0,,,,,,,,,,,,462820,,,,,,,
30720,note_on,480,0,1,,,,,,,,,,,,,,,0,,,70,0
30720,note_on,0,0,1,,,,,,,,,,,,,,,0,,,76,65
31440,note_on,720,0,1,,,,,,,,,,,,,,,0,,,76,0
31440,note_on,0,0,1,,,,,,,,,,,,,,,0,,,70,51
31680,set_tempo,960,1,0,,,,,,,,,,,,475210,,,,,,,
31680,note_on,0,0,2,,,,,,,,,,,,,,,0,,,46,36
31680,note_on,0,0,1,,,,,,,,,,,,,,,0,,,75,57
31680,note_on,240,0,1,,,,,,,,,,,,,,,0,,,70,0
31680,note_on,1440,0,2,,,,,,,,,,,,,,,0,,,49,0
31920,note_on,240,0,1,,,,,,,,,,,,,,,0,,,75,0
31920,note_on,0,0,1,,,,,,,,,,,,,,,0,,,73,55
32160,note_on,240,0,1,,,,,,,,,,,,,,,0,,,73,0
32160,note_on,0,0,1,,,,,,,,,,,,,,,0,,,71,55
32160,note_on,0,0,2,,,,,,,,,,,,,,,0,,,47,37
32160,note_on,480,0,2,,,,,,,,,,,,,,,0,,,46,0
32640,note_on,480,0,1,,,,,,,,,,,,,,,0,,,71,0
32640,note_on,0,0,1,,,,,,,,,,,,,,,0,,,68,0
32640,note_on,0,0,1,,,,,,,,,,,,,,,0,,,64,0
32640,note_on,0,0,1,,,,,,,,,,,,,,,0,,,64,46
32640,note_on,480,0,2,,,,,,,,,,,,,,,0,,,47,0
32640,note_on,0,0,2,,,,,,,,,,,,,,,0,,,56,0
32640,note_on,0,0,2,,,,,,,,,,,,,,,0,,,58,0
32640,note_on,0,0,2,,,,,,,,,,,,,,,0,,,49,35
32640,note_on,0,0,1,,,,,,,,,,,,,,,0,,,70,52
32640,set_tempo,960,1,0,,,,,,,,,,,,511771,,,,,,,
32640,note_on,0,0,1,,,,,,,,,,,,,,,0,,,61,46
33120,note_on,0,0,1,,,,,,,,,,,,,,,0,,,59,44
33120,note_on,0,0,1,,,,,,,,,,,,,,,0,,,64,0
33120,note_on,0,0,1,,,,,,,,,,,,,,,0,,,61,0
33120,note_on,0,0,1,,,,,,,,,,,,,,,0,,,63,44
33120,note_on,0,0,1,,,,,,,,,,,,,,,0,,,68,49
33120,set_tempo,480,1,0,,,,,,,,,,,,462820,,,,,,,
33120,note_on,0,0,2,,,,,,,,,,,,,,,0,,,51,35
33120,note_on,480,0,2,,,,,,,,,,,,,,,0,,,49,0
33120,note_on,480,0,1,,,,,,,,,,,,,,,0,,,70,0
34560,note_on,0,0,1,,,,,,,,,,,,,,,0,,,67,35
34560,note_on,0,0,1,,,,,,,,,,,,,,,0,,,59,0
34560,note_on,0,0,1,,,,,,,,,,,,,,,0,,,58,31
34560,note_on,1440,0,1,,,,,,,,,,,,,,,0,,,68,0
35040,note_on,480,0,1,,,,,,,,,,,,,,,0,,,67,0
35040,note_on,0,0,1,,,,,,,,,,,,,,,0,,,58,0
35040,note_on,0,0,1,,,,,,,,,,,,,,,0,,,63,0
35040,note_on,1920,0,2,,,,,,,,,,,,,,,0,,,51,0
35520,set_tempo,2400,1,0,,,,,,,,,,,,532245,,,,,,,
35520,note_on,0,0,1,,,,,,,,,,,,,,,0,,,71,36
35520,note_on,0,0,1,,,,,,,,,,,,,,,0,,,68,32
35520,note_on,480,0,2,,,,,,,,,,,,,,,0,,,52,25
35520,note_on,0,0,2,,,,,,,,,,,,,,,0,,,56,25
35520,note_on,480,0,1,,,,,,,,,,,,,,,0,,,62,32
35520,note_on,0,0,2,,,,,,,,,,,,,,,0,,,59,28
36000,set_tempo,480,1,0,,,,,,,,,,,,462820,,,,,,,
36000,note_on,0,0,1,,,,,,,,,,,,,,,0,,,71,36
36000,note_on,0,0,2,,,,,,,,,,,,,,,0,,,56,0
36000,note_on,0,0,2,,,,,,,,,,,,,,,0,,,52,0
36000,note_on,0,0,2,,,,,,,,,,,,,,,0,,,56,25
36000,note_on,0,0,2,,,,,,,,,,,,,,,0,,,59,28
36000,note_on,480,0,1,,,,,,,,,,,,,,,0,,,71,0
36000,note_on,0,0,1,,,,,,,,,,,,,,,0,,,68,0
36000,note_on,0,0,1,,,,,,,,,,,,,,,0,,,62,0
36000,note_on,0,0,1,,,,,,,,,,,,,,,0,,,62,32
36000,note_on,0,0,1,,,,,,,,,,,,,,,0,,,68,32
36000,note_on,480,0,2,,,,,,,,,,,,,,,0,,,59,0
36000,note_on,0,0,2,,,,,,,,,,,,,,,0,,,52,25
37440,note_on,1440,0,1,,,,,,,,,,,,,,,0,,,62,0
37440,note_on,0,0,1,,,,,,,,,,,,,,,0,,,63,28
37440,note_on,1440,0,2,,,,,,,,,,,,,,,0,,,52,0
37440,note_on,0,0,2,,,,,,,,,,,,,,,0,,,51,22
37920,note_on,0,0,2,,,,,,,,,,,,,,,0,,,56,0
37920,note_on,0,0,2,,,,,,,,,,,,,,,0,,,59,0
37920,note_on,480,0,2,,,,,,,,,,,,,,,0,,,51,0
37920,note_on,480,0,1,,,,,,,,,,,,,,,0,,,63,0
37920,note_on,0,0,1,,,,,,,,,,,,,,,0,,,71,0
37920,note_on,0,0,1,,,,,,,,,,,,,,,0,,,68,0
38400,note_on,0,0,2,,,,,,,,,,,,,,,0,,,59,36
38400,note_on,0,0,2,,,,,,,,,,,,,,,0,,,56,32
38400,note_on,480,0,2,,,,,,,,,,,,,,,0,,,49,32
38400,note_on,480,0,1,,,,,,,,,,,,,,,0,,,64,43
38400,note_on,0,0,1,,,,,,,,,,,,,,,0,,,71,48
38400,set_tempo,2400,1,0,,,,,,,,,,,,532245,,,,,,,
38400,note_on,0,0,1,,,,,,,,,,,,,,,0,,,68,43
38880,note_on,0,0,2,,,,,,,,,,,,,,,0,,,49,31
38880,note_on,0,0,2,,,,,,,,,,,,,,,0,,,56,31
38880,note_on,0,0,2,,,,,,,,,,,,,,,0,,,49,0
38880,note_on,0,0,2,,,,,,,,,,,,,,,0,,,56,0
38880,note_on,480,0,2,,,,,,,,,,,,,,,0,,,59,0
38880,note_on,480,0,1,,,,,,,,,,,,,,,0,,,71,0
38880,note_on,0,0,1,,,,,,,,,,,,,,,0,,,68,0
38880,note_on,0,0,1,,,,,,,,,,,,,,,0,,,64,0
38880,note_on,0,0,1,,,,,,,,,,,,,,,0,,,64,39
38880,note_on,0,0,1,,,,,,,,,,,,,,,0,,,68,39
38880,note_on,0,0,1,,,,,,,,,,,,,,,0,,,71,44
38880,note_on,0,0,2,,,,,,,,,,,,,,,0,,,59,35
38880,set_tempo,480,1,0,,,,,,,,,,,,462820,,,,,,,
40320,note_on,0,0,1,,,,,,,,,,,,,,,0,,,63,34
40320,note_on,1440,0,1,,,,,,,,,,,,,,,0,,,64,0
40320,note_on,1440,0,2,,,,,,,,,,,,,,,0,,,49,0
40320,note_on,0,0,2,,,,,,,,,,,,,,,0,,,47,21
40800,note_on,0,0,1,,,,,,,,,,,,,,,0,,,71,0
40800,note_on,0,0,1,,,,,,,,,,,,,,,0,,,68,0
40800,note_on,480,0,1,,,,,,,,,,,,,,,0,,,63,0
40800,note_on,480,0,2,,,,,,,,,,,,,,,0,,,47,0
40800,note_on,0,0,2,,,,,,,,,,,,,,,0,,,59,0
40800,note_on,0,0,2,,,,,,,,,,,,,,,0,,,56,0
41280,note_on,0,0,1,,,,,,,,,,,,,,,0,,,71,50
41280,note_on,0,0,1,,,,,,,,,,,,,,,0,,,68,45
41280,note_on,480,0,1,,,,,,,,,,,,,,,0,,,64,45
41280,note_on,0,0,2,,,,,,,,,,,,,,,0,,,52,38
41280,note_on,0,0,2,,,,,,,,,,,,,,,0,,,47,38
41280,control_change,480,0,2,,,,,,,,,,,,,,,0,64,127,,
41280,note_on,0,0,2,,,,,,,,,,,,,,,0,,,59,43
41280,set_tempo,2400,1,0,,,,,,,,,,,,521739,,,,,,,
41280,note_on,0,0,2,,,,,,,,,,,,,,,0,,,56,38
41760,note_on,0,0,1,,,,,,,,,,,,,,,0,,,71,56
41760,note_on,0,0,1,,,,,,,,,,,,,,,0,,,64,0
41760,note_on,0,0,1,,,,,,,,,,,,,,,0,,,68,0
41760,note_on,480,0,1,,,,,,,,,,,,,,,0,,,71,0
41760,key_signature,480,1,0,,,,,,,,,,,E,,,,,,,,
41760,note_on,0,0,2,,,,,,,,,,,,,,,0,,,56,44
41760,note_on,480,0,2,,,,,,,,,,,,,,,0,,,59,0
41760,note_on,0,0,2,,,,,,,,,,,,,,,0,,,52,0
41760,note_on,0,0,2,,,,,,,,,,,,,,,0,,,47,0
41760,note_on,0,0,2,,,,,,,,,,,,,,,0,,,56,0
41760,note_on,0,0,2,,,,,,,,,,,,,,,0,,,47,44
41760,note_on,0,0,2,,,,,,,,,,,,,,,0,,,52,44
41760,note_on,0,0,1,,,,,,,,,,,,,,,0,,,64,50
41760,note_on,0,0,2,,,,,,,,,,,,,,,0,,,59,49
41760,note_on,0,0,1,,,,,,,,,,,,,,,0,,,68,50
41760,set_tempo,0,1,0,,,,,,,,,,,,533333,,,,,,,
42240,note_on,0,0,1,,,,,,,,,,,,,,,0,,,76,70
42240,note_on,480,0,1,,,,,,,,,,,,,,,0,,,71,0
42240,set_tempo,480,1,0,,,,,,,,,,,,461538,,,,,,,
42904,control_change,1144,0,2,,,,,,,,,,,,,,,0,64,0,,
42960,set_tempo,720,1,0,,,,,,,,,,,,754717,,,,,,,
42960,note_on,0,0,1,,,,,,,,,,,,,,,0,,,71,60
42960,note_on,720,0,1,,,,,,,,,,,,,,,0,,,76,0
43080,set_tempo,120,1,0,,,,,,,,,,,,545455,,,,,,,
43080,note_on,0,0,1,,,,,,,,,,,,,,,0,,,71,55
43080,note_on,120,0,1,,,,,,,,,,,,,,,0,,,71,0
43180,set_tempo,100,1,0,,,,,,,,,,,,474308,,,,,,,
43200,note_on,0,0,2,,,,,,,,,,,,,,,0,,,59,47
43200,note_on,0,0,2,,,,,,,,,,,,,,,0,,,56,42
43200,note_on,0,0,2,,,,,,,,,,,,,,,0,,,52,42
43200,note_on,0,0,2,,,,,,,,,,,,,,,0,,,47,42
43200,note_on,0,0,2,,,,,,,,,,,,,,,0,,,56,0
43200,note_on,296,0,2,,,,,,,,,,,,,,,0,,,59,0
43200,note_on,0,0,2,,,,,,,,,,,,,,,0,,,47,0
43200,note_on,120,0,1,,,,,,,,,,,,,,,0,,,71,0
43200,note_on,0,0,1,,,,,,,,,,,,,,,0,,,68,0
43200,note_on,0,0,1,,,,,,,,,,,,,,,0,,,75,73
43200,note_on,0,0,2,,,,,,,,,,,,,,,0,,,52,0
43340,set_tempo,160,1,0,,,,,,,,,,,,476190,,,,,,,
43440,note_on,240,0,1,,,,,,,,,,,,,,,0,,,75,0
43440,note_on,0,0,1,,,,,,,,,,,,,,,0,,,73,70
43500,set_tempo,160,1,0,,,,,,,,,,,,478088,,,,,,,
43660,set_tempo,160,1,0,,,,,,,,,,,,480000,,,,,,,
43680,note_on,0,0,1,,,,,,,,,,,,,,,0,,,71,67
43680,note_on,240,0,1,,,,,,,,,,,,,,,0,,,73,0
43820,set_tempo,160,1,0,,,,,,,,,,,,481928,,,,,,,
43960,set_tempo,140,1,0,,,,,,,,,,,,483871,,,,,,,
44120,set_tempo,160,1,0,,,,,,,,,,,,485830,,,,,,,
44160,note_on,0,0,1,,,,,,,,,,,,,,,0,,,68,65
44160,note_on,480,0,1,,,,,,,,,,,,,,,0,,,71,0
44280,set_tempo,160,1,0,,,,,,,,,,,,487805,,,,,,,
44440,set_tempo,160,1,0,,,,,,,,,,,,489796,,,,,,,
44580,set_tempo,140,1,0,,,,,,,,,,,,491803,,,,,,,
44600,set_tempo,20,1,0,,,,,,,,,,,,468933,,,,,,,
44640,note_on,1440,0,2,,,,,,,,,,,,,,,0,,,59,0
44640,note_on,0,0,1,,,,,,,,,,,,,,,0,,,61,55
44640,note_on,0,0,1,,,,,,,,,,,,,,,0,,,64,0
44640,note_on,0,0,1,,,,,,,,,,,,,,,0,,,65,62
44640,note_on,0,0,2,,,,,,,,,,,,,,,0,,,47,0
44640,set_tempo,40,1,0,,,,,,,,,,,,506329,,,,,,,
44640,note_on,480,0,1,,,,,,,,,,,,,,,0,,,68,0
44640,note_on,0,0,2,,,,,,,,,,,,,,,0,,,52,0
44640,note_on,0,0,2,,,,,,,,,,,,,,,0,,,56,44
44640,note_on,0,0,2,,,,,,,,,,,,,,,0,,,47,39
44640,note_on,0,0,2,,,,,,,,,,,,,,,0,,,53,39
44640,note_on,0,0,2,,,,,,,,,,,,,,,0,,,56,0
45120,note_on,0,0,1,,,,,,,,,,,,,,,0,,,73,70
45120,note_on,480,0,1,,,,,,,,,,,,,,,0,,,65,0
45120,set_tempo,480,1,0,,,,,,,,,,,,470588,,,,,,,
45840,note_on,0,0,1,,,,,,,,,,,,,,,0,,,65,58
45840,note_on,720,0,1,,,,,,,,,,,,,,,0,,,73,0
46060,set_tempo,940,1,0,,,,,,,,,,,,470588,,,,,,,
46080,note_on,0,0,2,,,,,,,,,,,,,,,0,,,53,0
46080,note_on,0,0,2,,,,,,,,,,,,,,,0,,,47,43
46080,note_on,0,0,2,,,,,,,,,,,,,,,0,,,47,0
46080,note_on,0,0,1,,,,,,,,,,,,,,,0,,,61,0
46080,note_on,1440,0,2,,,,,,,,,,,,,,,0,,,56,0
46080,note_on,0,0,2,,,,,,,,,,,,,,,0,,,57,48
46080,note_on,240,0,1,,,,,,,,,,,,,,,0,,,65,0
46080,note_on,0,0,1,,,,,,,,,,,,,,,0,,,73,70
46080,note_on,0,0,1,,,,,,,,,,,,,,,0,,,66,63
46080,note_on,0,0,2,,,,,,,,,,,,,,,0,,,54,43
46080,note_on,0,0,1,,,,,,,,,,,,,,,0,,,61,63
46220,set_tempo,160,1,0,,,,,,,,,,,,472441,,,,,,,
46320,note_on,0,0,1,,,,,,,,,,,,,,,0,,,69,70
46320,note_on,240,0,1,,,,,,,,,,,,,,,0,,,73,0
46380,set_tempo,160,1,0,,,,,,,,,,,,474308,,,,,,,
46540,set_tempo,160,1,0,,,,,,,,,,,,476190,,,,,,,
46560,note_on,0,0,1,,,,,,,,,,,,,,,0,,,66,0
46560,note_on,0,0,2,,,,,,,,,,,,,,,0,,,54,0
46560,note_on,240,0,1,,,,,,,,,,,,,,,0,,,69,0
46560,note_on,0,0,2,,,,,,,,,,,,,,,0,,,59,48
46560,note_on,0,0,1,,,,,,,,,,,,,,,0,,,68,70
46560,note_on,0,0,1,,,,,,,,,,,,,,,0,,,64,63
46560,note_on,0,0,1,,,,,,,,,,,,,,,0,,,61,0
46560,note_on,480,0,2,,,,,,,,,,,,,,,0,,,57,0
46560,note_on,0,0,2,,,,,,,,,,,,,,,0,,,56,43
46700,set_tempo,160,1,0,,,,,,,,,,,,478088,,,,,,,
46860,set_tempo,160,1,0,,,,,,,,,,,,480000,,,,,,,
47020,set_tempo,160,1,0,,,,,,,,,,,,481928,,,,,,,
47040,note_on,0,0,1,,,,,,,,,,,,,,,0,,,63,60
47040,note_on,0,0,1,,,,,,,,,,,,,,,0,,,66,67
47040,note_on,0,0,1,,,,,,,,,,,,,,,0,,,64,0
47040,note_on,480,0,1,,,,,,,,,,,,,,,0,,,68,0
47040,note_on,480,0,2,,,,,,,,,,,,,,,0,,,59,0
47040,note_on,0,0,2,,,,,,,,,,,,,,,0,,,56,0
47040,note_on,0,0,2,,,,,,,,,,,,,,,0,,,59,48
47040,note_on,0,0,2,,,,,,,,,,,,,,,0,,,57,43
47180,set_tempo,160,1,0,,,,,,,,,,,,483871,,,,,,,
47340,set_tempo,160,1,0,,,,,,,,,,,,485830,,,,,,,
47500,set_tempo,160,1,0,,,,,,,,,,,,487805,,,,,,,
47520,note_on,480,0,2,,,,,,,,,,,,,,,0,,,59,0
47520,note_on,0,0,2,,,,,,,,,,,,,,,0,,,57,0
47520,note_on,0,0,2,,,,,,,,,,,,,,,0,,,47,0
47520,note_on,0,0,2,,,,,,,,,,,,,,,0,,,40,46
47520,note_on,480,0,1,,,,,,,,,,,,,,,0,,,66,0
47520,note_on,0,0,1,,,,,,,,,,,,,,,0,,,63,0
47520,note_on,0,0,1,,,,,,,,,,,,,,,0,,,56,59
47520,note_on,0,0,1,,,,,,,,,,,,,,,0,,,59,59
47520,note_on,0,0,1,,,,,,,,,,,,,,,0,,,64,66
47520,note_on,0,0,2,,,,,,,,,,,,,,,0,,,47,46
47520,note_on,0,0,2,,,,,,,,,,,,,,,0,,,52,52
48480,note_on,0,0,1,,,,,,,,,,,,,,,0,,,59,0
48480,note_on,0,0,1,,,,,,,,,,,,,,,0,,,56,0
48480,set_tempo,980,1,0,,,,,,,,,,,,397193,,,,,,,
48480,note_on,960,0,1,,,,,,,,,,,,,,,0,,,64,0
48480,note_on,0,0,1,,,,,,,,,,,,,,,0,,,64,51
48640,note_on,0,0,1,,,,,,,,,,,,,,,0,,,68,55
48640,note_on,160,0,1,,,,,,,,,,,,,,,0,,,64,0
48800,note_on,0,0,1,,,,,,,,,,,,,,,0,,,71,59
48800,note_on,160,0,1,,,,,,,,,,,,,,,0,,,68,0
48800,set_tempo,320,1,0,,,,,,,,,,,,483832,,,,,,,
48960,note_on,0,0,2,,,,,,,,,,,,,,,0,,,47,0
48960,set_tempo,160,1,0,,,,,,,,,,,,454545,,,,,,,
48960,note_on,160,0,1,,,,,,,,,,,,,,,0,,,71,0
48960,note_on,0,0,1,,,,,,,,,,,,,,,0,,,70,69
48960,note_on,0,0,1,,,,,,,,,,,,,,,0,,,67,62
48960,note_on,0,0,1,,,,,,,,,,,,,,,0,,,64,62
48960,note_on,0,0,1,,,,,,,,,,,,,,,0,,,61,62
48960,note_on,0,0,2,,,,,,,,,,,,,,,0,,,40,52
48960,note_on,0,0,2,,,,,,,,,,,,,,,0,,,40,0
48960,note_on,1440,0,2,,,,,,,,,,,,,,,0,,,52,0
49920,note_on,0,0,1,,,,,,,,,,,,,,,0,,,59,51
49920,note_on,0,0,1,,,,,,,,,,,,,,,0,,,64,51
49920,set_tempo,960,1,0,,,,,,,,,,,,483871,,,,,,,
49920,note_on,0,0,1,,,,,,,,,,,,,,,0,,,71,57
49920,note_on,960,0,1,,,,,,,,,,,,,,,0,,,61,0
49920,note_on,0,0,1,,,,,,,,,,,,,,,0,,,70,0
49920,note_on,0,0,1,,,,,,,,,,,,,,,0,,,68,51
49920,note_on,0,0,1,,,,,,,,,,,,,,,0,,,67,0
49920,note_on,0,0,1,,,,,,,,,,,,,,,0,,,64,0
50160,note_on,0,0,1,,,,,,,,,,,,,,,0,,,71,0
50160,note_on,0,0,1,,,,,,,,,,,,,,,0,,,68,0
50160,note_on,0,0,1,,,,,,,,,,,,,,,0,,,64,0
50160,note_on,0,0,1,,,,,,,,,,,,,,,0,,,66,44
50160,note_on,240,0,1,,,,,,,,,,,,,,,0,,,59,0
50280,note_on,120,0,1,,,,,,,,,,,,,,,0,,,66,0
50280,note_on,0,0,1,,,,,,,,,,,,,,,0,,,68,44
50380,set_tempo,460,1,0,,,,,,,,,,,,441176,,,,,,,
50400,note_on,1440,0,2,,,,,,,,,,,,,,,0,,,40,0
50400,note_on,0,0,2,,,,,,,,,,,,,,,0,,,40,33
50400,note_on,0,0,2,,,,,,,,,,,,,,,0,,,45,37
50400,note_on,0,0,1,,,,,,,,,,,,,,,0,,,69,49
50400,note_on,120,0,1,,,,,,,,,,,,,,,0,,,68,0
50400,note_on,0,0,1,,,,,,,,,,,,,,,0,,,60,44
50400,note_on,0,0,1,,,,,,,,,,,,,,,0,,,63,49
50420,set_tempo,40,1,0,,,,,,,,,,,,441176,,,,,,,
50480,set_tempo,60,1,0,,,,,,,,,,,,442804,,,,,,,
50540,set_tempo,60,1,0,,,,,,,,,,,,444444,,,,,,,
50600,set_tempo,60,1,0,,,,,,,,,,,,446097,,,,,,,
50660,set_tempo,60,1,0,,,,,,,,,,,,447761,,,,,,,
50720,set_tempo,60,1,0,,,,,,,,,,,,449438,,,,,,,
50780,set_tempo,60,1,0,,,,,,,,,,,,451128,,,,,,,
50840,set_tempo,60,1,0,,,,,,,,,,,,452830,,,,,,,
50880,set_tempo,40,1,0,,,,,,,,,,,,454545,,,,,,,
50940,set_tempo,60,1,0,,,,,,,,,,,,456274,,,,,,,
51000,set_tempo,60,1,0,,,,,,,,,,,,458015,,,,,,,
51060,set_tempo,60,1,0,,,,,,,,,,,,459770,,,,,,,
51120,set_tempo,60,1,0,,,,,,,,,,,,461538,,,,,,,
51120,note_on,0,0,1,,,,,,,,,,,,,,,0,,,60,0
51120,note_on,0,0,2,,,,,,,,,,,,,,,0,,,47,35
51120,note_on,720,0,1,,,,,,,,,,,,,,,0,,,69,0
51120,note_on,0,0,1,,,,,,,,,,,,,,,0,,,68,47
51120,note_on,0,0,1,,,,,,,,,,,,,,,0,,,59,42
51120,note_on,720,0,2,,,,,,,,,,,,,,,0,,,45,0
51180,set_tempo,60,1,0,,,,,,,,,,,,463320,,,,,,,
51240,set_tempo,60,1,0,,,,,,,,,,,,465116,,,,,,,
51300,set_tempo,60,1,0,,,,,,,,,,,,466926,,,,,,,
51340,set_tempo,40,1,0,,,,,,,,,,,,468750,,,,,,,
51360,note_on,0,0,2,,,,,,,,,,,,,,,0,,,48,33
51360,note_on,240,0,1,,,,,,,,,,,,,,,0,,,68,0
51360,note_on,0,0,1,,,,,,,,,,,,,,,0,,,59,0
51360,note_on,0,0,1,,,,,,,,,,,,,,,0,,,57,39
51360,note_on,0,0,1,,,,,,,,,,,,,,,0,,,66,44
51360,note_on,240,0,2,,,,,,,,,,,,,,,0,,,47,0
51400,set_tempo,60,1,0,,,,,,,,,,,,470588,,,,,,,
51460,set_tempo,60,1,0,,,,,,,,,,,,472441,,,,,,,
51520,set_tempo,60,1,0,,,,,,,,,,,,474308,,,,,,,
51580,set_tempo,60,1,0,,,,,,,,,,,,476190,,,,,,,
51640,set_tempo,60,1,0,,,,,,,,,,,,478088,,,,,,,
51700,set_tempo,60,1,0,,,,,,,,,,,,480000,,,,,,,
51760,set_tempo,60,1,0,,,,,,,,,,,,481928,,,,,,,
51800,set_tempo,40,1,0,,,,,,,,,,,,483871,,,,,,,
51820,set_tempo,20,1,0,,,,,,,,,,,,466926,,,,,,,
51840,note_on,0,0,1,,,,,,,,,,,,,,,0,,,56,36
51840,note_on,0,0,1,,,,,,,,,,,,,,,0,,,63,0
51840,note_on,480,0,1,,,,,,,,,,,,,,,0,,,66,0
51840,note_on,0,0,1,,,,,,,,,,,,,,,0,,,57,0
51840,note_on,0,0,1,,,,,,,,,,,,,,,0,,,64,41
51840,note_on,0,0,2,,,,,,,,,,,,,,,0,,,40,0
51840,note_on,0,0,2,,,,,,,,,,,,,,,0,,,47,30
51840,note_on,0,0,2,,,,,,,,,,,,,,,0,,,40,27
51840,note_on,480,0,2,,,,,,,,,,,,,,,0,,,48,0
51840,set_tempo,20,1,0,,,,,,,,,,,,458821,,,,,,,
52800,set_tempo,960,1,0,,,,,,,,,,,,397193,,,,,,,
52800,note_on,0,0,1,,,,,,,,,,,,,,,0,,,64,51
52800,note_on,960,0,1,,,,,,,,,,,,,,,0,,,64,0
52800,note_on,0,0,1,,,,,,,,,,,,,,,0,,,56,0
52960,note_on,160,0,1,,,,,,,,,,,,,,,0,,,64,0
52960,note_on,0,0,1,,,,,,,,,,,,,,,0,,,68,55
53120,set_tempo,320,1,0,,,,,,,,,,,,483832,,,,,,,
53120,note_on,160,0,1,,,,,,,,,,,,,,,0,,,68,0
53120,note_on,0,0,1,,,,,,,,,,,,,,,0,,,71,59
53280,set_tempo,160,1,0,,,,,,,,,,,,454545,,,,,,,
53280,note_on,0,0,2,,,,,,,,,,,,,,,0,,,47,0
53280,note_on,0,0,2,,,,,,,,,,,,,,,0,,,40,52
53280,note_on,1440,0,2,,,,,,,,,,,,,,,0,,,40,0
53280,note_on,0,0,1,,,,,,,,,,,,,,,0,,,70,69
53280,note_on,0,0,1,,,,,,,,,,,,,,,0,,,67,62
53280,note_on,160,0,1,,,,,,,,,,,,,,,0,,,71,0
53280,note_on,0,0,1,,,,,,,,,,,,,,,0,,,61,62
53280,note_on,0,0,1,,,,,,,,,,,,,,,0,,,64,62
54240,note_on,0,0,1,,,,,,,,,,,,,,,0,,,59,45
54240,note_on,0,0,1,,,,,,,,,,,,,,,0,,,64,45
54240,note_on,0,0,1,,,,,,,,,,,,,,,0,,,68,45
54240,note_on,0,0,1,,,,,,,,,,,,,,,0,,,71,51
54240,note_on,0,0,1,,,,,,,,,,,,,,,0,,,70,0
54240,set_tempo,960,1,0,,,,,,,,,,,,489796,,,,,,,
54240,note_on,960,0,1,,,,,,,,,,,,,,,0,,,61,0
54240,note_on,0,0,1,,,,,,,,,,,,,,,0,,,67,0
54240,note_on,0,0,1,,,,,,,,,,,,,,,0,,,64,0
54480,note_on,0,0,1,,,,,,,,,,,,,,,0,,,66,43
54480,note_on,240,0,1,,,,,,,,,,,,,,,0,,,59,0
54480,note_on,0,0,1,,,,,,,,,,,,,,,0,,,71,0
54480,note_on,0,0,1,,,,,,,,,,,,,,,0,,,68,0
54480,note_on,0,0,1,,,,,,,,,,,,,,,0,,,64,0
54600,note_on,0,0,1,,,,,,,,,,,,,,,0,,,68,43
54600,note_on,120,0,1,,,,,,,,,,,,,,,0,,,66,0
54720,note_on,120,0,1,,,,,,,,,,,,,,,0,,,68,0
54720,note_on,0,0,1,,,,,,,,,,,,,,,0,,,60,41
54720,note_on,0,0,2,,,,,,,,,,,,,,,0,,,45,35
54720,note_on,1440,0,2,,,,,,,,,,,,,,,0,,,40,0
54720,note_on,0,0,1,,,,,,,,,,,,,,,0,,,63,41
54720,note_on,0,0,1,,,,,,,,,,,,,,,0,,,69,46
54720,set_tempo,480,1,0,,,,,,,,,,,,461538,,,,,,,
54720,note_on,0,0,2,,,,,,,,,,,,,,,0,,,40,31
54760,set_tempo,40,1,0,,,,,,,,,,,,463320,,,,,,,
54800,set_tempo,40,1,0,,,,,,,,,,,,465116,,,,,,,
54840,set_tempo,40,1,0,,,,,,,,,,,,466926,,,,,,,
54880,set_tempo,40,1,0,,,,,,,,,,,,468750,,,,,,,
54920,set_tempo,40,1,0,,,,,,,,,,,,470588,,,,,,,
54960,set_tempo,40,1,0,,,,,,,,,,,,472441,,,,,,,
55000,set_tempo,40,1,0,,,,,,,,,,,,474308,,,,,,,
55040,set_tempo,40,1,0,,,,,,,,,,,,476190,,,,,,,
55080,set_tempo,40,1,0,,,,,,,,,,,,478088,,,,,,,
55120,set_tempo,40,1,0,,,,,,,,,,,,480000,,,,,,,
55160,set_tempo,40,1,0,,,,,,,,,,,,481928,,,,,,,
55200,set_tempo,40,1,0,,,,,,,,,,,,483871,,,,,,,
55240,set_tempo,40,1,0,,,,,,,,,,,,485830,,,,,,,
55280,set_tempo,40,1,0,,,,,,,,,,,,487805,,,,,,,
55320,set_tempo,40,1,0,,,,,,,,,,,,489796,,,,,,,
55360,set_tempo,40,1,0,,,,,,,,,,,,491803,,,,,,,
55400,set_tempo,40,1,0,,,,,,,,,,,,493827,,,,,,,
55440,note_on,0,0,2,,,,,,,,,,,,,,,0,,,47,32
55440,note_on,0,0,1,,,,,,,,,,,,,,,0,,,68,41
55440,note_on,0,0,1,,,,,,,,,,,,,,,0,,,59,36
55440,note_on,0,0,1,,,,,,,,,,,,,,,0,,,60,0
55440,note_on,720,0,1,,,,,,,,,,,,,,,0,,,69,0
55440,set_tempo,40,1,0,,,,,,,,,,,,495868,,,,,,,
55440,note_on,720,0,2,,,,,,,,,,,,,,,0,,,45,0
55480,set_tempo,40,1,0,,,,,,,,,,,,497925,,,,,,,
55520,set_tempo,40,1,0,,,,,,,,,,,,500000,,,,,,,
55560,set_tempo,40,1,0,,,,,,,,,,,,502092,,,,,,,
55600,set_tempo,40,1,0,,,,,,,,,,,,504202,,,,,,,
55640,set_tempo,40,1,0,,,,,,,,,,,,506329,,,,,,,
55680,set_tempo,40,1,0,,,,,,,,,,,,508475,,,,,,,
55680,note_on,240,0,2,,,,,,,,,,,,,,,0,,,47,0
55680,note_on,0,0,2,,,,,,,,,,,,,,,0,,,48,29
55680,note_on,0,0,1,,,,,,,,,,,,,,,0,,,66,37
55680,note_on,240,0,1,,,,,,,,,,,,,,,0,,,68,0
55680,note_on,0,0,1,,,,,,,,,,,,,,,0,,,59,0
55680,note_on,0,0,1,,,,,,,,,,,,,,,0,,,57,37
55720,set_tempo,40,1,0,,,,,,,,,,,,510638,,,,,,,
55760,set_tempo,40,1,0,,,,,,,,,,,,512821,,,,,,,
55800,set_tempo,40,1,0,,,,,,,,,,,,515021,,,,,,,
55840,set_tempo,40,1,0,,,,,,,,,,,,517241,,,,,,,
55880,set_tempo,40,1,0,,,,,,,,,,,,519481,,,,,,,
55920,set_tempo,40,1,0,,,,,,,,,,,,521739,,,,,,,
55960,set_tempo,40,1,0,,,,,,,,,,,,524017,,,,,,,
56000,set_tempo,40,1,0,,,,,,,,,,,,526316,,,,,,,
56040,set_tempo,40,1,0,,,,,,,,,,,,528634,,,,,,,
56080,set_tempo,40,1,0,,,,,,,,,,,,530973,,,,,,,
56120,set_tempo,40,1,0,,,,,,,,,,,,533333,,,,,,,
56140,set_tempo,20,1,0,,,,,,,,,,,,479501,,,,,,,
56160,note_on,0,0,1,,,,,,,,,,,,,,,0,,,64,35
56160,note_on,0,0,1,,,,,,,,,,,,,,,0,,,56,31
56160,note_on,0,0,1,,,,,,,,,,,,,,,0,,,63,0
56160,note_on,0,0,1,,,,,,,,,,,,,,,0,,,57,0
56160,note_on,480,0,1,,,,,,,,,,,,,,,0,,,66,0
56160,note_on,480,0,2,,,,,,,,,,,,,,,0,,,48,0
56160,note_on,0,0,2,,,,,,,,,,,,,,,0,,,47,26
56160,note_on,0,0,2,,,,,,,,,,,,,,,0,,,40,23
56160,note_on,0,0,2,,,,,,,,,,,,,,,0,,,40,0
56160,set_tempo,20,1,0,,,,,,,,,,,,461538,,,,,,,
57120,note_on,960,0,1,,,,,,,,,,,,,,,0,,,64,0
57120,note_on,0,0,1,,,,,,,,,,,,,,,0,,,68,43
57120,note_on,0,0,1,,,,,,,,,,,,,,,0,,,56,0
57120,set_tempo,960,1,0,,,,,,,,,,,,487805,,,,,,,
57600,note_on,0,0,1,,,,,,,,,,,,,,,0,,,68,49
57600,note_on,0,0,1,,,,,,,,,,,,,,,0,,,64,44
57600,note_on,480,0,1,,,,,,,,,,,,,,,0,,,68,0
57600,key_signature,480,1,0,,,,,,,,,,,Ab,,,,,,,,
57600,control_change,0,0,2,,,,,,,,,,,,,,,0,64,127,,
57600,note_on,0,0,2,,,,,,,,,,,,,,,0,,,59,36
57600,note_on,0,0,2,,,,,,,,,,,,,,,0,,,52,32
57600,note_on,0,0,2,,,,,,,,,,,,,,,0,,,47,0
57600,note_on,1440,0,2,,,,,,,,,,,,,,,0,,,40,0
57600,set_tempo,0,1,0,,,,,,,,,,,,468750,,,,,,,
58560,note_on,0,0,2,,,,,,,,,,,,,,,0,,,52,0
58560,set_tempo,960,1,0,,,,,,,,,,,,512821,,,,,,,
58560,note_on,0,0,2,,,,,,,,,,,,,,,0,,,52,26
58560,note_on,0,0,2,,,,,,,,,,,,,,,0,,,59,29
58560,note_on,960,0,1,,,,,,,,,,,,,,,0,,,68,0
58560,note_on,0,0,1,,,,,,,,,,,,,,,0,,,64,0
58560,note_on,0,0,1,,,,,,,,,,,,,,,0,,,64,39
58560,note_on,0,0,1,,,,,,,,,,,,,,,0,,,68,44
58560,note_on,960,0,2,,,,,,,,,,,,,,,0,,,59,0
58560,control_change,0,0,2,,,,,,,,,,,,,,,0,64,0,,
59040,note_on,0,0,2,,,,,,,,,,,,,,,0,,,52,0
59040,note_on,480,0,1,,,,,,,,,,,,,,,0,,,68,0
59040,note_on,0,0,1,,,,,,,,,,,,,,,0,,,64,0
59040,note_on,0,0,1,,,,,,,,,,,,,,,0,,,64,50
59040,note_on,0,0,1,,,,,,,,,,,,,,,0,,,68,50
59040,note_on,0,0,2,,,,,,,,,,,,,,,0,,,52,32
59040,note_on,0,0,2,,,,,,,,,,,,,,,0,,,59,36
59040,note_on,480,0,2,,,,,,,,,,,,,,,0,,,59,0
59040,set_tempo,480,1,0,,,,,,,,,,,,463320,,,,,,,
59200,set_tempo,160,1,0,,,,,,,,,,,,465116,,,,,,,
59360,set_tempo,160,1,0,,,,,,,,,,,,466926,,,,,,,
59500,set_tempo,140,1,0,,,,,,,,,,,,468750,,,,,,,
59660,set_tempo,160,1,0,,,,,,,,,,,,470588,,,,,,,
59760,note_on,0,0,1,,,,,,,,,,,,,,,0,,,63,45
59760,note_on,720,0,1,,,,,,,,,,,,,,,0,,,64,0
59820,set_tempo,160,1,0,,,,,,,,,,,,472441,,,,,,,
59960,set_tempo,140,1,0,,,,,,,,,,,,474308,,,,,,,
60000,note_on,0,0,2,,,,,,,,,,,,,,,0,,,52,0
60000,note_on,0,0,2,,,,,,,,,,,,,,,0,,,52,25
60000,note_on,0,0,2,,,,,,,,,,,,,,,0,,,56,28
60000,note_on,0,0,1,,,,,,,,,,,,,,,0,,,62,42
60000,note_on,0,0,1,,,,,,,,,,,,,,,0,,,68,0
60000,note_on,240,0,1,,,,,,,,,,,,,,,0,,,63,0
60000,note_on,0,0,1,,,,,,,,,,,,,,,0,,,68,42
60000,set_tempo,40,1,0,,,,,,,,,,,,535714,,,,,,,
60000,note_on,960,0,2,,,,,,,,,,,,,,,0,,,59,0
60480,note_on,0,0,1,,,,,,,,,,,,,,,0,,,63,39
60480,note_on,480,0,1,,,,,,,,,,,,,,,0,,,68,0
60480,note_on,0,0,1,,,,,,,,,,,,,,,0,,,62,0
60480,note_on,0,0,1,,,,,,,,,,,,,,,0,,,68,44
60480,set_tempo,480,1,0,,,,,,,,,,,,461538,,,,,,,
60480,note_on,480,0,2,,,,,,,,,,,,,,,0,,,56,0
60480,note_on,0,0,2,,,,,,,,,,,,,,,0,,,52,0
60480,note_on,0,0,2,,,,,,,,,,,,,,,0,,,51,32
60480,note_on,0,0,2,,,,,,,,,,,,,,,0,,,58,36
61920,note_on,0,0,1,,,,,,,,,,,,,,,0,,,67,39
61920,note_on,1440,0,1,,,,,,,,,,,,,,,0,,,68,0
62400,note_on,1920,0,2,,,,,,,,,,,,,,,0,,,58,0
62400,note_on,0,0,2,,,,,,,,,,,,,,,0,,,51,0
62640,note_on,720,0,1,,,,,,,,,,,,,,,0,,,67,0
62640,note_on,0,0,1,,,,,,,,,,,,,,,0,,,68,39
62640,set_tempo,2160,1,0,,,,,,,,,,,,415225,,,,,,,
62880,note_on,240,0,1,,,,,,,,,,,,,,,0,,,68,0
62880,note_on,0,0,1,,,,,,,,,,,,,,,0,,,70,42
62880,note_on,0,0,1,,,,,,,,,,,,,,,0,,,63,0
63120,note_on,240,0,1,,,,,,,,,,,,,,,0,,,70,0
63120,note_on,0,0,1,,,,,,,,,,,,,,,0,,,72,45
63360,set_tempo,720,1,0,,,,,,,,,,,,430108,,,,,,,
63360,note_on,240,0,1,,,,,,,,,,,,,,,0,,,72,0
63360,note_on,0,0,1,,,,,,,,,,,,,,,0,,,65,43
63360,note_on,0,0,1,,,,,,,,,,,,,,,0,,,68,43
63360,note_on,0,0,1,,,,,,,,,,,,,,,0,,,73,48
63360,note_on,0,0,2,,,,,,,,,,,,,,,0,,,61,36
63360,note_on,0,0,2,,,,,,,,,,,,,,,0,,,56,32
63360,note_on,0,0,2,,,,,,,,,,,,,,,0,,,53,32
63360,note_on,960,0,2,,,,,,,,,,,,,,,0,,,51,32
63613,control_change,253,0,2,,,,,,,,,,,,,,,0,64,127,,
64320,note_on,707,0,2,,,,,,,,,,,,,,,0,,,61,0
64320,note_on,0,0,2,,,,,,,,,,,,,,,0,,,56,0
64320,control_change,0,0,2,,,,,,,,,,,,,,,0,64,0,,
64320,note_on,0,0,2,,,,,,,,,,,,,,,0,,,51,32
64320,note_on,0,0,2,,,,,,,,,,,,,,,0,,,61,36
64320,note_on,0,0,2,,,,,,,,,,,,,,,0,,,56,32
64320,note_on,0,0,2,,,,,,,,,,,,,,,0,,,51,0
64320,note_on,0,0,1,,,,,,,,,,,,,,,0,,,73,49
64320,note_on,0,0,1,,,,,,,,,,,,,,,0,,,68,44
64320,note_on,0,0,1,,,,,,,,,,,,,,,0,,,65,44
64320,note_on,0,0,1,,,,,,,,,,,,,,,0,,,65,0
64320,note_on,0,0,1,,,,,,,,,,,,,,,0,,,68,0
64320,note_on,960,0,1,,,,,,,,,,,,,,,0,,,73,0
64320,note_on,0,0,2,,,,,,,,,,,,,,,0,,,53,32
64320,note_on,0,0,2,,,,,,,,,,,,,,,0,,,53,0
64800,note_on,0,0,1,,,,,,,,,,,,,,,0,,,67,45
64800,note_on,0,0,1,,,,,,,,,,,,,,,0,,,75,55
64800,note_on,0,0,1,,,,,,,,,,,,,,,0,,,65,0
64800,note_on,0,0,1,,,,,,,,,,,,,,,0,,,68,0
64800,note_on,480,0,1,,,,,,,,,,,,,,,0,,,73,0
64800,note_on,0,0,1,,,,,,,,,,,,,,,0,,,70,45
64800,note_on,480,0,2,,,,,,,,,,,,,,,0,,,61,0
64800,note_on,0,0,2,,,,,,,,,,,,,,,0,,,55,36
64800,note_on,0,0,2,,,,,,,,,,,,,,,0,,,53,0
64800,note_on,0,0,2,,,,,,,,,,,,,,,0,,,56,0
64800,note_on,0,0,2,,,,,,,,,,,,,,,0,,,61,40
64800,note_on,0,0,2,,,,,,,,,,,,,,,0,,,58,36
64800,note_on,0,0,2,,,,,,,,,,,,,,,0,,,51,0
64800,note_on,0,0,2,,,,,,,,,,,,,,,0,,,51,36
64800,set_tempo,1440,1,0,,,,,,,,,,,,463320,,,,,,,
64920,note_on,0,0,1,,,,,,,,,,,,,,,0,,,73,50
64920,note_on,120,0,1,,,,,,,,,,,,,,,0,,,75,0
65040,note_on,120,0,1,,,,,,,,,,,,,,,0,,,73,0
65040,note_on,0,0,1,,,,,,,,,,,,,,,0,,,72,50
65160,note_on,0,0,1,,,,,,,,,,,,,,,0,,,73,50
65160,note_on,120,0,1,,,,,,,,,,,,,,,0,,,72,0
65280,note_on,0,0,1,,,,,,,,,,,,,,,0,,,75,51
65280,set_tempo,480,1,0,,,,,,,,,,,,430108,,,,,,,
65280,note_on,120,0,1,,,,,,,,,,,,,,,0,,,73,0
65760,note_on,0,0,2,,,,,,,,,,,,,,,0,,,58,0
65760,note_on,0,0,1,,,,,,,,,,,,,,,0,,,70,49
65760,note_on,0,0,1,,,,,,,,,,,,,,,0,,,67,44
65760,note_on,0,0,2,,,,,,,,,,,,,,,0,,,61,0
65760,note_on,0,0,1,,,,,,,,,,,,,,,0,,,70,0
65760,note_on,480,0,1,,,,,,,,,,,,,,,0,,,75,0
65760,set_tempo,480,1,0,,,,,,,,,,,,491803,,,,,,,
65760,note_on,960,0,2,,,,,,,,,,,,,,,0,,,51,0
65760,note_on,0,0,1,,,,,,,,,,,,,,,0,,,67,0
65760,note_on,0,0,2,,,,,,,,,,,,,,,0,,,55,0
65760,note_on,0,0,2,,,,,,,,,,,,,,,0,,,63,35
65760,note_on,0,0,2,,,,,,,,,,,,,,,0,,,51,31
66240,note_on,480,0,1,,,,,,,,,,,,,,,0,,,70,0
66240,note_on,0,0,1,,,,,,,,,,,,,,,0,,,67,45
66240,note_on,0,0,1,,,,,,,,,,,,,,,0,,,67,0
66240,note_on,480,0,2,,,,,,,,,,,,,,,0,,,51,0
66240,note_on,0,0,1,,,,,,,,,,,,,,,0,,,70,45
66240,note_on,0,0,2,,,,,,,,,,,,,,,0,,,63,0
66240,note_on,0,0,2,,,,,,,,,,,,,,,0,,,56,33
66240,set_tempo,480,1,0,,,,,,,,,,,,463320,,,,,,,
66240,note_on,0,0,2,,,,,,,,,,,,,,,0,,,63,37
66240,note_on,0,0,1,,,,,,,,,,,,,,,0,,,73,50
67680,note_on,0,0,1,,,,,,,,,,,,,,,0,,,70,0
67680,note_on,0,0,1,,,,,,,,,,,,,,,0,,,67,0
67680,note_on,0,0,1,,,,,,,,,,,,,,,0,,,68,40
67680,note_on,0,0,1,,,,,,,,,,,,,,,0,,,72,45
67680,note_on,1440,0,1,,,,,,,,,,,,,,,0,,,73,0
68160,note_on,1920,0,2,,,,,,,,,,,,,,,0,,,56,0
68160,note_on,0,0,2,,,,,,,,,,,,,,,0,,,63,0
68160,note_on,480,0,1,,,,,,,,,,,,,,,0,,,72,0
68160,note_on,0,0,1,,,,,,,,,,,,,,,0,,,68,0
68640,note_on,480,0,1,,,,,,,,,,,,,,,0,,,68,72
68640,note_on,0,0,1,,,,,,,,,,,,,,,0,,,72,72
68640,note_on,0,0,1,,,,,,,,,,,,,,,0,,,77,80
68640,note_on,0,0,2,,,,,,,,,,,,,,,0,,,60,57
68640,control_change,480,0,2,,,,,,,,,,,,,,,0,64,127,,
68640,note_on,0,0,2,,,,,,,,,,,,,,,0,,,56,57
68640,note_on,0,0,2,,,,,,,,,,,,,,,0,,,65,64
68640,set_tempo,2400,1,0,,,,,,,,,,,,493827,,,,,,,
69120,note_on,480,0,1,,,,,,,,,,,,,,,0,,,77,0
69120,note_on,0,0,1,,,,,,,,,,,,,,,0,,,72,0
69120,note_on,0,0,1,,,,,,,,,,,,,,,0,,,68,0
69120,note_on,0,0,1,,,,,,,,,,,,,,,0,,,68,72
69120,note_on,0,0,1,,,,,,,,,,,,,,,0,,,72,72
69120,note_on,0,0,1,,,,,,,,,,,,,,,0,,,77,80
69120,note_on,0,0,2,,,,,,,,,,,,,,,0,,,65,64
69120,note_on,0,0,2,,,,,,,,,,,,,,,0,,,56,57
69120,note_on,480,0,2,,,,,,,,,,,,,,,0,,,65,0
69120,note_on,0,0,2,,,,,,,,,,,,,,,0,,,60,0
69120,note_on,0,0,2,,,,,,,,,,,,,,,0,,,56,0
69120,set_tempo,480,1,0,,,,,,,,,,,,454545,,,,,,,
69120,note_on,0,0,2,,,,,,,,,,,,,,,0,,,60,57
70080,note_on,0,0,1,,,,,,,,,,,,,,,0,,,68,0
70080,note_on,0,0,1,,,,,,,,,,,,,,,0,,,68,72
70080,note_on,0,0,1,,,,,,,,,,,,,,,0,,,72,72
70080,note_on,0,0,1,,,,,,,,,,,,,,,0,,,77,80
70080,note_on,0,0,1,,,,,,,,,,,,,,,0,,,72,0
70080,control_change,0,0,2,,,,,,,,,,,,,,,0,64,0,,
70080,note_on,960,0,1,,,,,,,,,,,,,,,0,,,77,0
70080,note_on,0,0,2,,,,,,,,,,,,,,,0,,,60,57
70080,note_on,960,0,2,,,,,,,,,,,,,,,0,,,65,0
70080,set_tempo,960,1,0,,,,,,,,,,,,533333,,,,,,,
70080,note_on,0,0,2,,,,,,,,,,,,,,,0,,,56,57
70080,note_on,0,0,2,,,,,,,,,,,,,,,0,,,60,0
70080,note_on,0,0,2,,,,,,,,,,,,,,,0,,,56,0
70080,note_on,0,0,2,,,,,,,,,,,,,,,0,,,65,64
70560,set_tempo,480,1,0,,,,,,,,,,,,454545,,,,,,,
70560,note_on,480,0,1,,,,,,,,,,,,,,,0,,,77,0
70560,note_on,0,0,1,,,,,,,,,,,,,,,0,,,72,0
70560,note_on,0,0,1,,,,,,,,,,,,,,,0,,,68,0
70560,note_on,0,0,1,,,,,,,,,,,,,,,0,,,68,77
70560,note_on,0,0,1,,,,,,,,,,,,,,,0,,,72,77
70560,note_on,0,0,2,,,,,,,,,,,,,,,0,,,60,68
70560,note_on,0,0,2,,,,,,,,,,,,,,,0,,,56,61
70560,note_on,0,0,2,,,,,,,,,,,,,,,0,,,60,0
70560,note_on,480,0,2,,,,,,,,,,,,,,,0,,,65,0
70560,note_on,0,0,1,,,,,,,,,,,,,,,0,,,80,86
70560,note_on,0,0,2,,,,,,,,,,,,,,,0,,,56,0
71280,note_on,0,0,1,,,,,,,,,,,,,,,0,,,67,72
71280,note_on,720,0,1,,,,,,,,,,,,,,,0,,,80,0
71280,note_on,0,0,1,,,,,,,,,,,,,,,0,,,79,80
71520,note_on,240,0,1,,,,,,,,,,,,,,,0,,,79,0
71520,note_on,0,0,1,,,,,,,,,,,,,,,0,,,68,0
71520,note_on,0,0,1,,,,,,,,,,,,,,,0,,,67,0
71520,note_on,0,0,1,,,,,,,,,,,,,,,0,,,77,75
71520,note_on,0,0,1,,,,,,,,,,,,,,,0,,,72,67
71520,note_on,0,0,1,,,,,,,,,,,,,,,0,,,68,67
71520,note_on,0,0,2,,,,,,,,,,,,,,,0,,,60,60
71520,note_on,0,0,2,,,,,,,,,,,,,,,0,,,56,54
71520,note_on,0,0,2,,,,,,,,,,,,,,,0,,,56,0
71520,note_on,960,0,2,,,,,,,,,,,,,,,0,,,60,0
71520,note_on,0,0,1,,,,,,,,,,,,,,,0,,,65,67
71520,note_on,0,0,1,,,,,,,,,,,,,,,0,,,72,0
71520,set_tempo,960,1,0,,,,,,,,,,,,500000,,,,,,,
72000,note_on,480,0,1,,,,,,,,,,,,,,,0,,,65,0
72000,note_on,0,0,1,,,,,,,,,,,,,,,0,,,67,72
72000,note_on,0,0,1,,,,,,,,,,,,,,,0,,,70,72
72000,note_on,0,0,1,,,,,,,,,,,,,,,0,,,73,72
72000,note_on,0,0,1,,,,,,,,,,,,,,,0,,,77,80
72000,note_on,0,0,1,,,,,,,,,,,,,,,0,,,68,0
72000,note_on,0,0,1,,,,,,,,,,,,,,,0,,,72,0
72000,note_on,0,0,1,,,,,,,,,,,,,,,0,,,77,0
72000,set_tempo,480,1,0,,,,,,,,,,,,454545,,,,,,,
72000,note_on,0,0,2,,,,,,,,,,,,,,,0,,,56,0
72000,note_on,0,0,2,,,,,,,,,,,,,,,0,,,65,64
72000,note_on,0,0,2,,,,,,,,,,,,,,,0,,,61,57
72000,note_on,0,0,2,,,,,,,,,,,,,,,0,,,58,57
72000,note_on,0,0,2,,,,,,,,,,,,,,,0,,,55,57
72000,note_on,480,0,2,,,,,,,,,,,,,,,0,,,60,0
74400,set_tempo,2400,1,0,,,,,,,,,,,,535714,,,,,,,
74400,note_on,0,0,1,,,,,,,,,,,,,,,0,,,76,54
74400,note_on,2400,0,2,,,,,,,,,,,,,,,0,,,65,0
74400,note_on,0,0,2,,,,,,,,,,,,,,,0,,,64,44
74400,note_on,2400,0,1,,,,,,,,,,,,,,,0,,,77,0
74880,note_on,0,0,1,,,,,,,,,,,,,,,0,,,67,0
74880,note_on,0,0,1,,,,,,,,,,,,,,,0,,,70,0
74880,note_on,0,0,1,,,,,,,,,,,,,,,0,,,73,0
74880,note_on,480,0,2,,,,,,,,,,,,,,,0,,,64,0
74880,note_on,0,0,1,,,,,,,,,,,,,,,0,,,75,47
74880,set_tempo,480,1,0,,,,,,,,,,,,508475,,,,,,,
74880,note_on,0,0,2,,,,,,,,,,,,,,,0,,,55,0
74880,note_on,0,0,2,,,,,,,,,,,,,,,0,,,58,0
74880,note_on,0,0,2,,,,,,,,,,,,,,,0,,,61,0
74880,note_on,0,0,2,,,,,,,,,,,,,,,0,,,63,36
74880,note_on,0,0,2,,,,,,,,,,,,,,,0,,,55,32
74880,note_on,480,0,1,,,,,,,,,,,,,,,0,,,76,0
74880,note_on,0,0,1,,,,,,,,,,,,,,,0,,,70,42
75840,set_tempo,960,1,0,,,,,,,,,,,,576923,,,,,,,
75840,note_on,0,0,1,,,,,,,,,,,,,,,0,,,74,43
75840,note_on,960,0,1,,,,,,,,,,,,,,,0,,,75,0
76320,set_tempo,480,1,0,,,,,,,,,,,,500000,,,,,,,
76320,note_on,0,0,1,,,,,,,,,,,,,,,0,,,73,37
76320,note_on,480,0,1,,,,,,,,,,,,,,,0,,,74,0
77280,note_on,0,0,1,,,,,,,,,,,,,,,0,,,68,40
77280,note_on,0,0,1,,,,,,,,,,,,,,,0,,,63,40
77280,note_on,0,0,1,,,,,,,,,,,,,,,0,,,70,0
77280,note_on,960,0,1,,,,,,,,,,,,,,,0,,,73,0
77280,set_tempo,960,1,0,,,,,,,,,,,,579710,,,,,,,
77280,note_on,2400,0,2,,,,,,,,,,,,,,,0,,,55,0
77280,note_on,0,0,2,,,,,,,,,,,,,,,0,,,63,0
77280,note_on,0,0,1,,,,,,,,,,,,,,,0,,,72,45
77280,note_on,0,0,2,,,,,,,,,,,,,,,0,,,56,36
77760,note_on,480,0,2,,,,,,,,,,,,,,,0,,,56,0
77760,note_on,0,0,2,,,,,,,,,,,,,,,0,,,61,37
77760,note_on,0,0,1,,,,,,,,,,,,,,,0,,,68,42
77760,note_on,0,0,1,,,,,,,,,,,,,,,0,,,63,0
77760,set_tempo,480,1,0,,,,,,,,,,,,465188,,,,,,,
77760,note_on,480,0,1,,,,,,,,,,,,,,,0,,,72,0
77760,note_on,0,0,1,,,,,,,,,,,,,,,0,,,68,0
77760,note_on,0,0,1,,,,,,,,,,,,,,,0,,,65,42
77760,note_on,0,0,1,,,,,,,,,,,,,,,0,,,72,47
77973,control_change,213,0,2,,,,,,,,,,,,,,,0,64,127,,
79200,control_change,1227,0,2,,,,,,,,,,,,,,,0,64,0,,
79200,note_on,0,0,1,,,,,,,,,,,,,,,0,,,70,44
79200,note_on,1440,0,1,,,,,,,,,,,,,,,0,,,72,0
79680,note_on,0,0,1,,,,,,,,,,,,,,,0,,,68,0
79680,note_on,0,0,1,,,,,,,,,,,,,,,0,,,65,0
79680,note_on,480,0,1,,,,,,,,,,,,,,,0,,,70,0
79680,note_on,480,0,2,,,,,,,,,,,,,,,0,,,61,0
80160,note_on,480,0,1,,,,,,,,,,,,,,,0,,,77,50
80160,note_on,0,0,2,,,,,,,,,,,,,,,0,,,61,36
80160,note_on,0,0,1,,,,,,,,,,,,,,,0,,,70,45
80160,note_on,0,0,1,,,,,,,,,,,,,,,0,,,67,45
80160,set_tempo,2400,1,0,,,,,,,,,,,,548697,,,,,,,
80160,note_on,480,0,2,,,,,,,,,,,,,,,0,,,65,40
80640,note_on,480,0,2,,,,,,,,,,,,,,,0,,,61,0
80640,note_on,0,0,2,,,,,,,,,,,,,,,0,,,65,0
80640,note_on,0,0,2,,,,,,,,,,,,,,,0,,,65,40
80640,note_on,0,0,1,,,,,,,,,,,,,,,0,,,77,52
80640,note_on,0,0,2,,,,,,,,,,,,,,,0,,,60,36
80640,note_on,0,0,1,,,,,,,,,,,,,,,0,,,72,46
80640,note_on,480,0,1,,,,,,,,,,,,,,,0,,,67,0
80640,note_on,0,0,1,,,,,,,,,,,,,,,0,,,70,0
80640,set_tempo,480,1,0,,,,,,,,,,,,465188,,,,,,,
80640,note_on,0,0,1,,,,,,,,,,,,,,,0,,,77,0
80640,note_on,0,0,1,,,,,,,,,,,,,,,0,,,68,46
80853,control_change,213,0,2,,,,,,,,,,,,,,,0,64,127,,
82080,note_on,1227,0,2,,,,,,,,,,,,,,,0,,,65,0
82080,note_on,1440,0,1,,,,,,,,,,,,,,,0,,,77,0
82080,note_on,0,0,1,,,,,,,,,,,,,,,0,,,75,48
82080,note_on,0,0,2,,,,,,,,,,,,,,,0,,,63,38
82108,control_change,28,0,2,,,,,,,,,,,,,,,0,64,0,,
82560,note_on,452,0,2,,,,,,,,,,,,,,,0,,,63,0
82560,note_on,0,0,2,,,,,,,,,,,,,,,0,,,60,0
82560,note_on,480,0,1,,,,,,,,,,,,,,,0,,,75,0
82560,note_on,0,0,1,,,,,,,,,,,,,,,0,,,72,0
82560,note_on,0,0,1,,,,,,,,,,,,,,,0,,,68,0
82688,control_change,128,0,2,,,,,,,,,,,,,,,0,64,127,,
82800,set_tempo,2160,1,0,,,,,,,,,,,,401687,,,,,,,
82800,note_on,240,0,1,,,,,,,,,,,,,,,0,,,60,43
82800,note_on,0,0,1,,,,,,,,,,,,,,,0,,,63,48
82800,note_on,112,0,2,,,,,,,,,,,,,,,0,,,56,37
83040,note_on,0,0,1,,,,,,,,,,,,,,,0,,,68,50
83040,note_on,240,0,1,,,,,,,,,,,,,,,0,,,63,0
83040,note_on,0,0,2,,,,,,,,,,,,,,,0,,,51,39
83040,note_on,240,0,2,,,,,,,,,,,,,,,0,,,56,0
83280,note_on,0,0,1,,,,,,,,,,,,,,,0,,,72,52
83280,note_on,240,0,1,,,,,,,,,,,,,,,0,,,68,0
83280,note_on,0,0,2,,,,,,,,,,,,,,,0,,,48,40
83280,note_on,240,0,2,,,,,,,,,,,,,,,0,,,51,0
83408,control_change,128,0,2,,,,,,,,,,,,,,,0,64,0,,
83520,note_on,0,0,1,,,,,,,,,,,,,,,0,,,60,0
83520,set_tempo,720,1,0,,,,,,,,,,,,446097,,,,,,,
83520,note_on,0,0,1,,,,,,,,,,,,,,,0,,,73,54
83520,note_on,240,0,1,,,,,,,,,,,,,,,0,,,72,0
83520,note_on,0,0,1,,,,,,,,,,,,,,,0,,,61,48
83520,note_on,112,0,2,,,,,,,,,,,,,,,0,,,48,0
83520,note_on,0,0,2,,,,,,,,,,,,,,,0,,,46,37
83520,note_on,0,0,1,,,,,,,,,,,,,,,0,,,67,48
83520,note_on,0,0,1,,,,,,,,,,,,,,,0,,,63,48
83520,note_on,0,0,2,,,,,,,,,,,,,,,0,,,51,37
83520,note_on,0,0,2,,,,,,,,,,,,,,,0,,,55,42
84480,note_on,0,0,1,,,,,,,,,,,,,,,0,,,72,56
84480,note_on,0,0,2,,,,,,,,,,,,,,,0,,,56,45
84480,note_on,0,0,2,,,,,,,,,,,,,,,0,,,51,40
84480,note_on,960,0,1,,,,,,,,,,,,,,,0,,,73,0
84480,note_on,0,0,1,,,,,,,,,,,,,,,0,,,61,0
84480,note_on,0,0,2,,,,,,,,,,,,,,,0,,,44,40
84480,note_on,0,0,2,,,,,,,,,,,,,,,0,,,46,0
84480,set_tempo,960,1,0,,,,,,,,,,,,524017,,,,,,,
84480,note_on,0,0,1,,,,,,,,,,,,,,,0,,,63,0
84480,note_on,0,0,1,,,,,,,,,,,,,,,0,,,67,0
84480,note_on,0,0,1,,,,,,,,,,,,,,,0,,,60,50
84480,note_on,0,0,1,,,,,,,,,,,,,,,0,,,63,50
84480,note_on,0,0,1,,,,,,,,,,,,,,,0,,,68,50
84480,note_on,0,0,2,,,,,,,,,,,,,,,0,,,51,0
84480,note_on,960,0,2,,,,,,,,,,,,,,,0,,,55,0
84960,note_on,0,0,1,,,,,,,,,,,,,,,0,,,63,51
84960,set_tempo,480,1,0,,,,,,,,,,,,434468,,,,,,,
84960,note_on,0,0,1,,,,,,,,,,,,,,,0,,,58,51
84960,note_on,0,0,1,,,,,,,,,,,,,,,0,,,60,0
84960,note_on,0,0,1,,,,,,,,,,,,,,,0,,,63,0
84960,note_on,0,0,1,,,,,,,,,,,,,,,0,,,68,0
84960,note_on,480,0,2,,,,,,,,,,,,,,,0,,,56,0
84960,note_on,0,0,2,,,,,,,,,,,,,,,0,,,51,0
84960,note_on,0,0,2,,,,,,,,,,,,,,,0,,,44,0
84960,note_on,0,0,2,,,,,,,,,,,,,,,0,,,43,41
84960,note_on,0,0,2,,,,,,,,,,,,,,,0,,,51,41
84960,note_on,0,0,2,,,,,,,,,,,,,,,0,,,55,46
84960,note_on,0,0,1,,,,,,,,,,,,,,,0,,,70,57
84960,note_on,480,0,1,,,,,,,,,,,,,,,0,,,72,0
85920,set_tempo,960,1,0,,,,,,,,,,,,568720,,,,,,,
85920,note_on,960,0,2,,,,,,,,,,,,,,,0,,,55,0
85920,note_on,0,0,2,,,,,,,,,,,,,,,0,,,51,0
85920,note_on,0,0,2,,,,,,,,,,,,,,,0,,,41,45
85920,note_on,0,0,1,,,,,,,,,,,,,,,0,,,74,62
85920,note_on,0,0,1,,,,,,,,,,,,,,,0,,,68,55
85920,note_on,0,0,1,,,,,,,,,,,,,,,0,,,70,55
85920,note_on,0,0,2,,,,,,,,,,,,,,,0,,,43,0
85920,note_on,0,0,1,,,,,,,,,,,,,,,0,,,58,0
85920,note_on,0,0,1,,,,,,,,,,,,,,,0,,,63,0
85920,note_on,960,0,1,,,,,,,,,,,,,,,0,,,70,0
85920,note_on,0,0,1,,,,,,,,,,,,,,,0,,,62,55
85920,note_on,0,0,2,,,,,,,,,,,,,,,0,,,53,50
85920,note_on,0,0,2,,,,,,,,,,,,,,,0,,,46,45
86400,note_on,0,0,2,,,,,,,,,,,,,,,0,,,46,48
86400,note_on,0,0,1,,,,,,,,,,,,,,,0,,,74,69
86400,note_on,0,0,1,,,,,,,,,,,,,,,0,,,68,62
86400,note_on,0,0,1,,,,,,,,,,,,,,,0,,,70,62
86400,note_on,0,0,1,,,,,,,,,,,,,,,0,,,62,62
86400,note_on,0,0,1,,,,,,,,,,,,,,,0,,,68,0
86400,note_on,0,0,1,,,,,,,,,,,,,,,0,,,70,0
86400,note_on,0,0,1,,,,,,,,,,,,,,,0,,,62,0
86400,note_on,480,0,1,,,,,,,,,,,,,,,0,,,74,0
86400,note_on,480,0,2,,,,,,,,,,,,,,,0,,,53,0
86400,note_on,0,0,2,,,,,,,,,,,,,,,0,,,46,0
86400,note_on,0,0,2,,,,,,,,,,,,,,,0,,,41,0
86400,note_on,0,0,2,,,,,,,,,,,,,,,0,,,39,48
86400,note_on,0,0,2,,,,,,,,,,,,,,,0,,,51,54
86400,set_tempo,480,1,0,,,,,,,,,,,,506885,,,,,,,
86667,control_change,267,0,2,,,,,,,,,,,,,,,0,64,127,,
87840,control_change,1173,0,2,,,,,,,,,,,,,,,0,64,0,,
87840,set_tempo,1440,1,0,,,,,,,,,,,,465188,,,,,,,
87840,note_on,1440,0,1,,,,,,,,,,,,,,,0,,,74,0
87840,note_on,0,0,1,,,,,,,,,,,,,,,0,,,68,0
87840,note_on,0,0,1,,,,,,,,,,,,,,,0,,,62,0
87840,note_on,0,0,1,,,,,,,,,,,,,,,0,,,67,40
87840,note_on,0,0,1,,,,,,,,,,,,,,,0,,,63,40
87840,note_on,0,0,1,,,,,,,,,,,,,,,0,,,75,45
88320,note_on,0,0,1,,,,,,,,,,,,,,,0,,,67,0
88320,note_on,480,0,2,,,,,,,,,,,,,,,0,,,51,0
88320,note_on,0,0,2,,,,,,,,,,,,,,,0,,,46,0
88320,note_on,0,0,2,,,,,,,,,,,,,,,0,,,39,0
88320,note_on,0,0,1,,,,,,,,,,,,,,,0,,,63,0
88320,note_on,0,0,1,,,,,,,,,,,,,,,0,,,70,0
88320,note_on,480,0,1,,,,,,,,,,,,,,,0,,,75,0
88800,note_on,480,0,1,,,,,,,,,,,,,,,0,,,63,65
88800,note_on,0,0,2,,,,,,,,,,,,,,,0,,,44,56
88800,note_on,480,0,2,,,,,,,,,,,,,,,0,,,32,50
88800,set_tempo,960,1,0,,,,,,,,,,,,582524,,,,,,,
88800,note_on,0,0,1,,,,,,,,,,,,,,,0,,,68,65
88800,note_on,0,0,1,,,,,,,,,,,,,,,0,,,72,73
89280,note_on,0,0,2,,,,,,,,,,,,,,,0,,,37,57
89280,note_on,0,0,1,,,,,,,,,,,,,,,0,,,64,72
89280,note_on,0,0,1,,,,,,,,,,,,,,,0,,,68,0
89280,note_on,0,0,1,,,,,,,,,,,,,,,0,,,63,0
89280,note_on,0,0,2,,,,,,,,,,,,,,,0,,,49,64
89280,note_on,0,0,1,,,,,,,,,,,,,,,0,,,68,72
89280,note_on,0,0,1,,,,,,,,,,,,,,,0,,,72,81
89280,note_on,0,0,2,,,,,,,,,,,,,,,0,,,32,0
89280,note_on,480,0,2,,,,,,,,,,,,,,,0,,,44,0
89280,set_tempo,480,1,0,,,,,,,,,,,,451128,,,,,,,
89280,note_on,480,0,1,,,,,,,,,,,,,,,0,,,72,0
89486,control_change,206,0,2,,,,,,,,,,,,,,,0,64,127,,
90480,note_on,1200,0,1,,,,,,,,,,,,,,,0,,,72,0
90480,note_on,0,0,1,,,,,,,,,,,,,,,0,,,71,53
90720,control_change,1234,0,2,,,,,,,,,,,,,,,0,64,0,,
90720,note_on,0,0,1,,,,,,,,,,,,,,,0,,,70,50
90720,note_on,240,0,1,,,,,,,,,,,,,,,0,,,71,0
90720,set_tempo,1440,1,0,,,,,,,,,,,,461538,,,,,,,
91200,note_on,480,0,2,,,,,,,,,,,,,,,0,,,49,0
91200,note_on,0,0,1,,,,,,,,,,,,,,,0,,,68,0
91200,note_on,0,0,2,,,,,,,,,,,,,,,0,,,37,0
91200,note_on,0,0,1,,,,,,,,,,,,,,,0,,,64,0
91200,note_on,480,0,1,,,,,,,,,,,,,,,0,,,70,0
91680,note_on,0,0,1,,,,,,,,,,,,,,,0,,,68,65
91680,note_on,480,0,1,,,,,,,,,,,,,,,0,,,63,65
91680,note_on,0,0,2,,,,,,,,,,,,,,,0,,,44,56
91680,note_on,480,0,2,,,,,,,,,,,,,,,0,,,32,50
91680,set_tempo,960,1,0,,,,,,,,,,,,526316,,,,,,,
91680,note_on,0,0,1,,,,,,,,,,,,,,,0,,,72,73
92160,note_on,480,0,2,,,,,,,,,,,,,,,0,,,44,0
92160,note_on,0,0,2,,,,,,,,,,,,,,,0,,,37,57
92160,set_tempo,480,1,0,,,,,,,,,,,,451128,,,,,,,
92160,note_on,0,0,2,,,,,,,,,,,,,,,0,,,32,0
92160,note_on,480,0,1,,,,,,,,,,,,,,,0,,,72,0
92160,note_on,0,0,1,,,,,,,,,,,,,,,0,,,68,0
92160,note_on,0,0,1,,,,,,,,,,,,,,,0,,,63,0
92160,note_on,0,0,1,,,,,,,,,,,,,,,0,,,64,72
92160,note_on,0,0,1,,,,,,,,,,,,,,,0,,,68,72
92160,note_on,0,0,1,,,,,,,,,,,,,,,0,,,72,81
92160,note_on,0,0,2,,,,,,,,,,,,,,,0,,,49,64
92309,control_change,149,0,2,,,,,,,,,,,,,,,0,64,127,,
93360,note_on,0,0,1,,,,,,,,,,,,,,,0,,,71,54
93360,note_on,1200,0,1,,,,,,,,,,,,,,,0,,,72,0
93600,note_on,240,0,1,,,,,,,,,,,,,,,0,,,71,0
93600,set_tempo,1440,1,0,,,,,,,,,,,,442804,,,,,,,
93600,control_change,1291,0,2,,,,,,,,,,,,,,,0,64,0,,
93600,note_on,0,0,1,,,,,,,,,,,,,,,0,,,70,51
94080,set_tempo,480,1,0,,,,,,,,,,,,439560,,,,,,,
94080,note_on,480,0,2,,,,,,,,,,,,,,,0,,,49,0
94080,note_on,0,0,2,,,,,,,,,,,,,,,0,,,37,0
94080,note_on,0,0,1,,,,,,,,,,,,,,,0,,,64,0
94080,note_on,0,0,1,,,,,,,,,,,,,,,0,,,68,0
94080,note_on,480,0,1,,,,,,,,,,,,,,,0,,,70,0
94560,control_change,480,0,2,,,,,,,,,,,,,,,0,64,127,,
94560,note_on,0,0,1,,,,,,,,,,,,,,,0,,,68,80
94560,set_tempo,480,1,0,,,,,,,,,,,,461538,,,,,,,
94560,note_on,0,0,2,,,,,,,,,,,,,,,0,,,50,69
94560,note_on,480,0,1,,,,,,,,,,,,,,,0,,,64,80
94560,note_on,0,0,1,,,,,,,,,,,,,,,0,,,71,89
94560,note_on,0,0,2,,,,,,,,,,,,,,,0,,,38,62
95040,key_signature,480,1,0,,,,,,,,,,,E,,,,,,,,
95520,note_on,0,0,1,,,,,,,,,,,,,,,0,,,68,81
95520,note_on,0,0,1,,,,,,,,,,,,,,,0,,,64,81
95520,note_on,0,0,1,,,,,,,,,,,,,,,0,,,64,0
95520,note_on,0,0,1,,,,,,,,,,,,,,,0,,,68,0
95520,note_on,960,0,1,,,,,,,,,,,,,,,0,,,71,0
95520,set_tempo,480,1,0,,,,,,,,,,,,449438,,,,,,,
95520,note_on,960,0,2,,,,,,,,,,,,,,,0,,,50,0
95520,note_on,0,0,2,,,,,,,,,,,,,,,0,,,38,0
95520,note_on,0,0,2,,,,,,,,,,,,,,,0,,,38,63
95520,note_on,0,0,2,,,,,,,,,,,,,,,0,,,50,71
95520,note_on,0,0,1,,,,,,,,,,,,,,,0,,,71,90
96000,note_on,0,0,2,,,,,,,,,,,,,,,0,,,38,63
96000,note_on,480,0,2,,,,,,,,,,,,,,,0,,,50,0
96000,note_on,0,0,2,,,,,,,,,,,,,,,0,,,38,0
96000,note_on,0,0,2,,,,,,,,,,,,,,,0,,,50,70
96000,note_on,0,0,1,,,,,,,,,,,,,,,0,,,68,79
96000,note_on,0,0,1,,,,,,,,,,,,,,,0,,,71,88
96000,note_on,0,0,1,,,,,,,,,,,,,,,0,,,64,0
96000,note_on,0,0,1,,,,,,,,,,,,,,,0,,,68,0
96000,note_on,480,0,1,,,,,,,,,,,,,,,0,,,71,0
96000,note_on,0,0,1,,,,,,,,,,,,,,,0,,,64,79
96480,note_on,480,0,1,,,,,,,,,,,,,,,0,,,71,0
96480,note_on,0,0,1,,,,,,,,,,,,,,,0,,,68,0
96480,note_on,0,0,1,,,,,,,,,,,,,,,0,,,64,0
96480,note_on,0,0,1,,,,,,,,,,,,,,,0,,,64,76
96480,note_on,0,0,1,,,,,,,,,,,,,,,0,,,68,76
96480,note_on,0,0,1,,,,,,,,,,,,,,,0,,,71,85
96480,note_on,0,0,2,,,,,,,,,,,,,,,0,,,38,0
96480,note_on,480,0,2,,,,,,,,,,,,,,,0,,,50,0
96480,set_tempo,960,1,0,,,,,,,,,,,,439560,,,,,,,
96480,control_change,0,0,2,,,,,,,,,,,,,,,0,64,0,,
96480,note_on,0,0,2,,,,,,,,,,,,,,,0,,,38,61
96480,note_on,0,0,2,,,,,,,,,,,,,,,0,,,50,68
96960,note_on,0,0,1,,,,,,,,,,,,,,,0,,,64,0
96960,note_on,480,0,1,,,,,,,,,,,,,,,0,,,71,0
96960,note_on,0,0,1,,,,,,,,,,,,,,,0,,,68,0
96960,note_on,0,0,2,,,,,,,,,,,,,,,0,,,37,67
96960,note_on,0,0,1,,,,,,,,,,,,,,,0,,,64,83
96960,note_on,0,0,1,,,,,,,,,,,,,,,0,,,73,93
96960,note_on,0,0,2,,,,,,,,,,,,,,,0,,,38,0
96960,note_on,0,0,2,,,,,,,,,,,,,,,0,,,49,75
96960,set_tempo,480,1,0,,,,,,,,,,,,444444,,,,,,,
96960,note_on,0,0,1,,,,,,,,,,,,,,,0,,,69,83
96960,note_on,480,0,2,,,,,,,,,,,,,,,0,,,50,0
97440,note_on,0,0,1,,,,,,,,,,,,,,,0,,,74,98
97440,set_tempo,480,1,0,,,,,,,,,,,,447761,,,,,,,
97440,note_on,0,0,2,,,,,,,,,,,,,,,0,,,37,0
97440,note_on,480,0,1,,,,,,,,,,,,,,,0,,,73,0
97440,note_on,0,0,1,,,,,,,,,,,,,,,0,,,64,0
97440,note_on,0,0,1,,,,,,,,,,,,,,,0,,,64,88
97440,note_on,0,0,1,,,,,,,,,,,,,,,0,,,71,88
97440,note_on,0,0,2,,,,,,,,,,,,,,,0,,,47,78
97440,note_on,0,0,2,,,,,,,,,,,,,,,0,,,35,70
97440,note_on,480,0,2,,,,,,,,,,,,,,,0,,,49,0
97440,note_on,0,0,1,,,,,,,,,,,,,,,0,,,69,0
97920,note_on,0,0,1,,,,,,,,,,,,,,,0,,,71,0
97920,note_on,0,0,1,,,,,,,,,,,,,,,0,,,64,91
97920,note_on,0,0,1,,,,,,,,,,,,,,,0,,,73,91
97920,note_on,0,0,1,,,,,,,,,,,,,,,0,,,76,102
97920,note_on,480,0,1,,,,,,,,,,,,,,,0,,,74,0
97920,set_tempo,480,1,0,,,,,,,,,,,,451128,,,,,,,
97920,note_on,480,0,2,,,,,,,,,,,,,,,0,,,47,0
97920,note_on,0,0,2,,,,,,,,,,,,,,,0,,,35,0
97920,note_on,0,0,2,,,,,,,,,,,,,,,0,,,33,72
97920,note_on,0,0,2,,,,,,,,,,,,,,,0,,,45,80
97920,note_on,0,0,1,,,,,,,,,,,,,,,0,,,64,0
98400,note_on,480,0,2,,,,,,,,,,,,,,,0,,,45,0
98400,note_on,0,0,2,,,,,,,,,,,,,,,0,,,47,74
98400,note_on,0,0,2,,,,,,,,,,,,,,,0,,,35,66
98400,note_on,0,0,1,,,,,,,,,,,,,,,0,,,71,83
98400,note_on,0,0,1,,,,,,,,,,,,,,,0,,,64,83
98400,note_on,0,0,1,,,,,,,,,,,,,,,0,,,64,0
98400,note_on,0,0,1,,,,,,,,,,,,,,,0,,,73,0
98400,note_on,0,0,2,,,,,,,,,,,,,,,0,,,33,0
98400,note_on,480,0,1,,,,,,,,,,,,,,,0,,,76,0
98400,note_on,0,0,1,,,,,,,,,,,,,,,0,,,74,93
98880,note_on,0,0,2,,,,,,,,,,,,,,,0,,,37,57
98880,set_tempo,960,1,0,,,,,,,,,,,,510638,,,,,,,
98880,note_on,0,0,2,,,,,,,,,,,,,,,0,,,49,64
98880,note_on,0,0,1,,,,,,,,,,,,,,,0,,,73,80
98880,note_on,0,0,1,,,,,,,,,,,,,,,0,,,69,72
98880,note_on,0,0,1,,,,,,,,,,,,,,,0,,,64,72
98880,note_on,480,0,2,,,,,,,,,,,,,,,0,,,35,0
98880,note_on,0,0,2,,,,,,,,,,,,,,,0,,,47,0
98880,note_on,0,0,1,,,,,,,,,,,,,,,0,,,64,0
98880,note_on,480,0,1,,,,,,,,,,,,,,,0,,,74,0
98880,note_on,0,0,1,,,,,,,,,,,,,,,0,,,71,0
99360,note_on,480,0,1,,,,,,,,,,,,,,,0,,,73,0
99360,note_on,0,0,1,,,,,,,,,,,,,,,0,,,71,58
99360,note_on,0,0,2,,,,,,,,,,,,,,,0,,,51,44
99360,note_on,0,0,2,,,,,,,,,,,,,,,0,,,39,39
99360,note_on,0,0,1,,,,,,,,,,,,,,,0,,,68,52
99360,note_on,0,0,1,,,,,,,,,,,,,,,0,,,63,52
99360,note_on,0,0,2,,,,,,,,,,,,,,,0,,,37,0
99360,note_on,0,0,1,,,,,,,,,,,,,,,0,,,69,0
99360,note_on,480,0,2,,,,,,,,,,,,,,,0,,,49,0
99360,set_tempo,480,1,0,,,,,,,,,,,,444444,,,,,,,
99360,note_on,0,0,1,,,,,,,,,,,,,,,0,,,64,0
100800,note_on,1440,0,1,,,,,,,,,,,,,,,0,,,71,0
100800,note_on,0,0,1,,,,,,,,,,,,,,,0,,,67,42
100800,note_on,0,0,1,,,,,,,,,,,,,,,0,,,70,47
100800,note_on,0,0,1,,,,,,,,,,,,,,,0,,,68,0
101280,set_tempo,1920,1,0,,,,,,,,,,,,485830,,,,,,,
101760,note_on,0,0,2,,,,,,,,,,,,,,,0,,,52,54
101760,note_on,0,0,2,,,,,,,,,,,,,,,0,,,39,0
101760,note_on,2400,0,2,,,,,,,,,,,,,,,0,,,51,0
101760,note_on,0,0,2,,,,,,,,,,,,,,,0,,,59,60
101760,note_on,0,0,2,,,,,,,,,,,,,,,0,,,50,54
101760,note_on,0,0,1,,,,,,,,,,,,,,,0,,,67,0
101760,note_on,960,0,1,,,,,,,,,,,,,,,0,,,70,0
101760,note_on,0,0,2,,,,,,,,,,,,,,,0,,,56,54
101760,set_tempo,480,1,0,,,,,,,,,,,,461538,,,,,,,
101760,note_on,0,0,1,,,,,,,,,,,,,,,0,,,63,0
102720,note_on,0,0,2,,,,,,,,,,,,,,,0,,,59,44
102720,note_on,0,0,2,,,,,,,,,,,,,,,0,,,56,39
102720,note_on,0,0,2,,,,,,,,,,,,,,,0,,,52,39
102720,set_tempo,960,1,0,,,,,,,,,,,,449438,,,,,,,
102720,note_on,0,0,2,,,,,,,,,,,,,,,0,,,56,0
102720,note_on,0,0,2,,,,,,,,,,,,,,,0,,,50,0
102720,note_on,0,0,2,,,,,,,,,,,,,,,0,,,52,0
102720,note_on,960,0,2,,,,,,,,,,,,,,,0,,,59,0
102720,note_on,0,0,2,,,,,,,,,,,,,,,0,,,50,39
103200,note_on,0,0,2,,,,,,,,,,,,,,,0,,,50,39
103200,note_on,480,0,2,,,,,,,,,,,,,,,0,,,59,0
103200,note_on,0,0,2,,,,,,,,,,,,,,,0,,,50,0
103200,note_on,0,0,2,,,,,,,,,,,,,,,0,,,52,0
103200,note_on,0,0,2,,,,,,,,,,,,,,,0,,,56,0
103200,note_on,0,0,2,,,,,,,,,,,,,,,0,,,52,39
103200,note_on,0,0,2,,,,,,,,,,,,,,,0,,,56,39
103200,note_on,0,0,2,,,,,,,,,,,,,,,0,,,59,44
103680,note_on,0,0,2,,,,,,,,,,,,,,,0,,,52,0
103680,note_on,0,0,2,,,,,,,,,,,,,,,0,,,56,0
103680,note_on,0,0,2,,,,,,,,,,,,,,,0,,,50,36
103680,note_on,0,0,2,,,,,,,,,,,,,,,0,,,52,36
103680,note_on,0,0,2,,,,,,,,,,,,,,,0,,,56,36
103680,note_on,480,0,2,,,,,,,,,,,,,,,0,,,59,0
103680,note_on,0,0,2,,,,,,,,,,,,,,,0,,,50,0
103680,note_on,0,0,2,,,,,,,,,,,,,,,0,,,59,41
104160,note_on,0,0,2,,,,,,,,,,,,,,,0,,,57,39
104160,note_on,0,0,2,,,,,,,,,,,,,,,0,,,50,0
104160,note_on,480,0,2,,,,,,,,,,,,,,,0,,,59,0
104160,note_on,0,0,2,,,,,,,,,,,,,,,0,,,52,0
104160,note_on,0,0,2,,,,,,,,,,,,,,,0,,,56,0
104160,set_tempo,1440,1,0,,,,,,,,,,,,459770,,,,,,,
104160,note_on,0,0,2,,,,,,,,,,,,,,,0,,,52,39
104160,note_on,0,0,2,,,,,,,,,,,,,,,0,,,61,44
104160,note_on,0,0,2,,,,,,,,,,,,,,,0,,,49,39
104640,note_on,0,0,2,,,,,,,,,,,,,,,0,,,52,39
104640,note_on,0,0,2,,,,,,,,,,,,,,,0,,,47,39
104640,note_on,0,0,2,,,,,,,,,,,,,,,0,,,57,0
104640,note_on,0,0,2,,,,,,,,,,,,,,,0,,,49,0
104640,note_on,480,0,2,,,,,,,,,,,,,,,0,,,61,0
104640,note_on,0,0,2,,,,,,,,,,,,,,,0,,,62,44
104640,note_on,0,0,2,,,,,,,,,,,,,,,0,,,59,39
104640,note_on,0,0,2,,,,,,,,,,,,,,,0,,,52,0
104640,set_tempo,480,1,0,,,,,,,,,,,,487805,,,,,,,
104880,set_tempo,240,1,0,,,,,,,,,,,,631579,,,,,,,
105000,note_on,0,0,2,,,,,,,,,,,,,,,0,,,47,0
105000,note_on,0,0,2,,,,,,,,,,,,,,,0,,,52,0
105000,note_on,0,0,2,,,,,,,,,,,,,,,0,,,62,0
105000,note_on,0,0,2,,,,,,,,,,,,,,,0,,,66,48
105000,set_tempo,120,1,0,,,,,,,,,,,,480000,,,,,,,
105000,note_on,360,0,2,,,,,,,,,,,,,,,0,,,59,0
105120,note_on,0,0,2,,,,,,,,,,,,,,,0,,,52,41
105120,note_on,0,0,2,,,,,,,,,,,,,,,0,,,64,46
105120,note_on,120,0,2,,,,,,,,,,,,,,,0,,,66,0
105120,set_tempo,120,1,0,,,,,,,,,,,,459770,,,,,,,
105120,note_on,0,0,2,,,,,,,,,,,,,,,0,,,45,41
105120,note_on,0,0,2,,,,,,,,,,,,,,,0,,,61,41
105600,note_on,0,0,2,,,,,,,,,,,,,,,0,,,62,44
105600,note_on,480,0,2,,,,,,,,,,,,,,,0,,,64,0
105600,note_on,0,0,2,,,,,,,,,,,,,,,0,,,45,0
105600,note_on,0,0,2,,,,,,,,,,,,,,,0,,,61,0
105600,note_on,0,0,2,,,,,,,,,,,,,,,0,,,47,39
105600,note_on,0,0,2,,,,,,,,,,,,,,,0,,,52,39
105600,note_on,0,0,2,,,,,,,,,,,,,,,0,,,59,39
105600,note_on,0,0,2,,,,,,,,,,,,,,,0,,,52,0
106080,note_on,0,0,2,,,,,,,,,,,,,,,0,,,49,35
106080,set_tempo,960,1,0,,,,,,,,,,,,524017,,,,,,,
106080,note_on,0,0,2,,,,,,,,,,,,,,,0,,,52,35
106080,note_on,0,0,2,,,,,,,,,,,,,,,0,,,61,39
106080,note_on,0,0,2,,,,,,,,,,,,,,,0,,,59,0
106080,note_on,0,0,2,,,,,,,,,,,,,,,0,,,47,0
106080,note_on,0,0,2,,,,,,,,,,,,,,,0,,,57,35
106080,note_on,480,0,2,,,,,,,,,,,,,,,0,,,62,0
106080,note_on,0,0,2,,,,,,,,,,,,,,,0,,,52,0
106560,set_tempo,0,1,0,,,,,,,,,,,,487805,,,,,,,
106560,key_signature,480,1,0,,,,,,,,,,,Ab,,,,,,,,
106560,note_on,0,0,2,,,,,,,,,,,,,,,0,,,59,34
106560,note_on,0,0,2,,,,,,,,,,,,,,,0,,,51,30
106560,note_on,0,0,2,,,,,,,,,,,,,,,0,,,57,0
106560,note_on,0,0,2,,,,,,,,,,,,,,,0,,,52,0
106560,note_on,0,0,2,,,,,,,,,,,,,,,0,,,49,0
106560,note_on,480,0,2,,,,,,,,,,,,,,,0,,,61,0
106560,note_on,0,0,2,,,,,,,,,,,,,,,0,,,56,30
108000,note_on,1440,0,2,,,,,,,,,,,,,,,0,,,59,0
108000,note_on,0,0,2,,,,,,,,,,,,,,,0,,,39,25
108000,note_on,0,0,2,,,,,,,,,,,,,,,0,,,55,25
108000,note_on,0,0,2,,,,,,,,,,,,,,,0,,,58,28
108000,set_tempo,1440,1,0,,,,,,,,,,,,512821,,,,,,,
108000,note_on,0,0,2,,,,,,,,,,,,,,,0,,,56,0
109440,note_on,0,0,2,,,,,,,,,,,,,,,0,,,56,28
109440,note_on,0,0,2,,,,,,,,,,,,,,,0,,,55,0
109440,note_on,1440,0,2,,,,,,,,,,,,,,,0,,,58,0
109440,note_on,0,0,2,,,,,,,,,,,,,,,0,,,51,0
109440,note_on,0,0,2,,,,,,,,,,,,,,,0,,,44,25
109440,note_on,0,0,2,,,,,,,,,,,,,,,0,,,39,0
109440,note_on,0,0,2,,,,,,,,,,,,,,,0,,,32,25
111840,control_change,0,0,2,,,,,,,,,,,,,,,0,91,127,,
111840,control_change,0,0,2,,,,,,,,,,,,,,,0,64,127,,
111840,note_on,0,0,2,,,,,,,,,,,,,,,0,,,56,34
111840,note_on,0,0,2,,,,,,,,,,,,,,,0,,,53,30
111840,note_on,0,0,2,,,,,,,,,,,,,,,0,,,49,30
111840,note_on,0,0,2,,,,,,,,,,,,,,,0,,,37,30
111840,note_on,10080,0,1,,,,,,,,,,,,,,,0,,,65,45
111840,marker,0,1,0,,,,,,,,,,,,,,,,,,,
111840,set_tempo,3840,1,0,,,,,,,,,,,,489796,,,,,,,
111840,note_on,0,0,2,,,,,,,,,,,,,,,0,,,44,0
111840,note_on,0,0,2,,,,,,,,,,,,,,,0,,,32,0
111840,note_on,0,0,2,,,,,,,,,,,,,,,0,,,44,30
111840,control_change,0,0,1,,,,,,,,,,,,,,,0,91,127,,
111840,note_on,2400,0,2,,,,,,,,,,,,,,,0,,,56,0
112320,note_on,0,0,2,,,,,,,,,,,,,,,0,,,37,0
112320,note_on,480,0,1,,,,,,,,,,,,,,,0,,,65,0
112320,note_on,0,0,2,,,,,,,,,,,,,,,0,,,56,34
112320,note_on,0,0,2,,,,,,,,,,,,,,,0,,,53,30
112320,note_on,0,0,2,,,,,,,,,,,,,,,0,,,49,30
112320,note_on,0,0,2,,,,,,,,,,,,,,,0,,,44,30
112320,note_on,0,0,2,,,,,,,,,,,,,,,0,,,37,30
112320,note_on,0,0,2,,,,,,,,,,,,,,,0,,,53,0
112320,note_on,0,0,2,,,,,,,,,,,,,,,0,,,44,0
112320,key_signature,480,1,0,,,,,,,,,,,Db,,,,,,,,
112320,set_tempo,0,1,0,,,,,,,,,,,,480000,,,,,,,
112320,note_on,0,0,2,,,,,,,,,,,,,,,0,,,49,0
112320,note_on,0,0,1,,,,,,,,,,,,,,,0,,,65,45
112320,note_on,480,0,2,,,,,,,,,,,,,,,0,,,56,0
112800,control_change,480,0,2,,,,,,,,,,,,,,,0,64,0,,
113280,note_on,0,0,1,,,,,,,,,,,,,,,0,,,66,47
113280,note_on,960,0,1,,,,,,,,,,,,,,,0,,,65,0
113520,note_on,0,0,1,,,,,,,,,,,,,,,0,,,65,45
113520,note_on,240,0,1,,,,,,,,,,,,,,,0,,,66,0
113760,set_tempo,1440,1,0,,,,,,,,,,,,480000,,,,,,,
113760,note_on,0,0,2,,,,,,,,,,,,,,,0,,,56,34
113760,note_on,0,0,2,,,,,,,,,,,,,,,0,,,48,30
113760,note_on,0,0,2,,,,,,,,,,,,,,,0,,,44,34
113760,note_on,0,0,2,,,,,,,,,,,,,,,0,,,39,30
113760,note_on,0,0,2,,,,,,,,,,,,,,,0,,,53,0
113760,note_on,0,0,2,,,,,,,,,,,,,,,0,,,44,0
113760,note_on,0,0,2,,,,,,,,,,,,,,,0,,,37,0
113760,note_on,0,0,2,,,,,,,,,,,,,,,0,,,54,30
113760,note_on,960,0,2,,,,,,,,,,,,,,,0,,,56,0
113760,note_on,240,0,1,,,,,,,,,,,,,,,0,,,65,0
113760,note_on,0,0,1,,,,,,,,,,,,,,,0,,,63,46
113760,note_on,0,0,2,,,,,,,,,,,,,,,0,,,49,0
114720,note_on,960,0,1,,,,,,,,,,,,,,,0,,,63,0
114720,note_on,0,0,1,,,,,,,,,,,,,,,0,,,65,44
114960,note_on,0,0,1,,,,,,,,,,,,,,,0,,,63,42
114960,note_on,240,0,1,,,,,,,,,,,,,,,0,,,65,0
115200,note_on,0,0,2,,,,,,,,,,,,,,,0,,,56,34
115200,note_on,0,0,2,,,,,,,,,,,,,,,0,,,53,34
115200,note_on,0,0,2,,,,,,,,,,,,,,,0,,,61,34
115200,note_on,0,0,2,,,,,,,,,,,,,,,0,,,49,34
115200,note_on,0,0,2,,,,,,,,,,,,,,,0,,,44,30
115200,note_on,0,0,2,,,,,,,,,,,,,,,0,,,41,30
115200,note_on,0,0,2,,,,,,,,,,,,,,,0,,,56,0
115200,note_on,0,0,2,,,,,,,,,,,,,,,0,,,44,0
115200,note_on,0,0,2,,,,,,,,,,,,,,,0,,,39,0
115200,note_on,0,0,2,,,,,,,,,,,,,,,0,,,48,0
115200,note_on,1440,0,2,,,,,,,,,,,,,,,0,,,54,0
115200,set_tempo,1440,1,0,,,,,,,,,,,,476190,,,,,,,
115200,note_on,240,0,1,,,,,,,,,,,,,,,0,,,63,0
115560,note_on,0,0,2,,,,,,,,,,,,,,,0,,,53,0
115560,note_on,0,0,2,,,,,,,,,,,,,,,0,,,61,0
115560,note_on,360,0,2,,,,,,,,,,,,,,,0,,,56,0
115680,note_on,120,0,2,,,,,,,,,,,,,,,0,,,41,0
115680,note_on,0,0,2,,,,,,,,,,,,,,,0,,,54,32
115680,note_on,0,0,2,,,,,,,,,,,,,,,0,,,58,32
115680,note_on,0,0,2,,,,,,,,,,,,,,,0,,,61,36
115680,note_on,0,0,2,,,,,,,,,,,,,,,0,,,46,32
115680,note_on,0,0,2,,,,,,,,,,,,,,,0,,,42,32
115680,note_on,0,0,2,,,,,,,,,,,,,,,0,,,44,0
115680,note_on,0,0,2,,,,,,,,,,,,,,,0,,,49,0
115680,note_on,0,0,2,,,,,,,,,,,,,,,0,,,49,32
116040,note_on,360,0,2,,,,,,,,,,,,,,,0,,,54,0
116040,note_on,0,0,2,,,,,,,,,,,,,,,0,,,58,0
116040,note_on,0,0,2,,,,,,,,,,,,,,,0,,,61,0
116160,note_on,120,0,2,,,,,,,,,,,,,,,0,,,42,0
116160,note_on,0,0,2,,,,,,,,,,,,,,,0,,,49,0
116160,note_on,0,0,2,,,,,,,,,,,,,,,0,,,46,0
116160,note_on,0,0,2,,,,,,,,,,,,,,,0,,,51,34
116160,note_on,0,0,2,,,,,,,,,,,,,,,0,,,58,34
116160,note_on,0,0,2,,,,,,,,,,,,,,,0,,,61,38
116160,note_on,0,0,2,,,,,,,,,,,,,,,0,,,63,38
116160,note_on,0,0,2,,,,,,,,,,,,,,,0,,,49,34
116160,note_on,0,0,2,,,,,,,,,,,,,,,0,,,43,34
116160,note_on,0,0,2,,,,,,,,,,,,,,,0,,,46,34
116160,set_tempo,960,1,0,,,,,,,,,,,,526316,,,,,,,
116520,note_on,0,0,2,,,,,,,,,,,,,,,0,,,63,0
116520,note_on,0,0,2,,,,,,,,,,,,,,,0,,,58,0
116520,note_on,0,0,2,,,,,,,,,,,,,,,0,,,61,0
116520,note_on,360,0,2,,,,,,,,,,,,,,,0,,,51,0
116640,note_on,0,0,2,,,,,,,,,,,,,,,0,,,56,35
116640,note_on,0,0,2,,,,,,,,,,,,,,,0,,,51,35
116640,note_on,0,0,2,,,,,,,,,,,,,,,0,,,48,35
116640,note_on,0,0,2,,,,,,,,,,,,,,,0,,,44,35
116640,note_on,0,0,2,,,,,,,,,,,,,,,0,,,46,0
116640,note_on,0,0,2,,,,,,,,,,,,,,,0,,,49,0
116640,set_tempo,480,1,0,,,,,,,,,,,,502092,,,,,,,
116640,note_on,120,0,2,,,,,,,,,,,,,,,0,,,43,0
117600,note_on,0,0,2,,,,,,,,,,,,,,,0,,,48,0
117600,note_on,0,0,2,,,,,,,,,,,,,,,0,,,44,0
117600,note_on,960,0,2,,,,,,,,,,,,,,,0,,,56,0
117600,note_on,0,0,2,,,,,,,,,,,,,,,0,,,41,33
117600,note_on,0,0,2,,,,,,,,,,,,,,,0,,,53,37
117600,control_change,0,0,2,,,,,,,,,,,,,,,0,64,127,,
117600,note_on,0,0,2,,,,,,,,,,,,,,,0,,,51,0
117600,note_on,0,0,2,,,,,,,,,,,,,,,0,,,49,33
117600,note_on,0,0,1,,,,,,,,,,,,,,,0,,,61,45
117600,note_on,0,0,1,,,,,,,,,,,,,,,0,,,68,50
117600,set_tempo,960,1,0,,,,,,,,,,,,495868,,,,,,,
117600,note_on,2400,0,1,,,,,,,,,,,,,,,0,,,56,45
118080,note_on,0,0,2,,,,,,,,,,,,,,,0,,,49,0
118080,note_on,0,0,2,,,,,,,,,,,,,,,0,,,41,0
118080,note_on,0,0,1,,,,,,,,,,,,,,,0,,,68,50
118080,note_on,0,0,1,,,,,,,,,,,,,,,0,,,61,45
118080,note_on,0,0,1,,,,,,,,,,,,,,,0,,,56,45
118080,note_on,0,0,1,,,,,,,,,,,,,,,0,,,56,0
118080,note_on,0,0,1,,,,,,,,,,,,,,,0,,,61,0
118080,note_on,480,0,1,,,,,,,,,,,,,,,0,,,68,0
118080,note_on,480,0,2,,,,,,,,,,,,,,,0,,,53,0
118080,note_on,0,0,2,,,,,,,,,,,,,,,0,,,49,33
118080,note_on,0,0,2,,,,,,,,,,,,,,,0,,,53,37
118080,set_tempo,480,1,0,,,,,,,,,,,,461538,,,,,,,
118080,note_on,0,0,2,,,,,,,,,,,,,,,0,,,41,33
118560,control_change,480,0,2,,,,,,,,,,,,,,,0,64,0,,
119040,note_on,0,0,1,,,,,,,,,,,,,,,0,,,61,0
119040,note_on,480,0,2,,,,,,,,,,,,,,,0,,,53,0
119040,note_on,0,0,2,,,,,,,,,,,,,,,0,,,49,0
119040,note_on,960,0,1,,,,,,,,,,,,,,,0,,,68,0
119040,note_on,0,0,2,,,,,,,,,,,,,,,0,,,41,0
119040,note_on,0,0,2,,,,,,,,,,,,,,,0,,,42,36
119040,note_on,0,0,2,,,,,,,,,,,,,,,0,,,49,36
119040,note_on,0,0,1,,,,,,,,,,,,,,,0,,,56,0
119040,note_on,0,0,1,,,,,,,,,,,,,,,0,,,58,49
119040,note_on,0,0,1,,,,,,,,,,,,,,,0,,,70,55
119040,note_on,0,0,1,,,,,,,,,,,,,,,0,,,61,49
119040,note_on,0,0,2,,,,,,,,,,,,,,,0,,,54,40
119280,note_on,240,0,2,,,,,,,,,,,,,,,0,,,54,0
119280,note_on,0,0,2,,,,,,,,,,,,,,,0,,,53,36
119280,note_on,0,0,2,,,,,,,,,,,,,,,0,,,41,32
119280,note_on,0,0,2,,,,,,,,,,,,,,,0,,,42,0
119280,note_on,240,0,1,,,,,,,,,,,,,,,0,,,70,0
119280,note_on,0,0,1,,,,,,,,,,,,,,,0,,,58,0
119280,note_on,0,0,1,,,,,,,,,,,,,,,0,,,56,45
119280,note_on,0,0,1,,,,,,,,,,,,,,,0,,,68,51
119520,note_on,0,0,2,,,,,,,,,,,,,,,0,,,49,32
119520,note_on,0,0,2,,,,,,,,,,,,,,,0,,,53,36
119520,note_on,0,0,2,,,,,,,,,,,,,,,0,,,41,0
119520,note_on,240,0,2,,,,,,,,,,,,,,,0,,,53,0
119520,note_on,0,0,2,,,,,,,,,,,,,,,0,,,41,32
119520,note_on,0,0,2,,,,,,,,,,,,,,,0,,,49,0
119520,note_on,240,0,1,,,,,,,,,,,,,,,0,,,68,0
119520,note_on,0,0,1,,,,,,,,,,,,,,,0,,,56,0
119520,note_on,0,0,1,,,,,,,,,,,,,,,0,,,61,0
119520,note_on,0,0,1,,,,,,,,,,,,,,,0,,,56,45
119520,note_on,0,0,1,,,,,,,,,,,,,,,0,,,61,45
119520,note_on,0,0,1,,,,,,,,,,,,,,,0,,,68,51
119520,set_tempo,1440,1,0,,,,,,,,,,,,472441,,,,,,,
120000,set_tempo,480,1,0,,,,,,,,,,,,461538,,,,,,,
120000,note_on,0,0,1,,,,,,,,,,,,,,,0,,,56,0
120000,note_on,0,0,1,,,,,,,,,,,,,,,0,,,61,0
120000,note_on,480,0,2,,,,,,,,,,,,,,,0,,,53,0
120000,note_on,0,0,2,,,,,,,,,,,,,,,0,,,49,0
120000,note_on,0,0,1,,,,,,,,,,,,,,,0,,,61,50
120000,note_on,0,0,2,,,,,,,,,,,,,,,0,,,46,39
120000,note_on,0,0,2,,,,,,,,,,,,,,,0,,,58,44
120000,note_on,480,0,1,,,,,,,,,,,,,,,0,,,68,0
120000,note_on,0,0,1,,,,,,,,,,,,,,,0,,,73,56
120000,note_on,0,0,2,,,,,,,,,,,,,,,0,,,41,0
120187,control_change,187,0,2,,,,,,,,,,,,,,,0,64,127,,
120480,note_on,0,0,2,,,,,,,,,,,,,,,0,,,42,36
120480,note_on,0,0,2,,,,,,,,,,,,,,,0,,,46,0
120480,note_on,0,0,2,,,,,,,,,,,,,,,0,,,54,41
120480,note_on,0,0,1,,,,,,,,,,,,,,,0,,,70,53
120480,note_on,0,0,1,,,,,,,,,,,,,,,0,,,61,0
120480,note_on,480,0,1,,,,,,,,,,,,,,,0,,,73,0
120480,note_on,293,0,2,,,,,,,,,,,,,,,0,,,58,0
120480,note_on,0,0,1,,,,,,,,,,,,,,,0,,,58,47
120960,note_on,0,0,1,,,,,,,,,,,,,,,0,,,58,0
120960,note_on,0,0,2,,,,,,,,,,,,,,,0,,,42,0
120960,note_on,0,0,2,,,,,,,,,,,,,,,0,,,39,34
120960,note_on,0,0,2,,,,,,,,,,,,,,,0,,,51,38
120960,control_change,0,0,2,,,,,,,,,,,,,,,0,64,0,,
120960,set_tempo,960,1,0,,,,,,,,,,,,491803,,,,,,,
120960,note_on,0,0,1,,,,,,,,,,,,,,,0,,,66,50
120960,note_on,480,0,1,,,,,,,,,,,,,,,0,,,70,0
120960,note_on,480,0,2,,,,,,,,,,,,,,,0,,,54,0
120960,note_on,0,0,1,,,,,,,,,,,,,,,0,,,54,45
121440,note_on,480,0,1,,,,,,,,,,,,,,,0,,,66,0
121440,note_on,0,0,1,,,,,,,,,,,,,,,0,,,63,47
121440,note_on,0,0,1,,,,,,,,,,,,,,,0,,,57,47
121440,note_on,0,0,1,,,,,,,,,,,,,,,0,,,54,0
121440,note_on,0,0,2,,,,,,,,,,,,,,,0,,,39,0
121440,note_on,0,0,2,,,,,,,,,,,,,,,0,,,36,38
121440,note_on,0,0,2,,,,,,,,,,,,,,,0,,,48,43
121440,set_tempo,480,1,0,,,,,,,,,,,,480000,,,,,,,
121440,note_on,0,0,1,,,,,,,,,,,,,,,0,,,66,47
121440,note_on,0,0,1,,,,,,,,,,,,,,,0,,,69,53
121440,note_on,480,0,2,,,,,,,,,,,,,,,0,,,51,0
121920,set_tempo,480,1,0,,,,,,,,,,,,500000,,,,,,,
121920,note_on,0,0,1,,,,,,,,,,,,,,,0,,,68,51
121920,note_on,0,0,1,,,,,,,,,,,,,,,0,,,66,45
121920,note_on,0,0,1,,,,,,,,,,,,,,,0,,,63,45
121920,note_on,0,0,1,,,,,,,,,,,,,,,0,,,60,45
121920,note_on,0,0,1,,,,,,,,,,,,,,,0,,,56,45
121920,note_on,0,0,1,,,,,,,,,,,,,,,0,,,63,0
121920,note_on,0,0,1,,,,,,,,,,,,,,,0,,,57,0
121920,note_on,480,0,1,,,,,,,,,,,,,,,0,,,69,0
121920,note_on,0,0,2,,,,,,,,,,,,,,,0,,,44,40
121920,note_on,0,0,2,,,,,,,,,,,,,,,0,,,32,36
121920,note_on,0,0,2,,,,,,,,,,,,,,,0,,,36,0
121920,note_on,480,0,2,,,,,,,,,,,,,,,0,,,48,0
121920,note_on,0,0,1,,,,,,,,,,,,,,,0,,,66,0
122400,note_on,480,0,1,,,,,,,,,,,,,,,0,,,68,0
122400,note_on,0,0,1,,,,,,,,,,,,,,,0,,,63,0
122400,note_on,0,0,1,,,,,,,,,,,,,,,0,,,56,0
122400,note_on,0,0,2,,,,,,,,,,,,,,,0,,,32,0
122400,note_on,0,0,1,,,,,,,,,,,,,,,0,,,56,43
122400,note_on,0,0,1,,,,,,,,,,,,,,,0,,,61,43
122400,note_on,0,0,1,,,,,,,,,,,,,,,0,,,65,48
122400,note_on,0,0,1,,,,,,,,,,,,,,,0,,,66,0
122400,note_on,480,0,2,,,,,,,,,,,,,,,0,,,44,0
122400,note_on,0,0,1,,,,,,,,,,,,,,,0,,,60,0
122400,note_on,0,0,2,,,,,,,,,,,,,,,0,,,37,36
122400,note_on,0,0,2,,,,,,,,,,,,,,,0,,,49,40
122880,set_tempo,960,1,0,,,,,,,,,,,,533333,,,,,,,
123360,note_on,0,0,2,,,,,,,,,,,,,,,0,,,61,34
123360,note_on,0,0,1,,,,,,,,,,,,,,,0,,,65,38
123360,note_on,0,0,1,,,,,,,,,,,,,,,0,,,68,38
123360,note_on,0,0,1,,,,,,,,,,,,,,,0,,,77,45
123360,control_change,0,0,1,,,,,,,,,,,,,,,0,91,127,,
123360,note_on,0,0,2,,,,,,,,,,,,,,,0,,,56,30
123360,note_on,960,0,1,,,,,,,,,,,,,,,0,,,65,0
123360,note_on,0,0,2,,,,,,,,,,,,,,,0,,,37,0
123360,note_on,0,0,1,,,,,,,,,,,,,,,0,,,56,0
123360,set_tempo,480,1,0,,,,,,,,,,,,489796,,,,,,,
123360,note_on,0,0,2,,,,,,,,,,,,,,,0,,,49,30
123360,control_change,0,0,2,,,,,,,,,,,,,,,0,91,127,,
123360,control_change,0,0,2,,,,,,,,,,,,,,,0,64,127,,
123360,note_on,960,0,2,,,,,,,,,,,,,,,0,,,49,0
123360,note_on,0,0,1,,,,,,,,,,,,,,,0,,,61,0
123840,note_on,480,0,1,,,,,,,,,,,,,,,0,,,77,0
123840,note_on,0,0,1,,,,,,,,,,,,,,,0,,,65,0
123840,note_on,0,0,1,,,,,,,,,,,,,,,0,,,68,38
123840,set_tempo,480,1,0,,,,,,,,,,,,480000,,,,,,,
123840,note_on,0,0,1,,,,,,,,,,,,,,,0,,,68,0
123840,note_on,0,0,1,,,,,,,,,,,,,,,0,,,65,38
123840,note_on,0,0,1,,,,,,,,,,,,,,,0,,,77,45
123840,note_on,0,0,2,,,,,,,,,,,,,,,0,,,49,30
123840,note_on,0,0,2,,,,,,,,,,,,,,,0,,,61,34
123840,note_on,0,0,2,,,,,,,,,,,,,,,0,,,49,0
123840,note_on,480,0,2,,,,,,,,,,,,,,,0,,,61,0
123840,note_on,0,0,2,,,,,,,,,,,,,,,0,,,56,0
123840,note_on,0,0,2,,,,,,,,,,,,,,,0,,,56,30
124800,control_change,960,0,2,,,,,,,,,,,,,,,0,64,0,,
124800,note_on,0,0,1,,,,,,,,,,,,,,,0,,,78,47
124800,note_on,960,0,1,,,,,,,,,,,,,,,0,,,77,0
125040,note_on,0,0,1,,,,,,,,,,,,,,,0,,,77,45
125040,note_on,240,0,1,,,,,,,,,,,,,,,0,,,78,0
125280,note_on,0,0,2,,,,,,,,,,,,,,,0,,,51,30
125280,note_on,0,0,2,,,,,,,,,,,,,,,0,,,49,0
125280,note_on,0,0,2,,,,,,,,,,,,,,,0,,,56,0
125280,note_on,480,0,2,,,,,,,,,,,,,,,0,,,61,0
125280,set_tempo,1440,1,0,,,,,,,,,,,,480000,,,,,,,
125280,note_on,0,0,2,,,,,,,,,,,,,,,0,,,60,34
125280,note_on,0,0,2,,,,,,,,,,,,,,,0,,,56,30
125280,note_on,240,0,1,,,,,,,,,,,,,,,0,,,77,0
125280,note_on,0,0,1,,,,,,,,,,,,,,,0,,,68,0
125280,note_on,0,0,1,,,,,,,,,,,,,,,0,,,65,0
125280,note_on,0,0,1,,,,,,,,,,,,,,,0,,,66,38
125280,note_on,0,0,1,,,,,,,,,,,,,,,0,,,68,38
125280,note_on,0,0,1,,,,,,,,,,,,,,,0,,,75,46
126240,note_on,0,0,1,,,,,,,,,,,,,,,0,,,77,44
126240,note_on,960,0,1,,,,,,,,,,,,,,,0,,,75,0
126240,set_tempo,960,1,0,,,,,,,,,,,,481928,,,,,,,
126480,note_on,0,0,1,,,,,,,,,,,,,,,0,,,75,42
126480,note_on,240,0,1,,,,,,,,,,,,,,,0,,,77,0
126720,note_on,0,0,2,,,,,,,,,,,,,,,0,,,56,0
126720,note_on,0,0,1,,,,,,,,,,,,,,,0,,,68,38
126720,note_on,0,0,1,,,,,,,,,,,,,,,0,,,73,43
126720,note_on,1440,0,2,,,,,,,,,,,,,,,0,,,60,0
126720,note_on,0,0,1,,,,,,,,,,,,,,,0,,,66,0
126720,note_on,0,0,1,,,,,,,,,,,,,,,0,,,68,0
126720,note_on,0,0,1,,,,,,,,,,,,,,,0,,,65,38
126720,note_on,240,0,1,,,,,,,,,,,,,,,0,,,75,0
126720,note_on,0,0,2,,,,,,,,,,,,,,,0,,,61,34
126720,note_on,0,0,2,,,,,,,,,,,,,,,0,,,56,30
126720,note_on,0,0,2,,,,,,,,,,,,,,,0,,,53,30
126720,set_tempo,480,1,0,,,,,,,,,,,,476190,,,,,,,
126720,note_on,0,0,2,,,,,,,,,,,,,,,0,,,51,0
127080,note_on,360,0,1,,,,,,,,,,,,,,,0,,,68,0
127080,note_on,0,0,1,,,,,,,,,,,,,,,0,,,73,0
127080,note_on,0,0,1,,,,,,,,,,,,,,,0,,,65,0
127200,set_tempo,480,1,0,,,,,,,,,,,,470588,,,,,,,
127200,note_on,0,0,2,,,,,,,,,,,,,,,0,,,53,0
127200,note_on,120,0,1,,,,,,,,,,,,,,,0,,,73,45
127200,note_on,0,0,1,,,,,,,,,,,,,,,0,,,70,40
127200,note_on,0,0,1,,,,,,,,,,,,,,,0,,,66,40
127200,note_on,0,0,2,,,,,,,,,,,,,,,0,,,54,32
127200,note_on,480,0,2,,,,,,,,,,,,,,,0,,,61,0
127200,note_on,0,0,2,,,,,,,,,,,,,,,0,,,56,0
127200,note_on,0,0,2,,,,,,,,,,,,,,,0,,,58,32
127200,note_on,0,0,2,,,,,,,,,,,,,,,0,,,61,36
127560,note_on,0,0,1,,,,,,,,,,,,,,,0,,,73,0
127560,note_on,0,0,1,,,,,,,,,,,,,,,0,,,70,0
127560,note_on,360,0,1,,,,,,,,,,,,,,,0,,,66,0
127680,note_on,0,0,1,,,,,,,,,,,,,,,0,,,70,43
127680,note_on,0,0,1,,,,,,,,,,,,,,,0,,,73,43
127680,note_on,120,0,1,,,,,,,,,,,,,,,0,,,75,48
127680,note_on,480,0,2,,,,,,,,,,,,,,,0,,,61,0
127680,note_on,0,0,2,,,,,,,,,,,,,,,0,,,58,0
127680,note_on,0,0,2,,,,,,,,,,,,,,,0,,,54,0
127680,note_on,0,0,2,,,,,,,,,,,,,,,0,,,55,34
127680,note_on,0,0,2,,,,,,,,,,,,,,,0,,,58,34
127680,note_on,0,0,2,,,,,,,,,,,,,,,0,,,63,38
127680,note_on,0,0,2,,,,,,,,,,,,,,,0,,,61,34
127680,set_tempo,480,1,0,,,,,,,,,,,,526316,,,,,,,
128040,note_on,0,0,1,,,,,,,,,,,,,,,0,,,75,0
128040,note_on,0,0,1,,,,,,,,,,,,,,,0,,,73,0
128040,note_on,360,0,1,,,,,,,,,,,,,,,0,,,70,0
128160,note_on,0,0,2,,,,,,,,,,,,,,,0,,,56,31
128160,note_on,120,0,1,,,,,,,,,,,,,,,0,,,68,44
128160,note_on,0,0,2,,,,,,,,,,,,,,,0,,,55,0
128160,note_on,480,0,2,,,,,,,,,,,,,,,0,,,63,0
128160,note_on,0,0,2,,,,,,,,,,,,,,,0,,,63,35
128160,note_on,0,0,2,,,,,,,,,,,,,,,0,,,60,31
128160,note_on,0,0,2,,,,,,,,,,,,,,,0,,,58,0
128160,note_on,0,0,2,,,,,,,,,,,,,,,0,,,61,0
128160,set_tempo,480,1,0,,,,,,,,,,,,502092,,,,,,,
129120,note_on,0,0,2,,,,,,,,,,,,,,,0,,,60,0
129120,note_on,960,0,2,,,,,,,,,,,,,,,0,,,63,0
129120,note_on,0,0,1,,,,,,,,,,,,,,,0,,,73,53
129120,set_tempo,960,1,0,,,,,,,,,,,,495868,,,,,,,
129120,note_on,0,0,1,,,,,,,,,,,,,,,0,,,80,59
129120,note_on,0,0,2,,,,,,,,,,,,,,,0,,,56,0
129120,note_on,0,0,2,,,,,,,,,,,,,,,0,,,53,43
129120,note_on,0,0,2,,,,,,,,,,,,,,,0,,,61,43
129120,note_on,0,0,2,,,,,,,,,,,,,,,0,,,65,48
129120,control_change,0,0,2,,,,,,,,,,,,,,,0,64,127,,
129120,note_on,960,0,1,,,,,,,,,,,,,,,0,,,68,0
129120,note_on,0,0,1,,,,,,,,,,,,,,,0,,,68,53
129600,note_on,480,0,1,,,,,,,,,,,,,,,0,,,80,0
129600,note_on,0,0,1,,,,,,,,,,,,,,,0,,,73,0
129600,note_on,0,0,1,,,,,,,,,,,,,,,0,,,68,0
129600,note_on,0,0,1,,,,,,,,,,,,,,,0,,,68,53
129600,note_on,480,0,2,,,,,,,,,,,,,,,0,,,65,0
129600,set_tempo,480,1,0,,,,,,,,,,,,461538,,,,,,,
129600,note_on,0,0,2,,,,,,,,,,,,,,,0,,,61,43
129600,note_on,0,0,2,,,,,,,,,,,,,,,0,,,53,43
129600,note_on,0,0,1,,,,,,,,,,,,,,,0,,,73,53
129600,note_on,0,0,2,,,,,,,,,,,,,,,0,,,53,0
129600,note_on,0,0,2,,,,,,,,,,,,,,,0,,,61,0
129600,note_on,0,0,1,,,,,,,,,,,,,,,0,,,80,59
129600,note_on,0,0,2,,,,,,,,,,,,,,,0,,,65,48
130080,control_change,480,0,2,,,,,,,,,,,,,,,0,64,0,,
130560,note_on,0,0,2,,,,,,,,,,,,,,,0,,,61,0
130560,note_on,0,0,2,,,,,,,,,,,,,,,0,,,53,0
130560,note_on,0,0,2,,,,,,,,,,,,,,,0,,,54,46
130560,note_on,0,0,2,,,,,,,,,,,,,,,0,,,66,52
130560,note_on,0,0,2,,,,,,,,,,,,,,,0,,,61,46
130560,note_on,960,0,1,,,,,,,,,,,,,,,0,,,80,0
130560,note_on,0,0,1,,,,,,,,,,,,,,,0,,,73,0
130560,note_on,0,0,1,,,,,,,,,,,,,,,0,,,68,0
130560,note_on,0,0,1,,,,,,,,,,,,,,,0,,,82,66
130560,note_on,0,0,1,,,,,,,,,,,,,,,0,,,73,59
130560,note_on,480,0,2,,,,,,,,,,,,,,,0,,,65,0
130560,note_on,0,0,1,,,,,,,,,,,,,,,0,,,70,59
130800,note_on,240,0,1,,,,,,,,,,,,,,,0,,,82,0
130800,note_on,240,0,2,,,,,,,,,,,,,,,0,,,66,0
130800,note_on,0,0,2,,,,,,,,,,,,,,,0,,,54,0
130800,note_on,0,0,2,,,,,,,,,,,,,,,0,,,53,41
130800,note_on,0,0,2,,,,,,,,,,,,,,,0,,,65,46
130800,note_on,0,0,1,,,,,,,,,,,,,,,0,,,70,0
130800,note_on,0,0,1,,,,,,,,,,,,,,,0,,,68,55
130800,note_on,0,0,1,,,,,,,,,,,,,,,0,,,80,62
131040,note_on,0,0,2,,,,,,,,,,,,,,,0,,,65,46
131040,note_on,0,0,2,,,,,,,,,,,,,,,0,,,61,41
131040,note_on,0,0,2,,,,,,,,,,,,,,,0,,,53,41
131040,note_on,0,0,2,,,,,,,,,,,,,,,0,,,61,0
131040,note_on,0,0,2,,,,,,,,,,,,,,,0,,,53,0
131040,note_on,240,0,1,,,,,,,,,,,,,,,0,,,80,0
131040,note_on,0,0,1,,,,,,,,,,,,,,,0,,,68,0
131040,note_on,0,0,1,,,,,,,,,,,,,,,0,,,68,55
131040,note_on,0,0,1,,,,,,,,,,,,,,,0,,,73,55
131040,note_on,0,0,1,,,,,,,,,,,,,,,0,,,80,62
131040,note_on,240,0,2,,,,,,,,,,,,,,,0,,,65,0
131040,set_tempo,1440,1,0,,,,,,,,,,,,468750,,,,,,,
131040,note_on,0,0,1,,,,,,,,,,,,,,,0,,,73,0
131520,note_on,0,0,2,,,,,,,,,,,,,,,0,,,70,58
131520,note_on,480,0,1,,,,,,,,,,,,,,,0,,,80,0
131520,note_on,0,0,1,,,,,,,,,,,,,,,0,,,73,0
131520,note_on,0,0,1,,,,,,,,,,,,,,,0,,,68,0
131520,note_on,0,0,1,,,,,,,,,,,,,,,0,,,73,67
131520,note_on,480,0,2,,,,,,,,,,,,,,,0,,,65,0
131520,note_on,0,0,2,,,,,,,,,,,,,,,0,,,61,0
131520,note_on,0,0,2,,,,,,,,,,,,,,,0,,,53,0
131520,note_on,0,0,2,,,,,,,,,,,,,,,0,,,58,52
131520,control_change,0,0,2,,,,,,,,,,,,,,,0,64,127,,
131520,note_on,0,0,1,,,,,,,,,,,,,,,0,,,85,75
131520,set_tempo,480,1,0,,,,,,,,,,,,449438,,,,,,,
132000,note_on,0,0,1,,,,,,,,,,,,,,,0,,,73,0
132000,note_on,0,0,2,,,,,,,,,,,,,,,0,,,66,52
132000,note_on,0,0,2,,,,,,,,,,,,,,,0,,,54,46
132000,note_on,0,0,2,,,,,,,,,,,,,,,0,,,58,0
132000,note_on,480,0,2,,,,,,,,,,,,,,,0,,,70,0
132000,note_on,0,0,1,,,,,,,,,,,,,,,0,,,82,69
132000,note_on,480,0,1,,,,,,,,,,,,,,,0,,,85,0
132000,note_on,0,0,1,,,,,,,,,,,,,,,0,,,70,62
132480,note_on,480,0,1,,,,,,,,,,,,,,,0,,,82,0
132480,note_on,0,0,1,,,,,,,,,,,,,,,0,,,70,0
132480,note_on,0,0,1,,,,,,,,,,,,,,,0,,,66,57
132480,set_tempo,960,1,0,,,,,,,,,,,,468750,,,,,,,
132480,note_on,0,0,1,,,,,,,,,,,,,,,0,,,78,64
132480,note_on,480,0,2,,,,,,,,,,,,,,,0,,,66,0
132480,control_change,0,0,2,,,,,,,,,,,,,,,0,64,0,,
132480,note_on,0,0,2,,,,,,,,,,,,,,,0,,,63,48
132480,note_on,0,0,2,,,,,,,,,,,,,,,0,,,51,43
132480,note_on,0,0,2,,,,,,,,,,,,,,,0,,,54,0
132960,note_on,0,0,1,,,,,,,,,,,,,,,0,,,66,0
132960,note_on,0,0,1,,,,,,,,,,,,,,,0,,,69,65
132960,note_on,0,0,1,,,,,,,,,,,,,,,0,,,78,73
132960,note_on,0,0,1,,,,,,,,,,,,,,,0,,,81,73
132960,note_on,480,0,1,,,,,,,,,,,,,,,0,,,78,0
132960,note_on,0,0,1,,,,,,,,,,,,,,,0,,,75,65
132960,note_on,0,0,2,,,,,,,,,,,,,,,0,,,60,57
132960,note_on,480,0,2,,,,,,,,,,,,,,,0,,,63,0
132960,set_tempo,480,1,0,,,,,,,,,,,,454545,,,,,,,
132960,note_on,0,0,2,,,,,,,,,,,,,,,0,,,51,0
132960,note_on,0,0,2,,,,,,,,,,,,,,,0,,,48,51
133440,note_on,0,0,1,,,,,,,,,,,,,,,0,,,75,62
133440,note_on,0,0,1,,,,,,,,,,,,,,,0,,,72,62
133440,note_on,0,0,1,,,,,,,,,,,,,,,0,,,68,62
133440,note_on,0,0,1,,,,,,,,,,,,,,,0,,,78,0
133440,note_on,0,0,1,,,,,,,,,,,,,,,0,,,75,0
133440,note_on,0,0,1,,,,,,,,,,,,,,,0,,,69,0
133440,note_on,0,0,1,,,,,,,,,,,,,,,0,,,80,69
133440,note_on,480,0,2,,,,,,,,,,,,,,,0,,,60,0
133440,note_on,0,0,2,,,,,,,,,,,,,,,0,,,48,0
133440,note_on,0,0,2,,,,,,,,,,,,,,,0,,,44,50
133440,set_tempo,480,1,0,,,,,,,,,,,,468750,,,,,,,
133440,note_on,0,0,2,,,,,,,,,,,,,,,0,,,56,56
133440,note_on,480,0,1,,,,,,,,,,,,,,,0,,,81,0
133440,note_on,0,0,1,,,,,,,,,,,,,,,0,,,78,69
133920,note_on,0,0,2,,,,,,,,,,,,,,,0,,,49,45
133920,note_on,0,0,1,,,,,,,,,,,,,,,0,,,78,0
133920,note_on,0,0,1,,,,,,,,,,,,,,,0,,,75,0
133920,note_on,0,0,1,,,,,,,,,,,,,,,0,,,68,0
133920,note_on,0,0,1,,,,,,,,,,,,,,,0,,,72,0
133920,note_on,0,0,2,,,,,,,,,,,,,,,0,,,61,50
133920,note_on,0,0,1,,,,,,,,,,,,,,,0,,,68,57
133920,note_on,0,0,1,,,,,,,,,,,,,,,0,,,73,57
133920,note_on,0,0,1,,,,,,,,,,,,,,,0,,,77,64
133920,note_on,480,0,2,,,,,,,,,,,,,,,0,,,56,0
133920,note_on,0,0,2,,,,,,,,,,,,,,,0,,,44,0
133920,note_on,480,0,1,,,,,,,,,,,,,,,0,,,80,0
133920,set_tempo,480,1,0,,,,,,,,,,,,480000,,,,,,,
134880,note_on,0,0,1,,,,,,,,,,,,,,,0,,,68,0
134880,note_on,0,0,1,,,,,,,,,,,,,,,0,,,63,72
134880,note_on,0,0,1,,,,,,,,,,,,,,,0,,,75,80
134880,note_on,0,0,1,,,,,,,,,,,,,,,0,,,68,72
134880,note_on,0,0,2,,,,,,,,,,,,,,,0,,,60,64
134880,note_on,0,0,2,,,,,,,,,,,,,,,0,,,56,57
134880,note_on,0,0,2,,,,,,,,,,,,,,,0,,,48,57
134880,note_on,0,0,2,,,,,,,,,,,,,,,0,,,49,0
134880,note_on,960,0,2,,,,,,,,,,,,,,,0,,,61,0
134880,note_on,0,0,1,,,,,,,,,,,,,,,0,,,73,0
134880,note_on,960,0,1,,,,,,,,,,,,,,,0,,,77,0
135360,set_tempo,1440,1,0,,,,,,,,,,,,461538,,,,,,,
135360,note_on,480,0,1,,,,,,,,,,,,,,,0,,,68,0
135360,note_on,0,0,1,,,,,,,,,,,,,,,0,,,75,0
135360,note_on,0,0,1,,,,,,,,,,,,,,,0,,,63,0
135360,note_on,0,0,1,,,,,,,,,,,,,,,0,,,63,72
135360,note_on,0,0,1,,,,,,,,,,,,,,,0,,,68,72
135360,note_on,0,0,1,,,,,,,,,,,,,,,0,,,75,80
135360,note_on,0,0,2,,,,,,,,,,,,,,,0,,,56,0
135360,note_on,480,0,2,,,,,,,,,,,,,,,0,,,60,0
135360,note_on,0,0,2,,,,,,,,,,,,,,,0,,,60,64
135360,note_on,0,0,2,,,,,,,,,,,,,,,0,,,56,57
135360,note_on,0,0,2,,,,,,,,,,,,,,,0,,,48,57
135360,note_on,0,0,2,,,,,,,,,,,,,,,0,,,48,0
136320,note_on,0,0,2,,,,,,,,,,,,,,,0,,,56,63
136320,set_tempo,960,1,0,,,,,,,,,,,,461538,,,,,,,
136320,note_on,960,0,2,,,,,,,,,,,,,,,0,,,60,0
136320,note_on,0,0,2,,,,,,,,,,,,,,,0,,,48,0
136320,note_on,0,0,2,,,,,,,,,,,,,,,0,,,56,0
136320,note_on,0,0,2,,,,,,,,,,,,,,,0,,,58,63
136320,note_on,0,0,2,,,,,,,,,,,,,,,0,,,46,56
136320,note_on,0,0,1,,,,,,,,,,,,,,,0,,,73,81
136320,note_on,960,0,1,,,,,,,,,,,,,,,0,,,75,0
136320,note_on,0,0,1,,,,,,,,,,,,,,,0,,,68,0
136320,note_on,0,0,1,,,,,,,,,,,,,,,0,,,63,0
136320,note_on,0,0,1,,,,,,,,,,,,,,,0,,,61,72
136320,note_on,0,0,1,,,,,,,,,,,,,,,0,,,68,72
136560,note_on,0,0,2,,,,,,,,,,,,,,,0,,,48,56
136560,note_on,0,0,2,,,,,,,,,,,,,,,0,,,60,63
136560,note_on,240,0,2,,,,,,,,,,,,,,,0,,,58,0
136560,note_on,0,0,2,,,,,,,,,,,,,,,0,,,46,0
136560,note_on,0,0,1,,,,,,,,,,,,,,,0,,,61,0
136560,note_on,0,0,1,,,,,,,,,,,,,,,0,,,75,81
136560,note_on,0,0,1,,,,,,,,,,,,,,,0,,,63,72
136560,note_on,240,0,1,,,,,,,,,,,,,,,0,,,73,0
136800,note_on,0,0,2,,,,,,,,,,,,,,,0,,,48,0
136800,note_on,0,0,2,,,,,,,,,,,,,,,0,,,56,0
136800,note_on,0,0,2,,,,,,,,,,,,,,,0,,,56,64
136800,note_on,240,0,2,,,,,,,,,,,,,,,0,,,60,0
136800,note_on,0,0,2,,,,,,,,,,,,,,,0,,,44,57
136800,note_on,240,0,1,,,,,,,,,,,,,,,0,,,75,0
136800,note_on,0,0,1,,,,,,,,,,,,,,,0,,,68,0
136800,note_on,0,0,1,,,,,,,,,,,,,,,0,,,60,73
136800,note_on,0,0,1,,,,,,,,,,,,,,,0,,,68,73
136800,note_on,0,0,1,,,,,,,,,,,,,,,0,,,72,82
136800,note_on,0,0,1,,,,,,,,,,,,,,,0,,,63,0
137280,note_on,0,0,1,,,,,,,,,,,,,,,0,,,75,85
137280,note_on,0,0,1,,,,,,,,,,,,,,,0,,,68,76
137280,note_on,480,0,2,,,,,,,,,,,,,,,0,,,56,0
137280,note_on,0,0,2,,,,,,,,,,,,,,,0,,,44,0
137280,note_on,0,0,2,,,,,,,,,,,,,,,0,,,48,61
137280,note_on,0,0,2,,,,,,,,,,,,,,,0,,,60,68
137280,note_on,0,0,2,,,,,,,,,,,,,,,0,,,56,61
137280,note_on,0,0,1,,,,,,,,,,,,,,,0,,,63,76
137280,note_on,0,0,1,,,,,,,,,,,,,,,0,,,60,0
137280,note_on,0,0,1,,,,,,,,,,,,,,,0,,,68,0
137280,note_on,480,0,1,,,,,,,,,,,,,,,0,,,72,0
137760,note_on,480,0,1,,,,,,,,,,,,,,,0,,,75,0
137760,note_on,0,0,1,,,,,,,,,,,,,,,0,,,68,0
137760,note_on,0,0,1,,,,,,,,,,,,,,,0,,,63,0
137760,note_on,0,0,1,,,,,,,,,,,,,,,0,,,65,78
137760,note_on,0,0,1,,,,,,,,,,,,,,,0,,,68,78
137760,note_on,480,0,2,,,,,,,,,,,,,,,0,,,56,0
137760,note_on,0,0,2,,,,,,,,,,,,,,,0,,,60,0
137760,note_on,0,0,2,,,,,,,,,,,,,,,0,,,48,0
137760,note_on,0,0,2,,,,,,,,,,,,,,,0,,,61,68
137760,note_on,0,0,2,,,,,,,,,,,,,,,0,,,56,61
137760,note_on,0,0,2,,,,,,,,,,,,,,,0,,,49,61
137760,note_on,0,0,1,,,,,,,,,,,,,,,0,,,77,87
138240,note_on,480,0,1,,,,,,,,,,,,,,,0,,,77,0
138240,note_on,0,0,1,,,,,,,,,,,,,,,0,,,68,0
138240,note_on,0,0,1,,,,,,,,,,,,,,,0,,,66,80
138240,note_on,0,0,1,,,,,,,,,,,,,,,0,,,68,80
138240,note_on,0,0,1,,,,,,,,,,,,,,,0,,,78,89
138240,note_on,0,0,2,,,,,,,,,,,,,,,0,,,56,63
138240,note_on,480,0,2,,,,,,,,,,,,,,,0,,,49,0
138240,note_on,0,0,2,,,,,,,,,,,,,,,0,,,56,0
138240,note_on,0,0,1,,,,,,,,,,,,,,,0,,,65,0
138240,note_on,0,0,2,,,,,,,,,,,,,,,0,,,63,71
138240,note_on,0,0,2,,,,,,,,,,,,,,,0,,,61,0
138240,note_on,0,0,2,,,,,,,,,,,,,,,0,,,51,63
138720,note_on,0,0,1,,,,,,,,,,,,,,,0,,,68,81
138720,note_on,0,0,1,,,,,,,,,,,,,,,0,,,80,90
138720,note_on,0,0,1,,,,,,,,,,,,,,,0,,,66,0
138720,note_on,0,0,1,,,,,,,,,,,,,,,0,,,68,0
138720,note_on,480,0,1,,,,,,,,,,,,,,,0,,,78,0
138720,note_on,0,0,2,,,,,,,,,,,,,,,0,,,53,66
138720,note_on,0,0,2,,,,,,,,,,,,,,,0,,,56,66
138720,note_on,0,0,2,,,,,,,,,,,,,,,0,,,63,0
138720,note_on,0,0,2,,,,,,,,,,,,,,,0,,,56,0
138720,note_on,480,0,2,,,,,,,,,,,,,,,0,,,51,0
138720,set_tempo,2400,1,0,,,,,,,,,,,,478088,,,,,,,
138720,note_on,0,0,2,,,,,,,,,,,,,,,0,,,65,74
139200,note_on,0,0,1,,,,,,,,,,,,,,,0,,,68,85
139200,note_on,0,0,1,,,,,,,,,,,,,,,0,,,70,85
139200,note_on,0,0,1,,,,,,,,,,,,,,,0,,,82,95
139200,note_on,0,0,1,,,,,,,,,,,,,,,0,,,80,0
139200,note_on,480,0,1,,,,,,,,,,,,,,,0,,,68,0
139200,set_tempo,480,1,0,,,,,,,,,,,,489796,,,,,,,
139200,note_on,0,0,2,,,,,,,,,,,,,,,0,,,65,0
139200,note_on,0,0,2,,,,,,,,,,,,,,,0,,,54,61
139200,note_on,480,0,2,,,,,,,,,,,,,,,0,,,53,0
139200,note_on,0,0,2,,,,,,,,,,,,,,,0,,,66,68
139200,note_on,0,0,2,,,,,,,,,,,,,,,0,,,56,61
139200,note_on,0,0,2,,,,,,,,,,,,,,,0,,,56,0
139680,note_on,0,0,1,,,,,,,,,,,,,,,0,,,68,59
139680,note_on,0,0,2,,,,,,,,,,,,,,,0,,,48,49
139680,note_on,0,0,2,,,,,,,,,,,,,,,0,,,60,55
139680,note_on,0,0,2,,,,,,,,,,,,,,,0,,,56,49
139680,note_on,0,0,2,,,,,,,,,,,,,,,0,,,56,0
139680,note_on,480,0,2,,,,,,,,,,,,,,,0,,,66,0
139680,note_on,0,0,1,,,,,,,,,,,,,,,0,,,63,59
139680,note_on,0,0,1,,,,,,,,,,,,,,,0,,,75,66
139680,note_on,0,0,2,,,,,,,,,,,,,,,0,,,54,0
139680,note_on,0,0,1,,,,,,,,,,,,,,,0,,,82,0
139680,note_on,480,0,1,,,,,,,,,,,,,,,0,,,68,0
139680,set_tempo,480,1,0,,,,,,,,,,,,461538,,,,,,,
139680,note_on,0,0,1,,,,,,,,,,,,,,,0,,,70,0
140640,note_on,960,0,1,,,,,,,,,,,,,,,0,,,68,0
140640,note_on,0,0,1,,,,,,,,,,,,,,,0,,,75,0
140640,note_on,0,0,1,,,,,,,,,,,,,,,0,,,63,0
140640,note_on,0,0,1,,,,,,,,,,,,,,,0,,,64,45
140640,note_on,0,0,1,,,,,,,,,,,,,,,0,,,68,45
140640,note_on,0,0,1,,,,,,,,,,,,,,,0,,,76,50
140640,set_tempo,960,1,0,,,,,,,,,,,,508475,,,,,,,
141120,note_on,0,0,2,,,,,,,,,,,,,,,0,,,56,39
141120,note_on,0,0,2,,,,,,,,,,,,,,,0,,,49,39
141120,note_on,0,0,2,,,,,,,,,,,,,,,0,,,48,0
141120,note_on,0,0,2,,,,,,,,,,,,,,,0,,,60,0
141120,note_on,1440,0,2,,,,,,,,,,,,,,,0,,,56,0
141120,set_tempo,480,1,0,,,,,,,,,,,,461538,,,,,,,
141120,note_on,0,0,2,,,,,,,,,,,,,,,0,,,61,44
141120,note_on,0,0,1,,,,,,,,,,,,,,,0,,,68,50
141120,note_on,480,0,1,,,,,,,,,,,,,,,0,,,76,0
141120,note_on,0,0,1,,,,,,,,,,,,,,,0,,,68,0
141120,note_on,0,0,1,,,,,,,,,,,,,,,0,,,64,0
141120,note_on,0,0,1,,,,,,,,,,,,,,,0,,,77,56
141120,note_on,0,0,1,,,,,,,,,,,,,,,0,,,65,50
142080,note_on,0,0,1,,,,,,,,,,,,,,,0,,,78,53
142080,note_on,960,0,1,,,,,,,,,,,,,,,0,,,77,0
142080,set_tempo,960,1,0,,,,,,,,,,,,480000,,,,,,,
142320,note_on,0,0,1,,,,,,,,,,,,,,,0,,,77,53
142320,note_on,240,0,1,,,,,,,,,,,,,,,0,,,78,0
142560,set_tempo,480,1,0,,,,,,,,,,,,461538,,,,,,,
142560,note_on,0,0,2,,,,,,,,,,,,,,,0,,,60,44
142560,note_on,0,0,2,,,,,,,,,,,,,,,0,,,48,39
142560,note_on,0,0,2,,,,,,,,,,,,,,,0,,,56,39
142560,note_on,0,0,2,,,,,,,,,,,,,,,0,,,49,0
142560,note_on,0,0,2,,,,,,,,,,,,,,,0,,,56,0
142560,note_on,1440,0,2,,,,,,,,,,,,,,,0,,,61,0
142560,note_on,0,0,1,,,,,,,,,,,,,,,0,,,65,0
142560,note_on,0,0,1,,,,,,,,,,,,,,,0,,,68,0
142560,note_on,240,0,1,,,,,,,,,,,,,,,0,,,77,0
142560,note_on,0,0,1,,,,,,,,,,,,,,,0,,,75,54
142560,note_on,0,0,1,,,,,,,,,,,,,,,0,,,68,48
142560,note_on,0,0,1,,,,,,,,,,,,,,,0,,,63,48
143520,set_tempo,960,1,0,,,,,,,,,,,,481928,,,,,,,
143520,note_on,0,0,2,,,,,,,,,,,,,,,0,,,47,36
143520,note_on,0,0,2,,,,,,,,,,,,,,,0,,,59,40
143520,note_on,0,0,2,,,,,,,,,,,,,,,0,,,48,0
143520,note_on,960,0,2,,,,,,,,,,,,,,,0,,,60,0
143520,note_on,960,0,1,,,,,,,,,,,,,,,0,,,75,0
143520,note_on,0,0,1,,,,,,,,,,,,,,,0,,,63,0
143520,note_on,0,0,1,,,,,,,,,,,,,,,0,,,74,51
143520,note_on,0,0,1,,,,,,,,,,,,,,,0,,,62,45
144000,note_on,0,0,1,,,,,,,,,,,,,,,0,,,62,0
144000,note_on,480,0,2,,,,,,,,,,,,,,,0,,,59,0
144000,note_on,0,0,2,,,,,,,,,,,,,,,0,,,47,0
144000,note_on,0,0,2,,,,,,,,,,,,,,,0,,,56,0
144000,note_on,0,0,2,,,,,,,,,,,,,,,0,,,46,37
144000,note_on,0,0,2,,,,,,,,,,,,,,,0,,,51,37
144000,note_on,0,0,2,,,,,,,,,,,,,,,0,,,58,42
144000,set_tempo,480,1,0,,,,,,,,,,,,461538,,,,,,,
144000,note_on,0,0,1,,,,,,,,,,,,,,,0,,,73,53
144000,note_on,0,0,1,,,,,,,,,,,,,,,0,,,67,53
144000,note_on,0,0,1,,,,,,,,,,,,,,,0,,,61,47
144000,note_on,0,0,1,,,,,,,,,,,,,,,0,,,68,0
144000,note_on,480,0,1,,,,,,,,,,,,,,,0,,,74,0
144960,note_on,0,0,2,,,,,,,,,,,,,,,0,,,51,0
144960,note_on,0,0,2,,,,,,,,,,,,,,,0,,,46,0
144960,note_on,0,0,2,,,,,,,,,,,,,,,0,,,51,40
144960,note_on,960,0,2,,,,,,,,,,,,,,,0,,,58,0
144960,set_tempo,960,1,0,,,,,,,,,,,,466926,,,,,,,
144960,note_on,0,0,1,,,,,,,,,,,,,,,0,,,67,0
144960,note_on,0,0,1,,,,,,,,,,,,,,,0,,,61,0
144960,note_on,0,0,1,,,,,,,,,,,,,,,0,,,72,50
144960,note_on,0,0,1,,,,,,,,,,,,,,,0,,,61,45
144960,note_on,0,0,1,,,,,,,,,,,,,,,0,,,67,45
144960,note_on,960,0,1,,,,,,,,,,,,,,,0,,,73,0
145200,note_on,240,0,1,,,,,,,,,,,,,,,0,,,72,0
145200,note_on,0,0,1,,,,,,,,,,,,,,,0,,,70,49
145440,note_on,0,0,2,,,,,,,,,,,,,,,0,,,57,43
145440,note_on,0,0,2,,,,,,,,,,,,,,,0,,,51,38
145440,note_on,0,0,2,,,,,,,,,,,,,,,0,,,45,38
145440,note_on,480,0,2,,,,,,,,,,,,,,,0,,,51,0
145440,set_tempo,480,1,0,,,,,,,,,,,,461538,,,,,,,
145440,note_on,0,0,1,,,,,,,,,,,,,,,0,,,63,47
145440,note_on,0,0,1,,,,,,,,,,,,,,,0,,,66,47
145440,note_on,0,0,1,,,,,,,,,,,,,,,0,,,61,0
145440,note_on,0,0,1,,,,,,,,,,,,,,,0,,,67,0
145440,note_on,0,0,1,,,,,,,,,,,,,,,0,,,75,53
145440,note_on,240,0,1,,,,,,,,,,,,,,,0,,,70,0
146400,set_tempo,960,1,0,,,,,,,,,,,,472441,,,,,,,
146400,note_on,0,0,1,,,,,,,,,,,,,,,0,,,66,43
146400,note_on,0,0,1,,,,,,,,,,,,,,,0,,,63,43
146400,note_on,0,0,1,,,,,,,,,,,,,,,0,,,73,48
146400,note_on,0,0,1,,,,,,,,,,,,,,,0,,,63,0
146400,note_on,960,0,1,,,,,,,,,,,,,,,0,,,75,0
146400,note_on,0,0,1,,,,,,,,,,,,,,,0,,,66,0
146400,note_on,960,0,2,,,,,,,,,,,,,,,0,,,57,0
146400,note_on,0,0,2,,,,,,,,,,,,,,,0,,,57,37
146400,note_on,0,0,2,,,,,,,,,,,,,,,0,,,51,33
146400,note_on,0,0,2,,,,,,,,,,,,,,,0,,,45,0
146400,note_on,0,0,2,,,,,,,,,,,,,,,0,,,51,0
146640,note_on,240,0,1,,,,,,,,,,,,,,,0,,,73,0
146640,note_on,0,0,1,,,,,,,,,,,,,,,0,,,72,48
146880,note_on,0,0,2,,,,,,,,,,,,,,,0,,,58,41
146880,note_on,0,0,1,,,,,,,,,,,,,,,0,,,73,52
146880,note_on,0,0,1,,,,,,,,,,,,,,,0,,,67,46
146880,note_on,0,0,1,,,,,,,,,,,,,,,0,,,61,46
146880,note_on,0,0,1,,,,,,,,,,,,,,,0,,,63,0
146880,note_on,240,0,1,,,,,,,,,,,,,,,0,,,72,0
146880,note_on,0,0,2,,,,,,,,,,,,,,,0,,,51,36
146880,note_on,480,0,2,,,,,,,,,,,,,,,0,,,57,0
146880,set_tempo,480,1,0,,,,,,,,,,,,461538,,,,,,,
146880,note_on,0,0,2,,,,,,,,,,,,,,,0,,,51,0
146880,note_on,0,0,1,,,,,,,,,,,,,,,0,,,66,0
146880,note_on,0,0,2,,,,,,,,,,,,,,,0,,,46,36
147840,set_tempo,960,1,0,,,,,,,,,,,,515021,,,,,,,
147840,note_on,0,0,1,,,,,,,,,,,,,,,0,,,61,0
147840,note_on,0,0,1,,,,,,,,,,,,,,,0,,,72,47
147840,note_on,0,0,1,,,,,,,,,,,,,,,0,,,61,42
147840,note_on,0,0,1,,,,,,,,,,,,,,,0,,,67,42
147840,note_on,0,0,1,,,,,,,,,,,,,,,0,,,67,0
147840,note_on,960,0,1,,,,,,,,,,,,,,,0,,,73,0
147840,note_on,960,0,2,,,,,,,,,,,,,,,0,,,58,0
147840,note_on,0,0,2,,,,,,,,,,,,,,,0,,,51,0
147840,note_on,0,0,2,,,,,,,,,,,,,,,0,,,46,0
147840,note_on,0,0,2,,,,,,,,,,,,,,,0,,,51,35
148080,note_on,240,0,1,,,,,,,,,,,,,,,0,,,72,0
148080,note_on,0,0,1,,,,,,,,,,,,,,,0,,,70,47
148320,note_on,240,0,1,,,,,,,,,,,,,,,0,,,70,0
148320,note_on,0,0,1,,,,,,,,,,,,,,,0,,,67,0
148320,note_on,0,0,1,,,,,,,,,,,,,,,0,,,61,0
148320,note_on,0,0,1,,,,,,,,,,,,,,,0,,,60,40
148320,note_on,0,0,1,,,,,,,,,,,,,,,0,,,68,45
148320,note_on,0,0,2,,,,,,,,,,,,,,,0,,,44,30
148320,note_on,480,0,2,,,,,,,,,,,,,,,0,,,51,0
148320,note_on,0,0,2,,,,,,,,,,,,,,,0,,,51,34
148800,note_on,480,0,1,,,,,,,,,,,,,,,0,,,68,0
148800,note_on,0,0,1,,,,,,,,,,,,,,,0,,,67,40
148800,set_tempo,960,1,0,,,,,,,,,,,,538117,,,,,,,
149280,note_on,960,0,2,,,,,,,,,,,,,,,0,,,51,0
149280,note_on,0,0,2,,,,,,,,,,,,,,,0,,,56,29
149280,set_tempo,480,1,0,,,,,,,,,,,,568720,,,,,,,
149280,note_on,0,0,1,,,,,,,,,,,,,,,0,,,66,36
149280,note_on,480,0,1,,,,,,,,,,,,,,,0,,,67,0
149760,note_on,0,0,1,,,,,,,,,,,,,,,0,,,65,38
149760,note_on,480,0,1,,,,,,,,,,,,,,,0,,,66,0
149760,note_on,0,0,1,,,,,,,,,,,,,,,0,,,60,0
149760,note_on,0,0,2,,,,,,,,,,,,,,,0,,,44,0
149760,set_tempo,480,1,0,,,,,,,,,,,,480000,,,,,,,
149760,note_on,480,0,2,,,,,,,,,,,,,,,0,,,56,0
149760,note_on,0,0,2,,,,,,,,,,,,,,,0,,,37,25
149760,note_on,0,0,2,,,,,,,,,,,,,,,0,,,44,25
149760,note_on,0,0,2,,,,,,,,,,,,,,,0,,,56,28
149760,note_on,0,0,2,,,,,,,,,,,,,,,0,,,53,25
149760,note_on,0,0,2,,,,,,,,,,,,,,,0,,,49,25
150720,note_on,0,0,1,,,,,,,,,,,,,,,0,,,66,39
150720,note_on,960,0,1,,,,,,,,,,,,,,,0,,,65,0
150960,note_on,0,0,1,,,,,,,,,,,,,,,0,,,65,38
150960,note_on,240,0,1,,,,,,,,,,,,,,,0,,,66,0
151200,note_on,1440,0,2,,,,,,,,,,,,,,,0,,,56,0
151200,note_on,0,0,2,,,,,,,,,,,,,,,0,,,44,0
151200,note_on,0,0,2,,,,,,,,,,,,,,,0,,,49,0
151200,set_tempo,1440,1,0,,,,,,,,,,,,480000,,,,,,,
151200,note_on,0,0,2,,,,,,,,,,,,,,,0,,,37,0
151200,note_on,0,0,2,,,,,,,,,,,,,,,0,,,53,0
151200,note_on,0,0,2,,,,,,,,,,,,,,,0,,,56,28
151200,note_on,240,0,1,,,,,,,,,,,,,,,0,,,65,0
151200,note_on,0,0,2,,,,,,,,,,,,,,,0,,,54,25
151200,note_on,0,0,2,,,,,,,,,,,,,,,0,,,44,25
151200,note_on,0,0,2,,,,,,,,,,,,,,,0,,,48,25
151200,note_on,0,0,1,,,,,,,,,,,,,,,0,,,63,39
151200,note_on,0,0,2,,,,,,,,,,,,,,,0,,,39,25
152160,note_on,0,0,1,,,,,,,,,,,,,,,0,,,65,37
152160,note_on,960,0,1,,,,,,,,,,,,,,,0,,,63,0
152400,note_on,240,0,1,,,,,,,,,,,,,,,0,,,65,0
152400,note_on,0,0,1,,,,,,,,,,,,,,,0,,,63,35
152640,note_on,0,0,2,,,,,,,,,,,,,,,0,,,53,25
152640,note_on,0,0,2,,,,,,,,,,,,,,,0,,,61,28
152640,note_on,0,0,2,,,,,,,,,,,,,,,0,,,49,25
152640,note_on,0,0,2,,,,,,,,,,,,,,,0,,,44,25
152640,note_on,0,0,2,,,,,,,,,,,,,,,0,,,44,0
152640,note_on,0,0,2,,,,,,,,,,,,,,,0,,,56,0
152640,note_on,0,0,2,,,,,,,,,,,,,,,0,,,39,0
152640,note_on,0,0,2,,,,,,,,,,,,,,,0,,,48,0
152640,note_on,1440,0,2,,,,,,,,,,,,,,,0,,,54,0
152640,note_on,240,0,1,,,,,,,,,,,,,,,0,,,63,0
152640,note_on,0,0,2,,,,,,,,,,,,,,,0,,,41,25
152640,note_on,0,0,2,,,,,,,,,,,,,,,0,,,56,25
153000,note_on,0,0,2,,,,,,,,,,,,,,,0,,,61,0
153000,note_on,0,0,2,,,,,,,,,,,,,,,0,,,53,0
153000,note_on,360,0,2,,,,,,,,,,,,,,,0,,,56,0
153120,note_on,0,0,2,,,,,,,,,,,,,,,0,,,49,0
153120,note_on,0,0,2,,,,,,,,,,,,,,,0,,,44,0
153120,note_on,0,0,2,,,,,,,,,,,,,,,0,,,42,27
153120,note_on,0,0,2,,,,,,,,,,,,,,,0,,,46,27
153120,note_on,0,0,2,,,,,,,,,,,,,,,0,,,49,27
153120,note_on,0,0,2,,,,,,,,,,,,,,,0,,,61,30
153120,note_on,0,0,2,,,,,,,,,,,,,,,0,,,58,27
153120,note_on,0,0,2,,,,,,,,,,,,,,,0,,,54,27
153120,note_on,120,0,2,,,,,,,,,,,,,,,0,,,41,0
153480,note_on,360,0,2,,,,,,,,,,,,,,,0,,,54,0
153480,note_on,0,0,2,,,,,,,,,,,,,,,0,,,61,0
153480,note_on,0,0,2,,,,,,,,,,,,,,,0,,,58,0
153600,note_on,0,0,2,,,,,,,,,,,,,,,0,,,43,28
153600,note_on,120,0,2,,,,,,,,,,,,,,,0,,,42,0
153600,note_on,0,0,2,,,,,,,,,,,,,,,0,,,49,0
153600,note_on,0,0,2,,,,,,,,,,,,,,,0,,,46,0
153600,note_on,0,0,2,,,,,,,,,,,,,,,0,,,46,28
153600,note_on,0,0,2,,,,,,,,,,,,,,,0,,,49,28
153600,note_on,0,0,2,,,,,,,,,,,,,,,0,,,63,32
153600,note_on,0,0,2,,,,,,,,,,,,,,,0,,,61,28
153600,note_on,0,0,2,,,,,,,,,,,,,,,0,,,58,28
153600,note_on,0,0,2,,,,,,,,,,,,,,,0,,,51,28
153600,set_tempo,2400,1,0,,,,,,,,,,,,526316,,,,,,,
153960,note_on,0,0,2,,,,,,,,,,,,,,,0,,,58,0
153960,note_on,0,0,2,,,,,,,,,,,,,,,0,,,63,0
153960,note_on,360,0,2,,,,,,,,,,,,,,,0,,,51,0
153960,note_on,0,0,2,,,,,,,,,,,,,,,0,,,61,0
154080,note_on,0,0,2,,,,,,,,,,,,,,,0,,,51,26
154080,note_on,120,0,2,,,,,,,,,,,,,,,0,,,43,0
154080,note_on,0,0,2,,,,,,,,,,,,,,,0,,,49,0
154080,note_on,0,0,2,,,,,,,,,,,,,,,0,,,46,0
154080,note_on,0,0,2,,,,,,,,,,,,,,,0,,,44,26
154080,note_on,0,0,2,,,,,,,,,,,,,,,0,,,48,26
154080,note_on,0,0,2,,,,,,,,,,,,,,,0,,,56,29
154080,set_tempo,480,1,0,,,,,,,,,,,,502092,,,,,,,
155040,note_on,0,0,2,,,,,,,,,,,,,,,0,,,44,0
155040,note_on,2400,0,1,,,,,,,,,,,,,,,0,,,56,54
155040,note_on,0,0,1,,,,,,,,,,,,,,,0,,,61,54
155040,note_on,0,0,1,,,,,,,,,,,,,,,0,,,68,61
155040,set_tempo,960,1,0,,,,,,,,,,,,495868,,,,,,,
155040,control_change,0,0,2,,,,,,,,,,,,,,,0,64,127,,
155040,note_on,0,0,2,,,,,,,,,,,,,,,0,,,48,0
155040,note_on,0,0,2,,,,,,,,,,,,,,,0,,,49,43
155040,note_on,0,0,2,,,,,,,,,,,,,,,0,,,41,43
155040,note_on,0,0,2,,,,,,,,,,,,,,,0,,,51,0
155040,note_on,960,0,2,,,,,,,,,,,,,,,0,,,56,0
155040,note_on,0,0,2,,,,,,,,,,,,,,,0,,,53,48
155520,note_on,0,0,1,,,,,,,,,,,,,,,0,,,68,61
155520,note_on,0,0,1,,,,,,,,,,,,,,,0,,,56,54
155520,note_on,0,0,1,,,,,,,,,,,,,,,0,,,56,0
155520,note_on,0,0,1,,,,,,,,,,,,,,,0,,,61,0
155520,note_on,480,0,1,,,,,,,,,,,,,,,0,,,68,0
155520,note_on,0,0,1,,,,,,,,,,,,,,,0,,,61,54
155520,set_tempo,480,1,0,,,,,,,,,,,,461538,,,,,,,
155520,note_on,0,0,2,,,,,,,,,,,,,,,0,,,53,48
155520,note_on,0,0,2,,,,,,,,,,,,,,,0,,,49,43
155520,note_on,0,0,2,,,,,,,,,,,,,,,0,,,41,43
155520,note_on,0,0,2,,,,,,,,,,,,,,,0,,,41,0
155520,note_on,0,0,2,,,,,,,,,,,,,,,0,,,49,0
155520,note_on,480,0,2,,,,,,,,,,,,,,,0,,,53,0
156000,control_change,480,0,2,,,,,,,,,,,,,,,0,64,0,,
156480,note_on,0,0,2,,,,,,,,,,,,,,,0,,,54,48
156480,note_on,0,0,1,,,,,,,,,,,,,,,0,,,61,61
156480,note_on,0,0,1,,,,,,,,,,,,,,,0,,,70,68
156480,note_on,0,0,1,,,,,,,,,,,,,,,0,,,58,61
156480,note_on,0,0,1,,,,,,,,,,,,,,,0,,,56,0
156480,note_on,0,0,1,,,,,,,,,,,,,,,0,,,61,0
156480,note_on,0,0,2,,,,,,,,,,,,,,,0,,,49,43
156480,note_on,0,0,2,,,,,,,,,,,,,,,0,,,42,43
156480,note_on,480,0,2,,,,,,,,,,,,,,,0,,,53,0
156480,note_on,0,0,2,,,,,,,,,,,,,,,0,,,49,0
156480,note_on,0,0,2,,,,,,,,,,,,,,,0,,,41,0
156480,note_on,960,0,1,,,,,,,,,,,,,,,0,,,68,0
156720,note_on,0,0,2,,,,,,,,,,,,,,,0,,,41,39
156720,note_on,0,0,2,,,,,,,,,,,,,,,0,,,42,0
156720,note_on,0,0,2,,,,,,,,,,,,,,,0,,,53,44
156720,note_on,240,0,2,,,,,,,,,,,,,,,0,,,54,0
156720,note_on,0,0,1,,,,,,,,,,,,,,,0,,,56,54
156720,note_on,240,0,1,,,,,,,,,,,,,,,0,,,70,0
156720,note_on,0,0,1,,,,,,,,,,,,,,,0,,,58,0
156720,note_on,0,0,1,,,,,,,,,,,,,,,0,,,68,60
156960,note_on,0,0,2,,,,,,,,,,,,,,,0,,,53,44
156960,note_on,0,0,2,,,,,,,,,,,,,,,0,,,49,39
156960,note_on,0,0,2,,,,,,,,,,,,,,,0,,,41,39
156960,note_on,0,0,2,,,,,,,,,,,,,,,0,,,49,0
156960,note_on,0,0,2,,,,,,,,,,,,,,,0,,,41,0
156960,note_on,240,0,2,,,,,,,,,,,,,,,0,,,53,0
156960,note_on,0,0,1,,,,,,,,,,,,,,,0,,,56,0
156960,note_on,0,0,1,,,,,,,,,,,,,,,0,,,61,0
156960,note_on,0,0,1,,,,,,,,,,,,,,,0,,,56,53
156960,note_on,0,0,1,,,,,,,,,,,,,,,0,,,61,53
156960,note_on,0,0,1,,,,,,,,,,,,,,,0,,,68,59
156960,set_tempo,1440,1,0,,,,,,,,,,,,487805,,,,,,,
156960,note_on,240,0,1,,,,,,,,,,,,,,,0,,,68,0
157440,note_on,0,0,2,,,,,,,,,,,,,,,0,,,49,0
157440,note_on,0,0,1,,,,,,,,,,,,,,,0,,,68,69
157440,note_on,480,0,1,,,,,,,,,,,,,,,0,,,68,0
157440,note_on,0,0,1,,,,,,,,,,,,,,,0,,,61,0
157440,note_on,480,0,2,,,,,,,,,,,,,,,0,,,53,0
157440,note_on,0,0,2,,,,,,,,,,,,,,,0,,,41,0
157440,note_on,0,0,2,,,,,,,,,,,,,,,0,,,53,61
157440,note_on,0,0,2,,,,,,,,,,,,,,,0,,,49,54
157440,set_tempo,480,1,0,,,,,,,,,,,,474308,,,,,,,
157440,note_on,0,0,1,,,,,,,,,,,,,,,0,,,56,0
157440,note_on,0,0,1,,,,,,,,,,,,,,,0,,,77,77
157440,note_on,0,0,1,,,,,,,,,,,,,,,0,,,65,69
157440,note_on,0,0,2,,,,,,,,,,,,,,,0,,,61,61
157920,note_on,0,0,2,,,,,,,,,,,,,,,0,,,56,51
157920,note_on,0,0,1,,,,,,,,,,,,,,,0,,,75,71
157920,note_on,0,0,2,,,,,,,,,,,,,,,0,,,53,0
157920,note_on,0,0,1,,,,,,,,,,,,,,,0,,,63,63
157920,note_on,480,0,2,,,,,,,,,,,,,,,0,,,61,0
157920,note_on,0,0,1,,,,,,,,,,,,,,,0,,,68,63
157920,note_on,480,0,1,,,,,,,,,,,,,,,0,,,77,0
157920,note_on,0,0,2,,,,,,,,,,,,,,,0,,,49,0
157920,note_on,0,0,2,,,,,,,,,,,,,,,0,,,60,57
157920,note_on,0,0,2,,,,,,,,,,,,,,,0,,,48,51
157920,note_on,0,0,1,,,,,,,,,,,,,,,0,,,68,0
157920,note_on,0,0,1,,,,,,,,,,,,,,,0,,,65,0
158400,note_on,480,0,1,,,,,,,,,,,,,,,0,,,75,0
158400,note_on,0,0,1,,,,,,,,,,,,,,,0,,,68,0
158400,note_on,0,0,1,,,,,,,,,,,,,,,0,,,63,0
158400,note_on,0,0,1,,,,,,,,,,,,,,,0,,,61,72
158400,note_on,0,0,1,,,,,,,,,,,,,,,0,,,65,72
158400,note_on,0,0,1,,,,,,,,,,,,,,,0,,,73,80
158400,note_on,480,0,2,,,,,,,,,,,,,,,0,,,60,0
158400,note_on,0,0,2,,,,,,,,,,,,,,,0,,,48,0
158400,note_on,0,0,2,,,,,,,,,,,,,,,0,,,56,0
158400,note_on,0,0,2,,,,,,,,,,,,,,,0,,,46,57
158400,note_on,0,0,2,,,,,,,,,,,,,,,0,,,53,57
158400,note_on,0,0,2,,,,,,,,,,,,,,,0,,,58,64
159360,note_on,0,0,1,,,,,,,,,,,,,,,0,,,60,68
159360,note_on,0,0,1,,,,,,,,,,,,,,,0,,,61,0
159360,note_on,0,0,1,,,,,,,,,,,,,,,0,,,65,0
159360,note_on,960,0,1,,,,,,,,,,,,,,,0,,,73,0
159360,note_on,0,0,2,,,,,,,,,,,,,,,0,,,54,54
159360,note_on,0,0,2,,,,,,,,,,,,,,,0,,,46,0
159360,note_on,0,0,2,,,,,,,,,,,,,,,0,,,44,54
159360,note_on,0,0,1,,,,,,,,,,,,,,,0,,,63,68
159360,note_on,0,0,2,,,,,,,,,,,,,,,0,,,53,0
159360,note_on,960,0,2,,,,,,,,,,,,,,,0,,,58,0
159360,note_on,0,0,2,,,,,,,,,,,,,,,0,,,56,60
159360,note_on,0,0,1,,,,,,,,,,,,,,,0,,,68,68
159360,note_on,0,0,1,,,,,,,,,,,,,,,0,,,72,76
159360,set_tempo,1920,1,0,,,,,,,,,,,,491803,,,,,,,
159840,set_tempo,480,1,0,,,,,,,,,,,,461538,,,,,,,
159840,note_on,0,0,2,,,,,,,,,,,,,,,0,,,56,64
159840,note_on,0,0,2,,,,,,,,,,,,,,,0,,,53,57
159840,note_on,0,0,2,,,,,,,,,,,,,,,0,,,49,57
159840,note_on,0,0,2,,,,,,,,,,,,,,,0,,,44,0
159840,note_on,0,0,2,,,,,,,,,,,,,,,0,,,56,0
159840,note_on,480,0,1,,,,,,,,,,,,,,,0,,,72,0
159840,note_on,0,0,1,,,,,,,,,,,,,,,0,,,60,0
159840,note_on,0,0,1,,,,,,,,,,,,,,,0,,,63,0
159840,note_on,0,0,1,,,,,,,,,,,,,,,0,,,68,0
159840,note_on,0,0,1,,,,,,,,,,,,,,,0,,,65,72
159840,note_on,0,0,1,,,,,,,,,,,,,,,0,,,68,72
159840,note_on,0,0,1,,,,,,,,,,,,,,,0,,,73,81
159840,note_on,0,0,1,,,,,,,,,,,,,,,0,,,61,72
159840,note_on,480,0,2,,,,,,,,,,,,,,,0,,,54,0
160800,note_on,0,0,2,,,,,,,,,,,,,,,0,,,49,0
160800,note_on,0,0,2,,,,,,,,,,,,,,,0,,,65,66
160800,note_on,0,0,2,,,,,,,,,,,,,,,0,,,61,59
160800,note_on,0,0,2,,,,,,,,,,,,,,,0,,,53,59
160800,set_tempo,960,1,0,,,,,,,,,,,,481928,,,,,,,
160800,note_on,0,0,2,,,,,,,,,,,,,,,0,,,53,0
160800,note_on,0,0,1,,,,,,,,,,,,,,,0,,,61,0
160800,note_on,0,0,1,,,,,,,,,,,,,,,0,,,65,0
160800,note_on,0,0,1,,,,,,,,,,,,,,,0,,,68,0
160800,note_on,960,0,1,,,,,,,,,,,,,,,0,,,73,0
160800,note_on,0,0,1,,,,,,,,,,,,,,,0,,,80,83
160800,note_on,0,0,1,,,,,,,,,,,,,,,0,,,68,74
160800,note_on,960,0,2,,,,,,,,,,,,,,,0,,,56,0
160800,note_on,0,0,1,,,,,,,,,,,,,,,0,,,73,74
161280,note_on,480,0,1,,,,,,,,,,,,,,,0,,,73,0
161280,note_on,0,0,2,,,,,,,,,,,,,,,0,,,65,64
161280,note_on,0,0,2,,,,,,,,,,,,,,,0,,,61,57
161280,note_on,0,0,2,,,,,,,,,,,,,,,0,,,53,57
161280,note_on,0,0,1,,,,,,,,,,,,,,,0,,,80,0
161280,note_on,0,0,2,,,,,,,,,,,,,,,0,,,61,0
161280,note_on,480,0,2,,,,,,,,,,,,,,,0,,,53,0
161280,note_on,0,0,1,,,,,,,,,,,,,,,0,,,68,0
161280,note_on,0,0,1,,,,,,,,,,,,,,,0,,,68,74
161280,note_on,0,0,1,,,,,,,,,,,,,,,0,,,73,74
161280,note_on,0,0,1,,,,,,,,,,,,,,,0,,,80,83
161280,set_tempo,480,1,0,,,,,,,,,,,,451128,,,,,,,
161280,note_on,0,0,2,,,,,,,,,,,,,,,0,,,65,0
162240,note_on,960,0,1,,,,,,,,,,,,,,,0,,,80,0
162240,note_on,960,0,2,,,,,,,,,,,,,,,0,,,65,0
162240,note_on,0,0,2,,,,,,,,,,,,,,,0,,,54,61
162240,note_on,0,0,1,,,,,,,,,,,,,,,0,,,73,0
162240,note_on,0,0,2,,,,,,,,,,,,,,,0,,,66,68
162240,note_on,0,0,2,,,,,,,,,,,,,,,0,,,61,0
162240,note_on,0,0,2,,,,,,,,,,,,,,,0,,,61,61
162240,note_on,0,0,1,,,,,,,,,,,,,,,0,,,73,79
162240,note_on,0,0,1,,,,,,,,,,,,,,,0,,,82,88
162240,note_on,0,0,1,,,,,,,,,,,,,,,0,,,70,79
162240,note_on,0,0,1,,,,,,,,,,,,,,,0,,,68,0
162240,set_tempo,960,1,0,,,,,,,,,,,,451128,,,,,,,
162240,note_on,0,0,2,,,,,,,,,,,,,,,0,,,53,0
162480,note_on,240,0,2,,,,,,,,,,,,,,,0,,,54,0
162480,note_on,0,0,2,,,,,,,,,,,,,,,0,,,66,0
162480,note_on,0,0,2,,,,,,,,,,,,,,,0,,,53,57
162480,note_on,0,0,1,,,,,,,,,,,,,,,0,,,68,74
162480,note_on,0,0,1,,,,,,,,,,,,,,,0,,,70,0
162480,note_on,240,0,1,,,,,,,,,,,,,,,0,,,82,0
162480,note_on,0,0,2,,,,,,,,,,,,,,,0,,,65,64
162480,note_on,0,0,1,,,,,,,,,,,,,,,0,,,80,83
162720,set_tempo,480,1,0,,,,,,,,,,,,483871,,,,,,,
162720,note_on,0,0,1,,,,,,,,,,,,,,,0,,,80,83
162720,note_on,0,0,2,,,,,,,,,,,,,,,0,,,65,0
162720,note_on,240,0,1,,,,,,,,,,,,,,,0,,,80,0
162720,note_on,240,0,2,,,,,,,,,,,,,,,0,,,53,0
162720,note_on,0,0,1,,,,,,,,,,,,,,,0,,,73,0
162720,note_on,0,0,1,,,,,,,,,,,,,,,0,,,68,74
162720,note_on,0,0,1,,,,,,,,,,,,,,,0,,,68,0
162720,note_on,0,0,1,,,,,,,,,,,,,,,0,,,73,74
162720,note_on,0,0,2,,,,,,,,,,,,,,,0,,,61,59
162720,note_on,0,0,2,,,,,,,,,,,,,,,0,,,65,66
162720,note_on,0,0,2,,,,,,,,,,,,,,,0,,,61,0
162720,note_on,0,0,2,,,,,,,,,,,,,,,0,,,53,59
163200,set_tempo,480,1,0,,,,,,,,,,,,461538,,,,,,,
163200,note_on,0,0,2,,,,,,,,,,,,,,,0,,,65,0
163200,note_on,0,0,1,,,,,,,,,,,,,,,0,,,73,0
163200,note_on,0,0,1,,,,,,,,,,,,,,,0,,,68,0
163200,note_on,0,0,1,,,,,,,,,,,,,,,0,,,61,82
163200,note_on,0,0,1,,,,,,,,,,,,,,,0,,,68,82
163200,note_on,0,0,1,,,,,,,,,,,,,,,0,,,73,82
163200,note_on,0,0,1,,,,,,,,,,,,,,,0,,,89,92
163200,note_on,0,0,2,,,,,,,,,,,,,,,0,,,61,0
163200,note_on,0,0,1,,,,,,,,,,,,,,,0,,,77,82
163200,note_on,480,0,2,,,,,,,,,,,,,,,0,,,53,0
163200,note_on,480,0,1,,,,,,,,,,,,,,,0,,,80,0
163200,note_on,0,0,1,,,,,,,,,,,,,,,0,,,80,82
163680,note_on,480,0,1,,,,,,,,,,,,,,,0,,,77,0
163680,note_on,0,0,1,,,,,,,,,,,,,,,0,,,68,0
163680,note_on,0,0,1,,,,,,,,,,,,,,,0,,,73,0
163680,note_on,0,0,1,,,,,,,,,,,,,,,0,,,61,0
163680,note_on,0,0,1,,,,,,,,,,,,,,,0,,,89,0
163680,note_on,0,0,1,,,,,,,,,,,,,,,0,,,60,80
163680,note_on,0,0,1,,,,,,,,,,,,,,,0,,,68,80
163680,note_on,0,0,1,,,,,,,,,,,,,,,0,,,72,80
163680,note_on,0,0,1,,,,,,,,,,,,,,,0,,,75,80
163680,set_tempo,480,1,0,,,,,,,,,,,,478088,,,,,,,
163680,note_on,0,0,1,,,,,,,,,,,,,,,0,,,80,80
163680,note_on,0,0,1,,,,,,,,,,,,,,,0,,,87,89
163680,note_on,0,0,1,,,,,,,,,,,,,,,0,,,80,0
164160,note_on,0,0,1,,,,,,,,,,,,,,,0,,,85,90
164160,note_on,0,0,1,,,,,,,,,,,,,,,0,,,73,81
164160,note_on,480,0,1,,,,,,,,,,,,,,,0,,,87,0
164160,note_on,0,0,1,,,,,,,,,,,,,,,0,,,68,0
164160,note_on,0,0,1,,,,,,,,,,,,,,,0,,,72,0
164160,note_on,0,0,1,,,,,,,,,,,,,,,0,,,60,0
164160,note_on,0,0,1,,,,,,,,,,,,,,,0,,,80,0
164160,note_on,0,0,1,,,,,,,,,,,,,,,0,,,75,0
164160,note_on,0,0,1,,,,,,,,,,,,,,,0,,,58,81
164160,note_on,0,0,1,,,,,,,,,,,,,,,0,,,70,81
164160,note_on,0,0,1,,,,,,,,,,,,,,,0,,,65,81
164160,note_on,0,0,1,,,,,,,,,,,,,,,0,,,77,81
165120,note_on,960,0,1,,,,,,,,,,,,,,,0,,,85,0
165120,note_on,0,0,1,,,,,,,,,,,,,,,0,,,65,0
165120,note_on,0,0,1,,,,,,,,,,,,,,,0,,,70,0
165120,set_tempo,1440,1,0,,,,,,,,,,,,510638,,,,,,,
165120,note_on,0,0,1,,,,,,,,,,,,,,,0,,,77,0
165120,note_on,0,0,1,,,,,,,,,,,,,,,0,,,58,0
165120,note_on,0,0,1,,,,,,,,,,,,,,,0,,,56,79
165120,note_on,0,0,1,,,,,,,,,,,,,,,0,,,66,79
165120,note_on,0,0,1,,,,,,,,,,,,,,,0,,,68,79
165120,note_on,0,0,1,,,,,,,,,,,,,,,0,,,75,79
165120,note_on,0,0,1,,,,,,,,,,,,,,,0,,,80,79
165120,note_on,0,0,1,,,,,,,,,,,,,,,0,,,84,88
165120,note_on,0,0,1,,,,,,,,,,,,,,,0,,,73,0
165120,note_on,0,0,1,,,,,,,,,,,,,,,0,,,72,79
165600,note_on,0,0,1,,,,,,,,,,,,,,,0,,,77,81
165600,note_on,0,0,1,,,,,,,,,,,,,,,0,,,65,81
165600,note_on,0,0,1,,,,,,,,,,,,,,,0,,,85,91
165600,note_on,480,0,1,,,,,,,,,,,,,,,0,,,84,0
165600,note_on,0,0,1,,,,,,,,,,,,,,,0,,,75,0
165600,note_on,0,0,1,,,,,,,,,,,,,,,0,,,66,0
165600,note_on,0,0,1,,,,,,,,,,,,,,,0,,,68,0
165600,note_on,0,0,1,,,,,,,,,,,,,,,0,,,56,0
165600,note_on,0,0,1,,,,,,,,,,,,,,,0,,,80,0
165600,note_on,0,0,1,,,,,,,,,,,,,,,0,,,72,0
165600,note_on,0,0,1,,,,,,,,,,,,,,,0,,,61,81
165600,note_on,0,0,1,,,,,,,,,,,,,,,0,,,80,81
165600,note_on,0,0,1,,,,,,,,,,,,,,,0,,,68,81
165600,note_on,0,0,1,,,,,,,,,,,,,,,0,,,73,81
166560,note_on,0,0,1,,,,,,,,,,,,,,,0,,,68,0
166560,note_on,0,0,2,,,,,,,,,,,,,,,0,,,60,64
166560,note_on,0,0,2,,,,,,,,,,,,,,,0,,,56,57
166560,note_on,3360,0,2,,,,,,,,,,,,,,,0,,,48,57
166560,note_on,0,0,1,,,,,,,,,,,,,,,0,,,77,0
166560,note_on,960,0,1,,,,,,,,,,,,,,,0,,,85,0
166560,note_on,0,0,1,,,,,,,,,,,,,,,0,,,68,72
166560,note_on,0,0,1,,,,,,,,,,,,,,,0,,,75,80
166560,note_on,0,0,1,,,,,,,,,,,,,,,0,,,65,0
166560,note_on,0,0,1,,,,,,,,,,,,,,,0,,,73,0
166560,set_tempo,1440,1,0,,,,,,,,,,,,480000,,,,,,,
166560,note_on,0,0,1,,,,,,,,,,,,,,,0,,,63,72
166560,note_on,0,0,1,,,,,,,,,,,,,,,0,,,61,0
166560,note_on,0,0,1,,,,,,,,,,,,,,,0,,,80,0
167040,note_on,0,0,2,,,,,,,,,,,,,,,0,,,60,64
167040,note_on,0,0,2,,,,,,,,,,,,,,,0,,,56,57
167040,note_on,0,0,2,,,,,,,,,,,,,,,0,,,48,57
167040,note_on,0,0,2,,,,,,,,,,,,,,,0,,,48,0
167040,note_on,0,0,2,,,,,,,,,,,,,,,0,,,56,0
167040,note_on,480,0,2,,,,,,,,,,,,,,,0,,,60,0
167040,set_tempo,480,1,0,,,,,,,,,,,,461538,,,,,,,
167040,note_on,0,0,1,,,,,,,,,,,,,,,0,,,75,0
167040,note_on,480,0,1,,,,,,,,,,,,,,,0,,,68,0
167040,note_on,0,0,1,,,,,,,,,,,,,,,0,,,63,0
167040,note_on,0,0,1,,,,,,,,,,,,,,,0,,,63,72
167040,note_on,0,0,1,,,,,,,,,,,,,,,0,,,68,72
167040,note_on,0,0,1,,,,,,,,,,,,,,,0,,,75,80
168000,note_on,0,0,2,,,,,,,,,,,,,,,0,,,56,56
168000,note_on,0,0,2,,,,,,,,,,,,,,,0,,,58,63
168000,note_on,0,0,2,,,,,,,,,,,,,,,0,,,46,56
168000,note_on,0,0,2,,,,,,,,,,,,,,,0,,,48,0
168000,note_on,0,0,2,,,,,,,,,,,,,,,0,,,56,0
168000,note_on,960,0,2,,,,,,,,,,,,,,,0,,,60,0
168000,note_on,0,0,1,,,,,,,,,,,,,,,0,,,73,81
168000,note_on,0,0,1,,,,,,,,,,,,,,,0,,,68,72
168000,note_on,0,0,1,,,,,,,,,,,,,,,0,,,68,0
168000,set_tempo,960,1,0,,,,,,,,,,,,461538,,,,,,,
168000,note_on,0,0,1,,,,,,,,,,,,,,,0,,,63,0
168000,note_on,0,0,1,,,,,,,,,,,,,,,0,,,61,72
168000,note_on,960,0,1,,,,,,,,,,,,,,,0,,,75,0
168240,note_on,0,0,2,,,,,,,,,,,,,,,0,,,60,63
168240,note_on,0,0,2,,,,,,,,,,,,,,,0,,,48,56
168240,note_on,0,0,2,,,,,,,,,,,,,,,0,,,46,0
168240,note_on,240,0,2,,,,,,,,,,,,,,,0,,,58,0
168240,note_on,240,0,1,,,,,,,,,,,,,,,0,,,73,0
168240,note_on,0,0,1,,,,,,,,,,,,,,,0,,,63,72
168240,note_on,0,0,1,,,,,,,,,,,,,,,0,,,75,81
168240,note_on,0,0,1,,,,,,,,,,,,,,,0,,,61,0
168480,note_on,240,0,1,,,,,,,,,,,,,,,0,,,75,0
168480,note_on,0,0,2,,,,,,,,,,,,,,,0,,,56,64
168480,note_on,240,0,2,,,,,,,,,,,,,,,0,,,60,0
168480,note_on,0,0,2,,,,,,,,,,,,,,,0,,,48,0
168480,note_on,0,0,2,,,,,,,,,,,,,,,0,,,56,0
168480,note_on,0,0,2,,,,,,,,,,,,,,,0,,,44,57
168480,note_on,0,0,1,,,,,,,,,,,,,,,0,,,63,0
168480,note_on,0,0,1,,,,,,,,,,,,,,,0,,,68,0
168480,note_on,0,0,1,,,,,,,,,,,,,,,0,,,72,82
168480,note_on,0,0,1,,,,,,,,,,,,,,,0,,,68,73
168480,note_on,0,0,1,,,,,,,,,,,,,,,0,,,60,73
168960,note_on,0,0,1,,,,,,,,,,,,,,,0,,,68,76
168960,note_on,0,0,1,,,,,,,,,,,,,,,0,,,60,0
168960,note_on,0,0,1,,,,,,,,,,,,,,,0,,,63,76
168960,note_on,0,0,1,,,,,,,,,,,,,,,0,,,75,85
168960,note_on,480,0,2,,,,,,,,,,,,,,,0,,,56,0
168960,note_on,0,0,2,,,,,,,,,,,,,,,0,,,44,0
168960,note_on,0,0,2,,,,,,,,,,,,,,,0,,,48,61
168960,note_on,480,0,1,,,,,,,,,,,,,,,0,,,72,0
168960,note_on,0,0,2,,,,,,,,,,,,,,,0,,,56,61
168960,note_on,0,0,2,,,,,,,,,,,,,,,0,,,60,68
168960,note_on,0,0,1,,,,,,,,,,,,,,,0,,,68,0
169440,note_on,480,0,1,,,,,,,,,,,,,,,0,,,75,0
169440,note_on,0,0,2,,,,,,,,,,,,,,,0,,,60,0
169440,note_on,0,0,1,,,,,,,,,,,,,,,0,,,63,0
169440,note_on,0,0,1,,,,,,,,,,,,,,,0,,,65,78
169440,note_on,0,0,1,,,,,,,,,,,,,,,0,,,68,78
169440,note_on,480,0,2,,,,,,,,,,,,,,,0,,,56,0
169440,note_on,0,0,2,,,,,,,,,,,,,,,0,,,49,61
169440,note_on,0,0,2,,,,,,,,,,,,,,,0,,,56,61
169440,note_on,0,0,2,,,,,,,,,,,,,,,0,,,61,68
169440,note_on,0,0,2,,,,,,,,,,,,,,,0,,,48,0
169440,note_on,0,0,1,,,,,,,,,,,,,,,0,,,77,87
169440,note_on,0,0,1,,,,,,,,,,,,,,,0,,,68,0
169920,note_on,480,0,1,,,,,,,,,,,,,,,0,,,77,0
169920,note_on,0,0,1,,,,,,,,,,,,,,,0,,,68,0
169920,note_on,0,0,1,,,,,,,,,,,,,,,0,,,65,0
169920,note_on,0,0,1,,,,,,,,,,,,,,,0,,,66,80
169920,note_on,0,0,1,,,,,,,,,,,,,,,0,,,68,80
169920,note_on,0,0,1,,,,,,,,,,,,,,,0,,,78,89
169920,note_on,0,0,2,,,,,,,,,,,,,,,0,,,56,0
169920,note_on,0,0,2,,,,,,,,,,,,,,,0,,,51,63
169920,note_on,480,0,2,,,,,,,,,,,,,,,0,,,49,0
169920,note_on,0,0,2,,,,,,,,,,,,,,,0,,,56,63
169920,note_on,0,0,2,,,,,,,,,,,,,,,0,,,61,0
169920,note_on,0,0,2,,,,,,,,,,,,,,,0,,,63,71
170400,note_on,0,0,1,,,,,,,,,,,,,,,0,,,66,0
170400,set_tempo,2400,1,0,,,,,,,,,,,,487805,,,,,,,
170400,note_on,0,0,1,,,,,,,,,,,,,,,0,,,68,81
170400,note_on,0,0,1,,,,,,,,,,,,,,,0,,,80,90
170400,note_on,0,0,1,,,,,,,,,,,,,,,0,,,68,0
170400,note_on,480,0,1,,,,,,,,,,,,,,,0,,,78,0
170400,note_on,480,0,2,,,,,,,,,,,,,,,0,,,51,0
170400,note_on,0,0,2,,,,,,,,,,,,,,,0,,,56,0
170400,note_on,0,0,2,,,,,,,,,,,,,,,0,,,56,66
170400,note_on,0,0,2,,,,,,,,,,,,,,,0,,,53,66
170400,note_on,0,0,2,,,,,,,,,,,,,,,0,,,63,0
170400,note_on,0,0,2,,,,,,,,,,,,,,,0,,,65,74
170880,set_tempo,480,1,0,,,,,,,,,,,,517241,,,,,,,
170880,note_on,0,0,1,,,,,,,,,,,,,,,0,,,70,85
170880,note_on,0,0,1,,,,,,,,,,,,,,,0,,,82,95
170880,note_on,0,0,1,,,,,,,,,,,,,,,0,,,80,0
170880,note_on,0,0,1,,,,,,,,,,,,,,,0,,,68,85
170880,note_on,0,0,2,,,,,,,,,,,,,,,0,,,54,61
170880,note_on,0,0,2,,,,,,,,,,,,,,,0,,,65,0
170880,note_on,0,0,2,,,,,,,,,,,,,,,0,,,66,68
170880,note_on,0,0,2,,,,,,,,,,,,,,,0,,,56,0
170880,note_on,480,0,2,,,,,,,,,,,,,,,0,,,53,0
170880,note_on,480,0,1,,,,,,,,,,,,,,,0,,,68,0
170880,note_on,0,0,2,,,,,,,,,,,,,,,0,,,56,61
171360,note_on,480,0,1,,,,,,,,,,,,,,,0,,,68,0
171360,note_on,0,0,1,,,,,,,,,,,,,,,0,,,70,0
171360,note_on,0,0,1,,,,,,,,,,,,,,,0,,,82,0
171360,note_on,0,0,1,,,,,,,,,,,,,,,0,,,63,59
171360,note_on,0,0,1,,,,,,,,,,,,,,,0,,,75,66
171360,note_on,0,0,1,,,,,,,,,,,,,,,0,,,68,59
171360,set_tempo,480,1,0,,,,,,,,,,,,461538,,,,,,,
171360,note_on,0,0,2,,,,,,,,,,,,,,,0,,,56,0
171360,note_on,0,0,2,,,,,,,,,,,,,,,0,,,56,49
171360,note_on,0,0,2,,,,,,,,,,,,,,,0,,,48,49
171360,note_on,0,0,2,,,,,,,,,,,,,,,0,,,54,0
171360,note_on,480,0,2,,,,,,,,,,,,,,,0,,,66,0
171360,note_on,0,0,2,,,,,,,,,,,,,,,0,,,60,55
172320,note_on,960,0,1,,,,,,,,,,,,,,,0,,,68,0
172320,note_on,0,0,1,,,,,,,,,,,,,,,0,,,75,0
172320,note_on,0,0,1,,,,,,,,,,,,,,,0,,,63,0
172320,note_on,0,0,1,,,,,,,,,,,,,,,0,,,64,45
172320,note_on,0,0,1,,,,,,,,,,,,,,,0,,,76,50
172320,note_on,0,0,1,,,,,,,,,,,,,,,0,,,68,45
172320,set_tempo,960,1,0,,,,,,,,,,,,508475,,,,,,,
172800,note_on,0,0,1,,,,,,,,,,,,,,,0,,,68,50
172800,note_on,0,0,2,,,,,,,,,,,,,,,0,,,61,44
172800,note_on,0,0,2,,,,,,,,,,,,,,,0,,,56,39
172800,note_on,1440,0,2,,,,,,,,,,,,,,,0,,,56,0
172800,note_on,0,0,2,,,,,,,,,,,,,,,0,,,49,39
172800,note_on,0,0,2,,,,,,,,,,,,,,,0,,,60,0
172800,note_on,0,0,1,,,,,,,,,,,,,,,0,,,64,0
172800,set_tempo,480,1,0,,,,,,,,,,,,461538,,,,,,,
172800,note_on,480,0,1,,,,,,,,,,,,,,,0,,,76,0
172800,note_on,0,0,1,,,,,,,,,,,,,,,0,,,68,0
172800,note_on,0,0,1,,,,,,,,,,,,,,,0,,,77,56
172800,note_on,0,0,1,,,,,,,,,,,,,,,0,,,65,50
172800,note_on,0,0,2,,,,,,,,,,,,,,,0,,,48,0
173760,note_on,960,0,1,,,,,,,,,,,,,,,0,,,77,0
173760,set_tempo,960,1,0,,,,,,,,,,,,480000,,,,,,,
173760,note_on,0,0,1,,,,,,,,,,,,,,,0,,,78,53
174000,note_on,240,0,1,,,,,,,,,,,,,,,0,,,78,0
174000,note_on,0,0,1,,,,,,,,,,,,,,,0,,,77,53
174240,note_on,0,0,2,,,,,,,,,,,,,,,0,,,60,44
174240,note_on,0,0,1,,,,,,,,,,,,,,,0,,,68,48
174240,note_on,0,0,2,,,,,,,,,,,,,,,0,,,48,39
174240,note_on,240,0,1,,,,,,,,,,,,,,,0,,,77,0
174240,note_on,0,0,1,,,,,,,,,,,,,,,0,,,68,0
174240,note_on,0,0,1,,,,,,,,,,,,,,,0,,,65,0
174240,note_on,0,0,1,,,,,,,,,,,,,,,0,,,63,48
174240,note_on,0,0,2,,,,,,,,,,,,,,,0,,,56,39
174240,note_on,0,0,1,,,,,,,,,,,,,,,0,,,75,54
174240,note_on,0,0,2,,,,,,,,,,,,,,,0,,,56,0
174240,note_on,1440,0,2,,,,,,,,,,,,,,,0,,,61,0
174240,set_tempo,480,1,0,,,,,,,,,,,,461538,,,,,,,
174240,note_on,0,0,2,,,,,,,,,,,,,,,0,,,49,0
175200,set_tempo,960,1,0,,,,,,,,,,,,481928,,,,,,,
175200,note_on,0,0,1,,,,,,,,,,,,,,,0,,,62,45
175200,note_on,0,0,1,,,,,,,,,,,,,,,0,,,74,51
175200,note_on,960,0,1,,,,,,,,,,,,,,,0,,,75,0
175200,note_on,0,0,1,,,,,,,,,,,,,,,0,,,63,0
175200,note_on,960,0,2,,,,,,,,,,,,,,,0,,,60,0
175200,note_on,0,0,2,,,,,,,,,,,,,,,0,,,48,0
175200,note_on,0,0,2,,,,,,,,,,,,,,,0,,,47,36
175200,note_on,0,0,2,,,,,,,,,,,,,,,0,,,59,40
175680,note_on,0,0,1,,,,,,,,,,,,,,,0,,,61,47
175680,set_tempo,480,1,0,,,,,,,,,,,,461538,,,,,,,
175680,note_on,480,0,2,,,,,,,,,,,,,,,0,,,59,0
175680,note_on,0,0,1,,,,,,,,,,,,,,,0,,,73,53
175680,note_on,0,0,1,,,,,,,,,,,,,,,0,,,67,47
175680,note_on,480,0,1,,,,,,,,,,,,,,,0,,,74,0
175680,note_on,0,0,2,,,,,,,,,,,,,,,0,,,47,0
175680,note_on,0,0,1,,,,,,,,,,,,,,,0,,,68,0
175680,note_on,0,0,2,,,,,,,,,,,,,,,0,,,56,0
175680,note_on,0,0,2,,,,,,,,,,,,,,,0,,,46,37
175680,note_on,0,0,2,,,,,,,,,,,,,,,0,,,51,37
175680,note_on,0,0,1,,,,,,,,,,,,,,,0,,,62,0
175680,note_on,0,0,2,,,,,,,,,,,,,,,0,,,58,42
176640,set_tempo,960,1,0,,,,,,,,,,,,466926,,,,,,,
176640,note_on,0,0,1,,,,,,,,,,,,,,,0,,,67,45
176640,note_on,0,0,1,,,,,,,,,,,,,,,0,,,61,45
176640,note_on,0,0,1,,,,,,,,,,,,,,,0,,,67,0
176640,note_on,0,0,1,,,,,,,,,,,,,,,0,,,61,0
176640,note_on,960,0,1,,,,,,,,,,,,,,,0,,,73,0
176640,note_on,960,0,2,,,,,,,,,,,,,,,0,,,58,0
176640,note_on,0,0,2,,,,,,,,,,,,,,,0,,,51,0
176640,note_on,0,0,2,,,,,,,,,,,,,,,0,,,46,0
176640,note_on,0,0,2,,,,,,,,,,,,,,,0,,,51,40
176640,note_on,0,0,1,,,,,,,,,,,,,,,0,,,72,50
176880,note_on,240,0,1,,,,,,,,,,,,,,,0,,,72,0
176880,note_on,0,0,1,,,,,,,,,,,,,,,0,,,70,49
177120,note_on,240,0,1,,,,,,,,,,,,,,,0,,,70,0
177120,note_on,0,0,1,,,,,,,,,,,,,,,0,,,67,0
177120,note_on,0,0,1,,,,,,,,,,,,,,,0,,,61,0
177120,note_on,0,0,1,,,,,,,,,,,,,,,0,,,66,47
177120,note_on,0,0,1,,,,,,,,,,,,,,,0,,,63,47
177120,note_on,0,0,1,,,,,,,,,,,,,,,0,,,75,53
177120,note_on,480,0,2,,,,,,,,,,,,,,,0,,,51,0
177120,note_on,0,0,2,,,,,,,,,,,,,,,0,,,57,43
177120,note_on,0,0,2,,,,,,,,,,,,,,,0,,,51,38
177120,note_on,0,0,2,,,,,,,,,,,,,,,0,,,45,38
177120,set_tempo,480,1,0,,,,,,,,,,,,461538,,,,,,,
178080,note_on,0,0,2,,,,,,,,,,,,,,,0,,,51,0
178080,note_on,0,0,1,,,,,,,,,,,,,,,0,,,66,0
178080,note_on,0,0,1,,,,,,,,,,,,,,,0,,,63,0
178080,note_on,960,0,1,,,,,,,,,,,,,,,0,,,75,0
178080,note_on,0,0,2,,,,,,,,,,,,,,,0,,,57,37
178080,note_on,0,0,2,,,,,,,,,,,,,,,0,,,51,33
178080,set_tempo,960,1,0,,,,,,,,,,,,472441,,,,,,,
178080,note_on,0,0,2,,,,,,,,,,,,,,,0,,,45,0
178080,note_on,0,0,1,,,,,,,,,,,,,,,0,,,63,43
178080,note_on,0,0,1,,,,,,,,,,,,,,,0,,,73,48
178080,note_on,960,0,2,,,,,,,,,,,,,,,0,,,57,0
178080,note_on,0,0,1,,,,,,,,,,,,,,,0,,,66,43
178320,note_on,0,0,1,,,,,,,,,,,,,,,0,,,72,48
178320,note_on,240,0,1,,,,,,,,,,,,,,,0,,,73,0
178560,note_on,0,0,1,,,,,,,,,,,,,,,0,,,67,52
178560,note_on,0,0,1,,,,,,,,,,,,,,,0,,,63,0
178560,set_tempo,480,1,0,,,,,,,,,,,,461538,,,,,,,
178560,note_on,0,0,1,,,,,,,,,,,,,,,0,,,66,0
178560,note_on,240,0,1,,,,,,,,,,,,,,,0,,,72,0
178560,note_on,480,0,2,,,,,,,,,,,,,,,0,,,57,0
178560,note_on,0,0,2,,,,,,,,,,,,,,,0,,,51,0
178560,note_on,0,0,2,,,,,,,,,,,,,,,0,,,46,36
178560,note_on,0,0,2,,,,,,,,,,,,,,,0,,,51,36
178560,note_on,0,0,1,,,,,,,,,,,,,,,0,,,61,46
178560,note_on,0,0,1,,,,,,,,,,,,,,,0,,,73,52
178560,note_on,0,0,2,,,,,,,,,,,,,,,0,,,58,41
179520,note_on,0,0,2,,,,,,,,,,,,,,,0,,,51,0
179520,note_on,0,0,1,,,,,,,,,,,,,,,0,,,67,42
179520,note_on,0,0,1,,,,,,,,,,,,,,,0,,,61,42
179520,note_on,0,0,1,,,,,,,,,,,,,,,0,,,72,47
179520,note_on,0,0,1,,,,,,,,,,,,,,,0,,,61,0
179520,note_on,0,0,1,,,,,,,,,,,,,,,0,,,67,0
179520,note_on,960,0,1,,,,,,,,,,,,,,,0,,,73,0
179520,set_tempo,960,1,0,,,,,,,,,,,,515021,,,,,,,
179520,note_on,0,0,2,,,,,,,,,,,,,,,0,,,51,35
179520,note_on,0,0,2,,,,,,,,,,,,,,,0,,,46,0
179520,note_on,960,0,2,,,,,,,,,,,,,,,0,,,58,0
179760,note_on,240,0,1,,,,,,,,,,,,,,,0,,,72,0
179760,note_on,0,0,1,,,,,,,,,,,,,,,0,,,70,47
180000,note_on,0,0,2,,,,,,,,,,,,,,,0,,,44,30
180000,note_on,0,0,1,,,,,,,,,,,,,,,0,,,68,45
180000,note_on,0,0,1,,,,,,,,,,,,,,,0,,,61,0
180000,note_on,0,0,1,,,,,,,,,,,,,,,0,,,67,0
180000,note_on,0,0,1,,,,,,,,,,,,,,,0,,,60,40
180000,note_on,480,0,2,,,,,,,,,,,,,,,0,,,51,0
180000,note_on,0,0,2,,,,,,,,,,,,,,,0,,,51,34
180000,note_on,240,0,1,,,,,,,,,,,,,,,0,,,70,0
180480,set_tempo,960,1,0,,,,,,,,,,,,563380,,,,,,,
180480,note_on,480,0,1,,,,,,,,,,,,,,,0,,,68,0
180480,note_on,0,0,1,,,,,,,,,,,,,,,0,,,67,40
180960,set_tempo,480,1,0,,,,,,,,,,,,594059,,,,,,,
180960,note_on,0,0,2,,,,,,,,,,,,,,,0,,,56,29
180960,note_on,480,0,1,,,,,,,,,,,,,,,0,,,67,0
180960,note_on,0,0,1,,,,,,,,,,,,,,,0,,,66,36
180960,note_on,960,0,2,,,,,,,,,,,,,,,0,,,51,0
181440,note_on,0,0,1,,,,,,,,,,,,,,,0,,,65,38
181440,note_on,480,0,1,,,,,,,,,,,,,,,0,,,66,0
181440,note_on,0,0,2,,,,,,,,,,,,,,,0,,,53,25
181440,note_on,0,0,2,,,,,,,,,,,,,,,0,,,49,25
181440,note_on,0,0,2,,,,,,,,,,,,,,,0,,,44,25
181440,note_on,0,0,2,,,,,,,,,,,,,,,0,,,37,25
181440,note_on,0,0,2,,,,,,,,,,,,,,,0,,,44,0
181440,note_on,480,0,2,,,,,,,,,,,,,,,0,,,56,0
181440,set_tempo,480,1,0,,,,,,,,,,,,480000,,,,,,,
181440,note_on,0,0,1,,,,,,,,,,,,,,,0,,,60,0
181440,note_on,0,0,2,,,,,,,,,,,,,,,0,,,56,28
182400,note_on,960,0,1,,,,,,,,,,,,,,,0,,,65,0
182400,note_on,0,0,1,,,,,,,,,,,,,,,0,,,66,39
182640,note_on,0,0,1,,,,,,,,,,,,,,,0,,,65,38
182640,note_on,240,0,1,,,,,,,,,,,,,,,0,,,66,0
182880,note_on,0,0,2,,,,,,,,,,,,,,,0,,,49,0
182880,note_on,0,0,2,,,,,,,,,,,,,,,0,,,48,25
182880,note_on,0,0,2,,,,,,,,,,,,,,,0,,,44,25
182880,note_on,0,0,2,,,,,,,,,,,,,,,0,,,39,25
182880,note_on,0,0,2,,,,,,,,,,,,,,,0,,,53,0
182880,note_on,0,0,2,,,,,,,,,,,,,,,0,,,44,0
182880,note_on,0,0,2,,,,,,,,,,,,,,,0,,,56,28
182880,set_tempo,1440,1,0,,,,,,,,,,,,480000,,,,,,,
182880,note_on,1440,0,2,,,,,,,,,,,,,,,0,,,56,0
182880,note_on,0,0,2,,,,,,,,,,,,,,,0,,,54,25
182880,note_on,240,0,1,,,,,,,,,,,,,,,0,,,65,0
182880,note_on,0,0,1,,,,,,,,,,,,,,,0,,,63,39
182880,note_on,0,0,2,,,,,,,,,,,,,,,0,,,37,0
183840,note_on,0,0,1,,,,,,,,,,,,,,,0,,,65,37
183840,note_on,960,0,1,,,,,,,,,,,,,,,0,,,63,0
184080,note_on,0,0,1,,,,,,,,,,,,,,,0,,,63,35
184080,note_on,240,0,1,,,,,,,,,,,,,,,0,,,65,0
184320,note_on,240,0,1,,,,,,,,,,,,,,,0,,,63,0
184320,note_on,0,0,2,,,,,,,,,,,,,,,0,,,56,25
184320,note_on,0,0,2,,,,,,,,,,,,,,,0,,,53,25
184320,note_on,0,0,2,,,,,,,,,,,,,,,0,,,61,28
184320,note_on,0,0,2,,,,,,,,,,,,,,,0,,,49,25
184320,note_on,0,0,2,,,,,,,,,,,,,,,0,,,41,25
184320,note_on,0,0,2,,,,,,,,,,,,,,,0,,,44,25
184320,note_on,0,0,2,,,,,,,,,,,,,,,0,,,44,0
184320,note_on,0,0,2,,,,,,,,,,,,,,,0,,,39,0
184320,note_on,0,0,2,,,,,,,,,,,,,,,0,,,48,0
184320,note_on,1440,0,2,,,,,,,,,,,,,,,0,,,54,0
184320,note_on,0,0,2,,,,,,,,,,,,,,,0,,,56,0
184680,note_on,360,0,2,,,,,,,,,,,,,,,0,,,56,0
184680,note_on,0,0,2,,,,,,,,,,,,,,,0,,,61,0
184680,note_on,0,0,2,,,,,,,,,,,,,,,0,,,53,0
184800,note_on,0,0,2,,,,,,,,,,,,,,,0,,,49,27
184800,note_on,0,0,2,,,,,,,,,,,,,,,0,,,58,27
184800,note_on,0,0,2,,,,,,,,,,,,,,,0,,,61,30
184800,note_on,0,0,2,,,,,,,,,,,,,,,0,,,46,27
184800,note_on,0,0,2,,,,,,,,,,,,,,,0,,,54,27
184800,note_on,0,0,2,,,,,,,,,,,,,,,0,,,44,0
184800,note_on,0,0,2,,,,,,,,,,,,,,,0,,,49,0
184800,note_on,120,0,2,,,,,,,,,,,,,,,0,,,41,0
184800,note_on,0,0,2,,,,,,,,,,,,,,,0,,,42,27
185160,note_on,0,0,2,,,,,,,,,,,,,,,0,,,58,0
185160,note_on,0,0,2,,,,,,,,,,,,,,,0,,,61,0
185160,note_on,360,0,2,,,,,,,,,,,,,,,0,,,54,0
185280,note_on,0,0,2,,,,,,,,,,,,,,,0,,,61,28
185280,note_on,120,0,2,,,,,,,,,,,,,,,0,,,42,0
185280,note_on,0,0,2,,,,,,,,,,,,,,,0,,,49,0
185280,note_on,0,0,2,,,,,,,,,,,,,,,0,,,46,0
185280,note_on,0,0,2,,,,,,,,,,,,,,,0,,,43,28
185280,note_on,0,0,2,,,,,,,,,,,,,,,0,,,46,28
185280,note_on,0,0,2,,,,,,,,,,,,,,,0,,,49,28
185280,note_on,0,0,2,,,,,,,,,,,,,,,0,,,63,32
185280,set_tempo,2400,1,0,,,,,,,,,,,,526316,,,,,,,
185280,note_on,0,0,2,,,,,,,,,,,,,,,0,,,58,28
185280,note_on,0,0,2,,,,,,,,,,,,,,,0,,,51,28
185640,note_on,0,0,2,,,,,,,,,,,,,,,0,,,58,0
185640,note_on,0,0,2,,,,,,,,,,,,,,,0,,,63,0
185640,note_on,360,0,2,,,,,,,,,,,,,,,0,,,51,0
185640,note_on,0,0,2,,,,,,,,,,,,,,,0,,,61,0
185760,set_tempo,480,1,0,,,,,,,,,,,,502092,,,,,,,
185760,note_on,120,0,2,,,,,,,,,,,,,,,0,,,43,0
185760,note_on,0,0,2,,,,,,,,,,,,,,,0,,,49,0
185760,note_on,0,0,2,,,,,,,,,,,,,,,0,,,46,0
185760,note_on,0,0,2,,,,,,,,,,,,,,,0,,,44,26
185760,note_on,0,0,2,,,,,,,,,,,,,,,0,,,48,26
185760,note_on,0,0,2,,,,,,,,,,,,,,,0,,,51,26
185760,note_on,0,0,2,,,,,,,,,,,,,,,0,,,56,29
186720,note_on,0,0,1,,,,,,,,,,,,,,,0,,,61,54
186720,set_tempo,960,1,0,,,,,,,,,,,,495868,,,,,,,
186720,note_on,0,0,1,,,,,,,,,,,,,,,0,,,68,61
186720,note_on,2400,0,1,,,,,,,,,,,,,,,0,,,56,54
186720,note_on,0,0,2,,,,,,,,,,,,,,,0,,,53,48
186720,control_change,0,0,2,,,,,,,,,,,,,,,0,64,127,,
186720,note_on,0,0,2,,,,,,,,,,,,,,,0,,,44,0
186720,note_on,0,0,2,,,,,,,,,,,,,,,0,,,48,0
186720,note_on,960,0,2,,,,,,,,,,,,,,,0,,,56,0
186720,note_on,0,0,2,,,,,,,,,,,,,,,0,,,49,43
186720,note_on,0,0,2,,,,,,,,,,,,,,,0,,,51,0
186720,note_on,0,0,2,,,,,,,,,,,,,,,0,,,41,43
187200,note_on,0,0,2,,,,,,,,,,,,,,,0,,,53,48
187200,note_on,480,0,2,,,,,,,,,,,,,,,0,,,53,0
187200,note_on,480,0,1,,,,,,,,,,,,,,,0,,,68,0
187200,note_on,0,0,2,,,,,,,,,,,,,,,0,,,49,0
187200,set_tempo,480,1,0,,,,,,,,,,,,461538,,,,,,,
187200,note_on,0,0,1,,,,,,,,,,,,,,,0,,,61,0
187200,note_on,0,0,1,,,,,,,,,,,,,,,0,,,56,0
187200,note_on,0,0,1,,,,,,,,,,,,,,,0,,,56,54
187200,note_on,0,0,1,,,,,,,,,,,,,,,0,,,61,54
187200,note_on,0,0,2,,,,,,,,,,,,,,,0,,,41,0
187200,note_on,0,0,1,,,,,,,,,,,,,,,0,,,68,61
187200,note_on,0,0,2,,,,,,,,,,,,,,,0,,,41,43
187200,note_on,0,0,2,,,,,,,,,,,,,,,0,,,49,43
187680,control_change,480,0,2,,,,,,,,,,,,,,,0,64,0,,
188160,note_on,0,0,1,,,,,,,,,,,,,,,0,,,70,68
188160,note_on,0,0,1,,,,,,,,,,,,,,,0,,,58,61
188160,note_on,0,0,1,,,,,,,,,,,,,,,0,,,56,0
188160,note_on,0,0,1,,,,,,,,,,,,,,,0,,,61,61
188160,note_on,960,0,1,,,,,,,,,,,,,,,0,,,68,0
188160,note_on,0,0,2,,,,,,,,,,,,,,,0,,,49,43
188160,note_on,0,0,2,,,,,,,,,,,,,,,0,,,54,48
188160,note_on,0,0,2,,,,,,,,,,,,,,,0,,,42,43
188160,note_on,0,0,2,,,,,,,,,,,,,,,0,,,41,0
188160,note_on,0,0,2,,,,,,,,,,,,,,,0,,,49,0
188160,note_on,480,0,2,,,,,,,,,,,,,,,0,,,53,0
188160,note_on,0,0,1,,,,,,,,,,,,,,,0,,,61,0
188400,note_on,0,0,2,,,,,,,,,,,,,,,0,,,53,44
188400,note_on,0,0,2,,,,,,,,,,,,,,,0,,,41,39
188400,note_on,0,0,2,,,,,,,,,,,,,,,0,,,42,0
188400,note_on,240,0,2,,,,,,,,,,,,,,,0,,,54,0
188400,note_on,0,0,1,,,,,,,,,,,,,,,0,,,68,60
188400,note_on,0,0,1,,,,,,,,,,,,,,,0,,,56,54
188400,note_on,0,0,1,,,,,,,,,,,,,,,0,,,58,0
188400,note_on,240,0,1,,,,,,,,,,,,,,,0,,,70,0
188640,set_tempo,1440,1,0,,,,,,,,,,,,487805,,,,,,,
188640,note_on,0,0,1,,,,,,,,,,,,,,,0,,,56,0
188640,note_on,0,0,1,,,,,,,,,,,,,,,0,,,61,0
188640,note_on,240,0,2,,,,,,,,,,,,,,,0,,,53,0
188640,note_on,0,0,2,,,,,,,,,,,,,,,0,,,41,0
188640,note_on,240,0,1,,,,,,,,,,,,,,,0,,,68,0
188640,note_on,0,0,2,,,,,,,,,,,,,,,0,,,41,39
188640,note_on,0,0,2,,,,,,,,,,,,,,,0,,,49,39
188640,note_on,0,0,2,,,,,,,,,,,,,,,0,,,49,0
188640,note_on,0,0,1,,,,,,,,,,,,,,,0,,,68,59
188640,note_on,0,0,1,,,,,,,,,,,,,,,0,,,61,53
188640,note_on,0,0,1,,,,,,,,,,,,,,,0,,,56,53
188640,note_on,0,0,2,,,,,,,,,,,,,,,0,,,53,44
189120,note_on,0,0,1,,,,,,,,,,,,,,,0,,,77,77
189120,note_on,0,0,1,,,,,,,,,,,,,,,0,,,68,69
189120,note_on,0,0,1,,,,,,,,,,,,,,,0,,,65,69
189120,note_on,0,0,1,,,,,,,,,,,,,,,0,,,56,0
189120,note_on,0,0,1,,,,,,,,,,,,,,,0,,,61,0
189120,set_tempo,480,1,0,,,,,,,,,,,,474308,,,,,,,
189120,note_on,480,0,1,,,,,,,,,,,,,,,0,,,68,0
189120,note_on,0,0,2,,,,,,,,,,,,,,,0,,,49,54
189120,note_on,0,0,2,,,,,,,,,,,,,,,0,,,61,61
189120,note_on,480,0,2,,,,,,,,,,,,,,,0,,,53,0
189120,note_on,0,0,2,,,,,,,,,,,,,,,0,,,53,54
189120,note_on,0,0,2,,,,,,,,,,,,,,,0,,,41,0
189120,note_on,0,0,2,,,,,,,,,,,,,,,0,,,49,0
189600,note_on,0,0,2,,,,,,,,,,,,,,,0,,,60,57
189600,note_on,0,0,2,,,,,,,,,,,,,,,0,,,48,51
189600,note_on,0,0,2,,,,,,,,,,,,,,,0,,,56,51
189600,note_on,0,0,2,,,,,,,,,,,,,,,0,,,53,0
189600,note_on,0,0,2,,,,,,,,,,,,,,,0,,,49,0
189600,note_on,480,0,2,,,,,,,,,,,,,,,0,,,61,0
189600,note_on,0,0,1,,,,,,,,,,,,,,,0,,,68,63
189600,note_on,480,0,1,,,,,,,,,,,,,,,0,,,77,0
189600,note_on,0,0,1,,,,,,,,,,,,,,,0,,,68,0
189600,note_on,0,0,1,,,,,,,,,,,,,,,0,,,65,0
189600,note_on,0,0,1,,,,,,,,,,,,,,,0,,,63,63
189600,note_on,0,0,1,,,,,,,,,,,,,,,0,,,75,71
190080,note_on,0,0,1,,,,,,,,,,,,,,,0,,,65,72
190080,note_on,0,0,2,,,,,,,,,,,,,,,0,,,58,64
190080,note_on,0,0,1,,,,,,,,,,,,,,,0,,,61,72
190080,note_on,480,0,1,,,,,,,,,,,,,,,0,,,75,0
190080,note_on,480,0,2,,,,,,,,,,,,,,,0,,,60,0
190080,note_on,0,0,2,,,,,,,,,,,,,,,0,,,48,0
190080,note_on,0,0,2,,,,,,,,,,,,,,,0,,,56,0
190080,note_on,0,0,2,,,,,,,,,,,,,,,0,,,46,57
190080,note_on,0,0,2,,,,,,,,,,,,,,,0,,,53,57
190080,note_on,0,0,1,,,,,,,,,,,,,,,0,,,73,80
190080,note_on,0,0,1,,,,,,,,,,,,,,,0,,,68,0
190080,note_on,0,0,1,,,,,,,,,,,,,,,0,,,63,0
191040,set_tempo,1920,1,0,,,,,,,,,,,,491803,,,,,,,
191040,note_on,0,0,1,,,,,,,,,,,,,,,0,,,72,76
191040,note_on,0,0,1,,,,,,,,,,,,,,,0,,,63,68
191040,note_on,0,0,1,,,,,,,,,,,,,,,0,,,60,68
191040,note_on,0,0,1,,,,,,,,,,,,,,,0,,,61,0
191040,note_on,0,0,1,,,,,,,,,,,,,,,0,,,65,0
191040,note_on,960,0,1,,,,,,,,,,,,,,,0,,,73,0
191040,note_on,960,0,2,,,,,,,,,,,,,,,0,,,58,0
191040,note_on,0,0,2,,,,,,,,,,,,,,,0,,,53,0
191040,note_on,0,0,2,,,,,,,,,,,,,,,0,,,46,0
191040,note_on,0,0,2,,,,,,,,,,,,,,,0,,,44,54
191040,note_on,0,0,2,,,,,,,,,,,,,,,0,,,56,60
191040,note_on,0,0,1,,,,,,,,,,,,,,,0,,,68,68
191040,note_on,0,0,2,,,,,,,,,,,,,,,0,,,54,54
191520,note_on,480,0,2,,,,,,,,,,,,,,,0,,,54,0
191520,note_on,0,0,1,,,,,,,,,,,,,,,0,,,73,81
191520,note_on,0,0,1,,,,,,,,,,,,,,,0,,,68,72
191520,note_on,0,0,1,,,,,,,,,,,,,,,0,,,65,72
191520,note_on,0,0,1,,,,,,,,,,,,,,,0,,,68,0
191520,note_on,0,0,1,,,,,,,,,,,,,,,0,,,63,0
191520,note_on,0,0,1,,,,,,,,,,,,,,,0,,,60,0
191520,note_on,480,0,1,,,,,,,,,,,,,,,0,,,72,0
191520,set_tempo,480,1,0,,,,,,,,,,,,461538,,,,,,,
191520,note_on,0,0,1,,,,,,,,,,,,,,,0,,,61,72
191520,note_on,0,0,2,,,,,,,,,,,,,,,0,,,49,57
191520,note_on,0,0,2,,,,,,,,,,,,,,,0,,,56,64
191520,note_on,0,0,2,,,,,,,,,,,,,,,0,,,53,57
191520,note_on,0,0,2,,,,,,,,,,,,,,,0,,,44,0
191520,note_on,0,0,2,,,,,,,,,,,,,,,0,,,56,0
192480,note_on,0,0,1,,,,,,,,,,,,,,,0,,,73,74
192480,note_on,0,0,1,,,,,,,,,,,,,,,0,,,80,83
192480,note_on,0,0,1,,,,,,,,,,,,,,,0,,,68,74
192480,note_on,0,0,1,,,,,,,,,,,,,,,0,,,68,0
192480,note_on,0,0,1,,,,,,,,,,,,,,,0,,,65,0
192480,note_on,0,0,2,,,,,,,,,,,,,,,0,,,65,66
192480,note_on,0,0,2,,,,,,,,,,,,,,,0,,,61,59
192480,note_on,0,0,2,,,,,,,,,,,,,,,0,,,53,59
192480,set_tempo,960,1,0,,,,,,,,,,,,481928,,,,,,,
192480,note_on,960,0,2,,,,,,,,,,,,,,,0,,,56,0
192480,note_on,0,0,2,,,,,,,,,,,,,,,0,,,53,0
192480,note_on,0,0,2,,,,,,,,,,,,,,,0,,,49,0
192480,note_on,960,0,1,,,,,,,,,,,,,,,0,,,73,0
192480,note_on,0,0,1,,,,,,,,,,,,,,,0,,,61,0
192960,note_on,480,0,1,,,,,,,,,,,,,,,0,,,73,0
192960,note_on,0,0,1,,,,,,,,,,,,,,,0,,,80,83
192960,note_on,0,0,1,,,,,,,,,,,,,,,0,,,73,74
192960,note_on,0,0,1,,,,,,,,,,,,,,,0,,,68,74
192960,note_on,480,0,2,,,,,,,,,,,,,,,0,,,53,0
192960,note_on,0,0,1,,,,,,,,,,,,,,,0,,,80,0
192960,note_on,0,0,2,,,,,,,,,,,,,,,0,,,61,0
192960,set_tempo,480,1,0,,,,,,,,,,,,451128,,,,,,,
192960,note_on,0,0,1,,,,,,,,,,,,,,,0,,,68,0
192960,note_on,0,0,2,,,,,,,,,,,,,,,0,,,65,0
192960,note_on,0,0,2,,,,,,,,,,,,,,,0,,,53,57
192960,note_on,0,0,2,,,,,,,,,,,,,,,0,,,65,64
192960,note_on,0,0,2,,,,,,,,,,,,,,,0,,,61,57
193920,note_on,0,0,2,,,,,,,,,,,,,,,0,,,66,68
193920,note_on,0,0,2,,,,,,,,,,,,,,,0,,,61,0
193920,note_on,960,0,2,,,,,,,,,,,,,,,0,,,65,0
193920,note_on,0,0,1,,,,,,,,,,,,,,,0,,,70,79
193920,note_on,0,0,1,,,,,,,,,,,,,,,0,,,68,0
193920,note_on,0,0,2,,,,,,,,,,,,,,,0,,,54,61
193920,note_on,0,0,1,,,,,,,,,,,,,,,0,,,82,88
193920,note_on,0,0,1,,,,,,,,,,,,,,,0,,,73,79
193920,note_on,0,0,1,,,,,,,,,,,,,,,0,,,73,0
193920,note_on,0,0,2,,,,,,,,,,,,,,,0,,,61,61
193920,note_on,0,0,2,,,,,,,,,,,,,,,0,,,53,0
193920,set_tempo,960,1,0,,,,,,,,,,,,451128,,,,,,,
193920,note_on,960,0,1,,,,,,,,,,,,,,,0,,,80,0
194160,note_on,0,0,2,,,,,,,,,,,,,,,0,,,66,0
194160,note_on,0,0,1,,,,,,,,,,,,,,,0,,,80,83
194160,note_on,0,0,1,,,,,,,,,,,,,,,0,,,68,74
194160,note_on,0,0,1,,,,,,,,,,,,,,,0,,,70,0
194160,note_on,240,0,2,,,,,,,,,,,,,,,0,,,54,0
194160,note_on,240,0,1,,,,,,,,,,,,,,,0,,,82,0
194160,note_on,0,0,2,,,,,,,,,,,,,,,0,,,65,64
194160,note_on,0,0,2,,,,,,,,,,,,,,,0,,,53,57
194400,note_on,0,0,1,,,,,,,,,,,,,,,0,,,80,83
194400,note_on,0,0,1,,,,,,,,,,,,,,,0,,,73,74
194400,note_on,0,0,1,,,,,,,,,,,,,,,0,,,68,74
194400,note_on,0,0,1,,,,,,,,,,,,,,,0,,,73,0
194400,note_on,0,0,1,,,,,,,,,,,,,,,0,,,68,0
194400,note_on,240,0,1,,,,,,,,,,,,,,,0,,,80,0
194400,note_on,0,0,2,,,,,,,,,,,,,,,0,,,61,59
194400,note_on,240,0,2,,,,,,,,,,,,,,,0,,,53,0
194400,note_on,0,0,2,,,,,,,,,,,,,,,0,,,65,0
194400,set_tempo,480,1,0,,,,,,,,,,,,493827,,,,,,,
194400,note_on,0,0,2,,,,,,,,,,,,,,,0,,,61,0
194400,note_on,0,0,2,,,,,,,,,,,,,,,0,,,53,59
194400,note_on,0,0,2,,,,,,,,,,,,,,,0,,,65,66
194880,note_on,480,0,1,,,,,,,,,,,,,,,0,,,80,0
194880,note_on,0,0,1,,,,,,,,,,,,,,,0,,,73,0
194880,set_tempo,480,1,0,,,,,,,,,,,,472441,,,,,,,
194880,note_on,0,0,1,,,,,,,,,,,,,,,0,,,61,82
194880,note_on,0,0,1,,,,,,,,,,,,,,,0,,,68,82
194880,note_on,0,0,1,,,,,,,,,,,,,,,0,,,73,82
194880,note_on,0,0,1,,,,,,,,,,,,,,,0,,,89,92
194880,note_on,0,0,1,,,,,,,,,,,,,,,0,,,80,82
194880,note_on,0,0,1,,,,,,,,,,,,,,,0,,,77,82
194880,note_on,0,0,2,,,,,,,,,,,,,,,0,,,65,0
194880,note_on,0,0,2,,,,,,,,,,,,,,,0,,,61,0
194880,note_on,480,0,2,,,,,,,,,,,,,,,0,,,53,0
194880,note_on,0,0,1,,,,,,,,,,,,,,,0,,,68,0
195360,set_tempo,480,1,0,,,,,,,,,,,,493827,,,,,,,
195360,note_on,0,0,1,,,,,,,,,,,,,,,0,,,87,89
195360,note_on,0,0,1,,,,,,,,,,,,,,,0,,,80,80
195360,note_on,0,0,1,,,,,,,,,,,,,,,0,,,75,80
195360,note_on,0,0,1,,,,,,,,,,,,,,,0,,,60,80
195360,note_on,0,0,1,,,,,,,,,,,,,,,0,,,68,80
195360,note_on,0,0,1,,,,,,,,,,,,,,,0,,,89,0
195360,note_on,0,0,1,,,,,,,,,,,,,,,0,,,61,0
195360,note_on,0,0,1,,,,,,,,,,,,,,,0,,,73,0
195360,note_on,0,0,1,,,,,,,,,,,,,,,0,,,68,0
195360,note_on,480,0,1,,,,,,,,,,,,,,,0,,,77,0
195360,note_on,0,0,1,,,,,,,,,,,,,,,0,,,72,80
195360,note_on,0,0,1,,,,,,,,,,,,,,,0,,,80,0
195840,note_on,0,0,1,,,,,,,,,,,,,,,0,,,77,81
195840,note_on,0,0,1,,,,,,,,,,,,,,,0,,,68,0
195840,note_on,480,0,1,,,,,,,,,,,,,,,0,,,87,0
195840,note_on,0,0,1,,,,,,,,,,,,,,,0,,,85,90
195840,note_on,0,0,1,,,,,,,,,,,,,,,0,,,70,81
195840,note_on,0,0,1,,,,,,,,,,,,,,,0,,,65,81
195840,note_on,0,0,1,,,,,,,,,,,,,,,0,,,73,81
195840,note_on,0,0,1,,,,,,,,,,,,,,,0,,,75,0
195840,note_on,0,0,1,,,,,,,,,,,,,,,0,,,80,0
195840,note_on,0,0,1,,,,,,,,,,,,,,,0,,,60,0
195840,note_on,0,0,1,,,,,,,,,,,,,,,0,,,72,0
195840,note_on,0,0,1,,,,,,,,,,,,,,,0,,,58,81
196800,note_on,0,0,1,,,,,,,,,,,,,,,0,,,68,79
196800,set_tempo,1440,1,0,,,,,,,,,,,,530973,,,,,,,
196800,note_on,0,0,1,,,,,,,,,,,,,,,0,,,84,88
196800,note_on,0,0,1,,,,,,,,,,,,,,,0,,,80,79
196800,note_on,0,0,1,,,,,,,,,,,,,,,0,,,75,79
196800,note_on,0,0,1,,,,,,,,,,,,,,,0,,,66,79
196800,note_on,0,0,1,,,,,,,,,,,,,,,0,,,72,79
196800,note_on,0,0,1,,,,,,,,,,,,,,,0,,,73,0
196800,note_on,0,0,1,,,,,,,,,,,,,,,0,,,77,0
196800,note_on,0,0,1,,,,,,,,,,,,,,,0,,,58,0
196800,note_on,0,0,1,,,,,,,,,,,,,,,0,,,70,0
196800,note_on,0,0,1,,,,,,,,,,,,,,,0,,,65,0
196800,note_on,960,0,1,,,,,,,,,,,,,,,0,,,85,0
196800,note_on,0,0,1,,,,,,,,,,,,,,,0,,,56,79
197280,note_on,0,0,1,,,,,,,,,,,,,,,0,,,85,91
197280,note_on,0,0,1,,,,,,,,,,,,,,,0,,,80,81
197280,note_on,0,0,1,,,,,,,,,,,,,,,0,,,77,81
197280,note_on,0,0,1,,,,,,,,,,,,,,,0,,,73,81
197280,note_on,0,0,1,,,,,,,,,,,,,,,0,,,68,81
197280,note_on,0,0,1,,,,,,,,,,,,,,,0,,,65,81
197280,note_on,0,0,1,,,,,,,,,,,,,,,0,,,80,0
197280,note_on,0,0,1,,,,,,,,,,,,,,,0,,,72,0
197280,note_on,0,0,1,,,,,,,,,,,,,,,0,,,56,0
197280,note_on,0,0,1,,,,,,,,,,,,,,,0,,,68,0
197280,note_on,0,0,1,,,,,,,,,,,,,,,0,,,66,0
197280,note_on,0,0,1,,,,,,,,,,,,,,,0,,,75,0
197280,note_on,480,0,1,,,,,,,,,,,,,,,0,,,84,0
197280,note_on,0,0,1,,,,,,,,,,,,,,,0,,,61,81
197280,set_tempo,480,1,0,,,,,,,,,,,,571429,,,,,,,
198000,note_on,0,0,1,,,,,,,,,,,,,,,0,,,68,0
198000,note_on,0,0,1,,,,,,,,,,,,,,,0,,,77,0
198000,note_on,0,0,1,,,,,,,,,,,,,,,0,,,73,0
198000,note_on,0,0,1,,,,,,,,,,,,,,,0,,,80,0
198000,note_on,720,0,1,,,,,,,,,,,,,,,0,,,85,0
198000,note_on,0,0,1,,,,,,,,,,,,,,,0,,,65,0
198000,note_on,0,0,1,,,,,,,,,,,,,,,0,,,61,0
198240,note_on,240,0,1,,,,,,,,,,,,,,,0,,,63,43
198240,note_on,0,0,1,,,,,,,,,,,,,,,0,,,68,43
198240,note_on,0,0,1,,,,,,,,,,,,,,,0,,,72,48
198240,control_change,0,0,1,,,,,,,,,,,,,,,0,91,127,,
198240,control_change,0,0,2,,,,,,,,,,,,,,,0,91,127,,
198240,note_on,3360,0,2,,,,,,,,,,,,,,,0,,,56,40
198240,marker,960,1,0,,,,,,,,,,,,,,,,,,,
198720,key_signature,480,1,0,,,,,,,,,,,Ab,,,,,,,,
198720,note_on,480,0,2,,,,,,,,,,,,,,,0,,,56,0
198720,note_on,0,0,1,,,,,,,,,,,,,,,0,,,65,48
198720,note_on,0,0,1,,,,,,,,,,,,,,,0,,,68,48
198720,note_on,0,0,2,,,,,,,,,,,,,,,0,,,61,43
198720,note_on,0,0,1,,,,,,,,,,,,,,,0,,,63,0
198720,note_on,0,0,1,,,,,,,,,,,,,,,0,,,68,0
198720,note_on,480,0,1,,,,,,,,,,,,,,,0,,,72,0
198720,note_on,0,0,1,,,,,,,,,,,,,,,0,,,72,54
198720,set_tempo,0,1,0,,,,,,,,,,,,465188,,,,,,,
199147,control_change,427,0,2,,,,,,,,,,,,,,,0,64,127,,
200160,note_on,1440,0,1,,,,,,,,,,,,,,,0,,,72,0
200160,note_on,0,0,1,,,,,,,,,,,,,,,0,,,70,51
200260,control_change,1113,0,2,,,,,,,,,,,,,,,0,64,0,,
200640,note_on,0,0,1,,,,,,,,,,,,,,,0,,,68,0
200640,note_on,480,0,1,,,,,,,,,,,,,,,0,,,70,0
200640,note_on,380,0,2,,,,,,,,,,,,,,,0,,,61,0
200640,note_on,0,0,1,,,,,,,,,,,,,,,0,,,65,0
201120,note_on,480,0,1,,,,,,,,,,,,,,,0,,,77,63
201120,note_on,480,0,2,,,,,,,,,,,,,,,0,,,65,50
201120,note_on,0,0,2,,,,,,,,,,,,,,,0,,,61,45
201120,note_on,0,0,1,,,,,,,,,,,,,,,0,,,67,56
201120,note_on,0,0,1,,,,,,,,,,,,,,,0,,,70,56
201120,set_tempo,2400,1,0,,,,,,,,,,,,548697,,,,,,,
201600,note_on,0,0,2,,,,,,,,,,,,,,,0,,,65,51
201600,note_on,0,0,2,,,,,,,,,,,,,,,0,,,60,45
201600,set_tempo,480,1,0,,,,,,,,,,,,465188,,,,,,,
201600,note_on,480,0,2,,,,,,,,,,,,,,,0,,,61,0
201600,note_on,0,0,2,,,,,,,,,,,,,,,0,,,65,0
201600,note_on,480,0,1,,,,,,,,,,,,,,,0,,,67,0
201600,note_on,0,0,1,,,,,,,,,,,,,,,0,,,70,0
201600,note_on,0,0,1,,,,,,,,,,,,,,,0,,,77,0
201600,note_on,0,0,1,,,,,,,,,,,,,,,0,,,68,58
201600,note_on,0,0,1,,,,,,,,,,,,,,,0,,,72,58
201600,note_on,0,0,1,,,,,,,,,,,,,,,0,,,77,65
201920,control_change,320,0,2,,,,,,,,,,,,,,,0,64,127,,
203040,note_on,0,0,2,,,,,,,,,,,,,,,0,,,63,48
203040,note_on,1120,0,2,,,,,,,,,,,,,,,0,,,65,0
203040,control_change,0,0,2,,,,,,,,,,,,,,,0,64,0,,
203040,note_on,1440,0,1,,,,,,,,,,,,,,,0,,,77,0
203040,note_on,0,0,1,,,,,,,,,,,,,,,0,,,75,60
203520,note_on,480,0,1,,,,,,,,,,,,,,,0,,,75,0
203520,note_on,0,0,1,,,,,,,,,,,,,,,0,,,68,0
203520,note_on,0,0,2,,,,,,,,,,,,,,,0,,,60,0
203520,note_on,480,0,2,,,,,,,,,,,,,,,0,,,63,0
203520,note_on,0,0,1,,,,,,,,,,,,,,,0,,,72,0
203648,control_change,128,0,2,,,,,,,,,,,,,,,0,64,127,,
203760,note_on,240,0,1,,,,,,,,,,,,,,,0,,,60,48
203760,note_on,0,0,1,,,,,,,,,,,,,,,0,,,63,48
203760,note_on,112,0,2,,,,,,,,,,,,,,,0,,,56,42
203760,set_tempo,2160,1,0,,,,,,,,,,,,401687,,,,,,,
204000,note_on,240,0,2,,,,,,,,,,,,,,,0,,,56,0
204000,note_on,240,0,1,,,,,,,,,,,,,,,0,,,63,0
204000,note_on,0,0,2,,,,,,,,,,,,,,,0,,,51,44
204000,note_on,0,0,1,,,,,,,,,,,,,,,0,,,68,56
204240,note_on,240,0,2,,,,,,,,,,,,,,,0,,,51,0
204240,note_on,0,0,2,,,,,,,,,,,,,,,0,,,48,45
204240,note_on,0,0,1,,,,,,,,,,,,,,,0,,,72,58
204240,note_on,240,0,1,,,,,,,,,,,,,,,0,,,68,0
204368,control_change,128,0,2,,,,,,,,,,,,,,,0,64,0,,
204480,note_on,112,0,2,,,,,,,,,,,,,,,0,,,48,0
204480,note_on,0,0,2,,,,,,,,,,,,,,,0,,,46,42
204480,note_on,0,0,2,,,,,,,,,,,,,,,0,,,51,42
204480,note_on,0,0,1,,,,,,,,,,,,,,,0,,,73,60
204480,set_tempo,720,1,0,,,,,,,,,,,,446097,,,,,,,
204480,note_on,240,0,1,,,,,,,,,,,,,,,0,,,72,0
204480,note_on,0,0,1,,,,,,,,,,,,,,,0,,,60,0
204480,note_on,0,0,1,,,,,,,,,,,,,,,0,,,63,54
204480,note_on,0,0,1,,,,,,,,,,,,,,,0,,,67,54
204480,note_on,0,0,2,,,,,,,,,,,,,,,0,,,55,47
204480,note_on,0,0,1,,,,,,,,,,,,,,,0,,,61,54
205440,note_on,0,0,1,,,,,,,,,,,,,,,0,,,63,56
205440,note_on,0,0,2,,,,,,,,,,,,,,,0,,,51,0
205440,note_on,0,0,2,,,,,,,,,,,,,,,0,,,46,0
205440,note_on,0,0,2,,,,,,,,,,,,,,,0,,,44,45
205440,note_on,0,0,2,,,,,,,,,,,,,,,0,,,51,45
205440,note_on,0,0,2,,,,,,,,,,,,,,,0,,,56,51
205440,set_tempo,960,1,0,,,,,,,,,,,,521739,,,,,,,
205440,note_on,0,0,1,,,,,,,,,,,,,,,0,,,72,63
205440,note_on,0,0,1,,,,,,,,,,,,,,,0,,,68,56
205440,note_on,0,0,1,,,,,,,,,,,,,,,0,,,60,56
205440,note_on,0,0,1,,,,,,,,,,,,,,,0,,,67,0
205440,note_on,0,0,1,,,,,,,,,,,,,,,0,,,63,0
205440,note_on,0,0,1,,,,,,,,,,,,,,,0,,,61,0
205440,note_on,960,0,1,,,,,,,,,,,,,,,0,,,73,0
205440,note_on,960,0,2,,,,,,,,,,,,,,,0,,,55,0
205920,set_tempo,480,1,0,,,,,,,,,,,,434468,,,,,,,
205920,note_on,0,0,1,,,,,,,,,,,,,,,0,,,63,57
205920,note_on,0,0,1,,,,,,,,,,,,,,,0,,,68,0
205920,note_on,0,0,2,,,,,,,,,,,,,,,0,,,51,0
205920,note_on,0,0,2,,,,,,,,,,,,,,,0,,,44,0
205920,note_on,0,0,2,,,,,,,,,,,,,,,0,,,43,46
205920,note_on,0,0,2,,,,,,,,,,,,,,,0,,,51,46
205920,note_on,0,0,2,,,,,,,,,,,,,,,0,,,55,52
205920,note_on,0,0,1,,,,,,,,,,,,,,,0,,,70,64
205920,note_on,0,0,1,,,,,,,,,,,,,,,0,,,58,57
205920,note_on,0,0,1,,,,,,,,,,,,,,,0,,,63,0
205920,note_on,0,0,1,,,,,,,,,,,,,,,0,,,60,0
205920,note_on,480,0,1,,,,,,,,,,,,,,,0,,,72,0
205920,note_on,480,0,2,,,,,,,,,,,,,,,0,,,56,0
206880,note_on,0,0,2,,,,,,,,,,,,,,,0,,,46,48
206880,note_on,0,0,2,,,,,,,,,,,,,,,0,,,53,54
206880,note_on,960,0,2,,,,,,,,,,,,,,,0,,,55,0
206880,set_tempo,960,1,0,,,,,,,,,,,,568720,,,,,,,
206880,note_on,0,0,2,,,,,,,,,,,,,,,0,,,51,0
206880,note_on,0,0,2,,,,,,,,,,,,,,,0,,,43,0
206880,note_on,0,0,1,,,,,,,,,,,,,,,0,,,58,0
206880,note_on,0,0,1,,,,,,,,,,,,,,,0,,,74,65
206880,note_on,0,0,1,,,,,,,,,,,,,,,0,,,68,58
206880,note_on,0,0,1,,,,,,,,,,,,,,,0,,,70,58
206880,note_on,0,0,1,,,,,,,,,,,,,,,0,,,62,58
206880,note_on,0,0,2,,,,,,,,,,,,,,,0,,,41,48
206880,note_on,0,0,1,,,,,,,,,,,,,,,0,,,63,0
206880,note_on,960,0,1,,,,,,,,,,,,,,,0,,,70,0
207360,note_on,0,0,2,,,,,,,,,,,,,,,0,,,41,0
207360,note_on,0,0,2,,,,,,,,,,,,,,,0,,,39,51
207360,note_on,0,0,2,,,,,,,,,,,,,,,0,,,46,51
207360,note_on,0,0,2,,,,,,,,,,,,,,,0,,,51,57
207360,note_on,480,0,2,,,,,,,,,,,,,,,0,,,53,0
207360,note_on,0,0,2,,,,,,,,,,,,,,,0,,,46,0
207360,note_on,0,0,1,,,,,,,,,,,,,,,0,,,74,69
207360,note_on,480,0,1,,,,,,,,,,,,,,,0,,,74,0
207360,note_on,0,0,1,,,,,,,,,,,,,,,0,,,62,0
207360,note_on,0,0,1,,,,,,,,,,,,,,,0,,,70,0
207360,note_on,0,0,1,,,,,,,,,,,,,,,0,,,68,0
207360,note_on,0,0,1,,,,,,,,,,,,,,,0,,,62,62
207360,note_on,0,0,1,,,,,,,,,,,,,,,0,,,70,62
207360,note_on,0,0,1,,,,,,,,,,,,,,,0,,,68,62
207360,set_tempo,480,1,0,,,,,,,,,,,,506885,,,,,,,
207653,control_change,293,0,2,,,,,,,,,,,,,,,0,64,127,,
208800,note_on,0,0,1,,,,,,,,,,,,,,,0,,,67,45
208800,set_tempo,1440,1,0,,,,,,,,,,,,465188,,,,,,,
208800,note_on,0,0,1,,,,,,,,,,,,,,,0,,,68,0
208800,note_on,0,0,1,,,,,,,,,,,,,,,0,,,63,45
208800,note_on,1440,0,1,,,,,,,,,,,,,,,0,,,74,0
208800,note_on,0,0,1,,,,,,,,,,,,,,,0,,,75,51
208800,control_change,1147,0,2,,,,,,,,,,,,,,,0,64,0,,
208800,note_on,0,0,1,,,,,,,,,,,,,,,0,,,62,0
209280,note_on,480,0,1,,,,,,,,,,,,,,,0,,,75,0
209280,note_on,0,0,1,,,,,,,,,,,,,,,0,,,63,0
209280,note_on,0,0,1,,,,,,,,,,,,,,,0,,,67,0
209280,note_on,480,0,2,,,,,,,,,,,,,,,0,,,51,0
209280,note_on,0,0,2,,,,,,,,,,,,,,,0,,,46,0
209280,note_on,0,0,2,,,,,,,,,,,,,,,0,,,39,0
209280,note_on,0,0,1,,,,,,,,,,,,,,,0,,,70,0
209760,note_on,480,0,1,,,,,,,,,,,,,,,0,,,63,47
209760,set_tempo,960,1,0,,,,,,,,,,,,548697,,,,,,,
209760,note_on,0,0,1,,,,,,,,,,,,,,,0,,,68,47
209760,note_on,0,0,1,,,,,,,,,,,,,,,0,,,72,53
209760,note_on,480,0,2,,,,,,,,,,,,,,,0,,,56,42
210240,note_on,0,0,1,,,,,,,,,,,,,,,0,,,72,58
210240,note_on,0,0,1,,,,,,,,,,,,,,,0,,,68,52
210240,note_on,0,0,1,,,,,,,,,,,,,,,0,,,65,52
210240,note_on,0,0,1,,,,,,,,,,,,,,,0,,,63,0
210240,note_on,0,0,1,,,,,,,,,,,,,,,0,,,68,0
210240,note_on,480,0,2,,,,,,,,,,,,,,,0,,,56,0
210240,note_on,0,0,2,,,,,,,,,,,,,,,0,,,61,46
210240,set_tempo,480,1,0,,,,,,,,,,,,465188,,,,,,,
210240,note_on,480,0,1,,,,,,,,,,,,,,,0,,,72,0
210507,control_change,267,0,2,,,,,,,,,,,,,,,0,64,127,,
211680,control_change,1173,0,2,,,,,,,,,,,,,,,0,64,0,,
211680,note_on,1440,0,1,,,,,,,,,,,,,,,0,,,72,0
211680,note_on,0,0,1,,,,,,,,,,,,,,,0,,,70,50
212160,note_on,0,0,1,,,,,,,,,,,,,,,0,,,65,0
212160,note_on,0,0,1,,,,,,,,,,,,,,,0,,,68,0
212160,note_on,480,0,1,,,,,,,,,,,,,,,0,,,70,0
212160,note_on,480,0,2,,,,,,,,,,,,,,,0,,,61,0
212640,note_on,480,0,1,,,,,,,,,,,,,,,0,,,77,79
212640,note_on,0,0,1,,,,,,,,,,,,,,,0,,,71,71
212640,note_on,0,0,1,,,,,,,,,,,,,,,0,,,67,71
212640,note_on,0,0,2,,,,,,,,,,,,,,,0,,,49,50
212640,note_on,480,0,2,,,,,,,,,,,,,,,0,,,37,45
212640,set_tempo,2400,1,0,,,,,,,,,,,,544119,,,,,,,
213120,note_on,0,0,2,,,,,,,,,,,,,,,0,,,36,49
213120,note_on,0,0,2,,,,,,,,,,,,,,,0,,,37,0
213120,note_on,480,0,2,,,,,,,,,,,,,,,0,,,49,0
213120,note_on,0,0,1,,,,,,,,,,,,,,,0,,,77,85
213120,note_on,0,0,1,,,,,,,,,,,,,,,0,,,72,76
213120,note_on,0,0,1,,,,,,,,,,,,,,,0,,,67,76
213120,note_on,0,0,1,,,,,,,,,,,,,,,0,,,77,0
213120,note_on,0,0,2,,,,,,,,,,,,,,,0,,,48,55
213120,note_on,480,0,1,,,,,,,,,,,,,,,0,,,67,0
213120,set_tempo,480,1,0,,,,,,,,,,,,461538,,,,,,,
213120,note_on,0,0,1,,,,,,,,,,,,,,,0,,,71,0
213440,control_change,320,0,2,,,,,,,,,,,,,,,0,64,127,,
214560,note_on,0,0,1,,,,,,,,,,,,,,,0,,,76,51
214560,note_on,1440,0,1,,,,,,,,,,,,,,,0,,,77,0
214560,set_tempo,1440,1,0,,,,,,,,,,,,465188,,,,,,,
214856,control_change,1416,0,2,,,,,,,,,,,,,,,0,64,0,,
215040,note_on,0,0,1,,,,,,,,,,,,,,,0,,,67,0
215040,note_on,480,0,1,,,,,,,,,,,,,,,0,,,76,0
215040,note_on,0,0,1,,,,,,,,,,,,,,,0,,,72,0
215040,note_on,184,0,2,,,,,,,,,,,,,,,0,,,48,0
215040,note_on,0,0,2,,,,,,,,,,,,,,,0,,,36,0
215520,note_on,480,0,2,,,,,,,,,,,,,,,0,,,64,41
215520,set_tempo,960,1,0,,,,,,,,,,,,537634,,,,,,,
215520,note_on,0,0,1,,,,,,,,,,,,,,,0,,,72,46
215520,note_on,480,0,1,,,,,,,,,,,,,,,0,,,67,46
215520,note_on,0,0,1,,,,,,,,,,,,,,,0,,,76,52
215520,note_on,0,0,2,,,,,,,,,,,,,,,0,,,60,36
216000,note_on,480,0,1,,,,,,,,,,,,,,,0,,,76,0
216000,set_tempo,480,1,0,,,,,,,,,,,,473111,,,,,,,
216000,note_on,0,0,1,,,,,,,,,,,,,,,0,,,72,0
216000,note_on,0,0,2,,,,,,,,,,,,,,,0,,,58,40
216000,note_on,0,0,1,,,,,,,,,,,,,,,0,,,67,0
216000,note_on,0,0,1,,,,,,,,,,,,,,,0,,,67,51
216000,note_on,0,0,1,,,,,,,,,,,,,,,0,,,73,57
216000,note_on,0,0,2,,,,,,,,,,,,,,,0,,,64,0
216000,note_on,480,0,2,,,,,,,,,,,,,,,0,,,60,0
216000,note_on,0,0,2,,,,,,,,,,,,,,,0,,,63,45
216000,note_on,0,0,1,,,,,,,,,,,,,,,0,,,75,57
216960,note_on,0,0,1,,,,,,,,,,,,,,,0,,,75,59
216960,note_on,0,0,2,,,,,,,,,,,,,,,0,,,63,47
216960,note_on,960,0,1,,,,,,,,,,,,,,,0,,,75,0
216960,note_on,0,0,2,,,,,,,,,,,,,,,0,,,63,0
216960,note_on,960,0,2,,,,,,,,,,,,,,,0,,,58,0
216960,note_on,0,0,1,,,,,,,,,,,,,,,0,,,72,53
216960,note_on,0,0,1,,,,,,,,,,,,,,,0,,,68,53
216960,note_on,0,0,1,,,,,,,,,,,,,,,0,,,73,0
216960,note_on,0,0,2,,,,,,,,,,,,,,,0,,,56,42
216960,note_on,0,0,1,,,,,,,,,,,,,,,0,,,67,0
216960,set_tempo,960,1,0,,,,,,,,,,,,521785,,,,,,,
217440,note_on,0,0,2,,,,,,,,,,,,,,,0,,,63,0
217440,note_on,480,0,2,,,,,,,,,,,,,,,0,,,56,0
217440,note_on,0,0,2,,,,,,,,,,,,,,,0,,,49,51
217440,note_on,0,0,1,,,,,,,,,,,,,,,0,,,65,57
217440,note_on,0,0,1,,,,,,,,,,,,,,,0,,,68,0
217440,note_on,0,0,1,,,,,,,,,,,,,,,0,,,72,0
217440,note_on,0,0,1,,,,,,,,,,,,,,,0,,,70,57
217440,set_tempo,480,1,0,,,,,,,,,,,,465188,,,,,,,
217440,note_on,480,0,1,,,,,,,,,,,,,,,0,,,75,0
217440,note_on,0,0,1,,,,,,,,,,,,,,,0,,,73,64
218400,note_on,0,0,1,,,,,,,,,,,,,,,0,,,67,56
218400,note_on,0,0,1,,,,,,,,,,,,,,,0,,,61,56
218400,note_on,960,0,1,,,,,,,,,,,,,,,0,,,73,0
218400,note_on,0,0,1,,,,,,,,,,,,,,,0,,,70,0
218400,note_on,0,0,1,,,,,,,,,,,,,,,0,,,65,0
218400,note_on,0,0,1,,,,,,,,,,,,,,,0,,,72,63
218400,note_on,0,0,2,,,,,,,,,,,,,,,0,,,51,51
218400,note_on,960,0,2,,,,,,,,,,,,,,,0,,,49,0
218400,set_tempo,960,1,0,,,,,,,,,,,,508431,,,,,,,
218640,note_on,0,0,1,,,,,,,,,,,,,,,0,,,70,60
218640,set_tempo,240,1,0,,,,,,,,,,,,641711,,,,,,,
218640,note_on,240,0,1,,,,,,,,,,,,,,,0,,,72,0
218880,set_tempo,240,1,0,,,,,,,,,,,,491803,,,,,,,
218880,note_on,0,0,2,,,,,,,,,,,,,,,0,,,51,42
218880,note_on,0,0,2,,,,,,,,,,,,,,,0,,,44,37
218880,note_on,0,0,1,,,,,,,,,,,,,,,0,,,70,52
218880,note_on,240,0,1,,,,,,,,,,,,,,,0,,,70,0
218880,note_on,0,0,1,,,,,,,,,,,,,,,0,,,61,46
218880,note_on,0,0,1,,,,,,,,,,,,,,,0,,,61,0
218880,note_on,0,0,1,,,,,,,,,,,,,,,0,,,67,0
218880,note_on,480,0,2,,,,,,,,,,,,,,,0,,,51,0
218880,note_on,0,0,1,,,,,,,,,,,,,,,0,,,67,46
219093,control_change,213,0,2,,,,,,,,,,,,,,,0,64,127,,
220080,control_change,987,0,2,,,,,,,,,,,,,,,0,64,0,,
220320,note_on,1440,0,1,,,,,,,,,,,,,,,0,,,70,0
220320,note_on,0,0,1,,,,,,,,,,,,,,,0,,,61,0
220320,note_on,0,0,1,,,,,,,,,,,,,,,0,,,60,41
220320,note_on,0,0,1,,,,,,,,,,,,,,,0,,,68,46
220320,note_on,0,0,1,,,,,,,,,,,,,,,0,,,67,0
220800,note_on,720,0,2,,,,,,,,,,,,,,,0,,,51,0
220800,note_on,0,0,2,,,,,,,,,,,,,,,0,,,44,0
220800,note_on,480,0,1,,,,,,,,,,,,,,,0,,,68,0
220800,note_on,0,0,1,,,,,,,,,,,,,,,0,,,60,0
220808,set_tempo,1928,1,0,,,,,,,,,,,,563222,,,,,,,
221280,note_on,480,0,2,,,,,,,,,,,,,,,0,,,52,28
221280,note_on,0,0,2,,,,,,,,,,,,,,,0,,,56,28
221280,note_on,0,0,2,,,,,,,,,,,,,,,0,,,59,32
221280,note_on,480,0,1,,,,,,,,,,,,,,,0,,,62,36
221280,note_on,0,0,1,,,,,,,,,,,,,,,0,,,71,40
221280,note_on,0,0,1,,,,,,,,,,,,,,,0,,,68,36
221760,note_on,0,0,2,,,,,,,,,,,,,,,0,,,56,0
221760,note_on,0,0,2,,,,,,,,,,,,,,,0,,,52,0
221760,note_on,0,0,2,,,,,,,,,,,,,,,0,,,52,28
221760,note_on,0,0,2,,,,,,,,,,,,,,,0,,,56,28
221760,note_on,0,0,2,,,,,,,,,,,,,,,0,,,59,32
221760,set_tempo,952,1,0,,,,,,,,,,,,462820,,,,,,,
221760,note_on,480,0,2,,,,,,,,,,,,,,,0,,,59,0
221760,note_on,480,0,1,,,,,,,,,,,,,,,0,,,71,0
221760,note_on,0,0,1,,,,,,,,,,,,,,,0,,,68,0
221760,note_on,0,0,1,,,,,,,,,,,,,,,0,,,62,0
221760,note_on,0,0,1,,,,,,,,,,,,,,,0,,,62,36
221760,note_on,0,0,1,,,,,,,,,,,,,,,0,,,68,36
221760,note_on,0,0,1,,,,,,,,,,,,,,,0,,,71,40
223200,note_on,0,0,1,,,,,,,,,,,,,,,0,,,63,32
223200,note_on,1440,0,1,,,,,,,,,,,,,,,0,,,62,0
223200,note_on,1440,0,2,,,,,,,,,,,,,,,0,,,52,0
223200,note_on,0,0,2,,,,,,,,,,,,,,,0,,,51,25
223680,note_on,480,0,1,,,,,,,,,,,,,,,0,,,63,0
223680,note_on,480,0,2,,,,,,,,,,,,,,,0,,,51,0
223680,note_on,0,0,2,,,,,,,,,,,,,,,0,,,59,0
223680,note_on,0,0,1,,,,,,,,,,,,,,,0,,,68,0
223680,note_on,0,0,2,,,,,,,,,,,,,,,0,,,56,0
223680,note_on,0,0,1,,,,,,,,,,,,,,,0,,,71,0
224160,note_on,480,0,1,,,,,,,,,,,,,,,0,,,64,40
224160,note_on,0,0,1,,,,,,,,,,,,,,,0,,,68,40
224160,note_on,0,0,1,,,,,,,,,,,,,,,0,,,71,45
224160,set_tempo,2400,1,0,,,,,,,,,,,,545455,,,,,,,
224160,note_on,0,0,2,,,,,,,,,,,,,,,0,,,59,34
224160,note_on,0,0,2,,,,,,,,,,,,,,,0,,,56,30
224160,note_on,480,0,2,,,,,,,,,,,,,,,0,,,49,30
224640,note_on,0,0,2,,,,,,,,,,,,,,,0,,,56,32
224640,note_on,0,0,2,,,,,,,,,,,,,,,0,,,56,0
224640,note_on,480,0,1,,,,,,,,,,,,,,,0,,,71,0
224640,note_on,0,0,1,,,,,,,,,,,,,,,0,,,68,0
224640,note_on,0,0,1,,,,,,,,,,,,,,,0,,,64,0
224640,note_on,0,0,2,,,,,,,,,,,,,,,0,,,49,32
224640,note_on,0,0,1,,,,,,,,,,,,,,,0,,,64,44
224640,note_on,0,0,1,,,,,,,,,,,,,,,0,,,71,49
224640,note_on,480,0,2,,,,,,,,,,,,,,,0,,,59,0
224640,set_tempo,480,1,0,,,,,,,,,,,,462820,,,,,,,
224640,note_on,0,0,2,,,,,,,,,,,,,,,0,,,49,0
224640,note_on,0,0,2,,,,,,,,,,,,,,,0,,,59,36
224640,note_on,0,0,1,,,,,,,,,,,,,,,0,,,68,44
226080,note_on,1440,0,2,,,,,,,,,,,,,,,0,,,49,0
226080,note_on,0,0,2,,,,,,,,,,,,,,,0,,,47,24
226080,note_on,0,0,1,,,,,,,,,,,,,,,0,,,63,33
226080,note_on,1440,0,1,,,,,,,,,,,,,,,0,,,64,0
226560,note_on,0,0,1,,,,,,,,,,,,,,,0,,,71,0
226560,note_on,0,0,2,,,,,,,,,,,,,,,0,,,56,0
226560,note_on,0,0,2,,,,,,,,,,,,,,,0,,,59,0
226560,note_on,480,0,1,,,,,,,,,,,,,,,0,,,63,0
226560,note_on,480,0,2,,,,,,,,,,,,,,,0,,,47,0
226560,note_on,0,0,1,,,,,,,,,,,,,,,0,,,68,0
227040,note_on,0,0,2,,,,,,,,,,,,,,,0,,,59,37
227040,note_on,0,0,2,,,,,,,,,,,,,,,0,,,56,33
227040,set_tempo,2400,1,0,,,,,,,,,,,,515021,,,,,,,
227040,note_on,480,0,2,,,,,,,,,,,,,,,0,,,47,33
227040,note_on,480,0,1,,,,,,,,,,,,,,,0,,,63,46
227040,note_on,0,0,1,,,,,,,,,,,,,,,0,,,68,46
227040,note_on,0,0,1,,,,,,,,,,,,,,,0,,,71,52
227520,note_on,0,0,1,,,,,,,,,,,,,,,0,,,70,58
227520,note_on,0,0,1,,,,,,,,,,,,,,,0,,,63,0
227520,note_on,0,0,2,,,,,,,,,,,,,,,0,,,56,0
227520,note_on,480,0,1,,,,,,,,,,,,,,,0,,,71,0
227520,note_on,480,0,2,,,,,,,,,,,,,,,0,,,59,0
227520,note_on,0,0,1,,,,,,,,,,,,,,,0,,,68,0
227520,note_on,0,0,1,,,,,,,,,,,,,,,0,,,64,52
227520,note_on,0,0,2,,,,,,,,,,,,,,,0,,,47,0
227520,set_tempo,480,1,0,,,,,,,,,,,,515021,,,,,,,
227520,note_on,0,0,1,,,,,,,,,,,,,,,0,,,68,52
227520,note_on,0,0,2,,,,,,,,,,,,,,,0,,,49,39
227520,note_on,0,0,2,,,,,,,,,,,,,,,0,,,58,44
227520,note_on,0,0,2,,,,,,,,,,,,,,,0,,,56,39
228000,note_on,0,0,1,,,,,,,,,,,,,,,0,,,76,65
228000,set_tempo,480,1,0,,,,,,,,,,,,462820,,,,,,,
228000,note_on,480,0,1,,,,,,,,,,,,,,,0,,,70,0
228720,note_on,0,0,1,,,,,,,,,,,,,,,0,,,70,51
228720,note_on,720,0,1,,,,,,,,,,,,,,,0,,,76,0
228960,note_on,240,0,1,,,,,,,,,,,,,,,0,,,70,0
228960,note_on,0,0,1,,,,,,,,,,,,,,,0,,,75,57
228960,set_tempo,960,1,0,,,,,,,,,,,,475210,,,,,,,
228960,note_on,1440,0,2,,,,,,,,,,,,,,,0,,,49,0
228960,note_on,0,0,2,,,,,,,,,,,,,,,0,,,46,40
229200,note_on,240,0,1,,,,,,,,,,,,,,,0,,,75,0
229200,note_on,0,0,1,,,,,,,,,,,,,,,0,,,73,55
229440,note_on,480,0,2,,,,,,,,,,,,,,,0,,,46,0
229440,note_on,0,0,2,,,,,,,,,,,,,,,0,,,47,37
229440,note_on,0,0,1,,,,,,,,,,,,,,,0,,,71,55
229440,note_on,240,0,1,,,,,,,,,,,,,,,0,,,73,0
229920,note_on,0,0,1,,,,,,,,,,,,,,,0,,,64,0
229920,note_on,0,0,1,,,,,,,,,,,,,,,0,,,64,46
229920,note_on,0,0,1,,,,,,,,,,,,,,,0,,,61,46
229920,note_on,0,0,1,,,,,,,,,,,,,,,0,,,70,52
229920,note_on,480,0,1,,,,,,,,,,,,,,,0,,,71,0
229920,note_on,0,0,2,,,,,,,,,,,,,,,0,,,49,35
229920,note_on,0,0,1,,,,,,,,,,,,,,,0,,,68,0
229920,note_on,0,0,2,,,,,,,,,,,,,,,0,,,56,0
229920,note_on,480,0,2,,,,,,,,,,,,,,,0,,,47,0
229920,set_tempo,960,1,0,,,,,,,,,,,,511771,,,,,,,
229920,note_on,0,0,2,,,,,,,,,,,,,,,0,,,58,0
230400,note_on,480,0,2,,,,,,,,,,,,,,,0,,,49,0
230400,note_on,0,0,2,,,,,,,,,,,,,,,0,,,51,35
230400,note_on,0,0,1,,,,,,,,,,,,,,,0,,,68,49
230400,note_on,0,0,1,,,,,,,,,,,,,,,0,,,59,44
230400,note_on,0,0,1,,,,,,,,,,,,,,,0,,,63,44
230400,note_on,0,0,1,,,,,,,,,,,,,,,0,,,64,0
230400,note_on,0,0,1,,,,,,,,,,,,,,,0,,,61,0
230400,note_on,480,0,1,,,,,,,,,,,,,,,0,,,70,0
230400,set_tempo,480,1,0,,,,,,,,,,,,462820,,,,,,,
231840,note_on,0,0,1,,,,,,,,,,,,,,,0,,,58,31
231840,note_on,0,0,1,,,,,,,,,,,,,,,0,,,67,35
231840,note_on,0,0,1,,,,,,,,,,,,,,,0,,,59,0
231840,note_on,1440,0,1,,,,,,,,,,,,,,,0,,,68,0
232320,note_on,0,0,1,,,,,,,,,,,,,,,0,,,63,0
232320,note_on,0,0,1,,,,,,,,,,,,,,,0,,,58,0
232320,note_on,480,0,1,,,,,,,,,,,,,,,0,,,67,0
232320,note_on,1920,0,2,,,,,,,,,,,,,,,0,,,51,0
232800,note_on,480,0,1,,,,,,,,,,,,,,,0,,,62,32
232800,set_tempo,2400,1,0,,,,,,,,,,,,532245,,,,,,,
232800,note_on,0,0,1,,,,,,,,,,,,,,,0,,,71,36
232800,note_on,480,0,2,,,,,,,,,,,,,,,0,,,52,25
232800,note_on,0,0,2,,,,,,,,,,,,,,,0,,,56,25
232800,note_on,0,0,2,,,,,,,,,,,,,,,0,,,59,28
232800,note_on,0,0,1,,,,,,,,,,,,,,,0,,,68,32
233280,note_on,0,0,1,,,,,,,,,,,,,,,0,,,68,32
233280,note_on,0,0,2,,,,,,,,,,,,,,,0,,,59,28
233280,note_on,0,0,2,,,,,,,,,,,,,,,0,,,56,25
233280,set_tempo,480,1,0,,,,,,,,,,,,462820,,,,,,,
233280,note_on,0,0,2,,,,,,,,,,,,,,,0,,,52,25
233280,note_on,0,0,2,,,,,,,,,,,,,,,0,,,52,0
233280,note_on,0,0,1,,,,,,,,,,,,,,,0,,,71,36
233280,note_on,0,0,2,,,,,,,,,,,,,,,0,,,56,0
233280,note_on,480,0,1,,,,,,,,,,,,,,,0,,,71,0
233280,note_on,0,0,1,,,,,,,,,,,,,,,0,,,68,0
233280,note_on,0,0,1,,,,,,,,,,,,,,,0,,,62,32
233280,note_on,480,0,2,,,,,,,,,,,,,,,0,,,59,0
233280,note_on,0,0,1,,,,,,,,,,,,,,,0,,,62,0
234720,note_on,0,0,1,,,,,,,,,,,,,,,0,,,63,28
234720,note_on,1440,0,1,,,,,,,,,,,,,,,0,,,62,0
234720,note_on,0,0,2,,,,,,,,,,,,,,,0,,,51,22
234720,note_on,1440,0,2,,,,,,,,,,,,,,,0,,,52,0
235200,note_on,0,0,1,,,,,,,,,,,,,,,0,,,71,0
235200,note_on,0,0,2,,,,,,,,,,,,,,,0,,,59,0
235200,note_on,480,0,2,,,,,,,,,,,,,,,0,,,51,0
235200,note_on,0,0,1,,,,,,,,,,,,,,,0,,,68,0
235200,note_on,480,0,1,,,,,,,,,,,,,,,0,,,63,0
235200,note_on,0,0,2,,,,,,,,,,,,,,,0,,,56,0
235680,note_on,0,0,2,,,,,,,,,,,,,,,0,,,59,36
235680,note_on,0,0,1,,,,,,,,,,,,,,,0,,,68,43
235680,note_on,0,0,1,,,,,,,,,,,,,,,0,,,71,48
235680,note_on,480,0,2,,,,,,,,,,,,,,,0,,,49,32
235680,note_on,480,0,1,,,,,,,,,,,,,,,0,,,64,43
235680,set_tempo,2400,1,0,,,,,,,,,,,,532245,,,,,,,
235680,note_on,0,0,2,,,,,,,,,,,,,,,0,,,56,32
236160,note_on,480,0,2,,,,,,,,,,,,,,,0,,,59,0
236160,note_on,0,0,2,,,,,,,,,,,,,,,0,,,56,0
236160,note_on,0,0,2,,,,,,,,,,,,,,,0,,,49,0
236160,note_on,0,0,2,,,,,,,,,,,,,,,0,,,49,31
236160,note_on,0,0,1,,,,,,,,,,,,,,,0,,,68,0
236160,set_tempo,480,1,0,,,,,,,,,,,,462820,,,,,,,
236160,note_on,0,0,1,,,,,,,,,,,,,,,0,,,71,44
236160,note_on,0,0,1,,,,,,,,,,,,,,,0,,,68,39
236160,note_on,0,0,1,,,,,,,,,,,,,,,0,,,64,39
236160,note_on,0,0,1,,,,,,,,,,,,,,,0,,,64,0
236160,note_on,0,0,2,,,,,,,,,,,,,,,0,,,56,31
236160,note_on,0,0,2,,,,,,,,,,,,,,,0,,,59,35
236160,note_on,480,0,1,,,,,,,,,,,,,,,0,,,71,0
237600,note_on,1440,0,2,,,,,,,,,,,,,,,0,,,49,0
237600,note_on,0,0,2,,,,,,,,,,,,,,,0,,,47,21
237600,note_on,1440,0,1,,,,,,,,,,,,,,,0,,,64,0
237600,note_on,0,0,1,,,,,,,,,,,,,,,0,,,63,34
238080,note_on,0,0,1,,,,,,,,,,,,,,,0,,,68,0
238080,note_on,480,0,1,,,,,,,,,,,,,,,0,,,63,0
238080,note_on,480,0,2,,,,,,,,,,,,,,,0,,,47,0
238080,note_on,0,0,2,,,,,,,,,,,,,,,0,,,59,0
238080,note_on,0,0,2,,,,,,,,,,,,,,,0,,,56,0
238080,note_on,0,0,1,,,,,,,,,,,,,,,0,,,71,0
238560,set_tempo,2400,1,0,,,,,,,,,,,,521739,,,,,,,
238560,note_on,0,0,2,,,,,,,,,,,,,,,0,,,47,38
238560,note_on,0,0,2,,,,,,,,,,,,,,,0,,,52,38
238560,note_on,0,0,1,,,,,,,,,,,,,,,0,,,71,45
238560,note_on,0,0,1,,,,,,,,,,,,,,,0,,,68,45
238560,note_on,480,0,1,,,,,,,,,,,,,,,0,,,64,45
238560,note_on,0,0,2,,,,,,,,,,,,,,,0,,,59,43
238560,note_on,0,0,2,,,,,,,,,,,,,,,0,,,56,38
238560,control_change,480,0,2,,,,,,,,,,,,,,,0,64,127,,
239040,note_on,0,0,1,,,,,,,,,,,,,,,0,,,68,0
239040,note_on,480,0,1,,,,,,,,,,,,,,,0,,,71,0
239040,note_on,0,0,2,,,,,,,,,,,,,,,0,,,47,0
239040,note_on,480,0,2,,,,,,,,,,,,,,,0,,,59,0
239040,note_on,0,0,2,,,,,,,,,,,,,,,0,,,52,0
239040,note_on,0,0,2,,,,,,,,,,,,,,,0,,,59,49
239040,note_on,0,0,2,,,,,,,,,,,,,,,0,,,56,44
239040,note_on,0,0,2,,,,,,,,,,,,,,,0,,,52,44
239040,note_on,0,0,1,,,,,,,,,,,,,,,0,,,64,0
239040,note_on,0,0,2,,,,,,,,,,,,,,,0,,,47,44
239040,note_on,0,0,1,,,,,,,,,,,,,,,0,,,71,50
239040,note_on,0,0,1,,,,,,,,,,,,,,,0,,,68,50
239040,note_on,0,0,1,,,,,,,,,,,,,,,0,,,64,50
239040,set_tempo,0,1,0,,,,,,,,,,,,533333,,,,,,,
239040,key_signature,480,1,0,,,,,,,,,,,E,,,,,,,,
239040,note_on,0,0,2,,,,,,,,,,,,,,,0,,,56,0
239520,note_on,0,0,1,,,,,,,,,,,,,,,0,,,76,70
239520,note_on,480,0,1,,,,,,,,,,,,,,,0,,,71,0
239520,set_tempo,480,1,0,,,,,,,,,,,,461538,,,,,,,
240184,control_change,1144,0,2,,,,,,,,,,,,,,,0,64,0,,
240240,note_on,720,0,1,,,,,,,,,,,,,,,0,,,76,0
240240,set_tempo,720,1,0,,,,,,,,,,,,750000,,,,,,,
240240,note_on,0,0,1,,,,,,,,,,,,,,,0,,,71,60
240360,note_on,120,0,1,,,,,,,,,,,,,,,0,,,71,0
240360,note_on,0,0,1,,,,,,,,,,,,,,,0,,,71,55
240360,set_tempo,120,1,0,,,,,,,,,,,,545455,,,,,,,
240460,set_tempo,100,1,0,,,,,,,,,,,,474308,,,,,,,
240480,note_on,120,0,1,,,,,,,,,,,,,,,0,,,71,0
240480,note_on,0,0,1,,,,,,,,,,,,,,,0,,,68,0
240480,note_on,0,0,1,,,,,,,,,,,,,,,0,,,75,73
240480,note_on,296,0,2,,,,,,,,,,,,,,,0,,,59,0
240480,note_on,0,0,2,,,,,,,,,,,,,,,0,,,47,0
240480,note_on,0,0,2,,,,,,,,,,,,,,,0,,,52,0
240480,note_on,0,0,2,,,,,,,,,,,,,,,0,,,56,0
240480,note_on,0,0,2,,,,,,,,,,,,,,,0,,,47,42
240480,note_on,0,0,2,,,,,,,,,,,,,,,0,,,52,42
240480,note_on,0,0,2,,,,,,,,,,,,,,,0,,,56,42
240480,note_on,0,0,2,,,,,,,,,,,,,,,0,,,59,47
240620,set_tempo,160,1,0,,,,,,,,,,,,476190,,,,,,,
240720,note_on,0,0,1,,,,,,,,,,,,,,,0,,,73,70
240720,note_on,240,0,1,,,,,,,,,,,,,,,0,,,75,0
240780,set_tempo,160,1,0,,,,,,,,,,,,478088,,,,,,,
240940,set_tempo,160,1,0,,,,,,,,,,,,480000,,,,,,,
240960,note_on,0,0,1,,,,,,,,,,,,,,,0,,,71,67
240960,note_on,240,0,1,,,,,,,,,,,,,,,0,,,73,0
241100,set_tempo,160,1,0,,,,,,,,,,,,481928,,,,,,,
241240,set_tempo,140,1,0,,,,,,,,,,,,483871,,,,,,,
241400,set_tempo,160,1,0,,,,,,,,,,,,485830,,,,,,,
241440,note_on,0,0,1,,,,,,,,,,,,,,,0,,,68,65
241440,note_on,480,0,1,,,,,,,,,,,,,,,0,,,71,0
241560,set_tempo,160,1,0,,,,,,,,,,,,487805,,,,,,,
241720,set_tempo,160,1,0,,,,,,,,,,,,489796,,,,,,,
241860,set_tempo,140,1,0,,,,,,,,,,,,491803,,,,,,,
241880,set_tempo,20,1,0,,,,,,,,,,,,468933,,,,,,,
241920,note_on,0,0,1,,,,,,,,,,,,,,,0,,,61,55
241920,note_on,0,0,1,,,,,,,,,,,,,,,0,,,65,62
241920,note_on,0,0,1,,,,,,,,,,,,,,,0,,,64,0
241920,note_on,480,0,1,,,,,,,,,,,,,,,0,,,68,0
241920,set_tempo,40,1,0,,,,,,,,,,,,506329,,,,,,,
241920,note_on,0,0,2,,,,,,,,,,,,,,,0,,,52,0
241920,note_on,0,0,2,,,,,,,,,,,,,,,0,,,56,0
241920,note_on,0,0,2,,,,,,,,,,,,,,,0,,,47,39
241920,note_on,0,0,2,,,,,,,,,,,,,,,0,,,53,39
241920,note_on,0,0,2,,,,,,,,,,,,,,,0,,,56,44
241920,note_on,1440,0,2,,,,,,,,,,,,,,,0,,,59,0
241920,note_on,0,0,2,,,,,,,,,,,,,,,0,,,47,0
242400,set_tempo,480,1,0,,,,,,,,,,,,470588,,,,,,,
242400,note_on,480,0,1,,,,,,,,,,,,,,,0,,,65,0
242400,note_on,0,0,1,,,,,,,,,,,,,,,0,,,73,70
243120,note_on,720,0,1,,,,,,,,,,,,,,,0,,,73,0
243120,note_on,0,0,1,,,,,,,,,,,,,,,0,,,65,58
243340,set_tempo,940,1,0,,,,,,,,,,,,470588,,,,,,,
243360,note_on,0,0,2,,,,,,,,,,,,,,,0,,,47,0
243360,note_on,0,0,1,,,,,,,,,,,,,,,0,,,73,70
243360,note_on,0,0,1,,,,,,,,,,,,,,,0,,,66,63
243360,note_on,0,0,1,,,,,,,,,,,,,,,0,,,61,63
243360,note_on,0,0,1,,,,,,,,,,,,,,,0,,,61,0
243360,note_on,240,0,1,,,,,,,,,,,,,,,0,,,65,0
243360,note_on,0,0,2,,,,,,,,,,,,,,,0,,,57,48
243360,note_on,0,0,2,,,,,,,,,,,,,,,0,,,54,43
243360,note_on,0,0,2,,,,,,,,,,,,,,,0,,,47,48
243360,note_on,0,0,2,,,,,,,,,,,,,,,0,,,53,0
243360,note_on,1440,0,2,,,,,,,,,,,,,,,0,,,56,0
243500,set_tempo,160,1,0,,,,,,,,,,,,472441,,,,,,,
243600,note_on,0,0,1,,,,,,,,,,,,,,,0,,,69,70
243600,note_on,240,0,1,,,,,,,,,,,,,,,0,,,73,0
243660,set_tempo,160,1,0,,,,,,,,,,,,474308,,,,,,,
243820,set_tempo,160,1,0,,,,,,,,,,,,476190,,,,,,,
243840,note_on,480,0,2,,,,,,,,,,,,,,,0,,,57,0
243840,note_on,0,0,2,,,,,,,,,,,,,,,0,,,54,0
243840,note_on,0,0,2,,,,,,,,,,,,,,,0,,,56,43
243840,note_on,0,0,2,,,,,,,,,,,,,,,0,,,59,48
243840,note_on,240,0,1,,,,,,,,,,,,,,,0,,,69,0
243840,note_on,0,0,1,,,,,,,,,,,,,,,0,,,66,0
243840,note_on,0,0,1,,,,,,,,,,,,,,,0,,,68,70
243840,note_on,0,0,1,,,,,,,,,,,,,,,0,,,64,63
243840,note_on,0,0,1,,,,,,,,,,,,,,,0,,,61,0
243980,set_tempo,160,1,0,,,,,,,,,,,,478088,,,,,,,
244140,set_tempo,160,1,0,,,,,,,,,,,,480000,,,,,,,
244300,set_tempo,160,1,0,,,,,,,,,,,,481928,,,,,,,
244320,note_on,0,0,1,,,,,,,,,,,,,,,0,,,64,0
244320,note_on,480,0,1,,,,,,,,,,,,,,,0,,,68,0
244320,note_on,0,0,1,,,,,,,,,,,,,,,0,,,63,60
244320,note_on,0,0,2,,,,,,,,,,,,,,,0,,,59,48
244320,note_on,0,0,2,,,,,,,,,,,,,,,0,,,56,0
244320,note_on,480,0,2,,,,,,,,,,,,,,,0,,,59,0
244320,note_on,0,0,2,,,,,,,,,,,,,,,0,,,57,43
244320,note_on,0,0,1,,,,,,,,,,,,,,,0,,,66,67
244460,set_tempo,160,1,0,,,,,,,,,,,,483871,,,,,,,
244620,set_tempo,160,1,0,,,,,,,,,,,,485830,,,,,,,
244780,set_tempo,160,1,0,,,,,,,,,,,,487805,,,,,,,
244800,note_on,0,0,1,,,,,,,,,,,,,,,0,,,64,66
244800,note_on,0,0,1,,,,,,,,,,,,,,,0,,,59,59
244800,note_on,0,0,1,,,,,,,,,,,,,,,0,,,56,59
244800,note_on,0,0,1,,,,,,,,,,,,,,,0,,,63,0
244800,note_on,0,0,2,,,,,,,,,,,,,,,0,,,47,0
244800,note_on,0,0,2,,,,,,,,,,,,,,,0,,,47,46
244800,note_on,0,0,2,,,,,,,,,,,,,,,0,,,40,46
244800,note_on,0,0,2,,,,,,,,,,,,,,,0,,,57,0
244800,note_on,480,0,2,,,,,,,,,,,,,,,0,,,59,0
244800,note_on,480,0,1,,,,,,,,,,,,,,,0,,,66,0
244800,note_on,0,0,2,,,,,,,,,,,,,,,0,,,52,52
245760,note_on,960,0,1,,,,,,,,,,,,,,,0,,,64,0
245760,set_tempo,980,1,0,,,,,,,,,,,,397193,,,,,,,
245760,note_on,0,0,1,,,,,,,,,,,,,,,0,,,59,0
245760,note_on,0,0,1,,,,,,,,,,,,,,,0,,,56,0
245760,note_on,0,0,1,,,,,,,,,,,,,,,0,,,64,51
245920,note_on,160,0,1,,,,,,,,,,,,,,,0,,,64,0
245920,note_on,0,0,1,,,,,,,,,,,,,,,0,,,68,55
246080,note_on,0,0,1,,,,,,,,,,,,,,,0,,,71,59
246080,note_on,160,0,1,,,,,,,,,,,,,,,0,,,68,0
246080,set_tempo,320,1,0,,,,,,,,,,,,483832,,,,,,,
246240,note_on,0,0,1,,,,,,,,,,,,,,,0,,,70,69
246240,note_on,0,0,2,,,,,,,,,,,,,,,0,,,40,52
246240,note_on,1440,0,2,,,,,,,,,,,,,,,0,,,52,0
246240,note_on,160,0,1,,,,,,,,,,,,,,,0,,,71,0
246240,set_tempo,160,1,0,,,,,,,,,,,,454545,,,,,,,
246240,note_on,0,0,2,,,,,,,,,,,,,,,0,,,40,0
246240,note_on,0,0,2,,,,,,,,,,,,,,,0,,,47,0
246240,note_on,0,0,1,,,,,,,,,,,,,,,0,,,61,62
246240,note_on,0,0,1,,,,,,,,,,,,,,,0,,,64,62
246240,note_on,0,0,1,,,,,,,,,,,,,,,0,,,67,62
247200,note_on,0,0,1,,,,,,,,,,,,,,,0,,,68,51
247200,note_on,0,0,1,,,,,,,,,,,,,,,0,,,71,57
247200,note_on,0,0,1,,,,,,,,,,,,,,,0,,,64,0
247200,set_tempo,960,1,0,,,,,,,,,,,,483871,,,,,,,
247200,note_on,0,0,1,,,,,,,,,,,,,,,0,,,67,0
247200,note_on,0,0,1,,,,,,,,,,,,,,,0,,,70,0
247200,note_on,960,0,1,,,,,,,,,,,,,,,0,,,61,0
247200,note_on,0,0,1,,,,,,,,,,,,,,,0,,,64,51
247200,note_on,0,0,1,,,,,,,,,,,,,,,0,,,59,51
247440,note_on,0,0,1,,,,,,,,,,,,,,,0,,,64,0
247440,note_on,0,0,1,,,,,,,,,,,,,,,0,,,66,44
247440,note_on,0,0,1,,,,,,,,,,,,,,,0,,,68,0
247440,note_on,240,0,1,,,,,,,,,,,,,,,0,,,59,0
247440,note_on,0,0,1,,,,,,,,,,,,,,,0,,,71,0
247560,note_on,0,0,1,,,,,,,,,,,,,,,0,,,68,44
247560,note_on,120,0,1,,,,,,,,,,,,,,,0,,,66,0
247660,set_tempo,460,1,0,,,,,,,,,,,,441176,,,,,,,
247680,note_on,1440,0,2,,,,,,,,,,,,,,,0,,,40,0
247680,note_on,0,0,1,,,,,,,,,,,,,,,0,,,69,49
247680,note_on,0,0,1,,,,,,,,,,,,,,,0,,,63,44
247680,note_on,0,0,2,,,,,,,,,,,,,,,0,,,40,33
247680,note_on,0,0,1,,,,,,,,,,,,,,,0,,,60,44
247680,note_on,120,0,1,,,,,,,,,,,,,,,0,,,68,0
247680,note_on,0,0,2,,,,,,,,,,,,,,,0,,,45,37
247700,set_tempo,40,1,0,,,,,,,,,,,,441176,,,,,,,
247760,set_tempo,60,1,0,,,,,,,,,,,,442804,,,,,,,
247820,set_tempo,60,1,0,,,,,,,,,,,,444444,,,,,,,
247880,set_tempo,60,1,0,,,,,,,,,,,,446097,,,,,,,
247940,set_tempo,60,1,0,,,,,,,,,,,,447761,,,,,,,
248000,set_tempo,60,1,0,,,,,,,,,,,,449438,,,,,,,
248060,set_tempo,60,1,0,,,,,,,,,,,,451128,,,,,,,
248120,set_tempo,60,1,0,,,,,,,,,,,,452830,,,,,,,
248160,set_tempo,40,1,0,,,,,,,,,,,,454545,,,,,,,
248220,set_tempo,60,1,0,,,,,,,,,,,,456274,,,,,,,
248280,set_tempo,60,1,0,,,,,,,,,,,,458015,,,,,,,
248340,set_tempo,60,1,0,,,,,,,,,,,,459770,,,,,,,
248400,note_on,0,0,1,,,,,,,,,,,,,,,0,,,68,47
248400,note_on,720,0,1,,,,,,,,,,,,,,,0,,,69,0
248400,note_on,0,0,1,,,,,,,,,,,,,,,0,,,60,0
248400,note_on,0,0,1,,,,,,,,,,,,,,,0,,,59,42
248400,set_tempo,60,1,0,,,,,,,,,,,,461538,,,,,,,
248400,note_on,0,0,2,,,,,,,,,,,,,,,0,,,47,35
248400,note_on,720,0,2,,,,,,,,,,,,,,,0,,,45,0
248460,set_tempo,60,1,0,,,,,,,,,,,,463320,,,,,,,
248520,set_tempo,60,1,0,,,,,,,,,,,,465116,,,,,,,
248580,set_tempo,60,1,0,,,,,,,,,,,,466926,,,,,,,
248620,set_tempo,40,1,0,,,,,,,,,,,,468750,,,,,,,
248640,note_on,240,0,2,,,,,,,,,,,,,,,0,,,47,0
248640,note_on,0,0,2,,,,,,,,,,,,,,,0,,,48,33
248640,note_on,240,0,1,,,,,,,,,,,,,,,0,,,68,0
248640,note_on,0,0,1,,,,,,,,,,,,,,,0,,,59,0
248640,note_on,0,0,1,,,,,,,,,,,,,,,0,,,57,39
248640,note_on,0,0,1,,,,,,,,,,,,,,,0,,,66,44
248680,set_tempo,60,1,0,,,,,,,,,,,,470588,,,,,,,
248740,set_tempo,60,1,0,,,,,,,,,,,,472441,,,,,,,
248800,set_tempo,60,1,0,,,,,,,,,,,,474308,,,,,,,
248860,set_tempo,60,1,0,,,,,,,,,,,,476190,,,,,,,
248920,set_tempo,60,1,0,,,,,,,,,,,,478088,,,,,,,
248980,set_tempo,60,1,0,,,,,,,,,,,,480000,,,,,,,
249040,set_tempo,60,1,0,,,,,,,,,,,,481928,,,,,,,
249080,set_tempo,40,1,0,,,,,,,,,,,,483871,,,,,,,
249100,set_tempo,20,1,0,,,,,,,,,,,,466926,,,,,,,
249120,note_on,0,0,1,,,,,,,,,,,,,,,0,,,56,36
249120,note_on,0,0,1,,,,,,,,,,,,,,,0,,,63,0
249120,note_on,480,0,1,,,,,,,,,,,,,,,0,,,66,0
249120,note_on,0,0,1,,,,,,,,,,,,,,,0,,,64,41
249120,note_on,0,0,1,,,,,,,,,,,,,,,0,,,57,0
249120,note_on,480,0,2,,,,,,,,,,,,,,,0,,,48,0
249120,note_on,0,0,2,,,,,,,,,,,,,,,0,,,47,30
249120,set_tempo,20,1,0,,,,,,,,,,,,458821,,,,,,,
249120,note_on,0,0,2,,,,,,,,,,,,,,,0,,,40,0
249120,note_on,0,0,2,,,,,,,,,,,,,,,0,,,40,27
250080,set_tempo,960,1,0,,,,,,,,,,,,397193,,,,,,,
250080,note_on,960,0,1,,,,,,,,,,,,,,,0,,,64,0
250080,note_on,0,0,1,,,,,,,,,,,,,,,0,,,56,0
250080,note_on,0,0,1,,,,,,,,,,,,,,,0,,,64,51
250240,note_on,160,0,1,,,,,,,,,,,,,,,0,,,64,0
250240,note_on,0,0,1,,,,,,,,,,,,,,,0,,,68,55
250400,note_on,160,0,1,,,,,,,,,,,,,,,0,,,68,0
250400,note_on,0,0,1,,,,,,,,,,,,,,,0,,,71,59
250400,set_tempo,320,1,0,,,,,,,,,,,,483832,,,,,,,
250560,note_on,0,0,1,,,,,,,,,,,,,,,0,,,64,62
250560,note_on,160,0,1,,,,,,,,,,,,,,,0,,,71,0
250560,note_on,1440,0,2,,,,,,,,,,,,,,,0,,,40,0
250560,note_on,0,0,2,,,,,,,,,,,,,,,0,,,47,0
250560,note_on,0,0,2,,,,,,,,,,,,,,,0,,,40,52
250560,note_on,0,0,1,,,,,,,,,,,,,,,0,,,70,69
250560,note_on,0,0,1,,,,,,,,,,,,,,,0,,,61,62
250560,set_tempo,160,1,0,,,,,,,,,,,,454545,,,,,,,
250560,note_on,0,0,1,,,,,,,,,,,,,,,0,,,67,62
251520,set_tempo,960,1,0,,,,,,,,,,,,500000,,,,,,,
251520,note_on,960,0,1,,,,,,,,,,,,,,,0,,,61,0
251520,note_on,0,0,1,,,,,,,,,,,,,,,0,,,70,0
251520,note_on,0,0,1,,,,,,,,,,,,,,,0,,,67,0
251520,note_on,0,0,1,,,,,,,,,,,,,,,0,,,64,0
251520,note_on,0,0,1,,,,,,,,,,,,,,,0,,,71,51
251520,note_on,0,0,1,,,,,,,,,,,,,,,0,,,68,45
251520,note_on,0,0,1,,,,,,,,,,,,,,,0,,,64,45
251520,note_on,0,0,1,,,,,,,,,,,,,,,0,,,59,45
251760,note_on,0,0,1,,,,,,,,,,,,,,,0,,,66,43
251760,note_on,0,0,1,,,,,,,,,,,,,,,0,,,64,0
251760,note_on,0,0,1,,,,,,,,,,,,,,,0,,,71,0
251760,note_on,0,0,1,,,,,,,,,,,,,,,0,,,68,0
251760,note_on,240,0,1,,,,,,,,,,,,,,,0,,,59,0
251880,note_on,120,0,1,,,,,,,,,,,,,,,0,,,66,0
251880,note_on,0,0,1,,,,,,,,,,,,,,,0,,,68,43
252000,note_on,0,0,2,,,,,,,,,,,,,,,0,,,45,35
252000,note_on,0,0,2,,,,,,,,,,,,,,,0,,,40,31
252000,note_on,1440,0,2,,,,,,,,,,,,,,,0,,,40,0
252000,note_on,120,0,1,,,,,,,,,,,,,,,0,,,68,0
252000,note_on,0,0,1,,,,,,,,,,,,,,,0,,,60,41
252000,note_on,0,0,1,,,,,,,,,,,,,,,0,,,69,46
252000,note_on,0,0,1,,,,,,,,,,,,,,,0,,,63,41
252000,set_tempo,480,1,0,,,,,,,,,,,,461538,,,,,,,
252040,set_tempo,40,1,0,,,,,,,,,,,,463320,,,,,,,
252080,set_tempo,40,1,0,,,,,,,,,,,,465116,,,,,,,
252120,set_tempo,40,1,0,,,,,,,,,,,,466926,,,,,,,
252160,set_tempo,40,1,0,,,,,,,,,,,,468750,,,,,,,
252200,set_tempo,40,1,0,,,,,,,,,,,,470588,,,,,,,
252240,set_tempo,40,1,0,,,,,,,,,,,,472441,,,,,,,
252280,set_tempo,40,1,0,,,,,,,,,,,,474308,,,,,,,
252320,set_tempo,40,1,0,,,,,,,,,,,,476190,,,,,,,
252360,set_tempo,40,1,0,,,,,,,,,,,,478088,,,,,,,
252400,set_tempo,40,1,0,,,,,,,,,,,,480000,,,,,,,
252440,set_tempo,40,1,0,,,,,,,,,,,,481928,,,,,,,
252480,set_tempo,40,1,0,,,,,,,,,,,,483871,,,,,,,
252520,set_tempo,40,1,0,,,,,,,,,,,,485830,,,,,,,
252560,set_tempo,40,1,0,,,,,,,,,,,,487805,,,,,,,
252600,set_tempo,40,1,0,,,,,,,,,,,,489796,,,,,,,
252640,set_tempo,40,1,0,,,,,,,,,,,,491803,,,,,,,
252680,set_tempo,40,1,0,,,,,,,,,,,,493827,,,,,,,
252720,set_tempo,40,1,0,,,,,,,,,,,,495868,,,,,,,
252720,note_on,0,0,1,,,,,,,,,,,,,,,0,,,68,41
252720,note_on,0,0,1,,,,,,,,,,,,,,,0,,,59,36
252720,note_on,0,0,1,,,,,,,,,,,,,,,0,,,60,0
252720,note_on,720,0,1,,,,,,,,,,,,,,,0,,,69,0
252720,note_on,720,0,2,,,,,,,,,,,,,,,0,,,45,0
252720,note_on,0,0,2,,,,,,,,,,,,,,,0,,,47,32
252760,set_tempo,40,1,0,,,,,,,,,,,,497925,,,,,,,
252800,set_tempo,40,1,0,,,,,,,,,,,,500000,,,,,,,
252840,set_tempo,40,1,0,,,,,,,,,,,,502092,,,,,,,
252880,set_tempo,40,1,0,,,,,,,,,,,,504202,,,,,,,
252920,set_tempo,40,1,0,,,,,,,,,,,,506329,,,,,,,
252960,note_on,240,0,2,,,,,,,,,,,,,,,0,,,47,0
252960,set_tempo,40,1,0,,,,,,,,,,,,508475,,,,,,,
252960,note_on,0,0,1,,,,,,,,,,,,,,,0,,,66,37
252960,note_on,240,0,1,,,,,,,,,,,,,,,0,,,68,0
252960,note_on,0,0,1,,,,,,,,,,,,,,,0,,,59,0
252960,note_on,0,0,2,,,,,,,,,,,,,,,0,,,48,29
252960,note_on,0,0,1,,,,,,,,,,,,,,,0,,,57,33
253000,set_tempo,40,1,0,,,,,,,,,,,,510638,,,,,,,
253040,set_tempo,40,1,0,,,,,,,,,,,,512821,,,,,,,
253080,set_tempo,40,1,0,,,,,,,,,,,,515021,,,,,,,
253120,set_tempo,40,1,0,,,,,,,,,,,,517241,,,,,,,
253160,set_tempo,40,1,0,,,,,,,,,,,,519481,,,,,,,
253200,set_tempo,40,1,0,,,,,,,,,,,,521739,,,,,,,
253240,set_tempo,40,1,0,,,,,,,,,,,,524017,,,,,,,
253280,set_tempo,40,1,0,,,,,,,,,,,,526316,,,,,,,
253320,set_tempo,40,1,0,,,,,,,,,,,,528634,,,,,,,
253360,set_tempo,40,1,0,,,,,,,,,,,,530973,,,,,,,
253400,set_tempo,40,1,0,,,,,,,,,,,,533333,,,,,,,
253420,set_tempo,20,1,0,,,,,,,,,,,,479501,,,,,,,
253440,note_on,0,0,1,,,,,,,,,,,,,,,0,,,57,0
253440,note_on,0,0,2,,,,,,,,,,,,,,,0,,,40,23
253440,note_on,480,0,1,,,,,,,,,,,,,,,0,,,66,0
253440,note_on,0,0,2,,,,,,,,,,,,,,,0,,,47,26
253440,note_on,0,0,1,,,,,,,,,,,,,,,0,,,56,35
253440,note_on,480,0,2,,,,,,,,,,,,,,,0,,,48,0
253440,set_tempo,20,1,0,,,,,,,,,,,,461538,,,,,,,
253440,note_on,0,0,1,,,,,,,,,,,,,,,0,,,64,35
253440,note_on,0,0,1,,,,,,,,,,,,,,,0,,,63,0
253440,note_on,0,0,2,,,,,,,,,,,,,,,0,,,40,0
254400,set_tempo,960,1,0,,,,,,,,,,,,487805,,,,,,,
254400,note_on,0,0,1,,,,,,,,,,,,,,,0,,,56,0
254400,note_on,0,0,1,,,,,,,,,,,,,,,0,,,68,43
254400,note_on,960,0,1,,,,,,,,,,,,,,,0,,,64,0
254880,note_on,480,0,1,,,,,,,,,,,,,,,0,,,68,0
254880,control_change,0,0,2,,,,,,,,,,,,,,,0,64,127,,
254880,note_on,0,0,2,,,,,,,,,,,,,,,0,,,59,36
254880,note_on,0,0,2,,,,,,,,,,,,,,,0,,,52,32
254880,note_on,0,0,2,,,,,,,,,,,,,,,0,,,47,0
254880,set_tempo,0,1,0,,,,,,,,,,,,468750,,,,,,,
254880,key_signature,480,1,0,,,,,,,,,,,Ab,,,,,,,,
254880,note_on,1440,0,2,,,,,,,,,,,,,,,0,,,40,0
254880,note_on,0,0,1,,,,,,,,,,,,,,,0,,,68,49
254880,note_on,0,0,1,,,,,,,,,,,,,,,0,,,64,44
255840,note_on,0,0,1,,,,,,,,,,,,,,,0,,,64,39
255840,note_on,0,0,1,,,,,,,,,,,,,,,0,,,68,44
255840,note_on,960,0,1,,,,,,,,,,,,,,,0,,,68,0
255840,note_on,0,0,1,,,,,,,,,,,,,,,0,,,64,0
255840,control_change,0,0,2,,,,,,,,,,,,,,,0,64,0,,
255840,set_tempo,960,1,0,,,,,,,,,,,,512821,,,,,,,
255840,note_on,960,0,2,,,,,,,,,,,,,,,0,,,59,0
255840,note_on,0,0,2,,,,,,,,,,,,,,,0,,,52,0
255840,note_on,0,0,2,,,,,,,,,,,,,,,0,,,52,26
255840,note_on,0,0,2,,,,,,,,,,,,,,,0,,,59,29
256320,note_on,480,0,2,,,,,,,,,,,,,,,0,,,59,0
256320,note_on,0,0,1,,,,,,,,,,,,,,,0,,,64,50
256320,note_on,0,0,2,,,,,,,,,,,,,,,0,,,59,36
256320,note_on,0,0,2,,,,,,,,,,,,,,,0,,,52,32
256320,note_on,0,0,2,,,,,,,,,,,,,,,0,,,52,0
256320,note_on,480,0,1,,,,,,,,,,,,,,,0,,,68,0
256320,note_on,0,0,1,,,,,,,,,,,,,,,0,,,64,0
256320,set_tempo,480,1,0,,,,,,,,,,,,463320,,,,,,,
256320,note_on,0,0,1,,,,,,,,,,,,,,,0,,,68,50
256480,set_tempo,160,1,0,,,,,,,,,,,,465116,,,,,,,
256640,set_tempo,160,1,0,,,,,,,,,,,,466926,,,,,,,
256780,set_tempo,140,1,0,,,,,,,,,,,,468750,,,,,,,
256940,set_tempo,160,1,0,,,,,,,,,,,,470588,,,,,,,
257040,note_on,0,0,1,,,,,,,,,,,,,,,0,,,63,45
257040,note_on,720,0,1,,,,,,,,,,,,,,,0,,,64,0
257100,set_tempo,160,1,0,,,,,,,,,,,,472441,,,,,,,
257240,set_tempo,140,1,0,,,,,,,,,,,,474308,,,,,,,
257280,note_on,0,0,1,,,,,,,,,,,,,,,0,,,68,42
257280,note_on,240,0,1,,,,,,,,,,,,,,,0,,,63,0
257280,note_on,0,0,1,,,,,,,,,,,,,,,0,,,62,37
257280,note_on,0,0,1,,,,,,,,,,,,,,,0,,,68,0
257280,note_on,0,0,2,,,,,,,,,,,,,,,0,,,52,28
257280,note_on,0,0,2,,,,,,,,,,,,,,,0,,,52,0
257280,note_on,960,0,2,,,,,,,,,,,,,,,0,,,59,0
257280,set_tempo,40,1,0,,,,,,,,,,,,535714,,,,,,,
257280,note_on,0,0,2,,,,,,,,,,,,,,,0,,,56,28
257760,note_on,480,0,2,,,,,,,,,,,,,,,0,,,56,0
257760,note_on,0,0,2,,,,,,,,,,,,,,,0,,,52,0
257760,note_on,0,0,2,,,,,,,,,,,,,,,0,,,51,32
257760,note_on,0,0,2,,,,,,,,,,,,,,,0,,,58,36
257760,set_tempo,480,1,0,,,,,,,,,,,,461538,,,,,,,
257760,note_on,480,0,1,,,,,,,,,,,,,,,0,,,68,0
257760,note_on,0,0,1,,,,,,,,,,,,,,,0,,,62,0
257760,note_on,0,0,1,,,,,,,,,,,,,,,0,,,68,44
257760,note_on,0,0,1,,,,,,,,,,,,,,,0,,,63,39
259200,note_on,0,0,1,,,,,,,,,,,,,,,0,,,67,39
259200,note_on,1440,0,1,,,,,,,,,,,,,,,0,,,68,0
259680,note_on,1920,0,2,,,,,,,,,,,,,,,0,,,58,0
259680,note_on,0,0,2,,,,,,,,,,,,,,,0,,,51,0
259920,set_tempo,2160,1,0,,,,,,,,,,,,415225,,,,,,,
259920,note_on,720,0,1,,,,,,,,,,,,,,,0,,,67,0
259920,note_on,0,0,1,,,,,,,,,,,,,,,0,,,68,39
260160,note_on,240,0,1,,,,,,,,,,,,,,,0,,,68,0
260160,note_on,0,0,1,,,,,,,,,,,,,,,0,,,63,0
260160,note_on,0,0,1,,,,,,,,,,,,,,,0,,,70,42
260400,note_on,240,0,1,,,,,,,,,,,,,,,0,,,70,0
260400,note_on,0,0,1,,,,,,,,,,,,,,,0,,,72,45
260640,note_on,960,0,2,,,,,,,,,,,,,,,0,,,51,32
260640,note_on,0,0,2,,,,,,,,,,,,,,,0,,,53,32
260640,note_on,0,0,2,,,,,,,,,,,,,,,0,,,56,32
260640,note_on,0,0,2,,,,,,,,,,,,,,,0,,,61,36
260640,set_tempo,720,1,0,,,,,,,,,,,,430108,,,,,,,
260640,note_on,0,0,1,,,,,,,,,,,,,,,0,,,68,43
260640,note_on,0,0,1,,,,,,,,,,,,,,,0,,,73,48
260640,note_on,0,0,1,,,,,,,,,,,,,,,0,,,65,43
260640,note_on,240,0,1,,,,,,,,,,,,,,,0,,,72,0
260867,control_change,227,0,2,,,,,,,,,,,,,,,0,64,127,,
261600,note_on,0,0,1,,,,,,,,,,,,,,,0,,,73,49
261600,note_on,0,0,1,,,,,,,,,,,,,,,0,,,68,44
261600,note_on,0,0,1,,,,,,,,,,,,,,,0,,,65,44
261600,note_on,0,0,1,,,,,,,,,,,,,,,0,,,65,0
261600,note_on,0,0,1,,,,,,,,,,,,,,,0,,,68,0
261600,note_on,960,0,1,,,,,,,,,,,,,,,0,,,73,0
261600,note_on,0,0,2,,,,,,,,,,,,,,,0,,,56,32
261600,note_on,0,0,2,,,,,,,,,,,,,,,0,,,53,32
261600,control_change,0,0,2,,,,,,,,,,,,,,,0,64,0,,
261600,note_on,0,0,2,,,,,,,,,,,,,,,0,,,61,36
261600,note_on,733,0,2,,,,,,,,,,,,,,,0,,,61,0
261600,note_on,0,0,2,,,,,,,,,,,,,,,0,,,51,0
261600,note_on,0,0,2,,,,,,,,,,,,,,,0,,,53,0
261600,note_on,0,0,2,,,,,,,,,,,,,,,0,,,56,0
261600,note_on,0,0,2,,,,,,,,,,,,,,,0,,,51,32
262080,note_on,0,0,2,,,,,,,,,,,,,,,0,,,51,0
262080,note_on,480,0,2,,,,,,,,,,,,,,,0,,,61,0
262080,note_on,0,0,2,,,,,,,,,,,,,,,0,,,61,40
262080,note_on,0,0,2,,,,,,,,,,,,,,,0,,,58,36
262080,note_on,0,0,2,,,,,,,,,,,,,,,0,,,55,36
262080,note_on,0,0,2,,,,,,,,,,,,,,,0,,,51,36
262080,set_tempo,1440,1,0,,,,,,,,,,,,463320,,,,,,,
262080,note_on,0,0,2,,,,,,,,,,,,,,,0,,,53,0
262080,note_on,0,0,2,,,,,,,,,,,,,,,0,,,56,0
262080,note_on,0,0,1,,,,,,,,,,,,,,,0,,,70,50
262080,note_on,0,0,1,,,,,,,,,,,,,,,0,,,65,0
262080,note_on,0,0,1,,,,,,,,,,,,,,,0,,,75,55
262080,note_on,0,0,1,,,,,,,,,,,,,,,0,,,67,45
262080,note_on,0,0,1,,,,,,,,,,,,,,,0,,,68,0
262080,note_on,480,0,1,,,,,,,,,,,,,,,0,,,73,0
262200,note_on,0,0,1,,,,,,,,,,,,,,,0,,,73,50
262200,note_on,120,0,1,,,,,,,,,,,,,,,0,,,75,0
262320,note_on,120,0,1,,,,,,,,,,,,,,,0,,,73,0
262320,note_on,0,0,1,,,,,,,,,,,,,,,0,,,72,50
262440,note_on,120,0,1,,,,,,,,,,,,,,,0,,,72,0
262440,note_on,0,0,1,,,,,,,,,,,,,,,0,,,73,50
262560,note_on,0,0,1,,,,,,,,,,,,,,,0,,,75,51
262560,note_on,120,0,1,,,,,,,,,,,,,,,0,,,73,0
262560,set_tempo,480,1,0,,,,,,,,,,,,430108,,,,,,,
263040,note_on,0,0,2,,,,,,,,,,,,,,,0,,,58,0
263040,note_on,0,0,2,,,,,,,,,,,,,,,0,,,61,0
263040,note_on,960,0,2,,,,,,,,,,,,,,,0,,,51,0
263040,note_on,0,0,2,,,,,,,,,,,,,,,0,,,51,31
263040,set_tempo,480,1,0,,,,,,,,,,,,491803,,,,,,,
263040,note_on,480,0,1,,,,,,,,,,,,,,,0,,,75,0
263040,note_on,0,0,1,,,,,,,,,,,,,,,0,,,70,0
263040,note_on,0,0,2,,,,,,,,,,,,,,,0,,,55,0
263040,note_on,0,0,1,,,,,,,,,,,,,,,0,,,67,44
263040,note_on,0,0,1,,,,,,,,,,,,,,,0,,,70,49
263040,note_on,0,0,1,,,,,,,,,,,,,,,0,,,67,0
263040,note_on,0,0,2,,,,,,,,,,,,,,,0,,,63,35
263520,set_tempo,480,1,0,,,,,,,,,,,,463320,,,,,,,
263520,note_on,480,0,2,,,,,,,,,,,,,,,0,,,51,0
263520,note_on,0,0,2,,,,,,,,,,,,,,,0,,,63,0
263520,note_on,0,0,2,,,,,,,,,,,,,,,0,,,63,37
263520,note_on,0,0,2,,,,,,,,,,,,,,,0,,,56,33
263520,note_on,0,0,1,,,,,,,,,,,,,,,0,,,70,45
263520,note_on,0,0,1,,,,,,,,,,,,,,,0,,,67,45
263520,note_on,0,0,1,,,,,,,,,,,,,,,0,,,73,50
263520,note_on,480,0,1,,,,,,,,,,,,,,,0,,,70,0
263520,note_on,0,0,1,,,,,,,,,,,,,,,0,,,67,0
264960,note_on,0,0,1,,,,,,,,,,,,,,,0,,,67,0
264960,note_on,0,0,1,,,,,,,,,,,,,,,0,,,70,0
264960,note_on,1440,0,1,,,,,,,,,,,,,,,0,,,73,0
264960,note_on,0,0,1,,,,,,,,,,,,,,,0,,,72,45
264960,note_on,0,0,1,,,,,,,,,,,,,,,0,,,68,40
265440,note_on,0,0,2,,,,,,,,,,,,,,,0,,,63,0
265440,note_on,480,0,1,,,,,,,,,,,,,,,0,,,72,0
265440,note_on,0,0,1,,,,,,,,,,,,,,,0,,,68,0
265440,note_on,1920,0,2,,,,,,,,,,,,,,,0,,,56,0
265920,note_on,0,0,2,,,,,,,,,,,,,,,0,,,56,57
265920,control_change,480,0,2,,,,,,,,,,,,,,,0,64,127,,
265920,note_on,0,0,2,,,,,,,,,,,,,,,0,,,60,57
265920,note_on,0,0,2,,,,,,,,,,,,,,,0,,,65,64
265920,note_on,0,0,1,,,,,,,,,,,,,,,0,,,77,80
265920,note_on,0,0,1,,,,,,,,,,,,,,,0,,,72,72
265920,set_tempo,2400,1,0,,,,,,,,,,,,493827,,,,,,,
265920,note_on,480,0,1,,,,,,,,,,,,,,,0,,,68,72
266400,note_on,0,0,2,,,,,,,,,,,,,,,0,,,65,64
266400,note_on,0,0,2,,,,,,,,,,,,,,,0,,,60,57
266400,note_on,0,0,2,,,,,,,,,,,,,,,0,,,56,57
266400,note_on,0,0,2,,,,,,,,,,,,,,,0,,,56,0
266400,note_on,0,0,2,,,,,,,,,,,,,,,0,,,60,0
266400,note_on,480,0,2,,,,,,,,,,,,,,,0,,,65,0
266400,note_on,480,0,1,,,,,,,,,,,,,,,0,,,77,0
266400,note_on,0,0,1,,,,,,,,,,,,,,,0,,,72,0
266400,note_on,0,0,1,,,,,,,,,,,,,,,0,,,68,0
266400,note_on,0,0,1,,,,,,,,,,,,,,,0,,,68,72
266400,note_on,0,0,1,,,,,,,,,,,,,,,0,,,72,72
266400,note_on,0,0,1,,,,,,,,,,,,,,,0,,,77,80
266400,set_tempo,480,1,0,,,,,,,,,,,,454545,,,,,,,
267360,note_on,0,0,2,,,,,,,,,,,,,,,0,,,65,64
267360,control_change,0,0,2,,,,,,,,,,,,,,,0,64,0,,
267360,note_on,0,0,2,,,,,,,,,,,,,,,0,,,60,57
267360,note_on,0,0,1,,,,,,,,,,,,,,,0,,,72,72
267360,note_on,0,0,2,,,,,,,,,,,,,,,0,,,56,0
267360,note_on,0,0,2,,,,,,,,,,,,,,,0,,,60,0
267360,note_on,960,0,2,,,,,,,,,,,,,,,0,,,65,0
267360,note_on,0,0,1,,,,,,,,,,,,,,,0,,,68,72
267360,note_on,960,0,1,,,,,,,,,,,,,,,0,,,77,0
267360,note_on,0,0,1,,,,,,,,,,,,,,,0,,,72,0
267360,note_on,0,0,1,,,,,,,,,,,,,,,0,,,68,0
267360,note_on,0,0,1,,,,,,,,,,,,,,,0,,,77,80
267360,note_on,0,0,2,,,,,,,,,,,,,,,0,,,56,57
267360,set_tempo,960,1,0,,,,,,,,,,,,533333,,,,,,,
267840,note_on,480,0,2,,,,,,,,,,,,,,,0,,,65,0
267840,note_on,0,0,2,,,,,,,,,,,,,,,0,,,60,0
267840,note_on,0,0,2,,,,,,,,,,,,,,,0,,,56,0
267840,note_on,0,0,2,,,,,,,,,,,,,,,0,,,56,61
267840,note_on,0,0,2,,,,,,,,,,,,,,,0,,,60,68
267840,set_tempo,480,1,0,,,,,,,,,,,,454545,,,,,,,
267840,note_on,480,0,1,,,,,,,,,,,,,,,0,,,77,0
267840,note_on,0,0,1,,,,,,,,,,,,,,,0,,,72,0
267840,note_on,0,0,1,,,,,,,,,,,,,,,0,,,68,0
267840,note_on,0,0,1,,,,,,,,,,,,,,,0,,,80,86
267840,note_on,0,0,1,,,,,,,,,,,,,,,0,,,68,77
267840,note_on,0,0,1,,,,,,,,,,,,,,,0,,,72,77
268560,note_on,720,0,1,,,,,,,,,,,,,,,0,,,80,0
268560,note_on,0,0,1,,,,,,,,,,,,,,,0,,,67,72
268560,note_on,0,0,1,,,,,,,,,,,,,,,0,,,79,80
268800,note_on,0,0,1,,,,,,,,,,,,,,,0,,,72,67
268800,set_tempo,960,1,0,,,,,,,,,,,,500000,,,,,,,
268800,note_on,0,0,1,,,,,,,,,,,,,,,0,,,77,75
268800,note_on,0,0,1,,,,,,,,,,,,,,,0,,,67,0
268800,note_on,0,0,1,,,,,,,,,,,,,,,0,,,72,0
268800,note_on,0,0,1,,,,,,,,,,,,,,,0,,,68,0
268800,note_on,0,0,1,,,,,,,,,,,,,,,0,,,68,67
268800,note_on,0,0,1,,,,,,,,,,,,,,,0,,,65,67
268800,note_on,960,0,2,,,,,,,,,,,,,,,0,,,60,0
268800,note_on,0,0,2,,,,,,,,,,,,,,,0,,,56,0
268800,note_on,0,0,2,,,,,,,,,,,,,,,0,,,56,54
268800,note_on,0,0,2,,,,,,,,,,,,,,,0,,,60,60
268800,note_on,240,0,1,,,,,,,,,,,,,,,0,,,79,0
269280,note_on,0,0,1,,,,,,,,,,,,,,,0,,,73,72
269280,note_on,0,0,1,,,,,,,,,,,,,,,0,,,77,0
269280,note_on,0,0,1,,,,,,,,,,,,,,,0,,,72,0
269280,note_on,0,0,1,,,,,,,,,,,,,,,0,,,68,0
269280,note_on,0,0,1,,,,,,,,,,,,,,,0,,,77,80
269280,note_on,0,0,1,,,,,,,,,,,,,,,0,,,70,72
269280,note_on,0,0,1,,,,,,,,,,,,,,,0,,,67,72
269280,note_on,480,0,2,,,,,,,,,,,,,,,0,,,60,0
269280,note_on,0,0,2,,,,,,,,,,,,,,,0,,,56,0
269280,note_on,0,0,2,,,,,,,,,,,,,,,0,,,65,64
269280,note_on,0,0,2,,,,,,,,,,,,,,,0,,,61,57
269280,note_on,0,0,2,,,,,,,,,,,,,,,0,,,58,57
269280,note_on,0,0,2,,,,,,,,,,,,,,,0,,,55,57
269280,note_on,480,0,1,,,,,,,,,,,,,,,0,,,65,0
269280,set_tempo,480,1,0,,,,,,,,,,,,454545,,,,,,,
271680,note_on,2400,0,1,,,,,,,,,,,,,,,0,,,77,0
271680,note_on,0,0,1,,,,,,,,,,,,,,,0,,,76,54
271680,note_on,2400,0,2,,,,,,,,,,,,,,,0,,,65,0
271680,note_on,0,0,2,,,,,,,,,,,,,,,0,,,64,44
271680,set_tempo,2400,1,0,,,,,,,,,,,,535714,,,,,,,
272160,set_tempo,480,1,0,,,,,,,,,,,,508475,,,,,,,
272160,note_on,0,0,2,,,,,,,,,,,,,,,0,,,58,0
272160,note_on,0,0,2,,,,,,,,,,,,,,,0,,,55,32
272160,note_on,0,0,2,,,,,,,,,,,,,,,0,,,55,0
272160,note_on,480,0,1,,,,,,,,,,,,,,,0,,,76,0
272160,note_on,0,0,1,,,,,,,,,,,,,,,0,,,67,0
272160,note_on,0,0,1,,,,,,,,,,,,,,,0,,,70,0
272160,note_on,0,0,1,,,,,,,,,,,,,,,0,,,73,0
272160,note_on,0,0,1,,,,,,,,,,,,,,,0,,,70,42
272160,note_on,0,0,1,,,,,,,,,,,,,,,0,,,75,47
272160,note_on,0,0,2,,,,,,,,,,,,,,,0,,,63,36
272160,note_on,0,0,2,,,,,,,,,,,,,,,0,,,61,0
272160,note_on,480,0,2,,,,,,,,,,,,,,,0,,,64,0
273120,note_on,0,0,1,,,,,,,,,,,,,,,0,,,74,43
273120,note_on,960,0,1,,,,,,,,,,,,,,,0,,,75,0
273120,set_tempo,960,1,0,,,,,,,,,,,,576923,,,,,,,
273600,note_on,0,0,1,,,,,,,,,,,,,,,0,,,73,37
273600,note_on,480,0,1,,,,,,,,,,,,,,,0,,,74,0
273600,set_tempo,480,1,0,,,,,,,,,,,,500000,,,,,,,
274560,note_on,2400,0,2,,,,,,,,,,,,,,,0,,,55,0
274560,note_on,0,0,2,,,,,,,,,,,,,,,0,,,63,0
274560,note_on,0,0,2,,,,,,,,,,,,,,,0,,,56,36
274560,note_on,0,0,1,,,,,,,,,,,,,,,0,,,63,40
274560,note_on,0,0,1,,,,,,,,,,,,,,,0,,,72,45
274560,set_tempo,960,1,0,,,,,,,,,,,,579710,,,,,,,
274560,note_on,960,0,1,,,,,,,,,,,,,,,0,,,73,0
274560,note_on,0,0,1,,,,,,,,,,,,,,,0,,,70,0
274560,note_on,0,0,1,,,,,,,,,,,,,,,0,,,68,40
275040,note_on,0,0,1,,,,,,,,,,,,,,,0,,,63,0
275040,note_on,0,0,1,,,,,,,,,,,,,,,0,,,65,42
275040,note_on,0,0,1,,,,,,,,,,,,,,,0,,,68,42
275040,note_on,0,0,1,,,,,,,,,,,,,,,0,,,72,47
275040,note_on,480,0,1,,,,,,,,,,,,,,,0,,,72,0
275040,note_on,0,0,1,,,,,,,,,,,,,,,0,,,68,0
275040,note_on,480,0,2,,,,,,,,,,,,,,,0,,,56,0
275040,note_on,0,0,2,,,,,,,,,,,,,,,0,,,61,37
275040,set_tempo,480,1,0,,,,,,,,,,,,465188,,,,,,,
275360,control_change,320,0,2,,,,,,,,,,,,,,,0,64,127,,
276480,note_on,0,0,1,,,,,,,,,,,,,,,0,,,70,44
276480,note_on,1440,0,1,,,,,,,,,,,,,,,0,,,72,0
276480,control_change,1120,0,2,,,,,,,,,,,,,,,0,64,0,,
276960,note_on,480,0,1,,,,,,,,,,,,,,,0,,,70,0
276960,note_on,0,0,1,,,,,,,,,,,,,,,0,,,68,0
276960,note_on,0,0,1,,,,,,,,,,,,,,,0,,,65,0
276960,note_on,480,0,2,,,,,,,,,,,,,,,0,,,61,0
277440,note_on,480,0,1,,,,,,,,,,,,,,,0,,,77,50
277440,note_on,0,0,1,,,,,,,,,,,,,,,0,,,70,45
277440,note_on,0,0,1,,,,,,,,,,,,,,,0,,,67,45
277440,note_on,0,0,2,,,,,,,,,,,,,,,0,,,61,36
277440,set_tempo,2400,1,0,,,,,,,,,,,,548697,,,,,,,
277440,note_on,480,0,2,,,,,,,,,,,,,,,0,,,65,40
277920,note_on,480,0,1,,,,,,,,,,,,,,,0,,,67,0
277920,note_on,0,0,1,,,,,,,,,,,,,,,0,,,77,0
277920,note_on,0,0,1,,,,,,,,,,,,,,,0,,,68,46
277920,note_on,0,0,1,,,,,,,,,,,,,,,0,,,77,52
277920,note_on,0,0,2,,,,,,,,,,,,,,,0,,,60,36
277920,note_on,0,0,1,,,,,,,,,,,,,,,0,,,70,0
277920,note_on,0,0,1,,,,,,,,,,,,,,,0,,,72,46
277920,note_on,480,0,2,,,,,,,,,,,,,,,0,,,61,0
277920,note_on,0,0,2,,,,,,,,,,,,,,,0,,,65,0
277920,note_on,0,0,2,,,,,,,,,,,,,,,0,,,65,40
277920,set_tempo,480,1,0,,,,,,,,,,,,465188,,,,,,,
278240,control_change,320,0,2,,,,,,,,,,,,,,,0,64,127,,
279360,note_on,1120,0,2,,,,,,,,,,,,,,,0,,,65,0
279360,note_on,0,0,1,,,,,,,,,,,,,,,0,,,75,48
279360,note_on,1440,0,1,,,,,,,,,,,,,,,0,,,77,0
279360,note_on,0,0,2,,,,,,,,,,,,,,,0,,,63,38
279460,control_change,100,0,2,,,,,,,,,,,,,,,0,64,0,,
279840,note_on,0,0,1,,,,,,,,,,,,,,,0,,,68,0
279840,note_on,0,0,2,,,,,,,,,,,,,,,0,,,60,0
279840,note_on,380,0,2,,,,,,,,,,,,,,,0,,,63,0
279840,note_on,480,0,1,,,,,,,,,,,,,,,0,,,75,0
279840,note_on,0,0,1,,,,,,,,,,,,,,,0,,,72,0
280080,note_on,0,0,1,,,,,,,,,,,,,,,0,,,63,43
280080,note_on,240,0,1,,,,,,,,,,,,,,,0,,,60,43
280080,note_on,0,0,2,,,,,,,,,,,,,,,0,,,56,37
280080,control_change,240,0,2,,,,,,,,,,,,,,,0,64,127,,
280080,set_tempo,2160,1,0,,,,,,,,,,,,401687,,,,,,,
280320,note_on,240,0,2,,,,,,,,,,,,,,,0,,,56,0
280320,note_on,240,0,1,,,,,,,,,,,,,,,0,,,63,0
280320,note_on,0,0,1,,,,,,,,,,,,,,,0,,,68,50
280320,note_on,0,0,2,,,,,,,,,,,,,,,0,,,51,39
280560,note_on,240,0,2,,,,,,,,,,,,,,,0,,,51,0
280560,note_on,0,0,2,,,,,,,,,,,,,,,0,,,48,40
280560,note_on,0,0,1,,,,,,,,,,,,,,,0,,,72,52
280560,note_on,240,0,1,,,,,,,,,,,,,,,0,,,68,0
280688,control_change,128,0,2,,,,,,,,,,,,,,,0,64,0,,
280800,note_on,0,0,1,,,,,,,,,,,,,,,0,,,67,48
280800,note_on,0,0,2,,,,,,,,,,,,,,,0,,,55,42
280800,note_on,0,0,2,,,,,,,,,,,,,,,0,,,51,37
280800,note_on,0,0,2,,,,,,,,,,,,,,,0,,,46,37
280800,note_on,0,0,1,,,,,,,,,,,,,,,0,,,63,48
280800,note_on,112,0,2,,,,,,,,,,,,,,,0,,,48,0
280800,note_on,240,0,1,,,,,,,,,,,,,,,0,,,72,0
280800,note_on,0,0,1,,,,,,,,,,,,,,,0,,,60,0
280800,note_on,0,0,1,,,,,,,,,,,,,,,0,,,61,48
280800,note_on,0,0,1,,,,,,,,,,,,,,,0,,,73,54
280800,set_tempo,720,1,0,,,,,,,,,,,,446097,,,,,,,
281760,note_on,0,0,2,,,,,,,,,,,,,,,0,,,51,40
281760,note_on,960,0,2,,,,,,,,,,,,,,,0,,,55,0
281760,note_on,0,0,2,,,,,,,,,,,,,,,0,,,51,0
281760,note_on,0,0,2,,,,,,,,,,,,,,,0,,,46,0
281760,note_on,0,0,2,,,,,,,,,,,,,,,0,,,44,40
281760,note_on,0,0,2,,,,,,,,,,,,,,,0,,,56,45
281760,note_on,0,0,1,,,,,,,,,,,,,,,0,,,63,0
281760,set_tempo,960,1,0,,,,,,,,,,,,524017,,,,,,,
281760,note_on,960,0,1,,,,,,,,,,,,,,,0,,,73,0
281760,note_on,0,0,1,,,,,,,,,,,,,,,0,,,61,0
281760,note_on,0,0,1,,,,,,,,,,,,,,,0,,,67,0
281760,note_on,0,0,1,,,,,,,,,,,,,,,0,,,60,50
281760,note_on,0,0,1,,,,,,,,,,,,,,,0,,,63,50
281760,note_on,0,0,1,,,,,,,,,,,,,,,0,,,68,50
281760,note_on,0,0,1,,,,,,,,,,,,,,,0,,,72,56
282240,note_on,0,0,2,,,,,,,,,,,,,,,0,,,43,41
282240,note_on,0,0,2,,,,,,,,,,,,,,,0,,,55,46
282240,note_on,0,0,2,,,,,,,,,,,,,,,0,,,51,41
282240,note_on,0,0,2,,,,,,,,,,,,,,,0,,,44,0
282240,note_on,0,0,2,,,,,,,,,,,,,,,0,,,51,0
282240,note_on,480,0,2,,,,,,,,,,,,,,,0,,,56,0
282240,note_on,0,0,1,,,,,,,,,,,,,,,0,,,70,57
282240,note_on,0,0,1,,,,,,,,,,,,,,,0,,,63,51
282240,note_on,0,0,1,,,,,,,,,,,,,,,0,,,58,51
282240,note_on,0,0,1,,,,,,,,,,,,,,,0,,,68,0
282240,note_on,0,0,1,,,,,,,,,,,,,,,0,,,63,0
282240,note_on,0,0,1,,,,,,,,,,,,,,,0,,,60,0
282240,note_on,480,0,1,,,,,,,,,,,,,,,0,,,72,0
282240,set_tempo,480,1,0,,,,,,,,,,,,434468,,,,,,,
283200,note_on,960,0,1,,,,,,,,,,,,,,,0,,,70,0
283200,note_on,0,0,1,,,,,,,,,,,,,,,0,,,63,0
283200,note_on,0,0,1,,,,,,,,,,,,,,,0,,,58,0
283200,set_tempo,960,1,0,,,,,,,,,,,,568720,,,,,,,
283200,note_on,960,0,2,,,,,,,,,,,,,,,0,,,55,0
283200,note_on,0,0,2,,,,,,,,,,,,,,,0,,,51,0
283200,note_on,0,0,2,,,,,,,,,,,,,,,0,,,43,0
283200,note_on,0,0,2,,,,,,,,,,,,,,,0,,,41,45
283200,note_on,0,0,2,,,,,,,,,,,,,,,0,,,46,45
283200,note_on,0,0,2,,,,,,,,,,,,,,,0,,,53,50
283200,note_on,0,0,1,,,,,,,,,,,,,,,0,,,62,55
283200,note_on,0,0,1,,,,,,,,,,,,,,,0,,,70,55
283200,note_on,0,0,1,,,,,,,,,,,,,,,0,,,68,55
283200,note_on,0,0,1,,,,,,,,,,,,,,,0,,,74,62
283680,note_on,0,0,1,,,,,,,,,,,,,,,0,,,70,0
283680,note_on,0,0,1,,,,,,,,,,,,,,,0,,,74,69
283680,note_on,0,0,1,,,,,,,,,,,,,,,0,,,68,62
283680,note_on,0,0,1,,,,,,,,,,,,,,,0,,,70,62
283680,note_on,480,0,2,,,,,,,,,,,,,,,0,,,53,0
283680,note_on,0,0,2,,,,,,,,,,,,,,,0,,,46,0
283680,note_on,0,0,1,,,,,,,,,,,,,,,0,,,62,62
283680,note_on,0,0,1,,,,,,,,,,,,,,,0,,,62,0
283680,note_on,0,0,1,,,,,,,,,,,,,,,0,,,68,0
283680,note_on,0,0,2,,,,,,,,,,,,,,,0,,,39,48
283680,note_on,0,0,2,,,,,,,,,,,,,,,0,,,46,48
283680,note_on,0,0,2,,,,,,,,,,,,,,,0,,,51,54
283680,note_on,0,0,2,,,,,,,,,,,,,,,0,,,41,0
283680,note_on,480,0,1,,,,,,,,,,,,,,,0,,,74,0
283680,set_tempo,480,1,0,,,,,,,,,,,,506885,,,,,,,
283893,control_change,213,0,2,,,,,,,,,,,,,,,0,64,127,,
285120,note_on,0,0,1,,,,,,,,,,,,,,,0,,,75,45
285120,control_change,1227,0,2,,,,,,,,,,,,,,,0,64,0,,
285120,note_on,1440,0,1,,,,,,,,,,,,,,,0,,,74,0
285120,note_on,0,0,1,,,,,,,,,,,,,,,0,,,68,0
285120,note_on,0,0,1,,,,,,,,,,,,,,,0,,,62,0
285120,note_on,0,0,1,,,,,,,,,,,,,,,0,,,67,40
285120,note_on,0,0,1,,,,,,,,,,,,,,,0,,,63,40
285120,set_tempo,1440,1,0,,,,,,,,,,,,465188,,,,,,,
285600,note_on,0,0,1,,,,,,,,,,,,,,,0,,,67,0
285600,note_on,0,0,2,,,,,,,,,,,,,,,0,,,39,0
285600,note_on,0,0,2,,,,,,,,,,,,,,,0,,,46,0
285600,note_on,480,0,2,,,,,,,,,,,,,,,0,,,51,0
285600,note_on,0,0,1,,,,,,,,,,,,,,,0,,,63,0
285600,note_on,0,0,1,,,,,,,,,,,,,,,0,,,70,0
285600,note_on,480,0,1,,,,,,,,,,,,,,,0,,,75,0
286080,note_on,480,0,2,,,,,,,,,,,,,,,0,,,32,50
286080,note_on,480,0,1,,,,,,,,,,,,,,,0,,,63,65
286080,note_on,0,0,1,,,,,,,,,,,,,,,0,,,68,65
286080,set_tempo,960,1,0,,,,,,,,,,,,582524,,,,,,,
286080,note_on,0,0,1,,,,,,,,,,,,,,,0,,,72,73
286080,note_on,0,0,2,,,,,,,,,,,,,,,0,,,44,56
286560,note_on,0,0,2,,,,,,,,,,,,,,,0,,,49,64
286560,note_on,0,0,2,,,,,,,,,,,,,,,0,,,37,57
286560,note_on,0,0,2,,,,,,,,,,,,,,,0,,,32,0
286560,note_on,480,0,2,,,,,,,,,,,,,,,0,,,44,0
286560,note_on,0,0,1,,,,,,,,,,,,,,,0,,,68,0
286560,set_tempo,480,1,0,,,,,,,,,,,,451128,,,,,,,
286560,note_on,0,0,1,,,,,,,,,,,,,,,0,,,72,81
286560,note_on,0,0,1,,,,,,,,,,,,,,,0,,,68,72
286560,note_on,0,0,1,,,,,,,,,,,,,,,0,,,64,72
286560,note_on,0,0,1,,,,,,,,,,,,,,,0,,,63,0
286560,note_on,480,0,1,,,,,,,,,,,,,,,0,,,72,0
286686,control_change,126,0,2,,,,,,,,,,,,,,,0,64,127,,
287520,set_tempo,960,1,0,,,,,,,,,,,,461538,,,,,,,
287760,note_on,1200,0,1,,,,,,,,,,,,,,,0,,,72,0
287760,note_on,0,0,1,,,,,,,,,,,,,,,0,,,71,53
288000,set_tempo,480,1,0,,,,,,,,,,,,461538,,,,,,,
288000,control_change,1314,0,2,,,,,,,,,,,,,,,0,64,0,,
288000,note_on,240,0,1,,,,,,,,,,,,,,,0,,,71,0
288000,note_on,0,0,1,,,,,,,,,,,,,,,0,,,70,50
288480,note_on,0,0,2,,,,,,,,,,,,,,,0,,,37,0
288480,note_on,480,0,2,,,,,,,,,,,,,,,0,,,49,0
288480,note_on,480,0,1,,,,,,,,,,,,,,,0,,,70,0
288480,note_on,0,0,1,,,,,,,,,,,,,,,0,,,64,0
288480,note_on,0,0,1,,,,,,,,,,,,,,,0,,,68,0
288960,note_on,0,0,1,,,,,,,,,,,,,,,0,,,72,73
288960,note_on,0,0,1,,,,,,,,,,,,,,,0,,,68,65
288960,note_on,480,0,1,,,,,,,,,,,,,,,0,,,63,65
288960,set_tempo,960,1,0,,,,,,,,,,,,526316,,,,,,,
288960,note_on,0,0,2,,,,,,,,,,,,,,,0,,,44,56
288960,note_on,480,0,2,,,,,,,,,,,,,,,0,,,32,50
289440,note_on,0,0,1,,,,,,,,,,,,,,,0,,,68,0
289440,note_on,0,0,2,,,,,,,,,,,,,,,0,,,49,64
289440,note_on,0,0,2,,,,,,,,,,,,,,,0,,,37,57
289440,note_on,0,0,2,,,,,,,,,,,,,,,0,,,32,0
289440,note_on,480,0,2,,,,,,,,,,,,,,,0,,,44,0
289440,note_on,0,0,1,,,,,,,,,,,,,,,0,,,64,72
289440,note_on,0,0,1,,,,,,,,,,,,,,,0,,,63,0
289440,note_on,0,0,1,,,,,,,,,,,,,,,0,,,72,81
289440,set_tempo,480,1,0,,,,,,,,,,,,451128,,,,,,,
289440,note_on,480,0,1,,,,,,,,,,,,,,,0,,,72,0
289440,note_on,0,0,1,,,,,,,,,,,,,,,0,,,68,72
289543,control_change,103,0,2,,,,,,,,,,,,,,,0,64,127,,
290400,set_tempo,960,1,0,,,,,,,,,,,,465116,,,,,,,
290640,note_on,0,0,1,,,,,,,,,,,,,,,0,,,71,54
290640,note_on,1200,0,1,,,,,,,,,,,,,,,0,,,72,0
290880,set_tempo,480,1,0,,,,,,,,,,,,442804,,,,,,,
290880,note_on,0,0,1,,,,,,,,,,,,,,,0,,,70,51
290880,note_on,240,0,1,,,,,,,,,,,,,,,0,,,71,0
290880,control_change,1337,0,2,,,,,,,,,,,,,,,0,64,0,,
291360,note_on,0,0,1,,,,,,,,,,,,,,,0,,,68,0
291360,note_on,480,0,1,,,,,,,,,,,,,,,0,,,70,0
291360,set_tempo,480,1,0,,,,,,,,,,,,439560,,,,,,,
291360,note_on,480,0,2,,,,,,,,,,,,,,,0,,,49,0
291360,note_on,0,0,2,,,,,,,,,,,,,,,0,,,37,0
291360,note_on,0,0,1,,,,,,,,,,,,,,,0,,,64,0
291840,note_on,0,0,2,,,,,,,,,,,,,,,0,,,38,62
291840,control_change,480,0,2,,,,,,,,,,,,,,,0,64,127,,
291840,note_on,0,0,1,,,,,,,,,,,,,,,0,,,71,89
291840,set_tempo,480,1,0,,,,,,,,,,,,461538,,,,,,,
291840,note_on,0,0,1,,,,,,,,,,,,,,,0,,,68,80
291840,note_on,480,0,1,,,,,,,,,,,,,,,0,,,64,80
291840,note_on,0,0,2,,,,,,,,,,,,,,,0,,,50,69
292320,key_signature,480,1,0,,,,,,,,,,,E,,,,,,,,
292800,note_on,0,0,1,,,,,,,,,,,,,,,0,,,68,81
292800,note_on,0,0,1,,,,,,,,,,,,,,,0,,,71,90
292800,note_on,0,0,1,,,,,,,,,,,,,,,0,,,68,0
292800,note_on,960,0,1,,,,,,,,,,,,,,,0,,,71,0
292800,note_on,0,0,1,,,,,,,,,,,,,,,0,,,64,0
292800,note_on,0,0,2,,,,,,,,,,,,,,,0,,,38,63
292800,note_on,960,0,2,,,,,,,,,,,,,,,0,,,50,0
292800,note_on,0,0,2,,,,,,,,,,,,,,,0,,,38,0
292800,note_on,0,0,1,,,,,,,,,,,,,,,0,,,64,81
292800,note_on,0,0,2,,,,,,,,,,,,,,,0,,,50,71
292800,set_tempo,480,1,0,,,,,,,,,,,,449438,,,,,,,
293280,note_on,480,0,1,,,,,,,,,,,,,,,0,,,71,0
293280,note_on,0,0,1,,,,,,,,,,,,,,,0,,,68,0
293280,note_on,0,0,1,,,,,,,,,,,,,,,0,,,64,0
293280,note_on,0,0,1,,,,,,,,,,,,,,,0,,,64,79
293280,note_on,0,0,1,,,,,,,,,,,,,,,0,,,68,79
293280,note_on,0,0,2,,,,,,,,,,,,,,,0,,,38,0
293280,note_on,480,0,2,,,,,,,,,,,,,,,0,,,50,0
293280,note_on,0,0,2,,,,,,,,,,,,,,,0,,,50,70
293280,note_on,0,0,2,,,,,,,,,,,,,,,0,,,38,63
293280,note_on,0,0,1,,,,,,,,,,,,,,,0,,,71,88
293760,set_tempo,960,1,0,,,,,,,,,,,,439560,,,,,,,
293760,note_on,0,0,2,,,,,,,,,,,,,,,0,,,50,68
293760,note_on,0,0,2,,,,,,,,,,,,,,,0,,,38,0
293760,note_on,480,0,2,,,,,,,,,,,,,,,0,,,50,0
293760,control_change,0,0,2,,,,,,,,,,,,,,,0,64,0,,
293760,note_on,0,0,1,,,,,,,,,,,,,,,0,,,68,0
293760,note_on,480,0,1,,,,,,,,,,,,,,,0,,,71,0
293760,note_on,0,0,1,,,,,,,,,,,,,,,0,,,71,85
293760,note_on,0,0,2,,,,,,,,,,,,,,,0,,,38,61
293760,note_on,0,0,1,,,,,,,,,,,,,,,0,,,64,76
293760,note_on,0,0,1,,,,,,,,,,,,,,,0,,,68,76
293760,note_on,0,0,1,,,,,,,,,,,,,,,0,,,64,0
294240,note_on,480,0,2,,,,,,,,,,,,,,,0,,,50,0
294240,note_on,0,0,2,,,,,,,,,,,,,,,0,,,38,0
294240,note_on,0,0,2,,,,,,,,,,,,,,,0,,,37,67
294240,note_on,0,0,1,,,,,,,,,,,,,,,0,,,73,93
294240,set_tempo,480,1,0,,,,,,,,,,,,451128,,,,,,,
294240,note_on,0,0,1,,,,,,,,,,,,,,,0,,,69,83
294240,note_on,0,0,1,,,,,,,,,,,,,,,0,,,64,83
294240,note_on,480,0,1,,,,,,,,,,,,,,,0,,,71,0
294240,note_on,0,0,1,,,,,,,,,,,,,,,0,,,68,0
294240,note_on,0,0,1,,,,,,,,,,,,,,,0,,,64,0
294240,note_on,0,0,2,,,,,,,,,,,,,,,0,,,49,75
294720,note_on,480,0,2,,,,,,,,,,,,,,,0,,,49,0
294720,set_tempo,480,1,0,,,,,,,,,,,,456274,,,,,,,
294720,note_on,0,0,1,,,,,,,,,,,,,,,0,,,74,98
294720,note_on,0,0,1,,,,,,,,,,,,,,,0,,,71,88
294720,note_on,0,0,1,,,,,,,,,,,,,,,0,,,64,88
294720,note_on,0,0,1,,,,,,,,,,,,,,,0,,,69,0
294720,note_on,480,0,1,,,,,,,,,,,,,,,0,,,73,0
294720,note_on,0,0,2,,,,,,,,,,,,,,,0,,,47,78
294720,note_on,0,0,2,,,,,,,,,,,,,,,0,,,35,70
294720,note_on,0,0,2,,,,,,,,,,,,,,,0,,,37,0
294720,note_on,0,0,1,,,,,,,,,,,,,,,0,,,64,0
295200,note_on,0,0,1,,,,,,,,,,,,,,,0,,,71,0
295200,note_on,0,0,1,,,,,,,,,,,,,,,0,,,76,102
295200,note_on,0,0,1,,,,,,,,,,,,,,,0,,,73,91
295200,note_on,0,0,1,,,,,,,,,,,,,,,0,,,64,91
295200,note_on,0,0,1,,,,,,,,,,,,,,,0,,,64,0
295200,note_on,480,0,1,,,,,,,,,,,,,,,0,,,74,0
295200,set_tempo,480,1,0,,,,,,,,,,,,451128,,,,,,,
295200,note_on,480,0,2,,,,,,,,,,,,,,,0,,,47,0
295200,note_on,0,0,2,,,,,,,,,,,,,,,0,,,35,0
295200,note_on,0,0,2,,,,,,,,,,,,,,,0,,,33,72
295200,note_on,0,0,2,,,,,,,,,,,,,,,0,,,45,80
295680,note_on,0,0,1,,,,,,,,,,,,,,,0,,,73,0
295680,note_on,0,0,1,,,,,,,,,,,,,,,0,,,74,93
295680,note_on,0,0,1,,,,,,,,,,,,,,,0,,,71,83
295680,note_on,0,0,1,,,,,,,,,,,,,,,0,,,64,83
295680,note_on,0,0,1,,,,,,,,,,,,,,,0,,,64,0
295680,note_on,0,0,2,,,,,,,,,,,,,,,0,,,35,66
295680,note_on,480,0,1,,,,,,,,,,,,,,,0,,,76,0
295680,note_on,480,0,2,,,,,,,,,,,,,,,0,,,45,0
295680,note_on,0,0,2,,,,,,,,,,,,,,,0,,,33,0
295680,note_on,0,0,2,,,,,,,,,,,,,,,0,,,47,74
296160,note_on,480,0,2,,,,,,,,,,,,,,,0,,,35,0
296160,note_on,0,0,2,,,,,,,,,,,,,,,0,,,47,0
296160,note_on,0,0,2,,,,,,,,,,,,,,,0,,,37,57
296160,note_on,0,0,2,,,,,,,,,,,,,,,0,,,49,64
296160,note_on,0,0,1,,,,,,,,,,,,,,,0,,,64,72
296160,set_tempo,960,1,0,,,,,,,,,,,,510638,,,,,,,
296160,note_on,0,0,1,,,,,,,,,,,,,,,0,,,64,0
296160,note_on,0,0,1,,,,,,,,,,,,,,,0,,,71,0
296160,note_on,480,0,1,,,,,,,,,,,,,,,0,,,74,0
296160,note_on,0,0,1,,,,,,,,,,,,,,,0,,,73,80
296160,note_on,0,0,1,,,,,,,,,,,,,,,0,,,69,72
296640,note_on,0,0,2,,,,,,,,,,,,,,,0,,,39,39
296640,set_tempo,480,1,0,,,,,,,,,,,,444444,,,,,,,
296640,note_on,0,0,1,,,,,,,,,,,,,,,0,,,71,58
296640,note_on,0,0,2,,,,,,,,,,,,,,,0,,,37,0
296640,note_on,0,0,1,,,,,,,,,,,,,,,0,,,68,52
296640,note_on,0,0,1,,,,,,,,,,,,,,,0,,,64,0
296640,note_on,0,0,1,,,,,,,,,,,,,,,0,,,69,0
296640,note_on,480,0,1,,,,,,,,,,,,,,,0,,,73,0
296640,note_on,0,0,2,,,,,,,,,,,,,,,0,,,51,44
296640,note_on,0,0,1,,,,,,,,,,,,,,,0,,,63,52
296640,note_on,480,0,2,,,,,,,,,,,,,,,0,,,49,0
298080,note_on,1440,0,1,,,,,,,,,,,,,,,0,,,71,0
298080,note_on,0,0,1,,,,,,,,,,,,,,,0,,,68,0
298080,note_on,0,0,1,,,,,,,,,,,,,,,0,,,67,42
298080,note_on,0,0,1,,,,,,,,,,,,,,,0,,,70,47
298560,set_tempo,1920,1,0,,,,,,,,,,,,485830,,,,,,,
299040,note_on,0,0,2,,,,,,,,,,,,,,,0,,,59,60
299040,note_on,960,0,1,,,,,,,,,,,,,,,0,,,70,0
299040,note_on,0,0,2,,,,,,,,,,,,,,,0,,,56,54
299040,note_on,0,0,1,,,,,,,,,,,,,,,0,,,67,0
299040,note_on,0,0,2,,,,,,,,,,,,,,,0,,,50,54
299040,note_on,0,0,1,,,,,,,,,,,,,,,0,,,63,0
299040,note_on,0,0,2,,,,,,,,,,,,,,,0,,,39,0
299040,set_tempo,480,1,0,,,,,,,,,,,,461538,,,,,,,
299040,end_of_track,0,1,1,,,,,,,,,,,,,,,,,,,
299040,note_on,0,0,2,,,,,,,,,,,,,,,0,,,52,54
299040,note_on,2400,0,2,,,,,,,,,,,,,,,0,,,51,0
300000,note_on,0,0,2,,,,,,,,,,,,,,,0,,,52,0
300000,note_on,0,0,2,,,,,,,,,,,,,,,0,,,50,0
300000,note_on,0,0,2,,,,,,,,,,,,,,,0,,,56,0
300000,note_on,0,0,2,,,,,,,,,,,,,,,0,,,50,39
300000,note_on,0,0,2,,,,,,,,,,,,,,,0,,,52,39
300000,note_on,0,0,2,,,,,,,,,,,,,,,0,,,56,39
300000,note_on,0,0,2,,,,,,,,,,,,,,,0,,,59,44
300000,set_tempo,960,1,0,,,,,,,,,,,,449438,,,,,,,
300000,note_on,960,0,2,,,,,,,,,,,,,,,0,,,59,0
300480,note_on,0,0,2,,,,,,,,,,,,,,,0,,,59,44
300480,note_on,0,0,2,,,,,,,,,,,,,,,0,,,56,39
300480,note_on,0,0,2,,,,,,,,,,,,,,,0,,,52,0
300480,note_on,0,0,2,,,,,,,,,,,,,,,0,,,50,39
300480,note_on,0,0,2,,,,,,,,,,,,,,,0,,,56,0
300480,note_on,0,0,2,,,,,,,,,,,,,,,0,,,50,0
300480,note_on,480,0,2,,,,,,,,,,,,,,,0,,,59,0
300480,note_on,0,0,2,,,,,,,,,,,,,,,0,,,52,39
300960,note_on,0,0,2,,,,,,,,,,,,,,,0,,,56,36
300960,note_on,0,0,2,,,,,,,,,,,,,,,0,,,59,41
300960,note_on,0,0,2,,,,,,,,,,,,,,,0,,,52,36
300960,note_on,0,0,2,,,,,,,,,,,,,,,0,,,56,0
300960,note_on,0,0,2,,,,,,,,,,,,,,,0,,,52,0
300960,note_on,0,0,2,,,,,,,,,,,,,,,0,,,50,0
300960,note_on,0,0,2,,,,,,,,,,,,,,,0,,,50,36
300960,note_on,480,0,2,,,,,,,,,,,,,,,0,,,59,0
301440,set_tempo,1440,1,0,,,,,,,,,,,,459770,,,,,,,
301440,note_on,0,0,2,,,,,,,,,,,,,,,0,,,61,44
301440,note_on,0,0,2,,,,,,,,,,,,,,,0,,,57,39
301440,note_on,0,0,2,,,,,,,,,,,,,,,0,,,52,39
301440,note_on,0,0,2,,,,,,,,,,,,,,,0,,,49,39
301440,note_on,0,0,2,,,,,,,,,,,,,,,0,,,56,0
301440,note_on,0,0,2,,,,,,,,,,,,,,,0,,,52,0
301440,note_on,0,0,2,,,,,,,,,,,,,,,0,,,50,0
301440,note_on,480,0,2,,,,,,,,,,,,,,,0,,,59,0
301920,set_tempo,480,1,0,,,,,,,,,,,,487805,,,,,,,
301920,note_on,0,0,2,,,,,,,,,,,,,,,0,,,59,39
301920,note_on,0,0,2,,,,,,,,,,,,,,,0,,,49,0
301920,note_on,0,0,2,,,,,,,,,,,,,,,0,,,52,39
301920,note_on,0,0,2,,,,,,,,,,,,,,,0,,,47,39
301920,note_on,0,0,2,,,,,,,,,,,,,,,0,,,57,0
301920,note_on,0,0,2,,,,,,,,,,,,,,,0,,,52,0
301920,note_on,480,0,2,,,,,,,,,,,,,,,0,,,61,0
301920,note_on,0,0,2,,,,,,,,,,,,,,,0,,,62,44
302160,set_tempo,240,1,0,,,,,,,,,,,,750000,,,,,,,
302280,set_tempo,120,1,0,,,,,,,,,,,,566038,,,,,,,
302280,note_on,360,0,2,,,,,,,,,,,,,,,0,,,59,0
302280,note_on,0,0,2,,,,,,,,,,,,,,,0,,,47,0
302280,note_on,0,0,2,,,,,,,,,,,,,,,0,,,52,0
302280,note_on,0,0,2,,,,,,,,,,,,,,,0,,,62,0
302280,note_on,0,0,2,,,,,,,,,,,,,,,0,,,66,48
302400,note_on,0,0,2,,,,,,,,,,,,,,,0,,,52,37
302400,note_on,0,0,2,,,,,,,,,,,,,,,0,,,61,37
302400,note_on,0,0,2,,,,,,,,,,,,,,,0,,,64,42
302400,note_on,120,0,2,,,,,,,,,,,,,,,0,,,66,0
302400,set_tempo,120,1,0,,,,,,,,,,,,459770,,,,,,,
302400,note_on,0,0,2,,,,,,,,,,,,,,,0,,,45,37
302880,note_on,480,0,2,,,,,,,,,,,,,,,0,,,64,0
302880,note_on,0,0,2,,,,,,,,,,,,,,,0,,,62,40
302880,note_on,0,0,2,,,,,,,,,,,,,,,0,,,45,0
302880,note_on,0,0,2,,,,,,,,,,,,,,,0,,,61,0
302880,note_on,0,0,2,,,,,,,,,,,,,,,0,,,47,36
302880,note_on,0,0,2,,,,,,,,,,,,,,,0,,,52,36
302880,note_on,0,0,2,,,,,,,,,,,,,,,0,,,59,36
302880,note_on,0,0,2,,,,,,,,,,,,,,,0,,,52,0
303360,set_tempo,960,1,0,,,,,,,,,,,,524017,,,,,,,
303360,note_on,0,0,2,,,,,,,,,,,,,,,0,,,47,0
303360,note_on,0,0,2,,,,,,,,,,,,,,,0,,,61,36
303360,note_on,0,0,2,,,,,,,,,,,,,,,0,,,57,32
303360,note_on,0,0,2,,,,,,,,,,,,,,,0,,,52,32
303360,note_on,0,0,2,,,,,,,,,,,,,,,0,,,49,32
303360,note_on,0,0,2,,,,,,,,,,,,,,,0,,,59,0
303360,note_on,0,0,2,,,,,,,,,,,,,,,0,,,52,0
303360,note_on,480,0,2,,,,,,,,,,,,,,,0,,,62,0
303840,key_signature,480,1,0,,,,,,,,,,,Ab,,,,,,,,
303840,note_on,0,0,2,,,,,,,,,,,,,,,0,,,56,27
303840,set_tempo,0,1,0,,,,,,,,,,,,506329,,,,,,,
303840,note_on,0,0,2,,,,,,,,,,,,,,,0,,,51,27
303840,note_on,0,0,2,,,,,,,,,,,,,,,0,,,57,0
303840,note_on,0,0,2,,,,,,,,,,,,,,,0,,,52,0
303840,note_on,0,0,2,,,,,,,,,,,,,,,0,,,49,0
303840,note_on,480,0,2,,,,,,,,,,,,,,,0,,,61,0
303840,note_on,0,0,2,,,,,,,,,,,,,,,0,,,59,31
305280,set_tempo,1440,1,0,,,,,,,,,,,,566038,,,,,,,
305280,note_on,0,0,2,,,,,,,,,,,,,,,0,,,39,25
305280,note_on,1440,0,2,,,,,,,,,,,,,,,0,,,59,0
305280,note_on,0,0,2,,,,,,,,,,,,,,,0,,,56,0
305280,note_on,0,0,2,,,,,,,,,,,,,,,0,,,55,28
305280,note_on,0,0,2,,,,,,,,,,,,,,,0,,,58,28
306720,note_on,0,0,2,,,,,,,,,,,,,,,0,,,32,25
306720,note_on,1440,0,2,,,,,,,,,,,,,,,0,,,58,0
306720,note_on,0,0,2,,,,,,,,,,,,,,,0,,,51,0
306720,note_on,0,0,2,,,,,,,,,,,,,,,0,,,39,0
306720,note_on,0,0,2,,,,,,,,,,,,,,,0,,,55,0
306720,note_on,0,0,2,,,,,,,,,,,,,,,0,,,44,25
306720,note_on,0,0,2,,,,,,,,,,,,,,,0,,,56,28
309120,set_tempo,3840,1,0,,,,,,,,,,,,489796,,,,,,,
309120,marker,0,1,0,,,,,,,,,,,,,,,,,,,
309120,end_of_track,0,1,0,,,,,,,,,,,,,,,,,,,
309120,end_of_track,0,1,2,,,,,,,,,,,,,,,,,,,
309120,note_on,0,0,2,,,,,,,,,,,,,,,0,,,32,0
309120,note_on,2400,0,2,,,,,,,,,,,,,,,0,,,56,0
309120,note_on,0,0,2,,,,,,,,,,,,,,,0,,,44,0
