tick,type,numerator,denominator,clocks_per_click,notated_32nd_notes_per_beat,time,meta,track,key,tempo,program,channel,note,velocity
0,time_signature,2,4,24,8,0,1,0,,,,,,
0,key_signature,,,,,0,1,0,Fm,,,,,
0,set_tempo,,,,,0,1,0,,625000,,,,
0,set_tempo,,,,,0,1,0,,625000,,,,
0,track_name,,,,,0,1,2,,,,,,
0,program_change,,,,,0,0,2,,,0,1,,
0,note_on,,,,,0,0,2,,,,1,53,64
0,program_change,,,,,0,0,1,,,0,0,,
0,track_name,,,,,0,1,1,,,,,,
512,note_off,,,,,512,0,2,,,,1,53,0
512,note_on,,,,,0,0,2,,,,1,60,64
512,note_on,,,,,0,0,2,,,,1,65,64
1024,note_off,,,,,512,0,2,,,,1,60,0
1024,note_off,,,,,0,0,2,,,,1,65,0
1024,note_on,,,,,0,0,2,,,,1,53,64
1536,note_on,,,,,0,0,2,,,,1,65,64
1536,note_on,,,,,0,0,2,,,,1,60,64
1536,note_off,,,,,512,0,2,,,,1,53,0
2048,note_off,,,,,512,0,2,,,,1,60,0
2048,note_off,,,,,0,0,2,,,,1,65,0
2048,note_on,,,,,0,0,2,,,,1,53,64
2560,note_off,,,,,512,0,2,,,,1,53,0
2560,note_on,,,,,0,0,2,,,,1,60,64
2560,note_on,,,,,0,0,2,,,,1,65,64
3072,note_on,,,,,0,0,2,,,,1,53,64
3072,note_off,,,,,0,0,2,,,,1,65,0
3072,note_off,,,,,512,0,2,,,,1,60,0
3584,note_on,,,,,0,0,2,,,,1,65,64
3584,note_on,,,,,0,0,2,,,,1,60,64
3584,note_off,,,,,512,0,2,,,,1,53,0
4032,note_on,,,,,4032,0,1,,,,0,70,64
4096,note_on,,,,,0,0,2,,,,1,53,49
4096,note_off,,,,,0,0,2,,,,1,65,0
4096,note_off,,,,,64,0,1,,,,0,70,0
4096,note_on,,,,,0,0,1,,,,0,68,64
4096,note_off,,,,,512,0,2,,,,1,60,0
4608,note_off,,,,,512,0,2,,,,1,53,0
4608,note_on,,,,,0,0,1,,,,0,68,64
4608,note_on,,,,,0,0,2,,,,1,60,49
4608,note_on,,,,,0,0,2,,,,1,65,49
4608,note_off,,,,,512,0,1,,,,0,68,0
4864,note_on,,,,,0,0,1,,,,0,70,64
4864,note_off,,,,,256,0,1,,,,0,68,0
5120,note_off,,,,,0,0,2,,,,1,65,0
5120,note_on,,,,,0,0,1,,,,0,68,64
5120,note_off,,,,,256,0,1,,,,0,70,0
5120,note_on,,,,,0,0,2,,,,1,53,49
5120,note_off,,,,,512,0,2,,,,1,60,0
5632,note_off,,,,,512,0,1,,,,0,68,0
5632,note_off,,,,,512,0,2,,,,1,53,0
5632,note_on,,,,,0,0,2,,,,1,60,49
5632,note_on,,,,,0,0,2,,,,1,64,49
5632,note_on,,,,,0,0,1,,,,0,67,64
6016,note_on,,,,,384,0,1,,,,0,68,64
6080,note_on,,,,,0,0,1,,,,0,70,64
6080,note_off,,,,,64,0,1,,,,0,68,0
6144,note_on,,,,,0,0,1,,,,0,72,64
6144,note_on,,,,,0,0,1,,,,0,68,64
6144,note_off,,,,,0,0,1,,,,0,70,0
6144,note_off,,,,,64,0,1,,,,0,67,0
6144,note_on,,,,,0,0,2,,,,1,53,49
6144,note_off,,,,,512,0,2,,,,1,60,0
6144,note_off,,,,,0,0,2,,,,1,64,0
6656,note_on,,,,,0,0,2,,,,1,65,49
6656,note_on,,,,,0,0,2,,,,1,60,49
6656,note_off,,,,,512,0,2,,,,1,53,0
7040,note_on,,,,,896,0,1,,,,0,68,64
7104,note_off,,,,,64,0,1,,,,0,68,0
7104,note_on,,,,,0,0,1,,,,0,70,64
7168,note_off,,,,,64,0,1,,,,0,68,0
7168,note_off,,,,,0,0,2,,,,1,65,0
7168,note_on,,,,,0,0,2,,,,1,53,49
7168,note_off,,,,,0,0,1,,,,0,72,0
7168,note_off,,,,,0,0,1,,,,0,70,0
7168,note_on,,,,,0,0,1,,,,0,68,64
7168,note_on,,,,,0,0,1,,,,0,72,64
7168,note_off,,,,,512,0,2,,,,1,60,0
7680,note_off,,,,,512,0,2,,,,1,53,0
7680,note_on,,,,,0,0,2,,,,1,60,49
7680,note_on,,,,,0,0,2,,,,1,65,49
8128,note_on,,,,,960,0,1,,,,0,70,64
8192,note_off,,,,,64,0,1,,,,0,68,0
8192,note_on,,,,,0,0,1,,,,0,68,64
8192,note_off,,,,,0,0,1,,,,0,70,0
8192,note_on,,,,,0,0,2,,,,1,53,49
8192,note_off,,,,,0,0,2,,,,1,65,0
8192,note_off,,,,,512,0,2,,,,1,60,0
8192,note_off,,,,,0,0,1,,,,0,72,0
8704,note_on,,,,,0,0,2,,,,1,65,49
8704,note_on,,,,,0,0,2,,,,1,60,49
8704,note_off,,,,,512,0,2,,,,1,53,0
8704,note_on,,,,,0,0,1,,,,0,68,64
8704,note_off,,,,,512,0,1,,,,0,68,0
8960,note_on,,,,,0,0,1,,,,0,70,64
8960,note_off,,,,,256,0,1,,,,0,68,0
9216,note_on,,,,,0,0,2,,,,1,53,49
9216,note_off,,,,,256,0,1,,,,0,70,0
9216,note_on,,,,,0,0,1,,,,0,68,64
9216,note_off,,,,,512,0,2,,,,1,60,0
9216,note_off,,,,,0,0,2,,,,1,65,0
9728,note_off,,,,,512,0,2,,,,1,53,0
9728,note_on,,,,,0,0,2,,,,1,60,49
9728,note_on,,,,,0,0,2,,,,1,64,49
9728,note_off,,,,,512,0,1,,,,0,68,0
9728,note_on,,,,,0,0,1,,,,0,67,64
9728,note_on,,,,,0,0,1,,,,0,72,64
10176,note_on,,,,,448,0,1,,,,0,72,64
10240,note_off,,,,,64,0,1,,,,0,67,0
10240,note_on,,,,,0,0,1,,,,0,68,64
10240,note_off,,,,,0,0,1,,,,0,72,0
10240,note_on,,,,,0,0,1,,,,0,77,64
10240,note_on,,,,,0,0,2,,,,1,53,49
10240,note_off,,,,,0,0,2,,,,1,64,0
10240,note_off,,,,,512,0,2,,,,1,60,0
10240,note_off,,,,,0,0,1,,,,0,72,0
10752,note_on,,,,,0,0,2,,,,1,60,49
10752,note_off,,,,,512,0,2,,,,1,53,0
10752,note_on,,,,,0,0,2,,,,1,65,49
11200,note_on,,,,,960,0,1,,,,0,72,64
11264,note_on,,,,,0,0,1,,,,0,77,64
11264,note_on,,,,,0,0,1,,,,0,68,64
11264,note_off,,,,,0,0,1,,,,0,72,0
11264,note_off,,,,,0,0,1,,,,0,77,0
11264,note_off,,,,,64,0,1,,,,0,68,0
11264,note_off,,,,,512,0,2,,,,1,60,0
11264,note_off,,,,,0,0,2,,,,1,65,0
11264,note_on,,,,,0,0,2,,,,1,53,49
11776,note_off,,,,,512,0,2,,,,1,53,0
11776,note_on,,,,,0,0,2,,,,1,65,49
11776,note_on,,,,,0,0,2,,,,1,60,49
12224,note_on,,,,,960,0,1,,,,0,78,64
12288,note_off,,,,,0,0,1,,,,0,78,0
12288,note_off,,,,,0,0,1,,,,0,77,0
12288,note_off,,,,,64,0,1,,,,0,68,0
12288,note_on,,,,,0,0,1,,,,0,68,64
12288,note_off,,,,,512,0,2,,,,1,60,0
12288,note_off,,,,,0,0,2,,,,1,65,0
12288,note_on,,,,,0,0,2,,,,1,49,49
12288,note_on,,,,,0,0,1,,,,0,77,64
12800,note_off,,,,,512,0,1,,,,0,77,0
12800,note_off,,,,,512,0,2,,,,1,49,0
12800,note_on,,,,,0,0,2,,,,1,61,49
12800,note_on,,,,,0,0,2,,,,1,65,49
12800,note_on,,,,,0,0,1,,,,0,77,64
12800,note_on,,,,,0,0,1,,,,0,68,64
12800,note_off,,,,,0,0,1,,,,0,68,0
13056,note_off,,,,,256,0,1,,,,0,77,0
13056,note_on,,,,,0,0,1,,,,0,78,64
13312,note_off,,,,,256,0,1,,,,0,78,0
13312,note_on,,,,,0,0,2,,,,1,48,49
13312,note_off,,,,,0,0,1,,,,0,68,0
13312,note_off,,,,,512,0,2,,,,1,61,0
13312,note_on,,,,,0,0,1,,,,0,77,64
13312,note_off,,,,,0,0,2,,,,1,65,0
13312,note_on,,,,,0,0,1,,,,0,69,64
13824,note_on,,,,,0,0,2,,,,1,65,49
13824,note_on,,,,,0,0,2,,,,1,63,49
13824,note_on,,,,,0,0,2,,,,1,60,49
13824,note_off,,,,,512,0,2,,,,1,48,0
13824,note_off,,,,,512,0,1,,,,0,77,0
13824,note_on,,,,,0,0,1,,,,0,77,64
13824,note_off,,,,,0,0,1,,,,0,69,0
13824,note_on,,,,,0,0,1,,,,0,69,64
14336,note_off,,,,,512,0,1,,,,0,77,0
14336,note_off,,,,,0,0,1,,,,0,69,0
14336,note_on,,,,,0,0,1,,,,0,77,64
14336,note_on,,,,,0,0,1,,,,0,70,64
14336,note_off,,,,,512,0,2,,,,1,60,0
14336,note_off,,,,,0,0,2,,,,1,63,0
14336,note_off,,,,,0,0,2,,,,1,65,0
14336,note_on,,,,,0,0,2,,,,1,46,49
14848,note_off,,,,,512,0,1,,,,0,77,0
14848,note_on,,,,,0,0,1,,,,0,82,64
14848,note_off,,,,,512,0,2,,,,1,46,0
14848,note_on,,,,,0,0,2,,,,1,58,49
14848,note_on,,,,,0,0,2,,,,1,65,49
14848,note_on,,,,,0,0,2,,,,1,61,49
15104,note_off,,,,,256,0,1,,,,0,82,0
15104,note_off,,,,,0,0,1,,,,0,70,0
15360,note_off,,,,,0,0,2,,,,1,65,0
15360,note_on,,,,,256,0,1,,,,0,68,80
15360,note_on,,,,,0,0,2,,,,1,53,49
15360,note_on,,,,,0,0,1,,,,0,77,80
15360,note_off,,,,,0,0,2,,,,1,61,0
15360,note_off,,,,,512,0,2,,,,1,58,0
15872,note_on,,,,,0,0,2,,,,1,65,49
15872,note_off,,,,,512,0,2,,,,1,53,0
15872,note_on,,,,,0,0,2,,,,1,56,49
15872,note_on,,,,,0,0,2,,,,1,60,49
16384,note_off,,,,,0,0,1,,,,0,77,0
16384,note_on,,,,,0,0,2,,,,1,48,49
16384,note_on,,,,,0,0,1,,,,0,72,64
16384,note_off,,,,,0,0,2,,,,1,65,0
16384,note_off,,,,,0,0,2,,,,1,60,0
16384,note_off,,,,,512,0,2,,,,1,56,0
16384,note_off,,,,,1024,0,1,,,,0,68,0
16384,note_on,,,,,0,0,1,,,,0,68,64
16640,note_on,,,,,0,0,1,,,,0,67,64
16640,note_off,,,,,0,0,1,,,,0,72,0
16640,note_off,,,,,256,0,1,,,,0,68,0
16640,note_on,,,,,0,0,1,,,,0,70,64
16896,note_off,,,,,256,0,1,,,,0,67,0
16896,note_off,,,,,0,0,1,,,,0,70,0
16896,note_on,,,,,0,0,1,,,,0,68,64
16896,note_off,,,,,512,0,2,,,,1,48,0
16896,note_on,,,,,0,0,2,,,,1,60,49
16896,note_on,,,,,0,0,2,,,,1,65,49
16896,note_on,,,,,0,0,1,,,,0,65,64
17152,note_off,,,,,0,0,1,,,,0,68,0
17152,note_on,,,,,0,0,1,,,,0,67,64
17152,note_on,,,,,0,0,1,,,,0,70,64
17152,note_off,,,,,256,0,1,,,,0,65,0
17408,note_off,,,,,512,0,2,,,,1,60,0
17408,note_off,,,,,0,0,2,,,,1,65,0
17408,note_on,,,,,0,0,2,,,,1,49,49
17408,note_on,,,,,0,0,1,,,,0,72,64
17408,note_off,,,,,0,0,1,,,,0,70,0
17408,note_on,,,,,0,0,1,,,,0,68,64
17408,note_off,,,,,256,0,1,,,,0,67,0
17664,note_off,,,,,256,0,1,,,,0,72,0
17664,note_on,,,,,0,0,1,,,,0,73,64
17920,note_on,,,,,0,0,2,,,,1,64,49
17920,note_on,,,,,0,0,2,,,,1,60,49
17920,note_off,,,,,512,0,2,,,,1,49,0
17920,note_on,,,,,0,0,1,,,,0,72,64
17920,note_on,,,,,0,0,1,,,,0,67,64
17920,note_on,,,,,0,0,1,,,,0,70,64
17920,note_off,,,,,0,0,1,,,,0,68,0
17920,note_off,,,,,256,0,1,,,,0,73,0
18176,note_off,,,,,256,0,1,,,,0,72,0
18176,note_on,,,,,0,0,1,,,,0,76,64
18432,note_on,,,,,0,0,2,,,,1,53,49
18432,note_off,,,,,0,0,2,,,,1,64,0
18432,note_off,,,,,512,0,2,,,,1,60,0
18432,note_off,,,,,256,0,1,,,,0,76,0
18432,note_off,,,,,0,0,1,,,,0,67,0
18432,note_on,,,,,0,0,1,,,,0,68,64
18432,note_on,,,,,0,0,1,,,,0,72,64
18432,note_on,,,,,0,0,1,,,,0,77,64
18432,note_off,,,,,0,0,1,,,,0,70,0
18944,note_on,,,,,0,0,2,,,,1,65,49
18944,note_on,,,,,0,0,2,,,,1,60,49
18944,note_off,,,,,512,0,2,,,,1,53,0
19456,note_on,,,,,0,0,1,,,,0,77,64
19456,note_on,,,,,0,0,1,,,,0,72,64
19456,note_on,,,,,0,0,1,,,,0,68,64
19456,note_off,,,,,0,0,1,,,,0,77,0
19456,note_off,,,,,0,0,1,,,,0,72,0
19456,note_off,,,,,1024,0,1,,,,0,68,0
19456,note_off,,,,,0,0,2,,,,1,65,0
19456,note_off,,,,,512,0,2,,,,1,60,0
19456,note_on,,,,,0,0,2,,,,1,53,49
19968,note_off,,,,,512,0,2,,,,1,53,0
19968,note_on,,,,,0,0,2,,,,1,60,49
19968,note_on,,,,,0,0,2,,,,1,65,49
20416,note_on,,,,,960,0,1,,,,0,70,64
20480,note_off,,,,,64,0,1,,,,0,68,0
20480,note_off,,,,,0,0,2,,,,1,65,0
20480,note_on,,,,,0,0,1,,,,0,68,64
20480,note_off,,,,,0,0,1,,,,0,70,0
20480,note_off,,,,,0,0,1,,,,0,77,0
20480,note_off,,,,,0,0,1,,,,0,72,0
20480,note_off,,,,,512,0,2,,,,1,60,0
20480,note_on,,,,,0,0,2,,,,1,53,49
20992,note_off,,,,,512,0,2,,,,1,53,0
20992,note_on,,,,,0,0,2,,,,1,65,49
20992,note_on,,,,,0,0,1,,,,0,68,64
20992,note_off,,,,,512,0,1,,,,0,68,0
20992,note_on,,,,,0,0,2,,,,1,60,49
21248,note_off,,,,,256,0,1,,,,0,68,0
21248,note_on,,,,,0,0,1,,,,0,70,64
21504,note_off,,,,,0,0,2,,,,1,65,0
21504,note_on,,,,,0,0,2,,,,1,53,49
21504,note_on,,,,,0,0,1,,,,0,68,64
21504,note_off,,,,,256,0,1,,,,0,70,0
21504,note_off,,,,,512,0,2,,,,1,60,0
22016,note_off,,,,,512,0,1,,,,0,68,0
22016,note_off,,,,,512,0,2,,,,1,53,0
22016,note_on,,,,,0,0,2,,,,1,60,49
22016,note_on,,,,,0,0,2,,,,1,64,49
22016,note_on,,,,,0,0,1,,,,0,67,64
22400,note_on,,,,,384,0,1,,,,0,68,64
22464,note_off,,,,,64,0,1,,,,0,68,0
22464,note_on,,,,,0,0,1,,,,0,70,64
22528,note_on,,,,,0,0,2,,,,1,53,49
22528,note_off,,,,,64,0,1,,,,0,67,0
22528,note_off,,,,,0,0,1,,,,0,70,0
22528,note_on,,,,,0,0,1,,,,0,68,64
22528,note_on,,,,,0,0,1,,,,0,72,64
22528,note_off,,,,,512,0,2,,,,1,60,0
22528,note_off,,,,,0,0,2,,,,1,64,0
23040,note_off,,,,,512,0,2,,,,1,53,0
23040,note_on,,,,,0,0,2,,,,1,60,49
23040,note_on,,,,,0,0,2,,,,1,65,49
23424,note_on,,,,,896,0,1,,,,0,68,64
23488,note_on,,,,,0,0,1,,,,0,70,64
23488,note_off,,,,,64,0,1,,,,0,68,0
23552,note_off,,,,,0,0,2,,,,1,65,0
23552,note_on,,,,,0,0,2,,,,1,53,49
23552,note_off,,,,,512,0,2,,,,1,60,0
23552,note_on,,,,,0,0,1,,,,0,72,64
23552,note_on,,,,,0,0,1,,,,0,68,64
23552,note_off,,,,,0,0,1,,,,0,70,0
23552,note_off,,,,,0,0,1,,,,0,72,0
23552,note_off,,,,,64,0,1,,,,0,68,0
24064,note_on,,,,,0,0,2,,,,1,65,49
24064,note_off,,,,,512,0,2,,,,1,53,0
24064,note_on,,,,,0,0,2,,,,1,60,49
24512,note_on,,,,,960,0,1,,,,0,70,64
24576,note_on,,,,,0,0,1,,,,0,68,64
24576,note_off,,,,,0,0,1,,,,0,70,0
24576,note_off,,,,,0,0,2,,,,1,65,0
24576,note_on,,,,,0,0,2,,,,1,53,49
24576,note_off,,,,,512,0,2,,,,1,60,0
24576,note_off,,,,,0,0,1,,,,0,72,0
24576,note_off,,,,,64,0,1,,,,0,68,0
25088,note_off,,,,,512,0,1,,,,0,68,0
25088,note_on,,,,,0,0,1,,,,0,68,64
25088,note_off,,,,,512,0,2,,,,1,53,0
25088,note_on,,,,,0,0,2,,,,1,60,49
25088,note_on,,,,,0,0,2,,,,1,65,49
25344,note_off,,,,,256,0,1,,,,0,68,0
25344,note_on,,,,,0,0,1,,,,0,70,64
25600,note_on,,,,,0,0,2,,,,1,53,49
25600,note_off,,,,,0,0,2,,,,1,65,0
25600,note_off,,,,,256,0,1,,,,0,70,0
25600,note_on,,,,,0,0,1,,,,0,68,64
25600,note_off,,,,,512,0,2,,,,1,60,0
26112,note_off,,,,,512,0,1,,,,0,68,0
26112,note_on,,,,,0,0,1,,,,0,67,64
26112,note_on,,,,,0,0,1,,,,0,72,64
26112,note_on,,,,,0,0,2,,,,1,64,49
26112,note_on,,,,,0,0,2,,,,1,60,49
26112,note_off,,,,,512,0,2,,,,1,53,0
26560,note_on,,,,,448,0,1,,,,0,72,64
26624,note_off,,,,,0,0,2,,,,1,64,0
26624,note_off,,,,,512,0,2,,,,1,60,0
26624,note_off,,,,,0,0,1,,,,0,72,0
26624,note_on,,,,,0,0,2,,,,1,53,49
26624,note_off,,,,,64,0,1,,,,0,67,0
26624,note_off,,,,,0,0,1,,,,0,72,0
26624,note_on,,,,,0,0,1,,,,0,68,64
26624,note_on,,,,,0,0,1,,,,0,77,64
27136,note_on,,,,,0,0,2,,,,1,65,49
27136,note_off,,,,,512,0,2,,,,1,53,0
27136,note_on,,,,,0,0,2,,,,1,60,49
27584,note_on,,,,,960,0,1,,,,0,72,64
27648,note_on,,,,,0,0,1,,,,0,77,64
27648,note_on,,,,,0,0,1,,,,0,68,64
27648,note_off,,,,,0,0,1,,,,0,72,0
27648,note_off,,,,,512,0,2,,,,1,60,0
27648,note_off,,,,,0,0,2,,,,1,65,0
27648,note_on,,,,,0,0,2,,,,1,53,49
27648,note_off,,,,,0,0,1,,,,0,77,0
27648,note_off,,,,,64,0,1,,,,0,68,0
28160,note_off,,,,,512,0,2,,,,1,53,0
28160,note_on,,,,,0,0,2,,,,1,60,49
28160,note_on,,,,,0,0,2,,,,1,65,49
28608,note_on,,,,,960,0,1,,,,0,78,64
28672,note_off,,,,,512,0,2,,,,1,60,0
28672,note_on,,,,,0,0,2,,,,1,49,49
28672,note_off,,,,,64,0,1,,,,0,68,0
28672,note_off,,,,,0,0,1,,,,0,78,0
28672,note_on,,,,,0,0,1,,,,0,77,64
28672,note_on,,,,,0,0,1,,,,0,68,64
28672,note_off,,,,,0,0,2,,,,1,65,0
28672,note_off,,,,,0,0,1,,,,0,77,0
29184,note_off,,,,,0,0,1,,,,0,68,0
29184,note_on,,,,,0,0,1,,,,0,68,64
29184,note_on,,,,,0,0,1,,,,0,77,64
29184,note_on,,,,,0,0,2,,,,1,65,49
29184,note_on,,,,,0,0,2,,,,1,61,49
29184,note_off,,,,,512,0,1,,,,0,77,0
29184,note_off,,,,,512,0,2,,,,1,49,0
29440,note_off,,,,,256,0,1,,,,0,77,0
29440,note_on,,,,,0,0,1,,,,0,78,64
29696,note_on,,,,,0,0,2,,,,1,48,49
29696,note_off,,,,,512,0,2,,,,1,61,0
29696,note_off,,,,,0,0,2,,,,1,65,0
29696,note_off,,,,,0,0,1,,,,0,68,0
29696,note_off,,,,,256,0,1,,,,0,78,0
29696,note_on,,,,,0,0,1,,,,0,77,64
29696,note_on,,,,,0,0,1,,,,0,69,64
30208,note_off,,,,,0,0,1,,,,0,69,0
30208,note_on,,,,,0,0,1,,,,0,69,64
30208,note_off,,,,,512,0,2,,,,1,48,0
30208,note_on,,,,,0,0,2,,,,1,65,49
30208,note_on,,,,,0,0,2,,,,1,63,49
30208,note_on,,,,,0,0,2,,,,1,60,49
30208,note_on,,,,,0,0,1,,,,0,77,64
30208,note_off,,,,,512,0,1,,,,0,77,0
30720,note_off,,,,,512,0,1,,,,0,77,0
30720,note_on,,,,,0,0,1,,,,0,77,64
30720,note_on,,,,,0,0,2,,,,1,46,49
30720,note_off,,,,,0,0,2,,,,1,65,0
30720,note_off,,,,,0,0,2,,,,1,63,0
30720,note_off,,,,,512,0,2,,,,1,60,0
30720,note_off,,,,,0,0,1,,,,0,69,0
30720,note_on,,,,,0,0,1,,,,0,70,64
31232,note_off,,,,,512,0,1,,,,0,77,0
31232,note_on,,,,,0,0,1,,,,0,82,64
31232,note_on,,,,,0,0,2,,,,1,65,49
31232,note_on,,,,,0,0,2,,,,1,61,49
31232,note_on,,,,,0,0,2,,,,1,58,49
31232,note_off,,,,,512,0,2,,,,1,46,0
31488,note_off,,,,,256,0,1,,,,0,82,0
31488,note_off,,,,,0,0,1,,,,0,70,0
31744,note_on,,,,,0,0,1,,,,0,77,80
31744,note_off,,,,,0,0,2,,,,1,61,0
31744,note_off,,,,,0,0,2,,,,1,65,0
31744,note_off,,,,,512,0,2,,,,1,58,0
31744,note_on,,,,,256,0,1,,,,0,68,80
31744,note_on,,,,,0,0,2,,,,1,53,49
32256,note_on,,,,,0,0,2,,,,1,56,49
32256,note_on,,,,,0,0,2,,,,1,60,49
32256,note_off,,,,,512,0,2,,,,1,53,0
32256,note_on,,,,,0,0,2,,,,1,65,49
32768,note_off,,,,,512,0,2,,,,1,56,0
32768,note_off,,,,,0,0,2,,,,1,60,0
32768,note_off,,,,,0,0,2,,,,1,65,0
32768,note_off,,,,,1024,0,1,,,,0,68,0
32768,note_off,,,,,0,0,1,,,,0,77,0
32768,note_on,,,,,0,0,1,,,,0,68,64
32768,note_on,,,,,0,0,1,,,,0,72,64
32768,note_on,,,,,0,0,2,,,,1,48,49
33024,note_on,,,,,0,0,1,,,,0,67,64
33024,note_off,,,,,0,0,1,,,,0,72,0
33024,note_on,,,,,0,0,1,,,,0,70,64
33024,note_off,,,,,256,0,1,,,,0,68,0
33280,note_off,,,,,0,0,1,,,,0,70,0
33280,note_on,,,,,0,0,2,,,,1,65,49
33280,note_on,,,,,0,0,1,,,,0,65,64
33280,note_on,,,,,0,0,2,,,,1,60,49
33280,note_off,,,,,512,0,2,,,,1,48,0
33280,note_off,,,,,256,0,1,,,,0,67,0
33280,note_on,,,,,0,0,1,,,,0,68,64
33536,note_on,,,,,0,0,1,,,,0,67,64
33536,note_on,,,,,0,0,1,,,,0,70,64
33536,note_off,,,,,256,0,1,,,,0,65,0
33536,note_off,,,,,0,0,1,,,,0,68,0
33792,note_off,,,,,256,0,1,,,,0,67,0
33792,note_off,,,,,0,0,1,,,,0,70,0
33792,note_on,,,,,0,0,1,,,,0,72,64
33792,note_on,,,,,0,0,1,,,,0,68,64
33792,note_off,,,,,512,0,2,,,,1,60,0
33792,note_on,,,,,0,0,2,,,,1,49,49
33792,note_off,,,,,0,0,2,,,,1,65,0
34048,note_on,,,,,0,0,1,,,,0,73,64
34048,note_off,,,,,256,0,1,,,,0,72,0
34304,note_off,,,,,512,0,2,,,,1,49,0
34304,note_on,,,,,0,0,2,,,,1,60,49
34304,note_on,,,,,0,0,1,,,,0,72,64
34304,note_off,,,,,0,0,1,,,,0,68,0
34304,note_on,,,,,0,0,1,,,,0,70,64
34304,note_on,,,,,0,0,1,,,,0,67,64
34304,note_off,,,,,256,0,1,,,,0,73,0
34304,note_on,,,,,0,0,2,,,,1,64,49
34560,note_off,,,,,256,0,1,,,,0,72,0
34560,note_on,,,,,0,0,1,,,,0,76,64
34816,note_on,,,,,0,0,2,,,,1,53,49
34816,note_off,,,,,0,0,2,,,,1,64,0
34816,note_off,,,,,512,0,2,,,,1,60,0
34816,note_off,,,,,256,0,1,,,,0,76,0
34816,note_off,,,,,0,0,1,,,,0,67,0
34816,note_off,,,,,0,0,1,,,,0,70,0
34816,note_on,,,,,0,0,1,,,,0,68,64
34816,note_on,,,,,0,0,1,,,,0,72,64
34816,note_on,,,,,0,0,1,,,,0,77,64
35328,note_off,,,,,512,0,2,,,,1,53,0
35328,note_on,,,,,0,0,2,,,,1,60,49
35328,note_on,,,,,0,0,2,,,,1,65,49
35840,note_on,,,,,0,0,2,,,,1,53,49
35840,note_off,,,,,0,0,2,,,,1,65,0
35840,note_off,,,,,512,0,2,,,,1,60,0
35840,note_on,,,,,0,0,1,,,,0,72,64
35840,note_on,,,,,0,0,1,,,,0,68,64
35840,note_off,,,,,0,0,1,,,,0,77,0
35840,note_off,,,,,0,0,1,,,,0,72,0
35840,note_off,,,,,1024,0,1,,,,0,68,0
35840,note_on,,,,,0,0,1,,,,0,77,64
36352,note_off,,,,,512,0,2,,,,1,53,0
36352,note_on,,,,,0,0,2,,,,1,60,49
36352,note_on,,,,,0,0,2,,,,1,65,49
36864,note_off,,,,,0,0,2,,,,1,65,0
36864,note_on,,,,,0,0,2,,,,1,56,64
36864,note_off,,,,,512,0,2,,,,1,60,0
36864,note_on,,,,,0,0,1,,,,0,72,75
36864,note_off,,,,,0,0,1,,,,0,77,0
36864,note_off,,,,,0,0,1,,,,0,72,0
36864,note_off,,,,,1024,0,1,,,,0,68,0
37376,note_on,,,,,0,0,2,,,,1,60,64
37376,note_on,,,,,0,0,2,,,,1,63,64
37376,note_on,,,,,0,0,2,,,,1,68,64
37376,note_off,,,,,512,0,2,,,,1,56,0
37888,note_off,,,,,512,0,2,,,,1,60,0
37888,note_off,,,,,0,0,2,,,,1,63,0
37888,note_off,,,,,0,0,2,,,,1,68,0
37888,note_on,,,,,0,0,2,,,,1,56,64
37888,note_on,,,,,0,0,1,,,,0,72,75
37888,note_off,,,,,1024,0,1,,,,0,72,0
38400,note_off,,,,,512,0,2,,,,1,56,0
38400,note_on,,,,,0,0,2,,,,1,60,64
38400,note_on,,,,,0,0,2,,,,1,63,64
38400,note_on,,,,,0,0,2,,,,1,68,64
38912,note_on,,,,,0,0,2,,,,1,56,64
38912,note_on,,,,,0,0,1,,,,0,72,75
38912,note_off,,,,,1024,0,1,,,,0,72,0
38912,note_off,,,,,512,0,2,,,,1,60,0
38912,note_off,,,,,0,0,2,,,,1,68,0
38912,note_off,,,,,0,0,2,,,,1,63,0
39168,note_on,,,,,0,0,1,,,,0,73,75
39168,note_off,,,,,256,0,1,,,,0,72,0
39424,note_off,,,,,256,0,1,,,,0,73,0
39424,note_on,,,,,0,0,1,,,,0,75,75
39424,note_on,,,,,0,0,2,,,,1,58,64
39424,note_on,,,,,0,0,2,,,,1,63,64
39424,note_off,,,,,512,0,2,,,,1,56,0
39424,note_on,,,,,0,0,2,,,,1,67,64
39680,note_off,,,,,256,0,1,,,,0,75,0
39680,note_on,,,,,0,0,1,,,,0,73,75
39936,note_off,,,,,512,0,2,,,,1,58,0
39936,note_on,,,,,0,0,1,,,,0,73,75
39936,note_off,,,,,0,0,2,,,,1,63,0
39936,note_off,,,,,0,0,2,,,,1,67,0
39936,note_on,,,,,0,0,2,,,,1,56,64
39936,note_off,,,,,256,0,1,,,,0,73,0
40448,note_on,,,,,0,0,2,,,,1,58,64
40448,note_off,,,,,512,0,2,,,,1,56,0
40448,note_on,,,,,0,0,2,,,,1,67,64
40448,note_on,,,,,0,0,2,,,,1,63,64
40704,note_on,,,,,0,0,1,,,,0,72,75
40704,note_off,,,,,768,0,1,,,,0,73,0
40896,note_on,,,,,192,0,1,,,,0,72,75
40960,note_off,,,,,64,0,1,,,,0,72,0
40960,note_on,,,,,0,0,1,,,,0,70,75
40960,note_on,,,,,0,0,2,,,,1,56,64
40960,note_off,,,,,0,0,2,,,,1,67,0
40960,note_off,,,,,0,0,2,,,,1,63,0
40960,note_off,,,,,512,0,2,,,,1,58,0
40960,note_off,,,,,0,0,1,,,,0,72,0
41472,note_on,,,,,0,0,2,,,,1,63,64
41472,note_on,,,,,0,0,2,,,,1,61,64
41472,note_off,,,,,512,0,1,,,,0,70,0
41472,note_on,,,,,0,0,2,,,,1,67,64
41472,note_off,,,,,512,0,2,,,,1,56,0
41472,note_on,,,,,0,0,1,,,,0,70,75
41984,note_on,,,,,0,0,2,,,,1,56,64
41984,note_on,,,,,0,0,1,,,,0,72,75
41984,note_off,,,,,512,0,1,,,,0,70,0
41984,note_off,,,,,512,0,2,,,,1,61,0
41984,note_off,,,,,0,0,2,,,,1,63,0
41984,note_off,,,,,0,0,2,,,,1,67,0
42240,note_on,,,,,0,0,1,,,,0,70,75
42240,note_off,,,,,256,0,1,,,,0,72,0
42496,note_on,,,,,0,0,1,,,,0,68,75
42496,note_off,,,,,256,0,1,,,,0,70,0
42496,note_off,,,,,512,0,2,,,,1,56,0
42496,note_on,,,,,0,0,2,,,,1,63,64
42496,note_on,,,,,0,0,2,,,,1,67,64
42496,note_on,,,,,0,0,2,,,,1,61,64
42752,note_off,,,,,256,0,1,,,,0,68,0
42752,note_on,,,,,0,0,1,,,,0,70,75
43008,note_off,,,,,256,0,1,,,,0,70,0
43008,note_on,,,,,0,0,1,,,,0,70,75
43008,note_off,,,,,512,0,2,,,,1,61,0
43008,note_off,,,,,0,0,2,,,,1,67,0
43008,note_on,,,,,0,0,2,,,,1,56,64
43008,note_off,,,,,0,0,2,,,,1,63,0
43520,note_on,,,,,0,0,2,,,,1,63,64
43520,note_off,,,,,512,0,2,,,,1,56,0
43520,note_on,,,,,0,0,2,,,,1,60,64
43520,note_on,,,,,0,0,2,,,,1,68,64
44032,note_off,,,,,1024,0,1,,,,0,70,0
44032,note_on,,,,,0,0,1,,,,0,72,75
44032,note_off,,,,,512,0,2,,,,1,60,0
44032,note_off,,,,,0,0,2,,,,1,63,0
44032,note_on,,,,,0,0,2,,,,1,56,64
44032,note_off,,,,,0,0,2,,,,1,68,0
44544,note_on,,,,,0,0,2,,,,1,68,64
44544,note_on,,,,,0,0,2,,,,1,63,64
44544,note_on,,,,,0,0,2,,,,1,60,64
44544,note_off,,,,,512,0,2,,,,1,56,0
44992,note_on,,,,,960,0,1,,,,0,75,75
45056,note_off,,,,,512,0,2,,,,1,60,0
45056,note_off,,,,,0,0,1,,,,0,75,0
45056,note_off,,,,,64,0,1,,,,0,72,0
45056,note_off,,,,,0,0,2,,,,1,63,0
45056,note_on,,,,,0,0,1,,,,0,80,75
45056,note_on,,,,,0,0,1,,,,0,72,75
45056,note_on,,,,,0,0,2,,,,1,56,64
45056,note_off,,,,,0,0,2,,,,1,68,0
45568,note_on,,,,,0,0,2,,,,1,63,64
45568,note_on,,,,,0,0,2,,,,1,68,64
45568,note_off,,,,,512,0,2,,,,1,56,0
45568,note_on,,,,,0,0,2,,,,1,60,64
46016,note_on,,,,,960,0,1,,,,0,75,75
46080,note_off,,,,,0,0,2,,,,1,63,0
46080,note_off,,,,,512,0,2,,,,1,60,0
46080,note_on,,,,,0,0,1,,,,0,80,75
46080,note_on,,,,,0,0,1,,,,0,72,75
46080,note_off,,,,,0,0,1,,,,0,75,0
46080,note_off,,,,,0,0,1,,,,0,80,0
46080,note_on,,,,,0,0,2,,,,1,56,64
46080,note_off,,,,,64,0,1,,,,0,72,0
46080,note_off,,,,,0,0,2,,,,1,68,0
46592,note_on,,,,,0,0,2,,,,1,68,64
46592,note_on,,,,,0,0,2,,,,1,63,64
46592,note_on,,,,,0,0,2,,,,1,60,64
46592,note_off,,,,,512,0,2,,,,1,56,0
47104,note_off,,,,,0,0,2,,,,1,68,0
47104,note_on,,,,,0,0,1,,,,0,79,75
47104,note_off,,,,,0,0,2,,,,1,63,0
47104,note_off,,,,,512,0,2,,,,1,60,0
47104,note_off,,,,,1024,0,1,,,,0,72,0
47104,note_on,,,,,0,0,1,,,,0,75,75
47104,note_off,,,,,0,0,1,,,,0,80,0
47104,note_on,,,,,0,0,2,,,,1,49,64
47360,note_on,,,,,0,0,1,,,,0,73,75
47360,note_off,,,,,0,0,1,,,,0,79,0
47360,note_off,,,,,256,0,1,,,,0,75,0
47360,note_on,,,,,0,0,1,,,,0,77,75
47616,note_off,,,,,256,0,1,,,,0,73,0
47616,note_off,,,,,0,0,1,,,,0,77,0
47616,note_on,,,,,0,0,2,,,,1,65,64
47616,note_on,,,,,0,0,1,,,,0,72,75
47616,note_on,,,,,0,0,2,,,,1,61,64
47616,note_off,,,,,512,0,2,,,,1,49,0
47616,note_on,,,,,0,0,1,,,,0,76,75
47872,note_off,,,,,256,0,1,,,,0,72,0
47872,note_on,,,,,0,0,1,,,,0,73,75
47872,note_on,,,,,0,0,1,,,,0,77,75
47872,note_off,,,,,0,0,1,,,,0,76,0
48128,note_off,,,,,256,0,1,,,,0,73,0
48128,note_off,,,,,0,0,1,,,,0,77,0
48128,note_on,,,,,0,0,2,,,,1,49,64
48128,note_off,,,,,0,0,2,,,,1,65,0
48128,note_off,,,,,512,0,2,,,,1,61,0
48128,note_on,,,,,0,0,1,,,,0,77,75
48128,note_on,,,,,0,0,1,,,,0,73,75
48640,note_on,,,,,0,0,2,,,,1,61,64
48640,note_on,,,,,0,0,2,,,,1,65,64
48640,note_off,,,,,512,0,2,,,,1,49,0
49152,note_off,,,,,0,0,2,,,,1,65,0
49152,note_off,,,,,512,0,2,,,,1,61,0
49152,note_on,,,,,0,0,1,,,,0,67,75
49152,note_off,,,,,0,0,1,,,,0,77,0
49152,note_off,,,,,1024,0,1,,,,0,73,0
49152,note_on,,,,,0,0,2,,,,1,51,64
49152,note_on,,,,,0,0,1,,,,0,77,75
49152,note_on,,,,,0,0,1,,,,0,73,75
49408,note_off,,,,,256,0,1,,,,0,77,0
49408,note_on,,,,,0,0,1,,,,0,75,75
49664,note_off,,,,,0,0,1,,,,0,73,0
49664,note_off,,,,,0,0,1,,,,0,67,0
49664,note_on,,,,,0,0,1,,,,0,67,75
49664,note_on,,,,,0,0,1,,,,0,75,75
49664,note_on,,,,,0,0,1,,,,0,73,75
49664,note_off,,,,,512,0,2,,,,1,51,0
49664,note_on,,,,,0,0,2,,,,1,58,64
49664,note_on,,,,,0,0,2,,,,1,61,64
49664,note_off,,,,,256,0,1,,,,0,75,0
49664,note_on,,,,,0,0,2,,,,1,63,64
49920,note_off,,,,,256,0,1,,,,0,67,0
49920,note_on,,,,,0,0,1,,,,0,68,75
50176,note_off,,,,,512,0,2,,,,1,58,0
50176,note_off,,,,,0,0,2,,,,1,61,0
50176,note_off,,,,,0,0,2,,,,1,63,0
50176,note_on,,,,,0,0,2,,,,1,51,64
50176,note_on,,,,,0,0,1,,,,0,70,75
50176,note_off,,,,,256,0,1,,,,0,68,0
50688,note_on,,,,,0,0,1,,,,0,73,75
50688,note_off,,,,,0,0,1,,,,0,70,0
50688,note_off,,,,,0,0,1,,,,0,75,0
50688,note_on,,,,,0,0,2,,,,1,63,64
50688,note_on,,,,,0,0,2,,,,1,58,64
50688,note_off,,,,,512,0,2,,,,1,51,0
50688,note_on,,,,,0,0,1,,,,0,75,75
50688,note_on,,,,,0,0,2,,,,1,61,64
50688,note_on,,,,,0,0,1,,,,0,68,75
50688,note_off,,,,,512,0,1,,,,0,73,0
50944,note_off,,,,,256,0,1,,,,0,68,0
50944,note_on,,,,,0,0,1,,,,0,67,75
51200,note_off,,,,,256,0,1,,,,0,73,0
51200,note_off,,,,,0,0,1,,,,0,75,0
51200,note_off,,,,,0,0,1,,,,0,67,0
51200,note_on,,,,,0,0,1,,,,0,68,75
51200,note_on,,,,,0,0,1,,,,0,72,75
51200,note_on,,,,,0,0,1,,,,0,75,75
51200,note_off,,,,,512,0,2,,,,1,58,0
51200,note_off,,,,,0,0,2,,,,1,63,0
51200,note_on,,,,,0,0,2,,,,1,56,64
51200,note_off,,,,,0,0,2,,,,1,61,0
51712,note_off,,,,,512,0,2,,,,1,56,0
51712,note_on,,,,,0,0,2,,,,1,56,64
51712,note_on,,,,,0,0,2,,,,1,60,64
51712,note_on,,,,,0,0,2,,,,1,63,64
52224,note_off,,,,,1024,0,1,,,,0,68,0
52224,note_off,,,,,0,0,1,,,,0,72,0
52224,note_off,,,,,0,0,2,,,,1,63,0
52224,note_on,,,,,0,0,1,,,,0,68,75
52224,note_on,,,,,0,0,1,,,,0,75,75
52224,note_off,,,,,0,0,2,,,,1,60,0
52224,note_off,,,,,0,0,1,,,,0,75,0
52224,note_on,,,,,0,0,2,,,,1,56,64
52224,note_off,,,,,512,0,2,,,,1,56,0
52224,note_on,,,,,0,0,1,,,,0,72,75
52736,note_on,,,,,0,0,2,,,,1,63,64
52736,note_on,,,,,0,0,2,,,,1,60,64
52736,note_on,,,,,0,0,2,,,,1,56,64
52736,note_off,,,,,512,0,2,,,,1,56,0
53248,note_off,,,,,0,0,1,,,,0,72,0
53248,note_on,,,,,0,0,2,,,,1,56,64
53248,note_off,,,,,0,0,2,,,,1,63,0
53248,note_off,,,,,0,0,2,,,,1,60,0
53248,note_off,,,,,512,0,2,,,,1,56,0
53248,note_off,,,,,0,0,1,,,,0,75,0
53248,note_on,,,,,0,0,1,,,,0,72,75
53248,note_off,,,,,1024,0,1,,,,0,68,0
53760,note_on,,,,,0,0,2,,,,1,63,64
53760,note_on,,,,,0,0,2,,,,1,68,64
53760,note_off,,,,,512,0,2,,,,1,56,0
53760,note_on,,,,,0,0,2,,,,1,60,64
54272,note_off,,,,,512,0,2,,,,1,60,0
54272,note_off,,,,,0,0,2,,,,1,68,0
54272,note_on,,,,,0,0,2,,,,1,56,64
54272,note_off,,,,,1024,0,1,,,,0,72,0
54272,note_on,,,,,0,0,1,,,,0,72,75
54272,note_off,,,,,0,0,2,,,,1,63,0
54784,note_off,,,,,512,0,2,,,,1,56,0
54784,note_on,,,,,0,0,2,,,,1,60,64
54784,note_on,,,,,0,0,2,,,,1,68,64
54784,note_on,,,,,0,0,2,,,,1,63,64
55296,note_off,,,,,1024,0,1,,,,0,72,0
55296,note_off,,,,,0,0,2,,,,1,63,0
55296,note_off,,,,,512,0,2,,,,1,60,0
55296,note_off,,,,,0,0,2,,,,1,68,0
55296,note_on,,,,,0,0,2,,,,1,56,64
55296,note_on,,,,,0,0,1,,,,0,72,75
55552,note_off,,,,,256,0,1,,,,0,72,0
55552,note_on,,,,,0,0,1,,,,0,73,75
55808,note_on,,,,,0,0,1,,,,0,75,75
55808,note_off,,,,,512,0,2,,,,1,56,0
55808,note_on,,,,,0,0,2,,,,1,63,64
55808,note_on,,,,,0,0,2,,,,1,67,64
55808,note_off,,,,,256,0,1,,,,0,73,0
55808,note_on,,,,,0,0,2,,,,1,58,64
56064,note_off,,,,,256,0,1,,,,0,75,0
56064,note_on,,,,,0,0,1,,,,0,73,75
56320,note_off,,,,,512,0,2,,,,1,58,0
56320,note_off,,,,,0,0,2,,,,1,67,0
56320,note_on,,,,,0,0,2,,,,1,56,64
56320,note_off,,,,,256,0,1,,,,0,73,0
56320,note_on,,,,,0,0,1,,,,0,73,75
56320,note_off,,,,,0,0,2,,,,1,63,0
56832,note_off,,,,,512,0,2,,,,1,56,0
56832,note_on,,,,,0,0,2,,,,1,58,64
56832,note_on,,,,,0,0,2,,,,1,63,64
56832,note_on,,,,,0,0,2,,,,1,67,64
57088,note_off,,,,,768,0,1,,,,0,73,0
57088,note_on,,,,,0,0,1,,,,0,72,75
57280,note_on,,,,,192,0,1,,,,0,72,75
57344,note_on,,,,,0,0,2,,,,1,56,64
57344,note_off,,,,,0,0,2,,,,1,67,0
57344,note_off,,,,,0,0,2,,,,1,63,0
57344,note_off,,,,,512,0,2,,,,1,58,0
57344,note_off,,,,,64,0,1,,,,0,72,0
57344,note_off,,,,,0,0,1,,,,0,72,0
57344,note_on,,,,,0,0,1,,,,0,70,75
57856,note_off,,,,,512,0,1,,,,0,70,0
57856,note_on,,,,,0,0,2,,,,1,63,64
57856,note_on,,,,,0,0,2,,,,1,67,64
57856,note_off,,,,,512,0,2,,,,1,56,0
57856,note_on,,,,,0,0,2,,,,1,61,64
57856,note_on,,,,,0,0,1,,,,0,70,75
58368,note_on,,,,,0,0,2,,,,1,56,64
58368,note_off,,,,,512,0,1,,,,0,70,0
58368,note_on,,,,,0,0,1,,,,0,72,75
58368,note_off,,,,,0,0,2,,,,1,63,0
58368,note_off,,,,,512,0,2,,,,1,61,0
58368,note_off,,,,,0,0,2,,,,1,67,0
58624,note_off,,,,,256,0,1,,,,0,72,0
58624,note_on,,,,,0,0,1,,,,0,70,75
58880,note_on,,,,,0,0,2,,,,1,63,64
58880,note_on,,,,,0,0,2,,,,1,67,64
58880,note_on,,,,,0,0,2,,,,1,61,64
58880,note_off,,,,,512,0,2,,,,1,56,0
58880,note_off,,,,,256,0,1,,,,0,70,0
58880,note_on,,,,,0,0,1,,,,0,68,75
59136,note_off,,,,,256,0,1,,,,0,68,0
59136,note_on,,,,,0,0,1,,,,0,70,75
59392,note_off,,,,,0,0,2,,,,1,67,0
59392,note_on,,,,,0,0,2,,,,1,56,64
59392,note_on,,,,,0,0,1,,,,0,70,75
59392,note_off,,,,,256,0,1,,,,0,70,0
59392,note_off,,,,,512,0,2,,,,1,61,0
59392,note_off,,,,,0,0,2,,,,1,63,0
59904,note_on,,,,,0,0,2,,,,1,68,64
59904,note_on,,,,,0,0,2,,,,1,63,64
59904,note_on,,,,,0,0,2,,,,1,60,64
59904,note_off,,,,,512,0,2,,,,1,56,0
60416,note_on,,,,,0,0,1,,,,0,72,75
60416,note_off,,,,,512,0,2,,,,1,60,0
60416,note_off,,,,,1024,0,1,,,,0,70,0
60416,note_off,,,,,0,0,2,,,,1,63,0
60416,note_off,,,,,0,0,2,,,,1,68,0
60416,note_on,,,,,0,0,2,,,,1,56,64
60928,note_on,,,,,0,0,2,,,,1,68,64
60928,note_off,,,,,512,0,2,,,,1,56,0
60928,note_on,,,,,0,0,2,,,,1,60,64
60928,note_on,,,,,0,0,2,,,,1,63,64
61376,note_on,,,,,960,0,1,,,,0,75,75
61440,note_on,,,,,0,0,1,,,,0,80,75
61440,note_off,,,,,0,0,2,,,,1,68,0
61440,note_on,,,,,0,0,1,,,,0,72,75
61440,note_off,,,,,0,0,1,,,,0,75,0
61440,note_off,,,,,512,0,2,,,,1,60,0
61440,note_on,,,,,0,0,2,,,,1,56,64
61440,note_off,,,,,0,0,2,,,,1,63,0
61440,note_off,,,,,64,0,1,,,,0,72,0
61952,note_off,,,,,512,0,2,,,,1,56,0
61952,note_on,,,,,0,0,2,,,,1,68,64
61952,note_on,,,,,0,0,2,,,,1,63,64
61952,note_on,,,,,0,0,2,,,,1,60,64
62400,note_on,,,,,960,0,1,,,,0,75,75
62464,note_off,,,,,0,0,2,,,,1,63,0
62464,note_off,,,,,512,0,2,,,,1,60,0
62464,note_on,,,,,0,0,2,,,,1,56,64
62464,note_on,,,,,0,0,1,,,,0,72,75
62464,note_off,,,,,0,0,1,,,,0,75,0
62464,note_off,,,,,0,0,1,,,,0,80,0
62464,note_off,,,,,64,0,1,,,,0,72,0
62464,note_on,,,,,0,0,1,,,,0,80,75
62464,note_off,,,,,0,0,2,,,,1,68,0
62976,note_off,,,,,512,0,2,,,,1,56,0
62976,note_on,,,,,0,0,2,,,,1,68,64
62976,note_on,,,,,0,0,2,,,,1,63,64
62976,note_on,,,,,0,0,2,,,,1,60,64
63488,note_on,,,,,0,0,2,,,,1,49,64
63488,note_off,,,,,0,0,2,,,,1,68,0
63488,note_off,,,,,0,0,2,,,,1,63,0
63488,note_off,,,,,512,0,2,,,,1,60,0
63488,note_on,,,,,0,0,1,,,,0,79,75
63488,note_on,,,,,0,0,1,,,,0,75,75
63488,note_off,,,,,0,0,1,,,,0,80,0
63488,note_off,,,,,1024,0,1,,,,0,72,0
63744,note_on,,,,,0,0,1,,,,0,73,75
63744,note_on,,,,,0,0,1,,,,0,77,75
63744,note_off,,,,,0,0,1,,,,0,79,0
63744,note_off,,,,,256,0,1,,,,0,75,0
64000,note_off,,,,,256,0,1,,,,0,73,0
64000,note_off,,,,,512,0,2,,,,1,49,0
64000,note_on,,,,,0,0,1,,,,0,72,75
64000,note_on,,,,,0,0,1,,,,0,76,75
64000,note_on,,,,,0,0,2,,,,1,61,64
64000,note_on,,,,,0,0,2,,,,1,65,64
64000,note_off,,,,,0,0,1,,,,0,77,0
64256,note_off,,,,,256,0,1,,,,0,72,0
64256,note_on,,,,,0,0,1,,,,0,73,75
64256,note_on,,,,,0,0,1,,,,0,77,75
64256,note_off,,,,,0,0,1,,,,0,76,0
64512,note_off,,,,,512,0,2,,,,1,61,0
64512,note_off,,,,,0,0,2,,,,1,65,0
64512,note_off,,,,,256,0,1,,,,0,73,0
64512,note_off,,,,,0,0,1,,,,0,77,0
64512,note_on,,,,,0,0,1,,,,0,73,75
64512,note_on,,,,,0,0,1,,,,0,77,75
64512,note_on,,,,,0,0,2,,,,1,49,64
65024,note_on,,,,,0,0,2,,,,1,65,64
65024,note_off,,,,,512,0,2,,,,1,49,0
65024,note_on,,,,,0,0,2,,,,1,61,64
65536,note_off,,,,,0,0,1,,,,0,77,0
65536,note_on,,,,,0,0,1,,,,0,67,75
65536,note_off,,,,,1024,0,1,,,,0,73,0
65536,note_off,,,,,512,0,2,,,,1,61,0
65536,note_off,,,,,0,0,2,,,,1,65,0
65536,note_on,,,,,0,0,2,,,,1,51,64
65536,note_on,,,,,0,0,1,,,,0,77,75
65536,note_on,,,,,0,0,1,,,,0,73,75
65792,note_on,,,,,0,0,1,,,,0,75,75
65792,note_off,,,,,256,0,1,,,,0,77,0
66048,note_off,,,,,512,0,2,,,,1,51,0
66048,note_on,,,,,0,0,2,,,,1,58,64
66048,note_on,,,,,0,0,2,,,,1,61,64
66048,note_on,,,,,0,0,2,,,,1,63,64
66048,note_off,,,,,256,0,1,,,,0,75,0
66048,note_off,,,,,0,0,1,,,,0,73,0
66048,note_off,,,,,0,0,1,,,,0,67,0
66048,note_on,,,,,0,0,1,,,,0,67,75
66048,note_on,,,,,0,0,1,,,,0,75,75
66048,note_on,,,,,0,0,1,,,,0,73,75
66304,note_on,,,,,0,0,1,,,,0,68,75
66304,note_off,,,,,256,0,1,,,,0,67,0
66560,note_on,,,,,0,0,2,,,,1,51,64
66560,note_off,,,,,0,0,2,,,,1,63,0
66560,note_off,,,,,0,0,2,,,,1,61,0
66560,note_on,,,,,0,0,1,,,,0,70,75
66560,note_off,,,,,256,0,1,,,,0,68,0
66560,note_off,,,,,512,0,2,,,,1,58,0
67072,note_off,,,,,0,0,1,,,,0,75,0
67072,note_on,,,,,0,0,2,,,,1,61,64
67072,note_off,,,,,512,0,2,,,,1,51,0
67072,note_on,,,,,0,0,2,,,,1,58,64
67072,note_on,,,,,0,0,2,,,,1,63,64
67072,note_off,,,,,0,0,1,,,,0,70,0
67072,note_on,,,,,0,0,1,,,,0,73,75
67072,note_on,,,,,0,0,1,,,,0,68,75
67072,note_on,,,,,0,0,1,,,,0,75,75
67072,note_off,,,,,512,0,1,,,,0,73,0
67328,note_off,,,,,256,0,1,,,,0,68,0
67328,note_on,,,,,0,0,1,,,,0,67,75
67584,note_off,,,,,256,0,1,,,,0,73,0
67584,note_off,,,,,0,0,1,,,,0,75,0
67584,note_off,,,,,0,0,1,,,,0,67,0
67584,note_on,,,,,0,0,1,,,,0,68,75
67584,note_on,,,,,0,0,1,,,,0,72,75
67584,note_on,,,,,0,0,1,,,,0,75,75
67584,note_off,,,,,512,0,2,,,,1,58,0
67584,note_off,,,,,0,0,2,,,,1,61,0
67584,note_off,,,,,0,0,2,,,,1,63,0
67584,note_on,,,,,0,0,2,,,,1,56,64
68096,note_off,,,,,512,0,2,,,,1,56,0
68096,note_on,,,,,0,0,2,,,,1,56,64
68096,note_on,,,,,0,0,2,,,,1,60,64
68096,note_on,,,,,0,0,2,,,,1,63,64
68608,note_off,,,,,0,0,2,,,,1,60,0
68608,note_off,,,,,512,0,2,,,,1,56,0
68608,note_on,,,,,0,0,1,,,,0,75,75
68608,note_on,,,,,0,0,1,,,,0,72,75
68608,note_on,,,,,0,0,1,,,,0,68,75
68608,note_off,,,,,0,0,2,,,,1,63,0
68608,note_off,,,,,1024,0,1,,,,0,68,0
68608,note_on,,,,,0,0,2,,,,1,56,64
68608,note_off,,,,,0,0,1,,,,0,72,0
68608,note_off,,,,,0,0,1,,,,0,75,0
69120,note_on,,,,,0,0,2,,,,1,63,64
69120,note_off,,,,,512,0,2,,,,1,56,0
69120,note_on,,,,,0,0,2,,,,1,56,64
69120,note_on,,,,,0,0,2,,,,1,60,64
69632,note_off,,,,,1024,0,1,,,,0,68,0
69632,note_off,,,,,0,0,1,,,,0,72,0
69632,note_on,,,,,0,0,1,,,,0,67,110
69632,note_on,,,,,0,0,1,,,,0,70,110
69632,note_on,,,,,0,0,1,,,,0,72,110
69632,note_on,,,,,0,0,1,,,,0,76,110
69632,note_off,,,,,512,0,2,,,,1,56,0
69632,note_off,,,,,0,0,2,,,,1,60,0
69632,note_off,,,,,0,0,2,,,,1,63,0
69632,note_on,,,,,0,0,2,,,,1,48,75
69632,note_off,,,,,0,0,1,,,,0,75,0
70144,note_off,,,,,512,0,2,,,,1,48,0
70144,note_on,,,,,0,0,2,,,,1,64,75
70144,note_on,,,,,0,0,2,,,,1,60,75
70656,note_on,,,,,0,0,1,,,,0,76,110
70656,note_on,,,,,0,0,1,,,,0,70,110
70656,note_off,,,,,0,0,1,,,,0,72,0
70656,note_off,,,,,0,0,1,,,,0,70,0
70656,note_off,,,,,1024,0,1,,,,0,67,0
70656,note_on,,,,,0,0,1,,,,0,72,110
70656,note_on,,,,,0,0,1,,,,0,67,110
70656,note_off,,,,,0,0,1,,,,0,76,0
70656,note_on,,,,,0,0,2,,,,1,48,75
70656,note_off,,,,,0,0,2,,,,1,64,0
70656,note_off,,,,,512,0,2,,,,1,60,0
71168,note_on,,,,,0,0,2,,,,1,64,75
71168,note_on,,,,,0,0,2,,,,1,60,75
71168,note_off,,,,,512,0,2,,,,1,48,0
71616,note_on,,,,,960,0,1,,,,0,77,88
71680,note_on,,,,,0,0,1,,,,0,72,88
71680,note_on,,,,,0,0,1,,,,0,80,88
71680,note_off,,,,,0,0,1,,,,0,77,0
71680,note_off,,,,,0,0,1,,,,0,76,0
71680,note_off,,,,,0,0,1,,,,0,70,0
71680,note_off,,,,,64,0,1,,,,0,67,0
71680,note_on,,,,,0,0,2,,,,1,48,75
71680,note_off,,,,,0,0,2,,,,1,64,0
71680,note_off,,,,,512,0,2,,,,1,60,0
71680,note_on,,,,,0,0,1,,,,0,68,88
71680,note_off,,,,,0,0,1,,,,0,72,0
72192,note_off,,,,,0,0,1,,,,0,72,0
72192,note_off,,,,,0,0,1,,,,0,68,0
72192,note_on,,,,,0,0,1,,,,0,72,88
72192,note_on,,,,,0,0,1,,,,0,68,88
72192,note_off,,,,,512,0,2,,,,1,48,0
72192,note_off,,,,,512,0,1,,,,0,80,0
72192,note_on,,,,,0,0,1,,,,0,80,88
72192,note_on,,,,,0,0,2,,,,1,60,75
72192,note_on,,,,,0,0,2,,,,1,65,75
72448,note_off,,,,,256,0,1,,,,0,80,0
72448,note_on,,,,,0,0,1,,,,0,79,88
72704,note_off,,,,,512,0,2,,,,1,60,0
72704,note_off,,,,,0,0,2,,,,1,65,0
72704,note_on,,,,,0,0,2,,,,1,48,75
72704,note_off,,,,,256,0,1,,,,0,79,0
72704,note_on,,,,,0,0,1,,,,0,77,88
73216,note_off,,,,,512,0,1,,,,0,77,0
73216,note_on,,,,,0,0,2,,,,1,65,75
73216,note_on,,,,,0,0,2,,,,1,60,75
73216,note_off,,,,,512,0,2,,,,1,48,0
73216,note_on,,,,,0,0,1,,,,0,75,88
73472,note_on,,,,,0,0,1,,,,0,73,88
73472,note_off,,,,,256,0,1,,,,0,75,0
73728,note_off,,,,,512,0,2,,,,1,60,0
73728,note_off,,,,,0,0,2,,,,1,65,0
73728,note_on,,,,,0,0,2,,,,1,48,75
73728,note_off,,,,,256,0,1,,,,0,73,0
73728,note_off,,,,,0,0,1,,,,0,68,0
73728,note_off,,,,,0,0,1,,,,0,72,0
73728,note_on,,,,,0,0,1,,,,0,67,110
73728,note_on,,,,,0,0,1,,,,0,70,110
73728,note_on,,,,,0,0,1,,,,0,72,110
74240,note_off,,,,,512,0,2,,,,1,48,0
74240,note_on,,,,,0,0,2,,,,1,64,75
74240,note_on,,,,,0,0,2,,,,1,60,75
74752,note_off,,,,,512,0,2,,,,1,60,0
74752,note_off,,,,,0,0,2,,,,1,64,0
74752,note_on,,,,,0,0,2,,,,1,48,75
74752,note_on,,,,,0,0,1,,,,0,76,110
74752,note_on,,,,,0,0,1,,,,0,72,110
74752,note_on,,,,,0,0,1,,,,0,67,110
74752,note_off,,,,,0,0,1,,,,0,72,0
74752,note_off,,,,,0,0,1,,,,0,70,0
74752,note_off,,,,,1024,0,1,,,,0,67,0
74752,note_on,,,,,0,0,1,,,,0,70,110
75264,note_on,,,,,0,0,2,,,,1,64,75
75264,note_on,,,,,0,0,2,,,,1,60,75
75264,note_off,,,,,512,0,2,,,,1,48,0
75712,note_on,,,,,960,0,1,,,,0,77,112
75776,note_off,,,,,512,0,2,,,,1,60,0
75776,note_on,,,,,0,0,1,,,,0,80,112
75776,note_on,,,,,0,0,2,,,,1,48,86
75776,note_on,,,,,0,0,1,,,,0,72,112
75776,note_on,,,,,0,0,1,,,,0,68,112
75776,note_off,,,,,0,0,2,,,,1,64,0
75776,note_off,,,,,0,0,1,,,,0,77,0
75776,note_off,,,,,0,0,1,,,,0,76,0
75776,note_off,,,,,0,0,1,,,,0,72,0
75776,note_off,,,,,0,0,1,,,,0,70,0
75776,note_off,,,,,64,0,1,,,,0,67,0
76288,note_on,,,,,0,0,1,,,,0,72,106
76288,note_off,,,,,0,0,1,,,,0,68,0
76288,note_off,,,,,0,0,1,,,,0,72,0
76288,note_on,,,,,0,0,1,,,,0,80,106
76288,note_off,,,,,512,0,1,,,,0,80,0
76288,note_on,,,,,0,0,1,,,,0,68,106
76288,note_off,,,,,512,0,2,,,,1,48,0
76288,note_on,,,,,0,0,2,,,,1,60,79
76288,note_on,,,,,0,0,2,,,,1,65,79
76544,note_off,,,,,256,0,1,,,,0,80,0
76544,note_on,,,,,0,0,1,,,,0,79,103
76800,note_off,,,,,512,0,2,,,,1,60,0
76800,note_off,,,,,0,0,2,,,,1,65,0
76800,note_on,,,,,0,0,2,,,,1,48,73
76800,note_on,,,,,0,0,1,,,,0,77,100
76800,note_off,,,,,256,0,1,,,,0,79,0
77312,note_on,,,,,0,0,2,,,,1,60,66
77312,note_on,,,,,0,0,2,,,,1,65,66
77312,note_off,,,,,512,0,1,,,,0,77,0
77312,note_on,,,,,0,0,1,,,,0,75,94
77312,note_off,,,,,512,0,2,,,,1,48,0
77568,note_off,,,,,256,0,1,,,,0,75,0
77568,note_on,,,,,0,0,1,,,,0,73,91
77824,note_on,,,,,0,0,2,,,,1,44,49
77824,note_off,,,,,0,0,2,,,,1,65,0
77824,note_off,,,,,512,0,2,,,,1,60,0
77824,note_on,,,,,0,0,1,,,,0,68,64
77824,note_off,,,,,0,0,1,,,,0,72,0
77824,note_on,,,,,0,0,1,,,,0,72,64
77824,note_off,,,,,256,0,1,,,,0,73,0
77824,note_off,,,,,0,0,1,,,,0,68,0
78336,note_off,,,,,512,0,2,,,,1,44,0
78336,note_on,,,,,0,0,2,,,,1,56,53
78336,note_on,,,,,0,0,2,,,,1,60,53
78848,note_on,,,,,0,0,2,,,,1,45,57
78848,note_off,,,,,0,0,1,,,,0,72,0
78848,note_on,,,,,0,0,1,,,,0,66,72
78848,note_off,,,,,512,0,2,,,,1,56,0
78848,note_off,,,,,0,0,2,,,,1,60,0
78848,note_on,,,,,0,0,1,,,,0,72,72
78848,note_off,,,,,1024,0,1,,,,0,68,0
79360,note_off,,,,,512,0,2,,,,1,45,0
79360,note_on,,,,,0,0,2,,,,1,60,61
79360,note_on,,,,,0,0,2,,,,1,54,61
79872,note_off,,,,,512,0,2,,,,1,54,0
79872,note_on,,,,,0,0,2,,,,1,46,110
79872,note_off,,,,,1024,0,1,,,,0,66,0
79872,note_off,,,,,0,0,1,,,,0,72,0
79872,note_on,,,,,0,0,1,,,,0,72,125
79872,note_off,,,,,0,0,2,,,,1,60,0
79872,note_on,,,,,0,0,1,,,,0,65,125
80128,note_off,,,,,256,0,1,,,,0,65,0
80128,note_on,,,,,0,0,1,,,,0,73,122
80128,note_off,,,,,0,0,1,,,,0,72,0
80384,note_off,,,,,256,0,1,,,,0,73,0
80384,note_on,,,,,0,0,1,,,,0,75,119
80384,note_on,,,,,0,0,2,,,,1,58,104
80384,note_on,,,,,0,0,2,,,,1,53,104
80384,note_off,,,,,512,0,2,,,,1,46,0
80640,note_off,,,,,256,0,1,,,,0,75,0
80640,note_on,,,,,0,0,1,,,,0,73,116
80896,note_off,,,,,512,0,2,,,,1,53,0
80896,note_off,,,,,0,0,2,,,,1,58,0
80896,note_on,,,,,0,0,2,,,,1,37,97
80896,note_on,,,,,0,0,2,,,,1,65,97
80896,note_off,,,,,256,0,1,,,,0,73,0
80896,note_on,,,,,0,0,1,,,,0,73,112
81408,note_on,,,,,0,0,2,,,,1,53,91
81408,note_on,,,,,0,0,2,,,,1,49,91
81408,note_off,,,,,0,0,2,,,,1,65,0
81408,note_off,,,,,512,0,2,,,,1,37,0
81408,note_on,,,,,0,0,1,,,,0,72,106
81408,note_on,,,,,0,0,1,,,,0,63,106
81408,note_off,,,,,512,0,1,,,,0,73,0
81664,note_off,,,,,0,0,1,,,,0,72,0
81664,note_on,,,,,0,0,1,,,,0,61,103
81664,note_off,,,,,256,0,1,,,,0,63,0
81664,note_on,,,,,0,0,1,,,,0,70,103
81920,note_off,,,,,0,0,1,,,,0,70,0
81920,note_on,,,,,0,0,1,,,,0,60,64
81920,note_on,,,,,0,0,1,,,,0,68,64
81920,note_off,,,,,256,0,1,,,,0,61,0
81920,note_off,,,,,0,0,2,,,,1,53,0
81920,note_on,,,,,0,0,2,,,,1,39,49
81920,note_off,,,,,512,0,2,,,,1,49,0
82432,note_on,,,,,0,0,1,,,,0,68,64
82432,note_on,,,,,0,0,1,,,,0,60,64
82432,note_off,,,,,0,0,1,,,,0,68,0
82432,note_off,,,,,512,0,1,,,,0,60,0
82432,note_on,,,,,0,0,2,,,,1,56,49
82432,note_on,,,,,0,0,2,,,,1,51,49
82432,note_off,,,,,512,0,2,,,,1,39,0
82944,note_on,,,,,0,0,2,,,,1,39,49
82944,note_off,,,,,512,0,2,,,,1,51,0
82944,note_off,,,,,512,0,1,,,,0,60,0
82944,note_off,,,,,0,0,1,,,,0,68,0
82944,note_on,,,,,0,0,1,,,,0,60,64
82944,note_on,,,,,0,0,1,,,,0,68,64
82944,note_off,,,,,0,0,2,,,,1,56,0
83200,note_on,,,,,0,0,1,,,,0,70,64
83200,note_off,,,,,0,0,1,,,,0,68,0
83200,note_off,,,,,256,0,1,,,,0,60,0
83200,note_on,,,,,0,0,1,,,,0,61,64
83456,note_off,,,,,256,0,1,,,,0,61,0
83456,note_on,,,,,0,0,1,,,,0,72,64
83456,note_on,,,,,0,0,2,,,,1,55,49
83456,note_off,,,,,0,0,1,,,,0,70,0
83456,note_on,,,,,0,0,2,,,,1,51,49
83456,note_off,,,,,512,0,2,,,,1,39,0
83456,note_on,,,,,0,0,1,,,,0,63,64
83712,note_on,,,,,0,0,1,,,,0,70,64
83712,note_on,,,,,0,0,1,,,,0,61,64
83712,note_off,,,,,0,0,1,,,,0,72,0
83712,note_off,,,,,256,0,1,,,,0,63,0
83968,note_off,,,,,0,0,2,,,,1,55,0
83968,note_on,,,,,0,0,2,,,,1,44,49
83968,note_on,,,,,0,0,1,,,,0,60,64
83968,note_off,,,,,0,0,1,,,,0,70,0
83968,note_off,,,,,256,0,1,,,,0,61,0
83968,note_on,,,,,0,0,1,,,,0,68,64
83968,note_off,,,,,512,0,2,,,,1,51,0
84480,note_on,,,,,0,0,2,,,,1,56,49
84480,note_on,,,,,0,0,2,,,,1,51,49
84480,note_off,,,,,512,0,2,,,,1,44,0
84992,note_off,,,,,1024,0,1,,,,0,60,0
84992,note_on,,,,,0,0,1,,,,0,68,64
84992,note_on,,,,,0,0,2,,,,1,44,49
84992,note_off,,,,,0,0,2,,,,1,56,0
84992,note_off,,,,,512,0,2,,,,1,51,0
84992,note_on,,,,,0,0,1,,,,0,60,64
84992,note_off,,,,,0,0,1,,,,0,68,0
85504,note_on,,,,,0,0,2,,,,1,51,49
85504,note_off,,,,,512,0,2,,,,1,44,0
85504,note_on,,,,,0,0,2,,,,1,56,49
86016,note_on,,,,,0,0,1,,,,0,72,110
86016,note_off,,,,,1024,0,1,,,,0,60,0
86016,note_off,,,,,0,0,1,,,,0,68,0
86016,note_on,,,,,0,0,1,,,,0,67,110
86016,note_on,,,,,0,0,1,,,,0,70,110
86016,note_on,,,,,0,0,1,,,,0,76,110
86016,note_on,,,,,0,0,2,,,,1,48,75
86016,note_off,,,,,512,0,2,,,,1,51,0
86016,note_off,,,,,0,0,2,,,,1,56,0
86528,note_on,,,,,0,0,2,,,,1,64,75
86528,note_on,,,,,0,0,2,,,,1,60,75
86528,note_off,,,,,512,0,2,,,,1,48,0
87040,note_on,,,,,0,0,1,,,,0,72,110
87040,note_off,,,,,512,0,2,,,,1,60,0
87040,note_on,,,,,0,0,1,,,,0,76,110
87040,note_on,,,,,0,0,2,,,,1,48,75
87040,note_off,,,,,0,0,2,,,,1,64,0
87040,note_off,,,,,0,0,1,,,,0,70,0
87040,note_on,,,,,0,0,1,,,,0,70,110
87040,note_on,,,,,0,0,1,,,,0,67,110
87040,note_off,,,,,0,0,1,,,,0,76,0
87040,note_off,,,,,0,0,1,,,,0,72,0
87040,note_off,,,,,1024,0,1,,,,0,67,0
87552,note_off,,,,,512,0,2,,,,1,48,0
87552,note_on,,,,,0,0,2,,,,1,60,75
87552,note_on,,,,,0,0,2,,,,1,64,75
88000,note_on,,,,,960,0,1,,,,0,77,88
88064,note_off,,,,,512,0,2,,,,1,60,0
88064,note_off,,,,,0,0,2,,,,1,64,0
88064,note_on,,,,,0,0,2,,,,1,48,75
88064,note_off,,,,,0,0,1,,,,0,70,0
88064,note_off,,,,,0,0,1,,,,0,72,0
88064,note_off,,,,,0,0,1,,,,0,76,0
88064,note_on,,,,,0,0,1,,,,0,80,88
88064,note_off,,,,,0,0,1,,,,0,77,0
88064,note_on,,,,,0,0,1,,,,0,72,88
88064,note_on,,,,,0,0,1,,,,0,68,88
88064,note_off,,,,,64,0,1,,,,0,67,0
88576,note_on,,,,,0,0,1,,,,0,72,88
88576,note_on,,,,,0,0,1,,,,0,68,88
88576,note_on,,,,,0,0,1,,,,0,80,88
88576,note_off,,,,,0,0,1,,,,0,72,0
88576,note_on,,,,,0,0,2,,,,1,65,75
88576,note_on,,,,,0,0,2,,,,1,60,75
88576,note_off,,,,,512,0,2,,,,1,48,0
88576,note_off,,,,,512,0,1,,,,0,80,0
88576,note_off,,,,,0,0,1,,,,0,68,0
88832,note_off,,,,,256,0,1,,,,0,80,0
88832,note_on,,,,,0,0,1,,,,0,79,88
89088,note_on,,,,,0,0,1,,,,0,77,88
89088,note_off,,,,,0,0,2,,,,1,65,0
89088,note_on,,,,,0,0,2,,,,1,48,75
89088,note_off,,,,,256,0,1,,,,0,79,0
89088,note_off,,,,,512,0,2,,,,1,60,0
89600,note_off,,,,,512,0,1,,,,0,77,0
89600,note_on,,,,,0,0,2,,,,1,60,75
89600,note_on,,,,,0,0,2,,,,1,65,75
89600,note_on,,,,,0,0,1,,,,0,75,88
89600,note_off,,,,,512,0,2,,,,1,48,0
89856,note_off,,,,,256,0,1,,,,0,75,0
89856,note_on,,,,,0,0,1,,,,0,73,88
90112,note_off,,,,,0,0,1,,,,0,72,0
90112,note_off,,,,,0,0,1,,,,0,68,0
90112,note_on,,,,,0,0,1,,,,0,67,110
90112,note_on,,,,,0,0,1,,,,0,70,110
90112,note_on,,,,,0,0,1,,,,0,72,110
90112,note_on,,,,,0,0,2,,,,1,48,75
90112,note_off,,,,,0,0,2,,,,1,65,0
90112,note_off,,,,,512,0,2,,,,1,60,0
90112,note_off,,,,,256,0,1,,,,0,73,0
90624,note_on,,,,,0,0,2,,,,1,64,75
90624,note_on,,,,,0,0,2,,,,1,60,75
90624,note_off,,,,,512,0,2,,,,1,48,0
91136,note_on,,,,,0,0,1,,,,0,72,110
91136,note_on,,,,,0,0,1,,,,0,76,110
91136,note_on,,,,,0,0,1,,,,0,67,110
91136,note_off,,,,,0,0,1,,,,0,72,0
91136,note_off,,,,,0,0,1,,,,0,70,0
91136,note_off,,,,,1024,0,1,,,,0,67,0
91136,note_on,,,,,0,0,2,,,,1,48,75
91136,note_off,,,,,0,0,2,,,,1,64,0
91136,note_off,,,,,512,0,2,,,,1,60,0
91136,note_on,,,,,0,0,1,,,,0,70,110
91648,note_on,,,,,0,0,2,,,,1,64,75
91648,note_on,,,,,0,0,2,,,,1,60,75
91648,note_off,,,,,512,0,2,,,,1,48,0
92096,note_on,,,,,960,0,1,,,,0,77,112
92160,note_on,,,,,0,0,1,,,,0,72,112
92160,note_off,,,,,0,0,1,,,,0,70,0
92160,note_on,,,,,0,0,2,,,,1,48,86
92160,note_off,,,,,0,0,2,,,,1,64,0
92160,note_off,,,,,512,0,2,,,,1,60,0
92160,note_on,,,,,0,0,1,,,,0,68,112
92160,note_off,,,,,64,0,1,,,,0,67,0
92160,note_off,,,,,0,0,1,,,,0,77,0
92160,note_off,,,,,0,0,1,,,,0,76,0
92160,note_off,,,,,0,0,1,,,,0,72,0
92160,note_on,,,,,0,0,1,,,,0,80,112
92672,note_off,,,,,512,0,1,,,,0,80,0
92672,note_on,,,,,0,0,1,,,,0,80,106
92672,note_on,,,,,0,0,1,,,,0,68,106
92672,note_on,,,,,0,0,2,,,,1,65,79
92672,note_off,,,,,0,0,1,,,,0,68,0
92672,note_off,,,,,0,0,1,,,,0,72,0
92672,note_off,,,,,512,0,2,,,,1,48,0
92672,note_on,,,,,0,0,2,,,,1,60,79
92672,note_on,,,,,0,0,1,,,,0,72,106
92928,note_on,,,,,0,0,1,,,,0,79,103
92928,note_off,,,,,256,0,1,,,,0,80,0
93184,note_off,,,,,512,0,2,,,,1,60,0
93184,note_on,,,,,0,0,1,,,,0,77,100
93184,note_off,,,,,256,0,1,,,,0,79,0
93184,note_off,,,,,0,0,2,,,,1,65,0
93184,note_on,,,,,0,0,2,,,,1,48,73
93696,note_on,,,,,0,0,2,,,,1,60,66
93696,note_off,,,,,512,0,2,,,,1,48,0
93696,note_off,,,,,512,0,1,,,,0,77,0
93696,note_on,,,,,0,0,1,,,,0,75,94
93696,note_on,,,,,0,0,2,,,,1,65,66
93952,note_off,,,,,256,0,1,,,,0,75,0
93952,note_on,,,,,0,0,1,,,,0,73,91
94208,note_off,,,,,512,0,2,,,,1,60,0
94208,note_off,,,,,0,0,2,,,,1,65,0
94208,note_on,,,,,0,0,2,,,,1,44,49
94208,note_off,,,,,256,0,1,,,,0,73,0
94208,note_off,,,,,0,0,1,,,,0,68,0
94208,note_on,,,,,0,0,1,,,,0,72,64
94208,note_on,,,,,0,0,1,,,,0,68,64
94208,note_off,,,,,0,0,1,,,,0,72,0
94720,note_off,,,,,512,0,2,,,,1,44,0
94720,note_on,,,,,0,0,2,,,,1,56,53
94720,note_on,,,,,0,0,2,,,,1,60,53
95232,note_on,,,,,0,0,1,,,,0,66,72
95232,note_off,,,,,0,0,1,,,,0,72,0
95232,note_off,,,,,1024,0,1,,,,0,68,0
95232,note_off,,,,,512,0,2,,,,1,56,0
95232,note_off,,,,,0,0,2,,,,1,60,0
95232,note_on,,,,,0,0,2,,,,1,45,57
95232,note_on,,,,,0,0,1,,,,0,72,72
95744,note_off,,,,,512,0,2,,,,1,45,0
95744,note_on,,,,,0,0,2,,,,1,60,61
95744,note_on,,,,,0,0,2,,,,1,54,61
96256,note_on,,,,,0,0,2,,,,1,46,110
96256,note_off,,,,,0,0,2,,,,1,60,0
96256,note_off,,,,,512,0,2,,,,1,54,0
96256,note_on,,,,,0,0,1,,,,0,72,125
96256,note_on,,,,,0,0,1,,,,0,65,125
96256,note_off,,,,,1024,0,1,,,,0,66,0
96256,note_off,,,,,0,0,1,,,,0,72,0
96512,note_off,,,,,0,0,1,,,,0,72,0
96512,note_on,,,,,0,0,1,,,,0,73,122
96512,note_off,,,,,256,0,1,,,,0,65,0
96768,note_on,,,,,0,0,1,,,,0,75,119
96768,note_off,,,,,256,0,1,,,,0,73,0
96768,note_on,,,,,0,0,2,,,,1,53,104
96768,note_on,,,,,0,0,2,,,,1,58,104
96768,note_off,,,,,512,0,2,,,,1,46,0
97024,note_off,,,,,256,0,1,,,,0,75,0
97024,note_on,,,,,0,0,1,,,,0,73,116
97280,note_off,,,,,512,0,2,,,,1,53,0
97280,note_off,,,,,0,0,2,,,,1,58,0
97280,note_on,,,,,0,0,2,,,,1,37,97
97280,note_off,,,,,256,0,1,,,,0,73,0
97280,note_on,,,,,0,0,1,,,,0,73,112
97280,note_on,,,,,0,0,2,,,,1,65,97
97792,note_off,,,,,512,0,1,,,,0,73,0
97792,note_on,,,,,0,0,1,,,,0,63,106
97792,note_off,,,,,0,0,2,,,,1,65,0
97792,note_on,,,,,0,0,1,,,,0,72,106
97792,note_on,,,,,0,0,2,,,,1,49,91
97792,note_on,,,,,0,0,2,,,,1,53,91
97792,note_off,,,,,512,0,2,,,,1,37,0
98048,note_off,,,,,256,0,1,,,,0,63,0
98048,note_off,,,,,0,0,1,,,,0,72,0
98048,note_on,,,,,0,0,1,,,,0,61,103
98048,note_on,,,,,0,0,1,,,,0,70,103
98304,note_off,,,,,512,0,2,,,,1,49,0
98304,note_off,,,,,0,0,2,,,,1,53,0
98304,note_on,,,,,0,0,2,,,,1,39,49
98304,note_on,,,,,0,0,1,,,,0,68,64
98304,note_off,,,,,256,0,1,,,,0,61,0
98304,note_off,,,,,0,0,1,,,,0,70,0
98304,note_on,,,,,0,0,1,,,,0,60,64
98816,note_off,,,,,512,0,1,,,,0,60,0
98816,note_on,,,,,0,0,1,,,,0,68,64
98816,note_off,,,,,512,0,2,,,,1,39,0
98816,note_on,,,,,0,0,2,,,,1,51,49
98816,note_on,,,,,0,0,2,,,,1,56,49
98816,note_off,,,,,0,0,1,,,,0,68,0
98816,note_on,,,,,0,0,1,,,,0,60,64
99328,note_off,,,,,512,0,2,,,,1,51,0
99328,note_on,,,,,0,0,2,,,,1,39,49
99328,note_off,,,,,512,0,1,,,,0,60,0
99328,note_on,,,,,0,0,1,,,,0,60,64
99328,note_off,,,,,0,0,2,,,,1,56,0
99328,note_on,,,,,0,0,1,,,,0,68,64
99328,note_off,,,,,0,0,1,,,,0,68,0
99584,note_off,,,,,256,0,1,,,,0,60,0
99584,note_off,,,,,0,0,1,,,,0,68,0
99584,note_on,,,,,0,0,1,,,,0,61,64
99584,note_on,,,,,0,0,1,,,,0,70,64
99840,note_off,,,,,256,0,1,,,,0,61,0
99840,note_off,,,,,0,0,1,,,,0,70,0
99840,note_on,,,,,0,0,1,,,,0,63,64
99840,note_on,,,,,0,0,2,,,,1,51,49
99840,note_off,,,,,512,0,2,,,,1,39,0
99840,note_on,,,,,0,0,2,,,,1,55,49
99840,note_on,,,,,0,0,1,,,,0,72,64
100096,note_off,,,,,0,0,1,,,,0,72,0
100096,note_on,,,,,0,0,1,,,,0,61,64
100096,note_on,,,,,0,0,1,,,,0,70,64
100096,note_off,,,,,256,0,1,,,,0,63,0
100352,note_off,,,,,256,0,1,,,,0,61,0
100352,note_off,,,,,0,0,1,,,,0,70,0
100352,note_on,,,,,0,0,1,,,,0,60,64
100352,note_on,,,,,0,0,1,,,,0,68,64
100352,note_off,,,,,512,0,2,,,,1,51,0
100352,note_off,,,,,0,0,2,,,,1,55,0
100352,note_on,,,,,0,0,2,,,,1,44,49
100864,note_on,,,,,0,0,2,,,,1,56,49
100864,note_on,,,,,0,0,2,,,,1,51,49
100864,note_off,,,,,512,0,2,,,,1,44,0
101376,note_off,,,,,1024,0,1,,,,0,60,0
101376,note_on,,,,,0,0,2,,,,1,44,49
101376,note_off,,,,,0,0,2,,,,1,56,0
101376,note_off,,,,,512,0,2,,,,1,51,0
101376,note_off,,,,,0,0,1,,,,0,68,0
101376,note_on,,,,,0,0,1,,,,0,60,64
101376,note_on,,,,,0,0,1,,,,0,68,64
101888,note_on,,,,,0,0,2,,,,1,56,49
101888,note_on,,,,,0,0,2,,,,1,51,49
101888,note_off,,,,,512,0,2,,,,1,44,0
102336,note_on,,,,,960,0,1,,,,0,70,64
102400,note_off,,,,,0,0,1,,,,0,68,0
102400,note_off,,,,,0,0,1,,,,0,70,0
102400,note_on,,,,,0,0,1,,,,0,68,49
102400,note_off,,,,,512,0,2,,,,1,51,0
102400,note_off,,,,,0,0,2,,,,1,56,0
102400,note_on,,,,,0,0,2,,,,1,53,36
102400,note_off,,,,,64,0,1,,,,0,60,0
102912,note_off,,,,,512,0,1,,,,0,68,0
102912,note_on,,,,,0,0,1,,,,0,68,49
102912,note_off,,,,,512,0,2,,,,1,53,0
102912,note_on,,,,,0,0,2,,,,1,60,36
102912,note_on,,,,,0,0,2,,,,1,65,36
103168,note_off,,,,,256,0,1,,,,0,68,0
103168,note_on,,,,,0,0,1,,,,0,70,49
103424,note_off,,,,,256,0,1,,,,0,70,0
103424,note_on,,,,,0,0,1,,,,0,68,49
103424,note_off,,,,,512,0,2,,,,1,60,0
103424,note_off,,,,,0,0,2,,,,1,65,0
103424,note_on,,,,,0,0,2,,,,1,53,36
103936,note_off,,,,,512,0,2,,,,1,53,0
103936,note_off,,,,,512,0,1,,,,0,68,0
103936,note_on,,,,,0,0,1,,,,0,67,49
103936,note_on,,,,,0,0,2,,,,1,60,36
103936,note_on,,,,,0,0,2,,,,1,64,36
104320,note_on,,,,,384,0,1,,,,0,68,49
104384,note_off,,,,,64,0,1,,,,0,68,0
104384,note_on,,,,,0,0,1,,,,0,70,49
104448,note_on,,,,,0,0,1,,,,0,72,49
104448,note_on,,,,,0,0,1,,,,0,68,49
104448,note_off,,,,,512,0,2,,,,1,60,0
104448,note_off,,,,,0,0,1,,,,0,70,0
104448,note_on,,,,,0,0,2,,,,1,53,36
104448,note_off,,,,,0,0,2,,,,1,64,0
104448,note_off,,,,,64,0,1,,,,0,67,0
104960,note_on,,,,,0,0,2,,,,1,65,36
104960,note_on,,,,,0,0,2,,,,1,60,36
104960,note_off,,,,,512,0,2,,,,1,53,0
105344,note_on,,,,,896,0,1,,,,0,68,49
105408,note_off,,,,,64,0,1,,,,0,68,0
105408,note_on,,,,,0,0,1,,,,0,70,49
105472,note_off,,,,,512,0,2,,,,1,60,0
105472,note_off,,,,,0,0,2,,,,1,65,0
105472,note_on,,,,,0,0,2,,,,1,53,36
105472,note_off,,,,,64,0,1,,,,0,68,0
105472,note_off,,,,,0,0,1,,,,0,72,0
105472,note_off,,,,,0,0,1,,,,0,70,0
105472,note_on,,,,,0,0,1,,,,0,68,49
105472,note_on,,,,,0,0,1,,,,0,72,49
105984,note_off,,,,,512,0,2,,,,1,53,0
105984,note_on,,,,,0,0,2,,,,1,65,36
105984,note_on,,,,,0,0,2,,,,1,60,36
106432,note_on,,,,,960,0,1,,,,0,70,49
106496,note_on,,,,,0,0,1,,,,0,68,49
106496,note_off,,,,,0,0,1,,,,0,70,0
106496,note_off,,,,,0,0,1,,,,0,72,0
106496,note_off,,,,,64,0,1,,,,0,68,0
106496,note_off,,,,,512,0,2,,,,1,60,0
106496,note_off,,,,,0,0,2,,,,1,65,0
106496,note_on,,,,,0,0,2,,,,1,53,36
107008,note_off,,,,,512,0,1,,,,0,68,0
107008,note_on,,,,,0,0,2,,,,1,65,36
107008,note_off,,,,,512,0,2,,,,1,53,0
107008,note_on,,,,,0,0,2,,,,1,60,36
107008,note_on,,,,,0,0,1,,,,0,68,49
107264,note_off,,,,,256,0,1,,,,0,68,0
107264,note_on,,,,,0,0,1,,,,0,70,49
107520,note_off,,,,,512,0,2,,,,1,60,0
107520,note_off,,,,,256,0,1,,,,0,70,0
107520,note_on,,,,,0,0,2,,,,1,53,36
107520,note_on,,,,,0,0,1,,,,0,68,49
107520,note_off,,,,,0,0,2,,,,1,65,0
108032,note_off,,,,,512,0,2,,,,1,53,0
108032,note_on,,,,,0,0,2,,,,1,60,36
108032,note_on,,,,,0,0,1,,,,0,72,49
108032,note_on,,,,,0,0,1,,,,0,67,49
108032,note_off,,,,,512,0,1,,,,0,68,0
108032,note_on,,,,,0,0,2,,,,1,64,36
108480,note_on,,,,,448,0,1,,,,0,72,49
108544,note_off,,,,,512,0,2,,,,1,60,0
108544,note_off,,,,,0,0,2,,,,1,64,0
108544,note_on,,,,,0,0,2,,,,1,53,36
108544,note_off,,,,,64,0,1,,,,0,67,0
108544,note_off,,,,,0,0,1,,,,0,72,0
108544,note_off,,,,,0,0,1,,,,0,72,0
108544,note_on,,,,,0,0,1,,,,0,68,49
108544,note_on,,,,,0,0,1,,,,0,77,49
109056,note_on,,,,,0,0,2,,,,1,65,36
109056,note_on,,,,,0,0,2,,,,1,60,36
109056,note_off,,,,,512,0,2,,,,1,53,0
109504,note_on,,,,,960,0,1,,,,0,72,49
109568,note_off,,,,,0,0,1,,,,0,72,0
109568,note_off,,,,,0,0,1,,,,0,77,0
109568,note_off,,,,,64,0,1,,,,0,68,0
109568,note_on,,,,,0,0,2,,,,1,53,36
109568,note_on,,,,,0,0,1,,,,0,77,49
109568,note_off,,,,,512,0,2,,,,1,60,0
109568,note_on,,,,,0,0,1,,,,0,68,49
109568,note_off,,,,,0,0,2,,,,1,65,0
110080,note_on,,,,,0,0,2,,,,1,65,36
110080,note_on,,,,,0,0,2,,,,1,60,36
110080,note_off,,,,,512,0,2,,,,1,53,0
110528,note_on,,,,,960,0,1,,,,0,78,49
110592,note_on,,,,,0,0,1,,,,0,68,49
110592,note_on,,,,,0,0,1,,,,0,77,49
110592,note_off,,,,,64,0,1,,,,0,68,0
110592,note_off,,,,,0,0,1,,,,0,78,0
110592,note_off,,,,,0,0,2,,,,1,65,0
110592,note_off,,,,,0,0,1,,,,0,77,0
110592,note_on,,,,,0,0,2,,,,1,49,36
110592,note_off,,,,,512,0,2,,,,1,60,0
111104,note_on,,,,,0,0,1,,,,0,68,49
111104,note_off,,,,,512,0,2,,,,1,49,0
111104,note_on,,,,,0,0,2,,,,1,65,36
111104,note_on,,,,,0,0,2,,,,1,61,36
111104,note_off,,,,,512,0,1,,,,0,77,0
111104,note_on,,,,,0,0,1,,,,0,77,49
111104,note_off,,,,,0,0,1,,,,0,68,0
111360,note_off,,,,,256,0,1,,,,0,77,0
111360,note_on,,,,,0,0,1,,,,0,78,49
111616,note_on,,,,,0,0,2,,,,1,48,36
111616,note_off,,,,,0,0,2,,,,1,65,0
111616,note_off,,,,,512,0,2,,,,1,61,0
111616,note_off,,,,,256,0,1,,,,0,78,0
111616,note_on,,,,,0,0,1,,,,0,77,49
111616,note_on,,,,,0,0,1,,,,0,69,49
111616,note_off,,,,,0,0,1,,,,0,68,0
112128,note_on,,,,,0,0,1,,,,0,77,49
112128,note_on,,,,,0,0,2,,,,1,65,36
112128,note_on,,,,,0,0,2,,,,1,63,36
112128,note_off,,,,,512,0,1,,,,0,77,0
112128,note_off,,,,,512,0,2,,,,1,48,0
112128,note_on,,,,,0,0,2,,,,1,60,36
112128,note_on,,,,,0,0,1,,,,0,69,49
112128,note_off,,,,,0,0,1,,,,0,69,0
112640,note_on,,,,,0,0,1,,,,0,77,49
112640,note_on,,,,,0,0,2,,,,1,46,36
112640,note_off,,,,,0,0,2,,,,1,65,0
112640,note_off,,,,,0,0,2,,,,1,63,0
112640,note_off,,,,,512,0,1,,,,0,77,0
112640,note_off,,,,,512,0,2,,,,1,60,0
112640,note_on,,,,,0,0,1,,,,0,70,49
112640,note_off,,,,,0,0,1,,,,0,69,0
113152,note_on,,,,,0,0,1,,,,0,82,49
113152,note_off,,,,,512,0,1,,,,0,77,0
113152,note_off,,,,,512,0,2,,,,1,46,0
113152,note_on,,,,,0,0,2,,,,1,58,36
113152,note_on,,,,,0,0,2,,,,1,61,36
113152,note_on,,,,,0,0,2,,,,1,65,36
113408,note_off,,,,,0,0,1,,,,0,70,0
113408,note_off,,,,,256,0,1,,,,0,82,0
113664,note_on,,,,,256,0,1,,,,0,68,61
113664,note_off,,,,,0,0,2,,,,1,65,0
113664,note_off,,,,,512,0,2,,,,1,58,0
113664,note_off,,,,,0,0,2,,,,1,61,0
113664,note_on,,,,,0,0,2,,,,1,53,36
113664,note_on,,,,,0,0,1,,,,0,77,61
114176,note_on,,,,,0,0,2,,,,1,65,36
114176,note_on,,,,,0,0,2,,,,1,60,36
114176,note_on,,,,,0,0,2,,,,1,56,36
114176,note_off,,,,,512,0,2,,,,1,53,0
114688,note_on,,,,,0,0,1,,,,0,72,49
114688,note_off,,,,,1024,0,1,,,,0,68,0
114688,note_on,,,,,0,0,1,,,,0,68,49
114688,note_off,,,,,0,0,1,,,,0,77,0
114688,note_on,,,,,0,0,2,,,,1,48,36
114688,note_off,,,,,0,0,2,,,,1,65,0
114688,note_off,,,,,0,0,2,,,,1,60,0
114688,note_off,,,,,512,0,2,,,,1,56,0
114944,note_on,,,,,0,0,1,,,,0,70,49
114944,note_on,,,,,0,0,1,,,,0,67,49
114944,note_off,,,,,0,0,1,,,,0,72,0
114944,note_off,,,,,256,0,1,,,,0,68,0
115200,note_on,,,,,0,0,1,,,,0,68,49
115200,note_off,,,,,256,0,1,,,,0,67,0
115200,note_on,,,,,0,0,1,,,,0,65,49
115200,note_off,,,,,0,0,1,,,,0,70,0
115200,note_off,,,,,512,0,2,,,,1,48,0
115200,note_on,,,,,0,0,2,,,,1,60,36
115200,note_on,,,,,0,0,2,,,,1,65,36
115456,note_on,,,,,0,0,1,,,,0,70,49
115456,note_on,,,,,0,0,1,,,,0,67,49
115456,note_off,,,,,0,0,1,,,,0,68,0
115456,note_off,,,,,256,0,1,,,,0,65,0
115712,note_on,,,,,0,0,1,,,,0,68,49
115712,note_on,,,,,0,0,1,,,,0,72,49
115712,note_off,,,,,0,0,1,,,,0,70,0
115712,note_off,,,,,256,0,1,,,,0,67,0
115712,note_off,,,,,512,0,2,,,,1,60,0
115712,note_off,,,,,0,0,2,,,,1,65,0
115712,note_on,,,,,0,0,2,,,,1,49,36
115968,note_off,,,,,256,0,1,,,,0,72,0
115968,note_on,,,,,0,0,1,,,,0,73,49
116224,note_on,,,,,0,0,1,,,,0,70,49
116224,note_on,,,,,0,0,2,,,,1,64,36
116224,note_on,,,,,0,0,2,,,,1,60,36
116224,note_off,,,,,512,0,2,,,,1,49,0
116224,note_on,,,,,0,0,1,,,,0,72,49
116224,note_on,,,,,0,0,1,,,,0,67,49
116224,note_off,,,,,256,0,1,,,,0,73,0
116224,note_off,,,,,0,0,1,,,,0,68,0
116480,note_off,,,,,256,0,1,,,,0,72,0
116480,note_on,,,,,0,0,1,,,,0,76,49
116736,note_on,,,,,0,0,1,,,,0,72,49
116736,note_on,,,,,0,0,1,,,,0,77,49
116736,note_off,,,,,0,0,1,,,,0,67,0
116736,note_off,,,,,256,0,1,,,,0,76,0
116736,note_off,,,,,512,0,2,,,,1,60,0
116736,note_off,,,,,0,0,2,,,,1,64,0
116736,note_on,,,,,0,0,2,,,,1,53,36
116736,note_on,,,,,0,0,1,,,,0,68,49
116736,note_off,,,,,0,0,1,,,,0,70,0
117248,note_on,,,,,0,0,2,,,,1,65,36
117248,note_on,,,,,0,0,2,,,,1,60,36
117248,note_off,,,,,512,0,2,,,,1,53,0
117760,note_on,,,,,0,0,1,,,,0,77,49
117760,note_on,,,,,0,0,1,,,,0,72,49
117760,note_on,,,,,0,0,1,,,,0,68,49
117760,note_off,,,,,0,0,1,,,,0,77,0
117760,note_off,,,,,512,0,2,,,,1,60,0
117760,note_off,,,,,0,0,2,,,,1,65,0
117760,note_off,,,,,0,0,1,,,,0,72,0
117760,note_off,,,,,1024,0,1,,,,0,68,0
117760,note_on,,,,,0,0,2,,,,1,53,36
118272,note_on,,,,,0,0,2,,,,1,60,36
118272,note_on,,,,,0,0,2,,,,1,65,36
118272,note_off,,,,,512,0,2,,,,1,53,0
118720,note_on,,,,,960,0,1,,,,0,80,49
118784,note_on,,,,,0,0,1,,,,0,76,64
118784,note_on,,,,,0,0,1,,,,0,79,64
118784,note_off,,,,,0,0,1,,,,0,80,0
118784,note_off,,,,,0,0,1,,,,0,77,0
118784,note_off,,,,,64,0,1,,,,0,68,0
118784,note_off,,,,,512,0,2,,,,1,60,0
118784,note_off,,,,,0,0,2,,,,1,65,0
118784,note_on,,,,,0,0,2,,,,1,46,49
118784,note_off,,,,,0,0,1,,,,0,72,0
119296,note_on,,,,,0,0,1,,,,0,76,64
119296,note_on,,,,,0,0,1,,,,0,79,64
119296,note_off,,,,,0,0,1,,,,0,76,0
119296,note_off,,,,,512,0,2,,,,1,46,0
119296,note_on,,,,,0,0,2,,,,1,58,49
119296,note_on,,,,,0,0,2,,,,1,61,49
119296,note_off,,,,,512,0,1,,,,0,79,0
119552,note_off,,,,,256,0,1,,,,0,79,0
119552,note_on,,,,,0,0,1,,,,0,80,64
119808,note_off,,,,,0,0,2,,,,1,61,0
119808,note_off,,,,,256,0,1,,,,0,80,0
119808,note_on,,,,,0,0,1,,,,0,79,64
119808,note_off,,,,,512,0,2,,,,1,58,0
119808,note_on,,,,,0,0,2,,,,1,46,49
120320,note_on,,,,,0,0,1,,,,0,79,64
120320,note_on,,,,,0,0,1,,,,0,76,64
120320,note_off,,,,,0,0,1,,,,0,76,0
120320,note_off,,,,,512,0,2,,,,1,46,0
120320,note_on,,,,,0,0,2,,,,1,58,49
120320,note_on,,,,,0,0,2,,,,1,61,49
120320,note_off,,,,,512,0,1,,,,0,79,0
120832,note_off,,,,,512,0,1,,,,0,79,0
120832,note_off,,,,,0,0,1,,,,0,76,0
120832,note_on,,,,,0,0,1,,,,0,82,64
120832,note_on,,,,,0,0,1,,,,0,77,64
120832,note_off,,,,,512,0,2,,,,1,58,0
120832,note_off,,,,,0,0,2,,,,1,61,0
120832,note_on,,,,,0,0,2,,,,1,47,49
121344,note_on,,,,,0,0,2,,,,1,62,49
121344,note_on,,,,,0,0,2,,,,1,59,49
121344,note_on,,,,,0,0,1,,,,0,80,64
121344,note_off,,,,,512,0,1,,,,0,82,0
121344,note_off,,,,,512,0,2,,,,1,47,0
121856,note_off,,,,,512,0,2,,,,1,59,0
121856,note_off,,,,,0,0,2,,,,1,62,0
121856,note_on,,,,,0,0,2,,,,1,47,49
122368,note_off,,,,,0,0,1,,,,0,77,0
122368,note_on,,,,,0,0,1,,,,0,79,64
122368,note_on,,,,,0,0,2,,,,1,62,49
122368,note_on,,,,,0,0,2,,,,1,59,49
122368,note_off,,,,,512,0,2,,,,1,47,0
122368,note_off,,,,,1024,0,1,,,,0,80,0
122624,note_off,,,,,256,0,1,,,,0,79,0
122624,note_on,,,,,0,0,1,,,,0,77,64
122816,note_on,,,,,192,0,1,,,,0,73,64
122880,note_on,,,,,0,0,2,,,,1,48,49
122880,note_off,,,,,0,0,2,,,,1,62,0
122880,note_off,,,,,512,0,2,,,,1,59,0
122880,note_off,,,,,64,0,1,,,,0,77,0
122880,note_off,,,,,0,0,1,,,,0,73,0
122880,note_on,,,,,0,0,1,,,,0,68,64
122880,note_on,,,,,0,0,1,,,,0,72,64
123392,note_on,,,,,0,0,2,,,,1,65,49
123392,note_on,,,,,0,0,2,,,,1,60,49
123392,note_off,,,,,512,0,2,,,,1,48,0
123392,note_off,,,,,512,0,1,,,,0,72,0
123392,note_on,,,,,0,0,1,,,,0,72,64
123392,note_on,,,,,0,0,1,,,,0,68,64
123392,note_off,,,,,0,0,1,,,,0,68,0
123648,note_off,,,,,256,0,1,,,,0,72,0
123648,note_on,,,,,0,0,1,,,,0,73,64
123904,note_off,,,,,0,0,2,,,,1,65,0
123904,note_on,,,,,0,0,2,,,,1,48,49
123904,note_on,,,,,0,0,1,,,,0,72,64
123904,note_off,,,,,256,0,1,,,,0,73,0
123904,note_off,,,,,512,0,2,,,,1,60,0
124416,note_on,,,,,0,0,2,,,,1,64,49
124416,note_on,,,,,0,0,2,,,,1,60,49
124416,note_off,,,,,512,0,2,,,,1,48,0
124416,note_on,,,,,0,0,1,,,,0,68,64
124416,note_off,,,,,512,0,1,,,,0,72,0
124416,note_on,,,,,0,0,1,,,,0,70,64
124416,note_on,,,,,0,0,1,,,,0,72,64
124416,note_on,,,,,0,0,1,,,,0,76,64
124416,note_off,,,,,0,0,1,,,,0,68,0
124928,note_off,,,,,512,0,2,,,,1,60,0
124928,note_off,,,,,0,0,2,,,,1,64,0
124928,note_on,,,,,0,0,2,,,,1,53,49
124928,note_off,,,,,0,0,1,,,,0,76,0
124928,note_off,,,,,512,0,1,,,,0,70,0
124928,note_off,,,,,0,0,1,,,,0,72,0
124928,note_off,,,,,0,0,1,,,,0,68,0
124928,note_on,,,,,0,0,1,,,,0,68,64
124928,note_on,,,,,0,0,1,,,,0,72,64
124928,note_on,,,,,0,0,1,,,,0,77,64
125440,note_on,,,,,0,0,2,,,,1,60,49
125440,note_off,,,,,512,0,2,,,,1,53,0
125440,note_on,,,,,0,0,2,,,,1,65,49
125952,note_off,,,,,0,0,2,,,,1,65,0
125952,note_on,,,,,0,0,2,,,,1,53,49
125952,note_on,,,,,0,0,1,,,,0,77,64
125952,note_on,,,,,0,0,1,,,,0,72,64
125952,note_off,,,,,0,0,1,,,,0,77,0
125952,note_off,,,,,0,0,1,,,,0,72,0
125952,note_off,,,,,1024,0,1,,,,0,68,0
125952,note_on,,,,,0,0,1,,,,0,68,64
125952,note_off,,,,,512,0,2,,,,1,60,0
126464,note_on,,,,,0,0,2,,,,1,65,49
126464,note_on,,,,,0,0,2,,,,1,60,49
126464,note_off,,,,,512,0,2,,,,1,53,0
126912,note_on,,,,,960,0,1,,,,0,80,49
126976,note_off,,,,,0,0,2,,,,1,65,0
126976,note_off,,,,,512,0,2,,,,1,60,0
126976,note_off,,,,,0,0,1,,,,0,77,0
126976,note_on,,,,,0,0,1,,,,0,76,21
126976,note_on,,,,,0,0,1,,,,0,79,21
126976,note_off,,,,,0,0,1,,,,0,80,0
126976,note_on,,,,,0,0,2,,,,1,46,1
126976,note_off,,,,,0,0,1,,,,0,72,0
126976,note_off,,,,,64,0,1,,,,0,68,0
127488,note_off,,,,,512,0,1,,,,0,79,0
127488,note_off,,,,,512,0,2,,,,1,46,0
127488,note_on,,,,,0,0,1,,,,0,79,22
127488,note_on,,,,,0,0,2,,,,1,61,1
127488,note_on,,,,,0,0,1,,,,0,76,22
127488,note_off,,,,,0,0,1,,,,0,76,0
127488,note_on,,,,,0,0,2,,,,1,58,1
127744,note_off,,,,,256,0,1,,,,0,79,0
127744,note_on,,,,,0,0,1,,,,0,80,22
128000,note_off,,,,,256,0,1,,,,0,80,0
128000,note_on,,,,,0,0,1,,,,0,79,22
128000,note_off,,,,,0,0,2,,,,1,61,0
128000,note_off,,,,,512,0,2,,,,1,58,0
128000,note_on,,,,,0,0,2,,,,1,46,1
128512,note_on,,,,,0,0,2,,,,1,61,1
128512,note_on,,,,,0,0,2,,,,1,58,1
128512,note_off,,,,,512,0,2,,,,1,46,0
128512,note_on,,,,,0,0,1,,,,0,79,23
128512,note_on,,,,,0,0,1,,,,0,76,23
128512,note_off,,,,,0,0,1,,,,0,76,0
128512,note_off,,,,,512,0,1,,,,0,79,0
129024,note_off,,,,,0,0,1,,,,0,76,0
129024,note_off,,,,,512,0,1,,,,0,79,0
129024,note_on,,,,,0,0,1,,,,0,77,24
129024,note_on,,,,,0,0,2,,,,1,47,1
129024,note_off,,,,,0,0,2,,,,1,61,0
129024,note_on,,,,,0,0,1,,,,0,82,33
129024,note_off,,,,,512,0,2,,,,1,58,0
129536,note_off,,,,,512,0,1,,,,0,82,0
129536,note_on,,,,,0,0,1,,,,0,80,24
129536,note_on,,,,,0,0,2,,,,1,62,1
129536,note_on,,,,,0,0,2,,,,1,59,1
129536,note_off,,,,,512,0,2,,,,1,47,0
130048,note_off,,,,,0,0,2,,,,1,62,0
130048,note_on,,,,,0,0,2,,,,1,47,1
130048,note_off,,,,,512,0,2,,,,1,59,0
130560,note_on,,,,,0,0,2,,,,1,62,1
130560,note_off,,,,,0,0,1,,,,0,77,0
130560,note_on,,,,,0,0,1,,,,0,79,25
130560,note_off,,,,,1024,0,1,,,,0,80,0
130560,note_off,,,,,512,0,2,,,,1,47,0
130560,note_on,,,,,0,0,2,,,,1,59,1
130816,note_off,,,,,256,0,1,,,,0,79,0
130816,note_on,,,,,0,0,1,,,,0,77,26
131008,note_on,,,,,192,0,1,,,,0,74,26
131072,note_on,,,,,0,0,1,,,,0,69,26
131072,note_on,,,,,0,0,1,,,,0,72,26
131072,note_off,,,,,512,0,2,,,,1,59,0
131072,note_off,,,,,0,0,2,,,,1,62,0
131072,note_on,,,,,0,0,2,,,,1,48,1
131072,note_off,,,,,0,0,1,,,,0,74,0
131072,note_off,,,,,64,0,1,,,,0,77,0
131584,note_on,,,,,0,0,2,,,,1,60,1
131584,note_on,,,,,0,0,2,,,,1,65,1
131584,note_off,,,,,512,0,2,,,,1,48,0
131584,note_off,,,,,0,0,1,,,,0,69,0
131584,note_on,,,,,0,0,1,,,,0,69,27
131584,note_on,,,,,0,0,1,,,,0,72,27
131584,note_off,,,,,512,0,1,,,,0,72,0
131840,note_on,,,,,0,0,1,,,,0,74,27
131840,note_off,,,,,256,0,1,,,,0,72,0
132096,note_off,,,,,256,0,1,,,,0,74,0
132096,note_off,,,,,512,0,2,,,,1,60,0
132096,note_on,,,,,0,0,1,,,,0,72,27
132096,note_off,,,,,0,0,2,,,,1,65,0
132096,note_on,,,,,0,0,2,,,,1,48,1
132608,note_off,,,,,0,0,1,,,,0,69,0
132608,note_on,,,,,0,0,1,,,,0,70,28
132608,note_on,,,,,0,0,1,,,,0,74,28
132608,note_off,,,,,512,0,1,,,,0,72,0
132608,note_off,,,,,512,0,2,,,,1,48,0
132608,note_on,,,,,0,0,2,,,,1,64,1
132608,note_on,,,,,0,0,2,,,,1,60,1
133056,note_on,,,,,448,0,1,,,,0,74,29
133120,note_off,,,,,0,0,2,,,,1,64,0
133120,note_on,,,,,0,0,2,,,,1,48,1
133120,note_off,,,,,512,0,2,,,,1,60,0
133120,note_off,,,,,64,0,1,,,,0,74,0
133120,note_off,,,,,0,0,1,,,,0,70,0
133120,note_off,,,,,0,0,1,,,,0,74,0
133120,note_on,,,,,0,0,1,,,,0,72,29
133120,note_on,,,,,0,0,1,,,,0,69,29
133632,note_on,,,,,0,0,2,,,,1,65,1
133632,note_off,,,,,0,0,1,,,,0,69,0
133632,note_on,,,,,0,0,1,,,,0,69,29
133632,note_on,,,,,0,0,1,,,,0,72,29
133632,note_off,,,,,512,0,1,,,,0,72,0
133632,note_off,,,,,512,0,2,,,,1,48,0
133632,note_on,,,,,0,0,2,,,,1,60,1
133888,note_off,,,,,256,0,1,,,,0,72,0
133888,note_on,,,,,0,0,1,,,,0,74,29
134144,note_off,,,,,512,0,2,,,,1,60,0
134144,note_off,,,,,0,0,2,,,,1,65,0
134144,note_on,,,,,0,0,2,,,,1,48,1
134144,note_off,,,,,256,0,1,,,,0,74,0
134144,note_on,,,,,0,0,1,,,,0,72,30
134656,note_off,,,,,512,0,1,,,,0,72,0
134656,note_off,,,,,0,0,1,,,,0,69,0
134656,note_on,,,,,0,0,1,,,,0,70,30
134656,note_on,,,,,0,0,1,,,,0,74,30
134656,note_off,,,,,512,0,2,,,,1,48,0
134656,note_on,,,,,0,0,2,,,,1,60,1
134656,note_on,,,,,0,0,2,,,,1,64,1
135104,note_on,,,,,448,0,1,,,,0,75,31
135168,note_off,,,,,512,0,2,,,,1,60,0
135168,note_off,,,,,0,0,2,,,,1,64,0
135168,note_on,,,,,0,0,2,,,,1,48,1
135168,note_on,,,,,0,0,1,,,,0,69,31
135168,note_off,,,,,64,0,1,,,,0,74,0
135168,note_off,,,,,0,0,1,,,,0,70,0
135168,note_off,,,,,0,0,1,,,,0,75,0
135168,note_on,,,,,0,0,1,,,,0,72,31
135680,note_off,,,,,0,0,1,,,,0,69,0
135680,note_off,,,,,512,0,1,,,,0,72,0
135680,note_on,,,,,0,0,2,,,,1,65,1
135680,note_on,,,,,0,0,2,,,,1,60,1
135680,note_off,,,,,512,0,2,,,,1,48,0
135680,note_on,,,,,0,0,1,,,,0,69,32
135680,note_on,,,,,0,0,1,,,,0,72,32
135936,note_on,,,,,0,0,1,,,,0,74,32
135936,note_off,,,,,256,0,1,,,,0,72,0
136192,note_off,,,,,256,0,1,,,,0,74,0
136192,note_on,,,,,0,0,1,,,,0,72,32
136192,note_on,,,,,0,0,2,,,,1,48,1
136192,note_off,,,,,0,0,2,,,,1,65,0
136192,note_off,,,,,512,0,2,,,,1,60,0
136704,note_on,,,,,0,0,1,,,,0,70,33
136704,note_on,,,,,0,0,1,,,,0,76,33
136704,note_off,,,,,0,0,1,,,,0,69,0
136704,note_off,,,,,512,0,1,,,,0,72,0
136704,note_on,,,,,0,0,2,,,,1,67,2
136704,note_on,,,,,0,0,2,,,,1,60,2
136704,note_off,,,,,512,0,2,,,,1,48,0
137216,note_off,,,,,0,0,1,,,,0,70,0
137216,note_on,,,,,0,0,1,,,,0,69,34
137216,note_on,,,,,0,0,1,,,,0,77,34
137216,note_on,,,,,0,0,2,,,,1,41,2
137216,note_off,,,,,0,0,2,,,,1,67,0
137216,note_off,,,,,512,0,2,,,,1,60,0
137216,note_off,,,,,512,0,1,,,,0,76,0
137728,note_on,,,,,0,0,2,,,,1,53,3
137728,note_on,,,,,0,0,2,,,,1,48,3
137728,note_off,,,,,512,0,2,,,,1,41,0
138240,note_off,,,,,1024,0,1,,,,0,69,0
138240,note_off,,,,,0,0,1,,,,0,77,0
138240,note_on,,,,,0,0,1,,,,0,77,35
138240,note_on,,,,,0,0,1,,,,0,69,35
138240,note_on,,,,,0,0,2,,,,1,41,4
138240,note_off,,,,,0,0,2,,,,1,53,0
138240,note_off,,,,,512,0,2,,,,1,48,0
138752,note_on,,,,,0,0,2,,,,1,53,5
138752,note_on,,,,,0,0,2,,,,1,48,5
138752,note_off,,,,,512,0,2,,,,1,41,0
139200,note_on,,,,,960,0,1,,,,0,74,36
139264,note_on,,,,,0,0,2,,,,1,41,34
139264,note_off,,,,,0,0,2,,,,1,53,0
139264,note_off,,,,,512,0,2,,,,1,48,0
139264,note_on,,,,,0,0,1,,,,0,69,64
139264,note_off,,,,,64,0,1,,,,0,69,0
139264,note_off,,,,,0,0,1,,,,0,77,0
139264,note_off,,,,,0,0,1,,,,0,74,0
139264,note_on,,,,,0,0,1,,,,0,72,64
139776,note_on,,,,,0,0,2,,,,1,48,33
139776,note_off,,,,,512,0,1,,,,0,72,0
139776,note_on,,,,,0,0,2,,,,1,53,33
139776,note_on,,,,,0,0,1,,,,0,69,62
139776,note_off,,,,,512,0,2,,,,1,41,0
139776,note_on,,,,,0,0,1,,,,0,72,62
139776,note_off,,,,,0,0,1,,,,0,69,0
140032,note_on,,,,,0,0,1,,,,0,74,62
140032,note_off,,,,,256,0,1,,,,0,72,0
140288,note_on,,,,,0,0,2,,,,1,41,33
140288,note_off,,,,,0,0,2,,,,1,53,0
140288,note_on,,,,,0,0,1,,,,0,72,62
140288,note_off,,,,,256,0,1,,,,0,74,0
140288,note_off,,,,,512,0,2,,,,1,48,0
140800,note_on,,,,,0,0,1,,,,0,65,61
140800,note_off,,,,,0,0,1,,,,0,69,0
140800,note_off,,,,,512,0,1,,,,0,72,0
140800,note_off,,,,,512,0,2,,,,1,41,0
140800,note_on,,,,,0,0,2,,,,1,48,31
140800,note_on,,,,,0,0,2,,,,1,53,31
140800,note_on,,,,,0,0,1,,,,0,69,61
141312,note_on,,,,,0,0,2,,,,1,41,31
141312,note_off,,,,,512,0,2,,,,1,48,0
141312,note_off,,,,,0,0,2,,,,1,53,0
141312,note_on,,,,,0,0,1,,,,0,70,59
141312,note_off,,,,,512,0,1,,,,0,69,0
141312,note_off,,,,,0,0,1,,,,0,65,0
141312,note_on,,,,,0,0,1,,,,0,64,59
141824,note_on,,,,,0,0,2,,,,1,48,30
141824,note_off,,,,,512,0,2,,,,1,41,0
141824,note_on,,,,,0,0,2,,,,1,55,30
142336,note_off,,,,,1024,0,1,,,,0,64,0
142336,note_off,,,,,0,0,1,,,,0,70,0
142336,note_on,,,,,0,0,1,,,,0,64,58
142336,note_on,,,,,0,0,1,,,,0,70,58
142336,note_on,,,,,0,0,2,,,,1,41,29
142336,note_off,,,,,0,0,2,,,,1,55,0
142336,note_off,,,,,512,0,2,,,,1,48,0
142848,note_off,,,,,512,0,2,,,,1,41,0
142848,note_on,,,,,0,0,2,,,,1,55,28
142848,note_on,,,,,0,0,2,,,,1,48,28
143296,note_on,,,,,960,0,1,,,,0,72,55
143360,note_off,,,,,64,0,1,,,,0,64,0
143360,note_off,,,,,0,0,1,,,,0,72,0
143360,note_off,,,,,512,0,2,,,,1,48,0
143360,note_on,,,,,0,0,1,,,,0,70,55
143360,note_on,,,,,0,0,2,,,,1,41,27
143360,note_off,,,,,0,0,2,,,,1,55,0
143360,note_on,,,,,0,0,1,,,,0,64,55
143360,note_off,,,,,0,0,1,,,,0,70,0
143872,note_on,,,,,0,0,2,,,,1,55,26
143872,note_on,,,,,0,0,2,,,,1,48,26
143872,note_off,,,,,512,0,1,,,,0,70,0
143872,note_on,,,,,0,0,1,,,,0,70,55
143872,note_on,,,,,0,0,1,,,,0,64,55
143872,note_off,,,,,0,0,1,,,,0,64,0
143872,note_off,,,,,512,0,2,,,,1,41,0
144128,note_on,,,,,0,0,1,,,,0,72,54
144128,note_off,,,,,256,0,1,,,,0,70,0
144384,note_off,,,,,256,0,1,,,,0,72,0
144384,note_on,,,,,0,0,1,,,,0,70,54
144384,note_on,,,,,0,0,2,,,,1,41,25
144384,note_off,,,,,0,0,2,,,,1,55,0
144384,note_off,,,,,512,0,2,,,,1,48,0
144896,note_on,,,,,0,0,2,,,,1,55,25
144896,note_on,,,,,0,0,2,,,,1,48,25
144896,note_off,,,,,512,0,2,,,,1,41,0
144896,note_off,,,,,0,0,1,,,,0,64,0
144896,note_on,,,,,0,0,1,,,,0,64,52
144896,note_on,,,,,0,0,1,,,,0,58,52
144896,note_off,,,,,512,0,1,,,,0,70,0
145408,note_off,,,,,0,0,1,,,,0,64,0
145408,note_on,,,,,0,0,1,,,,0,65,52
145408,note_off,,,,,0,0,2,,,,1,55,0
145408,note_on,,,,,0,0,2,,,,1,41,24
145408,note_off,,,,,512,0,1,,,,0,58,0
145408,note_off,,,,,512,0,2,,,,1,48,0
145408,note_on,,,,,0,0,1,,,,0,57,52
145920,note_off,,,,,512,0,2,,,,1,41,0
145920,note_on,,,,,0,0,2,,,,1,48,24
145920,note_on,,,,,0,0,2,,,,1,53,24
146432,note_off,,,,,512,0,2,,,,1,48,0
146432,note_off,,,,,0,0,2,,,,1,53,0
146432,note_on,,,,,0,0,2,,,,1,41,22
146432,note_on,,,,,0,0,1,,,,0,65,49
146432,note_off,,,,,1024,0,1,,,,0,57,0
146432,note_off,,,,,0,0,1,,,,0,65,0
146432,note_on,,,,,0,0,1,,,,0,57,49
146944,note_off,,,,,512,0,2,,,,1,41,0
146944,note_on,,,,,0,0,2,,,,1,53,21
146944,note_on,,,,,0,0,2,,,,1,48,21
147392,note_on,,,,,960,0,1,,,,0,74,48
147456,note_off,,,,,512,0,2,,,,1,48,0
147456,note_off,,,,,0,0,2,,,,1,53,0
147456,note_on,,,,,0,0,2,,,,1,41,21
147456,note_off,,,,,0,0,1,,,,0,65,0
147456,note_off,,,,,0,0,1,,,,0,74,0
147456,note_on,,,,,0,0,1,,,,0,72,48
147456,note_on,,,,,0,0,1,,,,0,69,48
147456,note_off,,,,,64,0,1,,,,0,57,0
147968,note_off,,,,,512,0,2,,,,1,41,0
147968,note_on,,,,,0,0,2,,,,1,48,20
147968,note_on,,,,,0,0,2,,,,1,53,20
147968,note_off,,,,,0,0,1,,,,0,69,0
147968,note_on,,,,,0,0,1,,,,0,69,46
147968,note_on,,,,,0,0,1,,,,0,72,46
147968,note_off,,,,,512,0,1,,,,0,72,0
148224,note_off,,,,,256,0,1,,,,0,72,0
148224,note_on,,,,,0,0,1,,,,0,74,46
148480,note_off,,,,,256,0,1,,,,0,74,0
148480,note_off,,,,,512,0,2,,,,1,48,0
148480,note_off,,,,,0,0,2,,,,1,53,0
148480,note_on,,,,,0,0,2,,,,1,41,20
148480,note_on,,,,,0,0,1,,,,0,72,45
148992,note_on,,,,,0,0,1,,,,0,69,45
148992,note_on,,,,,0,0,1,,,,0,63,45
148992,note_off,,,,,0,0,1,,,,0,69,0
148992,note_on,,,,,0,0,2,,,,1,48,18
148992,note_off,,,,,512,0,2,,,,1,41,0
148992,note_off,,,,,512,0,1,,,,0,72,0
148992,note_on,,,,,0,0,2,,,,1,54,18
149504,note_off,,,,,512,0,1,,,,0,69,0
149504,note_off,,,,,0,0,1,,,,0,63,0
149504,note_on,,,,,0,0,1,,,,0,64,44
149504,note_on,,,,,0,0,2,,,,1,41,17
149504,note_off,,,,,0,0,2,,,,1,54,0
149504,note_off,,,,,512,0,2,,,,1,48,0
149504,note_on,,,,,0,0,1,,,,0,70,44
150016,note_on,,,,,0,0,2,,,,1,48,17
150016,note_on,,,,,0,0,2,,,,1,55,17
150016,note_off,,,,,512,0,2,,,,1,41,0
150528,note_off,,,,,1024,0,1,,,,0,64,0
150528,note_off,,,,,0,0,1,,,,0,70,0
150528,note_on,,,,,0,0,1,,,,0,64,42
150528,note_on,,,,,0,0,1,,,,0,70,42
150528,note_on,,,,,0,0,2,,,,1,41,16
150528,note_off,,,,,0,0,2,,,,1,55,0
150528,note_off,,,,,512,0,2,,,,1,48,0
151040,note_off,,,,,512,0,2,,,,1,41,0
151040,note_on,,,,,0,0,2,,,,1,48,16
151040,note_on,,,,,0,0,2,,,,1,55,16
151488,note_on,,,,,960,0,1,,,,0,72,40
151552,note_on,,,,,0,0,1,,,,0,70,40
151552,note_off,,,,,64,0,1,,,,0,64,0
151552,note_off,,,,,512,0,2,,,,1,48,0
151552,note_off,,,,,0,0,1,,,,0,72,0
151552,note_off,,,,,0,0,1,,,,0,70,0
151552,note_off,,,,,0,0,2,,,,1,55,0
151552,note_on,,,,,0,0,1,,,,0,64,40
151552,note_on,,,,,0,0,2,,,,1,41,15
152064,note_off,,,,,512,0,2,,,,1,41,0
152064,note_off,,,,,0,0,1,,,,0,64,0
152064,note_on,,,,,0,0,2,,,,1,55,14
152064,note_on,,,,,0,0,1,,,,0,64,39
152064,note_on,,,,,0,0,1,,,,0,70,39
152064,note_off,,,,,512,0,1,,,,0,70,0
152064,note_on,,,,,0,0,2,,,,1,48,14
152320,note_on,,,,,0,0,1,,,,0,72,39
152320,note_off,,,,,256,0,1,,,,0,70,0
152576,note_off,,,,,256,0,1,,,,0,72,0
152576,note_on,,,,,0,0,2,,,,1,41,14
152576,note_off,,,,,0,0,2,,,,1,55,0
152576,note_off,,,,,512,0,2,,,,1,48,0
152576,note_on,,,,,0,0,1,,,,0,70,39
153088,note_off,,,,,512,0,1,,,,0,70,0
153088,note_on,,,,,0,0,1,,,,0,58,37
153088,note_on,,,,,0,0,1,,,,0,64,37
153088,note_off,,,,,0,0,1,,,,0,64,0
153088,note_off,,,,,512,0,2,,,,1,41,0
153088,note_on,,,,,0,0,2,,,,1,49,12
153088,note_on,,,,,0,0,2,,,,1,55,12
153600,note_off,,,,,512,0,2,,,,1,49,0
153600,note_on,,,,,0,0,2,,,,1,41,12
153600,note_on,,,,,0,0,1,,,,0,57,36
153600,note_on,,,,,0,0,1,,,,0,65,36
153600,note_off,,,,,0,0,1,,,,0,64,0
153600,note_off,,,,,512,0,1,,,,0,58,0
153600,note_off,,,,,0,0,2,,,,1,55,0
154112,set_tempo,,,,,154112,1,0,,645161,,,,
154112,note_on,,,,,0,0,2,,,,1,53,11
154112,note_on,,,,,0,0,2,,,,1,48,11
154112,set_tempo,,,,,0,1,0,,666666,,,,
154112,note_off,,,,,512,0,2,,,,1,41,0
154624,note_on,,,,,0,0,1,,,,0,57,35
154624,note_off,,,,,512,0,2,,,,1,48,0
154624,note_off,,,,,0,0,2,,,,1,53,0
154624,note_on,,,,,0,0,2,,,,1,41,11
154624,note_on,,,,,0,0,1,,,,0,65,35
154624,note_off,,,,,0,0,1,,,,0,65,0
154624,note_off,,,,,1024,0,1,,,,0,57,0
154624,set_tempo,,,,,512,1,0,,689655,,,,
154624,set_tempo,,,,,0,1,0,,714285,,,,
155136,set_tempo,,,,,0,1,0,,769230,,,,
155136,note_on,,,,,0,0,2,,,,1,53,10
155136,note_on,,,,,0,0,2,,,,1,48,10
155136,note_off,,,,,512,0,2,,,,1,41,0
155136,set_tempo,,,,,512,1,0,,740740,,,,
155648,note_off,,,,,512,0,2,,,,1,48,0
155648,note_on,,,,,0,0,2,,,,1,41,10
155648,note_off,,,,,0,0,2,,,,1,53,0
155648,note_on,,,,,0,0,1,,,,0,65,34
155648,set_tempo,,,,,0,1,0,,857142,,,,
155648,note_off,,,,,0,0,1,,,,0,65,0
155648,note_off,,,,,1024,0,1,,,,0,57,0
155648,set_tempo,,,,,512,1,0,,810810,,,,
155648,note_on,,,,,0,0,1,,,,0,57,34
156160,set_tempo,,,,,0,1,0,,937500,,,,
156160,note_off,,,,,512,0,2,,,,1,41,0
156160,note_on,,,,,0,0,2,,,,1,48,9
156160,note_on,,,,,0,0,2,,,,1,53,9
156160,set_tempo,,,,,512,1,0,,895522,,,,
156672,note_off,,,,,512,0,2,,,,1,48,0
156672,note_off,,,,,0,0,2,,,,1,53,0
156672,note_on,,,,,0,0,2,,,,1,41,8
156672,set_tempo,,,,,512,1,0,,983606,,,,
156672,note_on,,,,,0,0,1,,,,0,65,32
156672,set_tempo,,,,,0,1,0,,1034482,,,,
156672,note_off,,,,,1024,0,1,,,,0,57,0
156672,note_off,,,,,0,0,1,,,,0,65,0
156672,note_on,,,,,0,0,1,,,,0,57,32
157184,set_tempo,,,,,512,1,0,,1090909,,,,
157184,set_tempo,,,,,0,1,0,,1153846,,,,
157184,note_on,,,,,0,0,2,,,,1,53,8
157184,note_on,,,,,0,0,2,,,,1,48,8
157184,note_off,,,,,512,0,2,,,,1,41,0
157696,note_off,,,,,512,0,2,,,,1,48,0
157696,note_on,,,,,0,0,1,,,,0,65,30
157696,note_on,,,,,0,0,1,,,,0,57,30
157696,note_off,,,,,0,0,2,,,,1,53,0
157696,note_off,,,,,1024,0,1,,,,0,57,0
157696,note_on,,,,,0,0,2,,,,1,48,7
157696,note_on,,,,,0,0,2,,,,1,53,7
157696,set_tempo,,,,,0,1,0,,1363636,,,,
157696,set_tempo,,,,,512,1,0,,1250000,,,,
157696,note_off,,,,,0,0,1,,,,0,65,0
157696,note_on,,,,,0,0,2,,,,1,41,7
159744,note_off,,,,,0,0,2,,,,1,48,0
159744,note_off,,,,,2048,0,2,,,,1,41,0
159744,note_off,,,,,0,0,1,,,,0,65,0
159744,end_of_track,,,,,2048,1,0,,,,,,
159744,note_off,,,,,0,0,2,,,,1,53,0
159744,note_off,,,,,2048,0,1,,,,0,57,0
159744,end_of_track,,,,,0,1,1,,,,,,
159744,end_of_track,,,,,0,1,2,,,,,,
