tick,type,numerator,denominator,clocks_per_click,notated_32nd_notes_per_beat,time,meta,track,key,tempo,program,channel,note,velocity
0,time_signature,9,8,36,8,0,1,0,,,,,,
0,key_signature,,,,,0,1,0,Ab,,,,,
0,set_tempo,,,,,0,1,0,,555555,,,,
0,set_tempo,,,,,0,1,0,,555555,,,,
0,track_name,,,,,0,1,1,,,,,,
0,program_change,,,,,0,0,1,,,0,0,,
3072,note_on,,,,,3072,0,1,,,,0,60,64
3072,note_on,,,,,0,0,1,,,,0,68,64
3072,note_on,,,,,0,0,1,,,,0,72,64
3072,note_on,,,,,0,0,1,,,,0,44,64
3072,note_on,,,,,0,0,1,,,,0,51,64
3840,note_off,,,,,768,0,1,,,,0,60,0
3840,note_off,,,,,0,0,1,,,,0,68,0
3840,note_off,,,,,0,0,1,,,,0,72,0
3840,note_off,,,,,0,0,1,,,,0,44,0
3840,note_off,,,,,0,0,1,,,,0,51,0
3840,note_on,,,,,0,0,1,,,,0,73,64
3840,note_on,,,,,0,0,1,,,,0,46,64
3840,note_on,,,,,0,0,1,,,,0,51,64
3840,note_on,,,,,0,0,1,,,,0,61,64
3840,note_on,,,,,0,0,1,,,,0,67,64
4096,note_on,,,,,0,0,1,,,,0,44,64
4096,note_on,,,,,0,0,1,,,,0,51,64
4096,note_on,,,,,0,0,1,,,,0,72,64
4096,note_on,,,,,0,0,1,,,,0,68,64
4096,note_on,,,,,0,0,1,,,,0,60,64
4096,note_off,,,,,0,0,1,,,,0,51,0
4096,note_off,,,,,0,0,1,,,,0,46,0
4096,note_off,,,,,0,0,1,,,,0,73,0
4096,note_off,,,,,0,0,1,,,,0,67,0
4096,note_off,,,,,256,0,1,,,,0,61,0
4608,note_on,,,,,0,0,1,,,,0,51,64
4608,note_on,,,,,0,0,1,,,,0,46,64
4608,note_on,,,,,0,0,1,,,,0,73,64
4608,note_off,,,,,0,0,1,,,,0,72,0
4608,note_off,,,,,0,0,1,,,,0,68,0
4608,note_off,,,,,0,0,1,,,,0,51,0
4608,note_off,,,,,0,0,1,,,,0,44,0
4608,note_off,,,,,512,0,1,,,,0,60,0
4608,note_on,,,,,0,0,1,,,,0,61,64
4608,note_on,,,,,0,0,1,,,,0,67,64
7680,note_off,,,,,3072,0,1,,,,0,61,0
7680,note_off,,,,,0,0,1,,,,0,67,0
7680,note_off,,,,,0,0,1,,,,0,46,0
7680,note_off,,,,,0,0,1,,,,0,51,0
7680,note_on,,,,,0,0,1,,,,0,60,64
7680,note_on,,,,,0,0,1,,,,0,68,64
7680,note_on,,,,,0,0,1,,,,0,72,64
7680,note_on,,,,,0,0,1,,,,0,44,64
7680,note_on,,,,,0,0,1,,,,0,51,64
7680,note_off,,,,,0,0,1,,,,0,73,0
8448,note_off,,,,,0,0,1,,,,0,68,0
8448,note_off,,,,,0,0,1,,,,0,44,0
8448,note_off,,,,,0,0,1,,,,0,51,0
8448,note_on,,,,,0,0,1,,,,0,61,64
8448,note_on,,,,,0,0,1,,,,0,67,64
8448,note_on,,,,,0,0,1,,,,0,73,64
8448,note_on,,,,,0,0,1,,,,0,46,64
8448,note_on,,,,,0,0,1,,,,0,51,64
8448,note_off,,,,,0,0,1,,,,0,72,0
8448,note_off,,,,,768,0,1,,,,0,60,0
8704,note_off,,,,,0,0,1,,,,0,73,0
8704,note_off,,,,,0,0,1,,,,0,46,0
8704,note_off,,,,,0,0,1,,,,0,51,0
8704,note_on,,,,,0,0,1,,,,0,60,64
8704,note_on,,,,,0,0,1,,,,0,68,64
8704,note_on,,,,,0,0,1,,,,0,72,64
8704,note_on,,,,,0,0,1,,,,0,51,64
8704,note_off,,,,,0,0,1,,,,0,67,0
8704,note_off,,,,,256,0,1,,,,0,61,0
8704,note_on,,,,,0,0,1,,,,0,44,64
9216,note_off,,,,,512,0,1,,,,0,60,0
9216,note_off,,,,,0,0,1,,,,0,68,0
9216,note_off,,,,,0,0,1,,,,0,72,0
9216,note_on,,,,,0,0,1,,,,0,51,64
9216,note_on,,,,,0,0,1,,,,0,39,64
9216,note_on,,,,,0,0,1,,,,0,70,64
9216,note_on,,,,,0,0,1,,,,0,67,64
9216,note_off,,,,,0,0,1,,,,0,44,0
9216,note_off,,,,,0,0,1,,,,0,51,0
9216,note_on,,,,,0,0,1,,,,0,58,64
12288,note_off,,,,,0,0,1,,,,0,51,0
12288,note_off,,,,,0,0,1,,,,0,39,0
12288,note_on,,,,,0,0,1,,,,0,72,80
12288,note_on,,,,,0,0,1,,,,0,60,80
12288,note_on,,,,,0,0,1,,,,0,44,80
12288,note_on,,,,,0,0,1,,,,0,51,80
12288,note_off,,,,,3072,0,1,,,,0,58,0
12288,note_off,,,,,0,0,1,,,,0,67,0
12288,note_off,,,,,0,0,1,,,,0,70,0
12288,note_on,,,,,0,0,1,,,,0,68,80
13056,note_on,,,,,0,0,1,,,,0,46,84
13056,note_on,,,,,0,0,1,,,,0,73,84
13056,note_on,,,,,0,0,1,,,,0,67,84
13056,note_on,,,,,0,0,1,,,,0,61,84
13056,note_off,,,,,0,0,1,,,,0,51,0
13056,note_off,,,,,0,0,1,,,,0,44,0
13056,note_off,,,,,0,0,1,,,,0,72,0
13056,note_off,,,,,0,0,1,,,,0,68,0
13056,note_off,,,,,768,0,1,,,,0,60,0
13056,note_on,,,,,0,0,1,,,,0,51,84
13312,note_on,,,,,0,0,1,,,,0,44,85
13312,note_off,,,,,256,0,1,,,,0,61,0
13312,note_off,,,,,0,0,1,,,,0,67,0
13312,note_on,,,,,0,0,1,,,,0,72,85
13312,note_off,,,,,0,0,1,,,,0,73,0
13312,note_off,,,,,0,0,1,,,,0,51,0
13312,note_on,,,,,0,0,1,,,,0,60,85
13312,note_on,,,,,0,0,1,,,,0,68,85
13312,note_off,,,,,0,0,1,,,,0,46,0
13312,note_on,,,,,0,0,1,,,,0,51,85
13824,note_on,,,,,0,0,1,,,,0,68,88
13824,note_on,,,,,0,0,1,,,,0,60,88
13824,note_off,,,,,0,0,1,,,,0,51,0
13824,note_off,,,,,0,0,1,,,,0,44,0
13824,note_off,,,,,0,0,1,,,,0,72,0
13824,note_off,,,,,0,0,1,,,,0,68,0
13824,note_off,,,,,512,0,1,,,,0,60,0
13824,note_on,,,,,0,0,1,,,,0,44,88
13824,note_on,,,,,0,0,1,,,,0,51,88
13824,note_on,,,,,0,0,1,,,,0,72,88
14592,note_on,,,,,0,0,1,,,,0,51,92
14592,note_on,,,,,0,0,1,,,,0,46,92
14592,note_on,,,,,0,0,1,,,,0,67,92
14592,note_off,,,,,768,0,1,,,,0,60,0
14592,note_off,,,,,0,0,1,,,,0,51,0
14592,note_off,,,,,0,0,1,,,,0,44,0
14592,note_off,,,,,0,0,1,,,,0,72,0
14592,note_off,,,,,0,0,1,,,,0,68,0
14592,note_on,,,,,0,0,1,,,,0,61,92
14592,note_on,,,,,0,0,1,,,,0,73,92
14848,note_off,,,,,0,0,1,,,,0,51,0
14848,note_off,,,,,256,0,1,,,,0,61,0
14848,note_off,,,,,0,0,1,,,,0,67,0
14848,note_off,,,,,0,0,1,,,,0,73,0
14848,note_off,,,,,0,0,1,,,,0,46,0
14848,note_on,,,,,0,0,1,,,,0,60,93
14848,note_on,,,,,0,0,1,,,,0,72,93
14848,note_on,,,,,0,0,1,,,,0,44,93
14848,note_on,,,,,0,0,1,,,,0,51,93
14848,note_on,,,,,0,0,1,,,,0,68,93
15360,note_off,,,,,512,0,1,,,,0,60,0
15360,note_off,,,,,0,0,1,,,,0,68,0
15360,note_off,,,,,0,0,1,,,,0,72,0
15360,note_off,,,,,0,0,1,,,,0,44,0
15360,note_off,,,,,0,0,1,,,,0,51,0
15360,note_on,,,,,0,0,1,,,,0,63,96
15360,note_on,,,,,0,0,1,,,,0,68,96
15360,note_on,,,,,0,0,1,,,,0,75,96
15360,note_on,,,,,0,0,1,,,,0,48,96
15360,note_on,,,,,0,0,1,,,,0,51,96
16768,note_on,,,,,0,0,1,,,,0,75,72
16768,note_on,,,,,1408,0,1,,,,0,63,72
16896,note_on,,,,,0,0,1,,,,0,67,72
16896,note_off,,,,,128,0,1,,,,0,63,0
16896,note_off,,,,,0,0,1,,,,0,68,0
16896,note_off,,,,,0,0,1,,,,0,75,0
16896,note_off,,,,,0,0,1,,,,0,75,0
16896,note_off,,,,,0,0,1,,,,0,48,0
16896,note_off,,,,,0,0,1,,,,0,51,0
16896,note_off,,,,,0,0,1,,,,0,63,0
16896,note_on,,,,,0,0,1,,,,0,73,72
16896,note_on,,,,,0,0,1,,,,0,46,72
16896,note_on,,,,,0,0,1,,,,0,51,72
16896,note_on,,,,,0,0,1,,,,0,61,72
18176,note_off,,,,,0,0,1,,,,0,46,0
18176,note_on,,,,,0,0,1,,,,0,51,65
18176,note_off,,,,,1280,0,1,,,,0,61,0
18176,note_off,,,,,0,0,1,,,,0,51,0
18176,note_on,,,,,0,0,1,,,,0,60,65
18176,note_on,,,,,0,0,1,,,,0,68,65
18176,note_on,,,,,0,0,1,,,,0,72,65
18176,note_on,,,,,0,0,1,,,,0,44,65
18176,note_off,,,,,0,0,1,,,,0,67,0
18176,note_off,,,,,0,0,1,,,,0,73,0
18432,note_off,,,,,0,0,1,,,,0,44,0
18432,note_off,,,,,0,0,1,,,,0,51,0
18432,note_on,,,,,0,0,1,,,,0,51,64
18432,note_on,,,,,0,0,1,,,,0,44,64
18432,note_on,,,,,0,0,1,,,,0,72,64
18432,note_off,,,,,0,0,1,,,,0,72,0
18432,note_off,,,,,256,0,1,,,,0,60,0
18432,note_off,,,,,0,0,1,,,,0,68,0
18432,note_on,,,,,0,0,1,,,,0,68,64
18432,note_on,,,,,0,0,1,,,,0,60,64
21504,note_on,,,,,0,0,1,,,,0,51,64
21504,note_on,,,,,0,0,1,,,,0,39,64
21504,note_on,,,,,0,0,1,,,,0,67,64
21504,note_on,,,,,0,0,1,,,,0,70,64
21504,note_off,,,,,0,0,1,,,,0,44,0
21504,note_off,,,,,0,0,1,,,,0,72,0
21504,note_off,,,,,0,0,1,,,,0,68,0
21504,note_off,,,,,3072,0,1,,,,0,60,0
21504,note_on,,,,,0,0,1,,,,0,58,64
21504,note_off,,,,,0,0,1,,,,0,51,0
22272,note_off,,,,,768,0,1,,,,0,58,0
22272,note_off,,,,,0,0,1,,,,0,67,0
22272,note_off,,,,,0,0,1,,,,0,70,0
22272,note_off,,,,,0,0,1,,,,0,39,0
22272,note_off,,,,,0,0,1,,,,0,51,0
22272,note_on,,,,,0,0,1,,,,0,68,64
22272,note_on,,,,,0,0,1,,,,0,71,64
22272,note_on,,,,,0,0,1,,,,0,44,64
22272,note_on,,,,,0,0,1,,,,0,51,64
22272,note_on,,,,,0,0,1,,,,0,59,64
22528,note_on,,,,,0,0,1,,,,0,51,64
22528,note_on,,,,,0,0,1,,,,0,39,64
22528,note_on,,,,,0,0,1,,,,0,70,64
22528,note_on,,,,,0,0,1,,,,0,67,64
22528,note_on,,,,,0,0,1,,,,0,58,64
22528,note_off,,,,,0,0,1,,,,0,44,0
22528,note_off,,,,,0,0,1,,,,0,71,0
22528,note_off,,,,,0,0,1,,,,0,68,0
22528,note_off,,,,,0,0,1,,,,0,51,0
22528,note_off,,,,,256,0,1,,,,0,59,0
23040,note_on,,,,,0,0,1,,,,0,51,64
23040,note_on,,,,,0,0,1,,,,0,70,64
23040,note_on,,,,,0,0,1,,,,0,67,64
23040,note_on,,,,,0,0,1,,,,0,39,64
23040,note_off,,,,,0,0,1,,,,0,39,0
23040,note_off,,,,,0,0,1,,,,0,70,0
23040,note_off,,,,,0,0,1,,,,0,67,0
23040,note_off,,,,,512,0,1,,,,0,58,0
23040,note_on,,,,,0,0,1,,,,0,58,64
23040,note_off,,,,,0,0,1,,,,0,51,0
23808,note_off,,,,,768,0,1,,,,0,58,0
23808,note_off,,,,,0,0,1,,,,0,67,0
23808,note_off,,,,,0,0,1,,,,0,39,0
23808,note_off,,,,,0,0,1,,,,0,51,0
23808,note_on,,,,,0,0,1,,,,0,59,64
23808,note_on,,,,,0,0,1,,,,0,68,64
23808,note_on,,,,,0,0,1,,,,0,71,64
23808,note_on,,,,,0,0,1,,,,0,44,64
23808,note_on,,,,,0,0,1,,,,0,51,64
23808,note_off,,,,,0,0,1,,,,0,70,0
24064,note_off,,,,,0,0,1,,,,0,68,0
24064,note_off,,,,,0,0,1,,,,0,71,0
24064,note_off,,,,,0,0,1,,,,0,44,0
24064,note_off,,,,,0,0,1,,,,0,51,0
24064,note_on,,,,,0,0,1,,,,0,58,64
24064,note_on,,,,,0,0,1,,,,0,67,64
24064,note_on,,,,,0,0,1,,,,0,70,64
24064,note_on,,,,,0,0,1,,,,0,39,64
24064,note_on,,,,,0,0,1,,,,0,51,64
24064,note_off,,,,,256,0,1,,,,0,59,0
24576,note_on,,,,,0,0,1,,,,0,68,80
24576,note_off,,,,,512,0,1,,,,0,58,0
24576,note_off,,,,,0,0,1,,,,0,67,0
24576,note_off,,,,,0,0,1,,,,0,70,0
24576,note_off,,,,,0,0,1,,,,0,39,0
24576,note_off,,,,,0,0,1,,,,0,51,0
24576,note_on,,,,,0,0,1,,,,0,71,80
24576,note_on,,,,,0,0,1,,,,0,38,80
24576,note_on,,,,,0,0,1,,,,0,50,80
24576,note_on,,,,,0,0,1,,,,0,65,80
27648,note_off,,,,,3072,0,1,,,,0,65,0
27648,note_off,,,,,0,0,1,,,,0,38,0
27648,note_off,,,,,0,0,1,,,,0,50,0
27648,note_on,,,,,0,0,1,,,,0,63,64
27648,note_on,,,,,0,0,1,,,,0,39,64
27648,note_on,,,,,0,0,1,,,,0,51,64
29184,note_off,,,,,1536,0,1,,,,0,63,0
29184,note_off,,,,,0,0,1,,,,0,68,0
29184,note_off,,,,,0,0,1,,,,0,71,0
29184,note_on,,,,,0,0,1,,,,0,63,64
29184,note_on,,,,,0,0,1,,,,0,67,64
29184,note_on,,,,,0,0,1,,,,0,70,64
29696,note_off,,,,,0,0,1,,,,0,39,0
29696,note_off,,,,,512,0,1,,,,0,63,0
29696,note_off,,,,,0,0,1,,,,0,70,0
29696,note_off,,,,,0,0,1,,,,0,67,0
29696,note_off,,,,,0,0,1,,,,0,51,0
30720,note_on,,,,,0,0,1,,,,0,70,88
30720,note_on,,,,,0,0,1,,,,0,39,88
30720,note_on,,,,,0,0,1,,,,0,51,88
30720,note_on,,,,,0,0,1,,,,0,66,88
30720,note_on,,,,,1024,0,1,,,,0,58,88
31488,note_on,,,,,0,0,1,,,,0,71,94
31488,note_on,,,,,0,0,1,,,,0,68,94
31488,note_on,,,,,0,0,1,,,,0,51,94
31488,note_off,,,,,0,0,1,,,,0,51,0
31488,note_on,,,,,0,0,1,,,,0,59,94
31488,note_off,,,,,768,0,1,,,,0,58,0
31488,note_on,,,,,0,0,1,,,,0,44,94
31488,note_off,,,,,0,0,1,,,,0,70,0
31488,note_off,,,,,0,0,1,,,,0,39,0
31488,note_off,,,,,0,0,1,,,,0,66,0
31744,note_off,,,,,256,0,1,,,,0,59,0
31744,note_off,,,,,0,0,1,,,,0,68,0
31744,note_off,,,,,0,0,1,,,,0,71,0
31744,note_off,,,,,0,0,1,,,,0,44,0
31744,note_on,,,,,0,0,1,,,,0,58,96
31744,note_on,,,,,0,0,1,,,,0,66,96
31744,note_on,,,,,0,0,1,,,,0,70,96
31744,note_on,,,,,0,0,1,,,,0,39,96
31744,note_on,,,,,0,0,1,,,,0,51,96
31744,note_off,,,,,0,0,1,,,,0,51,0
32256,note_off,,,,,512,0,1,,,,0,58,0
32256,note_off,,,,,0,0,1,,,,0,66,0
32256,note_on,,,,,0,0,1,,,,0,66,100
32256,note_off,,,,,0,0,1,,,,0,39,0
32256,note_off,,,,,0,0,1,,,,0,51,0
32256,note_on,,,,,0,0,1,,,,0,51,100
32256,note_off,,,,,0,0,1,,,,0,70,0
32256,note_on,,,,,0,0,1,,,,0,70,100
32256,note_on,,,,,0,0,1,,,,0,39,100
32256,note_on,,,,,0,0,1,,,,0,58,100
32768,note_off,,,,,512,0,1,,,,0,58,0
32768,note_off,,,,,0,0,1,,,,0,66,0
32768,note_off,,,,,0,0,1,,,,0,70,0
32768,note_on,,,,,0,0,1,,,,0,51,104
32768,note_off,,,,,0,0,1,,,,0,39,0
32768,note_off,,,,,0,0,1,,,,0,51,0
32768,note_on,,,,,0,0,1,,,,0,63,104
32768,note_on,,,,,0,0,1,,,,0,70,104
32768,note_on,,,,,0,0,1,,,,0,75,104
32768,note_on,,,,,0,0,1,,,,0,42,104
33280,note_off,,,,,512,0,1,,,,0,63,0
33280,note_off,,,,,0,0,1,,,,0,75,0
33280,note_off,,,,,0,0,1,,,,0,42,0
33280,note_off,,,,,0,0,1,,,,0,51,0
33280,note_on,,,,,0,0,1,,,,0,65,108
33280,note_on,,,,,0,0,1,,,,0,75,108
33280,note_on,,,,,0,0,1,,,,0,77,108
33280,note_on,,,,,0,0,1,,,,0,47,108
33280,note_on,,,,,0,0,1,,,,0,51,108
33280,note_off,,,,,0,0,1,,,,0,70,0
33792,note_off,,,,,512,0,1,,,,0,65,0
33792,note_off,,,,,0,0,1,,,,0,75,0
33792,note_off,,,,,0,0,1,,,,0,77,0
33792,note_off,,,,,0,0,1,,,,0,47,0
33792,note_off,,,,,0,0,1,,,,0,51,0
33792,note_on,,,,,0,0,1,,,,0,66,82
33792,note_on,,,,,0,0,1,,,,0,51,82
33792,note_on,,,,,0,0,1,,,,0,78,82
33792,note_on,,,,,0,0,1,,,,0,46,82
33792,note_on,,,,,0,0,1,,,,0,75,82
35200,note_on,,,,,1408,0,1,,,,0,66,76
35200,note_on,,,,,0,0,1,,,,0,78,76
35328,note_off,,,,,128,0,1,,,,0,66,0
35328,note_off,,,,,0,0,1,,,,0,75,0
35328,note_off,,,,,0,0,1,,,,0,78,0
35328,note_off,,,,,0,0,1,,,,0,66,0
35328,note_on,,,,,0,0,1,,,,0,56,76
35328,note_off,,,,,0,0,1,,,,0,46,0
35328,note_off,,,,,0,0,1,,,,0,51,0
35328,note_on,,,,,0,0,1,,,,0,65,76
35328,note_on,,,,,0,0,1,,,,0,74,76
35328,note_on,,,,,0,0,1,,,,0,77,76
35328,note_on,,,,,0,0,1,,,,0,46,76
35328,note_off,,,,,0,0,1,,,,0,78,0
36608,note_off,,,,,1280,0,1,,,,0,65,0
36608,note_off,,,,,0,0,1,,,,0,77,0
36608,note_off,,,,,0,0,1,,,,0,46,0
36608,note_off,,,,,0,0,1,,,,0,56,0
36608,note_on,,,,,0,0,1,,,,0,63,71
36608,note_on,,,,,0,0,1,,,,0,75,71
36608,note_on,,,,,0,0,1,,,,0,51,71
36608,note_on,,,,,0,0,1,,,,0,55,71
36608,note_off,,,,,0,0,1,,,,0,74,0
36864,note_off,,,,,256,0,1,,,,0,63,0
36864,note_off,,,,,0,0,1,,,,0,75,0
36864,note_off,,,,,0,0,1,,,,0,51,0
36864,note_off,,,,,0,0,1,,,,0,55,0
36864,note_on,,,,,0,0,1,,,,0,63,70
36864,note_on,,,,,0,0,1,,,,0,75,70
36864,note_on,,,,,0,0,1,,,,0,55,70
36864,note_on,,,,,0,0,1,,,,0,51,70
39936,note_off,,,,,3072,0,1,,,,0,63,0
39936,note_off,,,,,0,0,1,,,,0,55,0
39936,note_on,,,,,0,0,1,,,,0,60,49
39936,note_on,,,,,0,0,1,,,,0,68,49
39936,note_on,,,,,0,0,1,,,,0,72,49
39936,note_on,,,,,0,0,1,,,,0,44,49
39936,note_on,,,,,0,0,1,,,,0,51,49
39936,note_off,,,,,0,0,1,,,,0,51,0
39936,note_off,,,,,0,0,1,,,,0,75,0
40704,note_off,,,,,0,0,1,,,,0,44,0
40704,note_off,,,,,768,0,1,,,,0,60,0
40704,note_off,,,,,0,0,1,,,,0,68,0
40704,note_off,,,,,0,0,1,,,,0,72,0
40704,note_off,,,,,0,0,1,,,,0,51,0
40704,note_on,,,,,0,0,1,,,,0,61,49
40704,note_on,,,,,0,0,1,,,,0,67,49
40704,note_on,,,,,0,0,1,,,,0,46,49
40704,note_on,,,,,0,0,1,,,,0,51,49
40704,note_on,,,,,0,0,1,,,,0,73,49
40960,note_on,,,,,0,0,1,,,,0,68,49
40960,note_off,,,,,256,0,1,,,,0,61,0
40960,note_on,,,,,0,0,1,,,,0,60,49
40960,note_off,,,,,0,0,1,,,,0,67,0
40960,note_off,,,,,0,0,1,,,,0,73,0
40960,note_off,,,,,0,0,1,,,,0,46,0
40960,note_on,,,,,0,0,1,,,,0,72,49
40960,note_on,,,,,0,0,1,,,,0,44,49
40960,note_on,,,,,0,0,1,,,,0,51,49
40960,note_off,,,,,0,0,1,,,,0,51,0
41472,note_off,,,,,512,0,1,,,,0,60,0
41472,note_off,,,,,0,0,1,,,,0,68,0
41472,note_off,,,,,0,0,1,,,,0,72,0
41472,note_off,,,,,0,0,1,,,,0,51,0
41472,note_on,,,,,0,0,1,,,,0,61,61
41472,note_on,,,,,0,0,1,,,,0,67,61
41472,note_on,,,,,0,0,1,,,,0,73,61
41472,note_on,,,,,0,0,1,,,,0,46,61
41472,note_on,,,,,0,0,1,,,,0,51,61
41472,note_off,,,,,0,0,1,,,,0,44,0
44544,note_on,,,,,0,0,1,,,,0,51,49
44544,note_on,,,,,0,0,1,,,,0,44,49
44544,note_on,,,,,0,0,1,,,,0,72,49
44544,note_on,,,,,0,0,1,,,,0,60,49
44544,note_on,,,,,0,0,1,,,,0,68,49
44544,note_off,,,,,0,0,1,,,,0,46,0
44544,note_off,,,,,0,0,1,,,,0,73,0
44544,note_off,,,,,0,0,1,,,,0,67,0
44544,note_off,,,,,0,0,1,,,,0,51,0
44544,note_off,,,,,3072,0,1,,,,0,61,0
45312,note_on,,,,,0,0,1,,,,0,51,49
45312,note_on,,,,,0,0,1,,,,0,75,49
45312,note_on,,,,,0,0,1,,,,0,63,49
45312,note_on,,,,,0,0,1,,,,0,48,49
45312,note_off,,,,,0,0,1,,,,0,44,0
45312,note_off,,,,,0,0,1,,,,0,68,0
45312,note_off,,,,,768,0,1,,,,0,60,0
45312,note_off,,,,,0,0,1,,,,0,51,0
45312,note_off,,,,,0,0,1,,,,0,72,0
45568,note_off,,,,,256,0,1,,,,0,63,0
45568,note_off,,,,,0,0,1,,,,0,75,0
45568,note_off,,,,,0,0,1,,,,0,48,0
45568,note_off,,,,,0,0,1,,,,0,51,0
45568,note_on,,,,,0,0,1,,,,0,68,49
45568,note_on,,,,,0,0,1,,,,0,72,49
45568,note_on,,,,,0,0,1,,,,0,44,49
45568,note_on,,,,,0,0,1,,,,0,51,49
45568,note_on,,,,,0,0,1,,,,0,60,49
46080,note_on,,,,,0,0,1,,,,0,39,49
46080,note_off,,,,,512,0,1,,,,0,60,0
46080,note_off,,,,,0,0,1,,,,0,68,0
46080,note_off,,,,,0,0,1,,,,0,72,0
46080,note_off,,,,,0,0,1,,,,0,44,0
46080,note_off,,,,,0,0,1,,,,0,51,0
46080,note_on,,,,,0,0,1,,,,0,58,49
46080,note_on,,,,,0,0,1,,,,0,67,49
46080,note_on,,,,,0,0,1,,,,0,70,49
46080,note_on,,,,,0,0,1,,,,0,51,49
49152,note_off,,,,,3072,0,1,,,,0,58,0
49152,note_off,,,,,0,0,1,,,,0,70,0
49152,note_off,,,,,0,0,1,,,,0,39,0
49152,note_off,,,,,0,0,1,,,,0,51,0
49152,note_on,,,,,0,0,1,,,,0,60,65
49152,note_on,,,,,0,0,1,,,,0,68,65
49152,note_on,,,,,0,0,1,,,,0,72,65
49152,note_on,,,,,0,0,1,,,,0,44,65
49152,note_on,,,,,0,0,1,,,,0,51,65
49152,note_off,,,,,0,0,1,,,,0,67,0
49920,note_off,,,,,0,0,1,,,,0,44,0
49920,note_on,,,,,0,0,1,,,,0,73,69
49920,note_off,,,,,768,0,1,,,,0,60,0
49920,note_off,,,,,0,0,1,,,,0,51,0
49920,note_on,,,,,0,0,1,,,,0,61,69
49920,note_on,,,,,0,0,1,,,,0,67,69
49920,note_off,,,,,0,0,1,,,,0,68,0
49920,note_on,,,,,0,0,1,,,,0,46,69
49920,note_off,,,,,0,0,1,,,,0,72,0
49920,note_on,,,,,0,0,1,,,,0,51,69
50176,note_on,,,,,0,0,1,,,,0,51,70
50176,note_on,,,,,0,0,1,,,,0,44,70
50176,note_on,,,,,0,0,1,,,,0,72,70
50176,note_on,,,,,0,0,1,,,,0,68,70
50176,note_off,,,,,256,0,1,,,,0,61,0
50176,note_off,,,,,0,0,1,,,,0,51,0
50176,note_off,,,,,0,0,1,,,,0,46,0
50176,note_off,,,,,0,0,1,,,,0,73,0
50176,note_off,,,,,0,0,1,,,,0,67,0
50176,note_on,,,,,0,0,1,,,,0,60,70
50688,note_on,,,,,0,0,1,,,,0,51,73
50688,note_on,,,,,0,0,1,,,,0,44,73
50688,note_on,,,,,0,0,1,,,,0,72,73
50688,note_on,,,,,0,0,1,,,,0,68,73
50688,note_off,,,,,0,0,1,,,,0,51,0
50688,note_off,,,,,0,0,1,,,,0,72,0
50688,note_off,,,,,0,0,1,,,,0,68,0
50688,note_off,,,,,512,0,1,,,,0,60,0
50688,note_on,,,,,0,0,1,,,,0,60,73
50688,note_off,,,,,0,0,1,,,,0,44,0
51456,note_off,,,,,768,0,1,,,,0,60,0
51456,note_off,,,,,0,0,1,,,,0,68,0
51456,note_off,,,,,0,0,1,,,,0,72,0
51456,note_off,,,,,0,0,1,,,,0,44,0
51456,note_off,,,,,0,0,1,,,,0,51,0
51456,note_on,,,,,0,0,1,,,,0,51,77
51456,note_on,,,,,0,0,1,,,,0,68,77
51456,note_on,,,,,0,0,1,,,,0,65,77
51456,note_on,,,,,0,0,1,,,,0,77,77
51456,note_on,,,,,0,0,1,,,,0,49,77
51712,note_off,,,,,0,0,1,,,,0,68,0
51712,note_off,,,,,0,0,1,,,,0,49,0
51712,note_off,,,,,0,0,1,,,,0,51,0
51712,note_on,,,,,0,0,1,,,,0,63,78
51712,note_on,,,,,0,0,1,,,,0,75,78
51712,note_on,,,,,0,0,1,,,,0,48,78
51712,note_off,,,,,256,0,1,,,,0,65,0
51712,note_on,,,,,0,0,1,,,,0,51,78
51712,note_off,,,,,0,0,1,,,,0,77,0
51712,note_on,,,,,0,0,1,,,,0,68,78
52224,note_off,,,,,0,0,1,,,,0,75,0
52224,note_off,,,,,512,0,1,,,,0,63,0
52224,note_off,,,,,0,0,1,,,,0,68,0
52224,note_off,,,,,0,0,1,,,,0,48,0
52224,note_on,,,,,0,0,1,,,,0,63,81
52224,note_on,,,,,0,0,1,,,,0,68,81
52224,note_on,,,,,0,0,1,,,,0,75,81
52224,note_on,,,,,0,0,1,,,,0,48,81
52224,note_on,,,,,0,0,1,,,,0,51,81
52224,note_off,,,,,0,0,1,,,,0,51,0
53632,note_on,,,,,1408,0,1,,,,0,63,49
53632,note_on,,,,,0,0,1,,,,0,75,49
53760,note_off,,,,,128,0,1,,,,0,63,0
53760,note_off,,,,,0,0,1,,,,0,68,0
53760,note_off,,,,,0,0,1,,,,0,75,0
53760,note_off,,,,,0,0,1,,,,0,63,0
53760,note_off,,,,,0,0,1,,,,0,75,0
53760,note_off,,,,,0,0,1,,,,0,48,0
53760,note_off,,,,,0,0,1,,,,0,51,0
53760,note_on,,,,,0,0,1,,,,0,67,49
53760,note_on,,,,,0,0,1,,,,0,73,49
53760,note_on,,,,,0,0,1,,,,0,46,49
53760,note_on,,,,,0,0,1,,,,0,51,49
53760,note_on,,,,,0,0,1,,,,0,61,49
55040,note_on,,,,,0,0,1,,,,0,51,39
55040,note_on,,,,,0,0,1,,,,0,44,39
55040,note_on,,,,,0,0,1,,,,0,72,39
55040,note_on,,,,,0,0,1,,,,0,68,39
55040,note_on,,,,,0,0,1,,,,0,60,39
55040,note_off,,,,,0,0,1,,,,0,46,0
55040,note_off,,,,,0,0,1,,,,0,73,0
55040,note_off,,,,,0,0,1,,,,0,67,0
55040,note_off,,,,,0,0,1,,,,0,51,0
55040,note_off,,,,,1280,0,1,,,,0,61,0
55296,note_on,,,,,0,0,1,,,,0,51,37
55296,note_on,,,,,0,0,1,,,,0,72,37
55296,note_on,,,,,0,0,1,,,,0,68,37
55296,note_on,,,,,0,0,1,,,,0,44,37
55296,note_off,,,,,0,0,1,,,,0,44,0
55296,note_off,,,,,0,0,1,,,,0,72,0
55296,note_off,,,,,0,0,1,,,,0,68,0
55296,note_off,,,,,256,0,1,,,,0,60,0
55296,note_on,,,,,0,0,1,,,,0,60,37
55296,note_off,,,,,0,0,1,,,,0,51,0
58368,note_off,,,,,3072,0,1,,,,0,60,0
58368,note_off,,,,,0,0,1,,,,0,72,0
58368,note_off,,,,,0,0,1,,,,0,44,0
58368,note_off,,,,,0,0,1,,,,0,51,0
58368,note_on,,,,,0,0,1,,,,0,58,49
58368,note_on,,,,,0,0,1,,,,0,67,49
58368,note_on,,,,,0,0,1,,,,0,70,49
58368,note_on,,,,,0,0,1,,,,0,39,49
58368,note_on,,,,,0,0,1,,,,0,51,49
58368,note_off,,,,,0,0,1,,,,0,68,0
59136,note_on,,,,,0,0,1,,,,0,68,49
59136,note_off,,,,,0,0,1,,,,0,67,0
59136,note_off,,,,,0,0,1,,,,0,70,0
59136,note_off,,,,,0,0,1,,,,0,39,0
59136,note_off,,,,,0,0,1,,,,0,51,0
59136,note_off,,,,,768,0,1,,,,0,58,0
59136,note_on,,,,,0,0,1,,,,0,71,49
59136,note_on,,,,,0,0,1,,,,0,44,49
59136,note_on,,,,,0,0,1,,,,0,59,49
59136,note_on,,,,,0,0,1,,,,0,51,49
59392,note_off,,,,,0,0,1,,,,0,68,0
59392,note_on,,,,,0,0,1,,,,0,51,49
59392,note_off,,,,,0,0,1,,,,0,71,0
59392,note_off,,,,,0,0,1,,,,0,44,0
59392,note_off,,,,,0,0,1,,,,0,51,0
59392,note_on,,,,,0,0,1,,,,0,58,49
59392,note_on,,,,,0,0,1,,,,0,67,49
59392,note_on,,,,,0,0,1,,,,0,70,49
59392,note_on,,,,,0,0,1,,,,0,39,49
59392,note_off,,,,,256,0,1,,,,0,59,0
59904,note_off,,,,,0,0,1,,,,0,39,0
59904,note_off,,,,,0,0,1,,,,0,51,0
59904,note_on,,,,,0,0,1,,,,0,51,49
59904,note_on,,,,,0,0,1,,,,0,39,49
59904,note_on,,,,,0,0,1,,,,0,70,49
59904,note_off,,,,,0,0,1,,,,0,70,0
59904,note_off,,,,,512,0,1,,,,0,58,0
59904,note_off,,,,,0,0,1,,,,0,67,0
59904,note_on,,,,,0,0,1,,,,0,58,49
59904,note_on,,,,,0,0,1,,,,0,67,49
60672,note_on,,,,,0,0,1,,,,0,51,49
60672,note_on,,,,,0,0,1,,,,0,44,49
60672,note_on,,,,,0,0,1,,,,0,71,49
60672,note_on,,,,,0,0,1,,,,0,68,49
60672,note_off,,,,,0,0,1,,,,0,51,0
60672,note_off,,,,,0,0,1,,,,0,70,0
60672,note_off,,,,,0,0,1,,,,0,67,0
60672,note_off,,,,,768,0,1,,,,0,58,0
60672,note_on,,,,,0,0,1,,,,0,59,49
60672,note_off,,,,,0,0,1,,,,0,39,0
60928,note_off,,,,,256,0,1,,,,0,59,0
60928,note_off,,,,,0,0,1,,,,0,68,0
60928,note_off,,,,,0,0,1,,,,0,71,0
60928,note_off,,,,,0,0,1,,,,0,51,0
60928,note_on,,,,,0,0,1,,,,0,58,49
60928,note_on,,,,,0,0,1,,,,0,67,49
60928,note_on,,,,,0,0,1,,,,0,70,49
60928,note_on,,,,,0,0,1,,,,0,39,49
60928,note_on,,,,,0,0,1,,,,0,51,49
60928,note_off,,,,,0,0,1,,,,0,44,0
61440,note_on,,,,,0,0,1,,,,0,50,61
61440,note_on,,,,,0,0,1,,,,0,38,61
61440,note_on,,,,,0,0,1,,,,0,71,83
61440,note_on,,,,,0,0,1,,,,0,68,83
61440,note_off,,,,,0,0,1,,,,0,39,0
61440,note_off,,,,,0,0,1,,,,0,51,0
61440,note_off,,,,,0,0,1,,,,0,70,0
61440,note_off,,,,,0,0,1,,,,0,67,0
61440,note_on,,,,,0,0,1,,,,0,65,83
61440,note_off,,,,,512,0,1,,,,0,58,0
62976,note_on,,,,,0,0,1,,,,0,77,93
62976,note_on,,,,,0,0,1,,,,0,71,93
62976,note_off,,,,,0,0,1,,,,0,71,0
62976,note_off,,,,,0,0,1,,,,0,68,0
62976,note_off,,,,,1536,0,1,,,,0,65,0
62976,note_on,,,,,0,0,1,,,,0,68,93
64000,note_off,,,,,1024,0,1,,,,0,68,0
64000,note_off,,,,,0,0,1,,,,0,71,0
64256,note_off,,,,,256,0,1,,,,0,77,0
64256,note_on,,,,,0,0,1,,,,0,75,51
64512,note_off,,,,,0,0,1,,,,0,38,0
64512,note_off,,,,,0,0,1,,,,0,50,0
64512,note_on,,,,,0,0,1,,,,0,68,51
64512,note_on,,,,,0,0,1,,,,0,71,51
64512,note_on,,,,,0,0,1,,,,0,75,51
64512,note_on,,,,,0,0,1,,,,0,39,51
64512,note_on,,,,,0,0,1,,,,0,51,51
64512,note_off,,,,,256,0,1,,,,0,75,0
66048,note_off,,,,,1536,0,1,,,,0,68,0
66048,note_off,,,,,0,0,1,,,,0,71,0
66048,note_on,,,,,0,0,1,,,,0,67,48
66048,note_on,,,,,0,0,1,,,,0,70,48
66560,note_off,,,,,512,0,1,,,,0,67,0
66560,note_off,,,,,0,0,1,,,,0,70,0
66560,note_off,,,,,0,0,1,,,,0,75,0
66560,note_off,,,,,0,0,1,,,,0,39,0
66560,note_off,,,,,0,0,1,,,,0,51,0
67584,note_on,,,,,1024,0,1,,,,0,75,49
67584,note_on,,,,,0,0,1,,,,0,60,49
67584,note_on,,,,,0,0,1,,,,0,67,49
67584,note_on,,,,,0,0,1,,,,0,69,49
68352,note_on,,,,,0,0,1,,,,0,77,49
68352,note_off,,,,,768,0,1,,,,0,75,0
68608,note_off,,,,,256,0,1,,,,0,77,0
68608,note_on,,,,,0,0,1,,,,0,75,49
68608,note_on,,,,,0,0,1,,,,0,60,49
68608,note_on,,,,,0,0,1,,,,0,67,49
68608,note_on,,,,,0,0,1,,,,0,69,49
68608,note_off,,,,,0,0,1,,,,0,60,0
68608,note_off,,,,,0,0,1,,,,0,67,0
68608,note_off,,,,,0,0,1,,,,0,69,0
69120,note_on,,,,,0,0,1,,,,0,61,49
69120,note_off,,,,,512,0,1,,,,0,75,0
69120,note_off,,,,,0,0,1,,,,0,60,0
69120,note_off,,,,,0,0,1,,,,0,67,0
69120,note_off,,,,,0,0,1,,,,0,69,0
69120,note_on,,,,,0,0,1,,,,0,66,49
69120,note_on,,,,,0,0,1,,,,0,68,49
69120,note_on,,,,,0,0,1,,,,0,75,49
70144,note_on,,,,,0,0,1,,,,0,72,53
70144,note_off,,,,,0,0,1,,,,0,75,0
70144,note_off,,,,,1024,0,1,,,,0,68,0
70656,note_on,,,,,0,0,1,,,,0,65,55
70656,note_off,,,,,0,0,1,,,,0,66,0
70656,note_off,,,,,512,0,1,,,,0,72,0
70656,note_on,,,,,0,0,1,,,,0,73,55
71168,note_off,,,,,512,0,1,,,,0,73,0
71168,note_off,,,,,0,0,1,,,,0,61,0
71168,note_off,,,,,0,0,1,,,,0,65,0
72192,note_on,,,,,1024,0,1,,,,0,73,61
72192,note_on,,,,,0,0,1,,,,0,35,61
72192,note_on,,,,,0,0,1,,,,0,47,61
72960,note_off,,,,,768,0,1,,,,0,73,0
72960,note_on,,,,,0,0,1,,,,0,75,64
73216,note_off,,,,,0,0,1,,,,0,47,0
73216,note_off,,,,,0,0,1,,,,0,35,0
73216,note_on,,,,,0,0,1,,,,0,47,65
73216,note_off,,,,,256,0,1,,,,0,75,0
73216,note_on,,,,,0,0,1,,,,0,35,65
73216,note_on,,,,,0,0,1,,,,0,73,65
73728,note_off,,,,,512,0,1,,,,0,73,0
73728,note_off,,,,,0,0,1,,,,0,35,0
73728,note_off,,,,,0,0,1,,,,0,47,0
73728,note_on,,,,,0,0,1,,,,0,75,67
73728,note_on,,,,,0,0,1,,,,0,34,67
73728,note_on,,,,,0,0,1,,,,0,46,67
73728,note_on,,,,,0,0,1,,,,0,66,67
74496,note_on,,,,,0,0,1,,,,0,73,70
74496,note_off,,,,,768,0,1,,,,0,75,0
74752,note_on,,,,,0,0,1,,,,0,45,71
74752,note_off,,,,,256,0,1,,,,0,73,0
74752,note_on,,,,,0,0,1,,,,0,66,71
74752,note_off,,,,,0,0,1,,,,0,34,0
74752,note_off,,,,,0,0,1,,,,0,46,0
74752,note_off,,,,,0,0,1,,,,0,66,0
74752,note_on,,,,,0,0,1,,,,0,73,71
74752,note_on,,,,,0,0,1,,,,0,33,71
75136,note_on,,,,,384,0,1,,,,0,73,61
75264,note_off,,,,,128,0,1,,,,0,73,0
75264,note_off,,,,,0,0,1,,,,0,73,0
75264,note_off,,,,,0,0,1,,,,0,33,0
75264,note_off,,,,,0,0,1,,,,0,45,0
75264,note_off,,,,,0,0,1,,,,0,66,0
75264,note_on,,,,,0,0,1,,,,0,78,73
75264,note_on,,,,,0,0,1,,,,0,32,73
75264,note_on,,,,,0,0,1,,,,0,44,73
75264,note_on,,,,,0,0,1,,,,0,73,73
75264,note_on,,,,,0,0,1,,,,0,66,73
76288,note_off,,,,,1024,0,1,,,,0,78,0
76288,note_on,,,,,0,0,1,,,,0,77,92
76672,note_on,,,,,384,0,1,,,,0,77,88
76800,note_off,,,,,128,0,1,,,,0,77,0
76800,note_off,,,,,0,0,1,,,,0,77,0
76800,note_off,,,,,0,0,1,,,,0,32,0
76800,note_off,,,,,0,0,1,,,,0,44,0
76800,note_off,,,,,0,0,1,,,,0,66,0
76800,note_off,,,,,0,0,1,,,,0,73,0
76800,note_on,,,,,0,0,1,,,,0,66,64
76800,note_on,,,,,0,0,1,,,,0,72,64
76800,note_on,,,,,0,0,1,,,,0,75,64
76800,note_on,,,,,0,0,1,,,,0,44,64
76800,note_on,,,,,0,0,1,,,,0,56,64
78080,note_off,,,,,0,0,1,,,,0,44,0
78080,note_off,,,,,0,0,1,,,,0,72,0
78080,note_off,,,,,0,0,1,,,,0,56,0
78080,note_on,,,,,0,0,1,,,,0,65,54
78080,note_on,,,,,0,0,1,,,,0,73,54
78080,note_on,,,,,0,0,1,,,,0,49,54
78080,note_on,,,,,0,0,1,,,,0,56,54
78080,note_off,,,,,1280,0,1,,,,0,66,0
78080,note_off,,,,,0,0,1,,,,0,75,0
78336,note_off,,,,,256,0,1,,,,0,65,0
78336,note_off,,,,,0,0,1,,,,0,73,0
78336,note_off,,,,,0,0,1,,,,0,49,0
78336,note_off,,,,,0,0,1,,,,0,56,0
78336,note_on,,,,,0,0,1,,,,0,65,64
78336,note_on,,,,,0,0,1,,,,0,73,64
78336,note_on,,,,,0,0,1,,,,0,49,64
78336,note_on,,,,,0,0,1,,,,0,56,64
82944,note_off,,,,,4608,0,1,,,,0,65,0
82944,note_off,,,,,0,0,1,,,,0,73,0
82944,note_off,,,,,0,0,1,,,,0,49,0
82944,note_off,,,,,0,0,1,,,,0,56,0
82944,note_on,,,,,0,0,1,,,,0,73,49
82944,note_on,,,,,0,0,1,,,,0,42,36
82944,key_signature,,,,,82944,1,0,F#m,,,,,
83456,note_off,,,,,512,0,1,,,,0,42,0
83456,note_on,,,,,0,0,1,,,,0,49,38
83968,note_off,,,,,512,0,1,,,,0,49,0
83968,note_on,,,,,0,0,1,,,,0,57,39
84480,note_off,,,,,512,0,1,,,,0,73,0
84480,note_on,,,,,0,0,1,,,,0,73,53
84480,note_on,,,,,0,0,1,,,,0,42,41
84480,note_off,,,,,0,0,1,,,,0,57,0
84992,note_off,,,,,512,0,1,,,,0,42,0
84992,note_on,,,,,0,0,1,,,,0,49,42
85504,note_on,,,,,0,0,1,,,,0,57,44
85504,note_off,,,,,512,0,1,,,,0,49,0
86016,note_on,,,,,0,0,1,,,,0,42,45
86016,note_off,,,,,0,0,1,,,,0,57,0
86016,note_off,,,,,512,0,1,,,,0,73,0
86016,note_on,,,,,0,0,1,,,,0,73,58
86528,note_off,,,,,512,0,1,,,,0,42,0
86528,note_on,,,,,0,0,1,,,,0,49,47
87040,note_off,,,,,512,0,1,,,,0,49,0
87040,note_on,,,,,0,0,1,,,,0,57,48
87552,note_off,,,,,512,0,1,,,,0,73,0
87552,note_off,,,,,0,0,1,,,,0,57,0
87552,note_on,,,,,0,0,1,,,,0,74,62
87552,note_on,,,,,0,0,1,,,,0,42,50
88064,note_on,,,,,0,0,1,,,,0,50,52
88064,note_off,,,,,512,0,1,,,,0,42,0
88576,note_off,,,,,512,0,1,,,,0,50,0
88576,note_on,,,,,0,0,1,,,,0,59,53
89088,note_off,,,,,512,0,1,,,,0,59,0
89088,note_on,,,,,0,0,1,,,,0,42,55
89600,note_off,,,,,512,0,1,,,,0,42,0
89600,note_on,,,,,0,0,1,,,,0,50,56
90112,note_off,,,,,512,0,1,,,,0,50,0
90112,note_on,,,,,0,0,1,,,,0,59,58
90624,note_off,,,,,512,0,1,,,,0,59,0
90624,note_on,,,,,0,0,1,,,,0,42,59
91136,note_off,,,,,512,0,1,,,,0,42,0
91136,note_on,,,,,0,0,1,,,,0,50,61
91648,note_on,,,,,0,0,1,,,,0,59,62
91648,note_off,,,,,512,0,1,,,,0,50,0
92160,note_on,,,,,0,0,1,,,,0,76,75
92160,note_on,,,,,0,0,1,,,,0,42,64
92160,note_off,,,,,512,0,1,,,,0,74,0
92160,note_off,,,,,0,0,1,,,,0,59,0
92672,note_off,,,,,512,0,1,,,,0,42,0
92672,note_on,,,,,0,0,1,,,,0,47,62
93184,note_off,,,,,512,0,1,,,,0,76,0
93184,note_on,,,,,0,0,1,,,,0,74,73
93184,note_on,,,,,0,0,1,,,,0,56,61
93184,note_off,,,,,0,0,1,,,,0,47,0
93696,note_off,,,,,512,0,1,,,,0,74,0
93696,note_on,,,,,0,0,1,,,,0,74,71
93696,note_on,,,,,0,0,1,,,,0,42,59
93696,note_off,,,,,0,0,1,,,,0,56,0
94208,note_off,,,,,512,0,1,,,,0,42,0
94208,note_on,,,,,0,0,1,,,,0,49,57
94720,note_off,,,,,512,0,1,,,,0,74,0
94720,note_on,,,,,0,0,1,,,,0,57,56
94720,note_off,,,,,0,0,1,,,,0,49,0
94720,note_on,,,,,0,0,1,,,,0,73,69
95232,note_off,,,,,512,0,1,,,,0,73,0
95232,note_on,,,,,0,0,1,,,,0,73,68
95232,note_on,,,,,0,0,1,,,,0,42,54
95232,note_off,,,,,0,0,1,,,,0,57,0
95744,note_off,,,,,512,0,1,,,,0,42,0
95744,note_on,,,,,0,0,1,,,,0,50,52
96256,note_off,,,,,0,0,1,,,,0,50,0
96256,note_on,,,,,0,0,1,,,,0,71,65
96256,note_on,,,,,0,0,1,,,,0,59,51
96256,note_off,,,,,512,0,1,,,,0,73,0
96768,note_off,,,,,512,0,1,,,,0,71,0
96768,note_off,,,,,0,0,1,,,,0,59,0
96768,note_on,,,,,0,0,1,,,,0,42,64
96768,note_on,,,,,0,0,1,,,,0,73,64
97280,note_off,,,,,512,0,1,,,,0,42,0
97280,note_on,,,,,0,0,1,,,,0,49,64
97792,note_off,,,,,512,0,1,,,,0,49,0
97792,note_on,,,,,0,0,1,,,,0,57,64
98304,note_off,,,,,512,0,1,,,,0,57,0
98304,note_on,,,,,0,0,1,,,,0,42,64
98816,note_off,,,,,512,0,1,,,,0,42,0
98816,note_on,,,,,0,0,1,,,,0,49,64
99328,note_off,,,,,512,0,1,,,,0,49,0
99328,note_on,,,,,0,0,1,,,,0,57,64
99840,note_on,,,,,0,0,1,,,,0,73,64
99840,note_on,,,,,0,0,1,,,,0,45,64
99840,note_off,,,,,512,0,1,,,,0,73,0
99840,note_off,,,,,0,0,1,,,,0,57,0
100352,note_off,,,,,512,0,1,,,,0,45,0
100352,note_on,,,,,0,0,1,,,,0,49,64
100864,note_off,,,,,512,0,1,,,,0,73,0
100864,note_on,,,,,0,0,1,,,,0,69,64
100864,note_on,,,,,0,0,1,,,,0,54,64
100864,note_off,,,,,0,0,1,,,,0,49,0
101376,note_off,,,,,512,0,1,,,,0,69,0
101376,note_off,,,,,0,0,1,,,,0,54,0
101376,note_on,,,,,0,0,1,,,,0,68,64
101376,note_on,,,,,0,0,1,,,,0,49,64
101888,note_off,,,,,512,0,1,,,,0,49,0
101888,note_on,,,,,0,0,1,,,,0,53,64
102400,note_off,,,,,512,0,1,,,,0,53,0
102400,note_on,,,,,0,0,1,,,,0,56,64
102912,note_off,,,,,512,0,1,,,,0,56,0
102912,note_on,,,,,0,0,1,,,,0,49,64
103424,note_off,,,,,512,0,1,,,,0,49,0
103424,note_on,,,,,0,0,1,,,,0,53,64
103936,note_off,,,,,512,0,1,,,,0,53,0
103936,note_on,,,,,0,0,1,,,,0,56,64
104448,note_on,,,,,0,0,1,,,,0,45,64
104448,note_off,,,,,512,0,1,,,,0,68,0
104448,note_off,,,,,0,0,1,,,,0,56,0
104448,note_on,,,,,0,0,1,,,,0,78,80
104960,note_off,,,,,512,0,1,,,,0,45,0
104960,note_on,,,,,0,0,1,,,,0,49,64
105472,note_off,,,,,512,0,1,,,,0,78,0
105472,note_on,,,,,0,0,1,,,,0,69,64
105472,note_on,,,,,0,0,1,,,,0,54,64
105472,note_off,,,,,0,0,1,,,,0,49,0
105984,note_on,,,,,0,0,1,,,,0,49,64
105984,note_on,,,,,0,0,1,,,,0,68,64
105984,note_off,,,,,512,0,1,,,,0,69,0
105984,note_off,,,,,0,0,1,,,,0,54,0
106496,note_on,,,,,0,0,1,,,,0,53,64
106496,note_off,,,,,512,0,1,,,,0,49,0
107008,note_on,,,,,0,0,1,,,,0,56,64
107008,note_off,,,,,512,0,1,,,,0,53,0
107520,note_on,,,,,512,0,1,,,,0,50,64
107520,note_on,,,,,0,0,1,,,,0,50,64
107520,note_off,,,,,0,0,1,,,,0,56,0
108032,note_on,,,,,0,0,1,,,,0,71,64
108032,note_off,,,,,512,0,1,,,,0,68,0
108032,note_off,,,,,0,0,1,,,,0,50,0
108032,note_on,,,,,0,0,1,,,,0,56,64
108544,note_off,,,,,512,0,1,,,,0,71,0
108544,note_on,,,,,0,0,1,,,,0,69,64
108544,note_on,,,,,0,0,1,,,,0,54,64
108544,note_off,,,,,0,0,1,,,,0,56,0
109056,note_off,,,,,0,0,1,,,,0,54,0
109056,note_on,,,,,0,0,1,,,,0,68,64
109056,note_off,,,,,512,0,1,,,,0,69,0
109056,note_on,,,,,0,0,1,,,,0,53,64
109568,note_off,,,,,512,0,1,,,,0,68,0
109568,note_on,,,,,0,0,1,,,,0,54,64
109568,note_off,,,,,0,0,1,,,,0,53,0
109568,note_on,,,,,0,0,1,,,,0,69,64
110080,note_off,,,,,512,0,1,,,,0,69,0
110080,note_on,,,,,0,0,1,,,,0,71,64
110080,note_on,,,,,0,0,1,,,,0,49,64
110080,note_on,,,,,0,0,1,,,,0,56,64
110080,note_off,,,,,0,0,1,,,,0,50,0
110080,note_off,,,,,0,0,1,,,,0,54,0
110592,note_on,,,,,0,0,1,,,,0,42,49
110592,note_off,,,,,0,0,1,,,,0,56,0
110592,note_off,,,,,512,0,1,,,,0,71,0
110592,note_on,,,,,0,0,1,,,,0,73,64
110592,note_off,,,,,0,0,1,,,,0,49,0
111104,note_off,,,,,512,0,1,,,,0,42,0
111104,note_on,,,,,0,0,1,,,,0,49,53
111616,note_on,,,,,0,0,1,,,,0,57,58
111616,note_off,,,,,512,0,1,,,,0,49,0
112128,note_off,,,,,512,0,1,,,,0,73,0
112128,note_on,,,,,0,0,1,,,,0,73,82
112128,note_off,,,,,0,0,1,,,,0,57,0
112128,note_on,,,,,0,0,1,,,,0,42,62
112640,note_on,,,,,0,0,1,,,,0,47,67
112640,note_off,,,,,512,0,1,,,,0,42,0
113152,note_on,,,,,0,0,1,,,,0,56,72
113152,note_off,,,,,512,0,1,,,,0,47,0
113664,note_on,,,,,0,0,1,,,,0,73,101
113664,note_off,,,,,0,0,1,,,,0,56,0
113664,note_on,,,,,0,0,1,,,,0,42,77
113664,note_off,,,,,512,0,1,,,,0,73,0
114176,note_on,,,,,0,0,1,,,,0,45,82
114176,note_off,,,,,512,0,1,,,,0,42,0
114688,note_on,,,,,0,0,1,,,,0,54,88
114688,note_off,,,,,512,0,1,,,,0,45,0
115200,note_off,,,,,512,0,1,,,,0,73,0
115200,note_on,,,,,0,0,1,,,,0,74,125
115200,note_off,,,,,0,0,1,,,,0,54,0
115200,note_on,,,,,0,0,1,,,,0,40,93
115712,note_off,,,,,512,0,1,,,,0,40,0
115712,note_on,,,,,0,0,1,,,,0,47,95
116224,note_off,,,,,512,0,1,,,,0,47,0
116224,note_on,,,,,0,0,1,,,,0,56,99
116736,note_on,,,,,0,0,1,,,,0,40,101
116736,note_off,,,,,512,0,1,,,,0,56,0
117248,note_off,,,,,512,0,1,,,,0,40,0
117248,note_on,,,,,0,0,1,,,,0,47,104
117760,note_off,,,,,512,0,1,,,,0,47,0
117760,note_on,,,,,0,0,1,,,,0,56,106
118272,note_off,,,,,512,0,1,,,,0,56,0
118272,note_on,,,,,0,0,1,,,,0,40,108
118784,note_off,,,,,512,0,1,,,,0,40,0
118784,note_on,,,,,0,0,1,,,,0,47,110
119296,note_off,,,,,512,0,1,,,,0,47,0
119296,note_on,,,,,0,0,1,,,,0,56,112
119680,note_on,,,,,384,0,1,,,,0,74,64
119808,note_on,,,,,0,0,1,,,,0,78,64
119808,note_on,,,,,0,0,1,,,,0,40,64
119808,note_off,,,,,0,0,1,,,,0,56,0
119808,note_off,,,,,128,0,1,,,,0,74,0
119808,note_off,,,,,0,0,1,,,,0,74,0
120320,note_off,,,,,512,0,1,,,,0,40,0
120320,note_on,,,,,0,0,1,,,,0,47,64
120832,note_on,,,,,0,0,1,,,,0,74,64
120832,note_on,,,,,0,0,1,,,,0,56,64
120832,note_off,,,,,0,0,1,,,,0,47,0
120832,note_off,,,,,512,0,1,,,,0,78,0
121344,note_off,,,,,512,0,1,,,,0,74,0
121344,note_on,,,,,0,0,1,,,,0,40,64
121344,note_off,,,,,0,0,1,,,,0,56,0
121344,note_on,,,,,0,0,1,,,,0,74,64
121856,note_off,,,,,512,0,1,,,,0,40,0
121856,note_on,,,,,0,0,1,,,,0,49,64
122368,note_off,,,,,512,0,1,,,,0,74,0
122368,note_on,,,,,0,0,1,,,,0,73,64
122368,note_on,,,,,0,0,1,,,,0,57,64
122368,note_off,,,,,0,0,1,,,,0,49,0
122880,note_off,,,,,0,0,1,,,,0,57,0
122880,note_on,,,,,0,0,1,,,,0,40,64
122880,note_on,,,,,0,0,1,,,,0,73,64
122880,note_off,,,,,512,0,1,,,,0,73,0
123392,note_off,,,,,512,0,1,,,,0,40,0
123392,note_on,,,,,0,0,1,,,,0,50,64
123904,note_on,,,,,0,0,1,,,,0,71,64
123904,note_on,,,,,0,0,1,,,,0,56,64
123904,note_off,,,,,0,0,1,,,,0,50,0
123904,note_off,,,,,512,0,1,,,,0,73,0
124416,note_off,,,,,512,0,1,,,,0,71,0
124416,note_off,,,,,0,0,1,,,,0,56,0
124416,note_on,,,,,0,0,1,,,,0,73,64
124416,note_on,,,,,0,0,1,,,,0,45,64
124928,note_on,,,,,0,0,1,,,,0,49,64
124928,note_off,,,,,512,0,1,,,,0,45,0
125440,note_off,,,,,512,0,1,,,,0,49,0
125440,note_on,,,,,0,0,1,,,,0,57,64
125952,note_off,,,,,512,0,1,,,,0,57,0
125952,note_on,,,,,0,0,1,,,,0,45,64
126464,note_off,,,,,512,0,1,,,,0,45,0
126464,note_on,,,,,0,0,1,,,,0,49,64
126976,note_off,,,,,512,0,1,,,,0,49,0
126976,note_on,,,,,0,0,1,,,,0,56,64
127488,note_off,,,,,0,0,1,,,,0,56,0
127488,note_off,,,,,512,0,1,,,,0,73,0
127488,note_on,,,,,0,0,1,,,,0,73,75
127488,note_on,,,,,0,0,1,,,,0,45,75
128000,note_off,,,,,512,0,1,,,,0,45,0
128000,note_on,,,,,0,0,1,,,,0,49,75
128512,note_off,,,,,512,0,1,,,,0,73,0
128512,note_on,,,,,0,0,1,,,,0,54,75
128512,note_off,,,,,0,0,1,,,,0,49,0
128512,note_on,,,,,0,0,1,,,,0,69,75
129024,note_off,,,,,512,0,1,,,,0,69,0
129024,note_off,,,,,0,0,1,,,,0,54,0
129024,note_on,,,,,0,0,1,,,,0,68,75
129024,note_on,,,,,0,0,1,,,,0,47,75
129536,note_on,,,,,0,0,1,,,,0,50,75
129536,note_off,,,,,512,0,1,,,,0,47,0
130048,note_off,,,,,512,0,1,,,,0,50,0
130048,note_on,,,,,0,0,1,,,,0,54,75
130560,note_off,,,,,512,0,1,,,,0,54,0
130560,note_on,,,,,0,0,1,,,,0,52,75
131072,note_off,,,,,512,0,1,,,,0,52,0
131072,note_on,,,,,0,0,1,,,,0,54,75
131584,note_off,,,,,512,0,1,,,,0,54,0
131584,note_on,,,,,0,0,1,,,,0,59,75
132096,note_off,,,,,512,0,1,,,,0,68,0
132096,note_on,,,,,0,0,1,,,,0,71,75
132096,note_on,,,,,0,0,1,,,,0,49,75
132096,note_off,,,,,0,0,1,,,,0,59,0
132608,note_off,,,,,0,0,1,,,,0,49,0
132608,note_on,,,,,0,0,1,,,,0,53,75
132608,note_off,,,,,512,0,1,,,,0,71,0
132608,note_on,,,,,0,0,1,,,,0,69,75
133120,note_off,,,,,0,0,1,,,,0,53,0
133120,note_off,,,,,512,0,1,,,,0,69,0
133120,note_on,,,,,0,0,1,,,,0,68,75
133120,note_on,,,,,0,0,1,,,,0,47,75
133632,note_off,,,,,512,0,1,,,,0,68,0
133632,note_off,,,,,0,0,1,,,,0,47,0
133632,note_on,,,,,0,0,1,,,,0,73,75
133632,note_on,,,,,0,0,1,,,,0,45,75
134144,note_on,,,,,0,0,1,,,,0,49,75
134144,note_off,,,,,512,0,1,,,,0,45,0
134656,note_off,,,,,512,0,1,,,,0,49,0
134656,note_on,,,,,0,0,1,,,,0,54,75
135168,note_off,,,,,512,0,1,,,,0,54,0
135168,note_on,,,,,0,0,1,,,,0,44,75
135680,note_off,,,,,512,0,1,,,,0,44,0
135680,note_on,,,,,0,0,1,,,,0,47,75
136192,note_off,,,,,512,0,1,,,,0,47,0
136192,note_on,,,,,0,0,1,,,,0,54,75
136576,note_on,,,,,384,0,1,,,,0,73,75
136704,note_on,,,,,0,0,1,,,,0,45,75
136704,note_on,,,,,0,0,1,,,,0,78,75
136704,note_off,,,,,0,0,1,,,,0,54,0
136704,note_off,,,,,0,0,1,,,,0,73,0
136704,note_off,,,,,128,0,1,,,,0,73,0
137216,note_on,,,,,0,0,1,,,,0,49,75
137216,note_off,,,,,512,0,1,,,,0,45,0
137728,note_off,,,,,0,0,1,,,,0,49,0
137728,note_on,,,,,0,0,1,,,,0,54,75
137728,note_on,,,,,0,0,1,,,,0,69,75
137728,note_off,,,,,512,0,1,,,,0,78,0
138240,note_on,,,,,0,0,1,,,,0,68,75
138240,note_off,,,,,0,0,1,,,,0,54,0
138240,note_off,,,,,512,0,1,,,,0,69,0
138240,note_on,,,,,0,0,1,,,,0,47,75
138752,note_on,,,,,0,0,1,,,,0,50,75
138752,note_off,,,,,512,0,1,,,,0,47,0
139264,note_on,,,,,0,0,1,,,,0,54,75
139264,note_off,,,,,512,0,1,,,,0,50,0
139776,note_off,,,,,512,0,1,,,,0,54,0
139776,note_on,,,,,0,0,1,,,,0,50,75
140288,note_off,,,,,512,0,1,,,,0,68,0
140288,note_on,,,,,0,0,1,,,,0,69,75
140288,note_on,,,,,0,0,1,,,,0,54,75
140288,note_off,,,,,0,0,1,,,,0,50,0
140800,note_on,,,,,0,0,1,,,,0,59,75
140800,note_off,,,,,0,0,1,,,,0,54,0
140800,note_off,,,,,512,0,1,,,,0,69,0
140800,note_on,,,,,0,0,1,,,,0,68,75
141312,note_on,,,,,0,0,1,,,,0,49,75
141312,note_off,,,,,0,0,1,,,,0,59,0
141312,note_off,,,,,512,0,1,,,,0,68,0
141312,note_on,,,,,0,0,1,,,,0,71,75
141824,note_on,,,,,0,0,1,,,,0,53,75
141824,note_off,,,,,0,0,1,,,,0,49,0
141824,note_on,,,,,0,0,1,,,,0,69,75
141824,note_off,,,,,512,0,1,,,,0,71,0
142336,note_off,,,,,512,0,1,,,,0,69,0
142336,note_on,,,,,0,0,1,,,,0,68,75
142336,note_on,,,,,0,0,1,,,,0,59,75
142336,note_off,,,,,0,0,1,,,,0,53,0
142848,note_on,,,,,0,0,1,,,,0,54,75
142848,note_on,,,,,0,0,1,,,,0,66,75
142848,note_off,,,,,0,0,1,,,,0,59,0
142848,note_off,,,,,512,0,1,,,,0,68,0
142848,note_on,,,,,0,0,1,,,,0,57,75
143360,note_off,,,,,512,0,1,,,,0,54,0
143360,note_off,,,,,0,0,1,,,,0,57,0
143360,note_on,,,,,0,0,1,,,,0,42,72
143872,note_on,,,,,0,0,1,,,,0,45,69
143872,note_off,,,,,512,0,1,,,,0,42,0
144384,note_on,,,,,0,0,1,,,,0,49,66
144384,note_off,,,,,512,0,1,,,,0,45,0
144896,note_on,,,,,0,0,1,,,,0,54,63
144896,note_off,,,,,512,0,1,,,,0,49,0
145408,note_on,,,,,0,0,1,,,,0,56,59
145408,note_off,,,,,512,0,1,,,,0,54,0
145920,note_on,,,,,0,0,1,,,,0,57,56
145920,note_off,,,,,0,0,1,,,,0,56,0
145920,note_off,,,,,512,0,1,,,,0,66,0
146432,note_on,,,,,0,0,1,,,,0,61,53
146432,note_off,,,,,512,0,1,,,,0,57,0
146944,note_on,,,,,0,0,1,,,,0,57,50
146944,note_off,,,,,512,0,1,,,,0,61,0
147456,note_on,,,,,0,0,1,,,,0,73,49
147456,note_on,,,,,0,0,1,,,,0,53,49
147456,note_off,,,,,512,0,1,,,,0,57,0
147968,note_off,,,,,512,0,1,,,,0,53,0
147968,note_on,,,,,0,0,1,,,,0,56,50
148480,note_off,,,,,512,0,1,,,,0,56,0
148480,note_on,,,,,0,0,1,,,,0,61,51
148992,note_on,,,,,0,0,1,,,,0,53,52
148992,note_off,,,,,0,0,1,,,,0,61,0
148992,note_on,,,,,0,0,1,,,,0,73,52
148992,note_off,,,,,512,0,1,,,,0,73,0
149504,note_off,,,,,512,0,1,,,,0,53,0
149504,note_on,,,,,0,0,1,,,,0,56,53
150016,note_off,,,,,512,0,1,,,,0,56,0
150016,note_on,,,,,0,0,1,,,,0,61,53
150528,note_on,,,,,0,0,1,,,,0,73,54
150528,note_off,,,,,512,0,1,,,,0,73,0
150528,note_off,,,,,0,0,1,,,,0,61,0
150528,note_on,,,,,0,0,1,,,,0,53,54
151040,note_off,,,,,512,0,1,,,,0,53,0
151040,note_on,,,,,0,0,1,,,,0,56,55
151552,note_off,,,,,512,0,1,,,,0,56,0
151552,note_on,,,,,0,0,1,,,,0,61,56
152064,note_on,,,,,0,0,1,,,,0,52,57
152064,note_off,,,,,0,0,1,,,,0,61,0
152064,note_on,,,,,0,0,1,,,,0,73,57
152064,note_off,,,,,512,0,1,,,,0,73,0
152576,note_off,,,,,512,0,1,,,,0,52,0
152576,note_on,,,,,0,0,1,,,,0,56,58
153088,note_off,,,,,512,0,1,,,,0,56,0
153088,note_on,,,,,0,0,1,,,,0,61,59
153600,note_off,,,,,512,0,1,,,,0,73,0
153600,note_on,,,,,0,0,1,,,,0,73,60
153600,note_off,,,,,0,0,1,,,,0,61,0
153600,note_on,,,,,0,0,1,,,,0,52,60
154112,note_on,,,,,0,0,1,,,,0,56,61
154112,note_off,,,,,512,0,1,,,,0,52,0
154624,note_off,,,,,512,0,1,,,,0,56,0
154624,note_on,,,,,0,0,1,,,,0,61,61
155136,note_off,,,,,512,0,1,,,,0,73,0
155136,note_on,,,,,0,0,1,,,,0,73,62
155136,note_on,,,,,0,0,1,,,,0,52,62
155136,note_off,,,,,0,0,1,,,,0,61,0
155648,note_off,,,,,512,0,1,,,,0,52,0
155648,note_on,,,,,0,0,1,,,,0,56,63
156160,note_off,,,,,512,0,1,,,,0,56,0
156160,note_on,,,,,0,0,1,,,,0,61,64
156544,note_on,,,,,384,0,1,,,,0,73,49
156672,note_off,,,,,0,0,1,,,,0,61,0
156672,note_off,,,,,128,0,1,,,,0,73,0
156672,note_on,,,,,0,0,1,,,,0,51,64
156672,note_off,,,,,0,0,1,,,,0,73,0
156672,note_on,,,,,0,0,1,,,,0,76,64
157184,set_tempo,,,,,74240,1,0,,571428,,,,
157184,note_off,,,,,512,0,1,,,,0,51,0
157184,note_on,,,,,0,0,1,,,,0,55,64
157696,set_tempo,,,,,512,1,0,,588235,,,,
157696,note_off,,,,,512,0,1,,,,0,76,0
157696,note_on,,,,,0,0,1,,,,0,75,64
157696,note_on,,,,,0,0,1,,,,0,61,64
157696,note_off,,,,,0,0,1,,,,0,55,0
158208,note_off,,,,,512,0,1,,,,0,75,0
158208,set_tempo,,,,,512,1,0,,606060,,,,
158208,note_off,,,,,0,0,1,,,,0,61,0
158208,note_on,,,,,0,0,1,,,,0,51,64
158208,note_on,,,,,0,0,1,,,,0,75,64
158720,note_on,,,,,0,0,1,,,,0,75,64
158720,note_on,,,,,0,0,1,,,,0,55,64
158720,set_tempo,,,,,512,1,0,,631578,,,,
158720,note_off,,,,,512,0,1,,,,0,75,0
158720,note_off,,,,,0,0,1,,,,0,51,0
159232,set_tempo,,,,,512,1,0,,652173,,,,
159232,note_off,,,,,512,0,1,,,,0,75,0
159232,note_on,,,,,0,0,1,,,,0,75,64
159232,note_on,,,,,0,0,1,,,,0,61,64
159232,note_off,,,,,0,0,1,,,,0,55,0
159744,note_off,,,,,0,0,1,,,,0,61,0
159744,note_on,,,,,0,0,1,,,,0,51,64
159744,note_on,,,,,0,0,1,,,,0,75,64
159744,set_tempo,,,,,512,1,0,,674157,,,,
159744,note_off,,,,,512,0,1,,,,0,75,0
160256,note_off,,,,,512,0,1,,,,0,75,0
160256,set_tempo,,,,,512,1,0,,697674,,,,
160256,note_on,,,,,0,0,1,,,,0,75,64
160256,note_on,,,,,0,0,1,,,,0,55,64
160256,note_off,,,,,0,0,1,,,,0,51,0
160768,note_off,,,,,0,0,1,,,,0,55,0
160768,set_tempo,,,,,512,1,0,,731707,,,,
160768,note_off,,,,,512,0,1,,,,0,75,0
160768,note_on,,,,,0,0,1,,,,0,75,64
160768,note_on,,,,,0,0,1,,,,0,61,64
161280,note_off,,,,,512,0,1,,,,0,75,0
161280,note_on,,,,,0,0,1,,,,0,51,64
161280,note_on,,,,,0,0,1,,,,0,55,64
161280,note_on,,,,,0,0,1,,,,0,75,64
161280,note_on,,,,,0,0,1,,,,0,55,64
161280,note_off,,,,,0,0,1,,,,0,61,0
161792,note_on,,,,,0,0,1,,,,0,58,64
161792,note_off,,,,,512,0,1,,,,0,55,0
162304,note_on,,,,,0,0,1,,,,0,60,64
162304,note_off,,,,,512,0,1,,,,0,58,0
162816,note_on,,,,,0,0,1,,,,0,61,64
162816,note_off,,,,,512,0,1,,,,0,60,0
164352,note_off,,,,,0,0,1,,,,0,61,0
164352,note_off,,,,,0,0,1,,,,0,75,0
164352,note_off,,,,,0,0,1,,,,0,55,0
164352,note_off,,,,,1536,0,1,,,,0,51,0
165888,key_signature,,,,,5120,1,0,Ab,,,,,
165888,set_tempo,,,,,0,1,0,,555555,,,,
168960,note_on,,,,,0,0,1,,,,0,44,64
168960,note_on,,,,,0,0,1,,,,0,72,64
168960,note_on,,,,,0,0,1,,,,0,68,64
168960,note_on,,,,,4608,0,1,,,,0,60,64
168960,note_on,,,,,0,0,1,,,,0,51,64
169728,note_on,,,,,0,0,1,,,,0,46,64
169728,note_off,,,,,768,0,1,,,,0,60,0
169728,note_off,,,,,0,0,1,,,,0,68,0
169728,note_off,,,,,0,0,1,,,,0,72,0
169728,note_off,,,,,0,0,1,,,,0,44,0
169728,note_off,,,,,0,0,1,,,,0,51,0
169728,note_on,,,,,0,0,1,,,,0,67,64
169728,note_on,,,,,0,0,1,,,,0,61,64
169728,note_on,,,,,0,0,1,,,,0,51,64
169728,note_on,,,,,0,0,1,,,,0,73,64
169984,note_on,,,,,0,0,1,,,,0,72,64
169984,note_on,,,,,0,0,1,,,,0,60,64
169984,note_off,,,,,256,0,1,,,,0,61,0
169984,note_off,,,,,0,0,1,,,,0,67,0
169984,note_off,,,,,0,0,1,,,,0,73,0
169984,note_on,,,,,0,0,1,,,,0,68,64
169984,note_on,,,,,0,0,1,,,,0,44,64
169984,note_on,,,,,0,0,1,,,,0,51,64
169984,note_off,,,,,0,0,1,,,,0,51,0
169984,note_off,,,,,0,0,1,,,,0,46,0
170496,note_on,,,,,0,0,1,,,,0,51,64
170496,note_on,,,,,0,0,1,,,,0,73,64
170496,note_on,,,,,0,0,1,,,,0,67,64
170496,note_off,,,,,512,0,1,,,,0,60,0
170496,note_off,,,,,0,0,1,,,,0,51,0
170496,note_off,,,,,0,0,1,,,,0,44,0
170496,note_off,,,,,0,0,1,,,,0,72,0
170496,note_off,,,,,0,0,1,,,,0,68,0
170496,note_on,,,,,0,0,1,,,,0,61,64
170496,note_on,,,,,0,0,1,,,,0,46,64
173568,note_off,,,,,3072,0,1,,,,0,61,0
173568,note_off,,,,,0,0,1,,,,0,67,0
173568,note_off,,,,,0,0,1,,,,0,73,0
173568,note_off,,,,,0,0,1,,,,0,46,0
173568,note_off,,,,,0,0,1,,,,0,51,0
173568,note_on,,,,,0,0,1,,,,0,60,64
173568,note_on,,,,,0,0,1,,,,0,72,64
173568,note_on,,,,,0,0,1,,,,0,68,64
173568,note_on,,,,,0,0,1,,,,0,51,64
173568,note_on,,,,,0,0,1,,,,0,44,64
174336,note_off,,,,,0,0,1,,,,0,72,0
174336,note_off,,,,,0,0,1,,,,0,68,0
174336,note_off,,,,,768,0,1,,,,0,60,0
174336,note_on,,,,,0,0,1,,,,0,61,64
174336,note_on,,,,,0,0,1,,,,0,67,64
174336,note_on,,,,,0,0,1,,,,0,73,64
174336,note_on,,,,,0,0,1,,,,0,46,64
174336,note_on,,,,,0,0,1,,,,0,51,64
174336,note_off,,,,,0,0,1,,,,0,51,0
174336,note_off,,,,,0,0,1,,,,0,44,0
174592,note_off,,,,,256,0,1,,,,0,61,0
174592,note_off,,,,,0,0,1,,,,0,67,0
174592,note_off,,,,,0,0,1,,,,0,73,0
174592,note_off,,,,,0,0,1,,,,0,46,0
174592,note_off,,,,,0,0,1,,,,0,51,0
174592,note_on,,,,,0,0,1,,,,0,60,64
174592,note_on,,,,,0,0,1,,,,0,72,64
174592,note_on,,,,,0,0,1,,,,0,44,64
174592,note_on,,,,,0,0,1,,,,0,51,64
174592,note_on,,,,,0,0,1,,,,0,68,64
175104,note_on,,,,,0,0,1,,,,0,70,64
175104,note_off,,,,,512,0,1,,,,0,60,0
175104,note_off,,,,,0,0,1,,,,0,68,0
175104,note_off,,,,,0,0,1,,,,0,72,0
175104,note_off,,,,,0,0,1,,,,0,44,0
175104,note_off,,,,,0,0,1,,,,0,51,0
175104,note_on,,,,,0,0,1,,,,0,58,64
175104,note_on,,,,,0,0,1,,,,0,51,64
175104,note_on,,,,,0,0,1,,,,0,39,64
175104,note_on,,,,,0,0,1,,,,0,67,64
178176,note_on,,,,,0,0,1,,,,0,51,80
178176,note_off,,,,,3072,0,1,,,,0,58,0
178176,note_off,,,,,0,0,1,,,,0,67,0
178176,note_off,,,,,0,0,1,,,,0,70,0
178176,note_off,,,,,0,0,1,,,,0,39,0
178176,note_off,,,,,0,0,1,,,,0,51,0
178176,note_on,,,,,0,0,1,,,,0,60,80
178176,note_on,,,,,0,0,1,,,,0,44,80
178176,note_on,,,,,0,0,1,,,,0,68,80
178176,note_on,,,,,0,0,1,,,,0,72,80
178944,note_off,,,,,0,0,1,,,,0,68,0
178944,note_off,,,,,768,0,1,,,,0,60,0
178944,note_on,,,,,0,0,1,,,,0,51,84
178944,note_on,,,,,0,0,1,,,,0,46,84
178944,note_on,,,,,0,0,1,,,,0,73,84
178944,note_off,,,,,0,0,1,,,,0,44,0
178944,note_on,,,,,0,0,1,,,,0,61,84
178944,note_off,,,,,0,0,1,,,,0,51,0
178944,note_off,,,,,0,0,1,,,,0,72,0
178944,note_on,,,,,0,0,1,,,,0,67,84
179200,note_off,,,,,256,0,1,,,,0,61,0
179200,note_off,,,,,0,0,1,,,,0,73,0
179200,note_off,,,,,0,0,1,,,,0,46,0
179200,note_off,,,,,0,0,1,,,,0,51,0
179200,note_on,,,,,0,0,1,,,,0,68,85
179200,note_on,,,,,0,0,1,,,,0,72,85
179200,note_on,,,,,0,0,1,,,,0,44,85
179200,note_on,,,,,0,0,1,,,,0,51,85
179200,note_off,,,,,0,0,1,,,,0,67,0
179200,note_on,,,,,0,0,1,,,,0,60,85
179712,note_off,,,,,0,0,1,,,,0,44,0
179712,note_on,,,,,0,0,1,,,,0,68,88
179712,note_off,,,,,0,0,1,,,,0,72,0
179712,note_off,,,,,0,0,1,,,,0,68,0
179712,note_off,,,,,512,0,1,,,,0,60,0
179712,note_on,,,,,0,0,1,,,,0,72,88
179712,note_on,,,,,0,0,1,,,,0,44,88
179712,note_on,,,,,0,0,1,,,,0,51,88
179712,note_off,,,,,0,0,1,,,,0,51,0
179712,note_on,,,,,0,0,1,,,,0,60,88
180480,note_on,,,,,0,0,1,,,,0,77,92
180480,note_on,,,,,0,0,1,,,,0,49,92
180480,note_off,,,,,768,0,1,,,,0,60,0
180480,note_off,,,,,0,0,1,,,,0,68,0
180480,note_off,,,,,0,0,1,,,,0,72,0
180480,note_off,,,,,0,0,1,,,,0,51,0
180480,note_on,,,,,0,0,1,,,,0,51,92
180480,note_on,,,,,0,0,1,,,,0,65,92
180480,note_on,,,,,0,0,1,,,,0,68,92
180480,note_off,,,,,0,0,1,,,,0,44,0
180736,note_off,,,,,0,0,1,,,,0,68,0
180736,note_off,,,,,0,0,1,,,,0,77,0
180736,note_off,,,,,0,0,1,,,,0,49,0
180736,note_off,,,,,0,0,1,,,,0,51,0
180736,note_on,,,,,0,0,1,,,,0,63,93
180736,note_on,,,,,0,0,1,,,,0,68,93
180736,note_off,,,,,256,0,1,,,,0,65,0
180736,note_on,,,,,0,0,1,,,,0,48,93
180736,note_on,,,,,0,0,1,,,,0,51,93
180736,note_on,,,,,0,0,1,,,,0,75,93
181248,note_off,,,,,0,0,1,,,,0,68,0
181248,note_off,,,,,0,0,1,,,,0,75,0
181248,note_off,,,,,0,0,1,,,,0,48,0
181248,note_off,,,,,0,0,1,,,,0,51,0
181248,note_on,,,,,0,0,1,,,,0,63,96
181248,note_on,,,,,0,0,1,,,,0,68,96
181248,note_on,,,,,0,0,1,,,,0,75,96
181248,note_on,,,,,0,0,1,,,,0,48,96
181248,note_off,,,,,512,0,1,,,,0,63,0
181248,note_on,,,,,0,0,1,,,,0,51,96
182656,note_on,,,,,1408,0,1,,,,0,63,64
182656,note_on,,,,,0,0,1,,,,0,75,64
182784,note_off,,,,,128,0,1,,,,0,63,0
182784,note_off,,,,,0,0,1,,,,0,68,0
182784,note_off,,,,,0,0,1,,,,0,75,0
182784,note_off,,,,,0,0,1,,,,0,63,0
182784,note_off,,,,,0,0,1,,,,0,75,0
182784,note_off,,,,,0,0,1,,,,0,48,0
182784,note_off,,,,,0,0,1,,,,0,51,0
182784,note_on,,,,,0,0,1,,,,0,61,64
182784,note_on,,,,,0,0,1,,,,0,51,64
182784,note_on,,,,,0,0,1,,,,0,73,64
182784,note_on,,,,,0,0,1,,,,0,67,64
182784,note_on,,,,,0,0,1,,,,0,46,64
184064,note_off,,,,,1280,0,1,,,,0,61,0
184064,note_off,,,,,0,0,1,,,,0,67,0
184064,note_off,,,,,0,0,1,,,,0,73,0
184064,note_off,,,,,0,0,1,,,,0,46,0
184064,note_off,,,,,0,0,1,,,,0,51,0
184064,note_on,,,,,0,0,1,,,,0,60,54
184064,note_on,,,,,0,0,1,,,,0,68,54
184064,note_on,,,,,0,0,1,,,,0,72,54
184064,note_on,,,,,0,0,1,,,,0,51,54
184064,note_on,,,,,0,0,1,,,,0,44,54
184320,note_off,,,,,256,0,1,,,,0,60,0
184320,note_off,,,,,0,0,1,,,,0,68,0
184320,note_off,,,,,0,0,1,,,,0,72,0
184320,note_off,,,,,0,0,1,,,,0,44,0
184320,note_off,,,,,0,0,1,,,,0,51,0
184320,note_on,,,,,0,0,1,,,,0,60,52
184320,note_on,,,,,0,0,1,,,,0,68,52
184320,note_on,,,,,0,0,1,,,,0,72,52
184320,note_on,,,,,0,0,1,,,,0,44,52
184320,note_on,,,,,0,0,1,,,,0,51,52
187392,note_on,,,,,0,0,1,,,,0,67,64
187392,note_off,,,,,3072,0,1,,,,0,60,0
187392,note_off,,,,,0,0,1,,,,0,68,0
187392,note_off,,,,,0,0,1,,,,0,72,0
187392,note_on,,,,,0,0,1,,,,0,51,64
187392,note_on,,,,,0,0,1,,,,0,39,64
187392,note_on,,,,,0,0,1,,,,0,70,64
187392,note_off,,,,,0,0,1,,,,0,44,0
187392,note_on,,,,,0,0,1,,,,0,58,64
187392,note_off,,,,,0,0,1,,,,0,51,0
188160,note_on,,,,,0,0,1,,,,0,68,64
188160,note_on,,,,,0,0,1,,,,0,44,64
188160,note_off,,,,,768,0,1,,,,0,58,0
188160,note_off,,,,,0,0,1,,,,0,67,0
188160,note_off,,,,,0,0,1,,,,0,70,0
188160,note_off,,,,,0,0,1,,,,0,39,0
188160,note_on,,,,,0,0,1,,,,0,71,64
188160,note_off,,,,,0,0,1,,,,0,51,0
188160,note_on,,,,,0,0,1,,,,0,51,64
188160,note_on,,,,,0,0,1,,,,0,59,64
188416,note_off,,,,,256,0,1,,,,0,59,0
188416,note_on,,,,,0,0,1,,,,0,51,64
188416,note_on,,,,,0,0,1,,,,0,39,64
188416,note_on,,,,,0,0,1,,,,0,70,64
188416,note_off,,,,,0,0,1,,,,0,68,0
188416,note_off,,,,,0,0,1,,,,0,51,0
188416,note_off,,,,,0,0,1,,,,0,44,0
188416,note_off,,,,,0,0,1,,,,0,71,0
188416,note_on,,,,,0,0,1,,,,0,58,64
188928,note_off,,,,,0,0,1,,,,0,39,0
188928,note_off,,,,,0,0,1,,,,0,51,0
188928,note_on,,,,,0,0,1,,,,0,58,64
188928,note_on,,,,,0,0,1,,,,0,67,64
188928,note_on,,,,,0,0,1,,,,0,70,64
188928,note_on,,,,,0,0,1,,,,0,39,64
188928,note_on,,,,,0,0,1,,,,0,51,64
188928,note_off,,,,,0,0,1,,,,0,70,0
188928,note_off,,,,,512,0,1,,,,0,58,0
189696,note_off,,,,,768,0,1,,,,0,58,0
189696,note_off,,,,,0,0,1,,,,0,70,0
189696,note_off,,,,,0,0,1,,,,0,39,0
189696,note_off,,,,,0,0,1,,,,0,51,0
189696,note_on,,,,,0,0,1,,,,0,59,64
189696,note_on,,,,,0,0,1,,,,0,68,64
189696,note_on,,,,,0,0,1,,,,0,71,64
189696,note_on,,,,,0,0,1,,,,0,44,64
189696,note_on,,,,,0,0,1,,,,0,51,64
189696,note_off,,,,,0,0,1,,,,0,67,0
189952,note_off,,,,,256,0,1,,,,0,59,0
189952,note_off,,,,,0,0,1,,,,0,71,0
189952,note_off,,,,,0,0,1,,,,0,44,0
189952,note_off,,,,,0,0,1,,,,0,51,0
189952,note_on,,,,,0,0,1,,,,0,58,64
189952,note_on,,,,,0,0,1,,,,0,70,64
189952,note_on,,,,,0,0,1,,,,0,39,64
189952,note_on,,,,,0,0,1,,,,0,51,64
189952,note_off,,,,,0,0,1,,,,0,68,0
190464,note_off,,,,,0,0,1,,,,0,51,0
190464,note_off,,,,,512,0,1,,,,0,58,0
190464,note_on,,,,,0,0,1,,,,0,65,64
190464,note_on,,,,,0,0,1,,,,0,68,64
190464,note_on,,,,,0,0,1,,,,0,71,64
190464,note_on,,,,,0,0,1,,,,0,38,64
190464,note_on,,,,,0,0,1,,,,0,50,64
190464,note_off,,,,,0,0,1,,,,0,70,0
190464,note_off,,,,,0,0,1,,,,0,39,0
193536,note_on,,,,,0,0,1,,,,0,63,64
193536,note_on,,,,,0,0,1,,,,0,51,64
193536,note_on,,,,,0,0,1,,,,0,39,64
193536,note_off,,,,,0,0,1,,,,0,50,0
193536,note_off,,,,,0,0,1,,,,0,38,0
193536,note_off,,,,,3072,0,1,,,,0,65,0
195072,note_on,,,,,0,0,1,,,,0,70,64
195072,note_off,,,,,0,0,1,,,,0,68,0
195072,note_off,,,,,0,0,1,,,,0,71,0
195072,note_on,,,,,0,0,1,,,,0,63,64
195072,note_on,,,,,0,0,1,,,,0,67,64
195072,note_off,,,,,1536,0,1,,,,0,63,0
195584,note_off,,,,,512,0,1,,,,0,63,0
195584,note_off,,,,,0,0,1,,,,0,70,0
195584,note_off,,,,,0,0,1,,,,0,39,0
195584,note_off,,,,,0,0,1,,,,0,51,0
195584,note_off,,,,,0,0,1,,,,0,67,0
196608,note_on,,,,,0,0,1,,,,0,63,64
196608,note_on,,,,,0,0,1,,,,0,66,64
196608,note_on,,,,,1024,0,1,,,,0,71,64
197376,note_off,,,,,768,0,1,,,,0,71,0
197376,note_on,,,,,0,0,1,,,,0,73,64
197632,note_off,,,,,0,0,1,,,,0,63,0
197632,note_off,,,,,0,0,1,,,,0,66,0
197632,note_on,,,,,0,0,1,,,,0,51,64
197632,note_on,,,,,0,0,1,,,,0,71,64
197632,note_off,,,,,256,0,1,,,,0,73,0
197632,note_on,,,,,0,0,1,,,,0,63,64
197632,note_on,,,,,0,0,1,,,,0,66,64
198144,note_off,,,,,0,0,1,,,,0,51,0
198144,note_off,,,,,0,0,1,,,,0,63,0
198144,note_off,,,,,0,0,1,,,,0,66,0
198144,note_on,,,,,0,0,1,,,,0,73,64
198144,note_on,,,,,0,0,1,,,,0,65,64
198144,note_on,,,,,0,0,1,,,,0,71,64
198144,note_on,,,,,0,0,1,,,,0,56,64
198144,note_off,,,,,512,0,1,,,,0,71,0
198912,note_on,,,,,0,0,1,,,,0,58,70
198912,note_off,,,,,768,0,1,,,,0,56,0
199168,note_off,,,,,0,0,1,,,,0,58,0
199168,note_on,,,,,0,0,1,,,,0,56,72
199168,note_on,,,,,0,0,1,,,,0,74,72
199168,note_off,,,,,256,0,1,,,,0,73,0
199680,note_on,,,,,0,0,1,,,,0,75,76
199680,note_on,,,,,0,0,1,,,,0,66,76
199680,note_on,,,,,0,0,1,,,,0,57,76
199680,note_off,,,,,512,0,1,,,,0,74,0
199680,note_on,,,,,0,0,1,,,,0,59,76
199680,note_off,,,,,0,0,1,,,,0,65,0
199680,note_off,,,,,0,0,1,,,,0,71,0
199680,note_off,,,,,0,0,1,,,,0,56,0
199680,note_on,,,,,0,0,1,,,,0,71,76
200192,note_off,,,,,512,0,1,,,,0,57,0
200192,note_on,,,,,0,0,1,,,,0,71,80
200192,note_off,,,,,0,0,1,,,,0,75,0
200192,note_on,,,,,0,0,1,,,,0,56,80
200192,note_on,,,,,0,0,1,,,,0,64,80
200192,note_on,,,,,0,0,1,,,,0,76,80
200192,note_off,,,,,0,0,1,,,,0,71,0
200192,note_off,,,,,0,0,1,,,,0,66,0
200704,note_off,,,,,512,0,1,,,,0,56,0
200704,note_off,,,,,0,0,1,,,,0,64,0
200704,note_off,,,,,0,0,1,,,,0,71,0
200704,note_off,,,,,0,0,1,,,,0,76,0
200704,note_off,,,,,0,0,1,,,,0,59,0
200704,note_on,,,,,0,0,1,,,,0,54,84
200704,note_on,,,,,0,0,1,,,,0,66,84
200704,note_on,,,,,0,0,1,,,,0,71,84
200704,note_on,,,,,0,0,1,,,,0,78,84
200704,note_on,,,,,0,0,1,,,,0,63,84
201216,note_off,,,,,0,0,1,,,,0,63,0
201216,note_on,,,,,0,0,1,,,,0,52,67
201216,note_on,,,,,0,0,1,,,,0,68,67
201216,note_off,,,,,0,0,1,,,,0,78,0
201216,note_off,,,,,0,0,1,,,,0,71,0
201216,note_off,,,,,0,0,1,,,,0,66,0
201216,note_off,,,,,512,0,1,,,,0,54,0
201216,note_on,,,,,0,0,1,,,,0,71,67
201216,note_on,,,,,0,0,1,,,,0,80,67
201216,note_on,,,,,0,0,1,,,,0,64,67
201728,note_off,,,,,512,0,1,,,,0,52,0
201728,note_off,,,,,0,0,1,,,,0,80,0
201728,note_on,,,,,0,0,1,,,,0,76,64
201728,note_on,,,,,0,0,1,,,,0,56,64
202240,note_on,,,,,0,0,1,,,,0,63,61
202240,note_on,,,,,0,0,1,,,,0,75,61
202240,note_on,,,,,0,0,1,,,,0,68,61
202240,note_on,,,,,0,0,1,,,,0,63,61
202240,note_on,,,,,0,0,1,,,,0,60,61
202240,note_on,,,,,0,0,1,,,,0,65,61
202240,note_off,,,,,0,0,1,,,,0,64,0
202240,note_off,,,,,0,0,1,,,,0,68,0
202240,note_off,,,,,0,0,1,,,,0,71,0
202240,note_off,,,,,512,0,1,,,,0,56,0
202240,note_off,,,,,0,0,1,,,,0,76,0
202752,note_off,,,,,512,0,1,,,,0,60,0
202752,note_off,,,,,0,0,1,,,,0,63,0
202752,note_off,,,,,0,0,1,,,,0,65,0
202752,note_off,,,,,0,0,1,,,,0,68,0
202752,note_on,,,,,0,0,1,,,,0,75,57
202752,note_on,,,,,0,0,1,,,,0,66,57
202752,note_on,,,,,0,0,1,,,,0,54,57
202752,note_on,,,,,0,0,1,,,,0,59,57
202752,note_on,,,,,0,0,1,,,,0,63,57
202752,note_off,,,,,0,0,1,,,,0,75,0
202752,note_on,,,,,0,0,1,,,,0,71,57
202752,note_off,,,,,0,0,1,,,,0,63,0
204288,note_on,,,,,0,0,1,,,,0,73,47
204288,note_on,,,,,0,0,1,,,,0,70,47
204288,note_on,,,,,0,0,1,,,,0,66,47
204288,note_on,,,,,0,0,1,,,,0,58,47
204288,note_on,,,,,0,0,1,,,,0,61,47
204288,note_off,,,,,0,0,1,,,,0,59,0
204288,note_off,,,,,0,0,1,,,,0,54,0
204288,note_off,,,,,0,0,1,,,,0,75,0
204288,note_off,,,,,0,0,1,,,,0,71,0
204288,note_off,,,,,1536,0,1,,,,0,66,0
204288,note_on,,,,,0,0,1,,,,0,54,47
204288,note_off,,,,,0,0,1,,,,0,63,0
204800,note_off,,,,,512,0,1,,,,0,66,0
204800,note_off,,,,,0,0,1,,,,0,70,0
204800,note_off,,,,,0,0,1,,,,0,73,0
204800,note_off,,,,,0,0,1,,,,0,58,0
204800,note_off,,,,,0,0,1,,,,0,54,0
204800,note_off,,,,,0,0,1,,,,0,61,0
205824,note_on,,,,,0,0,1,,,,0,80,49
205824,note_on,,,,,0,0,1,,,,0,64,49
205824,note_on,,,,,0,0,1,,,,0,68,49
205824,note_on,,,,,0,0,1,,,,0,71,49
205824,note_on,,,,,1024,0,1,,,,0,52,49
206336,note_off,,,,,512,0,1,,,,0,52,0
206336,note_off,,,,,0,0,1,,,,0,80,0
206336,note_on,,,,,0,0,1,,,,0,56,49
206336,note_on,,,,,0,0,1,,,,0,76,49
206848,note_on,,,,,0,0,1,,,,0,63,49
206848,note_on,,,,,0,0,1,,,,0,75,49
206848,note_off,,,,,0,0,1,,,,0,64,0
206848,note_off,,,,,0,0,1,,,,0,68,0
206848,note_off,,,,,0,0,1,,,,0,71,0
206848,note_on,,,,,0,0,1,,,,0,60,49
206848,note_on,,,,,0,0,1,,,,0,63,49
206848,note_on,,,,,0,0,1,,,,0,65,49
206848,note_on,,,,,0,0,1,,,,0,68,49
206848,note_off,,,,,0,0,1,,,,0,76,0
206848,note_off,,,,,512,0,1,,,,0,56,0
207360,note_off,,,,,512,0,1,,,,0,60,0
207360,note_off,,,,,0,0,1,,,,0,65,0
207360,note_off,,,,,0,0,1,,,,0,68,0
207360,note_off,,,,,0,0,1,,,,0,75,0
207360,note_off,,,,,0,0,1,,,,0,63,0
207360,note_on,,,,,0,0,1,,,,0,66,49
207360,note_on,,,,,0,0,1,,,,0,71,49
207360,note_on,,,,,0,0,1,,,,0,75,49
207360,note_on,,,,,0,0,1,,,,0,54,49
207360,note_on,,,,,0,0,1,,,,0,59,49
207360,note_on,,,,,0,0,1,,,,0,63,49
207360,note_off,,,,,0,0,1,,,,0,63,0
208896,note_on,,,,,0,0,1,,,,0,70,49
208896,note_on,,,,,0,0,1,,,,0,66,49
208896,note_off,,,,,0,0,1,,,,0,63,0
208896,note_off,,,,,1536,0,1,,,,0,66,0
208896,note_off,,,,,0,0,1,,,,0,54,0
208896,note_off,,,,,0,0,1,,,,0,75,0
208896,note_off,,,,,0,0,1,,,,0,71,0
208896,note_on,,,,,0,0,1,,,,0,54,49
208896,note_off,,,,,0,0,1,,,,0,59,0
208896,note_on,,,,,0,0,1,,,,0,73,49
208896,note_on,,,,,0,0,1,,,,0,61,49
208896,note_on,,,,,0,0,1,,,,0,58,49
209408,note_off,,,,,0,0,1,,,,0,73,0
209408,note_off,,,,,0,0,1,,,,0,54,0
209408,note_off,,,,,0,0,1,,,,0,58,0
209408,note_off,,,,,0,0,1,,,,0,61,0
209408,note_off,,,,,512,0,1,,,,0,66,0
209408,note_off,,,,,0,0,1,,,,0,70,0
210432,note_on,,,,,0,0,1,,,,0,63,65
210432,note_on,,,,,0,0,1,,,,0,51,65
210432,note_on,,,,,0,0,1,,,,0,43,65
210432,note_on,,,,,1024,0,1,,,,0,73,65
211200,note_off,,,,,768,0,1,,,,0,73,0
211200,note_on,,,,,0,0,1,,,,0,75,69
211456,note_on,,,,,0,0,1,,,,0,70,70
211456,note_off,,,,,256,0,1,,,,0,75,0
211968,note_off,,,,,512,0,1,,,,0,70,0
211968,note_off,,,,,0,0,1,,,,0,51,0
211968,note_off,,,,,0,0,1,,,,0,63,0
211968,note_on,,,,,0,0,1,,,,0,44,73
211968,note_on,,,,,0,0,1,,,,0,73,73
211968,note_on,,,,,0,0,1,,,,0,51,73
211968,note_off,,,,,0,0,1,,,,0,43,0
211968,note_on,,,,,0,0,1,,,,0,63,73
213504,note_on,,,,,0,0,1,,,,0,72,81
213504,note_off,,,,,1536,0,1,,,,0,73,0
214528,note_off,,,,,0,0,1,,,,0,72,0
214528,note_on,,,,,0,0,1,,,,0,46,86
214528,note_on,,,,,0,0,1,,,,0,73,86
214528,note_off,,,,,1024,0,1,,,,0,44,0
215040,note_off,,,,,512,0,1,,,,0,46,0
215040,note_off,,,,,0,0,1,,,,0,73,0
215040,note_off,,,,,0,0,1,,,,0,51,0
215040,note_off,,,,,0,0,1,,,,0,63,0
215040,note_on,,,,,0,0,1,,,,0,63,57
215040,note_on,,,,,0,0,1,,,,0,75,57
215040,note_on,,,,,0,0,1,,,,0,48,57
215040,note_on,,,,,0,0,1,,,,0,51,57
215552,note_off,,,,,0,0,1,,,,0,63,0
215552,note_off,,,,,0,0,1,,,,0,75,0
215552,note_on,,,,,0,0,1,,,,0,46,54
215552,note_on,,,,,0,0,1,,,,0,67,54
215552,note_on,,,,,0,0,1,,,,0,73,54
215552,note_off,,,,,512,0,1,,,,0,48,0
216064,note_off,,,,,512,0,1,,,,0,46,0
216064,note_off,,,,,0,0,1,,,,0,73,0
216064,note_on,,,,,0,0,1,,,,0,44,52
216064,note_on,,,,,0,0,1,,,,0,68,52
216064,note_on,,,,,0,0,1,,,,0,72,52
216064,note_off,,,,,0,0,1,,,,0,67,0
216576,note_off,,,,,0,0,1,,,,0,68,0
216576,note_off,,,,,512,0,1,,,,0,44,0
216576,note_on,,,,,0,0,1,,,,0,49,49
216576,note_on,,,,,0,0,1,,,,0,65,49
216576,note_on,,,,,0,0,1,,,,0,72,49
216576,note_off,,,,,0,0,1,,,,0,51,0
216576,note_off,,,,,0,0,1,,,,0,72,0
217088,note_off,,,,,512,0,1,,,,0,72,0
217088,note_on,,,,,0,0,1,,,,0,70,49
217600,note_off,,,,,0,0,1,,,,0,65,0
217600,note_on,,,,,0,0,1,,,,0,58,49
217600,note_on,,,,,0,0,1,,,,0,64,49
217600,note_on,,,,,0,0,1,,,,0,73,49
217600,note_off,,,,,512,0,1,,,,0,70,0
218112,note_on,,,,,0,0,1,,,,0,60,49
218112,note_off,,,,,512,0,1,,,,0,73,0
218112,note_on,,,,,0,0,1,,,,0,51,49
218112,note_on,,,,,0,0,1,,,,0,68,49
218112,note_off,,,,,0,0,1,,,,0,64,0
218112,note_off,,,,,0,0,1,,,,0,58,0
218112,note_off,,,,,0,0,1,,,,0,49,0
218112,note_on,,,,,0,0,1,,,,0,63,49
219392,note_on,,,,,0,0,1,,,,0,61,49
219392,note_off,,,,,1280,0,1,,,,0,63,0
219392,note_on,,,,,0,0,1,,,,0,58,49
219392,note_on,,,,,0,0,1,,,,0,51,49
219392,note_on,,,,,0,0,1,,,,0,67,49
219392,note_off,,,,,0,0,1,,,,0,68,0
219392,note_off,,,,,0,0,1,,,,0,60,0
219392,note_off,,,,,0,0,1,,,,0,51,0
219648,note_on,,,,,0,0,1,,,,0,58,49
219648,note_off,,,,,256,0,1,,,,0,61,0
219648,note_off,,,,,0,0,1,,,,0,67,0
219648,note_off,,,,,0,0,1,,,,0,51,0
219648,note_on,,,,,0,0,1,,,,0,51,49
219648,note_on,,,,,0,0,1,,,,0,67,49
219648,note_off,,,,,0,0,1,,,,0,58,0
219648,note_on,,,,,0,0,1,,,,0,61,49
220928,note_on,,,,,0,0,1,,,,0,60,49
220928,note_off,,,,,0,0,1,,,,0,51,0
220928,note_off,,,,,0,0,1,,,,0,67,0
220928,note_on,,,,,0,0,1,,,,0,56,49
220928,note_off,,,,,1280,0,1,,,,0,61,0
220928,note_on,,,,,0,0,1,,,,0,68,49
220928,note_on,,,,,0,0,1,,,,0,44,49
220928,note_off,,,,,0,0,1,,,,0,58,0
221184,note_on,,,,,0,0,1,,,,0,44,49
221184,note_on,,,,,0,0,1,,,,0,60,49
221184,note_on,,,,,0,0,1,,,,0,56,49
221184,note_off,,,,,0,0,1,,,,0,44,0
221184,note_off,,,,,0,0,1,,,,0,68,0
221184,note_off,,,,,256,0,1,,,,0,60,0
221184,note_off,,,,,0,0,1,,,,0,56,0
221184,note_on,,,,,0,0,1,,,,0,68,49
222208,note_off,,,,,1024,0,1,,,,0,44,0
222208,note_off,,,,,0,0,1,,,,0,56,0
222464,note_on,,,,,256,0,1,,,,0,51,49
222720,note_off,,,,,256,0,1,,,,0,60,0
222720,note_off,,,,,0,0,1,,,,0,68,0
222720,note_on,,,,,0,0,1,,,,0,51,49
222720,note_off,,,,,0,0,1,,,,0,51,0
224000,note_on,,,,,0,0,1,,,,0,72,49
224000,note_on,,,,,0,0,1,,,,0,68,49
224000,note_on,,,,,0,0,1,,,,0,60,49
224000,note_on,,,,,1280,0,1,,,,0,44,49
224256,note_off,,,,,0,0,1,,,,0,60,0
224256,note_off,,,,,0,0,1,,,,0,68,0
224256,note_off,,,,,0,0,1,,,,0,72,0
224256,note_on,,,,,0,0,1,,,,0,44,49
224256,note_on,,,,,0,0,1,,,,0,60,49
224256,note_on,,,,,0,0,1,,,,0,68,49
224256,note_on,,,,,0,0,1,,,,0,72,49
224256,note_off,,,,,256,0,1,,,,0,44,0
225024,note_off,,,,,768,0,1,,,,0,44,0
225024,note_off,,,,,0,0,1,,,,0,60,0
225024,note_on,,,,,0,0,1,,,,0,46,49
225024,note_on,,,,,0,0,1,,,,0,61,49
225024,note_on,,,,,0,0,1,,,,0,67,49
225024,note_on,,,,,0,0,1,,,,0,73,49
225024,note_off,,,,,0,0,1,,,,0,72,0
225024,note_off,,,,,0,0,1,,,,0,68,0
225280,note_off,,,,,256,0,1,,,,0,46,0
225280,note_off,,,,,0,0,1,,,,0,61,0
225280,note_off,,,,,0,0,1,,,,0,67,0
225280,note_off,,,,,0,0,1,,,,0,73,0
225280,note_on,,,,,0,0,1,,,,0,44,49
225280,note_on,,,,,0,0,1,,,,0,68,49
225280,note_on,,,,,0,0,1,,,,0,72,49
225280,note_on,,,,,0,0,1,,,,0,60,49
225792,note_off,,,,,512,0,1,,,,0,44,0
225792,note_off,,,,,0,0,1,,,,0,68,0
225792,note_off,,,,,0,0,1,,,,0,72,0
225792,note_on,,,,,0,0,1,,,,0,46,49
225792,note_on,,,,,0,0,1,,,,0,61,49
225792,note_on,,,,,0,0,1,,,,0,67,49
225792,note_on,,,,,0,0,1,,,,0,73,49
225792,note_off,,,,,0,0,1,,,,0,60,0
227072,note_off,,,,,1280,0,1,,,,0,51,0
227072,note_on,,,,,0,0,1,,,,0,51,49
227328,note_off,,,,,256,0,1,,,,0,51,0
227328,note_on,,,,,0,0,1,,,,0,51,49
228608,note_off,,,,,1280,0,1,,,,0,46,0
228608,note_off,,,,,0,0,1,,,,0,61,0
228608,note_on,,,,,0,0,1,,,,0,70,49
228608,note_off,,,,,0,0,1,,,,0,67,0
228608,note_off,,,,,0,0,1,,,,0,73,0
228608,note_on,,,,,0,0,1,,,,0,39,49
228608,note_on,,,,,0,0,1,,,,0,58,49
228608,note_on,,,,,0,0,1,,,,0,67,49
228864,note_off,,,,,0,0,1,,,,0,70,0
228864,note_off,,,,,256,0,1,,,,0,39,0
228864,note_off,,,,,0,0,1,,,,0,58,0
228864,note_on,,,,,0,0,1,,,,0,39,49
228864,note_on,,,,,0,0,1,,,,0,58,49
228864,note_on,,,,,0,0,1,,,,0,67,49
228864,note_on,,,,,0,0,1,,,,0,70,49
228864,note_off,,,,,0,0,1,,,,0,67,0
229632,note_on,,,,,0,0,1,,,,0,44,49
229632,note_on,,,,,0,0,1,,,,0,72,49
229632,note_on,,,,,0,0,1,,,,0,68,49
229632,note_on,,,,,0,0,1,,,,0,60,49
229632,note_off,,,,,0,0,1,,,,0,70,0
229632,note_off,,,,,0,0,1,,,,0,67,0
229632,note_off,,,,,0,0,1,,,,0,58,0
229632,note_off,,,,,768,0,1,,,,0,39,0
229888,note_on,,,,,0,0,1,,,,0,39,49
229888,note_off,,,,,0,0,1,,,,0,60,0
229888,note_off,,,,,0,0,1,,,,0,68,0
229888,note_off,,,,,0,0,1,,,,0,72,0
229888,note_off,,,,,256,0,1,,,,0,44,0
229888,note_on,,,,,0,0,1,,,,0,58,49
229888,note_on,,,,,0,0,1,,,,0,70,49
229888,note_on,,,,,0,0,1,,,,0,67,49
230400,note_off,,,,,0,0,1,,,,0,67,0
230400,note_off,,,,,512,0,1,,,,0,39,0
230400,note_off,,,,,0,0,1,,,,0,70,0
230400,note_on,,,,,0,0,1,,,,0,44,49
230400,note_on,,,,,0,0,1,,,,0,60,49
230400,note_on,,,,,0,0,1,,,,0,68,49
230400,note_on,,,,,0,0,1,,,,0,72,49
230400,note_off,,,,,0,0,1,,,,0,58,0
231680,note_off,,,,,1280,0,1,,,,0,51,0
231680,note_on,,,,,0,0,1,,,,0,51,49
231936,note_on,,,,,0,0,1,,,,0,51,49
231936,note_off,,,,,256,0,1,,,,0,51,0
233216,note_off,,,,,1280,0,1,,,,0,44,0
233216,note_off,,,,,0,0,1,,,,0,60,0
233216,note_off,,,,,0,0,1,,,,0,68,0
233216,note_off,,,,,0,0,1,,,,0,72,0
233216,note_on,,,,,0,0,1,,,,0,48,49
233216,note_on,,,,,0,0,1,,,,0,63,49
233472,note_off,,,,,0,0,1,,,,0,63,0
233472,note_on,,,,,0,0,1,,,,0,48,49
233472,note_on,,,,,0,0,1,,,,0,63,49
233472,note_off,,,,,256,0,1,,,,0,48,0
234240,note_on,,,,,0,0,1,,,,0,65,49
234240,note_on,,,,,0,0,1,,,,0,49,49
234240,note_off,,,,,0,0,1,,,,0,63,0
234240,note_off,,,,,768,0,1,,,,0,48,0
234496,note_on,,,,,0,0,1,,,,0,63,49
234496,note_on,,,,,0,0,1,,,,0,48,49
234496,note_off,,,,,0,0,1,,,,0,65,0
234496,note_off,,,,,256,0,1,,,,0,49,0
235008,note_on,,,,,0,0,1,,,,0,65,49
235008,note_off,,,,,0,0,1,,,,0,63,0
235008,note_off,,,,,512,0,1,,,,0,48,0
235008,note_on,,,,,0,0,1,,,,0,49,49
235776,note_off,,,,,768,0,1,,,,0,49,0
235776,note_off,,,,,0,0,1,,,,0,65,0
235776,note_on,,,,,0,0,1,,,,0,48,49
235776,note_on,,,,,0,0,1,,,,0,63,49
236032,note_off,,,,,256,0,1,,,,0,48,0
236032,note_off,,,,,0,0,1,,,,0,63,0
236032,note_off,,,,,0,0,1,,,,0,51,0
236032,note_on,,,,,0,0,1,,,,0,63,49
236032,note_on,,,,,0,0,1,,,,0,48,49
236544,note_off,,,,,512,0,1,,,,0,48,0
236544,note_on,,,,,0,0,1,,,,0,68,49
236544,note_on,,,,,0,0,1,,,,0,60,49
236544,note_on,,,,,0,0,1,,,,0,51,49
236544,note_off,,,,,0,0,1,,,,0,63,0
238080,note_off,,,,,0,0,1,,,,0,60,0
238080,note_on,,,,,0,0,1,,,,0,70,49
238080,note_on,,,,,0,0,1,,,,0,67,49
238080,note_on,,,,,0,0,1,,,,0,61,49
238080,note_off,,,,,0,0,1,,,,0,68,0
238080,note_off,,,,,1536,0,1,,,,0,51,0
238080,note_on,,,,,0,0,1,,,,0,39,49
238080,note_on,,,,,0,0,1,,,,0,51,49
239360,note_off,,,,,0,0,1,,,,0,61,0
239360,note_on,,,,,0,0,1,,,,0,68,49
239360,note_on,,,,,0,0,1,,,,0,60,49
239360,note_on,,,,,0,0,1,,,,0,51,49
239360,note_on,,,,,0,0,1,,,,0,44,49
239360,note_off,,,,,0,0,1,,,,0,70,0
239360,note_off,,,,,0,0,1,,,,0,67,0
239360,note_off,,,,,0,0,1,,,,0,51,0
239360,note_off,,,,,1280,0,1,,,,0,39,0
239616,note_on,,,,,0,0,1,,,,0,68,49
239616,note_on,,,,,0,0,1,,,,0,60,49
239616,note_on,,,,,0,0,1,,,,0,44,49
239616,note_off,,,,,0,0,1,,,,0,68,0
239616,note_off,,,,,0,0,1,,,,0,60,0
239616,note_off,,,,,0,0,1,,,,0,51,0
239616,note_off,,,,,256,0,1,,,,0,44,0
239616,note_on,,,,,0,0,1,,,,0,51,49
240896,note_on,,,,,1280,0,1,,,,0,75,49
241152,note_off,,,,,0,0,1,,,,0,68,0
241152,note_off,,,,,0,0,1,,,,0,60,0
241152,note_off,,,,,0,0,1,,,,0,51,0
241152,note_off,,,,,0,0,1,,,,0,44,0
241152,note_on,,,,,0,0,1,,,,0,75,61
241152,note_off,,,,,256,0,1,,,,0,75,0
242432,note_on,,,,,0,0,1,,,,0,63,49
242432,note_on,,,,,1280,0,1,,,,0,51,49
242432,note_on,,,,,0,0,1,,,,0,60,49
242432,note_on,,,,,0,0,1,,,,0,68,49
242688,note_on,,,,,0,0,1,,,,0,51,49
242688,note_off,,,,,0,0,1,,,,0,68,0
242688,note_off,,,,,0,0,1,,,,0,63,0
242688,note_off,,,,,0,0,1,,,,0,60,0
242688,note_off,,,,,256,0,1,,,,0,51,0
242688,note_on,,,,,0,0,1,,,,0,60,49
242688,note_on,,,,,0,0,1,,,,0,63,49
242688,note_on,,,,,0,0,1,,,,0,68,49
243456,note_on,,,,,0,0,1,,,,0,61,49
243456,note_off,,,,,768,0,1,,,,0,51,0
243456,note_off,,,,,0,0,1,,,,0,60,0
243456,note_off,,,,,0,0,1,,,,0,63,0
243456,note_off,,,,,0,0,1,,,,0,68,0
243456,note_on,,,,,0,0,1,,,,0,65,49
243456,note_on,,,,,0,0,1,,,,0,51,49
243456,note_on,,,,,0,0,1,,,,0,70,49
243712,note_off,,,,,0,0,1,,,,0,70,0
243712,note_off,,,,,0,0,1,,,,0,65,0
243712,note_off,,,,,0,0,1,,,,0,61,0
243712,note_off,,,,,256,0,1,,,,0,51,0
243712,note_on,,,,,0,0,1,,,,0,60,49
243712,note_on,,,,,0,0,1,,,,0,63,49
243712,note_on,,,,,0,0,1,,,,0,68,49
243712,note_on,,,,,0,0,1,,,,0,51,49
244224,note_on,,,,,0,0,1,,,,0,70,49
244224,note_on,,,,,0,0,1,,,,0,61,49
244224,note_on,,,,,0,0,1,,,,0,51,49
244224,note_on,,,,,0,0,1,,,,0,65,49
244224,note_off,,,,,0,0,1,,,,0,63,0
244224,note_off,,,,,0,0,1,,,,0,60,0
244224,note_off,,,,,512,0,1,,,,0,51,0
244224,note_off,,,,,0,0,1,,,,0,68,0
245504,note_off,,,,,1280,0,1,,,,0,75,0
245504,note_on,,,,,0,0,1,,,,0,75,49
245760,note_off,,,,,256,0,1,,,,0,75,0
245760,note_on,,,,,0,0,1,,,,0,75,49
247040,note_off,,,,,1280,0,1,,,,0,51,0
247040,note_off,,,,,0,0,1,,,,0,61,0
247040,note_off,,,,,0,0,1,,,,0,65,0
247040,note_off,,,,,0,0,1,,,,0,70,0
247040,note_on,,,,,0,0,1,,,,0,51,49
247040,note_on,,,,,0,0,1,,,,0,61,49
247040,note_on,,,,,0,0,1,,,,0,67,49
247040,note_on,,,,,0,0,1,,,,0,58,49
247296,note_off,,,,,0,0,1,,,,0,58,0
247296,note_off,,,,,0,0,1,,,,0,61,0
247296,note_off,,,,,0,0,1,,,,0,67,0
247296,note_on,,,,,0,0,1,,,,0,51,49
247296,note_on,,,,,0,0,1,,,,0,58,49
247296,note_on,,,,,0,0,1,,,,0,61,49
247296,note_on,,,,,0,0,1,,,,0,67,49
247296,note_off,,,,,256,0,1,,,,0,51,0
248064,note_off,,,,,768,0,1,,,,0,51,0
248064,note_off,,,,,0,0,1,,,,0,58,0
248064,note_off,,,,,0,0,1,,,,0,67,0
248064,note_off,,,,,0,0,1,,,,0,61,0
248064,note_on,,,,,0,0,1,,,,0,63,49
248064,note_on,,,,,0,0,1,,,,0,68,49
248064,note_on,,,,,0,0,1,,,,0,60,49
248064,note_on,,,,,0,0,1,,,,0,51,49
248320,note_off,,,,,256,0,1,,,,0,51,0
248320,note_off,,,,,0,0,1,,,,0,60,0
248320,note_off,,,,,0,0,1,,,,0,63,0
248320,note_off,,,,,0,0,1,,,,0,68,0
248320,note_on,,,,,0,0,1,,,,0,51,49
248320,note_on,,,,,0,0,1,,,,0,61,49
248320,note_on,,,,,0,0,1,,,,0,70,49
248320,note_on,,,,,0,0,1,,,,0,65,49
248832,note_off,,,,,512,0,1,,,,0,51,0
248832,note_off,,,,,0,0,1,,,,0,65,0
248832,note_off,,,,,0,0,1,,,,0,70,0
248832,note_on,,,,,0,0,1,,,,0,51,49
248832,note_on,,,,,0,0,1,,,,0,60,49
248832,note_on,,,,,0,0,1,,,,0,63,49
248832,note_on,,,,,0,0,1,,,,0,68,49
248832,note_off,,,,,0,0,1,,,,0,61,0
250112,note_off,,,,,1280,0,1,,,,0,75,0
250112,note_on,,,,,0,0,1,,,,0,75,49
250368,note_on,,,,,0,0,1,,,,0,75,49
250368,note_off,,,,,256,0,1,,,,0,75,0
251648,note_on,,,,,0,0,1,,,,0,60,49
251648,note_off,,,,,1280,0,1,,,,0,51,0
251648,note_off,,,,,0,0,1,,,,0,60,0
251648,note_off,,,,,0,0,1,,,,0,63,0
251648,note_off,,,,,0,0,1,,,,0,68,0
251648,note_on,,,,,0,0,1,,,,0,51,49
251648,note_on,,,,,0,0,1,,,,0,63,49
251904,note_off,,,,,0,0,1,,,,0,63,0
251904,note_off,,,,,256,0,1,,,,0,51,0
251904,note_on,,,,,0,0,1,,,,0,51,49
251904,note_on,,,,,0,0,1,,,,0,60,49
251904,note_on,,,,,0,0,1,,,,0,63,49
251904,note_off,,,,,0,0,1,,,,0,60,0
252672,note_off,,,,,768,0,1,,,,0,51,0
252672,note_off,,,,,0,0,1,,,,0,60,0
252672,note_off,,,,,0,0,1,,,,0,63,0
252672,note_on,,,,,0,0,1,,,,0,51,49
252672,note_on,,,,,0,0,1,,,,0,61,49
252672,note_on,,,,,0,0,1,,,,0,65,49
252928,note_off,,,,,0,0,1,,,,0,61,0
252928,note_off,,,,,0,0,1,,,,0,65,0
252928,note_on,,,,,0,0,1,,,,0,51,49
252928,note_on,,,,,0,0,1,,,,0,60,49
252928,note_on,,,,,0,0,1,,,,0,63,49
252928,note_off,,,,,256,0,1,,,,0,51,0
253440,note_off,,,,,512,0,1,,,,0,51,0
253440,note_off,,,,,0,0,1,,,,0,60,0
253440,note_off,,,,,0,0,1,,,,0,63,0
253440,note_on,,,,,0,0,1,,,,0,61,61
253440,note_on,,,,,0,0,1,,,,0,65,61
253440,note_on,,,,,0,0,1,,,,0,51,61
253440,note_on,,,,,0,0,1,,,,0,68,61
254208,note_off,,,,,768,0,1,,,,0,51,0
254208,note_off,,,,,0,0,1,,,,0,61,0
254208,note_off,,,,,0,0,1,,,,0,65,0
254208,note_off,,,,,0,0,1,,,,0,68,0
254208,note_on,,,,,0,0,1,,,,0,51,49
254208,note_on,,,,,0,0,1,,,,0,60,49
254208,note_on,,,,,0,0,1,,,,0,63,49
254464,note_off,,,,,256,0,1,,,,0,51,0
254464,note_off,,,,,0,0,1,,,,0,63,0
254464,note_on,,,,,0,0,1,,,,0,51,49
254464,note_on,,,,,0,0,1,,,,0,60,49
254464,note_on,,,,,0,0,1,,,,0,63,49
254464,note_off,,,,,0,0,1,,,,0,60,0
254976,note_off,,,,,512,0,1,,,,0,75,0
254976,note_on,,,,,0,0,1,,,,0,72,49
254976,note_on,,,,,0,0,1,,,,0,75,49
254976,note_on,,,,,0,0,1,,,,0,51,49
254976,note_on,,,,,0,0,1,,,,0,63,49
254976,note_off,,,,,0,0,1,,,,0,51,0
254976,note_off,,,,,0,0,1,,,,0,63,0
254976,note_off,,,,,0,0,1,,,,0,60,0
256512,note_off,,,,,0,0,1,,,,0,75,0
256512,note_off,,,,,0,0,1,,,,0,51,0
256512,note_off,,,,,0,0,1,,,,0,63,0
256512,note_off,,,,,1536,0,1,,,,0,72,0
256512,note_on,,,,,0,0,1,,,,0,70,49
256512,note_on,,,,,0,0,1,,,,0,75,49
256512,note_on,,,,,0,0,1,,,,0,79,49
256512,note_on,,,,,0,0,1,,,,0,51,49
256512,note_on,,,,,0,0,1,,,,0,61,49
256512,note_on,,,,,0,0,1,,,,0,63,49
257792,note_on,,,,,0,0,1,,,,0,63,49
257792,note_off,,,,,0,0,1,,,,0,79,0
257792,note_off,,,,,0,0,1,,,,0,51,0
257792,note_off,,,,,0,0,1,,,,0,61,0
257792,note_off,,,,,0,0,1,,,,0,63,0
257792,note_on,,,,,0,0,1,,,,0,75,49
257792,note_on,,,,,0,0,1,,,,0,80,49
257792,note_on,,,,,0,0,1,,,,0,56,49
257792,note_on,,,,,0,0,1,,,,0,60,49
257792,note_off,,,,,1280,0,1,,,,0,70,0
257792,note_off,,,,,0,0,1,,,,0,75,0
257792,note_on,,,,,0,0,1,,,,0,68,49
258048,note_off,,,,,0,0,1,,,,0,80,0
258048,note_off,,,,,0,0,1,,,,0,56,0
258048,note_off,,,,,0,0,1,,,,0,60,0
258048,note_off,,,,,0,0,1,,,,0,63,0
258048,note_on,,,,,0,0,1,,,,0,68,49
258048,note_on,,,,,0,0,1,,,,0,75,49
258048,note_on,,,,,0,0,1,,,,0,80,49
258048,note_off,,,,,0,0,1,,,,0,75,0
258048,note_on,,,,,0,0,1,,,,0,56,49
258048,note_on,,,,,0,0,1,,,,0,63,49
258048,note_on,,,,,0,0,1,,,,0,60,49
258048,note_off,,,,,256,0,1,,,,0,68,0
262144,note_off,,,,,0,0,1,,,,0,75,0
262144,note_off,,,,,0,0,1,,,,0,80,0
262144,note_off,,,,,0,0,1,,,,0,56,0
262144,note_off,,,,,0,0,1,,,,0,60,0
262144,note_off,,,,,0,0,1,,,,0,63,0
262144,note_off,,,,,4096,0,1,,,,0,68,0
262400,note_on,,,,,0,0,1,,,,0,42,88
262400,note_on,,,,,0,0,1,,,,0,80,88
262400,note_on,,,,,0,0,1,,,,0,78,88
262400,note_on,,,,,256,0,1,,,,0,68,88
262656,note_on,,,,,0,0,1,,,,0,81,110
262656,note_off,,,,,0,0,1,,,,0,78,0
262656,note_off,,,,,256,0,1,,,,0,68,0
262656,key_signature,,,,,96768,1,0,F#m,,,,,
262656,note_on,,,,,0,0,1,,,,0,42,88
262656,note_off,,,,,0,0,1,,,,0,42,0
262656,note_on,,,,,0,0,1,,,,0,78,110
262656,note_on,,,,,0,0,1,,,,0,69,110
262656,note_off,,,,,0,0,1,,,,0,80,0
263168,note_off,,,,,512,0,1,,,,0,42,0
263168,note_on,,,,,0,0,1,,,,0,49,88
263680,note_off,,,,,512,0,1,,,,0,49,0
263680,note_on,,,,,0,0,1,,,,0,57,88
264192,note_off,,,,,0,0,1,,,,0,81,0
264192,note_off,,,,,0,0,1,,,,0,78,0
264192,note_on,,,,,0,0,1,,,,0,81,110
264192,note_on,,,,,0,0,1,,,,0,42,88
264192,note_off,,,,,512,0,1,,,,0,69,0
264192,note_on,,,,,0,0,1,,,,0,78,110
264192,note_on,,,,,0,0,1,,,,0,69,110
264192,note_off,,,,,0,0,1,,,,0,57,0
264704,note_off,,,,,512,0,1,,,,0,42,0
264704,note_on,,,,,0,0,1,,,,0,49,88
265216,note_on,,,,,0,0,1,,,,0,57,88
265216,note_off,,,,,512,0,1,,,,0,49,0
265728,note_off,,,,,0,0,1,,,,0,81,0
265728,note_off,,,,,512,0,1,,,,0,69,0
265728,note_off,,,,,0,0,1,,,,0,57,0
265728,note_on,,,,,0,0,1,,,,0,70,110
265728,note_on,,,,,0,0,1,,,,0,76,110
265728,note_off,,,,,0,0,1,,,,0,78,0
265728,note_on,,,,,0,0,1,,,,0,82,110
265728,note_on,,,,,0,0,1,,,,0,42,88
266240,note_off,,,,,512,0,1,,,,0,42,0
266240,note_on,,,,,0,0,1,,,,0,49,88
266752,note_off,,,,,512,0,1,,,,0,49,0
266752,note_on,,,,,0,0,1,,,,0,54,88
267264,note_off,,,,,512,0,1,,,,0,70,0
267264,note_off,,,,,0,0,1,,,,0,76,0
267264,note_off,,,,,0,0,1,,,,0,82,0
267264,note_off,,,,,0,0,1,,,,0,54,0
267264,note_on,,,,,0,0,1,,,,0,71,88
267264,note_on,,,,,0,0,1,,,,0,74,88
267264,note_on,,,,,0,0,1,,,,0,83,88
267264,note_on,,,,,0,0,1,,,,0,42,88
267776,note_on,,,,,0,0,1,,,,0,50,88
267776,note_off,,,,,512,0,1,,,,0,42,0
268288,note_off,,,,,512,0,1,,,,0,50,0
268288,note_on,,,,,0,0,1,,,,0,59,88
268800,note_on,,,,,0,0,1,,,,0,42,88
268800,note_off,,,,,512,0,1,,,,0,59,0
269312,note_on,,,,,0,0,1,,,,0,50,88
269312,note_off,,,,,512,0,1,,,,0,42,0
269824,note_on,,,,,0,0,1,,,,0,59,88
269824,note_off,,,,,512,0,1,,,,0,50,0
270336,note_on,,,,,0,0,1,,,,0,42,88
270336,note_off,,,,,512,0,1,,,,0,59,0
270848,note_off,,,,,512,0,1,,,,0,42,0
270848,note_on,,,,,0,0,1,,,,0,50,88
271360,note_on,,,,,0,0,1,,,,0,59,88
271360,note_off,,,,,512,0,1,,,,0,50,0
271616,note_on,,,,,0,0,1,,,,0,74,88
271616,note_on,,,,,0,0,1,,,,0,83,88
271616,note_on,,,,,0,0,1,,,,0,71,88
271616,note_off,,,,,0,0,1,,,,0,83,0
271616,note_off,,,,,0,0,1,,,,0,74,0
271616,note_off,,,,,256,0,1,,,,0,71,0
271872,note_off,,,,,256,0,1,,,,0,71,0
271872,note_on,,,,,0,0,1,,,,0,42,88
271872,note_on,,,,,0,0,1,,,,0,85,110
271872,note_on,,,,,0,0,1,,,,0,76,110
271872,note_on,,,,,0,0,1,,,,0,73,110
271872,note_off,,,,,0,0,1,,,,0,59,0
271872,note_off,,,,,0,0,1,,,,0,83,0
271872,note_off,,,,,0,0,1,,,,0,74,0
272384,note_on,,,,,0,0,1,,,,0,47,88
272384,note_off,,,,,512,0,1,,,,0,42,0
272896,note_off,,,,,512,0,1,,,,0,47,0
272896,note_on,,,,,0,0,1,,,,0,56,88
273152,note_on,,,,,0,0,1,,,,0,83,88
273152,note_on,,,,,0,0,1,,,,0,71,88
273152,note_off,,,,,0,0,1,,,,0,85,0
273152,note_off,,,,,0,0,1,,,,0,76,0
273152,note_off,,,,,256,0,1,,,,0,73,0
273152,note_on,,,,,0,0,1,,,,0,74,88
273408,note_off,,,,,0,0,1,,,,0,74,0
273408,note_off,,,,,0,0,1,,,,0,83,0
273408,note_off,,,,,256,0,1,,,,0,71,0
273408,note_on,,,,,0,0,1,,,,0,71,110
273408,note_on,,,,,0,0,1,,,,0,74,110
273408,note_on,,,,,0,0,1,,,,0,83,110
273408,note_on,,,,,0,0,1,,,,0,42,88
273408,note_off,,,,,0,0,1,,,,0,56,0
273920,note_off,,,,,512,0,1,,,,0,42,0
273920,note_on,,,,,0,0,1,,,,0,49,88
274432,note_off,,,,,512,0,1,,,,0,49,0
274432,note_on,,,,,0,0,1,,,,0,57,88
274688,note_on,,,,,0,0,1,,,,0,81,88
274688,note_on,,,,,0,0,1,,,,0,73,88
274688,note_off,,,,,0,0,1,,,,0,83,0
274688,note_off,,,,,0,0,1,,,,0,74,0
274688,note_on,,,,,0,0,1,,,,0,69,88
274688,note_off,,,,,256,0,1,,,,0,71,0
274944,note_off,,,,,256,0,1,,,,0,69,0
274944,note_off,,,,,0,0,1,,,,0,73,0
274944,note_off,,,,,0,0,1,,,,0,81,0
274944,note_off,,,,,0,0,1,,,,0,57,0
274944,note_on,,,,,0,0,1,,,,0,69,110
274944,note_on,,,,,0,0,1,,,,0,81,110
274944,note_on,,,,,0,0,1,,,,0,42,88
274944,note_on,,,,,0,0,1,,,,0,73,110
275456,note_off,,,,,512,0,1,,,,0,42,0
275456,note_on,,,,,0,0,1,,,,0,50,88
275968,note_off,,,,,512,0,1,,,,0,50,0
275968,note_on,,,,,0,0,1,,,,0,59,88
276224,note_off,,,,,256,0,1,,,,0,69,0
276224,note_off,,,,,0,0,1,,,,0,73,0
276224,note_off,,,,,0,0,1,,,,0,81,0
276224,note_on,,,,,0,0,1,,,,0,71,88
276224,note_on,,,,,0,0,1,,,,0,80,88
276224,note_on,,,,,0,0,1,,,,0,68,88
276480,note_off,,,,,0,0,1,,,,0,80,0
276480,note_off,,,,,0,0,1,,,,0,59,0
276480,note_on,,,,,0,0,1,,,,0,69,88
276480,note_on,,,,,0,0,1,,,,0,73,88
276480,note_on,,,,,0,0,1,,,,0,81,88
276480,note_on,,,,,0,0,1,,,,0,42,88
276480,note_off,,,,,0,0,1,,,,0,71,0
276480,note_off,,,,,256,0,1,,,,0,68,0
276992,note_on,,,,,0,0,1,,,,0,49,88
276992,note_off,,,,,512,0,1,,,,0,42,0
277504,note_off,,,,,512,0,1,,,,0,49,0
277504,note_on,,,,,0,0,1,,,,0,57,88
278016,note_on,,,,,0,0,1,,,,0,42,88
278016,note_off,,,,,512,0,1,,,,0,57,0
278528,note_on,,,,,0,0,1,,,,0,49,88
278528,note_off,,,,,512,0,1,,,,0,42,0
279040,note_on,,,,,0,0,1,,,,0,57,88
279040,note_off,,,,,512,0,1,,,,0,49,0
279552,note_on,,,,,0,0,1,,,,0,85,88
279552,note_on,,,,,0,0,1,,,,0,73,88
279552,note_off,,,,,0,0,1,,,,0,57,0
279552,note_off,,,,,0,0,1,,,,0,81,0
279552,note_off,,,,,0,0,1,,,,0,73,0
279552,note_off,,,,,512,0,1,,,,0,69,0
279552,note_on,,,,,0,0,1,,,,0,45,88
280064,note_off,,,,,512,0,1,,,,0,45,0
280064,note_on,,,,,0,0,1,,,,0,49,88
280576,note_on,,,,,0,0,1,,,,0,54,88
280576,note_off,,,,,512,0,1,,,,0,49,0
280832,note_off,,,,,256,0,1,,,,0,73,0
280832,note_off,,,,,0,0,1,,,,0,85,0
280832,note_on,,,,,0,0,1,,,,0,81,88
280832,note_on,,,,,0,0,1,,,,0,78,88
280832,note_on,,,,,0,0,1,,,,0,69,88
281088,note_off,,,,,0,0,1,,,,0,81,0
281088,note_on,,,,,0,0,1,,,,0,49,88
281088,note_on,,,,,0,0,1,,,,0,80,88
281088,note_on,,,,,0,0,1,,,,0,77,88
281088,note_on,,,,,0,0,1,,,,0,68,88
281088,note_off,,,,,0,0,1,,,,0,54,0
281088,note_off,,,,,0,0,1,,,,0,78,0
281088,note_off,,,,,256,0,1,,,,0,69,0
281600,note_on,,,,,0,0,1,,,,0,53,88
281600,note_off,,,,,512,0,1,,,,0,49,0
282112,note_on,,,,,0,0,1,,,,0,56,88
282112,note_off,,,,,512,0,1,,,,0,53,0
282624,note_on,,,,,0,0,1,,,,0,49,88
282624,note_off,,,,,512,0,1,,,,0,56,0
283136,note_off,,,,,512,0,1,,,,0,49,0
283136,note_on,,,,,0,0,1,,,,0,53,88
283648,note_off,,,,,512,0,1,,,,0,53,0
283648,note_on,,,,,0,0,1,,,,0,56,88
284160,note_off,,,,,512,0,1,,,,0,68,0
284160,note_off,,,,,0,0,1,,,,0,77,0
284160,note_off,,,,,0,0,1,,,,0,80,0
284160,note_off,,,,,0,0,1,,,,0,56,0
284160,note_on,,,,,0,0,1,,,,0,78,110
284160,note_on,,,,,0,0,1,,,,0,81,110
284160,note_on,,,,,0,0,1,,,,0,90,110
284160,note_on,,,,,0,0,1,,,,0,45,88
284672,note_off,,,,,512,0,1,,,,0,45,0
284672,note_on,,,,,0,0,1,,,,0,49,88
285184,note_off,,,,,512,0,1,,,,0,49,0
285184,note_on,,,,,0,0,1,,,,0,54,88
285440,note_off,,,,,256,0,1,,,,0,78,0
285440,note_off,,,,,0,0,1,,,,0,81,0
285440,note_off,,,,,0,0,1,,,,0,90,0
285440,note_on,,,,,0,0,1,,,,0,69,88
285440,note_on,,,,,0,0,1,,,,0,81,88
285440,note_on,,,,,0,0,1,,,,0,78,88
285696,note_off,,,,,256,0,1,,,,0,69,0
285696,note_on,,,,,0,0,1,,,,0,49,88
285696,note_on,,,,,0,0,1,,,,0,80,88
285696,note_on,,,,,0,0,1,,,,0,77,88
285696,note_off,,,,,0,0,1,,,,0,54,0
285696,note_off,,,,,0,0,1,,,,0,81,0
285696,note_off,,,,,0,0,1,,,,0,78,0
285696,note_on,,,,,0,0,1,,,,0,68,88
286208,note_off,,,,,512,0,1,,,,0,49,0
286208,note_on,,,,,0,0,1,,,,0,53,88
286720,note_off,,,,,512,0,1,,,,0,53,0
286720,note_on,,,,,0,0,1,,,,0,56,88
287232,note_off,,,,,512,0,1,,,,0,56,0
287232,note_on,,,,,0,0,1,,,,0,50,88
287232,note_on,,,,,0,0,1,,,,0,50,88
287744,note_off,,,,,512,0,1,,,,0,68,0
287744,note_off,,,,,0,0,1,,,,0,80,0
287744,note_off,,,,,0,0,1,,,,0,50,0
287744,note_on,,,,,0,0,1,,,,0,56,88
287744,note_on,,,,,0,0,1,,,,0,71,88
287744,note_off,,,,,0,0,1,,,,0,77,0
288256,note_on,,,,,0,0,1,,,,0,69,88
288256,note_on,,,,,0,0,1,,,,0,54,88
288256,note_off,,,,,0,0,1,,,,0,71,0
288256,note_off,,,,,512,0,1,,,,0,56,0
288768,note_on,,,,,0,0,1,,,,0,68,88
288768,note_on,,,,,0,0,1,,,,0,53,88
288768,note_off,,,,,0,0,1,,,,0,69,0
288768,note_off,,,,,512,0,1,,,,0,54,0
289280,note_on,,,,,0,0,1,,,,0,69,88
289280,note_on,,,,,0,0,1,,,,0,54,88
289280,note_off,,,,,512,0,1,,,,0,53,0
289280,note_off,,,,,0,0,1,,,,0,68,0
289792,note_off,,,,,0,0,1,,,,0,50,0
289792,note_off,,,,,512,0,1,,,,0,54,0
289792,note_on,,,,,0,0,1,,,,0,71,88
289792,note_on,,,,,0,0,1,,,,0,49,88
289792,note_on,,,,,0,0,1,,,,0,56,88
289792,note_off,,,,,0,0,1,,,,0,69,0
290304,note_on,,,,,0,0,1,,,,0,42,49
290304,note_on,,,,,0,0,1,,,,0,73,64
290304,note_off,,,,,0,0,1,,,,0,49,0
290304,note_off,,,,,0,0,1,,,,0,71,0
290304,note_off,,,,,512,0,1,,,,0,56,0
290816,note_on,,,,,0,0,1,,,,0,49,53
290816,note_off,,,,,512,0,1,,,,0,42,0
291328,note_on,,,,,0,0,1,,,,0,57,58
291328,note_off,,,,,512,0,1,,,,0,49,0
291840,note_on,,,,,0,0,1,,,,0,42,62
291840,note_on,,,,,0,0,1,,,,0,73,82
291840,note_off,,,,,512,0,1,,,,0,73,0
291840,note_off,,,,,0,0,1,,,,0,57,0
292352,note_off,,,,,512,0,1,,,,0,42,0
292352,note_on,,,,,0,0,1,,,,0,47,67
292864,note_on,,,,,0,0,1,,,,0,56,72
292864,note_off,,,,,512,0,1,,,,0,47,0
293376,note_off,,,,,0,0,1,,,,0,56,0
293376,note_on,,,,,0,0,1,,,,0,73,101
293376,note_on,,,,,0,0,1,,,,0,42,77
293376,note_off,,,,,512,0,1,,,,0,73,0
293888,note_off,,,,,512,0,1,,,,0,42,0
293888,note_on,,,,,0,0,1,,,,0,45,82
294400,note_off,,,,,512,0,1,,,,0,45,0
294400,note_on,,,,,0,0,1,,,,0,54,88
294912,note_off,,,,,512,0,1,,,,0,73,0
294912,note_on,,,,,0,0,1,,,,0,40,93
294912,note_off,,,,,0,0,1,,,,0,54,0
294912,note_on,,,,,0,0,1,,,,0,74,125
295424,note_off,,,,,512,0,1,,,,0,40,0
295424,note_on,,,,,0,0,1,,,,0,47,95
295936,note_off,,,,,512,0,1,,,,0,47,0
295936,note_on,,,,,0,0,1,,,,0,56,99
296448,note_off,,,,,512,0,1,,,,0,56,0
296448,note_on,,,,,0,0,1,,,,0,40,101
296960,note_off,,,,,512,0,1,,,,0,40,0
296960,note_on,,,,,0,0,1,,,,0,47,104
297472,note_on,,,,,0,0,1,,,,0,56,106
297472,note_off,,,,,512,0,1,,,,0,47,0
297984,note_on,,,,,0,0,1,,,,0,40,108
297984,note_off,,,,,512,0,1,,,,0,56,0
298496,note_on,,,,,0,0,1,,,,0,47,110
298496,note_off,,,,,512,0,1,,,,0,40,0
299008,note_off,,,,,512,0,1,,,,0,47,0
299008,note_on,,,,,0,0,1,,,,0,56,112
299392,note_on,,,,,384,0,1,,,,0,74,64
299520,note_off,,,,,128,0,1,,,,0,74,0
299520,note_off,,,,,0,0,1,,,,0,56,0
299520,note_off,,,,,0,0,1,,,,0,74,0
299520,note_on,,,,,0,0,1,,,,0,40,64
299520,note_on,,,,,0,0,1,,,,0,78,64
300032,note_off,,,,,512,0,1,,,,0,40,0
300032,note_on,,,,,0,0,1,,,,0,47,64
300544,note_off,,,,,512,0,1,,,,0,78,0
300544,note_on,,,,,0,0,1,,,,0,74,64
300544,note_on,,,,,0,0,1,,,,0,56,64
300544,note_off,,,,,0,0,1,,,,0,47,0
301056,note_off,,,,,512,0,1,,,,0,74,0
301056,note_on,,,,,0,0,1,,,,0,74,64
301056,note_on,,,,,0,0,1,,,,0,40,64
301056,note_off,,,,,0,0,1,,,,0,56,0
301568,note_off,,,,,512,0,1,,,,0,40,0
301568,note_on,,,,,0,0,1,,,,0,49,64
302080,note_on,,,,,0,0,1,,,,0,73,64
302080,note_on,,,,,0,0,1,,,,0,57,64
302080,note_off,,,,,0,0,1,,,,0,49,0
302080,note_off,,,,,512,0,1,,,,0,74,0
302592,note_off,,,,,512,0,1,,,,0,73,0
302592,note_on,,,,,0,0,1,,,,0,73,64
302592,note_on,,,,,0,0,1,,,,0,40,64
302592,note_off,,,,,0,0,1,,,,0,57,0
303104,note_off,,,,,512,0,1,,,,0,40,0
303104,note_on,,,,,0,0,1,,,,0,50,64
303616,note_off,,,,,512,0,1,,,,0,73,0
303616,note_on,,,,,0,0,1,,,,0,56,64
303616,note_off,,,,,0,0,1,,,,0,50,0
303616,note_on,,,,,0,0,1,,,,0,71,64
304128,note_off,,,,,512,0,1,,,,0,71,0
304128,note_off,,,,,0,0,1,,,,0,56,0
304128,note_on,,,,,0,0,1,,,,0,73,64
304128,note_on,,,,,0,0,1,,,,0,45,64
304640,note_off,,,,,512,0,1,,,,0,45,0
304640,note_on,,,,,0,0,1,,,,0,49,64
305152,note_on,,,,,0,0,1,,,,0,57,64
305152,note_off,,,,,512,0,1,,,,0,49,0
305664,note_off,,,,,512,0,1,,,,0,57,0
305664,note_on,,,,,0,0,1,,,,0,45,64
306176,note_off,,,,,512,0,1,,,,0,45,0
306176,note_on,,,,,0,0,1,,,,0,49,64
306688,note_off,,,,,512,0,1,,,,0,49,0
306688,note_on,,,,,0,0,1,,,,0,56,64
307200,note_on,,,,,0,0,1,,,,0,45,64
307200,note_on,,,,,0,0,1,,,,0,73,64
307200,note_off,,,,,512,0,1,,,,0,73,0
307200,note_off,,,,,0,0,1,,,,0,56,0
307712,note_off,,,,,512,0,1,,,,0,45,0
307712,note_on,,,,,0,0,1,,,,0,49,75
308224,note_off,,,,,512,0,1,,,,0,73,0
308224,note_on,,,,,0,0,1,,,,0,69,75
308224,note_on,,,,,0,0,1,,,,0,54,75
308224,note_off,,,,,0,0,1,,,,0,49,0
308736,note_off,,,,,512,0,1,,,,0,69,0
308736,note_off,,,,,0,0,1,,,,0,54,0
308736,note_on,,,,,0,0,1,,,,0,68,75
308736,note_on,,,,,0,0,1,,,,0,47,75
309248,note_off,,,,,512,0,1,,,,0,47,0
309248,note_on,,,,,0,0,1,,,,0,50,75
309760,note_off,,,,,512,0,1,,,,0,50,0
309760,note_on,,,,,0,0,1,,,,0,54,75
310272,note_off,,,,,512,0,1,,,,0,54,0
310272,note_on,,,,,0,0,1,,,,0,52,75
310784,note_off,,,,,512,0,1,,,,0,52,0
310784,note_on,,,,,0,0,1,,,,0,54,75
311296,note_on,,,,,0,0,1,,,,0,59,75
311296,note_off,,,,,512,0,1,,,,0,54,0
311808,note_on,,,,,0,0,1,,,,0,49,75
311808,note_off,,,,,512,0,1,,,,0,68,0
311808,note_off,,,,,0,0,1,,,,0,59,0
311808,note_on,,,,,0,0,1,,,,0,71,75
312320,note_off,,,,,512,0,1,,,,0,71,0
312320,note_on,,,,,0,0,1,,,,0,69,75
312320,note_on,,,,,0,0,1,,,,0,53,75
312320,note_off,,,,,0,0,1,,,,0,49,0
312832,note_off,,,,,512,0,1,,,,0,69,0
312832,note_on,,,,,0,0,1,,,,0,68,75
312832,note_on,,,,,0,0,1,,,,0,47,75
312832,note_off,,,,,0,0,1,,,,0,53,0
313344,note_off,,,,,512,0,1,,,,0,68,0
313344,note_off,,,,,0,0,1,,,,0,47,0
313344,note_on,,,,,0,0,1,,,,0,73,75
313344,note_on,,,,,0,0,1,,,,0,45,75
313856,note_off,,,,,512,0,1,,,,0,45,0
313856,note_on,,,,,0,0,1,,,,0,49,75
314368,note_off,,,,,512,0,1,,,,0,49,0
314368,note_on,,,,,0,0,1,,,,0,54,75
314880,note_on,,,,,0,0,1,,,,0,44,75
314880,note_off,,,,,512,0,1,,,,0,54,0
315392,note_on,,,,,0,0,1,,,,0,47,75
315392,note_off,,,,,512,0,1,,,,0,44,0
315904,note_off,,,,,512,0,1,,,,0,47,0
315904,note_on,,,,,0,0,1,,,,0,54,75
316288,note_on,,,,,384,0,1,,,,0,73,75
316416,note_off,,,,,128,0,1,,,,0,73,0
316416,note_off,,,,,0,0,1,,,,0,73,0
316416,note_off,,,,,0,0,1,,,,0,54,0
316416,note_on,,,,,0,0,1,,,,0,78,75
316416,note_on,,,,,0,0,1,,,,0,45,75
316928,note_on,,,,,0,0,1,,,,0,49,75
316928,note_off,,,,,512,0,1,,,,0,45,0
317440,note_off,,,,,512,0,1,,,,0,78,0
317440,note_on,,,,,0,0,1,,,,0,69,75
317440,note_on,,,,,0,0,1,,,,0,54,75
317440,note_off,,,,,0,0,1,,,,0,49,0
317952,note_on,,,,,0,0,1,,,,0,47,75
317952,note_off,,,,,512,0,1,,,,0,69,0
317952,note_off,,,,,0,0,1,,,,0,54,0
317952,note_on,,,,,0,0,1,,,,0,68,75
318464,note_off,,,,,512,0,1,,,,0,47,0
318464,note_on,,,,,0,0,1,,,,0,50,75
318976,note_on,,,,,0,0,1,,,,0,54,75
318976,note_off,,,,,512,0,1,,,,0,50,0
319488,note_off,,,,,512,0,1,,,,0,54,0
319488,note_on,,,,,0,0,1,,,,0,50,75
320000,note_off,,,,,0,0,1,,,,0,50,0
320000,note_off,,,,,512,0,1,,,,0,68,0
320000,note_on,,,,,0,0,1,,,,0,69,75
320000,note_on,,,,,0,0,1,,,,0,54,75
320512,note_off,,,,,512,0,1,,,,0,69,0
320512,note_on,,,,,0,0,1,,,,0,68,75
320512,note_on,,,,,0,0,1,,,,0,59,75
320512,note_off,,,,,0,0,1,,,,0,54,0
321024,note_off,,,,,512,0,1,,,,0,68,0
321024,note_on,,,,,0,0,1,,,,0,71,75
321024,note_on,,,,,0,0,1,,,,0,49,75
321024,note_off,,,,,0,0,1,,,,0,59,0
321536,note_off,,,,,512,0,1,,,,0,71,0
321536,note_on,,,,,0,0,1,,,,0,69,75
321536,note_on,,,,,0,0,1,,,,0,53,75
321536,note_off,,,,,0,0,1,,,,0,49,0
322048,note_off,,,,,0,0,1,,,,0,53,0
322048,note_on,,,,,0,0,1,,,,0,59,75
322048,note_on,,,,,0,0,1,,,,0,68,75
322048,note_off,,,,,512,0,1,,,,0,69,0
322560,note_on,,,,,0,0,1,,,,0,66,75
322560,note_on,,,,,0,0,1,,,,0,57,75
322560,note_on,,,,,0,0,1,,,,0,54,75
322560,note_off,,,,,0,0,1,,,,0,59,0
322560,note_off,,,,,512,0,1,,,,0,68,0
323072,note_off,,,,,512,0,1,,,,0,54,0
323072,note_off,,,,,0,0,1,,,,0,57,0
323072,note_on,,,,,0,0,1,,,,0,42,72
323584,note_off,,,,,512,0,1,,,,0,42,0
323584,note_on,,,,,0,0,1,,,,0,45,69
324096,note_on,,,,,0,0,1,,,,0,49,66
324096,note_off,,,,,512,0,1,,,,0,45,0
324608,note_off,,,,,512,0,1,,,,0,49,0
324608,note_on,,,,,0,0,1,,,,0,54,63
325120,note_on,,,,,0,0,1,,,,0,56,59
325120,note_off,,,,,512,0,1,,,,0,54,0
325632,note_on,,,,,0,0,1,,,,0,57,56
325632,note_off,,,,,512,0,1,,,,0,66,0
325632,note_off,,,,,0,0,1,,,,0,56,0
326144,note_on,,,,,0,0,1,,,,0,61,53
326144,note_off,,,,,512,0,1,,,,0,57,0
326656,note_off,,,,,512,0,1,,,,0,61,0
326656,note_on,,,,,0,0,1,,,,0,57,50
327168,note_off,,,,,512,0,1,,,,0,57,0
327168,note_on,,,,,0,0,1,,,,0,73,49
327168,note_on,,,,,0,0,1,,,,0,53,49
327680,note_on,,,,,0,0,1,,,,0,56,50
327680,note_off,,,,,512,0,1,,,,0,53,0
328192,note_off,,,,,512,0,1,,,,0,56,0
328192,note_on,,,,,0,0,1,,,,0,61,51
328704,note_off,,,,,512,0,1,,,,0,73,0
328704,note_on,,,,,0,0,1,,,,0,73,52
328704,note_on,,,,,0,0,1,,,,0,53,52
328704,note_off,,,,,0,0,1,,,,0,61,0
329216,note_off,,,,,512,0,1,,,,0,53,0
329216,note_on,,,,,0,0,1,,,,0,56,53
329728,note_off,,,,,512,0,1,,,,0,56,0
329728,note_on,,,,,0,0,1,,,,0,61,53
330240,note_off,,,,,0,0,1,,,,0,61,0
330240,note_on,,,,,0,0,1,,,,0,73,54
330240,note_off,,,,,512,0,1,,,,0,73,0
330240,note_on,,,,,0,0,1,,,,0,53,54
330752,note_off,,,,,512,0,1,,,,0,53,0
330752,note_on,,,,,0,0,1,,,,0,56,55
331264,note_off,,,,,512,0,1,,,,0,56,0
331264,note_on,,,,,0,0,1,,,,0,61,56
331776,note_off,,,,,0,0,1,,,,0,61,0
331776,note_on,,,,,0,0,1,,,,0,73,57
331776,note_on,,,,,0,0,1,,,,0,52,57
331776,note_off,,,,,512,0,1,,,,0,73,0
332288,note_off,,,,,512,0,1,,,,0,52,0
332288,note_on,,,,,0,0,1,,,,0,56,58
332800,note_off,,,,,512,0,1,,,,0,56,0
332800,note_on,,,,,0,0,1,,,,0,61,59
333312,note_off,,,,,512,0,1,,,,0,73,0
333312,note_on,,,,,0,0,1,,,,0,73,60
333312,note_on,,,,,0,0,1,,,,0,52,60
333312,note_off,,,,,0,0,1,,,,0,61,0
333824,note_off,,,,,512,0,1,,,,0,52,0
333824,note_on,,,,,0,0,1,,,,0,56,61
334336,note_off,,,,,512,0,1,,,,0,56,0
334336,note_on,,,,,0,0,1,,,,0,61,61
334848,note_off,,,,,512,0,1,,,,0,73,0
334848,note_on,,,,,0,0,1,,,,0,73,62
334848,note_on,,,,,0,0,1,,,,0,52,62
334848,note_off,,,,,0,0,1,,,,0,61,0
335360,note_off,,,,,512,0,1,,,,0,52,0
335360,note_on,,,,,0,0,1,,,,0,56,63
335872,note_off,,,,,512,0,1,,,,0,56,0
335872,note_on,,,,,0,0,1,,,,0,61,64
336256,note_on,,,,,384,0,1,,,,0,73,49
336384,note_on,,,,,0,0,1,,,,0,51,64
336384,note_on,,,,,0,0,1,,,,0,76,64
336384,note_off,,,,,0,0,1,,,,0,73,0
336384,note_off,,,,,0,0,1,,,,0,61,0
336384,note_off,,,,,128,0,1,,,,0,73,0
336896,set_tempo,,,,,0,1,0,,588235,,,,
336896,set_tempo,,,,,74240,1,0,,571428,,,,
336896,note_on,,,,,0,0,1,,,,0,55,64
336896,note_off,,,,,512,0,1,,,,0,51,0
337408,note_off,,,,,0,0,1,,,,0,55,0
337408,note_on,,,,,0,0,1,,,,0,61,64
337408,note_on,,,,,0,0,1,,,,0,75,64
337408,note_off,,,,,512,0,1,,,,0,76,0
337408,set_tempo,,,,,512,1,0,,606060,,,,
337408,set_tempo,,,,,0,1,0,,625000,,,,
337920,note_on,,,,,0,0,1,,,,0,51,64
337920,note_off,,,,,0,0,1,,,,0,61,0
337920,note_on,,,,,0,0,1,,,,0,75,64
337920,note_off,,,,,512,0,1,,,,0,75,0
337920,set_tempo,,,,,0,1,0,,666666,,,,
337920,set_tempo,,,,,512,1,0,,645161,,,,
338432,set_tempo,,,,,0,1,0,,731707,,,,
338432,set_tempo,,,,,512,1,0,,697674,,,,
338432,note_off,,,,,0,0,1,,,,0,51,0
338432,note_on,,,,,0,0,1,,,,0,55,64
338432,note_on,,,,,0,0,1,,,,0,75,64
338432,note_off,,,,,512,0,1,,,,0,75,0
338944,set_tempo,,,,,0,1,0,,789473,,,,
338944,note_on,,,,,0,0,1,,,,0,75,64
338944,note_off,,,,,512,0,1,,,,0,75,0
338944,note_off,,,,,0,0,1,,,,0,55,0
338944,note_on,,,,,0,0,1,,,,0,61,64
338944,set_tempo,,,,,512,1,0,,759493,,,,
339456,set_tempo,,,,,512,1,0,,821917,,,,
339456,set_tempo,,,,,0,1,0,,857142,,,,
339456,note_off,,,,,512,0,1,,,,0,75,0
339456,note_off,,,,,0,0,1,,,,0,61,0
339456,note_on,,,,,0,0,1,,,,0,75,64
339456,note_on,,,,,0,0,1,,,,0,51,64
339968,note_on,,,,,0,0,1,,,,0,55,64
339968,note_off,,,,,0,0,1,,,,0,51,0
339968,note_off,,,,,512,0,1,,,,0,75,0
339968,note_on,,,,,0,0,1,,,,0,75,64
339968,set_tempo,,,,,512,1,0,,895522,,,,
339968,set_tempo,,,,,0,1,0,,937500,,,,
340480,set_tempo,,,,,0,1,0,,1071428,,,,
340480,note_on,,,,,0,0,1,,,,0,61,64
340480,set_tempo,,,,,512,1,0,,1000000,,,,
340480,note_off,,,,,512,0,1,,,,0,75,0
340480,note_on,,,,,0,0,1,,,,0,75,64
340480,note_off,,,,,0,0,1,,,,0,55,0
340992,note_on,,,,,0,0,1,,,,0,51,64
340992,note_off,,,,,512,0,1,,,,0,75,0
340992,note_on,,,,,0,0,1,,,,0,55,64
340992,note_off,,,,,0,0,1,,,,0,61,0
340992,note_on,,,,,0,0,1,,,,0,55,64
340992,note_on,,,,,0,0,1,,,,0,75,64
341504,note_off,,,,,512,0,1,,,,0,55,0
341504,note_on,,,,,0,0,1,,,,0,58,64
342016,note_on,,,,,0,0,1,,,,0,60,64
342016,note_off,,,,,512,0,1,,,,0,58,0
342528,note_on,,,,,0,0,1,,,,0,61,64
342528,note_off,,,,,512,0,1,,,,0,60,0
344064,note_off,,,,,1536,0,1,,,,0,51,0
344064,note_off,,,,,0,0,1,,,,0,61,0
344064,note_off,,,,,0,0,1,,,,0,75,0
344064,note_off,,,,,0,0,1,,,,0,55,0
345600,set_tempo,,,,,0,1,0,,555555,,,,
345600,key_signature,,,,,5120,1,0,Ab,,,,,
345600,set_tempo,,,,,0,1,0,,555555,,,,
348672,note_on,,,,,4608,0,1,,,,0,60,64
348672,note_on,,,,,0,0,1,,,,0,68,64
348672,note_on,,,,,0,0,1,,,,0,72,64
348672,note_on,,,,,0,0,1,,,,0,44,64
348672,note_on,,,,,0,0,1,,,,0,51,64
349440,note_off,,,,,0,0,1,,,,0,44,0
349440,note_on,,,,,0,0,1,,,,0,46,64
349440,note_on,,,,,0,0,1,,,,0,73,64
349440,note_on,,,,,0,0,1,,,,0,67,64
349440,note_on,,,,,0,0,1,,,,0,61,64
349440,note_off,,,,,0,0,1,,,,0,68,0
349440,note_off,,,,,0,0,1,,,,0,72,0
349440,note_on,,,,,0,0,1,,,,0,51,64
349440,note_off,,,,,768,0,1,,,,0,60,0
349440,note_off,,,,,0,0,1,,,,0,51,0
349696,note_on,,,,,0,0,1,,,,0,72,64
349696,note_on,,,,,0,0,1,,,,0,44,64
349696,note_off,,,,,0,0,1,,,,0,73,0
349696,note_on,,,,,0,0,1,,,,0,68,64
349696,note_on,,,,,0,0,1,,,,0,51,64
349696,note_on,,,,,0,0,1,,,,0,60,64
349696,note_off,,,,,256,0,1,,,,0,61,0
349696,note_off,,,,,0,0,1,,,,0,46,0
349696,note_off,,,,,0,0,1,,,,0,67,0
349696,note_off,,,,,0,0,1,,,,0,51,0
350208,note_on,,,,,0,0,1,,,,0,46,64
350208,note_off,,,,,512,0,1,,,,0,60,0
350208,note_off,,,,,0,0,1,,,,0,68,0
350208,note_off,,,,,0,0,1,,,,0,72,0
350208,note_off,,,,,0,0,1,,,,0,44,0
350208,note_off,,,,,0,0,1,,,,0,51,0
350208,note_on,,,,,0,0,1,,,,0,61,64
350208,note_on,,,,,0,0,1,,,,0,67,64
350208,note_on,,,,,0,0,1,,,,0,73,64
350208,note_on,,,,,0,0,1,,,,0,51,64
353280,note_on,,,,,0,0,1,,,,0,44,64
353280,note_on,,,,,0,0,1,,,,0,72,64
353280,note_on,,,,,0,0,1,,,,0,68,64
353280,note_on,,,,,0,0,1,,,,0,51,64
353280,note_on,,,,,0,0,1,,,,0,60,64
353280,note_off,,,,,0,0,1,,,,0,73,0
353280,note_off,,,,,0,0,1,,,,0,46,0
353280,note_off,,,,,3072,0,1,,,,0,61,0
353280,note_off,,,,,0,0,1,,,,0,67,0
353280,note_off,,,,,0,0,1,,,,0,51,0
354048,note_off,,,,,768,0,1,,,,0,60,0
354048,note_off,,,,,0,0,1,,,,0,68,0
354048,note_off,,,,,0,0,1,,,,0,72,0
354048,note_off,,,,,0,0,1,,,,0,44,0
354048,note_on,,,,,0,0,1,,,,0,61,64
354048,note_on,,,,,0,0,1,,,,0,67,64
354048,note_on,,,,,0,0,1,,,,0,73,64
354048,note_on,,,,,0,0,1,,,,0,46,64
354048,note_on,,,,,0,0,1,,,,0,51,64
354048,note_off,,,,,0,0,1,,,,0,51,0
354304,note_on,,,,,0,0,1,,,,0,51,64
354304,note_on,,,,,0,0,1,,,,0,60,64
354304,note_on,,,,,0,0,1,,,,0,72,64
354304,note_on,,,,,0,0,1,,,,0,68,64
354304,note_on,,,,,0,0,1,,,,0,44,64
354304,note_off,,,,,0,0,1,,,,0,51,0
354304,note_off,,,,,0,0,1,,,,0,73,0
354304,note_off,,,,,0,0,1,,,,0,67,0
354304,note_off,,,,,256,0,1,,,,0,61,0
354304,note_off,,,,,0,0,1,,,,0,46,0
354816,note_on,,,,,0,0,1,,,,0,51,64
354816,note_on,,,,,0,0,1,,,,0,39,64
354816,note_on,,,,,0,0,1,,,,0,70,64
354816,note_on,,,,,0,0,1,,,,0,67,64
354816,note_on,,,,,0,0,1,,,,0,58,64
354816,note_off,,,,,0,0,1,,,,0,51,0
354816,note_off,,,,,0,0,1,,,,0,72,0
354816,note_off,,,,,0,0,1,,,,0,68,0
354816,note_off,,,,,512,0,1,,,,0,60,0
354816,note_off,,,,,0,0,1,,,,0,44,0
357888,note_on,,,,,0,0,1,,,,0,60,80
357888,note_on,,,,,0,0,1,,,,0,44,80
357888,note_on,,,,,0,0,1,,,,0,72,80
357888,note_on,,,,,0,0,1,,,,0,68,80
357888,note_off,,,,,0,0,1,,,,0,51,0
357888,note_on,,,,,0,0,1,,,,0,51,80
357888,note_off,,,,,0,0,1,,,,0,70,0
357888,note_off,,,,,0,0,1,,,,0,67,0
357888,note_off,,,,,3072,0,1,,,,0,58,0
357888,note_off,,,,,0,0,1,,,,0,39,0
358656,note_on,,,,,0,0,1,,,,0,67,84
358656,note_on,,,,,0,0,1,,,,0,51,84
358656,note_on,,,,,0,0,1,,,,0,46,84
358656,note_on,,,,,0,0,1,,,,0,73,84
358656,note_on,,,,,0,0,1,,,,0,61,84
358656,note_off,,,,,0,0,1,,,,0,51,0
358656,note_off,,,,,0,0,1,,,,0,44,0
358656,note_off,,,,,0,0,1,,,,0,72,0
358656,note_off,,,,,0,0,1,,,,0,68,0
358656,note_off,,,,,768,0,1,,,,0,60,0
358912,note_on,,,,,0,0,1,,,,0,51,85
358912,note_on,,,,,0,0,1,,,,0,44,85
358912,note_on,,,,,0,0,1,,,,0,72,85
358912,note_on,,,,,0,0,1,,,,0,68,85
358912,note_on,,,,,0,0,1,,,,0,60,85
358912,note_off,,,,,0,0,1,,,,0,51,0
358912,note_off,,,,,0,0,1,,,,0,46,0
358912,note_off,,,,,0,0,1,,,,0,73,0
358912,note_off,,,,,0,0,1,,,,0,67,0
358912,note_off,,,,,256,0,1,,,,0,61,0
359424,note_on,,,,,0,0,1,,,,0,51,88
359424,note_on,,,,,0,0,1,,,,0,44,88
359424,note_on,,,,,0,0,1,,,,0,72,88
359424,note_on,,,,,0,0,1,,,,0,68,88
359424,note_on,,,,,0,0,1,,,,0,60,88
359424,note_off,,,,,0,0,1,,,,0,51,0
359424,note_off,,,,,0,0,1,,,,0,44,0
359424,note_off,,,,,0,0,1,,,,0,72,0
359424,note_off,,,,,0,0,1,,,,0,68,0
359424,note_off,,,,,512,0,1,,,,0,60,0
360192,note_on,,,,,0,0,1,,,,0,51,92
360192,note_on,,,,,0,0,1,,,,0,49,92
360192,note_on,,,,,0,0,1,,,,0,77,92
360192,note_on,,,,,0,0,1,,,,0,68,92
360192,note_on,,,,,0,0,1,,,,0,65,92
360192,note_off,,,,,0,0,1,,,,0,51,0
360192,note_off,,,,,0,0,1,,,,0,44,0
360192,note_off,,,,,0,0,1,,,,0,72,0
360192,note_off,,,,,0,0,1,,,,0,68,0
360192,note_off,,,,,768,0,1,,,,0,60,0
360448,note_on,,,,,0,0,1,,,,0,51,93
360448,note_on,,,,,0,0,1,,,,0,48,93
360448,note_on,,,,,0,0,1,,,,0,75,93
360448,note_on,,,,,0,0,1,,,,0,63,93
360448,note_off,,,,,0,0,1,,,,0,51,0
360448,note_on,,,,,0,0,1,,,,0,68,93
360448,note_off,,,,,0,0,1,,,,0,77,0
360448,note_off,,,,,256,0,1,,,,0,65,0
360448,note_off,,,,,0,0,1,,,,0,49,0
360448,note_off,,,,,0,0,1,,,,0,68,0
360960,note_on,,,,,0,0,1,,,,0,75,96
360960,note_on,,,,,0,0,1,,,,0,51,96
360960,note_on,,,,,0,0,1,,,,0,48,96
360960,note_on,,,,,0,0,1,,,,0,68,96
360960,note_off,,,,,0,0,1,,,,0,51,0
360960,note_on,,,,,0,0,1,,,,0,63,96
360960,note_off,,,,,0,0,1,,,,0,75,0
360960,note_off,,,,,0,0,1,,,,0,68,0
360960,note_off,,,,,512,0,1,,,,0,63,0
360960,note_off,,,,,0,0,1,,,,0,48,0
362368,note_on,,,,,1408,0,1,,,,0,63,64
362368,note_on,,,,,0,0,1,,,,0,75,64
362496,note_off,,,,,0,0,1,,,,0,51,0
362496,note_on,,,,,0,0,1,,,,0,46,64
362496,note_on,,,,,0,0,1,,,,0,73,64
362496,note_on,,,,,0,0,1,,,,0,67,64
362496,note_on,,,,,0,0,1,,,,0,61,64
362496,note_on,,,,,0,0,1,,,,0,51,64
362496,note_off,,,,,0,0,1,,,,0,75,0
362496,note_off,,,,,0,0,1,,,,0,63,0
362496,note_off,,,,,0,0,1,,,,0,75,0
362496,note_off,,,,,0,0,1,,,,0,68,0
362496,note_off,,,,,128,0,1,,,,0,63,0
362496,note_off,,,,,0,0,1,,,,0,48,0
363776,note_on,,,,,0,0,1,,,,0,51,54
363776,note_on,,,,,0,0,1,,,,0,44,54
363776,note_on,,,,,0,0,1,,,,0,72,54
363776,note_on,,,,,0,0,1,,,,0,68,54
363776,note_on,,,,,0,0,1,,,,0,60,54
363776,note_off,,,,,0,0,1,,,,0,46,0
363776,note_off,,,,,0,0,1,,,,0,73,0
363776,note_off,,,,,0,0,1,,,,0,67,0
363776,note_off,,,,,1280,0,1,,,,0,61,0
363776,note_off,,,,,0,0,1,,,,0,51,0
364032,note_on,,,,,0,0,1,,,,0,51,52
364032,note_on,,,,,0,0,1,,,,0,60,52
364032,note_on,,,,,0,0,1,,,,0,44,52
364032,note_on,,,,,0,0,1,,,,0,68,52
364032,note_off,,,,,0,0,1,,,,0,51,0
364032,note_on,,,,,0,0,1,,,,0,72,52
364032,note_off,,,,,0,0,1,,,,0,72,0
364032,note_off,,,,,0,0,1,,,,0,68,0
364032,note_off,,,,,256,0,1,,,,0,60,0
364032,note_off,,,,,0,0,1,,,,0,44,0
367104,note_on,,,,,0,0,1,,,,0,51,64
367104,note_on,,,,,0,0,1,,,,0,67,64
367104,note_on,,,,,0,0,1,,,,0,39,64
367104,note_on,,,,,0,0,1,,,,0,70,64
367104,note_on,,,,,0,0,1,,,,0,58,64
367104,note_off,,,,,3072,0,1,,,,0,60,0
367104,note_off,,,,,0,0,1,,,,0,44,0
367104,note_off,,,,,0,0,1,,,,0,72,0
367104,note_off,,,,,0,0,1,,,,0,68,0
367104,note_off,,,,,0,0,1,,,,0,51,0
367872,note_on,,,,,0,0,1,,,,0,51,64
367872,note_on,,,,,0,0,1,,,,0,44,64
367872,note_on,,,,,0,0,1,,,,0,71,64
367872,note_on,,,,,0,0,1,,,,0,68,64
367872,note_on,,,,,0,0,1,,,,0,59,64
367872,note_off,,,,,0,0,1,,,,0,51,0
367872,note_off,,,,,0,0,1,,,,0,39,0
367872,note_off,,,,,0,0,1,,,,0,70,0
367872,note_off,,,,,0,0,1,,,,0,67,0
367872,note_off,,,,,768,0,1,,,,0,58,0
368128,note_on,,,,,0,0,1,,,,0,51,64
368128,note_on,,,,,0,0,1,,,,0,39,64
368128,note_on,,,,,0,0,1,,,,0,70,64
368128,note_on,,,,,0,0,1,,,,0,67,64
368128,note_on,,,,,0,0,1,,,,0,58,64
368128,note_off,,,,,0,0,1,,,,0,51,0
368128,note_off,,,,,0,0,1,,,,0,44,0
368128,note_off,,,,,0,0,1,,,,0,71,0
368128,note_off,,,,,0,0,1,,,,0,68,0
368128,note_off,,,,,256,0,1,,,,0,59,0
368640,note_on,,,,,0,0,1,,,,0,51,64
368640,note_on,,,,,0,0,1,,,,0,39,64
368640,note_on,,,,,0,0,1,,,,0,70,64
368640,note_on,,,,,0,0,1,,,,0,67,64
368640,note_on,,,,,0,0,1,,,,0,58,64
368640,note_off,,,,,0,0,1,,,,0,51,0
368640,note_off,,,,,0,0,1,,,,0,39,0
368640,note_off,,,,,0,0,1,,,,0,70,0
368640,note_off,,,,,0,0,1,,,,0,67,0
368640,note_off,,,,,512,0,1,,,,0,58,0
369408,note_on,,,,,0,0,1,,,,0,51,64
369408,note_on,,,,,0,0,1,,,,0,44,64
369408,note_on,,,,,0,0,1,,,,0,71,64
369408,note_on,,,,,0,0,1,,,,0,59,64
369408,note_off,,,,,0,0,1,,,,0,51,0
369408,note_on,,,,,0,0,1,,,,0,68,64
369408,note_off,,,,,0,0,1,,,,0,70,0
369408,note_off,,,,,0,0,1,,,,0,39,0
369408,note_off,,,,,0,0,1,,,,0,67,0
369408,note_off,,,,,768,0,1,,,,0,58,0
369664,note_on,,,,,0,0,1,,,,0,51,64
369664,note_on,,,,,0,0,1,,,,0,39,64
369664,note_on,,,,,0,0,1,,,,0,70,64
369664,note_on,,,,,0,0,1,,,,0,67,64
369664,note_on,,,,,0,0,1,,,,0,58,64
369664,note_off,,,,,0,0,1,,,,0,51,0
369664,note_off,,,,,0,0,1,,,,0,44,0
369664,note_off,,,,,0,0,1,,,,0,71,0
369664,note_off,,,,,0,0,1,,,,0,68,0
369664,note_off,,,,,256,0,1,,,,0,59,0
370176,note_on,,,,,0,0,1,,,,0,38,64
370176,note_on,,,,,0,0,1,,,,0,71,86
370176,note_on,,,,,0,0,1,,,,0,50,64
370176,note_on,,,,,0,0,1,,,,0,65,86
370176,note_off,,,,,0,0,1,,,,0,51,0
370176,note_on,,,,,0,0,1,,,,0,68,86
370176,note_off,,,,,0,0,1,,,,0,70,0
370176,note_off,,,,,0,0,1,,,,0,67,0
370176,note_off,,,,,512,0,1,,,,0,58,0
370176,note_off,,,,,0,0,1,,,,0,39,0
371712,note_off,,,,,1536,0,1,,,,0,65,0
371712,note_off,,,,,0,0,1,,,,0,68,0
371712,note_off,,,,,0,0,1,,,,0,71,0
371712,note_on,,,,,0,0,1,,,,0,68,108
371712,note_on,,,,,0,0,1,,,,0,71,108
371712,note_on,,,,,0,0,1,,,,0,77,108
372736,note_off,,,,,0,0,1,,,,0,71,0
372736,note_off,,,,,1024,0,1,,,,0,68,0
372992,note_off,,,,,256,0,1,,,,0,77,0
372992,note_on,,,,,0,0,1,,,,0,75,66
373248,note_off,,,,,256,0,1,,,,0,75,0
373248,note_off,,,,,0,0,1,,,,0,38,0
373248,note_off,,,,,0,0,1,,,,0,50,0
373248,note_on,,,,,0,0,1,,,,0,68,66
373248,note_on,,,,,0,0,1,,,,0,71,66
373248,note_on,,,,,0,0,1,,,,0,75,66
373248,note_on,,,,,0,0,1,,,,0,39,66
373248,note_on,,,,,0,0,1,,,,0,51,66
374784,note_on,,,,,0,0,1,,,,0,70,63
374784,note_off,,,,,0,0,1,,,,0,71,0
374784,note_on,,,,,0,0,1,,,,0,67,63
374784,note_off,,,,,1536,0,1,,,,0,68,0
375296,note_off,,,,,512,0,1,,,,0,67,0
375296,note_off,,,,,0,0,1,,,,0,70,0
375296,note_off,,,,,0,0,1,,,,0,75,0
375296,note_off,,,,,0,0,1,,,,0,39,0
375296,note_off,,,,,0,0,1,,,,0,51,0
376320,note_on,,,,,1024,0,1,,,,0,75,49
376320,note_on,,,,,0,0,1,,,,0,60,49
376320,note_on,,,,,0,0,1,,,,0,67,49
376320,note_on,,,,,0,0,1,,,,0,69,49
377088,note_off,,,,,768,0,1,,,,0,75,0
377088,note_on,,,,,0,0,1,,,,0,77,49
377344,note_off,,,,,0,0,1,,,,0,69,0
377344,note_off,,,,,0,0,1,,,,0,67,0
377344,note_on,,,,,0,0,1,,,,0,69,49
377344,note_on,,,,,0,0,1,,,,0,67,49
377344,note_off,,,,,0,0,1,,,,0,60,0
377344,note_on,,,,,0,0,1,,,,0,75,49
377344,note_off,,,,,256,0,1,,,,0,77,0
377344,note_on,,,,,0,0,1,,,,0,60,49
377856,note_on,,,,,0,0,1,,,,0,66,49
377856,note_on,,,,,0,0,1,,,,0,75,49
377856,note_on,,,,,0,0,1,,,,0,68,49
377856,note_off,,,,,0,0,1,,,,0,69,0
377856,note_on,,,,,0,0,1,,,,0,61,49
377856,note_off,,,,,0,0,1,,,,0,60,0
377856,note_off,,,,,512,0,1,,,,0,75,0
377856,note_off,,,,,0,0,1,,,,0,67,0
378880,note_off,,,,,1024,0,1,,,,0,68,0
378880,note_off,,,,,0,0,1,,,,0,75,0
378880,note_on,,,,,0,0,1,,,,0,72,53
379392,note_off,,,,,512,0,1,,,,0,72,0
379392,note_on,,,,,0,0,1,,,,0,73,55
379392,note_on,,,,,0,0,1,,,,0,65,55
379392,note_off,,,,,0,0,1,,,,0,66,0
379904,note_off,,,,,0,0,1,,,,0,65,0
379904,note_off,,,,,512,0,1,,,,0,73,0
379904,note_off,,,,,0,0,1,,,,0,61,0
380928,note_on,,,,,0,0,1,,,,0,75,125
380928,note_on,,,,,0,0,1,,,,0,72,125
380928,note_on,,,,,0,0,1,,,,0,54,125
380928,note_on,,,,,1024,0,1,,,,0,80,125
380928,note_on,,,,,0,0,1,,,,0,42,125
381696,note_off,,,,,768,0,1,,,,0,80,0
381696,note_on,,,,,0,0,1,,,,0,82,127
381952,note_off,,,,,0,0,1,,,,0,75,0
381952,note_off,,,,,0,0,1,,,,0,72,0
381952,note_off,,,,,0,0,1,,,,0,54,0
381952,note_off,,,,,0,0,1,,,,0,42,0
381952,note_on,,,,,0,0,1,,,,0,75,127
381952,note_on,,,,,0,0,1,,,,0,72,127
381952,note_on,,,,,0,0,1,,,,0,54,127
381952,note_on,,,,,0,0,1,,,,0,42,127
381952,note_on,,,,,0,0,1,,,,0,80,127
381952,note_off,,,,,256,0,1,,,,0,82,0
382464,note_on,,,,,0,0,1,,,,0,73,127
382464,note_on,,,,,0,0,1,,,,0,53,127
382464,note_on,,,,,0,0,1,,,,0,41,127
382464,note_on,,,,,0,0,1,,,,0,82,127
382464,note_off,,,,,0,0,1,,,,0,75,0
382464,note_off,,,,,0,0,1,,,,0,54,0
382464,note_off,,,,,0,0,1,,,,0,42,0
382464,note_off,,,,,512,0,1,,,,0,80,0
382464,note_off,,,,,0,0,1,,,,0,72,0
383232,note_off,,,,,768,0,1,,,,0,82,0
383232,note_on,,,,,0,0,1,,,,0,80,127
383488,note_off,,,,,0,0,1,,,,0,73,0
383488,note_off,,,,,256,0,1,,,,0,80,0
383488,note_on,,,,,0,0,1,,,,0,80,127
383488,note_on,,,,,0,0,1,,,,0,40,127
383488,note_on,,,,,0,0,1,,,,0,52,127
383488,note_on,,,,,0,0,1,,,,0,73,127
383488,note_off,,,,,0,0,1,,,,0,41,0
383488,note_off,,,,,0,0,1,,,,0,53,0
383872,note_on,,,,,384,0,1,,,,0,80,118
384000,note_on,,,,,0,0,1,,,,0,39,118
384000,note_on,,,,,0,0,1,,,,0,85,118
384000,note_on,,,,,0,0,1,,,,0,73,118
384000,note_on,,,,,0,0,1,,,,0,51,118
384000,note_off,,,,,0,0,1,,,,0,73,0
384000,note_on,,,,,0,0,1,,,,0,80,118
384000,note_off,,,,,0,0,1,,,,0,40,0
384000,note_off,,,,,0,0,1,,,,0,80,0
384000,note_off,,,,,128,0,1,,,,0,80,0
384000,note_off,,,,,0,0,1,,,,0,52,0
385024,note_on,,,,,0,0,1,,,,0,84,114
385024,note_off,,,,,1024,0,1,,,,0,85,0
385408,note_on,,,,,384,0,1,,,,0,82,112
385536,note_on,,,,,0,0,1,,,,0,51,112
385536,note_on,,,,,0,0,1,,,,0,39,112
385536,note_on,,,,,0,0,1,,,,0,82,112
385536,note_on,,,,,0,0,1,,,,0,79,112
385536,note_on,,,,,0,0,1,,,,0,73,112
385536,note_off,,,,,0,0,1,,,,0,80,0
385536,note_off,,,,,0,0,1,,,,0,82,0
385536,note_off,,,,,0,0,1,,,,0,51,0
385536,note_off,,,,,128,0,1,,,,0,84,0
385536,note_off,,,,,0,0,1,,,,0,73,0
385536,note_off,,,,,0,0,1,,,,0,39,0
386816,note_on,,,,,0,0,1,,,,0,51,107
386816,note_on,,,,,0,0,1,,,,0,80,107
386816,note_on,,,,,0,0,1,,,,0,72,107
386816,note_off,,,,,0,0,1,,,,0,51,0
386816,note_on,,,,,0,0,1,,,,0,44,107
386816,note_off,,,,,0,0,1,,,,0,82,0
386816,note_off,,,,,0,0,1,,,,0,79,0
386816,note_off,,,,,1280,0,1,,,,0,73,0
386816,note_off,,,,,0,0,1,,,,0,39,0
387072,note_on,,,,,0,0,1,,,,0,44,88
387072,note_off,,,,,256,0,1,,,,0,72,0
387072,note_off,,,,,0,0,1,,,,0,80,0
387072,note_off,,,,,0,0,1,,,,0,44,0
387072,note_off,,,,,0,0,1,,,,0,51,0
387072,note_on,,,,,0,0,1,,,,0,72,88
387072,note_on,,,,,0,0,1,,,,0,80,88
387072,note_on,,,,,0,0,1,,,,0,51,88
388096,note_off,,,,,1024,0,1,,,,0,44,0
388096,note_off,,,,,0,0,1,,,,0,51,0
388352,note_on,,,,,256,0,1,,,,0,51,49
388608,note_off,,,,,256,0,1,,,,0,72,0
388608,note_off,,,,,0,0,1,,,,0,80,0
388608,note_off,,,,,0,0,1,,,,0,51,0
388608,note_on,,,,,0,0,1,,,,0,51,49
389888,note_on,,,,,0,0,1,,,,0,68,49
389888,note_on,,,,,1280,0,1,,,,0,44,49
389888,note_on,,,,,0,0,1,,,,0,60,49
389888,note_on,,,,,0,0,1,,,,0,72,49
390144,note_on,,,,,0,0,1,,,,0,60,49
390144,note_on,,,,,0,0,1,,,,0,44,49
390144,note_off,,,,,0,0,1,,,,0,72,0
390144,note_off,,,,,256,0,1,,,,0,44,0
390144,note_off,,,,,0,0,1,,,,0,60,0
390144,note_on,,,,,0,0,1,,,,0,68,49
390144,note_off,,,,,0,0,1,,,,0,68,0
390144,note_on,,,,,0,0,1,,,,0,72,49
390912,note_on,,,,,0,0,1,,,,0,67,49
390912,note_on,,,,,0,0,1,,,,0,61,49
390912,note_on,,,,,0,0,1,,,,0,73,49
390912,note_on,,,,,0,0,1,,,,0,46,49
390912,note_off,,,,,0,0,1,,,,0,72,0
390912,note_off,,,,,0,0,1,,,,0,68,0
390912,note_off,,,,,0,0,1,,,,0,60,0
390912,note_off,,,,,768,0,1,,,,0,44,0
391168,note_on,,,,,0,0,1,,,,0,72,49
391168,note_on,,,,,0,0,1,,,,0,68,49
391168,note_on,,,,,0,0,1,,,,0,44,49
391168,note_off,,,,,0,0,1,,,,0,73,0
391168,note_on,,,,,0,0,1,,,,0,60,49
391168,note_off,,,,,0,0,1,,,,0,61,0
391168,note_off,,,,,256,0,1,,,,0,46,0
391168,note_off,,,,,0,0,1,,,,0,67,0
391680,note_on,,,,,0,0,1,,,,0,67,49
391680,note_off,,,,,512,0,1,,,,0,44,0
391680,note_off,,,,,0,0,1,,,,0,60,0
391680,note_off,,,,,0,0,1,,,,0,68,0
391680,note_off,,,,,0,0,1,,,,0,72,0
391680,note_on,,,,,0,0,1,,,,0,46,49
391680,note_on,,,,,0,0,1,,,,0,61,49
391680,note_on,,,,,0,0,1,,,,0,73,49
392960,note_on,,,,,0,0,1,,,,0,51,49
392960,note_off,,,,,1280,0,1,,,,0,51,0
393216,note_off,,,,,256,0,1,,,,0,51,0
393216,note_on,,,,,0,0,1,,,,0,51,49
394496,note_on,,,,,0,0,1,,,,0,70,49
394496,note_on,,,,,0,0,1,,,,0,67,49
394496,note_on,,,,,0,0,1,,,,0,39,49
394496,note_off,,,,,0,0,1,,,,0,73,0
394496,note_on,,,,,0,0,1,,,,0,58,49
394496,note_off,,,,,0,0,1,,,,0,61,0
394496,note_off,,,,,1280,0,1,,,,0,46,0
394496,note_off,,,,,0,0,1,,,,0,67,0
394752,note_on,,,,,0,0,1,,,,0,58,49
394752,note_on,,,,,0,0,1,,,,0,70,49
394752,note_off,,,,,256,0,1,,,,0,39,0
394752,note_off,,,,,0,0,1,,,,0,58,0
394752,note_off,,,,,0,0,1,,,,0,67,0
394752,note_off,,,,,0,0,1,,,,0,70,0
394752,note_on,,,,,0,0,1,,,,0,39,49
394752,note_on,,,,,0,0,1,,,,0,67,49
395520,note_on,,,,,0,0,1,,,,0,72,49
395520,note_on,,,,,0,0,1,,,,0,68,49
395520,note_on,,,,,0,0,1,,,,0,60,49
395520,note_on,,,,,0,0,1,,,,0,44,49
395520,note_off,,,,,0,0,1,,,,0,70,0
395520,note_off,,,,,768,0,1,,,,0,39,0
395520,note_off,,,,,0,0,1,,,,0,67,0
395520,note_off,,,,,0,0,1,,,,0,58,0
395776,note_on,,,,,0,0,1,,,,0,70,49
395776,note_on,,,,,0,0,1,,,,0,58,49
395776,note_on,,,,,0,0,1,,,,0,39,49
395776,note_off,,,,,0,0,1,,,,0,72,0
395776,note_on,,,,,0,0,1,,,,0,67,49
395776,note_off,,,,,0,0,1,,,,0,60,0
395776,note_off,,,,,256,0,1,,,,0,44,0
395776,note_off,,,,,0,0,1,,,,0,68,0
396288,note_on,,,,,0,0,1,,,,0,60,49
396288,note_on,,,,,0,0,1,,,,0,72,49
396288,note_off,,,,,512,0,1,,,,0,39,0
396288,note_off,,,,,0,0,1,,,,0,58,0
396288,note_off,,,,,0,0,1,,,,0,67,0
396288,note_off,,,,,0,0,1,,,,0,70,0
396288,note_on,,,,,0,0,1,,,,0,44,49
396288,note_on,,,,,0,0,1,,,,0,68,49
397568,note_off,,,,,1280,0,1,,,,0,51,0
397568,note_on,,,,,0,0,1,,,,0,51,49
397824,note_on,,,,,0,0,1,,,,0,51,49
397824,note_off,,,,,256,0,1,,,,0,51,0
399104,note_off,,,,,1280,0,1,,,,0,44,0
399104,note_off,,,,,0,0,1,,,,0,60,0
399104,note_off,,,,,0,0,1,,,,0,68,0
399104,note_off,,,,,0,0,1,,,,0,72,0
399104,note_on,,,,,0,0,1,,,,0,48,49
399104,note_on,,,,,0,0,1,,,,0,63,49
399360,note_on,,,,,0,0,1,,,,0,48,49
399360,note_on,,,,,0,0,1,,,,0,63,49
399360,note_off,,,,,0,0,1,,,,0,63,0
399360,note_off,,,,,256,0,1,,,,0,48,0
400128,note_off,,,,,768,0,1,,,,0,48,0
400128,note_off,,,,,0,0,1,,,,0,63,0
400128,note_on,,,,,0,0,1,,,,0,49,49
400128,note_on,,,,,0,0,1,,,,0,65,49
400384,note_on,,,,,0,0,1,,,,0,63,49
400384,note_off,,,,,256,0,1,,,,0,49,0
400384,note_off,,,,,0,0,1,,,,0,65,0
400384,note_on,,,,,0,0,1,,,,0,48,49
400896,note_on,,,,,0,0,1,,,,0,49,49
400896,note_on,,,,,0,0,1,,,,0,65,49
400896,note_off,,,,,0,0,1,,,,0,63,0
400896,note_off,,,,,512,0,1,,,,0,48,0
401664,note_off,,,,,768,0,1,,,,0,49,0
401664,note_off,,,,,0,0,1,,,,0,65,0
401664,note_on,,,,,0,0,1,,,,0,48,49
401664,note_on,,,,,0,0,1,,,,0,63,49
401920,note_on,,,,,0,0,1,,,,0,48,49
401920,note_off,,,,,256,0,1,,,,0,48,0
401920,note_off,,,,,0,0,1,,,,0,63,0
401920,note_off,,,,,0,0,1,,,,0,51,0
401920,note_on,,,,,0,0,1,,,,0,63,49
402432,note_off,,,,,512,0,1,,,,0,48,0
402432,note_off,,,,,0,0,1,,,,0,63,0
402432,note_on,,,,,0,0,1,,,,0,51,49
402432,note_on,,,,,0,0,1,,,,0,60,49
402432,note_on,,,,,0,0,1,,,,0,68,49
403968,note_on,,,,,0,0,1,,,,0,67,49
403968,note_on,,,,,0,0,1,,,,0,61,49
403968,note_on,,,,,0,0,1,,,,0,70,49
403968,note_on,,,,,0,0,1,,,,0,39,49
403968,note_on,,,,,0,0,1,,,,0,51,49
403968,note_off,,,,,0,0,1,,,,0,60,0
403968,note_off,,,,,1536,0,1,,,,0,51,0
403968,note_off,,,,,0,0,1,,,,0,68,0
405248,note_on,,,,,0,0,1,,,,0,51,49
405248,note_off,,,,,1280,0,1,,,,0,39,0
405248,note_off,,,,,0,0,1,,,,0,51,0
405248,note_off,,,,,0,0,1,,,,0,61,0
405248,note_off,,,,,0,0,1,,,,0,67,0
405248,note_off,,,,,0,0,1,,,,0,70,0
405248,note_on,,,,,0,0,1,,,,0,44,49
405248,note_on,,,,,0,0,1,,,,0,60,49
405248,note_on,,,,,0,0,1,,,,0,68,49
405504,note_on,,,,,0,0,1,,,,0,51,49
405504,note_on,,,,,0,0,1,,,,0,44,49
405504,note_off,,,,,0,0,1,,,,0,68,0
405504,note_on,,,,,0,0,1,,,,0,60,49
405504,note_off,,,,,0,0,1,,,,0,51,0
405504,note_off,,,,,256,0,1,,,,0,44,0
405504,note_off,,,,,0,0,1,,,,0,60,0
405504,note_on,,,,,0,0,1,,,,0,68,49
406784,note_on,,,,,1280,0,1,,,,0,75,49
407040,note_off,,,,,0,0,1,,,,0,60,0
407040,note_off,,,,,0,0,1,,,,0,68,0
407040,note_off,,,,,0,0,1,,,,0,51,0
407040,note_on,,,,,0,0,1,,,,0,75,61
407040,note_off,,,,,256,0,1,,,,0,75,0
407040,note_off,,,,,0,0,1,,,,0,44,0
408320,note_on,,,,,1280,0,1,,,,0,51,49
408320,note_on,,,,,0,0,1,,,,0,60,49
408320,note_on,,,,,0,0,1,,,,0,63,49
408320,note_on,,,,,0,0,1,,,,0,68,49
408576,note_on,,,,,0,0,1,,,,0,68,49
408576,note_on,,,,,0,0,1,,,,0,63,49
408576,note_on,,,,,0,0,1,,,,0,60,49
408576,note_on,,,,,0,0,1,,,,0,51,49
408576,note_off,,,,,0,0,1,,,,0,60,0
408576,note_off,,,,,0,0,1,,,,0,63,0
408576,note_off,,,,,256,0,1,,,,0,51,0
408576,note_off,,,,,0,0,1,,,,0,68,0
409344,note_on,,,,,0,0,1,,,,0,51,49
409344,note_on,,,,,0,0,1,,,,0,65,49
409344,note_on,,,,,0,0,1,,,,0,61,49
409344,note_off,,,,,0,0,1,,,,0,68,0
409344,note_on,,,,,0,0,1,,,,0,70,49
409344,note_off,,,,,0,0,1,,,,0,60,0
409344,note_off,,,,,768,0,1,,,,0,51,0
409344,note_off,,,,,0,0,1,,,,0,63,0
409600,note_off,,,,,256,0,1,,,,0,51,0
409600,note_off,,,,,0,0,1,,,,0,61,0
409600,note_off,,,,,0,0,1,,,,0,65,0
409600,note_off,,,,,0,0,1,,,,0,70,0
409600,note_on,,,,,0,0,1,,,,0,51,49
409600,note_on,,,,,0,0,1,,,,0,60,49
409600,note_on,,,,,0,0,1,,,,0,63,49
409600,note_on,,,,,0,0,1,,,,0,68,49
410112,note_on,,,,,0,0,1,,,,0,70,49
410112,note_on,,,,,0,0,1,,,,0,65,49
410112,note_on,,,,,0,0,1,,,,0,61,49
410112,note_on,,,,,0,0,1,,,,0,51,49
410112,note_off,,,,,0,0,1,,,,0,60,0
410112,note_off,,,,,0,0,1,,,,0,63,0
410112,note_off,,,,,512,0,1,,,,0,51,0
410112,note_off,,,,,0,0,1,,,,0,68,0
411392,note_off,,,,,1280,0,1,,,,0,75,0
411392,note_on,,,,,0,0,1,,,,0,75,49
411648,note_off,,,,,256,0,1,,,,0,75,0
411648,note_on,,,,,0,0,1,,,,0,75,49
412928,note_on,,,,,0,0,1,,,,0,58,49
412928,note_on,,,,,0,0,1,,,,0,67,49
412928,note_on,,,,,0,0,1,,,,0,61,49
412928,note_on,,,,,0,0,1,,,,0,51,49
412928,note_off,,,,,0,0,1,,,,0,61,0
412928,note_off,,,,,0,0,1,,,,0,65,0
412928,note_off,,,,,0,0,1,,,,0,70,0
412928,note_off,,,,,1280,0,1,,,,0,51,0
413184,note_on,,,,,0,0,1,,,,0,61,49
413184,note_on,,,,,0,0,1,,,,0,58,49
413184,note_on,,,,,0,0,1,,,,0,51,49
413184,note_off,,,,,0,0,1,,,,0,67,0
413184,note_on,,,,,0,0,1,,,,0,67,49
413184,note_off,,,,,0,0,1,,,,0,58,0
413184,note_off,,,,,256,0,1,,,,0,51,0
413184,note_off,,,,,0,0,1,,,,0,61,0
413952,note_off,,,,,768,0,1,,,,0,51,0
413952,note_off,,,,,0,0,1,,,,0,58,0
413952,note_off,,,,,0,0,1,,,,0,61,0
413952,note_off,,,,,0,0,1,,,,0,67,0
413952,note_on,,,,,0,0,1,,,,0,51,49
413952,note_on,,,,,0,0,1,,,,0,60,49
413952,note_on,,,,,0,0,1,,,,0,63,49
413952,note_on,,,,,0,0,1,,,,0,68,49
414208,note_on,,,,,0,0,1,,,,0,65,49
414208,note_on,,,,,0,0,1,,,,0,70,49
414208,note_on,,,,,0,0,1,,,,0,61,49
414208,note_on,,,,,0,0,1,,,,0,51,49
414208,note_off,,,,,0,0,1,,,,0,60,0
414208,note_off,,,,,0,0,1,,,,0,63,0
414208,note_off,,,,,256,0,1,,,,0,51,0
414208,note_off,,,,,0,0,1,,,,0,68,0
414720,note_on,,,,,0,0,1,,,,0,68,49
414720,note_on,,,,,0,0,1,,,,0,63,49
414720,note_on,,,,,0,0,1,,,,0,51,49
414720,note_off,,,,,0,0,1,,,,0,70,0
414720,note_on,,,,,0,0,1,,,,0,60,49
414720,note_off,,,,,0,0,1,,,,0,61,0
414720,note_off,,,,,512,0,1,,,,0,51,0
414720,note_off,,,,,0,0,1,,,,0,65,0
416000,note_off,,,,,1280,0,1,,,,0,75,0
416000,note_on,,,,,0,0,1,,,,0,75,49
416256,note_off,,,,,256,0,1,,,,0,75,0
416256,note_on,,,,,0,0,1,,,,0,75,49
417536,note_on,,,,,0,0,1,,,,0,51,49
417536,note_on,,,,,0,0,1,,,,0,60,49
417536,note_on,,,,,0,0,1,,,,0,63,49
417536,note_off,,,,,0,0,1,,,,0,68,0
417536,note_off,,,,,1280,0,1,,,,0,51,0
417536,note_off,,,,,0,0,1,,,,0,60,0
417536,note_off,,,,,0,0,1,,,,0,63,0
417792,note_off,,,,,256,0,1,,,,0,51,0
417792,note_off,,,,,0,0,1,,,,0,60,0
417792,note_off,,,,,0,0,1,,,,0,63,0
417792,note_on,,,,,0,0,1,,,,0,51,49
417792,note_on,,,,,0,0,1,,,,0,60,49
417792,note_on,,,,,0,0,1,,,,0,63,49
418560,note_on,,,,,0,0,1,,,,0,65,49
418560,note_on,,,,,0,0,1,,,,0,61,49
418560,note_on,,,,,0,0,1,,,,0,51,49
418560,note_off,,,,,0,0,1,,,,0,63,0
418560,note_off,,,,,0,0,1,,,,0,60,0
418560,note_off,,,,,768,0,1,,,,0,51,0
418816,note_off,,,,,256,0,1,,,,0,51,0
418816,note_off,,,,,0,0,1,,,,0,61,0
418816,note_off,,,,,0,0,1,,,,0,65,0
418816,note_on,,,,,0,0,1,,,,0,51,49
418816,note_on,,,,,0,0,1,,,,0,60,49
418816,note_on,,,,,0,0,1,,,,0,63,49
419328,note_on,,,,,0,0,1,,,,0,65,61
419328,note_on,,,,,0,0,1,,,,0,68,61
419328,note_on,,,,,0,0,1,,,,0,61,61
419328,note_on,,,,,0,0,1,,,,0,51,61
419328,note_off,,,,,512,0,1,,,,0,51,0
419328,note_off,,,,,0,0,1,,,,0,60,0
419328,note_off,,,,,0,0,1,,,,0,63,0
420096,note_on,,,,,0,0,1,,,,0,60,49
420096,note_on,,,,,0,0,1,,,,0,51,49
420096,note_off,,,,,0,0,1,,,,0,68,0
420096,note_on,,,,,0,0,1,,,,0,63,49
420096,note_off,,,,,0,0,1,,,,0,61,0
420096,note_off,,,,,768,0,1,,,,0,51,0
420096,note_off,,,,,0,0,1,,,,0,65,0
420352,note_off,,,,,256,0,1,,,,0,51,0
420352,note_off,,,,,0,0,1,,,,0,60,0
420352,note_off,,,,,0,0,1,,,,0,63,0
420352,note_on,,,,,0,0,1,,,,0,51,49
420352,note_on,,,,,0,0,1,,,,0,60,49
420352,note_on,,,,,0,0,1,,,,0,63,49
420864,note_off,,,,,0,0,1,,,,0,63,0
420864,note_off,,,,,0,0,1,,,,0,60,0
420864,note_off,,,,,0,0,1,,,,0,51,0
420864,note_on,,,,,0,0,1,,,,0,63,49
420864,note_on,,,,,0,0,1,,,,0,72,49
420864,note_on,,,,,0,0,1,,,,0,75,49
420864,note_on,,,,,0,0,1,,,,0,51,49
420864,note_off,,,,,512,0,1,,,,0,75,0
422400,note_on,,,,,0,0,1,,,,0,79,49
422400,note_on,,,,,0,0,1,,,,0,63,49
422400,note_on,,,,,0,0,1,,,,0,61,49
422400,note_on,,,,,0,0,1,,,,0,51,49
422400,note_on,,,,,0,0,1,,,,0,70,49
422400,note_on,,,,,0,0,1,,,,0,75,49
422400,note_off,,,,,0,0,1,,,,0,51,0
422400,note_off,,,,,0,0,1,,,,0,75,0
422400,note_off,,,,,1536,0,1,,,,0,72,0
422400,note_off,,,,,0,0,1,,,,0,63,0
423680,note_on,,,,,0,0,1,,,,0,68,49
423680,note_on,,,,,0,0,1,,,,0,60,49
423680,note_on,,,,,0,0,1,,,,0,56,49
423680,note_on,,,,,0,0,1,,,,0,80,49
423680,note_on,,,,,0,0,1,,,,0,75,49
423680,note_on,,,,,0,0,1,,,,0,63,49
423680,note_off,,,,,0,0,1,,,,0,63,0
423680,note_off,,,,,0,0,1,,,,0,51,0
423680,note_off,,,,,0,0,1,,,,0,79,0
423680,note_off,,,,,0,0,1,,,,0,75,0
423680,note_off,,,,,1280,0,1,,,,0,70,0
423680,note_off,,,,,0,0,1,,,,0,61,0
423936,note_on,,,,,0,0,1,,,,0,63,49
423936,note_on,,,,,0,0,1,,,,0,60,49
423936,note_on,,,,,0,0,1,,,,0,56,49
423936,note_on,,,,,0,0,1,,,,0,80,49
423936,note_on,,,,,0,0,1,,,,0,75,49
423936,note_on,,,,,0,0,1,,,,0,68,49
423936,note_off,,,,,0,0,1,,,,0,56,0
423936,note_off,,,,,0,0,1,,,,0,60,0
423936,note_off,,,,,0,0,1,,,,0,80,0
423936,note_off,,,,,0,0,1,,,,0,75,0
423936,note_off,,,,,256,0,1,,,,0,68,0
423936,note_off,,,,,0,0,1,,,,0,63,0
428544,note_off,,,,,0,0,1,,,,0,56,0
428544,note_off,,,,,0,0,1,,,,0,60,0
428544,note_off,,,,,0,0,1,,,,0,80,0
428544,note_off,,,,,0,0,1,,,,0,63,0
428544,note_off,,,,,4608,0,1,,,,0,68,0
428544,end_of_track,,,,,82944,1,0,,,,,,
428544,note_off,,,,,0,0,1,,,,0,75,0
428544,end_of_track,,,,,0,1,1,,,,,,
