tick,type,time,meta,track,tempo,numerator,denominator,clocks_per_click,notated_32nd_notes_per_beat,key,port,channel,control,value,program,note,velocity
0,track_name,0,1,0,,,,,,,,,,,,,
0,control_change,0,0,3,,,,,,,,2,7,127,,,
0,control_change,0,0,3,,,,,,,,2,10,39,,,
0,control_change,0,0,3,,,,,,,,2,91,127,,,
0,program_change,0,0,3,,,,,,,,2,,,60,,
0,program_change,0,0,4,,,,,,,,3,,,48,,
0,control_change,0,0,4,,,,,,,,3,91,124,,,
0,control_change,0,0,4,,,,,,,,3,10,0,,,
0,control_change,0,0,4,,,,,,,,3,7,127,,,
0,channel_prefix,0,1,4,,,,,,,,3,,,,,
0,midi_port,0,1,4,,,,,,,0,,,,,,
0,channel_prefix,0,1,3,,,,,,,,2,,,,,
0,track_name,0,1,4,,,,,,,,,,,,,
0,channel_prefix,0,1,8,,,,,,,,7,,,,,
0,control_change,0,0,8,,,,,,,,7,7,127,,,
0,control_change,0,0,8,,,,,,,,7,10,127,,,
0,control_change,0,0,8,,,,,,,,7,91,127,,,
0,program_change,0,0,8,,,,,,,,7,,,48,,
0,program_change,0,0,1,,,,,,,,0,,,71,,
0,control_change,0,0,1,,,,,,,,0,91,127,,,
0,control_change,0,0,1,,,,,,,,0,10,89,,,
0,control_change,0,0,1,,,,,,,,0,7,127,,,
0,channel_prefix,0,1,1,,,,,,,,0,,,,,
0,midi_port,0,1,8,,,,,,,0,,,,,,
0,track_name,0,1,3,,,,,,,,,,,,,
0,program_change,0,0,2,,,,,,,,1,,,70,,
0,control_change,0,0,2,,,,,,,,1,91,127,,,
0,program_change,0,0,6,,,,,,,,5,,,48,,
0,control_change,0,0,6,,,,,,,,5,91,123,,,
0,control_change,0,0,6,,,,,,,,5,10,64,,,
0,control_change,0,0,6,,,,,,,,5,7,127,,,
0,channel_prefix,0,1,6,,,,,,,,5,,,,,
0,midi_port,0,1,6,,,,,,,0,,,,,,
0,program_change,0,0,5,,,,,,,,4,,,48,,
0,control_change,0,0,5,,,,,,,,4,91,124,,,
0,control_change,0,0,5,,,,,,,,4,10,32,,,
0,control_change,0,0,5,,,,,,,,4,7,127,,,
0,channel_prefix,0,1,5,,,,,,,,4,,,,,
0,midi_port,0,1,5,,,,,,,0,,,,,,
0,midi_port,0,1,7,,,,,,,0,,,,,,
0,channel_prefix,0,1,7,,,,,,,,6,,,,,
0,control_change,0,0,7,,,,,,,,6,7,127,,,
0,control_change,0,0,7,,,,,,,,6,10,96,,,
0,control_change,0,0,7,,,,,,,,6,91,127,,,
0,program_change,0,0,7,,,,,,,,6,,,48,,
0,track_name,0,1,2,,,,,,,,,,,,,
0,midi_port,0,1,2,,,,,,,0,,,,,,
0,channel_prefix,0,1,2,,,,,,,,1,,,,,
0,control_change,0,0,2,,,,,,,,1,7,127,,,
0,control_change,0,0,2,,,,,,,,1,10,64,,,
0,midi_port,0,1,1,,,,,,,0,,,,,,
0,track_name,0,1,1,,,,,,,,,,,,,
0,midi_port,0,1,3,,,,,,,0,,,,,,
0,copyright,0,1,0,,,,,,,,,,,,,
0,set_tempo,0,1,0,500000,,,,,,,,,,,,
0,time_signature,0,1,0,,3,4,24,8,,,,,,,,
0,key_signature,0,1,0,,,,,,C,,,,,,,
360,set_tempo,360,1,0,229007,,,,,,,,,,,,
360,note_on,360,0,7,,,,,,,,6,,,,48,45
360,note_on,360,0,4,,,,,,,,3,,,,60,45
360,program_change,360,0,6,,,,,,,,5,,,49,,
360,note_on,0,0,6,,,,,,,,5,,,,60,45
360,note_on,360,0,8,,,,,,,,7,,,,36,45
520,note_on,0,0,7,,,,,,,,6,,,,50,45
520,note_off,160,0,8,,,,,,,,7,,,,36,64
520,note_on,0,0,6,,,,,,,,5,,,,62,45
520,note_off,160,0,6,,,,,,,,5,,,,60,64
520,note_on,0,0,8,,,,,,,,7,,,,38,45
520,note_off,160,0,7,,,,,,,,6,,,,48,64
520,note_on,0,0,4,,,,,,,,3,,,,62,45
520,note_off,160,0,4,,,,,,,,3,,,,60,64
680,note_off,160,0,6,,,,,,,,5,,,,62,64
680,note_on,0,0,6,,,,,,,,5,,,,64,45
680,note_off,160,0,7,,,,,,,,6,,,,50,64
680,note_on,0,0,7,,,,,,,,6,,,,52,45
680,note_on,0,0,4,,,,,,,,3,,,,64,45
680,note_off,160,0,8,,,,,,,,7,,,,38,64
680,note_off,160,0,4,,,,,,,,3,,,,62,64
680,note_on,0,0,8,,,,,,,,7,,,,40,45
840,note_off,160,0,7,,,,,,,,6,,,,52,64
840,note_on,0,0,8,,,,,,,,7,,,,41,45
840,note_on,0,0,7,,,,,,,,6,,,,53,45
840,note_off,160,0,8,,,,,,,,7,,,,40,64
840,set_tempo,480,1,0,229007,,,,,,,,,,,,
840,note_on,0,0,4,,,,,,,,3,,,,65,45
840,note_off,160,0,6,,,,,,,,5,,,,64,64
840,program_change,0,0,6,,,,,,,,5,,,50,,
840,note_on,0,0,6,,,,,,,,5,,,,65,45
840,note_off,160,0,4,,,,,,,,3,,,,64,64
1345,note_off,505,0,8,,,,,,,,7,,,,41,64
1345,note_off,505,0,6,,,,,,,,5,,,,65,64
1345,note_off,505,0,4,,,,,,,,3,,,,65,64
1345,note_off,505,0,7,,,,,,,,6,,,,53,64
1560,note_on,215,0,7,,,,,,,,6,,,,53,45
1560,note_on,215,0,4,,,,,,,,3,,,,65,45
1560,note_on,215,0,8,,,,,,,,7,,,,41,45
1560,note_on,215,0,6,,,,,,,,5,,,,65,45
1640,note_off,80,0,4,,,,,,,,3,,,,65,64
1640,note_off,80,0,6,,,,,,,,5,,,,65,64
1640,note_off,80,0,7,,,,,,,,6,,,,53,64
1640,note_off,80,0,8,,,,,,,,7,,,,41,64
1800,note_on,160,0,6,,,,,,,,5,,,,67,45
1800,note_on,160,0,8,,,,,,,,7,,,,43,45
1800,note_on,160,0,4,,,,,,,,3,,,,67,45
1800,note_on,160,0,7,,,,,,,,6,,,,55,45
2040,note_off,240,0,4,,,,,,,,3,,,,67,64
2040,note_off,240,0,8,,,,,,,,7,,,,43,64
2040,note_off,240,0,6,,,,,,,,5,,,,67,64
2040,note_off,240,0,7,,,,,,,,6,,,,55,64
2280,note_on,240,0,7,,,,,,,,6,,,,53,45
2280,note_on,240,0,8,,,,,,,,7,,,,41,45
2280,note_on,240,0,6,,,,,,,,5,,,,65,45
2280,note_on,240,0,4,,,,,,,,3,,,,65,45
2785,note_off,505,0,7,,,,,,,,6,,,,53,64
2785,note_off,505,0,4,,,,,,,,3,,,,65,64
2785,note_off,505,0,8,,,,,,,,7,,,,41,64
2815,note_off,535,0,6,,,,,,,,5,,,,65,64
3000,note_on,215,0,7,,,,,,,,6,,,,53,45
3000,note_on,215,0,4,,,,,,,,3,,,,65,45
3000,note_on,185,0,6,,,,,,,,5,,,,65,45
3000,note_on,215,0,8,,,,,,,,7,,,,41,45
3080,note_off,80,0,6,,,,,,,,5,,,,65,64
3080,note_off,80,0,8,,,,,,,,7,,,,41,64
3080,note_off,80,0,4,,,,,,,,3,,,,65,64
3080,note_off,80,0,7,,,,,,,,6,,,,53,64
3240,note_on,160,0,6,,,,,,,,5,,,,64,45
3240,note_on,160,0,8,,,,,,,,7,,,,40,45
3240,note_on,160,0,4,,,,,,,,3,,,,64,45
3240,note_on,160,0,7,,,,,,,,6,,,,52,45
3480,note_off,240,0,7,,,,,,,,6,,,,52,64
3480,note_off,240,0,6,,,,,,,,5,,,,64,64
3480,note_off,240,0,8,,,,,,,,7,,,,40,64
3480,note_off,240,0,4,,,,,,,,3,,,,64,64
3720,note_on,240,0,7,,,,,,,,6,,,,50,45
3720,note_on,240,0,6,,,,,,,,5,,,,62,45
3720,note_on,240,0,4,,,,,,,,3,,,,62,45
3720,note_on,240,0,8,,,,,,,,7,,,,38,45
3840,note_off,120,0,7,,,,,,,,6,,,,50,64
3840,note_off,120,0,6,,,,,,,,5,,,,62,64
3840,note_off,120,0,4,,,,,,,,3,,,,62,64
3840,note_off,120,0,8,,,,,,,,7,,,,38,64
4200,note_on,360,0,6,,,,,,,,5,,,,62,45
4200,note_on,360,0,8,,,,,,,,7,,,,38,45
4200,note_on,360,0,7,,,,,,,,6,,,,50,45
4200,note_on,360,0,4,,,,,,,,3,,,,62,45
4320,note_off,120,0,8,,,,,,,,7,,,,38,64
4320,note_off,120,0,4,,,,,,,,3,,,,62,64
4320,note_off,120,0,7,,,,,,,,6,,,,50,64
4320,note_off,120,0,6,,,,,,,,5,,,,62,64
4680,note_on,360,0,4,,,,,,,,3,,,,57,45
4680,note_on,360,0,7,,,,,,,,6,,,,45,45
4680,note_on,360,0,6,,,,,,,,5,,,,57,45
4680,note_on,360,0,8,,,,,,,,7,,,,33,45
4800,note_off,120,0,7,,,,,,,,6,,,,45,64
4800,note_off,120,0,6,,,,,,,,5,,,,57,64
4800,note_off,120,0,4,,,,,,,,3,,,,57,64
4800,note_off,120,0,8,,,,,,,,7,,,,33,64
5160,note_on,360,0,4,,,,,,,,3,,,,62,45
5160,note_on,360,0,8,,,,,,,,7,,,,38,45
5160,note_on,360,0,7,,,,,,,,6,,,,50,45
5160,note_on,360,0,6,,,,,,,,5,,,,62,45
5280,note_off,120,0,8,,,,,,,,7,,,,38,64
5280,note_off,120,0,7,,,,,,,,6,,,,50,64
5280,note_off,120,0,4,,,,,,,,3,,,,62,64
5280,note_off,120,0,6,,,,,,,,5,,,,62,64
5940,note_on,660,0,8,,,,,,,,7,,,,36,75
5940,note_on,660,0,4,,,,,,,,3,,,,72,75
5940,note_on,5940,0,5,,,,,,,,4,,,,60,75
5940,note_on,660,0,7,,,,,,,,6,,,,48,75
6180,note_off,240,0,8,,,,,,,,7,,,,36,64
6180,note_off,240,0,7,,,,,,,,6,,,,48,64
6180,note_on,0,0,8,,,,,,,,7,,,,38,75
6180,note_off,240,0,5,,,,,,,,4,,,,60,64
6180,note_on,0,0,7,,,,,,,,6,,,,50,75
6180,note_on,0,0,4,,,,,,,,3,,,,74,75
6180,note_off,240,0,4,,,,,,,,3,,,,72,64
6180,note_on,0,0,5,,,,,,,,4,,,,62,75
6420,note_off,240,0,5,,,,,,,,4,,,,62,64
6420,note_on,0,0,7,,,,,,,,6,,,,52,75
6420,note_off,240,0,7,,,,,,,,6,,,,50,64
6420,note_off,240,0,4,,,,,,,,3,,,,74,64
6420,note_on,0,0,4,,,,,,,,3,,,,76,75
6420,note_on,0,0,5,,,,,,,,4,,,,64,75
6420,note_off,240,0,8,,,,,,,,7,,,,38,64
6420,note_on,0,0,8,,,,,,,,7,,,,40,75
6655,note_off,235,0,7,,,,,,,,6,,,,52,64
6655,note_off,235,0,8,,,,,,,,7,,,,40,64
6655,note_off,235,0,4,,,,,,,,3,,,,76,64
6655,note_off,235,0,5,,,,,,,,4,,,,64,64
6660,note_on,5,0,4,,,,,,,,3,,,,69,75
6660,note_on,5,0,7,,,,,,,,6,,,,53,75
6660,note_on,0,0,6,,,,,,,,5,,,,60,75
6660,note_on,0,0,4,,,,,,,,3,,,,77,75
6660,note_on,6660,0,2,,,,,,,,1,,,,57,75
6660,program_change,1380,0,6,,,,,,,,5,,,48,,
6660,note_on,6660,0,3,,,,,,,,2,,,,65,75
6660,note_on,0,0,5,,,,,,,,4,,,,65,75
6660,note_on,5,0,5,,,,,,,,4,,,,57,75
6660,note_on,5,0,8,,,,,,,,7,,,,41,75
6660,note_on,6660,0,1,,,,,,,,0,,,,72,75
7165,note_off,505,0,6,,,,,,,,5,,,,60,64
7165,note_off,505,0,8,,,,,,,,7,,,,41,64
7165,note_off,505,0,7,,,,,,,,6,,,,53,64
7165,note_off,505,0,4,,,,,,,,3,,,,77,64
7165,note_off,505,0,2,,,,,,,,1,,,,57,64
7165,note_off,505,0,3,,,,,,,,2,,,,65,64
7165,note_off,505,0,1,,,,,,,,0,,,,72,64
7165,note_off,0,0,5,,,,,,,,4,,,,57,64
7165,note_off,505,0,5,,,,,,,,4,,,,65,64
7165,note_off,0,0,4,,,,,,,,3,,,,69,64
7380,note_on,0,0,5,,,,,,,,4,,,,65,75
7380,note_on,215,0,5,,,,,,,,4,,,,57,75
7380,note_on,0,0,4,,,,,,,,3,,,,77,75
7380,note_on,215,0,4,,,,,,,,3,,,,69,75
7380,note_on,215,0,8,,,,,,,,7,,,,41,75
7380,note_on,215,0,1,,,,,,,,0,,,,72,75
7380,note_on,215,0,6,,,,,,,,5,,,,60,75
7380,note_on,215,0,2,,,,,,,,1,,,,57,75
7380,note_on,215,0,3,,,,,,,,2,,,,65,75
7380,note_on,215,0,7,,,,,,,,6,,,,53,75
7460,note_off,0,0,4,,,,,,,,3,,,,69,64
7460,note_off,80,0,4,,,,,,,,3,,,,77,64
7460,note_off,0,0,5,,,,,,,,4,,,,57,64
7460,note_off,80,0,5,,,,,,,,4,,,,65,64
7460,note_off,80,0,6,,,,,,,,5,,,,60,64
7460,note_off,80,0,1,,,,,,,,0,,,,72,64
7460,note_off,80,0,8,,,,,,,,7,,,,41,64
7460,note_off,80,0,2,,,,,,,,1,,,,57,64
7460,note_off,80,0,7,,,,,,,,6,,,,53,64
7615,note_off,235,0,3,,,,,,,,2,,,,65,64
7620,note_on,160,0,4,,,,,,,,3,,,,72,75
7620,note_on,160,0,2,,,,,,,,1,,,,60,75
7620,note_on,5,0,3,,,,,,,,2,,,,67,75
7620,note_on,0,0,5,,,,,,,,4,,,,67,75
7620,note_on,160,0,5,,,,,,,,4,,,,60,75
7620,note_on,160,0,6,,,,,,,,5,,,,64,75
7620,note_on,160,0,1,,,,,,,,0,,,,76,75
7620,note_on,160,0,8,,,,,,,,7,,,,36,75
7620,note_on,0,0,4,,,,,,,,3,,,,79,75
7620,note_on,160,0,7,,,,,,,,6,,,,48,75
7860,note_off,240,0,6,,,,,,,,5,,,,64,64
7860,note_off,240,0,2,,,,,,,,1,,,,60,64
7860,note_off,240,0,7,,,,,,,,6,,,,48,64
7860,note_off,240,0,3,,,,,,,,2,,,,67,64
7860,note_off,240,0,4,,,,,,,,3,,,,79,64
7860,note_off,0,0,4,,,,,,,,3,,,,72,64
7860,note_off,240,0,8,,,,,,,,7,,,,36,64
7860,note_off,240,0,1,,,,,,,,0,,,,76,64
7860,note_off,240,0,5,,,,,,,,4,,,,67,64
7860,note_off,0,0,5,,,,,,,,4,,,,60,64
8100,note_on,240,0,4,,,,,,,,3,,,,72,75
8100,note_on,0,0,4,,,,,,,,3,,,,81,75
8100,note_on,240,0,6,,,,,,,,5,,,,65,75
8100,note_on,240,0,1,,,,,,,,0,,,,77,75
8100,note_on,240,0,8,,,,,,,,7,,,,41,75
8100,note_on,240,0,2,,,,,,,,1,,,,65,75
8100,note_on,0,0,5,,,,,,,,4,,,,69,75
8100,note_on,240,0,3,,,,,,,,2,,,,69,75
8100,note_on,240,0,7,,,,,,,,6,,,,53,75
8100,note_on,240,0,5,,,,,,,,4,,,,60,75
8605,note_off,505,0,3,,,,,,,,2,,,,69,64
8605,note_off,505,0,4,,,,,,,,3,,,,81,64
8605,note_off,505,0,6,,,,,,,,5,,,,65,64
8605,note_off,505,0,7,,,,,,,,6,,,,53,64
8605,note_off,505,0,1,,,,,,,,0,,,,77,64
8605,note_off,505,0,2,,,,,,,,1,,,,65,64
8605,note_off,0,0,5,,,,,,,,4,,,,60,64
8605,note_off,505,0,5,,,,,,,,4,,,,69,64
8605,note_off,0,0,4,,,,,,,,3,,,,72,64
8605,note_off,505,0,8,,,,,,,,7,,,,41,64
8820,note_on,215,0,2,,,,,,,,1,,,,65,75
8820,note_on,215,0,7,,,,,,,,6,,,,53,75
8820,note_on,0,0,5,,,,,,,,4,,,,69,75
8820,note_on,215,0,5,,,,,,,,4,,,,60,75
8820,note_on,215,0,6,,,,,,,,5,,,,65,75
8820,note_on,0,0,4,,,,,,,,3,,,,81,75
8820,note_on,215,0,3,,,,,,,,2,,,,69,75
8820,note_on,215,0,8,,,,,,,,7,,,,41,75
8820,note_on,215,0,1,,,,,,,,0,,,,77,75
8820,note_on,215,0,4,,,,,,,,3,,,,72,75
8900,note_off,80,0,6,,,,,,,,5,,,,65,64
8900,note_off,80,0,7,,,,,,,,6,,,,53,64
8900,note_off,0,0,4,,,,,,,,3,,,,72,64
8900,note_off,80,0,4,,,,,,,,3,,,,81,64
8900,note_off,80,0,2,,,,,,,,1,,,,65,64
8900,note_off,80,0,3,,,,,,,,2,,,,69,64
8900,note_off,80,0,1,,,,,,,,0,,,,77,64
8900,note_off,80,0,8,,,,,,,,7,,,,41,64
8900,note_off,80,0,5,,,,,,,,4,,,,69,64
8900,note_off,0,0,5,,,,,,,,4,,,,60,64
9060,note_on,160,0,4,,,,,,,,3,,,,74,75
9060,note_on,0,0,4,,,,,,,,3,,,,82,75
9060,note_on,160,0,5,,,,,,,,4,,,,62,75
9060,note_on,160,0,7,,,,,,,,6,,,,46,75
9060,note_on,160,0,6,,,,,,,,5,,,,65,75
9060,note_on,0,0,5,,,,,,,,4,,,,70,75
9060,note_on,160,0,1,,,,,,,,0,,,,77,75
9060,note_on,160,0,2,,,,,,,,1,,,,62,75
9060,note_on,160,0,8,,,,,,,,7,,,,34,75
9060,note_on,160,0,3,,,,,,,,2,,,,70,75
9300,note_off,240,0,1,,,,,,,,0,,,,77,64
9300,note_off,240,0,2,,,,,,,,1,,,,62,64
9300,note_off,0,0,5,,,,,,,,4,,,,62,64
9300,note_off,240,0,5,,,,,,,,4,,,,70,64
9300,note_off,0,0,4,,,,,,,,3,,,,74,64
9300,note_off,240,0,4,,,,,,,,3,,,,82,64
9300,note_off,240,0,7,,,,,,,,6,,,,46,64
9300,note_off,240,0,6,,,,,,,,5,,,,65,64
9300,note_off,240,0,3,,,,,,,,2,,,,70,64
9300,note_off,240,0,8,,,,,,,,7,,,,34,64
9540,note_on,240,0,3,,,,,,,,2,,,,69,75
9540,note_on,240,0,1,,,,,,,,0,,,,77,75
9540,note_on,240,0,5,,,,,,,,4,,,,60,75
9540,note_on,240,0,7,,,,,,,,6,,,,48,75
9540,note_on,240,0,4,,,,,,,,3,,,,72,75
9540,note_on,0,0,4,,,,,,,,3,,,,81,75
9540,note_on,240,0,8,,,,,,,,7,,,,36,75
9540,note_on,0,0,5,,,,,,,,4,,,,69,75
9540,note_on,240,0,2,,,,,,,,1,,,,65,75
9540,note_on,240,0,6,,,,,,,,5,,,,65,75
9660,note_off,120,0,6,,,,,,,,5,,,,65,64
9660,note_off,120,0,3,,,,,,,,2,,,,69,64
9660,note_off,120,0,4,,,,,,,,3,,,,81,64
9660,note_off,0,0,4,,,,,,,,3,,,,72,64
9660,note_off,0,0,5,,,,,,,,4,,,,60,64
9660,note_off,120,0,5,,,,,,,,4,,,,69,64
9660,note_off,120,0,2,,,,,,,,1,,,,65,64
9660,note_off,120,0,7,,,,,,,,6,,,,48,64
9660,note_off,120,0,1,,,,,,,,0,,,,77,64
9660,note_off,120,0,8,,,,,,,,7,,,,36,64
10020,note_on,360,0,4,,,,,,,,3,,,,72,75
10020,note_on,360,0,8,,,,,,,,7,,,,36,75
10020,note_on,360,0,6,,,,,,,,5,,,,65,75
10020,note_on,360,0,3,,,,,,,,2,,,,69,75
10020,note_on,0,0,4,,,,,,,,3,,,,81,75
10020,note_on,360,0,2,,,,,,,,1,,,,65,75
10020,note_on,360,0,5,,,,,,,,4,,,,60,75
10020,note_on,0,0,5,,,,,,,,4,,,,69,75
10020,note_on,360,0,7,,,,,,,,6,,,,48,75
10020,note_on,360,0,1,,,,,,,,0,,,,77,75
10140,note_off,120,0,2,,,,,,,,1,,,,65,64
10140,note_off,120,0,7,,,,,,,,6,,,,48,64
10140,note_off,120,0,1,,,,,,,,0,,,,77,64
10140,note_off,120,0,8,,,,,,,,7,,,,36,64
10140,note_off,120,0,6,,,,,,,,5,,,,65,64
10140,note_off,120,0,4,,,,,,,,3,,,,81,64
10140,note_off,0,0,4,,,,,,,,3,,,,72,64
10140,note_off,120,0,5,,,,,,,,4,,,,69,64
10140,note_off,0,0,5,,,,,,,,4,,,,60,64
10140,note_off,120,0,3,,,,,,,,2,,,,69,64
10500,note_on,360,0,2,,,,,,,,1,,,,60,75
10500,note_on,360,0,4,,,,,,,,3,,,,72,75
10500,note_on,0,0,4,,,,,,,,3,,,,79,75
10500,note_on,360,0,7,,,,,,,,6,,,,48,75
10500,note_on,360,0,5,,,,,,,,4,,,,60,75
10500,note_on,360,0,1,,,,,,,,0,,,,76,75
10500,note_on,360,0,6,,,,,,,,5,,,,64,75
10500,note_on,360,0,3,,,,,,,,2,,,,67,75
10500,note_on,0,0,5,,,,,,,,4,,,,67,75
10500,note_on,360,0,8,,,,,,,,7,,,,36,75
10620,note_off,120,0,3,,,,,,,,2,,,,67,64
10620,note_off,120,0,6,,,,,,,,5,,,,64,64
10620,note_off,0,0,5,,,,,,,,4,,,,60,64
10620,note_off,120,0,2,,,,,,,,1,,,,60,64
10620,note_off,120,0,8,,,,,,,,7,,,,36,64
10620,note_off,120,0,4,,,,,,,,3,,,,79,64
10620,note_off,0,0,4,,,,,,,,3,,,,72,64
10620,note_off,120,0,5,,,,,,,,4,,,,67,64
10620,note_off,120,0,7,,,,,,,,6,,,,48,64
10620,note_off,120,0,1,,,,,,,,0,,,,76,64
10980,note_on,360,0,5,,,,,,,,4,,,,57,75
10980,note_on,360,0,6,,,,,,,,5,,,,65,75
10980,note_on,360,0,7,,,,,,,,6,,,,53,75
10980,note_on,360,0,2,,,,,,,,1,,,,57,75
10980,note_on,360,0,3,,,,,,,,2,,,,65,75
10980,note_on,0,0,5,,,,,,,,4,,,,65,75
10980,note_on,0,0,4,,,,,,,,3,,,,77,75
10980,note_on,360,0,1,,,,,,,,0,,,,77,75
10980,note_on,360,0,8,,,,,,,,7,,,,41,75
10980,note_on,360,0,4,,,,,,,,3,,,,69,75
11100,note_off,120,0,5,,,,,,,,4,,,,65,64
11100,note_off,120,0,2,,,,,,,,1,,,,57,64
11100,note_off,120,0,1,,,,,,,,0,,,,77,64
11100,note_off,120,0,8,,,,,,,,7,,,,41,64
11100,note_off,120,0,4,,,,,,,,3,,,,77,64
11100,note_off,0,0,4,,,,,,,,3,,,,69,64
11100,note_off,120,0,3,,,,,,,,2,,,,65,64
11100,note_off,0,0,5,,,,,,,,4,,,,57,64
11100,note_off,120,0,6,,,,,,,,5,,,,65,64
11100,note_off,120,0,7,,,,,,,,6,,,,53,64
12000,note_on,900,0,4,,,,,,,,3,,,,60,45
12000,note_on,900,0,8,,,,,,,,7,,,,36,45
12000,program_change,900,0,6,,,,,,,,5,,,49,,
12000,program_change,0,0,6,,,,,,,,5,,,49,,
12000,note_on,0,0,6,,,,,,,,5,,,,60,45
12000,note_on,900,0,7,,,,,,,,6,,,,48,45
12160,note_off,160,0,8,,,,,,,,7,,,,36,64
12160,note_on,0,0,8,,,,,,,,7,,,,38,45
12160,note_on,0,0,6,,,,,,,,5,,,,62,45
12160,note_off,160,0,7,,,,,,,,6,,,,48,64
12160,note_on,0,0,7,,,,,,,,6,,,,50,45
12160,note_off,160,0,4,,,,,,,,3,,,,60,64
12160,note_on,0,0,4,,,,,,,,3,,,,62,45
12160,note_off,160,0,6,,,,,,,,5,,,,60,64
12320,note_on,0,0,7,,,,,,,,6,,,,52,45
12320,note_off,160,0,6,,,,,,,,5,,,,62,64
12320,note_on,0,0,6,,,,,,,,5,,,,64,45
12320,note_off,160,0,7,,,,,,,,6,,,,50,64
12320,note_off,160,0,4,,,,,,,,3,,,,62,64
12320,note_on,0,0,4,,,,,,,,3,,,,64,45
12320,note_on,0,0,8,,,,,,,,7,,,,40,45
12320,note_off,160,0,8,,,,,,,,7,,,,38,64
12480,note_on,0,0,7,,,,,,,,6,,,,53,45
12480,note_on,0,0,4,,,,,,,,3,,,,65,45
12480,note_on,0,0,6,,,,,,,,5,,,,65,45
12480,note_off,160,0,6,,,,,,,,5,,,,64,64
12480,note_off,160,0,4,,,,,,,,3,,,,64,64
12480,note_off,160,0,7,,,,,,,,6,,,,52,64
12480,note_on,0,0,8,,,,,,,,7,,,,41,45
12480,note_off,160,0,8,,,,,,,,7,,,,40,64
12985,note_off,505,0,6,,,,,,,,5,,,,65,64
12985,note_off,505,0,7,,,,,,,,6,,,,53,64
12985,note_off,505,0,4,,,,,,,,3,,,,65,64
12985,note_off,505,0,8,,,,,,,,7,,,,41,64
13200,note_on,215,0,4,,,,,,,,3,,,,65,45
13200,note_on,215,0,7,,,,,,,,6,,,,53,45
13200,note_on,215,0,6,,,,,,,,5,,,,65,45
13200,note_on,215,0,8,,,,,,,,7,,,,41,45
13280,note_off,80,0,6,,,,,,,,5,,,,65,64
13280,note_off,80,0,7,,,,,,,,6,,,,53,64
13280,note_off,80,0,8,,,,,,,,7,,,,41,64
13280,note_off,80,0,4,,,,,,,,3,,,,65,64
13440,note_on,160,0,8,,,,,,,,7,,,,43,45
13440,note_on,160,0,6,,,,,,,,5,,,,67,45
13440,note_on,160,0,4,,,,,,,,3,,,,67,45
13440,note_on,160,0,7,,,,,,,,6,,,,55,45
13680,note_off,240,0,8,,,,,,,,7,,,,43,64
13680,note_off,240,0,4,,,,,,,,3,,,,67,64
13680,note_off,240,0,7,,,,,,,,6,,,,55,64
13680,note_off,240,0,6,,,,,,,,5,,,,67,64
13920,note_on,240,0,4,,,,,,,,3,,,,65,45
13920,note_on,240,0,7,,,,,,,,6,,,,53,45
13920,note_on,240,0,8,,,,,,,,7,,,,41,45
13920,note_on,240,0,6,,,,,,,,5,,,,65,45
14425,note_off,505,0,7,,,,,,,,6,,,,53,64
14425,note_off,505,0,8,,,,,,,,7,,,,41,64
14425,note_off,505,0,6,,,,,,,,5,,,,65,64
14425,note_off,505,0,4,,,,,,,,3,,,,65,64
14640,note_on,215,0,4,,,,,,,,3,,,,65,45
14640,note_on,215,0,6,,,,,,,,5,,,,65,45
14640,note_on,215,0,8,,,,,,,,7,,,,41,45
14640,note_on,215,0,7,,,,,,,,6,,,,53,45
14720,note_off,80,0,4,,,,,,,,3,,,,65,64
14720,note_off,80,0,7,,,,,,,,6,,,,53,64
14720,note_off,80,0,8,,,,,,,,7,,,,41,64
14720,note_off,80,0,6,,,,,,,,5,,,,65,64
14880,note_on,160,0,4,,,,,,,,3,,,,64,45
14880,note_on,160,0,7,,,,,,,,6,,,,52,45
14880,note_on,160,0,8,,,,,,,,7,,,,40,45
14880,note_on,160,0,6,,,,,,,,5,,,,64,45
15120,note_off,240,0,4,,,,,,,,3,,,,64,64
15120,note_off,240,0,7,,,,,,,,6,,,,52,64
15120,note_off,240,0,8,,,,,,,,7,,,,40,64
15120,note_off,240,0,6,,,,,,,,5,,,,64,64
15360,note_on,240,0,6,,,,,,,,5,,,,62,45
15360,note_on,240,0,8,,,,,,,,7,,,,38,45
15360,note_on,240,0,7,,,,,,,,6,,,,50,45
15360,note_on,240,0,4,,,,,,,,3,,,,62,45
15480,note_off,120,0,8,,,,,,,,7,,,,38,64
15480,note_off,120,0,7,,,,,,,,6,,,,50,64
15480,note_off,120,0,6,,,,,,,,5,,,,62,64
15480,note_off,120,0,4,,,,,,,,3,,,,62,64
15840,note_on,360,0,7,,,,,,,,6,,,,50,45
15840,note_on,360,0,8,,,,,,,,7,,,,38,45
15840,note_on,360,0,6,,,,,,,,5,,,,62,45
15840,note_on,360,0,4,,,,,,,,3,,,,62,45
15960,note_off,120,0,7,,,,,,,,6,,,,50,64
15960,note_off,120,0,4,,,,,,,,3,,,,62,64
15960,note_off,120,0,6,,,,,,,,5,,,,62,64
15960,note_off,120,0,8,,,,,,,,7,,,,38,64
16320,note_on,360,0,4,,,,,,,,3,,,,57,45
16320,note_on,360,0,7,,,,,,,,6,,,,45,45
16320,note_on,360,0,6,,,,,,,,5,,,,57,45
16320,note_on,360,0,8,,,,,,,,7,,,,33,45
16440,note_off,120,0,4,,,,,,,,3,,,,57,64
16440,note_off,120,0,6,,,,,,,,5,,,,57,64
16440,note_off,120,0,7,,,,,,,,6,,,,45,64
16440,note_off,120,0,8,,,,,,,,7,,,,33,64
16800,note_on,360,0,7,,,,,,,,6,,,,50,45
16800,note_on,360,0,8,,,,,,,,7,,,,38,45
16800,note_on,360,0,4,,,,,,,,3,,,,62,45
16800,note_on,360,0,6,,,,,,,,5,,,,62,45
16920,note_off,120,0,8,,,,,,,,7,,,,38,64
16920,note_off,120,0,4,,,,,,,,3,,,,62,64
16920,note_off,120,0,6,,,,,,,,5,,,,62,64
16920,note_off,120,0,7,,,,,,,,6,,,,50,64
17520,note_on,600,0,8,,,,,,,,7,,,,36,75
17520,note_on,600,0,7,,,,,,,,6,,,,48,75
17520,note_on,600,0,4,,,,,,,,3,,,,72,75
17520,note_on,6420,0,5,,,,,,,,4,,,,60,75
17760,note_on,0,0,4,,,,,,,,3,,,,74,75
17760,note_off,240,0,5,,,,,,,,4,,,,60,64
17760,note_off,240,0,4,,,,,,,,3,,,,72,64
17760,note_on,0,0,5,,,,,,,,4,,,,62,75
17760,note_on,0,0,7,,,,,,,,6,,,,50,75
17760,note_on,0,0,8,,,,,,,,7,,,,38,75
17760,note_off,240,0,8,,,,,,,,7,,,,36,64
17760,note_off,240,0,7,,,,,,,,6,,,,48,64
18000,note_on,0,0,4,,,,,,,,3,,,,76,75
18000,note_off,240,0,4,,,,,,,,3,,,,74,64
18000,note_on,0,0,8,,,,,,,,7,,,,40,75
18000,note_off,240,0,7,,,,,,,,6,,,,50,64
18000,note_on,0,0,5,,,,,,,,4,,,,64,75
18000,note_off,240,0,5,,,,,,,,4,,,,62,64
18000,note_on,0,0,7,,,,,,,,6,,,,52,75
18000,note_off,240,0,8,,,,,,,,7,,,,38,64
18235,note_off,235,0,8,,,,,,,,7,,,,40,64
18235,note_off,235,0,7,,,,,,,,6,,,,52,64
18235,note_off,235,0,4,,,,,,,,3,,,,76,64
18235,note_off,235,0,5,,,,,,,,4,,,,64,64
18240,program_change,1320,0,6,,,,,,,,5,,,48,,
18240,note_on,5,0,4,,,,,,,,3,,,,69,75
18240,note_on,0,0,6,,,,,,,,5,,,,60,75
18240,note_on,5,0,5,,,,,,,,4,,,,57,75
18240,note_on,0,0,5,,,,,,,,4,,,,65,75
18240,note_on,7140,0,1,,,,,,,,0,,,,72,75
18240,note_on,5,0,8,,,,,,,,7,,,,41,75
18240,note_on,0,0,4,,,,,,,,3,,,,77,75
18240,note_on,7140,0,3,,,,,,,,2,,,,65,75
18240,note_on,5,0,7,,,,,,,,6,,,,53,75
18240,note_on,7140,0,2,,,,,,,,1,,,,57,75
18745,note_off,505,0,2,,,,,,,,1,,,,57,64
18745,note_off,505,0,5,,,,,,,,4,,,,65,64
18745,note_off,505,0,7,,,,,,,,6,,,,53,64
18745,note_off,0,0,4,,,,,,,,3,,,,69,64
18745,note_off,505,0,4,,,,,,,,3,,,,77,64
18745,note_off,0,0,5,,,,,,,,4,,,,57,64
18745,note_off,505,0,3,,,,,,,,2,,,,65,64
18745,note_off,505,0,6,,,,,,,,5,,,,60,64
18745,note_off,505,0,1,,,,,,,,0,,,,72,64
18745,note_off,505,0,8,,,,,,,,7,,,,41,64
18960,note_on,215,0,1,,,,,,,,0,,,,72,75
18960,note_on,215,0,7,,,,,,,,6,,,,53,75
18960,note_on,215,0,5,,,,,,,,4,,,,57,75
18960,note_on,215,0,2,,,,,,,,1,,,,57,75
18960,note_on,0,0,5,,,,,,,,4,,,,65,75
18960,note_on,215,0,3,,,,,,,,2,,,,65,75
18960,note_on,215,0,4,,,,,,,,3,,,,69,75
18960,note_on,0,0,4,,,,,,,,3,,,,77,75
18960,note_on,215,0,6,,,,,,,,5,,,,60,75
18960,note_on,215,0,8,,,,,,,,7,,,,41,75
19040,note_off,0,0,5,,,,,,,,4,,,,57,64
19040,note_off,80,0,8,,,,,,,,7,,,,41,64
19040,note_off,80,0,5,,,,,,,,4,,,,65,64
19040,note_off,80,0,2,,,,,,,,1,,,,57,64
19040,note_off,80,0,6,,,,,,,,5,,,,60,64
19040,note_off,80,0,4,,,,,,,,3,,,,77,64
19040,note_off,0,0,4,,,,,,,,3,,,,69,64
19040,note_off,80,0,1,,,,,,,,0,,,,72,64
19040,note_off,80,0,7,,,,,,,,6,,,,53,64
19195,note_off,235,0,3,,,,,,,,2,,,,65,64
19200,note_on,0,0,4,,,,,,,,3,,,,79,75
19200,note_on,5,0,3,,,,,,,,2,,,,67,75
19200,note_on,160,0,5,,,,,,,,4,,,,60,75
19200,note_on,0,0,5,,,,,,,,4,,,,67,75
19200,note_on,160,0,8,,,,,,,,7,,,,36,75
19200,note_on,160,0,4,,,,,,,,3,,,,72,75
19200,note_on,160,0,7,,,,,,,,6,,,,48,75
19200,note_on,160,0,6,,,,,,,,5,,,,64,75
19200,note_on,160,0,2,,,,,,,,1,,,,60,75
19200,note_on,160,0,1,,,,,,,,0,,,,76,75
19440,note_off,240,0,4,,,,,,,,3,,,,79,64
19440,note_off,240,0,6,,,,,,,,5,,,,64,64
19440,note_off,240,0,3,,,,,,,,2,,,,67,64
19440,note_off,240,0,5,,,,,,,,4,,,,67,64
19440,note_off,0,0,5,,,,,,,,4,,,,60,64
19440,note_off,240,0,8,,,,,,,,7,,,,36,64
19440,note_off,240,0,2,,,,,,,,1,,,,60,64
19440,note_off,240,0,1,,,,,,,,0,,,,76,64
19440,note_off,240,0,7,,,,,,,,6,,,,48,64
19440,note_off,0,0,4,,,,,,,,3,,,,72,64
19680,note_on,0,0,5,,,,,,,,4,,,,69,75
19680,note_on,0,0,4,,,,,,,,3,,,,81,75
19680,note_on,240,0,7,,,,,,,,6,,,,53,75
19680,note_on,240,0,6,,,,,,,,5,,,,65,75
19680,note_on,240,0,8,,,,,,,,7,,,,41,75
19680,note_on,240,0,2,,,,,,,,1,,,,65,75
19680,note_on,240,0,3,,,,,,,,2,,,,69,75
19680,note_on,240,0,1,,,,,,,,0,,,,77,75
19680,note_on,240,0,5,,,,,,,,4,,,,60,75
19680,note_on,240,0,4,,,,,,,,3,,,,72,75
20185,note_off,505,0,2,,,,,,,,1,,,,65,64
20185,note_off,505,0,7,,,,,,,,6,,,,53,64
20185,note_off,505,0,5,,,,,,,,4,,,,69,64
20185,note_off,505,0,6,,,,,,,,5,,,,65,64
20185,note_off,505,0,1,,,,,,,,0,,,,77,64
20185,note_off,505,0,3,,,,,,,,2,,,,69,64
20185,note_off,0,0,5,,,,,,,,4,,,,60,64
20185,note_off,0,0,4,,,,,,,,3,,,,72,64
20185,note_off,505,0,4,,,,,,,,3,,,,81,64
20185,note_off,505,0,8,,,,,,,,7,,,,41,64
20400,note_on,215,0,3,,,,,,,,2,,,,69,75
20400,note_on,215,0,8,,,,,,,,7,,,,41,75
20400,note_on,215,0,6,,,,,,,,5,,,,65,75
20400,note_on,0,0,4,,,,,,,,3,,,,81,75
20400,note_on,215,0,1,,,,,,,,0,,,,77,75
20400,note_on,215,0,2,,,,,,,,1,,,,65,75
20400,note_on,215,0,5,,,,,,,,4,,,,60,75
20400,note_on,0,0,5,,,,,,,,4,,,,69,75
20400,note_on,215,0,7,,,,,,,,6,,,,53,75
20400,note_on,215,0,4,,,,,,,,3,,,,72,75
20480,note_off,80,0,8,,,,,,,,7,,,,41,64
20480,note_off,80,0,2,,,,,,,,1,,,,65,64
20480,note_off,80,0,5,,,,,,,,4,,,,69,64
20480,note_off,0,0,5,,,,,,,,4,,,,60,64
20480,note_off,80,0,1,,,,,,,,0,,,,77,64
20480,note_off,80,0,6,,,,,,,,5,,,,65,64
20480,note_off,80,0,4,,,,,,,,3,,,,81,64
20480,note_off,80,0,3,,,,,,,,2,,,,69,64
20480,note_off,80,0,7,,,,,,,,6,,,,53,64
20480,note_off,0,0,4,,,,,,,,3,,,,72,64
20640,note_on,160,0,6,,,,,,,,5,,,,65,75
20640,note_on,0,0,4,,,,,,,,3,,,,82,75
20640,note_on,160,0,3,,,,,,,,2,,,,70,75
20640,note_on,160,0,1,,,,,,,,0,,,,77,75
20640,note_on,160,0,2,,,,,,,,1,,,,62,75
20640,note_on,160,0,8,,,,,,,,7,,,,34,75
20640,note_on,160,0,4,,,,,,,,3,,,,74,75
20640,note_on,160,0,7,,,,,,,,6,,,,46,75
20640,note_on,160,0,5,,,,,,,,4,,,,62,75
20640,note_on,0,0,5,,,,,,,,4,,,,70,75
20880,note_off,240,0,7,,,,,,,,6,,,,46,64
20880,note_off,240,0,6,,,,,,,,5,,,,65,64
20880,note_off,240,0,4,,,,,,,,3,,,,82,64
20880,note_off,240,0,5,,,,,,,,4,,,,70,64
20880,note_off,0,0,5,,,,,,,,4,,,,62,64
20880,note_off,240,0,3,,,,,,,,2,,,,70,64
20880,note_off,0,0,4,,,,,,,,3,,,,74,64
20880,note_off,240,0,1,,,,,,,,0,,,,77,64
20880,note_off,240,0,2,,,,,,,,1,,,,62,64
20880,note_off,240,0,8,,,,,,,,7,,,,34,64
21120,note_on,240,0,1,,,,,,,,0,,,,77,75
21120,note_on,240,0,2,,,,,,,,1,,,,65,75
21120,note_on,240,0,8,,,,,,,,7,,,,36,75
21120,note_on,240,0,3,,,,,,,,2,,,,69,75
21120,note_on,240,0,4,,,,,,,,3,,,,72,75
21120,note_on,0,0,4,,,,,,,,3,,,,81,75
21120,note_on,240,0,6,,,,,,,,5,,,,65,75
21120,note_on,240,0,7,,,,,,,,6,,,,48,75
21120,note_on,240,0,5,,,,,,,,4,,,,60,75
21120,note_on,0,0,5,,,,,,,,4,,,,69,75
21240,note_off,120,0,6,,,,,,,,5,,,,65,64
21240,note_off,120,0,1,,,,,,,,0,,,,77,64
21240,note_off,120,0,3,,,,,,,,2,,,,69,64
21240,note_off,0,0,4,,,,,,,,3,,,,72,64
21240,note_off,0,0,5,,,,,,,,4,,,,60,64
21240,note_off,120,0,4,,,,,,,,3,,,,81,64
21240,note_off,120,0,7,,,,,,,,6,,,,48,64
21240,note_off,120,0,2,,,,,,,,1,,,,65,64
21240,note_off,120,0,8,,,,,,,,7,,,,36,64
21240,note_off,120,0,5,,,,,,,,4,,,,69,64
21600,note_on,360,0,5,,,,,,,,4,,,,60,75
21600,note_on,360,0,1,,,,,,,,0,,,,77,75
21600,note_on,360,0,8,,,,,,,,7,,,,36,75
21600,note_on,360,0,6,,,,,,,,5,,,,65,75
21600,note_on,360,0,7,,,,,,,,6,,,,48,75
21600,note_on,0,0,4,,,,,,,,3,,,,81,75
21600,note_on,360,0,4,,,,,,,,3,,,,72,75
21600,note_on,360,0,2,,,,,,,,1,,,,65,75
21600,note_on,0,0,5,,,,,,,,4,,,,69,75
21600,note_on,360,0,3,,,,,,,,2,,,,69,75
21720,note_off,120,0,3,,,,,,,,2,,,,69,64
21720,note_off,120,0,6,,,,,,,,5,,,,65,64
21720,note_off,120,0,8,,,,,,,,7,,,,36,64
21720,note_off,120,0,4,,,,,,,,3,,,,81,64
21720,note_off,120,0,5,,,,,,,,4,,,,69,64
21720,note_off,120,0,2,,,,,,,,1,,,,65,64
21720,note_off,0,0,4,,,,,,,,3,,,,72,64
21720,note_off,120,0,1,,,,,,,,0,,,,77,64
21720,note_off,0,0,5,,,,,,,,4,,,,60,64
21720,note_off,120,0,7,,,,,,,,6,,,,48,64
22080,note_on,0,0,4,,,,,,,,3,,,,79,75
22080,note_on,360,0,4,,,,,,,,3,,,,72,75
22080,note_on,360,0,3,,,,,,,,2,,,,67,75
22080,note_on,360,0,6,,,,,,,,5,,,,64,75
22080,note_on,360,0,5,,,,,,,,4,,,,60,75
22080,note_on,360,0,1,,,,,,,,0,,,,76,75
22080,note_on,360,0,7,,,,,,,,6,,,,48,75
22080,note_on,360,0,8,,,,,,,,7,,,,36,75
22080,note_on,360,0,2,,,,,,,,1,,,,60,75
22080,note_on,0,0,5,,,,,,,,4,,,,67,75
22200,note_off,120,0,6,,,,,,,,5,,,,64,64
22200,note_off,120,0,3,,,,,,,,2,,,,67,64
22200,note_off,120,0,4,,,,,,,,3,,,,79,64
22200,note_off,0,0,4,,,,,,,,3,,,,72,64
22200,note_off,120,0,1,,,,,,,,0,,,,76,64
22200,note_off,120,0,7,,,,,,,,6,,,,48,64
22200,note_off,120,0,8,,,,,,,,7,,,,36,64
22200,note_off,120,0,2,,,,,,,,1,,,,60,64
22200,note_off,120,0,5,,,,,,,,4,,,,67,64
22200,note_off,0,0,5,,,,,,,,4,,,,60,64
22560,note_on,360,0,3,,,,,,,,2,,,,65,75
22560,note_on,0,0,4,,,,,,,,3,,,,77,75
22560,note_on,360,0,4,,,,,,,,3,,,,69,75
22560,note_on,360,0,2,,,,,,,,1,,,,57,75
22560,note_on,360,0,6,,,,,,,,5,,,,65,75
22560,note_on,0,0,5,,,,,,,,4,,,,65,75
22560,note_on,360,0,5,,,,,,,,4,,,,57,75
22560,note_on,360,0,7,,,,,,,,6,,,,53,75
22560,note_on,360,0,1,,,,,,,,0,,,,77,75
22560,note_on,360,0,8,,,,,,,,7,,,,41,75
22680,note_off,120,0,4,,,,,,,,3,,,,77,64
22680,note_off,120,0,3,,,,,,,,2,,,,65,64
22680,note_off,120,0,1,,,,,,,,0,,,,77,64
22680,note_off,120,0,2,,,,,,,,1,,,,57,64
22680,note_off,120,0,8,,,,,,,,7,,,,41,64
22680,note_off,0,0,5,,,,,,,,4,,,,57,64
22680,note_off,120,0,5,,,,,,,,4,,,,65,64
22680,note_off,120,0,6,,,,,,,,5,,,,65,64
22680,note_off,120,0,7,,,,,,,,6,,,,53,64
22680,note_off,0,0,4,,,,,,,,3,,,,69,64
23100,note_on,420,0,1,,,,,,,,0,,,,72,75
23100,note_on,420,0,4,,,,,,,,3,,,,72,75
23340,note_off,240,0,4,,,,,,,,3,,,,72,64
23340,note_on,0,0,4,,,,,,,,3,,,,74,75
23340,note_on,0,0,1,,,,,,,,0,,,,74,75
23340,note_off,240,0,1,,,,,,,,0,,,,72,64
23580,note_off,240,0,4,,,,,,,,3,,,,74,64
23580,note_on,0,0,4,,,,,,,,3,,,,76,75
23580,note_on,0,0,1,,,,,,,,0,,,,76,75
23580,note_off,240,0,1,,,,,,,,0,,,,74,64
23820,note_off,240,0,1,,,,,,,,0,,,,76,64
23820,note_on,0,0,1,,,,,,,,0,,,,77,75
23820,note_off,240,0,4,,,,,,,,3,,,,76,64
23820,note_on,0,0,4,,,,,,,,3,,,,77,75
24060,note_on,1380,0,3,,,,,,,,2,,,,67,75
24060,note_on,1380,0,2,,,,,,,,1,,,,59,75
24060,note_on,0,0,1,,,,,,,,0,,,,79,75
24060,note_off,240,0,4,,,,,,,,3,,,,77,64
24060,note_on,0,0,4,,,,,,,,3,,,,71,75
24060,note_on,0,0,4,,,,,,,,3,,,,79,75
24060,note_on,1380,0,6,,,,,,,,5,,,,62,75
24060,note_on,0,0,6,,,,,,,,5,,,,65,75
24060,note_on,1380,0,8,,,,,,,,7,,,,31,75
24060,note_on,1380,0,7,,,,,,,,6,,,,43,75
24060,note_off,240,0,1,,,,,,,,0,,,,77,64
24060,note_on,1380,0,5,,,,,,,,4,,,,74,75
24060,note_on,0,0,5,,,,,,,,4,,,,77,75
24565,note_off,505,0,3,,,,,,,,2,,,,67,64
24565,note_off,0,0,4,,,,,,,,3,,,,71,64
24565,note_off,0,0,5,,,,,,,,4,,,,74,64
24565,note_off,505,0,4,,,,,,,,3,,,,79,64
24565,note_off,505,0,6,,,,,,,,5,,,,65,64
24565,note_off,0,0,6,,,,,,,,5,,,,62,64
24565,note_off,505,0,5,,,,,,,,4,,,,77,64
24565,note_off,505,0,2,,,,,,,,1,,,,59,64
24565,note_off,505,0,1,,,,,,,,0,,,,79,64
24780,note_on,215,0,3,,,,,,,,2,,,,67,75
24780,note_on,215,0,6,,,,,,,,5,,,,62,75
24780,note_on,0,0,6,,,,,,,,5,,,,65,75
24780,note_on,215,0,5,,,,,,,,4,,,,74,75
24780,note_on,0,0,4,,,,,,,,3,,,,79,75
24780,note_on,215,0,2,,,,,,,,1,,,,59,75
24780,note_on,0,0,5,,,,,,,,4,,,,77,75
24780,note_on,215,0,4,,,,,,,,3,,,,71,75
24780,note_on,215,0,1,,,,,,,,0,,,,79,75
24860,note_off,80,0,3,,,,,,,,2,,,,67,64
24860,note_off,80,0,5,,,,,,,,4,,,,77,64
24860,note_off,80,0,4,,,,,,,,3,,,,79,64
24860,note_off,0,0,4,,,,,,,,3,,,,71,64
24860,note_off,0,0,5,,,,,,,,4,,,,74,64
24860,note_off,0,0,6,,,,,,,,5,,,,62,64
24860,note_off,80,0,6,,,,,,,,5,,,,65,64
24860,note_off,80,0,1,,,,,,,,0,,,,79,64
24860,note_off,80,0,2,,,,,,,,1,,,,59,64
25020,note_on,160,0,3,,,,,,,,2,,,,69,75
25020,note_on,0,0,4,,,,,,,,3,,,,81,75
25020,note_on,160,0,2,,,,,,,,1,,,,60,75
25020,note_on,160,0,6,,,,,,,,5,,,,62,75
25020,note_on,160,0,5,,,,,,,,4,,,,74,75
25020,note_on,0,0,5,,,,,,,,4,,,,77,75
25020,note_on,0,0,6,,,,,,,,5,,,,65,75
25020,note_on,160,0,4,,,,,,,,3,,,,72,75
25020,note_on,160,0,1,,,,,,,,0,,,,81,75
25380,note_off,1320,0,8,,,,,,,,7,,,,31,64
25380,note_off,1320,0,7,,,,,,,,6,,,,43,64
25420,note_off,400,0,3,,,,,,,,2,,,,69,64
25420,note_off,400,0,1,,,,,,,,0,,,,81,64
25420,note_off,400,0,6,,,,,,,,5,,,,65,64
25420,note_off,0,0,6,,,,,,,,5,,,,62,64
25420,note_off,400,0,5,,,,,,,,4,,,,77,64
25420,note_off,0,0,5,,,,,,,,4,,,,74,64
25420,note_off,400,0,4,,,,,,,,3,,,,81,64
25420,note_off,400,0,2,,,,,,,,1,,,,60,64
25420,note_off,0,0,4,,,,,,,,3,,,,72,64
25500,note_on,80,0,2,,,,,,,,1,,,,59,75
25500,note_on,80,0,6,,,,,,,,5,,,,62,75
25500,note_on,0,0,6,,,,,,,,5,,,,65,75
25500,note_on,80,0,5,,,,,,,,4,,,,74,75
25500,note_on,0,0,4,,,,,,,,3,,,,79,75
25500,note_on,80,0,3,,,,,,,,2,,,,67,75
25500,note_on,120,0,8,,,,,,,,7,,,,31,75
25500,note_on,120,0,7,,,,,,,,6,,,,43,75
25500,note_on,0,0,5,,,,,,,,4,,,,77,75
25500,note_on,80,0,4,,,,,,,,3,,,,71,75
25500,note_on,80,0,1,,,,,,,,0,,,,79,75
26005,note_off,505,0,1,,,,,,,,0,,,,79,64
26005,note_off,505,0,2,,,,,,,,1,,,,59,64
26005,note_off,0,0,6,,,,,,,,5,,,,62,64
26005,note_off,0,0,4,,,,,,,,3,,,,71,64
26005,note_off,505,0,4,,,,,,,,3,,,,79,64
26005,note_off,505,0,3,,,,,,,,2,,,,67,64
26005,note_off,0,0,5,,,,,,,,4,,,,74,64
26005,note_off,505,0,5,,,,,,,,4,,,,77,64
26005,note_off,505,0,6,,,,,,,,5,,,,65,64
26220,note_on,215,0,5,,,,,,,,4,,,,74,75
26220,note_on,215,0,1,,,,,,,,0,,,,79,75
26220,note_on,215,0,3,,,,,,,,2,,,,67,75
26220,note_on,215,0,2,,,,,,,,1,,,,59,75
26220,note_on,0,0,5,,,,,,,,4,,,,77,75
26220,note_on,0,0,6,,,,,,,,5,,,,65,75
26220,note_on,215,0,6,,,,,,,,5,,,,62,75
26220,note_on,215,0,4,,,,,,,,3,,,,71,75
26220,note_on,0,0,4,,,,,,,,3,,,,79,75
26300,note_off,0,0,5,,,,,,,,4,,,,74,64
26300,note_off,80,0,1,,,,,,,,0,,,,79,64
26300,note_off,80,0,2,,,,,,,,1,,,,59,64
26300,note_off,80,0,5,,,,,,,,4,,,,77,64
26300,note_off,80,0,3,,,,,,,,2,,,,67,64
26300,note_off,80,0,4,,,,,,,,3,,,,79,64
26300,note_off,0,0,4,,,,,,,,3,,,,71,64
26300,note_off,0,0,6,,,,,,,,5,,,,62,64
26300,note_off,80,0,6,,,,,,,,5,,,,65,64
26460,note_on,160,0,4,,,,,,,,3,,,,72,75
26460,note_on,0,0,4,,,,,,,,3,,,,81,75
26460,note_on,160,0,2,,,,,,,,1,,,,60,75
26460,note_on,160,0,1,,,,,,,,0,,,,81,75
26460,note_on,160,0,3,,,,,,,,2,,,,69,75
26460,note_on,0,0,5,,,,,,,,4,,,,77,75
26460,note_on,160,0,5,,,,,,,,4,,,,74,75
26460,note_on,0,0,6,,,,,,,,5,,,,65,75
26460,note_on,160,0,6,,,,,,,,5,,,,62,75
26820,note_off,1320,0,8,,,,,,,,7,,,,31,64
26820,note_off,1320,0,7,,,,,,,,6,,,,43,64
26860,note_off,0,0,6,,,,,,,,5,,,,62,64
26860,note_off,400,0,5,,,,,,,,4,,,,77,64
26860,note_off,400,0,2,,,,,,,,1,,,,60,64
26860,note_off,0,0,5,,,,,,,,4,,,,74,64
26860,note_off,400,0,6,,,,,,,,5,,,,65,64
26860,note_off,400,0,1,,,,,,,,0,,,,81,64
26860,note_off,400,0,4,,,,,,,,3,,,,81,64
26860,note_off,400,0,3,,,,,,,,2,,,,69,64
26860,note_off,0,0,4,,,,,,,,3,,,,72,64
26940,note_on,80,0,1,,,,,,,,0,,,,79,75
26940,note_on,80,0,2,,,,,,,,1,,,,59,75
26940,note_on,0,0,4,,,,,,,,3,,,,79,75
26940,note_on,120,0,7,,,,,,,,6,,,,43,75
26940,note_on,80,0,4,,,,,,,,3,,,,71,75
26940,note_on,120,0,8,,,,,,,,7,,,,31,75
26940,note_on,0,0,5,,,,,,,,4,,,,77,75
26940,note_on,0,0,6,,,,,,,,5,,,,65,75
26940,note_on,80,0,6,,,,,,,,5,,,,62,75
26940,note_on,80,0,3,,,,,,,,2,,,,67,75
26940,note_on,80,0,5,,,,,,,,4,,,,74,75
27445,note_off,0,0,6,,,,,,,,5,,,,62,64
27445,note_off,505,0,6,,,,,,,,5,,,,65,64
27445,note_off,505,0,5,,,,,,,,4,,,,77,64
27445,note_off,505,0,2,,,,,,,,1,,,,59,64
27445,note_off,0,0,5,,,,,,,,4,,,,74,64
27445,note_off,505,0,4,,,,,,,,3,,,,79,64
27445,note_off,505,0,1,,,,,,,,0,,,,79,64
27445,note_off,505,0,3,,,,,,,,2,,,,67,64
27445,note_off,0,0,4,,,,,,,,3,,,,71,64
27660,note_on,0,0,5,,,,,,,,4,,,,77,75
27660,note_on,0,0,4,,,,,,,,3,,,,79,75
27660,note_on,215,0,4,,,,,,,,3,,,,71,75
27660,note_on,0,0,6,,,,,,,,5,,,,65,75
27660,note_on,215,0,5,,,,,,,,4,,,,74,75
27660,note_on,215,0,3,,,,,,,,2,,,,67,75
27660,note_on,215,0,2,,,,,,,,1,,,,59,75
27660,note_on,215,0,1,,,,,,,,0,,,,79,75
27660,note_on,215,0,6,,,,,,,,5,,,,62,75
27740,note_off,80,0,3,,,,,,,,2,,,,67,64
27740,note_off,0,0,5,,,,,,,,4,,,,74,64
27740,note_off,80,0,1,,,,,,,,0,,,,79,64
27740,note_off,80,0,6,,,,,,,,5,,,,65,64
27740,note_off,0,0,6,,,,,,,,5,,,,62,64
27740,note_off,80,0,2,,,,,,,,1,,,,59,64
27740,note_off,80,0,4,,,,,,,,3,,,,79,64
27740,note_off,0,0,4,,,,,,,,3,,,,71,64
27740,note_off,80,0,5,,,,,,,,4,,,,77,64
27900,note_on,160,0,1,,,,,,,,0,,,,81,75
27900,note_on,0,0,4,,,,,,,,3,,,,81,75
27900,note_on,160,0,4,,,,,,,,3,,,,72,75
27900,note_on,160,0,3,,,,,,,,2,,,,69,75
27900,note_on,160,0,5,,,,,,,,4,,,,74,75
27900,note_on,0,0,5,,,,,,,,4,,,,77,75
27900,note_on,0,0,6,,,,,,,,5,,,,65,75
27900,note_on,160,0,6,,,,,,,,5,,,,62,75
27900,note_on,160,0,2,,,,,,,,1,,,,60,75
28260,note_off,1320,0,7,,,,,,,,6,,,,43,64
28260,note_off,1320,0,8,,,,,,,,7,,,,31,64
28300,note_off,400,0,5,,,,,,,,4,,,,77,64
28300,note_off,400,0,3,,,,,,,,2,,,,69,64
28300,note_off,400,0,1,,,,,,,,0,,,,81,64
28300,note_off,0,0,5,,,,,,,,4,,,,74,64
28300,note_off,0,0,6,,,,,,,,5,,,,62,64
28300,note_off,0,0,4,,,,,,,,3,,,,72,64
28300,note_off,400,0,4,,,,,,,,3,,,,81,64
28300,note_off,400,0,6,,,,,,,,5,,,,65,64
28300,note_off,400,0,2,,,,,,,,1,,,,60,64
28380,note_on,80,0,2,,,,,,,,1,,,,59,75
28380,note_on,80,0,4,,,,,,,,3,,,,71,75
28380,note_on,80,0,1,,,,,,,,0,,,,79,75
28380,note_on,0,0,4,,,,,,,,3,,,,79,75
28380,note_on,80,0,5,,,,,,,,4,,,,74,75
28380,note_on,0,0,5,,,,,,,,4,,,,77,75
28380,note_on,120,0,7,,,,,,,,6,,,,43,75
28380,note_on,80,0,6,,,,,,,,5,,,,62,75
28380,note_on,0,0,6,,,,,,,,5,,,,65,75
28380,note_on,80,0,3,,,,,,,,2,,,,67,75
28380,note_on,120,0,8,,,,,,,,7,,,,31,75
28500,note_off,120,0,8,,,,,,,,7,,,,31,64
28500,note_off,120,0,7,,,,,,,,6,,,,43,64
28780,note_off,0,0,5,,,,,,,,4,,,,74,64
28780,note_off,400,0,1,,,,,,,,0,,,,79,64
28780,note_off,400,0,2,,,,,,,,1,,,,59,64
28780,note_off,400,0,5,,,,,,,,4,,,,77,64
28780,note_off,400,0,3,,,,,,,,2,,,,67,64
28780,note_off,400,0,6,,,,,,,,5,,,,65,64
28780,note_off,0,0,6,,,,,,,,5,,,,62,64
28780,note_off,400,0,4,,,,,,,,3,,,,79,64
28780,note_off,0,0,4,,,,,,,,3,,,,71,64
28860,note_on,360,0,8,,,,,,,,7,,,,33,75
28860,note_on,360,0,7,,,,,,,,6,,,,45,75
28980,note_off,120,0,7,,,,,,,,6,,,,45,64
28980,note_off,120,0,8,,,,,,,,7,,,,33,64
29340,note_on,360,0,7,,,,,,,,6,,,,47,75
29340,note_on,360,0,8,,,,,,,,7,,,,35,75
29460,note_off,120,0,7,,,,,,,,6,,,,47,64
29460,note_off,120,0,8,,,,,,,,7,,,,35,64
29820,note_on,0,0,4,,,,,,,,3,,,,72,75
29820,note_on,1040,0,4,,,,,,,,3,,,,64,75
29820,note_on,1040,0,3,,,,,,,,2,,,,70,75
29820,note_on,360,0,8,,,,,,,,7,,,,36,75
29820,note_on,1040,0,5,,,,,,,,4,,,,67,75
29820,note_on,0,0,5,,,,,,,,4,,,,70,75
29820,note_on,1040,0,1,,,,,,,,0,,,,72,75
29820,note_on,1040,0,2,,,,,,,,1,,,,64,75
29820,note_on,360,0,7,,,,,,,,6,,,,48,75
29820,note_on,0,0,6,,,,,,,,5,,,,70,75
29820,note_on,1040,0,6,,,,,,,,5,,,,67,75
30325,note_off,505,0,5,,,,,,,,4,,,,70,64
30325,note_off,505,0,1,,,,,,,,0,,,,72,64
30325,note_off,505,0,2,,,,,,,,1,,,,64,64
30325,note_off,0,0,4,,,,,,,,3,,,,64,64
30325,note_off,505,0,3,,,,,,,,2,,,,70,64
30325,note_off,0,0,5,,,,,,,,4,,,,67,64
30325,note_off,0,0,6,,,,,,,,5,,,,67,64
30325,note_off,505,0,6,,,,,,,,5,,,,70,64
30325,note_off,505,0,4,,,,,,,,3,,,,72,64
30540,note_on,215,0,2,,,,,,,,1,,,,64,75
30540,note_on,215,0,6,,,,,,,,5,,,,67,75
30540,note_on,215,0,3,,,,,,,,2,,,,70,75
30540,note_on,0,0,5,,,,,,,,4,,,,70,75
30540,note_on,0,0,4,,,,,,,,3,,,,72,75
30540,note_on,215,0,5,,,,,,,,4,,,,67,75
30540,note_on,215,0,4,,,,,,,,3,,,,64,75
30540,note_on,0,0,6,,,,,,,,5,,,,70,75
30540,note_on,215,0,1,,,,,,,,0,,,,72,75
30620,note_off,80,0,6,,,,,,,,5,,,,70,64
30620,note_off,80,0,2,,,,,,,,1,,,,64,64
30620,note_off,0,0,6,,,,,,,,5,,,,67,64
30620,note_off,80,0,3,,,,,,,,2,,,,70,64
30620,note_off,0,0,4,,,,,,,,3,,,,64,64
30620,note_off,80,0,4,,,,,,,,3,,,,72,64
30620,note_off,80,0,1,,,,,,,,0,,,,72,64
30620,note_off,80,0,5,,,,,,,,4,,,,70,64
30620,note_off,0,0,5,,,,,,,,4,,,,67,64
30780,note_on,0,0,4,,,,,,,,3,,,,74,75
30780,note_on,160,0,2,,,,,,,,1,,,,65,75
30780,note_on,0,0,6,,,,,,,,5,,,,70,75
30780,note_on,160,0,3,,,,,,,,2,,,,70,75
30780,note_on,160,0,1,,,,,,,,0,,,,74,75
30780,note_on,160,0,6,,,,,,,,5,,,,67,75
30780,note_on,0,0,5,,,,,,,,4,,,,70,75
30780,note_on,160,0,4,,,,,,,,3,,,,65,75
30780,note_on,160,0,5,,,,,,,,4,,,,67,75
31140,note_off,1320,0,7,,,,,,,,6,,,,48,64
31140,note_off,1320,0,8,,,,,,,,7,,,,36,64
31180,note_off,400,0,6,,,,,,,,5,,,,70,64
31180,note_off,0,0,4,,,,,,,,3,,,,65,64
31180,note_off,400,0,5,,,,,,,,4,,,,70,64
31180,note_off,0,0,5,,,,,,,,4,,,,67,64
31180,note_off,400,0,2,,,,,,,,1,,,,65,64
31180,note_off,400,0,4,,,,,,,,3,,,,74,64
31180,note_off,400,0,1,,,,,,,,0,,,,74,64
31180,note_off,0,0,6,,,,,,,,5,,,,67,64
31180,note_off,400,0,3,,,,,,,,2,,,,70,64
31260,note_on,0,0,4,,,,,,,,3,,,,72,75
31260,note_on,120,0,8,,,,,,,,7,,,,36,75
31260,note_on,80,0,5,,,,,,,,4,,,,67,75
31260,note_on,80,0,4,,,,,,,,3,,,,64,75
31260,note_on,0,0,5,,,,,,,,4,,,,70,75
31260,note_on,0,0,6,,,,,,,,5,,,,70,75
31260,note_on,80,0,2,,,,,,,,1,,,,64,75
31260,note_on,80,0,6,,,,,,,,5,,,,67,75
31260,note_on,120,0,7,,,,,,,,6,,,,48,75
31260,note_on,80,0,1,,,,,,,,0,,,,72,75
31260,note_on,80,0,3,,,,,,,,2,,,,70,75
31765,note_off,505,0,4,,,,,,,,3,,,,72,64
31765,note_off,505,0,2,,,,,,,,1,,,,64,64
31765,note_off,505,0,3,,,,,,,,2,,,,70,64
31765,note_off,505,0,1,,,,,,,,0,,,,72,64
31765,note_off,505,0,5,,,,,,,,4,,,,70,64
31765,note_off,0,0,5,,,,,,,,4,,,,67,64
31765,note_off,505,0,6,,,,,,,,5,,,,70,64
31765,note_off,0,0,6,,,,,,,,5,,,,67,64
31765,note_off,0,0,4,,,,,,,,3,,,,64,64
31980,note_on,215,0,5,,,,,,,,4,,,,67,75
31980,note_on,215,0,1,,,,,,,,0,,,,72,75
31980,note_on,0,0,4,,,,,,,,3,,,,72,75
31980,note_on,0,0,5,,,,,,,,4,,,,70,75
31980,note_on,215,0,4,,,,,,,,3,,,,64,75
31980,note_on,0,0,6,,,,,,,,5,,,,70,75
31980,note_on,215,0,3,,,,,,,,2,,,,70,75
31980,note_on,215,0,2,,,,,,,,1,,,,64,75
31980,note_on,215,0,6,,,,,,,,5,,,,67,75
32060,note_off,80,0,1,,,,,,,,0,,,,72,64
32060,note_off,80,0,6,,,,,,,,5,,,,70,64
32060,note_off,80,0,5,,,,,,,,4,,,,70,64
32060,note_off,0,0,5,,,,,,,,4,,,,67,64
32060,note_off,0,0,6,,,,,,,,5,,,,67,64
32060,note_off,80,0,2,,,,,,,,1,,,,64,64
32060,note_off,80,0,3,,,,,,,,2,,,,70,64
32060,note_off,0,0,4,,,,,,,,3,,,,64,64
32060,note_off,80,0,4,,,,,,,,3,,,,72,64
32220,note_on,160,0,4,,,,,,,,3,,,,65,75
32220,note_on,160,0,6,,,,,,,,5,,,,67,75
32220,note_on,0,0,6,,,,,,,,5,,,,70,75
32220,note_on,160,0,1,,,,,,,,0,,,,74,75
32220,note_on,0,0,5,,,,,,,,4,,,,70,75
32220,note_on,160,0,3,,,,,,,,2,,,,70,75
32220,note_on,160,0,2,,,,,,,,1,,,,65,75
32220,note_on,160,0,5,,,,,,,,4,,,,67,75
32220,note_on,0,0,4,,,,,,,,3,,,,74,75
32580,note_off,1320,0,7,,,,,,,,6,,,,48,64
32580,note_off,1320,0,8,,,,,,,,7,,,,36,64
32620,note_off,0,0,5,,,,,,,,4,,,,67,64
32620,note_off,400,0,3,,,,,,,,2,,,,70,64
32620,note_off,0,0,6,,,,,,,,5,,,,67,64
32620,note_off,400,0,6,,,,,,,,5,,,,70,64
32620,note_off,400,0,5,,,,,,,,4,,,,70,64
32620,note_off,400,0,4,,,,,,,,3,,,,74,64
32620,note_off,0,0,4,,,,,,,,3,,,,65,64
32620,note_off,400,0,2,,,,,,,,1,,,,65,64
32620,note_off,400,0,1,,,,,,,,0,,,,74,64
32700,note_on,0,0,6,,,,,,,,5,,,,70,75
32700,note_on,80,0,1,,,,,,,,0,,,,72,75
32700,note_on,0,0,4,,,,,,,,3,,,,72,75
32700,note_on,80,0,4,,,,,,,,3,,,,64,75
32700,note_on,80,0,3,,,,,,,,2,,,,70,75
32700,note_on,120,0,7,,,,,,,,6,,,,48,75
32700,note_on,80,0,5,,,,,,,,4,,,,67,75
32700,note_on,80,0,2,,,,,,,,1,,,,64,75
32700,note_on,120,0,8,,,,,,,,7,,,,36,75
32700,note_on,0,0,5,,,,,,,,4,,,,70,75
32700,note_on,80,0,6,,,,,,,,5,,,,67,75
33205,note_off,505,0,3,,,,,,,,2,,,,70,64
33205,note_off,0,0,4,,,,,,,,3,,,,64,64
33205,note_off,0,0,6,,,,,,,,5,,,,67,64
33205,note_off,505,0,1,,,,,,,,0,,,,72,64
33205,note_off,505,0,5,,,,,,,,4,,,,70,64
33205,note_off,0,0,5,,,,,,,,4,,,,67,64
33205,note_off,505,0,2,,,,,,,,1,,,,64,64
33205,note_off,505,0,4,,,,,,,,3,,,,72,64
33205,note_off,505,0,6,,,,,,,,5,,,,70,64
33420,note_on,215,0,1,,,,,,,,0,,,,72,75
33420,note_on,215,0,6,,,,,,,,5,,,,67,75
33420,note_on,0,0,6,,,,,,,,5,,,,70,75
33420,note_on,215,0,5,,,,,,,,4,,,,67,75
33420,note_on,0,0,5,,,,,,,,4,,,,70,75
33420,note_on,215,0,4,,,,,,,,3,,,,64,75
33420,note_on,0,0,4,,,,,,,,3,,,,72,75
33420,note_on,215,0,3,,,,,,,,2,,,,70,75
33420,note_on,215,0,2,,,,,,,,1,,,,64,75
33500,note_off,80,0,4,,,,,,,,3,,,,72,64
33500,note_off,0,0,6,,,,,,,,5,,,,67,64
33500,note_off,80,0,3,,,,,,,,2,,,,70,64
33500,note_off,80,0,6,,,,,,,,5,,,,70,64
33500,note_off,80,0,2,,,,,,,,1,,,,64,64
33500,note_off,0,0,4,,,,,,,,3,,,,64,64
33500,note_off,0,0,5,,,,,,,,4,,,,67,64
33500,note_off,80,0,5,,,,,,,,4,,,,70,64
33500,note_off,80,0,1,,,,,,,,0,,,,72,64
33660,note_on,160,0,3,,,,,,,,2,,,,70,75
33660,note_on,0,0,4,,,,,,,,3,,,,74,75
33660,note_on,160,0,1,,,,,,,,0,,,,74,75
33660,note_on,0,0,6,,,,,,,,5,,,,70,75
33660,note_on,160,0,4,,,,,,,,3,,,,65,75
33660,note_on,160,0,5,,,,,,,,4,,,,67,75
33660,note_on,0,0,5,,,,,,,,4,,,,70,75
33660,note_on,160,0,2,,,,,,,,1,,,,65,75
33660,note_on,160,0,6,,,,,,,,5,,,,67,75
34020,note_off,1320,0,7,,,,,,,,6,,,,48,64
34020,note_off,1320,0,8,,,,,,,,7,,,,36,64
34060,note_off,400,0,4,,,,,,,,3,,,,74,64
34060,note_off,0,0,6,,,,,,,,5,,,,67,64
34060,note_off,400,0,2,,,,,,,,1,,,,65,64
34060,note_off,0,0,4,,,,,,,,3,,,,65,64
34060,note_off,400,0,3,,,,,,,,2,,,,70,64
34060,note_off,400,0,1,,,,,,,,0,,,,74,64
34060,note_off,0,0,5,,,,,,,,4,,,,67,64
34060,note_off,400,0,5,,,,,,,,4,,,,70,64
34060,note_off,400,0,6,,,,,,,,5,,,,70,64
34140,note_on,80,0,4,,,,,,,,3,,,,64,75
34140,note_on,0,0,5,,,,,,,,4,,,,70,75
34140,note_on,80,0,2,,,,,,,,1,,,,64,75
34140,note_on,80,0,5,,,,,,,,4,,,,67,75
34140,note_on,0,0,4,,,,,,,,3,,,,72,75
34140,note_on,80,0,6,,,,,,,,5,,,,67,75
34140,note_on,120,0,7,,,,,,,,6,,,,48,75
34140,note_on,80,0,3,,,,,,,,2,,,,70,75
34140,note_on,80,0,1,,,,,,,,0,,,,72,75
34140,note_on,0,0,6,,,,,,,,5,,,,70,75
34140,note_on,120,0,8,,,,,,,,7,,,,36,75
34260,note_off,120,0,7,,,,,,,,6,,,,48,64
34260,note_off,120,0,8,,,,,,,,7,,,,36,64
34540,note_off,400,0,4,,,,,,,,3,,,,72,64
34540,note_off,400,0,5,,,,,,,,4,,,,70,64
34540,note_off,400,0,2,,,,,,,,1,,,,64,64
34540,note_off,0,0,6,,,,,,,,5,,,,67,64
34540,note_off,400,0,6,,,,,,,,5,,,,70,64
34540,note_off,0,0,5,,,,,,,,4,,,,67,64
34540,note_off,400,0,1,,,,,,,,0,,,,72,64
34540,note_off,0,0,4,,,,,,,,3,,,,64,64
34540,note_off,400,0,3,,,,,,,,2,,,,70,64
34620,note_on,360,0,8,,,,,,,,7,,,,38,75
34620,note_on,360,0,7,,,,,,,,6,,,,50,75
34740,note_off,120,0,8,,,,,,,,7,,,,38,64
34740,note_off,120,0,7,,,,,,,,6,,,,50,64
35100,note_on,360,0,7,,,,,,,,6,,,,52,60
35100,note_on,360,0,8,,,,,,,,7,,,,40,60
35220,note_off,120,0,7,,,,,,,,6,,,,52,64
35220,note_off,120,0,8,,,,,,,,7,,,,40,64
35580,note_on,360,0,7,,,,,,,,6,,,,53,45
35580,note_on,360,0,8,,,,,,,,7,,,,41,45
35580,note_on,1040,0,1,,,,,,,,0,,,,77,60
35980,note_off,400,0,8,,,,,,,,7,,,,41,64
35980,note_off,400,0,7,,,,,,,,6,,,,53,64
36175,note_off,595,0,1,,,,,,,,0,,,,77,64
36300,note_on,125,0,1,,,,,,,,0,,,,77,60
36380,note_off,80,0,1,,,,,,,,0,,,,77,64
36540,note_on,2000,0,4,,,,,,,,3,,,,65,45
36540,note_on,160,0,1,,,,,,,,0,,,,79,60
36540,note_on,2000,0,5,,,,,,,,4,,,,60,45
36540,note_on,2000,0,6,,,,,,,,5,,,,57,45
36940,note_off,400,0,5,,,,,,,,4,,,,60,64
36940,note_off,400,0,6,,,,,,,,5,,,,57,64
36940,note_off,400,0,1,,,,,,,,0,,,,79,64
36940,note_off,400,0,4,,,,,,,,3,,,,65,64
37020,note_on,1040,0,8,,,,,,,,7,,,,38,45
37020,note_on,80,0,1,,,,,,,,0,,,,77,60
37020,note_on,1040,0,7,,,,,,,,6,,,,50,45
37420,note_off,400,0,7,,,,,,,,6,,,,50,64
37420,note_off,400,0,8,,,,,,,,7,,,,38,64
37615,note_off,595,0,1,,,,,,,,0,,,,77,64
37740,note_on,125,0,1,,,,,,,,0,,,,77,60
37820,note_off,80,0,1,,,,,,,,0,,,,77,64
37980,note_on,160,0,1,,,,,,,,0,,,,79,60
37980,note_on,1040,0,5,,,,,,,,4,,,,62,45
37980,note_on,1040,0,6,,,,,,,,5,,,,57,45
37980,note_on,1040,0,4,,,,,,,,3,,,,65,45
38380,note_off,400,0,1,,,,,,,,0,,,,79,64
38380,note_off,400,0,5,,,,,,,,4,,,,62,64
38380,note_off,400,0,4,,,,,,,,3,,,,65,64
38380,note_off,400,0,6,,,,,,,,5,,,,57,64
38460,note_on,80,0,1,,,,,,,,0,,,,77,60
38460,note_on,1040,0,7,,,,,,,,6,,,,47,45
38460,note_on,1040,0,8,,,,,,,,7,,,,35,45
38860,note_off,400,0,8,,,,,,,,7,,,,35,64
38860,note_off,400,0,7,,,,,,,,6,,,,47,64
39055,note_off,595,0,1,,,,,,,,0,,,,77,64
39180,note_on,125,0,1,,,,,,,,0,,,,77,60
39260,note_off,80,0,1,,,,,,,,0,,,,77,64
39420,note_on,1040,0,6,,,,,,,,5,,,,56,45
39420,note_on,1040,0,5,,,,,,,,4,,,,62,45
39420,note_on,1040,0,4,,,,,,,,3,,,,65,45
39420,note_on,160,0,1,,,,,,,,0,,,,79,60
39820,note_off,400,0,5,,,,,,,,4,,,,62,64
39820,note_off,400,0,4,,,,,,,,3,,,,65,64
39820,note_off,400,0,1,,,,,,,,0,,,,79,64
39820,note_off,400,0,6,,,,,,,,5,,,,56,64
39900,note_on,1040,0,8,,,,,,,,7,,,,32,45
39900,note_on,1040,0,7,,,,,,,,6,,,,44,45
39900,note_on,80,0,1,,,,,,,,0,,,,77,60
40300,note_off,400,0,8,,,,,,,,7,,,,32,64
40300,note_off,400,0,7,,,,,,,,6,,,,44,64
40495,note_off,595,0,1,,,,,,,,0,,,,77,64
40620,note_on,125,0,1,,,,,,,,0,,,,77,60
40700,note_off,80,0,1,,,,,,,,0,,,,77,64
40860,note_on,1040,0,4,,,,,,,,3,,,,65,45
40860,note_on,160,0,1,,,,,,,,0,,,,79,60
40860,note_on,1040,0,6,,,,,,,,5,,,,59,45
40860,note_on,1040,0,5,,,,,,,,4,,,,62,45
41260,note_off,400,0,5,,,,,,,,4,,,,62,64
41260,note_off,400,0,4,,,,,,,,3,,,,65,64
41260,note_off,400,0,1,,,,,,,,0,,,,79,64
41260,note_off,400,0,6,,,,,,,,5,,,,59,64
41340,note_on,80,0,6,,,,,,,,5,,,,57,45
41340,note_on,80,0,1,,,,,,,,0,,,,76,60
41340,note_on,1040,0,8,,,,,,,,7,,,,33,45
41340,note_on,80,0,4,,,,,,,,3,,,,64,45
41340,note_on,1040,0,7,,,,,,,,6,,,,45,45
41340,note_on,80,0,5,,,,,,,,4,,,,60,45
41740,note_off,400,0,7,,,,,,,,6,,,,45,64
41740,note_off,400,0,8,,,,,,,,7,,,,33,64
41935,note_off,595,0,1,,,,,,,,0,,,,76,64
41935,note_off,595,0,4,,,,,,,,3,,,,64,64
41980,note_off,640,0,5,,,,,,,,4,,,,60,64
41980,note_off,640,0,6,,,,,,,,5,,,,57,64
42060,note_on,125,0,1,,,,,,,,0,,,,76,60
42060,note_on,125,0,4,,,,,,,,3,,,,64,45
42060,note_on,80,0,5,,,,,,,,4,,,,60,45
42060,note_on,80,0,6,,,,,,,,5,,,,57,45
42140,note_off,80,0,4,,,,,,,,3,,,,64,64
42140,note_off,80,0,1,,,,,,,,0,,,,76,64
42295,note_off,235,0,6,,,,,,,,5,,,,57,64
42295,note_off,235,0,5,,,,,,,,4,,,,60,64
42300,note_on,5,0,6,,,,,,,,5,,,,57,45
42300,note_on,160,0,1,,,,,,,,0,,,,77,60
42300,note_on,5,0,5,,,,,,,,4,,,,62,45
42300,note_on,160,0,4,,,,,,,,3,,,,65,45
42700,note_off,400,0,5,,,,,,,,4,,,,62,64
42700,note_off,400,0,6,,,,,,,,5,,,,57,64
42700,note_off,400,0,4,,,,,,,,3,,,,65,64
42700,note_off,400,0,1,,,,,,,,0,,,,77,64
42780,note_on,80,0,4,,,,,,,,3,,,,64,45
42780,note_on,80,0,5,,,,,,,,4,,,,60,45
42780,note_on,80,0,1,,,,,,,,0,,,,76,60
42780,note_on,1040,0,7,,,,,,,,6,,,,45,45
42780,note_on,1040,0,8,,,,,,,,7,,,,33,45
42780,note_on,80,0,6,,,,,,,,5,,,,57,45
43180,note_off,400,0,8,,,,,,,,7,,,,33,64
43180,note_off,400,0,7,,,,,,,,6,,,,45,64
43375,note_off,595,0,1,,,,,,,,0,,,,76,64
43375,note_off,595,0,4,,,,,,,,3,,,,64,64
43420,note_off,640,0,5,,,,,,,,4,,,,60,64
43420,note_off,640,0,6,,,,,,,,5,,,,57,64
43500,note_on,80,0,6,,,,,,,,5,,,,57,45
43500,note_on,125,0,4,,,,,,,,3,,,,64,45
43500,note_on,125,0,1,,,,,,,,0,,,,76,60
43500,note_on,80,0,5,,,,,,,,4,,,,60,45
43580,note_off,80,0,1,,,,,,,,0,,,,76,64
43580,note_off,80,0,4,,,,,,,,3,,,,64,64
43735,note_off,235,0,6,,,,,,,,5,,,,57,64
43735,note_off,235,0,5,,,,,,,,4,,,,60,64
43740,note_on,5,0,5,,,,,,,,4,,,,62,45
43740,note_on,5,0,6,,,,,,,,5,,,,57,45
43740,note_on,160,0,4,,,,,,,,3,,,,65,45
43740,note_on,160,0,1,,,,,,,,0,,,,77,60
44140,note_off,400,0,5,,,,,,,,4,,,,62,64
44140,note_off,400,0,4,,,,,,,,3,,,,65,64
44140,note_off,400,0,1,,,,,,,,0,,,,77,64
44140,note_off,400,0,6,,,,,,,,5,,,,57,64
44220,note_on,80,0,4,,,,,,,,3,,,,64,45
44220,note_on,1040,0,8,,,,,,,,7,,,,31,45
44220,note_on,80,0,1,,,,,,,,0,,,,76,60
44220,note_on,1040,0,7,,,,,,,,6,,,,43,45
44220,note_on,80,0,5,,,,,,,,4,,,,60,45
44220,note_on,80,0,6,,,,,,,,5,,,,55,45
44340,note_off,120,0,1,,,,,,,,0,,,,76,64
44340,note_off,120,0,4,,,,,,,,3,,,,64,64
44620,note_off,400,0,8,,,,,,,,7,,,,31,64
44620,note_off,400,0,7,,,,,,,,6,,,,43,64
44620,note_off,400,0,5,,,,,,,,4,,,,60,64
44620,note_off,400,0,6,,,,,,,,5,,,,55,64
44700,note_on,80,0,6,,,,,,,,5,,,,55,45
44700,note_on,80,0,8,,,,,,,,7,,,,31,45
44700,note_on,80,0,7,,,,,,,,6,,,,43,45
44700,note_on,360,0,4,,,,,,,,3,,,,64,45
44700,note_on,360,0,1,,,,,,,,0,,,,76,60
44700,note_on,80,0,5,,,,,,,,4,,,,60,45
44820,note_off,120,0,1,,,,,,,,0,,,,76,64
44820,note_off,120,0,4,,,,,,,,3,,,,64,64
45100,note_off,400,0,6,,,,,,,,5,,,,55,64
45100,note_off,400,0,7,,,,,,,,6,,,,43,64
45100,note_off,400,0,5,,,,,,,,4,,,,60,64
45100,note_off,400,0,8,,,,,,,,7,,,,31,64
45180,note_on,80,0,5,,,,,,,,4,,,,59,45
45180,note_on,80,0,6,,,,,,,,5,,,,55,45
45180,note_on,360,0,4,,,,,,,,3,,,,62,45
45180,note_on,360,0,1,,,,,,,,0,,,,74,60
45180,note_on,80,0,8,,,,,,,,7,,,,31,45
45180,note_on,80,0,7,,,,,,,,6,,,,43,45
45300,note_off,120,0,4,,,,,,,,3,,,,62,64
45300,note_off,120,0,1,,,,,,,,0,,,,74,64
45580,note_off,400,0,7,,,,,,,,6,,,,43,64
45580,note_off,400,0,8,,,,,,,,7,,,,31,64
45580,note_off,400,0,6,,,,,,,,5,,,,55,64
45580,note_off,400,0,5,,,,,,,,4,,,,59,64
45660,note_on,360,0,4,,,,,,,,3,,,,60,45
45660,note_on,80,0,5,,,,,,,,4,,,,60,45
45660,note_on,80,0,6,,,,,,,,5,,,,52,45
45660,note_on,360,0,1,,,,,,,,0,,,,72,60
45660,note_on,80,0,7,,,,,,,,6,,,,48,45
45660,note_on,80,0,8,,,,,,,,7,,,,36,45
45900,note_off,240,0,4,,,,,,,,3,,,,60,64
45900,note_on,0,0,4,,,,,,,,3,,,,59,45
45900,note_off,240,0,1,,,,,,,,0,,,,72,64
45900,note_on,0,0,1,,,,,,,,0,,,,71,60
46060,note_off,400,0,8,,,,,,,,7,,,,36,64
46060,note_off,400,0,5,,,,,,,,4,,,,60,64
46060,note_off,400,0,7,,,,,,,,6,,,,48,64
46060,note_off,400,0,6,,,,,,,,5,,,,52,64
46140,note_on,0,0,1,,,,,,,,0,,,,69,60
46140,note_off,240,0,1,,,,,,,,0,,,,71,64
46140,note_on,0,0,4,,,,,,,,3,,,,57,45
46140,note_off,240,0,4,,,,,,,,3,,,,59,64
46380,note_on,0,0,1,,,,,,,,0,,,,71,60
46380,note_off,240,0,1,,,,,,,,0,,,,69,64
46380,note_off,240,0,4,,,,,,,,3,,,,57,64
46380,note_on,0,0,4,,,,,,,,3,,,,59,45
46620,note_on,0,0,4,,,,,,,,3,,,,60,45
46620,note_off,240,0,1,,,,,,,,0,,,,71,64
46620,note_on,0,0,1,,,,,,,,0,,,,72,60
46620,note_off,240,0,4,,,,,,,,3,,,,59,64
46860,note_off,240,0,4,,,,,,,,3,,,,60,64
46860,note_on,0,0,1,,,,,,,,0,,,,74,60
46860,note_off,240,0,1,,,,,,,,0,,,,72,64
46860,note_on,0,0,4,,,,,,,,3,,,,62,45
47100,note_on,1040,0,6,,,,,,,,5,,,,57,45
47100,note_off,240,0,4,,,,,,,,3,,,,62,64
47100,note_on,1040,0,7,,,,,,,,6,,,,45,45
47100,note_on,0,0,1,,,,,,,,0,,,,76,60
47100,note_on,0,0,4,,,,,,,,3,,,,64,45
47100,note_off,240,0,1,,,,,,,,0,,,,74,64
47100,note_on,1040,0,5,,,,,,,,4,,,,61,45
47100,note_on,1040,0,8,,,,,,,,7,,,,33,45
47500,note_off,400,0,7,,,,,,,,6,,,,45,64
47500,note_off,400,0,8,,,,,,,,7,,,,33,64
47695,note_off,595,0,6,,,,,,,,5,,,,57,64
47695,note_off,595,0,4,,,,,,,,3,,,,64,64
47695,note_off,595,0,5,,,,,,,,4,,,,61,64
47695,note_off,595,0,1,,,,,,,,0,,,,76,64
47820,note_on,125,0,5,,,,,,,,4,,,,61,45
47820,note_on,125,0,4,,,,,,,,3,,,,64,45
47820,note_on,125,0,6,,,,,,,,5,,,,57,45
47820,note_on,125,0,1,,,,,,,,0,,,,76,60
47900,note_off,80,0,4,,,,,,,,3,,,,64,64
47900,note_off,80,0,6,,,,,,,,5,,,,57,64
47900,note_off,80,0,1,,,,,,,,0,,,,76,64
47900,note_off,80,0,5,,,,,,,,4,,,,61,64
48060,note_on,160,0,6,,,,,,,,5,,,,57,45
48060,note_on,160,0,1,,,,,,,,0,,,,77,60
48060,note_on,160,0,5,,,,,,,,4,,,,62,45
48060,note_on,560,0,8,,,,,,,,7,,,,38,45
48060,note_on,560,0,7,,,,,,,,6,,,,50,45
48060,note_on,160,0,4,,,,,,,,3,,,,65,45
48460,note_off,400,0,7,,,,,,,,6,,,,50,64
48460,note_off,400,0,8,,,,,,,,7,,,,38,64
48460,note_off,400,0,4,,,,,,,,3,,,,65,64
48460,note_off,400,0,6,,,,,,,,5,,,,57,64
48460,note_off,400,0,5,,,,,,,,4,,,,62,64
48460,note_off,400,0,1,,,,,,,,0,,,,77,64
48540,note_on,80,0,4,,,,,,,,3,,,,64,45
48540,note_on,80,0,1,,,,,,,,0,,,,76,60
48540,note_on,80,0,7,,,,,,,,6,,,,45,45
48540,note_on,80,0,5,,,,,,,,4,,,,61,45
48540,note_on,80,0,8,,,,,,,,7,,,,33,45
48540,note_on,80,0,6,,,,,,,,5,,,,57,45
48940,note_off,400,0,8,,,,,,,,7,,,,33,64
48940,note_off,400,0,7,,,,,,,,6,,,,45,64
49135,note_off,595,0,5,,,,,,,,4,,,,61,64
49135,note_off,595,0,1,,,,,,,,0,,,,76,64
49135,note_off,595,0,6,,,,,,,,5,,,,57,64
49135,note_off,595,0,4,,,,,,,,3,,,,64,64
49260,note_on,125,0,5,,,,,,,,4,,,,61,45
49260,note_on,125,0,4,,,,,,,,3,,,,64,45
49260,note_on,125,0,6,,,,,,,,5,,,,57,45
49260,note_on,125,0,1,,,,,,,,0,,,,76,58
49340,note_off,80,0,4,,,,,,,,3,,,,64,64
49340,note_off,80,0,5,,,,,,,,4,,,,61,64
49340,note_off,80,0,6,,,,,,,,5,,,,57,64
49340,note_off,80,0,1,,,,,,,,0,,,,76,64
49500,note_on,160,0,4,,,,,,,,3,,,,65,45
49500,note_on,160,0,1,,,,,,,,0,,,,77,57
49500,note_on,160,0,6,,,,,,,,5,,,,57,45
49500,note_on,160,0,5,,,,,,,,4,,,,62,45
49500,note_on,560,0,7,,,,,,,,6,,,,50,45
49500,note_on,560,0,8,,,,,,,,7,,,,38,45
49620,note_off,120,0,5,,,,,,,,4,,,,62,64
49900,note_off,400,0,4,,,,,,,,3,,,,65,64
49900,note_off,400,0,8,,,,,,,,7,,,,38,64
49900,note_off,400,0,6,,,,,,,,5,,,,57,64
49900,note_off,400,0,1,,,,,,,,0,,,,77,64
49900,note_off,400,0,7,,,,,,,,6,,,,50,64
49980,note_on,80,0,1,,,,,,,,0,,,,76,54
49980,note_on,80,0,8,,,,,,,,7,,,,31,45
49980,note_on,80,0,4,,,,,,,,3,,,,64,45
49980,note_on,360,0,5,,,,,,,,4,,,,60,45
49980,note_on,80,0,7,,,,,,,,6,,,,43,45
49980,note_on,80,0,6,,,,,,,,5,,,,55,45
50100,note_off,120,0,1,,,,,,,,0,,,,76,64
50100,note_off,120,0,4,,,,,,,,3,,,,64,64
50100,note_off,120,0,7,,,,,,,,6,,,,43,64
50100,note_off,120,0,6,,,,,,,,5,,,,55,64
50100,note_off,120,0,5,,,,,,,,4,,,,60,64
50100,note_off,120,0,8,,,,,,,,7,,,,31,64
50460,note_on,360,0,4,,,,,,,,3,,,,64,45
50460,note_on,360,0,5,,,,,,,,4,,,,60,45
50460,note_on,360,0,7,,,,,,,,6,,,,43,45
50460,note_on,360,0,6,,,,,,,,5,,,,55,45
50460,note_on,360,0,1,,,,,,,,0,,,,76,51
50460,note_on,360,0,8,,,,,,,,7,,,,31,45
50580,note_off,120,0,1,,,,,,,,0,,,,76,64
50580,note_off,120,0,4,,,,,,,,3,,,,64,64
50580,note_off,120,0,5,,,,,,,,4,,,,60,64
50580,note_off,120,0,6,,,,,,,,5,,,,55,64
50580,note_off,120,0,7,,,,,,,,6,,,,43,64
50580,note_off,120,0,8,,,,,,,,7,,,,31,64
50940,note_on,360,0,7,,,,,,,,6,,,,43,45
50940,note_on,360,0,8,,,,,,,,7,,,,31,45
50940,note_on,360,0,6,,,,,,,,5,,,,55,45
50940,note_on,360,0,4,,,,,,,,3,,,,62,45
50940,note_on,360,0,1,,,,,,,,0,,,,74,48
50940,note_on,360,0,5,,,,,,,,4,,,,59,45
51060,note_off,120,0,5,,,,,,,,4,,,,59,64
51060,note_off,120,0,7,,,,,,,,6,,,,43,64
51060,note_off,120,0,8,,,,,,,,7,,,,31,64
51060,note_off,120,0,4,,,,,,,,3,,,,62,64
51060,note_off,120,0,1,,,,,,,,0,,,,74,64
51060,note_off,120,0,6,,,,,,,,5,,,,55,64
51420,note_on,360,0,5,,,,,,,,4,,,,60,45
51420,note_on,360,0,6,,,,,,,,5,,,,52,45
51420,note_on,360,0,8,,,,,,,,7,,,,36,45
51420,note_on,360,0,4,,,,,,,,3,,,,60,45
51420,note_on,360,0,1,,,,,,,,0,,,,72,45
51420,note_on,360,0,7,,,,,,,,6,,,,48,45
51820,note_off,400,0,5,,,,,,,,4,,,,60,64
51820,note_off,400,0,6,,,,,,,,5,,,,52,64
51820,note_off,400,0,4,,,,,,,,3,,,,60,64
51820,note_off,400,0,1,,,,,,,,0,,,,72,64
51820,note_off,400,0,7,,,,,,,,6,,,,48,64
51820,note_off,400,0,8,,,,,,,,7,,,,36,64
52380,program_change,560,0,6,,,,,,,,5,,,50,,
52380,note_on,0,0,6,,,,,,,,5,,,,60,45
52380,note_on,560,0,7,,,,,,,,6,,,,48,45
52380,note_on,560,0,4,,,,,,,,3,,,,60,45
52380,note_on,560,0,8,,,,,,,,7,,,,36,45
52535,note_off,155,0,8,,,,,,,,7,,,,36,64
52540,note_off,160,0,7,,,,,,,,6,,,,48,64
52540,note_on,0,0,7,,,,,,,,6,,,,50,45
52540,note_on,0,0,4,,,,,,,,3,,,,62,45
52540,note_off,160,0,4,,,,,,,,3,,,,60,64
52540,note_off,160,0,6,,,,,,,,5,,,,60,64
52540,note_on,5,0,8,,,,,,,,7,,,,38,45
52540,note_on,0,0,6,,,,,,,,5,,,,62,45
52695,note_off,155,0,8,,,,,,,,7,,,,38,64
52700,note_on,0,0,4,,,,,,,,3,,,,64,45
52700,note_off,160,0,4,,,,,,,,3,,,,62,64
52700,note_on,5,0,8,,,,,,,,7,,,,40,45
52700,note_off,160,0,6,,,,,,,,5,,,,62,64
52700,note_off,160,0,7,,,,,,,,6,,,,50,64
52700,note_on,0,0,7,,,,,,,,6,,,,52,45
52700,note_on,0,0,6,,,,,,,,5,,,,64,45
52855,note_off,155,0,8,,,,,,,,7,,,,40,64
52855,note_off,155,0,6,,,,,,,,5,,,,64,64
52855,note_off,155,0,4,,,,,,,,3,,,,64,64
52855,note_off,155,0,7,,,,,,,,6,,,,52,64
52860,set_tempo,52020,1,0,229007,,,,,,,,,,,,
52860,note_on,5,0,8,,,,,,,,7,,,,41,45
52860,note_on,5,0,4,,,,,,,,3,,,,65,45
52860,program_change,5,0,6,,,,,,,,5,,,50,,
52860,note_on,0,0,6,,,,,,,,5,,,,65,45
52860,note_on,5,0,7,,,,,,,,6,,,,53,45
53365,note_off,505,0,4,,,,,,,,3,,,,65,64
53365,note_off,505,0,6,,,,,,,,5,,,,65,64
53365,note_off,505,0,8,,,,,,,,7,,,,41,64
53365,note_off,505,0,7,,,,,,,,6,,,,53,64
53580,note_on,215,0,8,,,,,,,,7,,,,41,45
53580,note_on,215,0,7,,,,,,,,6,,,,53,45
53580,note_on,215,0,4,,,,,,,,3,,,,65,45
53580,note_on,215,0,6,,,,,,,,5,,,,65,45
53660,note_off,80,0,8,,,,,,,,7,,,,41,64
53660,note_off,80,0,4,,,,,,,,3,,,,65,64
53660,note_off,80,0,6,,,,,,,,5,,,,65,64
53660,note_off,80,0,7,,,,,,,,6,,,,53,64
53820,note_on,160,0,7,,,,,,,,6,,,,55,45
53820,note_on,160,0,8,,,,,,,,7,,,,43,45
53820,note_on,160,0,4,,,,,,,,3,,,,67,45
53820,note_on,160,0,6,,,,,,,,5,,,,67,45
54060,note_off,240,0,6,,,,,,,,5,,,,67,64
54060,note_off,240,0,7,,,,,,,,6,,,,55,64
54060,note_off,240,0,8,,,,,,,,7,,,,43,64
54060,note_off,240,0,4,,,,,,,,3,,,,67,64
54300,note_on,240,0,4,,,,,,,,3,,,,65,45
54300,note_on,240,0,6,,,,,,,,5,,,,65,45
54300,note_on,240,0,7,,,,,,,,6,,,,53,45
54300,note_on,240,0,8,,,,,,,,7,,,,41,45
54805,note_off,505,0,7,,,,,,,,6,,,,53,64
54805,note_off,505,0,4,,,,,,,,3,,,,65,64
54805,note_off,505,0,8,,,,,,,,7,,,,41,64
54835,note_off,535,0,6,,,,,,,,5,,,,65,64
55020,note_on,215,0,4,,,,,,,,3,,,,65,45
55020,note_on,185,0,6,,,,,,,,5,,,,65,45
55020,note_on,215,0,8,,,,,,,,7,,,,41,45
55020,note_on,215,0,7,,,,,,,,6,,,,53,45
55100,note_off,80,0,7,,,,,,,,6,,,,53,64
55100,note_off,80,0,8,,,,,,,,7,,,,41,64
55100,note_off,80,0,6,,,,,,,,5,,,,65,64
55100,note_off,80,0,4,,,,,,,,3,,,,65,64
55260,note_on,160,0,4,,,,,,,,3,,,,64,45
55260,note_on,160,0,8,,,,,,,,7,,,,40,45
55260,note_on,160,0,7,,,,,,,,6,,,,52,45
55260,note_on,160,0,6,,,,,,,,5,,,,64,45
55500,note_off,240,0,6,,,,,,,,5,,,,64,64
55500,note_off,240,0,8,,,,,,,,7,,,,40,64
55500,note_off,240,0,7,,,,,,,,6,,,,52,64
55500,note_off,240,0,4,,,,,,,,3,,,,64,64
55740,note_on,240,0,6,,,,,,,,5,,,,62,45
55740,note_on,240,0,4,,,,,,,,3,,,,62,45
55740,note_on,240,0,7,,,,,,,,6,,,,50,45
55740,note_on,240,0,8,,,,,,,,7,,,,38,45
55860,note_off,120,0,8,,,,,,,,7,,,,38,64
55860,note_off,120,0,4,,,,,,,,3,,,,62,64
55860,note_off,120,0,6,,,,,,,,5,,,,62,64
55860,note_off,120,0,7,,,,,,,,6,,,,50,64
56220,note_on,360,0,6,,,,,,,,5,,,,62,45
56220,note_on,360,0,8,,,,,,,,7,,,,38,45
56220,note_on,360,0,7,,,,,,,,6,,,,50,45
56220,note_on,360,0,4,,,,,,,,3,,,,62,45
56340,note_off,120,0,7,,,,,,,,6,,,,50,64
56340,note_off,120,0,4,,,,,,,,3,,,,62,64
56340,note_off,120,0,8,,,,,,,,7,,,,38,64
56340,note_off,120,0,6,,,,,,,,5,,,,62,64
56700,note_on,360,0,7,,,,,,,,6,,,,45,45
56700,note_on,360,0,4,,,,,,,,3,,,,57,45
56700,note_on,360,0,8,,,,,,,,7,,,,33,45
56700,note_on,360,0,6,,,,,,,,5,,,,57,45
56820,note_off,120,0,4,,,,,,,,3,,,,57,64
56820,note_off,120,0,8,,,,,,,,7,,,,33,64
56820,note_off,120,0,6,,,,,,,,5,,,,57,64
56820,note_off,120,0,7,,,,,,,,6,,,,45,64
57180,note_on,360,0,7,,,,,,,,6,,,,50,45
57180,note_on,360,0,4,,,,,,,,3,,,,62,45
57180,note_on,360,0,8,,,,,,,,7,,,,38,45
57180,note_on,360,0,6,,,,,,,,5,,,,62,45
57300,note_off,120,0,7,,,,,,,,6,,,,50,64
57300,note_off,120,0,4,,,,,,,,3,,,,62,64
57300,note_off,120,0,8,,,,,,,,7,,,,38,64
57300,note_off,120,0,6,,,,,,,,5,,,,62,64
57960,note_on,660,0,8,,,,,,,,7,,,,36,75
57960,note_on,660,0,4,,,,,,,,3,,,,72,75
57960,note_on,6140,0,5,,,,,,,,4,,,,60,75
57960,note_on,660,0,7,,,,,,,,6,,,,48,75
58200,note_on,0,0,8,,,,,,,,7,,,,38,75
58200,note_off,240,0,5,,,,,,,,4,,,,60,64
58200,note_off,240,0,8,,,,,,,,7,,,,36,64
58200,note_off,240,0,7,,,,,,,,6,,,,48,64
58200,note_on,0,0,4,,,,,,,,3,,,,74,75
58200,note_on,0,0,7,,,,,,,,6,,,,50,75
58200,note_on,0,0,5,,,,,,,,4,,,,62,75
58200,note_off,240,0,4,,,,,,,,3,,,,72,64
58440,note_on,0,0,4,,,,,,,,3,,,,76,75
58440,note_on,0,0,7,,,,,,,,6,,,,52,75
58440,note_on,0,0,5,,,,,,,,4,,,,64,75
58440,note_off,240,0,5,,,,,,,,4,,,,62,64
58440,note_off,240,0,8,,,,,,,,7,,,,38,64
58440,note_off,240,0,4,,,,,,,,3,,,,74,64
58440,note_off,240,0,7,,,,,,,,6,,,,50,64
58440,note_on,0,0,8,,,,,,,,7,,,,40,75
58675,note_off,235,0,7,,,,,,,,6,,,,52,64
58675,note_off,235,0,5,,,,,,,,4,,,,64,64
58675,note_off,235,0,4,,,,,,,,3,,,,76,64
58675,note_off,235,0,8,,,,,,,,7,,,,40,64
58680,note_on,24140,0,2,,,,,,,,1,,,,57,75
58680,note_on,5,0,7,,,,,,,,6,,,,53,75
58680,note_on,0,0,4,,,,,,,,3,,,,77,75
58680,note_on,5,0,4,,,,,,,,3,,,,69,75
58680,note_on,6860,0,1,,,,,,,,0,,,,72,75
58680,note_on,24140,0,3,,,,,,,,2,,,,65,75
58680,note_on,5,0,8,,,,,,,,7,,,,41,75
58680,program_change,1380,0,6,,,,,,,,5,,,48,,
58680,note_on,5,0,5,,,,,,,,4,,,,57,75
58680,note_on,0,0,5,,,,,,,,4,,,,65,75
58680,note_on,0,0,6,,,,,,,,5,,,,60,75
59185,note_off,505,0,2,,,,,,,,1,,,,57,64
59185,note_off,505,0,8,,,,,,,,7,,,,41,64
59185,note_off,0,0,4,,,,,,,,3,,,,69,64
59185,note_off,505,0,4,,,,,,,,3,,,,77,64
59185,note_off,505,0,3,,,,,,,,2,,,,65,64
59185,note_off,505,0,6,,,,,,,,5,,,,60,64
59185,note_off,0,0,5,,,,,,,,4,,,,57,64
59185,note_off,505,0,5,,,,,,,,4,,,,65,64
59185,note_off,505,0,1,,,,,,,,0,,,,72,64
59185,note_off,505,0,7,,,,,,,,6,,,,53,64
59400,note_on,215,0,4,,,,,,,,3,,,,69,75
59400,note_on,0,0,4,,,,,,,,3,,,,77,75
59400,note_on,215,0,2,,,,,,,,1,,,,57,75
59400,note_on,215,0,8,,,,,,,,7,,,,41,75
59400,note_on,215,0,3,,,,,,,,2,,,,65,75
59400,note_on,215,0,1,,,,,,,,0,,,,72,75
59400,note_on,215,0,7,,,,,,,,6,,,,53,75
59400,note_on,215,0,6,,,,,,,,5,,,,60,75
59400,note_on,0,0,5,,,,,,,,4,,,,65,75
59400,note_on,215,0,5,,,,,,,,4,,,,57,75
59480,note_off,80,0,6,,,,,,,,5,,,,60,64
59480,note_off,80,0,2,,,,,,,,1,,,,57,64
59480,note_off,0,0,4,,,,,,,,3,,,,69,64
59480,note_off,80,0,4,,,,,,,,3,,,,77,64
59480,note_off,0,0,5,,,,,,,,4,,,,57,64
59480,note_off,80,0,5,,,,,,,,4,,,,65,64
59480,note_off,80,0,1,,,,,,,,0,,,,72,64
59480,note_off,80,0,8,,,,,,,,7,,,,41,64
59480,note_off,80,0,7,,,,,,,,6,,,,53,64
59635,note_off,235,0,3,,,,,,,,2,,,,65,64
59640,note_on,0,0,5,,,,,,,,4,,,,67,75
59640,note_on,160,0,6,,,,,,,,5,,,,64,75
59640,note_on,160,0,2,,,,,,,,1,,,,60,75
59640,note_on,5,0,3,,,,,,,,2,,,,67,75
59640,note_on,160,0,1,,,,,,,,0,,,,76,75
59640,note_on,160,0,7,,,,,,,,6,,,,48,75
59640,note_on,160,0,8,,,,,,,,7,,,,36,75
59640,note_on,160,0,4,,,,,,,,3,,,,72,75
59640,note_on,160,0,5,,,,,,,,4,,,,60,75
59640,note_on,0,0,4,,,,,,,,3,,,,79,75
59880,note_off,240,0,6,,,,,,,,5,,,,64,64
59880,note_off,240,0,7,,,,,,,,6,,,,48,64
59880,note_off,240,0,4,,,,,,,,3,,,,79,64
59880,note_off,240,0,3,,,,,,,,2,,,,67,64
59880,note_off,240,0,5,,,,,,,,4,,,,67,64
59880,note_off,240,0,8,,,,,,,,7,,,,36,64
59880,note_off,0,0,4,,,,,,,,3,,,,72,64
59880,note_off,240,0,1,,,,,,,,0,,,,76,64
59880,note_off,240,0,2,,,,,,,,1,,,,60,64
59880,note_off,0,0,5,,,,,,,,4,,,,60,64
60120,note_on,240,0,5,,,,,,,,4,,,,60,75
60120,note_on,240,0,8,,,,,,,,7,,,,41,75
60120,note_on,0,0,5,,,,,,,,4,,,,69,75
60120,note_on,240,0,2,,,,,,,,1,,,,65,75
60120,note_on,240,0,3,,,,,,,,2,,,,69,75
60120,note_on,240,0,7,,,,,,,,6,,,,53,75
60120,note_on,240,0,6,,,,,,,,5,,,,65,75
60120,note_on,240,0,4,,,,,,,,3,,,,72,75
60120,note_on,0,0,4,,,,,,,,3,,,,81,75
60120,note_on,240,0,1,,,,,,,,0,,,,77,75
60625,note_off,505,0,2,,,,,,,,1,,,,65,64
60625,note_off,505,0,3,,,,,,,,2,,,,69,64
60625,note_off,505,0,7,,,,,,,,6,,,,53,64
60625,note_off,505,0,8,,,,,,,,7,,,,41,64
60625,note_off,505,0,6,,,,,,,,5,,,,65,64
60625,note_off,0,0,4,,,,,,,,3,,,,72,64
60625,note_off,0,0,5,,,,,,,,4,,,,60,64
60625,note_off,505,0,5,,,,,,,,4,,,,69,64
60625,note_off,505,0,4,,,,,,,,3,,,,81,64
60625,note_off,505,0,1,,,,,,,,0,,,,77,64
60840,note_on,215,0,1,,,,,,,,0,,,,77,75
60840,note_on,215,0,8,,,,,,,,7,,,,41,75
60840,note_on,215,0,6,,,,,,,,5,,,,65,75
60840,note_on,0,0,5,,,,,,,,4,,,,69,75
60840,note_on,215,0,5,,,,,,,,4,,,,60,75
60840,note_on,215,0,7,,,,,,,,6,,,,53,75
60840,note_on,215,0,3,,,,,,,,2,,,,69,75
60840,note_on,0,0,4,,,,,,,,3,,,,81,75
60840,note_on,215,0,4,,,,,,,,3,,,,72,75
60840,note_on,215,0,2,,,,,,,,1,,,,65,75
60920,note_off,80,0,8,,,,,,,,7,,,,41,64
60920,note_off,80,0,6,,,,,,,,5,,,,65,64
60920,note_off,0,0,5,,,,,,,,4,,,,60,64
60920,note_off,80,0,5,,,,,,,,4,,,,69,64
60920,note_off,80,0,1,,,,,,,,0,,,,77,64
60920,note_off,80,0,7,,,,,,,,6,,,,53,64
60920,note_off,80,0,3,,,,,,,,2,,,,69,64
60920,note_off,80,0,4,,,,,,,,3,,,,81,64
60920,note_off,80,0,2,,,,,,,,1,,,,65,64
60920,note_off,0,0,4,,,,,,,,3,,,,72,64
61080,note_on,160,0,4,,,,,,,,3,,,,74,75
61080,note_on,0,0,4,,,,,,,,3,,,,82,75
61080,note_on,160,0,5,,,,,,,,4,,,,62,75
61080,note_on,160,0,8,,,,,,,,7,,,,34,75
61080,note_on,0,0,5,,,,,,,,4,,,,70,75
61080,note_on,160,0,2,,,,,,,,1,,,,62,75
61080,note_on,160,0,1,,,,,,,,0,,,,77,75
61080,note_on,160,0,3,,,,,,,,2,,,,70,75
61080,note_on,160,0,7,,,,,,,,6,,,,46,75
61080,note_on,160,0,6,,,,,,,,5,,,,65,75
61320,note_off,240,0,8,,,,,,,,7,,,,34,64
61320,note_off,0,0,5,,,,,,,,4,,,,62,64
61320,note_off,240,0,5,,,,,,,,4,,,,70,64
61320,note_off,240,0,7,,,,,,,,6,,,,46,64
61320,note_off,0,0,4,,,,,,,,3,,,,74,64
61320,note_off,240,0,4,,,,,,,,3,,,,82,64
61320,note_off,240,0,3,,,,,,,,2,,,,70,64
61320,note_off,240,0,2,,,,,,,,1,,,,62,64
61320,note_off,240,0,1,,,,,,,,0,,,,77,64
61320,note_off,240,0,6,,,,,,,,5,,,,65,64
61560,note_on,240,0,4,,,,,,,,3,,,,72,75
61560,note_on,0,0,5,,,,,,,,4,,,,69,75
61560,note_on,240,0,1,,,,,,,,0,,,,77,75
61560,note_on,0,0,4,,,,,,,,3,,,,81,75
61560,note_on,240,0,7,,,,,,,,6,,,,48,75
61560,note_on,240,0,5,,,,,,,,4,,,,60,75
61560,note_on,240,0,6,,,,,,,,5,,,,65,75
61560,note_on,240,0,3,,,,,,,,2,,,,69,75
61560,note_on,240,0,2,,,,,,,,1,,,,65,75
61560,note_on,240,0,8,,,,,,,,7,,,,36,75
61680,note_off,120,0,4,,,,,,,,3,,,,81,64
61680,note_off,0,0,4,,,,,,,,3,,,,72,64
61680,note_off,120,0,8,,,,,,,,7,,,,36,64
61680,note_off,120,0,3,,,,,,,,2,,,,69,64
61680,note_off,120,0,5,,,,,,,,4,,,,69,64
61680,note_off,0,0,5,,,,,,,,4,,,,60,64
61680,note_off,120,0,7,,,,,,,,6,,,,48,64
61680,note_off,120,0,1,,,,,,,,0,,,,77,64
61680,note_off,120,0,2,,,,,,,,1,,,,65,64
61680,note_off,120,0,6,,,,,,,,5,,,,65,64
62040,note_on,0,0,5,,,,,,,,4,,,,69,75
62040,note_on,360,0,5,,,,,,,,4,,,,60,75
62040,note_on,360,0,2,,,,,,,,1,,,,65,75
62040,note_on,360,0,1,,,,,,,,0,,,,77,75
62040,note_on,360,0,3,,,,,,,,2,,,,69,75
62040,note_on,360,0,7,,,,,,,,6,,,,48,75
62040,note_on,360,0,6,,,,,,,,5,,,,65,75
62040,note_on,360,0,4,,,,,,,,3,,,,72,75
62040,note_on,0,0,4,,,,,,,,3,,,,81,75
62040,note_on,360,0,8,,,,,,,,7,,,,36,75
62160,note_off,120,0,6,,,,,,,,5,,,,65,64
62160,note_off,120,0,3,,,,,,,,2,,,,69,64
62160,note_off,120,0,8,,,,,,,,7,,,,36,64
62160,note_off,120,0,7,,,,,,,,6,,,,48,64
62160,note_off,120,0,2,,,,,,,,1,,,,65,64
62160,note_off,0,0,5,,,,,,,,4,,,,60,64
62160,note_off,120,0,1,,,,,,,,0,,,,77,64
62160,note_off,0,0,4,,,,,,,,3,,,,72,64
62160,note_off,120,0,4,,,,,,,,3,,,,81,64
62160,note_off,120,0,5,,,,,,,,4,,,,69,64
62520,note_on,360,0,5,,,,,,,,4,,,,60,75
62520,note_on,360,0,2,,,,,,,,1,,,,60,75
62520,note_on,360,0,3,,,,,,,,2,,,,67,75
62520,note_on,360,0,1,,,,,,,,0,,,,76,75
62520,note_on,360,0,6,,,,,,,,5,,,,64,75
62520,note_on,360,0,7,,,,,,,,6,,,,48,75
62520,note_on,360,0,8,,,,,,,,7,,,,36,75
62520,note_on,360,0,4,,,,,,,,3,,,,72,75
62520,note_on,0,0,4,,,,,,,,3,,,,79,75
62520,note_on,0,0,5,,,,,,,,4,,,,67,75
62640,note_off,120,0,7,,,,,,,,6,,,,48,64
62640,note_off,120,0,8,,,,,,,,7,,,,36,64
62640,note_off,0,0,4,,,,,,,,3,,,,72,64
62640,note_off,120,0,4,,,,,,,,3,,,,79,64
62640,note_off,120,0,3,,,,,,,,2,,,,67,64
62640,note_off,120,0,6,,,,,,,,5,,,,64,64
62640,note_off,120,0,1,,,,,,,,0,,,,76,64
62640,note_off,120,0,2,,,,,,,,1,,,,60,64
62640,note_off,120,0,5,,,,,,,,4,,,,67,64
62640,note_off,0,0,5,,,,,,,,4,,,,60,64
63000,note_on,360,0,1,,,,,,,,0,,,,77,75
63000,note_on,360,0,3,,,,,,,,2,,,,65,75
63000,note_on,360,0,6,,,,,,,,5,,,,65,75
63000,note_on,0,0,4,,,,,,,,3,,,,77,75
63000,note_on,360,0,4,,,,,,,,3,,,,69,75
63000,note_on,360,0,8,,,,,,,,7,,,,41,75
63000,note_on,360,0,2,,,,,,,,1,,,,57,75
63000,note_on,360,0,5,,,,,,,,4,,,,57,75
63000,note_on,0,0,5,,,,,,,,4,,,,65,75
63000,note_on,360,0,7,,,,,,,,6,,,,53,75
63120,note_off,120,0,2,,,,,,,,1,,,,57,64
63120,note_off,0,0,4,,,,,,,,3,,,,69,64
63120,note_off,120,0,7,,,,,,,,6,,,,53,64
63120,note_off,120,0,8,,,,,,,,7,,,,41,64
63120,note_off,120,0,5,,,,,,,,4,,,,65,64
63120,note_off,120,0,3,,,,,,,,2,,,,65,64
63120,note_off,120,0,4,,,,,,,,3,,,,77,64
63120,note_off,120,0,6,,,,,,,,5,,,,65,64
63120,note_off,120,0,1,,,,,,,,0,,,,77,64
63120,note_off,0,0,5,,,,,,,,4,,,,57,64
64020,program_change,900,0,6,,,,,,,,5,,,49,,
64020,program_change,0,0,6,,,,,,,,5,,,49,,
64020,note_on,900,0,8,,,,,,,,7,,,,36,45
64020,note_on,0,0,6,,,,,,,,5,,,,60,45
64020,note_on,900,0,7,,,,,,,,6,,,,48,45
64020,note_on,900,0,4,,,,,,,,3,,,,60,45
64180,note_off,160,0,7,,,,,,,,6,,,,48,64
64180,note_on,0,0,7,,,,,,,,6,,,,50,45
64180,note_off,160,0,6,,,,,,,,5,,,,60,64
64180,note_on,0,0,6,,,,,,,,5,,,,62,45
64180,note_off,160,0,8,,,,,,,,7,,,,36,64
64180,note_off,160,0,4,,,,,,,,3,,,,60,64
64180,note_on,0,0,8,,,,,,,,7,,,,38,45
64180,note_on,0,0,4,,,,,,,,3,,,,62,45
64340,note_off,160,0,8,,,,,,,,7,,,,38,64
64340,note_on,0,0,6,,,,,,,,5,,,,64,45
64340,note_on,0,0,8,,,,,,,,7,,,,40,45
64340,note_on,0,0,7,,,,,,,,6,,,,52,45
64340,note_off,160,0,7,,,,,,,,6,,,,50,64
64340,note_off,160,0,6,,,,,,,,5,,,,62,64
64340,note_off,160,0,4,,,,,,,,3,,,,62,64
64340,note_on,0,0,4,,,,,,,,3,,,,64,45
64500,note_off,160,0,6,,,,,,,,5,,,,64,64
64500,note_off,160,0,8,,,,,,,,7,,,,40,64
64500,note_on,0,0,4,,,,,,,,3,,,,65,45
64500,note_on,0,0,6,,,,,,,,5,,,,65,45
64500,note_on,0,0,8,,,,,,,,7,,,,41,45
64500,note_off,160,0,7,,,,,,,,6,,,,52,64
64500,note_on,0,0,7,,,,,,,,6,,,,53,45
64500,note_off,160,0,4,,,,,,,,3,,,,64,64
65005,note_off,505,0,6,,,,,,,,5,,,,65,64
65005,note_off,505,0,4,,,,,,,,3,,,,65,64
65005,note_off,505,0,7,,,,,,,,6,,,,53,64
65005,note_off,505,0,8,,,,,,,,7,,,,41,64
65220,note_on,215,0,7,,,,,,,,6,,,,53,45
65220,note_on,215,0,4,,,,,,,,3,,,,65,45
65220,note_on,215,0,6,,,,,,,,5,,,,65,45
65220,note_on,215,0,8,,,,,,,,7,,,,41,45
65300,note_off,80,0,6,,,,,,,,5,,,,65,64
65300,note_off,80,0,8,,,,,,,,7,,,,41,64
65300,note_off,80,0,7,,,,,,,,6,,,,53,64
65300,note_off,80,0,4,,,,,,,,3,,,,65,64
65460,note_on,160,0,8,,,,,,,,7,,,,43,45
65460,note_on,160,0,6,,,,,,,,5,,,,67,45
65460,note_on,160,0,7,,,,,,,,6,,,,55,45
65460,note_on,160,0,4,,,,,,,,3,,,,67,45
65700,note_off,240,0,6,,,,,,,,5,,,,67,64
65700,note_off,240,0,8,,,,,,,,7,,,,43,64
65700,note_off,240,0,7,,,,,,,,6,,,,55,64
65700,note_off,240,0,4,,,,,,,,3,,,,67,64
65940,note_on,240,0,6,,,,,,,,5,,,,65,45
65940,note_on,240,0,4,,,,,,,,3,,,,65,45
65940,note_on,240,0,7,,,,,,,,6,,,,53,45
65940,note_on,240,0,8,,,,,,,,7,,,,41,45
66445,note_off,505,0,6,,,,,,,,5,,,,65,64
66445,note_off,505,0,8,,,,,,,,7,,,,41,64
66445,note_off,505,0,4,,,,,,,,3,,,,65,64
66445,note_off,505,0,7,,,,,,,,6,,,,53,64
66660,note_on,215,0,6,,,,,,,,5,,,,65,45
66660,note_on,215,0,4,,,,,,,,3,,,,65,45
66660,note_on,215,0,8,,,,,,,,7,,,,41,45
66660,note_on,215,0,7,,,,,,,,6,,,,53,45
66740,note_off,80,0,4,,,,,,,,3,,,,65,64
66740,note_off,80,0,8,,,,,,,,7,,,,41,64
66740,note_off,80,0,7,,,,,,,,6,,,,53,64
66740,note_off,80,0,6,,,,,,,,5,,,,65,64
66900,note_on,160,0,8,,,,,,,,7,,,,40,45
66900,note_on,160,0,4,,,,,,,,3,,,,64,45
66900,note_on,160,0,6,,,,,,,,5,,,,64,45
66900,note_on,160,0,7,,,,,,,,6,,,,52,45
67140,note_off,240,0,8,,,,,,,,7,,,,40,64
67140,note_off,240,0,4,,,,,,,,3,,,,64,64
67140,note_off,240,0,7,,,,,,,,6,,,,52,64
67140,note_off,240,0,6,,,,,,,,5,,,,64,64
67380,note_on,240,0,6,,,,,,,,5,,,,62,45
67380,note_on,240,0,8,,,,,,,,7,,,,38,45
67380,note_on,240,0,7,,,,,,,,6,,,,50,45
67380,note_on,240,0,4,,,,,,,,3,,,,62,45
67500,note_off,120,0,7,,,,,,,,6,,,,50,64
67500,note_off,120,0,4,,,,,,,,3,,,,62,64
67500,note_off,120,0,6,,,,,,,,5,,,,62,64
67500,note_off,120,0,8,,,,,,,,7,,,,38,64
67860,note_on,360,0,6,,,,,,,,5,,,,62,45
67860,note_on,360,0,4,,,,,,,,3,,,,62,45
67860,note_on,360,0,8,,,,,,,,7,,,,38,45
67860,note_on,360,0,7,,,,,,,,6,,,,50,45
67980,note_off,120,0,7,,,,,,,,6,,,,50,64
67980,note_off,120,0,6,,,,,,,,5,,,,62,64
67980,note_off,120,0,8,,,,,,,,7,,,,38,64
67980,note_off,120,0,4,,,,,,,,3,,,,62,64
68340,note_on,360,0,8,,,,,,,,7,,,,33,45
68340,note_on,360,0,6,,,,,,,,5,,,,57,45
68340,note_on,360,0,4,,,,,,,,3,,,,57,45
68340,note_on,360,0,7,,,,,,,,6,,,,45,45
68460,note_off,120,0,6,,,,,,,,5,,,,57,64
68460,note_off,120,0,4,,,,,,,,3,,,,57,64
68460,note_off,120,0,7,,,,,,,,6,,,,45,64
68460,note_off,120,0,8,,,,,,,,7,,,,33,64
68820,note_on,360,0,7,,,,,,,,6,,,,50,45
68820,note_on,360,0,8,,,,,,,,7,,,,38,45
68820,note_on,360,0,4,,,,,,,,3,,,,62,45
68820,note_on,360,0,6,,,,,,,,5,,,,62,45
68940,note_off,120,0,7,,,,,,,,6,,,,50,64
68940,note_off,120,0,8,,,,,,,,7,,,,38,64
68940,note_off,120,0,4,,,,,,,,3,,,,62,64
68940,note_off,120,0,6,,,,,,,,5,,,,62,64
69540,note_on,600,0,7,,,,,,,,6,,,,48,75
69540,note_on,6420,0,5,,,,,,,,4,,,,60,75
69540,note_on,600,0,4,,,,,,,,3,,,,72,75
69540,note_on,600,0,8,,,,,,,,7,,,,36,75
69780,note_off,240,0,5,,,,,,,,4,,,,60,64
69780,note_on,0,0,5,,,,,,,,4,,,,62,75
69780,note_off,240,0,8,,,,,,,,7,,,,36,64
69780,note_on,0,0,4,,,,,,,,3,,,,74,75
69780,note_off,240,0,4,,,,,,,,3,,,,72,64
69780,note_on,0,0,8,,,,,,,,7,,,,38,75
69780,note_off,240,0,7,,,,,,,,6,,,,48,64
69780,note_on,0,0,7,,,,,,,,6,,,,50,75
70020,note_on,0,0,4,,,,,,,,3,,,,76,75
70020,note_off,240,0,7,,,,,,,,6,,,,50,64
70020,note_on,0,0,7,,,,,,,,6,,,,52,75
70020,note_off,240,0,4,,,,,,,,3,,,,74,64
70020,note_on,0,0,5,,,,,,,,4,,,,64,75
70020,note_off,240,0,5,,,,,,,,4,,,,62,64
70020,note_on,0,0,8,,,,,,,,7,,,,40,75
70020,note_off,240,0,8,,,,,,,,7,,,,38,64
70255,note_off,235,0,5,,,,,,,,4,,,,64,64
70255,note_off,235,0,7,,,,,,,,6,,,,52,64
70255,note_off,235,0,4,,,,,,,,3,,,,76,64
70255,note_off,235,0,8,,,,,,,,7,,,,40,64
70260,note_on,5,0,8,,,,,,,,7,,,,41,75
70260,note_on,5,0,5,,,,,,,,4,,,,57,75
70260,program_change,1320,0,6,,,,,,,,5,,,48,,
70260,note_on,0,0,5,,,,,,,,4,,,,65,75
70260,note_on,7140,0,3,,,,,,,,2,,,,65,75
70260,note_on,7140,0,2,,,,,,,,1,,,,57,75
70260,note_on,0,0,6,,,,,,,,5,,,,60,75
70260,note_on,0,0,4,,,,,,,,3,,,,77,75
70260,note_on,5,0,4,,,,,,,,3,,,,69,75
70260,note_on,5,0,7,,,,,,,,6,,,,53,75
70260,note_on,7140,0,1,,,,,,,,0,,,,72,75
70765,note_off,0,0,5,,,,,,,,4,,,,57,64
70765,note_off,505,0,5,,,,,,,,4,,,,65,64
70765,note_off,505,0,2,,,,,,,,1,,,,57,64
70765,note_off,0,0,4,,,,,,,,3,,,,69,64
70765,note_off,505,0,4,,,,,,,,3,,,,77,64
70765,note_off,505,0,8,,,,,,,,7,,,,41,64
70765,note_off,505,0,7,,,,,,,,6,,,,53,64
70765,note_off,505,0,1,,,,,,,,0,,,,72,64
70765,note_off,505,0,3,,,,,,,,2,,,,65,64
70765,note_off,505,0,6,,,,,,,,5,,,,60,64
70980,note_on,215,0,4,,,,,,,,3,,,,69,75
70980,note_on,215,0,3,,,,,,,,2,,,,65,75
70980,note_on,215,0,2,,,,,,,,1,,,,57,75
70980,note_on,215,0,8,,,,,,,,7,,,,41,75
70980,note_on,215,0,1,,,,,,,,0,,,,72,75
70980,note_on,0,0,5,,,,,,,,4,,,,65,75
70980,note_on,215,0,5,,,,,,,,4,,,,57,75
70980,note_on,215,0,6,,,,,,,,5,,,,60,75
70980,note_on,215,0,7,,,,,,,,6,,,,53,75
70980,note_on,0,0,4,,,,,,,,3,,,,77,75
71060,note_off,80,0,1,,,,,,,,0,,,,72,64
71060,note_off,80,0,8,,,,,,,,7,,,,41,64
71060,note_off,80,0,4,,,,,,,,3,,,,77,64
71060,note_off,0,0,4,,,,,,,,3,,,,69,64
71060,note_off,80,0,2,,,,,,,,1,,,,57,64
71060,note_off,80,0,6,,,,,,,,5,,,,60,64
71060,note_off,80,0,5,,,,,,,,4,,,,65,64
71060,note_off,0,0,5,,,,,,,,4,,,,57,64
71060,note_off,80,0,7,,,,,,,,6,,,,53,64
71215,note_off,235,0,3,,,,,,,,2,,,,65,64
71220,note_on,0,0,4,,,,,,,,3,,,,79,75
71220,note_on,160,0,2,,,,,,,,1,,,,60,75
71220,note_on,160,0,5,,,,,,,,4,,,,60,75
71220,note_on,0,0,5,,,,,,,,4,,,,67,75
71220,note_on,160,0,6,,,,,,,,5,,,,64,75
71220,note_on,160,0,1,,,,,,,,0,,,,76,75
71220,note_on,160,0,4,,,,,,,,3,,,,72,75
71220,note_on,5,0,3,,,,,,,,2,,,,67,75
71220,note_on,160,0,7,,,,,,,,6,,,,48,75
71220,note_on,160,0,8,,,,,,,,7,,,,36,75
71460,note_off,240,0,4,,,,,,,,3,,,,79,64
71460,note_off,0,0,4,,,,,,,,3,,,,72,64
71460,note_off,240,0,2,,,,,,,,1,,,,60,64
71460,note_off,240,0,5,,,,,,,,4,,,,67,64
71460,note_off,240,0,3,,,,,,,,2,,,,67,64
71460,note_off,240,0,8,,,,,,,,7,,,,36,64
71460,note_off,240,0,6,,,,,,,,5,,,,64,64
71460,note_off,240,0,1,,,,,,,,0,,,,76,64
71460,note_off,0,0,5,,,,,,,,4,,,,60,64
71460,note_off,240,0,7,,,,,,,,6,,,,48,64
71700,note_on,240,0,3,,,,,,,,2,,,,69,75
71700,note_on,240,0,2,,,,,,,,1,,,,65,75
71700,note_on,240,0,7,,,,,,,,6,,,,53,75
71700,note_on,240,0,6,,,,,,,,5,,,,65,75
71700,note_on,240,0,5,,,,,,,,4,,,,60,75
71700,note_on,0,0,5,,,,,,,,4,,,,69,75
71700,note_on,240,0,4,,,,,,,,3,,,,72,75
71700,note_on,0,0,4,,,,,,,,3,,,,81,75
71700,note_on,240,0,1,,,,,,,,0,,,,77,75
71700,note_on,240,0,8,,,,,,,,7,,,,41,75
72205,note_off,505,0,5,,,,,,,,4,,,,69,64
72205,note_off,0,0,5,,,,,,,,4,,,,60,64
72205,note_off,505,0,3,,,,,,,,2,,,,69,64
72205,note_off,505,0,7,,,,,,,,6,,,,53,64
72205,note_off,505,0,4,,,,,,,,3,,,,81,64
72205,note_off,0,0,4,,,,,,,,3,,,,72,64
72205,note_off,505,0,1,,,,,,,,0,,,,77,64
72205,note_off,505,0,6,,,,,,,,5,,,,65,64
72205,note_off,505,0,8,,,,,,,,7,,,,41,64
72205,note_off,505,0,2,,,,,,,,1,,,,65,64
72420,note_on,0,0,5,,,,,,,,4,,,,69,75
72420,note_on,215,0,4,,,,,,,,3,,,,72,75
72420,note_on,215,0,5,,,,,,,,4,,,,60,75
72420,note_on,215,0,8,,,,,,,,7,,,,41,75
72420,note_on,0,0,4,,,,,,,,3,,,,81,75
72420,note_on,215,0,1,,,,,,,,0,,,,77,75
72420,note_on,215,0,3,,,,,,,,2,,,,69,75
72420,note_on,215,0,7,,,,,,,,6,,,,53,75
72420,note_on,215,0,2,,,,,,,,1,,,,65,75
72420,note_on,215,0,6,,,,,,,,5,,,,65,75
72500,note_off,80,0,4,,,,,,,,3,,,,81,64
72500,note_off,0,0,4,,,,,,,,3,,,,72,64
72500,note_off,80,0,7,,,,,,,,6,,,,53,64
72500,note_off,80,0,1,,,,,,,,0,,,,77,64
72500,note_off,80,0,2,,,,,,,,1,,,,65,64
72500,note_off,80,0,3,,,,,,,,2,,,,69,64
72500,note_off,80,0,5,,,,,,,,4,,,,69,64
72500,note_off,0,0,5,,,,,,,,4,,,,60,64
72500,note_off,80,0,6,,,,,,,,5,,,,65,64
72500,note_off,80,0,8,,,,,,,,7,,,,41,64
72660,note_on,160,0,4,,,,,,,,3,,,,74,75
72660,note_on,0,0,4,,,,,,,,3,,,,82,75
72660,note_on,160,0,3,,,,,,,,2,,,,70,75
72660,note_on,160,0,5,,,,,,,,4,,,,62,75
72660,note_on,160,0,1,,,,,,,,0,,,,77,75
72660,note_on,160,0,7,,,,,,,,6,,,,46,75
72660,note_on,160,0,8,,,,,,,,7,,,,34,75
72660,note_on,160,0,2,,,,,,,,1,,,,62,75
72660,note_on,0,0,5,,,,,,,,4,,,,70,75
72660,note_on,160,0,6,,,,,,,,5,,,,65,75
72900,note_off,240,0,6,,,,,,,,5,,,,65,64
72900,note_off,240,0,4,,,,,,,,3,,,,82,64
72900,note_off,0,0,4,,,,,,,,3,,,,74,64
72900,note_off,0,0,5,,,,,,,,4,,,,62,64
72900,note_off,240,0,5,,,,,,,,4,,,,70,64
72900,note_off,240,0,3,,,,,,,,2,,,,70,64
72900,note_off,240,0,1,,,,,,,,0,,,,77,64
72900,note_off,240,0,7,,,,,,,,6,,,,46,64
72900,note_off,240,0,2,,,,,,,,1,,,,62,64
72900,note_off,240,0,8,,,,,,,,7,,,,34,64
73140,note_on,0,0,5,,,,,,,,4,,,,69,75
73140,note_on,240,0,5,,,,,,,,4,,,,60,75
73140,note_on,0,0,4,,,,,,,,3,,,,81,75
73140,note_on,240,0,1,,,,,,,,0,,,,77,75
73140,note_on,240,0,8,,,,,,,,7,,,,36,75
73140,note_on,240,0,2,,,,,,,,1,,,,65,75
73140,note_on,240,0,6,,,,,,,,5,,,,65,75
73140,note_on,240,0,7,,,,,,,,6,,,,48,75
73140,note_on,240,0,3,,,,,,,,2,,,,69,75
73140,note_on,240,0,4,,,,,,,,3,,,,72,75
73260,note_off,120,0,8,,,,,,,,7,,,,36,64
73260,note_off,120,0,3,,,,,,,,2,,,,69,64
73260,note_off,120,0,6,,,,,,,,5,,,,65,64
73260,note_off,120,0,4,,,,,,,,3,,,,81,64
73260,note_off,0,0,4,,,,,,,,3,,,,72,64
73260,note_off,120,0,7,,,,,,,,6,,,,48,64
73260,note_off,120,0,5,,,,,,,,4,,,,69,64
73260,note_off,120,0,2,,,,,,,,1,,,,65,64
73260,note_off,120,0,1,,,,,,,,0,,,,77,64
73260,note_off,0,0,5,,,,,,,,4,,,,60,64
73620,note_on,360,0,7,,,,,,,,6,,,,48,75
73620,note_on,360,0,8,,,,,,,,7,,,,36,75
73620,note_on,360,0,1,,,,,,,,0,,,,77,75
73620,note_on,0,0,4,,,,,,,,3,,,,81,75
73620,note_on,360,0,3,,,,,,,,2,,,,69,75
73620,note_on,360,0,6,,,,,,,,5,,,,65,75
73620,note_on,0,0,5,,,,,,,,4,,,,69,75
73620,note_on,360,0,2,,,,,,,,1,,,,65,75
73620,note_on,360,0,5,,,,,,,,4,,,,60,75
73620,note_on,360,0,4,,,,,,,,3,,,,72,75
73740,note_off,120,0,2,,,,,,,,1,,,,65,64
73740,note_off,120,0,4,,,,,,,,3,,,,81,64
73740,note_off,0,0,4,,,,,,,,3,,,,72,64
73740,note_off,120,0,3,,,,,,,,2,,,,69,64
73740,note_off,120,0,1,,,,,,,,0,,,,77,64
73740,note_off,120,0,6,,,,,,,,5,,,,65,64
73740,note_off,120,0,7,,,,,,,,6,,,,48,64
73740,note_off,120,0,5,,,,,,,,4,,,,69,64
73740,note_off,0,0,5,,,,,,,,4,,,,60,64
73740,note_off,120,0,8,,,,,,,,7,,,,36,64
74100,note_on,360,0,3,,,,,,,,2,,,,67,75
74100,note_on,360,0,6,,,,,,,,5,,,,64,75
74100,note_on,360,0,2,,,,,,,,1,,,,60,75
74100,note_on,360,0,5,,,,,,,,4,,,,60,75
74100,note_on,0,0,5,,,,,,,,4,,,,67,75
74100,note_on,0,0,4,,,,,,,,3,,,,79,75
74100,note_on,360,0,7,,,,,,,,6,,,,48,75
74100,note_on,360,0,4,,,,,,,,3,,,,72,75
74100,note_on,360,0,1,,,,,,,,0,,,,76,75
74100,note_on,360,0,8,,,,,,,,7,,,,36,75
74220,note_off,0,0,4,,,,,,,,3,,,,72,64
74220,note_off,0,0,5,,,,,,,,4,,,,60,64
74220,note_off,120,0,5,,,,,,,,4,,,,67,64
74220,note_off,120,0,3,,,,,,,,2,,,,67,64
74220,note_off,120,0,8,,,,,,,,7,,,,36,64
74220,note_off,120,0,6,,,,,,,,5,,,,64,64
74220,note_off,120,0,7,,,,,,,,6,,,,48,64
74220,note_off,120,0,2,,,,,,,,1,,,,60,64
74220,note_off,120,0,4,,,,,,,,3,,,,79,64
74220,note_off,120,0,1,,,,,,,,0,,,,76,64
74580,note_on,360,0,7,,,,,,,,6,,,,53,75
74580,note_on,360,0,6,,,,,,,,5,,,,65,75
74580,note_on,360,0,4,,,,,,,,3,,,,69,75
74580,note_on,0,0,4,,,,,,,,3,,,,77,75
74580,note_on,360,0,5,,,,,,,,4,,,,57,75
74580,note_on,360,0,1,,,,,,,,0,,,,77,75
74580,note_on,0,0,5,,,,,,,,4,,,,65,75
74580,note_on,360,0,8,,,,,,,,7,,,,41,75
74580,note_on,360,0,2,,,,,,,,1,,,,57,75
74580,note_on,360,0,3,,,,,,,,2,,,,65,75
74700,note_off,120,0,5,,,,,,,,4,,,,65,64
74700,note_off,0,0,5,,,,,,,,4,,,,57,64
74700,note_off,0,0,4,,,,,,,,3,,,,69,64
74700,note_off,120,0,4,,,,,,,,3,,,,77,64
74700,note_off,120,0,7,,,,,,,,6,,,,53,64
74700,note_off,120,0,3,,,,,,,,2,,,,65,64
74700,note_off,120,0,1,,,,,,,,0,,,,77,64
74700,note_off,120,0,6,,,,,,,,5,,,,65,64
74700,note_off,120,0,8,,,,,,,,7,,,,41,64
74700,note_off,120,0,2,,,,,,,,1,,,,57,64
75120,note_on,420,0,1,,,,,,,,0,,,,72,75
75120,note_on,420,0,4,,,,,,,,3,,,,72,75
75360,note_off,240,0,4,,,,,,,,3,,,,72,64
75360,note_off,240,0,1,,,,,,,,0,,,,72,64
75360,note_on,0,0,1,,,,,,,,0,,,,74,75
75360,note_on,0,0,4,,,,,,,,3,,,,74,75
75600,note_off,240,0,4,,,,,,,,3,,,,74,64
75600,note_on,0,0,1,,,,,,,,0,,,,76,75
75600,note_off,240,0,1,,,,,,,,0,,,,74,64
75600,note_on,0,0,4,,,,,,,,3,,,,76,75
75840,note_on,0,0,1,,,,,,,,0,,,,77,75
75840,note_off,240,0,1,,,,,,,,0,,,,76,64
75840,note_off,240,0,4,,,,,,,,3,,,,76,64
75840,note_on,0,0,4,,,,,,,,3,,,,77,75
76080,note_on,1380,0,7,,,,,,,,6,,,,43,75
76080,note_on,1380,0,6,,,,,,,,5,,,,62,75
76080,note_on,1380,0,2,,,,,,,,1,,,,59,75
76080,note_off,240,0,4,,,,,,,,3,,,,77,64
76080,note_on,1380,0,3,,,,,,,,2,,,,67,75
76080,note_on,0,0,6,,,,,,,,5,,,,65,75
76080,note_on,1380,0,8,,,,,,,,7,,,,31,75
76080,note_on,0,0,5,,,,,,,,4,,,,77,75
76080,note_on,0,0,4,,,,,,,,3,,,,71,75
76080,note_on,1380,0,5,,,,,,,,4,,,,74,75
76080,note_on,0,0,4,,,,,,,,3,,,,79,75
76080,note_on,0,0,1,,,,,,,,0,,,,79,75
76080,note_off,240,0,1,,,,,,,,0,,,,77,64
76585,note_off,0,0,5,,,,,,,,4,,,,74,64
76585,note_off,505,0,5,,,,,,,,4,,,,77,64
76585,note_off,505,0,2,,,,,,,,1,,,,59,64
76585,note_off,505,0,4,,,,,,,,3,,,,79,64
76585,note_off,505,0,1,,,,,,,,0,,,,79,64
76585,note_off,0,0,4,,,,,,,,3,,,,71,64
76585,note_off,505,0,6,,,,,,,,5,,,,65,64
76585,note_off,0,0,6,,,,,,,,5,,,,62,64
76585,note_off,505,0,3,,,,,,,,2,,,,67,64
76800,note_on,0,0,4,,,,,,,,3,,,,79,75
76800,note_on,215,0,2,,,,,,,,1,,,,59,75
76800,note_on,215,0,5,,,,,,,,4,,,,74,75
76800,note_on,215,0,1,,,,,,,,0,,,,79,75
76800,note_on,215,0,4,,,,,,,,3,,,,71,75
76800,note_on,0,0,5,,,,,,,,4,,,,77,75
76800,note_on,215,0,6,,,,,,,,5,,,,62,75
76800,note_on,215,0,3,,,,,,,,2,,,,67,75
76800,note_on,0,0,6,,,,,,,,5,,,,65,75
76880,note_off,80,0,2,,,,,,,,1,,,,59,64
76880,note_off,80,0,3,,,,,,,,2,,,,67,64
76880,note_off,80,0,4,,,,,,,,3,,,,79,64
76880,note_off,80,0,1,,,,,,,,0,,,,79,64
76880,note_off,0,0,4,,,,,,,,3,,,,71,64
76880,note_off,80,0,6,,,,,,,,5,,,,65,64
76880,note_off,80,0,5,,,,,,,,4,,,,77,64
76880,note_off,0,0,6,,,,,,,,5,,,,62,64
76880,note_off,0,0,5,,,,,,,,4,,,,74,64
77040,note_on,0,0,6,,,,,,,,5,,,,65,75
77040,note_on,160,0,2,,,,,,,,1,,,,60,75
77040,note_on,160,0,3,,,,,,,,2,,,,69,75
77040,note_on,160,0,5,,,,,,,,4,,,,74,75
77040,note_on,0,0,4,,,,,,,,3,,,,81,75
77040,note_on,160,0,4,,,,,,,,3,,,,72,75
77040,note_on,160,0,1,,,,,,,,0,,,,81,75
77040,note_on,0,0,5,,,,,,,,4,,,,77,75
77040,note_on,160,0,6,,,,,,,,5,,,,62,75
77400,note_off,1320,0,7,,,,,,,,6,,,,43,64
77400,note_off,1320,0,8,,,,,,,,7,,,,31,64
77440,note_off,400,0,4,,,,,,,,3,,,,81,64
77440,note_off,0,0,4,,,,,,,,3,,,,72,64
77440,note_off,0,0,6,,,,,,,,5,,,,62,64
77440,note_off,400,0,6,,,,,,,,5,,,,65,64
77440,note_off,400,0,3,,,,,,,,2,,,,69,64
77440,note_off,400,0,2,,,,,,,,1,,,,60,64
77440,note_off,400,0,1,,,,,,,,0,,,,81,64
77440,note_off,400,0,5,,,,,,,,4,,,,77,64
77440,note_off,0,0,5,,,,,,,,4,,,,74,64
77520,note_on,80,0,1,,,,,,,,0,,,,79,75
77520,note_on,80,0,6,,,,,,,,5,,,,62,75
77520,note_on,0,0,6,,,,,,,,5,,,,65,75
77520,note_on,0,0,4,,,,,,,,3,,,,79,75
77520,note_on,80,0,4,,,,,,,,3,,,,71,75
77520,note_on,80,0,5,,,,,,,,4,,,,74,75
77520,note_on,0,0,5,,,,,,,,4,,,,77,75
77520,note_on,80,0,3,,,,,,,,2,,,,67,75
77520,note_on,120,0,7,,,,,,,,6,,,,43,75
77520,note_on,80,0,2,,,,,,,,1,,,,59,75
77520,note_on,120,0,8,,,,,,,,7,,,,31,75
78025,note_off,505,0,5,,,,,,,,4,,,,77,64
78025,note_off,0,0,4,,,,,,,,3,,,,71,64
78025,note_off,505,0,2,,,,,,,,1,,,,59,64
78025,note_off,0,0,6,,,,,,,,5,,,,62,64
78025,note_off,0,0,5,,,,,,,,4,,,,74,64
78025,note_off,505,0,3,,,,,,,,2,,,,67,64
78025,note_off,505,0,1,,,,,,,,0,,,,79,64
78025,note_off,505,0,4,,,,,,,,3,,,,79,64
78025,note_off,505,0,6,,,,,,,,5,,,,65,64
78240,note_on,215,0,2,,,,,,,,1,,,,59,75
78240,note_on,0,0,4,,,,,,,,3,,,,79,75
78240,note_on,215,0,5,,,,,,,,4,,,,74,75
78240,note_on,0,0,5,,,,,,,,4,,,,77,75
78240,note_on,215,0,4,,,,,,,,3,,,,71,75
78240,note_on,215,0,6,,,,,,,,5,,,,62,75
78240,note_on,0,0,6,,,,,,,,5,,,,65,75
78240,note_on,215,0,3,,,,,,,,2,,,,67,75
78240,note_on,215,0,1,,,,,,,,0,,,,79,75
78320,note_off,0,0,6,,,,,,,,5,,,,62,64
78320,note_off,80,0,3,,,,,,,,2,,,,67,64
78320,note_off,80,0,2,,,,,,,,1,,,,59,64
78320,note_off,0,0,5,,,,,,,,4,,,,74,64
78320,note_off,80,0,5,,,,,,,,4,,,,77,64
78320,note_off,0,0,4,,,,,,,,3,,,,71,64
78320,note_off,80,0,4,,,,,,,,3,,,,79,64
78320,note_off,80,0,6,,,,,,,,5,,,,65,64
78320,note_off,80,0,1,,,,,,,,0,,,,79,64
78480,note_on,160,0,3,,,,,,,,2,,,,69,75
78480,note_on,160,0,6,,,,,,,,5,,,,62,75
78480,note_on,0,0,4,,,,,,,,3,,,,81,75
78480,note_on,160,0,2,,,,,,,,1,,,,60,75
78480,note_on,160,0,1,,,,,,,,0,,,,81,75
78480,note_on,0,0,6,,,,,,,,5,,,,65,75
78480,note_on,160,0,4,,,,,,,,3,,,,72,75
78480,note_on,160,0,5,,,,,,,,4,,,,74,75
78480,note_on,0,0,5,,,,,,,,4,,,,77,75
78840,note_off,1320,0,7,,,,,,,,6,,,,43,64
78840,note_off,1320,0,8,,,,,,,,7,,,,31,64
78880,note_off,400,0,6,,,,,,,,5,,,,65,64
78880,note_off,0,0,6,,,,,,,,5,,,,62,64
78880,note_off,400,0,2,,,,,,,,1,,,,60,64
78880,note_off,400,0,1,,,,,,,,0,,,,81,64
78880,note_off,400,0,5,,,,,,,,4,,,,77,64
78880,note_off,0,0,5,,,,,,,,4,,,,74,64
78880,note_off,400,0,3,,,,,,,,2,,,,69,64
78880,note_off,400,0,4,,,,,,,,3,,,,81,64
78880,note_off,0,0,4,,,,,,,,3,,,,72,64
78960,note_on,80,0,5,,,,,,,,4,,,,74,75
78960,note_on,80,0,2,,,,,,,,1,,,,59,75
78960,note_on,80,0,6,,,,,,,,5,,,,62,75
78960,note_on,80,0,3,,,,,,,,2,,,,67,75
78960,note_on,0,0,5,,,,,,,,4,,,,77,75
78960,note_on,0,0,6,,,,,,,,5,,,,65,75
78960,note_on,0,0,4,,,,,,,,3,,,,79,75
78960,note_on,80,0,4,,,,,,,,3,,,,71,75
78960,note_on,120,0,7,,,,,,,,6,,,,43,75
78960,note_on,80,0,1,,,,,,,,0,,,,79,75
78960,note_on,120,0,8,,,,,,,,7,,,,31,75
79465,note_off,505,0,4,,,,,,,,3,,,,79,64
79465,note_off,0,0,4,,,,,,,,3,,,,71,64
79465,note_off,0,0,6,,,,,,,,5,,,,62,64
79465,note_off,505,0,6,,,,,,,,5,,,,65,64
79465,note_off,505,0,2,,,,,,,,1,,,,59,64
79465,note_off,505,0,3,,,,,,,,2,,,,67,64
79465,note_off,0,0,5,,,,,,,,4,,,,74,64
79465,note_off,505,0,5,,,,,,,,4,,,,77,64
79465,note_off,505,0,1,,,,,,,,0,,,,79,64
79680,note_on,215,0,6,,,,,,,,5,,,,62,75
79680,note_on,0,0,4,,,,,,,,3,,,,79,75
79680,note_on,215,0,4,,,,,,,,3,,,,71,75
79680,note_on,215,0,1,,,,,,,,0,,,,79,75
79680,note_on,215,0,3,,,,,,,,2,,,,67,75
79680,note_on,0,0,5,,,,,,,,4,,,,77,75
79680,note_on,215,0,5,,,,,,,,4,,,,74,75
79680,note_on,0,0,6,,,,,,,,5,,,,65,75
79680,note_on,215,0,2,,,,,,,,1,,,,59,75
79760,note_off,80,0,6,,,,,,,,5,,,,65,64
79760,note_off,0,0,5,,,,,,,,4,,,,74,64
79760,note_off,80,0,1,,,,,,,,0,,,,79,64
79760,note_off,80,0,5,,,,,,,,4,,,,77,64
79760,note_off,80,0,3,,,,,,,,2,,,,67,64
79760,note_off,0,0,6,,,,,,,,5,,,,62,64
79760,note_off,0,0,4,,,,,,,,3,,,,71,64
79760,note_off,80,0,4,,,,,,,,3,,,,79,64
79760,note_off,80,0,2,,,,,,,,1,,,,59,64
79920,note_on,160,0,2,,,,,,,,1,,,,60,75
79920,note_on,160,0,1,,,,,,,,0,,,,81,75
79920,note_on,0,0,4,,,,,,,,3,,,,81,75
79920,note_on,160,0,3,,,,,,,,2,,,,69,75
79920,note_on,160,0,5,,,,,,,,4,,,,74,75
79920,note_on,0,0,5,,,,,,,,4,,,,77,75
79920,note_on,0,0,6,,,,,,,,5,,,,65,75
79920,note_on,160,0,6,,,,,,,,5,,,,62,75
79920,note_on,160,0,4,,,,,,,,3,,,,72,75
80280,note_off,1320,0,7,,,,,,,,6,,,,43,64
80280,note_off,1320,0,8,,,,,,,,7,,,,31,64
80320,note_off,400,0,6,,,,,,,,5,,,,65,64
80320,note_off,0,0,6,,,,,,,,5,,,,62,64
80320,note_off,400,0,1,,,,,,,,0,,,,81,64
80320,note_off,400,0,2,,,,,,,,1,,,,60,64
80320,note_off,400,0,3,,,,,,,,2,,,,69,64
80320,note_off,400,0,5,,,,,,,,4,,,,77,64
80320,note_off,0,0,5,,,,,,,,4,,,,74,64
80320,note_off,0,0,4,,,,,,,,3,,,,72,64
80320,note_off,400,0,4,,,,,,,,3,,,,81,64
80400,note_on,80,0,4,,,,,,,,3,,,,71,75
80400,note_on,80,0,1,,,,,,,,0,,,,79,75
80400,note_on,80,0,2,,,,,,,,1,,,,59,75
80400,note_on,120,0,8,,,,,,,,7,,,,31,75
80400,note_on,80,0,3,,,,,,,,2,,,,67,75
80400,note_on,0,0,5,,,,,,,,4,,,,77,75
80400,note_on,80,0,5,,,,,,,,4,,,,74,75
80400,note_on,120,0,7,,,,,,,,6,,,,43,75
80400,note_on,0,0,6,,,,,,,,5,,,,65,75
80400,note_on,80,0,6,,,,,,,,5,,,,62,75
80400,note_on,0,0,4,,,,,,,,3,,,,79,75
80520,note_off,120,0,8,,,,,,,,7,,,,31,64
80520,note_off,120,0,7,,,,,,,,6,,,,43,64
80800,note_off,400,0,3,,,,,,,,2,,,,67,64
80800,note_off,0,0,4,,,,,,,,3,,,,71,64
80800,note_off,400,0,1,,,,,,,,0,,,,79,64
80800,note_off,400,0,4,,,,,,,,3,,,,79,64
80800,note_off,0,0,6,,,,,,,,5,,,,62,64
80800,note_off,400,0,6,,,,,,,,5,,,,65,64
80800,note_off,400,0,5,,,,,,,,4,,,,77,64
80800,note_off,400,0,2,,,,,,,,1,,,,59,64
80800,note_off,0,0,5,,,,,,,,4,,,,74,64
80880,note_on,360,0,8,,,,,,,,7,,,,33,75
80880,note_on,360,0,7,,,,,,,,6,,,,45,75
81000,note_off,120,0,8,,,,,,,,7,,,,33,64
81000,note_off,120,0,7,,,,,,,,6,,,,45,64
81360,note_on,360,0,8,,,,,,,,7,,,,35,75
81360,note_on,360,0,7,,,,,,,,6,,,,47,75
81480,note_off,120,0,8,,,,,,,,7,,,,35,64
81480,note_off,120,0,7,,,,,,,,6,,,,47,64
81840,note_on,1040,0,1,,,,,,,,0,,,,72,75
81840,note_on,0,0,4,,,,,,,,3,,,,72,75
81840,note_on,1040,0,2,,,,,,,,1,,,,64,75
81840,note_on,1040,0,6,,,,,,,,5,,,,67,75
81840,note_on,0,0,6,,,,,,,,5,,,,70,75
81840,note_on,1040,0,4,,,,,,,,3,,,,64,75
81840,note_on,360,0,7,,,,,,,,6,,,,48,75
81840,note_on,1040,0,5,,,,,,,,4,,,,67,75
81840,note_on,1040,0,3,,,,,,,,2,,,,70,75
81840,note_on,0,0,5,,,,,,,,4,,,,70,75
81840,note_on,360,0,8,,,,,,,,7,,,,36,75
82345,note_off,505,0,1,,,,,,,,0,,,,72,64
82345,note_off,0,0,4,,,,,,,,3,,,,64,64
82345,note_off,505,0,4,,,,,,,,3,,,,72,64
82345,note_off,505,0,6,,,,,,,,5,,,,70,64
82345,note_off,505,0,3,,,,,,,,2,,,,70,64
82345,note_off,0,0,5,,,,,,,,4,,,,67,64
82345,note_off,505,0,5,,,,,,,,4,,,,70,64
82345,note_off,505,0,2,,,,,,,,1,,,,64,64
82345,note_off,0,0,6,,,,,,,,5,,,,67,64
82560,note_on,215,0,1,,,,,,,,0,,,,72,75
82560,note_on,215,0,2,,,,,,,,1,,,,64,75
82560,note_on,215,0,3,,,,,,,,2,,,,70,75
82560,note_on,215,0,5,,,,,,,,4,,,,67,75
82560,note_on,0,0,5,,,,,,,,4,,,,70,75
82560,note_on,215,0,6,,,,,,,,5,,,,67,75
82560,note_on,0,0,4,,,,,,,,3,,,,72,75
82560,note_on,215,0,4,,,,,,,,3,,,,64,75
82560,note_on,0,0,6,,,,,,,,5,,,,70,75
82640,note_off,80,0,4,,,,,,,,3,,,,72,64
82640,note_off,80,0,5,,,,,,,,4,,,,70,64
82640,note_off,0,0,5,,,,,,,,4,,,,67,64
82640,note_off,0,0,4,,,,,,,,3,,,,64,64
82640,note_off,80,0,2,,,,,,,,1,,,,64,64
82640,note_off,0,0,6,,,,,,,,5,,,,67,64
82640,note_off,80,0,6,,,,,,,,5,,,,70,64
82640,note_off,80,0,1,,,,,,,,0,,,,72,64
82640,note_off,80,0,3,,,,,,,,2,,,,70,64
82800,note_on,0,0,6,,,,,,,,5,,,,70,75
82800,note_on,0,0,4,,,,,,,,3,,,,74,75
82800,note_on,160,0,2,,,,,,,,1,,,,65,75
82800,note_on,160,0,1,,,,,,,,0,,,,74,75
82800,note_on,160,0,6,,,,,,,,5,,,,67,75
82800,note_on,160,0,3,,,,,,,,2,,,,70,75
82800,note_on,160,0,4,,,,,,,,3,,,,65,75
82800,note_on,160,0,5,,,,,,,,4,,,,67,75
82800,note_on,0,0,5,,,,,,,,4,,,,70,75
83160,note_off,1320,0,7,,,,,,,,6,,,,48,64
83160,note_off,1320,0,8,,,,,,,,7,,,,36,64
83200,note_off,400,0,2,,,,,,,,1,,,,65,64
83200,note_off,0,0,5,,,,,,,,4,,,,67,64
83200,note_off,400,0,5,,,,,,,,4,,,,70,64
83200,note_off,400,0,4,,,,,,,,3,,,,74,64
83200,note_off,400,0,6,,,,,,,,5,,,,70,64
83200,note_off,0,0,6,,,,,,,,5,,,,67,64
83200,note_off,0,0,4,,,,,,,,3,,,,65,64
83200,note_off,400,0,3,,,,,,,,2,,,,70,64
83200,note_off,400,0,1,,,,,,,,0,,,,74,64
83280,note_on,80,0,6,,,,,,,,5,,,,67,75
83280,note_on,0,0,6,,,,,,,,5,,,,70,75
83280,note_on,80,0,3,,,,,,,,2,,,,70,75
83280,note_on,80,0,1,,,,,,,,0,,,,72,75
83280,note_on,120,0,7,,,,,,,,6,,,,48,75
83280,note_on,0,0,4,,,,,,,,3,,,,72,75
83280,note_on,80,0,4,,,,,,,,3,,,,64,75
83280,note_on,80,0,5,,,,,,,,4,,,,67,75
83280,note_on,0,0,5,,,,,,,,4,,,,70,75
83280,note_on,120,0,8,,,,,,,,7,,,,36,75
83280,note_on,80,0,2,,,,,,,,1,,,,64,75
83785,note_off,505,0,2,,,,,,,,1,,,,64,64
83785,note_off,505,0,1,,,,,,,,0,,,,72,64
83785,note_off,505,0,4,,,,,,,,3,,,,72,64
83785,note_off,505,0,6,,,,,,,,5,,,,70,64
83785,note_off,0,0,6,,,,,,,,5,,,,67,64
83785,note_off,505,0,5,,,,,,,,4,,,,70,64
83785,note_off,0,0,5,,,,,,,,4,,,,67,64
83785,note_off,505,0,3,,,,,,,,2,,,,70,64
83785,note_off,0,0,4,,,,,,,,3,,,,64,64
84000,note_on,215,0,2,,,,,,,,1,,,,64,75
84000,note_on,215,0,6,,,,,,,,5,,,,67,75
84000,note_on,0,0,4,,,,,,,,3,,,,72,75
84000,note_on,215,0,4,,,,,,,,3,,,,64,75
84000,note_on,0,0,6,,,,,,,,5,,,,70,75
84000,note_on,215,0,1,,,,,,,,0,,,,72,75
84000,note_on,0,0,5,,,,,,,,4,,,,70,75
84000,note_on,215,0,5,,,,,,,,4,,,,67,75
84000,note_on,215,0,3,,,,,,,,2,,,,70,75
84080,note_off,80,0,6,,,,,,,,5,,,,70,64
84080,note_off,0,0,4,,,,,,,,3,,,,64,64
84080,note_off,80,0,5,,,,,,,,4,,,,70,64
84080,note_off,80,0,4,,,,,,,,3,,,,72,64
84080,note_off,80,0,1,,,,,,,,0,,,,72,64
84080,note_off,80,0,2,,,,,,,,1,,,,64,64
84080,note_off,80,0,3,,,,,,,,2,,,,70,64
84080,note_off,0,0,6,,,,,,,,5,,,,67,64
84080,note_off,0,0,5,,,,,,,,4,,,,67,64
84240,note_on,0,0,5,,,,,,,,4,,,,70,75
84240,note_on,160,0,3,,,,,,,,2,,,,70,75
84240,note_on,160,0,1,,,,,,,,0,,,,74,75
84240,note_on,160,0,6,,,,,,,,5,,,,67,75
84240,note_on,0,0,6,,,,,,,,5,,,,70,75
84240,note_on,160,0,4,,,,,,,,3,,,,65,75
84240,note_on,0,0,4,,,,,,,,3,,,,74,75
84240,note_on,160,0,5,,,,,,,,4,,,,67,75
84240,note_on,160,0,2,,,,,,,,1,,,,65,75
84600,note_off,1320,0,7,,,,,,,,6,,,,48,64
84600,note_off,1320,0,8,,,,,,,,7,,,,36,64
84640,note_off,0,0,5,,,,,,,,4,,,,67,64
84640,note_off,400,0,4,,,,,,,,3,,,,74,64
84640,note_off,0,0,4,,,,,,,,3,,,,65,64
84640,note_off,400,0,3,,,,,,,,2,,,,70,64
84640,note_off,400,0,6,,,,,,,,5,,,,70,64
84640,note_off,0,0,6,,,,,,,,5,,,,67,64
84640,note_off,400,0,5,,,,,,,,4,,,,70,64
84640,note_off,400,0,1,,,,,,,,0,,,,74,64
84640,note_off,400,0,2,,,,,,,,1,,,,65,64
84720,note_on,0,0,5,,,,,,,,4,,,,70,75
84720,note_on,80,0,2,,,,,,,,1,,,,64,75
84720,note_on,0,0,4,,,,,,,,3,,,,72,75
84720,note_on,0,0,6,,,,,,,,5,,,,70,75
84720,note_on,80,0,5,,,,,,,,4,,,,67,75
84720,note_on,80,0,6,,,,,,,,5,,,,67,75
84720,note_on,80,0,4,,,,,,,,3,,,,64,75
84720,note_on,120,0,8,,,,,,,,7,,,,36,75
84720,note_on,80,0,3,,,,,,,,2,,,,70,75
84720,note_on,120,0,7,,,,,,,,6,,,,48,75
84720,note_on,80,0,1,,,,,,,,0,,,,72,75
85225,note_off,505,0,6,,,,,,,,5,,,,70,64
85225,note_off,505,0,4,,,,,,,,3,,,,72,64
85225,note_off,0,0,4,,,,,,,,3,,,,64,64
85225,note_off,505,0,5,,,,,,,,4,,,,70,64
85225,note_off,0,0,5,,,,,,,,4,,,,67,64
85225,note_off,0,0,6,,,,,,,,5,,,,67,64
85225,note_off,505,0,2,,,,,,,,1,,,,64,64
85225,note_off,505,0,3,,,,,,,,2,,,,70,64
85225,note_off,505,0,1,,,,,,,,0,,,,72,64
85440,note_on,215,0,2,,,,,,,,1,,,,64,75
85440,note_on,215,0,5,,,,,,,,4,,,,67,75
85440,note_on,0,0,5,,,,,,,,4,,,,70,75
85440,note_on,0,0,4,,,,,,,,3,,,,72,75
85440,note_on,215,0,1,,,,,,,,0,,,,72,75
85440,note_on,215,0,6,,,,,,,,5,,,,67,75
85440,note_on,0,0,6,,,,,,,,5,,,,70,75
85440,note_on,215,0,4,,,,,,,,3,,,,64,75
85440,note_on,215,0,3,,,,,,,,2,,,,70,75
85520,note_off,80,0,2,,,,,,,,1,,,,64,64
85520,note_off,80,0,1,,,,,,,,0,,,,72,64
85520,note_off,80,0,5,,,,,,,,4,,,,70,64
85520,note_off,0,0,5,,,,,,,,4,,,,67,64
85520,note_off,80,0,3,,,,,,,,2,,,,70,64
85520,note_off,0,0,6,,,,,,,,5,,,,67,64
85520,note_off,80,0,6,,,,,,,,5,,,,70,64
85520,note_off,0,0,4,,,,,,,,3,,,,64,64
85520,note_off,80,0,4,,,,,,,,3,,,,72,64
85680,note_on,160,0,1,,,,,,,,0,,,,74,75
85680,note_on,160,0,5,,,,,,,,4,,,,67,75
85680,note_on,0,0,5,,,,,,,,4,,,,70,75
85680,note_on,160,0,4,,,,,,,,3,,,,65,75
85680,note_on,160,0,3,,,,,,,,2,,,,70,75
85680,note_on,160,0,6,,,,,,,,5,,,,67,75
85680,note_on,0,0,6,,,,,,,,5,,,,70,75
85680,note_on,160,0,2,,,,,,,,1,,,,65,75
85680,note_on,0,0,4,,,,,,,,3,,,,74,75
86040,note_off,1320,0,7,,,,,,,,6,,,,48,64
86040,note_off,1320,0,8,,,,,,,,7,,,,36,64
86080,note_off,0,0,6,,,,,,,,5,,,,67,64
86080,note_off,400,0,5,,,,,,,,4,,,,70,64
86080,note_off,400,0,2,,,,,,,,1,,,,65,64
86080,note_off,0,0,5,,,,,,,,4,,,,67,64
86080,note_off,400,0,4,,,,,,,,3,,,,74,64
86080,note_off,0,0,4,,,,,,,,3,,,,65,64
86080,note_off,400,0,6,,,,,,,,5,,,,70,64
86080,note_off,400,0,3,,,,,,,,2,,,,70,64
86080,note_off,400,0,1,,,,,,,,0,,,,74,64
86160,note_on,80,0,2,,,,,,,,1,,,,64,75
86160,note_on,80,0,5,,,,,,,,4,,,,67,75
86160,note_on,0,0,5,,,,,,,,4,,,,70,75
86160,note_on,0,0,6,,,,,,,,5,,,,70,75
86160,note_on,80,0,6,,,,,,,,5,,,,67,75
86160,note_on,80,0,3,,,,,,,,2,,,,70,75
86160,note_on,120,0,7,,,,,,,,6,,,,48,75
86160,note_on,120,0,8,,,,,,,,7,,,,36,75
86160,note_on,80,0,1,,,,,,,,0,,,,72,75
86160,note_on,0,0,4,,,,,,,,3,,,,72,75
86160,note_on,80,0,4,,,,,,,,3,,,,64,75
86280,note_off,120,0,7,,,,,,,,6,,,,48,64
86280,note_off,120,0,8,,,,,,,,7,,,,36,64
86560,note_off,400,0,2,,,,,,,,1,,,,64,64
86560,note_off,400,0,1,,,,,,,,0,,,,72,64
86560,note_off,400,0,3,,,,,,,,2,,,,70,64
86560,note_off,400,0,5,,,,,,,,4,,,,70,64
86560,note_off,0,0,5,,,,,,,,4,,,,67,64
86560,note_off,0,0,6,,,,,,,,5,,,,67,64
86560,note_off,400,0,6,,,,,,,,5,,,,70,64
86560,note_off,0,0,4,,,,,,,,3,,,,64,64
86560,note_off,400,0,4,,,,,,,,3,,,,72,64
86640,note_on,360,0,7,,,,,,,,6,,,,50,75
86640,note_on,360,0,8,,,,,,,,7,,,,38,75
86760,note_off,120,0,7,,,,,,,,6,,,,50,64
86760,note_off,120,0,8,,,,,,,,7,,,,38,64
87120,note_on,360,0,8,,,,,,,,7,,,,40,60
87120,note_on,360,0,7,,,,,,,,6,,,,52,60
87240,note_off,120,0,8,,,,,,,,7,,,,40,64
87240,note_off,120,0,7,,,,,,,,6,,,,52,64
87600,note_on,360,0,8,,,,,,,,7,,,,41,45
87600,note_on,360,0,7,,,,,,,,6,,,,53,45
87600,note_on,1040,0,1,,,,,,,,0,,,,77,60
88000,note_off,400,0,8,,,,,,,,7,,,,41,64
88000,note_off,400,0,7,,,,,,,,6,,,,53,64
88195,note_off,595,0,1,,,,,,,,0,,,,77,64
88320,note_on,125,0,1,,,,,,,,0,,,,77,60
88400,note_off,80,0,1,,,,,,,,0,,,,77,64
88560,note_on,160,0,1,,,,,,,,0,,,,79,60
88560,note_on,2000,0,6,,,,,,,,5,,,,57,45
88560,note_on,2000,0,5,,,,,,,,4,,,,60,45
88560,note_on,2000,0,4,,,,,,,,3,,,,65,45
88960,note_off,400,0,5,,,,,,,,4,,,,60,64
88960,note_off,400,0,6,,,,,,,,5,,,,57,64
88960,note_off,400,0,4,,,,,,,,3,,,,65,64
88960,note_off,400,0,1,,,,,,,,0,,,,79,64
89040,note_on,80,0,1,,,,,,,,0,,,,77,60
89040,note_on,1040,0,8,,,,,,,,7,,,,38,45
89040,note_on,1040,0,7,,,,,,,,6,,,,50,45
89440,note_off,400,0,8,,,,,,,,7,,,,38,64
89440,note_off,400,0,7,,,,,,,,6,,,,50,64
89635,note_off,595,0,1,,,,,,,,0,,,,77,64
89760,note_on,125,0,1,,,,,,,,0,,,,77,60
89840,note_off,80,0,1,,,,,,,,0,,,,77,64
90000,note_on,1040,0,4,,,,,,,,3,,,,65,45
90000,note_on,1040,0,5,,,,,,,,4,,,,62,45
90000,note_on,1040,0,6,,,,,,,,5,,,,57,45
90000,note_on,160,0,1,,,,,,,,0,,,,79,60
90400,note_off,400,0,1,,,,,,,,0,,,,79,64
90400,note_off,400,0,4,,,,,,,,3,,,,65,64
90400,note_off,400,0,6,,,,,,,,5,,,,57,64
90400,note_off,400,0,5,,,,,,,,4,,,,62,64
90480,note_on,80,0,1,,,,,,,,0,,,,77,60
90480,note_on,1040,0,8,,,,,,,,7,,,,35,45
90480,note_on,1040,0,7,,,,,,,,6,,,,47,45
90880,note_off,400,0,7,,,,,,,,6,,,,47,64
90880,note_off,400,0,8,,,,,,,,7,,,,35,64
91075,note_off,595,0,1,,,,,,,,0,,,,77,64
91200,note_on,125,0,1,,,,,,,,0,,,,77,60
91280,note_off,80,0,1,,,,,,,,0,,,,77,64
91440,note_on,1040,0,6,,,,,,,,5,,,,56,45
91440,note_on,160,0,1,,,,,,,,0,,,,79,60
91440,note_on,1040,0,5,,,,,,,,4,,,,62,45
91440,note_on,1040,0,4,,,,,,,,3,,,,65,45
91840,note_off,400,0,5,,,,,,,,4,,,,62,64
91840,note_off,400,0,4,,,,,,,,3,,,,65,64
91840,note_off,400,0,6,,,,,,,,5,,,,56,64
91840,note_off,400,0,1,,,,,,,,0,,,,79,64
91920,note_on,80,0,1,,,,,,,,0,,,,77,60
91920,note_on,1040,0,8,,,,,,,,7,,,,32,45
91920,note_on,1040,0,7,,,,,,,,6,,,,44,45
92320,note_off,400,0,7,,,,,,,,6,,,,44,64
92320,note_off,400,0,8,,,,,,,,7,,,,32,64
92515,note_off,595,0,1,,,,,,,,0,,,,77,64
92640,note_on,125,0,1,,,,,,,,0,,,,77,60
92720,note_off,80,0,1,,,,,,,,0,,,,77,64
92880,note_on,1040,0,4,,,,,,,,3,,,,65,45
92880,note_on,1040,0,5,,,,,,,,4,,,,62,45
92880,note_on,160,0,1,,,,,,,,0,,,,79,60
92880,note_on,1040,0,6,,,,,,,,5,,,,59,45
93280,note_off,400,0,4,,,,,,,,3,,,,65,64
93280,note_off,400,0,6,,,,,,,,5,,,,59,64
93280,note_off,400,0,1,,,,,,,,0,,,,79,64
93280,note_off,400,0,5,,,,,,,,4,,,,62,64
93360,note_on,80,0,5,,,,,,,,4,,,,60,45
93360,note_on,1040,0,7,,,,,,,,6,,,,45,45
93360,note_on,80,0,6,,,,,,,,5,,,,57,45
93360,note_on,1040,0,8,,,,,,,,7,,,,33,45
93360,note_on,80,0,1,,,,,,,,0,,,,76,60
93360,note_on,80,0,4,,,,,,,,3,,,,64,45
93760,note_off,400,0,7,,,,,,,,6,,,,45,64
93760,note_off,400,0,8,,,,,,,,7,,,,33,64
93955,note_off,595,0,1,,,,,,,,0,,,,76,64
93955,note_off,595,0,4,,,,,,,,3,,,,64,64
94000,note_off,640,0,5,,,,,,,,4,,,,60,64
94000,note_off,640,0,6,,,,,,,,5,,,,57,64
94080,note_on,125,0,1,,,,,,,,0,,,,76,60
94080,note_on,125,0,4,,,,,,,,3,,,,64,45
94080,note_on,80,0,6,,,,,,,,5,,,,57,45
94080,note_on,80,0,5,,,,,,,,4,,,,60,45
94160,note_off,80,0,1,,,,,,,,0,,,,76,64
94160,note_off,80,0,4,,,,,,,,3,,,,64,64
94315,note_off,235,0,6,,,,,,,,5,,,,57,64
94315,note_off,235,0,5,,,,,,,,4,,,,60,64
94320,note_on,5,0,6,,,,,,,,5,,,,57,45
94320,note_on,160,0,4,,,,,,,,3,,,,65,45
94320,note_on,5,0,5,,,,,,,,4,,,,62,45
94320,note_on,160,0,1,,,,,,,,0,,,,77,60
94720,note_off,400,0,5,,,,,,,,4,,,,62,64
94720,note_off,400,0,6,,,,,,,,5,,,,57,64
94720,note_off,400,0,1,,,,,,,,0,,,,77,64
94720,note_off,400,0,4,,,,,,,,3,,,,65,64
94800,note_on,80,0,1,,,,,,,,0,,,,76,60
94800,note_on,80,0,4,,,,,,,,3,,,,64,45
94800,note_on,80,0,5,,,,,,,,4,,,,60,45
94800,note_on,80,0,6,,,,,,,,5,,,,57,45
94800,note_on,1040,0,8,,,,,,,,7,,,,33,45
94800,note_on,1040,0,7,,,,,,,,6,,,,45,45
95200,note_off,400,0,8,,,,,,,,7,,,,33,64
95200,note_off,400,0,7,,,,,,,,6,,,,45,64
95395,note_off,595,0,4,,,,,,,,3,,,,64,64
95395,note_off,595,0,1,,,,,,,,0,,,,76,64
95440,note_off,640,0,6,,,,,,,,5,,,,57,64
95440,note_off,640,0,5,,,,,,,,4,,,,60,64
95520,note_on,80,0,6,,,,,,,,5,,,,57,45
95520,note_on,80,0,5,,,,,,,,4,,,,60,45
95520,note_on,125,0,4,,,,,,,,3,,,,64,45
95520,note_on,125,0,1,,,,,,,,0,,,,76,60
95600,note_off,80,0,1,,,,,,,,0,,,,76,64
95600,note_off,80,0,4,,,,,,,,3,,,,64,64
95755,note_off,235,0,5,,,,,,,,4,,,,60,64
95755,note_off,235,0,6,,,,,,,,5,,,,57,64
95760,note_on,5,0,5,,,,,,,,4,,,,62,45
95760,note_on,5,0,6,,,,,,,,5,,,,57,45
95760,note_on,160,0,4,,,,,,,,3,,,,65,45
95760,note_on,160,0,1,,,,,,,,0,,,,77,60
96160,note_off,400,0,5,,,,,,,,4,,,,62,64
96160,note_off,400,0,1,,,,,,,,0,,,,77,64
96160,note_off,400,0,4,,,,,,,,3,,,,65,64
96160,note_off,400,0,6,,,,,,,,5,,,,57,64
96240,note_on,1040,0,8,,,,,,,,7,,,,31,45
96240,note_on,80,0,6,,,,,,,,5,,,,55,45
96240,note_on,80,0,5,,,,,,,,4,,,,60,45
96240,note_on,80,0,4,,,,,,,,3,,,,64,45
96240,note_on,1040,0,7,,,,,,,,6,,,,43,45
96240,note_on,80,0,1,,,,,,,,0,,,,76,60
96360,note_off,120,0,4,,,,,,,,3,,,,64,64
96360,note_off,120,0,1,,,,,,,,0,,,,76,64
96640,note_off,400,0,6,,,,,,,,5,,,,55,64
96640,note_off,400,0,8,,,,,,,,7,,,,31,64
96640,note_off,400,0,5,,,,,,,,4,,,,60,64
96640,note_off,400,0,7,,,,,,,,6,,,,43,64
96720,note_on,80,0,7,,,,,,,,6,,,,43,45
96720,note_on,360,0,1,,,,,,,,0,,,,76,60
96720,note_on,80,0,6,,,,,,,,5,,,,55,45
96720,note_on,80,0,5,,,,,,,,4,,,,60,45
96720,note_on,80,0,8,,,,,,,,7,,,,31,45
96720,note_on,360,0,4,,,,,,,,3,,,,64,45
96840,note_off,120,0,4,,,,,,,,3,,,,64,64
96840,note_off,120,0,1,,,,,,,,0,,,,76,64
97120,note_off,400,0,6,,,,,,,,5,,,,55,64
97120,note_off,400,0,5,,,,,,,,4,,,,60,64
97120,note_off,400,0,8,,,,,,,,7,,,,31,64
97120,note_off,400,0,7,,,,,,,,6,,,,43,64
97200,note_on,360,0,1,,,,,,,,0,,,,74,60
97200,note_on,360,0,4,,,,,,,,3,,,,62,45
97200,note_on,80,0,5,,,,,,,,4,,,,59,45
97200,note_on,80,0,8,,,,,,,,7,,,,31,45
97200,note_on,80,0,6,,,,,,,,5,,,,55,45
97200,note_on,80,0,7,,,,,,,,6,,,,43,45
97320,note_off,120,0,4,,,,,,,,3,,,,62,64
97320,note_off,120,0,1,,,,,,,,0,,,,74,64
97600,note_off,400,0,5,,,,,,,,4,,,,59,64
97600,note_off,400,0,7,,,,,,,,6,,,,43,64
97600,note_off,400,0,8,,,,,,,,7,,,,31,64
97600,note_off,400,0,6,,,,,,,,5,,,,55,64
97680,note_on,80,0,5,,,,,,,,4,,,,60,45
97680,note_on,80,0,7,,,,,,,,6,,,,48,45
97680,note_on,360,0,4,,,,,,,,3,,,,60,45
97680,note_on,80,0,8,,,,,,,,7,,,,36,45
97680,note_on,80,0,6,,,,,,,,5,,,,52,45
97680,note_on,360,0,1,,,,,,,,0,,,,72,60
97920,note_on,0,0,4,,,,,,,,3,,,,59,45
97920,note_on,0,0,1,,,,,,,,0,,,,71,60
97920,note_off,240,0,1,,,,,,,,0,,,,72,64
97920,note_off,240,0,4,,,,,,,,3,,,,60,64
98080,note_off,400,0,8,,,,,,,,7,,,,36,64
98080,note_off,400,0,5,,,,,,,,4,,,,60,64
98080,note_off,400,0,6,,,,,,,,5,,,,52,64
98080,note_off,400,0,7,,,,,,,,6,,,,48,64
98160,note_off,240,0,4,,,,,,,,3,,,,59,64
98160,note_on,0,0,4,,,,,,,,3,,,,57,45
98160,note_off,240,0,1,,,,,,,,0,,,,71,64
98160,note_on,0,0,1,,,,,,,,0,,,,69,60
98400,note_off,240,0,4,,,,,,,,3,,,,57,64
98400,note_on,0,0,4,,,,,,,,3,,,,59,45
98400,note_on,0,0,1,,,,,,,,0,,,,71,60
98400,note_off,240,0,1,,,,,,,,0,,,,69,64
98640,note_on,0,0,1,,,,,,,,0,,,,72,60
98640,note_on,0,0,4,,,,,,,,3,,,,60,45
98640,note_off,240,0,4,,,,,,,,3,,,,59,64
98640,note_off,240,0,1,,,,,,,,0,,,,71,64
98880,note_off,240,0,4,,,,,,,,3,,,,60,64
98880,note_on,0,0,1,,,,,,,,0,,,,74,60
98880,note_off,240,0,1,,,,,,,,0,,,,72,64
98880,note_on,0,0,4,,,,,,,,3,,,,62,45
99120,note_off,240,0,1,,,,,,,,0,,,,74,64
99120,note_on,0,0,4,,,,,,,,3,,,,64,45
99120,note_off,240,0,4,,,,,,,,3,,,,62,64
99120,note_on,1040,0,7,,,,,,,,6,,,,45,45
99120,note_on,1040,0,6,,,,,,,,5,,,,57,45
99120,note_on,1040,0,5,,,,,,,,4,,,,61,45
99120,note_on,1040,0,8,,,,,,,,7,,,,33,45
99120,note_on,0,0,1,,,,,,,,0,,,,76,60
99520,note_off,400,0,8,,,,,,,,7,,,,33,64
99520,note_off,400,0,7,,,,,,,,6,,,,45,64
99715,note_off,595,0,4,,,,,,,,3,,,,64,64
99715,note_off,595,0,1,,,,,,,,0,,,,76,64
99715,note_off,595,0,5,,,,,,,,4,,,,61,64
99715,note_off,595,0,6,,,,,,,,5,,,,57,64
99840,note_on,125,0,5,,,,,,,,4,,,,61,45
99840,note_on,125,0,1,,,,,,,,0,,,,76,60
99840,note_on,125,0,6,,,,,,,,5,,,,57,45
99840,note_on,125,0,4,,,,,,,,3,,,,64,45
99920,note_off,80,0,4,,,,,,,,3,,,,64,64
99920,note_off,80,0,6,,,,,,,,5,,,,57,64
99920,note_off,80,0,1,,,,,,,,0,,,,76,64
99920,note_off,80,0,5,,,,,,,,4,,,,61,64
100080,note_on,160,0,5,,,,,,,,4,,,,62,45
100080,note_on,160,0,6,,,,,,,,5,,,,57,45
100080,note_on,560,0,7,,,,,,,,6,,,,50,45
100080,note_on,560,0,8,,,,,,,,7,,,,38,45
100080,note_on,160,0,1,,,,,,,,0,,,,77,60
100080,note_on,160,0,4,,,,,,,,3,,,,65,45
100480,note_off,400,0,6,,,,,,,,5,,,,57,64
100480,note_off,400,0,7,,,,,,,,6,,,,50,64
100480,note_off,400,0,4,,,,,,,,3,,,,65,64
100480,note_off,400,0,8,,,,,,,,7,,,,38,64
100480,note_off,400,0,5,,,,,,,,4,,,,62,64
100480,note_off,400,0,1,,,,,,,,0,,,,77,64
100560,note_on,80,0,5,,,,,,,,4,,,,61,45
100560,note_on,80,0,1,,,,,,,,0,,,,76,60
100560,note_on,80,0,6,,,,,,,,5,,,,57,45
100560,note_on,80,0,4,,,,,,,,3,,,,64,45
100560,note_on,80,0,8,,,,,,,,7,,,,33,45
100560,note_on,80,0,7,,,,,,,,6,,,,45,45
100960,note_off,400,0,8,,,,,,,,7,,,,33,64
100960,note_off,400,0,7,,,,,,,,6,,,,45,64
101155,note_off,595,0,1,,,,,,,,0,,,,76,64
101155,note_off,595,0,4,,,,,,,,3,,,,64,64
101155,note_off,595,0,5,,,,,,,,4,,,,61,64
101155,note_off,595,0,6,,,,,,,,5,,,,57,64
101280,note_on,125,0,4,,,,,,,,3,,,,64,45
101280,note_on,125,0,1,,,,,,,,0,,,,76,58
101280,note_on,125,0,5,,,,,,,,4,,,,61,45
101280,note_on,125,0,6,,,,,,,,5,,,,57,45
101360,note_off,80,0,5,,,,,,,,4,,,,61,64
101360,note_off,80,0,4,,,,,,,,3,,,,64,64
101360,note_off,80,0,6,,,,,,,,5,,,,57,64
101360,note_off,80,0,1,,,,,,,,0,,,,76,64
101520,note_on,160,0,6,,,,,,,,5,,,,57,45
101520,note_on,160,0,1,,,,,,,,0,,,,77,57
101520,note_on,560,0,8,,,,,,,,7,,,,38,45
101520,note_on,160,0,5,,,,,,,,4,,,,62,45
101520,note_on,560,0,7,,,,,,,,6,,,,50,45
101520,note_on,160,0,4,,,,,,,,3,,,,65,45
101640,note_off,120,0,5,,,,,,,,4,,,,62,64
101920,note_off,400,0,8,,,,,,,,7,,,,38,64
101920,note_off,400,0,4,,,,,,,,3,,,,65,64
101920,note_off,400,0,6,,,,,,,,5,,,,57,64
101920,note_off,400,0,7,,,,,,,,6,,,,50,64
101920,note_off,400,0,1,,,,,,,,0,,,,77,64
102000,note_on,80,0,4,,,,,,,,3,,,,64,45
102000,note_on,80,0,7,,,,,,,,6,,,,43,45
102000,note_on,80,0,1,,,,,,,,0,,,,76,54
102000,note_on,360,0,5,,,,,,,,4,,,,60,45
102000,note_on,80,0,8,,,,,,,,7,,,,31,45
102000,note_on,80,0,6,,,,,,,,5,,,,55,45
102120,note_off,120,0,5,,,,,,,,4,,,,60,64
102120,note_off,120,0,7,,,,,,,,6,,,,43,64
102120,note_off,120,0,4,,,,,,,,3,,,,64,64
102120,note_off,120,0,6,,,,,,,,5,,,,55,64
102120,note_off,120,0,8,,,,,,,,7,,,,31,64
102120,note_off,120,0,1,,,,,,,,0,,,,76,64
102480,note_on,360,0,5,,,,,,,,4,,,,60,45
102480,note_on,360,0,1,,,,,,,,0,,,,76,51
102480,note_on,360,0,7,,,,,,,,6,,,,43,45
102480,note_on,360,0,4,,,,,,,,3,,,,64,45
102480,note_on,360,0,8,,,,,,,,7,,,,31,45
102480,note_on,360,0,6,,,,,,,,5,,,,55,45
102600,note_off,120,0,4,,,,,,,,3,,,,64,64
102600,note_off,120,0,5,,,,,,,,4,,,,60,64
102600,note_off,120,0,8,,,,,,,,7,,,,31,64
102600,note_off,120,0,1,,,,,,,,0,,,,76,64
102600,note_off,120,0,7,,,,,,,,6,,,,43,64
102600,note_off,120,0,6,,,,,,,,5,,,,55,64
102960,note_on,360,0,6,,,,,,,,5,,,,55,45
102960,note_on,360,0,8,,,,,,,,7,,,,31,45
102960,note_on,360,0,1,,,,,,,,0,,,,74,48
102960,note_on,360,0,5,,,,,,,,4,,,,59,45
102960,note_on,360,0,4,,,,,,,,3,,,,62,45
102960,note_on,360,0,7,,,,,,,,6,,,,43,45
103080,note_off,120,0,8,,,,,,,,7,,,,31,64
103080,note_off,120,0,1,,,,,,,,0,,,,74,64
103080,note_off,120,0,7,,,,,,,,6,,,,43,64
103080,note_off,120,0,5,,,,,,,,4,,,,59,64
103080,note_off,120,0,4,,,,,,,,3,,,,62,64
103080,note_off,120,0,6,,,,,,,,5,,,,55,64
103440,note_on,360,0,4,,,,,,,,3,,,,60,45
103440,note_on,360,0,6,,,,,,,,5,,,,52,45
103440,note_on,360,0,7,,,,,,,,6,,,,48,45
103440,note_on,360,0,8,,,,,,,,7,,,,36,45
103440,note_on,360,0,5,,,,,,,,4,,,,60,45
103440,note_on,360,0,1,,,,,,,,0,,,,72,45
103560,note_off,120,0,8,,,,,,,,7,,,,36,64
103560,note_off,120,0,7,,,,,,,,6,,,,48,64
103840,note_off,400,0,4,,,,,,,,3,,,,60,64
103840,note_off,400,0,5,,,,,,,,4,,,,60,64
103840,note_off,400,0,1,,,,,,,,0,,,,72,64
103840,note_off,400,0,6,,,,,,,,5,,,,52,64
104400,note_on,840,0,8,,,,,,,,7,,,,42,92
104400,note_on,0,0,6,,,,,,,,5,,,,54,92
104400,program_change,560,0,6,,,,,,,,5,,,50,,
104400,note_on,560,0,4,,,,,,,,3,,,,66,92
104400,note_on,840,0,7,,,,,,,,6,,,,54,92
104560,note_off,160,0,6,,,,,,,,5,,,,54,64
104560,note_off,160,0,4,,,,,,,,3,,,,66,64
104560,note_off,160,0,7,,,,,,,,6,,,,54,64
104560,note_off,160,0,8,,,,,,,,7,,,,42,64
104560,note_on,0,0,6,,,,,,,,5,,,,55,92
104560,note_on,0,0,7,,,,,,,,6,,,,55,92
104560,note_on,0,0,4,,,,,,,,3,,,,67,92
104560,note_on,0,0,8,,,,,,,,7,,,,43,92
104720,note_off,160,0,4,,,,,,,,3,,,,67,64
104720,note_on,0,0,4,,,,,,,,3,,,,69,92
104720,note_off,160,0,7,,,,,,,,6,,,,55,64
104720,note_off,160,0,6,,,,,,,,5,,,,55,64
104720,note_on,0,0,7,,,,,,,,6,,,,57,92
104720,note_on,0,0,6,,,,,,,,5,,,,57,92
104720,note_off,160,0,8,,,,,,,,7,,,,43,64
104720,note_on,0,0,8,,,,,,,,7,,,,45,92
104875,note_off,155,0,4,,,,,,,,3,,,,69,64
104875,note_off,155,0,7,,,,,,,,6,,,,57,64
104875,note_off,155,0,6,,,,,,,,5,,,,57,64
104875,note_off,155,0,8,,,,,,,,7,,,,45,64
104880,program_change,5,0,6,,,,,,,,5,,,50,,
104880,note_on,0,0,6,,,,,,,,5,,,,58,92
104880,set_tempo,52020,1,0,229007,,,,,,,,,,,,
104880,note_on,5,0,8,,,,,,,,7,,,,46,92
104880,note_on,5,0,7,,,,,,,,6,,,,58,92
104880,note_on,5,0,4,,,,,,,,3,,,,70,92
105385,note_off,505,0,6,,,,,,,,5,,,,58,64
105385,note_off,505,0,4,,,,,,,,3,,,,70,64
105385,note_off,505,0,8,,,,,,,,7,,,,46,64
105385,note_off,505,0,7,,,,,,,,6,,,,58,64
105600,note_on,215,0,6,,,,,,,,5,,,,58,92
105600,note_on,215,0,7,,,,,,,,6,,,,58,92
105600,note_on,215,0,4,,,,,,,,3,,,,70,92
105600,note_on,215,0,8,,,,,,,,7,,,,46,92
105680,note_off,80,0,8,,,,,,,,7,,,,46,64
105680,note_off,80,0,7,,,,,,,,6,,,,58,64
105680,note_off,80,0,6,,,,,,,,5,,,,58,64
105680,note_off,80,0,4,,,,,,,,3,,,,70,64
105840,note_on,160,0,7,,,,,,,,6,,,,60,92
105840,note_on,160,0,6,,,,,,,,5,,,,60,92
105840,note_on,160,0,4,,,,,,,,3,,,,72,92
105840,note_on,160,0,8,,,,,,,,7,,,,48,92
106240,note_off,400,0,4,,,,,,,,3,,,,72,64
106240,note_off,400,0,7,,,,,,,,6,,,,60,64
106240,note_off,400,0,6,,,,,,,,5,,,,60,64
106240,note_off,400,0,8,,,,,,,,7,,,,48,64
106320,set_tempo,1440,1,0,247933,,,,,,,,,,,,
106320,note_on,80,0,7,,,,,,,,6,,,,58,92
106320,note_on,80,0,4,,,,,,,,3,,,,70,92
106320,note_on,80,0,8,,,,,,,,7,,,,46,92
106320,note_on,80,0,6,,,,,,,,5,,,,58,92
106825,note_off,505,0,8,,,,,,,,7,,,,46,64
106825,note_off,505,0,6,,,,,,,,5,,,,58,64
106825,note_off,505,0,4,,,,,,,,3,,,,70,64
106825,note_off,505,0,7,,,,,,,,6,,,,58,64
107040,note_on,215,0,6,,,,,,,,5,,,,58,92
107040,note_on,215,0,4,,,,,,,,3,,,,70,92
107040,note_on,215,0,8,,,,,,,,7,,,,46,92
107040,note_on,215,0,7,,,,,,,,6,,,,58,92
107120,note_off,80,0,4,,,,,,,,3,,,,70,64
107120,note_off,80,0,7,,,,,,,,6,,,,58,64
107120,note_off,80,0,6,,,,,,,,5,,,,58,64
107120,note_off,80,0,8,,,,,,,,7,,,,46,64
107280,note_on,160,0,6,,,,,,,,5,,,,60,92
107280,note_on,160,0,7,,,,,,,,6,,,,60,92
107280,note_on,160,0,8,,,,,,,,7,,,,48,92
107280,note_on,160,0,4,,,,,,,,3,,,,72,92
107680,note_off,400,0,4,,,,,,,,3,,,,72,64
107680,note_off,400,0,7,,,,,,,,6,,,,60,64
107680,note_off,400,0,8,,,,,,,,7,,,,48,64
107680,note_off,400,0,6,,,,,,,,5,,,,60,64
107760,note_on,80,0,7,,,,,,,,6,,,,58,92
107760,note_on,80,0,8,,,,,,,,7,,,,46,92
107760,set_tempo,1440,1,0,263157,,,,,,,,,,,,
107760,note_on,80,0,4,,,,,,,,3,,,,70,92
107760,note_on,80,0,6,,,,,,,,5,,,,58,92
108265,note_off,505,0,7,,,,,,,,6,,,,58,64
108265,note_off,505,0,8,,,,,,,,7,,,,46,64
108265,note_off,505,0,6,,,,,,,,5,,,,58,64
108265,note_off,505,0,4,,,,,,,,3,,,,70,64
108480,note_on,215,0,7,,,,,,,,6,,,,58,92
108480,note_on,215,0,4,,,,,,,,3,,,,70,92
108480,note_on,215,0,8,,,,,,,,7,,,,46,92
108480,set_tempo,720,1,0,276497,,,,,,,,,,,,
108480,note_on,215,0,6,,,,,,,,5,,,,58,92
108560,note_off,80,0,4,,,,,,,,3,,,,70,64
108560,note_off,80,0,7,,,,,,,,6,,,,58,64
108560,note_off,80,0,8,,,,,,,,7,,,,46,64
108560,note_off,80,0,6,,,,,,,,5,,,,58,64
108720,note_on,160,0,7,,,,,,,,6,,,,60,92
108720,set_tempo,240,1,0,300000,,,,,,,,,,,,
108720,note_on,160,0,6,,,,,,,,5,,,,60,92
108720,note_on,160,0,4,,,,,,,,3,,,,72,92
108720,note_on,160,0,8,,,,,,,,7,,,,48,92
109120,note_off,400,0,7,,,,,,,,6,,,,60,64
109120,note_off,400,0,4,,,,,,,,3,,,,72,64
109120,note_off,400,0,6,,,,,,,,5,,,,60,64
109120,note_off,400,0,8,,,,,,,,7,,,,48,64
109200,note_on,80,0,6,,,,,,,,5,,,,61,92
109200,note_on,80,0,7,,,,,,,,6,,,,61,92
109200,note_on,80,0,8,,,,,,,,7,,,,49,92
109200,set_tempo,480,1,0,333333,,,,,,,,,,,,
109200,note_on,80,0,4,,,,,,,,3,,,,73,92
112080,note_off,2880,0,7,,,,,,,,6,,,,61,64
112080,note_on,0,0,7,,,,,,,,6,,,,61,60
112080,note_off,2880,0,4,,,,,,,,3,,,,73,64
112080,note_on,0,0,4,,,,,,,,3,,,,73,60
112800,note_on,8960,0,1,,,,,,,,0,,,,72,60
112800,set_tempo,3600,1,0,315789,,,,,,,,,,,,
113040,note_off,240,0,1,,,,,,,,0,,,,72,64
113040,note_on,0,0,1,,,,,,,,0,,,,73,60
113280,note_on,0,0,1,,,,,,,,0,,,,75,60
113280,note_off,240,0,1,,,,,,,,0,,,,73,64
113400,note_off,1320,0,4,,,,,,,,3,,,,73,64
113400,note_off,4200,0,6,,,,,,,,5,,,,61,64
113400,note_off,1320,0,7,,,,,,,,6,,,,61,64
113400,note_off,4200,0,8,,,,,,,,7,,,,49,64
113515,note_off,235,0,1,,,,,,,,0,,,,75,64
113520,note_on,120,0,8,,,,,,,,7,,,,37,45
113520,note_on,120,0,7,,,,,,,,6,,,,44,45
113520,note_on,120,0,4,,,,,,,,3,,,,68,45
113520,program_change,120,0,6,,,,,,,,5,,,48,,
113520,note_on,0,0,6,,,,,,,,5,,,,53,45
113520,set_tempo,720,1,0,250000,,,,,,,,,,,,
113520,note_on,5,0,1,,,,,,,,0,,,,77,60
113520,note_on,9680,0,5,,,,,,,,4,,,,61,45
114160,note_off,640,0,5,,,,,,,,4,,,,61,64
114160,note_off,640,0,6,,,,,,,,5,,,,53,64
114160,note_off,640,0,1,,,,,,,,0,,,,77,64
114160,note_off,640,0,4,,,,,,,,3,,,,68,64
114240,note_on,80,0,1,,,,,,,,0,,,,77,60
114240,note_on,80,0,5,,,,,,,,4,,,,61,45
114240,note_on,80,0,6,,,,,,,,5,,,,53,45
114240,note_on,80,0,4,,,,,,,,3,,,,68,45
114480,note_on,0,0,4,,,,,,,,3,,,,68,45
114480,note_off,240,0,4,,,,,,,,3,,,,68,64
114480,note_on,0,0,6,,,,,,,,5,,,,56,45
114480,note_off,240,0,1,,,,,,,,0,,,,77,64
114480,note_on,0,0,1,,,,,,,,0,,,,75,60
114480,note_on,0,0,5,,,,,,,,4,,,,63,45
114480,note_off,240,0,6,,,,,,,,5,,,,53,64
114480,note_off,240,0,5,,,,,,,,4,,,,61,64
114600,note_off,120,0,4,,,,,,,,3,,,,68,64
114600,note_off,120,0,5,,,,,,,,4,,,,63,64
114600,note_off,120,0,6,,,,,,,,5,,,,56,64
114600,note_off,120,0,1,,,,,,,,0,,,,75,64
114960,note_on,360,0,5,,,,,,,,4,,,,65,45
114960,note_on,360,0,1,,,,,,,,0,,,,73,60
114960,note_on,360,0,6,,,,,,,,5,,,,61,45
114960,note_on,360,0,4,,,,,,,,3,,,,68,45
115600,note_off,2080,0,8,,,,,,,,7,,,,37,64
115600,note_off,2080,0,7,,,,,,,,6,,,,44,64
115680,note_on,80,0,8,,,,,,,,7,,,,37,45
115680,note_on,80,0,7,,,,,,,,6,,,,44,45
115915,note_off,235,0,8,,,,,,,,7,,,,37,64
115915,note_off,235,0,7,,,,,,,,6,,,,44,64
115920,note_on,5,0,8,,,,,,,,7,,,,37,45
115920,note_on,5,0,7,,,,,,,,6,,,,44,45
116280,note_off,1320,0,1,,,,,,,,0,,,,73,64
116280,note_off,1320,0,4,,,,,,,,3,,,,68,64
116280,note_off,1320,0,6,,,,,,,,5,,,,61,64
116280,note_off,1320,0,5,,,,,,,,4,,,,65,64
116320,note_off,400,0,7,,,,,,,,6,,,,44,64
116320,note_off,400,0,8,,,,,,,,7,,,,37,64
116400,note_on,120,0,5,,,,,,,,4,,,,61,45
116400,note_on,120,0,1,,,,,,,,0,,,,77,60
116400,note_on,80,0,7,,,,,,,,6,,,,44,45
116400,note_on,80,0,8,,,,,,,,7,,,,37,45
116400,note_on,120,0,4,,,,,,,,3,,,,68,45
116400,note_on,120,0,6,,,,,,,,5,,,,53,45
117040,note_off,640,0,5,,,,,,,,4,,,,61,64
117040,note_off,640,0,6,,,,,,,,5,,,,53,64
117040,note_off,640,0,1,,,,,,,,0,,,,77,64
117040,note_off,640,0,4,,,,,,,,3,,,,68,64
117120,note_on,80,0,6,,,,,,,,5,,,,53,45
117120,note_on,80,0,5,,,,,,,,4,,,,61,45
117120,note_on,80,0,4,,,,,,,,3,,,,68,45
117120,note_on,80,0,1,,,,,,,,0,,,,77,60
117360,note_on,0,0,5,,,,,,,,4,,,,63,45
117360,note_on,0,0,6,,,,,,,,5,,,,56,45
117360,note_off,240,0,6,,,,,,,,5,,,,53,64
117360,note_on,0,0,1,,,,,,,,0,,,,75,60
117360,note_on,0,0,4,,,,,,,,3,,,,68,45
117360,note_off,240,0,4,,,,,,,,3,,,,68,64
117360,note_off,240,0,1,,,,,,,,0,,,,77,64
117360,note_off,240,0,5,,,,,,,,4,,,,61,64
117480,note_off,120,0,6,,,,,,,,5,,,,56,64
117480,note_off,120,0,5,,,,,,,,4,,,,63,64
117480,note_off,120,0,1,,,,,,,,0,,,,75,64
117480,note_off,120,0,4,,,,,,,,3,,,,68,64
117840,note_on,360,0,4,,,,,,,,3,,,,68,45
117840,note_on,360,0,5,,,,,,,,4,,,,65,45
117840,note_on,360,0,1,,,,,,,,0,,,,73,60
117840,note_on,360,0,6,,,,,,,,5,,,,61,45
118480,note_off,2080,0,8,,,,,,,,7,,,,37,64
118480,note_off,2080,0,7,,,,,,,,6,,,,44,64
118560,note_on,80,0,7,,,,,,,,6,,,,44,45
118560,note_on,80,0,8,,,,,,,,7,,,,37,45
118795,note_off,235,0,8,,,,,,,,7,,,,37,64
118795,note_off,235,0,7,,,,,,,,6,,,,44,64
118800,note_on,5,0,7,,,,,,,,6,,,,44,45
118800,note_on,5,0,8,,,,,,,,7,,,,37,45
119160,note_off,1320,0,4,,,,,,,,3,,,,68,64
119160,note_off,1320,0,5,,,,,,,,4,,,,65,64
119160,note_off,1320,0,1,,,,,,,,0,,,,73,64
119160,note_off,1320,0,6,,,,,,,,5,,,,61,64
119200,note_off,400,0,7,,,,,,,,6,,,,44,64
119200,note_off,400,0,8,,,,,,,,7,,,,37,64
119280,note_on,120,0,1,,,,,,,,0,,,,78,60
119280,note_on,120,0,6,,,,,,,,5,,,,60,45
119280,note_on,120,0,4,,,,,,,,3,,,,68,45
119280,note_on,80,0,7,,,,,,,,6,,,,44,45
119280,note_on,120,0,5,,,,,,,,4,,,,63,45
119280,note_on,80,0,8,,,,,,,,7,,,,37,45
119920,note_off,640,0,6,,,,,,,,5,,,,60,64
119920,note_off,640,0,1,,,,,,,,0,,,,78,64
119920,note_off,640,0,4,,,,,,,,3,,,,68,64
119920,note_off,640,0,5,,,,,,,,4,,,,63,64
120000,note_on,80,0,6,,,,,,,,5,,,,60,45
120000,note_on,80,0,1,,,,,,,,0,,,,78,60
120000,note_on,80,0,4,,,,,,,,3,,,,68,45
120000,note_on,80,0,5,,,,,,,,4,,,,63,45
120240,note_on,0,0,6,,,,,,,,5,,,,61,45
120240,note_off,240,0,4,,,,,,,,3,,,,68,64
120240,note_off,240,0,6,,,,,,,,5,,,,60,64
120240,note_on,0,0,1,,,,,,,,0,,,,77,60
120240,note_on,0,0,4,,,,,,,,3,,,,68,45
120240,note_off,240,0,5,,,,,,,,4,,,,63,64
120240,note_on,0,0,5,,,,,,,,4,,,,65,45
120240,note_off,240,0,1,,,,,,,,0,,,,78,64
120360,note_off,120,0,4,,,,,,,,3,,,,68,64
120360,note_off,120,0,1,,,,,,,,0,,,,77,64
120360,note_off,120,0,5,,,,,,,,4,,,,65,64
120360,note_off,120,0,6,,,,,,,,5,,,,61,64
120720,note_on,360,0,1,,,,,,,,0,,,,75,60
120720,note_on,360,0,4,,,,,,,,3,,,,68,45
120720,note_on,360,0,6,,,,,,,,5,,,,60,45
120720,note_on,360,0,5,,,,,,,,4,,,,66,45
121360,note_off,2080,0,7,,,,,,,,6,,,,44,64
121360,note_off,2080,0,8,,,,,,,,7,,,,37,64
121440,note_on,80,0,8,,,,,,,,7,,,,37,45
121440,note_on,80,0,7,,,,,,,,6,,,,44,45
121675,note_off,235,0,7,,,,,,,,6,,,,44,64
121675,note_off,235,0,8,,,,,,,,7,,,,37,64
121680,note_on,5,0,7,,,,,,,,6,,,,44,45
121680,note_on,5,0,8,,,,,,,,7,,,,37,45
122040,note_off,1320,0,4,,,,,,,,3,,,,68,64
122040,note_off,1320,0,6,,,,,,,,5,,,,60,64
122040,note_off,1320,0,5,,,,,,,,4,,,,66,64
122040,note_off,1320,0,1,,,,,,,,0,,,,75,64
122080,note_off,400,0,8,,,,,,,,7,,,,37,64
122080,note_off,400,0,7,,,,,,,,6,,,,44,64
122160,note_on,120,0,6,,,,,,,,5,,,,60,45
122160,note_on,120,0,4,,,,,,,,3,,,,68,45
122160,note_on,80,0,7,,,,,,,,6,,,,44,45
122160,note_on,120,0,5,,,,,,,,4,,,,63,45
122160,note_on,120,0,1,,,,,,,,0,,,,78,60
122160,note_on,80,0,8,,,,,,,,7,,,,37,45
122800,note_off,640,0,5,,,,,,,,4,,,,63,64
122800,note_off,640,0,6,,,,,,,,5,,,,60,64
122800,note_off,640,0,4,,,,,,,,3,,,,68,64
122800,note_off,640,0,1,,,,,,,,0,,,,78,64
122880,note_on,80,0,5,,,,,,,,4,,,,63,45
122880,note_on,80,0,6,,,,,,,,5,,,,60,45
122880,note_on,80,0,4,,,,,,,,3,,,,68,45
122880,note_on,80,0,1,,,,,,,,0,,,,78,60
123120,note_on,0,0,1,,,,,,,,0,,,,77,60
123120,note_off,240,0,1,,,,,,,,0,,,,78,64
123120,note_on,0,0,4,,,,,,,,3,,,,68,45
123120,note_on,0,0,5,,,,,,,,4,,,,65,45
123120,note_off,240,0,4,,,,,,,,3,,,,68,64
123120,note_on,0,0,6,,,,,,,,5,,,,61,45
123120,note_off,240,0,5,,,,,,,,4,,,,63,64
123120,note_off,240,0,6,,,,,,,,5,,,,60,64
123240,note_off,120,0,5,,,,,,,,4,,,,65,64
123240,note_off,120,0,1,,,,,,,,0,,,,77,64
123240,note_off,120,0,4,,,,,,,,3,,,,68,64
123240,note_off,120,0,6,,,,,,,,5,,,,61,64
123600,note_on,360,0,4,,,,,,,,3,,,,68,45
123600,note_on,360,0,6,,,,,,,,5,,,,60,45
123600,note_on,360,0,1,,,,,,,,0,,,,75,60
123600,note_on,360,0,5,,,,,,,,4,,,,66,45
124240,note_off,2080,0,7,,,,,,,,6,,,,44,64
124240,note_off,2080,0,8,,,,,,,,7,,,,37,64
124320,note_on,80,0,7,,,,,,,,6,,,,44,45
124320,note_on,80,0,8,,,,,,,,7,,,,37,45
124555,note_off,235,0,7,,,,,,,,6,,,,44,64
124555,note_off,235,0,8,,,,,,,,7,,,,37,64
124560,note_on,5,0,8,,,,,,,,7,,,,37,45
124560,note_on,5,0,7,,,,,,,,6,,,,44,45
124920,note_off,1320,0,4,,,,,,,,3,,,,68,64
124920,note_off,1320,0,1,,,,,,,,0,,,,75,64
124920,note_off,1320,0,6,,,,,,,,5,,,,60,64
124920,note_off,1320,0,5,,,,,,,,4,,,,66,64
124960,note_off,400,0,8,,,,,,,,7,,,,37,64
124960,note_off,400,0,7,,,,,,,,6,,,,44,64
125040,note_on,120,0,4,,,,,,,,3,,,,77,60
125040,note_on,80,0,8,,,,,,,,7,,,,37,45
125040,note_on,120,0,1,,,,,,,,0,,,,68,60
125040,note_on,80,0,7,,,,,,,,6,,,,44,45
125040,note_on,38480,0,2,,,,,,,,1,,,,53,60
125040,note_on,120,0,5,,,,,,,,4,,,,68,45
125040,note_on,120,0,6,,,,,,,,5,,,,61,45
125680,note_off,640,0,2,,,,,,,,1,,,,53,64
125680,note_off,640,0,6,,,,,,,,5,,,,61,64
125680,note_off,640,0,4,,,,,,,,3,,,,77,64
125680,note_off,640,0,5,,,,,,,,4,,,,68,64
125760,note_on,80,0,2,,,,,,,,1,,,,53,60
125760,note_on,80,0,4,,,,,,,,3,,,,77,60
125760,note_on,80,0,5,,,,,,,,4,,,,68,45
125760,note_on,80,0,6,,,,,,,,5,,,,61,45
126000,note_off,240,0,5,,,,,,,,4,,,,68,64
126000,note_on,0,0,6,,,,,,,,5,,,,63,45
126000,note_on,0,0,5,,,,,,,,4,,,,68,45
126000,note_off,240,0,2,,,,,,,,1,,,,53,64
126000,note_on,0,0,2,,,,,,,,1,,,,56,60
126000,note_on,0,0,4,,,,,,,,3,,,,75,60
126000,note_off,240,0,4,,,,,,,,3,,,,77,64
126000,note_off,240,0,6,,,,,,,,5,,,,61,64
126120,note_off,120,0,6,,,,,,,,5,,,,63,64
126120,note_off,120,0,5,,,,,,,,4,,,,68,64
126120,note_off,120,0,4,,,,,,,,3,,,,75,64
126120,note_off,120,0,2,,,,,,,,1,,,,56,64
126480,note_on,360,0,2,,,,,,,,1,,,,61,60
126480,note_on,360,0,6,,,,,,,,5,,,,65,45
126480,note_on,360,0,5,,,,,,,,4,,,,68,45
126480,note_on,360,0,4,,,,,,,,3,,,,73,60
126960,note_off,1920,0,1,,,,,,,,0,,,,68,64
126960,note_on,0,0,1,,,,,,,,0,,,,73,60
127120,note_off,2080,0,8,,,,,,,,7,,,,37,64
127120,note_off,2080,0,7,,,,,,,,6,,,,44,64
127200,note_on,80,0,8,,,,,,,,7,,,,37,45
127200,note_on,80,0,7,,,,,,,,6,,,,44,45
127435,note_off,235,0,7,,,,,,,,6,,,,44,64
127435,note_off,235,0,8,,,,,,,,7,,,,37,64
127440,note_on,5,0,8,,,,,,,,7,,,,37,45
127440,note_on,0,0,1,,,,,,,,0,,,,68,60
127440,note_off,480,0,1,,,,,,,,0,,,,73,64
127440,note_on,5,0,7,,,,,,,,6,,,,44,45
127800,note_off,1320,0,6,,,,,,,,5,,,,65,64
127800,note_off,1320,0,2,,,,,,,,1,,,,61,64
127800,note_off,1320,0,4,,,,,,,,3,,,,73,64
127800,note_off,1320,0,5,,,,,,,,4,,,,68,64
127840,note_off,400,0,7,,,,,,,,6,,,,44,64
127840,note_off,400,0,1,,,,,,,,0,,,,68,64
127840,note_off,400,0,8,,,,,,,,7,,,,37,64
127920,note_on,120,0,4,,,,,,,,3,,,,77,60
127920,note_on,120,0,2,,,,,,,,1,,,,53,60
127920,note_on,80,0,8,,,,,,,,7,,,,37,45
127920,note_on,80,0,1,,,,,,,,0,,,,68,60
127920,note_on,120,0,5,,,,,,,,4,,,,68,45
127920,note_on,120,0,6,,,,,,,,5,,,,61,45
127920,note_on,80,0,7,,,,,,,,6,,,,44,45
128560,note_off,640,0,4,,,,,,,,3,,,,77,64
128560,note_off,640,0,2,,,,,,,,1,,,,53,64
128560,note_off,640,0,6,,,,,,,,5,,,,61,64
128560,note_off,640,0,5,,,,,,,,4,,,,68,64
128640,note_on,80,0,4,,,,,,,,3,,,,77,60
128640,note_on,80,0,6,,,,,,,,5,,,,61,45
128640,note_on,80,0,5,,,,,,,,4,,,,68,45
128640,note_on,80,0,2,,,,,,,,1,,,,53,60
128880,note_off,240,0,4,,,,,,,,3,,,,77,64
128880,note_on,0,0,5,,,,,,,,4,,,,68,45
128880,note_on,0,0,6,,,,,,,,5,,,,63,45
128880,note_off,240,0,5,,,,,,,,4,,,,68,64
128880,note_on,0,0,4,,,,,,,,3,,,,75,60
128880,note_off,240,0,6,,,,,,,,5,,,,61,64
128880,note_off,240,0,2,,,,,,,,1,,,,53,64
128880,note_on,0,0,2,,,,,,,,1,,,,56,60
129000,note_off,120,0,2,,,,,,,,1,,,,56,64
129000,note_off,120,0,4,,,,,,,,3,,,,75,64
129000,note_off,120,0,6,,,,,,,,5,,,,63,64
129000,note_off,120,0,5,,,,,,,,4,,,,68,64
129360,note_on,360,0,6,,,,,,,,5,,,,65,45
129360,note_on,360,0,4,,,,,,,,3,,,,73,60
129360,note_on,360,0,5,,,,,,,,4,,,,68,45
129360,note_on,360,0,2,,,,,,,,1,,,,61,60
129840,note_on,0,0,1,,,,,,,,0,,,,73,60
129840,note_off,1920,0,1,,,,,,,,0,,,,68,64
130000,note_off,2080,0,7,,,,,,,,6,,,,44,64
130000,note_off,2080,0,8,,,,,,,,7,,,,37,64
130080,note_on,80,0,7,,,,,,,,6,,,,44,45
130080,note_on,80,0,8,,,,,,,,7,,,,37,45
130315,note_off,235,0,7,,,,,,,,6,,,,44,64
130315,note_off,235,0,8,,,,,,,,7,,,,37,64
130320,note_on,5,0,7,,,,,,,,6,,,,44,45
130320,note_on,5,0,8,,,,,,,,7,,,,37,45
130320,note_on,0,0,1,,,,,,,,0,,,,68,60
130320,note_off,480,0,1,,,,,,,,0,,,,73,64
130680,note_off,1320,0,5,,,,,,,,4,,,,68,64
130680,note_off,1320,0,4,,,,,,,,3,,,,73,64
130680,note_off,1320,0,6,,,,,,,,5,,,,65,64
130680,note_off,1320,0,2,,,,,,,,1,,,,61,64
130720,note_off,400,0,8,,,,,,,,7,,,,37,64
130720,note_off,400,0,7,,,,,,,,6,,,,44,64
130720,note_off,400,0,1,,,,,,,,0,,,,68,64
130800,note_on,120,0,2,,,,,,,,1,,,,60,60
130800,note_on,80,0,8,,,,,,,,7,,,,37,45
130800,note_on,80,0,7,,,,,,,,6,,,,44,45
130800,note_on,120,0,4,,,,,,,,3,,,,78,60
130800,note_on,80,0,1,,,,,,,,0,,,,68,60
130800,note_on,120,0,6,,,,,,,,5,,,,63,45
130800,note_on,120,0,5,,,,,,,,4,,,,68,45
131440,note_off,640,0,6,,,,,,,,5,,,,63,64
131440,note_off,640,0,2,,,,,,,,1,,,,60,64
131440,note_off,640,0,5,,,,,,,,4,,,,68,64
131440,note_off,640,0,4,,,,,,,,3,,,,78,64
131520,note_on,80,0,5,,,,,,,,4,,,,68,45
131520,note_on,80,0,4,,,,,,,,3,,,,78,60
131520,note_on,80,0,6,,,,,,,,5,,,,63,45
131520,note_on,80,0,2,,,,,,,,1,,,,60,60
131760,note_off,240,0,5,,,,,,,,4,,,,68,64
131760,note_off,240,0,4,,,,,,,,3,,,,78,64
131760,note_off,240,0,6,,,,,,,,5,,,,63,64
131760,note_on,0,0,6,,,,,,,,5,,,,65,45
131760,note_off,240,0,2,,,,,,,,1,,,,60,64
131760,note_on,0,0,4,,,,,,,,3,,,,77,60
131760,note_on,0,0,5,,,,,,,,4,,,,68,45
131760,note_on,0,0,2,,,,,,,,1,,,,61,60
131880,note_off,120,0,5,,,,,,,,4,,,,68,64
131880,note_off,120,0,4,,,,,,,,3,,,,77,64
131880,note_off,120,0,2,,,,,,,,1,,,,61,64
131880,note_off,120,0,6,,,,,,,,5,,,,65,64
132240,note_on,360,0,2,,,,,,,,1,,,,60,60
132240,note_on,360,0,4,,,,,,,,3,,,,75,60
132240,note_on,360,0,5,,,,,,,,4,,,,68,45
132240,note_on,360,0,6,,,,,,,,5,,,,66,45
132720,note_off,1920,0,1,,,,,,,,0,,,,68,64
132720,note_on,0,0,1,,,,,,,,0,,,,75,60
132880,note_off,2080,0,8,,,,,,,,7,,,,37,64
132880,note_off,2080,0,7,,,,,,,,6,,,,44,64
132960,note_on,80,0,7,,,,,,,,6,,,,44,45
132960,note_on,80,0,8,,,,,,,,7,,,,37,45
133195,note_off,235,0,7,,,,,,,,6,,,,44,64
133195,note_off,235,0,8,,,,,,,,7,,,,37,64
133200,note_on,5,0,8,,,,,,,,7,,,,37,45
133200,note_on,5,0,7,,,,,,,,6,,,,44,45
133200,note_on,0,0,1,,,,,,,,0,,,,68,60
133200,note_off,480,0,1,,,,,,,,0,,,,75,64
133560,note_off,1320,0,4,,,,,,,,3,,,,75,64
133560,note_off,1320,0,5,,,,,,,,4,,,,68,64
133560,note_off,1320,0,2,,,,,,,,1,,,,60,64
133560,note_off,1320,0,6,,,,,,,,5,,,,66,64
133600,note_off,400,0,8,,,,,,,,7,,,,37,64
133600,note_off,400,0,1,,,,,,,,0,,,,68,64
133600,note_off,400,0,7,,,,,,,,6,,,,44,64
133680,note_on,120,0,4,,,,,,,,3,,,,78,60
133680,note_on,80,0,8,,,,,,,,7,,,,37,45
133680,note_on,120,0,2,,,,,,,,1,,,,60,60
133680,note_on,80,0,1,,,,,,,,0,,,,68,60
133680,note_on,120,0,6,,,,,,,,5,,,,63,45
133680,note_on,120,0,5,,,,,,,,4,,,,68,45
133680,note_on,80,0,7,,,,,,,,6,,,,44,45
134320,note_off,640,0,6,,,,,,,,5,,,,63,64
134320,note_off,640,0,5,,,,,,,,4,,,,68,64
134320,note_off,640,0,2,,,,,,,,1,,,,60,64
134320,note_off,640,0,4,,,,,,,,3,,,,78,64
134400,note_on,80,0,4,,,,,,,,3,,,,78,60
134400,note_on,80,0,6,,,,,,,,5,,,,63,45
134400,note_on,80,0,5,,,,,,,,4,,,,68,45
134400,note_on,80,0,2,,,,,,,,1,,,,60,60
134640,note_on,0,0,5,,,,,,,,4,,,,68,45
134640,note_off,240,0,5,,,,,,,,4,,,,68,64
134640,note_off,240,0,6,,,,,,,,5,,,,63,64
134640,note_on,0,0,2,,,,,,,,1,,,,61,60
134640,note_off,240,0,4,,,,,,,,3,,,,78,64
134640,note_on,0,0,6,,,,,,,,5,,,,65,45
134640,note_off,240,0,2,,,,,,,,1,,,,60,64
134640,note_on,0,0,4,,,,,,,,3,,,,77,60
134760,note_off,120,0,4,,,,,,,,3,,,,77,64
134760,note_off,120,0,5,,,,,,,,4,,,,68,64
134760,note_off,120,0,6,,,,,,,,5,,,,65,64
134760,note_off,120,0,2,,,,,,,,1,,,,61,64
135120,note_on,360,0,2,,,,,,,,1,,,,60,60
135120,note_on,360,0,5,,,,,,,,4,,,,68,45
135120,note_on,360,0,6,,,,,,,,5,,,,66,45
135120,note_on,360,0,4,,,,,,,,3,,,,75,60
135600,note_off,1920,0,1,,,,,,,,0,,,,68,64
135600,note_on,0,0,1,,,,,,,,0,,,,75,60
135760,note_off,2080,0,8,,,,,,,,7,,,,37,64
135760,note_off,2080,0,7,,,,,,,,6,,,,44,64
135840,note_on,80,0,8,,,,,,,,7,,,,37,45
135840,note_on,80,0,7,,,,,,,,6,,,,44,45
136075,note_off,235,0,8,,,,,,,,7,,,,37,64
136075,note_off,235,0,7,,,,,,,,6,,,,44,64
136080,note_on,5,0,7,,,,,,,,6,,,,44,45
136080,note_on,5,0,8,,,,,,,,7,,,,37,45
136080,note_off,480,0,1,,,,,,,,0,,,,75,64
136080,note_on,0,0,1,,,,,,,,0,,,,68,60
136440,note_off,1320,0,5,,,,,,,,4,,,,68,64
136440,note_off,1320,0,4,,,,,,,,3,,,,75,64
136440,note_off,1320,0,6,,,,,,,,5,,,,66,64
136440,note_off,1320,0,2,,,,,,,,1,,,,60,64
136480,note_off,400,0,1,,,,,,,,0,,,,68,64
136480,note_off,400,0,8,,,,,,,,7,,,,37,64
136480,note_off,400,0,7,,,,,,,,6,,,,44,64
136560,note_on,120,0,2,,,,,,,,1,,,,65,60
136560,note_on,80,0,7,,,,,,,,6,,,,45,45
136560,set_tempo,23040,1,0,243902,,,,,,,,,,,,
136560,note_on,120,0,4,,,,,,,,3,,,,77,45
136560,note_on,120,0,5,,,,,,,,4,,,,61,45
136560,note_on,0,0,6,,,,,,,,5,,,,65,45
136560,note_on,120,0,6,,,,,,,,5,,,,57,45
136560,note_on,80,0,8,,,,,,,,7,,,,33,45
136560,note_on,0,0,5,,,,,,,,4,,,,69,45
136960,note_off,400,0,7,,,,,,,,6,,,,45,64
136960,note_off,400,0,8,,,,,,,,7,,,,33,64
137200,note_off,0,0,6,,,,,,,,5,,,,57,64
137200,note_off,640,0,6,,,,,,,,5,,,,65,64
137200,note_off,640,0,5,,,,,,,,4,,,,69,64
137200,note_off,0,0,5,,,,,,,,4,,,,61,64
137280,note_on,0,0,6,,,,,,,,5,,,,65,45
137280,note_on,80,0,5,,,,,,,,4,,,,61,45
137280,note_on,80,0,6,,,,,,,,5,,,,57,45
137280,note_on,0,0,5,,,,,,,,4,,,,69,45
137515,note_off,235,0,5,,,,,,,,4,,,,69,64
137515,note_off,0,0,5,,,,,,,,4,,,,61,64
137515,note_off,235,0,6,,,,,,,,5,,,,65,64
137515,note_off,0,0,6,,,,,,,,5,,,,57,64
137520,note_on,5,0,5,,,,,,,,4,,,,61,45
137520,note_on,0,0,5,,,,,,,,4,,,,69,45
137520,note_on,0,0,6,,,,,,,,5,,,,65,45
137520,note_on,5,0,6,,,,,,,,5,,,,57,45
137920,note_off,0,0,5,,,,,,,,4,,,,61,64
137920,note_off,400,0,5,,,,,,,,4,,,,69,64
137920,note_off,400,0,6,,,,,,,,5,,,,65,64
137920,note_off,0,0,6,,,,,,,,5,,,,57,64
138000,note_on,80,0,6,,,,,,,,5,,,,57,45
138000,note_on,0,0,6,,,,,,,,5,,,,65,45
138000,note_on,0,0,5,,,,,,,,4,,,,69,45
138000,note_on,1040,0,8,,,,,,,,7,,,,29,45
138000,note_on,1040,0,7,,,,,,,,6,,,,41,45
138000,note_on,80,0,5,,,,,,,,4,,,,61,45
138400,note_off,400,0,7,,,,,,,,6,,,,41,64
138400,note_off,400,0,8,,,,,,,,7,,,,29,64
138640,note_off,640,0,5,,,,,,,,4,,,,69,64
138640,note_off,0,0,5,,,,,,,,4,,,,61,64
138640,note_off,0,0,6,,,,,,,,5,,,,57,64
138640,note_off,640,0,6,,,,,,,,5,,,,65,64
138720,note_on,0,0,6,,,,,,,,5,,,,65,45
138720,note_on,80,0,6,,,,,,,,5,,,,57,45
138720,note_on,80,0,5,,,,,,,,4,,,,61,45
138720,note_on,0,0,5,,,,,,,,4,,,,69,45
138955,note_off,0,0,6,,,,,,,,5,,,,57,64
138955,note_off,235,0,5,,,,,,,,4,,,,69,64
138955,note_off,235,0,6,,,,,,,,5,,,,65,64
138955,note_off,0,0,5,,,,,,,,4,,,,61,64
138960,note_on,5,0,5,,,,,,,,4,,,,61,45
138960,note_on,0,0,5,,,,,,,,4,,,,69,45
138960,note_on,0,0,6,,,,,,,,5,,,,65,45
138960,note_on,5,0,6,,,,,,,,5,,,,57,45
139360,note_off,400,0,5,,,,,,,,4,,,,69,64
139360,note_off,0,0,5,,,,,,,,4,,,,61,64
139360,note_off,0,0,6,,,,,,,,5,,,,57,64
139360,note_off,400,0,6,,,,,,,,5,,,,65,64
139440,note_on,0,0,6,,,,,,,,5,,,,65,45
139440,note_on,80,0,6,,,,,,,,5,,,,58,45
139440,note_on,1040,0,8,,,,,,,,7,,,,34,45
139440,note_on,1040,0,7,,,,,,,,6,,,,46,45
139440,note_on,0,0,5,,,,,,,,4,,,,70,45
139440,note_on,80,0,5,,,,,,,,4,,,,61,45
139920,note_off,3360,0,2,,,,,,,,1,,,,65,64
139920,note_on,0,0,2,,,,,,,,1,,,,66,60
139920,note_on,0,0,4,,,,,,,,3,,,,78,45
139920,note_off,3360,0,4,,,,,,,,3,,,,77,64
140080,note_off,640,0,8,,,,,,,,7,,,,34,64
140080,note_off,0,0,5,,,,,,,,4,,,,61,64
140080,note_off,640,0,5,,,,,,,,4,,,,70,64
140080,note_off,640,0,6,,,,,,,,5,,,,65,64
140080,note_off,0,0,6,,,,,,,,5,,,,58,64
140080,note_off,640,0,7,,,,,,,,6,,,,46,64
140160,note_on,80,0,7,,,,,,,,6,,,,46,45
140160,note_on,80,0,6,,,,,,,,5,,,,58,45
140160,note_on,0,0,6,,,,,,,,5,,,,65,45
140160,note_on,80,0,8,,,,,,,,7,,,,34,45
140160,note_on,0,0,5,,,,,,,,4,,,,70,45
140160,note_on,80,0,5,,,,,,,,4,,,,61,45
140395,note_off,0,0,6,,,,,,,,5,,,,58,64
140395,note_off,235,0,6,,,,,,,,5,,,,65,64
140395,note_off,235,0,7,,,,,,,,6,,,,46,64
140395,note_off,0,0,5,,,,,,,,4,,,,61,64
140395,note_off,235,0,5,,,,,,,,4,,,,70,64
140395,note_off,235,0,8,,,,,,,,7,,,,34,64
140400,note_on,5,0,7,,,,,,,,6,,,,46,45
140400,note_on,0,0,5,,,,,,,,4,,,,70,45
140400,note_off,480,0,2,,,,,,,,1,,,,66,64
140400,note_on,0,0,2,,,,,,,,1,,,,65,60
140400,note_on,0,0,6,,,,,,,,5,,,,65,45
140400,note_on,5,0,5,,,,,,,,4,,,,61,45
140400,note_on,0,0,4,,,,,,,,3,,,,77,45
140400,note_on,5,0,6,,,,,,,,5,,,,58,45
140400,note_off,480,0,4,,,,,,,,3,,,,78,64
140400,note_on,5,0,8,,,,,,,,7,,,,34,45
140800,note_off,400,0,6,,,,,,,,5,,,,65,64
140800,note_off,400,0,7,,,,,,,,6,,,,46,64
140800,note_off,0,0,6,,,,,,,,5,,,,58,64
140800,note_off,400,0,8,,,,,,,,7,,,,34,64
140800,note_off,0,0,5,,,,,,,,4,,,,61,64
140800,note_off,400,0,5,,,,,,,,4,,,,70,64
140880,note_on,80,0,7,,,,,,,,6,,,,49,45
140880,note_off,480,0,4,,,,,,,,3,,,,77,64
140880,note_on,0,0,5,,,,,,,,4,,,,70,45
140880,note_on,80,0,5,,,,,,,,4,,,,61,45
140880,note_on,0,0,4,,,,,,,,3,,,,73,45
140880,set_tempo,4320,1,0,239043,,,,,,,,,,,,
140880,note_on,80,0,8,,,,,,,,7,,,,37,45
140880,note_off,480,0,2,,,,,,,,1,,,,65,64
140880,note_on,0,0,2,,,,,,,,1,,,,61,60
140880,note_on,80,0,6,,,,,,,,5,,,,58,45
140880,note_on,0,0,6,,,,,,,,5,,,,65,45
141280,note_off,400,0,8,,,,,,,,7,,,,37,64
141280,note_off,400,0,7,,,,,,,,6,,,,49,64
141360,note_off,480,0,4,,,,,,,,3,,,,73,64
141360,note_on,0,0,4,,,,,,,,3,,,,72,45
141360,note_off,480,0,2,,,,,,,,1,,,,61,64
141360,note_on,0,0,2,,,,,,,,1,,,,60,60
141520,note_off,0,0,6,,,,,,,,5,,,,58,64
141520,note_off,0,0,5,,,,,,,,4,,,,61,64
141520,note_off,640,0,5,,,,,,,,4,,,,70,64
141520,note_off,640,0,6,,,,,,,,5,,,,65,64
141600,note_on,80,0,5,,,,,,,,4,,,,61,45
141600,note_on,80,0,6,,,,,,,,5,,,,58,45
141600,note_on,0,0,6,,,,,,,,5,,,,65,45
141600,note_on,0,0,5,,,,,,,,4,,,,70,45
141835,note_off,235,0,6,,,,,,,,5,,,,65,64
141835,note_off,0,0,6,,,,,,,,5,,,,58,64
141835,note_off,235,0,5,,,,,,,,4,,,,70,64
141835,note_off,0,0,5,,,,,,,,4,,,,61,64
141840,note_on,0,0,5,,,,,,,,4,,,,70,45
141840,note_on,5,0,6,,,,,,,,5,,,,58,45
141840,note_on,5,0,5,,,,,,,,4,,,,61,45
141840,note_off,480,0,4,,,,,,,,3,,,,72,64
141840,note_on,0,0,4,,,,,,,,3,,,,70,45
141840,note_on,0,0,6,,,,,,,,5,,,,65,45
141840,note_off,480,0,2,,,,,,,,1,,,,60,64
141840,note_on,0,0,2,,,,,,,,1,,,,58,60
142240,note_off,400,0,5,,,,,,,,4,,,,70,64
142240,note_off,0,0,5,,,,,,,,4,,,,61,64
142240,note_off,0,0,6,,,,,,,,5,,,,58,64
142240,note_off,400,0,6,,,,,,,,5,,,,65,64
142240,note_off,400,0,4,,,,,,,,3,,,,70,64
142240,note_off,400,0,2,,,,,,,,1,,,,58,64
142320,set_tempo,1440,1,0,234375,,,,,,,,,,,,
142320,note_on,80,0,6,,,,,,,,5,,,,57,45
142320,note_on,1040,0,7,,,,,,,,6,,,,45,45
142320,note_on,0,0,6,,,,,,,,5,,,,65,45
142320,note_on,1040,0,8,,,,,,,,7,,,,33,45
142320,note_on,80,0,2,,,,,,,,1,,,,65,60
142320,note_on,80,0,4,,,,,,,,3,,,,77,45
142320,note_on,0,0,5,,,,,,,,4,,,,69,45
142320,note_on,80,0,5,,,,,,,,4,,,,61,45
142720,note_off,400,0,7,,,,,,,,6,,,,45,64
142720,note_off,400,0,8,,,,,,,,7,,,,33,64
142960,note_off,0,0,5,,,,,,,,4,,,,61,64
142960,note_off,640,0,5,,,,,,,,4,,,,69,64
142960,note_off,0,0,6,,,,,,,,5,,,,57,64
142960,note_off,640,0,6,,,,,,,,5,,,,65,64
143040,note_on,80,0,6,,,,,,,,5,,,,57,45
143040,note_on,80,0,5,,,,,,,,4,,,,61,45
143040,note_on,0,0,6,,,,,,,,5,,,,65,45
143040,note_on,0,0,5,,,,,,,,4,,,,69,45
143275,note_off,0,0,6,,,,,,,,5,,,,57,64
143275,note_off,235,0,6,,,,,,,,5,,,,65,64
143275,note_off,235,0,5,,,,,,,,4,,,,69,64
143275,note_off,0,0,5,,,,,,,,4,,,,61,64
143280,note_on,0,0,6,,,,,,,,5,,,,65,45
143280,note_on,5,0,6,,,,,,,,5,,,,57,45
143280,note_on,0,0,5,,,,,,,,4,,,,69,45
143280,note_on,5,0,5,,,,,,,,4,,,,61,45
143680,note_off,0,0,6,,,,,,,,5,,,,57,64
143680,note_off,400,0,5,,,,,,,,4,,,,69,64
143680,note_off,0,0,5,,,,,,,,4,,,,61,64
143680,note_off,400,0,6,,,,,,,,5,,,,65,64
143760,note_on,0,0,6,,,,,,,,5,,,,65,45
143760,note_on,80,0,6,,,,,,,,5,,,,57,45
143760,note_on,0,0,5,,,,,,,,4,,,,69,45
143760,note_on,1040,0,7,,,,,,,,6,,,,41,45
143760,note_on,80,0,5,,,,,,,,4,,,,61,45
143760,note_on,1040,0,8,,,,,,,,7,,,,29,45
144160,note_off,400,0,8,,,,,,,,7,,,,29,64
144160,note_off,400,0,7,,,,,,,,6,,,,41,64
144400,note_off,640,0,5,,,,,,,,4,,,,69,64
144400,note_off,0,0,5,,,,,,,,4,,,,61,64
144400,note_off,640,0,6,,,,,,,,5,,,,65,64
144400,note_off,0,0,6,,,,,,,,5,,,,57,64
144480,note_on,80,0,5,,,,,,,,4,,,,61,45
144480,note_on,0,0,5,,,,,,,,4,,,,69,45
144480,note_on,80,0,6,,,,,,,,5,,,,57,45
144480,note_on,0,0,6,,,,,,,,5,,,,65,45
144715,note_off,235,0,5,,,,,,,,4,,,,69,64
144715,note_off,0,0,6,,,,,,,,5,,,,57,64
144715,note_off,235,0,6,,,,,,,,5,,,,65,64
144715,note_off,0,0,5,,,,,,,,4,,,,61,64
144720,note_on,0,0,6,,,,,,,,5,,,,65,45
144720,note_on,5,0,6,,,,,,,,5,,,,57,45
144720,note_on,0,0,5,,,,,,,,4,,,,69,45
144720,note_on,5,0,5,,,,,,,,4,,,,61,45
145120,note_off,0,0,6,,,,,,,,5,,,,57,64
145120,note_off,400,0,6,,,,,,,,5,,,,65,64
145120,note_off,400,0,5,,,,,,,,4,,,,69,64
145120,note_off,0,0,5,,,,,,,,4,,,,61,64
145200,note_on,1040,0,8,,,,,,,,7,,,,34,45
145200,note_on,1040,0,7,,,,,,,,6,,,,46,45
145200,note_on,0,0,5,,,,,,,,4,,,,70,45
145200,note_on,0,0,6,,,,,,,,5,,,,65,45
145200,note_on,80,0,6,,,,,,,,5,,,,58,45
145200,note_on,80,0,5,,,,,,,,4,,,,61,45
145680,note_on,0,0,2,,,,,,,,1,,,,66,60
145680,note_on,0,0,4,,,,,,,,3,,,,78,45
145680,note_off,3360,0,4,,,,,,,,3,,,,77,64
145680,set_tempo,3360,1,0,232558,,,,,,,,,,,,
145680,note_off,3360,0,2,,,,,,,,1,,,,65,64
145840,note_off,640,0,6,,,,,,,,5,,,,65,64
145840,note_off,640,0,5,,,,,,,,4,,,,70,64
145840,note_off,0,0,5,,,,,,,,4,,,,61,64
145840,note_off,640,0,7,,,,,,,,6,,,,46,64
145840,note_off,0,0,6,,,,,,,,5,,,,58,64
145840,note_off,640,0,8,,,,,,,,7,,,,34,64
145920,note_on,80,0,8,,,,,,,,7,,,,34,45
145920,note_on,0,0,6,,,,,,,,5,,,,65,45
145920,note_on,80,0,7,,,,,,,,6,,,,46,45
145920,note_on,0,0,5,,,,,,,,4,,,,70,45
145920,note_on,80,0,5,,,,,,,,4,,,,61,45
145920,note_on,80,0,6,,,,,,,,5,,,,58,45
146155,note_off,235,0,8,,,,,,,,7,,,,34,64
146155,note_off,0,0,5,,,,,,,,4,,,,61,64
146155,note_off,235,0,7,,,,,,,,6,,,,46,64
146155,note_off,235,0,5,,,,,,,,4,,,,70,64
146155,note_off,0,0,6,,,,,,,,5,,,,58,64
146155,note_off,235,0,6,,,,,,,,5,,,,65,64
146160,note_on,0,0,6,,,,,,,,5,,,,65,45
146160,note_on,0,0,5,,,,,,,,4,,,,70,45
146160,note_on,0,0,4,,,,,,,,3,,,,77,45
146160,note_off,480,0,4,,,,,,,,3,,,,78,64
146160,note_on,5,0,7,,,,,,,,6,,,,46,45
146160,note_on,5,0,5,,,,,,,,4,,,,61,45
146160,note_on,5,0,8,,,,,,,,7,,,,34,45
146160,note_on,5,0,6,,,,,,,,5,,,,58,45
146160,note_on,0,0,2,,,,,,,,1,,,,65,60
146160,note_off,480,0,2,,,,,,,,1,,,,66,64
146560,note_off,400,0,5,,,,,,,,4,,,,70,64
146560,note_off,400,0,7,,,,,,,,6,,,,46,64
146560,note_off,0,0,6,,,,,,,,5,,,,58,64
146560,note_off,400,0,6,,,,,,,,5,,,,65,64
146560,note_off,0,0,5,,,,,,,,4,,,,61,64
146560,note_off,400,0,8,,,,,,,,7,,,,34,64
146640,note_on,80,0,5,,,,,,,,4,,,,61,45
146640,note_off,480,0,2,,,,,,,,1,,,,65,64
146640,note_on,0,0,2,,,,,,,,1,,,,61,60
146640,note_on,80,0,7,,,,,,,,6,,,,49,45
146640,note_on,0,0,5,,,,,,,,4,,,,70,45
146640,note_on,0,0,4,,,,,,,,3,,,,73,45
146640,note_off,480,0,4,,,,,,,,3,,,,77,64
146640,note_on,80,0,6,,,,,,,,5,,,,58,45
146640,note_on,0,0,6,,,,,,,,5,,,,65,45
146640,note_on,80,0,8,,,,,,,,7,,,,37,45
147040,note_off,400,0,8,,,,,,,,7,,,,37,64
147040,note_off,400,0,7,,,,,,,,6,,,,49,64
147120,note_off,480,0,2,,,,,,,,1,,,,61,64
147120,note_off,480,0,4,,,,,,,,3,,,,73,64
147120,note_on,0,0,4,,,,,,,,3,,,,72,45
147120,note_on,0,0,2,,,,,,,,1,,,,60,60
147280,note_off,0,0,5,,,,,,,,4,,,,61,64
147280,note_off,640,0,5,,,,,,,,4,,,,70,64
147280,note_off,640,0,6,,,,,,,,5,,,,65,64
147280,note_off,0,0,6,,,,,,,,5,,,,58,64
147360,note_on,80,0,6,,,,,,,,5,,,,58,45
147360,note_on,0,0,6,,,,,,,,5,,,,65,45
147360,note_on,80,0,5,,,,,,,,4,,,,61,45
147360,note_on,0,0,5,,,,,,,,4,,,,70,45
147595,note_off,235,0,5,,,,,,,,4,,,,70,64
147595,note_off,0,0,6,,,,,,,,5,,,,58,64
147595,note_off,0,0,5,,,,,,,,4,,,,61,64
147595,note_off,235,0,6,,,,,,,,5,,,,65,64
147600,note_on,5,0,5,,,,,,,,4,,,,61,45
147600,note_off,480,0,4,,,,,,,,3,,,,72,64
147600,note_on,0,0,4,,,,,,,,3,,,,70,45
147600,note_on,0,0,5,,,,,,,,4,,,,70,45
147600,note_on,0,0,6,,,,,,,,5,,,,65,45
147600,note_on,0,0,2,,,,,,,,1,,,,58,60
147600,note_off,480,0,2,,,,,,,,1,,,,60,64
147600,note_on,5,0,6,,,,,,,,5,,,,58,45
148000,note_off,400,0,6,,,,,,,,5,,,,65,64
148000,note_off,400,0,5,,,,,,,,4,,,,70,64
148000,note_off,400,0,2,,,,,,,,1,,,,58,64
148000,note_off,400,0,4,,,,,,,,3,,,,70,64
148000,note_off,0,0,6,,,,,,,,5,,,,58,64
148000,note_off,0,0,5,,,,,,,,4,,,,61,64
148080,note_on,80,0,5,,,,,,,,4,,,,61,45
148080,note_on,11600,0,1,,,,,,,,0,,,,78,45
148080,note_on,1040,0,8,,,,,,,,7,,,,34,45
148080,note_on,0,0,5,,,,,,,,4,,,,70,45
148080,note_on,80,0,2,,,,,,,,1,,,,66,60
148080,note_on,0,0,6,,,,,,,,5,,,,66,45
148080,note_on,80,0,4,,,,,,,,3,,,,78,45
148080,note_on,1040,0,7,,,,,,,,6,,,,46,45
148080,note_on,80,0,6,,,,,,,,5,,,,58,45
148480,note_off,400,0,7,,,,,,,,6,,,,46,64
148480,note_off,400,0,8,,,,,,,,7,,,,34,64
148720,note_off,0,0,5,,,,,,,,4,,,,61,64
148720,note_off,640,0,5,,,,,,,,4,,,,70,64
148720,note_off,640,0,6,,,,,,,,5,,,,66,64
148720,note_off,0,0,6,,,,,,,,5,,,,58,64
148800,note_on,80,0,5,,,,,,,,4,,,,61,45
148800,note_on,80,0,6,,,,,,,,5,,,,58,45
148800,note_on,0,0,6,,,,,,,,5,,,,66,45
148800,note_on,0,0,5,,,,,,,,4,,,,70,45
149035,note_off,235,0,5,,,,,,,,4,,,,70,64
149035,note_off,0,0,5,,,,,,,,4,,,,61,64
149035,note_off,235,0,6,,,,,,,,5,,,,66,64
149035,note_off,0,0,6,,,,,,,,5,,,,58,64
149040,note_on,5,0,6,,,,,,,,5,,,,58,45
149040,note_on,0,0,6,,,,,,,,5,,,,66,45
149040,note_on,5,0,5,,,,,,,,4,,,,61,45
149040,note_on,0,0,5,,,,,,,,4,,,,70,45
149440,note_off,400,0,6,,,,,,,,5,,,,66,64
149440,note_off,400,0,5,,,,,,,,4,,,,70,64
149440,note_off,0,0,5,,,,,,,,4,,,,61,64
149440,note_off,0,0,6,,,,,,,,5,,,,58,64
149520,note_on,0,0,6,,,,,,,,5,,,,66,45
149520,note_on,1040,0,8,,,,,,,,7,,,,30,45
149520,note_on,80,0,5,,,,,,,,4,,,,62,45
149520,note_on,80,0,6,,,,,,,,5,,,,58,45
149520,note_on,0,0,5,,,,,,,,4,,,,70,45
149520,note_on,1040,0,7,,,,,,,,6,,,,42,45
149920,note_off,400,0,8,,,,,,,,7,,,,30,64
149920,note_off,400,0,7,,,,,,,,6,,,,42,64
150160,note_off,0,0,5,,,,,,,,4,,,,62,64
150160,note_off,640,0,6,,,,,,,,5,,,,66,64
150160,note_off,640,0,5,,,,,,,,4,,,,70,64
150160,note_off,0,0,6,,,,,,,,5,,,,58,64
150240,note_on,0,0,6,,,,,,,,5,,,,66,45
150240,note_on,0,0,5,,,,,,,,4,,,,70,45
150240,note_on,80,0,5,,,,,,,,4,,,,62,45
150240,note_on,80,0,6,,,,,,,,5,,,,58,45
150475,note_off,235,0,6,,,,,,,,5,,,,66,64
150475,note_off,0,0,6,,,,,,,,5,,,,58,64
150475,note_off,0,0,5,,,,,,,,4,,,,62,64
150475,note_off,235,0,5,,,,,,,,4,,,,70,64
150480,note_on,0,0,5,,,,,,,,4,,,,70,45
150480,note_on,5,0,5,,,,,,,,4,,,,62,45
150480,note_on,0,0,6,,,,,,,,5,,,,66,45
150480,note_on,5,0,6,,,,,,,,5,,,,58,45
150880,note_off,400,0,6,,,,,,,,5,,,,66,64
150880,note_off,400,0,5,,,,,,,,4,,,,70,64
150880,note_off,0,0,5,,,,,,,,4,,,,62,64
150880,note_off,0,0,6,,,,,,,,5,,,,58,64
150960,note_on,1040,0,8,,,,,,,,7,,,,35,45
150960,note_on,1040,0,7,,,,,,,,6,,,,47,45
150960,note_on,80,0,5,,,,,,,,4,,,,62,45
150960,note_on,0,0,5,,,,,,,,4,,,,71,45
150960,note_on,0,0,6,,,,,,,,5,,,,66,45
150960,note_on,80,0,6,,,,,,,,5,,,,59,45
151440,set_tempo,5760,1,0,229885,,,,,,,,,,,,
151440,note_off,3360,0,4,,,,,,,,3,,,,78,64
151440,note_on,0,0,4,,,,,,,,3,,,,79,45
151440,note_off,3360,0,1,,,,,,,,0,,,,78,64
151440,note_on,0,0,1,,,,,,,,0,,,,79,45
151440,note_on,0,0,2,,,,,,,,1,,,,67,60
151440,note_off,3360,0,2,,,,,,,,1,,,,66,64
151600,note_off,0,0,5,,,,,,,,4,,,,62,64
151600,note_off,640,0,6,,,,,,,,5,,,,66,64
151600,note_off,0,0,6,,,,,,,,5,,,,59,64
151600,note_off,640,0,5,,,,,,,,4,,,,71,64
151600,note_off,640,0,7,,,,,,,,6,,,,47,64
151600,note_off,640,0,8,,,,,,,,7,,,,35,64
151680,note_on,80,0,8,,,,,,,,7,,,,35,45
151680,note_on,80,0,5,,,,,,,,4,,,,62,45
151680,note_on,0,0,6,,,,,,,,5,,,,66,45
151680,note_on,80,0,6,,,,,,,,5,,,,59,45
151680,note_on,80,0,7,,,,,,,,6,,,,47,45
151680,note_on,0,0,5,,,,,,,,4,,,,71,45
151915,note_off,235,0,7,,,,,,,,6,,,,47,64
151915,note_off,235,0,6,,,,,,,,5,,,,66,64
151915,note_off,235,0,8,,,,,,,,7,,,,35,64
151915,note_off,0,0,6,,,,,,,,5,,,,59,64
151915,note_off,235,0,5,,,,,,,,4,,,,71,64
151915,note_off,0,0,5,,,,,,,,4,,,,62,64
151920,note_on,5,0,6,,,,,,,,5,,,,59,45
151920,note_on,0,0,2,,,,,,,,1,,,,66,61
151920,note_on,5,0,7,,,,,,,,6,,,,47,45
151920,note_on,0,0,5,,,,,,,,4,,,,71,45
151920,note_on,5,0,5,,,,,,,,4,,,,62,45
151920,note_off,480,0,2,,,,,,,,1,,,,67,64
151920,note_off,480,0,4,,,,,,,,3,,,,79,64
151920,note_on,0,0,4,,,,,,,,3,,,,78,46
151920,note_on,5,0,8,,,,,,,,7,,,,35,45
151920,note_on,0,0,1,,,,,,,,0,,,,78,46
151920,note_off,480,0,1,,,,,,,,0,,,,79,64
151920,note_on,0,0,6,,,,,,,,5,,,,66,45
152320,note_off,400,0,8,,,,,,,,7,,,,35,64
152320,note_off,0,0,5,,,,,,,,4,,,,62,64
152320,note_off,400,0,5,,,,,,,,4,,,,71,64
152320,note_off,400,0,7,,,,,,,,6,,,,47,64
152320,note_off,0,0,6,,,,,,,,5,,,,59,64
152320,note_off,400,0,6,,,,,,,,5,,,,66,64
152400,note_off,480,0,1,,,,,,,,0,,,,78,64
152400,note_off,480,0,2,,,,,,,,1,,,,66,64
152400,note_on,0,0,6,,,,,,,,5,,,,66,46
152400,note_on,80,0,6,,,,,,,,5,,,,59,46
152400,note_on,80,0,8,,,,,,,,7,,,,38,46
152400,note_on,0,0,2,,,,,,,,1,,,,62,62
152400,note_on,0,0,1,,,,,,,,0,,,,74,47
152400,note_on,80,0,7,,,,,,,,6,,,,50,46
152400,note_on,0,0,5,,,,,,,,4,,,,71,46
152400,note_off,480,0,4,,,,,,,,3,,,,78,64
152400,note_on,0,0,4,,,,,,,,3,,,,74,47
152400,note_on,80,0,5,,,,,,,,4,,,,62,46
152800,note_off,400,0,8,,,,,,,,7,,,,38,64
152800,note_off,400,0,7,,,,,,,,6,,,,50,64
152880,note_on,0,0,2,,,,,,,,1,,,,61,63
152880,note_on,0,0,1,,,,,,,,0,,,,73,48
152880,note_on,0,0,4,,,,,,,,3,,,,73,48
152880,note_off,480,0,1,,,,,,,,0,,,,74,64
152880,note_off,480,0,4,,,,,,,,3,,,,74,64
152880,note_off,480,0,2,,,,,,,,1,,,,62,64
153040,note_off,640,0,6,,,,,,,,5,,,,66,64
153040,note_off,0,0,6,,,,,,,,5,,,,59,64
153040,note_off,0,0,5,,,,,,,,4,,,,62,64
153040,note_off,640,0,5,,,,,,,,4,,,,71,64
153120,note_on,80,0,5,,,,,,,,4,,,,62,48
153120,note_on,0,0,6,,,,,,,,5,,,,66,48
153120,note_on,0,0,5,,,,,,,,4,,,,71,48
153120,note_on,80,0,6,,,,,,,,5,,,,59,48
153355,note_off,235,0,5,,,,,,,,4,,,,71,64
153355,note_off,0,0,5,,,,,,,,4,,,,62,64
153355,note_off,0,0,6,,,,,,,,5,,,,59,64
153355,note_off,235,0,6,,,,,,,,5,,,,66,64
153360,note_on,0,0,4,,,,,,,,3,,,,71,49
153360,note_on,5,0,6,,,,,,,,5,,,,59,48
153360,note_off,480,0,1,,,,,,,,0,,,,73,64
153360,note_on,0,0,1,,,,,,,,0,,,,71,49
153360,note_off,480,0,4,,,,,,,,3,,,,73,64
153360,note_on,0,0,5,,,,,,,,4,,,,71,48
153360,note_on,0,0,6,,,,,,,,5,,,,66,48
153360,note_off,480,0,2,,,,,,,,1,,,,61,64
153360,note_on,0,0,2,,,,,,,,1,,,,59,64
153360,note_on,5,0,5,,,,,,,,4,,,,62,48
153760,note_off,400,0,2,,,,,,,,1,,,,59,64
153760,note_off,400,0,4,,,,,,,,3,,,,71,64
153760,note_off,0,0,5,,,,,,,,4,,,,62,64
153760,note_off,400,0,5,,,,,,,,4,,,,71,64
153760,note_off,400,0,1,,,,,,,,0,,,,71,64
153760,note_off,400,0,6,,,,,,,,5,,,,66,64
153760,note_off,0,0,6,,,,,,,,5,,,,59,64
153840,note_on,80,0,6,,,,,,,,5,,,,62,49
153840,note_on,80,0,4,,,,,,,,3,,,,79,50
153840,note_on,80,0,5,,,,,,,,4,,,,67,49
153840,note_on,0,0,5,,,,,,,,4,,,,71,49
153840,note_on,67280,0,3,,,,,,,,2,,,,67,60
153840,note_on,0,0,6,,,,,,,,5,,,,65,49
153840,note_on,1040,0,7,,,,,,,,6,,,,43,50
153840,note_on,1040,0,8,,,,,,,,7,,,,31,50
153840,note_on,80,0,1,,,,,,,,0,,,,79,50
153840,note_on,80,0,2,,,,,,,,1,,,,67,65
154480,note_off,640,0,3,,,,,,,,2,,,,67,64
154480,note_off,0,0,6,,,,,,,,5,,,,62,64
154480,note_off,640,0,8,,,,,,,,7,,,,31,64
154480,note_off,640,0,7,,,,,,,,6,,,,43,64
154480,note_off,0,0,5,,,,,,,,4,,,,67,64
154480,note_off,640,0,5,,,,,,,,4,,,,71,64
154480,note_off,640,0,6,,,,,,,,5,,,,65,64
154560,note_on,80,0,7,,,,,,,,6,,,,43,52
154560,note_on,80,0,8,,,,,,,,7,,,,31,52
154560,note_on,80,0,3,,,,,,,,2,,,,67,60
154560,note_on,0,0,5,,,,,,,,4,,,,71,51
154560,note_on,0,0,6,,,,,,,,5,,,,65,51
154560,note_on,80,0,6,,,,,,,,5,,,,62,51
154560,note_on,80,0,5,,,,,,,,4,,,,67,51
154795,note_off,0,0,5,,,,,,,,4,,,,67,64
154795,note_off,235,0,7,,,,,,,,6,,,,43,64
154795,note_off,235,0,3,,,,,,,,2,,,,67,64
154795,note_off,235,0,8,,,,,,,,7,,,,31,64
154795,note_off,0,0,6,,,,,,,,5,,,,62,64
154795,note_off,235,0,6,,,,,,,,5,,,,65,64
154795,note_off,235,0,5,,,,,,,,4,,,,71,64
154800,note_on,5,0,8,,,,,,,,7,,,,31,52
154800,note_on,5,0,7,,,,,,,,6,,,,43,52
154800,note_on,5,0,6,,,,,,,,5,,,,62,51
154800,note_on,0,0,6,,,,,,,,5,,,,65,51
154800,note_on,5,0,3,,,,,,,,2,,,,67,60
154800,note_on,0,0,5,,,,,,,,4,,,,71,51
154800,note_on,5,0,5,,,,,,,,4,,,,67,51
155200,note_off,0,0,5,,,,,,,,4,,,,67,64
155200,note_off,400,0,5,,,,,,,,4,,,,71,64
155200,note_off,400,0,8,,,,,,,,7,,,,31,64
155200,note_off,400,0,7,,,,,,,,6,,,,43,64
155200,note_off,0,0,6,,,,,,,,5,,,,62,64
155200,note_off,400,0,6,,,,,,,,5,,,,65,64
155200,note_off,400,0,3,,,,,,,,2,,,,67,64
155280,note_on,80,0,7,,,,,,,,6,,,,55,53
155280,note_on,80,0,3,,,,,,,,2,,,,67,61
155280,note_on,80,0,6,,,,,,,,5,,,,62,52
155280,note_on,80,0,5,,,,,,,,4,,,,67,52
155280,note_on,80,0,8,,,,,,,,7,,,,43,53
155280,note_on,0,0,5,,,,,,,,4,,,,71,52
155280,note_on,0,0,6,,,,,,,,5,,,,65,52
155680,note_off,400,0,7,,,,,,,,6,,,,55,64
155680,note_off,400,0,8,,,,,,,,7,,,,43,64
155920,note_off,0,0,6,,,,,,,,5,,,,62,64
155920,note_off,640,0,5,,,,,,,,4,,,,71,64
155920,note_off,640,0,6,,,,,,,,5,,,,65,64
155920,note_off,640,0,3,,,,,,,,2,,,,67,64
155920,note_off,0,0,5,,,,,,,,4,,,,67,64
156000,note_on,0,0,5,,,,,,,,4,,,,71,54
156000,note_on,80,0,6,,,,,,,,5,,,,62,54
156000,note_on,0,0,6,,,,,,,,5,,,,65,54
156000,note_on,80,0,3,,,,,,,,2,,,,67,63
156000,note_on,80,0,5,,,,,,,,4,,,,67,54
156235,note_off,0,0,6,,,,,,,,5,,,,62,64
156235,note_off,0,0,5,,,,,,,,4,,,,67,64
156235,note_off,235,0,3,,,,,,,,2,,,,67,64
156235,note_off,235,0,5,,,,,,,,4,,,,71,64
156235,note_off,235,0,6,,,,,,,,5,,,,65,64
156240,note_on,0,0,5,,,,,,,,4,,,,71,54
156240,note_on,0,0,6,,,,,,,,5,,,,65,54
156240,note_on,5,0,3,,,,,,,,2,,,,67,63
156240,note_on,5,0,6,,,,,,,,5,,,,62,54
156240,note_on,5,0,5,,,,,,,,4,,,,67,54
156640,note_off,400,0,3,,,,,,,,2,,,,67,64
156640,note_off,400,0,6,,,,,,,,5,,,,65,64
156640,note_off,0,0,6,,,,,,,,5,,,,62,64
156640,note_off,400,0,5,,,,,,,,4,,,,71,64
156640,note_off,0,0,5,,,,,,,,4,,,,67,64
156720,note_on,80,0,3,,,,,,,,2,,,,67,64
156720,note_on,80,0,6,,,,,,,,5,,,,62,56
156720,note_on,0,0,6,,,,,,,,5,,,,65,56
156720,note_on,80,0,5,,,,,,,,4,,,,67,56
156720,note_on,1040,0,8,,,,,,,,7,,,,31,57
156720,note_on,1040,0,7,,,,,,,,6,,,,43,57
156720,note_on,0,0,5,,,,,,,,4,,,,71,56
157360,note_off,640,0,8,,,,,,,,7,,,,31,64
157360,note_off,640,0,3,,,,,,,,2,,,,67,64
157360,note_off,0,0,5,,,,,,,,4,,,,67,64
157360,note_off,640,0,7,,,,,,,,6,,,,43,64
157360,note_off,0,0,6,,,,,,,,5,,,,62,64
157360,note_off,640,0,5,,,,,,,,4,,,,71,64
157360,note_off,640,0,6,,,,,,,,5,,,,65,64
157440,note_on,80,0,6,,,,,,,,5,,,,62,59
157440,note_on,0,0,6,,,,,,,,5,,,,65,59
157440,note_on,80,0,3,,,,,,,,2,,,,67,66
157440,note_on,80,0,5,,,,,,,,4,,,,67,59
157440,note_on,80,0,7,,,,,,,,6,,,,43,59
157440,note_on,0,0,5,,,,,,,,4,,,,71,59
157440,note_on,80,0,8,,,,,,,,7,,,,31,59
157675,note_off,235,0,3,,,,,,,,2,,,,67,64
157675,note_off,235,0,8,,,,,,,,7,,,,31,64
157675,note_off,235,0,7,,,,,,,,6,,,,43,64
157675,note_off,235,0,5,,,,,,,,4,,,,71,64
157675,note_off,235,0,6,,,,,,,,5,,,,65,64
157675,note_off,0,0,6,,,,,,,,5,,,,62,64
157675,note_off,0,0,5,,,,,,,,4,,,,67,64
157680,note_on,5,0,5,,,,,,,,4,,,,67,60
157680,note_on,5,0,3,,,,,,,,2,,,,67,66
157680,note_on,5,0,6,,,,,,,,5,,,,62,60
157680,note_on,5,0,8,,,,,,,,7,,,,31,60
157680,note_on,0,0,6,,,,,,,,5,,,,65,60
157680,note_on,5,0,7,,,,,,,,6,,,,43,60
157680,note_on,0,0,5,,,,,,,,4,,,,71,60
158080,note_off,0,0,5,,,,,,,,4,,,,67,64
158080,note_off,400,0,5,,,,,,,,4,,,,71,64
158080,note_off,400,0,7,,,,,,,,6,,,,43,64
158080,note_off,400,0,6,,,,,,,,5,,,,65,64
158080,note_off,400,0,3,,,,,,,,2,,,,67,64
158080,note_off,400,0,8,,,,,,,,7,,,,31,64
158080,note_off,0,0,6,,,,,,,,5,,,,62,64
158160,note_on,80,0,3,,,,,,,,2,,,,67,67
158160,note_on,80,0,6,,,,,,,,5,,,,62,62
158160,note_on,80,0,5,,,,,,,,4,,,,67,62
158160,note_on,0,0,5,,,,,,,,4,,,,71,62
158160,note_on,80,0,8,,,,,,,,7,,,,43,62
158160,note_on,0,0,6,,,,,,,,5,,,,65,62
158160,note_on,80,0,7,,,,,,,,6,,,,55,62
158560,note_off,400,0,8,,,,,,,,7,,,,43,64
158560,note_off,4720,0,4,,,,,,,,3,,,,79,64
158560,note_off,400,0,7,,,,,,,,6,,,,55,64
158640,note_on,0,0,2,,,,,,,,1,,,,57,75
158640,note_on,0,0,1,,,,,,,,0,,,,81,66
158640,note_off,4800,0,1,,,,,,,,0,,,,79,64
158640,note_off,4800,0,2,,,,,,,,1,,,,67,64
158640,note_on,80,0,4,,,,,,,,3,,,,81,66
158800,note_off,640,0,6,,,,,,,,5,,,,65,64
158800,note_off,0,0,6,,,,,,,,5,,,,62,64
158800,note_off,0,0,5,,,,,,,,4,,,,67,64
158800,note_off,640,0,5,,,,,,,,4,,,,71,64
158800,note_off,640,0,3,,,,,,,,2,,,,67,64
158880,note_on,0,0,5,,,,,,,,4,,,,71,65
158880,note_on,0,0,6,,,,,,,,5,,,,65,65
158880,note_on,80,0,6,,,,,,,,5,,,,62,65
158880,note_on,80,0,3,,,,,,,,2,,,,67,69
158880,note_on,80,0,5,,,,,,,,4,,,,67,65
159115,note_off,235,0,5,,,,,,,,4,,,,71,64
159115,note_off,0,0,5,,,,,,,,4,,,,67,64
159115,note_off,235,0,6,,,,,,,,5,,,,65,64
159115,note_off,235,0,3,,,,,,,,2,,,,67,64
159115,note_off,0,0,6,,,,,,,,5,,,,62,64
159120,note_on,5,0,5,,,,,,,,4,,,,67,66
159120,note_on,0,0,5,,,,,,,,4,,,,71,66
159120,note_off,480,0,2,,,,,,,,1,,,,57,64
159120,note_on,0,0,2,,,,,,,,1,,,,59,76
159120,note_off,480,0,1,,,,,,,,0,,,,81,64
159120,note_on,0,0,1,,,,,,,,0,,,,83,67
159120,note_on,5,0,3,,,,,,,,2,,,,67,69
159120,note_on,5,0,6,,,,,,,,5,,,,62,66
159120,note_on,0,0,6,,,,,,,,5,,,,65,66
159120,note_off,480,0,4,,,,,,,,3,,,,81,64
159120,note_on,0,0,4,,,,,,,,3,,,,83,67
159520,note_off,400,0,6,,,,,,,,5,,,,65,64
159520,note_off,400,0,1,,,,,,,,0,,,,83,64
159520,note_off,0,0,6,,,,,,,,5,,,,62,64
159520,note_off,0,0,5,,,,,,,,4,,,,67,64
159520,note_off,400,0,5,,,,,,,,4,,,,71,64
159520,note_off,400,0,2,,,,,,,,1,,,,59,64
159520,note_off,400,0,3,,,,,,,,2,,,,67,64
159520,note_off,400,0,4,,,,,,,,3,,,,83,64
159600,note_on,80,0,2,,,,,,,,1,,,,60,77
159600,note_on,80,0,4,,,,,,,,3,,,,84,68
159600,note_on,0,0,6,,,,,,,,5,,,,72,68
159600,note_on,80,0,3,,,,,,,,2,,,,60,70
159600,note_on,80,0,1,,,,,,,,0,,,,84,68
159600,note_on,1040,0,7,,,,,,,,6,,,,48,68
159600,note_on,80,0,5,,,,,,,,4,,,,67,68
159600,note_on,0,0,5,,,,,,,,4,,,,70,68
159600,note_on,80,0,6,,,,,,,,5,,,,64,68
159600,note_on,1040,0,8,,,,,,,,7,,,,36,68
160240,note_off,640,0,7,,,,,,,,6,,,,48,64
160240,note_off,640,0,5,,,,,,,,4,,,,70,64
160240,note_off,640,0,8,,,,,,,,7,,,,36,64
160240,note_off,640,0,3,,,,,,,,2,,,,60,64
160240,note_off,640,0,6,,,,,,,,5,,,,72,64
160240,note_off,0,0,5,,,,,,,,4,,,,67,64
160240,note_off,0,0,6,,,,,,,,5,,,,64,64
160320,note_on,80,0,8,,,,,,,,7,,,,36,71
160320,note_on,80,0,3,,,,,,,,2,,,,60,72
160320,note_on,80,0,7,,,,,,,,6,,,,48,71
160320,note_on,0,0,5,,,,,,,,4,,,,70,71
160320,note_on,80,0,5,,,,,,,,4,,,,67,71
160320,note_on,80,0,6,,,,,,,,5,,,,64,71
160320,note_on,0,0,6,,,,,,,,5,,,,72,71
160555,note_off,235,0,3,,,,,,,,2,,,,60,64
160555,note_off,235,0,7,,,,,,,,6,,,,48,64
160555,note_off,235,0,8,,,,,,,,7,,,,36,64
160555,note_off,235,0,6,,,,,,,,5,,,,72,64
160555,note_off,0,0,6,,,,,,,,5,,,,64,64
160555,note_off,0,0,5,,,,,,,,4,,,,67,64
160555,note_off,235,0,5,,,,,,,,4,,,,70,64
160560,note_on,5,0,3,,,,,,,,2,,,,60,72
160560,note_on,5,0,6,,,,,,,,5,,,,64,72
160560,note_on,0,0,6,,,,,,,,5,,,,72,72
160560,note_on,5,0,5,,,,,,,,4,,,,67,72
160560,note_on,0,0,5,,,,,,,,4,,,,70,72
160560,note_on,5,0,7,,,,,,,,6,,,,48,72
160560,note_on,5,0,8,,,,,,,,7,,,,36,72
160960,note_off,400,0,3,,,,,,,,2,,,,60,64
160960,note_off,400,0,7,,,,,,,,6,,,,48,64
160960,note_off,400,0,6,,,,,,,,5,,,,72,64
160960,note_off,0,0,6,,,,,,,,5,,,,64,64
160960,note_off,0,0,5,,,,,,,,4,,,,67,64
160960,note_off,400,0,8,,,,,,,,7,,,,36,64
160960,note_off,400,0,5,,,,,,,,4,,,,70,64
161040,note_on,80,0,7,,,,,,,,6,,,,60,74
161040,note_on,0,0,6,,,,,,,,5,,,,72,74
161040,note_on,80,0,6,,,,,,,,5,,,,64,74
161040,note_on,80,0,3,,,,,,,,2,,,,60,74
161040,note_on,80,0,8,,,,,,,,7,,,,48,74
161040,note_on,80,0,5,,,,,,,,4,,,,67,74
161040,note_on,0,0,5,,,,,,,,4,,,,70,74
161440,note_off,400,0,7,,,,,,,,6,,,,60,64
161440,note_off,400,0,8,,,,,,,,7,,,,48,64
161680,note_off,0,0,6,,,,,,,,5,,,,64,64
161680,note_off,0,0,5,,,,,,,,4,,,,67,64
161680,note_off,640,0,5,,,,,,,,4,,,,70,64
161680,note_off,640,0,6,,,,,,,,5,,,,72,64
161680,note_off,640,0,3,,,,,,,,2,,,,60,64
161760,note_on,80,0,5,,,,,,,,4,,,,67,77
161760,note_on,0,0,5,,,,,,,,4,,,,70,77
161760,note_on,0,0,6,,,,,,,,5,,,,72,77
161760,note_on,80,0,6,,,,,,,,5,,,,64,77
161760,note_on,80,0,3,,,,,,,,2,,,,60,77
161995,note_off,0,0,6,,,,,,,,5,,,,64,64
161995,note_off,235,0,6,,,,,,,,5,,,,72,64
161995,note_off,235,0,3,,,,,,,,2,,,,60,64
161995,note_off,235,0,5,,,,,,,,4,,,,70,64
161995,note_off,0,0,5,,,,,,,,4,,,,67,64
162000,note_on,0,0,5,,,,,,,,4,,,,70,78
162000,note_on,0,0,6,,,,,,,,5,,,,72,78
162000,note_on,5,0,5,,,,,,,,4,,,,67,78
162000,note_on,5,0,3,,,,,,,,2,,,,60,78
162000,note_on,5,0,6,,,,,,,,5,,,,64,78
162400,note_off,0,0,5,,,,,,,,4,,,,67,64
162400,note_off,0,0,6,,,,,,,,5,,,,64,64
162400,note_off,400,0,6,,,,,,,,5,,,,72,64
162400,note_off,400,0,5,,,,,,,,4,,,,70,64
162400,note_off,400,0,3,,,,,,,,2,,,,60,64
162480,note_on,80,0,3,,,,,,,,2,,,,60,80
162480,note_on,80,0,5,,,,,,,,4,,,,67,80
162480,note_on,0,0,6,,,,,,,,5,,,,72,80
162480,note_on,1040,0,8,,,,,,,,7,,,,36,80
162480,note_on,1040,0,7,,,,,,,,6,,,,48,80
162480,note_on,0,0,5,,,,,,,,4,,,,70,80
162480,note_on,80,0,6,,,,,,,,5,,,,64,80
163120,note_off,640,0,7,,,,,,,,6,,,,48,64
163120,note_off,0,0,5,,,,,,,,4,,,,67,64
163120,note_off,640,0,5,,,,,,,,4,,,,70,64
163120,note_off,0,0,6,,,,,,,,5,,,,64,64
163120,note_off,640,0,6,,,,,,,,5,,,,72,64
163120,note_off,640,0,8,,,,,,,,7,,,,36,64
163120,note_off,640,0,3,,,,,,,,2,,,,60,64
163200,note_on,80,0,6,,,,,,,,5,,,,64,83
163200,note_on,80,0,8,,,,,,,,7,,,,36,83
163200,note_on,80,0,3,,,,,,,,2,,,,60,83
163200,note_on,0,0,6,,,,,,,,5,,,,72,83
163200,note_on,80,0,5,,,,,,,,4,,,,67,83
163200,note_on,80,0,7,,,,,,,,6,,,,48,83
163200,note_on,0,0,5,,,,,,,,4,,,,70,83
163435,note_off,235,0,8,,,,,,,,7,,,,36,64
163435,note_off,235,0,3,,,,,,,,2,,,,60,64
163435,note_off,0,0,5,,,,,,,,4,,,,67,64
163435,note_off,235,0,5,,,,,,,,4,,,,70,64
163435,note_off,235,0,7,,,,,,,,6,,,,48,64
163435,note_off,235,0,6,,,,,,,,5,,,,72,64
163435,note_off,0,0,6,,,,,,,,5,,,,64,64
163440,note_on,5,0,3,,,,,,,,2,,,,60,84
163440,note_on,5,0,5,,,,,,,,4,,,,67,84
163440,note_on,0,0,5,,,,,,,,4,,,,70,84
163440,note_on,5,0,8,,,,,,,,7,,,,36,84
163440,note_on,5,0,6,,,,,,,,5,,,,64,84
163440,note_on,0,0,6,,,,,,,,5,,,,72,84
163440,note_on,5,0,7,,,,,,,,6,,,,48,84
163800,note_off,4200,0,1,,,,,,,,0,,,,84,64
163800,note_off,4200,0,4,,,,,,,,3,,,,84,64
163840,note_off,400,0,5,,,,,,,,4,,,,70,64
163840,note_off,0,0,5,,,,,,,,4,,,,67,64
163840,note_off,0,0,6,,,,,,,,5,,,,64,64
163840,note_off,400,0,7,,,,,,,,6,,,,48,64
163840,note_off,400,0,3,,,,,,,,2,,,,60,64
163840,note_off,400,0,8,,,,,,,,7,,,,36,64
163840,note_off,400,0,6,,,,,,,,5,,,,72,64
163920,note_on,80,0,6,,,,,,,,5,,,,64,86
163920,note_on,120,0,4,,,,,,,,3,,,,72,86
163920,note_on,0,0,6,,,,,,,,5,,,,72,86
163920,note_on,80,0,3,,,,,,,,2,,,,60,86
163920,set_tempo,12480,1,0,247933,,,,,,,,,,,,
163920,note_on,80,0,7,,,,,,,,6,,,,60,86
163920,note_on,120,0,1,,,,,,,,0,,,,72,86
163920,note_on,80,0,8,,,,,,,,7,,,,48,86
163920,note_on,80,0,5,,,,,,,,4,,,,67,86
163920,note_on,0,0,5,,,,,,,,4,,,,70,86
164320,note_off,400,0,1,,,,,,,,0,,,,72,64
164320,note_off,400,0,8,,,,,,,,7,,,,48,64
164320,note_off,4720,0,2,,,,,,,,1,,,,60,64
164320,note_off,400,0,4,,,,,,,,3,,,,72,64
164320,note_off,400,0,7,,,,,,,,6,,,,60,64
164400,note_on,80,0,1,,,,,,,,0,,,,74,88
164400,note_on,80,0,2,,,,,,,,1,,,,62,89
164400,note_on,80,0,4,,,,,,,,3,,,,74,88
164400,set_tempo,480,1,0,243902,,,,,,,,,,,,
164560,note_off,0,0,6,,,,,,,,5,,,,64,64
164560,note_off,640,0,6,,,,,,,,5,,,,72,64
164560,note_off,0,0,5,,,,,,,,4,,,,67,64
164560,note_off,640,0,3,,,,,,,,2,,,,60,64
164560,note_off,640,0,5,,,,,,,,4,,,,70,64
164640,note_on,0,0,6,,,,,,,,5,,,,72,89
164640,note_on,0,0,5,,,,,,,,4,,,,70,89
164640,note_on,80,0,6,,,,,,,,5,,,,64,89
164640,note_on,80,0,5,,,,,,,,4,,,,67,89
164640,note_on,80,0,3,,,,,,,,2,,,,60,89
164800,note_off,400,0,4,,,,,,,,3,,,,74,64
164800,note_off,400,0,2,,,,,,,,1,,,,62,64
164800,note_off,400,0,1,,,,,,,,0,,,,74,64
164875,note_off,0,0,6,,,,,,,,5,,,,64,64
164875,note_off,235,0,6,,,,,,,,5,,,,72,64
164875,note_off,235,0,3,,,,,,,,2,,,,60,64
164875,note_off,235,0,5,,,,,,,,4,,,,70,64
164875,note_off,0,0,5,,,,,,,,4,,,,67,64
164880,note_on,5,0,3,,,,,,,,2,,,,60,90
164880,note_on,5,0,5,,,,,,,,4,,,,67,90
164880,note_on,5,0,6,,,,,,,,5,,,,64,90
164880,note_on,80,0,2,,,,,,,,1,,,,64,90
164880,note_on,80,0,1,,,,,,,,0,,,,76,90
164880,set_tempo,480,1,0,238095,,,,,,,,,,,,
164880,note_on,0,0,6,,,,,,,,5,,,,72,90
164880,note_on,80,0,4,,,,,,,,3,,,,76,90
164880,note_on,0,0,5,,,,,,,,4,,,,70,90
165280,note_off,400,0,3,,,,,,,,2,,,,60,64
165280,note_off,400,0,1,,,,,,,,0,,,,76,64
165280,note_off,400,0,4,,,,,,,,3,,,,76,64
165280,note_off,0,0,5,,,,,,,,4,,,,67,64
165280,note_off,0,0,6,,,,,,,,5,,,,64,64
165280,note_off,400,0,2,,,,,,,,1,,,,64,64
165280,note_off,400,0,6,,,,,,,,5,,,,72,64
165280,note_off,400,0,5,,,,,,,,4,,,,70,64
165360,note_on,1040,0,7,,,,,,,,6,,,,53,92
165360,note_on,80,0,4,,,,,,,,3,,,,69,92
165360,note_on,0,0,4,,,,,,,,3,,,,77,92
165360,note_on,80,0,1,,,,,,,,0,,,,77,92
165360,set_tempo,480,1,0,229007,,,,,,,,,,,,
165360,note_on,80,0,3,,,,,,,,2,,,,65,92
165360,note_on,1040,0,8,,,,,,,,7,,,,41,92
165360,note_on,80,0,6,,,,,,,,5,,,,60,92
165360,note_on,80,0,2,,,,,,,,1,,,,65,92
165360,note_on,0,0,5,,,,,,,,4,,,,65,92
165360,note_on,80,0,5,,,,,,,,4,,,,57,92
165865,note_off,505,0,2,,,,,,,,1,,,,65,64
165865,note_off,505,0,3,,,,,,,,2,,,,65,64
165865,note_off,0,0,4,,,,,,,,3,,,,69,64
165865,note_off,505,0,1,,,,,,,,0,,,,77,64
165865,note_off,505,0,6,,,,,,,,5,,,,60,64
165865,note_off,505,0,4,,,,,,,,3,,,,77,64
165865,note_off,505,0,8,,,,,,,,7,,,,41,64
165865,note_off,505,0,5,,,,,,,,4,,,,65,64
165865,note_off,0,0,5,,,,,,,,4,,,,57,64
165865,note_off,505,0,7,,,,,,,,6,,,,53,64
166080,note_on,215,0,5,,,,,,,,4,,,,57,92
166080,note_on,215,0,2,,,,,,,,1,,,,57,92
166080,note_on,215,0,6,,,,,,,,5,,,,60,92
166080,note_on,215,0,3,,,,,,,,2,,,,65,92
166080,note_on,215,0,4,,,,,,,,3,,,,69,92
166080,note_on,0,0,4,,,,,,,,3,,,,77,92
166080,note_on,215,0,1,,,,,,,,0,,,,77,92
166080,note_on,0,0,5,,,,,,,,4,,,,65,92
166080,note_on,215,0,7,,,,,,,,6,,,,53,92
166080,note_on,215,0,8,,,,,,,,7,,,,41,92
166160,note_off,0,0,4,,,,,,,,3,,,,69,64
166160,note_off,80,0,8,,,,,,,,7,,,,41,64
166160,note_off,80,0,1,,,,,,,,0,,,,77,64
166160,note_off,0,0,5,,,,,,,,4,,,,57,64
166160,note_off,80,0,6,,,,,,,,5,,,,60,64
166160,note_off,80,0,3,,,,,,,,2,,,,65,64
166160,note_off,80,0,5,,,,,,,,4,,,,65,64
166160,note_off,80,0,4,,,,,,,,3,,,,77,64
166160,note_off,80,0,2,,,,,,,,1,,,,57,64
166160,note_off,80,0,7,,,,,,,,6,,,,53,64
166320,note_on,0,0,4,,,,,,,,3,,,,79,92
166320,note_on,160,0,6,,,,,,,,5,,,,64,92
166320,note_on,160,0,3,,,,,,,,2,,,,67,92
166320,note_on,160,0,8,,,,,,,,7,,,,36,92
166320,note_on,160,0,1,,,,,,,,0,,,,76,92
166320,note_on,160,0,5,,,,,,,,4,,,,60,92
166320,note_on,160,0,2,,,,,,,,1,,,,60,92
166320,note_on,160,0,4,,,,,,,,3,,,,72,92
166320,note_on,160,0,7,,,,,,,,6,,,,48,92
166320,note_on,0,0,5,,,,,,,,4,,,,67,92
166440,note_off,120,0,2,,,,,,,,1,,,,60,64
166440,note_off,120,0,3,,,,,,,,2,,,,67,64
166440,note_off,120,0,8,,,,,,,,7,,,,36,64
166440,note_off,120,0,1,,,,,,,,0,,,,76,64
166440,note_off,120,0,4,,,,,,,,3,,,,79,64
166440,note_off,120,0,6,,,,,,,,5,,,,64,64
166440,note_off,120,0,7,,,,,,,,6,,,,48,64
166440,note_off,0,0,5,,,,,,,,4,,,,60,64
166440,note_off,120,0,5,,,,,,,,4,,,,67,64
166440,note_off,0,0,4,,,,,,,,3,,,,72,64
166800,note_on,360,0,4,,,,,,,,3,,,,72,92
166800,note_on,360,0,7,,,,,,,,6,,,,53,92
166800,note_on,360,0,2,,,,,,,,1,,,,65,92
166800,note_on,360,0,1,,,,,,,,0,,,,77,92
166800,note_on,360,0,8,,,,,,,,7,,,,41,92
166800,note_on,0,0,4,,,,,,,,3,,,,81,92
166800,note_on,360,0,5,,,,,,,,4,,,,60,92
166800,note_on,0,0,5,,,,,,,,4,,,,69,92
166800,note_on,360,0,6,,,,,,,,5,,,,65,92
166800,note_on,360,0,3,,,,,,,,2,,,,69,92
167305,note_off,505,0,6,,,,,,,,5,,,,65,64
167305,note_off,0,0,4,,,,,,,,3,,,,72,64
167305,note_off,505,0,4,,,,,,,,3,,,,81,64
167305,note_off,505,0,3,,,,,,,,2,,,,69,64
167305,note_off,505,0,1,,,,,,,,0,,,,77,64
167305,note_off,505,0,8,,,,,,,,7,,,,41,64
167305,note_off,505,0,7,,,,,,,,6,,,,53,64
167305,note_off,505,0,2,,,,,,,,1,,,,65,64
167305,note_off,505,0,5,,,,,,,,4,,,,69,64
167305,note_off,0,0,5,,,,,,,,4,,,,60,64
167520,note_on,0,0,4,,,,,,,,3,,,,81,92
167520,note_on,215,0,4,,,,,,,,3,,,,72,92
167520,note_on,215,0,7,,,,,,,,6,,,,53,92
167520,note_on,215,0,1,,,,,,,,0,,,,77,92
167520,note_on,0,0,5,,,,,,,,4,,,,69,92
167520,note_on,215,0,3,,,,,,,,2,,,,69,92
167520,note_on,215,0,8,,,,,,,,7,,,,41,92
167520,note_on,215,0,2,,,,,,,,1,,,,65,92
167520,note_on,215,0,6,,,,,,,,5,,,,65,92
167520,note_on,215,0,5,,,,,,,,4,,,,60,92
167600,note_off,80,0,6,,,,,,,,5,,,,65,64
167600,note_off,80,0,3,,,,,,,,2,,,,69,64
167600,note_off,0,0,5,,,,,,,,4,,,,60,64
167600,note_off,80,0,2,,,,,,,,1,,,,65,64
167600,note_off,0,0,4,,,,,,,,3,,,,72,64
167600,note_off,80,0,8,,,,,,,,7,,,,41,64
167600,note_off,80,0,7,,,,,,,,6,,,,53,64
167600,note_off,80,0,4,,,,,,,,3,,,,81,64
167600,note_off,80,0,1,,,,,,,,0,,,,77,64
167600,note_off,80,0,5,,,,,,,,4,,,,69,64
167760,note_on,160,0,7,,,,,,,,6,,,,46,92
167760,note_on,160,0,4,,,,,,,,3,,,,74,92
167760,note_on,0,0,4,,,,,,,,3,,,,82,92
167760,note_on,160,0,6,,,,,,,,5,,,,65,92
167760,note_on,0,0,5,,,,,,,,4,,,,70,92
167760,note_on,160,0,8,,,,,,,,7,,,,34,92
167760,note_on,160,0,5,,,,,,,,4,,,,62,92
167760,note_on,160,0,2,,,,,,,,1,,,,62,92
167760,note_on,160,0,1,,,,,,,,0,,,,77,92
167760,note_on,160,0,3,,,,,,,,2,,,,70,92
167880,note_off,0,0,4,,,,,,,,3,,,,74,64
167880,note_off,120,0,2,,,,,,,,1,,,,62,64
167880,note_off,120,0,6,,,,,,,,5,,,,65,64
167880,note_off,120,0,7,,,,,,,,6,,,,46,64
167880,note_off,120,0,1,,,,,,,,0,,,,77,64
167880,note_off,0,0,5,,,,,,,,4,,,,62,64
167880,note_off,120,0,5,,,,,,,,4,,,,70,64
167880,note_off,120,0,4,,,,,,,,3,,,,82,64
167880,note_off,120,0,8,,,,,,,,7,,,,34,64
167880,note_off,120,0,3,,,,,,,,2,,,,70,64
168240,note_on,360,0,5,,,,,,,,4,,,,60,92
168240,note_on,360,0,4,,,,,,,,3,,,,72,92
168240,note_on,360,0,6,,,,,,,,5,,,,65,92
168240,note_on,360,0,8,,,,,,,,7,,,,36,92
168240,note_on,360,0,7,,,,,,,,6,,,,48,92
168240,note_on,0,0,4,,,,,,,,3,,,,81,92
168240,note_on,360,0,3,,,,,,,,2,,,,69,92
168240,note_on,360,0,2,,,,,,,,1,,,,65,92
168240,note_on,0,0,5,,,,,,,,4,,,,69,92
168240,note_on,360,0,1,,,,,,,,0,,,,77,92
168360,note_off,120,0,2,,,,,,,,1,,,,65,64
168360,note_off,120,0,7,,,,,,,,6,,,,48,64
168360,note_off,120,0,5,,,,,,,,4,,,,69,64
168360,note_off,0,0,5,,,,,,,,4,,,,60,64
168360,note_off,120,0,6,,,,,,,,5,,,,65,64
168360,note_off,120,0,8,,,,,,,,7,,,,36,64
168360,note_off,0,0,4,,,,,,,,3,,,,72,64
168360,note_off,120,0,3,,,,,,,,2,,,,69,64
168360,note_off,120,0,1,,,,,,,,0,,,,77,64
168360,note_off,120,0,4,,,,,,,,3,,,,81,64
168720,note_on,360,0,1,,,,,,,,0,,,,77,92
168720,note_on,360,0,4,,,,,,,,3,,,,72,92
168720,note_on,0,0,5,,,,,,,,4,,,,69,92
168720,note_on,360,0,5,,,,,,,,4,,,,60,92
168720,note_on,0,0,4,,,,,,,,3,,,,81,92
168720,note_on,360,0,7,,,,,,,,6,,,,48,92
168720,note_on,360,0,6,,,,,,,,5,,,,65,92
168720,note_on,360,0,2,,,,,,,,1,,,,65,92
168720,note_on,360,0,3,,,,,,,,2,,,,69,92
168720,note_on,360,0,8,,,,,,,,7,,,,36,92
168840,note_off,120,0,3,,,,,,,,2,,,,69,64
168840,note_off,120,0,6,,,,,,,,5,,,,65,64
168840,note_off,120,0,1,,,,,,,,0,,,,77,64
168840,note_off,0,0,4,,,,,,,,3,,,,72,64
168840,note_off,120,0,4,,,,,,,,3,,,,81,64
168840,note_off,120,0,5,,,,,,,,4,,,,69,64
168840,note_off,0,0,5,,,,,,,,4,,,,60,64
168840,note_off,120,0,8,,,,,,,,7,,,,36,64
168840,note_off,120,0,2,,,,,,,,1,,,,65,64
168840,note_off,120,0,7,,,,,,,,6,,,,48,64
169200,note_on,360,0,2,,,,,,,,1,,,,60,92
169200,note_on,0,0,5,,,,,,,,4,,,,67,92
169200,note_on,360,0,4,,,,,,,,3,,,,72,92
169200,note_on,0,0,4,,,,,,,,3,,,,79,92
169200,note_on,360,0,5,,,,,,,,4,,,,60,92
169200,note_on,360,0,6,,,,,,,,5,,,,64,92
169200,note_on,360,0,3,,,,,,,,2,,,,67,92
169200,note_on,360,0,7,,,,,,,,6,,,,48,92
169200,note_on,360,0,8,,,,,,,,7,,,,36,92
169200,note_on,360,0,1,,,,,,,,0,,,,76,92
169320,note_off,120,0,2,,,,,,,,1,,,,60,64
169320,note_off,120,0,6,,,,,,,,5,,,,64,64
169320,note_off,120,0,4,,,,,,,,3,,,,79,64
169320,note_off,0,0,4,,,,,,,,3,,,,72,64
169320,note_off,120,0,8,,,,,,,,7,,,,36,64
169320,note_off,120,0,5,,,,,,,,4,,,,67,64
169320,note_off,120,0,7,,,,,,,,6,,,,48,64
169320,note_off,120,0,1,,,,,,,,0,,,,76,64
169320,note_off,120,0,3,,,,,,,,2,,,,67,64
169320,note_off,0,0,5,,,,,,,,4,,,,60,64
169680,note_on,360,0,3,,,,,,,,2,,,,65,92
169680,note_on,360,0,5,,,,,,,,4,,,,57,92
169680,note_on,0,0,5,,,,,,,,4,,,,65,92
169680,note_on,360,0,8,,,,,,,,7,,,,41,92
169680,note_on,360,0,1,,,,,,,,0,,,,77,92
169680,note_on,360,0,4,,,,,,,,3,,,,69,92
169680,note_on,0,0,4,,,,,,,,3,,,,77,92
169680,note_on,360,0,7,,,,,,,,6,,,,53,92
169680,note_on,360,0,2,,,,,,,,1,,,,57,92
169680,note_on,360,0,6,,,,,,,,5,,,,65,92
170080,note_off,400,0,1,,,,,,,,0,,,,77,64
170080,note_off,0,0,4,,,,,,,,3,,,,69,64
170080,note_off,400,0,4,,,,,,,,3,,,,77,64
170080,note_off,400,0,6,,,,,,,,5,,,,65,64
170080,note_off,400,0,7,,,,,,,,6,,,,53,64
170080,note_off,400,0,5,,,,,,,,4,,,,65,64
170080,note_off,0,0,5,,,,,,,,4,,,,57,64
170080,note_off,400,0,3,,,,,,,,2,,,,65,64
170080,note_off,400,0,2,,,,,,,,1,,,,57,64
170080,note_off,400,0,8,,,,,,,,7,,,,41,64
170520,note_on,0,0,6,,,,,,,,5,,,,60,45
170520,program_change,440,0,6,,,,,,,,5,,,50,,
170520,note_on,440,0,4,,,,,,,,3,,,,60,45
170520,note_on,440,0,8,,,,,,,,7,,,,36,45
170520,note_on,440,0,7,,,,,,,,6,,,,48,45
170760,note_off,240,0,6,,,,,,,,5,,,,60,64
170760,note_on,0,0,6,,,,,,,,5,,,,62,45
170760,note_off,240,0,7,,,,,,,,6,,,,48,64
170760,note_on,0,0,7,,,,,,,,6,,,,50,45
170760,note_off,240,0,8,,,,,,,,7,,,,36,64
170760,note_on,0,0,4,,,,,,,,3,,,,62,45
170760,note_off,240,0,4,,,,,,,,3,,,,60,64
170760,note_on,0,0,8,,,,,,,,7,,,,38,45
171000,note_on,0,0,6,,,,,,,,5,,,,64,45
171000,note_off,240,0,6,,,,,,,,5,,,,62,64
171000,note_off,240,0,8,,,,,,,,7,,,,38,64
171000,note_off,240,0,4,,,,,,,,3,,,,62,64
171000,note_on,0,0,4,,,,,,,,3,,,,64,45
171000,note_on,0,0,7,,,,,,,,6,,,,52,45
171000,note_on,0,0,8,,,,,,,,7,,,,40,45
171000,note_off,240,0,7,,,,,,,,6,,,,50,64
171235,note_off,235,0,6,,,,,,,,5,,,,64,64
171235,note_off,235,0,7,,,,,,,,6,,,,52,64
171235,note_off,235,0,8,,,,,,,,7,,,,40,64
171235,note_off,235,0,4,,,,,,,,3,,,,64,64
171240,note_on,5,0,7,,,,,,,,6,,,,53,45
171240,note_on,5,0,8,,,,,,,,7,,,,41,45
171240,note_on,5,0,4,,,,,,,,3,,,,65,45
171240,note_on,5,0,6,,,,,,,,5,,,,65,45
171745,note_off,505,0,7,,,,,,,,6,,,,53,64
171745,note_off,505,0,6,,,,,,,,5,,,,65,64
171745,note_off,505,0,8,,,,,,,,7,,,,41,64
171745,note_off,505,0,4,,,,,,,,3,,,,65,64
171960,note_on,215,0,6,,,,,,,,5,,,,65,45
171960,note_on,215,0,4,,,,,,,,3,,,,65,45
171960,note_on,215,0,8,,,,,,,,7,,,,41,45
171960,note_on,215,0,7,,,,,,,,6,,,,53,45
172200,note_off,240,0,7,,,,,,,,6,,,,53,64
172200,note_off,240,0,6,,,,,,,,5,,,,65,64
172200,note_on,0,0,6,,,,,,,,5,,,,67,45
172200,note_on,0,0,7,,,,,,,,6,,,,55,45
172200,note_on,0,0,4,,,,,,,,3,,,,67,45
172200,note_off,240,0,4,,,,,,,,3,,,,65,64
172200,note_on,0,0,8,,,,,,,,7,,,,43,45
172200,note_off,240,0,8,,,,,,,,7,,,,41,64
172320,note_off,120,0,6,,,,,,,,5,,,,67,64
172320,note_off,120,0,4,,,,,,,,3,,,,67,64
172320,note_off,120,0,8,,,,,,,,7,,,,43,64
172320,note_off,120,0,7,,,,,,,,6,,,,55,64
172680,note_on,360,0,4,,,,,,,,3,,,,65,45
172680,note_on,360,0,7,,,,,,,,6,,,,53,45
172680,note_on,360,0,6,,,,,,,,5,,,,65,45
172680,note_on,360,0,8,,,,,,,,7,,,,41,45
173185,note_off,505,0,6,,,,,,,,5,,,,65,64
173185,note_off,505,0,7,,,,,,,,6,,,,53,64
173185,note_off,505,0,4,,,,,,,,3,,,,65,64
173185,note_off,505,0,8,,,,,,,,7,,,,41,64
173400,note_on,215,0,6,,,,,,,,5,,,,65,45
173400,note_on,215,0,4,,,,,,,,3,,,,65,45
173400,note_on,215,0,7,,,,,,,,6,,,,53,45
173400,note_on,215,0,8,,,,,,,,7,,,,41,45
173635,note_off,235,0,8,,,,,,,,7,,,,41,64
173640,note_on,0,0,6,,,,,,,,5,,,,64,45
173640,note_off,240,0,6,,,,,,,,5,,,,65,64
173640,note_off,240,0,7,,,,,,,,6,,,,53,64
173640,note_off,240,0,4,,,,,,,,3,,,,65,64
173640,note_on,5,0,8,,,,,,,,7,,,,40,45
173640,note_on,0,0,7,,,,,,,,6,,,,52,45
173640,note_on,0,0,4,,,,,,,,3,,,,64,45
173760,note_off,120,0,8,,,,,,,,7,,,,40,64
173760,note_off,120,0,7,,,,,,,,6,,,,52,64
173760,note_off,120,0,4,,,,,,,,3,,,,64,64
174040,note_off,400,0,6,,,,,,,,5,,,,64,64
174120,note_on,360,0,7,,,,,,,,6,,,,50,45
174120,note_on,80,0,6,,,,,,,,5,,,,62,45
174120,note_on,360,0,8,,,,,,,,7,,,,38,45
174120,note_on,360,0,4,,,,,,,,3,,,,62,45
174240,note_off,120,0,6,,,,,,,,5,,,,62,64
174240,note_off,120,0,4,,,,,,,,3,,,,62,64
174240,note_off,120,0,7,,,,,,,,6,,,,50,64
174240,note_off,120,0,8,,,,,,,,7,,,,38,64
174600,note_on,360,0,4,,,,,,,,3,,,,65,45
174600,note_on,360,0,6,,,,,,,,5,,,,65,45
174600,note_on,360,0,8,,,,,,,,7,,,,41,45
174600,note_on,360,0,7,,,,,,,,6,,,,53,45
174720,note_off,120,0,7,,,,,,,,6,,,,53,64
174720,note_off,120,0,4,,,,,,,,3,,,,65,64
174720,note_off,120,0,8,,,,,,,,7,,,,41,64
174720,note_off,120,0,6,,,,,,,,5,,,,65,64
175080,note_on,360,0,4,,,,,,,,3,,,,67,45
175080,note_on,360,0,7,,,,,,,,6,,,,55,45
175080,note_on,360,0,8,,,,,,,,7,,,,43,45
175080,note_on,360,0,6,,,,,,,,5,,,,67,45
175200,note_off,120,0,8,,,,,,,,7,,,,43,64
175200,note_off,120,0,6,,,,,,,,5,,,,67,64
175200,note_off,120,0,7,,,,,,,,6,,,,55,64
175200,note_off,120,0,4,,,,,,,,3,,,,67,64
175560,note_on,360,0,7,,,,,,,,6,,,,57,45
175560,note_on,360,0,8,,,,,,,,7,,,,45,45
175560,note_on,360,0,4,,,,,,,,3,,,,69,45
175560,note_on,360,0,6,,,,,,,,5,,,,69,45
175960,note_off,400,0,4,,,,,,,,3,,,,69,64
175960,note_off,400,0,8,,,,,,,,7,,,,45,64
175960,note_off,400,0,7,,,,,,,,6,,,,57,64
175960,note_off,400,0,6,,,,,,,,5,,,,69,64
176400,note_on,440,0,8,,,,,,,,7,,,,36,92
176400,note_on,440,0,4,,,,,,,,3,,,,72,92
176400,note_on,440,0,7,,,,,,,,6,,,,48,92
176400,note_on,6320,0,5,,,,,,,,4,,,,60,92
176640,note_on,0,0,7,,,,,,,,6,,,,50,92
176640,note_off,240,0,7,,,,,,,,6,,,,48,64
176640,note_off,240,0,5,,,,,,,,4,,,,60,64
176640,note_on,0,0,4,,,,,,,,3,,,,74,92
176640,note_off,240,0,4,,,,,,,,3,,,,72,64
176640,note_on,0,0,5,,,,,,,,4,,,,62,92
176640,note_off,240,0,8,,,,,,,,7,,,,36,64
176640,note_on,0,0,8,,,,,,,,7,,,,38,92
176880,note_off,240,0,8,,,,,,,,7,,,,38,64
176880,note_on,0,0,8,,,,,,,,7,,,,40,92
176880,note_on,0,0,7,,,,,,,,6,,,,52,92
176880,note_off,240,0,4,,,,,,,,3,,,,74,64
176880,note_on,0,0,4,,,,,,,,3,,,,76,92
176880,note_off,240,0,5,,,,,,,,4,,,,62,64
176880,note_on,0,0,5,,,,,,,,4,,,,64,92
176880,note_off,240,0,7,,,,,,,,6,,,,50,64
177115,note_off,235,0,4,,,,,,,,3,,,,76,64
177115,note_off,235,0,5,,,,,,,,4,,,,64,64
177115,note_off,235,0,8,,,,,,,,7,,,,40,64
177115,note_off,235,0,7,,,,,,,,6,,,,52,64
177120,program_change,1160,0,6,,,,,,,,5,,,48,,
177120,note_on,0,0,6,,,,,,,,5,,,,60,92
177120,note_on,0,0,5,,,,,,,,4,,,,65,92
177120,note_on,5,0,5,,,,,,,,4,,,,57,92
177120,note_on,5,0,7,,,,,,,,6,,,,53,92
177120,note_on,7040,0,1,,,,,,,,0,,,,72,92
177120,note_on,7040,0,2,,,,,,,,1,,,,57,92
177120,note_on,5,0,4,,,,,,,,3,,,,69,92
177120,note_on,7040,0,3,,,,,,,,2,,,,65,92
177120,note_on,5,0,8,,,,,,,,7,,,,41,92
177120,note_on,0,0,4,,,,,,,,3,,,,77,92
177625,note_off,505,0,8,,,,,,,,7,,,,41,64
177625,note_off,505,0,1,,,,,,,,0,,,,72,64
177625,note_off,0,0,4,,,,,,,,3,,,,69,64
177625,note_off,505,0,3,,,,,,,,2,,,,65,64
177625,note_off,505,0,6,,,,,,,,5,,,,60,64
177625,note_off,505,0,2,,,,,,,,1,,,,57,64
177625,note_off,505,0,4,,,,,,,,3,,,,77,64
177625,note_off,505,0,7,,,,,,,,6,,,,53,64
177625,note_off,0,0,5,,,,,,,,4,,,,57,64
177625,note_off,505,0,5,,,,,,,,4,,,,65,64
177840,note_on,215,0,3,,,,,,,,2,,,,65,92
177840,note_on,215,0,5,,,,,,,,4,,,,57,92
177840,note_on,215,0,8,,,,,,,,7,,,,41,92
177840,note_on,215,0,6,,,,,,,,5,,,,60,92
177840,note_on,215,0,7,,,,,,,,6,,,,53,92
177840,note_on,0,0,5,,,,,,,,4,,,,65,92
177840,note_on,215,0,2,,,,,,,,1,,,,57,92
177840,note_on,0,0,4,,,,,,,,3,,,,77,92
177840,note_on,215,0,4,,,,,,,,3,,,,69,92
177840,note_on,215,0,1,,,,,,,,0,,,,72,92
177920,note_off,80,0,7,,,,,,,,6,,,,53,64
177920,note_off,80,0,5,,,,,,,,4,,,,65,64
177920,note_off,80,0,4,,,,,,,,3,,,,77,64
177920,note_off,0,0,4,,,,,,,,3,,,,69,64
177920,note_off,0,0,5,,,,,,,,4,,,,57,64
177920,note_off,80,0,2,,,,,,,,1,,,,57,64
177920,note_off,80,0,6,,,,,,,,5,,,,60,64
177920,note_off,80,0,8,,,,,,,,7,,,,41,64
177920,note_off,80,0,3,,,,,,,,2,,,,65,64
177920,note_off,80,0,1,,,,,,,,0,,,,72,64
178080,note_on,160,0,1,,,,,,,,0,,,,76,92
178080,note_on,160,0,8,,,,,,,,7,,,,36,92
178080,note_on,160,0,7,,,,,,,,6,,,,48,92
178080,note_on,160,0,2,,,,,,,,1,,,,60,92
178080,note_on,160,0,5,,,,,,,,4,,,,60,92
178080,note_on,160,0,6,,,,,,,,5,,,,64,92
178080,note_on,0,0,5,,,,,,,,4,,,,67,92
178080,note_on,160,0,3,,,,,,,,2,,,,67,92
178080,note_on,160,0,4,,,,,,,,3,,,,72,92
178080,note_on,0,0,4,,,,,,,,3,,,,79,92
178200,note_off,120,0,6,,,,,,,,5,,,,64,64
178200,note_off,120,0,1,,,,,,,,0,,,,76,64
178200,note_off,120,0,8,,,,,,,,7,,,,36,64
178200,note_off,120,0,3,,,,,,,,2,,,,67,64
178200,note_off,120,0,5,,,,,,,,4,,,,67,64
178200,note_off,0,0,4,,,,,,,,3,,,,72,64
178200,note_off,120,0,7,,,,,,,,6,,,,48,64
178200,note_off,120,0,4,,,,,,,,3,,,,79,64
178200,note_off,0,0,5,,,,,,,,4,,,,60,64
178200,note_off,120,0,2,,,,,,,,1,,,,60,64
178560,note_on,360,0,3,,,,,,,,2,,,,69,92
178560,note_on,360,0,2,,,,,,,,1,,,,65,92
178560,note_on,360,0,6,,,,,,,,5,,,,65,92
178560,note_on,360,0,7,,,,,,,,6,,,,53,92
178560,note_on,360,0,8,,,,,,,,7,,,,41,92
178560,note_on,360,0,4,,,,,,,,3,,,,72,92
178560,note_on,360,0,5,,,,,,,,4,,,,60,92
178560,note_on,0,0,4,,,,,,,,3,,,,81,92
178560,note_on,360,0,1,,,,,,,,0,,,,77,92
178560,note_on,0,0,5,,,,,,,,4,,,,69,92
179065,note_off,505,0,5,,,,,,,,4,,,,69,64
179065,note_off,505,0,4,,,,,,,,3,,,,81,64
179065,note_off,0,0,4,,,,,,,,3,,,,72,64
179065,note_off,505,0,1,,,,,,,,0,,,,77,64
179065,note_off,505,0,7,,,,,,,,6,,,,53,64
179065,note_off,505,0,2,,,,,,,,1,,,,65,64
179065,note_off,505,0,6,,,,,,,,5,,,,65,64
179065,note_off,505,0,8,,,,,,,,7,,,,41,64
179065,note_off,505,0,3,,,,,,,,2,,,,69,64
179065,note_off,0,0,5,,,,,,,,4,,,,60,64
179280,note_on,215,0,5,,,,,,,,4,,,,60,92
179280,note_on,215,0,4,,,,,,,,3,,,,72,92
179280,note_on,215,0,6,,,,,,,,5,,,,65,92
179280,note_on,215,0,3,,,,,,,,2,,,,69,92
179280,note_on,0,0,5,,,,,,,,4,,,,69,92
179280,note_on,215,0,1,,,,,,,,0,,,,77,92
179280,note_on,0,0,4,,,,,,,,3,,,,81,92
179280,note_on,215,0,2,,,,,,,,1,,,,65,92
179280,note_on,215,0,8,,,,,,,,7,,,,41,92
179280,note_on,215,0,7,,,,,,,,6,,,,53,92
179360,note_off,80,0,1,,,,,,,,0,,,,77,64
179360,note_off,0,0,4,,,,,,,,3,,,,72,64
179360,note_off,0,0,5,,,,,,,,4,,,,60,64
179360,note_off,80,0,8,,,,,,,,7,,,,41,64
179360,note_off,80,0,7,,,,,,,,6,,,,53,64
179360,note_off,80,0,5,,,,,,,,4,,,,69,64
179360,note_off,80,0,6,,,,,,,,5,,,,65,64
179360,note_off,80,0,3,,,,,,,,2,,,,69,64
179360,note_off,80,0,4,,,,,,,,3,,,,81,64
179360,note_off,80,0,2,,,,,,,,1,,,,65,64
179520,note_on,160,0,1,,,,,,,,0,,,,77,92
179520,note_on,160,0,6,,,,,,,,5,,,,65,92
179520,note_on,160,0,2,,,,,,,,1,,,,62,92
179520,note_on,0,0,5,,,,,,,,4,,,,70,92
179520,note_on,160,0,3,,,,,,,,2,,,,70,92
179520,note_on,160,0,5,,,,,,,,4,,,,62,92
179520,note_on,160,0,8,,,,,,,,7,,,,34,92
179520,note_on,0,0,4,,,,,,,,3,,,,82,92
179520,note_on,160,0,4,,,,,,,,3,,,,74,92
179520,note_on,160,0,7,,,,,,,,6,,,,46,92
179640,note_off,0,0,4,,,,,,,,3,,,,74,64
179640,note_off,0,0,5,,,,,,,,4,,,,62,64
179640,note_off,120,0,5,,,,,,,,4,,,,70,64
179640,note_off,120,0,4,,,,,,,,3,,,,82,64
179640,note_off,120,0,2,,,,,,,,1,,,,62,64
179640,note_off,120,0,6,,,,,,,,5,,,,65,64
179640,note_off,120,0,7,,,,,,,,6,,,,46,64
179640,note_off,120,0,3,,,,,,,,2,,,,70,64
179640,note_off,120,0,1,,,,,,,,0,,,,77,64
179640,note_off,120,0,8,,,,,,,,7,,,,34,64
180000,note_on,360,0,2,,,,,,,,1,,,,65,92
180000,note_on,360,0,8,,,,,,,,7,,,,36,92
180000,note_on,360,0,1,,,,,,,,0,,,,77,92
180000,note_on,360,0,6,,,,,,,,5,,,,65,92
180000,note_on,360,0,5,,,,,,,,4,,,,60,92
180000,note_on,0,0,5,,,,,,,,4,,,,69,92
180000,note_on,360,0,7,,,,,,,,6,,,,48,92
180000,note_on,360,0,4,,,,,,,,3,,,,72,92
180000,note_on,0,0,4,,,,,,,,3,,,,81,92
180000,note_on,360,0,3,,,,,,,,2,,,,69,92
180120,note_off,120,0,3,,,,,,,,2,,,,69,64
180120,note_off,120,0,1,,,,,,,,0,,,,77,64
180120,note_off,120,0,4,,,,,,,,3,,,,81,64
180120,note_off,0,0,4,,,,,,,,3,,,,72,64
180120,note_off,120,0,8,,,,,,,,7,,,,36,64
180120,note_off,120,0,6,,,,,,,,5,,,,65,64
180120,note_off,120,0,7,,,,,,,,6,,,,48,64
180120,note_off,0,0,5,,,,,,,,4,,,,60,64
180120,note_off,120,0,5,,,,,,,,4,,,,69,64
180120,note_off,120,0,2,,,,,,,,1,,,,65,64
180480,note_on,360,0,1,,,,,,,,0,,,,77,92
180480,note_on,360,0,7,,,,,,,,6,,,,48,92
180480,note_on,360,0,2,,,,,,,,1,,,,65,92
180480,note_on,360,0,8,,,,,,,,7,,,,36,92
180480,note_on,360,0,6,,,,,,,,5,,,,65,92
180480,note_on,0,0,4,,,,,,,,3,,,,81,92
180480,note_on,360,0,4,,,,,,,,3,,,,72,92
180480,note_on,360,0,3,,,,,,,,2,,,,69,92
180480,note_on,360,0,5,,,,,,,,4,,,,60,92
180480,note_on,0,0,5,,,,,,,,4,,,,69,92
180600,note_off,0,0,4,,,,,,,,3,,,,72,64
180600,note_off,120,0,3,,,,,,,,2,,,,69,64
180600,note_off,120,0,6,,,,,,,,5,,,,65,64
180600,note_off,120,0,8,,,,,,,,7,,,,36,64
180600,note_off,120,0,4,,,,,,,,3,,,,81,64
180600,note_off,120,0,2,,,,,,,,1,,,,65,64
180600,note_off,120,0,7,,,,,,,,6,,,,48,64
180600,note_off,120,0,1,,,,,,,,0,,,,77,64
180600,note_off,0,0,5,,,,,,,,4,,,,60,64
180600,note_off,120,0,5,,,,,,,,4,,,,69,64
180960,note_on,0,0,4,,,,,,,,3,,,,79,92
180960,note_on,360,0,4,,,,,,,,3,,,,72,92
180960,note_on,360,0,2,,,,,,,,1,,,,60,92
180960,note_on,360,0,7,,,,,,,,6,,,,48,92
180960,note_on,0,0,5,,,,,,,,4,,,,67,92
180960,note_on,360,0,6,,,,,,,,5,,,,64,92
180960,note_on,360,0,3,,,,,,,,2,,,,67,92
180960,note_on,360,0,5,,,,,,,,4,,,,60,92
180960,note_on,360,0,8,,,,,,,,7,,,,36,92
180960,note_on,360,0,1,,,,,,,,0,,,,76,92
181080,note_off,120,0,6,,,,,,,,5,,,,64,64
181080,note_off,120,0,3,,,,,,,,2,,,,67,64
181080,note_off,120,0,8,,,,,,,,7,,,,36,64
181080,note_off,0,0,4,,,,,,,,3,,,,72,64
181080,note_off,0,0,5,,,,,,,,4,,,,60,64
181080,note_off,120,0,4,,,,,,,,3,,,,79,64
181080,note_off,120,0,7,,,,,,,,6,,,,48,64
181080,note_off,120,0,2,,,,,,,,1,,,,60,64
181080,note_off,120,0,5,,,,,,,,4,,,,67,64
181080,note_off,120,0,1,,,,,,,,0,,,,76,64
181440,note_on,360,0,4,,,,,,,,3,,,,69,92
181440,note_on,360,0,7,,,,,,,,6,,,,53,92
181440,note_on,360,0,6,,,,,,,,5,,,,65,92
181440,note_on,0,0,4,,,,,,,,3,,,,77,92
181440,note_on,360,0,1,,,,,,,,0,,,,77,92
181440,note_on,360,0,2,,,,,,,,1,,,,57,92
181440,note_on,360,0,5,,,,,,,,4,,,,57,92
181440,note_on,0,0,5,,,,,,,,4,,,,65,92
181440,note_on,360,0,3,,,,,,,,2,,,,65,92
181440,note_on,360,0,8,,,,,,,,7,,,,41,92
181840,note_off,400,0,7,,,,,,,,6,,,,53,64
181840,note_off,400,0,2,,,,,,,,1,,,,57,64
181840,note_off,400,0,5,,,,,,,,4,,,,65,64
181840,note_off,0,0,5,,,,,,,,4,,,,57,64
181840,note_off,400,0,3,,,,,,,,2,,,,65,64
181840,note_off,0,0,4,,,,,,,,3,,,,69,64
181840,note_off,400,0,4,,,,,,,,3,,,,77,64
181840,note_off,400,0,8,,,,,,,,7,,,,41,64
181840,note_off,400,0,6,,,,,,,,5,,,,65,64
181840,note_off,400,0,1,,,,,,,,0,,,,77,64
182280,note_on,0,0,6,,,,,,,,5,,,,60,45
182280,program_change,440,0,6,,,,,,,,5,,,50,,
182280,note_on,440,0,8,,,,,,,,7,,,,36,45
182280,note_on,440,0,7,,,,,,,,6,,,,48,45
182280,note_on,440,0,4,,,,,,,,3,,,,60,45
182520,note_on,0,0,6,,,,,,,,5,,,,62,45
182520,note_off,240,0,4,,,,,,,,3,,,,60,64
182520,note_on,0,0,4,,,,,,,,3,,,,62,45
182520,note_on,0,0,8,,,,,,,,7,,,,38,45
182520,note_off,240,0,8,,,,,,,,7,,,,36,64
182520,note_off,240,0,6,,,,,,,,5,,,,60,64
182520,note_on,0,0,7,,,,,,,,6,,,,50,45
182520,note_off,240,0,7,,,,,,,,6,,,,48,64
182760,note_off,240,0,4,,,,,,,,3,,,,62,64
182760,note_on,0,0,4,,,,,,,,3,,,,64,45
182760,note_on,0,0,8,,,,,,,,7,,,,40,45
182760,note_on,0,0,6,,,,,,,,5,,,,64,45
182760,note_off,240,0,8,,,,,,,,7,,,,38,64
182760,note_off,240,0,7,,,,,,,,6,,,,50,64
182760,note_on,0,0,7,,,,,,,,6,,,,52,45
182760,note_off,240,0,6,,,,,,,,5,,,,62,64
182995,note_off,235,0,4,,,,,,,,3,,,,64,64
182995,note_off,235,0,7,,,,,,,,6,,,,52,64
182995,note_off,235,0,8,,,,,,,,7,,,,40,64
182995,note_off,235,0,6,,,,,,,,5,,,,64,64
183000,note_on,5,0,7,,,,,,,,6,,,,53,45
183000,note_on,5,0,8,,,,,,,,7,,,,41,45
183000,note_on,5,0,6,,,,,,,,5,,,,65,45
183000,note_on,5,0,4,,,,,,,,3,,,,65,45
183505,note_off,505,0,4,,,,,,,,3,,,,65,64
183505,note_off,505,0,7,,,,,,,,6,,,,53,64
183505,note_off,505,0,8,,,,,,,,7,,,,41,64
183505,note_off,505,0,6,,,,,,,,5,,,,65,64
183720,note_on,215,0,6,,,,,,,,5,,,,65,45
183720,note_on,215,0,4,,,,,,,,3,,,,65,45
183720,note_on,215,0,7,,,,,,,,6,,,,53,45
183720,note_on,215,0,8,,,,,,,,7,,,,41,45
183800,note_off,80,0,7,,,,,,,,6,,,,53,64
183800,note_off,80,0,4,,,,,,,,3,,,,65,64
183800,note_off,80,0,6,,,,,,,,5,,,,65,64
183800,note_off,80,0,8,,,,,,,,7,,,,41,64
183960,note_on,160,0,8,,,,,,,,7,,,,43,45
183960,note_on,160,0,7,,,,,,,,6,,,,55,45
183960,note_on,160,0,6,,,,,,,,5,,,,67,45
183960,note_on,160,0,4,,,,,,,,3,,,,67,45
184080,note_off,120,0,7,,,,,,,,6,,,,55,64
184080,note_off,120,0,4,,,,,,,,3,,,,67,64
184080,note_off,120,0,6,,,,,,,,5,,,,67,64
184080,note_off,120,0,8,,,,,,,,7,,,,43,64
184440,note_on,360,0,7,,,,,,,,6,,,,53,45
184440,note_on,360,0,4,,,,,,,,3,,,,65,45
184440,note_on,360,0,6,,,,,,,,5,,,,65,45
184440,note_on,360,0,8,,,,,,,,7,,,,41,45
184945,note_off,505,0,6,,,,,,,,5,,,,65,64
184945,note_off,505,0,8,,,,,,,,7,,,,41,64
184945,note_off,505,0,7,,,,,,,,6,,,,53,64
184945,note_off,505,0,4,,,,,,,,3,,,,65,64
185160,note_on,215,0,7,,,,,,,,6,,,,53,45
185160,note_on,215,0,6,,,,,,,,5,,,,65,45
185160,note_on,215,0,8,,,,,,,,7,,,,41,45
185160,note_on,215,0,4,,,,,,,,3,,,,65,45
185240,note_off,80,0,7,,,,,,,,6,,,,53,64
185240,note_off,80,0,6,,,,,,,,5,,,,65,64
185240,note_off,80,0,8,,,,,,,,7,,,,41,64
185240,note_off,80,0,4,,,,,,,,3,,,,65,64
185400,note_on,160,0,8,,,,,,,,7,,,,40,45
185400,note_on,160,0,4,,,,,,,,3,,,,64,45
185400,note_on,160,0,6,,,,,,,,5,,,,64,45
185400,note_on,160,0,7,,,,,,,,6,,,,52,45
185520,note_off,120,0,6,,,,,,,,5,,,,64,64
185520,note_off,120,0,7,,,,,,,,6,,,,52,64
185520,note_off,120,0,4,,,,,,,,3,,,,64,64
185520,note_off,120,0,8,,,,,,,,7,,,,40,64
185880,note_on,360,0,7,,,,,,,,6,,,,50,45
185880,note_on,360,0,4,,,,,,,,3,,,,62,45
185880,note_on,360,0,8,,,,,,,,7,,,,38,45
185880,note_on,360,0,6,,,,,,,,5,,,,62,45
186000,note_off,120,0,6,,,,,,,,5,,,,62,64
186000,note_off,120,0,7,,,,,,,,6,,,,50,64
186000,note_off,120,0,4,,,,,,,,3,,,,62,64
186000,note_off,120,0,8,,,,,,,,7,,,,38,64
186360,note_on,360,0,4,,,,,,,,3,,,,65,45
186360,note_on,360,0,6,,,,,,,,5,,,,65,45
186360,note_on,360,0,7,,,,,,,,6,,,,53,45
186360,note_on,360,0,8,,,,,,,,7,,,,41,45
186480,note_off,120,0,4,,,,,,,,3,,,,65,64
186480,note_off,120,0,8,,,,,,,,7,,,,41,64
186480,note_off,120,0,6,,,,,,,,5,,,,65,64
186480,note_off,120,0,7,,,,,,,,6,,,,53,64
186840,note_on,360,0,4,,,,,,,,3,,,,67,54
186840,note_on,360,0,8,,,,,,,,7,,,,43,54
186840,note_on,360,0,7,,,,,,,,6,,,,55,54
186840,note_on,360,0,6,,,,,,,,5,,,,67,54
186960,note_off,120,0,8,,,,,,,,7,,,,43,64
186960,note_off,120,0,4,,,,,,,,3,,,,67,64
186960,note_off,120,0,7,,,,,,,,6,,,,55,64
186960,note_off,120,0,6,,,,,,,,5,,,,67,64
187320,note_on,360,0,8,,,,,,,,7,,,,45,63
187320,note_on,360,0,4,,,,,,,,3,,,,69,63
187320,note_on,360,0,7,,,,,,,,6,,,,57,63
187320,note_on,360,0,6,,,,,,,,5,,,,69,63
187440,note_off,120,0,7,,,,,,,,6,,,,57,64
187440,note_off,120,0,8,,,,,,,,7,,,,45,64
187440,note_off,120,0,6,,,,,,,,5,,,,69,64
187440,note_off,120,0,4,,,,,,,,3,,,,69,64
187800,note_on,360,0,7,,,,,,,,6,,,,58,72
187800,note_on,360,0,8,,,,,,,,7,,,,46,72
187920,note_off,120,0,7,,,,,,,,6,,,,58,64
187920,note_off,120,0,8,,,,,,,,7,,,,46,64
188280,note_on,360,0,7,,,,,,,,6,,,,59,82
188280,note_on,360,0,8,,,,,,,,7,,,,47,82
188400,note_off,120,0,7,,,,,,,,6,,,,59,64
188400,note_off,120,0,8,,,,,,,,7,,,,47,64
188760,note_on,0,0,5,,,,,,,,4,,,,79,92
188760,note_on,6920,0,3,,,,,,,,2,,,,67,92
188760,note_on,0,0,4,,,,,,,,3,,,,84,92
188760,note_on,1320,0,4,,,,,,,,3,,,,76,92
188760,note_on,6920,0,2,,,,,,,,1,,,,64,92
188760,note_on,6920,0,5,,,,,,,,4,,,,70,92
188760,note_on,360,0,7,,,,,,,,6,,,,60,92
188760,note_on,6920,0,1,,,,,,,,0,,,,82,92
188760,note_on,360,0,8,,,,,,,,7,,,,48,92
188760,program_change,1320,0,6,,,,,,,,5,,,48,,
188760,note_on,0,0,6,,,,,,,,5,,,,72,92
189265,note_off,505,0,3,,,,,,,,2,,,,67,64
189265,note_off,505,0,1,,,,,,,,0,,,,82,64
189265,note_off,0,0,5,,,,,,,,4,,,,70,64
189265,note_off,505,0,5,,,,,,,,4,,,,79,64
189265,note_off,505,0,6,,,,,,,,5,,,,72,64
189265,note_off,505,0,4,,,,,,,,3,,,,84,64
189265,note_off,505,0,2,,,,,,,,1,,,,64,64
189265,note_off,0,0,4,,,,,,,,3,,,,76,64
189480,note_on,215,0,2,,,,,,,,1,,,,64,92
189480,note_on,215,0,3,,,,,,,,2,,,,67,92
189480,note_on,215,0,6,,,,,,,,5,,,,72,92
189480,note_on,215,0,1,,,,,,,,0,,,,82,92
189480,note_on,215,0,5,,,,,,,,4,,,,70,92
189480,note_on,0,0,5,,,,,,,,4,,,,79,92
189480,note_on,0,0,4,,,,,,,,3,,,,84,92
189480,note_on,215,0,4,,,,,,,,3,,,,76,92
189560,note_off,80,0,2,,,,,,,,1,,,,64,64
189560,note_off,80,0,5,,,,,,,,4,,,,79,64
189560,note_off,0,0,5,,,,,,,,4,,,,70,64
189560,note_off,80,0,6,,,,,,,,5,,,,72,64
189560,note_off,0,0,4,,,,,,,,3,,,,76,64
189560,note_off,80,0,1,,,,,,,,0,,,,82,64
189560,note_off,80,0,4,,,,,,,,3,,,,84,64
189560,note_off,80,0,3,,,,,,,,2,,,,67,64
189720,note_on,160,0,2,,,,,,,,1,,,,65,92
189720,note_on,160,0,3,,,,,,,,2,,,,67,92
189720,note_on,0,0,5,,,,,,,,4,,,,79,92
189720,note_on,160,0,1,,,,,,,,0,,,,82,92
189720,note_on,160,0,6,,,,,,,,5,,,,74,92
189720,note_on,160,0,5,,,,,,,,4,,,,70,92
189720,note_on,0,0,4,,,,,,,,3,,,,86,92
189720,note_on,160,0,4,,,,,,,,3,,,,77,92
189840,note_off,120,0,1,,,,,,,,0,,,,82,64
189840,note_off,0,0,4,,,,,,,,3,,,,77,64
189840,note_off,120,0,4,,,,,,,,3,,,,86,64
189840,note_off,0,0,5,,,,,,,,4,,,,70,64
189840,note_off,120,0,5,,,,,,,,4,,,,79,64
189840,note_off,120,0,2,,,,,,,,1,,,,65,64
189840,note_off,120,0,3,,,,,,,,2,,,,67,64
189840,note_off,120,0,6,,,,,,,,5,,,,74,64
190080,note_off,1320,0,8,,,,,,,,7,,,,48,64
190080,note_off,1320,0,7,,,,,,,,6,,,,60,64
190200,note_on,360,0,1,,,,,,,,0,,,,82,92
190200,note_on,360,0,3,,,,,,,,2,,,,67,92
190200,note_on,120,0,8,,,,,,,,7,,,,48,92
190200,note_on,360,0,6,,,,,,,,5,,,,72,92
190200,note_on,0,0,4,,,,,,,,3,,,,84,92
190200,note_on,120,0,7,,,,,,,,6,,,,60,92
190200,note_on,0,0,5,,,,,,,,4,,,,79,92
190200,note_on,360,0,5,,,,,,,,4,,,,70,92
190200,note_on,360,0,2,,,,,,,,1,,,,64,92
190200,note_on,360,0,4,,,,,,,,3,,,,76,92
190705,note_off,505,0,4,,,,,,,,3,,,,84,64
190705,note_off,0,0,5,,,,,,,,4,,,,70,64
190705,note_off,505,0,1,,,,,,,,0,,,,82,64
190705,note_off,505,0,6,,,,,,,,5,,,,72,64
190705,note_off,505,0,5,,,,,,,,4,,,,79,64
190705,note_off,0,0,4,,,,,,,,3,,,,76,64
190705,note_off,505,0,2,,,,,,,,1,,,,64,64
190705,note_off,505,0,3,,,,,,,,2,,,,67,64
190920,note_on,215,0,1,,,,,,,,0,,,,82,92
190920,note_on,0,0,4,,,,,,,,3,,,,84,92
190920,note_on,215,0,4,,,,,,,,3,,,,76,92
190920,note_on,0,0,5,,,,,,,,4,,,,79,92
190920,note_on,215,0,6,,,,,,,,5,,,,72,92
190920,note_on,215,0,2,,,,,,,,1,,,,64,92
190920,note_on,215,0,5,,,,,,,,4,,,,70,92
190920,note_on,215,0,3,,,,,,,,2,,,,67,92
191000,note_off,80,0,3,,,,,,,,2,,,,67,64
191000,note_off,80,0,2,,,,,,,,1,,,,64,64
191000,note_off,80,0,6,,,,,,,,5,,,,72,64
191000,note_off,0,0,4,,,,,,,,3,,,,76,64
191000,note_off,80,0,1,,,,,,,,0,,,,82,64
191000,note_off,80,0,5,,,,,,,,4,,,,79,64
191000,note_off,0,0,5,,,,,,,,4,,,,70,64
191000,note_off,80,0,4,,,,,,,,3,,,,84,64
191160,note_on,160,0,6,,,,,,,,5,,,,74,92
191160,note_on,160,0,1,,,,,,,,0,,,,82,92
191160,note_on,0,0,5,,,,,,,,4,,,,79,92
191160,note_on,160,0,5,,,,,,,,4,,,,70,92
191160,note_on,160,0,3,,,,,,,,2,,,,67,92
191160,note_on,160,0,2,,,,,,,,1,,,,65,92
191160,note_on,160,0,4,,,,,,,,3,,,,77,92
191160,note_on,0,0,4,,,,,,,,3,,,,86,92
191280,note_off,120,0,3,,,,,,,,2,,,,67,64
191280,note_off,120,0,4,,,,,,,,3,,,,86,64
191280,note_off,0,0,4,,,,,,,,3,,,,77,64
191280,note_off,120,0,1,,,,,,,,0,,,,82,64
191280,note_off,120,0,2,,,,,,,,1,,,,65,64
191280,note_off,120,0,6,,,,,,,,5,,,,74,64
191520,note_off,1320,0,7,,,,,,,,6,,,,60,64
191520,note_off,1320,0,8,,,,,,,,7,,,,48,64
191560,note_off,400,0,5,,,,,,,,4,,,,79,64
191560,note_off,0,0,5,,,,,,,,4,,,,70,64
191640,note_on,120,0,7,,,,,,,,6,,,,60,92
191640,note_on,360,0,4,,,,,,,,3,,,,76,92
191640,note_on,360,0,6,,,,,,,,5,,,,72,92
191640,note_on,0,0,4,,,,,,,,3,,,,84,92
191640,note_on,360,0,2,,,,,,,,1,,,,64,92
191640,note_on,360,0,3,,,,,,,,2,,,,67,92
191640,note_on,80,0,5,,,,,,,,4,,,,70,92
191640,note_on,0,0,5,,,,,,,,4,,,,79,92
191640,note_on,120,0,8,,,,,,,,7,,,,48,92
191640,note_on,360,0,1,,,,,,,,0,,,,82,92
192145,note_off,505,0,1,,,,,,,,0,,,,82,64
192145,note_off,505,0,2,,,,,,,,1,,,,64,64
192145,note_off,505,0,3,,,,,,,,2,,,,67,64
192145,note_off,505,0,4,,,,,,,,3,,,,84,64
192145,note_off,0,0,4,,,,,,,,3,,,,76,64
192145,note_off,505,0,6,,,,,,,,5,,,,72,64
192145,note_off,505,0,5,,,,,,,,4,,,,79,64
192145,note_off,0,0,5,,,,,,,,4,,,,70,64
192360,note_on,215,0,2,,,,,,,,1,,,,64,92
192360,note_on,215,0,6,,,,,,,,5,,,,72,92
192360,note_on,215,0,5,,,,,,,,4,,,,70,92
192360,note_on,0,0,5,,,,,,,,4,,,,79,92
192360,note_on,215,0,3,,,,,,,,2,,,,67,92
192360,note_on,0,0,4,,,,,,,,3,,,,84,92
192360,note_on,215,0,4,,,,,,,,3,,,,76,92
192360,note_on,215,0,1,,,,,,,,0,,,,82,92
192440,note_off,80,0,5,,,,,,,,4,,,,79,64
192440,note_off,80,0,3,,,,,,,,2,,,,67,64
192440,note_off,80,0,6,,,,,,,,5,,,,72,64
192440,note_off,80,0,1,,,,,,,,0,,,,82,64
192440,note_off,80,0,2,,,,,,,,1,,,,64,64
192440,note_off,0,0,5,,,,,,,,4,,,,70,64
192440,note_off,80,0,4,,,,,,,,3,,,,84,64
192440,note_off,0,0,4,,,,,,,,3,,,,76,64
192600,note_on,160,0,3,,,,,,,,2,,,,67,92
192600,note_on,160,0,1,,,,,,,,0,,,,82,92
192600,note_on,160,0,5,,,,,,,,4,,,,70,92
192600,note_on,0,0,5,,,,,,,,4,,,,79,92
192600,note_on,160,0,6,,,,,,,,5,,,,74,92
192600,note_on,160,0,2,,,,,,,,1,,,,65,92
192600,note_on,160,0,4,,,,,,,,3,,,,77,92
192600,note_on,0,0,4,,,,,,,,3,,,,86,92
192720,note_off,0,0,4,,,,,,,,3,,,,77,64
192720,note_off,120,0,4,,,,,,,,3,,,,86,64
192720,note_off,0,0,5,,,,,,,,4,,,,70,64
192720,note_off,120,0,5,,,,,,,,4,,,,79,64
192720,note_off,120,0,2,,,,,,,,1,,,,65,64
192720,note_off,120,0,1,,,,,,,,0,,,,82,64
192720,note_off,120,0,6,,,,,,,,5,,,,74,64
192960,note_off,1320,0,8,,,,,,,,7,,,,48,64
192960,note_off,1320,0,7,,,,,,,,6,,,,60,64
193000,note_off,400,0,3,,,,,,,,2,,,,67,64
193080,note_on,120,0,7,,,,,,,,6,,,,48,92
193080,note_on,120,0,8,,,,,,,,7,,,,36,92
193080,note_on,80,0,3,,,,,,,,2,,,,67,92
193080,note_on,360,0,5,,,,,,,,4,,,,70,92
193080,note_on,360,0,6,,,,,,,,5,,,,72,92
193080,note_on,360,0,1,,,,,,,,0,,,,82,92
193080,note_on,0,0,5,,,,,,,,4,,,,79,92
193080,note_on,360,0,2,,,,,,,,1,,,,64,92
193080,note_on,360,0,4,,,,,,,,3,,,,76,92
193080,note_on,0,0,4,,,,,,,,3,,,,84,92
193200,note_off,120,0,8,,,,,,,,7,,,,36,64
193200,note_off,120,0,7,,,,,,,,6,,,,48,64
193480,note_off,400,0,4,,,,,,,,3,,,,84,64
193480,note_off,400,0,6,,,,,,,,5,,,,72,64
193480,note_off,400,0,5,,,,,,,,4,,,,79,64
193480,note_off,0,0,4,,,,,,,,3,,,,76,64
193480,note_off,400,0,2,,,,,,,,1,,,,64,64
193480,note_off,0,0,5,,,,,,,,4,,,,70,64
193480,note_off,400,0,1,,,,,,,,0,,,,82,64
193480,note_off,400,0,3,,,,,,,,2,,,,67,64
193560,note_on,360,0,7,,,,,,,,6,,,,50,92
193560,note_on,360,0,8,,,,,,,,7,,,,38,92
193680,note_off,120,0,7,,,,,,,,6,,,,50,64
193680,note_off,120,0,8,,,,,,,,7,,,,38,64
194040,note_on,360,0,8,,,,,,,,7,,,,40,92
194040,note_on,360,0,7,,,,,,,,6,,,,52,92
194160,note_off,120,0,8,,,,,,,,7,,,,40,64
194160,note_off,120,0,7,,,,,,,,6,,,,52,64
194520,note_on,1040,0,6,,,,,,,,5,,,,65,92
194520,note_on,1040,0,2,,,,,,,,1,,,,65,92
194520,note_on,1040,0,4,,,,,,,,3,,,,69,92
194520,note_on,0,0,4,,,,,,,,3,,,,77,92
194520,note_on,1040,0,3,,,,,,,,2,,,,72,92
194520,note_on,1040,0,5,,,,,,,,4,,,,75,92
194520,note_on,1040,0,1,,,,,,,,0,,,,77,92
194520,note_on,360,0,8,,,,,,,,7,,,,41,92
194520,note_on,360,0,7,,,,,,,,6,,,,53,92
195025,note_off,505,0,4,,,,,,,,3,,,,77,64
195025,note_off,505,0,5,,,,,,,,4,,,,75,64
195025,note_off,505,0,1,,,,,,,,0,,,,77,64
195025,note_off,505,0,2,,,,,,,,1,,,,65,64
195025,note_off,505,0,3,,,,,,,,2,,,,72,64
195025,note_off,0,0,4,,,,,,,,3,,,,69,64
195025,note_off,505,0,6,,,,,,,,5,,,,65,64
195240,note_on,215,0,4,,,,,,,,3,,,,69,92
195240,note_on,0,0,4,,,,,,,,3,,,,77,92
195240,note_on,215,0,6,,,,,,,,5,,,,65,92
195240,note_on,215,0,1,,,,,,,,0,,,,77,92
195240,note_on,215,0,3,,,,,,,,2,,,,72,92
195240,note_on,215,0,5,,,,,,,,4,,,,75,92
195240,note_on,215,0,2,,,,,,,,1,,,,65,92
195320,note_off,80,0,2,,,,,,,,1,,,,65,64
195320,note_off,80,0,1,,,,,,,,0,,,,77,64
195320,note_off,80,0,5,,,,,,,,4,,,,75,64
195320,note_off,80,0,6,,,,,,,,5,,,,65,64
195320,note_off,80,0,4,,,,,,,,3,,,,77,64
195320,note_off,0,0,4,,,,,,,,3,,,,69,64
195320,note_off,80,0,3,,,,,,,,2,,,,72,64
195480,note_on,160,0,1,,,,,,,,0,,,,79,92
195480,note_on,160,0,5,,,,,,,,4,,,,75,92
195480,note_on,160,0,3,,,,,,,,2,,,,72,92
195480,note_on,160,0,4,,,,,,,,3,,,,70,92
195480,note_on,0,0,4,,,,,,,,3,,,,79,92
195480,note_on,160,0,2,,,,,,,,1,,,,67,92
195480,note_on,160,0,6,,,,,,,,5,,,,67,92
195600,note_off,120,0,1,,,,,,,,0,,,,79,64
195600,note_off,120,0,3,,,,,,,,2,,,,72,64
195600,note_off,120,0,2,,,,,,,,1,,,,67,64
195600,note_off,120,0,5,,,,,,,,4,,,,75,64
195600,note_off,0,0,4,,,,,,,,3,,,,70,64
195600,note_off,120,0,4,,,,,,,,3,,,,79,64
195600,note_off,120,0,6,,,,,,,,5,,,,67,64
195840,note_off,1320,0,7,,,,,,,,6,,,,53,64
195840,note_off,1320,0,8,,,,,,,,7,,,,41,64
195960,note_on,360,0,4,,,,,,,,3,,,,69,92
195960,note_on,360,0,6,,,,,,,,5,,,,65,92
195960,note_on,360,0,2,,,,,,,,1,,,,65,92
195960,note_on,360,0,3,,,,,,,,2,,,,72,92
195960,note_on,120,0,7,,,,,,,,6,,,,53,92
195960,note_on,360,0,1,,,,,,,,0,,,,77,92
195960,note_on,120,0,8,,,,,,,,7,,,,41,92
195960,note_on,360,0,5,,,,,,,,4,,,,75,92
195960,note_on,0,0,4,,,,,,,,3,,,,77,92
196465,note_off,505,0,2,,,,,,,,1,,,,65,64
196465,note_off,505,0,1,,,,,,,,0,,,,77,64
196465,note_off,505,0,5,,,,,,,,4,,,,75,64
196465,note_off,0,0,4,,,,,,,,3,,,,69,64
196465,note_off,505,0,6,,,,,,,,5,,,,65,64
196465,note_off,505,0,4,,,,,,,,3,,,,77,64
196465,note_off,505,0,3,,,,,,,,2,,,,72,64
196680,note_on,215,0,5,,,,,,,,4,,,,75,92
196680,note_on,215,0,6,,,,,,,,5,,,,65,92
196680,note_on,215,0,2,,,,,,,,1,,,,65,92
196680,note_on,215,0,3,,,,,,,,2,,,,72,92
196680,note_on,215,0,1,,,,,,,,0,,,,77,92
196680,note_on,0,0,4,,,,,,,,3,,,,77,92
196680,note_on,215,0,4,,,,,,,,3,,,,69,92
196760,note_off,0,0,4,,,,,,,,3,,,,69,64
196760,note_off,80,0,3,,,,,,,,2,,,,72,64
196760,note_off,80,0,1,,,,,,,,0,,,,77,64
196760,note_off,80,0,6,,,,,,,,5,,,,65,64
196760,note_off,80,0,5,,,,,,,,4,,,,75,64
196760,note_off,80,0,2,,,,,,,,1,,,,65,64
196760,note_off,80,0,4,,,,,,,,3,,,,77,64
196920,note_on,160,0,3,,,,,,,,2,,,,72,92
196920,note_on,160,0,6,,,,,,,,5,,,,67,92
196920,note_on,160,0,5,,,,,,,,4,,,,75,92
196920,note_on,160,0,2,,,,,,,,1,,,,67,92
196920,note_on,0,0,4,,,,,,,,3,,,,79,92
196920,note_on,160,0,4,,,,,,,,3,,,,70,92
196920,note_on,160,0,1,,,,,,,,0,,,,79,92
197040,note_off,120,0,2,,,,,,,,1,,,,67,64
197040,note_off,120,0,6,,,,,,,,5,,,,67,64
197040,note_off,120,0,3,,,,,,,,2,,,,72,64
197040,note_off,0,0,4,,,,,,,,3,,,,70,64
197040,note_off,120,0,4,,,,,,,,3,,,,79,64
197040,note_off,120,0,1,,,,,,,,0,,,,79,64
197040,note_off,120,0,5,,,,,,,,4,,,,75,64
197280,note_off,1320,0,8,,,,,,,,7,,,,41,64
197280,note_off,1320,0,7,,,,,,,,6,,,,53,64
197400,note_on,360,0,1,,,,,,,,0,,,,77,92
197400,note_on,360,0,2,,,,,,,,1,,,,65,92
197400,note_on,360,0,6,,,,,,,,5,,,,65,92
197400,note_on,360,0,5,,,,,,,,4,,,,75,92
197400,note_on,0,0,4,,,,,,,,3,,,,77,92
197400,note_on,360,0,4,,,,,,,,3,,,,69,92
197400,note_on,120,0,8,,,,,,,,7,,,,41,92
197400,note_on,120,0,7,,,,,,,,6,,,,53,92
197400,note_on,360,0,3,,,,,,,,2,,,,72,92
197905,note_off,505,0,2,,,,,,,,1,,,,65,64
197905,note_off,505,0,5,,,,,,,,4,,,,75,64
197905,note_off,505,0,6,,,,,,,,5,,,,65,64
197905,note_off,505,0,3,,,,,,,,2,,,,72,64
197905,note_off,505,0,1,,,,,,,,0,,,,77,64
197905,note_off,505,0,4,,,,,,,,3,,,,77,64
197905,note_off,0,0,4,,,,,,,,3,,,,69,64
198120,note_on,215,0,6,,,,,,,,5,,,,65,92
198120,note_on,215,0,3,,,,,,,,2,,,,72,92
198120,note_on,215,0,1,,,,,,,,0,,,,77,92
198120,note_on,0,0,4,,,,,,,,3,,,,77,92
198120,note_on,215,0,4,,,,,,,,3,,,,69,92
198120,note_on,215,0,2,,,,,,,,1,,,,65,92
198120,note_on,215,0,5,,,,,,,,4,,,,75,92
198200,note_off,80,0,2,,,,,,,,1,,,,65,64
198200,note_off,80,0,4,,,,,,,,3,,,,77,64
198200,note_off,80,0,1,,,,,,,,0,,,,77,64
198200,note_off,80,0,3,,,,,,,,2,,,,72,64
198200,note_off,0,0,4,,,,,,,,3,,,,69,64
198200,note_off,80,0,6,,,,,,,,5,,,,65,64
198200,note_off,80,0,5,,,,,,,,4,,,,75,64
198360,note_on,160,0,2,,,,,,,,1,,,,67,92
198360,note_on,160,0,5,,,,,,,,4,,,,75,92
198360,note_on,160,0,3,,,,,,,,2,,,,72,92
198360,note_on,160,0,1,,,,,,,,0,,,,79,92
198360,note_on,160,0,6,,,,,,,,5,,,,67,92
198360,note_on,160,0,4,,,,,,,,3,,,,70,92
198360,note_on,0,0,4,,,,,,,,3,,,,79,92
198480,note_off,120,0,6,,,,,,,,5,,,,67,64
198480,note_off,120,0,5,,,,,,,,4,,,,75,64
198480,note_off,0,0,4,,,,,,,,3,,,,70,64
198480,note_off,120,0,3,,,,,,,,2,,,,72,64
198480,note_off,120,0,1,,,,,,,,0,,,,79,64
198480,note_off,120,0,4,,,,,,,,3,,,,79,64
198720,note_off,1320,0,8,,,,,,,,7,,,,41,64
198720,note_off,1320,0,7,,,,,,,,6,,,,53,64
198760,note_off,400,0,2,,,,,,,,1,,,,67,64
198840,note_on,360,0,1,,,,,,,,0,,,,77,92
198840,note_on,120,0,8,,,,,,,,7,,,,41,92
198840,note_on,360,0,5,,,,,,,,4,,,,75,92
198840,note_on,0,0,4,,,,,,,,3,,,,77,92
198840,note_on,360,0,4,,,,,,,,3,,,,69,92
198840,note_on,120,0,7,,,,,,,,6,,,,53,92
198840,note_on,360,0,3,,,,,,,,2,,,,72,92
198840,note_on,80,0,2,,,,,,,,1,,,,65,92
198840,note_on,360,0,6,,,,,,,,5,,,,65,92
198960,note_off,120,0,7,,,,,,,,6,,,,53,64
198960,note_off,120,0,8,,,,,,,,7,,,,41,64
199240,note_off,400,0,6,,,,,,,,5,,,,65,64
199240,note_off,400,0,2,,,,,,,,1,,,,65,64
199240,note_off,0,0,4,,,,,,,,3,,,,69,64
199240,note_off,400,0,4,,,,,,,,3,,,,77,64
199240,note_off,400,0,5,,,,,,,,4,,,,75,64
199240,note_off,400,0,3,,,,,,,,2,,,,72,64
199240,note_off,400,0,1,,,,,,,,0,,,,77,64
199320,note_on,360,0,7,,,,,,,,6,,,,55,79
199320,note_on,360,0,8,,,,,,,,7,,,,43,79
199440,note_off,120,0,7,,,,,,,,6,,,,55,64
199440,note_off,120,0,8,,,,,,,,7,,,,43,64
199800,note_on,360,0,8,,,,,,,,7,,,,45,66
199800,note_on,360,0,7,,,,,,,,6,,,,57,66
199980,note_off,180,0,7,,,,,,,,6,,,,57,64
199980,note_off,180,0,8,,,,,,,,7,,,,45,64
200520,note_on,540,0,7,,,,,,,,6,,,,58,45
200520,note_on,540,0,8,,,,,,,,7,,,,46,45
200520,note_on,1280,0,4,,,,,,,,3,,,,82,45
200520,set_tempo,35160,1,0,238095,,,,,,,,,,,,
200920,note_off,400,0,8,,,,,,,,7,,,,46,64
200920,note_off,400,0,7,,,,,,,,6,,,,58,64
201115,note_off,595,0,4,,,,,,,,3,,,,82,64
201240,note_on,125,0,4,,,,,,,,3,,,,82,45
201480,note_on,2240,0,6,,,,,,,,5,,,,65,45
201480,note_on,0,0,5,,,,,,,,4,,,,70,45
201480,note_on,2240,0,5,,,,,,,,4,,,,62,45
201480,note_off,240,0,4,,,,,,,,3,,,,82,64
201480,note_on,0,0,4,,,,,,,,3,,,,84,45
201600,note_off,120,0,4,,,,,,,,3,,,,84,64
201880,note_off,0,0,5,,,,,,,,4,,,,62,64
201880,note_off,400,0,6,,,,,,,,5,,,,65,64
201880,note_off,400,0,5,,,,,,,,4,,,,70,64
201960,note_on,1040,0,7,,,,,,,,6,,,,55,45
201960,note_on,1040,0,8,,,,,,,,7,,,,43,45
201960,note_on,360,0,4,,,,,,,,3,,,,82,45
202360,note_off,400,0,8,,,,,,,,7,,,,43,64
202360,note_off,400,0,7,,,,,,,,6,,,,55,64
202555,note_off,595,0,4,,,,,,,,3,,,,82,64
202680,note_on,125,0,4,,,,,,,,3,,,,82,45
202920,note_on,0,0,5,,,,,,,,4,,,,70,45
202920,note_on,0,0,4,,,,,,,,3,,,,84,45
202920,note_off,240,0,4,,,,,,,,3,,,,82,64
202920,note_on,1040,0,6,,,,,,,,5,,,,67,45
202920,note_on,1040,0,5,,,,,,,,4,,,,62,45
203040,note_off,120,0,4,,,,,,,,3,,,,84,64
203320,note_off,400,0,6,,,,,,,,5,,,,67,64
203320,note_off,0,0,5,,,,,,,,4,,,,62,64
203320,note_off,400,0,5,,,,,,,,4,,,,70,64
203400,note_on,1040,0,8,,,,,,,,7,,,,40,45
203400,note_on,360,0,4,,,,,,,,3,,,,82,45
203400,note_on,1040,0,7,,,,,,,,6,,,,52,45
203800,note_off,400,0,7,,,,,,,,6,,,,52,64
203800,note_off,400,0,8,,,,,,,,7,,,,40,64
203995,note_off,595,0,4,,,,,,,,3,,,,82,64
204120,note_on,125,0,4,,,,,,,,3,,,,82,45
204360,note_off,240,0,4,,,,,,,,3,,,,82,64
204360,note_on,1040,0,5,,,,,,,,4,,,,67,45
204360,note_on,0,0,5,,,,,,,,4,,,,70,45
204360,note_on,1040,0,6,,,,,,,,5,,,,61,45
204360,note_on,0,0,4,,,,,,,,3,,,,84,45
204480,note_off,120,0,4,,,,,,,,3,,,,84,64
204760,note_off,0,0,5,,,,,,,,4,,,,67,64
204760,note_off,400,0,5,,,,,,,,4,,,,70,64
204760,note_off,400,0,6,,,,,,,,5,,,,61,64
204840,note_on,1040,0,7,,,,,,,,6,,,,49,45
204840,note_on,360,0,4,,,,,,,,3,,,,82,45
204840,note_on,1040,0,8,,,,,,,,7,,,,37,45
205240,note_off,400,0,7,,,,,,,,6,,,,49,64
205240,note_off,400,0,8,,,,,,,,7,,,,37,64
205435,note_off,595,0,4,,,,,,,,3,,,,82,64
205560,note_on,125,0,4,,,,,,,,3,,,,82,45
205800,note_off,240,0,4,,,,,,,,3,,,,82,64
205800,note_on,0,0,4,,,,,,,,3,,,,84,45
205800,note_on,1040,0,6,,,,,,,,5,,,,64,45
205800,note_on,1040,0,5,,,,,,,,4,,,,67,45
205800,note_on,0,0,5,,,,,,,,4,,,,70,45
205920,note_off,120,0,4,,,,,,,,3,,,,84,64
206200,note_off,400,0,6,,,,,,,,5,,,,64,64
206200,note_off,400,0,5,,,,,,,,4,,,,70,64
206200,note_off,0,0,5,,,,,,,,4,,,,67,64
206280,note_on,0,0,5,,,,,,,,4,,,,69,45
206280,note_on,1040,0,8,,,,,,,,7,,,,38,45
206280,note_on,360,0,4,,,,,,,,3,,,,81,45
206280,note_on,80,0,6,,,,,,,,5,,,,65,45
206280,note_on,1040,0,7,,,,,,,,6,,,,50,45
206280,note_on,80,0,5,,,,,,,,4,,,,62,45
206680,note_off,400,0,8,,,,,,,,7,,,,38,64
206680,note_off,400,0,7,,,,,,,,6,,,,50,64
206875,note_off,595,0,5,,,,,,,,4,,,,69,64
206875,note_off,0,0,5,,,,,,,,4,,,,62,64
206875,note_off,595,0,4,,,,,,,,3,,,,81,64
206875,note_off,595,0,6,,,,,,,,5,,,,65,64
207000,note_on,125,0,5,,,,,,,,4,,,,62,45
207000,note_on,125,0,4,,,,,,,,3,,,,81,45
207000,note_on,125,0,6,,,,,,,,5,,,,65,45
207000,note_on,0,0,5,,,,,,,,4,,,,69,45
207240,note_on,0,0,5,,,,,,,,4,,,,62,45
207240,note_on,0,0,6,,,,,,,,5,,,,67,45
207240,note_off,240,0,4,,,,,,,,3,,,,81,64
207240,note_off,240,0,5,,,,,,,,4,,,,69,64
207240,note_off,0,0,5,,,,,,,,4,,,,62,64
207240,note_on,0,0,5,,,,,,,,4,,,,70,45
207240,note_on,0,0,4,,,,,,,,3,,,,82,45
207240,note_off,240,0,6,,,,,,,,5,,,,65,64
207360,note_off,120,0,4,,,,,,,,3,,,,82,64
207360,note_off,120,0,6,,,,,,,,5,,,,67,64
207360,note_off,0,0,5,,,,,,,,4,,,,62,64
207360,note_off,120,0,5,,,,,,,,4,,,,70,64
207720,note_on,360,0,4,,,,,,,,3,,,,81,45
207720,note_on,1040,0,8,,,,,,,,7,,,,38,45
207720,note_on,360,0,6,,,,,,,,5,,,,65,45
207720,note_on,1040,0,7,,,,,,,,6,,,,50,45
207720,note_on,360,0,5,,,,,,,,4,,,,62,45
207720,note_on,0,0,5,,,,,,,,4,,,,69,45
208120,note_off,400,0,7,,,,,,,,6,,,,50,64
208120,note_off,400,0,8,,,,,,,,7,,,,38,64
208315,note_off,595,0,6,,,,,,,,5,,,,65,64
208315,note_off,0,0,5,,,,,,,,4,,,,62,64
208315,note_off,595,0,5,,,,,,,,4,,,,69,64
208315,note_off,595,0,4,,,,,,,,3,,,,81,64
208440,note_on,0,0,5,,,,,,,,4,,,,69,45
208440,note_on,125,0,5,,,,,,,,4,,,,62,45
208440,note_on,125,0,4,,,,,,,,3,,,,81,45
208440,note_on,125,0,6,,,,,,,,5,,,,65,45
208680,note_off,240,0,5,,,,,,,,4,,,,69,64
208680,note_off,240,0,4,,,,,,,,3,,,,81,64
208680,note_on,0,0,4,,,,,,,,3,,,,82,45
208680,note_on,0,0,6,,,,,,,,5,,,,67,45
208680,note_off,240,0,6,,,,,,,,5,,,,65,64
208680,note_off,0,0,5,,,,,,,,4,,,,62,64
208680,note_on,0,0,5,,,,,,,,4,,,,70,45
208680,note_on,0,0,5,,,,,,,,4,,,,62,45
208800,note_off,0,0,5,,,,,,,,4,,,,62,64
208800,note_off,120,0,5,,,,,,,,4,,,,70,64
208800,note_off,120,0,4,,,,,,,,3,,,,82,64
208800,note_off,120,0,6,,,,,,,,5,,,,67,64
209160,note_on,1040,0,8,,,,,,,,7,,,,36,45
209160,note_on,0,0,5,,,,,,,,4,,,,69,45
209160,note_on,360,0,5,,,,,,,,4,,,,60,45
209160,note_on,360,0,4,,,,,,,,3,,,,81,45
209160,note_on,1040,0,7,,,,,,,,6,,,,48,45
209160,note_on,360,0,6,,,,,,,,5,,,,65,45
209280,note_off,0,0,5,,,,,,,,4,,,,60,64
209280,note_off,120,0,5,,,,,,,,4,,,,69,64
209280,note_off,120,0,8,,,,,,,,7,,,,36,64
209280,note_off,120,0,4,,,,,,,,3,,,,81,64
209280,note_off,120,0,7,,,,,,,,6,,,,48,64
209280,note_off,120,0,6,,,,,,,,5,,,,65,64
209640,note_on,360,0,7,,,,,,,,6,,,,48,45
209640,note_on,360,0,4,,,,,,,,3,,,,81,45
209640,note_on,360,0,5,,,,,,,,4,,,,60,45
209640,note_on,0,0,5,,,,,,,,4,,,,69,45
209640,note_on,360,0,6,,,,,,,,5,,,,65,45
209640,note_on,360,0,8,,,,,,,,7,,,,36,45
209760,note_off,120,0,6,,,,,,,,5,,,,65,64
209760,note_off,120,0,4,,,,,,,,3,,,,81,64
209760,note_off,120,0,5,,,,,,,,4,,,,69,64
209760,note_off,0,0,5,,,,,,,,4,,,,60,64
209760,note_off,120,0,7,,,,,,,,6,,,,48,64
209760,note_off,120,0,8,,,,,,,,7,,,,36,64
210120,note_on,360,0,8,,,,,,,,7,,,,36,45
210120,note_on,360,0,4,,,,,,,,3,,,,79,45
210120,note_on,0,0,5,,,,,,,,4,,,,67,45
210120,note_on,360,0,6,,,,,,,,5,,,,64,45
210120,note_on,360,0,5,,,,,,,,4,,,,60,45
210120,note_on,360,0,7,,,,,,,,6,,,,48,45
210240,note_off,0,0,5,,,,,,,,4,,,,60,64
210240,note_off,120,0,5,,,,,,,,4,,,,67,64
210240,note_off,120,0,8,,,,,,,,7,,,,36,64
210240,note_off,120,0,6,,,,,,,,5,,,,64,64
210240,note_off,120,0,4,,,,,,,,3,,,,79,64
210240,note_off,120,0,7,,,,,,,,6,,,,48,64
210600,note_on,360,0,5,,,,,,,,4,,,,57,45
210600,note_on,360,0,8,,,,,,,,7,,,,41,45
210600,note_on,0,0,5,,,,,,,,4,,,,65,45
210600,note_on,360,0,6,,,,,,,,5,,,,65,45
210600,note_on,360,0,7,,,,,,,,6,,,,53,45
210600,note_on,360,0,4,,,,,,,,3,,,,77,45
210840,note_on,0,0,4,,,,,,,,3,,,,76,45
210840,note_off,240,0,4,,,,,,,,3,,,,77,64
211000,note_off,400,0,8,,,,,,,,7,,,,41,64
211000,note_off,400,0,7,,,,,,,,6,,,,53,64
211000,note_off,0,0,5,,,,,,,,4,,,,57,64
211000,note_off,400,0,6,,,,,,,,5,,,,65,64
211000,note_off,400,0,5,,,,,,,,4,,,,65,64
211080,note_off,240,0,4,,,,,,,,3,,,,76,64
211080,note_on,0,0,4,,,,,,,,3,,,,74,45
211320,note_on,0,0,4,,,,,,,,3,,,,76,45
211320,note_off,240,0,4,,,,,,,,3,,,,74,64
211560,note_off,240,0,4,,,,,,,,3,,,,76,64
211560,note_on,0,0,4,,,,,,,,3,,,,77,45
211800,note_on,0,0,4,,,,,,,,3,,,,79,45
211800,note_off,240,0,4,,,,,,,,3,,,,77,64
212040,note_on,12800,0,1,,,,,,,,0,,,,74,45
212040,note_on,0,0,4,,,,,,,,3,,,,81,45
212040,note_off,240,0,4,,,,,,,,3,,,,79,64
212040,note_on,1040,0,6,,,,,,,,5,,,,66,45
212040,note_on,1040,0,7,,,,,,,,6,,,,50,45
212040,note_on,1040,0,5,,,,,,,,4,,,,62,45
212040,note_on,1040,0,8,,,,,,,,7,,,,38,45
212040,note_on,0,0,5,,,,,,,,4,,,,69,45
212440,note_off,400,0,8,,,,,,,,7,,,,38,64
212440,note_off,400,0,7,,,,,,,,6,,,,50,64
212635,note_off,595,0,6,,,,,,,,5,,,,66,64
212635,note_off,0,0,5,,,,,,,,4,,,,62,64
212635,note_off,595,0,5,,,,,,,,4,,,,69,64
212635,note_off,595,0,4,,,,,,,,3,,,,81,64
212760,note_on,0,0,5,,,,,,,,4,,,,69,45
212760,note_on,125,0,5,,,,,,,,4,,,,62,45
212760,note_on,125,0,4,,,,,,,,3,,,,81,45
212760,note_on,125,0,6,,,,,,,,5,,,,66,45
213000,note_on,560,0,8,,,,,,,,7,,,,43,45
213000,note_on,560,0,7,,,,,,,,6,,,,55,45
213000,note_on,0,0,5,,,,,,,,4,,,,70,45
213000,note_on,0,0,6,,,,,,,,5,,,,67,45
213000,note_off,240,0,6,,,,,,,,5,,,,66,64
213000,note_on,0,0,5,,,,,,,,4,,,,62,45
213000,note_off,240,0,4,,,,,,,,3,,,,81,64
213000,note_on,0,0,4,,,,,,,,3,,,,82,45
213000,note_off,0,0,5,,,,,,,,4,,,,62,64
213000,note_off,240,0,5,,,,,,,,4,,,,69,64
213120,note_off,120,0,5,,,,,,,,4,,,,70,64
213120,note_off,0,0,5,,,,,,,,4,,,,62,64
213120,note_off,120,0,4,,,,,,,,3,,,,82,64
213120,note_off,120,0,7,,,,,,,,6,,,,55,64
213120,note_off,120,0,6,,,,,,,,5,,,,67,64
213120,note_off,120,0,8,,,,,,,,7,,,,43,64
213480,note_on,360,0,4,,,,,,,,3,,,,81,45
213480,note_on,360,0,5,,,,,,,,4,,,,62,45
213480,note_on,360,0,6,,,,,,,,5,,,,66,45
213480,note_on,0,0,5,,,,,,,,4,,,,69,45
213480,note_on,360,0,8,,,,,,,,7,,,,38,45
213480,note_on,360,0,7,,,,,,,,6,,,,50,45
213880,note_off,400,0,7,,,,,,,,6,,,,50,64
213880,note_off,400,0,8,,,,,,,,7,,,,38,64
214075,note_off,595,0,6,,,,,,,,5,,,,66,64
214075,note_off,595,0,4,,,,,,,,3,,,,81,64
214075,note_off,595,0,5,,,,,,,,4,,,,69,64
214075,note_off,0,0,5,,,,,,,,4,,,,62,64
214200,note_on,125,0,5,,,,,,,,4,,,,62,45
214200,note_on,125,0,6,,,,,,,,5,,,,66,45
214200,note_on,125,0,4,,,,,,,,3,,,,81,45
214200,note_on,0,0,5,,,,,,,,4,,,,69,45
214440,note_off,240,0,5,,,,,,,,4,,,,69,64
214440,note_off,0,0,5,,,,,,,,4,,,,62,64
214440,note_off,240,0,6,,,,,,,,5,,,,66,64
214440,note_on,0,0,5,,,,,,,,4,,,,62,45
214440,note_on,0,0,6,,,,,,,,5,,,,67,45
214440,note_on,0,0,4,,,,,,,,3,,,,82,45
214440,note_off,240,0,4,,,,,,,,3,,,,81,64
214440,note_on,560,0,8,,,,,,,,7,,,,43,45
214440,note_on,560,0,7,,,,,,,,6,,,,55,45
214440,note_on,0,0,5,,,,,,,,4,,,,70,45
214560,note_off,120,0,5,,,,,,,,4,,,,70,64
214560,note_off,0,0,5,,,,,,,,4,,,,62,64
214560,note_off,120,0,6,,,,,,,,5,,,,67,64
214560,note_off,120,0,4,,,,,,,,3,,,,82,64
214560,note_off,120,0,7,,,,,,,,6,,,,55,64
214800,note_off,2760,0,1,,,,,,,,0,,,,74,64
214840,note_off,400,0,8,,,,,,,,7,,,,43,64
214920,note_on,360,0,6,,,,,,,,5,,,,65,45
214920,note_on,80,0,8,,,,,,,,7,,,,36,45
214920,note_on,360,0,4,,,,,,,,3,,,,81,45
214920,note_on,360,0,5,,,,,,,,4,,,,60,45
214920,note_on,0,0,5,,,,,,,,4,,,,69,45
214920,note_on,360,0,7,,,,,,,,6,,,,48,45
214920,note_on,120,0,1,,,,,,,,0,,,,77,45
215040,note_off,120,0,8,,,,,,,,7,,,,36,64
215040,note_off,120,0,4,,,,,,,,3,,,,81,64
215040,note_off,120,0,7,,,,,,,,6,,,,48,64
215040,note_off,120,0,6,,,,,,,,5,,,,65,64
215040,note_off,120,0,1,,,,,,,,0,,,,77,64
215040,note_off,0,0,5,,,,,,,,4,,,,60,64
215040,note_off,120,0,5,,,,,,,,4,,,,69,64
215400,note_on,360,0,4,,,,,,,,3,,,,81,45
215400,note_on,360,0,6,,,,,,,,5,,,,65,45
215400,note_on,360,0,1,,,,,,,,0,,,,77,45
215400,note_on,360,0,8,,,,,,,,7,,,,36,45
215400,note_on,0,0,5,,,,,,,,4,,,,69,45
215400,note_on,360,0,5,,,,,,,,4,,,,60,45
215400,note_on,360,0,7,,,,,,,,6,,,,48,45
215520,note_off,0,0,5,,,,,,,,4,,,,60,64
215520,note_off,120,0,5,,,,,,,,4,,,,69,64
215520,note_off,120,0,7,,,,,,,,6,,,,48,64
215520,note_off,120,0,6,,,,,,,,5,,,,65,64
215520,note_off,120,0,1,,,,,,,,0,,,,77,64
215520,note_off,120,0,8,,,,,,,,7,,,,36,64
215520,note_off,120,0,4,,,,,,,,3,,,,81,64
215880,note_on,360,0,6,,,,,,,,5,,,,64,45
215880,note_on,360,0,4,,,,,,,,3,,,,79,45
215880,note_on,360,0,1,,,,,,,,0,,,,72,45
215880,note_on,360,0,7,,,,,,,,6,,,,48,45
215880,note_on,360,0,5,,,,,,,,4,,,,60,45
215880,note_on,0,0,5,,,,,,,,4,,,,67,45
215880,note_on,360,0,8,,,,,,,,7,,,,36,45
216000,note_off,120,0,6,,,,,,,,5,,,,64,64
216000,note_off,120,0,5,,,,,,,,4,,,,67,64
216000,note_off,120,0,7,,,,,,,,6,,,,48,64
216000,note_off,120,0,4,,,,,,,,3,,,,79,64
216000,note_off,120,0,1,,,,,,,,0,,,,72,64
216000,note_off,120,0,8,,,,,,,,7,,,,36,64
216000,note_off,0,0,5,,,,,,,,4,,,,60,64
216360,note_on,360,0,6,,,,,,,,5,,,,65,45
216360,note_on,360,0,1,,,,,,,,0,,,,69,45
216360,note_on,360,0,5,,,,,,,,4,,,,57,45
216360,note_on,360,0,7,,,,,,,,6,,,,53,45
216360,note_on,360,0,8,,,,,,,,7,,,,41,45
216360,note_on,360,0,4,,,,,,,,3,,,,77,45
216360,note_on,0,0,5,,,,,,,,4,,,,65,45
216760,note_off,400,0,6,,,,,,,,5,,,,65,64
216760,note_off,0,0,5,,,,,,,,4,,,,57,64
216760,note_off,400,0,7,,,,,,,,6,,,,53,64
216760,note_off,400,0,5,,,,,,,,4,,,,65,64
216760,note_off,400,0,1,,,,,,,,0,,,,69,64
216760,note_off,400,0,8,,,,,,,,7,,,,41,64
216760,note_off,400,0,4,,,,,,,,3,,,,77,64
216900,note_on,140,0,8,,,,,,,,7,,,,43,92
216900,note_on,17660,0,2,,,,,,,,1,,,,55,92
216900,program_change,140,0,6,,,,,,,,5,,,50,,
216900,note_on,140,0,5,,,,,,,,4,,,,67,92
216900,set_tempo,16380,1,0,229007,,,,,,,,,,,,
216900,note_on,140,0,4,,,,,,,,3,,,,79,92
216900,note_on,140,0,1,,,,,,,,0,,,,67,92
216900,note_on,0,0,6,,,,,,,,5,,,,67,92
216900,note_on,140,0,7,,,,,,,,6,,,,55,92
217140,note_on,0,0,1,,,,,,,,0,,,,69,92
217140,note_off,240,0,1,,,,,,,,0,,,,67,64
217140,note_off,240,0,7,,,,,,,,6,,,,55,64
217140,note_off,240,0,2,,,,,,,,1,,,,55,64
217140,note_off,240,0,4,,,,,,,,3,,,,79,64
217140,note_on,0,0,5,,,,,,,,4,,,,69,92
217140,note_off,240,0,8,,,,,,,,7,,,,43,64
217140,note_on,0,0,8,,,,,,,,7,,,,45,92
217140,note_off,240,0,5,,,,,,,,4,,,,67,64
217140,note_on,0,0,7,,,,,,,,6,,,,57,92
217140,note_on,0,0,2,,,,,,,,1,,,,57,92
217140,note_off,240,0,6,,,,,,,,5,,,,67,64
217140,note_on,0,0,4,,,,,,,,3,,,,81,92
217140,note_on,0,0,6,,,,,,,,5,,,,69,92
217380,note_off,240,0,5,,,,,,,,4,,,,69,64
217380,note_off,240,0,6,,,,,,,,5,,,,69,64
217380,note_on,0,0,6,,,,,,,,5,,,,71,92
217380,note_off,240,0,7,,,,,,,,6,,,,57,64
217380,note_on,0,0,7,,,,,,,,6,,,,59,92
217380,note_on,0,0,1,,,,,,,,0,,,,71,92
217380,note_off,240,0,1,,,,,,,,0,,,,69,64
217380,note_on,0,0,5,,,,,,,,4,,,,71,92
217380,note_on,0,0,4,,,,,,,,3,,,,83,92
217380,note_off,240,0,4,,,,,,,,3,,,,81,64
217380,note_off,240,0,8,,,,,,,,7,,,,45,64
217380,note_on,0,0,8,,,,,,,,7,,,,47,92
217380,note_on,0,0,2,,,,,,,,1,,,,59,92
217380,note_off,240,0,2,,,,,,,,1,,,,57,64
217620,note_off,240,0,5,,,,,,,,4,,,,71,64
217620,note_off,240,0,4,,,,,,,,3,,,,83,64
217620,note_on,0,0,4,,,,,,,,3,,,,84,92
217620,note_on,0,0,5,,,,,,,,4,,,,72,92
217620,note_on,0,0,7,,,,,,,,6,,,,60,92
217620,note_off,240,0,7,,,,,,,,6,,,,59,64
217620,note_off,240,0,6,,,,,,,,5,,,,71,64
217620,note_on,0,0,1,,,,,,,,0,,,,72,92
217620,note_on,0,0,2,,,,,,,,1,,,,60,92
217620,note_off,240,0,8,,,,,,,,7,,,,47,64
217620,note_on,0,0,8,,,,,,,,7,,,,48,92
217620,note_off,240,0,2,,,,,,,,1,,,,59,64
217620,note_off,240,0,1,,,,,,,,0,,,,71,64
217620,note_on,0,0,6,,,,,,,,5,,,,72,92
217860,note_on,0,0,1,,,,,,,,0,,,,71,92
217860,note_off,240,0,4,,,,,,,,3,,,,84,64
217860,note_off,240,0,1,,,,,,,,0,,,,72,64
217860,note_on,0,0,5,,,,,,,,4,,,,71,92
217860,note_off,240,0,5,,,,,,,,4,,,,72,64
217860,note_on,0,0,6,,,,,,,,5,,,,71,92
217860,note_on,0,0,4,,,,,,,,3,,,,83,92
217860,note_on,0,0,7,,,,,,,,6,,,,59,92
217860,note_on,0,0,2,,,,,,,,1,,,,59,92
217860,note_off,240,0,2,,,,,,,,1,,,,60,64
217860,note_off,240,0,8,,,,,,,,7,,,,48,64
217860,note_on,0,0,8,,,,,,,,7,,,,47,92
217860,note_off,240,0,6,,,,,,,,5,,,,72,64
217860,note_off,240,0,7,,,,,,,,6,,,,60,64
218260,note_off,400,0,2,,,,,,,,1,,,,59,64
218260,note_off,400,0,1,,,,,,,,0,,,,71,64
218365,note_off,505,0,4,,,,,,,,3,,,,83,64
218365,note_off,505,0,5,,,,,,,,4,,,,71,64
218365,note_off,505,0,7,,,,,,,,6,,,,59,64
218365,note_off,505,0,8,,,,,,,,7,,,,47,64
218365,note_off,505,0,6,,,,,,,,5,,,,71,64
218580,note_on,215,0,7,,,,,,,,6,,,,59,92
218580,note_on,215,0,4,,,,,,,,3,,,,83,92
218580,note_on,215,0,6,,,,,,,,5,,,,71,92
218580,note_on,215,0,8,,,,,,,,7,,,,47,92
218580,note_on,215,0,5,,,,,,,,4,,,,71,92
218820,note_on,0,0,6,,,,,,,,5,,,,74,92
218820,note_off,240,0,6,,,,,,,,5,,,,71,64
218820,note_on,0,0,4,,,,,,,,3,,,,86,92
218820,note_off,240,0,7,,,,,,,,6,,,,59,64
218820,note_on,0,0,7,,,,,,,,6,,,,62,92
218820,note_off,240,0,5,,,,,,,,4,,,,71,64
218820,note_off,240,0,8,,,,,,,,7,,,,47,64
218820,note_on,0,0,5,,,,,,,,4,,,,74,92
218820,note_on,0,0,8,,,,,,,,7,,,,50,92
218820,note_off,240,0,4,,,,,,,,3,,,,83,64
218940,note_off,120,0,4,,,,,,,,3,,,,86,64
218940,note_off,120,0,7,,,,,,,,6,,,,62,64
218940,note_off,120,0,5,,,,,,,,4,,,,74,64
218940,note_off,120,0,6,,,,,,,,5,,,,74,64
218940,note_off,120,0,8,,,,,,,,7,,,,50,64
219300,note_on,1040,0,2,,,,,,,,1,,,,59,92
219300,note_on,1040,0,1,,,,,,,,0,,,,71,92
219300,note_on,360,0,6,,,,,,,,5,,,,71,92
219300,note_on,360,0,7,,,,,,,,6,,,,59,92
219300,note_on,360,0,4,,,,,,,,3,,,,83,92
219300,note_on,360,0,5,,,,,,,,4,,,,71,92
219300,note_on,360,0,8,,,,,,,,7,,,,47,92
219700,note_off,400,0,2,,,,,,,,1,,,,59,64
219700,note_off,400,0,1,,,,,,,,0,,,,71,64
219805,note_off,505,0,6,,,,,,,,5,,,,71,64
219805,note_off,505,0,4,,,,,,,,3,,,,83,64
219805,note_off,505,0,7,,,,,,,,6,,,,59,64
219805,note_off,505,0,8,,,,,,,,7,,,,47,64
219805,note_off,505,0,5,,,,,,,,4,,,,71,64
220020,note_on,215,0,5,,,,,,,,4,,,,71,92
220020,note_on,215,0,6,,,,,,,,5,,,,71,92
220020,note_on,215,0,4,,,,,,,,3,,,,83,92
220020,note_on,215,0,8,,,,,,,,7,,,,47,92
220020,note_on,215,0,7,,,,,,,,6,,,,59,92
220260,note_on,0,0,8,,,,,,,,7,,,,50,92
220260,note_off,240,0,8,,,,,,,,7,,,,47,64
220260,note_on,0,0,5,,,,,,,,4,,,,74,92
220260,note_off,240,0,4,,,,,,,,3,,,,83,64
220260,note_off,240,0,6,,,,,,,,5,,,,71,64
220260,note_off,240,0,7,,,,,,,,6,,,,59,64
220260,note_on,0,0,6,,,,,,,,5,,,,74,92
220260,note_on,0,0,4,,,,,,,,3,,,,86,92
220260,note_on,0,0,7,,,,,,,,6,,,,62,92
220260,note_off,240,0,5,,,,,,,,4,,,,71,64
220380,note_off,120,0,8,,,,,,,,7,,,,50,64
220380,note_off,120,0,5,,,,,,,,4,,,,74,64
220380,note_off,120,0,7,,,,,,,,6,,,,62,64
220380,note_off,120,0,6,,,,,,,,5,,,,74,64
220380,note_off,120,0,4,,,,,,,,3,,,,86,64
220740,note_on,360,0,5,,,,,,,,4,,,,67,92
220740,note_on,1040,0,1,,,,,,,,0,,,,79,92
220740,note_on,360,0,8,,,,,,,,7,,,,43,92
220740,note_on,360,0,7,,,,,,,,6,,,,55,92
220740,note_on,360,0,4,,,,,,,,3,,,,79,92
220740,note_on,1040,0,2,,,,,,,,1,,,,55,92
220740,note_on,360,0,6,,,,,,,,5,,,,67,92
221140,note_off,400,0,1,,,,,,,,0,,,,79,64
221140,note_off,400,0,2,,,,,,,,1,,,,55,64
221245,note_off,505,0,8,,,,,,,,7,,,,43,64
221245,note_off,505,0,6,,,,,,,,5,,,,67,64
221245,note_off,505,0,5,,,,,,,,4,,,,67,64
221245,note_off,505,0,7,,,,,,,,6,,,,55,64
221245,note_off,505,0,4,,,,,,,,3,,,,79,64
221460,note_on,215,0,5,,,,,,,,4,,,,67,92
221460,note_on,215,0,7,,,,,,,,6,,,,55,92
221460,note_on,215,0,8,,,,,,,,7,,,,43,92
221460,note_on,215,0,4,,,,,,,,3,,,,79,92
221460,note_on,215,0,6,,,,,,,,5,,,,67,92
221700,note_off,240,0,8,,,,,,,,7,,,,43,64
221700,note_on,0,0,8,,,,,,,,7,,,,46,92
221700,note_on,0,0,5,,,,,,,,4,,,,70,92
221700,note_on,0,0,6,,,,,,,,5,,,,70,92
221700,note_off,240,0,6,,,,,,,,5,,,,67,64
221700,note_off,240,0,5,,,,,,,,4,,,,67,64
221700,note_off,240,0,7,,,,,,,,6,,,,55,64
221700,note_on,0,0,7,,,,,,,,6,,,,58,92
221700,note_off,240,0,4,,,,,,,,3,,,,79,64
221700,note_on,0,0,4,,,,,,,,3,,,,82,92
221820,note_off,120,0,5,,,,,,,,4,,,,70,64
221820,note_off,120,0,8,,,,,,,,7,,,,46,64
221820,note_off,120,0,4,,,,,,,,3,,,,82,64
221820,note_off,120,0,7,,,,,,,,6,,,,58,64
221820,note_off,120,0,6,,,,,,,,5,,,,70,64
222180,note_on,360,0,6,,,,,,,,5,,,,64,92
222180,note_on,1040,0,1,,,,,,,,0,,,,76,92
222180,note_on,360,0,8,,,,,,,,7,,,,40,92
222180,note_on,360,0,4,,,,,,,,3,,,,76,92
222180,note_on,1040,0,2,,,,,,,,1,,,,52,92
222180,note_on,360,0,7,,,,,,,,6,,,,52,92
222180,note_on,360,0,5,,,,,,,,4,,,,64,92
222580,note_off,400,0,2,,,,,,,,1,,,,52,64
222580,note_off,400,0,1,,,,,,,,0,,,,76,64
222685,note_off,505,0,8,,,,,,,,7,,,,40,64
222685,note_off,505,0,4,,,,,,,,3,,,,76,64
222685,note_off,505,0,5,,,,,,,,4,,,,64,64
222685,note_off,505,0,7,,,,,,,,6,,,,52,64
222685,note_off,505,0,6,,,,,,,,5,,,,64,64
222900,note_on,215,0,6,,,,,,,,5,,,,64,92
222900,note_on,215,0,5,,,,,,,,4,,,,64,92
222900,note_on,215,0,4,,,,,,,,3,,,,76,92
222900,note_on,215,0,7,,,,,,,,6,,,,52,92
222900,note_on,215,0,8,,,,,,,,7,,,,40,92
223140,note_off,240,0,5,,,,,,,,4,,,,64,64
223140,note_on,0,0,5,,,,,,,,4,,,,67,92
223140,note_off,240,0,7,,,,,,,,6,,,,52,64
223140,note_off,240,0,6,,,,,,,,5,,,,64,64
223140,note_off,240,0,4,,,,,,,,3,,,,76,64
223140,note_on,0,0,4,,,,,,,,3,,,,79,92
223140,note_off,240,0,8,,,,,,,,7,,,,40,64
223140,note_on,0,0,8,,,,,,,,7,,,,43,92
223140,note_on,0,0,6,,,,,,,,5,,,,67,92
223140,note_on,0,0,7,,,,,,,,6,,,,55,92
223260,note_off,120,0,5,,,,,,,,4,,,,67,64
223260,note_off,120,0,6,,,,,,,,5,,,,67,64
223260,note_off,120,0,4,,,,,,,,3,,,,79,64
223260,note_off,120,0,8,,,,,,,,7,,,,43,64
223260,note_off,120,0,7,,,,,,,,6,,,,55,64
223620,note_on,360,0,8,,,,,,,,7,,,,36,92
223620,note_on,1040,0,1,,,,,,,,0,,,,72,92
223620,note_on,360,0,7,,,,,,,,6,,,,48,92
223620,note_on,360,0,5,,,,,,,,4,,,,60,92
223620,note_on,1040,0,2,,,,,,,,1,,,,48,92
223620,note_on,360,0,4,,,,,,,,3,,,,72,92
223620,note_on,360,0,6,,,,,,,,5,,,,60,92
224020,note_off,400,0,6,,,,,,,,5,,,,60,64
224020,note_off,400,0,5,,,,,,,,4,,,,60,64
224020,note_off,400,0,2,,,,,,,,1,,,,48,64
224020,note_off,400,0,1,,,,,,,,0,,,,72,64
224020,note_off,400,0,4,,,,,,,,3,,,,72,64
224100,note_on,80,0,6,,,,,,,,5,,,,62,92
224100,note_on,80,0,5,,,,,,,,4,,,,62,92
224100,note_on,80,0,1,,,,,,,,0,,,,74,92
224100,note_on,80,0,4,,,,,,,,3,,,,74,92
224340,note_on,0,0,1,,,,,,,,0,,,,76,92
224340,note_on,0,0,5,,,,,,,,4,,,,64,92
224340,note_off,240,0,4,,,,,,,,3,,,,74,64
224340,note_on,0,0,4,,,,,,,,3,,,,76,92
224340,note_off,240,0,1,,,,,,,,0,,,,74,64
224340,note_on,0,0,6,,,,,,,,5,,,,64,92
224340,note_off,240,0,6,,,,,,,,5,,,,62,64
224340,note_off,240,0,5,,,,,,,,4,,,,62,64
224460,note_off,840,0,7,,,,,,,,6,,,,48,64
224460,note_off,840,0,8,,,,,,,,7,,,,36,64
224580,note_on,120,0,7,,,,,,,,6,,,,46,92
224580,note_on,0,0,6,,,,,,,,5,,,,65,92
224580,note_off,240,0,6,,,,,,,,5,,,,64,64
224580,note_on,0,0,4,,,,,,,,3,,,,77,92
224580,note_on,120,0,8,,,,,,,,7,,,,34,92
224580,note_off,240,0,5,,,,,,,,4,,,,64,64
224580,note_on,0,0,5,,,,,,,,4,,,,65,92
224580,note_on,0,0,1,,,,,,,,0,,,,77,92
224580,note_off,240,0,1,,,,,,,,0,,,,76,64
224580,note_off,240,0,4,,,,,,,,3,,,,76,64
224820,note_on,0,0,4,,,,,,,,3,,,,79,92
224820,note_on,0,0,5,,,,,,,,4,,,,67,92
224820,note_off,240,0,6,,,,,,,,5,,,,65,64
224820,note_on,0,0,6,,,,,,,,5,,,,67,92
224820,note_off,240,0,5,,,,,,,,4,,,,65,64
224820,note_off,240,0,1,,,,,,,,0,,,,77,64
224820,note_on,0,0,1,,,,,,,,0,,,,79,92
224820,note_off,240,0,4,,,,,,,,3,,,,77,64
224980,note_off,400,0,7,,,,,,,,6,,,,46,64
224980,note_off,400,0,8,,,,,,,,7,,,,34,64
225060,note_on,0,0,6,,,,,,,,5,,,,69,92
225060,program_change,0,0,6,,,,,,,,5,,,48,,
225060,note_off,240,0,6,,,,,,,,5,,,,67,64
225060,note_on,1040,0,2,,,,,,,,1,,,,60,92
225060,note_on,80,0,7,,,,,,,,6,,,,45,92
225060,note_on,0,0,4,,,,,,,,3,,,,72,92
225060,note_on,0,0,4,,,,,,,,3,,,,81,92
225060,note_off,240,0,5,,,,,,,,4,,,,67,64
225060,note_on,0,0,5,,,,,,,,4,,,,69,92
225060,note_on,0,0,5,,,,,,,,4,,,,77,92
225060,note_on,25820,0,3,,,,,,,,2,,,,65,92
225060,note_off,240,0,1,,,,,,,,0,,,,79,64
225060,note_on,0,0,1,,,,,,,,0,,,,81,92
225060,note_on,80,0,8,,,,,,,,7,,,,33,92
225060,note_off,240,0,4,,,,,,,,3,,,,79,64
225900,note_off,840,0,4,,,,,,,,3,,,,81,64
225900,note_off,840,0,3,,,,,,,,2,,,,65,64
225900,note_off,840,0,7,,,,,,,,6,,,,45,64
225900,note_off,840,0,8,,,,,,,,7,,,,33,64
225900,note_off,0,0,4,,,,,,,,3,,,,72,64
225900,note_off,840,0,2,,,,,,,,1,,,,60,64
225900,note_off,0,0,5,,,,,,,,4,,,,69,64
225900,note_off,840,0,6,,,,,,,,5,,,,69,64
225900,note_off,840,0,1,,,,,,,,0,,,,81,64
225900,note_off,840,0,5,,,,,,,,4,,,,77,64
226020,note_on,120,0,7,,,,,,,,6,,,,46,92
226020,note_on,120,0,5,,,,,,,,4,,,,74,92
226020,note_on,120,0,1,,,,,,,,0,,,,79,92
226020,note_on,120,0,3,,,,,,,,2,,,,62,92
226020,note_on,120,0,2,,,,,,,,1,,,,58,92
226020,note_on,120,0,4,,,,,,,,3,,,,70,92
226020,note_on,0,0,4,,,,,,,,3,,,,79,92
226020,note_on,120,0,8,,,,,,,,7,,,,34,92
226020,note_on,120,0,6,,,,,,,,5,,,,67,92
226420,note_off,400,0,5,,,,,,,,4,,,,74,64
226420,note_off,400,0,1,,,,,,,,0,,,,79,64
226420,note_off,400,0,8,,,,,,,,7,,,,34,64
226420,note_off,0,0,4,,,,,,,,3,,,,70,64
226420,note_off,400,0,3,,,,,,,,2,,,,62,64
226420,note_off,400,0,2,,,,,,,,1,,,,58,64
226420,note_off,400,0,6,,,,,,,,5,,,,67,64
226420,note_off,400,0,4,,,,,,,,3,,,,79,64
226420,note_off,400,0,7,,,,,,,,6,,,,46,64
226500,note_on,80,0,3,,,,,,,,2,,,,60,92
226500,note_on,80,0,8,,,,,,,,7,,,,36,92
226500,note_on,80,0,2,,,,,,,,1,,,,57,92
226500,note_on,80,0,4,,,,,,,,3,,,,69,92
226500,note_on,0,0,4,,,,,,,,3,,,,77,92
226500,note_on,80,0,1,,,,,,,,0,,,,77,92
226500,note_on,80,0,5,,,,,,,,4,,,,72,92
226500,note_on,80,0,6,,,,,,,,5,,,,65,92
226500,note_on,80,0,7,,,,,,,,6,,,,48,92
227095,note_off,595,0,8,,,,,,,,7,,,,36,64
227095,note_off,595,0,7,,,,,,,,6,,,,48,64
227095,note_off,595,0,6,,,,,,,,5,,,,65,64
227095,note_off,595,0,5,,,,,,,,4,,,,72,64
227095,note_off,595,0,1,,,,,,,,0,,,,77,64
227095,note_off,595,0,3,,,,,,,,2,,,,60,64
227095,note_off,595,0,2,,,,,,,,1,,,,57,64
227095,note_off,0,0,4,,,,,,,,3,,,,69,64
227095,note_off,595,0,4,,,,,,,,3,,,,77,64
227220,note_on,125,0,5,,,,,,,,4,,,,72,92
227220,note_on,125,0,8,,,,,,,,7,,,,36,92
227220,note_on,125,0,1,,,,,,,,0,,,,77,92
227220,note_on,125,0,3,,,,,,,,2,,,,60,92
227220,note_on,125,0,4,,,,,,,,3,,,,69,92
227220,note_on,0,0,4,,,,,,,,3,,,,77,92
227220,note_on,125,0,2,,,,,,,,1,,,,57,92
227220,note_on,125,0,6,,,,,,,,5,,,,65,92
227220,note_on,125,0,7,,,,,,,,6,,,,48,92
227460,note_off,240,0,8,,,,,,,,7,,,,36,64
227460,note_on,0,0,2,,,,,,,,1,,,,55,92
227460,note_off,240,0,6,,,,,,,,5,,,,65,64
227460,note_on,0,0,4,,,,,,,,3,,,,76,92
227460,note_on,0,0,8,,,,,,,,7,,,,36,92
227460,note_on,0,0,4,,,,,,,,3,,,,67,92
227460,note_off,240,0,4,,,,,,,,3,,,,77,64
227460,note_on,0,0,6,,,,,,,,5,,,,64,92
227460,note_off,0,0,4,,,,,,,,3,,,,69,64
227460,note_off,240,0,2,,,,,,,,1,,,,57,64
227460,note_on,0,0,7,,,,,,,,6,,,,48,92
227460,note_on,0,0,1,,,,,,,,0,,,,76,92
227460,note_off,240,0,1,,,,,,,,0,,,,77,64
227460,note_on,0,0,3,,,,,,,,2,,,,60,92
227460,note_off,240,0,3,,,,,,,,2,,,,60,64
227460,note_off,240,0,7,,,,,,,,6,,,,48,64
227460,note_on,0,0,5,,,,,,,,4,,,,72,92
227460,note_off,240,0,5,,,,,,,,4,,,,72,64
227580,note_off,120,0,5,,,,,,,,4,,,,72,64
227580,note_off,120,0,3,,,,,,,,2,,,,60,64
227580,note_off,120,0,2,,,,,,,,1,,,,55,64
227580,note_off,0,0,4,,,,,,,,3,,,,67,64
227580,note_off,120,0,4,,,,,,,,3,,,,76,64
227580,note_off,120,0,8,,,,,,,,7,,,,36,64
227580,note_off,120,0,1,,,,,,,,0,,,,76,64
227580,note_off,120,0,7,,,,,,,,6,,,,48,64
227580,note_off,120,0,6,,,,,,,,5,,,,64,64
227940,note_on,360,0,3,,,,,,,,2,,,,60,92
227940,note_on,360,0,5,,,,,,,,4,,,,72,92
227940,note_on,360,0,6,,,,,,,,5,,,,65,92
227940,note_on,360,0,2,,,,,,,,1,,,,57,92
227940,note_on,360,0,1,,,,,,,,0,,,,77,92
227940,note_on,360,0,8,,,,,,,,7,,,,41,92
227940,note_on,360,0,7,,,,,,,,6,,,,53,92
227940,note_on,360,0,4,,,,,,,,3,,,,69,92
227940,note_on,0,0,4,,,,,,,,3,,,,77,92
228060,note_off,0,0,4,,,,,,,,3,,,,69,64
228060,note_off,120,0,5,,,,,,,,4,,,,72,64
228060,note_off,120,0,4,,,,,,,,3,,,,77,64
228060,note_off,120,0,8,,,,,,,,7,,,,41,64
228060,note_off,120,0,1,,,,,,,,0,,,,77,64
228060,note_off,120,0,7,,,,,,,,6,,,,53,64
228060,note_off,120,0,2,,,,,,,,1,,,,57,64
228060,note_off,120,0,6,,,,,,,,5,,,,65,64
228340,note_off,400,0,3,,,,,,,,2,,,,60,64
228480,note_on,420,0,6,,,,,,,,5,,,,67,92
228480,note_on,420,0,2,,,,,,,,1,,,,55,92
228480,note_on,420,0,4,,,,,,,,3,,,,79,92
228480,note_on,420,0,1,,,,,,,,0,,,,67,92
228480,note_on,420,0,8,,,,,,,,7,,,,43,92
228480,note_on,420,0,5,,,,,,,,4,,,,67,92
228480,note_on,420,0,7,,,,,,,,6,,,,55,92
228720,note_off,240,0,7,,,,,,,,6,,,,55,64
228720,note_on,0,0,7,,,,,,,,6,,,,57,92
228720,note_on,0,0,4,,,,,,,,3,,,,81,92
228720,note_on,0,0,6,,,,,,,,5,,,,69,92
228720,note_off,240,0,2,,,,,,,,1,,,,55,64
228720,note_on,0,0,2,,,,,,,,1,,,,57,92
228720,note_on,0,0,8,,,,,,,,7,,,,45,92
228720,note_on,0,0,1,,,,,,,,0,,,,69,92
228720,note_off,240,0,1,,,,,,,,0,,,,67,64
228720,note_off,240,0,5,,,,,,,,4,,,,67,64
228720,note_off,240,0,8,,,,,,,,7,,,,43,64
228720,note_off,240,0,6,,,,,,,,5,,,,67,64
228720,note_off,240,0,4,,,,,,,,3,,,,79,64
228720,note_on,0,0,5,,,,,,,,4,,,,69,92
228960,note_on,0,0,5,,,,,,,,4,,,,71,92
228960,note_off,240,0,1,,,,,,,,0,,,,69,64
228960,note_on,0,0,4,,,,,,,,3,,,,83,92
228960,note_on,0,0,2,,,,,,,,1,,,,59,92
228960,note_off,240,0,2,,,,,,,,1,,,,57,64
228960,note_on,0,0,1,,,,,,,,0,,,,71,92
228960,note_off,240,0,6,,,,,,,,5,,,,69,64
228960,note_on,0,0,8,,,,,,,,7,,,,47,92
228960,note_off,240,0,8,,,,,,,,7,,,,45,64
228960,note_off,240,0,5,,,,,,,,4,,,,69,64
228960,note_on,0,0,6,,,,,,,,5,,,,71,92
228960,note_off,240,0,4,,,,,,,,3,,,,81,64
228960,note_off,240,0,7,,,,,,,,6,,,,57,64
228960,note_on,0,0,7,,,,,,,,6,,,,59,92
229200,note_off,240,0,8,,,,,,,,7,,,,47,64
229200,note_off,240,0,4,,,,,,,,3,,,,83,64
229200,note_on,0,0,6,,,,,,,,5,,,,72,92
229200,note_off,240,0,6,,,,,,,,5,,,,71,64
229200,note_off,240,0,7,,,,,,,,6,,,,59,64
229200,note_on,0,0,7,,,,,,,,6,,,,60,92
229200,note_on,0,0,4,,,,,,,,3,,,,84,92
229200,note_on,0,0,5,,,,,,,,4,,,,72,92
229200,note_off,240,0,5,,,,,,,,4,,,,71,64
229200,note_on,0,0,8,,,,,,,,7,,,,48,92
229200,note_on,0,0,2,,,,,,,,1,,,,60,92
229200,note_off,240,0,2,,,,,,,,1,,,,59,64
229200,note_on,0,0,1,,,,,,,,0,,,,72,92
229200,note_off,240,0,1,,,,,,,,0,,,,71,64
229440,note_on,0,0,8,,,,,,,,7,,,,47,92
229440,note_on,0,0,2,,,,,,,,1,,,,59,92
229440,note_on,0,0,5,,,,,,,,4,,,,71,92
229440,note_on,0,0,7,,,,,,,,6,,,,59,92
229440,note_off,240,0,7,,,,,,,,6,,,,60,64
229440,note_off,240,0,2,,,,,,,,1,,,,60,64
229440,note_on,0,0,1,,,,,,,,0,,,,71,92
229440,note_off,240,0,1,,,,,,,,0,,,,72,64
229440,note_off,240,0,6,,,,,,,,5,,,,72,64
229440,note_off,240,0,8,,,,,,,,7,,,,48,64
229440,note_on,0,0,6,,,,,,,,5,,,,71,92
229440,note_off,240,0,5,,,,,,,,4,,,,72,64
229440,note_off,240,0,4,,,,,,,,3,,,,84,64
229440,note_on,0,0,4,,,,,,,,3,,,,83,92
229840,note_off,400,0,2,,,,,,,,1,,,,59,64
229840,note_off,400,0,1,,,,,,,,0,,,,71,64
229945,note_off,505,0,6,,,,,,,,5,,,,71,64
229945,note_off,505,0,5,,,,,,,,4,,,,71,64
229945,note_off,505,0,8,,,,,,,,7,,,,47,64
229945,note_off,505,0,7,,,,,,,,6,,,,59,64
229945,note_off,505,0,4,,,,,,,,3,,,,83,64
230160,note_on,215,0,8,,,,,,,,7,,,,47,92
230160,note_on,215,0,7,,,,,,,,6,,,,59,92
230160,note_on,215,0,4,,,,,,,,3,,,,83,92
230160,note_on,215,0,6,,,,,,,,5,,,,71,92
230160,note_on,215,0,5,,,,,,,,4,,,,71,92
230400,note_off,240,0,4,,,,,,,,3,,,,83,64
230400,note_off,240,0,7,,,,,,,,6,,,,59,64
230400,note_on,0,0,7,,,,,,,,6,,,,62,92
230400,note_on,0,0,5,,,,,,,,4,,,,74,92
230400,note_off,240,0,6,,,,,,,,5,,,,71,64
230400,note_on,0,0,4,,,,,,,,3,,,,86,92
230400,note_off,240,0,8,,,,,,,,7,,,,47,64
230400,note_on,0,0,8,,,,,,,,7,,,,50,92
230400,note_on,0,0,6,,,,,,,,5,,,,74,92
230400,note_off,240,0,5,,,,,,,,4,,,,71,64
230520,note_off,120,0,5,,,,,,,,4,,,,74,64
230520,note_off,120,0,8,,,,,,,,7,,,,50,64
230520,note_off,120,0,7,,,,,,,,6,,,,62,64
230520,note_off,120,0,6,,,,,,,,5,,,,74,64
230520,note_off,120,0,4,,,,,,,,3,,,,86,64
230880,note_on,360,0,5,,,,,,,,4,,,,71,92
230880,note_on,360,0,7,,,,,,,,6,,,,59,92
230880,note_on,360,0,6,,,,,,,,5,,,,71,92
230880,note_on,360,0,8,,,,,,,,7,,,,47,92
230880,note_on,360,0,4,,,,,,,,3,,,,83,92
230880,note_on,1040,0,2,,,,,,,,1,,,,59,92
230880,note_on,1040,0,1,,,,,,,,0,,,,71,92
231280,note_off,400,0,2,,,,,,,,1,,,,59,64
231280,note_off,400,0,1,,,,,,,,0,,,,71,64
231385,note_off,505,0,7,,,,,,,,6,,,,59,64
231385,note_off,505,0,5,,,,,,,,4,,,,71,64
231385,note_off,505,0,8,,,,,,,,7,,,,47,64
231385,note_off,505,0,4,,,,,,,,3,,,,83,64
231385,note_off,505,0,6,,,,,,,,5,,,,71,64
231600,note_on,215,0,7,,,,,,,,6,,,,59,92
231600,note_on,215,0,5,,,,,,,,4,,,,71,92
231600,note_on,215,0,8,,,,,,,,7,,,,47,92
231600,note_on,215,0,6,,,,,,,,5,,,,71,92
231600,note_on,215,0,4,,,,,,,,3,,,,83,92
231840,note_off,240,0,6,,,,,,,,5,,,,71,64
231840,note_on,0,0,6,,,,,,,,5,,,,74,92
231840,note_on,0,0,5,,,,,,,,4,,,,74,92
231840,note_off,240,0,5,,,,,,,,4,,,,71,64
231840,note_off,240,0,4,,,,,,,,3,,,,83,64
231840,note_on,0,0,8,,,,,,,,7,,,,50,92
231840,note_on,0,0,4,,,,,,,,3,,,,86,92
231840,note_off,240,0,8,,,,,,,,7,,,,47,64
231840,note_off,240,0,7,,,,,,,,6,,,,59,64
231840,note_on,0,0,7,,,,,,,,6,,,,62,92
231960,note_off,120,0,7,,,,,,,,6,,,,62,64
231960,note_off,120,0,4,,,,,,,,3,,,,86,64
231960,note_off,120,0,8,,,,,,,,7,,,,50,64
231960,note_off,120,0,6,,,,,,,,5,,,,74,64
231960,note_off,120,0,5,,,,,,,,4,,,,74,64
232320,note_on,360,0,4,,,,,,,,3,,,,79,92
232320,note_on,1040,0,2,,,,,,,,1,,,,55,92
232320,note_on,1040,0,1,,,,,,,,0,,,,79,92
232320,note_on,360,0,7,,,,,,,,6,,,,55,92
232320,note_on,360,0,8,,,,,,,,7,,,,43,92
232320,note_on,360,0,6,,,,,,,,5,,,,67,92
232320,note_on,360,0,5,,,,,,,,4,,,,67,92
232720,note_off,400,0,2,,,,,,,,1,,,,55,64
232720,note_off,400,0,1,,,,,,,,0,,,,79,64
232825,note_off,505,0,5,,,,,,,,4,,,,67,64
232825,note_off,505,0,4,,,,,,,,3,,,,79,64
232825,note_off,505,0,8,,,,,,,,7,,,,43,64
232825,note_off,505,0,6,,,,,,,,5,,,,67,64
232825,note_off,505,0,7,,,,,,,,6,,,,55,64
233040,note_on,215,0,5,,,,,,,,4,,,,67,92
233040,note_on,215,0,8,,,,,,,,7,,,,43,92
233040,note_on,215,0,6,,,,,,,,5,,,,67,92
233040,note_on,215,0,4,,,,,,,,3,,,,79,92
233040,note_on,215,0,7,,,,,,,,6,,,,55,92
233280,note_on,0,0,7,,,,,,,,6,,,,58,92
233280,note_off,240,0,5,,,,,,,,4,,,,67,64
233280,note_off,240,0,7,,,,,,,,6,,,,55,64
233280,note_on,0,0,4,,,,,,,,3,,,,82,92
233280,note_off,240,0,4,,,,,,,,3,,,,79,64
233280,note_off,240,0,6,,,,,,,,5,,,,67,64
233280,note_off,240,0,8,,,,,,,,7,,,,43,64
233280,note_on,0,0,8,,,,,,,,7,,,,46,92
233280,note_on,0,0,5,,,,,,,,4,,,,70,92
233280,note_on,0,0,6,,,,,,,,5,,,,70,92
233400,note_off,120,0,4,,,,,,,,3,,,,82,64
233400,note_off,120,0,6,,,,,,,,5,,,,70,64
233400,note_off,120,0,8,,,,,,,,7,,,,46,64
233400,note_off,120,0,5,,,,,,,,4,,,,70,64
233400,note_off,120,0,7,,,,,,,,6,,,,58,64
233760,note_on,360,0,4,,,,,,,,3,,,,76,92
233760,note_on,360,0,7,,,,,,,,6,,,,52,92
233760,note_on,360,0,8,,,,,,,,7,,,,40,92
233760,note_on,360,0,5,,,,,,,,4,,,,64,92
233760,note_on,360,0,6,,,,,,,,5,,,,64,92
233760,note_on,1040,0,2,,,,,,,,1,,,,52,92
233760,note_on,1040,0,1,,,,,,,,0,,,,76,92
234160,note_off,400,0,2,,,,,,,,1,,,,52,64
234160,note_off,400,0,1,,,,,,,,0,,,,76,64
234265,note_off,505,0,5,,,,,,,,4,,,,64,64
234265,note_off,505,0,6,,,,,,,,5,,,,64,64
234265,note_off,505,0,8,,,,,,,,7,,,,40,64
234265,note_off,505,0,4,,,,,,,,3,,,,76,64
234265,note_off,505,0,7,,,,,,,,6,,,,52,64
234480,note_on,215,0,4,,,,,,,,3,,,,76,92
234480,note_on,215,0,8,,,,,,,,7,,,,40,92
234480,note_on,215,0,5,,,,,,,,4,,,,64,92
234480,note_on,215,0,6,,,,,,,,5,,,,64,92
234480,note_on,215,0,7,,,,,,,,6,,,,52,92
234720,note_on,0,0,7,,,,,,,,6,,,,55,92
234720,note_off,240,0,8,,,,,,,,7,,,,40,64
234720,note_on,0,0,8,,,,,,,,7,,,,43,92
234720,note_on,0,0,6,,,,,,,,5,,,,67,92
234720,note_off,240,0,6,,,,,,,,5,,,,64,64
234720,note_off,240,0,5,,,,,,,,4,,,,64,64
234720,note_on,0,0,5,,,,,,,,4,,,,67,92
234720,note_on,0,0,4,,,,,,,,3,,,,79,92
234720,note_off,240,0,4,,,,,,,,3,,,,76,64
234720,note_off,240,0,7,,,,,,,,6,,,,52,64
234840,note_off,120,0,5,,,,,,,,4,,,,67,64
234840,note_off,120,0,4,,,,,,,,3,,,,79,64
234840,note_off,120,0,8,,,,,,,,7,,,,43,64
234840,note_off,120,0,7,,,,,,,,6,,,,55,64
234840,note_off,120,0,6,,,,,,,,5,,,,67,64
235200,note_on,1040,0,1,,,,,,,,0,,,,72,92
235200,note_on,360,0,4,,,,,,,,3,,,,84,92
235200,note_on,1040,0,2,,,,,,,,1,,,,48,92
235200,note_on,360,0,7,,,,,,,,6,,,,48,92
235200,note_on,360,0,8,,,,,,,,7,,,,36,92
235200,note_on,360,0,6,,,,,,,,5,,,,60,92
235200,note_on,360,0,5,,,,,,,,4,,,,60,92
235320,note_off,120,0,2,,,,,,,,1,,,,48,64
235320,note_off,120,0,6,,,,,,,,5,,,,60,64
235320,note_off,120,0,4,,,,,,,,3,,,,84,64
235320,note_off,120,0,5,,,,,,,,4,,,,60,64
235320,note_off,120,0,1,,,,,,,,0,,,,72,64
235680,note_on,360,0,4,,,,,,,,3,,,,86,92
235680,note_on,360,0,5,,,,,,,,4,,,,62,92
235680,note_on,360,0,1,,,,,,,,0,,,,74,92
235680,note_on,360,0,6,,,,,,,,5,,,,62,92
235920,note_off,240,0,1,,,,,,,,0,,,,74,64
235920,note_on,0,0,4,,,,,,,,3,,,,88,92
235920,note_off,240,0,4,,,,,,,,3,,,,86,64
235920,note_on,0,0,6,,,,,,,,5,,,,64,92
235920,note_off,240,0,6,,,,,,,,5,,,,62,64
235920,note_on,0,0,5,,,,,,,,4,,,,64,92
235920,note_on,0,0,1,,,,,,,,0,,,,76,92
235920,note_off,240,0,5,,,,,,,,4,,,,62,64
236040,note_off,840,0,7,,,,,,,,6,,,,48,64
236040,note_off,840,0,8,,,,,,,,7,,,,36,64
236160,note_off,240,0,4,,,,,,,,3,,,,88,64
236160,note_off,240,0,6,,,,,,,,5,,,,64,64
236160,note_on,0,0,6,,,,,,,,5,,,,65,92
236160,note_on,0,0,5,,,,,,,,4,,,,65,92
236160,note_on,0,0,1,,,,,,,,0,,,,77,92
236160,note_off,240,0,5,,,,,,,,4,,,,64,64
236160,note_on,0,0,4,,,,,,,,3,,,,89,92
236160,note_on,120,0,8,,,,,,,,7,,,,34,92
236160,note_on,120,0,7,,,,,,,,6,,,,46,92
236160,note_off,240,0,1,,,,,,,,0,,,,76,64
236400,note_on,0,0,4,,,,,,,,3,,,,91,92
236400,note_off,240,0,4,,,,,,,,3,,,,89,64
236400,note_off,240,0,6,,,,,,,,5,,,,65,64
236400,note_off,240,0,1,,,,,,,,0,,,,77,64
236400,note_on,0,0,5,,,,,,,,4,,,,67,92
236400,note_on,0,0,1,,,,,,,,0,,,,79,92
236400,note_off,240,0,5,,,,,,,,4,,,,65,64
236400,note_on,0,0,6,,,,,,,,5,,,,67,92
236560,note_off,400,0,7,,,,,,,,6,,,,46,64
236560,note_off,400,0,8,,,,,,,,7,,,,34,64
236640,note_off,240,0,5,,,,,,,,4,,,,67,64
236640,note_on,80,0,7,,,,,,,,6,,,,45,92
236640,note_on,0,0,1,,,,,,,,0,,,,81,92
236640,note_on,0,0,5,,,,,,,,4,,,,69,92
236640,note_on,0,0,5,,,,,,,,4,,,,77,92
236640,note_off,240,0,1,,,,,,,,0,,,,79,64
236640,note_off,240,0,6,,,,,,,,5,,,,67,64
236640,note_on,0,0,6,,,,,,,,5,,,,69,92
236640,note_on,8300,0,3,,,,,,,,2,,,,65,92
236640,note_on,1320,0,2,,,,,,,,1,,,,60,92
236640,note_off,240,0,4,,,,,,,,3,,,,91,64
236640,note_on,0,0,4,,,,,,,,3,,,,93,92
236640,note_on,80,0,8,,,,,,,,7,,,,33,92
237480,note_off,840,0,7,,,,,,,,6,,,,45,64
237480,note_off,840,0,3,,,,,,,,2,,,,65,64
237480,note_off,840,0,8,,,,,,,,7,,,,33,64
237480,note_off,840,0,6,,,,,,,,5,,,,69,64
237480,note_off,0,0,5,,,,,,,,4,,,,69,64
237480,note_off,840,0,5,,,,,,,,4,,,,77,64
237480,note_off,840,0,2,,,,,,,,1,,,,60,64
237480,note_off,840,0,4,,,,,,,,3,,,,93,64
237480,note_off,840,0,1,,,,,,,,0,,,,81,64
237600,note_on,120,0,7,,,,,,,,6,,,,46,92
237600,note_on,0,0,5,,,,,,,,4,,,,79,92
237600,note_on,120,0,4,,,,,,,,3,,,,91,92
237600,note_on,120,0,3,,,,,,,,2,,,,62,92
237600,note_on,120,0,5,,,,,,,,4,,,,70,92
237600,note_on,120,0,8,,,,,,,,7,,,,34,92
237600,note_on,120,0,2,,,,,,,,1,,,,58,92
237600,note_on,120,0,1,,,,,,,,0,,,,74,92
237600,note_on,120,0,6,,,,,,,,5,,,,67,92
238000,note_off,400,0,1,,,,,,,,0,,,,74,64
238000,note_off,400,0,3,,,,,,,,2,,,,62,64
238000,note_off,400,0,7,,,,,,,,6,,,,46,64
238000,note_off,400,0,2,,,,,,,,1,,,,58,64
238000,note_off,400,0,6,,,,,,,,5,,,,67,64
238000,note_off,400,0,5,,,,,,,,4,,,,79,64
238000,note_off,0,0,5,,,,,,,,4,,,,70,64
238000,note_off,400,0,8,,,,,,,,7,,,,34,64
238000,note_off,400,0,4,,,,,,,,3,,,,91,64
238080,note_on,80,0,5,,,,,,,,4,,,,69,92
238080,note_on,0,0,5,,,,,,,,4,,,,77,92
238080,note_on,80,0,3,,,,,,,,2,,,,60,92
238080,note_on,80,0,1,,,,,,,,0,,,,72,92
238080,note_on,80,0,6,,,,,,,,5,,,,65,92
238080,note_on,80,0,2,,,,,,,,1,,,,57,92
238080,set_tempo,21180,1,0,253164,,,,,,,,,,,,
238080,note_on,80,0,8,,,,,,,,7,,,,36,92
238080,note_on,80,0,7,,,,,,,,6,,,,48,92
238080,note_on,80,0,4,,,,,,,,3,,,,89,92
238585,note_off,505,0,7,,,,,,,,6,,,,48,64
238585,note_off,505,0,5,,,,,,,,4,,,,77,64
238585,note_off,0,0,5,,,,,,,,4,,,,69,64
238585,note_off,505,0,1,,,,,,,,0,,,,72,64
238585,note_off,505,0,3,,,,,,,,2,,,,60,64
238585,note_off,505,0,6,,,,,,,,5,,,,65,64
238585,note_off,505,0,2,,,,,,,,1,,,,57,64
238585,note_off,505,0,4,,,,,,,,3,,,,89,64
238585,note_off,505,0,8,,,,,,,,7,,,,36,64
238800,note_on,215,0,5,,,,,,,,4,,,,69,92
238800,note_on,215,0,4,,,,,,,,3,,,,89,92
238800,note_on,215,0,8,,,,,,,,7,,,,36,92
238800,note_on,215,0,3,,,,,,,,2,,,,60,92
238800,note_on,0,0,5,,,,,,,,4,,,,77,92
238800,set_tempo,720,1,0,265486,,,,,,,,,,,,
238800,note_on,215,0,2,,,,,,,,1,,,,57,92
238800,note_on,215,0,7,,,,,,,,6,,,,48,92
238800,note_on,215,0,6,,,,,,,,5,,,,65,92
238800,note_on,215,0,1,,,,,,,,0,,,,72,92
238880,note_off,80,0,4,,,,,,,,3,,,,89,64
238880,note_off,80,0,2,,,,,,,,1,,,,57,64
238880,note_off,80,0,6,,,,,,,,5,,,,65,64
238880,note_off,80,0,3,,,,,,,,2,,,,60,64
238880,note_off,80,0,1,,,,,,,,0,,,,72,64
238880,note_off,80,0,5,,,,,,,,4,,,,77,64
238880,note_off,0,0,5,,,,,,,,4,,,,69,64
239035,note_off,235,0,8,,,,,,,,7,,,,36,64
239035,note_off,235,0,7,,,,,,,,6,,,,48,64
239040,set_tempo,240,1,0,269058,,,,,,,,,,,,
239040,note_on,0,0,5,,,,,,,,4,,,,76,92
239040,note_on,160,0,5,,,,,,,,4,,,,67,92
239040,note_on,160,0,2,,,,,,,,1,,,,55,92
239040,note_on,160,0,6,,,,,,,,5,,,,64,92
239040,note_on,160,0,3,,,,,,,,2,,,,60,92
239040,note_on,5,0,8,,,,,,,,7,,,,34,92
239040,note_on,160,0,1,,,,,,,,0,,,,72,92
239040,note_on,160,0,4,,,,,,,,3,,,,88,92
239040,note_on,5,0,7,,,,,,,,6,,,,46,92
239440,note_off,400,0,7,,,,,,,,6,,,,46,64
239440,note_off,400,0,1,,,,,,,,0,,,,72,64
239440,note_off,400,0,5,,,,,,,,4,,,,76,64
239440,note_off,0,0,5,,,,,,,,4,,,,67,64
239440,note_off,400,0,4,,,,,,,,3,,,,88,64
239440,note_off,400,0,6,,,,,,,,5,,,,64,64
239440,note_off,400,0,8,,,,,,,,7,,,,34,64
239440,note_off,400,0,3,,,,,,,,2,,,,60,64
239440,note_off,400,0,2,,,,,,,,1,,,,55,64
239520,note_on,80,0,2,,,,,,,,1,,,,60,92
239520,note_on,80,0,3,,,,,,,,2,,,,65,92
239520,note_on,0,0,5,,,,,,,,4,,,,81,92
239520,note_on,80,0,5,,,,,,,,4,,,,72,92
239520,note_on,80,0,4,,,,,,,,3,,,,93,92
239520,note_on,80,0,7,,,,,,,,6,,,,45,92
239520,note_on,80,0,6,,,,,,,,5,,,,69,92
239520,note_on,80,0,8,,,,,,,,7,,,,33,92
239520,note_on,80,0,1,,,,,,,,0,,,,77,92
240480,note_on,0,0,5,,,,,,,,4,,,,79,92
240480,note_on,0,0,8,,,,,,,,7,,,,34,92
240480,note_off,0,0,5,,,,,,,,4,,,,72,64
240480,note_off,960,0,5,,,,,,,,4,,,,81,64
240480,note_on,0,0,7,,,,,,,,6,,,,46,92
240480,note_off,960,0,7,,,,,,,,6,,,,45,64
240480,note_off,960,0,6,,,,,,,,5,,,,69,64
240480,note_on,0,0,6,,,,,,,,5,,,,67,92
240480,note_on,0,0,5,,,,,,,,4,,,,70,92
240480,note_off,960,0,3,,,,,,,,2,,,,65,64
240480,note_on,0,0,3,,,,,,,,2,,,,62,92
240480,note_off,960,0,2,,,,,,,,1,,,,60,64
240480,note_on,0,0,1,,,,,,,,0,,,,74,92
240480,note_off,960,0,4,,,,,,,,3,,,,93,64
240480,note_on,0,0,4,,,,,,,,3,,,,91,92
240480,note_off,960,0,8,,,,,,,,7,,,,33,64
240480,note_on,0,0,2,,,,,,,,1,,,,58,92
240480,note_off,960,0,1,,,,,,,,0,,,,77,64
240960,note_on,0,0,7,,,,,,,,6,,,,48,92
240960,note_on,0,0,2,,,,,,,,1,,,,57,92
240960,note_on,0,0,3,,,,,,,,2,,,,60,92
240960,note_off,480,0,1,,,,,,,,0,,,,74,64
240960,note_on,0,0,1,,,,,,,,0,,,,72,92
240960,note_off,480,0,5,,,,,,,,4,,,,79,64
240960,note_off,0,0,5,,,,,,,,4,,,,70,64
240960,note_on,0,0,6,,,,,,,,5,,,,65,92
240960,note_on,0,0,5,,,,,,,,4,,,,77,92
240960,note_off,480,0,6,,,,,,,,5,,,,67,64
240960,note_off,480,0,7,,,,,,,,6,,,,46,64
240960,note_off,480,0,3,,,,,,,,2,,,,62,64
240960,note_off,480,0,8,,,,,,,,7,,,,34,64
240960,note_off,480,0,4,,,,,,,,3,,,,91,64
240960,note_on,0,0,4,,,,,,,,3,,,,89,92
240960,note_on,0,0,8,,,,,,,,7,,,,36,92
240960,note_off,480,0,2,,,,,,,,1,,,,58,64
240960,note_on,0,0,5,,,,,,,,4,,,,69,92
241465,note_off,505,0,1,,,,,,,,0,,,,72,64
241555,note_off,595,0,4,,,,,,,,3,,,,89,64
241555,note_off,595,0,2,,,,,,,,1,,,,57,64
241555,note_off,595,0,6,,,,,,,,5,,,,65,64
241555,note_off,595,0,3,,,,,,,,2,,,,60,64
241555,note_off,595,0,5,,,,,,,,4,,,,77,64
241555,note_off,0,0,5,,,,,,,,4,,,,69,64
241680,note_on,125,0,3,,,,,,,,2,,,,60,92
241680,note_on,0,0,5,,,,,,,,4,,,,77,92
241680,note_on,125,0,4,,,,,,,,3,,,,89,92
241680,note_on,125,0,5,,,,,,,,4,,,,69,92
241680,note_on,125,0,6,,,,,,,,5,,,,65,92
241680,note_on,215,0,1,,,,,,,,0,,,,72,92
241680,note_on,125,0,2,,,,,,,,1,,,,57,92
241800,note_off,840,0,8,,,,,,,,7,,,,36,64
241800,note_off,840,0,7,,,,,,,,6,,,,48,64
241920,note_on,0,0,6,,,,,,,,5,,,,64,92
241920,note_on,0,0,3,,,,,,,,2,,,,60,92
241920,note_on,0,0,1,,,,,,,,0,,,,72,92
241920,note_off,240,0,5,,,,,,,,4,,,,77,64
241920,note_off,240,0,1,,,,,,,,0,,,,72,64
241920,note_off,240,0,6,,,,,,,,5,,,,65,64
241920,note_off,240,0,3,,,,,,,,2,,,,60,64
241920,note_on,0,0,4,,,,,,,,3,,,,88,92
241920,note_off,240,0,4,,,,,,,,3,,,,89,64
241920,note_on,120,0,8,,,,,,,,7,,,,34,92
241920,note_on,0,0,5,,,,,,,,4,,,,76,92
241920,note_on,0,0,5,,,,,,,,4,,,,67,92
241920,note_off,0,0,5,,,,,,,,4,,,,69,64
241920,note_on,120,0,7,,,,,,,,6,,,,46,92
241920,note_on,0,0,2,,,,,,,,1,,,,55,92
241920,note_off,240,0,2,,,,,,,,1,,,,57,64
242320,note_off,400,0,8,,,,,,,,7,,,,34,64
242320,note_off,400,0,1,,,,,,,,0,,,,72,64
242320,note_off,400,0,3,,,,,,,,2,,,,60,64
242320,note_off,400,0,5,,,,,,,,4,,,,76,64
242320,note_off,400,0,6,,,,,,,,5,,,,64,64
242320,note_off,0,0,5,,,,,,,,4,,,,67,64
242320,note_off,400,0,4,,,,,,,,3,,,,88,64
242320,note_off,400,0,2,,,,,,,,1,,,,55,64
242320,note_off,400,0,7,,,,,,,,6,,,,46,64
242400,note_on,0,0,4,,,,,,,,3,,,,84,92
242400,note_on,80,0,2,,,,,,,,1,,,,63,92
242400,note_on,80,0,3,,,,,,,,2,,,,72,92
242400,note_on,80,0,1,,,,,,,,0,,,,75,92
242400,set_tempo,3360,1,0,277777,,,,,,,,,,,,
242400,note_on,80,0,5,,,,,,,,4,,,,78,92
242400,note_on,80,0,8,,,,,,,,7,,,,33,92
242400,note_on,80,0,7,,,,,,,,6,,,,45,92
242400,note_on,80,0,4,,,,,,,,3,,,,75,92
242400,note_on,80,0,6,,,,,,,,5,,,,66,92
246120,note_off,0,0,4,,,,,,,,3,,,,75,64
246120,note_off,3720,0,3,,,,,,,,2,,,,72,64
246120,note_off,3720,0,8,,,,,,,,7,,,,33,64
246120,note_off,3720,0,2,,,,,,,,1,,,,63,64
246120,note_off,3720,0,4,,,,,,,,3,,,,84,64
246120,note_off,3720,0,6,,,,,,,,5,,,,66,64
246120,note_off,3720,0,5,,,,,,,,4,,,,78,64
246120,note_off,3720,0,7,,,,,,,,6,,,,45,64
246240,note_on,120,0,5,,,,,,,,4,,,,79,92
246240,note_on,120,0,2,,,,,,,,1,,,,62,92
246240,note_on,0,0,1,,,,,,,,0,,,,74,92
246240,note_off,3840,0,1,,,,,,,,0,,,,75,64
246240,note_on,120,0,3,,,,,,,,2,,,,70,92
246240,note_on,0,0,4,,,,,,,,3,,,,82,92
246240,note_on,120,0,4,,,,,,,,3,,,,74,92
246240,note_on,120,0,6,,,,,,,,5,,,,67,92
246240,note_on,120,0,7,,,,,,,,6,,,,46,92
246240,note_on,120,0,8,,,,,,,,7,,,,34,92
246240,set_tempo,3840,1,0,238095,,,,,,,,,,,,
246640,note_off,0,0,4,,,,,,,,3,,,,74,64
246640,note_off,400,0,4,,,,,,,,3,,,,82,64
246640,note_off,400,0,6,,,,,,,,5,,,,67,64
246640,note_off,400,0,2,,,,,,,,1,,,,62,64
246640,note_off,400,0,8,,,,,,,,7,,,,34,64
246640,note_off,400,0,7,,,,,,,,6,,,,46,64
246640,note_off,400,0,3,,,,,,,,2,,,,70,64
246640,note_off,400,0,5,,,,,,,,4,,,,79,64
246720,note_off,480,0,1,,,,,,,,0,,,,74,64
246720,note_on,80,0,7,,,,,,,,6,,,,48,92
246720,note_on,80,0,6,,,,,,,,5,,,,57,92
246720,note_on,0,0,6,,,,,,,,5,,,,65,92
246720,note_on,0,0,5,,,,,,,,4,,,,77,92
246720,note_on,0,0,1,,,,,,,,0,,,,72,92
246720,note_on,0,0,4,,,,,,,,3,,,,81,92
246720,note_on,80,0,5,,,,,,,,4,,,,69,92
246720,note_on,80,0,4,,,,,,,,3,,,,72,92
246720,note_on,80,0,3,,,,,,,,2,,,,69,92
246720,note_on,80,0,2,,,,,,,,1,,,,60,92
246720,note_on,80,0,8,,,,,,,,7,,,,36,92
247315,note_off,595,0,5,,,,,,,,4,,,,77,64
247315,note_off,0,0,6,,,,,,,,5,,,,57,64
247315,note_off,0,0,4,,,,,,,,3,,,,72,64
247315,note_off,0,0,5,,,,,,,,4,,,,69,64
247315,note_off,595,0,2,,,,,,,,1,,,,60,64
247315,note_off,595,0,8,,,,,,,,7,,,,36,64
247315,note_off,595,0,6,,,,,,,,5,,,,65,64
247315,note_off,595,0,1,,,,,,,,0,,,,72,64
247315,note_off,595,0,7,,,,,,,,6,,,,48,64
247315,note_off,595,0,4,,,,,,,,3,,,,81,64
247315,note_off,595,0,3,,,,,,,,2,,,,69,64
247440,note_on,0,0,5,,,,,,,,4,,,,77,92
247440,note_on,125,0,1,,,,,,,,0,,,,72,92
247440,note_on,125,0,5,,,,,,,,4,,,,69,92
247440,note_on,0,0,6,,,,,,,,5,,,,65,92
247440,note_on,125,0,6,,,,,,,,5,,,,57,92
247440,note_on,125,0,7,,,,,,,,6,,,,48,92
247440,note_on,125,0,3,,,,,,,,2,,,,69,92
247440,note_on,125,0,2,,,,,,,,1,,,,60,92
247440,note_on,125,0,4,,,,,,,,3,,,,72,92
247440,note_on,125,0,8,,,,,,,,7,,,,36,92
247440,note_on,0,0,4,,,,,,,,3,,,,81,92
247520,note_off,80,0,1,,,,,,,,0,,,,72,64
247675,note_off,235,0,6,,,,,,,,5,,,,65,64
247675,note_off,0,0,5,,,,,,,,4,,,,69,64
247675,note_off,235,0,5,,,,,,,,4,,,,77,64
247675,note_off,235,0,4,,,,,,,,3,,,,81,64
247675,note_off,0,0,6,,,,,,,,5,,,,57,64
247675,note_off,235,0,7,,,,,,,,6,,,,48,64
247675,note_off,0,0,4,,,,,,,,3,,,,72,64
247675,note_off,235,0,8,,,,,,,,7,,,,36,64
247675,note_off,235,0,2,,,,,,,,1,,,,60,64
247675,note_off,235,0,3,,,,,,,,2,,,,69,64
247680,note_on,5,0,7,,,,,,,,6,,,,48,92
247680,note_on,5,0,5,,,,,,,,4,,,,69,92
247680,note_on,5,0,8,,,,,,,,7,,,,36,92
247680,note_on,5,0,2,,,,,,,,1,,,,60,92
247680,note_on,5,0,3,,,,,,,,2,,,,69,92
247680,note_on,0,0,6,,,,,,,,5,,,,65,92
247680,note_on,0,0,5,,,,,,,,4,,,,77,92
247680,note_on,5,0,6,,,,,,,,5,,,,57,92
247680,note_on,5,0,4,,,,,,,,3,,,,72,92
247680,note_on,160,0,1,,,,,,,,0,,,,72,92
247680,note_on,0,0,4,,,,,,,,3,,,,81,92
248080,note_off,400,0,6,,,,,,,,5,,,,65,64
248080,note_off,400,0,7,,,,,,,,6,,,,48,64
248080,note_off,400,0,2,,,,,,,,1,,,,60,64
248080,note_off,400,0,4,,,,,,,,3,,,,81,64
248080,note_off,400,0,8,,,,,,,,7,,,,36,64
248080,note_off,0,0,6,,,,,,,,5,,,,57,64
248080,note_off,0,0,5,,,,,,,,4,,,,69,64
248080,note_off,400,0,1,,,,,,,,0,,,,72,64
248080,note_off,400,0,5,,,,,,,,4,,,,77,64
248080,note_off,400,0,3,,,,,,,,2,,,,69,64
248080,note_off,0,0,4,,,,,,,,3,,,,72,64
248160,note_on,80,0,2,,,,,,,,1,,,,60,92
248160,note_on,80,0,7,,,,,,,,6,,,,48,92
248160,note_on,0,0,6,,,,,,,,5,,,,64,92
248160,note_on,0,0,4,,,,,,,,3,,,,79,92
248160,note_on,80,0,8,,,,,,,,7,,,,36,92
248160,note_on,80,0,6,,,,,,,,5,,,,58,92
248160,note_on,80,0,1,,,,,,,,0,,,,76,92
248160,note_on,80,0,5,,,,,,,,4,,,,70,92
248160,note_on,0,0,5,,,,,,,,4,,,,76,92
248160,note_on,80,0,4,,,,,,,,3,,,,72,92
248160,note_on,80,0,3,,,,,,,,2,,,,67,92
248160,set_tempo,1920,1,0,245901,,,,,,,,,,,,
248755,note_off,595,0,7,,,,,,,,6,,,,48,64
248755,note_off,595,0,4,,,,,,,,3,,,,79,64
248755,note_off,0,0,5,,,,,,,,4,,,,70,64
248755,note_off,595,0,3,,,,,,,,2,,,,67,64
248755,note_off,595,0,5,,,,,,,,4,,,,76,64
248755,note_off,595,0,8,,,,,,,,7,,,,36,64
248755,note_off,595,0,1,,,,,,,,0,,,,76,64
248755,note_off,0,0,4,,,,,,,,3,,,,72,64
248755,note_off,595,0,2,,,,,,,,1,,,,60,64
248755,note_off,595,0,6,,,,,,,,5,,,,64,64
248755,note_off,0,0,6,,,,,,,,5,,,,58,64
248880,note_on,125,0,5,,,,,,,,4,,,,70,92
248880,note_on,125,0,1,,,,,,,,0,,,,76,92
248880,note_on,0,0,5,,,,,,,,4,,,,76,92
248880,note_on,0,0,6,,,,,,,,5,,,,64,92
248880,note_on,125,0,7,,,,,,,,6,,,,48,92
248880,note_on,125,0,4,,,,,,,,3,,,,72,92
248880,note_on,125,0,8,,,,,,,,7,,,,36,92
248880,note_on,125,0,3,,,,,,,,2,,,,67,92
248880,note_on,125,0,2,,,,,,,,1,,,,60,92
248880,note_on,125,0,6,,,,,,,,5,,,,58,92
248880,note_on,0,0,4,,,,,,,,3,,,,79,92
248960,note_off,0,0,5,,,,,,,,4,,,,70,64
248960,note_off,0,0,4,,,,,,,,3,,,,72,64
248960,note_off,0,0,6,,,,,,,,5,,,,58,64
248960,note_off,80,0,6,,,,,,,,5,,,,64,64
248960,note_off,80,0,1,,,,,,,,0,,,,76,64
248960,note_off,80,0,3,,,,,,,,2,,,,67,64
248960,note_off,80,0,2,,,,,,,,1,,,,60,64
248960,note_off,80,0,7,,,,,,,,6,,,,48,64
248960,note_off,80,0,4,,,,,,,,3,,,,79,64
248960,note_off,80,0,5,,,,,,,,4,,,,76,64
249115,note_off,235,0,8,,,,,,,,7,,,,36,64
249120,note_on,160,0,1,,,,,,,,0,,,,76,92
249120,note_on,160,0,5,,,,,,,,4,,,,70,92
249120,note_on,160,0,2,,,,,,,,1,,,,60,92
249120,note_on,160,0,4,,,,,,,,3,,,,72,92
249120,note_on,0,0,4,,,,,,,,3,,,,79,92
249120,note_on,0,0,5,,,,,,,,4,,,,76,92
249120,note_on,0,0,6,,,,,,,,5,,,,64,92
249120,note_on,5,0,8,,,,,,,,7,,,,36,92
249120,note_on,160,0,3,,,,,,,,2,,,,67,92
249120,note_on,160,0,7,,,,,,,,6,,,,48,92
249120,note_on,160,0,6,,,,,,,,5,,,,58,92
249520,note_off,400,0,8,,,,,,,,7,,,,36,64
249520,note_off,400,0,4,,,,,,,,3,,,,79,64
249520,note_off,0,0,4,,,,,,,,3,,,,72,64
249520,note_off,400,0,3,,,,,,,,2,,,,67,64
249520,note_off,400,0,2,,,,,,,,1,,,,60,64
249520,note_off,400,0,7,,,,,,,,6,,,,48,64
249520,note_off,400,0,1,,,,,,,,0,,,,76,64
249520,note_off,400,0,5,,,,,,,,4,,,,76,64
249520,note_off,0,0,5,,,,,,,,4,,,,70,64
249520,note_off,400,0,6,,,,,,,,5,,,,64,64
249520,note_off,0,0,6,,,,,,,,5,,,,58,64
249600,note_on,0,0,4,,,,,,,,3,,,,77,92
249600,note_on,80,0,2,,,,,,,,1,,,,57,92
249600,set_tempo,1440,1,0,252100,,,,,,,,,,,,
249600,note_on,80,0,7,,,,,,,,6,,,,53,92
249600,note_on,80,0,8,,,,,,,,7,,,,41,92
249600,note_on,80,0,1,,,,,,,,0,,,,77,92
249600,note_on,0,0,5,,,,,,,,4,,,,77,92
249600,note_on,80,0,5,,,,,,,,4,,,,69,92
249600,note_on,80,0,6,,,,,,,,5,,,,57,92
249600,note_on,80,0,4,,,,,,,,3,,,,69,92
249600,note_on,80,0,3,,,,,,,,2,,,,65,92
249600,note_on,0,0,6,,,,,,,,5,,,,65,92
250000,note_off,400,0,2,,,,,,,,1,,,,57,64
250000,note_off,400,0,8,,,,,,,,7,,,,41,64
250000,note_off,400,0,6,,,,,,,,5,,,,65,64
250000,note_off,400,0,3,,,,,,,,2,,,,65,64
250000,note_off,0,0,6,,,,,,,,5,,,,57,64
250000,note_off,400,0,5,,,,,,,,4,,,,77,64
250000,note_off,0,0,4,,,,,,,,3,,,,69,64
250000,note_off,400,0,1,,,,,,,,0,,,,77,64
250000,note_off,400,0,7,,,,,,,,6,,,,53,64
250000,note_off,400,0,4,,,,,,,,3,,,,77,64
250000,note_off,0,0,5,,,,,,,,4,,,,69,64
250560,note_on,0,0,4,,,,,,,,3,,,,79,92
250560,note_on,560,0,7,,,,,,,,6,,,,48,92
250560,note_on,0,0,4,,,,,,,,3,,,,72,92
250560,note_on,560,0,4,,,,,,,,3,,,,67,92
250560,note_on,560,0,2,,,,,,,,1,,,,64,92
250560,note_on,0,0,5,,,,,,,,4,,,,72,92
250560,set_tempo,960,1,0,266666,,,,,,,,,,,,
250560,note_on,560,0,3,,,,,,,,2,,,,60,92
250560,note_on,560,0,6,,,,,,,,5,,,,60,92
250560,note_on,0,0,5,,,,,,,,4,,,,79,92
250560,note_on,560,0,1,,,,,,,,0,,,,79,92
250560,note_on,560,0,8,,,,,,,,7,,,,36,92
250560,note_on,560,0,5,,,,,,,,4,,,,64,92
250960,note_off,400,0,5,,,,,,,,4,,,,79,64
250960,note_off,400,0,8,,,,,,,,7,,,,36,64
250960,note_off,0,0,5,,,,,,,,4,,,,64,64
250960,note_off,0,0,5,,,,,,,,4,,,,72,64
250960,note_off,400,0,4,,,,,,,,3,,,,79,64
250960,note_off,400,0,6,,,,,,,,5,,,,60,64
250960,note_off,400,0,7,,,,,,,,6,,,,48,64
250960,note_off,0,0,4,,,,,,,,3,,,,72,64
250960,note_off,0,0,4,,,,,,,,3,,,,67,64
250960,note_off,400,0,1,,,,,,,,0,,,,79,64
250960,note_off,400,0,2,,,,,,,,1,,,,64,64
250960,note_off,400,0,3,,,,,,,,2,,,,60,64
251040,note_on,0,0,5,,,,,,,,4,,,,72,92
251040,note_on,80,0,5,,,,,,,,4,,,,65,92
251040,note_on,80,0,6,,,,,,,,5,,,,53,92
251040,note_on,80,0,1,,,,,,,,0,,,,81,92
251040,note_on,80,0,2,,,,,,,,1,,,,65,92
251040,note_on,80,0,8,,,,,,,,7,,,,29,92
251040,note_on,80,0,3,,,,,,,,2,,,,65,92
251040,note_on,0,0,4,,,,,,,,3,,,,81,92
251040,note_on,0,0,4,,,,,,,,3,,,,72,92
251040,note_on,80,0,4,,,,,,,,3,,,,65,92
251040,note_on,80,0,7,,,,,,,,6,,,,41,92
251040,note_on,0,0,5,,,,,,,,4,,,,81,92
251440,note_off,0,0,4,,,,,,,,3,,,,65,64
251440,note_off,0,0,4,,,,,,,,3,,,,72,64
251440,note_off,400,0,6,,,,,,,,5,,,,53,64
251440,note_off,400,0,5,,,,,,,,4,,,,81,64
251440,note_off,400,0,7,,,,,,,,6,,,,41,64
251440,note_off,0,0,5,,,,,,,,4,,,,65,64
251440,note_off,400,0,1,,,,,,,,0,,,,81,64
251440,note_off,400,0,8,,,,,,,,7,,,,29,64
251440,note_off,400,0,2,,,,,,,,1,,,,65,64
251440,note_off,400,0,3,,,,,,,,2,,,,65,64
251440,note_off,400,0,4,,,,,,,,3,,,,81,64
251440,note_off,0,0,5,,,,,,,,4,,,,72,64
252060,note_on,0,0,6,,,,,,,,5,,,,54,92
252060,note_on,620,0,7,,,,,,,,6,,,,54,92
252060,note_on,620,0,8,,,,,,,,7,,,,42,92
252060,set_tempo,1500,1,0,247933,,,,,,,,,,,,
252060,note_on,620,0,4,,,,,,,,3,,,,66,92
252060,program_change,620,0,6,,,,,,,,5,,,50,,
252220,note_on,0,0,4,,,,,,,,3,,,,67,92
252220,note_off,160,0,4,,,,,,,,3,,,,66,64
252220,note_off,160,0,8,,,,,,,,7,,,,42,64
252220,note_on,0,0,8,,,,,,,,7,,,,43,92
252220,note_off,160,0,6,,,,,,,,5,,,,54,64
252220,note_off,160,0,7,,,,,,,,6,,,,54,64
252220,note_on,0,0,7,,,,,,,,6,,,,55,92
252220,note_on,0,0,6,,,,,,,,5,,,,55,92
252380,note_off,160,0,7,,,,,,,,6,,,,55,64
252380,note_on,0,0,7,,,,,,,,6,,,,57,92
252380,note_on,0,0,6,,,,,,,,5,,,,57,92
252380,note_off,160,0,6,,,,,,,,5,,,,55,64
252380,note_on,0,0,4,,,,,,,,3,,,,69,92
252380,note_off,160,0,4,,,,,,,,3,,,,67,64
252380,note_on,0,0,8,,,,,,,,7,,,,45,92
252380,note_off,160,0,8,,,,,,,,7,,,,43,64
252535,note_off,155,0,4,,,,,,,,3,,,,69,64
252535,note_off,155,0,7,,,,,,,,6,,,,57,64
252535,note_off,155,0,8,,,,,,,,7,,,,45,64
252535,note_off,155,0,6,,,,,,,,5,,,,57,64
252540,note_on,5,0,4,,,,,,,,3,,,,70,92
252540,program_change,5,0,6,,,,,,,,5,,,50,,
252540,note_on,0,0,6,,,,,,,,5,,,,58,92
252540,set_tempo,480,1,0,229007,,,,,,,,,,,,
252540,note_on,5,0,8,,,,,,,,7,,,,46,92
252540,note_on,5,0,7,,,,,,,,6,,,,58,92
253045,note_off,505,0,8,,,,,,,,7,,,,46,64
253045,note_off,505,0,4,,,,,,,,3,,,,70,64
253045,note_off,505,0,7,,,,,,,,6,,,,58,64
253045,note_off,505,0,6,,,,,,,,5,,,,58,64
253260,note_on,215,0,4,,,,,,,,3,,,,70,92
253260,note_on,215,0,7,,,,,,,,6,,,,58,92
253260,note_on,215,0,6,,,,,,,,5,,,,58,92
253260,note_on,215,0,8,,,,,,,,7,,,,46,92
253340,note_off,80,0,8,,,,,,,,7,,,,46,64
253340,note_off,80,0,6,,,,,,,,5,,,,58,64
253340,note_off,80,0,7,,,,,,,,6,,,,58,64
253340,note_off,80,0,4,,,,,,,,3,,,,70,64
253500,note_on,160,0,7,,,,,,,,6,,,,60,92
253500,note_on,160,0,8,,,,,,,,7,,,,48,92
253500,note_on,160,0,4,,,,,,,,3,,,,72,92
253500,note_on,160,0,6,,,,,,,,5,,,,60,92
253900,note_off,400,0,7,,,,,,,,6,,,,60,64
253900,note_off,400,0,8,,,,,,,,7,,,,48,64
253900,note_off,400,0,6,,,,,,,,5,,,,60,64
253900,note_off,400,0,4,,,,,,,,3,,,,72,64
253980,note_on,80,0,7,,,,,,,,6,,,,58,92
253980,note_on,80,0,4,,,,,,,,3,,,,70,92
253980,note_on,80,0,6,,,,,,,,5,,,,58,92
253980,note_on,80,0,8,,,,,,,,7,,,,46,92
253980,set_tempo,1440,1,0,247933,,,,,,,,,,,,
254485,note_off,505,0,8,,,,,,,,7,,,,46,64
254485,note_off,505,0,4,,,,,,,,3,,,,70,64
254485,note_off,505,0,6,,,,,,,,5,,,,58,64
254485,note_off,505,0,7,,,,,,,,6,,,,58,64
254700,note_on,215,0,8,,,,,,,,7,,,,46,92
254700,note_on,215,0,4,,,,,,,,3,,,,70,92
254700,note_on,215,0,6,,,,,,,,5,,,,58,92
254700,note_on,215,0,7,,,,,,,,6,,,,58,92
254780,note_off,80,0,8,,,,,,,,7,,,,46,64
254780,note_off,80,0,4,,,,,,,,3,,,,70,64
254780,note_off,80,0,6,,,,,,,,5,,,,58,64
254780,note_off,80,0,7,,,,,,,,6,,,,58,64
254940,note_on,160,0,8,,,,,,,,7,,,,48,92
254940,note_on,160,0,6,,,,,,,,5,,,,60,92
254940,note_on,160,0,4,,,,,,,,3,,,,72,92
254940,note_on,160,0,7,,,,,,,,6,,,,60,92
255340,note_off,400,0,8,,,,,,,,7,,,,48,64
255340,note_off,400,0,6,,,,,,,,5,,,,60,64
255340,note_off,400,0,4,,,,,,,,3,,,,72,64
255340,note_off,400,0,7,,,,,,,,6,,,,60,64
255420,note_on,80,0,6,,,,,,,,5,,,,58,92
255420,set_tempo,1440,1,0,263157,,,,,,,,,,,,
255420,note_on,80,0,4,,,,,,,,3,,,,70,92
255420,note_on,80,0,8,,,,,,,,7,,,,46,92
255420,note_on,80,0,7,,,,,,,,6,,,,58,92
255925,note_off,505,0,8,,,,,,,,7,,,,46,64
255925,note_off,505,0,4,,,,,,,,3,,,,70,64
255925,note_off,505,0,6,,,,,,,,5,,,,58,64
255925,note_off,505,0,7,,,,,,,,6,,,,58,64
256140,note_on,215,0,8,,,,,,,,7,,,,46,92
256140,note_on,215,0,6,,,,,,,,5,,,,58,92
256140,note_on,215,0,7,,,,,,,,6,,,,58,92
256140,set_tempo,720,1,0,276497,,,,,,,,,,,,
256140,note_on,215,0,4,,,,,,,,3,,,,70,92
256220,note_off,80,0,7,,,,,,,,6,,,,58,64
256220,note_off,80,0,8,,,,,,,,7,,,,46,64
256220,note_off,80,0,4,,,,,,,,3,,,,70,64
256220,note_off,80,0,6,,,,,,,,5,,,,58,64
256380,note_on,160,0,7,,,,,,,,6,,,,60,92
256380,set_tempo,240,1,0,300000,,,,,,,,,,,,
256380,note_on,160,0,8,,,,,,,,7,,,,48,92
256380,note_on,160,0,4,,,,,,,,3,,,,72,92
256380,note_on,160,0,6,,,,,,,,5,,,,60,92
256780,note_off,400,0,6,,,,,,,,5,,,,60,64
256780,note_off,400,0,7,,,,,,,,6,,,,60,64
256780,note_off,400,0,4,,,,,,,,3,,,,72,64
256780,note_off,400,0,8,,,,,,,,7,,,,48,64
256860,note_on,80,0,6,,,,,,,,5,,,,61,92
256860,note_on,80,0,4,,,,,,,,3,,,,73,92
256860,note_on,80,0,8,,,,,,,,7,,,,49,92
256860,set_tempo,480,1,0,333333,,,,,,,,,,,,
256860,note_on,80,0,7,,,,,,,,6,,,,61,92
259740,note_off,2880,0,4,,,,,,,,3,,,,73,64
259740,note_on,0,0,4,,,,,,,,3,,,,73,60
259740,note_off,2880,0,7,,,,,,,,6,,,,61,64
259740,note_on,0,0,7,,,,,,,,6,,,,61,60
260460,note_on,9020,0,1,,,,,,,,0,,,,72,60
260460,set_tempo,3600,1,0,315789,,,,,,,,,,,,
260700,note_off,240,0,1,,,,,,,,0,,,,72,64
260700,note_on,0,0,1,,,,,,,,0,,,,73,60
260940,note_off,240,0,1,,,,,,,,0,,,,73,64
260940,note_on,0,0,1,,,,,,,,0,,,,75,60
261060,note_off,4200,0,8,,,,,,,,7,,,,49,64
261060,note_off,1320,0,7,,,,,,,,6,,,,61,64
261060,note_off,1320,0,4,,,,,,,,3,,,,73,64
261060,note_off,4200,0,6,,,,,,,,5,,,,61,64
261175,note_off,235,0,1,,,,,,,,0,,,,75,64
261180,note_on,5,0,1,,,,,,,,0,,,,77,60
261180,program_change,120,0,6,,,,,,,,5,,,48,,
261180,note_on,0,0,6,,,,,,,,5,,,,53,45
261180,note_on,120,0,4,,,,,,,,3,,,,68,45
261180,set_tempo,720,1,0,250000,,,,,,,,,,,,
261180,note_on,9740,0,5,,,,,,,,4,,,,61,45
261180,note_on,120,0,7,,,,,,,,6,,,,44,45
261180,note_on,120,0,8,,,,,,,,7,,,,37,45
261820,note_off,640,0,1,,,,,,,,0,,,,77,64
261820,note_off,640,0,6,,,,,,,,5,,,,53,64
261820,note_off,640,0,4,,,,,,,,3,,,,68,64
261820,note_off,640,0,5,,,,,,,,4,,,,61,64
261900,note_on,80,0,1,,,,,,,,0,,,,77,60
261900,note_on,80,0,5,,,,,,,,4,,,,61,45
261900,note_on,80,0,6,,,,,,,,5,,,,53,45
261900,note_on,80,0,4,,,,,,,,3,,,,68,45
262140,note_on,0,0,1,,,,,,,,0,,,,75,60
262140,note_off,240,0,1,,,,,,,,0,,,,77,64
262140,note_off,240,0,6,,,,,,,,5,,,,53,64
262140,note_off,240,0,5,,,,,,,,4,,,,61,64
262140,note_on,0,0,4,,,,,,,,3,,,,68,45
262140,note_off,240,0,4,,,,,,,,3,,,,68,64
262140,note_on,0,0,5,,,,,,,,4,,,,63,45
262140,note_on,0,0,6,,,,,,,,5,,,,56,45
262260,note_off,120,0,6,,,,,,,,5,,,,56,64
262260,note_off,120,0,1,,,,,,,,0,,,,75,64
262260,note_off,120,0,5,,,,,,,,4,,,,63,64
262260,note_off,120,0,4,,,,,,,,3,,,,68,64
262620,note_on,360,0,6,,,,,,,,5,,,,61,45
262620,note_on,360,0,5,,,,,,,,4,,,,65,45
262620,note_on,360,0,4,,,,,,,,3,,,,68,45
262620,note_on,360,0,1,,,,,,,,0,,,,73,60
263260,note_off,2080,0,7,,,,,,,,6,,,,44,64
263260,note_off,2080,0,8,,,,,,,,7,,,,37,64
263340,note_on,80,0,7,,,,,,,,6,,,,44,45
263340,note_on,80,0,8,,,,,,,,7,,,,37,45
263575,note_off,235,0,7,,,,,,,,6,,,,44,64
263575,note_off,235,0,8,,,,,,,,7,,,,37,64
263580,note_on,5,0,7,,,,,,,,6,,,,44,45
263580,note_on,5,0,8,,,,,,,,7,,,,37,45
263940,note_off,1320,0,1,,,,,,,,0,,,,73,64
263940,note_off,1320,0,6,,,,,,,,5,,,,61,64
263940,note_off,1320,0,5,,,,,,,,4,,,,65,64
263940,note_off,1320,0,4,,,,,,,,3,,,,68,64
263980,note_off,400,0,8,,,,,,,,7,,,,37,64
263980,note_off,400,0,7,,,,,,,,6,,,,44,64
264060,note_on,120,0,6,,,,,,,,5,,,,53,45
264060,note_on,120,0,5,,,,,,,,4,,,,61,45
264060,note_on,120,0,4,,,,,,,,3,,,,68,45
264060,note_on,80,0,7,,,,,,,,6,,,,44,45
264060,note_on,80,0,8,,,,,,,,7,,,,37,45
264060,note_on,120,0,1,,,,,,,,0,,,,77,60
264700,note_off,640,0,4,,,,,,,,3,,,,68,64
264700,note_off,640,0,6,,,,,,,,5,,,,53,64
264700,note_off,640,0,5,,,,,,,,4,,,,61,64
264700,note_off,640,0,1,,,,,,,,0,,,,77,64
264780,note_on,80,0,1,,,,,,,,0,,,,77,60
264780,note_on,80,0,6,,,,,,,,5,,,,53,45
264780,note_on,80,0,5,,,,,,,,4,,,,61,45
264780,note_on,80,0,4,,,,,,,,3,,,,68,45
265020,note_on,0,0,6,,,,,,,,5,,,,56,45
265020,note_off,240,0,6,,,,,,,,5,,,,53,64
265020,note_off,240,0,4,,,,,,,,3,,,,68,64
265020,note_off,240,0,1,,,,,,,,0,,,,77,64
265020,note_off,240,0,5,,,,,,,,4,,,,61,64
265020,note_on,0,0,1,,,,,,,,0,,,,75,60
265020,note_on,0,0,4,,,,,,,,3,,,,68,45
265020,note_on,0,0,5,,,,,,,,4,,,,63,45
265140,note_off,120,0,1,,,,,,,,0,,,,75,64
265140,note_off,120,0,4,,,,,,,,3,,,,68,64
265140,note_off,120,0,6,,,,,,,,5,,,,56,64
265140,note_off,120,0,5,,,,,,,,4,,,,63,64
265500,note_on,360,0,6,,,,,,,,5,,,,61,45
265500,note_on,360,0,4,,,,,,,,3,,,,68,45
265500,note_on,360,0,5,,,,,,,,4,,,,65,45
265500,note_on,360,0,1,,,,,,,,0,,,,73,60
266140,note_off,2080,0,8,,,,,,,,7,,,,37,64
266140,note_off,2080,0,7,,,,,,,,6,,,,44,64
266220,note_on,80,0,7,,,,,,,,6,,,,44,45
266220,note_on,80,0,8,,,,,,,,7,,,,37,45
266455,note_off,235,0,8,,,,,,,,7,,,,37,64
266455,note_off,235,0,7,,,,,,,,6,,,,44,64
266460,note_on,5,0,7,,,,,,,,6,,,,44,45
266460,note_on,5,0,8,,,,,,,,7,,,,37,45
266820,note_off,1320,0,1,,,,,,,,0,,,,73,64
266820,note_off,1320,0,5,,,,,,,,4,,,,65,64
266820,note_off,1320,0,4,,,,,,,,3,,,,68,64
266820,note_off,1320,0,6,,,,,,,,5,,,,61,64
266860,note_off,400,0,8,,,,,,,,7,,,,37,64
266860,note_off,400,0,7,,,,,,,,6,,,,44,64
266940,note_on,80,0,8,,,,,,,,7,,,,37,45
266940,note_on,80,0,7,,,,,,,,6,,,,44,45
266940,note_on,120,0,5,,,,,,,,4,,,,63,45
266940,note_on,120,0,6,,,,,,,,5,,,,60,45
266940,note_on,120,0,4,,,,,,,,3,,,,68,45
266940,note_on,120,0,1,,,,,,,,0,,,,78,60
267580,note_off,640,0,6,,,,,,,,5,,,,60,64
267580,note_off,640,0,4,,,,,,,,3,,,,68,64
267580,note_off,640,0,1,,,,,,,,0,,,,78,64
267580,note_off,640,0,5,,,,,,,,4,,,,63,64
267660,note_on,80,0,5,,,,,,,,4,,,,63,45
267660,note_on,80,0,6,,,,,,,,5,,,,60,45
267660,note_on,80,0,1,,,,,,,,0,,,,78,60
267660,note_on,80,0,4,,,,,,,,3,,,,68,45
267900,note_off,240,0,1,,,,,,,,0,,,,78,64
267900,note_off,240,0,5,,,,,,,,4,,,,63,64
267900,note_on,0,0,5,,,,,,,,4,,,,65,45
267900,note_off,240,0,4,,,,,,,,3,,,,68,64
267900,note_on,0,0,1,,,,,,,,0,,,,77,60
267900,note_on,0,0,4,,,,,,,,3,,,,68,45
267900,note_off,240,0,6,,,,,,,,5,,,,60,64
267900,note_on,0,0,6,,,,,,,,5,,,,61,45
268020,note_off,120,0,4,,,,,,,,3,,,,68,64
268020,note_off,120,0,1,,,,,,,,0,,,,77,64
268020,note_off,120,0,6,,,,,,,,5,,,,61,64
268020,note_off,120,0,5,,,,,,,,4,,,,65,64
268380,note_on,360,0,4,,,,,,,,3,,,,68,45
268380,note_on,360,0,1,,,,,,,,0,,,,75,60
268380,note_on,360,0,5,,,,,,,,4,,,,66,45
268380,note_on,360,0,6,,,,,,,,5,,,,60,45
269020,note_off,2080,0,8,,,,,,,,7,,,,37,64
269020,note_off,2080,0,7,,,,,,,,6,,,,44,64
269100,note_on,80,0,7,,,,,,,,6,,,,44,45
269100,note_on,80,0,8,,,,,,,,7,,,,37,45
269335,note_off,235,0,7,,,,,,,,6,,,,44,64
269335,note_off,235,0,8,,,,,,,,7,,,,37,64
269340,note_on,5,0,8,,,,,,,,7,,,,37,45
269340,note_on,5,0,7,,,,,,,,6,,,,44,45
269700,note_off,1320,0,6,,,,,,,,5,,,,60,64
269700,note_off,1320,0,4,,,,,,,,3,,,,68,64
269700,note_off,1320,0,5,,,,,,,,4,,,,66,64
269700,note_off,1320,0,1,,,,,,,,0,,,,75,64
269740,note_off,400,0,8,,,,,,,,7,,,,37,64
269740,note_off,400,0,7,,,,,,,,6,,,,44,64
269820,note_on,120,0,4,,,,,,,,3,,,,68,45
269820,note_on,120,0,5,,,,,,,,4,,,,63,45
269820,note_on,120,0,1,,,,,,,,0,,,,78,60
269820,note_on,120,0,6,,,,,,,,5,,,,60,45
269820,note_on,80,0,7,,,,,,,,6,,,,44,45
269820,note_on,80,0,8,,,,,,,,7,,,,37,45
270460,note_off,640,0,6,,,,,,,,5,,,,60,64
270460,note_off,640,0,5,,,,,,,,4,,,,63,64
270460,note_off,640,0,4,,,,,,,,3,,,,68,64
270460,note_off,640,0,1,,,,,,,,0,,,,78,64
270540,note_on,80,0,1,,,,,,,,0,,,,78,60
270540,note_on,80,0,6,,,,,,,,5,,,,60,45
270540,note_on,80,0,4,,,,,,,,3,,,,68,45
270540,note_on,80,0,5,,,,,,,,4,,,,63,45
270780,note_off,240,0,1,,,,,,,,0,,,,78,64
270780,note_on,0,0,1,,,,,,,,0,,,,77,60
270780,note_on,0,0,5,,,,,,,,4,,,,65,45
270780,note_off,240,0,4,,,,,,,,3,,,,68,64
270780,note_on,0,0,4,,,,,,,,3,,,,68,45
270780,note_off,240,0,5,,,,,,,,4,,,,63,64
270780,note_off,240,0,6,,,,,,,,5,,,,60,64
270780,note_on,0,0,6,,,,,,,,5,,,,61,45
270900,note_off,120,0,1,,,,,,,,0,,,,77,64
270900,note_off,120,0,5,,,,,,,,4,,,,65,64
270900,note_off,120,0,4,,,,,,,,3,,,,68,64
270900,note_off,120,0,6,,,,,,,,5,,,,61,64
271260,note_on,360,0,5,,,,,,,,4,,,,66,45
271260,note_on,360,0,6,,,,,,,,5,,,,60,45
271260,note_on,360,0,1,,,,,,,,0,,,,75,60
271260,note_on,360,0,4,,,,,,,,3,,,,68,45
271900,note_off,2080,0,7,,,,,,,,6,,,,44,64
271900,note_off,2080,0,8,,,,,,,,7,,,,37,64
271980,note_on,80,0,8,,,,,,,,7,,,,37,45
271980,note_on,80,0,7,,,,,,,,6,,,,44,45
272215,note_off,235,0,8,,,,,,,,7,,,,37,64
272215,note_off,235,0,7,,,,,,,,6,,,,44,64
272220,note_on,5,0,8,,,,,,,,7,,,,37,45
272220,note_on,5,0,7,,,,,,,,6,,,,44,45
272580,note_off,1320,0,1,,,,,,,,0,,,,75,64
272580,note_off,1320,0,5,,,,,,,,4,,,,66,64
272580,note_off,1320,0,4,,,,,,,,3,,,,68,64
272580,note_off,1320,0,6,,,,,,,,5,,,,60,64
272620,note_off,400,0,7,,,,,,,,6,,,,44,64
272620,note_off,400,0,8,,,,,,,,7,,,,37,64
272700,note_on,120,0,5,,,,,,,,4,,,,68,45
272700,note_on,120,0,6,,,,,,,,5,,,,61,45
272700,note_on,80,0,7,,,,,,,,6,,,,44,45
272700,note_on,80,0,8,,,,,,,,7,,,,37,45
272700,note_on,120,0,1,,,,,,,,0,,,,68,60
272700,note_on,21260,0,2,,,,,,,,1,,,,53,60
272700,note_on,120,0,4,,,,,,,,3,,,,77,60
273340,note_off,640,0,2,,,,,,,,1,,,,53,64
273340,note_off,640,0,4,,,,,,,,3,,,,77,64
273340,note_off,640,0,5,,,,,,,,4,,,,68,64
273340,note_off,640,0,6,,,,,,,,5,,,,61,64
273420,note_on,80,0,4,,,,,,,,3,,,,77,60
273420,note_on,80,0,2,,,,,,,,1,,,,53,60
273420,note_on,80,0,5,,,,,,,,4,,,,68,45
273420,note_on,80,0,6,,,,,,,,5,,,,61,45
273660,note_on,0,0,2,,,,,,,,1,,,,56,60
273660,note_off,240,0,6,,,,,,,,5,,,,61,64
273660,note_off,240,0,2,,,,,,,,1,,,,53,64
273660,note_on,0,0,6,,,,,,,,5,,,,63,45
273660,note_off,240,0,5,,,,,,,,4,,,,68,64
273660,note_on,0,0,4,,,,,,,,3,,,,75,60
273660,note_on,0,0,5,,,,,,,,4,,,,68,45
273660,note_off,240,0,4,,,,,,,,3,,,,77,64
273780,note_off,120,0,5,,,,,,,,4,,,,68,64
273780,note_off,120,0,2,,,,,,,,1,,,,56,64
273780,note_off,120,0,6,,,,,,,,5,,,,63,64
273780,note_off,120,0,4,,,,,,,,3,,,,75,64
274140,note_on,360,0,2,,,,,,,,1,,,,61,60
274140,note_on,360,0,4,,,,,,,,3,,,,73,60
274140,note_on,360,0,6,,,,,,,,5,,,,65,45
274140,note_on,360,0,5,,,,,,,,4,,,,68,45
274620,note_on,0,0,1,,,,,,,,0,,,,73,60
274620,note_off,1920,0,1,,,,,,,,0,,,,68,64
274780,note_off,2080,0,7,,,,,,,,6,,,,44,64
274780,note_off,2080,0,8,,,,,,,,7,,,,37,64
274860,note_on,80,0,8,,,,,,,,7,,,,37,45
274860,note_on,80,0,7,,,,,,,,6,,,,44,45
275095,note_off,235,0,8,,,,,,,,7,,,,37,64
275095,note_off,235,0,7,,,,,,,,6,,,,44,64
275100,note_on,5,0,7,,,,,,,,6,,,,44,45
275100,note_off,480,0,1,,,,,,,,0,,,,73,64
275100,note_on,0,0,1,,,,,,,,0,,,,68,60
275100,note_on,5,0,8,,,,,,,,7,,,,37,45
275460,note_off,1320,0,5,,,,,,,,4,,,,68,64
275460,note_off,1320,0,4,,,,,,,,3,,,,73,64
275460,note_off,1320,0,2,,,,,,,,1,,,,61,64
275460,note_off,1320,0,6,,,,,,,,5,,,,65,64
275500,note_off,400,0,7,,,,,,,,6,,,,44,64
275500,note_off,400,0,1,,,,,,,,0,,,,68,64
275500,note_off,400,0,8,,,,,,,,7,,,,37,64
275580,note_on,80,0,1,,,,,,,,0,,,,68,60
275580,note_on,120,0,4,,,,,,,,3,,,,77,60
275580,note_on,120,0,2,,,,,,,,1,,,,53,60
275580,note_on,120,0,6,,,,,,,,5,,,,61,45
275580,note_on,120,0,5,,,,,,,,4,,,,68,45
275580,note_on,80,0,8,,,,,,,,7,,,,37,45
275580,note_on,80,0,7,,,,,,,,6,,,,44,45
276220,note_off,640,0,2,,,,,,,,1,,,,53,64
276220,note_off,640,0,6,,,,,,,,5,,,,61,64
276220,note_off,640,0,5,,,,,,,,4,,,,68,64
276220,note_off,640,0,4,,,,,,,,3,,,,77,64
276300,note_on,80,0,6,,,,,,,,5,,,,61,45
276300,note_on,80,0,5,,,,,,,,4,,,,68,45
276300,note_on,80,0,2,,,,,,,,1,,,,53,60
276300,note_on,80,0,4,,,,,,,,3,,,,77,60
276540,note_on,0,0,5,,,,,,,,4,,,,68,45
276540,note_off,240,0,5,,,,,,,,4,,,,68,64
276540,note_off,240,0,2,,,,,,,,1,,,,53,64
276540,note_on,0,0,2,,,,,,,,1,,,,56,60
276540,note_off,240,0,6,,,,,,,,5,,,,61,64
276540,note_on,0,0,6,,,,,,,,5,,,,63,45
276540,note_on,0,0,4,,,,,,,,3,,,,75,60
276540,note_off,240,0,4,,,,,,,,3,,,,77,64
276660,note_off,120,0,6,,,,,,,,5,,,,63,64
276660,note_off,120,0,5,,,,,,,,4,,,,68,64
276660,note_off,120,0,2,,,,,,,,1,,,,56,64
276660,note_off,120,0,4,,,,,,,,3,,,,75,64
277020,note_on,360,0,2,,,,,,,,1,,,,61,60
277020,note_on,360,0,4,,,,,,,,3,,,,73,60
277020,note_on,360,0,6,,,,,,,,5,,,,65,45
277020,note_on,360,0,5,,,,,,,,4,,,,68,45
277500,note_on,0,0,1,,,,,,,,0,,,,73,60
277500,note_off,1920,0,1,,,,,,,,0,,,,68,64
277660,note_off,2080,0,8,,,,,,,,7,,,,37,64
277660,note_off,2080,0,7,,,,,,,,6,,,,44,64
277740,note_on,80,0,8,,,,,,,,7,,,,37,45
277740,note_on,80,0,7,,,,,,,,6,,,,44,45
277975,note_off,235,0,7,,,,,,,,6,,,,44,64
277975,note_off,235,0,8,,,,,,,,7,,,,37,64
277980,note_on,0,0,1,,,,,,,,0,,,,68,60
277980,note_off,480,0,1,,,,,,,,0,,,,73,64
277980,note_on,5,0,7,,,,,,,,6,,,,44,45
277980,note_on,5,0,8,,,,,,,,7,,,,37,45
278340,note_off,1320,0,5,,,,,,,,4,,,,68,64
278340,note_off,1320,0,6,,,,,,,,5,,,,65,64
278340,note_off,1320,0,2,,,,,,,,1,,,,61,64
278340,note_off,1320,0,4,,,,,,,,3,,,,73,64
278380,note_off,400,0,7,,,,,,,,6,,,,44,64
278380,note_off,400,0,1,,,,,,,,0,,,,68,64
278380,note_off,400,0,8,,,,,,,,7,,,,37,64
278460,note_on,120,0,5,,,,,,,,4,,,,68,45
278460,note_on,80,0,1,,,,,,,,0,,,,68,60
278460,note_on,80,0,7,,,,,,,,6,,,,44,45
278460,note_on,120,0,4,,,,,,,,3,,,,78,60
278460,note_on,120,0,6,,,,,,,,5,,,,63,45
278460,note_on,80,0,8,,,,,,,,7,,,,37,45
278460,note_on,120,0,2,,,,,,,,1,,,,60,60
279100,note_off,640,0,4,,,,,,,,3,,,,78,64
279100,note_off,640,0,6,,,,,,,,5,,,,63,64
279100,note_off,640,0,5,,,,,,,,4,,,,68,64
279100,note_off,640,0,2,,,,,,,,1,,,,60,64
279180,note_on,80,0,4,,,,,,,,3,,,,78,60
279180,note_on,80,0,6,,,,,,,,5,,,,63,45
279180,note_on,80,0,5,,,,,,,,4,,,,68,45
279180,note_on,80,0,2,,,,,,,,1,,,,60,60
279420,note_off,240,0,4,,,,,,,,3,,,,78,64
279420,note_off,240,0,2,,,,,,,,1,,,,60,64
279420,note_on,0,0,4,,,,,,,,3,,,,77,60
279420,note_on,0,0,2,,,,,,,,1,,,,61,60
279420,note_off,240,0,5,,,,,,,,4,,,,68,64
279420,note_on,0,0,5,,,,,,,,4,,,,68,45
279420,note_on,0,0,6,,,,,,,,5,,,,65,45
279420,note_off,240,0,6,,,,,,,,5,,,,63,64
279540,note_off,120,0,2,,,,,,,,1,,,,61,64
279540,note_off,120,0,6,,,,,,,,5,,,,65,64
279540,note_off,120,0,5,,,,,,,,4,,,,68,64
279540,note_off,120,0,4,,,,,,,,3,,,,77,64
279900,note_on,360,0,4,,,,,,,,3,,,,75,60
279900,note_on,360,0,6,,,,,,,,5,,,,66,45
279900,note_on,360,0,5,,,,,,,,4,,,,68,45
279900,note_on,360,0,2,,,,,,,,1,,,,60,60
280380,note_off,1920,0,1,,,,,,,,0,,,,68,64
280380,note_on,0,0,1,,,,,,,,0,,,,75,60
280540,note_off,2080,0,7,,,,,,,,6,,,,44,64
280540,note_off,2080,0,8,,,,,,,,7,,,,37,64
280620,note_on,80,0,7,,,,,,,,6,,,,44,45
280620,note_on,80,0,8,,,,,,,,7,,,,37,45
280855,note_off,235,0,7,,,,,,,,6,,,,44,64
280855,note_off,235,0,8,,,,,,,,7,,,,37,64
280860,note_off,480,0,1,,,,,,,,0,,,,75,64
280860,note_on,5,0,7,,,,,,,,6,,,,44,45
280860,note_on,5,0,8,,,,,,,,7,,,,37,45
280860,note_on,0,0,1,,,,,,,,0,,,,68,60
281220,note_off,1320,0,6,,,,,,,,5,,,,66,64
281220,note_off,1320,0,5,,,,,,,,4,,,,68,64
281220,note_off,1320,0,4,,,,,,,,3,,,,75,64
281220,note_off,1320,0,2,,,,,,,,1,,,,60,64
281260,note_off,400,0,7,,,,,,,,6,,,,44,64
281260,note_off,400,0,8,,,,,,,,7,,,,37,64
281260,note_off,400,0,1,,,,,,,,0,,,,68,64
281340,note_on,120,0,6,,,,,,,,5,,,,63,45
281340,note_on,120,0,5,,,,,,,,4,,,,68,45
281340,note_on,80,0,7,,,,,,,,6,,,,44,45
281340,note_on,120,0,4,,,,,,,,3,,,,78,60
281340,note_on,80,0,1,,,,,,,,0,,,,68,60
281340,note_on,120,0,2,,,,,,,,1,,,,60,60
281340,note_on,80,0,8,,,,,,,,7,,,,37,45
281980,note_off,640,0,4,,,,,,,,3,,,,78,64
281980,note_off,640,0,2,,,,,,,,1,,,,60,64
281980,note_off,640,0,6,,,,,,,,5,,,,63,64
281980,note_off,640,0,5,,,,,,,,4,,,,68,64
282060,note_on,80,0,6,,,,,,,,5,,,,63,45
282060,note_on,80,0,2,,,,,,,,1,,,,60,60
282060,note_on,80,0,4,,,,,,,,3,,,,78,60
282060,note_on,80,0,5,,,,,,,,4,,,,68,45
282300,note_on,0,0,5,,,,,,,,4,,,,68,45
282300,note_off,240,0,5,,,,,,,,4,,,,68,64
282300,note_on,0,0,4,,,,,,,,3,,,,77,60
282300,note_on,0,0,2,,,,,,,,1,,,,61,60
282300,note_off,240,0,2,,,,,,,,1,,,,60,64
282300,note_off,240,0,6,,,,,,,,5,,,,63,64
282300,note_off,240,0,4,,,,,,,,3,,,,78,64
282300,note_on,0,0,6,,,,,,,,5,,,,65,45
282420,note_off,120,0,4,,,,,,,,3,,,,77,64
282420,note_off,120,0,6,,,,,,,,5,,,,65,64
282420,note_off,120,0,5,,,,,,,,4,,,,68,64
282420,note_off,120,0,2,,,,,,,,1,,,,61,64
282780,note_on,360,0,6,,,,,,,,5,,,,66,45
282780,note_on,360,0,5,,,,,,,,4,,,,68,45
282780,note_on,360,0,2,,,,,,,,1,,,,60,60
282780,note_on,360,0,4,,,,,,,,3,,,,75,60
283260,note_off,1920,0,1,,,,,,,,0,,,,68,64
283260,note_on,0,0,1,,,,,,,,0,,,,75,60
283420,note_off,2080,0,8,,,,,,,,7,,,,37,64
283420,note_off,2080,0,7,,,,,,,,6,,,,44,64
283500,note_on,80,0,8,,,,,,,,7,,,,37,45
283500,note_on,80,0,7,,,,,,,,6,,,,44,45
283735,note_off,235,0,7,,,,,,,,6,,,,44,64
283735,note_off,235,0,8,,,,,,,,7,,,,37,64
283740,note_on,5,0,7,,,,,,,,6,,,,44,45
283740,note_on,5,0,8,,,,,,,,7,,,,37,45
283740,note_on,0,0,1,,,,,,,,0,,,,68,60
283740,note_off,480,0,1,,,,,,,,0,,,,75,64
284100,note_off,1320,0,5,,,,,,,,4,,,,68,64
284100,note_off,1320,0,4,,,,,,,,3,,,,75,64
284100,note_off,1320,0,6,,,,,,,,5,,,,66,64
284100,note_off,1320,0,2,,,,,,,,1,,,,60,64
284140,note_off,400,0,8,,,,,,,,7,,,,37,64
284140,note_off,400,0,1,,,,,,,,0,,,,68,64
284140,note_off,400,0,7,,,,,,,,6,,,,44,64
284220,set_tempo,23040,1,0,243902,,,,,,,,,,,,
284220,note_on,120,0,2,,,,,,,,1,,,,65,60
284220,note_on,80,0,8,,,,,,,,7,,,,33,45
284220,note_on,80,0,7,,,,,,,,6,,,,45,45
284220,note_on,120,0,6,,,,,,,,5,,,,57,45
284220,note_on,0,0,5,,,,,,,,4,,,,69,45
284220,note_on,120,0,4,,,,,,,,3,,,,77,45
284220,note_on,120,0,5,,,,,,,,4,,,,61,45
284220,note_on,0,0,6,,,,,,,,5,,,,65,45
284620,note_off,400,0,8,,,,,,,,7,,,,33,64
284620,note_off,400,0,7,,,,,,,,6,,,,45,64
284860,note_off,0,0,5,,,,,,,,4,,,,61,64
284860,note_off,640,0,5,,,,,,,,4,,,,69,64
284860,note_off,640,0,6,,,,,,,,5,,,,65,64
284860,note_off,0,0,6,,,,,,,,5,,,,57,64
284940,note_on,0,0,6,,,,,,,,5,,,,65,45
284940,note_on,80,0,5,,,,,,,,4,,,,61,45
284940,note_on,80,0,6,,,,,,,,5,,,,57,45
284940,note_on,0,0,5,,,,,,,,4,,,,69,45
285175,note_off,235,0,6,,,,,,,,5,,,,65,64
285175,note_off,0,0,6,,,,,,,,5,,,,57,64
285175,note_off,235,0,5,,,,,,,,4,,,,69,64
285175,note_off,0,0,5,,,,,,,,4,,,,61,64
285180,note_on,5,0,6,,,,,,,,5,,,,57,45
285180,note_on,0,0,6,,,,,,,,5,,,,65,45
285180,note_on,0,0,5,,,,,,,,4,,,,69,45
285180,note_on,5,0,5,,,,,,,,4,,,,61,45
285580,note_off,400,0,6,,,,,,,,5,,,,65,64
285580,note_off,400,0,5,,,,,,,,4,,,,69,64
285580,note_off,0,0,6,,,,,,,,5,,,,57,64
285580,note_off,0,0,5,,,,,,,,4,,,,61,64
285660,note_on,1040,0,7,,,,,,,,6,,,,41,45
285660,note_on,0,0,5,,,,,,,,4,,,,69,45
285660,note_on,0,0,6,,,,,,,,5,,,,65,45
285660,note_on,80,0,6,,,,,,,,5,,,,57,45
285660,note_on,1040,0,8,,,,,,,,7,,,,29,45
285660,note_on,80,0,5,,,,,,,,4,,,,61,45
286060,note_off,400,0,7,,,,,,,,6,,,,41,64
286060,note_off,400,0,8,,,,,,,,7,,,,29,64
286300,note_off,640,0,5,,,,,,,,4,,,,69,64
286300,note_off,0,0,5,,,,,,,,4,,,,61,64
286300,note_off,640,0,6,,,,,,,,5,,,,65,64
286300,note_off,0,0,6,,,,,,,,5,,,,57,64
286380,note_on,80,0,6,,,,,,,,5,,,,57,45
286380,note_on,0,0,6,,,,,,,,5,,,,65,45
286380,note_on,0,0,5,,,,,,,,4,,,,69,45
286380,note_on,80,0,5,,,,,,,,4,,,,61,45
286615,note_off,0,0,6,,,,,,,,5,,,,57,64
286615,note_off,235,0,6,,,,,,,,5,,,,65,64
286615,note_off,0,0,5,,,,,,,,4,,,,61,64
286615,note_off,235,0,5,,,,,,,,4,,,,69,64
286620,note_on,5,0,5,,,,,,,,4,,,,61,45
286620,note_on,0,0,6,,,,,,,,5,,,,65,45
286620,note_on,5,0,6,,,,,,,,5,,,,57,45
286620,note_on,0,0,5,,,,,,,,4,,,,69,45
287020,note_off,0,0,6,,,,,,,,5,,,,57,64
287020,note_off,400,0,6,,,,,,,,5,,,,65,64
287020,note_off,0,0,5,,,,,,,,4,,,,61,64
287020,note_off,400,0,5,,,,,,,,4,,,,69,64
287100,note_on,0,0,5,,,,,,,,4,,,,70,45
287100,note_on,80,0,5,,,,,,,,4,,,,61,45
287100,note_on,80,0,6,,,,,,,,5,,,,58,45
287100,note_on,1040,0,8,,,,,,,,7,,,,34,45
287100,note_on,0,0,6,,,,,,,,5,,,,65,45
287100,note_on,1040,0,7,,,,,,,,6,,,,46,45
287580,note_on,0,0,4,,,,,,,,3,,,,78,45
287580,note_on,0,0,2,,,,,,,,1,,,,66,60
287580,note_off,3360,0,2,,,,,,,,1,,,,65,64
287580,note_off,3360,0,4,,,,,,,,3,,,,77,64
287740,note_off,640,0,6,,,,,,,,5,,,,65,64
287740,note_off,0,0,6,,,,,,,,5,,,,58,64
287740,note_off,640,0,8,,,,,,,,7,,,,34,64
287740,note_off,0,0,5,,,,,,,,4,,,,61,64
287740,note_off,640,0,5,,,,,,,,4,,,,70,64
287740,note_off,640,0,7,,,,,,,,6,,,,46,64
287820,note_on,80,0,6,,,,,,,,5,,,,58,45
287820,note_on,0,0,6,,,,,,,,5,,,,65,45
287820,note_on,80,0,8,,,,,,,,7,,,,34,45
287820,note_on,80,0,5,,,,,,,,4,,,,61,45
287820,note_on,80,0,7,,,,,,,,6,,,,46,45
287820,note_on,0,0,5,,,,,,,,4,,,,70,45
288055,note_off,235,0,7,,,,,,,,6,,,,46,64
288055,note_off,235,0,6,,,,,,,,5,,,,65,64
288055,note_off,0,0,6,,,,,,,,5,,,,58,64
288055,note_off,235,0,8,,,,,,,,7,,,,34,64
288055,note_off,235,0,5,,,,,,,,4,,,,70,64
288055,note_off,0,0,5,,,,,,,,4,,,,61,64
288060,note_on,5,0,8,,,,,,,,7,,,,34,45
288060,note_off,480,0,2,,,,,,,,1,,,,66,64
288060,note_off,480,0,4,,,,,,,,3,,,,78,64
288060,note_on,0,0,4,,,,,,,,3,,,,77,45
288060,note_on,5,0,6,,,,,,,,5,,,,58,45
288060,note_on,0,0,6,,,,,,,,5,,,,65,45
288060,note_on,0,0,5,,,,,,,,4,,,,70,45
288060,note_on,5,0,5,,,,,,,,4,,,,61,45
288060,note_on,0,0,2,,,,,,,,1,,,,65,60
288060,note_on,5,0,7,,,,,,,,6,,,,46,45
288460,note_off,400,0,5,,,,,,,,4,,,,70,64
288460,note_off,400,0,7,,,,,,,,6,,,,46,64
288460,note_off,400,0,8,,,,,,,,7,,,,34,64
288460,note_off,400,0,6,,,,,,,,5,,,,65,64
288460,note_off,0,0,6,,,,,,,,5,,,,58,64
288460,note_off,0,0,5,,,,,,,,4,,,,61,64
288540,note_on,80,0,7,,,,,,,,6,,,,49,45
288540,note_on,0,0,2,,,,,,,,1,,,,61,60
288540,note_off,480,0,4,,,,,,,,3,,,,77,64
288540,note_on,0,0,4,,,,,,,,3,,,,73,45
288540,note_on,0,0,5,,,,,,,,4,,,,70,45
288540,note_on,80,0,5,,,,,,,,4,,,,61,45
288540,note_off,480,0,2,,,,,,,,1,,,,65,64
288540,note_on,0,0,6,,,,,,,,5,,,,65,45
288540,note_on,80,0,8,,,,,,,,7,,,,37,45
288540,set_tempo,4320,1,0,239043,,,,,,,,,,,,
288540,note_on,80,0,6,,,,,,,,5,,,,58,45
288940,note_off,400,0,8,,,,,,,,7,,,,37,64
288940,note_off,400,0,7,,,,,,,,6,,,,49,64
289020,note_on,0,0,2,,,,,,,,1,,,,60,60
289020,note_off,480,0,2,,,,,,,,1,,,,61,64
289020,note_off,480,0,4,,,,,,,,3,,,,73,64
289020,note_on,0,0,4,,,,,,,,3,,,,72,45
289180,note_off,0,0,6,,,,,,,,5,,,,58,64
289180,note_off,640,0,6,,,,,,,,5,,,,65,64
289180,note_off,0,0,5,,,,,,,,4,,,,61,64
289180,note_off,640,0,5,,,,,,,,4,,,,70,64
289260,note_on,0,0,5,,,,,,,,4,,,,70,45
289260,note_on,80,0,5,,,,,,,,4,,,,61,45
289260,note_on,0,0,6,,,,,,,,5,,,,65,45
289260,note_on,80,0,6,,,,,,,,5,,,,58,45
289495,note_off,0,0,5,,,,,,,,4,,,,61,64
289495,note_off,235,0,5,,,,,,,,4,,,,70,64
289495,note_off,0,0,6,,,,,,,,5,,,,58,64
289495,note_off,235,0,6,,,,,,,,5,,,,65,64
289500,note_on,5,0,6,,,,,,,,5,,,,58,45
289500,note_off,480,0,2,,,,,,,,1,,,,60,64
289500,note_on,0,0,4,,,,,,,,3,,,,70,45
289500,note_on,0,0,2,,,,,,,,1,,,,58,60
289500,note_on,5,0,5,,,,,,,,4,,,,61,45
289500,note_on,0,0,5,,,,,,,,4,,,,70,45
289500,note_off,480,0,4,,,,,,,,3,,,,72,64
289500,note_on,0,0,6,,,,,,,,5,,,,65,45
289900,note_off,0,0,6,,,,,,,,5,,,,58,64
289900,note_off,400,0,2,,,,,,,,1,,,,58,64
289900,note_off,400,0,4,,,,,,,,3,,,,70,64
289900,note_off,400,0,5,,,,,,,,4,,,,70,64
289900,note_off,0,0,5,,,,,,,,4,,,,61,64
289900,note_off,400,0,6,,,,,,,,5,,,,65,64
289980,note_on,80,0,6,,,,,,,,5,,,,57,45
289980,note_on,0,0,6,,,,,,,,5,,,,65,45
289980,note_on,1040,0,7,,,,,,,,6,,,,45,45
289980,note_on,80,0,4,,,,,,,,3,,,,77,45
289980,note_on,1040,0,8,,,,,,,,7,,,,33,45
289980,note_on,80,0,5,,,,,,,,4,,,,61,45
289980,note_on,0,0,5,,,,,,,,4,,,,69,45
289980,note_on,80,0,2,,,,,,,,1,,,,65,60
289980,set_tempo,1440,1,0,234375,,,,,,,,,,,,
290380,note_off,400,0,7,,,,,,,,6,,,,45,64
290380,note_off,400,0,8,,,,,,,,7,,,,33,64
290620,note_off,640,0,5,,,,,,,,4,,,,69,64
290620,note_off,0,0,6,,,,,,,,5,,,,57,64
290620,note_off,0,0,5,,,,,,,,4,,,,61,64
290620,note_off,640,0,6,,,,,,,,5,,,,65,64
290700,note_on,80,0,6,,,,,,,,5,,,,57,45
290700,note_on,0,0,6,,,,,,,,5,,,,65,45
290700,note_on,80,0,5,,,,,,,,4,,,,61,45
290700,note_on,0,0,5,,,,,,,,4,,,,69,45
290935,note_off,0,0,5,,,,,,,,4,,,,61,64
290935,note_off,235,0,6,,,,,,,,5,,,,65,64
290935,note_off,0,0,6,,,,,,,,5,,,,57,64
290935,note_off,235,0,5,,,,,,,,4,,,,69,64
290940,note_on,5,0,6,,,,,,,,5,,,,57,45
290940,note_on,0,0,5,,,,,,,,4,,,,69,45
290940,note_on,5,0,5,,,,,,,,4,,,,61,45
290940,note_on,0,0,6,,,,,,,,5,,,,65,45
291340,note_off,0,0,6,,,,,,,,5,,,,57,64
291340,note_off,0,0,5,,,,,,,,4,,,,61,64
291340,note_off,400,0,5,,,,,,,,4,,,,69,64
291340,note_off,400,0,6,,,,,,,,5,,,,65,64
291420,note_on,1040,0,7,,,,,,,,6,,,,41,45
291420,note_on,80,0,5,,,,,,,,4,,,,61,45
291420,note_on,1040,0,8,,,,,,,,7,,,,29,45
291420,note_on,80,0,6,,,,,,,,5,,,,57,45
291420,note_on,0,0,6,,,,,,,,5,,,,65,45
291420,note_on,0,0,5,,,,,,,,4,,,,69,45
291820,note_off,400,0,8,,,,,,,,7,,,,29,64
291820,note_off,400,0,7,,,,,,,,6,,,,41,64
292060,note_off,640,0,5,,,,,,,,4,,,,69,64
292060,note_off,0,0,5,,,,,,,,4,,,,61,64
292060,note_off,640,0,6,,,,,,,,5,,,,65,64
292060,note_off,0,0,6,,,,,,,,5,,,,57,64
292140,note_on,80,0,5,,,,,,,,4,,,,61,45
292140,note_on,80,0,6,,,,,,,,5,,,,57,45
292140,note_on,0,0,6,,,,,,,,5,,,,65,45
292140,note_on,0,0,5,,,,,,,,4,,,,69,45
292375,note_off,0,0,5,,,,,,,,4,,,,61,64
292375,note_off,235,0,5,,,,,,,,4,,,,69,64
292375,note_off,235,0,6,,,,,,,,5,,,,65,64
292375,note_off,0,0,6,,,,,,,,5,,,,57,64
292380,note_on,5,0,5,,,,,,,,4,,,,61,45
292380,note_on,0,0,5,,,,,,,,4,,,,69,45
292380,note_on,0,0,6,,,,,,,,5,,,,65,45
292380,note_on,5,0,6,,,,,,,,5,,,,57,45
292780,note_off,0,0,5,,,,,,,,4,,,,61,64
292780,note_off,0,0,6,,,,,,,,5,,,,57,64
292780,note_off,400,0,5,,,,,,,,4,,,,69,64
292780,note_off,400,0,6,,,,,,,,5,,,,65,64
292860,note_on,80,0,6,,,,,,,,5,,,,58,45
292860,note_on,1040,0,7,,,,,,,,6,,,,46,45
292860,note_on,0,0,5,,,,,,,,4,,,,70,45
292860,note_on,1040,0,8,,,,,,,,7,,,,34,45
292860,note_on,80,0,5,,,,,,,,4,,,,61,45
292860,note_on,0,0,6,,,,,,,,5,,,,65,45
293340,set_tempo,3360,1,0,232558,,,,,,,,,,,,
293340,note_on,0,0,2,,,,,,,,1,,,,66,60
293340,note_off,3360,0,4,,,,,,,,3,,,,77,64
293340,note_on,0,0,4,,,,,,,,3,,,,78,45
293340,note_off,3360,0,2,,,,,,,,1,,,,65,64
293500,note_off,0,0,6,,,,,,,,5,,,,58,64
293500,note_off,640,0,6,,,,,,,,5,,,,65,64
293500,note_off,0,0,5,,,,,,,,4,,,,61,64
293500,note_off,640,0,5,,,,,,,,4,,,,70,64
293500,note_off,640,0,8,,,,,,,,7,,,,34,64
293500,note_off,640,0,7,,,,,,,,6,,,,46,64
293580,note_on,80,0,5,,,,,,,,4,,,,61,45
293580,note_on,80,0,8,,,,,,,,7,,,,34,45
293580,note_on,80,0,7,,,,,,,,6,,,,46,45
293580,note_on,80,0,6,,,,,,,,5,,,,58,45
293580,note_on,0,0,5,,,,,,,,4,,,,70,45
293580,note_on,0,0,6,,,,,,,,5,,,,65,45
293815,note_off,235,0,5,,,,,,,,4,,,,70,64
293815,note_off,0,0,5,,,,,,,,4,,,,61,64
293815,note_off,235,0,7,,,,,,,,6,,,,46,64
293815,note_off,0,0,6,,,,,,,,5,,,,58,64
293815,note_off,235,0,8,,,,,,,,7,,,,34,64
293815,note_off,235,0,6,,,,,,,,5,,,,65,64
293820,note_on,0,0,6,,,,,,,,5,,,,65,45
293820,note_off,480,0,2,,,,,,,,1,,,,66,64
293820,note_off,480,0,4,,,,,,,,3,,,,78,64
293820,note_on,5,0,6,,,,,,,,5,,,,58,45
293820,note_on,0,0,2,,,,,,,,1,,,,65,60
293820,note_on,0,0,4,,,,,,,,3,,,,77,45
293820,note_on,5,0,8,,,,,,,,7,,,,34,45
293820,note_on,0,0,5,,,,,,,,4,,,,70,45
293820,note_on,5,0,5,,,,,,,,4,,,,61,45
293820,note_on,5,0,7,,,,,,,,6,,,,46,45
294220,note_off,400,0,8,,,,,,,,7,,,,34,64
294220,note_off,0,0,5,,,,,,,,4,,,,61,64
294220,note_off,400,0,5,,,,,,,,4,,,,70,64
294220,note_off,400,0,6,,,,,,,,5,,,,65,64
294220,note_off,0,0,6,,,,,,,,5,,,,58,64
294220,note_off,400,0,7,,,,,,,,6,,,,46,64
294300,note_off,480,0,2,,,,,,,,1,,,,65,64
294300,note_on,0,0,6,,,,,,,,5,,,,65,45
294300,note_on,80,0,6,,,,,,,,5,,,,58,45
294300,note_on,0,0,2,,,,,,,,1,,,,61,60
294300,note_on,0,0,4,,,,,,,,3,,,,73,45
294300,note_on,0,0,5,,,,,,,,4,,,,70,45
294300,note_on,80,0,5,,,,,,,,4,,,,61,45
294300,note_on,80,0,7,,,,,,,,6,,,,49,45
294300,note_on,80,0,8,,,,,,,,7,,,,37,45
294300,note_off,480,0,4,,,,,,,,3,,,,77,64
294700,note_off,400,0,8,,,,,,,,7,,,,37,64
294700,note_off,400,0,7,,,,,,,,6,,,,49,64
294780,note_off,480,0,4,,,,,,,,3,,,,73,64
294780,note_on,0,0,4,,,,,,,,3,,,,72,45
294780,note_off,480,0,2,,,,,,,,1,,,,61,64
294780,note_on,0,0,2,,,,,,,,1,,,,60,60
294940,note_off,0,0,6,,,,,,,,5,,,,58,64
294940,note_off,640,0,6,,,,,,,,5,,,,65,64
294940,note_off,640,0,5,,,,,,,,4,,,,70,64
294940,note_off,0,0,5,,,,,,,,4,,,,61,64
295020,note_on,80,0,6,,,,,,,,5,,,,58,45
295020,note_on,0,0,6,,,,,,,,5,,,,65,45
295020,note_on,0,0,5,,,,,,,,4,,,,70,45
295020,note_on,80,0,5,,,,,,,,4,,,,61,45
295255,note_off,0,0,6,,,,,,,,5,,,,58,64
295255,note_off,235,0,6,,,,,,,,5,,,,65,64
295255,note_off,0,0,5,,,,,,,,4,,,,61,64
295255,note_off,235,0,5,,,,,,,,4,,,,70,64
295260,note_on,0,0,5,,,,,,,,4,,,,70,45
295260,note_on,5,0,6,,,,,,,,5,,,,58,45
295260,note_off,480,0,4,,,,,,,,3,,,,72,64
295260,note_on,0,0,4,,,,,,,,3,,,,70,45
295260,note_off,480,0,2,,,,,,,,1,,,,60,64
295260,note_on,5,0,5,,,,,,,,4,,,,61,45
295260,note_on,0,0,6,,,,,,,,5,,,,65,45
295260,note_on,0,0,2,,,,,,,,1,,,,58,60
295660,note_off,400,0,2,,,,,,,,1,,,,58,64
295660,note_off,400,0,6,,,,,,,,5,,,,65,64
295660,note_off,0,0,6,,,,,,,,5,,,,58,64
295660,note_off,0,0,5,,,,,,,,4,,,,61,64
295660,note_off,400,0,4,,,,,,,,3,,,,70,64
295660,note_off,400,0,5,,,,,,,,4,,,,70,64
295740,note_on,11600,0,1,,,,,,,,0,,,,78,45
295740,note_on,80,0,6,,,,,,,,5,,,,58,45
295740,note_on,1040,0,8,,,,,,,,7,,,,34,45
295740,note_on,0,0,6,,,,,,,,5,,,,66,45
295740,note_on,0,0,5,,,,,,,,4,,,,70,45
295740,note_on,80,0,5,,,,,,,,4,,,,61,45
295740,note_on,1040,0,7,,,,,,,,6,,,,46,45
295740,note_on,80,0,4,,,,,,,,3,,,,78,45
295740,note_on,80,0,2,,,,,,,,1,,,,66,60
296140,note_off,400,0,7,,,,,,,,6,,,,46,64
296140,note_off,400,0,8,,,,,,,,7,,,,34,64
296380,note_off,0,0,5,,,,,,,,4,,,,61,64
296380,note_off,640,0,5,,,,,,,,4,,,,70,64
296380,note_off,0,0,6,,,,,,,,5,,,,58,64
296380,note_off,640,0,6,,,,,,,,5,,,,66,64
296460,note_on,0,0,6,,,,,,,,5,,,,66,45
296460,note_on,80,0,5,,,,,,,,4,,,,61,45
296460,note_on,0,0,5,,,,,,,,4,,,,70,45
296460,note_on,80,0,6,,,,,,,,5,,,,58,45
296695,note_off,235,0,6,,,,,,,,5,,,,66,64
296695,note_off,0,0,6,,,,,,,,5,,,,58,64
296695,note_off,0,0,5,,,,,,,,4,,,,61,64
296695,note_off,235,0,5,,,,,,,,4,,,,70,64
296700,note_on,5,0,6,,,,,,,,5,,,,58,45
296700,note_on,0,0,5,,,,,,,,4,,,,70,45
296700,note_on,0,0,6,,,,,,,,5,,,,66,45
296700,note_on,5,0,5,,,,,,,,4,,,,61,45
297100,note_off,400,0,5,,,,,,,,4,,,,70,64
297100,note_off,0,0,6,,,,,,,,5,,,,58,64
297100,note_off,0,0,5,,,,,,,,4,,,,61,64
297100,note_off,400,0,6,,,,,,,,5,,,,66,64
297180,note_on,1040,0,8,,,,,,,,7,,,,30,45
297180,note_on,80,0,5,,,,,,,,4,,,,62,45
297180,note_on,1040,0,7,,,,,,,,6,,,,42,45
297180,note_on,80,0,6,,,,,,,,5,,,,58,45
297180,note_on,0,0,6,,,,,,,,5,,,,66,45
297180,note_on,0,0,5,,,,,,,,4,,,,70,45
297580,note_off,400,0,7,,,,,,,,6,,,,42,64
297580,note_off,400,0,8,,,,,,,,7,,,,30,64
297820,note_off,640,0,6,,,,,,,,5,,,,66,64
297820,note_off,0,0,6,,,,,,,,5,,,,58,64
297820,note_off,0,0,5,,,,,,,,4,,,,62,64
297820,note_off,640,0,5,,,,,,,,4,,,,70,64
297900,note_on,80,0,6,,,,,,,,5,,,,58,45
297900,note_on,0,0,6,,,,,,,,5,,,,66,45
297900,note_on,0,0,5,,,,,,,,4,,,,70,45
297900,note_on,80,0,5,,,,,,,,4,,,,62,45
298135,note_off,0,0,5,,,,,,,,4,,,,62,64
298135,note_off,235,0,5,,,,,,,,4,,,,70,64
298135,note_off,0,0,6,,,,,,,,5,,,,58,64
298135,note_off,235,0,6,,,,,,,,5,,,,66,64
298140,note_on,0,0,6,,,,,,,,5,,,,66,45
298140,note_on,5,0,6,,,,,,,,5,,,,58,45
298140,note_on,5,0,5,,,,,,,,4,,,,62,45
298140,note_on,0,0,5,,,,,,,,4,,,,70,45
298540,note_off,0,0,6,,,,,,,,5,,,,58,64
298540,note_off,400,0,5,,,,,,,,4,,,,70,64
298540,note_off,0,0,5,,,,,,,,4,,,,62,64
298540,note_off,400,0,6,,,,,,,,5,,,,66,64
298620,note_on,1040,0,7,,,,,,,,6,,,,47,45
298620,note_on,1040,0,8,,,,,,,,7,,,,35,45
298620,note_on,0,0,5,,,,,,,,4,,,,71,45
298620,note_on,0,0,6,,,,,,,,5,,,,66,45
298620,note_on,80,0,6,,,,,,,,5,,,,59,45
298620,note_on,80,0,5,,,,,,,,4,,,,62,45
299100,note_off,3360,0,4,,,,,,,,3,,,,78,64
299100,note_off,3360,0,2,,,,,,,,1,,,,66,64
299100,note_on,0,0,2,,,,,,,,1,,,,67,60
299100,set_tempo,5760,1,0,229885,,,,,,,,,,,,
299100,note_on,0,0,4,,,,,,,,3,,,,79,45
299100,note_on,0,0,1,,,,,,,,0,,,,79,45
299100,note_off,3360,0,1,,,,,,,,0,,,,78,64
299260,note_off,640,0,5,,,,,,,,4,,,,71,64
299260,note_off,0,0,5,,,,,,,,4,,,,62,64
299260,note_off,640,0,7,,,,,,,,6,,,,47,64
299260,note_off,640,0,8,,,,,,,,7,,,,35,64
299260,note_off,640,0,6,,,,,,,,5,,,,66,64
299260,note_off,0,0,6,,,,,,,,5,,,,59,64
299340,note_on,80,0,6,,,,,,,,5,,,,59,45
299340,note_on,0,0,6,,,,,,,,5,,,,66,45
299340,note_on,80,0,7,,,,,,,,6,,,,47,45
299340,note_on,80,0,5,,,,,,,,4,,,,62,45
299340,note_on,80,0,8,,,,,,,,7,,,,35,45
299340,note_on,0,0,5,,,,,,,,4,,,,71,45
299575,note_off,235,0,6,,,,,,,,5,,,,66,64
299575,note_off,0,0,6,,,,,,,,5,,,,59,64
299575,note_off,0,0,5,,,,,,,,4,,,,62,64
299575,note_off,235,0,5,,,,,,,,4,,,,71,64
299575,note_off,235,0,7,,,,,,,,6,,,,47,64
299575,note_off,235,0,8,,,,,,,,7,,,,35,64
299580,note_on,5,0,8,,,,,,,,7,,,,35,45
299580,note_on,5,0,5,,,,,,,,4,,,,62,45
299580,note_on,0,0,5,,,,,,,,4,,,,71,45
299580,note_off,480,0,1,,,,,,,,0,,,,79,64
299580,note_off,480,0,4,,,,,,,,3,,,,79,64
299580,note_on,0,0,4,,,,,,,,3,,,,78,46
299580,note_off,480,0,2,,,,,,,,1,,,,67,64
299580,note_on,0,0,2,,,,,,,,1,,,,66,61
299580,note_on,0,0,6,,,,,,,,5,,,,66,45
299580,note_on,5,0,6,,,,,,,,5,,,,59,45
299580,note_on,5,0,7,,,,,,,,6,,,,47,45
299580,note_on,0,0,1,,,,,,,,0,,,,78,46
299980,note_off,400,0,8,,,,,,,,7,,,,35,64
299980,note_off,400,0,7,,,,,,,,6,,,,47,64
299980,note_off,400,0,5,,,,,,,,4,,,,71,64
299980,note_off,0,0,5,,,,,,,,4,,,,62,64
299980,note_off,400,0,6,,,,,,,,5,,,,66,64
299980,note_off,0,0,6,,,,,,,,5,,,,59,64
300060,note_on,80,0,8,,,,,,,,7,,,,38,46
300060,note_off,480,0,1,,,,,,,,0,,,,78,64
300060,note_on,0,0,1,,,,,,,,0,,,,74,47
300060,note_off,480,0,2,,,,,,,,1,,,,66,64
300060,note_on,0,0,4,,,,,,,,3,,,,74,47
300060,note_off,480,0,4,,,,,,,,3,,,,78,64
300060,note_on,80,0,5,,,,,,,,4,,,,62,46
300060,note_on,0,0,5,,,,,,,,4,,,,71,46
300060,note_on,0,0,2,,,,,,,,1,,,,62,62
300060,note_on,80,0,7,,,,,,,,6,,,,50,46
300060,note_on,80,0,6,,,,,,,,5,,,,59,46
300060,note_on,0,0,6,,,,,,,,5,,,,66,46
300460,note_off,400,0,8,,,,,,,,7,,,,38,64
300460,note_off,400,0,7,,,,,,,,6,,,,50,64
300540,note_on,0,0,2,,,,,,,,1,,,,61,63
300540,note_off,480,0,2,,,,,,,,1,,,,62,64
300540,note_on,0,0,1,,,,,,,,0,,,,73,48
300540,note_off,480,0,1,,,,,,,,0,,,,74,64
300540,note_off,480,0,4,,,,,,,,3,,,,74,64
300540,note_on,0,0,4,,,,,,,,3,,,,73,48
300700,note_off,0,0,6,,,,,,,,5,,,,59,64
300700,note_off,640,0,6,,,,,,,,5,,,,66,64
300700,note_off,0,0,5,,,,,,,,4,,,,62,64
300700,note_off,640,0,5,,,,,,,,4,,,,71,64
300780,note_on,0,0,6,,,,,,,,5,,,,66,48
300780,note_on,80,0,6,,,,,,,,5,,,,59,48
300780,note_on,80,0,5,,,,,,,,4,,,,62,48
300780,note_on,0,0,5,,,,,,,,4,,,,71,48
301015,note_off,0,0,5,,,,,,,,4,,,,62,64
301015,note_off,235,0,6,,,,,,,,5,,,,66,64
301015,note_off,0,0,6,,,,,,,,5,,,,59,64
301015,note_off,235,0,5,,,,,,,,4,,,,71,64
301020,note_off,480,0,4,,,,,,,,3,,,,73,64
301020,note_off,480,0,1,,,,,,,,0,,,,73,64
301020,note_on,5,0,5,,,,,,,,4,,,,62,48
301020,note_on,0,0,6,,,,,,,,5,,,,66,48
301020,note_on,0,0,2,,,,,,,,1,,,,59,64
301020,note_off,480,0,2,,,,,,,,1,,,,61,64
301020,note_on,0,0,5,,,,,,,,4,,,,71,48
301020,note_on,0,0,4,,,,,,,,3,,,,71,49
301020,note_on,5,0,6,,,,,,,,5,,,,59,48
301020,note_on,0,0,1,,,,,,,,0,,,,71,49
301420,note_off,400,0,6,,,,,,,,5,,,,66,64
301420,note_off,400,0,1,,,,,,,,0,,,,71,64
301420,note_off,0,0,6,,,,,,,,5,,,,59,64
301420,note_off,400,0,4,,,,,,,,3,,,,71,64
301420,note_off,400,0,5,,,,,,,,4,,,,71,64
301420,note_off,0,0,5,,,,,,,,4,,,,62,64
301420,note_off,400,0,2,,,,,,,,1,,,,59,64
301500,note_on,80,0,5,,,,,,,,4,,,,67,49
301500,note_on,0,0,5,,,,,,,,4,,,,71,49
301500,note_on,80,0,2,,,,,,,,1,,,,67,65
301500,note_on,1040,0,8,,,,,,,,7,,,,31,50
301500,note_on,50060,0,3,,,,,,,,2,,,,67,60
301500,note_on,1040,0,7,,,,,,,,6,,,,43,50
301500,note_on,80,0,4,,,,,,,,3,,,,79,50
301500,note_on,80,0,6,,,,,,,,5,,,,62,49
301500,note_on,0,0,6,,,,,,,,5,,,,65,49
301500,note_on,80,0,1,,,,,,,,0,,,,79,50
302140,note_off,640,0,8,,,,,,,,7,,,,31,64
302140,note_off,0,0,6,,,,,,,,5,,,,62,64
302140,note_off,640,0,7,,,,,,,,6,,,,43,64
302140,note_off,640,0,3,,,,,,,,2,,,,67,64
302140,note_off,640,0,5,,,,,,,,4,,,,71,64
302140,note_off,0,0,5,,,,,,,,4,,,,67,64
302140,note_off,640,0,6,,,,,,,,5,,,,65,64
302220,note_on,80,0,3,,,,,,,,2,,,,67,60
302220,note_on,80,0,5,,,,,,,,4,,,,67,51
302220,note_on,0,0,5,,,,,,,,4,,,,71,51
302220,note_on,80,0,8,,,,,,,,7,,,,31,52
302220,note_on,80,0,7,,,,,,,,6,,,,43,52
302220,note_on,0,0,6,,,,,,,,5,,,,65,51
302220,note_on,80,0,6,,,,,,,,5,,,,62,51
302455,note_off,0,0,5,,,,,,,,4,,,,67,64
302455,note_off,235,0,5,,,,,,,,4,,,,71,64
302455,note_off,235,0,7,,,,,,,,6,,,,43,64
302455,note_off,235,0,8,,,,,,,,7,,,,31,64
302455,note_off,0,0,6,,,,,,,,5,,,,62,64
302455,note_off,235,0,6,,,,,,,,5,,,,65,64
302455,note_off,235,0,3,,,,,,,,2,,,,67,64
302460,note_on,5,0,8,,,,,,,,7,,,,31,52
302460,note_on,5,0,7,,,,,,,,6,,,,43,52
302460,note_on,0,0,6,,,,,,,,5,,,,65,51
302460,note_on,5,0,6,,,,,,,,5,,,,62,51
302460,note_on,5,0,5,,,,,,,,4,,,,67,51
302460,note_on,0,0,5,,,,,,,,4,,,,71,51
302460,note_on,5,0,3,,,,,,,,2,,,,67,60
302860,note_off,400,0,3,,,,,,,,2,,,,67,64
302860,note_off,400,0,8,,,,,,,,7,,,,31,64
302860,note_off,400,0,5,,,,,,,,4,,,,71,64
302860,note_off,0,0,5,,,,,,,,4,,,,67,64
302860,note_off,400,0,7,,,,,,,,6,,,,43,64
302860,note_off,0,0,6,,,,,,,,5,,,,62,64
302860,note_off,400,0,6,,,,,,,,5,,,,65,64
302940,note_on,80,0,7,,,,,,,,6,,,,55,53
302940,note_on,80,0,6,,,,,,,,5,,,,62,52
302940,note_on,80,0,5,,,,,,,,4,,,,67,52
302940,note_on,0,0,6,,,,,,,,5,,,,65,52
302940,note_on,80,0,8,,,,,,,,7,,,,43,53
302940,note_on,0,0,5,,,,,,,,4,,,,71,52
302940,note_on,80,0,3,,,,,,,,2,,,,67,61
303340,note_off,400,0,8,,,,,,,,7,,,,43,64
303340,note_off,400,0,7,,,,,,,,6,,,,55,64
303580,note_off,0,0,6,,,,,,,,5,,,,62,64
303580,note_off,640,0,3,,,,,,,,2,,,,67,64
303580,note_off,640,0,5,,,,,,,,4,,,,71,64
303580,note_off,0,0,5,,,,,,,,4,,,,67,64
303580,note_off,640,0,6,,,,,,,,5,,,,65,64
303660,note_on,80,0,6,,,,,,,,5,,,,62,54
303660,note_on,0,0,6,,,,,,,,5,,,,65,54
303660,note_on,80,0,3,,,,,,,,2,,,,67,63
303660,note_on,80,0,5,,,,,,,,4,,,,67,54
303660,note_on,0,0,5,,,,,,,,4,,,,71,54
303895,note_off,235,0,3,,,,,,,,2,,,,67,64
303895,note_off,235,0,5,,,,,,,,4,,,,71,64
303895,note_off,0,0,5,,,,,,,,4,,,,67,64
303895,note_off,0,0,6,,,,,,,,5,,,,62,64
303895,note_off,235,0,6,,,,,,,,5,,,,65,64
303900,note_on,0,0,6,,,,,,,,5,,,,65,54
303900,note_on,5,0,6,,,,,,,,5,,,,62,54
303900,note_on,5,0,3,,,,,,,,2,,,,67,63
303900,note_on,5,0,5,,,,,,,,4,,,,67,54
303900,note_on,0,0,5,,,,,,,,4,,,,71,54
304300,note_off,400,0,5,,,,,,,,4,,,,71,64
304300,note_off,0,0,5,,,,,,,,4,,,,67,64
304300,note_off,0,0,6,,,,,,,,5,,,,62,64
304300,note_off,400,0,6,,,,,,,,5,,,,65,64
304300,note_off,400,0,3,,,,,,,,2,,,,67,64
304380,note_on,80,0,5,,,,,,,,4,,,,67,56
304380,note_on,80,0,6,,,,,,,,5,,,,62,56
304380,note_on,0,0,6,,,,,,,,5,,,,65,56
304380,note_on,80,0,3,,,,,,,,2,,,,67,64
304380,note_on,0,0,5,,,,,,,,4,,,,71,56
304380,note_on,1040,0,7,,,,,,,,6,,,,43,57
304380,note_on,1040,0,8,,,,,,,,7,,,,31,57
305020,note_off,640,0,5,,,,,,,,4,,,,71,64
305020,note_off,640,0,8,,,,,,,,7,,,,31,64
305020,note_off,640,0,7,,,,,,,,6,,,,43,64
305020,note_off,0,0,6,,,,,,,,5,,,,62,64
305020,note_off,640,0,6,,,,,,,,5,,,,65,64
305020,note_off,0,0,5,,,,,,,,4,,,,67,64
305020,note_off,640,0,3,,,,,,,,2,,,,67,64
305100,note_on,0,0,6,,,,,,,,5,,,,65,59
305100,note_on,80,0,5,,,,,,,,4,,,,67,59
305100,note_on,0,0,5,,,,,,,,4,,,,71,59
305100,note_on,80,0,7,,,,,,,,6,,,,43,59
305100,note_on,80,0,6,,,,,,,,5,,,,62,59
305100,note_on,80,0,8,,,,,,,,7,,,,31,59
305100,note_on,80,0,3,,,,,,,,2,,,,67,66
305335,note_off,235,0,8,,,,,,,,7,,,,31,64
305335,note_off,235,0,6,,,,,,,,5,,,,65,64
305335,note_off,235,0,3,,,,,,,,2,,,,67,64
305335,note_off,235,0,5,,,,,,,,4,,,,71,64
305335,note_off,0,0,5,,,,,,,,4,,,,67,64
305335,note_off,235,0,7,,,,,,,,6,,,,43,64
305335,note_off,0,0,6,,,,,,,,5,,,,62,64
305340,note_on,5,0,3,,,,,,,,2,,,,67,66
305340,note_on,0,0,5,,,,,,,,4,,,,71,60
305340,note_on,5,0,6,,,,,,,,5,,,,62,60
305340,note_on,0,0,6,,,,,,,,5,,,,65,60
305340,note_on,5,0,7,,,,,,,,6,,,,43,60
305340,note_on,5,0,5,,,,,,,,4,,,,67,60
305340,note_on,5,0,8,,,,,,,,7,,,,31,60
305740,note_off,400,0,8,,,,,,,,7,,,,31,64
305740,note_off,400,0,7,,,,,,,,6,,,,43,64
305740,note_off,400,0,6,,,,,,,,5,,,,65,64
305740,note_off,400,0,5,,,,,,,,4,,,,71,64
305740,note_off,0,0,5,,,,,,,,4,,,,67,64
305740,note_off,400,0,3,,,,,,,,2,,,,67,64
305740,note_off,0,0,6,,,,,,,,5,,,,62,64
305820,note_on,80,0,8,,,,,,,,7,,,,43,62
305820,note_on,0,0,6,,,,,,,,5,,,,65,62
305820,note_on,80,0,5,,,,,,,,4,,,,67,62
305820,note_on,0,0,5,,,,,,,,4,,,,71,62
305820,note_on,80,0,6,,,,,,,,5,,,,62,62
305820,note_on,80,0,3,,,,,,,,2,,,,67,67
305820,note_on,80,0,7,,,,,,,,6,,,,55,62
306220,note_off,400,0,8,,,,,,,,7,,,,43,64
306220,note_off,4720,0,4,,,,,,,,3,,,,79,64
306220,note_off,400,0,7,,,,,,,,6,,,,55,64
306300,note_off,4800,0,2,,,,,,,,1,,,,67,64
306300,note_on,0,0,2,,,,,,,,1,,,,57,75
306300,note_on,80,0,4,,,,,,,,3,,,,81,66
306300,note_off,4800,0,1,,,,,,,,0,,,,79,64
306300,note_on,0,0,1,,,,,,,,0,,,,81,66
306460,note_off,0,0,5,,,,,,,,4,,,,67,64
306460,note_off,640,0,3,,,,,,,,2,,,,67,64
306460,note_off,640,0,5,,,,,,,,4,,,,71,64
306460,note_off,0,0,6,,,,,,,,5,,,,62,64
306460,note_off,640,0,6,,,,,,,,5,,,,65,64
306540,note_on,0,0,6,,,,,,,,5,,,,65,65
306540,note_on,0,0,5,,,,,,,,4,,,,71,65
306540,note_on,80,0,5,,,,,,,,4,,,,67,65
306540,note_on,80,0,3,,,,,,,,2,,,,67,69
306540,note_on,80,0,6,,,,,,,,5,,,,62,65
306775,note_off,235,0,6,,,,,,,,5,,,,65,64
306775,note_off,0,0,6,,,,,,,,5,,,,62,64
306775,note_off,0,0,5,,,,,,,,4,,,,67,64
306775,note_off,235,0,5,,,,,,,,4,,,,71,64
306775,note_off,235,0,3,,,,,,,,2,,,,67,64
306780,note_on,0,0,1,,,,,,,,0,,,,83,67
306780,note_on,0,0,2,,,,,,,,1,,,,59,76
306780,note_off,480,0,2,,,,,,,,1,,,,57,64
306780,note_off,480,0,1,,,,,,,,0,,,,81,64
306780,note_on,5,0,6,,,,,,,,5,,,,62,66
306780,note_on,0,0,5,,,,,,,,4,,,,71,66
306780,note_on,5,0,3,,,,,,,,2,,,,67,69
306780,note_off,480,0,4,,,,,,,,3,,,,81,64
306780,note_on,0,0,4,,,,,,,,3,,,,83,67
306780,note_on,5,0,5,,,,,,,,4,,,,67,66
306780,note_on,0,0,6,,,,,,,,5,,,,65,66
307180,note_off,400,0,3,,,,,,,,2,,,,67,64
307180,note_off,400,0,2,,,,,,,,1,,,,59,64
307180,note_off,400,0,1,,,,,,,,0,,,,83,64
307180,note_off,400,0,6,,,,,,,,5,,,,65,64
307180,note_off,0,0,6,,,,,,,,5,,,,62,64
307180,note_off,400,0,4,,,,,,,,3,,,,83,64
307180,note_off,400,0,5,,,,,,,,4,,,,71,64
307180,note_off,0,0,5,,,,,,,,4,,,,67,64
307260,note_on,0,0,6,,,,,,,,5,,,,72,68
307260,note_on,1040,0,7,,,,,,,,6,,,,48,68
307260,note_on,1040,0,8,,,,,,,,7,,,,36,68
307260,note_on,80,0,3,,,,,,,,2,,,,60,70
307260,note_on,80,0,6,,,,,,,,5,,,,64,68
307260,note_on,0,0,5,,,,,,,,4,,,,70,68
307260,note_on,80,0,5,,,,,,,,4,,,,67,68
307260,note_on,80,0,2,,,,,,,,1,,,,60,77
307260,note_on,80,0,1,,,,,,,,0,,,,84,68
307260,note_on,80,0,4,,,,,,,,3,,,,84,68
307900,note_off,640,0,3,,,,,,,,2,,,,60,64
307900,note_off,0,0,5,,,,,,,,4,,,,67,64
307900,note_off,0,0,6,,,,,,,,5,,,,64,64
307900,note_off,640,0,8,,,,,,,,7,,,,36,64
307900,note_off,640,0,6,,,,,,,,5,,,,72,64
307900,note_off,640,0,5,,,,,,,,4,,,,70,64
307900,note_off,640,0,7,,,,,,,,6,,,,48,64
307980,note_on,0,0,6,,,,,,,,5,,,,72,71
307980,note_on,0,0,5,,,,,,,,4,,,,70,71
307980,note_on,80,0,5,,,,,,,,4,,,,67,71
307980,note_on,80,0,7,,,,,,,,6,,,,48,71
307980,note_on,80,0,3,,,,,,,,2,,,,60,72
307980,note_on,80,0,6,,,,,,,,5,,,,64,71
307980,note_on,80,0,8,,,,,,,,7,,,,36,71
308215,note_off,235,0,3,,,,,,,,2,,,,60,64
308215,note_off,235,0,7,,,,,,,,6,,,,48,64
308215,note_off,0,0,6,,,,,,,,5,,,,64,64
308215,note_off,235,0,8,,,,,,,,7,,,,36,64
308215,note_off,235,0,6,,,,,,,,5,,,,72,64
308215,note_off,235,0,5,,,,,,,,4,,,,70,64
308215,note_off,0,0,5,,,,,,,,4,,,,67,64
308220,note_on,0,0,5,,,,,,,,4,,,,70,72
308220,note_on,5,0,3,,,,,,,,2,,,,60,72
308220,note_on,5,0,7,,,,,,,,6,,,,48,72
308220,note_on,5,0,5,,,,,,,,4,,,,67,72
308220,note_on,5,0,8,,,,,,,,7,,,,36,72
308220,note_on,0,0,6,,,,,,,,5,,,,72,72
308220,note_on,5,0,6,,,,,,,,5,,,,64,72
308620,note_off,0,0,6,,,,,,,,5,,,,64,64
308620,note_off,400,0,6,,,,,,,,5,,,,72,64
308620,note_off,400,0,5,,,,,,,,4,,,,70,64
308620,note_off,400,0,7,,,,,,,,6,,,,48,64
308620,note_off,400,0,3,,,,,,,,2,,,,60,64
308620,note_off,0,0,5,,,,,,,,4,,,,67,64
308620,note_off,400,0,8,,,,,,,,7,,,,36,64
308700,note_on,0,0,6,,,,,,,,5,,,,72,74
308700,note_on,80,0,7,,,,,,,,6,,,,60,74
308700,note_on,80,0,8,,,,,,,,7,,,,48,74
308700,note_on,80,0,6,,,,,,,,5,,,,64,74
308700,note_on,80,0,3,,,,,,,,2,,,,60,74
308700,note_on,80,0,5,,,,,,,,4,,,,67,74
308700,note_on,0,0,5,,,,,,,,4,,,,70,74
309100,note_off,400,0,8,,,,,,,,7,,,,48,64
309100,note_off,400,0,7,,,,,,,,6,,,,60,64
309340,note_off,640,0,5,,,,,,,,4,,,,70,64
309340,note_off,0,0,5,,,,,,,,4,,,,67,64
309340,note_off,640,0,3,,,,,,,,2,,,,60,64
309340,note_off,640,0,6,,,,,,,,5,,,,72,64
309340,note_off,0,0,6,,,,,,,,5,,,,64,64
309420,note_on,0,0,5,,,,,,,,4,,,,70,77
309420,note_on,80,0,3,,,,,,,,2,,,,60,77
309420,note_on,80,0,5,,,,,,,,4,,,,67,77
309420,note_on,0,0,6,,,,,,,,5,,,,72,77
309420,note_on,80,0,6,,,,,,,,5,,,,64,77
309655,note_off,235,0,3,,,,,,,,2,,,,60,64
309655,note_off,0,0,5,,,,,,,,4,,,,67,64
309655,note_off,235,0,5,,,,,,,,4,,,,70,64
309655,note_off,0,0,6,,,,,,,,5,,,,64,64
309655,note_off,235,0,6,,,,,,,,5,,,,72,64
309660,note_on,0,0,5,,,,,,,,4,,,,70,78
309660,note_on,0,0,6,,,,,,,,5,,,,72,78
309660,note_on,5,0,3,,,,,,,,2,,,,60,78
309660,note_on,5,0,5,,,,,,,,4,,,,67,78
309660,note_on,5,0,6,,,,,,,,5,,,,64,78
310060,note_off,0,0,5,,,,,,,,4,,,,67,64
310060,note_off,400,0,6,,,,,,,,5,,,,72,64
310060,note_off,400,0,5,,,,,,,,4,,,,70,64
310060,note_off,0,0,6,,,,,,,,5,,,,64,64
310060,note_off,400,0,3,,,,,,,,2,,,,60,64
310140,note_on,0,0,5,,,,,,,,4,,,,70,80
310140,note_on,0,0,6,,,,,,,,5,,,,72,80
310140,note_on,1040,0,8,,,,,,,,7,,,,36,80
310140,note_on,1040,0,7,,,,,,,,6,,,,48,80
310140,note_on,80,0,5,,,,,,,,4,,,,67,80
310140,note_on,80,0,6,,,,,,,,5,,,,64,80
310140,note_on,80,0,3,,,,,,,,2,,,,60,80
310780,note_off,640,0,8,,,,,,,,7,,,,36,64
310780,note_off,640,0,5,,,,,,,,4,,,,70,64
310780,note_off,0,0,5,,,,,,,,4,,,,67,64
310780,note_off,640,0,6,,,,,,,,5,,,,72,64
310780,note_off,0,0,6,,,,,,,,5,,,,64,64
310780,note_off,640,0,7,,,,,,,,6,,,,48,64
310780,note_off,640,0,3,,,,,,,,2,,,,60,64
310860,note_on,0,0,6,,,,,,,,5,,,,72,83
310860,note_on,80,0,8,,,,,,,,7,,,,36,83
310860,note_on,80,0,7,,,,,,,,6,,,,48,83
310860,note_on,80,0,3,,,,,,,,2,,,,60,83
310860,note_on,0,0,5,,,,,,,,4,,,,70,83
310860,note_on,80,0,6,,,,,,,,5,,,,64,83
310860,note_on,80,0,5,,,,,,,,4,,,,67,83
311095,note_off,0,0,5,,,,,,,,4,,,,67,64
311095,note_off,235,0,7,,,,,,,,6,,,,48,64
311095,note_off,0,0,6,,,,,,,,5,,,,64,64
311095,note_off,235,0,8,,,,,,,,7,,,,36,64
311095,note_off,235,0,6,,,,,,,,5,,,,72,64
311095,note_off,235,0,5,,,,,,,,4,,,,70,64
311095,note_off,235,0,3,,,,,,,,2,,,,60,64
311100,note_on,5,0,7,,,,,,,,6,,,,48,84
311100,note_on,5,0,8,,,,,,,,7,,,,36,84
311100,note_on,5,0,3,,,,,,,,2,,,,60,84
311100,note_on,0,0,5,,,,,,,,4,,,,70,84
311100,note_on,5,0,5,,,,,,,,4,,,,67,84
311100,note_on,0,0,6,,,,,,,,5,,,,72,84
311100,note_on,5,0,6,,,,,,,,5,,,,64,84
311460,note_off,4200,0,4,,,,,,,,3,,,,84,64
311460,note_off,4200,0,1,,,,,,,,0,,,,84,64
311500,note_off,400,0,3,,,,,,,,2,,,,60,64
311500,note_off,400,0,8,,,,,,,,7,,,,36,64
311500,note_off,400,0,7,,,,,,,,6,,,,48,64
311500,note_off,0,0,6,,,,,,,,5,,,,64,64
311500,note_off,400,0,6,,,,,,,,5,,,,72,64
311500,note_off,0,0,5,,,,,,,,4,,,,67,64
311500,note_off,400,0,5,,,,,,,,4,,,,70,64
311580,note_on,120,0,4,,,,,,,,3,,,,72,86
311580,note_on,80,0,8,,,,,,,,7,,,,48,86
311580,note_on,0,0,5,,,,,,,,4,,,,70,86
311580,note_on,120,0,1,,,,,,,,0,,,,72,86
311580,note_on,80,0,3,,,,,,,,2,,,,60,86
311580,note_on,80,0,6,,,,,,,,5,,,,64,86
311580,note_on,0,0,6,,,,,,,,5,,,,72,86
311580,note_on,80,0,7,,,,,,,,6,,,,60,86
311580,set_tempo,12480,1,0,247933,,,,,,,,,,,,
311580,note_on,80,0,5,,,,,,,,4,,,,67,86
311980,note_off,400,0,1,,,,,,,,0,,,,72,64
311980,note_off,4720,0,2,,,,,,,,1,,,,60,64
311980,note_off,400,0,4,,,,,,,,3,,,,72,64
311980,note_off,400,0,7,,,,,,,,6,,,,60,64
311980,note_off,400,0,8,,,,,,,,7,,,,48,64
312060,note_on,80,0,4,,,,,,,,3,,,,74,88
312060,note_on,80,0,2,,,,,,,,1,,,,62,89
312060,note_on,80,0,1,,,,,,,,0,,,,74,88
312060,set_tempo,480,1,0,243902,,,,,,,,,,,,
312220,note_off,0,0,5,,,,,,,,4,,,,67,64
312220,note_off,640,0,3,,,,,,,,2,,,,60,64
312220,note_off,640,0,5,,,,,,,,4,,,,70,64
312220,note_off,640,0,6,,,,,,,,5,,,,72,64
312220,note_off,0,0,6,,,,,,,,5,,,,64,64
312300,note_on,0,0,5,,,,,,,,4,,,,70,89
312300,note_on,80,0,3,,,,,,,,2,,,,60,89
312300,note_on,80,0,5,,,,,,,,4,,,,67,89
312300,note_on,80,0,6,,,,,,,,5,,,,64,89
312300,note_on,0,0,6,,,,,,,,5,,,,72,89
312460,note_off,400,0,1,,,,,,,,0,,,,74,64
312460,note_off,400,0,2,,,,,,,,1,,,,62,64
312460,note_off,400,0,4,,,,,,,,3,,,,74,64
312535,note_off,235,0,3,,,,,,,,2,,,,60,64
312535,note_off,0,0,5,,,,,,,,4,,,,67,64
312535,note_off,235,0,5,,,,,,,,4,,,,70,64
312535,note_off,0,0,6,,,,,,,,5,,,,64,64
312535,note_off,235,0,6,,,,,,,,5,,,,72,64
312540,note_on,80,0,1,,,,,,,,0,,,,76,90
312540,note_on,5,0,6,,,,,,,,5,,,,64,90
312540,note_on,80,0,2,,,,,,,,1,,,,64,90
312540,note_on,0,0,5,,,,,,,,4,,,,70,90
312540,note_on,5,0,5,,,,,,,,4,,,,67,90
312540,set_tempo,480,1,0,238095,,,,,,,,,,,,
312540,note_on,5,0,3,,,,,,,,2,,,,60,90
312540,note_on,0,0,6,,,,,,,,5,,,,72,90
312540,note_on,80,0,4,,,,,,,,3,,,,76,90
312940,note_off,400,0,1,,,,,,,,0,,,,76,64
312940,note_off,400,0,6,,,,,,,,5,,,,72,64
312940,note_off,0,0,6,,,,,,,,5,,,,64,64
312940,note_off,400,0,3,,,,,,,,2,,,,60,64
312940,note_off,400,0,2,,,,,,,,1,,,,64,64
312940,note_off,0,0,5,,,,,,,,4,,,,67,64
312940,note_off,400,0,5,,,,,,,,4,,,,70,64
312940,note_off,400,0,4,,,,,,,,3,,,,76,64
313020,set_tempo,480,1,0,229007,,,,,,,,,,,,
313020,note_on,80,0,1,,,,,,,,0,,,,77,92
313020,note_on,1040,0,8,,,,,,,,7,,,,41,92
313020,note_on,80,0,6,,,,,,,,5,,,,60,92
313020,note_on,1040,0,7,,,,,,,,6,,,,53,92
313020,note_on,0,0,4,,,,,,,,3,,,,77,92
313020,note_on,80,0,5,,,,,,,,4,,,,57,92
313020,note_on,0,0,5,,,,,,,,4,,,,65,92
313020,note_on,80,0,4,,,,,,,,3,,,,69,92
313020,note_on,80,0,3,,,,,,,,2,,,,65,92
313020,note_on,80,0,2,,,,,,,,1,,,,65,92
313525,note_off,505,0,8,,,,,,,,7,,,,41,64
313525,note_off,505,0,7,,,,,,,,6,,,,53,64
313525,note_off,0,0,5,,,,,,,,4,,,,57,64
313525,note_off,505,0,5,,,,,,,,4,,,,65,64
313525,note_off,0,0,4,,,,,,,,3,,,,69,64
313525,note_off,505,0,4,,,,,,,,3,,,,77,64
313525,note_off,505,0,1,,,,,,,,0,,,,77,64
313525,note_off,505,0,6,,,,,,,,5,,,,60,64
313525,note_off,505,0,2,,,,,,,,1,,,,65,64
313525,note_off,505,0,3,,,,,,,,2,,,,65,64
313740,note_on,215,0,2,,,,,,,,1,,,,57,92
313740,note_on,215,0,4,,,,,,,,3,,,,69,92
313740,note_on,215,0,7,,,,,,,,6,,,,53,92
313740,note_on,215,0,3,,,,,,,,2,,,,65,92
313740,note_on,0,0,5,,,,,,,,4,,,,65,92
313740,note_on,215,0,5,,,,,,,,4,,,,57,92
313740,note_on,0,0,4,,,,,,,,3,,,,77,92
313740,note_on,215,0,1,,,,,,,,0,,,,77,92
313740,note_on,215,0,6,,,,,,,,5,,,,60,92
313740,note_on,215,0,8,,,,,,,,7,,,,41,92
313820,note_off,0,0,4,,,,,,,,3,,,,69,64
313820,note_off,80,0,3,,,,,,,,2,,,,65,64
313820,note_off,80,0,8,,,,,,,,7,,,,41,64
313820,note_off,80,0,6,,,,,,,,5,,,,60,64
313820,note_off,0,0,5,,,,,,,,4,,,,57,64
313820,note_off,80,0,5,,,,,,,,4,,,,65,64
313820,note_off,80,0,4,,,,,,,,3,,,,77,64
313820,note_off,80,0,7,,,,,,,,6,,,,53,64
313820,note_off,80,0,1,,,,,,,,0,,,,77,64
313820,note_off,80,0,2,,,,,,,,1,,,,57,64
313980,note_on,160,0,8,,,,,,,,7,,,,36,92
313980,note_on,160,0,7,,,,,,,,6,,,,48,92
313980,note_on,160,0,1,,,,,,,,0,,,,76,92
313980,note_on,160,0,6,,,,,,,,5,,,,64,92
313980,note_on,160,0,4,,,,,,,,3,,,,72,92
313980,note_on,160,0,2,,,,,,,,1,,,,60,92
313980,note_on,160,0,5,,,,,,,,4,,,,60,92
313980,note_on,160,0,3,,,,,,,,2,,,,67,92
313980,note_on,0,0,5,,,,,,,,4,,,,67,92
313980,note_on,0,0,4,,,,,,,,3,,,,79,92
314100,note_off,120,0,3,,,,,,,,2,,,,67,64
314100,note_off,120,0,4,,,,,,,,3,,,,79,64
314100,note_off,120,0,1,,,,,,,,0,,,,76,64
314100,note_off,120,0,2,,,,,,,,1,,,,60,64
314100,note_off,120,0,5,,,,,,,,4,,,,67,64
314100,note_off,120,0,7,,,,,,,,6,,,,48,64
314100,note_off,120,0,8,,,,,,,,7,,,,36,64
314100,note_off,120,0,6,,,,,,,,5,,,,64,64
314100,note_off,0,0,5,,,,,,,,4,,,,60,64
314100,note_off,0,0,4,,,,,,,,3,,,,72,64
314460,note_on,360,0,7,,,,,,,,6,,,,53,92
314460,note_on,360,0,4,,,,,,,,3,,,,72,92
314460,note_on,0,0,4,,,,,,,,3,,,,81,92
314460,note_on,360,0,6,,,,,,,,5,,,,65,92
314460,note_on,0,0,5,,,,,,,,4,,,,69,92
314460,note_on,360,0,8,,,,,,,,7,,,,41,92
314460,note_on,360,0,2,,,,,,,,1,,,,65,92
314460,note_on,360,0,3,,,,,,,,2,,,,69,92
314460,note_on,360,0,5,,,,,,,,4,,,,60,92
314460,note_on,360,0,1,,,,,,,,0,,,,77,92
314965,note_off,505,0,5,,,,,,,,4,,,,69,64
314965,note_off,0,0,5,,,,,,,,4,,,,60,64
314965,note_off,505,0,3,,,,,,,,2,,,,69,64
314965,note_off,505,0,6,,,,,,,,5,,,,65,64
314965,note_off,505,0,1,,,,,,,,0,,,,77,64
314965,note_off,505,0,7,,,,,,,,6,,,,53,64
314965,note_off,505,0,2,,,,,,,,1,,,,65,64
314965,note_off,0,0,4,,,,,,,,3,,,,72,64
314965,note_off,505,0,4,,,,,,,,3,,,,81,64
314965,note_off,505,0,8,,,,,,,,7,,,,41,64
315180,note_on,215,0,1,,,,,,,,0,,,,77,92
315180,note_on,215,0,2,,,,,,,,1,,,,65,92
315180,note_on,215,0,8,,,,,,,,7,,,,41,92
315180,note_on,215,0,6,,,,,,,,5,,,,65,92
315180,note_on,215,0,7,,,,,,,,6,,,,53,92
315180,note_on,215,0,3,,,,,,,,2,,,,69,92
315180,note_on,215,0,4,,,,,,,,3,,,,72,92
315180,note_on,0,0,4,,,,,,,,3,,,,81,92
315180,note_on,0,0,5,,,,,,,,4,,,,69,92
315180,note_on,215,0,5,,,,,,,,4,,,,60,92
315260,note_off,80,0,6,,,,,,,,5,,,,65,64
315260,note_off,80,0,2,,,,,,,,1,,,,65,64
315260,note_off,80,0,5,,,,,,,,4,,,,69,64
315260,note_off,80,0,4,,,,,,,,3,,,,81,64
315260,note_off,0,0,5,,,,,,,,4,,,,60,64
315260,note_off,80,0,8,,,,,,,,7,,,,41,64
315260,note_off,80,0,7,,,,,,,,6,,,,53,64
315260,note_off,80,0,1,,,,,,,,0,,,,77,64
315260,note_off,80,0,3,,,,,,,,2,,,,69,64
315260,note_off,0,0,4,,,,,,,,3,,,,72,64
315420,note_on,160,0,6,,,,,,,,5,,,,65,92
315420,note_on,160,0,4,,,,,,,,3,,,,74,92
315420,note_on,0,0,4,,,,,,,,3,,,,82,92
315420,note_on,160,0,5,,,,,,,,4,,,,62,92
315420,note_on,160,0,3,,,,,,,,2,,,,70,92
315420,note_on,0,0,5,,,,,,,,4,,,,70,92
315420,note_on,160,0,8,,,,,,,,7,,,,34,92
315420,note_on,160,0,7,,,,,,,,6,,,,46,92
315420,note_on,160,0,1,,,,,,,,0,,,,77,92
315420,note_on,160,0,2,,,,,,,,1,,,,62,92
315540,note_off,0,0,5,,,,,,,,4,,,,62,64
315540,note_off,120,0,2,,,,,,,,1,,,,62,64
315540,note_off,0,0,4,,,,,,,,3,,,,74,64
315540,note_off,120,0,5,,,,,,,,4,,,,70,64
315540,note_off,120,0,6,,,,,,,,5,,,,65,64
315540,note_off,120,0,3,,,,,,,,2,,,,70,64
315540,note_off,120,0,8,,,,,,,,7,,,,34,64
315540,note_off,120,0,7,,,,,,,,6,,,,46,64
315540,note_off,120,0,4,,,,,,,,3,,,,82,64
315540,note_off,120,0,1,,,,,,,,0,,,,77,64
315900,note_on,360,0,7,,,,,,,,6,,,,48,92
315900,note_on,360,0,1,,,,,,,,0,,,,77,92
315900,note_on,360,0,6,,,,,,,,5,,,,65,92
315900,note_on,360,0,8,,,,,,,,7,,,,36,92
315900,note_on,360,0,3,,,,,,,,2,,,,69,92
315900,note_on,360,0,2,,,,,,,,1,,,,65,92
315900,note_on,0,0,5,,,,,,,,4,,,,69,92
315900,note_on,360,0,5,,,,,,,,4,,,,60,92
315900,note_on,360,0,4,,,,,,,,3,,,,72,92
315900,note_on,0,0,4,,,,,,,,3,,,,81,92
316020,note_off,120,0,5,,,,,,,,4,,,,69,64
316020,note_off,120,0,1,,,,,,,,0,,,,77,64
316020,note_off,0,0,5,,,,,,,,4,,,,60,64
316020,note_off,120,0,3,,,,,,,,2,,,,69,64
316020,note_off,120,0,4,,,,,,,,3,,,,81,64
316020,note_off,120,0,2,,,,,,,,1,,,,65,64
316020,note_off,0,0,4,,,,,,,,3,,,,72,64
316020,note_off,120,0,8,,,,,,,,7,,,,36,64
316020,note_off,120,0,6,,,,,,,,5,,,,65,64
316020,note_off,120,0,7,,,,,,,,6,,,,48,64
316380,note_on,360,0,6,,,,,,,,5,,,,65,92
316380,note_on,0,0,4,,,,,,,,3,,,,81,92
316380,note_on,360,0,5,,,,,,,,4,,,,60,92
316380,note_on,360,0,8,,,,,,,,7,,,,36,92
316380,note_on,360,0,4,,,,,,,,3,,,,72,92
316380,note_on,360,0,2,,,,,,,,1,,,,65,92
316380,note_on,360,0,3,,,,,,,,2,,,,69,92
316380,note_on,360,0,7,,,,,,,,6,,,,48,92
316380,note_on,360,0,1,,,,,,,,0,,,,77,92
316380,note_on,0,0,5,,,,,,,,4,,,,69,92
316500,note_off,0,0,4,,,,,,,,3,,,,72,64
316500,note_off,120,0,4,,,,,,,,3,,,,81,64
316500,note_off,120,0,1,,,,,,,,0,,,,77,64
316500,note_off,120,0,6,,,,,,,,5,,,,65,64
316500,note_off,0,0,5,,,,,,,,4,,,,60,64
316500,note_off,120,0,5,,,,,,,,4,,,,69,64
316500,note_off,120,0,7,,,,,,,,6,,,,48,64
316500,note_off,120,0,3,,,,,,,,2,,,,69,64
316500,note_off,120,0,2,,,,,,,,1,,,,65,64
316500,note_off,120,0,8,,,,,,,,7,,,,36,64
316860,note_on,360,0,1,,,,,,,,0,,,,76,92
316860,note_on,360,0,3,,,,,,,,2,,,,67,92
316860,note_on,360,0,2,,,,,,,,1,,,,60,92
316860,note_on,360,0,6,,,,,,,,5,,,,64,92
316860,note_on,0,0,4,,,,,,,,3,,,,79,92
316860,note_on,360,0,7,,,,,,,,6,,,,48,92
316860,note_on,0,0,5,,,,,,,,4,,,,67,92
316860,note_on,360,0,5,,,,,,,,4,,,,60,92
316860,note_on,360,0,4,,,,,,,,3,,,,72,92
316860,note_on,360,0,8,,,,,,,,7,,,,36,92
316980,note_off,120,0,7,,,,,,,,6,,,,48,64
316980,note_off,0,0,4,,,,,,,,3,,,,72,64
316980,note_off,120,0,1,,,,,,,,0,,,,76,64
316980,note_off,120,0,2,,,,,,,,1,,,,60,64
316980,note_off,120,0,3,,,,,,,,2,,,,67,64
316980,note_off,120,0,6,,,,,,,,5,,,,64,64
316980,note_off,0,0,5,,,,,,,,4,,,,60,64
316980,note_off,120,0,5,,,,,,,,4,,,,67,64
316980,note_off,120,0,8,,,,,,,,7,,,,36,64
316980,note_off,120,0,4,,,,,,,,3,,,,79,64
317340,note_on,360,0,8,,,,,,,,7,,,,41,92
317340,note_on,360,0,1,,,,,,,,0,,,,77,92
317340,note_on,360,0,3,,,,,,,,2,,,,65,92
317340,note_on,360,0,7,,,,,,,,6,,,,53,92
317340,note_on,360,0,6,,,,,,,,5,,,,65,92
317340,note_on,0,0,5,,,,,,,,4,,,,65,92
317340,note_on,360,0,5,,,,,,,,4,,,,57,92
317340,note_on,360,0,2,,,,,,,,1,,,,57,92
317340,note_on,360,0,4,,,,,,,,3,,,,69,92
317340,note_on,0,0,4,,,,,,,,3,,,,77,92
317740,note_off,400,0,2,,,,,,,,1,,,,57,64
317740,note_off,400,0,1,,,,,,,,0,,,,77,64
317740,note_off,400,0,6,,,,,,,,5,,,,65,64
317740,note_off,400,0,8,,,,,,,,7,,,,41,64
317740,note_off,0,0,5,,,,,,,,4,,,,57,64
317740,note_off,400,0,7,,,,,,,,6,,,,53,64
317740,note_off,400,0,3,,,,,,,,2,,,,65,64
317740,note_off,400,0,5,,,,,,,,4,,,,65,64
317740,note_off,400,0,4,,,,,,,,3,,,,77,64
317740,note_off,0,0,4,,,,,,,,3,,,,69,64
318180,note_on,440,0,8,,,,,,,,7,,,,36,45
318180,note_on,440,0,4,,,,,,,,3,,,,60,45
318180,note_on,440,0,7,,,,,,,,6,,,,48,45
318180,note_on,0,0,6,,,,,,,,5,,,,60,45
318180,program_change,440,0,6,,,,,,,,5,,,50,,
318420,note_on,0,0,8,,,,,,,,7,,,,38,45
318420,note_off,240,0,7,,,,,,,,6,,,,48,64
318420,note_on,0,0,7,,,,,,,,6,,,,50,45
318420,note_off,240,0,4,,,,,,,,3,,,,60,64
318420,note_off,240,0,6,,,,,,,,5,,,,60,64
318420,note_on,0,0,6,,,,,,,,5,,,,62,45
318420,note_on,0,0,4,,,,,,,,3,,,,62,45
318420,note_off,240,0,8,,,,,,,,7,,,,36,64
318660,note_off,240,0,6,,,,,,,,5,,,,62,64
318660,note_on,0,0,6,,,,,,,,5,,,,64,45
318660,note_on,0,0,7,,,,,,,,6,,,,52,45
318660,note_on,0,0,8,,,,,,,,7,,,,40,45
318660,note_off,240,0,8,,,,,,,,7,,,,38,64
318660,note_on,0,0,4,,,,,,,,3,,,,64,45
318660,note_off,240,0,4,,,,,,,,3,,,,62,64
318660,note_off,240,0,7,,,,,,,,6,,,,50,64
318895,note_off,235,0,8,,,,,,,,7,,,,40,64
318895,note_off,235,0,4,,,,,,,,3,,,,64,64
318895,note_off,235,0,6,,,,,,,,5,,,,64,64
318895,note_off,235,0,7,,,,,,,,6,,,,52,64
318900,note_on,5,0,6,,,,,,,,5,,,,65,45
318900,note_on,5,0,8,,,,,,,,7,,,,41,45
318900,note_on,5,0,7,,,,,,,,6,,,,53,45
318900,note_on,5,0,4,,,,,,,,3,,,,65,45
319405,note_off,505,0,8,,,,,,,,7,,,,41,64
319405,note_off,505,0,4,,,,,,,,3,,,,65,64
319405,note_off,505,0,7,,,,,,,,6,,,,53,64
319405,note_off,505,0,6,,,,,,,,5,,,,65,64
319620,note_on,215,0,8,,,,,,,,7,,,,41,45
319620,note_on,215,0,7,,,,,,,,6,,,,53,45
319620,note_on,215,0,4,,,,,,,,3,,,,65,45
319620,note_on,215,0,6,,,,,,,,5,,,,65,45
319860,note_on,0,0,7,,,,,,,,6,,,,55,45
319860,note_off,240,0,7,,,,,,,,6,,,,53,64
319860,note_on,0,0,6,,,,,,,,5,,,,67,45
319860,note_off,240,0,4,,,,,,,,3,,,,65,64
319860,note_off,240,0,8,,,,,,,,7,,,,41,64
319860,note_on,0,0,8,,,,,,,,7,,,,43,45
319860,note_on,0,0,4,,,,,,,,3,,,,67,45
319860,note_off,240,0,6,,,,,,,,5,,,,65,64
319980,note_off,120,0,7,,,,,,,,6,,,,55,64
319980,note_off,120,0,6,,,,,,,,5,,,,67,64
319980,note_off,120,0,4,,,,,,,,3,,,,67,64
319980,note_off,120,0,8,,,,,,,,7,,,,43,64
320340,note_on,360,0,8,,,,,,,,7,,,,41,45
320340,note_on,360,0,7,,,,,,,,6,,,,53,45
320340,note_on,360,0,6,,,,,,,,5,,,,65,45
320340,note_on,360,0,4,,,,,,,,3,,,,65,45
320845,note_off,505,0,6,,,,,,,,5,,,,65,64
320845,note_off,505,0,8,,,,,,,,7,,,,41,64
320845,note_off,505,0,4,,,,,,,,3,,,,65,64
320845,note_off,505,0,7,,,,,,,,6,,,,53,64
321060,note_on,215,0,6,,,,,,,,5,,,,65,45
321060,note_on,215,0,7,,,,,,,,6,,,,53,45
321060,note_on,215,0,4,,,,,,,,3,,,,65,45
321060,note_on,215,0,8,,,,,,,,7,,,,41,45
321295,note_off,235,0,8,,,,,,,,7,,,,41,64
321300,note_on,0,0,6,,,,,,,,5,,,,64,45
321300,note_on,0,0,4,,,,,,,,3,,,,64,45
321300,note_off,240,0,6,,,,,,,,5,,,,65,64
321300,note_off,240,0,4,,,,,,,,3,,,,65,64
321300,note_on,0,0,7,,,,,,,,6,,,,52,45
321300,note_off,240,0,7,,,,,,,,6,,,,53,64
321300,note_on,5,0,8,,,,,,,,7,,,,40,45
321420,note_off,120,0,8,,,,,,,,7,,,,40,64
321420,note_off,120,0,7,,,,,,,,6,,,,52,64
321420,note_off,120,0,4,,,,,,,,3,,,,64,64
321700,note_off,400,0,6,,,,,,,,5,,,,64,64
321780,note_on,360,0,8,,,,,,,,7,,,,38,45
321780,note_on,360,0,7,,,,,,,,6,,,,50,45
321780,note_on,80,0,6,,,,,,,,5,,,,62,45
321780,note_on,360,0,4,,,,,,,,3,,,,62,45
321900,note_off,120,0,7,,,,,,,,6,,,,50,64
321900,note_off,120,0,6,,,,,,,,5,,,,62,64
321900,note_off,120,0,8,,,,,,,,7,,,,38,64
321900,note_off,120,0,4,,,,,,,,3,,,,62,64
322260,note_on,360,0,8,,,,,,,,7,,,,41,45
322260,note_on,360,0,7,,,,,,,,6,,,,53,45
322260,note_on,360,0,6,,,,,,,,5,,,,65,45
322260,note_on,360,0,4,,,,,,,,3,,,,65,45
322380,note_off,120,0,6,,,,,,,,5,,,,65,64
322380,note_off,120,0,4,,,,,,,,3,,,,65,64
322380,note_off,120,0,8,,,,,,,,7,,,,41,64
322380,note_off,120,0,7,,,,,,,,6,,,,53,64
322740,note_on,360,0,7,,,,,,,,6,,,,55,45
322740,note_on,360,0,4,,,,,,,,3,,,,67,45
322740,note_on,360,0,8,,,,,,,,7,,,,43,45
322740,note_on,360,0,6,,,,,,,,5,,,,67,45
322860,note_off,120,0,8,,,,,,,,7,,,,43,64
322860,note_off,120,0,4,,,,,,,,3,,,,67,64
322860,note_off,120,0,7,,,,,,,,6,,,,55,64
322860,note_off,120,0,6,,,,,,,,5,,,,67,64
323220,note_on,360,0,4,,,,,,,,3,,,,69,45
323220,note_on,360,0,6,,,,,,,,5,,,,69,45
323220,note_on,360,0,7,,,,,,,,6,,,,57,45
323220,note_on,360,0,8,,,,,,,,7,,,,45,45
323620,note_off,400,0,4,,,,,,,,3,,,,69,64
323620,note_off,400,0,6,,,,,,,,5,,,,69,64
323620,note_off,400,0,7,,,,,,,,6,,,,57,64
323620,note_off,400,0,8,,,,,,,,7,,,,45,64
324060,note_on,440,0,4,,,,,,,,3,,,,72,92
324060,note_on,440,0,7,,,,,,,,6,,,,48,92
324060,note_on,6320,0,5,,,,,,,,4,,,,60,92
324060,note_on,440,0,8,,,,,,,,7,,,,36,92
324300,note_off,240,0,8,,,,,,,,7,,,,36,64
324300,note_on,0,0,8,,,,,,,,7,,,,38,92
324300,note_on,0,0,5,,,,,,,,4,,,,62,92
324300,note_off,240,0,4,,,,,,,,3,,,,72,64
324300,note_off,240,0,7,,,,,,,,6,,,,48,64
324300,note_off,240,0,5,,,,,,,,4,,,,60,64
324300,note_on,0,0,7,,,,,,,,6,,,,50,92
324300,note_on,0,0,4,,,,,,,,3,,,,74,92
324540,note_off,240,0,4,,,,,,,,3,,,,74,64
324540,note_on,0,0,4,,,,,,,,3,,,,76,92
324540,note_on,0,0,7,,,,,,,,6,,,,52,92
324540,note_off,240,0,5,,,,,,,,4,,,,62,64
324540,note_off,240,0,7,,,,,,,,6,,,,50,64
324540,note_off,240,0,8,,,,,,,,7,,,,38,64
324540,note_on,0,0,8,,,,,,,,7,,,,40,92
324540,note_on,0,0,5,,,,,,,,4,,,,64,92
324775,note_off,235,0,5,,,,,,,,4,,,,64,64
324775,note_off,235,0,7,,,,,,,,6,,,,52,64
324775,note_off,235,0,8,,,,,,,,7,,,,40,64
324775,note_off,235,0,4,,,,,,,,3,,,,76,64
324780,note_on,7040,0,3,,,,,,,,2,,,,65,92
324780,note_on,5,0,7,,,,,,,,6,,,,53,92
324780,note_on,7040,0,2,,,,,,,,1,,,,57,92
324780,program_change,1160,0,6,,,,,,,,5,,,48,,
324780,note_on,5,0,4,,,,,,,,3,,,,69,92
324780,note_on,0,0,4,,,,,,,,3,,,,77,92
324780,note_on,7040,0,1,,,,,,,,0,,,,72,92
324780,note_on,5,0,5,,,,,,,,4,,,,57,92
324780,note_on,0,0,5,,,,,,,,4,,,,65,92
324780,note_on,5,0,8,,,,,,,,7,,,,41,92
324780,note_on,0,0,6,,,,,,,,5,,,,60,92
325285,note_off,505,0,2,,,,,,,,1,,,,57,64
325285,note_off,0,0,4,,,,,,,,3,,,,69,64
325285,note_off,505,0,4,,,,,,,,3,,,,77,64
325285,note_off,505,0,1,,,,,,,,0,,,,72,64
325285,note_off,505,0,8,,,,,,,,7,,,,41,64
325285,note_off,505,0,6,,,,,,,,5,,,,60,64
325285,note_off,505,0,5,,,,,,,,4,,,,65,64
325285,note_off,505,0,7,,,,,,,,6,,,,53,64
325285,note_off,0,0,5,,,,,,,,4,,,,57,64
325285,note_off,505,0,3,,,,,,,,2,,,,65,64
325500,note_on,0,0,4,,,,,,,,3,,,,77,92
325500,note_on,215,0,8,,,,,,,,7,,,,41,92
325500,note_on,215,0,5,,,,,,,,4,,,,57,92
325500,note_on,0,0,5,,,,,,,,4,,,,65,92
325500,note_on,215,0,4,,,,,,,,3,,,,69,92
325500,note_on,215,0,3,,,,,,,,2,,,,65,92
325500,note_on,215,0,2,,,,,,,,1,,,,57,92
325500,note_on,215,0,7,,,,,,,,6,,,,53,92
325500,note_on,215,0,1,,,,,,,,0,,,,72,92
325500,note_on,215,0,6,,,,,,,,5,,,,60,92
325580,note_off,80,0,3,,,,,,,,2,,,,65,64
325580,note_off,80,0,4,,,,,,,,3,,,,77,64
325580,note_off,80,0,7,,,,,,,,6,,,,53,64
325580,note_off,80,0,1,,,,,,,,0,,,,72,64
325580,note_off,80,0,5,,,,,,,,4,,,,65,64
325580,note_off,0,0,4,,,,,,,,3,,,,69,64
325580,note_off,80,0,8,,,,,,,,7,,,,41,64
325580,note_off,80,0,6,,,,,,,,5,,,,60,64
325580,note_off,80,0,2,,,,,,,,1,,,,57,64
325580,note_off,0,0,5,,,,,,,,4,,,,57,64
325740,note_on,0,0,4,,,,,,,,3,,,,79,92
325740,note_on,160,0,8,,,,,,,,7,,,,36,92
325740,note_on,160,0,2,,,,,,,,1,,,,60,92
325740,note_on,160,0,6,,,,,,,,5,,,,64,92
325740,note_on,160,0,7,,,,,,,,6,,,,48,92
325740,note_on,160,0,4,,,,,,,,3,,,,72,92
325740,note_on,160,0,5,,,,,,,,4,,,,60,92
325740,note_on,0,0,5,,,,,,,,4,,,,67,92
325740,note_on,160,0,1,,,,,,,,0,,,,76,92
325740,note_on,160,0,3,,,,,,,,2,,,,67,92
325860,note_off,120,0,7,,,,,,,,6,,,,48,64
325860,note_off,120,0,5,,,,,,,,4,,,,67,64
325860,note_off,0,0,5,,,,,,,,4,,,,60,64
325860,note_off,120,0,8,,,,,,,,7,,,,36,64
325860,note_off,120,0,6,,,,,,,,5,,,,64,64
325860,note_off,120,0,4,,,,,,,,3,,,,79,64
325860,note_off,0,0,4,,,,,,,,3,,,,72,64
325860,note_off,120,0,1,,,,,,,,0,,,,76,64
325860,note_off,120,0,3,,,,,,,,2,,,,67,64
325860,note_off,120,0,2,,,,,,,,1,,,,60,64
326220,note_on,360,0,6,,,,,,,,5,,,,65,92
326220,note_on,360,0,2,,,,,,,,1,,,,65,92
326220,note_on,360,0,3,,,,,,,,2,,,,69,92
326220,note_on,0,0,5,,,,,,,,4,,,,69,92
326220,note_on,360,0,5,,,,,,,,4,,,,60,92
326220,note_on,0,0,4,,,,,,,,3,,,,81,92
326220,note_on,360,0,4,,,,,,,,3,,,,72,92
326220,note_on,360,0,8,,,,,,,,7,,,,41,92
326220,note_on,360,0,1,,,,,,,,0,,,,77,92
326220,note_on,360,0,7,,,,,,,,6,,,,53,92
326725,note_off,505,0,7,,,,,,,,6,,,,53,64
326725,note_off,505,0,1,,,,,,,,0,,,,77,64
326725,note_off,0,0,5,,,,,,,,4,,,,60,64
326725,note_off,505,0,6,,,,,,,,5,,,,65,64
326725,note_off,505,0,2,,,,,,,,1,,,,65,64
326725,note_off,0,0,4,,,,,,,,3,,,,72,64
326725,note_off,505,0,4,,,,,,,,3,,,,81,64
326725,note_off,505,0,8,,,,,,,,7,,,,41,64
326725,note_off,505,0,3,,,,,,,,2,,,,69,64
326725,note_off,505,0,5,,,,,,,,4,,,,69,64
326940,note_on,215,0,5,,,,,,,,4,,,,60,92
326940,note_on,215,0,1,,,,,,,,0,,,,77,92
326940,note_on,215,0,8,,,,,,,,7,,,,41,92
326940,note_on,215,0,7,,,,,,,,6,,,,53,92
326940,note_on,215,0,3,,,,,,,,2,,,,69,92
326940,note_on,215,0,6,,,,,,,,5,,,,65,92
326940,note_on,0,0,5,,,,,,,,4,,,,69,92
326940,note_on,215,0,4,,,,,,,,3,,,,72,92
326940,note_on,0,0,4,,,,,,,,3,,,,81,92
326940,note_on,215,0,2,,,,,,,,1,,,,65,92
327020,note_off,80,0,3,,,,,,,,2,,,,69,64
327020,note_off,80,0,6,,,,,,,,5,,,,65,64
327020,note_off,80,0,7,,,,,,,,6,,,,53,64
327020,note_off,80,0,1,,,,,,,,0,,,,77,64
327020,note_off,80,0,8,,,,,,,,7,,,,41,64
327020,note_off,0,0,4,,,,,,,,3,,,,72,64
327020,note_off,0,0,5,,,,,,,,4,,,,60,64
327020,note_off,80,0,4,,,,,,,,3,,,,81,64
327020,note_off,80,0,2,,,,,,,,1,,,,65,64
327020,note_off,80,0,5,,,,,,,,4,,,,69,64
327180,note_on,160,0,5,,,,,,,,4,,,,62,92
327180,note_on,160,0,1,,,,,,,,0,,,,77,92
327180,note_on,160,0,7,,,,,,,,6,,,,46,92
327180,note_on,160,0,6,,,,,,,,5,,,,65,92
327180,note_on,160,0,2,,,,,,,,1,,,,62,92
327180,note_on,160,0,3,,,,,,,,2,,,,70,92
327180,note_on,0,0,5,,,,,,,,4,,,,70,92
327180,note_on,160,0,8,,,,,,,,7,,,,34,92
327180,note_on,0,0,4,,,,,,,,3,,,,82,92
327180,note_on,160,0,4,,,,,,,,3,,,,74,92
327300,note_off,120,0,2,,,,,,,,1,,,,62,64
327300,note_off,120,0,8,,,,,,,,7,,,,34,64
327300,note_off,120,0,7,,,,,,,,6,,,,46,64
327300,note_off,120,0,4,,,,,,,,3,,,,82,64
327300,note_off,120,0,3,,,,,,,,2,,,,70,64
327300,note_off,0,0,4,,,,,,,,3,,,,74,64
327300,note_off,120,0,5,,,,,,,,4,,,,70,64
327300,note_off,0,0,5,,,,,,,,4,,,,62,64
327300,note_off,120,0,6,,,,,,,,5,,,,65,64
327300,note_off,120,0,1,,,,,,,,0,,,,77,64
327660,note_on,360,0,6,,,,,,,,5,,,,65,92
327660,note_on,360,0,3,,,,,,,,2,,,,69,92
327660,note_on,360,0,2,,,,,,,,1,,,,65,92
327660,note_on,360,0,1,,,,,,,,0,,,,77,92
327660,note_on,360,0,8,,,,,,,,7,,,,36,92
327660,note_on,360,0,7,,,,,,,,6,,,,48,92
327660,note_on,360,0,4,,,,,,,,3,,,,72,92
327660,note_on,0,0,4,,,,,,,,3,,,,81,92
327660,note_on,360,0,5,,,,,,,,4,,,,60,92
327660,note_on,0,0,5,,,,,,,,4,,,,69,92
327780,note_off,120,0,6,,,,,,,,5,,,,65,64
327780,note_off,120,0,3,,,,,,,,2,,,,69,64
327780,note_off,120,0,8,,,,,,,,7,,,,36,64
327780,note_off,120,0,4,,,,,,,,3,,,,81,64
327780,note_off,0,0,4,,,,,,,,3,,,,72,64
327780,note_off,0,0,5,,,,,,,,4,,,,60,64
327780,note_off,120,0,5,,,,,,,,4,,,,69,64
327780,note_off,120,0,2,,,,,,,,1,,,,65,64
327780,note_off,120,0,1,,,,,,,,0,,,,77,64
327780,note_off,120,0,7,,,,,,,,6,,,,48,64
328140,note_on,360,0,6,,,,,,,,5,,,,65,92
328140,note_on,360,0,1,,,,,,,,0,,,,77,92
328140,note_on,360,0,2,,,,,,,,1,,,,65,92
328140,note_on,0,0,4,,,,,,,,3,,,,81,92
328140,note_on,360,0,8,,,,,,,,7,,,,36,92
328140,note_on,360,0,4,,,,,,,,3,,,,72,92
328140,note_on,0,0,5,,,,,,,,4,,,,69,92
328140,note_on,360,0,5,,,,,,,,4,,,,60,92
328140,note_on,360,0,7,,,,,,,,6,,,,48,92
328140,note_on,360,0,3,,,,,,,,2,,,,69,92
328260,note_off,120,0,1,,,,,,,,0,,,,77,64
328260,note_off,120,0,7,,,,,,,,6,,,,48,64
328260,note_off,120,0,2,,,,,,,,1,,,,65,64
328260,note_off,120,0,8,,,,,,,,7,,,,36,64
328260,note_off,120,0,4,,,,,,,,3,,,,81,64
328260,note_off,120,0,5,,,,,,,,4,,,,69,64
328260,note_off,120,0,6,,,,,,,,5,,,,65,64
328260,note_off,0,0,4,,,,,,,,3,,,,72,64
328260,note_off,0,0,5,,,,,,,,4,,,,60,64
328260,note_off,120,0,3,,,,,,,,2,,,,69,64
328620,note_on,360,0,1,,,,,,,,0,,,,76,92
328620,note_on,360,0,8,,,,,,,,7,,,,36,92
328620,note_on,360,0,6,,,,,,,,5,,,,64,92
328620,note_on,360,0,7,,,,,,,,6,,,,48,92
328620,note_on,360,0,5,,,,,,,,4,,,,60,92
328620,note_on,0,0,5,,,,,,,,4,,,,67,92
328620,note_on,360,0,3,,,,,,,,2,,,,67,92
328620,note_on,360,0,2,,,,,,,,1,,,,60,92
328620,note_on,0,0,4,,,,,,,,3,,,,79,92
328620,note_on,360,0,4,,,,,,,,3,,,,72,92
328740,note_off,120,0,8,,,,,,,,7,,,,36,64
328740,note_off,120,0,4,,,,,,,,3,,,,79,64
328740,note_off,0,0,4,,,,,,,,3,,,,72,64
328740,note_off,120,0,1,,,,,,,,0,,,,76,64
328740,note_off,120,0,6,,,,,,,,5,,,,64,64
328740,note_off,120,0,3,,,,,,,,2,,,,67,64
328740,note_off,120,0,5,,,,,,,,4,,,,67,64
328740,note_off,0,0,5,,,,,,,,4,,,,60,64
328740,note_off,120,0,7,,,,,,,,6,,,,48,64
328740,note_off,120,0,2,,,,,,,,1,,,,60,64
329100,note_on,360,0,8,,,,,,,,7,,,,41,92
329100,note_on,360,0,7,,,,,,,,6,,,,53,92
329100,note_on,360,0,2,,,,,,,,1,,,,57,92
329100,note_on,0,0,5,,,,,,,,4,,,,65,92
329100,note_on,360,0,5,,,,,,,,4,,,,57,92
329100,note_on,360,0,3,,,,,,,,2,,,,65,92
329100,note_on,0,0,4,,,,,,,,3,,,,77,92
329100,note_on,360,0,4,,,,,,,,3,,,,69,92
329100,note_on,360,0,6,,,,,,,,5,,,,65,92
329100,note_on,360,0,1,,,,,,,,0,,,,77,92
329500,note_off,400,0,1,,,,,,,,0,,,,77,64
329500,note_off,400,0,3,,,,,,,,2,,,,65,64
329500,note_off,0,0,5,,,,,,,,4,,,,57,64
329500,note_off,0,0,4,,,,,,,,3,,,,69,64
329500,note_off,400,0,4,,,,,,,,3,,,,77,64
329500,note_off,400,0,2,,,,,,,,1,,,,57,64
329500,note_off,400,0,6,,,,,,,,5,,,,65,64
329500,note_off,400,0,7,,,,,,,,6,,,,53,64
329500,note_off,400,0,8,,,,,,,,7,,,,41,64
329500,note_off,400,0,5,,,,,,,,4,,,,65,64
329940,note_on,440,0,8,,,,,,,,7,,,,36,45
329940,note_on,440,0,7,,,,,,,,6,,,,48,45
329940,program_change,440,0,6,,,,,,,,5,,,50,,
329940,note_on,0,0,6,,,,,,,,5,,,,60,45
329940,note_on,440,0,4,,,,,,,,3,,,,60,45
330180,note_off,240,0,4,,,,,,,,3,,,,60,64
330180,note_off,240,0,7,,,,,,,,6,,,,48,64
330180,note_on,0,0,7,,,,,,,,6,,,,50,45
330180,note_on,0,0,4,,,,,,,,3,,,,62,45
330180,note_off,240,0,8,,,,,,,,7,,,,36,64
330180,note_on,0,0,8,,,,,,,,7,,,,38,45
330180,note_off,240,0,6,,,,,,,,5,,,,60,64
330180,note_on,0,0,6,,,,,,,,5,,,,62,45
330420,note_off,240,0,4,,,,,,,,3,,,,62,64
330420,note_on,0,0,4,,,,,,,,3,,,,64,45
330420,note_off,240,0,6,,,,,,,,5,,,,62,64
330420,note_on,0,0,8,,,,,,,,7,,,,40,45
330420,note_on,0,0,7,,,,,,,,6,,,,52,45
330420,note_off,240,0,7,,,,,,,,6,,,,50,64
330420,note_on,0,0,6,,,,,,,,5,,,,64,45
330420,note_off,240,0,8,,,,,,,,7,,,,38,64
330655,note_off,235,0,8,,,,,,,,7,,,,40,64
330655,note_off,235,0,4,,,,,,,,3,,,,64,64
330655,note_off,235,0,7,,,,,,,,6,,,,52,64
330655,note_off,235,0,6,,,,,,,,5,,,,64,64
330660,note_on,5,0,8,,,,,,,,7,,,,41,45
330660,note_on,5,0,4,,,,,,,,3,,,,65,45
330660,note_on,5,0,6,,,,,,,,5,,,,65,45
330660,note_on,5,0,7,,,,,,,,6,,,,53,45
331165,note_off,505,0,4,,,,,,,,3,,,,65,64
331165,note_off,505,0,6,,,,,,,,5,,,,65,64
331165,note_off,505,0,7,,,,,,,,6,,,,53,64
331165,note_off,505,0,8,,,,,,,,7,,,,41,64
331380,note_on,215,0,4,,,,,,,,3,,,,65,45
331380,note_on,215,0,8,,,,,,,,7,,,,41,45
331380,note_on,215,0,6,,,,,,,,5,,,,65,45
331380,note_on,215,0,7,,,,,,,,6,,,,53,45
331460,note_off,80,0,8,,,,,,,,7,,,,41,64
331460,note_off,80,0,6,,,,,,,,5,,,,65,64
331460,note_off,80,0,7,,,,,,,,6,,,,53,64
331460,note_off,80,0,4,,,,,,,,3,,,,65,64
331620,note_on,160,0,8,,,,,,,,7,,,,43,45
331620,note_on,160,0,7,,,,,,,,6,,,,55,45
331620,note_on,160,0,4,,,,,,,,3,,,,67,45
331620,note_on,160,0,6,,,,,,,,5,,,,67,45
331740,note_off,120,0,4,,,,,,,,3,,,,67,64
331740,note_off,120,0,8,,,,,,,,7,,,,43,64
331740,note_off,120,0,7,,,,,,,,6,,,,55,64
331740,note_off,120,0,6,,,,,,,,5,,,,67,64
332100,note_on,360,0,4,,,,,,,,3,,,,65,45
332100,note_on,360,0,8,,,,,,,,7,,,,41,45
332100,note_on,360,0,7,,,,,,,,6,,,,53,45
332100,note_on,360,0,6,,,,,,,,5,,,,65,45
332605,note_off,505,0,4,,,,,,,,3,,,,65,64
332605,note_off,505,0,8,,,,,,,,7,,,,41,64
332605,note_off,505,0,6,,,,,,,,5,,,,65,64
332605,note_off,505,0,7,,,,,,,,6,,,,53,64
332820,note_on,215,0,7,,,,,,,,6,,,,53,45
332820,note_on,215,0,6,,,,,,,,5,,,,65,45
332820,note_on,215,0,4,,,,,,,,3,,,,65,45
332820,note_on,215,0,8,,,,,,,,7,,,,41,45
332900,note_off,80,0,8,,,,,,,,7,,,,41,64
332900,note_off,80,0,4,,,,,,,,3,,,,65,64
332900,note_off,80,0,6,,,,,,,,5,,,,65,64
332900,note_off,80,0,7,,,,,,,,6,,,,53,64
333060,note_on,160,0,4,,,,,,,,3,,,,64,45
333060,note_on,160,0,6,,,,,,,,5,,,,64,45
333060,note_on,160,0,8,,,,,,,,7,,,,40,45
333060,note_on,160,0,7,,,,,,,,6,,,,52,45
333180,note_off,120,0,4,,,,,,,,3,,,,64,64
333180,note_off,120,0,7,,,,,,,,6,,,,52,64
333180,note_off,120,0,8,,,,,,,,7,,,,40,64
333180,note_off,120,0,6,,,,,,,,5,,,,64,64
333540,note_on,360,0,7,,,,,,,,6,,,,50,45
333540,note_on,360,0,8,,,,,,,,7,,,,38,45
333540,note_on,360,0,6,,,,,,,,5,,,,62,45
333540,note_on,360,0,4,,,,,,,,3,,,,62,45
333660,note_off,120,0,4,,,,,,,,3,,,,62,64
333660,note_off,120,0,6,,,,,,,,5,,,,62,64
333660,note_off,120,0,8,,,,,,,,7,,,,38,64
333660,note_off,120,0,7,,,,,,,,6,,,,50,64
334020,note_on,360,0,7,,,,,,,,6,,,,53,45
334020,note_on,360,0,6,,,,,,,,5,,,,65,45
334020,note_on,360,0,4,,,,,,,,3,,,,65,45
334020,note_on,360,0,8,,,,,,,,7,,,,41,45
334140,note_off,120,0,8,,,,,,,,7,,,,41,64
334140,note_off,120,0,4,,,,,,,,3,,,,65,64
334140,note_off,120,0,6,,,,,,,,5,,,,65,64
334140,note_off,120,0,7,,,,,,,,6,,,,53,64
334500,note_on,360,0,6,,,,,,,,5,,,,67,54
334500,note_on,360,0,7,,,,,,,,6,,,,55,54
334500,note_on,360,0,4,,,,,,,,3,,,,67,54
334500,note_on,360,0,8,,,,,,,,7,,,,43,54
334620,note_off,120,0,4,,,,,,,,3,,,,67,64
334620,note_off,120,0,8,,,,,,,,7,,,,43,64
334620,note_off,120,0,7,,,,,,,,6,,,,55,64
334620,note_off,120,0,6,,,,,,,,5,,,,67,64
334980,note_on,360,0,4,,,,,,,,3,,,,69,63
334980,note_on,360,0,8,,,,,,,,7,,,,45,63
334980,note_on,360,0,6,,,,,,,,5,,,,69,63
334980,note_on,360,0,7,,,,,,,,6,,,,57,63
335100,note_off,120,0,7,,,,,,,,6,,,,57,64
335100,note_off,120,0,4,,,,,,,,3,,,,69,64
335100,note_off,120,0,6,,,,,,,,5,,,,69,64
335100,note_off,120,0,8,,,,,,,,7,,,,45,64
335460,note_on,360,0,8,,,,,,,,7,,,,46,72
335460,note_on,360,0,7,,,,,,,,6,,,,58,72
335580,note_off,120,0,7,,,,,,,,6,,,,58,64
335580,note_off,120,0,8,,,,,,,,7,,,,46,64
335940,note_on,360,0,7,,,,,,,,6,,,,59,82
335940,note_on,360,0,8,,,,,,,,7,,,,47,82
336060,note_off,120,0,8,,,,,,,,7,,,,47,64
336060,note_off,120,0,7,,,,,,,,6,,,,59,64
336420,note_on,6920,0,2,,,,,,,,1,,,,64,92
336420,note_on,0,0,6,,,,,,,,5,,,,72,92
336420,note_on,360,0,8,,,,,,,,7,,,,48,92
336420,note_on,6920,0,3,,,,,,,,2,,,,67,92
336420,note_on,6920,0,1,,,,,,,,0,,,,82,92
336420,note_on,360,0,7,,,,,,,,6,,,,60,92
336420,note_on,0,0,5,,,,,,,,4,,,,79,92
336420,note_on,1320,0,4,,,,,,,,3,,,,76,92
336420,note_on,0,0,4,,,,,,,,3,,,,84,92
336420,note_on,6920,0,5,,,,,,,,4,,,,70,92
336420,program_change,1320,0,6,,,,,,,,5,,,48,,
336925,note_off,505,0,2,,,,,,,,1,,,,64,64
336925,note_off,0,0,5,,,,,,,,4,,,,70,64
336925,note_off,505,0,5,,,,,,,,4,,,,79,64
336925,note_off,505,0,4,,,,,,,,3,,,,84,64
336925,note_off,0,0,4,,,,,,,,3,,,,76,64
336925,note_off,505,0,3,,,,,,,,2,,,,67,64
336925,note_off,505,0,6,,,,,,,,5,,,,72,64
336925,note_off,505,0,1,,,,,,,,0,,,,82,64
337140,note_on,215,0,6,,,,,,,,5,,,,72,92
337140,note_on,215,0,4,,,,,,,,3,,,,76,92
337140,note_on,215,0,1,,,,,,,,0,,,,82,92
337140,note_on,0,0,5,,,,,,,,4,,,,79,92
337140,note_on,215,0,5,,,,,,,,4,,,,70,92
337140,note_on,215,0,2,,,,,,,,1,,,,64,92
337140,note_on,0,0,4,,,,,,,,3,,,,84,92
337140,note_on,215,0,3,,,,,,,,2,,,,67,92
337220,note_off,0,0,5,,,,,,,,4,,,,70,64
337220,note_off,80,0,5,,,,,,,,4,,,,79,64
337220,note_off,80,0,6,,,,,,,,5,,,,72,64
337220,note_off,80,0,2,,,,,,,,1,,,,64,64
337220,note_off,0,0,4,,,,,,,,3,,,,76,64
337220,note_off,80,0,4,,,,,,,,3,,,,84,64
337220,note_off,80,0,1,,,,,,,,0,,,,82,64
337220,note_off,80,0,3,,,,,,,,2,,,,67,64
337380,note_on,160,0,3,,,,,,,,2,,,,67,92
337380,note_on,160,0,4,,,,,,,,3,,,,77,92
337380,note_on,160,0,2,,,,,,,,1,,,,65,92
337380,note_on,160,0,1,,,,,,,,0,,,,82,92
337380,note_on,0,0,4,,,,,,,,3,,,,86,92
337380,note_on,160,0,6,,,,,,,,5,,,,74,92
337380,note_on,160,0,5,,,,,,,,4,,,,70,92
337380,note_on,0,0,5,,,,,,,,4,,,,79,92
337500,note_off,120,0,5,,,,,,,,4,,,,79,64
337500,note_off,120,0,2,,,,,,,,1,,,,65,64
337500,note_off,120,0,4,,,,,,,,3,,,,86,64
337500,note_off,0,0,4,,,,,,,,3,,,,77,64
337500,note_off,0,0,5,,,,,,,,4,,,,70,64
337500,note_off,120,0,1,,,,,,,,0,,,,82,64
337500,note_off,120,0,3,,,,,,,,2,,,,67,64
337500,note_off,120,0,6,,,,,,,,5,,,,74,64
337740,note_off,1320,0,7,,,,,,,,6,,,,60,64
337740,note_off,1320,0,8,,,,,,,,7,,,,48,64
337860,note_on,360,0,1,,,,,,,,0,,,,82,92
337860,note_on,0,0,4,,,,,,,,3,,,,84,92
337860,note_on,360,0,4,,,,,,,,3,,,,76,92
337860,note_on,360,0,3,,,,,,,,2,,,,67,92
337860,note_on,0,0,5,,,,,,,,4,,,,79,92
337860,note_on,360,0,6,,,,,,,,5,,,,72,92
337860,note_on,360,0,2,,,,,,,,1,,,,64,92
337860,note_on,120,0,7,,,,,,,,6,,,,60,92
337860,note_on,360,0,5,,,,,,,,4,,,,70,92
337860,note_on,120,0,8,,,,,,,,7,,,,48,92
338365,note_off,0,0,5,,,,,,,,4,,,,70,64
338365,note_off,505,0,1,,,,,,,,0,,,,82,64
338365,note_off,505,0,5,,,,,,,,4,,,,79,64
338365,note_off,505,0,2,,,,,,,,1,,,,64,64
338365,note_off,0,0,4,,,,,,,,3,,,,76,64
338365,note_off,505,0,4,,,,,,,,3,,,,84,64
338365,note_off,505,0,6,,,,,,,,5,,,,72,64
338365,note_off,505,0,3,,,,,,,,2,,,,67,64
338580,note_on,0,0,4,,,,,,,,3,,,,84,92
338580,note_on,215,0,4,,,,,,,,3,,,,76,92
338580,note_on,215,0,5,,,,,,,,4,,,,70,92
338580,note_on,0,0,5,,,,,,,,4,,,,79,92
338580,note_on,215,0,3,,,,,,,,2,,,,67,92
338580,note_on,215,0,2,,,,,,,,1,,,,64,92
338580,note_on,215,0,6,,,,,,,,5,,,,72,92
338580,note_on,215,0,1,,,,,,,,0,,,,82,92
338660,note_off,80,0,3,,,,,,,,2,,,,67,64
338660,note_off,80,0,2,,,,,,,,1,,,,64,64
338660,note_off,80,0,1,,,,,,,,0,,,,82,64
338660,note_off,80,0,4,,,,,,,,3,,,,84,64
338660,note_off,80,0,5,,,,,,,,4,,,,79,64
338660,note_off,0,0,4,,,,,,,,3,,,,76,64
338660,note_off,80,0,6,,,,,,,,5,,,,72,64
338660,note_off,0,0,5,,,,,,,,4,,,,70,64
338820,note_on,160,0,5,,,,,,,,4,,,,70,92
338820,note_on,160,0,4,,,,,,,,3,,,,77,92
338820,note_on,0,0,4,,,,,,,,3,,,,86,92
338820,note_on,160,0,3,,,,,,,,2,,,,67,92
338820,note_on,0,0,5,,,,,,,,4,,,,79,92
338820,note_on,160,0,2,,,,,,,,1,,,,65,92
338820,note_on,160,0,1,,,,,,,,0,,,,82,92
338820,note_on,160,0,6,,,,,,,,5,,,,74,92
338940,note_off,120,0,3,,,,,,,,2,,,,67,64
338940,note_off,120,0,2,,,,,,,,1,,,,65,64
338940,note_off,0,0,4,,,,,,,,3,,,,77,64
338940,note_off,120,0,4,,,,,,,,3,,,,86,64
338940,note_off,120,0,6,,,,,,,,5,,,,74,64
338940,note_off,120,0,1,,,,,,,,0,,,,82,64
339180,note_off,1320,0,7,,,,,,,,6,,,,60,64
339180,note_off,1320,0,8,,,,,,,,7,,,,48,64
339220,note_off,0,0,5,,,,,,,,4,,,,70,64
339220,note_off,400,0,5,,,,,,,,4,,,,79,64
339300,note_on,120,0,8,,,,,,,,7,,,,48,92
339300,note_on,360,0,3,,,,,,,,2,,,,67,92
339300,note_on,0,0,4,,,,,,,,3,,,,84,92
339300,note_on,360,0,4,,,,,,,,3,,,,76,92
339300,note_on,360,0,1,,,,,,,,0,,,,82,92
339300,note_on,0,0,5,,,,,,,,4,,,,79,92
339300,note_on,80,0,5,,,,,,,,4,,,,70,92
339300,note_on,120,0,7,,,,,,,,6,,,,60,92
339300,note_on,360,0,2,,,,,,,,1,,,,64,92
339300,note_on,360,0,6,,,,,,,,5,,,,72,92
339805,note_off,0,0,5,,,,,,,,4,,,,70,64
339805,note_off,505,0,5,,,,,,,,4,,,,79,64
339805,note_off,505,0,6,,,,,,,,5,,,,72,64
339805,note_off,505,0,3,,,,,,,,2,,,,67,64
339805,note_off,505,0,2,,,,,,,,1,,,,64,64
339805,note_off,505,0,1,,,,,,,,0,,,,82,64
339805,note_off,505,0,4,,,,,,,,3,,,,84,64
339805,note_off,0,0,4,,,,,,,,3,,,,76,64
340020,note_on,215,0,6,,,,,,,,5,,,,72,92
340020,note_on,215,0,2,,,,,,,,1,,,,64,92
340020,note_on,215,0,3,,,,,,,,2,,,,67,92
340020,note_on,215,0,1,,,,,,,,0,,,,82,92
340020,note_on,215,0,5,,,,,,,,4,,,,70,92
340020,note_on,0,0,5,,,,,,,,4,,,,79,92
340020,note_on,0,0,4,,,,,,,,3,,,,84,92
340020,note_on,215,0,4,,,,,,,,3,,,,76,92
340100,note_off,80,0,1,,,,,,,,0,,,,82,64
340100,note_off,80,0,4,,,,,,,,3,,,,84,64
340100,note_off,80,0,5,,,,,,,,4,,,,79,64
340100,note_off,80,0,2,,,,,,,,1,,,,64,64
340100,note_off,0,0,4,,,,,,,,3,,,,76,64
340100,note_off,0,0,5,,,,,,,,4,,,,70,64
340100,note_off,80,0,3,,,,,,,,2,,,,67,64
340100,note_off,80,0,6,,,,,,,,5,,,,72,64
340260,note_on,160,0,2,,,,,,,,1,,,,65,92
340260,note_on,160,0,4,,,,,,,,3,,,,77,92
340260,note_on,0,0,4,,,,,,,,3,,,,86,92
340260,note_on,160,0,5,,,,,,,,4,,,,70,92
340260,note_on,0,0,5,,,,,,,,4,,,,79,92
340260,note_on,160,0,3,,,,,,,,2,,,,67,92
340260,note_on,160,0,6,,,,,,,,5,,,,74,92
340260,note_on,160,0,1,,,,,,,,0,,,,82,92
340380,note_off,120,0,1,,,,,,,,0,,,,82,64
340380,note_off,120,0,2,,,,,,,,1,,,,65,64
340380,note_off,120,0,6,,,,,,,,5,,,,74,64
340380,note_off,0,0,5,,,,,,,,4,,,,70,64
340380,note_off,120,0,4,,,,,,,,3,,,,86,64
340380,note_off,120,0,5,,,,,,,,4,,,,79,64
340380,note_off,0,0,4,,,,,,,,3,,,,77,64
340620,note_off,1320,0,8,,,,,,,,7,,,,48,64
340620,note_off,1320,0,7,,,,,,,,6,,,,60,64
340660,note_off,400,0,3,,,,,,,,2,,,,67,64
340740,note_on,120,0,8,,,,,,,,7,,,,36,92
340740,note_on,0,0,5,,,,,,,,4,,,,79,92
340740,note_on,360,0,5,,,,,,,,4,,,,70,92
340740,note_on,0,0,4,,,,,,,,3,,,,84,92
340740,note_on,360,0,4,,,,,,,,3,,,,76,92
340740,note_on,360,0,1,,,,,,,,0,,,,82,92
340740,note_on,80,0,3,,,,,,,,2,,,,67,92
340740,note_on,120,0,7,,,,,,,,6,,,,48,92
340740,note_on,360,0,2,,,,,,,,1,,,,64,92
340740,note_on,360,0,6,,,,,,,,5,,,,72,92
340860,note_off,120,0,8,,,,,,,,7,,,,36,64
340860,note_off,120,0,7,,,,,,,,6,,,,48,64
341140,note_off,0,0,4,,,,,,,,3,,,,76,64
341140,note_off,400,0,4,,,,,,,,3,,,,84,64
341140,note_off,400,0,5,,,,,,,,4,,,,79,64
341140,note_off,400,0,3,,,,,,,,2,,,,67,64
341140,note_off,400,0,1,,,,,,,,0,,,,82,64
341140,note_off,400,0,2,,,,,,,,1,,,,64,64
341140,note_off,400,0,6,,,,,,,,5,,,,72,64
341140,note_off,0,0,5,,,,,,,,4,,,,70,64
341220,note_on,360,0,8,,,,,,,,7,,,,38,92
341220,note_on,360,0,7,,,,,,,,6,,,,50,92
341340,note_off,120,0,7,,,,,,,,6,,,,50,64
341340,note_off,120,0,8,,,,,,,,7,,,,38,64
341700,note_on,360,0,8,,,,,,,,7,,,,40,92
341700,note_on,360,0,7,,,,,,,,6,,,,52,92
341820,note_off,120,0,7,,,,,,,,6,,,,52,64
341820,note_off,120,0,8,,,,,,,,7,,,,40,64
342180,note_on,1040,0,3,,,,,,,,2,,,,72,92
342180,note_on,1040,0,6,,,,,,,,5,,,,65,92
342180,note_on,1040,0,4,,,,,,,,3,,,,69,92
342180,note_on,0,0,4,,,,,,,,3,,,,77,92
342180,note_on,360,0,8,,,,,,,,7,,,,41,92
342180,note_on,1040,0,1,,,,,,,,0,,,,77,92
342180,note_on,1040,0,5,,,,,,,,4,,,,75,92
342180,note_on,360,0,7,,,,,,,,6,,,,53,92
342180,note_on,1040,0,2,,,,,,,,1,,,,65,92
342685,note_off,505,0,3,,,,,,,,2,,,,72,64
342685,note_off,505,0,4,,,,,,,,3,,,,77,64
342685,note_off,0,0,4,,,,,,,,3,,,,69,64
342685,note_off,505,0,2,,,,,,,,1,,,,65,64
342685,note_off,505,0,1,,,,,,,,0,,,,77,64
342685,note_off,505,0,5,,,,,,,,4,,,,75,64
342685,note_off,505,0,6,,,,,,,,5,,,,65,64
342900,note_on,215,0,5,,,,,,,,4,,,,75,92
342900,note_on,0,0,4,,,,,,,,3,,,,77,92
342900,note_on,215,0,4,,,,,,,,3,,,,69,92
342900,note_on,215,0,2,,,,,,,,1,,,,65,92
342900,note_on,215,0,1,,,,,,,,0,,,,77,92
342900,note_on,215,0,3,,,,,,,,2,,,,72,92
342900,note_on,215,0,6,,,,,,,,5,,,,65,92
342980,note_off,0,0,4,,,,,,,,3,,,,69,64
342980,note_off,80,0,4,,,,,,,,3,,,,77,64
342980,note_off,80,0,6,,,,,,,,5,,,,65,64
342980,note_off,80,0,2,,,,,,,,1,,,,65,64
342980,note_off,80,0,1,,,,,,,,0,,,,77,64
342980,note_off,80,0,3,,,,,,,,2,,,,72,64
342980,note_off,80,0,5,,,,,,,,4,,,,75,64
343140,note_on,160,0,2,,,,,,,,1,,,,67,92
343140,note_on,160,0,5,,,,,,,,4,,,,75,92
343140,note_on,160,0,6,,,,,,,,5,,,,67,92
343140,note_on,160,0,4,,,,,,,,3,,,,70,92
343140,note_on,0,0,4,,,,,,,,3,,,,79,92
343140,note_on,160,0,1,,,,,,,,0,,,,79,92
343140,note_on,160,0,3,,,,,,,,2,,,,72,92
343260,note_off,120,0,3,,,,,,,,2,,,,72,64
343260,note_off,120,0,4,,,,,,,,3,,,,79,64
343260,note_off,120,0,6,,,,,,,,5,,,,67,64
343260,note_off,0,0,4,,,,,,,,3,,,,70,64
343260,note_off,120,0,5,,,,,,,,4,,,,75,64
343260,note_off,120,0,1,,,,,,,,0,,,,79,64
343260,note_off,120,0,2,,,,,,,,1,,,,67,64
343500,note_off,1320,0,7,,,,,,,,6,,,,53,64
343500,note_off,1320,0,8,,,,,,,,7,,,,41,64
343620,note_on,360,0,5,,,,,,,,4,,,,75,92
343620,note_on,120,0,8,,,,,,,,7,,,,41,92
343620,note_on,360,0,2,,,,,,,,1,,,,65,92
343620,note_on,360,0,4,,,,,,,,3,,,,69,92
343620,note_on,0,0,4,,,,,,,,3,,,,77,92
343620,note_on,360,0,6,,,,,,,,5,,,,65,92
343620,note_on,120,0,7,,,,,,,,6,,,,53,92
343620,note_on,360,0,3,,,,,,,,2,,,,72,92
343620,note_on,360,0,1,,,,,,,,0,,,,77,92
344125,note_off,505,0,2,,,,,,,,1,,,,65,64
344125,note_off,505,0,6,,,,,,,,5,,,,65,64
344125,note_off,505,0,3,,,,,,,,2,,,,72,64
344125,note_off,505,0,1,,,,,,,,0,,,,77,64
344125,note_off,505,0,5,,,,,,,,4,,,,75,64
344125,note_off,0,0,4,,,,,,,,3,,,,69,64
344125,note_off,505,0,4,,,,,,,,3,,,,77,64
344340,note_on,215,0,3,,,,,,,,2,,,,72,92
344340,note_on,215,0,2,,,,,,,,1,,,,65,92
344340,note_on,215,0,4,,,,,,,,3,,,,69,92
344340,note_on,215,0,1,,,,,,,,0,,,,77,92
344340,note_on,215,0,5,,,,,,,,4,,,,75,92
344340,note_on,0,0,4,,,,,,,,3,,,,77,92
344340,note_on,215,0,6,,,,,,,,5,,,,65,92
344420,note_off,80,0,3,,,,,,,,2,,,,72,64
344420,note_off,80,0,6,,,,,,,,5,,,,65,64
344420,note_off,80,0,2,,,,,,,,1,,,,65,64
344420,note_off,80,0,4,,,,,,,,3,,,,77,64
344420,note_off,80,0,5,,,,,,,,4,,,,75,64
344420,note_off,0,0,4,,,,,,,,3,,,,69,64
344420,note_off,80,0,1,,,,,,,,0,,,,77,64
344580,note_on,160,0,1,,,,,,,,0,,,,79,92
344580,note_on,160,0,5,,,,,,,,4,,,,75,92
344580,note_on,160,0,4,,,,,,,,3,,,,70,92
344580,note_on,160,0,6,,,,,,,,5,,,,67,92
344580,note_on,0,0,4,,,,,,,,3,,,,79,92
344580,note_on,160,0,3,,,,,,,,2,,,,72,92
344580,note_on,160,0,2,,,,,,,,1,,,,67,92
344700,note_off,120,0,5,,,,,,,,4,,,,75,64
344700,note_off,0,0,4,,,,,,,,3,,,,70,64
344700,note_off,120,0,4,,,,,,,,3,,,,79,64
344700,note_off,120,0,3,,,,,,,,2,,,,72,64
344700,note_off,120,0,6,,,,,,,,5,,,,67,64
344700,note_off,120,0,1,,,,,,,,0,,,,79,64
344700,note_off,120,0,2,,,,,,,,1,,,,67,64
344940,note_off,1320,0,7,,,,,,,,6,,,,53,64
344940,note_off,1320,0,8,,,,,,,,7,,,,41,64
345060,note_on,360,0,5,,,,,,,,4,,,,75,92
345060,note_on,360,0,6,,,,,,,,5,,,,65,92
345060,note_on,0,0,4,,,,,,,,3,,,,77,92
345060,note_on,120,0,8,,,,,,,,7,,,,41,92
345060,note_on,360,0,1,,,,,,,,0,,,,77,92
345060,note_on,360,0,2,,,,,,,,1,,,,65,92
345060,note_on,360,0,3,,,,,,,,2,,,,72,92
345060,note_on,120,0,7,,,,,,,,6,,,,53,92
345060,note_on,360,0,4,,,,,,,,3,,,,69,92
345565,note_off,0,0,4,,,,,,,,3,,,,69,64
345565,note_off,505,0,3,,,,,,,,2,,,,72,64
345565,note_off,505,0,1,,,,,,,,0,,,,77,64
345565,note_off,505,0,6,,,,,,,,5,,,,65,64
345565,note_off,505,0,5,,,,,,,,4,,,,75,64
345565,note_off,505,0,4,,,,,,,,3,,,,77,64
345565,note_off,505,0,2,,,,,,,,1,,,,65,64
345780,note_on,215,0,5,,,,,,,,4,,,,75,92
345780,note_on,0,0,4,,,,,,,,3,,,,77,92
345780,note_on,215,0,2,,,,,,,,1,,,,65,92
345780,note_on,215,0,6,,,,,,,,5,,,,65,92
345780,note_on,215,0,3,,,,,,,,2,,,,72,92
345780,note_on,215,0,1,,,,,,,,0,,,,77,92
345780,note_on,215,0,4,,,,,,,,3,,,,69,92
345860,note_off,80,0,2,,,,,,,,1,,,,65,64
345860,note_off,80,0,4,,,,,,,,3,,,,77,64
345860,note_off,80,0,5,,,,,,,,4,,,,75,64
345860,note_off,80,0,6,,,,,,,,5,,,,65,64
345860,note_off,80,0,1,,,,,,,,0,,,,77,64
345860,note_off,80,0,3,,,,,,,,2,,,,72,64
345860,note_off,0,0,4,,,,,,,,3,,,,69,64
346020,note_on,160,0,1,,,,,,,,0,,,,79,92
346020,note_on,160,0,5,,,,,,,,4,,,,75,92
346020,note_on,0,0,4,,,,,,,,3,,,,79,92
346020,note_on,160,0,3,,,,,,,,2,,,,72,92
346020,note_on,160,0,6,,,,,,,,5,,,,67,92
346020,note_on,160,0,2,,,,,,,,1,,,,67,92
346020,note_on,160,0,4,,,,,,,,3,,,,70,92
346140,note_off,120,0,6,,,,,,,,5,,,,67,64
346140,note_off,120,0,5,,,,,,,,4,,,,75,64
346140,note_off,120,0,1,,,,,,,,0,,,,79,64
346140,note_off,0,0,4,,,,,,,,3,,,,70,64
346140,note_off,120,0,4,,,,,,,,3,,,,79,64
346140,note_off,120,0,3,,,,,,,,2,,,,72,64
346380,note_off,1320,0,8,,,,,,,,7,,,,41,64
346380,note_off,1320,0,7,,,,,,,,6,,,,53,64
346420,note_off,400,0,2,,,,,,,,1,,,,67,64
346500,note_on,360,0,1,,,,,,,,0,,,,77,92
346500,note_on,360,0,3,,,,,,,,2,,,,72,92
346500,note_on,80,0,2,,,,,,,,1,,,,65,92
346500,note_on,360,0,4,,,,,,,,3,,,,69,92
346500,note_on,360,0,6,,,,,,,,5,,,,65,92
346500,note_on,360,0,5,,,,,,,,4,,,,75,92
346500,note_on,0,0,4,,,,,,,,3,,,,77,92
346500,note_on,120,0,8,,,,,,,,7,,,,41,92
346500,note_on,120,0,7,,,,,,,,6,,,,53,92
346620,note_off,120,0,7,,,,,,,,6,,,,53,64
346620,note_off,120,0,8,,,,,,,,7,,,,41,64
346900,note_off,400,0,6,,,,,,,,5,,,,65,64
346900,note_off,400,0,3,,,,,,,,2,,,,72,64
346900,note_off,400,0,5,,,,,,,,4,,,,75,64
346900,note_off,400,0,4,,,,,,,,3,,,,77,64
346900,note_off,0,0,4,,,,,,,,3,,,,69,64
346900,note_off,400,0,2,,,,,,,,1,,,,65,64
346900,note_off,400,0,1,,,,,,,,0,,,,77,64
346980,note_on,360,0,7,,,,,,,,6,,,,55,79
346980,note_on,360,0,8,,,,,,,,7,,,,43,79
347100,note_off,120,0,8,,,,,,,,7,,,,43,64
347100,note_off,120,0,7,,,,,,,,6,,,,55,64
347460,note_on,360,0,8,,,,,,,,7,,,,45,66
347460,note_on,360,0,7,,,,,,,,6,,,,57,66
347640,note_off,180,0,8,,,,,,,,7,,,,45,64
347640,note_off,180,0,7,,,,,,,,6,,,,57,64
348180,note_on,540,0,8,,,,,,,,7,,,,46,45
348180,note_on,1280,0,4,,,,,,,,3,,,,82,45
348180,note_on,540,0,7,,,,,,,,6,,,,58,45
348180,set_tempo,35160,1,0,238095,,,,,,,,,,,,
348580,note_off,400,0,7,,,,,,,,6,,,,58,64
348580,note_off,400,0,8,,,,,,,,7,,,,46,64
348775,note_off,595,0,4,,,,,,,,3,,,,82,64
348900,note_on,125,0,4,,,,,,,,3,,,,82,45
349140,note_on,2240,0,6,,,,,,,,5,,,,65,45
349140,note_on,0,0,4,,,,,,,,3,,,,84,45
349140,note_on,2240,0,5,,,,,,,,4,,,,62,45
349140,note_on,0,0,5,,,,,,,,4,,,,70,45
349140,note_off,240,0,4,,,,,,,,3,,,,82,64
349260,note_off,120,0,4,,,,,,,,3,,,,84,64
349540,note_off,400,0,5,,,,,,,,4,,,,70,64
349540,note_off,400,0,6,,,,,,,,5,,,,65,64
349540,note_off,0,0,5,,,,,,,,4,,,,62,64
349620,note_on,1040,0,7,,,,,,,,6,,,,55,45
349620,note_on,1040,0,8,,,,,,,,7,,,,43,45
349620,note_on,360,0,4,,,,,,,,3,,,,82,45
350020,note_off,400,0,8,,,,,,,,7,,,,43,64
350020,note_off,400,0,7,,,,,,,,6,,,,55,64
350215,note_off,595,0,4,,,,,,,,3,,,,82,64
350340,note_on,125,0,4,,,,,,,,3,,,,82,45
350580,note_on,1040,0,6,,,,,,,,5,,,,67,45
350580,note_on,0,0,4,,,,,,,,3,,,,84,45
350580,note_on,0,0,5,,,,,,,,4,,,,70,45
350580,note_on,1040,0,5,,,,,,,,4,,,,62,45
350580,note_off,240,0,4,,,,,,,,3,,,,82,64
350700,note_off,120,0,4,,,,,,,,3,,,,84,64
350980,note_off,400,0,6,,,,,,,,5,,,,67,64
350980,note_off,400,0,5,,,,,,,,4,,,,70,64
350980,note_off,0,0,5,,,,,,,,4,,,,62,64
351060,note_on,360,0,4,,,,,,,,3,,,,82,45
351060,note_on,1040,0,7,,,,,,,,6,,,,52,45
351060,note_on,1040,0,8,,,,,,,,7,,,,40,45
351460,note_off,400,0,7,,,,,,,,6,,,,52,64
351460,note_off,400,0,8,,,,,,,,7,,,,40,64
351655,note_off,595,0,4,,,,,,,,3,,,,82,64
351780,note_on,125,0,4,,,,,,,,3,,,,82,45
352020,note_on,1040,0,6,,,,,,,,5,,,,61,45
352020,note_on,1040,0,5,,,,,,,,4,,,,67,45
352020,note_on,0,0,5,,,,,,,,4,,,,70,45
352020,note_on,0,0,4,,,,,,,,3,,,,84,45
352020,note_off,240,0,4,,,,,,,,3,,,,82,64
352140,note_off,120,0,4,,,,,,,,3,,,,84,64
352420,note_off,400,0,6,,,,,,,,5,,,,61,64
352420,note_off,400,0,5,,,,,,,,4,,,,70,64
352420,note_off,0,0,5,,,,,,,,4,,,,67,64
352500,note_on,1040,0,8,,,,,,,,7,,,,37,45
352500,note_on,360,0,4,,,,,,,,3,,,,82,45
352500,note_on,1040,0,7,,,,,,,,6,,,,49,45
352900,note_off,400,0,8,,,,,,,,7,,,,37,64
352900,note_off,400,0,7,,,,,,,,6,,,,49,64
353095,note_off,595,0,4,,,,,,,,3,,,,82,64
353220,note_on,125,0,4,,,,,,,,3,,,,82,45
353460,note_on,1040,0,5,,,,,,,,4,,,,67,45
353460,note_on,0,0,5,,,,,,,,4,,,,70,45
353460,note_on,1040,0,6,,,,,,,,5,,,,64,45
353460,note_on,0,0,4,,,,,,,,3,,,,84,45
353460,note_off,240,0,4,,,,,,,,3,,,,82,64
353580,note_off,120,0,4,,,,,,,,3,,,,84,64
353860,note_off,400,0,5,,,,,,,,4,,,,70,64
353860,note_off,0,0,5,,,,,,,,4,,,,67,64
353860,note_off,400,0,6,,,,,,,,5,,,,64,64
353940,note_on,80,0,6,,,,,,,,5,,,,65,45
353940,note_on,1040,0,8,,,,,,,,7,,,,38,45
353940,note_on,1040,0,7,,,,,,,,6,,,,50,45
353940,note_on,0,0,5,,,,,,,,4,,,,69,45
353940,note_on,80,0,5,,,,,,,,4,,,,62,45
353940,note_on,360,0,4,,,,,,,,3,,,,81,45
354340,note_off,400,0,8,,,,,,,,7,,,,38,64
354340,note_off,400,0,7,,,,,,,,6,,,,50,64
354535,note_off,595,0,6,,,,,,,,5,,,,65,64
354535,note_off,595,0,5,,,,,,,,4,,,,69,64
354535,note_off,595,0,4,,,,,,,,3,,,,81,64
354535,note_off,0,0,5,,,,,,,,4,,,,62,64
354660,note_on,0,0,5,,,,,,,,4,,,,69,45
354660,note_on,125,0,6,,,,,,,,5,,,,65,45
354660,note_on,125,0,5,,,,,,,,4,,,,62,45
354660,note_on,125,0,4,,,,,,,,3,,,,81,45
354900,note_off,0,0,5,,,,,,,,4,,,,62,64
354900,note_on,0,0,4,,,,,,,,3,,,,82,45
354900,note_on,0,0,6,,,,,,,,5,,,,67,45
354900,note_off,240,0,5,,,,,,,,4,,,,69,64
354900,note_off,240,0,6,,,,,,,,5,,,,65,64
354900,note_off,240,0,4,,,,,,,,3,,,,81,64
354900,note_on,0,0,5,,,,,,,,4,,,,62,45
354900,note_on,0,0,5,,,,,,,,4,,,,70,45
355020,note_off,120,0,6,,,,,,,,5,,,,67,64
355020,note_off,120,0,4,,,,,,,,3,,,,82,64
355020,note_off,0,0,5,,,,,,,,4,,,,62,64
355020,note_off,120,0,5,,,,,,,,4,,,,70,64
355380,note_on,360,0,5,,,,,,,,4,,,,62,45
355380,note_on,1040,0,8,,,,,,,,7,,,,38,45
355380,note_on,0,0,5,,,,,,,,4,,,,69,45
355380,note_on,360,0,4,,,,,,,,3,,,,81,45
355380,note_on,360,0,6,,,,,,,,5,,,,65,45
355380,note_on,1040,0,7,,,,,,,,6,,,,50,45
355780,note_off,400,0,7,,,,,,,,6,,,,50,64
355780,note_off,400,0,8,,,,,,,,7,,,,38,64
355975,note_off,595,0,6,,,,,,,,5,,,,65,64
355975,note_off,595,0,4,,,,,,,,3,,,,81,64
355975,note_off,595,0,5,,,,,,,,4,,,,69,64
355975,note_off,0,0,5,,,,,,,,4,,,,62,64
356100,note_on,125,0,5,,,,,,,,4,,,,62,45
356100,note_on,125,0,4,,,,,,,,3,,,,81,45
356100,note_on,125,0,6,,,,,,,,5,,,,65,45
356100,note_on,0,0,5,,,,,,,,4,,,,69,45
356340,note_off,240,0,5,,,,,,,,4,,,,69,64
356340,note_on,0,0,6,,,,,,,,5,,,,67,45
356340,note_on,0,0,5,,,,,,,,4,,,,70,45
356340,note_on,0,0,5,,,,,,,,4,,,,62,45
356340,note_off,240,0,6,,,,,,,,5,,,,65,64
356340,note_off,240,0,4,,,,,,,,3,,,,81,64
356340,note_on,0,0,4,,,,,,,,3,,,,82,45
356340,note_off,0,0,5,,,,,,,,4,,,,62,64
356460,note_off,120,0,6,,,,,,,,5,,,,67,64
356460,note_off,0,0,5,,,,,,,,4,,,,62,64
356460,note_off,120,0,5,,,,,,,,4,,,,70,64
356460,note_off,120,0,4,,,,,,,,3,,,,82,64
356820,note_on,1040,0,8,,,,,,,,7,,,,36,45
356820,note_on,0,0,5,,,,,,,,4,,,,69,45
356820,note_on,360,0,5,,,,,,,,4,,,,60,45
356820,note_on,360,0,6,,,,,,,,5,,,,65,45
356820,note_on,360,0,4,,,,,,,,3,,,,81,45
356820,note_on,1040,0,7,,,,,,,,6,,,,48,45
356940,note_off,120,0,8,,,,,,,,7,,,,36,64
356940,note_off,120,0,7,,,,,,,,6,,,,48,64
356940,note_off,120,0,5,,,,,,,,4,,,,69,64
356940,note_off,0,0,5,,,,,,,,4,,,,60,64
356940,note_off,120,0,4,,,,,,,,3,,,,81,64
356940,note_off,120,0,6,,,,,,,,5,,,,65,64
357300,note_on,360,0,5,,,,,,,,4,,,,60,45
357300,note_on,0,0,5,,,,,,,,4,,,,69,45
357300,note_on,360,0,8,,,,,,,,7,,,,36,45
357300,note_on,360,0,4,,,,,,,,3,,,,81,45
357300,note_on,360,0,7,,,,,,,,6,,,,48,45
357300,note_on,360,0,6,,,,,,,,5,,,,65,45
357420,note_off,120,0,7,,,,,,,,6,,,,48,64
357420,note_off,120,0,8,,,,,,,,7,,,,36,64
357420,note_off,120,0,4,,,,,,,,3,,,,81,64
357420,note_off,0,0,5,,,,,,,,4,,,,60,64
357420,note_off,120,0,5,,,,,,,,4,,,,69,64
357420,note_off,120,0,6,,,,,,,,5,,,,65,64
357780,note_on,360,0,6,,,,,,,,5,,,,64,45
357780,note_on,360,0,4,,,,,,,,3,,,,79,45
357780,note_on,360,0,7,,,,,,,,6,,,,48,45
357780,note_on,360,0,5,,,,,,,,4,,,,60,45
357780,note_on,0,0,5,,,,,,,,4,,,,67,45
357780,note_on,360,0,8,,,,,,,,7,,,,36,45
357900,note_off,120,0,8,,,,,,,,7,,,,36,64
357900,note_off,120,0,7,,,,,,,,6,,,,48,64
357900,note_off,120,0,5,,,,,,,,4,,,,67,64
357900,note_off,0,0,5,,,,,,,,4,,,,60,64
357900,note_off,120,0,4,,,,,,,,3,,,,79,64
357900,note_off,120,0,6,,,,,,,,5,,,,64,64
358260,note_on,360,0,6,,,,,,,,5,,,,65,45
358260,note_on,360,0,8,,,,,,,,7,,,,41,45
358260,note_on,360,0,7,,,,,,,,6,,,,53,45
358260,note_on,360,0,4,,,,,,,,3,,,,77,45
358260,note_on,360,0,5,,,,,,,,4,,,,57,45
358260,note_on,0,0,5,,,,,,,,4,,,,65,45
358500,note_off,240,0,4,,,,,,,,3,,,,77,64
358500,note_on,0,0,4,,,,,,,,3,,,,76,45
358660,note_off,0,0,5,,,,,,,,4,,,,57,64
358660,note_off,400,0,8,,,,,,,,7,,,,41,64
358660,note_off,400,0,7,,,,,,,,6,,,,53,64
358660,note_off,400,0,6,,,,,,,,5,,,,65,64
358660,note_off,400,0,5,,,,,,,,4,,,,65,64
358740,note_off,240,0,4,,,,,,,,3,,,,76,64
358740,note_on,0,0,4,,,,,,,,3,,,,74,45
358980,note_off,240,0,4,,,,,,,,3,,,,74,64
358980,note_on,0,0,4,,,,,,,,3,,,,76,45
359220,note_on,0,0,4,,,,,,,,3,,,,77,45
359220,note_off,240,0,4,,,,,,,,3,,,,76,64
359460,note_off,240,0,4,,,,,,,,3,,,,77,64
359460,note_on,0,0,4,,,,,,,,3,,,,79,45
359700,note_on,1040,0,7,,,,,,,,6,,,,50,45
359700,note_on,12800,0,1,,,,,,,,0,,,,74,45
359700,note_on,0,0,5,,,,,,,,4,,,,69,45
359700,note_on,1040,0,5,,,,,,,,4,,,,62,45
359700,note_on,1040,0,8,,,,,,,,7,,,,38,45
359700,note_on,0,0,4,,,,,,,,3,,,,81,45
359700,note_on,1040,0,6,,,,,,,,5,,,,66,45
359700,note_off,240,0,4,,,,,,,,3,,,,79,64
360100,note_off,400,0,8,,,,,,,,7,,,,38,64
360100,note_off,400,0,7,,,,,,,,6,,,,50,64
360295,note_off,595,0,5,,,,,,,,4,,,,69,64
360295,note_off,595,0,4,,,,,,,,3,,,,81,64
360295,note_off,0,0,5,,,,,,,,4,,,,62,64
360295,note_off,595,0,6,,,,,,,,5,,,,66,64
360420,note_on,125,0,6,,,,,,,,5,,,,66,45
360420,note_on,0,0,5,,,,,,,,4,,,,69,45
360420,note_on,125,0,4,,,,,,,,3,,,,81,45
360420,note_on,125,0,5,,,,,,,,4,,,,62,45
360660,note_on,560,0,8,,,,,,,,7,,,,43,45
360660,note_on,560,0,7,,,,,,,,6,,,,55,45
360660,note_off,0,0,5,,,,,,,,4,,,,62,64
360660,note_on,0,0,5,,,,,,,,4,,,,62,45
360660,note_on,0,0,5,,,,,,,,4,,,,70,45
360660,note_off,240,0,6,,,,,,,,5,,,,66,64
360660,note_on,0,0,4,,,,,,,,3,,,,82,45
360660,note_off,240,0,4,,,,,,,,3,,,,81,64
360660,note_off,240,0,5,,,,,,,,4,,,,69,64
360660,note_on,0,0,6,,,,,,,,5,,,,67,45
360780,note_off,120,0,6,,,,,,,,5,,,,67,64
360780,note_off,120,0,8,,,,,,,,7,,,,43,64
360780,note_off,0,0,5,,,,,,,,4,,,,62,64
360780,note_off,120,0,5,,,,,,,,4,,,,70,64
360780,note_off,120,0,4,,,,,,,,3,,,,82,64
360780,note_off,120,0,7,,,,,,,,6,,,,55,64
361140,note_on,360,0,8,,,,,,,,7,,,,38,45
361140,note_on,360,0,5,,,,,,,,4,,,,62,45
361140,note_on,360,0,4,,,,,,,,3,,,,81,45
361140,note_on,360,0,7,,,,,,,,6,,,,50,45
361140,note_on,0,0,5,,,,,,,,4,,,,69,45
361140,note_on,360,0,6,,,,,,,,5,,,,66,45
361540,note_off,400,0,8,,,,,,,,7,,,,38,64
361540,note_off,400,0,7,,,,,,,,6,,,,50,64
361735,note_off,0,0,5,,,,,,,,4,,,,62,64
361735,note_off,595,0,4,,,,,,,,3,,,,81,64
361735,note_off,595,0,6,,,,,,,,5,,,,66,64
361735,note_off,595,0,5,,,,,,,,4,,,,69,64
361860,note_on,125,0,4,,,,,,,,3,,,,81,45
361860,note_on,125,0,5,,,,,,,,4,,,,62,45
361860,note_on,125,0,6,,,,,,,,5,,,,66,45
361860,note_on,0,0,5,,,,,,,,4,,,,69,45
362100,note_off,240,0,5,,,,,,,,4,,,,69,64
362100,note_off,0,0,5,,,,,,,,4,,,,62,64
362100,note_on,0,0,5,,,,,,,,4,,,,62,45
362100,note_on,0,0,5,,,,,,,,4,,,,70,45
362100,note_off,240,0,6,,,,,,,,5,,,,66,64
362100,note_on,0,0,6,,,,,,,,5,,,,67,45
362100,note_on,0,0,4,,,,,,,,3,,,,82,45
362100,note_off,240,0,4,,,,,,,,3,,,,81,64
362100,note_on,560,0,7,,,,,,,,6,,,,55,45
362100,note_on,560,0,8,,,,,,,,7,,,,43,45
362220,note_off,120,0,7,,,,,,,,6,,,,55,64
362220,note_off,120,0,5,,,,,,,,4,,,,70,64
362220,note_off,0,0,5,,,,,,,,4,,,,62,64
362220,note_off,120,0,4,,,,,,,,3,,,,82,64
362220,note_off,120,0,6,,,,,,,,5,,,,67,64
362460,note_off,2760,0,1,,,,,,,,0,,,,74,64
362500,note_off,400,0,8,,,,,,,,7,,,,43,64
362580,note_on,360,0,7,,,,,,,,6,,,,48,45
362580,note_on,360,0,4,,,,,,,,3,,,,81,45
362580,note_on,80,0,8,,,,,,,,7,,,,36,45
362580,note_on,360,0,6,,,,,,,,5,,,,65,45
362580,note_on,120,0,1,,,,,,,,0,,,,77,45
362580,note_on,360,0,5,,,,,,,,4,,,,60,45
362580,note_on,0,0,5,,,,,,,,4,,,,69,45
362700,note_off,120,0,8,,,,,,,,7,,,,36,64
362700,note_off,120,0,5,,,,,,,,4,,,,69,64
362700,note_off,120,0,4,,,,,,,,3,,,,81,64
362700,note_off,120,0,1,,,,,,,,0,,,,77,64
362700,note_off,120,0,7,,,,,,,,6,,,,48,64
362700,note_off,0,0,5,,,,,,,,4,,,,60,64
362700,note_off,120,0,6,,,,,,,,5,,,,65,64
363060,note_on,360,0,7,,,,,,,,6,,,,48,45
363060,note_on,360,0,5,,,,,,,,4,,,,60,45
363060,note_on,0,0,5,,,,,,,,4,,,,69,45
363060,note_on,360,0,6,,,,,,,,5,,,,65,45
363060,note_on,360,0,4,,,,,,,,3,,,,81,45
363060,note_on,360,0,1,,,,,,,,0,,,,77,45
363060,note_on,360,0,8,,,,,,,,7,,,,36,45
363180,note_off,120,0,4,,,,,,,,3,,,,81,64
363180,note_off,120,0,5,,,,,,,,4,,,,69,64
363180,note_off,120,0,7,,,,,,,,6,,,,48,64
363180,note_off,120,0,8,,,,,,,,7,,,,36,64
363180,note_off,0,0,5,,,,,,,,4,,,,60,64
363180,note_off,120,0,1,,,,,,,,0,,,,77,64
363180,note_off,120,0,6,,,,,,,,5,,,,65,64
363540,note_on,0,0,5,,,,,,,,4,,,,67,45
363540,note_on,360,0,4,,,,,,,,3,,,,79,45
363540,note_on,360,0,7,,,,,,,,6,,,,48,45
363540,note_on,360,0,6,,,,,,,,5,,,,64,45
363540,note_on,360,0,5,,,,,,,,4,,,,60,45
363540,note_on,360,0,8,,,,,,,,7,,,,36,45
363540,note_on,360,0,1,,,,,,,,0,,,,72,45
363660,note_off,0,0,5,,,,,,,,4,,,,60,64
363660,note_off,120,0,7,,,,,,,,6,,,,48,64
363660,note_off,120,0,8,,,,,,,,7,,,,36,64
363660,note_off,120,0,4,,,,,,,,3,,,,79,64
363660,note_off,120,0,5,,,,,,,,4,,,,67,64
363660,note_off,120,0,1,,,,,,,,0,,,,72,64
363660,note_off,120,0,6,,,,,,,,5,,,,64,64
364020,note_on,360,0,1,,,,,,,,0,,,,69,45
364020,note_on,360,0,6,,,,,,,,5,,,,65,45
364020,note_on,360,0,4,,,,,,,,3,,,,77,45
364020,note_on,360,0,7,,,,,,,,6,,,,53,45
364020,note_on,360,0,8,,,,,,,,7,,,,41,45
364020,note_on,360,0,5,,,,,,,,4,,,,57,45
364020,note_on,0,0,5,,,,,,,,4,,,,65,45
364420,note_off,400,0,6,,,,,,,,5,,,,65,64
364420,note_off,400,0,4,,,,,,,,3,,,,77,64
364420,note_off,400,0,1,,,,,,,,0,,,,69,64
364420,note_off,400,0,8,,,,,,,,7,,,,41,64
364420,note_off,400,0,7,,,,,,,,6,,,,53,64
364420,note_off,400,0,5,,,,,,,,4,,,,65,64
364420,note_off,0,0,5,,,,,,,,4,,,,57,64
364560,note_on,140,0,7,,,,,,,,6,,,,55,92
364560,note_on,0,0,6,,,,,,,,5,,,,67,92
364560,note_on,17660,0,2,,,,,,,,1,,,,55,92
364560,note_on,140,0,8,,,,,,,,7,,,,43,92
364560,note_on,140,0,4,,,,,,,,3,,,,79,92
364560,set_tempo,16380,1,0,229007,,,,,,,,,,,,
364560,note_on,140,0,5,,,,,,,,4,,,,67,92
364560,program_change,140,0,6,,,,,,,,5,,,50,,
364560,note_on,140,0,1,,,,,,,,0,,,,67,92
364800,note_on,0,0,8,,,,,,,,7,,,,45,92
364800,note_off,240,0,8,,,,,,,,7,,,,43,64
364800,note_off,240,0,2,,,,,,,,1,,,,55,64
364800,note_on,0,0,2,,,,,,,,1,,,,57,92
364800,note_off,240,0,4,,,,,,,,3,,,,79,64
364800,note_on,0,0,5,,,,,,,,4,,,,69,92
364800,note_on,0,0,7,,,,,,,,6,,,,57,92
364800,note_off,240,0,7,,,,,,,,6,,,,55,64
364800,note_on,0,0,4,,,,,,,,3,,,,81,92
364800,note_off,240,0,5,,,,,,,,4,,,,67,64
364800,note_off,240,0,1,,,,,,,,0,,,,67,64
364800,note_on,0,0,1,,,,,,,,0,,,,69,92
364800,note_on,0,0,6,,,,,,,,5,,,,69,92
364800,note_off,240,0,6,,,,,,,,5,,,,67,64
365040,note_off,240,0,7,,,,,,,,6,,,,57,64
365040,note_on,0,0,2,,,,,,,,1,,,,59,92
365040,note_off,240,0,2,,,,,,,,1,,,,57,64
365040,note_on,0,0,6,,,,,,,,5,,,,71,92
365040,note_off,240,0,6,,,,,,,,5,,,,69,64
365040,note_off,240,0,5,,,,,,,,4,,,,69,64
365040,note_on,0,0,5,,,,,,,,4,,,,71,92
365040,note_off,240,0,4,,,,,,,,3,,,,81,64
365040,note_on,0,0,7,,,,,,,,6,,,,59,92
365040,note_on,0,0,1,,,,,,,,0,,,,71,92
365040,note_off,240,0,8,,,,,,,,7,,,,45,64
365040,note_on,0,0,8,,,,,,,,7,,,,47,92
365040,note_off,240,0,1,,,,,,,,0,,,,69,64
365040,note_on,0,0,4,,,,,,,,3,,,,83,92
365280,note_off,240,0,6,,,,,,,,5,,,,71,64
365280,note_on,0,0,6,,,,,,,,5,,,,72,92
365280,note_on,0,0,4,,,,,,,,3,,,,84,92
365280,note_off,240,0,4,,,,,,,,3,,,,83,64
365280,note_on,0,0,1,,,,,,,,0,,,,72,92
365280,note_off,240,0,1,,,,,,,,0,,,,71,64
365280,note_off,240,0,8,,,,,,,,7,,,,47,64
365280,note_on,0,0,8,,,,,,,,7,,,,48,92
365280,note_off,240,0,5,,,,,,,,4,,,,71,64
365280,note_on,0,0,5,,,,,,,,4,,,,72,92
365280,note_on,0,0,2,,,,,,,,1,,,,60,92
365280,note_off,240,0,7,,,,,,,,6,,,,59,64
365280,note_on,0,0,7,,,,,,,,6,,,,60,92
365280,note_off,240,0,2,,,,,,,,1,,,,59,64
365520,note_off,240,0,8,,,,,,,,7,,,,48,64
365520,note_on,0,0,8,,,,,,,,7,,,,47,92
365520,note_off,240,0,2,,,,,,,,1,,,,60,64
365520,note_on,0,0,4,,,,,,,,3,,,,83,92
365520,note_off,240,0,4,,,,,,,,3,,,,84,64
365520,note_on,0,0,6,,,,,,,,5,,,,71,92
365520,note_off,240,0,7,,,,,,,,6,,,,60,64
365520,note_on,0,0,7,,,,,,,,6,,,,59,92
365520,note_on,0,0,5,,,,,,,,4,,,,71,92
365520,note_off,240,0,5,,,,,,,,4,,,,72,64
365520,note_on,0,0,2,,,,,,,,1,,,,59,92
365520,note_on,0,0,1,,,,,,,,0,,,,71,92
365520,note_off,240,0,1,,,,,,,,0,,,,72,64
365520,note_off,240,0,6,,,,,,,,5,,,,72,64
365920,note_off,400,0,2,,,,,,,,1,,,,59,64
365920,note_off,400,0,1,,,,,,,,0,,,,71,64
366025,note_off,505,0,5,,,,,,,,4,,,,71,64
366025,note_off,505,0,4,,,,,,,,3,,,,83,64
366025,note_off,505,0,8,,,,,,,,7,,,,47,64
366025,note_off,505,0,6,,,,,,,,5,,,,71,64
366025,note_off,505,0,7,,,,,,,,6,,,,59,64
366240,note_on,215,0,5,,,,,,,,4,,,,71,92
366240,note_on,215,0,6,,,,,,,,5,,,,71,92
366240,note_on,215,0,4,,,,,,,,3,,,,83,92
366240,note_on,215,0,8,,,,,,,,7,,,,47,92
366240,note_on,215,0,7,,,,,,,,6,,,,59,92
366480,note_off,240,0,4,,,,,,,,3,,,,83,64
366480,note_on,0,0,5,,,,,,,,4,,,,74,92
366480,note_on,0,0,8,,,,,,,,7,,,,50,92
366480,note_off,240,0,8,,,,,,,,7,,,,47,64
366480,note_off,240,0,7,,,,,,,,6,,,,59,64
366480,note_on,0,0,7,,,,,,,,6,,,,62,92
366480,note_off,240,0,6,,,,,,,,5,,,,71,64
366480,note_on,0,0,6,,,,,,,,5,,,,74,92
366480,note_on,0,0,4,,,,,,,,3,,,,86,92
366480,note_off,240,0,5,,,,,,,,4,,,,71,64
366600,note_off,120,0,6,,,,,,,,5,,,,74,64
366600,note_off,120,0,8,,,,,,,,7,,,,50,64
366600,note_off,120,0,5,,,,,,,,4,,,,74,64
366600,note_off,120,0,4,,,,,,,,3,,,,86,64
366600,note_off,120,0,7,,,,,,,,6,,,,62,64
366960,note_on,1040,0,2,,,,,,,,1,,,,59,92
366960,note_on,1040,0,1,,,,,,,,0,,,,71,92
366960,note_on,360,0,4,,,,,,,,3,,,,83,92
366960,note_on,360,0,7,,,,,,,,6,,,,59,92
366960,note_on,360,0,8,,,,,,,,7,,,,47,92
366960,note_on,360,0,6,,,,,,,,5,,,,71,92
366960,note_on,360,0,5,,,,,,,,4,,,,71,92
367360,note_off,400,0,1,,,,,,,,0,,,,71,64
367360,note_off,400,0,2,,,,,,,,1,,,,59,64
367465,note_off,505,0,5,,,,,,,,4,,,,71,64
367465,note_off,505,0,4,,,,,,,,3,,,,83,64
367465,note_off,505,0,7,,,,,,,,6,,,,59,64
367465,note_off,505,0,6,,,,,,,,5,,,,71,64
367465,note_off,505,0,8,,,,,,,,7,,,,47,64
367680,note_on,215,0,7,,,,,,,,6,,,,59,92
367680,note_on,215,0,6,,,,,,,,5,,,,71,92
367680,note_on,215,0,5,,,,,,,,4,,,,71,92
367680,note_on,215,0,4,,,,,,,,3,,,,83,92
367680,note_on,215,0,8,,,,,,,,7,,,,47,92
367920,note_on,0,0,7,,,,,,,,6,,,,62,92
367920,note_off,240,0,7,,,,,,,,6,,,,59,64
367920,note_off,240,0,6,,,,,,,,5,,,,71,64
367920,note_off,240,0,5,,,,,,,,4,,,,71,64
367920,note_on,0,0,5,,,,,,,,4,,,,74,92
367920,note_on,0,0,4,,,,,,,,3,,,,86,92
367920,note_off,240,0,4,,,,,,,,3,,,,83,64
367920,note_on,0,0,8,,,,,,,,7,,,,50,92
367920,note_off,240,0,8,,,,,,,,7,,,,47,64
367920,note_on,0,0,6,,,,,,,,5,,,,74,92
368040,note_off,120,0,6,,,,,,,,5,,,,74,64
368040,note_off,120,0,5,,,,,,,,4,,,,74,64
368040,note_off,120,0,8,,,,,,,,7,,,,50,64
368040,note_off,120,0,4,,,,,,,,3,,,,86,64
368040,note_off,120,0,7,,,,,,,,6,,,,62,64
368400,note_on,360,0,6,,,,,,,,5,,,,67,92
368400,note_on,1040,0,2,,,,,,,,1,,,,55,92
368400,note_on,1040,0,1,,,,,,,,0,,,,79,92
368400,note_on,360,0,4,,,,,,,,3,,,,79,92
368400,note_on,360,0,7,,,,,,,,6,,,,55,92
368400,note_on,360,0,5,,,,,,,,4,,,,67,92
368400,note_on,360,0,8,,,,,,,,7,,,,43,92
368800,note_off,400,0,1,,,,,,,,0,,,,79,64
368800,note_off,400,0,2,,,,,,,,1,,,,55,64
368905,note_off,505,0,7,,,,,,,,6,,,,55,64
368905,note_off,505,0,8,,,,,,,,7,,,,43,64
368905,note_off,505,0,6,,,,,,,,5,,,,67,64
368905,note_off,505,0,4,,,,,,,,3,,,,79,64
368905,note_off,505,0,5,,,,,,,,4,,,,67,64
369120,note_on,215,0,7,,,,,,,,6,,,,55,92
369120,note_on,215,0,5,,,,,,,,4,,,,67,92
369120,note_on,215,0,6,,,,,,,,5,,,,67,92
369120,note_on,215,0,8,,,,,,,,7,,,,43,92
369120,note_on,215,0,4,,,,,,,,3,,,,79,92
369360,note_off,240,0,7,,,,,,,,6,,,,55,64
369360,note_on,0,0,5,,,,,,,,4,,,,70,92
369360,note_off,240,0,5,,,,,,,,4,,,,67,64
369360,note_off,240,0,6,,,,,,,,5,,,,67,64
369360,note_on,0,0,6,,,,,,,,5,,,,70,92
369360,note_off,240,0,4,,,,,,,,3,,,,79,64
369360,note_on,0,0,4,,,,,,,,3,,,,82,92
369360,note_off,240,0,8,,,,,,,,7,,,,43,64
369360,note_on,0,0,8,,,,,,,,7,,,,46,92
369360,note_on,0,0,7,,,,,,,,6,,,,58,92
369480,note_off,120,0,6,,,,,,,,5,,,,70,64
369480,note_off,120,0,8,,,,,,,,7,,,,46,64
369480,note_off,120,0,4,,,,,,,,3,,,,82,64
369480,note_off,120,0,5,,,,,,,,4,,,,70,64
369480,note_off,120,0,7,,,,,,,,6,,,,58,64
369840,note_on,360,0,8,,,,,,,,7,,,,40,92
369840,note_on,360,0,5,,,,,,,,4,,,,64,92
369840,note_on,1040,0,1,,,,,,,,0,,,,76,92
369840,note_on,360,0,7,,,,,,,,6,,,,52,92
369840,note_on,360,0,4,,,,,,,,3,,,,76,92
369840,note_on,1040,0,2,,,,,,,,1,,,,52,92
369840,note_on,360,0,6,,,,,,,,5,,,,64,92
370240,note_off,400,0,2,,,,,,,,1,,,,52,64
370240,note_off,400,0,1,,,,,,,,0,,,,76,64
370345,note_off,505,0,5,,,,,,,,4,,,,64,64
370345,note_off,505,0,6,,,,,,,,5,,,,64,64
370345,note_off,505,0,8,,,,,,,,7,,,,40,64
370345,note_off,505,0,7,,,,,,,,6,,,,52,64
370345,note_off,505,0,4,,,,,,,,3,,,,76,64
370560,note_on,215,0,8,,,,,,,,7,,,,40,92
370560,note_on,215,0,6,,,,,,,,5,,,,64,92
370560,note_on,215,0,4,,,,,,,,3,,,,76,92
370560,note_on,215,0,5,,,,,,,,4,,,,64,92
370560,note_on,215,0,7,,,,,,,,6,,,,52,92
370800,note_on,0,0,4,,,,,,,,3,,,,79,92
370800,note_off,240,0,7,,,,,,,,6,,,,52,64
370800,note_off,240,0,6,,,,,,,,5,,,,64,64
370800,note_on,0,0,8,,,,,,,,7,,,,43,92
370800,note_off,240,0,8,,,,,,,,7,,,,40,64
370800,note_on,0,0,5,,,,,,,,4,,,,67,92
370800,note_off,240,0,5,,,,,,,,4,,,,64,64
370800,note_on,0,0,6,,,,,,,,5,,,,67,92
370800,note_off,240,0,4,,,,,,,,3,,,,76,64
370800,note_on,0,0,7,,,,,,,,6,,,,55,92
370920,note_off,120,0,7,,,,,,,,6,,,,55,64
370920,note_off,120,0,6,,,,,,,,5,,,,67,64
370920,note_off,120,0,5,,,,,,,,4,,,,67,64
370920,note_off,120,0,4,,,,,,,,3,,,,79,64
370920,note_off,120,0,8,,,,,,,,7,,,,43,64
371280,note_on,360,0,6,,,,,,,,5,,,,60,92
371280,note_on,360,0,5,,,,,,,,4,,,,60,92
371280,note_on,360,0,7,,,,,,,,6,,,,48,92
371280,note_on,360,0,8,,,,,,,,7,,,,36,92
371280,note_on,1040,0,2,,,,,,,,1,,,,48,92
371280,note_on,1040,0,1,,,,,,,,0,,,,72,92
371280,note_on,360,0,4,,,,,,,,3,,,,72,92
371680,note_off,400,0,5,,,,,,,,4,,,,60,64
371680,note_off,400,0,4,,,,,,,,3,,,,72,64
371680,note_off,400,0,1,,,,,,,,0,,,,72,64
371680,note_off,400,0,6,,,,,,,,5,,,,60,64
371680,note_off,400,0,2,,,,,,,,1,,,,48,64
371760,note_on,80,0,6,,,,,,,,5,,,,62,92
371760,note_on,80,0,1,,,,,,,,0,,,,74,92
371760,note_on,80,0,4,,,,,,,,3,,,,74,92
371760,note_on,80,0,5,,,,,,,,4,,,,62,92
372000,note_on,0,0,5,,,,,,,,4,,,,64,92
372000,note_off,240,0,6,,,,,,,,5,,,,62,64
372000,note_on,0,0,6,,,,,,,,5,,,,64,92
372000,note_off,240,0,1,,,,,,,,0,,,,74,64
372000,note_on,0,0,1,,,,,,,,0,,,,76,92
372000,note_off,240,0,5,,,,,,,,4,,,,62,64
372000,note_off,240,0,4,,,,,,,,3,,,,74,64
372000,note_on,0,0,4,,,,,,,,3,,,,76,92
372120,note_off,840,0,7,,,,,,,,6,,,,48,64
372120,note_off,840,0,8,,,,,,,,7,,,,36,64
372240,note_on,0,0,1,,,,,,,,0,,,,77,92
372240,note_off,240,0,1,,,,,,,,0,,,,76,64
372240,note_on,120,0,8,,,,,,,,7,,,,34,92
372240,note_on,120,0,7,,,,,,,,6,,,,46,92
372240,note_on,0,0,5,,,,,,,,4,,,,65,92
372240,note_on,0,0,4,,,,,,,,3,,,,77,92
372240,note_off,240,0,4,,,,,,,,3,,,,76,64
372240,note_on,0,0,6,,,,,,,,5,,,,65,92
372240,note_off,240,0,6,,,,,,,,5,,,,64,64
372240,note_off,240,0,5,,,,,,,,4,,,,64,64
372480,note_on,0,0,5,,,,,,,,4,,,,67,92
372480,note_off,240,0,4,,,,,,,,3,,,,77,64
372480,note_on,0,0,1,,,,,,,,0,,,,79,92
372480,note_off,240,0,1,,,,,,,,0,,,,77,64
372480,note_on,0,0,6,,,,,,,,5,,,,67,92
372480,note_off,240,0,6,,,,,,,,5,,,,65,64
372480,note_on,0,0,4,,,,,,,,3,,,,79,92
372480,note_off,240,0,5,,,,,,,,4,,,,65,64
372640,note_off,400,0,7,,,,,,,,6,,,,46,64
372640,note_off,400,0,8,,,,,,,,7,,,,34,64
372720,note_off,240,0,1,,,,,,,,0,,,,79,64
372720,note_on,25820,0,3,,,,,,,,2,,,,65,92
372720,note_off,240,0,6,,,,,,,,5,,,,67,64
372720,program_change,0,0,6,,,,,,,,5,,,48,,
372720,note_on,80,0,7,,,,,,,,6,,,,45,92
372720,note_on,0,0,4,,,,,,,,3,,,,81,92
372720,note_on,0,0,4,,,,,,,,3,,,,72,92
372720,note_off,240,0,4,,,,,,,,3,,,,79,64
372720,note_off,240,0,5,,,,,,,,4,,,,67,64
372720,note_on,0,0,5,,,,,,,,4,,,,69,92
372720,note_on,1040,0,2,,,,,,,,1,,,,60,92
372720,note_on,0,0,5,,,,,,,,4,,,,77,92
372720,note_on,80,0,8,,,,,,,,7,,,,33,92
372720,note_on,0,0,6,,,,,,,,5,,,,69,92
372720,note_on,0,0,1,,,,,,,,0,,,,81,92
373560,note_off,840,0,4,,,,,,,,3,,,,81,64
373560,note_off,840,0,6,,,,,,,,5,,,,69,64
373560,note_off,840,0,1,,,,,,,,0,,,,81,64
373560,note_off,0,0,4,,,,,,,,3,,,,72,64
373560,note_off,840,0,8,,,,,,,,7,,,,33,64
373560,note_off,840,0,5,,,,,,,,4,,,,77,64
373560,note_off,840,0,7,,,,,,,,6,,,,45,64
373560,note_off,840,0,3,,,,,,,,2,,,,65,64
373560,note_off,0,0,5,,,,,,,,4,,,,69,64
373560,note_off,840,0,2,,,,,,,,1,,,,60,64
373680,note_on,120,0,1,,,,,,,,0,,,,79,92
373680,note_on,120,0,6,,,,,,,,5,,,,67,92
373680,note_on,120,0,5,,,,,,,,4,,,,74,92
373680,note_on,120,0,8,,,,,,,,7,,,,34,92
373680,note_on,120,0,4,,,,,,,,3,,,,70,92
373680,note_on,120,0,2,,,,,,,,1,,,,58,92
373680,note_on,120,0,3,,,,,,,,2,,,,62,92
373680,note_on,120,0,7,,,,,,,,6,,,,46,92
373680,note_on,0,0,4,,,,,,,,3,,,,79,92
374080,note_off,400,0,3,,,,,,,,2,,,,62,64
374080,note_off,400,0,8,,,,,,,,7,,,,34,64
374080,note_off,400,0,1,,,,,,,,0,,,,79,64
374080,note_off,0,0,4,,,,,,,,3,,,,70,64
374080,note_off,400,0,5,,,,,,,,4,,,,74,64
374080,note_off,400,0,4,,,,,,,,3,,,,79,64
374080,note_off,400,0,2,,,,,,,,1,,,,58,64
374080,note_off,400,0,7,,,,,,,,6,,,,46,64
374080,note_off,400,0,6,,,,,,,,5,,,,67,64
374160,note_on,80,0,4,,,,,,,,3,,,,69,92
374160,note_on,80,0,3,,,,,,,,2,,,,60,92
374160,note_on,80,0,6,,,,,,,,5,,,,65,92
374160,note_on,80,0,1,,,,,,,,0,,,,77,92
374160,note_on,80,0,2,,,,,,,,1,,,,57,92
374160,note_on,80,0,5,,,,,,,,4,,,,72,92
374160,note_on,0,0,4,,,,,,,,3,,,,77,92
374160,note_on,80,0,8,,,,,,,,7,,,,36,92
374160,note_on,80,0,7,,,,,,,,6,,,,48,92
374755,note_off,595,0,7,,,,,,,,6,,,,48,64
374755,note_off,595,0,3,,,,,,,,2,,,,60,64
374755,note_off,595,0,2,,,,,,,,1,,,,57,64
374755,note_off,595,0,5,,,,,,,,4,,,,72,64
374755,note_off,0,0,4,,,,,,,,3,,,,69,64
374755,note_off,595,0,4,,,,,,,,3,,,,77,64
374755,note_off,595,0,8,,,,,,,,7,,,,36,64
374755,note_off,595,0,6,,,,,,,,5,,,,65,64
374755,note_off,595,0,1,,,,,,,,0,,,,77,64
374880,note_on,0,0,4,,,,,,,,3,,,,77,92
374880,note_on,125,0,6,,,,,,,,5,,,,65,92
374880,note_on,125,0,2,,,,,,,,1,,,,57,92
374880,note_on,125,0,3,,,,,,,,2,,,,60,92
374880,note_on,125,0,4,,,,,,,,3,,,,69,92
374880,note_on,125,0,1,,,,,,,,0,,,,77,92
374880,note_on,125,0,8,,,,,,,,7,,,,36,92
374880,note_on,125,0,5,,,,,,,,4,,,,72,92
374880,note_on,125,0,7,,,,,,,,6,,,,48,92
375120,note_off,0,0,4,,,,,,,,3,,,,69,64
375120,note_off,240,0,5,,,,,,,,4,,,,72,64
375120,note_on,0,0,5,,,,,,,,4,,,,72,92
375120,note_off,240,0,2,,,,,,,,1,,,,57,64
375120,note_on,0,0,2,,,,,,,,1,,,,55,92
375120,note_off,240,0,4,,,,,,,,3,,,,77,64
375120,note_on,0,0,4,,,,,,,,3,,,,76,92
375120,note_on,0,0,4,,,,,,,,3,,,,67,92
375120,note_on,0,0,6,,,,,,,,5,,,,64,92
375120,note_off,240,0,7,,,,,,,,6,,,,48,64
375120,note_on,0,0,7,,,,,,,,6,,,,48,92
375120,note_off,240,0,8,,,,,,,,7,,,,36,64
375120,note_on,0,0,1,,,,,,,,0,,,,76,92
375120,note_on,0,0,3,,,,,,,,2,,,,60,92
375120,note_off,240,0,1,,,,,,,,0,,,,77,64
375120,note_on,0,0,8,,,,,,,,7,,,,36,92
375120,note_off,240,0,3,,,,,,,,2,,,,60,64
375120,note_off,240,0,6,,,,,,,,5,,,,65,64
375240,note_off,120,0,7,,,,,,,,6,,,,48,64
375240,note_off,120,0,3,,,,,,,,2,,,,60,64
375240,note_off,120,0,1,,,,,,,,0,,,,76,64
375240,note_off,120,0,8,,,,,,,,7,,,,36,64
375240,note_off,120,0,4,,,,,,,,3,,,,76,64
375240,note_off,120,0,2,,,,,,,,1,,,,55,64
375240,note_off,0,0,4,,,,,,,,3,,,,67,64
375240,note_off,120,0,5,,,,,,,,4,,,,72,64
375240,note_off,120,0,6,,,,,,,,5,,,,64,64
375600,note_on,360,0,7,,,,,,,,6,,,,53,92
375600,note_on,360,0,4,,,,,,,,3,,,,69,92
375600,note_on,0,0,4,,,,,,,,3,,,,77,92
375600,note_on,360,0,6,,,,,,,,5,,,,65,92
375600,note_on,360,0,5,,,,,,,,4,,,,72,92
375600,note_on,360,0,3,,,,,,,,2,,,,60,92
375600,note_on,360,0,1,,,,,,,,0,,,,77,92
375600,note_on,360,0,8,,,,,,,,7,,,,41,92
375600,note_on,360,0,2,,,,,,,,1,,,,57,92
375720,note_off,120,0,6,,,,,,,,5,,,,65,64
375720,note_off,0,0,4,,,,,,,,3,,,,69,64
375720,note_off,120,0,7,,,,,,,,6,,,,53,64
375720,note_off,120,0,1,,,,,,,,0,,,,77,64
375720,note_off,120,0,2,,,,,,,,1,,,,57,64
375720,note_off,120,0,8,,,,,,,,7,,,,41,64
375720,note_off,120,0,4,,,,,,,,3,,,,77,64
375720,note_off,120,0,5,,,,,,,,4,,,,72,64
376000,note_off,400,0,3,,,,,,,,2,,,,60,64
376140,note_on,420,0,6,,,,,,,,5,,,,67,92
376140,note_on,420,0,4,,,,,,,,3,,,,79,92
376140,note_on,420,0,5,,,,,,,,4,,,,67,92
376140,note_on,420,0,7,,,,,,,,6,,,,55,92
376140,note_on,420,0,1,,,,,,,,0,,,,67,92
376140,note_on,420,0,2,,,,,,,,1,,,,55,92
376140,note_on,420,0,8,,,,,,,,7,,,,43,92
376380,note_on,0,0,2,,,,,,,,1,,,,57,92
376380,note_off,240,0,2,,,,,,,,1,,,,55,64
376380,note_on,0,0,1,,,,,,,,0,,,,69,92
376380,note_off,240,0,5,,,,,,,,4,,,,67,64
376380,note_on,0,0,5,,,,,,,,4,,,,69,92
376380,note_off,240,0,6,,,,,,,,5,,,,67,64
376380,note_on,0,0,7,,,,,,,,6,,,,57,92
376380,note_off,240,0,7,,,,,,,,6,,,,55,64
376380,note_on,0,0,6,,,,,,,,5,,,,69,92
376380,note_off,240,0,1,,,,,,,,0,,,,67,64
376380,note_off,240,0,4,,,,,,,,3,,,,79,64
376380,note_on,0,0,4,,,,,,,,3,,,,81,92
376380,note_on,0,0,8,,,,,,,,7,,,,45,92
376380,note_off,240,0,8,,,,,,,,7,,,,43,64
376620,note_off,240,0,6,,,,,,,,5,,,,69,64
376620,note_off,240,0,1,,,,,,,,0,,,,69,64
376620,note_off,240,0,2,,,,,,,,1,,,,57,64
376620,note_on,0,0,1,,,,,,,,0,,,,71,92
376620,note_off,240,0,8,,,,,,,,7,,,,45,64
376620,note_on,0,0,8,,,,,,,,7,,,,47,92
376620,note_off,240,0,5,,,,,,,,4,,,,69,64
376620,note_on,0,0,5,,,,,,,,4,,,,71,92
376620,note_on,0,0,2,,,,,,,,1,,,,59,92
376620,note_off,240,0,4,,,,,,,,3,,,,81,64
376620,note_off,240,0,7,,,,,,,,6,,,,57,64
376620,note_on,0,0,6,,,,,,,,5,,,,71,92
376620,note_on,0,0,4,,,,,,,,3,,,,83,92
376620,note_on,0,0,7,,,,,,,,6,,,,59,92
376860,note_off,240,0,7,,,,,,,,6,,,,59,64
376860,note_off,240,0,1,,,,,,,,0,,,,71,64
376860,note_off,240,0,6,,,,,,,,5,,,,71,64
376860,note_on,0,0,2,,,,,,,,1,,,,60,92
376860,note_on,0,0,8,,,,,,,,7,,,,48,92
376860,note_off,240,0,8,,,,,,,,7,,,,47,64
376860,note_on,0,0,1,,,,,,,,0,,,,72,92
376860,note_on,0,0,6,,,,,,,,5,,,,72,92
376860,note_on,0,0,7,,,,,,,,6,,,,60,92
376860,note_on,0,0,4,,,,,,,,3,,,,84,92
376860,note_off,240,0,4,,,,,,,,3,,,,83,64
376860,note_off,240,0,2,,,,,,,,1,,,,59,64
376860,note_on,0,0,5,,,,,,,,4,,,,72,92
376860,note_off,240,0,5,,,,,,,,4,,,,71,64
377100,note_on,0,0,7,,,,,,,,6,,,,59,92
377100,note_on,0,0,4,,,,,,,,3,,,,83,92
377100,note_off,240,0,4,,,,,,,,3,,,,84,64
377100,note_on,0,0,2,,,,,,,,1,,,,59,92
377100,note_off,240,0,2,,,,,,,,1,,,,60,64
377100,note_on,0,0,5,,,,,,,,4,,,,71,92
377100,note_off,240,0,5,,,,,,,,4,,,,72,64
377100,note_off,240,0,1,,,,,,,,0,,,,72,64
377100,note_off,240,0,8,,,,,,,,7,,,,48,64
377100,note_on,0,0,8,,,,,,,,7,,,,47,92
377100,note_on,0,0,1,,,,,,,,0,,,,71,92
377100,note_on,0,0,6,,,,,,,,5,,,,71,92
377100,note_off,240,0,6,,,,,,,,5,,,,72,64
377100,note_off,240,0,7,,,,,,,,6,,,,60,64
377500,note_off,400,0,2,,,,,,,,1,,,,59,64
377500,note_off,400,0,1,,,,,,,,0,,,,71,64
377605,note_off,505,0,6,,,,,,,,5,,,,71,64
377605,note_off,505,0,5,,,,,,,,4,,,,71,64
377605,note_off,505,0,7,,,,,,,,6,,,,59,64
377605,note_off,505,0,4,,,,,,,,3,,,,83,64
377605,note_off,505,0,8,,,,,,,,7,,,,47,64
377820,note_on,215,0,7,,,,,,,,6,,,,59,92
377820,note_on,215,0,4,,,,,,,,3,,,,83,92
377820,note_on,215,0,8,,,,,,,,7,,,,47,92
377820,note_on,215,0,5,,,,,,,,4,,,,71,92
377820,note_on,215,0,6,,,,,,,,5,,,,71,92
378060,note_on,0,0,6,,,,,,,,5,,,,74,92
378060,note_off,240,0,6,,,,,,,,5,,,,71,64
378060,note_on,0,0,4,,,,,,,,3,,,,86,92
378060,note_on,0,0,5,,,,,,,,4,,,,74,92
378060,note_off,240,0,8,,,,,,,,7,,,,47,64
378060,note_on,0,0,8,,,,,,,,7,,,,50,92
378060,note_off,240,0,5,,,,,,,,4,,,,71,64
378060,note_off,240,0,7,,,,,,,,6,,,,59,64
378060,note_on,0,0,7,,,,,,,,6,,,,62,92
378060,note_off,240,0,4,,,,,,,,3,,,,83,64
378180,note_off,120,0,5,,,,,,,,4,,,,74,64
378180,note_off,120,0,4,,,,,,,,3,,,,86,64
378180,note_off,120,0,6,,,,,,,,5,,,,74,64
378180,note_off,120,0,7,,,,,,,,6,,,,62,64
378180,note_off,120,0,8,,,,,,,,7,,,,50,64
378540,note_on,1040,0,2,,,,,,,,1,,,,59,92
378540,note_on,360,0,7,,,,,,,,6,,,,59,92
378540,note_on,360,0,5,,,,,,,,4,,,,71,92
378540,note_on,1040,0,1,,,,,,,,0,,,,71,92
378540,note_on,360,0,6,,,,,,,,5,,,,71,92
378540,note_on,360,0,8,,,,,,,,7,,,,47,92
378540,note_on,360,0,4,,,,,,,,3,,,,83,92
378940,note_off,400,0,2,,,,,,,,1,,,,59,64
378940,note_off,400,0,1,,,,,,,,0,,,,71,64
379045,note_off,505,0,5,,,,,,,,4,,,,71,64
379045,note_off,505,0,7,,,,,,,,6,,,,59,64
379045,note_off,505,0,4,,,,,,,,3,,,,83,64
379045,note_off,505,0,8,,,,,,,,7,,,,47,64
379045,note_off,505,0,6,,,,,,,,5,,,,71,64
379260,note_on,215,0,6,,,,,,,,5,,,,71,92
379260,note_on,215,0,7,,,,,,,,6,,,,59,92
379260,note_on,215,0,4,,,,,,,,3,,,,83,92
379260,note_on,215,0,5,,,,,,,,4,,,,71,92
379260,note_on,215,0,8,,,,,,,,7,,,,47,92
379500,note_off,240,0,5,,,,,,,,4,,,,71,64
379500,note_on,0,0,8,,,,,,,,7,,,,50,92
379500,note_off,240,0,6,,,,,,,,5,,,,71,64
379500,note_on,0,0,6,,,,,,,,5,,,,74,92
379500,note_off,240,0,8,,,,,,,,7,,,,47,64
379500,note_on,0,0,5,,,,,,,,4,,,,74,92
379500,note_off,240,0,7,,,,,,,,6,,,,59,64
379500,note_on,0,0,7,,,,,,,,6,,,,62,92
379500,note_off,240,0,4,,,,,,,,3,,,,83,64
379500,note_on,0,0,4,,,,,,,,3,,,,86,92
379620,note_off,120,0,5,,,,,,,,4,,,,74,64
379620,note_off,120,0,6,,,,,,,,5,,,,74,64
379620,note_off,120,0,4,,,,,,,,3,,,,86,64
379620,note_off,120,0,8,,,,,,,,7,,,,50,64
379620,note_off,120,0,7,,,,,,,,6,,,,62,64
379980,note_on,1040,0,2,,,,,,,,1,,,,55,92
379980,note_on,360,0,7,,,,,,,,6,,,,55,92
379980,note_on,360,0,4,,,,,,,,3,,,,79,92
379980,note_on,360,0,8,,,,,,,,7,,,,43,92
379980,note_on,360,0,5,,,,,,,,4,,,,67,92
379980,note_on,1040,0,1,,,,,,,,0,,,,79,92
379980,note_on,360,0,6,,,,,,,,5,,,,67,92
380380,note_off,400,0,2,,,,,,,,1,,,,55,64
380380,note_off,400,0,1,,,,,,,,0,,,,79,64
380485,note_off,505,0,7,,,,,,,,6,,,,55,64
380485,note_off,505,0,5,,,,,,,,4,,,,67,64
380485,note_off,505,0,6,,,,,,,,5,,,,67,64
380485,note_off,505,0,4,,,,,,,,3,,,,79,64
380485,note_off,505,0,8,,,,,,,,7,,,,43,64
380700,note_on,215,0,7,,,,,,,,6,,,,55,92
380700,note_on,215,0,5,,,,,,,,4,,,,67,92
380700,note_on,215,0,6,,,,,,,,5,,,,67,92
380700,note_on,215,0,8,,,,,,,,7,,,,43,92
380700,note_on,215,0,4,,,,,,,,3,,,,79,92
380940,note_off,240,0,8,,,,,,,,7,,,,43,64
380940,note_on,0,0,4,,,,,,,,3,,,,82,92
380940,note_on,0,0,5,,,,,,,,4,,,,70,92
380940,note_on,0,0,8,,,,,,,,7,,,,46,92
380940,note_off,240,0,5,,,,,,,,4,,,,67,64
380940,note_off,240,0,6,,,,,,,,5,,,,67,64
380940,note_on,0,0,7,,,,,,,,6,,,,58,92
380940,note_off,240,0,7,,,,,,,,6,,,,55,64
380940,note_off,240,0,4,,,,,,,,3,,,,79,64
380940,note_on,0,0,6,,,,,,,,5,,,,70,92
381060,note_off,120,0,5,,,,,,,,4,,,,70,64
381060,note_off,120,0,8,,,,,,,,7,,,,46,64
381060,note_off,120,0,7,,,,,,,,6,,,,58,64
381060,note_off,120,0,6,,,,,,,,5,,,,70,64
381060,note_off,120,0,4,,,,,,,,3,,,,82,64
381420,note_on,360,0,8,,,,,,,,7,,,,40,92
381420,note_on,1040,0,2,,,,,,,,1,,,,52,92
381420,note_on,1040,0,1,,,,,,,,0,,,,76,92
381420,note_on,360,0,4,,,,,,,,3,,,,76,92
381420,note_on,360,0,5,,,,,,,,4,,,,64,92
381420,note_on,360,0,6,,,,,,,,5,,,,64,92
381420,note_on,360,0,7,,,,,,,,6,,,,52,92
381820,note_off,400,0,1,,,,,,,,0,,,,76,64
381820,note_off,400,0,2,,,,,,,,1,,,,52,64
381925,note_off,505,0,8,,,,,,,,7,,,,40,64
381925,note_off,505,0,5,,,,,,,,4,,,,64,64
381925,note_off,505,0,6,,,,,,,,5,,,,64,64
381925,note_off,505,0,4,,,,,,,,3,,,,76,64
381925,note_off,505,0,7,,,,,,,,6,,,,52,64
382140,note_on,215,0,7,,,,,,,,6,,,,52,92
382140,note_on,215,0,6,,,,,,,,5,,,,64,92
382140,note_on,215,0,4,,,,,,,,3,,,,76,92
382140,note_on,215,0,8,,,,,,,,7,,,,40,92
382140,note_on,215,0,5,,,,,,,,4,,,,64,92
382380,note_on,0,0,8,,,,,,,,7,,,,43,92
382380,note_off,240,0,7,,,,,,,,6,,,,52,64
382380,note_off,240,0,8,,,,,,,,7,,,,40,64
382380,note_off,240,0,4,,,,,,,,3,,,,76,64
382380,note_on,0,0,4,,,,,,,,3,,,,79,92
382380,note_off,240,0,5,,,,,,,,4,,,,64,64
382380,note_on,0,0,5,,,,,,,,4,,,,67,92
382380,note_off,240,0,6,,,,,,,,5,,,,64,64
382380,note_on,0,0,6,,,,,,,,5,,,,67,92
382380,note_on,0,0,7,,,,,,,,6,,,,55,92
382500,note_off,120,0,7,,,,,,,,6,,,,55,64
382500,note_off,120,0,4,,,,,,,,3,,,,79,64
382500,note_off,120,0,5,,,,,,,,4,,,,67,64
382500,note_off,120,0,8,,,,,,,,7,,,,43,64
382500,note_off,120,0,6,,,,,,,,5,,,,67,64
382860,note_on,360,0,7,,,,,,,,6,,,,48,92
382860,note_on,360,0,8,,,,,,,,7,,,,36,92
382860,note_on,1040,0,2,,,,,,,,1,,,,48,92
382860,note_on,360,0,6,,,,,,,,5,,,,60,92
382860,note_on,360,0,5,,,,,,,,4,,,,60,92
382860,note_on,360,0,4,,,,,,,,3,,,,84,92
382860,note_on,1040,0,1,,,,,,,,0,,,,72,92
382980,note_off,120,0,1,,,,,,,,0,,,,72,64
382980,note_off,120,0,5,,,,,,,,4,,,,60,64
382980,note_off,120,0,4,,,,,,,,3,,,,84,64
382980,note_off,120,0,6,,,,,,,,5,,,,60,64
382980,note_off,120,0,2,,,,,,,,1,,,,48,64
383340,note_on,360,0,6,,,,,,,,5,,,,62,92
383340,note_on,360,0,5,,,,,,,,4,,,,62,92
383340,note_on,360,0,4,,,,,,,,3,,,,86,92
383340,note_on,360,0,1,,,,,,,,0,,,,74,92
383580,note_off,240,0,1,,,,,,,,0,,,,74,64
383580,note_on,0,0,4,,,,,,,,3,,,,88,92
383580,note_off,240,0,4,,,,,,,,3,,,,86,64
383580,note_off,240,0,6,,,,,,,,5,,,,62,64
383580,note_on,0,0,6,,,,,,,,5,,,,64,92
383580,note_on,0,0,5,,,,,,,,4,,,,64,92
383580,note_on,0,0,1,,,,,,,,0,,,,76,92
383580,note_off,240,0,5,,,,,,,,4,,,,62,64
383700,note_off,840,0,7,,,,,,,,6,,,,48,64
383700,note_off,840,0,8,,,,,,,,7,,,,36,64
383820,note_off,240,0,1,,,,,,,,0,,,,76,64
383820,note_off,240,0,5,,,,,,,,4,,,,64,64
383820,note_on,0,0,5,,,,,,,,4,,,,65,92
383820,note_on,0,0,1,,,,,,,,0,,,,77,92
383820,note_on,120,0,8,,,,,,,,7,,,,34,92
383820,note_on,0,0,4,,,,,,,,3,,,,89,92
383820,note_off,240,0,4,,,,,,,,3,,,,88,64
383820,note_on,120,0,7,,,,,,,,6,,,,46,92
383820,note_on,0,0,6,,,,,,,,5,,,,65,92
383820,note_off,240,0,6,,,,,,,,5,,,,64,64
384060,note_on,0,0,4,,,,,,,,3,,,,91,92
384060,note_on,0,0,1,,,,,,,,0,,,,79,92
384060,note_off,240,0,1,,,,,,,,0,,,,77,64
384060,note_off,240,0,5,,,,,,,,4,,,,65,64
384060,note_on,0,0,5,,,,,,,,4,,,,67,92
384060,note_off,240,0,4,,,,,,,,3,,,,89,64
384060,note_on,0,0,6,,,,,,,,5,,,,67,92
384060,note_off,240,0,6,,,,,,,,5,,,,65,64
384220,note_off,400,0,7,,,,,,,,6,,,,46,64
384220,note_off,400,0,8,,,,,,,,7,,,,34,64
384300,note_on,80,0,7,,,,,,,,6,,,,45,92
384300,note_on,1320,0,2,,,,,,,,1,,,,60,92
384300,note_on,80,0,8,,,,,,,,7,,,,33,92
384300,note_off,240,0,5,,,,,,,,4,,,,67,64
384300,note_on,0,0,5,,,,,,,,4,,,,69,92
384300,note_off,240,0,1,,,,,,,,0,,,,79,64
384300,note_on,0,0,1,,,,,,,,0,,,,81,92
384300,note_on,0,0,5,,,,,,,,4,,,,77,92
384300,note_on,8300,0,3,,,,,,,,2,,,,65,92
384300,note_on,0,0,4,,,,,,,,3,,,,93,92
384300,note_off,240,0,4,,,,,,,,3,,,,91,64
384300,note_off,240,0,6,,,,,,,,5,,,,67,64
384300,note_on,0,0,6,,,,,,,,5,,,,69,92
385140,note_off,840,0,2,,,,,,,,1,,,,60,64
385140,note_off,840,0,3,,,,,,,,2,,,,65,64
385140,note_off,840,0,1,,,,,,,,0,,,,81,64
385140,note_off,840,0,5,,,,,,,,4,,,,77,64
385140,note_off,0,0,5,,,,,,,,4,,,,69,64
385140,note_off,840,0,4,,,,,,,,3,,,,93,64
385140,note_off,840,0,8,,,,,,,,7,,,,33,64
385140,note_off,840,0,7,,,,,,,,6,,,,45,64
385140,note_off,840,0,6,,,,,,,,5,,,,69,64
385260,note_on,120,0,3,,,,,,,,2,,,,62,92
385260,note_on,120,0,8,,,,,,,,7,,,,34,92
385260,note_on,120,0,7,,,,,,,,6,,,,46,92
385260,note_on,120,0,4,,,,,,,,3,,,,91,92
385260,note_on,120,0,2,,,,,,,,1,,,,58,92
385260,note_on,0,0,5,,,,,,,,4,,,,79,92
385260,note_on,120,0,5,,,,,,,,4,,,,70,92
385260,note_on,120,0,1,,,,,,,,0,,,,74,92
385260,note_on,120,0,6,,,,,,,,5,,,,67,92
385660,note_off,400,0,3,,,,,,,,2,,,,62,64
385660,note_off,400,0,5,,,,,,,,4,,,,79,64
385660,note_off,400,0,7,,,,,,,,6,,,,46,64
385660,note_off,400,0,4,,,,,,,,3,,,,91,64
385660,note_off,400,0,1,,,,,,,,0,,,,74,64
385660,note_off,400,0,6,,,,,,,,5,,,,67,64
385660,note_off,0,0,5,,,,,,,,4,,,,70,64
385660,note_off,400,0,2,,,,,,,,1,,,,58,64
385660,note_off,400,0,8,,,,,,,,7,,,,34,64
385740,note_on,80,0,1,,,,,,,,0,,,,72,92
385740,note_on,80,0,5,,,,,,,,4,,,,69,92
385740,note_on,0,0,5,,,,,,,,4,,,,77,92
385740,note_on,80,0,8,,,,,,,,7,,,,36,92
385740,note_on,80,0,4,,,,,,,,3,,,,89,92
385740,note_on,80,0,7,,,,,,,,6,,,,48,92
385740,set_tempo,21180,1,0,253164,,,,,,,,,,,,
385740,note_on,80,0,3,,,,,,,,2,,,,60,92
385740,note_on,80,0,6,,,,,,,,5,,,,65,92
385740,note_on,80,0,2,,,,,,,,1,,,,57,92
386245,note_off,505,0,5,,,,,,,,4,,,,77,64
386245,note_off,0,0,5,,,,,,,,4,,,,69,64
386245,note_off,505,0,7,,,,,,,,6,,,,48,64
386245,note_off,505,0,6,,,,,,,,5,,,,65,64
386245,note_off,505,0,2,,,,,,,,1,,,,57,64
386245,note_off,505,0,4,,,,,,,,3,,,,89,64
386245,note_off,505,0,1,,,,,,,,0,,,,72,64
386245,note_off,505,0,8,,,,,,,,7,,,,36,64
386245,note_off,505,0,3,,,,,,,,2,,,,60,64
386460,note_on,215,0,2,,,,,,,,1,,,,57,92
386460,note_on,215,0,6,,,,,,,,5,,,,65,92
386460,note_on,215,0,5,,,,,,,,4,,,,69,92
386460,note_on,215,0,3,,,,,,,,2,,,,60,92
386460,note_on,215,0,7,,,,,,,,6,,,,48,92
386460,set_tempo,720,1,0,265486,,,,,,,,,,,,
386460,note_on,215,0,4,,,,,,,,3,,,,89,92
386460,note_on,215,0,8,,,,,,,,7,,,,36,92
386460,note_on,0,0,5,,,,,,,,4,,,,77,92
386460,note_on,215,0,1,,,,,,,,0,,,,72,92
386540,note_off,80,0,3,,,,,,,,2,,,,60,64
386540,note_off,80,0,4,,,,,,,,3,,,,89,64
386540,note_off,80,0,2,,,,,,,,1,,,,57,64
386540,note_off,80,0,1,,,,,,,,0,,,,72,64
386540,note_off,80,0,5,,,,,,,,4,,,,77,64
386540,note_off,0,0,5,,,,,,,,4,,,,69,64
386540,note_off,80,0,6,,,,,,,,5,,,,65,64
386695,note_off,235,0,8,,,,,,,,7,,,,36,64
386695,note_off,235,0,7,,,,,,,,6,,,,48,64
386700,note_on,160,0,1,,,,,,,,0,,,,72,92
386700,note_on,5,0,8,,,,,,,,7,,,,34,92
386700,note_on,160,0,4,,,,,,,,3,,,,88,92
386700,note_on,0,0,5,,,,,,,,4,,,,76,92
386700,note_on,160,0,5,,,,,,,,4,,,,67,92
386700,note_on,160,0,2,,,,,,,,1,,,,55,92
386700,note_on,160,0,6,,,,,,,,5,,,,64,92
386700,note_on,160,0,3,,,,,,,,2,,,,60,92
386700,note_on,5,0,7,,,,,,,,6,,,,46,92
386700,set_tempo,240,1,0,269058,,,,,,,,,,,,
387100,note_off,400,0,8,,,,,,,,7,,,,34,64
387100,note_off,400,0,3,,,,,,,,2,,,,60,64
387100,note_off,400,0,5,,,,,,,,4,,,,76,64
387100,note_off,0,0,5,,,,,,,,4,,,,67,64
387100,note_off,400,0,6,,,,,,,,5,,,,64,64
387100,note_off,400,0,4,,,,,,,,3,,,,88,64
387100,note_off,400,0,7,,,,,,,,6,,,,46,64
387100,note_off,400,0,1,,,,,,,,0,,,,72,64
387100,note_off,400,0,2,,,,,,,,1,,,,55,64
387180,note_on,80,0,2,,,,,,,,1,,,,60,92
387180,note_on,80,0,6,,,,,,,,5,,,,69,92
387180,note_on,80,0,7,,,,,,,,6,,,,45,92
387180,note_on,80,0,8,,,,,,,,7,,,,33,92
387180,note_on,0,0,5,,,,,,,,4,,,,81,92
387180,note_on,80,0,5,,,,,,,,4,,,,72,92
387180,note_on,80,0,1,,,,,,,,0,,,,77,92
387180,note_on,80,0,4,,,,,,,,3,,,,93,92
387180,note_on,80,0,3,,,,,,,,2,,,,65,92
388140,note_off,960,0,8,,,,,,,,7,,,,33,64
388140,note_on,0,0,7,,,,,,,,6,,,,46,92
388140,note_off,960,0,7,,,,,,,,6,,,,45,64
388140,note_off,960,0,1,,,,,,,,0,,,,77,64
388140,note_on,0,0,1,,,,,,,,0,,,,74,92
388140,note_on,0,0,2,,,,,,,,1,,,,58,92
388140,note_off,960,0,2,,,,,,,,1,,,,60,64
388140,note_off,960,0,3,,,,,,,,2,,,,65,64
388140,note_on,0,0,8,,,,,,,,7,,,,34,92
388140,note_on,0,0,3,,,,,,,,2,,,,62,92
388140,note_on,0,0,5,,,,,,,,4,,,,79,92
388140,note_on,0,0,5,,,,,,,,4,,,,70,92
388140,note_on,0,0,4,,,,,,,,3,,,,91,92
388140,note_off,960,0,4,,,,,,,,3,,,,93,64
388140,note_off,960,0,6,,,,,,,,5,,,,69,64
388140,note_on,0,0,6,,,,,,,,5,,,,67,92
388140,note_off,960,0,5,,,,,,,,4,,,,81,64
388140,note_off,0,0,5,,,,,,,,4,,,,72,64
388620,note_off,480,0,3,,,,,,,,2,,,,62,64
388620,note_on,0,0,3,,,,,,,,2,,,,60,92
388620,note_off,0,0,5,,,,,,,,4,,,,70,64
388620,note_off,480,0,7,,,,,,,,6,,,,46,64
388620,note_on,0,0,7,,,,,,,,6,,,,48,92
388620,note_on,0,0,5,,,,,,,,4,,,,69,92
388620,note_off,480,0,5,,,,,,,,4,,,,79,64
388620,note_on,0,0,5,,,,,,,,4,,,,77,92
388620,note_on,0,0,2,,,,,,,,1,,,,57,92
388620,note_on,0,0,8,,,,,,,,7,,,,36,92
388620,note_on,0,0,1,,,,,,,,0,,,,72,92
388620,note_on,0,0,6,,,,,,,,5,,,,65,92
388620,note_off,480,0,6,,,,,,,,5,,,,67,64
388620,note_off,480,0,1,,,,,,,,0,,,,74,64
388620,note_off,480,0,4,,,,,,,,3,,,,91,64
388620,note_off,480,0,8,,,,,,,,7,,,,34,64
388620,note_on,0,0,4,,,,,,,,3,,,,89,92
388620,note_off,480,0,2,,,,,,,,1,,,,58,64
389125,note_off,505,0,1,,,,,,,,0,,,,72,64
389215,note_off,595,0,5,,,,,,,,4,,,,77,64
389215,note_off,595,0,4,,,,,,,,3,,,,89,64
389215,note_off,0,0,5,,,,,,,,4,,,,69,64
389215,note_off,595,0,2,,,,,,,,1,,,,57,64
389215,note_off,595,0,6,,,,,,,,5,,,,65,64
389215,note_off,595,0,3,,,,,,,,2,,,,60,64
389340,note_on,215,0,1,,,,,,,,0,,,,72,92
389340,note_on,125,0,3,,,,,,,,2,,,,60,92
389340,note_on,125,0,5,,,,,,,,4,,,,69,92
389340,note_on,125,0,6,,,,,,,,5,,,,65,92
389340,note_on,0,0,5,,,,,,,,4,,,,77,92
389340,note_on,125,0,2,,,,,,,,1,,,,57,92
389340,note_on,125,0,4,,,,,,,,3,,,,89,92
389460,note_off,840,0,8,,,,,,,,7,,,,36,64
389460,note_off,840,0,7,,,,,,,,6,,,,48,64
389580,note_on,120,0,8,,,,,,,,7,,,,34,92
389580,note_off,240,0,4,,,,,,,,3,,,,89,64
389580,note_on,0,0,4,,,,,,,,3,,,,88,92
389580,note_off,240,0,5,,,,,,,,4,,,,77,64
389580,note_off,0,0,5,,,,,,,,4,,,,69,64
389580,note_on,0,0,5,,,,,,,,4,,,,67,92
389580,note_on,0,0,5,,,,,,,,4,,,,76,92
389580,note_on,0,0,1,,,,,,,,0,,,,72,92
389580,note_off,240,0,6,,,,,,,,5,,,,65,64
389580,note_off,240,0,1,,,,,,,,0,,,,72,64
389580,note_off,240,0,3,,,,,,,,2,,,,60,64
389580,note_on,0,0,6,,,,,,,,5,,,,64,92
389580,note_off,240,0,2,,,,,,,,1,,,,57,64
389580,note_on,0,0,2,,,,,,,,1,,,,55,92
389580,note_on,120,0,7,,,,,,,,6,,,,46,92
389580,note_on,0,0,3,,,,,,,,2,,,,60,92
389980,note_off,400,0,3,,,,,,,,2,,,,60,64
389980,note_off,400,0,7,,,,,,,,6,,,,46,64
389980,note_off,400,0,8,,,,,,,,7,,,,34,64
389980,note_off,400,0,4,,,,,,,,3,,,,88,64
389980,note_off,400,0,5,,,,,,,,4,,,,76,64
389980,note_off,0,0,5,,,,,,,,4,,,,67,64
389980,note_off,400,0,6,,,,,,,,5,,,,64,64
389980,note_off,400,0,1,,,,,,,,0,,,,72,64
389980,note_off,400,0,2,,,,,,,,1,,,,55,64
390060,note_on,80,0,5,,,,,,,,4,,,,78,92
390060,note_on,80,0,2,,,,,,,,1,,,,63,92
390060,note_on,80,0,6,,,,,,,,5,,,,66,92
390060,set_tempo,3360,1,0,277777,,,,,,,,,,,,
390060,note_on,80,0,3,,,,,,,,2,,,,72,92
390060,note_on,80,0,7,,,,,,,,6,,,,45,92
390060,note_on,80,0,1,,,,,,,,0,,,,75,92
390060,note_on,80,0,8,,,,,,,,7,,,,33,92
390060,note_on,0,0,4,,,,,,,,3,,,,84,92
390060,note_on,80,0,4,,,,,,,,3,,,,75,92
393780,note_off,3720,0,5,,,,,,,,4,,,,78,64
393780,note_off,3720,0,3,,,,,,,,2,,,,72,64
393780,note_off,0,0,4,,,,,,,,3,,,,75,64
393780,note_off,3720,0,2,,,,,,,,1,,,,63,64
393780,note_off,3720,0,4,,,,,,,,3,,,,84,64
393780,note_off,3720,0,7,,,,,,,,6,,,,45,64
393780,note_off,3720,0,8,,,,,,,,7,,,,33,64
393780,note_off,3720,0,6,,,,,,,,5,,,,66,64
393900,note_on,120,0,7,,,,,,,,6,,,,46,92
393900,note_on,120,0,4,,,,,,,,3,,,,74,92
393900,note_on,120,0,8,,,,,,,,7,,,,34,92
393900,note_on,120,0,2,,,,,,,,1,,,,62,92
393900,note_on,0,0,4,,,,,,,,3,,,,82,92
393900,note_on,120,0,6,,,,,,,,5,,,,67,92
393900,note_on,120,0,3,,,,,,,,2,,,,70,92
393900,set_tempo,3840,1,0,238095,,,,,,,,,,,,
393900,note_on,120,0,5,,,,,,,,4,,,,79,92
393900,note_on,0,0,1,,,,,,,,0,,,,74,92
393900,note_off,3840,0,1,,,,,,,,0,,,,75,64
394300,note_off,400,0,6,,,,,,,,5,,,,67,64
394300,note_off,400,0,5,,,,,,,,4,,,,79,64
394300,note_off,0,0,4,,,,,,,,3,,,,74,64
394300,note_off,400,0,7,,,,,,,,6,,,,46,64
394300,note_off,400,0,3,,,,,,,,2,,,,70,64
394300,note_off,400,0,4,,,,,,,,3,,,,82,64
394300,note_off,400,0,2,,,,,,,,1,,,,62,64
394300,note_off,400,0,8,,,,,,,,7,,,,34,64
394380,note_on,80,0,3,,,,,,,,2,,,,69,92
394380,note_on,0,0,4,,,,,,,,3,,,,81,92
394380,note_on,80,0,4,,,,,,,,3,,,,72,92
394380,note_off,480,0,1,,,,,,,,0,,,,74,64
394380,note_on,80,0,7,,,,,,,,6,,,,48,92
394380,note_on,0,0,6,,,,,,,,5,,,,65,92
394380,note_on,0,0,5,,,,,,,,4,,,,77,92
394380,note_on,80,0,5,,,,,,,,4,,,,69,92
394380,note_on,80,0,2,,,,,,,,1,,,,60,92
394380,note_on,80,0,8,,,,,,,,7,,,,36,92
394380,note_on,80,0,6,,,,,,,,5,,,,57,92
394380,note_on,0,0,1,,,,,,,,0,,,,72,92
394975,note_off,595,0,8,,,,,,,,7,,,,36,64
394975,note_off,595,0,3,,,,,,,,2,,,,69,64
394975,note_off,595,0,6,,,,,,,,5,,,,65,64
394975,note_off,0,0,6,,,,,,,,5,,,,57,64
394975,note_off,595,0,7,,,,,,,,6,,,,48,64
394975,note_off,0,0,4,,,,,,,,3,,,,72,64
394975,note_off,595,0,4,,,,,,,,3,,,,81,64
394975,note_off,595,0,2,,,,,,,,1,,,,60,64
394975,note_off,595,0,5,,,,,,,,4,,,,77,64
394975,note_off,0,0,5,,,,,,,,4,,,,69,64
394975,note_off,595,0,1,,,,,,,,0,,,,72,64
395100,note_on,125,0,8,,,,,,,,7,,,,36,92
395100,note_on,125,0,2,,,,,,,,1,,,,60,92
395100,note_on,0,0,5,,,,,,,,4,,,,77,92
395100,note_on,125,0,6,,,,,,,,5,,,,57,92
395100,note_on,0,0,6,,,,,,,,5,,,,65,92
395100,note_on,125,0,1,,,,,,,,0,,,,72,92
395100,note_on,125,0,5,,,,,,,,4,,,,69,92
395100,note_on,0,0,4,,,,,,,,3,,,,81,92
395100,note_on,125,0,4,,,,,,,,3,,,,72,92
395100,note_on,125,0,3,,,,,,,,2,,,,69,92
395100,note_on,125,0,7,,,,,,,,6,,,,48,92
395180,note_off,80,0,1,,,,,,,,0,,,,72,64
395335,note_off,235,0,8,,,,,,,,7,,,,36,64
395335,note_off,235,0,7,,,,,,,,6,,,,48,64
395335,note_off,235,0,3,,,,,,,,2,,,,69,64
395335,note_off,235,0,5,,,,,,,,4,,,,77,64
395335,note_off,0,0,5,,,,,,,,4,,,,69,64
395335,note_off,0,0,6,,,,,,,,5,,,,57,64
395335,note_off,235,0,6,,,,,,,,5,,,,65,64
395335,note_off,0,0,4,,,,,,,,3,,,,72,64
395335,note_off,235,0,4,,,,,,,,3,,,,81,64
395335,note_off,235,0,2,,,,,,,,1,,,,60,64
395340,note_on,5,0,5,,,,,,,,4,,,,69,92
395340,note_on,0,0,5,,,,,,,,4,,,,77,92
395340,note_on,5,0,8,,,,,,,,7,,,,36,92
395340,note_on,5,0,3,,,,,,,,2,,,,69,92
395340,note_on,5,0,7,,,,,,,,6,,,,48,92
395340,note_on,0,0,4,,,,,,,,3,,,,81,92
395340,note_on,5,0,4,,,,,,,,3,,,,72,92
395340,note_on,160,0,1,,,,,,,,0,,,,72,92
395340,note_on,5,0,6,,,,,,,,5,,,,57,92
395340,note_on,0,0,6,,,,,,,,5,,,,65,92
395340,note_on,5,0,2,,,,,,,,1,,,,60,92
395740,note_off,0,0,5,,,,,,,,4,,,,69,64
395740,note_off,400,0,5,,,,,,,,4,,,,77,64
395740,note_off,400,0,8,,,,,,,,7,,,,36,64
395740,note_off,400,0,1,,,,,,,,0,,,,72,64
395740,note_off,0,0,6,,,,,,,,5,,,,57,64
395740,note_off,400,0,2,,,,,,,,1,,,,60,64
395740,note_off,400,0,6,,,,,,,,5,,,,65,64
395740,note_off,400,0,7,,,,,,,,6,,,,48,64
395740,note_off,0,0,4,,,,,,,,3,,,,72,64
395740,note_off,400,0,4,,,,,,,,3,,,,81,64
395740,note_off,400,0,3,,,,,,,,2,,,,69,64
395820,note_on,80,0,1,,,,,,,,0,,,,76,92
395820,note_on,80,0,6,,,,,,,,5,,,,58,92
395820,note_on,0,0,6,,,,,,,,5,,,,64,92
395820,note_on,80,0,7,,,,,,,,6,,,,48,92
395820,note_on,80,0,3,,,,,,,,2,,,,67,92
395820,note_on,0,0,5,,,,,,,,4,,,,76,92
395820,note_on,80,0,8,,,,,,,,7,,,,36,92
395820,set_tempo,1920,1,0,245901,,,,,,,,,,,,
395820,note_on,80,0,2,,,,,,,,1,,,,60,92
395820,note_on,80,0,4,,,,,,,,3,,,,72,92
395820,note_on,0,0,4,,,,,,,,3,,,,79,92
395820,note_on,80,0,5,,,,,,,,4,,,,70,92
396415,note_off,595,0,8,,,,,,,,7,,,,36,64
396415,note_off,0,0,4,,,,,,,,3,,,,72,64
396415,note_off,595,0,4,,,,,,,,3,,,,79,64
396415,note_off,595,0,3,,,,,,,,2,,,,67,64
396415,note_off,0,0,6,,,,,,,,5,,,,58,64
396415,note_off,595,0,1,,,,,,,,0,,,,76,64
396415,note_off,595,0,7,,,,,,,,6,,,,48,64
396415,note_off,595,0,6,,,,,,,,5,,,,64,64
396415,note_off,595,0,2,,,,,,,,1,,,,60,64
396415,note_off,595,0,5,,,,,,,,4,,,,76,64
396415,note_off,0,0,5,,,,,,,,4,,,,70,64
396540,note_on,0,0,6,,,,,,,,5,,,,64,92
396540,note_on,125,0,6,,,,,,,,5,,,,58,92
396540,note_on,0,0,4,,,,,,,,3,,,,79,92
396540,note_on,125,0,3,,,,,,,,2,,,,67,92
396540,note_on,125,0,7,,,,,,,,6,,,,48,92
396540,note_on,125,0,8,,,,,,,,7,,,,36,92
396540,note_on,0,0,5,,,,,,,,4,,,,76,92
396540,note_on,125,0,2,,,,,,,,1,,,,60,92
396540,note_on,125,0,1,,,,,,,,0,,,,76,92
396540,note_on,125,0,4,,,,,,,,3,,,,72,92
396540,note_on,125,0,5,,,,,,,,4,,,,70,92
396620,note_off,0,0,6,,,,,,,,5,,,,58,64
396620,note_off,80,0,1,,,,,,,,0,,,,76,64
396620,note_off,0,0,5,,,,,,,,4,,,,70,64
396620,note_off,80,0,5,,,,,,,,4,,,,76,64
396620,note_off,80,0,6,,,,,,,,5,,,,64,64
396620,note_off,80,0,7,,,,,,,,6,,,,48,64
396620,note_off,80,0,2,,,,,,,,1,,,,60,64
396620,note_off,80,0,3,,,,,,,,2,,,,67,64
396620,note_off,0,0,4,,,,,,,,3,,,,72,64
396620,note_off,80,0,4,,,,,,,,3,,,,79,64
396775,note_off,235,0,8,,,,,,,,7,,,,36,64
396780,note_on,0,0,4,,,,,,,,3,,,,79,92
396780,note_on,160,0,4,,,,,,,,3,,,,72,92
396780,note_on,160,0,1,,,,,,,,0,,,,76,92
396780,note_on,5,0,8,,,,,,,,7,,,,36,92
396780,note_on,160,0,6,,,,,,,,5,,,,58,92
396780,note_on,160,0,7,,,,,,,,6,,,,48,92
396780,note_on,0,0,6,,,,,,,,5,,,,64,92
396780,note_on,160,0,2,,,,,,,,1,,,,60,92
396780,note_on,0,0,5,,,,,,,,4,,,,76,92
396780,note_on,160,0,5,,,,,,,,4,,,,70,92
396780,note_on,160,0,3,,,,,,,,2,,,,67,92
397180,note_off,400,0,3,,,,,,,,2,,,,67,64
397180,note_off,400,0,7,,,,,,,,6,,,,48,64
397180,note_off,400,0,4,,,,,,,,3,,,,79,64
397180,note_off,0,0,4,,,,,,,,3,,,,72,64
397180,note_off,400,0,1,,,,,,,,0,,,,76,64
397180,note_off,400,0,6,,,,,,,,5,,,,64,64
397180,note_off,400,0,8,,,,,,,,7,,,,36,64
397180,note_off,400,0,2,,,,,,,,1,,,,60,64
397180,note_off,0,0,6,,,,,,,,5,,,,58,64
397180,note_off,400,0,5,,,,,,,,4,,,,76,64
397180,note_off,0,0,5,,,,,,,,4,,,,70,64
397260,note_on,80,0,6,,,,,,,,5,,,,57,92
397260,note_on,0,0,4,,,,,,,,3,,,,77,92
397260,note_on,80,0,4,,,,,,,,3,,,,69,92
397260,set_tempo,1440,1,0,252100,,,,,,,,,,,,
397260,note_on,80,0,1,,,,,,,,0,,,,77,92
397260,note_on,80,0,2,,,,,,,,1,,,,57,92
397260,note_on,80,0,5,,,,,,,,4,,,,69,92
397260,note_on,80,0,7,,,,,,,,6,,,,53,92
397260,note_on,0,0,5,,,,,,,,4,,,,77,92
397260,note_on,80,0,8,,,,,,,,7,,,,41,92
397260,note_on,0,0,6,,,,,,,,5,,,,65,92
397260,note_on,80,0,3,,,,,,,,2,,,,65,92
397660,note_off,400,0,8,,,,,,,,7,,,,41,64
397660,note_off,0,0,4,,,,,,,,3,,,,69,64
397660,note_off,400,0,6,,,,,,,,5,,,,65,64
397660,note_off,400,0,2,,,,,,,,1,,,,57,64
397660,note_off,400,0,7,,,,,,,,6,,,,53,64
397660,note_off,400,0,3,,,,,,,,2,,,,65,64
397660,note_off,0,0,6,,,,,,,,5,,,,57,64
397660,note_off,0,0,5,,,,,,,,4,,,,69,64
397660,note_off,400,0,5,,,,,,,,4,,,,77,64
397660,note_off,400,0,1,,,,,,,,0,,,,77,64
397660,note_off,400,0,4,,,,,,,,3,,,,77,64
398220,set_tempo,960,1,0,266666,,,,,,,,,,,,
398220,note_on,560,0,8,,,,,,,,7,,,,36,92
398220,note_on,560,0,2,,,,,,,,1,,,,64,92
398220,note_on,0,0,5,,,,,,,,4,,,,79,92
398220,note_on,0,0,4,,,,,,,,3,,,,72,92
398220,note_on,0,0,5,,,,,,,,4,,,,72,92
398220,note_on,560,0,5,,,,,,,,4,,,,64,92
398220,note_on,560,0,4,,,,,,,,3,,,,67,92
398220,note_on,560,0,3,,,,,,,,2,,,,60,92
398220,note_on,560,0,7,,,,,,,,6,,,,48,92
398220,note_on,560,0,6,,,,,,,,5,,,,60,92
398220,note_on,560,0,1,,,,,,,,0,,,,79,92
398220,note_on,0,0,4,,,,,,,,3,,,,79,92
398620,note_off,400,0,8,,,,,,,,7,,,,36,64
398620,note_off,0,0,4,,,,,,,,3,,,,72,64
398620,note_off,400,0,7,,,,,,,,6,,,,48,64
398620,note_off,400,0,1,,,,,,,,0,,,,79,64
398620,note_off,400,0,3,,,,,,,,2,,,,60,64
398620,note_off,400,0,6,,,,,,,,5,,,,60,64
398620,note_off,400,0,4,,,,,,,,3,,,,79,64
398620,note_off,0,0,4,,,,,,,,3,,,,67,64
398620,note_off,400,0,2,,,,,,,,1,,,,64,64
398620,note_off,400,0,5,,,,,,,,4,,,,79,64
398620,note_off,0,0,5,,,,,,,,4,,,,72,64
398620,note_off,0,0,5,,,,,,,,4,,,,64,64
398700,note_on,0,0,5,,,,,,,,4,,,,81,92
398700,note_on,80,0,3,,,,,,,,2,,,,65,92
398700,note_on,80,0,5,,,,,,,,4,,,,65,92
398700,note_on,0,0,5,,,,,,,,4,,,,72,92
398700,note_on,80,0,2,,,,,,,,1,,,,65,92
398700,note_on,80,0,8,,,,,,,,7,,,,29,92
398700,note_on,80,0,1,,,,,,,,0,,,,81,92
398700,note_on,80,0,4,,,,,,,,3,,,,65,92
398700,note_on,0,0,4,,,,,,,,3,,,,72,92
398700,note_on,80,0,6,,,,,,,,5,,,,53,92
398700,note_on,0,0,4,,,,,,,,3,,,,81,92
398700,note_on,80,0,7,,,,,,,,6,,,,41,92
399100,note_off,400,0,8,,,,,,,,7,,,,29,64
399100,note_off,0,0,4,,,,,,,,3,,,,72,64
399100,note_off,400,0,7,,,,,,,,6,,,,41,64
399100,note_off,400,0,3,,,,,,,,2,,,,65,64
399100,note_off,0,0,5,,,,,,,,4,,,,65,64
399100,note_off,0,0,5,,,,,,,,4,,,,72,64
399100,note_off,400,0,5,,,,,,,,4,,,,81,64
399100,note_off,0,0,4,,,,,,,,3,,,,65,64
399100,note_off,400,0,4,,,,,,,,3,,,,81,64
399100,note_off,400,0,1,,,,,,,,0,,,,81,64
399100,note_off,400,0,2,,,,,,,,1,,,,65,64
399100,note_off,400,0,6,,,,,,,,5,,,,53,64
402060,note_on,2960,0,4,,,,,,,,3,,,,67,60
402060,set_tempo,3840,1,0,272727,,,,,,,,,,,,
402460,note_off,400,0,4,,,,,,,,3,,,,67,64
402540,note_on,80,0,4,,,,,,,,3,,,,72,60
402540,note_on,3440,0,6,,,,,,,,5,,,,64,60
402540,note_on,3440,0,5,,,,,,,,4,,,,67,60
402540,note_on,3440,0,7,,,,,,,,6,,,,48,60
403020,note_off,480,0,7,,,,,,,,6,,,,48,64
403020,note_on,0,0,7,,,,,,,,6,,,,52,60
403500,note_on,0,0,7,,,,,,,,6,,,,53,60
403500,note_off,480,0,7,,,,,,,,6,,,,52,64
403980,note_off,1440,0,6,,,,,,,,5,,,,64,64
403980,note_on,0,0,6,,,,,,,,5,,,,62,60
403980,note_off,480,0,7,,,,,,,,6,,,,53,64
403980,note_on,0,0,4,,,,,,,,3,,,,71,60
403980,note_off,1440,0,4,,,,,,,,3,,,,72,64
403980,note_on,0,0,7,,,,,,,,6,,,,55,60
404460,note_off,480,0,7,,,,,,,,6,,,,55,64
404460,note_on,0,0,7,,,,,,,,6,,,,53,61
404940,note_off,960,0,6,,,,,,,,5,,,,62,64
404940,note_on,0,0,6,,,,,,,,5,,,,64,63
404940,note_off,480,0,7,,,,,,,,6,,,,53,64
404940,note_on,0,0,7,,,,,,,,6,,,,52,62
404940,note_on,0,0,5,,,,,,,,4,,,,69,60
404940,note_on,0,0,4,,,,,,,,3,,,,73,63
404940,note_off,960,0,4,,,,,,,,3,,,,71,64
404940,note_off,2400,0,5,,,,,,,,4,,,,67,64
405420,note_on,0,0,4,,,,,,,,3,,,,74,64
405420,note_off,480,0,4,,,,,,,,3,,,,73,64
405420,note_on,0,0,7,,,,,,,,6,,,,50,63
405420,note_off,480,0,6,,,,,,,,5,,,,64,64
405420,note_on,0,0,6,,,,,,,,5,,,,65,64
405420,note_off,480,0,7,,,,,,,,6,,,,52,64
405900,note_off,480,0,7,,,,,,,,6,,,,50,64
405900,note_on,0,0,7,,,,,,,,6,,,,52,65
406380,note_on,0,0,7,,,,,,,,6,,,,53,67
406380,note_off,480,0,7,,,,,,,,6,,,,52,64
406860,note_on,0,0,7,,,,,,,,6,,,,55,69
406860,note_off,1440,0,4,,,,,,,,3,,,,74,64
406860,note_on,0,0,4,,,,,,,,3,,,,71,69
406860,note_off,1440,0,6,,,,,,,,5,,,,65,64
406860,note_on,0,0,6,,,,,,,,5,,,,62,69
406860,note_off,480,0,7,,,,,,,,6,,,,53,64
406860,note_off,1920,0,5,,,,,,,,4,,,,69,64
406860,note_on,0,0,5,,,,,,,,4,,,,67,68
407340,note_off,480,0,7,,,,,,,,6,,,,55,64
407340,note_on,0,0,7,,,,,,,,6,,,,53,71
407700,note_off,840,0,4,,,,,,,,3,,,,71,64
407700,note_off,840,0,6,,,,,,,,5,,,,62,64
407700,note_off,840,0,5,,,,,,,,4,,,,67,64
407740,note_off,400,0,7,,,,,,,,6,,,,53,64
407820,note_on,120,0,4,,,,,,,,3,,,,67,73
407820,note_on,80,0,7,,,,,,,,6,,,,50,73
408300,note_on,0,0,4,,,,,,,,3,,,,76,75
408300,note_on,600,0,5,,,,,,,,4,,,,72,75
408300,note_on,600,0,6,,,,,,,,5,,,,67,75
408300,note_off,480,0,7,,,,,,,,6,,,,50,64
408300,note_on,0,0,7,,,,,,,,6,,,,48,75
408300,note_off,480,0,4,,,,,,,,3,,,,67,64
408780,note_off,480,0,7,,,,,,,,6,,,,48,64
408780,note_on,0,0,7,,,,,,,,6,,,,60,75
409260,note_off,960,0,6,,,,,,,,5,,,,67,64
409260,note_on,0,0,6,,,,,,,,5,,,,68,75
409260,note_off,480,0,7,,,,,,,,6,,,,60,64
409260,note_on,0,0,7,,,,,,,,6,,,,58,75
409740,note_off,480,0,6,,,,,,,,5,,,,68,64
409740,note_off,480,0,7,,,,,,,,6,,,,58,64
409740,note_on,0,0,7,,,,,,,,6,,,,57,75
409740,note_on,0,0,6,,,,,,,,5,,,,69,75
410220,note_off,480,0,7,,,,,,,,6,,,,57,64
410220,note_on,0,0,7,,,,,,,,6,,,,55,74
410700,note_off,2400,0,5,,,,,,,,4,,,,72,64
410700,note_on,0,0,5,,,,,,,,4,,,,74,75
410700,note_on,0,0,4,,,,,,,,3,,,,77,75
410700,note_off,2400,0,4,,,,,,,,3,,,,76,64
410700,note_off,480,0,7,,,,,,,,6,,,,55,64
410700,note_on,0,0,7,,,,,,,,6,,,,53,73
411180,note_off,480,0,4,,,,,,,,3,,,,77,64
411180,note_on,0,0,6,,,,,,,,5,,,,67,70
411180,note_off,480,0,5,,,,,,,,4,,,,74,64
411180,note_on,0,0,5,,,,,,,,4,,,,72,73
411180,note_off,1440,0,6,,,,,,,,5,,,,69,64
411180,note_off,480,0,7,,,,,,,,6,,,,53,64
411180,note_on,0,0,7,,,,,,,,6,,,,55,72
411180,note_on,0,0,4,,,,,,,,3,,,,76,73
411660,note_on,0,0,7,,,,,,,,6,,,,52,70
411660,note_off,480,0,7,,,,,,,,6,,,,55,64
412140,note_off,480,0,7,,,,,,,,6,,,,52,64
412140,note_on,0,0,7,,,,,,,,6,,,,53,68
412620,note_on,0,0,4,,,,,,,,3,,,,74,67
412620,note_on,0,0,7,,,,,,,,6,,,,55,66
412620,note_off,1440,0,4,,,,,,,,3,,,,76,64
412620,note_on,0,0,5,,,,,,,,4,,,,71,67
412620,note_off,1440,0,5,,,,,,,,4,,,,72,64
412620,note_off,480,0,7,,,,,,,,6,,,,53,64
413100,note_on,0,0,7,,,,,,,,6,,,,53,64
413100,note_off,480,0,7,,,,,,,,6,,,,55,64
413460,note_off,2280,0,6,,,,,,,,5,,,,67,64
413460,note_off,840,0,4,,,,,,,,3,,,,74,64
413460,note_off,840,0,5,,,,,,,,4,,,,71,64
413500,note_off,400,0,7,,,,,,,,6,,,,53,64
413580,note_on,80,0,7,,,,,,,,6,,,,50,62
413580,note_on,120,0,4,,,,,,,,3,,,,67,63
414060,note_on,0,0,7,,,,,,,,6,,,,48,60
414060,note_off,480,0,7,,,,,,,,6,,,,50,64
414060,note_on,600,0,6,,,,,,,,5,,,,64,60
414060,note_on,600,0,5,,,,,,,,4,,,,67,60
414060,note_off,480,0,4,,,,,,,,3,,,,67,64
414060,note_on,0,0,4,,,,,,,,3,,,,72,60
414540,note_off,480,0,7,,,,,,,,6,,,,48,64
414540,note_on,0,0,7,,,,,,,,6,,,,52,60
415020,note_off,480,0,7,,,,,,,,6,,,,52,64
415020,note_on,0,0,7,,,,,,,,6,,,,53,60
415500,note_on,0,0,6,,,,,,,,5,,,,62,60
415500,note_off,480,0,7,,,,,,,,6,,,,53,64
415500,note_on,0,0,7,,,,,,,,6,,,,55,60
415500,note_off,1440,0,4,,,,,,,,3,,,,72,64
415500,note_off,1440,0,6,,,,,,,,5,,,,64,64
415500,note_on,0,0,4,,,,,,,,3,,,,71,60
415980,note_off,480,0,7,,,,,,,,6,,,,55,64
415980,note_on,0,0,7,,,,,,,,6,,,,53,61
416460,note_off,960,0,4,,,,,,,,3,,,,71,64
416460,note_on,0,0,5,,,,,,,,4,,,,69,60
416460,note_off,2400,0,5,,,,,,,,4,,,,67,64
416460,note_on,0,0,6,,,,,,,,5,,,,64,63
416460,note_on,0,0,4,,,,,,,,3,,,,73,63
416460,note_off,960,0,6,,,,,,,,5,,,,62,64
416460,note_on,0,0,7,,,,,,,,6,,,,52,62
416460,note_off,480,0,7,,,,,,,,6,,,,53,64
416940,note_off,480,0,7,,,,,,,,6,,,,52,64
416940,note_on,0,0,7,,,,,,,,6,,,,50,63
416940,note_off,480,0,4,,,,,,,,3,,,,73,64
416940,note_on,0,0,4,,,,,,,,3,,,,74,64
416940,note_off,480,0,6,,,,,,,,5,,,,64,64
416940,note_on,0,0,6,,,,,,,,5,,,,65,64
417420,note_off,480,0,7,,,,,,,,6,,,,50,64
417420,note_on,0,0,7,,,,,,,,6,,,,53,65
417900,note_off,480,0,7,,,,,,,,6,,,,53,64
417900,note_on,0,0,7,,,,,,,,6,,,,55,67
418380,note_off,1920,0,5,,,,,,,,4,,,,69,64
418380,note_off,1440,0,4,,,,,,,,3,,,,74,64
418380,note_on,0,0,4,,,,,,,,3,,,,73,69
418380,note_on,0,0,6,,,,,,,,5,,,,64,69
418380,note_off,1440,0,6,,,,,,,,5,,,,65,64
418380,note_on,0,0,7,,,,,,,,6,,,,57,69
418380,note_off,480,0,7,,,,,,,,6,,,,55,64
418380,note_on,0,0,5,,,,,,,,4,,,,69,68
418860,note_on,0,0,7,,,,,,,,6,,,,59,71
418860,note_off,480,0,7,,,,,,,,6,,,,57,64
419220,note_off,840,0,6,,,,,,,,5,,,,64,64
419220,note_off,840,0,4,,,,,,,,3,,,,73,64
419220,note_off,840,0,5,,,,,,,,4,,,,69,64
419260,note_off,400,0,7,,,,,,,,6,,,,59,64
419340,note_on,120,0,4,,,,,,,,3,,,,69,73
419340,note_on,80,0,7,,,,,,,,6,,,,61,73
419340,note_on,20240,0,2,,,,,,,,1,,,,57,60
419820,note_on,0,0,4,,,,,,,,3,,,,77,75
419820,note_on,0,0,2,,,,,,,,1,,,,65,75
419820,note_off,480,0,2,,,,,,,,1,,,,57,64
419820,note_on,600,0,5,,,,,,,,4,,,,74,75
419820,note_off,480,0,4,,,,,,,,3,,,,69,64
419820,note_off,480,0,7,,,,,,,,6,,,,61,64
419820,note_on,600,0,6,,,,,,,,5,,,,69,75
419820,note_on,0,0,7,,,,,,,,6,,,,50,75
420300,note_on,0,0,7,,,,,,,,6,,,,62,75
420300,note_off,480,0,7,,,,,,,,6,,,,50,64
420780,note_off,480,0,7,,,,,,,,6,,,,62,64
420780,note_on,0,0,7,,,,,,,,6,,,,60,75
421140,note_off,1320,0,6,,,,,,,,5,,,,69,64
421260,note_on,120,0,6,,,,,,,,5,,,,71,75
421260,note_off,480,0,7,,,,,,,,6,,,,60,64
421260,note_on,0,0,7,,,,,,,,6,,,,59,75
421740,note_on,0,0,7,,,,,,,,6,,,,47,75
421740,note_off,480,0,7,,,,,,,,6,,,,59,64
422100,note_off,840,0,6,,,,,,,,5,,,,71,64
422220,note_on,0,0,2,,,,,,,,1,,,,66,75
422220,note_on,0,0,4,,,,,,,,3,,,,78,75
422220,note_off,2400,0,4,,,,,,,,3,,,,77,64
422220,note_off,2400,0,2,,,,,,,,1,,,,65,64
422220,note_on,120,0,6,,,,,,,,5,,,,72,75
422220,note_off,480,0,7,,,,,,,,6,,,,47,64
422220,note_on,0,0,7,,,,,,,,6,,,,45,75
422620,note_off,400,0,6,,,,,,,,5,,,,72,64
422700,note_on,0,0,7,,,,,,,,6,,,,43,75
422700,note_off,480,0,2,,,,,,,,1,,,,66,64
422700,note_on,0,0,2,,,,,,,,1,,,,67,75
422700,note_on,80,0,6,,,,,,,,5,,,,71,75
422700,note_off,480,0,4,,,,,,,,3,,,,78,64
422700,note_on,0,0,4,,,,,,,,3,,,,79,75
422700,note_off,480,0,7,,,,,,,,6,,,,45,64
423100,note_off,400,0,6,,,,,,,,5,,,,71,64
423180,note_on,80,0,6,,,,,,,,5,,,,72,75
423180,note_on,0,0,7,,,,,,,,6,,,,45,75
423180,note_off,480,0,7,,,,,,,,6,,,,43,64
423580,note_off,400,0,6,,,,,,,,5,,,,72,64
423660,note_on,80,0,6,,,,,,,,5,,,,74,75
423660,note_off,480,0,7,,,,,,,,6,,,,45,64
423660,note_on,0,0,7,,,,,,,,6,,,,47,75
424020,note_off,4200,0,5,,,,,,,,4,,,,74,64
424060,note_off,400,0,6,,,,,,,,5,,,,74,64
424140,note_on,120,0,5,,,,,,,,4,,,,72,75
424140,note_on,80,0,6,,,,,,,,5,,,,67,75
424140,note_off,1440,0,2,,,,,,,,1,,,,67,64
424140,note_off,480,0,7,,,,,,,,6,,,,47,64
424140,note_on,0,0,7,,,,,,,,6,,,,48,75
424140,note_on,0,0,2,,,,,,,,1,,,,64,75
424140,note_off,1440,0,4,,,,,,,,3,,,,79,64
424140,note_on,0,0,4,,,,,,,,3,,,,76,75
424620,note_off,480,0,7,,,,,,,,6,,,,48,64
424620,note_on,0,0,7,,,,,,,,6,,,,50,75
424980,note_off,840,0,2,,,,,,,,1,,,,64,64
424980,note_off,840,0,5,,,,,,,,4,,,,72,64
424980,note_off,840,0,4,,,,,,,,3,,,,76,64
425020,note_off,400,0,7,,,,,,,,6,,,,50,64
425100,note_on,120,0,5,,,,,,,,4,,,,72,75
425100,note_on,120,0,4,,,,,,,,3,,,,72,75
425100,note_on,80,0,7,,,,,,,,6,,,,52,75
425460,note_off,1320,0,6,,,,,,,,5,,,,67,64
425580,note_on,120,0,6,,,,,,,,5,,,,66,75
425580,note_on,0,0,5,,,,,,,,4,,,,72,72
425580,note_off,480,0,4,,,,,,,,3,,,,72,64
425580,note_on,0,0,4,,,,,,,,3,,,,74,72
425580,note_off,480,0,7,,,,,,,,6,,,,52,64
425580,note_on,0,0,7,,,,,,,,6,,,,50,72
425580,note_off,480,0,5,,,,,,,,4,,,,72,64
426060,note_off,480,0,6,,,,,,,,5,,,,66,64
426060,note_on,0,0,7,,,,,,,,6,,,,52,69
426060,note_off,480,0,7,,,,,,,,6,,,,50,64
426060,note_on,0,0,6,,,,,,,,5,,,,67,72
426540,note_off,480,0,6,,,,,,,,5,,,,67,64
426540,note_on,0,0,6,,,,,,,,5,,,,69,69
426540,note_on,0,0,7,,,,,,,,6,,,,54,66
426540,note_off,480,0,7,,,,,,,,6,,,,52,64
427020,note_on,0,0,7,,,,,,,,6,,,,53,63
427020,note_on,0,0,5,,,,,,,,4,,,,68,62
427020,note_off,480,0,6,,,,,,,,5,,,,69,64
427020,note_on,0,0,4,,,,,,,,3,,,,71,61
427020,note_off,1440,0,4,,,,,,,,3,,,,74,64
427020,note_off,480,0,7,,,,,,,,6,,,,54,64
427020,note_off,1440,0,5,,,,,,,,4,,,,72,64
427020,note_on,0,0,6,,,,,,,,5,,,,62,65
427500,note_on,0,0,7,,,,,,,,6,,,,52,60
427500,note_off,480,0,7,,,,,,,,6,,,,53,64
427500,note_on,0,0,6,,,,,,,,5,,,,64,61
427500,note_off,480,0,6,,,,,,,,5,,,,62,64
427980,note_off,480,0,6,,,,,,,,5,,,,64,64
427980,note_on,0,0,6,,,,,,,,5,,,,65,57
427980,note_on,0,0,7,,,,,,,,6,,,,50,57
427980,note_off,480,0,7,,,,,,,,6,,,,52,64
428460,note_off,480,0,7,,,,,,,,6,,,,50,64
428460,note_on,0,0,5,,,,,,,,4,,,,69,52
428460,note_off,1440,0,5,,,,,,,,4,,,,68,64
428460,note_on,0,0,7,,,,,,,,6,,,,48,53
428460,note_on,0,0,4,,,,,,,,3,,,,74,49
428460,note_off,1440,0,4,,,,,,,,3,,,,71,64
428460,note_on,0,0,6,,,,,,,,5,,,,64,53
428460,note_off,480,0,6,,,,,,,,5,,,,65,64
428940,note_off,480,0,7,,,,,,,,6,,,,48,64
428940,note_on,0,0,7,,,,,,,,6,,,,45,49
428940,note_off,480,0,4,,,,,,,,3,,,,74,64
428940,note_on,0,0,4,,,,,,,,3,,,,72,45
429060,note_off,120,0,4,,,,,,,,3,,,,72,64
429300,note_off,840,0,5,,,,,,,,4,,,,69,64
429300,note_off,840,0,6,,,,,,,,5,,,,64,64
429340,note_off,400,0,7,,,,,,,,6,,,,45,64
429420,note_on,360,0,4,,,,,,,,3,,,,69,45
429420,note_on,120,0,5,,,,,,,,4,,,,66,45
429420,note_on,80,0,7,,,,,,,,6,,,,50,45
429420,note_on,120,0,6,,,,,,,,5,,,,60,45
429540,note_off,120,0,7,,,,,,,,6,,,,50,64
429540,note_off,120,0,4,,,,,,,,3,,,,69,64
429540,note_off,120,0,5,,,,,,,,4,,,,66,64
429540,note_off,120,0,6,,,,,,,,5,,,,60,64
429900,note_on,360,0,7,,,,,,,,6,,,,43,45
429900,note_on,360,0,4,,,,,,,,3,,,,67,45
429900,note_on,360,0,5,,,,,,,,4,,,,67,45
429900,note_on,360,0,6,,,,,,,,5,,,,59,45
430020,note_off,120,0,5,,,,,,,,4,,,,67,64
430020,note_off,120,0,4,,,,,,,,3,,,,67,64
430020,note_off,120,0,6,,,,,,,,5,,,,59,64
430020,note_off,120,0,7,,,,,,,,6,,,,43,64
430380,note_on,360,0,7,,,,,,,,6,,,,55,45
430500,note_off,120,0,7,,,,,,,,6,,,,55,64
430860,note_on,840,0,4,,,,,,,,3,,,,67,60
431340,note_on,1320,0,6,,,,,,,,5,,,,64,60
431340,note_on,1320,0,5,,,,,,,,4,,,,67,60
431340,note_off,480,0,4,,,,,,,,3,,,,67,64
431340,note_on,0,0,4,,,,,,,,3,,,,72,60
431340,note_on,840,0,7,,,,,,,,6,,,,48,60
431820,note_on,0,0,7,,,,,,,,6,,,,52,60
431820,note_off,480,0,7,,,,,,,,6,,,,48,64
432300,note_on,0,0,7,,,,,,,,6,,,,53,60
432300,note_off,480,0,7,,,,,,,,6,,,,52,64
432780,note_off,480,0,7,,,,,,,,6,,,,53,64
432780,note_on,0,0,7,,,,,,,,6,,,,55,60
432780,note_on,0,0,4,,,,,,,,3,,,,71,60
432780,note_off,1440,0,4,,,,,,,,3,,,,72,64
432780,note_off,1440,0,6,,,,,,,,5,,,,64,64
432780,note_on,0,0,6,,,,,,,,5,,,,62,60
433260,note_on,0,0,7,,,,,,,,6,,,,53,61
433260,note_off,480,0,7,,,,,,,,6,,,,55,64
433740,note_on,0,0,6,,,,,,,,5,,,,64,63
433740,note_off,960,0,6,,,,,,,,5,,,,62,64
433740,note_off,2400,0,5,,,,,,,,4,,,,67,64
433740,note_off,960,0,4,,,,,,,,3,,,,71,64
433740,note_on,0,0,4,,,,,,,,3,,,,73,63
433740,note_off,480,0,7,,,,,,,,6,,,,53,64
433740,note_on,0,0,5,,,,,,,,4,,,,69,60
433740,note_on,0,0,7,,,,,,,,6,,,,52,62
434220,note_off,480,0,7,,,,,,,,6,,,,52,64
434220,note_on,0,0,7,,,,,,,,6,,,,50,63
434220,note_on,0,0,4,,,,,,,,3,,,,74,64
434220,note_off,480,0,6,,,,,,,,5,,,,64,64
434220,note_on,0,0,6,,,,,,,,5,,,,65,64
434220,note_off,480,0,4,,,,,,,,3,,,,73,64
434700,note_off,480,0,7,,,,,,,,6,,,,50,64
434700,note_on,0,0,7,,,,,,,,6,,,,52,65
435180,note_off,480,0,7,,,,,,,,6,,,,52,64
435180,note_on,0,0,7,,,,,,,,6,,,,53,67
435660,note_off,1920,0,5,,,,,,,,4,,,,69,64
435660,note_off,480,0,7,,,,,,,,6,,,,53,64
435660,note_on,0,0,7,,,,,,,,6,,,,55,69
435660,note_off,1440,0,6,,,,,,,,5,,,,65,64
435660,note_on,0,0,6,,,,,,,,5,,,,62,69
435660,note_on,0,0,4,,,,,,,,3,,,,71,69
435660,note_on,0,0,5,,,,,,,,4,,,,67,68
435660,note_off,1440,0,4,,,,,,,,3,,,,74,64
436140,note_off,480,0,7,,,,,,,,6,,,,55,64
436140,note_on,0,0,7,,,,,,,,6,,,,53,71
436500,note_off,840,0,5,,,,,,,,4,,,,67,64
436500,note_off,840,0,4,,,,,,,,3,,,,71,64
436500,note_off,840,0,6,,,,,,,,5,,,,62,64
436540,note_off,400,0,7,,,,,,,,6,,,,53,64
436620,note_on,120,0,4,,,,,,,,3,,,,67,73
436620,note_on,80,0,7,,,,,,,,6,,,,50,73
437100,note_on,600,0,5,,,,,,,,4,,,,72,75
437100,note_off,480,0,4,,,,,,,,3,,,,67,64
437100,note_on,0,0,4,,,,,,,,3,,,,76,75
437100,note_off,480,0,7,,,,,,,,6,,,,50,64
437100,note_on,0,0,7,,,,,,,,6,,,,48,75
437100,note_on,600,0,6,,,,,,,,5,,,,67,75
437580,note_off,480,0,7,,,,,,,,6,,,,48,64
437580,note_on,0,0,7,,,,,,,,6,,,,60,75
438060,note_off,480,0,7,,,,,,,,6,,,,60,64
438060,note_on,0,0,7,,,,,,,,6,,,,58,75
438060,note_off,960,0,6,,,,,,,,5,,,,67,64
438060,note_on,0,0,6,,,,,,,,5,,,,68,75
438540,note_off,480,0,6,,,,,,,,5,,,,68,64
438540,note_on,0,0,6,,,,,,,,5,,,,69,75
438540,note_on,0,0,7,,,,,,,,6,,,,57,75
438540,note_off,480,0,7,,,,,,,,6,,,,58,64
439020,note_on,0,0,7,,,,,,,,6,,,,55,74
439020,note_off,480,0,7,,,,,,,,6,,,,57,64
439500,note_on,0,0,7,,,,,,,,6,,,,53,73
439500,note_on,0,0,4,,,,,,,,3,,,,77,75
439500,note_off,2400,0,4,,,,,,,,3,,,,76,64
439500,note_on,0,0,5,,,,,,,,4,,,,74,75
439500,note_off,2400,0,5,,,,,,,,4,,,,72,64
439500,note_off,480,0,7,,,,,,,,6,,,,55,64
439980,note_on,0,0,4,,,,,,,,3,,,,76,73
439980,note_on,0,0,5,,,,,,,,4,,,,72,73
439980,note_off,480,0,5,,,,,,,,4,,,,74,64
439980,note_off,1440,0,6,,,,,,,,5,,,,69,64
439980,note_off,480,0,4,,,,,,,,3,,,,77,64
439980,note_off,480,0,7,,,,,,,,6,,,,53,64
439980,note_on,0,0,7,,,,,,,,6,,,,55,72
439980,note_on,0,0,6,,,,,,,,5,,,,67,70
440460,note_off,480,0,7,,,,,,,,6,,,,55,64
440460,note_on,0,0,7,,,,,,,,6,,,,52,70
440940,note_off,480,0,7,,,,,,,,6,,,,52,64
440940,note_on,0,0,7,,,,,,,,6,,,,53,68
441420,note_on,0,0,7,,,,,,,,6,,,,55,66
441420,note_on,0,0,5,,,,,,,,4,,,,71,67
441420,note_off,1440,0,5,,,,,,,,4,,,,72,64
441420,note_off,480,0,7,,,,,,,,6,,,,53,64
441420,note_off,1440,0,4,,,,,,,,3,,,,76,64
441420,note_on,0,0,4,,,,,,,,3,,,,74,67
441900,note_on,0,0,7,,,,,,,,6,,,,53,64
441900,note_off,480,0,7,,,,,,,,6,,,,55,64
442260,note_off,2280,0,6,,,,,,,,5,,,,67,64
442260,note_off,840,0,4,,,,,,,,3,,,,74,64
442260,note_off,840,0,5,,,,,,,,4,,,,71,64
442300,note_off,400,0,7,,,,,,,,6,,,,53,64
442380,note_on,80,0,7,,,,,,,,6,,,,50,62
442380,note_on,120,0,4,,,,,,,,3,,,,67,63
442860,note_off,480,0,4,,,,,,,,3,,,,67,64
442860,note_on,0,0,4,,,,,,,,3,,,,72,60
442860,note_on,600,0,5,,,,,,,,4,,,,67,60
442860,note_on,600,0,6,,,,,,,,5,,,,64,60
442860,note_off,480,0,7,,,,,,,,6,,,,50,64
442860,note_on,0,0,7,,,,,,,,6,,,,48,60
443340,note_off,480,0,7,,,,,,,,6,,,,48,64
443340,note_on,0,0,7,,,,,,,,6,,,,52,60
443820,note_off,480,0,7,,,,,,,,6,,,,52,64
443820,note_on,0,0,7,,,,,,,,6,,,,53,60
444300,note_off,480,0,7,,,,,,,,6,,,,53,64
444300,note_on,0,0,4,,,,,,,,3,,,,71,60
444300,note_off,1440,0,4,,,,,,,,3,,,,72,64
444300,note_on,0,0,6,,,,,,,,5,,,,62,60
444300,note_off,1440,0,6,,,,,,,,5,,,,64,64
444300,note_on,0,0,7,,,,,,,,6,,,,55,60
444780,note_off,480,0,7,,,,,,,,6,,,,55,64
444780,note_on,0,0,7,,,,,,,,6,,,,53,61
445260,note_on,0,0,6,,,,,,,,5,,,,64,63
445260,note_off,960,0,6,,,,,,,,5,,,,62,64
445260,note_on,0,0,5,,,,,,,,4,,,,69,60
445260,note_on,0,0,7,,,,,,,,6,,,,52,62
445260,note_off,960,0,4,,,,,,,,3,,,,71,64
445260,note_on,0,0,4,,,,,,,,3,,,,73,63
445260,note_off,480,0,7,,,,,,,,6,,,,53,64
445260,note_off,2400,0,5,,,,,,,,4,,,,67,64
445740,note_off,480,0,7,,,,,,,,6,,,,52,64
445740,note_on,0,0,7,,,,,,,,6,,,,50,63
445740,note_off,480,0,6,,,,,,,,5,,,,64,64
445740,note_on,0,0,6,,,,,,,,5,,,,65,64
445740,note_on,0,0,4,,,,,,,,3,,,,74,64
445740,note_off,480,0,4,,,,,,,,3,,,,73,64
446220,note_off,480,0,7,,,,,,,,6,,,,50,64
446220,note_on,0,0,7,,,,,,,,6,,,,53,65
446700,note_off,480,0,7,,,,,,,,6,,,,53,64
446700,note_on,0,0,7,,,,,,,,6,,,,55,67
447180,note_off,1440,0,4,,,,,,,,3,,,,74,64
447180,note_on,0,0,6,,,,,,,,5,,,,64,69
447180,note_off,1440,0,6,,,,,,,,5,,,,65,64
447180,note_on,0,0,4,,,,,,,,3,,,,73,69
447180,note_on,0,0,5,,,,,,,,4,,,,69,68
447180,note_off,1920,0,5,,,,,,,,4,,,,69,64
447180,note_on,0,0,7,,,,,,,,6,,,,57,69
447180,note_off,480,0,7,,,,,,,,6,,,,55,64
447660,note_off,480,0,7,,,,,,,,6,,,,57,64
447660,note_on,0,0,7,,,,,,,,6,,,,59,71
448020,note_off,840,0,4,,,,,,,,3,,,,73,64
448020,note_off,840,0,5,,,,,,,,4,,,,69,64
448020,note_off,840,0,6,,,,,,,,5,,,,64,64
448060,note_off,400,0,7,,,,,,,,6,,,,59,64
448140,note_on,80,0,7,,,,,,,,6,,,,61,73
448140,note_on,23160,0,2,,,,,,,,1,,,,57,60
448140,note_on,120,0,4,,,,,,,,3,,,,69,73
448620,note_off,480,0,7,,,,,,,,6,,,,61,64
448620,note_on,0,0,7,,,,,,,,6,,,,50,75
448620,note_on,600,0,6,,,,,,,,5,,,,69,75
448620,note_off,480,0,4,,,,,,,,3,,,,69,64
448620,note_off,480,0,2,,,,,,,,1,,,,57,64
448620,note_on,0,0,2,,,,,,,,1,,,,65,75
448620,note_on,0,0,4,,,,,,,,3,,,,77,75
448620,note_on,600,0,5,,,,,,,,4,,,,74,75
449100,note_off,480,0,7,,,,,,,,6,,,,50,64
449100,note_on,0,0,7,,,,,,,,6,,,,62,75
449580,note_off,480,0,7,,,,,,,,6,,,,62,64
449580,note_on,0,0,7,,,,,,,,6,,,,60,75
449940,note_off,1320,0,6,,,,,,,,5,,,,69,64
450060,note_on,120,0,6,,,,,,,,5,,,,71,75
450060,note_on,0,0,7,,,,,,,,6,,,,59,75
450060,note_off,480,0,7,,,,,,,,6,,,,60,64
450540,note_off,480,0,7,,,,,,,,6,,,,59,64
450540,note_on,0,0,7,,,,,,,,6,,,,47,75
450900,note_off,840,0,6,,,,,,,,5,,,,71,64
451020,note_off,480,0,7,,,,,,,,6,,,,47,64
451020,note_on,0,0,7,,,,,,,,6,,,,45,75
451020,note_on,0,0,4,,,,,,,,3,,,,78,75
451020,note_off,2400,0,4,,,,,,,,3,,,,77,64
451020,note_off,2400,0,2,,,,,,,,1,,,,65,64
451020,note_on,0,0,2,,,,,,,,1,,,,66,75
451020,note_on,120,0,6,,,,,,,,5,,,,72,75
451420,note_off,400,0,6,,,,,,,,5,,,,72,64
451500,note_off,480,0,7,,,,,,,,6,,,,45,64
451500,note_on,0,0,7,,,,,,,,6,,,,43,75
451500,note_on,0,0,2,,,,,,,,1,,,,67,75
451500,note_off,480,0,4,,,,,,,,3,,,,78,64
451500,note_on,0,0,4,,,,,,,,3,,,,79,75
451500,note_off,480,0,2,,,,,,,,1,,,,66,64
451500,note_on,80,0,6,,,,,,,,5,,,,71,75
451900,note_off,400,0,6,,,,,,,,5,,,,71,64
451980,note_off,480,0,7,,,,,,,,6,,,,43,64
451980,note_on,0,0,7,,,,,,,,6,,,,45,75
451980,note_on,80,0,6,,,,,,,,5,,,,72,75
452380,note_off,400,0,6,,,,,,,,5,,,,72,64
452460,note_off,480,0,7,,,,,,,,6,,,,45,64
452460,note_on,80,0,6,,,,,,,,5,,,,74,75
452460,note_on,0,0,7,,,,,,,,6,,,,47,75
452820,note_off,4200,0,5,,,,,,,,4,,,,74,64
452860,note_off,400,0,6,,,,,,,,5,,,,74,64
452940,note_on,80,0,6,,,,,,,,5,,,,67,75
452940,note_on,0,0,4,,,,,,,,3,,,,76,75
452940,note_off,1440,0,4,,,,,,,,3,,,,79,64
452940,note_on,0,0,2,,,,,,,,1,,,,64,75
452940,note_off,1440,0,2,,,,,,,,1,,,,67,64
452940,note_on,120,0,5,,,,,,,,4,,,,72,75
452940,note_off,480,0,7,,,,,,,,6,,,,47,64
452940,note_on,0,0,7,,,,,,,,6,,,,48,75
453420,note_on,0,0,7,,,,,,,,6,,,,50,75
453420,note_off,480,0,7,,,,,,,,6,,,,48,64
453780,note_off,840,0,4,,,,,,,,3,,,,76,64
453780,note_off,840,0,5,,,,,,,,4,,,,72,64
453780,note_off,840,0,2,,,,,,,,1,,,,64,64
453820,note_off,400,0,7,,,,,,,,6,,,,50,64
453900,note_on,120,0,5,,,,,,,,4,,,,72,75
453900,note_on,120,0,4,,,,,,,,3,,,,72,75
453900,note_on,80,0,7,,,,,,,,6,,,,52,75
454260,note_off,1320,0,6,,,,,,,,5,,,,67,64
454380,note_off,480,0,7,,,,,,,,6,,,,52,64
454380,note_on,0,0,7,,,,,,,,6,,,,50,72
454380,note_off,480,0,4,,,,,,,,3,,,,72,64
454380,note_on,120,0,6,,,,,,,,5,,,,66,75
454380,note_on,0,0,4,,,,,,,,3,,,,74,72
454380,note_off,480,0,5,,,,,,,,4,,,,72,64
454380,note_on,0,0,5,,,,,,,,4,,,,72,72
454860,note_on,0,0,7,,,,,,,,6,,,,52,69
454860,note_on,0,0,6,,,,,,,,5,,,,67,72
454860,note_off,480,0,6,,,,,,,,5,,,,66,64
454860,note_off,480,0,7,,,,,,,,6,,,,50,64
455340,note_on,0,0,7,,,,,,,,6,,,,54,66
455340,note_off,480,0,7,,,,,,,,6,,,,52,64
455340,note_on,0,0,6,,,,,,,,5,,,,69,69
455340,note_off,480,0,6,,,,,,,,5,,,,67,64
455820,note_on,0,0,5,,,,,,,,4,,,,68,62
455820,note_on,0,0,6,,,,,,,,5,,,,62,65
455820,note_off,480,0,7,,,,,,,,6,,,,54,64
455820,note_off,480,0,6,,,,,,,,5,,,,69,64
455820,note_on,0,0,4,,,,,,,,3,,,,71,61
455820,note_off,1440,0,4,,,,,,,,3,,,,74,64
455820,note_off,1440,0,5,,,,,,,,4,,,,72,64
455820,note_on,0,0,7,,,,,,,,6,,,,53,63
456300,note_off,480,0,6,,,,,,,,5,,,,62,64
456300,note_on,0,0,7,,,,,,,,6,,,,52,60
456300,note_on,0,0,6,,,,,,,,5,,,,64,61
456300,note_off,480,0,7,,,,,,,,6,,,,53,64
456780,note_off,480,0,7,,,,,,,,6,,,,52,64
456780,note_on,0,0,7,,,,,,,,6,,,,50,57
456780,note_on,0,0,6,,,,,,,,5,,,,65,57
456780,note_off,480,0,6,,,,,,,,5,,,,64,64
457260,note_off,480,0,7,,,,,,,,6,,,,50,64
457260,note_on,0,0,7,,,,,,,,6,,,,48,53
457260,note_on,0,0,6,,,,,,,,5,,,,64,53
457260,note_off,480,0,6,,,,,,,,5,,,,65,64
457260,note_on,0,0,5,,,,,,,,4,,,,69,52
457260,note_off,1440,0,4,,,,,,,,3,,,,71,64
457260,note_on,0,0,4,,,,,,,,3,,,,74,49
457260,note_off,1440,0,5,,,,,,,,4,,,,68,64
457740,note_on,0,0,4,,,,,,,,3,,,,72,45
457740,note_off,480,0,4,,,,,,,,3,,,,74,64
457740,note_on,0,0,7,,,,,,,,6,,,,45,49
457740,note_off,480,0,7,,,,,,,,6,,,,48,64
457860,note_off,120,0,4,,,,,,,,3,,,,72,64
458100,note_off,840,0,5,,,,,,,,4,,,,69,64
458100,note_off,840,0,6,,,,,,,,5,,,,64,64
458140,note_off,400,0,7,,,,,,,,6,,,,45,64
458220,note_on,80,0,7,,,,,,,,6,,,,50,45
458220,note_on,120,0,5,,,,,,,,4,,,,66,45
458220,note_on,360,0,4,,,,,,,,3,,,,69,45
458220,note_on,120,0,6,,,,,,,,5,,,,60,45
458340,note_off,120,0,4,,,,,,,,3,,,,69,64
458340,note_off,120,0,7,,,,,,,,6,,,,50,64
458340,note_off,120,0,5,,,,,,,,4,,,,66,64
458340,note_off,120,0,6,,,,,,,,5,,,,60,64
458700,note_on,360,0,4,,,,,,,,3,,,,67,45
458700,note_on,360,0,6,,,,,,,,5,,,,59,45
458700,note_on,360,0,5,,,,,,,,4,,,,67,45
458700,note_on,360,0,7,,,,,,,,6,,,,43,45
458820,note_off,120,0,5,,,,,,,,4,,,,67,64
458820,note_off,120,0,7,,,,,,,,6,,,,43,64
458820,note_off,120,0,4,,,,,,,,3,,,,67,64
458820,note_off,120,0,6,,,,,,,,5,,,,59,64
459180,note_on,360,0,7,,,,,,,,6,,,,55,45
459300,note_off,120,0,7,,,,,,,,6,,,,55,64
459660,note_on,840,0,4,,,,,,,,3,,,,67,60
460140,note_on,0,0,4,,,,,,,,3,,,,71,60
460140,note_on,840,0,7,,,,,,,,6,,,,55,60
460140,note_on,6360,0,2,,,,,,,,1,,,,67,60
460140,note_on,61040,0,1,,,,,,,,0,,,,74,60
460140,note_off,480,0,4,,,,,,,,3,,,,67,64
460620,note_on,0,0,7,,,,,,,,6,,,,67,60
460620,note_off,480,0,7,,,,,,,,6,,,,55,64
461100,note_on,0,0,7,,,,,,,,6,,,,65,60
461100,note_off,480,0,7,,,,,,,,6,,,,67,64
461580,note_on,0,0,1,,,,,,,,0,,,,75,60
461580,note_off,1440,0,1,,,,,,,,0,,,,74,64
461580,note_on,0,0,7,,,,,,,,6,,,,63,60
461580,note_off,480,0,7,,,,,,,,6,,,,65,64
461580,note_on,0,0,4,,,,,,,,3,,,,72,60
461580,note_off,1440,0,4,,,,,,,,3,,,,71,64
462060,note_on,0,0,7,,,,,,,,6,,,,62,60
462060,note_off,480,0,7,,,,,,,,6,,,,63,64
462540,note_off,480,0,7,,,,,,,,6,,,,62,64
462540,note_on,0,0,7,,,,,,,,6,,,,60,60
463020,note_on,0,0,7,,,,,,,,6,,,,59,60
463020,note_on,0,0,4,,,,,,,,3,,,,75,60
463020,note_off,1440,0,4,,,,,,,,3,,,,72,64
463020,note_off,1440,0,1,,,,,,,,0,,,,75,64
463020,note_on,0,0,1,,,,,,,,0,,,,79,60
463020,note_off,480,0,7,,,,,,,,6,,,,60,64
463500,note_off,480,0,7,,,,,,,,6,,,,59,64
463500,note_on,0,0,7,,,,,,,,6,,,,55,60
463980,note_off,960,0,4,,,,,,,,3,,,,75,64
463980,note_on,0,0,4,,,,,,,,3,,,,74,60
463980,note_off,480,0,7,,,,,,,,6,,,,55,64
463980,note_on,0,0,7,,,,,,,,6,,,,59,60
463980,note_off,960,0,1,,,,,,,,0,,,,79,64
463980,note_on,0,0,1,,,,,,,,0,,,,77,60
464460,note_off,480,0,7,,,,,,,,6,,,,59,64
464460,note_off,480,0,4,,,,,,,,3,,,,74,64
464460,note_off,480,0,1,,,,,,,,0,,,,77,64
464460,note_on,0,0,1,,,,,,,,0,,,,75,60
464460,note_on,0,0,7,,,,,,,,6,,,,60,60
464460,note_on,0,0,4,,,,,,,,3,,,,72,60
464940,note_off,480,0,7,,,,,,,,6,,,,60,64
464940,note_on,0,0,7,,,,,,,,6,,,,48,60
465300,note_off,5160,0,2,,,,,,,,1,,,,67,64
465300,note_off,840,0,1,,,,,,,,0,,,,75,64
465300,note_off,840,0,4,,,,,,,,3,,,,72,64
465340,note_off,400,0,7,,,,,,,,6,,,,48,64
465420,note_on,6600,0,6,,,,,,,,5,,,,63,60
465420,note_on,120,0,4,,,,,,,,3,,,,75,60
465420,note_on,6600,0,5,,,,,,,,4,,,,75,60
465420,note_on,80,0,7,,,,,,,,6,,,,46,60
465420,note_on,120,0,1,,,,,,,,0,,,,75,60
465900,note_on,0,0,6,,,,,,,,5,,,,65,60
465900,note_off,480,0,6,,,,,,,,5,,,,63,64
465900,note_off,480,0,4,,,,,,,,3,,,,75,64
465900,note_on,0,0,5,,,,,,,,4,,,,75,60
465900,note_off,480,0,5,,,,,,,,4,,,,75,64
465900,note_on,0,0,4,,,,,,,,3,,,,77,60
465900,note_on,0,0,7,,,,,,,,6,,,,44,60
465900,note_off,480,0,7,,,,,,,,6,,,,46,64
466380,note_off,480,0,7,,,,,,,,6,,,,44,64
466380,note_on,0,0,7,,,,,,,,6,,,,56,60
466860,note_on,0,0,7,,,,,,,,6,,,,44,60
466860,note_off,480,0,7,,,,,,,,6,,,,56,64
467340,note_off,480,0,7,,,,,,,,6,,,,44,64
467340,note_off,1440,0,6,,,,,,,,5,,,,65,64
467340,note_on,0,0,6,,,,,,,,5,,,,67,60
467340,note_on,0,0,4,,,,,,,,3,,,,79,60
467340,note_off,1440,0,4,,,,,,,,3,,,,77,64
467340,note_on,0,0,7,,,,,,,,6,,,,46,60
467820,note_on,0,0,7,,,,,,,,6,,,,58,60
467820,note_off,480,0,7,,,,,,,,6,,,,46,64
468300,note_on,0,0,7,,,,,,,,6,,,,46,60
468300,note_off,480,0,7,,,,,,,,6,,,,58,64
468780,note_off,1440,0,6,,,,,,,,5,,,,67,64
468780,note_on,0,0,6,,,,,,,,5,,,,70,60
468780,note_on,0,0,7,,,,,,,,6,,,,48,60
468780,note_off,480,0,7,,,,,,,,6,,,,46,64
468780,note_off,1440,0,4,,,,,,,,3,,,,79,64
468780,note_on,0,0,4,,,,,,,,3,,,,82,60
469260,note_on,0,0,7,,,,,,,,6,,,,60,60
469260,note_off,480,0,7,,,,,,,,6,,,,48,64
469620,note_off,4200,0,1,,,,,,,,0,,,,75,64
469740,note_off,960,0,6,,,,,,,,5,,,,70,64
469740,note_on,0,0,6,,,,,,,,5,,,,68,60
469740,note_off,3840,0,5,,,,,,,,4,,,,75,64
469740,note_on,120,0,1,,,,,,,,0,,,,77,60
469740,note_on,0,0,4,,,,,,,,3,,,,80,60
469740,note_off,960,0,4,,,,,,,,3,,,,82,64
469740,note_off,480,0,7,,,,,,,,6,,,,60,64
469740,note_on,0,0,7,,,,,,,,6,,,,62,60
469740,note_on,0,0,5,,,,,,,,4,,,,77,60
470220,note_on,0,0,4,,,,,,,,3,,,,79,60
470220,note_off,480,0,4,,,,,,,,3,,,,80,64
470220,note_off,480,0,7,,,,,,,,6,,,,62,64
470220,note_on,0,0,7,,,,,,,,6,,,,63,60
470220,note_off,480,0,1,,,,,,,,0,,,,77,64
470220,note_on,0,0,5,,,,,,,,4,,,,75,60
470220,note_on,0,0,1,,,,,,,,0,,,,75,60
470220,note_off,480,0,5,,,,,,,,4,,,,77,64
470220,note_off,480,0,6,,,,,,,,5,,,,68,64
470220,note_on,0,0,6,,,,,,,,5,,,,67,60
470700,note_off,480,0,7,,,,,,,,6,,,,63,64
470700,note_on,0,0,7,,,,,,,,6,,,,62,60
471060,note_off,840,0,5,,,,,,,,4,,,,75,64
471060,note_off,840,0,6,,,,,,,,5,,,,67,64
471060,note_off,840,0,4,,,,,,,,3,,,,79,64
471100,note_off,400,0,7,,,,,,,,6,,,,62,64
471180,note_on,80,0,7,,,,,,,,6,,,,61,60
471180,note_on,120,0,6,,,,,,,,5,,,,67,60
471180,note_on,120,0,4,,,,,,,,3,,,,79,60
471660,note_on,0,0,7,,,,,,,,6,,,,60,60
471660,note_on,0,0,4,,,,,,,,3,,,,80,60
471660,note_off,480,0,6,,,,,,,,5,,,,67,64
471660,note_off,480,0,7,,,,,,,,6,,,,61,64
471660,note_off,480,0,4,,,,,,,,3,,,,79,64
471660,note_on,0,0,6,,,,,,,,5,,,,68,60
472140,note_on,0,0,7,,,,,,,,6,,,,63,60
472140,note_off,480,0,7,,,,,,,,6,,,,60,64
472620,note_on,0,0,7,,,,,,,,6,,,,60,60
472620,note_off,480,0,7,,,,,,,,6,,,,63,64
473100,note_on,0,0,4,,,,,,,,3,,,,79,60
473100,note_on,0,0,6,,,,,,,,5,,,,70,60
473100,note_on,0,0,7,,,,,,,,6,,,,58,60
473100,note_off,480,0,7,,,,,,,,6,,,,60,64
473100,note_off,1440,0,4,,,,,,,,3,,,,80,64
473100,note_off,1440,0,6,,,,,,,,5,,,,68,64
473580,note_on,0,0,7,,,,,,,,6,,,,63,60
473580,note_off,480,0,7,,,,,,,,6,,,,58,64
474060,note_on,0,0,7,,,,,,,,6,,,,58,60
474060,note_on,0,0,4,,,,,,,,3,,,,80,60
474060,note_off,960,0,4,,,,,,,,3,,,,79,64
474060,note_off,480,0,7,,,,,,,,6,,,,63,64
474420,note_off,4200,0,1,,,,,,,,0,,,,75,64
474540,note_off,1440,0,6,,,,,,,,5,,,,70,64
474540,note_on,0,0,6,,,,,,,,5,,,,71,60
474540,note_on,120,0,1,,,,,,,,0,,,,74,60
474540,note_on,0,0,4,,,,,,,,3,,,,79,60
474540,note_off,480,0,4,,,,,,,,3,,,,80,64
474540,note_off,480,0,7,,,,,,,,6,,,,58,64
474540,note_on,0,0,7,,,,,,,,6,,,,56,60
475020,note_off,480,0,7,,,,,,,,6,,,,56,64
475020,note_on,0,0,7,,,,,,,,6,,,,59,60
475500,note_off,480,0,7,,,,,,,,6,,,,59,64
475500,note_on,0,0,4,,,,,,,,3,,,,77,60
475500,note_off,960,0,4,,,,,,,,3,,,,79,64
475500,note_on,0,0,7,,,,,,,,6,,,,56,60
475980,note_off,1440,0,1,,,,,,,,0,,,,74,64
475980,note_off,480,0,7,,,,,,,,6,,,,56,64
475980,note_off,1440,0,6,,,,,,,,5,,,,71,64
475980,note_on,0,0,6,,,,,,,,5,,,,70,60
475980,note_on,0,0,7,,,,,,,,6,,,,55,60
475980,note_off,480,0,4,,,,,,,,3,,,,77,64
475980,note_on,0,0,1,,,,,,,,0,,,,75,60
475980,note_on,0,0,4,,,,,,,,3,,,,75,60
476460,note_on,0,0,7,,,,,,,,6,,,,58,60
476460,note_off,480,0,7,,,,,,,,6,,,,55,64
476820,note_off,840,0,4,,,,,,,,3,,,,75,64
476860,note_off,400,0,7,,,,,,,,6,,,,58,64
476940,note_on,0,0,1,,,,,,,,0,,,,75,60
476940,note_off,960,0,1,,,,,,,,0,,,,75,64
476940,note_on,80,0,7,,,,,,,,6,,,,55,60
476940,note_on,120,0,4,,,,,,,,3,,,,70,60
477300,note_off,1320,0,6,,,,,,,,5,,,,70,64
477420,note_on,0,0,7,,,,,,,,6,,,,56,60
477420,note_on,0,0,4,,,,,,,,3,,,,72,60
477420,note_off,480,0,4,,,,,,,,3,,,,70,64
477420,note_on,120,0,6,,,,,,,,5,,,,68,60
477420,note_on,0,0,1,,,,,,,,0,,,,77,60
477420,note_off,480,0,1,,,,,,,,0,,,,75,64
477420,note_off,480,0,7,,,,,,,,6,,,,55,64
477900,note_on,0,0,7,,,,,,,,6,,,,55,59
477900,note_off,480,0,7,,,,,,,,6,,,,56,64
478380,note_on,0,0,7,,,,,,,,6,,,,53,58
478380,note_off,480,0,7,,,,,,,,6,,,,55,64
478860,note_off,1440,0,1,,,,,,,,0,,,,77,64
478860,note_on,0,0,4,,,,,,,,3,,,,74,56
478860,note_on,0,0,7,,,,,,,,6,,,,58,57
478860,note_off,480,0,7,,,,,,,,6,,,,53,64
478860,note_on,0,0,1,,,,,,,,0,,,,79,55
478860,note_off,1440,0,4,,,,,,,,3,,,,72,64
478860,note_off,1440,0,6,,,,,,,,5,,,,68,64
478860,note_on,0,0,6,,,,,,,,5,,,,70,57
479340,note_off,480,0,7,,,,,,,,6,,,,58,64
479340,note_on,0,0,7,,,,,,,,6,,,,57,56
479820,note_off,480,0,7,,,,,,,,6,,,,57,64
479820,note_on,0,0,7,,,,,,,,6,,,,58,55
480300,note_off,1440,0,6,,,,,,,,5,,,,70,64
480300,note_off,1440,0,1,,,,,,,,0,,,,79,64
480300,note_on,0,0,6,,,,,,,,5,,,,67,53
480300,note_on,0,0,7,,,,,,,,6,,,,51,54
480300,note_off,1440,0,4,,,,,,,,3,,,,74,64
480300,note_on,0,0,4,,,,,,,,3,,,,70,52
480300,note_off,480,0,7,,,,,,,,6,,,,58,64
480300,note_on,0,0,1,,,,,,,,0,,,,75,50
480780,note_off,480,0,7,,,,,,,,6,,,,51,64
480780,note_on,0,0,7,,,,,,,,6,,,,63,53
481260,note_off,480,0,7,,,,,,,,6,,,,63,64
481260,note_on,0,0,7,,,,,,,,6,,,,65,51
481740,note_off,480,0,7,,,,,,,,6,,,,65,64
481740,note_on,0,0,7,,,,,,,,6,,,,67,49
482220,note_on,0,0,7,,,,,,,,6,,,,65,47
482220,note_off,480,0,7,,,,,,,,6,,,,67,64
482455,note_off,2155,0,1,,,,,,,,0,,,,75,64
482455,note_off,2155,0,4,,,,,,,,3,,,,70,64
482455,note_off,2155,0,6,,,,,,,,5,,,,67,64
482620,note_off,400,0,7,,,,,,,,6,,,,65,64
482700,note_on,245,0,4,,,,,,,,3,,,,79,45
482700,note_on,80,0,7,,,,,,,,6,,,,63,45
483180,note_on,0,0,4,,,,,,,,3,,,,79,45
483180,note_on,0,0,7,,,,,,,,6,,,,62,45
483180,note_off,480,0,4,,,,,,,,3,,,,79,64
483180,note_off,480,0,7,,,,,,,,6,,,,63,64
483180,note_on,12120,0,5,,,,,,,,4,,,,77,45
483180,note_on,725,0,6,,,,,,,,5,,,,71,45
483660,note_on,0,0,7,,,,,,,,6,,,,67,45
483660,note_off,480,0,7,,,,,,,,6,,,,62,64
484140,note_on,0,0,7,,,,,,,,6,,,,62,45
484140,note_off,480,0,7,,,,,,,,6,,,,67,64
484620,note_on,0,0,7,,,,,,,,6,,,,60,45
484620,note_off,480,0,7,,,,,,,,6,,,,62,64
484620,note_on,0,0,6,,,,,,,,5,,,,72,45
484620,note_off,1440,0,6,,,,,,,,5,,,,71,64
485100,note_on,0,0,7,,,,,,,,6,,,,67,45
485100,note_off,480,0,7,,,,,,,,6,,,,60,64
485580,note_on,0,0,7,,,,,,,,6,,,,60,45
485580,note_off,480,0,7,,,,,,,,6,,,,67,64
486060,note_on,0,0,7,,,,,,,,6,,,,59,45
486060,note_off,480,0,7,,,,,,,,6,,,,60,64
486060,note_off,1440,0,6,,,,,,,,5,,,,72,64
486060,note_on,0,0,6,,,,,,,,5,,,,73,45
486540,note_off,480,0,7,,,,,,,,6,,,,59,64
486540,note_on,0,0,7,,,,,,,,6,,,,67,45
487020,note_on,0,0,7,,,,,,,,6,,,,59,45
487020,note_off,480,0,7,,,,,,,,6,,,,67,64
487500,note_off,480,0,7,,,,,,,,6,,,,59,64
487500,note_on,0,0,7,,,,,,,,6,,,,59,45
487500,note_on,0,0,6,,,,,,,,5,,,,74,45
487500,note_off,1440,0,6,,,,,,,,5,,,,73,64
487980,note_on,0,0,7,,,,,,,,6,,,,67,45
487980,note_off,480,0,7,,,,,,,,6,,,,59,64
488215,note_off,715,0,6,,,,,,,,5,,,,74,64
488215,note_off,5035,0,4,,,,,,,,3,,,,79,64
488215,note_off,5035,0,5,,,,,,,,4,,,,77,64
488380,note_off,400,0,7,,,,,,,,6,,,,67,64
488460,note_on,6005,0,1,,,,,,,,0,,,,67,45
488940,note_on,0,0,1,,,,,,,,0,,,,67,45
488940,note_off,480,0,1,,,,,,,,0,,,,67,64
488940,note_on,560,0,7,,,,,,,,6,,,,50,45
488940,note_on,23640,0,2,,,,,,,,1,,,,59,45
488940,note_on,89840,0,3,,,,,,,,2,,,,65,60
489420,note_on,0,0,7,,,,,,,,6,,,,55,45
489420,note_off,480,0,7,,,,,,,,6,,,,50,64
489900,note_on,0,0,7,,,,,,,,6,,,,50,45
489900,note_off,480,0,7,,,,,,,,6,,,,55,64
490380,note_off,1440,0,2,,,,,,,,1,,,,59,64
490380,note_off,480,0,7,,,,,,,,6,,,,50,64
490380,note_on,0,0,2,,,,,,,,1,,,,60,45
490380,note_on,0,0,7,,,,,,,,6,,,,48,45
490860,note_on,0,0,7,,,,,,,,6,,,,55,45
490860,note_off,480,0,7,,,,,,,,6,,,,48,64
491340,note_off,480,0,7,,,,,,,,6,,,,55,64
491340,note_on,0,0,7,,,,,,,,6,,,,48,45
491820,note_on,0,0,2,,,,,,,,1,,,,62,45
491820,note_off,2880,0,1,,,,,,,,0,,,,67,64
491820,note_on,0,0,1,,,,,,,,0,,,,68,45
491820,note_off,1440,0,2,,,,,,,,1,,,,60,64
491820,note_off,480,0,7,,,,,,,,6,,,,48,64
491820,note_on,0,0,7,,,,,,,,6,,,,47,45
492300,note_on,0,0,7,,,,,,,,6,,,,50,45
492300,note_off,480,0,7,,,,,,,,6,,,,47,64
492780,note_on,0,0,7,,,,,,,,6,,,,54,45
492780,note_off,480,0,7,,,,,,,,6,,,,50,64
493260,note_off,1440,0,1,,,,,,,,0,,,,68,64
493260,note_off,480,0,7,,,,,,,,6,,,,54,64
493260,note_on,0,0,7,,,,,,,,6,,,,55,45
493260,note_on,0,0,1,,,,,,,,0,,,,67,45
493740,note_off,480,0,7,,,,,,,,6,,,,55,64
493740,note_on,0,0,7,,,,,,,,6,,,,53,45
493975,note_off,715,0,1,,,,,,,,0,,,,67,64
493975,note_off,2155,0,2,,,,,,,,1,,,,62,64
493975,note_off,5035,0,3,,,,,,,,2,,,,65,64
494140,note_off,400,0,7,,,,,,,,6,,,,53,64
494220,note_on,80,0,7,,,,,,,,6,,,,50,45
494220,note_on,6005,0,4,,,,,,,,3,,,,67,45
494700,note_on,6485,0,5,,,,,,,,4,,,,67,45
494700,note_on,0,0,4,,,,,,,,3,,,,72,45
494700,note_off,480,0,4,,,,,,,,3,,,,67,64
494700,note_on,6485,0,6,,,,,,,,5,,,,64,45
494700,note_on,0,0,7,,,,,,,,6,,,,48,45
494700,note_off,480,0,7,,,,,,,,6,,,,50,64
495180,note_off,480,0,7,,,,,,,,6,,,,48,64
495180,note_on,0,0,7,,,,,,,,6,,,,52,45
495660,note_off,480,0,7,,,,,,,,6,,,,52,64
495660,note_on,0,0,7,,,,,,,,6,,,,53,45
496140,note_on,0,0,6,,,,,,,,5,,,,62,45
496140,note_on,0,0,7,,,,,,,,6,,,,55,45
496140,note_off,480,0,7,,,,,,,,6,,,,53,64
496140,note_off,1440,0,4,,,,,,,,3,,,,72,64
496140,note_off,1440,0,6,,,,,,,,5,,,,64,64
496140,note_on,0,0,4,,,,,,,,3,,,,71,45
496620,note_off,480,0,7,,,,,,,,6,,,,55,64
496620,note_on,0,0,7,,,,,,,,6,,,,53,45
497100,note_off,960,0,4,,,,,,,,3,,,,71,64
497100,note_off,2400,0,5,,,,,,,,4,,,,67,64
497100,note_on,0,0,5,,,,,,,,4,,,,69,45
497100,note_on,0,0,6,,,,,,,,5,,,,64,45
497100,note_on,0,0,4,,,,,,,,3,,,,73,45
497100,note_off,480,0,7,,,,,,,,6,,,,53,64
497100,note_off,960,0,6,,,,,,,,5,,,,62,64
497100,note_on,0,0,7,,,,,,,,6,,,,52,45
497580,note_on,0,0,4,,,,,,,,3,,,,74,45
497580,note_off,480,0,4,,,,,,,,3,,,,73,64
497580,note_on,0,0,7,,,,,,,,6,,,,50,45
497580,note_on,0,0,6,,,,,,,,5,,,,65,45
497580,note_off,480,0,7,,,,,,,,6,,,,52,64
497580,note_off,480,0,6,,,,,,,,5,,,,64,64
498060,note_off,480,0,7,,,,,,,,6,,,,50,64
498060,note_on,0,0,7,,,,,,,,6,,,,53,45
498540,note_off,480,0,7,,,,,,,,6,,,,53,64
498540,note_on,0,0,7,,,,,,,,6,,,,55,45
499020,note_on,0,0,5,,,,,,,,4,,,,69,45
499020,note_off,1440,0,4,,,,,,,,3,,,,74,64
499020,note_off,480,0,7,,,,,,,,6,,,,55,64
499020,note_off,1440,0,6,,,,,,,,5,,,,65,64
499020,note_on,0,0,6,,,,,,,,5,,,,64,45
499020,note_on,0,0,4,,,,,,,,3,,,,73,45
499020,note_off,1920,0,5,,,,,,,,4,,,,69,64
499020,note_on,0,0,7,,,,,,,,6,,,,57,45
499500,note_off,480,0,7,,,,,,,,6,,,,57,64
499500,note_on,0,0,7,,,,,,,,6,,,,56,45
499900,note_off,400,0,7,,,,,,,,6,,,,56,64
499980,note_on,6005,0,1,,,,,,,,0,,,,69,45
499980,note_on,80,0,7,,,,,,,,6,,,,55,45
500215,note_off,1195,0,4,,,,,,,,3,,,,73,64
500215,note_off,1195,0,6,,,,,,,,5,,,,64,64
500215,note_off,1195,0,5,,,,,,,,4,,,,69,64
500460,note_on,6485,0,2,,,,,,,,1,,,,69,45
500460,note_on,0,0,1,,,,,,,,0,,,,77,45
500460,note_off,480,0,1,,,,,,,,0,,,,69,64
500460,note_on,245,0,6,,,,,,,,5,,,,72,45
500460,note_on,0,0,7,,,,,,,,6,,,,53,45
500460,note_off,480,0,7,,,,,,,,6,,,,55,64
500940,note_on,0,0,7,,,,,,,,6,,,,57,47
500940,note_off,480,0,7,,,,,,,,6,,,,53,64
501420,note_off,480,0,7,,,,,,,,6,,,,57,64
501420,note_on,0,0,7,,,,,,,,6,,,,58,49
501900,note_off,480,0,7,,,,,,,,6,,,,58,64
501900,note_on,0,0,7,,,,,,,,6,,,,60,51
501900,note_on,0,0,1,,,,,,,,0,,,,76,52
501900,note_on,0,0,2,,,,,,,,1,,,,67,45
501900,note_off,1440,0,1,,,,,,,,0,,,,77,64
501900,note_off,1440,0,2,,,,,,,,1,,,,69,64
502380,note_on,0,0,7,,,,,,,,6,,,,58,53
502380,note_off,480,0,7,,,,,,,,6,,,,60,64
502860,note_off,960,0,2,,,,,,,,1,,,,67,64
502860,note_off,960,0,1,,,,,,,,0,,,,76,64
502860,note_off,480,0,7,,,,,,,,6,,,,58,64
502860,note_on,0,0,7,,,,,,,,6,,,,57,55
502860,note_on,0,0,1,,,,,,,,0,,,,78,57
502860,note_off,2400,0,6,,,,,,,,5,,,,72,64
502860,note_on,0,0,6,,,,,,,,5,,,,74,57
502860,note_on,0,0,2,,,,,,,,1,,,,69,51
503340,note_on,0,0,1,,,,,,,,0,,,,79,59
503340,note_off,480,0,1,,,,,,,,0,,,,78,64
503340,note_off,480,0,6,,,,,,,,5,,,,74,64
503340,note_off,480,0,2,,,,,,,,1,,,,69,64
503340,note_on,0,0,2,,,,,,,,1,,,,70,54
503340,note_off,480,0,7,,,,,,,,6,,,,57,64
503340,note_on,0,0,7,,,,,,,,6,,,,55,57
503340,note_on,0,0,6,,,,,,,,5,,,,74,59
503820,note_off,480,0,7,,,,,,,,6,,,,55,64
503820,note_on,0,0,7,,,,,,,,6,,,,58,60
504300,note_off,480,0,7,,,,,,,,6,,,,58,64
504300,note_on,0,0,7,,,,,,,,6,,,,60,63
504780,note_off,1440,0,2,,,,,,,,1,,,,70,64
504780,note_on,0,0,2,,,,,,,,1,,,,69,64
504780,note_off,480,0,7,,,,,,,,6,,,,60,64
504780,note_on,0,0,7,,,,,,,,6,,,,62,66
504780,note_off,1440,0,1,,,,,,,,0,,,,79,64
504780,note_on,0,0,1,,,,,,,,0,,,,78,67
505260,note_on,0,0,7,,,,,,,,6,,,,64,69
505260,note_off,480,0,7,,,,,,,,6,,,,62,64
505620,note_off,2280,0,6,,,,,,,,5,,,,74,64
505620,note_off,840,0,2,,,,,,,,1,,,,69,64
505620,note_off,840,0,1,,,,,,,,0,,,,78,64
505660,note_off,400,0,7,,,,,,,,6,,,,64,64
505740,note_on,120,0,1,,,,,,,,0,,,,74,72
505740,note_on,5525,0,4,,,,,,,,3,,,,74,45
505740,note_on,80,0,7,,,,,,,,6,,,,66,72
506220,note_off,480,0,4,,,,,,,,3,,,,74,64
506220,note_on,0,0,4,,,,,,,,3,,,,82,75
506220,note_on,6005,0,5,,,,,,,,4,,,,74,75
506220,note_on,0,0,7,,,,,,,,6,,,,55,75
506220,note_on,12245,0,3,,,,,,,,2,,,,70,75
506220,note_on,600,0,2,,,,,,,,1,,,,62,75
506220,note_on,107120,0,8,,,,,,,,7,,,,43,75
506220,note_on,600,0,6,,,,,,,,5,,,,67,75
506220,note_off,480,0,1,,,,,,,,0,,,,74,64
506220,note_off,480,0,7,,,,,,,,6,,,,66,64
506220,note_on,0,0,1,,,,,,,,0,,,,79,75
506700,note_on,0,0,8,,,,,,,,7,,,,55,75
506700,note_off,480,0,7,,,,,,,,6,,,,55,64
506700,note_on,0,0,7,,,,,,,,6,,,,67,75
506700,note_off,480,0,8,,,,,,,,7,,,,43,64
507180,note_on,0,0,8,,,,,,,,7,,,,53,75
507180,note_off,480,0,8,,,,,,,,7,,,,55,64
507180,note_off,480,0,7,,,,,,,,6,,,,67,64
507180,note_on,0,0,7,,,,,,,,6,,,,65,75
507660,note_on,0,0,5,,,,,,,,4,,,,76,75
507660,note_off,1440,0,5,,,,,,,,4,,,,74,64
507660,note_on,0,0,2,,,,,,,,1,,,,64,75
507660,note_off,1440,0,2,,,,,,,,1,,,,62,64
507660,note_off,480,0,7,,,,,,,,6,,,,65,64
507660,note_on,0,0,8,,,,,,,,7,,,,52,75
507660,note_off,480,0,8,,,,,,,,7,,,,53,64
507660,note_on,0,0,7,,,,,,,,6,,,,64,75
508140,note_on,0,0,7,,,,,,,,6,,,,52,75
508140,note_on,0,0,8,,,,,,,,7,,,,40,75
508140,note_off,480,0,8,,,,,,,,7,,,,52,64
508140,note_off,480,0,7,,,,,,,,6,,,,64,64
508500,note_off,2280,0,3,,,,,,,,2,,,,70,64
508620,note_on,0,0,2,,,,,,,,1,,,,65,75
508620,note_off,960,0,2,,,,,,,,1,,,,64,64
508620,note_off,2400,0,4,,,,,,,,3,,,,82,64
508620,note_on,0,0,5,,,,,,,,4,,,,77,75
508620,note_off,960,0,5,,,,,,,,4,,,,76,64
508620,note_on,0,0,7,,,,,,,,6,,,,50,75
508620,note_on,0,0,4,,,,,,,,3,,,,83,75
508620,note_on,0,0,8,,,,,,,,7,,,,38,75
508620,note_off,480,0,8,,,,,,,,7,,,,40,64
508620,note_on,120,0,3,,,,,,,,2,,,,71,75
508620,note_off,480,0,7,,,,,,,,6,,,,52,64
509020,note_off,400,0,3,,,,,,,,2,,,,71,64
509100,note_on,0,0,2,,,,,,,,1,,,,64,75
509100,note_off,480,0,2,,,,,,,,1,,,,65,64
509100,note_on,80,0,3,,,,,,,,2,,,,72,75
509100,note_off,480,0,7,,,,,,,,6,,,,50,64
509100,note_off,480,0,5,,,,,,,,4,,,,77,64
509100,note_off,480,0,8,,,,,,,,7,,,,38,64
509100,note_on,0,0,4,,,,,,,,3,,,,84,75
509100,note_off,480,0,4,,,,,,,,3,,,,83,64
509100,note_on,0,0,7,,,,,,,,6,,,,48,75
509100,note_on,0,0,5,,,,,,,,4,,,,76,75
509100,note_on,0,0,8,,,,,,,,7,,,,36,75
509580,note_off,480,0,5,,,,,,,,4,,,,76,64
509580,note_on,0,0,5,,,,,,,,4,,,,77,75
509580,note_on,0,0,8,,,,,,,,7,,,,38,75
509580,note_off,480,0,8,,,,,,,,7,,,,36,64
509580,note_on,0,0,7,,,,,,,,6,,,,50,75
509580,note_on,0,0,2,,,,,,,,1,,,,65,75
509580,note_off,480,0,2,,,,,,,,1,,,,64,64
509580,note_off,480,0,7,,,,,,,,6,,,,48,64
510060,note_off,480,0,5,,,,,,,,4,,,,77,64
510060,note_on,0,0,5,,,,,,,,4,,,,79,75
510060,note_off,480,0,8,,,,,,,,7,,,,38,64
510060,note_on,0,0,2,,,,,,,,1,,,,67,75
510060,note_on,0,0,8,,,,,,,,7,,,,40,75
510060,note_on,0,0,7,,,,,,,,6,,,,52,75
510060,note_off,480,0,7,,,,,,,,6,,,,50,64
510060,note_off,480,0,2,,,,,,,,1,,,,65,64
510420,note_off,1320,0,3,,,,,,,,2,,,,72,64
510540,note_on,0,0,7,,,,,,,,6,,,,53,75
510540,note_off,480,0,7,,,,,,,,6,,,,52,64
510540,note_off,480,0,5,,,,,,,,4,,,,79,64
510540,note_on,0,0,5,,,,,,,,4,,,,72,75
510540,note_off,1440,0,4,,,,,,,,3,,,,84,64
510540,note_on,0,0,4,,,,,,,,3,,,,81,75
510540,note_off,480,0,2,,,,,,,,1,,,,67,64
510540,note_on,0,0,2,,,,,,,,1,,,,60,75
510540,note_on,120,0,3,,,,,,,,2,,,,69,75
510540,note_on,0,0,1,,,,,,,,0,,,,77,75
510540,note_on,0,0,8,,,,,,,,7,,,,41,75
510540,note_off,480,0,8,,,,,,,,7,,,,40,64
510540,note_off,4320,0,6,,,,,,,,5,,,,67,64
510540,note_on,0,0,6,,,,,,,,5,,,,65,75
510540,note_off,4320,0,1,,,,,,,,0,,,,79,64
511020,note_on,0,0,8,,,,,,,,7,,,,43,73
511020,note_off,480,0,8,,,,,,,,7,,,,41,64
511020,note_off,480,0,7,,,,,,,,6,,,,53,64
511020,note_on,0,0,7,,,,,,,,6,,,,55,73
511380,note_off,840,0,4,,,,,,,,3,,,,81,64
511380,note_off,840,0,1,,,,,,,,0,,,,77,64
511380,note_off,840,0,6,,,,,,,,5,,,,65,64
511380,note_off,840,0,3,,,,,,,,2,,,,69,64
511420,note_off,400,0,8,,,,,,,,7,,,,43,64
511420,note_off,400,0,7,,,,,,,,6,,,,55,64
511500,note_on,120,0,3,,,,,,,,2,,,,65,70
511500,note_on,80,0,7,,,,,,,,6,,,,57,71
511500,note_on,80,0,8,,,,,,,,7,,,,45,71
511500,note_on,120,0,4,,,,,,,,3,,,,77,70
511860,note_off,1320,0,2,,,,,,,,1,,,,60,64
511860,note_off,1320,0,5,,,,,,,,4,,,,72,64
511980,note_on,0,0,7,,,,,,,,6,,,,43,69
511980,note_on,0,0,3,,,,,,,,2,,,,67,68
511980,note_off,480,0,3,,,,,,,,2,,,,65,64
511980,note_off,480,0,8,,,,,,,,7,,,,45,64
511980,note_off,480,0,4,,,,,,,,3,,,,77,64
511980,note_on,0,0,4,,,,,,,,3,,,,79,68
511980,note_off,480,0,7,,,,,,,,6,,,,57,64
511980,note_on,600,0,6,,,,,,,,5,,,,65,68
511980,note_on,120,0,5,,,,,,,,4,,,,71,68
511980,note_on,120,0,2,,,,,,,,1,,,,59,68
511980,note_on,0,0,8,,,,,,,,7,,,,43,69
511980,note_on,600,0,1,,,,,,,,0,,,,77,68
512460,note_on,0,0,2,,,,,,,,1,,,,60,66
512460,note_on,0,0,8,,,,,,,,7,,,,45,67
512460,note_off,480,0,2,,,,,,,,1,,,,59,64
512460,note_off,480,0,8,,,,,,,,7,,,,43,64
512460,note_off,480,0,7,,,,,,,,6,,,,43,64
512460,note_on,0,0,7,,,,,,,,6,,,,45,67
512460,note_on,0,0,5,,,,,,,,4,,,,72,66
512460,note_off,480,0,5,,,,,,,,4,,,,71,64
512940,note_on,0,0,2,,,,,,,,1,,,,62,64
512940,note_on,0,0,5,,,,,,,,4,,,,74,64
512940,note_off,480,0,5,,,,,,,,4,,,,72,64
512940,note_off,480,0,2,,,,,,,,1,,,,60,64
512940,note_off,480,0,8,,,,,,,,7,,,,45,64
512940,note_on,0,0,8,,,,,,,,7,,,,47,65
512940,note_off,480,0,7,,,,,,,,6,,,,45,64
512940,note_on,0,0,7,,,,,,,,6,,,,47,65
513420,note_off,480,0,8,,,,,,,,7,,,,47,64
513420,note_on,0,0,8,,,,,,,,7,,,,46,63
513420,note_on,0,0,7,,,,,,,,6,,,,46,63
513420,note_off,480,0,2,,,,,,,,1,,,,62,64
513420,note_on,0,0,2,,,,,,,,1,,,,55,62
513420,note_on,0,0,4,,,,,,,,3,,,,76,61
513420,note_on,0,0,3,,,,,,,,2,,,,64,61
513420,note_on,0,0,6,,,,,,,,5,,,,61,61
513420,note_on,0,0,1,,,,,,,,0,,,,73,61
513420,note_off,1440,0,1,,,,,,,,0,,,,77,64
513420,note_off,1440,0,4,,,,,,,,3,,,,79,64
513420,note_off,1440,0,3,,,,,,,,2,,,,67,64
513420,note_off,1440,0,6,,,,,,,,5,,,,65,64
513420,note_off,480,0,7,,,,,,,,6,,,,47,64
513420,note_on,0,0,5,,,,,,,,4,,,,67,62
513420,note_off,480,0,5,,,,,,,,4,,,,74,64
513900,note_off,480,0,2,,,,,,,,1,,,,55,64
513900,note_off,480,0,7,,,,,,,,6,,,,46,64
513900,note_on,0,0,7,,,,,,,,6,,,,45,60
513900,note_off,480,0,5,,,,,,,,4,,,,67,64
513900,note_off,480,0,8,,,,,,,,7,,,,46,64
513900,note_on,0,0,8,,,,,,,,7,,,,45,61
513900,note_on,0,0,5,,,,,,,,4,,,,69,60
513900,note_on,0,0,2,,,,,,,,1,,,,57,60
514380,note_on,0,0,7,,,,,,,,6,,,,43,57
514380,note_on,0,0,8,,,,,,,,7,,,,43,59
514380,note_on,0,0,2,,,,,,,,1,,,,58,57
514380,note_off,480,0,8,,,,,,,,7,,,,45,64
514380,note_off,480,0,7,,,,,,,,6,,,,45,64
514380,note_off,480,0,2,,,,,,,,1,,,,57,64
514380,note_off,480,0,5,,,,,,,,4,,,,69,64
514380,note_on,0,0,5,,,,,,,,4,,,,70,57
514860,note_off,1440,0,3,,,,,,,,2,,,,64,64
514860,note_on,0,0,4,,,,,,,,3,,,,79,53
514860,note_on,0,0,1,,,,,,,,0,,,,74,53
514860,note_off,1440,0,1,,,,,,,,0,,,,73,64
514860,note_on,0,0,7,,,,,,,,6,,,,41,54
514860,note_on,0,0,2,,,,,,,,1,,,,57,54
514860,note_off,480,0,2,,,,,,,,1,,,,58,64
514860,note_on,0,0,8,,,,,,,,7,,,,41,57
514860,note_off,480,0,7,,,,,,,,6,,,,43,64
514860,note_off,480,0,8,,,,,,,,7,,,,43,64
514860,note_off,1440,0,6,,,,,,,,5,,,,61,64
514860,note_off,480,0,5,,,,,,,,4,,,,70,64
514860,note_on,0,0,5,,,,,,,,4,,,,69,54
514860,note_on,0,0,3,,,,,,,,2,,,,67,53
514860,note_off,1440,0,4,,,,,,,,3,,,,76,64
514860,note_on,0,0,6,,,,,,,,5,,,,62,53
515340,note_on,0,0,8,,,,,,,,7,,,,38,54
515340,note_off,480,0,4,,,,,,,,3,,,,79,64
515340,note_on,0,0,4,,,,,,,,3,,,,77,51
515340,note_off,480,0,7,,,,,,,,6,,,,41,64
515340,note_on,0,0,3,,,,,,,,2,,,,65,51
515340,note_off,480,0,3,,,,,,,,2,,,,67,64
515340,note_on,0,0,7,,,,,,,,6,,,,38,51
515340,note_off,480,0,8,,,,,,,,7,,,,41,64
515820,note_off,480,0,3,,,,,,,,2,,,,65,64
515820,note_on,0,0,3,,,,,,,,2,,,,62,48
515820,note_off,480,0,7,,,,,,,,6,,,,38,64
515820,note_off,960,0,1,,,,,,,,0,,,,74,64
515820,note_on,0,0,1,,,,,,,,0,,,,71,48
515820,note_on,0,0,7,,,,,,,,6,,,,43,48
515820,note_off,960,0,6,,,,,,,,5,,,,62,64
515820,note_off,960,0,5,,,,,,,,4,,,,69,64
515820,note_on,0,0,5,,,,,,,,4,,,,65,48
515820,note_off,480,0,8,,,,,,,,7,,,,38,64
515820,note_off,480,0,4,,,,,,,,3,,,,77,64
515820,note_on,0,0,4,,,,,,,,3,,,,74,48
515820,note_on,0,0,8,,,,,,,,7,,,,43,51
515820,note_off,960,0,2,,,,,,,,1,,,,57,64
515820,note_on,0,0,2,,,,,,,,1,,,,53,48
515820,note_on,0,0,6,,,,,,,,5,,,,59,48
516120,note_off,300,0,5,,,,,,,,4,,,,65,64
516120,note_off,300,0,7,,,,,,,,6,,,,43,64
516120,note_off,300,0,6,,,,,,,,5,,,,59,64
516120,note_off,300,0,3,,,,,,,,2,,,,62,64
516120,note_off,300,0,2,,,,,,,,1,,,,53,64
516120,note_off,300,0,4,,,,,,,,3,,,,74,64
516120,note_off,300,0,1,,,,,,,,0,,,,71,64
516300,note_off,480,0,8,,,,,,,,7,,,,43,64
516300,note_on,180,0,7,,,,,,,,6,,,,36,45
516300,note_on,180,0,6,,,,,,,,5,,,,60,45
516300,note_on,180,0,2,,,,,,,,1,,,,52,45
516300,note_on,180,0,4,,,,,,,,3,,,,72,45
516300,note_on,0,0,8,,,,,,,,7,,,,36,48
516300,note_on,180,0,3,,,,,,,,2,,,,60,45
516300,note_on,180,0,5,,,,,,,,4,,,,64,45
516300,note_on,180,0,1,,,,,,,,0,,,,72,45
516700,note_off,400,0,7,,,,,,,,6,,,,36,64
516700,note_off,400,0,1,,,,,,,,0,,,,72,64
516700,note_off,400,0,3,,,,,,,,2,,,,60,64
516700,note_off,400,0,4,,,,,,,,3,,,,72,64
516700,note_off,400,0,6,,,,,,,,5,,,,60,64
516700,note_off,400,0,5,,,,,,,,4,,,,64,64
516700,note_off,400,0,2,,,,,,,,1,,,,52,64
516780,note_on,0,0,8,,,,,,,,7,,,,48,45
516780,note_off,480,0,8,,,,,,,,7,,,,36,64
517180,note_off,400,0,8,,,,,,,,7,,,,48,64
517260,note_on,560,0,4,,,,,,,,3,,,,67,60
517260,note_on,560,0,1,,,,,,,,0,,,,67,60
517740,note_off,480,0,4,,,,,,,,3,,,,67,64
517740,note_off,480,0,1,,,,,,,,0,,,,67,64
517740,note_on,0,0,4,,,,,,,,3,,,,71,60
517740,note_on,1040,0,2,,,,,,,,1,,,,67,60
517740,note_on,0,0,1,,,,,,,,0,,,,74,60
517740,note_on,1040,0,7,,,,,,,,6,,,,55,60
518220,note_off,480,0,7,,,,,,,,6,,,,55,64
518220,note_on,0,0,7,,,,,,,,6,,,,67,60
518700,note_off,480,0,7,,,,,,,,6,,,,67,64
518700,note_on,0,0,7,,,,,,,,6,,,,65,60
519180,note_on,0,0,7,,,,,,,,6,,,,63,60
519180,note_off,1440,0,4,,,,,,,,3,,,,71,64
519180,note_on,0,0,1,,,,,,,,0,,,,75,60
519180,note_off,1440,0,1,,,,,,,,0,,,,74,64
519180,note_on,0,0,4,,,,,,,,3,,,,72,60
519180,note_off,480,0,7,,,,,,,,6,,,,65,64
519660,note_off,480,0,7,,,,,,,,6,,,,63,64
519660,note_on,0,0,7,,,,,,,,6,,,,62,60
520140,note_off,480,0,7,,,,,,,,6,,,,62,64
520140,note_on,0,0,7,,,,,,,,6,,,,60,60
520620,note_on,0,0,1,,,,,,,,0,,,,79,60
520620,note_off,1440,0,1,,,,,,,,0,,,,75,64
520620,note_off,1440,0,4,,,,,,,,3,,,,72,64
520620,note_off,480,0,7,,,,,,,,6,,,,60,64
520620,note_on,0,0,7,,,,,,,,6,,,,59,60
520620,note_on,0,0,4,,,,,,,,3,,,,75,60
521100,note_off,480,0,7,,,,,,,,6,,,,59,64
521100,note_on,0,0,7,,,,,,,,6,,,,55,60
521580,note_off,960,0,4,,,,,,,,3,,,,75,64
521580,note_on,0,0,1,,,,,,,,0,,,,77,60
521580,note_off,960,0,1,,,,,,,,0,,,,79,64
521580,note_on,0,0,7,,,,,,,,6,,,,59,60
521580,note_off,480,0,7,,,,,,,,6,,,,55,64
521580,note_on,0,0,4,,,,,,,,3,,,,74,60
522060,note_on,0,0,4,,,,,,,,3,,,,72,60
522060,note_off,480,0,1,,,,,,,,0,,,,77,64
522060,note_on,0,0,1,,,,,,,,0,,,,75,60
522060,note_on,0,0,7,,,,,,,,6,,,,60,60
522060,note_off,480,0,7,,,,,,,,6,,,,59,64
522060,note_off,480,0,4,,,,,,,,3,,,,74,64
522540,note_on,0,0,7,,,,,,,,6,,,,48,60
522540,note_off,480,0,7,,,,,,,,6,,,,60,64
522900,note_off,840,0,4,,,,,,,,3,,,,72,64
522900,note_off,840,0,1,,,,,,,,0,,,,75,64
522900,note_off,5160,0,2,,,,,,,,1,,,,67,64
522940,note_off,400,0,7,,,,,,,,6,,,,48,64
523020,note_on,120,0,4,,,,,,,,3,,,,75,60
523020,note_on,120,0,1,,,,,,,,0,,,,75,60
523020,note_on,6320,0,6,,,,,,,,5,,,,63,60
523020,note_on,6320,0,5,,,,,,,,4,,,,75,60
523020,note_on,80,0,7,,,,,,,,6,,,,46,60
523500,note_off,480,0,4,,,,,,,,3,,,,75,64
523500,note_on,0,0,4,,,,,,,,3,,,,77,60
523500,note_off,480,0,5,,,,,,,,4,,,,75,64
523500,note_off,480,0,6,,,,,,,,5,,,,63,64
523500,note_on,0,0,6,,,,,,,,5,,,,65,60
523500,note_on,0,0,7,,,,,,,,6,,,,44,60
523500,note_on,0,0,5,,,,,,,,4,,,,75,60
523500,note_off,480,0,7,,,,,,,,6,,,,46,64
523980,note_off,480,0,7,,,,,,,,6,,,,44,64
523980,note_on,0,0,7,,,,,,,,6,,,,56,60
524460,note_on,0,0,7,,,,,,,,6,,,,44,60
524460,note_off,480,0,7,,,,,,,,6,,,,56,64
524940,note_off,1440,0,4,,,,,,,,3,,,,77,64
524940,note_off,480,0,7,,,,,,,,6,,,,44,64
524940,note_on,0,0,7,,,,,,,,6,,,,46,60
524940,note_on,0,0,4,,,,,,,,3,,,,79,60
524940,note_off,1440,0,6,,,,,,,,5,,,,65,64
524940,note_on,0,0,6,,,,,,,,5,,,,67,60
525420,note_off,480,0,7,,,,,,,,6,,,,46,64
525420,note_on,0,0,7,,,,,,,,6,,,,58,60
525900,note_off,480,0,7,,,,,,,,6,,,,58,64
525900,note_on,0,0,7,,,,,,,,6,,,,46,60
526380,note_off,480,0,7,,,,,,,,6,,,,46,64
526380,note_off,1440,0,6,,,,,,,,5,,,,67,64
526380,note_on,0,0,6,,,,,,,,5,,,,70,60
526380,note_on,0,0,7,,,,,,,,6,,,,48,60
526380,note_on,0,0,4,,,,,,,,3,,,,82,60
526380,note_off,1440,0,4,,,,,,,,3,,,,79,64
526860,note_off,480,0,7,,,,,,,,6,,,,48,64
526860,note_on,0,0,7,,,,,,,,6,,,,60,60
527220,note_off,4200,0,1,,,,,,,,0,,,,75,64
527340,note_off,960,0,6,,,,,,,,5,,,,70,64
527340,note_on,0,0,6,,,,,,,,5,,,,68,60
527340,note_off,480,0,7,,,,,,,,6,,,,60,64
527340,note_on,0,0,7,,,,,,,,6,,,,62,60
527340,note_on,0,0,4,,,,,,,,3,,,,80,60
527340,note_off,3840,0,5,,,,,,,,4,,,,75,64
527340,note_on,0,0,5,,,,,,,,4,,,,77,60
527340,note_off,960,0,4,,,,,,,,3,,,,82,64
527340,note_on,120,0,1,,,,,,,,0,,,,77,60
527820,note_on,0,0,7,,,,,,,,6,,,,63,60
527820,note_off,480,0,6,,,,,,,,5,,,,68,64
527820,note_on,0,0,6,,,,,,,,5,,,,67,60
527820,note_off,480,0,4,,,,,,,,3,,,,80,64
527820,note_on,0,0,4,,,,,,,,3,,,,79,60
527820,note_off,480,0,7,,,,,,,,6,,,,62,64
527820,note_off,480,0,5,,,,,,,,4,,,,77,64
527820,note_on,0,0,5,,,,,,,,4,,,,75,60
527820,note_off,480,0,1,,,,,,,,0,,,,77,64
527820,note_on,0,0,1,,,,,,,,0,,,,75,60
528300,note_off,480,0,7,,,,,,,,6,,,,63,64
528300,note_on,0,0,7,,,,,,,,6,,,,62,60
528660,note_off,840,0,5,,,,,,,,4,,,,75,64
528660,note_off,840,0,6,,,,,,,,5,,,,67,64
528660,note_off,840,0,4,,,,,,,,3,,,,79,64
528700,note_off,400,0,7,,,,,,,,6,,,,62,64
528780,note_on,80,0,7,,,,,,,,6,,,,61,60
528780,note_on,120,0,4,,,,,,,,3,,,,79,60
528780,note_on,120,0,6,,,,,,,,5,,,,67,60
529260,note_on,0,0,7,,,,,,,,6,,,,60,60
529260,note_off,480,0,7,,,,,,,,6,,,,61,64
529260,note_off,480,0,4,,,,,,,,3,,,,79,64
529260,note_on,0,0,4,,,,,,,,3,,,,80,60
529260,note_on,0,0,6,,,,,,,,5,,,,68,60
529260,note_off,480,0,6,,,,,,,,5,,,,67,64
529740,note_off,480,0,7,,,,,,,,6,,,,60,64
529740,note_on,0,0,7,,,,,,,,6,,,,63,60
530220,note_off,480,0,7,,,,,,,,6,,,,63,64
530220,note_on,0,0,7,,,,,,,,6,,,,60,60
530700,note_on,0,0,6,,,,,,,,5,,,,70,60
530700,note_off,480,0,7,,,,,,,,6,,,,60,64
530700,note_off,1440,0,6,,,,,,,,5,,,,68,64
530700,note_on,0,0,7,,,,,,,,6,,,,58,60
530700,note_on,0,0,4,,,,,,,,3,,,,79,60
530700,note_off,1440,0,4,,,,,,,,3,,,,80,64
531180,note_off,480,0,7,,,,,,,,6,,,,58,64
531180,note_on,0,0,7,,,,,,,,6,,,,63,60
531660,note_off,960,0,4,,,,,,,,3,,,,79,64
531660,note_on,0,0,4,,,,,,,,3,,,,80,60
531660,note_off,480,0,7,,,,,,,,6,,,,63,64
531660,note_on,0,0,7,,,,,,,,6,,,,58,60
532020,note_off,4200,0,1,,,,,,,,0,,,,75,64
532140,note_off,480,0,7,,,,,,,,6,,,,58,64
532140,note_on,120,0,1,,,,,,,,0,,,,74,60
532140,note_on,0,0,6,,,,,,,,5,,,,71,60
532140,note_on,0,0,7,,,,,,,,6,,,,56,60
532140,note_off,480,0,4,,,,,,,,3,,,,80,64
532140,note_on,0,0,4,,,,,,,,3,,,,79,60
532140,note_off,1440,0,6,,,,,,,,5,,,,70,64
532620,note_on,0,0,7,,,,,,,,6,,,,59,60
532620,note_off,480,0,7,,,,,,,,6,,,,56,64
533100,note_on,0,0,7,,,,,,,,6,,,,56,60
533100,note_off,480,0,7,,,,,,,,6,,,,59,64
533100,note_on,0,0,4,,,,,,,,3,,,,77,60
533100,note_off,960,0,4,,,,,,,,3,,,,79,64
533580,note_off,480,0,7,,,,,,,,6,,,,56,64
533580,note_on,0,0,6,,,,,,,,5,,,,70,60
533580,note_off,1440,0,1,,,,,,,,0,,,,74,64
533580,note_on,0,0,4,,,,,,,,3,,,,75,60
533580,note_on,0,0,7,,,,,,,,6,,,,55,60
533580,note_off,480,0,4,,,,,,,,3,,,,77,64
533580,note_off,1440,0,6,,,,,,,,5,,,,71,64
533580,note_on,0,0,1,,,,,,,,0,,,,75,60
534060,note_on,0,0,7,,,,,,,,6,,,,58,60
534060,note_off,480,0,7,,,,,,,,6,,,,55,64
534420,note_off,840,0,4,,,,,,,,3,,,,75,64
534460,note_off,400,0,7,,,,,,,,6,,,,58,64
534540,note_off,960,0,1,,,,,,,,0,,,,75,64
534540,note_on,0,0,1,,,,,,,,0,,,,75,60
534540,note_on,120,0,4,,,,,,,,3,,,,70,60
534540,note_on,80,0,7,,,,,,,,6,,,,55,60
534900,note_off,1320,0,6,,,,,,,,5,,,,70,64
535020,note_off,480,0,4,,,,,,,,3,,,,70,64
535020,note_on,0,0,4,,,,,,,,3,,,,72,60
535020,note_off,480,0,7,,,,,,,,6,,,,55,64
535020,note_on,120,0,6,,,,,,,,5,,,,68,60
535020,note_off,480,0,1,,,,,,,,0,,,,75,64
535020,note_on,0,0,7,,,,,,,,6,,,,56,60
535020,note_on,0,0,1,,,,,,,,0,,,,77,60
535500,note_on,0,0,7,,,,,,,,6,,,,55,59
535500,note_off,480,0,7,,,,,,,,6,,,,56,64
535980,note_on,0,0,7,,,,,,,,6,,,,53,58
535980,note_off,480,0,7,,,,,,,,6,,,,55,64
536460,note_off,1440,0,4,,,,,,,,3,,,,72,64
536460,note_on,0,0,6,,,,,,,,5,,,,70,57
536460,note_off,1440,0,6,,,,,,,,5,,,,68,64
536460,note_off,1440,0,1,,,,,,,,0,,,,77,64
536460,note_on,0,0,4,,,,,,,,3,,,,74,56
536460,note_off,480,0,7,,,,,,,,6,,,,53,64
536460,note_on,0,0,7,,,,,,,,6,,,,58,57
536460,note_on,0,0,1,,,,,,,,0,,,,79,55
536940,note_off,480,0,7,,,,,,,,6,,,,58,64
536940,note_on,0,0,7,,,,,,,,6,,,,57,56
537420,note_on,0,0,7,,,,,,,,6,,,,58,55
537420,note_off,480,0,7,,,,,,,,6,,,,57,64
537900,note_on,0,0,4,,,,,,,,3,,,,70,52
537900,note_off,480,0,7,,,,,,,,6,,,,58,64
537900,note_on,0,0,1,,,,,,,,0,,,,75,50
537900,note_off,1440,0,4,,,,,,,,3,,,,74,64
537900,note_on,0,0,7,,,,,,,,6,,,,51,54
537900,note_off,1440,0,1,,,,,,,,0,,,,79,64
537900,note_off,1440,0,6,,,,,,,,5,,,,70,64
537900,note_on,0,0,6,,,,,,,,5,,,,67,53
538380,note_on,0,0,7,,,,,,,,6,,,,63,53
538380,note_off,480,0,7,,,,,,,,6,,,,51,64
538860,note_on,0,0,7,,,,,,,,6,,,,65,51
538860,note_off,480,0,7,,,,,,,,6,,,,63,64
539340,note_on,0,0,7,,,,,,,,6,,,,67,49
539340,note_off,480,0,7,,,,,,,,6,,,,65,64
539820,note_on,0,0,7,,,,,,,,6,,,,65,47
539820,note_off,480,0,7,,,,,,,,6,,,,67,64
540055,note_off,2155,0,4,,,,,,,,3,,,,70,64
540055,note_off,2155,0,6,,,,,,,,5,,,,67,64
540055,note_off,2155,0,1,,,,,,,,0,,,,75,64
540220,note_off,400,0,7,,,,,,,,6,,,,65,64
540300,note_on,80,0,7,,,,,,,,6,,,,63,45
540300,note_on,245,0,4,,,,,,,,3,,,,79,45
540780,note_on,725,0,6,,,,,,,,5,,,,71,45
540780,note_on,0,0,4,,,,,,,,3,,,,79,45
540780,note_off,480,0,4,,,,,,,,3,,,,79,64
540780,note_off,480,0,7,,,,,,,,6,,,,63,64
540780,note_on,12120,0,5,,,,,,,,4,,,,77,45
540780,note_on,0,0,7,,,,,,,,6,,,,62,45
541260,note_off,480,0,7,,,,,,,,6,,,,62,64
541260,note_on,0,0,7,,,,,,,,6,,,,67,45
541740,note_off,480,0,7,,,,,,,,6,,,,67,64
541740,note_on,0,0,7,,,,,,,,6,,,,62,45
542220,note_off,480,0,7,,,,,,,,6,,,,62,64
542220,note_on,0,0,7,,,,,,,,6,,,,60,45
542220,note_off,1440,0,6,,,,,,,,5,,,,71,64
542220,note_on,0,0,6,,,,,,,,5,,,,72,45
542700,note_on,0,0,7,,,,,,,,6,,,,67,45
542700,note_off,480,0,7,,,,,,,,6,,,,60,64
543180,note_on,0,0,7,,,,,,,,6,,,,60,45
543180,note_off,480,0,7,,,,,,,,6,,,,67,64
543660,note_off,480,0,7,,,,,,,,6,,,,60,64
543660,note_on,0,0,6,,,,,,,,5,,,,73,45
543660,note_off,1440,0,6,,,,,,,,5,,,,72,64
543660,note_on,0,0,7,,,,,,,,6,,,,59,45
544140,note_off,480,0,7,,,,,,,,6,,,,59,64
544140,note_on,0,0,7,,,,,,,,6,,,,67,45
544620,note_off,480,0,7,,,,,,,,6,,,,67,64
544620,note_on,0,0,7,,,,,,,,6,,,,59,45
545100,note_on,0,0,6,,,,,,,,5,,,,74,45
545100,note_off,1440,0,6,,,,,,,,5,,,,73,64
545100,note_off,480,0,7,,,,,,,,6,,,,59,64
545100,note_on,0,0,7,,,,,,,,6,,,,59,45
545580,note_on,0,0,7,,,,,,,,6,,,,67,45
545580,note_off,480,0,7,,,,,,,,6,,,,59,64
545815,note_off,715,0,6,,,,,,,,5,,,,74,64
545815,note_off,5035,0,5,,,,,,,,4,,,,77,64
545815,note_off,5035,0,4,,,,,,,,3,,,,79,64
545980,note_off,400,0,7,,,,,,,,6,,,,67,64
546060,note_on,6005,0,1,,,,,,,,0,,,,67,45
546540,note_on,0,0,1,,,,,,,,0,,,,67,45
546540,note_on,560,0,7,,,,,,,,6,,,,50,45
546540,note_on,23640,0,2,,,,,,,,1,,,,59,45
546540,note_on,29840,0,3,,,,,,,,2,,,,65,60
546540,note_off,480,0,1,,,,,,,,0,,,,67,64
547020,note_on,0,0,7,,,,,,,,6,,,,55,45
547020,note_off,480,0,7,,,,,,,,6,,,,50,64
547500,note_on,0,0,7,,,,,,,,6,,,,50,45
547500,note_off,480,0,7,,,,,,,,6,,,,55,64
547980,note_off,1440,0,2,,,,,,,,1,,,,59,64
547980,note_off,480,0,7,,,,,,,,6,,,,50,64
547980,note_on,0,0,7,,,,,,,,6,,,,48,45
547980,note_on,0,0,2,,,,,,,,1,,,,60,45
548460,note_off,480,0,7,,,,,,,,6,,,,48,64
548460,note_on,0,0,7,,,,,,,,6,,,,55,45
548940,note_off,480,0,7,,,,,,,,6,,,,55,64
548940,note_on,0,0,7,,,,,,,,6,,,,48,45
549420,note_on,0,0,2,,,,,,,,1,,,,62,45
549420,note_off,2880,0,1,,,,,,,,0,,,,67,64
549420,note_off,1440,0,2,,,,,,,,1,,,,60,64
549420,note_on,0,0,7,,,,,,,,6,,,,47,45
549420,note_off,480,0,7,,,,,,,,6,,,,48,64
549420,note_on,0,0,1,,,,,,,,0,,,,68,45
549900,note_on,0,0,7,,,,,,,,6,,,,50,45
549900,note_off,480,0,7,,,,,,,,6,,,,47,64
550380,note_off,480,0,7,,,,,,,,6,,,,50,64
550380,note_on,0,0,7,,,,,,,,6,,,,54,45
550860,note_off,1440,0,1,,,,,,,,0,,,,68,64
550860,note_off,480,0,7,,,,,,,,6,,,,54,64
550860,note_on,0,0,7,,,,,,,,6,,,,55,45
550860,note_on,0,0,1,,,,,,,,0,,,,67,45
551340,note_off,480,0,7,,,,,,,,6,,,,55,64
551340,note_on,0,0,7,,,,,,,,6,,,,53,45
551575,note_off,5035,0,3,,,,,,,,2,,,,65,64
551575,note_off,2155,0,2,,,,,,,,1,,,,62,64
551575,note_off,715,0,1,,,,,,,,0,,,,67,64
551740,note_off,400,0,7,,,,,,,,6,,,,53,64
551820,note_on,6005,0,4,,,,,,,,3,,,,67,45
551820,note_on,80,0,7,,,,,,,,6,,,,50,45
552300,note_on,0,0,7,,,,,,,,6,,,,48,45
552300,note_on,6485,0,5,,,,,,,,4,,,,67,45
552300,note_off,480,0,4,,,,,,,,3,,,,67,64
552300,note_on,0,0,4,,,,,,,,3,,,,72,45
552300,note_on,6485,0,6,,,,,,,,5,,,,64,45
552300,note_off,480,0,7,,,,,,,,6,,,,50,64
552780,note_off,480,0,7,,,,,,,,6,,,,48,64
552780,note_on,0,0,7,,,,,,,,6,,,,52,45
553260,note_off,480,0,7,,,,,,,,6,,,,52,64
553260,note_on,0,0,7,,,,,,,,6,,,,53,45
553740,note_on,0,0,4,,,,,,,,3,,,,71,45
553740,note_off,1440,0,4,,,,,,,,3,,,,72,64
553740,note_on,0,0,7,,,,,,,,6,,,,55,45
553740,note_on,0,0,6,,,,,,,,5,,,,62,45
553740,note_off,480,0,7,,,,,,,,6,,,,53,64
553740,note_off,1440,0,6,,,,,,,,5,,,,64,64
554220,note_off,480,0,7,,,,,,,,6,,,,55,64
554220,note_on,0,0,7,,,,,,,,6,,,,53,45
554700,note_off,480,0,7,,,,,,,,6,,,,53,64
554700,note_on,0,0,7,,,,,,,,6,,,,52,45
554700,note_on,0,0,5,,,,,,,,4,,,,69,45
554700,note_off,2400,0,5,,,,,,,,4,,,,67,64
554700,note_off,960,0,4,,,,,,,,3,,,,71,64
554700,note_on,0,0,4,,,,,,,,3,,,,73,45
554700,note_on,0,0,6,,,,,,,,5,,,,64,45
554700,note_off,960,0,6,,,,,,,,5,,,,62,64
555180,note_on,0,0,4,,,,,,,,3,,,,74,45
555180,note_off,480,0,7,,,,,,,,6,,,,52,64
555180,note_off,480,0,6,,,,,,,,5,,,,64,64
555180,note_on,0,0,6,,,,,,,,5,,,,65,45
555180,note_on,0,0,7,,,,,,,,6,,,,50,45
555180,note_off,480,0,4,,,,,,,,3,,,,73,64
555660,note_off,480,0,7,,,,,,,,6,,,,50,64
555660,note_on,0,0,7,,,,,,,,6,,,,53,45
556140,note_off,480,0,7,,,,,,,,6,,,,53,64
556140,note_on,0,0,7,,,,,,,,6,,,,55,45
556620,note_off,1440,0,6,,,,,,,,5,,,,65,64
556620,note_on,0,0,6,,,,,,,,5,,,,64,45
556620,note_off,480,0,7,,,,,,,,6,,,,55,64
556620,note_on,0,0,7,,,,,,,,6,,,,57,45
556620,note_off,1440,0,4,,,,,,,,3,,,,74,64
556620,note_on,0,0,5,,,,,,,,4,,,,69,45
556620,note_off,1920,0,5,,,,,,,,4,,,,69,64
556620,note_on,0,0,4,,,,,,,,3,,,,73,45
557100,note_off,480,0,7,,,,,,,,6,,,,57,64
557100,note_on,0,0,7,,,,,,,,6,,,,56,45
557500,note_off,400,0,7,,,,,,,,6,,,,56,64
557580,note_on,80,0,7,,,,,,,,6,,,,55,45
557580,note_on,6005,0,1,,,,,,,,0,,,,69,45
557815,note_off,1195,0,6,,,,,,,,5,,,,64,64
557815,note_off,1195,0,5,,,,,,,,4,,,,69,64
557815,note_off,1195,0,4,,,,,,,,3,,,,73,64
558060,note_on,0,0,7,,,,,,,,6,,,,53,45
558060,note_off,480,0,7,,,,,,,,6,,,,55,64
558060,note_on,245,0,6,,,,,,,,5,,,,72,45
558060,note_on,0,0,1,,,,,,,,0,,,,77,45
558060,note_off,480,0,1,,,,,,,,0,,,,69,64
558060,note_on,6485,0,2,,,,,,,,1,,,,69,45
558540,note_on,0,0,7,,,,,,,,6,,,,57,47
558540,note_off,480,0,7,,,,,,,,6,,,,53,64
559020,note_on,0,0,7,,,,,,,,6,,,,58,49
559020,note_off,480,0,7,,,,,,,,6,,,,57,64
559500,note_on,0,0,2,,,,,,,,1,,,,67,45
559500,note_off,480,0,7,,,,,,,,6,,,,58,64
559500,note_off,1440,0,1,,,,,,,,0,,,,77,64
559500,note_on,0,0,7,,,,,,,,6,,,,60,51
559500,note_on,0,0,1,,,,,,,,0,,,,76,52
559500,note_off,1440,0,2,,,,,,,,1,,,,69,64
559980,note_on,0,0,7,,,,,,,,6,,,,58,53
559980,note_off,480,0,7,,,,,,,,6,,,,60,64
560460,note_off,960,0,1,,,,,,,,0,,,,76,64
560460,note_off,480,0,7,,,,,,,,6,,,,58,64
560460,note_on,0,0,1,,,,,,,,0,,,,78,57
560460,note_off,2400,0,6,,,,,,,,5,,,,72,64
560460,note_on,0,0,6,,,,,,,,5,,,,74,57
560460,note_on,0,0,2,,,,,,,,1,,,,69,51
560460,note_off,960,0,2,,,,,,,,1,,,,67,64
560460,note_on,0,0,7,,,,,,,,6,,,,57,55
560940,note_on,0,0,7,,,,,,,,6,,,,55,57
560940,note_off,480,0,6,,,,,,,,5,,,,74,64
560940,note_on,0,0,6,,,,,,,,5,,,,74,59
560940,note_off,480,0,7,,,,,,,,6,,,,57,64
560940,note_off,480,0,1,,,,,,,,0,,,,78,64
560940,note_on,0,0,1,,,,,,,,0,,,,79,59
560940,note_off,480,0,2,,,,,,,,1,,,,69,64
560940,note_on,0,0,2,,,,,,,,1,,,,70,54
561420,note_off,480,0,7,,,,,,,,6,,,,55,64
561420,note_on,0,0,7,,,,,,,,6,,,,58,60
561900,note_off,480,0,7,,,,,,,,6,,,,58,64
561900,note_on,0,0,7,,,,,,,,6,,,,60,63
562380,note_on,0,0,2,,,,,,,,1,,,,69,64
562380,note_on,0,0,1,,,,,,,,0,,,,78,67
562380,note_off,1440,0,1,,,,,,,,0,,,,79,64
562380,note_off,1440,0,2,,,,,,,,1,,,,70,64
562380,note_on,0,0,7,,,,,,,,6,,,,62,66
562380,note_off,480,0,7,,,,,,,,6,,,,60,64
562860,note_on,0,0,7,,,,,,,,6,,,,64,69
562860,note_off,480,0,7,,,,,,,,6,,,,62,64
563220,note_off,840,0,2,,,,,,,,1,,,,69,64
563220,note_off,2280,0,6,,,,,,,,5,,,,74,64
563220,note_off,840,0,1,,,,,,,,0,,,,78,64
563260,note_off,400,0,7,,,,,,,,6,,,,64,64
563340,note_on,120,0,1,,,,,,,,0,,,,74,72
563340,note_on,5525,0,4,,,,,,,,3,,,,74,45
563340,note_on,80,0,7,,,,,,,,6,,,,66,72
563820,note_off,480,0,7,,,,,,,,6,,,,66,64
563820,note_on,0,0,1,,,,,,,,0,,,,79,75
563820,note_on,46640,0,8,,,,,,,,7,,,,43,75
563820,note_on,0,0,7,,,,,,,,6,,,,55,75
563820,note_on,12245,0,3,,,,,,,,2,,,,70,75
563820,note_off,480,0,1,,,,,,,,0,,,,74,64
563820,note_off,480,0,4,,,,,,,,3,,,,74,64
563820,note_on,0,0,4,,,,,,,,3,,,,82,75
563820,note_on,600,0,6,,,,,,,,5,,,,67,75
563820,note_on,600,0,2,,,,,,,,1,,,,62,75
563820,note_on,6005,0,5,,,,,,,,4,,,,74,75
564300,note_off,480,0,8,,,,,,,,7,,,,43,64
564300,note_on,0,0,8,,,,,,,,7,,,,55,75
564300,note_on,0,0,7,,,,,,,,6,,,,67,75
564300,note_off,480,0,7,,,,,,,,6,,,,55,64
564780,note_on,0,0,8,,,,,,,,7,,,,53,75
564780,note_off,480,0,8,,,,,,,,7,,,,55,64
564780,note_on,0,0,7,,,,,,,,6,,,,65,75
564780,note_off,480,0,7,,,,,,,,6,,,,67,64
565260,note_off,1440,0,2,,,,,,,,1,,,,62,64
565260,note_off,480,0,8,,,,,,,,7,,,,53,64
565260,note_on,0,0,8,,,,,,,,7,,,,52,75
565260,note_off,1440,0,5,,,,,,,,4,,,,74,64
565260,note_off,480,0,7,,,,,,,,6,,,,65,64
565260,note_on,0,0,5,,,,,,,,4,,,,76,75
565260,note_on,0,0,2,,,,,,,,1,,,,64,75
565260,note_on,0,0,7,,,,,,,,6,,,,64,75
565740,note_on,0,0,8,,,,,,,,7,,,,40,75
565740,note_on,0,0,7,,,,,,,,6,,,,52,75
565740,note_off,480,0,8,,,,,,,,7,,,,52,64
565740,note_off,480,0,7,,,,,,,,6,,,,64,64
566100,note_off,2280,0,3,,,,,,,,2,,,,70,64
566220,note_off,960,0,2,,,,,,,,1,,,,64,64
566220,note_off,480,0,7,,,,,,,,6,,,,52,64
566220,note_off,2400,0,4,,,,,,,,3,,,,82,64
566220,note_on,0,0,4,,,,,,,,3,,,,83,75
566220,note_off,960,0,5,,,,,,,,4,,,,76,64
566220,note_on,0,0,2,,,,,,,,1,,,,65,75
566220,note_on,0,0,8,,,,,,,,7,,,,38,75
566220,note_off,480,0,8,,,,,,,,7,,,,40,64
566220,note_on,120,0,3,,,,,,,,2,,,,71,75
566220,note_on,0,0,5,,,,,,,,4,,,,77,75
566220,note_on,0,0,7,,,,,,,,6,,,,50,75
566620,note_off,400,0,3,,,,,,,,2,,,,71,64
566700,note_off,480,0,7,,,,,,,,6,,,,50,64
566700,note_on,0,0,4,,,,,,,,3,,,,84,75
566700,note_on,0,0,8,,,,,,,,7,,,,36,75
566700,note_off,480,0,5,,,,,,,,4,,,,77,64
566700,note_off,480,0,4,,,,,,,,3,,,,83,64
566700,note_off,480,0,2,,,,,,,,1,,,,65,64
566700,note_off,480,0,8,,,,,,,,7,,,,38,64
566700,note_on,0,0,5,,,,,,,,4,,,,76,75
566700,note_on,0,0,2,,,,,,,,1,,,,64,75
566700,note_on,0,0,7,,,,,,,,6,,,,48,75
566700,note_on,80,0,3,,,,,,,,2,,,,72,75
567180,note_on,0,0,5,,,,,,,,4,,,,77,75
567180,note_on,0,0,7,,,,,,,,6,,,,50,75
567180,note_off,480,0,7,,,,,,,,6,,,,48,64
567180,note_off,480,0,2,,,,,,,,1,,,,64,64
567180,note_off,480,0,8,,,,,,,,7,,,,36,64
567180,note_on,0,0,8,,,,,,,,7,,,,38,75
567180,note_on,0,0,2,,,,,,,,1,,,,65,75
567180,note_off,480,0,5,,,,,,,,4,,,,76,64
567660,note_on,0,0,2,,,,,,,,1,,,,67,75
567660,note_on,0,0,8,,,,,,,,7,,,,40,75
567660,note_off,480,0,2,,,,,,,,1,,,,65,64
567660,note_off,480,0,8,,,,,,,,7,,,,38,64
567660,note_on,0,0,5,,,,,,,,4,,,,79,75
567660,note_off,480,0,5,,,,,,,,4,,,,77,64
567660,note_off,480,0,7,,,,,,,,6,,,,50,64
567660,note_on,0,0,7,,,,,,,,6,,,,52,75
568020,note_off,1320,0,3,,,,,,,,2,,,,72,64
568140,note_on,0,0,1,,,,,,,,0,,,,77,75
568140,note_off,480,0,5,,,,,,,,4,,,,79,64
568140,note_on,0,0,5,,,,,,,,4,,,,72,75
568140,note_off,480,0,2,,,,,,,,1,,,,67,64
568140,note_on,0,0,2,,,,,,,,1,,,,60,75
568140,note_off,1440,0,4,,,,,,,,3,,,,84,64
568140,note_on,0,0,6,,,,,,,,5,,,,65,75
568140,note_off,4320,0,6,,,,,,,,5,,,,67,64
568140,note_off,4320,0,1,,,,,,,,0,,,,79,64
568140,note_on,0,0,7,,,,,,,,6,,,,53,75
568140,note_on,120,0,3,,,,,,,,2,,,,69,75
568140,note_off,480,0,8,,,,,,,,7,,,,40,64
568140,note_on,0,0,8,,,,,,,,7,,,,41,75
568140,note_on,0,0,4,,,,,,,,3,,,,81,75
568140,note_off,480,0,7,,,,,,,,6,,,,52,64
568620,note_off,480,0,7,,,,,,,,6,,,,53,64
568620,note_on,0,0,7,,,,,,,,6,,,,55,73
568620,note_off,480,0,8,,,,,,,,7,,,,41,64
568620,note_on,0,0,8,,,,,,,,7,,,,43,73
568980,note_off,840,0,6,,,,,,,,5,,,,65,64
568980,note_off,840,0,4,,,,,,,,3,,,,81,64
568980,note_off,840,0,3,,,,,,,,2,,,,69,64
568980,note_off,840,0,1,,,,,,,,0,,,,77,64
569020,note_off,400,0,8,,,,,,,,7,,,,43,64
569020,note_off,400,0,7,,,,,,,,6,,,,55,64
569100,note_on,80,0,8,,,,,,,,7,,,,45,71
569100,note_on,80,0,7,,,,,,,,6,,,,57,71
569100,note_on,120,0,3,,,,,,,,2,,,,65,70
569100,note_on,120,0,4,,,,,,,,3,,,,77,70
569460,note_off,1320,0,2,,,,,,,,1,,,,60,64
569460,note_off,1320,0,5,,,,,,,,4,,,,72,64
569580,note_off,480,0,3,,,,,,,,2,,,,65,64
569580,note_on,0,0,3,,,,,,,,2,,,,67,68
569580,note_on,600,0,6,,,,,,,,5,,,,65,68
569580,note_off,480,0,4,,,,,,,,3,,,,77,64
569580,note_on,0,0,4,,,,,,,,3,,,,79,68
569580,note_on,0,0,8,,,,,,,,7,,,,43,69
569580,note_off,480,0,7,,,,,,,,6,,,,57,64
569580,note_on,120,0,2,,,,,,,,1,,,,59,68
569580,note_on,120,0,5,,,,,,,,4,,,,71,68
569580,note_off,480,0,8,,,,,,,,7,,,,45,64
569580,note_on,0,0,7,,,,,,,,6,,,,43,69
569580,note_on,600,0,1,,,,,,,,0,,,,77,68
570060,note_on,0,0,5,,,,,,,,4,,,,72,66
570060,note_on,0,0,7,,,,,,,,6,,,,45,67
570060,note_off,480,0,5,,,,,,,,4,,,,71,64
570060,note_on,0,0,8,,,,,,,,7,,,,45,67
570060,note_off,480,0,8,,,,,,,,7,,,,43,64
570060,note_on,0,0,2,,,,,,,,1,,,,60,66
570060,note_off,480,0,2,,,,,,,,1,,,,59,64
570060,note_off,480,0,7,,,,,,,,6,,,,43,64
570540,note_on,0,0,8,,,,,,,,7,,,,47,65
570540,note_on,0,0,2,,,,,,,,1,,,,62,64
570540,note_off,480,0,2,,,,,,,,1,,,,60,64
570540,note_off,480,0,5,,,,,,,,4,,,,72,64
570540,note_on,0,0,5,,,,,,,,4,,,,74,64
570540,note_on,0,0,7,,,,,,,,6,,,,47,65
570540,note_off,480,0,7,,,,,,,,6,,,,45,64
570540,note_off,480,0,8,,,,,,,,7,,,,45,64
571020,note_off,480,0,7,,,,,,,,6,,,,47,64
571020,note_on,0,0,7,,,,,,,,6,,,,46,63
571020,note_off,480,0,2,,,,,,,,1,,,,62,64
571020,note_on,0,0,6,,,,,,,,5,,,,61,61
571020,note_on,0,0,3,,,,,,,,2,,,,64,61
571020,note_off,1440,0,4,,,,,,,,3,,,,79,64
571020,note_off,1440,0,1,,,,,,,,0,,,,77,64
571020,note_on,0,0,1,,,,,,,,0,,,,73,61
571020,note_off,1440,0,6,,,,,,,,5,,,,65,64
571020,note_off,1440,0,3,,,,,,,,2,,,,67,64
571020,note_on,0,0,4,,,,,,,,3,,,,76,61
571020,note_on,0,0,2,,,,,,,,1,,,,55,62
571020,note_on,0,0,8,,,,,,,,7,,,,46,63
571020,note_off,480,0,8,,,,,,,,7,,,,47,64
571020,note_off,480,0,5,,,,,,,,4,,,,74,64
571020,note_on,0,0,5,,,,,,,,4,,,,67,62
571500,note_on,0,0,8,,,,,,,,7,,,,45,61
571500,note_on,0,0,2,,,,,,,,1,,,,57,60
571500,note_on,0,0,7,,,,,,,,6,,,,45,60
571500,note_off,480,0,8,,,,,,,,7,,,,46,64
571500,note_off,480,0,5,,,,,,,,4,,,,67,64
571500,note_on,0,0,5,,,,,,,,4,,,,69,60
571500,note_off,480,0,7,,,,,,,,6,,,,46,64
571500,note_off,480,0,2,,,,,,,,1,,,,55,64
571980,note_on,0,0,8,,,,,,,,7,,,,43,59
571980,note_off,480,0,8,,,,,,,,7,,,,45,64
571980,note_on,0,0,5,,,,,,,,4,,,,70,57
571980,note_on,0,0,7,,,,,,,,6,,,,43,57
571980,note_off,480,0,5,,,,,,,,4,,,,69,64
571980,note_on,0,0,2,,,,,,,,1,,,,58,57
571980,note_off,480,0,2,,,,,,,,1,,,,57,64
571980,note_off,480,0,7,,,,,,,,6,,,,45,64
572460,note_on,0,0,5,,,,,,,,4,,,,69,54
572460,note_off,480,0,5,,,,,,,,4,,,,70,64
572460,note_on,0,0,6,,,,,,,,5,,,,62,53
572460,note_on,0,0,7,,,,,,,,6,,,,41,54
572460,note_off,480,0,8,,,,,,,,7,,,,43,64
572460,note_off,1440,0,4,,,,,,,,3,,,,76,64
572460,note_on,0,0,4,,,,,,,,3,,,,79,53
572460,note_on,0,0,8,,,,,,,,7,,,,41,57
572460,note_off,1440,0,1,,,,,,,,0,,,,73,64
572460,note_on,0,0,1,,,,,,,,0,,,,74,53
572460,note_on,0,0,2,,,,,,,,1,,,,57,54
572460,note_off,1440,0,6,,,,,,,,5,,,,61,64
572460,note_on,0,0,3,,,,,,,,2,,,,67,53
572460,note_off,1440,0,3,,,,,,,,2,,,,64,64
572460,note_off,480,0,2,,,,,,,,1,,,,58,64
572460,note_off,480,0,7,,,,,,,,6,,,,43,64
572940,note_off,480,0,8,,,,,,,,7,,,,41,64
572940,note_on,0,0,8,,,,,,,,7,,,,38,54
572940,note_on,0,0,4,,,,,,,,3,,,,77,51
572940,note_off,480,0,4,,,,,,,,3,,,,79,64
572940,note_off,480,0,7,,,,,,,,6,,,,41,64
572940,note_on,0,0,7,,,,,,,,6,,,,38,51
572940,note_on,0,0,3,,,,,,,,2,,,,65,51
572940,note_off,480,0,3,,,,,,,,2,,,,67,64
573420,note_off,480,0,7,,,,,,,,6,,,,38,64
573420,note_on,0,0,7,,,,,,,,6,,,,43,48
573420,note_on,0,0,2,,,,,,,,1,,,,53,48
573420,note_off,960,0,2,,,,,,,,1,,,,57,64
573420,note_off,960,0,1,,,,,,,,0,,,,74,64
573420,note_on,0,0,1,,,,,,,,0,,,,71,48
573420,note_off,480,0,8,,,,,,,,7,,,,38,64
573420,note_on,0,0,8,,,,,,,,7,,,,43,51
573420,note_on,0,0,5,,,,,,,,4,,,,65,48
573420,note_off,960,0,5,,,,,,,,4,,,,69,64
573420,note_on,0,0,6,,,,,,,,5,,,,59,48
573420,note_off,960,0,6,,,,,,,,5,,,,62,64
573420,note_off,480,0,4,,,,,,,,3,,,,77,64
573420,note_on,0,0,4,,,,,,,,3,,,,74,48
573420,note_off,480,0,3,,,,,,,,2,,,,65,64
573420,note_on,0,0,3,,,,,,,,2,,,,62,48
573720,note_off,300,0,6,,,,,,,,5,,,,59,64
573720,note_off,300,0,7,,,,,,,,6,,,,43,64
573720,note_off,300,0,5,,,,,,,,4,,,,65,64
573720,note_off,300,0,1,,,,,,,,0,,,,71,64
573720,note_off,300,0,2,,,,,,,,1,,,,53,64
573720,note_off,300,0,4,,,,,,,,3,,,,74,64
573720,note_off,300,0,3,,,,,,,,2,,,,62,64
573900,note_on,180,0,3,,,,,,,,2,,,,60,45
573900,note_on,180,0,7,,,,,,,,6,,,,36,45
573900,note_off,480,0,8,,,,,,,,7,,,,43,64
573900,note_on,0,0,8,,,,,,,,7,,,,24,45
573900,note_on,180,0,2,,,,,,,,1,,,,55,45
573900,note_on,180,0,1,,,,,,,,0,,,,72,45
573900,note_on,180,0,6,,,,,,,,5,,,,60,45
573900,note_on,180,0,5,,,,,,,,4,,,,64,45
573900,note_on,180,0,4,,,,,,,,3,,,,72,45
574300,note_off,400,0,6,,,,,,,,5,,,,60,64
574300,note_off,400,0,8,,,,,,,,7,,,,24,64
574300,note_off,400,0,4,,,,,,,,3,,,,72,64
574300,note_off,400,0,3,,,,,,,,2,,,,60,64
574300,note_off,400,0,5,,,,,,,,4,,,,64,64
574300,note_off,400,0,7,,,,,,,,6,,,,36,64
574300,note_off,400,0,2,,,,,,,,1,,,,55,64
574300,note_off,400,0,1,,,,,,,,0,,,,72,64
575820,note_on,1520,0,4,,,,,,,,3,,,,60,45
575820,note_on,1520,0,7,,,,,,,,6,,,,48,45
575820,note_on,1520,0,8,,,,,,,,7,,,,36,45
575820,set_tempo,173760,1,0,229007,,,,,,,,,,,,
575820,note_on,0,0,6,,,,,,,,5,,,,60,45
575820,program_change,1520,0,6,,,,,,,,5,,,50,,
575980,note_on,0,0,4,,,,,,,,3,,,,62,45
575980,note_off,160,0,4,,,,,,,,3,,,,60,64
575980,note_on,0,0,7,,,,,,,,6,,,,50,45
575980,note_on,0,0,8,,,,,,,,7,,,,38,45
575980,note_off,160,0,6,,,,,,,,5,,,,60,64
575980,note_on,0,0,6,,,,,,,,5,,,,62,45
575980,note_off,160,0,7,,,,,,,,6,,,,48,64
575980,note_off,160,0,8,,,,,,,,7,,,,36,64
576140,note_off,160,0,8,,,,,,,,7,,,,38,64
576140,note_on,0,0,8,,,,,,,,7,,,,40,45
576140,note_on,0,0,4,,,,,,,,3,,,,64,45
576140,note_off,160,0,4,,,,,,,,3,,,,62,64
576140,note_off,160,0,7,,,,,,,,6,,,,50,64
576140,note_on,0,0,7,,,,,,,,6,,,,52,45
576140,note_on,0,0,6,,,,,,,,5,,,,64,45
576140,note_off,160,0,6,,,,,,,,5,,,,62,64
576295,note_off,155,0,7,,,,,,,,6,,,,52,64
576295,note_off,155,0,6,,,,,,,,5,,,,64,64
576295,note_off,155,0,4,,,,,,,,3,,,,64,64
576295,note_off,155,0,8,,,,,,,,7,,,,40,64
576300,note_on,5,0,7,,,,,,,,6,,,,53,45
576300,note_on,5,0,8,,,,,,,,7,,,,41,45
576300,note_on,5,0,4,,,,,,,,3,,,,65,45
576300,program_change,5,0,6,,,,,,,,5,,,50,,
576300,note_on,0,0,6,,,,,,,,5,,,,65,45
576300,set_tempo,480,1,0,229007,,,,,,,,,,,,
576805,note_off,505,0,7,,,,,,,,6,,,,53,64
576805,note_off,505,0,6,,,,,,,,5,,,,65,64
576805,note_off,505,0,4,,,,,,,,3,,,,65,64
576805,note_off,505,0,8,,,,,,,,7,,,,41,64
577020,note_on,215,0,7,,,,,,,,6,,,,53,45
577020,note_on,215,0,6,,,,,,,,5,,,,65,45
577020,note_on,215,0,8,,,,,,,,7,,,,41,45
577020,note_on,215,0,4,,,,,,,,3,,,,65,45
577100,note_off,80,0,8,,,,,,,,7,,,,41,64
577100,note_off,80,0,4,,,,,,,,3,,,,65,64
577100,note_off,80,0,6,,,,,,,,5,,,,65,64
577100,note_off,80,0,7,,,,,,,,6,,,,53,64
577260,note_on,160,0,6,,,,,,,,5,,,,67,45
577260,note_on,160,0,4,,,,,,,,3,,,,67,45
577260,note_on,160,0,8,,,,,,,,7,,,,43,45
577260,note_on,160,0,7,,,,,,,,6,,,,55,45
577500,note_off,240,0,4,,,,,,,,3,,,,67,64
577500,note_off,240,0,7,,,,,,,,6,,,,55,64
577500,note_off,240,0,6,,,,,,,,5,,,,67,64
577500,note_off,240,0,8,,,,,,,,7,,,,43,64
577740,note_on,240,0,6,,,,,,,,5,,,,65,45
577740,note_on,240,0,4,,,,,,,,3,,,,65,45
577740,note_on,240,0,7,,,,,,,,6,,,,53,45
577740,note_on,240,0,8,,,,,,,,7,,,,41,45
578245,note_off,505,0,8,,,,,,,,7,,,,41,64
578245,note_off,505,0,4,,,,,,,,3,,,,65,64
578245,note_off,505,0,7,,,,,,,,6,,,,53,64
578275,note_off,535,0,6,,,,,,,,5,,,,65,64
578460,note_on,215,0,8,,,,,,,,7,,,,41,45
578460,note_on,215,0,4,,,,,,,,3,,,,65,45
578460,note_on,185,0,6,,,,,,,,5,,,,65,45
578460,note_on,215,0,7,,,,,,,,6,,,,53,45
578540,note_off,80,0,8,,,,,,,,7,,,,41,64
578540,note_off,80,0,7,,,,,,,,6,,,,53,64
578540,note_off,80,0,6,,,,,,,,5,,,,65,64
578540,note_off,80,0,4,,,,,,,,3,,,,65,64
578700,note_on,160,0,6,,,,,,,,5,,,,64,45
578700,note_on,160,0,7,,,,,,,,6,,,,52,45
578700,note_on,160,0,8,,,,,,,,7,,,,40,45
578700,note_on,160,0,4,,,,,,,,3,,,,64,45
578940,note_off,240,0,7,,,,,,,,6,,,,52,64
578940,note_off,240,0,6,,,,,,,,5,,,,64,64
578940,note_off,240,0,8,,,,,,,,7,,,,40,64
578940,note_off,240,0,4,,,,,,,,3,,,,64,64
579180,note_on,240,0,4,,,,,,,,3,,,,62,45
579180,note_on,240,0,7,,,,,,,,6,,,,50,45
579180,note_on,240,0,8,,,,,,,,7,,,,38,45
579180,note_on,240,0,6,,,,,,,,5,,,,62,45
579300,note_off,120,0,4,,,,,,,,3,,,,62,64
579300,note_off,120,0,8,,,,,,,,7,,,,38,64
579300,note_off,120,0,7,,,,,,,,6,,,,50,64
579300,note_off,120,0,6,,,,,,,,5,,,,62,64
579660,note_on,360,0,7,,,,,,,,6,,,,50,45
579660,note_on,360,0,6,,,,,,,,5,,,,62,45
579660,note_on,360,0,8,,,,,,,,7,,,,38,45
579660,note_on,360,0,4,,,,,,,,3,,,,62,45
579780,note_off,120,0,6,,,,,,,,5,,,,62,64
579780,note_off,120,0,8,,,,,,,,7,,,,38,64
579780,note_off,120,0,7,,,,,,,,6,,,,50,64
579780,note_off,120,0,4,,,,,,,,3,,,,62,64
580140,note_on,360,0,7,,,,,,,,6,,,,45,45
580140,note_on,360,0,8,,,,,,,,7,,,,33,45
580140,note_on,360,0,6,,,,,,,,5,,,,57,45
580140,note_on,360,0,4,,,,,,,,3,,,,57,45
580260,note_off,120,0,4,,,,,,,,3,,,,57,64
580260,note_off,120,0,8,,,,,,,,7,,,,33,64
580260,note_off,120,0,7,,,,,,,,6,,,,45,64
580260,note_off,120,0,6,,,,,,,,5,,,,57,64
580620,note_on,360,0,4,,,,,,,,3,,,,62,45
580620,note_on,360,0,6,,,,,,,,5,,,,62,45
580620,note_on,360,0,8,,,,,,,,7,,,,38,45
580620,note_on,360,0,7,,,,,,,,6,,,,50,45
580740,note_off,120,0,8,,,,,,,,7,,,,38,64
580740,note_off,120,0,4,,,,,,,,3,,,,62,64
580740,note_off,120,0,6,,,,,,,,5,,,,62,64
580740,note_off,120,0,7,,,,,,,,6,,,,50,64
581400,note_on,660,0,7,,,,,,,,6,,,,48,75
581400,note_on,7100,0,5,,,,,,,,4,,,,60,75
581400,note_on,660,0,4,,,,,,,,3,,,,72,75
581400,note_on,660,0,8,,,,,,,,7,,,,36,75
581640,note_on,0,0,4,,,,,,,,3,,,,74,75
581640,note_off,240,0,4,,,,,,,,3,,,,72,64
581640,note_on,0,0,5,,,,,,,,4,,,,62,75
581640,note_off,240,0,7,,,,,,,,6,,,,48,64
581640,note_on,0,0,8,,,,,,,,7,,,,38,75
581640,note_off,240,0,8,,,,,,,,7,,,,36,64
581640,note_on,0,0,7,,,,,,,,6,,,,50,75
581640,note_off,240,0,5,,,,,,,,4,,,,60,64
581880,note_on,0,0,8,,,,,,,,7,,,,40,75
581880,note_on,0,0,5,,,,,,,,4,,,,64,75
581880,note_on,0,0,4,,,,,,,,3,,,,76,75
581880,note_off,240,0,7,,,,,,,,6,,,,50,64
581880,note_on,0,0,7,,,,,,,,6,,,,52,75
581880,note_off,240,0,5,,,,,,,,4,,,,62,64
581880,note_off,240,0,8,,,,,,,,7,,,,38,64
581880,note_off,240,0,4,,,,,,,,3,,,,74,64
582115,note_off,235,0,4,,,,,,,,3,,,,76,64
582115,note_off,235,0,7,,,,,,,,6,,,,52,64
582115,note_off,235,0,8,,,,,,,,7,,,,40,64
582115,note_off,235,0,5,,,,,,,,4,,,,64,64
582120,note_on,7820,0,1,,,,,,,,0,,,,72,75
582120,note_on,7820,0,2,,,,,,,,1,,,,57,75
582120,note_on,5,0,8,,,,,,,,7,,,,41,75
582120,note_on,7820,0,3,,,,,,,,2,,,,65,75
582120,note_on,0,0,4,,,,,,,,3,,,,77,75
582120,note_on,5,0,4,,,,,,,,3,,,,69,75
582120,note_on,5,0,7,,,,,,,,6,,,,53,75
582120,note_on,0,0,5,,,,,,,,4,,,,65,75
582120,program_change,1380,0,6,,,,,,,,5,,,48,,
582120,note_on,0,0,6,,,,,,,,5,,,,60,75
582120,note_on,5,0,5,,,,,,,,4,,,,57,75
582625,note_off,0,0,5,,,,,,,,4,,,,57,64
582625,note_off,505,0,8,,,,,,,,7,,,,41,64
582625,note_off,0,0,4,,,,,,,,3,,,,69,64
582625,note_off,505,0,4,,,,,,,,3,,,,77,64
582625,note_off,505,0,6,,,,,,,,5,,,,60,64
582625,note_off,505,0,7,,,,,,,,6,,,,53,64
582625,note_off,505,0,5,,,,,,,,4,,,,65,64
582625,note_off,505,0,1,,,,,,,,0,,,,72,64
582625,note_off,505,0,2,,,,,,,,1,,,,57,64
582625,note_off,505,0,3,,,,,,,,2,,,,65,64
582840,note_on,215,0,6,,,,,,,,5,,,,60,75
582840,note_on,215,0,1,,,,,,,,0,,,,72,75
582840,note_on,0,0,4,,,,,,,,3,,,,77,75
582840,note_on,215,0,8,,,,,,,,7,,,,41,75
582840,note_on,215,0,2,,,,,,,,1,,,,57,75
582840,note_on,215,0,4,,,,,,,,3,,,,69,75
582840,note_on,215,0,7,,,,,,,,6,,,,53,75
582840,note_on,0,0,5,,,,,,,,4,,,,65,75
582840,note_on,215,0,5,,,,,,,,4,,,,57,75
582840,note_on,215,0,3,,,,,,,,2,,,,65,75
582920,note_off,0,0,4,,,,,,,,3,,,,69,64
582920,note_off,80,0,5,,,,,,,,4,,,,65,64
582920,note_off,80,0,2,,,,,,,,1,,,,57,64
582920,note_off,80,0,1,,,,,,,,0,,,,72,64
582920,note_off,80,0,6,,,,,,,,5,,,,60,64
582920,note_off,0,0,5,,,,,,,,4,,,,57,64
582920,note_off,80,0,7,,,,,,,,6,,,,53,64
582920,note_off,80,0,4,,,,,,,,3,,,,77,64
582920,note_off,80,0,8,,,,,,,,7,,,,41,64
583075,note_off,235,0,3,,,,,,,,2,,,,65,64
583080,note_on,0,0,5,,,,,,,,4,,,,67,75
583080,note_on,160,0,4,,,,,,,,3,,,,72,75
583080,note_on,0,0,4,,,,,,,,3,,,,79,75
583080,note_on,160,0,6,,,,,,,,5,,,,64,75
583080,note_on,160,0,1,,,,,,,,0,,,,76,75
583080,note_on,160,0,5,,,,,,,,4,,,,60,75
583080,note_on,5,0,3,,,,,,,,2,,,,67,75
583080,note_on,160,0,2,,,,,,,,1,,,,60,75
583080,note_on,160,0,8,,,,,,,,7,,,,36,75
583080,note_on,160,0,7,,,,,,,,6,,,,48,75
583320,note_off,240,0,4,,,,,,,,3,,,,79,64
583320,note_off,0,0,4,,,,,,,,3,,,,72,64
583320,note_off,240,0,2,,,,,,,,1,,,,60,64
583320,note_off,240,0,5,,,,,,,,4,,,,67,64
583320,note_off,0,0,5,,,,,,,,4,,,,60,64
583320,note_off,240,0,8,,,,,,,,7,,,,36,64
583320,note_off,240,0,1,,,,,,,,0,,,,76,64
583320,note_off,240,0,6,,,,,,,,5,,,,64,64
583320,note_off,240,0,3,,,,,,,,2,,,,67,64
583320,note_off,240,0,7,,,,,,,,6,,,,48,64
583560,note_on,0,0,5,,,,,,,,4,,,,69,75
583560,note_on,240,0,5,,,,,,,,4,,,,60,75
583560,note_on,240,0,2,,,,,,,,1,,,,65,75
583560,note_on,240,0,8,,,,,,,,7,,,,41,75
583560,note_on,240,0,1,,,,,,,,0,,,,77,75
583560,note_on,0,0,4,,,,,,,,3,,,,81,75
583560,note_on,240,0,4,,,,,,,,3,,,,72,75
583560,note_on,240,0,6,,,,,,,,5,,,,65,75
583560,note_on,240,0,3,,,,,,,,2,,,,69,75
583560,note_on,240,0,7,,,,,,,,6,,,,53,75
584065,note_off,505,0,2,,,,,,,,1,,,,65,64
584065,note_off,505,0,3,,,,,,,,2,,,,69,64
584065,note_off,0,0,4,,,,,,,,3,,,,72,64
584065,note_off,505,0,7,,,,,,,,6,,,,53,64
584065,note_off,505,0,5,,,,,,,,4,,,,69,64
584065,note_off,0,0,5,,,,,,,,4,,,,60,64
584065,note_off,505,0,1,,,,,,,,0,,,,77,64
584065,note_off,505,0,6,,,,,,,,5,,,,65,64
584065,note_off,505,0,4,,,,,,,,3,,,,81,64
584065,note_off,505,0,8,,,,,,,,7,,,,41,64
584280,note_on,215,0,5,,,,,,,,4,,,,60,75
584280,note_on,0,0,5,,,,,,,,4,,,,69,75
584280,note_on,215,0,6,,,,,,,,5,,,,65,75
584280,note_on,215,0,8,,,,,,,,7,,,,41,75
584280,note_on,215,0,1,,,,,,,,0,,,,77,75
584280,note_on,215,0,3,,,,,,,,2,,,,69,75
584280,note_on,215,0,2,,,,,,,,1,,,,65,75
584280,note_on,215,0,4,,,,,,,,3,,,,72,75
584280,note_on,215,0,7,,,,,,,,6,,,,53,75
584280,note_on,0,0,4,,,,,,,,3,,,,81,75
584360,note_off,80,0,5,,,,,,,,4,,,,69,64
584360,note_off,80,0,1,,,,,,,,0,,,,77,64
584360,note_off,80,0,7,,,,,,,,6,,,,53,64
584360,note_off,80,0,3,,,,,,,,2,,,,69,64
584360,note_off,80,0,8,,,,,,,,7,,,,41,64
584360,note_off,0,0,4,,,,,,,,3,,,,72,64
584360,note_off,80,0,6,,,,,,,,5,,,,65,64
584360,note_off,80,0,2,,,,,,,,1,,,,65,64
584360,note_off,0,0,5,,,,,,,,4,,,,60,64
584360,note_off,80,0,4,,,,,,,,3,,,,81,64
584520,note_on,160,0,3,,,,,,,,2,,,,70,75
584520,note_on,160,0,2,,,,,,,,1,,,,62,75
584520,note_on,160,0,1,,,,,,,,0,,,,77,75
584520,note_on,160,0,6,,,,,,,,5,,,,65,75
584520,note_on,0,0,5,,,,,,,,4,,,,70,75
584520,note_on,160,0,4,,,,,,,,3,,,,74,75
584520,note_on,160,0,5,,,,,,,,4,,,,62,75
584520,note_on,160,0,8,,,,,,,,7,,,,34,75
584520,note_on,160,0,7,,,,,,,,6,,,,46,75
584520,note_on,0,0,4,,,,,,,,3,,,,82,75
584760,note_off,240,0,6,,,,,,,,5,,,,65,64
584760,note_off,240,0,8,,,,,,,,7,,,,34,64
584760,note_off,240,0,2,,,,,,,,1,,,,62,64
584760,note_off,240,0,5,,,,,,,,4,,,,70,64
584760,note_off,0,0,4,,,,,,,,3,,,,74,64
584760,note_off,240,0,4,,,,,,,,3,,,,82,64
584760,note_off,240,0,1,,,,,,,,0,,,,77,64
584760,note_off,240,0,7,,,,,,,,6,,,,46,64
584760,note_off,0,0,5,,,,,,,,4,,,,62,64
584760,note_off,240,0,3,,,,,,,,2,,,,70,64
585000,note_on,240,0,1,,,,,,,,0,,,,77,75
585000,note_on,240,0,2,,,,,,,,1,,,,65,75
585000,note_on,240,0,8,,,,,,,,7,,,,36,75
585000,note_on,240,0,6,,,,,,,,5,,,,65,75
585000,note_on,240,0,3,,,,,,,,2,,,,69,75
585000,note_on,0,0,5,,,,,,,,4,,,,69,75
585000,note_on,240,0,4,,,,,,,,3,,,,72,75
585000,note_on,240,0,5,,,,,,,,4,,,,60,75
585000,note_on,240,0,7,,,,,,,,6,,,,48,75
585000,note_on,0,0,4,,,,,,,,3,,,,81,75
585120,note_off,0,0,5,,,,,,,,4,,,,60,64
585120,note_off,120,0,5,,,,,,,,4,,,,69,64
585120,note_off,120,0,7,,,,,,,,6,,,,48,64
585120,note_off,120,0,8,,,,,,,,7,,,,36,64
585120,note_off,120,0,6,,,,,,,,5,,,,65,64
585120,note_off,120,0,1,,,,,,,,0,,,,77,64
585120,note_off,0,0,4,,,,,,,,3,,,,72,64
585120,note_off,120,0,2,,,,,,,,1,,,,65,64
585120,note_off,120,0,3,,,,,,,,2,,,,69,64
585120,note_off,120,0,4,,,,,,,,3,,,,81,64
585480,note_on,0,0,4,,,,,,,,3,,,,81,75
585480,note_on,360,0,4,,,,,,,,3,,,,72,75
585480,note_on,360,0,7,,,,,,,,6,,,,48,75
585480,note_on,360,0,2,,,,,,,,1,,,,65,75
585480,note_on,360,0,1,,,,,,,,0,,,,77,75
585480,note_on,0,0,5,,,,,,,,4,,,,69,75
585480,note_on,360,0,5,,,,,,,,4,,,,60,75
585480,note_on,360,0,6,,,,,,,,5,,,,65,75
585480,note_on,360,0,3,,,,,,,,2,,,,69,75
585480,note_on,360,0,8,,,,,,,,7,,,,36,75
585600,note_off,120,0,2,,,,,,,,1,,,,65,64
585600,note_off,120,0,8,,,,,,,,7,,,,36,64
585600,note_off,120,0,1,,,,,,,,0,,,,77,64
585600,note_off,120,0,6,,,,,,,,5,,,,65,64
585600,note_off,0,0,5,,,,,,,,4,,,,60,64
585600,note_off,120,0,7,,,,,,,,6,,,,48,64
585600,note_off,120,0,5,,,,,,,,4,,,,69,64
585600,note_off,120,0,3,,,,,,,,2,,,,69,64
585600,note_off,0,0,4,,,,,,,,3,,,,72,64
585600,note_off,120,0,4,,,,,,,,3,,,,81,64
585960,note_on,360,0,7,,,,,,,,6,,,,48,75
585960,note_on,0,0,4,,,,,,,,3,,,,79,75
585960,note_on,360,0,4,,,,,,,,3,,,,72,75
585960,note_on,360,0,1,,,,,,,,0,,,,76,75
585960,note_on,360,0,6,,,,,,,,5,,,,64,75
585960,note_on,360,0,2,,,,,,,,1,,,,60,75
585960,note_on,0,0,5,,,,,,,,4,,,,67,75
585960,note_on,360,0,8,,,,,,,,7,,,,36,75
585960,note_on,360,0,5,,,,,,,,4,,,,60,75
585960,note_on,360,0,3,,,,,,,,2,,,,67,75
586080,note_off,120,0,4,,,,,,,,3,,,,79,64
586080,note_off,120,0,8,,,,,,,,7,,,,36,64
586080,note_off,0,0,4,,,,,,,,3,,,,72,64
586080,note_off,120,0,2,,,,,,,,1,,,,60,64
586080,note_off,120,0,6,,,,,,,,5,,,,64,64
586080,note_off,120,0,3,,,,,,,,2,,,,67,64
586080,note_off,0,0,5,,,,,,,,4,,,,60,64
586080,note_off,120,0,5,,,,,,,,4,,,,67,64
586080,note_off,120,0,1,,,,,,,,0,,,,76,64
586080,note_off,120,0,7,,,,,,,,6,,,,48,64
586440,note_on,360,0,1,,,,,,,,0,,,,77,75
586440,note_on,360,0,3,,,,,,,,2,,,,65,75
586440,note_on,0,0,4,,,,,,,,3,,,,77,75
586440,note_on,360,0,8,,,,,,,,7,,,,41,75
586440,note_on,360,0,2,,,,,,,,1,,,,57,75
586440,note_on,360,0,6,,,,,,,,5,,,,65,75
586440,note_on,360,0,7,,,,,,,,6,,,,53,75
586440,note_on,360,0,4,,,,,,,,3,,,,69,75
586440,note_on,0,0,5,,,,,,,,4,,,,65,75
586440,note_on,360,0,5,,,,,,,,4,,,,57,75
586560,note_off,120,0,7,,,,,,,,6,,,,53,64
586560,note_off,0,0,5,,,,,,,,4,,,,57,64
586560,note_off,120,0,5,,,,,,,,4,,,,65,64
586560,note_off,120,0,8,,,,,,,,7,,,,41,64
586560,note_off,120,0,4,,,,,,,,3,,,,77,64
586560,note_off,0,0,4,,,,,,,,3,,,,69,64
586560,note_off,120,0,1,,,,,,,,0,,,,77,64
586560,note_off,120,0,3,,,,,,,,2,,,,65,64
586560,note_off,120,0,6,,,,,,,,5,,,,65,64
586560,note_off,120,0,2,,,,,,,,1,,,,57,64
587460,note_on,900,0,4,,,,,,,,3,,,,60,45
587460,program_change,900,0,6,,,,,,,,5,,,49,,
587460,note_on,900,0,7,,,,,,,,6,,,,48,45
587460,note_on,0,0,6,,,,,,,,5,,,,60,45
587460,program_change,0,0,6,,,,,,,,5,,,49,,
587460,note_on,900,0,8,,,,,,,,7,,,,36,45
587620,note_off,160,0,4,,,,,,,,3,,,,60,64
587620,note_on,0,0,4,,,,,,,,3,,,,62,45
587620,note_off,160,0,7,,,,,,,,6,,,,48,64
587620,note_on,0,0,8,,,,,,,,7,,,,38,45
587620,note_off,160,0,8,,,,,,,,7,,,,36,64
587620,note_on,0,0,7,,,,,,,,6,,,,50,45
587620,note_on,0,0,6,,,,,,,,5,,,,62,45
587620,note_off,160,0,6,,,,,,,,5,,,,60,64
587780,note_on,0,0,8,,,,,,,,7,,,,40,45
587780,note_on,0,0,6,,,,,,,,5,,,,64,45
587780,note_off,160,0,7,,,,,,,,6,,,,50,64
587780,note_on,0,0,7,,,,,,,,6,,,,52,45
587780,note_on,0,0,4,,,,,,,,3,,,,64,45
587780,note_off,160,0,4,,,,,,,,3,,,,62,64
587780,note_off,160,0,6,,,,,,,,5,,,,62,64
587780,note_off,160,0,8,,,,,,,,7,,,,38,64
587940,note_off,160,0,7,,,,,,,,6,,,,52,64
587940,note_off,160,0,4,,,,,,,,3,,,,64,64
587940,note_off,160,0,6,,,,,,,,5,,,,64,64
587940,note_on,0,0,4,,,,,,,,3,,,,65,45
587940,note_off,160,0,8,,,,,,,,7,,,,40,64
587940,note_on,0,0,8,,,,,,,,7,,,,41,45
587940,note_on,0,0,7,,,,,,,,6,,,,53,45
587940,note_on,0,0,6,,,,,,,,5,,,,65,45
588445,note_off,505,0,7,,,,,,,,6,,,,53,64
588445,note_off,505,0,8,,,,,,,,7,,,,41,64
588445,note_off,505,0,4,,,,,,,,3,,,,65,64
588445,note_off,505,0,6,,,,,,,,5,,,,65,64
588660,note_on,215,0,6,,,,,,,,5,,,,65,45
588660,note_on,215,0,8,,,,,,,,7,,,,41,45
588660,note_on,215,0,7,,,,,,,,6,,,,53,45
588660,note_on,215,0,4,,,,,,,,3,,,,65,45
588740,note_off,80,0,4,,,,,,,,3,,,,65,64
588740,note_off,80,0,7,,,,,,,,6,,,,53,64
588740,note_off,80,0,8,,,,,,,,7,,,,41,64
588740,note_off,80,0,6,,,,,,,,5,,,,65,64
588900,note_on,160,0,8,,,,,,,,7,,,,43,45
588900,note_on,160,0,4,,,,,,,,3,,,,67,45
588900,note_on,160,0,7,,,,,,,,6,,,,55,45
588900,note_on,160,0,6,,,,,,,,5,,,,67,45
589140,note_off,240,0,8,,,,,,,,7,,,,43,64
589140,note_off,240,0,4,,,,,,,,3,,,,67,64
589140,note_off,240,0,7,,,,,,,,6,,,,55,64
589140,note_off,240,0,6,,,,,,,,5,,,,67,64
589380,note_on,240,0,7,,,,,,,,6,,,,53,45
589380,note_on,240,0,8,,,,,,,,7,,,,41,45
589380,note_on,240,0,6,,,,,,,,5,,,,65,45
589380,note_on,240,0,4,,,,,,,,3,,,,65,45
589885,note_off,505,0,8,,,,,,,,7,,,,41,64
589885,note_off,505,0,7,,,,,,,,6,,,,53,64
589885,note_off,505,0,4,,,,,,,,3,,,,65,64
589885,note_off,505,0,6,,,,,,,,5,,,,65,64
590100,note_on,215,0,6,,,,,,,,5,,,,65,45
590100,note_on,215,0,4,,,,,,,,3,,,,65,45
590100,note_on,215,0,8,,,,,,,,7,,,,41,45
590100,note_on,215,0,7,,,,,,,,6,,,,53,45
590180,note_off,80,0,8,,,,,,,,7,,,,41,64
590180,note_off,80,0,6,,,,,,,,5,,,,65,64
590180,note_off,80,0,7,,,,,,,,6,,,,53,64
590180,note_off,80,0,4,,,,,,,,3,,,,65,64
590340,note_on,160,0,4,,,,,,,,3,,,,64,45
590340,note_on,160,0,8,,,,,,,,7,,,,40,45
590340,note_on,160,0,7,,,,,,,,6,,,,52,45
590340,note_on,160,0,6,,,,,,,,5,,,,64,45
590580,note_off,240,0,6,,,,,,,,5,,,,64,64
590580,note_off,240,0,8,,,,,,,,7,,,,40,64
590580,note_off,240,0,7,,,,,,,,6,,,,52,64
590580,note_off,240,0,4,,,,,,,,3,,,,64,64
590820,note_on,240,0,6,,,,,,,,5,,,,62,45
590820,note_on,240,0,7,,,,,,,,6,,,,50,45
590820,note_on,240,0,8,,,,,,,,7,,,,38,45
590820,note_on,240,0,4,,,,,,,,3,,,,62,45
590940,note_off,120,0,4,,,,,,,,3,,,,62,64
590940,note_off,120,0,8,,,,,,,,7,,,,38,64
590940,note_off,120,0,6,,,,,,,,5,,,,62,64
590940,note_off,120,0,7,,,,,,,,6,,,,50,64
591300,note_on,360,0,4,,,,,,,,3,,,,62,45
591300,note_on,360,0,7,,,,,,,,6,,,,50,45
591300,note_on,360,0,8,,,,,,,,7,,,,38,45
591300,note_on,360,0,6,,,,,,,,5,,,,62,45
591420,note_off,120,0,8,,,,,,,,7,,,,38,64
591420,note_off,120,0,6,,,,,,,,5,,,,62,64
591420,note_off,120,0,7,,,,,,,,6,,,,50,64
591420,note_off,120,0,4,,,,,,,,3,,,,62,64
591780,note_on,360,0,6,,,,,,,,5,,,,57,45
591780,note_on,360,0,8,,,,,,,,7,,,,33,45
591780,note_on,360,0,7,,,,,,,,6,,,,45,45
591780,note_on,360,0,4,,,,,,,,3,,,,57,45
591900,note_off,120,0,7,,,,,,,,6,,,,45,64
591900,note_off,120,0,6,,,,,,,,5,,,,57,64
591900,note_off,120,0,8,,,,,,,,7,,,,33,64
591900,note_off,120,0,4,,,,,,,,3,,,,57,64
592260,note_on,360,0,6,,,,,,,,5,,,,62,45
592260,note_on,360,0,8,,,,,,,,7,,,,38,45
592260,note_on,360,0,7,,,,,,,,6,,,,50,45
592260,note_on,360,0,4,,,,,,,,3,,,,62,45
592380,note_off,120,0,6,,,,,,,,5,,,,62,64
592380,note_off,120,0,8,,,,,,,,7,,,,38,64
592380,note_off,120,0,7,,,,,,,,6,,,,50,64
592380,note_off,120,0,4,,,,,,,,3,,,,62,64
592980,note_on,600,0,7,,,,,,,,6,,,,48,75
592980,note_on,600,0,4,,,,,,,,3,,,,72,75
592980,note_on,600,0,8,,,,,,,,7,,,,36,75
592980,note_on,6420,0,5,,,,,,,,4,,,,60,75
593220,note_on,0,0,8,,,,,,,,7,,,,38,75
593220,note_off,240,0,8,,,,,,,,7,,,,36,64
593220,note_on,0,0,7,,,,,,,,6,,,,50,75
593220,note_off,240,0,7,,,,,,,,6,,,,48,64
593220,note_off,240,0,5,,,,,,,,4,,,,60,64
593220,note_on,0,0,4,,,,,,,,3,,,,74,75
593220,note_on,0,0,5,,,,,,,,4,,,,62,75
593220,note_off,240,0,4,,,,,,,,3,,,,72,64
593460,note_on,0,0,8,,,,,,,,7,,,,40,75
593460,note_off,240,0,8,,,,,,,,7,,,,38,64
593460,note_on,0,0,5,,,,,,,,4,,,,64,75
593460,note_on,0,0,7,,,,,,,,6,,,,52,75
593460,note_off,240,0,7,,,,,,,,6,,,,50,64
593460,note_off,240,0,5,,,,,,,,4,,,,62,64
593460,note_off,240,0,4,,,,,,,,3,,,,74,64
593460,note_on,0,0,4,,,,,,,,3,,,,76,75
593695,note_off,235,0,4,,,,,,,,3,,,,76,64
593695,note_off,235,0,5,,,,,,,,4,,,,64,64
593695,note_off,235,0,7,,,,,,,,6,,,,52,64
593695,note_off,235,0,8,,,,,,,,7,,,,40,64
593700,note_on,5,0,5,,,,,,,,4,,,,57,75
593700,note_on,0,0,5,,,,,,,,4,,,,65,75
593700,note_on,5,0,8,,,,,,,,7,,,,41,75
593700,note_on,7140,0,1,,,,,,,,0,,,,72,75
593700,note_on,7140,0,3,,,,,,,,2,,,,65,75
593700,note_on,7140,0,2,,,,,,,,1,,,,57,75
593700,note_on,0,0,4,,,,,,,,3,,,,77,75
593700,note_on,5,0,4,,,,,,,,3,,,,69,75
593700,note_on,0,0,6,,,,,,,,5,,,,60,75
593700,program_change,1320,0,6,,,,,,,,5,,,48,,
593700,note_on,5,0,7,,,,,,,,6,,,,53,75
594205,note_off,505,0,6,,,,,,,,5,,,,60,64
594205,note_off,505,0,5,,,,,,,,4,,,,65,64
594205,note_off,0,0,5,,,,,,,,4,,,,57,64
594205,note_off,505,0,1,,,,,,,,0,,,,72,64
594205,note_off,505,0,8,,,,,,,,7,,,,41,64
594205,note_off,0,0,4,,,,,,,,3,,,,69,64
594205,note_off,505,0,3,,,,,,,,2,,,,65,64
594205,note_off,505,0,4,,,,,,,,3,,,,77,64
594205,note_off,505,0,2,,,,,,,,1,,,,57,64
594205,note_off,505,0,7,,,,,,,,6,,,,53,64
594420,note_on,215,0,3,,,,,,,,2,,,,65,75
594420,note_on,215,0,1,,,,,,,,0,,,,72,75
594420,note_on,0,0,5,,,,,,,,4,,,,65,75
594420,note_on,215,0,5,,,,,,,,4,,,,57,75
594420,note_on,0,0,4,,,,,,,,3,,,,77,75
594420,note_on,215,0,2,,,,,,,,1,,,,57,75
594420,note_on,215,0,4,,,,,,,,3,,,,69,75
594420,note_on,215,0,6,,,,,,,,5,,,,60,75
594420,note_on,215,0,7,,,,,,,,6,,,,53,75
594420,note_on,215,0,8,,,,,,,,7,,,,41,75
594500,note_off,80,0,7,,,,,,,,6,,,,53,64
594500,note_off,0,0,4,,,,,,,,3,,,,69,64
594500,note_off,80,0,4,,,,,,,,3,,,,77,64
594500,note_off,80,0,5,,,,,,,,4,,,,65,64
594500,note_off,0,0,5,,,,,,,,4,,,,57,64
594500,note_off,80,0,1,,,,,,,,0,,,,72,64
594500,note_off,80,0,6,,,,,,,,5,,,,60,64
594500,note_off,80,0,2,,,,,,,,1,,,,57,64
594500,note_off,80,0,8,,,,,,,,7,,,,41,64
594655,note_off,235,0,3,,,,,,,,2,,,,65,64
594660,note_on,160,0,7,,,,,,,,6,,,,48,75
594660,note_on,160,0,1,,,,,,,,0,,,,76,75
594660,note_on,160,0,8,,,,,,,,7,,,,36,75
594660,note_on,160,0,2,,,,,,,,1,,,,60,75
594660,note_on,0,0,5,,,,,,,,4,,,,67,75
594660,note_on,160,0,4,,,,,,,,3,,,,72,75
594660,note_on,5,0,3,,,,,,,,2,,,,67,75
594660,note_on,160,0,5,,,,,,,,4,,,,60,75
594660,note_on,0,0,4,,,,,,,,3,,,,79,75
594660,note_on,160,0,6,,,,,,,,5,,,,64,75
594900,note_off,240,0,1,,,,,,,,0,,,,76,64
594900,note_off,240,0,8,,,,,,,,7,,,,36,64
594900,note_off,240,0,6,,,,,,,,5,,,,64,64
594900,note_off,240,0,2,,,,,,,,1,,,,60,64
594900,note_off,240,0,7,,,,,,,,6,,,,48,64
594900,note_off,0,0,5,,,,,,,,4,,,,60,64
594900,note_off,240,0,5,,,,,,,,4,,,,67,64
594900,note_off,240,0,4,,,,,,,,3,,,,79,64
594900,note_off,240,0,3,,,,,,,,2,,,,67,64
594900,note_off,0,0,4,,,,,,,,3,,,,72,64
595140,note_on,240,0,5,,,,,,,,4,,,,60,75
595140,note_on,240,0,3,,,,,,,,2,,,,69,75
595140,note_on,240,0,1,,,,,,,,0,,,,77,75
595140,note_on,240,0,8,,,,,,,,7,,,,41,75
595140,note_on,240,0,4,,,,,,,,3,,,,72,75
595140,note_on,240,0,6,,,,,,,,5,,,,65,75
595140,note_on,240,0,2,,,,,,,,1,,,,65,75
595140,note_on,0,0,4,,,,,,,,3,,,,81,75
595140,note_on,240,0,7,,,,,,,,6,,,,53,75
595140,note_on,0,0,5,,,,,,,,4,,,,69,75
595645,note_off,505,0,8,,,,,,,,7,,,,41,64
595645,note_off,505,0,2,,,,,,,,1,,,,65,64
595645,note_off,0,0,5,,,,,,,,4,,,,60,64
595645,note_off,505,0,5,,,,,,,,4,,,,69,64
595645,note_off,505,0,4,,,,,,,,3,,,,81,64
595645,note_off,505,0,3,,,,,,,,2,,,,69,64
595645,note_off,0,0,4,,,,,,,,3,,,,72,64
595645,note_off,505,0,1,,,,,,,,0,,,,77,64
595645,note_off,505,0,7,,,,,,,,6,,,,53,64
595645,note_off,505,0,6,,,,,,,,5,,,,65,64
595860,note_on,0,0,5,,,,,,,,4,,,,69,75
595860,note_on,215,0,5,,,,,,,,4,,,,60,75
595860,note_on,215,0,6,,,,,,,,5,,,,65,75
595860,note_on,215,0,2,,,,,,,,1,,,,65,75
595860,note_on,215,0,7,,,,,,,,6,,,,53,75
595860,note_on,215,0,3,,,,,,,,2,,,,69,75
595860,note_on,0,0,4,,,,,,,,3,,,,81,75
595860,note_on,215,0,4,,,,,,,,3,,,,72,75
595860,note_on,215,0,8,,,,,,,,7,,,,41,75
595860,note_on,215,0,1,,,,,,,,0,,,,77,75
595940,note_off,80,0,7,,,,,,,,6,,,,53,64
595940,note_off,0,0,5,,,,,,,,4,,,,60,64
595940,note_off,80,0,5,,,,,,,,4,,,,69,64
595940,note_off,80,0,3,,,,,,,,2,,,,69,64
595940,note_off,80,0,4,,,,,,,,3,,,,81,64
595940,note_off,0,0,4,,,,,,,,3,,,,72,64
595940,note_off,80,0,6,,,,,,,,5,,,,65,64
595940,note_off,80,0,1,,,,,,,,0,,,,77,64
595940,note_off,80,0,2,,,,,,,,1,,,,65,64
595940,note_off,80,0,8,,,,,,,,7,,,,41,64
596100,note_on,160,0,7,,,,,,,,6,,,,46,75
596100,note_on,160,0,5,,,,,,,,4,,,,62,75
596100,note_on,0,0,5,,,,,,,,4,,,,70,75
596100,note_on,160,0,6,,,,,,,,5,,,,65,75
596100,note_on,160,0,3,,,,,,,,2,,,,70,75
596100,note_on,160,0,8,,,,,,,,7,,,,34,75
596100,note_on,160,0,4,,,,,,,,3,,,,74,75
596100,note_on,0,0,4,,,,,,,,3,,,,82,75
596100,note_on,160,0,1,,,,,,,,0,,,,77,75
596100,note_on,160,0,2,,,,,,,,1,,,,62,75
596340,note_off,240,0,5,,,,,,,,4,,,,70,64
596340,note_off,240,0,3,,,,,,,,2,,,,70,64
596340,note_off,240,0,1,,,,,,,,0,,,,77,64
596340,note_off,240,0,8,,,,,,,,7,,,,34,64
596340,note_off,240,0,2,,,,,,,,1,,,,62,64
596340,note_off,240,0,7,,,,,,,,6,,,,46,64
596340,note_off,0,0,5,,,,,,,,4,,,,62,64
596340,note_off,240,0,6,,,,,,,,5,,,,65,64
596340,note_off,240,0,4,,,,,,,,3,,,,82,64
596340,note_off,0,0,4,,,,,,,,3,,,,74,64
596580,note_on,0,0,5,,,,,,,,4,,,,69,75
596580,note_on,240,0,3,,,,,,,,2,,,,69,75
596580,note_on,240,0,1,,,,,,,,0,,,,77,75
596580,note_on,240,0,4,,,,,,,,3,,,,72,75
596580,note_on,0,0,4,,,,,,,,3,,,,81,75
596580,note_on,240,0,8,,,,,,,,7,,,,36,75
596580,note_on,240,0,2,,,,,,,,1,,,,65,75
596580,note_on,240,0,6,,,,,,,,5,,,,65,75
596580,note_on,240,0,7,,,,,,,,6,,,,48,75
596580,note_on,240,0,5,,,,,,,,4,,,,60,75
596700,note_off,0,0,4,,,,,,,,3,,,,72,64
596700,note_off,120,0,4,,,,,,,,3,,,,81,64
596700,note_off,120,0,5,,,,,,,,4,,,,69,64
596700,note_off,120,0,7,,,,,,,,6,,,,48,64
596700,note_off,120,0,1,,,,,,,,0,,,,77,64
596700,note_off,0,0,5,,,,,,,,4,,,,60,64
596700,note_off,120,0,6,,,,,,,,5,,,,65,64
596700,note_off,120,0,3,,,,,,,,2,,,,69,64
596700,note_off,120,0,2,,,,,,,,1,,,,65,64
596700,note_off,120,0,8,,,,,,,,7,,,,36,64
597060,note_on,360,0,2,,,,,,,,1,,,,65,75
597060,note_on,360,0,3,,,,,,,,2,,,,69,75
597060,note_on,0,0,5,,,,,,,,4,,,,69,75
597060,note_on,360,0,1,,,,,,,,0,,,,77,75
597060,note_on,360,0,5,,,,,,,,4,,,,60,75
597060,note_on,0,0,4,,,,,,,,3,,,,81,75
597060,note_on,360,0,8,,,,,,,,7,,,,36,75
597060,note_on,360,0,7,,,,,,,,6,,,,48,75
597060,note_on,360,0,6,,,,,,,,5,,,,65,75
597060,note_on,360,0,4,,,,,,,,3,,,,72,75
597180,note_off,0,0,4,,,,,,,,3,,,,72,64
597180,note_off,120,0,4,,,,,,,,3,,,,81,64
597180,note_off,120,0,1,,,,,,,,0,,,,77,64
597180,note_off,120,0,8,,,,,,,,7,,,,36,64
597180,note_off,120,0,7,,,,,,,,6,,,,48,64
597180,note_off,120,0,6,,,,,,,,5,,,,65,64
597180,note_off,0,0,5,,,,,,,,4,,,,60,64
597180,note_off,120,0,3,,,,,,,,2,,,,69,64
597180,note_off,120,0,5,,,,,,,,4,,,,69,64
597180,note_off,120,0,2,,,,,,,,1,,,,65,64
597540,note_on,360,0,5,,,,,,,,4,,,,60,75
597540,note_on,360,0,4,,,,,,,,3,,,,72,75
597540,note_on,360,0,2,,,,,,,,1,,,,60,75
597540,note_on,0,0,5,,,,,,,,4,,,,67,75
597540,note_on,360,0,3,,,,,,,,2,,,,67,75
597540,note_on,360,0,1,,,,,,,,0,,,,76,75
597540,note_on,360,0,8,,,,,,,,7,,,,36,75
597540,note_on,360,0,7,,,,,,,,6,,,,48,75
597540,note_on,0,0,4,,,,,,,,3,,,,79,75
597540,note_on,360,0,6,,,,,,,,5,,,,64,75
597660,note_off,0,0,5,,,,,,,,4,,,,60,64
597660,note_off,120,0,5,,,,,,,,4,,,,67,64
597660,note_off,0,0,4,,,,,,,,3,,,,72,64
597660,note_off,120,0,4,,,,,,,,3,,,,79,64
597660,note_off,120,0,1,,,,,,,,0,,,,76,64
597660,note_off,120,0,3,,,,,,,,2,,,,67,64
597660,note_off,120,0,6,,,,,,,,5,,,,64,64
597660,note_off,120,0,7,,,,,,,,6,,,,48,64
597660,note_off,120,0,2,,,,,,,,1,,,,60,64
597660,note_off,120,0,8,,,,,,,,7,,,,36,64
598020,note_on,360,0,1,,,,,,,,0,,,,77,75
598020,note_on,360,0,7,,,,,,,,6,,,,53,75
598020,note_on,360,0,8,,,,,,,,7,,,,41,75
598020,note_on,360,0,2,,,,,,,,1,,,,57,75
598020,note_on,360,0,5,,,,,,,,4,,,,57,75
598020,note_on,0,0,5,,,,,,,,4,,,,65,75
598020,note_on,360,0,3,,,,,,,,2,,,,65,75
598020,note_on,0,0,4,,,,,,,,3,,,,77,75
598020,note_on,360,0,4,,,,,,,,3,,,,69,75
598020,note_on,360,0,6,,,,,,,,5,,,,65,75
598140,note_off,120,0,2,,,,,,,,1,,,,57,64
598140,note_off,120,0,5,,,,,,,,4,,,,65,64
598140,note_off,0,0,5,,,,,,,,4,,,,57,64
598140,note_off,0,0,4,,,,,,,,3,,,,69,64
598140,note_off,120,0,1,,,,,,,,0,,,,77,64
598140,note_off,120,0,6,,,,,,,,5,,,,65,64
598140,note_off,120,0,3,,,,,,,,2,,,,65,64
598140,note_off,120,0,8,,,,,,,,7,,,,41,64
598140,note_off,120,0,7,,,,,,,,6,,,,53,64
598140,note_off,120,0,4,,,,,,,,3,,,,77,64
598560,note_on,420,0,4,,,,,,,,3,,,,72,75
598560,note_on,420,0,1,,,,,,,,0,,,,72,75
598800,note_off,240,0,1,,,,,,,,0,,,,72,64
598800,note_on,0,0,4,,,,,,,,3,,,,74,75
598800,note_off,240,0,4,,,,,,,,3,,,,72,64
598800,note_on,0,0,1,,,,,,,,0,,,,74,75
599040,note_off,240,0,1,,,,,,,,0,,,,74,64
599040,note_on,0,0,1,,,,,,,,0,,,,76,75
599040,note_on,0,0,4,,,,,,,,3,,,,76,75
599040,note_off,240,0,4,,,,,,,,3,,,,74,64
599280,note_off,240,0,4,,,,,,,,3,,,,76,64
599280,note_off,240,0,1,,,,,,,,0,,,,76,64
599280,note_on,0,0,1,,,,,,,,0,,,,77,75
599280,note_on,0,0,4,,,,,,,,3,,,,77,75
599520,note_on,1380,0,2,,,,,,,,1,,,,59,75
599520,note_on,0,0,6,,,,,,,,5,,,,65,75
599520,note_on,0,0,4,,,,,,,,3,,,,71,75
599520,note_on,0,0,4,,,,,,,,3,,,,79,75
599520,note_off,240,0,4,,,,,,,,3,,,,77,64
599520,note_on,1380,0,6,,,,,,,,5,,,,62,75
599520,note_off,240,0,1,,,,,,,,0,,,,77,64
599520,note_on,0,0,1,,,,,,,,0,,,,79,75
599520,note_on,1380,0,7,,,,,,,,6,,,,43,75
599520,note_on,1380,0,8,,,,,,,,7,,,,31,75
599520,note_on,0,0,5,,,,,,,,4,,,,77,75
599520,note_on,1380,0,5,,,,,,,,4,,,,74,75
599520,note_on,1380,0,3,,,,,,,,2,,,,67,75
600025,note_off,0,0,6,,,,,,,,5,,,,62,64
600025,note_off,505,0,3,,,,,,,,2,,,,67,64
600025,note_off,0,0,5,,,,,,,,4,,,,74,64
600025,note_off,505,0,5,,,,,,,,4,,,,77,64
600025,note_off,505,0,4,,,,,,,,3,,,,79,64
600025,note_off,505,0,6,,,,,,,,5,,,,65,64
600025,note_off,0,0,4,,,,,,,,3,,,,71,64
600025,note_off,505,0,2,,,,,,,,1,,,,59,64
600025,note_off,505,0,1,,,,,,,,0,,,,79,64
600240,note_on,215,0,5,,,,,,,,4,,,,74,75
600240,note_on,215,0,6,,,,,,,,5,,,,62,75
600240,note_on,0,0,4,,,,,,,,3,,,,79,75
600240,note_on,215,0,4,,,,,,,,3,,,,71,75
600240,note_on,215,0,1,,,,,,,,0,,,,79,75
600240,note_on,215,0,2,,,,,,,,1,,,,59,75
600240,note_on,215,0,3,,,,,,,,2,,,,67,75
600240,note_on,0,0,6,,,,,,,,5,,,,65,75
600240,note_on,0,0,5,,,,,,,,4,,,,77,75
600320,note_off,80,0,3,,,,,,,,2,,,,67,64
600320,note_off,0,0,5,,,,,,,,4,,,,74,64
600320,note_off,0,0,4,,,,,,,,3,,,,71,64
600320,note_off,80,0,6,,,,,,,,5,,,,65,64
600320,note_off,0,0,6,,,,,,,,5,,,,62,64
600320,note_off,80,0,2,,,,,,,,1,,,,59,64
600320,note_off,80,0,4,,,,,,,,3,,,,79,64
600320,note_off,80,0,5,,,,,,,,4,,,,77,64
600320,note_off,80,0,1,,,,,,,,0,,,,79,64
600480,note_on,160,0,2,,,,,,,,1,,,,60,75
600480,note_on,160,0,3,,,,,,,,2,,,,69,75
600480,note_on,160,0,4,,,,,,,,3,,,,72,75
600480,note_on,0,0,4,,,,,,,,3,,,,81,75
600480,note_on,160,0,1,,,,,,,,0,,,,81,75
600480,note_on,0,0,5,,,,,,,,4,,,,77,75
600480,note_on,160,0,6,,,,,,,,5,,,,62,75
600480,note_on,0,0,6,,,,,,,,5,,,,65,75
600480,note_on,160,0,5,,,,,,,,4,,,,74,75
600840,note_off,1320,0,8,,,,,,,,7,,,,31,64
600840,note_off,1320,0,7,,,,,,,,6,,,,43,64
600880,note_off,400,0,3,,,,,,,,2,,,,69,64
600880,note_off,0,0,5,,,,,,,,4,,,,74,64
600880,note_off,400,0,5,,,,,,,,4,,,,77,64
600880,note_off,0,0,6,,,,,,,,5,,,,62,64
600880,note_off,400,0,6,,,,,,,,5,,,,65,64
600880,note_off,400,0,2,,,,,,,,1,,,,60,64
600880,note_off,400,0,1,,,,,,,,0,,,,81,64
600880,note_off,0,0,4,,,,,,,,3,,,,72,64
600880,note_off,400,0,4,,,,,,,,3,,,,81,64
600960,note_on,80,0,1,,,,,,,,0,,,,79,75
600960,note_on,0,0,6,,,,,,,,5,,,,65,75
600960,note_on,120,0,8,,,,,,,,7,,,,31,75
600960,note_on,80,0,6,,,,,,,,5,,,,62,75
600960,note_on,120,0,7,,,,,,,,6,,,,43,75
600960,note_on,80,0,2,,,,,,,,1,,,,59,75
600960,note_on,80,0,5,,,,,,,,4,,,,74,75
600960,note_on,0,0,5,,,,,,,,4,,,,77,75
600960,note_on,80,0,3,,,,,,,,2,,,,67,75
600960,note_on,80,0,4,,,,,,,,3,,,,71,75
600960,note_on,0,0,4,,,,,,,,3,,,,79,75
601465,note_off,0,0,5,,,,,,,,4,,,,74,64
601465,note_off,505,0,6,,,,,,,,5,,,,65,64
601465,note_off,0,0,6,,,,,,,,5,,,,62,64
601465,note_off,505,0,2,,,,,,,,1,,,,59,64
601465,note_off,505,0,1,,,,,,,,0,,,,79,64
601465,note_off,505,0,5,,,,,,,,4,,,,77,64
601465,note_off,505,0,4,,,,,,,,3,,,,79,64
601465,note_off,0,0,4,,,,,,,,3,,,,71,64
601465,note_off,505,0,3,,,,,,,,2,,,,67,64
601680,note_on,0,0,5,,,,,,,,4,,,,77,75
601680,note_on,215,0,3,,,,,,,,2,,,,67,75
601680,note_on,215,0,2,,,,,,,,1,,,,59,75
601680,note_on,215,0,6,,,,,,,,5,,,,62,75
601680,note_on,215,0,5,,,,,,,,4,,,,74,75
601680,note_on,0,0,6,,,,,,,,5,,,,65,75
601680,note_on,215,0,1,,,,,,,,0,,,,79,75
601680,note_on,0,0,4,,,,,,,,3,,,,79,75
601680,note_on,215,0,4,,,,,,,,3,,,,71,75
601760,note_off,80,0,4,,,,,,,,3,,,,79,64
601760,note_off,0,0,4,,,,,,,,3,,,,71,64
601760,note_off,0,0,6,,,,,,,,5,,,,62,64
601760,note_off,80,0,2,,,,,,,,1,,,,59,64
601760,note_off,80,0,1,,,,,,,,0,,,,79,64
601760,note_off,80,0,3,,,,,,,,2,,,,67,64
601760,note_off,0,0,5,,,,,,,,4,,,,74,64
601760,note_off,80,0,5,,,,,,,,4,,,,77,64
601760,note_off,80,0,6,,,,,,,,5,,,,65,64
601920,note_on,0,0,6,,,,,,,,5,,,,65,75
601920,note_on,160,0,4,,,,,,,,3,,,,72,75
601920,note_on,0,0,5,,,,,,,,4,,,,77,75
601920,note_on,160,0,2,,,,,,,,1,,,,60,75
601920,note_on,0,0,4,,,,,,,,3,,,,81,75
601920,note_on,160,0,1,,,,,,,,0,,,,81,75
601920,note_on,160,0,3,,,,,,,,2,,,,69,75
601920,note_on,160,0,5,,,,,,,,4,,,,74,75
601920,note_on,160,0,6,,,,,,,,5,,,,62,75
602280,note_off,1320,0,7,,,,,,,,6,,,,43,64
602280,note_off,1320,0,8,,,,,,,,7,,,,31,64
602320,note_off,400,0,2,,,,,,,,1,,,,60,64
602320,note_off,400,0,3,,,,,,,,2,,,,69,64
602320,note_off,0,0,4,,,,,,,,3,,,,72,64
602320,note_off,400,0,4,,,,,,,,3,,,,81,64
602320,note_off,400,0,1,,,,,,,,0,,,,81,64
602320,note_off,0,0,5,,,,,,,,4,,,,74,64
602320,note_off,400,0,5,,,,,,,,4,,,,77,64
602320,note_off,400,0,6,,,,,,,,5,,,,65,64
602320,note_off,0,0,6,,,,,,,,5,,,,62,64
602400,note_on,0,0,6,,,,,,,,5,,,,65,75
602400,note_on,80,0,1,,,,,,,,0,,,,79,75
602400,note_on,0,0,5,,,,,,,,4,,,,77,75
602400,note_on,80,0,3,,,,,,,,2,,,,67,75
602400,note_on,0,0,4,,,,,,,,3,,,,79,75
602400,note_on,80,0,4,,,,,,,,3,,,,71,75
602400,note_on,120,0,8,,,,,,,,7,,,,31,75
602400,note_on,120,0,7,,,,,,,,6,,,,43,75
602400,note_on,80,0,5,,,,,,,,4,,,,74,75
602400,note_on,80,0,2,,,,,,,,1,,,,59,75
602400,note_on,80,0,6,,,,,,,,5,,,,62,75
602905,note_off,505,0,1,,,,,,,,0,,,,79,64
602905,note_off,505,0,6,,,,,,,,5,,,,65,64
602905,note_off,0,0,5,,,,,,,,4,,,,74,64
602905,note_off,505,0,2,,,,,,,,1,,,,59,64
602905,note_off,0,0,6,,,,,,,,5,,,,62,64
602905,note_off,505,0,4,,,,,,,,3,,,,79,64
602905,note_off,0,0,4,,,,,,,,3,,,,71,64
602905,note_off,505,0,5,,,,,,,,4,,,,77,64
602905,note_off,505,0,3,,,,,,,,2,,,,67,64
603120,note_on,215,0,3,,,,,,,,2,,,,67,75
603120,note_on,0,0,6,,,,,,,,5,,,,65,75
603120,note_on,215,0,6,,,,,,,,5,,,,62,75
603120,note_on,215,0,1,,,,,,,,0,,,,79,75
603120,note_on,0,0,5,,,,,,,,4,,,,77,75
603120,note_on,215,0,2,,,,,,,,1,,,,59,75
603120,note_on,215,0,4,,,,,,,,3,,,,71,75
603120,note_on,0,0,4,,,,,,,,3,,,,79,75
603120,note_on,215,0,5,,,,,,,,4,,,,74,75
603200,note_off,80,0,6,,,,,,,,5,,,,65,64
603200,note_off,0,0,6,,,,,,,,5,,,,62,64
603200,note_off,80,0,2,,,,,,,,1,,,,59,64
603200,note_off,80,0,4,,,,,,,,3,,,,79,64
603200,note_off,0,0,4,,,,,,,,3,,,,71,64
603200,note_off,0,0,5,,,,,,,,4,,,,74,64
603200,note_off,80,0,1,,,,,,,,0,,,,79,64
603200,note_off,80,0,5,,,,,,,,4,,,,77,64
603200,note_off,80,0,3,,,,,,,,2,,,,67,64
603360,note_on,0,0,5,,,,,,,,4,,,,77,75
603360,note_on,160,0,2,,,,,,,,1,,,,60,75
603360,note_on,160,0,1,,,,,,,,0,,,,81,75
603360,note_on,160,0,4,,,,,,,,3,,,,72,75
603360,note_on,160,0,5,,,,,,,,4,,,,74,75
603360,note_on,0,0,6,,,,,,,,5,,,,65,75
603360,note_on,0,0,4,,,,,,,,3,,,,81,75
603360,note_on,160,0,3,,,,,,,,2,,,,69,75
603360,note_on,160,0,6,,,,,,,,5,,,,62,75
603720,note_off,1320,0,7,,,,,,,,6,,,,43,64
603720,note_off,1320,0,8,,,,,,,,7,,,,31,64
603760,note_off,0,0,5,,,,,,,,4,,,,74,64
603760,note_off,400,0,2,,,,,,,,1,,,,60,64
603760,note_off,0,0,4,,,,,,,,3,,,,72,64
603760,note_off,400,0,4,,,,,,,,3,,,,81,64
603760,note_off,400,0,5,,,,,,,,4,,,,77,64
603760,note_off,400,0,1,,,,,,,,0,,,,81,64
603760,note_off,400,0,3,,,,,,,,2,,,,69,64
603760,note_off,0,0,6,,,,,,,,5,,,,62,64
603760,note_off,400,0,6,,,,,,,,5,,,,65,64
603840,note_on,80,0,1,,,,,,,,0,,,,79,75
603840,note_on,120,0,7,,,,,,,,6,,,,43,75
603840,note_on,80,0,6,,,,,,,,5,,,,62,75
603840,note_on,80,0,4,,,,,,,,3,,,,71,75
603840,note_on,0,0,5,,,,,,,,4,,,,77,75
603840,note_on,0,0,4,,,,,,,,3,,,,79,75
603840,note_on,120,0,8,,,,,,,,7,,,,31,75
603840,note_on,0,0,6,,,,,,,,5,,,,65,75
603840,note_on,80,0,5,,,,,,,,4,,,,74,75
603840,note_on,80,0,2,,,,,,,,1,,,,59,75
603840,note_on,80,0,3,,,,,,,,2,,,,67,75
603960,note_off,120,0,7,,,,,,,,6,,,,43,64
603960,note_off,120,0,8,,,,,,,,7,,,,31,64
604240,note_off,0,0,5,,,,,,,,4,,,,74,64
604240,note_off,400,0,5,,,,,,,,4,,,,77,64
604240,note_off,400,0,4,,,,,,,,3,,,,79,64
604240,note_off,400,0,6,,,,,,,,5,,,,65,64
604240,note_off,0,0,6,,,,,,,,5,,,,62,64
604240,note_off,400,0,1,,,,,,,,0,,,,79,64
604240,note_off,400,0,3,,,,,,,,2,,,,67,64
604240,note_off,0,0,4,,,,,,,,3,,,,71,64
604240,note_off,400,0,2,,,,,,,,1,,,,59,64
604320,note_on,360,0,8,,,,,,,,7,,,,33,75
604320,note_on,360,0,7,,,,,,,,6,,,,45,75
604440,note_off,120,0,7,,,,,,,,6,,,,45,64
604440,note_off,120,0,8,,,,,,,,7,,,,33,64
604800,note_on,360,0,7,,,,,,,,6,,,,47,75
604800,note_on,360,0,8,,,,,,,,7,,,,35,75
604920,note_off,120,0,8,,,,,,,,7,,,,35,64
604920,note_off,120,0,7,,,,,,,,6,,,,47,64
605280,note_on,1040,0,5,,,,,,,,4,,,,67,75
605280,note_on,0,0,5,,,,,,,,4,,,,70,75
605280,note_on,0,0,4,,,,,,,,3,,,,72,75
605280,note_on,1040,0,4,,,,,,,,3,,,,64,75
605280,note_on,1040,0,6,,,,,,,,5,,,,67,75
605280,note_on,1040,0,2,,,,,,,,1,,,,64,75
605280,note_on,1040,0,3,,,,,,,,2,,,,70,75
605280,note_on,360,0,7,,,,,,,,6,,,,48,75
605280,note_on,1040,0,1,,,,,,,,0,,,,72,75
605280,note_on,0,0,6,,,,,,,,5,,,,70,75
605280,note_on,360,0,8,,,,,,,,7,,,,36,75
605785,note_off,0,0,5,,,,,,,,4,,,,67,64
605785,note_off,0,0,6,,,,,,,,5,,,,67,64
605785,note_off,505,0,2,,,,,,,,1,,,,64,64
605785,note_off,505,0,4,,,,,,,,3,,,,72,64
605785,note_off,0,0,4,,,,,,,,3,,,,64,64
605785,note_off,505,0,5,,,,,,,,4,,,,70,64
605785,note_off,505,0,6,,,,,,,,5,,,,70,64
605785,note_off,505,0,3,,,,,,,,2,,,,70,64
605785,note_off,505,0,1,,,,,,,,0,,,,72,64
606000,note_on,215,0,4,,,,,,,,3,,,,64,75
606000,note_on,215,0,1,,,,,,,,0,,,,72,75
606000,note_on,0,0,4,,,,,,,,3,,,,72,75
606000,note_on,215,0,6,,,,,,,,5,,,,67,75
606000,note_on,215,0,2,,,,,,,,1,,,,64,75
606000,note_on,215,0,5,,,,,,,,4,,,,67,75
606000,note_on,0,0,5,,,,,,,,4,,,,70,75
606000,note_on,215,0,3,,,,,,,,2,,,,70,75
606000,note_on,0,0,6,,,,,,,,5,,,,70,75
606080,note_off,0,0,5,,,,,,,,4,,,,67,64
606080,note_off,0,0,6,,,,,,,,5,,,,67,64
606080,note_off,80,0,1,,,,,,,,0,,,,72,64
606080,note_off,80,0,5,,,,,,,,4,,,,70,64
606080,note_off,80,0,3,,,,,,,,2,,,,70,64
606080,note_off,80,0,2,,,,,,,,1,,,,64,64
606080,note_off,80,0,4,,,,,,,,3,,,,72,64
606080,note_off,0,0,4,,,,,,,,3,,,,64,64
606080,note_off,80,0,6,,,,,,,,5,,,,70,64
606240,note_on,0,0,5,,,,,,,,4,,,,70,75
606240,note_on,0,0,6,,,,,,,,5,,,,70,75
606240,note_on,0,0,4,,,,,,,,3,,,,74,75
606240,note_on,160,0,6,,,,,,,,5,,,,67,75
606240,note_on,160,0,1,,,,,,,,0,,,,74,75
606240,note_on,160,0,3,,,,,,,,2,,,,70,75
606240,note_on,160,0,2,,,,,,,,1,,,,65,75
606240,note_on,160,0,4,,,,,,,,3,,,,65,75
606240,note_on,160,0,5,,,,,,,,4,,,,67,75
606600,note_off,1320,0,8,,,,,,,,7,,,,36,64
606600,note_off,1320,0,7,,,,,,,,6,,,,48,64
606640,note_off,400,0,5,,,,,,,,4,,,,70,64
606640,note_off,400,0,6,,,,,,,,5,,,,70,64
606640,note_off,0,0,5,,,,,,,,4,,,,67,64
606640,note_off,400,0,4,,,,,,,,3,,,,74,64
606640,note_off,400,0,3,,,,,,,,2,,,,70,64
606640,note_off,0,0,6,,,,,,,,5,,,,67,64
606640,note_off,400,0,1,,,,,,,,0,,,,74,64
606640,note_off,400,0,2,,,,,,,,1,,,,65,64
606640,note_off,0,0,4,,,,,,,,3,,,,65,64
606720,note_on,80,0,3,,,,,,,,2,,,,70,75
606720,note_on,80,0,2,,,,,,,,1,,,,64,75
606720,note_on,80,0,1,,,,,,,,0,,,,72,75
606720,note_on,80,0,6,,,,,,,,5,,,,67,75
606720,note_on,0,0,4,,,,,,,,3,,,,72,75
606720,note_on,0,0,6,,,,,,,,5,,,,70,75
606720,note_on,80,0,5,,,,,,,,4,,,,67,75
606720,note_on,0,0,5,,,,,,,,4,,,,70,75
606720,note_on,120,0,7,,,,,,,,6,,,,48,75
606720,note_on,80,0,4,,,,,,,,3,,,,64,75
606720,note_on,120,0,8,,,,,,,,7,,,,36,75
607225,note_off,0,0,4,,,,,,,,3,,,,64,64
607225,note_off,505,0,4,,,,,,,,3,,,,72,64
607225,note_off,505,0,5,,,,,,,,4,,,,70,64
607225,note_off,505,0,6,,,,,,,,5,,,,70,64
607225,note_off,505,0,1,,,,,,,,0,,,,72,64
607225,note_off,505,0,3,,,,,,,,2,,,,70,64
607225,note_off,505,0,2,,,,,,,,1,,,,64,64
607225,note_off,0,0,5,,,,,,,,4,,,,67,64
607225,note_off,0,0,6,,,,,,,,5,,,,67,64
607440,note_on,0,0,5,,,,,,,,4,,,,70,75
607440,note_on,0,0,6,,,,,,,,5,,,,70,75
607440,note_on,0,0,4,,,,,,,,3,,,,72,75
607440,note_on,215,0,4,,,,,,,,3,,,,64,75
607440,note_on,215,0,1,,,,,,,,0,,,,72,75
607440,note_on,215,0,3,,,,,,,,2,,,,70,75
607440,note_on,215,0,6,,,,,,,,5,,,,67,75
607440,note_on,215,0,2,,,,,,,,1,,,,64,75
607440,note_on,215,0,5,,,,,,,,4,,,,67,75
607520,note_off,80,0,4,,,,,,,,3,,,,72,64
607520,note_off,80,0,2,,,,,,,,1,,,,64,64
607520,note_off,0,0,4,,,,,,,,3,,,,64,64
607520,note_off,80,0,6,,,,,,,,5,,,,70,64
607520,note_off,0,0,6,,,,,,,,5,,,,67,64
607520,note_off,80,0,1,,,,,,,,0,,,,72,64
607520,note_off,0,0,5,,,,,,,,4,,,,67,64
607520,note_off,80,0,3,,,,,,,,2,,,,70,64
607520,note_off,80,0,5,,,,,,,,4,,,,70,64
607680,note_on,160,0,4,,,,,,,,3,,,,65,75
607680,note_on,160,0,5,,,,,,,,4,,,,67,75
607680,note_on,0,0,5,,,,,,,,4,,,,70,75
607680,note_on,160,0,2,,,,,,,,1,,,,65,75
607680,note_on,160,0,6,,,,,,,,5,,,,67,75
607680,note_on,160,0,3,,,,,,,,2,,,,70,75
607680,note_on,160,0,1,,,,,,,,0,,,,74,75
607680,note_on,0,0,6,,,,,,,,5,,,,70,75
607680,note_on,0,0,4,,,,,,,,3,,,,74,75
608040,note_off,1320,0,7,,,,,,,,6,,,,48,64
608040,note_off,1320,0,8,,,,,,,,7,,,,36,64
608080,note_off,400,0,2,,,,,,,,1,,,,65,64
608080,note_off,400,0,4,,,,,,,,3,,,,74,64
608080,note_off,400,0,5,,,,,,,,4,,,,70,64
608080,note_off,400,0,3,,,,,,,,2,,,,70,64
608080,note_off,400,0,6,,,,,,,,5,,,,70,64
608080,note_off,400,0,1,,,,,,,,0,,,,74,64
608080,note_off,0,0,6,,,,,,,,5,,,,67,64
608080,note_off,0,0,4,,,,,,,,3,,,,65,64
608080,note_off,0,0,5,,,,,,,,4,,,,67,64
608160,note_on,80,0,4,,,,,,,,3,,,,64,75
608160,note_on,0,0,4,,,,,,,,3,,,,72,75
608160,note_on,80,0,1,,,,,,,,0,,,,72,75
608160,note_on,120,0,7,,,,,,,,6,,,,48,75
608160,note_on,120,0,8,,,,,,,,7,,,,36,75
608160,note_on,80,0,5,,,,,,,,4,,,,67,75
608160,note_on,0,0,5,,,,,,,,4,,,,70,75
608160,note_on,0,0,6,,,,,,,,5,,,,70,75
608160,note_on,80,0,6,,,,,,,,5,,,,67,75
608160,note_on,80,0,2,,,,,,,,1,,,,64,75
608160,note_on,80,0,3,,,,,,,,2,,,,70,75
608665,note_off,505,0,6,,,,,,,,5,,,,70,64
608665,note_off,0,0,6,,,,,,,,5,,,,67,64
608665,note_off,505,0,2,,,,,,,,1,,,,64,64
608665,note_off,505,0,3,,,,,,,,2,,,,70,64
608665,note_off,0,0,4,,,,,,,,3,,,,64,64
608665,note_off,505,0,5,,,,,,,,4,,,,70,64
608665,note_off,0,0,5,,,,,,,,4,,,,67,64
608665,note_off,505,0,1,,,,,,,,0,,,,72,64
608665,note_off,505,0,4,,,,,,,,3,,,,72,64
608880,note_on,0,0,5,,,,,,,,4,,,,70,75
608880,note_on,215,0,5,,,,,,,,4,,,,67,75
608880,note_on,215,0,1,,,,,,,,0,,,,72,75
608880,note_on,215,0,3,,,,,,,,2,,,,70,75
608880,note_on,0,0,4,,,,,,,,3,,,,72,75
608880,note_on,215,0,6,,,,,,,,5,,,,67,75
608880,note_on,0,0,6,,,,,,,,5,,,,70,75
608880,note_on,215,0,4,,,,,,,,3,,,,64,75
608880,note_on,215,0,2,,,,,,,,1,,,,64,75
608960,note_off,80,0,2,,,,,,,,1,,,,64,64
608960,note_off,80,0,4,,,,,,,,3,,,,72,64
608960,note_off,0,0,4,,,,,,,,3,,,,64,64
608960,note_off,80,0,6,,,,,,,,5,,,,70,64
608960,note_off,80,0,3,,,,,,,,2,,,,70,64
608960,note_off,80,0,5,,,,,,,,4,,,,70,64
608960,note_off,80,0,1,,,,,,,,0,,,,72,64
608960,note_off,0,0,6,,,,,,,,5,,,,67,64
608960,note_off,0,0,5,,,,,,,,4,,,,67,64
609120,note_on,160,0,4,,,,,,,,3,,,,65,75
609120,note_on,160,0,3,,,,,,,,2,,,,70,75
609120,note_on,160,0,1,,,,,,,,0,,,,74,75
609120,note_on,0,0,4,,,,,,,,3,,,,74,75
609120,note_on,160,0,2,,,,,,,,1,,,,65,75
609120,note_on,160,0,6,,,,,,,,5,,,,67,75
609120,note_on,0,0,6,,,,,,,,5,,,,70,75
609120,note_on,0,0,5,,,,,,,,4,,,,70,75
609120,note_on,160,0,5,,,,,,,,4,,,,67,75
609480,note_off,1320,0,8,,,,,,,,7,,,,36,64
609480,note_off,1320,0,7,,,,,,,,6,,,,48,64
609520,note_off,400,0,1,,,,,,,,0,,,,74,64
609520,note_off,400,0,3,,,,,,,,2,,,,70,64
609520,note_off,400,0,6,,,,,,,,5,,,,70,64
609520,note_off,0,0,6,,,,,,,,5,,,,67,64
609520,note_off,400,0,4,,,,,,,,3,,,,74,64
609520,note_off,400,0,2,,,,,,,,1,,,,65,64
609520,note_off,0,0,4,,,,,,,,3,,,,65,64
609520,note_off,0,0,5,,,,,,,,4,,,,67,64
609520,note_off,400,0,5,,,,,,,,4,,,,70,64
609600,note_on,0,0,6,,,,,,,,5,,,,70,75
609600,note_on,80,0,1,,,,,,,,0,,,,72,75
609600,note_on,120,0,8,,,,,,,,7,,,,36,75
609600,note_on,80,0,6,,,,,,,,5,,,,67,75
609600,note_on,0,0,5,,,,,,,,4,,,,70,75
609600,note_on,80,0,5,,,,,,,,4,,,,67,75
609600,note_on,80,0,3,,,,,,,,2,,,,70,75
609600,note_on,80,0,4,,,,,,,,3,,,,64,75
609600,note_on,80,0,2,,,,,,,,1,,,,64,75
609600,note_on,0,0,4,,,,,,,,3,,,,72,75
609600,note_on,120,0,7,,,,,,,,6,,,,48,75
609720,note_off,120,0,7,,,,,,,,6,,,,48,64
609720,note_off,120,0,8,,,,,,,,7,,,,36,64
610000,note_off,400,0,2,,,,,,,,1,,,,64,64
610000,note_off,0,0,5,,,,,,,,4,,,,67,64
610000,note_off,400,0,5,,,,,,,,4,,,,70,64
610000,note_off,400,0,1,,,,,,,,0,,,,72,64
610000,note_off,400,0,4,,,,,,,,3,,,,72,64
610000,note_off,400,0,6,,,,,,,,5,,,,70,64
610000,note_off,0,0,6,,,,,,,,5,,,,67,64
610000,note_off,0,0,4,,,,,,,,3,,,,64,64
610000,note_off,400,0,3,,,,,,,,2,,,,70,64
610080,note_on,360,0,8,,,,,,,,7,,,,38,75
610080,note_on,360,0,7,,,,,,,,6,,,,50,75
610200,note_off,120,0,8,,,,,,,,7,,,,38,64
610200,note_off,120,0,7,,,,,,,,6,,,,50,64
610560,note_on,360,0,8,,,,,,,,7,,,,40,60
610560,note_on,360,0,7,,,,,,,,6,,,,52,60
610680,note_off,120,0,8,,,,,,,,7,,,,40,64
610680,note_off,120,0,7,,,,,,,,6,,,,52,64
611040,note_on,360,0,8,,,,,,,,7,,,,41,45
611040,note_on,1040,0,1,,,,,,,,0,,,,77,60
611040,note_on,360,0,7,,,,,,,,6,,,,53,45
611440,note_off,400,0,7,,,,,,,,6,,,,53,64
611440,note_off,400,0,8,,,,,,,,7,,,,41,64
611635,note_off,595,0,1,,,,,,,,0,,,,77,64
611760,note_on,125,0,1,,,,,,,,0,,,,77,60
611840,note_off,80,0,1,,,,,,,,0,,,,77,64
612000,note_on,2000,0,4,,,,,,,,3,,,,65,45
612000,note_on,2000,0,5,,,,,,,,4,,,,60,45
612000,note_on,2000,0,6,,,,,,,,5,,,,57,45
612000,note_on,160,0,1,,,,,,,,0,,,,79,60
612400,note_off,400,0,4,,,,,,,,3,,,,65,64
612400,note_off,400,0,5,,,,,,,,4,,,,60,64
612400,note_off,400,0,6,,,,,,,,5,,,,57,64
612400,note_off,400,0,1,,,,,,,,0,,,,79,64
612480,note_on,1040,0,7,,,,,,,,6,,,,50,45
612480,note_on,80,0,1,,,,,,,,0,,,,77,60
612480,note_on,1040,0,8,,,,,,,,7,,,,38,45
612880,note_off,400,0,8,,,,,,,,7,,,,38,64
612880,note_off,400,0,7,,,,,,,,6,,,,50,64
613075,note_off,595,0,1,,,,,,,,0,,,,77,64
613200,note_on,125,0,1,,,,,,,,0,,,,77,60
613280,note_off,80,0,1,,,,,,,,0,,,,77,64
613440,note_on,160,0,1,,,,,,,,0,,,,79,60
613440,note_on,1040,0,5,,,,,,,,4,,,,62,45
613440,note_on,1040,0,4,,,,,,,,3,,,,65,45
613440,note_on,1040,0,6,,,,,,,,5,,,,57,45
613840,note_off,400,0,5,,,,,,,,4,,,,62,64
613840,note_off,400,0,4,,,,,,,,3,,,,65,64
613840,note_off,400,0,6,,,,,,,,5,,,,57,64
613840,note_off,400,0,1,,,,,,,,0,,,,79,64
613920,note_on,1040,0,8,,,,,,,,7,,,,35,45
613920,note_on,80,0,1,,,,,,,,0,,,,77,60
613920,note_on,1040,0,7,,,,,,,,6,,,,47,45
614320,note_off,400,0,8,,,,,,,,7,,,,35,64
614320,note_off,400,0,7,,,,,,,,6,,,,47,64
614515,note_off,595,0,1,,,,,,,,0,,,,77,64
614640,note_on,125,0,1,,,,,,,,0,,,,77,60
614720,note_off,80,0,1,,,,,,,,0,,,,77,64
614880,note_on,1040,0,6,,,,,,,,5,,,,56,45
614880,note_on,160,0,1,,,,,,,,0,,,,79,60
614880,note_on,1040,0,5,,,,,,,,4,,,,62,45
614880,note_on,1040,0,4,,,,,,,,3,,,,65,45
615280,note_off,400,0,6,,,,,,,,5,,,,56,64
615280,note_off,400,0,1,,,,,,,,0,,,,79,64
615280,note_off,400,0,4,,,,,,,,3,,,,65,64
615280,note_off,400,0,5,,,,,,,,4,,,,62,64
615360,note_on,80,0,1,,,,,,,,0,,,,77,60
615360,note_on,1040,0,7,,,,,,,,6,,,,44,45
615360,note_on,1040,0,8,,,,,,,,7,,,,32,45
615760,note_off,400,0,8,,,,,,,,7,,,,32,64
615760,note_off,400,0,7,,,,,,,,6,,,,44,64
615955,note_off,595,0,1,,,,,,,,0,,,,77,64
616080,note_on,125,0,1,,,,,,,,0,,,,77,60
616160,note_off,80,0,1,,,,,,,,0,,,,77,64
616320,note_on,1040,0,4,,,,,,,,3,,,,65,45
616320,note_on,1040,0,6,,,,,,,,5,,,,59,45
616320,note_on,160,0,1,,,,,,,,0,,,,79,60
616320,note_on,1040,0,5,,,,,,,,4,,,,62,45
616720,note_off,400,0,1,,,,,,,,0,,,,79,64
616720,note_off,400,0,4,,,,,,,,3,,,,65,64
616720,note_off,400,0,6,,,,,,,,5,,,,59,64
616720,note_off,400,0,5,,,,,,,,4,,,,62,64
616800,note_on,1040,0,8,,,,,,,,7,,,,33,45
616800,note_on,1040,0,7,,,,,,,,6,,,,45,45
616800,note_on,80,0,4,,,,,,,,3,,,,64,45
616800,note_on,80,0,5,,,,,,,,4,,,,60,45
616800,note_on,80,0,1,,,,,,,,0,,,,76,60
616800,note_on,80,0,6,,,,,,,,5,,,,57,45
617200,note_off,400,0,7,,,,,,,,6,,,,45,64
617200,note_off,400,0,8,,,,,,,,7,,,,33,64
617395,note_off,595,0,1,,,,,,,,0,,,,76,64
617395,note_off,595,0,4,,,,,,,,3,,,,64,64
617440,note_off,640,0,6,,,,,,,,5,,,,57,64
617440,note_off,640,0,5,,,,,,,,4,,,,60,64
617520,note_on,125,0,4,,,,,,,,3,,,,64,45
617520,note_on,80,0,6,,,,,,,,5,,,,57,45
617520,note_on,80,0,5,,,,,,,,4,,,,60,45
617520,note_on,125,0,1,,,,,,,,0,,,,76,60
617600,note_off,80,0,1,,,,,,,,0,,,,76,64
617600,note_off,80,0,4,,,,,,,,3,,,,64,64
617755,note_off,235,0,5,,,,,,,,4,,,,60,64
617755,note_off,235,0,6,,,,,,,,5,,,,57,64
617760,note_on,5,0,5,,,,,,,,4,,,,62,45
617760,note_on,5,0,6,,,,,,,,5,,,,57,45
617760,note_on,160,0,1,,,,,,,,0,,,,77,60
617760,note_on,160,0,4,,,,,,,,3,,,,65,45
618160,note_off,400,0,4,,,,,,,,3,,,,65,64
618160,note_off,400,0,6,,,,,,,,5,,,,57,64
618160,note_off,400,0,1,,,,,,,,0,,,,77,64
618160,note_off,400,0,5,,,,,,,,4,,,,62,64
618240,note_on,80,0,1,,,,,,,,0,,,,76,60
618240,note_on,1040,0,8,,,,,,,,7,,,,33,45
618240,note_on,1040,0,7,,,,,,,,6,,,,45,45
618240,note_on,80,0,6,,,,,,,,5,,,,57,45
618240,note_on,80,0,5,,,,,,,,4,,,,60,45
618240,note_on,80,0,4,,,,,,,,3,,,,64,45
618640,note_off,400,0,8,,,,,,,,7,,,,33,64
618640,note_off,400,0,7,,,,,,,,6,,,,45,64
618835,note_off,595,0,4,,,,,,,,3,,,,64,64
618835,note_off,595,0,1,,,,,,,,0,,,,76,64
618880,note_off,640,0,6,,,,,,,,5,,,,57,64
618880,note_off,640,0,5,,,,,,,,4,,,,60,64
618960,note_on,80,0,5,,,,,,,,4,,,,60,45
618960,note_on,80,0,6,,,,,,,,5,,,,57,45
618960,note_on,125,0,4,,,,,,,,3,,,,64,45
618960,note_on,125,0,1,,,,,,,,0,,,,76,60
619040,note_off,80,0,4,,,,,,,,3,,,,64,64
619040,note_off,80,0,1,,,,,,,,0,,,,76,64
619195,note_off,235,0,5,,,,,,,,4,,,,60,64
619195,note_off,235,0,6,,,,,,,,5,,,,57,64
619200,note_on,160,0,1,,,,,,,,0,,,,77,60
619200,note_on,5,0,6,,,,,,,,5,,,,57,45
619200,note_on,5,0,5,,,,,,,,4,,,,62,45
619200,note_on,160,0,4,,,,,,,,3,,,,65,45
619600,note_off,400,0,4,,,,,,,,3,,,,65,64
619600,note_off,400,0,6,,,,,,,,5,,,,57,64
619600,note_off,400,0,1,,,,,,,,0,,,,77,64
619600,note_off,400,0,5,,,,,,,,4,,,,62,64
619680,note_on,80,0,6,,,,,,,,5,,,,55,45
619680,note_on,80,0,4,,,,,,,,3,,,,64,45
619680,note_on,1040,0,7,,,,,,,,6,,,,43,45
619680,note_on,80,0,1,,,,,,,,0,,,,76,60
619680,note_on,80,0,5,,,,,,,,4,,,,60,45
619680,note_on,1040,0,8,,,,,,,,7,,,,31,45
619800,note_off,120,0,1,,,,,,,,0,,,,76,64
619800,note_off,120,0,4,,,,,,,,3,,,,64,64
620080,note_off,400,0,5,,,,,,,,4,,,,60,64
620080,note_off,400,0,8,,,,,,,,7,,,,31,64
620080,note_off,400,0,6,,,,,,,,5,,,,55,64
620080,note_off,400,0,7,,,,,,,,6,,,,43,64
620160,note_on,80,0,6,,,,,,,,5,,,,55,45
620160,note_on,80,0,8,,,,,,,,7,,,,31,45
620160,note_on,360,0,1,,,,,,,,0,,,,76,60
620160,note_on,80,0,7,,,,,,,,6,,,,43,45
620160,note_on,360,0,4,,,,,,,,3,,,,64,45
620160,note_on,80,0,5,,,,,,,,4,,,,60,45
620280,note_off,120,0,1,,,,,,,,0,,,,76,64
620280,note_off,120,0,4,,,,,,,,3,,,,64,64
620560,note_off,400,0,8,,,,,,,,7,,,,31,64
620560,note_off,400,0,7,,,,,,,,6,,,,43,64
620560,note_off,400,0,5,,,,,,,,4,,,,60,64
620560,note_off,400,0,6,,,,,,,,5,,,,55,64
620640,note_on,80,0,6,,,,,,,,5,,,,55,45
620640,note_on,360,0,4,,,,,,,,3,,,,62,45
620640,note_on,80,0,5,,,,,,,,4,,,,59,45
620640,note_on,80,0,7,,,,,,,,6,,,,43,45
620640,note_on,360,0,1,,,,,,,,0,,,,74,60
620640,note_on,80,0,8,,,,,,,,7,,,,31,45
620760,note_off,120,0,4,,,,,,,,3,,,,62,64
620760,note_off,120,0,1,,,,,,,,0,,,,74,64
621040,note_off,400,0,6,,,,,,,,5,,,,55,64
621040,note_off,400,0,7,,,,,,,,6,,,,43,64
621040,note_off,400,0,5,,,,,,,,4,,,,59,64
621040,note_off,400,0,8,,,,,,,,7,,,,31,64
621120,note_on,80,0,7,,,,,,,,6,,,,48,45
621120,note_on,360,0,4,,,,,,,,3,,,,60,45
621120,note_on,80,0,6,,,,,,,,5,,,,52,45
621120,note_on,80,0,8,,,,,,,,7,,,,36,45
621120,note_on,360,0,1,,,,,,,,0,,,,72,60
621120,note_on,80,0,5,,,,,,,,4,,,,60,45
621360,note_off,240,0,1,,,,,,,,0,,,,72,64
621360,note_on,0,0,1,,,,,,,,0,,,,71,60
621360,note_on,0,0,4,,,,,,,,3,,,,59,45
621360,note_off,240,0,4,,,,,,,,3,,,,60,64
621520,note_off,400,0,7,,,,,,,,6,,,,48,64
621520,note_off,400,0,6,,,,,,,,5,,,,52,64
621520,note_off,400,0,8,,,,,,,,7,,,,36,64
621520,note_off,400,0,5,,,,,,,,4,,,,60,64
621600,note_off,240,0,1,,,,,,,,0,,,,71,64
621600,note_off,240,0,4,,,,,,,,3,,,,59,64
621600,note_on,0,0,4,,,,,,,,3,,,,57,45
621600,note_on,0,0,1,,,,,,,,0,,,,69,60
621840,note_on,0,0,4,,,,,,,,3,,,,59,45
621840,note_off,240,0,4,,,,,,,,3,,,,57,64
621840,note_on,0,0,1,,,,,,,,0,,,,71,60
621840,note_off,240,0,1,,,,,,,,0,,,,69,64
622080,note_off,240,0,4,,,,,,,,3,,,,59,64
622080,note_on,0,0,4,,,,,,,,3,,,,60,45
622080,note_off,240,0,1,,,,,,,,0,,,,71,64
622080,note_on,0,0,1,,,,,,,,0,,,,72,60
622320,note_on,0,0,4,,,,,,,,3,,,,62,45
622320,note_off,240,0,4,,,,,,,,3,,,,60,64
622320,note_off,240,0,1,,,,,,,,0,,,,72,64
622320,note_on,0,0,1,,,,,,,,0,,,,74,60
622560,note_on,1040,0,5,,,,,,,,4,,,,61,45
622560,note_off,240,0,1,,,,,,,,0,,,,74,64
622560,note_on,1040,0,8,,,,,,,,7,,,,33,45
622560,note_on,0,0,1,,,,,,,,0,,,,76,60
622560,note_off,240,0,4,,,,,,,,3,,,,62,64
622560,note_on,1040,0,6,,,,,,,,5,,,,57,45
622560,note_on,1040,0,7,,,,,,,,6,,,,45,45
622560,note_on,0,0,4,,,,,,,,3,,,,64,45
622960,note_off,400,0,7,,,,,,,,6,,,,45,64
622960,note_off,400,0,8,,,,,,,,7,,,,33,64
623155,note_off,595,0,4,,,,,,,,3,,,,64,64
623155,note_off,595,0,6,,,,,,,,5,,,,57,64
623155,note_off,595,0,5,,,,,,,,4,,,,61,64
623155,note_off,595,0,1,,,,,,,,0,,,,76,64
623280,note_on,125,0,6,,,,,,,,5,,,,57,45
623280,note_on,125,0,5,,,,,,,,4,,,,61,45
623280,note_on,125,0,4,,,,,,,,3,,,,64,45
623280,note_on,125,0,1,,,,,,,,0,,,,76,60
623360,note_off,80,0,1,,,,,,,,0,,,,76,64
623360,note_off,80,0,5,,,,,,,,4,,,,61,64
623360,note_off,80,0,4,,,,,,,,3,,,,64,64
623360,note_off,80,0,6,,,,,,,,5,,,,57,64
623520,note_on,160,0,1,,,,,,,,0,,,,77,60
623520,note_on,160,0,6,,,,,,,,5,,,,57,45
623520,note_on,560,0,7,,,,,,,,6,,,,50,45
623520,note_on,160,0,4,,,,,,,,3,,,,65,45
623520,note_on,160,0,5,,,,,,,,4,,,,62,45
623520,note_on,560,0,8,,,,,,,,7,,,,38,45
623920,note_off,400,0,1,,,,,,,,0,,,,77,64
623920,note_off,400,0,4,,,,,,,,3,,,,65,64
623920,note_off,400,0,6,,,,,,,,5,,,,57,64
623920,note_off,400,0,8,,,,,,,,7,,,,38,64
623920,note_off,400,0,5,,,,,,,,4,,,,62,64
623920,note_off,400,0,7,,,,,,,,6,,,,50,64
624000,note_on,80,0,1,,,,,,,,0,,,,76,60
624000,note_on,80,0,6,,,,,,,,5,,,,57,45
624000,note_on,80,0,8,,,,,,,,7,,,,33,45
624000,note_on,80,0,4,,,,,,,,3,,,,64,45
624000,note_on,80,0,5,,,,,,,,4,,,,61,45
624000,note_on,80,0,7,,,,,,,,6,,,,45,45
624400,note_off,400,0,8,,,,,,,,7,,,,33,64
624400,note_off,400,0,7,,,,,,,,6,,,,45,64
624595,note_off,595,0,4,,,,,,,,3,,,,64,64
624595,note_off,595,0,1,,,,,,,,0,,,,76,64
624595,note_off,595,0,6,,,,,,,,5,,,,57,64
624595,note_off,595,0,5,,,,,,,,4,,,,61,64
624720,note_on,125,0,1,,,,,,,,0,,,,76,58
624720,note_on,125,0,4,,,,,,,,3,,,,64,45
624720,note_on,125,0,6,,,,,,,,5,,,,57,45
624720,note_on,125,0,5,,,,,,,,4,,,,61,45
624800,note_off,80,0,1,,,,,,,,0,,,,76,64
624800,note_off,80,0,5,,,,,,,,4,,,,61,64
624800,note_off,80,0,6,,,,,,,,5,,,,57,64
624800,note_off,80,0,4,,,,,,,,3,,,,64,64
624960,note_on,160,0,5,,,,,,,,4,,,,62,45
624960,note_on,560,0,8,,,,,,,,7,,,,38,45
624960,note_on,560,0,7,,,,,,,,6,,,,50,45
624960,note_on,160,0,6,,,,,,,,5,,,,57,45
624960,note_on,160,0,4,,,,,,,,3,,,,65,45
624960,note_on,160,0,1,,,,,,,,0,,,,77,57
625080,note_off,120,0,5,,,,,,,,4,,,,62,64
625360,note_off,400,0,1,,,,,,,,0,,,,77,64
625360,note_off,400,0,8,,,,,,,,7,,,,38,64
625360,note_off,400,0,4,,,,,,,,3,,,,65,64
625360,note_off,400,0,6,,,,,,,,5,,,,57,64
625360,note_off,400,0,7,,,,,,,,6,,,,50,64
625440,note_on,80,0,7,,,,,,,,6,,,,43,45
625440,note_on,80,0,4,,,,,,,,3,,,,64,45
625440,note_on,80,0,1,,,,,,,,0,,,,76,54
625440,note_on,80,0,8,,,,,,,,7,,,,31,45
625440,note_on,360,0,5,,,,,,,,4,,,,60,45
625440,note_on,80,0,6,,,,,,,,5,,,,55,45
625560,note_off,120,0,5,,,,,,,,4,,,,60,64
625560,note_off,120,0,7,,,,,,,,6,,,,43,64
625560,note_off,120,0,6,,,,,,,,5,,,,55,64
625560,note_off,120,0,8,,,,,,,,7,,,,31,64
625560,note_off,120,0,4,,,,,,,,3,,,,64,64
625560,note_off,120,0,1,,,,,,,,0,,,,76,64
625920,note_on,360,0,5,,,,,,,,4,,,,60,45
625920,note_on,360,0,1,,,,,,,,0,,,,76,51
625920,note_on,360,0,6,,,,,,,,5,,,,55,45
625920,note_on,360,0,8,,,,,,,,7,,,,31,45
625920,note_on,360,0,7,,,,,,,,6,,,,43,45
625920,note_on,360,0,4,,,,,,,,3,,,,64,45
626040,note_off,120,0,1,,,,,,,,0,,,,76,64
626040,note_off,120,0,8,,,,,,,,7,,,,31,64
626040,note_off,120,0,6,,,,,,,,5,,,,55,64
626040,note_off,120,0,7,,,,,,,,6,,,,43,64
626040,note_off,120,0,5,,,,,,,,4,,,,60,64
626040,note_off,120,0,4,,,,,,,,3,,,,64,64
626400,note_on,360,0,6,,,,,,,,5,,,,55,45
626400,note_on,360,0,4,,,,,,,,3,,,,62,45
626400,note_on,360,0,1,,,,,,,,0,,,,74,48
626400,note_on,360,0,5,,,,,,,,4,,,,59,45
626400,note_on,360,0,7,,,,,,,,6,,,,43,45
626400,note_on,360,0,8,,,,,,,,7,,,,31,45
626520,note_off,120,0,7,,,,,,,,6,,,,43,64
626520,note_off,120,0,6,,,,,,,,5,,,,55,64
626520,note_off,120,0,1,,,,,,,,0,,,,74,64
626520,note_off,120,0,5,,,,,,,,4,,,,59,64
626520,note_off,120,0,4,,,,,,,,3,,,,62,64
626520,note_off,120,0,8,,,,,,,,7,,,,31,64
626880,note_on,360,0,5,,,,,,,,4,,,,60,45
626880,note_on,360,0,8,,,,,,,,7,,,,36,45
626880,note_on,360,0,7,,,,,,,,6,,,,48,45
626880,note_on,360,0,6,,,,,,,,5,,,,52,45
626880,note_on,360,0,4,,,,,,,,3,,,,60,45
626880,note_on,360,0,1,,,,,,,,0,,,,72,45
627000,note_off,120,0,7,,,,,,,,6,,,,48,64
627000,note_off,120,0,8,,,,,,,,7,,,,36,64
627280,note_off,400,0,6,,,,,,,,5,,,,52,64
627280,note_off,400,0,4,,,,,,,,3,,,,60,64
627280,note_off,400,0,5,,,,,,,,4,,,,60,64
627280,note_off,400,0,1,,,,,,,,0,,,,72,64
627840,program_change,560,0,6,,,,,,,,5,,,50,,
627840,note_on,0,0,6,,,,,,,,5,,,,54,92
627840,note_on,840,0,8,,,,,,,,7,,,,42,92
627840,note_on,840,0,7,,,,,,,,6,,,,54,92
627840,note_on,560,0,4,,,,,,,,3,,,,66,92
628000,note_on,0,0,6,,,,,,,,5,,,,55,92
628000,note_off,160,0,6,,,,,,,,5,,,,54,64
628000,note_on,0,0,4,,,,,,,,3,,,,67,92
628000,note_off,160,0,7,,,,,,,,6,,,,54,64
628000,note_on,0,0,7,,,,,,,,6,,,,55,92
628000,note_on,0,0,8,,,,,,,,7,,,,43,92
628000,note_off,160,0,8,,,,,,,,7,,,,42,64
628000,note_off,160,0,4,,,,,,,,3,,,,66,64
628160,note_on,0,0,8,,,,,,,,7,,,,45,92
628160,note_off,160,0,8,,,,,,,,7,,,,43,64
628160,note_off,160,0,6,,,,,,,,5,,,,55,64
628160,note_on,0,0,6,,,,,,,,5,,,,57,92
628160,note_on,0,0,7,,,,,,,,6,,,,57,92
628160,note_off,160,0,7,,,,,,,,6,,,,55,64
628160,note_on,0,0,4,,,,,,,,3,,,,69,92
628160,note_off,160,0,4,,,,,,,,3,,,,67,64
628315,note_off,155,0,7,,,,,,,,6,,,,57,64
628315,note_off,155,0,4,,,,,,,,3,,,,69,64
628315,note_off,155,0,6,,,,,,,,5,,,,57,64
628315,note_off,155,0,8,,,,,,,,7,,,,45,64
628320,note_on,5,0,8,,,,,,,,7,,,,46,92
628320,program_change,5,0,6,,,,,,,,5,,,50,,
628320,note_on,0,0,6,,,,,,,,5,,,,58,92
628320,note_on,5,0,4,,,,,,,,3,,,,70,92
628320,set_tempo,52020,1,0,229007,,,,,,,,,,,,
628320,note_on,5,0,7,,,,,,,,6,,,,58,92
628825,note_off,505,0,6,,,,,,,,5,,,,58,64
628825,note_off,505,0,8,,,,,,,,7,,,,46,64
628825,note_off,505,0,4,,,,,,,,3,,,,70,64
628825,note_off,505,0,7,,,,,,,,6,,,,58,64
629040,note_on,215,0,7,,,,,,,,6,,,,58,92
629040,note_on,215,0,4,,,,,,,,3,,,,70,92
629040,note_on,215,0,6,,,,,,,,5,,,,58,92
629040,note_on,215,0,8,,,,,,,,7,,,,46,92
629120,note_off,80,0,7,,,,,,,,6,,,,58,64
629120,note_off,80,0,6,,,,,,,,5,,,,58,64
629120,note_off,80,0,8,,,,,,,,7,,,,46,64
629120,note_off,80,0,4,,,,,,,,3,,,,70,64
629280,note_on,160,0,4,,,,,,,,3,,,,72,92
629280,note_on,160,0,8,,,,,,,,7,,,,48,92
629280,note_on,160,0,6,,,,,,,,5,,,,60,92
629280,note_on,160,0,7,,,,,,,,6,,,,60,92
629680,note_off,400,0,8,,,,,,,,7,,,,48,64
629680,note_off,400,0,7,,,,,,,,6,,,,60,64
629680,note_off,400,0,6,,,,,,,,5,,,,60,64
629680,note_off,400,0,4,,,,,,,,3,,,,72,64
629760,set_tempo,1440,1,0,247933,,,,,,,,,,,,
629760,note_on,80,0,8,,,,,,,,7,,,,46,92
629760,note_on,80,0,4,,,,,,,,3,,,,70,92
629760,note_on,80,0,7,,,,,,,,6,,,,58,92
629760,note_on,80,0,6,,,,,,,,5,,,,58,92
630265,note_off,505,0,7,,,,,,,,6,,,,58,64
630265,note_off,505,0,8,,,,,,,,7,,,,46,64
630265,note_off,505,0,4,,,,,,,,3,,,,70,64
630265,note_off,505,0,6,,,,,,,,5,,,,58,64
630480,note_on,215,0,4,,,,,,,,3,,,,70,92
630480,note_on,215,0,7,,,,,,,,6,,,,58,92
630480,note_on,215,0,8,,,,,,,,7,,,,46,92
630480,note_on,215,0,6,,,,,,,,5,,,,58,92
630560,note_off,80,0,7,,,,,,,,6,,,,58,64
630560,note_off,80,0,6,,,,,,,,5,,,,58,64
630560,note_off,80,0,4,,,,,,,,3,,,,70,64
630560,note_off,80,0,8,,,,,,,,7,,,,46,64
630720,note_on,160,0,7,,,,,,,,6,,,,60,92
630720,note_on,160,0,4,,,,,,,,3,,,,72,92
630720,note_on,160,0,6,,,,,,,,5,,,,60,92
630720,note_on,160,0,8,,,,,,,,7,,,,48,92
631120,note_off,400,0,7,,,,,,,,6,,,,60,64
631120,note_off,400,0,4,,,,,,,,3,,,,72,64
631120,note_off,400,0,8,,,,,,,,7,,,,48,64
631120,note_off,400,0,6,,,,,,,,5,,,,60,64
631200,note_on,80,0,7,,,,,,,,6,,,,58,92
631200,note_on,80,0,6,,,,,,,,5,,,,58,92
631200,note_on,80,0,4,,,,,,,,3,,,,70,92
631200,note_on,80,0,8,,,,,,,,7,,,,46,92
631200,set_tempo,1440,1,0,263157,,,,,,,,,,,,
631705,note_off,505,0,4,,,,,,,,3,,,,70,64
631705,note_off,505,0,7,,,,,,,,6,,,,58,64
631705,note_off,505,0,8,,,,,,,,7,,,,46,64
631705,note_off,505,0,6,,,,,,,,5,,,,58,64
631920,note_on,215,0,7,,,,,,,,6,,,,58,92
631920,note_on,215,0,4,,,,,,,,3,,,,70,92
631920,set_tempo,720,1,0,276497,,,,,,,,,,,,
631920,note_on,215,0,8,,,,,,,,7,,,,46,92
631920,note_on,215,0,6,,,,,,,,5,,,,58,92
632000,note_off,80,0,6,,,,,,,,5,,,,58,64
632000,note_off,80,0,4,,,,,,,,3,,,,70,64
632000,note_off,80,0,8,,,,,,,,7,,,,46,64
632000,note_off,80,0,7,,,,,,,,6,,,,58,64
632160,note_on,160,0,6,,,,,,,,5,,,,60,92
632160,note_on,160,0,4,,,,,,,,3,,,,72,92
632160,note_on,160,0,7,,,,,,,,6,,,,60,92
632160,set_tempo,240,1,0,300000,,,,,,,,,,,,
632160,note_on,160,0,8,,,,,,,,7,,,,48,92
632560,note_off,400,0,6,,,,,,,,5,,,,60,64
632560,note_off,400,0,8,,,,,,,,7,,,,48,64
632560,note_off,400,0,7,,,,,,,,6,,,,60,64
632560,note_off,400,0,4,,,,,,,,3,,,,72,64
632640,set_tempo,480,1,0,333333,,,,,,,,,,,,
632640,note_on,80,0,6,,,,,,,,5,,,,61,92
632640,note_on,80,0,8,,,,,,,,7,,,,49,92
632640,note_on,80,0,4,,,,,,,,3,,,,73,92
632640,note_on,80,0,7,,,,,,,,6,,,,61,92
635520,note_on,0,0,7,,,,,,,,6,,,,61,60
635520,note_on,0,0,4,,,,,,,,3,,,,73,60
635520,note_off,2880,0,4,,,,,,,,3,,,,73,64
635520,note_off,2880,0,7,,,,,,,,6,,,,61,64
636240,set_tempo,3600,1,0,315789,,,,,,,,,,,,
636240,note_on,8960,0,1,,,,,,,,0,,,,72,60
636480,note_off,240,0,1,,,,,,,,0,,,,72,64
636480,note_on,0,0,1,,,,,,,,0,,,,73,60
636720,note_off,240,0,1,,,,,,,,0,,,,73,64
636720,note_on,0,0,1,,,,,,,,0,,,,75,60
636840,note_off,1320,0,4,,,,,,,,3,,,,73,64
636840,note_off,1320,0,7,,,,,,,,6,,,,61,64
636840,note_off,4200,0,8,,,,,,,,7,,,,49,64
636840,note_off,4200,0,6,,,,,,,,5,,,,61,64
636955,note_off,235,0,1,,,,,,,,0,,,,75,64
636960,set_tempo,720,1,0,250000,,,,,,,,,,,,
636960,note_on,0,0,6,,,,,,,,5,,,,53,45
636960,note_on,5,0,1,,,,,,,,0,,,,77,60
636960,note_on,120,0,7,,,,,,,,6,,,,44,45
636960,program_change,120,0,6,,,,,,,,5,,,48,,
636960,note_on,120,0,8,,,,,,,,7,,,,37,45
636960,note_on,9680,0,5,,,,,,,,4,,,,61,45
636960,note_on,120,0,4,,,,,,,,3,,,,68,45
637600,note_off,640,0,1,,,,,,,,0,,,,77,64
637600,note_off,640,0,6,,,,,,,,5,,,,53,64
637600,note_off,640,0,5,,,,,,,,4,,,,61,64
637600,note_off,640,0,4,,,,,,,,3,,,,68,64
637680,note_on,80,0,6,,,,,,,,5,,,,53,45
637680,note_on,80,0,4,,,,,,,,3,,,,68,45
637680,note_on,80,0,5,,,,,,,,4,,,,61,45
637680,note_on,80,0,1,,,,,,,,0,,,,77,60
637920,note_off,240,0,4,,,,,,,,3,,,,68,64
637920,note_on,0,0,4,,,,,,,,3,,,,68,45
637920,note_on,0,0,5,,,,,,,,4,,,,63,45
637920,note_on,0,0,1,,,,,,,,0,,,,75,60
637920,note_off,240,0,5,,,,,,,,4,,,,61,64
637920,note_on,0,0,6,,,,,,,,5,,,,56,45
637920,note_off,240,0,6,,,,,,,,5,,,,53,64
637920,note_off,240,0,1,,,,,,,,0,,,,77,64
638040,note_off,120,0,4,,,,,,,,3,,,,68,64
638040,note_off,120,0,5,,,,,,,,4,,,,63,64
638040,note_off,120,0,6,,,,,,,,5,,,,56,64
638040,note_off,120,0,1,,,,,,,,0,,,,75,64
638400,note_on,360,0,5,,,,,,,,4,,,,65,45
638400,note_on,360,0,6,,,,,,,,5,,,,61,45
638400,note_on,360,0,1,,,,,,,,0,,,,73,60
638400,note_on,360,0,4,,,,,,,,3,,,,68,45
639040,note_off,2080,0,8,,,,,,,,7,,,,37,64
639040,note_off,2080,0,7,,,,,,,,6,,,,44,64
639120,note_on,80,0,8,,,,,,,,7,,,,37,45
639120,note_on,80,0,7,,,,,,,,6,,,,44,45
639355,note_off,235,0,7,,,,,,,,6,,,,44,64
639355,note_off,235,0,8,,,,,,,,7,,,,37,64
639360,note_on,5,0,7,,,,,,,,6,,,,44,45
639360,note_on,5,0,8,,,,,,,,7,,,,37,45
639720,note_off,1320,0,4,,,,,,,,3,,,,68,64
639720,note_off,1320,0,5,,,,,,,,4,,,,65,64
639720,note_off,1320,0,6,,,,,,,,5,,,,61,64
639720,note_off,1320,0,1,,,,,,,,0,,,,73,64
639760,note_off,400,0,7,,,,,,,,6,,,,44,64
639760,note_off,400,0,8,,,,,,,,7,,,,37,64
639840,note_on,120,0,5,,,,,,,,4,,,,61,45
639840,note_on,120,0,6,,,,,,,,5,,,,53,45
639840,note_on,120,0,1,,,,,,,,0,,,,77,60
639840,note_on,120,0,4,,,,,,,,3,,,,68,45
639840,note_on,80,0,8,,,,,,,,7,,,,37,45
639840,note_on,80,0,7,,,,,,,,6,,,,44,45
640480,note_off,640,0,6,,,,,,,,5,,,,53,64
640480,note_off,640,0,4,,,,,,,,3,,,,68,64
640480,note_off,640,0,1,,,,,,,,0,,,,77,64
640480,note_off,640,0,5,,,,,,,,4,,,,61,64
640560,note_on,80,0,5,,,,,,,,4,,,,61,45
640560,note_on,80,0,4,,,,,,,,3,,,,68,45
640560,note_on,80,0,6,,,,,,,,5,,,,53,45
640560,note_on,80,0,1,,,,,,,,0,,,,77,60
640800,note_off,240,0,1,,,,,,,,0,,,,77,64
640800,note_on,0,0,1,,,,,,,,0,,,,75,60
640800,note_off,240,0,4,,,,,,,,3,,,,68,64
640800,note_on,0,0,5,,,,,,,,4,,,,63,45
640800,note_off,240,0,5,,,,,,,,4,,,,61,64
640800,note_on,0,0,6,,,,,,,,5,,,,56,45
640800,note_on,0,0,4,,,,,,,,3,,,,68,45
640800,note_off,240,0,6,,,,,,,,5,,,,53,64
640920,note_off,120,0,6,,,,,,,,5,,,,56,64
640920,note_off,120,0,5,,,,,,,,4,,,,63,64
640920,note_off,120,0,1,,,,,,,,0,,,,75,64
640920,note_off,120,0,4,,,,,,,,3,,,,68,64
641280,note_on,360,0,5,,,,,,,,4,,,,65,45
641280,note_on,360,0,1,,,,,,,,0,,,,73,60
641280,note_on,360,0,6,,,,,,,,5,,,,61,45
641280,note_on,360,0,4,,,,,,,,3,,,,68,45
641920,note_off,2080,0,7,,,,,,,,6,,,,44,64
641920,note_off,2080,0,8,,,,,,,,7,,,,37,64
642000,note_on,80,0,7,,,,,,,,6,,,,44,45
642000,note_on,80,0,8,,,,,,,,7,,,,37,45
642235,note_off,235,0,8,,,,,,,,7,,,,37,64
642235,note_off,235,0,7,,,,,,,,6,,,,44,64
642240,note_on,5,0,8,,,,,,,,7,,,,37,45
642240,note_on,5,0,7,,,,,,,,6,,,,44,45
642600,note_off,1320,0,4,,,,,,,,3,,,,68,64
642600,note_off,1320,0,6,,,,,,,,5,,,,61,64
642600,note_off,1320,0,1,,,,,,,,0,,,,73,64
642600,note_off,1320,0,5,,,,,,,,4,,,,65,64
642640,note_off,400,0,8,,,,,,,,7,,,,37,64
642640,note_off,400,0,7,,,,,,,,6,,,,44,64
642720,note_on,80,0,7,,,,,,,,6,,,,44,45
642720,note_on,80,0,8,,,,,,,,7,,,,37,45
642720,note_on,120,0,1,,,,,,,,0,,,,78,60
642720,note_on,120,0,4,,,,,,,,3,,,,68,45
642720,note_on,120,0,5,,,,,,,,4,,,,63,45
642720,note_on,120,0,6,,,,,,,,5,,,,60,45
643360,note_off,640,0,1,,,,,,,,0,,,,78,64
643360,note_off,640,0,4,,,,,,,,3,,,,68,64
643360,note_off,640,0,6,,,,,,,,5,,,,60,64
643360,note_off,640,0,5,,,,,,,,4,,,,63,64
643440,note_on,80,0,5,,,,,,,,4,,,,63,45
643440,note_on,80,0,1,,,,,,,,0,,,,78,60
643440,note_on,80,0,4,,,,,,,,3,,,,68,45
643440,note_on,80,0,6,,,,,,,,5,,,,60,45
643680,note_on,0,0,1,,,,,,,,0,,,,77,60
643680,note_off,240,0,1,,,,,,,,0,,,,78,64
643680,note_off,240,0,5,,,,,,,,4,,,,63,64
643680,note_on,0,0,4,,,,,,,,3,,,,68,45
643680,note_on,0,0,6,,,,,,,,5,,,,61,45
643680,note_off,240,0,4,,,,,,,,3,,,,68,64
643680,note_on,0,0,5,,,,,,,,4,,,,65,45
643680,note_off,240,0,6,,,,,,,,5,,,,60,64
643800,note_off,120,0,6,,,,,,,,5,,,,61,64
643800,note_off,120,0,1,,,,,,,,0,,,,77,64
643800,note_off,120,0,4,,,,,,,,3,,,,68,64
643800,note_off,120,0,5,,,,,,,,4,,,,65,64
644160,note_on,360,0,4,,,,,,,,3,,,,68,45
644160,note_on,360,0,1,,,,,,,,0,,,,75,60
644160,note_on,360,0,6,,,,,,,,5,,,,60,45
644160,note_on,360,0,5,,,,,,,,4,,,,66,45
644800,note_off,2080,0,7,,,,,,,,6,,,,44,64
644800,note_off,2080,0,8,,,,,,,,7,,,,37,64
644880,note_on,80,0,8,,,,,,,,7,,,,37,45
644880,note_on,80,0,7,,,,,,,,6,,,,44,45
645115,note_off,235,0,7,,,,,,,,6,,,,44,64
645115,note_off,235,0,8,,,,,,,,7,,,,37,64
645120,note_on,5,0,7,,,,,,,,6,,,,44,45
645120,note_on,5,0,8,,,,,,,,7,,,,37,45
645480,note_off,1320,0,1,,,,,,,,0,,,,75,64
645480,note_off,1320,0,4,,,,,,,,3,,,,68,64
645480,note_off,1320,0,5,,,,,,,,4,,,,66,64
645480,note_off,1320,0,6,,,,,,,,5,,,,60,64
645520,note_off,400,0,7,,,,,,,,6,,,,44,64
645520,note_off,400,0,8,,,,,,,,7,,,,37,64
645600,note_on,120,0,4,,,,,,,,3,,,,68,45
645600,note_on,120,0,1,,,,,,,,0,,,,78,60
645600,note_on,80,0,8,,,,,,,,7,,,,37,45
645600,note_on,120,0,5,,,,,,,,4,,,,63,45
645600,note_on,120,0,6,,,,,,,,5,,,,60,45
645600,note_on,80,0,7,,,,,,,,6,,,,44,45
646240,note_off,640,0,1,,,,,,,,0,,,,78,64
646240,note_off,640,0,6,,,,,,,,5,,,,60,64
646240,note_off,640,0,5,,,,,,,,4,,,,63,64
646240,note_off,640,0,4,,,,,,,,3,,,,68,64
646320,note_on,80,0,1,,,,,,,,0,,,,78,60
646320,note_on,80,0,6,,,,,,,,5,,,,60,45
646320,note_on,80,0,5,,,,,,,,4,,,,63,45
646320,note_on,80,0,4,,,,,,,,3,,,,68,45
646560,note_on,0,0,5,,,,,,,,4,,,,65,45
646560,note_off,240,0,5,,,,,,,,4,,,,63,64
646560,note_off,240,0,1,,,,,,,,0,,,,78,64
646560,note_off,240,0,4,,,,,,,,3,,,,68,64
646560,note_off,240,0,6,,,,,,,,5,,,,60,64
646560,note_on,0,0,1,,,,,,,,0,,,,77,60
646560,note_on,0,0,4,,,,,,,,3,,,,68,45
646560,note_on,0,0,6,,,,,,,,5,,,,61,45
646680,note_off,120,0,4,,,,,,,,3,,,,68,64
646680,note_off,120,0,5,,,,,,,,4,,,,65,64
646680,note_off,120,0,6,,,,,,,,5,,,,61,64
646680,note_off,120,0,1,,,,,,,,0,,,,77,64
647040,note_on,360,0,4,,,,,,,,3,,,,68,45
647040,note_on,360,0,5,,,,,,,,4,,,,66,45
647040,note_on,360,0,6,,,,,,,,5,,,,60,45
647040,note_on,360,0,1,,,,,,,,0,,,,75,60
647680,note_off,2080,0,8,,,,,,,,7,,,,37,64
647680,note_off,2080,0,7,,,,,,,,6,,,,44,64
647760,note_on,80,0,7,,,,,,,,6,,,,44,45
647760,note_on,80,0,8,,,,,,,,7,,,,37,45
647995,note_off,235,0,7,,,,,,,,6,,,,44,64
647995,note_off,235,0,8,,,,,,,,7,,,,37,64
648000,note_on,5,0,7,,,,,,,,6,,,,44,45
648000,note_on,5,0,8,,,,,,,,7,,,,37,45
648360,note_off,1320,0,1,,,,,,,,0,,,,75,64
648360,note_off,1320,0,6,,,,,,,,5,,,,60,64
648360,note_off,1320,0,5,,,,,,,,4,,,,66,64
648360,note_off,1320,0,4,,,,,,,,3,,,,68,64
648400,note_off,400,0,7,,,,,,,,6,,,,44,64
648400,note_off,400,0,8,,,,,,,,7,,,,37,64
648480,note_on,80,0,8,,,,,,,,7,,,,37,45
648480,note_on,38480,0,2,,,,,,,,1,,,,53,60
648480,note_on,120,0,6,,,,,,,,5,,,,61,45
648480,note_on,80,0,7,,,,,,,,6,,,,44,45
648480,note_on,120,0,4,,,,,,,,3,,,,77,60
648480,note_on,120,0,1,,,,,,,,0,,,,68,60
648480,note_on,120,0,5,,,,,,,,4,,,,68,45
649120,note_off,640,0,6,,,,,,,,5,,,,61,64
649120,note_off,640,0,2,,,,,,,,1,,,,53,64
649120,note_off,640,0,5,,,,,,,,4,,,,68,64
649120,note_off,640,0,4,,,,,,,,3,,,,77,64
649200,note_on,80,0,6,,,,,,,,5,,,,61,45
649200,note_on,80,0,4,,,,,,,,3,,,,77,60
649200,note_on,80,0,2,,,,,,,,1,,,,53,60
649200,note_on,80,0,5,,,,,,,,4,,,,68,45
649440,note_on,0,0,5,,,,,,,,4,,,,68,45
649440,note_on,0,0,2,,,,,,,,1,,,,56,60
649440,note_off,240,0,2,,,,,,,,1,,,,53,64
649440,note_on,0,0,4,,,,,,,,3,,,,75,60
649440,note_off,240,0,4,,,,,,,,3,,,,77,64
649440,note_off,240,0,6,,,,,,,,5,,,,61,64
649440,note_on,0,0,6,,,,,,,,5,,,,63,45
649440,note_off,240,0,5,,,,,,,,4,,,,68,64
649560,note_off,120,0,5,,,,,,,,4,,,,68,64
649560,note_off,120,0,4,,,,,,,,3,,,,75,64
649560,note_off,120,0,2,,,,,,,,1,,,,56,64
649560,note_off,120,0,6,,,,,,,,5,,,,63,64
649920,note_on,360,0,5,,,,,,,,4,,,,68,45
649920,note_on,360,0,4,,,,,,,,3,,,,73,60
649920,note_on,360,0,6,,,,,,,,5,,,,65,45
649920,note_on,360,0,2,,,,,,,,1,,,,61,60
650400,note_off,1920,0,1,,,,,,,,0,,,,68,64
650400,note_on,0,0,1,,,,,,,,0,,,,73,60
650560,note_off,2080,0,8,,,,,,,,7,,,,37,64
650560,note_off,2080,0,7,,,,,,,,6,,,,44,64
650640,note_on,80,0,8,,,,,,,,7,,,,37,45
650640,note_on,80,0,7,,,,,,,,6,,,,44,45
650875,note_off,235,0,8,,,,,,,,7,,,,37,64
650875,note_off,235,0,7,,,,,,,,6,,,,44,64
650880,note_on,5,0,8,,,,,,,,7,,,,37,45
650880,note_on,0,0,1,,,,,,,,0,,,,68,60
650880,note_off,480,0,1,,,,,,,,0,,,,73,64
650880,note_on,5,0,7,,,,,,,,6,,,,44,45
651240,note_off,1320,0,5,,,,,,,,4,,,,68,64
651240,note_off,1320,0,6,,,,,,,,5,,,,65,64
651240,note_off,1320,0,4,,,,,,,,3,,,,73,64
651240,note_off,1320,0,2,,,,,,,,1,,,,61,64
651280,note_off,400,0,7,,,,,,,,6,,,,44,64
651280,note_off,400,0,8,,,,,,,,7,,,,37,64
651280,note_off,400,0,1,,,,,,,,0,,,,68,64
651360,note_on,120,0,2,,,,,,,,1,,,,53,60
651360,note_on,80,0,7,,,,,,,,6,,,,44,45
651360,note_on,120,0,4,,,,,,,,3,,,,77,60
651360,note_on,80,0,1,,,,,,,,0,,,,68,60
651360,note_on,80,0,8,,,,,,,,7,,,,37,45
651360,note_on,120,0,6,,,,,,,,5,,,,61,45
651360,note_on,120,0,5,,,,,,,,4,,,,68,45
652000,note_off,640,0,6,,,,,,,,5,,,,61,64
652000,note_off,640,0,4,,,,,,,,3,,,,77,64
652000,note_off,640,0,2,,,,,,,,1,,,,53,64
652000,note_off,640,0,5,,,,,,,,4,,,,68,64
652080,note_on,80,0,6,,,,,,,,5,,,,61,45
652080,note_on,80,0,5,,,,,,,,4,,,,68,45
652080,note_on,80,0,2,,,,,,,,1,,,,53,60
652080,note_on,80,0,4,,,,,,,,3,,,,77,60
652320,note_off,240,0,6,,,,,,,,5,,,,61,64
652320,note_off,240,0,4,,,,,,,,3,,,,77,64
652320,note_on,0,0,6,,,,,,,,5,,,,63,45
652320,note_off,240,0,2,,,,,,,,1,,,,53,64
652320,note_on,0,0,2,,,,,,,,1,,,,56,60
652320,note_on,0,0,5,,,,,,,,4,,,,68,45
652320,note_off,240,0,5,,,,,,,,4,,,,68,64
652320,note_on,0,0,4,,,,,,,,3,,,,75,60
652440,note_off,120,0,6,,,,,,,,5,,,,63,64
652440,note_off,120,0,2,,,,,,,,1,,,,56,64
652440,note_off,120,0,4,,,,,,,,3,,,,75,64
652440,note_off,120,0,5,,,,,,,,4,,,,68,64
652800,note_on,360,0,2,,,,,,,,1,,,,61,60
652800,note_on,360,0,4,,,,,,,,3,,,,73,60
652800,note_on,360,0,6,,,,,,,,5,,,,65,45
652800,note_on,360,0,5,,,,,,,,4,,,,68,45
653280,note_on,0,0,1,,,,,,,,0,,,,73,60
653280,note_off,1920,0,1,,,,,,,,0,,,,68,64
653440,note_off,2080,0,7,,,,,,,,6,,,,44,64
653440,note_off,2080,0,8,,,,,,,,7,,,,37,64
653520,note_on,80,0,8,,,,,,,,7,,,,37,45
653520,note_on,80,0,7,,,,,,,,6,,,,44,45
653755,note_off,235,0,7,,,,,,,,6,,,,44,64
653755,note_off,235,0,8,,,,,,,,7,,,,37,64
653760,note_off,480,0,1,,,,,,,,0,,,,73,64
653760,note_on,0,0,1,,,,,,,,0,,,,68,60
653760,note_on,5,0,8,,,,,,,,7,,,,37,45
653760,note_on,5,0,7,,,,,,,,6,,,,44,45
654120,note_off,1320,0,2,,,,,,,,1,,,,61,64
654120,note_off,1320,0,5,,,,,,,,4,,,,68,64
654120,note_off,1320,0,4,,,,,,,,3,,,,73,64
654120,note_off,1320,0,6,,,,,,,,5,,,,65,64
654160,note_off,400,0,1,,,,,,,,0,,,,68,64
654160,note_off,400,0,7,,,,,,,,6,,,,44,64
654160,note_off,400,0,8,,,,,,,,7,,,,37,64
654240,note_on,120,0,2,,,,,,,,1,,,,60,60
654240,note_on,80,0,1,,,,,,,,0,,,,68,60
654240,note_on,80,0,7,,,,,,,,6,,,,44,45
654240,note_on,120,0,4,,,,,,,,3,,,,78,60
654240,note_on,120,0,6,,,,,,,,5,,,,63,45
654240,note_on,80,0,8,,,,,,,,7,,,,37,45
654240,note_on,120,0,5,,,,,,,,4,,,,68,45
654880,note_off,640,0,4,,,,,,,,3,,,,78,64
654880,note_off,640,0,6,,,,,,,,5,,,,63,64
654880,note_off,640,0,2,,,,,,,,1,,,,60,64
654880,note_off,640,0,5,,,,,,,,4,,,,68,64
654960,note_on,80,0,6,,,,,,,,5,,,,63,45
654960,note_on,80,0,2,,,,,,,,1,,,,60,60
654960,note_on,80,0,4,,,,,,,,3,,,,78,60
654960,note_on,80,0,5,,,,,,,,4,,,,68,45
655200,note_off,240,0,4,,,,,,,,3,,,,78,64
655200,note_off,240,0,2,,,,,,,,1,,,,60,64
655200,note_on,0,0,5,,,,,,,,4,,,,68,45
655200,note_on,0,0,6,,,,,,,,5,,,,65,45
655200,note_off,240,0,6,,,,,,,,5,,,,63,64
655200,note_on,0,0,4,,,,,,,,3,,,,77,60
655200,note_on,0,0,2,,,,,,,,1,,,,61,60
655200,note_off,240,0,5,,,,,,,,4,,,,68,64
655320,note_off,120,0,2,,,,,,,,1,,,,61,64
655320,note_off,120,0,6,,,,,,,,5,,,,65,64
655320,note_off,120,0,5,,,,,,,,4,,,,68,64
655320,note_off,120,0,4,,,,,,,,3,,,,77,64
655680,note_on,360,0,6,,,,,,,,5,,,,66,45
655680,note_on,360,0,5,,,,,,,,4,,,,68,45
655680,note_on,360,0,4,,,,,,,,3,,,,75,60
655680,note_on,360,0,2,,,,,,,,1,,,,60,60
656160,note_on,0,0,1,,,,,,,,0,,,,75,60
656160,note_off,1920,0,1,,,,,,,,0,,,,68,64
656320,note_off,2080,0,7,,,,,,,,6,,,,44,64
656320,note_off,2080,0,8,,,,,,,,7,,,,37,64
656400,note_on,80,0,8,,,,,,,,7,,,,37,45
656400,note_on,80,0,7,,,,,,,,6,,,,44,45
656635,note_off,235,0,8,,,,,,,,7,,,,37,64
656635,note_off,235,0,7,,,,,,,,6,,,,44,64
656640,note_off,480,0,1,,,,,,,,0,,,,75,64
656640,note_on,5,0,8,,,,,,,,7,,,,37,45
656640,note_on,5,0,7,,,,,,,,6,,,,44,45
656640,note_on,0,0,1,,,,,,,,0,,,,68,60
657000,note_off,1320,0,4,,,,,,,,3,,,,75,64
657000,note_off,1320,0,2,,,,,,,,1,,,,60,64
657000,note_off,1320,0,5,,,,,,,,4,,,,68,64
657000,note_off,1320,0,6,,,,,,,,5,,,,66,64
657040,note_off,400,0,1,,,,,,,,0,,,,68,64
657040,note_off,400,0,8,,,,,,,,7,,,,37,64
657040,note_off,400,0,7,,,,,,,,6,,,,44,64
657120,note_on,80,0,7,,,,,,,,6,,,,44,45
657120,note_on,80,0,1,,,,,,,,0,,,,68,60
657120,note_on,120,0,6,,,,,,,,5,,,,63,45
657120,note_on,120,0,2,,,,,,,,1,,,,60,60
657120,note_on,120,0,4,,,,,,,,3,,,,78,60
657120,note_on,80,0,8,,,,,,,,7,,,,37,45
657120,note_on,120,0,5,,,,,,,,4,,,,68,45
657760,note_off,640,0,2,,,,,,,,1,,,,60,64
657760,note_off,640,0,6,,,,,,,,5,,,,63,64
657760,note_off,640,0,5,,,,,,,,4,,,,68,64
657760,note_off,640,0,4,,,,,,,,3,,,,78,64
657840,note_on,80,0,5,,,,,,,,4,,,,68,45
657840,note_on,80,0,4,,,,,,,,3,,,,78,60
657840,note_on,80,0,2,,,,,,,,1,,,,60,60
657840,note_on,80,0,6,,,,,,,,5,,,,63,45
658080,note_off,240,0,4,,,,,,,,3,,,,78,64
658080,note_off,240,0,2,,,,,,,,1,,,,60,64
658080,note_off,240,0,5,,,,,,,,4,,,,68,64
658080,note_on,0,0,4,,,,,,,,3,,,,77,60
658080,note_off,240,0,6,,,,,,,,5,,,,63,64
658080,note_on,0,0,2,,,,,,,,1,,,,61,60
658080,note_on,0,0,6,,,,,,,,5,,,,65,45
658080,note_on,0,0,5,,,,,,,,4,,,,68,45
658200,note_off,120,0,4,,,,,,,,3,,,,77,64
658200,note_off,120,0,2,,,,,,,,1,,,,61,64
658200,note_off,120,0,6,,,,,,,,5,,,,65,64
658200,note_off,120,0,5,,,,,,,,4,,,,68,64
658560,note_on,360,0,6,,,,,,,,5,,,,66,45
658560,note_on,360,0,4,,,,,,,,3,,,,75,60
658560,note_on,360,0,2,,,,,,,,1,,,,60,60
658560,note_on,360,0,5,,,,,,,,4,,,,68,45
659040,note_on,0,0,1,,,,,,,,0,,,,75,60
659040,note_off,1920,0,1,,,,,,,,0,,,,68,64
659200,note_off,2080,0,7,,,,,,,,6,,,,44,64
659200,note_off,2080,0,8,,,,,,,,7,,,,37,64
659280,note_on,80,0,8,,,,,,,,7,,,,37,45
659280,note_on,80,0,7,,,,,,,,6,,,,44,45
659515,note_off,235,0,7,,,,,,,,6,,,,44,64
659515,note_off,235,0,8,,,,,,,,7,,,,37,64
659520,note_off,480,0,1,,,,,,,,0,,,,75,64
659520,note_on,0,0,1,,,,,,,,0,,,,68,60
659520,note_on,5,0,8,,,,,,,,7,,,,37,45
659520,note_on,5,0,7,,,,,,,,6,,,,44,45
659880,note_off,1320,0,6,,,,,,,,5,,,,66,64
659880,note_off,1320,0,5,,,,,,,,4,,,,68,64
659880,note_off,1320,0,2,,,,,,,,1,,,,60,64
659880,note_off,1320,0,4,,,,,,,,3,,,,75,64
659920,note_off,400,0,7,,,,,,,,6,,,,44,64
659920,note_off,400,0,8,,,,,,,,7,,,,37,64
659920,note_off,400,0,1,,,,,,,,0,,,,68,64
660000,note_on,80,0,7,,,,,,,,6,,,,45,45
660000,note_on,80,0,8,,,,,,,,7,,,,33,45
660000,note_on,0,0,5,,,,,,,,4,,,,69,45
660000,note_on,120,0,2,,,,,,,,1,,,,65,60
660000,note_on,0,0,6,,,,,,,,5,,,,65,45
660000,note_on,120,0,6,,,,,,,,5,,,,57,45
660000,set_tempo,23040,1,0,243902,,,,,,,,,,,,
660000,note_on,120,0,5,,,,,,,,4,,,,61,45
660000,note_on,120,0,4,,,,,,,,3,,,,77,45
660400,note_off,400,0,8,,,,,,,,7,,,,33,64
660400,note_off,400,0,7,,,,,,,,6,,,,45,64
660640,note_off,640,0,5,,,,,,,,4,,,,69,64
660640,note_off,0,0,5,,,,,,,,4,,,,61,64
660640,note_off,640,0,6,,,,,,,,5,,,,65,64
660640,note_off,0,0,6,,,,,,,,5,,,,57,64
660720,note_on,80,0,6,,,,,,,,5,,,,57,45
660720,note_on,0,0,6,,,,,,,,5,,,,65,45
660720,note_on,0,0,5,,,,,,,,4,,,,69,45
660720,note_on,80,0,5,,,,,,,,4,,,,61,45
660955,note_off,235,0,6,,,,,,,,5,,,,65,64
660955,note_off,0,0,6,,,,,,,,5,,,,57,64
660955,note_off,235,0,5,,,,,,,,4,,,,69,64
660955,note_off,0,0,5,,,,,,,,4,,,,61,64
660960,note_on,5,0,6,,,,,,,,5,,,,57,45
660960,note_on,0,0,6,,,,,,,,5,,,,65,45
660960,note_on,5,0,5,,,,,,,,4,,,,61,45
660960,note_on,0,0,5,,,,,,,,4,,,,69,45
661360,note_off,0,0,5,,,,,,,,4,,,,61,64
661360,note_off,400,0,6,,,,,,,,5,,,,65,64
661360,note_off,0,0,6,,,,,,,,5,,,,57,64
661360,note_off,400,0,5,,,,,,,,4,,,,69,64
661440,note_on,80,0,6,,,,,,,,5,,,,57,45
661440,note_on,1040,0,7,,,,,,,,6,,,,41,45
661440,note_on,1040,0,8,,,,,,,,7,,,,29,45
661440,note_on,80,0,5,,,,,,,,4,,,,61,45
661440,note_on,0,0,5,,,,,,,,4,,,,69,45
661440,note_on,0,0,6,,,,,,,,5,,,,65,45
661840,note_off,400,0,8,,,,,,,,7,,,,29,64
661840,note_off,400,0,7,,,,,,,,6,,,,41,64
662080,note_off,640,0,6,,,,,,,,5,,,,65,64
662080,note_off,640,0,5,,,,,,,,4,,,,69,64
662080,note_off,0,0,5,,,,,,,,4,,,,61,64
662080,note_off,0,0,6,,,,,,,,5,,,,57,64
662160,note_on,0,0,6,,,,,,,,5,,,,65,45
662160,note_on,80,0,5,,,,,,,,4,,,,61,45
662160,note_on,0,0,5,,,,,,,,4,,,,69,45
662160,note_on,80,0,6,,,,,,,,5,,,,57,45
662395,note_off,235,0,6,,,,,,,,5,,,,65,64
662395,note_off,0,0,6,,,,,,,,5,,,,57,64
662395,note_off,0,0,5,,,,,,,,4,,,,61,64
662395,note_off,235,0,5,,,,,,,,4,,,,69,64
662400,note_on,0,0,6,,,,,,,,5,,,,65,45
662400,note_on,5,0,6,,,,,,,,5,,,,57,45
662400,note_on,0,0,5,,,,,,,,4,,,,69,45
662400,note_on,5,0,5,,,,,,,,4,,,,61,45
662800,note_off,0,0,5,,,,,,,,4,,,,61,64
662800,note_off,0,0,6,,,,,,,,5,,,,57,64
662800,note_off,400,0,6,,,,,,,,5,,,,65,64
662800,note_off,400,0,5,,,,,,,,4,,,,69,64
662880,note_on,1040,0,8,,,,,,,,7,,,,34,45
662880,note_on,80,0,6,,,,,,,,5,,,,58,45
662880,note_on,1040,0,7,,,,,,,,6,,,,46,45
662880,note_on,0,0,6,,,,,,,,5,,,,65,45
662880,note_on,0,0,5,,,,,,,,4,,,,70,45
662880,note_on,80,0,5,,,,,,,,4,,,,61,45
663360,note_off,3360,0,4,,,,,,,,3,,,,77,64
663360,note_on,0,0,4,,,,,,,,3,,,,78,45
663360,note_off,3360,0,2,,,,,,,,1,,,,65,64
663360,note_on,0,0,2,,,,,,,,1,,,,66,60
663520,note_off,0,0,5,,,,,,,,4,,,,61,64
663520,note_off,0,0,6,,,,,,,,5,,,,58,64
663520,note_off,640,0,5,,,,,,,,4,,,,70,64
663520,note_off,640,0,6,,,,,,,,5,,,,65,64
663520,note_off,640,0,8,,,,,,,,7,,,,34,64
663520,note_off,640,0,7,,,,,,,,6,,,,46,64
663600,note_on,80,0,7,,,,,,,,6,,,,46,45
663600,note_on,0,0,5,,,,,,,,4,,,,70,45
663600,note_on,80,0,5,,,,,,,,4,,,,61,45
663600,note_on,80,0,6,,,,,,,,5,,,,58,45
663600,note_on,0,0,6,,,,,,,,5,,,,65,45
663600,note_on,80,0,8,,,,,,,,7,,,,34,45
663835,note_off,235,0,7,,,,,,,,6,,,,46,64
663835,note_off,0,0,5,,,,,,,,4,,,,61,64
663835,note_off,235,0,5,,,,,,,,4,,,,70,64
663835,note_off,0,0,6,,,,,,,,5,,,,58,64
663835,note_off,235,0,6,,,,,,,,5,,,,65,64
663835,note_off,235,0,8,,,,,,,,7,,,,34,64
663840,note_on,0,0,2,,,,,,,,1,,,,65,60
663840,note_on,5,0,7,,,,,,,,6,,,,46,45
663840,note_on,0,0,4,,,,,,,,3,,,,77,45
663840,note_off,480,0,2,,,,,,,,1,,,,66,64
663840,note_on,0,0,6,,,,,,,,5,,,,65,45
663840,note_on,5,0,5,,,,,,,,4,,,,61,45
663840,note_on,0,0,5,,,,,,,,4,,,,70,45
663840,note_off,480,0,4,,,,,,,,3,,,,78,64
663840,note_on,5,0,8,,,,,,,,7,,,,34,45
663840,note_on,5,0,6,,,,,,,,5,,,,58,45
664240,note_off,0,0,6,,,,,,,,5,,,,58,64
664240,note_off,0,0,5,,,,,,,,4,,,,61,64
664240,note_off,400,0,5,,,,,,,,4,,,,70,64
664240,note_off,400,0,6,,,,,,,,5,,,,65,64
664240,note_off,400,0,7,,,,,,,,6,,,,46,64
664240,note_off,400,0,8,,,,,,,,7,,,,34,64
664320,note_on,80,0,5,,,,,,,,4,,,,61,45
664320,note_on,0,0,2,,,,,,,,1,,,,61,60
664320,note_off,480,0,2,,,,,,,,1,,,,65,64
664320,set_tempo,4320,1,0,239043,,,,,,,,,,,,
664320,note_on,0,0,4,,,,,,,,3,,,,73,45
664320,note_on,80,0,7,,,,,,,,6,,,,49,45
664320,note_on,0,0,5,,,,,,,,4,,,,70,45
664320,note_on,80,0,8,,,,,,,,7,,,,37,45
664320,note_on,0,0,6,,,,,,,,5,,,,65,45
664320,note_on,80,0,6,,,,,,,,5,,,,58,45
664320,note_off,480,0,4,,,,,,,,3,,,,77,64
664720,note_off,400,0,7,,,,,,,,6,,,,49,64
664720,note_off,400,0,8,,,,,,,,7,,,,37,64
664800,note_off,480,0,2,,,,,,,,1,,,,61,64
664800,note_on,0,0,2,,,,,,,,1,,,,60,60
664800,note_on,0,0,4,,,,,,,,3,,,,72,45
664800,note_off,480,0,4,,,,,,,,3,,,,73,64
664960,note_off,640,0,6,,,,,,,,5,,,,65,64
664960,note_off,0,0,6,,,,,,,,5,,,,58,64
664960,note_off,0,0,5,,,,,,,,4,,,,61,64
664960,note_off,640,0,5,,,,,,,,4,,,,70,64
665040,note_on,0,0,5,,,,,,,,4,,,,70,45
665040,note_on,0,0,6,,,,,,,,5,,,,65,45
665040,note_on,80,0,5,,,,,,,,4,,,,61,45
665040,note_on,80,0,6,,,,,,,,5,,,,58,45
665275,note_off,0,0,5,,,,,,,,4,,,,61,64
665275,note_off,235,0,5,,,,,,,,4,,,,70,64
665275,note_off,235,0,6,,,,,,,,5,,,,65,64
665275,note_off,0,0,6,,,,,,,,5,,,,58,64
665280,note_on,5,0,5,,,,,,,,4,,,,61,45
665280,note_off,480,0,4,,,,,,,,3,,,,72,64
665280,note_on,0,0,4,,,,,,,,3,,,,70,45
665280,note_on,0,0,5,,,,,,,,4,,,,70,45
665280,note_on,0,0,2,,,,,,,,1,,,,58,60
665280,note_on,5,0,6,,,,,,,,5,,,,58,45
665280,note_off,480,0,2,,,,,,,,1,,,,60,64
665280,note_on,0,0,6,,,,,,,,5,,,,65,45
665680,note_off,0,0,5,,,,,,,,4,,,,61,64
665680,note_off,400,0,5,,,,,,,,4,,,,70,64
665680,note_off,400,0,6,,,,,,,,5,,,,65,64
665680,note_off,400,0,2,,,,,,,,1,,,,58,64
665680,note_off,400,0,4,,,,,,,,3,,,,70,64
665680,note_off,0,0,6,,,,,,,,5,,,,58,64
665760,note_on,80,0,4,,,,,,,,3,,,,77,45
665760,note_on,0,0,6,,,,,,,,5,,,,65,45
665760,note_on,1040,0,8,,,,,,,,7,,,,33,45
665760,note_on,80,0,2,,,,,,,,1,,,,65,60
665760,set_tempo,1440,1,0,234375,,,,,,,,,,,,
665760,note_on,80,0,6,,,,,,,,5,,,,57,45
665760,note_on,80,0,5,,,,,,,,4,,,,61,45
665760,note_on,1040,0,7,,,,,,,,6,,,,45,45
665760,note_on,0,0,5,,,,,,,,4,,,,69,45
666160,note_off,400,0,7,,,,,,,,6,,,,45,64
666160,note_off,400,0,8,,,,,,,,7,,,,33,64
666400,note_off,640,0,5,,,,,,,,4,,,,69,64
666400,note_off,640,0,6,,,,,,,,5,,,,65,64
666400,note_off,0,0,6,,,,,,,,5,,,,57,64
666400,note_off,0,0,5,,,,,,,,4,,,,61,64
666480,note_on,80,0,5,,,,,,,,4,,,,61,45
666480,note_on,0,0,5,,,,,,,,4,,,,69,45
666480,note_on,80,0,6,,,,,,,,5,,,,57,45
666480,note_on,0,0,6,,,,,,,,5,,,,65,45
666715,note_off,235,0,5,,,,,,,,4,,,,69,64
666715,note_off,0,0,5,,,,,,,,4,,,,61,64
666715,note_off,0,0,6,,,,,,,,5,,,,57,64
666715,note_off,235,0,6,,,,,,,,5,,,,65,64
666720,note_on,5,0,6,,,,,,,,5,,,,57,45
666720,note_on,0,0,6,,,,,,,,5,,,,65,45
666720,note_on,0,0,5,,,,,,,,4,,,,69,45
666720,note_on,5,0,5,,,,,,,,4,,,,61,45
667120,note_off,0,0,6,,,,,,,,5,,,,57,64
667120,note_off,400,0,6,,,,,,,,5,,,,65,64
667120,note_off,0,0,5,,,,,,,,4,,,,61,64
667120,note_off,400,0,5,,,,,,,,4,,,,69,64
667200,note_on,1040,0,7,,,,,,,,6,,,,41,45
667200,note_on,80,0,6,,,,,,,,5,,,,57,45
667200,note_on,0,0,5,,,,,,,,4,,,,69,45
667200,note_on,80,0,5,,,,,,,,4,,,,61,45
667200,note_on,0,0,6,,,,,,,,5,,,,65,45
667200,note_on,1040,0,8,,,,,,,,7,,,,29,45
667600,note_off,400,0,8,,,,,,,,7,,,,29,64
667600,note_off,400,0,7,,,,,,,,6,,,,41,64
667840,note_off,640,0,6,,,,,,,,5,,,,65,64
667840,note_off,640,0,5,,,,,,,,4,,,,69,64
667840,note_off,0,0,5,,,,,,,,4,,,,61,64
667840,note_off,0,0,6,,,,,,,,5,,,,57,64
667920,note_on,0,0,6,,,,,,,,5,,,,65,45
667920,note_on,80,0,6,,,,,,,,5,,,,57,45
667920,note_on,0,0,5,,,,,,,,4,,,,69,45
667920,note_on,80,0,5,,,,,,,,4,,,,61,45
668155,note_off,0,0,6,,,,,,,,5,,,,57,64
668155,note_off,235,0,6,,,,,,,,5,,,,65,64
668155,note_off,235,0,5,,,,,,,,4,,,,69,64
668155,note_off,0,0,5,,,,,,,,4,,,,61,64
668160,note_on,0,0,5,,,,,,,,4,,,,69,45
668160,note_on,5,0,5,,,,,,,,4,,,,61,45
668160,note_on,0,0,6,,,,,,,,5,,,,65,45
668160,note_on,5,0,6,,,,,,,,5,,,,57,45
668560,note_off,0,0,5,,,,,,,,4,,,,61,64
668560,note_off,0,0,6,,,,,,,,5,,,,57,64
668560,note_off,400,0,6,,,,,,,,5,,,,65,64
668560,note_off,400,0,5,,,,,,,,4,,,,69,64
668640,note_on,0,0,5,,,,,,,,4,,,,70,45
668640,note_on,80,0,6,,,,,,,,5,,,,58,45
668640,note_on,0,0,6,,,,,,,,5,,,,65,45
668640,note_on,1040,0,7,,,,,,,,6,,,,46,45
668640,note_on,80,0,5,,,,,,,,4,,,,61,45
668640,note_on,1040,0,8,,,,,,,,7,,,,34,45
669120,note_off,3360,0,4,,,,,,,,3,,,,77,64
669120,set_tempo,3360,1,0,232558,,,,,,,,,,,,
669120,note_off,3360,0,2,,,,,,,,1,,,,65,64
669120,note_on,0,0,2,,,,,,,,1,,,,66,60
669120,note_on,0,0,4,,,,,,,,3,,,,78,45
669280,note_off,640,0,5,,,,,,,,4,,,,70,64
669280,note_off,0,0,5,,,,,,,,4,,,,61,64
669280,note_off,640,0,8,,,,,,,,7,,,,34,64
669280,note_off,0,0,6,,,,,,,,5,,,,58,64
669280,note_off,640,0,6,,,,,,,,5,,,,65,64
669280,note_off,640,0,7,,,,,,,,6,,,,46,64
669360,note_on,80,0,5,,,,,,,,4,,,,61,45
669360,note_on,0,0,5,,,,,,,,4,,,,70,45
669360,note_on,80,0,7,,,,,,,,6,,,,46,45
669360,note_on,80,0,6,,,,,,,,5,,,,58,45
669360,note_on,0,0,6,,,,,,,,5,,,,65,45
669360,note_on,80,0,8,,,,,,,,7,,,,34,45
669595,note_off,235,0,8,,,,,,,,7,,,,34,64
669595,note_off,235,0,7,,,,,,,,6,,,,46,64
669595,note_off,0,0,5,,,,,,,,4,,,,61,64
669595,note_off,235,0,5,,,,,,,,4,,,,70,64
669595,note_off,235,0,6,,,,,,,,5,,,,65,64
669595,note_off,0,0,6,,,,,,,,5,,,,58,64
669600,note_on,5,0,7,,,,,,,,6,,,,46,45
669600,note_on,5,0,6,,,,,,,,5,,,,58,45
669600,note_on,0,0,6,,,,,,,,5,,,,65,45
669600,note_off,480,0,4,,,,,,,,3,,,,78,64
669600,note_on,0,0,4,,,,,,,,3,,,,77,45
669600,note_on,5,0,5,,,,,,,,4,,,,61,45
669600,note_on,0,0,5,,,,,,,,4,,,,70,45
669600,note_on,0,0,2,,,,,,,,1,,,,65,60
669600,note_off,480,0,2,,,,,,,,1,,,,66,64
669600,note_on,5,0,8,,,,,,,,7,,,,34,45
670000,note_off,0,0,6,,,,,,,,5,,,,58,64
670000,note_off,400,0,6,,,,,,,,5,,,,65,64
670000,note_off,400,0,7,,,,,,,,6,,,,46,64
670000,note_off,0,0,5,,,,,,,,4,,,,61,64
670000,note_off,400,0,5,,,,,,,,4,,,,70,64
670000,note_off,400,0,8,,,,,,,,7,,,,34,64
670080,note_on,80,0,8,,,,,,,,7,,,,37,45
670080,note_on,80,0,5,,,,,,,,4,,,,61,45
670080,note_off,480,0,4,,,,,,,,3,,,,77,64
670080,note_on,0,0,5,,,,,,,,4,,,,70,45
670080,note_off,480,0,2,,,,,,,,1,,,,65,64
670080,note_on,0,0,2,,,,,,,,1,,,,61,60
670080,note_on,0,0,6,,,,,,,,5,,,,65,45
670080,note_on,80,0,6,,,,,,,,5,,,,58,45
670080,note_on,80,0,7,,,,,,,,6,,,,49,45
670080,note_on,0,0,4,,,,,,,,3,,,,73,45
670480,note_off,400,0,7,,,,,,,,6,,,,49,64
670480,note_off,400,0,8,,,,,,,,7,,,,37,64
670560,note_off,480,0,2,,,,,,,,1,,,,61,64
670560,note_on,0,0,4,,,,,,,,3,,,,72,45
670560,note_off,480,0,4,,,,,,,,3,,,,73,64
670560,note_on,0,0,2,,,,,,,,1,,,,60,60
670720,note_off,640,0,6,,,,,,,,5,,,,65,64
670720,note_off,0,0,6,,,,,,,,5,,,,58,64
670720,note_off,0,0,5,,,,,,,,4,,,,61,64
670720,note_off,640,0,5,,,,,,,,4,,,,70,64
670800,note_on,0,0,5,,,,,,,,4,,,,70,45
670800,note_on,80,0,5,,,,,,,,4,,,,61,45
670800,note_on,80,0,6,,,,,,,,5,,,,58,45
670800,note_on,0,0,6,,,,,,,,5,,,,65,45
671035,note_off,235,0,5,,,,,,,,4,,,,70,64
671035,note_off,0,0,5,,,,,,,,4,,,,61,64
671035,note_off,0,0,6,,,,,,,,5,,,,58,64
671035,note_off,235,0,6,,,,,,,,5,,,,65,64
671040,note_on,0,0,6,,,,,,,,5,,,,65,45
671040,note_on,5,0,6,,,,,,,,5,,,,58,45
671040,note_on,0,0,2,,,,,,,,1,,,,58,60
671040,note_off,480,0,2,,,,,,,,1,,,,60,64
671040,note_on,0,0,5,,,,,,,,4,,,,70,45
671040,note_on,5,0,5,,,,,,,,4,,,,61,45
671040,note_on,0,0,4,,,,,,,,3,,,,70,45
671040,note_off,480,0,4,,,,,,,,3,,,,72,64
671440,note_off,0,0,6,,,,,,,,5,,,,58,64
671440,note_off,400,0,5,,,,,,,,4,,,,70,64
671440,note_off,0,0,5,,,,,,,,4,,,,61,64
671440,note_off,400,0,4,,,,,,,,3,,,,70,64
671440,note_off,400,0,6,,,,,,,,5,,,,65,64
671440,note_off,400,0,2,,,,,,,,1,,,,58,64
671520,note_on,1040,0,8,,,,,,,,7,,,,34,45
671520,note_on,0,0,6,,,,,,,,5,,,,66,45
671520,note_on,80,0,4,,,,,,,,3,,,,78,45
671520,note_on,0,0,5,,,,,,,,4,,,,70,45
671520,note_on,80,0,6,,,,,,,,5,,,,58,45
671520,note_on,1040,0,7,,,,,,,,6,,,,46,45
671520,note_on,80,0,5,,,,,,,,4,,,,61,45
671520,note_on,11600,0,1,,,,,,,,0,,,,78,45
671520,note_on,80,0,2,,,,,,,,1,,,,66,60
671920,note_off,400,0,7,,,,,,,,6,,,,46,64
671920,note_off,400,0,8,,,,,,,,7,,,,34,64
672160,note_off,0,0,6,,,,,,,,5,,,,58,64
672160,note_off,0,0,5,,,,,,,,4,,,,61,64
672160,note_off,640,0,5,,,,,,,,4,,,,70,64
672160,note_off,640,0,6,,,,,,,,5,,,,66,64
672240,note_on,0,0,5,,,,,,,,4,,,,70,45
672240,note_on,80,0,6,,,,,,,,5,,,,58,45
672240,note_on,0,0,6,,,,,,,,5,,,,66,45
672240,note_on,80,0,5,,,,,,,,4,,,,61,45
672475,note_off,235,0,6,,,,,,,,5,,,,66,64
672475,note_off,0,0,6,,,,,,,,5,,,,58,64
672475,note_off,235,0,5,,,,,,,,4,,,,70,64
672475,note_off,0,0,5,,,,,,,,4,,,,61,64
672480,note_on,0,0,6,,,,,,,,5,,,,66,45
672480,note_on,5,0,5,,,,,,,,4,,,,61,45
672480,note_on,0,0,5,,,,,,,,4,,,,70,45
672480,note_on,5,0,6,,,,,,,,5,,,,58,45
672880,note_off,0,0,6,,,,,,,,5,,,,58,64
672880,note_off,400,0,6,,,,,,,,5,,,,66,64
672880,note_off,400,0,5,,,,,,,,4,,,,70,64
672880,note_off,0,0,5,,,,,,,,4,,,,61,64
672960,note_on,1040,0,8,,,,,,,,7,,,,30,45
672960,note_on,80,0,6,,,,,,,,5,,,,58,45
672960,note_on,0,0,6,,,,,,,,5,,,,66,45
672960,note_on,1040,0,7,,,,,,,,6,,,,42,45
672960,note_on,80,0,5,,,,,,,,4,,,,62,45
672960,note_on,0,0,5,,,,,,,,4,,,,70,45
673360,note_off,400,0,8,,,,,,,,7,,,,30,64
673360,note_off,400,0,7,,,,,,,,6,,,,42,64
673600,note_off,0,0,5,,,,,,,,4,,,,62,64
673600,note_off,0,0,6,,,,,,,,5,,,,58,64
673600,note_off,640,0,5,,,,,,,,4,,,,70,64
673600,note_off,640,0,6,,,,,,,,5,,,,66,64
673680,note_on,80,0,5,,,,,,,,4,,,,62,45
673680,note_on,0,0,5,,,,,,,,4,,,,70,45
673680,note_on,0,0,6,,,,,,,,5,,,,66,45
673680,note_on,80,0,6,,,,,,,,5,,,,58,45
673915,note_off,0,0,6,,,,,,,,5,,,,58,64
673915,note_off,235,0,6,,,,,,,,5,,,,66,64
673915,note_off,235,0,5,,,,,,,,4,,,,70,64
673915,note_off,0,0,5,,,,,,,,4,,,,62,64
673920,note_on,0,0,6,,,,,,,,5,,,,66,45
673920,note_on,5,0,6,,,,,,,,5,,,,58,45
673920,note_on,0,0,5,,,,,,,,4,,,,70,45
673920,note_on,5,0,5,,,,,,,,4,,,,62,45
674320,note_off,400,0,6,,,,,,,,5,,,,66,64
674320,note_off,0,0,6,,,,,,,,5,,,,58,64
674320,note_off,0,0,5,,,,,,,,4,,,,62,64
674320,note_off,400,0,5,,,,,,,,4,,,,70,64
674400,note_on,0,0,5,,,,,,,,4,,,,71,45
674400,note_on,80,0,5,,,,,,,,4,,,,62,45
674400,note_on,1040,0,8,,,,,,,,7,,,,35,45
674400,note_on,80,0,6,,,,,,,,5,,,,59,45
674400,note_on,1040,0,7,,,,,,,,6,,,,47,45
674400,note_on,0,0,6,,,,,,,,5,,,,66,45
674880,note_on,0,0,2,,,,,,,,1,,,,67,60
674880,note_on,0,0,1,,,,,,,,0,,,,79,45
674880,note_off,3360,0,2,,,,,,,,1,,,,66,64
674880,note_off,3360,0,4,,,,,,,,3,,,,78,64
674880,note_on,0,0,4,,,,,,,,3,,,,79,45
674880,set_tempo,5760,1,0,229885,,,,,,,,,,,,
674880,note_off,3360,0,1,,,,,,,,0,,,,78,64
675040,note_off,0,0,6,,,,,,,,5,,,,59,64
675040,note_off,640,0,5,,,,,,,,4,,,,71,64
675040,note_off,0,0,5,,,,,,,,4,,,,62,64
675040,note_off,640,0,8,,,,,,,,7,,,,35,64
675040,note_off,640,0,6,,,,,,,,5,,,,66,64
675040,note_off,640,0,7,,,,,,,,6,,,,47,64
675120,note_on,80,0,6,,,,,,,,5,,,,59,45
675120,note_on,0,0,6,,,,,,,,5,,,,66,45
675120,note_on,0,0,5,,,,,,,,4,,,,71,45
675120,note_on,80,0,5,,,,,,,,4,,,,62,45
675120,note_on,80,0,7,,,,,,,,6,,,,47,45
675120,note_on,80,0,8,,,,,,,,7,,,,35,45
675355,note_off,235,0,5,,,,,,,,4,,,,71,64
675355,note_off,235,0,8,,,,,,,,7,,,,35,64
675355,note_off,235,0,6,,,,,,,,5,,,,66,64
675355,note_off,0,0,6,,,,,,,,5,,,,59,64
675355,note_off,0,0,5,,,,,,,,4,,,,62,64
675355,note_off,235,0,7,,,,,,,,6,,,,47,64
675360,note_off,480,0,4,,,,,,,,3,,,,79,64
675360,note_off,480,0,1,,,,,,,,0,,,,79,64
675360,note_on,0,0,1,,,,,,,,0,,,,78,46
675360,note_on,0,0,4,,,,,,,,3,,,,78,46
675360,note_on,0,0,6,,,,,,,,5,,,,66,45
675360,note_on,5,0,6,,,,,,,,5,,,,59,45
675360,note_on,5,0,8,,,,,,,,7,,,,35,45
675360,note_on,0,0,5,,,,,,,,4,,,,71,45
675360,note_on,0,0,2,,,,,,,,1,,,,66,61
675360,note_off,480,0,2,,,,,,,,1,,,,67,64
675360,note_on,5,0,7,,,,,,,,6,,,,47,45
675360,note_on,5,0,5,,,,,,,,4,,,,62,45
675760,note_off,400,0,6,,,,,,,,5,,,,66,64
675760,note_off,400,0,8,,,,,,,,7,,,,35,64
675760,note_off,400,0,5,,,,,,,,4,,,,71,64
675760,note_off,0,0,5,,,,,,,,4,,,,62,64
675760,note_off,0,0,6,,,,,,,,5,,,,59,64
675760,note_off,400,0,7,,,,,,,,6,,,,47,64
675840,note_on,80,0,6,,,,,,,,5,,,,59,46
675840,note_on,0,0,6,,,,,,,,5,,,,66,46
675840,note_off,480,0,2,,,,,,,,1,,,,66,64
675840,note_on,0,0,4,,,,,,,,3,,,,74,47
675840,note_on,0,0,2,,,,,,,,1,,,,62,62
675840,note_off,480,0,1,,,,,,,,0,,,,78,64
675840,note_on,0,0,1,,,,,,,,0,,,,74,47
675840,note_on,80,0,8,,,,,,,,7,,,,38,46
675840,note_on,80,0,5,,,,,,,,4,,,,62,46
675840,note_on,0,0,5,,,,,,,,4,,,,71,46
675840,note_on,80,0,7,,,,,,,,6,,,,50,46
675840,note_off,480,0,4,,,,,,,,3,,,,78,64
676240,note_off,400,0,8,,,,,,,,7,,,,38,64
676240,note_off,400,0,7,,,,,,,,6,,,,50,64
676320,note_on,0,0,2,,,,,,,,1,,,,61,63
676320,note_off,480,0,1,,,,,,,,0,,,,74,64
676320,note_on,0,0,1,,,,,,,,0,,,,73,48
676320,note_on,0,0,4,,,,,,,,3,,,,73,48
676320,note_off,480,0,4,,,,,,,,3,,,,74,64
676320,note_off,480,0,2,,,,,,,,1,,,,62,64
676480,note_off,0,0,6,,,,,,,,5,,,,59,64
676480,note_off,640,0,5,,,,,,,,4,,,,71,64
676480,note_off,640,0,6,,,,,,,,5,,,,66,64
676480,note_off,0,0,5,,,,,,,,4,,,,62,64
676560,note_on,80,0,6,,,,,,,,5,,,,59,48
676560,note_on,80,0,5,,,,,,,,4,,,,62,48
676560,note_on,0,0,6,,,,,,,,5,,,,66,48
676560,note_on,0,0,5,,,,,,,,4,,,,71,48
676795,note_off,235,0,5,,,,,,,,4,,,,71,64
676795,note_off,0,0,6,,,,,,,,5,,,,59,64
676795,note_off,235,0,6,,,,,,,,5,,,,66,64
676795,note_off,0,0,5,,,,,,,,4,,,,62,64
676800,note_on,0,0,1,,,,,,,,0,,,,71,49
676800,note_off,480,0,1,,,,,,,,0,,,,73,64
676800,note_on,0,0,5,,,,,,,,4,,,,71,48
676800,note_off,480,0,2,,,,,,,,1,,,,61,64
676800,note_on,5,0,6,,,,,,,,5,,,,59,48
676800,note_on,0,0,4,,,,,,,,3,,,,71,49
676800,note_off,480,0,4,,,,,,,,3,,,,73,64
676800,note_on,0,0,6,,,,,,,,5,,,,66,48
676800,note_on,0,0,2,,,,,,,,1,,,,59,64
676800,note_on,5,0,5,,,,,,,,4,,,,62,48
677200,note_off,400,0,6,,,,,,,,5,,,,66,64
677200,note_off,400,0,5,,,,,,,,4,,,,71,64
677200,note_off,0,0,6,,,,,,,,5,,,,59,64
677200,note_off,0,0,5,,,,,,,,4,,,,62,64
677200,note_off,400,0,4,,,,,,,,3,,,,71,64
677200,note_off,400,0,1,,,,,,,,0,,,,71,64
677200,note_off,400,0,2,,,,,,,,1,,,,59,64
677280,note_on,1040,0,7,,,,,,,,6,,,,43,50
677280,note_on,67280,0,3,,,,,,,,2,,,,67,60
677280,note_on,80,0,4,,,,,,,,3,,,,79,50
677280,note_on,0,0,5,,,,,,,,4,,,,71,49
677280,note_on,80,0,2,,,,,,,,1,,,,67,65
677280,note_on,80,0,1,,,,,,,,0,,,,79,50
677280,note_on,1040,0,8,,,,,,,,7,,,,31,50
677280,note_on,80,0,6,,,,,,,,5,,,,62,49
677280,note_on,0,0,6,,,,,,,,5,,,,65,49
677280,note_on,80,0,5,,,,,,,,4,,,,67,49
677920,note_off,0,0,6,,,,,,,,5,,,,62,64
677920,note_off,640,0,5,,,,,,,,4,,,,71,64
677920,note_off,640,0,7,,,,,,,,6,,,,43,64
677920,note_off,0,0,5,,,,,,,,4,,,,67,64
677920,note_off,640,0,8,,,,,,,,7,,,,31,64
677920,note_off,640,0,3,,,,,,,,2,,,,67,64
677920,note_off,640,0,6,,,,,,,,5,,,,65,64
678000,note_on,80,0,5,,,,,,,,4,,,,67,51
678000,note_on,0,0,5,,,,,,,,4,,,,71,51
678000,note_on,80,0,7,,,,,,,,6,,,,43,52
678000,note_on,80,0,3,,,,,,,,2,,,,67,60
678000,note_on,80,0,6,,,,,,,,5,,,,62,51
678000,note_on,0,0,6,,,,,,,,5,,,,65,51
678000,note_on,80,0,8,,,,,,,,7,,,,31,52
678235,note_off,0,0,6,,,,,,,,5,,,,62,64
678235,note_off,235,0,6,,,,,,,,5,,,,65,64
678235,note_off,235,0,7,,,,,,,,6,,,,43,64
678235,note_off,235,0,8,,,,,,,,7,,,,31,64
678235,note_off,235,0,3,,,,,,,,2,,,,67,64
678235,note_off,0,0,5,,,,,,,,4,,,,67,64
678235,note_off,235,0,5,,,,,,,,4,,,,71,64
678240,note_on,5,0,3,,,,,,,,2,,,,67,60
678240,note_on,5,0,5,,,,,,,,4,,,,67,51
678240,note_on,0,0,6,,,,,,,,5,,,,65,51
678240,note_on,5,0,8,,,,,,,,7,,,,31,52
678240,note_on,5,0,7,,,,,,,,6,,,,43,52
678240,note_on,0,0,5,,,,,,,,4,,,,71,51
678240,note_on,5,0,6,,,,,,,,5,,,,62,51
678640,note_off,400,0,7,,,,,,,,6,,,,43,64
678640,note_off,0,0,5,,,,,,,,4,,,,67,64
678640,note_off,400,0,3,,,,,,,,2,,,,67,64
678640,note_off,400,0,5,,,,,,,,4,,,,71,64
678640,note_off,400,0,8,,,,,,,,7,,,,31,64
678640,note_off,400,0,6,,,,,,,,5,,,,65,64
678640,note_off,0,0,6,,,,,,,,5,,,,62,64
678720,note_on,80,0,3,,,,,,,,2,,,,67,61
678720,note_on,80,0,7,,,,,,,,6,,,,55,53
678720,note_on,80,0,6,,,,,,,,5,,,,62,52
678720,note_on,0,0,6,,,,,,,,5,,,,65,52
678720,note_on,80,0,8,,,,,,,,7,,,,43,53
678720,note_on,80,0,5,,,,,,,,4,,,,67,52
678720,note_on,0,0,5,,,,,,,,4,,,,71,52
679120,note_off,400,0,8,,,,,,,,7,,,,43,64
679120,note_off,400,0,7,,,,,,,,6,,,,55,64
679360,note_off,640,0,6,,,,,,,,5,,,,65,64
679360,note_off,0,0,6,,,,,,,,5,,,,62,64
679360,note_off,640,0,5,,,,,,,,4,,,,71,64
679360,note_off,0,0,5,,,,,,,,4,,,,67,64
679360,note_off,640,0,3,,,,,,,,2,,,,67,64
679440,note_on,0,0,5,,,,,,,,4,,,,71,54
679440,note_on,80,0,5,,,,,,,,4,,,,67,54
679440,note_on,80,0,6,,,,,,,,5,,,,62,54
679440,note_on,0,0,6,,,,,,,,5,,,,65,54
679440,note_on,80,0,3,,,,,,,,2,,,,67,63
679675,note_off,235,0,6,,,,,,,,5,,,,65,64
679675,note_off,0,0,5,,,,,,,,4,,,,67,64
679675,note_off,235,0,5,,,,,,,,4,,,,71,64
679675,note_off,235,0,3,,,,,,,,2,,,,67,64
679675,note_off,0,0,6,,,,,,,,5,,,,62,64
679680,note_on,5,0,3,,,,,,,,2,,,,67,63
679680,note_on,5,0,5,,,,,,,,4,,,,67,54
679680,note_on,5,0,6,,,,,,,,5,,,,62,54
679680,note_on,0,0,6,,,,,,,,5,,,,65,54
679680,note_on,0,0,5,,,,,,,,4,,,,71,54
680080,note_off,400,0,3,,,,,,,,2,,,,67,64
680080,note_off,0,0,5,,,,,,,,4,,,,67,64
680080,note_off,400,0,6,,,,,,,,5,,,,65,64
680080,note_off,0,0,6,,,,,,,,5,,,,62,64
680080,note_off,400,0,5,,,,,,,,4,,,,71,64
680160,note_on,80,0,6,,,,,,,,5,,,,62,56
680160,note_on,80,0,3,,,,,,,,2,,,,67,64
680160,note_on,1040,0,8,,,,,,,,7,,,,31,57
680160,note_on,0,0,5,,,,,,,,4,,,,71,56
680160,note_on,80,0,5,,,,,,,,4,,,,67,56
680160,note_on,1040,0,7,,,,,,,,6,,,,43,57
680160,note_on,0,0,6,,,,,,,,5,,,,65,56
680800,note_off,0,0,6,,,,,,,,5,,,,62,64
680800,note_off,640,0,5,,,,,,,,4,,,,71,64
680800,note_off,640,0,8,,,,,,,,7,,,,31,64
680800,note_off,0,0,5,,,,,,,,4,,,,67,64
680800,note_off,640,0,7,,,,,,,,6,,,,43,64
680800,note_off,640,0,3,,,,,,,,2,,,,67,64
680800,note_off,640,0,6,,,,,,,,5,,,,65,64
680880,note_on,0,0,6,,,,,,,,5,,,,65,59
680880,note_on,80,0,6,,,,,,,,5,,,,62,59
680880,note_on,80,0,8,,,,,,,,7,,,,31,59
680880,note_on,0,0,5,,,,,,,,4,,,,71,59
680880,note_on,80,0,3,,,,,,,,2,,,,67,66
680880,note_on,80,0,5,,,,,,,,4,,,,67,59
680880,note_on,80,0,7,,,,,,,,6,,,,43,59
681115,note_off,235,0,5,,,,,,,,4,,,,71,64
681115,note_off,0,0,5,,,,,,,,4,,,,67,64
681115,note_off,0,0,6,,,,,,,,5,,,,62,64
681115,note_off,235,0,6,,,,,,,,5,,,,65,64
681115,note_off,235,0,3,,,,,,,,2,,,,67,64
681115,note_off,235,0,7,,,,,,,,6,,,,43,64
681115,note_off,235,0,8,,,,,,,,7,,,,31,64
681120,note_on,0,0,6,,,,,,,,5,,,,65,60
681120,note_on,5,0,6,,,,,,,,5,,,,62,60
681120,note_on,5,0,3,,,,,,,,2,,,,67,66
681120,note_on,5,0,8,,,,,,,,7,,,,31,60
681120,note_on,5,0,7,,,,,,,,6,,,,43,60
681120,note_on,0,0,5,,,,,,,,4,,,,71,60
681120,note_on,5,0,5,,,,,,,,4,,,,67,60
681520,note_off,0,0,5,,,,,,,,4,,,,67,64
681520,note_off,400,0,7,,,,,,,,6,,,,43,64
681520,note_off,400,0,8,,,,,,,,7,,,,31,64
681520,note_off,400,0,5,,,,,,,,4,,,,71,64
681520,note_off,0,0,6,,,,,,,,5,,,,62,64
681520,note_off,400,0,3,,,,,,,,2,,,,67,64
681520,note_off,400,0,6,,,,,,,,5,,,,65,64
681600,note_on,80,0,6,,,,,,,,5,,,,62,62
681600,note_on,80,0,5,,,,,,,,4,,,,67,62
681600,note_on,80,0,8,,,,,,,,7,,,,43,62
681600,note_on,0,0,5,,,,,,,,4,,,,71,62
681600,note_on,80,0,7,,,,,,,,6,,,,55,62
681600,note_on,0,0,6,,,,,,,,5,,,,65,62
681600,note_on,80,0,3,,,,,,,,2,,,,67,67
682000,note_off,400,0,7,,,,,,,,6,,,,55,64
682000,note_off,400,0,8,,,,,,,,7,,,,43,64
682000,note_off,4720,0,4,,,,,,,,3,,,,79,64
682080,note_on,0,0,2,,,,,,,,1,,,,57,75
682080,note_off,4800,0,2,,,,,,,,1,,,,67,64
682080,note_off,4800,0,1,,,,,,,,0,,,,79,64
682080,note_on,0,0,1,,,,,,,,0,,,,81,66
682080,note_on,80,0,4,,,,,,,,3,,,,81,66
682240,note_off,640,0,5,,,,,,,,4,,,,71,64
682240,note_off,640,0,3,,,,,,,,2,,,,67,64
682240,note_off,640,0,6,,,,,,,,5,,,,65,64
682240,note_off,0,0,6,,,,,,,,5,,,,62,64
682240,note_off,0,0,5,,,,,,,,4,,,,67,64
682320,note_on,0,0,5,,,,,,,,4,,,,71,65
682320,note_on,80,0,3,,,,,,,,2,,,,67,69
682320,note_on,80,0,6,,,,,,,,5,,,,62,65
682320,note_on,0,0,6,,,,,,,,5,,,,65,65
682320,note_on,80,0,5,,,,,,,,4,,,,67,65
682555,note_off,235,0,3,,,,,,,,2,,,,67,64
682555,note_off,235,0,6,,,,,,,,5,,,,65,64
682555,note_off,235,0,5,,,,,,,,4,,,,71,64
682555,note_off,0,0,5,,,,,,,,4,,,,67,64
682555,note_off,0,0,6,,,,,,,,5,,,,62,64
682560,note_on,5,0,6,,,,,,,,5,,,,62,66
682560,note_on,0,0,6,,,,,,,,5,,,,65,66
682560,note_on,0,0,5,,,,,,,,4,,,,71,66
682560,note_on,0,0,1,,,,,,,,0,,,,83,67
682560,note_on,0,0,4,,,,,,,,3,,,,83,67
682560,note_on,0,0,2,,,,,,,,1,,,,59,76
682560,note_off,480,0,2,,,,,,,,1,,,,57,64
682560,note_off,480,0,4,,,,,,,,3,,,,81,64
682560,note_on,5,0,3,,,,,,,,2,,,,67,69
682560,note_on,5,0,5,,,,,,,,4,,,,67,66
682560,note_off,480,0,1,,,,,,,,0,,,,81,64
682960,note_off,400,0,2,,,,,,,,1,,,,59,64
682960,note_off,400,0,1,,,,,,,,0,,,,83,64
682960,note_off,400,0,4,,,,,,,,3,,,,83,64
682960,note_off,0,0,6,,,,,,,,5,,,,62,64
682960,note_off,0,0,5,,,,,,,,4,,,,67,64
682960,note_off,400,0,5,,,,,,,,4,,,,71,64
682960,note_off,400,0,6,,,,,,,,5,,,,65,64
682960,note_off,400,0,3,,,,,,,,2,,,,67,64
683040,note_on,80,0,6,,,,,,,,5,,,,64,68
683040,note_on,80,0,1,,,,,,,,0,,,,84,68
683040,note_on,0,0,5,,,,,,,,4,,,,70,68
683040,note_on,80,0,3,,,,,,,,2,,,,60,70
683040,note_on,1040,0,7,,,,,,,,6,,,,48,68
683040,note_on,80,0,2,,,,,,,,1,,,,60,77
683040,note_on,80,0,4,,,,,,,,3,,,,84,68
683040,note_on,1040,0,8,,,,,,,,7,,,,36,68
683040,note_on,0,0,6,,,,,,,,5,,,,72,68
683040,note_on,80,0,5,,,,,,,,4,,,,67,68
683680,note_off,640,0,3,,,,,,,,2,,,,60,64
683680,note_off,640,0,7,,,,,,,,6,,,,48,64
683680,note_off,640,0,8,,,,,,,,7,,,,36,64
683680,note_off,0,0,5,,,,,,,,4,,,,67,64
683680,note_off,640,0,5,,,,,,,,4,,,,70,64
683680,note_off,640,0,6,,,,,,,,5,,,,72,64
683680,note_off,0,0,6,,,,,,,,5,,,,64,64
683760,note_on,80,0,3,,,,,,,,2,,,,60,72
683760,note_on,80,0,6,,,,,,,,5,,,,64,71
683760,note_on,80,0,5,,,,,,,,4,,,,67,71
683760,note_on,80,0,8,,,,,,,,7,,,,36,71
683760,note_on,0,0,5,,,,,,,,4,,,,70,71
683760,note_on,0,0,6,,,,,,,,5,,,,72,71
683760,note_on,80,0,7,,,,,,,,6,,,,48,71
683995,note_off,235,0,3,,,,,,,,2,,,,60,64
683995,note_off,235,0,7,,,,,,,,6,,,,48,64
683995,note_off,235,0,5,,,,,,,,4,,,,70,64
683995,note_off,0,0,6,,,,,,,,5,,,,64,64
683995,note_off,235,0,8,,,,,,,,7,,,,36,64
683995,note_off,0,0,5,,,,,,,,4,,,,67,64
683995,note_off,235,0,6,,,,,,,,5,,,,72,64
684000,note_on,5,0,5,,,,,,,,4,,,,67,72
684000,note_on,0,0,5,,,,,,,,4,,,,70,72
684000,note_on,5,0,7,,,,,,,,6,,,,48,72
684000,note_on,5,0,3,,,,,,,,2,,,,60,72
684000,note_on,5,0,6,,,,,,,,5,,,,64,72
684000,note_on,5,0,8,,,,,,,,7,,,,36,72
684000,note_on,0,0,6,,,,,,,,5,,,,72,72
684400,note_off,400,0,5,,,,,,,,4,,,,70,64
684400,note_off,0,0,5,,,,,,,,4,,,,67,64
684400,note_off,400,0,6,,,,,,,,5,,,,72,64
684400,note_off,0,0,6,,,,,,,,5,,,,64,64
684400,note_off,400,0,7,,,,,,,,6,,,,48,64
684400,note_off,400,0,3,,,,,,,,2,,,,60,64
684400,note_off,400,0,8,,,,,,,,7,,,,36,64
684480,note_on,0,0,6,,,,,,,,5,,,,72,74
684480,note_on,80,0,3,,,,,,,,2,,,,60,74
684480,note_on,80,0,5,,,,,,,,4,,,,67,74
684480,note_on,0,0,5,,,,,,,,4,,,,70,74
684480,note_on,80,0,7,,,,,,,,6,,,,60,74
684480,note_on,80,0,6,,,,,,,,5,,,,64,74
684480,note_on,80,0,8,,,,,,,,7,,,,48,74
684880,note_off,400,0,8,,,,,,,,7,,,,48,64
684880,note_off,400,0,7,,,,,,,,6,,,,60,64
685120,note_off,0,0,6,,,,,,,,5,,,,64,64
685120,note_off,0,0,5,,,,,,,,4,,,,67,64
685120,note_off,640,0,3,,,,,,,,2,,,,60,64
685120,note_off,640,0,6,,,,,,,,5,,,,72,64
685120,note_off,640,0,5,,,,,,,,4,,,,70,64
685200,note_on,80,0,3,,,,,,,,2,,,,60,77
685200,note_on,80,0,6,,,,,,,,5,,,,64,77
685200,note_on,0,0,6,,,,,,,,5,,,,72,77
685200,note_on,80,0,5,,,,,,,,4,,,,67,77
685200,note_on,0,0,5,,,,,,,,4,,,,70,77
685435,note_off,235,0,5,,,,,,,,4,,,,70,64
685435,note_off,235,0,3,,,,,,,,2,,,,60,64
685435,note_off,0,0,6,,,,,,,,5,,,,64,64
685435,note_off,235,0,6,,,,,,,,5,,,,72,64
685435,note_off,0,0,5,,,,,,,,4,,,,67,64
685440,note_on,0,0,6,,,,,,,,5,,,,72,78
685440,note_on,5,0,6,,,,,,,,5,,,,64,78
685440,note_on,5,0,5,,,,,,,,4,,,,67,78
685440,note_on,5,0,3,,,,,,,,2,,,,60,78
685440,note_on,0,0,5,,,,,,,,4,,,,70,78
685840,note_off,400,0,5,,,,,,,,4,,,,70,64
685840,note_off,400,0,3,,,,,,,,2,,,,60,64
685840,note_off,0,0,5,,,,,,,,4,,,,67,64
685840,note_off,400,0,6,,,,,,,,5,,,,72,64
685840,note_off,0,0,6,,,,,,,,5,,,,64,64
685920,note_on,1040,0,7,,,,,,,,6,,,,48,80
685920,note_on,80,0,3,,,,,,,,2,,,,60,80
685920,note_on,0,0,5,,,,,,,,4,,,,70,80
685920,note_on,0,0,6,,,,,,,,5,,,,72,80
685920,note_on,1040,0,8,,,,,,,,7,,,,36,80
685920,note_on,80,0,5,,,,,,,,4,,,,67,80
685920,note_on,80,0,6,,,,,,,,5,,,,64,80
686560,note_off,640,0,5,,,,,,,,4,,,,70,64
686560,note_off,640,0,8,,,,,,,,7,,,,36,64
686560,note_off,0,0,6,,,,,,,,5,,,,64,64
686560,note_off,640,0,3,,,,,,,,2,,,,60,64
686560,note_off,0,0,5,,,,,,,,4,,,,67,64
686560,note_off,640,0,7,,,,,,,,6,,,,48,64
686560,note_off,640,0,6,,,,,,,,5,,,,72,64
686640,note_on,80,0,7,,,,,,,,6,,,,48,83
686640,note_on,80,0,3,,,,,,,,2,,,,60,83
686640,note_on,80,0,5,,,,,,,,4,,,,67,83
686640,note_on,80,0,6,,,,,,,,5,,,,64,83
686640,note_on,0,0,6,,,,,,,,5,,,,72,83
686640,note_on,0,0,5,,,,,,,,4,,,,70,83
686640,note_on,80,0,8,,,,,,,,7,,,,36,83
686875,note_off,0,0,6,,,,,,,,5,,,,64,64
686875,note_off,235,0,3,,,,,,,,2,,,,60,64
686875,note_off,0,0,5,,,,,,,,4,,,,67,64
686875,note_off,235,0,5,,,,,,,,4,,,,70,64
686875,note_off,235,0,7,,,,,,,,6,,,,48,64
686875,note_off,235,0,8,,,,,,,,7,,,,36,64
686875,note_off,235,0,6,,,,,,,,5,,,,72,64
686880,note_on,5,0,7,,,,,,,,6,,,,48,84
686880,note_on,5,0,6,,,,,,,,5,,,,64,84
686880,note_on,5,0,3,,,,,,,,2,,,,60,84
686880,note_on,0,0,6,,,,,,,,5,,,,72,84
686880,note_on,5,0,8,,,,,,,,7,,,,36,84
686880,note_on,5,0,5,,,,,,,,4,,,,67,84
686880,note_on,0,0,5,,,,,,,,4,,,,70,84
687240,note_off,4200,0,1,,,,,,,,0,,,,84,64
687240,note_off,4200,0,4,,,,,,,,3,,,,84,64
687280,note_off,0,0,6,,,,,,,,5,,,,64,64
687280,note_off,400,0,6,,,,,,,,5,,,,72,64
687280,note_off,400,0,5,,,,,,,,4,,,,70,64
687280,note_off,400,0,3,,,,,,,,2,,,,60,64
687280,note_off,400,0,7,,,,,,,,6,,,,48,64
687280,note_off,400,0,8,,,,,,,,7,,,,36,64
687280,note_off,0,0,5,,,,,,,,4,,,,67,64
687360,note_on,80,0,7,,,,,,,,6,,,,60,86
687360,note_on,80,0,8,,,,,,,,7,,,,48,86
687360,note_on,120,0,1,,,,,,,,0,,,,72,86
687360,note_on,0,0,6,,,,,,,,5,,,,72,86
687360,note_on,80,0,6,,,,,,,,5,,,,64,86
687360,note_on,120,0,4,,,,,,,,3,,,,72,86
687360,note_on,80,0,5,,,,,,,,4,,,,67,86
687360,set_tempo,12480,1,0,247933,,,,,,,,,,,,
687360,note_on,80,0,3,,,,,,,,2,,,,60,86
687360,note_on,0,0,5,,,,,,,,4,,,,70,86
687760,note_off,400,0,8,,,,,,,,7,,,,48,64
687760,note_off,400,0,7,,,,,,,,6,,,,60,64
687760,note_off,4720,0,2,,,,,,,,1,,,,60,64
687760,note_off,400,0,1,,,,,,,,0,,,,72,64
687760,note_off,400,0,4,,,,,,,,3,,,,72,64
687840,note_on,80,0,2,,,,,,,,1,,,,62,89
687840,note_on,80,0,1,,,,,,,,0,,,,74,88
687840,note_on,80,0,4,,,,,,,,3,,,,74,88
687840,set_tempo,480,1,0,243902,,,,,,,,,,,,
688000,note_off,0,0,6,,,,,,,,5,,,,64,64
688000,note_off,640,0,6,,,,,,,,5,,,,72,64
688000,note_off,0,0,5,,,,,,,,4,,,,67,64
688000,note_off,640,0,5,,,,,,,,4,,,,70,64
688000,note_off,640,0,3,,,,,,,,2,,,,60,64
688080,note_on,80,0,6,,,,,,,,5,,,,64,89
688080,note_on,0,0,6,,,,,,,,5,,,,72,89
688080,note_on,80,0,3,,,,,,,,2,,,,60,89
688080,note_on,80,0,5,,,,,,,,4,,,,67,89
688080,note_on,0,0,5,,,,,,,,4,,,,70,89
688240,note_off,400,0,1,,,,,,,,0,,,,74,64
688240,note_off,400,0,2,,,,,,,,1,,,,62,64
688240,note_off,400,0,4,,,,,,,,3,,,,74,64
688315,note_off,235,0,6,,,,,,,,5,,,,72,64
688315,note_off,235,0,3,,,,,,,,2,,,,60,64
688315,note_off,0,0,5,,,,,,,,4,,,,67,64
688315,note_off,235,0,5,,,,,,,,4,,,,70,64
688315,note_off,0,0,6,,,,,,,,5,,,,64,64
688320,note_on,0,0,5,,,,,,,,4,,,,70,90
688320,note_on,5,0,5,,,,,,,,4,,,,67,90
688320,note_on,80,0,1,,,,,,,,0,,,,76,90
688320,note_on,80,0,4,,,,,,,,3,,,,76,90
688320,note_on,5,0,6,,,,,,,,5,,,,64,90
688320,set_tempo,480,1,0,238095,,,,,,,,,,,,
688320,note_on,80,0,2,,,,,,,,1,,,,64,90
688320,note_on,5,0,3,,,,,,,,2,,,,60,90
688320,note_on,0,0,6,,,,,,,,5,,,,72,90
688720,note_off,400,0,2,,,,,,,,1,,,,64,64
688720,note_off,400,0,3,,,,,,,,2,,,,60,64
688720,note_off,400,0,5,,,,,,,,4,,,,70,64
688720,note_off,0,0,5,,,,,,,,4,,,,67,64
688720,note_off,400,0,6,,,,,,,,5,,,,72,64
688720,note_off,0,0,6,,,,,,,,5,,,,64,64
688720,note_off,400,0,4,,,,,,,,3,,,,76,64
688720,note_off,400,0,1,,,,,,,,0,,,,76,64
688800,note_on,80,0,4,,,,,,,,3,,,,69,92
688800,note_on,0,0,4,,,,,,,,3,,,,77,92
688800,note_on,80,0,2,,,,,,,,1,,,,65,92
688800,note_on,80,0,6,,,,,,,,5,,,,60,92
688800,note_on,1040,0,7,,,,,,,,6,,,,53,92
688800,note_on,0,0,5,,,,,,,,4,,,,65,92
688800,note_on,80,0,5,,,,,,,,4,,,,57,92
688800,note_on,80,0,1,,,,,,,,0,,,,77,92
688800,note_on,1040,0,8,,,,,,,,7,,,,41,92
688800,set_tempo,480,1,0,229007,,,,,,,,,,,,
688800,note_on,80,0,3,,,,,,,,2,,,,65,92
689305,note_off,0,0,4,,,,,,,,3,,,,69,64
689305,note_off,505,0,8,,,,,,,,7,,,,41,64
689305,note_off,505,0,7,,,,,,,,6,,,,53,64
689305,note_off,505,0,2,,,,,,,,1,,,,65,64
689305,note_off,505,0,3,,,,,,,,2,,,,65,64
689305,note_off,505,0,5,,,,,,,,4,,,,65,64
689305,note_off,505,0,6,,,,,,,,5,,,,60,64
689305,note_off,505,0,4,,,,,,,,3,,,,77,64
689305,note_off,505,0,1,,,,,,,,0,,,,77,64
689305,note_off,0,0,5,,,,,,,,4,,,,57,64
689520,note_on,0,0,4,,,,,,,,3,,,,77,92
689520,note_on,215,0,7,,,,,,,,6,,,,53,92
689520,note_on,215,0,1,,,,,,,,0,,,,77,92
689520,note_on,215,0,8,,,,,,,,7,,,,41,92
689520,note_on,215,0,4,,,,,,,,3,,,,69,92
689520,note_on,215,0,3,,,,,,,,2,,,,65,92
689520,note_on,215,0,2,,,,,,,,1,,,,57,92
689520,note_on,0,0,5,,,,,,,,4,,,,65,92
689520,note_on,215,0,6,,,,,,,,5,,,,60,92
689520,note_on,215,0,5,,,,,,,,4,,,,57,92
689600,note_off,80,0,2,,,,,,,,1,,,,57,64
689600,note_off,0,0,5,,,,,,,,4,,,,57,64
689600,note_off,80,0,7,,,,,,,,6,,,,53,64
689600,note_off,80,0,3,,,,,,,,2,,,,65,64
689600,note_off,80,0,8,,,,,,,,7,,,,41,64
689600,note_off,80,0,5,,,,,,,,4,,,,65,64
689600,note_off,0,0,4,,,,,,,,3,,,,69,64
689600,note_off,80,0,4,,,,,,,,3,,,,77,64
689600,note_off,80,0,6,,,,,,,,5,,,,60,64
689600,note_off,80,0,1,,,,,,,,0,,,,77,64
689760,note_on,160,0,2,,,,,,,,1,,,,60,92
689760,note_on,160,0,4,,,,,,,,3,,,,72,92
689760,note_on,160,0,3,,,,,,,,2,,,,67,92
689760,note_on,0,0,5,,,,,,,,4,,,,67,92
689760,note_on,160,0,7,,,,,,,,6,,,,48,92
689760,note_on,160,0,5,,,,,,,,4,,,,60,92
689760,note_on,160,0,1,,,,,,,,0,,,,76,92
689760,note_on,0,0,4,,,,,,,,3,,,,79,92
689760,note_on,160,0,6,,,,,,,,5,,,,64,92
689760,note_on,160,0,8,,,,,,,,7,,,,36,92
689880,note_off,120,0,1,,,,,,,,0,,,,76,64
689880,note_off,120,0,6,,,,,,,,5,,,,64,64
689880,note_off,120,0,5,,,,,,,,4,,,,67,64
689880,note_off,0,0,5,,,,,,,,4,,,,60,64
689880,note_off,120,0,4,,,,,,,,3,,,,79,64
689880,note_off,0,0,4,,,,,,,,3,,,,72,64
689880,note_off,120,0,8,,,,,,,,7,,,,36,64
689880,note_off,120,0,2,,,,,,,,1,,,,60,64
689880,note_off,120,0,7,,,,,,,,6,,,,48,64
689880,note_off,120,0,3,,,,,,,,2,,,,67,64
690240,note_on,360,0,3,,,,,,,,2,,,,69,92
690240,note_on,360,0,8,,,,,,,,7,,,,41,92
690240,note_on,360,0,7,,,,,,,,6,,,,53,92
690240,note_on,360,0,1,,,,,,,,0,,,,77,92
690240,note_on,360,0,6,,,,,,,,5,,,,65,92
690240,note_on,0,0,4,,,,,,,,3,,,,81,92
690240,note_on,360,0,4,,,,,,,,3,,,,72,92
690240,note_on,360,0,2,,,,,,,,1,,,,65,92
690240,note_on,360,0,5,,,,,,,,4,,,,60,92
690240,note_on,0,0,5,,,,,,,,4,,,,69,92
690745,note_off,505,0,3,,,,,,,,2,,,,69,64
690745,note_off,505,0,6,,,,,,,,5,,,,65,64
690745,note_off,505,0,8,,,,,,,,7,,,,41,64
690745,note_off,505,0,4,,,,,,,,3,,,,81,64
690745,note_off,0,0,5,,,,,,,,4,,,,60,64
690745,note_off,505,0,5,,,,,,,,4,,,,69,64
690745,note_off,0,0,4,,,,,,,,3,,,,72,64
690745,note_off,505,0,1,,,,,,,,0,,,,77,64
690745,note_off,505,0,7,,,,,,,,6,,,,53,64
690745,note_off,505,0,2,,,,,,,,1,,,,65,64
690960,note_on,215,0,2,,,,,,,,1,,,,65,92
690960,note_on,215,0,5,,,,,,,,4,,,,60,92
690960,note_on,0,0,5,,,,,,,,4,,,,69,92
690960,note_on,215,0,4,,,,,,,,3,,,,72,92
690960,note_on,215,0,8,,,,,,,,7,,,,41,92
690960,note_on,215,0,1,,,,,,,,0,,,,77,92
690960,note_on,215,0,3,,,,,,,,2,,,,69,92
690960,note_on,215,0,7,,,,,,,,6,,,,53,92
690960,note_on,215,0,6,,,,,,,,5,,,,65,92
690960,note_on,0,0,4,,,,,,,,3,,,,81,92
691040,note_off,80,0,3,,,,,,,,2,,,,69,64
691040,note_off,80,0,5,,,,,,,,4,,,,69,64
691040,note_off,0,0,4,,,,,,,,3,,,,72,64
691040,note_off,0,0,5,,,,,,,,4,,,,60,64
691040,note_off,80,0,6,,,,,,,,5,,,,65,64
691040,note_off,80,0,4,,,,,,,,3,,,,81,64
691040,note_off,80,0,8,,,,,,,,7,,,,41,64
691040,note_off,80,0,2,,,,,,,,1,,,,65,64
691040,note_off,80,0,1,,,,,,,,0,,,,77,64
691040,note_off,80,0,7,,,,,,,,6,,,,53,64
691200,note_on,160,0,1,,,,,,,,0,,,,77,92
691200,note_on,160,0,7,,,,,,,,6,,,,46,92
691200,note_on,0,0,5,,,,,,,,4,,,,70,92
691200,note_on,160,0,5,,,,,,,,4,,,,62,92
691200,note_on,160,0,4,,,,,,,,3,,,,74,92
691200,note_on,0,0,4,,,,,,,,3,,,,82,92
691200,note_on,160,0,6,,,,,,,,5,,,,65,92
691200,note_on,160,0,8,,,,,,,,7,,,,34,92
691200,note_on,160,0,3,,,,,,,,2,,,,70,92
691200,note_on,160,0,2,,,,,,,,1,,,,62,92
691320,note_off,120,0,2,,,,,,,,1,,,,62,64
691320,note_off,120,0,6,,,,,,,,5,,,,65,64
691320,note_off,120,0,3,,,,,,,,2,,,,70,64
691320,note_off,120,0,8,,,,,,,,7,,,,34,64
691320,note_off,0,0,5,,,,,,,,4,,,,62,64
691320,note_off,120,0,5,,,,,,,,4,,,,70,64
691320,note_off,120,0,7,,,,,,,,6,,,,46,64
691320,note_off,0,0,4,,,,,,,,3,,,,74,64
691320,note_off,120,0,4,,,,,,,,3,,,,82,64
691320,note_off,120,0,1,,,,,,,,0,,,,77,64
691680,note_on,360,0,2,,,,,,,,1,,,,65,92
691680,note_on,360,0,7,,,,,,,,6,,,,48,92
691680,note_on,360,0,3,,,,,,,,2,,,,69,92
691680,note_on,360,0,6,,,,,,,,5,,,,65,92
691680,note_on,0,0,5,,,,,,,,4,,,,69,92
691680,note_on,360,0,1,,,,,,,,0,,,,77,92
691680,note_on,360,0,8,,,,,,,,7,,,,36,92
691680,note_on,360,0,4,,,,,,,,3,,,,72,92
691680,note_on,360,0,5,,,,,,,,4,,,,60,92
691680,note_on,0,0,4,,,,,,,,3,,,,81,92
691800,note_off,120,0,1,,,,,,,,0,,,,77,64
691800,note_off,120,0,7,,,,,,,,6,,,,48,64
691800,note_off,120,0,3,,,,,,,,2,,,,69,64
691800,note_off,120,0,6,,,,,,,,5,,,,65,64
691800,note_off,120,0,8,,,,,,,,7,,,,36,64
691800,note_off,0,0,4,,,,,,,,3,,,,72,64
691800,note_off,120,0,4,,,,,,,,3,,,,81,64
691800,note_off,120,0,5,,,,,,,,4,,,,69,64
691800,note_off,0,0,5,,,,,,,,4,,,,60,64
691800,note_off,120,0,2,,,,,,,,1,,,,65,64
692160,note_on,360,0,5,,,,,,,,4,,,,60,92
692160,note_on,0,0,5,,,,,,,,4,,,,69,92
692160,note_on,360,0,7,,,,,,,,6,,,,48,92
692160,note_on,360,0,6,,,,,,,,5,,,,65,92
692160,note_on,360,0,4,,,,,,,,3,,,,72,92
692160,note_on,0,0,4,,,,,,,,3,,,,81,92
692160,note_on,360,0,2,,,,,,,,1,,,,65,92
692160,note_on,360,0,8,,,,,,,,7,,,,36,92
692160,note_on,360,0,3,,,,,,,,2,,,,69,92
692160,note_on,360,0,1,,,,,,,,0,,,,77,92
692280,note_off,120,0,2,,,,,,,,1,,,,65,64
692280,note_off,120,0,6,,,,,,,,5,,,,65,64
692280,note_off,120,0,7,,,,,,,,6,,,,48,64
692280,note_off,120,0,1,,,,,,,,0,,,,77,64
692280,note_off,120,0,5,,,,,,,,4,,,,69,64
692280,note_off,0,0,4,,,,,,,,3,,,,72,64
692280,note_off,120,0,4,,,,,,,,3,,,,81,64
692280,note_off,0,0,5,,,,,,,,4,,,,60,64
692280,note_off,120,0,3,,,,,,,,2,,,,69,64
692280,note_off,120,0,8,,,,,,,,7,,,,36,64
692640,note_on,360,0,1,,,,,,,,0,,,,76,92
692640,note_on,360,0,7,,,,,,,,6,,,,48,92
692640,note_on,360,0,5,,,,,,,,4,,,,60,92
692640,note_on,0,0,5,,,,,,,,4,,,,67,92
692640,note_on,360,0,8,,,,,,,,7,,,,36,92
692640,note_on,360,0,2,,,,,,,,1,,,,60,92
692640,note_on,0,0,4,,,,,,,,3,,,,79,92
692640,note_on,360,0,4,,,,,,,,3,,,,72,92
692640,note_on,360,0,3,,,,,,,,2,,,,67,92
692640,note_on,360,0,6,,,,,,,,5,,,,64,92
692760,note_off,120,0,7,,,,,,,,6,,,,48,64
692760,note_off,120,0,4,,,,,,,,3,,,,79,64
692760,note_off,120,0,1,,,,,,,,0,,,,76,64
692760,note_off,0,0,5,,,,,,,,4,,,,60,64
692760,note_off,120,0,6,,,,,,,,5,,,,64,64
692760,note_off,120,0,8,,,,,,,,7,,,,36,64
692760,note_off,120,0,5,,,,,,,,4,,,,67,64
692760,note_off,120,0,3,,,,,,,,2,,,,67,64
692760,note_off,120,0,2,,,,,,,,1,,,,60,64
692760,note_off,0,0,4,,,,,,,,3,,,,72,64
693120,note_on,360,0,8,,,,,,,,7,,,,41,92
693120,note_on,360,0,7,,,,,,,,6,,,,53,92
693120,note_on,360,0,2,,,,,,,,1,,,,57,92
693120,note_on,360,0,6,,,,,,,,5,,,,65,92
693120,note_on,360,0,1,,,,,,,,0,,,,77,92
693120,note_on,360,0,4,,,,,,,,3,,,,69,92
693120,note_on,360,0,5,,,,,,,,4,,,,57,92
693120,note_on,0,0,4,,,,,,,,3,,,,77,92
693120,note_on,360,0,3,,,,,,,,2,,,,65,92
693120,note_on,0,0,5,,,,,,,,4,,,,65,92
693520,note_off,400,0,1,,,,,,,,0,,,,77,64
693520,note_off,0,0,4,,,,,,,,3,,,,69,64
693520,note_off,400,0,8,,,,,,,,7,,,,41,64
693520,note_off,400,0,6,,,,,,,,5,,,,65,64
693520,note_off,400,0,7,,,,,,,,6,,,,53,64
693520,note_off,400,0,5,,,,,,,,4,,,,65,64
693520,note_off,0,0,5,,,,,,,,4,,,,57,64
693520,note_off,400,0,2,,,,,,,,1,,,,57,64
693520,note_off,400,0,4,,,,,,,,3,,,,77,64
693520,note_off,400,0,3,,,,,,,,2,,,,65,64
693960,note_on,440,0,8,,,,,,,,7,,,,36,45
693960,note_on,440,0,4,,,,,,,,3,,,,60,45
693960,program_change,440,0,6,,,,,,,,5,,,50,,
693960,note_on,440,0,7,,,,,,,,6,,,,48,45
693960,note_on,0,0,6,,,,,,,,5,,,,60,45
694200,note_off,240,0,8,,,,,,,,7,,,,36,64
694200,note_on,0,0,7,,,,,,,,6,,,,50,45
694200,note_on,0,0,6,,,,,,,,5,,,,62,45
694200,note_off,240,0,6,,,,,,,,5,,,,60,64
694200,note_on,0,0,8,,,,,,,,7,,,,38,45
694200,note_off,240,0,7,,,,,,,,6,,,,48,64
694200,note_off,240,0,4,,,,,,,,3,,,,60,64
694200,note_on,0,0,4,,,,,,,,3,,,,62,45
694440,note_on,0,0,6,,,,,,,,5,,,,64,45
694440,note_off,240,0,6,,,,,,,,5,,,,62,64
694440,note_off,240,0,8,,,,,,,,7,,,,38,64
694440,note_on,0,0,8,,,,,,,,7,,,,40,45
694440,note_off,240,0,4,,,,,,,,3,,,,62,64
694440,note_on,0,0,4,,,,,,,,3,,,,64,45
694440,note_off,240,0,7,,,,,,,,6,,,,50,64
694440,note_on,0,0,7,,,,,,,,6,,,,52,45
694675,note_off,235,0,6,,,,,,,,5,,,,64,64
694675,note_off,235,0,8,,,,,,,,7,,,,40,64
694675,note_off,235,0,7,,,,,,,,6,,,,52,64
694675,note_off,235,0,4,,,,,,,,3,,,,64,64
694680,note_on,5,0,4,,,,,,,,3,,,,65,45
694680,note_on,5,0,6,,,,,,,,5,,,,65,45
694680,note_on,5,0,8,,,,,,,,7,,,,41,45
694680,note_on,5,0,7,,,,,,,,6,,,,53,45
695185,note_off,505,0,6,,,,,,,,5,,,,65,64
695185,note_off,505,0,7,,,,,,,,6,,,,53,64
695185,note_off,505,0,8,,,,,,,,7,,,,41,64
695185,note_off,505,0,4,,,,,,,,3,,,,65,64
695400,note_on,215,0,4,,,,,,,,3,,,,65,45
695400,note_on,215,0,6,,,,,,,,5,,,,65,45
695400,note_on,215,0,7,,,,,,,,6,,,,53,45
695400,note_on,215,0,8,,,,,,,,7,,,,41,45
695640,note_on,0,0,4,,,,,,,,3,,,,67,45
695640,note_off,240,0,4,,,,,,,,3,,,,65,64
695640,note_on,0,0,6,,,,,,,,5,,,,67,45
695640,note_on,0,0,7,,,,,,,,6,,,,55,45
695640,note_off,240,0,7,,,,,,,,6,,,,53,64
695640,note_off,240,0,8,,,,,,,,7,,,,41,64
695640,note_on,0,0,8,,,,,,,,7,,,,43,45
695640,note_off,240,0,6,,,,,,,,5,,,,65,64
695760,note_off,120,0,7,,,,,,,,6,,,,55,64
695760,note_off,120,0,6,,,,,,,,5,,,,67,64
695760,note_off,120,0,4,,,,,,,,3,,,,67,64
695760,note_off,120,0,8,,,,,,,,7,,,,43,64
696120,note_on,360,0,4,,,,,,,,3,,,,65,45
696120,note_on,360,0,8,,,,,,,,7,,,,41,45
696120,note_on,360,0,6,,,,,,,,5,,,,65,45
696120,note_on,360,0,7,,,,,,,,6,,,,53,45
696625,note_off,505,0,7,,,,,,,,6,,,,53,64
696625,note_off,505,0,8,,,,,,,,7,,,,41,64
696625,note_off,505,0,6,,,,,,,,5,,,,65,64
696625,note_off,505,0,4,,,,,,,,3,,,,65,64
696840,note_on,215,0,8,,,,,,,,7,,,,41,45
696840,note_on,215,0,4,,,,,,,,3,,,,65,45
696840,note_on,215,0,7,,,,,,,,6,,,,53,45
696840,note_on,215,0,6,,,,,,,,5,,,,65,45
697075,note_off,235,0,8,,,,,,,,7,,,,41,64
697080,note_on,0,0,4,,,,,,,,3,,,,64,45
697080,note_on,0,0,7,,,,,,,,6,,,,52,45
697080,note_on,0,0,6,,,,,,,,5,,,,64,45
697080,note_off,240,0,6,,,,,,,,5,,,,65,64
697080,note_on,5,0,8,,,,,,,,7,,,,40,45
697080,note_off,240,0,4,,,,,,,,3,,,,65,64
697080,note_off,240,0,7,,,,,,,,6,,,,53,64
697200,note_off,120,0,4,,,,,,,,3,,,,64,64
697200,note_off,120,0,8,,,,,,,,7,,,,40,64
697200,note_off,120,0,7,,,,,,,,6,,,,52,64
697480,note_off,400,0,6,,,,,,,,5,,,,64,64
697560,note_on,360,0,7,,,,,,,,6,,,,50,45
697560,note_on,360,0,8,,,,,,,,7,,,,38,45
697560,note_on,80,0,6,,,,,,,,5,,,,62,45
697560,note_on,360,0,4,,,,,,,,3,,,,62,45
697680,note_off,120,0,6,,,,,,,,5,,,,62,64
697680,note_off,120,0,7,,,,,,,,6,,,,50,64
697680,note_off,120,0,8,,,,,,,,7,,,,38,64
697680,note_off,120,0,4,,,,,,,,3,,,,62,64
698040,note_on,360,0,6,,,,,,,,5,,,,65,45
698040,note_on,360,0,7,,,,,,,,6,,,,53,45
698040,note_on,360,0,8,,,,,,,,7,,,,41,45
698040,note_on,360,0,4,,,,,,,,3,,,,65,45
698160,note_off,120,0,6,,,,,,,,5,,,,65,64
698160,note_off,120,0,7,,,,,,,,6,,,,53,64
698160,note_off,120,0,4,,,,,,,,3,,,,65,64
698160,note_off,120,0,8,,,,,,,,7,,,,41,64
698520,note_on,360,0,8,,,,,,,,7,,,,43,45
698520,note_on,360,0,4,,,,,,,,3,,,,67,45
698520,note_on,360,0,6,,,,,,,,5,,,,67,45
698520,note_on,360,0,7,,,,,,,,6,,,,55,45
698640,note_off,120,0,7,,,,,,,,6,,,,55,64
698640,note_off,120,0,6,,,,,,,,5,,,,67,64
698640,note_off,120,0,4,,,,,,,,3,,,,67,64
698640,note_off,120,0,8,,,,,,,,7,,,,43,64
699000,note_on,360,0,7,,,,,,,,6,,,,57,45
699000,note_on,360,0,4,,,,,,,,3,,,,69,45
699000,note_on,360,0,8,,,,,,,,7,,,,45,45
699000,note_on,360,0,6,,,,,,,,5,,,,69,45
699400,note_off,400,0,6,,,,,,,,5,,,,69,64
699400,note_off,400,0,8,,,,,,,,7,,,,45,64
699400,note_off,400,0,7,,,,,,,,6,,,,57,64
699400,note_off,400,0,4,,,,,,,,3,,,,69,64
699840,note_on,6320,0,5,,,,,,,,4,,,,60,92
699840,note_on,440,0,7,,,,,,,,6,,,,48,92
699840,note_on,440,0,8,,,,,,,,7,,,,36,92
699840,note_on,440,0,4,,,,,,,,3,,,,72,92
700080,note_off,240,0,7,,,,,,,,6,,,,48,64
700080,note_on,0,0,7,,,,,,,,6,,,,50,92
700080,note_off,240,0,8,,,,,,,,7,,,,36,64
700080,note_on,0,0,8,,,,,,,,7,,,,38,92
700080,note_on,0,0,4,,,,,,,,3,,,,74,92
700080,note_off,240,0,4,,,,,,,,3,,,,72,64
700080,note_off,240,0,5,,,,,,,,4,,,,60,64
700080,note_on,0,0,5,,,,,,,,4,,,,62,92
700320,note_off,240,0,4,,,,,,,,3,,,,74,64
700320,note_off,240,0,5,,,,,,,,4,,,,62,64
700320,note_on,0,0,5,,,,,,,,4,,,,64,92
700320,note_on,0,0,4,,,,,,,,3,,,,76,92
700320,note_off,240,0,8,,,,,,,,7,,,,38,64
700320,note_on,0,0,7,,,,,,,,6,,,,52,92
700320,note_off,240,0,7,,,,,,,,6,,,,50,64
700320,note_on,0,0,8,,,,,,,,7,,,,40,92
700555,note_off,235,0,4,,,,,,,,3,,,,76,64
700555,note_off,235,0,5,,,,,,,,4,,,,64,64
700555,note_off,235,0,8,,,,,,,,7,,,,40,64
700555,note_off,235,0,7,,,,,,,,6,,,,52,64
700560,note_on,5,0,7,,,,,,,,6,,,,53,92
700560,note_on,5,0,4,,,,,,,,3,,,,69,92
700560,note_on,0,0,4,,,,,,,,3,,,,77,92
700560,note_on,7040,0,1,,,,,,,,0,,,,72,92
700560,note_on,5,0,8,,,,,,,,7,,,,41,92
700560,note_on,0,0,6,,,,,,,,5,,,,60,92
700560,program_change,1160,0,6,,,,,,,,5,,,48,,
700560,note_on,7040,0,3,,,,,,,,2,,,,65,92
700560,note_on,5,0,5,,,,,,,,4,,,,57,92
700560,note_on,0,0,5,,,,,,,,4,,,,65,92
700560,note_on,7040,0,2,,,,,,,,1,,,,57,92
701065,note_off,505,0,8,,,,,,,,7,,,,41,64
701065,note_off,505,0,5,,,,,,,,4,,,,65,64
701065,note_off,505,0,7,,,,,,,,6,,,,53,64
701065,note_off,0,0,5,,,,,,,,4,,,,57,64
701065,note_off,505,0,2,,,,,,,,1,,,,57,64
701065,note_off,0,0,4,,,,,,,,3,,,,69,64
701065,note_off,505,0,4,,,,,,,,3,,,,77,64
701065,note_off,505,0,6,,,,,,,,5,,,,60,64
701065,note_off,505,0,3,,,,,,,,2,,,,65,64
701065,note_off,505,0,1,,,,,,,,0,,,,72,64
701280,note_on,0,0,4,,,,,,,,3,,,,77,92
701280,note_on,215,0,6,,,,,,,,5,,,,60,92
701280,note_on,215,0,3,,,,,,,,2,,,,65,92
701280,note_on,215,0,2,,,,,,,,1,,,,57,92
701280,note_on,215,0,7,,,,,,,,6,,,,53,92
701280,note_on,215,0,4,,,,,,,,3,,,,69,92
701280,note_on,215,0,1,,,,,,,,0,,,,72,92
701280,note_on,215,0,5,,,,,,,,4,,,,57,92
701280,note_on,0,0,5,,,,,,,,4,,,,65,92
701280,note_on,215,0,8,,,,,,,,7,,,,41,92
701360,note_off,80,0,7,,,,,,,,6,,,,53,64
701360,note_off,80,0,2,,,,,,,,1,,,,57,64
701360,note_off,80,0,3,,,,,,,,2,,,,65,64
701360,note_off,0,0,5,,,,,,,,4,,,,57,64
701360,note_off,80,0,8,,,,,,,,7,,,,41,64
701360,note_off,80,0,4,,,,,,,,3,,,,77,64
701360,note_off,80,0,5,,,,,,,,4,,,,65,64
701360,note_off,80,0,1,,,,,,,,0,,,,72,64
701360,note_off,0,0,4,,,,,,,,3,,,,69,64
701360,note_off,80,0,6,,,,,,,,5,,,,60,64
701520,note_on,160,0,3,,,,,,,,2,,,,67,92
701520,note_on,160,0,6,,,,,,,,5,,,,64,92
701520,note_on,0,0,5,,,,,,,,4,,,,67,92
701520,note_on,160,0,4,,,,,,,,3,,,,72,92
701520,note_on,160,0,7,,,,,,,,6,,,,48,92
701520,note_on,0,0,4,,,,,,,,3,,,,79,92
701520,note_on,160,0,2,,,,,,,,1,,,,60,92
701520,note_on,160,0,8,,,,,,,,7,,,,36,92
701520,note_on,160,0,5,,,,,,,,4,,,,60,92
701520,note_on,160,0,1,,,,,,,,0,,,,76,92
701640,note_off,120,0,2,,,,,,,,1,,,,60,64
701640,note_off,120,0,7,,,,,,,,6,,,,48,64
701640,note_off,120,0,3,,,,,,,,2,,,,67,64
701640,note_off,0,0,5,,,,,,,,4,,,,60,64
701640,note_off,120,0,5,,,,,,,,4,,,,67,64
701640,note_off,0,0,4,,,,,,,,3,,,,72,64
701640,note_off,120,0,4,,,,,,,,3,,,,79,64
701640,note_off,120,0,6,,,,,,,,5,,,,64,64
701640,note_off,120,0,8,,,,,,,,7,,,,36,64
701640,note_off,120,0,1,,,,,,,,0,,,,76,64
702000,note_on,360,0,2,,,,,,,,1,,,,65,92
702000,note_on,0,0,4,,,,,,,,3,,,,81,92
702000,note_on,360,0,4,,,,,,,,3,,,,72,92
702000,note_on,0,0,5,,,,,,,,4,,,,69,92
702000,note_on,360,0,5,,,,,,,,4,,,,60,92
702000,note_on,360,0,6,,,,,,,,5,,,,65,92
702000,note_on,360,0,8,,,,,,,,7,,,,41,92
702000,note_on,360,0,3,,,,,,,,2,,,,69,92
702000,note_on,360,0,7,,,,,,,,6,,,,53,92
702000,note_on,360,0,1,,,,,,,,0,,,,77,92
702505,note_off,0,0,4,,,,,,,,3,,,,72,64
702505,note_off,505,0,4,,,,,,,,3,,,,81,64
702505,note_off,505,0,7,,,,,,,,6,,,,53,64
702505,note_off,505,0,5,,,,,,,,4,,,,69,64
702505,note_off,0,0,5,,,,,,,,4,,,,60,64
702505,note_off,505,0,6,,,,,,,,5,,,,65,64
702505,note_off,505,0,8,,,,,,,,7,,,,41,64
702505,note_off,505,0,1,,,,,,,,0,,,,77,64
702505,note_off,505,0,3,,,,,,,,2,,,,69,64
702505,note_off,505,0,2,,,,,,,,1,,,,65,64
702720,note_on,215,0,2,,,,,,,,1,,,,65,92
702720,note_on,215,0,6,,,,,,,,5,,,,65,92
702720,note_on,215,0,8,,,,,,,,7,,,,41,92
702720,note_on,0,0,4,,,,,,,,3,,,,81,92
702720,note_on,215,0,4,,,,,,,,3,,,,72,92
702720,note_on,215,0,3,,,,,,,,2,,,,69,92
702720,note_on,215,0,7,,,,,,,,6,,,,53,92
702720,note_on,215,0,1,,,,,,,,0,,,,77,92
702720,note_on,215,0,5,,,,,,,,4,,,,60,92
702720,note_on,0,0,5,,,,,,,,4,,,,69,92
702800,note_off,80,0,2,,,,,,,,1,,,,65,64
702800,note_off,80,0,1,,,,,,,,0,,,,77,64
702800,note_off,80,0,7,,,,,,,,6,,,,53,64
702800,note_off,80,0,5,,,,,,,,4,,,,69,64
702800,note_off,0,0,5,,,,,,,,4,,,,60,64
702800,note_off,80,0,3,,,,,,,,2,,,,69,64
702800,note_off,80,0,6,,,,,,,,5,,,,65,64
702800,note_off,80,0,4,,,,,,,,3,,,,81,64
702800,note_off,80,0,8,,,,,,,,7,,,,41,64
702800,note_off,0,0,4,,,,,,,,3,,,,72,64
702960,note_on,160,0,6,,,,,,,,5,,,,65,92
702960,note_on,160,0,4,,,,,,,,3,,,,74,92
702960,note_on,0,0,4,,,,,,,,3,,,,82,92
702960,note_on,160,0,2,,,,,,,,1,,,,62,92
702960,note_on,160,0,5,,,,,,,,4,,,,62,92
702960,note_on,0,0,5,,,,,,,,4,,,,70,92
702960,note_on,160,0,7,,,,,,,,6,,,,46,92
702960,note_on,160,0,1,,,,,,,,0,,,,77,92
702960,note_on,160,0,3,,,,,,,,2,,,,70,92
702960,note_on,160,0,8,,,,,,,,7,,,,34,92
703080,note_off,120,0,1,,,,,,,,0,,,,77,64
703080,note_off,120,0,4,,,,,,,,3,,,,82,64
703080,note_off,120,0,2,,,,,,,,1,,,,62,64
703080,note_off,120,0,5,,,,,,,,4,,,,70,64
703080,note_off,0,0,5,,,,,,,,4,,,,62,64
703080,note_off,120,0,7,,,,,,,,6,,,,46,64
703080,note_off,0,0,4,,,,,,,,3,,,,74,64
703080,note_off,120,0,6,,,,,,,,5,,,,65,64
703080,note_off,120,0,3,,,,,,,,2,,,,70,64
703080,note_off,120,0,8,,,,,,,,7,,,,34,64
703440,note_on,360,0,2,,,,,,,,1,,,,65,92
703440,note_on,0,0,5,,,,,,,,4,,,,69,92
703440,note_on,360,0,5,,,,,,,,4,,,,60,92
703440,note_on,360,0,8,,,,,,,,7,,,,36,92
703440,note_on,360,0,1,,,,,,,,0,,,,77,92
703440,note_on,360,0,4,,,,,,,,3,,,,72,92
703440,note_on,360,0,7,,,,,,,,6,,,,48,92
703440,note_on,0,0,4,,,,,,,,3,,,,81,92
703440,note_on,360,0,6,,,,,,,,5,,,,65,92
703440,note_on,360,0,3,,,,,,,,2,,,,69,92
703560,note_off,0,0,5,,,,,,,,4,,,,60,64
703560,note_off,120,0,1,,,,,,,,0,,,,77,64
703560,note_off,120,0,6,,,,,,,,5,,,,65,64
703560,note_off,120,0,2,,,,,,,,1,,,,65,64
703560,note_off,120,0,5,,,,,,,,4,,,,69,64
703560,note_off,120,0,4,,,,,,,,3,,,,81,64
703560,note_off,120,0,7,,,,,,,,6,,,,48,64
703560,note_off,120,0,3,,,,,,,,2,,,,69,64
703560,note_off,120,0,8,,,,,,,,7,,,,36,64
703560,note_off,0,0,4,,,,,,,,3,,,,72,64
703920,note_on,360,0,8,,,,,,,,7,,,,36,92
703920,note_on,0,0,5,,,,,,,,4,,,,69,92
703920,note_on,360,0,5,,,,,,,,4,,,,60,92
703920,note_on,360,0,3,,,,,,,,2,,,,69,92
703920,note_on,360,0,4,,,,,,,,3,,,,72,92
703920,note_on,360,0,1,,,,,,,,0,,,,77,92
703920,note_on,360,0,7,,,,,,,,6,,,,48,92
703920,note_on,360,0,2,,,,,,,,1,,,,65,92
703920,note_on,360,0,6,,,,,,,,5,,,,65,92
703920,note_on,0,0,4,,,,,,,,3,,,,81,92
704040,note_off,120,0,5,,,,,,,,4,,,,69,64
704040,note_off,0,0,5,,,,,,,,4,,,,60,64
704040,note_off,120,0,4,,,,,,,,3,,,,81,64
704040,note_off,0,0,4,,,,,,,,3,,,,72,64
704040,note_off,120,0,6,,,,,,,,5,,,,65,64
704040,note_off,120,0,8,,,,,,,,7,,,,36,64
704040,note_off,120,0,2,,,,,,,,1,,,,65,64
704040,note_off,120,0,1,,,,,,,,0,,,,77,64
704040,note_off,120,0,7,,,,,,,,6,,,,48,64
704040,note_off,120,0,3,,,,,,,,2,,,,69,64
704400,note_on,360,0,2,,,,,,,,1,,,,60,92
704400,note_on,360,0,8,,,,,,,,7,,,,36,92
704400,note_on,360,0,7,,,,,,,,6,,,,48,92
704400,note_on,0,0,4,,,,,,,,3,,,,79,92
704400,note_on,360,0,1,,,,,,,,0,,,,76,92
704400,note_on,360,0,5,,,,,,,,4,,,,60,92
704400,note_on,0,0,5,,,,,,,,4,,,,67,92
704400,note_on,360,0,6,,,,,,,,5,,,,64,92
704400,note_on,360,0,4,,,,,,,,3,,,,72,92
704400,note_on,360,0,3,,,,,,,,2,,,,67,92
704520,note_off,120,0,8,,,,,,,,7,,,,36,64
704520,note_off,0,0,4,,,,,,,,3,,,,72,64
704520,note_off,120,0,1,,,,,,,,0,,,,76,64
704520,note_off,120,0,4,,,,,,,,3,,,,79,64
704520,note_off,120,0,7,,,,,,,,6,,,,48,64
704520,note_off,0,0,5,,,,,,,,4,,,,60,64
704520,note_off,120,0,3,,,,,,,,2,,,,67,64
704520,note_off,120,0,2,,,,,,,,1,,,,60,64
704520,note_off,120,0,5,,,,,,,,4,,,,67,64
704520,note_off,120,0,6,,,,,,,,5,,,,64,64
704880,note_on,360,0,3,,,,,,,,2,,,,65,92
704880,note_on,360,0,2,,,,,,,,1,,,,57,92
704880,note_on,360,0,4,,,,,,,,3,,,,69,92
704880,note_on,0,0,4,,,,,,,,3,,,,77,92
704880,note_on,360,0,6,,,,,,,,5,,,,65,92
704880,note_on,360,0,8,,,,,,,,7,,,,41,92
704880,note_on,360,0,1,,,,,,,,0,,,,77,92
704880,note_on,0,0,5,,,,,,,,4,,,,65,92
704880,note_on,360,0,7,,,,,,,,6,,,,53,92
704880,note_on,360,0,5,,,,,,,,4,,,,57,92
705280,note_off,0,0,4,,,,,,,,3,,,,69,64
705280,note_off,400,0,4,,,,,,,,3,,,,77,64
705280,note_off,0,0,5,,,,,,,,4,,,,57,64
705280,note_off,400,0,5,,,,,,,,4,,,,65,64
705280,note_off,400,0,1,,,,,,,,0,,,,77,64
705280,note_off,400,0,8,,,,,,,,7,,,,41,64
705280,note_off,400,0,3,,,,,,,,2,,,,65,64
705280,note_off,400,0,2,,,,,,,,1,,,,57,64
705280,note_off,400,0,6,,,,,,,,5,,,,65,64
705280,note_off,400,0,7,,,,,,,,6,,,,53,64
705720,note_on,440,0,8,,,,,,,,7,,,,36,45
705720,program_change,440,0,6,,,,,,,,5,,,50,,
705720,note_on,440,0,7,,,,,,,,6,,,,48,45
705720,note_on,440,0,4,,,,,,,,3,,,,60,45
705720,note_on,0,0,6,,,,,,,,5,,,,60,45
705960,note_off,240,0,8,,,,,,,,7,,,,36,64
705960,note_on,0,0,7,,,,,,,,6,,,,50,45
705960,note_off,240,0,7,,,,,,,,6,,,,48,64
705960,note_on,0,0,4,,,,,,,,3,,,,62,45
705960,note_on,0,0,8,,,,,,,,7,,,,38,45
705960,note_off,240,0,4,,,,,,,,3,,,,60,64
705960,note_off,240,0,6,,,,,,,,5,,,,60,64
705960,note_on,0,0,6,,,,,,,,5,,,,62,45
706200,note_off,240,0,4,,,,,,,,3,,,,62,64
706200,note_off,240,0,6,,,,,,,,5,,,,62,64
706200,note_on,0,0,6,,,,,,,,5,,,,64,45
706200,note_off,240,0,8,,,,,,,,7,,,,38,64
706200,note_on,0,0,8,,,,,,,,7,,,,40,45
706200,note_on,0,0,4,,,,,,,,3,,,,64,45
706200,note_off,240,0,7,,,,,,,,6,,,,50,64
706200,note_on,0,0,7,,,,,,,,6,,,,52,45
706435,note_off,235,0,4,,,,,,,,3,,,,64,64
706435,note_off,235,0,6,,,,,,,,5,,,,64,64
706435,note_off,235,0,8,,,,,,,,7,,,,40,64
706435,note_off,235,0,7,,,,,,,,6,,,,52,64
706440,note_on,5,0,6,,,,,,,,5,,,,65,45
706440,note_on,5,0,8,,,,,,,,7,,,,41,45
706440,note_on,5,0,4,,,,,,,,3,,,,65,45
706440,note_on,5,0,7,,,,,,,,6,,,,53,45
706945,note_off,505,0,8,,,,,,,,7,,,,41,64
706945,note_off,505,0,7,,,,,,,,6,,,,53,64
706945,note_off,505,0,6,,,,,,,,5,,,,65,64
706945,note_off,505,0,4,,,,,,,,3,,,,65,64
707160,note_on,215,0,6,,,,,,,,5,,,,65,45
707160,note_on,215,0,8,,,,,,,,7,,,,41,45
707160,note_on,215,0,7,,,,,,,,6,,,,53,45
707160,note_on,215,0,4,,,,,,,,3,,,,65,45
707240,note_off,80,0,7,,,,,,,,6,,,,53,64
707240,note_off,80,0,8,,,,,,,,7,,,,41,64
707240,note_off,80,0,6,,,,,,,,5,,,,65,64
707240,note_off,80,0,4,,,,,,,,3,,,,65,64
707400,note_on,160,0,8,,,,,,,,7,,,,43,45
707400,note_on,160,0,4,,,,,,,,3,,,,67,45
707400,note_on,160,0,6,,,,,,,,5,,,,67,45
707400,note_on,160,0,7,,,,,,,,6,,,,55,45
707520,note_off,120,0,6,,,,,,,,5,,,,67,64
707520,note_off,120,0,7,,,,,,,,6,,,,55,64
707520,note_off,120,0,8,,,,,,,,7,,,,43,64
707520,note_off,120,0,4,,,,,,,,3,,,,67,64
707880,note_on,360,0,7,,,,,,,,6,,,,53,45
707880,note_on,360,0,4,,,,,,,,3,,,,65,45
707880,note_on,360,0,8,,,,,,,,7,,,,41,45
707880,note_on,360,0,6,,,,,,,,5,,,,65,45
708385,note_off,505,0,7,,,,,,,,6,,,,53,64
708385,note_off,505,0,8,,,,,,,,7,,,,41,64
708385,note_off,505,0,4,,,,,,,,3,,,,65,64
708385,note_off,505,0,6,,,,,,,,5,,,,65,64
708600,note_on,215,0,8,,,,,,,,7,,,,41,45
708600,note_on,215,0,4,,,,,,,,3,,,,65,45
708600,note_on,215,0,6,,,,,,,,5,,,,65,45
708600,note_on,215,0,7,,,,,,,,6,,,,53,45
708680,note_off,80,0,8,,,,,,,,7,,,,41,64
708680,note_off,80,0,4,,,,,,,,3,,,,65,64
708680,note_off,80,0,6,,,,,,,,5,,,,65,64
708680,note_off,80,0,7,,,,,,,,6,,,,53,64
708840,note_on,160,0,7,,,,,,,,6,,,,52,45
708840,note_on,160,0,4,,,,,,,,3,,,,64,45
708840,note_on,160,0,6,,,,,,,,5,,,,64,45
708840,note_on,160,0,8,,,,,,,,7,,,,40,45
708960,note_off,120,0,7,,,,,,,,6,,,,52,64
708960,note_off,120,0,6,,,,,,,,5,,,,64,64
708960,note_off,120,0,8,,,,,,,,7,,,,40,64
708960,note_off,120,0,4,,,,,,,,3,,,,64,64
709320,note_on,360,0,4,,,,,,,,3,,,,62,45
709320,note_on,360,0,6,,,,,,,,5,,,,62,45
709320,note_on,360,0,8,,,,,,,,7,,,,38,45
709320,note_on,360,0,7,,,,,,,,6,,,,50,45
709440,note_off,120,0,8,,,,,,,,7,,,,38,64
709440,note_off,120,0,6,,,,,,,,5,,,,62,64
709440,note_off,120,0,7,,,,,,,,6,,,,50,64
709440,note_off,120,0,4,,,,,,,,3,,,,62,64
709800,note_on,360,0,8,,,,,,,,7,,,,41,45
709800,note_on,360,0,7,,,,,,,,6,,,,53,45
709800,note_on,360,0,4,,,,,,,,3,,,,65,45
709800,note_on,360,0,6,,,,,,,,5,,,,65,45
709920,note_off,120,0,8,,,,,,,,7,,,,41,64
709920,note_off,120,0,6,,,,,,,,5,,,,65,64
709920,note_off,120,0,7,,,,,,,,6,,,,53,64
709920,note_off,120,0,4,,,,,,,,3,,,,65,64
710280,note_on,360,0,7,,,,,,,,6,,,,55,54
710280,note_on,360,0,6,,,,,,,,5,,,,67,54
710280,note_on,360,0,4,,,,,,,,3,,,,67,54
710280,note_on,360,0,8,,,,,,,,7,,,,43,54
710400,note_off,120,0,4,,,,,,,,3,,,,67,64
710400,note_off,120,0,6,,,,,,,,5,,,,67,64
710400,note_off,120,0,8,,,,,,,,7,,,,43,64
710400,note_off,120,0,7,,,,,,,,6,,,,55,64
710760,note_on,360,0,7,,,,,,,,6,,,,57,63
710760,note_on,360,0,6,,,,,,,,5,,,,69,63
710760,note_on,360,0,4,,,,,,,,3,,,,69,63
710760,note_on,360,0,8,,,,,,,,7,,,,45,63
710880,note_off,120,0,7,,,,,,,,6,,,,57,64
710880,note_off,120,0,6,,,,,,,,5,,,,69,64
710880,note_off,120,0,4,,,,,,,,3,,,,69,64
710880,note_off,120,0,8,,,,,,,,7,,,,45,64
711240,note_on,360,0,8,,,,,,,,7,,,,46,72
711240,note_on,360,0,7,,,,,,,,6,,,,58,72
711360,note_off,120,0,8,,,,,,,,7,,,,46,64
711360,note_off,120,0,7,,,,,,,,6,,,,58,64
711720,note_on,360,0,8,,,,,,,,7,,,,47,82
711720,note_on,360,0,7,,,,,,,,6,,,,59,82
711840,note_off,120,0,8,,,,,,,,7,,,,47,64
711840,note_off,120,0,7,,,,,,,,6,,,,59,64
712200,note_on,360,0,8,,,,,,,,7,,,,48,92
712200,program_change,1320,0,6,,,,,,,,5,,,48,,
712200,note_on,6920,0,5,,,,,,,,4,,,,70,92
712200,note_on,0,0,5,,,,,,,,4,,,,79,92
712200,note_on,1320,0,4,,,,,,,,3,,,,76,92
712200,note_on,0,0,4,,,,,,,,3,,,,84,92
712200,note_on,6920,0,1,,,,,,,,0,,,,82,92
712200,note_on,360,0,7,,,,,,,,6,,,,60,92
712200,note_on,6920,0,2,,,,,,,,1,,,,64,92
712200,note_on,6920,0,3,,,,,,,,2,,,,67,92
712200,note_on,0,0,6,,,,,,,,5,,,,72,92
712705,note_off,0,0,5,,,,,,,,4,,,,70,64
712705,note_off,505,0,5,,,,,,,,4,,,,79,64
712705,note_off,505,0,2,,,,,,,,1,,,,64,64
712705,note_off,505,0,6,,,,,,,,5,,,,72,64
712705,note_off,505,0,3,,,,,,,,2,,,,67,64
712705,note_off,505,0,4,,,,,,,,3,,,,84,64
712705,note_off,0,0,4,,,,,,,,3,,,,76,64
712705,note_off,505,0,1,,,,,,,,0,,,,82,64
712920,note_on,215,0,3,,,,,,,,2,,,,67,92
712920,note_on,215,0,2,,,,,,,,1,,,,64,92
712920,note_on,215,0,5,,,,,,,,4,,,,70,92
712920,note_on,0,0,5,,,,,,,,4,,,,79,92
712920,note_on,215,0,4,,,,,,,,3,,,,76,92
712920,note_on,0,0,4,,,,,,,,3,,,,84,92
712920,note_on,215,0,6,,,,,,,,5,,,,72,92
712920,note_on,215,0,1,,,,,,,,0,,,,82,92
713000,note_off,80,0,6,,,,,,,,5,,,,72,64
713000,note_off,80,0,2,,,,,,,,1,,,,64,64
713000,note_off,80,0,4,,,,,,,,3,,,,84,64
713000,note_off,0,0,4,,,,,,,,3,,,,76,64
713000,note_off,80,0,1,,,,,,,,0,,,,82,64
713000,note_off,0,0,5,,,,,,,,4,,,,70,64
713000,note_off,80,0,5,,,,,,,,4,,,,79,64
713000,note_off,80,0,3,,,,,,,,2,,,,67,64
713160,note_on,0,0,4,,,,,,,,3,,,,86,92
713160,note_on,160,0,4,,,,,,,,3,,,,77,92
713160,note_on,160,0,1,,,,,,,,0,,,,82,92
713160,note_on,0,0,5,,,,,,,,4,,,,79,92
713160,note_on,160,0,5,,,,,,,,4,,,,70,92
713160,note_on,160,0,3,,,,,,,,2,,,,67,92
713160,note_on,160,0,6,,,,,,,,5,,,,74,92
713160,note_on,160,0,2,,,,,,,,1,,,,65,92
713280,note_off,120,0,2,,,,,,,,1,,,,65,64
713280,note_off,120,0,3,,,,,,,,2,,,,67,64
713280,note_off,0,0,4,,,,,,,,3,,,,77,64
713280,note_off,120,0,4,,,,,,,,3,,,,86,64
713280,note_off,120,0,5,,,,,,,,4,,,,79,64
713280,note_off,0,0,5,,,,,,,,4,,,,70,64
713280,note_off,120,0,1,,,,,,,,0,,,,82,64
713280,note_off,120,0,6,,,,,,,,5,,,,74,64
713520,note_off,1320,0,8,,,,,,,,7,,,,48,64
713520,note_off,1320,0,7,,,,,,,,6,,,,60,64
713640,note_on,360,0,1,,,,,,,,0,,,,82,92
713640,note_on,360,0,5,,,,,,,,4,,,,70,92
713640,note_on,0,0,5,,,,,,,,4,,,,79,92
713640,note_on,360,0,4,,,,,,,,3,,,,76,92
713640,note_on,0,0,4,,,,,,,,3,,,,84,92
713640,note_on,120,0,8,,,,,,,,7,,,,48,92
713640,note_on,360,0,6,,,,,,,,5,,,,72,92
713640,note_on,360,0,3,,,,,,,,2,,,,67,92
713640,note_on,120,0,7,,,,,,,,6,,,,60,92
713640,note_on,360,0,2,,,,,,,,1,,,,64,92
714145,note_off,505,0,2,,,,,,,,1,,,,64,64
714145,note_off,505,0,1,,,,,,,,0,,,,82,64
714145,note_off,505,0,5,,,,,,,,4,,,,79,64
714145,note_off,0,0,5,,,,,,,,4,,,,70,64
714145,note_off,505,0,3,,,,,,,,2,,,,67,64
714145,note_off,505,0,6,,,,,,,,5,,,,72,64
714145,note_off,505,0,4,,,,,,,,3,,,,84,64
714145,note_off,0,0,4,,,,,,,,3,,,,76,64
714360,note_on,215,0,3,,,,,,,,2,,,,67,92
714360,note_on,0,0,5,,,,,,,,4,,,,79,92
714360,note_on,215,0,5,,,,,,,,4,,,,70,92
714360,note_on,215,0,2,,,,,,,,1,,,,64,92
714360,note_on,215,0,1,,,,,,,,0,,,,82,92
714360,note_on,215,0,6,,,,,,,,5,,,,72,92
714360,note_on,215,0,4,,,,,,,,3,,,,76,92
714360,note_on,0,0,4,,,,,,,,3,,,,84,92
714440,note_off,0,0,5,,,,,,,,4,,,,70,64
714440,note_off,80,0,5,,,,,,,,4,,,,79,64
714440,note_off,80,0,3,,,,,,,,2,,,,67,64
714440,note_off,80,0,4,,,,,,,,3,,,,84,64
714440,note_off,80,0,2,,,,,,,,1,,,,64,64
714440,note_off,80,0,6,,,,,,,,5,,,,72,64
714440,note_off,80,0,1,,,,,,,,0,,,,82,64
714440,note_off,0,0,4,,,,,,,,3,,,,76,64
714600,note_on,0,0,4,,,,,,,,3,,,,86,92
714600,note_on,160,0,3,,,,,,,,2,,,,67,92
714600,note_on,160,0,6,,,,,,,,5,,,,74,92
714600,note_on,160,0,2,,,,,,,,1,,,,65,92
714600,note_on,160,0,5,,,,,,,,4,,,,70,92
714600,note_on,0,0,5,,,,,,,,4,,,,79,92
714600,note_on,160,0,1,,,,,,,,0,,,,82,92
714600,note_on,160,0,4,,,,,,,,3,,,,77,92
714720,note_off,120,0,3,,,,,,,,2,,,,67,64
714720,note_off,120,0,4,,,,,,,,3,,,,86,64
714720,note_off,0,0,4,,,,,,,,3,,,,77,64
714720,note_off,120,0,2,,,,,,,,1,,,,65,64
714720,note_off,120,0,1,,,,,,,,0,,,,82,64
714720,note_off,120,0,6,,,,,,,,5,,,,74,64
714960,note_off,1320,0,7,,,,,,,,6,,,,60,64
714960,note_off,1320,0,8,,,,,,,,7,,,,48,64
715000,note_off,400,0,5,,,,,,,,4,,,,79,64
715000,note_off,0,0,5,,,,,,,,4,,,,70,64
715080,note_on,80,0,5,,,,,,,,4,,,,70,92
715080,note_on,0,0,5,,,,,,,,4,,,,79,92
715080,note_on,120,0,8,,,,,,,,7,,,,48,92
715080,note_on,360,0,6,,,,,,,,5,,,,72,92
715080,note_on,360,0,1,,,,,,,,0,,,,82,92
715080,note_on,0,0,4,,,,,,,,3,,,,84,92
715080,note_on,360,0,2,,,,,,,,1,,,,64,92
715080,note_on,120,0,7,,,,,,,,6,,,,60,92
715080,note_on,360,0,4,,,,,,,,3,,,,76,92
715080,note_on,360,0,3,,,,,,,,2,,,,67,92
715585,note_off,505,0,1,,,,,,,,0,,,,82,64
715585,note_off,0,0,4,,,,,,,,3,,,,76,64
715585,note_off,505,0,6,,,,,,,,5,,,,72,64
715585,note_off,505,0,2,,,,,,,,1,,,,64,64
715585,note_off,505,0,5,,,,,,,,4,,,,79,64
715585,note_off,505,0,4,,,,,,,,3,,,,84,64
715585,note_off,0,0,5,,,,,,,,4,,,,70,64
715585,note_off,505,0,3,,,,,,,,2,,,,67,64
715800,note_on,215,0,3,,,,,,,,2,,,,67,92
715800,note_on,0,0,5,,,,,,,,4,,,,79,92
715800,note_on,215,0,2,,,,,,,,1,,,,64,92
715800,note_on,215,0,4,,,,,,,,3,,,,76,92
715800,note_on,0,0,4,,,,,,,,3,,,,84,92
715800,note_on,215,0,1,,,,,,,,0,,,,82,92
715800,note_on,215,0,5,,,,,,,,4,,,,70,92
715800,note_on,215,0,6,,,,,,,,5,,,,72,92
715880,note_off,80,0,3,,,,,,,,2,,,,67,64
715880,note_off,80,0,1,,,,,,,,0,,,,82,64
715880,note_off,0,0,4,,,,,,,,3,,,,76,64
715880,note_off,80,0,5,,,,,,,,4,,,,79,64
715880,note_off,0,0,5,,,,,,,,4,,,,70,64
715880,note_off,80,0,6,,,,,,,,5,,,,72,64
715880,note_off,80,0,4,,,,,,,,3,,,,84,64
715880,note_off,80,0,2,,,,,,,,1,,,,64,64
716040,note_on,160,0,5,,,,,,,,4,,,,70,92
716040,note_on,0,0,5,,,,,,,,4,,,,79,92
716040,note_on,160,0,3,,,,,,,,2,,,,67,92
716040,note_on,160,0,6,,,,,,,,5,,,,74,92
716040,note_on,0,0,4,,,,,,,,3,,,,86,92
716040,note_on,160,0,4,,,,,,,,3,,,,77,92
716040,note_on,160,0,1,,,,,,,,0,,,,82,92
716040,note_on,160,0,2,,,,,,,,1,,,,65,92
716160,note_off,120,0,1,,,,,,,,0,,,,82,64
716160,note_off,120,0,5,,,,,,,,4,,,,79,64
716160,note_off,120,0,2,,,,,,,,1,,,,65,64
716160,note_off,120,0,6,,,,,,,,5,,,,74,64
716160,note_off,0,0,5,,,,,,,,4,,,,70,64
716160,note_off,120,0,4,,,,,,,,3,,,,86,64
716160,note_off,0,0,4,,,,,,,,3,,,,77,64
716400,note_off,1320,0,8,,,,,,,,7,,,,48,64
716400,note_off,1320,0,7,,,,,,,,6,,,,60,64
716440,note_off,400,0,3,,,,,,,,2,,,,67,64
716520,note_on,360,0,1,,,,,,,,0,,,,82,92
716520,note_on,360,0,6,,,,,,,,5,,,,72,92
716520,note_on,120,0,7,,,,,,,,6,,,,48,92
716520,note_on,0,0,5,,,,,,,,4,,,,79,92
716520,note_on,360,0,5,,,,,,,,4,,,,70,92
716520,note_on,120,0,8,,,,,,,,7,,,,36,92
716520,note_on,0,0,4,,,,,,,,3,,,,84,92
716520,note_on,360,0,2,,,,,,,,1,,,,64,92
716520,note_on,360,0,4,,,,,,,,3,,,,76,92
716520,note_on,80,0,3,,,,,,,,2,,,,67,92
716640,note_off,120,0,7,,,,,,,,6,,,,48,64
716640,note_off,120,0,8,,,,,,,,7,,,,36,64
716920,note_off,400,0,5,,,,,,,,4,,,,79,64
716920,note_off,400,0,3,,,,,,,,2,,,,67,64
716920,note_off,400,0,1,,,,,,,,0,,,,82,64
716920,note_off,0,0,5,,,,,,,,4,,,,70,64
716920,note_off,400,0,4,,,,,,,,3,,,,84,64
716920,note_off,400,0,6,,,,,,,,5,,,,72,64
716920,note_off,400,0,2,,,,,,,,1,,,,64,64
716920,note_off,0,0,4,,,,,,,,3,,,,76,64
717000,note_on,360,0,7,,,,,,,,6,,,,50,92
717000,note_on,360,0,8,,,,,,,,7,,,,38,92
717120,note_off,120,0,7,,,,,,,,6,,,,50,64
717120,note_off,120,0,8,,,,,,,,7,,,,38,64
717480,note_on,360,0,8,,,,,,,,7,,,,40,92
717480,note_on,360,0,7,,,,,,,,6,,,,52,92
717600,note_off,120,0,7,,,,,,,,6,,,,52,64
717600,note_off,120,0,8,,,,,,,,7,,,,40,64
717960,note_on,360,0,7,,,,,,,,6,,,,53,92
717960,note_on,1040,0,6,,,,,,,,5,,,,65,92
717960,note_on,1040,0,2,,,,,,,,1,,,,65,92
717960,note_on,1040,0,1,,,,,,,,0,,,,77,92
717960,note_on,1040,0,5,,,,,,,,4,,,,75,92
717960,note_on,1040,0,4,,,,,,,,3,,,,69,92
717960,note_on,0,0,4,,,,,,,,3,,,,77,92
717960,note_on,1040,0,3,,,,,,,,2,,,,72,92
717960,note_on,360,0,8,,,,,,,,7,,,,41,92
718465,note_off,505,0,3,,,,,,,,2,,,,72,64
718465,note_off,505,0,6,,,,,,,,5,,,,65,64
718465,note_off,505,0,4,,,,,,,,3,,,,77,64
718465,note_off,0,0,4,,,,,,,,3,,,,69,64
718465,note_off,505,0,2,,,,,,,,1,,,,65,64
718465,note_off,505,0,5,,,,,,,,4,,,,75,64
718465,note_off,505,0,1,,,,,,,,0,,,,77,64
718680,note_on,215,0,5,,,,,,,,4,,,,75,92
718680,note_on,215,0,6,,,,,,,,5,,,,65,92
718680,note_on,215,0,2,,,,,,,,1,,,,65,92
718680,note_on,215,0,4,,,,,,,,3,,,,69,92
718680,note_on,0,0,4,,,,,,,,3,,,,77,92
718680,note_on,215,0,3,,,,,,,,2,,,,72,92
718680,note_on,215,0,1,,,,,,,,0,,,,77,92
718760,note_off,80,0,1,,,,,,,,0,,,,77,64
718760,note_off,80,0,4,,,,,,,,3,,,,77,64
718760,note_off,0,0,4,,,,,,,,3,,,,69,64
718760,note_off,80,0,2,,,,,,,,1,,,,65,64
718760,note_off,80,0,3,,,,,,,,2,,,,72,64
718760,note_off,80,0,6,,,,,,,,5,,,,65,64
718760,note_off,80,0,5,,,,,,,,4,,,,75,64
718920,note_on,0,0,4,,,,,,,,3,,,,79,92
718920,note_on,160,0,4,,,,,,,,3,,,,70,92
718920,note_on,160,0,3,,,,,,,,2,,,,72,92
718920,note_on,160,0,2,,,,,,,,1,,,,67,92
718920,note_on,160,0,5,,,,,,,,4,,,,75,92
718920,note_on,160,0,6,,,,,,,,5,,,,67,92
718920,note_on,160,0,1,,,,,,,,0,,,,79,92
719040,note_off,120,0,2,,,,,,,,1,,,,67,64
719040,note_off,120,0,3,,,,,,,,2,,,,72,64
719040,note_off,0,0,4,,,,,,,,3,,,,70,64
719040,note_off,120,0,4,,,,,,,,3,,,,79,64
719040,note_off,120,0,5,,,,,,,,4,,,,75,64
719040,note_off,120,0,6,,,,,,,,5,,,,67,64
719040,note_off,120,0,1,,,,,,,,0,,,,79,64
719280,note_off,1320,0,8,,,,,,,,7,,,,41,64
719280,note_off,1320,0,7,,,,,,,,6,,,,53,64
719400,note_on,0,0,4,,,,,,,,3,,,,77,92
719400,note_on,360,0,4,,,,,,,,3,,,,69,92
719400,note_on,120,0,8,,,,,,,,7,,,,41,92
719400,note_on,360,0,5,,,,,,,,4,,,,75,92
719400,note_on,360,0,2,,,,,,,,1,,,,65,92
719400,note_on,360,0,1,,,,,,,,0,,,,77,92
719400,note_on,120,0,7,,,,,,,,6,,,,53,92
719400,note_on,360,0,6,,,,,,,,5,,,,65,92
719400,note_on,360,0,3,,,,,,,,2,,,,72,92
719905,note_off,505,0,1,,,,,,,,0,,,,77,64
719905,note_off,505,0,5,,,,,,,,4,,,,75,64
719905,note_off,505,0,2,,,,,,,,1,,,,65,64
719905,note_off,505,0,4,,,,,,,,3,,,,77,64
719905,note_off,505,0,6,,,,,,,,5,,,,65,64
719905,note_off,505,0,3,,,,,,,,2,,,,72,64
719905,note_off,0,0,4,,,,,,,,3,,,,69,64
720120,note_on,215,0,1,,,,,,,,0,,,,77,92
720120,note_on,215,0,3,,,,,,,,2,,,,72,92
720120,note_on,215,0,2,,,,,,,,1,,,,65,92
720120,note_on,215,0,6,,,,,,,,5,,,,65,92
720120,note_on,0,0,4,,,,,,,,3,,,,77,92
720120,note_on,215,0,4,,,,,,,,3,,,,69,92
720120,note_on,215,0,5,,,,,,,,4,,,,75,92
720200,note_off,80,0,3,,,,,,,,2,,,,72,64
720200,note_off,80,0,2,,,,,,,,1,,,,65,64
720200,note_off,80,0,1,,,,,,,,0,,,,77,64
720200,note_off,80,0,5,,,,,,,,4,,,,75,64
720200,note_off,80,0,6,,,,,,,,5,,,,65,64
720200,note_off,0,0,4,,,,,,,,3,,,,69,64
720200,note_off,80,0,4,,,,,,,,3,,,,77,64
720360,note_on,160,0,3,,,,,,,,2,,,,72,92
720360,note_on,160,0,5,,,,,,,,4,,,,75,92
720360,note_on,160,0,2,,,,,,,,1,,,,67,92
720360,note_on,160,0,1,,,,,,,,0,,,,79,92
720360,note_on,160,0,4,,,,,,,,3,,,,70,92
720360,note_on,160,0,6,,,,,,,,5,,,,67,92
720360,note_on,0,0,4,,,,,,,,3,,,,79,92
720480,note_off,120,0,1,,,,,,,,0,,,,79,64
720480,note_off,120,0,6,,,,,,,,5,,,,67,64
720480,note_off,120,0,2,,,,,,,,1,,,,67,64
720480,note_off,120,0,4,,,,,,,,3,,,,79,64
720480,note_off,0,0,4,,,,,,,,3,,,,70,64
720480,note_off,120,0,5,,,,,,,,4,,,,75,64
720480,note_off,120,0,3,,,,,,,,2,,,,72,64
720720,note_off,1320,0,7,,,,,,,,6,,,,53,64
720720,note_off,1320,0,8,,,,,,,,7,,,,41,64
720840,note_on,360,0,6,,,,,,,,5,,,,65,92
720840,note_on,0,0,4,,,,,,,,3,,,,77,92
720840,note_on,120,0,7,,,,,,,,6,,,,53,92
720840,note_on,360,0,5,,,,,,,,4,,,,75,92
720840,note_on,360,0,4,,,,,,,,3,,,,69,92
720840,note_on,360,0,2,,,,,,,,1,,,,65,92
720840,note_on,360,0,1,,,,,,,,0,,,,77,92
720840,note_on,120,0,8,,,,,,,,7,,,,41,92
720840,note_on,360,0,3,,,,,,,,2,,,,72,92
721345,note_off,505,0,1,,,,,,,,0,,,,77,64
721345,note_off,505,0,4,,,,,,,,3,,,,77,64
721345,note_off,505,0,5,,,,,,,,4,,,,75,64
721345,note_off,505,0,2,,,,,,,,1,,,,65,64
721345,note_off,0,0,4,,,,,,,,3,,,,69,64
721345,note_off,505,0,6,,,,,,,,5,,,,65,64
721345,note_off,505,0,3,,,,,,,,2,,,,72,64
721560,note_on,215,0,3,,,,,,,,2,,,,72,92
721560,note_on,215,0,2,,,,,,,,1,,,,65,92
721560,note_on,215,0,5,,,,,,,,4,,,,75,92
721560,note_on,215,0,4,,,,,,,,3,,,,69,92
721560,note_on,0,0,4,,,,,,,,3,,,,77,92
721560,note_on,215,0,6,,,,,,,,5,,,,65,92
721560,note_on,215,0,1,,,,,,,,0,,,,77,92
721640,note_off,80,0,5,,,,,,,,4,,,,75,64
721640,note_off,80,0,6,,,,,,,,5,,,,65,64
721640,note_off,80,0,1,,,,,,,,0,,,,77,64
721640,note_off,80,0,2,,,,,,,,1,,,,65,64
721640,note_off,80,0,3,,,,,,,,2,,,,72,64
721640,note_off,0,0,4,,,,,,,,3,,,,69,64
721640,note_off,80,0,4,,,,,,,,3,,,,77,64
721800,note_on,160,0,2,,,,,,,,1,,,,67,92
721800,note_on,160,0,6,,,,,,,,5,,,,67,92
721800,note_on,0,0,4,,,,,,,,3,,,,79,92
721800,note_on,160,0,4,,,,,,,,3,,,,70,92
721800,note_on,160,0,3,,,,,,,,2,,,,72,92
721800,note_on,160,0,5,,,,,,,,4,,,,75,92
721800,note_on,160,0,1,,,,,,,,0,,,,79,92
721920,note_off,120,0,4,,,,,,,,3,,,,79,64
721920,note_off,120,0,3,,,,,,,,2,,,,72,64
721920,note_off,120,0,5,,,,,,,,4,,,,75,64
721920,note_off,120,0,1,,,,,,,,0,,,,79,64
721920,note_off,0,0,4,,,,,,,,3,,,,70,64
721920,note_off,120,0,6,,,,,,,,5,,,,67,64
722160,note_off,1320,0,8,,,,,,,,7,,,,41,64
722160,note_off,1320,0,7,,,,,,,,6,,,,53,64
722200,note_off,400,0,2,,,,,,,,1,,,,67,64
722280,note_on,120,0,7,,,,,,,,6,,,,53,92
722280,note_on,360,0,5,,,,,,,,4,,,,75,92
722280,note_on,360,0,6,,,,,,,,5,,,,65,92
722280,note_on,360,0,4,,,,,,,,3,,,,69,92
722280,note_on,360,0,3,,,,,,,,2,,,,72,92
722280,note_on,120,0,8,,,,,,,,7,,,,41,92
722280,note_on,360,0,1,,,,,,,,0,,,,77,92
722280,note_on,0,0,4,,,,,,,,3,,,,77,92
722280,note_on,80,0,2,,,,,,,,1,,,,65,92
722400,note_off,120,0,8,,,,,,,,7,,,,41,64
722400,note_off,120,0,7,,,,,,,,6,,,,53,64
722680,note_off,400,0,2,,,,,,,,1,,,,65,64
722680,note_off,400,0,6,,,,,,,,5,,,,65,64
722680,note_off,400,0,5,,,,,,,,4,,,,75,64
722680,note_off,400,0,1,,,,,,,,0,,,,77,64
722680,note_off,400,0,3,,,,,,,,2,,,,72,64
722680,note_off,0,0,4,,,,,,,,3,,,,69,64
722680,note_off,400,0,4,,,,,,,,3,,,,77,64
722760,note_on,360,0,8,,,,,,,,7,,,,43,79
722760,note_on,360,0,7,,,,,,,,6,,,,55,79
722880,note_off,120,0,8,,,,,,,,7,,,,43,64
722880,note_off,120,0,7,,,,,,,,6,,,,55,64
723240,note_on,360,0,8,,,,,,,,7,,,,45,66
723240,note_on,360,0,7,,,,,,,,6,,,,57,66
723420,note_off,180,0,8,,,,,,,,7,,,,45,64
723420,note_off,180,0,7,,,,,,,,6,,,,57,64
723960,note_on,540,0,7,,,,,,,,6,,,,58,45
723960,note_on,1280,0,4,,,,,,,,3,,,,82,45
723960,set_tempo,35160,1,0,238095,,,,,,,,,,,,
723960,note_on,540,0,8,,,,,,,,7,,,,46,45
724360,note_off,400,0,7,,,,,,,,6,,,,58,64
724360,note_off,400,0,8,,,,,,,,7,,,,46,64
724555,note_off,595,0,4,,,,,,,,3,,,,82,64
724680,note_on,125,0,4,,,,,,,,3,,,,82,45
724920,note_on,0,0,4,,,,,,,,3,,,,84,45
724920,note_off,240,0,4,,,,,,,,3,,,,82,64
724920,note_on,2240,0,6,,,,,,,,5,,,,65,45
724920,note_on,2240,0,5,,,,,,,,4,,,,62,45
724920,note_on,0,0,5,,,,,,,,4,,,,70,45
725040,note_off,120,0,4,,,,,,,,3,,,,84,64
725320,note_off,400,0,6,,,,,,,,5,,,,65,64
725320,note_off,400,0,5,,,,,,,,4,,,,70,64
725320,note_off,0,0,5,,,,,,,,4,,,,62,64
725400,note_on,1040,0,7,,,,,,,,6,,,,55,45
725400,note_on,1040,0,8,,,,,,,,7,,,,43,45
725400,note_on,360,0,4,,,,,,,,3,,,,82,45
725800,note_off,400,0,7,,,,,,,,6,,,,55,64
725800,note_off,400,0,8,,,,,,,,7,,,,43,64
725995,note_off,595,0,4,,,,,,,,3,,,,82,64
726120,note_on,125,0,4,,,,,,,,3,,,,82,45
726360,note_on,0,0,4,,,,,,,,3,,,,84,45
726360,note_on,0,0,5,,,,,,,,4,,,,70,45
726360,note_on,1040,0,5,,,,,,,,4,,,,62,45
726360,note_on,1040,0,6,,,,,,,,5,,,,67,45
726360,note_off,240,0,4,,,,,,,,3,,,,82,64
726480,note_off,120,0,4,,,,,,,,3,,,,84,64
726760,note_off,400,0,6,,,,,,,,5,,,,67,64
726760,note_off,400,0,5,,,,,,,,4,,,,70,64
726760,note_off,0,0,5,,,,,,,,4,,,,62,64
726840,note_on,360,0,4,,,,,,,,3,,,,82,45
726840,note_on,1040,0,7,,,,,,,,6,,,,52,45
726840,note_on,1040,0,8,,,,,,,,7,,,,40,45
727240,note_off,400,0,7,,,,,,,,6,,,,52,64
727240,note_off,400,0,8,,,,,,,,7,,,,40,64
727435,note_off,595,0,4,,,,,,,,3,,,,82,64
727560,note_on,125,0,4,,,,,,,,3,,,,82,45
727800,note_off,240,0,4,,,,,,,,3,,,,82,64
727800,note_on,0,0,4,,,,,,,,3,,,,84,45
727800,note_on,1040,0,6,,,,,,,,5,,,,61,45
727800,note_on,1040,0,5,,,,,,,,4,,,,67,45
727800,note_on,0,0,5,,,,,,,,4,,,,70,45
727920,note_off,120,0,4,,,,,,,,3,,,,84,64
728200,note_off,400,0,6,,,,,,,,5,,,,61,64
728200,note_off,400,0,5,,,,,,,,4,,,,70,64
728200,note_off,0,0,5,,,,,,,,4,,,,67,64
728280,note_on,360,0,4,,,,,,,,3,,,,82,45
728280,note_on,1040,0,7,,,,,,,,6,,,,49,45
728280,note_on,1040,0,8,,,,,,,,7,,,,37,45
728680,note_off,400,0,8,,,,,,,,7,,,,37,64
728680,note_off,400,0,7,,,,,,,,6,,,,49,64
728875,note_off,595,0,4,,,,,,,,3,,,,82,64
729000,note_on,125,0,4,,,,,,,,3,,,,82,45
729240,note_on,0,0,5,,,,,,,,4,,,,70,45
729240,note_on,1040,0,5,,,,,,,,4,,,,67,45
729240,note_on,1040,0,6,,,,,,,,5,,,,64,45
729240,note_off,240,0,4,,,,,,,,3,,,,82,64
729240,note_on,0,0,4,,,,,,,,3,,,,84,45
729360,note_off,120,0,4,,,,,,,,3,,,,84,64
729640,note_off,400,0,6,,,,,,,,5,,,,64,64
729640,note_off,0,0,5,,,,,,,,4,,,,67,64
729640,note_off,400,0,5,,,,,,,,4,,,,70,64
729720,note_on,1040,0,7,,,,,,,,6,,,,50,45
729720,note_on,1040,0,8,,,,,,,,7,,,,38,45
729720,note_on,80,0,5,,,,,,,,4,,,,62,45
729720,note_on,0,0,5,,,,,,,,4,,,,69,45
729720,note_on,80,0,6,,,,,,,,5,,,,65,45
729720,note_on,360,0,4,,,,,,,,3,,,,81,45
730120,note_off,400,0,7,,,,,,,,6,,,,50,64
730120,note_off,400,0,8,,,,,,,,7,,,,38,64
730315,note_off,595,0,4,,,,,,,,3,,,,81,64
730315,note_off,595,0,6,,,,,,,,5,,,,65,64
730315,note_off,0,0,5,,,,,,,,4,,,,62,64
730315,note_off,595,0,5,,,,,,,,4,,,,69,64
730440,note_on,0,0,5,,,,,,,,4,,,,69,45
730440,note_on,125,0,6,,,,,,,,5,,,,65,45
730440,note_on,125,0,5,,,,,,,,4,,,,62,45
730440,note_on,125,0,4,,,,,,,,3,,,,81,45
730680,note_off,240,0,6,,,,,,,,5,,,,65,64
730680,note_off,240,0,5,,,,,,,,4,,,,69,64
730680,note_off,0,0,5,,,,,,,,4,,,,62,64
730680,note_on,0,0,5,,,,,,,,4,,,,62,45
730680,note_on,0,0,5,,,,,,,,4,,,,70,45
730680,note_off,240,0,4,,,,,,,,3,,,,81,64
730680,note_on,0,0,4,,,,,,,,3,,,,82,45
730680,note_on,0,0,6,,,,,,,,5,,,,67,45
730800,note_off,120,0,5,,,,,,,,4,,,,70,64
730800,note_off,0,0,5,,,,,,,,4,,,,62,64
730800,note_off,120,0,4,,,,,,,,3,,,,82,64
730800,note_off,120,0,6,,,,,,,,5,,,,67,64
731160,note_on,1040,0,7,,,,,,,,6,,,,50,45
731160,note_on,1040,0,8,,,,,,,,7,,,,38,45
731160,note_on,360,0,6,,,,,,,,5,,,,65,45
731160,note_on,360,0,4,,,,,,,,3,,,,81,45
731160,note_on,0,0,5,,,,,,,,4,,,,69,45
731160,note_on,360,0,5,,,,,,,,4,,,,62,45
731560,note_off,400,0,7,,,,,,,,6,,,,50,64
731560,note_off,400,0,8,,,,,,,,7,,,,38,64
731755,note_off,595,0,6,,,,,,,,5,,,,65,64
731755,note_off,0,0,5,,,,,,,,4,,,,62,64
731755,note_off,595,0,5,,,,,,,,4,,,,69,64
731755,note_off,595,0,4,,,,,,,,3,,,,81,64
731880,note_on,125,0,6,,,,,,,,5,,,,65,45
731880,note_on,125,0,4,,,,,,,,3,,,,81,45
731880,note_on,125,0,5,,,,,,,,4,,,,62,45
731880,note_on,0,0,5,,,,,,,,4,,,,69,45
732120,note_off,240,0,4,,,,,,,,3,,,,81,64
732120,note_on,0,0,4,,,,,,,,3,,,,82,45
732120,note_off,240,0,5,,,,,,,,4,,,,69,64
732120,note_off,0,0,5,,,,,,,,4,,,,62,64
732120,note_on,0,0,5,,,,,,,,4,,,,62,45
732120,note_on,0,0,5,,,,,,,,4,,,,70,45
732120,note_off,240,0,6,,,,,,,,5,,,,65,64
732120,note_on,0,0,6,,,,,,,,5,,,,67,45
732240,note_off,120,0,5,,,,,,,,4,,,,70,64
732240,note_off,120,0,6,,,,,,,,5,,,,67,64
732240,note_off,0,0,5,,,,,,,,4,,,,62,64
732240,note_off,120,0,4,,,,,,,,3,,,,82,64
732600,note_on,360,0,6,,,,,,,,5,,,,65,45
732600,note_on,360,0,5,,,,,,,,4,,,,60,45
732600,note_on,0,0,5,,,,,,,,4,,,,69,45
732600,note_on,1040,0,7,,,,,,,,6,,,,48,45
732600,note_on,1040,0,8,,,,,,,,7,,,,36,45
732600,note_on,360,0,4,,,,,,,,3,,,,81,45
732720,note_off,120,0,7,,,,,,,,6,,,,48,64
732720,note_off,120,0,4,,,,,,,,3,,,,81,64
732720,note_off,120,0,8,,,,,,,,7,,,,36,64
732720,note_off,0,0,5,,,,,,,,4,,,,60,64
732720,note_off,120,0,5,,,,,,,,4,,,,69,64
732720,note_off,120,0,6,,,,,,,,5,,,,65,64
733080,note_on,0,0,5,,,,,,,,4,,,,69,45
733080,note_on,360,0,5,,,,,,,,4,,,,60,45
733080,note_on,360,0,8,,,,,,,,7,,,,36,45
733080,note_on,360,0,6,,,,,,,,5,,,,65,45
733080,note_on,360,0,4,,,,,,,,3,,,,81,45
733080,note_on,360,0,7,,,,,,,,6,,,,48,45
733200,note_off,120,0,6,,,,,,,,5,,,,65,64
733200,note_off,0,0,5,,,,,,,,4,,,,60,64
733200,note_off,120,0,4,,,,,,,,3,,,,81,64
733200,note_off,120,0,8,,,,,,,,7,,,,36,64
733200,note_off,120,0,7,,,,,,,,6,,,,48,64
733200,note_off,120,0,5,,,,,,,,4,,,,69,64
733560,note_on,360,0,4,,,,,,,,3,,,,79,45
733560,note_on,360,0,7,,,,,,,,6,,,,48,45
733560,note_on,360,0,6,,,,,,,,5,,,,64,45
733560,note_on,360,0,8,,,,,,,,7,,,,36,45
733560,note_on,360,0,5,,,,,,,,4,,,,60,45
733560,note_on,0,0,5,,,,,,,,4,,,,67,45
733680,note_off,120,0,8,,,,,,,,7,,,,36,64
733680,note_off,120,0,4,,,,,,,,3,,,,79,64
733680,note_off,120,0,7,,,,,,,,6,,,,48,64
733680,note_off,120,0,6,,,,,,,,5,,,,64,64
733680,note_off,120,0,5,,,,,,,,4,,,,67,64
733680,note_off,0,0,5,,,,,,,,4,,,,60,64
734040,note_on,360,0,4,,,,,,,,3,,,,77,45
734040,note_on,360,0,6,,,,,,,,5,,,,65,45
734040,note_on,360,0,8,,,,,,,,7,,,,41,45
734040,note_on,360,0,5,,,,,,,,4,,,,57,45
734040,note_on,0,0,5,,,,,,,,4,,,,65,45
734040,note_on,360,0,7,,,,,,,,6,,,,53,45
734280,note_off,240,0,4,,,,,,,,3,,,,77,64
734280,note_on,0,0,4,,,,,,,,3,,,,76,45
734440,note_off,0,0,5,,,,,,,,4,,,,57,64
734440,note_off,400,0,8,,,,,,,,7,,,,41,64
734440,note_off,400,0,6,,,,,,,,5,,,,65,64
734440,note_off,400,0,5,,,,,,,,4,,,,65,64
734440,note_off,400,0,7,,,,,,,,6,,,,53,64
734520,note_off,240,0,4,,,,,,,,3,,,,76,64
734520,note_on,0,0,4,,,,,,,,3,,,,74,45
734760,note_off,240,0,4,,,,,,,,3,,,,74,64
734760,note_on,0,0,4,,,,,,,,3,,,,76,45
735000,note_off,240,0,4,,,,,,,,3,,,,76,64
735000,note_on,0,0,4,,,,,,,,3,,,,77,45
735240,note_off,240,0,4,,,,,,,,3,,,,77,64
735240,note_on,0,0,4,,,,,,,,3,,,,79,45
735480,note_off,240,0,4,,,,,,,,3,,,,79,64
735480,note_on,0,0,5,,,,,,,,4,,,,69,45
735480,note_on,0,0,4,,,,,,,,3,,,,81,45
735480,note_on,1040,0,5,,,,,,,,4,,,,62,45
735480,note_on,1040,0,7,,,,,,,,6,,,,50,45
735480,note_on,12800,0,1,,,,,,,,0,,,,74,45
735480,note_on,1040,0,8,,,,,,,,7,,,,38,45
735480,note_on,1040,0,6,,,,,,,,5,,,,66,45
735880,note_off,400,0,8,,,,,,,,7,,,,38,64
735880,note_off,400,0,7,,,,,,,,6,,,,50,64
736075,note_off,595,0,4,,,,,,,,3,,,,81,64
736075,note_off,0,0,5,,,,,,,,4,,,,62,64
736075,note_off,595,0,5,,,,,,,,4,,,,69,64
736075,note_off,595,0,6,,,,,,,,5,,,,66,64
736200,note_on,0,0,5,,,,,,,,4,,,,69,45
736200,note_on,125,0,5,,,,,,,,4,,,,62,45
736200,note_on,125,0,4,,,,,,,,3,,,,81,45
736200,note_on,125,0,6,,,,,,,,5,,,,66,45
736440,note_off,0,0,5,,,,,,,,4,,,,62,64
736440,note_off,240,0,5,,,,,,,,4,,,,69,64
736440,note_on,0,0,5,,,,,,,,4,,,,62,45
736440,note_on,560,0,7,,,,,,,,6,,,,55,45
736440,note_off,240,0,6,,,,,,,,5,,,,66,64
736440,note_on,0,0,5,,,,,,,,4,,,,70,45
736440,note_off,240,0,4,,,,,,,,3,,,,81,64
736440,note_on,0,0,6,,,,,,,,5,,,,67,45
736440,note_on,0,0,4,,,,,,,,3,,,,82,45
736440,note_on,560,0,8,,,,,,,,7,,,,43,45
736560,note_off,120,0,6,,,,,,,,5,,,,67,64
736560,note_off,0,0,5,,,,,,,,4,,,,62,64
736560,note_off,120,0,5,,,,,,,,4,,,,70,64
736560,note_off,120,0,8,,,,,,,,7,,,,43,64
736560,note_off,120,0,7,,,,,,,,6,,,,55,64
736560,note_off,120,0,4,,,,,,,,3,,,,82,64
736920,note_on,360,0,8,,,,,,,,7,,,,38,45
736920,note_on,360,0,7,,,,,,,,6,,,,50,45
736920,note_on,360,0,5,,,,,,,,4,,,,62,45
736920,note_on,360,0,6,,,,,,,,5,,,,66,45
736920,note_on,0,0,5,,,,,,,,4,,,,69,45
736920,note_on,360,0,4,,,,,,,,3,,,,81,45
737320,note_off,400,0,8,,,,,,,,7,,,,38,64
737320,note_off,400,0,7,,,,,,,,6,,,,50,64
737515,note_off,595,0,5,,,,,,,,4,,,,69,64
737515,note_off,0,0,5,,,,,,,,4,,,,62,64
737515,note_off,595,0,6,,,,,,,,5,,,,66,64
737515,note_off,595,0,4,,,,,,,,3,,,,81,64
737640,note_on,125,0,5,,,,,,,,4,,,,62,45
737640,note_on,0,0,5,,,,,,,,4,,,,69,45
737640,note_on,125,0,6,,,,,,,,5,,,,66,45
737640,note_on,125,0,4,,,,,,,,3,,,,81,45
737880,note_off,240,0,4,,,,,,,,3,,,,81,64
737880,note_on,0,0,4,,,,,,,,3,,,,82,45
737880,note_on,560,0,8,,,,,,,,7,,,,43,45
737880,note_off,240,0,5,,,,,,,,4,,,,69,64
737880,note_off,0,0,5,,,,,,,,4,,,,62,64
737880,note_on,0,0,5,,,,,,,,4,,,,62,45
737880,note_on,0,0,5,,,,,,,,4,,,,70,45
737880,note_off,240,0,6,,,,,,,,5,,,,66,64
737880,note_on,0,0,6,,,,,,,,5,,,,67,45
737880,note_on,560,0,7,,,,,,,,6,,,,55,45
738000,note_off,120,0,6,,,,,,,,5,,,,67,64
738000,note_off,120,0,4,,,,,,,,3,,,,82,64
738000,note_off,120,0,7,,,,,,,,6,,,,55,64
738000,note_off,120,0,5,,,,,,,,4,,,,70,64
738000,note_off,0,0,5,,,,,,,,4,,,,62,64
738240,note_off,2760,0,1,,,,,,,,0,,,,74,64
738280,note_off,400,0,8,,,,,,,,7,,,,43,64
738360,note_on,120,0,1,,,,,,,,0,,,,77,45
738360,note_on,360,0,6,,,,,,,,5,,,,65,45
738360,note_on,0,0,5,,,,,,,,4,,,,69,45
738360,note_on,360,0,7,,,,,,,,6,,,,48,45
738360,note_on,80,0,8,,,,,,,,7,,,,36,45
738360,note_on,360,0,5,,,,,,,,4,,,,60,45
738360,note_on,360,0,4,,,,,,,,3,,,,81,45
738480,note_off,120,0,4,,,,,,,,3,,,,81,64
738480,note_off,120,0,5,,,,,,,,4,,,,69,64
738480,note_off,0,0,5,,,,,,,,4,,,,60,64
738480,note_off,120,0,7,,,,,,,,6,,,,48,64
738480,note_off,120,0,1,,,,,,,,0,,,,77,64
738480,note_off,120,0,8,,,,,,,,7,,,,36,64
738480,note_off,120,0,6,,,,,,,,5,,,,65,64
738840,note_on,360,0,4,,,,,,,,3,,,,81,45
738840,note_on,0,0,5,,,,,,,,4,,,,69,45
738840,note_on,360,0,7,,,,,,,,6,,,,48,45
738840,note_on,360,0,5,,,,,,,,4,,,,60,45
738840,note_on,360,0,8,,,,,,,,7,,,,36,45
738840,note_on,360,0,6,,,,,,,,5,,,,65,45
738840,note_on,360,0,1,,,,,,,,0,,,,77,45
738960,note_off,120,0,4,,,,,,,,3,,,,81,64
738960,note_off,120,0,6,,,,,,,,5,,,,65,64
738960,note_off,0,0,5,,,,,,,,4,,,,60,64
738960,note_off,120,0,5,,,,,,,,4,,,,69,64
738960,note_off,120,0,7,,,,,,,,6,,,,48,64
738960,note_off,120,0,1,,,,,,,,0,,,,77,64
738960,note_off,120,0,8,,,,,,,,7,,,,36,64
739320,note_on,360,0,6,,,,,,,,5,,,,64,45
739320,note_on,360,0,4,,,,,,,,3,,,,79,45
739320,note_on,360,0,7,,,,,,,,6,,,,48,45
739320,note_on,360,0,8,,,,,,,,7,,,,36,45
739320,note_on,360,0,5,,,,,,,,4,,,,60,45
739320,note_on,0,0,5,,,,,,,,4,,,,67,45
739320,note_on,360,0,1,,,,,,,,0,,,,72,45
739440,note_off,0,0,5,,,,,,,,4,,,,60,64
739440,note_off,120,0,7,,,,,,,,6,,,,48,64
739440,note_off,120,0,6,,,,,,,,5,,,,64,64
739440,note_off,120,0,8,,,,,,,,7,,,,36,64
739440,note_off,120,0,4,,,,,,,,3,,,,79,64
739440,note_off,120,0,5,,,,,,,,4,,,,67,64
739440,note_off,120,0,1,,,,,,,,0,,,,72,64
739800,note_on,360,0,7,,,,,,,,6,,,,53,45
739800,note_on,0,0,5,,,,,,,,4,,,,65,45
739800,note_on,360,0,5,,,,,,,,4,,,,57,45
739800,note_on,360,0,8,,,,,,,,7,,,,41,45
739800,note_on,360,0,1,,,,,,,,0,,,,69,45
739800,note_on,360,0,6,,,,,,,,5,,,,65,45
739800,note_on,360,0,4,,,,,,,,3,,,,77,45
740200,note_off,0,0,5,,,,,,,,4,,,,57,64
740200,note_off,400,0,5,,,,,,,,4,,,,65,64
740200,note_off,400,0,4,,,,,,,,3,,,,77,64
740200,note_off,400,0,8,,,,,,,,7,,,,41,64
740200,note_off,400,0,7,,,,,,,,6,,,,53,64
740200,note_off,400,0,6,,,,,,,,5,,,,65,64
740200,note_off,400,0,1,,,,,,,,0,,,,69,64
740340,note_on,140,0,5,,,,,,,,4,,,,67,92
740340,note_on,140,0,4,,,,,,,,3,,,,79,92
740340,note_on,0,0,6,,,,,,,,5,,,,67,92
740340,program_change,140,0,6,,,,,,,,5,,,50,,
740340,note_on,140,0,1,,,,,,,,0,,,,67,92
740340,note_on,17660,0,2,,,,,,,,1,,,,55,92
740340,note_on,140,0,7,,,,,,,,6,,,,55,92
740340,set_tempo,16380,1,0,229007,,,,,,,,,,,,
740340,note_on,140,0,8,,,,,,,,7,,,,43,92
740580,note_off,240,0,8,,,,,,,,7,,,,43,64
740580,note_off,240,0,4,,,,,,,,3,,,,79,64
740580,note_on,0,0,4,,,,,,,,3,,,,81,92
740580,note_off,240,0,7,,,,,,,,6,,,,55,64
740580,note_on,0,0,8,,,,,,,,7,,,,45,92
740580,note_on,0,0,2,,,,,,,,1,,,,57,92
740580,note_off,240,0,6,,,,,,,,5,,,,67,64
740580,note_off,240,0,1,,,,,,,,0,,,,67,64
740580,note_on,0,0,1,,,,,,,,0,,,,69,92
740580,note_on,0,0,6,,,,,,,,5,,,,69,92
740580,note_on,0,0,5,,,,,,,,4,,,,69,92
740580,note_off,240,0,5,,,,,,,,4,,,,67,64
740580,note_off,240,0,2,,,,,,,,1,,,,55,64
740580,note_on,0,0,7,,,,,,,,6,,,,57,92
740820,note_on,0,0,6,,,,,,,,5,,,,71,92
740820,note_off,240,0,6,,,,,,,,5,,,,69,64
740820,note_on,0,0,5,,,,,,,,4,,,,71,92
740820,note_off,240,0,5,,,,,,,,4,,,,69,64
740820,note_on,0,0,4,,,,,,,,3,,,,83,92
740820,note_off,240,0,4,,,,,,,,3,,,,81,64
740820,note_on,0,0,1,,,,,,,,0,,,,71,92
740820,note_off,240,0,1,,,,,,,,0,,,,69,64
740820,note_on,0,0,7,,,,,,,,6,,,,59,92
740820,note_off,240,0,8,,,,,,,,7,,,,45,64
740820,note_on,0,0,2,,,,,,,,1,,,,59,92
740820,note_off,240,0,2,,,,,,,,1,,,,57,64
740820,note_off,240,0,7,,,,,,,,6,,,,57,64
740820,note_on,0,0,8,,,,,,,,7,,,,47,92
741060,note_off,240,0,8,,,,,,,,7,,,,47,64
741060,note_off,240,0,6,,,,,,,,5,,,,71,64
741060,note_on,0,0,7,,,,,,,,6,,,,60,92
741060,note_on,0,0,6,,,,,,,,5,,,,72,92
741060,note_off,240,0,7,,,,,,,,6,,,,59,64
741060,note_on,0,0,1,,,,,,,,0,,,,72,92
741060,note_off,240,0,2,,,,,,,,1,,,,59,64
741060,note_on,0,0,2,,,,,,,,1,,,,60,92
741060,note_off,240,0,5,,,,,,,,4,,,,71,64
741060,note_on,0,0,5,,,,,,,,4,,,,72,92
741060,note_off,240,0,4,,,,,,,,3,,,,83,64
741060,note_on,0,0,4,,,,,,,,3,,,,84,92
741060,note_on,0,0,8,,,,,,,,7,,,,48,92
741060,note_off,240,0,1,,,,,,,,0,,,,71,64
741300,note_on,0,0,6,,,,,,,,5,,,,71,92
741300,note_on,0,0,1,,,,,,,,0,,,,71,92
741300,note_off,240,0,1,,,,,,,,0,,,,72,64
741300,note_on,0,0,8,,,,,,,,7,,,,47,92
741300,note_on,0,0,2,,,,,,,,1,,,,59,92
741300,note_on,0,0,7,,,,,,,,6,,,,59,92
741300,note_off,240,0,7,,,,,,,,6,,,,60,64
741300,note_off,240,0,4,,,,,,,,3,,,,84,64
741300,note_off,240,0,2,,,,,,,,1,,,,60,64
741300,note_off,240,0,5,,,,,,,,4,,,,72,64
741300,note_on,0,0,5,,,,,,,,4,,,,71,92
741300,note_off,240,0,8,,,,,,,,7,,,,48,64
741300,note_on,0,0,4,,,,,,,,3,,,,83,92
741300,note_off,240,0,6,,,,,,,,5,,,,72,64
741700,note_off,400,0,2,,,,,,,,1,,,,59,64
741700,note_off,400,0,1,,,,,,,,0,,,,71,64
741805,note_off,505,0,4,,,,,,,,3,,,,83,64
741805,note_off,505,0,8,,,,,,,,7,,,,47,64
741805,note_off,505,0,6,,,,,,,,5,,,,71,64
741805,note_off,505,0,5,,,,,,,,4,,,,71,64
741805,note_off,505,0,7,,,,,,,,6,,,,59,64
742020,note_on,215,0,7,,,,,,,,6,,,,59,92
742020,note_on,215,0,5,,,,,,,,4,,,,71,92
742020,note_on,215,0,8,,,,,,,,7,,,,47,92
742020,note_on,215,0,6,,,,,,,,5,,,,71,92
742020,note_on,215,0,4,,,,,,,,3,,,,83,92
742260,note_on,0,0,4,,,,,,,,3,,,,86,92
742260,note_off,240,0,7,,,,,,,,6,,,,59,64
742260,note_off,240,0,6,,,,,,,,5,,,,71,64
742260,note_on,0,0,8,,,,,,,,7,,,,50,92
742260,note_on,0,0,7,,,,,,,,6,,,,62,92
742260,note_off,240,0,4,,,,,,,,3,,,,83,64
742260,note_on,0,0,5,,,,,,,,4,,,,74,92
742260,note_on,0,0,6,,,,,,,,5,,,,74,92
742260,note_off,240,0,5,,,,,,,,4,,,,71,64
742260,note_off,240,0,8,,,,,,,,7,,,,47,64
742380,note_off,120,0,5,,,,,,,,4,,,,74,64
742380,note_off,120,0,4,,,,,,,,3,,,,86,64
742380,note_off,120,0,6,,,,,,,,5,,,,74,64
742380,note_off,120,0,7,,,,,,,,6,,,,62,64
742380,note_off,120,0,8,,,,,,,,7,,,,50,64
742740,note_on,360,0,8,,,,,,,,7,,,,47,92
742740,note_on,360,0,5,,,,,,,,4,,,,71,92
742740,note_on,1040,0,2,,,,,,,,1,,,,59,92
742740,note_on,360,0,7,,,,,,,,6,,,,59,92
742740,note_on,1040,0,1,,,,,,,,0,,,,71,92
742740,note_on,360,0,6,,,,,,,,5,,,,71,92
742740,note_on,360,0,4,,,,,,,,3,,,,83,92
743140,note_off,400,0,2,,,,,,,,1,,,,59,64
743140,note_off,400,0,1,,,,,,,,0,,,,71,64
743245,note_off,505,0,8,,,,,,,,7,,,,47,64
743245,note_off,505,0,6,,,,,,,,5,,,,71,64
743245,note_off,505,0,7,,,,,,,,6,,,,59,64
743245,note_off,505,0,4,,,,,,,,3,,,,83,64
743245,note_off,505,0,5,,,,,,,,4,,,,71,64
743460,note_on,215,0,5,,,,,,,,4,,,,71,92
743460,note_on,215,0,4,,,,,,,,3,,,,83,92
743460,note_on,215,0,8,,,,,,,,7,,,,47,92
743460,note_on,215,0,6,,,,,,,,5,,,,71,92
743460,note_on,215,0,7,,,,,,,,6,,,,59,92
743700,note_on,0,0,5,,,,,,,,4,,,,74,92
743700,note_on,0,0,8,,,,,,,,7,,,,50,92
743700,note_off,240,0,8,,,,,,,,7,,,,47,64
743700,note_off,240,0,5,,,,,,,,4,,,,71,64
743700,note_off,240,0,7,,,,,,,,6,,,,59,64
743700,note_on,0,0,7,,,,,,,,6,,,,62,92
743700,note_off,240,0,4,,,,,,,,3,,,,83,64
743700,note_on,0,0,4,,,,,,,,3,,,,86,92
743700,note_off,240,0,6,,,,,,,,5,,,,71,64
743700,note_on,0,0,6,,,,,,,,5,,,,74,92
743820,note_off,120,0,4,,,,,,,,3,,,,86,64
743820,note_off,120,0,8,,,,,,,,7,,,,50,64
743820,note_off,120,0,6,,,,,,,,5,,,,74,64
743820,note_off,120,0,7,,,,,,,,6,,,,62,64
743820,note_off,120,0,5,,,,,,,,4,,,,74,64
744180,note_on,1040,0,1,,,,,,,,0,,,,79,92
744180,note_on,360,0,5,,,,,,,,4,,,,67,92
744180,note_on,360,0,8,,,,,,,,7,,,,43,92
744180,note_on,1040,0,2,,,,,,,,1,,,,55,92
744180,note_on,360,0,6,,,,,,,,5,,,,67,92
744180,note_on,360,0,7,,,,,,,,6,,,,55,92
744180,note_on,360,0,4,,,,,,,,3,,,,79,92
744580,note_off,400,0,2,,,,,,,,1,,,,55,64
744580,note_off,400,0,1,,,,,,,,0,,,,79,64
744685,note_off,505,0,7,,,,,,,,6,,,,55,64
744685,note_off,505,0,8,,,,,,,,7,,,,43,64
744685,note_off,505,0,4,,,,,,,,3,,,,79,64
744685,note_off,505,0,6,,,,,,,,5,,,,67,64
744685,note_off,505,0,5,,,,,,,,4,,,,67,64
744900,note_on,215,0,4,,,,,,,,3,,,,79,92
744900,note_on,215,0,6,,,,,,,,5,,,,67,92
744900,note_on,215,0,5,,,,,,,,4,,,,67,92
744900,note_on,215,0,7,,,,,,,,6,,,,55,92
744900,note_on,215,0,8,,,,,,,,7,,,,43,92
745140,note_off,240,0,8,,,,,,,,7,,,,43,64
745140,note_off,240,0,6,,,,,,,,5,,,,67,64
745140,note_on,0,0,7,,,,,,,,6,,,,58,92
745140,note_on,0,0,4,,,,,,,,3,,,,82,92
745140,note_off,240,0,4,,,,,,,,3,,,,79,64
745140,note_on,0,0,8,,,,,,,,7,,,,46,92
745140,note_on,0,0,6,,,,,,,,5,,,,70,92
745140,note_on,0,0,5,,,,,,,,4,,,,70,92
745140,note_off,240,0,7,,,,,,,,6,,,,55,64
745140,note_off,240,0,5,,,,,,,,4,,,,67,64
745260,note_off,120,0,6,,,,,,,,5,,,,70,64
745260,note_off,120,0,4,,,,,,,,3,,,,82,64
745260,note_off,120,0,8,,,,,,,,7,,,,46,64
745260,note_off,120,0,5,,,,,,,,4,,,,70,64
745260,note_off,120,0,7,,,,,,,,6,,,,58,64
745620,note_on,360,0,5,,,,,,,,4,,,,64,92
745620,note_on,360,0,6,,,,,,,,5,,,,64,92
745620,note_on,360,0,7,,,,,,,,6,,,,52,92
745620,note_on,1040,0,2,,,,,,,,1,,,,52,92
745620,note_on,360,0,8,,,,,,,,7,,,,40,92
745620,note_on,1040,0,1,,,,,,,,0,,,,76,92
745620,note_on,360,0,4,,,,,,,,3,,,,76,92
746020,note_off,400,0,1,,,,,,,,0,,,,76,64
746020,note_off,400,0,2,,,,,,,,1,,,,52,64
746125,note_off,505,0,6,,,,,,,,5,,,,64,64
746125,note_off,505,0,8,,,,,,,,7,,,,40,64
746125,note_off,505,0,4,,,,,,,,3,,,,76,64
746125,note_off,505,0,5,,,,,,,,4,,,,64,64
746125,note_off,505,0,7,,,,,,,,6,,,,52,64
746340,note_on,215,0,5,,,,,,,,4,,,,64,92
746340,note_on,215,0,6,,,,,,,,5,,,,64,92
746340,note_on,215,0,7,,,,,,,,6,,,,52,92
746340,note_on,215,0,4,,,,,,,,3,,,,76,92
746340,note_on,215,0,8,,,,,,,,7,,,,40,92
746580,note_on,0,0,4,,,,,,,,3,,,,79,92
746580,note_on,0,0,5,,,,,,,,4,,,,67,92
746580,note_off,240,0,5,,,,,,,,4,,,,64,64
746580,note_off,240,0,6,,,,,,,,5,,,,64,64
746580,note_off,240,0,4,,,,,,,,3,,,,76,64
746580,note_on,0,0,7,,,,,,,,6,,,,55,92
746580,note_off,240,0,7,,,,,,,,6,,,,52,64
746580,note_on,0,0,6,,,,,,,,5,,,,67,92
746580,note_on,0,0,8,,,,,,,,7,,,,43,92
746580,note_off,240,0,8,,,,,,,,7,,,,40,64
746700,note_off,120,0,7,,,,,,,,6,,,,55,64
746700,note_off,120,0,4,,,,,,,,3,,,,79,64
746700,note_off,120,0,6,,,,,,,,5,,,,67,64
746700,note_off,120,0,8,,,,,,,,7,,,,43,64
746700,note_off,120,0,5,,,,,,,,4,,,,67,64
747060,note_on,360,0,8,,,,,,,,7,,,,36,92
747060,note_on,1040,0,2,,,,,,,,1,,,,48,92
747060,note_on,360,0,4,,,,,,,,3,,,,72,92
747060,note_on,360,0,7,,,,,,,,6,,,,48,92
747060,note_on,360,0,5,,,,,,,,4,,,,60,92
747060,note_on,360,0,6,,,,,,,,5,,,,60,92
747060,note_on,1040,0,1,,,,,,,,0,,,,72,92
747460,note_off,400,0,1,,,,,,,,0,,,,72,64
747460,note_off,400,0,6,,,,,,,,5,,,,60,64
747460,note_off,400,0,2,,,,,,,,1,,,,48,64
747460,note_off,400,0,4,,,,,,,,3,,,,72,64
747460,note_off,400,0,5,,,,,,,,4,,,,60,64
747540,note_on,80,0,6,,,,,,,,5,,,,62,92
747540,note_on,80,0,4,,,,,,,,3,,,,74,92
747540,note_on,80,0,1,,,,,,,,0,,,,74,92
747540,note_on,80,0,5,,,,,,,,4,,,,62,92
747780,note_off,240,0,6,,,,,,,,5,,,,62,64
747780,note_off,240,0,5,,,,,,,,4,,,,62,64
747780,note_on,0,0,6,,,,,,,,5,,,,64,92
747780,note_off,240,0,1,,,,,,,,0,,,,74,64
747780,note_on,0,0,1,,,,,,,,0,,,,76,92
747780,note_on,0,0,4,,,,,,,,3,,,,76,92
747780,note_on,0,0,5,,,,,,,,4,,,,64,92
747780,note_off,240,0,4,,,,,,,,3,,,,74,64
747900,note_off,840,0,8,,,,,,,,7,,,,36,64
747900,note_off,840,0,7,,,,,,,,6,,,,48,64
748020,note_off,240,0,5,,,,,,,,4,,,,64,64
748020,note_on,120,0,8,,,,,,,,7,,,,34,92
748020,note_on,0,0,1,,,,,,,,0,,,,77,92
748020,note_off,240,0,1,,,,,,,,0,,,,76,64
748020,note_off,240,0,4,,,,,,,,3,,,,76,64
748020,note_on,0,0,5,,,,,,,,4,,,,65,92
748020,note_on,0,0,4,,,,,,,,3,,,,77,92
748020,note_on,120,0,7,,,,,,,,6,,,,46,92
748020,note_off,240,0,6,,,,,,,,5,,,,64,64
748020,note_on,0,0,6,,,,,,,,5,,,,65,92
748260,note_on,0,0,6,,,,,,,,5,,,,67,92
748260,note_off,240,0,4,,,,,,,,3,,,,77,64
748260,note_on,0,0,4,,,,,,,,3,,,,79,92
748260,note_off,240,0,5,,,,,,,,4,,,,65,64
748260,note_on,0,0,5,,,,,,,,4,,,,67,92
748260,note_on,0,0,1,,,,,,,,0,,,,79,92
748260,note_off,240,0,1,,,,,,,,0,,,,77,64
748260,note_off,240,0,6,,,,,,,,5,,,,65,64
748420,note_off,400,0,7,,,,,,,,6,,,,46,64
748420,note_off,400,0,8,,,,,,,,7,,,,34,64
748500,note_off,240,0,6,,,,,,,,5,,,,67,64
748500,program_change,0,0,6,,,,,,,,5,,,48,,
748500,note_on,0,0,6,,,,,,,,5,,,,69,92
748500,note_on,80,0,8,,,,,,,,7,,,,33,92
748500,note_on,80,0,7,,,,,,,,6,,,,45,92
748500,note_on,0,0,1,,,,,,,,0,,,,81,92
748500,note_on,1040,0,2,,,,,,,,1,,,,60,92
748500,note_off,240,0,4,,,,,,,,3,,,,79,64
748500,note_on,0,0,4,,,,,,,,3,,,,72,92
748500,note_on,0,0,4,,,,,,,,3,,,,81,92
748500,note_on,0,0,5,,,,,,,,4,,,,77,92
748500,note_on,0,0,5,,,,,,,,4,,,,69,92
748500,note_off,240,0,5,,,,,,,,4,,,,67,64
748500,note_off,240,0,1,,,,,,,,0,,,,79,64
748500,note_on,25820,0,3,,,,,,,,2,,,,65,92
749340,note_off,840,0,2,,,,,,,,1,,,,60,64
749340,note_off,840,0,5,,,,,,,,4,,,,77,64
749340,note_off,840,0,1,,,,,,,,0,,,,81,64
749340,note_off,840,0,7,,,,,,,,6,,,,45,64
749340,note_off,840,0,6,,,,,,,,5,,,,69,64
749340,note_off,840,0,3,,,,,,,,2,,,,65,64
749340,note_off,0,0,4,,,,,,,,3,,,,72,64
749340,note_off,840,0,4,,,,,,,,3,,,,81,64
749340,note_off,0,0,5,,,,,,,,4,,,,69,64
749340,note_off,840,0,8,,,,,,,,7,,,,33,64
749460,note_on,120,0,6,,,,,,,,5,,,,67,92
749460,note_on,120,0,2,,,,,,,,1,,,,58,92
749460,note_on,0,0,4,,,,,,,,3,,,,79,92
749460,note_on,120,0,4,,,,,,,,3,,,,70,92
749460,note_on,120,0,5,,,,,,,,4,,,,74,92
749460,note_on,120,0,8,,,,,,,,7,,,,34,92
749460,note_on,120,0,3,,,,,,,,2,,,,62,92
749460,note_on,120,0,7,,,,,,,,6,,,,46,92
749460,note_on,120,0,1,,,,,,,,0,,,,79,92
749860,note_off,400,0,3,,,,,,,,2,,,,62,64
749860,note_off,400,0,2,,,,,,,,1,,,,58,64
749860,note_off,400,0,1,,,,,,,,0,,,,79,64
749860,note_off,400,0,5,,,,,,,,4,,,,74,64
749860,note_off,0,0,4,,,,,,,,3,,,,70,64
749860,note_off,400,0,7,,,,,,,,6,,,,46,64
749860,note_off,400,0,4,,,,,,,,3,,,,79,64
749860,note_off,400,0,8,,,,,,,,7,,,,34,64
749860,note_off,400,0,6,,,,,,,,5,,,,67,64
749940,note_on,80,0,4,,,,,,,,3,,,,69,92
749940,note_on,0,0,4,,,,,,,,3,,,,77,92
749940,note_on,80,0,7,,,,,,,,6,,,,48,92
749940,note_on,80,0,3,,,,,,,,2,,,,60,92
749940,note_on,80,0,1,,,,,,,,0,,,,77,92
749940,note_on,80,0,6,,,,,,,,5,,,,65,92
749940,note_on,80,0,5,,,,,,,,4,,,,72,92
749940,note_on,80,0,8,,,,,,,,7,,,,36,92
749940,note_on,80,0,2,,,,,,,,1,,,,57,92
750535,note_off,595,0,1,,,,,,,,0,,,,77,64
750535,note_off,595,0,4,,,,,,,,3,,,,77,64
750535,note_off,0,0,4,,,,,,,,3,,,,69,64
750535,note_off,595,0,2,,,,,,,,1,,,,57,64
750535,note_off,595,0,5,,,,,,,,4,,,,72,64
750535,note_off,595,0,8,,,,,,,,7,,,,36,64
750535,note_off,595,0,3,,,,,,,,2,,,,60,64
750535,note_off,595,0,7,,,,,,,,6,,,,48,64
750535,note_off,595,0,6,,,,,,,,5,,,,65,64
750660,note_on,125,0,4,,,,,,,,3,,,,69,92
750660,note_on,125,0,3,,,,,,,,2,,,,60,92
750660,note_on,125,0,6,,,,,,,,5,,,,65,92
750660,note_on,125,0,1,,,,,,,,0,,,,77,92
750660,note_on,0,0,4,,,,,,,,3,,,,77,92
750660,note_on,125,0,7,,,,,,,,6,,,,48,92
750660,note_on,125,0,8,,,,,,,,7,,,,36,92
750660,note_on,125,0,5,,,,,,,,4,,,,72,92
750660,note_on,125,0,2,,,,,,,,1,,,,57,92
750900,note_off,240,0,5,,,,,,,,4,,,,72,64
750900,note_on,0,0,7,,,,,,,,6,,,,48,92
750900,note_on,0,0,5,,,,,,,,4,,,,72,92
750900,note_on,0,0,1,,,,,,,,0,,,,76,92
750900,note_off,240,0,3,,,,,,,,2,,,,60,64
750900,note_on,0,0,3,,,,,,,,2,,,,60,92
750900,note_on,0,0,4,,,,,,,,3,,,,67,92
750900,note_off,240,0,7,,,,,,,,6,,,,48,64
750900,note_off,0,0,4,,,,,,,,3,,,,69,64
750900,note_off,240,0,4,,,,,,,,3,,,,77,64
750900,note_off,240,0,2,,,,,,,,1,,,,57,64
750900,note_on,0,0,2,,,,,,,,1,,,,55,92
750900,note_off,240,0,6,,,,,,,,5,,,,65,64
750900,note_on,0,0,6,,,,,,,,5,,,,64,92
750900,note_on,0,0,8,,,,,,,,7,,,,36,92
750900,note_off,240,0,8,,,,,,,,7,,,,36,64
750900,note_off,240,0,1,,,,,,,,0,,,,77,64
750900,note_on,0,0,4,,,,,,,,3,,,,76,92
751020,note_off,0,0,4,,,,,,,,3,,,,67,64
751020,note_off,120,0,8,,,,,,,,7,,,,36,64
751020,note_off,120,0,4,,,,,,,,3,,,,76,64
751020,note_off,120,0,7,,,,,,,,6,,,,48,64
751020,note_off,120,0,1,,,,,,,,0,,,,76,64
751020,note_off,120,0,5,,,,,,,,4,,,,72,64
751020,note_off,120,0,3,,,,,,,,2,,,,60,64
751020,note_off,120,0,2,,,,,,,,1,,,,55,64
751020,note_off,120,0,6,,,,,,,,5,,,,64,64
751380,note_on,360,0,5,,,,,,,,4,,,,72,92
751380,note_on,360,0,7,,,,,,,,6,,,,53,92
751380,note_on,360,0,3,,,,,,,,2,,,,60,92
751380,note_on,0,0,4,,,,,,,,3,,,,77,92
751380,note_on,360,0,4,,,,,,,,3,,,,69,92
751380,note_on,360,0,8,,,,,,,,7,,,,41,92
751380,note_on,360,0,1,,,,,,,,0,,,,77,92
751380,note_on,360,0,6,,,,,,,,5,,,,65,92
751380,note_on,360,0,2,,,,,,,,1,,,,57,92
751500,note_off,120,0,1,,,,,,,,0,,,,77,64
751500,note_off,120,0,5,,,,,,,,4,,,,72,64
751500,note_off,0,0,4,,,,,,,,3,,,,69,64
751500,note_off,120,0,6,,,,,,,,5,,,,65,64
751500,note_off,120,0,7,,,,,,,,6,,,,53,64
751500,note_off,120,0,8,,,,,,,,7,,,,41,64
751500,note_off,120,0,4,,,,,,,,3,,,,77,64
751500,note_off,120,0,2,,,,,,,,1,,,,57,64
751780,note_off,400,0,3,,,,,,,,2,,,,60,64
751920,note_on,420,0,1,,,,,,,,0,,,,67,92
751920,note_on,420,0,6,,,,,,,,5,,,,67,92
751920,note_on,420,0,8,,,,,,,,7,,,,43,92
751920,note_on,420,0,2,,,,,,,,1,,,,55,92
751920,note_on,420,0,5,,,,,,,,4,,,,67,92
751920,note_on,420,0,7,,,,,,,,6,,,,55,92
751920,note_on,420,0,4,,,,,,,,3,,,,79,92
752160,note_on,0,0,5,,,,,,,,4,,,,69,92
752160,note_off,240,0,5,,,,,,,,4,,,,67,64
752160,note_on,0,0,6,,,,,,,,5,,,,69,92
752160,note_on,0,0,2,,,,,,,,1,,,,57,92
752160,note_off,240,0,2,,,,,,,,1,,,,55,64
752160,note_off,240,0,4,,,,,,,,3,,,,79,64
752160,note_off,240,0,6,,,,,,,,5,,,,67,64
752160,note_on,0,0,4,,,,,,,,3,,,,81,92
752160,note_off,240,0,7,,,,,,,,6,,,,55,64
752160,note_off,240,0,1,,,,,,,,0,,,,67,64
752160,note_on,0,0,1,,,,,,,,0,,,,69,92
752160,note_off,240,0,8,,,,,,,,7,,,,43,64
752160,note_on,0,0,8,,,,,,,,7,,,,45,92
752160,note_on,0,0,7,,,,,,,,6,,,,57,92
752400,note_off,240,0,5,,,,,,,,4,,,,69,64
752400,note_on,0,0,5,,,,,,,,4,,,,71,92
752400,note_off,240,0,8,,,,,,,,7,,,,45,64
752400,note_off,240,0,7,,,,,,,,6,,,,57,64
752400,note_on,0,0,1,,,,,,,,0,,,,71,92
752400,note_off,240,0,1,,,,,,,,0,,,,69,64
752400,note_on,0,0,7,,,,,,,,6,,,,59,92
752400,note_off,240,0,2,,,,,,,,1,,,,57,64
752400,note_on,0,0,2,,,,,,,,1,,,,59,92
752400,note_on,0,0,4,,,,,,,,3,,,,83,92
752400,note_off,240,0,4,,,,,,,,3,,,,81,64
752400,note_off,240,0,6,,,,,,,,5,,,,69,64
752400,note_on,0,0,8,,,,,,,,7,,,,47,92
752400,note_on,0,0,6,,,,,,,,5,,,,71,92
752640,note_on,0,0,6,,,,,,,,5,,,,72,92
752640,note_off,240,0,6,,,,,,,,5,,,,71,64
752640,note_off,240,0,1,,,,,,,,0,,,,71,64
752640,note_on,0,0,5,,,,,,,,4,,,,72,92
752640,note_off,240,0,5,,,,,,,,4,,,,71,64
752640,note_on,0,0,7,,,,,,,,6,,,,60,92
752640,note_off,240,0,7,,,,,,,,6,,,,59,64
752640,note_on,0,0,1,,,,,,,,0,,,,72,92
752640,note_off,240,0,4,,,,,,,,3,,,,83,64
752640,note_on,0,0,4,,,,,,,,3,,,,84,92
752640,note_on,0,0,2,,,,,,,,1,,,,60,92
752640,note_off,240,0,2,,,,,,,,1,,,,59,64
752640,note_on,0,0,8,,,,,,,,7,,,,48,92
752640,note_off,240,0,8,,,,,,,,7,,,,47,64
752880,note_on,0,0,2,,,,,,,,1,,,,59,92
752880,note_off,240,0,2,,,,,,,,1,,,,60,64
752880,note_on,0,0,8,,,,,,,,7,,,,47,92
752880,note_off,240,0,6,,,,,,,,5,,,,72,64
752880,note_on,0,0,4,,,,,,,,3,,,,83,92
752880,note_off,240,0,4,,,,,,,,3,,,,84,64
752880,note_off,240,0,8,,,,,,,,7,,,,48,64
752880,note_on,0,0,6,,,,,,,,5,,,,71,92
752880,note_off,240,0,7,,,,,,,,6,,,,60,64
752880,note_off,240,0,5,,,,,,,,4,,,,72,64
752880,note_on,0,0,7,,,,,,,,6,,,,59,92
752880,note_on,0,0,1,,,,,,,,0,,,,71,92
752880,note_on,0,0,5,,,,,,,,4,,,,71,92
752880,note_off,240,0,1,,,,,,,,0,,,,72,64
753280,note_off,400,0,1,,,,,,,,0,,,,71,64
753280,note_off,400,0,2,,,,,,,,1,,,,59,64
753385,note_off,505,0,5,,,,,,,,4,,,,71,64
753385,note_off,505,0,6,,,,,,,,5,,,,71,64
753385,note_off,505,0,8,,,,,,,,7,,,,47,64
753385,note_off,505,0,4,,,,,,,,3,,,,83,64
753385,note_off,505,0,7,,,,,,,,6,,,,59,64
753600,note_on,215,0,6,,,,,,,,5,,,,71,92
753600,note_on,215,0,8,,,,,,,,7,,,,47,92
753600,note_on,215,0,7,,,,,,,,6,,,,59,92
753600,note_on,215,0,4,,,,,,,,3,,,,83,92
753600,note_on,215,0,5,,,,,,,,4,,,,71,92
753840,note_on,0,0,6,,,,,,,,5,,,,74,92
753840,note_on,0,0,7,,,,,,,,6,,,,62,92
753840,note_on,0,0,4,,,,,,,,3,,,,86,92
753840,note_off,240,0,4,,,,,,,,3,,,,83,64
753840,note_on,0,0,5,,,,,,,,4,,,,74,92
753840,note_off,240,0,8,,,,,,,,7,,,,47,64
753840,note_on,0,0,8,,,,,,,,7,,,,50,92
753840,note_off,240,0,5,,,,,,,,4,,,,71,64
753840,note_off,240,0,6,,,,,,,,5,,,,71,64
753840,note_off,240,0,7,,,,,,,,6,,,,59,64
753960,note_off,120,0,7,,,,,,,,6,,,,62,64
753960,note_off,120,0,5,,,,,,,,4,,,,74,64
753960,note_off,120,0,8,,,,,,,,7,,,,50,64
753960,note_off,120,0,6,,,,,,,,5,,,,74,64
753960,note_off,120,0,4,,,,,,,,3,,,,86,64
754320,note_on,360,0,7,,,,,,,,6,,,,59,92
754320,note_on,1040,0,1,,,,,,,,0,,,,71,92
754320,note_on,360,0,6,,,,,,,,5,,,,71,92
754320,note_on,360,0,5,,,,,,,,4,,,,71,92
754320,note_on,360,0,4,,,,,,,,3,,,,83,92
754320,note_on,360,0,8,,,,,,,,7,,,,47,92
754320,note_on,1040,0,2,,,,,,,,1,,,,59,92
754720,note_off,400,0,1,,,,,,,,0,,,,71,64
754720,note_off,400,0,2,,,,,,,,1,,,,59,64
754825,note_off,505,0,4,,,,,,,,3,,,,83,64
754825,note_off,505,0,7,,,,,,,,6,,,,59,64
754825,note_off,505,0,8,,,,,,,,7,,,,47,64
754825,note_off,505,0,6,,,,,,,,5,,,,71,64
754825,note_off,505,0,5,,,,,,,,4,,,,71,64
755040,note_on,215,0,8,,,,,,,,7,,,,47,92
755040,note_on,215,0,7,,,,,,,,6,,,,59,92
755040,note_on,215,0,4,,,,,,,,3,,,,83,92
755040,note_on,215,0,6,,,,,,,,5,,,,71,92
755040,note_on,215,0,5,,,,,,,,4,,,,71,92
755280,note_off,240,0,7,,,,,,,,6,,,,59,64
755280,note_on,0,0,7,,,,,,,,6,,,,62,92
755280,note_on,0,0,4,,,,,,,,3,,,,86,92
755280,note_off,240,0,4,,,,,,,,3,,,,83,64
755280,note_on,0,0,6,,,,,,,,5,,,,74,92
755280,note_off,240,0,6,,,,,,,,5,,,,71,64
755280,note_off,240,0,5,,,,,,,,4,,,,71,64
755280,note_on,0,0,8,,,,,,,,7,,,,50,92
755280,note_off,240,0,8,,,,,,,,7,,,,47,64
755280,note_on,0,0,5,,,,,,,,4,,,,74,92
755400,note_off,120,0,6,,,,,,,,5,,,,74,64
755400,note_off,120,0,8,,,,,,,,7,,,,50,64
755400,note_off,120,0,7,,,,,,,,6,,,,62,64
755400,note_off,120,0,5,,,,,,,,4,,,,74,64
755400,note_off,120,0,4,,,,,,,,3,,,,86,64
755760,note_on,360,0,6,,,,,,,,5,,,,67,92
755760,note_on,360,0,8,,,,,,,,7,,,,43,92
755760,note_on,1040,0,1,,,,,,,,0,,,,79,92
755760,note_on,360,0,7,,,,,,,,6,,,,55,92
755760,note_on,1040,0,2,,,,,,,,1,,,,55,92
755760,note_on,360,0,5,,,,,,,,4,,,,67,92
755760,note_on,360,0,4,,,,,,,,3,,,,79,92
756160,note_off,400,0,1,,,,,,,,0,,,,79,64
756160,note_off,400,0,2,,,,,,,,1,,,,55,64
756265,note_off,505,0,7,,,,,,,,6,,,,55,64
756265,note_off,505,0,6,,,,,,,,5,,,,67,64
756265,note_off,505,0,8,,,,,,,,7,,,,43,64
756265,note_off,505,0,5,,,,,,,,4,,,,67,64
756265,note_off,505,0,4,,,,,,,,3,,,,79,64
756480,note_on,215,0,4,,,,,,,,3,,,,79,92
756480,note_on,215,0,8,,,,,,,,7,,,,43,92
756480,note_on,215,0,7,,,,,,,,6,,,,55,92
756480,note_on,215,0,6,,,,,,,,5,,,,67,92
756480,note_on,215,0,5,,,,,,,,4,,,,67,92
756720,note_on,0,0,6,,,,,,,,5,,,,70,92
756720,note_off,240,0,6,,,,,,,,5,,,,67,64
756720,note_on,0,0,7,,,,,,,,6,,,,58,92
756720,note_on,0,0,4,,,,,,,,3,,,,82,92
756720,note_off,240,0,4,,,,,,,,3,,,,79,64
756720,note_off,240,0,8,,,,,,,,7,,,,43,64
756720,note_on,0,0,8,,,,,,,,7,,,,46,92
756720,note_on,0,0,5,,,,,,,,4,,,,70,92
756720,note_off,240,0,5,,,,,,,,4,,,,67,64
756720,note_off,240,0,7,,,,,,,,6,,,,55,64
756840,note_off,120,0,4,,,,,,,,3,,,,82,64
756840,note_off,120,0,5,,,,,,,,4,,,,70,64
756840,note_off,120,0,7,,,,,,,,6,,,,58,64
756840,note_off,120,0,8,,,,,,,,7,,,,46,64
756840,note_off,120,0,6,,,,,,,,5,,,,70,64
757200,note_on,1040,0,1,,,,,,,,0,,,,76,92
757200,note_on,360,0,4,,,,,,,,3,,,,76,92
757200,note_on,1040,0,2,,,,,,,,1,,,,52,92
757200,note_on,360,0,5,,,,,,,,4,,,,64,92
757200,note_on,360,0,6,,,,,,,,5,,,,64,92
757200,note_on,360,0,8,,,,,,,,7,,,,40,92
757200,note_on,360,0,7,,,,,,,,6,,,,52,92
757600,note_off,400,0,2,,,,,,,,1,,,,52,64
757600,note_off,400,0,1,,,,,,,,0,,,,76,64
757705,note_off,505,0,7,,,,,,,,6,,,,52,64
757705,note_off,505,0,6,,,,,,,,5,,,,64,64
757705,note_off,505,0,5,,,,,,,,4,,,,64,64
757705,note_off,505,0,4,,,,,,,,3,,,,76,64
757705,note_off,505,0,8,,,,,,,,7,,,,40,64
757920,note_on,215,0,5,,,,,,,,4,,,,64,92
757920,note_on,215,0,8,,,,,,,,7,,,,40,92
757920,note_on,215,0,7,,,,,,,,6,,,,52,92
757920,note_on,215,0,6,,,,,,,,5,,,,64,92
757920,note_on,215,0,4,,,,,,,,3,,,,76,92
758160,note_on,0,0,4,,,,,,,,3,,,,79,92
758160,note_off,240,0,4,,,,,,,,3,,,,76,64
758160,note_off,240,0,5,,,,,,,,4,,,,64,64
758160,note_on,0,0,8,,,,,,,,7,,,,43,92
758160,note_on,0,0,5,,,,,,,,4,,,,67,92
758160,note_on,0,0,6,,,,,,,,5,,,,67,92
758160,note_off,240,0,6,,,,,,,,5,,,,64,64
758160,note_off,240,0,7,,,,,,,,6,,,,52,64
758160,note_on,0,0,7,,,,,,,,6,,,,55,92
758160,note_off,240,0,8,,,,,,,,7,,,,40,64
758280,note_off,120,0,5,,,,,,,,4,,,,67,64
758280,note_off,120,0,8,,,,,,,,7,,,,43,64
758280,note_off,120,0,6,,,,,,,,5,,,,67,64
758280,note_off,120,0,7,,,,,,,,6,,,,55,64
758280,note_off,120,0,4,,,,,,,,3,,,,79,64
758640,note_on,1040,0,1,,,,,,,,0,,,,72,92
758640,note_on,360,0,5,,,,,,,,4,,,,60,92
758640,note_on,360,0,6,,,,,,,,5,,,,60,92
758640,note_on,1040,0,2,,,,,,,,1,,,,48,92
758640,note_on,360,0,7,,,,,,,,6,,,,48,92
758640,note_on,360,0,8,,,,,,,,7,,,,36,92
758640,note_on,360,0,4,,,,,,,,3,,,,84,92
758760,note_off,120,0,5,,,,,,,,4,,,,60,64
758760,note_off,120,0,6,,,,,,,,5,,,,60,64
758760,note_off,120,0,2,,,,,,,,1,,,,48,64
758760,note_off,120,0,1,,,,,,,,0,,,,72,64
758760,note_off,120,0,4,,,,,,,,3,,,,84,64
759120,note_on,360,0,5,,,,,,,,4,,,,62,92
759120,note_on,360,0,4,,,,,,,,3,,,,86,92
759120,note_on,360,0,1,,,,,,,,0,,,,74,92
759120,note_on,360,0,6,,,,,,,,5,,,,62,92
759360,note_on,0,0,1,,,,,,,,0,,,,76,92
759360,note_off,240,0,1,,,,,,,,0,,,,74,64
759360,note_off,240,0,4,,,,,,,,3,,,,86,64
759360,note_off,240,0,5,,,,,,,,4,,,,62,64
759360,note_off,240,0,6,,,,,,,,5,,,,62,64
759360,note_on,0,0,6,,,,,,,,5,,,,64,92
759360,note_on,0,0,4,,,,,,,,3,,,,88,92
759360,note_on,0,0,5,,,,,,,,4,,,,64,92
759480,note_off,840,0,7,,,,,,,,6,,,,48,64
759480,note_off,840,0,8,,,,,,,,7,,,,36,64
759600,note_on,0,0,1,,,,,,,,0,,,,77,92
759600,note_on,0,0,6,,,,,,,,5,,,,65,92
759600,note_off,240,0,6,,,,,,,,5,,,,64,64
759600,note_on,120,0,7,,,,,,,,6,,,,46,92
759600,note_off,240,0,5,,,,,,,,4,,,,64,64
759600,note_on,120,0,8,,,,,,,,7,,,,34,92
759600,note_on,0,0,4,,,,,,,,3,,,,89,92
759600,note_off,240,0,4,,,,,,,,3,,,,88,64
759600,note_off,240,0,1,,,,,,,,0,,,,76,64
759600,note_on,0,0,5,,,,,,,,4,,,,65,92
759840,note_off,240,0,5,,,,,,,,4,,,,65,64
759840,note_on,0,0,5,,,,,,,,4,,,,67,92
759840,note_on,0,0,1,,,,,,,,0,,,,79,92
759840,note_on,0,0,4,,,,,,,,3,,,,91,92
759840,note_off,240,0,4,,,,,,,,3,,,,89,64
759840,note_off,240,0,6,,,,,,,,5,,,,65,64
759840,note_on,0,0,6,,,,,,,,5,,,,67,92
759840,note_off,240,0,1,,,,,,,,0,,,,77,64
760000,note_off,400,0,7,,,,,,,,6,,,,46,64
760000,note_off,400,0,8,,,,,,,,7,,,,34,64
760080,note_on,80,0,8,,,,,,,,7,,,,33,92
760080,note_on,80,0,7,,,,,,,,6,,,,45,92
760080,note_on,0,0,6,,,,,,,,5,,,,69,92
760080,note_on,0,0,4,,,,,,,,3,,,,93,92
760080,note_off,240,0,4,,,,,,,,3,,,,91,64
760080,note_on,0,0,1,,,,,,,,0,,,,81,92
760080,note_off,240,0,1,,,,,,,,0,,,,79,64
760080,note_off,240,0,6,,,,,,,,5,,,,67,64
760080,note_on,8300,0,3,,,,,,,,2,,,,65,92
760080,note_on,1320,0,2,,,,,,,,1,,,,60,92
760080,note_off,240,0,5,,,,,,,,4,,,,67,64
760080,note_on,0,0,5,,,,,,,,4,,,,69,92
760080,note_on,0,0,5,,,,,,,,4,,,,77,92
760920,note_off,0,0,5,,,,,,,,4,,,,69,64
760920,note_off,840,0,7,,,,,,,,6,,,,45,64
760920,note_off,840,0,6,,,,,,,,5,,,,69,64
760920,note_off,840,0,4,,,,,,,,3,,,,93,64
760920,note_off,840,0,1,,,,,,,,0,,,,81,64
760920,note_off,840,0,2,,,,,,,,1,,,,60,64
760920,note_off,840,0,8,,,,,,,,7,,,,33,64
760920,note_off,840,0,5,,,,,,,,4,,,,77,64
760920,note_off,840,0,3,,,,,,,,2,,,,65,64
761040,note_on,120,0,6,,,,,,,,5,,,,67,92
761040,note_on,120,0,8,,,,,,,,7,,,,34,92
761040,note_on,120,0,2,,,,,,,,1,,,,58,92
761040,note_on,120,0,5,,,,,,,,4,,,,70,92
761040,note_on,0,0,5,,,,,,,,4,,,,79,92
761040,note_on,120,0,1,,,,,,,,0,,,,74,92
761040,note_on,120,0,7,,,,,,,,6,,,,46,92
761040,note_on,120,0,3,,,,,,,,2,,,,62,92
761040,note_on,120,0,4,,,,,,,,3,,,,91,92
761440,note_off,400,0,5,,,,,,,,4,,,,79,64
761440,note_off,0,0,5,,,,,,,,4,,,,70,64
761440,note_off,400,0,8,,,,,,,,7,,,,34,64
761440,note_off,400,0,1,,,,,,,,0,,,,74,64
761440,note_off,400,0,4,,,,,,,,3,,,,91,64
761440,note_off,400,0,7,,,,,,,,6,,,,46,64
761440,note_off,400,0,6,,,,,,,,5,,,,67,64
761440,note_off,400,0,3,,,,,,,,2,,,,62,64
761440,note_off,400,0,2,,,,,,,,1,,,,58,64
761520,note_on,80,0,4,,,,,,,,3,,,,89,92
761520,note_on,80,0,8,,,,,,,,7,,,,36,92
761520,set_tempo,21180,1,0,253164,,,,,,,,,,,,
761520,note_on,80,0,1,,,,,,,,0,,,,72,92
761520,note_on,80,0,3,,,,,,,,2,,,,60,92
761520,note_on,80,0,6,,,,,,,,5,,,,65,92
761520,note_on,80,0,2,,,,,,,,1,,,,57,92
761520,note_on,80,0,5,,,,,,,,4,,,,69,92
761520,note_on,0,0,5,,,,,,,,4,,,,77,92
761520,note_on,80,0,7,,,,,,,,6,,,,48,92
762025,note_off,0,0,5,,,,,,,,4,,,,69,64
762025,note_off,505,0,3,,,,,,,,2,,,,60,64
762025,note_off,505,0,6,,,,,,,,5,,,,65,64
762025,note_off,505,0,5,,,,,,,,4,,,,77,64
762025,note_off,505,0,7,,,,,,,,6,,,,48,64
762025,note_off,505,0,8,,,,,,,,7,,,,36,64
762025,note_off,505,0,2,,,,,,,,1,,,,57,64
762025,note_off,505,0,1,,,,,,,,0,,,,72,64
762025,note_off,505,0,4,,,,,,,,3,,,,89,64
762240,note_on,215,0,5,,,,,,,,4,,,,69,92
762240,note_on,0,0,5,,,,,,,,4,,,,77,92
762240,note_on,215,0,6,,,,,,,,5,,,,65,92
762240,note_on,215,0,2,,,,,,,,1,,,,57,92
762240,note_on,215,0,1,,,,,,,,0,,,,72,92
762240,set_tempo,720,1,0,265486,,,,,,,,,,,,
762240,note_on,215,0,8,,,,,,,,7,,,,36,92
762240,note_on,215,0,4,,,,,,,,3,,,,89,92
762240,note_on,215,0,7,,,,,,,,6,,,,48,92
762240,note_on,215,0,3,,,,,,,,2,,,,60,92
762320,note_off,80,0,6,,,,,,,,5,,,,65,64
762320,note_off,80,0,5,,,,,,,,4,,,,77,64
762320,note_off,80,0,3,,,,,,,,2,,,,60,64
762320,note_off,80,0,1,,,,,,,,0,,,,72,64
762320,note_off,80,0,2,,,,,,,,1,,,,57,64
762320,note_off,0,0,5,,,,,,,,4,,,,69,64
762320,note_off,80,0,4,,,,,,,,3,,,,89,64
762475,note_off,235,0,8,,,,,,,,7,,,,36,64
762475,note_off,235,0,7,,,,,,,,6,,,,48,64
762480,note_on,160,0,3,,,,,,,,2,,,,60,92
762480,note_on,160,0,5,,,,,,,,4,,,,67,92
762480,note_on,5,0,8,,,,,,,,7,,,,34,92
762480,note_on,0,0,5,,,,,,,,4,,,,76,92
762480,note_on,160,0,6,,,,,,,,5,,,,64,92
762480,note_on,160,0,2,,,,,,,,1,,,,55,92
762480,set_tempo,240,1,0,269058,,,,,,,,,,,,
762480,note_on,160,0,1,,,,,,,,0,,,,72,92
762480,note_on,5,0,7,,,,,,,,6,,,,46,92
762480,note_on,160,0,4,,,,,,,,3,,,,88,92
762880,note_off,400,0,7,,,,,,,,6,,,,46,64
762880,note_off,400,0,5,,,,,,,,4,,,,76,64
762880,note_off,400,0,4,,,,,,,,3,,,,88,64
762880,note_off,0,0,5,,,,,,,,4,,,,67,64
762880,note_off,400,0,1,,,,,,,,0,,,,72,64
762880,note_off,400,0,6,,,,,,,,5,,,,64,64
762880,note_off,400,0,8,,,,,,,,7,,,,34,64
762880,note_off,400,0,3,,,,,,,,2,,,,60,64
762880,note_off,400,0,2,,,,,,,,1,,,,55,64
762960,note_on,80,0,7,,,,,,,,6,,,,45,92
762960,note_on,80,0,5,,,,,,,,4,,,,72,92
762960,note_on,0,0,5,,,,,,,,4,,,,81,92
762960,note_on,80,0,3,,,,,,,,2,,,,65,92
762960,note_on,80,0,4,,,,,,,,3,,,,93,92
762960,note_on,80,0,8,,,,,,,,7,,,,33,92
762960,note_on,80,0,1,,,,,,,,0,,,,77,92
762960,note_on,80,0,6,,,,,,,,5,,,,69,92
762960,note_on,80,0,2,,,,,,,,1,,,,60,92
763920,note_off,960,0,4,,,,,,,,3,,,,93,64
763920,note_off,960,0,1,,,,,,,,0,,,,77,64
763920,note_on,0,0,7,,,,,,,,6,,,,46,92
763920,note_off,960,0,7,,,,,,,,6,,,,45,64
763920,note_off,960,0,2,,,,,,,,1,,,,60,64
763920,note_on,0,0,2,,,,,,,,1,,,,58,92
763920,note_on,0,0,4,,,,,,,,3,,,,91,92
763920,note_on,0,0,1,,,,,,,,0,,,,74,92
763920,note_on,0,0,5,,,,,,,,4,,,,79,92
763920,note_off,960,0,3,,,,,,,,2,,,,65,64
763920,note_on,0,0,3,,,,,,,,2,,,,62,92
763920,note_off,960,0,6,,,,,,,,5,,,,69,64
763920,note_on,0,0,5,,,,,,,,4,,,,70,92
763920,note_off,0,0,5,,,,,,,,4,,,,72,64
763920,note_off,960,0,5,,,,,,,,4,,,,81,64
763920,note_off,960,0,8,,,,,,,,7,,,,33,64
763920,note_on,0,0,6,,,,,,,,5,,,,67,92
763920,note_on,0,0,8,,,,,,,,7,,,,34,92
764400,note_on,0,0,6,,,,,,,,5,,,,65,92
764400,note_off,480,0,2,,,,,,,,1,,,,58,64
764400,note_on,0,0,7,,,,,,,,6,,,,48,92
764400,note_off,480,0,7,,,,,,,,6,,,,46,64
764400,note_on,0,0,3,,,,,,,,2,,,,60,92
764400,note_off,480,0,3,,,,,,,,2,,,,62,64
764400,note_on,0,0,2,,,,,,,,1,,,,57,92
764400,note_off,480,0,6,,,,,,,,5,,,,67,64
764400,note_on,0,0,5,,,,,,,,4,,,,77,92
764400,note_on,0,0,1,,,,,,,,0,,,,72,92
764400,note_off,480,0,8,,,,,,,,7,,,,34,64
764400,note_on,0,0,8,,,,,,,,7,,,,36,92
764400,note_off,480,0,4,,,,,,,,3,,,,91,64
764400,note_on,0,0,4,,,,,,,,3,,,,89,92
764400,note_off,480,0,1,,,,,,,,0,,,,74,64
764400,note_on,0,0,5,,,,,,,,4,,,,69,92
764400,note_off,480,0,5,,,,,,,,4,,,,79,64
764400,note_off,0,0,5,,,,,,,,4,,,,70,64
764905,note_off,505,0,1,,,,,,,,0,,,,72,64
764995,note_off,595,0,5,,,,,,,,4,,,,77,64
764995,note_off,595,0,6,,,,,,,,5,,,,65,64
764995,note_off,595,0,2,,,,,,,,1,,,,57,64
764995,note_off,0,0,5,,,,,,,,4,,,,69,64
764995,note_off,595,0,3,,,,,,,,2,,,,60,64
764995,note_off,595,0,4,,,,,,,,3,,,,89,64
765120,note_on,125,0,4,,,,,,,,3,,,,89,92
765120,note_on,125,0,5,,,,,,,,4,,,,69,92
765120,note_on,125,0,2,,,,,,,,1,,,,57,92
765120,note_on,0,0,5,,,,,,,,4,,,,77,92
765120,note_on,125,0,6,,,,,,,,5,,,,65,92
765120,note_on,215,0,1,,,,,,,,0,,,,72,92
765120,note_on,125,0,3,,,,,,,,2,,,,60,92
765240,note_off,840,0,7,,,,,,,,6,,,,48,64
765240,note_off,840,0,8,,,,,,,,7,,,,36,64
765360,note_on,120,0,7,,,,,,,,6,,,,46,92
765360,note_off,240,0,5,,,,,,,,4,,,,77,64
765360,note_off,0,0,5,,,,,,,,4,,,,69,64
765360,note_on,0,0,5,,,,,,,,4,,,,67,92
765360,note_on,0,0,5,,,,,,,,4,,,,76,92
765360,note_on,120,0,8,,,,,,,,7,,,,34,92
765360,note_off,240,0,2,,,,,,,,1,,,,57,64
765360,note_off,240,0,3,,,,,,,,2,,,,60,64
765360,note_on,0,0,3,,,,,,,,2,,,,60,92
765360,note_on,0,0,2,,,,,,,,1,,,,55,92
765360,note_on,0,0,4,,,,,,,,3,,,,88,92
765360,note_off,240,0,4,,,,,,,,3,,,,89,64
765360,note_off,240,0,1,,,,,,,,0,,,,72,64
765360,note_on,0,0,1,,,,,,,,0,,,,72,92
765360,note_off,240,0,6,,,,,,,,5,,,,65,64
765360,note_on,0,0,6,,,,,,,,5,,,,64,92
765760,note_off,400,0,4,,,,,,,,3,,,,88,64
765760,note_off,400,0,7,,,,,,,,6,,,,46,64
765760,note_off,400,0,1,,,,,,,,0,,,,72,64
765760,note_off,400,0,6,,,,,,,,5,,,,64,64
765760,note_off,400,0,5,,,,,,,,4,,,,76,64
765760,note_off,0,0,5,,,,,,,,4,,,,67,64
765760,note_off,400,0,8,,,,,,,,7,,,,34,64
765760,note_off,400,0,2,,,,,,,,1,,,,55,64
765760,note_off,400,0,3,,,,,,,,2,,,,60,64
765840,note_on,80,0,8,,,,,,,,7,,,,33,92
765840,note_on,80,0,6,,,,,,,,5,,,,66,92
765840,note_on,80,0,1,,,,,,,,0,,,,75,92
765840,note_on,80,0,2,,,,,,,,1,,,,63,92
765840,set_tempo,3360,1,0,277777,,,,,,,,,,,,
765840,note_on,80,0,5,,,,,,,,4,,,,78,92
765840,note_on,80,0,7,,,,,,,,6,,,,45,92
765840,note_on,0,0,4,,,,,,,,3,,,,84,92
765840,note_on,80,0,3,,,,,,,,2,,,,72,92
765840,note_on,80,0,4,,,,,,,,3,,,,75,92
769560,note_off,3720,0,5,,,,,,,,4,,,,78,64
769560,note_off,3720,0,7,,,,,,,,6,,,,45,64
769560,note_off,3720,0,8,,,,,,,,7,,,,33,64
769560,note_off,3720,0,2,,,,,,,,1,,,,63,64
769560,note_off,3720,0,6,,,,,,,,5,,,,66,64
769560,note_off,0,0,4,,,,,,,,3,,,,75,64
769560,note_off,3720,0,4,,,,,,,,3,,,,84,64
769560,note_off,3720,0,3,,,,,,,,2,,,,72,64
769680,note_on,120,0,8,,,,,,,,7,,,,34,92
769680,note_on,120,0,5,,,,,,,,4,,,,79,92
769680,note_on,120,0,2,,,,,,,,1,,,,62,92
769680,note_on,0,0,4,,,,,,,,3,,,,82,92
769680,note_on,120,0,4,,,,,,,,3,,,,74,92
769680,note_on,120,0,6,,,,,,,,5,,,,67,92
769680,note_on,120,0,7,,,,,,,,6,,,,46,92
769680,note_on,120,0,3,,,,,,,,2,,,,70,92
769680,set_tempo,3840,1,0,238095,,,,,,,,,,,,
769680,note_off,3840,0,1,,,,,,,,0,,,,75,64
769680,note_on,0,0,1,,,,,,,,0,,,,74,92
770080,note_off,400,0,3,,,,,,,,2,,,,70,64
770080,note_off,400,0,2,,,,,,,,1,,,,62,64
770080,note_off,400,0,5,,,,,,,,4,,,,79,64
770080,note_off,0,0,4,,,,,,,,3,,,,74,64
770080,note_off,400,0,4,,,,,,,,3,,,,82,64
770080,note_off,400,0,6,,,,,,,,5,,,,67,64
770080,note_off,400,0,8,,,,,,,,7,,,,34,64
770080,note_off,400,0,7,,,,,,,,6,,,,46,64
770160,note_on,80,0,5,,,,,,,,4,,,,69,92
770160,note_on,0,0,5,,,,,,,,4,,,,77,92
770160,note_on,0,0,6,,,,,,,,5,,,,65,92
770160,note_on,80,0,6,,,,,,,,5,,,,57,92
770160,note_on,80,0,7,,,,,,,,6,,,,48,92
770160,note_on,80,0,3,,,,,,,,2,,,,69,92
770160,note_on,0,0,4,,,,,,,,3,,,,81,92
770160,note_on,80,0,4,,,,,,,,3,,,,72,92
770160,note_off,480,0,1,,,,,,,,0,,,,74,64
770160,note_on,0,0,1,,,,,,,,0,,,,72,92
770160,note_on,80,0,8,,,,,,,,7,,,,36,92
770160,note_on,80,0,2,,,,,,,,1,,,,60,92
770755,note_off,0,0,4,,,,,,,,3,,,,72,64
770755,note_off,595,0,2,,,,,,,,1,,,,60,64
770755,note_off,595,0,8,,,,,,,,7,,,,36,64
770755,note_off,0,0,6,,,,,,,,5,,,,57,64
770755,note_off,595,0,1,,,,,,,,0,,,,72,64
770755,note_off,595,0,4,,,,,,,,3,,,,81,64
770755,note_off,595,0,6,,,,,,,,5,,,,65,64
770755,note_off,595,0,3,,,,,,,,2,,,,69,64
770755,note_off,595,0,5,,,,,,,,4,,,,77,64
770755,note_off,595,0,7,,,,,,,,6,,,,48,64
770755,note_off,0,0,5,,,,,,,,4,,,,69,64
770880,note_on,0,0,6,,,,,,,,5,,,,65,92
770880,note_on,0,0,4,,,,,,,,3,,,,81,92
770880,note_on,125,0,2,,,,,,,,1,,,,60,92
770880,note_on,125,0,6,,,,,,,,5,,,,57,92
770880,note_on,125,0,5,,,,,,,,4,,,,69,92
770880,note_on,0,0,5,,,,,,,,4,,,,77,92
770880,note_on,125,0,8,,,,,,,,7,,,,36,92
770880,note_on,125,0,7,,,,,,,,6,,,,48,92
770880,note_on,125,0,3,,,,,,,,2,,,,69,92
770880,note_on,125,0,1,,,,,,,,0,,,,72,92
770880,note_on,125,0,4,,,,,,,,3,,,,72,92
770960,note_off,80,0,1,,,,,,,,0,,,,72,64
771115,note_off,0,0,5,,,,,,,,4,,,,69,64
771115,note_off,0,0,4,,,,,,,,3,,,,72,64
771115,note_off,235,0,4,,,,,,,,3,,,,81,64
771115,note_off,235,0,7,,,,,,,,6,,,,48,64
771115,note_off,235,0,2,,,,,,,,1,,,,60,64
771115,note_off,0,0,6,,,,,,,,5,,,,57,64
771115,note_off,235,0,6,,,,,,,,5,,,,65,64
771115,note_off,235,0,8,,,,,,,,7,,,,36,64
771115,note_off,235,0,5,,,,,,,,4,,,,77,64
771115,note_off,235,0,3,,,,,,,,2,,,,69,64
771120,note_on,5,0,3,,,,,,,,2,,,,69,92
771120,note_on,0,0,4,,,,,,,,3,,,,81,92
771120,note_on,5,0,4,,,,,,,,3,,,,72,92
771120,note_on,5,0,7,,,,,,,,6,,,,48,92
771120,note_on,5,0,5,,,,,,,,4,,,,69,92
771120,note_on,160,0,1,,,,,,,,0,,,,72,92
771120,note_on,5,0,8,,,,,,,,7,,,,36,92
771120,note_on,0,0,5,,,,,,,,4,,,,77,92
771120,note_on,5,0,6,,,,,,,,5,,,,57,92
771120,note_on,5,0,2,,,,,,,,1,,,,60,92
771120,note_on,0,0,6,,,,,,,,5,,,,65,92
771520,note_off,400,0,2,,,,,,,,1,,,,60,64
771520,note_off,400,0,5,,,,,,,,4,,,,77,64
771520,note_off,0,0,5,,,,,,,,4,,,,69,64
771520,note_off,400,0,3,,,,,,,,2,,,,69,64
771520,note_off,400,0,7,,,,,,,,6,,,,48,64
771520,note_off,400,0,8,,,,,,,,7,,,,36,64
771520,note_off,400,0,1,,,,,,,,0,,,,72,64
771520,note_off,0,0,4,,,,,,,,3,,,,72,64
771520,note_off,400,0,4,,,,,,,,3,,,,81,64
771520,note_off,400,0,6,,,,,,,,5,,,,65,64
771520,note_off,0,0,6,,,,,,,,5,,,,57,64
771600,note_on,80,0,8,,,,,,,,7,,,,36,92
771600,note_on,80,0,6,,,,,,,,5,,,,58,92
771600,note_on,0,0,6,,,,,,,,5,,,,64,92
771600,note_on,80,0,7,,,,,,,,6,,,,48,92
771600,note_on,80,0,4,,,,,,,,3,,,,72,92
771600,note_on,80,0,1,,,,,,,,0,,,,76,92
771600,note_on,80,0,5,,,,,,,,4,,,,70,92
771600,note_on,0,0,5,,,,,,,,4,,,,76,92
771600,note_on,80,0,3,,,,,,,,2,,,,67,92
771600,note_on,0,0,4,,,,,,,,3,,,,79,92
771600,set_tempo,1920,1,0,245901,,,,,,,,,,,,
771600,note_on,80,0,2,,,,,,,,1,,,,60,92
772195,note_off,0,0,4,,,,,,,,3,,,,72,64
772195,note_off,595,0,5,,,,,,,,4,,,,76,64
772195,note_off,0,0,5,,,,,,,,4,,,,70,64
772195,note_off,595,0,6,,,,,,,,5,,,,64,64
772195,note_off,595,0,2,,,,,,,,1,,,,60,64
772195,note_off,0,0,6,,,,,,,,5,,,,58,64
772195,note_off,595,0,4,,,,,,,,3,,,,79,64
772195,note_off,595,0,3,,,,,,,,2,,,,67,64
772195,note_off,595,0,7,,,,,,,,6,,,,48,64
772195,note_off,595,0,1,,,,,,,,0,,,,76,64
772195,note_off,595,0,8,,,,,,,,7,,,,36,64
772320,note_on,125,0,3,,,,,,,,2,,,,67,92
772320,note_on,125,0,1,,,,,,,,0,,,,76,92
772320,note_on,125,0,7,,,,,,,,6,,,,48,92
772320,note_on,125,0,4,,,,,,,,3,,,,72,92
772320,note_on,0,0,6,,,,,,,,5,,,,64,92
772320,note_on,125,0,8,,,,,,,,7,,,,36,92
772320,note_on,125,0,5,,,,,,,,4,,,,70,92
772320,note_on,125,0,2,,,,,,,,1,,,,60,92
772320,note_on,0,0,5,,,,,,,,4,,,,76,92
772320,note_on,0,0,4,,,,,,,,3,,,,79,92
772320,note_on,125,0,6,,,,,,,,5,,,,58,92
772400,note_off,80,0,3,,,,,,,,2,,,,67,64
772400,note_off,80,0,2,,,,,,,,1,,,,60,64
772400,note_off,80,0,5,,,,,,,,4,,,,76,64
772400,note_off,0,0,5,,,,,,,,4,,,,70,64
772400,note_off,80,0,7,,,,,,,,6,,,,48,64
772400,note_off,80,0,1,,,,,,,,0,,,,76,64
772400,note_off,80,0,6,,,,,,,,5,,,,64,64
772400,note_off,0,0,4,,,,,,,,3,,,,72,64
772400,note_off,80,0,4,,,,,,,,3,,,,79,64
772400,note_off,0,0,6,,,,,,,,5,,,,58,64
772555,note_off,235,0,8,,,,,,,,7,,,,36,64
772560,note_on,160,0,3,,,,,,,,2,,,,67,92
772560,note_on,5,0,8,,,,,,,,7,,,,36,92
772560,note_on,160,0,2,,,,,,,,1,,,,60,92
772560,note_on,160,0,6,,,,,,,,5,,,,58,92
772560,note_on,0,0,5,,,,,,,,4,,,,76,92
772560,note_on,0,0,6,,,,,,,,5,,,,64,92
772560,note_on,0,0,4,,,,,,,,3,,,,79,92
772560,note_on,160,0,1,,,,,,,,0,,,,76,92
772560,note_on,160,0,7,,,,,,,,6,,,,48,92
772560,note_on,160,0,4,,,,,,,,3,,,,72,92
772560,note_on,160,0,5,,,,,,,,4,,,,70,92
772960,note_off,0,0,5,,,,,,,,4,,,,70,64
772960,note_off,400,0,5,,,,,,,,4,,,,76,64
772960,note_off,400,0,3,,,,,,,,2,,,,67,64
772960,note_off,400,0,1,,,,,,,,0,,,,76,64
772960,note_off,400,0,8,,,,,,,,7,,,,36,64
772960,note_off,400,0,6,,,,,,,,5,,,,64,64
772960,note_off,0,0,6,,,,,,,,5,,,,58,64
772960,note_off,400,0,7,,,,,,,,6,,,,48,64
772960,note_off,400,0,4,,,,,,,,3,,,,79,64
772960,note_off,0,0,4,,,,,,,,3,,,,72,64
772960,note_off,400,0,2,,,,,,,,1,,,,60,64
773040,note_on,80,0,2,,,,,,,,1,,,,57,92
773040,note_on,80,0,6,,,,,,,,5,,,,57,92
773040,note_on,80,0,7,,,,,,,,6,,,,53,92
773040,note_on,0,0,6,,,,,,,,5,,,,65,92
773040,note_on,80,0,4,,,,,,,,3,,,,69,92
773040,note_on,0,0,4,,,,,,,,3,,,,77,92
773040,note_on,80,0,3,,,,,,,,2,,,,65,92
773040,note_on,80,0,5,,,,,,,,4,,,,69,92
773040,set_tempo,1440,1,0,252100,,,,,,,,,,,,
773040,note_on,80,0,8,,,,,,,,7,,,,41,92
773040,note_on,80,0,1,,,,,,,,0,,,,77,92
773040,note_on,0,0,5,,,,,,,,4,,,,77,92
773440,note_off,400,0,4,,,,,,,,3,,,,77,64
773440,note_off,0,0,4,,,,,,,,3,,,,69,64
773440,note_off,400,0,8,,,,,,,,7,,,,41,64
773440,note_off,400,0,3,,,,,,,,2,,,,65,64
773440,note_off,0,0,6,,,,,,,,5,,,,57,64
773440,note_off,0,0,5,,,,,,,,4,,,,69,64
773440,note_off,400,0,7,,,,,,,,6,,,,53,64
773440,note_off,400,0,6,,,,,,,,5,,,,65,64
773440,note_off,400,0,5,,,,,,,,4,,,,77,64
773440,note_off,400,0,2,,,,,,,,1,,,,57,64
773440,note_off,400,0,1,,,,,,,,0,,,,77,64
774000,note_on,560,0,7,,,,,,,,6,,,,48,92
774000,note_on,560,0,6,,,,,,,,5,,,,60,92
774000,note_on,560,0,4,,,,,,,,3,,,,67,92
774000,note_on,0,0,4,,,,,,,,3,,,,72,92
774000,note_on,0,0,4,,,,,,,,3,,,,79,92
774000,set_tempo,960,1,0,266666,,,,,,,,,,,,
774000,end_of_track,0,1,0,,,,,,,,,,,,,
774000,note_on,560,0,1,,,,,,,,0,,,,79,92
774000,note_on,560,0,2,,,,,,,,1,,,,64,92
774000,note_on,560,0,3,,,,,,,,2,,,,60,92
774000,note_on,560,0,5,,,,,,,,4,,,,64,92
774000,note_on,560,0,8,,,,,,,,7,,,,36,92
774000,note_on,0,0,5,,,,,,,,4,,,,72,92
774000,note_on,0,0,5,,,,,,,,4,,,,79,92
774400,note_off,400,0,1,,,,,,,,0,,,,79,64
774400,note_off,400,0,7,,,,,,,,6,,,,48,64
774400,note_off,0,0,5,,,,,,,,4,,,,72,64
774400,note_off,400,0,6,,,,,,,,5,,,,60,64
774400,note_off,400,0,2,,,,,,,,1,,,,64,64
774400,note_off,0,0,5,,,,,,,,4,,,,64,64
774400,note_off,400,0,4,,,,,,,,3,,,,79,64
774400,note_off,400,0,5,,,,,,,,4,,,,79,64
774400,note_off,0,0,4,,,,,,,,3,,,,67,64
774400,note_off,400,0,8,,,,,,,,7,,,,36,64
774400,note_off,400,0,3,,,,,,,,2,,,,60,64
774400,note_off,0,0,4,,,,,,,,3,,,,72,64
774480,note_on,0,0,5,,,,,,,,4,,,,72,92
774480,note_on,80,0,1,,,,,,,,0,,,,81,92
774480,note_on,80,0,4,,,,,,,,3,,,,65,92
774480,note_on,80,0,2,,,,,,,,1,,,,65,92
774480,note_on,80,0,6,,,,,,,,5,,,,53,92
774480,note_on,80,0,3,,,,,,,,2,,,,65,92
774480,note_on,0,0,4,,,,,,,,3,,,,72,92
774480,note_on,0,0,4,,,,,,,,3,,,,81,92
774480,note_on,0,0,5,,,,,,,,4,,,,81,92
774480,note_on,80,0,8,,,,,,,,7,,,,29,92
774480,note_on,80,0,7,,,,,,,,6,,,,41,92
774480,note_on,80,0,5,,,,,,,,4,,,,65,92
774880,note_off,0,0,5,,,,,,,,4,,,,65,64
774880,end_of_track,0,1,1,,,,,,,,,,,,,
774880,note_off,0,0,5,,,,,,,,4,,,,72,64
774880,note_off,400,0,5,,,,,,,,4,,,,81,64
774880,note_off,400,0,8,,,,,,,,7,,,,29,64
774880,end_of_track,0,1,4,,,,,,,,,,,,,
774880,note_off,0,0,4,,,,,,,,3,,,,65,64
774880,note_off,0,0,4,,,,,,,,3,,,,72,64
774880,note_off,400,0,4,,,,,,,,3,,,,81,64
774880,note_off,400,0,1,,,,,,,,0,,,,81,64
774880,note_off,400,0,6,,,,,,,,5,,,,53,64
774880,end_of_track,0,1,5,,,,,,,,,,,,,
774880,end_of_track,0,1,3,,,,,,,,,,,,,
774880,note_off,400,0,3,,,,,,,,2,,,,65,64
774880,note_off,400,0,7,,,,,,,,6,,,,41,64
774880,end_of_track,0,1,7,,,,,,,,,,,,,
774880,end_of_track,0,1,2,,,,,,,,,,,,,
774880,note_off,400,0,2,,,,,,,,1,,,,65,64
774880,end_of_track,0,1,6,,,,,,,,,,,,,
774880,end_of_track,0,1,8,,,,,,,,,,,,,
