tick,type,time,meta,track,numerator,denominator,clocks_per_click,notated_32nd_notes_per_beat,key,tempo,port,program,channel,control,value,note,velocity
0,track_name,0,1,0,,,,,,,,,,,,,
0,note_on,0,0,1,,,,,,,,,0,,,61,49
0,control_change,0,0,1,,,,,,,,,0,10,97,,
0,control_change,0,0,1,,,,,,,,,0,7,127,,
0,program_change,0,0,1,,,,,,,,0,0,,,,
0,track_name,0,1,1,,,,,,,,,,,,,
0,midi_port,0,1,1,,,,,,,0,,,,,,
0,note_on,0,0,1,,,,,,,,,0,,,64,49
0,control_change,0,0,2,,,,,,,,,1,10,97,,
0,program_change,0,0,2,,,,,,,,0,1,,,,
0,track_name,0,1,2,,,,,,,,,,,,,
0,midi_port,0,1,2,,,,,,,0,,,,,,
0,midi_port,0,1,4,,,,,,,0,,,,,,
0,track_name,0,1,4,,,,,,,,,,,,,
0,program_change,0,0,4,,,,,,,,0,3,,,,
0,control_change,0,0,2,,,,,,,,,1,7,127,,
0,control_change,0,0,4,,,,,,,,,3,7,127,,
0,control_change,0,0,4,,,,,,,,,3,10,30,,
0,control_change,0,0,3,,,,,,,,,2,7,127,,
0,copyright,0,1,0,,,,,,,,,,,,,
0,text,0,1,0,,,,,,,,,,,,,
0,time_signature,0,1,0,3,8,12,8,,,,,,,,,
0,key_signature,0,1,0,,,,,A,,,,,,,,
0,set_tempo,0,1,0,,,,,,833333,,,,,,,
0,midi_port,0,1,3,,,,,,,0,,,,,,
0,track_name,0,1,3,,,,,,,,,,,,,
0,program_change,0,0,3,,,,,,,,0,2,,,,
0,note_on,0,0,3,,,,,,,,,2,,,52,36
0,control_change,0,0,3,,,,,,,,,2,10,30,,
0,note_on,0,0,3,,,,,,,,,2,,,45,36
60,note_on,60,0,1,,,,,,,,,0,,,64,0
60,note_on,0,0,1,,,,,,,,,0,,,61,0
60,note_on,60,0,3,,,,,,,,,2,,,52,0
60,note_on,0,0,1,,,,,,,,,0,,,66,75
60,note_on,0,0,3,,,,,,,,,2,,,54,62
60,note_on,0,0,1,,,,,,,,,0,,,62,67
120,note_on,0,0,3,,,,,,,,,2,,,51,36
120,note_on,60,0,3,,,,,,,,,2,,,54,0
120,note_on,60,0,1,,,,,,,,,0,,,66,0
120,note_on,0,0,1,,,,,,,,,0,,,62,0
120,note_on,0,0,1,,,,,,,,,0,,,60,49
120,note_on,0,0,1,,,,,,,,,0,,,63,49
120,note_on,0,0,3,,,,,,,,,2,,,45,0
120,note_on,0,0,3,,,,,,,,,2,,,45,36
126,note_on,0,0,1,,,,,,,,,0,,,60,0
126,note_on,0,0,3,,,,,,,,,2,,,45,0
126,note_on,6,0,3,,,,,,,,,2,,,51,0
126,note_on,6,0,1,,,,,,,,,0,,,63,0
180,note_on,54,0,1,,,,,,,,,0,,,61,67
180,note_on,0,0,3,,,,,,,,,2,,,52,62
180,note_on,54,0,3,,,,,,,,,2,,,45,54
180,note_on,0,0,1,,,,,,,,,0,,,64,75
180,time_signature,180,1,0,3,4,24,8,,,,,,,,,
360,note_on,0,0,1,,,,,,,,,0,,,69,49
360,note_on,360,0,2,,,,,,,,,1,,,61,36
360,note_on,180,0,1,,,,,,,,,0,,,64,0
360,note_on,0,0,1,,,,,,,,,0,,,61,0
360,note_on,180,0,3,,,,,,,,,2,,,52,0
360,note_on,0,0,2,,,,,,,,,1,,,64,36
360,note_on,0,0,3,,,,,,,,,2,,,45,36
360,note_on,0,0,3,,,,,,,,,2,,,52,36
360,note_on,0,0,3,,,,,,,,,2,,,57,36
360,note_on,0,0,3,,,,,,,,,2,,,45,0
420,note_on,0,0,1,,,,,,,,,0,,,71,75
420,note_on,60,0,1,,,,,,,,,0,,,69,0
420,note_on,60,0,3,,,,,,,,,2,,,57,0
420,note_on,0,0,3,,,,,,,,,2,,,59,36
480,note_on,0,0,2,,,,,,,,,1,,,65,36
480,note_on,120,0,2,,,,,,,,,1,,,64,0
480,note_on,60,0,1,,,,,,,,,0,,,71,0
480,note_on,60,0,3,,,,,,,,,2,,,59,0
480,note_on,0,0,2,,,,,,,,,1,,,61,36
480,note_on,0,0,2,,,,,,,,,1,,,61,0
480,note_on,0,0,1,,,,,,,,,0,,,73,49
480,note_on,0,0,3,,,,,,,,,2,,,57,36
480,note_on,0,0,3,,,,,,,,,2,,,52,0
480,note_on,0,0,3,,,,,,,,,2,,,53,36
480,note_on,0,0,3,,,,,,,,,2,,,45,36
480,note_on,0,0,3,,,,,,,,,2,,,45,0
486,note_on,6,0,3,,,,,,,,,2,,,57,0
486,note_on,6,0,2,,,,,,,,,1,,,65,0
486,note_on,6,0,1,,,,,,,,,0,,,73,0
486,note_on,0,0,2,,,,,,,,,1,,,61,0
486,note_on,0,0,3,,,,,,,,,2,,,45,0
486,note_on,0,0,3,,,,,,,,,2,,,53,0
540,note_on,0,0,3,,,,,,,,,2,,,58,36
540,note_on,54,0,3,,,,,,,,,2,,,50,36
540,note_on,0,0,1,,,,,,,,,0,,,73,75
540,note_on,0,0,1,,,,,,,,,0,,,66,70
540,note_on,0,0,3,,,,,,,,,2,,,54,36
540,note_on,54,0,1,,,,,,,,,0,,,62,65
660,note_on,120,0,3,,,,,,,,,2,,,58,0
660,note_on,0,0,1,,,,,,,,,0,,,71,49
660,note_on,120,0,1,,,,,,,,,0,,,73,0
660,note_on,0,0,3,,,,,,,,,2,,,59,36
660,note_on,0,0,3,,,,,,,,,2,,,50,0
660,note_on,0,0,3,,,,,,,,,2,,,50,36
660,note_on,0,0,3,,,,,,,,,2,,,54,36
660,note_on,0,0,3,,,,,,,,,2,,,54,0
720,note_on,0,0,1,,,,,,,,,0,,,69,49
720,note_on,0,0,1,,,,,,,,,0,,,62,49
720,note_on,60,0,1,,,,,,,,,0,,,71,0
720,note_on,0,0,1,,,,,,,,,0,,,66,0
720,note_on,0,0,3,,,,,,,,,2,,,54,36
720,note_on,0,0,3,,,,,,,,,2,,,50,36
720,note_on,0,0,1,,,,,,,,,0,,,62,0
720,note_on,0,0,3,,,,,,,,,2,,,54,0
720,note_on,60,0,3,,,,,,,,,2,,,59,0
720,note_on,0,0,3,,,,,,,,,2,,,50,0
780,note_on,0,0,3,,,,,,,,,2,,,52,36
780,note_on,0,0,1,,,,,,,,,0,,,68,75
780,note_on,60,0,1,,,,,,,,,0,,,69,0
780,note_on,60,0,3,,,,,,,,,2,,,54,0
780,note_on,0,0,3,,,,,,,,,2,,,50,0
780,note_on,0,0,3,,,,,,,,,2,,,56,36
840,note_on,0,0,1,,,,,,,,,0,,,62,49
840,note_on,0,0,1,,,,,,,,,0,,,62,0
840,note_on,60,0,1,,,,,,,,,0,,,68,0
840,note_on,0,0,3,,,,,,,,,2,,,57,36
840,note_on,0,0,3,,,,,,,,,2,,,54,36
840,note_on,0,0,3,,,,,,,,,2,,,52,0
840,note_on,60,0,3,,,,,,,,,2,,,56,0
840,note_on,0,0,1,,,,,,,,,0,,,66,49
846,note_on,0,0,1,,,,,,,,,0,,,62,0
846,note_on,6,0,3,,,,,,,,,2,,,57,0
846,note_on,0,0,3,,,,,,,,,2,,,54,0
846,note_on,6,0,1,,,,,,,,,0,,,66,0
900,note_on,54,0,3,,,,,,,,,2,,,44,36
900,note_on,0,0,3,,,,,,,,,2,,,52,36
900,note_on,54,0,1,,,,,,,,,0,,,62,49
900,note_on,0,0,1,,,,,,,,,0,,,64,49
1080,note_on,0,0,3,,,,,,,,,2,,,44,36
1080,note_on,0,0,3,,,,,,,,,2,,,44,0
1080,note_on,180,0,3,,,,,,,,,2,,,52,0
1080,note_on,0,0,1,,,,,,,,,0,,,62,0
1080,note_on,0,0,1,,,,,,,,,0,,,62,49
1080,note_on,0,0,1,,,,,,,,,0,,,64,49
1080,note_on,0,0,3,,,,,,,,,2,,,52,36
1080,note_on,180,0,1,,,,,,,,,0,,,64,0
1095,note_on,15,0,1,,,,,,,,,0,,,64,49
1110,note_on,0,0,1,,,,,,,,,0,,,66,49
1110,note_on,15,0,1,,,,,,,,,0,,,64,0
1125,note_on,0,0,1,,,,,,,,,0,,,68,49
1125,note_on,15,0,1,,,,,,,,,0,,,66,0
1140,note_on,60,0,3,,,,,,,,,2,,,52,0
1140,note_on,0,0,3,,,,,,,,,2,,,44,36
1140,note_on,0,0,3,,,,,,,,,2,,,54,36
1140,note_on,0,0,3,,,,,,,,,2,,,44,0
1140,note_on,0,0,1,,,,,,,,,0,,,62,0
1140,note_on,15,0,1,,,,,,,,,0,,,68,0
1140,note_on,0,0,1,,,,,,,,,0,,,62,67
1140,note_on,0,0,1,,,,,,,,,0,,,66,75
1140,note_on,0,0,1,,,,,,,,,0,,,64,0
1200,note_on,60,0,3,,,,,,,,,2,,,54,0
1200,note_on,0,0,3,,,,,,,,,2,,,44,0
1200,note_on,0,0,3,,,,,,,,,2,,,44,36
1200,note_on,0,0,3,,,,,,,,,2,,,52,36
1200,note_on,60,0,1,,,,,,,,,0,,,66,0
1200,note_on,0,0,1,,,,,,,,,0,,,64,49
1200,note_on,0,0,1,,,,,,,,,0,,,62,49
1200,note_on,0,0,1,,,,,,,,,0,,,62,0
1206,note_on,6,0,3,,,,,,,,,2,,,52,0
1206,note_on,0,0,3,,,,,,,,,2,,,44,0
1206,note_on,0,0,1,,,,,,,,,0,,,62,0
1206,note_on,6,0,1,,,,,,,,,0,,,64,0
1260,note_on,0,0,3,,,,,,,,,2,,,54,62
1260,note_on,54,0,1,,,,,,,,,0,,,62,67
1260,note_on,0,0,1,,,,,,,,,0,,,66,75
1260,note_on,54,0,3,,,,,,,,,2,,,45,54
1380,note_on,0,0,3,,,,,,,,,2,,,52,62
1380,note_on,120,0,3,,,,,,,,,2,,,54,0
1380,note_on,0,0,1,,,,,,,,,0,,,62,0
1380,note_on,0,0,1,,,,,,,,,0,,,61,75
1380,note_on,0,0,1,,,,,,,,,0,,,64,75
1380,note_on,120,0,1,,,,,,,,,0,,,66,0
1440,note_on,60,0,3,,,,,,,,,2,,,52,0
1440,note_on,60,0,1,,,,,,,,,0,,,64,0
1440,note_on,0,0,1,,,,,,,,,0,,,61,0
1440,note_on,0,0,1,,,,,,,,,0,,,57,75
1440,note_on,0,0,1,,,,,,,,,0,,,61,75
1440,note_on,0,0,3,,,,,,,,,2,,,45,0
1440,note_on,0,0,3,,,,,,,,,2,,,45,62
1440,note_on,0,0,3,,,,,,,,,2,,,49,62
1500,note_on,0,0,1,,,,,,,,,0,,,62,75
1500,note_on,0,0,1,,,,,,,,,0,,,66,75
1500,note_on,0,0,1,,,,,,,,,0,,,57,0
1500,note_on,60,0,1,,,,,,,,,0,,,61,0
1500,note_on,60,0,3,,,,,,,,,2,,,49,0
1500,note_on,0,0,3,,,,,,,,,2,,,54,62
1560,note_on,0,0,1,,,,,,,,,0,,,62,0
1560,note_on,60,0,3,,,,,,,,,2,,,54,0
1560,note_on,0,0,3,,,,,,,,,2,,,45,0
1560,note_on,0,0,1,,,,,,,,,0,,,63,75
1560,note_on,0,0,3,,,,,,,,,2,,,51,62
1560,note_on,60,0,1,,,,,,,,,0,,,66,0
1560,note_on,0,0,3,,,,,,,,,2,,,45,62
1560,note_on,0,0,1,,,,,,,,,0,,,60,75
1566,note_on,6,0,1,,,,,,,,,0,,,63,0
1566,note_on,0,0,1,,,,,,,,,0,,,60,0
1566,note_on,6,0,3,,,,,,,,,2,,,51,0
1566,note_on,0,0,3,,,,,,,,,2,,,45,0
1620,note_on,0,0,3,,,,,,,,,2,,,52,62
1620,note_on,0,0,3,,,,,,,,,2,,,45,62
1620,control_change,54,0,3,,,,,,,,,2,64,127,,
1620,control_change,54,0,1,,,,,,,,,0,64,127,,
1620,note_on,0,0,1,,,,,,,,,0,,,61,93
1620,note_on,0,0,1,,,,,,,,,0,,,64,101
1800,note_on,180,0,1,,,,,,,,,0,,,64,0
1800,note_on,0,0,1,,,,,,,,,0,,,69,75
1800,note_on,0,0,1,,,,,,,,,0,,,64,75
1800,note_on,180,0,3,,,,,,,,,2,,,52,0
1800,note_on,0,0,3,,,,,,,,,2,,,45,0
1800,note_on,0,0,3,,,,,,,,,2,,,61,62
1800,note_on,0,0,1,,,,,,,,,0,,,61,0
1860,note_on,60,0,1,,,,,,,,,0,,,73,75
1860,note_on,60,0,3,,,,,,,,,2,,,61,0
1860,note_on,0,0,3,,,,,,,,,2,,,57,62
1920,note_on,60,0,3,,,,,,,,,2,,,57,0
1920,control_change,0,0,3,,,,,,,,,2,64,0,,
1920,note_on,0,0,3,,,,,,,,,2,,,45,62
1920,note_on,0,0,3,,,,,,,,,2,,,52,62
1920,control_change,0,0,1,,,,,,,,,0,64,0,,
1920,note_on,0,0,1,,,,,,,,,0,,,76,75
1920,note_on,0,0,1,,,,,,,,,0,,,73,75
1920,note_on,0,0,1,,,,,,,,,0,,,69,75
1920,note_on,0,0,1,,,,,,,,,0,,,64,0
1920,note_on,0,0,1,,,,,,,,,0,,,69,0
1920,note_on,60,0,1,,,,,,,,,0,,,73,0
1920,note_on,0,0,1,,,,,,,,,0,,,64,75
1926,note_on,6,0,1,,,,,,,,,0,,,76,0
1926,note_on,0,0,1,,,,,,,,,0,,,64,0
1926,note_on,0,0,1,,,,,,,,,0,,,69,0
1926,note_on,0,0,1,,,,,,,,,0,,,73,0
1980,note_on,60,0,3,,,,,,,,,2,,,52,0
1980,note_on,0,0,1,,,,,,,,,0,,,68,88
1980,note_on,0,0,1,,,,,,,,,0,,,73,88
1980,note_on,0,0,1,,,,,,,,,0,,,76,88
1980,note_on,0,0,3,,,,,,,,,2,,,45,0
1980,note_on,0,0,3,,,,,,,,,2,,,44,75
1980,note_on,0,0,3,,,,,,,,,2,,,52,75
1980,note_on,0,0,3,,,,,,,,,2,,,56,75
1980,note_on,54,0,1,,,,,,,,,0,,,64,88
2160,note_on,0,0,1,,,,,,,,,0,,,68,0
2160,note_on,180,0,1,,,,,,,,,0,,,76,0
2160,note_on,0,0,1,,,,,,,,,0,,,64,0
2160,note_on,0,0,1,,,,,,,,,0,,,73,0
2160,note_on,0,0,1,,,,,,,,,0,,,68,49
2160,note_on,180,0,3,,,,,,,,,2,,,56,0
2160,note_on,0,0,1,,,,,,,,,0,,,76,49
2160,note_on,0,0,3,,,,,,,,,2,,,44,0
2160,note_on,0,0,1,,,,,,,,,0,,,64,49
2160,note_on,0,0,3,,,,,,,,,2,,,61,36
2160,note_on,0,0,3,,,,,,,,,2,,,52,0
2160,note_on,0,0,3,,,,,,,,,2,,,56,36
2220,note_on,60,0,1,,,,,,,,,0,,,76,0
2220,note_on,0,0,1,,,,,,,,,0,,,64,0
2220,note_on,60,0,3,,,,,,,,,2,,,61,0
2220,note_on,0,0,3,,,,,,,,,2,,,60,62
2220,note_on,0,0,1,,,,,,,,,0,,,66,65
2220,note_on,0,0,1,,,,,,,,,0,,,75,75
2280,note_on,60,0,1,,,,,,,,,0,,,75,0
2280,note_on,0,0,1,,,,,,,,,0,,,68,0
2280,note_on,0,0,1,,,,,,,,,0,,,68,49
2280,note_on,0,0,1,,,,,,,,,0,,,66,0
2280,note_on,60,0,3,,,,,,,,,2,,,60,0
2280,note_on,0,0,3,,,,,,,,,2,,,56,0
2280,note_on,0,0,3,,,,,,,,,2,,,56,36
2280,note_on,0,0,3,,,,,,,,,2,,,63,36
2280,note_on,0,0,1,,,,,,,,,0,,,66,49
2286,note_on,6,0,1,,,,,,,,,0,,,68,0
2286,note_on,0,0,1,,,,,,,,,0,,,66,0
2286,note_on,6,0,3,,,,,,,,,2,,,63,0
2286,note_on,0,0,3,,,,,,,,,2,,,56,0
2340,note_on,54,0,3,,,,,,,,,2,,,49,36
2340,note_on,0,0,3,,,,,,,,,2,,,56,36
2340,note_on,0,0,3,,,,,,,,,2,,,61,36
2340,note_on,0,0,1,,,,,,,,,0,,,73,49
2340,note_on,0,0,1,,,,,,,,,0,,,68,49
2340,note_on,54,0,1,,,,,,,,,0,,,64,49
2520,note_on,0,0,1,,,,,,,,,0,,,73,49
2520,note_on,180,0,1,,,,,,,,,0,,,73,0
2520,note_on,0,0,1,,,,,,,,,0,,,68,0
2520,note_on,0,0,1,,,,,,,,,0,,,64,0
2520,note_on,0,0,1,,,,,,,,,0,,,61,49
2520,note_on,0,0,3,,,,,,,,,2,,,57,36
2520,note_on,0,0,3,,,,,,,,,2,,,52,36
2520,note_on,0,0,1,,,,,,,,,0,,,64,49
2520,note_on,0,0,3,,,,,,,,,2,,,56,0
2520,note_on,180,0,3,,,,,,,,,2,,,61,0
2520,note_on,0,0,3,,,,,,,,,2,,,49,0
2580,note_on,60,0,1,,,,,,,,,0,,,73,0
2580,note_on,0,0,1,,,,,,,,,0,,,61,0
2580,note_on,0,0,1,,,,,,,,,0,,,62,65
2580,note_on,0,0,1,,,,,,,,,0,,,71,75
2580,note_on,60,0,3,,,,,,,,,2,,,57,0
2580,note_on,0,0,3,,,,,,,,,2,,,56,62
2640,note_on,0,0,3,,,,,,,,,2,,,52,0
2640,note_on,0,0,1,,,,,,,,,0,,,64,0
2640,note_on,0,0,1,,,,,,,,,0,,,62,49
2640,note_on,0,0,1,,,,,,,,,0,,,64,49
2640,note_on,0,0,3,,,,,,,,,2,,,52,36
2640,note_on,0,0,1,,,,,,,,,0,,,62,0
2640,note_on,0,0,3,,,,,,,,,2,,,59,36
2640,note_on,60,0,3,,,,,,,,,2,,,56,0
2640,note_on,60,0,1,,,,,,,,,0,,,71,0
2646,note_on,6,0,1,,,,,,,,,0,,,64,0
2646,note_on,6,0,3,,,,,,,,,2,,,59,0
2646,note_on,0,0,3,,,,,,,,,2,,,52,0
2646,note_on,0,0,1,,,,,,,,,0,,,62,0
2700,time_signature,2520,1,0,3,8,12,8,,,,,,,,,
2700,note_on,54,0,1,,,,,,,,,0,,,61,49
2700,note_on,0,0,1,,,,,,,,,0,,,69,49
2700,note_on,54,0,3,,,,,,,,,2,,,45,36
2700,note_on,0,0,3,,,,,,,,,2,,,52,36
2700,note_on,0,0,3,,,,,,,,,2,,,57,36
2820,note_on,0,0,3,,,,,,,,,2,,,52,0
2820,note_on,120,0,1,,,,,,,,,0,,,69,0
2820,note_on,120,0,3,,,,,,,,,2,,,57,0
2820,note_on,0,0,1,,,,,,,,,0,,,61,0
2820,note_on,0,0,3,,,,,,,,,2,,,45,0
2880,note_on,0,0,1,,,,,,,,,0,,,64,49
2880,note_on,60,0,1,,,,,,,,,0,,,61,49
2880,note_on,60,0,3,,,,,,,,,2,,,45,36
2880,note_on,0,0,3,,,,,,,,,2,,,52,36
2940,note_on,0,0,3,,,,,,,,,2,,,54,62
2940,note_on,0,0,1,,,,,,,,,0,,,66,75
2940,note_on,60,0,1,,,,,,,,,0,,,64,0
2940,note_on,0,0,1,,,,,,,,,0,,,61,0
2940,note_on,0,0,1,,,,,,,,,0,,,62,67
2940,note_on,60,0,3,,,,,,,,,2,,,52,0
3000,note_on,0,0,1,,,,,,,,,0,,,60,49
3000,note_on,0,0,1,,,,,,,,,0,,,62,0
3000,note_on,0,0,1,,,,,,,,,0,,,63,49
3000,note_on,60,0,3,,,,,,,,,2,,,54,0
3000,note_on,0,0,3,,,,,,,,,2,,,51,36
3000,note_on,0,0,3,,,,,,,,,2,,,45,36
3000,note_on,0,0,3,,,,,,,,,2,,,45,0
3000,note_on,60,0,1,,,,,,,,,0,,,66,0
3006,note_on,0,0,1,,,,,,,,,0,,,60,0
3006,note_on,6,0,3,,,,,,,,,2,,,51,0
3006,note_on,0,0,3,,,,,,,,,2,,,45,0
3006,note_on,6,0,1,,,,,,,,,0,,,63,0
3060,note_on,0,0,3,,,,,,,,,2,,,52,62
3060,time_signature,360,1,0,3,4,24,8,,,,,,,,,
3060,note_on,54,0,3,,,,,,,,,2,,,45,54
3060,note_on,54,0,1,,,,,,,,,0,,,61,67
3060,note_on,0,0,1,,,,,,,,,0,,,64,75
3240,note_on,0,0,2,,,,,,,,,1,,,64,36
3240,note_on,2754,0,2,,,,,,,,,1,,,61,36
3240,note_on,0,0,1,,,,,,,,,0,,,69,49
3240,note_on,0,0,1,,,,,,,,,0,,,61,0
3240,note_on,180,0,1,,,,,,,,,0,,,64,0
3240,note_on,180,0,3,,,,,,,,,2,,,52,0
3240,note_on,0,0,3,,,,,,,,,2,,,52,36
3240,note_on,0,0,3,,,,,,,,,2,,,45,0
3240,note_on,0,0,3,,,,,,,,,2,,,45,36
3240,note_on,0,0,3,,,,,,,,,2,,,57,36
3300,note_on,0,0,1,,,,,,,,,0,,,71,75
3300,note_on,60,0,1,,,,,,,,,0,,,69,0
3300,note_on,0,0,3,,,,,,,,,2,,,59,36
3300,note_on,60,0,3,,,,,,,,,2,,,57,0
3360,note_on,120,0,2,,,,,,,,,1,,,64,0
3360,note_on,0,0,2,,,,,,,,,1,,,61,0
3360,note_on,0,0,3,,,,,,,,,2,,,45,36
3360,note_on,0,0,2,,,,,,,,,1,,,61,36
3360,note_on,0,0,2,,,,,,,,,1,,,65,36
3360,note_on,0,0,3,,,,,,,,,2,,,53,36
3360,note_on,60,0,3,,,,,,,,,2,,,59,0
3360,note_on,0,0,1,,,,,,,,,0,,,73,49
3360,note_on,0,0,3,,,,,,,,,2,,,57,36
3360,note_on,60,0,1,,,,,,,,,0,,,71,0
3360,note_on,0,0,3,,,,,,,,,2,,,45,0
3360,note_on,0,0,3,,,,,,,,,2,,,52,0
3366,note_on,6,0,1,,,,,,,,,0,,,73,0
3366,note_on,0,0,3,,,,,,,,,2,,,53,0
3366,note_on,0,0,2,,,,,,,,,1,,,61,0
3366,note_on,6,0,3,,,,,,,,,2,,,57,0
3366,note_on,0,0,3,,,,,,,,,2,,,45,0
3366,note_on,6,0,2,,,,,,,,,1,,,65,0
3420,note_on,54,0,1,,,,,,,,,0,,,62,65
3420,note_on,0,0,1,,,,,,,,,0,,,66,70
3420,note_on,0,0,3,,,,,,,,,2,,,58,36
3420,note_on,0,0,3,,,,,,,,,2,,,54,36
3420,note_on,54,0,3,,,,,,,,,2,,,50,36
3420,note_on,0,0,1,,,,,,,,,0,,,73,75
3540,note_on,0,0,3,,,,,,,,,2,,,54,36
3540,note_on,0,0,3,,,,,,,,,2,,,50,36
3540,note_on,0,0,3,,,,,,,,,2,,,59,36
3540,note_on,120,0,1,,,,,,,,,0,,,73,0
3540,note_on,120,0,3,,,,,,,,,2,,,58,0
3540,note_on,0,0,3,,,,,,,,,2,,,54,0
3540,note_on,0,0,3,,,,,,,,,2,,,50,0
3540,note_on,0,0,1,,,,,,,,,0,,,71,49
3600,note_on,60,0,1,,,,,,,,,0,,,71,0
3600,note_on,0,0,1,,,,,,,,,0,,,66,0
3600,note_on,0,0,1,,,,,,,,,0,,,62,0
3600,note_on,0,0,1,,,,,,,,,0,,,62,49
3600,note_on,0,0,1,,,,,,,,,0,,,69,49
3600,note_on,60,0,3,,,,,,,,,2,,,59,0
3600,note_on,0,0,3,,,,,,,,,2,,,54,0
3600,note_on,0,0,3,,,,,,,,,2,,,50,0
3600,note_on,0,0,3,,,,,,,,,2,,,50,36
3600,note_on,0,0,3,,,,,,,,,2,,,54,36
3660,note_on,0,0,1,,,,,,,,,0,,,68,75
3660,note_on,60,0,3,,,,,,,,,2,,,54,0
3660,note_on,0,0,3,,,,,,,,,2,,,52,36
3660,note_on,0,0,3,,,,,,,,,2,,,56,36
3660,note_on,60,0,1,,,,,,,,,0,,,69,0
3660,note_on,0,0,3,,,,,,,,,2,,,50,0
3720,note_on,60,0,3,,,,,,,,,2,,,56,0
3720,note_on,0,0,3,,,,,,,,,2,,,52,0
3720,note_on,0,0,3,,,,,,,,,2,,,54,36
3720,note_on,0,0,3,,,,,,,,,2,,,57,36
3720,note_on,0,0,1,,,,,,,,,0,,,62,0
3720,note_on,0,0,1,,,,,,,,,0,,,62,49
3720,note_on,0,0,1,,,,,,,,,0,,,66,49
3720,note_on,60,0,1,,,,,,,,,0,,,68,0
3726,note_on,6,0,3,,,,,,,,,2,,,57,0
3726,note_on,0,0,3,,,,,,,,,2,,,54,0
3726,note_on,6,0,1,,,,,,,,,0,,,66,0
3726,note_on,0,0,1,,,,,,,,,0,,,62,0
3780,note_on,54,0,3,,,,,,,,,2,,,44,36
3780,note_on,0,0,3,,,,,,,,,2,,,52,36
3780,note_on,0,0,1,,,,,,,,,0,,,64,49
3780,note_on,54,0,1,,,,,,,,,0,,,62,49
3960,note_on,180,0,3,,,,,,,,,2,,,52,0
3960,note_on,0,0,3,,,,,,,,,2,,,44,0
3960,note_on,0,0,3,,,,,,,,,2,,,44,36
3960,note_on,0,0,3,,,,,,,,,2,,,52,36
3960,note_on,0,0,1,,,,,,,,,0,,,64,49
3960,note_on,0,0,1,,,,,,,,,0,,,62,49
3960,note_on,0,0,1,,,,,,,,,0,,,62,0
3960,note_on,180,0,1,,,,,,,,,0,,,64,0
3975,note_on,15,0,1,,,,,,,,,0,,,64,49
3990,note_on,0,0,1,,,,,,,,,0,,,66,49
3990,note_on,15,0,1,,,,,,,,,0,,,64,0
4005,note_on,0,0,1,,,,,,,,,0,,,68,49
4005,note_on,15,0,1,,,,,,,,,0,,,66,0
4020,note_on,0,0,3,,,,,,,,,2,,,44,0
4020,note_on,15,0,1,,,,,,,,,0,,,68,0
4020,note_on,0,0,3,,,,,,,,,2,,,44,36
4020,note_on,0,0,3,,,,,,,,,2,,,54,36
4020,note_on,0,0,1,,,,,,,,,0,,,64,0
4020,note_on,0,0,1,,,,,,,,,0,,,66,75
4020,note_on,0,0,1,,,,,,,,,0,,,62,67
4020,note_on,60,0,3,,,,,,,,,2,,,52,0
4020,note_on,0,0,1,,,,,,,,,0,,,62,0
4080,note_on,60,0,1,,,,,,,,,0,,,66,0
4080,note_on,0,0,1,,,,,,,,,0,,,62,49
4080,note_on,0,0,1,,,,,,,,,0,,,64,49
4080,note_on,0,0,3,,,,,,,,,2,,,52,36
4080,note_on,0,0,3,,,,,,,,,2,,,44,36
4080,note_on,0,0,3,,,,,,,,,2,,,44,0
4080,note_on,60,0,3,,,,,,,,,2,,,54,0
4080,note_on,0,0,1,,,,,,,,,0,,,62,0
4086,note_on,0,0,3,,,,,,,,,2,,,44,0
4086,note_on,6,0,1,,,,,,,,,0,,,64,0
4086,note_on,6,0,3,,,,,,,,,2,,,52,0
4086,note_on,0,0,1,,,,,,,,,0,,,62,0
4140,note_on,54,0,1,,,,,,,,,0,,,62,67
4140,note_on,0,0,1,,,,,,,,,0,,,66,75
4140,note_on,54,0,3,,,,,,,,,2,,,45,54
4140,note_on,0,0,3,,,,,,,,,2,,,54,62
4260,note_on,0,0,1,,,,,,,,,0,,,64,75
4260,note_on,0,0,1,,,,,,,,,0,,,61,75
4260,note_on,0,0,1,,,,,,,,,0,,,62,0
4260,note_on,120,0,1,,,,,,,,,0,,,66,0
4260,note_on,0,0,3,,,,,,,,,2,,,52,62
4260,note_on,120,0,3,,,,,,,,,2,,,54,0
4320,note_on,0,0,3,,,,,,,,,2,,,45,62
4320,note_on,0,0,3,,,,,,,,,2,,,45,0
4320,note_on,60,0,3,,,,,,,,,2,,,52,0
4320,note_on,0,0,1,,,,,,,,,0,,,61,75
4320,note_on,0,0,1,,,,,,,,,0,,,57,75
4320,note_on,0,0,1,,,,,,,,,0,,,61,0
4320,note_on,0,0,3,,,,,,,,,2,,,49,62
4320,note_on,60,0,1,,,,,,,,,0,,,64,0
4380,note_on,0,0,1,,,,,,,,,0,,,57,0
4380,note_on,60,0,1,,,,,,,,,0,,,61,0
4380,note_on,0,0,1,,,,,,,,,0,,,66,75
4380,note_on,0,0,3,,,,,,,,,2,,,54,62
4380,note_on,0,0,1,,,,,,,,,0,,,62,75
4380,note_on,60,0,3,,,,,,,,,2,,,49,0
4440,note_on,0,0,1,,,,,,,,,0,,,60,75
4440,note_on,0,0,1,,,,,,,,,0,,,63,75
4440,note_on,0,0,1,,,,,,,,,0,,,62,0
4440,note_on,0,0,3,,,,,,,,,2,,,51,62
4440,note_on,60,0,3,,,,,,,,,2,,,54,0
4440,note_on,0,0,3,,,,,,,,,2,,,45,0
4440,note_on,0,0,3,,,,,,,,,2,,,45,62
4440,note_on,60,0,1,,,,,,,,,0,,,66,0
4446,note_on,6,0,1,,,,,,,,,0,,,63,0
4446,note_on,0,0,1,,,,,,,,,0,,,60,0
4446,note_on,0,0,3,,,,,,,,,2,,,45,0
4446,note_on,6,0,3,,,,,,,,,2,,,51,0
4500,control_change,54,0,1,,,,,,,,,0,64,127,,
4500,note_on,0,0,3,,,,,,,,,2,,,52,62
4500,note_on,0,0,3,,,,,,,,,2,,,45,62
4500,control_change,54,0,3,,,,,,,,,2,64,127,,
4500,note_on,0,0,1,,,,,,,,,0,,,61,93
4500,note_on,0,0,1,,,,,,,,,0,,,64,101
4680,note_on,0,0,3,,,,,,,,,2,,,61,62
4680,note_on,0,0,3,,,,,,,,,2,,,45,0
4680,note_on,180,0,3,,,,,,,,,2,,,52,0
4680,note_on,180,0,1,,,,,,,,,0,,,64,0
4680,note_on,0,0,1,,,,,,,,,0,,,64,75
4680,note_on,0,0,1,,,,,,,,,0,,,61,0
4680,note_on,0,0,1,,,,,,,,,0,,,69,75
4740,note_on,60,0,1,,,,,,,,,0,,,73,75
4740,note_on,0,0,3,,,,,,,,,2,,,57,62
4740,note_on,60,0,3,,,,,,,,,2,,,61,0
4800,note_on,0,0,3,,,,,,,,,2,,,52,62
4800,control_change,0,0,1,,,,,,,,,0,64,0,,
4800,note_on,0,0,1,,,,,,,,,0,,,76,75
4800,note_on,0,0,1,,,,,,,,,0,,,73,75
4800,note_on,0,0,1,,,,,,,,,0,,,64,75
4800,note_on,0,0,3,,,,,,,,,2,,,45,62
4800,note_on,0,0,1,,,,,,,,,0,,,64,0
4800,note_on,0,0,1,,,,,,,,,0,,,69,0
4800,note_on,60,0,1,,,,,,,,,0,,,73,0
4800,note_on,60,0,3,,,,,,,,,2,,,57,0
4800,note_on,0,0,1,,,,,,,,,0,,,69,75
4800,control_change,0,0,3,,,,,,,,,2,64,0,,
4806,note_on,0,0,1,,,,,,,,,0,,,73,0
4806,note_on,0,0,1,,,,,,,,,0,,,69,0
4806,note_on,6,0,1,,,,,,,,,0,,,76,0
4806,note_on,0,0,1,,,,,,,,,0,,,64,0
4860,note_on,60,0,3,,,,,,,,,2,,,52,0
4860,note_on,0,0,3,,,,,,,,,2,,,45,0
4860,note_on,0,0,3,,,,,,,,,2,,,44,75
4860,note_on,0,0,3,,,,,,,,,2,,,52,75
4860,note_on,0,0,3,,,,,,,,,2,,,56,75
4860,note_on,0,0,1,,,,,,,,,0,,,76,88
4860,note_on,54,0,1,,,,,,,,,0,,,64,88
4860,note_on,0,0,1,,,,,,,,,0,,,68,88
4860,note_on,0,0,1,,,,,,,,,0,,,73,88
5040,note_on,0,0,3,,,,,,,,,2,,,56,36
5040,note_on,0,0,3,,,,,,,,,2,,,44,0
5040,note_on,0,0,3,,,,,,,,,2,,,52,0
5040,note_on,180,0,3,,,,,,,,,2,,,56,0
5040,note_on,180,0,1,,,,,,,,,0,,,76,0
5040,note_on,0,0,1,,,,,,,,,0,,,64,0
5040,note_on,0,0,1,,,,,,,,,0,,,68,0
5040,note_on,0,0,1,,,,,,,,,0,,,73,0
5040,note_on,0,0,3,,,,,,,,,2,,,61,36
5040,note_on,0,0,1,,,,,,,,,0,,,76,49
5040,note_on,0,0,1,,,,,,,,,0,,,68,49
5040,note_on,0,0,1,,,,,,,,,0,,,64,49
5100,note_on,60,0,1,,,,,,,,,0,,,76,0
5100,note_on,0,0,1,,,,,,,,,0,,,75,75
5100,note_on,0,0,3,,,,,,,,,2,,,60,62
5100,note_on,60,0,3,,,,,,,,,2,,,61,0
5100,note_on,0,0,1,,,,,,,,,0,,,64,0
5100,note_on,0,0,1,,,,,,,,,0,,,66,65
5160,note_on,0,0,3,,,,,,,,,2,,,56,36
5160,note_on,0,0,3,,,,,,,,,2,,,56,0
5160,note_on,60,0,3,,,,,,,,,2,,,60,0
5160,note_on,0,0,3,,,,,,,,,2,,,63,36
5160,note_on,60,0,1,,,,,,,,,0,,,75,0
5160,note_on,0,0,1,,,,,,,,,0,,,66,0
5160,note_on,0,0,1,,,,,,,,,0,,,68,0
5160,note_on,0,0,1,,,,,,,,,0,,,66,49
5160,note_on,0,0,1,,,,,,,,,0,,,68,49
5166,note_on,0,0,3,,,,,,,,,2,,,56,0
5166,note_on,6,0,1,,,,,,,,,0,,,68,0
5166,note_on,0,0,1,,,,,,,,,0,,,66,0
5166,note_on,6,0,3,,,,,,,,,2,,,63,0
5220,note_on,0,0,3,,,,,,,,,2,,,61,36
5220,note_on,54,0,1,,,,,,,,,0,,,64,49
5220,note_on,0,0,1,,,,,,,,,0,,,68,49
5220,note_on,0,0,3,,,,,,,,,2,,,56,36
5220,note_on,0,0,1,,,,,,,,,0,,,73,49
5220,note_on,54,0,3,,,,,,,,,2,,,49,36
5400,note_on,0,0,3,,,,,,,,,2,,,49,0
5400,note_on,0,0,3,,,,,,,,,2,,,56,0
5400,note_on,180,0,3,,,,,,,,,2,,,61,0
5400,note_on,0,0,1,,,,,,,,,0,,,68,0
5400,note_on,0,0,1,,,,,,,,,0,,,64,49
5400,note_on,0,0,1,,,,,,,,,0,,,61,49
5400,note_on,0,0,1,,,,,,,,,0,,,64,0
5400,note_on,0,0,3,,,,,,,,,2,,,52,36
5400,note_on,180,0,1,,,,,,,,,0,,,73,0
5400,note_on,0,0,1,,,,,,,,,0,,,73,49
5400,note_on,0,0,3,,,,,,,,,2,,,57,36
5460,note_on,60,0,1,,,,,,,,,0,,,73,0
5460,note_on,0,0,1,,,,,,,,,0,,,71,75
5460,note_on,0,0,1,,,,,,,,,0,,,62,65
5460,note_on,0,0,1,,,,,,,,,0,,,61,0
5460,note_on,60,0,3,,,,,,,,,2,,,57,0
5460,note_on,0,0,3,,,,,,,,,2,,,56,62
5520,note_on,0,0,3,,,,,,,,,2,,,59,36
5520,note_on,0,0,3,,,,,,,,,2,,,52,36
5520,note_on,0,0,3,,,,,,,,,2,,,52,0
5520,note_on,60,0,3,,,,,,,,,2,,,56,0
5520,note_on,0,0,1,,,,,,,,,0,,,64,49
5520,note_on,60,0,1,,,,,,,,,0,,,71,0
5520,note_on,0,0,1,,,,,,,,,0,,,62,0
5520,note_on,0,0,1,,,,,,,,,0,,,64,0
5520,note_on,0,0,1,,,,,,,,,0,,,62,49
5526,note_on,6,0,1,,,,,,,,,0,,,64,0
5526,note_on,0,0,1,,,,,,,,,0,,,62,0
5526,note_on,0,0,3,,,,,,,,,2,,,52,0
5526,note_on,6,0,3,,,,,,,,,2,,,59,0
5580,note_on,54,0,1,,,,,,,,,0,,,61,49
5580,note_on,54,0,3,,,,,,,,,2,,,54,36
5580,note_on,0,0,3,,,,,,,,,2,,,57,36
5580,note_on,0,0,1,,,,,,,,,0,,,69,49
5760,note_on,0,0,3,,,,,,,,,2,,,54,0
5760,note_on,0,0,1,,,,,,,,,0,,,61,88
5760,note_on,0,0,3,,,,,,,,,2,,,52,75
5760,note_on,0,0,1,,,,,,,,,0,,,61,0
5760,note_on,0,0,3,,,,,,,,,2,,,55,75
5760,note_on,0,0,1,,,,,,,,,0,,,67,88
5760,note_on,180,0,3,,,,,,,,,2,,,57,0
5760,note_on,0,0,1,,,,,,,,,0,,,70,88
5760,note_on,180,0,1,,,,,,,,,0,,,69,0
5820,note_on,60,0,1,,,,,,,,,0,,,70,0
5820,note_on,0,0,1,,,,,,,,,0,,,71,88
5820,note_on,0,0,1,,,,,,,,,0,,,62,88
5820,note_on,60,0,3,,,,,,,,,2,,,52,0
5820,note_on,0,0,3,,,,,,,,,2,,,50,75
5820,note_on,0,0,1,,,,,,,,,0,,,61,0
5880,note_on,60,0,3,,,,,,,,,2,,,50,0
5880,note_on,0,0,3,,,,,,,,,2,,,55,75
5880,note_on,0,0,3,,,,,,,,,2,,,49,75
5880,note_on,60,0,1,,,,,,,,,0,,,71,0
5880,note_on,0,0,1,,,,,,,,,0,,,62,0
5880,note_on,0,0,1,,,,,,,,,0,,,67,0
5880,note_on,0,0,1,,,,,,,,,0,,,64,88
5880,note_on,0,0,1,,,,,,,,,0,,,67,88
5880,note_on,0,0,1,,,,,,,,,0,,,70,88
5880,note_on,0,0,3,,,,,,,,,2,,,55,0
5880,note_on,0,0,1,,,,,,,,,0,,,73,88
5886,note_on,6,0,1,,,,,,,,,0,,,73,0
5886,note_on,6,0,3,,,,,,,,,2,,,55,0
5886,note_on,0,0,3,,,,,,,,,2,,,49,0
5886,note_on,0,0,1,,,,,,,,,0,,,70,0
5886,note_on,0,0,1,,,,,,,,,0,,,67,0
5886,note_on,0,0,1,,,,,,,,,0,,,64,0
5940,control_change,54,0,3,,,,,,,,,2,64,127,,
5940,note_on,0,0,3,,,,,,,,,2,,,47,88
5940,note_on,0,0,3,,,,,,,,,2,,,55,88
5940,note_on,0,0,1,,,,,,,,,0,,,74,101
5940,control_change,54,0,1,,,,,,,,,0,64,127,,
5940,note_on,0,0,1,,,,,,,,,0,,,67,101
5940,note_on,0,0,1,,,,,,,,,0,,,71,101
5940,note_on,0,0,1,,,,,,,,,0,,,62,101
6120,note_on,0,0,3,,,,,,,,,2,,,50,36
6120,note_on,0,0,3,,,,,,,,,2,,,47,0
6120,note_on,180,0,3,,,,,,,,,2,,,55,0
6120,note_on,0,0,3,,,,,,,,,2,,,55,36
6120,note_on,180,0,1,,,,,,,,,0,,,74,0
6120,note_on,0,0,1,,,,,,,,,0,,,62,0
6120,note_on,0,0,1,,,,,,,,,0,,,67,0
6120,note_on,0,0,1,,,,,,,,,0,,,71,0
6120,note_on,0,0,1,,,,,,,,,0,,,62,49
6120,note_on,0,0,1,,,,,,,,,0,,,71,49
6180,note_on,60,0,1,,,,,,,,,0,,,71,0
6180,control_change,0,0,3,,,,,,,,,2,64,0,,
6180,note_on,0,0,3,,,,,,,,,2,,,53,36
6180,note_on,60,0,3,,,,,,,,,2,,,50,0
6180,control_change,0,0,1,,,,,,,,,0,64,0,,
6180,note_on,0,0,1,,,,,,,,,0,,,67,49
6240,note_on,60,0,1,,,,,,,,,0,,,67,0
6240,note_on,0,0,1,,,,,,,,,0,,,62,0
6240,note_on,0,0,1,,,,,,,,,0,,,59,49
6240,note_on,0,0,1,,,,,,,,,0,,,62,49
6240,note_on,0,0,3,,,,,,,,,2,,,55,36
6240,note_on,0,0,3,,,,,,,,,2,,,55,0
6240,note_on,60,0,3,,,,,,,,,2,,,53,0
6246,note_on,6,0,1,,,,,,,,,0,,,62,0
6246,note_on,0,0,1,,,,,,,,,0,,,59,0
6246,note_on,6,0,3,,,,,,,,,2,,,55,0
6300,control_change,54,0,1,,,,,,,,,0,64,127,,
6300,note_on,0,0,1,,,,,,,,,0,,,60,49
6300,note_on,0,0,1,,,,,,,,,0,,,64,49
6300,note_on,0,0,3,,,,,,,,,2,,,48,36
6300,control_change,54,0,3,,,,,,,,,2,64,127,,
6300,note_on,0,0,3,,,,,,,,,2,,,55,36
6480,note_on,0,0,3,,,,,,,,,2,,,48,0
6480,note_on,0,0,3,,,,,,,,,2,,,43,36
6480,note_on,0,0,3,,,,,,,,,2,,,55,36
6480,note_on,180,0,3,,,,,,,,,2,,,55,0
6480,note_on,180,0,1,,,,,,,,,0,,,64,0
6480,note_on,0,0,1,,,,,,,,,0,,,60,0
6480,note_on,0,0,1,,,,,,,,,0,,,59,36
6480,note_on,0,0,1,,,,,,,,,0,,,62,36
6540,note_on,60,0,3,,,,,,,,,2,,,55,0
6540,note_on,60,0,1,,,,,,,,,0,,,62,0
6540,note_on,0,0,1,,,,,,,,,0,,,59,0
6540,note_on,0,0,1,,,,,,,,,0,,,60,36
6540,note_on,0,0,1,,,,,,,,,0,,,64,36
6540,note_on,0,0,3,,,,,,,,,2,,,43,0
6540,note_on,0,0,3,,,,,,,,,2,,,48,36
6540,note_on,0,0,3,,,,,,,,,2,,,55,36
6600,note_on,0,0,1,,,,,,,,,0,,,65,36
6600,control_change,0,0,1,,,,,,,,,0,64,0,,
6600,control_change,0,0,3,,,,,,,,,2,64,0,,
6600,note_on,60,0,3,,,,,,,,,2,,,55,0
6600,note_on,0,0,3,,,,,,,,,2,,,48,0
6600,note_on,0,0,1,,,,,,,,,0,,,59,36
6600,note_on,0,0,1,,,,,,,,,0,,,60,0
6600,note_on,60,0,1,,,,,,,,,0,,,64,0
6600,note_on,0,0,3,,,,,,,,,2,,,50,36
6600,note_on,0,0,3,,,,,,,,,2,,,55,36
6660,note_on,0,0,1,,,,,,,,,0,,,60,36
6660,note_on,0,0,1,,,,,,,,,0,,,59,0
6660,note_on,60,0,1,,,,,,,,,0,,,65,0
6660,control_change,0,0,1,,,,,,,,,0,64,127,,
6660,note_on,0,0,3,,,,,,,,,2,,,50,0
6660,control_change,0,0,3,,,,,,,,,2,64,127,,
6660,note_on,0,0,3,,,,,,,,,2,,,48,36
6660,note_on,0,0,3,,,,,,,,,2,,,55,36
6660,note_on,0,0,1,,,,,,,,,0,,,64,36
6660,note_on,60,0,3,,,,,,,,,2,,,55,0
6720,note_on,60,0,3,,,,,,,,,2,,,55,0
6720,note_on,0,0,3,,,,,,,,,2,,,67,36
6720,note_on,0,0,1,,,,,,,,,0,,,71,36
6720,note_on,0,0,3,,,,,,,,,2,,,48,0
6720,note_on,0,0,1,,,,,,,,,0,,,60,0
6720,note_on,0,0,3,,,,,,,,,2,,,55,36
6720,note_on,0,0,1,,,,,,,,,0,,,74,36
6720,note_on,60,0,1,,,,,,,,,0,,,64,0
6780,note_on,60,0,1,,,,,,,,,0,,,74,0
6780,note_on,0,0,1,,,,,,,,,0,,,71,0
6780,note_on,0,0,1,,,,,,,,,0,,,72,36
6780,note_on,0,0,1,,,,,,,,,0,,,76,36
6780,note_on,60,0,3,,,,,,,,,2,,,67,0
6780,note_on,0,0,3,,,,,,,,,2,,,55,0
6780,note_on,0,0,3,,,,,,,,,2,,,60,36
6780,note_on,0,0,3,,,,,,,,,2,,,67,36
6840,note_on,60,0,3,,,,,,,,,2,,,67,0
6840,note_on,0,0,3,,,,,,,,,2,,,60,0
6840,note_on,0,0,3,,,,,,,,,2,,,62,36
6840,note_on,0,0,3,,,,,,,,,2,,,67,36
6840,note_on,60,0,1,,,,,,,,,0,,,76,0
6840,note_on,0,0,1,,,,,,,,,0,,,77,36
6840,note_on,0,0,1,,,,,,,,,0,,,71,36
6840,note_on,0,0,1,,,,,,,,,0,,,72,0
6900,note_on,0,0,3,,,,,,,,,2,,,62,0
6900,note_on,60,0,3,,,,,,,,,2,,,67,0
6900,note_on,0,0,3,,,,,,,,,2,,,60,36
6900,note_on,0,0,1,,,,,,,,,0,,,76,36
6900,note_on,0,0,1,,,,,,,,,0,,,72,36
6900,note_on,0,0,1,,,,,,,,,0,,,71,0
6900,note_on,60,0,1,,,,,,,,,0,,,77,0
6900,control_change,0,0,1,,,,,,,,,0,64,0,,
6900,control_change,0,0,3,,,,,,,,,2,64,0,,
6900,note_on,0,0,3,,,,,,,,,2,,,67,36
6960,note_on,0,0,3,,,,,,,,,2,,,43,36
6960,note_on,0,0,3,,,,,,,,,2,,,60,0
6960,note_on,60,0,3,,,,,,,,,2,,,67,0
6960,note_on,0,0,1,,,,,,,,,0,,,62,36
6960,note_on,0,0,1,,,,,,,,,0,,,59,36
6960,note_on,60,0,1,,,,,,,,,0,,,76,0
6960,note_on,0,0,1,,,,,,,,,0,,,72,0
6960,note_on,0,0,3,,,,,,,,,2,,,55,36
7020,note_on,0,0,3,,,,,,,,,2,,,48,36
7020,note_on,0,0,3,,,,,,,,,2,,,43,0
7020,note_on,0,0,3,,,,,,,,,2,,,55,36
7020,note_on,0,0,1,,,,,,,,,0,,,64,36
7020,note_on,60,0,3,,,,,,,,,2,,,55,0
7020,note_on,60,0,1,,,,,,,,,0,,,62,0
7020,note_on,0,0,1,,,,,,,,,0,,,59,0
7020,note_on,0,0,1,,,,,,,,,0,,,60,36
7020,control_change,0,0,3,,,,,,,,,2,64,127,,
7020,control_change,0,0,1,,,,,,,,,0,64,127,,
7065,note_on,45,0,1,,,,,,,,,0,,,67,36
7080,note_on,60,0,3,,,,,,,,,2,,,55,0
7080,note_on,0,0,3,,,,,,,,,2,,,48,0
7080,note_on,0,0,1,,,,,,,,,0,,,59,36
7080,note_on,15,0,1,,,,,,,,,0,,,67,0
7080,note_on,0,0,1,,,,,,,,,0,,,64,0
7080,note_on,0,0,1,,,,,,,,,0,,,60,0
7080,note_on,0,0,1,,,,,,,,,0,,,65,36
7080,note_on,0,0,3,,,,,,,,,2,,,55,36
7080,set_tempo,4020,1,0,,,,,,869565,,,,,,,
7080,note_on,0,0,3,,,,,,,,,2,,,50,36
7140,note_on,60,0,1,,,,,,,,,0,,,65,0
7140,note_on,0,0,1,,,,,,,,,0,,,59,0
7140,set_tempo,60,1,0,,,,,,909091,,,,,,,
7140,note_on,0,0,3,,,,,,,,,2,,,55,36
7140,note_on,0,0,3,,,,,,,,,2,,,48,36
7140,note_on,0,0,3,,,,,,,,,2,,,50,0
7140,note_on,60,0,3,,,,,,,,,2,,,55,0
7140,note_on,0,0,1,,,,,,,,,0,,,64,36
7140,note_on,0,0,1,,,,,,,,,0,,,60,36
7200,note_on,0,0,3,,,,,,,,,2,,,48,0
7200,control_change,0,0,1,,,,,,,,,0,64,0,,
7200,note_on,0,0,1,,,,,,,,,0,,,64,49
7200,note_on,0,0,1,,,,,,,,,0,,,62,49
7200,note_on,0,0,1,,,,,,,,,0,,,60,0
7200,note_on,60,0,1,,,,,,,,,0,,,64,0
7200,control_change,0,0,3,,,,,,,,,2,64,0,,
7200,note_on,0,0,3,,,,,,,,,2,,,47,36
7200,note_on,0,0,3,,,,,,,,,2,,,52,36
7200,note_on,0,0,3,,,,,,,,,2,,,56,36
7200,note_on,60,0,3,,,,,,,,,2,,,55,0
7200,set_tempo,60,1,0,,,,,,952381,,,,,,,
7260,set_tempo,60,1,0,,,,,,1016949,,,,,,,
7260,note_on,60,0,1,,,,,,,,,0,,,64,0
7260,note_on,0,0,1,,,,,,,,,0,,,62,0
7260,note_on,0,0,1,,,,,,,,,0,,,62,62
7260,note_on,0,0,1,,,,,,,,,0,,,64,62
7260,note_on,0,0,1,,,,,,,,,0,,,66,62
7260,note_on,0,0,3,,,,,,,,,2,,,56,49
7260,note_on,0,0,3,,,,,,,,,2,,,52,49
7260,note_on,0,0,3,,,,,,,,,2,,,47,49
7260,note_on,0,0,3,,,,,,,,,2,,,47,0
7260,note_on,0,0,3,,,,,,,,,2,,,52,0
7260,note_on,60,0,3,,,,,,,,,2,,,56,0
7320,note_on,0,0,1,,,,,,,,,0,,,68,62
7320,set_tempo,60,1,0,,,,,,1071429,,,,,,,
7320,note_on,0,0,3,,,,,,,,,2,,,52,0
7320,note_on,0,0,3,,,,,,,,,2,,,47,0
7320,note_on,0,0,3,,,,,,,,,2,,,47,49
7320,note_on,0,0,3,,,,,,,,,2,,,52,49
7320,note_on,0,0,3,,,,,,,,,2,,,56,49
7320,note_on,0,0,1,,,,,,,,,0,,,64,62
7320,note_on,60,0,3,,,,,,,,,2,,,56,0
7320,note_on,0,0,1,,,,,,,,,0,,,62,62
7320,note_on,0,0,1,,,,,,,,,0,,,62,0
7320,note_on,0,0,1,,,,,,,,,0,,,64,0
7320,note_on,60,0,1,,,,,,,,,0,,,66,0
7380,note_on,0,0,3,,,,,,,,,2,,,49,62
7380,set_tempo,60,1,0,,,,,,869565,,,,,,,
7380,note_on,0,0,1,,,,,,,,,0,,,64,0
7380,note_on,0,0,1,,,,,,,,,0,,,62,0
7380,note_on,0,0,1,,,,,,,,,0,,,61,75
7380,note_on,0,0,1,,,,,,,,,0,,,64,75
7380,note_on,0,0,1,,,,,,,,,0,,,69,75
7380,note_on,0,0,3,,,,,,,,,2,,,57,62
7380,note_on,60,0,3,,,,,,,,,2,,,56,0
7380,note_on,60,0,1,,,,,,,,,0,,,68,0
7380,note_on,0,0,3,,,,,,,,,2,,,47,0
7380,note_on,0,0,3,,,,,,,,,2,,,52,62
7380,note_on,0,0,3,,,,,,,,,2,,,52,0
7386,note_on,6,0,1,,,,,,,,,0,,,69,0
7386,note_on,0,0,3,,,,,,,,,2,,,52,0
7386,note_on,6,0,3,,,,,,,,,2,,,57,0
7386,note_on,0,0,1,,,,,,,,,0,,,64,0
7386,note_on,0,0,1,,,,,,,,,0,,,61,0
7386,note_on,0,0,3,,,,,,,,,2,,,49,0
7440,note_on,0,0,3,,,,,,,,,2,,,59,62
7440,note_on,54,0,3,,,,,,,,,2,,,54,62
7440,note_on,0,0,1,,,,,,,,,0,,,71,75
7440,set_tempo,60,1,0,,,,,,909091,,,,,,,
7440,note_on,0,0,1,,,,,,,,,0,,,69,75
7440,note_on,54,0,1,,,,,,,,,0,,,63,75
7440,note_on,0,0,3,,,,,,,,,2,,,57,62
7446,note_on,6,0,3,,,,,,,,,2,,,59,0
7446,note_on,0,0,3,,,,,,,,,2,,,57,0
7446,note_on,0,0,3,,,,,,,,,2,,,54,0
7446,note_on,6,0,1,,,,,,,,,0,,,71,0
7446,note_on,0,0,1,,,,,,,,,0,,,63,0
7446,note_on,0,0,1,,,,,,,,,0,,,69,0
7500,set_tempo,60,1,0,,,,,,967742,,,,,,,
7500,note_on,0,0,1,,,,,,,,,0,,,73,88
7500,note_on,0,0,3,,,,,,,,,2,,,61,75
7500,note_on,0,0,3,,,,,,,,,2,,,57,75
7500,note_on,54,0,3,,,,,,,,,2,,,52,75
7500,note_on,0,0,1,,,,,,,,,0,,,69,88
7500,note_on,54,0,1,,,,,,,,,0,,,64,88
7620,note_on,0,0,2,,,,,,,,,1,,,64,62
7620,note_on,0,0,2,,,,,,,,,1,,,68,62
7620,note_on,4254,0,2,,,,,,,,,1,,,62,62
7620,note_on,120,0,1,,,,,,,,,0,,,73,0
7620,note_on,0,0,1,,,,,,,,,0,,,73,75
7620,note_on,0,0,1,,,,,,,,,0,,,64,0
7620,note_on,120,0,3,,,,,,,,,2,,,61,0
7620,note_on,0,0,3,,,,,,,,,2,,,57,0
7620,note_on,0,0,3,,,,,,,,,2,,,52,0
7620,note_on,0,0,3,,,,,,,,,2,,,40,62
7620,note_on,0,0,1,,,,,,,,,0,,,69,0
7620,note_on,0,0,3,,,,,,,,,2,,,52,62
7710,note_on,90,0,1,,,,,,,,,0,,,73,0
7710,note_on,0,0,1,,,,,,,,,0,,,71,75
7740,set_tempo,240,1,0,,,,,,833333,,,,,,,
7740,note_on,0,0,2,,,,,,,,,1,,,62,0
7740,note_on,0,0,2,,,,,,,,,1,,,64,0
7740,note_on,120,0,2,,,,,,,,,1,,,68,0
7740,note_on,0,0,3,,,,,,,,,2,,,52,62
7740,note_on,0,0,3,,,,,,,,,2,,,40,0
7740,control_change,0,0,3,,,,,,,,,2,64,127,,
7740,note_on,0,0,3,,,,,,,,,2,,,45,62
7740,note_on,0,0,1,,,,,,,,,0,,,64,75
7740,note_on,0,0,1,,,,,,,,,0,,,61,75
7740,control_change,0,0,1,,,,,,,,,0,64,127,,
7740,note_on,30,0,1,,,,,,,,,0,,,71,0
7740,note_on,120,0,3,,,,,,,,,2,,,52,0
7740,note_on,0,0,1,,,,,,,,,0,,,69,75
7920,note_on,0,0,3,,,,,,,,,2,,,45,0
7920,note_on,0,0,1,,,,,,,,,0,,,64,0
7920,note_on,0,0,1,,,,,,,,,0,,,64,49
7920,note_on,0,0,1,,,,,,,,,0,,,61,0
7920,note_on,180,0,1,,,,,,,,,0,,,69,0
7920,note_on,180,0,3,,,,,,,,,2,,,52,0
7920,note_on,0,0,3,,,,,,,,,2,,,52,36
7980,note_on,0,0,3,,,,,,,,,2,,,49,36
7980,note_on,60,0,1,,,,,,,,,0,,,64,0
7980,note_on,0,0,1,,,,,,,,,0,,,61,49
7980,note_on,60,0,3,,,,,,,,,2,,,52,0
8040,note_on,0,0,3,,,,,,,,,2,,,45,36
8040,control_change,0,0,3,,,,,,,,,2,64,0,,
8040,note_on,60,0,3,,,,,,,,,2,,,49,0
8040,note_on,60,0,1,,,,,,,,,0,,,61,0
8040,control_change,0,0,1,,,,,,,,,0,64,0,,
8040,note_on,0,0,1,,,,,,,,,0,,,57,49
8046,note_on,6,0,1,,,,,,,,,0,,,57,0
8046,note_on,6,0,3,,,,,,,,,2,,,45,0
8085,note_on,39,0,1,,,,,,,,,0,,,57,49
8085,note_on,39,0,3,,,,,,,,,2,,,45,36
8100,note_on,15,0,3,,,,,,,,,2,,,45,0
8100,note_on,0,0,1,,,,,,,,,0,,,64,62
8100,control_change,0,0,1,,,,,,,,,0,64,127,,
8100,note_on,15,0,1,,,,,,,,,0,,,57,0
8100,control_change,0,0,3,,,,,,,,,2,64,127,,
8100,note_on,0,0,3,,,,,,,,,2,,,52,49
8280,note_on,0,0,1,,,,,,,,,0,,,64,62
8280,note_on,180,0,1,,,,,,,,,0,,,64,0
8280,note_on,180,0,3,,,,,,,,,2,,,52,0
8280,note_on,0,0,3,,,,,,,,,2,,,52,49
8340,note_on,0,0,1,,,,,,,,,0,,,61,62
8340,note_on,60,0,1,,,,,,,,,0,,,64,0
8340,note_on,0,0,3,,,,,,,,,2,,,49,49
8340,note_on,60,0,3,,,,,,,,,2,,,52,0
8400,note_on,0,0,1,,,,,,,,,0,,,58,62
8400,control_change,0,0,3,,,,,,,,,2,64,0,,
8400,note_on,0,0,3,,,,,,,,,2,,,46,49
8400,control_change,0,0,1,,,,,,,,,0,64,0,,
8400,note_on,60,0,3,,,,,,,,,2,,,49,0
8400,note_on,60,0,1,,,,,,,,,0,,,61,0
8406,note_on,6,0,1,,,,,,,,,0,,,58,0
8406,note_on,6,0,3,,,,,,,,,2,,,46,0
8445,note_on,39,0,3,,,,,,,,,2,,,46,49
8445,note_on,39,0,1,,,,,,,,,0,,,58,62
8460,note_on,0,0,1,,,,,,,,,0,,,64,75
8460,note_on,0,0,3,,,,,,,,,2,,,52,62
8460,note_on,15,0,1,,,,,,,,,0,,,58,0
8460,control_change,0,0,1,,,,,,,,,0,64,127,,
8460,control_change,0,0,3,,,,,,,,,2,64,127,,
8460,note_on,15,0,3,,,,,,,,,2,,,46,0
8640,note_on,0,0,1,,,,,,,,,0,,,64,75
8640,note_on,180,0,1,,,,,,,,,0,,,64,0
8640,note_on,0,0,3,,,,,,,,,2,,,52,62
8640,note_on,180,0,3,,,,,,,,,2,,,52,0
8700,note_on,60,0,3,,,,,,,,,2,,,52,0
8700,note_on,0,0,1,,,,,,,,,0,,,62,101
8700,note_on,60,0,1,,,,,,,,,0,,,64,0
8700,note_on,0,0,3,,,,,,,,,2,,,50,88
8760,note_on,60,0,3,,,,,,,,,2,,,50,0
8760,control_change,0,0,3,,,,,,,,,2,64,0,,
8760,note_on,0,0,1,,,,,,,,,0,,,59,75
8760,control_change,0,0,1,,,,,,,,,0,64,0,,
8760,note_on,0,0,3,,,,,,,,,2,,,47,62
8760,note_on,60,0,1,,,,,,,,,0,,,62,0
8766,note_on,6,0,3,,,,,,,,,2,,,47,0
8766,note_on,6,0,1,,,,,,,,,0,,,59,0
8805,note_on,39,0,1,,,,,,,,,0,,,59,75
8805,note_on,39,0,3,,,,,,,,,2,,,47,62
8820,note_on,0,0,1,,,,,,,,,0,,,66,88
8820,control_change,0,0,1,,,,,,,,,0,64,127,,
8820,note_on,15,0,1,,,,,,,,,0,,,59,0
8820,note_on,15,0,3,,,,,,,,,2,,,47,0
8820,control_change,0,0,3,,,,,,,,,2,64,127,,
8820,note_on,0,0,3,,,,,,,,,2,,,54,75
8826,note_on,6,0,1,,,,,,,,,0,,,66,0
8826,note_on,6,0,3,,,,,,,,,2,,,54,0
8880,note_on,0,0,1,,,,,,,,,0,,,66,88
8880,note_on,0,0,3,,,,,,,,,2,,,54,75
8880,note_on,0,0,1,,,,,,,,,0,,,70,88
8880,note_on,54,0,3,,,,,,,,,2,,,52,75
8880,note_on,54,0,1,,,,,,,,,0,,,61,88
8886,note_on,6,0,3,,,,,,,,,2,,,54,0
8886,note_on,0,0,3,,,,,,,,,2,,,52,0
8886,note_on,6,0,1,,,,,,,,,0,,,70,0
8886,note_on,0,0,1,,,,,,,,,0,,,66,0
8886,note_on,0,0,1,,,,,,,,,0,,,61,0
8940,control_change,54,0,1,,,,,,,,,0,64,0,,
8940,control_change,54,0,3,,,,,,,,,2,64,0,,
8940,note_on,0,0,3,,,,,,,,,2,,,50,62
8940,note_on,0,0,3,,,,,,,,,2,,,54,62
8940,note_on,0,0,1,,,,,,,,,0,,,71,75
8940,note_on,0,0,1,,,,,,,,,0,,,66,75
8940,note_on,0,0,1,,,,,,,,,0,,,59,75
8946,note_on,0,0,1,,,,,,,,,0,,,66,0
8946,note_on,0,0,3,,,,,,,,,2,,,50,0
8946,note_on,0,0,1,,,,,,,,,0,,,59,0
8946,note_on,6,0,3,,,,,,,,,2,,,54,0
8946,note_on,6,0,1,,,,,,,,,0,,,71,0
9000,note_on,0,0,3,,,,,,,,,2,,,54,62
9000,note_on,54,0,1,,,,,,,,,0,,,61,75
9000,note_on,54,0,3,,,,,,,,,2,,,46,62
9000,note_on,0,0,1,,,,,,,,,0,,,73,75
9000,note_on,0,0,1,,,,,,,,,0,,,66,75
9006,note_on,6,0,3,,,,,,,,,2,,,54,0
9006,note_on,0,0,3,,,,,,,,,2,,,46,0
9006,note_on,0,0,1,,,,,,,,,0,,,61,0
9006,note_on,0,0,1,,,,,,,,,0,,,66,0
9006,note_on,6,0,1,,,,,,,,,0,,,73,0
9060,note_on,0,0,1,,,,,,,,,0,,,66,62
9060,note_on,54,0,3,,,,,,,,,2,,,47,49
9060,note_on,0,0,1,,,,,,,,,0,,,74,62
9060,note_on,0,0,3,,,,,,,,,2,,,54,49
9060,note_on,54,0,1,,,,,,,,,0,,,62,62
9066,note_on,0,0,1,,,,,,,,,0,,,66,0
9066,note_on,0,0,1,,,,,,,,,0,,,62,0
9066,note_on,6,0,3,,,,,,,,,2,,,54,0
9066,note_on,6,0,1,,,,,,,,,0,,,74,0
9066,note_on,0,0,3,,,,,,,,,2,,,47,0
9120,note_on,54,0,3,,,,,,,,,2,,,41,36
9120,note_on,0,0,3,,,,,,,,,2,,,50,36
9120,note_on,0,0,1,,,,,,,,,0,,,83,49
9120,note_on,0,0,1,,,,,,,,,0,,,74,49
9120,note_on,54,0,1,,,,,,,,,0,,,71,49
9126,note_on,6,0,3,,,,,,,,,2,,,50,0
9126,note_on,0,0,3,,,,,,,,,2,,,41,0
9126,note_on,0,0,1,,,,,,,,,0,,,71,0
9126,note_on,0,0,1,,,,,,,,,0,,,74,0
9126,note_on,6,0,1,,,,,,,,,0,,,83,0
9180,note_on,0,0,1,,,,,,,,,0,,,81,49
9180,note_on,54,0,1,,,,,,,,,0,,,71,49
9180,note_on,0,0,1,,,,,,,,,0,,,74,49
9180,note_on,54,0,3,,,,,,,,,2,,,40,36
9180,note_on,0,0,3,,,,,,,,,2,,,52,36
9300,note_on,0,0,1,,,,,,,,,0,,,80,49
9300,note_on,120,0,1,,,,,,,,,0,,,81,0
9360,note_on,0,0,1,,,,,,,,,0,,,64,49
9360,note_on,0,0,1,,,,,,,,,0,,,71,0
9360,note_on,60,0,1,,,,,,,,,0,,,80,0
9360,note_on,0,0,1,,,,,,,,,0,,,74,0
9360,note_on,0,0,3,,,,,,,,,2,,,40,0
9360,note_on,0,0,3,,,,,,,,,2,,,52,36
9360,note_on,180,0,3,,,,,,,,,2,,,52,0
9420,note_on,60,0,3,,,,,,,,,2,,,52,0
9420,note_on,0,0,3,,,,,,,,,2,,,47,36
9420,note_on,60,0,1,,,,,,,,,0,,,64,0
9420,note_on,0,0,1,,,,,,,,,0,,,59,49
9480,note_on,0,0,3,,,,,,,,,2,,,44,36
9480,note_on,60,0,3,,,,,,,,,2,,,47,0
9480,note_on,60,0,1,,,,,,,,,0,,,59,0
9480,note_on,0,0,1,,,,,,,,,0,,,56,49
9486,note_on,6,0,1,,,,,,,,,0,,,56,0
9486,note_on,6,0,3,,,,,,,,,2,,,44,0
9525,note_on,39,0,1,,,,,,,,,0,,,56,49
9525,note_on,39,0,3,,,,,,,,,2,,,44,36
9540,note_on,15,0,3,,,,,,,,,2,,,44,0
9540,note_on,0,0,3,,,,,,,,,2,,,52,36
9540,note_on,15,0,1,,,,,,,,,0,,,56,0
9540,note_on,0,0,1,,,,,,,,,0,,,64,49
9720,note_on,180,0,3,,,,,,,,,2,,,52,0
9720,note_on,0,0,3,,,,,,,,,2,,,52,49
9720,note_on,0,0,1,,,,,,,,,0,,,64,62
9720,note_on,180,0,1,,,,,,,,,0,,,64,0
9780,note_on,0,0,1,,,,,,,,,0,,,60,62
9780,note_on,60,0,1,,,,,,,,,0,,,64,0
9780,note_on,60,0,3,,,,,,,,,2,,,52,0
9780,note_on,0,0,3,,,,,,,,,2,,,48,49
9840,note_on,0,0,1,,,,,,,,,0,,,57,62
9840,note_on,60,0,1,,,,,,,,,0,,,60,0
9840,note_on,0,0,3,,,,,,,,,2,,,45,49
9840,note_on,60,0,3,,,,,,,,,2,,,48,0
9846,note_on,6,0,1,,,,,,,,,0,,,57,0
9846,note_on,6,0,3,,,,,,,,,2,,,45,0
9885,note_on,39,0,1,,,,,,,,,0,,,57,62
9885,note_on,39,0,3,,,,,,,,,2,,,45,49
9900,note_on,0,0,3,,,,,,,,,2,,,52,101
9900,note_on,15,0,3,,,,,,,,,2,,,45,0
9900,note_on,15,0,1,,,,,,,,,0,,,57,0
9900,note_on,0,0,1,,,,,,,,,0,,,64,114
10080,note_on,180,0,1,,,,,,,,,0,,,64,0
10080,note_on,0,0,1,,,,,,,,,0,,,64,101
10080,note_on,180,0,3,,,,,,,,,2,,,52,0
10080,note_on,0,0,3,,,,,,,,,2,,,52,88
10140,note_on,60,0,3,,,,,,,,,2,,,52,0
10140,note_on,60,0,1,,,,,,,,,0,,,64,0
10140,note_on,0,0,3,,,,,,,,,2,,,49,88
10140,note_on,0,0,1,,,,,,,,,0,,,61,101
10200,note_on,0,0,1,,,,,,,,,0,,,58,101
10200,note_on,60,0,1,,,,,,,,,0,,,61,0
10200,note_on,60,0,3,,,,,,,,,2,,,49,0
10200,note_on,0,0,3,,,,,,,,,2,,,46,88
10206,note_on,6,0,3,,,,,,,,,2,,,46,0
10206,note_on,6,0,1,,,,,,,,,0,,,58,0
10245,note_on,39,0,1,,,,,,,,,0,,,58,101
10245,note_on,39,0,3,,,,,,,,,2,,,46,88
10260,note_on,0,0,3,,,,,,,,,2,,,53,101
10260,control_change,0,0,3,,,,,,,,,2,64,127,,
10260,note_on,0,0,1,,,,,,,,,0,,,65,114
10260,note_on,15,0,1,,,,,,,,,0,,,58,0
10260,control_change,0,0,1,,,,,,,,,0,64,127,,
10260,note_on,15,0,3,,,,,,,,,2,,,46,0
10266,note_on,6,0,1,,,,,,,,,0,,,65,0
10266,note_on,6,0,3,,,,,,,,,2,,,53,0
10320,note_on,54,0,3,,,,,,,,,2,,,51,75
10320,note_on,0,0,3,,,,,,,,,2,,,53,75
10320,note_on,0,0,1,,,,,,,,,0,,,69,88
10320,note_on,54,0,1,,,,,,,,,0,,,60,88
10320,note_on,0,0,1,,,,,,,,,0,,,65,88
10326,note_on,0,0,3,,,,,,,,,2,,,51,0
10326,note_on,6,0,3,,,,,,,,,2,,,53,0
10326,note_on,6,0,1,,,,,,,,,0,,,69,0
10326,note_on,0,0,1,,,,,,,,,0,,,65,0
10326,note_on,0,0,1,,,,,,,,,0,,,60,0
10380,note_on,54,0,3,,,,,,,,,2,,,50,62
10380,note_on,0,0,1,,,,,,,,,0,,,65,75
10380,note_on,0,0,1,,,,,,,,,0,,,70,75
10380,note_on,54,0,1,,,,,,,,,0,,,58,75
10380,note_on,0,0,3,,,,,,,,,2,,,53,62
10386,note_on,0,0,1,,,,,,,,,0,,,58,0
10386,note_on,6,0,1,,,,,,,,,0,,,70,0
10386,note_on,0,0,1,,,,,,,,,0,,,65,0
10386,note_on,0,0,3,,,,,,,,,2,,,50,0
10386,note_on,6,0,3,,,,,,,,,2,,,53,0
10440,control_change,54,0,1,,,,,,,,,0,64,0,,
10440,note_on,0,0,3,,,,,,,,,2,,,53,36
10440,note_on,0,0,3,,,,,,,,,2,,,45,36
10440,control_change,54,0,3,,,,,,,,,2,64,0,,
10440,note_on,0,0,1,,,,,,,,,0,,,65,49
10440,note_on,0,0,1,,,,,,,,,0,,,72,49
10440,note_on,0,0,1,,,,,,,,,0,,,60,49
10446,note_on,6,0,1,,,,,,,,,0,,,72,0
10446,note_on,0,0,1,,,,,,,,,0,,,65,0
10446,note_on,0,0,1,,,,,,,,,0,,,60,0
10446,note_on,6,0,3,,,,,,,,,2,,,53,0
10446,note_on,0,0,3,,,,,,,,,2,,,45,0
10500,note_on,54,0,1,,,,,,,,,0,,,74,49
10500,note_on,54,0,3,,,,,,,,,2,,,46,36
10500,note_on,0,0,3,,,,,,,,,2,,,53,36
10500,note_on,0,0,2,,,,,,,,,1,,,65,36
10500,note_on,2760,0,2,,,,,,,,,1,,,62,36
10506,note_on,6,0,3,,,,,,,,,2,,,53,0
10506,note_on,0,0,3,,,,,,,,,2,,,46,0
10506,note_on,6,0,1,,,,,,,,,0,,,74,0
10560,note_on,0,0,2,,,,,,,,,1,,,62,0
10560,note_on,60,0,2,,,,,,,,,1,,,65,0
10560,note_on,0,0,3,,,,,,,,,2,,,53,36
10560,note_on,54,0,3,,,,,,,,,2,,,48,36
10560,note_on,54,0,1,,,,,,,,,0,,,77,49
10560,note_on,0,0,2,,,,,,,,,1,,,65,36
10560,note_on,0,0,2,,,,,,,,,1,,,69,36
10566,note_on,0,0,3,,,,,,,,,2,,,48,0
10566,note_on,6,0,3,,,,,,,,,2,,,53,0
10590,note_on,0,0,1,,,,,,,,,0,,,75,49
10590,note_on,30,0,1,,,,,,,,,0,,,77,0
10620,note_on,0,0,1,,,,,,,,,0,,,69,75
10620,note_on,0,0,3,,,,,,,,,2,,,53,62
10620,control_change,0,0,1,,,,,,,,,0,64,127,,
10620,note_on,0,0,3,,,,,,,,,2,,,48,62
10620,control_change,54,0,3,,,,,,,,,2,64,127,,
10620,note_on,0,0,1,,,,,,,,,0,,,65,75
10620,note_on,0,0,1,,,,,,,,,0,,,75,75
10620,note_on,30,0,1,,,,,,,,,0,,,75,0
10620,note_on,0,0,2,,,,,,,,,1,,,65,0
10620,note_on,60,0,2,,,,,,,,,1,,,69,0
10740,note_on,0,0,3,,,,,,,,,2,,,53,62
10740,note_on,0,0,3,,,,,,,,,2,,,46,62
10740,note_on,120,0,1,,,,,,,,,0,,,75,0
10740,note_on,0,0,3,,,,,,,,,2,,,48,0
10740,note_on,0,0,1,,,,,,,,,0,,,70,75
10740,note_on,120,0,3,,,,,,,,,2,,,53,0
10740,note_on,0,0,1,,,,,,,,,0,,,74,75
10740,note_on,0,0,1,,,,,,,,,0,,,69,0
10800,note_on,0,0,1,,,,,,,,,0,,,65,88
10800,note_on,0,0,3,,,,,,,,,2,,,41,75
10800,note_on,0,0,3,,,,,,,,,2,,,53,75
10800,note_on,0,0,1,,,,,,,,,0,,,74,88
10800,note_on,0,0,3,,,,,,,,,2,,,46,0
10800,note_on,60,0,3,,,,,,,,,2,,,53,0
10800,note_on,0,0,1,,,,,,,,,0,,,77,88
10800,note_on,0,0,1,,,,,,,,,0,,,65,0
10800,note_on,0,0,1,,,,,,,,,0,,,70,0
10800,note_on,60,0,1,,,,,,,,,0,,,74,0
10860,note_on,60,0,1,,,,,,,,,0,,,77,0
10860,note_on,60,0,3,,,,,,,,,2,,,53,0
10860,note_on,0,0,3,,,,,,,,,2,,,41,0
10860,control_change,0,0,3,,,,,,,,,2,64,0,,
10860,note_on,0,0,3,,,,,,,,,2,,,43,75
10860,note_on,0,0,3,,,,,,,,,2,,,53,75
10860,control_change,0,0,1,,,,,,,,,0,64,0,,
10860,note_on,0,0,1,,,,,,,,,0,,,82,88
10860,note_on,0,0,1,,,,,,,,,0,,,77,88
10860,note_on,0,0,1,,,,,,,,,0,,,65,0
10860,note_on,0,0,3,,,,,,,,,2,,,55,75
10860,note_on,0,0,1,,,,,,,,,0,,,74,0
10860,note_on,0,0,1,,,,,,,,,0,,,70,88
10920,note_on,0,0,1,,,,,,,,,0,,,77,0
10920,note_on,0,0,3,,,,,,,,,2,,,57,75
10920,note_on,60,0,1,,,,,,,,,0,,,82,0
10920,note_on,0,0,1,,,,,,,,,0,,,77,88
10920,note_on,0,0,1,,,,,,,,,0,,,70,0
10920,note_on,60,0,3,,,,,,,,,2,,,55,0
10920,note_on,0,0,3,,,,,,,,,2,,,53,0
10920,note_on,0,0,3,,,,,,,,,2,,,43,0
10920,note_on,0,0,3,,,,,,,,,2,,,45,75
10920,note_on,0,0,3,,,,,,,,,2,,,53,75
10920,note_on,0,0,1,,,,,,,,,0,,,84,88
10920,note_on,0,0,1,,,,,,,,,0,,,72,88
10926,note_on,0,0,3,,,,,,,,,2,,,53,0
10926,note_on,0,0,3,,,,,,,,,2,,,45,0
10926,note_on,6,0,3,,,,,,,,,2,,,57,0
10926,note_on,6,0,1,,,,,,,,,0,,,84,0
10926,note_on,0,0,1,,,,,,,,,0,,,77,0
10926,note_on,0,0,1,,,,,,,,,0,,,72,0
10980,note_on,0,0,1,,,,,,,,,0,,,77,88
10980,control_change,54,0,1,,,,,,,,,0,64,127,,
10980,note_on,0,0,1,,,,,,,,,0,,,74,88
10980,note_on,0,0,1,,,,,,,,,0,,,86,88
10980,control_change,54,0,3,,,,,,,,,2,64,127,,
10980,note_on,0,0,3,,,,,,,,,2,,,46,75
10980,note_on,0,0,3,,,,,,,,,2,,,53,75
10980,note_on,0,0,3,,,,,,,,,2,,,58,75
11160,note_on,0,0,3,,,,,,,,,2,,,50,62
11160,note_on,0,0,3,,,,,,,,,2,,,46,0
11160,note_on,0,0,3,,,,,,,,,2,,,53,0
11160,note_on,180,0,3,,,,,,,,,2,,,58,0
11160,note_on,0,0,1,,,,,,,,,0,,,74,75
11160,note_on,0,0,1,,,,,,,,,0,,,70,75
11160,note_on,0,0,1,,,,,,,,,0,,,74,0
11160,note_on,0,0,1,,,,,,,,,0,,,77,0
11160,note_on,0,0,3,,,,,,,,,2,,,58,62
11160,note_on,0,0,3,,,,,,,,,2,,,62,62
11160,note_on,180,0,1,,,,,,,,,0,,,86,0
11160,note_on,0,0,1,,,,,,,,,0,,,82,75
11220,note_on,0,0,3,,,,,,,,,2,,,53,62
11220,note_on,60,0,3,,,,,,,,,2,,,50,0
11220,note_on,60,0,1,,,,,,,,,0,,,82,0
11220,note_on,0,0,1,,,,,,,,,0,,,77,75
11280,note_on,60,0,1,,,,,,,,,0,,,77,0
11280,note_on,0,0,1,,,,,,,,,0,,,74,0
11280,note_on,0,0,1,,,,,,,,,0,,,70,0
11280,note_on,0,0,1,,,,,,,,,0,,,69,75
11280,note_on,0,0,1,,,,,,,,,0,,,72,75
11280,note_on,0,0,1,,,,,,,,,0,,,75,75
11280,control_change,0,0,1,,,,,,,,,0,64,0,,
11280,note_on,0,0,3,,,,,,,,,2,,,63,62
11280,note_on,0,0,3,,,,,,,,,2,,,60,62
11280,control_change,0,0,3,,,,,,,,,2,64,0,,
11280,note_on,0,0,3,,,,,,,,,2,,,58,0
11280,note_on,60,0,3,,,,,,,,,2,,,53,0
11280,note_on,0,0,3,,,,,,,,,2,,,62,0
11286,note_on,6,0,3,,,,,,,,,2,,,63,0
11286,note_on,0,0,3,,,,,,,,,2,,,60,0
11286,note_on,0,0,1,,,,,,,,,0,,,69,0
11286,note_on,0,0,1,,,,,,,,,0,,,72,0
11286,note_on,6,0,1,,,,,,,,,0,,,75,0
11340,note_on,54,0,3,,,,,,,,,2,,,56,62
11340,note_on,0,0,3,,,,,,,,,2,,,58,62
11340,note_on,54,0,1,,,,,,,,,0,,,70,75
11340,note_on,0,0,1,,,,,,,,,0,,,74,75
11340,note_on,0,0,3,,,,,,,,,2,,,62,62
11520,note_on,0,0,3,,,,,,,,,2,,,53,36
11520,note_on,0,0,3,,,,,,,,,2,,,45,36
11520,note_on,0,0,3,,,,,,,,,2,,,56,0
11520,note_on,0,0,3,,,,,,,,,2,,,58,0
11520,note_on,0,0,1,,,,,,,,,0,,,65,49
11520,note_on,180,0,3,,,,,,,,,2,,,62,0
11520,note_on,180,0,1,,,,,,,,,0,,,74,0
11520,note_on,0,0,1,,,,,,,,,0,,,63,49
11520,note_on,0,0,1,,,,,,,,,0,,,72,49
11520,note_on,0,0,1,,,,,,,,,0,,,70,0
11580,note_on,0,0,1,,,,,,,,,0,,,63,0
11580,note_on,60,0,1,,,,,,,,,0,,,72,0
11580,note_on,0,0,1,,,,,,,,,0,,,70,49
11580,note_on,60,0,3,,,,,,,,,2,,,45,0
11580,note_on,0,0,1,,,,,,,,,0,,,62,49
11580,note_on,0,0,3,,,,,,,,,2,,,46,36
11640,note_on,60,0,1,,,,,,,,,0,,,70,0
11640,note_on,0,0,1,,,,,,,,,0,,,62,0
11640,note_on,0,0,1,,,,,,,,,0,,,65,0
11640,note_on,0,0,1,,,,,,,,,0,,,57,49
11640,note_on,0,0,1,,,,,,,,,0,,,65,49
11640,note_on,60,0,3,,,,,,,,,2,,,46,0
11640,note_on,0,0,3,,,,,,,,,2,,,53,0
11640,note_on,0,0,3,,,,,,,,,2,,,48,36
11640,note_on,0,0,3,,,,,,,,,2,,,53,36
11700,note_on,60,0,3,,,,,,,,,2,,,53,0
11700,note_on,0,0,3,,,,,,,,,2,,,53,36
11700,note_on,0,0,3,,,,,,,,,2,,,46,36
11700,note_on,0,0,1,,,,,,,,,0,,,62,49
11700,note_on,0,0,1,,,,,,,,,0,,,57,0
11700,note_on,60,0,1,,,,,,,,,0,,,65,0
11700,note_on,0,0,3,,,,,,,,,2,,,48,0
11700,note_on,0,0,1,,,,,,,,,0,,,58,49
11880,note_on,0,0,1,,,,,,,,,0,,,57,36
11880,note_on,0,0,3,,,,,,,,,2,,,46,0
11880,note_on,0,0,3,,,,,,,,,2,,,41,36
11880,note_on,0,0,3,,,,,,,,,2,,,53,36
11880,note_on,0,0,1,,,,,,,,,0,,,60,36
11880,note_on,180,0,1,,,,,,,,,0,,,62,0
11880,note_on,0,0,1,,,,,,,,,0,,,58,0
11880,note_on,180,0,3,,,,,,,,,2,,,53,0
11940,note_on,0,0,3,,,,,,,,,2,,,41,0
11940,note_on,0,0,1,,,,,,,,,0,,,57,0
11940,note_on,60,0,1,,,,,,,,,0,,,60,0
11940,note_on,0,0,3,,,,,,,,,2,,,46,36
11940,note_on,0,0,3,,,,,,,,,2,,,53,36
11940,note_on,60,0,3,,,,,,,,,2,,,53,0
11940,note_on,0,0,1,,,,,,,,,0,,,62,36
11940,note_on,0,0,1,,,,,,,,,0,,,58,36
12000,note_on,0,0,1,,,,,,,,,0,,,58,0
12000,note_on,60,0,1,,,,,,,,,0,,,62,0
12000,note_on,0,0,1,,,,,,,,,0,,,63,36
12000,note_on,0,0,1,,,,,,,,,0,,,57,36
12000,note_on,0,0,3,,,,,,,,,2,,,53,36
12000,note_on,0,0,3,,,,,,,,,2,,,46,0
12000,note_on,60,0,3,,,,,,,,,2,,,53,0
12000,note_on,0,0,3,,,,,,,,,2,,,48,36
12060,note_on,0,0,3,,,,,,,,,2,,,53,36
12060,note_on,60,0,3,,,,,,,,,2,,,53,0
12060,note_on,0,0,3,,,,,,,,,2,,,48,0
12060,control_change,0,0,1,,,,,,,,,0,64,127,,
12060,note_on,0,0,1,,,,,,,,,0,,,62,36
12060,note_on,0,0,1,,,,,,,,,0,,,58,36
12060,note_on,0,0,1,,,,,,,,,0,,,57,0
12060,note_on,60,0,1,,,,,,,,,0,,,63,0
12060,note_on,0,0,3,,,,,,,,,2,,,46,36
12060,control_change,0,0,3,,,,,,,,,2,64,127,,
12120,note_on,60,0,3,,,,,,,,,2,,,53,0
12120,note_on,0,0,3,,,,,,,,,2,,,46,0
12120,note_on,0,0,3,,,,,,,,,2,,,65,36
12120,note_on,0,0,1,,,,,,,,,0,,,72,36
12120,note_on,0,0,3,,,,,,,,,2,,,53,36
12120,note_on,0,0,1,,,,,,,,,0,,,58,0
12120,note_on,60,0,1,,,,,,,,,0,,,62,0
12120,note_on,0,0,1,,,,,,,,,0,,,69,36
12180,note_on,60,0,1,,,,,,,,,0,,,72,0
12180,note_on,0,0,1,,,,,,,,,0,,,69,0
12180,note_on,0,0,1,,,,,,,,,0,,,70,36
12180,note_on,60,0,3,,,,,,,,,2,,,65,0
12180,note_on,0,0,3,,,,,,,,,2,,,53,0
12180,note_on,0,0,3,,,,,,,,,2,,,58,36
12180,note_on,0,0,3,,,,,,,,,2,,,65,36
12180,note_on,0,0,1,,,,,,,,,0,,,74,36
12240,note_on,60,0,3,,,,,,,,,2,,,65,0
12240,note_on,0,0,3,,,,,,,,,2,,,58,0
12240,note_on,0,0,3,,,,,,,,,2,,,60,36
12240,note_on,0,0,1,,,,,,,,,0,,,75,36
12240,note_on,0,0,1,,,,,,,,,0,,,69,36
12240,note_on,0,0,1,,,,,,,,,0,,,70,0
12240,note_on,60,0,1,,,,,,,,,0,,,74,0
12240,note_on,0,0,3,,,,,,,,,2,,,65,36
12300,control_change,0,0,1,,,,,,,,,0,64,0,,
12300,note_on,0,0,1,,,,,,,,,0,,,74,36
12300,note_on,60,0,1,,,,,,,,,0,,,75,0
12300,note_on,0,0,1,,,,,,,,,0,,,70,36
12300,note_on,0,0,3,,,,,,,,,2,,,65,36
12300,note_on,0,0,3,,,,,,,,,2,,,58,36
12300,control_change,0,0,3,,,,,,,,,2,64,0,,
12300,note_on,0,0,3,,,,,,,,,2,,,60,0
12300,note_on,60,0,3,,,,,,,,,2,,,65,0
12300,note_on,0,0,1,,,,,,,,,0,,,69,0
12360,note_on,0,0,3,,,,,,,,,2,,,41,36
12360,note_on,0,0,3,,,,,,,,,2,,,53,36
12360,note_on,60,0,3,,,,,,,,,2,,,65,0
12360,note_on,0,0,1,,,,,,,,,0,,,60,36
12360,note_on,0,0,1,,,,,,,,,0,,,57,36
12360,note_on,0,0,1,,,,,,,,,0,,,70,0
12360,note_on,60,0,1,,,,,,,,,0,,,74,0
12360,note_on,0,0,3,,,,,,,,,2,,,58,0
12420,note_on,1800,0,2,,,,,,,,,1,,,58,36
12420,note_on,0,0,1,,,,,,,,,0,,,57,0
12420,note_on,60,0,1,,,,,,,,,0,,,60,0
12420,note_on,0,0,1,,,,,,,,,0,,,62,36
12420,note_on,0,0,3,,,,,,,,,2,,,46,36
12420,control_change,0,0,3,,,,,,,,,2,64,127,,
12420,note_on,60,0,3,,,,,,,,,2,,,41,0
12420,control_change,0,0,1,,,,,,,,,0,64,127,,
12480,note_on,60,0,2,,,,,,,,,1,,,58,0
12480,note_on,0,0,2,,,,,,,,,1,,,57,36
12480,set_tempo,4740,1,0,,,,,,869565,,,,,,,
12480,note_on,60,0,1,,,,,,,,,0,,,62,0
12480,note_on,0,0,1,,,,,,,,,0,,,65,36
12480,note_on,60,0,3,,,,,,,,,2,,,46,0
12480,note_on,0,0,3,,,,,,,,,2,,,53,0
12480,note_on,0,0,3,,,,,,,,,2,,,48,36
12480,note_on,0,0,3,,,,,,,,,2,,,53,36
12510,note_on,30,0,1,,,,,,,,,0,,,65,0
12510,note_on,0,0,1,,,,,,,,,0,,,63,36
12540,note_on,0,0,1,,,,,,,,,0,,,62,36
12540,note_on,60,0,2,,,,,,,,,1,,,57,0
12540,note_on,30,0,1,,,,,,,,,0,,,63,0
12540,note_on,60,0,3,,,,,,,,,2,,,53,0
12540,note_on,0,0,3,,,,,,,,,2,,,48,0
12540,set_tempo,60,1,0,,,,,,909091,,,,,,,
12540,note_on,0,0,1,,,,,,,,,0,,,58,36
12540,note_on,0,0,3,,,,,,,,,2,,,46,36
12540,note_on,0,0,3,,,,,,,,,2,,,53,36
12600,control_change,0,0,3,,,,,,,,,2,64,0,,
12600,note_on,0,0,3,,,,,,,,,2,,,46,0
12600,note_on,60,0,3,,,,,,,,,2,,,53,0
12600,set_tempo,60,1,0,,,,,,952381,,,,,,,
12600,control_change,0,0,1,,,,,,,,,0,64,0,,
12600,note_on,0,0,1,,,,,,,,,0,,,62,62
12600,note_on,0,0,1,,,,,,,,,0,,,56,62
12600,note_on,0,0,1,,,,,,,,,0,,,53,62
12600,note_on,0,0,1,,,,,,,,,0,,,58,0
12600,note_on,60,0,1,,,,,,,,,0,,,62,0
12600,note_on,0,0,3,,,,,,,,,2,,,46,49
12606,note_on,6,0,3,,,,,,,,,2,,,46,0
12606,note_on,6,0,1,,,,,,,,,0,,,62,0
12606,note_on,0,0,1,,,,,,,,,0,,,56,0
12606,note_on,0,0,1,,,,,,,,,0,,,53,0
12660,note_on,0,0,1,,,,,,,,,0,,,62,75
12660,set_tempo,60,1,0,,,,,,1016949,,,,,,,
12660,note_on,54,0,1,,,,,,,,,0,,,53,75
12660,note_on,54,0,3,,,,,,,,,2,,,45,62
12660,note_on,0,0,1,,,,,,,,,0,,,57,75
12666,note_on,6,0,3,,,,,,,,,2,,,45,0
12666,note_on,0,0,1,,,,,,,,,0,,,53,0
12666,note_on,0,0,1,,,,,,,,,0,,,57,0
12666,note_on,6,0,1,,,,,,,,,0,,,62,0
12720,note_on,0,0,1,,,,,,,,,0,,,62,75
12720,note_on,54,0,1,,,,,,,,,0,,,52,75
12720,set_tempo,60,1,0,,,,,,1071429,,,,,,,
12720,note_on,54,0,3,,,,,,,,,2,,,44,62
12720,note_on,0,0,1,,,,,,,,,0,,,59,75
12726,note_on,6,0,3,,,,,,,,,2,,,44,0
12726,note_on,6,0,1,,,,,,,,,0,,,62,0
12726,note_on,0,0,1,,,,,,,,,0,,,59,0
12726,note_on,0,0,1,,,,,,,,,0,,,52,0
12780,note_on,54,0,1,,,,,,,,,0,,,62,88
12780,note_on,0,0,4,,,,,,,,,3,,,52,75
12780,set_tempo,60,1,0,,,,,,1132075,,,,,,,
12780,note_on,54,0,3,,,,,,,,,2,,,57,75
12780,note_on,12780,0,4,,,,,,,,,3,,,45,75
12786,note_on,0,0,4,,,,,,,,,3,,,45,0
12786,note_on,6,0,4,,,,,,,,,3,,,52,0
12810,note_on,30,0,1,,,,,,,,,0,,,62,0
12810,note_on,0,0,1,,,,,,,,,0,,,61,88
12840,note_on,0,0,1,,,,,,,,,0,,,59,88
12840,set_tempo,60,1,0,,,,,,1200000,,,,,,,
12840,note_on,0,0,4,,,,,,,,,3,,,50,75
12840,note_on,54,0,4,,,,,,,,,3,,,38,75
12840,note_on,60,0,3,,,,,,,,,2,,,57,0
12840,note_on,0,0,3,,,,,,,,,2,,,54,75
12840,note_on,30,0,1,,,,,,,,,0,,,61,0
12846,note_on,6,0,4,,,,,,,,,3,,,50,0
12846,note_on,0,0,4,,,,,,,,,3,,,38,0
12870,note_on,0,0,1,,,,,,,,,0,,,66,88
12870,note_on,30,0,1,,,,,,,,,0,,,59,0
12900,note_on,0,0,1,,,,,,,,,0,,,57,49
12900,note_on,0,0,1,,,,,,,,,0,,,61,49
12900,note_on,54,0,4,,,,,,,,,3,,,40,36
12900,set_tempo,60,1,0,,,,,,1304348,,,,,,,
12900,note_on,30,0,1,,,,,,,,,0,,,66,0
12900,note_on,0,0,4,,,,,,,,,3,,,49,36
12900,note_on,0,0,1,,,,,,,,,0,,,52,49
12900,note_on,60,0,3,,,,,,,,,2,,,54,0
13020,note_on,120,0,1,,,,,,,,,0,,,61,0
13020,note_on,0,0,1,,,,,,,,,0,,,57,0
13020,note_on,0,0,1,,,,,,,,,0,,,52,0
13020,note_on,0,0,1,,,,,,,,,0,,,61,49
13020,note_on,0,0,4,,,,,,,,,3,,,40,0
13020,note_on,120,0,4,,,,,,,,,3,,,49,0
13020,note_on,120,0,3,,,,,,,,,2,,,50,49
13020,note_on,0,0,4,,,,,,,,,3,,,40,36
13020,note_on,0,0,3,,,,,,,,,2,,,56,49
13080,note_on,0,0,1,,,,,,,,,0,,,59,49
13080,note_on,60,0,1,,,,,,,,,0,,,61,0
13125,note_on,0,0,1,,,,,,,,,0,,,57,49
13125,note_on,45,0,1,,,,,,,,,0,,,59,0
13140,note_on,15,0,1,,,,,,,,,0,,,57,0
13140,note_on,0,0,4,,,,,,,,,3,,,45,36
13140,note_on,0,0,4,,,,,,,,,3,,,33,36
13140,control_change,0,0,4,,,,,,,,,3,64,127,,
13140,note_on,120,0,4,,,,,,,,,3,,,40,0
13140,note_on,0,0,3,,,,,,,,,2,,,49,36
13140,note_on,0,0,3,,,,,,,,,2,,,50,0
13140,note_on,120,0,3,,,,,,,,,2,,,56,0
13140,note_on,0,0,1,,,,,,,,,0,,,57,49
13140,control_change,0,0,1,,,,,,,,,0,64,127,,
13140,set_tempo,240,1,0,,,,,,833333,,,,,,,
13230,note_on,90,0,1,,,,,,,,,0,,,57,0
13230,note_on,0,0,1,,,,,,,,,0,,,61,49
13260,note_on,120,0,3,,,,,,,,,2,,,49,0
13260,note_on,30,0,1,,,,,,,,,0,,,61,0
13260,note_on,0,0,1,,,,,,,,,0,,,64,49
13290,note_on,30,0,1,,,,,,,,,0,,,64,0
13290,note_on,0,0,1,,,,,,,,,0,,,69,49
13320,note_on,30,0,1,,,,,,,,,0,,,69,0
13320,note_on,0,0,1,,,,,,,,,0,,,73,49
13320,note_on,0,0,4,,,,,,,,,3,,,64,36
13320,note_on,180,0,4,,,,,,,,,3,,,45,0
13320,note_on,0,0,4,,,,,,,,,3,,,57,36
13320,note_on,0,0,4,,,,,,,,,3,,,33,0
13350,note_on,30,0,1,,,,,,,,,0,,,73,0
13350,note_on,0,0,1,,,,,,,,,0,,,76,49
13380,control_change,0,0,4,,,,,,,,,3,64,0,,
13380,note_on,30,0,1,,,,,,,,,0,,,76,0
13380,control_change,0,0,1,,,,,,,,,0,64,0,,
13380,note_on,0,0,1,,,,,,,,,0,,,74,49
13380,note_on,0,0,1,,,,,,,,,0,,,78,49
13380,note_on,0,0,4,,,,,,,,,3,,,66,36
13380,note_on,60,0,4,,,,,,,,,3,,,64,0
13386,note_on,0,0,1,,,,,,,,,0,,,74,0
13386,note_on,6,0,1,,,,,,,,,0,,,78,0
13440,note_on,0,0,4,,,,,,,,,3,,,63,36
13440,note_on,0,0,4,,,,,,,,,3,,,57,36
13440,note_on,54,0,1,,,,,,,,,0,,,72,49
13440,note_on,0,0,1,,,,,,,,,0,,,75,49
13440,note_on,0,0,4,,,,,,,,,3,,,57,0
13440,note_on,60,0,4,,,,,,,,,3,,,66,0
13446,note_on,6,0,4,,,,,,,,,3,,,63,0
13446,note_on,0,0,1,,,,,,,,,0,,,72,0
13446,note_on,0,0,4,,,,,,,,,3,,,57,0
13446,note_on,6,0,1,,,,,,,,,0,,,75,0
13500,control_change,54,0,1,,,,,,,,,0,64,127,,
13500,note_on,0,0,1,,,,,,,,,0,,,73,67
13500,note_on,0,0,1,,,,,,,,,0,,,76,75
13500,note_on,240,0,3,,,,,,,,,2,,,57,54
13500,note_on,0,0,3,,,,,,,,,2,,,64,62
13680,note_on,1140,0,2,,,,,,,,,1,,,57,36
13680,note_on,180,0,1,,,,,,,,,0,,,76,0
13680,note_on,0,0,1,,,,,,,,,0,,,73,0
13680,note_on,0,0,1,,,,,,,,,0,,,73,49
13680,note_on,0,0,1,,,,,,,,,0,,,76,49
13680,note_on,0,0,1,,,,,,,,,0,,,81,49
13680,note_on,180,0,3,,,,,,,,,2,,,64,0
13680,note_on,0,0,3,,,,,,,,,2,,,57,0
13680,note_on,0,0,2,,,,,,,,,1,,,64,36
13680,note_on,0,0,2,,,,,,,,,1,,,69,36
13740,note_on,0,0,2,,,,,,,,,1,,,71,36
13740,note_on,60,0,2,,,,,,,,,1,,,69,0
13740,note_on,0,0,1,,,,,,,,,0,,,83,49
13740,control_change,0,0,1,,,,,,,,,0,64,0,,
13740,note_on,60,0,1,,,,,,,,,0,,,81,0
13800,note_on,0,0,1,,,,,,,,,0,,,85,49
13800,note_on,0,0,2,,,,,,,,,1,,,69,36
13800,note_on,0,0,2,,,,,,,,,1,,,57,0
13800,note_on,0,0,2,,,,,,,,,1,,,64,0
13800,note_on,60,0,2,,,,,,,,,1,,,71,0
13800,note_on,0,0,1,,,,,,,,,0,,,73,49
13800,note_on,0,0,1,,,,,,,,,0,,,73,0
13800,note_on,0,0,1,,,,,,,,,0,,,76,0
13800,note_on,0,0,1,,,,,,,,,0,,,77,49
13800,note_on,0,0,2,,,,,,,,,1,,,65,36
13800,note_on,60,0,1,,,,,,,,,0,,,83,0
13800,note_on,0,0,2,,,,,,,,,1,,,57,36
13806,note_on,0,0,1,,,,,,,,,0,,,73,0
13806,note_on,0,0,1,,,,,,,,,0,,,77,0
13806,note_on,6,0,1,,,,,,,,,0,,,85,0
13806,note_on,6,0,2,,,,,,,,,1,,,69,0
13806,note_on,0,0,2,,,,,,,,,1,,,65,0
13806,note_on,0,0,2,,,,,,,,,1,,,57,0
13860,note_on,0,0,1,,,,,,,,,0,,,85,75
13860,note_on,0,0,2,,,,,,,,,1,,,70,62
13860,note_on,0,0,2,,,,,,,,,1,,,66,57
13860,note_on,54,0,2,,,,,,,,,1,,,62,52
13860,note_on,0,0,1,,,,,,,,,0,,,78,70
13860,note_on,54,0,1,,,,,,,,,0,,,74,65
13980,note_on,120,0,1,,,,,,,,,0,,,85,0
13980,note_on,120,0,2,,,,,,,,,1,,,70,0
13980,note_on,0,0,2,,,,,,,,,1,,,71,36
13980,note_on,0,0,1,,,,,,,,,0,,,83,49
14040,note_on,60,0,1,,,,,,,,,0,,,83,0
14040,note_on,360,0,3,,,,,,,,,2,,,50,36
14040,note_on,0,0,1,,,,,,,,,0,,,78,0
14040,note_on,0,0,1,,,,,,,,,0,,,74,0
14040,note_on,0,0,1,,,,,,,,,0,,,62,49
14040,note_on,0,0,1,,,,,,,,,0,,,69,49
14040,note_on,60,0,2,,,,,,,,,1,,,71,0
14040,note_on,0,0,2,,,,,,,,,1,,,66,0
14040,note_on,0,0,2,,,,,,,,,1,,,62,0
14040,note_on,0,0,3,,,,,,,,,2,,,54,36
14100,note_on,0,0,1,,,,,,,,,0,,,68,49
14100,note_on,0,0,3,,,,,,,,,2,,,50,0
14100,note_on,60,0,3,,,,,,,,,2,,,54,0
14100,note_on,60,0,1,,,,,,,,,0,,,69,0
14100,note_on,0,0,3,,,,,,,,,2,,,52,36
14100,note_on,0,0,3,,,,,,,,,2,,,56,36
14160,note_on,60,0,3,,,,,,,,,2,,,56,0
14160,note_on,60,0,1,,,,,,,,,0,,,68,0
14160,note_on,0,0,3,,,,,,,,,2,,,57,36
14160,note_on,0,0,3,,,,,,,,,2,,,54,36
14160,note_on,0,0,3,,,,,,,,,2,,,52,0
14160,note_on,0,0,1,,,,,,,,,0,,,66,49
14160,note_on,0,0,1,,,,,,,,,0,,,62,49
14160,note_on,0,0,1,,,,,,,,,0,,,62,0
14166,note_on,0,0,3,,,,,,,,,2,,,54,0
14166,note_on,6,0,3,,,,,,,,,2,,,57,0
14166,note_on,0,0,1,,,,,,,,,0,,,62,0
14166,note_on,6,0,1,,,,,,,,,0,,,66,0
14220,note_on,0,0,1,,,,,,,,,0,,,62,67
14220,note_on,0,0,3,,,,,,,,,2,,,44,54
14220,control_change,54,0,1,,,,,,,,,0,64,127,,
14220,note_on,0,0,1,,,,,,,,,0,,,64,75
14220,note_on,0,0,3,,,,,,,,,2,,,52,62
14220,control_change,54,0,3,,,,,,,,,2,64,127,,
14400,note_on,0,0,1,,,,,,,,,0,,,62,0
14400,note_on,0,0,3,,,,,,,,,2,,,56,36
14400,note_on,0,0,3,,,,,,,,,2,,,44,0
14400,note_on,180,0,3,,,,,,,,,2,,,52,0
14400,note_on,0,0,1,,,,,,,,,0,,,76,49
14400,note_on,0,0,1,,,,,,,,,0,,,74,49
14400,note_on,0,0,3,,,,,,,,,2,,,64,36
14400,note_on,180,0,1,,,,,,,,,0,,,64,0
14430,note_on,30,0,1,,,,,,,,,0,,,78,49
14445,note_on,0,0,1,,,,,,,,,0,,,80,49
14445,note_on,15,0,1,,,,,,,,,0,,,78,0
14460,note_on,0,0,1,,,,,,,,,0,,,78,49
14460,note_on,0,0,1,,,,,,,,,0,,,76,0
14460,note_on,15,0,1,,,,,,,,,0,,,80,0
14460,note_on,60,0,3,,,,,,,,,2,,,64,0
14460,note_on,0,0,3,,,,,,,,,2,,,66,36
14520,note_on,60,0,3,,,,,,,,,2,,,66,0
14520,note_on,0,0,3,,,,,,,,,2,,,64,36
14520,note_on,0,0,3,,,,,,,,,2,,,56,36
14520,control_change,0,0,3,,,,,,,,,2,64,0,,
14520,note_on,0,0,3,,,,,,,,,2,,,56,0
14520,note_on,60,0,1,,,,,,,,,0,,,78,0
14520,note_on,0,0,1,,,,,,,,,0,,,74,0
14520,note_on,0,0,1,,,,,,,,,0,,,76,49
14520,note_on,0,0,1,,,,,,,,,0,,,74,49
14520,control_change,0,0,1,,,,,,,,,0,64,0,,
14526,note_on,6,0,1,,,,,,,,,0,,,76,0
14526,note_on,0,0,3,,,,,,,,,2,,,56,0
14526,note_on,0,0,1,,,,,,,,,0,,,74,0
14526,note_on,6,0,3,,,,,,,,,2,,,64,0
14580,note_on,54,0,1,,,,,,,,,0,,,74,49
14580,note_on,0,0,1,,,,,,,,,0,,,78,49
14580,note_on,0,0,3,,,,,,,,,2,,,66,36
14580,note_on,54,0,3,,,,,,,,,2,,,57,36
14700,note_on,120,0,1,,,,,,,,,0,,,78,0
14700,note_on,0,0,1,,,,,,,,,0,,,74,0
14700,note_on,0,0,1,,,,,,,,,0,,,73,49
14700,note_on,0,0,1,,,,,,,,,0,,,76,49
14700,note_on,120,0,3,,,,,,,,,2,,,66,0
14700,note_on,0,0,3,,,,,,,,,2,,,64,36
14760,note_on,0,0,3,,,,,,,,,2,,,57,0
14760,note_on,0,0,3,,,,,,,,,2,,,49,49
14760,note_on,0,0,3,,,,,,,,,2,,,47,49
14760,note_on,60,0,3,,,,,,,,,2,,,64,0
14760,note_on,60,0,1,,,,,,,,,0,,,76,0
14760,note_on,0,0,1,,,,,,,,,0,,,73,0
14760,note_on,0,0,1,,,,,,,,,0,,,61,62
14760,note_on,0,0,1,,,,,,,,,0,,,59,62
14820,note_on,0,0,3,,,,,,,,,2,,,45,62
14820,note_on,0,0,1,,,,,,,,,0,,,57,75
14820,note_on,0,0,1,,,,,,,,,0,,,66,75
14820,note_on,60,0,3,,,,,,,,,2,,,47,0
14820,note_on,60,0,1,,,,,,,,,0,,,59,0
14820,note_on,0,0,3,,,,,,,,,2,,,54,62
14880,note_on,60,0,1,,,,,,,,,0,,,66,0
14880,note_on,0,0,1,,,,,,,,,0,,,57,0
14880,note_on,0,0,1,,,,,,,,,0,,,61,0
14880,note_on,0,0,1,,,,,,,,,0,,,65,88
14880,note_on,0,0,1,,,,,,,,,0,,,59,88
14880,note_on,0,0,3,,,,,,,,,2,,,45,0
14880,note_on,0,0,3,,,,,,,,,2,,,49,0
14880,note_on,0,0,3,,,,,,,,,2,,,44,75
14880,note_on,0,0,3,,,,,,,,,2,,,49,75
14880,note_on,0,0,3,,,,,,,,,2,,,53,75
14880,note_on,0,0,1,,,,,,,,,0,,,61,88
14880,note_on,60,0,3,,,,,,,,,2,,,54,0
14886,note_on,6,0,3,,,,,,,,,2,,,53,0
14886,note_on,0,0,3,,,,,,,,,2,,,49,0
14886,note_on,0,0,3,,,,,,,,,2,,,44,0
14886,note_on,0,0,1,,,,,,,,,0,,,59,0
14886,note_on,0,0,1,,,,,,,,,0,,,61,0
14886,note_on,6,0,1,,,,,,,,,0,,,65,0
14940,note_on,54,0,1,,,,,,,,,0,,,57,114
14940,note_on,54,0,3,,,,,,,,,2,,,42,101
14940,note_on,0,0,3,,,,,,,,,2,,,50,101
14940,note_on,0,0,3,,,,,,,,,2,,,45,101
14940,note_on,0,0,1,,,,,,,,,0,,,62,114
14940,note_on,0,0,3,,,,,,,,,2,,,54,101
14940,note_on,0,0,1,,,,,,,,,0,,,66,114
15120,note_on,0,0,3,,,,,,,,,2,,,50,0
15120,note_on,180,0,3,,,,,,,,,2,,,54,0
15120,note_on,0,0,1,,,,,,,,,0,,,62,0
15120,note_on,0,0,1,,,,,,,,,0,,,57,0
15120,note_on,0,0,1,,,,,,,,,0,,,69,49
15120,note_on,0,0,3,,,,,,,,,2,,,54,36
15120,note_on,0,0,3,,,,,,,,,2,,,57,36
15120,note_on,0,0,3,,,,,,,,,2,,,42,0
15120,note_on,180,0,1,,,,,,,,,0,,,66,0
15120,note_on,0,0,3,,,,,,,,,2,,,45,0
15180,note_on,0,0,3,,,,,,,,,2,,,52,36
15180,note_on,0,0,1,,,,,,,,,0,,,67,49
15180,note_on,0,0,1,,,,,,,,,0,,,71,49
15180,note_on,60,0,3,,,,,,,,,2,,,54,0
15180,note_on,60,0,1,,,,,,,,,0,,,69,0
15240,note_on,60,0,1,,,,,,,,,0,,,71,0
15240,note_on,0,0,1,,,,,,,,,0,,,67,0
15240,note_on,0,0,1,,,,,,,,,0,,,67,49
15240,note_on,0,0,1,,,,,,,,,0,,,69,49
15240,note_on,0,0,1,,,,,,,,,0,,,73,49
15240,note_on,0,0,3,,,,,,,,,2,,,57,0
15240,note_on,60,0,3,,,,,,,,,2,,,52,0
15240,note_on,0,0,3,,,,,,,,,2,,,57,36
15246,note_on,0,0,1,,,,,,,,,0,,,69,0
15246,note_on,0,0,1,,,,,,,,,0,,,67,0
15246,note_on,6,0,1,,,,,,,,,0,,,73,0
15246,note_on,6,0,3,,,,,,,,,2,,,57,0
15300,note_on,54,0,3,,,,,,,,,2,,,50,101
15300,note_on,0,0,3,,,,,,,,,2,,,58,101
15300,note_on,0,0,3,,,,,,,,,2,,,61,101
15300,note_on,54,0,1,,,,,,,,,0,,,67,114
15300,note_on,0,0,1,,,,,,,,,0,,,70,114
15300,note_on,0,0,1,,,,,,,,,0,,,73,114
15300,note_on,0,0,1,,,,,,,,,0,,,76,114
15660,note_on,0,0,1,,,,,,,,,0,,,71,75
15660,note_on,360,0,1,,,,,,,,,0,,,76,0
15660,note_on,0,0,1,,,,,,,,,0,,,73,0
15660,note_on,0,0,1,,,,,,,,,0,,,70,0
15660,note_on,360,0,3,,,,,,,,,2,,,61,0
15660,note_on,0,0,1,,,,,,,,,0,,,74,75
15660,note_on,0,0,3,,,,,,,,,2,,,58,0
15660,note_on,0,0,3,,,,,,,,,2,,,62,62
15660,note_on,0,0,3,,,,,,,,,2,,,59,62
15720,note_on,60,0,3,,,,,,,,,2,,,62,0
15720,note_on,0,0,3,,,,,,,,,2,,,59,0
15720,note_on,0,0,3,,,,,,,,,2,,,50,0
15720,note_on,0,0,1,,,,,,,,,0,,,67,0
15720,note_on,0,0,1,,,,,,,,,0,,,71,0
15720,note_on,60,0,1,,,,,,,,,0,,,74,0
16020,note_on,1980,0,2,,,,,,,,,1,,,62,36
16020,note_on,0,0,2,,,,,,,,,1,,,66,36
16020,note_on,0,0,3,,,,,,,,,2,,,57,36
16020,note_on,300,0,3,,,,,,,,,2,,,50,36
16020,note_on,0,0,1,,,,,,,,,0,,,72,36
16020,control_change,300,0,1,,,,,,,,,0,64,127,,
16200,note_on,180,0,1,,,,,,,,,0,,,74,36
16215,note_on,0,0,1,,,,,,,,,0,,,72,36
16215,note_on,15,0,1,,,,,,,,,0,,,74,0
16230,note_on,0,0,1,,,,,,,,,0,,,71,36
16230,note_on,15,0,1,,,,,,,,,0,,,72,0
16245,note_on,15,0,1,,,,,,,,,0,,,71,0
16245,note_on,0,0,1,,,,,,,,,0,,,72,36
16260,note_on,0,0,1,,,,,,,,,0,,,71,36
16260,note_on,15,0,1,,,,,,,,,0,,,72,0
16260,note_on,0,0,1,,,,,,,,,0,,,72,0
16290,note_on,30,0,1,,,,,,,,,0,,,71,0
16290,note_on,0,0,1,,,,,,,,,0,,,72,36
16320,note_on,0,0,1,,,,,,,,,0,,,76,36
16320,note_on,30,0,1,,,,,,,,,0,,,72,0
16350,note_on,30,0,1,,,,,,,,,0,,,76,0
16350,control_change,0,0,1,,,,,,,,,0,64,0,,
16350,note_on,0,0,1,,,,,,,,,0,,,74,36
16380,note_on,30,0,1,,,,,,,,,0,,,74,0
16380,note_on,0,0,1,,,,,,,,,0,,,67,36
16380,note_on,360,0,2,,,,,,,,,1,,,66,0
16380,note_on,0,0,2,,,,,,,,,1,,,62,0
16380,note_on,360,0,3,,,,,,,,,2,,,57,0
16380,note_on,0,0,3,,,,,,,,,2,,,50,0
16380,note_on,0,0,3,,,,,,,,,2,,,43,36
16380,note_on,0,0,3,,,,,,,,,2,,,55,36
16380,note_on,0,0,1,,,,,,,,,0,,,71,36
16440,note_on,0,0,3,,,,,,,,,2,,,43,0
16440,note_on,60,0,1,,,,,,,,,0,,,71,0
16440,note_on,0,0,1,,,,,,,,,0,,,67,0
16440,note_on,60,0,3,,,,,,,,,2,,,55,0
16545,note_on,105,0,1,,,,,,,,,0,,,71,36
16560,note_on,0,0,1,,,,,,,,,0,,,67,57
16560,note_on,0,0,1,,,,,,,,,0,,,62,52
16560,note_on,0,0,1,,,,,,,,,0,,,74,62
16560,note_on,15,0,1,,,,,,,,,0,,,71,0
16560,note_on,120,0,3,,,,,,,,,2,,,47,36
16620,note_on,60,0,1,,,,,,,,,0,,,74,0
16620,note_on,0,0,1,,,,,,,,,0,,,67,0
16620,note_on,0,0,1,,,,,,,,,0,,,69,36
16620,note_on,0,0,1,,,,,,,,,0,,,73,36
16620,note_on,0,0,3,,,,,,,,,2,,,49,36
16620,note_on,0,0,3,,,,,,,,,2,,,45,36
16620,note_on,60,0,3,,,,,,,,,2,,,47,0
16680,note_on,0,0,3,,,,,,,,,2,,,45,0
16680,note_on,60,0,3,,,,,,,,,2,,,49,0
16680,note_on,0,0,3,,,,,,,,,2,,,43,36
16680,note_on,0,0,1,,,,,,,,,0,,,71,36
16680,note_on,0,0,1,,,,,,,,,0,,,62,36
16680,note_on,0,0,1,,,,,,,,,0,,,62,0
16680,note_on,0,0,1,,,,,,,,,0,,,69,0
16680,note_on,60,0,1,,,,,,,,,0,,,73,0
16680,note_on,0,0,3,,,,,,,,,2,,,50,36
16686,note_on,0,0,1,,,,,,,,,0,,,62,0
16686,note_on,6,0,1,,,,,,,,,0,,,71,0
16686,note_on,0,0,3,,,,,,,,,2,,,43,0
16686,note_on,6,0,3,,,,,,,,,2,,,50,0
16740,note_on,0,0,1,,,,,,,,,0,,,69,62
16740,note_on,0,0,3,,,,,,,,,2,,,50,62
16740,note_on,54,0,3,,,,,,,,,2,,,42,54
16740,note_on,54,0,1,,,,,,,,,0,,,62,54
16920,note_on,0,0,1,,,,,,,,,0,,,62,36
16920,note_on,0,0,3,,,,,,,,,2,,,42,0
16920,note_on,0,0,3,,,,,,,,,2,,,54,36
16920,note_on,0,0,3,,,,,,,,,2,,,57,36
16920,note_on,0,0,1,,,,,,,,,0,,,62,0
16920,note_on,180,0,1,,,,,,,,,0,,,69,0
16920,note_on,180,0,3,,,,,,,,,2,,,50,0
16920,note_on,0,0,1,,,,,,,,,0,,,69,36
16980,note_on,0,0,1,,,,,,,,,0,,,64,49
16980,note_on,0,0,3,,,,,,,,,2,,,52,36
16980,note_on,0,0,1,,,,,,,,,0,,,68,49
16980,note_on,60,0,3,,,,,,,,,2,,,54,0
16980,note_on,0,0,1,,,,,,,,,0,,,62,0
16980,note_on,60,0,1,,,,,,,,,0,,,69,0
16980,note_on,0,0,3,,,,,,,,,2,,,56,36
17040,note_on,0,0,1,,,,,,,,,0,,,64,0
17040,note_on,60,0,3,,,,,,,,,2,,,56,0
17040,note_on,0,0,3,,,,,,,,,2,,,57,0
17040,note_on,60,0,1,,,,,,,,,0,,,68,0
17040,note_on,0,0,3,,,,,,,,,2,,,52,0
17040,note_on,0,0,3,,,,,,,,,2,,,50,49
17040,note_on,0,0,3,,,,,,,,,2,,,57,49
17040,note_on,0,0,1,,,,,,,,,0,,,66,62
17046,note_on,6,0,1,,,,,,,,,0,,,66,0
17046,note_on,0,0,3,,,,,,,,,2,,,50,0
17046,note_on,6,0,3,,,,,,,,,2,,,57,0
17100,note_on,0,0,3,,,,,,,,,2,,,57,49
17100,note_on,54,0,3,,,,,,,,,2,,,49,49
17100,note_on,54,0,1,,,,,,,,,0,,,64,62
17106,note_on,0,0,3,,,,,,,,,2,,,49,0
17106,note_on,6,0,1,,,,,,,,,0,,,64,0
17106,note_on,6,0,3,,,,,,,,,2,,,57,0
17160,note_on,0,0,1,,,,,,,,,0,,,69,75
17160,note_on,54,0,1,,,,,,,,,0,,,63,75
17160,note_on,0,0,3,,,,,,,,,2,,,59,62
17160,note_on,54,0,3,,,,,,,,,2,,,54,62
17160,note_on,0,0,3,,,,,,,,,2,,,57,62
17166,note_on,0,0,1,,,,,,,,,0,,,63,0
17166,note_on,6,0,1,,,,,,,,,0,,,69,0
17166,note_on,6,0,3,,,,,,,,,2,,,59,0
17166,note_on,0,0,3,,,,,,,,,2,,,54,0
17166,note_on,0,0,3,,,,,,,,,2,,,57,0
17220,note_on,54,0,1,,,,,,,,,0,,,64,88
17220,note_on,0,0,1,,,,,,,,,0,,,69,88
17220,note_on,0,0,1,,,,,,,,,0,,,73,88
17220,note_on,0,0,3,,,,,,,,,2,,,61,75
17220,note_on,0,0,3,,,,,,,,,2,,,57,75
17220,note_on,54,0,3,,,,,,,,,2,,,52,75
17340,note_on,0,0,3,,,,,,,,,2,,,52,75
17340,note_on,0,0,3,,,,,,,,,2,,,40,75
17340,note_on,0,0,3,,,,,,,,,2,,,52,0
17340,note_on,0,0,2,,,,,,,,,1,,,68,75
17340,note_on,0,0,2,,,,,,,,,1,,,64,75
17340,note_on,0,0,3,,,,,,,,,2,,,57,0
17340,note_on,120,0,3,,,,,,,,,2,,,61,0
17340,note_on,960,0,2,,,,,,,,,1,,,62,75
17340,note_on,0,0,1,,,,,,,,,0,,,73,88
17340,note_on,120,0,1,,,,,,,,,0,,,73,0
17340,note_on,0,0,1,,,,,,,,,0,,,69,0
17340,note_on,0,0,1,,,,,,,,,0,,,64,0
17430,note_on,0,0,1,,,,,,,,,0,,,71,88
17430,note_on,90,0,1,,,,,,,,,0,,,73,0
17460,note_on,0,0,2,,,,,,,,,1,,,62,0
17460,note_on,0,0,2,,,,,,,,,1,,,64,0
17460,note_on,120,0,2,,,,,,,,,1,,,68,0
17460,note_on,0,0,3,,,,,,,,,2,,,45,75
17460,note_on,30,0,1,,,,,,,,,0,,,71,0
17460,control_change,0,0,1,,,,,,,,,0,64,127,,
17460,note_on,0,0,1,,,,,,,,,0,,,61,88
17460,note_on,0,0,1,,,,,,,,,0,,,64,88
17460,note_on,0,0,1,,,,,,,,,0,,,69,88
17460,note_on,120,0,3,,,,,,,,,2,,,52,0
17460,note_on,0,0,3,,,,,,,,,2,,,40,0
17460,note_on,0,0,3,,,,,,,,,2,,,52,75
17640,note_on,180,0,3,,,,,,,,,2,,,52,0
17640,note_on,0,0,3,,,,,,,,,2,,,45,0
17640,note_on,0,0,1,,,,,,,,,0,,,69,88
17640,note_on,0,0,1,,,,,,,,,0,,,61,0
17640,note_on,0,0,1,,,,,,,,,0,,,64,0
17640,note_on,180,0,1,,,,,,,,,0,,,69,0
17700,note_on,0,0,1,,,,,,,,,0,,,74,88
17700,note_on,0,0,1,,,,,,,,,0,,,66,88
17700,note_on,60,0,1,,,,,,,,,0,,,69,0
17704,note_on,0,0,1,,,,,,,,,0,,,66,0
17704,note_on,4,0,1,,,,,,,,,0,,,74,0
17730,control_change,26,0,1,,,,,,,,,0,64,0,,
17730,note_on,0,0,1,,,,,,,,,0,,,66,88
17730,note_on,0,0,1,,,,,,,,,0,,,74,88
17760,note_on,0,0,3,,,,,,,,,2,,,57,75
17760,control_change,120,0,3,,,,,,,,,2,64,127,,
17790,control_change,0,0,1,,,,,,,,,0,64,127,,
17790,note_on,60,0,1,,,,,,,,,0,,,74,0
17790,note_on,0,0,3,,,,,,,,,2,,,61,75
17790,note_on,30,0,3,,,,,,,,,2,,,57,0
17790,note_on,0,0,1,,,,,,,,,0,,,76,88
17790,note_on,0,0,1,,,,,,,,,0,,,69,88
17790,note_on,0,0,1,,,,,,,,,0,,,66,0
17820,note_on,0,0,1,,,,,,,,,0,,,78,88
17820,note_on,0,0,1,,,,,,,,,0,,,74,88
17820,note_on,30,0,1,,,,,,,,,0,,,76,0
17820,note_on,0,0,3,,,,,,,,,2,,,62,75
17820,note_on,30,0,3,,,,,,,,,2,,,61,0
17820,note_on,0,0,1,,,,,,,,,0,,,69,0
17826,note_on,6,0,1,,,,,,,,,0,,,78,0
17826,note_on,0,0,1,,,,,,,,,0,,,74,0
17850,note_on,0,0,3,,,,,,,,,2,,,50,101
17850,note_on,30,0,3,,,,,,,,,2,,,62,0
17880,note_on,0,0,1,,,,,,,,,0,,,78,114
17880,note_on,54,0,1,,,,,,,,,0,,,74,106
17910,note_on,60,0,3,,,,,,,,,2,,,50,0
17910,note_on,0,0,3,,,,,,,,,2,,,38,75
17940,note_on,0,0,3,,,,,,,,,2,,,50,75
17940,note_on,30,0,3,,,,,,,,,2,,,38,0
17970,note_on,90,0,1,,,,,,,,,0,,,78,0
17970,note_on,0,0,1,,,,,,,,,0,,,74,0
17970,note_on,0,0,1,,,,,,,,,0,,,74,106
17970,note_on,0,0,1,,,,,,,,,0,,,78,114
17970,note_on,30,0,3,,,,,,,,,2,,,50,0
18000,note_on,30,0,3,,,,,,,,,2,,,57,101
18030,note_on,60,0,1,,,,,,,,,0,,,78,0
18030,note_on,0,0,1,,,,,,,,,0,,,74,0
18030,note_on,0,0,1,,,,,,,,,0,,,69,88
18030,note_on,0,0,1,,,,,,,,,0,,,76,88
18030,control_change,0,0,1,,,,,,,,,0,64,0,,
18030,note_on,0,0,3,,,,,,,,,2,,,61,75
18030,control_change,0,0,3,,,,,,,,,2,64,0,,
18030,note_on,30,0,3,,,,,,,,,2,,,57,0
18060,note_on,30,0,1,,,,,,,,,0,,,76,0
18060,note_on,0,0,1,,,,,,,,,0,,,66,88
18060,note_on,0,0,1,,,,,,,,,0,,,74,88
18060,note_on,30,0,3,,,,,,,,,2,,,61,0
18060,note_on,0,0,3,,,,,,,,,2,,,59,75
18060,note_on,0,0,1,,,,,,,,,0,,,69,0
18090,note_on,0,0,1,,,,,,,,,0,,,66,0
18090,note_on,0,0,1,,,,,,,,,0,,,71,106
18090,note_on,0,0,1,,,,,,,,,0,,,74,114
18090,note_on,30,0,3,,,,,,,,,2,,,59,0
18090,note_on,30,0,1,,,,,,,,,0,,,74,0
18120,note_on,30,0,3,,,,,,,,,2,,,54,101
18150,note_on,60,0,1,,,,,,,,,0,,,74,0
18150,note_on,0,0,1,,,,,,,,,0,,,71,0
18150,note_on,0,0,1,,,,,,,,,0,,,66,88
18150,note_on,0,0,1,,,,,,,,,0,,,73,88
18150,note_on,30,0,3,,,,,,,,,2,,,54,0
18150,note_on,0,0,3,,,,,,,,,2,,,57,75
18180,control_change,0,0,1,,,,,,,,,0,64,127,,
18180,note_on,30,0,1,,,,,,,,,0,,,73,0
18180,note_on,0,0,3,,,,,,,,,2,,,55,75
18180,note_on,30,0,3,,,,,,,,,2,,,57,0
18180,control_change,0,0,3,,,,,,,,,2,64,127,,
18180,note_on,0,0,1,,,,,,,,,0,,,71,88
18180,note_on,0,0,1,,,,,,,,,0,,,66,0
18180,note_on,0,0,1,,,,,,,,,0,,,62,88
18186,note_on,6,0,1,,,,,,,,,0,,,71,0
18186,note_on,0,0,1,,,,,,,,,0,,,62,0
18210,note_on,0,0,3,,,,,,,,,2,,,43,101
18210,note_on,30,0,3,,,,,,,,,2,,,55,0
18240,note_on,0,0,1,,,,,,,,,0,,,71,114
18240,note_on,54,0,1,,,,,,,,,0,,,62,106
18270,note_on,60,0,3,,,,,,,,,2,,,43,0
18270,note_on,0,0,3,,,,,,,,,2,,,31,75
18300,note_on,0,0,3,,,,,,,,,2,,,43,75
18300,note_on,30,0,3,,,,,,,,,2,,,31,0
18330,note_on,0,0,3,,,,,,,,,2,,,47,75
18330,note_on,30,0,3,,,,,,,,,2,,,43,0
18360,note_on,0,0,1,,,,,,,,,0,,,62,0
18360,note_on,120,0,1,,,,,,,,,0,,,71,0
18360,note_on,0,0,3,,,,,,,,,2,,,43,75
18360,note_on,30,0,3,,,,,,,,,2,,,47,0
18360,note_on,0,0,1,,,,,,,,,0,,,71,88
18390,note_on,0,0,3,,,,,,,,,2,,,42,75
18390,note_on,30,0,3,,,,,,,,,2,,,43,0
18420,control_change,0,0,1,,,,,,,,,0,64,0,,
18420,note_on,0,0,1,,,,,,,,,0,,,76,88
18420,note_on,0,0,3,,,,,,,,,2,,,40,75
18420,control_change,0,0,3,,,,,,,,,2,64,0,,
18420,note_on,30,0,3,,,,,,,,,2,,,42,0
18420,note_on,60,0,1,,,,,,,,,0,,,71,0
18420,note_on,0,0,1,,,,,,,,,0,,,67,88
18450,note_on,30,0,1,,,,,,,,,0,,,76,0
18450,note_on,0,0,1,,,,,,,,,0,,,67,0
18450,note_on,0,0,1,,,,,,,,,0,,,67,88
18450,note_on,0,0,1,,,,,,,,,0,,,76,88
18450,note_on,30,0,3,,,,,,,,,2,,,40,0
18480,note_on,30,0,3,,,,,,,,,2,,,59,75
18510,note_on,0,0,1,,,,,,,,,0,,,71,88
18510,note_on,0,0,3,,,,,,,,,2,,,63,75
18510,note_on,30,0,3,,,,,,,,,2,,,59,0
18510,note_on,0,0,1,,,,,,,,,0,,,78,88
18510,note_on,0,0,1,,,,,,,,,0,,,67,0
18510,note_on,60,0,1,,,,,,,,,0,,,76,0
18540,note_on,30,0,3,,,,,,,,,2,,,63,0
18540,note_on,0,0,3,,,,,,,,,2,,,64,75
18540,note_on,0,0,1,,,,,,,,,0,,,79,88
18540,note_on,0,0,1,,,,,,,,,0,,,76,88
18540,note_on,0,0,1,,,,,,,,,0,,,71,0
18540,note_on,30,0,1,,,,,,,,,0,,,78,0
18546,note_on,0,0,1,,,,,,,,,0,,,76,0
18546,note_on,6,0,1,,,,,,,,,0,,,79,0
18570,note_on,30,0,3,,,,,,,,,2,,,64,0
18570,note_on,0,0,3,,,,,,,,,2,,,52,101
18570,control_change,0,0,3,,,,,,,,,2,64,127,,
18600,control_change,54,0,1,,,,,,,,,0,64,127,,
18600,note_on,0,0,1,,,,,,,,,0,,,76,106
18600,note_on,0,0,1,,,,,,,,,0,,,79,114
18630,note_on,0,0,3,,,,,,,,,2,,,40,75
18630,note_on,60,0,3,,,,,,,,,2,,,52,0
18660,note_on,0,0,3,,,,,,,,,2,,,52,75
18660,note_on,30,0,3,,,,,,,,,2,,,40,0
18690,note_on,0,0,1,,,,,,,,,0,,,76,0
18690,note_on,90,0,1,,,,,,,,,0,,,79,0
18690,note_on,0,0,1,,,,,,,,,0,,,76,106
18690,note_on,0,0,1,,,,,,,,,0,,,79,114
18690,note_on,30,0,3,,,,,,,,,2,,,52,0
18720,note_on,30,0,3,,,,,,,,,2,,,59,101
18750,note_on,30,0,3,,,,,,,,,2,,,59,0
18750,note_on,60,0,1,,,,,,,,,0,,,79,0
18750,note_on,0,0,1,,,,,,,,,0,,,76,0
18750,note_on,0,0,1,,,,,,,,,0,,,71,88
18750,note_on,0,0,1,,,,,,,,,0,,,78,88
18750,control_change,0,0,1,,,,,,,,,0,64,0,,
18750,control_change,0,0,3,,,,,,,,,2,64,0,,
18750,note_on,0,0,3,,,,,,,,,2,,,62,75
18780,note_on,0,0,3,,,,,,,,,2,,,61,75
18780,note_on,0,0,1,,,,,,,,,0,,,76,88
18780,note_on,0,0,1,,,,,,,,,0,,,67,88
18780,note_on,0,0,1,,,,,,,,,0,,,71,0
18780,note_on,30,0,1,,,,,,,,,0,,,78,0
18780,note_on,30,0,3,,,,,,,,,2,,,62,0
18810,note_on,0,0,1,,,,,,,,,0,,,76,114
18810,note_on,0,0,1,,,,,,,,,0,,,73,106
18810,note_on,0,0,1,,,,,,,,,0,,,67,0
18810,note_on,30,0,3,,,,,,,,,2,,,61,0
18810,note_on,30,0,1,,,,,,,,,0,,,76,0
18840,note_on,30,0,3,,,,,,,,,2,,,56,101
18870,note_on,60,0,1,,,,,,,,,0,,,76,0
18870,note_on,0,0,1,,,,,,,,,0,,,68,88
18870,note_on,0,0,1,,,,,,,,,0,,,74,88
18870,note_on,0,0,3,,,,,,,,,2,,,59,75
18870,note_on,30,0,3,,,,,,,,,2,,,56,0
18870,note_on,0,0,1,,,,,,,,,0,,,73,0
18900,note_on,30,0,1,,,,,,,,,0,,,74,0
18900,note_on,0,0,1,,,,,,,,,0,,,68,0
18900,note_on,0,0,1,,,,,,,,,0,,,64,88
18900,note_on,0,0,1,,,,,,,,,0,,,73,88
18900,control_change,0,0,1,,,,,,,,,0,64,127,,
18900,note_on,30,0,3,,,,,,,,,2,,,59,0
18900,control_change,0,0,3,,,,,,,,,2,64,127,,
18900,note_on,0,0,3,,,,,,,,,2,,,57,75
18930,note_on,30,0,3,,,,,,,,,2,,,57,0
18930,note_on,0,0,3,,,,,,,,,2,,,45,101
18960,note_on,0,0,1,,,,,,,,,0,,,73,114
18960,note_on,60,0,1,,,,,,,,,0,,,73,0
18960,note_on,0,0,1,,,,,,,,,0,,,64,0
18960,note_on,0,0,1,,,,,,,,,0,,,64,106
18990,note_on,0,0,3,,,,,,,,,2,,,33,75
18990,note_on,60,0,3,,,,,,,,,2,,,45,0
19020,note_on,0,0,3,,,,,,,,,2,,,45,75
19020,note_on,30,0,3,,,,,,,,,2,,,33,0
19050,note_on,0,0,1,,,,,,,,,0,,,69,106
19050,note_on,0,0,1,,,,,,,,,0,,,73,114
19050,note_on,0,0,3,,,,,,,,,2,,,45,75
19050,note_on,90,0,1,,,,,,,,,0,,,73,0
19050,note_on,30,0,3,,,,,,,,,2,,,45,0
19050,note_on,1590,0,2,,,,,,,,,1,,,61,75
19050,note_on,0,0,1,,,,,,,,,0,,,64,0
19080,note_on,30,0,3,,,,,,,,,2,,,57,75
19110,note_on,0,0,1,,,,,,,,,0,,,69,0
19110,note_on,60,0,1,,,,,,,,,0,,,73,0
19110,note_on,0,0,1,,,,,,,,,0,,,69,88
19110,note_on,0,0,3,,,,,,,,,2,,,47,75
19110,note_on,0,0,2,,,,,,,,,1,,,62,75
19110,control_change,0,0,3,,,,,,,,,2,64,0,,
19110,note_on,0,0,1,,,,,,,,,0,,,74,88
19110,note_on,30,0,3,,,,,,,,,2,,,57,0
19110,note_on,0,0,3,,,,,,,,,2,,,45,0
19110,note_on,0,0,3,,,,,,,,,2,,,59,75
19110,note_on,0,0,3,,,,,,,,,2,,,57,75
19110,note_on,60,0,2,,,,,,,,,1,,,61,0
19110,control_change,0,0,1,,,,,,,,,0,64,0,,
19140,note_on,0,0,3,,,,,,,,,2,,,61,75
19140,note_on,0,0,1,,,,,,,,,0,,,69,0
19140,note_on,0,0,1,,,,,,,,,0,,,64,88
19140,note_on,0,0,3,,,,,,,,,2,,,49,75
19140,note_on,0,0,3,,,,,,,,,2,,,47,0
19140,note_on,0,0,3,,,,,,,,,2,,,57,0
19140,note_on,30,0,3,,,,,,,,,2,,,59,0
19140,note_on,30,0,1,,,,,,,,,0,,,74,0
19140,note_on,30,0,2,,,,,,,,,1,,,62,0
19140,note_on,0,0,3,,,,,,,,,2,,,57,75
19140,note_on,0,0,1,,,,,,,,,0,,,69,88
19140,note_on,0,0,1,,,,,,,,,0,,,76,88
19170,note_on,0,0,1,,,,,,,,,0,,,78,114
19170,note_on,0,0,1,,,,,,,,,0,,,74,109
19170,note_on,0,0,3,,,,,,,,,2,,,50,75
19170,note_on,0,0,3,,,,,,,,,2,,,49,0
19170,note_on,0,0,1,,,,,,,,,0,,,64,0
19170,note_on,0,0,3,,,,,,,,,2,,,57,0
19170,note_on,30,0,3,,,,,,,,,2,,,61,0
19170,note_on,30,0,1,,,,,,,,,0,,,76,0
19170,note_on,0,0,1,,,,,,,,,0,,,69,0
19170,note_on,0,0,1,,,,,,,,,0,,,66,104
19200,note_on,30,0,3,,,,,,,,,2,,,62,75
19230,note_on,0,0,3,,,,,,,,,2,,,64,75
19230,note_on,0,0,1,,,,,,,,,0,,,74,88
19230,note_on,0,0,1,,,,,,,,,0,,,67,88
19230,note_on,0,0,1,,,,,,,,,0,,,66,0
19230,note_on,0,0,1,,,,,,,,,0,,,74,0
19230,note_on,60,0,1,,,,,,,,,0,,,78,0
19230,note_on,30,0,3,,,,,,,,,2,,,62,0
19230,note_on,0,0,3,,,,,,,,,2,,,50,0
19230,note_on,0,0,3,,,,,,,,,2,,,52,75
19230,note_on,0,0,1,,,,,,,,,0,,,79,88
19230,note_on,0,0,3,,,,,,,,,2,,,62,75
19260,control_change,0,0,3,,,,,,,,,2,64,127,,
19260,note_on,0,0,3,,,,,,,,,2,,,62,0
19260,note_on,0,0,3,,,,,,,,,2,,,52,0
19260,note_on,0,0,3,,,,,,,,,2,,,54,88
19260,note_on,0,0,3,,,,,,,,,2,,,62,88
19260,control_change,0,0,1,,,,,,,,,0,64,127,,
19260,note_on,0,0,1,,,,,,,,,0,,,76,101
19260,note_on,0,0,1,,,,,,,,,0,,,69,101
19260,note_on,0,0,1,,,,,,,,,0,,,67,0
19260,note_on,0,0,1,,,,,,,,,0,,,74,0
19260,note_on,30,0,1,,,,,,,,,0,,,79,0
19260,note_on,0,0,3,,,,,,,,,2,,,66,88
19260,note_on,30,0,3,,,,,,,,,2,,,64,0
19260,note_on,0,0,1,,,,,,,,,0,,,81,101
19266,note_on,0,0,3,,,,,,,,,2,,,62,0
19266,note_on,6,0,1,,,,,,,,,0,,,81,0
19266,note_on,0,0,1,,,,,,,,,0,,,76,0
19266,note_on,0,0,1,,,,,,,,,0,,,69,0
19266,note_on,6,0,3,,,,,,,,,2,,,66,0
19266,note_on,0,0,3,,,,,,,,,2,,,54,0
19320,note_on,54,0,3,,,,,,,,,2,,,54,104
19320,note_on,0,0,3,,,,,,,,,2,,,62,109
19320,note_on,0,0,3,,,,,,,,,2,,,66,114
19320,note_on,54,0,1,,,,,,,,,0,,,69,101
19320,note_on,0,0,1,,,,,,,,,0,,,76,101
19320,note_on,0,0,1,,,,,,,,,0,,,81,101
19410,note_on,90,0,1,,,,,,,,,0,,,81,0
19410,note_on,0,0,1,,,,,,,,,0,,,69,0
19410,note_on,0,0,1,,,,,,,,,0,,,74,101
19410,note_on,0,0,3,,,,,,,,,2,,,66,88
19410,note_on,0,0,3,,,,,,,,,2,,,54,88
19410,note_on,0,0,3,,,,,,,,,2,,,54,0
19410,note_on,0,0,3,,,,,,,,,2,,,62,0
19410,note_on,90,0,3,,,,,,,,,2,,,66,0
19410,note_on,0,0,1,,,,,,,,,0,,,76,0
19410,note_on,0,0,1,,,,,,,,,0,,,81,101
19440,note_on,30,0,3,,,,,,,,,2,,,66,0
19440,note_on,0,0,3,,,,,,,,,2,,,57,88
19440,note_on,0,0,3,,,,,,,,,2,,,54,0
19440,note_on,0,0,1,,,,,,,,,0,,,86,101
19440,note_on,0,0,1,,,,,,,,,0,,,78,101
19440,note_on,0,0,1,,,,,,,,,0,,,74,101
19440,note_on,0,0,1,,,,,,,,,0,,,74,0
19440,note_on,30,0,1,,,,,,,,,0,,,81,0
19440,note_on,0,0,3,,,,,,,,,2,,,69,88
19470,note_on,30,0,3,,,,,,,,,2,,,69,0
19470,note_on,0,0,3,,,,,,,,,2,,,57,0
19470,note_on,0,0,3,,,,,,,,,2,,,66,88
19470,note_on,0,0,3,,,,,,,,,2,,,54,88
19470,note_on,0,0,1,,,,,,,,,0,,,81,101
19470,note_on,0,0,1,,,,,,,,,0,,,74,0
19470,note_on,0,0,1,,,,,,,,,0,,,78,0
19470,note_on,30,0,1,,,,,,,,,0,,,86,0
19470,note_on,0,0,1,,,,,,,,,0,,,74,101
19500,note_on,0,0,3,,,,,,,,,2,,,62,88
19500,note_on,30,0,3,,,,,,,,,2,,,66,0
19500,note_on,0,0,3,,,,,,,,,2,,,54,0
19500,control_change,0,0,3,,,,,,,,,2,64,0,,
19500,note_on,0,0,3,,,,,,,,,2,,,50,88
19500,note_on,0,0,1,,,,,,,,,0,,,74,0
19500,note_on,0,0,1,,,,,,,,,0,,,74,101
19500,note_on,0,0,1,,,,,,,,,0,,,78,101
19500,control_change,0,0,1,,,,,,,,,0,64,0,,
19500,note_on,30,0,1,,,,,,,,,0,,,81,0
19530,note_on,30,0,1,,,,,,,,,0,,,78,0
19530,note_on,0,0,3,,,,,,,,,2,,,61,88
19530,note_on,0,0,3,,,,,,,,,2,,,49,88
19530,note_on,0,0,3,,,,,,,,,2,,,50,0
19530,note_on,0,0,1,,,,,,,,,0,,,74,101
19530,note_on,0,0,1,,,,,,,,,0,,,74,0
19530,note_on,30,0,3,,,,,,,,,2,,,62,0
19560,note_on,0,0,3,,,,,,,,,2,,,59,88
19560,note_on,30,0,3,,,,,,,,,2,,,61,0
19560,note_on,0,0,3,,,,,,,,,2,,,47,88
19560,note_on,0,0,3,,,,,,,,,2,,,49,0
19560,note_on,30,0,1,,,,,,,,,0,,,74,0
19560,note_on,0,0,1,,,,,,,,,0,,,74,101
19560,note_on,0,0,1,,,,,,,,,0,,,78,101
19590,note_on,0,0,1,,,,,,,,,0,,,78,101
19590,note_on,0,0,1,,,,,,,,,0,,,81,101
19590,note_on,0,0,1,,,,,,,,,0,,,74,0
19590,note_on,0,0,3,,,,,,,,,2,,,57,88
19590,note_on,0,0,3,,,,,,,,,2,,,45,88
19590,note_on,0,0,3,,,,,,,,,2,,,47,0
19590,note_on,30,0,3,,,,,,,,,2,,,59,0
19590,note_on,0,0,1,,,,,,,,,0,,,74,101
19590,note_on,30,0,1,,,,,,,,,0,,,78,0
19620,note_on,0,0,1,,,,,,,,,0,,,78,0
19620,note_on,0,0,1,,,,,,,,,0,,,74,0
19620,note_on,0,0,1,,,,,,,,,0,,,71,101
19620,note_on,0,0,1,,,,,,,,,0,,,83,101
19620,note_on,30,0,1,,,,,,,,,0,,,81,0
19620,control_change,0,0,1,,,,,,,,,0,64,127,,
19620,note_on,0,0,1,,,,,,,,,0,,,74,101
19620,note_on,0,0,1,,,,,,,,,0,,,79,101
19620,note_on,0,0,3,,,,,,,,,2,,,50,88
19620,note_on,30,0,3,,,,,,,,,2,,,57,0
19620,note_on,0,0,3,,,,,,,,,2,,,45,0
19620,control_change,0,0,3,,,,,,,,,2,64,127,,
19620,note_on,0,0,3,,,,,,,,,2,,,43,88
19620,note_on,0,0,3,,,,,,,,,2,,,55,88
19626,note_on,6,0,1,,,,,,,,,0,,,83,0
19626,note_on,0,0,1,,,,,,,,,0,,,71,0
19626,note_on,0,0,1,,,,,,,,,0,,,74,0
19626,note_on,0,0,1,,,,,,,,,0,,,79,0
19626,note_on,0,0,3,,,,,,,,,2,,,43,0
19626,note_on,6,0,3,,,,,,,,,2,,,55,0
19626,note_on,0,0,3,,,,,,,,,2,,,50,0
19680,note_on,0,0,1,,,,,,,,,0,,,83,127
19680,note_on,0,0,3,,,,,,,,,2,,,55,114
19680,note_on,0,0,3,,,,,,,,,2,,,50,109
19680,note_on,54,0,3,,,,,,,,,2,,,43,104
19680,note_on,54,0,1,,,,,,,,,0,,,71,115
19680,note_on,0,0,1,,,,,,,,,0,,,79,123
19680,note_on,0,0,1,,,,,,,,,0,,,74,119
19770,note_on,0,0,1,,,,,,,,,0,,,74,0
19770,note_on,0,0,1,,,,,,,,,0,,,79,0
19770,note_on,0,0,1,,,,,,,,,0,,,71,0
19770,note_on,90,0,1,,,,,,,,,0,,,83,0
19770,note_on,0,0,1,,,,,,,,,0,,,71,117
19770,note_on,0,0,1,,,,,,,,,0,,,74,122
19770,note_on,0,0,3,,,,,,,,,2,,,50,88
19770,note_on,0,0,3,,,,,,,,,2,,,43,0
19770,note_on,0,0,3,,,,,,,,,2,,,50,0
19770,note_on,90,0,3,,,,,,,,,2,,,55,0
19770,note_on,0,0,1,,,,,,,,,0,,,83,127
19770,note_on,6324,0,4,,,,,,,,,3,,,43,88
19800,note_on,30,0,3,,,,,,,,,2,,,50,0
19800,note_on,0,0,3,,,,,,,,,2,,,55,114
19830,control_change,0,0,3,,,,,,,,,2,64,0,,
19830,note_on,0,0,3,,,,,,,,,2,,,54,88
19830,note_on,0,0,1,,,,,,,,,0,,,74,0
19830,note_on,0,0,1,,,,,,,,,0,,,71,0
19830,note_on,0,0,1,,,,,,,,,0,,,69,101
19830,note_on,0,0,1,,,,,,,,,0,,,76,101
19830,note_on,0,0,1,,,,,,,,,0,,,81,101
19830,control_change,0,0,1,,,,,,,,,0,64,0,,
19830,note_on,60,0,4,,,,,,,,,3,,,43,0
19830,note_on,0,0,4,,,,,,,,,3,,,42,88
19830,note_on,0,0,4,,,,,,,,,3,,,50,88
19830,note_on,30,0,3,,,,,,,,,2,,,55,0
19830,note_on,60,0,1,,,,,,,,,0,,,83,0
19860,note_on,0,0,4,,,,,,,,,3,,,42,0
19860,note_on,0,0,4,,,,,,,,,3,,,50,88
19860,note_on,0,0,4,,,,,,,,,3,,,43,88
19860,note_on,30,0,4,,,,,,,,,3,,,50,0
19860,note_on,30,0,3,,,,,,,,,2,,,54,0
19860,note_on,30,0,1,,,,,,,,,0,,,81,0
19860,note_on,0,0,1,,,,,,,,,0,,,76,0
19860,note_on,0,0,1,,,,,,,,,0,,,69,0
19860,note_on,0,0,1,,,,,,,,,0,,,71,101
19860,note_on,0,0,1,,,,,,,,,0,,,74,101
19860,note_on,0,0,1,,,,,,,,,0,,,83,101
19860,note_on,0,0,3,,,,,,,,,2,,,55,88
19890,note_on,0,0,3,,,,,,,,,2,,,50,88
19890,note_on,30,0,3,,,,,,,,,2,,,55,0
19890,note_on,30,0,4,,,,,,,,,3,,,50,0
19890,note_on,0,0,4,,,,,,,,,3,,,43,0
19890,note_on,0,0,4,,,,,,,,,3,,,43,88
19890,note_on,0,0,1,,,,,,,,,0,,,83,127
19890,note_on,0,0,1,,,,,,,,,0,,,74,122
19890,note_on,0,0,1,,,,,,,,,0,,,71,117
19890,note_on,0,0,1,,,,,,,,,0,,,71,0
19890,note_on,0,0,1,,,,,,,,,0,,,74,0
19890,note_on,30,0,1,,,,,,,,,0,,,83,0
19920,note_on,30,0,3,,,,,,,,,2,,,50,0
19920,note_on,0,0,3,,,,,,,,,2,,,55,88
19950,note_on,0,0,4,,,,,,,,,3,,,45,88
19950,note_on,60,0,4,,,,,,,,,3,,,43,0
19950,note_on,0,0,3,,,,,,,,,2,,,57,88
19950,note_on,0,0,4,,,,,,,,,3,,,50,88
19950,note_on,30,0,3,,,,,,,,,2,,,55,0
19950,note_on,60,0,1,,,,,,,,,0,,,83,0
19950,note_on,0,0,1,,,,,,,,,0,,,74,0
19950,note_on,0,0,1,,,,,,,,,0,,,71,0
19950,note_on,0,0,1,,,,,,,,,0,,,72,101
19950,note_on,0,0,1,,,,,,,,,0,,,74,101
19950,note_on,0,0,1,,,,,,,,,0,,,84,101
19980,note_on,0,0,1,,,,,,,,,0,,,74,0
19980,note_on,30,0,1,,,,,,,,,0,,,84,0
19980,control_change,0,0,1,,,,,,,,,0,64,127,,
19980,note_on,30,0,4,,,,,,,,,3,,,50,0
19980,note_on,0,0,1,,,,,,,,,0,,,74,101
19980,note_on,0,0,1,,,,,,,,,0,,,83,101
19980,note_on,0,0,1,,,,,,,,,0,,,72,0
19980,note_on,0,0,3,,,,,,,,,2,,,55,88
19980,note_on,0,0,3,,,,,,,,,2,,,50,88
19980,note_on,0,0,3,,,,,,,,,2,,,43,88
19980,control_change,0,0,3,,,,,,,,,2,64,127,,
19980,note_on,30,0,3,,,,,,,,,2,,,57,0
19980,note_on,0,0,1,,,,,,,,,0,,,71,101
19980,note_on,0,0,4,,,,,,,,,3,,,45,0
19986,note_on,0,0,3,,,,,,,,,2,,,43,0
19986,note_on,0,0,1,,,,,,,,,0,,,74,0
19986,note_on,0,0,1,,,,,,,,,0,,,71,0
19986,note_on,0,0,3,,,,,,,,,2,,,50,0
19986,note_on,6,0,3,,,,,,,,,2,,,55,0
19986,note_on,6,0,1,,,,,,,,,0,,,83,0
20040,note_on,0,0,1,,,,,,,,,0,,,83,127
20040,note_on,0,0,1,,,,,,,,,0,,,74,122
20040,note_on,54,0,1,,,,,,,,,0,,,71,117
20040,note_on,0,0,3,,,,,,,,,2,,,55,114
20040,note_on,0,0,3,,,,,,,,,2,,,50,109
20040,note_on,54,0,3,,,,,,,,,2,,,43,104
20130,note_on,0,0,1,,,,,,,,,0,,,74,0
20130,note_on,0,0,3,,,,,,,,,2,,,59,88
20130,note_on,0,0,3,,,,,,,,,2,,,47,88
20130,note_on,0,0,3,,,,,,,,,2,,,43,0
20130,note_on,0,0,3,,,,,,,,,2,,,50,0
20130,note_on,90,0,3,,,,,,,,,2,,,55,0
20130,note_on,90,0,1,,,,,,,,,0,,,83,0
20130,note_on,0,0,1,,,,,,,,,0,,,71,0
20130,note_on,0,0,1,,,,,,,,,0,,,67,101
20130,note_on,0,0,1,,,,,,,,,0,,,71,101
20130,note_on,0,0,1,,,,,,,,,0,,,74,101
20160,note_on,0,0,1,,,,,,,,,0,,,79,101
20160,note_on,0,0,3,,,,,,,,,2,,,62,88
20160,note_on,0,0,3,,,,,,,,,2,,,50,88
20160,note_on,0,0,3,,,,,,,,,2,,,47,0
20160,note_on,30,0,3,,,,,,,,,2,,,59,0
20160,note_on,30,0,1,,,,,,,,,0,,,74,0
20160,note_on,0,0,1,,,,,,,,,0,,,71,0
20160,note_on,0,0,1,,,,,,,,,0,,,71,101
20160,note_on,0,0,1,,,,,,,,,0,,,67,101
20160,note_on,0,0,1,,,,,,,,,0,,,67,0
20190,note_on,0,0,1,,,,,,,,,0,,,67,101
20190,note_on,0,0,1,,,,,,,,,0,,,74,101
20190,note_on,0,0,1,,,,,,,,,0,,,71,101
20190,note_on,0,0,1,,,,,,,,,0,,,67,0
20190,note_on,0,0,1,,,,,,,,,0,,,71,0
20190,note_on,30,0,1,,,,,,,,,0,,,79,0
20190,note_on,30,0,3,,,,,,,,,2,,,62,0
20190,note_on,0,0,3,,,,,,,,,2,,,47,88
20190,note_on,0,0,3,,,,,,,,,2,,,59,88
20190,note_on,0,0,3,,,,,,,,,2,,,50,0
20220,note_on,0,0,3,,,,,,,,,2,,,47,0
20220,control_change,0,0,3,,,,,,,,,2,64,0,,
20220,note_on,0,0,1,,,,,,,,,0,,,71,101
20220,note_on,0,0,3,,,,,,,,,2,,,43,88
20220,note_on,0,0,3,,,,,,,,,2,,,55,88
20220,note_on,30,0,1,,,,,,,,,0,,,74,0
20220,note_on,0,0,1,,,,,,,,,0,,,71,0
20220,note_on,0,0,1,,,,,,,,,0,,,67,0
20220,note_on,0,0,1,,,,,,,,,0,,,67,101
20220,note_on,30,0,3,,,,,,,,,2,,,59,0
20220,control_change,0,0,1,,,,,,,,,0,64,0,,
20250,note_on,30,0,3,,,,,,,,,2,,,55,0
20250,note_on,0,0,3,,,,,,,,,2,,,43,0
20250,note_on,30,0,1,,,,,,,,,0,,,71,0
20250,note_on,0,0,3,,,,,,,,,2,,,47,88
20250,note_on,0,0,3,,,,,,,,,2,,,59,88
20250,note_on,0,0,1,,,,,,,,,0,,,67,0
20250,note_on,0,0,1,,,,,,,,,0,,,74,101
20250,note_on,0,0,1,,,,,,,,,0,,,67,101
20250,note_on,0,0,1,,,,,,,,,0,,,71,101
20280,note_on,0,0,1,,,,,,,,,0,,,79,101
20280,note_on,0,0,1,,,,,,,,,0,,,71,101
20280,note_on,0,0,1,,,,,,,,,0,,,67,101
20280,note_on,0,0,1,,,,,,,,,0,,,71,0
20280,note_on,30,0,1,,,,,,,,,0,,,74,0
20280,note_on,0,0,1,,,,,,,,,0,,,67,0
20280,note_on,30,0,3,,,,,,,,,2,,,59,0
20280,note_on,0,0,3,,,,,,,,,2,,,47,0
20280,note_on,0,0,3,,,,,,,,,2,,,43,88
20280,note_on,0,0,3,,,,,,,,,2,,,55,88
20310,note_on,0,0,1,,,,,,,,,0,,,81,101
20310,note_on,30,0,1,,,,,,,,,0,,,79,0
20310,note_on,0,0,1,,,,,,,,,0,,,71,0
20310,note_on,0,0,1,,,,,,,,,0,,,67,0
20310,note_on,0,0,1,,,,,,,,,0,,,69,101
20310,note_on,0,0,1,,,,,,,,,0,,,74,101
20310,note_on,0,0,3,,,,,,,,,2,,,42,88
20310,note_on,30,0,3,,,,,,,,,2,,,55,0
20310,note_on,0,0,3,,,,,,,,,2,,,43,0
20310,note_on,0,0,3,,,,,,,,,2,,,54,88
20340,note_on,0,0,1,,,,,,,,,0,,,71,101
20340,note_on,0,0,3,,,,,,,,,2,,,52,88
20340,note_on,0,0,3,,,,,,,,,2,,,47,88
20340,note_on,0,0,3,,,,,,,,,2,,,40,88
20340,note_on,0,0,1,,,,,,,,,0,,,69,0
20340,note_on,0,0,3,,,,,,,,,2,,,42,0
20340,note_on,30,0,3,,,,,,,,,2,,,54,0
20340,control_change,0,0,3,,,,,,,,,2,64,127,,
20340,control_change,0,0,1,,,,,,,,,0,64,127,,
20340,note_on,0,0,1,,,,,,,,,0,,,83,101
20340,note_on,0,0,1,,,,,,,,,0,,,79,101
20340,note_on,30,0,1,,,,,,,,,0,,,81,0
20340,note_on,0,0,1,,,,,,,,,0,,,74,0
20346,note_on,0,0,1,,,,,,,,,0,,,79,0
20346,note_on,6,0,1,,,,,,,,,0,,,83,0
20346,note_on,6,0,3,,,,,,,,,2,,,52,0
20346,note_on,0,0,3,,,,,,,,,2,,,47,0
20346,note_on,0,0,3,,,,,,,,,2,,,40,0
20346,note_on,0,0,1,,,,,,,,,0,,,71,0
20400,note_on,54,0,3,,,,,,,,,2,,,40,120
20400,note_on,0,0,3,,,,,,,,,2,,,47,127
20400,note_on,0,0,3,,,,,,,,,2,,,52,127
20400,note_on,0,0,1,,,,,,,,,0,,,79,122
20400,note_on,54,0,1,,,,,,,,,0,,,71,117
20400,note_on,0,0,1,,,,,,,,,0,,,83,127
20490,note_on,90,0,3,,,,,,,,,2,,,52,0
20490,note_on,0,0,3,,,,,,,,,2,,,40,104
20490,note_on,0,0,3,,,,,,,,,2,,,40,0
20490,note_on,0,0,3,,,,,,,,,2,,,47,0
20490,note_on,90,0,1,,,,,,,,,0,,,83,0
20490,note_on,0,0,1,,,,,,,,,0,,,79,0
20490,note_on,0,0,3,,,,,,,,,2,,,47,109
20490,note_on,0,0,1,,,,,,,,,0,,,71,0
20490,note_on,0,0,1,,,,,,,,,0,,,83,122
20490,note_on,0,0,1,,,,,,,,,0,,,91,127
20490,note_on,0,0,1,,,,,,,,,0,,,79,117
20490,note_on,0,0,3,,,,,,,,,2,,,52,114
20550,note_on,0,0,3,,,,,,,,,2,,,47,0
20550,note_on,0,0,3,,,,,,,,,2,,,40,0
20550,control_change,0,0,3,,,,,,,,,2,64,0,,
20550,note_on,0,0,3,,,,,,,,,2,,,40,88
20550,note_on,0,0,3,,,,,,,,,2,,,47,88
20550,control_change,0,0,1,,,,,,,,,0,64,0,,
20550,note_on,60,0,1,,,,,,,,,0,,,91,0
20550,note_on,0,0,3,,,,,,,,,2,,,52,88
20550,note_on,0,0,1,,,,,,,,,0,,,79,0
20550,note_on,0,0,1,,,,,,,,,0,,,79,101
20550,note_on,0,0,1,,,,,,,,,0,,,91,101
20550,note_on,60,0,3,,,,,,,,,2,,,52,0
20550,note_on,0,0,1,,,,,,,,,0,,,83,0
20550,note_on,0,0,1,,,,,,,,,0,,,83,101
20580,note_on,0,0,3,,,,,,,,,2,,,52,88
20580,control_change,0,0,1,,,,,,,,,0,64,127,,
20580,note_on,0,0,3,,,,,,,,,2,,,57,88
20580,note_on,0,0,1,,,,,,,,,0,,,79,101
20580,note_on,0,0,3,,,,,,,,,2,,,45,88
20580,control_change,0,0,3,,,,,,,,,2,64,127,,
20580,note_on,0,0,3,,,,,,,,,2,,,40,0
20580,note_on,0,0,1,,,,,,,,,0,,,85,101
20580,note_on,30,0,3,,,,,,,,,2,,,52,0
20580,note_on,0,0,1,,,,,,,,,0,,,73,101
20580,note_on,0,0,1,,,,,,,,,0,,,79,0
20580,note_on,0,0,1,,,,,,,,,0,,,83,0
20580,note_on,30,0,1,,,,,,,,,0,,,91,0
20580,note_on,0,0,3,,,,,,,,,2,,,47,0
20586,note_on,6,0,3,,,,,,,,,2,,,57,0
20586,note_on,0,0,3,,,,,,,,,2,,,45,0
20586,note_on,0,0,1,,,,,,,,,0,,,73,0
20586,note_on,0,0,1,,,,,,,,,0,,,79,0
20586,note_on,6,0,1,,,,,,,,,0,,,85,0
20586,note_on,0,0,3,,,,,,,,,2,,,52,0
20640,note_on,54,0,1,,,,,,,,,0,,,73,117
20640,note_on,0,0,1,,,,,,,,,0,,,85,127
20640,note_on,0,0,3,,,,,,,,,2,,,57,114
20640,note_on,0,0,3,,,,,,,,,2,,,52,109
20640,note_on,54,0,3,,,,,,,,,2,,,45,104
20640,note_on,0,0,1,,,,,,,,,0,,,79,122
20700,time_signature,7560,1,0,4,4,24,8,,,,,,,,,
20730,note_on,90,0,1,,,,,,,,,0,,,85,0
20730,note_on,0,0,3,,,,,,,,,2,,,52,0
20730,note_on,0,0,1,,,,,,,,,0,,,74,117
20730,note_on,0,0,1,,,,,,,,,0,,,78,122
20730,note_on,0,0,1,,,,,,,,,0,,,86,127
20730,note_on,0,0,3,,,,,,,,,2,,,50,114
20730,note_on,0,0,3,,,,,,,,,2,,,45,109
20730,note_on,0,0,3,,,,,,,,,2,,,38,104
20730,note_on,0,0,3,,,,,,,,,2,,,45,0
20730,note_on,90,0,3,,,,,,,,,2,,,57,0
20730,note_on,0,0,1,,,,,,,,,0,,,73,0
20730,note_on,0,0,1,,,,,,,,,0,,,79,0
20790,note_on,60,0,1,,,,,,,,,0,,,86,0
20790,note_on,0,0,3,,,,,,,,,2,,,38,88
20790,note_on,0,0,1,,,,,,,,,0,,,78,101
20790,note_on,0,0,1,,,,,,,,,0,,,86,101
20790,control_change,0,0,1,,,,,,,,,0,64,0,,
20790,note_on,0,0,3,,,,,,,,,2,,,50,88
20790,note_on,0,0,3,,,,,,,,,2,,,45,88
20790,note_on,0,0,1,,,,,,,,,0,,,78,0
20790,control_change,0,0,3,,,,,,,,,2,64,0,,
20790,note_on,0,0,3,,,,,,,,,2,,,38,0
20790,note_on,0,0,3,,,,,,,,,2,,,45,0
20790,note_on,60,0,3,,,,,,,,,2,,,50,0
20790,note_on,0,0,1,,,,,,,,,0,,,74,101
20790,note_on,0,0,1,,,,,,,,,0,,,74,0
20820,note_on,30,0,1,,,,,,,,,0,,,86,0
20820,note_on,0,0,1,,,,,,,,,0,,,78,0
20820,note_on,0,0,1,,,,,,,,,0,,,74,0
20820,note_on,0,0,1,,,,,,,,,0,,,62,101
20820,note_on,0,0,3,,,,,,,,,2,,,38,0
20820,note_on,0,0,3,,,,,,,,,2,,,57,88
20820,note_on,0,0,3,,,,,,,,,2,,,50,88
20820,note_on,0,0,1,,,,,,,,,0,,,66,101
20820,note_on,0,0,3,,,,,,,,,2,,,45,0
20820,note_on,30,0,3,,,,,,,,,2,,,50,0
20820,note_on,0,0,1,,,,,,,,,0,,,74,101
20880,note_on,0,0,1,,,,,,,,,0,,,66,0
20880,note_on,0,0,1,,,,,,,,,0,,,62,0
20880,note_on,0,0,1,,,,,,,,,0,,,62,117
20880,note_on,60,0,1,,,,,,,,,0,,,74,0
20880,note_on,60,0,3,,,,,,,,,2,,,57,0
20880,note_on,0,0,3,,,,,,,,,2,,,50,106
20880,note_on,0,0,3,,,,,,,,,2,,,50,0
20880,note_on,0,0,1,,,,,,,,,0,,,74,127
20880,note_on,0,0,3,,,,,,,,,2,,,57,114
20880,note_on,0,0,1,,,,,,,,,0,,,66,122
21060,note_on,0,0,1,,,,,,,,,0,,,66,0
21060,note_on,0,0,1,,,,,,,,,0,,,62,0
21060,note_on,180,0,1,,,,,,,,,0,,,74,0
21090,note_on,30,0,1,,,,,,,,,0,,,62,36
21120,note_on,240,0,3,,,,,,,,,2,,,57,0
21120,note_on,0,0,3,,,,,,,,,2,,,50,0
21120,note_on,30,0,1,,,,,,,,,0,,,62,0
21120,note_on,0,0,1,,,,,,,,,0,,,67,36
21120,note_on,0,0,1,,,,,,,,,0,,,59,36
21150,note_on,30,0,1,,,,,,,,,0,,,67,0
21150,note_on,0,0,1,,,,,,,,,0,,,59,0
21150,note_on,0,0,1,,,,,,,,,0,,,62,36
21150,note_on,0,0,1,,,,,,,,,0,,,69,36
21180,note_on,0,0,1,,,,,,,,,0,,,71,36
21180,control_change,0,0,1,,,,,,,,,0,64,127,,
21180,note_on,0,0,1,,,,,,,,,0,,,62,0
21180,note_on,30,0,1,,,,,,,,,0,,,69,0
21180,note_on,0,0,1,,,,,,,,,0,,,67,36
21180,time_signature,480,1,0,3,4,24,8,,,,,,,,,
21186,note_on,6,0,1,,,,,,,,,0,,,71,0
21186,note_on,0,0,1,,,,,,,,,0,,,67,0
21210,note_on,0,0,3,,,,,,,,,2,,,43,36
21210,control_change,90,0,3,,,,,,,,,2,64,127,,
21240,note_on,54,0,1,,,,,,,,,0,,,67,54
21240,note_on,0,0,1,,,,,,,,,0,,,71,62
21240,note_on,30,0,3,,,,,,,,,2,,,43,0
21240,note_on,0,0,3,,,,,,,,,2,,,50,36
21270,note_on,0,0,3,,,,,,,,,2,,,43,36
21270,note_on,30,0,3,,,,,,,,,2,,,50,0
21300,note_on,30,0,3,,,,,,,,,2,,,50,36
21306,note_on,6,0,3,,,,,,,,,2,,,50,0
21306,note_on,0,0,3,,,,,,,,,2,,,43,0
21330,note_on,90,0,1,,,,,,,,,0,,,71,0
21330,note_on,0,0,1,,,,,,,,,0,,,67,0
21330,note_on,0,0,1,,,,,,,,,0,,,62,36
21330,note_on,0,0,1,,,,,,,,,0,,,69,36
21360,note_on,0,0,1,,,,,,,,,0,,,67,36
21360,note_on,0,0,3,,,,,,,,,2,,,50,62
21360,note_on,0,0,1,,,,,,,,,0,,,62,0
21360,control_change,54,0,3,,,,,,,,,2,64,0,,
21360,note_on,30,0,1,,,,,,,,,0,,,69,0
21360,note_on,0,0,3,,,,,,,,,2,,,43,54
21360,note_on,0,0,1,,,,,,,,,0,,,71,36
21390,note_on,0,0,1,,,,,,,,,0,,,74,36
21390,note_on,0,0,1,,,,,,,,,0,,,69,36
21390,note_on,0,0,1,,,,,,,,,0,,,67,0
21390,note_on,30,0,1,,,,,,,,,0,,,71,0
21420,note_on,0,0,1,,,,,,,,,0,,,71,36
21420,note_on,0,0,1,,,,,,,,,0,,,69,0
21420,note_on,30,0,1,,,,,,,,,0,,,74,0
21420,note_on,0,0,1,,,,,,,,,0,,,67,36
21450,note_on,0,0,1,,,,,,,,,0,,,69,36
21450,note_on,0,0,1,,,,,,,,,0,,,62,36
21450,note_on,30,0,1,,,,,,,,,0,,,71,0
21450,note_on,0,0,1,,,,,,,,,0,,,67,0
21480,note_on,30,0,1,,,,,,,,,0,,,69,0
21480,note_on,0,0,1,,,,,,,,,0,,,62,0
21480,note_on,0,0,1,,,,,,,,,0,,,67,36
21480,note_on,0,0,1,,,,,,,,,0,,,71,36
21510,note_on,30,0,1,,,,,,,,,0,,,71,0
21510,note_on,0,0,1,,,,,,,,,0,,,67,0
21510,note_on,0,0,1,,,,,,,,,0,,,69,36
21510,note_on,0,0,1,,,,,,,,,0,,,74,36
21510,control_change,0,0,1,,,,,,,,,0,64,0,,
21540,note_on,30,0,1,,,,,,,,,0,,,74,0
21540,note_on,0,0,1,,,,,,,,,0,,,69,0
21540,note_on,0,0,1,,,,,,,,,0,,,71,36
21540,control_change,0,0,1,,,,,,,,,0,64,127,,
21540,note_on,0,0,1,,,,,,,,,0,,,67,36
21540,note_on,180,0,3,,,,,,,,,2,,,50,0
21540,note_on,0,0,3,,,,,,,,,2,,,43,0
21546,note_on,0,0,1,,,,,,,,,0,,,67,0
21546,note_on,6,0,1,,,,,,,,,0,,,71,0
21570,control_change,30,0,3,,,,,,,,,2,64,127,,
21570,note_on,0,0,3,,,,,,,,,2,,,43,36
21600,note_on,0,0,1,,,,,,,,,0,,,71,62
21600,note_on,54,0,1,,,,,,,,,0,,,67,54
21600,note_on,0,0,3,,,,,,,,,2,,,50,36
21600,note_on,30,0,3,,,,,,,,,2,,,43,0
21630,note_on,0,0,3,,,,,,,,,2,,,43,36
21630,note_on,30,0,3,,,,,,,,,2,,,50,0
21660,note_on,30,0,3,,,,,,,,,2,,,50,36
21666,note_on,6,0,3,,,,,,,,,2,,,50,0
21666,note_on,0,0,3,,,,,,,,,2,,,43,0
21690,note_on,0,0,1,,,,,,,,,0,,,62,36
21690,note_on,0,0,1,,,,,,,,,0,,,67,0
21690,note_on,0,0,1,,,,,,,,,0,,,69,36
21690,note_on,90,0,1,,,,,,,,,0,,,71,0
21720,note_on,0,0,3,,,,,,,,,2,,,50,36
21720,note_on,1740,0,4,,,,,,,,,3,,,43,62
21720,note_on,30,0,1,,,,,,,,,0,,,69,0
21720,note_on,0,0,1,,,,,,,,,0,,,62,0
21720,note_on,0,0,1,,,,,,,,,0,,,67,36
21720,note_on,0,0,1,,,,,,,,,0,,,71,36
21720,control_change,54,0,3,,,,,,,,,2,64,0,,
21750,note_on,0,0,1,,,,,,,,,0,,,74,36
21750,note_on,30,0,1,,,,,,,,,0,,,71,0
21750,note_on,0,0,1,,,,,,,,,0,,,67,0
21750,note_on,0,0,1,,,,,,,,,0,,,69,36
21780,note_on,30,0,1,,,,,,,,,0,,,74,0
21780,note_on,0,0,1,,,,,,,,,0,,,71,36
21780,note_on,0,0,1,,,,,,,,,0,,,69,0
21780,note_on,0,0,1,,,,,,,,,0,,,67,36
21810,note_on,0,0,1,,,,,,,,,0,,,69,36
21810,note_on,90,0,4,,,,,,,,,3,,,43,0
21810,note_on,0,0,4,,,,,,,,,3,,,42,36
21810,note_on,0,0,1,,,,,,,,,0,,,62,36
21810,note_on,0,0,1,,,,,,,,,0,,,67,0
21810,note_on,30,0,1,,,,,,,,,0,,,71,0
21840,note_on,0,0,1,,,,,,,,,0,,,67,36
21840,note_on,0,0,1,,,,,,,,,0,,,71,36
21840,note_on,0,0,4,,,,,,,,,3,,,40,36
21840,note_on,30,0,4,,,,,,,,,3,,,42,0
21840,note_on,30,0,1,,,,,,,,,0,,,69,0
21840,note_on,0,0,1,,,,,,,,,0,,,62,0
21870,note_on,0,0,1,,,,,,,,,0,,,69,36
21870,note_on,0,0,1,,,,,,,,,0,,,74,36
21870,note_on,0,0,4,,,,,,,,,3,,,38,36
21870,control_change,0,0,1,,,,,,,,,0,64,0,,
21870,note_on,30,0,4,,,,,,,,,3,,,40,0
21870,note_on,30,0,1,,,,,,,,,0,,,71,0
21870,note_on,0,0,1,,,,,,,,,0,,,67,0
21900,note_on,30,0,1,,,,,,,,,0,,,74,0
21900,note_on,30,0,4,,,,,,,,,3,,,38,0
21900,note_on,0,0,1,,,,,,,,,0,,,72,36
21900,note_on,0,0,1,,,,,,,,,0,,,76,36
21900,control_change,0,0,1,,,,,,,,,0,64,127,,
21900,note_on,180,0,3,,,,,,,,,2,,,50,0
21900,note_on,0,0,1,,,,,,,,,0,,,69,0
21906,note_on,0,0,1,,,,,,,,,0,,,72,0
21906,note_on,6,0,1,,,,,,,,,0,,,76,0
21930,control_change,30,0,3,,,,,,,,,2,64,127,,
21930,note_on,0,0,3,,,,,,,,,2,,,36,36
21960,note_on,54,0,1,,,,,,,,,0,,,72,54
21960,note_on,0,0,1,,,,,,,,,0,,,76,62
21960,note_on,30,0,3,,,,,,,,,2,,,36,0
21960,note_on,0,0,3,,,,,,,,,2,,,43,36
21990,note_on,30,0,3,,,,,,,,,2,,,43,0
21990,note_on,0,0,3,,,,,,,,,2,,,36,36
22020,note_on,30,0,3,,,,,,,,,2,,,43,36
22026,note_on,0,0,3,,,,,,,,,2,,,36,0
22026,note_on,6,0,3,,,,,,,,,2,,,43,0
22050,note_on,90,0,1,,,,,,,,,0,,,76,0
22050,note_on,0,0,1,,,,,,,,,0,,,72,0
22050,note_on,0,0,1,,,,,,,,,0,,,67,36
22050,note_on,0,0,1,,,,,,,,,0,,,74,36
22080,control_change,54,0,3,,,,,,,,,2,64,0,,
22080,note_on,0,0,3,,,,,,,,,2,,,36,54
22080,note_on,0,0,3,,,,,,,,,2,,,43,62
22080,note_on,0,0,1,,,,,,,,,0,,,76,36
22080,note_on,0,0,1,,,,,,,,,0,,,72,36
22080,note_on,0,0,1,,,,,,,,,0,,,67,0
22080,note_on,30,0,1,,,,,,,,,0,,,74,0
22110,note_on,0,0,1,,,,,,,,,0,,,67,36
22110,note_on,0,0,1,,,,,,,,,0,,,74,36
22110,note_on,30,0,1,,,,,,,,,0,,,76,0
22110,note_on,0,0,1,,,,,,,,,0,,,72,0
22140,note_on,30,0,1,,,,,,,,,0,,,74,0
22140,note_on,0,0,1,,,,,,,,,0,,,67,0
22140,note_on,0,0,1,,,,,,,,,0,,,64,36
22140,note_on,0,0,1,,,,,,,,,0,,,72,36
22170,note_on,0,0,1,,,,,,,,,0,,,67,36
22170,note_on,0,0,1,,,,,,,,,0,,,64,0
22170,note_on,30,0,1,,,,,,,,,0,,,72,0
22170,note_on,0,0,1,,,,,,,,,0,,,62,36
22200,note_on,30,0,1,,,,,,,,,0,,,67,0
22200,note_on,0,0,1,,,,,,,,,0,,,62,0
22200,note_on,0,0,1,,,,,,,,,0,,,64,36
22200,note_on,0,0,1,,,,,,,,,0,,,72,36
22230,control_change,0,0,1,,,,,,,,,0,64,0,,
22230,note_on,0,0,1,,,,,,,,,0,,,77,36
22230,note_on,0,0,1,,,,,,,,,0,,,67,36
22230,note_on,30,0,1,,,,,,,,,0,,,72,0
22230,note_on,0,0,1,,,,,,,,,0,,,64,0
22260,note_on,0,0,1,,,,,,,,,0,,,76,36
22260,note_on,180,0,3,,,,,,,,,2,,,43,0
22260,control_change,0,0,1,,,,,,,,,0,64,127,,
22260,note_on,0,0,3,,,,,,,,,2,,,36,0
22260,note_on,0,0,1,,,,,,,,,0,,,72,36
22260,note_on,0,0,1,,,,,,,,,0,,,67,0
22260,note_on,30,0,1,,,,,,,,,0,,,77,0
22266,note_on,6,0,1,,,,,,,,,0,,,76,0
22266,note_on,0,0,1,,,,,,,,,0,,,72,0
22290,control_change,30,0,3,,,,,,,,,2,64,127,,
22290,note_on,0,0,3,,,,,,,,,2,,,36,36
22320,note_on,54,0,1,,,,,,,,,0,,,72,72
22320,note_on,0,0,3,,,,,,,,,2,,,43,36
22320,note_on,30,0,3,,,,,,,,,2,,,36,0
22320,note_on,0,0,1,,,,,,,,,0,,,76,88
22350,note_on,0,0,3,,,,,,,,,2,,,36,36
22350,note_on,30,0,3,,,,,,,,,2,,,43,0
22380,note_on,30,0,3,,,,,,,,,2,,,43,36
22386,note_on,6,0,3,,,,,,,,,2,,,43,0
22386,note_on,0,0,3,,,,,,,,,2,,,36,0
22410,note_on,0,0,1,,,,,,,,,0,,,72,36
22410,note_on,0,0,1,,,,,,,,,0,,,76,36
22410,note_on,90,0,1,,,,,,,,,0,,,76,0
22410,note_on,0,0,1,,,,,,,,,0,,,72,0
22440,note_on,0,0,1,,,,,,,,,0,,,79,36
22440,note_on,54,0,3,,,,,,,,,2,,,36,54
22440,note_on,0,0,3,,,,,,,,,2,,,43,62
22440,note_on,0,0,1,,,,,,,,,0,,,76,36
22440,note_on,0,0,1,,,,,,,,,0,,,72,0
22440,note_on,30,0,1,,,,,,,,,0,,,76,0
22470,note_on,0,0,1,,,,,,,,,0,,,78,36
22470,note_on,0,0,1,,,,,,,,,0,,,74,36
22470,note_on,0,0,1,,,,,,,,,0,,,76,0
22470,note_on,30,0,1,,,,,,,,,0,,,79,0
22500,note_on,0,0,1,,,,,,,,,0,,,72,36
22500,note_on,0,0,1,,,,,,,,,0,,,76,36
22500,note_on,0,0,1,,,,,,,,,0,,,74,0
22500,note_on,30,0,1,,,,,,,,,0,,,78,0
22530,note_on,30,0,1,,,,,,,,,0,,,76,0
22530,note_on,0,0,1,,,,,,,,,0,,,69,36
22530,note_on,0,0,1,,,,,,,,,0,,,72,36
22530,note_on,0,0,1,,,,,,,,,0,,,72,0
22560,note_on,30,0,1,,,,,,,,,0,,,72,0
22560,note_on,0,0,1,,,,,,,,,0,,,69,0
22560,note_on,0,0,1,,,,,,,,,0,,,72,36
22560,note_on,0,0,1,,,,,,,,,0,,,76,36
22560,note_on,120,0,3,,,,,,,,,2,,,43,0
22560,control_change,0,0,3,,,,,,,,,2,64,0,,
22560,note_on,0,0,3,,,,,,,,,2,,,45,36
22590,note_on,30,0,1,,,,,,,,,0,,,76,0
22590,note_on,0,0,1,,,,,,,,,0,,,72,0
22590,note_on,0,0,1,,,,,,,,,0,,,69,36
22590,note_on,0,0,1,,,,,,,,,0,,,72,36
22590,control_change,0,0,1,,,,,,,,,0,64,0,,
22620,note_on,60,0,3,,,,,,,,,2,,,45,0
22620,note_on,0,0,3,,,,,,,,,2,,,36,0
22620,note_on,0,0,1,,,,,,,,,0,,,69,36
22620,note_on,0,0,1,,,,,,,,,0,,,66,36
22620,note_on,30,0,1,,,,,,,,,0,,,72,0
22620,control_change,0,0,1,,,,,,,,,0,64,127,,
22620,note_on,0,0,1,,,,,,,,,0,,,69,0
22626,note_on,6,0,1,,,,,,,,,0,,,69,0
22626,note_on,0,0,1,,,,,,,,,0,,,66,0
22650,note_on,0,0,3,,,,,,,,,2,,,36,36
22650,control_change,30,0,3,,,,,,,,,2,64,127,,
22680,note_on,54,0,1,,,,,,,,,0,,,66,72
22680,note_on,0,0,1,,,,,,,,,0,,,69,88
22680,note_on,30,0,3,,,,,,,,,2,,,36,0
22680,note_on,0,0,3,,,,,,,,,2,,,45,36
22710,note_on,30,0,3,,,,,,,,,2,,,45,0
22710,note_on,0,0,3,,,,,,,,,2,,,36,36
22740,note_on,30,0,3,,,,,,,,,2,,,45,36
22746,note_on,6,0,3,,,,,,,,,2,,,45,0
22746,note_on,0,0,3,,,,,,,,,2,,,36,0
22770,note_on,0,0,1,,,,,,,,,0,,,69,36
22770,note_on,90,0,1,,,,,,,,,0,,,69,0
22770,note_on,0,0,1,,,,,,,,,0,,,66,0
22770,note_on,0,0,1,,,,,,,,,0,,,66,36
22800,note_on,0,0,1,,,,,,,,,0,,,66,0
22800,note_on,54,0,3,,,,,,,,,2,,,36,54
22800,note_on,0,0,3,,,,,,,,,2,,,45,62
22800,note_on,0,0,1,,,,,,,,,0,,,72,36
22800,note_on,0,0,1,,,,,,,,,0,,,69,36
22800,note_on,30,0,1,,,,,,,,,0,,,69,0
22830,note_on,0,0,1,,,,,,,,,0,,,71,36
22830,note_on,0,0,1,,,,,,,,,0,,,67,36
22830,note_on,0,0,1,,,,,,,,,0,,,69,0
22830,note_on,30,0,1,,,,,,,,,0,,,72,0
22860,note_on,0,0,1,,,,,,,,,0,,,69,36
22860,note_on,0,0,1,,,,,,,,,0,,,66,36
22860,note_on,0,0,1,,,,,,,,,0,,,67,0
22860,note_on,30,0,1,,,,,,,,,0,,,71,0
22890,note_on,0,0,1,,,,,,,,,0,,,71,36
22890,note_on,0,0,1,,,,,,,,,0,,,67,36
22890,note_on,0,0,1,,,,,,,,,0,,,66,0
22890,note_on,30,0,1,,,,,,,,,0,,,69,0
22920,note_on,120,0,3,,,,,,,,,2,,,45,0
22920,note_on,0,0,3,,,,,,,,,2,,,48,36
22920,note_on,0,0,1,,,,,,,,,0,,,69,36
22920,note_on,0,0,1,,,,,,,,,0,,,66,36
22920,note_on,0,0,1,,,,,,,,,0,,,67,0
22920,note_on,30,0,1,,,,,,,,,0,,,71,0
22920,note_on,0,0,3,,,,,,,,,2,,,57,36
22920,control_change,0,0,3,,,,,,,,,2,64,0,,
22920,note_on,0,0,3,,,,,,,,,2,,,36,0
22950,control_change,0,0,1,,,,,,,,,0,64,0,,
22950,note_on,0,0,1,,,,,,,,,0,,,66,36
22950,note_on,0,0,1,,,,,,,,,0,,,66,0
22950,note_on,30,0,1,,,,,,,,,0,,,69,0
22950,note_on,0,0,1,,,,,,,,,0,,,64,36
22980,note_on,0,0,1,,,,,,,,,0,,,64,0
22980,note_on,60,0,3,,,,,,,,,2,,,57,0
22980,note_on,0,0,3,,,,,,,,,2,,,48,0
22980,note_on,30,0,1,,,,,,,,,0,,,66,0
22980,note_on,0,0,1,,,,,,,,,0,,,71,36
22980,note_on,0,0,1,,,,,,,,,0,,,63,36
22980,control_change,0,0,1,,,,,,,,,0,64,127,,
22986,note_on,6,0,1,,,,,,,,,0,,,71,0
22986,note_on,0,0,1,,,,,,,,,0,,,63,0
23010,note_on,0,0,3,,,,,,,,,2,,,47,36
23010,control_change,30,0,3,,,,,,,,,2,64,127,,
23040,note_on,54,0,1,,,,,,,,,0,,,63,54
23040,note_on,0,0,1,,,,,,,,,0,,,71,62
23040,note_on,0,0,3,,,,,,,,,2,,,57,36
23040,note_on,30,0,3,,,,,,,,,2,,,47,0
23070,note_on,0,0,3,,,,,,,,,2,,,47,36
23070,note_on,30,0,3,,,,,,,,,2,,,57,0
23100,note_on,30,0,3,,,,,,,,,2,,,57,36
23106,note_on,6,0,3,,,,,,,,,2,,,57,0
23106,note_on,0,0,3,,,,,,,,,2,,,47,0
23130,note_on,0,0,1,,,,,,,,,0,,,69,36
23130,note_on,0,0,1,,,,,,,,,0,,,66,36
23130,note_on,0,0,1,,,,,,,,,0,,,63,0
23130,note_on,90,0,1,,,,,,,,,0,,,71,0
23160,note_on,0,0,3,,,,,,,,,2,,,57,36
23160,note_on,0,0,1,,,,,,,,,0,,,66,0
23160,note_on,54,0,3,,,,,,,,,2,,,47,36
23160,note_on,0,0,1,,,,,,,,,0,,,69,36
23160,note_on,30,0,1,,,,,,,,,0,,,69,0
23160,note_on,0,0,1,,,,,,,,,0,,,72,36
23190,note_on,0,0,1,,,,,,,,,0,,,71,36
23190,note_on,0,0,1,,,,,,,,,0,,,67,36
23190,note_on,0,0,1,,,,,,,,,0,,,69,0
23190,note_on,30,0,1,,,,,,,,,0,,,72,0
23220,note_on,0,0,1,,,,,,,,,0,,,67,0
23220,note_on,0,0,1,,,,,,,,,0,,,69,36
23220,note_on,0,0,1,,,,,,,,,0,,,66,36
23220,note_on,30,0,1,,,,,,,,,0,,,71,0
23250,note_on,0,0,1,,,,,,,,,0,,,67,36
23250,note_on,0,0,1,,,,,,,,,0,,,71,36
23250,note_on,30,0,1,,,,,,,,,0,,,69,0
23250,note_on,0,0,1,,,,,,,,,0,,,66,0
23280,note_on,0,0,1,,,,,,,,,0,,,67,0
23280,note_on,30,0,1,,,,,,,,,0,,,71,0
23280,note_on,0,0,1,,,,,,,,,0,,,69,36
23280,note_on,0,0,1,,,,,,,,,0,,,66,36
23280,note_on,0,0,3,,,,,,,,,2,,,47,0
23280,control_change,0,0,3,,,,,,,,,2,64,0,,
23280,note_on,0,0,3,,,,,,,,,2,,,48,36
23280,note_on,0,0,3,,,,,,,,,2,,,57,36
23280,note_on,120,0,3,,,,,,,,,2,,,57,0
23310,control_change,0,0,1,,,,,,,,,0,64,0,,
23310,note_on,0,0,1,,,,,,,,,0,,,64,36
23310,note_on,0,0,1,,,,,,,,,0,,,66,0
23310,note_on,30,0,1,,,,,,,,,0,,,69,0
23310,note_on,0,0,1,,,,,,,,,0,,,66,36
23340,note_on,60,0,3,,,,,,,,,2,,,57,0
23340,note_on,30,0,1,,,,,,,,,0,,,66,0
23340,note_on,0,0,1,,,,,,,,,0,,,64,0
23340,note_on,0,0,1,,,,,,,,,0,,,63,36
23340,control_change,0,0,1,,,,,,,,,0,64,127,,
23340,note_on,0,0,3,,,,,,,,,2,,,48,0
23340,note_on,0,0,1,,,,,,,,,0,,,71,36
23346,note_on,6,0,1,,,,,,,,,0,,,71,0
23346,note_on,0,0,1,,,,,,,,,0,,,63,0
23370,control_change,30,0,3,,,,,,,,,2,64,127,,
23370,note_on,0,0,3,,,,,,,,,2,,,47,36
23400,note_on,54,0,1,,,,,,,,,0,,,63,54
23400,note_on,30,0,3,,,,,,,,,2,,,47,0
23400,note_on,0,0,3,,,,,,,,,2,,,57,36
23400,note_on,0,0,1,,,,,,,,,0,,,71,62
23430,note_on,30,0,3,,,,,,,,,2,,,57,0
23430,note_on,0,0,3,,,,,,,,,2,,,47,36
23460,note_on,30,0,3,,,,,,,,,2,,,47,0
23460,note_on,0,0,3,,,,,,,,,2,,,57,36
23466,note_on,6,0,3,,,,,,,,,2,,,57,0
23490,note_on,0,0,1,,,,,,,,,0,,,63,0
23490,note_on,90,0,1,,,,,,,,,0,,,71,0
23490,note_on,0,0,1,,,,,,,,,0,,,69,36
23490,note_on,0,0,1,,,,,,,,,0,,,66,36
23520,note_on,0,0,3,,,,,,,,,2,,,57,36
23520,note_on,30,0,1,,,,,,,,,0,,,69,0
23520,note_on,0,0,1,,,,,,,,,0,,,66,0
23520,note_on,0,0,1,,,,,,,,,0,,,69,36
23520,note_on,0,0,1,,,,,,,,,0,,,72,36
23520,note_on,54,0,3,,,,,,,,,2,,,47,36
23550,note_on,0,0,1,,,,,,,,,0,,,69,0
23550,note_on,0,0,1,,,,,,,,,0,,,71,36
23550,note_on,0,0,1,,,,,,,,,0,,,67,36
23550,note_on,30,0,1,,,,,,,,,0,,,72,0
23580,note_on,0,0,1,,,,,,,,,0,,,69,36
23580,note_on,0,0,1,,,,,,,,,0,,,66,36
23580,note_on,0,0,1,,,,,,,,,0,,,67,0
23580,note_on,30,0,1,,,,,,,,,0,,,71,0
23610,note_on,30,0,1,,,,,,,,,0,,,69,0
23610,note_on,0,0,1,,,,,,,,,0,,,66,0
23610,note_on,0,0,1,,,,,,,,,0,,,67,36
23610,note_on,0,0,1,,,,,,,,,0,,,71,36
23640,note_on,0,0,3,,,,,,,,,2,,,47,0
23640,note_on,30,0,1,,,,,,,,,0,,,71,0
23640,note_on,0,0,1,,,,,,,,,0,,,67,0
23640,note_on,0,0,1,,,,,,,,,0,,,66,36
23640,note_on,0,0,1,,,,,,,,,0,,,69,36
23640,control_change,0,0,3,,,,,,,,,2,64,0,,
23640,note_on,120,0,3,,,,,,,,,2,,,57,0
23640,note_on,0,0,3,,,,,,,,,2,,,48,36
23640,note_on,0,0,3,,,,,,,,,2,,,57,36
23670,note_on,0,0,1,,,,,,,,,0,,,64,36
23670,note_on,0,0,1,,,,,,,,,0,,,66,36
23670,control_change,0,0,1,,,,,,,,,0,64,0,,
23670,note_on,30,0,1,,,,,,,,,0,,,69,0
23670,note_on,0,0,1,,,,,,,,,0,,,66,0
23700,control_change,0,0,1,,,,,,,,,0,64,127,,
23700,note_on,60,0,3,,,,,,,,,2,,,57,0
23700,note_on,0,0,3,,,,,,,,,2,,,48,0
23700,note_on,0,0,1,,,,,,,,,0,,,63,36
23700,note_on,0,0,1,,,,,,,,,0,,,71,36
23700,note_on,0,0,1,,,,,,,,,0,,,64,0
23700,note_on,30,0,1,,,,,,,,,0,,,66,0
23706,note_on,6,0,1,,,,,,,,,0,,,71,0
23706,note_on,0,0,1,,,,,,,,,0,,,63,0
23730,note_on,0,0,3,,,,,,,,,2,,,47,36
23730,control_change,30,0,3,,,,,,,,,2,64,127,,
23760,note_on,30,0,3,,,,,,,,,2,,,47,0
23760,note_on,0,0,3,,,,,,,,,2,,,57,36
23760,note_on,54,0,1,,,,,,,,,0,,,63,36
23760,note_on,0,0,1,,,,,,,,,0,,,71,36
23772,note_on,0,0,1,,,,,,,,,0,,,63,0
23772,note_on,12,0,1,,,,,,,,,0,,,71,0
23790,note_on,30,0,3,,,,,,,,,2,,,57,0
23790,note_on,0,0,3,,,,,,,,,2,,,47,36
23820,note_on,30,0,3,,,,,,,,,2,,,47,0
23820,note_on,0,0,3,,,,,,,,,2,,,57,36
23826,note_on,6,0,3,,,,,,,,,2,,,57,0
23880,note_on,108,0,1,,,,,,,,,0,,,63,36
23880,note_on,0,0,1,,,,,,,,,0,,,71,36
23880,note_on,54,0,3,,,,,,,,,2,,,47,36
23880,note_on,0,0,3,,,,,,,,,2,,,57,36
23892,note_on,0,0,1,,,,,,,,,0,,,63,0
23892,note_on,12,0,1,,,,,,,,,0,,,71,0
24000,note_on,108,0,1,,,,,,,,,0,,,63,36
24000,note_on,0,0,1,,,,,,,,,0,,,71,36
24000,note_on,0,0,3,,,,,,,,,2,,,57,36
24000,note_on,0,0,3,,,,,,,,,2,,,47,0
24000,note_on,120,0,3,,,,,,,,,2,,,57,0
24000,note_on,0,0,3,,,,,,,,,2,,,47,36
24006,note_on,6,0,1,,,,,,,,,0,,,71,0
24006,note_on,0,0,3,,,,,,,,,2,,,47,0
24006,note_on,0,0,1,,,,,,,,,0,,,63,0
24006,note_on,6,0,3,,,,,,,,,2,,,57,0
24060,note_on,0,0,1,,,,,,,,,0,,,71,36
24060,note_on,54,0,1,,,,,,,,,0,,,63,36
24066,note_on,0,0,1,,,,,,,,,0,,,63,0
24066,note_on,6,0,1,,,,,,,,,0,,,71,0
24090,note_on,84,0,3,,,,,,,,,2,,,47,36
24120,note_on,0,0,1,,,,,,,,,0,,,71,36
24120,note_on,30,0,3,,,,,,,,,2,,,47,0
24120,note_on,0,0,3,,,,,,,,,2,,,57,36
24120,note_on,54,0,1,,,,,,,,,0,,,63,36
24120,set_tempo,2940,1,0,,,,,,869565,,,,,,,
24150,note_on,30,0,3,,,,,,,,,2,,,57,0
24150,note_on,0,0,3,,,,,,,,,2,,,47,36
24180,set_tempo,60,1,0,,,,,,909091,,,,,,,
24180,note_on,0,0,3,,,,,,,,,2,,,57,36
24180,note_on,30,0,3,,,,,,,,,2,,,47,0
24186,note_on,6,0,3,,,,,,,,,2,,,57,0
24240,set_tempo,60,1,0,,,,,,952381,,,,,,,
24240,note_on,0,0,3,,,,,,,,,2,,,57,36
24240,note_on,0,0,1,,,,,,,,,0,,,71,36
24240,note_on,0,0,1,,,,,,,,,0,,,63,36
24240,note_on,0,0,1,,,,,,,,,0,,,63,0
24240,note_on,120,0,1,,,,,,,,,0,,,71,0
24240,note_on,54,0,3,,,,,,,,,2,,,47,36
24300,set_tempo,60,1,0,,,,,,1016949,,,,,,,
24360,control_change,0,0,1,,,,,,,,,0,64,0,,
24360,note_on,0,0,1,,,,,,,,,0,,,71,36
24360,note_on,0,0,1,,,,,,,,,0,,,63,36
24360,note_on,120,0,1,,,,,,,,,0,,,71,0
24360,note_on,0,0,1,,,,,,,,,0,,,63,0
24360,note_on,120,0,3,,,,,,,,,2,,,57,0
24360,note_on,0,0,3,,,,,,,,,2,,,57,36
24360,set_tempo,60,1,0,,,,,,1071429,,,,,,,
24360,note_on,0,0,3,,,,,,,,,2,,,47,0
24360,control_change,0,0,3,,,,,,,,,2,64,0,,
24360,note_on,0,0,3,,,,,,,,,2,,,47,36
24366,note_on,0,0,1,,,,,,,,,0,,,63,0
24366,note_on,6,0,1,,,,,,,,,0,,,71,0
24366,note_on,0,0,3,,,,,,,,,2,,,47,0
24366,note_on,6,0,3,,,,,,,,,2,,,57,0
24420,note_on,0,0,1,,,,,,,,,0,,,71,49
24420,note_on,0,0,1,,,,,,,,,0,,,62,49
24420,control_change,54,0,1,,,,,,,,,0,64,127,,
24420,set_tempo,60,1,0,,,,,,869565,,,,,,,
24420,note_on,0,0,3,,,,,,,,,2,,,56,36
24420,note_on,0,0,3,,,,,,,,,2,,,43,36
24420,control_change,54,0,3,,,,,,,,,2,64,127,,
24426,note_on,0,0,1,,,,,,,,,0,,,62,0
24426,note_on,6,0,1,,,,,,,,,0,,,71,0
24450,note_on,30,0,3,,,,,,,,,2,,,56,0
24450,note_on,0,0,3,,,,,,,,,2,,,43,0
24450,note_on,0,0,3,,,,,,,,,2,,,43,36
24480,note_on,54,0,1,,,,,,,,,0,,,67,67
24480,set_tempo,60,1,0,,,,,,909091,,,,,,,
24480,note_on,30,0,3,,,,,,,,,2,,,43,0
24480,note_on,0,0,3,,,,,,,,,2,,,50,36
24480,note_on,0,0,1,,,,,,,,,0,,,71,75
24510,note_on,30,0,3,,,,,,,,,2,,,50,0
24510,note_on,0,0,3,,,,,,,,,2,,,43,36
24540,set_tempo,60,1,0,,,,,,882353,,,,,,,
24540,note_on,30,0,3,,,,,,,,,2,,,50,36
24546,note_on,6,0,3,,,,,,,,,2,,,50,0
24546,note_on,0,0,3,,,,,,,,,2,,,43,0
24570,note_on,90,0,1,,,,,,,,,0,,,71,0
24570,note_on,0,0,1,,,,,,,,,0,,,67,0
24570,note_on,0,0,1,,,,,,,,,0,,,62,49
24570,note_on,0,0,1,,,,,,,,,0,,,69,49
24600,note_on,0,0,1,,,,,,,,,0,,,67,49
24600,note_on,0,0,1,,,,,,,,,0,,,62,0
24600,note_on,0,0,1,,,,,,,,,0,,,71,49
24600,control_change,54,0,3,,,,,,,,,2,64,0,,
24600,note_on,0,0,3,,,,,,,,,2,,,43,54
24600,note_on,0,0,3,,,,,,,,,2,,,50,62
24600,note_on,30,0,1,,,,,,,,,0,,,69,0
24630,note_on,30,0,1,,,,,,,,,0,,,71,0
24630,note_on,0,0,1,,,,,,,,,0,,,74,49
24630,note_on,0,0,1,,,,,,,,,0,,,69,49
24630,note_on,0,0,1,,,,,,,,,0,,,67,0
24660,note_on,30,0,1,,,,,,,,,0,,,74,0
24660,note_on,0,0,1,,,,,,,,,0,,,69,0
24660,note_on,0,0,1,,,,,,,,,0,,,67,49
24660,note_on,0,0,1,,,,,,,,,0,,,71,49
24690,note_on,0,0,1,,,,,,,,,0,,,67,0
24690,note_on,0,0,1,,,,,,,,,0,,,69,49
24690,note_on,30,0,1,,,,,,,,,0,,,71,0
24690,note_on,0,0,1,,,,,,,,,0,,,62,49
24720,note_on,30,0,1,,,,,,,,,0,,,69,0
24720,note_on,0,0,1,,,,,,,,,0,,,71,49
24720,note_on,0,0,1,,,,,,,,,0,,,67,49
24720,note_on,0,0,1,,,,,,,,,0,,,62,0
24750,note_on,0,0,1,,,,,,,,,0,,,69,49
24750,note_on,0,0,1,,,,,,,,,0,,,74,49
24750,note_on,30,0,1,,,,,,,,,0,,,71,0
24750,note_on,0,0,1,,,,,,,,,0,,,67,0
24750,control_change,0,0,1,,,,,,,,,0,64,0,,
24780,note_on,0,0,3,,,,,,,,,2,,,43,0
24780,set_tempo,240,1,0,,,,,,833333,,,,,,,
24780,note_on,180,0,3,,,,,,,,,2,,,50,0
24780,control_change,0,0,1,,,,,,,,,0,64,127,,
24780,note_on,0,0,1,,,,,,,,,0,,,71,49
24780,note_on,0,0,1,,,,,,,,,0,,,67,49
24780,note_on,30,0,1,,,,,,,,,0,,,74,0
24780,note_on,0,0,1,,,,,,,,,0,,,69,0
24786,note_on,0,0,1,,,,,,,,,0,,,67,0
24786,note_on,6,0,1,,,,,,,,,0,,,71,0
24810,note_on,0,0,3,,,,,,,,,2,,,43,36
24810,control_change,30,0,3,,,,,,,,,2,64,127,,
24840,note_on,30,0,3,,,,,,,,,2,,,43,0
24840,note_on,0,0,3,,,,,,,,,2,,,50,36
24840,note_on,0,0,1,,,,,,,,,0,,,71,75
24840,note_on,54,0,1,,,,,,,,,0,,,67,67
24870,note_on,30,0,3,,,,,,,,,2,,,50,0
24870,note_on,0,0,3,,,,,,,,,2,,,43,36
24900,note_on,30,0,3,,,,,,,,,2,,,50,36
24906,note_on,6,0,3,,,,,,,,,2,,,50,0
24906,note_on,0,0,3,,,,,,,,,2,,,43,0
24930,note_on,0,0,1,,,,,,,,,0,,,69,49
24930,note_on,0,0,1,,,,,,,,,0,,,62,49
24930,note_on,0,0,1,,,,,,,,,0,,,67,0
24930,note_on,90,0,1,,,,,,,,,0,,,71,0
24960,control_change,54,0,3,,,,,,,,,2,64,0,,
24960,note_on,0,0,4,,,,,,,,,3,,,43,62
24960,note_on,0,0,3,,,,,,,,,2,,,50,36
24960,control_change,3060,0,4,,,,,,,,,3,64,127,,
24960,note_on,30,0,1,,,,,,,,,0,,,69,0
24960,note_on,0,0,1,,,,,,,,,0,,,62,0
24960,note_on,0,0,1,,,,,,,,,0,,,67,49
24960,note_on,0,0,1,,,,,,,,,0,,,71,49
24990,note_on,30,0,1,,,,,,,,,0,,,71,0
24990,note_on,0,0,1,,,,,,,,,0,,,67,0
24990,note_on,0,0,1,,,,,,,,,0,,,69,49
24990,note_on,0,0,1,,,,,,,,,0,,,74,49
25020,note_on,0,0,1,,,,,,,,,0,,,71,49
25020,note_on,0,0,1,,,,,,,,,0,,,67,49
25020,note_on,0,0,1,,,,,,,,,0,,,69,0
25020,note_on,30,0,1,,,,,,,,,0,,,74,0
25050,note_on,0,0,1,,,,,,,,,0,,,67,0
25050,note_on,30,0,1,,,,,,,,,0,,,71,0
25050,note_on,90,0,4,,,,,,,,,3,,,43,0
25050,note_on,0,0,4,,,,,,,,,3,,,42,36
25050,note_on,0,0,1,,,,,,,,,0,,,62,49
25050,note_on,0,0,1,,,,,,,,,0,,,69,49
25080,note_on,30,0,4,,,,,,,,,3,,,42,0
25080,note_on,0,0,4,,,,,,,,,3,,,40,36
25080,note_on,0,0,1,,,,,,,,,0,,,67,49
25080,note_on,0,0,1,,,,,,,,,0,,,62,0
25080,note_on,0,0,1,,,,,,,,,0,,,71,49
25080,note_on,30,0,1,,,,,,,,,0,,,69,0
25110,note_on,0,0,4,,,,,,,,,3,,,38,36
25110,control_change,0,0,4,,,,,,,,,3,64,0,,
25110,note_on,30,0,4,,,,,,,,,3,,,40,0
25110,note_on,0,0,1,,,,,,,,,0,,,69,49
25110,note_on,0,0,1,,,,,,,,,0,,,74,49
25110,control_change,0,0,1,,,,,,,,,0,64,0,,
25110,note_on,0,0,1,,,,,,,,,0,,,67,0
25110,note_on,30,0,1,,,,,,,,,0,,,71,0
25140,control_change,0,0,1,,,,,,,,,0,64,127,,
25140,note_on,0,0,1,,,,,,,,,0,,,72,49
25140,note_on,0,0,1,,,,,,,,,0,,,69,0
25140,note_on,30,0,1,,,,,,,,,0,,,74,0
25140,note_on,180,0,3,,,,,,,,,2,,,50,0
25140,note_on,30,0,4,,,,,,,,,3,,,38,0
25140,note_on,0,0,1,,,,,,,,,0,,,76,49
25146,note_on,0,0,1,,,,,,,,,0,,,72,0
25146,note_on,6,0,1,,,,,,,,,0,,,76,0
25170,note_on,0,0,3,,,,,,,,,2,,,36,36
25170,control_change,30,0,3,,,,,,,,,2,64,127,,
25200,note_on,0,0,3,,,,,,,,,2,,,43,36
25200,note_on,30,0,3,,,,,,,,,2,,,36,0
25200,note_on,0,0,1,,,,,,,,,0,,,76,75
25200,note_on,54,0,1,,,,,,,,,0,,,72,67
25230,note_on,0,0,3,,,,,,,,,2,,,36,36
25230,note_on,30,0,3,,,,,,,,,2,,,43,0
25260,note_on,30,0,3,,,,,,,,,2,,,43,36
25266,note_on,0,0,3,,,,,,,,,2,,,36,0
25266,note_on,6,0,3,,,,,,,,,2,,,43,0
25290,note_on,90,0,1,,,,,,,,,0,,,76,0
25290,note_on,0,0,1,,,,,,,,,0,,,72,0
25290,note_on,0,0,1,,,,,,,,,0,,,67,49
25290,note_on,0,0,1,,,,,,,,,0,,,74,49
25320,note_on,30,0,1,,,,,,,,,0,,,74,0
25320,control_change,54,0,3,,,,,,,,,2,64,0,,
25320,note_on,0,0,3,,,,,,,,,2,,,36,54
25320,note_on,0,0,3,,,,,,,,,2,,,43,62
25320,note_on,0,0,1,,,,,,,,,0,,,72,49
25320,note_on,0,0,1,,,,,,,,,0,,,76,49
25320,note_on,0,0,1,,,,,,,,,0,,,67,0
25350,note_on,30,0,1,,,,,,,,,0,,,76,0
25350,note_on,0,0,1,,,,,,,,,0,,,72,0
25350,note_on,0,0,1,,,,,,,,,0,,,67,49
25350,note_on,0,0,1,,,,,,,,,0,,,74,49
25380,note_on,30,0,1,,,,,,,,,0,,,74,0
25380,note_on,0,0,1,,,,,,,,,0,,,67,0
25380,note_on,0,0,1,,,,,,,,,0,,,64,49
25380,note_on,0,0,1,,,,,,,,,0,,,72,49
25410,note_on,0,0,1,,,,,,,,,0,,,67,49
25410,note_on,30,0,1,,,,,,,,,0,,,72,0
25410,note_on,0,0,1,,,,,,,,,0,,,64,0
25410,note_on,0,0,1,,,,,,,,,0,,,62,49
25440,note_on,0,0,1,,,,,,,,,0,,,72,49
25440,note_on,30,0,1,,,,,,,,,0,,,67,0
25440,note_on,0,0,1,,,,,,,,,0,,,62,0
25440,note_on,0,0,1,,,,,,,,,0,,,64,49
25470,note_on,30,0,1,,,,,,,,,0,,,72,0
25470,note_on,0,0,1,,,,,,,,,0,,,64,0
25470,note_on,0,0,1,,,,,,,,,0,,,67,49
25470,note_on,0,0,1,,,,,,,,,0,,,77,49
25470,control_change,0,0,1,,,,,,,,,0,64,0,,
25500,note_on,180,0,3,,,,,,,,,2,,,43,0
25500,control_change,0,0,1,,,,,,,,,0,64,127,,
25500,note_on,0,0,1,,,,,,,,,0,,,76,49
25500,note_on,0,0,1,,,,,,,,,0,,,67,0
25500,note_on,30,0,1,,,,,,,,,0,,,77,0
25500,note_on,0,0,1,,,,,,,,,0,,,72,49
25500,note_on,0,0,3,,,,,,,,,2,,,36,0
25506,note_on,6,0,1,,,,,,,,,0,,,76,0
25506,note_on,0,0,1,,,,,,,,,0,,,72,0
25530,control_change,30,0,3,,,,,,,,,2,64,127,,
25530,note_on,0,0,3,,,,,,,,,2,,,36,36
25560,note_on,54,0,1,,,,,,,,,0,,,72,85
25560,note_on,0,0,1,,,,,,,,,0,,,76,101
25560,note_on,30,0,3,,,,,,,,,2,,,36,0
25560,note_on,0,0,3,,,,,,,,,2,,,43,36
25590,note_on,0,0,3,,,,,,,,,2,,,36,36
25590,note_on,30,0,3,,,,,,,,,2,,,43,0
25620,note_on,30,0,3,,,,,,,,,2,,,43,36
25626,note_on,0,0,3,,,,,,,,,2,,,36,0
25626,note_on,6,0,3,,,,,,,,,2,,,43,0
25650,note_on,90,0,1,,,,,,,,,0,,,76,0
25650,note_on,0,0,1,,,,,,,,,0,,,72,49
25650,note_on,0,0,1,,,,,,,,,0,,,72,0
25650,note_on,0,0,1,,,,,,,,,0,,,76,49
25680,note_on,30,0,1,,,,,,,,,0,,,76,0
25680,control_change,540,0,4,,,,,,,,,3,64,127,,
25680,note_on,0,0,1,,,,,,,,,0,,,72,0
25680,note_on,0,0,1,,,,,,,,,0,,,72,49
25680,note_on,0,0,1,,,,,,,,,0,,,76,49
25680,note_on,54,0,3,,,,,,,,,2,,,43,36
25680,note_on,0,0,4,,,,,,,,,3,,,36,36
25710,note_on,30,0,1,,,,,,,,,0,,,76,0
25710,note_on,0,0,1,,,,,,,,,0,,,72,0
25710,note_on,0,0,1,,,,,,,,,0,,,72,49
25710,note_on,0,0,1,,,,,,,,,0,,,76,49
25740,note_on,60,0,4,,,,,,,,,3,,,36,0
25740,note_on,30,0,1,,,,,,,,,0,,,76,0
25740,note_on,0,0,2,,,,,,,,,1,,,74,75
25740,note_on,0,0,4,,,,,,,,,3,,,35,36
25740,control_change,6600,0,2,,,,,,,,,1,64,127,,
25740,control_change,0,0,1,,,,,,,,,0,64,0,,
25740,note_on,0,0,3,,,,,,,,,2,,,44,36
25740,note_on,0,0,1,,,,,,,,,0,,,72,0
25740,note_on,60,0,3,,,,,,,,,2,,,43,0
25740,control_change,0,0,3,,,,,,,,,2,64,0,,
25740,note_on,0,0,1,,,,,,,,,0,,,76,49
25770,note_on,30,0,2,,,,,,,,,1,,,74,0
25770,note_on,0,0,2,,,,,,,,,1,,,71,75
25800,control_change,0,0,4,,,,,,,,,3,64,0,,
25800,note_on,0,0,4,,,,,,,,,3,,,40,36
25800,note_on,30,0,2,,,,,,,,,1,,,71,0
25800,note_on,0,0,2,,,,,,,,,1,,,73,75
25800,note_on,60,0,4,,,,,,,,,3,,,35,0
25830,note_on,30,0,2,,,,,,,,,1,,,73,0
25830,control_change,0,0,2,,,,,,,,,1,64,0,,
25830,note_on,0,0,2,,,,,,,,,1,,,74,75
25860,note_on,0,0,3,,,,,,,,,2,,,33,36
25860,control_change,0,0,3,,,,,,,,,2,64,127,,
25860,note_on,120,0,3,,,,,,,,,2,,,44,0
25860,note_on,0,0,3,,,,,,,,,2,,,45,36
25860,note_on,60,0,4,,,,,,,,,3,,,40,0
25860,note_on,30,0,2,,,,,,,,,1,,,74,0
25860,note_on,0,0,1,,,,,,,,,0,,,73,49
25860,control_change,0,0,1,,,,,,,,,0,64,127,,
25860,note_on,120,0,1,,,,,,,,,0,,,76,0
25860,note_on,0,0,1,,,,,,,,,0,,,76,49
25866,note_on,6,0,1,,,,,,,,,0,,,76,0
25866,note_on,0,0,1,,,,,,,,,0,,,73,0
25890,note_on,30,0,3,,,,,,,,,2,,,45,0
25890,note_on,0,0,3,,,,,,,,,2,,,33,0
25890,note_on,0,0,3,,,,,,,,,2,,,45,36
25920,note_on,54,0,1,,,,,,,,,0,,,73,67
25920,note_on,0,0,1,,,,,,,,,0,,,76,75
25920,note_on,0,0,3,,,,,,,,,2,,,55,36
25920,note_on,30,0,3,,,,,,,,,2,,,45,0
25950,note_on,30,0,3,,,,,,,,,2,,,55,0
25950,note_on,0,0,3,,,,,,,,,2,,,45,36
25980,note_on,30,0,3,,,,,,,,,2,,,55,36
25986,note_on,6,0,3,,,,,,,,,2,,,55,0
25986,note_on,0,0,3,,,,,,,,,2,,,45,0
26010,note_on,0,0,1,,,,,,,,,0,,,76,49
26010,note_on,0,0,1,,,,,,,,,0,,,73,0
26010,note_on,90,0,1,,,,,,,,,0,,,76,0
26010,note_on,0,0,1,,,,,,,,,0,,,79,49
26040,note_on,0,0,3,,,,,,,,,2,,,55,62
26040,note_on,54,0,3,,,,,,,,,2,,,45,54
26040,note_on,0,0,1,,,,,,,,,0,,,79,49
26040,note_on,0,0,1,,,,,,,,,0,,,76,0
26040,note_on,30,0,1,,,,,,,,,0,,,79,0
26040,note_on,0,0,1,,,,,,,,,0,,,82,49
26070,note_on,30,0,1,,,,,,,,,0,,,82,0
26070,note_on,0,0,1,,,,,,,,,0,,,79,0
26070,note_on,0,0,1,,,,,,,,,0,,,77,49
26070,note_on,0,0,1,,,,,,,,,0,,,81,49
26100,note_on,30,0,1,,,,,,,,,0,,,81,0
26100,note_on,0,0,1,,,,,,,,,0,,,77,0
26100,note_on,0,0,1,,,,,,,,,0,,,76,49
26100,note_on,0,0,1,,,,,,,,,0,,,79,49
26100,control_change,0,0,1,,,,,,,,,0,64,0,,
26130,note_on,0,0,1,,,,,,,,,0,,,81,49
26130,note_on,0,0,1,,,,,,,,,0,,,77,49
26130,note_on,0,0,1,,,,,,,,,0,,,76,0
26130,note_on,30,0,1,,,,,,,,,0,,,79,0
26160,note_on,0,0,3,,,,,,,,,2,,,45,0
26160,note_on,0,0,1,,,,,,,,,0,,,79,49
26160,note_on,0,0,1,,,,,,,,,0,,,77,0
26160,note_on,30,0,1,,,,,,,,,0,,,81,0
26160,note_on,0,0,1,,,,,,,,,0,,,76,49
26160,note_on,0,0,3,,,,,,,,,2,,,55,36
26160,note_on,120,0,3,,,,,,,,,2,,,55,0
26160,control_change,0,0,3,,,,,,,,,2,64,0,,
26160,note_on,0,0,3,,,,,,,,,2,,,46,36
26190,note_on,0,0,1,,,,,,,,,0,,,76,0
26190,note_on,0,0,1,,,,,,,,,0,,,76,49
26190,note_on,30,0,1,,,,,,,,,0,,,79,0
26190,note_on,0,0,1,,,,,,,,,0,,,77,49
26220,note_on,30,0,1,,,,,,,,,0,,,77,0
26220,note_on,0,0,3,,,,,,,,,2,,,46,0
26220,control_change,0,0,1,,,,,,,,,0,64,127,,
26220,note_on,0,0,1,,,,,,,,,0,,,81,49
26220,note_on,0,0,1,,,,,,,,,0,,,73,49
26220,note_on,0,0,1,,,,,,,,,0,,,76,0
26220,note_on,60,0,3,,,,,,,,,2,,,55,0
26226,note_on,0,0,1,,,,,,,,,0,,,73,0
26226,note_on,6,0,1,,,,,,,,,0,,,81,0
26250,note_on,0,0,3,,,,,,,,,2,,,45,36
26250,control_change,30,0,3,,,,,,,,,2,64,127,,
26280,note_on,30,0,3,,,,,,,,,2,,,45,0
26280,note_on,0,0,1,,,,,,,,,0,,,81,75
26280,note_on,54,0,1,,,,,,,,,0,,,73,67
26280,note_on,0,0,3,,,,,,,,,2,,,55,36
26310,note_on,30,0,3,,,,,,,,,2,,,55,0
26310,note_on,0,0,3,,,,,,,,,2,,,45,36
26340,note_on,30,0,3,,,,,,,,,2,,,55,36
26346,note_on,0,0,3,,,,,,,,,2,,,45,0
26346,note_on,6,0,3,,,,,,,,,2,,,55,0
26370,note_on,0,0,1,,,,,,,,,0,,,73,0
26370,note_on,0,0,1,,,,,,,,,0,,,76,49
26370,note_on,0,0,1,,,,,,,,,0,,,79,49
26370,note_on,90,0,1,,,,,,,,,0,,,81,0
26400,note_on,0,0,3,,,,,,,,,2,,,55,62
26400,note_on,54,0,3,,,,,,,,,2,,,45,54
26400,note_on,30,0,1,,,,,,,,,0,,,79,0
26400,note_on,0,0,1,,,,,,,,,0,,,76,0
26400,note_on,0,0,1,,,,,,,,,0,,,79,49
26400,note_on,0,0,1,,,,,,,,,0,,,82,49
26430,note_on,0,0,1,,,,,,,,,0,,,81,49
26430,note_on,0,0,1,,,,,,,,,0,,,77,49
26430,note_on,0,0,1,,,,,,,,,0,,,79,0
26430,note_on,30,0,1,,,,,,,,,0,,,82,0
26460,note_on,30,0,1,,,,,,,,,0,,,81,0
26460,note_on,0,0,1,,,,,,,,,0,,,77,0
26460,note_on,0,0,1,,,,,,,,,0,,,76,49
26460,note_on,0,0,1,,,,,,,,,0,,,79,49
26460,control_change,0,0,1,,,,,,,,,0,64,0,,
26490,note_on,30,0,1,,,,,,,,,0,,,79,0
26490,note_on,0,0,1,,,,,,,,,0,,,76,0
26490,note_on,0,0,1,,,,,,,,,0,,,77,49
26490,note_on,0,0,1,,,,,,,,,0,,,81,49
26520,note_on,30,0,1,,,,,,,,,0,,,81,0
26520,note_on,120,0,3,,,,,,,,,2,,,55,0
26520,note_on,0,0,3,,,,,,,,,2,,,45,0
26520,control_change,0,0,3,,,,,,,,,2,64,0,,
26520,note_on,0,0,3,,,,,,,,,2,,,46,36
26520,note_on,0,0,3,,,,,,,,,2,,,55,36
26520,note_on,0,0,1,,,,,,,,,0,,,77,0
26520,note_on,0,0,1,,,,,,,,,0,,,76,49
26520,note_on,0,0,1,,,,,,,,,0,,,79,49
26550,note_on,30,0,1,,,,,,,,,0,,,79,0
26550,note_on,0,0,1,,,,,,,,,0,,,77,49
26550,note_on,0,0,1,,,,,,,,,0,,,76,49
26550,note_on,0,0,1,,,,,,,,,0,,,76,0
26580,note_on,0,0,1,,,,,,,,,0,,,73,49
26580,note_on,0,0,1,,,,,,,,,0,,,76,0
26580,note_on,30,0,1,,,,,,,,,0,,,77,0
26580,note_on,0,0,1,,,,,,,,,0,,,81,49
26580,note_on,60,0,3,,,,,,,,,2,,,55,0
26580,note_on,0,0,3,,,,,,,,,2,,,46,0
26580,control_change,0,0,3,,,,,,,,,2,64,127,,
26580,note_on,0,0,3,,,,,,,,,2,,,45,36
26580,note_on,0,0,3,,,,,,,,,2,,,55,36
26580,control_change,0,0,1,,,,,,,,,0,64,127,,
26586,note_on,0,0,1,,,,,,,,,0,,,73,0
26586,note_on,6,0,1,,,,,,,,,0,,,81,0
26610,note_on,30,0,3,,,,,,,,,2,,,55,0
26610,note_on,0,0,3,,,,,,,,,2,,,45,36
26610,note_on,0,0,3,,,,,,,,,2,,,45,0
26640,note_on,30,0,3,,,,,,,,,2,,,45,0
26640,note_on,0,0,3,,,,,,,,,2,,,55,36
26640,note_on,0,0,1,,,,,,,,,0,,,81,75
26640,note_on,54,0,1,,,,,,,,,0,,,73,67
26670,note_on,30,0,3,,,,,,,,,2,,,55,0
26670,note_on,0,0,3,,,,,,,,,2,,,45,36
26700,note_on,30,0,3,,,,,,,,,2,,,55,36
26706,note_on,0,0,3,,,,,,,,,2,,,45,0
26706,note_on,6,0,3,,,,,,,,,2,,,55,0
26760,note_on,0,0,3,,,,,,,,,2,,,55,62
26760,note_on,54,0,3,,,,,,,,,2,,,45,54
26760,note_on,120,0,1,,,,,,,,,0,,,81,0
26760,note_on,0,0,1,,,,,,,,,0,,,73,0
26760,note_on,0,0,1,,,,,,,,,0,,,73,49
26760,note_on,0,0,1,,,,,,,,,0,,,81,49
26772,note_on,0,0,1,,,,,,,,,0,,,73,0
26772,note_on,12,0,1,,,,,,,,,0,,,81,0
26880,note_on,0,0,3,,,,,,,,,2,,,45,36
26880,note_on,0,0,3,,,,,,,,,2,,,55,36
26880,note_on,0,0,3,,,,,,,,,2,,,45,0
26880,note_on,0,0,1,,,,,,,,,0,,,81,49
26880,note_on,108,0,1,,,,,,,,,0,,,73,49
26880,note_on,120,0,3,,,,,,,,,2,,,55,0
26886,note_on,0,0,1,,,,,,,,,0,,,73,0
26886,note_on,6,0,1,,,,,,,,,0,,,81,0
26940,note_on,60,0,3,,,,,,,,,2,,,55,0
26940,note_on,0,0,1,,,,,,,,,0,,,81,49
26940,note_on,54,0,1,,,,,,,,,0,,,73,49
26940,note_on,0,0,3,,,,,,,,,2,,,45,0
26946,note_on,0,0,1,,,,,,,,,0,,,73,0
26946,note_on,6,0,1,,,,,,,,,0,,,81,0
26970,note_on,30,0,3,,,,,,,,,2,,,57,36
27000,note_on,30,0,3,,,,,,,,,2,,,57,0
27000,note_on,0,0,3,,,,,,,,,2,,,67,36
27000,note_on,0,0,1,,,,,,,,,0,,,81,75
27000,note_on,54,0,1,,,,,,,,,0,,,73,67
27030,note_on,30,0,3,,,,,,,,,2,,,67,0
27030,note_on,0,0,3,,,,,,,,,2,,,57,36
27060,note_on,30,0,3,,,,,,,,,2,,,67,36
27120,note_on,120,0,1,,,,,,,,,0,,,81,0
27120,note_on,0,0,1,,,,,,,,,0,,,73,0
27120,note_on,0,0,1,,,,,,,,,0,,,73,49
27120,note_on,0,0,1,,,,,,,,,0,,,81,49
27120,note_on,0,0,3,,,,,,,,,2,,,67,36
27120,note_on,60,0,3,,,,,,,,,2,,,67,0
27120,note_on,0,0,3,,,,,,,,,2,,,57,0
27120,note_on,0,0,3,,,,,,,,,2,,,57,36
27124,note_on,0,0,1,,,,,,,,,0,,,73,0
27124,note_on,4,0,1,,,,,,,,,0,,,81,0
27150,note_on,26,0,1,,,,,,,,,0,,,69,88
27180,note_on,60,0,3,,,,,,,,,2,,,67,0
27180,note_on,0,0,1,,,,,,,,,0,,,74,88
27180,note_on,0,0,1,,,,,,,,,0,,,66,88
27180,control_change,0,0,1,,,,,,,,,0,64,0,,
27180,note_on,30,0,1,,,,,,,,,0,,,69,0
27180,note_on,0,0,3,,,,,,,,,2,,,57,0
27184,note_on,0,0,1,,,,,,,,,0,,,66,0
27184,note_on,4,0,1,,,,,,,,,0,,,74,0
27210,note_on,0,0,1,,,,,,,,,0,,,74,88
27210,note_on,26,0,1,,,,,,,,,0,,,66,88
27240,control_change,60,0,3,,,,,,,,,2,64,0,,
27240,note_on,0,0,3,,,,,,,,,2,,,57,88
27270,note_on,0,0,1,,,,,,,,,0,,,69,88
27270,note_on,0,0,1,,,,,,,,,0,,,66,0
27270,note_on,60,0,1,,,,,,,,,0,,,74,0
27270,note_on,30,0,3,,,,,,,,,2,,,57,0
27270,note_on,0,0,3,,,,,,,,,2,,,61,88
27270,note_on,0,0,1,,,,,,,,,0,,,76,88
27300,control_change,0,0,3,,,,,,,,,2,64,127,,
27300,control_change,0,0,1,,,,,,,,,0,64,127,,
27300,note_on,0,0,1,,,,,,,,,0,,,78,88
27300,note_on,0,0,1,,,,,,,,,0,,,74,88
27300,note_on,0,0,1,,,,,,,,,0,,,69,0
27300,note_on,30,0,1,,,,,,,,,0,,,76,0
27300,note_on,30,0,3,,,,,,,,,2,,,61,0
27300,note_on,0,0,3,,,,,,,,,2,,,62,88
27306,note_on,0,0,1,,,,,,,,,0,,,74,0
27306,note_on,6,0,1,,,,,,,,,0,,,78,0
27330,note_on,0,0,3,,,,,,,,,2,,,50,114
27330,note_on,30,0,3,,,,,,,,,2,,,62,0
27360,note_on,54,0,1,,,,,,,,,0,,,74,106
27360,note_on,0,0,1,,,,,,,,,0,,,78,114
27390,note_on,60,0,3,,,,,,,,,2,,,50,0
27390,note_on,0,0,3,,,,,,,,,2,,,38,88
27420,note_on,30,0,3,,,,,,,,,2,,,38,0
27420,note_on,0,0,3,,,,,,,,,2,,,50,88
27450,note_on,0,0,1,,,,,,,,,0,,,78,114
27450,note_on,0,0,1,,,,,,,,,0,,,74,106
27450,note_on,0,0,1,,,,,,,,,0,,,74,0
27450,note_on,30,0,3,,,,,,,,,2,,,50,0
27450,note_on,90,0,1,,,,,,,,,0,,,78,0
27480,note_on,30,0,3,,,,,,,,,2,,,57,114
27510,note_on,0,0,3,,,,,,,,,2,,,61,88
27510,note_on,60,0,1,,,,,,,,,0,,,78,0
27510,note_on,0,0,1,,,,,,,,,0,,,74,0
27510,note_on,0,0,1,,,,,,,,,0,,,69,88
27510,note_on,0,0,1,,,,,,,,,0,,,76,88
27510,note_on,30,0,3,,,,,,,,,2,,,57,0
27540,note_on,30,0,1,,,,,,,,,0,,,76,0
27540,note_on,0,0,1,,,,,,,,,0,,,69,0
27540,note_on,0,0,1,,,,,,,,,0,,,66,88
27540,control_change,0,0,1,,,,,,,,,0,64,0,,
27540,note_on,0,0,1,,,,,,,,,0,,,74,88
27540,note_on,30,0,3,,,,,,,,,2,,,61,0
27540,control_change,0,0,3,,,,,,,,,2,64,0,,
27540,note_on,0,0,3,,,,,,,,,2,,,59,88
27570,note_on,0,0,1,,,,,,,,,0,,,66,0
27570,note_on,30,0,3,,,,,,,,,2,,,59,0
27570,note_on,30,0,1,,,,,,,,,0,,,74,0
27570,note_on,0,0,1,,,,,,,,,0,,,74,88
27570,note_on,0,0,1,,,,,,,,,0,,,71,88
27600,note_on,30,0,3,,,,,,,,,2,,,54,88
27630,note_on,0,0,1,,,,,,,,,0,,,73,88
27630,note_on,0,0,1,,,,,,,,,0,,,66,88
27630,note_on,0,0,1,,,,,,,,,0,,,71,0
27630,note_on,60,0,1,,,,,,,,,0,,,74,0
27630,note_on,30,0,3,,,,,,,,,2,,,54,0
27630,note_on,0,0,3,,,,,,,,,2,,,57,88
27660,control_change,0,0,3,,,,,,,,,2,64,127,,
27660,note_on,0,0,3,,,,,,,,,2,,,55,88
27660,note_on,30,0,1,,,,,,,,,0,,,73,0
27660,note_on,0,0,1,,,,,,,,,0,,,66,0
27660,note_on,0,0,1,,,,,,,,,0,,,62,88
27660,note_on,0,0,1,,,,,,,,,0,,,71,88
27660,control_change,0,0,1,,,,,,,,,0,64,127,,
27660,note_on,30,0,3,,,,,,,,,2,,,57,0
27666,note_on,0,0,1,,,,,,,,,0,,,62,0
27666,note_on,6,0,1,,,,,,,,,0,,,71,0
27690,note_on,30,0,3,,,,,,,,,2,,,55,0
27690,note_on,0,0,3,,,,,,,,,2,,,43,114
27720,note_on,54,0,1,,,,,,,,,0,,,67,106
27720,note_on,0,0,1,,,,,,,,,0,,,71,114
27750,note_on,0,0,3,,,,,,,,,2,,,31,88
27750,note_on,60,0,3,,,,,,,,,2,,,43,0
27780,note_on,30,0,3,,,,,,,,,2,,,31,0
27780,note_on,0,0,3,,,,,,,,,2,,,43,88
27810,note_on,0,0,3,,,,,,,,,2,,,47,88
27810,note_on,30,0,3,,,,,,,,,2,,,43,0
27840,note_on,0,0,1,,,,,,,,,0,,,67,0
27840,note_on,30,0,3,,,,,,,,,2,,,47,0
27840,note_on,0,0,3,,,,,,,,,2,,,43,88
27840,note_on,120,0,1,,,,,,,,,0,,,71,0
27840,note_on,0,0,1,,,,,,,,,0,,,71,88
27870,note_on,0,0,3,,,,,,,,,2,,,42,88
27870,note_on,30,0,3,,,,,,,,,2,,,43,0
27900,note_on,0,0,1,,,,,,,,,0,,,67,88
27900,control_change,0,0,1,,,,,,,,,0,64,0,,
27900,note_on,60,0,1,,,,,,,,,0,,,71,0
27900,note_on,0,0,1,,,,,,,,,0,,,76,88
27900,note_on,0,0,3,,,,,,,,,2,,,40,88
27900,control_change,0,0,3,,,,,,,,,2,64,0,,
27900,note_on,30,0,3,,,,,,,,,2,,,42,0
27904,note_on,4,0,1,,,,,,,,,0,,,76,0
27904,note_on,0,0,1,,,,,,,,,0,,,67,0
27930,note_on,26,0,1,,,,,,,,,0,,,67,88
27930,note_on,0,0,1,,,,,,,,,0,,,76,88
27930,note_on,30,0,3,,,,,,,,,2,,,40,0
27960,note_on,30,0,3,,,,,,,,,2,,,59,88
27990,note_on,0,0,3,,,,,,,,,2,,,63,88
27990,note_on,0,0,1,,,,,,,,,0,,,71,88
27990,note_on,0,0,1,,,,,,,,,0,,,67,0
27990,note_on,60,0,1,,,,,,,,,0,,,76,0
27990,note_on,0,0,1,,,,,,,,,0,,,78,88
27990,note_on,30,0,3,,,,,,,,,2,,,59,0
28020,note_on,0,0,1,,,,,,,,,0,,,79,88
28020,note_on,0,0,1,,,,,,,,,0,,,76,88
28020,control_change,0,0,3,,,,,,,,,2,64,127,,
28020,note_on,0,0,3,,,,,,,,,2,,,64,88
28020,control_change,0,0,1,,,,,,,,,0,64,127,,
28020,note_on,30,0,1,,,,,,,,,0,,,78,0
28020,note_on,0,0,1,,,,,,,,,0,,,71,0
28020,note_on,30,0,3,,,,,,,,,2,,,63,0
28026,note_on,0,0,1,,,,,,,,,0,,,76,0
28026,note_on,6,0,1,,,,,,,,,0,,,79,0
28050,note_on,30,0,3,,,,,,,,,2,,,64,0
28050,note_on,0,0,3,,,,,,,,,2,,,52,88
28080,note_on,54,0,1,,,,,,,,,0,,,76,106
28080,note_on,0,0,1,,,,,,,,,0,,,79,114
28110,note_on,60,0,3,,,,,,,,,2,,,52,0
28110,note_on,0,0,3,,,,,,,,,2,,,40,88
28140,note_on,30,0,3,,,,,,,,,2,,,40,0
28140,note_on,0,0,3,,,,,,,,,2,,,52,88
28170,note_on,0,0,1,,,,,,,,,0,,,76,106
28170,note_on,30,0,3,,,,,,,,,2,,,52,0
28170,note_on,0,0,1,,,,,,,,,0,,,76,0
28170,note_on,90,0,1,,,,,,,,,0,,,79,0
28170,note_on,0,0,1,,,,,,,,,0,,,79,114
28200,note_on,30,0,3,,,,,,,,,2,,,59,114
28230,note_on,30,0,3,,,,,,,,,2,,,59,0
28230,note_on,0,0,3,,,,,,,,,2,,,62,88
28230,note_on,0,0,1,,,,,,,,,0,,,71,88
28230,note_on,0,0,1,,,,,,,,,0,,,76,0
28230,note_on,60,0,1,,,,,,,,,0,,,79,0
28230,note_on,0,0,1,,,,,,,,,0,,,77,88
28260,note_on,30,0,1,,,,,,,,,0,,,77,0
28260,note_on,0,0,1,,,,,,,,,0,,,71,0
28260,note_on,0,0,1,,,,,,,,,0,,,67,88
28260,note_on,0,0,1,,,,,,,,,0,,,76,88
28260,note_on,0,0,3,,,,,,,,,2,,,60,88
28260,note_on,30,0,3,,,,,,,,,2,,,62,0
28290,note_on,30,0,3,,,,,,,,,2,,,60,0
28290,note_on,0,0,1,,,,,,,,,0,,,67,0
28290,note_on,30,0,1,,,,,,,,,0,,,76,0
28290,note_on,0,0,1,,,,,,,,,0,,,76,114
28290,note_on,0,0,1,,,,,,,,,0,,,72,106
28320,note_on,30,0,3,,,,,,,,,2,,,56,114
28350,note_on,0,0,3,,,,,,,,,2,,,59,88
28350,control_change,0,0,3,,,,,,,,,2,64,0,,
28350,note_on,30,0,3,,,,,,,,,2,,,56,0
28350,note_on,60,0,1,,,,,,,,,0,,,76,0
28350,control_change,0,0,1,,,,,,,,,0,64,0,,
28350,note_on,0,0,1,,,,,,,,,0,,,74,88
28350,note_on,0,0,1,,,,,,,,,0,,,68,88
28350,note_on,0,0,1,,,,,,,,,0,,,72,0
28380,note_on,0,0,1,,,,,,,,,0,,,72,88
28380,note_on,30,0,1,,,,,,,,,0,,,74,0
28380,control_change,0,0,1,,,,,,,,,0,64,127,,
28380,note_on,0,0,1,,,,,,,,,0,,,68,0
28380,note_on,0,0,1,,,,,,,,,0,,,64,88
28380,note_on,30,0,3,,,,,,,,,2,,,59,0
28380,control_change,0,0,3,,,,,,,,,2,64,127,,
28380,note_on,0,0,3,,,,,,,,,2,,,57,88
28386,note_on,6,0,1,,,,,,,,,0,,,72,0
28386,note_on,0,0,1,,,,,,,,,0,,,64,0
28410,note_on,0,0,3,,,,,,,,,2,,,45,88
28410,note_on,30,0,3,,,,,,,,,2,,,57,0
28440,note_on,0,0,1,,,,,,,,,0,,,72,114
28440,note_on,54,0,1,,,,,,,,,0,,,64,106
28470,note_on,60,0,3,,,,,,,,,2,,,45,0
28470,note_on,0,0,3,,,,,,,,,2,,,33,88
28500,note_on,0,0,3,,,,,,,,,2,,,45,88
28500,note_on,30,0,3,,,,,,,,,2,,,33,0
28530,note_on,0,0,3,,,,,,,,,2,,,45,88
28530,note_on,0,0,1,,,,,,,,,0,,,72,88
28530,note_on,0,0,1,,,,,,,,,0,,,69,88
28530,note_on,30,0,3,,,,,,,,,2,,,45,0
28530,note_on,0,0,1,,,,,,,,,0,,,60,88
28530,note_on,90,0,1,,,,,,,,,0,,,72,0
28530,note_on,0,0,1,,,,,,,,,0,,,64,0
28560,note_on,30,0,3,,,,,,,,,2,,,57,88
28590,note_on,0,0,1,,,,,,,,,0,,,69,88
28590,note_on,60,0,1,,,,,,,,,0,,,72,0
28590,note_on,0,0,1,,,,,,,,,0,,,69,0
28590,note_on,0,0,1,,,,,,,,,0,,,60,0
28590,note_on,0,0,1,,,,,,,,,0,,,62,88
28590,note_on,0,0,1,,,,,,,,,0,,,74,88
28590,note_on,0,0,3,,,,,,,,,2,,,59,88
28590,note_on,0,0,3,,,,,,,,,2,,,57,88
28590,note_on,0,0,3,,,,,,,,,2,,,47,88
28590,note_on,0,0,3,,,,,,,,,2,,,45,0
28590,note_on,30,0,3,,,,,,,,,2,,,57,0
28620,note_on,0,0,3,,,,,,,,,2,,,48,88
28620,note_on,0,0,3,,,,,,,,,2,,,57,88
28620,note_on,0,0,3,,,,,,,,,2,,,60,88
28620,note_on,30,0,3,,,,,,,,,2,,,59,0
28620,note_on,30,0,1,,,,,,,,,0,,,74,0
28620,note_on,0,0,3,,,,,,,,,2,,,47,0
28620,note_on,0,0,1,,,,,,,,,0,,,62,0
28620,note_on,0,0,1,,,,,,,,,0,,,64,88
28620,note_on,0,0,1,,,,,,,,,0,,,69,88
28620,note_on,0,0,1,,,,,,,,,0,,,76,88
28620,note_on,0,0,1,,,,,,,,,0,,,69,0
28620,note_on,0,0,3,,,,,,,,,2,,,57,0
28650,note_on,0,0,1,,,,,,,,,0,,,65,88
28650,note_on,0,0,3,,,,,,,,,2,,,57,88
28650,note_on,0,0,3,,,,,,,,,2,,,48,0
28650,note_on,0,0,3,,,,,,,,,2,,,57,0
28650,note_on,0,0,3,,,,,,,,,2,,,50,88
28650,note_on,0,0,1,,,,,,,,,0,,,77,88
28650,note_on,30,0,1,,,,,,,,,0,,,76,0
28650,note_on,0,0,1,,,,,,,,,0,,,69,0
28650,note_on,0,0,1,,,,,,,,,0,,,64,0
28650,note_on,30,0,3,,,,,,,,,2,,,60,0
28650,note_on,0,0,1,,,,,,,,,0,,,69,88
28680,note_on,30,0,3,,,,,,,,,2,,,62,88
28710,control_change,0,0,3,,,,,,,,,2,64,0,,
28710,note_on,30,0,3,,,,,,,,,2,,,62,0
28710,note_on,0,0,3,,,,,,,,,2,,,57,0
28710,note_on,0,0,3,,,,,,,,,2,,,50,0
28710,note_on,0,0,3,,,,,,,,,2,,,52,88
28710,note_on,0,0,3,,,,,,,,,2,,,64,88
28710,note_on,0,0,1,,,,,,,,,0,,,79,88
28710,control_change,0,0,1,,,,,,,,,0,64,0,,
28710,note_on,0,0,1,,,,,,,,,0,,,72,88
28710,note_on,0,0,1,,,,,,,,,0,,,67,88
28710,note_on,0,0,1,,,,,,,,,0,,,65,0
28710,note_on,0,0,1,,,,,,,,,0,,,69,0
28710,note_on,60,0,1,,,,,,,,,0,,,77,0
28710,note_on,0,0,3,,,,,,,,,2,,,60,88
28740,note_on,0,0,1,,,,,,,,,0,,,72,0
28740,note_on,0,0,1,,,,,,,,,0,,,69,101
28740,note_on,0,0,1,,,,,,,,,0,,,72,101
28740,note_on,0,0,1,,,,,,,,,0,,,81,101
28740,control_change,0,0,1,,,,,,,,,0,64,127,,
28740,note_on,0,0,1,,,,,,,,,0,,,67,0
28740,note_on,30,0,1,,,,,,,,,0,,,79,0
28740,note_on,30,0,3,,,,,,,,,2,,,64,0
28740,note_on,0,0,3,,,,,,,,,2,,,60,0
28740,note_on,0,0,3,,,,,,,,,2,,,52,0
28740,control_change,0,0,3,,,,,,,,,2,64,127,,
28740,note_on,0,0,3,,,,,,,,,2,,,53,88
28740,note_on,0,0,3,,,,,,,,,2,,,60,88
28740,note_on,0,0,3,,,,,,,,,2,,,65,88
28746,note_on,6,0,3,,,,,,,,,2,,,65,0
28746,note_on,0,0,3,,,,,,,,,2,,,60,0
28746,note_on,0,0,3,,,,,,,,,2,,,53,0
28746,note_on,0,0,1,,,,,,,,,0,,,72,0
28746,note_on,0,0,1,,,,,,,,,0,,,69,0
28746,note_on,6,0,1,,,,,,,,,0,,,81,0
28800,note_on,0,0,1,,,,,,,,,0,,,81,127
28800,note_on,0,0,1,,,,,,,,,0,,,72,122
28800,note_on,54,0,1,,,,,,,,,0,,,69,117
28800,note_on,0,0,3,,,,,,,,,2,,,65,114
28800,note_on,0,0,3,,,,,,,,,2,,,60,109
28800,note_on,54,0,3,,,,,,,,,2,,,53,104
28890,note_on,0,0,1,,,,,,,,,0,,,65,101
28890,note_on,0,0,3,,,,,,,,,2,,,53,0
28890,note_on,0,0,3,,,,,,,,,2,,,60,0
28890,note_on,90,0,3,,,,,,,,,2,,,65,0
28890,note_on,0,0,1,,,,,,,,,0,,,72,101
28890,note_on,0,0,3,,,,,,,,,2,,,45,88
28890,note_on,0,0,3,,,,,,,,,2,,,57,88
28890,note_on,0,0,1,,,,,,,,,0,,,69,0
28890,note_on,0,0,1,,,,,,,,,0,,,72,0
28890,note_on,90,0,1,,,,,,,,,0,,,81,0
28920,note_on,30,0,3,,,,,,,,,2,,,57,0
28920,note_on,0,0,1,,,,,,,,,0,,,77,101
28920,note_on,0,0,3,,,,,,,,,2,,,60,88
28920,note_on,0,0,3,,,,,,,,,2,,,48,88
28920,note_on,0,0,3,,,,,,,,,2,,,45,0
28920,note_on,30,0,1,,,,,,,,,0,,,72,0
28920,note_on,0,0,1,,,,,,,,,0,,,65,0
28920,note_on,0,0,1,,,,,,,,,0,,,65,101
28920,note_on,0,0,1,,,,,,,,,0,,,69,101
28950,note_on,0,0,3,,,,,,,,,2,,,57,88
28950,note_on,0,0,3,,,,,,,,,2,,,45,88
28950,note_on,0,0,3,,,,,,,,,2,,,48,0
28950,note_on,30,0,3,,,,,,,,,2,,,60,0
28950,note_on,30,0,1,,,,,,,,,0,,,77,0
28950,note_on,0,0,1,,,,,,,,,0,,,72,101
28950,note_on,0,0,1,,,,,,,,,0,,,65,101
28950,note_on,0,0,1,,,,,,,,,0,,,65,0
28950,note_on,0,0,1,,,,,,,,,0,,,69,0
28980,note_on,0,0,1,,,,,,,,,0,,,65,101
28980,note_on,0,0,1,,,,,,,,,0,,,65,0
28980,note_on,30,0,1,,,,,,,,,0,,,72,0
28980,note_on,0,0,3,,,,,,,,,2,,,53,88
28980,note_on,0,0,3,,,,,,,,,2,,,41,88
28980,note_on,0,0,3,,,,,,,,,2,,,45,0
28980,note_on,0,0,1,,,,,,,,,0,,,69,101
28980,note_on,30,0,3,,,,,,,,,2,,,57,0
29010,note_on,0,0,3,,,,,,,,,2,,,41,0
29010,note_on,0,0,3,,,,,,,,,2,,,40,88
29010,note_on,0,0,3,,,,,,,,,2,,,52,88
29010,note_on,0,0,1,,,,,,,,,0,,,65,101
29010,note_on,0,0,1,,,,,,,,,0,,,65,0
29010,note_on,30,0,1,,,,,,,,,0,,,69,0
29010,note_on,30,0,3,,,,,,,,,2,,,53,0
29040,note_on,30,0,3,,,,,,,,,2,,,52,0
29040,note_on,0,0,3,,,,,,,,,2,,,40,0
29040,note_on,0,0,3,,,,,,,,,2,,,38,88
29040,note_on,0,0,3,,,,,,,,,2,,,50,88
29040,note_on,0,0,1,,,,,,,,,0,,,65,101
29040,note_on,30,0,1,,,,,,,,,0,,,65,0
29040,note_on,0,0,1,,,,,,,,,0,,,69,101
29070,note_on,0,0,3,,,,,,,,,2,,,38,0
29070,note_on,30,0,3,,,,,,,,,2,,,50,0
29070,note_on,0,0,3,,,,,,,,,2,,,36,88
29070,control_change,0,0,3,,,,,,,,,2,64,0,,
29070,note_on,0,0,3,,,,,,,,,2,,,48,88
29070,note_on,30,0,1,,,,,,,,,0,,,69,0
29070,note_on,0,0,1,,,,,,,,,0,,,65,0
29070,note_on,0,0,1,,,,,,,,,0,,,65,101
29070,note_on,0,0,1,,,,,,,,,0,,,69,101
29070,note_on,0,0,1,,,,,,,,,0,,,72,101
29070,control_change,0,0,1,,,,,,,,,0,64,0,,
29100,note_on,0,0,1,,,,,,,,,0,,,69,0
29100,note_on,30,0,1,,,,,,,,,0,,,72,0
29100,note_on,0,0,1,,,,,,,,,0,,,70,101
29100,note_on,0,0,1,,,,,,,,,0,,,62,101
29100,note_on,0,0,1,,,,,,,,,0,,,65,101
29100,note_on,0,0,1,,,,,,,,,0,,,74,101
29100,control_change,0,0,1,,,,,,,,,0,64,127,,
29100,note_on,30,0,3,,,,,,,,,2,,,48,0
29100,note_on,0,0,3,,,,,,,,,2,,,36,0
29100,control_change,0,0,3,,,,,,,,,2,64,127,,
29100,note_on,0,0,3,,,,,,,,,2,,,34,88
29100,note_on,0,0,3,,,,,,,,,2,,,46,88
29100,note_on,0,0,1,,,,,,,,,0,,,65,0
29106,note_on,0,0,3,,,,,,,,,2,,,34,0
29106,note_on,6,0,3,,,,,,,,,2,,,46,0
29106,note_on,0,0,1,,,,,,,,,0,,,65,0
29106,note_on,6,0,1,,,,,,,,,0,,,74,0
29106,note_on,0,0,1,,,,,,,,,0,,,70,0
29106,note_on,0,0,1,,,,,,,,,0,,,62,0
29160,note_on,0,0,1,,,,,,,,,0,,,74,127
29160,note_on,0,0,1,,,,,,,,,0,,,70,123
29160,note_on,0,0,1,,,,,,,,,0,,,65,119
29160,note_on,54,0,1,,,,,,,,,0,,,62,115
29160,note_on,54,0,3,,,,,,,,,2,,,46,88
29160,note_on,0,0,3,,,,,,,,,2,,,53,88
29160,note_on,0,0,3,,,,,,,,,2,,,58,88
29250,note_on,0,0,3,,,,,,,,,2,,,46,0
29250,note_on,0,0,3,,,,,,,,,2,,,53,88
29250,note_on,90,0,3,,,,,,,,,2,,,58,0
29250,note_on,3390,0,4,,,,,,,,,3,,,47,88
29250,note_on,0,0,3,,,,,,,,,2,,,53,0
29250,note_on,0,0,1,,,,,,,,,0,,,74,101
29250,note_on,0,0,1,,,,,,,,,0,,,65,101
29250,note_on,0,0,1,,,,,,,,,0,,,62,101
29250,note_on,0,0,1,,,,,,,,,0,,,70,101
29250,note_on,0,0,1,,,,,,,,,0,,,65,0
29250,note_on,0,0,1,,,,,,,,,0,,,62,0
29250,note_on,90,0,1,,,,,,,,,0,,,74,0
29250,note_on,0,0,1,,,,,,,,,0,,,70,0
29280,note_on,0,0,3,,,,,,,,,2,,,58,88
29280,note_on,30,0,3,,,,,,,,,2,,,53,0
29310,note_on,0,0,3,,,,,,,,,2,,,57,88
29310,control_change,0,0,1,,,,,,,,,0,64,0,,
29310,note_on,0,0,1,,,,,,,,,0,,,72,101
29310,note_on,0,0,1,,,,,,,,,0,,,65,101
29310,note_on,0,0,1,,,,,,,,,0,,,60,101
29310,note_on,30,0,3,,,,,,,,,2,,,58,0
29310,note_on,0,0,1,,,,,,,,,0,,,65,0
29310,note_on,60,0,4,,,,,,,,,3,,,47,0
29310,note_on,0,0,4,,,,,,,,,3,,,45,88
29310,note_on,0,0,4,,,,,,,,,3,,,53,88
29310,note_on,0,0,1,,,,,,,,,0,,,62,0
29310,note_on,60,0,1,,,,,,,,,0,,,74,0
29310,note_on,0,0,1,,,,,,,,,0,,,70,0
29310,control_change,0,0,3,,,,,,,,,2,64,0,,
29340,note_on,0,0,1,,,,,,,,,0,,,65,0
29340,note_on,0,0,1,,,,,,,,,0,,,60,0
29340,note_on,0,0,1,,,,,,,,,0,,,62,101
29340,note_on,0,0,1,,,,,,,,,0,,,65,101
29340,note_on,0,0,1,,,,,,,,,0,,,74,101
29340,note_on,30,0,1,,,,,,,,,0,,,72,0
29340,note_on,0,0,3,,,,,,,,,2,,,58,88
29340,note_on,0,0,4,,,,,,,,,3,,,47,88
29340,note_on,0,0,4,,,,,,,,,3,,,53,88
29340,note_on,0,0,4,,,,,,,,,3,,,45,0
29340,note_on,30,0,3,,,,,,,,,2,,,57,0
29340,note_on,30,0,4,,,,,,,,,3,,,53,0
29370,note_on,0,0,1,,,,,,,,,0,,,62,101
29370,note_on,0,0,1,,,,,,,,,0,,,62,0
29370,note_on,0,0,1,,,,,,,,,0,,,65,0
29370,note_on,30,0,1,,,,,,,,,0,,,74,0
29370,note_on,0,0,1,,,,,,,,,0,,,74,101
29370,note_on,30,0,4,,,,,,,,,3,,,53,0
29370,note_on,30,0,3,,,,,,,,,2,,,58,0
29370,note_on,0,0,3,,,,,,,,,2,,,53,88
29370,note_on,0,0,1,,,,,,,,,0,,,65,101
29370,note_on,0,0,4,,,,,,,,,3,,,47,0
29370,note_on,0,0,4,,,,,,,,,3,,,47,88
29400,note_on,30,0,3,,,,,,,,,2,,,53,0
29400,note_on,0,0,3,,,,,,,,,2,,,58,88
29430,note_on,60,0,4,,,,,,,,,3,,,47,0
29430,note_on,0,0,4,,,,,,,,,3,,,48,88
29430,note_on,0,0,4,,,,,,,,,3,,,53,88
29430,note_on,0,0,1,,,,,,,,,0,,,63,101
29430,note_on,0,0,3,,,,,,,,,2,,,60,88
29430,note_on,0,0,1,,,,,,,,,0,,,65,101
29430,note_on,30,0,3,,,,,,,,,2,,,58,0
29430,note_on,60,0,1,,,,,,,,,0,,,74,0
29430,note_on,0,0,1,,,,,,,,,0,,,65,0
29430,note_on,0,0,1,,,,,,,,,0,,,75,101
29430,note_on,0,0,1,,,,,,,,,0,,,62,0
29460,note_on,0,0,3,,,,,,,,,2,,,46,88
29460,control_change,0,0,3,,,,,,,,,2,64,127,,
29460,note_on,30,0,3,,,,,,,,,2,,,60,0
29460,note_on,0,0,3,,,,,,,,,2,,,58,88
29460,note_on,0,0,3,,,,,,,,,2,,,53,88
29460,note_on,0,0,4,,,,,,,,,3,,,48,0
29460,note_on,30,0,1,,,,,,,,,0,,,75,0
29460,control_change,0,0,1,,,,,,,,,0,64,127,,
29460,note_on,0,0,1,,,,,,,,,0,,,74,101
29460,note_on,0,0,1,,,,,,,,,0,,,70,101
29460,note_on,30,0,4,,,,,,,,,3,,,53,0
29460,note_on,0,0,1,,,,,,,,,0,,,62,101
29460,note_on,0,0,1,,,,,,,,,0,,,63,0
29460,note_on,0,0,1,,,,,,,,,0,,,65,0
29460,note_on,0,0,1,,,,,,,,,0,,,65,101
29466,note_on,0,0,3,,,,,,,,,2,,,53,0
29466,note_on,6,0,3,,,,,,,,,2,,,58,0
29466,note_on,0,0,3,,,,,,,,,2,,,46,0
29466,note_on,0,0,1,,,,,,,,,0,,,65,0
29466,note_on,0,0,1,,,,,,,,,0,,,62,0
29466,note_on,6,0,1,,,,,,,,,0,,,74,0
29466,note_on,0,0,1,,,,,,,,,0,,,70,0
29520,note_on,54,0,1,,,,,,,,,0,,,62,115
29520,note_on,0,0,1,,,,,,,,,0,,,70,123
29520,note_on,54,0,3,,,,,,,,,2,,,46,104
29520,note_on,0,0,3,,,,,,,,,2,,,53,109
29520,note_on,0,0,3,,,,,,,,,2,,,58,114
29520,note_on,0,0,1,,,,,,,,,0,,,74,127
29520,note_on,0,0,1,,,,,,,,,0,,,65,119
29610,note_on,90,0,3,,,,,,,,,2,,,58,0
29610,note_on,0,0,3,,,,,,,,,2,,,53,0
29610,note_on,0,0,3,,,,,,,,,2,,,46,0
29610,note_on,0,0,3,,,,,,,,,2,,,50,88
29610,note_on,0,0,3,,,,,,,,,2,,,62,88
29610,note_on,90,0,1,,,,,,,,,0,,,74,0
29610,note_on,0,0,1,,,,,,,,,0,,,70,101
29610,note_on,0,0,1,,,,,,,,,0,,,70,0
29610,note_on,0,0,1,,,,,,,,,0,,,74,101
29610,note_on,0,0,1,,,,,,,,,0,,,62,0
29610,note_on,0,0,1,,,,,,,,,0,,,77,101
29610,note_on,0,0,1,,,,,,,,,0,,,65,0
29640,note_on,0,0,3,,,,,,,,,2,,,65,88
29640,note_on,0,0,1,,,,,,,,,0,,,82,101
29640,note_on,0,0,1,,,,,,,,,0,,,74,101
29640,note_on,0,0,1,,,,,,,,,0,,,70,101
29640,note_on,0,0,1,,,,,,,,,0,,,70,0
29640,note_on,0,0,3,,,,,,,,,2,,,53,88
29640,note_on,30,0,1,,,,,,,,,0,,,77,0
29640,note_on,0,0,1,,,,,,,,,0,,,74,0
29640,note_on,30,0,3,,,,,,,,,2,,,62,0
29640,note_on,0,0,3,,,,,,,,,2,,,50,0
29670,note_on,0,0,3,,,,,,,,,2,,,62,88
29670,note_on,0,0,3,,,,,,,,,2,,,50,88
29670,note_on,0,0,3,,,,,,,,,2,,,53,0
29670,note_on,30,0,1,,,,,,,,,0,,,82,0
29670,note_on,30,0,3,,,,,,,,,2,,,65,0
29670,note_on,0,0,1,,,,,,,,,0,,,70,0
29670,note_on,0,0,1,,,,,,,,,0,,,70,101
29670,note_on,0,0,1,,,,,,,,,0,,,74,101
29670,note_on,0,0,1,,,,,,,,,0,,,77,101
29670,note_on,0,0,1,,,,,,,,,0,,,74,0
29700,note_on,0,0,1,,,,,,,,,0,,,70,0
29700,note_on,30,0,1,,,,,,,,,0,,,77,0
29700,note_on,0,0,1,,,,,,,,,0,,,74,0
29700,note_on,0,0,1,,,,,,,,,0,,,70,101
29700,note_on,0,0,1,,,,,,,,,0,,,74,101
29700,control_change,0,0,1,,,,,,,,,0,64,0,,
29700,note_on,30,0,3,,,,,,,,,2,,,62,0
29700,note_on,0,0,3,,,,,,,,,2,,,50,0
29700,note_on,0,0,3,,,,,,,,,2,,,46,88
29700,control_change,0,0,3,,,,,,,,,2,64,0,,
29700,note_on,0,0,3,,,,,,,,,2,,,58,88
29730,note_on,0,0,1,,,,,,,,,0,,,77,101
29730,note_on,0,0,3,,,,,,,,,2,,,62,88
29730,note_on,0,0,3,,,,,,,,,2,,,50,88
29730,note_on,0,0,3,,,,,,,,,2,,,46,0
29730,note_on,30,0,3,,,,,,,,,2,,,58,0
29730,note_on,30,0,1,,,,,,,,,0,,,74,0
29730,note_on,0,0,1,,,,,,,,,0,,,70,0
29730,note_on,0,0,1,,,,,,,,,0,,,70,101
29730,note_on,0,0,1,,,,,,,,,0,,,74,101
29760,note_on,30,0,3,,,,,,,,,2,,,62,0
29760,note_on,0,0,3,,,,,,,,,2,,,50,0
29760,note_on,0,0,3,,,,,,,,,2,,,46,88
29760,note_on,0,0,3,,,,,,,,,2,,,58,88
29760,note_on,0,0,1,,,,,,,,,0,,,82,101
29760,note_on,0,0,1,,,,,,,,,0,,,74,101
29760,note_on,0,0,1,,,,,,,,,0,,,70,101
29760,note_on,0,0,1,,,,,,,,,0,,,70,0
29760,note_on,0,0,1,,,,,,,,,0,,,74,0
29760,note_on,30,0,1,,,,,,,,,0,,,77,0
29790,note_on,0,0,1,,,,,,,,,0,,,72,101
29790,note_on,0,0,3,,,,,,,,,2,,,46,0
29790,note_on,30,0,3,,,,,,,,,2,,,58,0
29790,note_on,0,0,1,,,,,,,,,0,,,84,101
29790,note_on,0,0,1,,,,,,,,,0,,,77,101
29790,note_on,0,0,3,,,,,,,,,2,,,45,88
29790,note_on,0,0,3,,,,,,,,,2,,,57,88
29790,note_on,0,0,1,,,,,,,,,0,,,70,0
29790,note_on,0,0,1,,,,,,,,,0,,,74,0
29790,note_on,30,0,1,,,,,,,,,0,,,82,0
29820,note_on,0,0,1,,,,,,,,,0,,,72,0
29820,note_on,0,0,1,,,,,,,,,0,,,77,0
29820,note_on,0,0,1,,,,,,,,,0,,,74,101
29820,note_on,30,0,1,,,,,,,,,0,,,84,0
29820,note_on,0,0,3,,,,,,,,,2,,,45,0
29820,note_on,0,0,1,,,,,,,,,0,,,82,101
29820,note_on,30,0,3,,,,,,,,,2,,,57,0
29820,control_change,0,0,1,,,,,,,,,0,64,127,,
29820,note_on,0,0,1,,,,,,,,,0,,,86,101
29820,control_change,0,0,3,,,,,,,,,2,64,127,,
29820,note_on,0,0,3,,,,,,,,,2,,,43,88
29820,note_on,0,0,3,,,,,,,,,2,,,55,88
29826,note_on,0,0,1,,,,,,,,,0,,,74,0
29826,note_on,6,0,3,,,,,,,,,2,,,55,0
29826,note_on,0,0,3,,,,,,,,,2,,,43,0
29826,note_on,0,0,1,,,,,,,,,0,,,82,0
29826,note_on,6,0,1,,,,,,,,,0,,,86,0
29880,note_on,0,0,3,,,,,,,,,2,,,55,114
29880,note_on,54,0,3,,,,,,,,,2,,,43,106
29880,note_on,0,0,1,,,,,,,,,0,,,82,122
29880,note_on,0,0,1,,,,,,,,,0,,,86,127
29880,note_on,54,0,1,,,,,,,,,0,,,74,117
29970,note_on,0,0,3,,,,,,,,,2,,,31,106
29970,note_on,90,0,1,,,,,,,,,0,,,86,0
29970,note_on,0,0,1,,,,,,,,,0,,,82,0
29970,note_on,0,0,1,,,,,,,,,0,,,74,0
29970,note_on,0,0,1,,,,,,,,,0,,,82,117
29970,note_on,0,0,1,,,,,,,,,0,,,86,122
29970,note_on,0,0,1,,,,,,,,,0,,,94,127
29970,note_on,0,0,3,,,,,,,,,2,,,43,0
29970,note_on,90,0,3,,,,,,,,,2,,,55,0
29970,note_on,0,0,3,,,,,,,,,2,,,43,114
30030,control_change,0,0,1,,,,,,,,,0,64,0,,
30030,note_on,0,0,3,,,,,,,,,2,,,43,88
30030,note_on,0,0,3,,,,,,,,,2,,,31,88
30030,control_change,0,0,3,,,,,,,,,2,64,0,,
30030,note_on,0,0,3,,,,,,,,,2,,,31,0
30030,note_on,60,0,3,,,,,,,,,2,,,43,0
30030,note_on,60,0,1,,,,,,,,,0,,,94,0
30030,note_on,0,0,1,,,,,,,,,0,,,82,0
30030,note_on,0,0,1,,,,,,,,,0,,,86,0
30030,note_on,0,0,1,,,,,,,,,0,,,86,101
30030,note_on,0,0,1,,,,,,,,,0,,,94,101
30030,note_on,0,0,1,,,,,,,,,0,,,82,101
30060,note_on,0,0,3,,,,,,,,,2,,,36,106
30060,note_on,30,0,1,,,,,,,,,0,,,94,0
30060,note_on,0,0,1,,,,,,,,,0,,,82,0
30060,note_on,0,0,1,,,,,,,,,0,,,76,117
30060,note_on,0,0,1,,,,,,,,,0,,,82,122
30060,note_on,0,0,1,,,,,,,,,0,,,88,127
30060,control_change,0,0,1,,,,,,,,,0,64,127,,
30060,note_on,30,0,3,,,,,,,,,2,,,43,0
30060,note_on,0,0,3,,,,,,,,,2,,,31,0
30060,control_change,0,0,3,,,,,,,,,2,64,127,,
30060,note_on,0,0,3,,,,,,,,,2,,,48,114
30060,note_on,0,0,1,,,,,,,,,0,,,86,0
30120,note_on,0,0,1,,,,,,,,,0,,,88,101
30120,note_on,0,0,1,,,,,,,,,0,,,76,0
30120,note_on,0,0,1,,,,,,,,,0,,,76,101
30120,note_on,0,0,1,,,,,,,,,0,,,82,101
30120,note_on,0,0,1,,,,,,,,,0,,,82,0
30120,note_on,60,0,3,,,,,,,,,2,,,48,0
30120,note_on,0,0,3,,,,,,,,,2,,,36,0
30120,note_on,0,0,3,,,,,,,,,2,,,36,88
30120,note_on,0,0,3,,,,,,,,,2,,,48,88
30120,note_on,60,0,1,,,,,,,,,0,,,88,0
30180,control_change,60,0,3,,,,,,,,,2,64,0,,
30180,control_change,60,0,1,,,,,,,,,0,64,0,,
30210,control_change,0,0,3,,,,,,,,,2,64,127,,
30210,note_on,0,0,3,,,,,,,,,2,,,36,0
30210,note_on,30,0,3,,,,,,,,,2,,,48,0
30210,note_on,0,0,3,,,,,,,,,2,,,41,114
30210,note_on,30,0,1,,,,,,,,,0,,,88,0
30210,note_on,0,0,1,,,,,,,,,0,,,82,0
30210,note_on,0,0,1,,,,,,,,,0,,,76,0
30210,note_on,0,0,1,,,,,,,,,0,,,77,117
30210,note_on,0,0,1,,,,,,,,,0,,,81,122
30210,note_on,0,0,1,,,,,,,,,0,,,89,127
30210,control_change,0,0,1,,,,,,,,,0,64,127,,
30210,note_on,0,0,3,,,,,,,,,2,,,29,106
30270,note_on,60,0,1,,,,,,,,,0,,,89,0
30270,note_on,0,0,1,,,,,,,,,0,,,81,0
30270,note_on,0,0,1,,,,,,,,,0,,,77,101
30270,note_on,0,0,1,,,,,,,,,0,,,81,101
30270,note_on,0,0,1,,,,,,,,,0,,,89,101
30270,note_on,0,0,3,,,,,,,,,2,,,41,88
30270,note_on,0,0,3,,,,,,,,,2,,,29,88
30270,note_on,0,0,3,,,,,,,,,2,,,29,0
30270,note_on,60,0,3,,,,,,,,,2,,,41,0
30270,note_on,0,0,1,,,,,,,,,0,,,77,0
30300,note_on,0,0,1,,,,,,,,,0,,,81,0
30300,note_on,0,0,1,,,,,,,,,0,,,77,0
30300,note_on,0,0,3,,,,,,,,,2,,,53,88
30300,note_on,0,0,1,,,,,,,,,0,,,65,101
30300,note_on,0,0,1,,,,,,,,,0,,,69,101
30300,note_on,0,0,1,,,,,,,,,0,,,77,101
30300,note_on,30,0,1,,,,,,,,,0,,,89,0
30300,note_on,0,0,3,,,,,,,,,2,,,48,88
30300,note_on,0,0,3,,,,,,,,,2,,,29,0
30300,note_on,0,0,3,,,,,,,,,2,,,41,88
30300,note_on,30,0,3,,,,,,,,,2,,,41,0
30306,note_on,0,0,1,,,,,,,,,0,,,65,0
30306,note_on,0,0,1,,,,,,,,,0,,,69,0
30306,note_on,6,0,3,,,,,,,,,2,,,53,0
30306,note_on,0,0,3,,,,,,,,,2,,,48,0
30306,note_on,0,0,3,,,,,,,,,2,,,41,0
30306,note_on,6,0,1,,,,,,,,,0,,,77,0
30360,note_on,0,0,3,,,,,,,,,2,,,53,88
30360,note_on,0,0,1,,,,,,,,,0,,,77,101
30360,note_on,54,0,3,,,,,,,,,2,,,41,88
30360,note_on,0,0,3,,,,,,,,,2,,,48,88
30360,note_on,0,0,1,,,,,,,,,0,,,69,101
30360,note_on,54,0,1,,,,,,,,,0,,,65,101
30450,note_on,0,0,3,,,,,,,,,2,,,41,0
30450,note_on,0,0,3,,,,,,,,,2,,,48,0
30450,note_on,90,0,3,,,,,,,,,2,,,53,0
30450,note_on,0,0,3,,,,,,,,,2,,,53,106
30450,note_on,0,0,3,,,,,,,,,2,,,60,114
30450,note_on,0,0,1,,,,,,,,,0,,,69,122
30450,note_on,0,0,1,,,,,,,,,0,,,65,117
30450,note_on,0,0,1,,,,,,,,,0,,,65,0
30450,note_on,0,0,1,,,,,,,,,0,,,69,0
30450,control_change,0,0,1,,,,,,,,,0,64,0,,
30450,note_on,90,0,1,,,,,,,,,0,,,77,0
30450,note_on,0,0,1,,,,,,,,,0,,,77,127
30450,control_change,0,0,3,,,,,,,,,2,64,0,,
30510,note_on,0,0,3,,,,,,,,,2,,,51,88
30510,note_on,0,0,1,,,,,,,,,0,,,77,101
30510,note_on,0,0,1,,,,,,,,,0,,,69,0
30510,note_on,0,0,1,,,,,,,,,0,,,65,0
30510,note_on,0,0,1,,,,,,,,,0,,,65,101
30510,note_on,0,0,1,,,,,,,,,0,,,69,101
30510,note_on,60,0,3,,,,,,,,,2,,,60,0
30510,note_on,0,0,3,,,,,,,,,2,,,53,0
30510,note_on,0,0,3,,,,,,,,,2,,,60,88
30510,note_on,60,0,1,,,,,,,,,0,,,77,0
30540,note_on,30,0,1,,,,,,,,,0,,,77,0
30540,note_on,0,0,1,,,,,,,,,0,,,69,0
30540,note_on,0,0,1,,,,,,,,,0,,,65,0
30540,note_on,0,0,1,,,,,,,,,0,,,69,101
30540,note_on,0,0,1,,,,,,,,,0,,,78,101
30540,note_on,0,0,3,,,,,,,,,2,,,50,88
30540,note_on,0,0,1,,,,,,,,,0,,,66,101
30540,control_change,0,0,3,,,,,,,,,2,64,127,,
30540,note_on,0,0,3,,,,,,,,,2,,,51,0
30540,control_change,0,0,1,,,,,,,,,0,64,127,,
30540,note_on,30,0,3,,,,,,,,,2,,,60,0
30540,note_on,0,0,3,,,,,,,,,2,,,60,88
30546,note_on,6,0,1,,,,,,,,,0,,,78,0
30546,note_on,0,0,1,,,,,,,,,0,,,66,0
30546,note_on,0,0,1,,,,,,,,,0,,,69,0
30546,note_on,6,0,3,,,,,,,,,2,,,60,0
30546,note_on,0,0,3,,,,,,,,,2,,,50,0
30600,note_on,54,0,1,,,,,,,,,0,,,66,117
30600,note_on,0,0,3,,,,,,,,,2,,,60,114
30600,note_on,54,0,3,,,,,,,,,2,,,50,106
30600,note_on,0,0,1,,,,,,,,,0,,,78,127
30600,note_on,0,0,1,,,,,,,,,0,,,69,122
30690,note_on,0,0,1,,,,,,,,,0,,,78,101
30690,note_on,0,0,1,,,,,,,,,0,,,69,101
30690,note_on,0,0,1,,,,,,,,,0,,,66,0
30690,note_on,0,0,1,,,,,,,,,0,,,69,0
30690,note_on,90,0,1,,,,,,,,,0,,,78,0
30690,note_on,90,0,3,,,,,,,,,2,,,60,0
30690,note_on,0,0,3,,,,,,,,,2,,,50,0
30690,note_on,0,0,3,,,,,,,,,2,,,66,88
30720,note_on,0,0,3,,,,,,,,,2,,,69,88
30720,note_on,30,0,1,,,,,,,,,0,,,78,0
30720,note_on,30,0,3,,,,,,,,,2,,,66,0
30720,control_change,0,0,3,,,,,,,,,2,64,0,,
30720,note_on,0,0,1,,,,,,,,,0,,,72,101
30720,note_on,0,0,1,,,,,,,,,0,,,69,0
30720,control_change,0,0,1,,,,,,,,,0,64,0,,
30720,note_on,0,0,1,,,,,,,,,0,,,81,101
30750,note_on,30,0,3,,,,,,,,,2,,,69,0
30750,note_on,0,0,3,,,,,,,,,2,,,67,88
30750,note_on,0,0,1,,,,,,,,,0,,,79,101
30750,note_on,0,0,1,,,,,,,,,0,,,70,101
30750,note_on,0,0,1,,,,,,,,,0,,,72,0
30750,note_on,30,0,1,,,,,,,,,0,,,81,0
30780,control_change,0,0,1,,,,,,,,,0,64,127,,
30780,note_on,0,0,1,,,,,,,,,0,,,78,101
30780,note_on,0,0,1,,,,,,,,,0,,,69,101
30780,note_on,0,0,1,,,,,,,,,0,,,70,0
30780,note_on,30,0,1,,,,,,,,,0,,,79,0
30780,note_on,0,0,3,,,,,,,,,2,,,66,88
30780,control_change,0,0,3,,,,,,,,,2,64,127,,
30780,note_on,30,0,3,,,,,,,,,2,,,67,0
30810,note_on,0,0,1,,,,,,,,,0,,,79,101
30810,note_on,30,0,3,,,,,,,,,2,,,66,0
30810,note_on,0,0,1,,,,,,,,,0,,,70,101
30810,note_on,0,0,1,,,,,,,,,0,,,67,101
30810,note_on,30,0,1,,,,,,,,,0,,,78,0
30810,note_on,0,0,1,,,,,,,,,0,,,69,0
30840,note_on,0,0,1,,,,,,,,,0,,,70,0
30840,note_on,0,0,1,,,,,,,,,0,,,67,0
30840,note_on,0,0,1,,,,,,,,,0,,,69,101
30840,note_on,0,0,1,,,,,,,,,0,,,66,101
30840,note_on,0,0,1,,,,,,,,,0,,,78,101
30840,note_on,30,0,1,,,,,,,,,0,,,79,0
30870,note_on,0,0,3,,,,,,,,,2,,,57,88
30870,control_change,0,0,1,,,,,,,,,0,64,0,,
30870,note_on,0,0,1,,,,,,,,,0,,,75,101
30870,note_on,0,0,3,,,,,,,,,2,,,48,88
30870,note_on,0,0,1,,,,,,,,,0,,,67,101
30870,control_change,60,0,3,,,,,,,,,2,64,0,,
30870,note_on,30,0,1,,,,,,,,,0,,,78,0
30870,note_on,0,0,1,,,,,,,,,0,,,69,0
30870,note_on,0,0,1,,,,,,,,,0,,,63,101
30870,note_on,0,0,1,,,,,,,,,0,,,66,0
30900,note_on,0,0,1,,,,,,,,,0,,,62,101
30900,control_change,0,0,3,,,,,,,,,2,64,127,,
30900,note_on,0,0,3,,,,,,,,,2,,,48,0
30900,control_change,0,0,1,,,,,,,,,0,64,127,,
30900,note_on,0,0,1,,,,,,,,,0,,,63,0
30900,note_on,30,0,3,,,,,,,,,2,,,57,0
30900,note_on,0,0,3,,,,,,,,,2,,,60,88
30900,note_on,0,0,3,,,,,,,,,2,,,50,88
30900,note_on,0,0,1,,,,,,,,,0,,,66,101
30900,note_on,0,0,1,,,,,,,,,0,,,74,101
30900,note_on,0,0,1,,,,,,,,,0,,,67,0
30900,note_on,30,0,1,,,,,,,,,0,,,75,0
30906,note_on,0,0,1,,,,,,,,,0,,,66,0
30906,note_on,6,0,1,,,,,,,,,0,,,74,0
30906,note_on,0,0,1,,,,,,,,,0,,,62,0
30906,note_on,0,0,3,,,,,,,,,2,,,50,0
30906,note_on,6,0,3,,,,,,,,,2,,,60,0
30960,note_on,54,0,3,,,,,,,,,2,,,50,106
30960,note_on,0,0,3,,,,,,,,,2,,,60,114
30960,note_on,54,0,1,,,,,,,,,0,,,62,117
30960,note_on,0,0,1,,,,,,,,,0,,,74,127
30960,note_on,0,0,1,,,,,,,,,0,,,66,122
31050,note_on,90,0,1,,,,,,,,,0,,,74,0
31050,note_on,0,0,1,,,,,,,,,0,,,66,0
31050,note_on,0,0,1,,,,,,,,,0,,,62,0
31050,note_on,90,0,3,,,,,,,,,2,,,60,0
31050,note_on,0,0,3,,,,,,,,,2,,,50,0
31050,note_on,0,0,3,,,,,,,,,2,,,66,36
31050,note_on,0,0,1,,,,,,,,,0,,,69,36
31050,note_on,0,0,1,,,,,,,,,0,,,78,36
31080,note_on,30,0,3,,,,,,,,,2,,,66,0
31080,note_on,0,0,3,,,,,,,,,2,,,69,36
31080,note_on,0,0,1,,,,,,,,,0,,,72,36
31080,note_on,30,0,1,,,,,,,,,0,,,78,0
31080,note_on,0,0,1,,,,,,,,,0,,,69,0
31080,note_on,0,0,1,,,,,,,,,0,,,81,36
31110,control_change,0,0,1,,,,,,,,,0,64,0,,
31110,note_on,30,0,1,,,,,,,,,0,,,81,0
31110,note_on,0,0,1,,,,,,,,,0,,,72,0
31110,note_on,0,0,1,,,,,,,,,0,,,70,36
31110,note_on,0,0,1,,,,,,,,,0,,,79,36
31110,note_on,30,0,3,,,,,,,,,2,,,69,0
31110,control_change,0,0,3,,,,,,,,,2,64,0,,
31110,note_on,0,0,3,,,,,,,,,2,,,67,36
31140,note_on,0,0,1,,,,,,,,,0,,,78,36
31140,note_on,30,0,3,,,,,,,,,2,,,67,0
31140,note_on,30,0,1,,,,,,,,,0,,,79,0
31140,note_on,0,0,3,,,,,,,,,2,,,66,36
31140,note_on,0,0,1,,,,,,,,,0,,,69,36
31140,control_change,0,0,1,,,,,,,,,0,64,127,,
31140,control_change,0,0,3,,,,,,,,,2,64,127,,
31140,note_on,0,0,1,,,,,,,,,0,,,70,0
31170,note_on,30,0,1,,,,,,,,,0,,,78,0
31170,note_on,0,0,1,,,,,,,,,0,,,69,0
31170,note_on,0,0,1,,,,,,,,,0,,,67,36
31170,note_on,0,0,1,,,,,,,,,0,,,79,36
31170,note_on,0,0,1,,,,,,,,,0,,,70,36
31170,note_on,30,0,3,,,,,,,,,2,,,66,0
31200,note_on,0,0,1,,,,,,,,,0,,,78,36
31200,note_on,30,0,1,,,,,,,,,0,,,79,0
31200,note_on,0,0,1,,,,,,,,,0,,,70,0
31200,note_on,0,0,1,,,,,,,,,0,,,67,0
31200,note_on,0,0,1,,,,,,,,,0,,,66,36
31200,note_on,0,0,1,,,,,,,,,0,,,69,36
31230,control_change,0,0,1,,,,,,,,,0,64,0,,
31230,note_on,0,0,1,,,,,,,,,0,,,75,36
31230,note_on,0,0,1,,,,,,,,,0,,,67,36
31230,note_on,0,0,3,,,,,,,,,2,,,48,36
31230,note_on,0,0,1,,,,,,,,,0,,,66,0
31230,note_on,0,0,1,,,,,,,,,0,,,69,0
31230,note_on,30,0,1,,,,,,,,,0,,,78,0
31230,note_on,0,0,3,,,,,,,,,2,,,57,36
31230,note_on,0,0,1,,,,,,,,,0,,,63,36
31230,control_change,60,0,3,,,,,,,,,2,64,0,,
31260,control_change,0,0,3,,,,,,,,,2,64,127,,
31260,note_on,0,0,3,,,,,,,,,2,,,48,0
31260,note_on,30,0,3,,,,,,,,,2,,,57,0
31260,note_on,0,0,1,,,,,,,,,0,,,74,36
31260,note_on,0,0,1,,,,,,,,,0,,,66,36
31260,note_on,0,0,1,,,,,,,,,0,,,62,36
31260,note_on,0,0,1,,,,,,,,,0,,,63,0
31260,note_on,0,0,1,,,,,,,,,0,,,67,0
31260,note_on,30,0,1,,,,,,,,,0,,,75,0
31260,control_change,0,0,1,,,,,,,,,0,64,127,,
31260,note_on,0,0,3,,,,,,,,,2,,,50,36
31260,note_on,0,0,3,,,,,,,,,2,,,60,36
31266,note_on,0,0,1,,,,,,,,,0,,,66,0
31266,note_on,6,0,3,,,,,,,,,2,,,60,0
31266,note_on,0,0,3,,,,,,,,,2,,,50,0
31266,note_on,0,0,1,,,,,,,,,0,,,62,0
31266,note_on,6,0,1,,,,,,,,,0,,,74,0
31320,note_on,54,0,3,,,,,,,,,2,,,50,54
31320,note_on,0,0,3,,,,,,,,,2,,,60,62
31320,note_on,0,0,1,,,,,,,,,0,,,66,57
31320,note_on,0,0,1,,,,,,,,,0,,,74,62
31320,note_on,54,0,1,,,,,,,,,0,,,62,52
31410,note_on,90,0,1,,,,,,,,,0,,,74,0
31410,note_on,0,0,1,,,,,,,,,0,,,66,0
31410,note_on,0,0,1,,,,,,,,,0,,,62,0
31410,note_on,0,0,1,,,,,,,,,0,,,62,52
31410,note_on,0,0,1,,,,,,,,,0,,,66,57
31410,note_on,0,0,1,,,,,,,,,0,,,74,62
31410,note_on,0,0,3,,,,,,,,,2,,,50,0
31410,note_on,0,0,3,,,,,,,,,2,,,50,36
31410,note_on,90,0,3,,,,,,,,,2,,,60,0
31410,note_on,0,0,3,,,,,,,,,2,,,60,36
31416,note_on,0,0,1,,,,,,,,,0,,,62,0
31416,note_on,0,0,1,,,,,,,,,0,,,66,0
31416,note_on,6,0,1,,,,,,,,,0,,,74,0
31416,note_on,0,0,3,,,,,,,,,2,,,50,0
31416,note_on,6,0,3,,,,,,,,,2,,,60,0
31470,note_on,0,0,1,,,,,,,,,0,,,74,36
31470,note_on,0,0,1,,,,,,,,,0,,,66,36
31470,note_on,54,0,1,,,,,,,,,0,,,62,36
31470,note_on,0,0,3,,,,,,,,,2,,,60,36
31470,note_on,54,0,3,,,,,,,,,2,,,50,36
31474,note_on,4,0,3,,,,,,,,,2,,,60,0
31474,note_on,0,0,3,,,,,,,,,2,,,50,0
31474,note_on,4,0,1,,,,,,,,,0,,,74,0
31474,note_on,0,0,1,,,,,,,,,0,,,66,0
31474,note_on,0,0,1,,,,,,,,,0,,,62,0
31500,note_on,26,0,3,,,,,,,,,2,,,50,54
31500,note_on,26,0,1,,,,,,,,,0,,,62,52
31500,note_on,0,0,1,,,,,,,,,0,,,66,57
31500,note_on,0,0,1,,,,,,,,,0,,,74,62
31500,note_on,0,0,3,,,,,,,,,2,,,60,62
31506,note_on,0,0,1,,,,,,,,,0,,,62,0
31506,note_on,6,0,1,,,,,,,,,0,,,74,0
31506,note_on,0,0,1,,,,,,,,,0,,,66,0
31506,note_on,6,0,3,,,,,,,,,2,,,60,0
31506,note_on,0,0,3,,,,,,,,,2,,,50,0
31560,note_on,54,0,1,,,,,,,,,0,,,62,36
31560,note_on,0,0,1,,,,,,,,,0,,,66,36
31560,note_on,54,0,3,,,,,,,,,2,,,50,36
31560,note_on,0,0,3,,,,,,,,,2,,,60,36
31560,note_on,0,0,1,,,,,,,,,0,,,74,36
31620,control_change,60,0,1,,,,,,,,,0,64,0,,
31620,control_change,60,0,3,,,,,,,,,2,64,0,,
31650,note_on,30,0,3,,,,,,,,,2,,,60,0
31650,note_on,0,0,1,,,,,,,,,0,,,63,68
31650,note_on,0,0,3,,,,,,,,,2,,,47,54
31650,note_on,0,0,3,,,,,,,,,2,,,57,62
31650,note_on,30,0,1,,,,,,,,,0,,,74,0
31650,control_change,0,0,1,,,,,,,,,0,64,127,,
31650,note_on,0,0,1,,,,,,,,,0,,,75,88
31650,control_change,0,0,3,,,,,,,,,2,64,127,,
31650,note_on,0,0,3,,,,,,,,,2,,,50,0
31650,note_on,0,0,1,,,,,,,,,0,,,62,0
31710,note_on,60,0,1,,,,,,,,,0,,,75,0
31710,note_on,0,0,1,,,,,,,,,0,,,66,0
31710,note_on,0,0,1,,,,,,,,,0,,,63,36
31710,note_on,0,0,1,,,,,,,,,0,,,66,36
31710,note_on,0,0,1,,,,,,,,,0,,,63,0
31710,note_on,0,0,3,,,,,,,,,2,,,57,36
31710,note_on,0,0,3,,,,,,,,,2,,,47,36
31710,note_on,0,0,3,,,,,,,,,2,,,47,0
31710,note_on,60,0,3,,,,,,,,,2,,,57,0
31710,note_on,0,0,1,,,,,,,,,0,,,75,36
31714,note_on,0,0,3,,,,,,,,,2,,,47,0
31714,note_on,4,0,1,,,,,,,,,0,,,75,0
31714,note_on,0,0,1,,,,,,,,,0,,,66,0
31714,note_on,0,0,1,,,,,,,,,0,,,63,0
31714,note_on,4,0,3,,,,,,,,,2,,,57,0
31740,note_on,26,0,1,,,,,,,,,0,,,63,52
31740,note_on,26,0,3,,,,,,,,,2,,,47,36
31740,note_on,0,0,3,,,,,,,,,2,,,57,36
31740,note_on,0,0,1,,,,,,,,,0,,,66,57
31740,note_on,0,0,1,,,,,,,,,0,,,75,62
31746,note_on,0,0,3,,,,,,,,,2,,,47,0
31746,note_on,6,0,1,,,,,,,,,0,,,75,0
31746,note_on,0,0,1,,,,,,,,,0,,,66,0
31746,note_on,6,0,3,,,,,,,,,2,,,57,0
31746,note_on,0,0,1,,,,,,,,,0,,,63,0
31800,note_on,0,0,3,,,,,,,,,2,,,47,36
31800,note_on,0,0,1,,,,,,,,,0,,,75,36
31800,note_on,0,0,1,,,,,,,,,0,,,63,36
31800,note_on,0,0,1,,,,,,,,,0,,,66,36
31800,control_change,54,0,3,,,,,,,,,2,64,0,,
31800,control_change,54,0,1,,,,,,,,,0,64,0,,
31800,note_on,0,0,3,,,,,,,,,2,,,57,36
31890,note_on,0,0,1,,,,,,,,,0,,,66,0
31890,note_on,0,0,1,,,,,,,,,0,,,63,0
31890,note_on,0,0,3,,,,,,,,,2,,,46,54
31890,control_change,0,0,3,,,,,,,,,2,64,127,,
31890,note_on,0,0,1,,,,,,,,,0,,,75,52
31890,note_on,0,0,1,,,,,,,,,0,,,78,57
31890,note_on,0,0,3,,,,,,,,,2,,,58,62
31890,note_on,0,0,3,,,,,,,,,2,,,47,0
31890,note_on,90,0,3,,,,,,,,,2,,,57,0
31890,note_on,90,0,1,,,,,,,,,0,,,75,0
31890,control_change,0,0,1,,,,,,,,,0,64,127,,
31890,note_on,0,0,1,,,,,,,,,0,,,87,62
31950,note_on,0,0,3,,,,,,,,,2,,,58,36
31950,note_on,0,0,3,,,,,,,,,2,,,46,36
31950,note_on,0,0,3,,,,,,,,,2,,,46,0
31950,note_on,60,0,3,,,,,,,,,2,,,58,0
31950,note_on,0,0,1,,,,,,,,,0,,,87,36
31950,note_on,0,0,1,,,,,,,,,0,,,78,36
31950,note_on,0,0,1,,,,,,,,,0,,,75,36
31950,note_on,0,0,1,,,,,,,,,0,,,75,0
31950,note_on,0,0,1,,,,,,,,,0,,,78,0
31950,note_on,60,0,1,,,,,,,,,0,,,87,0
31954,note_on,4,0,3,,,,,,,,,2,,,58,0
31954,note_on,0,0,3,,,,,,,,,2,,,46,0
31954,note_on,4,0,1,,,,,,,,,0,,,87,0
31954,note_on,0,0,1,,,,,,,,,0,,,78,0
31954,note_on,0,0,1,,,,,,,,,0,,,75,0
31980,note_on,0,0,1,,,,,,,,,0,,,78,36
31980,note_on,26,0,1,,,,,,,,,0,,,75,36
31980,note_on,0,0,3,,,,,,,,,2,,,58,36
31980,note_on,0,0,1,,,,,,,,,0,,,87,36
31980,note_on,26,0,3,,,,,,,,,2,,,46,36
31986,note_on,0,0,1,,,,,,,,,0,,,75,0
31986,note_on,0,0,3,,,,,,,,,2,,,46,0
31986,note_on,6,0,3,,,,,,,,,2,,,58,0
31986,note_on,0,0,1,,,,,,,,,0,,,78,0
31986,note_on,6,0,1,,,,,,,,,0,,,87,0
32040,control_change,54,0,1,,,,,,,,,0,64,0,,
32040,note_on,0,0,1,,,,,,,,,0,,,75,36
32040,note_on,0,0,1,,,,,,,,,0,,,78,36
32040,note_on,0,0,1,,,,,,,,,0,,,87,36
32040,note_on,0,0,3,,,,,,,,,2,,,58,36
32040,set_tempo,7260,1,0,,,,,,869565,,,,,,,
32040,control_change,54,0,3,,,,,,,,,2,64,0,,
32040,note_on,0,0,3,,,,,,,,,2,,,46,36
32100,set_tempo,60,1,0,,,,,,909091,,,,,,,
32130,note_on,0,0,3,,,,,,,,,2,,,45,36
32130,note_on,0,0,1,,,,,,,,,0,,,64,36
32130,note_on,0,0,1,,,,,,,,,0,,,61,36
32130,note_on,0,0,1,,,,,,,,,0,,,75,0
32130,note_on,0,0,1,,,,,,,,,0,,,78,0
32130,note_on,90,0,1,,,,,,,,,0,,,87,0
32130,note_on,0,0,3,,,,,,,,,2,,,55,36
32130,note_on,0,0,1,,,,,,,,,0,,,73,36
32130,control_change,0,0,3,,,,,,,,,2,64,127,,
32130,note_on,0,0,3,,,,,,,,,2,,,46,0
32130,note_on,90,0,3,,,,,,,,,2,,,58,0
32130,control_change,0,0,1,,,,,,,,,0,64,127,,
32136,note_on,0,0,1,,,,,,,,,0,,,64,0
32136,note_on,0,0,1,,,,,,,,,0,,,61,0
32136,note_on,0,0,3,,,,,,,,,2,,,45,0
32136,note_on,6,0,1,,,,,,,,,0,,,73,0
32136,note_on,6,0,3,,,,,,,,,2,,,55,0
32160,set_tempo,60,1,0,,,,,,952381,,,,,,,
32190,note_on,0,0,3,,,,,,,,,2,,,55,36
32190,note_on,54,0,3,,,,,,,,,2,,,45,36
32190,note_on,0,0,1,,,,,,,,,0,,,73,36
32190,note_on,0,0,1,,,,,,,,,0,,,64,36
32190,note_on,54,0,1,,,,,,,,,0,,,61,36
32194,note_on,0,0,1,,,,,,,,,0,,,61,0
32194,note_on,4,0,1,,,,,,,,,0,,,73,0
32194,note_on,0,0,3,,,,,,,,,2,,,45,0
32194,note_on,0,0,1,,,,,,,,,0,,,64,0
32194,note_on,4,0,3,,,,,,,,,2,,,55,0
32220,note_on,0,0,1,,,,,,,,,0,,,73,36
32220,note_on,0,0,1,,,,,,,,,0,,,64,36
32220,note_on,26,0,1,,,,,,,,,0,,,61,36
32220,note_on,0,0,3,,,,,,,,,2,,,55,36
32220,note_on,26,0,3,,,,,,,,,2,,,45,36
32220,set_tempo,60,1,0,,,,,,1016949,,,,,,,
32226,note_on,0,0,1,,,,,,,,,0,,,61,0
32226,note_on,6,0,3,,,,,,,,,2,,,55,0
32226,note_on,0,0,3,,,,,,,,,2,,,45,0
32226,note_on,0,0,1,,,,,,,,,0,,,64,0
32226,note_on,6,0,1,,,,,,,,,0,,,73,0
32280,note_on,0,0,1,,,,,,,,,0,,,73,36
32280,note_on,0,0,1,,,,,,,,,0,,,64,36
32280,note_on,54,0,1,,,,,,,,,0,,,61,36
32280,note_on,0,0,3,,,,,,,,,2,,,55,36
32280,note_on,54,0,3,,,,,,,,,2,,,45,36
32280,set_tempo,60,1,0,,,,,,1071429,,,,,,,
32340,set_tempo,60,1,0,,,,,,1132075,,,,,,,
32370,note_on,0,0,1,,,,,,,,,0,,,61,0
32370,note_on,0,0,1,,,,,,,,,0,,,85,62
32370,note_on,0,0,1,,,,,,,,,0,,,77,57
32370,note_on,0,0,1,,,,,,,,,0,,,73,52
32370,note_on,0,0,1,,,,,,,,,0,,,64,0
32370,note_on,90,0,1,,,,,,,,,0,,,73,0
32370,note_on,90,0,3,,,,,,,,,2,,,55,0
32370,note_on,0,0,3,,,,,,,,,2,,,44,54
32370,note_on,0,0,3,,,,,,,,,2,,,56,62
32370,note_on,0,0,3,,,,,,,,,2,,,45,0
32400,set_tempo,60,1,0,,,,,,1200000,,,,,,,
32430,note_on,0,0,3,,,,,,,,,2,,,56,36
32430,note_on,60,0,3,,,,,,,,,2,,,56,0
32430,note_on,0,0,3,,,,,,,,,2,,,44,0
32430,note_on,60,0,1,,,,,,,,,0,,,85,0
32430,note_on,0,0,1,,,,,,,,,0,,,77,0
32430,note_on,0,0,1,,,,,,,,,0,,,73,0
32430,note_on,0,0,1,,,,,,,,,0,,,73,36
32430,note_on,0,0,1,,,,,,,,,0,,,77,36
32430,note_on,0,0,1,,,,,,,,,0,,,85,36
32430,note_on,0,0,3,,,,,,,,,2,,,44,36
32434,note_on,0,0,1,,,,,,,,,0,,,73,0
32434,note_on,0,0,3,,,,,,,,,2,,,44,0
32434,note_on,4,0,3,,,,,,,,,2,,,56,0
32434,note_on,4,0,1,,,,,,,,,0,,,85,0
32434,note_on,0,0,1,,,,,,,,,0,,,77,0
32460,note_on,26,0,1,,,,,,,,,0,,,73,36
32460,set_tempo,60,1,0,,,,,,1304348,,,,,,,
32460,note_on,0,0,1,,,,,,,,,0,,,85,36
32460,note_on,0,0,3,,,,,,,,,2,,,56,36
32460,note_on,26,0,3,,,,,,,,,2,,,44,36
32460,note_on,0,0,1,,,,,,,,,0,,,77,36
32466,note_on,6,0,3,,,,,,,,,2,,,56,0
32466,note_on,0,0,3,,,,,,,,,2,,,44,0
32466,note_on,6,0,1,,,,,,,,,0,,,85,0
32466,note_on,0,0,1,,,,,,,,,0,,,77,0
32466,note_on,0,0,1,,,,,,,,,0,,,73,0
32520,control_change,54,0,3,,,,,,,,,2,64,0,,
32520,note_on,0,0,3,,,,,,,,,2,,,44,36
32520,control_change,54,0,1,,,,,,,,,0,64,0,,
32520,note_on,0,0,1,,,,,,,,,0,,,73,36
32520,note_on,0,0,1,,,,,,,,,0,,,77,36
32520,note_on,0,0,3,,,,,,,,,2,,,56,36
32520,note_on,0,0,1,,,,,,,,,0,,,85,36
32610,note_on,0,0,1,,,,,,,,,0,,,77,0
32610,control_change,0,0,1,,,,,,,,,0,64,127,,
32610,note_on,0,0,1,,,,,,,,,0,,,71,62
32610,note_on,0,0,1,,,,,,,,,0,,,62,57
32610,note_on,0,0,1,,,,,,,,,0,,,59,52
32610,note_on,0,0,1,,,,,,,,,0,,,73,0
32610,note_on,0,0,3,,,,,,,,,2,,,44,0
32610,note_on,90,0,3,,,,,,,,,2,,,56,0
32610,control_change,0,0,3,,,,,,,,,2,64,127,,
32610,note_on,0,0,3,,,,,,,,,2,,,43,54
32610,note_on,0,0,3,,,,,,,,,2,,,53,62
32610,note_on,90,0,1,,,,,,,,,0,,,85,0
32670,note_on,0,0,1,,,,,,,,,0,,,62,0
32670,note_on,60,0,1,,,,,,,,,0,,,71,0
32670,note_on,0,0,1,,,,,,,,,0,,,59,0
32670,note_on,0,0,1,,,,,,,,,0,,,71,36
32670,note_on,0,0,1,,,,,,,,,0,,,62,36
32670,control_change,0,0,1,,,,,,,,,0,64,0,,
32670,note_on,0,0,3,,,,,,,,,2,,,53,36
32670,note_on,0,0,1,,,,,,,,,0,,,59,36
32670,note_on,60,0,3,,,,,,,,,2,,,53,0
32670,note_on,0,0,3,,,,,,,,,2,,,43,0
32670,control_change,0,0,3,,,,,,,,,2,64,0,,
32670,note_on,0,0,3,,,,,,,,,2,,,43,36
32674,note_on,4,0,1,,,,,,,,,0,,,71,0
32674,note_on,0,0,1,,,,,,,,,0,,,62,0
32674,note_on,0,0,1,,,,,,,,,0,,,59,0
32674,note_on,0,0,3,,,,,,,,,2,,,43,0
32674,note_on,4,0,3,,,,,,,,,2,,,53,0
32730,note_on,56,0,3,,,,,,,,,2,,,42,54
32730,note_on,0,0,1,,,,,,,,,0,,,83,62
32730,note_on,0,0,3,,,,,,,,,2,,,54,62
32730,note_on,56,0,1,,,,,,,,,0,,,71,52
32730,note_on,0,0,1,,,,,,,,,0,,,75,57
32790,note_on,0,0,3,,,,,,,,,2,,,42,0
32790,note_on,0,0,3,,,,,,,,,2,,,42,36
32790,note_on,0,0,3,,,,,,,,,2,,,54,36
32790,note_on,0,0,1,,,,,,,,,0,,,83,36
32790,note_on,0,0,1,,,,,,,,,0,,,75,36
32790,note_on,0,0,1,,,,,,,,,0,,,71,36
32790,note_on,0,0,1,,,,,,,,,0,,,71,0
32790,note_on,0,0,1,,,,,,,,,0,,,75,0
32790,note_on,60,0,3,,,,,,,,,2,,,54,0
32790,note_on,60,0,1,,,,,,,,,0,,,83,0
32794,note_on,0,0,3,,,,,,,,,2,,,42,0
32794,note_on,4,0,3,,,,,,,,,2,,,54,0
32794,note_on,4,0,1,,,,,,,,,0,,,83,0
32794,note_on,0,0,1,,,,,,,,,0,,,75,0
32794,note_on,0,0,1,,,,,,,,,0,,,71,0
32850,note_on,0,0,3,,,,,,,,,2,,,51,62
32850,note_on,56,0,3,,,,,,,,,2,,,41,54
32850,note_on,56,0,1,,,,,,,,,0,,,57,52
32850,note_on,0,0,1,,,,,,,,,0,,,60,57
32850,note_on,0,0,1,,,,,,,,,0,,,69,62
32910,note_on,0,0,3,,,,,,,,,2,,,41,36
32910,note_on,0,0,3,,,,,,,,,2,,,51,36
32910,note_on,0,0,3,,,,,,,,,2,,,41,0
32910,note_on,60,0,3,,,,,,,,,2,,,51,0
32910,note_on,0,0,1,,,,,,,,,0,,,69,36
32910,note_on,60,0,1,,,,,,,,,0,,,69,0
32910,note_on,0,0,1,,,,,,,,,0,,,60,0
32910,note_on,0,0,1,,,,,,,,,0,,,57,0
32910,note_on,0,0,1,,,,,,,,,0,,,57,36
32910,note_on,0,0,1,,,,,,,,,0,,,60,36
32914,note_on,0,0,3,,,,,,,,,2,,,41,0
32914,note_on,4,0,3,,,,,,,,,2,,,51,0
32914,note_on,0,0,1,,,,,,,,,0,,,57,0
32914,note_on,0,0,1,,,,,,,,,0,,,60,0
32914,note_on,4,0,1,,,,,,,,,0,,,69,0
32970,note_on,0,0,1,,,,,,,,,0,,,81,62
32970,note_on,0,0,1,,,,,,,,,0,,,73,57
32970,note_on,56,0,1,,,,,,,,,0,,,69,52
32970,note_on,0,0,3,,,,,,,,,2,,,52,62
32970,note_on,56,0,3,,,,,,,,,2,,,40,54
33030,note_on,0,0,3,,,,,,,,,2,,,52,36
33030,note_on,0,0,3,,,,,,,,,2,,,40,36
33030,note_on,0,0,3,,,,,,,,,2,,,40,0
33030,note_on,60,0,3,,,,,,,,,2,,,52,0
33030,note_on,60,0,1,,,,,,,,,0,,,81,0
33030,note_on,0,0,1,,,,,,,,,0,,,73,0
33030,note_on,0,0,1,,,,,,,,,0,,,69,0
33030,note_on,0,0,1,,,,,,,,,0,,,69,36
33030,note_on,0,0,1,,,,,,,,,0,,,73,36
33030,note_on,0,0,1,,,,,,,,,0,,,81,36
33034,note_on,4,0,3,,,,,,,,,2,,,52,0
33034,note_on,0,0,3,,,,,,,,,2,,,40,0
33034,note_on,0,0,1,,,,,,,,,0,,,73,0
33034,note_on,4,0,1,,,,,,,,,0,,,81,0
33034,note_on,0,0,1,,,,,,,,,0,,,69,0
33120,note_on,86,0,1,,,,,,,,,0,,,59,115
33120,note_on,0,0,1,,,,,,,,,0,,,62,119
33120,note_on,0,0,1,,,,,,,,,0,,,65,123
33120,note_on,0,0,1,,,,,,,,,0,,,69,127
33120,note_on,86,0,3,,,,,,,,,2,,,40,106
33120,note_on,0,0,3,,,,,,,,,2,,,52,114
33240,note_on,0,0,3,,,,,,,,,2,,,52,36
33240,note_on,0,0,3,,,,,,,,,2,,,40,36
33240,note_on,0,0,3,,,,,,,,,2,,,40,0
33240,note_on,120,0,3,,,,,,,,,2,,,52,0
33240,note_on,0,0,1,,,,,,,,,0,,,62,0
33240,note_on,0,0,1,,,,,,,,,0,,,65,49
33240,note_on,0,0,1,,,,,,,,,0,,,62,49
33240,note_on,0,0,1,,,,,,,,,0,,,59,49
33240,note_on,0,0,1,,,,,,,,,0,,,65,0
33240,note_on,0,0,1,,,,,,,,,0,,,59,0
33240,note_on,120,0,1,,,,,,,,,0,,,69,0
33240,note_on,0,0,1,,,,,,,,,0,,,69,49
33246,note_on,0,0,1,,,,,,,,,0,,,59,0
33246,note_on,0,0,1,,,,,,,,,0,,,62,0
33246,note_on,0,0,1,,,,,,,,,0,,,65,0
33246,note_on,6,0,3,,,,,,,,,2,,,52,0
33246,note_on,0,0,3,,,,,,,,,2,,,40,0
33246,note_on,6,0,1,,,,,,,,,0,,,69,0
33360,note_on,0,0,3,,,,,,,,,2,,,52,62
33360,note_on,0,0,1,,,,,,,,,0,,,68,62
33360,note_on,0,0,1,,,,,,,,,0,,,64,58
33360,note_on,0,0,1,,,,,,,,,0,,,62,54
33360,note_on,114,0,1,,,,,,,,,0,,,59,50
33360,note_on,114,0,3,,,,,,,,,2,,,40,54
33420,time_signature,960,1,0,4,4,24,8,,,,,,,,,
33480,note_on,0,0,1,,,,,,,,,0,,,59,0
33480,note_on,120,0,1,,,,,,,,,0,,,68,0
33480,note_on,0,0,1,,,,,,,,,0,,,64,36
33480,note_on,120,0,3,,,,,,,,,2,,,52,0
33480,note_on,0,0,1,,,,,,,,,0,,,64,0
33480,note_on,0,0,3,,,,,,,,,2,,,40,36
33480,note_on,0,0,3,,,,,,,,,2,,,52,36
33480,note_on,0,0,1,,,,,,,,,0,,,68,36
33480,note_on,0,0,1,,,,,,,,,0,,,62,0
33480,note_on,0,0,1,,,,,,,,,0,,,62,36
33480,note_on,0,0,3,,,,,,,,,2,,,40,0
33480,note_on,0,0,1,,,,,,,,,0,,,59,36
33486,note_on,6,0,1,,,,,,,,,0,,,68,0
33486,note_on,6,0,3,,,,,,,,,2,,,52,0
33486,note_on,0,0,3,,,,,,,,,2,,,40,0
33486,note_on,0,0,1,,,,,,,,,0,,,59,0
33486,note_on,0,0,1,,,,,,,,,0,,,62,0
33486,note_on,0,0,1,,,,,,,,,0,,,64,0
33720,note_on,4260,0,4,,,,,,,,,3,,,57,49
33720,note_on,0,0,4,,,,,,,,,3,,,61,49
33720,note_on,0,0,4,,,,,,,,,3,,,64,49
33750,set_tempo,330,1,0,,,,,,833333,,,,,,,
33750,note_on,264,0,1,,,,,,,,,0,,,76,49
33780,note_on,0,0,4,,,,,,,,,3,,,66,49
33780,note_on,30,0,1,,,,,,,,,0,,,76,0
33780,note_on,60,0,4,,,,,,,,,3,,,64,0
33780,note_on,0,0,4,,,,,,,,,3,,,61,0
33780,note_on,0,0,4,,,,,,,,,3,,,57,0
33780,note_on,0,0,4,,,,,,,,,3,,,57,49
33780,note_on,0,0,4,,,,,,,,,3,,,62,49
33810,note_on,30,0,1,,,,,,,,,0,,,80,49
33825,note_on,0,0,1,,,,,,,,,0,,,78,49
33825,note_on,15,0,1,,,,,,,,,0,,,80,0
33840,note_on,15,0,1,,,,,,,,,0,,,78,0
33840,note_on,0,0,4,,,,,,,,,3,,,62,0
33840,note_on,0,0,4,,,,,,,,,3,,,57,0
33840,note_on,0,0,4,,,,,,,,,3,,,57,49
33840,note_on,0,0,4,,,,,,,,,3,,,60,49
33840,note_on,0,0,4,,,,,,,,,3,,,63,49
33840,note_on,60,0,4,,,,,,,,,3,,,66,0
33870,note_on,30,0,1,,,,,,,,,0,,,76,49
33885,note_on,0,0,1,,,,,,,,,0,,,74,49
33885,note_on,15,0,1,,,,,,,,,0,,,76,0
33900,note_on,0,0,4,,,,,,,,,3,,,60,0
33900,note_on,0,0,4,,,,,,,,,3,,,57,0
33900,control_change,0,0,4,,,,,,,,,3,64,127,,
33900,note_on,0,0,4,,,,,,,,,3,,,57,49
33900,note_on,0,0,4,,,,,,,,,3,,,61,49
33900,note_on,0,0,4,,,,,,,,,3,,,64,49
33900,time_signature,150,1,0,3,4,24,8,,,,,,,,,
33900,note_on,15,0,1,,,,,,,,,0,,,74,0
33900,note_on,60,0,4,,,,,,,,,3,,,63,0
33930,note_on,0,0,1,,,,,,,,,0,,,76,75
33930,control_change,30,0,1,,,,,,,,,0,64,127,,
33990,note_on,0,0,1,,,,,,,,,0,,,73,49
33990,note_on,60,0,1,,,,,,,,,0,,,76,0
34020,note_on,0,0,1,,,,,,,,,0,,,76,49
34020,note_on,30,0,1,,,,,,,,,0,,,73,0
34024,note_on,4,0,1,,,,,,,,,0,,,76,0
34050,note_on,26,0,1,,,,,,,,,0,,,81,49
34054,note_on,4,0,1,,,,,,,,,0,,,81,0
34080,note_on,0,0,4,,,,,,,,,3,,,57,0
34080,note_on,0,0,4,,,,,,,,,3,,,61,0
34080,note_on,0,0,4,,,,,,,,,3,,,64,49
34080,note_on,0,0,4,,,,,,,,,3,,,61,49
34080,note_on,180,0,4,,,,,,,,,3,,,64,0
34080,note_on,0,0,4,,,,,,,,,3,,,69,49
34110,note_on,56,0,1,,,,,,,,,0,,,81,49
34114,note_on,4,0,1,,,,,,,,,0,,,81,0
34140,note_on,0,0,4,,,,,,,,,3,,,64,49
34140,note_on,0,0,4,,,,,,,,,3,,,61,49
34140,note_on,60,0,4,,,,,,,,,3,,,69,0
34140,note_on,0,0,4,,,,,,,,,3,,,64,0
34140,note_on,0,0,4,,,,,,,,,3,,,61,0
34140,note_on,0,0,4,,,,,,,,,3,,,71,49
34140,control_change,0,0,4,,,,,,,,,3,64,0,,
34170,note_on,0,0,1,,,,,,,,,0,,,80,49
34170,control_change,56,0,1,,,,,,,,,0,64,0,,
34174,note_on,4,0,1,,,,,,,,,0,,,80,0
34200,note_on,0,0,4,,,,,,,,,3,,,73,49
34200,note_on,0,0,4,,,,,,,,,3,,,64,49
34200,note_on,0,0,4,,,,,,,,,3,,,61,49
34200,note_on,0,0,4,,,,,,,,,3,,,61,0
34200,note_on,0,0,4,,,,,,,,,3,,,64,0
34200,note_on,60,0,4,,,,,,,,,3,,,71,0
34230,note_on,56,0,1,,,,,,,,,0,,,81,49
34234,note_on,4,0,1,,,,,,,,,0,,,81,0
34260,control_change,774,0,3,,,,,,,,,2,64,127,,
34260,note_on,0,0,3,,,,,,,,,2,,,73,62
34260,note_on,60,0,4,,,,,,,,,3,,,73,0
34260,note_on,0,0,3,,,,,,,,,2,,,66,57
34260,note_on,0,0,3,,,,,,,,,2,,,62,52
34260,note_on,0,0,4,,,,,,,,,3,,,64,0
34260,note_on,0,0,4,,,,,,,,,3,,,61,0
34320,note_on,86,0,1,,,,,,,,,0,,,82,49
34380,note_on,0,0,3,,,,,,,,,2,,,71,36
34380,note_on,120,0,3,,,,,,,,,2,,,73,0
34410,note_on,90,0,1,,,,,,,,,0,,,82,0
34410,note_on,0,0,1,,,,,,,,,0,,,83,49
34440,note_on,0,0,3,,,,,,,,,2,,,62,0
34440,control_change,0,0,3,,,,,,,,,2,64,0,,
34440,note_on,0,0,3,,,,,,,,,2,,,61,36
34440,note_on,0,0,3,,,,,,,,,2,,,64,36
34440,note_on,0,0,3,,,,,,,,,2,,,69,36
34440,note_on,60,0,3,,,,,,,,,2,,,71,0
34440,note_on,0,0,3,,,,,,,,,2,,,66,0
34440,note_on,30,0,1,,,,,,,,,0,,,83,0
34470,note_on,30,0,1,,,,,,,,,0,,,85,49
34474,note_on,4,0,1,,,,,,,,,0,,,85,0
34500,note_on,0,0,3,,,,,,,,,2,,,68,36
34500,note_on,0,0,3,,,,,,,,,2,,,59,36
34500,note_on,0,0,3,,,,,,,,,2,,,61,0
34500,note_on,60,0,3,,,,,,,,,2,,,69,0
34500,note_on,0,0,3,,,,,,,,,2,,,62,36
34500,note_on,0,0,3,,,,,,,,,2,,,64,0
34530,note_on,56,0,1,,,,,,,,,0,,,86,49
34534,note_on,4,0,1,,,,,,,,,0,,,86,0
34560,note_on,60,0,3,,,,,,,,,2,,,68,0
34560,note_on,0,0,3,,,,,,,,,2,,,62,0
34560,note_on,0,0,3,,,,,,,,,2,,,61,36
34560,note_on,0,0,3,,,,,,,,,2,,,59,0
34560,note_on,0,0,3,,,,,,,,,2,,,57,36
34560,note_on,0,0,3,,,,,,,,,2,,,66,36
34590,note_on,56,0,1,,,,,,,,,0,,,87,49
34594,note_on,4,0,1,,,,,,,,,0,,,87,0
34620,note_on,60,0,3,,,,,,,,,2,,,66,0
34620,note_on,0,0,3,,,,,,,,,2,,,64,36
34620,note_on,0,0,3,,,,,,,,,2,,,56,36
34620,note_on,0,0,3,,,,,,,,,2,,,57,0
34620,note_on,0,0,3,,,,,,,,,2,,,61,0
34620,note_on,0,0,4,,,,,,,,,3,,,59,49
34620,control_change,360,0,4,,,,,,,,,3,64,127,,
34620,control_change,0,0,3,,,,,,,,,2,64,127,,
34680,note_on,86,0,1,,,,,,,,,0,,,88,75
34710,note_on,0,0,4,,,,,,,,,3,,,61,49
34710,note_on,90,0,4,,,,,,,,,3,,,59,0
34740,note_on,0,0,4,,,,,,,,,3,,,62,49
34740,control_change,0,0,4,,,,,,,,,3,64,0,,
34740,note_on,30,0,4,,,,,,,,,3,,,61,0
34770,note_on,0,0,1,,,,,,,,,0,,,90,49
34770,note_on,90,0,1,,,,,,,,,0,,,88,0
34800,note_on,30,0,1,,,,,,,,,0,,,90,0
34800,note_on,60,0,4,,,,,,,,,3,,,62,0
34800,note_on,0,0,3,,,,,,,,,2,,,62,36
34800,note_on,0,0,3,,,,,,,,,2,,,56,36
34800,note_on,0,0,3,,,,,,,,,2,,,56,0
34800,note_on,180,0,3,,,,,,,,,2,,,64,0
34800,note_on,0,0,3,,,,,,,,,2,,,64,36
34830,note_on,30,0,1,,,,,,,,,0,,,88,49
34830,note_on,30,0,3,,,,,,,,,2,,,66,36
34834,note_on,4,0,1,,,,,,,,,0,,,88,0
34845,note_on,0,0,3,,,,,,,,,2,,,68,36
34845,note_on,15,0,3,,,,,,,,,2,,,66,0
34860,note_on,0,0,3,,,,,,,,,2,,,62,0
34860,note_on,0,0,3,,,,,,,,,2,,,56,36
34860,note_on,0,0,3,,,,,,,,,2,,,56,0
34860,control_change,0,0,3,,,,,,,,,2,64,0,,
34860,note_on,0,0,3,,,,,,,,,2,,,62,36
34860,note_on,0,0,3,,,,,,,,,2,,,66,36
34860,note_on,0,0,3,,,,,,,,,2,,,64,0
34860,note_on,15,0,3,,,,,,,,,2,,,68,0
34890,note_on,56,0,1,,,,,,,,,0,,,86,49
34894,note_on,4,0,1,,,,,,,,,0,,,86,0
34920,note_on,0,0,3,,,,,,,,,2,,,64,36
34920,note_on,0,0,3,,,,,,,,,2,,,62,36
34920,note_on,0,0,3,,,,,,,,,2,,,56,0
34920,note_on,0,0,3,,,,,,,,,2,,,62,0
34920,note_on,60,0,3,,,,,,,,,2,,,66,0
34920,note_on,0,0,3,,,,,,,,,2,,,56,36
34950,note_on,56,0,1,,,,,,,,,0,,,83,49
34954,note_on,4,0,1,,,,,,,,,0,,,83,0
34980,note_on,0,0,4,,,,,,,,,3,,,66,75
34980,time_signature,1080,1,0,4,4,24,8,,,,,,,,,
34980,note_on,0,0,4,,,,,,,,,3,,,62,70
34980,note_on,0,0,4,,,,,,,,,3,,,57,65
34980,control_change,26,0,1,,,,,,,,,0,64,127,,
34980,note_on,0,0,1,,,,,,,,,0,,,81,49
34980,note_on,60,0,3,,,,,,,,,2,,,64,0
34980,note_on,0,0,3,,,,,,,,,2,,,62,0
34980,note_on,0,0,3,,,,,,,,,2,,,56,0
34980,control_change,180,0,4,,,,,,,,,3,64,127,,
35010,note_on,30,0,1,,,,,,,,,0,,,81,0
35010,note_on,0,0,1,,,,,,,,,0,,,93,49
35130,note_on,120,0,1,,,,,,,,,0,,,92,49
35145,note_on,15,0,1,,,,,,,,,0,,,92,0
35145,note_on,0,0,1,,,,,,,,,0,,,90,49
35160,note_on,15,0,1,,,,,,,,,0,,,90,0
35160,note_on,0,0,1,,,,,,,,,0,,,88,49
35175,note_on,15,0,1,,,,,,,,,0,,,88,0
35175,note_on,0,0,1,,,,,,,,,0,,,86,49
35190,note_on,0,0,1,,,,,,,,,0,,,85,49
35190,note_on,15,0,1,,,,,,,,,0,,,86,0
35205,note_on,0,0,1,,,,,,,,,0,,,83,49
35205,note_on,15,0,1,,,,,,,,,0,,,85,0
35220,note_on,240,0,4,,,,,,,,,3,,,66,0
35220,note_on,0,0,4,,,,,,,,,3,,,64,49
35220,note_on,0,0,4,,,,,,,,,3,,,61,49
35220,note_on,0,0,4,,,,,,,,,3,,,62,0
35220,note_on,15,0,1,,,,,,,,,0,,,83,0
35220,note_on,0,0,1,,,,,,,,,0,,,93,0
35220,note_on,0,0,1,,,,,,,,,0,,,81,49
35250,note_on,30,0,1,,,,,,,,,0,,,81,0
35280,note_on,0,0,4,,,,,,,,,3,,,57,49
35280,control_change,0,0,4,,,,,,,,,3,64,0,,
35280,note_on,0,0,4,,,,,,,,,3,,,57,0
35280,note_on,0,0,4,,,,,,,,,3,,,61,0
35280,note_on,60,0,4,,,,,,,,,3,,,64,0
35280,note_on,0,0,4,,,,,,,,,3,,,61,49
35310,control_change,60,0,1,,,,,,,,,0,64,0,,
35310,note_on,0,0,1,,,,,,,,,0,,,76,49
35340,note_on,0,0,4,,,,,,,,,3,,,57,0
35340,note_on,0,0,4,,,,,,,,,3,,,66,49
35340,note_on,0,0,4,,,,,,,,,3,,,62,49
35340,note_on,0,0,4,,,,,,,,,3,,,57,49
35340,note_on,60,0,4,,,,,,,,,3,,,61,0
35340,note_on,30,0,1,,,,,,,,,0,,,76,0
35370,note_on,30,0,1,,,,,,,,,0,,,80,49
35385,note_on,0,0,1,,,,,,,,,0,,,78,49
35385,note_on,15,0,1,,,,,,,,,0,,,80,0
35400,note_on,15,0,1,,,,,,,,,0,,,78,0
35400,note_on,0,0,4,,,,,,,,,3,,,63,49
35400,note_on,0,0,4,,,,,,,,,3,,,62,0
35400,note_on,0,0,4,,,,,,,,,3,,,57,0
35400,note_on,0,0,4,,,,,,,,,3,,,57,49
35400,note_on,60,0,4,,,,,,,,,3,,,66,0
35400,note_on,0,0,4,,,,,,,,,3,,,60,49
35406,note_on,0,0,4,,,,,,,,,3,,,60,0
35406,note_on,0,0,4,,,,,,,,,3,,,57,0
35406,note_on,6,0,4,,,,,,,,,3,,,63,0
35430,note_on,30,0,1,,,,,,,,,0,,,76,49
35445,note_on,0,0,1,,,,,,,,,0,,,75,49
35445,note_on,15,0,1,,,,,,,,,0,,,76,0
35460,note_on,15,0,1,,,,,,,,,0,,,75,0
35460,time_signature,480,1,0,3,4,24,8,,,,,,,,,
35460,note_on,0,0,3,,,,,,,,,2,,,61,36
35460,note_on,0,0,3,,,,,,,,,2,,,57,36
35460,control_change,480,0,3,,,,,,,,,2,64,127,,
35460,note_on,0,0,3,,,,,,,,,2,,,64,36
35490,note_on,0,0,1,,,,,,,,,0,,,76,75
35490,control_change,30,0,1,,,,,,,,,0,64,127,,
35550,note_on,60,0,1,,,,,,,,,0,,,76,0
35550,note_on,0,0,1,,,,,,,,,0,,,73,49
35580,note_on,30,0,1,,,,,,,,,0,,,73,0
35580,note_on,0,0,1,,,,,,,,,0,,,76,49
35584,note_on,4,0,1,,,,,,,,,0,,,76,0
35610,note_on,26,0,1,,,,,,,,,0,,,81,49
35614,note_on,4,0,1,,,,,,,,,0,,,81,0
35640,note_on,0,0,3,,,,,,,,,2,,,61,36
35640,note_on,0,0,3,,,,,,,,,2,,,57,36
35640,note_on,180,0,3,,,,,,,,,2,,,64,0
35640,note_on,0,0,3,,,,,,,,,2,,,61,0
35640,note_on,0,0,3,,,,,,,,,2,,,57,0
35670,note_on,56,0,1,,,,,,,,,0,,,81,49
35674,note_on,4,0,1,,,,,,,,,0,,,81,0
35700,note_on,0,0,3,,,,,,,,,2,,,64,36
35700,note_on,0,0,3,,,,,,,,,2,,,61,36
35700,note_on,0,0,3,,,,,,,,,2,,,57,36
35700,note_on,0,0,3,,,,,,,,,2,,,57,0
35700,note_on,60,0,3,,,,,,,,,2,,,61,0
35730,note_on,56,0,1,,,,,,,,,0,,,85,49
35734,note_on,4,0,1,,,,,,,,,0,,,85,0
35760,note_on,60,0,3,,,,,,,,,2,,,64,0
35760,note_on,0,0,3,,,,,,,,,2,,,61,0
35760,note_on,0,0,3,,,,,,,,,2,,,57,0
35760,control_change,0,0,3,,,,,,,,,2,64,0,,
35760,note_on,0,0,3,,,,,,,,,2,,,57,36
35760,note_on,0,0,3,,,,,,,,,2,,,61,36
35760,note_on,0,0,3,,,,,,,,,2,,,63,36
35760,note_on,0,0,3,,,,,,,,,2,,,66,36
35790,note_on,0,0,1,,,,,,,,,0,,,87,49
35790,control_change,56,0,1,,,,,,,,,0,64,0,,
35794,note_on,4,0,1,,,,,,,,,0,,,87,0
35820,control_change,0,0,3,,,,,,,,,2,64,127,,
35820,note_on,0,0,3,,,,,,,,,2,,,56,36
35820,note_on,0,0,3,,,,,,,,,2,,,63,0
35820,note_on,0,0,3,,,,,,,,,2,,,61,36
35820,note_on,0,0,3,,,,,,,,,2,,,57,0
35820,note_on,60,0,3,,,,,,,,,2,,,66,0
35820,note_on,0,0,3,,,,,,,,,2,,,64,36
35820,note_on,0,0,3,,,,,,,,,2,,,61,0
35820,note_on,0,0,3,,,,,,,,,2,,,68,36
35850,note_on,0,0,1,,,,,,,,,0,,,88,49
35850,control_change,56,0,1,,,,,,,,,0,64,127,,
35910,note_on,60,0,1,,,,,,,,,0,,,88,0
35910,note_on,0,0,1,,,,,,,,,0,,,90,49
35940,note_on,30,0,1,,,,,,,,,0,,,90,0
35940,note_on,0,0,1,,,,,,,,,0,,,92,49
35970,note_on,0,0,1,,,,,,,,,0,,,97,49
35970,note_on,30,0,1,,,,,,,,,0,,,92,0
36000,note_on,0,0,3,,,,,,,,,2,,,56,36
36000,note_on,180,0,3,,,,,,,,,2,,,68,0
36000,note_on,0,0,3,,,,,,,,,2,,,56,0
36000,note_on,30,0,1,,,,,,,,,0,,,97,0
36000,note_on,0,0,3,,,,,,,,,2,,,64,36
36000,note_on,0,0,3,,,,,,,,,2,,,68,36
36000,note_on,0,0,3,,,,,,,,,2,,,61,0
36000,note_on,0,0,3,,,,,,,,,2,,,64,0
36006,note_on,6,0,3,,,,,,,,,2,,,68,0
36006,note_on,0,0,3,,,,,,,,,2,,,64,0
36006,note_on,0,0,3,,,,,,,,,2,,,56,0
36030,note_on,30,0,1,,,,,,,,,0,,,85,49
36045,note_on,0,0,1,,,,,,,,,0,,,88,49
36045,note_on,15,0,1,,,,,,,,,0,,,85,0
36060,note_on,15,0,1,,,,,,,,,0,,,88,0
36060,control_change,54,0,3,,,,,,,,,2,64,0,,
36060,note_on,0,0,3,,,,,,,,,2,,,56,36
36060,note_on,0,0,3,,,,,,,,,2,,,66,36
36060,note_on,0,0,3,,,,,,,,,2,,,68,36
36066,note_on,6,0,3,,,,,,,,,2,,,68,0
36066,note_on,0,0,3,,,,,,,,,2,,,66,0
36066,note_on,0,0,3,,,,,,,,,2,,,56,0
36090,control_change,30,0,1,,,,,,,,,0,64,0,,
36090,note_on,0,0,1,,,,,,,,,0,,,88,49
36105,note_on,15,0,1,,,,,,,,,0,,,88,0
36105,note_on,0,0,1,,,,,,,,,0,,,87,49
36120,note_on,54,0,3,,,,,,,,,2,,,56,36
36120,note_on,0,0,3,,,,,,,,,2,,,68,36
36120,note_on,0,0,3,,,,,,,,,2,,,63,36
36120,note_on,15,0,1,,,,,,,,,0,,,87,0
36126,note_on,0,0,3,,,,,,,,,2,,,56,0
36126,note_on,0,0,3,,,,,,,,,2,,,63,0
36126,note_on,6,0,3,,,,,,,,,2,,,68,0
36150,note_on,30,0,1,,,,,,,,,0,,,87,49
36165,note_on,15,0,1,,,,,,,,,0,,,87,0
36165,note_on,0,0,1,,,,,,,,,0,,,80,49
36180,note_on,15,0,1,,,,,,,,,0,,,80,0
36180,note_on,54,0,3,,,,,,,,,2,,,61,36
36180,note_on,0,0,3,,,,,,,,,2,,,64,36
36180,note_on,0,0,3,,,,,,,,,2,,,68,36
36210,control_change,30,0,1,,,,,,,,,0,64,127,,
36210,note_on,0,0,1,,,,,,,,,0,,,80,49
36255,note_on,0,0,1,,,,,,,,,0,,,82,49
36255,note_on,45,0,1,,,,,,,,,0,,,80,0
36270,note_on,15,0,1,,,,,,,,,0,,,82,0
36270,note_on,0,0,1,,,,,,,,,0,,,83,49
36285,note_on,0,0,1,,,,,,,,,0,,,84,49
36285,note_on,15,0,1,,,,,,,,,0,,,83,0
36300,note_on,0,0,1,,,,,,,,,0,,,85,49
36300,note_on,15,0,1,,,,,,,,,0,,,84,0
36304,note_on,4,0,1,,,,,,,,,0,,,85,0
36330,note_on,0,0,1,,,,,,,,,0,,,85,49
36330,control_change,26,0,1,,,,,,,,,0,64,0,,
36334,note_on,4,0,1,,,,,,,,,0,,,85,0
36360,note_on,180,0,3,,,,,,,,,2,,,68,0
36360,note_on,0,0,3,,,,,,,,,2,,,64,0
36360,note_on,0,0,3,,,,,,,,,2,,,64,36
36360,note_on,0,0,3,,,,,,,,,2,,,61,36
36360,note_on,0,0,3,,,,,,,,,2,,,52,36
36360,note_on,0,0,3,,,,,,,,,2,,,61,0
36366,note_on,0,0,3,,,,,,,,,2,,,61,0
36366,note_on,6,0,3,,,,,,,,,2,,,64,0
36366,note_on,0,0,3,,,,,,,,,2,,,52,0
36390,note_on,56,0,1,,,,,,,,,0,,,93,36
36405,note_on,15,0,1,,,,,,,,,0,,,93,0
36405,note_on,0,0,1,,,,,,,,,0,,,97,36
36420,note_on,0,0,3,,,,,,,,,2,,,64,36
36420,note_on,54,0,3,,,,,,,,,2,,,52,36
36420,note_on,15,0,1,,,,,,,,,0,,,97,0
36420,note_on,0,0,3,,,,,,,,,2,,,62,36
36426,note_on,0,0,3,,,,,,,,,2,,,52,0
36426,note_on,0,0,3,,,,,,,,,2,,,62,0
36426,note_on,6,0,3,,,,,,,,,2,,,64,0
36450,note_on,30,0,1,,,,,,,,,0,,,97,36
36465,note_on,0,0,1,,,,,,,,,0,,,95,36
36465,note_on,15,0,1,,,,,,,,,0,,,97,0
36480,note_on,15,0,1,,,,,,,,,0,,,95,0
36480,note_on,54,0,3,,,,,,,,,2,,,52,36
36480,note_on,0,0,3,,,,,,,,,2,,,64,36
36480,note_on,0,0,3,,,,,,,,,2,,,61,36
36486,note_on,6,0,3,,,,,,,,,2,,,64,0
36486,note_on,0,0,3,,,,,,,,,2,,,61,0
36486,note_on,0,0,3,,,,,,,,,2,,,52,0
36510,note_on,30,0,1,,,,,,,,,0,,,95,36
36525,note_on,0,0,1,,,,,,,,,0,,,88,36
36525,note_on,15,0,1,,,,,,,,,0,,,95,0
36540,note_on,54,0,3,,,,,,,,,2,,,57,36
36540,note_on,0,0,3,,,,,,,,,2,,,61,36
36540,note_on,0,0,3,,,,,,,,,2,,,64,36
36540,note_on,15,0,1,,,,,,,,,0,,,88,0
36570,note_on,0,0,1,,,,,,,,,0,,,88,36
36570,control_change,30,0,1,,,,,,,,,0,64,127,,
36615,note_on,45,0,1,,,,,,,,,0,,,88,0
36615,note_on,0,0,1,,,,,,,,,0,,,90,36
36630,note_on,0,0,1,,,,,,,,,0,,,91,36
36630,note_on,15,0,1,,,,,,,,,0,,,90,0
36645,note_on,0,0,1,,,,,,,,,0,,,92,36
36645,note_on,15,0,1,,,,,,,,,0,,,91,0
36660,control_change,0,0,1,,,,,,,,,0,64,0,,
36660,note_on,0,0,1,,,,,,,,,0,,,93,36
36660,note_on,15,0,1,,,,,,,,,0,,,92,0
36690,note_on,30,0,1,,,,,,,,,0,,,93,0
36720,note_on,30,0,1,,,,,,,,,0,,,73,36
36720,note_on,0,0,1,,,,,,,,,0,,,81,36
36720,note_on,0,0,1,,,,,,,,,0,,,76,36
36720,note_on,180,0,3,,,,,,,,,2,,,64,0
36720,note_on,0,0,3,,,,,,,,,2,,,61,0
36720,note_on,0,0,3,,,,,,,,,2,,,57,0
36726,note_on,0,0,1,,,,,,,,,0,,,73,0
36726,note_on,0,0,1,,,,,,,,,0,,,76,0
36726,note_on,6,0,1,,,,,,,,,0,,,81,0
36750,note_on,30,0,3,,,,,,,,,2,,,71,36
36754,note_on,4,0,3,,,,,,,,,2,,,71,0
36780,note_on,0,0,1,,,,,,,,,0,,,81,36
36780,note_on,0,0,1,,,,,,,,,0,,,78,36
36780,note_on,54,0,1,,,,,,,,,0,,,74,36
36786,note_on,0,0,1,,,,,,,,,0,,,74,0
36786,note_on,0,0,1,,,,,,,,,0,,,78,0
36786,note_on,6,0,1,,,,,,,,,0,,,81,0
36810,note_on,56,0,3,,,,,,,,,2,,,69,36
36814,note_on,4,0,3,,,,,,,,,2,,,69,0
36840,note_on,0,0,1,,,,,,,,,0,,,75,36
36840,note_on,0,0,1,,,,,,,,,0,,,81,36
36840,note_on,54,0,1,,,,,,,,,0,,,72,36
36846,note_on,0,0,1,,,,,,,,,0,,,72,0
36846,note_on,6,0,1,,,,,,,,,0,,,81,0
36846,note_on,0,0,1,,,,,,,,,0,,,75,0
36870,note_on,56,0,3,,,,,,,,,2,,,66,36
36874,note_on,4,0,3,,,,,,,,,2,,,66,0
36900,note_on,0,0,1,,,,,,,,,0,,,73,52
36900,control_change,54,0,1,,,,,,,,,0,64,127,,
36900,note_on,0,0,1,,,,,,,,,0,,,76,57
36900,note_on,0,0,1,,,,,,,,,0,,,81,62
36930,note_on,0,0,3,,,,,,,,,2,,,64,62
36930,control_change,56,0,3,,,,,,,,,2,64,127,,
36975,note_on,0,0,3,,,,,,,,,2,,,69,36
36975,note_on,45,0,3,,,,,,,,,2,,,64,0
36990,note_on,15,0,3,,,,,,,,,2,,,69,0
36990,note_on,0,0,3,,,,,,,,,2,,,64,36
37005,note_on,15,0,3,,,,,,,,,2,,,64,0
37005,note_on,0,0,3,,,,,,,,,2,,,61,36
37020,note_on,0,0,3,,,,,,,,,2,,,57,36
37020,note_on,15,0,3,,,,,,,,,2,,,61,0
37024,note_on,4,0,3,,,,,,,,,2,,,57,0
37050,note_on,26,0,3,,,,,,,,,2,,,57,36
37054,note_on,4,0,3,,,,,,,,,2,,,57,0
37080,note_on,180,0,1,,,,,,,,,0,,,81,0
37080,note_on,0,0,1,,,,,,,,,0,,,81,36
37080,note_on,0,0,1,,,,,,,,,0,,,76,36
37080,note_on,0,0,1,,,,,,,,,0,,,73,36
37080,note_on,0,0,1,,,,,,,,,0,,,73,0
37080,note_on,0,0,1,,,,,,,,,0,,,76,0
37086,note_on,0,0,1,,,,,,,,,0,,,73,0
37086,note_on,0,0,1,,,,,,,,,0,,,76,0
37086,note_on,6,0,1,,,,,,,,,0,,,81,0
37110,note_on,56,0,3,,,,,,,,,2,,,61,36
37114,note_on,4,0,3,,,,,,,,,2,,,61,0
37140,note_on,0,0,1,,,,,,,,,0,,,83,36
37140,note_on,54,0,1,,,,,,,,,0,,,73,36
37140,note_on,0,0,1,,,,,,,,,0,,,76,36
37146,note_on,0,0,1,,,,,,,,,0,,,73,0
37146,note_on,0,0,1,,,,,,,,,0,,,76,0
37146,note_on,6,0,1,,,,,,,,,0,,,83,0
37170,note_on,56,0,3,,,,,,,,,2,,,64,36
37174,note_on,4,0,3,,,,,,,,,2,,,64,0
37200,control_change,54,0,1,,,,,,,,,0,64,0,,
37200,note_on,0,0,1,,,,,,,,,0,,,85,36
37200,note_on,0,0,1,,,,,,,,,0,,,76,36
37200,note_on,0,0,1,,,,,,,,,0,,,73,36
37206,note_on,0,0,1,,,,,,,,,0,,,73,0
37206,note_on,0,0,1,,,,,,,,,0,,,76,0
37206,note_on,6,0,1,,,,,,,,,0,,,85,0
37230,control_change,56,0,3,,,,,,,,,2,64,0,,
37230,note_on,0,0,3,,,,,,,,,2,,,69,36
37234,note_on,4,0,3,,,,,,,,,2,,,69,0
37260,note_on,54,0,1,,,,,,,,,0,,,74,52
37260,note_on,0,0,1,,,,,,,,,0,,,78,57
37260,note_on,0,0,1,,,,,,,,,0,,,85,62
37290,note_on,0,0,3,,,,,,,,,2,,,70,62
37290,control_change,56,0,3,,,,,,,,,2,64,127,,
37335,note_on,45,0,3,,,,,,,,,2,,,70,0
37335,note_on,0,0,3,,,,,,,,,2,,,73,36
37350,note_on,15,0,3,,,,,,,,,2,,,73,0
37350,note_on,0,0,3,,,,,,,,,2,,,71,36
37365,note_on,15,0,3,,,,,,,,,2,,,71,0
37365,note_on,0,0,3,,,,,,,,,2,,,70,36
37380,note_on,120,0,1,,,,,,,,,0,,,85,0
37380,note_on,0,0,3,,,,,,,,,2,,,71,36
37380,note_on,15,0,3,,,,,,,,,2,,,70,0
37380,note_on,0,0,1,,,,,,,,,0,,,83,36
37384,note_on,4,0,3,,,,,,,,,2,,,71,0
37410,control_change,26,0,3,,,,,,,,,2,64,0,,
37410,note_on,0,0,3,,,,,,,,,2,,,71,36
37414,note_on,4,0,3,,,,,,,,,2,,,71,0
37440,note_on,0,0,1,,,,,,,,,0,,,78,0
37440,note_on,0,0,1,,,,,,,,,0,,,74,0
37440,note_on,0,0,1,,,,,,,,,0,,,74,36
37440,note_on,0,0,1,,,,,,,,,0,,,81,36
37440,note_on,60,0,1,,,,,,,,,0,,,83,0
37446,note_on,6,0,1,,,,,,,,,0,,,81,0
37446,note_on,0,0,1,,,,,,,,,0,,,74,0
37470,note_on,0,0,3,,,,,,,,,2,,,66,36
37470,note_on,56,0,3,,,,,,,,,2,,,62,36
37500,note_on,30,0,3,,,,,,,,,2,,,66,0
37500,note_on,0,0,3,,,,,,,,,2,,,62,0
37500,note_on,54,0,1,,,,,,,,,0,,,74,36
37500,note_on,0,0,1,,,,,,,,,0,,,80,36
37506,note_on,0,0,1,,,,,,,,,0,,,74,0
37506,note_on,6,0,1,,,,,,,,,0,,,80,0
37530,note_on,0,0,3,,,,,,,,,2,,,68,36
37530,note_on,30,0,3,,,,,,,,,2,,,64,36
37560,note_on,54,0,1,,,,,,,,,0,,,74,36
37560,note_on,0,0,3,,,,,,,,,2,,,64,0
37560,note_on,30,0,3,,,,,,,,,2,,,68,0
37560,note_on,0,0,1,,,,,,,,,0,,,78,36
37566,note_on,6,0,1,,,,,,,,,0,,,78,0
37566,note_on,0,0,1,,,,,,,,,0,,,74,0
37590,note_on,30,0,3,,,,,,,,,2,,,66,36
37590,note_on,0,0,3,,,,,,,,,2,,,69,36
37620,note_on,54,0,1,,,,,,,,,0,,,74,54
37620,note_on,0,0,1,,,,,,,,,0,,,76,62
37620,note_on,30,0,3,,,,,,,,,2,,,69,0
37620,note_on,0,0,3,,,,,,,,,2,,,66,0
37650,control_change,30,0,3,,,,,,,,,2,64,127,,
37650,note_on,0,0,3,,,,,,,,,2,,,68,54
37650,note_on,0,0,3,,,,,,,,,2,,,71,62
37695,note_on,0,0,3,,,,,,,,,2,,,73,36
37695,note_on,0,0,3,,,,,,,,,2,,,69,36
37695,note_on,0,0,3,,,,,,,,,2,,,68,0
37695,note_on,45,0,3,,,,,,,,,2,,,71,0
37710,note_on,15,0,3,,,,,,,,,2,,,73,0
37710,note_on,0,0,3,,,,,,,,,2,,,69,0
37710,note_on,0,0,3,,,,,,,,,2,,,68,36
37710,note_on,0,0,3,,,,,,,,,2,,,71,36
37725,note_on,15,0,3,,,,,,,,,2,,,71,0
37725,note_on,0,0,3,,,,,,,,,2,,,68,0
37725,note_on,0,0,3,,,,,,,,,2,,,66,36
37725,note_on,0,0,3,,,,,,,,,2,,,69,36
37740,note_on,15,0,3,,,,,,,,,2,,,69,0
37740,note_on,0,0,3,,,,,,,,,2,,,66,0
37740,note_on,0,0,3,,,,,,,,,2,,,68,36
37740,note_on,0,0,3,,,,,,,,,2,,,71,36
37744,note_on,0,0,3,,,,,,,,,2,,,68,0
37744,note_on,4,0,3,,,,,,,,,2,,,71,0
37770,note_on,0,0,3,,,,,,,,,2,,,71,36
37770,note_on,0,0,3,,,,,,,,,2,,,68,36
37770,control_change,26,0,3,,,,,,,,,2,64,0,,
37774,note_on,0,0,3,,,,,,,,,2,,,68,0
37774,note_on,4,0,3,,,,,,,,,2,,,71,0
37800,note_on,0,0,1,,,,,,,,,0,,,68,36
37800,note_on,0,0,1,,,,,,,,,0,,,74,0
37800,note_on,180,0,1,,,,,,,,,0,,,76,0
37800,note_on,0,0,1,,,,,,,,,0,,,76,36
37800,note_on,0,0,1,,,,,,,,,0,,,74,36
37806,note_on,6,0,1,,,,,,,,,0,,,76,0
37806,note_on,0,0,1,,,,,,,,,0,,,74,0
37806,note_on,0,0,1,,,,,,,,,0,,,68,0
37830,note_on,56,0,3,,,,,,,,,2,,,64,36
37860,note_on,0,0,1,,,,,,,,,0,,,74,36
37860,note_on,30,0,3,,,,,,,,,2,,,64,0
37860,note_on,0,0,1,,,,,,,,,0,,,78,36
37860,note_on,54,0,1,,,,,,,,,0,,,69,36
37866,note_on,0,0,1,,,,,,,,,0,,,74,0
37866,note_on,0,0,1,,,,,,,,,0,,,69,0
37866,note_on,6,0,1,,,,,,,,,0,,,78,0
37890,note_on,30,0,3,,,,,,,,,2,,,62,36
37920,note_on,0,0,1,,,,,,,,,0,,,74,36
37920,note_on,30,0,3,,,,,,,,,2,,,62,0
37920,note_on,0,0,1,,,,,,,,,0,,,76,36
37920,note_on,54,0,1,,,,,,,,,0,,,68,36
37926,note_on,6,0,1,,,,,,,,,0,,,76,0
37926,note_on,0,0,1,,,,,,,,,0,,,74,0
37926,note_on,0,0,1,,,,,,,,,0,,,68,0
37950,note_on,30,0,3,,,,,,,,,2,,,59,36
37980,time_signature,2520,1,0,4,4,24,8,,,,,,,,,
37980,control_change,54,0,1,,,,,,,,,0,64,127,,
37980,note_on,0,0,1,,,,,,,,,0,,,74,54
37980,note_on,0,0,1,,,,,,,,,0,,,78,62
37980,note_on,30,0,3,,,,,,,,,2,,,59,0
37980,control_change,0,0,3,,,,,,,,,2,64,127,,
37980,note_on,0,0,3,,,,,,,,,2,,,57,36
38010,note_on,0,0,3,,,,,,,,,2,,,69,36
38010,note_on,30,0,3,,,,,,,,,2,,,57,0
38130,note_on,120,0,3,,,,,,,,,2,,,68,36
38145,note_on,0,0,3,,,,,,,,,2,,,66,36
38145,note_on,15,0,3,,,,,,,,,2,,,68,0
38160,note_on,0,0,3,,,,,,,,,2,,,64,36
38160,note_on,15,0,3,,,,,,,,,2,,,66,0
38175,note_on,0,0,3,,,,,,,,,2,,,62,36
38175,note_on,15,0,3,,,,,,,,,2,,,64,0
38190,note_on,0,0,3,,,,,,,,,2,,,61,36
38190,note_on,15,0,3,,,,,,,,,2,,,62,0
38205,note_on,15,0,3,,,,,,,,,2,,,61,0
38205,note_on,0,0,3,,,,,,,,,2,,,59,36
38220,note_on,240,0,1,,,,,,,,,0,,,78,0
38220,note_on,0,0,3,,,,,,,,,2,,,57,36
38220,note_on,0,0,1,,,,,,,,,0,,,74,0
38220,note_on,0,0,1,,,,,,,,,0,,,73,36
38220,note_on,0,0,1,,,,,,,,,0,,,76,36
38220,note_on,0,0,3,,,,,,,,,2,,,69,0
38220,note_on,15,0,3,,,,,,,,,2,,,59,0
38224,note_on,4,0,3,,,,,,,,,2,,,57,0
38250,control_change,26,0,3,,,,,,,,,2,64,0,,
38250,note_on,0,0,3,,,,,,,,,2,,,57,36
38254,note_on,4,0,3,,,,,,,,,2,,,57,0
38280,control_change,0,0,1,,,,,,,,,0,64,0,,
38280,note_on,0,0,1,,,,,,,,,0,,,76,88
38280,note_on,0,0,1,,,,,,,,,0,,,73,88
38280,note_on,0,0,1,,,,,,,,,0,,,69,88
38280,note_on,0,0,1,,,,,,,,,0,,,73,0
38280,note_on,60,0,1,,,,,,,,,0,,,76,0
38286,note_on,0,0,1,,,,,,,,,0,,,69,0
38286,note_on,6,0,1,,,,,,,,,0,,,76,0
38286,note_on,0,0,1,,,,,,,,,0,,,73,0
38310,note_on,56,0,3,,,,,,,,,2,,,47,75
38310,note_on,0,0,3,,,,,,,,,2,,,59,75
38314,note_on,4,0,3,,,,,,,,,2,,,59,0
38314,note_on,0,0,3,,,,,,,,,2,,,47,0
38340,note_on,0,0,1,,,,,,,,,0,,,78,88
38340,note_on,0,0,1,,,,,,,,,0,,,74,88
38340,note_on,54,0,1,,,,,,,,,0,,,69,88
38346,note_on,0,0,1,,,,,,,,,0,,,74,0
38346,note_on,0,0,1,,,,,,,,,0,,,69,0
38346,note_on,6,0,1,,,,,,,,,0,,,78,0
38370,note_on,0,0,3,,,,,,,,,2,,,57,75
38370,note_on,56,0,3,,,,,,,,,2,,,45,75
38374,note_on,0,0,3,,,,,,,,,2,,,45,0
38374,note_on,4,0,3,,,,,,,,,2,,,57,0
38400,note_on,0,0,1,,,,,,,,,0,,,72,88
38400,note_on,0,0,1,,,,,,,,,0,,,75,88
38400,note_on,54,0,1,,,,,,,,,0,,,69,88
38406,note_on,6,0,1,,,,,,,,,0,,,75,0
38406,note_on,0,0,1,,,,,,,,,0,,,69,0
38406,note_on,0,0,1,,,,,,,,,0,,,72,0
38430,note_on,0,0,3,,,,,,,,,2,,,54,75
38430,note_on,56,0,3,,,,,,,,,2,,,42,75
38434,note_on,0,0,3,,,,,,,,,2,,,42,0
38434,note_on,4,0,3,,,,,,,,,2,,,54,0
38460,note_on,54,0,1,,,,,,,,,0,,,69,88
38460,note_on,0,0,1,,,,,,,,,0,,,73,88
38460,note_on,0,0,1,,,,,,,,,0,,,76,88
38460,time_signature,480,1,0,3,4,24,8,,,,,,,,,
38490,control_change,56,0,3,,,,,,,,,2,64,127,,
38490,note_on,0,0,3,,,,,,,,,2,,,40,93
38490,note_on,0,0,3,,,,,,,,,2,,,52,101
38550,note_on,60,0,3,,,,,,,,,2,,,52,0
38550,note_on,0,0,3,,,,,,,,,2,,,40,0
38550,note_on,0,0,3,,,,,,,,,2,,,37,75
38550,note_on,0,0,3,,,,,,,,,2,,,49,75
38554,note_on,4,0,3,,,,,,,,,2,,,49,0
38554,note_on,0,0,3,,,,,,,,,2,,,37,0
38580,note_on,0,0,3,,,,,,,,,2,,,52,75
38580,note_on,26,0,3,,,,,,,,,2,,,40,75
38584,note_on,4,0,3,,,,,,,,,2,,,52,0
38584,note_on,0,0,3,,,,,,,,,2,,,40,0
38610,note_on,0,0,3,,,,,,,,,2,,,45,75
38610,note_on,0,0,3,,,,,,,,,2,,,57,75
38610,control_change,26,0,3,,,,,,,,,2,64,0,,
38614,note_on,0,0,3,,,,,,,,,2,,,45,0
38614,note_on,4,0,3,,,,,,,,,2,,,57,0
38640,note_on,0,0,1,,,,,,,,,0,,,76,88
38640,note_on,0,0,1,,,,,,,,,0,,,73,88
38640,note_on,0,0,1,,,,,,,,,0,,,73,0
38640,note_on,0,0,1,,,,,,,,,0,,,69,0
38640,note_on,180,0,1,,,,,,,,,0,,,76,0
38640,note_on,0,0,1,,,,,,,,,0,,,69,88
38646,note_on,6,0,1,,,,,,,,,0,,,76,0
38646,note_on,0,0,1,,,,,,,,,0,,,73,0
38646,note_on,0,0,1,,,,,,,,,0,,,69,0
38670,note_on,56,0,3,,,,,,,,,2,,,49,75
38670,note_on,0,0,3,,,,,,,,,2,,,61,75
38674,note_on,4,0,3,,,,,,,,,2,,,61,0
38674,note_on,0,0,3,,,,,,,,,2,,,49,0
38700,note_on,54,0,1,,,,,,,,,0,,,73,88
38700,note_on,0,0,1,,,,,,,,,0,,,76,88
38700,note_on,0,0,1,,,,,,,,,0,,,81,88
38706,note_on,6,0,1,,,,,,,,,0,,,81,0
38706,note_on,0,0,1,,,,,,,,,0,,,76,0
38706,note_on,0,0,1,,,,,,,,,0,,,73,0
38730,note_on,0,0,3,,,,,,,,,2,,,59,75
38730,note_on,56,0,3,,,,,,,,,2,,,47,75
38734,note_on,0,0,3,,,,,,,,,2,,,47,0
38734,note_on,4,0,3,,,,,,,,,2,,,59,0
38760,note_on,54,0,1,,,,,,,,,0,,,76,88
38760,note_on,0,0,1,,,,,,,,,0,,,85,88
38760,note_on,0,0,1,,,,,,,,,0,,,81,88
38766,note_on,0,0,1,,,,,,,,,0,,,81,0
38766,note_on,6,0,1,,,,,,,,,0,,,85,0
38766,note_on,0,0,1,,,,,,,,,0,,,76,0
38790,note_on,0,0,3,,,,,,,,,2,,,57,75
38790,note_on,56,0,3,,,,,,,,,2,,,45,75
38794,note_on,0,0,3,,,,,,,,,2,,,45,0
38794,note_on,4,0,3,,,,,,,,,2,,,57,0
38820,note_on,0,0,1,,,,,,,,,0,,,88,88
38820,note_on,0,0,1,,,,,,,,,0,,,85,88
38820,note_on,0,0,1,,,,,,,,,0,,,80,88
38820,note_on,54,0,1,,,,,,,,,0,,,76,88
38850,note_on,0,0,3,,,,,,,,,2,,,56,101
38850,control_change,56,0,3,,,,,,,,,2,64,127,,
38850,note_on,0,0,3,,,,,,,,,2,,,44,93
38910,note_on,0,0,3,,,,,,,,,2,,,52,75
38910,note_on,0,0,3,,,,,,,,,2,,,44,0
38910,note_on,60,0,3,,,,,,,,,2,,,56,0
38910,note_on,0,0,3,,,,,,,,,2,,,40,75
38940,note_on,30,0,3,,,,,,,,,2,,,52,0
38940,note_on,0,0,3,,,,,,,,,2,,,40,0
38940,note_on,0,0,3,,,,,,,,,2,,,44,75
38940,note_on,0,0,3,,,,,,,,,2,,,56,75
38944,note_on,4,0,3,,,,,,,,,2,,,56,0
38944,note_on,0,0,3,,,,,,,,,2,,,44,0
38970,note_on,0,0,3,,,,,,,,,2,,,61,75
38970,note_on,26,0,3,,,,,,,,,2,,,49,75
38974,note_on,0,0,3,,,,,,,,,2,,,49,0
38974,note_on,4,0,3,,,,,,,,,2,,,61,0
39000,note_on,0,0,1,,,,,,,,,0,,,85,0
39000,note_on,0,0,1,,,,,,,,,0,,,73,88
39000,note_on,0,0,1,,,,,,,,,0,,,80,88
39000,note_on,0,0,1,,,,,,,,,0,,,85,88
39000,note_on,180,0,1,,,,,,,,,0,,,88,0
39000,note_on,0,0,1,,,,,,,,,0,,,80,0
39000,note_on,0,0,1,,,,,,,,,0,,,76,0
39006,note_on,6,0,1,,,,,,,,,0,,,85,0
39006,note_on,0,0,1,,,,,,,,,0,,,80,0
39006,note_on,0,0,1,,,,,,,,,0,,,73,0
39030,control_change,56,0,3,,,,,,,,,2,64,0,,
39030,note_on,0,0,3,,,,,,,,,2,,,64,75
39030,note_on,0,0,3,,,,,,,,,2,,,52,75
39034,note_on,0,0,3,,,,,,,,,2,,,52,0
39034,note_on,4,0,3,,,,,,,,,2,,,64,0
39060,note_on,54,0,1,,,,,,,,,0,,,75,88
39060,note_on,0,0,1,,,,,,,,,0,,,78,88
39060,note_on,0,0,1,,,,,,,,,0,,,87,88
39066,note_on,6,0,1,,,,,,,,,0,,,87,0
39066,note_on,0,0,1,,,,,,,,,0,,,78,0
39066,note_on,0,0,1,,,,,,,,,0,,,75,0
39090,note_on,56,0,3,,,,,,,,,2,,,57,75
39090,note_on,0,0,3,,,,,,,,,2,,,69,75
39094,note_on,4,0,3,,,,,,,,,2,,,69,0
39094,note_on,0,0,3,,,,,,,,,2,,,57,0
39120,note_on,0,0,1,,,,,,,,,0,,,92,88
39120,note_on,0,0,1,,,,,,,,,0,,,87,88
39120,note_on,0,0,1,,,,,,,,,0,,,84,88
39120,note_on,54,0,1,,,,,,,,,0,,,78,88
39126,note_on,0,0,1,,,,,,,,,0,,,84,0
39126,note_on,0,0,1,,,,,,,,,0,,,78,0
39126,note_on,6,0,1,,,,,,,,,0,,,92,0
39126,note_on,0,0,1,,,,,,,,,0,,,87,0
39150,note_on,56,0,3,,,,,,,,,2,,,44,75
39150,note_on,0,0,3,,,,,,,,,2,,,56,75
39154,note_on,4,0,3,,,,,,,,,2,,,56,0
39154,note_on,0,0,3,,,,,,,,,2,,,44,0
39180,note_on,0,0,1,,,,,,,,,0,,,76,88
39180,note_on,0,0,1,,,,,,,,,0,,,80,88
39180,note_on,0,0,1,,,,,,,,,0,,,85,88
39180,note_on,54,0,1,,,,,,,,,0,,,73,88
39210,note_on,0,0,3,,,,,,,,,2,,,49,93
39210,control_change,56,0,3,,,,,,,,,2,64,127,,
39210,note_on,0,0,3,,,,,,,,,2,,,61,101
39270,note_on,0,0,3,,,,,,,,,2,,,44,75
39270,note_on,0,0,3,,,,,,,,,2,,,56,75
39270,note_on,60,0,3,,,,,,,,,2,,,61,0
39270,note_on,0,0,3,,,,,,,,,2,,,49,0
39300,note_on,0,0,3,,,,,,,,,2,,,52,75
39300,note_on,0,0,3,,,,,,,,,2,,,40,75
39300,note_on,0,0,3,,,,,,,,,2,,,44,0
39300,note_on,30,0,3,,,,,,,,,2,,,56,0
39304,note_on,0,0,3,,,,,,,,,2,,,40,0
39304,note_on,4,0,3,,,,,,,,,2,,,52,0
39330,note_on,0,0,3,,,,,,,,,2,,,49,75
39330,note_on,26,0,3,,,,,,,,,2,,,37,75
39334,note_on,0,0,3,,,,,,,,,2,,,37,0
39334,note_on,4,0,3,,,,,,,,,2,,,49,0
39360,note_on,180,0,1,,,,,,,,,0,,,85,0
39360,note_on,0,0,1,,,,,,,,,0,,,73,0
39360,note_on,0,0,1,,,,,,,,,0,,,76,0
39360,note_on,0,0,1,,,,,,,,,0,,,80,0
39360,note_on,0,0,1,,,,,,,,,0,,,64,49
39360,note_on,0,0,1,,,,,,,,,0,,,69,49
39366,note_on,6,0,1,,,,,,,,,0,,,69,0
39366,note_on,0,0,1,,,,,,,,,0,,,64,0
39390,note_on,0,0,3,,,,,,,,,2,,,49,49
39390,control_change,56,0,3,,,,,,,,,2,64,0,,
39394,note_on,4,0,3,,,,,,,,,2,,,49,0
39420,note_on,0,0,1,,,,,,,,,0,,,71,49
39420,note_on,0,0,1,,,,,,,,,0,,,69,49
39420,note_on,54,0,1,,,,,,,,,0,,,63,49
39426,note_on,0,0,1,,,,,,,,,0,,,69,0
39426,note_on,6,0,1,,,,,,,,,0,,,71,0
39426,note_on,0,0,1,,,,,,,,,0,,,63,0
39450,note_on,56,0,3,,,,,,,,,2,,,54,49
39454,note_on,4,0,3,,,,,,,,,2,,,54,0
39480,note_on,54,0,1,,,,,,,,,0,,,62,49
39480,note_on,0,0,1,,,,,,,,,0,,,68,49
39480,note_on,0,0,1,,,,,,,,,0,,,71,49
39480,note_on,0,0,1,,,,,,,,,0,,,76,49
39486,note_on,0,0,1,,,,,,,,,0,,,62,0
39486,note_on,0,0,1,,,,,,,,,0,,,68,0
39486,note_on,0,0,1,,,,,,,,,0,,,71,0
39486,note_on,6,0,1,,,,,,,,,0,,,76,0
39510,note_on,56,0,3,,,,,,,,,2,,,52,49
39514,note_on,4,0,3,,,,,,,,,2,,,52,0
39540,note_on,54,0,1,,,,,,,,,0,,,61,49
39540,note_on,0,0,1,,,,,,,,,0,,,69,49
39570,note_on,0,0,3,,,,,,,,,2,,,54,75
39570,control_change,56,0,3,,,,,,,,,2,64,127,,
39630,note_on,60,0,3,,,,,,,,,2,,,54,0
39630,note_on,0,0,3,,,,,,,,,2,,,49,49
39660,note_on,30,0,3,,,,,,,,,2,,,49,0
39660,note_on,0,0,3,,,,,,,,,2,,,45,49
39664,note_on,4,0,3,,,,,,,,,2,,,45,0
39690,note_on,0,0,3,,,,,,,,,2,,,42,49
39690,control_change,26,0,3,,,,,,,,,2,64,0,,
39694,note_on,4,0,3,,,,,,,,,2,,,42,0
39720,note_on,0,0,1,,,,,,,,,0,,,73,88
39720,note_on,0,0,1,,,,,,,,,0,,,61,0
39720,note_on,180,0,1,,,,,,,,,0,,,69,0
39720,note_on,0,0,1,,,,,,,,,0,,,79,88
39720,note_on,0,0,1,,,,,,,,,0,,,82,88
39726,note_on,0,0,1,,,,,,,,,0,,,73,0
39726,note_on,0,0,1,,,,,,,,,0,,,79,0
39726,note_on,6,0,1,,,,,,,,,0,,,82,0
39750,note_on,0,0,3,,,,,,,,,2,,,52,88
39750,note_on,56,0,3,,,,,,,,,2,,,40,88
39754,note_on,0,0,3,,,,,,,,,2,,,40,0
39754,note_on,4,0,3,,,,,,,,,2,,,52,0
39780,note_on,0,0,1,,,,,,,,,0,,,79,88
39780,note_on,54,0,1,,,,,,,,,0,,,74,88
39780,note_on,0,0,1,,,,,,,,,0,,,83,88
39786,note_on,6,0,1,,,,,,,,,0,,,83,0
39786,note_on,0,0,1,,,,,,,,,0,,,79,0
39786,note_on,0,0,1,,,,,,,,,0,,,74,0
39810,note_on,0,0,3,,,,,,,,,2,,,50,88
39810,note_on,56,0,3,,,,,,,,,2,,,38,88
39814,note_on,0,0,3,,,,,,,,,2,,,38,0
39814,note_on,4,0,3,,,,,,,,,2,,,50,0
39840,note_on,54,0,1,,,,,,,,,0,,,76,88
39840,note_on,0,0,1,,,,,,,,,0,,,79,88
39840,note_on,0,0,1,,,,,,,,,0,,,85,88
39846,note_on,0,0,1,,,,,,,,,0,,,79,0
39846,note_on,6,0,1,,,,,,,,,0,,,85,0
39846,note_on,0,0,1,,,,,,,,,0,,,76,0
39870,note_on,56,0,3,,,,,,,,,2,,,37,88
39870,note_on,0,0,3,,,,,,,,,2,,,49,88
39874,note_on,4,0,3,,,,,,,,,2,,,49,0
39874,note_on,0,0,3,,,,,,,,,2,,,37,0
39900,note_on,0,0,1,,,,,,,,,0,,,83,110
39900,note_on,0,0,1,,,,,,,,,0,,,74,102
39900,control_change,54,0,1,,,,,,,,,0,64,127,,
39900,note_on,0,0,1,,,,,,,,,0,,,86,114
39900,note_on,0,0,1,,,,,,,,,0,,,79,106
39960,control_change,86,0,3,,,,,,,,,2,64,127,,
39960,note_on,0,0,3,,,,,,,,,2,,,35,102
39960,note_on,0,0,3,,,,,,,,,2,,,43,110
39960,note_on,0,0,3,,,,,,,,,2,,,47,114
39960,note_on,0,0,3,,,,,,,,,2,,,38,106
40050,note_on,150,0,1,,,,,,,,,0,,,86,0
40050,note_on,0,0,1,,,,,,,,,0,,,74,0
40050,note_on,0,0,1,,,,,,,,,0,,,79,0
40050,note_on,0,0,1,,,,,,,,,0,,,83,88
40050,note_on,0,0,1,,,,,,,,,0,,,86,88
40050,note_on,0,0,1,,,,,,,,,0,,,83,0
40054,note_on,4,0,1,,,,,,,,,0,,,86,0
40054,note_on,0,0,1,,,,,,,,,0,,,83,0
40080,note_on,0,0,3,,,,,,,,,2,,,35,0
40080,note_on,0,0,3,,,,,,,,,2,,,38,0
40080,note_on,0,0,3,,,,,,,,,2,,,43,0
40080,note_on,120,0,3,,,,,,,,,2,,,47,0
40080,note_on,26,0,1,,,,,,,,,0,,,79,88
40080,note_on,0,0,1,,,,,,,,,0,,,83,88
40084,note_on,4,0,1,,,,,,,,,0,,,83,0
40084,note_on,0,0,1,,,,,,,,,0,,,79,0
40110,note_on,0,0,1,,,,,,,,,0,,,79,88
40110,note_on,26,0,1,,,,,,,,,0,,,74,88
40114,note_on,4,0,1,,,,,,,,,0,,,79,0
40114,note_on,0,0,1,,,,,,,,,0,,,74,0
40140,note_on,26,0,1,,,,,,,,,0,,,71,88
40140,note_on,0,0,1,,,,,,,,,0,,,74,88
40144,note_on,4,0,1,,,,,,,,,0,,,74,0
40144,note_on,0,0,1,,,,,,,,,0,,,71,0
40170,note_on,0,0,1,,,,,,,,,0,,,71,88
40170,note_on,26,0,1,,,,,,,,,0,,,67,88
40174,note_on,4,0,1,,,,,,,,,0,,,71,0
40174,note_on,0,0,1,,,,,,,,,0,,,67,0
40200,note_on,0,0,1,,,,,,,,,0,,,67,88
40200,note_on,26,0,1,,,,,,,,,0,,,62,88
40204,note_on,0,0,1,,,,,,,,,0,,,62,0
40204,note_on,4,0,1,,,,,,,,,0,,,67,0
40230,note_on,0,0,3,,,,,,,,,2,,,43,88
40230,control_change,26,0,1,,,,,,,,,0,64,0,,
40230,control_change,150,0,3,,,,,,,,,2,64,0,,
40230,note_on,0,0,3,,,,,,,,,2,,,55,88
40230,note_on,0,0,1,,,,,,,,,0,,,59,88
40230,note_on,0,0,1,,,,,,,,,0,,,62,88
40234,note_on,0,0,1,,,,,,,,,0,,,59,0
40234,note_on,4,0,1,,,,,,,,,0,,,62,0
40260,note_on,0,0,1,,,,,,,,,0,,,64,88
40260,note_on,0,0,1,,,,,,,,,0,,,60,88
40260,control_change,26,0,1,,,,,,,,,0,64,127,,
40260,note_on,0,0,3,,,,,,,,,2,,,55,88
40260,note_on,0,0,3,,,,,,,,,2,,,48,88
40260,control_change,0,0,3,,,,,,,,,2,64,127,,
40260,note_on,0,0,3,,,,,,,,,2,,,43,0
40260,note_on,30,0,3,,,,,,,,,2,,,55,0
40440,note_on,0,0,1,,,,,,,,,0,,,60,0
40440,note_on,0,0,3,,,,,,,,,2,,,48,0
40440,note_on,180,0,3,,,,,,,,,2,,,55,0
40440,note_on,0,0,1,,,,,,,,,0,,,59,88
40440,note_on,0,0,3,,,,,,,,,2,,,55,88
40440,note_on,180,0,1,,,,,,,,,0,,,64,0
40440,note_on,0,0,3,,,,,,,,,2,,,43,88
40440,note_on,0,0,1,,,,,,,,,0,,,62,88
40444,note_on,0,0,3,,,,,,,,,2,,,43,0
40444,note_on,4,0,1,,,,,,,,,0,,,62,0
40444,note_on,0,0,1,,,,,,,,,0,,,59,0
40444,note_on,4,0,3,,,,,,,,,2,,,55,0
40470,note_on,26,0,1,,,,,,,,,0,,,62,88
40470,note_on,0,0,1,,,,,,,,,0,,,67,88
40470,note_on,26,0,3,,,,,,,,,2,,,47,88
40470,note_on,0,0,3,,,,,,,,,2,,,55,88
40474,note_on,4,0,3,,,,,,,,,2,,,55,0
40474,note_on,0,0,1,,,,,,,,,0,,,62,0
40474,note_on,0,0,3,,,,,,,,,2,,,47,0
40474,note_on,4,0,1,,,,,,,,,0,,,67,0
40500,note_on,26,0,3,,,,,,,,,2,,,48,88
40500,note_on,0,0,3,,,,,,,,,2,,,55,88
40500,note_on,26,0,1,,,,,,,,,0,,,60,88
40500,note_on,0,0,1,,,,,,,,,0,,,64,88
40504,note_on,4,0,3,,,,,,,,,2,,,55,0
40504,note_on,0,0,1,,,,,,,,,0,,,60,0
40504,note_on,0,0,3,,,,,,,,,2,,,48,0
40504,note_on,4,0,1,,,,,,,,,0,,,64,0
40530,note_on,26,0,1,,,,,,,,,0,,,64,88
40530,note_on,0,0,1,,,,,,,,,0,,,72,88
40530,note_on,26,0,3,,,,,,,,,2,,,48,88
40530,note_on,0,0,3,,,,,,,,,2,,,55,88
40534,note_on,4,0,1,,,,,,,,,0,,,72,0
40534,note_on,4,0,3,,,,,,,,,2,,,55,0
40534,note_on,0,0,3,,,,,,,,,2,,,48,0
40534,note_on,0,0,1,,,,,,,,,0,,,64,0
40560,note_on,0,0,1,,,,,,,,,0,,,71,88
40560,note_on,26,0,1,,,,,,,,,0,,,65,88
40560,note_on,26,0,3,,,,,,,,,2,,,50,88
40560,note_on,0,0,3,,,,,,,,,2,,,55,88
40564,note_on,0,0,3,,,,,,,,,2,,,50,0
40564,note_on,4,0,3,,,,,,,,,2,,,55,0
40564,note_on,4,0,1,,,,,,,,,0,,,71,0
40564,note_on,0,0,1,,,,,,,,,0,,,65,0
40590,note_on,0,0,3,,,,,,,,,2,,,43,88
40590,note_on,0,0,3,,,,,,,,,2,,,55,88
40590,control_change,26,0,1,,,,,,,,,0,64,0,,
40590,note_on,0,0,1,,,,,,,,,0,,,71,88
40590,note_on,0,0,1,,,,,,,,,0,,,77,88
40590,control_change,26,0,3,,,,,,,,,2,64,0,,
40594,note_on,4,0,3,,,,,,,,,2,,,55,0
40594,note_on,0,0,3,,,,,,,,,2,,,43,0
40594,note_on,0,0,1,,,,,,,,,0,,,71,0
40594,note_on,4,0,1,,,,,,,,,0,,,77,0
40620,control_change,26,0,3,,,,,,,,,2,64,127,,
40620,note_on,0,0,3,,,,,,,,,2,,,48,88
40620,note_on,0,0,3,,,,,,,,,2,,,55,88
40620,note_on,0,0,1,,,,,,,,,0,,,72,88
40620,control_change,26,0,1,,,,,,,,,0,64,127,,
40620,note_on,0,0,1,,,,,,,,,0,,,76,88
40626,note_on,0,0,3,,,,,,,,,2,,,48,0
40626,note_on,0,0,1,,,,,,,,,0,,,72,0
40626,note_on,6,0,3,,,,,,,,,2,,,55,0
40626,note_on,6,0,1,,,,,,,,,0,,,76,0
40680,note_on,54,0,1,,,,,,,,,0,,,59,88
40680,note_on,0,0,1,,,,,,,,,0,,,62,88
40680,note_on,54,0,3,,,,,,,,,2,,,43,88
40680,note_on,0,0,3,,,,,,,,,2,,,55,88
40684,note_on,4,0,1,,,,,,,,,0,,,62,0
40684,note_on,0,0,1,,,,,,,,,0,,,59,0
40684,note_on,4,0,3,,,,,,,,,2,,,55,0
40684,note_on,0,0,3,,,,,,,,,2,,,43,0
40710,note_on,26,0,1,,,,,,,,,0,,,62,88
40710,note_on,0,0,1,,,,,,,,,0,,,67,88
40710,note_on,26,0,3,,,,,,,,,2,,,47,88
40710,note_on,0,0,3,,,,,,,,,2,,,55,88
40714,note_on,0,0,3,,,,,,,,,2,,,47,0
40714,note_on,4,0,3,,,,,,,,,2,,,55,0
40714,note_on,4,0,1,,,,,,,,,0,,,67,0
40714,note_on,0,0,1,,,,,,,,,0,,,62,0
40740,note_on,0,0,1,,,,,,,,,0,,,64,88
40740,note_on,26,0,1,,,,,,,,,0,,,60,88
40740,note_on,26,0,3,,,,,,,,,2,,,48,88
40740,note_on,0,0,3,,,,,,,,,2,,,55,88
40744,note_on,4,0,3,,,,,,,,,2,,,55,0
40744,note_on,0,0,1,,,,,,,,,0,,,60,0
40744,note_on,4,0,1,,,,,,,,,0,,,64,0
40744,note_on,0,0,3,,,,,,,,,2,,,48,0
40770,note_on,26,0,3,,,,,,,,,2,,,48,88
40770,note_on,0,0,3,,,,,,,,,2,,,55,88
40770,note_on,26,0,1,,,,,,,,,0,,,64,88
40770,note_on,0,0,1,,,,,,,,,0,,,72,88
40774,note_on,4,0,3,,,,,,,,,2,,,55,0
40774,note_on,0,0,1,,,,,,,,,0,,,64,0
40774,note_on,4,0,1,,,,,,,,,0,,,72,0
40774,note_on,0,0,3,,,,,,,,,2,,,48,0
40800,note_on,0,0,1,,,,,,,,,0,,,71,88
40800,note_on,26,0,3,,,,,,,,,2,,,50,88
40800,note_on,26,0,1,,,,,,,,,0,,,65,88
40800,note_on,0,0,3,,,,,,,,,2,,,55,88
40804,note_on,4,0,1,,,,,,,,,0,,,71,0
40804,note_on,4,0,3,,,,,,,,,2,,,55,0
40804,note_on,0,0,1,,,,,,,,,0,,,65,0
40804,note_on,0,0,3,,,,,,,,,2,,,50,0
40830,note_on,26,0,1,,,,,,,,,0,,,71,88
40830,note_on,0,0,1,,,,,,,,,0,,,77,88
40830,note_on,0,0,3,,,,,,,,,2,,,55,88
40830,note_on,26,0,3,,,,,,,,,2,,,43,88
40834,note_on,4,0,1,,,,,,,,,0,,,77,0
40834,note_on,0,0,1,,,,,,,,,0,,,71,0
40834,note_on,4,0,3,,,,,,,,,2,,,55,0
40834,note_on,0,0,3,,,,,,,,,2,,,43,0
40860,note_on,0,0,3,,,,,,,,,2,,,55,88
40860,note_on,26,0,3,,,,,,,,,2,,,48,88
40860,note_on,0,0,1,,,,,,,,,0,,,76,88
40860,note_on,26,0,1,,,,,,,,,0,,,72,88
40866,note_on,0,0,3,,,,,,,,,2,,,48,0
40866,note_on,6,0,3,,,,,,,,,2,,,55,0
40866,note_on,0,0,1,,,,,,,,,0,,,72,0
40866,note_on,6,0,1,,,,,,,,,0,,,76,0
40920,note_on,0,0,3,,,,,,,,,2,,,55,88
40920,note_on,54,0,3,,,,,,,,,2,,,50,88
40920,note_on,0,0,1,,,,,,,,,0,,,83,88
40920,note_on,54,0,1,,,,,,,,,0,,,77,88
40924,note_on,0,0,1,,,,,,,,,0,,,77,0
40924,note_on,0,0,3,,,,,,,,,2,,,50,0
40924,note_on,4,0,3,,,,,,,,,2,,,55,0
40924,note_on,4,0,1,,,,,,,,,0,,,83,0
40950,control_change,26,0,3,,,,,,,,,2,64,0,,
40950,control_change,26,0,1,,,,,,,,,0,64,0,,
40950,note_on,0,0,1,,,,,,,,,0,,,83,88
40950,note_on,0,0,1,,,,,,,,,0,,,89,88
40950,note_on,0,0,3,,,,,,,,,2,,,43,88
40950,note_on,0,0,3,,,,,,,,,2,,,55,88
40954,note_on,0,0,1,,,,,,,,,0,,,83,0
40954,note_on,4,0,1,,,,,,,,,0,,,89,0
40954,note_on,0,0,3,,,,,,,,,2,,,43,0
40954,note_on,4,0,3,,,,,,,,,2,,,55,0
40980,note_on,0,0,3,,,,,,,,,2,,,55,88
40980,note_on,0,0,3,,,,,,,,,2,,,48,88
40980,control_change,26,0,1,,,,,,,,,0,64,127,,
40980,note_on,0,0,1,,,,,,,,,0,,,84,88
40980,control_change,26,0,3,,,,,,,,,2,64,127,,
40980,note_on,0,0,1,,,,,,,,,0,,,88,88
40984,note_on,4,0,3,,,,,,,,,2,,,55,0
40984,note_on,0,0,3,,,,,,,,,2,,,48,0
40984,note_on,0,0,1,,,,,,,,,0,,,84,0
40984,note_on,4,0,1,,,,,,,,,0,,,88,0
41010,note_on,26,0,1,,,,,,,,,0,,,76,88
41010,note_on,26,0,3,,,,,,,,,2,,,48,88
41010,note_on,0,0,3,,,,,,,,,2,,,55,88
41010,note_on,0,0,1,,,,,,,,,0,,,84,88
41014,note_on,4,0,1,,,,,,,,,0,,,84,0
41014,note_on,0,0,3,,,,,,,,,2,,,48,0
41014,note_on,0,0,1,,,,,,,,,0,,,76,0
41014,note_on,4,0,3,,,,,,,,,2,,,55,0
41040,note_on,0,0,1,,,,,,,,,0,,,83,88
41040,note_on,26,0,3,,,,,,,,,2,,,50,88
41040,note_on,26,0,1,,,,,,,,,0,,,77,88
41040,note_on,0,0,3,,,,,,,,,2,,,55,88
41044,note_on,0,0,3,,,,,,,,,2,,,50,0
41044,note_on,0,0,1,,,,,,,,,0,,,77,0
41044,note_on,4,0,1,,,,,,,,,0,,,83,0
41044,note_on,4,0,3,,,,,,,,,2,,,55,0
41070,note_on,0,0,3,,,,,,,,,2,,,55,88
41070,note_on,0,0,1,,,,,,,,,0,,,77,88
41070,note_on,26,0,1,,,,,,,,,0,,,71,88
41070,note_on,26,0,3,,,,,,,,,2,,,43,88
41074,note_on,4,0,3,,,,,,,,,2,,,55,0
41074,note_on,0,0,1,,,,,,,,,0,,,71,0
41074,note_on,4,0,1,,,,,,,,,0,,,77,0
41074,note_on,0,0,3,,,,,,,,,2,,,43,0
41100,note_on,26,0,3,,,,,,,,,2,,,48,88
41100,note_on,0,0,3,,,,,,,,,2,,,55,88
41100,note_on,0,0,1,,,,,,,,,0,,,76,88
41100,note_on,26,0,1,,,,,,,,,0,,,72,88
41106,note_on,6,0,3,,,,,,,,,2,,,55,0
41106,note_on,0,0,3,,,,,,,,,2,,,48,0
41106,note_on,0,0,1,,,,,,,,,0,,,72,0
41106,note_on,6,0,1,,,,,,,,,0,,,76,0
41160,note_on,0,0,1,,,,,,,,,0,,,64,88
41160,control_change,54,0,1,,,,,,,,,0,64,0,,
41160,note_on,0,0,1,,,,,,,,,0,,,76,88
41160,note_on,0,0,1,,,,,,,,,0,,,68,88
41160,note_on,0,0,1,,,,,,,,,0,,,74,88
41166,note_on,6,0,1,,,,,,,,,0,,,76,0
41166,note_on,0,0,1,,,,,,,,,0,,,68,0
41166,note_on,0,0,1,,,,,,,,,0,,,74,0
41166,note_on,0,0,1,,,,,,,,,0,,,64,0
41190,control_change,84,0,3,,,,,,,,,2,64,0,,
41190,note_on,0,0,3,,,,,,,,,2,,,35,88
41190,note_on,0,0,3,,,,,,,,,2,,,47,88
41194,note_on,4,0,3,,,,,,,,,2,,,47,0
41194,note_on,0,0,3,,,,,,,,,2,,,35,0
41220,note_on,54,0,1,,,,,,,,,0,,,66,101
41220,note_on,0,0,1,,,,,,,,,0,,,69,101
41220,note_on,0,0,1,,,,,,,,,0,,,74,101
41220,note_on,0,0,1,,,,,,,,,0,,,78,101
41226,note_on,0,0,1,,,,,,,,,0,,,69,0
41226,note_on,6,0,1,,,,,,,,,0,,,78,0
41226,note_on,0,0,1,,,,,,,,,0,,,66,0
41226,note_on,0,0,1,,,,,,,,,0,,,74,0
41250,note_on,56,0,3,,,,,,,,,2,,,40,88
41250,note_on,0,0,3,,,,,,,,,2,,,52,88
41254,note_on,0,0,3,,,,,,,,,2,,,40,0
41254,note_on,4,0,3,,,,,,,,,2,,,52,0
41280,note_on,54,0,1,,,,,,,,,0,,,68,101
41280,note_on,0,0,1,,,,,,,,,0,,,71,101
41280,note_on,0,0,1,,,,,,,,,0,,,76,101
41280,note_on,0,0,1,,,,,,,,,0,,,80,101
41286,note_on,0,0,1,,,,,,,,,0,,,68,0
41286,note_on,0,0,1,,,,,,,,,0,,,76,0
41286,note_on,0,0,1,,,,,,,,,0,,,71,0
41286,note_on,6,0,1,,,,,,,,,0,,,80,0
41310,note_on,0,0,3,,,,,,,,,2,,,50,88
41310,note_on,56,0,3,,,,,,,,,2,,,38,88
41314,note_on,0,0,3,,,,,,,,,2,,,38,0
41314,note_on,4,0,3,,,,,,,,,2,,,50,0
41340,note_on,54,0,1,,,,,,,,,0,,,69,101
41340,note_on,0,0,1,,,,,,,,,0,,,73,101
41340,note_on,0,0,1,,,,,,,,,0,,,76,101
41340,note_on,0,0,1,,,,,,,,,0,,,81,101
41346,note_on,0,0,1,,,,,,,,,0,,,69,0
41346,note_on,6,0,1,,,,,,,,,0,,,81,0
41346,note_on,0,0,1,,,,,,,,,0,,,73,0
41346,note_on,0,0,1,,,,,,,,,0,,,76,0
41370,note_on,56,0,3,,,,,,,,,2,,,37,88
41370,note_on,0,0,3,,,,,,,,,2,,,49,88
41374,note_on,0,0,3,,,,,,,,,2,,,37,0
41374,note_on,4,0,3,,,,,,,,,2,,,49,0
41400,note_on,0,0,1,,,,,,,,,0,,,75,101
41400,note_on,54,0,1,,,,,,,,,0,,,71,101
41400,note_on,0,0,1,,,,,,,,,0,,,83,101
41400,note_on,0,0,1,,,,,,,,,0,,,81,101
41406,note_on,6,0,1,,,,,,,,,0,,,83,0
41406,note_on,0,0,1,,,,,,,,,0,,,71,0
41406,note_on,0,0,1,,,,,,,,,0,,,75,0
41406,note_on,0,0,1,,,,,,,,,0,,,81,0
41430,note_on,0,0,3,,,,,,,,,2,,,54,88
41430,note_on,56,0,3,,,,,,,,,2,,,42,88
41434,note_on,0,0,3,,,,,,,,,2,,,42,0
41434,note_on,4,0,3,,,,,,,,,2,,,54,0
41460,note_on,0,0,3,,,,,,,,,2,,,52,101
41460,note_on,26,0,3,,,,,,,,,2,,,40,101
41460,note_on,54,0,1,,,,,,,,,0,,,73,114
41460,note_on,0,0,1,,,,,,,,,0,,,76,114
41460,note_on,0,0,1,,,,,,,,,0,,,81,114
41460,note_on,0,0,1,,,,,,,,,0,,,85,114
41550,note_on,0,0,1,,,,,,,,,0,,,69,114
41550,note_on,0,0,1,,,,,,,,,0,,,73,0
41550,note_on,0,0,1,,,,,,,,,0,,,76,0
41550,note_on,0,0,1,,,,,,,,,0,,,81,0
41550,note_on,90,0,1,,,,,,,,,0,,,85,0
41580,note_on,0,0,2,,,,,,,,,1,,,64,101
41580,note_on,0,0,2,,,,,,,,,1,,,68,101
41580,note_on,0,0,3,,,,,,,,,2,,,40,0
41580,note_on,0,0,3,,,,,,,,,2,,,52,101
41580,note_on,120,0,3,,,,,,,,,2,,,52,0
41580,note_on,0,0,3,,,,,,,,,2,,,40,101
41580,note_on,0,0,1,,,,,,,,,0,,,73,114
41580,note_on,30,0,1,,,,,,,,,0,,,69,0
41580,note_on,15720,0,2,,,,,,,,,1,,,62,101
41670,note_on,0,0,1,,,,,,,,,0,,,71,114
41670,note_on,90,0,1,,,,,,,,,0,,,73,0
41700,note_on,0,0,3,,,,,,,,,2,,,52,101
41700,note_on,0,0,3,,,,,,,,,2,,,45,101
41700,note_on,0,0,2,,,,,,,,,1,,,64,0
41700,note_on,120,0,3,,,,,,,,,2,,,52,0
41700,note_on,0,0,3,,,,,,,,,2,,,40,0
41700,control_change,0,0,3,,,,,,,,,2,64,127,,
41700,note_on,120,0,2,,,,,,,,,1,,,68,0
41700,note_on,0,0,2,,,,,,,,,1,,,62,0
41700,control_change,0,0,1,,,,,,,,,0,64,127,,
41700,note_on,30,0,1,,,,,,,,,0,,,71,0
41700,note_on,0,0,1,,,,,,,,,0,,,61,114
41700,note_on,0,0,1,,,,,,,,,0,,,64,114
41700,note_on,0,0,1,,,,,,,,,0,,,69,114
41880,note_on,0,0,1,,,,,,,,,0,,,76,49
41880,note_on,180,0,1,,,,,,,,,0,,,69,0
41880,note_on,0,0,1,,,,,,,,,0,,,64,0
41880,note_on,0,0,1,,,,,,,,,0,,,61,0
41880,note_on,180,0,3,,,,,,,,,2,,,52,0
41880,note_on,0,0,3,,,,,,,,,2,,,45,0
41880,note_on,0,0,3,,,,,,,,,2,,,64,36
41910,note_on,30,0,1,,,,,,,,,0,,,76,0
41910,note_on,30,0,3,,,,,,,,,2,,,64,0
41910,note_on,0,0,3,,,,,,,,,2,,,62,36
41910,note_on,0,0,1,,,,,,,,,0,,,74,49
41940,note_on,30,0,3,,,,,,,,,2,,,62,0
41940,note_on,0,0,1,,,,,,,,,0,,,74,49
41940,control_change,0,0,1,,,,,,,,,0,64,0,,
41940,control_change,0,0,3,,,,,,,,,2,64,0,,
41940,note_on,0,0,3,,,,,,,,,2,,,62,36
41940,note_on,30,0,1,,,,,,,,,0,,,74,0
41970,note_on,30,0,3,,,,,,,,,2,,,62,0
41970,note_on,0,0,1,,,,,,,,,0,,,73,49
41970,note_on,30,0,1,,,,,,,,,0,,,74,0
41970,note_on,0,0,3,,,,,,,,,2,,,61,36
42000,note_on,0,0,1,,,,,,,,,0,,,71,49
42000,note_on,30,0,3,,,,,,,,,2,,,61,0
42000,note_on,0,0,3,,,,,,,,,2,,,59,36
42000,note_on,30,0,1,,,,,,,,,0,,,73,0
42030,note_on,30,0,3,,,,,,,,,2,,,59,0
42030,note_on,30,0,1,,,,,,,,,0,,,71,0
42030,note_on,0,0,1,,,,,,,,,0,,,69,49
42030,note_on,0,0,3,,,,,,,,,2,,,57,36
42045,note_on,15,0,1,,,,,,,,,0,,,69,49
42045,note_on,15,0,3,,,,,,,,,2,,,57,36
42060,note_on,15,0,3,,,,,,,,,2,,,57,0
42060,note_on,0,0,3,,,,,,,,,2,,,57,0
42060,note_on,0,0,3,,,,,,,,,2,,,64,62
42060,control_change,0,0,3,,,,,,,,,2,64,127,,
42060,control_change,0,0,1,,,,,,,,,0,64,127,,
42060,note_on,0,0,1,,,,,,,,,0,,,76,75
42060,note_on,0,0,1,,,,,,,,,0,,,69,0
42060,note_on,15,0,1,,,,,,,,,0,,,69,0
42240,note_on,0,0,3,,,,,,,,,2,,,64,36
42240,note_on,180,0,1,,,,,,,,,0,,,76,0
42240,note_on,0,0,1,,,,,,,,,0,,,76,49
42240,note_on,180,0,3,,,,,,,,,2,,,64,0
42270,note_on,0,0,1,,,,,,,,,0,,,74,49
42270,note_on,30,0,1,,,,,,,,,0,,,76,0
42270,note_on,30,0,3,,,,,,,,,2,,,64,0
42270,note_on,0,0,3,,,,,,,,,2,,,62,36
42300,control_change,0,0,1,,,,,,,,,0,64,0,,
42300,note_on,0,0,1,,,,,,,,,0,,,74,49
42300,note_on,30,0,3,,,,,,,,,2,,,62,0
42300,control_change,0,0,3,,,,,,,,,2,64,0,,
42300,note_on,0,0,3,,,,,,,,,2,,,62,36
42300,note_on,30,0,1,,,,,,,,,0,,,74,0
42320,note_on,20,0,3,,,,,,,,,2,,,62,0
42320,note_on,0,0,3,,,,,,,,,2,,,61,36
42320,note_on,0,0,1,,,,,,,,,0,,,73,49
42320,note_on,20,0,1,,,,,,,,,0,,,74,0
42339,note_on,19,0,3,,,,,,,,,2,,,59,36
42339,note_on,19,0,1,,,,,,,,,0,,,71,49
42340,note_on,1,0,3,,,,,,,,,2,,,61,0
42340,note_on,1,0,1,,,,,,,,,0,,,73,0
42359,note_on,19,0,1,,,,,,,,,0,,,71,0
42359,note_on,19,0,3,,,,,,,,,2,,,59,0
42360,note_on,1,0,3,,,,,,,,,2,,,58,36
42360,note_on,1,0,1,,,,,,,,,0,,,70,49
42380,note_on,20,0,3,,,,,,,,,2,,,58,0
42380,note_on,0,0,3,,,,,,,,,2,,,61,36
42380,note_on,0,0,1,,,,,,,,,0,,,73,49
42380,note_on,20,0,1,,,,,,,,,0,,,70,0
42399,note_on,19,0,3,,,,,,,,,2,,,62,36
42399,note_on,19,0,1,,,,,,,,,0,,,74,49
42400,note_on,1,0,3,,,,,,,,,2,,,61,0
42400,note_on,1,0,1,,,,,,,,,0,,,73,0
42409,note_on,9,0,3,,,,,,,,,2,,,62,0
42409,note_on,9,0,1,,,,,,,,,0,,,74,0
42410,note_on,1,0,3,,,,,,,,,2,,,61,36
42410,note_on,1,0,1,,,,,,,,,0,,,73,49
42420,note_on,0,0,1,,,,,,,,,0,,,76,75
42420,note_on,0,0,3,,,,,,,,,2,,,64,62
42420,note_on,10,0,3,,,,,,,,,2,,,61,0
42420,note_on,10,0,1,,,,,,,,,0,,,73,0
42600,note_on,0,0,1,,,,,,,,,0,,,70,49
42600,note_on,180,0,1,,,,,,,,,0,,,76,0
42600,note_on,180,0,3,,,,,,,,,2,,,64,0
42600,note_on,0,0,3,,,,,,,,,2,,,58,36
42630,note_on,0,0,1,,,,,,,,,0,,,76,49
42630,note_on,30,0,3,,,,,,,,,2,,,58,0
42630,note_on,0,0,3,,,,,,,,,2,,,64,36
42630,note_on,30,0,1,,,,,,,,,0,,,70,0
42660,note_on,30,0,1,,,,,,,,,0,,,76,0
42660,note_on,0,0,1,,,,,,,,,0,,,74,49
42660,note_on,30,0,3,,,,,,,,,2,,,64,0
42660,note_on,0,0,3,,,,,,,,,2,,,62,36
42675,note_on,15,0,3,,,,,,,,,2,,,62,0
42675,note_on,0,0,3,,,,,,,,,2,,,64,36
42675,note_on,0,0,1,,,,,,,,,0,,,76,49
42675,note_on,15,0,1,,,,,,,,,0,,,74,0
42690,note_on,0,0,1,,,,,,,,,0,,,74,49
42690,note_on,15,0,3,,,,,,,,,2,,,64,0
42690,note_on,0,0,3,,,,,,,,,2,,,62,36
42690,note_on,15,0,1,,,,,,,,,0,,,76,0
42705,note_on,15,0,1,,,,,,,,,0,,,74,0
42705,note_on,15,0,3,,,,,,,,,2,,,62,0
42705,note_on,0,0,3,,,,,,,,,2,,,61,36
42705,note_on,0,0,1,,,,,,,,,0,,,73,49
42720,note_on,15,0,1,,,,,,,,,0,,,73,0
42720,note_on,0,0,1,,,,,,,,,0,,,71,49
42720,note_on,0,0,3,,,,,,,,,2,,,59,36
42720,note_on,15,0,3,,,,,,,,,2,,,61,0
42735,note_on,15,0,3,,,,,,,,,2,,,59,0
42735,note_on,0,0,1,,,,,,,,,0,,,73,49
42735,note_on,15,0,1,,,,,,,,,0,,,71,0
42735,note_on,0,0,3,,,,,,,,,2,,,61,36
42750,note_on,15,0,3,,,,,,,,,2,,,61,0
42750,note_on,0,0,3,,,,,,,,,2,,,62,36
42750,note_on,15,0,1,,,,,,,,,0,,,73,0
42750,note_on,0,0,1,,,,,,,,,0,,,74,49
42765,note_on,0,0,1,,,,,,,,,0,,,76,49
42765,note_on,0,0,3,,,,,,,,,2,,,64,36
42765,note_on,15,0,3,,,,,,,,,2,,,62,0
42765,note_on,15,0,1,,,,,,,,,0,,,74,0
42780,note_on,15,0,1,,,,,,,,,0,,,76,0
42780,note_on,0,0,3,,,,,,,,,2,,,66,62
42780,note_on,0,0,1,,,,,,,,,0,,,78,75
42780,note_on,15,0,3,,,,,,,,,2,,,64,0
42780,control_change,0,0,1,,,,,,,,,0,64,127,,
42840,note_on,0,0,4,,,,,,,,,3,,,64,49
42840,control_change,7434,0,4,,,,,,,,,3,64,127,,
42840,note_on,0,0,2,,,,,,,,,1,,,70,62
42840,control_change,1140,0,2,,,,,,,,,1,64,127,,
42900,note_on,0,0,4,,,,,,,,,3,,,62,49
42900,note_on,60,0,4,,,,,,,,,3,,,64,0
42900,note_on,0,0,2,,,,,,,,,1,,,71,62
42900,note_on,60,0,2,,,,,,,,,1,,,70,0
42960,note_on,180,0,1,,,,,,,,,0,,,78,0
42960,note_on,0,0,1,,,,,,,,,0,,,82,75
42960,note_on,0,0,3,,,,,,,,,2,,,66,62
42960,note_on,180,0,3,,,,,,,,,2,,,66,0
42960,note_on,60,0,2,,,,,,,,,1,,,71,0
42960,note_on,0,0,2,,,,,,,,,1,,,73,62
42960,note_on,60,0,4,,,,,,,,,3,,,62,0
42960,note_on,0,0,4,,,,,,,,,3,,,61,49
42960,note_on,0,0,4,,,,,,,,,3,,,64,49
43020,control_change,0,0,2,,,,,,,,,1,64,0,,
43020,note_on,0,0,2,,,,,,,,,1,,,74,62
43020,note_on,60,0,2,,,,,,,,,1,,,73,0
43020,note_on,0,0,4,,,,,,,,,3,,,61,0
43020,note_on,0,0,4,,,,,,,,,3,,,66,49
43020,note_on,0,0,1,,,,,,,,,0,,,83,75
43020,control_change,0,0,1,,,,,,,,,0,64,0,,
43020,note_on,60,0,1,,,,,,,,,0,,,82,0
43020,note_on,0,0,4,,,,,,,,,3,,,59,49
43020,note_on,0,0,4,,,,,,,,,3,,,62,49
43020,note_on,60,0,3,,,,,,,,,2,,,66,0
43020,control_change,0,0,4,,,,,,,,,3,64,0,,
43020,note_on,60,0,4,,,,,,,,,3,,,64,0
43080,note_on,0,0,2,,,,,,,,,1,,,71,62
43080,note_on,60,0,2,,,,,,,,,1,,,74,0
43080,note_on,0,0,4,,,,,,,,,3,,,62,49
43080,note_on,0,0,4,,,,,,,,,3,,,59,0
43080,note_on,0,0,4,,,,,,,,,3,,,62,0
43080,note_on,60,0,4,,,,,,,,,3,,,66,0
43080,note_on,60,0,1,,,,,,,,,0,,,83,0
43080,note_on,0,0,1,,,,,,,,,0,,,78,75
43110,note_on,30,0,1,,,,,,,,,0,,,78,0
43110,note_on,0,0,1,,,,,,,,,0,,,74,75
43140,note_on,30,0,1,,,,,,,,,0,,,74,0
43140,control_change,0,0,1,,,,,,,,,0,64,127,,
43140,control_change,120,0,3,,,,,,,,,2,64,127,,
43140,note_on,60,0,2,,,,,,,,,1,,,71,0
43140,note_on,0,0,1,,,,,,,,,0,,,73,101
43140,note_on,60,0,4,,,,,,,,,3,,,62,0
43140,note_on,0,0,1,,,,,,,,,0,,,69,93
43140,note_on,0,0,3,,,,,,,,,2,,,63,88
43260,note_on,120,0,1,,,,,,,,,0,,,73,0
43260,note_on,0,0,1,,,,,,,,,0,,,69,0
43260,note_on,0,0,1,,,,,,,,,0,,,68,75
43260,note_on,120,0,3,,,,,,,,,2,,,63,0
43260,note_on,0,0,3,,,,,,,,,2,,,64,62
43260,note_on,0,0,1,,,,,,,,,0,,,71,75
43320,note_on,60,0,3,,,,,,,,,2,,,64,0
43320,note_on,0,0,3,,,,,,,,,2,,,52,62
43320,note_on,0,0,1,,,,,,,,,0,,,68,0
43320,note_on,0,0,1,,,,,,,,,0,,,64,75
43320,note_on,60,0,1,,,,,,,,,0,,,71,0
43350,note_on,0,0,1,,,,,,,,,0,,,63,75
43350,note_on,30,0,1,,,,,,,,,0,,,64,0
43350,note_on,30,0,3,,,,,,,,,2,,,52,0
43350,note_on,0,0,3,,,,,,,,,2,,,51,62
43380,note_on,30,0,3,,,,,,,,,2,,,51,0
43380,note_on,0,0,3,,,,,,,,,2,,,52,62
43380,note_on,0,0,1,,,,,,,,,0,,,64,75
43380,note_on,30,0,1,,,,,,,,,0,,,63,0
43410,note_on,30,0,1,,,,,,,,,0,,,64,0
43410,note_on,0,0,1,,,,,,,,,0,,,59,75
43410,note_on,30,0,3,,,,,,,,,2,,,52,0
43410,note_on,0,0,3,,,,,,,,,2,,,47,62
43425,note_on,0,0,1,,,,,,,,,0,,,57,75
43425,note_on,15,0,1,,,,,,,,,0,,,59,0
43425,note_on,15,0,3,,,,,,,,,2,,,47,0
43425,note_on,0,0,3,,,,,,,,,2,,,45,62
43432,note_on,7,0,1,,,,,,,,,0,,,59,75
43432,note_on,7,0,3,,,,,,,,,2,,,47,62
43433,note_on,1,0,3,,,,,,,,,2,,,45,0
43433,note_on,1,0,1,,,,,,,,,0,,,57,0
43440,note_on,7,0,3,,,,,,,,,2,,,47,0
43440,note_on,0,0,3,,,,,,,,,2,,,45,62
43440,note_on,7,0,1,,,,,,,,,0,,,59,0
43440,note_on,0,0,1,,,,,,,,,0,,,57,75
43470,note_on,30,0,3,,,,,,,,,2,,,45,0
43470,note_on,0,0,3,,,,,,,,,2,,,44,62
43470,note_on,0,0,1,,,,,,,,,0,,,56,75
43470,note_on,30,0,1,,,,,,,,,0,,,57,0
43485,note_on,15,0,1,,,,,,,,,0,,,56,0
43485,note_on,15,0,3,,,,,,,,,2,,,44,0
43485,control_change,0,0,3,,,,,,,,,2,64,0,,
43485,control_change,0,0,1,,,,,,,,,0,64,0,,
43485,note_on,0,0,3,,,,,,,,,2,,,44,62
43485,note_on,0,0,1,,,,,,,,,0,,,56,75
43500,note_on,15,0,3,,,,,,,,,2,,,44,0
43500,control_change,0,0,1,,,,,,,,,0,64,127,,
43500,note_on,0,0,1,,,,,,,,,0,,,64,75
43500,control_change,0,0,3,,,,,,,,,2,64,127,,
43500,note_on,0,0,3,,,,,,,,,2,,,52,62
43500,note_on,15,0,1,,,,,,,,,0,,,56,0
43506,note_on,6,0,3,,,,,,,,,2,,,52,0
43506,note_on,6,0,1,,,,,,,,,0,,,64,0
43560,note_on,54,0,1,,,,,,,,,0,,,64,101
43560,note_on,54,0,3,,,,,,,,,2,,,52,88
43680,note_on,0,0,1,,,,,,,,,0,,,64,75
43680,note_on,120,0,3,,,,,,,,,2,,,52,0
43680,note_on,0,0,3,,,,,,,,,2,,,52,62
43680,note_on,120,0,1,,,,,,,,,0,,,64,0
43710,note_on,30,0,1,,,,,,,,,0,,,64,0
43710,note_on,0,0,1,,,,,,,,,0,,,63,75
43710,note_on,30,0,3,,,,,,,,,2,,,52,0
43710,note_on,0,0,3,,,,,,,,,2,,,51,62
43740,note_on,30,0,3,,,,,,,,,2,,,51,0
43740,note_on,0,0,1,,,,,,,,,0,,,64,75
43740,control_change,0,0,1,,,,,,,,,0,64,0,,
43740,note_on,30,0,1,,,,,,,,,0,,,63,0
43740,control_change,0,0,3,,,,,,,,,2,64,0,,
43740,note_on,0,0,3,,,,,,,,,2,,,52,62
43770,note_on,30,0,1,,,,,,,,,0,,,64,0
43770,note_on,30,0,3,,,,,,,,,2,,,52,0
43770,note_on,0,0,3,,,,,,,,,2,,,48,62
43770,note_on,0,0,1,,,,,,,,,0,,,60,75
43785,note_on,15,0,1,,,,,,,,,0,,,60,0
43785,note_on,0,0,1,,,,,,,,,0,,,59,75
43785,note_on,0,0,3,,,,,,,,,2,,,47,62
43785,note_on,15,0,3,,,,,,,,,2,,,48,0
43792,note_on,7,0,1,,,,,,,,,0,,,60,75
43792,note_on,7,0,3,,,,,,,,,2,,,48,62
43793,note_on,1,0,3,,,,,,,,,2,,,47,0
43793,note_on,1,0,1,,,,,,,,,0,,,59,0
43800,note_on,7,0,1,,,,,,,,,0,,,60,0
43800,note_on,0,0,1,,,,,,,,,0,,,59,75
43800,note_on,7,0,3,,,,,,,,,2,,,48,0
43800,note_on,0,0,3,,,,,,,,,2,,,47,62
43830,note_on,30,0,1,,,,,,,,,0,,,59,0
43830,note_on,0,0,1,,,,,,,,,0,,,57,75
43830,note_on,0,0,3,,,,,,,,,2,,,45,62
43830,note_on,30,0,3,,,,,,,,,2,,,47,0
43845,note_on,15,0,3,,,,,,,,,2,,,45,0
43845,note_on,0,0,3,,,,,,,,,2,,,45,62
43845,note_on,15,0,1,,,,,,,,,0,,,57,0
43845,note_on,0,0,1,,,,,,,,,0,,,57,75
43860,control_change,0,0,1,,,,,,,,,0,64,127,,
43860,note_on,15,0,3,,,,,,,,,2,,,45,0
43860,control_change,0,0,3,,,,,,,,,2,64,127,,
43860,note_on,0,0,3,,,,,,,,,2,,,53,62
43860,note_on,0,0,1,,,,,,,,,0,,,65,75
43860,note_on,15,0,1,,,,,,,,,0,,,57,0
43866,note_on,6,0,3,,,,,,,,,2,,,53,0
43866,note_on,6,0,1,,,,,,,,,0,,,65,0
43920,note_on,54,0,3,,,,,,,,,2,,,53,62
43920,note_on,54,0,1,,,,,,,,,0,,,65,101
44040,note_on,120,0,1,,,,,,,,,0,,,65,0
44040,note_on,0,0,1,,,,,,,,,0,,,65,75
44040,note_on,120,0,3,,,,,,,,,2,,,53,0
44040,note_on,0,0,3,,,,,,,,,2,,,53,62
44070,note_on,0,0,1,,,,,,,,,0,,,64,75
44070,control_change,0,0,1,,,,,,,,,0,64,0,,
44070,note_on,30,0,1,,,,,,,,,0,,,65,0
44070,control_change,0,0,3,,,,,,,,,2,64,0,,
44070,note_on,30,0,3,,,,,,,,,2,,,53,0
44070,note_on,0,0,3,,,,,,,,,2,,,52,62
44100,note_on,0,0,1,,,,,,,,,0,,,65,75
44100,note_on,30,0,1,,,,,,,,,0,,,64,0
44100,note_on,30,0,3,,,,,,,,,2,,,52,0
44100,note_on,0,0,3,,,,,,,,,2,,,53,62
44130,note_on,0,0,3,,,,,,,,,2,,,50,62
44130,note_on,30,0,3,,,,,,,,,2,,,53,0
44130,note_on,30,0,1,,,,,,,,,0,,,65,0
44130,note_on,0,0,1,,,,,,,,,0,,,62,75
44145,note_on,0,0,1,,,,,,,,,0,,,60,75
44145,note_on,15,0,3,,,,,,,,,2,,,50,0
44145,note_on,0,0,3,,,,,,,,,2,,,48,62
44145,note_on,15,0,1,,,,,,,,,0,,,62,0
44152,note_on,7,0,3,,,,,,,,,2,,,50,62
44152,note_on,7,0,1,,,,,,,,,0,,,62,75
44153,note_on,1,0,3,,,,,,,,,2,,,48,0
44153,note_on,1,0,1,,,,,,,,,0,,,60,0
44160,note_on,7,0,3,,,,,,,,,2,,,50,0
44160,note_on,7,0,1,,,,,,,,,0,,,62,0
44160,note_on,0,0,1,,,,,,,,,0,,,60,75
44160,note_on,0,0,3,,,,,,,,,2,,,48,62
44190,note_on,30,0,3,,,,,,,,,2,,,48,0
44190,note_on,0,0,3,,,,,,,,,2,,,47,62
44190,note_on,30,0,1,,,,,,,,,0,,,60,0
44190,note_on,0,0,1,,,,,,,,,0,,,59,75
44205,note_on,0,0,3,,,,,,,,,2,,,47,62
44205,note_on,15,0,1,,,,,,,,,0,,,59,0
44205,note_on,0,0,1,,,,,,,,,0,,,59,75
44205,note_on,15,0,3,,,,,,,,,2,,,47,0
44220,control_change,0,0,1,,,,,,,,,0,64,127,,
44220,note_on,0,0,3,,,,,,,,,2,,,55,88
44220,control_change,0,0,3,,,,,,,,,2,64,127,,
44220,note_on,15,0,3,,,,,,,,,2,,,47,0
44220,note_on,15,0,1,,,,,,,,,0,,,59,0
44220,note_on,0,0,1,,,,,,,,,0,,,67,101
44280,note_on,0,0,3,,,,,,,,,2,,,53,62
44280,note_on,60,0,3,,,,,,,,,2,,,55,0
44280,note_on,0,0,3,,,,,,,,,2,,,55,62
44280,note_on,0,0,1,,,,,,,,,0,,,71,75
44280,note_on,0,0,1,,,,,,,,,0,,,67,75
44280,note_on,0,0,1,,,,,,,,,0,,,62,75
44280,note_on,60,0,1,,,,,,,,,0,,,67,0
44340,note_on,0,0,3,,,,,,,,,2,,,53,0
44340,note_on,0,0,3,,,,,,,,,2,,,52,62
44340,note_on,0,0,3,,,,,,,,,2,,,55,62
44340,note_on,60,0,3,,,,,,,,,2,,,55,0
44340,note_on,0,0,1,,,,,,,,,0,,,67,0
44340,note_on,0,0,1,,,,,,,,,0,,,72,75
44340,note_on,60,0,1,,,,,,,,,0,,,71,0
44340,note_on,0,0,1,,,,,,,,,0,,,60,75
44340,note_on,0,0,1,,,,,,,,,0,,,67,75
44340,note_on,0,0,1,,,,,,,,,0,,,62,0
44400,control_change,0,0,3,,,,,,,,,2,64,0,,
44400,note_on,0,0,3,,,,,,,,,2,,,52,0
44400,note_on,60,0,3,,,,,,,,,2,,,55,0
44400,note_on,0,0,3,,,,,,,,,2,,,55,62
44400,control_change,0,0,1,,,,,,,,,0,64,0,,
44400,note_on,60,0,1,,,,,,,,,0,,,72,0
44400,note_on,0,0,1,,,,,,,,,0,,,67,0
44400,note_on,0,0,1,,,,,,,,,0,,,60,0
44400,note_on,0,0,1,,,,,,,,,0,,,62,75
44400,note_on,0,0,1,,,,,,,,,0,,,67,75
44400,note_on,0,0,3,,,,,,,,,2,,,47,62
44400,note_on,0,0,1,,,,,,,,,0,,,74,75
44460,note_on,60,0,3,,,,,,,,,2,,,55,0
44460,note_on,0,0,2,,,,,,,,,1,,,67,62
44460,note_on,0,0,3,,,,,,,,,2,,,48,62
44460,note_on,0,0,3,,,,,,,,,2,,,55,62
44460,note_on,1320,0,2,,,,,,,,,1,,,64,62
44460,note_on,0,0,1,,,,,,,,,0,,,76,75
44460,note_on,0,0,1,,,,,,,,,0,,,62,0
44460,note_on,0,0,1,,,,,,,,,0,,,67,0
44460,note_on,60,0,1,,,,,,,,,0,,,74,0
44460,note_on,0,0,3,,,,,,,,,2,,,47,0
44520,note_on,60,0,3,,,,,,,,,2,,,55,0
44520,note_on,0,0,3,,,,,,,,,2,,,48,0
44520,note_on,0,0,3,,,,,,,,,2,,,55,62
44520,note_on,0,0,1,,,,,,,,,0,,,79,75
44520,note_on,60,0,1,,,,,,,,,0,,,76,0
44520,note_on,0,0,2,,,,,,,,,1,,,71,62
44520,note_on,0,0,2,,,,,,,,,1,,,67,62
44520,note_on,0,0,2,,,,,,,,,1,,,64,0
44520,note_on,0,0,3,,,,,,,,,2,,,50,62
44520,note_on,60,0,2,,,,,,,,,1,,,67,0
44550,note_on,0,0,1,,,,,,,,,0,,,77,75
44550,note_on,30,0,1,,,,,,,,,0,,,79,0
44580,note_on,0,0,1,,,,,,,,,0,,,71,75
44580,note_on,0,0,3,,,,,,,,,2,,,55,62
44580,note_on,0,0,3,,,,,,,,,2,,,50,62
44580,control_change,0,0,3,,,,,,,,,2,64,127,,
44580,note_on,0,0,3,,,,,,,,,2,,,50,0
44580,note_on,60,0,3,,,,,,,,,2,,,55,0
44580,note_on,0,0,2,,,,,,,,,1,,,67,0
44580,note_on,30,0,1,,,,,,,,,0,,,77,0
44580,control_change,0,0,1,,,,,,,,,0,64,127,,
44580,note_on,0,0,1,,,,,,,,,0,,,67,75
44580,note_on,60,0,2,,,,,,,,,1,,,71,0
44580,note_on,0,0,1,,,,,,,,,0,,,77,75
44700,note_on,0,0,3,,,,,,,,,2,,,48,62
44700,note_on,0,0,1,,,,,,,,,0,,,71,0
44700,note_on,120,0,1,,,,,,,,,0,,,77,0
44700,note_on,120,0,3,,,,,,,,,2,,,50,0
44700,note_on,0,0,1,,,,,,,,,0,,,76,75
44700,note_on,0,0,1,,,,,,,,,0,,,72,75
44760,note_on,0,0,3,,,,,,,,,2,,,55,75
44760,note_on,0,0,3,,,,,,,,,2,,,43,75
44760,note_on,0,0,3,,,,,,,,,2,,,55,0
44760,note_on,60,0,3,,,,,,,,,2,,,48,0
44760,note_on,0,0,1,,,,,,,,,0,,,79,88
44760,note_on,0,0,1,,,,,,,,,0,,,76,88
44760,note_on,0,0,1,,,,,,,,,0,,,67,88
44760,note_on,0,0,1,,,,,,,,,0,,,67,0
44760,note_on,0,0,1,,,,,,,,,0,,,72,0
44760,note_on,60,0,1,,,,,,,,,0,,,76,0
44820,note_on,60,0,1,,,,,,,,,0,,,79,0
44820,note_on,0,0,1,,,,,,,,,0,,,67,0
44820,note_on,0,0,1,,,,,,,,,0,,,72,88
44820,note_on,0,0,1,,,,,,,,,0,,,79,88
44820,control_change,0,0,1,,,,,,,,,0,64,0,,
44820,note_on,0,0,3,,,,,,,,,2,,,57,75
44820,note_on,0,0,3,,,,,,,,,2,,,45,75
44820,control_change,0,0,3,,,,,,,,,2,64,0,,
44820,note_on,60,0,3,,,,,,,,,2,,,43,0
44820,note_on,0,0,1,,,,,,,,,0,,,76,0
44820,note_on,0,0,1,,,,,,,,,0,,,84,88
44880,note_on,0,0,3,,,,,,,,,2,,,55,0
44880,note_on,0,0,3,,,,,,,,,2,,,45,0
44880,note_on,60,0,3,,,,,,,,,2,,,57,0
44880,note_on,0,0,3,,,,,,,,,2,,,59,75
44880,note_on,0,0,3,,,,,,,,,2,,,55,75
44880,note_on,0,0,1,,,,,,,,,0,,,79,88
44880,note_on,0,0,3,,,,,,,,,2,,,47,75
44880,note_on,0,0,1,,,,,,,,,0,,,86,88
44880,note_on,0,0,1,,,,,,,,,0,,,74,88
44880,note_on,0,0,1,,,,,,,,,0,,,72,0
44880,note_on,0,0,1,,,,,,,,,0,,,79,0
44880,note_on,60,0,1,,,,,,,,,0,,,84,0
44886,note_on,0,0,3,,,,,,,,,2,,,55,0
44886,note_on,0,0,1,,,,,,,,,0,,,74,0
44886,note_on,0,0,1,,,,,,,,,0,,,79,0
44886,note_on,6,0,1,,,,,,,,,0,,,86,0
44886,note_on,6,0,3,,,,,,,,,2,,,59,0
44886,note_on,0,0,3,,,,,,,,,2,,,47,0
44940,note_on,0,0,1,,,,,,,,,0,,,76,114
44940,note_on,0,0,3,,,,,,,,,2,,,60,101
44940,note_on,0,0,3,,,,,,,,,2,,,55,101
44940,note_on,0,0,3,,,,,,,,,2,,,48,101
44940,control_change,54,0,1,,,,,,,,,0,64,127,,
44940,note_on,0,0,1,,,,,,,,,0,,,88,114
44940,control_change,54,0,3,,,,,,,,,2,64,127,,
44940,note_on,0,0,1,,,,,,,,,0,,,79,114
45000,note_on,0,0,1,,,,,,,,,0,,,76,114
45000,note_on,0,0,1,,,,,,,,,0,,,76,0
45000,note_on,0,0,1,,,,,,,,,0,,,79,0
45000,note_on,60,0,1,,,,,,,,,0,,,88,0
45000,note_on,0,0,3,,,,,,,,,2,,,55,101
45000,note_on,60,0,3,,,,,,,,,2,,,60,0
45000,note_on,0,0,1,,,,,,,,,0,,,79,114
45000,note_on,0,0,3,,,,,,,,,2,,,55,0
45000,note_on,0,0,3,,,,,,,,,2,,,48,0
45000,note_on,0,0,3,,,,,,,,,2,,,48,101
45000,note_on,0,0,3,,,,,,,,,2,,,60,101
45000,note_on,0,0,1,,,,,,,,,0,,,88,114
45120,note_on,0,0,1,,,,,,,,,0,,,84,49
45120,note_on,0,0,1,,,,,,,,,0,,,79,0
45120,note_on,0,0,1,,,,,,,,,0,,,76,0
45120,note_on,0,0,1,,,,,,,,,0,,,72,49
45120,note_on,0,0,1,,,,,,,,,0,,,76,49
45120,note_on,120,0,3,,,,,,,,,2,,,60,0
45120,note_on,0,0,3,,,,,,,,,2,,,55,0
45120,note_on,0,0,3,,,,,,,,,2,,,48,0
45120,note_on,120,0,1,,,,,,,,,0,,,88,0
45120,note_on,0,0,3,,,,,,,,,2,,,64,36
45120,note_on,0,0,3,,,,,,,,,2,,,60,36
45120,note_on,0,0,3,,,,,,,,,2,,,52,36
45180,note_on,60,0,1,,,,,,,,,0,,,84,0
45180,note_on,0,0,1,,,,,,,,,0,,,79,49
45180,note_on,0,0,3,,,,,,,,,2,,,55,36
45180,note_on,60,0,3,,,,,,,,,2,,,52,0
45240,note_on,0,0,3,,,,,,,,,2,,,60,0
45240,note_on,0,0,3,,,,,,,,,2,,,59,36
45240,note_on,0,0,3,,,,,,,,,2,,,55,36
45240,note_on,0,0,3,,,,,,,,,2,,,62,36
45240,control_change,0,0,3,,,,,,,,,2,64,0,,
45240,note_on,60,0,3,,,,,,,,,2,,,55,0
45240,note_on,0,0,3,,,,,,,,,2,,,64,0
45240,note_on,60,0,1,,,,,,,,,0,,,79,0
45240,note_on,0,0,1,,,,,,,,,0,,,76,0
45240,note_on,0,0,1,,,,,,,,,0,,,72,0
45240,note_on,0,0,1,,,,,,,,,0,,,71,49
45240,note_on,0,0,1,,,,,,,,,0,,,74,49
45240,note_on,0,0,1,,,,,,,,,0,,,77,49
45240,control_change,0,0,1,,,,,,,,,0,64,0,,
45300,note_on,0,0,3,,,,,,,,,2,,,57,75
45300,note_on,60,0,3,,,,,,,,,2,,,62,0
45300,note_on,0,0,3,,,,,,,,,2,,,59,0
45300,note_on,0,0,3,,,,,,,,,2,,,55,0
45300,note_on,60,0,1,,,,,,,,,0,,,77,0
45300,note_on,0,0,1,,,,,,,,,0,,,74,0
45300,control_change,0,0,3,,,,,,,,,2,64,127,,
45300,note_on,0,0,1,,,,,,,,,0,,,71,0
45300,note_on,0,0,1,,,,,,,,,0,,,76,88
45300,control_change,0,0,1,,,,,,,,,0,64,127,,
45300,note_on,0,0,3,,,,,,,,,2,,,60,75
45300,note_on,0,0,1,,,,,,,,,0,,,72,88
45360,note_on,60,0,1,,,,,,,,,0,,,76,0
45360,note_on,0,0,1,,,,,,,,,0,,,72,0
45360,note_on,0,0,1,,,,,,,,,0,,,72,67
45360,note_on,0,0,3,,,,,,,,,2,,,60,62
45360,note_on,0,0,3,,,,,,,,,2,,,57,54
45360,note_on,0,0,3,,,,,,,,,2,,,57,0
45360,note_on,60,0,3,,,,,,,,,2,,,60,0
45360,note_on,0,0,1,,,,,,,,,0,,,76,75
45480,note_on,0,0,1,,,,,,,,,0,,,74,36
45480,note_on,0,0,1,,,,,,,,,0,,,67,36
45480,note_on,0,0,1,,,,,,,,,0,,,65,36
45480,note_on,120,0,1,,,,,,,,,0,,,76,0
45480,note_on,0,0,3,,,,,,,,,2,,,57,0
45480,note_on,0,0,1,,,,,,,,,0,,,72,0
45480,note_on,120,0,3,,,,,,,,,2,,,60,0
45480,note_on,0,0,3,,,,,,,,,2,,,47,36
45480,note_on,0,0,3,,,,,,,,,2,,,55,36
45540,note_on,0,0,1,,,,,,,,,0,,,64,36
45540,note_on,0,0,1,,,,,,,,,0,,,72,36
45540,control_change,0,0,1,,,,,,,,,0,64,0,,
45540,note_on,60,0,3,,,,,,,,,2,,,47,0
45540,control_change,0,0,3,,,,,,,,,2,64,0,,
45540,note_on,0,0,3,,,,,,,,,2,,,48,36
45540,note_on,0,0,1,,,,,,,,,0,,,65,0
45540,note_on,60,0,1,,,,,,,,,0,,,74,0
45600,note_on,0,0,3,,,,,,,,,2,,,50,36
45600,note_on,60,0,1,,,,,,,,,0,,,72,0
45600,note_on,0,0,1,,,,,,,,,0,,,64,0
45600,note_on,0,0,1,,,,,,,,,0,,,67,0
45600,note_on,0,0,1,,,,,,,,,0,,,59,36
45600,note_on,0,0,1,,,,,,,,,0,,,67,36
45600,note_on,0,0,3,,,,,,,,,2,,,55,36
45600,note_on,0,0,3,,,,,,,,,2,,,55,0
45600,note_on,60,0,3,,,,,,,,,2,,,48,0
45660,note_on,0,0,3,,,,,,,,,2,,,50,0
45660,note_on,60,0,3,,,,,,,,,2,,,55,0
45660,note_on,0,0,3,,,,,,,,,2,,,55,36
45660,note_on,0,0,3,,,,,,,,,2,,,48,36
45660,note_on,0,0,1,,,,,,,,,0,,,60,36
45660,note_on,0,0,1,,,,,,,,,0,,,59,0
45660,note_on,60,0,1,,,,,,,,,0,,,67,0
45660,note_on,0,0,1,,,,,,,,,0,,,64,36
45666,note_on,0,0,3,,,,,,,,,2,,,48,0
45666,note_on,6,0,1,,,,,,,,,0,,,64,0
45666,note_on,0,0,1,,,,,,,,,0,,,60,0
45666,note_on,6,0,3,,,,,,,,,2,,,55,0
45720,note_on,0,0,1,,,,,,,,,0,,,64,62
45720,note_on,54,0,3,,,,,,,,,2,,,48,54
45720,note_on,0,0,3,,,,,,,,,2,,,55,62
45720,note_on,54,0,1,,,,,,,,,0,,,60,54
45840,note_on,120,0,3,,,,,,,,,2,,,55,0
45840,note_on,0,0,3,,,,,,,,,2,,,55,36
45840,note_on,2700,0,4,,,,,,,,,3,,,48,36
45840,note_on,0,0,3,,,,,,,,,2,,,48,0
45840,note_on,120,0,1,,,,,,,,,0,,,64,0
45840,note_on,0,0,1,,,,,,,,,0,,,60,0
45840,note_on,0,0,1,,,,,,,,,0,,,60,36
45840,note_on,0,0,1,,,,,,,,,0,,,64,36
45870,note_on,0,0,4,,,,,,,,,3,,,43,36
45870,note_on,0,0,1,,,,,,,,,0,,,62,36
45870,note_on,0,0,1,,,,,,,,,0,,,59,36
45870,note_on,30,0,4,,,,,,,,,3,,,48,0
45870,note_on,30,0,1,,,,,,,,,0,,,64,0
45870,note_on,0,0,1,,,,,,,,,0,,,60,0
45900,note_on,60,0,3,,,,,,,,,2,,,55,0
45900,note_on,0,0,3,,,,,,,,,2,,,55,36
45900,note_on,30,0,1,,,,,,,,,0,,,62,0
45900,note_on,0,0,1,,,,,,,,,0,,,59,0
45900,note_on,0,0,1,,,,,,,,,0,,,59,36
45900,note_on,0,0,1,,,,,,,,,0,,,62,36
45900,note_on,30,0,4,,,,,,,,,3,,,43,0
45900,note_on,0,0,4,,,,,,,,,3,,,43,36
45930,note_on,30,0,4,,,,,,,,,3,,,43,0
45930,note_on,0,0,4,,,,,,,,,3,,,48,36
45930,note_on,0,0,1,,,,,,,,,0,,,64,36
45930,note_on,0,0,1,,,,,,,,,0,,,60,36
45930,note_on,0,0,1,,,,,,,,,0,,,59,0
45930,note_on,30,0,1,,,,,,,,,0,,,62,0
45960,note_on,60,0,3,,,,,,,,,2,,,55,0
45960,note_on,0,0,3,,,,,,,,,2,,,55,36
45960,note_on,30,0,4,,,,,,,,,3,,,48,0
45960,note_on,0,0,4,,,,,,,,,3,,,48,36
45960,note_on,30,0,1,,,,,,,,,0,,,64,0
45960,note_on,0,0,1,,,,,,,,,0,,,60,0
45960,note_on,0,0,1,,,,,,,,,0,,,60,36
45960,note_on,0,0,1,,,,,,,,,0,,,64,36
45990,note_on,0,0,1,,,,,,,,,0,,,59,36
45990,note_on,0,0,1,,,,,,,,,0,,,60,0
45990,note_on,30,0,1,,,,,,,,,0,,,64,0
45990,note_on,30,0,4,,,,,,,,,3,,,48,0
45990,note_on,0,0,4,,,,,,,,,3,,,50,36
45990,note_on,0,0,1,,,,,,,,,0,,,65,36
46020,control_change,0,0,3,,,,,,,,,2,64,127,,
46020,note_on,60,0,3,,,,,,,,,2,,,55,0
46020,note_on,0,0,3,,,,,,,,,2,,,55,36
46020,note_on,0,0,3,,,,,,,,,2,,,48,36
46020,control_change,0,0,1,,,,,,,,,0,64,127,,
46020,note_on,30,0,1,,,,,,,,,0,,,65,0
46020,note_on,0,0,1,,,,,,,,,0,,,60,36
46020,note_on,0,0,1,,,,,,,,,0,,,59,0
46020,note_on,0,0,1,,,,,,,,,0,,,64,36
46020,note_on,30,0,4,,,,,,,,,3,,,50,0
46080,note_on,60,0,3,,,,,,,,,2,,,55,0
46080,note_on,0,0,3,,,,,,,,,2,,,48,0
46080,note_on,0,0,3,,,,,,,,,2,,,67,36
46080,note_on,60,0,1,,,,,,,,,0,,,64,0
46080,note_on,0,0,1,,,,,,,,,0,,,60,0
46080,note_on,0,0,1,,,,,,,,,0,,,72,36
46080,note_on,0,0,1,,,,,,,,,0,,,76,36
46080,note_on,60,0,4,,,,,,,,,3,,,60,36
46110,note_on,0,0,4,,,,,,,,,3,,,55,36
46110,note_on,30,0,4,,,,,,,,,3,,,60,0
46110,note_on,0,0,1,,,,,,,,,0,,,72,0
46110,note_on,0,0,1,,,,,,,,,0,,,74,36
46110,note_on,0,0,1,,,,,,,,,0,,,71,36
46110,note_on,30,0,1,,,,,,,,,0,,,76,0
46140,control_change,0,0,3,,,,,,,,,2,64,0,,
46140,note_on,30,0,4,,,,,,,,,3,,,55,0
46140,note_on,60,0,3,,,,,,,,,2,,,67,0
46140,note_on,0,0,3,,,,,,,,,2,,,67,36
46140,note_on,0,0,4,,,,,,,,,3,,,55,36
46140,control_change,0,0,1,,,,,,,,,0,64,0,,
46140,note_on,30,0,1,,,,,,,,,0,,,74,0
46140,note_on,0,0,1,,,,,,,,,0,,,74,36
46140,note_on,0,0,1,,,,,,,,,0,,,71,0
46140,note_on,1560,0,2,,,,,,,,,1,,,71,36
46170,note_on,30,0,4,,,,,,,,,3,,,55,0
46170,note_on,30,0,1,,,,,,,,,0,,,74,0
46170,note_on,0,0,1,,,,,,,,,0,,,76,36
46170,note_on,30,0,2,,,,,,,,,1,,,71,0
46170,note_on,0,0,2,,,,,,,,,1,,,72,36
46170,note_on,0,0,4,,,,,,,,,3,,,60,36
46200,note_on,0,0,2,,,,,,,,,1,,,71,36
46200,note_on,60,0,3,,,,,,,,,2,,,67,0
46200,note_on,0,0,4,,,,,,,,,3,,,64,36
46200,note_on,0,0,1,,,,,,,,,0,,,79,36
46200,note_on,30,0,1,,,,,,,,,0,,,76,0
46200,note_on,30,0,4,,,,,,,,,3,,,60,0
46200,note_on,30,0,2,,,,,,,,,1,,,72,0
46200,note_on,0,0,3,,,,,,,,,2,,,67,36
46230,note_on,30,0,4,,,,,,,,,3,,,64,0
46230,note_on,0,0,1,,,,,,,,,0,,,77,36
46230,note_on,30,0,1,,,,,,,,,0,,,79,0
46230,note_on,0,0,4,,,,,,,,,3,,,62,36
46260,note_on,0,0,1,,,,,,,,,0,,,76,36
46260,note_on,0,0,2,,,,,,,,,1,,,72,36
46260,note_on,60,0,2,,,,,,,,,1,,,71,0
46260,note_on,60,0,3,,,,,,,,,2,,,67,0
46260,note_on,30,0,1,,,,,,,,,0,,,77,0
46260,note_on,0,0,3,,,,,,,,,2,,,67,36
46260,note_on,0,0,4,,,,,,,,,3,,,60,36
46260,note_on,30,0,4,,,,,,,,,3,,,62,0
46320,note_on,0,0,4,,,,,,,,,3,,,48,36
46320,note_on,60,0,4,,,,,,,,,3,,,60,0
46320,note_on,60,0,1,,,,,,,,,0,,,76,0
46320,note_on,0,0,1,,,,,,,,,0,,,64,36
46320,note_on,0,0,1,,,,,,,,,0,,,60,36
46320,note_on,0,0,3,,,,,,,,,2,,,55,36
46320,note_on,60,0,3,,,,,,,,,2,,,67,0
46320,note_on,60,0,2,,,,,,,,,1,,,72,0
46350,note_on,30,0,1,,,,,,,,,0,,,64,0
46350,note_on,0,0,1,,,,,,,,,0,,,60,0
46350,note_on,0,0,1,,,,,,,,,0,,,62,36
46350,note_on,0,0,4,,,,,,,,,3,,,43,36
46350,note_on,30,0,4,,,,,,,,,3,,,48,0
46350,note_on,0,0,1,,,,,,,,,0,,,59,36
46380,note_on,0,0,1,,,,,,,,,0,,,62,36
46380,note_on,0,0,1,,,,,,,,,0,,,59,0
46380,control_change,0,0,1,,,,,,,,,0,64,127,,
46380,note_on,30,0,1,,,,,,,,,0,,,62,0
46380,note_on,30,0,4,,,,,,,,,3,,,43,0
46380,note_on,0,0,4,,,,,,,,,3,,,43,36
46380,control_change,0,0,3,,,,,,,,,2,64,127,,
46380,note_on,60,0,3,,,,,,,,,2,,,55,0
46380,control_change,60,0,2,,,,,,,,,1,64,127,,
46380,note_on,0,0,2,,,,,,,,,1,,,59,36
46380,note_on,0,0,3,,,,,,,,,2,,,55,36
46410,note_on,0,0,4,,,,,,,,,3,,,48,36
46410,note_on,30,0,1,,,,,,,,,0,,,62,0
46410,note_on,0,0,1,,,,,,,,,0,,,64,36
46410,note_on,30,0,2,,,,,,,,,1,,,59,0
46410,note_on,0,0,2,,,,,,,,,1,,,60,36
46410,note_on,30,0,4,,,,,,,,,3,,,43,0
46440,note_on,30,0,1,,,,,,,,,0,,,64,0
46440,note_on,0,0,1,,,,,,,,,0,,,67,36
46440,note_on,30,0,4,,,,,,,,,3,,,48,0
46440,note_on,0,0,4,,,,,,,,,3,,,52,36
46440,note_on,0,0,3,,,,,,,,,2,,,55,36
46440,note_on,60,0,3,,,,,,,,,2,,,55,0
46440,note_on,30,0,2,,,,,,,,,1,,,60,0
46440,note_on,0,0,2,,,,,,,,,1,,,59,36
46470,note_on,30,0,4,,,,,,,,,3,,,52,0
46470,note_on,0,0,4,,,,,,,,,3,,,50,36
46470,note_on,0,0,1,,,,,,,,,0,,,65,36
46470,note_on,30,0,1,,,,,,,,,0,,,67,0
46500,note_on,0,0,2,,,,,,,,,1,,,60,36
46500,note_on,0,0,4,,,,,,,,,3,,,48,36
46500,note_on,30,0,4,,,,,,,,,3,,,50,0
46500,note_on,0,0,3,,,,,,,,,2,,,55,36
46500,note_on,0,0,1,,,,,,,,,0,,,64,36
46500,note_on,30,0,1,,,,,,,,,0,,,65,0
46500,note_on,60,0,2,,,,,,,,,1,,,59,0
46500,note_on,60,0,3,,,,,,,,,2,,,55,0
46560,note_on,60,0,3,,,,,,,,,2,,,55,0
46560,control_change,0,0,3,,,,,,,,,2,64,0,,
46560,note_on,0,0,3,,,,,,,,,2,,,60,62
46560,note_on,0,0,3,,,,,,,,,2,,,67,62
46560,note_on,60,0,2,,,,,,,,,1,,,60,0
46560,note_on,0,0,2,,,,,,,,,1,,,72,62
46560,note_on,60,0,1,,,,,,,,,0,,,64,0
46560,control_change,0,0,1,,,,,,,,,0,64,0,,
46560,note_on,0,0,1,,,,,,,,,0,,,76,75
46560,control_change,0,0,2,,,,,,,,,1,64,0,,
46560,note_on,60,0,4,,,,,,,,,3,,,48,0
46566,note_on,0,0,3,,,,,,,,,2,,,60,0
46566,note_on,6,0,3,,,,,,,,,2,,,67,0
46620,note_on,0,0,3,,,,,,,,,2,,,68,62
46620,note_on,54,0,3,,,,,,,,,2,,,59,62
46620,note_on,60,0,1,,,,,,,,,0,,,76,0
46620,note_on,0,0,1,,,,,,,,,0,,,76,75
46620,note_on,60,0,2,,,,,,,,,1,,,72,0
46620,note_on,0,0,2,,,,,,,,,1,,,74,62
46626,note_on,0,0,3,,,,,,,,,2,,,59,0
46626,note_on,6,0,3,,,,,,,,,2,,,68,0
46650,note_on,0,0,1,,,,,,,,,0,,,78,75
46650,note_on,30,0,1,,,,,,,,,0,,,76,0
46665,note_on,0,0,1,,,,,,,,,0,,,80,75
46665,note_on,15,0,1,,,,,,,,,0,,,78,0
46680,note_on,0,0,1,,,,,,,,,0,,,78,75
46680,note_on,0,0,3,,,,,,,,,2,,,68,62
46680,note_on,54,0,3,,,,,,,,,2,,,59,62
46680,note_on,0,0,2,,,,,,,,,1,,,74,62
46680,note_on,60,0,2,,,,,,,,,1,,,74,0
46680,note_on,15,0,1,,,,,,,,,0,,,80,0
46686,note_on,0,0,3,,,,,,,,,2,,,59,0
46686,note_on,6,0,3,,,,,,,,,2,,,68,0
46725,note_on,45,0,1,,,,,,,,,0,,,78,0
46725,note_on,0,0,1,,,,,,,,,0,,,76,75
46740,note_on,0,0,2,,,,,,,,,1,,,73,62
46740,note_on,60,0,2,,,,,,,,,1,,,74,0
46740,note_on,54,0,3,,,,,,,,,2,,,57,62
46740,note_on,0,0,3,,,,,,,,,2,,,69,62
46740,note_on,15,0,1,,,,,,,,,0,,,76,0
46740,note_on,0,0,1,,,,,,,,,0,,,76,75
46746,note_on,6,0,3,,,,,,,,,2,,,69,0
46746,note_on,0,0,3,,,,,,,,,2,,,57,0
46770,note_on,30,0,1,,,,,,,,,0,,,76,0
46770,note_on,0,0,1,,,,,,,,,0,,,81,75
46800,note_on,0,0,2,,,,,,,,,1,,,73,62
46800,note_on,60,0,2,,,,,,,,,1,,,73,0
46800,note_on,0,0,1,,,,,,,,,0,,,76,75
46800,note_on,0,0,3,,,,,,,,,2,,,69,62
46800,note_on,0,0,3,,,,,,,,,2,,,64,62
46800,note_on,54,0,3,,,,,,,,,2,,,57,62
46800,note_on,30,0,1,,,,,,,,,0,,,81,0
46806,note_on,6,0,3,,,,,,,,,2,,,69,0
46806,note_on,0,0,3,,,,,,,,,2,,,64,0
46806,note_on,0,0,3,,,,,,,,,2,,,57,0
46830,note_on,30,0,1,,,,,,,,,0,,,76,0
46830,note_on,0,0,1,,,,,,,,,0,,,85,75
46860,note_on,0,0,3,,,,,,,,,2,,,64,62
46860,note_on,54,0,3,,,,,,,,,2,,,59,62
46860,note_on,60,0,2,,,,,,,,,1,,,73,0
46860,note_on,0,0,3,,,,,,,,,2,,,68,62
46860,note_on,0,0,2,,,,,,,,,1,,,76,62
46860,note_on,30,0,1,,,,,,,,,0,,,85,0
46860,note_on,0,0,1,,,,,,,,,0,,,80,75
46860,note_on,0,0,2,,,,,,,,,1,,,71,62
46980,note_on,0,0,1,,,,,,,,,0,,,80,36
46980,note_on,120,0,1,,,,,,,,,0,,,80,0
46980,note_on,0,0,3,,,,,,,,,2,,,47,36
46980,note_on,0,0,2,,,,,,,,,1,,,75,36
46980,note_on,0,0,3,,,,,,,,,2,,,59,0
46980,note_on,120,0,2,,,,,,,,,1,,,76,0
46980,note_on,0,0,3,,,,,,,,,2,,,59,36
46980,note_on,120,0,3,,,,,,,,,2,,,68,0
46980,note_on,0,0,3,,,,,,,,,2,,,64,0
46980,note_on,0,0,2,,,,,,,,,1,,,69,36
46980,note_on,0,0,2,,,,,,,,,1,,,71,0
47040,note_on,60,0,1,,,,,,,,,0,,,80,0
47040,note_on,0,0,1,,,,,,,,,0,,,78,36
47085,note_on,45,0,1,,,,,,,,,0,,,78,0
47085,note_on,0,0,1,,,,,,,,,0,,,76,36
47100,note_on,0,0,2,,,,,,,,,1,,,69,0
47100,control_change,0,0,2,,,,,,,,,1,64,127,,
47100,note_on,0,0,2,,,,,,,,,1,,,68,36
47100,note_on,15,0,1,,,,,,,,,0,,,76,0
47100,control_change,0,0,1,,,,,,,,,0,64,127,,
47100,note_on,0,0,1,,,,,,,,,0,,,76,36
47100,note_on,120,0,2,,,,,,,,,1,,,75,0
47100,note_on,120,0,3,,,,,,,,,2,,,59,0
47100,note_on,0,0,3,,,,,,,,,2,,,47,0
47100,control_change,0,0,3,,,,,,,,,2,64,127,,
47100,note_on,0,0,3,,,,,,,,,2,,,52,36
47100,note_on,0,0,3,,,,,,,,,2,,,59,36
47190,note_on,90,0,1,,,,,,,,,0,,,76,0
47190,note_on,90,0,2,,,,,,,,,1,,,68,0
47190,note_on,0,0,2,,,,,,,,,1,,,56,36
47220,note_on,120,0,3,,,,,,,,,2,,,59,0
47220,note_on,0,0,3,,,,,,,,,2,,,52,0
47220,note_on,0,0,2,,,,,,,,,1,,,59,36
47220,note_on,30,0,2,,,,,,,,,1,,,56,0
47250,note_on,30,0,2,,,,,,,,,1,,,59,0
47250,note_on,0,0,2,,,,,,,,,1,,,64,36
47280,note_on,30,0,2,,,,,,,,,1,,,64,0
47280,note_on,60,0,3,,,,,,,,,2,,,52,36
47280,note_on,90,0,1,,,,,,,,,0,,,68,49
47280,note_on,0,0,3,,,,,,,,,2,,,59,36
47310,note_on,30,0,2,,,,,,,,,1,,,71,36
47340,control_change,0,0,1,,,,,,,,,0,64,0,,
47340,note_on,0,0,3,,,,,,,,,2,,,61,36
47340,note_on,30,0,2,,,,,,,,,1,,,71,0
47340,control_change,0,0,2,,,,,,,,,1,64,0,,
47340,note_on,0,0,2,,,,,,,,,1,,,69,36
47340,note_on,0,0,1,,,,,,,,,0,,,73,49
47340,note_on,60,0,1,,,,,,,,,0,,,68,0
47340,control_change,0,0,3,,,,,,,,,2,64,0,,
47340,note_on,60,0,3,,,,,,,,,2,,,59,0
47400,note_on,60,0,1,,,,,,,,,0,,,73,0
47400,note_on,0,0,3,,,,,,,,,2,,,58,36
47400,note_on,0,0,1,,,,,,,,,0,,,70,49
47400,note_on,0,0,3,,,,,,,,,2,,,52,36
47400,note_on,0,0,3,,,,,,,,,2,,,52,0
47400,note_on,60,0,3,,,,,,,,,2,,,61,0
47400,note_on,60,0,2,,,,,,,,,1,,,69,0
47400,note_on,0,0,2,,,,,,,,,1,,,67,36
47406,note_on,6,0,1,,,,,,,,,0,,,70,0
47406,note_on,6,0,2,,,,,,,,,1,,,67,0
47406,note_on,6,0,3,,,,,,,,,2,,,58,0
47406,note_on,0,0,3,,,,,,,,,2,,,52,0
47460,note_on,0,0,3,,,,,,,,,2,,,59,36
47460,note_on,0,0,1,,,,,,,,,0,,,71,49
47460,control_change,54,0,1,,,,,,,,,0,64,127,,
47460,note_on,0,0,3,,,,,,,,,2,,,52,36
47460,note_on,54,0,2,,,,,,,,,1,,,68,36
47460,control_change,54,0,3,,,,,,,,,2,64,127,,
47550,note_on,90,0,1,,,,,,,,,0,,,71,0
47550,note_on,0,0,1,,,,,,,,,0,,,59,49
47550,note_on,90,0,2,,,,,,,,,1,,,68,0
47580,note_on,30,0,1,,,,,,,,,0,,,59,0
47580,note_on,0,0,1,,,,,,,,,0,,,64,49
47610,note_on,0,0,1,,,,,,,,,0,,,68,49
47610,note_on,30,0,1,,,,,,,,,0,,,64,0
47640,note_on,0,0,3,,,,,,,,,2,,,64,36
47640,note_on,0,0,3,,,,,,,,,2,,,59,36
47640,note_on,30,0,1,,,,,,,,,0,,,71,49
47640,note_on,0,0,3,,,,,,,,,2,,,52,36
47640,note_on,0,0,3,,,,,,,,,2,,,52,0
47640,note_on,180,0,3,,,,,,,,,2,,,59,0
47670,note_on,30,0,1,,,,,,,,,0,,,76,49
47700,note_on,0,0,1,,,,,,,,,0,,,78,49
47700,control_change,0,0,1,,,,,,,,,0,64,0,,
47700,note_on,30,0,1,,,,,,,,,0,,,76,0
47700,control_change,0,0,3,,,,,,,,,2,64,0,,
47700,note_on,60,0,3,,,,,,,,,2,,,64,0
47700,note_on,0,0,3,,,,,,,,,2,,,66,36
47760,note_on,60,0,1,,,,,,,,,0,,,78,0
47760,note_on,0,0,1,,,,,,,,,0,,,71,0
47760,note_on,60,0,3,,,,,,,,,2,,,66,0
47760,note_on,0,0,1,,,,,,,,,0,,,80,49
47760,note_on,0,0,1,,,,,,,,,0,,,68,0
47760,note_on,0,0,3,,,,,,,,,2,,,64,36
47760,note_on,0,0,3,,,,,,,,,2,,,60,36
47760,note_on,0,0,3,,,,,,,,,2,,,52,36
47760,note_on,0,0,3,,,,,,,,,2,,,52,0
47760,note_on,210,0,2,,,,,,,,,1,,,68,36
47760,note_on,0,0,2,,,,,,,,,1,,,72,36
47760,note_on,0,0,3,,,,,,,,,2,,,59,0
47766,note_on,6,0,3,,,,,,,,,2,,,64,0
47766,note_on,6,0,2,,,,,,,,,1,,,72,0
47766,note_on,0,0,2,,,,,,,,,1,,,68,0
47766,note_on,0,0,3,,,,,,,,,2,,,52,0
47766,note_on,0,0,3,,,,,,,,,2,,,60,0
47766,note_on,6,0,1,,,,,,,,,0,,,80,0
47820,note_on,0,0,3,,,,,,,,,2,,,61,57
47820,note_on,0,0,3,,,,,,,,,2,,,57,52
47820,control_change,54,0,3,,,,,,,,,2,64,127,,
47820,note_on,0,0,1,,,,,,,,,0,,,73,70
47820,control_change,54,0,1,,,,,,,,,0,64,127,,
47820,note_on,0,0,1,,,,,,,,,0,,,69,65
47820,note_on,0,0,3,,,,,,,,,2,,,65,62
47820,note_on,0,0,1,,,,,,,,,0,,,80,75
47940,note_on,120,0,3,,,,,,,,,2,,,65,0
47940,note_on,0,0,3,,,,,,,,,2,,,66,36
47940,note_on,0,0,1,,,,,,,,,0,,,78,49
47940,note_on,120,0,1,,,,,,,,,0,,,80,0
47970,note_on,30,0,1,,,,,,,,,0,,,78,0
47970,note_on,0,0,1,,,,,,,,,0,,,73,0
47970,note_on,0,0,1,,,,,,,,,0,,,69,0
47970,note_on,0,0,1,,,,,,,,,0,,,69,49
48000,note_on,234,0,2,,,,,,,,,1,,,69,36
48000,note_on,0,0,3,,,,,,,,,2,,,61,36
48000,note_on,0,0,3,,,,,,,,,2,,,57,36
48000,note_on,0,0,3,,,,,,,,,2,,,57,0
48000,note_on,60,0,3,,,,,,,,,2,,,66,0
48000,note_on,30,0,1,,,,,,,,,0,,,69,0
48000,note_on,0,0,3,,,,,,,,,2,,,61,0
48000,note_on,0,0,1,,,,,,,,,0,,,73,49
48030,note_on,30,0,1,,,,,,,,,0,,,73,0
48030,note_on,0,0,1,,,,,,,,,0,,,76,49
48060,note_on,30,0,1,,,,,,,,,0,,,76,0
48060,control_change,0,0,1,,,,,,,,,0,64,0,,
48060,note_on,0,0,1,,,,,,,,,0,,,75,49
48060,note_on,60,0,3,,,,,,,,,2,,,61,0
48060,note_on,0,0,3,,,,,,,,,2,,,57,0
48060,control_change,0,0,3,,,,,,,,,2,64,0,,
48060,note_on,0,0,3,,,,,,,,,2,,,59,36
48060,note_on,0,0,3,,,,,,,,,2,,,63,36
48120,note_on,0,0,3,,,,,,,,,2,,,61,36
48120,note_on,0,0,2,,,,,,,,,1,,,69,36
48120,note_on,120,0,2,,,,,,,,,1,,,69,0
48120,note_on,0,0,3,,,,,,,,,2,,,59,0
48120,note_on,0,0,3,,,,,,,,,2,,,64,36
48120,note_on,60,0,3,,,,,,,,,2,,,63,0
48120,note_on,0,0,1,,,,,,,,,0,,,73,49
48120,note_on,60,0,1,,,,,,,,,0,,,75,0
48180,note_on,0,0,3,,,,,,,,,2,,,61,0
48180,note_on,0,0,1,,,,,,,,,0,,,71,75
48180,note_on,60,0,3,,,,,,,,,2,,,64,0
48180,note_on,60,0,1,,,,,,,,,0,,,73,0
48180,control_change,0,0,1,,,,,,,,,0,64,127,,
48180,note_on,0,0,2,,,,,,,,,1,,,69,36
48180,note_on,0,0,3,,,,,,,,,2,,,59,36
48180,note_on,0,0,3,,,,,,,,,2,,,51,36
48180,control_change,0,0,3,,,,,,,,,2,64,127,,
48180,note_on,60,0,2,,,,,,,,,1,,,69,0
48270,note_on,90,0,2,,,,,,,,,1,,,69,0
48270,note_on,90,0,1,,,,,,,,,0,,,71,0
48270,note_on,0,0,1,,,,,,,,,0,,,71,49
48300,note_on,30,0,1,,,,,,,,,0,,,71,0
48300,note_on,0,0,1,,,,,,,,,0,,,75,49
48330,note_on,30,0,1,,,,,,,,,0,,,75,0
48330,note_on,0,0,1,,,,,,,,,0,,,78,49
48360,note_on,30,0,1,,,,,,,,,0,,,78,0
48360,note_on,0,0,1,,,,,,,,,0,,,81,49
48360,note_on,0,0,3,,,,,,,,,2,,,71,36
48360,note_on,180,0,3,,,,,,,,,2,,,59,0
48360,note_on,0,0,3,,,,,,,,,2,,,51,0
48360,note_on,0,0,3,,,,,,,,,2,,,63,36
48390,note_on,0,0,1,,,,,,,,,0,,,83,49
48390,note_on,30,0,1,,,,,,,,,0,,,81,0
48405,note_on,15,0,1,,,,,,,,,0,,,83,0
48405,note_on,0,0,1,,,,,,,,,0,,,85,49
48412,note_on,7,0,1,,,,,,,,,0,,,87,49
48413,note_on,1,0,1,,,,,,,,,0,,,85,0
48420,note_on,0,0,1,,,,,,,,,0,,,85,49
48420,note_on,7,0,1,,,,,,,,,0,,,87,0
48420,note_on,0,0,3,,,,,,,,,2,,,73,36
48420,control_change,0,0,3,,,,,,,,,2,64,0,,
48420,note_on,60,0,3,,,,,,,,,2,,,71,0
48420,control_change,0,0,1,,,,,,,,,0,64,0,,
48426,note_on,0,0,3,,,,,,,,,2,,,63,0
48426,note_on,6,0,3,,,,,,,,,2,,,73,0
48480,note_on,210,0,2,,,,,,,,,1,,,81,36
48480,note_on,0,0,1,,,,,,,,,0,,,83,49
48480,note_on,54,0,3,,,,,,,,,2,,,63,36
48480,note_on,0,0,3,,,,,,,,,2,,,71,36
48480,note_on,60,0,1,,,,,,,,,0,,,85,0
48486,note_on,0,0,3,,,,,,,,,2,,,63,0
48486,note_on,6,0,3,,,,,,,,,2,,,71,0
48540,note_on,0,0,1,,,,,,,,,0,,,81,67
48540,note_on,0,0,3,,,,,,,,,2,,,73,62
48540,note_on,54,0,3,,,,,,,,,2,,,64,54
48540,note_on,60,0,2,,,,,,,,,1,,,81,0
48540,note_on,60,0,1,,,,,,,,,0,,,83,0
48540,note_on,0,0,1,,,,,,,,,0,,,85,75
48660,note_on,120,0,1,,,,,,,,,0,,,85,0
48660,note_on,0,0,1,,,,,,,,,0,,,81,0
48660,note_on,0,0,1,,,,,,,,,0,,,80,49
48660,note_on,0,0,1,,,,,,,,,0,,,83,49
48660,note_on,0,0,3,,,,,,,,,2,,,71,36
48660,note_on,120,0,3,,,,,,,,,2,,,73,0
48690,note_on,30,0,3,,,,,,,,,2,,,71,0
48690,note_on,0,0,3,,,,,,,,,2,,,64,0
48690,note_on,0,0,1,,,,,,,,,0,,,80,0
48690,note_on,30,0,1,,,,,,,,,0,,,83,0
48690,note_on,0,0,3,,,,,,,,,2,,,59,36
48720,note_on,0,0,1,,,,,,,,,0,,,68,62
48720,note_on,30,0,1,,,,,,,,,0,,,64,62
48720,note_on,0,0,3,,,,,,,,,2,,,56,49
48720,note_on,30,0,3,,,,,,,,,2,,,59,0
48750,note_on,2190,0,4,,,,,,,,,3,,,54,36
48780,note_on,30,0,4,,,,,,,,,3,,,54,0
48780,note_on,0,0,4,,,,,,,,,3,,,52,36
48780,note_on,0,0,3,,,,,,,,,2,,,56,62
48780,note_on,60,0,3,,,,,,,,,2,,,56,0
48780,note_on,60,0,1,,,,,,,,,0,,,73,75
48786,note_on,6,0,3,,,,,,,,,2,,,56,0
48840,note_on,54,0,3,,,,,,,,,2,,,51,75
48840,note_on,0,0,3,,,,,,,,,2,,,60,75
48840,note_on,0,0,3,,,,,,,,,2,,,56,75
48840,note_on,0,0,1,,,,,,,,,0,,,72,88
48840,note_on,0,0,1,,,,,,,,,0,,,68,88
48840,note_on,0,0,1,,,,,,,,,0,,,66,88
48840,note_on,0,0,1,,,,,,,,,0,,,64,0
48840,note_on,60,0,4,,,,,,,,,3,,,52,0
48840,note_on,0,0,1,,,,,,,,,0,,,68,0
48840,note_on,60,0,1,,,,,,,,,0,,,73,0
48846,note_on,6,0,3,,,,,,,,,2,,,60,0
48846,note_on,0,0,3,,,,,,,,,2,,,51,0
48846,note_on,0,0,1,,,,,,,,,0,,,68,0
48846,note_on,0,0,1,,,,,,,,,0,,,66,0
48846,note_on,6,0,1,,,,,,,,,0,,,72,0
48846,note_on,0,0,3,,,,,,,,,2,,,56,0
48900,note_on,0,0,1,,,,,,,,,0,,,69,101
48900,note_on,0,0,1,,,,,,,,,0,,,64,101
48900,note_on,0,0,3,,,,,,,,,2,,,61,88
48900,note_on,0,0,3,,,,,,,,,2,,,57,88
48900,note_on,0,0,3,,,,,,,,,2,,,52,88
48900,note_on,0,0,3,,,,,,,,,2,,,49,88
48900,control_change,54,0,3,,,,,,,,,2,64,127,,
48900,control_change,54,0,1,,,,,,,,,0,64,127,,
48900,note_on,0,0,1,,,,,,,,,0,,,73,101
48990,note_on,90,0,1,,,,,,,,,0,,,73,0
48990,note_on,0,0,1,,,,,,,,,0,,,69,0
48990,note_on,0,0,1,,,,,,,,,0,,,64,0
48990,note_on,0,0,1,,,,,,,,,0,,,63,49
49020,note_on,0,0,1,,,,,,,,,0,,,64,49
49020,note_on,30,0,1,,,,,,,,,0,,,63,0
49050,note_on,30,0,1,,,,,,,,,0,,,64,0
49050,note_on,0,0,1,,,,,,,,,0,,,69,49
49080,note_on,30,0,1,,,,,,,,,0,,,69,0
49080,note_on,0,0,1,,,,,,,,,0,,,73,49
49080,note_on,0,0,3,,,,,,,,,2,,,52,0
49080,note_on,0,0,3,,,,,,,,,2,,,49,0
49080,note_on,180,0,3,,,,,,,,,2,,,61,0
49080,note_on,0,0,3,,,,,,,,,2,,,57,0
49110,note_on,0,0,3,,,,,,,,,2,,,64,36
49110,note_on,30,0,3,,,,,,,,,2,,,61,36
49110,note_on,30,0,1,,,,,,,,,0,,,73,0
49110,note_on,0,0,1,,,,,,,,,0,,,76,49
49140,control_change,0,0,1,,,,,,,,,0,64,0,,
49140,note_on,0,0,1,,,,,,,,,0,,,76,67
49140,note_on,0,0,1,,,,,,,,,0,,,78,75
49140,note_on,30,0,3,,,,,,,,,2,,,61,0
49140,control_change,0,0,3,,,,,,,,,2,64,0,,
49140,note_on,30,0,1,,,,,,,,,0,,,76,0
49140,note_on,0,0,3,,,,,,,,,2,,,59,54
49200,note_on,60,0,3,,,,,,,,,2,,,59,0
49200,note_on,0,0,3,,,,,,,,,2,,,64,0
49200,note_on,0,0,1,,,,,,,,,0,,,74,49
49200,note_on,0,0,1,,,,,,,,,0,,,76,0
49200,note_on,0,0,1,,,,,,,,,0,,,80,49
49200,note_on,60,0,1,,,,,,,,,0,,,78,0
49200,note_on,0,0,3,,,,,,,,,2,,,64,36
49200,note_on,0,0,1,,,,,,,,,0,,,76,49
49206,note_on,6,0,1,,,,,,,,,0,,,80,0
49206,note_on,6,0,3,,,,,,,,,2,,,64,0
49206,note_on,0,0,1,,,,,,,,,0,,,76,0
49206,note_on,0,0,1,,,,,,,,,0,,,74,0
49260,note_on,0,0,1,,,,,,,,,0,,,83,88
49260,note_on,0,0,1,,,,,,,,,0,,,80,88
49260,note_on,0,0,3,,,,,,,,,2,,,68,75
49260,note_on,0,0,3,,,,,,,,,2,,,65,75
49260,note_on,54,0,3,,,,,,,,,2,,,57,75
49260,note_on,54,0,1,,,,,,,,,0,,,74,88
49620,note_on,0,0,1,,,,,,,,,0,,,81,49
49620,note_on,0,0,1,,,,,,,,,0,,,80,0
49620,note_on,360,0,1,,,,,,,,,0,,,83,0
49620,note_on,0,0,1,,,,,,,,,0,,,78,49
49620,note_on,360,0,3,,,,,,,,,2,,,68,0
49620,note_on,0,0,3,,,,,,,,,2,,,65,0
49620,note_on,0,0,3,,,,,,,,,2,,,66,36
49620,note_on,0,0,3,,,,,,,,,2,,,69,36
49680,note_on,0,0,3,,,,,,,,,2,,,57,0
49680,note_on,60,0,1,,,,,,,,,0,,,81,0
49680,note_on,0,0,1,,,,,,,,,0,,,78,0
49680,note_on,0,0,1,,,,,,,,,0,,,74,0
49680,note_on,60,0,3,,,,,,,,,2,,,69,0
49680,note_on,0,0,3,,,,,,,,,2,,,66,0
49980,note_on,0,0,1,,,,,,,,,0,,,79,36
49980,control_change,300,0,1,,,,,,,,,0,64,127,,
49980,note_on,300,0,3,,,,,,,,,2,,,57,36
49980,note_on,0,0,3,,,,,,,,,2,,,64,36
49980,note_on,1440,0,2,,,,,,,,,1,,,69,36
49980,note_on,0,0,2,,,,,,,,,1,,,73,36
50160,note_on,180,0,1,,,,,,,,,0,,,81,36
50175,note_on,15,0,1,,,,,,,,,0,,,81,0
50175,note_on,0,0,1,,,,,,,,,0,,,79,36
50190,note_on,15,0,1,,,,,,,,,0,,,79,0
50190,note_on,0,0,1,,,,,,,,,0,,,78,36
50205,note_on,0,0,1,,,,,,,,,0,,,79,36
50205,note_on,15,0,1,,,,,,,,,0,,,78,0
50220,note_on,0,0,1,,,,,,,,,0,,,79,0
50220,note_on,15,0,1,,,,,,,,,0,,,79,0
50220,note_on,0,0,1,,,,,,,,,0,,,78,36
50250,note_on,30,0,1,,,,,,,,,0,,,78,0
50250,note_on,0,0,1,,,,,,,,,0,,,79,36
50280,note_on,0,0,1,,,,,,,,,0,,,83,36
50280,note_on,30,0,1,,,,,,,,,0,,,79,0
50310,control_change,0,0,1,,,,,,,,,0,64,0,,
50310,note_on,0,0,1,,,,,,,,,0,,,81,36
50310,note_on,30,0,1,,,,,,,,,0,,,83,0
50340,control_change,0,0,1,,,,,,,,,0,64,127,,
50340,note_on,0,0,2,,,,,,,,,1,,,74,36
50340,note_on,0,0,3,,,,,,,,,2,,,62,36
50340,note_on,0,0,3,,,,,,,,,2,,,57,36
50340,note_on,0,0,3,,,,,,,,,2,,,50,36
50340,note_on,0,0,3,,,,,,,,,2,,,57,0
50340,note_on,360,0,3,,,,,,,,,2,,,64,0
50340,note_on,0,0,1,,,,,,,,,0,,,78,36
50340,note_on,30,0,1,,,,,,,,,0,,,81,0
50340,note_on,360,0,2,,,,,,,,,1,,,73,0
50400,note_on,0,0,2,,,,,,,,,1,,,69,0
50400,note_on,0,0,3,,,,,,,,,2,,,57,0
50400,note_on,0,0,3,,,,,,,,,2,,,50,0
50400,note_on,60,0,1,,,,,,,,,0,,,78,0
50400,note_on,60,0,2,,,,,,,,,1,,,74,0
50400,note_on,60,0,3,,,,,,,,,2,,,62,0
50430,note_on,30,0,1,,,,,,,,,0,,,66,36
50460,note_on,30,0,1,,,,,,,,,0,,,66,0
50460,note_on,0,0,1,,,,,,,,,0,,,69,36
50490,note_on,30,0,1,,,,,,,,,0,,,69,0
50490,note_on,0,0,1,,,,,,,,,0,,,74,36
50520,note_on,30,0,1,,,,,,,,,0,,,74,0
50520,note_on,0,0,1,,,,,,,,,0,,,78,36
50550,note_on,0,0,2,,,,,,,,,1,,,74,36
50550,note_on,0,0,1,,,,,,,,,0,,,81,36
50550,note_on,30,0,1,,,,,,,,,0,,,78,0
50550,note_on,150,0,2,,,,,,,,,1,,,69,36
50550,note_on,150,0,3,,,,,,,,,2,,,54,36
50580,control_change,0,0,1,,,,,,,,,0,64,0,,
50580,note_on,30,0,1,,,,,,,,,0,,,81,0
50580,note_on,0,0,2,,,,,,,,,1,,,76,36
50580,note_on,0,0,3,,,,,,,,,2,,,56,36
50580,note_on,0,0,3,,,,,,,,,2,,,52,36
50580,note_on,30,0,3,,,,,,,,,2,,,54,0
50580,note_on,30,0,2,,,,,,,,,1,,,74,0
50580,note_on,0,0,1,,,,,,,,,0,,,80,36
50586,note_on,0,0,2,,,,,,,,,1,,,69,0
50586,note_on,6,0,2,,,,,,,,,1,,,76,0
50586,note_on,6,0,1,,,,,,,,,0,,,80,0
50640,note_on,0,0,3,,,,,,,,,2,,,57,36
50640,note_on,54,0,1,,,,,,,,,0,,,78,36
50640,note_on,0,0,3,,,,,,,,,2,,,52,0
50640,note_on,60,0,3,,,,,,,,,2,,,56,0
50640,note_on,0,0,3,,,,,,,,,2,,,50,36
50640,note_on,54,0,2,,,,,,,,,1,,,69,36
50646,note_on,6,0,1,,,,,,,,,0,,,78,0
50646,note_on,6,0,3,,,,,,,,,2,,,57,0
50646,note_on,0,0,3,,,,,,,,,2,,,50,0
50646,note_on,6,0,2,,,,,,,,,1,,,69,0
50700,note_on,54,0,3,,,,,,,,,2,,,49,36
50700,note_on,0,0,3,,,,,,,,,2,,,57,36
50700,note_on,0,0,1,,,,,,,,,0,,,76,62
50700,control_change,54,0,1,,,,,,,,,0,64,127,,
50700,note_on,0,0,1,,,,,,,,,0,,,69,54
50790,note_on,0,0,1,,,,,,,,,0,,,61,36
50790,note_on,0,0,1,,,,,,,,,0,,,69,0
50790,note_on,90,0,1,,,,,,,,,0,,,76,0
50820,note_on,0,0,1,,,,,,,,,0,,,64,36
50820,note_on,30,0,1,,,,,,,,,0,,,61,0
50850,note_on,30,0,1,,,,,,,,,0,,,64,0
50850,note_on,0,0,1,,,,,,,,,0,,,69,36
50880,note_on,0,0,3,,,,,,,,,2,,,49,0
50880,note_on,180,0,3,,,,,,,,,2,,,57,0
50880,note_on,30,0,1,,,,,,,,,0,,,69,0
50880,note_on,0,0,1,,,,,,,,,0,,,73,36
50910,note_on,264,0,2,,,,,,,,,1,,,64,36
50910,note_on,0,0,1,,,,,,,,,0,,,76,36
50910,note_on,30,0,3,,,,,,,,,2,,,61,36
50910,note_on,0,0,2,,,,,,,,,1,,,69,36
50910,note_on,30,0,1,,,,,,,,,0,,,73,0
50940,note_on,0,0,3,,,,,,,,,2,,,59,36
50940,note_on,0,0,3,,,,,,,,,2,,,63,36
50940,note_on,30,0,3,,,,,,,,,2,,,61,0
50940,note_on,30,0,1,,,,,,,,,0,,,76,0
50940,control_change,0,0,1,,,,,,,,,0,64,0,,
50940,note_on,0,0,1,,,,,,,,,0,,,75,36
50940,note_on,0,0,2,,,,,,,,,1,,,71,36
50940,note_on,30,0,2,,,,,,,,,1,,,69,0
50946,note_on,0,0,2,,,,,,,,,1,,,64,0
50946,note_on,6,0,1,,,,,,,,,0,,,75,0
50946,note_on,6,0,2,,,,,,,,,1,,,71,0
50946,note_on,6,0,3,,,,,,,,,2,,,63,0
50946,note_on,0,0,3,,,,,,,,,2,,,59,0
51000,note_on,54,0,3,,,,,,,,,2,,,57,36
51000,note_on,0,0,3,,,,,,,,,2,,,64,36
51000,note_on,54,0,2,,,,,,,,,1,,,64,36
51000,note_on,54,0,1,,,,,,,,,0,,,73,36
51006,note_on,6,0,1,,,,,,,,,0,,,73,0
51006,note_on,6,0,3,,,,,,,,,2,,,64,0
51006,note_on,0,0,3,,,,,,,,,2,,,57,0
51006,note_on,6,0,2,,,,,,,,,1,,,64,0
51060,note_on,54,0,3,,,,,,,,,2,,,56,36
51060,note_on,0,0,1,,,,,,,,,0,,,71,36
51060,note_on,54,0,1,,,,,,,,,0,,,64,36
51066,note_on,6,0,1,,,,,,,,,0,,,71,0
51066,note_on,0,0,1,,,,,,,,,0,,,64,0
51066,note_on,6,0,3,,,,,,,,,2,,,56,0
51120,note_on,0,0,3,,,,,,,,,2,,,64,36
51120,note_on,54,0,3,,,,,,,,,2,,,61,36
51120,note_on,54,0,1,,,,,,,,,0,,,66,36
51120,note_on,0,0,1,,,,,,,,,0,,,70,36
51120,note_on,0,0,1,,,,,,,,,0,,,76,36
51126,note_on,0,0,1,,,,,,,,,0,,,70,0
51126,note_on,0,0,3,,,,,,,,,2,,,61,0
51126,note_on,6,0,3,,,,,,,,,2,,,64,0
51126,note_on,6,0,1,,,,,,,,,0,,,76,0
51126,note_on,0,0,1,,,,,,,,,0,,,66,0
51180,note_on,0,0,1,,,,,,,,,0,,,80,75
51180,note_on,0,0,3,,,,,,,,,2,,,64,62
51180,note_on,54,0,1,,,,,,,,,0,,,68,75
51180,note_on,54,0,3,,,,,,,,,2,,,59,62
51180,note_on,0,0,1,,,,,,,,,0,,,76,75
51180,note_on,0,0,1,,,,,,,,,0,,,71,75
51300,note_on,0,0,2,,,,,,,,,1,,,75,62
51300,note_on,0,0,2,,,,,,,,,1,,,71,62
51300,note_on,294,0,2,,,,,,,,,1,,,69,62
51300,note_on,0,0,1,,,,,,,,,0,,,71,0
51300,note_on,0,0,3,,,,,,,,,2,,,59,62
51300,note_on,0,0,3,,,,,,,,,2,,,47,62
51300,note_on,0,0,3,,,,,,,,,2,,,59,0
51300,note_on,120,0,3,,,,,,,,,2,,,64,0
51300,note_on,0,0,1,,,,,,,,,0,,,80,75
51300,note_on,0,0,1,,,,,,,,,0,,,76,0
51300,note_on,0,0,1,,,,,,,,,0,,,68,0
51300,note_on,120,0,1,,,,,,,,,0,,,80,0
51390,note_on,0,0,1,,,,,,,,,0,,,78,75
51390,note_on,90,0,1,,,,,,,,,0,,,80,0
51420,note_on,0,0,3,,,,,,,,,2,,,52,62
51420,note_on,0,0,3,,,,,,,,,2,,,47,0
51420,note_on,120,0,3,,,,,,,,,2,,,59,0
51420,note_on,0,0,2,,,,,,,,,1,,,69,0
51420,note_on,0,0,2,,,,,,,,,1,,,71,0
51420,note_on,0,0,3,,,,,,,,,2,,,59,62
51420,note_on,120,0,2,,,,,,,,,1,,,75,0
51420,note_on,30,0,1,,,,,,,,,0,,,78,0
51420,note_on,0,0,1,,,,,,,,,0,,,68,75
51420,note_on,0,0,1,,,,,,,,,0,,,71,75
51420,note_on,0,0,1,,,,,,,,,0,,,76,75
51600,note_on,180,0,3,,,,,,,,,2,,,59,0
51600,note_on,0,0,1,,,,,,,,,0,,,68,0
51600,note_on,0,0,1,,,,,,,,,0,,,64,88
51600,note_on,180,0,1,,,,,,,,,0,,,76,0
51600,note_on,0,0,1,,,,,,,,,0,,,71,0
51600,note_on,0,0,3,,,,,,,,,2,,,52,0
51660,note_on,60,0,1,,,,,,,,,0,,,64,0
51660,note_on,0,0,1,,,,,,,,,0,,,61,88
51660,note_on,0,0,1,,,,,,,,,0,,,69,88
51664,note_on,4,0,1,,,,,,,,,0,,,69,0
51664,note_on,0,0,1,,,,,,,,,0,,,61,0
51690,note_on,0,0,1,,,,,,,,,0,,,69,88
51690,note_on,26,0,1,,,,,,,,,0,,,61,88
51720,note_on,120,0,3,,,,,,,,,2,,,52,88
51750,note_on,0,0,1,,,,,,,,,0,,,64,88
51750,note_on,0,0,1,,,,,,,,,0,,,71,88
51750,note_on,0,0,3,,,,,,,,,2,,,56,88
51750,note_on,30,0,3,,,,,,,,,2,,,52,0
51750,note_on,0,0,1,,,,,,,,,0,,,61,0
51750,note_on,60,0,1,,,,,,,,,0,,,69,0
51780,note_on,30,0,1,,,,,,,,,0,,,71,0
51780,note_on,0,0,1,,,,,,,,,0,,,64,0
51780,note_on,0,0,1,,,,,,,,,0,,,69,88
51780,note_on,0,0,1,,,,,,,,,0,,,73,88
51780,control_change,0,0,1,,,,,,,,,0,64,127,,
51780,note_on,0,0,3,,,,,,,,,2,,,57,88
51780,control_change,0,0,3,,,,,,,,,2,64,127,,
51780,note_on,30,0,3,,,,,,,,,2,,,56,0
51786,note_on,0,0,1,,,,,,,,,0,,,69,0
51786,note_on,6,0,1,,,,,,,,,0,,,73,0
51810,note_on,0,0,3,,,,,,,,,2,,,45,114
51810,note_on,30,0,3,,,,,,,,,2,,,57,0
51840,note_on,54,0,1,,,,,,,,,0,,,69,106
51840,note_on,0,0,1,,,,,,,,,0,,,73,114
51870,note_on,60,0,3,,,,,,,,,2,,,45,0
51870,note_on,0,0,3,,,,,,,,,2,,,33,88
51900,note_on,30,0,3,,,,,,,,,2,,,33,0
51900,note_on,0,0,3,,,,,,,,,2,,,45,88
51930,note_on,30,0,3,,,,,,,,,2,,,45,0
51930,note_on,0,0,1,,,,,,,,,0,,,73,114
51930,note_on,0,0,1,,,,,,,,,0,,,69,106
51930,note_on,0,0,1,,,,,,,,,0,,,69,0
51930,note_on,90,0,1,,,,,,,,,0,,,73,0
51960,note_on,30,0,3,,,,,,,,,2,,,52,114
51990,note_on,0,0,1,,,,,,,,,0,,,71,88
51990,note_on,30,0,3,,,,,,,,,2,,,52,0
51990,note_on,0,0,1,,,,,,,,,0,,,64,88
51990,note_on,0,0,3,,,,,,,,,2,,,56,88
51990,note_on,60,0,1,,,,,,,,,0,,,73,0
51990,note_on,0,0,1,,,,,,,,,0,,,69,0
52020,note_on,30,0,1,,,,,,,,,0,,,71,0
52020,note_on,0,0,1,,,,,,,,,0,,,61,88
52020,note_on,0,0,1,,,,,,,,,0,,,69,88
52020,note_on,0,0,3,,,,,,,,,2,,,54,88
52020,control_change,0,0,3,,,,,,,,,2,64,0,,
52020,note_on,30,0,3,,,,,,,,,2,,,56,0
52020,note_on,0,0,1,,,,,,,,,0,,,64,0
52020,control_change,0,0,1,,,,,,,,,0,64,0,,
52050,note_on,0,0,1,,,,,,,,,0,,,66,106
52050,note_on,0,0,1,,,,,,,,,0,,,69,114
52050,note_on,0,0,1,,,,,,,,,0,,,61,0
52050,note_on,30,0,1,,,,,,,,,0,,,69,0
52050,note_on,30,0,3,,,,,,,,,2,,,54,0
52080,note_on,30,0,3,,,,,,,,,2,,,49,114
52110,note_on,30,0,3,,,,,,,,,2,,,49,0
52110,note_on,0,0,3,,,,,,,,,2,,,52,88
52110,note_on,60,0,1,,,,,,,,,0,,,69,0
52110,note_on,0,0,1,,,,,,,,,0,,,66,0
52110,note_on,0,0,1,,,,,,,,,0,,,61,88
52110,note_on,0,0,1,,,,,,,,,0,,,68,88
52140,control_change,0,0,1,,,,,,,,,0,64,127,,
52140,note_on,0,0,1,,,,,,,,,0,,,66,88
52140,note_on,0,0,1,,,,,,,,,0,,,57,88
52140,control_change,0,0,3,,,,,,,,,2,64,127,,
52140,note_on,30,0,1,,,,,,,,,0,,,68,0
52140,note_on,0,0,3,,,,,,,,,2,,,50,88
52140,note_on,30,0,3,,,,,,,,,2,,,52,0
52140,note_on,0,0,1,,,,,,,,,0,,,61,0
52146,note_on,6,0,1,,,,,,,,,0,,,66,0
52146,note_on,0,0,1,,,,,,,,,0,,,57,0
52170,note_on,0,0,3,,,,,,,,,2,,,38,114
52170,note_on,30,0,3,,,,,,,,,2,,,50,0
52200,note_on,54,0,1,,,,,,,,,0,,,57,88
52200,note_on,0,0,1,,,,,,,,,0,,,66,88
52230,note_on,0,0,3,,,,,,,,,2,,,33,88
52230,note_on,60,0,3,,,,,,,,,2,,,38,0
52260,note_on,30,0,3,,,,,,,,,2,,,33,0
52260,note_on,0,0,3,,,,,,,,,2,,,38,88
52290,note_on,0,0,3,,,,,,,,,2,,,42,88
52290,note_on,30,0,3,,,,,,,,,2,,,38,0
52320,note_on,0,0,3,,,,,,,,,2,,,38,88
52320,note_on,30,0,3,,,,,,,,,2,,,42,0
52320,note_on,120,0,1,,,,,,,,,0,,,66,0
52320,note_on,0,0,1,,,,,,,,,0,,,57,0
52320,note_on,0,0,1,,,,,,,,,0,,,66,88
52350,note_on,30,0,3,,,,,,,,,2,,,38,0
52350,note_on,0,0,3,,,,,,,,,2,,,37,88
52380,note_on,0,0,1,,,,,,,,,0,,,62,88
52380,note_on,0,0,1,,,,,,,,,0,,,71,88
52380,note_on,60,0,1,,,,,,,,,0,,,66,0
52380,note_on,0,0,3,,,,,,,,,2,,,35,88
52380,note_on,30,0,3,,,,,,,,,2,,,37,0
52384,note_on,0,0,1,,,,,,,,,0,,,62,0
52384,note_on,4,0,1,,,,,,,,,0,,,71,0
52410,note_on,30,0,3,,,,,,,,,2,,,35,0
52410,note_on,0,0,1,,,,,,,,,0,,,62,88
52410,control_change,26,0,1,,,,,,,,,0,64,0,,
52410,note_on,0,0,1,,,,,,,,,0,,,71,88
52440,control_change,30,0,3,,,,,,,,,2,64,0,,
52440,note_on,0,0,3,,,,,,,,,2,,,54,88
52470,note_on,0,0,1,,,,,,,,,0,,,62,0
52470,note_on,0,0,1,,,,,,,,,0,,,66,88
52470,note_on,60,0,1,,,,,,,,,0,,,71,0
52470,note_on,0,0,1,,,,,,,,,0,,,73,88
52470,note_on,30,0,3,,,,,,,,,2,,,54,0
52470,note_on,0,0,3,,,,,,,,,2,,,58,88
52500,note_on,0,0,3,,,,,,,,,2,,,59,88
52500,control_change,0,0,3,,,,,,,,,2,64,127,,
52500,note_on,30,0,3,,,,,,,,,2,,,58,0
52500,control_change,0,0,1,,,,,,,,,0,64,127,,
52500,note_on,0,0,1,,,,,,,,,0,,,74,88
52500,note_on,0,0,1,,,,,,,,,0,,,71,88
52500,note_on,0,0,1,,,,,,,,,0,,,66,0
52500,note_on,30,0,1,,,,,,,,,0,,,73,0
52506,note_on,0,0,1,,,,,,,,,0,,,71,0
52506,note_on,6,0,1,,,,,,,,,0,,,74,0
52530,note_on,30,0,3,,,,,,,,,2,,,59,0
52530,note_on,0,0,3,,,,,,,,,2,,,47,114
52560,note_on,54,0,1,,,,,,,,,0,,,71,106
52560,note_on,0,0,1,,,,,,,,,0,,,74,114
52590,note_on,0,0,3,,,,,,,,,2,,,35,88
52590,note_on,60,0,3,,,,,,,,,2,,,47,0
52620,note_on,0,0,3,,,,,,,,,2,,,47,88
52620,note_on,30,0,3,,,,,,,,,2,,,35,0
52650,note_on,0,0,1,,,,,,,,,0,,,71,0
52650,note_on,90,0,1,,,,,,,,,0,,,74,0
52650,note_on,0,0,1,,,,,,,,,0,,,74,88
52650,note_on,30,0,3,,,,,,,,,2,,,47,0
52650,note_on,0,0,1,,,,,,,,,0,,,71,88
52680,note_on,0,0,3,,,,,,,,,2,,,54,114
52680,control_change,30,0,3,,,,,,,,,2,64,0,,
52710,note_on,0,0,1,,,,,,,,,0,,,66,88
52710,note_on,0,0,1,,,,,,,,,0,,,71,0
52710,note_on,60,0,1,,,,,,,,,0,,,74,0
52710,note_on,0,0,1,,,,,,,,,0,,,73,88
52710,note_on,30,0,3,,,,,,,,,2,,,54,0
52710,note_on,0,0,3,,,,,,,,,2,,,57,88
52710,control_change,0,0,1,,,,,,,,,0,64,0,,
52740,note_on,30,0,3,,,,,,,,,2,,,57,0
52740,note_on,0,0,1,,,,,,,,,0,,,71,88
52740,note_on,0,0,3,,,,,,,,,2,,,56,88
52740,note_on,0,0,1,,,,,,,,,0,,,66,0
52740,note_on,30,0,1,,,,,,,,,0,,,73,0
52740,note_on,0,0,1,,,,,,,,,0,,,62,88
52770,note_on,0,0,1,,,,,,,,,0,,,62,0
52770,note_on,30,0,1,,,,,,,,,0,,,71,0
52770,note_on,0,0,1,,,,,,,,,0,,,68,106
52770,note_on,0,0,1,,,,,,,,,0,,,71,114
52770,note_on,30,0,3,,,,,,,,,2,,,56,0
52800,note_on,30,0,3,,,,,,,,,2,,,51,127
52830,note_on,60,0,1,,,,,,,,,0,,,71,0
52830,note_on,0,0,3,,,,,,,,,2,,,54,88
52830,note_on,0,0,1,,,,,,,,,0,,,68,0
52830,note_on,0,0,1,,,,,,,,,0,,,63,88
52830,note_on,0,0,1,,,,,,,,,0,,,69,88
52830,note_on,30,0,3,,,,,,,,,2,,,51,0
52860,control_change,0,0,1,,,,,,,,,0,64,127,,
52860,note_on,30,0,3,,,,,,,,,2,,,54,0
52860,note_on,0,0,1,,,,,,,,,0,,,63,0
52860,note_on,30,0,1,,,,,,,,,0,,,69,0
52860,note_on,0,0,1,,,,,,,,,0,,,68,88
52860,note_on,0,0,1,,,,,,,,,0,,,59,88
52860,control_change,0,0,3,,,,,,,,,2,64,127,,
52860,note_on,0,0,3,,,,,,,,,2,,,52,88
52866,note_on,0,0,1,,,,,,,,,0,,,59,0
52866,note_on,6,0,1,,,,,,,,,0,,,68,0
52890,note_on,30,0,3,,,,,,,,,2,,,52,0
52890,note_on,0,0,3,,,,,,,,,2,,,40,114
52920,note_on,54,0,1,,,,,,,,,0,,,59,106
52920,note_on,0,0,1,,,,,,,,,0,,,68,114
52950,note_on,60,0,3,,,,,,,,,2,,,40,0
52950,note_on,0,0,3,,,,,,,,,2,,,35,88
52980,note_on,30,0,3,,,,,,,,,2,,,35,0
52980,note_on,0,0,3,,,,,,,,,2,,,40,88
53010,note_on,0,0,1,,,,,,,,,0,,,59,0
53010,note_on,0,0,3,,,,,,,,,2,,,40,88
53010,note_on,90,0,1,,,,,,,,,0,,,68,0
53010,note_on,30,0,3,,,,,,,,,2,,,40,0
53010,note_on,0,0,1,,,,,,,,,0,,,56,88
53010,note_on,0,0,3,,,,,,,,,2,,,52,88
53010,note_on,0,0,1,,,,,,,,,0,,,64,88
53010,note_on,0,0,1,,,,,,,,,0,,,68,88
53070,note_on,0,0,1,,,,,,,,,0,,,64,0
53070,note_on,0,0,1,,,,,,,,,0,,,56,0
53070,note_on,0,0,1,,,,,,,,,0,,,57,88
53070,note_on,0,0,1,,,,,,,,,0,,,64,88
53070,note_on,0,0,1,,,,,,,,,0,,,69,88
53070,note_on,0,0,3,,,,,,,,,2,,,40,0
53070,note_on,60,0,3,,,,,,,,,2,,,52,0
53070,note_on,0,0,3,,,,,,,,,2,,,42,88
53070,note_on,60,0,1,,,,,,,,,0,,,68,0
53070,note_on,0,0,3,,,,,,,,,2,,,52,88
53070,note_on,0,0,3,,,,,,,,,2,,,54,88
53100,note_on,30,0,3,,,,,,,,,2,,,54,0
53100,note_on,0,0,1,,,,,,,,,0,,,71,88
53100,note_on,0,0,1,,,,,,,,,0,,,59,88
53100,note_on,0,0,1,,,,,,,,,0,,,57,0
53100,note_on,0,0,1,,,,,,,,,0,,,64,0
53100,note_on,30,0,1,,,,,,,,,0,,,69,0
53100,note_on,0,0,3,,,,,,,,,2,,,52,0
53100,note_on,0,0,3,,,,,,,,,2,,,42,0
53100,note_on,0,0,3,,,,,,,,,2,,,44,88
53100,note_on,0,0,1,,,,,,,,,0,,,64,88
53100,note_on,0,0,3,,,,,,,,,2,,,56,88
53100,note_on,0,0,3,,,,,,,,,2,,,52,88
53130,note_on,0,0,1,,,,,,,,,0,,,73,88
53130,note_on,0,0,1,,,,,,,,,0,,,61,88
53130,note_on,0,0,1,,,,,,,,,0,,,59,0
53130,note_on,0,0,1,,,,,,,,,0,,,64,0
53130,note_on,30,0,1,,,,,,,,,0,,,71,0
53130,note_on,0,0,1,,,,,,,,,0,,,69,88
53130,note_on,0,0,3,,,,,,,,,2,,,57,88
53130,note_on,0,0,3,,,,,,,,,2,,,45,88
53130,note_on,0,0,3,,,,,,,,,2,,,44,0
53130,note_on,0,0,3,,,,,,,,,2,,,52,0
53130,note_on,30,0,3,,,,,,,,,2,,,56,0
53190,note_on,0,0,3,,,,,,,,,2,,,45,0
53190,control_change,0,0,1,,,,,,,,,0,64,0,,
53190,note_on,0,0,3,,,,,,,,,2,,,47,88
53190,control_change,0,0,3,,,,,,,,,2,64,0,,
53190,note_on,0,0,1,,,,,,,,,0,,,74,88
53190,note_on,0,0,1,,,,,,,,,0,,,69,88
53190,note_on,0,0,1,,,,,,,,,0,,,69,0
53190,note_on,0,0,1,,,,,,,,,0,,,61,0
53190,note_on,0,0,3,,,,,,,,,2,,,57,88
53190,note_on,60,0,1,,,,,,,,,0,,,73,0
53190,note_on,60,0,3,,,,,,,,,2,,,57,0
53190,note_on,0,0,1,,,,,,,,,0,,,62,88
53190,note_on,0,0,3,,,,,,,,,2,,,59,88
53220,note_on,0,0,1,,,,,,,,,0,,,69,0
53220,note_on,30,0,1,,,,,,,,,0,,,74,0
53220,note_on,0,0,1,,,,,,,,,0,,,62,0
53220,note_on,0,0,1,,,,,,,,,0,,,69,101
53220,note_on,0,0,1,,,,,,,,,0,,,76,101
53220,control_change,0,0,1,,,,,,,,,0,64,127,,
53220,note_on,30,0,3,,,,,,,,,2,,,59,0
53220,note_on,0,0,3,,,,,,,,,2,,,57,0
53220,note_on,0,0,3,,,,,,,,,2,,,47,0
53220,control_change,0,0,3,,,,,,,,,2,64,127,,
53220,note_on,0,0,3,,,,,,,,,2,,,49,88
53220,note_on,0,0,3,,,,,,,,,2,,,57,88
53220,note_on,0,0,3,,,,,,,,,2,,,61,88
53220,note_on,0,0,1,,,,,,,,,0,,,64,101
53226,note_on,6,0,3,,,,,,,,,2,,,61,0
53226,note_on,0,0,3,,,,,,,,,2,,,57,0
53226,note_on,0,0,3,,,,,,,,,2,,,49,0
53280,note_on,54,0,3,,,,,,,,,2,,,49,104
53280,note_on,0,0,3,,,,,,,,,2,,,57,109
53280,note_on,0,0,1,,,,,,,,,0,,,69,122
53280,note_on,60,0,1,,,,,,,,,0,,,76,0
53280,note_on,0,0,1,,,,,,,,,0,,,69,0
53280,note_on,0,0,1,,,,,,,,,0,,,64,0
53280,note_on,0,0,1,,,,,,,,,0,,,64,117
53280,note_on,0,0,1,,,,,,,,,0,,,76,127
53280,note_on,0,0,3,,,,,,,,,2,,,61,114
53370,note_on,0,0,1,,,,,,,,,0,,,76,101
53370,note_on,0,0,1,,,,,,,,,0,,,64,0
53370,note_on,0,0,1,,,,,,,,,0,,,69,101
53370,note_on,0,0,3,,,,,,,,,2,,,61,88
53370,note_on,90,0,1,,,,,,,,,0,,,76,0
53370,note_on,0,0,1,,,,,,,,,0,,,69,0
53370,note_on,90,0,3,,,,,,,,,2,,,61,0
53370,note_on,0,0,3,,,,,,,,,2,,,57,0
53370,note_on,0,0,3,,,,,,,,,2,,,49,0
53370,note_on,0,0,3,,,,,,,,,2,,,49,88
53400,note_on,0,0,3,,,,,,,,,2,,,49,0
53400,note_on,30,0,1,,,,,,,,,0,,,76,0
53400,note_on,0,0,3,,,,,,,,,2,,,52,88
53400,note_on,0,0,3,,,,,,,,,2,,,64,88
53400,note_on,0,0,1,,,,,,,,,0,,,81,101
53400,note_on,0,0,1,,,,,,,,,0,,,73,101
53400,note_on,0,0,1,,,,,,,,,0,,,69,101
53400,note_on,0,0,1,,,,,,,,,0,,,69,0
53400,note_on,30,0,3,,,,,,,,,2,,,61,0
53430,note_on,0,0,3,,,,,,,,,2,,,61,88
53430,note_on,30,0,3,,,,,,,,,2,,,64,0
53430,note_on,0,0,1,,,,,,,,,0,,,69,101
53430,note_on,0,0,3,,,,,,,,,2,,,49,88
53430,note_on,30,0,1,,,,,,,,,0,,,81,0
53430,note_on,0,0,1,,,,,,,,,0,,,73,0
53430,note_on,0,0,1,,,,,,,,,0,,,76,101
53430,note_on,0,0,3,,,,,,,,,2,,,52,0
53430,note_on,0,0,1,,,,,,,,,0,,,69,0
53460,note_on,30,0,3,,,,,,,,,2,,,61,0
53460,note_on,0,0,3,,,,,,,,,2,,,45,88
53460,note_on,0,0,1,,,,,,,,,0,,,69,101
53460,note_on,0,0,1,,,,,,,,,0,,,69,0
53460,note_on,30,0,1,,,,,,,,,0,,,76,0
53460,note_on,0,0,1,,,,,,,,,0,,,73,101
53460,note_on,0,0,3,,,,,,,,,2,,,49,0
53460,note_on,0,0,3,,,,,,,,,2,,,57,88
53490,note_on,0,0,1,,,,,,,,,0,,,69,101
53490,note_on,0,0,3,,,,,,,,,2,,,44,88
53490,note_on,30,0,1,,,,,,,,,0,,,73,0
53490,note_on,30,0,3,,,,,,,,,2,,,57,0
53490,note_on,0,0,3,,,,,,,,,2,,,45,0
53490,note_on,0,0,3,,,,,,,,,2,,,56,88
53490,note_on,0,0,1,,,,,,,,,0,,,69,0
53520,note_on,0,0,1,,,,,,,,,0,,,69,101
53520,note_on,30,0,1,,,,,,,,,0,,,69,0
53520,note_on,30,0,3,,,,,,,,,2,,,56,0
53520,note_on,0,0,3,,,,,,,,,2,,,44,0
53520,note_on,0,0,3,,,,,,,,,2,,,42,88
53520,note_on,0,0,3,,,,,,,,,2,,,54,88
53520,note_on,0,0,1,,,,,,,,,0,,,73,101
53550,note_on,0,0,1,,,,,,,,,0,,,76,101
53550,control_change,0,0,1,,,,,,,,,0,64,0,,
53550,note_on,0,0,1,,,,,,,,,0,,,69,101
53550,note_on,0,0,1,,,,,,,,,0,,,69,0
53550,note_on,30,0,1,,,,,,,,,0,,,73,0
53550,control_change,0,0,3,,,,,,,,,2,64,0,,
53550,note_on,0,0,3,,,,,,,,,2,,,52,88
53550,note_on,0,0,3,,,,,,,,,2,,,40,88
53550,note_on,30,0,3,,,,,,,,,2,,,54,0
53550,note_on,0,0,3,,,,,,,,,2,,,42,0
53580,note_on,0,0,3,,,,,,,,,2,,,45,88
53580,control_change,0,0,1,,,,,,,,,0,64,127,,
53580,note_on,0,0,1,,,,,,,,,0,,,78,101
53580,note_on,0,0,1,,,,,,,,,0,,,69,101
53580,note_on,0,0,1,,,,,,,,,0,,,69,0
53580,note_on,30,0,1,,,,,,,,,0,,,76,0
53580,note_on,0,0,3,,,,,,,,,2,,,50,88
53580,note_on,0,0,1,,,,,,,,,0,,,66,101
53580,note_on,0,0,3,,,,,,,,,2,,,38,88
53580,note_on,30,0,3,,,,,,,,,2,,,52,0
53580,note_on,0,0,3,,,,,,,,,2,,,40,0
53580,control_change,0,0,3,,,,,,,,,2,64,127,,
53586,note_on,0,0,3,,,,,,,,,2,,,38,0
53586,note_on,0,0,1,,,,,,,,,0,,,66,0
53586,note_on,6,0,1,,,,,,,,,0,,,78,0
53586,note_on,0,0,1,,,,,,,,,0,,,69,0
53586,note_on,0,0,3,,,,,,,,,2,,,45,0
53586,note_on,6,0,3,,,,,,,,,2,,,50,0
53640,note_on,54,0,3,,,,,,,,,2,,,38,104
53640,note_on,0,0,3,,,,,,,,,2,,,45,109
53640,note_on,54,0,1,,,,,,,,,0,,,66,117
53640,note_on,0,0,1,,,,,,,,,0,,,69,122
53640,note_on,0,0,1,,,,,,,,,0,,,78,127
53640,note_on,0,0,3,,,,,,,,,2,,,50,114
53730,note_on,0,0,1,,,,,,,,,0,,,78,127
53730,note_on,90,0,1,,,,,,,,,0,,,78,0
53730,note_on,0,0,1,,,,,,,,,0,,,69,0
53730,note_on,0,0,1,,,,,,,,,0,,,66,0
53730,note_on,0,0,1,,,,,,,,,0,,,66,117
53730,note_on,0,0,1,,,,,,,,,0,,,69,122
53730,note_on,4890,0,4,,,,,,,,,3,,,38,88
53730,note_on,0,0,3,,,,,,,,,2,,,38,0
53730,note_on,0,0,3,,,,,,,,,2,,,45,0
53730,note_on,90,0,3,,,,,,,,,2,,,50,0
53730,note_on,0,0,3,,,,,,,,,2,,,45,88
53760,note_on,30,0,3,,,,,,,,,2,,,45,0
53760,note_on,0,0,3,,,,,,,,,2,,,50,88
53790,note_on,0,0,1,,,,,,,,,0,,,76,101
53790,note_on,0,0,3,,,,,,,,,2,,,49,88
53790,note_on,30,0,3,,,,,,,,,2,,,50,0
53790,note_on,0,0,1,,,,,,,,,0,,,64,101
53790,note_on,0,0,1,,,,,,,,,0,,,66,0
53790,note_on,0,0,1,,,,,,,,,0,,,69,0
53790,note_on,60,0,1,,,,,,,,,0,,,78,0
53790,note_on,60,0,4,,,,,,,,,3,,,38,0
53790,note_on,0,0,4,,,,,,,,,3,,,45,88
53790,note_on,0,0,4,,,,,,,,,3,,,37,88
53790,note_on,0,0,1,,,,,,,,,0,,,69,101
53820,note_on,0,0,3,,,,,,,,,2,,,50,88
53820,note_on,30,0,3,,,,,,,,,2,,,49,0
53820,note_on,0,0,1,,,,,,,,,0,,,69,101
53820,note_on,0,0,1,,,,,,,,,0,,,78,101
53820,note_on,0,0,1,,,,,,,,,0,,,69,0
53820,note_on,0,0,1,,,,,,,,,0,,,64,0
53820,note_on,0,0,1,,,,,,,,,0,,,66,101
53820,note_on,30,0,4,,,,,,,,,3,,,45,0
53820,note_on,0,0,4,,,,,,,,,3,,,37,0
53820,note_on,30,0,1,,,,,,,,,0,,,76,0
53820,note_on,0,0,4,,,,,,,,,3,,,45,88
53820,note_on,0,0,4,,,,,,,,,3,,,38,88
53850,note_on,0,0,1,,,,,,,,,0,,,78,127
53850,note_on,0,0,1,,,,,,,,,0,,,66,117
53850,note_on,0,0,1,,,,,,,,,0,,,66,0
53850,note_on,0,0,1,,,,,,,,,0,,,69,0
53850,note_on,30,0,1,,,,,,,,,0,,,78,0
53850,note_on,30,0,4,,,,,,,,,3,,,45,0
53850,note_on,0,0,4,,,,,,,,,3,,,38,88
53850,note_on,0,0,3,,,,,,,,,2,,,45,88
53850,note_on,30,0,3,,,,,,,,,2,,,50,0
53850,note_on,0,0,4,,,,,,,,,3,,,38,0
53850,note_on,0,0,1,,,,,,,,,0,,,69,122
53880,note_on,0,0,3,,,,,,,,,2,,,50,88
53880,note_on,30,0,3,,,,,,,,,2,,,45,0
53910,note_on,0,0,1,,,,,,,,,0,,,67,101
53910,note_on,0,0,1,,,,,,,,,0,,,66,0
53910,note_on,0,0,1,,,,,,,,,0,,,69,0
53910,note_on,60,0,4,,,,,,,,,3,,,38,0
53910,note_on,0,0,4,,,,,,,,,3,,,40,88
53910,note_on,0,0,4,,,,,,,,,3,,,45,88
53910,note_on,0,0,1,,,,,,,,,0,,,69,101
53910,note_on,0,0,1,,,,,,,,,0,,,79,101
53910,note_on,30,0,3,,,,,,,,,2,,,50,0
53910,note_on,60,0,1,,,,,,,,,0,,,78,0
53910,note_on,0,0,3,,,,,,,,,2,,,52,88
53910,control_change,0,0,1,,,,,,,,,0,64,0,,
53910,control_change,0,0,3,,,,,,,,,2,64,0,,
53940,note_on,30,0,1,,,,,,,,,0,,,79,0
53940,note_on,0,0,1,,,,,,,,,0,,,69,0
53940,note_on,0,0,1,,,,,,,,,0,,,67,0
53940,note_on,0,0,1,,,,,,,,,0,,,66,101
53940,note_on,0,0,1,,,,,,,,,0,,,74,101
53940,note_on,0,0,1,,,,,,,,,0,,,78,101
53940,control_change,0,0,1,,,,,,,,,0,64,127,,
53940,note_on,0,0,3,,,,,,,,,2,,,45,88
53940,note_on,30,0,4,,,,,,,,,3,,,45,0
53940,note_on,0,0,4,,,,,,,,,3,,,40,0
53940,note_on,30,0,3,,,,,,,,,2,,,52,0
53940,control_change,0,0,3,,,,,,,,,2,64,127,,
53940,note_on,0,0,3,,,,,,,,,2,,,38,88
53940,note_on,0,0,3,,,,,,,,,2,,,50,88
53946,note_on,6,0,1,,,,,,,,,0,,,78,0
53946,note_on,0,0,1,,,,,,,,,0,,,74,0
53946,note_on,6,0,3,,,,,,,,,2,,,50,0
53946,note_on,0,0,1,,,,,,,,,0,,,66,0
53946,note_on,0,0,3,,,,,,,,,2,,,38,0
53946,note_on,0,0,3,,,,,,,,,2,,,45,0
54000,note_on,0,0,1,,,,,,,,,0,,,78,127
54000,note_on,0,0,1,,,,,,,,,0,,,74,122
54000,note_on,54,0,1,,,,,,,,,0,,,66,117
54000,note_on,54,0,3,,,,,,,,,2,,,38,104
54000,note_on,0,0,3,,,,,,,,,2,,,45,109
54000,note_on,0,0,3,,,,,,,,,2,,,50,114
54090,note_on,0,0,3,,,,,,,,,2,,,42,88
54090,note_on,90,0,1,,,,,,,,,0,,,78,0
54090,note_on,0,0,1,,,,,,,,,0,,,74,0
54090,note_on,0,0,1,,,,,,,,,0,,,66,0
54090,note_on,0,0,1,,,,,,,,,0,,,62,101
54090,note_on,0,0,1,,,,,,,,,0,,,69,101
54090,note_on,90,0,3,,,,,,,,,2,,,50,0
54090,note_on,0,0,3,,,,,,,,,2,,,45,0
54090,note_on,0,0,3,,,,,,,,,2,,,54,88
54090,note_on,0,0,3,,,,,,,,,2,,,38,0
54120,note_on,0,0,3,,,,,,,,,2,,,45,88
54120,note_on,30,0,1,,,,,,,,,0,,,69,0
54120,note_on,0,0,3,,,,,,,,,2,,,42,0
54120,note_on,0,0,1,,,,,,,,,0,,,74,101
54120,note_on,0,0,3,,,,,,,,,2,,,57,88
54120,note_on,0,0,1,,,,,,,,,0,,,62,101
54120,note_on,0,0,1,,,,,,,,,0,,,62,0
54120,note_on,0,0,1,,,,,,,,,0,,,66,101
54120,note_on,30,0,3,,,,,,,,,2,,,54,0
54150,note_on,0,0,1,,,,,,,,,0,,,62,101
54150,note_on,30,0,1,,,,,,,,,0,,,74,0
54150,note_on,0,0,1,,,,,,,,,0,,,62,0
54150,note_on,0,0,3,,,,,,,,,2,,,42,88
54150,note_on,0,0,1,,,,,,,,,0,,,66,0
54150,note_on,30,0,3,,,,,,,,,2,,,57,0
54150,note_on,0,0,3,,,,,,,,,2,,,54,88
54150,note_on,0,0,3,,,,,,,,,2,,,45,0
54150,note_on,0,0,1,,,,,,,,,0,,,69,101
54180,note_on,0,0,3,,,,,,,,,2,,,50,88
54180,note_on,0,0,3,,,,,,,,,2,,,42,0
54180,note_on,30,0,3,,,,,,,,,2,,,54,0
54180,note_on,30,0,1,,,,,,,,,0,,,69,0
54180,note_on,0,0,3,,,,,,,,,2,,,38,88
54180,note_on,0,0,1,,,,,,,,,0,,,62,101
54180,note_on,0,0,1,,,,,,,,,0,,,66,101
54180,note_on,0,0,1,,,,,,,,,0,,,62,0
54210,note_on,30,0,1,,,,,,,,,0,,,66,0
54210,note_on,0,0,1,,,,,,,,,0,,,69,101
54210,note_on,30,0,3,,,,,,,,,2,,,50,0
54210,note_on,0,0,3,,,,,,,,,2,,,38,0
54210,note_on,0,0,3,,,,,,,,,2,,,42,88
54210,note_on,0,0,3,,,,,,,,,2,,,54,88
54210,note_on,0,0,1,,,,,,,,,0,,,62,101
54210,note_on,0,0,1,,,,,,,,,0,,,62,0
54240,note_on,0,0,3,,,,,,,,,2,,,50,88
54240,note_on,30,0,3,,,,,,,,,2,,,54,0
54240,note_on,0,0,3,,,,,,,,,2,,,42,0
54240,note_on,0,0,3,,,,,,,,,2,,,38,88
54240,note_on,0,0,1,,,,,,,,,0,,,62,0
54240,note_on,30,0,1,,,,,,,,,0,,,69,0
54240,note_on,0,0,1,,,,,,,,,0,,,62,101
54240,note_on,0,0,1,,,,,,,,,0,,,66,101
54240,note_on,0,0,1,,,,,,,,,0,,,74,101
54270,control_change,0,0,3,,,,,,,,,2,64,0,,
54270,note_on,0,0,1,,,,,,,,,0,,,69,101
54270,note_on,0,0,1,,,,,,,,,0,,,64,101
54270,note_on,0,0,1,,,,,,,,,0,,,62,0
54270,note_on,0,0,1,,,,,,,,,0,,,66,0
54270,note_on,30,0,3,,,,,,,,,2,,,50,0
54270,control_change,0,0,1,,,,,,,,,0,64,0,,
54270,note_on,0,0,1,,,,,,,,,0,,,76,101
54270,note_on,0,0,3,,,,,,,,,2,,,37,88
54270,note_on,0,0,3,,,,,,,,,2,,,49,88
54270,note_on,30,0,1,,,,,,,,,0,,,74,0
54270,note_on,0,0,3,,,,,,,,,2,,,38,0
54300,note_on,0,0,1,,,,,,,,,0,,,64,0
54300,note_on,0,0,1,,,,,,,,,0,,,74,101
54300,note_on,0,0,1,,,,,,,,,0,,,69,0
54300,note_on,0,0,1,,,,,,,,,0,,,66,101
54300,note_on,0,0,1,,,,,,,,,0,,,78,101
54300,control_change,0,0,1,,,,,,,,,0,64,127,,
54300,note_on,30,0,3,,,,,,,,,2,,,49,0
54300,note_on,0,0,3,,,,,,,,,2,,,37,0
54300,control_change,0,0,3,,,,,,,,,2,64,127,,
54300,note_on,0,0,3,,,,,,,,,2,,,35,88
54300,note_on,0,0,3,,,,,,,,,2,,,47,88
54300,note_on,30,0,1,,,,,,,,,0,,,76,0
54306,note_on,0,0,1,,,,,,,,,0,,,66,0
54306,note_on,0,0,1,,,,,,,,,0,,,74,0
54306,note_on,6,0,1,,,,,,,,,0,,,78,0
54306,note_on,6,0,3,,,,,,,,,2,,,47,0
54306,note_on,0,0,3,,,,,,,,,2,,,35,0
54360,note_on,0,0,1,,,,,,,,,0,,,74,122
54360,note_on,0,0,1,,,,,,,,,0,,,78,127
54360,note_on,54,0,1,,,,,,,,,0,,,66,117
54360,note_on,0,0,3,,,,,,,,,2,,,47,88
54360,note_on,54,0,3,,,,,,,,,2,,,35,88
54450,note_on,0,0,3,,,,,,,,,2,,,35,0
54450,note_on,0,0,1,,,,,,,,,0,,,78,122
54450,note_on,0,0,3,,,,,,,,,2,,,35,104
54450,note_on,0,0,3,,,,,,,,,2,,,42,109
54450,note_on,0,0,3,,,,,,,,,2,,,47,114
54450,note_on,90,0,1,,,,,,,,,0,,,78,0
54450,note_on,0,0,1,,,,,,,,,0,,,74,0
54450,note_on,0,0,1,,,,,,,,,0,,,74,117
54450,note_on,90,0,3,,,,,,,,,2,,,47,0
54450,note_on,0,0,1,,,,,,,,,0,,,86,127
54450,note_on,0,0,1,,,,,,,,,0,,,66,0
54456,note_on,6,0,1,,,,,,,,,0,,,86,0
54456,note_on,0,0,1,,,,,,,,,0,,,74,0
54456,note_on,0,0,1,,,,,,,,,0,,,78,0
54510,control_change,54,0,1,,,,,,,,,0,64,0,,
54510,note_on,0,0,1,,,,,,,,,0,,,74,101
54510,note_on,0,0,3,,,,,,,,,2,,,47,88
54510,note_on,0,0,1,,,,,,,,,0,,,78,101
54510,note_on,0,0,1,,,,,,,,,0,,,86,101
54510,note_on,0,0,3,,,,,,,,,2,,,42,88
54510,note_on,0,0,3,,,,,,,,,2,,,35,88
54510,control_change,0,0,3,,,,,,,,,2,64,0,,
54510,note_on,0,0,3,,,,,,,,,2,,,35,0
54510,note_on,0,0,3,,,,,,,,,2,,,42,0
54510,note_on,60,0,3,,,,,,,,,2,,,47,0
54540,note_on,0,0,3,,,,,,,,,2,,,52,88
54540,note_on,0,0,3,,,,,,,,,2,,,47,88
54540,note_on,0,0,1,,,,,,,,,0,,,74,101
54540,note_on,0,0,1,,,,,,,,,0,,,80,101
54540,note_on,0,0,3,,,,,,,,,2,,,42,0
54540,note_on,0,0,1,,,,,,,,,0,,,68,101
54540,note_on,0,0,1,,,,,,,,,0,,,74,0
54540,note_on,0,0,1,,,,,,,,,0,,,78,0
54540,note_on,0,0,3,,,,,,,,,2,,,35,0
54540,note_on,30,0,1,,,,,,,,,0,,,86,0
54540,note_on,0,0,3,,,,,,,,,2,,,40,88
54540,note_on,30,0,3,,,,,,,,,2,,,47,0
54546,note_on,6,0,3,,,,,,,,,2,,,52,0
54546,note_on,0,0,3,,,,,,,,,2,,,40,0
54546,note_on,0,0,3,,,,,,,,,2,,,47,0
54546,note_on,6,0,1,,,,,,,,,0,,,80,0
54546,note_on,0,0,1,,,,,,,,,0,,,74,0
54546,note_on,0,0,1,,,,,,,,,0,,,68,0
54600,note_on,0,0,3,,,,,,,,,2,,,52,88
54600,note_on,0,0,3,,,,,,,,,2,,,47,88
54600,note_on,0,0,1,,,,,,,,,0,,,80,101
54600,note_on,0,0,1,,,,,,,,,0,,,74,101
54600,note_on,54,0,3,,,,,,,,,2,,,40,88
54600,note_on,54,0,1,,,,,,,,,0,,,68,101
54660,time_signature,16200,1,0,4,4,24,8,,,,,,,,,
54690,note_on,0,0,1,,,,,,,,,0,,,68,0
54690,note_on,0,0,1,,,,,,,,,0,,,69,117
54690,note_on,0,0,1,,,,,,,,,0,,,73,122
54690,note_on,0,0,1,,,,,,,,,0,,,81,127
54690,control_change,0,0,1,,,,,,,,,0,64,127,,
54690,note_on,90,0,1,,,,,,,,,0,,,80,0
54690,note_on,0,0,1,,,,,,,,,0,,,74,0
54690,note_on,90,0,3,,,,,,,,,2,,,52,0
54690,note_on,0,0,3,,,,,,,,,2,,,47,0
54690,note_on,0,0,3,,,,,,,,,2,,,40,0
54690,control_change,0,0,3,,,,,,,,,2,64,127,,
54690,note_on,0,0,3,,,,,,,,,2,,,33,88
54690,note_on,0,0,3,,,,,,,,,2,,,40,88
54690,note_on,0,0,3,,,,,,,,,2,,,45,88
54696,note_on,6,0,1,,,,,,,,,0,,,81,0
54696,note_on,0,0,1,,,,,,,,,0,,,73,0
54696,note_on,0,0,1,,,,,,,,,0,,,69,0
54696,note_on,6,0,3,,,,,,,,,2,,,45,0
54696,note_on,0,0,3,,,,,,,,,2,,,33,0
54696,note_on,0,0,3,,,,,,,,,2,,,40,0
54750,note_on,0,0,1,,,,,,,,,0,,,73,101
54750,note_on,54,0,1,,,,,,,,,0,,,69,101
54750,note_on,0,0,3,,,,,,,,,2,,,45,88
54750,note_on,0,0,3,,,,,,,,,2,,,40,88
54750,note_on,54,0,3,,,,,,,,,2,,,33,88
54750,note_on,0,0,1,,,,,,,,,0,,,81,101
54780,note_on,0,0,1,,,,,,,,,0,,,73,0
54780,note_on,0,0,1,,,,,,,,,0,,,69,0
54780,note_on,0,0,1,,,,,,,,,0,,,57,101
54780,note_on,0,0,1,,,,,,,,,0,,,69,101
54780,note_on,30,0,1,,,,,,,,,0,,,81,0
54780,note_on,0,0,1,,,,,,,,,0,,,61,101
54780,note_on,0,0,3,,,,,,,,,2,,,45,88
54780,note_on,30,0,3,,,,,,,,,2,,,45,0
54780,note_on,0,0,3,,,,,,,,,2,,,40,0
54780,note_on,0,0,3,,,,,,,,,2,,,33,0
54780,note_on,0,0,3,,,,,,,,,2,,,52,88
54786,note_on,6,0,1,,,,,,,,,0,,,69,0
54786,note_on,6,0,3,,,,,,,,,2,,,52,0
54786,note_on,0,0,3,,,,,,,,,2,,,45,0
54786,note_on,0,0,1,,,,,,,,,0,,,61,0
54786,note_on,0,0,1,,,,,,,,,0,,,57,0
54840,note_on,0,0,1,,,,,,,,,0,,,69,127
54840,note_on,0,0,1,,,,,,,,,0,,,61,122
54840,note_on,54,0,1,,,,,,,,,0,,,57,117
54840,note_on,0,0,3,,,,,,,,,2,,,52,114
54840,note_on,0,0,3,,,,,,,,,2,,,45,106
54840,control_change,54,0,3,,,,,,,,,2,64,0,,
54930,control_change,90,0,1,,,,,,,,,0,64,0,,
54930,note_on,90,0,3,,,,,,,,,2,,,52,0
54930,note_on,0,0,3,,,,,,,,,2,,,45,0
55050,note_on,120,0,1,,,,,,,,,0,,,69,0
55050,note_on,0,0,1,,,,,,,,,0,,,69,36
55050,note_on,0,0,1,,,,,,,,,0,,,61,0
55050,note_on,0,0,1,,,,,,,,,0,,,57,0
55080,note_on,30,0,1,,,,,,,,,0,,,69,0
55080,note_on,0,0,1,,,,,,,,,0,,,66,36
55080,note_on,0,0,1,,,,,,,,,0,,,74,36
55110,note_on,30,0,1,,,,,,,,,0,,,74,0
55110,note_on,0,0,1,,,,,,,,,0,,,66,0
55110,note_on,0,0,1,,,,,,,,,0,,,69,36
55110,note_on,0,0,1,,,,,,,,,0,,,76,36
55140,note_on,0,0,1,,,,,,,,,0,,,69,0
55140,note_on,0,0,1,,,,,,,,,0,,,74,36
55140,note_on,0,0,1,,,,,,,,,0,,,78,36
55140,time_signature,480,1,0,3,4,24,8,,,,,,,,,
55140,control_change,0,0,1,,,,,,,,,0,64,127,,
55140,note_on,30,0,1,,,,,,,,,0,,,76,0
55146,note_on,6,0,1,,,,,,,,,0,,,78,0
55146,note_on,0,0,1,,,,,,,,,0,,,74,0
55170,control_change,240,0,3,,,,,,,,,2,64,127,,
55170,note_on,0,0,3,,,,,,,,,2,,,50,36
55200,note_on,54,0,1,,,,,,,,,0,,,74,54
55200,note_on,0,0,1,,,,,,,,,0,,,78,62
55200,note_on,0,0,3,,,,,,,,,2,,,57,36
55200,note_on,30,0,3,,,,,,,,,2,,,50,0
55230,note_on,30,0,3,,,,,,,,,2,,,57,0
55230,note_on,0,0,3,,,,,,,,,2,,,50,36
55260,note_on,30,0,3,,,,,,,,,2,,,57,36
55266,note_on,6,0,3,,,,,,,,,2,,,57,0
55266,note_on,0,0,3,,,,,,,,,2,,,50,0
55290,note_on,90,0,1,,,,,,,,,0,,,78,0
55290,note_on,0,0,1,,,,,,,,,0,,,74,0
55290,note_on,0,0,1,,,,,,,,,0,,,69,36
55290,note_on,0,0,1,,,,,,,,,0,,,76,36
55320,note_on,0,0,3,,,,,,,,,2,,,50,54
55320,control_change,54,0,3,,,,,,,,,2,64,0,,
55320,note_on,30,0,1,,,,,,,,,0,,,76,0
55320,note_on,0,0,1,,,,,,,,,0,,,69,0
55320,note_on,0,0,1,,,,,,,,,0,,,74,36
55320,note_on,0,0,1,,,,,,,,,0,,,78,36
55320,note_on,0,0,3,,,,,,,,,2,,,57,62
55350,note_on,0,0,1,,,,,,,,,0,,,81,36
55350,note_on,0,0,1,,,,,,,,,0,,,76,36
55350,note_on,0,0,1,,,,,,,,,0,,,74,0
55350,note_on,30,0,1,,,,,,,,,0,,,78,0
55380,note_on,0,0,1,,,,,,,,,0,,,78,36
55380,note_on,0,0,1,,,,,,,,,0,,,76,0
55380,note_on,30,0,1,,,,,,,,,0,,,81,0
55380,note_on,0,0,1,,,,,,,,,0,,,74,36
55410,note_on,30,0,1,,,,,,,,,0,,,78,0
55410,note_on,0,0,1,,,,,,,,,0,,,74,0
55410,note_on,0,0,1,,,,,,,,,0,,,69,36
55410,note_on,0,0,1,,,,,,,,,0,,,76,36
55440,note_on,30,0,1,,,,,,,,,0,,,76,0
55440,note_on,0,0,1,,,,,,,,,0,,,69,0
55440,note_on,0,0,1,,,,,,,,,0,,,74,36
55440,note_on,0,0,1,,,,,,,,,0,,,78,36
55470,note_on,0,0,1,,,,,,,,,0,,,81,36
55470,note_on,30,0,1,,,,,,,,,0,,,78,0
55470,note_on,0,0,1,,,,,,,,,0,,,74,0
55470,note_on,0,0,1,,,,,,,,,0,,,76,36
55470,control_change,0,0,1,,,,,,,,,0,64,0,,
55500,note_on,0,0,3,,,,,,,,,2,,,50,0
55500,control_change,0,0,1,,,,,,,,,0,64,127,,
55500,note_on,0,0,1,,,,,,,,,0,,,78,36
55500,note_on,0,0,1,,,,,,,,,0,,,74,36
55500,note_on,0,0,1,,,,,,,,,0,,,76,0
55500,note_on,30,0,1,,,,,,,,,0,,,81,0
55500,note_on,180,0,3,,,,,,,,,2,,,57,0
55506,note_on,0,0,1,,,,,,,,,0,,,74,0
55506,note_on,6,0,1,,,,,,,,,0,,,78,0
55530,control_change,30,0,3,,,,,,,,,2,64,127,,
55530,note_on,0,0,3,,,,,,,,,2,,,50,36
55560,note_on,0,0,1,,,,,,,,,0,,,78,36
55560,note_on,30,0,3,,,,,,,,,2,,,50,0
55560,note_on,0,0,3,,,,,,,,,2,,,57,36
55560,note_on,54,0,1,,,,,,,,,0,,,74,36
55590,note_on,30,0,3,,,,,,,,,2,,,57,0
55590,note_on,0,0,3,,,,,,,,,2,,,50,36
55620,note_on,30,0,3,,,,,,,,,2,,,57,36
55626,note_on,6,0,3,,,,,,,,,2,,,57,0
55626,note_on,0,0,3,,,,,,,,,2,,,50,0
55650,note_on,0,0,1,,,,,,,,,0,,,74,0
55650,note_on,90,0,1,,,,,,,,,0,,,78,0
55650,note_on,0,0,1,,,,,,,,,0,,,76,36
55650,note_on,0,0,1,,,,,,,,,0,,,69,36
55680,note_on,54,0,3,,,,,,,,,2,,,57,36
55680,note_on,30,0,1,,,,,,,,,0,,,76,0
55680,note_on,0,0,1,,,,,,,,,0,,,69,0
55680,note_on,0,0,1,,,,,,,,,0,,,74,36
55680,note_on,1740,0,4,,,,,,,,,3,,,50,62
55680,note_on,0,0,1,,,,,,,,,0,,,78,36
55710,note_on,30,0,1,,,,,,,,,0,,,78,0
55710,note_on,0,0,1,,,,,,,,,0,,,74,0
55710,note_on,0,0,1,,,,,,,,,0,,,76,36
55710,note_on,0,0,1,,,,,,,,,0,,,81,36
55740,note_on,0,0,1,,,,,,,,,0,,,78,36
55740,note_on,0,0,1,,,,,,,,,0,,,74,36
55740,note_on,30,0,1,,,,,,,,,0,,,81,0
55740,note_on,0,0,1,,,,,,,,,0,,,76,0
55740,control_change,60,0,3,,,,,,,,,2,64,0,,
55770,note_on,30,0,1,,,,,,,,,0,,,78,0
55770,note_on,0,0,1,,,,,,,,,0,,,74,0
55770,note_on,0,0,1,,,,,,,,,0,,,69,36
55770,note_on,0,0,1,,,,,,,,,0,,,76,36
55770,note_on,0,0,4,,,,,,,,,3,,,49,36
55770,note_on,90,0,4,,,,,,,,,3,,,50,0
55800,note_on,0,0,4,,,,,,,,,3,,,47,36
55800,note_on,30,0,4,,,,,,,,,3,,,49,0
55800,note_on,0,0,1,,,,,,,,,0,,,78,36
55800,note_on,0,0,1,,,,,,,,,0,,,74,36
55800,note_on,0,0,1,,,,,,,,,0,,,69,0
55800,note_on,30,0,1,,,,,,,,,0,,,76,0
55830,note_on,0,0,1,,,,,,,,,0,,,81,36
55830,note_on,0,0,1,,,,,,,,,0,,,74,0
55830,note_on,30,0,4,,,,,,,,,3,,,47,0
55830,note_on,0,0,4,,,,,,,,,3,,,45,36
55830,note_on,0,0,1,,,,,,,,,0,,,76,36
55830,control_change,0,0,1,,,,,,,,,0,64,0,,
55830,note_on,30,0,1,,,,,,,,,0,,,78,0
55860,note_on,120,0,3,,,,,,,,,2,,,57,0
55860,control_change,0,0,1,,,,,,,,,0,64,127,,
55860,note_on,0,0,1,,,,,,,,,0,,,83,36
55860,note_on,30,0,4,,,,,,,,,3,,,45,0
55860,note_on,0,0,1,,,,,,,,,0,,,76,0
55860,note_on,30,0,1,,,,,,,,,0,,,81,0
55860,note_on,0,0,1,,,,,,,,,0,,,79,36
55866,note_on,6,0,1,,,,,,,,,0,,,83,0
55866,note_on,0,0,1,,,,,,,,,0,,,79,0
55890,control_change,30,0,3,,,,,,,,,2,64,127,,
55890,note_on,0,0,3,,,,,,,,,2,,,43,36
55920,note_on,0,0,1,,,,,,,,,0,,,83,62
55920,note_on,30,0,3,,,,,,,,,2,,,43,0
55920,note_on,0,0,3,,,,,,,,,2,,,50,36
55920,note_on,54,0,1,,,,,,,,,0,,,79,54
55950,note_on,30,0,3,,,,,,,,,2,,,50,0
55950,note_on,0,0,3,,,,,,,,,2,,,43,36
55980,note_on,30,0,3,,,,,,,,,2,,,50,36
55986,note_on,6,0,3,,,,,,,,,2,,,50,0
55986,note_on,0,0,3,,,,,,,,,2,,,43,0
56010,note_on,90,0,1,,,,,,,,,0,,,83,0
56010,note_on,0,0,1,,,,,,,,,0,,,79,0
56010,note_on,0,0,1,,,,,,,,,0,,,74,36
56010,note_on,0,0,1,,,,,,,,,0,,,81,36
56040,note_on,0,0,3,,,,,,,,,2,,,50,62
56040,note_on,0,0,3,,,,,,,,,2,,,43,54
56040,note_on,30,0,1,,,,,,,,,0,,,81,0
56040,note_on,0,0,1,,,,,,,,,0,,,74,0
56040,note_on,0,0,1,,,,,,,,,0,,,79,36
56040,note_on,0,0,1,,,,,,,,,0,,,83,36
56040,control_change,54,0,3,,,,,,,,,2,64,0,,
56070,note_on,0,0,1,,,,,,,,,0,,,81,36
56070,note_on,0,0,1,,,,,,,,,0,,,79,0
56070,note_on,30,0,1,,,,,,,,,0,,,83,0
56070,note_on,0,0,1,,,,,,,,,0,,,74,36
56100,note_on,30,0,1,,,,,,,,,0,,,81,0
56100,note_on,0,0,1,,,,,,,,,0,,,74,0
56100,note_on,0,0,1,,,,,,,,,0,,,71,36
56100,note_on,0,0,1,,,,,,,,,0,,,79,36
56130,note_on,0,0,1,,,,,,,,,0,,,69,36
56130,note_on,0,0,1,,,,,,,,,0,,,74,36
56130,note_on,0,0,1,,,,,,,,,0,,,71,0
56130,note_on,30,0,1,,,,,,,,,0,,,79,0
56160,note_on,30,0,1,,,,,,,,,0,,,74,0
56160,note_on,0,0,1,,,,,,,,,0,,,69,0
56160,note_on,0,0,1,,,,,,,,,0,,,71,36
56160,note_on,0,0,1,,,,,,,,,0,,,79,36
56190,note_on,0,0,1,,,,,,,,,0,,,84,36
56190,note_on,30,0,1,,,,,,,,,0,,,79,0
56190,note_on,0,0,1,,,,,,,,,0,,,71,0
56190,note_on,0,0,1,,,,,,,,,0,,,74,36
56190,control_change,0,0,1,,,,,,,,,0,64,0,,
56220,note_on,0,0,1,,,,,,,,,0,,,83,36
56220,note_on,0,0,1,,,,,,,,,0,,,79,36
56220,note_on,0,0,3,,,,,,,,,2,,,43,0
56220,note_on,30,0,1,,,,,,,,,0,,,84,0
56220,control_change,0,0,1,,,,,,,,,0,64,127,,
56220,note_on,0,0,1,,,,,,,,,0,,,74,0
56220,note_on,180,0,3,,,,,,,,,2,,,50,0
56226,note_on,6,0,1,,,,,,,,,0,,,83,0
56226,note_on,0,0,1,,,,,,,,,0,,,79,0
56250,note_on,0,0,3,,,,,,,,,2,,,43,36
56250,control_change,30,0,3,,,,,,,,,2,64,127,,
56280,note_on,54,0,1,,,,,,,,,0,,,79,54
56280,note_on,0,0,1,,,,,,,,,0,,,83,62
56280,note_on,0,0,3,,,,,,,,,2,,,50,36
56280,note_on,30,0,3,,,,,,,,,2,,,43,0
56310,note_on,0,0,3,,,,,,,,,2,,,43,36
56310,note_on,30,0,3,,,,,,,,,2,,,50,0
56340,note_on,30,0,3,,,,,,,,,2,,,50,36
56346,note_on,6,0,3,,,,,,,,,2,,,50,0
56346,note_on,0,0,3,,,,,,,,,2,,,43,0
56370,note_on,90,0,1,,,,,,,,,0,,,83,0
56370,note_on,0,0,1,,,,,,,,,0,,,83,36
56370,note_on,0,0,1,,,,,,,,,0,,,79,36
56370,note_on,0,0,1,,,,,,,,,0,,,79,0
56400,note_on,30,0,1,,,,,,,,,0,,,83,0
56400,note_on,0,0,1,,,,,,,,,0,,,79,0
56400,note_on,0,0,1,,,,,,,,,0,,,83,36
56400,note_on,0,0,1,,,,,,,,,0,,,86,36
56400,note_on,54,0,3,,,,,,,,,2,,,43,36
56400,note_on,0,0,3,,,,,,,,,2,,,50,36
56430,note_on,0,0,1,,,,,,,,,0,,,81,36
56430,note_on,0,0,1,,,,,,,,,0,,,83,0
56430,note_on,0,0,1,,,,,,,,,0,,,85,36
56430,note_on,30,0,1,,,,,,,,,0,,,86,0
56460,note_on,0,0,1,,,,,,,,,0,,,81,0
56460,note_on,0,0,1,,,,,,,,,0,,,79,36
56460,note_on,0,0,1,,,,,,,,,0,,,83,36
56460,note_on,30,0,1,,,,,,,,,0,,,85,0
56490,note_on,30,0,1,,,,,,,,,0,,,83,0
56490,note_on,0,0,1,,,,,,,,,0,,,79,0
56490,note_on,0,0,1,,,,,,,,,0,,,79,36
56490,note_on,0,0,1,,,,,,,,,0,,,76,36
56520,note_on,0,0,1,,,,,,,,,0,,,83,36
56520,note_on,0,0,1,,,,,,,,,0,,,76,0
56520,note_on,30,0,1,,,,,,,,,0,,,79,0
56520,note_on,0,0,1,,,,,,,,,0,,,79,36
56550,note_on,0,0,3,,,,,,,,,2,,,52,36
56550,note_on,0,0,3,,,,,,,,,2,,,43,36
56550,control_change,0,0,3,,,,,,,,,2,64,0,,
56550,note_on,0,0,3,,,,,,,,,2,,,43,0
56550,note_on,30,0,1,,,,,,,,,0,,,83,0
56550,note_on,0,0,1,,,,,,,,,0,,,79,0
56550,note_on,0,0,1,,,,,,,,,0,,,76,36
56550,note_on,150,0,3,,,,,,,,,2,,,50,0
56550,control_change,0,0,1,,,,,,,,,0,64,0,,
56550,note_on,0,0,1,,,,,,,,,0,,,79,36
56580,note_on,30,0,3,,,,,,,,,2,,,52,0
56580,control_change,0,0,1,,,,,,,,,0,64,127,,
56580,note_on,0,0,3,,,,,,,,,2,,,43,0
56580,note_on,0,0,1,,,,,,,,,0,,,73,36
56580,note_on,0,0,1,,,,,,,,,0,,,76,0
56580,note_on,30,0,1,,,,,,,,,0,,,79,0
56580,note_on,0,0,1,,,,,,,,,0,,,76,36
56586,note_on,6,0,1,,,,,,,,,0,,,76,0
56586,note_on,0,0,1,,,,,,,,,0,,,73,0
56610,control_change,30,0,3,,,,,,,,,2,64,127,,
56610,note_on,0,0,3,,,,,,,,,2,,,43,36
56640,note_on,30,0,3,,,,,,,,,2,,,43,0
56640,note_on,0,0,3,,,,,,,,,2,,,52,36
56640,note_on,54,0,1,,,,,,,,,0,,,73,54
56640,note_on,0,0,1,,,,,,,,,0,,,76,62
56670,note_on,0,0,3,,,,,,,,,2,,,43,36
56670,note_on,30,0,3,,,,,,,,,2,,,52,0
56700,note_on,30,0,3,,,,,,,,,2,,,52,36
56706,note_on,6,0,3,,,,,,,,,2,,,52,0
56706,note_on,0,0,3,,,,,,,,,2,,,43,0
56730,note_on,90,0,1,,,,,,,,,0,,,76,0
56730,note_on,0,0,1,,,,,,,,,0,,,73,0
56730,note_on,0,0,1,,,,,,,,,0,,,73,36
56730,note_on,0,0,1,,,,,,,,,0,,,76,36
56760,note_on,0,0,1,,,,,,,,,0,,,79,36
56760,note_on,0,0,1,,,,,,,,,0,,,76,36
56760,note_on,0,0,3,,,,,,,,,2,,,52,62
56760,note_on,54,0,3,,,,,,,,,2,,,43,54
56760,note_on,30,0,1,,,,,,,,,0,,,76,0
56760,note_on,0,0,1,,,,,,,,,0,,,73,0
56790,note_on,0,0,1,,,,,,,,,0,,,76,0
56790,note_on,0,0,1,,,,,,,,,0,,,74,36
56790,note_on,0,0,1,,,,,,,,,0,,,78,36
56790,note_on,30,0,1,,,,,,,,,0,,,79,0
56820,note_on,30,0,1,,,,,,,,,0,,,78,0
56820,note_on,0,0,1,,,,,,,,,0,,,74,0
56820,note_on,0,0,1,,,,,,,,,0,,,76,36
56820,note_on,0,0,1,,,,,,,,,0,,,73,36
56850,note_on,30,0,1,,,,,,,,,0,,,76,0
56850,note_on,0,0,1,,,,,,,,,0,,,73,0
56850,note_on,0,0,1,,,,,,,,,0,,,74,36
56850,note_on,0,0,1,,,,,,,,,0,,,78,36
56880,note_on,30,0,1,,,,,,,,,0,,,78,0
56880,note_on,0,0,1,,,,,,,,,0,,,74,0
56880,note_on,0,0,1,,,,,,,,,0,,,73,36
56880,note_on,0,0,1,,,,,,,,,0,,,76,36
56880,note_on,0,0,3,,,,,,,,,2,,,43,0
56880,note_on,120,0,3,,,,,,,,,2,,,52,0
56880,control_change,0,0,3,,,,,,,,,2,64,0,,
56880,note_on,0,0,3,,,,,,,,,2,,,55,36
56880,note_on,0,0,3,,,,,,,,,2,,,64,36
56910,control_change,0,0,1,,,,,,,,,0,64,0,,
56910,note_on,0,0,1,,,,,,,,,0,,,71,36
56910,note_on,0,0,1,,,,,,,,,0,,,73,0
56910,note_on,30,0,1,,,,,,,,,0,,,76,0
56910,note_on,0,0,1,,,,,,,,,0,,,73,36
56940,note_on,0,0,3,,,,,,,,,2,,,55,0
56940,note_on,60,0,3,,,,,,,,,2,,,64,0
56940,note_on,30,0,1,,,,,,,,,0,,,73,0
56940,note_on,0,0,1,,,,,,,,,0,,,71,0
56940,note_on,0,0,1,,,,,,,,,0,,,70,36
56940,note_on,0,0,1,,,,,,,,,0,,,78,36
56940,control_change,0,0,1,,,,,,,,,0,64,127,,
56946,note_on,6,0,1,,,,,,,,,0,,,78,0
56946,note_on,0,0,1,,,,,,,,,0,,,70,0
56970,control_change,30,0,3,,,,,,,,,2,64,127,,
56970,note_on,0,0,3,,,,,,,,,2,,,54,36
57000,note_on,30,0,3,,,,,,,,,2,,,54,0
57000,note_on,0,0,3,,,,,,,,,2,,,64,36
57000,note_on,54,0,1,,,,,,,,,0,,,70,54
57000,note_on,0,0,1,,,,,,,,,0,,,78,62
57030,note_on,30,0,3,,,,,,,,,2,,,64,0
57030,note_on,0,0,3,,,,,,,,,2,,,54,36
57060,note_on,30,0,3,,,,,,,,,2,,,64,36
57066,note_on,0,0,3,,,,,,,,,2,,,54,0
57066,note_on,6,0,3,,,,,,,,,2,,,64,0
57090,note_on,0,0,1,,,,,,,,,0,,,76,36
57090,note_on,0,0,1,,,,,,,,,0,,,73,36
57090,note_on,0,0,1,,,,,,,,,0,,,70,0
57090,note_on,90,0,1,,,,,,,,,0,,,78,0
57120,control_change,0,0,1,,,,,,,,,0,64,0,,
57120,note_on,0,0,3,,,,,,,,,2,,,54,54
57120,note_on,0,0,3,,,,,,,,,2,,,64,62
57120,note_on,30,0,1,,,,,,,,,0,,,76,0
57120,note_on,0,0,1,,,,,,,,,0,,,73,0
57120,note_on,0,0,1,,,,,,,,,0,,,76,36
57120,note_on,0,0,1,,,,,,,,,0,,,79,36
57120,control_change,54,0,3,,,,,,,,,2,64,0,,
57150,note_on,0,0,1,,,,,,,,,0,,,78,36
57150,note_on,0,0,1,,,,,,,,,0,,,74,36
57150,note_on,30,0,1,,,,,,,,,0,,,79,0
57150,note_on,0,0,1,,,,,,,,,0,,,76,0
57180,note_on,0,0,1,,,,,,,,,0,,,73,36
57180,note_on,0,0,1,,,,,,,,,0,,,74,0
57180,note_on,0,0,1,,,,,,,,,0,,,76,36
57180,note_on,30,0,1,,,,,,,,,0,,,78,0
57210,note_on,0,0,1,,,,,,,,,0,,,78,36
57210,note_on,0,0,1,,,,,,,,,0,,,74,36
57210,note_on,0,0,1,,,,,,,,,0,,,73,0
57210,note_on,30,0,1,,,,,,,,,0,,,76,0
57240,note_on,0,0,1,,,,,,,,,0,,,76,36
57240,note_on,0,0,3,,,,,,,,,2,,,54,0
57240,note_on,120,0,3,,,,,,,,,2,,,64,0
57240,note_on,0,0,3,,,,,,,,,2,,,55,36
57240,note_on,0,0,3,,,,,,,,,2,,,64,36
57240,note_on,0,0,1,,,,,,,,,0,,,73,36
57240,note_on,0,0,1,,,,,,,,,0,,,74,0
57240,note_on,30,0,1,,,,,,,,,0,,,78,0
57270,note_on,0,0,1,,,,,,,,,0,,,71,36
57270,note_on,0,0,1,,,,,,,,,0,,,73,36
57270,note_on,30,0,1,,,,,,,,,0,,,76,0
57270,note_on,0,0,1,,,,,,,,,0,,,73,0
57300,note_on,60,0,3,,,,,,,,,2,,,64,0
57300,note_on,0,0,3,,,,,,,,,2,,,55,0
57300,control_change,0,0,1,,,,,,,,,0,64,127,,
57300,note_on,0,0,1,,,,,,,,,0,,,78,36
57300,note_on,0,0,1,,,,,,,,,0,,,70,36
57300,note_on,0,0,1,,,,,,,,,0,,,71,0
57300,note_on,30,0,1,,,,,,,,,0,,,73,0
57306,note_on,0,0,1,,,,,,,,,0,,,70,0
57306,note_on,6,0,1,,,,,,,,,0,,,78,0
57330,note_on,0,0,3,,,,,,,,,2,,,54,36
57330,control_change,30,0,3,,,,,,,,,2,64,127,,
57360,note_on,54,0,1,,,,,,,,,0,,,70,54
57360,note_on,0,0,3,,,,,,,,,2,,,64,36
57360,note_on,30,0,3,,,,,,,,,2,,,54,0
57360,note_on,0,0,1,,,,,,,,,0,,,78,62
57390,note_on,0,0,3,,,,,,,,,2,,,54,36
57390,note_on,30,0,3,,,,,,,,,2,,,64,0
57420,note_on,30,0,3,,,,,,,,,2,,,64,36
57480,note_on,60,0,3,,,,,,,,,2,,,64,0
57480,note_on,0,0,1,,,,,,,,,0,,,70,0
57480,note_on,0,0,1,,,,,,,,,0,,,78,62
57480,note_on,0,0,1,,,,,,,,,0,,,70,54
57480,note_on,120,0,1,,,,,,,,,0,,,78,0
57480,note_on,0,0,3,,,,,,,,,2,,,64,62
57480,note_on,0,0,3,,,,,,,,,2,,,54,0
57480,note_on,0,0,3,,,,,,,,,2,,,54,54
57600,note_on,0,0,3,,,,,,,,,2,,,54,36
57600,control_change,0,0,3,,,,,,,,,2,64,0,,
57600,note_on,0,0,3,,,,,,,,,2,,,54,0
57600,note_on,120,0,3,,,,,,,,,2,,,64,0
57600,note_on,0,0,3,,,,,,,,,2,,,64,36
57600,note_on,0,0,1,,,,,,,,,0,,,70,36
57600,note_on,120,0,1,,,,,,,,,0,,,78,0
57600,note_on,0,0,1,,,,,,,,,0,,,70,0
57600,note_on,0,0,1,,,,,,,,,0,,,78,36
57600,control_change,0,0,1,,,,,,,,,0,64,0,,
57606,note_on,6,0,1,,,,,,,,,0,,,78,0
57606,note_on,6,0,3,,,,,,,,,2,,,64,0
57606,note_on,0,0,3,,,,,,,,,2,,,54,0
57606,note_on,0,0,1,,,,,,,,,0,,,70,0
57660,control_change,54,0,1,,,,,,,,,0,64,127,,
57660,note_on,0,0,1,,,,,,,,,0,,,69,36
57660,note_on,0,0,1,,,,,,,,,0,,,78,36
57666,note_on,6,0,1,,,,,,,,,0,,,78,0
57666,note_on,0,0,1,,,,,,,,,0,,,69,0
57690,note_on,0,0,3,,,,,,,,,2,,,47,36
57690,control_change,84,0,3,,,,,,,,,2,64,127,,
57720,note_on,54,0,1,,,,,,,,,0,,,69,54
57720,note_on,0,0,1,,,,,,,,,0,,,78,62
57720,note_on,0,0,3,,,,,,,,,2,,,63,36
57720,note_on,30,0,3,,,,,,,,,2,,,47,0
57750,note_on,30,0,3,,,,,,,,,2,,,63,0
57750,note_on,0,0,3,,,,,,,,,2,,,47,36
57780,note_on,30,0,3,,,,,,,,,2,,,63,36
57840,note_on,120,0,1,,,,,,,,,0,,,78,0
57840,note_on,0,0,1,,,,,,,,,0,,,69,0
57840,note_on,0,0,1,,,,,,,,,0,,,69,54
57840,note_on,0,0,1,,,,,,,,,0,,,78,62
57840,note_on,60,0,3,,,,,,,,,2,,,63,0
57840,note_on,0,0,3,,,,,,,,,2,,,47,0
57840,note_on,0,0,3,,,,,,,,,2,,,47,54
57840,note_on,0,0,3,,,,,,,,,2,,,63,62
57960,note_on,0,0,1,,,,,,,,,0,,,78,36
57960,note_on,120,0,1,,,,,,,,,0,,,78,0
57960,note_on,120,0,3,,,,,,,,,2,,,63,0
57960,note_on,0,0,3,,,,,,,,,2,,,47,0
57960,control_change,0,0,3,,,,,,,,,2,64,0,,
57960,note_on,0,0,3,,,,,,,,,2,,,47,36
57960,note_on,0,0,3,,,,,,,,,2,,,63,36
57960,note_on,0,0,1,,,,,,,,,0,,,69,0
57960,control_change,0,0,1,,,,,,,,,0,64,0,,
57960,note_on,0,0,1,,,,,,,,,0,,,69,36
58020,note_on,60,0,3,,,,,,,,,2,,,63,0
58020,note_on,0,0,3,,,,,,,,,2,,,47,0
58020,control_change,0,0,1,,,,,,,,,0,64,127,,
58020,note_on,0,0,1,,,,,,,,,0,,,76,36
58020,note_on,0,0,1,,,,,,,,,0,,,68,36
58020,note_on,0,0,1,,,,,,,,,0,,,69,0
58020,note_on,60,0,1,,,,,,,,,0,,,78,0
58026,note_on,6,0,1,,,,,,,,,0,,,76,0
58026,note_on,0,0,1,,,,,,,,,0,,,68,0
58050,note_on,0,0,3,,,,,,,,,2,,,52,36
58050,control_change,30,0,3,,,,,,,,,2,64,127,,
58080,note_on,0,0,3,,,,,,,,,2,,,62,36
58080,note_on,0,0,1,,,,,,,,,0,,,76,62
58080,note_on,54,0,1,,,,,,,,,0,,,68,54
58080,note_on,30,0,3,,,,,,,,,2,,,52,0
58110,note_on,30,0,3,,,,,,,,,2,,,62,0
58110,note_on,0,0,3,,,,,,,,,2,,,52,36
58140,note_on,30,0,3,,,,,,,,,2,,,62,36
58170,note_on,0,0,1,,,,,,,,,0,,,74,36
58170,note_on,0,0,1,,,,,,,,,0,,,71,36
58170,note_on,0,0,1,,,,,,,,,0,,,68,0
58170,note_on,90,0,1,,,,,,,,,0,,,76,0
58200,note_on,60,0,3,,,,,,,,,2,,,62,0
58200,note_on,0,0,3,,,,,,,,,2,,,62,62
58200,note_on,0,0,3,,,,,,,,,2,,,52,0
58200,note_on,0,0,1,,,,,,,,,0,,,77,36
58200,note_on,0,0,1,,,,,,,,,0,,,74,36
58200,note_on,0,0,1,,,,,,,,,0,,,71,0
58200,note_on,30,0,1,,,,,,,,,0,,,74,0
58200,note_on,0,0,3,,,,,,,,,2,,,52,54
58200,control_change,0,0,3,,,,,,,,,2,64,0,,
58230,note_on,0,0,1,,,,,,,,,0,,,74,0
58230,note_on,0,0,1,,,,,,,,,0,,,76,36
58230,note_on,30,0,1,,,,,,,,,0,,,77,0
58230,note_on,0,0,1,,,,,,,,,0,,,72,36
58260,note_on,30,0,1,,,,,,,,,0,,,76,0
58260,note_on,0,0,1,,,,,,,,,0,,,72,0
58260,note_on,0,0,1,,,,,,,,,0,,,71,36
58260,note_on,0,0,1,,,,,,,,,0,,,74,36
58260,control_change,0,0,1,,,,,,,,,0,64,0,,
58290,note_on,0,0,1,,,,,,,,,0,,,76,36
58290,note_on,0,0,1,,,,,,,,,0,,,72,36
58290,note_on,30,0,1,,,,,,,,,0,,,74,0
58290,note_on,0,0,1,,,,,,,,,0,,,71,0
58320,note_on,0,0,1,,,,,,,,,0,,,71,36
58320,note_on,0,0,3,,,,,,,,,2,,,53,36
58320,note_on,0,0,3,,,,,,,,,2,,,62,36
58320,note_on,0,0,1,,,,,,,,,0,,,74,36
58320,note_on,0,0,1,,,,,,,,,0,,,72,0
58320,note_on,120,0,3,,,,,,,,,2,,,62,0
58320,note_on,0,0,3,,,,,,,,,2,,,52,0
58320,note_on,30,0,1,,,,,,,,,0,,,76,0
58350,note_on,0,0,1,,,,,,,,,0,,,69,36
58350,note_on,30,0,1,,,,,,,,,0,,,74,0
58350,note_on,0,0,1,,,,,,,,,0,,,71,0
58350,note_on,0,0,1,,,,,,,,,0,,,71,36
58380,note_on,0,0,1,,,,,,,,,0,,,69,0
58380,note_on,0,0,1,,,,,,,,,0,,,68,36
58380,note_on,0,0,1,,,,,,,,,0,,,76,36
58380,note_on,0,0,3,,,,,,,,,2,,,53,0
58380,note_on,60,0,3,,,,,,,,,2,,,62,0
58380,control_change,0,0,1,,,,,,,,,0,64,127,,
58380,note_on,30,0,1,,,,,,,,,0,,,71,0
58386,note_on,0,0,1,,,,,,,,,0,,,68,0
58386,note_on,6,0,1,,,,,,,,,0,,,76,0
58410,note_on,0,0,3,,,,,,,,,2,,,52,36
58410,control_change,30,0,3,,,,,,,,,2,64,127,,
58440,note_on,30,0,3,,,,,,,,,2,,,52,0
58440,note_on,54,0,1,,,,,,,,,0,,,68,54
58440,note_on,0,0,1,,,,,,,,,0,,,76,62
58440,note_on,0,0,3,,,,,,,,,2,,,62,36
58470,note_on,30,0,3,,,,,,,,,2,,,62,0
58470,note_on,0,0,3,,,,,,,,,2,,,52,36
58500,note_on,30,0,3,,,,,,,,,2,,,62,36
58506,note_on,6,0,3,,,,,,,,,2,,,62,0
58506,note_on,0,0,3,,,,,,,,,2,,,52,0
58530,note_on,0,0,1,,,,,,,,,0,,,74,36
58530,note_on,90,0,1,,,,,,,,,0,,,76,0
58530,note_on,0,0,1,,,,,,,,,0,,,68,0
58530,note_on,0,0,1,,,,,,,,,0,,,71,36
58560,note_on,0,0,1,,,,,,,,,0,,,77,36
58560,control_change,54,0,3,,,,,,,,,2,64,0,,
58560,note_on,0,0,3,,,,,,,,,2,,,52,54
58560,note_on,0,0,3,,,,,,,,,2,,,62,62
58560,note_on,0,0,1,,,,,,,,,0,,,74,36
58560,note_on,0,0,1,,,,,,,,,0,,,71,0
58560,note_on,30,0,1,,,,,,,,,0,,,74,0
58590,note_on,0,0,1,,,,,,,,,0,,,72,36
58590,note_on,0,0,1,,,,,,,,,0,,,74,0
58590,note_on,30,0,1,,,,,,,,,0,,,77,0
58590,note_on,0,0,1,,,,,,,,,0,,,76,36
58620,note_on,0,0,1,,,,,,,,,0,,,74,36
58620,control_change,0,0,1,,,,,,,,,0,64,0,,
58620,note_on,0,0,1,,,,,,,,,0,,,71,36
58620,note_on,0,0,1,,,,,,,,,0,,,72,0
58620,note_on,30,0,1,,,,,,,,,0,,,76,0
58650,note_on,0,0,1,,,,,,,,,0,,,76,36
58650,note_on,0,0,1,,,,,,,,,0,,,72,36
58650,note_on,0,0,1,,,,,,,,,0,,,71,0
58650,note_on,30,0,1,,,,,,,,,0,,,74,0
58680,note_on,0,0,1,,,,,,,,,0,,,74,36
58680,note_on,0,0,1,,,,,,,,,0,,,71,36
58680,note_on,0,0,1,,,,,,,,,0,,,72,0
58680,note_on,30,0,1,,,,,,,,,0,,,76,0
58680,note_on,0,0,3,,,,,,,,,2,,,62,36
58680,note_on,0,0,3,,,,,,,,,2,,,53,36
58680,note_on,120,0,3,,,,,,,,,2,,,62,0
58680,note_on,0,0,3,,,,,,,,,2,,,52,0
58710,note_on,0,0,1,,,,,,,,,0,,,71,36
58710,note_on,0,0,1,,,,,,,,,0,,,69,36
58710,note_on,0,0,1,,,,,,,,,0,,,71,0
58710,note_on,30,0,1,,,,,,,,,0,,,74,0
58740,note_on,60,0,3,,,,,,,,,2,,,62,0
58740,note_on,0,0,1,,,,,,,,,0,,,69,0
58740,note_on,30,0,1,,,,,,,,,0,,,71,0
58740,note_on,0,0,1,,,,,,,,,0,,,76,36
58740,note_on,0,0,3,,,,,,,,,2,,,53,0
58740,note_on,0,0,1,,,,,,,,,0,,,68,36
58740,control_change,0,0,1,,,,,,,,,0,64,127,,
58746,note_on,0,0,1,,,,,,,,,0,,,68,0
58746,note_on,6,0,1,,,,,,,,,0,,,76,0
58770,control_change,30,0,3,,,,,,,,,2,64,127,,
58770,note_on,0,0,3,,,,,,,,,2,,,52,36
58800,note_on,54,0,1,,,,,,,,,0,,,68,54
58800,note_on,0,0,1,,,,,,,,,0,,,76,62
58800,note_on,0,0,3,,,,,,,,,2,,,62,36
58800,note_on,30,0,3,,,,,,,,,2,,,52,0
58830,note_on,30,0,3,,,,,,,,,2,,,62,0
58830,note_on,0,0,3,,,,,,,,,2,,,52,36
58860,note_on,30,0,3,,,,,,,,,2,,,62,36
58866,note_on,0,0,3,,,,,,,,,2,,,52,0
58866,note_on,6,0,3,,,,,,,,,2,,,62,0
58920,note_on,120,0,1,,,,,,,,,0,,,76,0
58920,note_on,0,0,1,,,,,,,,,0,,,68,0
58920,note_on,0,0,1,,,,,,,,,0,,,76,36
58920,note_on,0,0,3,,,,,,,,,2,,,62,36
58920,control_change,54,0,3,,,,,,,,,2,64,0,,
58920,note_on,0,0,1,,,,,,,,,0,,,68,36
58920,note_on,0,0,3,,,,,,,,,2,,,52,36
58950,note_on,30,0,1,,,,,,,,,0,,,76,0
58950,note_on,0,0,1,,,,,,,,,0,,,68,0
58950,note_on,0,0,1,,,,,,,,,0,,,64,88
58950,control_change,0,0,1,,,,,,,,,0,64,0,,
58980,note_on,0,0,3,,,,,,,,,2,,,52,0
58980,note_on,60,0,3,,,,,,,,,2,,,62,0
58980,note_on,30,0,1,,,,,,,,,0,,,64,0
58980,control_change,0,0,1,,,,,,,,,0,64,127,,
58980,note_on,0,0,1,,,,,,,,,0,,,61,88
58980,note_on,0,0,1,,,,,,,,,0,,,69,88
58984,note_on,4,0,1,,,,,,,,,0,,,69,0
58984,note_on,0,0,1,,,,,,,,,0,,,61,0
59010,note_on,26,0,1,,,,,,,,,0,,,61,88
59010,note_on,0,0,1,,,,,,,,,0,,,69,88
59040,note_on,60,0,3,,,,,,,,,2,,,52,88
59070,note_on,30,0,3,,,,,,,,,2,,,52,0
59070,note_on,60,0,1,,,,,,,,,0,,,69,0
59070,note_on,0,0,1,,,,,,,,,0,,,61,0
59070,note_on,0,0,1,,,,,,,,,0,,,64,88
59070,note_on,0,0,3,,,,,,,,,2,,,56,88
59070,control_change,0,0,1,,,,,,,,,0,64,0,,
59070,note_on,0,0,1,,,,,,,,,0,,,71,88
59100,note_on,30,0,1,,,,,,,,,0,,,71,0
59100,note_on,0,0,1,,,,,,,,,0,,,64,0
59100,note_on,0,0,1,,,,,,,,,0,,,69,88
59100,note_on,0,0,1,,,,,,,,,0,,,73,88
59100,note_on,30,0,3,,,,,,,,,2,,,56,0
59100,control_change,0,0,3,,,,,,,,,2,64,127,,
59100,note_on,0,0,3,,,,,,,,,2,,,57,88
59106,note_on,6,0,1,,,,,,,,,0,,,73,0
59106,note_on,0,0,1,,,,,,,,,0,,,69,0
59130,note_on,0,0,3,,,,,,,,,2,,,45,114
59130,note_on,30,0,3,,,,,,,,,2,,,57,0
59160,note_on,54,0,1,,,,,,,,,0,,,69,106
59160,note_on,0,0,1,,,,,,,,,0,,,73,114
59190,note_on,60,0,3,,,,,,,,,2,,,45,0
59190,note_on,0,0,3,,,,,,,,,2,,,33,88
59220,note_on,30,0,3,,,,,,,,,2,,,33,0
59220,control_change,0,0,3,,,,,,,,,2,64,0,,
59220,note_on,0,0,3,,,,,,,,,2,,,45,88
59250,note_on,0,0,1,,,,,,,,,0,,,69,106
59250,note_on,90,0,1,,,,,,,,,0,,,73,0
59250,note_on,30,0,3,,,,,,,,,2,,,45,0
59250,note_on,0,0,1,,,,,,,,,0,,,69,0
59250,note_on,0,0,1,,,,,,,,,0,,,73,114
59280,note_on,30,0,3,,,,,,,,,2,,,52,114
59310,note_on,30,0,3,,,,,,,,,2,,,52,0
59310,note_on,0,0,3,,,,,,,,,2,,,56,88
59310,note_on,0,0,1,,,,,,,,,0,,,71,88
59310,note_on,0,0,1,,,,,,,,,0,,,69,0
59310,note_on,0,0,1,,,,,,,,,0,,,64,88
59310,note_on,60,0,1,,,,,,,,,0,,,73,0
59340,note_on,30,0,1,,,,,,,,,0,,,71,0
59340,note_on,0,0,3,,,,,,,,,2,,,54,88
59340,note_on,30,0,3,,,,,,,,,2,,,56,0
59340,note_on,0,0,1,,,,,,,,,0,,,69,88
59340,note_on,0,0,1,,,,,,,,,0,,,61,88
59340,note_on,0,0,1,,,,,,,,,0,,,64,0
59370,note_on,0,0,1,,,,,,,,,0,,,66,106
59370,note_on,0,0,1,,,,,,,,,0,,,61,0
59370,note_on,30,0,1,,,,,,,,,0,,,69,0
59370,note_on,0,0,1,,,,,,,,,0,,,69,114
59370,note_on,30,0,3,,,,,,,,,2,,,54,0
59400,note_on,30,0,3,,,,,,,,,2,,,49,114
59430,note_on,60,0,1,,,,,,,,,0,,,69,0
59430,note_on,0,0,1,,,,,,,,,0,,,66,0
59430,note_on,0,0,1,,,,,,,,,0,,,68,88
59430,note_on,0,0,1,,,,,,,,,0,,,61,88
59430,note_on,0,0,3,,,,,,,,,2,,,52,88
59430,note_on,30,0,3,,,,,,,,,2,,,49,0
59460,control_change,0,0,1,,,,,,,,,0,64,127,,
59460,note_on,0,0,1,,,,,,,,,0,,,61,0
59460,note_on,30,0,1,,,,,,,,,0,,,68,0
59460,note_on,0,0,3,,,,,,,,,2,,,50,88
59460,control_change,0,0,3,,,,,,,,,2,64,127,,
59460,note_on,30,0,3,,,,,,,,,2,,,52,0
59460,note_on,0,0,1,,,,,,,,,0,,,66,88
59460,note_on,0,0,1,,,,,,,,,0,,,57,88
59466,note_on,0,0,1,,,,,,,,,0,,,57,0
59466,note_on,6,0,1,,,,,,,,,0,,,66,0
59490,note_on,30,0,3,,,,,,,,,2,,,50,0
59490,note_on,0,0,3,,,,,,,,,2,,,38,114
59520,note_on,0,0,1,,,,,,,,,0,,,66,88
59520,note_on,54,0,1,,,,,,,,,0,,,57,88
59550,note_on,0,0,3,,,,,,,,,2,,,33,88
59550,note_on,60,0,3,,,,,,,,,2,,,38,0
59580,note_on,0,0,3,,,,,,,,,2,,,38,88
59580,note_on,30,0,3,,,,,,,,,2,,,33,0
59610,note_on,0,0,3,,,,,,,,,2,,,42,88
59610,note_on,30,0,3,,,,,,,,,2,,,38,0
59640,note_on,0,0,1,,,,,,,,,0,,,66,88
59640,note_on,0,0,3,,,,,,,,,2,,,38,88
59640,note_on,120,0,1,,,,,,,,,0,,,66,0
59640,note_on,0,0,1,,,,,,,,,0,,,57,0
59640,note_on,30,0,3,,,,,,,,,2,,,42,0
59670,note_on,30,0,3,,,,,,,,,2,,,38,0
59670,note_on,0,0,3,,,,,,,,,2,,,37,88
59700,note_on,30,0,3,,,,,,,,,2,,,37,0
59700,control_change,0,0,3,,,,,,,,,2,64,0,,
59700,note_on,0,0,3,,,,,,,,,2,,,35,88
59700,note_on,60,0,1,,,,,,,,,0,,,66,0
59700,note_on,0,0,1,,,,,,,,,0,,,62,88
59700,note_on,0,0,1,,,,,,,,,0,,,71,88
59700,control_change,0,0,1,,,,,,,,,0,64,0,,
59704,note_on,4,0,1,,,,,,,,,0,,,71,0
59704,note_on,0,0,1,,,,,,,,,0,,,62,0
59730,note_on,30,0,3,,,,,,,,,2,,,35,0
59730,note_on,26,0,1,,,,,,,,,0,,,62,88
59730,note_on,0,0,1,,,,,,,,,0,,,71,88
59760,note_on,30,0,3,,,,,,,,,2,,,54,88
59790,note_on,60,0,1,,,,,,,,,0,,,71,0
59790,note_on,0,0,1,,,,,,,,,0,,,62,0
59790,note_on,0,0,1,,,,,,,,,0,,,66,88
59790,note_on,30,0,3,,,,,,,,,2,,,54,0
59790,note_on,0,0,3,,,,,,,,,2,,,58,88
59790,note_on,0,0,1,,,,,,,,,0,,,73,88
59820,note_on,30,0,1,,,,,,,,,0,,,73,0
59820,note_on,0,0,1,,,,,,,,,0,,,66,0
59820,note_on,0,0,1,,,,,,,,,0,,,71,88
59820,note_on,0,0,1,,,,,,,,,0,,,74,88
59820,note_on,30,0,3,,,,,,,,,2,,,58,0
59820,control_change,0,0,3,,,,,,,,,2,64,127,,
59820,note_on,0,0,3,,,,,,,,,2,,,59,88
59826,note_on,0,0,1,,,,,,,,,0,,,71,0
59826,note_on,6,0,1,,,,,,,,,0,,,74,0
59850,note_on,30,0,3,,,,,,,,,2,,,59,0
59850,note_on,0,0,3,,,,,,,,,2,,,47,114
59880,note_on,54,0,1,,,,,,,,,0,,,71,106
59880,note_on,0,0,1,,,,,,,,,0,,,74,114
59910,note_on,60,0,3,,,,,,,,,2,,,47,0
59910,note_on,0,0,3,,,,,,,,,2,,,35,88
59940,note_on,30,0,3,,,,,,,,,2,,,35,0
59940,control_change,0,0,3,,,,,,,,,2,64,0,,
59940,note_on,0,0,3,,,,,,,,,2,,,47,88
59970,note_on,90,0,1,,,,,,,,,0,,,74,0
59970,note_on,0,0,1,,,,,,,,,0,,,71,0
59970,note_on,30,0,3,,,,,,,,,2,,,47,0
59970,note_on,0,0,1,,,,,,,,,0,,,74,88
59970,note_on,0,0,1,,,,,,,,,0,,,71,88
60000,note_on,30,0,3,,,,,,,,,2,,,54,114
60030,note_on,30,0,3,,,,,,,,,2,,,54,0
60030,note_on,0,0,1,,,,,,,,,0,,,72,88
60030,note_on,0,0,1,,,,,,,,,0,,,66,88
60030,note_on,0,0,1,,,,,,,,,0,,,71,0
60030,note_on,60,0,1,,,,,,,,,0,,,74,0
60030,note_on,0,0,3,,,,,,,,,2,,,57,88
60060,note_on,0,0,1,,,,,,,,,0,,,71,88
60060,note_on,0,0,1,,,,,,,,,0,,,62,88
60060,note_on,0,0,1,,,,,,,,,0,,,66,0
60060,note_on,30,0,3,,,,,,,,,2,,,57,0
60060,note_on,0,0,3,,,,,,,,,2,,,55,88
60060,note_on,30,0,1,,,,,,,,,0,,,72,0
60090,note_on,0,0,1,,,,,,,,,0,,,67,106
60090,note_on,30,0,3,,,,,,,,,2,,,55,0
60090,note_on,30,0,1,,,,,,,,,0,,,71,0
60090,note_on,0,0,1,,,,,,,,,0,,,62,0
60090,note_on,0,0,1,,,,,,,,,0,,,71,114
60120,note_on,30,0,3,,,,,,,,,2,,,51,127
60150,note_on,0,0,3,,,,,,,,,2,,,54,88
60150,note_on,30,0,3,,,,,,,,,2,,,51,0
60150,note_on,60,0,1,,,,,,,,,0,,,71,0
60150,note_on,0,0,1,,,,,,,,,0,,,63,88
60150,note_on,0,0,1,,,,,,,,,0,,,69,88
60150,note_on,0,0,1,,,,,,,,,0,,,67,0
60180,control_change,0,0,3,,,,,,,,,2,64,127,,
60180,note_on,30,0,1,,,,,,,,,0,,,69,0
60180,note_on,0,0,1,,,,,,,,,0,,,63,0
60180,note_on,0,0,1,,,,,,,,,0,,,59,88
60180,note_on,0,0,1,,,,,,,,,0,,,67,88
60180,control_change,0,0,1,,,,,,,,,0,64,127,,
60180,note_on,0,0,3,,,,,,,,,2,,,52,88
60180,note_on,30,0,3,,,,,,,,,2,,,54,0
60186,note_on,6,0,1,,,,,,,,,0,,,67,0
60186,note_on,0,0,1,,,,,,,,,0,,,59,0
60210,note_on,30,0,3,,,,,,,,,2,,,52,0
60210,note_on,0,0,3,,,,,,,,,2,,,40,114
60240,note_on,54,0,1,,,,,,,,,0,,,59,106
60240,note_on,0,0,1,,,,,,,,,0,,,67,114
60270,note_on,60,0,3,,,,,,,,,2,,,40,0
60270,note_on,0,0,3,,,,,,,,,2,,,35,88
60300,note_on,30,0,3,,,,,,,,,2,,,35,0
60300,note_on,0,0,3,,,,,,,,,2,,,40,88
60330,note_on,90,0,1,,,,,,,,,0,,,67,0
60330,note_on,0,0,1,,,,,,,,,0,,,55,88
60330,note_on,0,0,1,,,,,,,,,0,,,59,0
60330,note_on,0,0,1,,,,,,,,,0,,,67,88
60330,note_on,30,0,3,,,,,,,,,2,,,40,0
60330,note_on,0,0,3,,,,,,,,,2,,,40,88
60330,note_on,0,0,3,,,,,,,,,2,,,52,88
60330,note_on,0,0,1,,,,,,,,,0,,,64,88
60390,note_on,60,0,1,,,,,,,,,0,,,67,0
60390,note_on,0,0,1,,,,,,,,,0,,,69,88
60390,note_on,0,0,3,,,,,,,,,2,,,54,88
60390,note_on,0,0,3,,,,,,,,,2,,,52,88
60390,note_on,0,0,3,,,,,,,,,2,,,42,88
60390,note_on,0,0,3,,,,,,,,,2,,,40,0
60390,note_on,60,0,3,,,,,,,,,2,,,52,0
60390,note_on,0,0,1,,,,,,,,,0,,,64,88
60390,note_on,0,0,1,,,,,,,,,0,,,64,0
60390,note_on,0,0,1,,,,,,,,,0,,,55,0
60390,note_on,0,0,1,,,,,,,,,0,,,57,88
60420,note_on,0,0,1,,,,,,,,,0,,,59,88
60420,note_on,0,0,1,,,,,,,,,0,,,57,0
60420,note_on,0,0,1,,,,,,,,,0,,,64,0
60420,note_on,30,0,1,,,,,,,,,0,,,69,0
60420,note_on,0,0,3,,,,,,,,,2,,,55,88
60420,note_on,30,0,3,,,,,,,,,2,,,54,0
60420,note_on,0,0,3,,,,,,,,,2,,,52,0
60420,note_on,0,0,3,,,,,,,,,2,,,42,0
60420,note_on,0,0,3,,,,,,,,,2,,,43,88
60420,note_on,0,0,3,,,,,,,,,2,,,52,88
60420,note_on,0,0,1,,,,,,,,,0,,,64,88
60420,note_on,0,0,1,,,,,,,,,0,,,71,88
60450,note_on,0,0,1,,,,,,,,,0,,,72,88
60450,note_on,0,0,1,,,,,,,,,0,,,64,0
60450,note_on,0,0,1,,,,,,,,,0,,,59,0
60450,note_on,30,0,3,,,,,,,,,2,,,55,0
60450,note_on,0,0,1,,,,,,,,,0,,,69,88
60450,note_on,0,0,1,,,,,,,,,0,,,60,88
60450,note_on,0,0,3,,,,,,,,,2,,,57,88
60450,note_on,0,0,3,,,,,,,,,2,,,45,88
60450,note_on,0,0,3,,,,,,,,,2,,,43,0
60450,note_on,0,0,3,,,,,,,,,2,,,52,0
60450,note_on,30,0,1,,,,,,,,,0,,,71,0
60510,note_on,0,0,1,,,,,,,,,0,,,60,0
60510,note_on,0,0,1,,,,,,,,,0,,,74,88
60510,note_on,0,0,1,,,,,,,,,0,,,69,0
60510,control_change,0,0,3,,,,,,,,,2,64,0,,
60510,note_on,60,0,1,,,,,,,,,0,,,72,0
60510,note_on,0,0,1,,,,,,,,,0,,,62,88
60510,note_on,0,0,3,,,,,,,,,2,,,47,88
60510,note_on,0,0,3,,,,,,,,,2,,,59,88
60510,note_on,0,0,3,,,,,,,,,2,,,57,88
60510,note_on,60,0,3,,,,,,,,,2,,,57,0
60510,note_on,0,0,3,,,,,,,,,2,,,45,0
60510,control_change,0,0,1,,,,,,,,,0,64,0,,
60510,note_on,0,0,1,,,,,,,,,0,,,69,88
60540,note_on,0,0,3,,,,,,,,,2,,,60,88
60540,control_change,0,0,1,,,,,,,,,0,64,127,,
60540,note_on,0,0,3,,,,,,,,,2,,,55,88
60540,note_on,0,0,3,,,,,,,,,2,,,48,88
60540,control_change,0,0,3,,,,,,,,,2,64,127,,
60540,note_on,0,0,3,,,,,,,,,2,,,47,0
60540,note_on,0,0,3,,,,,,,,,2,,,57,0
60540,note_on,30,0,3,,,,,,,,,2,,,59,0
60540,note_on,0,0,1,,,,,,,,,0,,,76,101
60540,note_on,0,0,1,,,,,,,,,0,,,64,101
60540,note_on,0,0,1,,,,,,,,,0,,,62,0
60540,note_on,0,0,1,,,,,,,,,0,,,69,0
60540,note_on,0,0,1,,,,,,,,,0,,,67,101
60540,note_on,30,0,1,,,,,,,,,0,,,74,0
60546,note_on,6,0,3,,,,,,,,,2,,,60,0
60546,note_on,6,0,1,,,,,,,,,0,,,76,0
60546,note_on,0,0,1,,,,,,,,,0,,,67,0
60546,note_on,0,0,1,,,,,,,,,0,,,64,0
60546,note_on,0,0,3,,,,,,,,,2,,,48,0
60546,note_on,0,0,3,,,,,,,,,2,,,55,0
60600,note_on,0,0,3,,,,,,,,,2,,,55,109
60600,note_on,0,0,1,,,,,,,,,0,,,76,127
60600,note_on,0,0,1,,,,,,,,,0,,,67,122
60600,note_on,0,0,3,,,,,,,,,2,,,60,114
60600,note_on,54,0,3,,,,,,,,,2,,,48,104
60600,note_on,54,0,1,,,,,,,,,0,,,64,117
60690,note_on,0,0,1,,,,,,,,,0,,,72,101
60690,note_on,0,0,1,,,,,,,,,0,,,79,101
60690,note_on,90,0,1,,,,,,,,,0,,,76,0
60690,note_on,0,0,3,,,,,,,,,2,,,55,0
60690,note_on,0,0,1,,,,,,,,,0,,,67,0
60690,note_on,0,0,3,,,,,,,,,2,,,64,88
60690,note_on,0,0,3,,,,,,,,,2,,,52,88
60690,note_on,0,0,3,,,,,,,,,2,,,48,0
60690,note_on,90,0,3,,,,,,,,,2,,,60,0
60690,note_on,0,0,1,,,,,,,,,0,,,64,0
60720,note_on,0,0,1,,,,,,,,,0,,,72,0
60720,note_on,0,0,1,,,,,,,,,0,,,76,101
60720,note_on,0,0,1,,,,,,,,,0,,,84,101
60720,note_on,30,0,1,,,,,,,,,0,,,79,0
60720,note_on,0,0,3,,,,,,,,,2,,,67,88
60720,note_on,0,0,3,,,,,,,,,2,,,55,88
60720,note_on,0,0,3,,,,,,,,,2,,,52,0
60720,note_on,0,0,1,,,,,,,,,0,,,72,101
60720,note_on,30,0,3,,,,,,,,,2,,,64,0
60750,note_on,0,0,3,,,,,,,,,2,,,64,88
60750,note_on,0,0,3,,,,,,,,,2,,,52,88
60750,note_on,0,0,3,,,,,,,,,2,,,55,0
60750,note_on,30,0,3,,,,,,,,,2,,,67,0
60750,note_on,0,0,1,,,,,,,,,0,,,72,0
60750,note_on,0,0,1,,,,,,,,,0,,,79,101
60750,note_on,0,0,1,,,,,,,,,0,,,72,101
60750,note_on,0,0,1,,,,,,,,,0,,,76,0
60750,note_on,30,0,1,,,,,,,,,0,,,84,0
60780,note_on,0,0,1,,,,,,,,,0,,,72,0
60780,note_on,30,0,1,,,,,,,,,0,,,79,0
60780,note_on,0,0,1,,,,,,,,,0,,,72,101
60780,note_on,0,0,1,,,,,,,,,0,,,76,101
60780,note_on,30,0,3,,,,,,,,,2,,,64,0
60780,note_on,0,0,3,,,,,,,,,2,,,60,88
60780,note_on,0,0,3,,,,,,,,,2,,,48,88
60780,note_on,0,0,3,,,,,,,,,2,,,52,0
60810,note_on,0,0,1,,,,,,,,,0,,,72,101
60810,note_on,0,0,3,,,,,,,,,2,,,59,88
60810,note_on,30,0,1,,,,,,,,,0,,,76,0
60810,note_on,0,0,3,,,,,,,,,2,,,47,88
60810,note_on,0,0,3,,,,,,,,,2,,,48,0
60810,note_on,30,0,3,,,,,,,,,2,,,60,0
60810,note_on,0,0,1,,,,,,,,,0,,,72,0
60840,note_on,0,0,1,,,,,,,,,0,,,72,101
60840,note_on,30,0,1,,,,,,,,,0,,,72,0
60840,note_on,0,0,1,,,,,,,,,0,,,76,101
60840,note_on,0,0,3,,,,,,,,,2,,,57,88
60840,note_on,30,0,3,,,,,,,,,2,,,59,0
60840,note_on,0,0,3,,,,,,,,,2,,,47,0
60840,note_on,0,0,3,,,,,,,,,2,,,45,88
60870,note_on,30,0,1,,,,,,,,,0,,,76,0
60870,note_on,0,0,1,,,,,,,,,0,,,72,101
60870,note_on,0,0,1,,,,,,,,,0,,,79,101
60870,control_change,0,0,1,,,,,,,,,0,64,0,,
60870,note_on,0,0,1,,,,,,,,,0,,,72,0
60870,note_on,30,0,3,,,,,,,,,2,,,57,0
60870,note_on,0,0,3,,,,,,,,,2,,,45,0
60870,control_change,0,0,3,,,,,,,,,2,64,0,,
60870,note_on,0,0,3,,,,,,,,,2,,,43,88
60870,note_on,0,0,3,,,,,,,,,2,,,55,88
60900,note_on,0,0,1,,,,,,,,,0,,,69,101
60900,note_on,0,0,1,,,,,,,,,0,,,81,101
60900,note_on,0,0,1,,,,,,,,,0,,,77,101
60900,note_on,0,0,1,,,,,,,,,0,,,72,101
60900,note_on,0,0,1,,,,,,,,,0,,,72,0
60900,note_on,30,0,1,,,,,,,,,0,,,79,0
60900,note_on,0,0,3,,,,,,,,,2,,,53,88
60900,note_on,0,0,3,,,,,,,,,2,,,48,88
60900,control_change,0,0,1,,,,,,,,,0,64,127,,
60900,note_on,0,0,3,,,,,,,,,2,,,41,88
60900,note_on,0,0,3,,,,,,,,,2,,,43,0
60900,note_on,30,0,3,,,,,,,,,2,,,55,0
60900,control_change,0,0,3,,,,,,,,,2,64,127,,
60906,note_on,6,0,3,,,,,,,,,2,,,53,0
60906,note_on,0,0,3,,,,,,,,,2,,,48,0
60906,note_on,0,0,3,,,,,,,,,2,,,41,0
60906,note_on,0,0,1,,,,,,,,,0,,,72,0
60906,note_on,0,0,1,,,,,,,,,0,,,69,0
60906,note_on,0,0,1,,,,,,,,,0,,,77,0
60906,note_on,6,0,1,,,,,,,,,0,,,81,0
60960,note_on,54,0,1,,,,,,,,,0,,,69,115
60960,note_on,0,0,1,,,,,,,,,0,,,72,119
60960,note_on,0,0,1,,,,,,,,,0,,,77,123
60960,note_on,0,0,1,,,,,,,,,0,,,81,127
60960,note_on,54,0,3,,,,,,,,,2,,,41,104
60960,note_on,0,0,3,,,,,,,,,2,,,53,114
60960,note_on,0,0,3,,,,,,,,,2,,,48,109
61050,note_on,0,0,1,,,,,,,,,0,,,77,0
61050,note_on,0,0,4,,,,,,,,,3,,,41,75
61050,control_change,5190,0,4,,,,,,,,,3,64,127,,
61050,note_on,0,0,3,,,,,,,,,2,,,41,0
61050,note_on,0,0,3,,,,,,,,,2,,,48,88
61050,note_on,90,0,1,,,,,,,,,0,,,81,0
61050,note_on,0,0,1,,,,,,,,,0,,,69,0
61050,note_on,0,0,1,,,,,,,,,0,,,72,0
61050,note_on,0,0,1,,,,,,,,,0,,,69,101
61050,note_on,0,0,3,,,,,,,,,2,,,48,0
61050,note_on,0,0,1,,,,,,,,,0,,,81,101
61050,note_on,0,0,1,,,,,,,,,0,,,72,101
61050,note_on,90,0,3,,,,,,,,,2,,,53,0
61080,note_on,30,0,3,,,,,,,,,2,,,48,0
61080,note_on,0,0,3,,,,,,,,,2,,,53,88
61110,note_on,0,0,1,,,,,,,,,0,,,69,0
61110,note_on,0,0,4,,,,,,,,,3,,,48,75
61110,note_on,0,0,4,,,,,,,,,3,,,43,75
61110,note_on,60,0,4,,,,,,,,,3,,,41,0
61110,note_on,30,0,3,,,,,,,,,2,,,53,0
61110,note_on,0,0,1,,,,,,,,,0,,,72,0
61110,note_on,0,0,3,,,,,,,,,2,,,55,88
61110,note_on,0,0,1,,,,,,,,,0,,,82,101
61110,note_on,0,0,1,,,,,,,,,0,,,70,101
61110,note_on,0,0,1,,,,,,,,,0,,,72,101
61110,note_on,60,0,1,,,,,,,,,0,,,81,0
61140,note_on,30,0,3,,,,,,,,,2,,,55,0
61140,note_on,0,0,1,,,,,,,,,0,,,69,101
61140,note_on,0,0,1,,,,,,,,,0,,,70,0
61140,note_on,0,0,1,,,,,,,,,0,,,72,0
61140,note_on,30,0,1,,,,,,,,,0,,,82,0
61140,note_on,0,0,1,,,,,,,,,0,,,72,101
61140,note_on,30,0,4,,,,,,,,,3,,,48,0
61140,note_on,0,0,4,,,,,,,,,3,,,43,0
61140,note_on,0,0,4,,,,,,,,,3,,,41,75
61140,note_on,0,0,4,,,,,,,,,3,,,48,75
61140,note_on,0,0,3,,,,,,,,,2,,,53,88
61140,note_on,0,0,1,,,,,,,,,0,,,81,101
61170,note_on,30,0,3,,,,,,,,,2,,,53,0
61170,note_on,0,0,3,,,,,,,,,2,,,48,88
61170,note_on,30,0,4,,,,,,,,,3,,,48,0
61170,note_on,0,0,4,,,,,,,,,3,,,41,0
61170,note_on,0,0,4,,,,,,,,,3,,,41,75
61170,note_on,0,0,1,,,,,,,,,0,,,81,101
61170,note_on,30,0,1,,,,,,,,,0,,,81,0
61170,note_on,0,0,1,,,,,,,,,0,,,72,0
61170,note_on,0,0,1,,,,,,,,,0,,,69,0
61170,note_on,0,0,1,,,,,,,,,0,,,69,101
61170,note_on,0,0,1,,,,,,,,,0,,,72,101
61200,note_on,0,0,3,,,,,,,,,2,,,53,88
61200,control_change,0,0,3,,,,,,,,,2,64,0,,
61200,note_on,30,0,3,,,,,,,,,2,,,48,0
61230,note_on,0,0,3,,,,,,,,,2,,,51,88
61230,note_on,30,0,3,,,,,,,,,2,,,53,0
61230,note_on,60,0,1,,,,,,,,,0,,,81,0
61230,note_on,0,0,1,,,,,,,,,0,,,72,0
61230,note_on,0,0,1,,,,,,,,,0,,,69,0
61230,control_change,0,0,4,,,,,,,,,3,64,0,,
61230,note_on,0,0,1,,,,,,,,,0,,,73,101
61230,note_on,0,0,4,,,,,,,,,3,,,39,75
61230,note_on,0,0,1,,,,,,,,,0,,,67,101
61230,control_change,0,0,1,,,,,,,,,0,64,0,,
61230,note_on,0,0,1,,,,,,,,,0,,,79,101
61230,note_on,60,0,4,,,,,,,,,3,,,41,0
61260,note_on,0,0,1,,,,,,,,,0,,,78,101
61260,note_on,0,0,3,,,,,,,,,2,,,50,88
61260,note_on,0,0,3,,,,,,,,,2,,,38,88
61260,control_change,0,0,3,,,,,,,,,2,64,127,,
61260,note_on,30,0,3,,,,,,,,,2,,,51,0
61260,control_change,0,0,1,,,,,,,,,0,64,127,,
61260,note_on,0,0,1,,,,,,,,,0,,,74,101
61260,note_on,30,0,4,,,,,,,,,3,,,39,0
61260,note_on,0,0,1,,,,,,,,,0,,,69,101
61260,note_on,0,0,1,,,,,,,,,0,,,67,0
61260,note_on,0,0,1,,,,,,,,,0,,,73,0
61260,note_on,30,0,1,,,,,,,,,0,,,79,0
61260,note_on,0,0,1,,,,,,,,,0,,,81,101
61266,note_on,6,0,1,,,,,,,,,0,,,81,0
61266,note_on,0,0,1,,,,,,,,,0,,,78,0
61266,note_on,0,0,1,,,,,,,,,0,,,74,0
61266,note_on,6,0,3,,,,,,,,,2,,,50,0
61266,note_on,0,0,3,,,,,,,,,2,,,38,0
61266,note_on,0,0,1,,,,,,,,,0,,,69,0
61320,note_on,0,0,1,,,,,,,,,0,,,78,123
61320,note_on,54,0,3,,,,,,,,,2,,,38,106
61320,note_on,0,0,3,,,,,,,,,2,,,50,114
61320,note_on,0,0,1,,,,,,,,,0,,,74,119
61320,note_on,54,0,1,,,,,,,,,0,,,69,115
61320,note_on,0,0,1,,,,,,,,,0,,,81,127
61410,note_on,90,0,1,,,,,,,,,0,,,81,0
61410,note_on,0,0,1,,,,,,,,,0,,,69,0
61410,note_on,0,0,1,,,,,,,,,0,,,74,0
61410,note_on,0,0,1,,,,,,,,,0,,,78,0
61410,note_on,0,0,1,,,,,,,,,0,,,74,101
61410,note_on,0,0,1,,,,,,,,,0,,,81,101
61410,note_on,90,0,3,,,,,,,,,2,,,50,0
61410,note_on,0,0,3,,,,,,,,,2,,,66,88
61410,note_on,0,0,3,,,,,,,,,2,,,54,88
61410,note_on,0,0,3,,,,,,,,,2,,,38,0
61440,note_on,0,0,1,,,,,,,,,0,,,74,101
61440,note_on,30,0,3,,,,,,,,,2,,,66,0
61440,note_on,0,0,1,,,,,,,,,0,,,74,0
61440,note_on,0,0,1,,,,,,,,,0,,,78,101
61440,note_on,0,0,3,,,,,,,,,2,,,69,88
61440,note_on,0,0,3,,,,,,,,,2,,,54,0
61440,note_on,30,0,1,,,,,,,,,0,,,81,0
61440,note_on,0,0,1,,,,,,,,,0,,,86,101
61440,note_on,0,0,3,,,,,,,,,2,,,57,88
61470,note_on,0,0,3,,,,,,,,,2,,,54,88
61470,note_on,30,0,3,,,,,,,,,2,,,69,0
61470,note_on,0,0,3,,,,,,,,,2,,,66,88
61470,note_on,0,0,1,,,,,,,,,0,,,74,101
61470,note_on,0,0,1,,,,,,,,,0,,,81,101
61470,note_on,0,0,1,,,,,,,,,0,,,78,101
61470,note_on,0,0,1,,,,,,,,,0,,,74,0
61470,note_on,0,0,1,,,,,,,,,0,,,78,0
61470,note_on,30,0,1,,,,,,,,,0,,,86,0
61470,note_on,0,0,3,,,,,,,,,2,,,57,0
61500,note_on,0,0,3,,,,,,,,,2,,,54,0
61500,note_on,0,0,3,,,,,,,,,2,,,50,88
61500,note_on,0,0,3,,,,,,,,,2,,,62,88
61500,note_on,30,0,3,,,,,,,,,2,,,66,0
61500,note_on,30,0,1,,,,,,,,,0,,,81,0
61500,note_on,0,0,1,,,,,,,,,0,,,74,101
61500,note_on,0,0,1,,,,,,,,,0,,,74,0
61500,note_on,0,0,1,,,,,,,,,0,,,78,0
61500,note_on,0,0,1,,,,,,,,,0,,,78,101
61530,note_on,30,0,3,,,,,,,,,2,,,62,0
61530,note_on,0,0,3,,,,,,,,,2,,,49,88
61530,note_on,0,0,3,,,,,,,,,2,,,50,0
61530,note_on,30,0,1,,,,,,,,,0,,,78,0
61530,note_on,0,0,1,,,,,,,,,0,,,74,0
61530,note_on,0,0,1,,,,,,,,,0,,,74,101
61530,note_on,0,0,3,,,,,,,,,2,,,61,88
61560,note_on,30,0,1,,,,,,,,,0,,,74,0
61560,note_on,0,0,1,,,,,,,,,0,,,74,101
61560,note_on,0,0,1,,,,,,,,,0,,,78,101
61560,note_on,0,0,3,,,,,,,,,2,,,59,88
61560,note_on,0,0,3,,,,,,,,,2,,,47,88
61560,note_on,0,0,3,,,,,,,,,2,,,49,0
61560,note_on,30,0,3,,,,,,,,,2,,,61,0
61590,note_on,0,0,3,,,,,,,,,2,,,47,0
61590,note_on,30,0,1,,,,,,,,,0,,,78,0
61590,note_on,0,0,1,,,,,,,,,0,,,74,0
61590,note_on,0,0,1,,,,,,,,,0,,,78,101
61590,control_change,0,0,1,,,,,,,,,0,64,0,,
61590,note_on,30,0,3,,,,,,,,,2,,,59,0
61590,note_on,0,0,3,,,,,,,,,2,,,57,88
61590,note_on,0,0,3,,,,,,,,,2,,,45,88
61590,control_change,0,0,3,,,,,,,,,2,64,0,,
61590,note_on,0,0,1,,,,,,,,,0,,,81,101
61590,note_on,0,0,1,,,,,,,,,0,,,74,101
61620,note_on,0,0,3,,,,,,,,,2,,,55,88
61620,note_on,0,0,3,,,,,,,,,2,,,50,88
61620,control_change,0,0,3,,,,,,,,,2,64,127,,
61620,note_on,0,0,3,,,,,,,,,2,,,45,0
61620,note_on,30,0,3,,,,,,,,,2,,,57,0
61620,note_on,0,0,3,,,,,,,,,2,,,43,88
61620,note_on,30,0,1,,,,,,,,,0,,,81,0
61620,note_on,0,0,1,,,,,,,,,0,,,78,0
61620,note_on,0,0,1,,,,,,,,,0,,,74,0
61620,note_on,0,0,1,,,,,,,,,0,,,71,101
61620,note_on,0,0,1,,,,,,,,,0,,,74,101
61620,note_on,0,0,1,,,,,,,,,0,,,79,101
61620,note_on,0,0,1,,,,,,,,,0,,,83,101
61620,control_change,0,0,1,,,,,,,,,0,64,127,,
61626,note_on,0,0,1,,,,,,,,,0,,,71,0
61626,note_on,0,0,1,,,,,,,,,0,,,79,0
61626,note_on,6,0,1,,,,,,,,,0,,,83,0
61626,note_on,0,0,1,,,,,,,,,0,,,74,0
61626,note_on,6,0,3,,,,,,,,,2,,,55,0
61626,note_on,0,0,3,,,,,,,,,2,,,43,0
61626,note_on,0,0,3,,,,,,,,,2,,,50,0
61680,note_on,54,0,1,,,,,,,,,0,,,71,115
61680,note_on,0,0,1,,,,,,,,,0,,,74,119
61680,note_on,0,0,3,,,,,,,,,2,,,50,109
61680,note_on,0,0,1,,,,,,,,,0,,,79,123
61680,note_on,0,0,1,,,,,,,,,0,,,83,127
61680,note_on,54,0,3,,,,,,,,,2,,,43,104
61680,note_on,0,0,3,,,,,,,,,2,,,55,114
61770,note_on,0,0,1,,,,,,,,,0,,,74,101
61770,note_on,0,0,1,,,,,,,,,0,,,74,0
61770,note_on,0,0,1,,,,,,,,,0,,,79,0
61770,note_on,90,0,3,,,,,,,,,2,,,55,0
61770,note_on,0,0,3,,,,,,,,,2,,,50,0
61770,note_on,0,0,3,,,,,,,,,2,,,43,0
61770,note_on,0,0,3,,,,,,,,,2,,,43,88
61770,note_on,0,0,3,,,,,,,,,2,,,50,88
61770,note_on,0,0,3,,,,,,,,,2,,,55,88
61770,note_on,90,0,1,,,,,,,,,0,,,83,0
61770,note_on,0,0,1,,,,,,,,,0,,,71,0
61770,note_on,0,0,1,,,,,,,,,0,,,83,101
61770,note_on,0,0,1,,,,,,,,,0,,,71,101
61830,note_on,60,0,1,,,,,,,,,0,,,83,0
61830,note_on,0,0,3,,,,,,,,,2,,,50,0
61830,note_on,60,0,3,,,,,,,,,2,,,55,0
61830,note_on,0,0,1,,,,,,,,,0,,,84,101
61830,note_on,0,0,1,,,,,,,,,0,,,74,101
61830,note_on,0,0,1,,,,,,,,,0,,,72,101
61830,note_on,0,0,1,,,,,,,,,0,,,71,0
61830,note_on,0,0,1,,,,,,,,,0,,,74,0
61830,note_on,0,0,3,,,,,,,,,2,,,45,88
61830,note_on,0,0,3,,,,,,,,,2,,,43,0
61830,note_on,0,0,3,,,,,,,,,2,,,50,88
61830,note_on,0,0,3,,,,,,,,,2,,,57,88
61860,note_on,0,0,1,,,,,,,,,0,,,83,101
61860,note_on,0,0,1,,,,,,,,,0,,,74,101
61860,note_on,0,0,1,,,,,,,,,0,,,71,101
61860,note_on,0,0,1,,,,,,,,,0,,,72,0
61860,note_on,0,0,1,,,,,,,,,0,,,74,0
61860,note_on,30,0,1,,,,,,,,,0,,,84,0
61860,note_on,0,0,3,,,,,,,,,2,,,50,0
61860,note_on,30,0,3,,,,,,,,,2,,,57,0
61860,note_on,0,0,3,,,,,,,,,2,,,45,0
61860,note_on,0,0,3,,,,,,,,,2,,,50,88
61860,note_on,0,0,3,,,,,,,,,2,,,43,88
61860,note_on,0,0,3,,,,,,,,,2,,,55,88
61890,note_on,0,0,1,,,,,,,,,0,,,71,101
61890,note_on,0,0,1,,,,,,,,,0,,,71,0
61890,note_on,0,0,1,,,,,,,,,0,,,74,0
61890,note_on,30,0,1,,,,,,,,,0,,,83,0
61890,control_change,0,0,1,,,,,,,,,0,64,0,,
61890,note_on,30,0,3,,,,,,,,,2,,,55,0
61890,note_on,0,0,1,,,,,,,,,0,,,74,101
61890,note_on,0,0,3,,,,,,,,,2,,,50,0
61890,control_change,0,0,3,,,,,,,,,2,64,0,,
61890,note_on,0,0,3,,,,,,,,,2,,,43,88
61890,note_on,0,0,3,,,,,,,,,2,,,50,88
61890,note_on,0,0,3,,,,,,,,,2,,,55,88
61890,note_on,0,0,3,,,,,,,,,2,,,43,0
61890,note_on,0,0,1,,,,,,,,,0,,,83,101
61950,note_on,60,0,1,,,,,,,,,0,,,83,0
61950,note_on,0,0,1,,,,,,,,,0,,,74,0
61950,note_on,0,0,1,,,,,,,,,0,,,71,0
61950,note_on,0,0,1,,,,,,,,,0,,,69,101
61950,note_on,0,0,3,,,,,,,,,2,,,43,0
61950,note_on,60,0,3,,,,,,,,,2,,,55,0
61950,note_on,0,0,1,,,,,,,,,0,,,75,101
61950,note_on,0,0,3,,,,,,,,,2,,,53,88
61950,note_on,0,0,3,,,,,,,,,2,,,41,88
61950,note_on,0,0,3,,,,,,,,,2,,,50,0
61950,note_on,0,0,1,,,,,,,,,0,,,81,101
61980,note_on,0,0,1,,,,,,,,,0,,,80,101
61980,note_on,0,0,1,,,,,,,,,0,,,75,0
61980,note_on,0,0,1,,,,,,,,,0,,,69,0
61980,note_on,0,0,1,,,,,,,,,0,,,71,101
61980,note_on,0,0,1,,,,,,,,,0,,,76,101
61980,note_on,0,0,1,,,,,,,,,0,,,83,101
61980,control_change,0,0,1,,,,,,,,,0,64,127,,
61980,note_on,0,0,3,,,,,,,,,2,,,52,88
61980,note_on,0,0,3,,,,,,,,,2,,,40,88
61980,control_change,0,0,3,,,,,,,,,2,64,127,,
61980,note_on,30,0,1,,,,,,,,,0,,,81,0
61980,note_on,30,0,3,,,,,,,,,2,,,53,0
61980,note_on,0,0,3,,,,,,,,,2,,,41,0
61986,note_on,0,0,1,,,,,,,,,0,,,76,0
61986,note_on,0,0,3,,,,,,,,,2,,,40,0
61986,note_on,0,0,1,,,,,,,,,0,,,71,0
61986,note_on,6,0,1,,,,,,,,,0,,,83,0
61986,note_on,0,0,1,,,,,,,,,0,,,80,0
61986,note_on,6,0,3,,,,,,,,,2,,,52,0
62040,note_on,0,0,1,,,,,,,,,0,,,83,127
62040,note_on,0,0,3,,,,,,,,,2,,,52,114
62040,note_on,0,0,1,,,,,,,,,0,,,80,123
62040,note_on,0,0,1,,,,,,,,,0,,,76,119
62040,note_on,54,0,3,,,,,,,,,2,,,40,106
62040,note_on,54,0,1,,,,,,,,,0,,,71,115
62130,note_on,90,0,3,,,,,,,,,2,,,52,0
62130,note_on,0,0,3,,,,,,,,,2,,,56,88
62130,note_on,0,0,3,,,,,,,,,2,,,40,0
62130,note_on,0,0,3,,,,,,,,,2,,,68,88
62130,note_on,0,0,1,,,,,,,,,0,,,83,101
62130,note_on,0,0,1,,,,,,,,,0,,,76,101
62130,note_on,0,0,1,,,,,,,,,0,,,80,0
62130,note_on,0,0,1,,,,,,,,,0,,,76,0
62130,note_on,0,0,1,,,,,,,,,0,,,71,0
62130,note_on,90,0,1,,,,,,,,,0,,,83,0
62160,note_on,30,0,3,,,,,,,,,2,,,68,0
62160,note_on,0,0,1,,,,,,,,,0,,,88,101
62160,note_on,0,0,1,,,,,,,,,0,,,80,101
62160,note_on,0,0,1,,,,,,,,,0,,,76,101
62160,note_on,0,0,1,,,,,,,,,0,,,76,0
62160,note_on,30,0,1,,,,,,,,,0,,,83,0
62160,note_on,0,0,3,,,,,,,,,2,,,71,88
62160,note_on,0,0,3,,,,,,,,,2,,,56,0
62160,note_on,0,0,3,,,,,,,,,2,,,59,88
62190,note_on,0,0,3,,,,,,,,,2,,,59,0
62190,note_on,0,0,3,,,,,,,,,2,,,56,88
62190,note_on,30,0,1,,,,,,,,,0,,,88,0
62190,note_on,0,0,3,,,,,,,,,2,,,68,88
62190,note_on,0,0,1,,,,,,,,,0,,,80,0
62190,note_on,0,0,1,,,,,,,,,0,,,76,101
62190,note_on,30,0,3,,,,,,,,,2,,,71,0
62190,note_on,0,0,1,,,,,,,,,0,,,83,101
62190,note_on,0,0,1,,,,,,,,,0,,,76,0
62190,note_on,0,0,1,,,,,,,,,0,,,80,101
62220,note_on,0,0,1,,,,,,,,,0,,,80,0
62220,note_on,0,0,1,,,,,,,,,0,,,76,0
62220,note_on,0,0,1,,,,,,,,,0,,,76,101
62220,note_on,0,0,1,,,,,,,,,0,,,80,101
62220,note_on,0,0,3,,,,,,,,,2,,,64,88
62220,note_on,0,0,3,,,,,,,,,2,,,52,88
62220,control_change,0,0,3,,,,,,,,,2,64,0,,
62220,note_on,0,0,3,,,,,,,,,2,,,56,0
62220,note_on,30,0,3,,,,,,,,,2,,,68,0
62220,control_change,0,0,1,,,,,,,,,0,64,0,,
62220,note_on,30,0,1,,,,,,,,,0,,,83,0
62250,note_on,30,0,3,,,,,,,,,2,,,64,0
62250,note_on,30,0,1,,,,,,,,,0,,,80,0
62250,note_on,0,0,1,,,,,,,,,0,,,76,0
62250,note_on,0,0,1,,,,,,,,,0,,,76,101
62250,note_on,0,0,3,,,,,,,,,2,,,52,0
62250,note_on,0,0,3,,,,,,,,,2,,,50,88
62250,note_on,0,0,3,,,,,,,,,2,,,62,88
62280,note_on,30,0,1,,,,,,,,,0,,,76,0
62280,note_on,0,0,1,,,,,,,,,0,,,80,101
62280,note_on,0,0,1,,,,,,,,,0,,,76,101
62280,note_on,30,0,3,,,,,,,,,2,,,62,0
62280,note_on,0,0,3,,,,,,,,,2,,,60,88
62280,note_on,0,0,3,,,,,,,,,2,,,48,88
62280,note_on,0,0,3,,,,,,,,,2,,,50,0
62310,note_on,0,0,1,,,,,,,,,0,,,76,101
62310,note_on,0,0,1,,,,,,,,,0,,,80,101
62310,note_on,0,0,1,,,,,,,,,0,,,83,101
62310,note_on,0,0,1,,,,,,,,,0,,,76,0
62310,note_on,30,0,1,,,,,,,,,0,,,80,0
62310,note_on,0,0,3,,,,,,,,,2,,,48,0
62310,note_on,0,0,3,,,,,,,,,2,,,47,88
62310,note_on,0,0,3,,,,,,,,,2,,,59,88
62310,note_on,30,0,3,,,,,,,,,2,,,60,0
62340,note_on,0,0,3,,,,,,,,,2,,,52,88
62340,note_on,0,0,3,,,,,,,,,2,,,45,88
62340,control_change,0,0,3,,,,,,,,,2,64,127,,
62340,note_on,30,0,1,,,,,,,,,0,,,83,0
62340,note_on,0,0,1,,,,,,,,,0,,,80,0
62340,note_on,0,0,1,,,,,,,,,0,,,76,0
62340,note_on,0,0,1,,,,,,,,,0,,,76,101
62340,note_on,0,0,1,,,,,,,,,0,,,81,101
62340,note_on,0,0,1,,,,,,,,,0,,,84,101
62340,control_change,0,0,1,,,,,,,,,0,64,127,,
62340,note_on,0,0,3,,,,,,,,,2,,,47,0
62340,note_on,30,0,3,,,,,,,,,2,,,59,0
62340,note_on,0,0,1,,,,,,,,,0,,,72,101
62340,note_on,0,0,3,,,,,,,,,2,,,57,88
62346,note_on,0,0,1,,,,,,,,,0,,,72,0
62346,note_on,0,0,1,,,,,,,,,0,,,76,0
62346,note_on,6,0,1,,,,,,,,,0,,,84,0
62346,note_on,0,0,3,,,,,,,,,2,,,52,0
62346,note_on,6,0,3,,,,,,,,,2,,,57,0
62346,note_on,0,0,3,,,,,,,,,2,,,45,0
62346,note_on,0,0,1,,,,,,,,,0,,,81,0
62400,note_on,0,0,1,,,,,,,,,0,,,84,127
62400,note_on,0,0,1,,,,,,,,,0,,,76,119
62400,note_on,54,0,1,,,,,,,,,0,,,72,115
62400,note_on,54,0,3,,,,,,,,,2,,,45,104
62400,note_on,0,0,3,,,,,,,,,2,,,52,109
62400,note_on,0,0,3,,,,,,,,,2,,,57,114
62400,note_on,0,0,1,,,,,,,,,0,,,81,123
62490,note_on,0,0,3,,,,,,,,,2,,,45,0
62490,note_on,90,0,3,,,,,,,,,2,,,57,0
62490,note_on,0,0,3,,,,,,,,,2,,,52,0
62490,note_on,0,0,3,,,,,,,,,2,,,45,104
62490,note_on,0,0,1,,,,,,,,,0,,,72,0
62490,note_on,0,0,3,,,,,,,,,2,,,57,114
62490,note_on,0,0,1,,,,,,,,,0,,,84,127
62490,note_on,0,0,1,,,,,,,,,0,,,81,123
62490,note_on,0,0,1,,,,,,,,,0,,,76,119
62490,note_on,0,0,1,,,,,,,,,0,,,72,115
62490,note_on,0,0,1,,,,,,,,,0,,,81,0
62490,note_on,0,0,1,,,,,,,,,0,,,76,0
62490,note_on,90,0,1,,,,,,,,,0,,,84,0
62490,note_on,0,0,3,,,,,,,,,2,,,52,109
62550,note_on,60,0,3,,,,,,,,,2,,,57,0
62550,note_on,0,0,3,,,,,,,,,2,,,45,0
62550,note_on,0,0,3,,,,,,,,,2,,,52,0
62550,note_on,0,0,3,,,,,,,,,2,,,45,88
62550,note_on,0,0,3,,,,,,,,,2,,,57,88
62550,note_on,60,0,1,,,,,,,,,0,,,84,0
62550,note_on,0,0,1,,,,,,,,,0,,,72,0
62550,note_on,0,0,1,,,,,,,,,0,,,76,0
62550,note_on,0,0,1,,,,,,,,,0,,,81,0
62550,note_on,0,0,1,,,,,,,,,0,,,72,101
62550,note_on,0,0,1,,,,,,,,,0,,,76,101
62550,note_on,0,0,1,,,,,,,,,0,,,81,101
62550,note_on,0,0,1,,,,,,,,,0,,,84,101
62550,control_change,0,0,1,,,,,,,,,0,64,0,,
62550,control_change,0,0,3,,,,,,,,,2,64,0,,
62550,note_on,0,0,3,,,,,,,,,2,,,52,88
62554,note_on,0,0,1,,,,,,,,,0,,,72,0
62554,note_on,0,0,1,,,,,,,,,0,,,76,0
62554,note_on,0,0,1,,,,,,,,,0,,,81,0
62554,note_on,4,0,1,,,,,,,,,0,,,84,0
62554,note_on,4,0,3,,,,,,,,,2,,,57,0
62554,note_on,0,0,3,,,,,,,,,2,,,52,0
62554,note_on,0,0,3,,,,,,,,,2,,,45,0
62580,note_on,0,0,1,,,,,,,,,0,,,72,101
62580,control_change,26,0,3,,,,,,,,,2,64,127,,
62580,note_on,0,0,3,,,,,,,,,2,,,45,88
62580,note_on,0,0,3,,,,,,,,,2,,,52,88
62580,note_on,0,0,3,,,,,,,,,2,,,57,88
62580,control_change,26,0,1,,,,,,,,,0,64,127,,
62580,note_on,0,0,1,,,,,,,,,0,,,76,101
62580,note_on,0,0,1,,,,,,,,,0,,,81,101
62580,note_on,0,0,1,,,,,,,,,0,,,84,101
62586,note_on,6,0,3,,,,,,,,,2,,,57,0
62586,note_on,0,0,1,,,,,,,,,0,,,76,0
62586,note_on,0,0,1,,,,,,,,,0,,,72,0
62586,note_on,0,0,3,,,,,,,,,2,,,52,0
62586,note_on,0,0,1,,,,,,,,,0,,,81,0
62586,note_on,6,0,1,,,,,,,,,0,,,84,0
62586,note_on,0,0,3,,,,,,,,,2,,,45,0
62640,note_on,54,0,1,,,,,,,,,0,,,72,115
62640,note_on,0,0,3,,,,,,,,,2,,,52,109
62640,note_on,0,0,3,,,,,,,,,2,,,57,114
62640,note_on,0,0,1,,,,,,,,,0,,,76,119
62640,note_on,0,0,1,,,,,,,,,0,,,81,123
62640,note_on,0,0,1,,,,,,,,,0,,,84,127
62640,note_on,54,0,3,,,,,,,,,2,,,45,104
62730,note_on,0,0,3,,,,,,,,,2,,,52,0
62730,note_on,90,0,3,,,,,,,,,2,,,57,0
62730,note_on,0,0,3,,,,,,,,,2,,,57,114
62730,note_on,0,0,3,,,,,,,,,2,,,52,109
62730,note_on,0,0,3,,,,,,,,,2,,,45,104
62730,note_on,0,0,3,,,,,,,,,2,,,45,0
62730,note_on,0,0,1,,,,,,,,,0,,,72,0
62730,note_on,0,0,1,,,,,,,,,0,,,81,0
62730,note_on,90,0,1,,,,,,,,,0,,,84,0
62730,note_on,0,0,1,,,,,,,,,0,,,76,0
62730,note_on,0,0,1,,,,,,,,,0,,,72,115
62730,note_on,0,0,1,,,,,,,,,0,,,76,119
62730,note_on,0,0,1,,,,,,,,,0,,,81,123
62730,note_on,0,0,1,,,,,,,,,0,,,84,127
62790,note_on,0,0,1,,,,,,,,,0,,,72,101
62790,control_change,0,0,3,,,,,,,,,2,64,0,,
62790,note_on,0,0,3,,,,,,,,,2,,,45,0
62790,note_on,0,0,3,,,,,,,,,2,,,52,0
62790,note_on,60,0,3,,,,,,,,,2,,,57,0
62790,note_on,0,0,3,,,,,,,,,2,,,57,88
62790,note_on,0,0,1,,,,,,,,,0,,,76,101
62790,control_change,0,0,1,,,,,,,,,0,64,0,,
62790,note_on,0,0,3,,,,,,,,,2,,,52,88
62790,note_on,0,0,1,,,,,,,,,0,,,81,101
62790,note_on,0,0,3,,,,,,,,,2,,,45,88
62790,note_on,60,0,1,,,,,,,,,0,,,84,0
62790,note_on,0,0,1,,,,,,,,,0,,,72,0
62790,note_on,0,0,1,,,,,,,,,0,,,76,0
62790,note_on,0,0,1,,,,,,,,,0,,,81,0
62790,note_on,0,0,1,,,,,,,,,0,,,84,101
62794,note_on,0,0,3,,,,,,,,,2,,,52,0
62794,note_on,0,0,3,,,,,,,,,2,,,45,0
62794,note_on,4,0,3,,,,,,,,,2,,,57,0
62794,note_on,0,0,1,,,,,,,,,0,,,76,0
62794,note_on,0,0,1,,,,,,,,,0,,,81,0
62794,note_on,4,0,1,,,,,,,,,0,,,84,0
62794,note_on,0,0,1,,,,,,,,,0,,,72,0
62820,control_change,26,0,3,,,,,,,,,2,64,127,,
62820,note_on,0,0,3,,,,,,,,,2,,,43,104
62820,note_on,0,0,3,,,,,,,,,2,,,50,109
62820,note_on,0,0,3,,,,,,,,,2,,,55,114
62820,note_on,0,0,1,,,,,,,,,0,,,74,115
62820,note_on,0,0,1,,,,,,,,,0,,,83,123
62820,control_change,26,0,1,,,,,,,,,0,64,127,,
62820,note_on,0,0,1,,,,,,,,,0,,,79,119
62820,note_on,0,0,1,,,,,,,,,0,,,86,127
62880,note_on,0,0,3,,,,,,,,,2,,,55,88
62880,note_on,0,0,3,,,,,,,,,2,,,50,88
62880,note_on,0,0,3,,,,,,,,,2,,,43,0
62880,note_on,0,0,3,,,,,,,,,2,,,50,0
62880,note_on,60,0,3,,,,,,,,,2,,,55,0
62880,note_on,60,0,1,,,,,,,,,0,,,86,0
62880,note_on,0,0,1,,,,,,,,,0,,,74,0
62880,note_on,0,0,3,,,,,,,,,2,,,43,88
62880,note_on,0,0,1,,,,,,,,,0,,,83,0
62880,note_on,0,0,1,,,,,,,,,0,,,74,101
62880,note_on,0,0,1,,,,,,,,,0,,,79,101
62880,note_on,0,0,1,,,,,,,,,0,,,83,101
62880,note_on,0,0,1,,,,,,,,,0,,,86,101
62880,note_on,0,0,1,,,,,,,,,0,,,79,0
62970,note_on,0,0,3,,,,,,,,,2,,,43,104
62970,note_on,0,0,3,,,,,,,,,2,,,43,0
62970,note_on,0,0,3,,,,,,,,,2,,,50,0
62970,note_on,90,0,3,,,,,,,,,2,,,55,0
62970,note_on,0,0,1,,,,,,,,,0,,,83,0
62970,note_on,0,0,1,,,,,,,,,0,,,74,0
62970,note_on,0,0,1,,,,,,,,,0,,,74,115
62970,note_on,90,0,1,,,,,,,,,0,,,86,0
62970,note_on,0,0,1,,,,,,,,,0,,,86,127
62970,note_on,0,0,3,,,,,,,,,2,,,50,109
62970,note_on,0,0,1,,,,,,,,,0,,,79,0
62970,note_on,0,0,3,,,,,,,,,2,,,55,114
62970,note_on,0,0,1,,,,,,,,,0,,,79,119
62970,note_on,0,0,1,,,,,,,,,0,,,83,123
63030,control_change,0,0,1,,,,,,,,,0,64,0,,
63030,note_on,0,0,1,,,,,,,,,0,,,86,101
63030,note_on,0,0,1,,,,,,,,,0,,,83,101
63030,note_on,0,0,1,,,,,,,,,0,,,79,101
63030,note_on,0,0,1,,,,,,,,,0,,,74,101
63030,note_on,0,0,1,,,,,,,,,0,,,79,0
63030,note_on,0,0,1,,,,,,,,,0,,,74,0
63030,note_on,60,0,1,,,,,,,,,0,,,86,0
63030,note_on,60,0,3,,,,,,,,,2,,,55,0
63030,note_on,0,0,3,,,,,,,,,2,,,50,0
63030,note_on,0,0,3,,,,,,,,,2,,,43,0
63030,note_on,0,0,1,,,,,,,,,0,,,83,0
63030,note_on,0,0,3,,,,,,,,,2,,,43,88
63030,note_on,0,0,3,,,,,,,,,2,,,50,88
63030,note_on,0,0,3,,,,,,,,,2,,,55,88
63030,control_change,0,0,3,,,,,,,,,2,64,0,,
63034,note_on,0,0,1,,,,,,,,,0,,,83,0
63034,note_on,0,0,1,,,,,,,,,0,,,79,0
63034,note_on,0,0,1,,,,,,,,,0,,,74,0
63034,note_on,4,0,1,,,,,,,,,0,,,86,0
63034,note_on,0,0,3,,,,,,,,,2,,,43,0
63034,note_on,0,0,3,,,,,,,,,2,,,50,0
63034,note_on,4,0,3,,,,,,,,,2,,,55,0
63060,note_on,0,0,3,,,,,,,,,2,,,43,88
63060,note_on,0,0,3,,,,,,,,,2,,,50,88
63060,note_on,0,0,3,,,,,,,,,2,,,55,88
63060,control_change,26,0,1,,,,,,,,,0,64,127,,
63060,note_on,0,0,1,,,,,,,,,0,,,74,101
63060,note_on,0,0,1,,,,,,,,,0,,,79,101
63060,note_on,0,0,1,,,,,,,,,0,,,83,101
63060,note_on,0,0,1,,,,,,,,,0,,,86,101
63060,control_change,26,0,3,,,,,,,,,2,64,127,,
63066,note_on,0,0,3,,,,,,,,,2,,,50,0
63066,note_on,6,0,1,,,,,,,,,0,,,86,0
63066,note_on,0,0,1,,,,,,,,,0,,,74,0
63066,note_on,0,0,1,,,,,,,,,0,,,83,0
63066,note_on,6,0,3,,,,,,,,,2,,,55,0
63066,note_on,0,0,1,,,,,,,,,0,,,79,0
63066,note_on,0,0,3,,,,,,,,,2,,,43,0
63120,note_on,54,0,1,,,,,,,,,0,,,74,115
63120,note_on,0,0,3,,,,,,,,,2,,,50,109
63120,note_on,0,0,3,,,,,,,,,2,,,55,114
63120,note_on,0,0,1,,,,,,,,,0,,,79,119
63120,note_on,54,0,3,,,,,,,,,2,,,43,104
63120,note_on,0,0,1,,,,,,,,,0,,,83,123
63120,note_on,0,0,1,,,,,,,,,0,,,86,127
63210,note_on,0,0,1,,,,,,,,,0,,,86,127
63210,note_on,0,0,1,,,,,,,,,0,,,79,0
63210,note_on,90,0,1,,,,,,,,,0,,,86,0
63210,note_on,0,0,1,,,,,,,,,0,,,74,0
63210,note_on,90,0,3,,,,,,,,,2,,,55,0
63210,note_on,0,0,3,,,,,,,,,2,,,50,0
63210,note_on,0,0,1,,,,,,,,,0,,,83,0
63210,note_on,0,0,3,,,,,,,,,2,,,43,104
63210,note_on,0,0,3,,,,,,,,,2,,,50,109
63210,note_on,0,0,3,,,,,,,,,2,,,55,114
63210,note_on,0,0,1,,,,,,,,,0,,,83,123
63210,note_on,0,0,1,,,,,,,,,0,,,79,119
63210,note_on,0,0,1,,,,,,,,,0,,,74,115
63210,note_on,0,0,3,,,,,,,,,2,,,43,0
63270,control_change,0,0,1,,,,,,,,,0,64,0,,
63270,note_on,0,0,1,,,,,,,,,0,,,86,101
63270,note_on,0,0,1,,,,,,,,,0,,,83,101
63270,note_on,0,0,1,,,,,,,,,0,,,79,101
63270,note_on,0,0,1,,,,,,,,,0,,,74,101
63270,note_on,0,0,1,,,,,,,,,0,,,83,0
63270,note_on,0,0,1,,,,,,,,,0,,,79,0
63270,note_on,60,0,1,,,,,,,,,0,,,86,0
63270,note_on,0,0,3,,,,,,,,,2,,,55,88
63270,note_on,0,0,3,,,,,,,,,2,,,50,88
63270,note_on,0,0,3,,,,,,,,,2,,,43,88
63270,note_on,0,0,3,,,,,,,,,2,,,43,0
63270,note_on,0,0,3,,,,,,,,,2,,,50,0
63270,note_on,60,0,3,,,,,,,,,2,,,55,0
63270,note_on,0,0,1,,,,,,,,,0,,,74,0
63270,control_change,0,0,3,,,,,,,,,2,64,0,,
63274,note_on,4,0,1,,,,,,,,,0,,,86,0
63274,note_on,0,0,1,,,,,,,,,0,,,83,0
63274,note_on,0,0,1,,,,,,,,,0,,,74,0
63274,note_on,4,0,3,,,,,,,,,2,,,55,0
63274,note_on,0,0,1,,,,,,,,,0,,,79,0
63274,note_on,0,0,3,,,,,,,,,2,,,43,0
63274,note_on,0,0,3,,,,,,,,,2,,,50,0
63300,control_change,26,0,1,,,,,,,,,0,64,127,,
63300,note_on,0,0,1,,,,,,,,,0,,,76,101
63300,note_on,0,0,1,,,,,,,,,0,,,79,101
63300,note_on,0,0,1,,,,,,,,,0,,,84,101
63300,note_on,0,0,1,,,,,,,,,0,,,88,101
63300,control_change,26,0,3,,,,,,,,,2,64,127,,
63300,note_on,0,0,3,,,,,,,,,2,,,36,88
63300,note_on,0,0,3,,,,,,,,,2,,,43,88
63300,note_on,0,0,3,,,,,,,,,2,,,48,88
63306,note_on,0,0,3,,,,,,,,,2,,,43,0
63306,note_on,0,0,3,,,,,,,,,2,,,36,0
63306,note_on,6,0,3,,,,,,,,,2,,,48,0
63306,note_on,0,0,1,,,,,,,,,0,,,84,0
63306,note_on,0,0,1,,,,,,,,,0,,,79,0
63306,note_on,0,0,1,,,,,,,,,0,,,76,0
63306,note_on,6,0,1,,,,,,,,,0,,,88,0
63360,note_on,54,0,1,,,,,,,,,0,,,76,115
63360,note_on,0,0,1,,,,,,,,,0,,,84,123
63360,note_on,0,0,1,,,,,,,,,0,,,88,127
63360,note_on,54,0,3,,,,,,,,,2,,,36,104
63360,note_on,0,0,1,,,,,,,,,0,,,79,119
63360,note_on,0,0,3,,,,,,,,,2,,,48,114
63360,note_on,0,0,3,,,,,,,,,2,,,43,109
63450,note_on,0,0,1,,,,,,,,,0,,,84,0
63450,note_on,0,0,1,,,,,,,,,0,,,84,123
63450,note_on,0,0,1,,,,,,,,,0,,,79,119
63450,note_on,0,0,1,,,,,,,,,0,,,76,115
63450,note_on,0,0,1,,,,,,,,,0,,,79,0
63450,note_on,0,0,1,,,,,,,,,0,,,76,0
63450,note_on,90,0,1,,,,,,,,,0,,,88,0
63450,note_on,90,0,3,,,,,,,,,2,,,48,0
63450,note_on,0,0,1,,,,,,,,,0,,,88,127
63450,note_on,0,0,3,,,,,,,,,2,,,36,0
63450,note_on,0,0,3,,,,,,,,,2,,,36,104
63450,note_on,0,0,3,,,,,,,,,2,,,43,109
63450,note_on,0,0,3,,,,,,,,,2,,,48,114
63450,note_on,0,0,3,,,,,,,,,2,,,43,0
63510,note_on,0,0,3,,,,,,,,,2,,,36,88
63510,note_on,60,0,3,,,,,,,,,2,,,48,0
63510,note_on,0,0,3,,,,,,,,,2,,,43,0
63510,note_on,0,0,3,,,,,,,,,2,,,43,88
63510,note_on,0,0,1,,,,,,,,,0,,,84,101
63510,note_on,0,0,1,,,,,,,,,0,,,79,101
63510,note_on,0,0,1,,,,,,,,,0,,,76,101
63510,note_on,0,0,1,,,,,,,,,0,,,84,0
63510,note_on,0,0,1,,,,,,,,,0,,,79,0
63510,note_on,0,0,1,,,,,,,,,0,,,76,0
63510,note_on,0,0,1,,,,,,,,,0,,,88,101
63510,note_on,0,0,3,,,,,,,,,2,,,48,88
63510,note_on,0,0,3,,,,,,,,,2,,,36,0
63510,note_on,60,0,1,,,,,,,,,0,,,88,0
63514,note_on,4,0,1,,,,,,,,,0,,,88,0
63514,note_on,4,0,3,,,,,,,,,2,,,48,0
63514,note_on,0,0,3,,,,,,,,,2,,,43,0
63514,note_on,0,0,1,,,,,,,,,0,,,79,0
63514,note_on,0,0,1,,,,,,,,,0,,,84,0
63514,note_on,0,0,3,,,,,,,,,2,,,36,0
63514,note_on,0,0,1,,,,,,,,,0,,,76,0
63540,note_on,26,0,1,,,,,,,,,0,,,76,101
63540,note_on,0,0,1,,,,,,,,,0,,,79,101
63540,note_on,0,0,3,,,,,,,,,2,,,48,88
63540,note_on,0,0,1,,,,,,,,,0,,,88,101
63540,note_on,0,0,1,,,,,,,,,0,,,84,101
63540,note_on,0,0,3,,,,,,,,,2,,,43,88
63540,note_on,26,0,3,,,,,,,,,2,,,36,88
63546,note_on,6,0,1,,,,,,,,,0,,,88,0
63546,note_on,0,0,1,,,,,,,,,0,,,79,0
63546,note_on,6,0,3,,,,,,,,,2,,,48,0
63546,note_on,0,0,3,,,,,,,,,2,,,43,0
63546,note_on,0,0,3,,,,,,,,,2,,,36,0
63546,note_on,0,0,1,,,,,,,,,0,,,76,0
63546,note_on,0,0,1,,,,,,,,,0,,,84,0
63600,note_on,0,0,3,,,,,,,,,2,,,43,109
63600,control_change,54,0,1,,,,,,,,,0,64,0,,
63600,note_on,0,0,1,,,,,,,,,0,,,76,115
63600,note_on,0,0,1,,,,,,,,,0,,,79,119
63600,note_on,0,0,1,,,,,,,,,0,,,88,127
63600,control_change,54,0,3,,,,,,,,,2,64,0,,
63600,note_on,0,0,3,,,,,,,,,2,,,36,104
63600,note_on,0,0,3,,,,,,,,,2,,,48,114
63600,note_on,0,0,1,,,,,,,,,0,,,84,123
63690,note_on,0,0,1,,,,,,,,,0,,,67,49
63690,note_on,0,0,1,,,,,,,,,0,,,76,0
63690,control_change,0,0,3,,,,,,,,,2,64,127,,
63690,note_on,0,0,3,,,,,,,,,2,,,36,0
63690,note_on,0,0,3,,,,,,,,,2,,,43,0
63690,note_on,90,0,3,,,,,,,,,2,,,48,0
63690,note_on,90,0,1,,,,,,,,,0,,,88,0
63690,note_on,0,0,3,,,,,,,,,2,,,60,36
63690,note_on,0,0,3,,,,,,,,,2,,,48,36
63690,note_on,0,0,3,,,,,,,,,2,,,55,36
63690,control_change,0,0,1,,,,,,,,,0,64,127,,
63690,note_on,0,0,1,,,,,,,,,0,,,76,49
63690,note_on,0,0,1,,,,,,,,,0,,,72,49
63690,note_on,0,0,1,,,,,,,,,0,,,64,49
63690,note_on,0,0,1,,,,,,,,,0,,,84,0
63690,note_on,0,0,1,,,,,,,,,0,,,79,0
63696,note_on,0,0,3,,,,,,,,,2,,,55,0
63696,note_on,6,0,3,,,,,,,,,2,,,60,0
63696,note_on,0,0,1,,,,,,,,,0,,,72,0
63696,note_on,0,0,1,,,,,,,,,0,,,64,0
63696,note_on,6,0,1,,,,,,,,,0,,,76,0
63696,note_on,0,0,1,,,,,,,,,0,,,67,0
63696,note_on,0,0,3,,,,,,,,,2,,,48,0
63750,note_on,0,0,1,,,,,,,,,0,,,72,49
63750,note_on,0,0,1,,,,,,,,,0,,,67,49
63750,note_on,0,0,1,,,,,,,,,0,,,76,49
63750,note_on,54,0,3,,,,,,,,,2,,,48,36
63750,note_on,0,0,3,,,,,,,,,2,,,55,36
63750,note_on,0,0,3,,,,,,,,,2,,,60,36
63750,note_on,54,0,1,,,,,,,,,0,,,64,49
63754,note_on,4,0,1,,,,,,,,,0,,,76,0
63754,note_on,0,0,1,,,,,,,,,0,,,64,0
63754,note_on,0,0,1,,,,,,,,,0,,,67,0
63754,note_on,0,0,1,,,,,,,,,0,,,72,0
63754,note_on,4,0,3,,,,,,,,,2,,,60,0
63754,note_on,0,0,3,,,,,,,,,2,,,55,0
63754,note_on,0,0,3,,,,,,,,,2,,,48,0
63780,note_on,26,0,3,,,,,,,,,2,,,48,52
63780,note_on,0,0,3,,,,,,,,,2,,,55,57
63780,note_on,0,0,3,,,,,,,,,2,,,60,62
63780,note_on,0,0,1,,,,,,,,,0,,,72,71
63780,note_on,26,0,1,,,,,,,,,0,,,64,63
63780,note_on,0,0,1,,,,,,,,,0,,,67,67
63780,note_on,0,0,1,,,,,,,,,0,,,76,75
63840,control_change,0,0,1,,,,,,,,,0,64,0,,
63840,note_on,0,0,1,,,,,,,,,0,,,72,49
63840,note_on,0,0,1,,,,,,,,,0,,,76,49
63840,note_on,0,0,3,,,,,,,,,2,,,60,36
63840,note_on,0,0,3,,,,,,,,,2,,,55,36
63840,note_on,0,0,3,,,,,,,,,2,,,48,36
63840,control_change,0,0,3,,,,,,,,,2,64,0,,
63840,note_on,0,0,3,,,,,,,,,2,,,48,0
63840,note_on,0,0,3,,,,,,,,,2,,,55,0
63840,note_on,60,0,3,,,,,,,,,2,,,60,0
63840,note_on,0,0,1,,,,,,,,,0,,,67,49
63840,note_on,0,0,1,,,,,,,,,0,,,64,49
63840,note_on,0,0,1,,,,,,,,,0,,,72,0
63840,note_on,0,0,1,,,,,,,,,0,,,67,0
63840,note_on,0,0,1,,,,,,,,,0,,,64,0
63840,note_on,60,0,1,,,,,,,,,0,,,76,0
63930,note_on,0,0,3,,,,,,,,,2,,,55,0
63930,note_on,0,0,3,,,,,,,,,2,,,48,0
63930,control_change,0,0,3,,,,,,,,,2,64,127,,
63930,note_on,0,0,3,,,,,,,,,2,,,48,36
63930,note_on,0,0,3,,,,,,,,,2,,,55,36
63930,note_on,90,0,3,,,,,,,,,2,,,60,0
63930,note_on,0,0,1,,,,,,,,,0,,,64,49
63930,note_on,90,0,1,,,,,,,,,0,,,76,0
63930,note_on,0,0,1,,,,,,,,,0,,,64,0
63930,note_on,0,0,1,,,,,,,,,0,,,67,0
63930,note_on,0,0,1,,,,,,,,,0,,,72,0
63930,note_on,0,0,3,,,,,,,,,2,,,60,36
63930,note_on,0,0,1,,,,,,,,,0,,,67,49
63930,note_on,0,0,1,,,,,,,,,0,,,72,49
63930,note_on,0,0,1,,,,,,,,,0,,,76,49
63930,control_change,0,0,1,,,,,,,,,0,64,127,,
63936,note_on,0,0,3,,,,,,,,,2,,,48,0
63936,note_on,0,0,3,,,,,,,,,2,,,55,0
63936,note_on,6,0,3,,,,,,,,,2,,,60,0
63936,note_on,0,0,1,,,,,,,,,0,,,64,0
63936,note_on,0,0,1,,,,,,,,,0,,,67,0
63936,note_on,0,0,1,,,,,,,,,0,,,72,0
63936,note_on,6,0,1,,,,,,,,,0,,,76,0
63990,note_on,0,0,3,,,,,,,,,2,,,55,36
63990,note_on,54,0,3,,,,,,,,,2,,,48,36
63990,note_on,0,0,3,,,,,,,,,2,,,60,36
63990,note_on,0,0,1,,,,,,,,,0,,,72,49
63990,note_on,0,0,1,,,,,,,,,0,,,67,49
63990,note_on,54,0,1,,,,,,,,,0,,,64,49
63990,note_on,0,0,1,,,,,,,,,0,,,76,49
63994,note_on,4,0,1,,,,,,,,,0,,,76,0
63994,note_on,4,0,3,,,,,,,,,2,,,60,0
63994,note_on,0,0,3,,,,,,,,,2,,,55,0
63994,note_on,0,0,3,,,,,,,,,2,,,48,0
63994,note_on,0,0,1,,,,,,,,,0,,,64,0
63994,note_on,0,0,1,,,,,,,,,0,,,72,0
63994,note_on,0,0,1,,,,,,,,,0,,,67,0
64020,note_on,26,0,3,,,,,,,,,2,,,50,36
64020,note_on,0,0,3,,,,,,,,,2,,,59,36
64020,note_on,0,0,3,,,,,,,,,2,,,62,36
64020,note_on,0,0,1,,,,,,,,,0,,,76,49
64020,note_on,0,0,1,,,,,,,,,0,,,72,49
64020,note_on,26,0,1,,,,,,,,,0,,,65,49
64026,note_on,0,0,3,,,,,,,,,2,,,50,0
64026,note_on,0,0,3,,,,,,,,,2,,,59,0
64026,note_on,6,0,3,,,,,,,,,2,,,62,0
64026,note_on,6,0,1,,,,,,,,,0,,,76,0
64026,note_on,0,0,1,,,,,,,,,0,,,72,0
64026,note_on,0,0,1,,,,,,,,,0,,,65,0
64080,note_on,0,0,1,,,,,,,,,0,,,74,49
64080,note_on,0,0,1,,,,,,,,,0,,,71,49
64080,note_on,0,0,1,,,,,,,,,0,,,65,49
64080,control_change,54,0,1,,,,,,,,,0,64,0,,
64080,note_on,0,0,3,,,,,,,,,2,,,62,36
64080,note_on,0,0,3,,,,,,,,,2,,,59,36
64080,note_on,0,0,3,,,,,,,,,2,,,50,36
64080,control_change,54,0,3,,,,,,,,,2,64,0,,
64170,note_on,0,0,1,,,,,,,,,0,,,65,36
64170,note_on,0,0,3,,,,,,,,,2,,,50,36
64170,note_on,0,0,3,,,,,,,,,2,,,50,0
64170,note_on,0,0,3,,,,,,,,,2,,,59,0
64170,note_on,90,0,3,,,,,,,,,2,,,62,0
64170,note_on,0,0,3,,,,,,,,,2,,,62,36
64170,note_on,0,0,1,,,,,,,,,0,,,71,36
64170,note_on,0,0,1,,,,,,,,,0,,,74,36
64170,note_on,0,0,3,,,,,,,,,2,,,59,36
64170,note_on,90,0,1,,,,,,,,,0,,,74,0
64170,note_on,0,0,1,,,,,,,,,0,,,71,0
64170,note_on,0,0,1,,,,,,,,,0,,,65,0
64176,note_on,0,0,3,,,,,,,,,2,,,59,0
64176,note_on,0,0,3,,,,,,,,,2,,,50,0
64176,note_on,6,0,3,,,,,,,,,2,,,62,0
64176,note_on,6,0,1,,,,,,,,,0,,,74,0
64176,note_on,0,0,1,,,,,,,,,0,,,65,0
64176,note_on,0,0,1,,,,,,,,,0,,,71,0
64230,note_on,0,0,1,,,,,,,,,0,,,74,36
64230,note_on,54,0,1,,,,,,,,,0,,,65,36
64230,note_on,0,0,1,,,,,,,,,0,,,71,36
64230,note_on,0,0,3,,,,,,,,,2,,,59,36
64230,note_on,0,0,3,,,,,,,,,2,,,62,36
64230,note_on,54,0,3,,,,,,,,,2,,,50,36
64234,note_on,4,0,3,,,,,,,,,2,,,62,0
64234,note_on,0,0,3,,,,,,,,,2,,,50,0
64234,note_on,4,0,1,,,,,,,,,0,,,74,0
64234,note_on,0,0,1,,,,,,,,,0,,,71,0
64234,note_on,0,0,3,,,,,,,,,2,,,59,0
64234,note_on,0,0,1,,,,,,,,,0,,,65,0
64260,note_on,26,0,1,,,,,,,,,0,,,64,52
64260,note_on,0,0,1,,,,,,,,,0,,,74,62
64260,note_on,0,0,1,,,,,,,,,0,,,71,57
64260,note_on,0,0,3,,,,,,,,,2,,,60,62
64260,note_on,0,0,3,,,,,,,,,2,,,57,57
64260,note_on,26,0,3,,,,,,,,,2,,,52,52
64320,note_on,0,0,3,,,,,,,,,2,,,60,36
64320,note_on,0,0,3,,,,,,,,,2,,,52,36
64320,note_on,0,0,3,,,,,,,,,2,,,52,0
64320,note_on,0,0,3,,,,,,,,,2,,,57,0
64320,note_on,60,0,3,,,,,,,,,2,,,60,0
64320,note_on,0,0,3,,,,,,,,,2,,,57,36
64320,note_on,60,0,1,,,,,,,,,0,,,74,0
64320,note_on,0,0,1,,,,,,,,,0,,,72,36
64320,note_on,0,0,1,,,,,,,,,0,,,69,36
64320,note_on,0,0,1,,,,,,,,,0,,,64,36
64320,note_on,0,0,1,,,,,,,,,0,,,64,0
64320,note_on,0,0,1,,,,,,,,,0,,,71,0
64410,note_on,0,0,1,,,,,,,,,0,,,72,62
64410,note_on,0,0,1,,,,,,,,,0,,,69,57
64410,note_on,0,0,1,,,,,,,,,0,,,64,52
64410,note_on,0,0,1,,,,,,,,,0,,,64,0
64410,note_on,0,0,1,,,,,,,,,0,,,69,0
64410,note_on,90,0,1,,,,,,,,,0,,,72,0
64410,note_on,90,0,3,,,,,,,,,2,,,60,0
64410,note_on,0,0,3,,,,,,,,,2,,,57,0
64410,note_on,0,0,3,,,,,,,,,2,,,52,0
64410,note_on,0,0,3,,,,,,,,,2,,,57,57
64410,note_on,0,0,3,,,,,,,,,2,,,60,62
64410,note_on,0,0,3,,,,,,,,,2,,,52,52
64470,note_on,0,0,1,,,,,,,,,0,,,64,0
64470,note_on,60,0,3,,,,,,,,,2,,,60,0
64470,note_on,0,0,3,,,,,,,,,2,,,57,0
64470,note_on,0,0,3,,,,,,,,,2,,,52,0
64470,note_on,0,0,3,,,,,,,,,2,,,52,36
64470,note_on,0,0,3,,,,,,,,,2,,,57,36
64470,note_on,0,0,3,,,,,,,,,2,,,60,36
64470,note_on,0,0,1,,,,,,,,,0,,,64,36
64470,note_on,60,0,1,,,,,,,,,0,,,72,0
64470,note_on,0,0,1,,,,,,,,,0,,,69,36
64470,note_on,0,0,1,,,,,,,,,0,,,72,36
64470,note_on,0,0,1,,,,,,,,,0,,,69,0
64474,note_on,0,0,1,,,,,,,,,0,,,69,0
64474,note_on,4,0,1,,,,,,,,,0,,,72,0
64474,note_on,0,0,1,,,,,,,,,0,,,64,0
64474,note_on,4,0,3,,,,,,,,,2,,,60,0
64474,note_on,0,0,3,,,,,,,,,2,,,52,0
64474,note_on,0,0,3,,,,,,,,,2,,,57,0
64500,note_on,0,0,3,,,,,,,,,2,,,62,36
64500,note_on,26,0,3,,,,,,,,,2,,,52,36
64500,note_on,0,0,1,,,,,,,,,0,,,72,36
64500,note_on,26,0,1,,,,,,,,,0,,,64,36
64500,note_on,0,0,1,,,,,,,,,0,,,69,36
64500,time_signature,9360,1,0,4,4,24,8,,,,,,,,,
64506,note_on,0,0,3,,,,,,,,,2,,,52,0
64506,note_on,6,0,3,,,,,,,,,2,,,62,0
64506,note_on,0,0,1,,,,,,,,,0,,,69,0
64506,note_on,0,0,1,,,,,,,,,0,,,64,0
64506,note_on,6,0,1,,,,,,,,,0,,,72,0
64560,note_on,0,0,3,,,,,,,,,2,,,62,36
64560,note_on,54,0,1,,,,,,,,,0,,,64,36
64560,note_on,0,0,1,,,,,,,,,0,,,68,36
64560,note_on,0,0,1,,,,,,,,,0,,,71,36
64560,note_on,54,0,3,,,,,,,,,2,,,52,36
64566,note_on,6,0,3,,,,,,,,,2,,,62,0
64566,note_on,0,0,3,,,,,,,,,2,,,52,0
64566,note_on,6,0,1,,,,,,,,,0,,,71,0
64566,note_on,0,0,1,,,,,,,,,0,,,68,0
64566,note_on,0,0,1,,,,,,,,,0,,,64,0
64800,note_on,234,0,1,,,,,,,,,0,,,61,36
64800,note_on,234,0,3,,,,,,,,,2,,,57,36
64800,note_on,0,0,1,,,,,,,,,0,,,64,36
64806,note_on,0,0,1,,,,,,,,,0,,,61,0
64806,note_on,6,0,1,,,,,,,,,0,,,64,0
64860,note_on,0,0,1,,,,,,,,,0,,,66,36
64860,note_on,0,0,3,,,,,,,,,2,,,57,36
64860,note_on,60,0,3,,,,,,,,,2,,,57,0
64860,note_on,54,0,1,,,,,,,,,0,,,62,36
64866,note_on,0,0,1,,,,,,,,,0,,,62,0
64866,note_on,6,0,1,,,,,,,,,0,,,66,0
64920,note_on,60,0,3,,,,,,,,,2,,,57,0
64920,note_on,0,0,3,,,,,,,,,2,,,57,36
64920,note_on,54,0,1,,,,,,,,,0,,,60,36
64920,note_on,0,0,1,,,,,,,,,0,,,63,36
64926,note_on,0,0,1,,,,,,,,,0,,,60,0
64926,note_on,6,0,1,,,,,,,,,0,,,63,0
64980,control_change,0,0,3,,,,,,,,,2,64,127,,
64980,note_on,0,0,1,,,,,,,,,0,,,64,36
64980,note_on,0,0,3,,,,,,,,,2,,,57,36
64980,control_change,54,0,1,,,,,,,,,0,64,127,,
64980,note_on,60,0,3,,,,,,,,,2,,,57,0
64980,note_on,0,0,1,,,,,,,,,0,,,61,36
64980,time_signature,480,1,0,3,4,24,8,,,,,,,,,
65010,note_on,0,0,2,,,,,,,,,1,,,73,36
65010,note_on,0,0,2,,,,,,,,,1,,,69,36
65010,control_change,13590,0,2,,,,,,,,,1,64,127,,
65010,note_on,0,0,4,,,,,,,,,3,,,45,36
65010,note_on,0,0,4,,,,,,,,,3,,,52,36
65010,control_change,3750,0,4,,,,,,,,,3,64,127,,
65016,note_on,0,0,4,,,,,,,,,3,,,45,0
65016,note_on,6,0,4,,,,,,,,,3,,,52,0
65016,note_on,6,0,2,,,,,,,,,1,,,73,0
65016,note_on,0,0,2,,,,,,,,,1,,,69,0
65070,note_on,0,0,4,,,,,,,,,3,,,52,36
65070,note_on,54,0,4,,,,,,,,,3,,,45,36
65070,note_on,54,0,2,,,,,,,,,1,,,69,36
65070,note_on,0,0,2,,,,,,,,,1,,,73,36
65074,note_on,0,0,4,,,,,,,,,3,,,45,0
65074,note_on,4,0,4,,,,,,,,,3,,,52,0
65074,note_on,4,0,2,,,,,,,,,1,,,73,0
65074,note_on,0,0,2,,,,,,,,,1,,,69,0
65100,note_on,26,0,2,,,,,,,,,1,,,69,36
65100,note_on,0,0,2,,,,,,,,,1,,,73,36
65100,note_on,26,0,4,,,,,,,,,3,,,45,36
65100,note_on,0,0,4,,,,,,,,,3,,,52,36
65106,note_on,0,0,2,,,,,,,,,1,,,69,0
65106,note_on,6,0,2,,,,,,,,,1,,,73,0
65106,note_on,6,0,4,,,,,,,,,3,,,52,0
65106,note_on,0,0,4,,,,,,,,,3,,,45,0
65160,note_on,0,0,1,,,,,,,,,0,,,69,36
65160,note_on,0,0,1,,,,,,,,,0,,,64,36
65160,note_on,0,0,1,,,,,,,,,0,,,61,36
65160,note_on,0,0,1,,,,,,,,,0,,,61,0
65160,note_on,180,0,1,,,,,,,,,0,,,64,0
65160,control_change,0,0,1,,,,,,,,,0,64,0,,
65160,note_on,180,0,3,,,,,,,,,2,,,57,0
65160,control_change,54,0,2,,,,,,,,,1,64,0,,
65160,note_on,0,0,4,,,,,,,,,3,,,52,36
65160,note_on,0,0,4,,,,,,,,,3,,,45,36
65160,control_change,54,0,4,,,,,,,,,3,64,0,,
65160,note_on,0,0,2,,,,,,,,,1,,,73,36
65160,control_change,0,0,3,,,,,,,,,2,64,0,,
65160,note_on,0,0,3,,,,,,,,,2,,,57,36
65166,note_on,6,0,2,,,,,,,,,1,,,73,0
65166,note_on,6,0,3,,,,,,,,,2,,,57,0
65166,note_on,0,0,4,,,,,,,,,3,,,45,0
65166,note_on,6,0,4,,,,,,,,,3,,,52,0
65220,note_on,0,0,1,,,,,,,,,0,,,64,0
65220,note_on,0,0,1,,,,,,,,,0,,,61,36
65220,note_on,54,0,3,,,,,,,,,2,,,57,36
65220,note_on,0,0,1,,,,,,,,,0,,,64,36
65220,note_on,0,0,1,,,,,,,,,0,,,71,36
65220,note_on,60,0,1,,,,,,,,,0,,,69,0
65220,note_on,0,0,1,,,,,,,,,0,,,61,0
65226,note_on,0,0,1,,,,,,,,,0,,,61,0
65226,note_on,0,0,1,,,,,,,,,0,,,64,0
65226,note_on,6,0,3,,,,,,,,,2,,,57,0
65226,note_on,6,0,1,,,,,,,,,0,,,71,0
65280,note_on,54,0,3,,,,,,,,,2,,,57,36
65280,note_on,54,0,1,,,,,,,,,0,,,61,36
65280,note_on,0,0,1,,,,,,,,,0,,,65,36
65280,note_on,0,0,1,,,,,,,,,0,,,73,36
65286,note_on,6,0,1,,,,,,,,,0,,,73,0
65286,note_on,0,0,1,,,,,,,,,0,,,61,0
65286,note_on,0,0,1,,,,,,,,,0,,,65,0
65286,note_on,6,0,3,,,,,,,,,2,,,57,0
65340,note_on,54,0,3,,,,,,,,,2,,,62,36
65340,control_change,54,0,1,,,,,,,,,0,64,127,,
65340,note_on,0,0,1,,,,,,,,,0,,,66,36
65340,note_on,0,0,1,,,,,,,,,0,,,73,36
65370,note_on,0,0,4,,,,,,,,,3,,,50,54
65370,control_change,204,0,4,,,,,,,,,3,64,127,,
65370,note_on,0,0,2,,,,,,,,,1,,,78,62
65370,control_change,204,0,2,,,,,,,,,1,64,127,,
65370,note_on,0,0,4,,,,,,,,,3,,,58,62
65370,note_on,0,0,2,,,,,,,,,1,,,76,54
65376,note_on,6,0,2,,,,,,,,,1,,,78,0
65376,note_on,0,0,2,,,,,,,,,1,,,76,0
65430,note_on,60,0,4,,,,,,,,,3,,,58,0
65430,note_on,0,0,4,,,,,,,,,3,,,50,0
65430,note_on,0,0,4,,,,,,,,,3,,,50,36
65430,note_on,0,0,4,,,,,,,,,3,,,58,36
65430,note_on,0,0,2,,,,,,,,,1,,,78,36
65430,note_on,54,0,2,,,,,,,,,1,,,76,36
65434,note_on,0,0,2,,,,,,,,,1,,,76,0
65434,note_on,4,0,2,,,,,,,,,1,,,78,0
65434,note_on,0,0,4,,,,,,,,,3,,,50,0
65434,note_on,4,0,4,,,,,,,,,3,,,58,0
65460,note_on,0,0,2,,,,,,,,,1,,,78,36
65460,note_on,0,0,4,,,,,,,,,3,,,59,36
65460,note_on,0,0,4,,,,,,,,,3,,,50,36
65460,control_change,26,0,4,,,,,,,,,3,64,0,,
65460,note_on,0,0,1,,,,,,,,,0,,,71,36
65460,note_on,0,0,2,,,,,,,,,1,,,74,36
65460,note_on,120,0,1,,,,,,,,,0,,,73,0
65460,control_change,0,0,1,,,,,,,,,0,64,0,,
65460,control_change,26,0,2,,,,,,,,,1,64,0,,
65466,note_on,0,0,2,,,,,,,,,1,,,74,0
65466,note_on,6,0,4,,,,,,,,,3,,,59,0
65466,note_on,0,0,4,,,,,,,,,3,,,50,0
65466,note_on,6,0,2,,,,,,,,,1,,,78,0
65520,note_on,60,0,1,,,,,,,,,0,,,71,0
65520,note_on,54,0,4,,,,,,,,,3,,,50,36
65520,note_on,0,0,2,,,,,,,,,1,,,74,36
65520,note_on,54,0,2,,,,,,,,,1,,,66,36
65520,note_on,0,0,4,,,,,,,,,3,,,59,36
65520,note_on,0,0,1,,,,,,,,,0,,,66,0
65520,note_on,180,0,3,,,,,,,,,2,,,62,0
65520,note_on,0,0,3,,,,,,,,,2,,,62,36
65520,note_on,0,0,2,,,,,,,,,1,,,78,36
65520,note_on,0,0,1,,,,,,,,,0,,,71,36
65526,note_on,0,0,4,,,,,,,,,3,,,50,0
65526,note_on,6,0,4,,,,,,,,,3,,,59,0
65526,note_on,0,0,2,,,,,,,,,1,,,66,0
65526,note_on,0,0,2,,,,,,,,,1,,,74,0
65526,note_on,6,0,2,,,,,,,,,1,,,78,0
65550,note_on,0,0,1,,,,,,,,,0,,,69,36
65550,note_on,30,0,1,,,,,,,,,0,,,71,0
65580,note_on,30,0,1,,,,,,,,,0,,,69,0
65580,note_on,0,0,1,,,,,,,,,0,,,68,36
65580,note_on,54,0,2,,,,,,,,,1,,,62,36
65580,note_on,60,0,3,,,,,,,,,2,,,62,0
65580,note_on,0,0,3,,,,,,,,,2,,,59,36
65640,note_on,60,0,2,,,,,,,,,1,,,62,0
65640,note_on,0,0,3,,,,,,,,,2,,,57,36
65640,note_on,0,0,2,,,,,,,,,1,,,62,36
65640,note_on,0,0,1,,,,,,,,,0,,,66,36
65640,note_on,60,0,1,,,,,,,,,0,,,68,0
65640,note_on,60,0,3,,,,,,,,,2,,,59,0
65700,note_on,60,0,3,,,,,,,,,2,,,57,0
65700,note_on,0,0,3,,,,,,,,,2,,,56,36
65700,note_on,0,0,1,,,,,,,,,0,,,64,36
65700,note_on,0,0,1,,,,,,,,,0,,,62,36
65700,note_on,60,0,1,,,,,,,,,0,,,66,0
65700,note_on,60,0,2,,,,,,,,,1,,,62,0
65730,control_change,204,0,4,,,,,,,,,3,64,127,,
65730,note_on,0,0,2,,,,,,,,,1,,,74,54
65730,note_on,0,0,2,,,,,,,,,1,,,76,62
65730,note_on,0,0,4,,,,,,,,,3,,,47,54
65730,note_on,0,0,4,,,,,,,,,3,,,52,62
65730,control_change,30,0,2,,,,,,,,,1,64,127,,
65790,note_on,0,0,4,,,,,,,,,3,,,47,0
65790,note_on,60,0,2,,,,,,,,,1,,,76,0
65790,note_on,0,0,2,,,,,,,,,1,,,74,0
65790,note_on,0,0,2,,,,,,,,,1,,,74,36
65790,note_on,0,0,2,,,,,,,,,1,,,76,36
65790,note_on,0,0,4,,,,,,,,,3,,,47,36
65790,note_on,0,0,4,,,,,,,,,3,,,52,36
65790,note_on,60,0,4,,,,,,,,,3,,,52,0
65794,note_on,0,0,4,,,,,,,,,3,,,47,0
65794,note_on,0,0,2,,,,,,,,,1,,,74,0
65794,note_on,4,0,2,,,,,,,,,1,,,76,0
65794,note_on,4,0,4,,,,,,,,,3,,,52,0
65820,control_change,26,0,4,,,,,,,,,3,64,0,,
65820,note_on,0,0,4,,,,,,,,,3,,,47,36
65820,note_on,0,0,4,,,,,,,,,3,,,52,36
65820,note_on,0,0,2,,,,,,,,,1,,,76,36
65820,note_on,0,0,2,,,,,,,,,1,,,74,36
65820,control_change,26,0,2,,,,,,,,,1,64,0,,
65826,note_on,6,0,4,,,,,,,,,3,,,52,0
65826,note_on,0,0,4,,,,,,,,,3,,,47,0
65826,note_on,0,0,2,,,,,,,,,1,,,74,0
65826,note_on,6,0,2,,,,,,,,,1,,,76,0
65880,note_on,0,0,1,,,,,,,,,0,,,64,36
65880,note_on,0,0,1,,,,,,,,,0,,,62,36
65880,note_on,0,0,1,,,,,,,,,0,,,62,0
65880,note_on,180,0,1,,,,,,,,,0,,,64,0
65880,note_on,180,0,3,,,,,,,,,2,,,56,0
65880,note_on,0,0,3,,,,,,,,,2,,,56,36
65880,note_on,0,0,4,,,,,,,,,3,,,52,36
65880,note_on,54,0,4,,,,,,,,,3,,,47,36
65880,note_on,54,0,2,,,,,,,,,1,,,74,36
65880,note_on,0,0,2,,,,,,,,,1,,,76,36
65886,note_on,6,0,1,,,,,,,,,0,,,64,0
65886,note_on,0,0,1,,,,,,,,,0,,,62,0
65886,note_on,0,0,2,,,,,,,,,1,,,74,0
65886,note_on,6,0,2,,,,,,,,,1,,,76,0
65886,note_on,0,0,4,,,,,,,,,3,,,47,0
65886,note_on,6,0,4,,,,,,,,,3,,,52,0
65886,note_on,6,0,3,,,,,,,,,2,,,56,0
65910,note_on,24,0,1,,,,,,,,,0,,,66,36
65925,note_on,0,0,1,,,,,,,,,0,,,68,36
65925,note_on,15,0,1,,,,,,,,,0,,,66,0
65940,note_on,15,0,1,,,,,,,,,0,,,68,0
65940,note_on,0,0,1,,,,,,,,,0,,,62,36
65940,note_on,0,0,1,,,,,,,,,0,,,66,36
65940,note_on,54,0,3,,,,,,,,,2,,,56,36
65946,note_on,6,0,1,,,,,,,,,0,,,66,0
65946,note_on,0,0,1,,,,,,,,,0,,,62,0
65946,note_on,6,0,3,,,,,,,,,2,,,56,0
66000,note_on,54,0,1,,,,,,,,,0,,,62,36
66000,note_on,0,0,1,,,,,,,,,0,,,64,36
66000,note_on,54,0,3,,,,,,,,,2,,,56,36
66006,note_on,6,0,3,,,,,,,,,2,,,56,0
66006,note_on,0,0,1,,,,,,,,,0,,,62,0
66006,note_on,6,0,1,,,,,,,,,0,,,64,0
66060,note_on,54,0,3,,,,,,,,,2,,,57,36
66060,note_on,0,0,1,,,,,,,,,0,,,66,36
66060,note_on,0,0,1,,,,,,,,,0,,,62,36
66060,control_change,54,0,1,,,,,,,,,0,64,127,,
66090,note_on,0,0,4,,,,,,,,,3,,,54,62
66090,note_on,0,0,4,,,,,,,,,3,,,50,57
66090,note_on,0,0,4,,,,,,,,,3,,,45,52
66090,control_change,204,0,4,,,,,,,,,3,64,127,,
66090,note_on,0,0,2,,,,,,,,,1,,,69,36
66090,control_change,204,0,2,,,,,,,,,1,64,127,,
66096,note_on,6,0,2,,,,,,,,,1,,,69,0
66150,note_on,54,0,2,,,,,,,,,1,,,69,36
66150,note_on,60,0,4,,,,,,,,,3,,,54,0
66150,note_on,0,0,4,,,,,,,,,3,,,54,36
66150,note_on,0,0,4,,,,,,,,,3,,,45,36
66150,note_on,0,0,4,,,,,,,,,3,,,50,36
66150,note_on,0,0,4,,,,,,,,,3,,,50,0
66150,note_on,0,0,4,,,,,,,,,3,,,45,0
66154,note_on,4,0,4,,,,,,,,,3,,,54,0
66154,note_on,0,0,4,,,,,,,,,3,,,45,0
66154,note_on,0,0,4,,,,,,,,,3,,,50,0
66154,note_on,4,0,2,,,,,,,,,1,,,69,0
66180,note_on,0,0,1,,,,,,,,,0,,,61,36
66180,note_on,0,0,4,,,,,,,,,3,,,49,36
66180,note_on,0,0,4,,,,,,,,,3,,,45,36
66180,control_change,26,0,4,,,,,,,,,3,64,0,,
66180,note_on,0,0,1,,,,,,,,,0,,,64,36
66180,note_on,0,0,4,,,,,,,,,3,,,52,36
66180,note_on,120,0,1,,,,,,,,,0,,,66,0
66180,note_on,0,0,1,,,,,,,,,0,,,62,0
66180,note_on,0,0,2,,,,,,,,,1,,,69,36
66180,control_change,26,0,2,,,,,,,,,1,64,0,,
66186,note_on,6,0,2,,,,,,,,,1,,,69,0
66186,note_on,0,0,4,,,,,,,,,3,,,45,0
66186,note_on,0,0,4,,,,,,,,,3,,,49,0
66186,note_on,6,0,4,,,,,,,,,3,,,52,0
66240,control_change,0,0,1,,,,,,,,,0,64,0,,
66240,note_on,0,0,1,,,,,,,,,0,,,76,49
66240,note_on,0,0,1,,,,,,,,,0,,,69,49
66240,note_on,0,0,1,,,,,,,,,0,,,61,0
66240,note_on,0,0,1,,,,,,,,,0,,,73,49
66240,note_on,180,0,3,,,,,,,,,2,,,57,0
66240,note_on,0,0,3,,,,,,,,,2,,,45,36
66240,note_on,0,0,3,,,,,,,,,2,,,57,36
66240,note_on,60,0,1,,,,,,,,,0,,,64,0
66246,note_on,0,0,1,,,,,,,,,0,,,73,0
66246,note_on,6,0,1,,,,,,,,,0,,,76,0
66246,note_on,0,0,1,,,,,,,,,0,,,69,0
66246,note_on,6,0,3,,,,,,,,,2,,,57,0
66246,note_on,0,0,3,,,,,,,,,2,,,45,0
66300,note_on,54,0,3,,,,,,,,,2,,,38,36
66300,note_on,0,0,3,,,,,,,,,2,,,50,36
66300,note_on,0,0,1,,,,,,,,,0,,,78,49
66300,note_on,0,0,1,,,,,,,,,0,,,74,49
66300,note_on,54,0,1,,,,,,,,,0,,,69,49
66306,note_on,6,0,1,,,,,,,,,0,,,78,0
66306,note_on,0,0,1,,,,,,,,,0,,,74,0
66306,note_on,0,0,1,,,,,,,,,0,,,69,0
66306,note_on,0,0,3,,,,,,,,,2,,,38,0
66306,note_on,6,0,3,,,,,,,,,2,,,50,0
66360,note_on,0,0,3,,,,,,,,,2,,,54,36
66360,note_on,54,0,3,,,,,,,,,2,,,42,36
66360,note_on,54,0,1,,,,,,,,,0,,,69,49
66360,note_on,0,0,1,,,,,,,,,0,,,72,49
66360,note_on,0,0,1,,,,,,,,,0,,,75,49
66366,note_on,0,0,3,,,,,,,,,2,,,42,0
66366,note_on,6,0,3,,,,,,,,,2,,,54,0
66366,note_on,6,0,1,,,,,,,,,0,,,75,0
66366,note_on,0,0,1,,,,,,,,,0,,,72,0
66366,note_on,0,0,1,,,,,,,,,0,,,69,0
66420,control_change,54,0,1,,,,,,,,,0,64,127,,
66420,note_on,0,0,1,,,,,,,,,0,,,73,62
66420,note_on,0,0,1,,,,,,,,,0,,,76,62
66420,note_on,0,0,1,,,,,,,,,0,,,69,62
66420,note_on,0,0,3,,,,,,,,,2,,,45,49
66420,control_change,54,0,3,,,,,,,,,2,64,127,,
66420,note_on,0,0,3,,,,,,,,,2,,,57,49
66424,note_on,4,0,1,,,,,,,,,0,,,76,0
66424,note_on,0,0,1,,,,,,,,,0,,,69,0
66424,note_on,0,0,1,,,,,,,,,0,,,73,0
66424,note_on,4,0,3,,,,,,,,,2,,,57,0
66424,note_on,0,0,3,,,,,,,,,2,,,45,0
66450,note_on,0,0,1,,,,,,,,,0,,,76,80
66450,note_on,0,0,3,,,,,,,,,2,,,45,75
66450,note_on,0,0,3,,,,,,,,,2,,,40,70
66450,note_on,26,0,3,,,,,,,,,2,,,33,65
66450,note_on,0,0,1,,,,,,,,,0,,,85,88
66450,note_on,0,0,1,,,,,,,,,0,,,81,84
66450,note_on,26,0,1,,,,,,,,,0,,,73,76
66510,note_on,0,0,3,,,,,,,,,2,,,33,49
66510,note_on,60,0,3,,,,,,,,,2,,,45,0
66510,note_on,0,0,3,,,,,,,,,2,,,40,0
66510,note_on,0,0,3,,,,,,,,,2,,,33,0
66510,note_on,0,0,3,,,,,,,,,2,,,40,49
66510,note_on,0,0,1,,,,,,,,,0,,,85,62
66510,note_on,0,0,1,,,,,,,,,0,,,81,62
66510,note_on,0,0,1,,,,,,,,,0,,,76,62
66510,note_on,0,0,1,,,,,,,,,0,,,73,62
66510,note_on,0,0,1,,,,,,,,,0,,,81,0
66510,note_on,0,0,1,,,,,,,,,0,,,76,0
66510,note_on,0,0,1,,,,,,,,,0,,,73,0
66510,note_on,60,0,1,,,,,,,,,0,,,85,0
66510,note_on,0,0,3,,,,,,,,,2,,,45,49
66540,note_on,0,0,1,,,,,,,,,0,,,85,75
66540,note_on,0,0,1,,,,,,,,,0,,,81,75
66540,note_on,0,0,1,,,,,,,,,0,,,76,75
66540,note_on,0,0,1,,,,,,,,,0,,,81,0
66540,note_on,0,0,1,,,,,,,,,0,,,76,0
66540,note_on,30,0,1,,,,,,,,,0,,,85,0
66540,note_on,0,0,1,,,,,,,,,0,,,73,75
66540,note_on,0,0,1,,,,,,,,,0,,,73,0
66540,note_on,0,0,3,,,,,,,,,2,,,40,0
66540,note_on,0,0,3,,,,,,,,,2,,,45,62
66540,note_on,0,0,3,,,,,,,,,2,,,40,62
66540,note_on,0,0,3,,,,,,,,,2,,,33,62
66540,note_on,0,0,3,,,,,,,,,2,,,33,0
66540,note_on,30,0,3,,,,,,,,,2,,,45,0
66600,control_change,0,0,3,,,,,,,,,2,64,0,,
66600,note_on,0,0,3,,,,,,,,,2,,,33,0
66600,note_on,0,0,3,,,,,,,,,2,,,40,0
66600,note_on,60,0,3,,,,,,,,,2,,,45,0
66600,note_on,0,0,1,,,,,,,,,0,,,85,75
66600,note_on,60,0,1,,,,,,,,,0,,,85,0
66600,note_on,0,0,1,,,,,,,,,0,,,73,0
66600,note_on,0,0,1,,,,,,,,,0,,,76,0
66600,note_on,0,0,1,,,,,,,,,0,,,81,0
66600,note_on,0,0,1,,,,,,,,,0,,,73,75
66600,note_on,0,0,1,,,,,,,,,0,,,76,75
66600,note_on,0,0,1,,,,,,,,,0,,,81,75
66600,control_change,0,0,1,,,,,,,,,0,64,0,,
66600,note_on,0,0,3,,,,,,,,,2,,,33,62
66600,note_on,0,0,3,,,,,,,,,2,,,45,62
66600,note_on,0,0,3,,,,,,,,,2,,,40,62
66630,note_on,0,0,3,,,,,,,,,2,,,40,0
66630,note_on,0,0,1,,,,,,,,,0,,,64,75
66630,note_on,0,0,1,,,,,,,,,0,,,81,0
66630,note_on,30,0,1,,,,,,,,,0,,,85,0
66630,note_on,30,0,3,,,,,,,,,2,,,45,0
66630,note_on,0,0,1,,,,,,,,,0,,,73,75
66630,note_on,0,0,3,,,,,,,,,2,,,33,0
66630,note_on,0,0,3,,,,,,,,,2,,,49,62
66630,note_on,0,0,1,,,,,,,,,0,,,69,75
66630,note_on,0,0,1,,,,,,,,,0,,,76,0
66630,note_on,0,0,1,,,,,,,,,0,,,73,0
66630,note_on,0,0,3,,,,,,,,,2,,,61,62
66634,note_on,4,0,3,,,,,,,,,2,,,61,0
66634,note_on,0,0,3,,,,,,,,,2,,,49,0
66634,note_on,0,0,1,,,,,,,,,0,,,64,0
66634,note_on,0,0,1,,,,,,,,,0,,,69,0
66634,note_on,4,0,1,,,,,,,,,0,,,73,0
66660,note_on,26,0,3,,,,,,,,,2,,,47,62
66660,note_on,0,0,3,,,,,,,,,2,,,59,62
66660,note_on,0,0,1,,,,,,,,,0,,,69,75
66660,note_on,26,0,1,,,,,,,,,0,,,64,75
66660,note_on,0,0,1,,,,,,,,,0,,,73,75
66660,note_on,0,0,1,,,,,,,,,0,,,76,75
66666,note_on,6,0,1,,,,,,,,,0,,,76,0
66666,note_on,0,0,1,,,,,,,,,0,,,73,0
66666,note_on,6,0,3,,,,,,,,,2,,,59,0
66666,note_on,0,0,3,,,,,,,,,2,,,47,0
66666,note_on,0,0,1,,,,,,,,,0,,,69,0
66666,note_on,0,0,1,,,,,,,,,0,,,64,0
66720,note_on,0,0,3,,,,,,,,,2,,,57,62
66720,note_on,0,0,1,,,,,,,,,0,,,78,75
66720,note_on,54,0,3,,,,,,,,,2,,,45,62
66720,note_on,54,0,1,,,,,,,,,0,,,66,75
66720,note_on,0,0,1,,,,,,,,,0,,,73,75
66720,note_on,0,0,1,,,,,,,,,0,,,75,75
66726,note_on,0,0,3,,,,,,,,,2,,,45,0
66726,note_on,6,0,1,,,,,,,,,0,,,78,0
66726,note_on,6,0,3,,,,,,,,,2,,,57,0
66726,note_on,0,0,1,,,,,,,,,0,,,66,0
66726,note_on,0,0,1,,,,,,,,,0,,,75,0
66726,note_on,0,0,1,,,,,,,,,0,,,73,0
66780,note_on,0,0,1,,,,,,,,,0,,,68,75
66780,control_change,54,0,1,,,,,,,,,0,64,127,,
66780,note_on,0,0,3,,,,,,,,,2,,,56,62
66780,note_on,0,0,3,,,,,,,,,2,,,44,62
66780,control_change,54,0,3,,,,,,,,,2,64,127,,
66780,note_on,0,0,1,,,,,,,,,0,,,80,75
66780,note_on,0,0,1,,,,,,,,,0,,,76,75
66780,note_on,0,0,1,,,,,,,,,0,,,73,75
66784,note_on,0,0,1,,,,,,,,,0,,,68,0
66784,note_on,4,0,1,,,,,,,,,0,,,80,0
66784,note_on,0,0,1,,,,,,,,,0,,,73,0
66784,note_on,4,0,3,,,,,,,,,2,,,56,0
66784,note_on,0,0,3,,,,,,,,,2,,,44,0
66784,note_on,0,0,1,,,,,,,,,0,,,76,0
66810,note_on,26,0,1,,,,,,,,,0,,,80,89
66810,note_on,26,0,3,,,,,,,,,2,,,32,78
66810,note_on,0,0,3,,,,,,,,,2,,,37,83
66810,note_on,0,0,3,,,,,,,,,2,,,44,88
66810,note_on,0,0,1,,,,,,,,,0,,,85,93
66810,note_on,0,0,1,,,,,,,,,0,,,88,97
66810,note_on,0,0,1,,,,,,,,,0,,,92,101
66870,note_on,0,0,1,,,,,,,,,0,,,85,75
66870,note_on,0,0,1,,,,,,,,,0,,,80,75
66870,note_on,0,0,1,,,,,,,,,0,,,88,0
66870,note_on,0,0,1,,,,,,,,,0,,,85,0
66870,note_on,0,0,1,,,,,,,,,0,,,80,0
66870,note_on,60,0,1,,,,,,,,,0,,,92,0
66870,note_on,0,0,1,,,,,,,,,0,,,92,75
66870,note_on,0,0,3,,,,,,,,,2,,,44,62
66870,note_on,0,0,3,,,,,,,,,2,,,37,62
66870,note_on,0,0,3,,,,,,,,,2,,,32,62
66870,note_on,0,0,3,,,,,,,,,2,,,32,0
66870,note_on,0,0,3,,,,,,,,,2,,,37,0
66870,note_on,60,0,3,,,,,,,,,2,,,44,0
66870,note_on,0,0,1,,,,,,,,,0,,,88,75
66900,note_on,0,0,1,,,,,,,,,0,,,85,75
66900,note_on,0,0,3,,,,,,,,,2,,,44,62
66900,note_on,0,0,1,,,,,,,,,0,,,80,0
66900,note_on,0,0,1,,,,,,,,,0,,,85,0
66900,note_on,0,0,1,,,,,,,,,0,,,88,0
66900,note_on,0,0,1,,,,,,,,,0,,,80,75
66900,note_on,0,0,1,,,,,,,,,0,,,88,75
66900,note_on,0,0,1,,,,,,,,,0,,,92,75
66900,note_on,0,0,3,,,,,,,,,2,,,37,62
66900,note_on,0,0,3,,,,,,,,,2,,,32,62
66900,note_on,0,0,3,,,,,,,,,2,,,32,0
66900,note_on,0,0,3,,,,,,,,,2,,,37,0
66900,note_on,30,0,3,,,,,,,,,2,,,44,0
66900,note_on,30,0,1,,,,,,,,,0,,,92,0
66960,note_on,0,0,3,,,,,,,,,2,,,44,62
66960,note_on,0,0,1,,,,,,,,,0,,,80,75
66960,note_on,0,0,1,,,,,,,,,0,,,80,0
66960,note_on,0,0,3,,,,,,,,,2,,,32,0
66960,note_on,0,0,3,,,,,,,,,2,,,32,62
66960,note_on,60,0,1,,,,,,,,,0,,,92,0
66960,note_on,60,0,3,,,,,,,,,2,,,44,0
66960,note_on,0,0,1,,,,,,,,,0,,,92,75
66960,note_on,0,0,3,,,,,,,,,2,,,37,0
66960,note_on,0,0,3,,,,,,,,,2,,,37,62
66960,note_on,0,0,1,,,,,,,,,0,,,85,0
66960,note_on,0,0,1,,,,,,,,,0,,,88,0
66960,note_on,0,0,1,,,,,,,,,0,,,88,75
66960,note_on,0,0,1,,,,,,,,,0,,,85,75
66964,note_on,4,0,3,,,,,,,,,2,,,44,0
66964,note_on,0,0,3,,,,,,,,,2,,,37,0
66964,note_on,0,0,3,,,,,,,,,2,,,32,0
66964,note_on,4,0,1,,,,,,,,,0,,,92,0
66964,note_on,0,0,1,,,,,,,,,0,,,88,0
66964,note_on,0,0,1,,,,,,,,,0,,,85,0
66964,note_on,0,0,1,,,,,,,,,0,,,80,0
66990,note_on,0,0,1,,,,,,,,,0,,,68,75
66990,note_on,0,0,1,,,,,,,,,0,,,64,75
66990,control_change,26,0,1,,,,,,,,,0,64,0,,
66990,note_on,0,0,3,,,,,,,,,2,,,61,62
66990,note_on,0,0,3,,,,,,,,,2,,,56,62
66990,control_change,26,0,3,,,,,,,,,2,64,0,,
66990,note_on,0,0,1,,,,,,,,,0,,,76,75
66994,note_on,0,0,1,,,,,,,,,0,,,68,0
66994,note_on,0,0,1,,,,,,,,,0,,,64,0
66994,note_on,0,0,3,,,,,,,,,2,,,56,0
66994,note_on,4,0,3,,,,,,,,,2,,,61,0
66994,note_on,4,0,1,,,,,,,,,0,,,76,0
67020,note_on,26,0,1,,,,,,,,,0,,,66,75
67020,note_on,0,0,1,,,,,,,,,0,,,68,75
67020,note_on,26,0,3,,,,,,,,,2,,,56,62
67020,note_on,0,0,1,,,,,,,,,0,,,75,75
67020,note_on,0,0,3,,,,,,,,,2,,,60,62
67026,note_on,0,0,3,,,,,,,,,2,,,56,0
67026,note_on,6,0,3,,,,,,,,,2,,,60,0
67026,note_on,6,0,1,,,,,,,,,0,,,75,0
67026,note_on,0,0,1,,,,,,,,,0,,,68,0
67026,note_on,0,0,1,,,,,,,,,0,,,66,0
67080,note_on,0,0,3,,,,,,,,,2,,,63,62
67080,note_on,54,0,1,,,,,,,,,0,,,66,75
67080,note_on,0,0,1,,,,,,,,,0,,,68,75
67080,note_on,54,0,3,,,,,,,,,2,,,56,62
67086,note_on,6,0,3,,,,,,,,,2,,,63,0
67086,note_on,0,0,3,,,,,,,,,2,,,56,0
67086,note_on,0,0,1,,,,,,,,,0,,,66,0
67086,note_on,6,0,1,,,,,,,,,0,,,68,0
67140,note_on,0,0,1,,,,,,,,,0,,,68,75
67140,note_on,0,0,1,,,,,,,,,0,,,73,75
67140,note_on,0,0,3,,,,,,,,,2,,,61,62
67140,note_on,0,0,3,,,,,,,,,2,,,56,62
67140,note_on,0,0,3,,,,,,,,,2,,,49,62
67140,control_change,54,0,3,,,,,,,,,2,64,127,,
67140,control_change,54,0,1,,,,,,,,,0,64,127,,
67140,note_on,0,0,1,,,,,,,,,0,,,64,75
67144,note_on,4,0,3,,,,,,,,,2,,,61,0
67144,note_on,0,0,1,,,,,,,,,0,,,68,0
67144,note_on,0,0,1,,,,,,,,,0,,,64,0
67144,note_on,0,0,3,,,,,,,,,2,,,56,0
67144,note_on,4,0,1,,,,,,,,,0,,,73,0
67144,note_on,0,0,3,,,,,,,,,2,,,49,0
67170,note_on,0,0,3,,,,,,,,,2,,,40,80
67170,note_on,0,0,3,,,,,,,,,2,,,49,88
67170,note_on,0,0,3,,,,,,,,,2,,,44,84
67170,note_on,0,0,1,,,,,,,,,0,,,85,101
67170,note_on,26,0,1,,,,,,,,,0,,,73,89
67170,note_on,0,0,1,,,,,,,,,0,,,76,93
67170,note_on,26,0,3,,,,,,,,,2,,,37,76
67170,note_on,0,0,1,,,,,,,,,0,,,80,97
67230,note_on,0,0,3,,,,,,,,,2,,,37,0
67230,note_on,60,0,3,,,,,,,,,2,,,49,0
67230,note_on,0,0,3,,,,,,,,,2,,,40,0
67230,note_on,0,0,3,,,,,,,,,2,,,37,62
67230,note_on,0,0,1,,,,,,,,,0,,,85,75
67230,note_on,0,0,1,,,,,,,,,0,,,80,75
67230,note_on,0,0,1,,,,,,,,,0,,,76,75
67230,note_on,0,0,1,,,,,,,,,0,,,80,0
67230,note_on,0,0,1,,,,,,,,,0,,,76,0
67230,note_on,0,0,1,,,,,,,,,0,,,73,75
67230,note_on,60,0,1,,,,,,,,,0,,,85,0
67230,note_on,0,0,3,,,,,,,,,2,,,49,62
67230,note_on,0,0,3,,,,,,,,,2,,,44,62
67230,note_on,0,0,3,,,,,,,,,2,,,40,62
67230,note_on,0,0,1,,,,,,,,,0,,,73,0
67230,note_on,0,0,3,,,,,,,,,2,,,44,0
67260,note_on,0,0,1,,,,,,,,,0,,,73,75
67260,note_on,30,0,1,,,,,,,,,0,,,85,0
67260,note_on,0,0,1,,,,,,,,,0,,,73,0
67260,note_on,0,0,1,,,,,,,,,0,,,76,0
67260,note_on,0,0,1,,,,,,,,,0,,,80,0
67260,note_on,0,0,1,,,,,,,,,0,,,80,75
67260,note_on,0,0,3,,,,,,,,,2,,,49,62
67260,note_on,0,0,3,,,,,,,,,2,,,44,62
67260,note_on,0,0,3,,,,,,,,,2,,,40,62
67260,note_on,0,0,3,,,,,,,,,2,,,37,62
67260,note_on,0,0,3,,,,,,,,,2,,,44,0
67260,note_on,0,0,3,,,,,,,,,2,,,40,0
67260,note_on,0,0,3,,,,,,,,,2,,,37,0
67260,note_on,30,0,3,,,,,,,,,2,,,49,0
67260,note_on,0,0,1,,,,,,,,,0,,,76,75
67260,note_on,0,0,1,,,,,,,,,0,,,85,75
67320,note_on,0,0,3,,,,,,,,,2,,,49,62
67320,note_on,0,0,3,,,,,,,,,2,,,44,0
67320,note_on,0,0,3,,,,,,,,,2,,,40,0
67320,note_on,0,0,3,,,,,,,,,2,,,37,0
67320,note_on,60,0,3,,,,,,,,,2,,,49,0
67320,note_on,0,0,3,,,,,,,,,2,,,44,62
67320,note_on,0,0,3,,,,,,,,,2,,,37,62
67320,note_on,0,0,1,,,,,,,,,0,,,73,75
67320,note_on,0,0,1,,,,,,,,,0,,,85,75
67320,note_on,0,0,1,,,,,,,,,0,,,80,75
67320,note_on,0,0,1,,,,,,,,,0,,,76,75
67320,note_on,0,0,1,,,,,,,,,0,,,80,0
67320,note_on,0,0,1,,,,,,,,,0,,,73,0
67320,note_on,0,0,1,,,,,,,,,0,,,76,0
67320,note_on,60,0,1,,,,,,,,,0,,,85,0
67320,note_on,0,0,3,,,,,,,,,2,,,40,62
67324,note_on,0,0,3,,,,,,,,,2,,,40,0
67324,note_on,0,0,1,,,,,,,,,0,,,80,0
67324,note_on,0,0,3,,,,,,,,,2,,,37,0
67324,note_on,4,0,3,,,,,,,,,2,,,49,0
67324,note_on,4,0,1,,,,,,,,,0,,,85,0
67324,note_on,0,0,1,,,,,,,,,0,,,73,0
67324,note_on,0,0,1,,,,,,,,,0,,,76,0
67324,note_on,0,0,3,,,,,,,,,2,,,44,0
67350,note_on,0,0,3,,,,,,,,,2,,,57,36
67350,note_on,0,0,3,,,,,,,,,2,,,52,36
67350,control_change,26,0,3,,,,,,,,,2,64,0,,
67350,note_on,0,0,1,,,,,,,,,0,,,61,49
67350,control_change,26,0,1,,,,,,,,,0,64,0,,
67350,note_on,0,0,1,,,,,,,,,0,,,73,49
67350,note_on,0,0,1,,,,,,,,,0,,,64,49
67354,note_on,4,0,3,,,,,,,,,2,,,57,0
67354,note_on,0,0,1,,,,,,,,,0,,,61,0
67354,note_on,0,0,3,,,,,,,,,2,,,52,0
67354,note_on,4,0,1,,,,,,,,,0,,,73,0
67354,note_on,0,0,1,,,,,,,,,0,,,64,0
67380,note_on,26,0,1,,,,,,,,,0,,,62,49
67380,note_on,0,0,1,,,,,,,,,0,,,64,49
67380,note_on,0,0,1,,,,,,,,,0,,,71,49
67380,note_on,0,0,3,,,,,,,,,2,,,56,36
67380,note_on,26,0,3,,,,,,,,,2,,,52,36
67386,note_on,0,0,1,,,,,,,,,0,,,64,0
67386,note_on,0,0,1,,,,,,,,,0,,,62,0
67386,note_on,6,0,3,,,,,,,,,2,,,56,0
67386,note_on,0,0,3,,,,,,,,,2,,,52,0
67386,note_on,6,0,1,,,,,,,,,0,,,71,0
67440,note_on,0,0,1,,,,,,,,,0,,,64,49
67440,note_on,54,0,1,,,,,,,,,0,,,62,49
67440,note_on,0,0,3,,,,,,,,,2,,,59,36
67440,note_on,54,0,3,,,,,,,,,2,,,52,36
67446,note_on,6,0,1,,,,,,,,,0,,,64,0
67446,note_on,0,0,3,,,,,,,,,2,,,52,0
67446,note_on,6,0,3,,,,,,,,,2,,,59,0
67446,note_on,0,0,1,,,,,,,,,0,,,62,0
67500,note_on,0,0,1,,,,,,,,,0,,,69,49
67500,note_on,0,0,3,,,,,,,,,2,,,54,36
67500,note_on,0,0,3,,,,,,,,,2,,,57,36
67500,control_change,54,0,1,,,,,,,,,0,64,127,,
67500,note_on,0,0,1,,,,,,,,,0,,,61,49
67500,control_change,54,0,3,,,,,,,,,2,64,127,,
67504,note_on,4,0,3,,,,,,,,,2,,,57,0
67504,note_on,0,0,3,,,,,,,,,2,,,54,0
67504,note_on,4,0,1,,,,,,,,,0,,,69,0
67504,note_on,0,0,1,,,,,,,,,0,,,61,0
67530,note_on,26,0,3,,,,,,,,,2,,,42,52
67530,note_on,0,0,3,,,,,,,,,2,,,49,57
67530,note_on,0,0,3,,,,,,,,,2,,,54,62
67530,note_on,0,0,1,,,,,,,,,0,,,81,75
67530,note_on,26,0,1,,,,,,,,,0,,,69,63
67530,note_on,0,0,1,,,,,,,,,0,,,73,67
67530,note_on,0,0,1,,,,,,,,,0,,,78,71
67590,note_on,60,0,1,,,,,,,,,0,,,81,0
67590,note_on,0,0,3,,,,,,,,,2,,,49,0
67590,note_on,0,0,1,,,,,,,,,0,,,78,0
67590,note_on,0,0,1,,,,,,,,,0,,,69,49
67590,note_on,0,0,1,,,,,,,,,0,,,73,49
67590,note_on,0,0,1,,,,,,,,,0,,,78,49
67590,note_on,0,0,1,,,,,,,,,0,,,81,49
67590,note_on,0,0,1,,,,,,,,,0,,,73,0
67590,note_on,60,0,3,,,,,,,,,2,,,54,0
67590,note_on,0,0,1,,,,,,,,,0,,,69,0
67590,note_on,0,0,3,,,,,,,,,2,,,42,0
67590,note_on,0,0,3,,,,,,,,,2,,,42,36
67590,note_on,0,0,3,,,,,,,,,2,,,49,36
67590,note_on,0,0,3,,,,,,,,,2,,,54,36
67620,note_on,0,0,3,,,,,,,,,2,,,49,36
67620,note_on,0,0,1,,,,,,,,,0,,,81,49
67620,note_on,0,0,1,,,,,,,,,0,,,78,49
67620,note_on,0,0,1,,,,,,,,,0,,,73,49
67620,note_on,0,0,3,,,,,,,,,2,,,49,0
67620,note_on,0,0,1,,,,,,,,,0,,,69,49
67620,note_on,0,0,3,,,,,,,,,2,,,42,0
67620,note_on,0,0,1,,,,,,,,,0,,,73,0
67620,note_on,0,0,3,,,,,,,,,2,,,42,36
67620,note_on,0,0,1,,,,,,,,,0,,,69,0
67620,note_on,30,0,1,,,,,,,,,0,,,81,0
67620,note_on,30,0,3,,,,,,,,,2,,,54,0
67620,note_on,0,0,3,,,,,,,,,2,,,54,36
67620,note_on,0,0,1,,,,,,,,,0,,,78,0
67680,note_on,60,0,1,,,,,,,,,0,,,81,0
67680,note_on,0,0,1,,,,,,,,,0,,,69,0
67680,note_on,0,0,1,,,,,,,,,0,,,78,0
67680,note_on,0,0,1,,,,,,,,,0,,,69,49
67680,note_on,0,0,1,,,,,,,,,0,,,73,49
67680,note_on,0,0,1,,,,,,,,,0,,,78,49
67680,note_on,0,0,1,,,,,,,,,0,,,81,49
67680,note_on,0,0,3,,,,,,,,,2,,,54,75
67680,note_on,0,0,3,,,,,,,,,2,,,49,75
67680,note_on,0,0,3,,,,,,,,,2,,,42,75
67680,control_change,0,0,3,,,,,,,,,2,64,0,,
67680,note_on,0,0,3,,,,,,,,,2,,,42,0
67680,note_on,0,0,3,,,,,,,,,2,,,49,0
67680,note_on,60,0,3,,,,,,,,,2,,,54,0
67680,note_on,0,0,1,,,,,,,,,0,,,73,0
67680,control_change,0,0,1,,,,,,,,,0,64,0,,
67684,note_on,4,0,1,,,,,,,,,0,,,81,0
67684,note_on,0,0,1,,,,,,,,,0,,,73,0
67684,note_on,0,0,1,,,,,,,,,0,,,78,0
67684,note_on,0,0,1,,,,,,,,,0,,,69,0
67684,note_on,4,0,3,,,,,,,,,2,,,54,0
67684,note_on,0,0,3,,,,,,,,,2,,,42,0
67684,note_on,0,0,3,,,,,,,,,2,,,49,0
67710,note_on,0,0,3,,,,,,,,,2,,,52,75
67710,note_on,26,0,3,,,,,,,,,2,,,40,75
67710,note_on,0,0,1,,,,,,,,,0,,,70,88
67710,note_on,0,0,1,,,,,,,,,0,,,67,88
67710,note_on,26,0,1,,,,,,,,,0,,,61,88
67714,note_on,0,0,3,,,,,,,,,2,,,40,0
67714,note_on,4,0,3,,,,,,,,,2,,,52,0
67714,note_on,4,0,1,,,,,,,,,0,,,70,0
67714,note_on,0,0,1,,,,,,,,,0,,,67,0
67714,note_on,0,0,1,,,,,,,,,0,,,61,0
67740,note_on,26,0,1,,,,,,,,,0,,,62,88
67740,note_on,0,0,1,,,,,,,,,0,,,67,88
67740,note_on,26,0,3,,,,,,,,,2,,,38,75
67740,note_on,0,0,3,,,,,,,,,2,,,50,75
67740,note_on,0,0,1,,,,,,,,,0,,,71,88
67746,note_on,0,0,1,,,,,,,,,0,,,67,0
67746,note_on,6,0,3,,,,,,,,,2,,,50,0
67746,note_on,6,0,1,,,,,,,,,0,,,71,0
67746,note_on,0,0,3,,,,,,,,,2,,,38,0
67746,note_on,0,0,1,,,,,,,,,0,,,62,0
67800,note_on,0,0,1,,,,,,,,,0,,,73,88
67800,note_on,0,0,1,,,,,,,,,0,,,70,88
67800,note_on,0,0,1,,,,,,,,,0,,,67,88
67800,note_on,54,0,3,,,,,,,,,2,,,37,75
67800,note_on,0,0,3,,,,,,,,,2,,,49,75
67800,note_on,54,0,1,,,,,,,,,0,,,64,88
67806,note_on,0,0,3,,,,,,,,,2,,,37,0
67806,note_on,6,0,3,,,,,,,,,2,,,49,0
67806,note_on,0,0,1,,,,,,,,,0,,,64,0
67806,note_on,0,0,1,,,,,,,,,0,,,67,0
67806,note_on,0,0,1,,,,,,,,,0,,,70,0
67806,note_on,6,0,1,,,,,,,,,0,,,73,0
67860,control_change,54,0,1,,,,,,,,,0,64,127,,
67860,note_on,0,0,1,,,,,,,,,0,,,67,101
67860,note_on,0,0,1,,,,,,,,,0,,,71,101
67860,note_on,0,0,1,,,,,,,,,0,,,74,101
67860,note_on,0,0,1,,,,,,,,,0,,,62,101
67860,control_change,54,0,3,,,,,,,,,2,64,127,,
67860,note_on,0,0,3,,,,,,,,,2,,,35,88
67860,note_on,0,0,3,,,,,,,,,2,,,47,88
67890,note_on,0,0,1,,,,,,,,,0,,,62,0
67890,note_on,30,0,1,,,,,,,,,0,,,74,0
67890,note_on,0,0,1,,,,,,,,,0,,,74,115
67890,note_on,0,0,1,,,,,,,,,0,,,79,119
67890,note_on,0,0,1,,,,,,,,,0,,,83,123
67890,note_on,0,0,1,,,,,,,,,0,,,86,127
67890,note_on,0,0,3,,,,,,,,,2,,,47,114
67890,note_on,0,0,1,,,,,,,,,0,,,67,0
67890,note_on,0,0,3,,,,,,,,,2,,,43,110
67890,note_on,0,0,3,,,,,,,,,2,,,38,106
67890,note_on,0,0,3,,,,,,,,,2,,,35,102
67890,note_on,0,0,3,,,,,,,,,2,,,35,0
67890,note_on,30,0,3,,,,,,,,,2,,,47,0
67890,note_on,0,0,1,,,,,,,,,0,,,71,0
67950,note_on,0,0,1,,,,,,,,,0,,,79,101
67950,note_on,0,0,3,,,,,,,,,2,,,43,88
67950,note_on,0,0,1,,,,,,,,,0,,,74,101
67950,note_on,0,0,3,,,,,,,,,2,,,38,88
67950,note_on,0,0,1,,,,,,,,,0,,,83,101
67950,note_on,0,0,1,,,,,,,,,0,,,86,101
67950,note_on,0,0,3,,,,,,,,,2,,,47,88
67950,note_on,0,0,1,,,,,,,,,0,,,83,0
67950,note_on,0,0,3,,,,,,,,,2,,,35,88
67950,note_on,0,0,1,,,,,,,,,0,,,74,0
67950,note_on,0,0,3,,,,,,,,,2,,,43,0
67950,note_on,0,0,1,,,,,,,,,0,,,79,0
67950,note_on,0,0,3,,,,,,,,,2,,,35,0
67950,note_on,0,0,3,,,,,,,,,2,,,38,0
67950,note_on,60,0,1,,,,,,,,,0,,,86,0
67950,note_on,60,0,3,,,,,,,,,2,,,47,0
67980,note_on,0,0,1,,,,,,,,,0,,,74,0
67980,note_on,0,0,3,,,,,,,,,2,,,47,88
67980,note_on,0,0,3,,,,,,,,,2,,,43,88
67980,note_on,0,0,3,,,,,,,,,2,,,38,88
67980,note_on,0,0,3,,,,,,,,,2,,,35,88
67980,note_on,0,0,3,,,,,,,,,2,,,43,0
67980,note_on,0,0,3,,,,,,,,,2,,,38,0
67980,note_on,0,0,3,,,,,,,,,2,,,35,0
67980,note_on,30,0,1,,,,,,,,,0,,,86,0
67980,note_on,30,0,3,,,,,,,,,2,,,47,0
67980,note_on,0,0,1,,,,,,,,,0,,,83,0
67980,note_on,0,0,1,,,,,,,,,0,,,86,101
67980,note_on,0,0,1,,,,,,,,,0,,,83,101
67980,note_on,0,0,1,,,,,,,,,0,,,79,101
67980,note_on,0,0,1,,,,,,,,,0,,,74,101
67980,note_on,0,0,1,,,,,,,,,0,,,79,0
67986,note_on,0,0,1,,,,,,,,,0,,,79,0
67986,note_on,0,0,1,,,,,,,,,0,,,74,0
67986,note_on,6,0,1,,,,,,,,,0,,,86,0
67986,note_on,0,0,1,,,,,,,,,0,,,83,0
67986,note_on,6,0,3,,,,,,,,,2,,,47,0
67986,note_on,0,0,3,,,,,,,,,2,,,35,0
67986,note_on,0,0,3,,,,,,,,,2,,,38,0
67986,note_on,0,0,3,,,,,,,,,2,,,43,0
68040,note_on,0,0,3,,,,,,,,,2,,,38,106
68040,note_on,0,0,3,,,,,,,,,2,,,47,114
68040,note_on,54,0,3,,,,,,,,,2,,,35,102
68040,note_on,0,0,3,,,,,,,,,2,,,43,110
68040,note_on,0,0,1,,,,,,,,,0,,,86,127
68040,note_on,54,0,1,,,,,,,,,0,,,74,115
68040,note_on,0,0,1,,,,,,,,,0,,,83,123
68040,note_on,0,0,1,,,,,,,,,0,,,79,119
68130,note_on,90,0,3,,,,,,,,,2,,,47,0
68130,control_change,0,0,1,,,,,,,,,0,64,0,,
68130,note_on,0,0,1,,,,,,,,,0,,,74,75
68130,note_on,0,0,1,,,,,,,,,0,,,69,71
68130,note_on,0,0,1,,,,,,,,,0,,,66,67
68130,note_on,0,0,1,,,,,,,,,0,,,62,63
68130,note_on,0,0,1,,,,,,,,,0,,,83,0
68130,note_on,0,0,1,,,,,,,,,0,,,79,0
68130,note_on,0,0,1,,,,,,,,,0,,,74,0
68130,note_on,90,0,1,,,,,,,,,0,,,86,0
68130,note_on,0,0,3,,,,,,,,,2,,,35,0
68130,note_on,0,0,3,,,,,,,,,2,,,50,54
68130,note_on,0,0,3,,,,,,,,,2,,,38,0
68130,note_on,0,0,3,,,,,,,,,2,,,43,0
68130,note_on,0,0,3,,,,,,,,,2,,,57,62
68130,note_on,0,0,3,,,,,,,,,2,,,54,58
68130,control_change,0,0,3,,,,,,,,,2,64,0,,
68130,note_on,0,0,3,,,,,,,,,2,,,48,50
68190,note_on,0,0,1,,,,,,,,,0,,,69,49
68190,note_on,0,0,1,,,,,,,,,0,,,74,49
68190,note_on,0,0,3,,,,,,,,,2,,,57,36
68190,note_on,0,0,3,,,,,,,,,2,,,50,36
68190,note_on,60,0,3,,,,,,,,,2,,,57,0
68190,note_on,0,0,3,,,,,,,,,2,,,48,0
68190,note_on,0,0,3,,,,,,,,,2,,,50,0
68190,note_on,0,0,3,,,,,,,,,2,,,54,0
68190,note_on,0,0,1,,,,,,,,,0,,,66,49
68190,note_on,0,0,3,,,,,,,,,2,,,48,36
68190,note_on,0,0,3,,,,,,,,,2,,,54,36
68190,note_on,0,0,1,,,,,,,,,0,,,62,49
68190,note_on,0,0,1,,,,,,,,,0,,,66,0
68190,note_on,0,0,1,,,,,,,,,0,,,62,0
68190,note_on,0,0,1,,,,,,,,,0,,,69,0
68190,note_on,60,0,1,,,,,,,,,0,,,74,0
68220,note_on,0,0,3,,,,,,,,,2,,,57,36
68220,note_on,0,0,3,,,,,,,,,2,,,54,36
68220,note_on,0,0,3,,,,,,,,,2,,,50,36
68220,note_on,0,0,3,,,,,,,,,2,,,48,36
68220,note_on,0,0,3,,,,,,,,,2,,,54,0
68220,note_on,0,0,3,,,,,,,,,2,,,50,0
68220,note_on,0,0,3,,,,,,,,,2,,,48,0
68220,note_on,30,0,3,,,,,,,,,2,,,57,0
68220,note_on,0,0,1,,,,,,,,,0,,,62,0
68220,note_on,0,0,1,,,,,,,,,0,,,74,49
68220,note_on,0,0,1,,,,,,,,,0,,,69,49
68220,note_on,0,0,1,,,,,,,,,0,,,66,49
68220,note_on,0,0,1,,,,,,,,,0,,,62,49
68220,note_on,0,0,1,,,,,,,,,0,,,69,0
68220,note_on,0,0,1,,,,,,,,,0,,,66,0
68220,note_on,30,0,1,,,,,,,,,0,,,74,0
68226,note_on,0,0,3,,,,,,,,,2,,,54,0
68226,note_on,0,0,3,,,,,,,,,2,,,50,0
68226,note_on,0,0,3,,,,,,,,,2,,,48,0
68226,note_on,0,0,1,,,,,,,,,0,,,66,0
68226,note_on,6,0,1,,,,,,,,,0,,,74,0
68226,note_on,0,0,1,,,,,,,,,0,,,69,0
68226,note_on,0,0,1,,,,,,,,,0,,,62,0
68226,note_on,6,0,3,,,,,,,,,2,,,57,0
68280,note_on,54,0,3,,,,,,,,,2,,,48,36
68280,note_on,0,0,3,,,,,,,,,2,,,54,36
68280,note_on,0,0,3,,,,,,,,,2,,,57,36
68280,note_on,0,0,3,,,,,,,,,2,,,50,36
68280,note_on,0,0,1,,,,,,,,,0,,,69,49
68280,note_on,54,0,1,,,,,,,,,0,,,62,49
68280,note_on,0,0,1,,,,,,,,,0,,,66,49
68280,note_on,0,0,1,,,,,,,,,0,,,74,49
68370,control_change,0,0,3,,,,,,,,,2,64,127,,
68370,note_on,0,0,3,,,,,,,,,2,,,54,0
68370,note_on,0,0,3,,,,,,,,,2,,,50,0
68370,note_on,0,0,3,,,,,,,,,2,,,48,0
68370,note_on,90,0,3,,,,,,,,,2,,,57,0
68370,note_on,0,0,3,,,,,,,,,2,,,43,110
68370,note_on,0,0,3,,,,,,,,,2,,,35,102
68370,note_on,90,0,1,,,,,,,,,0,,,74,0
68370,note_on,0,0,1,,,,,,,,,0,,,66,0
68370,note_on,0,0,1,,,,,,,,,0,,,69,0
68370,note_on,0,0,1,,,,,,,,,0,,,74,115
68370,note_on,0,0,1,,,,,,,,,0,,,79,119
68370,note_on,0,0,1,,,,,,,,,0,,,83,123
68370,note_on,0,0,1,,,,,,,,,0,,,86,127
68370,control_change,0,0,1,,,,,,,,,0,64,127,,
68370,note_on,0,0,3,,,,,,,,,2,,,47,114
68370,note_on,0,0,1,,,,,,,,,0,,,62,0
68370,note_on,0,0,3,,,,,,,,,2,,,38,106
68430,note_on,60,0,3,,,,,,,,,2,,,47,0
68430,note_on,0,0,1,,,,,,,,,0,,,79,101
68430,note_on,60,0,1,,,,,,,,,0,,,86,0
68430,note_on,0,0,1,,,,,,,,,0,,,74,0
68430,note_on,0,0,3,,,,,,,,,2,,,35,0
68430,note_on,0,0,1,,,,,,,,,0,,,79,0
68430,note_on,0,0,3,,,,,,,,,2,,,38,0
68430,note_on,0,0,3,,,,,,,,,2,,,35,88
68430,note_on,0,0,1,,,,,,,,,0,,,83,101
68430,note_on,0,0,1,,,,,,,,,0,,,86,101
68430,note_on,0,0,3,,,,,,,,,2,,,43,0
68430,note_on,0,0,1,,,,,,,,,0,,,74,101
68430,note_on,0,0,1,,,,,,,,,0,,,83,0
68430,note_on,0,0,3,,,,,,,,,2,,,38,88
68430,note_on,0,0,3,,,,,,,,,2,,,43,88
68430,note_on,0,0,3,,,,,,,,,2,,,47,88
68460,note_on,0,0,3,,,,,,,,,2,,,38,0
68460,note_on,30,0,1,,,,,,,,,0,,,86,0
68460,note_on,0,0,1,,,,,,,,,0,,,74,0
68460,note_on,0,0,1,,,,,,,,,0,,,79,0
68460,note_on,0,0,1,,,,,,,,,0,,,83,0
68460,note_on,0,0,1,,,,,,,,,0,,,74,101
68460,note_on,0,0,1,,,,,,,,,0,,,79,101
68460,note_on,0,0,1,,,,,,,,,0,,,83,101
68460,note_on,0,0,1,,,,,,,,,0,,,86,101
68460,note_on,30,0,3,,,,,,,,,2,,,47,0
68460,note_on,0,0,3,,,,,,,,,2,,,47,88
68460,note_on,0,0,3,,,,,,,,,2,,,43,88
68460,note_on,0,0,3,,,,,,,,,2,,,38,88
68460,note_on,0,0,3,,,,,,,,,2,,,35,88
68460,note_on,0,0,3,,,,,,,,,2,,,43,0
68460,note_on,0,0,3,,,,,,,,,2,,,35,0
68466,note_on,0,0,3,,,,,,,,,2,,,43,0
68466,note_on,0,0,3,,,,,,,,,2,,,38,0
68466,note_on,0,0,3,,,,,,,,,2,,,35,0
68466,note_on,6,0,3,,,,,,,,,2,,,47,0
68466,note_on,0,0,1,,,,,,,,,0,,,83,0
68466,note_on,6,0,1,,,,,,,,,0,,,86,0
68466,note_on,0,0,1,,,,,,,,,0,,,74,0
68466,note_on,0,0,1,,,,,,,,,0,,,79,0
68520,note_on,0,0,3,,,,,,,,,2,,,47,114
68520,note_on,0,0,3,,,,,,,,,2,,,43,110
68520,note_on,0,0,3,,,,,,,,,2,,,38,106
68520,note_on,54,0,3,,,,,,,,,2,,,35,102
68520,note_on,0,0,1,,,,,,,,,0,,,79,119
68520,note_on,0,0,1,,,,,,,,,0,,,83,123
68520,note_on,54,0,1,,,,,,,,,0,,,74,115
68520,note_on,0,0,1,,,,,,,,,0,,,86,127
68610,note_on,90,0,1,,,,,,,,,0,,,86,0
68610,note_on,0,0,1,,,,,,,,,0,,,74,0
68610,note_on,0,0,3,,,,,,,,,2,,,48,64
68610,note_on,0,0,1,,,,,,,,,0,,,79,0
68610,note_on,0,0,1,,,,,,,,,0,,,83,0
68610,note_on,0,0,1,,,,,,,,,0,,,62,63
68610,note_on,0,0,1,,,,,,,,,0,,,66,67
68610,note_on,0,0,1,,,,,,,,,0,,,69,71
68610,note_on,0,0,1,,,,,,,,,0,,,74,75
68610,control_change,0,0,1,,,,,,,,,0,64,0,,
68610,note_on,90,0,3,,,,,,,,,2,,,47,0
68610,note_on,0,0,3,,,,,,,,,2,,,35,0
68610,note_on,0,0,3,,,,,,,,,2,,,43,0
68610,control_change,0,0,3,,,,,,,,,2,64,0,,
68610,note_on,0,0,3,,,,,,,,,2,,,50,72
68610,note_on,0,0,3,,,,,,,,,2,,,38,0
68610,note_on,0,0,3,,,,,,,,,2,,,57,88
68610,note_on,0,0,3,,,,,,,,,2,,,54,80
68670,note_on,0,0,1,,,,,,,,,0,,,74,49
68670,note_on,0,0,1,,,,,,,,,0,,,69,49
68670,note_on,0,0,1,,,,,,,,,0,,,66,49
68670,note_on,0,0,1,,,,,,,,,0,,,62,49
68670,note_on,0,0,1,,,,,,,,,0,,,69,0
68670,note_on,0,0,1,,,,,,,,,0,,,66,0
68670,note_on,0,0,1,,,,,,,,,0,,,62,0
68670,note_on,60,0,1,,,,,,,,,0,,,74,0
68700,note_on,0,0,1,,,,,,,,,0,,,74,49
68700,note_on,0,0,1,,,,,,,,,0,,,66,49
68700,note_on,0,0,1,,,,,,,,,0,,,62,49
68700,note_on,0,0,1,,,,,,,,,0,,,69,0
68700,note_on,0,0,1,,,,,,,,,0,,,69,49
68700,note_on,0,0,1,,,,,,,,,0,,,62,0
68700,note_on,90,0,3,,,,,,,,,2,,,57,0
68700,note_on,0,0,3,,,,,,,,,2,,,48,0
68700,note_on,0,0,3,,,,,,,,,2,,,50,0
68700,note_on,0,0,3,,,,,,,,,2,,,57,36
68700,note_on,30,0,1,,,,,,,,,0,,,74,0
68700,note_on,0,0,3,,,,,,,,,2,,,54,0
68700,note_on,0,0,3,,,,,,,,,2,,,48,36
68700,note_on,0,0,3,,,,,,,,,2,,,50,36
68700,note_on,0,0,3,,,,,,,,,2,,,54,36
68700,note_on,0,0,1,,,,,,,,,0,,,66,0
68706,note_on,0,0,3,,,,,,,,,2,,,54,0
68706,note_on,0,0,1,,,,,,,,,0,,,69,0
68706,note_on,0,0,1,,,,,,,,,0,,,66,0
68706,note_on,0,0,1,,,,,,,,,0,,,62,0
68706,note_on,6,0,1,,,,,,,,,0,,,74,0
68706,note_on,6,0,3,,,,,,,,,2,,,57,0
68706,note_on,0,0,3,,,,,,,,,2,,,48,0
68706,note_on,0,0,3,,,,,,,,,2,,,50,0
68760,note_on,0,0,1,,,,,,,,,0,,,74,101
68760,note_on,54,0,1,,,,,,,,,0,,,62,101
68760,note_on,0,0,1,,,,,,,,,0,,,66,101
68760,note_on,0,0,1,,,,,,,,,0,,,69,101
68760,note_on,54,0,3,,,,,,,,,2,,,48,88
68760,note_on,0,0,3,,,,,,,,,2,,,50,88
68760,note_on,0,0,3,,,,,,,,,2,,,54,88
68760,note_on,0,0,3,,,,,,,,,2,,,57,88
68850,note_on,0,0,1,,,,,,,,,0,,,79,101
68850,note_on,0,0,1,,,,,,,,,0,,,66,0
68850,note_on,0,0,1,,,,,,,,,0,,,62,0
68850,note_on,90,0,1,,,,,,,,,0,,,74,0
68850,note_on,0,0,3,,,,,,,,,2,,,47,88
68850,note_on,0,0,3,,,,,,,,,2,,,43,88
68850,note_on,0,0,3,,,,,,,,,2,,,38,88
68850,control_change,0,0,3,,,,,,,,,2,64,127,,
68850,note_on,0,0,1,,,,,,,,,0,,,69,0
68850,note_on,0,0,3,,,,,,,,,2,,,54,0
68850,note_on,0,0,3,,,,,,,,,2,,,50,0
68850,note_on,0,0,3,,,,,,,,,2,,,48,0
68850,note_on,90,0,3,,,,,,,,,2,,,57,0
68850,note_on,0,0,3,,,,,,,,,2,,,35,88
68850,note_on,0,0,1,,,,,,,,,0,,,74,101
68850,note_on,0,0,1,,,,,,,,,0,,,83,101
68850,note_on,0,0,1,,,,,,,,,0,,,86,101
68850,control_change,0,0,1,,,,,,,,,0,64,127,,
68910,note_on,0,0,1,,,,,,,,,0,,,79,0
68910,note_on,60,0,3,,,,,,,,,2,,,47,0
68910,note_on,0,0,3,,,,,,,,,2,,,35,0
68910,note_on,0,0,3,,,,,,,,,2,,,38,0
68910,note_on,0,0,3,,,,,,,,,2,,,43,0
68910,note_on,0,0,3,,,,,,,,,2,,,35,88
68910,note_on,0,0,3,,,,,,,,,2,,,38,88
68910,note_on,0,0,3,,,,,,,,,2,,,43,88
68910,note_on,0,0,3,,,,,,,,,2,,,47,88
68910,note_on,0,0,1,,,,,,,,,0,,,74,0
68910,note_on,0,0,1,,,,,,,,,0,,,83,0
68910,note_on,0,0,1,,,,,,,,,0,,,79,101
68910,note_on,0,0,1,,,,,,,,,0,,,83,101
68910,note_on,0,0,1,,,,,,,,,0,,,86,101
68910,note_on,0,0,1,,,,,,,,,0,,,74,101
68910,note_on,60,0,1,,,,,,,,,0,,,86,0
68940,note_on,30,0,1,,,,,,,,,0,,,86,0
68940,note_on,0,0,1,,,,,,,,,0,,,74,0
68940,note_on,0,0,1,,,,,,,,,0,,,79,0
68940,note_on,0,0,1,,,,,,,,,0,,,83,0
68940,note_on,0,0,1,,,,,,,,,0,,,79,101
68940,note_on,0,0,1,,,,,,,,,0,,,83,101
68940,note_on,0,0,1,,,,,,,,,0,,,86,101
68940,note_on,0,0,1,,,,,,,,,0,,,74,101
68940,note_on,0,0,3,,,,,,,,,2,,,35,0
68940,note_on,0,0,3,,,,,,,,,2,,,38,0
68940,note_on,0,0,3,,,,,,,,,2,,,43,0
68940,note_on,0,0,3,,,,,,,,,2,,,35,88
68940,note_on,0,0,3,,,,,,,,,2,,,38,88
68940,note_on,0,0,3,,,,,,,,,2,,,43,88
68940,note_on,0,0,3,,,,,,,,,2,,,47,88
68940,note_on,30,0,3,,,,,,,,,2,,,47,0
69000,note_on,0,0,1,,,,,,,,,0,,,74,101
69000,note_on,0,0,1,,,,,,,,,0,,,83,101
69000,note_on,0,0,1,,,,,,,,,0,,,83,0
69000,note_on,0,0,1,,,,,,,,,0,,,79,0
69000,note_on,0,0,1,,,,,,,,,0,,,74,0
69000,note_on,60,0,1,,,,,,,,,0,,,86,0
69000,note_on,0,0,3,,,,,,,,,2,,,35,88
69000,note_on,0,0,3,,,,,,,,,2,,,38,0
69000,note_on,0,0,3,,,,,,,,,2,,,47,88
69000,note_on,0,0,3,,,,,,,,,2,,,35,0
69000,note_on,60,0,3,,,,,,,,,2,,,47,0
69000,note_on,0,0,3,,,,,,,,,2,,,43,0
69000,note_on,0,0,1,,,,,,,,,0,,,79,101
69060,note_on,0,0,1,,,,,,,,,0,,,79,101
69060,note_on,0,0,1,,,,,,,,,0,,,74,101
69060,note_on,0,0,1,,,,,,,,,0,,,71,101
69060,note_on,0,0,1,,,,,,,,,0,,,74,0
69060,note_on,0,0,1,,,,,,,,,0,,,79,0
69060,note_on,60,0,1,,,,,,,,,0,,,83,0
69060,note_on,60,0,3,,,,,,,,,2,,,47,0
69060,note_on,0,0,3,,,,,,,,,2,,,35,88
69060,note_on,0,0,3,,,,,,,,,2,,,47,88
69060,note_on,0,0,3,,,,,,,,,2,,,35,0
69120,note_on,0,0,1,,,,,,,,,0,,,74,101
69120,note_on,0,0,1,,,,,,,,,0,,,71,101
69120,note_on,0,0,1,,,,,,,,,0,,,71,0
69120,note_on,0,0,1,,,,,,,,,0,,,74,0
69120,note_on,0,0,1,,,,,,,,,0,,,67,101
69120,note_on,0,0,3,,,,,,,,,2,,,47,88
69120,note_on,0,0,3,,,,,,,,,2,,,35,88
69120,note_on,0,0,3,,,,,,,,,2,,,35,0
69120,note_on,60,0,3,,,,,,,,,2,,,47,0
69120,note_on,60,0,1,,,,,,,,,0,,,79,0
69180,note_on,60,0,1,,,,,,,,,0,,,74,0
69180,note_on,0,0,1,,,,,,,,,0,,,71,0
69180,note_on,0,0,1,,,,,,,,,0,,,67,0
69180,note_on,0,0,1,,,,,,,,,0,,,62,101
69180,note_on,0,0,1,,,,,,,,,0,,,67,101
69180,note_on,0,0,1,,,,,,,,,0,,,71,101
69180,note_on,60,0,3,,,,,,,,,2,,,47,0
69180,note_on,0,0,3,,,,,,,,,2,,,47,88
69180,note_on,0,0,3,,,,,,,,,2,,,35,88
69180,note_on,0,0,3,,,,,,,,,2,,,35,0
69240,note_on,60,0,1,,,,,,,,,0,,,71,0
69240,note_on,0,0,1,,,,,,,,,0,,,67,0
69240,note_on,0,0,3,,,,,,,,,2,,,47,88
69240,note_on,0,0,3,,,,,,,,,2,,,35,88
69240,note_on,0,0,3,,,,,,,,,2,,,35,0
69240,note_on,60,0,3,,,,,,,,,2,,,47,0
69240,note_on,0,0,1,,,,,,,,,0,,,62,101
69240,note_on,0,0,1,,,,,,,,,0,,,67,101
69240,note_on,0,0,1,,,,,,,,,0,,,62,0
69240,note_on,0,0,1,,,,,,,,,0,,,59,101
69300,note_on,0,0,3,,,,,,,,,2,,,35,101
69300,note_on,0,0,3,,,,,,,,,2,,,47,101
69300,note_on,0,0,1,,,,,,,,,0,,,65,114
69300,note_on,60,0,3,,,,,,,,,2,,,47,0
69300,control_change,0,0,3,,,,,,,,,2,64,0,,
69300,note_on,60,0,1,,,,,,,,,0,,,67,0
69300,note_on,0,0,1,,,,,,,,,0,,,62,0
69300,note_on,0,0,1,,,,,,,,,0,,,59,0
69300,note_on,0,0,1,,,,,,,,,0,,,55,114
69300,note_on,0,0,1,,,,,,,,,0,,,62,114
69300,control_change,0,0,1,,,,,,,,,0,64,0,,
69300,note_on,0,0,3,,,,,,,,,2,,,35,0
69660,note_on,360,0,1,,,,,,,,,0,,,65,0
69660,note_on,0,0,1,,,,,,,,,0,,,62,0
69660,note_on,360,0,3,,,,,,,,,2,,,47,0
69660,note_on,0,0,3,,,,,,,,,2,,,35,0
69660,note_on,0,0,1,,,,,,,,,0,,,65,101
69660,note_on,0,0,1,,,,,,,,,0,,,62,101
69660,note_on,0,0,3,,,,,,,,,2,,,35,88
69660,note_on,0,0,3,,,,,,,,,2,,,47,88
69660,note_on,0,0,1,,,,,,,,,0,,,55,101
69660,note_on,0,0,1,,,,,,,,,0,,,55,0
70020,note_on,360,0,3,,,,,,,,,2,,,47,0
70020,note_on,0,0,1,,,,,,,,,0,,,62,70
70020,note_on,0,0,3,,,,,,,,,2,,,52,36
70020,note_on,0,0,3,,,,,,,,,2,,,50,36
70020,control_change,0,0,1,,,,,,,,,0,64,127,,
70020,note_on,0,0,1,,,,,,,,,0,,,64,75
70020,note_on,360,0,1,,,,,,,,,0,,,65,0
70020,note_on,0,0,1,,,,,,,,,0,,,62,0
70020,note_on,0,0,1,,,,,,,,,0,,,55,0
70020,note_on,0,0,1,,,,,,,,,0,,,56,65
70020,note_on,0,0,3,,,,,,,,,2,,,35,0
70020,note_on,0,0,3,,,,,,,,,2,,,47,36
70215,note_on,195,0,1,,,,,,,,,0,,,64,49
70230,note_on,15,0,1,,,,,,,,,0,,,64,0
70230,note_on,0,0,1,,,,,,,,,0,,,66,49
70245,note_on,15,0,1,,,,,,,,,0,,,66,0
70245,note_on,0,0,1,,,,,,,,,0,,,68,49
70260,note_on,0,0,1,,,,,,,,,0,,,56,0
70260,note_on,15,0,1,,,,,,,,,0,,,68,0
70260,note_on,0,0,1,,,,,,,,,0,,,64,0
70260,note_on,0,0,1,,,,,,,,,0,,,66,49
70260,note_on,0,0,1,,,,,,,,,0,,,62,0
70350,note_on,90,0,1,,,,,,,,,0,,,66,0
70350,note_on,0,0,1,,,,,,,,,0,,,64,49
70350,control_change,0,0,1,,,,,,,,,0,64,0,,
70380,note_on,0,0,1,,,,,,,,,0,,,56,49
70380,note_on,360,0,3,,,,,,,,,2,,,52,0
70380,note_on,0,0,3,,,,,,,,,2,,,50,0
70380,note_on,0,0,3,,,,,,,,,2,,,47,0
70380,note_on,0,0,3,,,,,,,,,2,,,47,36
70380,note_on,0,0,3,,,,,,,,,2,,,50,36
70380,note_on,0,0,3,,,,,,,,,2,,,52,36
70380,note_on,0,0,1,,,,,,,,,0,,,62,49
70380,note_on,30,0,1,,,,,,,,,0,,,64,0
70380,note_on,0,0,1,,,,,,,,,0,,,64,49
70380,control_change,0,0,1,,,,,,,,,0,64,127,,
70575,note_on,195,0,1,,,,,,,,,0,,,64,49
70590,note_on,0,0,1,,,,,,,,,0,,,66,49
70590,note_on,15,0,1,,,,,,,,,0,,,64,0
70605,note_on,0,0,1,,,,,,,,,0,,,68,49
70605,note_on,15,0,1,,,,,,,,,0,,,66,0
70620,note_on,0,0,1,,,,,,,,,0,,,56,0
70620,note_on,15,0,1,,,,,,,,,0,,,68,0
70620,note_on,0,0,1,,,,,,,,,0,,,66,49
70620,note_on,0,0,1,,,,,,,,,0,,,64,0
70620,note_on,0,0,1,,,,,,,,,0,,,62,0
70710,control_change,0,0,1,,,,,,,,,0,64,0,,
70710,note_on,90,0,1,,,,,,,,,0,,,66,0
70710,note_on,0,0,1,,,,,,,,,0,,,64,49
70740,note_on,30,0,1,,,,,,,,,0,,,64,0
70740,control_change,0,0,1,,,,,,,,,0,64,127,,
70740,note_on,0,0,3,,,,,,,,,2,,,47,0
70740,control_change,4554,0,2,,,,,,,,,1,64,127,,
70740,note_on,360,0,3,,,,,,,,,2,,,52,0
70740,note_on,0,0,3,,,,,,,,,2,,,50,0
70740,control_change,0,0,3,,,,,,,,,2,64,127,,
70740,note_on,0,0,3,,,,,,,,,2,,,49,36
70740,note_on,0,0,3,,,,,,,,,2,,,52,36
70740,note_on,0,0,3,,,,,,,,,2,,,57,36
70740,note_on,0,0,1,,,,,,,,,0,,,64,49
70740,note_on,0,0,2,,,,,,,,,1,,,61,36
70770,note_on,0,0,1,,,,,,,,,0,,,69,49
70770,note_on,30,0,1,,,,,,,,,0,,,64,0
70800,note_on,30,0,1,,,,,,,,,0,,,69,0
70800,note_on,0,0,1,,,,,,,,,0,,,68,49
70800,note_on,60,0,2,,,,,,,,,1,,,61,0
70800,note_on,0,0,3,,,,,,,,,2,,,59,36
70800,note_on,0,0,3,,,,,,,,,2,,,57,36
70800,note_on,0,0,3,,,,,,,,,2,,,54,36
70800,note_on,0,0,3,,,,,,,,,2,,,49,0
70800,note_on,0,0,3,,,,,,,,,2,,,52,0
70800,note_on,60,0,3,,,,,,,,,2,,,57,0
70800,note_on,0,0,2,,,,,,,,,1,,,63,36
70830,note_on,30,0,1,,,,,,,,,0,,,68,0
70830,note_on,0,0,1,,,,,,,,,0,,,69,49
70860,note_on,0,0,3,,,,,,,,,2,,,57,36
70860,note_on,0,0,3,,,,,,,,,2,,,61,36
70860,note_on,0,0,3,,,,,,,,,2,,,52,36
70860,note_on,0,0,3,,,,,,,,,2,,,54,0
70860,note_on,60,0,3,,,,,,,,,2,,,59,0
70860,note_on,0,0,3,,,,,,,,,2,,,57,0
70860,note_on,30,0,1,,,,,,,,,0,,,69,0
70860,note_on,0,0,2,,,,,,,,,1,,,64,36
70860,note_on,60,0,2,,,,,,,,,1,,,63,0
70860,note_on,0,0,1,,,,,,,,,0,,,73,49
70980,note_on,0,0,3,,,,,,,,,2,,,52,36
70980,note_on,120,0,1,,,,,,,,,0,,,73,0
70980,control_change,0,0,1,,,,,,,,,0,64,0,,
70980,note_on,0,0,1,,,,,,,,,0,,,73,49
70980,note_on,0,0,3,,,,,,,,,2,,,40,36
70980,control_change,0,0,3,,,,,,,,,2,64,0,,
70980,note_on,0,0,3,,,,,,,,,2,,,52,0
70980,note_on,0,0,3,,,,,,,,,2,,,57,0
70980,note_on,120,0,3,,,,,,,,,2,,,61,0
70980,note_on,120,0,2,,,,,,,,,1,,,64,0
70980,control_change,0,0,2,,,,,,,,,1,64,0,,
70980,note_on,0,0,2,,,,,,,,,1,,,62,36
70980,note_on,0,0,2,,,,,,,,,1,,,64,36
70980,note_on,0,0,2,,,,,,,,,1,,,68,36
71070,note_on,0,0,1,,,,,,,,,0,,,71,49
71070,note_on,90,0,1,,,,,,,,,0,,,73,0
71100,control_change,0,0,1,,,,,,,,,0,64,127,,
71100,note_on,30,0,1,,,,,,,,,0,,,71,0
71100,note_on,0,0,1,,,,,,,,,0,,,61,36
71100,note_on,0,0,2,,,,,,,,,1,,,62,0
71100,note_on,0,0,1,,,,,,,,,0,,,64,36
71100,note_on,0,0,1,,,,,,,,,0,,,69,36
71100,note_on,0,0,2,,,,,,,,,1,,,64,0
71100,note_on,0,0,3,,,,,,,,,2,,,40,0
71100,note_on,0,0,3,,,,,,,,,2,,,52,49
71100,note_on,0,0,3,,,,,,,,,2,,,45,49
71100,note_on,120,0,2,,,,,,,,,1,,,68,0
71100,note_on,120,0,3,,,,,,,,,2,,,52,0
71130,note_on,0,0,1,,,,,,,,,0,,,69,62
71130,note_on,0,0,1,,,,,,,,,0,,,64,58
71130,note_on,0,0,1,,,,,,,,,0,,,61,54
71130,note_on,0,0,1,,,,,,,,,0,,,57,50
71130,note_on,0,0,1,,,,,,,,,0,,,61,0
71130,note_on,0,0,1,,,,,,,,,0,,,64,0
71130,note_on,30,0,1,,,,,,,,,0,,,69,0
71130,note_on,0,0,3,,,,,,,,,2,,,45,0
71130,note_on,30,0,3,,,,,,,,,2,,,52,0
71190,note_on,60,0,1,,,,,,,,,0,,,69,0
71190,note_on,0,0,1,,,,,,,,,0,,,64,0
71190,note_on,0,0,1,,,,,,,,,0,,,61,0
71190,note_on,0,0,1,,,,,,,,,0,,,57,0
71190,note_on,0,0,1,,,,,,,,,0,,,61,36
71190,note_on,0,0,1,,,,,,,,,0,,,64,36
71190,note_on,0,0,1,,,,,,,,,0,,,69,36
71190,note_on,0,0,1,,,,,,,,,0,,,57,36
71194,note_on,4,0,1,,,,,,,,,0,,,69,0
71194,note_on,0,0,1,,,,,,,,,0,,,57,0
71194,note_on,0,0,1,,,,,,,,,0,,,64,0
71194,note_on,0,0,1,,,,,,,,,0,,,61,0
71220,note_on,26,0,1,,,,,,,,,0,,,57,36
71220,note_on,0,0,1,,,,,,,,,0,,,64,36
71220,note_on,0,0,1,,,,,,,,,0,,,69,36
71220,note_on,0,0,1,,,,,,,,,0,,,61,36
71226,note_on,0,0,1,,,,,,,,,0,,,64,0
71226,note_on,0,0,1,,,,,,,,,0,,,61,0
71226,note_on,0,0,1,,,,,,,,,0,,,57,0
71226,note_on,6,0,1,,,,,,,,,0,,,69,0
71280,note_on,0,0,1,,,,,,,,,0,,,61,36
71280,note_on,150,0,3,,,,,,,,,2,,,45,49
71280,note_on,0,0,1,,,,,,,,,0,,,69,36
71280,note_on,0,0,1,,,,,,,,,0,,,64,36
71280,note_on,0,0,1,,,,,,,,,0,,,57,36
71280,control_change,54,0,1,,,,,,,,,0,64,0,,
71286,note_on,0,0,1,,,,,,,,,0,,,64,0
71286,note_on,0,0,1,,,,,,,,,0,,,61,0
71286,note_on,0,0,1,,,,,,,,,0,,,57,0
71286,note_on,6,0,1,,,,,,,,,0,,,69,0
71286,note_on,6,0,3,,,,,,,,,2,,,45,0
71340,note_on,54,0,3,,,,,,,,,2,,,47,49
71346,note_on,6,0,3,,,,,,,,,2,,,47,0
71400,note_on,54,0,3,,,,,,,,,2,,,44,49
71406,note_on,6,0,3,,,,,,,,,2,,,44,0
71460,note_on,54,0,3,,,,,,,,,2,,,45,75
71490,control_change,204,0,1,,,,,,,,,0,64,127,,
71490,note_on,0,0,1,,,,,,,,,0,,,57,50
71490,note_on,0,0,1,,,,,,,,,0,,,61,54
71490,note_on,0,0,1,,,,,,,,,0,,,67,58
71490,note_on,0,0,1,,,,,,,,,0,,,69,62
71550,note_on,0,0,1,,,,,,,,,0,,,57,36
71550,note_on,0,0,1,,,,,,,,,0,,,67,0
71550,note_on,0,0,1,,,,,,,,,0,,,61,0
71550,note_on,0,0,1,,,,,,,,,0,,,57,0
71550,note_on,60,0,1,,,,,,,,,0,,,69,0
71550,note_on,0,0,1,,,,,,,,,0,,,67,36
71550,note_on,0,0,1,,,,,,,,,0,,,69,36
71550,note_on,0,0,1,,,,,,,,,0,,,61,36
71554,note_on,0,0,1,,,,,,,,,0,,,67,0
71554,note_on,0,0,1,,,,,,,,,0,,,61,0
71554,note_on,4,0,1,,,,,,,,,0,,,69,0
71554,note_on,0,0,1,,,,,,,,,0,,,57,0
71580,note_on,0,0,1,,,,,,,,,0,,,69,36
71580,note_on,0,0,1,,,,,,,,,0,,,61,36
71580,note_on,0,0,1,,,,,,,,,0,,,67,36
71580,note_on,26,0,1,,,,,,,,,0,,,57,36
71586,note_on,0,0,1,,,,,,,,,0,,,57,0
71586,note_on,6,0,1,,,,,,,,,0,,,69,0
71586,note_on,0,0,1,,,,,,,,,0,,,67,0
71586,note_on,0,0,1,,,,,,,,,0,,,61,0
71640,note_on,0,0,1,,,,,,,,,0,,,69,36
71640,note_on,0,0,1,,,,,,,,,0,,,67,36
71640,control_change,54,0,1,,,,,,,,,0,64,0,,
71640,note_on,0,0,1,,,,,,,,,0,,,61,36
71640,note_on,0,0,1,,,,,,,,,0,,,57,36
71640,note_on,0,0,3,,,,,,,,,2,,,55,49
71640,note_on,180,0,3,,,,,,,,,2,,,45,0
71646,note_on,6,0,3,,,,,,,,,2,,,55,0
71646,note_on,0,0,1,,,,,,,,,0,,,61,0
71646,note_on,6,0,1,,,,,,,,,0,,,69,0
71646,note_on,0,0,1,,,,,,,,,0,,,57,0
71646,note_on,0,0,1,,,,,,,,,0,,,67,0
71700,note_on,54,0,3,,,,,,,,,2,,,52,49
71706,note_on,6,0,3,,,,,,,,,2,,,52,0
71760,note_on,54,0,3,,,,,,,,,2,,,49,49
71766,note_on,6,0,3,,,,,,,,,2,,,49,0
71820,note_on,54,0,3,,,,,,,,,2,,,45,75
71850,control_change,204,0,1,,,,,,,,,0,64,127,,
71850,note_on,0,0,1,,,,,,,,,0,,,57,50
71850,note_on,0,0,1,,,,,,,,,0,,,62,54
71850,note_on,0,0,1,,,,,,,,,0,,,66,58
71850,note_on,0,0,1,,,,,,,,,0,,,69,62
71910,note_on,60,0,1,,,,,,,,,0,,,69,0
71910,note_on,0,0,1,,,,,,,,,0,,,57,0
71910,note_on,0,0,1,,,,,,,,,0,,,66,0
71910,note_on,0,0,1,,,,,,,,,0,,,57,36
71910,note_on,0,0,1,,,,,,,,,0,,,62,36
71910,note_on,0,0,1,,,,,,,,,0,,,66,36
71910,note_on,0,0,1,,,,,,,,,0,,,69,36
71910,note_on,0,0,1,,,,,,,,,0,,,62,0
71914,note_on,4,0,1,,,,,,,,,0,,,69,0
71914,note_on,0,0,1,,,,,,,,,0,,,62,0
71914,note_on,0,0,1,,,,,,,,,0,,,66,0
71914,note_on,0,0,1,,,,,,,,,0,,,57,0
71940,note_on,26,0,1,,,,,,,,,0,,,57,36
71940,note_on,0,0,1,,,,,,,,,0,,,62,36
71940,note_on,0,0,1,,,,,,,,,0,,,66,36
71940,note_on,0,0,1,,,,,,,,,0,,,69,36
71946,note_on,6,0,1,,,,,,,,,0,,,69,0
71946,note_on,0,0,1,,,,,,,,,0,,,57,0
71946,note_on,0,0,1,,,,,,,,,0,,,62,0
71946,note_on,0,0,1,,,,,,,,,0,,,66,0
72000,note_on,180,0,3,,,,,,,,,2,,,45,0
72000,note_on,0,0,3,,,,,,,,,2,,,45,49
72000,note_on,0,0,1,,,,,,,,,0,,,69,36
72000,note_on,0,0,1,,,,,,,,,0,,,62,36
72000,note_on,0,0,1,,,,,,,,,0,,,57,36
72000,control_change,54,0,1,,,,,,,,,0,64,0,,
72000,note_on,0,0,1,,,,,,,,,0,,,66,36
72006,note_on,0,0,1,,,,,,,,,0,,,62,0
72006,note_on,0,0,1,,,,,,,,,0,,,66,0
72006,note_on,6,0,3,,,,,,,,,2,,,45,0
72006,note_on,6,0,1,,,,,,,,,0,,,69,0
72006,note_on,0,0,1,,,,,,,,,0,,,57,0
72060,note_on,54,0,3,,,,,,,,,2,,,47,49
72066,note_on,6,0,3,,,,,,,,,2,,,47,0
72120,note_on,54,0,3,,,,,,,,,2,,,44,49
72126,note_on,6,0,3,,,,,,,,,2,,,44,0
72180,note_on,54,0,3,,,,,,,,,2,,,45,49
72210,note_on,0,0,1,,,,,,,,,0,,,68,62
72210,note_on,0,0,1,,,,,,,,,0,,,57,50
72210,control_change,204,0,1,,,,,,,,,0,64,127,,
72210,note_on,0,0,1,,,,,,,,,0,,,65,58
72210,note_on,0,0,1,,,,,,,,,0,,,62,54
72270,note_on,60,0,1,,,,,,,,,0,,,68,0
72270,note_on,0,0,1,,,,,,,,,0,,,68,36
72270,note_on,0,0,1,,,,,,,,,0,,,65,36
72270,note_on,0,0,1,,,,,,,,,0,,,57,0
72270,note_on,0,0,1,,,,,,,,,0,,,57,36
72270,note_on,0,0,1,,,,,,,,,0,,,65,0
72270,note_on,0,0,1,,,,,,,,,0,,,62,0
72270,note_on,0,0,1,,,,,,,,,0,,,62,36
72274,note_on,0,0,1,,,,,,,,,0,,,57,0
72274,note_on,0,0,1,,,,,,,,,0,,,62,0
72274,note_on,0,0,1,,,,,,,,,0,,,65,0
72274,note_on,4,0,1,,,,,,,,,0,,,68,0
72300,note_on,0,0,1,,,,,,,,,0,,,68,36
72300,note_on,26,0,1,,,,,,,,,0,,,57,36
72300,note_on,0,0,1,,,,,,,,,0,,,65,36
72300,note_on,0,0,1,,,,,,,,,0,,,62,36
72306,note_on,0,0,1,,,,,,,,,0,,,65,0
72306,note_on,0,0,1,,,,,,,,,0,,,62,0
72306,note_on,0,0,1,,,,,,,,,0,,,57,0
72306,note_on,6,0,1,,,,,,,,,0,,,68,0
72360,note_on,0,0,1,,,,,,,,,0,,,62,36
72360,note_on,0,0,3,,,,,,,,,2,,,53,49
72360,note_on,180,0,3,,,,,,,,,2,,,45,0
72360,note_on,0,0,1,,,,,,,,,0,,,65,36
72360,control_change,54,0,1,,,,,,,,,0,64,0,,
72360,note_on,0,0,1,,,,,,,,,0,,,57,36
72360,note_on,0,0,1,,,,,,,,,0,,,68,36
72366,note_on,0,0,1,,,,,,,,,0,,,62,0
72366,note_on,0,0,1,,,,,,,,,0,,,65,0
72366,note_on,6,0,1,,,,,,,,,0,,,68,0
72366,note_on,0,0,1,,,,,,,,,0,,,57,0
72420,note_on,60,0,3,,,,,,,,,2,,,53,0
72420,note_on,0,0,3,,,,,,,,,2,,,50,49
72510,note_on,90,0,3,,,,,,,,,2,,,50,0
72510,note_on,0,0,3,,,,,,,,,2,,,47,49
72540,note_on,0,0,3,,,,,,,,,2,,,45,75
72540,note_on,30,0,3,,,,,,,,,2,,,47,0
72570,note_on,0,0,1,,,,,,,,,0,,,69,62
72570,note_on,0,0,1,,,,,,,,,0,,,64,58
72570,note_on,0,0,1,,,,,,,,,0,,,61,54
72570,control_change,204,0,1,,,,,,,,,0,64,127,,
72570,note_on,0,0,1,,,,,,,,,0,,,57,50
72630,note_on,0,0,1,,,,,,,,,0,,,57,0
72630,note_on,60,0,1,,,,,,,,,0,,,69,0
72630,note_on,0,0,1,,,,,,,,,0,,,61,0
72630,note_on,0,0,1,,,,,,,,,0,,,64,0
72630,note_on,0,0,1,,,,,,,,,0,,,57,36
72630,note_on,0,0,1,,,,,,,,,0,,,61,36
72630,note_on,0,0,1,,,,,,,,,0,,,64,36
72630,note_on,0,0,1,,,,,,,,,0,,,69,36
72634,note_on,0,0,1,,,,,,,,,0,,,64,0
72634,note_on,0,0,1,,,,,,,,,0,,,61,0
72634,note_on,4,0,1,,,,,,,,,0,,,69,0
72634,note_on,0,0,1,,,,,,,,,0,,,57,0
72660,note_on,0,0,1,,,,,,,,,0,,,61,36
72660,note_on,26,0,1,,,,,,,,,0,,,57,36
72660,note_on,0,0,1,,,,,,,,,0,,,64,36
72660,note_on,0,0,1,,,,,,,,,0,,,69,36
72666,note_on,6,0,1,,,,,,,,,0,,,69,0
72666,note_on,0,0,1,,,,,,,,,0,,,57,0
72666,note_on,0,0,1,,,,,,,,,0,,,61,0
72666,note_on,0,0,1,,,,,,,,,0,,,64,0
72720,note_on,0,0,3,,,,,,,,,2,,,33,49
72720,note_on,180,0,3,,,,,,,,,2,,,45,0
72720,control_change,54,0,1,,,,,,,,,0,64,0,,
72720,note_on,0,0,1,,,,,,,,,0,,,57,36
72720,note_on,0,0,1,,,,,,,,,0,,,64,36
72720,note_on,0,0,1,,,,,,,,,0,,,69,36
72720,note_on,0,0,1,,,,,,,,,0,,,61,36
72726,note_on,0,0,1,,,,,,,,,0,,,57,0
72726,note_on,0,0,1,,,,,,,,,0,,,61,0
72726,note_on,6,0,3,,,,,,,,,2,,,33,0
72726,note_on,6,0,1,,,,,,,,,0,,,69,0
72726,note_on,0,0,1,,,,,,,,,0,,,64,0
72780,note_on,54,0,3,,,,,,,,,2,,,35,49
72786,note_on,6,0,3,,,,,,,,,2,,,35,0
72840,note_on,54,0,3,,,,,,,,,2,,,32,49
72846,note_on,6,0,3,,,,,,,,,2,,,32,0
72900,note_on,54,0,3,,,,,,,,,2,,,33,75
72930,note_on,0,0,1,,,,,,,,,0,,,67,62
72930,note_on,0,0,1,,,,,,,,,0,,,58,50
72930,note_on,0,0,1,,,,,,,,,0,,,61,54
72930,note_on,0,0,1,,,,,,,,,0,,,64,58
72930,control_change,204,0,1,,,,,,,,,0,64,127,,
72990,note_on,0,0,1,,,,,,,,,0,,,64,36
72990,note_on,60,0,1,,,,,,,,,0,,,67,0
72990,note_on,0,0,1,,,,,,,,,0,,,58,0
72990,note_on,0,0,1,,,,,,,,,0,,,61,0
72990,note_on,0,0,1,,,,,,,,,0,,,64,0
72990,note_on,0,0,1,,,,,,,,,0,,,58,36
72990,note_on,0,0,1,,,,,,,,,0,,,61,36
72990,note_on,0,0,1,,,,,,,,,0,,,67,36
72994,note_on,4,0,1,,,,,,,,,0,,,67,0
72994,note_on,0,0,1,,,,,,,,,0,,,58,0
72994,note_on,0,0,1,,,,,,,,,0,,,61,0
72994,note_on,0,0,1,,,,,,,,,0,,,64,0
73020,note_on,26,0,1,,,,,,,,,0,,,58,36
73020,note_on,0,0,1,,,,,,,,,0,,,61,36
73020,note_on,0,0,1,,,,,,,,,0,,,67,36
73020,note_on,0,0,1,,,,,,,,,0,,,64,36
73026,note_on,0,0,1,,,,,,,,,0,,,64,0
73026,note_on,0,0,1,,,,,,,,,0,,,58,0
73026,note_on,0,0,1,,,,,,,,,0,,,61,0
73026,note_on,6,0,1,,,,,,,,,0,,,67,0
73080,note_on,180,0,3,,,,,,,,,2,,,33,0
73080,control_change,54,0,1,,,,,,,,,0,64,0,,
73080,note_on,0,0,1,,,,,,,,,0,,,58,36
73080,note_on,0,0,1,,,,,,,,,0,,,61,36
73080,note_on,0,0,3,,,,,,,,,2,,,37,49
73080,note_on,0,0,1,,,,,,,,,0,,,64,36
73080,note_on,0,0,1,,,,,,,,,0,,,67,36
73086,note_on,0,0,1,,,,,,,,,0,,,64,0
73086,note_on,0,0,1,,,,,,,,,0,,,58,0
73086,note_on,6,0,1,,,,,,,,,0,,,67,0
73086,note_on,0,0,1,,,,,,,,,0,,,61,0
73125,note_on,45,0,3,,,,,,,,,2,,,37,0
73125,note_on,0,0,3,,,,,,,,,2,,,40,49
73140,note_on,15,0,3,,,,,,,,,2,,,40,0
73140,note_on,0,0,3,,,,,,,,,2,,,43,49
73146,note_on,6,0,3,,,,,,,,,2,,,43,0
73200,note_on,54,0,3,,,,,,,,,2,,,46,49
73206,note_on,6,0,3,,,,,,,,,2,,,46,0
73260,note_on,54,0,3,,,,,,,,,2,,,33,75
73290,control_change,204,0,1,,,,,,,,,0,64,127,,
73290,note_on,0,0,1,,,,,,,,,0,,,66,62
73290,note_on,0,0,1,,,,,,,,,0,,,57,52
73290,note_on,0,0,1,,,,,,,,,0,,,62,57
73350,note_on,60,0,1,,,,,,,,,0,,,66,0
73350,note_on,0,0,1,,,,,,,,,0,,,62,36
73350,note_on,0,0,1,,,,,,,,,0,,,66,36
73350,note_on,0,0,1,,,,,,,,,0,,,57,36
73350,note_on,0,0,1,,,,,,,,,0,,,62,0
73350,note_on,0,0,1,,,,,,,,,0,,,57,0
73354,note_on,0,0,1,,,,,,,,,0,,,57,0
73354,note_on,0,0,1,,,,,,,,,0,,,62,0
73354,note_on,4,0,1,,,,,,,,,0,,,66,0
73380,note_on,0,0,1,,,,,,,,,0,,,66,36
73380,note_on,0,0,1,,,,,,,,,0,,,62,36
73380,note_on,26,0,1,,,,,,,,,0,,,57,36
73386,note_on,0,0,1,,,,,,,,,0,,,57,0
73386,note_on,0,0,1,,,,,,,,,0,,,62,0
73386,note_on,6,0,1,,,,,,,,,0,,,66,0
73440,note_on,0,0,1,,,,,,,,,0,,,66,36
73440,note_on,0,0,1,,,,,,,,,0,,,62,36
73440,note_on,0,0,1,,,,,,,,,0,,,57,36
73440,control_change,54,0,1,,,,,,,,,0,64,0,,
73440,note_on,180,0,3,,,,,,,,,2,,,33,0
73440,note_on,0,0,3,,,,,,,,,2,,,33,49
73446,note_on,0,0,1,,,,,,,,,0,,,57,0
73446,note_on,6,0,1,,,,,,,,,0,,,66,0
73446,note_on,6,0,3,,,,,,,,,2,,,33,0
73446,note_on,0,0,1,,,,,,,,,0,,,62,0
73500,note_on,54,0,3,,,,,,,,,2,,,35,49
73506,note_on,6,0,3,,,,,,,,,2,,,35,0
73560,note_on,54,0,3,,,,,,,,,2,,,32,49
73566,note_on,6,0,3,,,,,,,,,2,,,32,0
73620,note_on,54,0,3,,,,,,,,,2,,,33,49
73650,note_on,0,0,1,,,,,,,,,0,,,59,54
73650,control_change,204,0,1,,,,,,,,,0,64,127,,
73650,note_on,0,0,1,,,,,,,,,0,,,56,50
73650,note_on,0,0,1,,,,,,,,,0,,,62,58
73650,note_on,0,0,1,,,,,,,,,0,,,65,62
73656,note_on,6,0,1,,,,,,,,,0,,,65,0
73656,note_on,0,0,1,,,,,,,,,0,,,56,0
73656,note_on,0,0,1,,,,,,,,,0,,,59,0
73656,note_on,0,0,1,,,,,,,,,0,,,62,0
73680,set_tempo,8700,1,0,,,,,,869565,,,,,,,
73710,note_on,54,0,1,,,,,,,,,0,,,56,36
73710,note_on,0,0,1,,,,,,,,,0,,,59,36
73710,note_on,0,0,1,,,,,,,,,0,,,62,36
73710,note_on,0,0,1,,,,,,,,,0,,,65,36
73714,note_on,4,0,1,,,,,,,,,0,,,65,0
73714,note_on,0,0,1,,,,,,,,,0,,,56,0
73714,note_on,0,0,1,,,,,,,,,0,,,59,0
73714,note_on,0,0,1,,,,,,,,,0,,,62,0
73740,note_on,0,0,1,,,,,,,,,0,,,65,36
73740,set_tempo,60,1,0,,,,,,909091,,,,,,,
73740,note_on,0,0,1,,,,,,,,,0,,,59,36
73740,note_on,0,0,1,,,,,,,,,0,,,62,36
73740,note_on,26,0,1,,,,,,,,,0,,,56,36
73746,note_on,6,0,1,,,,,,,,,0,,,65,0
73746,note_on,0,0,1,,,,,,,,,0,,,56,0
73746,note_on,0,0,1,,,,,,,,,0,,,59,0
73746,note_on,0,0,1,,,,,,,,,0,,,62,0
73800,control_change,54,0,1,,,,,,,,,0,64,0,,
73800,note_on,0,0,1,,,,,,,,,0,,,56,36
73800,note_on,0,0,1,,,,,,,,,0,,,59,36
73800,note_on,0,0,1,,,,,,,,,0,,,62,36
73800,note_on,0,0,1,,,,,,,,,0,,,65,36
73800,set_tempo,60,1,0,,,,,,952381,,,,,,,
73800,note_on,180,0,3,,,,,,,,,2,,,33,0
73800,note_on,0,0,3,,,,,,,,,2,,,41,49
73806,note_on,0,0,1,,,,,,,,,0,,,56,0
73806,note_on,0,0,1,,,,,,,,,0,,,59,0
73806,note_on,0,0,1,,,,,,,,,0,,,62,0
73806,note_on,6,0,1,,,,,,,,,0,,,65,0
73845,note_on,0,0,3,,,,,,,,,2,,,40,49
73845,note_on,45,0,3,,,,,,,,,2,,,41,0
73860,set_tempo,60,1,0,,,,,,1016949,,,,,,,
73860,note_on,15,0,3,,,,,,,,,2,,,40,0
73860,note_on,0,0,3,,,,,,,,,2,,,38,49
73875,note_on,15,0,3,,,,,,,,,2,,,38,0
73875,note_on,0,0,3,,,,,,,,,2,,,40,49
73890,note_on,15,0,3,,,,,,,,,2,,,40,0
73890,note_on,0,0,3,,,,,,,,,2,,,38,49
73920,note_on,30,0,3,,,,,,,,,2,,,38,0
73920,note_on,0,0,3,,,,,,,,,2,,,37,49
73920,set_tempo,60,1,0,,,,,,1071429,,,,,,,
73965,note_on,45,0,3,,,,,,,,,2,,,37,0
73965,note_on,0,0,3,,,,,,,,,2,,,35,49
73980,set_tempo,60,1,0,,,,,,1132075,,,,,,,
73980,control_change,0,0,3,,,,,,,,,2,64,127,,
73980,note_on,15,0,3,,,,,,,,,2,,,35,0
73980,note_on,0,0,3,,,,,,,,,2,,,33,49
73992,note_on,12,0,3,,,,,,,,,2,,,33,0
74010,note_on,0,0,1,,,,,,,,,0,,,52,36
74010,control_change,204,0,1,,,,,,,,,0,64,127,,
74010,note_on,0,0,1,,,,,,,,,0,,,64,36
74010,note_on,0,0,1,,,,,,,,,0,,,61,36
74010,note_on,0,0,1,,,,,,,,,0,,,57,36
74016,note_on,6,0,1,,,,,,,,,0,,,64,0
74016,note_on,0,0,1,,,,,,,,,0,,,61,0
74016,note_on,0,0,1,,,,,,,,,0,,,57,0
74016,note_on,0,0,1,,,,,,,,,0,,,52,0
74040,set_tempo,60,1,0,,,,,,1200000,,,,,,,
74070,note_on,54,0,1,,,,,,,,,0,,,52,36
74070,note_on,0,0,1,,,,,,,,,0,,,57,36
74070,note_on,0,0,1,,,,,,,,,0,,,61,36
74070,note_on,0,0,1,,,,,,,,,0,,,64,36
74074,note_on,4,0,1,,,,,,,,,0,,,64,0
74074,note_on,0,0,1,,,,,,,,,0,,,52,0
74074,note_on,0,0,1,,,,,,,,,0,,,57,0
74074,note_on,0,0,1,,,,,,,,,0,,,61,0
74100,note_on,108,0,3,,,,,,,,,2,,,37,49
74100,note_on,0,0,1,,,,,,,,,0,,,57,36
74100,note_on,0,0,1,,,,,,,,,0,,,61,36
74100,note_on,0,0,1,,,,,,,,,0,,,64,36
74100,end_of_track,0,1,0,,,,,,,,,,,,,
74100,set_tempo,60,1,0,,,,,,1304348,,,,,,,
74100,note_on,26,0,1,,,,,,,,,0,,,52,36
74106,note_on,6,0,1,,,,,,,,,0,,,64,0
74106,note_on,0,0,1,,,,,,,,,0,,,57,0
74106,note_on,0,0,1,,,,,,,,,0,,,61,0
74106,note_on,0,0,1,,,,,,,,,0,,,52,0
74112,note_on,12,0,3,,,,,,,,,2,,,37,0
74160,note_on,0,0,1,,,,,,,,,0,,,64,36
74160,note_on,54,0,1,,,,,,,,,0,,,52,36
74160,note_on,0,0,1,,,,,,,,,0,,,57,36
74160,note_on,0,0,1,,,,,,,,,0,,,61,36
74166,note_on,0,0,1,,,,,,,,,0,,,61,0
74166,note_on,0,0,1,,,,,,,,,0,,,57,0
74166,note_on,6,0,1,,,,,,,,,0,,,64,0
74166,note_on,0,0,1,,,,,,,,,0,,,52,0
74220,note_on,0,0,1,,,,,,,,,0,,,61,36
74220,note_on,0,0,1,,,,,,,,,0,,,57,36
74220,note_on,54,0,1,,,,,,,,,0,,,52,36
74220,note_on,108,0,3,,,,,,,,,2,,,40,49
74226,note_on,0,0,1,,,,,,,,,0,,,52,0
74226,note_on,6,0,1,,,,,,,,,0,,,61,0
74226,note_on,0,0,1,,,,,,,,,0,,,57,0
74232,note_on,12,0,3,,,,,,,,,2,,,40,0
74280,note_on,0,0,1,,,,,,,,,0,,,57,36
74280,note_on,0,0,1,,,,,,,,,0,,,61,36
74280,note_on,54,0,1,,,,,,,,,0,,,52,36
74286,note_on,6,0,1,,,,,,,,,0,,,61,0
74286,note_on,0,0,1,,,,,,,,,0,,,57,0
74286,note_on,0,0,1,,,,,,,,,0,,,52,0
74340,note_on,0,0,3,,,,,,,,,2,,,45,49
74340,note_on,54,0,1,,,,,,,,,0,,,49,36
74340,note_on,0,0,1,,,,,,,,,0,,,52,36
74340,note_on,0,0,1,,,,,,,,,0,,,57,36
74340,note_on,108,0,3,,,,,,,,,2,,,33,49
74340,note_on,0,0,3,,,,,,,,,2,,,40,49
74340,note_on,0,0,3,,,,,,,,,2,,,37,49
74700,note_on,0,0,3,,,,,,,,,2,,,40,0
74700,note_on,0,0,3,,,,,,,,,2,,,33,0
74700,note_on,0,0,1,,,,,,,,,0,,,52,0
74700,note_on,0,0,1,,,,,,,,,0,,,49,0
74700,note_on,360,0,1,,,,,,,,,0,,,57,0
74700,note_on,360,0,3,,,,,,,,,2,,,45,0
74700,note_on,0,0,3,,,,,,,,,2,,,37,0
75060,control_change,360,0,3,,,,,,,,,2,64,0,,
75060,control_change,8874,0,4,,,,,,,,,3,64,0,,
75060,control_change,3960,0,2,,,,,,,,,1,64,0,,
75060,control_change,360,0,1,,,,,,,,,0,64,0,,
75420,control_change,360,0,2,,,,,,,,,1,64,0,,
75420,end_of_track,0,1,3,,,,,,,,,,,,,
75420,control_change,360,0,3,,,,,,,,,2,64,0,,
75420,end_of_track,0,1,2,,,,,,,,,,,,,
75420,control_change,360,0,1,,,,,,,,,0,64,0,,
75420,end_of_track,0,1,1,,,,,,,,,,,,,
75420,control_change,360,0,4,,,,,,,,,3,64,0,,
75420,end_of_track,0,1,4,,,,,,,,,,,,,
