tick,type,time,meta,track,numerator,denominator,clocks_per_click,notated_32nd_notes_per_beat,key,tempo,port,program,channel,control,value,note,velocity
0,track_name,0,1,0,,,,,,,,,,,,,
0,control_change,0,0,2,,,,,,,,,1,10,97,,
0,midi_port,0,1,3,,,,,,,0,,,,,,
0,track_name,0,1,3,,,,,,,,,,,,,
0,program_change,0,0,3,,,,,,,,0,2,,,,
0,control_change,0,0,3,,,,,,,,,2,7,127,,
0,control_change,0,0,3,,,,,,,,,2,10,30,,
0,control_change,0,0,2,,,,,,,,,1,7,127,,
0,note_on,0,0,3,,,,,,,,,2,,,33,88
0,note_on,0,0,1,,,,,,,,,0,,,61,101
0,note_on,0,0,1,,,,,,,,,0,,,57,101
0,note_on,0,0,1,,,,,,,,,0,,,55,101
0,control_change,0,0,1,,,,,,,,,0,10,97,,
0,control_change,0,0,1,,,,,,,,,0,7,127,,
0,program_change,0,0,1,,,,,,,,0,0,,,,
0,track_name,0,1,1,,,,,,,,,,,,,
0,program_change,0,0,2,,,,,,,,0,1,,,,
0,note_on,0,0,3,,,,,,,,,2,,,45,88
0,midi_port,0,1,2,,,,,,,0,,,,,,
0,copyright,0,1,0,,,,,,,,,,,,,
0,text,0,1,0,,,,,,,,,,,,,
0,time_signature,0,1,0,9,16,6,8,,,,,,,,,
0,key_signature,0,1,0,,,,,D,,,,,,,,
0,set_tempo,0,1,0,,,,,,333333,,,,,,,
0,track_name,0,1,2,,,,,,,,,,,,,
0,control_change,0,0,4,,,,,,,,,3,10,30,,
0,control_change,0,0,4,,,,,,,,,3,7,127,,
0,program_change,0,0,4,,,,,,,,0,3,,,,
0,track_name,0,1,4,,,,,,,,,,,,,
0,midi_port,0,1,1,,,,,,,0,,,,,,
0,midi_port,0,1,4,,,,,,,0,,,,,,
30,note_on,30,0,1,,,,,,,,,0,,,61,0
30,note_on,0,0,1,,,,,,,,,0,,,57,0
30,note_on,0,0,1,,,,,,,,,0,,,55,0
30,note_on,0,0,1,,,,,,,,,0,,,55,101
30,note_on,0,0,1,,,,,,,,,0,,,57,101
30,note_on,0,0,1,,,,,,,,,0,,,61,101
30,note_on,0,0,3,,,,,,,,,2,,,45,88
30,note_on,0,0,3,,,,,,,,,2,,,33,88
30,note_on,0,0,3,,,,,,,,,2,,,33,0
30,note_on,30,0,3,,,,,,,,,2,,,45,0
120,note_on,0,0,1,,,,,,,,,0,,,61,101
120,note_on,0,0,3,,,,,,,,,2,,,33,88
120,note_on,0,0,3,,,,,,,,,2,,,33,0
120,note_on,90,0,3,,,,,,,,,2,,,45,0
120,note_on,0,0,1,,,,,,,,,0,,,55,0
120,note_on,0,0,1,,,,,,,,,0,,,57,101
120,note_on,0,0,1,,,,,,,,,0,,,55,101
120,note_on,0,0,3,,,,,,,,,2,,,45,88
120,note_on,0,0,1,,,,,,,,,0,,,57,0
120,note_on,90,0,1,,,,,,,,,0,,,61,0
150,note_on,0,0,3,,,,,,,,,2,,,47,88
150,note_on,0,0,1,,,,,,,,,0,,,57,0
150,note_on,0,0,3,,,,,,,,,2,,,35,88
150,note_on,0,0,3,,,,,,,,,2,,,33,0
150,note_on,30,0,3,,,,,,,,,2,,,45,0
150,note_on,0,0,1,,,,,,,,,0,,,55,0
150,note_on,0,0,1,,,,,,,,,0,,,57,101
150,note_on,0,0,1,,,,,,,,,0,,,62,101
150,note_on,30,0,1,,,,,,,,,0,,,61,0
150,note_on,0,0,1,,,,,,,,,0,,,55,101
240,note_on,0,0,3,,,,,,,,,2,,,37,88
240,note_on,0,0,1,,,,,,,,,0,,,64,101
240,note_on,0,0,1,,,,,,,,,0,,,57,101
240,note_on,0,0,1,,,,,,,,,0,,,55,101
240,note_on,0,0,1,,,,,,,,,0,,,55,0
240,note_on,0,0,3,,,,,,,,,2,,,35,0
240,note_on,90,0,3,,,,,,,,,2,,,47,0
240,note_on,0,0,1,,,,,,,,,0,,,57,0
240,note_on,90,0,1,,,,,,,,,0,,,62,0
240,note_on,0,0,3,,,,,,,,,2,,,49,88
270,note_on,30,0,3,,,,,,,,,2,,,49,0
270,time_signature,270,1,0,3,4,24,8,,,,,,,,,
270,note_on,0,0,1,,,,,,,,,0,,,55,0
270,note_on,0,0,1,,,,,,,,,0,,,57,114
270,note_on,0,0,1,,,,,,,,,0,,,54,114
270,note_on,0,0,1,,,,,,,,,0,,,66,114
270,note_on,0,0,1,,,,,,,,,0,,,57,0
270,note_on,0,0,3,,,,,,,,,2,,,50,101
270,note_on,0,0,3,,,,,,,,,2,,,45,101
270,note_on,0,0,3,,,,,,,,,2,,,38,101
270,note_on,0,0,3,,,,,,,,,2,,,37,0
270,note_on,0,0,1,,,,,,,,,0,,,62,114
270,note_on,30,0,1,,,,,,,,,0,,,64,0
510,note_on,0,0,1,,,,,,,,,0,,,54,114
510,note_on,0,0,1,,,,,,,,,0,,,57,114
510,note_on,0,0,1,,,,,,,,,0,,,66,114
510,note_on,240,0,1,,,,,,,,,0,,,66,0
510,note_on,0,0,1,,,,,,,,,0,,,54,0
510,note_on,0,0,1,,,,,,,,,0,,,57,0
510,note_on,0,0,1,,,,,,,,,0,,,62,0
510,note_on,0,0,1,,,,,,,,,0,,,62,114
510,note_on,240,0,3,,,,,,,,,2,,,50,0
510,note_on,0,0,3,,,,,,,,,2,,,45,0
510,note_on,0,0,3,,,,,,,,,2,,,38,0
510,note_on,0,0,3,,,,,,,,,2,,,38,101
510,note_on,0,0,3,,,,,,,,,2,,,45,101
510,note_on,0,0,3,,,,,,,,,2,,,50,101
720,note_on,210,0,1,,,,,,,,,0,,,66,0
720,note_on,0,0,1,,,,,,,,,0,,,66,114
720,note_on,0,0,1,,,,,,,,,0,,,62,0
720,note_on,0,0,1,,,,,,,,,0,,,57,0
720,note_on,0,0,1,,,,,,,,,0,,,54,0
750,note_on,0,0,3,,,,,,,,,2,,,38,0
750,note_on,30,0,1,,,,,,,,,0,,,66,0
750,note_on,240,0,3,,,,,,,,,2,,,50,0
750,note_on,0,0,1,,,,,,,,,0,,,67,114
750,note_on,0,0,3,,,,,,,,,2,,,45,0
750,note_on,0,0,3,,,,,,,,,2,,,50,101
750,note_on,750,0,2,,,,,,,,,1,,,57,64
750,note_on,0,0,3,,,,,,,,,2,,,38,101
840,note_on,0,0,1,,,,,,,,,0,,,66,114
840,note_on,90,0,1,,,,,,,,,0,,,67,0
855,note_on,15,0,1,,,,,,,,,0,,,66,0
855,note_on,0,0,1,,,,,,,,,0,,,64,114
862,note_on,7,0,1,,,,,,,,,0,,,66,114
863,note_on,1,0,1,,,,,,,,,0,,,64,0
870,note_on,0,0,3,,,,,,,,,2,,,54,101
870,note_on,0,0,3,,,,,,,,,2,,,42,101
870,note_on,0,0,3,,,,,,,,,2,,,38,0
870,note_on,120,0,3,,,,,,,,,2,,,50,0
870,note_on,0,0,1,,,,,,,,,0,,,64,114
870,note_on,7,0,1,,,,,,,,,0,,,66,0
870,note_on,120,0,2,,,,,,,,,1,,,57,0
870,note_on,0,0,2,,,,,,,,,1,,,57,64
960,note_on,90,0,1,,,,,,,,,0,,,64,0
960,note_on,0,0,1,,,,,,,,,0,,,62,114
990,note_on,0,0,3,,,,,,,,,2,,,42,0
990,note_on,0,0,1,,,,,,,,,0,,,57,114
990,note_on,0,0,1,,,,,,,,,0,,,69,114
990,note_on,0,0,1,,,,,,,,,0,,,64,114
990,note_on,0,0,3,,,,,,,,,2,,,37,101
990,note_on,30,0,1,,,,,,,,,0,,,62,0
990,note_on,0,0,3,,,,,,,,,2,,,49,101
990,note_on,0,0,3,,,,,,,,,2,,,45,101
990,note_on,120,0,2,,,,,,,,,1,,,57,0
990,note_on,120,0,3,,,,,,,,,2,,,54,0
1230,note_on,0,0,3,,,,,,,,,2,,,49,101
1230,note_on,240,0,3,,,,,,,,,2,,,49,0
1230,note_on,0,0,3,,,,,,,,,2,,,45,0
1230,note_on,0,0,3,,,,,,,,,2,,,37,0
1230,note_on,0,0,3,,,,,,,,,2,,,37,101
1230,note_on,0,0,3,,,,,,,,,2,,,45,101
1230,note_on,240,0,1,,,,,,,,,0,,,69,0
1230,note_on,0,0,1,,,,,,,,,0,,,64,0
1230,note_on,0,0,1,,,,,,,,,0,,,57,0
1230,note_on,0,0,1,,,,,,,,,0,,,57,114
1230,note_on,0,0,1,,,,,,,,,0,,,64,114
1230,note_on,0,0,1,,,,,,,,,0,,,69,114
1440,note_on,0,0,1,,,,,,,,,0,,,64,0
1440,note_on,0,0,1,,,,,,,,,0,,,57,0
1440,note_on,210,0,1,,,,,,,,,0,,,69,0
1440,note_on,0,0,1,,,,,,,,,0,,,69,114
1455,note_on,15,0,1,,,,,,,,,0,,,69,0
1455,note_on,0,0,1,,,,,,,,,0,,,71,114
1462,note_on,7,0,1,,,,,,,,,0,,,73,114
1463,note_on,1,0,1,,,,,,,,,0,,,71,0
1470,note_on,480,0,2,,,,,,,,,1,,,64,64
1470,note_on,240,0,3,,,,,,,,,2,,,49,0
1470,note_on,0,0,3,,,,,,,,,2,,,45,0
1470,note_on,0,0,3,,,,,,,,,2,,,37,0
1470,note_on,0,0,3,,,,,,,,,2,,,37,101
1470,note_on,0,0,3,,,,,,,,,2,,,49,101
1473,note_on,10,0,1,,,,,,,,,0,,,73,0
1473,note_on,0,0,1,,,,,,,,,0,,,71,114
1533,note_on,60,0,1,,,,,,,,,0,,,71,0
1533,note_on,0,0,1,,,,,,,,,0,,,69,114
1563,note_on,0,0,1,,,,,,,,,0,,,71,114
1563,note_on,30,0,1,,,,,,,,,0,,,69,0
1590,note_on,0,0,3,,,,,,,,,2,,,49,101
1590,note_on,0,0,3,,,,,,,,,2,,,37,101
1590,note_on,0,0,3,,,,,,,,,2,,,37,0
1590,note_on,120,0,3,,,,,,,,,2,,,49,0
1590,note_on,0,0,2,,,,,,,,,1,,,64,64
1590,note_on,120,0,2,,,,,,,,,1,,,64,0
1653,note_on,90,0,1,,,,,,,,,0,,,71,0
1653,note_on,0,0,1,,,,,,,,,0,,,73,114
1683,note_on,30,0,1,,,,,,,,,0,,,73,0
1710,note_on,0,0,1,,,,,,,,,0,,,66,114
1710,note_on,0,0,1,,,,,,,,,0,,,71,114
1710,note_on,0,0,1,,,,,,,,,0,,,74,114
1710,note_on,27,0,1,,,,,,,,,0,,,62,114
1710,note_on,0,0,3,,,,,,,,,2,,,47,101
1710,note_on,0,0,3,,,,,,,,,2,,,35,101
1710,note_on,0,0,3,,,,,,,,,2,,,42,101
1710,note_on,0,0,3,,,,,,,,,2,,,37,0
1710,note_on,120,0,3,,,,,,,,,2,,,49,0
1710,note_on,120,0,2,,,,,,,,,1,,,64,0
1950,note_on,0,0,3,,,,,,,,,2,,,42,101
1950,note_on,0,0,3,,,,,,,,,2,,,47,101
1950,note_on,0,0,1,,,,,,,,,0,,,74,114
1950,note_on,0,0,1,,,,,,,,,0,,,71,114
1950,note_on,0,0,1,,,,,,,,,0,,,62,114
1950,note_on,0,0,1,,,,,,,,,0,,,71,0
1950,note_on,0,0,1,,,,,,,,,0,,,66,0
1950,note_on,0,0,1,,,,,,,,,0,,,62,0
1950,note_on,240,0,1,,,,,,,,,0,,,74,0
1950,note_on,0,0,3,,,,,,,,,2,,,35,0
1950,note_on,0,0,3,,,,,,,,,2,,,42,0
1950,note_on,0,0,3,,,,,,,,,2,,,35,101
1950,note_on,0,0,1,,,,,,,,,0,,,66,114
1950,note_on,240,0,3,,,,,,,,,2,,,47,0
2070,note_on,120,0,3,,,,,,,,,2,,,42,0
2130,note_on,0,0,1,,,,,,,,,0,,,66,0
2130,note_on,60,0,3,,,,,,,,,2,,,47,0
2130,note_on,0,0,3,,,,,,,,,2,,,35,0
2130,note_on,0,0,3,,,,,,,,,2,,,40,101
2130,note_on,0,0,3,,,,,,,,,2,,,52,101
2130,note_on,180,0,1,,,,,,,,,0,,,74,0
2130,note_on,0,0,1,,,,,,,,,0,,,62,0
2130,note_on,0,0,1,,,,,,,,,0,,,71,0
2130,note_on,0,0,1,,,,,,,,,0,,,68,114
2130,note_on,0,0,1,,,,,,,,,0,,,74,114
2136,note_on,0,0,3,,,,,,,,,2,,,40,0
2136,note_on,0,0,1,,,,,,,,,0,,,68,0
2136,note_on,6,0,1,,,,,,,,,0,,,74,0
2136,note_on,6,0,3,,,,,,,,,2,,,52,0
2190,note_on,0,0,3,,,,,,,,,2,,,52,101
2190,note_on,54,0,1,,,,,,,,,0,,,68,114
2190,note_on,0,0,1,,,,,,,,,0,,,74,114
2190,note_on,54,0,3,,,,,,,,,2,,,40,101
2196,note_on,6,0,3,,,,,,,,,2,,,52,0
2196,note_on,6,0,1,,,,,,,,,0,,,74,0
2196,note_on,0,0,1,,,,,,,,,0,,,68,0
2196,note_on,0,0,3,,,,,,,,,2,,,40,0
2250,note_on,0,0,1,,,,,,,,,0,,,76,114
2250,note_on,54,0,1,,,,,,,,,0,,,68,114
2250,note_on,54,0,3,,,,,,,,,2,,,40,101
2250,note_on,0,0,1,,,,,,,,,0,,,74,114
2250,note_on,0,0,3,,,,,,,,,2,,,52,101
2256,note_on,6,0,3,,,,,,,,,2,,,52,0
2256,note_on,0,0,1,,,,,,,,,0,,,68,0
2256,note_on,0,0,1,,,,,,,,,0,,,74,0
2256,note_on,6,0,1,,,,,,,,,0,,,76,0
2256,note_on,0,0,3,,,,,,,,,2,,,40,0
2310,note_on,54,0,3,,,,,,,,,2,,,40,101
2310,note_on,0,0,3,,,,,,,,,2,,,52,101
2310,note_on,0,0,1,,,,,,,,,0,,,78,114
2310,note_on,54,0,1,,,,,,,,,0,,,68,114
2310,note_on,0,0,1,,,,,,,,,0,,,74,114
2316,note_on,0,0,3,,,,,,,,,2,,,40,0
2316,note_on,6,0,1,,,,,,,,,0,,,78,0
2316,note_on,0,0,1,,,,,,,,,0,,,74,0
2316,note_on,0,0,1,,,,,,,,,0,,,68,0
2316,note_on,6,0,3,,,,,,,,,2,,,52,0
2370,note_on,54,0,1,,,,,,,,,0,,,68,114
2370,note_on,0,0,1,,,,,,,,,0,,,74,114
2370,note_on,0,0,1,,,,,,,,,0,,,80,114
2370,note_on,0,0,3,,,,,,,,,2,,,52,101
2370,note_on,54,0,3,,,,,,,,,2,,,40,101
2376,note_on,6,0,1,,,,,,,,,0,,,80,0
2376,note_on,0,0,3,,,,,,,,,2,,,40,0
2376,note_on,6,0,3,,,,,,,,,2,,,52,0
2376,note_on,0,0,1,,,,,,,,,0,,,74,0
2376,note_on,0,0,1,,,,,,,,,0,,,68,0
2430,note_on,0,0,3,,,,,,,,,2,,,45,101
2430,note_on,54,0,3,,,,,,,,,2,,,33,101
2430,note_on,54,0,1,,,,,,,,,0,,,69,114
2430,note_on,0,0,1,,,,,,,,,0,,,73,114
2430,note_on,0,0,1,,,,,,,,,0,,,81,114
2670,note_on,0,0,1,,,,,,,,,0,,,69,114
2670,note_on,0,0,1,,,,,,,,,0,,,73,0
2670,note_on,0,0,1,,,,,,,,,0,,,69,0
2670,note_on,240,0,3,,,,,,,,,2,,,45,0
2670,note_on,0,0,3,,,,,,,,,2,,,33,0
2670,control_change,0,0,3,,,,,,,,,2,64,127,,
2670,note_on,0,0,3,,,,,,,,,2,,,45,101
2670,note_on,0,0,1,,,,,,,,,0,,,57,114
2670,note_on,0,0,1,,,,,,,,,0,,,61,114
2670,note_on,0,0,3,,,,,,,,,2,,,52,101
2670,note_on,240,0,1,,,,,,,,,0,,,81,0
2790,note_on,0,0,3,,,,,,,,,2,,,45,101
2790,note_on,120,0,3,,,,,,,,,2,,,52,0
2790,note_on,0,0,3,,,,,,,,,2,,,45,0
2790,control_change,0,0,3,,,,,,,,,2,64,0,,
2790,note_on,0,0,3,,,,,,,,,2,,,33,101
2790,note_on,0,0,3,,,,,,,,,2,,,40,101
2790,time_signature,2520,1,0,4,4,24,8,,,,,,,,,
2910,note_on,120,0,3,,,,,,,,,2,,,45,0
2910,note_on,0,0,3,,,,,,,,,2,,,40,0
2910,note_on,0,0,3,,,,,,,,,2,,,33,0
2910,note_on,0,0,1,,,,,,,,,0,,,57,0
2910,note_on,0,0,1,,,,,,,,,0,,,61,0
2910,note_on,240,0,1,,,,,,,,,0,,,69,0
3030,note_on,120,0,1,,,,,,,,,0,,,81,49
3030,note_on,120,0,3,,,,,,,,,2,,,66,36
3150,note_on,120,0,1,,,,,,,,,0,,,81,0
3150,note_on,0,0,1,,,,,,,,,0,,,82,49
3150,note_on,0,0,3,,,,,,,,,2,,,62,36
3150,note_on,120,0,3,,,,,,,,,2,,,66,0
3270,time_signature,480,1,0,3,4,24,8,,,,,,,,,
3270,note_on,0,0,3,,,,,,,,,2,,,67,36
3270,control_change,0,0,3,,,,,,,,,2,64,127,,
3270,note_on,120,0,3,,,,,,,,,2,,,62,0
3270,note_on,120,0,1,,,,,,,,,0,,,82,0
3270,control_change,0,0,1,,,,,,,,,0,64,127,,
3270,note_on,0,0,1,,,,,,,,,0,,,83,49
3309,note_on,39,0,1,,,,,,,,,0,,,82,49
3310,note_on,1,0,1,,,,,,,,,0,,,83,0
3349,note_on,39,0,1,,,,,,,,,0,,,82,0
3350,note_on,1,0,1,,,,,,,,,0,,,83,49
3390,note_on,120,0,3,,,,,,,,,2,,,67,0
3390,note_on,0,0,3,,,,,,,,,2,,,71,36
3390,note_on,40,0,1,,,,,,,,,0,,,83,0
3390,note_on,0,0,1,,,,,,,,,0,,,88,49
3429,note_on,39,0,1,,,,,,,,,0,,,87,49
3430,note_on,1,0,1,,,,,,,,,0,,,88,0
3469,note_on,39,0,1,,,,,,,,,0,,,87,0
3470,note_on,1,0,1,,,,,,,,,0,,,88,49
3510,note_on,0,0,3,,,,,,,,,2,,,76,36
3510,control_change,0,0,3,,,,,,,,,2,64,0,,
3510,note_on,120,0,3,,,,,,,,,2,,,71,0
3510,note_on,0,0,1,,,,,,,,,0,,,91,49
3510,note_on,40,0,1,,,,,,,,,0,,,88,0
3510,control_change,0,0,1,,,,,,,,,0,64,0,,
3630,control_change,120,0,1,,,,,,,,,0,64,127,,
3630,note_on,120,0,3,,,,,,,,,2,,,76,0
3630,control_change,0,0,3,,,,,,,,,2,64,127,,
3630,note_on,0,0,3,,,,,,,,,2,,,61,36
3690,note_on,60,0,3,,,,,,,,,2,,,61,0
3720,note_on,0,0,1,,,,,,,,,0,,,90,49
3720,note_on,90,0,1,,,,,,,,,0,,,91,0
3750,note_on,60,0,3,,,,,,,,,2,,,73,36
3750,note_on,0,0,1,,,,,,,,,0,,,88,49
3750,note_on,30,0,1,,,,,,,,,0,,,90,0
3840,note_on,0,0,1,,,,,,,,,0,,,86,49
3840,note_on,90,0,1,,,,,,,,,0,,,88,0
3870,note_on,120,0,3,,,,,,,,,2,,,73,0
3870,note_on,30,0,1,,,,,,,,,0,,,86,0
3870,note_on,0,0,1,,,,,,,,,0,,,85,49
3870,control_change,0,0,3,,,,,,,,,2,64,0,,
3870,note_on,0,0,3,,,,,,,,,2,,,67,36
3960,note_on,0,0,1,,,,,,,,,0,,,83,49
3960,control_change,0,0,1,,,,,,,,,0,64,0,,
3960,note_on,90,0,1,,,,,,,,,0,,,85,0
3990,note_on,30,0,1,,,,,,,,,0,,,83,0
3990,note_on,0,0,1,,,,,,,,,0,,,81,49
3990,control_change,0,0,1,,,,,,,,,0,64,127,,
3990,note_on,120,0,3,,,,,,,,,2,,,67,0
3990,note_on,0,0,3,,,,,,,,,2,,,66,36
3990,control_change,0,0,3,,,,,,,,,2,64,127,,
4029,note_on,39,0,1,,,,,,,,,0,,,80,49
4030,note_on,1,0,1,,,,,,,,,0,,,81,0
4069,note_on,39,0,1,,,,,,,,,0,,,80,0
4070,note_on,1,0,1,,,,,,,,,0,,,81,49
4110,note_on,40,0,1,,,,,,,,,0,,,81,0
4110,note_on,0,0,1,,,,,,,,,0,,,86,49
4110,note_on,0,0,3,,,,,,,,,2,,,69,36
4110,note_on,120,0,3,,,,,,,,,2,,,66,0
4149,note_on,39,0,1,,,,,,,,,0,,,85,49
4150,note_on,1,0,1,,,,,,,,,0,,,86,0
4189,note_on,39,0,1,,,,,,,,,0,,,85,0
4190,note_on,1,0,1,,,,,,,,,0,,,86,49
4230,note_on,40,0,1,,,,,,,,,0,,,86,0
4230,control_change,0,0,1,,,,,,,,,0,64,0,,
4230,note_on,0,0,1,,,,,,,,,0,,,90,75
4230,note_on,120,0,3,,,,,,,,,2,,,69,0
4230,note_on,0,0,3,,,,,,,,,2,,,74,36
4230,control_change,0,0,3,,,,,,,,,2,64,0,,
4350,note_on,0,0,3,,,,,,,,,2,,,59,36
4350,control_change,0,0,3,,,,,,,,,2,64,127,,
4350,note_on,120,0,3,,,,,,,,,2,,,74,0
4350,control_change,120,0,1,,,,,,,,,0,64,127,,
4410,note_on,60,0,3,,,,,,,,,2,,,59,0
4440,note_on,90,0,1,,,,,,,,,0,,,90,0
4440,note_on,0,0,1,,,,,,,,,0,,,88,49
4470,note_on,30,0,1,,,,,,,,,0,,,88,0
4470,note_on,60,0,3,,,,,,,,,2,,,71,36
4470,note_on,0,0,1,,,,,,,,,0,,,86,49
4560,note_on,90,0,1,,,,,,,,,0,,,86,0
4560,note_on,0,0,1,,,,,,,,,0,,,85,49
4590,note_on,0,0,1,,,,,,,,,0,,,83,49
4590,note_on,30,0,1,,,,,,,,,0,,,85,0
4590,note_on,120,0,3,,,,,,,,,2,,,71,0
4590,control_change,0,0,3,,,,,,,,,2,64,0,,
4590,note_on,0,0,3,,,,,,,,,2,,,66,36
4680,control_change,0,0,1,,,,,,,,,0,64,0,,
4680,note_on,90,0,1,,,,,,,,,0,,,83,0
4680,note_on,0,0,1,,,,,,,,,0,,,81,49
4710,control_change,0,0,1,,,,,,,,,0,64,127,,
4710,note_on,120,0,3,,,,,,,,,2,,,66,0
4710,note_on,0,0,3,,,,,,,,,2,,,64,36
4710,note_on,0,0,1,,,,,,,,,0,,,79,49
4710,control_change,0,0,3,,,,,,,,,2,64,127,,
4710,note_on,30,0,1,,,,,,,,,0,,,81,0
4749,note_on,39,0,1,,,,,,,,,0,,,78,49
4750,note_on,1,0,1,,,,,,,,,0,,,79,0
4789,note_on,39,0,1,,,,,,,,,0,,,78,0
4790,note_on,1,0,1,,,,,,,,,0,,,79,49
4830,note_on,40,0,1,,,,,,,,,0,,,79,0
4830,note_on,0,0,1,,,,,,,,,0,,,85,49
4830,note_on,120,0,3,,,,,,,,,2,,,64,0
4830,note_on,0,0,3,,,,,,,,,2,,,67,36
4869,note_on,39,0,1,,,,,,,,,0,,,84,49
4870,note_on,1,0,1,,,,,,,,,0,,,85,0
4909,note_on,39,0,1,,,,,,,,,0,,,84,0
4910,note_on,1,0,1,,,,,,,,,0,,,85,49
4950,note_on,120,0,3,,,,,,,,,2,,,67,0
4950,control_change,0,0,3,,,,,,,,,2,64,0,,
4950,note_on,0,0,3,,,,,,,,,2,,,73,62
4950,note_on,40,0,1,,,,,,,,,0,,,85,0
4950,control_change,0,0,1,,,,,,,,,0,64,0,,
4950,note_on,0,0,1,,,,,,,,,0,,,88,75
5070,note_on,120,0,3,,,,,,,,,2,,,73,0
5070,note_on,5070,0,4,,,,,,,,,3,,,52,36
5130,note_on,60,0,4,,,,,,,,,3,,,52,0
5160,note_on,210,0,1,,,,,,,,,0,,,88,0
5160,note_on,0,0,1,,,,,,,,,0,,,86,49
5190,note_on,30,0,1,,,,,,,,,0,,,86,0
5190,note_on,120,0,3,,,,,,,,,2,,,64,36
5190,note_on,0,0,1,,,,,,,,,0,,,85,49
5280,note_on,0,0,1,,,,,,,,,0,,,86,49
5280,note_on,90,0,1,,,,,,,,,0,,,85,0
5310,note_on,120,0,3,,,,,,,,,2,,,64,0
5310,note_on,0,0,1,,,,,,,,,0,,,85,49
5310,note_on,30,0,1,,,,,,,,,0,,,86,0
5310,note_on,0,0,3,,,,,,,,,2,,,65,36
5400,note_on,0,0,1,,,,,,,,,0,,,83,49
5400,note_on,90,0,1,,,,,,,,,0,,,85,0
5430,note_on,0,0,3,,,,,,,,,2,,,73,62
5430,note_on,0,0,3,,,,,,,,,2,,,66,54
5430,control_change,0,0,3,,,,,,,,,2,64,127,,
5430,note_on,120,0,3,,,,,,,,,2,,,65,0
5430,note_on,0,0,1,,,,,,,,,0,,,82,75
5430,note_on,0,0,1,,,,,,,,,0,,,78,67
5430,note_on,30,0,1,,,,,,,,,0,,,83,0
5430,control_change,0,0,1,,,,,,,,,0,64,127,,
5670,note_on,0,0,1,,,,,,,,,0,,,78,67
5670,note_on,0,0,1,,,,,,,,,0,,,78,0
5670,note_on,240,0,1,,,,,,,,,0,,,82,0
5670,note_on,0,0,3,,,,,,,,,2,,,73,62
5670,note_on,0,0,3,,,,,,,,,2,,,66,54
5670,note_on,0,0,3,,,,,,,,,2,,,66,0
5670,note_on,240,0,3,,,,,,,,,2,,,73,0
5670,note_on,0,0,1,,,,,,,,,0,,,82,75
5790,control_change,120,0,1,,,,,,,,,0,64,0,,
5790,control_change,120,0,3,,,,,,,,,2,64,0,,
5850,note_on,60,0,1,,,,,,,,,0,,,82,0
5850,note_on,60,0,3,,,,,,,,,2,,,73,0
5850,note_on,0,0,3,,,,,,,,,2,,,66,0
5850,note_on,0,0,1,,,,,,,,,0,,,82,49
5850,note_on,0,0,1,,,,,,,,,0,,,78,0
5910,note_on,4200,0,2,,,,,,,,,1,,,78,36
5910,note_on,60,0,1,,,,,,,,,0,,,82,0
5910,note_on,0,0,1,,,,,,,,,0,,,83,49
5910,note_on,60,0,3,,,,,,,,,2,,,66,36
5910,note_on,0,0,3,,,,,,,,,2,,,73,36
5922,note_on,0,0,3,,,,,,,,,2,,,66,0
5922,note_on,12,0,3,,,,,,,,,2,,,73,0
6000,note_on,90,0,1,,,,,,,,,0,,,83,0
6000,note_on,0,0,1,,,,,,,,,0,,,82,49
6030,note_on,0,0,3,,,,,,,,,2,,,73,36
6030,note_on,108,0,3,,,,,,,,,2,,,66,36
6030,note_on,0,0,2,,,,,,,,,1,,,78,36
6030,note_on,120,0,2,,,,,,,,,1,,,78,0
6030,note_on,30,0,1,,,,,,,,,0,,,82,0
6030,note_on,0,0,1,,,,,,,,,0,,,83,49
6042,note_on,12,0,3,,,,,,,,,2,,,73,0
6042,note_on,0,0,3,,,,,,,,,2,,,66,0
6120,note_on,90,0,1,,,,,,,,,0,,,83,0
6120,note_on,0,0,1,,,,,,,,,0,,,82,49
6150,note_on,0,0,1,,,,,,,,,0,,,77,67
6150,note_on,120,0,2,,,,,,,,,1,,,78,0
6150,control_change,0,0,1,,,,,,,,,0,64,127,,
6150,control_change,108,0,3,,,,,,,,,2,64,127,,
6150,note_on,0,0,3,,,,,,,,,2,,,61,54
6150,note_on,30,0,1,,,,,,,,,0,,,82,0
6150,note_on,0,0,1,,,,,,,,,0,,,80,75
6150,note_on,0,0,3,,,,,,,,,2,,,71,62
6390,note_on,240,0,3,,,,,,,,,2,,,71,0
6390,note_on,0,0,1,,,,,,,,,0,,,77,67
6390,note_on,0,0,1,,,,,,,,,0,,,80,75
6390,note_on,0,0,3,,,,,,,,,2,,,71,62
6390,note_on,0,0,1,,,,,,,,,0,,,77,0
6390,note_on,0,0,3,,,,,,,,,2,,,61,0
6390,note_on,0,0,3,,,,,,,,,2,,,61,54
6390,note_on,240,0,1,,,,,,,,,0,,,80,0
6510,control_change,120,0,3,,,,,,,,,2,64,0,,
6510,control_change,120,0,1,,,,,,,,,0,64,0,,
6570,note_on,0,0,1,,,,,,,,,0,,,77,0
6570,note_on,0,0,1,,,,,,,,,0,,,80,49
6570,note_on,60,0,1,,,,,,,,,0,,,80,0
6630,note_on,480,0,2,,,,,,,,,1,,,77,36
6630,note_on,60,0,1,,,,,,,,,0,,,80,0
6630,note_on,120,0,3,,,,,,,,,2,,,71,0
6630,note_on,0,0,3,,,,,,,,,2,,,61,0
6630,note_on,0,0,3,,,,,,,,,2,,,61,36
6630,note_on,0,0,3,,,,,,,,,2,,,71,36
6630,note_on,0,0,1,,,,,,,,,0,,,82,49
6642,note_on,12,0,3,,,,,,,,,2,,,71,0
6642,note_on,0,0,3,,,,,,,,,2,,,61,0
6720,note_on,0,0,1,,,,,,,,,0,,,80,49
6720,note_on,90,0,1,,,,,,,,,0,,,82,0
6750,note_on,0,0,1,,,,,,,,,0,,,82,49
6750,note_on,0,0,3,,,,,,,,,2,,,71,36
6750,note_on,108,0,3,,,,,,,,,2,,,61,36
6750,note_on,30,0,1,,,,,,,,,0,,,80,0
6750,note_on,120,0,2,,,,,,,,,1,,,77,0
6750,note_on,0,0,2,,,,,,,,,1,,,77,36
6762,note_on,12,0,3,,,,,,,,,2,,,71,0
6762,note_on,0,0,3,,,,,,,,,2,,,61,0
6840,note_on,0,0,1,,,,,,,,,0,,,80,49
6840,note_on,90,0,1,,,,,,,,,0,,,82,0
6870,note_on,0,0,1,,,,,,,,,0,,,78,75
6870,control_change,0,0,1,,,,,,,,,0,64,127,,
6870,control_change,108,0,3,,,,,,,,,2,64,127,,
6870,note_on,120,0,2,,,,,,,,,1,,,77,0
6870,note_on,0,0,3,,,,,,,,,2,,,70,62
6870,note_on,30,0,1,,,,,,,,,0,,,80,0
6870,note_on,0,0,3,,,,,,,,,2,,,66,54
7110,note_on,0,0,3,,,,,,,,,2,,,66,54
7110,note_on,0,0,3,,,,,,,,,2,,,66,0
7110,note_on,240,0,3,,,,,,,,,2,,,70,0
7110,note_on,0,0,3,,,,,,,,,2,,,70,62
7110,note_on,240,0,1,,,,,,,,,0,,,78,0
7110,note_on,0,0,1,,,,,,,,,0,,,78,75
7230,control_change,120,0,1,,,,,,,,,0,64,0,,
7230,control_change,120,0,3,,,,,,,,,2,64,0,,
7320,note_on,0,0,2,,,,,,,,,1,,,55,88
7320,note_on,450,0,2,,,,,,,,,1,,,49,88
7320,note_on,90,0,3,,,,,,,,,2,,,70,0
7320,note_on,0,0,2,,,,,,,,,1,,,57,88
7320,note_on,0,0,3,,,,,,,,,2,,,66,0
7320,note_on,2190,0,4,,,,,,,,,3,,,33,75
7320,note_on,0,0,4,,,,,,,,,3,,,45,75
7320,note_on,90,0,1,,,,,,,,,0,,,78,0
7350,note_on,0,0,4,,,,,,,,,3,,,45,75
7350,note_on,0,0,4,,,,,,,,,3,,,33,75
7350,note_on,0,0,4,,,,,,,,,3,,,33,0
7350,note_on,30,0,4,,,,,,,,,3,,,45,0
7365,note_on,0,0,2,,,,,,,,,1,,,49,88
7365,note_on,0,0,2,,,,,,,,,1,,,49,0
7365,note_on,0,0,2,,,,,,,,,1,,,55,88
7365,note_on,0,0,2,,,,,,,,,1,,,57,88
7365,note_on,0,0,2,,,,,,,,,1,,,55,0
7365,note_on,45,0,2,,,,,,,,,1,,,57,0
7425,note_on,60,0,2,,,,,,,,,1,,,57,0
7425,note_on,0,0,2,,,,,,,,,1,,,55,0
7425,note_on,0,0,2,,,,,,,,,1,,,49,0
7425,note_on,0,0,2,,,,,,,,,1,,,49,88
7425,note_on,0,0,2,,,,,,,,,1,,,55,88
7425,note_on,0,0,2,,,,,,,,,1,,,57,88
7440,note_on,0,0,4,,,,,,,,,3,,,33,0
7440,note_on,90,0,4,,,,,,,,,3,,,45,0
7440,note_on,0,0,4,,,,,,,,,3,,,45,75
7440,note_on,0,0,4,,,,,,,,,3,,,33,75
7455,note_on,30,0,2,,,,,,,,,1,,,57,0
7455,note_on,0,0,2,,,,,,,,,1,,,49,88
7455,note_on,0,0,2,,,,,,,,,1,,,55,88
7455,note_on,0,0,2,,,,,,,,,1,,,59,88
7455,note_on,0,0,2,,,,,,,,,1,,,55,0
7455,note_on,0,0,2,,,,,,,,,1,,,49,0
7470,note_on,30,0,4,,,,,,,,,3,,,45,0
7470,note_on,0,0,4,,,,,,,,,3,,,33,0
7470,note_on,0,0,4,,,,,,,,,3,,,33,75
7470,note_on,0,0,4,,,,,,,,,3,,,45,75
7545,note_on,0,0,2,,,,,,,,,1,,,61,88
7545,note_on,0,0,2,,,,,,,,,1,,,55,0
7545,note_on,0,0,2,,,,,,,,,1,,,55,88
7545,note_on,0,0,2,,,,,,,,,1,,,49,88
7545,note_on,0,0,2,,,,,,,,,1,,,49,0
7545,note_on,90,0,2,,,,,,,,,1,,,59,0
7560,note_on,0,0,4,,,,,,,,,3,,,33,0
7560,note_on,0,0,4,,,,,,,,,3,,,45,75
7560,note_on,0,0,4,,,,,,,,,3,,,33,75
7560,note_on,90,0,4,,,,,,,,,3,,,45,0
7575,note_on,0,0,2,,,,,,,,,1,,,49,0
7575,note_on,0,0,2,,,,,,,,,1,,,55,0
7575,note_on,30,0,2,,,,,,,,,1,,,61,0
7590,note_on,0,0,4,,,,,,,,,3,,,47,101
7590,control_change,0,0,4,,,,,,,,,3,64,127,,
7590,note_on,0,0,4,,,,,,,,,3,,,33,0
7590,control_change,270,0,1,,,,,,,,,0,64,127,,
7590,note_on,0,0,1,,,,,,,,,0,,,50,114
7590,note_on,0,0,1,,,,,,,,,0,,,54,114
7590,note_on,0,0,1,,,,,,,,,0,,,62,114
7590,note_on,0,0,4,,,,,,,,,3,,,35,101
7590,note_on,30,0,4,,,,,,,,,3,,,45,0
7830,note_on,240,0,1,,,,,,,,,0,,,62,0
7830,note_on,0,0,4,,,,,,,,,3,,,47,101
7830,note_on,0,0,4,,,,,,,,,3,,,35,101
7830,note_on,0,0,1,,,,,,,,,0,,,54,0
7830,note_on,240,0,4,,,,,,,,,3,,,47,0
7830,note_on,0,0,1,,,,,,,,,0,,,62,114
7830,note_on,0,0,1,,,,,,,,,0,,,59,114
7830,note_on,0,0,1,,,,,,,,,0,,,54,114
7830,note_on,0,0,1,,,,,,,,,0,,,50,114
7830,note_on,0,0,1,,,,,,,,,0,,,50,0
7830,note_on,0,0,4,,,,,,,,,3,,,35,0
7950,control_change,120,0,1,,,,,,,,,0,64,0,,
7950,control_change,120,0,4,,,,,,,,,3,64,0,,
8040,note_on,90,0,1,,,,,,,,,0,,,62,0
8040,note_on,0,0,1,,,,,,,,,0,,,50,0
8040,note_on,0,0,1,,,,,,,,,0,,,59,0
8040,note_on,0,0,1,,,,,,,,,0,,,62,114
8040,note_on,0,0,1,,,,,,,,,0,,,54,0
8070,note_on,0,0,1,,,,,,,,,0,,,62,114
8070,note_on,495,0,2,,,,,,,,,1,,,54,101
8070,note_on,0,0,4,,,,,,,,,3,,,47,101
8070,note_on,0,0,4,,,,,,,,,3,,,35,101
8070,note_on,0,0,4,,,,,,,,,3,,,35,0
8070,note_on,120,0,4,,,,,,,,,3,,,47,0
8070,note_on,30,0,1,,,,,,,,,0,,,62,0
8160,note_on,90,0,1,,,,,,,,,0,,,62,0
8160,note_on,0,0,1,,,,,,,,,0,,,64,114
8190,note_on,0,0,4,,,,,,,,,3,,,47,101
8190,note_on,0,0,4,,,,,,,,,3,,,35,0
8190,note_on,120,0,4,,,,,,,,,3,,,47,0
8190,note_on,30,0,1,,,,,,,,,0,,,64,0
8190,note_on,0,0,4,,,,,,,,,3,,,35,101
8190,note_on,120,0,2,,,,,,,,,1,,,54,0
8190,note_on,0,0,2,,,,,,,,,1,,,54,101
8190,note_on,0,0,1,,,,,,,,,0,,,66,114
8280,note_on,90,0,1,,,,,,,,,0,,,66,0
8280,note_on,0,0,1,,,,,,,,,0,,,62,114
8310,note_on,0,0,4,,,,,,,,,3,,,35,0
8310,note_on,120,0,4,,,,,,,,,3,,,47,0
8310,note_on,120,0,2,,,,,,,,,1,,,54,0
8310,note_on,0,0,1,,,,,,,,,0,,,69,114
8310,note_on,0,0,1,,,,,,,,,0,,,67,114
8310,note_on,0,0,1,,,,,,,,,0,,,64,114
8310,note_on,0,0,1,,,,,,,,,0,,,57,114
8310,note_on,0,0,4,,,,,,,,,3,,,45,101
8310,control_change,0,0,1,,,,,,,,,0,64,127,,
8310,note_on,0,0,4,,,,,,,,,3,,,49,101
8310,note_on,30,0,1,,,,,,,,,0,,,62,0
8310,control_change,0,0,4,,,,,,,,,3,64,127,,
8310,note_on,0,0,4,,,,,,,,,3,,,37,101
8550,note_on,0,0,1,,,,,,,,,0,,,69,114
8550,note_on,0,0,4,,,,,,,,,3,,,45,101
8550,note_on,0,0,4,,,,,,,,,3,,,49,101
8550,note_on,0,0,4,,,,,,,,,3,,,37,101
8550,note_on,0,0,1,,,,,,,,,0,,,64,114
8550,note_on,0,0,4,,,,,,,,,3,,,45,0
8550,note_on,0,0,1,,,,,,,,,0,,,67,0
8550,note_on,0,0,1,,,,,,,,,0,,,64,0
8550,note_on,0,0,1,,,,,,,,,0,,,57,0
8550,note_on,0,0,4,,,,,,,,,3,,,37,0
8550,note_on,0,0,1,,,,,,,,,0,,,57,114
8550,note_on,240,0,1,,,,,,,,,0,,,69,0
8550,note_on,0,0,1,,,,,,,,,0,,,67,114
8550,note_on,240,0,4,,,,,,,,,3,,,49,0
8670,control_change,120,0,4,,,,,,,,,3,64,0,,
8670,control_change,120,0,1,,,,,,,,,0,64,0,,
8760,note_on,90,0,1,,,,,,,,,0,,,69,0
8760,note_on,0,0,1,,,,,,,,,0,,,57,0
8760,note_on,0,0,1,,,,,,,,,0,,,67,0
8760,note_on,0,0,1,,,,,,,,,0,,,67,114
8760,note_on,0,0,1,,,,,,,,,0,,,69,114
8760,note_on,0,0,1,,,,,,,,,0,,,64,0
8760,note_on,0,0,1,,,,,,,,,0,,,64,114
8790,note_on,0,0,4,,,,,,,,,3,,,37,101
8790,note_on,0,0,4,,,,,,,,,3,,,37,0
8790,note_on,0,0,4,,,,,,,,,3,,,49,101
8790,note_on,0,0,1,,,,,,,,,0,,,69,114
8790,note_on,0,0,4,,,,,,,,,3,,,45,0
8790,note_on,0,0,1,,,,,,,,,0,,,64,114
8790,note_on,0,0,1,,,,,,,,,0,,,64,0
8790,note_on,0,0,1,,,,,,,,,0,,,67,0
8790,note_on,0,0,1,,,,,,,,,0,,,67,114
8790,note_on,30,0,1,,,,,,,,,0,,,69,0
8790,note_on,120,0,4,,,,,,,,,3,,,49,0
8880,note_on,0,0,1,,,,,,,,,0,,,67,0
8880,note_on,0,0,1,,,,,,,,,0,,,64,0
8880,note_on,0,0,1,,,,,,,,,0,,,64,114
8880,note_on,0,0,1,,,,,,,,,0,,,67,114
8880,note_on,0,0,1,,,,,,,,,0,,,69,114
8880,note_on,90,0,1,,,,,,,,,0,,,69,0
8910,note_on,0,0,1,,,,,,,,,0,,,71,114
8910,note_on,0,0,1,,,,,,,,,0,,,67,114
8910,note_on,0,0,1,,,,,,,,,0,,,64,114
8910,note_on,0,0,4,,,,,,,,,3,,,49,101
8910,note_on,0,0,4,,,,,,,,,3,,,37,101
8910,note_on,0,0,4,,,,,,,,,3,,,37,0
8910,note_on,120,0,4,,,,,,,,,3,,,49,0
8910,note_on,30,0,1,,,,,,,,,0,,,69,0
8910,note_on,0,0,1,,,,,,,,,0,,,64,0
8910,note_on,0,0,1,,,,,,,,,0,,,67,0
9000,note_on,0,0,1,,,,,,,,,0,,,73,114
9000,note_on,0,0,1,,,,,,,,,0,,,67,114
9000,note_on,0,0,1,,,,,,,,,0,,,64,114
9000,note_on,0,0,1,,,,,,,,,0,,,64,0
9000,note_on,0,0,1,,,,,,,,,0,,,67,0
9000,note_on,90,0,1,,,,,,,,,0,,,71,0
9030,note_on,0,0,1,,,,,,,,,0,,,67,0
9030,note_on,30,0,1,,,,,,,,,0,,,73,0
9030,note_on,120,0,4,,,,,,,,,3,,,49,0
9030,note_on,0,0,1,,,,,,,,,0,,,62,114
9030,note_on,0,0,1,,,,,,,,,0,,,66,114
9030,control_change,1710,0,3,,,,,,,,,2,64,127,,
9030,note_on,0,0,1,,,,,,,,,0,,,69,114
9030,note_on,0,0,1,,,,,,,,,0,,,64,0
9030,note_on,0,0,1,,,,,,,,,0,,,74,114
9030,control_change,0,0,1,,,,,,,,,0,64,127,,
9030,note_on,0,0,4,,,,,,,,,3,,,37,0
9030,note_on,0,0,3,,,,,,,,,2,,,36,101
9030,note_on,0,0,3,,,,,,,,,2,,,48,101
9270,note_on,0,0,3,,,,,,,,,2,,,35,101
9270,note_on,0,0,3,,,,,,,,,2,,,47,101
9270,note_on,0,0,1,,,,,,,,,0,,,69,0
9270,note_on,0,0,1,,,,,,,,,0,,,66,0
9270,note_on,0,0,1,,,,,,,,,0,,,62,0
9270,note_on,240,0,1,,,,,,,,,0,,,74,0
9270,note_on,240,0,3,,,,,,,,,2,,,48,0
9270,note_on,0,0,1,,,,,,,,,0,,,74,114
9270,note_on,0,0,3,,,,,,,,,2,,,36,0
9270,note_on,0,0,1,,,,,,,,,0,,,67,114
9270,note_on,0,0,1,,,,,,,,,0,,,62,114
9390,control_change,120,0,3,,,,,,,,,2,64,0,,
9390,control_change,120,0,1,,,,,,,,,0,64,0,,
9450,note_on,0,0,1,,,,,,,,,0,,,62,0
9450,note_on,0,0,1,,,,,,,,,0,,,67,0
9450,note_on,0,0,1,,,,,,,,,0,,,68,114
9450,note_on,0,0,1,,,,,,,,,0,,,74,114
9450,note_on,0,0,3,,,,,,,,,2,,,35,0
9450,note_on,0,0,3,,,,,,,,,2,,,34,101
9450,note_on,60,0,3,,,,,,,,,2,,,47,0
9450,note_on,0,0,3,,,,,,,,,2,,,46,101
9450,note_on,60,0,1,,,,,,,,,0,,,74,0
9456,note_on,6,0,3,,,,,,,,,2,,,46,0
9456,note_on,0,0,3,,,,,,,,,2,,,34,0
9456,note_on,0,0,1,,,,,,,,,0,,,68,0
9456,note_on,6,0,1,,,,,,,,,0,,,74,0
9510,note_on,54,0,3,,,,,,,,,2,,,34,101
9510,note_on,0,0,3,,,,,,,,,2,,,46,101
9510,note_on,54,0,1,,,,,,,,,0,,,68,114
9510,note_on,0,0,1,,,,,,,,,0,,,74,114
9516,note_on,6,0,3,,,,,,,,,2,,,46,0
9516,note_on,0,0,1,,,,,,,,,0,,,68,0
9516,note_on,6,0,1,,,,,,,,,0,,,74,0
9516,note_on,0,0,3,,,,,,,,,2,,,34,0
9570,note_on,54,0,3,,,,,,,,,2,,,34,101
9570,note_on,0,0,3,,,,,,,,,2,,,46,101
9570,note_on,54,0,1,,,,,,,,,0,,,68,114
9570,note_on,0,0,1,,,,,,,,,0,,,74,114
9570,note_on,0,0,1,,,,,,,,,0,,,76,114
9576,note_on,0,0,3,,,,,,,,,2,,,34,0
9576,note_on,6,0,3,,,,,,,,,2,,,46,0
9576,note_on,6,0,1,,,,,,,,,0,,,76,0
9576,note_on,0,0,1,,,,,,,,,0,,,68,0
9576,note_on,0,0,1,,,,,,,,,0,,,74,0
9630,note_on,0,0,3,,,,,,,,,2,,,46,101
9630,note_on,0,0,1,,,,,,,,,0,,,78,114
9630,note_on,0,0,1,,,,,,,,,0,,,74,114
9630,note_on,54,0,1,,,,,,,,,0,,,68,114
9630,note_on,54,0,3,,,,,,,,,2,,,34,101
9636,note_on,0,0,3,,,,,,,,,2,,,34,0
9636,note_on,6,0,1,,,,,,,,,0,,,78,0
9636,note_on,0,0,1,,,,,,,,,0,,,74,0
9636,note_on,0,0,1,,,,,,,,,0,,,68,0
9636,note_on,6,0,3,,,,,,,,,2,,,46,0
9690,note_on,54,0,3,,,,,,,,,2,,,34,101
9690,note_on,54,0,1,,,,,,,,,0,,,68,114
9690,note_on,0,0,1,,,,,,,,,0,,,74,114
9690,note_on,0,0,1,,,,,,,,,0,,,80,114
9690,note_on,0,0,3,,,,,,,,,2,,,46,101
9696,note_on,6,0,3,,,,,,,,,2,,,46,0
9696,note_on,6,0,1,,,,,,,,,0,,,80,0
9696,note_on,0,0,3,,,,,,,,,2,,,34,0
9696,note_on,0,0,1,,,,,,,,,0,,,68,0
9696,note_on,0,0,1,,,,,,,,,0,,,74,0
9750,note_on,54,0,1,,,,,,,,,0,,,69,114
9750,note_on,0,0,1,,,,,,,,,0,,,73,114
9750,note_on,0,0,1,,,,,,,,,0,,,81,114
9750,note_on,54,0,3,,,,,,,,,2,,,33,101
9750,note_on,0,0,3,,,,,,,,,2,,,45,101
9990,note_on,0,0,1,,,,,,,,,0,,,69,114
9990,note_on,0,0,1,,,,,,,,,0,,,61,114
9990,note_on,0,0,1,,,,,,,,,0,,,57,114
9990,note_on,0,0,1,,,,,,,,,0,,,69,0
9990,note_on,0,0,3,,,,,,,,,2,,,52,101
9990,note_on,0,0,1,,,,,,,,,0,,,73,0
9990,note_on,0,0,3,,,,,,,,,2,,,45,101
9990,note_on,240,0,1,,,,,,,,,0,,,81,0
9990,note_on,240,0,3,,,,,,,,,2,,,45,0
9990,note_on,0,0,3,,,,,,,,,2,,,33,0
10110,time_signature,6840,1,0,4,4,24,8,,,,,,,,,
10230,note_on,0,0,1,,,,,,,,,0,,,57,0
10230,note_on,0,0,1,,,,,,,,,0,,,61,0
10230,note_on,240,0,1,,,,,,,,,0,,,69,0
10230,note_on,240,0,3,,,,,,,,,2,,,52,0
10230,note_on,0,0,3,,,,,,,,,2,,,45,0
10350,note_on,120,0,1,,,,,,,,,0,,,76,49
10350,note_on,120,0,3,,,,,,,,,2,,,61,36
10470,note_on,120,0,1,,,,,,,,,0,,,76,0
10470,note_on,0,0,1,,,,,,,,,0,,,77,49
10470,note_on,0,0,3,,,,,,,,,2,,,57,36
10470,note_on,120,0,3,,,,,,,,,2,,,61,0
10590,note_on,0,0,1,,,,,,,,,0,,,78,49
10590,control_change,0,0,1,,,,,,,,,0,64,127,,
10590,note_on,120,0,1,,,,,,,,,0,,,77,0
10590,time_signature,480,1,0,3,4,24,8,,,,,,,,,
10590,control_change,0,0,3,,,,,,,,,2,64,127,,
10590,note_on,0,0,3,,,,,,,,,2,,,62,36
10590,note_on,120,0,3,,,,,,,,,2,,,57,0
10629,note_on,39,0,1,,,,,,,,,0,,,77,49
10630,note_on,1,0,1,,,,,,,,,0,,,78,0
10669,note_on,39,0,1,,,,,,,,,0,,,77,0
10670,note_on,1,0,1,,,,,,,,,0,,,78,49
10710,note_on,120,0,3,,,,,,,,,2,,,62,0
10710,note_on,0,0,3,,,,,,,,,2,,,66,36
10710,note_on,40,0,1,,,,,,,,,0,,,78,0
10710,note_on,0,0,1,,,,,,,,,0,,,83,49
10749,note_on,39,0,1,,,,,,,,,0,,,82,49
10750,note_on,1,0,1,,,,,,,,,0,,,83,0
10789,note_on,39,0,1,,,,,,,,,0,,,82,0
10790,note_on,1,0,1,,,,,,,,,0,,,83,49
10830,control_change,0,0,1,,,,,,,,,0,64,0,,
10830,note_on,120,0,3,,,,,,,,,2,,,66,0
10830,note_on,40,0,1,,,,,,,,,0,,,83,0
10830,note_on,0,0,3,,,,,,,,,2,,,71,62
10830,note_on,0,0,1,,,,,,,,,0,,,86,75
10830,control_change,0,0,3,,,,,,,,,2,64,0,,
10950,control_change,120,0,1,,,,,,,,,0,64,127,,
10950,note_on,0,0,3,,,,,,,,,2,,,56,36
10950,control_change,0,0,3,,,,,,,,,2,64,127,,
10950,note_on,120,0,3,,,,,,,,,2,,,71,0
11010,note_on,60,0,3,,,,,,,,,2,,,56,0
11040,note_on,0,0,1,,,,,,,,,0,,,85,49
11040,note_on,90,0,1,,,,,,,,,0,,,86,0
11055,note_on,15,0,1,,,,,,,,,0,,,85,0
11055,note_on,0,0,1,,,,,,,,,0,,,83,49
11062,note_on,7,0,1,,,,,,,,,0,,,85,49
11063,note_on,1,0,1,,,,,,,,,0,,,83,0
11070,note_on,0,0,1,,,,,,,,,0,,,83,49
11070,note_on,60,0,3,,,,,,,,,2,,,68,36
11070,note_on,7,0,1,,,,,,,,,0,,,85,0
11160,note_on,0,0,1,,,,,,,,,0,,,81,49
11160,note_on,90,0,1,,,,,,,,,0,,,83,0
11175,note_on,0,0,1,,,,,,,,,0,,,80,49
11175,note_on,15,0,1,,,,,,,,,0,,,81,0
11182,note_on,7,0,1,,,,,,,,,0,,,81,49
11183,note_on,1,0,1,,,,,,,,,0,,,80,0
11190,note_on,0,0,1,,,,,,,,,0,,,80,49
11190,note_on,7,0,1,,,,,,,,,0,,,81,0
11190,note_on,120,0,3,,,,,,,,,2,,,68,0
11190,note_on,0,0,3,,,,,,,,,2,,,62,36
11190,control_change,0,0,3,,,,,,,,,2,64,0,,
11280,note_on,0,0,1,,,,,,,,,0,,,78,49
11280,note_on,90,0,1,,,,,,,,,0,,,80,0
11280,control_change,0,0,1,,,,,,,,,0,64,0,,
11310,note_on,0,0,1,,,,,,,,,0,,,76,49
11310,note_on,0,0,3,,,,,,,,,2,,,61,36
11310,control_change,0,0,3,,,,,,,,,2,64,127,,
11310,note_on,120,0,3,,,,,,,,,2,,,62,0
11310,control_change,0,0,1,,,,,,,,,0,64,127,,
11310,note_on,30,0,1,,,,,,,,,0,,,78,0
11349,note_on,39,0,1,,,,,,,,,0,,,75,49
11350,note_on,1,0,1,,,,,,,,,0,,,76,0
11389,note_on,39,0,1,,,,,,,,,0,,,75,0
11390,note_on,1,0,1,,,,,,,,,0,,,76,49
11430,note_on,120,0,3,,,,,,,,,2,,,61,0
11430,note_on,0,0,3,,,,,,,,,2,,,64,36
11430,note_on,40,0,1,,,,,,,,,0,,,76,0
11430,note_on,0,0,1,,,,,,,,,0,,,81,49
11469,note_on,39,0,1,,,,,,,,,0,,,80,49
11470,note_on,1,0,1,,,,,,,,,0,,,81,0
11509,note_on,39,0,1,,,,,,,,,0,,,80,0
11510,note_on,1,0,1,,,,,,,,,0,,,81,49
11550,note_on,120,0,3,,,,,,,,,2,,,64,0
11550,note_on,0,0,3,,,,,,,,,2,,,69,62
11550,note_on,40,0,1,,,,,,,,,0,,,81,0
11550,control_change,0,0,1,,,,,,,,,0,64,0,,
11550,note_on,0,0,1,,,,,,,,,0,,,85,75
11550,control_change,0,0,3,,,,,,,,,2,64,0,,
11670,note_on,0,0,3,,,,,,,,,2,,,54,36
11670,control_change,0,0,3,,,,,,,,,2,64,127,,
11670,note_on,120,0,3,,,,,,,,,2,,,69,0
11670,control_change,120,0,1,,,,,,,,,0,64,127,,
11730,note_on,60,0,3,,,,,,,,,2,,,54,0
11760,note_on,0,0,1,,,,,,,,,0,,,83,49
11760,note_on,90,0,1,,,,,,,,,0,,,85,0
11775,note_on,0,0,1,,,,,,,,,0,,,81,49
11775,note_on,15,0,1,,,,,,,,,0,,,83,0
11782,note_on,7,0,1,,,,,,,,,0,,,83,49
11783,note_on,1,0,1,,,,,,,,,0,,,81,0
11790,note_on,60,0,3,,,,,,,,,2,,,66,36
11790,note_on,7,0,1,,,,,,,,,0,,,83,0
11790,note_on,0,0,1,,,,,,,,,0,,,81,49
11880,note_on,90,0,1,,,,,,,,,0,,,81,0
11880,note_on,0,0,1,,,,,,,,,0,,,80,49
11895,note_on,15,0,1,,,,,,,,,0,,,80,0
11895,note_on,0,0,1,,,,,,,,,0,,,78,49
11902,note_on,7,0,1,,,,,,,,,0,,,80,49
11903,note_on,1,0,1,,,,,,,,,0,,,78,0
11910,control_change,0,0,3,,,,,,,,,2,64,0,,
11910,note_on,7,0,1,,,,,,,,,0,,,80,0
11910,note_on,0,0,3,,,,,,,,,2,,,61,36
11910,note_on,0,0,1,,,,,,,,,0,,,78,49
11910,note_on,120,0,3,,,,,,,,,2,,,66,0
12000,note_on,0,0,1,,,,,,,,,0,,,76,49
12000,control_change,0,0,1,,,,,,,,,0,64,0,,
12000,note_on,90,0,1,,,,,,,,,0,,,78,0
12030,control_change,0,0,1,,,,,,,,,0,64,127,,
12030,note_on,30,0,1,,,,,,,,,0,,,76,0
12030,note_on,0,0,3,,,,,,,,,2,,,59,36
12030,control_change,0,0,3,,,,,,,,,2,64,127,,
12030,note_on,120,0,3,,,,,,,,,2,,,61,0
12030,note_on,0,0,1,,,,,,,,,0,,,74,49
12069,note_on,39,0,1,,,,,,,,,0,,,73,49
12070,note_on,1,0,1,,,,,,,,,0,,,74,0
12109,note_on,39,0,1,,,,,,,,,0,,,73,0
12110,note_on,1,0,1,,,,,,,,,0,,,74,49
12150,note_on,0,0,3,,,,,,,,,2,,,62,36
12150,note_on,120,0,3,,,,,,,,,2,,,59,0
12150,note_on,0,0,1,,,,,,,,,0,,,80,49
12150,note_on,40,0,1,,,,,,,,,0,,,74,0
12189,note_on,39,0,1,,,,,,,,,0,,,79,49
12190,note_on,1,0,1,,,,,,,,,0,,,80,0
12229,note_on,39,0,1,,,,,,,,,0,,,79,0
12230,note_on,1,0,1,,,,,,,,,0,,,80,49
12270,note_on,120,0,3,,,,,,,,,2,,,62,0
12270,control_change,0,0,3,,,,,,,,,2,64,0,,
12270,note_on,0,0,3,,,,,,,,,2,,,68,62
12270,note_on,40,0,1,,,,,,,,,0,,,80,0
12270,control_change,0,0,1,,,,,,,,,0,64,0,,
12270,note_on,0,0,1,,,,,,,,,0,,,83,75
12390,control_change,120,0,1,,,,,,,,,0,64,127,,
12390,note_on,120,0,3,,,,,,,,,2,,,68,0
12390,control_change,0,0,3,,,,,,,,,2,64,127,,
12390,note_on,0,0,3,,,,,,,,,2,,,47,36
12450,note_on,60,0,3,,,,,,,,,2,,,47,0
12480,note_on,0,0,1,,,,,,,,,0,,,81,49
12480,control_change,0,0,1,,,,,,,,,0,64,0,,
12480,note_on,90,0,1,,,,,,,,,0,,,83,0
12510,note_on,0,0,3,,,,,,,,,2,,,59,36
12510,note_on,0,0,1,,,,,,,,,0,,,80,49
12510,note_on,30,0,1,,,,,,,,,0,,,81,0
12510,control_change,60,0,3,,,,,,,,,2,64,0,,
12600,note_on,90,0,1,,,,,,,,,0,,,80,0
12600,note_on,0,0,1,,,,,,,,,0,,,81,49
12630,note_on,120,0,3,,,,,,,,,2,,,59,0
12630,note_on,0,0,3,,,,,,,,,2,,,60,36
12630,note_on,30,0,1,,,,,,,,,0,,,81,0
12630,note_on,0,0,1,,,,,,,,,0,,,80,49
12720,note_on,0,0,1,,,,,,,,,0,,,78,49
12720,note_on,90,0,1,,,,,,,,,0,,,80,0
12750,control_change,0,0,3,,,,,,,,,2,64,127,,
12750,note_on,0,0,3,,,,,,,,,2,,,61,54
12750,note_on,0,0,3,,,,,,,,,2,,,68,62
12750,note_on,0,0,1,,,,,,,,,0,,,77,62
12750,note_on,0,0,1,,,,,,,,,0,,,73,54
12750,control_change,0,0,1,,,,,,,,,0,64,127,,
12750,note_on,30,0,1,,,,,,,,,0,,,78,0
12750,note_on,120,0,3,,,,,,,,,2,,,60,0
12990,note_on,0,0,3,,,,,,,,,2,,,61,0
12990,note_on,0,0,3,,,,,,,,,2,,,61,36
12990,note_on,240,0,3,,,,,,,,,2,,,68,0
12990,note_on,0,0,3,,,,,,,,,2,,,68,36
12990,note_on,0,0,1,,,,,,,,,0,,,77,36
12990,note_on,0,0,1,,,,,,,,,0,,,73,36
12990,note_on,0,0,1,,,,,,,,,0,,,73,0
12990,note_on,240,0,1,,,,,,,,,0,,,77,0
13200,note_on,210,0,1,,,,,,,,,0,,,77,0
13200,note_on,0,0,1,,,,,,,,,0,,,77,36
13200,note_on,0,0,1,,,,,,,,,0,,,73,0
13230,note_on,0,0,1,,,,,,,,,0,,,78,36
13230,note_on,30,0,1,,,,,,,,,0,,,77,0
13230,note_on,4920,0,2,,,,,,,,,1,,,73,36
13230,note_on,240,0,3,,,,,,,,,2,,,68,0
13230,note_on,0,0,3,,,,,,,,,2,,,68,36
13230,note_on,0,0,3,,,,,,,,,2,,,61,36
13230,note_on,0,0,3,,,,,,,,,2,,,61,0
13242,note_on,0,0,3,,,,,,,,,2,,,61,0
13242,note_on,12,0,3,,,,,,,,,2,,,68,0
13320,note_on,90,0,1,,,,,,,,,0,,,78,0
13320,note_on,0,0,1,,,,,,,,,0,,,77,36
13350,note_on,0,0,2,,,,,,,,,1,,,73,36
13350,note_on,30,0,1,,,,,,,,,0,,,77,0
13350,note_on,108,0,3,,,,,,,,,2,,,61,36
13350,note_on,120,0,2,,,,,,,,,1,,,73,0
13350,note_on,0,0,3,,,,,,,,,2,,,68,36
13350,note_on,0,0,1,,,,,,,,,0,,,78,36
13362,note_on,12,0,3,,,,,,,,,2,,,68,0
13362,note_on,0,0,3,,,,,,,,,2,,,61,0
13440,note_on,90,0,1,,,,,,,,,0,,,78,0
13440,note_on,0,0,1,,,,,,,,,0,,,77,36
13470,note_on,30,0,1,,,,,,,,,0,,,77,0
13470,note_on,0,0,1,,,,,,,,,0,,,76,54
13470,note_on,0,0,1,,,,,,,,,0,,,80,62
13470,note_on,0,0,2,,,,,,,,,1,,,74,36
13470,note_on,120,0,2,,,,,,,,,1,,,73,0
13470,note_on,108,0,3,,,,,,,,,2,,,59,52
13470,note_on,0,0,3,,,,,,,,,2,,,64,57
13470,note_on,0,0,3,,,,,,,,,2,,,68,62
13710,note_on,240,0,3,,,,,,,,,2,,,68,0
13710,note_on,0,0,3,,,,,,,,,2,,,64,0
13710,note_on,0,0,3,,,,,,,,,2,,,59,0
13710,note_on,0,0,3,,,,,,,,,2,,,59,52
13710,note_on,0,0,1,,,,,,,,,0,,,76,0
13710,note_on,0,0,3,,,,,,,,,2,,,68,62
13710,note_on,0,0,1,,,,,,,,,0,,,80,62
13710,note_on,0,0,1,,,,,,,,,0,,,76,54
13710,note_on,240,0,1,,,,,,,,,0,,,80,0
13710,note_on,240,0,2,,,,,,,,,1,,,74,0
13710,note_on,0,0,3,,,,,,,,,2,,,64,57
13710,note_on,0,0,2,,,,,,,,,1,,,74,36
13830,note_on,120,0,2,,,,,,,,,1,,,74,0
13830,control_change,120,0,3,,,,,,,,,2,64,0,,
13830,control_change,120,0,1,,,,,,,,,0,64,0,,
13920,note_on,0,0,3,,,,,,,,,2,,,68,36
13920,note_on,0,0,3,,,,,,,,,2,,,59,0
13920,note_on,0,0,3,,,,,,,,,2,,,64,0
13920,note_on,90,0,3,,,,,,,,,2,,,68,0
13920,note_on,90,0,1,,,,,,,,,0,,,80,0
13920,note_on,0,0,1,,,,,,,,,0,,,76,36
13920,note_on,0,0,1,,,,,,,,,0,,,76,0
13950,note_on,4920,0,4,,,,,,,,,3,,,64,36
13950,note_on,0,0,3,,,,,,,,,2,,,69,36
13950,note_on,30,0,1,,,,,,,,,0,,,76,0
13950,note_on,0,0,1,,,,,,,,,0,,,78,36
13950,note_on,120,0,2,,,,,,,,,1,,,74,36
13950,note_on,30,0,3,,,,,,,,,2,,,68,0
14040,note_on,90,0,3,,,,,,,,,2,,,69,0
14040,note_on,0,0,3,,,,,,,,,2,,,68,36
14040,note_on,90,0,1,,,,,,,,,0,,,78,0
14040,note_on,0,0,1,,,,,,,,,0,,,76,36
14070,note_on,30,0,1,,,,,,,,,0,,,76,0
14070,note_on,0,0,1,,,,,,,,,0,,,78,36
14070,note_on,0,0,2,,,,,,,,,1,,,74,36
14070,note_on,120,0,2,,,,,,,,,1,,,74,0
14070,note_on,120,0,4,,,,,,,,,3,,,64,0
14070,note_on,30,0,3,,,,,,,,,2,,,68,0
14070,note_on,0,0,3,,,,,,,,,2,,,69,36
14070,note_on,0,0,4,,,,,,,,,3,,,64,36
14160,note_on,0,0,1,,,,,,,,,0,,,80,36
14160,note_on,90,0,3,,,,,,,,,2,,,69,0
14160,note_on,0,0,3,,,,,,,,,2,,,71,36
14160,note_on,90,0,1,,,,,,,,,0,,,78,0
14190,note_on,30,0,3,,,,,,,,,2,,,71,0
14190,control_change,0,0,3,,,,,,,,,2,64,127,,
14190,note_on,120,0,2,,,,,,,,,1,,,74,0
14190,control_change,0,0,1,,,,,,,,,0,64,127,,
14190,note_on,0,0,1,,,,,,,,,0,,,73,36
14190,note_on,0,0,1,,,,,,,,,0,,,81,36
14190,note_on,120,0,4,,,,,,,,,3,,,64,0
14190,note_on,0,0,3,,,,,,,,,2,,,57,36
14190,note_on,0,0,3,,,,,,,,,2,,,64,36
14190,note_on,30,0,1,,,,,,,,,0,,,80,0
14190,note_on,0,0,1,,,,,,,,,0,,,69,36
14430,note_on,0,0,3,,,,,,,,,2,,,57,0
14430,note_on,0,0,3,,,,,,,,,2,,,57,36
14430,note_on,0,0,1,,,,,,,,,0,,,81,36
14430,note_on,0,0,1,,,,,,,,,0,,,73,36
14430,note_on,0,0,1,,,,,,,,,0,,,69,36
14430,note_on,0,0,1,,,,,,,,,0,,,69,0
14430,note_on,0,0,1,,,,,,,,,0,,,73,0
14430,note_on,240,0,1,,,,,,,,,0,,,81,0
14430,note_on,240,0,3,,,,,,,,,2,,,64,0
14430,note_on,0,0,3,,,,,,,,,2,,,64,36
14550,control_change,120,0,1,,,,,,,,,0,64,0,,
14550,time_signature,3960,1,0,3,16,6,8,,,,,,,,,
14550,control_change,120,0,3,,,,,,,,,2,64,0,,
14610,note_on,0,0,1,,,,,,,,,0,,,73,0
14610,note_on,0,0,1,,,,,,,,,0,,,69,0
14610,note_on,60,0,1,,,,,,,,,0,,,81,0
14640,note_on,450,0,2,,,,,,,,,1,,,57,101
14640,note_on,0,0,3,,,,,,,,,2,,,45,88
14640,note_on,90,0,3,,,,,,,,,2,,,64,0
14640,time_signature,90,1,0,9,16,6,8,,,,,,,,,
14640,note_on,0,0,3,,,,,,,,,2,,,57,0
14644,note_on,4,0,2,,,,,,,,,1,,,57,0
14644,note_on,4,0,3,,,,,,,,,2,,,45,0
14670,note_on,26,0,2,,,,,,,,,1,,,57,101
14670,note_on,26,0,3,,,,,,,,,2,,,45,88
14679,note_on,9,0,2,,,,,,,,,1,,,57,0
14679,note_on,9,0,3,,,,,,,,,2,,,45,0
14760,note_on,81,0,2,,,,,,,,,1,,,57,101
14760,note_on,81,0,3,,,,,,,,,2,,,45,88
14764,note_on,4,0,3,,,,,,,,,2,,,45,0
14764,note_on,4,0,2,,,,,,,,,1,,,57,0
14790,note_on,26,0,3,,,,,,,,,2,,,43,88
14790,note_on,26,0,2,,,,,,,,,1,,,55,101
14799,note_on,9,0,3,,,,,,,,,2,,,43,0
14799,note_on,9,0,2,,,,,,,,,1,,,55,0
14880,note_on,81,0,2,,,,,,,,,1,,,57,101
14880,note_on,81,0,3,,,,,,,,,2,,,45,88
14884,note_on,4,0,3,,,,,,,,,2,,,45,0
14884,note_on,4,0,2,,,,,,,,,1,,,57,0
14910,time_signature,270,1,0,3,4,24,8,,,,,,,,,
14910,set_tempo,0,1,0,,,,,,333333,,,,,,,
14910,note_on,0,0,3,,,,,,,,,2,,,46,101
14910,note_on,0,0,3,,,,,,,,,2,,,34,101
14910,control_change,26,0,2,,,,,,,,,1,64,127,,
14910,control_change,26,0,3,,,,,,,,,2,64,127,,
14910,note_on,0,0,2,,,,,,,,,1,,,55,114
14910,note_on,0,0,2,,,,,,,,,1,,,58,114
14910,note_on,0,0,2,,,,,,,,,1,,,61,114
14910,note_on,0,0,2,,,,,,,,,1,,,52,114
15150,note_on,0,0,3,,,,,,,,,2,,,34,101
15150,note_on,0,0,3,,,,,,,,,2,,,46,101
15150,note_on,0,0,3,,,,,,,,,2,,,34,0
15150,note_on,240,0,3,,,,,,,,,2,,,46,0
15150,note_on,0,0,2,,,,,,,,,1,,,58,114
15150,note_on,0,0,2,,,,,,,,,1,,,61,114
15150,note_on,0,0,2,,,,,,,,,1,,,52,114
15150,note_on,0,0,2,,,,,,,,,1,,,58,0
15150,note_on,0,0,2,,,,,,,,,1,,,55,0
15150,note_on,0,0,2,,,,,,,,,1,,,52,0
15150,note_on,240,0,2,,,,,,,,,1,,,61,0
15150,note_on,0,0,2,,,,,,,,,1,,,55,114
15270,control_change,120,0,2,,,,,,,,,1,64,0,,
15270,control_change,120,0,3,,,,,,,,,2,64,0,,
15330,note_on,0,0,2,,,,,,,,,1,,,52,0
15330,note_on,0,0,2,,,,,,,,,1,,,58,0
15330,note_on,60,0,2,,,,,,,,,1,,,61,0
15330,note_on,0,0,2,,,,,,,,,1,,,55,0
15360,note_on,750,0,1,,,,,,,,,0,,,69,114
15360,note_on,0,0,3,,,,,,,,,2,,,34,0
15360,note_on,0,0,3,,,,,,,,,2,,,57,101
15360,note_on,90,0,3,,,,,,,,,2,,,46,0
15364,note_on,4,0,3,,,,,,,,,2,,,57,0
15364,note_on,4,0,1,,,,,,,,,0,,,69,0
15390,note_on,26,0,3,,,,,,,,,2,,,57,101
15390,note_on,26,0,1,,,,,,,,,0,,,69,114
15399,note_on,9,0,3,,,,,,,,,2,,,57,0
15399,note_on,9,0,1,,,,,,,,,0,,,69,0
15480,note_on,81,0,1,,,,,,,,,0,,,69,114
15480,note_on,81,0,3,,,,,,,,,2,,,57,101
15484,note_on,4,0,1,,,,,,,,,0,,,69,0
15484,note_on,4,0,3,,,,,,,,,2,,,57,0
15510,note_on,26,0,1,,,,,,,,,0,,,67,114
15510,note_on,26,0,3,,,,,,,,,2,,,55,101
15519,note_on,9,0,1,,,,,,,,,0,,,67,0
15519,note_on,9,0,3,,,,,,,,,2,,,55,0
15600,note_on,81,0,1,,,,,,,,,0,,,69,114
15600,note_on,81,0,3,,,,,,,,,2,,,57,101
15604,note_on,4,0,1,,,,,,,,,0,,,69,0
15604,note_on,4,0,3,,,,,,,,,2,,,57,0
15630,note_on,26,0,1,,,,,,,,,0,,,62,114
15630,note_on,26,0,3,,,,,,,,,2,,,46,101
15630,note_on,0,0,3,,,,,,,,,2,,,58,101
15630,note_on,0,0,3,,,,,,,,,2,,,53,101
15630,note_on,0,0,1,,,,,,,,,0,,,70,114
15630,note_on,0,0,1,,,,,,,,,0,,,65,114
15630,note_on,0,0,1,,,,,,,,,0,,,74,114
15870,note_on,240,0,3,,,,,,,,,2,,,58,0
15870,note_on,0,0,3,,,,,,,,,2,,,53,0
15870,note_on,0,0,3,,,,,,,,,2,,,46,0
15870,note_on,0,0,3,,,,,,,,,2,,,46,101
15870,note_on,0,0,3,,,,,,,,,2,,,53,101
15870,note_on,0,0,3,,,,,,,,,2,,,58,101
15870,note_on,0,0,1,,,,,,,,,0,,,62,114
15870,note_on,240,0,1,,,,,,,,,0,,,74,0
15870,note_on,0,0,1,,,,,,,,,0,,,62,0
15870,note_on,0,0,1,,,,,,,,,0,,,65,0
15870,note_on,0,0,1,,,,,,,,,0,,,65,114
15870,note_on,0,0,1,,,,,,,,,0,,,70,114
15870,note_on,0,0,1,,,,,,,,,0,,,74,114
15870,note_on,0,0,1,,,,,,,,,0,,,70,0
16080,note_on,0,0,3,,,,,,,,,2,,,62,101
16080,note_on,210,0,1,,,,,,,,,0,,,74,0
16080,note_on,0,0,1,,,,,,,,,0,,,62,0
16080,note_on,0,0,1,,,,,,,,,0,,,65,0
16080,note_on,0,0,1,,,,,,,,,0,,,70,0
16080,note_on,210,0,3,,,,,,,,,2,,,58,0
16080,note_on,0,0,3,,,,,,,,,2,,,53,0
16080,note_on,0,0,3,,,,,,,,,2,,,46,0
16080,note_on,0,0,1,,,,,,,,,0,,,74,114
16080,note_on,0,0,3,,,,,,,,,2,,,65,101
16080,note_on,0,0,1,,,,,,,,,0,,,77,114
16084,note_on,4,0,3,,,,,,,,,2,,,65,0
16084,note_on,0,0,3,,,,,,,,,2,,,62,0
16084,note_on,4,0,1,,,,,,,,,0,,,77,0
16084,note_on,0,0,1,,,,,,,,,0,,,74,0
16110,note_on,26,0,3,,,,,,,,,2,,,62,119
16110,note_on,0,0,3,,,,,,,,,2,,,65,127
16110,note_on,0,0,1,,,,,,,,,0,,,77,127
16110,note_on,26,0,1,,,,,,,,,0,,,74,127
16119,note_on,0,0,1,,,,,,,,,0,,,74,0
16119,note_on,0,0,3,,,,,,,,,2,,,62,0
16119,note_on,9,0,1,,,,,,,,,0,,,77,0
16119,note_on,9,0,3,,,,,,,,,2,,,65,0
16200,note_on,0,0,1,,,,,,,,,0,,,77,114
16200,note_on,81,0,1,,,,,,,,,0,,,74,114
16200,note_on,81,0,3,,,,,,,,,2,,,62,101
16200,note_on,0,0,3,,,,,,,,,2,,,65,101
16204,note_on,4,0,3,,,,,,,,,2,,,65,0
16204,note_on,4,0,1,,,,,,,,,0,,,77,0
16204,note_on,0,0,1,,,,,,,,,0,,,74,0
16204,note_on,0,0,3,,,,,,,,,2,,,62,0
16230,note_on,26,0,1,,,,,,,,,0,,,73,114
16230,note_on,0,0,1,,,,,,,,,0,,,76,114
16230,note_on,26,0,3,,,,,,,,,2,,,61,101
16230,note_on,0,0,3,,,,,,,,,2,,,64,101
16239,note_on,9,0,1,,,,,,,,,0,,,76,0
16239,note_on,9,0,3,,,,,,,,,2,,,64,0
16239,note_on,0,0,3,,,,,,,,,2,,,61,0
16239,note_on,0,0,1,,,,,,,,,0,,,73,0
16320,note_on,81,0,1,,,,,,,,,0,,,74,114
16320,note_on,0,0,1,,,,,,,,,0,,,77,114
16320,note_on,81,0,3,,,,,,,,,2,,,62,101
16320,note_on,0,0,3,,,,,,,,,2,,,65,101
16324,note_on,4,0,3,,,,,,,,,2,,,65,0
16324,note_on,0,0,1,,,,,,,,,0,,,74,0
16324,note_on,4,0,1,,,,,,,,,0,,,77,0
16324,note_on,0,0,3,,,,,,,,,2,,,62,0
16350,note_on,26,0,3,,,,,,,,,2,,,58,119
16350,note_on,0,0,3,,,,,,,,,2,,,62,127
16350,note_on,0,0,1,,,,,,,,,0,,,74,127
16350,note_on,26,0,1,,,,,,,,,0,,,70,127
16359,note_on,9,0,1,,,,,,,,,0,,,74,0
16359,note_on,0,0,1,,,,,,,,,0,,,70,0
16359,note_on,0,0,3,,,,,,,,,2,,,58,0
16359,note_on,9,0,3,,,,,,,,,2,,,62,0
16440,note_on,0,0,3,,,,,,,,,2,,,62,101
16440,note_on,81,0,1,,,,,,,,,0,,,70,114
16440,note_on,0,0,1,,,,,,,,,0,,,74,114
16440,note_on,81,0,3,,,,,,,,,2,,,58,101
16444,note_on,0,0,3,,,,,,,,,2,,,58,0
16444,note_on,4,0,3,,,,,,,,,2,,,62,0
16444,note_on,4,0,1,,,,,,,,,0,,,74,0
16444,note_on,0,0,1,,,,,,,,,0,,,70,0
16470,note_on,26,0,1,,,,,,,,,0,,,69,114
16470,note_on,0,0,1,,,,,,,,,0,,,73,114
16470,note_on,0,0,3,,,,,,,,,2,,,61,101
16470,note_on,26,0,3,,,,,,,,,2,,,57,101
16479,note_on,0,0,1,,,,,,,,,0,,,69,0
16479,note_on,0,0,3,,,,,,,,,2,,,57,0
16479,note_on,9,0,3,,,,,,,,,2,,,61,0
16479,note_on,9,0,1,,,,,,,,,0,,,73,0
16560,note_on,0,0,1,,,,,,,,,0,,,74,114
16560,note_on,0,0,3,,,,,,,,,2,,,62,101
16560,note_on,81,0,3,,,,,,,,,2,,,58,101
16560,note_on,81,0,1,,,,,,,,,0,,,70,114
16564,note_on,4,0,1,,,,,,,,,0,,,74,0
16564,note_on,0,0,3,,,,,,,,,2,,,58,0
16564,note_on,0,0,1,,,,,,,,,0,,,70,0
16564,note_on,4,0,3,,,,,,,,,2,,,62,0
16590,note_on,26,0,1,,,,,,,,,0,,,67,127
16590,note_on,0,0,1,,,,,,,,,0,,,70,127
16590,note_on,0,0,3,,,,,,,,,2,,,58,127
16590,note_on,26,0,3,,,,,,,,,2,,,55,119
16599,note_on,9,0,1,,,,,,,,,0,,,70,0
16599,note_on,9,0,3,,,,,,,,,2,,,58,0
16599,note_on,0,0,3,,,,,,,,,2,,,55,0
16599,note_on,0,0,1,,,,,,,,,0,,,67,0
16680,note_on,81,0,3,,,,,,,,,2,,,55,101
16680,note_on,0,0,3,,,,,,,,,2,,,58,101
16680,note_on,81,0,1,,,,,,,,,0,,,67,114
16680,note_on,0,0,1,,,,,,,,,0,,,70,114
16684,note_on,4,0,1,,,,,,,,,0,,,70,0
16684,note_on,0,0,3,,,,,,,,,2,,,55,0
16684,note_on,4,0,3,,,,,,,,,2,,,58,0
16684,note_on,0,0,1,,,,,,,,,0,,,67,0
16710,note_on,0,0,3,,,,,,,,,2,,,57,101
16710,note_on,26,0,3,,,,,,,,,2,,,54,101
16710,note_on,26,0,1,,,,,,,,,0,,,66,114
16710,note_on,0,0,1,,,,,,,,,0,,,69,114
16719,note_on,0,0,3,,,,,,,,,2,,,54,0
16719,note_on,9,0,3,,,,,,,,,2,,,57,0
16719,note_on,9,0,1,,,,,,,,,0,,,69,0
16719,note_on,0,0,1,,,,,,,,,0,,,66,0
16800,note_on,0,0,3,,,,,,,,,2,,,58,101
16800,note_on,81,0,1,,,,,,,,,0,,,67,114
16800,note_on,0,0,1,,,,,,,,,0,,,70,114
16800,note_on,81,0,3,,,,,,,,,2,,,55,101
16804,note_on,4,0,1,,,,,,,,,0,,,70,0
16804,note_on,0,0,1,,,,,,,,,0,,,67,0
16804,note_on,0,0,3,,,,,,,,,2,,,55,0
16804,note_on,4,0,3,,,,,,,,,2,,,58,0
16830,note_on,0,0,1,,,,,,,,,0,,,67,114
16830,note_on,26,0,1,,,,,,,,,0,,,63,114
16830,note_on,26,0,3,,,,,,,,,2,,,51,101
16830,note_on,0,0,3,,,,,,,,,2,,,55,101
17070,note_on,0,0,1,,,,,,,,,0,,,63,0
17070,note_on,240,0,1,,,,,,,,,0,,,67,0
17070,note_on,0,0,1,,,,,,,,,0,,,71,114
17070,note_on,0,0,1,,,,,,,,,0,,,79,114
17070,note_on,0,0,3,,,,,,,,,2,,,51,0
17070,note_on,0,0,3,,,,,,,,,2,,,50,101
17070,note_on,0,0,3,,,,,,,,,2,,,38,101
17070,note_on,240,0,3,,,,,,,,,2,,,55,0
17070,note_on,0,0,1,,,,,,,,,0,,,67,114
17070,note_on,0,0,1,,,,,,,,,0,,,75,114
17310,note_on,0,0,3,,,,,,,,,2,,,36,101
17310,note_on,0,0,3,,,,,,,,,2,,,38,0
17310,note_on,240,0,3,,,,,,,,,2,,,50,0
17310,note_on,0,0,3,,,,,,,,,2,,,48,101
17310,note_on,0,0,1,,,,,,,,,0,,,75,114
17310,note_on,0,0,1,,,,,,,,,0,,,67,0
17310,note_on,0,0,1,,,,,,,,,0,,,71,0
17310,note_on,0,0,1,,,,,,,,,0,,,75,0
17310,note_on,0,0,1,,,,,,,,,0,,,67,114
17310,note_on,0,0,1,,,,,,,,,0,,,72,114
17310,note_on,0,0,1,,,,,,,,,0,,,79,114
17310,note_on,240,0,1,,,,,,,,,0,,,79,0
17550,note_on,0,0,3,,,,,,,,,2,,,41,119
17550,note_on,0,0,3,,,,,,,,,2,,,53,127
17550,note_on,0,0,1,,,,,,,,,0,,,77,127
17550,note_on,0,0,3,,,,,,,,,2,,,36,0
17550,note_on,0,0,1,,,,,,,,,0,,,74,127
17550,note_on,0,0,1,,,,,,,,,0,,,75,0
17550,note_on,0,0,1,,,,,,,,,0,,,72,0
17550,note_on,0,0,1,,,,,,,,,0,,,67,0
17550,note_on,240,0,1,,,,,,,,,0,,,79,0
17550,note_on,0,0,1,,,,,,,,,0,,,65,127
17550,note_on,240,0,3,,,,,,,,,2,,,48,0
17562,note_on,12,0,1,,,,,,,,,0,,,77,0
17562,note_on,0,0,1,,,,,,,,,0,,,74,0
17562,note_on,0,0,1,,,,,,,,,0,,,65,0
17562,note_on,0,0,3,,,,,,,,,2,,,41,0
17562,note_on,12,0,3,,,,,,,,,2,,,53,0
17670,note_on,108,0,3,,,,,,,,,2,,,41,119
17670,note_on,0,0,3,,,,,,,,,2,,,53,127
17670,note_on,0,0,1,,,,,,,,,0,,,72,127
17670,note_on,0,0,1,,,,,,,,,0,,,81,127
17670,note_on,0,0,1,,,,,,,,,0,,,75,127
17670,note_on,108,0,1,,,,,,,,,0,,,69,127
17682,note_on,0,0,1,,,,,,,,,0,,,72,0
17682,note_on,0,0,1,,,,,,,,,0,,,69,0
17682,note_on,12,0,1,,,,,,,,,0,,,81,0
17682,note_on,12,0,3,,,,,,,,,2,,,53,0
17682,note_on,0,0,3,,,,,,,,,2,,,41,0
17682,note_on,0,0,1,,,,,,,,,0,,,75,0
17790,note_on,108,0,3,,,,,,,,,2,,,34,101
17790,note_on,0,0,3,,,,,,,,,2,,,46,101
17790,note_on,0,0,1,,,,,,,,,0,,,82,114
17790,note_on,0,0,1,,,,,,,,,0,,,74,114
17790,note_on,108,0,1,,,,,,,,,0,,,70,114
18030,note_on,0,0,1,,,,,,,,,0,,,62,114
18030,note_on,0,0,1,,,,,,,,,0,,,70,0
18030,note_on,0,0,1,,,,,,,,,0,,,58,114
18030,note_on,0,0,1,,,,,,,,,0,,,70,114
18030,note_on,0,0,3,,,,,,,,,2,,,34,0
18030,note_on,0,0,3,,,,,,,,,2,,,46,101
18030,note_on,0,0,3,,,,,,,,,2,,,53,101
18030,note_on,0,0,1,,,,,,,,,0,,,74,0
18030,note_on,240,0,1,,,,,,,,,0,,,82,0
18030,note_on,240,0,3,,,,,,,,,2,,,46,0
18240,note_on,0,0,1,,,,,,,,,0,,,77,49
18240,note_on,210,0,1,,,,,,,,,0,,,70,0
18240,note_on,210,0,3,,,,,,,,,2,,,53,0
18240,note_on,0,0,1,,,,,,,,,0,,,58,0
18240,note_on,0,0,1,,,,,,,,,0,,,62,0
18240,note_on,0,0,1,,,,,,,,,0,,,74,49
18240,note_on,0,0,3,,,,,,,,,2,,,46,0
18244,note_on,0,0,1,,,,,,,,,0,,,74,0
18244,note_on,4,0,1,,,,,,,,,0,,,77,0
18270,note_on,26,0,1,,,,,,,,,0,,,74,49
18270,note_on,0,0,1,,,,,,,,,0,,,77,49
18279,note_on,9,0,1,,,,,,,,,0,,,77,0
18279,note_on,0,0,1,,,,,,,,,0,,,74,0
18360,note_on,81,0,1,,,,,,,,,0,,,74,49
18360,note_on,0,0,1,,,,,,,,,0,,,77,49
18364,note_on,4,0,1,,,,,,,,,0,,,77,0
18364,note_on,0,0,1,,,,,,,,,0,,,74,0
18390,note_on,0,0,1,,,,,,,,,0,,,76,49
18390,note_on,26,0,1,,,,,,,,,0,,,73,49
18399,note_on,0,0,1,,,,,,,,,0,,,73,0
18399,note_on,9,0,1,,,,,,,,,0,,,76,0
18480,note_on,0,0,1,,,,,,,,,0,,,77,49
18480,note_on,81,0,1,,,,,,,,,0,,,74,49
18484,note_on,0,0,1,,,,,,,,,0,,,74,0
18484,note_on,4,0,1,,,,,,,,,0,,,77,0
18510,control_change,270,0,3,,,,,,,,,2,64,127,,
18510,note_on,0,0,1,,,,,,,,,0,,,74,75
18510,note_on,0,0,1,,,,,,,,,0,,,70,67
18510,control_change,26,0,1,,,,,,,,,0,64,127,,
18510,note_on,0,0,3,,,,,,,,,2,,,46,36
18522,note_on,12,0,3,,,,,,,,,2,,,46,0
18630,note_on,108,0,3,,,,,,,,,2,,,53,62
18642,note_on,12,0,3,,,,,,,,,2,,,53,0
18750,note_on,0,0,1,,,,,,,,,0,,,70,67
18750,note_on,0,0,1,,,,,,,,,0,,,70,0
18750,control_change,0,0,1,,,,,,,,,0,64,0,,
18750,note_on,240,0,1,,,,,,,,,0,,,74,0
18750,note_on,0,0,3,,,,,,,,,2,,,62,36
18750,note_on,0,0,3,,,,,,,,,2,,,58,36
18750,control_change,108,0,3,,,,,,,,,2,64,0,,
18750,note_on,0,0,1,,,,,,,,,0,,,74,75
18762,note_on,12,0,3,,,,,,,,,2,,,62,0
18762,note_on,0,0,3,,,,,,,,,2,,,58,0
18870,control_change,120,0,1,,,,,,,,,0,64,127,,
18870,note_on,0,0,3,,,,,,,,,2,,,46,36
18870,control_change,108,0,3,,,,,,,,,2,64,127,,
18882,note_on,12,0,3,,,,,,,,,2,,,46,0
18960,note_on,0,0,1,,,,,,,,,0,,,70,49
18960,note_on,90,0,1,,,,,,,,,0,,,74,0
18960,note_on,0,0,1,,,,,,,,,0,,,74,49
18960,note_on,0,0,1,,,,,,,,,0,,,70,0
18964,note_on,4,0,1,,,,,,,,,0,,,74,0
18964,note_on,0,0,1,,,,,,,,,0,,,70,0
18990,note_on,0,0,1,,,,,,,,,0,,,74,49
18990,note_on,26,0,1,,,,,,,,,0,,,70,49
18990,note_on,108,0,3,,,,,,,,,2,,,53,62
18999,note_on,9,0,1,,,,,,,,,0,,,74,0
18999,note_on,0,0,1,,,,,,,,,0,,,70,0
19002,note_on,12,0,3,,,,,,,,,2,,,53,0
19080,note_on,81,0,1,,,,,,,,,0,,,70,49
19080,note_on,0,0,1,,,,,,,,,0,,,74,49
19084,note_on,4,0,1,,,,,,,,,0,,,74,0
19084,note_on,0,0,1,,,,,,,,,0,,,70,0
19110,note_on,0,0,3,,,,,,,,,2,,,58,36
19110,control_change,108,0,3,,,,,,,,,2,64,0,,
19110,note_on,0,0,3,,,,,,,,,2,,,62,36
19110,note_on,0,0,1,,,,,,,,,0,,,73,49
19110,note_on,26,0,1,,,,,,,,,0,,,69,49
19119,note_on,0,0,1,,,,,,,,,0,,,69,0
19119,note_on,9,0,1,,,,,,,,,0,,,73,0
19122,note_on,12,0,3,,,,,,,,,2,,,62,0
19122,note_on,0,0,3,,,,,,,,,2,,,58,0
19200,note_on,0,0,1,,,,,,,,,0,,,74,49
19200,note_on,0,0,1,,,,,,,,,0,,,70,49
19200,control_change,81,0,1,,,,,,,,,0,64,0,,
19204,note_on,0,0,1,,,,,,,,,0,,,70,0
19204,note_on,4,0,1,,,,,,,,,0,,,74,0
19230,note_on,0,0,3,,,,,,,,,2,,,45,36
19230,control_change,108,0,3,,,,,,,,,2,64,127,,
19230,note_on,0,0,1,,,,,,,,,0,,,77,75
19230,note_on,0,0,1,,,,,,,,,0,,,74,67
19230,control_change,26,0,1,,,,,,,,,0,64,127,,
19242,note_on,12,0,3,,,,,,,,,2,,,45,0
19350,note_on,108,0,3,,,,,,,,,2,,,53,62
19362,note_on,12,0,3,,,,,,,,,2,,,53,0
19470,note_on,0,0,3,,,,,,,,,2,,,60,36
19470,note_on,0,0,3,,,,,,,,,2,,,63,36
19470,control_change,0,0,1,,,,,,,,,0,64,0,,
19470,note_on,0,0,1,,,,,,,,,0,,,75,75
19470,note_on,240,0,1,,,,,,,,,0,,,77,0
19470,control_change,108,0,3,,,,,,,,,2,64,0,,
19470,note_on,0,0,1,,,,,,,,,0,,,74,0
19470,note_on,0,0,1,,,,,,,,,0,,,72,67
19482,note_on,12,0,3,,,,,,,,,2,,,63,0
19482,note_on,0,0,3,,,,,,,,,2,,,60,0
19590,control_change,120,0,1,,,,,,,,,0,64,127,,
19590,control_change,108,0,3,,,,,,,,,2,64,127,,
19590,note_on,0,0,3,,,,,,,,,2,,,45,36
19602,note_on,12,0,3,,,,,,,,,2,,,45,0
19680,note_on,0,0,1,,,,,,,,,0,,,75,49
19680,note_on,0,0,1,,,,,,,,,0,,,77,49
19680,note_on,0,0,1,,,,,,,,,0,,,72,49
19680,note_on,0,0,1,,,,,,,,,0,,,72,0
19680,note_on,90,0,1,,,,,,,,,0,,,75,0
19710,note_on,108,0,3,,,,,,,,,2,,,53,62
19710,note_on,30,0,1,,,,,,,,,0,,,77,0
19710,note_on,0,0,1,,,,,,,,,0,,,75,0
19710,note_on,0,0,1,,,,,,,,,0,,,72,0
19710,note_on,0,0,1,,,,,,,,,0,,,72,49
19710,note_on,0,0,1,,,,,,,,,0,,,75,49
19710,note_on,0,0,1,,,,,,,,,0,,,77,49
19722,note_on,12,0,3,,,,,,,,,2,,,53,0
19800,note_on,0,0,1,,,,,,,,,0,,,75,49
19800,note_on,90,0,1,,,,,,,,,0,,,77,0
19800,note_on,0,0,1,,,,,,,,,0,,,75,0
19800,note_on,0,0,1,,,,,,,,,0,,,72,0
19800,note_on,0,0,1,,,,,,,,,0,,,72,49
19800,note_on,0,0,1,,,,,,,,,0,,,77,49
19830,note_on,0,0,1,,,,,,,,,0,,,77,49
19830,note_on,0,0,1,,,,,,,,,0,,,74,49
19830,note_on,0,0,1,,,,,,,,,0,,,72,0
19830,note_on,0,0,1,,,,,,,,,0,,,75,0
19830,note_on,30,0,1,,,,,,,,,0,,,77,0
19830,note_on,0,0,1,,,,,,,,,0,,,71,49
19830,note_on,0,0,3,,,,,,,,,2,,,63,36
19830,control_change,108,0,3,,,,,,,,,2,64,0,,
19830,note_on,0,0,3,,,,,,,,,2,,,60,36
19842,note_on,0,0,3,,,,,,,,,2,,,60,0
19842,note_on,12,0,3,,,,,,,,,2,,,63,0
19920,note_on,90,0,1,,,,,,,,,0,,,77,0
19920,note_on,0,0,1,,,,,,,,,0,,,74,0
19920,note_on,0,0,1,,,,,,,,,0,,,71,0
19920,note_on,0,0,1,,,,,,,,,0,,,72,49
19920,note_on,0,0,1,,,,,,,,,0,,,77,49
19920,note_on,0,0,1,,,,,,,,,0,,,75,49
19920,control_change,0,0,1,,,,,,,,,0,64,0,,
19950,note_on,30,0,1,,,,,,,,,0,,,77,0
19950,control_change,108,0,3,,,,,,,,,2,64,127,,
19950,note_on,0,0,1,,,,,,,,,0,,,75,0
19950,note_on,0,0,1,,,,,,,,,0,,,72,0
19950,note_on,0,0,1,,,,,,,,,0,,,69,65
19950,note_on,0,0,1,,,,,,,,,0,,,72,70
19950,note_on,0,0,1,,,,,,,,,0,,,77,75
19950,control_change,0,0,1,,,,,,,,,0,64,127,,
19950,note_on,0,0,3,,,,,,,,,2,,,41,36
19962,note_on,12,0,3,,,,,,,,,2,,,41,0
20070,note_on,108,0,3,,,,,,,,,2,,,53,36
20082,note_on,12,0,3,,,,,,,,,2,,,53,0
20190,note_on,0,0,1,,,,,,,,,0,,,69,65
20190,note_on,0,0,1,,,,,,,,,0,,,69,0
20190,control_change,108,0,3,,,,,,,,,2,64,0,,
20190,control_change,0,0,1,,,,,,,,,0,64,0,,
20190,note_on,0,0,1,,,,,,,,,0,,,77,75
20190,note_on,240,0,1,,,,,,,,,0,,,77,0
20190,note_on,0,0,1,,,,,,,,,0,,,72,70
20190,note_on,0,0,3,,,,,,,,,2,,,63,36
20190,note_on,0,0,3,,,,,,,,,2,,,60,36
20190,note_on,0,0,1,,,,,,,,,0,,,72,0
20202,note_on,12,0,3,,,,,,,,,2,,,63,0
20202,note_on,0,0,3,,,,,,,,,2,,,60,0
20310,control_change,108,0,3,,,,,,,,,2,64,127,,
20310,note_on,0,0,3,,,,,,,,,2,,,41,36
20310,control_change,120,0,1,,,,,,,,,0,64,127,,
20322,note_on,12,0,3,,,,,,,,,2,,,41,0
20400,note_on,0,0,1,,,,,,,,,0,,,77,49
20400,note_on,0,0,1,,,,,,,,,0,,,72,49
20400,note_on,0,0,1,,,,,,,,,0,,,69,49
20400,note_on,0,0,1,,,,,,,,,0,,,69,0
20400,note_on,90,0,1,,,,,,,,,0,,,77,0
20400,note_on,0,0,1,,,,,,,,,0,,,72,0
20430,note_on,108,0,3,,,,,,,,,2,,,53,36
20430,note_on,30,0,1,,,,,,,,,0,,,77,0
20430,note_on,0,0,1,,,,,,,,,0,,,72,0
20430,note_on,0,0,1,,,,,,,,,0,,,69,0
20430,note_on,0,0,1,,,,,,,,,0,,,69,49
20430,note_on,0,0,1,,,,,,,,,0,,,72,49
20430,note_on,0,0,1,,,,,,,,,0,,,77,49
20442,note_on,12,0,3,,,,,,,,,2,,,53,0
20520,note_on,0,0,1,,,,,,,,,0,,,77,49
20520,note_on,0,0,1,,,,,,,,,0,,,72,49
20520,note_on,0,0,1,,,,,,,,,0,,,69,49
20520,note_on,90,0,1,,,,,,,,,0,,,77,0
20520,note_on,0,0,1,,,,,,,,,0,,,72,0
20520,note_on,0,0,1,,,,,,,,,0,,,69,0
20550,note_on,0,0,1,,,,,,,,,0,,,68,49
20550,note_on,30,0,1,,,,,,,,,0,,,77,0
20550,note_on,0,0,1,,,,,,,,,0,,,72,0
20550,note_on,0,0,1,,,,,,,,,0,,,69,0
20550,note_on,0,0,1,,,,,,,,,0,,,77,49
20550,note_on,0,0,1,,,,,,,,,0,,,71,49
20550,control_change,108,0,3,,,,,,,,,2,64,0,,
20550,note_on,0,0,3,,,,,,,,,2,,,60,36
20550,note_on,0,0,3,,,,,,,,,2,,,63,36
20562,note_on,0,0,3,,,,,,,,,2,,,60,0
20562,note_on,12,0,3,,,,,,,,,2,,,63,0
20640,note_on,0,0,1,,,,,,,,,0,,,71,0
20640,note_on,0,0,1,,,,,,,,,0,,,68,0
20640,note_on,0,0,1,,,,,,,,,0,,,69,49
20640,note_on,0,0,1,,,,,,,,,0,,,72,49
20640,note_on,0,0,1,,,,,,,,,0,,,77,49
20640,control_change,0,0,1,,,,,,,,,0,64,0,,
20640,note_on,90,0,1,,,,,,,,,0,,,77,0
20670,note_on,0,0,3,,,,,,,,,2,,,46,36
20670,control_change,108,0,3,,,,,,,,,2,64,127,,
20670,note_on,0,0,1,,,,,,,,,0,,,73,70
20670,note_on,0,0,1,,,,,,,,,0,,,77,75
20670,note_on,0,0,1,,,,,,,,,0,,,69,65
20670,note_on,0,0,1,,,,,,,,,0,,,69,0
20670,note_on,0,0,1,,,,,,,,,0,,,72,0
20670,note_on,30,0,1,,,,,,,,,0,,,77,0
20670,control_change,0,0,1,,,,,,,,,0,64,127,,
20682,note_on,12,0,3,,,,,,,,,2,,,46,0
20790,note_on,108,0,3,,,,,,,,,2,,,53,62
20802,note_on,12,0,3,,,,,,,,,2,,,53,0
20910,note_on,240,0,1,,,,,,,,,0,,,77,0
20910,note_on,0,0,1,,,,,,,,,0,,,69,0
20910,control_change,108,0,3,,,,,,,,,2,64,0,,
20910,note_on,0,0,3,,,,,,,,,2,,,58,36
20910,note_on,0,0,3,,,,,,,,,2,,,62,36
20910,note_on,0,0,1,,,,,,,,,0,,,73,0
20910,note_on,0,0,1,,,,,,,,,0,,,70,65
20910,note_on,0,0,1,,,,,,,,,0,,,74,70
20910,control_change,0,0,1,,,,,,,,,0,64,0,,
20910,note_on,0,0,1,,,,,,,,,0,,,77,75
20922,note_on,0,0,3,,,,,,,,,2,,,58,0
20922,note_on,12,0,3,,,,,,,,,2,,,62,0
21030,note_on,0,0,3,,,,,,,,,2,,,46,36
21030,control_change,108,0,3,,,,,,,,,2,64,127,,
21030,control_change,120,0,1,,,,,,,,,0,64,127,,
21042,note_on,12,0,3,,,,,,,,,2,,,46,0
21120,note_on,90,0,1,,,,,,,,,0,,,77,0
21120,note_on,0,0,1,,,,,,,,,0,,,74,0
21120,note_on,0,0,1,,,,,,,,,0,,,77,49
21120,note_on,0,0,1,,,,,,,,,0,,,74,49
21120,note_on,0,0,1,,,,,,,,,0,,,70,49
21120,note_on,0,0,1,,,,,,,,,0,,,70,0
21150,note_on,108,0,3,,,,,,,,,2,,,53,62
21150,note_on,0,0,1,,,,,,,,,0,,,74,49
21150,note_on,0,0,1,,,,,,,,,0,,,70,49
21150,note_on,0,0,1,,,,,,,,,0,,,70,0
21150,note_on,0,0,1,,,,,,,,,0,,,74,0
21150,note_on,30,0,1,,,,,,,,,0,,,77,0
21150,note_on,0,0,1,,,,,,,,,0,,,77,49
21162,note_on,12,0,3,,,,,,,,,2,,,53,0
21240,note_on,0,0,1,,,,,,,,,0,,,77,49
21240,note_on,0,0,1,,,,,,,,,0,,,74,49
21240,note_on,0,0,1,,,,,,,,,0,,,70,49
21240,note_on,0,0,1,,,,,,,,,0,,,70,0
21240,note_on,0,0,1,,,,,,,,,0,,,74,0
21240,note_on,90,0,1,,,,,,,,,0,,,77,0
21270,note_on,0,0,3,,,,,,,,,2,,,62,36
21270,note_on,0,0,3,,,,,,,,,2,,,58,36
21270,control_change,108,0,3,,,,,,,,,2,64,0,,
21270,note_on,0,0,1,,,,,,,,,0,,,76,49
21270,note_on,0,0,1,,,,,,,,,0,,,74,49
21270,note_on,0,0,1,,,,,,,,,0,,,70,49
21270,note_on,0,0,1,,,,,,,,,0,,,74,0
21270,note_on,30,0,1,,,,,,,,,0,,,77,0
21270,note_on,0,0,1,,,,,,,,,0,,,70,0
21282,note_on,12,0,3,,,,,,,,,2,,,62,0
21282,note_on,0,0,3,,,,,,,,,2,,,58,0
21360,control_change,0,0,1,,,,,,,,,0,64,0,,
21360,note_on,0,0,1,,,,,,,,,0,,,74,0
21360,note_on,0,0,1,,,,,,,,,0,,,70,0
21360,note_on,0,0,1,,,,,,,,,0,,,70,49
21360,note_on,90,0,1,,,,,,,,,0,,,76,0
21360,note_on,0,0,1,,,,,,,,,0,,,74,49
21360,note_on,0,0,1,,,,,,,,,0,,,77,49
21390,note_on,30,0,1,,,,,,,,,0,,,77,0
21390,note_on,0,0,1,,,,,,,,,0,,,74,49
21390,note_on,0,0,1,,,,,,,,,0,,,74,0
21390,note_on,0,0,1,,,,,,,,,0,,,70,49
21390,control_change,0,0,1,,,,,,,,,0,64,127,,
21390,note_on,0,0,1,,,,,,,,,0,,,70,0
21390,control_change,108,0,3,,,,,,,,,2,64,127,,
21390,note_on,0,0,3,,,,,,,,,2,,,43,36
21390,note_on,0,0,1,,,,,,,,,0,,,79,49
21402,note_on,12,0,3,,,,,,,,,2,,,43,0
21510,note_on,108,0,3,,,,,,,,,2,,,55,36
21522,note_on,12,0,3,,,,,,,,,2,,,55,0
21630,control_change,108,0,3,,,,,,,,,2,64,0,,
21630,note_on,240,0,1,,,,,,,,,0,,,79,0
21630,note_on,0,0,1,,,,,,,,,0,,,74,0
21630,note_on,0,0,1,,,,,,,,,0,,,70,0
21630,note_on,0,0,3,,,,,,,,,2,,,58,36
21630,note_on,0,0,3,,,,,,,,,2,,,62,36
21630,control_change,0,0,1,,,,,,,,,0,64,0,,
21630,note_on,0,0,1,,,,,,,,,0,,,79,49
21630,note_on,0,0,1,,,,,,,,,0,,,74,49
21630,note_on,0,0,1,,,,,,,,,0,,,70,49
21642,note_on,12,0,3,,,,,,,,,2,,,62,0
21642,note_on,0,0,3,,,,,,,,,2,,,58,0
21750,control_change,108,0,3,,,,,,,,,2,64,127,,
21750,note_on,0,0,3,,,,,,,,,2,,,43,36
21750,control_change,120,0,1,,,,,,,,,0,64,127,,
21840,note_on,0,0,1,,,,,,,,,0,,,79,49
21840,note_on,0,0,1,,,,,,,,,0,,,74,49
21840,note_on,0,0,1,,,,,,,,,0,,,70,49
21840,note_on,0,0,1,,,,,,,,,0,,,70,0
21840,note_on,90,0,1,,,,,,,,,0,,,79,0
21840,note_on,0,0,1,,,,,,,,,0,,,74,0
21870,note_on,0,0,1,,,,,,,,,0,,,74,49
21870,note_on,120,0,3,,,,,,,,,2,,,43,0
21870,note_on,0,0,3,,,,,,,,,2,,,55,36
21870,note_on,30,0,1,,,,,,,,,0,,,79,0
21870,note_on,0,0,1,,,,,,,,,0,,,74,0
21870,note_on,0,0,1,,,,,,,,,0,,,70,0
21870,note_on,0,0,1,,,,,,,,,0,,,70,49
21870,note_on,0,0,1,,,,,,,,,0,,,79,49
21960,note_on,0,0,1,,,,,,,,,0,,,82,49
21960,note_on,0,0,1,,,,,,,,,0,,,74,49
21960,note_on,0,0,1,,,,,,,,,0,,,70,49
21960,note_on,90,0,1,,,,,,,,,0,,,79,0
21960,note_on,0,0,1,,,,,,,,,0,,,74,0
21960,note_on,0,0,1,,,,,,,,,0,,,70,0
21990,note_on,0,0,1,,,,,,,,,0,,,74,0
21990,note_on,0,0,3,,,,,,,,,2,,,58,36
21990,note_on,0,0,1,,,,,,,,,0,,,70,49
21990,note_on,0,0,3,,,,,,,,,2,,,62,36
21990,control_change,0,0,3,,,,,,,,,2,64,0,,
21990,note_on,0,0,1,,,,,,,,,0,,,81,49
21990,note_on,120,0,3,,,,,,,,,2,,,55,0
21990,note_on,30,0,1,,,,,,,,,0,,,82,0
21990,note_on,0,0,1,,,,,,,,,0,,,74,49
21990,note_on,0,0,1,,,,,,,,,0,,,70,0
22080,note_on,0,0,1,,,,,,,,,0,,,79,49
22080,note_on,90,0,1,,,,,,,,,0,,,81,0
22080,note_on,0,0,1,,,,,,,,,0,,,70,0
22080,note_on,0,0,1,,,,,,,,,0,,,70,49
22080,note_on,0,0,1,,,,,,,,,0,,,74,49
22080,note_on,0,0,1,,,,,,,,,0,,,74,0
22080,control_change,0,0,1,,,,,,,,,0,64,0,,
22110,note_on,30,0,1,,,,,,,,,0,,,79,0
22110,note_on,0,0,1,,,,,,,,,0,,,74,0
22110,note_on,0,0,1,,,,,,,,,0,,,70,0
22110,note_on,0,0,1,,,,,,,,,0,,,70,49
22110,note_on,0,0,1,,,,,,,,,0,,,74,49
22110,control_change,0,0,1,,,,,,,,,0,64,127,,
22110,note_on,0,0,1,,,,,,,,,0,,,77,49
22110,note_on,0,0,3,,,,,,,,,2,,,58,0
22110,control_change,0,0,3,,,,,,,,,2,64,127,,
22110,note_on,0,0,3,,,,,,,,,2,,,46,36
22110,note_on,120,0,3,,,,,,,,,2,,,62,0
22230,note_on,120,0,3,,,,,,,,,2,,,46,0
22230,note_on,0,0,3,,,,,,,,,2,,,53,36
22350,note_on,0,0,3,,,,,,,,,2,,,58,36
22350,note_on,0,0,1,,,,,,,,,0,,,74,0
22350,note_on,240,0,1,,,,,,,,,0,,,77,0
22350,note_on,0,0,1,,,,,,,,,0,,,74,49
22350,note_on,0,0,1,,,,,,,,,0,,,77,49
22350,note_on,0,0,1,,,,,,,,,0,,,70,49
22350,note_on,0,0,3,,,,,,,,,2,,,62,36
22350,note_on,0,0,1,,,,,,,,,0,,,70,0
22350,control_change,0,0,3,,,,,,,,,2,64,0,,
22350,note_on,120,0,3,,,,,,,,,2,,,53,0
22350,control_change,0,0,1,,,,,,,,,0,64,0,,
22470,control_change,120,0,1,,,,,,,,,0,64,127,,
22470,note_on,0,0,3,,,,,,,,,2,,,58,0
22470,note_on,0,0,3,,,,,,,,,2,,,46,36
22470,control_change,0,0,3,,,,,,,,,2,64,127,,
22470,note_on,120,0,3,,,,,,,,,2,,,62,0
22560,note_on,0,0,1,,,,,,,,,0,,,77,49
22560,note_on,0,0,1,,,,,,,,,0,,,70,49
22560,note_on,0,0,1,,,,,,,,,0,,,74,49
22560,note_on,0,0,1,,,,,,,,,0,,,74,0
22560,note_on,90,0,1,,,,,,,,,0,,,77,0
22560,note_on,0,0,1,,,,,,,,,0,,,70,0
22590,note_on,0,0,1,,,,,,,,,0,,,77,49
22590,note_on,0,0,1,,,,,,,,,0,,,74,49
22590,note_on,0,0,1,,,,,,,,,0,,,70,49
22590,note_on,0,0,1,,,,,,,,,0,,,70,0
22590,note_on,0,0,1,,,,,,,,,0,,,74,0
22590,note_on,30,0,1,,,,,,,,,0,,,77,0
22590,note_on,0,0,3,,,,,,,,,2,,,53,36
22590,note_on,120,0,3,,,,,,,,,2,,,46,0
22680,note_on,0,0,1,,,,,,,,,0,,,74,49
22680,note_on,0,0,1,,,,,,,,,0,,,70,49
22680,note_on,0,0,1,,,,,,,,,0,,,70,0
22680,note_on,0,0,1,,,,,,,,,0,,,74,0
22680,note_on,90,0,1,,,,,,,,,0,,,77,0
22680,note_on,0,0,1,,,,,,,,,0,,,77,49
22710,note_on,30,0,1,,,,,,,,,0,,,77,0
22710,note_on,0,0,1,,,,,,,,,0,,,70,0
22710,note_on,0,0,3,,,,,,,,,2,,,62,36
22710,note_on,0,0,3,,,,,,,,,2,,,58,36
22710,control_change,0,0,3,,,,,,,,,2,64,0,,
22710,note_on,120,0,3,,,,,,,,,2,,,53,0
22710,note_on,0,0,1,,,,,,,,,0,,,74,0
22710,note_on,0,0,1,,,,,,,,,0,,,79,49
22710,note_on,0,0,1,,,,,,,,,0,,,75,49
22710,note_on,0,0,1,,,,,,,,,0,,,70,49
22800,note_on,0,0,1,,,,,,,,,0,,,70,0
22800,note_on,0,0,1,,,,,,,,,0,,,70,49
22800,note_on,0,0,1,,,,,,,,,0,,,74,49
22800,control_change,0,0,1,,,,,,,,,0,64,0,,
22800,note_on,90,0,1,,,,,,,,,0,,,79,0
22800,note_on,0,0,1,,,,,,,,,0,,,75,0
22800,note_on,0,0,1,,,,,,,,,0,,,77,49
22830,note_on,0,0,3,,,,,,,,,2,,,41,36
22830,note_on,120,0,3,,,,,,,,,2,,,62,0
22830,note_on,0,0,3,,,,,,,,,2,,,58,0
22830,control_change,0,0,3,,,,,,,,,2,64,127,,
22830,note_on,0,0,1,,,,,,,,,0,,,69,49
22830,note_on,30,0,1,,,,,,,,,0,,,77,0
22830,note_on,0,0,1,,,,,,,,,0,,,74,0
22830,note_on,0,0,1,,,,,,,,,0,,,70,0
22830,note_on,0,0,1,,,,,,,,,0,,,74,49
22830,note_on,0,0,1,,,,,,,,,0,,,77,49
22830,control_change,0,0,1,,,,,,,,,0,64,127,,
22950,note_on,120,0,3,,,,,,,,,2,,,41,0
22950,note_on,0,0,3,,,,,,,,,2,,,48,36
23070,note_on,0,0,1,,,,,,,,,0,,,72,49
23070,note_on,240,0,1,,,,,,,,,0,,,77,0
23070,note_on,0,0,1,,,,,,,,,0,,,74,0
23070,note_on,120,0,3,,,,,,,,,2,,,48,0
23070,control_change,0,0,3,,,,,,,,,2,64,0,,
23070,note_on,0,0,3,,,,,,,,,2,,,60,36
23070,note_on,0,0,3,,,,,,,,,2,,,63,36
23070,control_change,0,0,1,,,,,,,,,0,64,0,,
23070,note_on,0,0,1,,,,,,,,,0,,,69,0
23070,note_on,0,0,1,,,,,,,,,0,,,69,49
23070,note_on,0,0,1,,,,,,,,,0,,,75,49
23190,note_on,120,0,3,,,,,,,,,2,,,63,0
23190,note_on,0,0,3,,,,,,,,,2,,,60,0
23190,control_change,0,0,3,,,,,,,,,2,64,127,,
23190,note_on,0,0,3,,,,,,,,,2,,,41,36
23190,control_change,120,0,1,,,,,,,,,0,64,127,,
23280,note_on,0,0,1,,,,,,,,,0,,,72,49
23280,note_on,90,0,1,,,,,,,,,0,,,75,0
23280,note_on,0,0,1,,,,,,,,,0,,,72,0
23280,note_on,0,0,1,,,,,,,,,0,,,69,0
23280,note_on,0,0,1,,,,,,,,,0,,,65,49
23280,note_on,0,0,1,,,,,,,,,0,,,75,49
23310,note_on,120,0,3,,,,,,,,,2,,,41,0
23310,note_on,0,0,1,,,,,,,,,0,,,75,49
23310,note_on,0,0,1,,,,,,,,,0,,,72,49
23310,note_on,0,0,1,,,,,,,,,0,,,65,49
23310,note_on,0,0,3,,,,,,,,,2,,,48,36
23310,note_on,0,0,1,,,,,,,,,0,,,72,0
23310,note_on,30,0,1,,,,,,,,,0,,,75,0
23310,note_on,0,0,1,,,,,,,,,0,,,65,0
23400,note_on,0,0,1,,,,,,,,,0,,,72,49
23400,note_on,0,0,1,,,,,,,,,0,,,65,49
23400,note_on,0,0,1,,,,,,,,,0,,,65,0
23400,note_on,0,0,1,,,,,,,,,0,,,75,49
23400,note_on,90,0,1,,,,,,,,,0,,,75,0
23400,note_on,0,0,1,,,,,,,,,0,,,72,0
23430,note_on,0,0,3,,,,,,,,,2,,,63,36
23430,note_on,0,0,1,,,,,,,,,0,,,74,49
23430,note_on,0,0,1,,,,,,,,,0,,,70,49
23430,note_on,0,0,1,,,,,,,,,0,,,65,0
23430,note_on,0,0,1,,,,,,,,,0,,,72,0
23430,note_on,30,0,1,,,,,,,,,0,,,75,0
23430,note_on,0,0,1,,,,,,,,,0,,,65,49
23430,note_on,120,0,3,,,,,,,,,2,,,48,0
23430,control_change,0,0,3,,,,,,,,,2,64,0,,
23430,note_on,0,0,3,,,,,,,,,2,,,60,36
23520,note_on,0,0,1,,,,,,,,,0,,,70,0
23520,control_change,0,0,1,,,,,,,,,0,64,0,,
23520,note_on,90,0,1,,,,,,,,,0,,,74,0
23520,note_on,0,0,1,,,,,,,,,0,,,72,49
23520,note_on,0,0,1,,,,,,,,,0,,,65,0
23520,note_on,0,0,1,,,,,,,,,0,,,65,49
23520,note_on,0,0,1,,,,,,,,,0,,,69,49
23550,note_on,0,0,1,,,,,,,,,0,,,69,0
23550,note_on,30,0,1,,,,,,,,,0,,,72,0
23550,note_on,0,0,3,,,,,,,,,2,,,46,36
23550,note_on,120,0,3,,,,,,,,,2,,,63,0
23550,note_on,0,0,1,,,,,,,,,0,,,65,0
23550,note_on,0,0,3,,,,,,,,,2,,,60,0
23550,control_change,0,0,3,,,,,,,,,2,64,127,,
23550,note_on,0,0,1,,,,,,,,,0,,,62,49
23550,control_change,0,0,1,,,,,,,,,0,64,127,,
23550,note_on,0,0,1,,,,,,,,,0,,,70,49
23550,note_on,0,0,1,,,,,,,,,0,,,65,49
23610,set_tempo,8700,1,0,,,,,,338983,,,,,,,
23670,note_on,0,0,3,,,,,,,,,2,,,50,36
23670,note_on,120,0,3,,,,,,,,,2,,,46,0
23670,set_tempo,60,1,0,,,,,,344828,,,,,,,
23730,set_tempo,60,1,0,,,,,,350877,,,,,,,
23790,note_on,0,0,3,,,,,,,,,2,,,53,36
23790,note_on,0,0,3,,,,,,,,,2,,,58,36
23790,set_tempo,60,1,0,,,,,,359281,,,,,,,
23790,note_on,120,0,3,,,,,,,,,2,,,50,0
23790,control_change,0,0,1,,,,,,,,,0,64,0,,
23790,control_change,0,0,3,,,,,,,,,2,64,0,,
23790,note_on,240,0,1,,,,,,,,,0,,,70,0
23790,note_on,0,0,1,,,,,,,,,0,,,65,0
23790,note_on,0,0,1,,,,,,,,,0,,,62,0
23790,note_on,0,0,1,,,,,,,,,0,,,62,49
23790,note_on,0,0,1,,,,,,,,,0,,,70,49
23790,note_on,0,0,1,,,,,,,,,0,,,65,49
23850,set_tempo,60,1,0,,,,,,365854,,,,,,,
23910,note_on,120,0,3,,,,,,,,,2,,,58,0
23910,note_on,0,0,3,,,,,,,,,2,,,53,0
23910,control_change,0,0,3,,,,,,,,,2,64,127,,
23910,note_on,0,0,3,,,,,,,,,2,,,41,36
23910,control_change,120,0,1,,,,,,,,,0,64,127,,
23910,set_tempo,60,1,0,,,,,,372671,,,,,,,
23970,set_tempo,60,1,0,,,,,,379747,,,,,,,
24000,note_on,0,0,1,,,,,,,,,0,,,65,0
24000,note_on,0,0,1,,,,,,,,,0,,,75,49
24000,note_on,0,0,1,,,,,,,,,0,,,72,49
24000,note_on,0,0,1,,,,,,,,,0,,,65,49
24000,note_on,0,0,1,,,,,,,,,0,,,62,0
24000,note_on,90,0,1,,,,,,,,,0,,,70,0
24030,note_on,0,0,1,,,,,,,,,0,,,75,49
24030,note_on,0,0,1,,,,,,,,,0,,,72,49
24030,note_on,0,0,1,,,,,,,,,0,,,65,0
24030,note_on,0,0,1,,,,,,,,,0,,,72,0
24030,note_on,30,0,1,,,,,,,,,0,,,75,0
24030,note_on,0,0,1,,,,,,,,,0,,,65,49
24030,note_on,0,0,3,,,,,,,,,2,,,51,36
24030,set_tempo,60,1,0,,,,,,389610,,,,,,,
24030,note_on,120,0,3,,,,,,,,,2,,,41,0
24120,note_on,0,0,1,,,,,,,,,0,,,75,49
24120,note_on,0,0,1,,,,,,,,,0,,,72,49
24120,note_on,0,0,1,,,,,,,,,0,,,65,49
24120,note_on,0,0,1,,,,,,,,,0,,,65,0
24120,note_on,0,0,1,,,,,,,,,0,,,72,0
24120,note_on,90,0,1,,,,,,,,,0,,,75,0
24150,note_on,0,0,1,,,,,,,,,0,,,70,49
24150,note_on,0,0,1,,,,,,,,,0,,,65,0
24150,note_on,0,0,1,,,,,,,,,0,,,72,0
24150,note_on,30,0,1,,,,,,,,,0,,,75,0
24150,note_on,0,0,1,,,,,,,,,0,,,74,49
24150,note_on,0,0,1,,,,,,,,,0,,,65,49
24150,note_on,120,0,3,,,,,,,,,2,,,51,0
24150,control_change,0,0,3,,,,,,,,,2,64,0,,
24150,note_on,0,0,3,,,,,,,,,2,,,53,36
24150,note_on,0,0,3,,,,,,,,,2,,,57,36
24240,note_on,90,0,1,,,,,,,,,0,,,74,0
24240,control_change,0,0,1,,,,,,,,,0,64,0,,
24240,note_on,0,0,1,,,,,,,,,0,,,72,49
24240,note_on,0,0,1,,,,,,,,,0,,,69,49
24240,note_on,0,0,1,,,,,,,,,0,,,65,49
24240,note_on,0,0,1,,,,,,,,,0,,,70,0
24240,note_on,0,0,1,,,,,,,,,0,,,65,0
24270,note_on,0,0,1,,,,,,,,,0,,,62,49
24270,note_on,0,0,1,,,,,,,,,0,,,65,0
24270,note_on,0,0,1,,,,,,,,,0,,,69,0
24270,note_on,30,0,1,,,,,,,,,0,,,72,0
24270,note_on,0,0,1,,,,,,,,,0,,,70,49
24270,note_on,0,0,3,,,,,,,,,2,,,46,36
24270,control_change,0,0,3,,,,,,,,,2,64,127,,
24270,note_on,0,0,3,,,,,,,,,2,,,53,0
24270,note_on,120,0,3,,,,,,,,,2,,,57,0
24270,note_on,0,0,1,,,,,,,,,0,,,65,49
24270,control_change,0,0,1,,,,,,,,,0,64,127,,
24390,note_on,0,0,3,,,,,,,,,2,,,50,36
24390,note_on,120,0,3,,,,,,,,,2,,,46,0
24510,note_on,120,0,3,,,,,,,,,2,,,50,0
24510,note_on,0,0,3,,,,,,,,,2,,,58,36
24510,note_on,240,0,1,,,,,,,,,0,,,70,0
24510,note_on,0,0,3,,,,,,,,,2,,,53,36
24510,control_change,0,0,1,,,,,,,,,0,64,0,,
24510,control_change,0,0,3,,,,,,,,,2,64,0,,
24510,note_on,0,0,1,,,,,,,,,0,,,70,49
24510,note_on,0,0,1,,,,,,,,,0,,,62,49
24510,note_on,0,0,1,,,,,,,,,0,,,62,0
24510,note_on,0,0,1,,,,,,,,,0,,,65,0
24510,note_on,0,0,1,,,,,,,,,0,,,65,49
24630,control_change,120,0,1,,,,,,,,,0,64,127,,
24630,note_on,120,0,3,,,,,,,,,2,,,58,0
24630,note_on,0,0,3,,,,,,,,,2,,,53,0
24630,control_change,0,0,3,,,,,,,,,2,64,127,,
24630,note_on,0,0,3,,,,,,,,,2,,,41,36
24720,note_on,0,0,1,,,,,,,,,0,,,72,49
24720,note_on,0,0,1,,,,,,,,,0,,,65,49
24720,note_on,0,0,1,,,,,,,,,0,,,62,0
24720,note_on,0,0,1,,,,,,,,,0,,,65,0
24720,note_on,90,0,1,,,,,,,,,0,,,70,0
24720,note_on,0,0,1,,,,,,,,,0,,,75,49
24750,note_on,0,0,1,,,,,,,,,0,,,65,0
24750,note_on,0,0,1,,,,,,,,,0,,,65,49
24750,note_on,0,0,1,,,,,,,,,0,,,72,49
24750,note_on,0,0,1,,,,,,,,,0,,,75,49
24750,note_on,0,0,1,,,,,,,,,0,,,72,0
24750,note_on,30,0,1,,,,,,,,,0,,,75,0
24750,note_on,0,0,3,,,,,,,,,2,,,51,36
24750,note_on,120,0,3,,,,,,,,,2,,,41,0
24840,note_on,90,0,1,,,,,,,,,0,,,75,0
24840,note_on,0,0,1,,,,,,,,,0,,,75,49
24840,note_on,0,0,1,,,,,,,,,0,,,72,49
24840,note_on,0,0,1,,,,,,,,,0,,,65,49
24840,note_on,0,0,1,,,,,,,,,0,,,65,0
24840,note_on,0,0,1,,,,,,,,,0,,,72,0
24870,note_on,0,0,1,,,,,,,,,0,,,65,49
24870,note_on,0,0,1,,,,,,,,,0,,,65,0
24870,note_on,0,0,1,,,,,,,,,0,,,72,0
24870,note_on,30,0,1,,,,,,,,,0,,,75,0
24870,note_on,120,0,3,,,,,,,,,2,,,51,0
24870,control_change,0,0,3,,,,,,,,,2,64,0,,
24870,note_on,0,0,3,,,,,,,,,2,,,53,36
24870,note_on,0,0,3,,,,,,,,,2,,,57,36
24870,note_on,0,0,1,,,,,,,,,0,,,70,49
24870,note_on,0,0,1,,,,,,,,,0,,,74,49
24960,note_on,0,0,1,,,,,,,,,0,,,65,0
24960,note_on,0,0,1,,,,,,,,,0,,,70,0
24960,note_on,0,0,1,,,,,,,,,0,,,69,49
24960,note_on,0,0,1,,,,,,,,,0,,,72,49
24960,control_change,0,0,1,,,,,,,,,0,64,0,,
24960,note_on,0,0,1,,,,,,,,,0,,,65,49
24960,note_on,90,0,1,,,,,,,,,0,,,74,0
24990,note_on,0,0,1,,,,,,,,,0,,,70,49
24990,note_on,120,0,3,,,,,,,,,2,,,57,0
24990,note_on,0,0,3,,,,,,,,,2,,,53,0
24990,control_change,0,0,3,,,,,,,,,2,64,127,,
24990,note_on,0,0,3,,,,,,,,,2,,,46,36
24990,note_on,30,0,1,,,,,,,,,0,,,72,0
24990,note_on,0,0,1,,,,,,,,,0,,,69,0
24990,note_on,0,0,1,,,,,,,,,0,,,65,0
24990,note_on,0,0,1,,,,,,,,,0,,,62,49
24990,note_on,0,0,1,,,,,,,,,0,,,65,49
24990,control_change,0,0,1,,,,,,,,,0,64,127,,
24990,set_tempo,960,1,0,,,,,,333333,,,,,,,
25080,note_on,0,0,3,,,,,,,,,2,,,34,75
25080,control_change,9750,0,2,,,,,,,,,1,64,127,,
25080,note_on,0,0,2,,,,,,,,,1,,,46,88
25080,note_on,0,0,1,,,,,,,,,0,,,62,0
25080,note_on,0,0,1,,,,,,,,,0,,,65,0
25080,note_on,90,0,1,,,,,,,,,0,,,70,0
25080,note_on,90,0,3,,,,,,,,,2,,,46,0
25110,note_on,0,0,3,,,,,,,,,2,,,34,101
25110,note_on,30,0,3,,,,,,,,,2,,,34,0
25110,note_on,0,0,2,,,,,,,,,1,,,46,114
25110,note_on,30,0,2,,,,,,,,,1,,,46,0
25200,note_on,0,0,2,,,,,,,,,1,,,46,88
25200,note_on,90,0,3,,,,,,,,,2,,,34,0
25200,note_on,90,0,2,,,,,,,,,1,,,46,0
25200,note_on,0,0,3,,,,,,,,,2,,,34,75
25230,note_on,30,0,2,,,,,,,,,1,,,46,0
25230,note_on,30,0,3,,,,,,,,,2,,,34,0
25230,note_on,0,0,3,,,,,,,,,2,,,34,75
25230,note_on,0,0,2,,,,,,,,,1,,,46,88
25320,control_change,0,0,3,,,,,,,,,2,64,0,,
25320,control_change,0,0,2,,,,,,,,,1,64,0,,
25320,note_on,90,0,2,,,,,,,,,1,,,46,0
25320,note_on,0,0,2,,,,,,,,,1,,,48,88
25320,note_on,0,0,3,,,,,,,,,2,,,36,75
25320,note_on,90,0,3,,,,,,,,,2,,,34,0
25350,note_on,0,0,2,,,,,,,,,1,,,50,88
25350,control_change,0,0,3,,,,,,,,,2,64,127,,
25350,note_on,30,0,2,,,,,,,,,1,,,48,0
25350,note_on,0,0,3,,,,,,,,,2,,,38,75
25350,note_on,30,0,3,,,,,,,,,2,,,36,0
25350,control_change,0,0,2,,,,,,,,,1,64,127,,
25440,note_on,0,0,3,,,,,,,,,2,,,38,75
25440,note_on,90,0,3,,,,,,,,,2,,,38,0
25440,note_on,90,0,2,,,,,,,,,1,,,50,0
25440,note_on,0,0,2,,,,,,,,,1,,,50,88
25440,note_on,0,0,2,,,,,,,,,1,,,62,88
25470,note_on,0,0,3,,,,,,,,,2,,,38,101
25470,note_on,0,0,2,,,,,,,,,1,,,62,114
25470,note_on,30,0,3,,,,,,,,,2,,,38,0
25470,note_on,30,0,2,,,,,,,,,1,,,62,0
25470,note_on,0,0,2,,,,,,,,,1,,,50,0
25470,note_on,0,0,2,,,,,,,,,1,,,50,106
25560,note_on,90,0,2,,,,,,,,,1,,,62,0
25560,note_on,0,0,2,,,,,,,,,1,,,50,88
25560,note_on,0,0,2,,,,,,,,,1,,,62,88
25560,note_on,0,0,3,,,,,,,,,2,,,38,75
25560,note_on,90,0,3,,,,,,,,,2,,,38,0
25560,note_on,0,0,2,,,,,,,,,1,,,50,0
25590,note_on,30,0,2,,,,,,,,,1,,,62,0
25590,note_on,0,0,2,,,,,,,,,1,,,50,0
25590,note_on,0,0,2,,,,,,,,,1,,,50,88
25590,note_on,0,0,2,,,,,,,,,1,,,62,88
25590,note_on,30,0,3,,,,,,,,,2,,,38,0
25590,note_on,0,0,3,,,,,,,,,2,,,38,75
25680,note_on,0,0,3,,,,,,,,,2,,,40,75
25680,control_change,0,0,3,,,,,,,,,2,64,0,,
25680,note_on,90,0,3,,,,,,,,,2,,,38,0
25680,note_on,0,0,2,,,,,,,,,1,,,52,88
25680,control_change,0,0,2,,,,,,,,,1,64,0,,
25680,note_on,0,0,2,,,,,,,,,1,,,50,0
25680,note_on,0,0,2,,,,,,,,,1,,,64,88
25680,note_on,90,0,2,,,,,,,,,1,,,62,0
25710,note_on,30,0,3,,,,,,,,,2,,,40,0
25710,control_change,0,0,3,,,,,,,,,2,64,127,,
25710,note_on,0,0,3,,,,,,,,,2,,,41,75
25710,control_change,0,0,2,,,,,,,,,1,64,127,,
25710,note_on,30,0,2,,,,,,,,,1,,,64,0
25710,note_on,0,0,2,,,,,,,,,1,,,53,88
25710,note_on,0,0,2,,,,,,,,,1,,,65,88
25710,note_on,0,0,2,,,,,,,,,1,,,52,0
25800,note_on,90,0,2,,,,,,,,,1,,,65,0
25800,note_on,0,0,3,,,,,,,,,2,,,41,75
25800,note_on,90,0,3,,,,,,,,,2,,,41,0
25800,note_on,0,0,2,,,,,,,,,1,,,53,0
25800,note_on,0,0,2,,,,,,,,,1,,,53,88
25830,note_on,30,0,3,,,,,,,,,2,,,41,0
25830,note_on,30,0,2,,,,,,,,,1,,,53,0
25830,note_on,0,0,2,,,,,,,,,1,,,53,114
25830,note_on,0,0,3,,,,,,,,,2,,,41,101
25920,note_on,90,0,3,,,,,,,,,2,,,41,0
25920,note_on,0,0,3,,,,,,,,,2,,,41,88
25920,note_on,0,0,2,,,,,,,,,1,,,53,101
25920,note_on,90,0,2,,,,,,,,,1,,,53,0
25950,note_on,0,0,2,,,,,,,,,1,,,53,101
25950,note_on,0,0,3,,,,,,,,,2,,,41,88
25950,note_on,30,0,3,,,,,,,,,2,,,41,0
25950,note_on,30,0,2,,,,,,,,,1,,,53,0
26040,note_on,90,0,2,,,,,,,,,1,,,53,0
26040,control_change,0,0,2,,,,,,,,,1,64,0,,
26040,note_on,0,0,2,,,,,,,,,1,,,55,101
26040,note_on,0,0,3,,,,,,,,,2,,,43,88
26040,control_change,0,0,3,,,,,,,,,2,64,0,,
26040,note_on,90,0,3,,,,,,,,,2,,,41,0
26070,control_change,0,0,3,,,,,,,,,2,64,127,,
26070,note_on,0,0,1,,,,,,,,,0,,,57,101
26070,note_on,30,0,3,,,,,,,,,2,,,43,0
26070,note_on,0,0,3,,,,,,,,,2,,,45,88
26070,note_on,30,0,2,,,,,,,,,1,,,55,0
26070,control_change,990,0,1,,,,,,,,,0,64,127,,
26160,note_on,0,0,3,,,,,,,,,2,,,45,88
26160,note_on,90,0,1,,,,,,,,,0,,,57,0
26160,note_on,0,0,1,,,,,,,,,0,,,57,101
26160,note_on,0,0,1,,,,,,,,,0,,,69,101
26160,note_on,90,0,3,,,,,,,,,2,,,45,0
26160,note_on,0,0,3,,,,,,,,,2,,,33,88
26190,note_on,0,0,3,,,,,,,,,2,,,33,0
26190,note_on,30,0,3,,,,,,,,,2,,,45,0
26190,note_on,0,0,3,,,,,,,,,2,,,33,106
26190,note_on,0,0,1,,,,,,,,,0,,,57,119
26190,note_on,0,0,1,,,,,,,,,0,,,57,0
26190,note_on,0,0,1,,,,,,,,,0,,,69,127
26190,note_on,0,0,3,,,,,,,,,2,,,45,114
26190,note_on,30,0,1,,,,,,,,,0,,,69,0
26280,note_on,0,0,3,,,,,,,,,2,,,33,0
26280,note_on,90,0,1,,,,,,,,,0,,,69,0
26280,note_on,0,0,1,,,,,,,,,0,,,57,0
26280,note_on,0,0,1,,,,,,,,,0,,,59,101
26280,note_on,0,0,1,,,,,,,,,0,,,71,101
26280,note_on,0,0,3,,,,,,,,,2,,,35,88
26280,note_on,0,0,3,,,,,,,,,2,,,47,88
26280,note_on,90,0,3,,,,,,,,,2,,,45,0
26310,note_on,0,0,3,,,,,,,,,2,,,49,88
26310,note_on,0,0,3,,,,,,,,,2,,,37,88
26310,note_on,0,0,1,,,,,,,,,0,,,73,101
26310,note_on,0,0,1,,,,,,,,,0,,,61,101
26310,note_on,0,0,1,,,,,,,,,0,,,59,0
26310,note_on,30,0,1,,,,,,,,,0,,,71,0
26310,note_on,30,0,3,,,,,,,,,2,,,47,0
26310,note_on,0,0,3,,,,,,,,,2,,,35,0
26400,note_on,90,0,1,,,,,,,,,0,,,73,0
26400,note_on,90,0,3,,,,,,,,,2,,,49,0
26400,note_on,0,0,3,,,,,,,,,2,,,50,88
26400,note_on,0,0,3,,,,,,,,,2,,,38,88
26400,control_change,0,0,3,,,,,,,,,2,64,0,,
26400,note_on,0,0,3,,,,,,,,,2,,,37,0
26400,control_change,0,0,1,,,,,,,,,0,64,0,,
26400,note_on,0,0,1,,,,,,,,,0,,,61,0
26400,note_on,0,0,1,,,,,,,,,0,,,62,101
26400,note_on,0,0,1,,,,,,,,,0,,,74,101
26430,note_on,0,0,1,,,,,,,,,0,,,69,114
26430,note_on,0,0,1,,,,,,,,,0,,,64,114
26430,note_on,0,0,1,,,,,,,,,0,,,62,0
26430,note_on,30,0,1,,,,,,,,,0,,,74,0
26430,note_on,0,0,3,,,,,,,,,2,,,49,101
26430,note_on,0,0,1,,,,,,,,,0,,,73,114
26430,note_on,30,0,3,,,,,,,,,2,,,50,0
26430,note_on,0,0,3,,,,,,,,,2,,,38,0
26430,note_on,0,0,3,,,,,,,,,2,,,40,101
26430,note_on,0,0,3,,,,,,,,,2,,,52,101
26430,note_on,0,0,3,,,,,,,,,2,,,45,101
26430,note_on,0,0,1,,,,,,,,,0,,,76,114
26670,note_on,0,0,1,,,,,,,,,0,,,69,114
26670,note_on,0,0,1,,,,,,,,,0,,,64,0
26670,note_on,240,0,3,,,,,,,,,2,,,52,0
26670,note_on,0,0,3,,,,,,,,,2,,,40,0
26670,note_on,0,0,3,,,,,,,,,2,,,45,0
26670,note_on,0,0,3,,,,,,,,,2,,,49,0
26670,note_on,0,0,3,,,,,,,,,2,,,40,101
26670,note_on,0,0,3,,,,,,,,,2,,,45,101
26670,note_on,0,0,3,,,,,,,,,2,,,49,101
26670,note_on,240,0,1,,,,,,,,,0,,,76,0
26670,note_on,0,0,3,,,,,,,,,2,,,52,101
26670,note_on,0,0,1,,,,,,,,,0,,,76,114
26670,note_on,0,0,1,,,,,,,,,0,,,73,114
26670,note_on,0,0,1,,,,,,,,,0,,,64,114
26670,note_on,0,0,1,,,,,,,,,0,,,73,0
26670,note_on,0,0,1,,,,,,,,,0,,,69,0
26880,note_on,0,0,1,,,,,,,,,0,,,69,0
26880,note_on,0,0,1,,,,,,,,,0,,,64,0
26880,note_on,0,0,1,,,,,,,,,0,,,68,114
26880,note_on,0,0,1,,,,,,,,,0,,,76,114
26880,note_on,0,0,1,,,,,,,,,0,,,73,0
26880,note_on,210,0,1,,,,,,,,,0,,,76,0
26880,note_on,0,0,1,,,,,,,,,0,,,74,114
26880,note_on,210,0,3,,,,,,,,,2,,,52,0
26880,note_on,0,0,3,,,,,,,,,2,,,40,0
26880,note_on,0,0,3,,,,,,,,,2,,,45,0
26880,note_on,0,0,3,,,,,,,,,2,,,49,0
26880,note_on,0,0,3,,,,,,,,,2,,,40,101
26880,note_on,0,0,3,,,,,,,,,2,,,52,101
26910,note_on,0,0,1,,,,,,,,,0,,,68,0
26910,note_on,0,0,1,,,,,,,,,0,,,76,114
26910,note_on,0,0,1,,,,,,,,,0,,,74,114
26910,note_on,0,0,1,,,,,,,,,0,,,68,114
26910,note_on,0,0,3,,,,,,,,,2,,,40,0
26910,note_on,0,0,1,,,,,,,,,0,,,74,0
26910,note_on,30,0,1,,,,,,,,,0,,,76,0
26910,note_on,0,0,3,,,,,,,,,2,,,52,101
26910,note_on,30,0,3,,,,,,,,,2,,,52,0
26910,note_on,0,0,3,,,,,,,,,2,,,40,101
27000,note_on,0,0,1,,,,,,,,,0,,,68,114
27000,note_on,90,0,3,,,,,,,,,2,,,52,0
27000,note_on,0,0,3,,,,,,,,,2,,,40,0
27000,note_on,0,0,3,,,,,,,,,2,,,38,101
27000,note_on,0,0,3,,,,,,,,,2,,,50,101
27000,note_on,90,0,1,,,,,,,,,0,,,76,0
27000,note_on,0,0,1,,,,,,,,,0,,,74,0
27000,note_on,0,0,1,,,,,,,,,0,,,68,0
27000,note_on,0,0,1,,,,,,,,,0,,,76,114
27000,note_on,0,0,1,,,,,,,,,0,,,74,114
27030,note_on,0,0,1,,,,,,,,,0,,,74,0
27030,note_on,0,0,3,,,,,,,,,2,,,37,101
27030,note_on,0,0,3,,,,,,,,,2,,,49,101
27030,note_on,30,0,1,,,,,,,,,0,,,76,0
27030,note_on,0,0,1,,,,,,,,,0,,,78,114
27030,note_on,30,0,3,,,,,,,,,2,,,50,0
27030,note_on,0,0,3,,,,,,,,,2,,,38,0
27030,note_on,0,0,1,,,,,,,,,0,,,68,0
27030,note_on,0,0,1,,,,,,,,,0,,,68,114
27030,note_on,0,0,1,,,,,,,,,0,,,74,114
27120,note_on,90,0,1,,,,,,,,,0,,,78,0
27120,note_on,0,0,1,,,,,,,,,0,,,74,0
27120,note_on,0,0,1,,,,,,,,,0,,,68,0
27120,note_on,0,0,1,,,,,,,,,0,,,68,114
27120,note_on,0,0,1,,,,,,,,,0,,,74,114
27120,note_on,0,0,1,,,,,,,,,0,,,80,114
27120,note_on,90,0,3,,,,,,,,,2,,,49,0
27120,note_on,0,0,3,,,,,,,,,2,,,37,0
27120,note_on,0,0,3,,,,,,,,,2,,,35,101
27120,note_on,0,0,3,,,,,,,,,2,,,47,101
27150,note_on,30,0,3,,,,,,,,,2,,,47,0
27150,note_on,0,0,1,,,,,,,,,0,,,81,114
27150,note_on,0,0,3,,,,,,,,,2,,,33,101
27150,note_on,0,0,3,,,,,,,,,2,,,45,101
27150,note_on,0,0,1,,,,,,,,,0,,,73,114
27150,note_on,0,0,1,,,,,,,,,0,,,69,114
27150,note_on,0,0,1,,,,,,,,,0,,,74,0
27150,note_on,30,0,1,,,,,,,,,0,,,80,0
27150,note_on,0,0,3,,,,,,,,,2,,,35,0
27150,note_on,0,0,1,,,,,,,,,0,,,68,0
27390,note_on,0,0,1,,,,,,,,,0,,,69,0
27390,note_on,0,0,3,,,,,,,,,2,,,33,0
27390,note_on,0,0,3,,,,,,,,,2,,,33,101
27390,note_on,0,0,3,,,,,,,,,2,,,40,101
27390,note_on,0,0,3,,,,,,,,,2,,,45,101
27390,note_on,240,0,1,,,,,,,,,0,,,81,0
27390,note_on,0,0,1,,,,,,,,,0,,,73,0
27390,note_on,0,0,1,,,,,,,,,0,,,69,114
27390,note_on,0,0,1,,,,,,,,,0,,,73,114
27390,note_on,0,0,1,,,,,,,,,0,,,81,114
27390,note_on,240,0,3,,,,,,,,,2,,,45,0
27600,note_on,0,0,1,,,,,,,,,0,,,61,49
27600,note_on,0,0,1,,,,,,,,,0,,,69,0
27600,note_on,0,0,1,,,,,,,,,0,,,57,49
27600,note_on,210,0,1,,,,,,,,,0,,,81,0
27600,note_on,0,0,1,,,,,,,,,0,,,55,49
27600,note_on,0,0,1,,,,,,,,,0,,,73,0
27600,note_on,210,0,3,,,,,,,,,2,,,45,0
27600,note_on,0,0,3,,,,,,,,,2,,,40,0
27600,note_on,0,0,3,,,,,,,,,2,,,33,0
27600,note_on,0,0,3,,,,,,,,,2,,,45,36
27604,note_on,0,0,1,,,,,,,,,0,,,57,0
27604,note_on,4,0,1,,,,,,,,,0,,,61,0
27604,note_on,4,0,3,,,,,,,,,2,,,45,0
27604,note_on,0,0,1,,,,,,,,,0,,,55,0
27630,note_on,26,0,1,,,,,,,,,0,,,55,49
27630,note_on,26,0,3,,,,,,,,,2,,,47,36
27630,note_on,0,0,1,,,,,,,,,0,,,57,49
27630,note_on,0,0,1,,,,,,,,,0,,,62,49
27639,note_on,9,0,3,,,,,,,,,2,,,47,0
27639,note_on,0,0,1,,,,,,,,,0,,,57,0
27639,note_on,0,0,1,,,,,,,,,0,,,55,0
27639,note_on,9,0,1,,,,,,,,,0,,,62,0
27720,note_on,81,0,1,,,,,,,,,0,,,55,49
27720,note_on,0,0,1,,,,,,,,,0,,,61,49
27720,note_on,0,0,1,,,,,,,,,0,,,57,49
27720,note_on,81,0,3,,,,,,,,,2,,,45,36
27724,note_on,4,0,1,,,,,,,,,0,,,61,0
27724,note_on,0,0,1,,,,,,,,,0,,,57,0
27724,note_on,0,0,1,,,,,,,,,0,,,55,0
27724,note_on,4,0,3,,,,,,,,,2,,,45,0
27750,note_on,26,0,1,,,,,,,,,0,,,55,49
27750,note_on,0,0,1,,,,,,,,,0,,,62,49
27750,note_on,0,0,1,,,,,,,,,0,,,57,49
27750,note_on,26,0,3,,,,,,,,,2,,,47,36
27759,note_on,0,0,1,,,,,,,,,0,,,55,0
27759,note_on,9,0,3,,,,,,,,,2,,,47,0
27759,note_on,9,0,1,,,,,,,,,0,,,62,0
27759,note_on,0,0,1,,,,,,,,,0,,,57,0
27840,note_on,0,0,1,,,,,,,,,0,,,64,49
27840,note_on,0,0,1,,,,,,,,,0,,,57,49
27840,note_on,81,0,3,,,,,,,,,2,,,49,36
27840,note_on,81,0,1,,,,,,,,,0,,,55,49
27844,note_on,4,0,3,,,,,,,,,2,,,49,0
27844,note_on,0,0,1,,,,,,,,,0,,,57,0
27844,note_on,4,0,1,,,,,,,,,0,,,64,0
27844,note_on,0,0,1,,,,,,,,,0,,,55,0
27870,note_on,26,0,3,,,,,,,,,2,,,50,62
27870,note_on,0,0,1,,,,,,,,,0,,,57,75
27870,note_on,26,0,1,,,,,,,,,0,,,54,67
28110,note_on,0,0,1,,,,,,,,,0,,,54,0
28110,note_on,0,0,1,,,,,,,,,0,,,57,49
28110,note_on,0,0,1,,,,,,,,,0,,,66,49
28110,note_on,240,0,1,,,,,,,,,0,,,57,0
28110,note_on,0,0,3,,,,,,,,,2,,,50,36
28110,note_on,0,0,3,,,,,,,,,2,,,54,36
28110,note_on,240,0,3,,,,,,,,,2,,,50,0
28320,note_on,0,0,1,,,,,,,,,0,,,57,49
28320,note_on,0,0,1,,,,,,,,,0,,,57,0
28320,note_on,210,0,1,,,,,,,,,0,,,66,0
28320,note_on,0,0,1,,,,,,,,,0,,,66,49
28320,note_on,0,0,3,,,,,,,,,2,,,50,36
28320,note_on,210,0,3,,,,,,,,,2,,,54,0
28320,note_on,0,0,3,,,,,,,,,2,,,50,0
28324,note_on,4,0,1,,,,,,,,,0,,,66,0
28324,note_on,4,0,3,,,,,,,,,2,,,50,0
28324,note_on,0,0,1,,,,,,,,,0,,,57,0
28350,note_on,0,0,1,,,,,,,,,0,,,67,49
28350,note_on,26,0,1,,,,,,,,,0,,,55,49
28350,note_on,26,0,3,,,,,,,,,2,,,47,36
28350,note_on,0,0,3,,,,,,,,,2,,,50,36
28359,note_on,9,0,1,,,,,,,,,0,,,67,0
28359,note_on,9,0,3,,,,,,,,,2,,,50,0
28359,note_on,0,0,3,,,,,,,,,2,,,47,0
28359,note_on,0,0,1,,,,,,,,,0,,,55,0
28440,note_on,0,0,1,,,,,,,,,0,,,66,49
28440,note_on,81,0,1,,,,,,,,,0,,,55,49
28440,note_on,0,0,3,,,,,,,,,2,,,50,36
28440,note_on,81,0,3,,,,,,,,,2,,,47,36
28444,note_on,0,0,1,,,,,,,,,0,,,55,0
28444,note_on,0,0,3,,,,,,,,,2,,,47,0
28444,note_on,4,0,3,,,,,,,,,2,,,50,0
28444,note_on,4,0,1,,,,,,,,,0,,,66,0
28470,note_on,0,0,1,,,,,,,,,0,,,64,49
28470,note_on,0,0,3,,,,,,,,,2,,,50,36
28470,note_on,26,0,1,,,,,,,,,0,,,56,49
28470,note_on,26,0,3,,,,,,,,,2,,,46,36
28479,note_on,0,0,3,,,,,,,,,2,,,46,0
28479,note_on,0,0,1,,,,,,,,,0,,,56,0
28479,note_on,9,0,3,,,,,,,,,2,,,50,0
28479,note_on,9,0,1,,,,,,,,,0,,,64,0
28560,note_on,0,0,3,,,,,,,,,2,,,50,36
28560,note_on,0,0,1,,,,,,,,,0,,,62,49
28560,note_on,81,0,1,,,,,,,,,0,,,56,49
28560,note_on,81,0,3,,,,,,,,,2,,,46,36
28564,note_on,4,0,3,,,,,,,,,2,,,50,0
28564,note_on,0,0,3,,,,,,,,,2,,,46,0
28564,note_on,0,0,1,,,,,,,,,0,,,56,0
28564,note_on,4,0,1,,,,,,,,,0,,,62,0
28590,note_on,0,0,1,,,,,,,,,0,,,69,75
28590,note_on,0,0,1,,,,,,,,,0,,,61,70
28590,note_on,26,0,3,,,,,,,,,2,,,45,54
28590,note_on,26,0,1,,,,,,,,,0,,,57,65
28590,note_on,0,0,3,,,,,,,,,2,,,52,62
28830,note_on,0,0,3,,,,,,,,,2,,,45,0
28830,note_on,240,0,3,,,,,,,,,2,,,52,0
28830,note_on,240,0,1,,,,,,,,,0,,,69,0
28830,note_on,0,0,1,,,,,,,,,0,,,61,0
28830,note_on,0,0,1,,,,,,,,,0,,,57,0
28830,note_on,0,0,1,,,,,,,,,0,,,61,67
28830,note_on,0,0,1,,,,,,,,,0,,,64,75
28830,note_on,0,0,3,,,,,,,,,2,,,57,62
28830,note_on,0,0,3,,,,,,,,,2,,,45,54
29040,note_on,210,0,1,,,,,,,,,0,,,64,0
29040,note_on,0,0,1,,,,,,,,,0,,,61,0
29040,note_on,0,0,1,,,,,,,,,0,,,64,49
29040,note_on,0,0,1,,,,,,,,,0,,,69,49
29040,note_on,210,0,3,,,,,,,,,2,,,57,0
29040,note_on,0,0,3,,,,,,,,,2,,,45,0
29040,note_on,0,0,3,,,,,,,,,2,,,49,36
29040,note_on,0,0,3,,,,,,,,,2,,,57,36
29044,note_on,0,0,1,,,,,,,,,0,,,64,0
29044,note_on,0,0,3,,,,,,,,,2,,,49,0
29044,note_on,4,0,1,,,,,,,,,0,,,69,0
29044,note_on,4,0,3,,,,,,,,,2,,,57,0
29055,note_on,11,0,1,,,,,,,,,0,,,73,49
29059,note_on,4,0,1,,,,,,,,,0,,,73,0
29070,note_on,11,0,1,,,,,,,,,0,,,64,49
29070,note_on,0,0,3,,,,,,,,,2,,,57,36
29070,note_on,0,0,1,,,,,,,,,0,,,71,49
29070,note_on,26,0,3,,,,,,,,,2,,,49,36
29079,note_on,9,0,1,,,,,,,,,0,,,71,0
29079,note_on,9,0,3,,,,,,,,,2,,,57,0
29079,note_on,0,0,1,,,,,,,,,0,,,64,0
29079,note_on,0,0,3,,,,,,,,,2,,,49,0
29160,note_on,0,0,3,,,,,,,,,2,,,57,36
29160,note_on,81,0,3,,,,,,,,,2,,,49,36
29160,note_on,81,0,1,,,,,,,,,0,,,64,49
29160,note_on,0,0,1,,,,,,,,,0,,,69,49
29164,note_on,4,0,1,,,,,,,,,0,,,69,0
29164,note_on,0,0,1,,,,,,,,,0,,,64,0
29164,note_on,0,0,3,,,,,,,,,2,,,49,0
29164,note_on,4,0,3,,,,,,,,,2,,,57,0
29190,note_on,26,0,3,,,,,,,,,2,,,49,36
29190,note_on,0,0,3,,,,,,,,,2,,,57,36
29190,note_on,26,0,1,,,,,,,,,0,,,64,49
29190,note_on,0,0,1,,,,,,,,,0,,,71,49
29199,note_on,9,0,1,,,,,,,,,0,,,71,0
29199,note_on,9,0,3,,,,,,,,,2,,,57,0
29199,note_on,0,0,3,,,,,,,,,2,,,49,0
29199,note_on,0,0,1,,,,,,,,,0,,,64,0
29280,note_on,81,0,3,,,,,,,,,2,,,49,36
29280,note_on,81,0,1,,,,,,,,,0,,,64,49
29280,note_on,0,0,3,,,,,,,,,2,,,57,36
29280,note_on,0,0,1,,,,,,,,,0,,,73,49
29284,note_on,4,0,3,,,,,,,,,2,,,57,0
29284,note_on,0,0,3,,,,,,,,,2,,,49,0
29284,note_on,4,0,1,,,,,,,,,0,,,73,0
29284,note_on,0,0,1,,,,,,,,,0,,,64,0
29310,note_on,0,0,3,,,,,,,,,2,,,54,57
29310,note_on,0,0,1,,,,,,,,,0,,,74,75
29310,note_on,0,0,1,,,,,,,,,0,,,66,70
29310,note_on,26,0,1,,,,,,,,,0,,,62,65
29310,note_on,26,0,3,,,,,,,,,2,,,47,52
29310,note_on,0,0,3,,,,,,,,,2,,,59,62
29550,note_on,0,0,1,,,,,,,,,0,,,62,67
29550,note_on,0,0,1,,,,,,,,,0,,,62,0
29550,note_on,240,0,3,,,,,,,,,2,,,59,0
29550,note_on,0,0,3,,,,,,,,,2,,,47,0
29550,note_on,0,0,3,,,,,,,,,2,,,59,62
29550,note_on,0,0,1,,,,,,,,,0,,,66,0
29550,note_on,240,0,1,,,,,,,,,0,,,74,0
29550,note_on,0,0,1,,,,,,,,,0,,,66,75
29550,note_on,0,0,3,,,,,,,,,2,,,54,0
29550,note_on,0,0,3,,,,,,,,,2,,,50,54
29760,note_on,210,0,1,,,,,,,,,0,,,66,0
29760,note_on,0,0,1,,,,,,,,,0,,,62,49
29760,note_on,0,0,1,,,,,,,,,0,,,66,49
29760,note_on,210,0,3,,,,,,,,,2,,,59,0
29760,note_on,0,0,3,,,,,,,,,2,,,50,0
29760,note_on,0,0,3,,,,,,,,,2,,,50,36
29760,note_on,0,0,3,,,,,,,,,2,,,59,36
29760,note_on,0,0,1,,,,,,,,,0,,,62,0
29775,note_on,15,0,1,,,,,,,,,0,,,66,0
29775,note_on,0,0,1,,,,,,,,,0,,,62,0
29775,note_on,0,0,1,,,,,,,,,0,,,69,49
29790,note_on,0,0,1,,,,,,,,,0,,,68,49
29790,note_on,30,0,3,,,,,,,,,2,,,59,0
29790,note_on,0,0,3,,,,,,,,,2,,,52,36
29790,note_on,0,0,3,,,,,,,,,2,,,59,36
29790,note_on,0,0,1,,,,,,,,,0,,,62,49
29790,note_on,15,0,1,,,,,,,,,0,,,69,0
29790,note_on,0,0,3,,,,,,,,,2,,,50,0
29799,note_on,9,0,3,,,,,,,,,2,,,59,0
29799,note_on,0,0,1,,,,,,,,,0,,,62,0
29799,note_on,9,0,1,,,,,,,,,0,,,68,0
29799,note_on,0,0,3,,,,,,,,,2,,,52,0
29880,note_on,81,0,1,,,,,,,,,0,,,62,49
29880,note_on,0,0,3,,,,,,,,,2,,,59,36
29880,note_on,81,0,3,,,,,,,,,2,,,52,36
29880,note_on,0,0,1,,,,,,,,,0,,,66,49
29884,note_on,4,0,1,,,,,,,,,0,,,66,0
29884,note_on,0,0,1,,,,,,,,,0,,,62,0
29884,note_on,0,0,3,,,,,,,,,2,,,52,0
29884,note_on,4,0,3,,,,,,,,,2,,,59,0
29910,note_on,26,0,3,,,,,,,,,2,,,52,36
29910,note_on,26,0,1,,,,,,,,,0,,,62,49
29910,note_on,0,0,1,,,,,,,,,0,,,68,49
29910,note_on,0,0,3,,,,,,,,,2,,,59,36
29919,note_on,0,0,1,,,,,,,,,0,,,62,0
29919,note_on,0,0,3,,,,,,,,,2,,,52,0
29919,note_on,9,0,3,,,,,,,,,2,,,59,0
29919,note_on,9,0,1,,,,,,,,,0,,,68,0
30000,note_on,81,0,1,,,,,,,,,0,,,62,49
30000,note_on,81,0,3,,,,,,,,,2,,,52,36
30000,note_on,0,0,3,,,,,,,,,2,,,59,36
30000,note_on,0,0,1,,,,,,,,,0,,,64,49
30004,note_on,4,0,1,,,,,,,,,0,,,64,0
30004,note_on,0,0,1,,,,,,,,,0,,,62,0
30004,note_on,4,0,3,,,,,,,,,2,,,59,0
30004,note_on,0,0,3,,,,,,,,,2,,,52,0
30030,note_on,0,0,3,,,,,,,,,2,,,52,57
30030,note_on,26,0,3,,,,,,,,,2,,,45,52
30030,note_on,0,0,3,,,,,,,,,2,,,57,62
30030,note_on,26,0,1,,,,,,,,,0,,,61,67
30030,note_on,0,0,1,,,,,,,,,0,,,69,75
30270,note_on,0,0,1,,,,,,,,,0,,,61,67
30270,note_on,0,0,1,,,,,,,,,0,,,69,75
30270,note_on,0,0,3,,,,,,,,,2,,,52,0
30270,note_on,0,0,3,,,,,,,,,2,,,45,0
30270,note_on,0,0,3,,,,,,,,,2,,,45,52
30270,note_on,0,0,3,,,,,,,,,2,,,52,57
30270,note_on,0,0,3,,,,,,,,,2,,,57,62
30270,note_on,240,0,3,,,,,,,,,2,,,57,0
30270,note_on,0,0,1,,,,,,,,,0,,,61,0
30270,note_on,240,0,1,,,,,,,,,0,,,69,0
30510,note_on,240,0,3,,,,,,,,,2,,,57,0
30510,note_on,0,0,3,,,,,,,,,2,,,52,0
30510,note_on,0,0,3,,,,,,,,,2,,,45,0
30510,note_on,0,0,1,,,,,,,,,0,,,69,88
30510,note_on,0,0,1,,,,,,,,,0,,,66,88
30510,note_on,0,0,1,,,,,,,,,0,,,62,88
30510,note_on,0,0,1,,,,,,,,,0,,,61,0
30510,note_on,240,0,1,,,,,,,,,0,,,69,0
30510,note_on,0,0,3,,,,,,,,,2,,,50,88
30522,note_on,12,0,3,,,,,,,,,2,,,50,0
30522,note_on,0,0,1,,,,,,,,,0,,,62,0
30522,note_on,12,0,1,,,,,,,,,0,,,69,0
30522,note_on,0,0,1,,,,,,,,,0,,,66,0
30630,note_on,108,0,3,,,,,,,,,2,,,49,88
30630,note_on,0,0,1,,,,,,,,,0,,,70,88
30630,note_on,0,0,1,,,,,,,,,0,,,66,88
30630,note_on,108,0,1,,,,,,,,,0,,,62,88
30642,note_on,0,0,1,,,,,,,,,0,,,66,0
30642,note_on,0,0,1,,,,,,,,,0,,,62,0
30642,note_on,12,0,1,,,,,,,,,0,,,70,0
30642,note_on,12,0,3,,,,,,,,,2,,,49,0
30750,note_on,0,0,1,,,,,,,,,0,,,71,101
30750,note_on,0,0,1,,,,,,,,,0,,,67,101
30750,note_on,108,0,1,,,,,,,,,0,,,62,101
30750,control_change,108,0,3,,,,,,,,,2,64,127,,
30750,note_on,0,0,3,,,,,,,,,2,,,47,114
30789,note_on,39,0,3,,,,,,,,,2,,,46,114
30790,note_on,1,0,3,,,,,,,,,2,,,47,0
30829,note_on,39,0,3,,,,,,,,,2,,,46,0
30830,note_on,1,0,3,,,,,,,,,2,,,47,114
30870,note_on,40,0,3,,,,,,,,,2,,,47,0
30870,note_on,0,0,3,,,,,,,,,2,,,43,114
30909,note_on,39,0,3,,,,,,,,,2,,,42,114
30910,note_on,1,0,3,,,,,,,,,2,,,43,0
30949,note_on,39,0,3,,,,,,,,,2,,,42,0
30950,note_on,0,0,3,,,,,,,,,2,,,43,114
30950,control_change,1,0,3,,,,,,,,,2,64,0,,
30990,control_change,0,0,3,,,,,,,,,2,64,127,,
30990,note_on,40,0,3,,,,,,,,,2,,,43,0
30990,control_change,0,0,1,,,,,,,,,0,64,127,,
30990,note_on,240,0,1,,,,,,,,,0,,,71,0
30990,note_on,0,0,1,,,,,,,,,0,,,67,0
30990,note_on,0,0,1,,,,,,,,,0,,,62,0
30990,note_on,0,0,1,,,,,,,,,0,,,67,117
30990,note_on,0,0,1,,,,,,,,,0,,,71,122
30990,note_on,0,0,1,,,,,,,,,0,,,76,127
30990,note_on,0,0,3,,,,,,,,,2,,,40,127
31110,note_on,120,0,1,,,,,,,,,0,,,76,0
31110,note_on,0,0,1,,,,,,,,,0,,,71,0
31110,note_on,0,0,1,,,,,,,,,0,,,67,0
31110,note_on,0,0,1,,,,,,,,,0,,,71,117
31110,note_on,0,0,1,,,,,,,,,0,,,76,122
31110,note_on,0,0,1,,,,,,,,,0,,,79,127
31122,note_on,12,0,1,,,,,,,,,0,,,79,0
31122,note_on,0,0,1,,,,,,,,,0,,,76,0
31122,note_on,0,0,1,,,,,,,,,0,,,71,0
31200,note_on,210,0,3,,,,,,,,,2,,,40,0
31200,control_change,0,0,3,,,,,,,,,2,64,0,,
31200,note_on,0,0,3,,,,,,,,,2,,,42,114
31230,note_on,0,0,3,,,,,,,,,2,,,43,114
31230,control_change,108,0,1,,,,,,,,,0,64,0,,
31230,note_on,0,0,1,,,,,,,,,0,,,67,117
31230,note_on,0,0,1,,,,,,,,,0,,,76,127
31230,note_on,30,0,3,,,,,,,,,2,,,42,0
31230,note_on,0,0,1,,,,,,,,,0,,,71,122
31242,note_on,0,0,1,,,,,,,,,0,,,67,0
31242,note_on,12,0,1,,,,,,,,,0,,,76,0
31242,note_on,0,0,1,,,,,,,,,0,,,71,0
31320,note_on,90,0,3,,,,,,,,,2,,,43,0
31320,note_on,0,0,3,,,,,,,,,2,,,45,114
31350,note_on,0,0,3,,,,,,,,,2,,,47,114
31350,note_on,0,0,1,,,,,,,,,0,,,67,127
31350,note_on,0,0,1,,,,,,,,,0,,,64,122
31350,note_on,30,0,3,,,,,,,,,2,,,45,0
31350,note_on,108,0,1,,,,,,,,,0,,,61,117
31362,note_on,0,0,1,,,,,,,,,0,,,61,0
31362,note_on,0,0,1,,,,,,,,,0,,,64,0
31362,note_on,12,0,1,,,,,,,,,0,,,67,0
31440,note_on,90,0,3,,,,,,,,,2,,,47,0
31440,note_on,0,0,3,,,,,,,,,2,,,49,114
31470,note_on,0,0,1,,,,,,,,,0,,,66,88
31470,note_on,0,0,3,,,,,,,,,2,,,45,88
31470,note_on,108,0,1,,,,,,,,,0,,,61,88
31470,note_on,30,0,3,,,,,,,,,2,,,49,0
31470,note_on,0,0,1,,,,,,,,,0,,,69,88
31470,control_change,0,0,3,,,,,,,,,2,64,127,,
31509,note_on,39,0,3,,,,,,,,,2,,,44,88
31510,note_on,1,0,3,,,,,,,,,2,,,45,0
31549,note_on,39,0,3,,,,,,,,,2,,,44,0
31550,note_on,1,0,3,,,,,,,,,2,,,45,88
31590,note_on,0,0,3,,,,,,,,,2,,,42,88
31590,note_on,40,0,3,,,,,,,,,2,,,45,0
31629,note_on,39,0,3,,,,,,,,,2,,,41,88
31630,note_on,1,0,3,,,,,,,,,2,,,42,0
31669,note_on,39,0,3,,,,,,,,,2,,,41,0
31670,control_change,1,0,3,,,,,,,,,2,64,0,,
31670,note_on,0,0,3,,,,,,,,,2,,,42,88
31710,note_on,40,0,3,,,,,,,,,2,,,42,0
31710,control_change,0,0,3,,,,,,,,,2,64,127,,
31710,note_on,0,0,3,,,,,,,,,2,,,38,114
31710,note_on,0,0,1,,,,,,,,,0,,,66,104
31710,note_on,0,0,1,,,,,,,,,0,,,61,0
31710,note_on,0,0,1,,,,,,,,,0,,,66,0
31710,note_on,240,0,1,,,,,,,,,0,,,69,0
31710,note_on,0,0,1,,,,,,,,,0,,,69,109
31710,note_on,0,0,1,,,,,,,,,0,,,74,114
31710,control_change,0,0,1,,,,,,,,,0,64,127,,
31830,note_on,0,0,1,,,,,,,,,0,,,66,0
31830,note_on,0,0,1,,,,,,,,,0,,,69,104
31830,note_on,0,0,1,,,,,,,,,0,,,74,109
31830,note_on,0,0,1,,,,,,,,,0,,,78,114
31830,note_on,120,0,1,,,,,,,,,0,,,74,0
31830,note_on,0,0,1,,,,,,,,,0,,,69,0
31842,note_on,12,0,1,,,,,,,,,0,,,78,0
31842,note_on,0,0,1,,,,,,,,,0,,,74,0
31842,note_on,0,0,1,,,,,,,,,0,,,69,0
31920,note_on,210,0,3,,,,,,,,,2,,,38,0
31920,note_on,0,0,3,,,,,,,,,2,,,40,88
31920,control_change,0,0,3,,,,,,,,,2,64,0,,
31950,note_on,0,0,1,,,,,,,,,0,,,69,109
31950,note_on,0,0,1,,,,,,,,,0,,,74,114
31950,note_on,0,0,3,,,,,,,,,2,,,42,88
31950,note_on,30,0,3,,,,,,,,,2,,,40,0
31950,note_on,0,0,1,,,,,,,,,0,,,66,104
31950,control_change,108,0,1,,,,,,,,,0,64,0,,
31962,note_on,12,0,1,,,,,,,,,0,,,74,0
31962,note_on,0,0,1,,,,,,,,,0,,,66,0
31962,note_on,0,0,1,,,,,,,,,0,,,69,0
32040,note_on,0,0,3,,,,,,,,,2,,,43,88
32040,note_on,90,0,3,,,,,,,,,2,,,42,0
32070,note_on,30,0,3,,,,,,,,,2,,,43,0
32070,note_on,0,0,3,,,,,,,,,2,,,45,88
32070,note_on,0,0,1,,,,,,,,,0,,,66,114
32070,note_on,0,0,1,,,,,,,,,0,,,62,109
32070,note_on,108,0,1,,,,,,,,,0,,,59,104
32082,note_on,0,0,1,,,,,,,,,0,,,62,0
32082,note_on,12,0,1,,,,,,,,,0,,,66,0
32082,note_on,0,0,1,,,,,,,,,0,,,59,0
32160,note_on,0,0,3,,,,,,,,,2,,,47,88
32160,note_on,90,0,3,,,,,,,,,2,,,45,0
32190,note_on,0,0,1,,,,,,,,,0,,,64,88
32190,note_on,108,0,1,,,,,,,,,0,,,59,88
32190,note_on,30,0,3,,,,,,,,,2,,,47,0
32190,control_change,0,0,3,,,,,,,,,2,64,127,,
32190,note_on,0,0,3,,,,,,,,,2,,,43,88
32190,note_on,0,0,1,,,,,,,,,0,,,67,88
32229,note_on,39,0,3,,,,,,,,,2,,,42,88
32230,note_on,1,0,3,,,,,,,,,2,,,43,0
32269,note_on,39,0,3,,,,,,,,,2,,,42,0
32270,note_on,1,0,3,,,,,,,,,2,,,43,88
32310,note_on,40,0,3,,,,,,,,,2,,,43,0
32310,note_on,0,0,3,,,,,,,,,2,,,40,88
32349,note_on,39,0,3,,,,,,,,,2,,,39,88
32350,note_on,1,0,3,,,,,,,,,2,,,40,0
32389,note_on,39,0,3,,,,,,,,,2,,,39,0
32390,control_change,1,0,3,,,,,,,,,2,64,0,,
32390,note_on,0,0,3,,,,,,,,,2,,,40,88
32430,note_on,240,0,1,,,,,,,,,0,,,67,0
32430,note_on,0,0,1,,,,,,,,,0,,,64,0
32430,note_on,0,0,1,,,,,,,,,0,,,59,0
32430,note_on,0,0,1,,,,,,,,,0,,,64,104
32430,note_on,0,0,1,,,,,,,,,0,,,67,109
32430,note_on,0,0,1,,,,,,,,,0,,,73,114
32430,control_change,0,0,1,,,,,,,,,0,64,127,,
32430,note_on,0,0,3,,,,,,,,,2,,,37,114
32430,control_change,0,0,3,,,,,,,,,2,64,127,,
32430,note_on,40,0,3,,,,,,,,,2,,,40,0
32550,note_on,0,0,1,,,,,,,,,0,,,76,114
32550,note_on,0,0,1,,,,,,,,,0,,,64,0
32550,note_on,0,0,1,,,,,,,,,0,,,67,104
32550,note_on,0,0,1,,,,,,,,,0,,,67,0
32550,note_on,120,0,1,,,,,,,,,0,,,73,0
32550,note_on,0,0,1,,,,,,,,,0,,,73,109
32562,note_on,12,0,1,,,,,,,,,0,,,76,0
32562,note_on,0,0,1,,,,,,,,,0,,,73,0
32562,note_on,0,0,1,,,,,,,,,0,,,67,0
32640,note_on,210,0,3,,,,,,,,,2,,,37,0
32640,note_on,0,0,3,,,,,,,,,2,,,38,88
32670,control_change,0,0,3,,,,,,,,,2,64,0,,
32670,note_on,0,0,3,,,,,,,,,2,,,40,88
32670,note_on,0,0,1,,,,,,,,,0,,,64,104
32670,control_change,108,0,1,,,,,,,,,0,64,0,,
32670,note_on,0,0,1,,,,,,,,,0,,,67,109
32670,note_on,0,0,1,,,,,,,,,0,,,73,114
32670,note_on,30,0,3,,,,,,,,,2,,,38,0
32682,note_on,0,0,1,,,,,,,,,0,,,67,0
32682,note_on,12,0,1,,,,,,,,,0,,,73,0
32682,note_on,0,0,1,,,,,,,,,0,,,64,0
32760,note_on,90,0,3,,,,,,,,,2,,,40,0
32760,note_on,0,0,3,,,,,,,,,2,,,37,88
32790,note_on,0,0,3,,,,,,,,,2,,,41,88
32790,note_on,108,0,1,,,,,,,,,0,,,61,104
32790,note_on,0,0,1,,,,,,,,,0,,,68,109
32790,note_on,0,0,1,,,,,,,,,0,,,71,114
32790,note_on,30,0,3,,,,,,,,,2,,,37,0
32802,note_on,12,0,1,,,,,,,,,0,,,71,0
32802,note_on,0,0,1,,,,,,,,,0,,,68,0
32802,note_on,0,0,1,,,,,,,,,0,,,61,0
32880,note_on,0,0,3,,,,,,,,,2,,,37,88
32880,note_on,90,0,3,,,,,,,,,2,,,41,0
32910,note_on,0,0,1,,,,,,,,,0,,,66,114
32910,note_on,108,0,1,,,,,,,,,0,,,61,114
32910,note_on,0,0,1,,,,,,,,,0,,,70,114
32910,note_on,0,0,3,,,,,,,,,2,,,42,101
32910,note_on,30,0,3,,,,,,,,,2,,,37,0
33150,note_on,0,0,3,,,,,,,,,2,,,42,101
33150,note_on,240,0,3,,,,,,,,,2,,,42,0
33150,note_on,240,0,1,,,,,,,,,0,,,70,0
33150,note_on,0,0,1,,,,,,,,,0,,,66,0
33150,note_on,0,0,1,,,,,,,,,0,,,61,0
33150,note_on,0,0,1,,,,,,,,,0,,,61,114
33150,note_on,0,0,1,,,,,,,,,0,,,66,114
33150,note_on,0,0,1,,,,,,,,,0,,,70,114
33360,note_on,210,0,1,,,,,,,,,0,,,70,0
33360,note_on,0,0,1,,,,,,,,,0,,,66,0
33360,note_on,0,0,1,,,,,,,,,0,,,61,0
33360,note_on,0,0,1,,,,,,,,,0,,,66,114
33360,note_on,0,0,1,,,,,,,,,0,,,73,114
33360,note_on,210,0,3,,,,,,,,,2,,,42,0
33360,note_on,0,0,3,,,,,,,,,2,,,46,101
33364,note_on,4,0,3,,,,,,,,,2,,,46,0
33364,note_on,0,0,1,,,,,,,,,0,,,66,0
33364,note_on,4,0,1,,,,,,,,,0,,,73,0
33390,note_on,26,0,3,,,,,,,,,2,,,47,101
33390,note_on,26,0,1,,,,,,,,,0,,,66,114
33390,note_on,0,0,1,,,,,,,,,0,,,75,114
33399,note_on,9,0,3,,,,,,,,,2,,,47,0
33399,note_on,0,0,1,,,,,,,,,0,,,66,0
33399,note_on,9,0,1,,,,,,,,,0,,,75,0
33480,note_on,81,0,3,,,,,,,,,2,,,46,101
33480,note_on,0,0,1,,,,,,,,,0,,,73,114
33480,note_on,81,0,1,,,,,,,,,0,,,66,114
33484,note_on,4,0,1,,,,,,,,,0,,,73,0
33484,note_on,4,0,3,,,,,,,,,2,,,46,0
33484,note_on,0,0,1,,,,,,,,,0,,,66,0
33510,note_on,0,0,1,,,,,,,,,0,,,75,114
33510,note_on,26,0,1,,,,,,,,,0,,,66,114
33510,note_on,26,0,3,,,,,,,,,2,,,47,101
33519,note_on,9,0,1,,,,,,,,,0,,,75,0
33519,note_on,9,0,3,,,,,,,,,2,,,47,0
33519,note_on,0,0,1,,,,,,,,,0,,,66,0
33600,note_on,0,0,1,,,,,,,,,0,,,73,114
33600,note_on,81,0,1,,,,,,,,,0,,,66,114
33600,note_on,81,0,3,,,,,,,,,2,,,46,101
33604,note_on,4,0,1,,,,,,,,,0,,,73,0
33604,note_on,0,0,1,,,,,,,,,0,,,66,0
33604,note_on,4,0,3,,,,,,,,,2,,,46,0
33630,note_on,26,0,1,,,,,,,,,0,,,65,114
33630,note_on,0,0,1,,,,,,,,,0,,,71,114
33630,note_on,0,0,1,,,,,,,,,0,,,77,114
33630,note_on,26,0,3,,,,,,,,,2,,,44,101
33630,note_on,0,0,3,,,,,,,,,2,,,49,101
33870,note_on,240,0,3,,,,,,,,,2,,,49,0
33870,note_on,0,0,3,,,,,,,,,2,,,44,0
33870,note_on,0,0,3,,,,,,,,,2,,,44,101
33870,note_on,0,0,1,,,,,,,,,0,,,71,114
33870,note_on,0,0,1,,,,,,,,,0,,,77,114
33870,note_on,0,0,1,,,,,,,,,0,,,65,114
33870,note_on,0,0,1,,,,,,,,,0,,,65,0
33870,note_on,0,0,1,,,,,,,,,0,,,71,0
33870,note_on,240,0,1,,,,,,,,,0,,,77,0
33870,note_on,0,0,3,,,,,,,,,2,,,49,101
34080,note_on,0,0,3,,,,,,,,,2,,,44,101
34080,note_on,0,0,3,,,,,,,,,2,,,49,101
34080,note_on,0,0,1,,,,,,,,,0,,,77,114
34080,note_on,0,0,3,,,,,,,,,2,,,44,0
34080,note_on,0,0,1,,,,,,,,,0,,,73,114
34080,note_on,0,0,1,,,,,,,,,0,,,65,114
34080,note_on,0,0,1,,,,,,,,,0,,,65,0
34080,note_on,0,0,1,,,,,,,,,0,,,71,0
34080,note_on,210,0,1,,,,,,,,,0,,,77,0
34080,note_on,210,0,3,,,,,,,,,2,,,49,0
34084,note_on,0,0,3,,,,,,,,,2,,,44,0
34084,note_on,0,0,1,,,,,,,,,0,,,65,0
34084,note_on,0,0,1,,,,,,,,,0,,,73,0
34084,note_on,4,0,1,,,,,,,,,0,,,77,0
34084,note_on,4,0,3,,,,,,,,,2,,,49,0
34110,note_on,0,0,3,,,,,,,,,2,,,49,101
34110,note_on,0,0,1,,,,,,,,,0,,,77,114
34110,note_on,26,0,3,,,,,,,,,2,,,46,101
34110,note_on,26,0,1,,,,,,,,,0,,,65,114
34110,note_on,0,0,1,,,,,,,,,0,,,73,114
34119,note_on,9,0,1,,,,,,,,,0,,,77,0
34119,note_on,0,0,1,,,,,,,,,0,,,73,0
34119,note_on,0,0,1,,,,,,,,,0,,,65,0
34119,note_on,0,0,3,,,,,,,,,2,,,46,0
34119,note_on,9,0,3,,,,,,,,,2,,,49,0
34200,note_on,81,0,1,,,,,,,,,0,,,65,114
34200,note_on,0,0,1,,,,,,,,,0,,,73,114
34200,note_on,0,0,1,,,,,,,,,0,,,77,114
34200,note_on,0,0,3,,,,,,,,,2,,,49,101
34200,note_on,81,0,3,,,,,,,,,2,,,44,101
34204,note_on,4,0,3,,,,,,,,,2,,,49,0
34204,note_on,0,0,1,,,,,,,,,0,,,73,0
34204,note_on,0,0,1,,,,,,,,,0,,,65,0
34204,note_on,0,0,3,,,,,,,,,2,,,44,0
34204,note_on,4,0,1,,,,,,,,,0,,,77,0
34230,note_on,0,0,1,,,,,,,,,0,,,73,114
34230,note_on,26,0,1,,,,,,,,,0,,,65,114
34230,note_on,0,0,1,,,,,,,,,0,,,77,114
34230,note_on,26,0,3,,,,,,,,,2,,,46,101
34230,note_on,0,0,3,,,,,,,,,2,,,49,101
34239,note_on,9,0,3,,,,,,,,,2,,,49,0
34239,note_on,0,0,1,,,,,,,,,0,,,65,0
34239,note_on,0,0,1,,,,,,,,,0,,,73,0
34239,note_on,9,0,1,,,,,,,,,0,,,77,0
34239,note_on,0,0,3,,,,,,,,,2,,,46,0
34320,note_on,0,0,1,,,,,,,,,0,,,77,114
34320,note_on,0,0,1,,,,,,,,,0,,,73,114
34320,note_on,81,0,1,,,,,,,,,0,,,65,114
34320,note_on,0,0,3,,,,,,,,,2,,,49,101
34320,note_on,81,0,3,,,,,,,,,2,,,44,101
34324,note_on,0,0,1,,,,,,,,,0,,,65,0
34324,note_on,0,0,1,,,,,,,,,0,,,73,0
34324,note_on,4,0,1,,,,,,,,,0,,,77,0
34324,note_on,4,0,3,,,,,,,,,2,,,49,0
34324,note_on,0,0,3,,,,,,,,,2,,,44,0
34350,note_on,0,0,3,,,,,,,,,2,,,49,101
34350,note_on,26,0,3,,,,,,,,,2,,,42,101
34350,note_on,26,0,1,,,,,,,,,0,,,66,114
34350,note_on,0,0,1,,,,,,,,,0,,,78,114
34350,note_on,0,0,1,,,,,,,,,0,,,70,114
34590,note_on,0,0,3,,,,,,,,,2,,,49,101
34590,note_on,0,0,3,,,,,,,,,2,,,42,0
34590,note_on,240,0,3,,,,,,,,,2,,,49,0
34590,note_on,0,0,3,,,,,,,,,2,,,42,101
34590,note_on,0,0,1,,,,,,,,,0,,,66,0
34590,note_on,240,0,1,,,,,,,,,0,,,78,0
34590,note_on,0,0,1,,,,,,,,,0,,,70,0
34590,note_on,0,0,1,,,,,,,,,0,,,78,114
34590,note_on,0,0,1,,,,,,,,,0,,,66,114
34590,note_on,0,0,1,,,,,,,,,0,,,70,114
34800,note_on,0,0,1,,,,,,,,,0,,,69,49
34800,note_on,0,0,1,,,,,,,,,0,,,67,49
34800,note_on,0,0,1,,,,,,,,,0,,,73,49
34800,note_on,0,0,3,,,,,,,,,2,,,57,36
34800,note_on,0,0,3,,,,,,,,,2,,,42,0
34800,note_on,210,0,3,,,,,,,,,2,,,49,0
34800,note_on,0,0,1,,,,,,,,,0,,,70,0
34800,note_on,0,0,1,,,,,,,,,0,,,66,0
34800,note_on,210,0,1,,,,,,,,,0,,,78,0
34804,note_on,4,0,1,,,,,,,,,0,,,73,0
34804,note_on,0,0,1,,,,,,,,,0,,,69,0
34804,note_on,0,0,1,,,,,,,,,0,,,67,0
34804,note_on,4,0,3,,,,,,,,,2,,,57,0
34830,note_on,26,0,1,,,,,,,,,0,,,67,49
34830,note_on,0,0,1,,,,,,,,,0,,,69,49
34830,note_on,0,0,1,,,,,,,,,0,,,73,49
34830,note_on,26,0,3,,,,,,,,,2,,,57,36
34839,note_on,9,0,1,,,,,,,,,0,,,73,0
34839,note_on,0,0,1,,,,,,,,,0,,,69,0
34839,note_on,0,0,1,,,,,,,,,0,,,67,0
34839,note_on,9,0,3,,,,,,,,,2,,,57,0
34920,note_on,81,0,3,,,,,,,,,2,,,57,36
34920,note_on,81,0,1,,,,,,,,,0,,,67,49
34920,note_on,0,0,1,,,,,,,,,0,,,69,49
34920,note_on,0,0,1,,,,,,,,,0,,,73,49
34924,note_on,4,0,1,,,,,,,,,0,,,73,0
34924,note_on,0,0,1,,,,,,,,,0,,,69,0
34924,note_on,0,0,1,,,,,,,,,0,,,67,0
34924,note_on,4,0,3,,,,,,,,,2,,,57,0
34950,note_on,26,0,3,,,,,,,,,2,,,59,36
34950,note_on,0,0,1,,,,,,,,,0,,,69,49
34950,note_on,26,0,1,,,,,,,,,0,,,67,49
34950,note_on,0,0,1,,,,,,,,,0,,,74,49
34959,note_on,9,0,1,,,,,,,,,0,,,74,0
34959,note_on,0,0,1,,,,,,,,,0,,,69,0
34959,note_on,0,0,1,,,,,,,,,0,,,67,0
34959,note_on,9,0,3,,,,,,,,,2,,,59,0
35040,note_on,81,0,3,,,,,,,,,2,,,61,36
35040,note_on,81,0,1,,,,,,,,,0,,,67,49
35040,note_on,0,0,1,,,,,,,,,0,,,76,49
35040,note_on,0,0,1,,,,,,,,,0,,,69,49
35044,note_on,4,0,1,,,,,,,,,0,,,76,0
35044,note_on,4,0,3,,,,,,,,,2,,,61,0
35044,note_on,0,0,1,,,,,,,,,0,,,69,0
35044,note_on,0,0,1,,,,,,,,,0,,,67,0
35070,note_on,26,0,1,,,,,,,,,0,,,66,67
35070,note_on,0,0,1,,,,,,,,,0,,,69,75
35070,note_on,26,0,3,,,,,,,,,2,,,62,62
35310,note_on,0,0,1,,,,,,,,,0,,,66,65
35310,note_on,0,0,1,,,,,,,,,0,,,78,75
35310,note_on,0,0,1,,,,,,,,,0,,,69,70
35310,note_on,240,0,3,,,,,,,,,2,,,62,0
35310,note_on,0,0,1,,,,,,,,,0,,,66,0
35310,note_on,240,0,1,,,,,,,,,0,,,69,0
35310,note_on,0,0,3,,,,,,,,,2,,,62,62
35520,note_on,210,0,3,,,,,,,,,2,,,62,0
35520,note_on,0,0,3,,,,,,,,,2,,,62,36
35520,note_on,210,0,1,,,,,,,,,0,,,78,0
35520,note_on,0,0,1,,,,,,,,,0,,,69,0
35520,note_on,0,0,1,,,,,,,,,0,,,66,0
35520,note_on,0,0,1,,,,,,,,,0,,,66,49
35520,note_on,0,0,1,,,,,,,,,0,,,78,49
35550,note_on,30,0,3,,,,,,,,,2,,,62,0
35550,note_on,0,0,3,,,,,,,,,2,,,62,36
35550,note_on,30,0,1,,,,,,,,,0,,,78,0
35550,note_on,0,0,1,,,,,,,,,0,,,66,0
35550,note_on,0,0,1,,,,,,,,,0,,,78,49
35550,note_on,0,0,1,,,,,,,,,0,,,66,49
35640,note_on,0,0,1,,,,,,,,,0,,,66,49
35640,note_on,0,0,1,,,,,,,,,0,,,78,49
35640,note_on,90,0,3,,,,,,,,,2,,,62,0
35640,note_on,0,0,3,,,,,,,,,2,,,62,36
35640,note_on,90,0,1,,,,,,,,,0,,,78,0
35640,note_on,0,0,1,,,,,,,,,0,,,66,0
35670,note_on,30,0,1,,,,,,,,,0,,,78,0
35670,note_on,0,0,1,,,,,,,,,0,,,66,0
35670,note_on,0,0,1,,,,,,,,,0,,,68,49
35670,note_on,0,0,1,,,,,,,,,0,,,76,49
35670,note_on,30,0,3,,,,,,,,,2,,,62,0
35670,note_on,0,0,3,,,,,,,,,2,,,59,36
35670,note_on,0,0,3,,,,,,,,,2,,,62,36
35760,note_on,0,0,1,,,,,,,,,0,,,68,49
35760,note_on,0,0,1,,,,,,,,,0,,,74,49
35760,note_on,0,0,3,,,,,,,,,2,,,59,0
35760,note_on,90,0,1,,,,,,,,,0,,,76,0
35760,note_on,0,0,1,,,,,,,,,0,,,68,0
35760,note_on,90,0,3,,,,,,,,,2,,,62,0
35760,note_on,0,0,3,,,,,,,,,2,,,59,36
35760,note_on,0,0,3,,,,,,,,,2,,,62,36
35790,note_on,0,0,1,,,,,,,,,0,,,69,67
35790,note_on,0,0,1,,,,,,,,,0,,,68,0
35790,note_on,0,0,1,,,,,,,,,0,,,73,75
35790,note_on,30,0,1,,,,,,,,,0,,,74,0
35790,note_on,30,0,3,,,,,,,,,2,,,62,0
35790,note_on,0,0,3,,,,,,,,,2,,,57,54
35790,note_on,0,0,3,,,,,,,,,2,,,64,62
35790,note_on,0,0,3,,,,,,,,,2,,,59,0
36030,note_on,0,0,3,,,,,,,,,2,,,57,54
36030,note_on,0,0,3,,,,,,,,,2,,,57,0
36030,note_on,240,0,3,,,,,,,,,2,,,64,0
36030,note_on,0,0,3,,,,,,,,,2,,,61,62
36030,note_on,240,0,1,,,,,,,,,0,,,73,0
36030,note_on,0,0,1,,,,,,,,,0,,,69,0
36030,note_on,0,0,1,,,,,,,,,0,,,69,67
36030,note_on,0,0,1,,,,,,,,,0,,,76,75
36240,note_on,210,0,3,,,,,,,,,2,,,61,0
36240,note_on,0,0,3,,,,,,,,,2,,,57,0
36240,note_on,0,0,1,,,,,,,,,0,,,76,49
36240,note_on,0,0,3,,,,,,,,,2,,,54,36
36240,note_on,0,0,3,,,,,,,,,2,,,61,36
36240,note_on,0,0,1,,,,,,,,,0,,,70,49
36240,note_on,210,0,1,,,,,,,,,0,,,76,0
36240,note_on,0,0,1,,,,,,,,,0,,,69,0
36270,note_on,0,0,1,,,,,,,,,0,,,76,49
36270,note_on,0,0,1,,,,,,,,,0,,,70,49
36270,note_on,0,0,1,,,,,,,,,0,,,70,0
36270,note_on,0,0,3,,,,,,,,,2,,,54,0
36270,note_on,0,0,3,,,,,,,,,2,,,54,36
36270,note_on,30,0,3,,,,,,,,,2,,,61,0
36270,note_on,30,0,1,,,,,,,,,0,,,76,0
36270,note_on,0,0,3,,,,,,,,,2,,,61,36
36360,note_on,0,0,1,,,,,,,,,0,,,70,0
36360,note_on,0,0,1,,,,,,,,,0,,,70,49
36360,note_on,0,0,1,,,,,,,,,0,,,76,49
36360,note_on,90,0,1,,,,,,,,,0,,,76,0
36360,note_on,90,0,3,,,,,,,,,2,,,61,0
36360,note_on,0,0,3,,,,,,,,,2,,,54,0
36360,note_on,0,0,3,,,,,,,,,2,,,61,36
36360,note_on,0,0,3,,,,,,,,,2,,,54,36
36390,note_on,0,0,1,,,,,,,,,0,,,70,49
36390,note_on,30,0,1,,,,,,,,,0,,,76,0
36390,note_on,0,0,1,,,,,,,,,0,,,74,49
36390,note_on,0,0,3,,,,,,,,,2,,,62,36
36390,note_on,0,0,3,,,,,,,,,2,,,54,36
36390,note_on,0,0,3,,,,,,,,,2,,,54,0
36390,note_on,30,0,3,,,,,,,,,2,,,61,0
36390,note_on,0,0,1,,,,,,,,,0,,,70,0
36480,note_on,90,0,1,,,,,,,,,0,,,74,0
36480,note_on,0,0,1,,,,,,,,,0,,,70,0
36480,note_on,0,0,3,,,,,,,,,2,,,64,36
36480,note_on,0,0,1,,,,,,,,,0,,,73,49
36480,note_on,90,0,3,,,,,,,,,2,,,62,0
36480,note_on,0,0,3,,,,,,,,,2,,,54,0
36480,note_on,0,0,3,,,,,,,,,2,,,54,36
36480,note_on,0,0,1,,,,,,,,,0,,,70,49
36510,note_on,30,0,1,,,,,,,,,0,,,73,0
36510,note_on,0,0,1,,,,,,,,,0,,,71,75
36510,note_on,30,0,3,,,,,,,,,2,,,64,0
36510,note_on,0,0,3,,,,,,,,,2,,,62,62
36510,note_on,0,0,3,,,,,,,,,2,,,55,54
36510,note_on,0,0,1,,,,,,,,,0,,,70,0
36510,note_on,0,0,3,,,,,,,,,2,,,54,0
36750,note_on,0,0,1,,,,,,,,,0,,,74,75
36750,note_on,240,0,1,,,,,,,,,0,,,71,0
36750,note_on,0,0,1,,,,,,,,,0,,,67,67
36750,note_on,0,0,3,,,,,,,,,2,,,55,54
36750,note_on,240,0,3,,,,,,,,,2,,,62,0
36750,note_on,0,0,3,,,,,,,,,2,,,55,0
36750,note_on,0,0,3,,,,,,,,,2,,,59,62
36960,note_on,0,0,1,,,,,,,,,0,,,71,49
36960,note_on,0,0,1,,,,,,,,,0,,,67,49
36960,note_on,0,0,1,,,,,,,,,0,,,61,49
36960,note_on,0,0,3,,,,,,,,,2,,,45,36
36960,note_on,0,0,3,,,,,,,,,2,,,55,0
36960,note_on,0,0,1,,,,,,,,,0,,,67,0
36960,note_on,210,0,3,,,,,,,,,2,,,59,0
36960,note_on,210,0,1,,,,,,,,,0,,,74,0
36990,note_on,0,0,3,,,,,,,,,2,,,45,36
36990,note_on,30,0,3,,,,,,,,,2,,,45,0
36990,note_on,0,0,1,,,,,,,,,0,,,71,49
36990,note_on,0,0,1,,,,,,,,,0,,,67,49
36990,note_on,0,0,1,,,,,,,,,0,,,61,0
36990,note_on,0,0,1,,,,,,,,,0,,,67,0
36990,note_on,30,0,1,,,,,,,,,0,,,71,0
36990,note_on,0,0,1,,,,,,,,,0,,,61,49
37080,note_on,0,0,1,,,,,,,,,0,,,71,49
37080,note_on,0,0,1,,,,,,,,,0,,,67,49
37080,note_on,0,0,1,,,,,,,,,0,,,61,49
37080,note_on,0,0,1,,,,,,,,,0,,,61,0
37080,note_on,90,0,1,,,,,,,,,0,,,71,0
37080,note_on,0,0,1,,,,,,,,,0,,,67,0
37080,note_on,0,0,3,,,,,,,,,2,,,45,36
37080,note_on,90,0,3,,,,,,,,,2,,,45,0
37110,note_on,0,0,1,,,,,,,,,0,,,67,0
37110,note_on,0,0,1,,,,,,,,,0,,,69,49
37110,note_on,30,0,1,,,,,,,,,0,,,71,0
37110,note_on,30,0,3,,,,,,,,,2,,,45,0
37110,note_on,0,0,3,,,,,,,,,2,,,45,36
37110,note_on,0,0,1,,,,,,,,,0,,,66,49
37110,note_on,0,0,1,,,,,,,,,0,,,61,49
37110,note_on,0,0,1,,,,,,,,,0,,,61,0
37200,note_on,90,0,1,,,,,,,,,0,,,69,0
37200,note_on,0,0,3,,,,,,,,,2,,,45,36
37200,note_on,0,0,1,,,,,,,,,0,,,66,0
37200,note_on,0,0,1,,,,,,,,,0,,,67,49
37200,note_on,0,0,1,,,,,,,,,0,,,64,49
37200,note_on,0,0,1,,,,,,,,,0,,,61,49
37200,note_on,0,0,1,,,,,,,,,0,,,61,0
37200,note_on,90,0,3,,,,,,,,,2,,,45,0
37230,note_on,30,0,3,,,,,,,,,2,,,45,0
37230,note_on,0,0,3,,,,,,,,,2,,,50,62
37230,note_on,0,0,1,,,,,,,,,0,,,61,0
37230,note_on,30,0,1,,,,,,,,,0,,,67,0
37230,note_on,0,0,1,,,,,,,,,0,,,64,70
37230,note_on,0,0,1,,,,,,,,,0,,,67,75
37230,note_on,0,0,1,,,,,,,,,0,,,57,65
37230,note_on,0,0,1,,,,,,,,,0,,,64,0
37470,note_on,0,0,1,,,,,,,,,0,,,66,75
37470,note_on,0,0,1,,,,,,,,,0,,,62,70
37470,note_on,0,0,1,,,,,,,,,0,,,57,0
37470,note_on,0,0,1,,,,,,,,,0,,,64,0
37470,note_on,240,0,1,,,,,,,,,0,,,67,0
37470,note_on,240,0,3,,,,,,,,,2,,,50,0
37470,note_on,0,0,3,,,,,,,,,2,,,50,62
37470,note_on,0,0,1,,,,,,,,,0,,,57,65
37710,note_on,0,0,1,,,,,,,,,0,,,57,0
37710,note_on,0,0,1,,,,,,,,,0,,,62,0
37710,note_on,240,0,1,,,,,,,,,0,,,66,0
37710,note_on,0,0,3,,,,,,,,,2,,,50,88
37710,note_on,0,0,1,,,,,,,,,0,,,66,88
37710,note_on,0,0,1,,,,,,,,,0,,,69,88
37710,note_on,240,0,3,,,,,,,,,2,,,50,0
37710,note_on,0,0,1,,,,,,,,,0,,,62,88
37722,note_on,12,0,3,,,,,,,,,2,,,50,0
37722,note_on,0,0,1,,,,,,,,,0,,,62,0
37722,note_on,0,0,1,,,,,,,,,0,,,66,0
37722,note_on,12,0,1,,,,,,,,,0,,,69,0
37830,note_on,0,0,1,,,,,,,,,0,,,70,88
37830,note_on,0,0,1,,,,,,,,,0,,,66,88
37830,note_on,108,0,1,,,,,,,,,0,,,62,88
37830,note_on,108,0,3,,,,,,,,,2,,,49,88
37842,note_on,0,0,1,,,,,,,,,0,,,62,0
37842,note_on,0,0,1,,,,,,,,,0,,,66,0
37842,note_on,12,0,1,,,,,,,,,0,,,70,0
37842,note_on,12,0,3,,,,,,,,,2,,,49,0
37950,note_on,108,0,1,,,,,,,,,0,,,62,101
37950,note_on,0,0,1,,,,,,,,,0,,,71,101
37950,control_change,108,0,3,,,,,,,,,2,64,127,,
37950,note_on,0,0,3,,,,,,,,,2,,,47,114
37950,note_on,0,0,1,,,,,,,,,0,,,67,101
37989,note_on,39,0,3,,,,,,,,,2,,,46,114
37990,note_on,1,0,3,,,,,,,,,2,,,47,0
38029,note_on,39,0,3,,,,,,,,,2,,,46,0
38030,note_on,1,0,3,,,,,,,,,2,,,47,114
38070,note_on,40,0,3,,,,,,,,,2,,,47,0
38070,note_on,0,0,3,,,,,,,,,2,,,43,114
38109,note_on,39,0,3,,,,,,,,,2,,,42,114
38110,note_on,1,0,3,,,,,,,,,2,,,43,0
38149,note_on,39,0,3,,,,,,,,,2,,,42,0
38150,note_on,0,0,3,,,,,,,,,2,,,43,114
38150,control_change,1,0,3,,,,,,,,,2,64,0,,
38190,note_on,0,0,1,,,,,,,,,0,,,71,122
38190,note_on,0,0,1,,,,,,,,,0,,,67,117
38190,control_change,0,0,3,,,,,,,,,2,64,127,,
38190,note_on,0,0,3,,,,,,,,,2,,,40,127
38190,note_on,0,0,1,,,,,,,,,0,,,67,0
38190,note_on,40,0,3,,,,,,,,,2,,,43,0
38190,note_on,0,0,1,,,,,,,,,0,,,62,0
38190,note_on,0,0,1,,,,,,,,,0,,,76,127
38190,note_on,240,0,1,,,,,,,,,0,,,71,0
38190,control_change,0,0,1,,,,,,,,,0,64,127,,
38310,note_on,0,0,1,,,,,,,,,0,,,76,122
38310,note_on,0,0,1,,,,,,,,,0,,,79,127
38310,note_on,0,0,1,,,,,,,,,0,,,71,117
38310,note_on,0,0,1,,,,,,,,,0,,,67,0
38310,note_on,120,0,1,,,,,,,,,0,,,76,0
38310,note_on,0,0,1,,,,,,,,,0,,,71,0
38322,note_on,12,0,1,,,,,,,,,0,,,79,0
38322,note_on,0,0,1,,,,,,,,,0,,,76,0
38322,note_on,0,0,1,,,,,,,,,0,,,71,0
38400,note_on,210,0,3,,,,,,,,,2,,,40,0
38400,note_on,0,0,3,,,,,,,,,2,,,42,114
38430,note_on,0,0,1,,,,,,,,,0,,,76,127
38430,note_on,0,0,1,,,,,,,,,0,,,71,122
38430,note_on,108,0,1,,,,,,,,,0,,,67,117
38430,note_on,0,0,3,,,,,,,,,2,,,43,114
38430,note_on,30,0,3,,,,,,,,,2,,,42,0
38442,note_on,12,0,1,,,,,,,,,0,,,76,0
38442,note_on,0,0,1,,,,,,,,,0,,,71,0
38442,note_on,0,0,1,,,,,,,,,0,,,67,0
38520,note_on,90,0,3,,,,,,,,,2,,,43,0
38520,note_on,0,0,3,,,,,,,,,2,,,45,114
38550,control_change,108,0,1,,,,,,,,,0,64,0,,
38550,note_on,0,0,1,,,,,,,,,0,,,61,119
38550,note_on,0,0,1,,,,,,,,,0,,,64,127
38550,note_on,30,0,3,,,,,,,,,2,,,45,0
38550,control_change,0,0,3,,,,,,,,,2,64,0,,
38550,note_on,0,0,3,,,,,,,,,2,,,47,114
38562,note_on,0,0,1,,,,,,,,,0,,,61,0
38562,note_on,12,0,1,,,,,,,,,0,,,64,0
38640,note_on,0,0,3,,,,,,,,,2,,,49,114
38640,note_on,90,0,3,,,,,,,,,2,,,47,0
38670,note_on,0,0,1,,,,,,,,,0,,,69,101
38670,note_on,108,0,1,,,,,,,,,0,,,64,101
38670,note_on,0,0,1,,,,,,,,,0,,,73,101
38670,note_on,30,0,3,,,,,,,,,2,,,49,0
38670,note_on,0,0,3,,,,,,,,,2,,,49,114
38670,control_change,0,0,3,,,,,,,,,2,64,127,,
38709,note_on,39,0,3,,,,,,,,,2,,,48,114
38710,note_on,1,0,3,,,,,,,,,2,,,49,0
38749,note_on,39,0,3,,,,,,,,,2,,,48,0
38750,note_on,1,0,3,,,,,,,,,2,,,49,114
38790,note_on,40,0,3,,,,,,,,,2,,,49,0
38790,note_on,0,0,3,,,,,,,,,2,,,45,114
38829,note_on,39,0,3,,,,,,,,,2,,,44,114
38830,note_on,1,0,3,,,,,,,,,2,,,45,0
38869,note_on,39,0,3,,,,,,,,,2,,,44,0
38870,note_on,0,0,3,,,,,,,,,2,,,45,114
38870,control_change,1,0,3,,,,,,,,,2,64,0,,
38910,control_change,0,0,1,,,,,,,,,0,64,127,,
38910,note_on,0,0,1,,,,,,,,,0,,,78,101
38910,note_on,0,0,1,,,,,,,,,0,,,73,101
38910,note_on,0,0,1,,,,,,,,,0,,,69,101
38910,note_on,0,0,1,,,,,,,,,0,,,64,0
38910,note_on,0,0,1,,,,,,,,,0,,,69,0
38910,note_on,240,0,1,,,,,,,,,0,,,73,0
38910,control_change,0,0,3,,,,,,,,,2,64,127,,
38910,note_on,40,0,3,,,,,,,,,2,,,45,0
38910,note_on,0,0,3,,,,,,,,,2,,,42,114
39030,note_on,0,0,1,,,,,,,,,0,,,78,101
39030,note_on,0,0,1,,,,,,,,,0,,,81,101
39030,note_on,120,0,1,,,,,,,,,0,,,78,0
39030,note_on,0,0,1,,,,,,,,,0,,,73,101
39030,note_on,0,0,1,,,,,,,,,0,,,73,0
39030,note_on,0,0,1,,,,,,,,,0,,,69,0
39042,note_on,12,0,1,,,,,,,,,0,,,81,0
39042,note_on,0,0,1,,,,,,,,,0,,,73,0
39042,note_on,0,0,1,,,,,,,,,0,,,78,0
39120,note_on,210,0,3,,,,,,,,,2,,,42,0
39120,note_on,0,0,3,,,,,,,,,2,,,44,114
39150,note_on,108,0,1,,,,,,,,,0,,,69,101
39150,note_on,0,0,1,,,,,,,,,0,,,73,101
39150,note_on,0,0,1,,,,,,,,,0,,,78,101
39150,note_on,30,0,3,,,,,,,,,2,,,44,0
39150,note_on,0,0,3,,,,,,,,,2,,,45,114
39162,note_on,12,0,1,,,,,,,,,0,,,78,0
39162,note_on,0,0,1,,,,,,,,,0,,,73,0
39162,note_on,0,0,1,,,,,,,,,0,,,69,0
39240,note_on,0,0,3,,,,,,,,,2,,,47,114
39240,note_on,90,0,3,,,,,,,,,2,,,45,0
39270,control_change,0,0,3,,,,,,,,,2,64,0,,
39270,note_on,0,0,3,,,,,,,,,2,,,49,114
39270,note_on,0,0,1,,,,,,,,,0,,,69,101
39270,note_on,0,0,1,,,,,,,,,0,,,66,101
39270,control_change,108,0,1,,,,,,,,,0,64,0,,
39270,note_on,30,0,3,,,,,,,,,2,,,47,0
39282,note_on,0,0,1,,,,,,,,,0,,,66,0
39282,note_on,12,0,1,,,,,,,,,0,,,69,0
39360,note_on,90,0,3,,,,,,,,,2,,,49,0
39360,note_on,0,0,3,,,,,,,,,2,,,52,114
39390,note_on,108,0,1,,,,,,,,,0,,,66,101
39390,note_on,30,0,3,,,,,,,,,2,,,52,0
39390,control_change,0,0,3,,,,,,,,,2,64,127,,
39390,note_on,0,0,3,,,,,,,,,2,,,50,114
39390,note_on,0,0,1,,,,,,,,,0,,,71,101
39390,note_on,0,0,1,,,,,,,,,0,,,74,101
39429,note_on,39,0,3,,,,,,,,,2,,,49,114
39430,note_on,1,0,3,,,,,,,,,2,,,50,0
39469,note_on,39,0,3,,,,,,,,,2,,,49,0
39470,note_on,1,0,3,,,,,,,,,2,,,50,114
39510,note_on,0,0,3,,,,,,,,,2,,,47,114
39510,note_on,40,0,3,,,,,,,,,2,,,50,0
39549,note_on,39,0,3,,,,,,,,,2,,,46,114
39550,note_on,1,0,3,,,,,,,,,2,,,47,0
39589,note_on,39,0,3,,,,,,,,,2,,,46,0
39590,note_on,0,0,3,,,,,,,,,2,,,47,114
39590,control_change,1,0,3,,,,,,,,,2,64,0,,
39630,note_on,0,0,1,,,,,,,,,0,,,71,0
39630,note_on,0,0,1,,,,,,,,,0,,,66,0
39630,note_on,0,0,1,,,,,,,,,0,,,71,101
39630,note_on,0,0,1,,,,,,,,,0,,,74,101
39630,note_on,0,0,1,,,,,,,,,0,,,79,101
39630,control_change,0,0,1,,,,,,,,,0,64,127,,
39630,note_on,40,0,3,,,,,,,,,2,,,47,0
39630,control_change,0,0,3,,,,,,,,,2,64,127,,
39630,note_on,0,0,3,,,,,,,,,2,,,43,114
39630,note_on,240,0,1,,,,,,,,,0,,,74,0
39750,note_on,0,0,1,,,,,,,,,0,,,74,101
39750,note_on,0,0,1,,,,,,,,,0,,,74,0
39750,note_on,0,0,1,,,,,,,,,0,,,83,101
39750,note_on,120,0,1,,,,,,,,,0,,,79,0
39750,note_on,0,0,1,,,,,,,,,0,,,71,0
39750,note_on,0,0,1,,,,,,,,,0,,,79,101
39762,note_on,12,0,1,,,,,,,,,0,,,83,0
39762,note_on,0,0,1,,,,,,,,,0,,,79,0
39762,note_on,0,0,1,,,,,,,,,0,,,74,0
39840,note_on,0,0,3,,,,,,,,,2,,,45,114
39840,note_on,210,0,3,,,,,,,,,2,,,43,0
39870,note_on,108,0,1,,,,,,,,,0,,,71,101
39870,note_on,0,0,1,,,,,,,,,0,,,74,101
39870,note_on,0,0,1,,,,,,,,,0,,,79,101
39870,note_on,0,0,3,,,,,,,,,2,,,47,114
39870,note_on,30,0,3,,,,,,,,,2,,,45,0
39882,note_on,12,0,1,,,,,,,,,0,,,79,0
39882,note_on,0,0,1,,,,,,,,,0,,,74,0
39882,note_on,0,0,1,,,,,,,,,0,,,71,0
39960,note_on,90,0,3,,,,,,,,,2,,,47,0
39960,note_on,0,0,3,,,,,,,,,2,,,49,114
39990,note_on,0,0,1,,,,,,,,,0,,,67,101
39990,control_change,108,0,1,,,,,,,,,0,64,0,,
39990,note_on,0,0,3,,,,,,,,,2,,,50,114
39990,control_change,0,0,3,,,,,,,,,2,64,0,,
39990,note_on,30,0,3,,,,,,,,,2,,,49,0
39990,note_on,0,0,1,,,,,,,,,0,,,71,101
40002,note_on,12,0,1,,,,,,,,,0,,,71,0
40002,note_on,0,0,1,,,,,,,,,0,,,67,0
40080,note_on,0,0,3,,,,,,,,,2,,,54,114
40080,note_on,90,0,3,,,,,,,,,2,,,50,0
40110,note_on,30,0,3,,,,,,,,,2,,,54,0
40110,note_on,0,0,1,,,,,,,,,0,,,73,101
40110,note_on,0,0,1,,,,,,,,,0,,,79,101
40110,note_on,0,0,1,,,,,,,,,0,,,81,101
40110,note_on,108,0,1,,,,,,,,,0,,,69,101
40110,note_on,0,0,3,,,,,,,,,2,,,52,88
40350,note_on,0,0,1,,,,,,,,,0,,,81,114
40350,note_on,0,0,3,,,,,,,,,2,,,52,101
40350,note_on,0,0,3,,,,,,,,,2,,,57,101
40350,note_on,0,0,1,,,,,,,,,0,,,79,114
40350,note_on,240,0,3,,,,,,,,,2,,,52,0
40350,note_on,0,0,1,,,,,,,,,0,,,69,114
40350,note_on,0,0,1,,,,,,,,,0,,,73,114
40350,note_on,0,0,1,,,,,,,,,0,,,69,0
40350,note_on,240,0,1,,,,,,,,,0,,,81,0
40350,note_on,0,0,1,,,,,,,,,0,,,79,0
40350,note_on,0,0,1,,,,,,,,,0,,,73,0
40560,note_on,0,0,1,,,,,,,,,0,,,79,114
40560,note_on,0,0,1,,,,,,,,,0,,,73,114
40560,note_on,0,0,1,,,,,,,,,0,,,79,0
40560,note_on,0,0,1,,,,,,,,,0,,,73,0
40560,note_on,0,0,1,,,,,,,,,0,,,69,0
40560,note_on,210,0,3,,,,,,,,,2,,,57,0
40560,note_on,210,0,1,,,,,,,,,0,,,81,0
40560,note_on,0,0,3,,,,,,,,,2,,,52,0
40560,note_on,0,0,3,,,,,,,,,2,,,57,101
40560,note_on,0,0,1,,,,,,,,,0,,,81,114
40560,note_on,0,0,3,,,,,,,,,2,,,45,101
40564,note_on,4,0,3,,,,,,,,,2,,,57,0
40564,note_on,0,0,1,,,,,,,,,0,,,73,0
40564,note_on,0,0,1,,,,,,,,,0,,,79,0
40564,note_on,4,0,1,,,,,,,,,0,,,81,0
40564,note_on,0,0,3,,,,,,,,,2,,,45,0
40590,note_on,0,0,3,,,,,,,,,2,,,57,101
40590,note_on,26,0,3,,,,,,,,,2,,,45,101
40590,note_on,26,0,1,,,,,,,,,0,,,73,114
40590,note_on,0,0,1,,,,,,,,,0,,,79,114
40590,note_on,0,0,1,,,,,,,,,0,,,81,114
40599,note_on,9,0,1,,,,,,,,,0,,,81,0
40599,note_on,0,0,1,,,,,,,,,0,,,79,0
40599,note_on,0,0,1,,,,,,,,,0,,,73,0
40599,note_on,0,0,3,,,,,,,,,2,,,45,0
40599,note_on,9,0,3,,,,,,,,,2,,,57,0
40680,note_on,0,0,1,,,,,,,,,0,,,81,114
40680,note_on,0,0,3,,,,,,,,,2,,,55,101
40680,note_on,81,0,3,,,,,,,,,2,,,43,101
40680,note_on,0,0,1,,,,,,,,,0,,,79,114
40680,note_on,81,0,1,,,,,,,,,0,,,73,114
40684,note_on,0,0,1,,,,,,,,,0,,,79,0
40684,note_on,4,0,3,,,,,,,,,2,,,55,0
40684,note_on,4,0,1,,,,,,,,,0,,,81,0
40684,note_on,0,0,1,,,,,,,,,0,,,73,0
40684,note_on,0,0,3,,,,,,,,,2,,,43,0
40710,note_on,0,0,1,,,,,,,,,0,,,79,114
40710,note_on,26,0,3,,,,,,,,,2,,,42,101
40710,note_on,0,0,3,,,,,,,,,2,,,54,101
40710,note_on,0,0,1,,,,,,,,,0,,,83,114
40710,note_on,26,0,1,,,,,,,,,0,,,73,114
40719,note_on,9,0,3,,,,,,,,,2,,,54,0
40719,note_on,0,0,3,,,,,,,,,2,,,42,0
40719,note_on,9,0,1,,,,,,,,,0,,,83,0
40719,note_on,0,0,1,,,,,,,,,0,,,79,0
40719,note_on,0,0,1,,,,,,,,,0,,,73,0
40800,note_on,81,0,3,,,,,,,,,2,,,40,101
40800,note_on,0,0,3,,,,,,,,,2,,,52,101
40800,note_on,0,0,1,,,,,,,,,0,,,85,114
40800,note_on,0,0,1,,,,,,,,,0,,,79,114
40800,note_on,81,0,1,,,,,,,,,0,,,73,114
40804,note_on,4,0,1,,,,,,,,,0,,,85,0
40804,note_on,0,0,3,,,,,,,,,2,,,40,0
40804,note_on,4,0,3,,,,,,,,,2,,,52,0
40804,note_on,0,0,1,,,,,,,,,0,,,79,0
40804,note_on,0,0,1,,,,,,,,,0,,,73,0
40830,note_on,26,0,3,,,,,,,,,2,,,38,101
40830,note_on,0,0,3,,,,,,,,,2,,,50,101
40830,note_on,26,0,1,,,,,,,,,0,,,74,114
40830,note_on,0,0,1,,,,,,,,,0,,,78,114
40830,note_on,0,0,1,,,,,,,,,0,,,86,114
40830,note_on,0,0,3,,,,,,,,,2,,,45,101
41070,note_on,0,0,3,,,,,,,,,2,,,45,0
41070,note_on,240,0,1,,,,,,,,,0,,,86,0
41070,note_on,0,0,1,,,,,,,,,0,,,78,0
41070,note_on,0,0,1,,,,,,,,,0,,,74,0
41070,note_on,0,0,1,,,,,,,,,0,,,74,114
41070,note_on,0,0,1,,,,,,,,,0,,,78,114
41070,note_on,0,0,3,,,,,,,,,2,,,50,101
41070,note_on,0,0,3,,,,,,,,,2,,,45,101
41070,note_on,0,0,3,,,,,,,,,2,,,38,101
41070,note_on,0,0,3,,,,,,,,,2,,,38,0
41070,note_on,240,0,3,,,,,,,,,2,,,50,0
41070,note_on,0,0,1,,,,,,,,,0,,,86,114
41280,note_on,0,0,3,,,,,,,,,2,,,45,0
41280,note_on,210,0,3,,,,,,,,,2,,,50,0
41280,note_on,0,0,1,,,,,,,,,0,,,69,49
41280,note_on,0,0,1,,,,,,,,,0,,,66,49
41280,note_on,0,0,1,,,,,,,,,0,,,74,0
41280,note_on,0,0,3,,,,,,,,,2,,,38,0
41280,note_on,210,0,1,,,,,,,,,0,,,86,0
41280,note_on,0,0,1,,,,,,,,,0,,,78,0
41310,note_on,0,0,1,,,,,,,,,0,,,66,49
41310,note_on,0,0,1,,,,,,,,,0,,,66,0
41310,note_on,30,0,1,,,,,,,,,0,,,69,0
41310,note_on,0,0,1,,,,,,,,,0,,,69,49
41400,note_on,90,0,1,,,,,,,,,0,,,69,0
41400,note_on,0,0,1,,,,,,,,,0,,,66,0
41400,note_on,0,0,1,,,,,,,,,0,,,66,49
41400,note_on,0,0,1,,,,,,,,,0,,,69,49
41430,note_on,30,0,1,,,,,,,,,0,,,69,0
41430,note_on,0,0,1,,,,,,,,,0,,,66,0
41430,note_on,0,0,1,,,,,,,,,0,,,64,49
41430,note_on,0,0,1,,,,,,,,,0,,,67,49
41520,note_on,90,0,1,,,,,,,,,0,,,67,0
41520,note_on,0,0,1,,,,,,,,,0,,,64,0
41520,note_on,0,0,1,,,,,,,,,0,,,62,49
41520,note_on,0,0,1,,,,,,,,,0,,,66,49
41550,note_on,0,0,3,,,,,,,,,2,,,55,62
41550,note_on,30,0,1,,,,,,,,,0,,,66,0
41550,note_on,0,0,3,,,,,,,,,2,,,49,57
41550,note_on,0,0,1,,,,,,,,,0,,,57,67
41550,note_on,0,0,1,,,,,,,,,0,,,64,75
41550,note_on,0,0,1,,,,,,,,,0,,,62,0
41550,note_on,270,0,3,,,,,,,,,2,,,45,52
41790,note_on,0,0,1,,,,,,,,,0,,,64,75
41790,note_on,0,0,3,,,,,,,,,2,,,55,62
41790,note_on,0,0,3,,,,,,,,,2,,,49,57
41790,note_on,0,0,1,,,,,,,,,0,,,57,67
41790,note_on,0,0,1,,,,,,,,,0,,,57,0
41790,note_on,240,0,1,,,,,,,,,0,,,64,0
41790,note_on,0,0,3,,,,,,,,,2,,,45,52
41790,note_on,0,0,3,,,,,,,,,2,,,45,0
41790,note_on,240,0,3,,,,,,,,,2,,,55,0
41790,note_on,0,0,3,,,,,,,,,2,,,49,0
41970,set_tempo,16980,1,0,,,,,,338983,,,,,,,
42000,note_on,0,0,1,,,,,,,,,0,,,71,49
42000,note_on,0,0,1,,,,,,,,,0,,,67,49
42000,note_on,210,0,1,,,,,,,,,0,,,64,0
42000,note_on,0,0,1,,,,,,,,,0,,,57,0
42030,note_on,0,0,3,,,,,,,,,2,,,45,0
42030,note_on,0,0,3,,,,,,,,,2,,,49,0
42030,note_on,0,0,1,,,,,,,,,0,,,69,49
42030,note_on,0,0,1,,,,,,,,,0,,,66,49
42030,set_tempo,60,1,0,,,,,,344828,,,,,,,
42030,note_on,240,0,3,,,,,,,,,2,,,55,0
42030,note_on,0,0,1,,,,,,,,,0,,,67,0
42030,note_on,30,0,1,,,,,,,,,0,,,71,0
42090,set_tempo,60,1,0,,,,,,350877,,,,,,,
42120,note_on,0,0,1,,,,,,,,,0,,,64,49
42120,note_on,0,0,1,,,,,,,,,0,,,66,0
42120,note_on,90,0,1,,,,,,,,,0,,,69,0
42120,note_on,0,0,1,,,,,,,,,0,,,67,49
42150,note_on,30,0,1,,,,,,,,,0,,,67,0
42150,set_tempo,60,1,0,,,,,,359281,,,,,,,
42150,note_on,0,0,1,,,,,,,,,0,,,62,49
42150,note_on,0,0,1,,,,,,,,,0,,,64,0
42150,note_on,0,0,1,,,,,,,,,0,,,66,49
42210,set_tempo,60,1,0,,,,,,365854,,,,,,,
42240,note_on,0,0,1,,,,,,,,,0,,,64,49
42240,note_on,90,0,1,,,,,,,,,0,,,66,0
42240,note_on,0,0,1,,,,,,,,,0,,,62,0
42240,note_on,0,0,1,,,,,,,,,0,,,57,49
42270,note_on,0,0,3,,,,,,,,,2,,,50,62
42270,note_on,0,0,3,,,,,,,,,2,,,45,57
42270,note_on,240,0,3,,,,,,,,,2,,,38,52
42270,set_tempo,60,1,0,,,,,,372671,,,,,,,
42270,note_on,0,0,1,,,,,,,,,0,,,57,0
42270,note_on,0,0,1,,,,,,,,,0,,,54,67
42270,note_on,0,0,1,,,,,,,,,0,,,62,75
42270,note_on,30,0,1,,,,,,,,,0,,,64,0
42330,set_tempo,60,1,0,,,,,,379747,,,,,,,
42390,set_tempo,60,1,0,,,,,,389610,,,,,,,
42510,note_on,0,0,1,,,,,,,,,0,,,54,67
42510,note_on,0,0,1,,,,,,,,,0,,,54,0
42510,note_on,0,0,3,,,,,,,,,2,,,38,0
42510,note_on,0,0,1,,,,,,,,,0,,,62,75
42510,note_on,0,0,3,,,,,,,,,2,,,38,52
42510,note_on,0,0,3,,,,,,,,,2,,,50,62
42510,note_on,240,0,1,,,,,,,,,0,,,62,0
42510,note_on,0,0,3,,,,,,,,,2,,,45,0
42510,note_on,240,0,3,,,,,,,,,2,,,50,0
42510,note_on,0,0,3,,,,,,,,,2,,,45,57
42630,time_signature,240,1,0,3,16,6,8,,,,,,,,,
42720,time_signature,90,1,0,9,16,6,8,,,,,,,,,
42720,note_on,0,0,3,,,,,,,,,2,,,45,0
42720,note_on,0,0,3,,,,,,,,,2,,,38,0
42720,note_on,16650,0,2,,,,,,,,,1,,,57,101
42720,note_on,0,0,1,,,,,,,,,0,,,54,0
42720,note_on,210,0,1,,,,,,,,,0,,,62,0
42720,note_on,0,0,3,,,,,,,,,2,,,45,88
42720,note_on,210,0,3,,,,,,,,,2,,,50,0
42724,note_on,4,0,2,,,,,,,,,1,,,57,0
42724,note_on,4,0,3,,,,,,,,,2,,,45,0
42750,note_on,26,0,2,,,,,,,,,1,,,57,101
42750,note_on,26,0,3,,,,,,,,,2,,,45,88
42759,note_on,9,0,2,,,,,,,,,1,,,57,0
42759,note_on,9,0,3,,,,,,,,,2,,,45,0
42840,note_on,81,0,3,,,,,,,,,2,,,45,88
42840,note_on,81,0,2,,,,,,,,,1,,,57,101
42844,note_on,4,0,2,,,,,,,,,1,,,57,0
42844,note_on,4,0,3,,,,,,,,,2,,,45,0
42870,note_on,26,0,2,,,,,,,,,1,,,55,101
42870,note_on,26,0,3,,,,,,,,,2,,,43,88
42879,note_on,9,0,2,,,,,,,,,1,,,55,0
42879,note_on,9,0,3,,,,,,,,,2,,,43,0
42960,note_on,81,0,2,,,,,,,,,1,,,57,101
42960,note_on,81,0,3,,,,,,,,,2,,,45,88
42964,note_on,4,0,3,,,,,,,,,2,,,45,0
42964,note_on,4,0,2,,,,,,,,,1,,,57,0
42990,time_signature,270,1,0,3,4,24,8,,,,,,,,,
42990,control_change,26,0,3,,,,,,,,,2,64,127,,
42990,note_on,0,0,3,,,,,,,,,2,,,34,101
42990,control_change,26,0,2,,,,,,,,,1,64,127,,
42990,note_on,0,0,2,,,,,,,,,1,,,52,114
42990,note_on,0,0,2,,,,,,,,,1,,,55,114
42990,note_on,0,0,2,,,,,,,,,1,,,58,114
42990,note_on,0,0,2,,,,,,,,,1,,,61,114
42990,set_tempo,0,1,0,,,,,,333333,,,,,,,
42990,note_on,0,0,3,,,,,,,,,2,,,46,101
43230,note_on,240,0,3,,,,,,,,,2,,,46,0
43230,note_on,0,0,3,,,,,,,,,2,,,34,0
43230,note_on,0,0,3,,,,,,,,,2,,,34,101
43230,note_on,0,0,3,,,,,,,,,2,,,46,101
43230,note_on,240,0,2,,,,,,,,,1,,,61,0
43230,note_on,0,0,2,,,,,,,,,1,,,52,0
43230,note_on,0,0,2,,,,,,,,,1,,,61,114
43230,note_on,0,0,2,,,,,,,,,1,,,58,114
43230,note_on,0,0,2,,,,,,,,,1,,,55,114
43230,note_on,0,0,2,,,,,,,,,1,,,52,114
43230,note_on,0,0,2,,,,,,,,,1,,,58,0
43230,note_on,0,0,2,,,,,,,,,1,,,55,0
43350,control_change,120,0,2,,,,,,,,,1,64,0,,
43350,control_change,120,0,3,,,,,,,,,2,64,0,,
43410,note_on,60,0,2,,,,,,,,,1,,,61,0
43410,note_on,0,0,2,,,,,,,,,1,,,58,0
43410,note_on,0,0,2,,,,,,,,,1,,,52,0
43410,note_on,0,0,2,,,,,,,,,1,,,55,0
43440,note_on,0,0,3,,,,,,,,,2,,,34,0
43440,note_on,90,0,3,,,,,,,,,2,,,46,0
43440,note_on,0,0,3,,,,,,,,,2,,,57,101
43440,note_on,720,0,1,,,,,,,,,0,,,69,114
43444,note_on,4,0,3,,,,,,,,,2,,,57,0
43444,note_on,4,0,1,,,,,,,,,0,,,69,0
43470,note_on,26,0,1,,,,,,,,,0,,,69,114
43470,note_on,26,0,3,,,,,,,,,2,,,57,101
43479,note_on,9,0,3,,,,,,,,,2,,,57,0
43479,note_on,9,0,1,,,,,,,,,0,,,69,0
43560,note_on,81,0,1,,,,,,,,,0,,,69,114
43560,note_on,81,0,3,,,,,,,,,2,,,57,101
43564,note_on,4,0,3,,,,,,,,,2,,,57,0
43564,note_on,4,0,1,,,,,,,,,0,,,69,0
43590,note_on,26,0,3,,,,,,,,,2,,,55,101
43590,note_on,26,0,1,,,,,,,,,0,,,67,114
43599,note_on,9,0,3,,,,,,,,,2,,,55,0
43599,note_on,9,0,1,,,,,,,,,0,,,67,0
43680,note_on,81,0,3,,,,,,,,,2,,,57,101
43680,note_on,81,0,1,,,,,,,,,0,,,69,114
43684,note_on,4,0,3,,,,,,,,,2,,,57,0
43684,note_on,4,0,1,,,,,,,,,0,,,69,0
43710,note_on,26,0,1,,,,,,,,,0,,,62,114
43710,note_on,0,0,1,,,,,,,,,0,,,70,114
43710,note_on,0,0,1,,,,,,,,,0,,,74,114
43710,note_on,0,0,3,,,,,,,,,2,,,58,101
43710,note_on,0,0,3,,,,,,,,,2,,,53,101
43710,note_on,26,0,3,,,,,,,,,2,,,46,101
43710,note_on,0,0,1,,,,,,,,,0,,,65,114
43950,note_on,240,0,3,,,,,,,,,2,,,58,0
43950,note_on,0,0,3,,,,,,,,,2,,,53,0
43950,note_on,0,0,3,,,,,,,,,2,,,46,0
43950,note_on,0,0,3,,,,,,,,,2,,,46,101
43950,note_on,0,0,3,,,,,,,,,2,,,53,101
43950,note_on,0,0,1,,,,,,,,,0,,,74,114
43950,note_on,240,0,1,,,,,,,,,0,,,74,0
43950,note_on,0,0,1,,,,,,,,,0,,,62,0
43950,note_on,0,0,1,,,,,,,,,0,,,65,0
43950,note_on,0,0,1,,,,,,,,,0,,,70,0
43950,note_on,0,0,1,,,,,,,,,0,,,62,114
43950,note_on,0,0,1,,,,,,,,,0,,,65,114
43950,note_on,0,0,1,,,,,,,,,0,,,70,114
43950,note_on,0,0,3,,,,,,,,,2,,,58,101
44160,note_on,0,0,1,,,,,,,,,0,,,65,0
44160,note_on,0,0,1,,,,,,,,,0,,,70,0
44160,note_on,0,0,1,,,,,,,,,0,,,74,114
44160,note_on,0,0,1,,,,,,,,,0,,,77,114
44160,note_on,210,0,3,,,,,,,,,2,,,58,0
44160,note_on,0,0,3,,,,,,,,,2,,,53,0
44160,note_on,0,0,3,,,,,,,,,2,,,46,0
44160,note_on,0,0,3,,,,,,,,,2,,,62,101
44160,note_on,0,0,1,,,,,,,,,0,,,62,0
44160,note_on,210,0,1,,,,,,,,,0,,,74,0
44160,note_on,0,0,3,,,,,,,,,2,,,65,101
44164,note_on,0,0,1,,,,,,,,,0,,,74,0
44164,note_on,4,0,1,,,,,,,,,0,,,77,0
44164,note_on,0,0,3,,,,,,,,,2,,,62,0
44164,note_on,4,0,3,,,,,,,,,2,,,65,0
44190,note_on,26,0,1,,,,,,,,,0,,,74,127
44190,note_on,0,0,1,,,,,,,,,0,,,77,127
44190,note_on,0,0,3,,,,,,,,,2,,,65,127
44190,note_on,26,0,3,,,,,,,,,2,,,62,119
44199,note_on,9,0,1,,,,,,,,,0,,,77,0
44199,note_on,0,0,1,,,,,,,,,0,,,74,0
44199,note_on,9,0,3,,,,,,,,,2,,,65,0
44199,note_on,0,0,3,,,,,,,,,2,,,62,0
44280,note_on,81,0,3,,,,,,,,,2,,,62,101
44280,note_on,0,0,3,,,,,,,,,2,,,65,101
44280,note_on,0,0,1,,,,,,,,,0,,,77,114
44280,note_on,81,0,1,,,,,,,,,0,,,74,114
44284,note_on,4,0,3,,,,,,,,,2,,,65,0
44284,note_on,0,0,1,,,,,,,,,0,,,74,0
44284,note_on,4,0,1,,,,,,,,,0,,,77,0
44284,note_on,0,0,3,,,,,,,,,2,,,62,0
44310,note_on,26,0,3,,,,,,,,,2,,,61,101
44310,note_on,0,0,3,,,,,,,,,2,,,64,101
44310,note_on,0,0,1,,,,,,,,,0,,,76,114
44310,note_on,26,0,1,,,,,,,,,0,,,73,114
44319,note_on,9,0,1,,,,,,,,,0,,,76,0
44319,note_on,0,0,1,,,,,,,,,0,,,73,0
44319,note_on,9,0,3,,,,,,,,,2,,,64,0
44319,note_on,0,0,3,,,,,,,,,2,,,61,0
44400,note_on,0,0,3,,,,,,,,,2,,,65,101
44400,note_on,81,0,1,,,,,,,,,0,,,74,114
44400,note_on,81,0,3,,,,,,,,,2,,,62,101
44400,note_on,0,0,1,,,,,,,,,0,,,77,114
44404,note_on,0,0,1,,,,,,,,,0,,,74,0
44404,note_on,4,0,1,,,,,,,,,0,,,77,0
44404,note_on,0,0,3,,,,,,,,,2,,,62,0
44404,note_on,4,0,3,,,,,,,,,2,,,65,0
44430,note_on,26,0,3,,,,,,,,,2,,,58,119
44430,note_on,0,0,3,,,,,,,,,2,,,62,127
44430,note_on,0,0,1,,,,,,,,,0,,,74,127
44430,note_on,26,0,1,,,,,,,,,0,,,70,127
44439,note_on,9,0,1,,,,,,,,,0,,,74,0
44439,note_on,0,0,1,,,,,,,,,0,,,70,0
44439,note_on,0,0,3,,,,,,,,,2,,,58,0
44439,note_on,9,0,3,,,,,,,,,2,,,62,0
44520,note_on,0,0,3,,,,,,,,,2,,,62,101
44520,note_on,81,0,3,,,,,,,,,2,,,58,101
44520,note_on,81,0,1,,,,,,,,,0,,,70,114
44520,note_on,0,0,1,,,,,,,,,0,,,74,114
44524,note_on,4,0,1,,,,,,,,,0,,,74,0
44524,note_on,0,0,1,,,,,,,,,0,,,70,0
44524,note_on,4,0,3,,,,,,,,,2,,,62,0
44524,note_on,0,0,3,,,,,,,,,2,,,58,0
44550,note_on,0,0,1,,,,,,,,,0,,,73,114
44550,note_on,26,0,1,,,,,,,,,0,,,69,114
44550,note_on,0,0,3,,,,,,,,,2,,,61,101
44550,note_on,26,0,3,,,,,,,,,2,,,57,101
44559,note_on,0,0,1,,,,,,,,,0,,,69,0
44559,note_on,9,0,1,,,,,,,,,0,,,73,0
44559,note_on,9,0,3,,,,,,,,,2,,,61,0
44559,note_on,0,0,3,,,,,,,,,2,,,57,0
44640,note_on,0,0,3,,,,,,,,,2,,,62,101
44640,note_on,0,0,1,,,,,,,,,0,,,74,114
44640,note_on,81,0,3,,,,,,,,,2,,,58,101
44640,note_on,81,0,1,,,,,,,,,0,,,70,114
44644,note_on,4,0,1,,,,,,,,,0,,,74,0
44644,note_on,0,0,1,,,,,,,,,0,,,70,0
44644,note_on,4,0,3,,,,,,,,,2,,,62,0
44644,note_on,0,0,3,,,,,,,,,2,,,58,0
44670,note_on,26,0,1,,,,,,,,,0,,,67,127
44670,note_on,0,0,1,,,,,,,,,0,,,70,127
44670,note_on,26,0,3,,,,,,,,,2,,,55,119
44670,note_on,0,0,3,,,,,,,,,2,,,58,127
44679,note_on,9,0,1,,,,,,,,,0,,,70,0
44679,note_on,0,0,1,,,,,,,,,0,,,67,0
44679,note_on,0,0,3,,,,,,,,,2,,,55,0
44679,note_on,9,0,3,,,,,,,,,2,,,58,0
44760,note_on,0,0,1,,,,,,,,,0,,,70,114
44760,note_on,0,0,3,,,,,,,,,2,,,58,101
44760,note_on,81,0,1,,,,,,,,,0,,,67,114
44760,note_on,81,0,3,,,,,,,,,2,,,55,101
44764,note_on,0,0,1,,,,,,,,,0,,,67,0
44764,note_on,4,0,1,,,,,,,,,0,,,70,0
44764,note_on,4,0,3,,,,,,,,,2,,,58,0
44764,note_on,0,0,3,,,,,,,,,2,,,55,0
44790,note_on,26,0,1,,,,,,,,,0,,,66,114
44790,note_on,26,0,3,,,,,,,,,2,,,54,101
44790,note_on,0,0,3,,,,,,,,,2,,,57,101
44790,note_on,0,0,1,,,,,,,,,0,,,69,114
44799,note_on,9,0,3,,,,,,,,,2,,,57,0
44799,note_on,0,0,3,,,,,,,,,2,,,54,0
44799,note_on,9,0,1,,,,,,,,,0,,,69,0
44799,note_on,0,0,1,,,,,,,,,0,,,66,0
44880,note_on,81,0,3,,,,,,,,,2,,,55,101
44880,note_on,0,0,3,,,,,,,,,2,,,58,101
44880,note_on,0,0,1,,,,,,,,,0,,,70,114
44880,note_on,81,0,1,,,,,,,,,0,,,67,114
44884,note_on,4,0,3,,,,,,,,,2,,,58,0
44884,note_on,0,0,3,,,,,,,,,2,,,55,0
44884,note_on,4,0,1,,,,,,,,,0,,,70,0
44884,note_on,0,0,1,,,,,,,,,0,,,67,0
44910,note_on,0,0,1,,,,,,,,,0,,,67,114
44910,note_on,26,0,1,,,,,,,,,0,,,63,114
44910,note_on,26,0,3,,,,,,,,,2,,,51,101
44910,note_on,0,0,3,,,,,,,,,2,,,55,101
45150,note_on,0,0,1,,,,,,,,,0,,,63,0
45150,note_on,240,0,3,,,,,,,,,2,,,55,0
45150,note_on,0,0,3,,,,,,,,,2,,,51,0
45150,note_on,0,0,3,,,,,,,,,2,,,38,101
45150,note_on,0,0,3,,,,,,,,,2,,,50,101
45150,note_on,240,0,1,,,,,,,,,0,,,67,0
45150,note_on,0,0,1,,,,,,,,,0,,,67,114
45150,note_on,0,0,1,,,,,,,,,0,,,71,114
45150,note_on,0,0,1,,,,,,,,,0,,,75,114
45150,note_on,0,0,1,,,,,,,,,0,,,79,114
45390,note_on,0,0,1,,,,,,,,,0,,,71,0
45390,note_on,0,0,1,,,,,,,,,0,,,67,0
45390,note_on,0,0,3,,,,,,,,,2,,,48,101
45390,note_on,0,0,1,,,,,,,,,0,,,75,0
45390,note_on,240,0,3,,,,,,,,,2,,,50,0
45390,note_on,240,0,1,,,,,,,,,0,,,79,0
45390,note_on,0,0,1,,,,,,,,,0,,,67,114
45390,note_on,0,0,1,,,,,,,,,0,,,72,114
45390,note_on,0,0,1,,,,,,,,,0,,,75,114
45390,note_on,0,0,3,,,,,,,,,2,,,36,101
45390,note_on,0,0,3,,,,,,,,,2,,,38,0
45390,note_on,0,0,1,,,,,,,,,0,,,79,114
45630,note_on,0,0,1,,,,,,,,,0,,,67,0
45630,note_on,0,0,1,,,,,,,,,0,,,72,0
45630,note_on,0,0,1,,,,,,,,,0,,,75,0
45630,note_on,0,0,1,,,,,,,,,0,,,65,127
45630,note_on,0,0,1,,,,,,,,,0,,,74,127
45630,note_on,0,0,1,,,,,,,,,0,,,77,127
45630,note_on,240,0,3,,,,,,,,,2,,,48,0
45630,note_on,240,0,1,,,,,,,,,0,,,79,0
45630,note_on,0,0,3,,,,,,,,,2,,,36,0
45630,note_on,0,0,3,,,,,,,,,2,,,41,119
45630,note_on,0,0,3,,,,,,,,,2,,,53,127
45642,note_on,0,0,1,,,,,,,,,0,,,65,0
45642,note_on,0,0,3,,,,,,,,,2,,,41,0
45642,note_on,0,0,1,,,,,,,,,0,,,74,0
45642,note_on,12,0,3,,,,,,,,,2,,,53,0
45642,note_on,12,0,1,,,,,,,,,0,,,77,0
45750,note_on,0,0,1,,,,,,,,,0,,,72,127
45750,note_on,108,0,3,,,,,,,,,2,,,41,119
45750,note_on,0,0,3,,,,,,,,,2,,,53,127
45750,note_on,0,0,1,,,,,,,,,0,,,81,127
45750,note_on,108,0,1,,,,,,,,,0,,,69,127
45750,note_on,0,0,1,,,,,,,,,0,,,75,127
45762,note_on,12,0,3,,,,,,,,,2,,,53,0
45762,note_on,0,0,1,,,,,,,,,0,,,75,0
45762,note_on,0,0,1,,,,,,,,,0,,,69,0
45762,note_on,12,0,1,,,,,,,,,0,,,81,0
45762,note_on,0,0,1,,,,,,,,,0,,,72,0
45762,note_on,0,0,3,,,,,,,,,2,,,41,0
45870,note_on,0,0,3,,,,,,,,,2,,,46,101
45870,note_on,108,0,1,,,,,,,,,0,,,70,114
45870,note_on,0,0,1,,,,,,,,,0,,,74,114
45870,note_on,0,0,1,,,,,,,,,0,,,82,114
45870,note_on,108,0,3,,,,,,,,,2,,,34,101
46110,note_on,0,0,3,,,,,,,,,2,,,34,0
46110,note_on,240,0,3,,,,,,,,,2,,,46,0
46110,note_on,0,0,1,,,,,,,,,0,,,70,114
46110,note_on,240,0,1,,,,,,,,,0,,,82,0
46110,note_on,0,0,1,,,,,,,,,0,,,74,0
46110,note_on,0,0,1,,,,,,,,,0,,,70,0
46110,note_on,0,0,1,,,,,,,,,0,,,58,114
46110,note_on,0,0,1,,,,,,,,,0,,,62,114
46110,note_on,0,0,3,,,,,,,,,2,,,46,101
46110,note_on,0,0,3,,,,,,,,,2,,,53,101
46320,note_on,210,0,1,,,,,,,,,0,,,70,0
46320,note_on,0,0,3,,,,,,,,,2,,,46,0
46320,note_on,0,0,1,,,,,,,,,0,,,62,0
46320,note_on,0,0,1,,,,,,,,,0,,,58,0
46320,note_on,0,0,1,,,,,,,,,0,,,74,49
46320,note_on,0,0,1,,,,,,,,,0,,,77,49
46320,note_on,210,0,3,,,,,,,,,2,,,53,0
46324,note_on,4,0,1,,,,,,,,,0,,,77,0
46324,note_on,0,0,1,,,,,,,,,0,,,74,0
46350,note_on,26,0,1,,,,,,,,,0,,,74,49
46350,note_on,0,0,1,,,,,,,,,0,,,77,49
46359,note_on,9,0,1,,,,,,,,,0,,,77,0
46359,note_on,0,0,1,,,,,,,,,0,,,74,0
46440,note_on,81,0,1,,,,,,,,,0,,,74,49
46440,note_on,0,0,1,,,,,,,,,0,,,77,49
46444,note_on,4,0,1,,,,,,,,,0,,,77,0
46444,note_on,0,0,1,,,,,,,,,0,,,74,0
46470,note_on,0,0,1,,,,,,,,,0,,,76,49
46470,note_on,26,0,1,,,,,,,,,0,,,73,49
46479,note_on,9,0,1,,,,,,,,,0,,,76,0
46479,note_on,0,0,1,,,,,,,,,0,,,73,0
46560,note_on,0,0,1,,,,,,,,,0,,,77,49
46560,note_on,81,0,1,,,,,,,,,0,,,74,49
46564,note_on,0,0,1,,,,,,,,,0,,,74,0
46564,note_on,4,0,1,,,,,,,,,0,,,77,0
46590,note_on,0,0,1,,,,,,,,,0,,,74,75
46590,note_on,0,0,1,,,,,,,,,0,,,70,67
46590,control_change,26,0,1,,,,,,,,,0,64,127,,
46590,note_on,0,0,3,,,,,,,,,2,,,46,36
46590,control_change,270,0,3,,,,,,,,,2,64,127,,
46602,note_on,12,0,3,,,,,,,,,2,,,46,0
46710,note_on,108,0,3,,,,,,,,,2,,,53,62
46722,note_on,12,0,3,,,,,,,,,2,,,53,0
46830,note_on,0,0,1,,,,,,,,,0,,,74,75
46830,control_change,0,0,1,,,,,,,,,0,64,0,,
46830,note_on,0,0,3,,,,,,,,,2,,,62,36
46830,note_on,0,0,3,,,,,,,,,2,,,58,36
46830,control_change,108,0,3,,,,,,,,,2,64,0,,
46830,note_on,240,0,1,,,,,,,,,0,,,74,0
46830,note_on,0,0,1,,,,,,,,,0,,,70,0
46830,note_on,0,0,1,,,,,,,,,0,,,70,67
46842,note_on,0,0,3,,,,,,,,,2,,,58,0
46842,note_on,12,0,3,,,,,,,,,2,,,62,0
46950,note_on,0,0,3,,,,,,,,,2,,,46,36
46950,control_change,108,0,3,,,,,,,,,2,64,127,,
46950,control_change,120,0,1,,,,,,,,,0,64,127,,
46962,note_on,12,0,3,,,,,,,,,2,,,46,0
47040,note_on,0,0,1,,,,,,,,,0,,,70,0
47040,note_on,0,0,1,,,,,,,,,0,,,70,49
47040,note_on,0,0,1,,,,,,,,,0,,,74,49
47040,note_on,90,0,1,,,,,,,,,0,,,74,0
47044,note_on,4,0,1,,,,,,,,,0,,,74,0
47044,note_on,0,0,1,,,,,,,,,0,,,70,0
47070,note_on,26,0,1,,,,,,,,,0,,,70,49
47070,note_on,0,0,1,,,,,,,,,0,,,74,49
47070,note_on,108,0,3,,,,,,,,,2,,,53,62
47079,note_on,9,0,1,,,,,,,,,0,,,74,0
47079,note_on,0,0,1,,,,,,,,,0,,,70,0
47082,note_on,12,0,3,,,,,,,,,2,,,53,0
47160,note_on,0,0,1,,,,,,,,,0,,,74,49
47160,note_on,81,0,1,,,,,,,,,0,,,70,49
47164,note_on,4,0,1,,,,,,,,,0,,,74,0
47164,note_on,0,0,1,,,,,,,,,0,,,70,0
47190,note_on,0,0,3,,,,,,,,,2,,,62,36
47190,note_on,0,0,3,,,,,,,,,2,,,58,36
47190,control_change,108,0,3,,,,,,,,,2,64,0,,
47190,note_on,26,0,1,,,,,,,,,0,,,69,49
47190,note_on,0,0,1,,,,,,,,,0,,,73,49
47199,note_on,0,0,1,,,,,,,,,0,,,69,0
47199,note_on,9,0,1,,,,,,,,,0,,,73,0
47202,note_on,0,0,3,,,,,,,,,2,,,58,0
47202,note_on,12,0,3,,,,,,,,,2,,,62,0
47280,note_on,0,0,1,,,,,,,,,0,,,74,49
47280,note_on,0,0,1,,,,,,,,,0,,,70,49
47280,control_change,81,0,1,,,,,,,,,0,64,0,,
47284,note_on,4,0,1,,,,,,,,,0,,,74,0
47284,note_on,0,0,1,,,,,,,,,0,,,70,0
47310,note_on,0,0,1,,,,,,,,,0,,,77,75
47310,note_on,0,0,1,,,,,,,,,0,,,74,67
47310,control_change,26,0,1,,,,,,,,,0,64,127,,
47310,control_change,108,0,3,,,,,,,,,2,64,127,,
47310,note_on,0,0,3,,,,,,,,,2,,,45,36
47322,note_on,12,0,3,,,,,,,,,2,,,45,0
47430,note_on,108,0,3,,,,,,,,,2,,,53,62
47442,note_on,12,0,3,,,,,,,,,2,,,53,0
47550,note_on,240,0,1,,,,,,,,,0,,,77,0
47550,note_on,0,0,3,,,,,,,,,2,,,60,36
47550,note_on,0,0,3,,,,,,,,,2,,,63,36
47550,control_change,0,0,1,,,,,,,,,0,64,0,,
47550,note_on,0,0,1,,,,,,,,,0,,,75,75
47550,note_on,0,0,1,,,,,,,,,0,,,72,67
47550,note_on,0,0,1,,,,,,,,,0,,,74,0
47550,control_change,108,0,3,,,,,,,,,2,64,0,,
47562,note_on,12,0,3,,,,,,,,,2,,,63,0
47562,note_on,0,0,3,,,,,,,,,2,,,60,0
47670,note_on,0,0,3,,,,,,,,,2,,,45,36
47670,control_change,120,0,1,,,,,,,,,0,64,127,,
47670,control_change,108,0,3,,,,,,,,,2,64,127,,
47682,note_on,12,0,3,,,,,,,,,2,,,45,0
47760,note_on,0,0,1,,,,,,,,,0,,,72,49
47760,note_on,90,0,1,,,,,,,,,0,,,75,0
47760,note_on,0,0,1,,,,,,,,,0,,,72,0
47760,note_on,0,0,1,,,,,,,,,0,,,75,49
47760,note_on,0,0,1,,,,,,,,,0,,,77,49
47790,note_on,108,0,3,,,,,,,,,2,,,53,62
47790,note_on,0,0,1,,,,,,,,,0,,,77,49
47790,note_on,0,0,1,,,,,,,,,0,,,75,49
47790,note_on,0,0,1,,,,,,,,,0,,,72,49
47790,note_on,0,0,1,,,,,,,,,0,,,72,0
47790,note_on,0,0,1,,,,,,,,,0,,,75,0
47790,note_on,30,0,1,,,,,,,,,0,,,77,0
47802,note_on,12,0,3,,,,,,,,,2,,,53,0
47880,note_on,90,0,1,,,,,,,,,0,,,77,0
47880,note_on,0,0,1,,,,,,,,,0,,,75,0
47880,note_on,0,0,1,,,,,,,,,0,,,72,49
47880,note_on,0,0,1,,,,,,,,,0,,,75,49
47880,note_on,0,0,1,,,,,,,,,0,,,77,49
47880,note_on,0,0,1,,,,,,,,,0,,,72,0
47910,note_on,30,0,1,,,,,,,,,0,,,77,0
47910,control_change,108,0,3,,,,,,,,,2,64,0,,
47910,note_on,0,0,3,,,,,,,,,2,,,60,36
47910,note_on,0,0,3,,,,,,,,,2,,,63,36
47910,note_on,0,0,1,,,,,,,,,0,,,75,0
47910,note_on,0,0,1,,,,,,,,,0,,,77,49
47910,note_on,0,0,1,,,,,,,,,0,,,72,0
47910,note_on,0,0,1,,,,,,,,,0,,,71,49
47910,note_on,0,0,1,,,,,,,,,0,,,74,49
47922,note_on,12,0,3,,,,,,,,,2,,,63,0
47922,note_on,0,0,3,,,,,,,,,2,,,60,0
48000,note_on,0,0,1,,,,,,,,,0,,,74,0
48000,note_on,90,0,1,,,,,,,,,0,,,77,0
48000,note_on,0,0,1,,,,,,,,,0,,,71,0
48000,note_on,0,0,1,,,,,,,,,0,,,75,49
48000,note_on,0,0,1,,,,,,,,,0,,,77,49
48000,control_change,0,0,1,,,,,,,,,0,64,0,,
48000,note_on,0,0,1,,,,,,,,,0,,,72,49
48030,note_on,0,0,1,,,,,,,,,0,,,77,75
48030,note_on,0,0,3,,,,,,,,,2,,,41,36
48030,control_change,108,0,3,,,,,,,,,2,64,127,,
48030,note_on,30,0,1,,,,,,,,,0,,,77,0
48030,control_change,0,0,1,,,,,,,,,0,64,127,,
48030,note_on,0,0,1,,,,,,,,,0,,,75,0
48030,note_on,0,0,1,,,,,,,,,0,,,72,0
48030,note_on,0,0,1,,,,,,,,,0,,,69,65
48030,note_on,0,0,1,,,,,,,,,0,,,72,70
48042,note_on,12,0,3,,,,,,,,,2,,,41,0
48150,note_on,108,0,3,,,,,,,,,2,,,53,36
48162,note_on,12,0,3,,,,,,,,,2,,,53,0
48270,note_on,0,0,1,,,,,,,,,0,,,69,0
48270,note_on,0,0,1,,,,,,,,,0,,,69,65
48270,note_on,0,0,1,,,,,,,,,0,,,72,70
48270,note_on,0,0,1,,,,,,,,,0,,,77,75
48270,control_change,0,0,1,,,,,,,,,0,64,0,,
48270,note_on,0,0,1,,,,,,,,,0,,,72,0
48270,note_on,240,0,1,,,,,,,,,0,,,77,0
48270,control_change,108,0,3,,,,,,,,,2,64,0,,
48270,note_on,0,0,3,,,,,,,,,2,,,63,36
48270,note_on,0,0,3,,,,,,,,,2,,,60,36
48282,note_on,12,0,3,,,,,,,,,2,,,63,0
48282,note_on,0,0,3,,,,,,,,,2,,,60,0
48390,note_on,0,0,3,,,,,,,,,2,,,41,36
48390,control_change,108,0,3,,,,,,,,,2,64,127,,
48390,control_change,120,0,1,,,,,,,,,0,64,127,,
48402,note_on,12,0,3,,,,,,,,,2,,,41,0
48480,note_on,0,0,1,,,,,,,,,0,,,69,49
48480,note_on,0,0,1,,,,,,,,,0,,,69,0
48480,note_on,0,0,1,,,,,,,,,0,,,72,0
48480,note_on,90,0,1,,,,,,,,,0,,,77,0
48480,note_on,0,0,1,,,,,,,,,0,,,77,49
48480,note_on,0,0,1,,,,,,,,,0,,,72,49
48510,note_on,30,0,1,,,,,,,,,0,,,77,0
48510,note_on,0,0,1,,,,,,,,,0,,,72,0
48510,note_on,0,0,1,,,,,,,,,0,,,69,0
48510,note_on,0,0,1,,,,,,,,,0,,,69,49
48510,note_on,0,0,1,,,,,,,,,0,,,77,49
48510,note_on,0,0,1,,,,,,,,,0,,,72,49
48510,note_on,108,0,3,,,,,,,,,2,,,53,36
48522,note_on,12,0,3,,,,,,,,,2,,,53,0
48600,note_on,0,0,1,,,,,,,,,0,,,77,49
48600,note_on,0,0,1,,,,,,,,,0,,,69,49
48600,note_on,0,0,1,,,,,,,,,0,,,69,0
48600,note_on,0,0,1,,,,,,,,,0,,,72,0
48600,note_on,90,0,1,,,,,,,,,0,,,77,0
48600,note_on,0,0,1,,,,,,,,,0,,,72,49
48630,control_change,108,0,3,,,,,,,,,2,64,0,,
48630,note_on,30,0,1,,,,,,,,,0,,,77,0
48630,note_on,0,0,3,,,,,,,,,2,,,60,36
48630,note_on,0,0,3,,,,,,,,,2,,,63,36
48630,note_on,0,0,1,,,,,,,,,0,,,69,0
48630,note_on,0,0,1,,,,,,,,,0,,,68,49
48630,note_on,0,0,1,,,,,,,,,0,,,71,49
48630,note_on,0,0,1,,,,,,,,,0,,,77,49
48630,note_on,0,0,1,,,,,,,,,0,,,72,0
48642,note_on,12,0,3,,,,,,,,,2,,,63,0
48642,note_on,0,0,3,,,,,,,,,2,,,60,0
48720,note_on,90,0,1,,,,,,,,,0,,,77,0
48720,note_on,0,0,1,,,,,,,,,0,,,71,0
48720,note_on,0,0,1,,,,,,,,,0,,,68,0
48720,note_on,0,0,1,,,,,,,,,0,,,69,49
48720,note_on,0,0,1,,,,,,,,,0,,,72,49
48720,note_on,0,0,1,,,,,,,,,0,,,77,49
48720,control_change,0,0,1,,,,,,,,,0,64,0,,
48750,control_change,108,0,3,,,,,,,,,2,64,127,,
48750,note_on,30,0,1,,,,,,,,,0,,,77,0
48750,note_on,0,0,3,,,,,,,,,2,,,46,36
48750,note_on,0,0,1,,,,,,,,,0,,,72,0
48750,note_on,0,0,1,,,,,,,,,0,,,69,0
48750,note_on,0,0,1,,,,,,,,,0,,,69,65
48750,note_on,0,0,1,,,,,,,,,0,,,73,70
48750,note_on,0,0,1,,,,,,,,,0,,,77,75
48750,control_change,0,0,1,,,,,,,,,0,64,127,,
48762,note_on,12,0,3,,,,,,,,,2,,,46,0
48870,note_on,108,0,3,,,,,,,,,2,,,53,62
48882,note_on,12,0,3,,,,,,,,,2,,,53,0
48990,note_on,240,0,1,,,,,,,,,0,,,77,0
48990,note_on,0,0,1,,,,,,,,,0,,,73,0
48990,note_on,0,0,1,,,,,,,,,0,,,69,0
48990,note_on,0,0,1,,,,,,,,,0,,,77,75
48990,note_on,0,0,1,,,,,,,,,0,,,74,70
48990,control_change,0,0,1,,,,,,,,,0,64,0,,
48990,note_on,0,0,3,,,,,,,,,2,,,62,36
48990,note_on,0,0,3,,,,,,,,,2,,,58,36
48990,control_change,108,0,3,,,,,,,,,2,64,0,,
48990,note_on,0,0,1,,,,,,,,,0,,,70,65
49002,note_on,0,0,3,,,,,,,,,2,,,58,0
49002,note_on,12,0,3,,,,,,,,,2,,,62,0
49110,control_change,120,0,1,,,,,,,,,0,64,127,,
49110,control_change,108,0,3,,,,,,,,,2,64,127,,
49110,note_on,0,0,3,,,,,,,,,2,,,46,36
49122,note_on,12,0,3,,,,,,,,,2,,,46,0
49200,note_on,0,0,1,,,,,,,,,0,,,70,0
49200,note_on,0,0,1,,,,,,,,,0,,,74,0
49200,note_on,0,0,1,,,,,,,,,0,,,70,49
49200,note_on,0,0,1,,,,,,,,,0,,,74,49
49200,note_on,0,0,1,,,,,,,,,0,,,77,49
49200,note_on,90,0,1,,,,,,,,,0,,,77,0
49230,note_on,108,0,3,,,,,,,,,2,,,53,62
49230,note_on,0,0,1,,,,,,,,,0,,,77,49
49230,note_on,30,0,1,,,,,,,,,0,,,77,0
49230,note_on,0,0,1,,,,,,,,,0,,,70,49
49230,note_on,0,0,1,,,,,,,,,0,,,74,0
49230,note_on,0,0,1,,,,,,,,,0,,,70,0
49230,note_on,0,0,1,,,,,,,,,0,,,74,49
49242,note_on,12,0,3,,,,,,,,,2,,,53,0
49320,note_on,90,0,1,,,,,,,,,0,,,77,0
49320,note_on,0,0,1,,,,,,,,,0,,,74,0
49320,note_on,0,0,1,,,,,,,,,0,,,70,0
49320,note_on,0,0,1,,,,,,,,,0,,,70,49
49320,note_on,0,0,1,,,,,,,,,0,,,74,49
49320,note_on,0,0,1,,,,,,,,,0,,,77,49
49350,control_change,108,0,3,,,,,,,,,2,64,0,,
49350,note_on,0,0,3,,,,,,,,,2,,,58,36
49350,note_on,0,0,3,,,,,,,,,2,,,62,36
49350,note_on,0,0,1,,,,,,,,,0,,,70,0
49350,note_on,0,0,1,,,,,,,,,0,,,76,49
49350,note_on,0,0,1,,,,,,,,,0,,,74,49
49350,note_on,0,0,1,,,,,,,,,0,,,70,49
49350,note_on,0,0,1,,,,,,,,,0,,,74,0
49350,note_on,30,0,1,,,,,,,,,0,,,77,0
49362,note_on,0,0,3,,,,,,,,,2,,,58,0
49362,note_on,12,0,3,,,,,,,,,2,,,62,0
49440,note_on,0,0,1,,,,,,,,,0,,,70,0
49440,note_on,0,0,1,,,,,,,,,0,,,74,49
49440,note_on,0,0,1,,,,,,,,,0,,,77,49
49440,control_change,0,0,1,,,,,,,,,0,64,0,,
49440,note_on,0,0,1,,,,,,,,,0,,,74,0
49440,note_on,90,0,1,,,,,,,,,0,,,76,0
49440,note_on,0,0,1,,,,,,,,,0,,,70,49
49470,note_on,0,0,1,,,,,,,,,0,,,70,49
49470,control_change,0,0,1,,,,,,,,,0,64,127,,
49470,note_on,0,0,1,,,,,,,,,0,,,79,49
49470,note_on,0,0,1,,,,,,,,,0,,,74,49
49470,note_on,0,0,1,,,,,,,,,0,,,70,0
49470,note_on,0,0,1,,,,,,,,,0,,,74,0
49470,control_change,108,0,3,,,,,,,,,2,64,127,,
49470,note_on,0,0,3,,,,,,,,,2,,,43,36
49470,note_on,30,0,1,,,,,,,,,0,,,77,0
49482,note_on,12,0,3,,,,,,,,,2,,,43,0
49590,note_on,108,0,3,,,,,,,,,2,,,55,36
49602,note_on,12,0,3,,,,,,,,,2,,,55,0
49710,note_on,0,0,3,,,,,,,,,2,,,58,36
49710,note_on,0,0,3,,,,,,,,,2,,,62,36
49710,control_change,0,0,1,,,,,,,,,0,64,0,,
49710,note_on,0,0,1,,,,,,,,,0,,,79,49
49710,note_on,0,0,1,,,,,,,,,0,,,74,49
49710,control_change,108,0,3,,,,,,,,,2,64,0,,
49710,note_on,0,0,1,,,,,,,,,0,,,70,49
49710,note_on,240,0,1,,,,,,,,,0,,,79,0
49710,note_on,0,0,1,,,,,,,,,0,,,74,0
49710,note_on,0,0,1,,,,,,,,,0,,,70,0
49722,note_on,12,0,3,,,,,,,,,2,,,62,0
49722,note_on,0,0,3,,,,,,,,,2,,,58,0
49830,note_on,0,0,3,,,,,,,,,2,,,43,36
49830,control_change,108,0,3,,,,,,,,,2,64,127,,
49830,control_change,120,0,1,,,,,,,,,0,64,127,,
49920,note_on,0,0,1,,,,,,,,,0,,,74,49
49920,note_on,0,0,1,,,,,,,,,0,,,79,49
49920,note_on,0,0,1,,,,,,,,,0,,,70,0
49920,note_on,0,0,1,,,,,,,,,0,,,70,49
49920,note_on,90,0,1,,,,,,,,,0,,,79,0
49920,note_on,0,0,1,,,,,,,,,0,,,74,0
49950,note_on,30,0,1,,,,,,,,,0,,,79,0
49950,note_on,0,0,3,,,,,,,,,2,,,55,36
49950,note_on,0,0,1,,,,,,,,,0,,,74,0
49950,note_on,120,0,3,,,,,,,,,2,,,43,0
49950,note_on,0,0,1,,,,,,,,,0,,,70,49
49950,note_on,0,0,1,,,,,,,,,0,,,74,49
49950,note_on,0,0,1,,,,,,,,,0,,,79,49
49950,note_on,0,0,1,,,,,,,,,0,,,70,0
50040,note_on,90,0,1,,,,,,,,,0,,,79,0
50040,note_on,0,0,1,,,,,,,,,0,,,74,0
50040,note_on,0,0,1,,,,,,,,,0,,,70,0
50040,note_on,0,0,1,,,,,,,,,0,,,70,49
50040,note_on,0,0,1,,,,,,,,,0,,,74,49
50040,note_on,0,0,1,,,,,,,,,0,,,82,49
50070,note_on,120,0,3,,,,,,,,,2,,,55,0
50070,control_change,0,0,3,,,,,,,,,2,64,0,,
50070,note_on,0,0,3,,,,,,,,,2,,,58,36
50070,note_on,0,0,1,,,,,,,,,0,,,81,49
50070,note_on,30,0,1,,,,,,,,,0,,,82,0
50070,note_on,0,0,1,,,,,,,,,0,,,70,49
50070,note_on,0,0,1,,,,,,,,,0,,,70,0
50070,note_on,0,0,1,,,,,,,,,0,,,74,0
50070,note_on,0,0,3,,,,,,,,,2,,,62,36
50070,note_on,0,0,1,,,,,,,,,0,,,74,49
50160,note_on,0,0,1,,,,,,,,,0,,,79,49
50160,control_change,0,0,1,,,,,,,,,0,64,0,,
50160,note_on,0,0,1,,,,,,,,,0,,,70,49
50160,note_on,90,0,1,,,,,,,,,0,,,81,0
50160,note_on,0,0,1,,,,,,,,,0,,,74,0
50160,note_on,0,0,1,,,,,,,,,0,,,70,0
50160,note_on,0,0,1,,,,,,,,,0,,,74,49
50190,control_change,0,0,3,,,,,,,,,2,64,127,,
50190,note_on,0,0,3,,,,,,,,,2,,,46,36
50190,note_on,0,0,3,,,,,,,,,2,,,58,0
50190,note_on,120,0,3,,,,,,,,,2,,,62,0
50190,control_change,0,0,1,,,,,,,,,0,64,127,,
50190,note_on,0,0,1,,,,,,,,,0,,,77,49
50190,note_on,0,0,1,,,,,,,,,0,,,74,49
50190,note_on,0,0,1,,,,,,,,,0,,,70,49
50190,note_on,0,0,1,,,,,,,,,0,,,70,0
50190,note_on,0,0,1,,,,,,,,,0,,,74,0
50190,note_on,30,0,1,,,,,,,,,0,,,79,0
50310,note_on,0,0,3,,,,,,,,,2,,,53,36
50310,note_on,120,0,3,,,,,,,,,2,,,46,0
50430,note_on,0,0,1,,,,,,,,,0,,,74,0
50430,note_on,0,0,1,,,,,,,,,0,,,70,0
50430,note_on,0,0,1,,,,,,,,,0,,,77,49
50430,control_change,0,0,1,,,,,,,,,0,64,0,,
50430,note_on,240,0,1,,,,,,,,,0,,,77,0
50430,note_on,0,0,1,,,,,,,,,0,,,70,49
50430,note_on,0,0,1,,,,,,,,,0,,,74,49
50430,control_change,0,0,3,,,,,,,,,2,64,0,,
50430,note_on,0,0,3,,,,,,,,,2,,,58,36
50430,note_on,0,0,3,,,,,,,,,2,,,62,36
50430,note_on,120,0,3,,,,,,,,,2,,,53,0
50550,note_on,120,0,3,,,,,,,,,2,,,62,0
50550,note_on,0,0,3,,,,,,,,,2,,,58,0
50550,control_change,0,0,3,,,,,,,,,2,64,127,,
50550,note_on,0,0,3,,,,,,,,,2,,,46,36
50550,control_change,120,0,1,,,,,,,,,0,64,127,,
50640,note_on,90,0,1,,,,,,,,,0,,,77,0
50640,note_on,0,0,1,,,,,,,,,0,,,74,0
50640,note_on,0,0,1,,,,,,,,,0,,,70,0
50640,note_on,0,0,1,,,,,,,,,0,,,70,49
50640,note_on,0,0,1,,,,,,,,,0,,,74,49
50640,note_on,0,0,1,,,,,,,,,0,,,77,49
50670,note_on,0,0,1,,,,,,,,,0,,,70,0
50670,note_on,0,0,1,,,,,,,,,0,,,74,0
50670,note_on,0,0,1,,,,,,,,,0,,,70,49
50670,note_on,0,0,1,,,,,,,,,0,,,74,49
50670,note_on,0,0,3,,,,,,,,,2,,,53,36
50670,note_on,120,0,3,,,,,,,,,2,,,46,0
50670,note_on,0,0,1,,,,,,,,,0,,,77,49
50670,note_on,30,0,1,,,,,,,,,0,,,77,0
50760,note_on,0,0,1,,,,,,,,,0,,,77,49
50760,note_on,0,0,1,,,,,,,,,0,,,70,0
50760,note_on,0,0,1,,,,,,,,,0,,,74,49
50760,note_on,0,0,1,,,,,,,,,0,,,74,0
50760,note_on,90,0,1,,,,,,,,,0,,,77,0
50760,note_on,0,0,1,,,,,,,,,0,,,70,49
50790,note_on,0,0,1,,,,,,,,,0,,,79,49
50790,note_on,120,0,3,,,,,,,,,2,,,53,0
50790,control_change,0,0,3,,,,,,,,,2,64,0,,
50790,note_on,0,0,3,,,,,,,,,2,,,58,36
50790,note_on,0,0,3,,,,,,,,,2,,,62,36
50790,note_on,30,0,1,,,,,,,,,0,,,77,0
50790,note_on,0,0,1,,,,,,,,,0,,,74,0
50790,note_on,0,0,1,,,,,,,,,0,,,70,0
50790,note_on,0,0,1,,,,,,,,,0,,,70,49
50790,note_on,0,0,1,,,,,,,,,0,,,75,49
50880,control_change,0,0,1,,,,,,,,,0,64,0,,
50880,note_on,0,0,1,,,,,,,,,0,,,77,49
50880,note_on,0,0,1,,,,,,,,,0,,,70,49
50880,note_on,0,0,1,,,,,,,,,0,,,74,49
50880,note_on,0,0,1,,,,,,,,,0,,,75,0
50880,note_on,90,0,1,,,,,,,,,0,,,79,0
50880,note_on,0,0,1,,,,,,,,,0,,,70,0
50910,note_on,0,0,3,,,,,,,,,2,,,41,36
50910,note_on,120,0,3,,,,,,,,,2,,,62,0
50910,control_change,0,0,3,,,,,,,,,2,64,127,,
50910,note_on,0,0,3,,,,,,,,,2,,,58,0
50910,control_change,0,0,1,,,,,,,,,0,64,127,,
50910,note_on,30,0,1,,,,,,,,,0,,,77,0
50910,note_on,0,0,1,,,,,,,,,0,,,74,49
50910,note_on,0,0,1,,,,,,,,,0,,,69,49
50910,note_on,0,0,1,,,,,,,,,0,,,70,0
50910,note_on,0,0,1,,,,,,,,,0,,,74,0
50910,note_on,0,0,1,,,,,,,,,0,,,77,49
51030,note_on,120,0,3,,,,,,,,,2,,,41,0
51030,note_on,0,0,3,,,,,,,,,2,,,48,36
51150,note_on,120,0,3,,,,,,,,,2,,,48,0
51150,control_change,0,0,3,,,,,,,,,2,64,0,,
51150,control_change,0,0,1,,,,,,,,,0,64,0,,
51150,note_on,0,0,3,,,,,,,,,2,,,63,36
51150,note_on,0,0,3,,,,,,,,,2,,,60,36
51150,note_on,240,0,1,,,,,,,,,0,,,77,0
51150,note_on,0,0,1,,,,,,,,,0,,,74,0
51150,note_on,0,0,1,,,,,,,,,0,,,69,0
51150,note_on,0,0,1,,,,,,,,,0,,,69,49
51150,note_on,0,0,1,,,,,,,,,0,,,72,49
51150,note_on,0,0,1,,,,,,,,,0,,,75,49
51270,control_change,0,0,3,,,,,,,,,2,64,127,,
51270,note_on,0,0,3,,,,,,,,,2,,,41,36
51270,note_on,120,0,3,,,,,,,,,2,,,63,0
51270,note_on,0,0,3,,,,,,,,,2,,,60,0
51270,control_change,120,0,1,,,,,,,,,0,64,127,,
51360,note_on,90,0,1,,,,,,,,,0,,,75,0
51360,note_on,0,0,1,,,,,,,,,0,,,72,0
51360,note_on,0,0,1,,,,,,,,,0,,,75,49
51360,note_on,0,0,1,,,,,,,,,0,,,72,49
51360,note_on,0,0,1,,,,,,,,,0,,,65,49
51360,note_on,0,0,1,,,,,,,,,0,,,69,0
51390,note_on,0,0,1,,,,,,,,,0,,,75,49
51390,note_on,0,0,1,,,,,,,,,0,,,72,49
51390,note_on,0,0,1,,,,,,,,,0,,,65,49
51390,note_on,0,0,1,,,,,,,,,0,,,65,0
51390,note_on,0,0,1,,,,,,,,,0,,,72,0
51390,note_on,30,0,1,,,,,,,,,0,,,75,0
51390,note_on,0,0,3,,,,,,,,,2,,,48,36
51390,note_on,120,0,3,,,,,,,,,2,,,41,0
51480,note_on,0,0,1,,,,,,,,,0,,,72,0
51480,note_on,90,0,1,,,,,,,,,0,,,75,0
51480,note_on,0,0,1,,,,,,,,,0,,,65,0
51480,note_on,0,0,1,,,,,,,,,0,,,65,49
51480,note_on,0,0,1,,,,,,,,,0,,,75,49
51480,note_on,0,0,1,,,,,,,,,0,,,72,49
51510,note_on,0,0,1,,,,,,,,,0,,,65,0
51510,note_on,0,0,1,,,,,,,,,0,,,65,49
51510,note_on,0,0,1,,,,,,,,,0,,,70,49
51510,note_on,0,0,1,,,,,,,,,0,,,74,49
51510,note_on,0,0,1,,,,,,,,,0,,,72,0
51510,note_on,30,0,1,,,,,,,,,0,,,75,0
51510,note_on,120,0,3,,,,,,,,,2,,,48,0
51510,control_change,0,0,3,,,,,,,,,2,64,0,,
51510,note_on,0,0,3,,,,,,,,,2,,,60,36
51510,note_on,0,0,3,,,,,,,,,2,,,63,36
51600,note_on,0,0,1,,,,,,,,,0,,,65,0
51600,note_on,90,0,1,,,,,,,,,0,,,74,0
51600,note_on,0,0,1,,,,,,,,,0,,,70,0
51600,control_change,0,0,1,,,,,,,,,0,64,0,,
51600,note_on,0,0,1,,,,,,,,,0,,,69,49
51600,note_on,0,0,1,,,,,,,,,0,,,72,49
51600,note_on,0,0,1,,,,,,,,,0,,,65,49
51630,note_on,0,0,1,,,,,,,,,0,,,70,49
51630,control_change,0,0,1,,,,,,,,,0,64,127,,
51630,note_on,0,0,1,,,,,,,,,0,,,69,0
51630,note_on,0,0,1,,,,,,,,,0,,,65,0
51630,note_on,0,0,1,,,,,,,,,0,,,62,49
51630,note_on,0,0,1,,,,,,,,,0,,,65,49
51630,note_on,30,0,1,,,,,,,,,0,,,72,0
51630,note_on,120,0,3,,,,,,,,,2,,,63,0
51630,note_on,0,0,3,,,,,,,,,2,,,60,0
51630,control_change,0,0,3,,,,,,,,,2,64,127,,
51630,note_on,0,0,3,,,,,,,,,2,,,46,36
51690,set_tempo,8700,1,0,,,,,,338983,,,,,,,
51750,note_on,0,0,3,,,,,,,,,2,,,50,36
51750,note_on,120,0,3,,,,,,,,,2,,,46,0
51750,set_tempo,60,1,0,,,,,,344828,,,,,,,
51810,set_tempo,60,1,0,,,,,,350877,,,,,,,
51870,note_on,0,0,3,,,,,,,,,2,,,53,36
51870,control_change,0,0,3,,,,,,,,,2,64,0,,
51870,note_on,120,0,3,,,,,,,,,2,,,50,0
51870,note_on,0,0,1,,,,,,,,,0,,,70,49
51870,note_on,0,0,3,,,,,,,,,2,,,58,36
51870,note_on,240,0,1,,,,,,,,,0,,,70,0
51870,note_on,0,0,1,,,,,,,,,0,,,65,0
51870,note_on,0,0,1,,,,,,,,,0,,,62,0
51870,control_change,0,0,1,,,,,,,,,0,64,0,,
51870,note_on,0,0,1,,,,,,,,,0,,,62,49
51870,note_on,0,0,1,,,,,,,,,0,,,65,49
51870,set_tempo,60,1,0,,,,,,359281,,,,,,,
51930,set_tempo,60,1,0,,,,,,365854,,,,,,,
51990,control_change,0,0,3,,,,,,,,,2,64,127,,
51990,control_change,120,0,1,,,,,,,,,0,64,127,,
51990,set_tempo,60,1,0,,,,,,372671,,,,,,,
51990,note_on,120,0,3,,,,,,,,,2,,,58,0
51990,note_on,0,0,3,,,,,,,,,2,,,53,0
51990,note_on,0,0,3,,,,,,,,,2,,,41,36
52050,set_tempo,60,1,0,,,,,,379747,,,,,,,
52080,note_on,0,0,1,,,,,,,,,0,,,62,0
52080,note_on,0,0,1,,,,,,,,,0,,,65,49
52080,note_on,90,0,1,,,,,,,,,0,,,70,0
52080,note_on,0,0,1,,,,,,,,,0,,,72,49
52080,note_on,0,0,1,,,,,,,,,0,,,75,49
52080,note_on,0,0,1,,,,,,,,,0,,,65,0
52110,note_on,0,0,1,,,,,,,,,0,,,75,49
52110,note_on,0,0,1,,,,,,,,,0,,,72,49
52110,note_on,0,0,1,,,,,,,,,0,,,65,49
52110,note_on,0,0,1,,,,,,,,,0,,,65,0
52110,note_on,30,0,1,,,,,,,,,0,,,75,0
52110,note_on,0,0,1,,,,,,,,,0,,,72,0
52110,note_on,120,0,3,,,,,,,,,2,,,41,0
52110,note_on,0,0,3,,,,,,,,,2,,,51,36
52110,set_tempo,60,1,0,,,,,,389610,,,,,,,
52200,note_on,0,0,1,,,,,,,,,0,,,75,49
52200,note_on,0,0,1,,,,,,,,,0,,,72,49
52200,note_on,0,0,1,,,,,,,,,0,,,65,0
52200,note_on,0,0,1,,,,,,,,,0,,,72,0
52200,note_on,0,0,1,,,,,,,,,0,,,65,49
52200,note_on,90,0,1,,,,,,,,,0,,,75,0
52230,note_on,0,0,3,,,,,,,,,2,,,53,36
52230,note_on,0,0,3,,,,,,,,,2,,,57,36
52230,control_change,0,0,3,,,,,,,,,2,64,0,,
52230,note_on,120,0,3,,,,,,,,,2,,,51,0
52230,note_on,30,0,1,,,,,,,,,0,,,75,0
52230,note_on,0,0,1,,,,,,,,,0,,,72,0
52230,note_on,0,0,1,,,,,,,,,0,,,65,0
52230,note_on,0,0,1,,,,,,,,,0,,,65,49
52230,note_on,0,0,1,,,,,,,,,0,,,70,49
52230,note_on,0,0,1,,,,,,,,,0,,,74,49
52320,note_on,90,0,1,,,,,,,,,0,,,74,0
52320,note_on,0,0,1,,,,,,,,,0,,,65,0
52320,note_on,0,0,1,,,,,,,,,0,,,65,49
52320,note_on,0,0,1,,,,,,,,,0,,,69,49
52320,note_on,0,0,1,,,,,,,,,0,,,72,49
52320,control_change,0,0,1,,,,,,,,,0,64,0,,
52320,note_on,0,0,1,,,,,,,,,0,,,70,0
52350,note_on,0,0,3,,,,,,,,,2,,,53,0
52350,control_change,0,0,3,,,,,,,,,2,64,127,,
52350,note_on,0,0,3,,,,,,,,,2,,,46,36
52350,control_change,0,0,1,,,,,,,,,0,64,127,,
52350,note_on,0,0,1,,,,,,,,,0,,,65,49
52350,note_on,0,0,1,,,,,,,,,0,,,62,49
52350,note_on,0,0,1,,,,,,,,,0,,,65,0
52350,note_on,0,0,1,,,,,,,,,0,,,69,0
52350,note_on,30,0,1,,,,,,,,,0,,,72,0
52350,note_on,0,0,1,,,,,,,,,0,,,70,49
52350,note_on,120,0,3,,,,,,,,,2,,,57,0
52470,note_on,0,0,3,,,,,,,,,2,,,50,36
52470,note_on,120,0,3,,,,,,,,,2,,,46,0
52590,note_on,0,0,1,,,,,,,,,0,,,62,0
52590,note_on,0,0,1,,,,,,,,,0,,,65,0
52590,note_on,0,0,3,,,,,,,,,2,,,58,36
52590,note_on,0,0,3,,,,,,,,,2,,,53,36
52590,note_on,240,0,1,,,,,,,,,0,,,70,0
52590,control_change,0,0,1,,,,,,,,,0,64,0,,
52590,control_change,0,0,3,,,,,,,,,2,64,0,,
52590,note_on,0,0,1,,,,,,,,,0,,,62,49
52590,note_on,0,0,1,,,,,,,,,0,,,70,49
52590,note_on,0,0,1,,,,,,,,,0,,,65,49
52590,note_on,120,0,3,,,,,,,,,2,,,50,0
52710,note_on,120,0,3,,,,,,,,,2,,,58,0
52710,note_on,0,0,3,,,,,,,,,2,,,53,0
52710,control_change,0,0,3,,,,,,,,,2,64,127,,
52710,note_on,0,0,3,,,,,,,,,2,,,41,36
52710,control_change,120,0,1,,,,,,,,,0,64,127,,
52800,note_on,0,0,1,,,,,,,,,0,,,75,49
52800,note_on,0,0,1,,,,,,,,,0,,,72,49
52800,note_on,0,0,1,,,,,,,,,0,,,65,49
52800,note_on,0,0,1,,,,,,,,,0,,,62,0
52800,note_on,0,0,1,,,,,,,,,0,,,65,0
52800,note_on,90,0,1,,,,,,,,,0,,,70,0
52830,note_on,0,0,3,,,,,,,,,2,,,51,36
52830,note_on,120,0,3,,,,,,,,,2,,,41,0
52830,note_on,0,0,1,,,,,,,,,0,,,72,49
52830,note_on,0,0,1,,,,,,,,,0,,,75,49
52830,note_on,0,0,1,,,,,,,,,0,,,65,49
52830,note_on,0,0,1,,,,,,,,,0,,,65,0
52830,note_on,0,0,1,,,,,,,,,0,,,72,0
52830,note_on,30,0,1,,,,,,,,,0,,,75,0
52920,note_on,0,0,1,,,,,,,,,0,,,75,49
52920,note_on,0,0,1,,,,,,,,,0,,,65,49
52920,note_on,0,0,1,,,,,,,,,0,,,65,0
52920,note_on,90,0,1,,,,,,,,,0,,,75,0
52920,note_on,0,0,1,,,,,,,,,0,,,72,49
52920,note_on,0,0,1,,,,,,,,,0,,,72,0
52950,note_on,0,0,1,,,,,,,,,0,,,65,49
52950,control_change,0,0,3,,,,,,,,,2,64,0,,
52950,note_on,120,0,3,,,,,,,,,2,,,51,0
52950,note_on,0,0,1,,,,,,,,,0,,,74,49
52950,note_on,0,0,1,,,,,,,,,0,,,70,49
52950,note_on,30,0,1,,,,,,,,,0,,,75,0
52950,note_on,0,0,1,,,,,,,,,0,,,72,0
52950,note_on,0,0,3,,,,,,,,,2,,,57,36
52950,note_on,0,0,1,,,,,,,,,0,,,65,0
52950,note_on,0,0,3,,,,,,,,,2,,,53,36
53040,note_on,0,0,1,,,,,,,,,0,,,72,49
53040,control_change,0,0,1,,,,,,,,,0,64,0,,
53040,note_on,0,0,1,,,,,,,,,0,,,65,0
53040,note_on,0,0,1,,,,,,,,,0,,,70,0
53040,note_on,90,0,1,,,,,,,,,0,,,74,0
53040,note_on,0,0,1,,,,,,,,,0,,,65,49
53040,note_on,0,0,1,,,,,,,,,0,,,69,49
53070,note_on,30,0,1,,,,,,,,,0,,,72,0
53070,note_on,0,0,1,,,,,,,,,0,,,69,0
53070,note_on,0,0,1,,,,,,,,,0,,,65,0
53070,note_on,0,0,1,,,,,,,,,0,,,62,49
53070,note_on,0,0,1,,,,,,,,,0,,,65,49
53070,note_on,0,0,1,,,,,,,,,0,,,70,49
53070,control_change,0,0,1,,,,,,,,,0,64,127,,
53070,set_tempo,960,1,0,,,,,,333333,,,,,,,
53070,note_on,120,0,3,,,,,,,,,2,,,57,0
53070,note_on,0,0,3,,,,,,,,,2,,,53,0
53070,control_change,0,0,3,,,,,,,,,2,64,127,,
53070,note_on,0,0,3,,,,,,,,,2,,,46,36
53160,note_on,90,0,1,,,,,,,,,0,,,70,0
53160,note_on,90,0,3,,,,,,,,,2,,,46,0
53160,note_on,0,0,3,,,,,,,,,2,,,34,75
53160,note_on,0,0,2,,,,,,,,,1,,,46,88
53160,note_on,0,0,1,,,,,,,,,0,,,62,0
53160,note_on,0,0,1,,,,,,,,,0,,,65,0
53160,control_change,9750,0,2,,,,,,,,,1,64,127,,
53190,note_on,30,0,3,,,,,,,,,2,,,34,0
53190,note_on,0,0,3,,,,,,,,,2,,,34,101
53190,note_on,0,0,2,,,,,,,,,1,,,46,114
53190,note_on,30,0,2,,,,,,,,,1,,,46,0
53280,note_on,0,0,2,,,,,,,,,1,,,46,88
53280,note_on,0,0,3,,,,,,,,,2,,,34,75
53280,note_on,90,0,2,,,,,,,,,1,,,46,0
53280,note_on,90,0,3,,,,,,,,,2,,,34,0
53310,note_on,0,0,2,,,,,,,,,1,,,46,88
53310,note_on,0,0,3,,,,,,,,,2,,,34,75
53310,note_on,30,0,2,,,,,,,,,1,,,46,0
53310,note_on,30,0,3,,,,,,,,,2,,,34,0
53400,control_change,0,0,2,,,,,,,,,1,64,0,,
53400,note_on,90,0,2,,,,,,,,,1,,,46,0
53400,note_on,0,0,2,,,,,,,,,1,,,48,88
53400,note_on,0,0,3,,,,,,,,,2,,,36,75
53400,control_change,0,0,3,,,,,,,,,2,64,0,,
53400,note_on,90,0,3,,,,,,,,,2,,,34,0
53430,note_on,30,0,2,,,,,,,,,1,,,48,0
53430,note_on,30,0,3,,,,,,,,,2,,,36,0
53430,note_on,0,0,2,,,,,,,,,1,,,50,88
53430,control_change,0,0,2,,,,,,,,,1,64,127,,
53430,note_on,0,0,3,,,,,,,,,2,,,38,75
53430,control_change,0,0,3,,,,,,,,,2,64,127,,
53520,note_on,0,0,2,,,,,,,,,1,,,50,88
53520,note_on,0,0,3,,,,,,,,,2,,,38,75
53520,note_on,0,0,2,,,,,,,,,1,,,62,88
53520,note_on,90,0,2,,,,,,,,,1,,,50,0
53520,note_on,90,0,3,,,,,,,,,2,,,38,0
53550,note_on,30,0,2,,,,,,,,,1,,,62,0
53550,note_on,0,0,2,,,,,,,,,1,,,50,0
53550,note_on,0,0,2,,,,,,,,,1,,,50,106
53550,note_on,0,0,2,,,,,,,,,1,,,62,114
53550,note_on,30,0,3,,,,,,,,,2,,,38,0
53550,note_on,0,0,3,,,,,,,,,2,,,38,101
53640,note_on,90,0,3,,,,,,,,,2,,,38,0
53640,note_on,0,0,3,,,,,,,,,2,,,38,75
53640,note_on,90,0,2,,,,,,,,,1,,,62,0
53640,note_on,0,0,2,,,,,,,,,1,,,50,0
53640,note_on,0,0,2,,,,,,,,,1,,,50,88
53640,note_on,0,0,2,,,,,,,,,1,,,62,88
53670,note_on,0,0,2,,,,,,,,,1,,,50,88
53670,note_on,30,0,3,,,,,,,,,2,,,38,0
53670,note_on,0,0,3,,,,,,,,,2,,,38,75
53670,note_on,0,0,2,,,,,,,,,1,,,62,88
53670,note_on,0,0,2,,,,,,,,,1,,,50,0
53670,note_on,30,0,2,,,,,,,,,1,,,62,0
53760,note_on,0,0,2,,,,,,,,,1,,,52,88
53760,control_change,0,0,2,,,,,,,,,1,64,0,,
53760,note_on,0,0,2,,,,,,,,,1,,,50,0
53760,note_on,90,0,2,,,,,,,,,1,,,62,0
53760,note_on,0,0,2,,,,,,,,,1,,,64,88
53760,note_on,0,0,3,,,,,,,,,2,,,40,75
53760,control_change,0,0,3,,,,,,,,,2,64,0,,
53760,note_on,90,0,3,,,,,,,,,2,,,38,0
53790,note_on,0,0,2,,,,,,,,,1,,,52,0
53790,control_change,0,0,3,,,,,,,,,2,64,127,,
53790,note_on,30,0,3,,,,,,,,,2,,,40,0
53790,note_on,0,0,3,,,,,,,,,2,,,41,75
53790,note_on,30,0,2,,,,,,,,,1,,,64,0
53790,control_change,0,0,2,,,,,,,,,1,64,127,,
53790,note_on,0,0,2,,,,,,,,,1,,,53,88
53790,note_on,0,0,2,,,,,,,,,1,,,65,88
53880,note_on,0,0,2,,,,,,,,,1,,,53,88
53880,note_on,0,0,2,,,,,,,,,1,,,53,0
53880,note_on,90,0,3,,,,,,,,,2,,,41,0
53880,note_on,90,0,2,,,,,,,,,1,,,65,0
53880,note_on,0,0,3,,,,,,,,,2,,,41,75
53910,note_on,30,0,3,,,,,,,,,2,,,41,0
53910,note_on,0,0,3,,,,,,,,,2,,,41,101
53910,note_on,30,0,2,,,,,,,,,1,,,53,0
53910,note_on,0,0,2,,,,,,,,,1,,,53,114
54000,note_on,90,0,2,,,,,,,,,1,,,53,0
54000,note_on,90,0,3,,,,,,,,,2,,,41,0
54000,note_on,0,0,3,,,,,,,,,2,,,41,88
54000,note_on,0,0,2,,,,,,,,,1,,,53,101
54030,note_on,30,0,2,,,,,,,,,1,,,53,0
54030,note_on,0,0,2,,,,,,,,,1,,,53,101
54030,note_on,30,0,3,,,,,,,,,2,,,41,0
54030,note_on,0,0,3,,,,,,,,,2,,,41,88
54120,control_change,0,0,3,,,,,,,,,2,64,0,,
54120,note_on,90,0,3,,,,,,,,,2,,,41,0
54120,note_on,0,0,3,,,,,,,,,2,,,43,88
54120,note_on,0,0,2,,,,,,,,,1,,,55,101
54120,note_on,90,0,2,,,,,,,,,1,,,53,0
54120,control_change,0,0,2,,,,,,,,,1,64,0,,
54150,note_on,30,0,2,,,,,,,,,1,,,55,0
54150,note_on,0,0,3,,,,,,,,,2,,,45,88
54150,control_change,0,0,3,,,,,,,,,2,64,127,,
54150,note_on,30,0,3,,,,,,,,,2,,,43,0
54150,note_on,0,0,1,,,,,,,,,0,,,57,101
54150,control_change,990,0,1,,,,,,,,,0,64,127,,
54240,note_on,0,0,3,,,,,,,,,2,,,45,88
54240,note_on,90,0,3,,,,,,,,,2,,,45,0
54240,note_on,0,0,3,,,,,,,,,2,,,33,88
54240,note_on,90,0,1,,,,,,,,,0,,,57,0
54240,note_on,0,0,1,,,,,,,,,0,,,57,101
54240,note_on,0,0,1,,,,,,,,,0,,,69,101
54270,note_on,0,0,3,,,,,,,,,2,,,45,114
54270,note_on,0,0,3,,,,,,,,,2,,,33,106
54270,note_on,0,0,3,,,,,,,,,2,,,33,0
54270,note_on,30,0,3,,,,,,,,,2,,,45,0
54270,note_on,30,0,1,,,,,,,,,0,,,69,0
54270,note_on,0,0,1,,,,,,,,,0,,,57,0
54270,note_on,0,0,1,,,,,,,,,0,,,57,119
54270,note_on,0,0,1,,,,,,,,,0,,,69,127
54360,note_on,0,0,3,,,,,,,,,2,,,33,0
54360,note_on,90,0,3,,,,,,,,,2,,,45,0
54360,note_on,90,0,1,,,,,,,,,0,,,69,0
54360,note_on,0,0,1,,,,,,,,,0,,,57,0
54360,note_on,0,0,1,,,,,,,,,0,,,71,101
54360,note_on,0,0,1,,,,,,,,,0,,,59,101
54360,note_on,0,0,3,,,,,,,,,2,,,47,88
54360,note_on,0,0,3,,,,,,,,,2,,,35,88
54390,note_on,0,0,1,,,,,,,,,0,,,61,101
54390,note_on,0,0,1,,,,,,,,,0,,,59,0
54390,note_on,30,0,1,,,,,,,,,0,,,71,0
54390,note_on,0,0,1,,,,,,,,,0,,,73,101
54390,note_on,30,0,3,,,,,,,,,2,,,47,0
54390,note_on,0,0,3,,,,,,,,,2,,,35,0
54390,note_on,0,0,3,,,,,,,,,2,,,37,88
54390,note_on,0,0,3,,,,,,,,,2,,,49,88
54480,note_on,90,0,1,,,,,,,,,0,,,73,0
54480,note_on,0,0,1,,,,,,,,,0,,,74,101
54480,control_change,0,0,1,,,,,,,,,0,64,0,,
54480,note_on,0,0,3,,,,,,,,,2,,,50,88
54480,note_on,0,0,3,,,,,,,,,2,,,38,88
54480,control_change,0,0,3,,,,,,,,,2,64,0,,
54480,note_on,0,0,3,,,,,,,,,2,,,37,0
54480,note_on,90,0,3,,,,,,,,,2,,,49,0
54480,note_on,0,0,1,,,,,,,,,0,,,61,0
54480,note_on,0,0,1,,,,,,,,,0,,,62,101
54510,note_on,0,0,1,,,,,,,,,0,,,73,114
54510,note_on,0,0,1,,,,,,,,,0,,,76,114
54510,note_on,0,0,1,,,,,,,,,0,,,62,0
54510,note_on,30,0,1,,,,,,,,,0,,,74,0
54510,note_on,0,0,3,,,,,,,,,2,,,40,101
54510,note_on,0,0,3,,,,,,,,,2,,,49,101
54510,note_on,0,0,3,,,,,,,,,2,,,45,101
54510,note_on,0,0,1,,,,,,,,,0,,,69,114
54510,note_on,0,0,3,,,,,,,,,2,,,38,0
54510,note_on,30,0,3,,,,,,,,,2,,,50,0
54510,note_on,0,0,3,,,,,,,,,2,,,52,101
54510,note_on,0,0,1,,,,,,,,,0,,,64,114
54750,note_on,0,0,1,,,,,,,,,0,,,73,0
54750,note_on,0,0,1,,,,,,,,,0,,,76,114
54750,note_on,0,0,1,,,,,,,,,0,,,73,114
54750,note_on,0,0,1,,,,,,,,,0,,,69,114
54750,note_on,0,0,1,,,,,,,,,0,,,64,114
54750,note_on,240,0,1,,,,,,,,,0,,,76,0
54750,note_on,0,0,1,,,,,,,,,0,,,69,0
54750,note_on,0,0,1,,,,,,,,,0,,,64,0
54750,note_on,240,0,3,,,,,,,,,2,,,52,0
54750,note_on,0,0,3,,,,,,,,,2,,,40,0
54750,note_on,0,0,3,,,,,,,,,2,,,45,0
54750,note_on,0,0,3,,,,,,,,,2,,,49,0
54750,note_on,0,0,3,,,,,,,,,2,,,49,101
54750,note_on,0,0,3,,,,,,,,,2,,,40,101
54750,note_on,0,0,3,,,,,,,,,2,,,52,101
54750,note_on,0,0,3,,,,,,,,,2,,,45,101
54960,note_on,0,0,3,,,,,,,,,2,,,45,0
54960,note_on,0,0,1,,,,,,,,,0,,,68,114
54960,note_on,0,0,1,,,,,,,,,0,,,73,0
54960,note_on,210,0,3,,,,,,,,,2,,,52,0
54960,note_on,0,0,3,,,,,,,,,2,,,40,0
54960,note_on,0,0,3,,,,,,,,,2,,,49,0
54960,note_on,0,0,3,,,,,,,,,2,,,52,101
54960,note_on,0,0,1,,,,,,,,,0,,,74,114
54960,note_on,0,0,1,,,,,,,,,0,,,69,0
54960,note_on,0,0,1,,,,,,,,,0,,,64,0
54960,note_on,210,0,1,,,,,,,,,0,,,76,0
54960,note_on,0,0,3,,,,,,,,,2,,,40,101
54960,note_on,0,0,1,,,,,,,,,0,,,76,114
54990,note_on,0,0,1,,,,,,,,,0,,,76,114
54990,note_on,0,0,1,,,,,,,,,0,,,74,114
54990,note_on,0,0,1,,,,,,,,,0,,,68,114
54990,note_on,30,0,1,,,,,,,,,0,,,76,0
54990,note_on,0,0,1,,,,,,,,,0,,,68,0
54990,note_on,30,0,3,,,,,,,,,2,,,52,0
54990,note_on,0,0,3,,,,,,,,,2,,,40,0
54990,note_on,0,0,3,,,,,,,,,2,,,40,101
54990,note_on,0,0,3,,,,,,,,,2,,,52,101
54990,note_on,0,0,1,,,,,,,,,0,,,74,0
55080,note_on,90,0,3,,,,,,,,,2,,,52,0
55080,note_on,0,0,1,,,,,,,,,0,,,74,0
55080,note_on,0,0,1,,,,,,,,,0,,,68,0
55080,note_on,0,0,1,,,,,,,,,0,,,74,114
55080,note_on,0,0,1,,,,,,,,,0,,,76,114
55080,note_on,0,0,3,,,,,,,,,2,,,50,101
55080,note_on,0,0,3,,,,,,,,,2,,,38,101
55080,note_on,0,0,3,,,,,,,,,2,,,40,0
55080,note_on,90,0,1,,,,,,,,,0,,,76,0
55080,note_on,0,0,1,,,,,,,,,0,,,68,114
55110,note_on,30,0,1,,,,,,,,,0,,,76,0
55110,note_on,0,0,1,,,,,,,,,0,,,78,114
55110,note_on,0,0,1,,,,,,,,,0,,,74,114
55110,note_on,0,0,1,,,,,,,,,0,,,68,114
55110,note_on,0,0,1,,,,,,,,,0,,,68,0
55110,note_on,0,0,1,,,,,,,,,0,,,74,0
55110,note_on,30,0,3,,,,,,,,,2,,,50,0
55110,note_on,0,0,3,,,,,,,,,2,,,38,0
55110,note_on,0,0,3,,,,,,,,,2,,,49,101
55110,note_on,0,0,3,,,,,,,,,2,,,37,101
55200,note_on,0,0,3,,,,,,,,,2,,,37,0
55200,note_on,90,0,1,,,,,,,,,0,,,78,0
55200,note_on,0,0,3,,,,,,,,,2,,,35,101
55200,note_on,0,0,1,,,,,,,,,0,,,68,114
55200,note_on,90,0,3,,,,,,,,,2,,,49,0
55200,note_on,0,0,3,,,,,,,,,2,,,47,101
55200,note_on,0,0,1,,,,,,,,,0,,,74,114
55200,note_on,0,0,1,,,,,,,,,0,,,80,114
55200,note_on,0,0,1,,,,,,,,,0,,,74,0
55200,note_on,0,0,1,,,,,,,,,0,,,68,0
55230,note_on,30,0,1,,,,,,,,,0,,,80,0
55230,note_on,0,0,1,,,,,,,,,0,,,81,114
55230,note_on,0,0,1,,,,,,,,,0,,,74,0
55230,note_on,0,0,1,,,,,,,,,0,,,73,114
55230,note_on,30,0,3,,,,,,,,,2,,,47,0
55230,note_on,0,0,3,,,,,,,,,2,,,35,0
55230,note_on,0,0,3,,,,,,,,,2,,,33,101
55230,note_on,0,0,3,,,,,,,,,2,,,45,101
55230,note_on,0,0,1,,,,,,,,,0,,,69,114
55230,note_on,0,0,1,,,,,,,,,0,,,68,0
55470,note_on,0,0,3,,,,,,,,,2,,,45,101
55470,note_on,0,0,3,,,,,,,,,2,,,40,101
55470,note_on,240,0,1,,,,,,,,,0,,,81,0
55470,note_on,0,0,1,,,,,,,,,0,,,73,0
55470,note_on,0,0,1,,,,,,,,,0,,,69,0
55470,note_on,0,0,1,,,,,,,,,0,,,69,114
55470,note_on,0,0,1,,,,,,,,,0,,,73,114
55470,note_on,0,0,1,,,,,,,,,0,,,81,114
55470,note_on,0,0,3,,,,,,,,,2,,,33,101
55470,note_on,0,0,3,,,,,,,,,2,,,33,0
55470,note_on,240,0,3,,,,,,,,,2,,,45,0
55680,note_on,0,0,3,,,,,,,,,2,,,33,0
55680,note_on,0,0,3,,,,,,,,,2,,,40,0
55680,note_on,210,0,3,,,,,,,,,2,,,45,0
55680,note_on,0,0,1,,,,,,,,,0,,,55,49
55680,note_on,0,0,1,,,,,,,,,0,,,57,49
55680,note_on,0,0,3,,,,,,,,,2,,,45,36
55680,note_on,0,0,1,,,,,,,,,0,,,69,0
55680,note_on,0,0,1,,,,,,,,,0,,,73,0
55680,note_on,210,0,1,,,,,,,,,0,,,81,0
55680,note_on,0,0,1,,,,,,,,,0,,,61,49
55684,note_on,4,0,3,,,,,,,,,2,,,45,0
55684,note_on,4,0,1,,,,,,,,,0,,,61,0
55684,note_on,0,0,1,,,,,,,,,0,,,57,0
55684,note_on,0,0,1,,,,,,,,,0,,,55,0
55710,note_on,26,0,3,,,,,,,,,2,,,47,36
55710,note_on,0,0,1,,,,,,,,,0,,,62,49
55710,note_on,0,0,1,,,,,,,,,0,,,57,49
55710,note_on,26,0,1,,,,,,,,,0,,,55,49
55719,note_on,0,0,1,,,,,,,,,0,,,55,0
55719,note_on,9,0,3,,,,,,,,,2,,,47,0
55719,note_on,0,0,1,,,,,,,,,0,,,57,0
55719,note_on,9,0,1,,,,,,,,,0,,,62,0
55800,note_on,81,0,3,,,,,,,,,2,,,45,36
55800,note_on,0,0,1,,,,,,,,,0,,,61,49
55800,note_on,0,0,1,,,,,,,,,0,,,57,49
55800,note_on,81,0,1,,,,,,,,,0,,,55,49
55804,note_on,0,0,1,,,,,,,,,0,,,55,0
55804,note_on,4,0,1,,,,,,,,,0,,,61,0
55804,note_on,4,0,3,,,,,,,,,2,,,45,0
55804,note_on,0,0,1,,,,,,,,,0,,,57,0
55830,note_on,0,0,1,,,,,,,,,0,,,62,49
55830,note_on,0,0,1,,,,,,,,,0,,,57,49
55830,note_on,26,0,3,,,,,,,,,2,,,47,36
55830,note_on,26,0,1,,,,,,,,,0,,,55,49
55839,note_on,0,0,1,,,,,,,,,0,,,55,0
55839,note_on,0,0,1,,,,,,,,,0,,,57,0
55839,note_on,9,0,1,,,,,,,,,0,,,62,0
55839,note_on,9,0,3,,,,,,,,,2,,,47,0
55920,note_on,0,0,1,,,,,,,,,0,,,64,49
55920,note_on,0,0,1,,,,,,,,,0,,,57,49
55920,note_on,81,0,1,,,,,,,,,0,,,55,49
55920,note_on,81,0,3,,,,,,,,,2,,,49,36
55924,note_on,4,0,3,,,,,,,,,2,,,49,0
55924,note_on,0,0,1,,,,,,,,,0,,,55,0
55924,note_on,0,0,1,,,,,,,,,0,,,57,0
55924,note_on,4,0,1,,,,,,,,,0,,,64,0
55950,note_on,0,0,1,,,,,,,,,0,,,57,75
55950,note_on,26,0,1,,,,,,,,,0,,,54,67
55950,note_on,26,0,3,,,,,,,,,2,,,50,62
56190,note_on,0,0,3,,,,,,,,,2,,,54,36
56190,note_on,0,0,3,,,,,,,,,2,,,50,36
56190,note_on,240,0,3,,,,,,,,,2,,,50,0
56190,note_on,240,0,1,,,,,,,,,0,,,57,0
56190,note_on,0,0,1,,,,,,,,,0,,,54,0
56190,note_on,0,0,1,,,,,,,,,0,,,57,49
56190,note_on,0,0,1,,,,,,,,,0,,,66,49
56400,note_on,0,0,3,,,,,,,,,2,,,50,36
56400,note_on,210,0,1,,,,,,,,,0,,,66,0
56400,note_on,0,0,1,,,,,,,,,0,,,57,0
56400,note_on,0,0,1,,,,,,,,,0,,,57,49
56400,note_on,0,0,1,,,,,,,,,0,,,66,49
56400,note_on,210,0,3,,,,,,,,,2,,,54,0
56400,note_on,0,0,3,,,,,,,,,2,,,50,0
56404,note_on,4,0,1,,,,,,,,,0,,,66,0
56404,note_on,4,0,3,,,,,,,,,2,,,50,0
56404,note_on,0,0,1,,,,,,,,,0,,,57,0
56430,note_on,0,0,3,,,,,,,,,2,,,50,36
56430,note_on,26,0,3,,,,,,,,,2,,,47,36
56430,note_on,0,0,1,,,,,,,,,0,,,67,49
56430,note_on,26,0,1,,,,,,,,,0,,,55,49
56439,note_on,9,0,3,,,,,,,,,2,,,50,0
56439,note_on,0,0,3,,,,,,,,,2,,,47,0
56439,note_on,0,0,1,,,,,,,,,0,,,55,0
56439,note_on,9,0,1,,,,,,,,,0,,,67,0
56520,note_on,81,0,1,,,,,,,,,0,,,55,49
56520,note_on,0,0,1,,,,,,,,,0,,,66,49
56520,note_on,0,0,3,,,,,,,,,2,,,50,36
56520,note_on,81,0,3,,,,,,,,,2,,,47,36
56524,note_on,4,0,1,,,,,,,,,0,,,66,0
56524,note_on,0,0,1,,,,,,,,,0,,,55,0
56524,note_on,0,0,3,,,,,,,,,2,,,47,0
56524,note_on,4,0,3,,,,,,,,,2,,,50,0
56550,note_on,0,0,1,,,,,,,,,0,,,64,49
56550,note_on,26,0,1,,,,,,,,,0,,,56,49
56550,note_on,0,0,3,,,,,,,,,2,,,50,36
56550,note_on,26,0,3,,,,,,,,,2,,,46,36
56559,note_on,9,0,3,,,,,,,,,2,,,50,0
56559,note_on,9,0,1,,,,,,,,,0,,,64,0
56559,note_on,0,0,3,,,,,,,,,2,,,46,0
56559,note_on,0,0,1,,,,,,,,,0,,,56,0
56640,note_on,0,0,3,,,,,,,,,2,,,50,36
56640,note_on,81,0,3,,,,,,,,,2,,,46,36
56640,note_on,81,0,1,,,,,,,,,0,,,56,49
56640,note_on,0,0,1,,,,,,,,,0,,,62,49
56644,note_on,0,0,3,,,,,,,,,2,,,46,0
56644,note_on,4,0,3,,,,,,,,,2,,,50,0
56644,note_on,4,0,1,,,,,,,,,0,,,62,0
56644,note_on,0,0,1,,,,,,,,,0,,,56,0
56670,note_on,0,0,1,,,,,,,,,0,,,69,75
56670,note_on,0,0,1,,,,,,,,,0,,,61,70
56670,note_on,26,0,3,,,,,,,,,2,,,45,54
56670,note_on,26,0,1,,,,,,,,,0,,,57,65
56670,note_on,0,0,3,,,,,,,,,2,,,52,62
56910,note_on,240,0,1,,,,,,,,,0,,,69,0
56910,note_on,0,0,1,,,,,,,,,0,,,61,0
56910,note_on,0,0,1,,,,,,,,,0,,,57,0
56910,note_on,0,0,1,,,,,,,,,0,,,61,67
56910,note_on,0,0,1,,,,,,,,,0,,,64,75
56910,note_on,0,0,3,,,,,,,,,2,,,45,0
56910,note_on,0,0,3,,,,,,,,,2,,,45,54
56910,note_on,0,0,3,,,,,,,,,2,,,57,62
56910,note_on,240,0,3,,,,,,,,,2,,,52,0
57120,note_on,0,0,3,,,,,,,,,2,,,57,36
57120,note_on,0,0,3,,,,,,,,,2,,,45,0
57120,note_on,210,0,3,,,,,,,,,2,,,57,0
57120,note_on,0,0,1,,,,,,,,,0,,,69,49
57120,note_on,0,0,3,,,,,,,,,2,,,49,36
57120,note_on,0,0,1,,,,,,,,,0,,,64,49
57120,note_on,210,0,1,,,,,,,,,0,,,64,0
57120,note_on,0,0,1,,,,,,,,,0,,,61,0
57124,note_on,4,0,1,,,,,,,,,0,,,69,0
57124,note_on,4,0,3,,,,,,,,,2,,,57,0
57124,note_on,0,0,3,,,,,,,,,2,,,49,0
57124,note_on,0,0,1,,,,,,,,,0,,,64,0
57135,note_on,11,0,1,,,,,,,,,0,,,73,49
57139,note_on,4,0,1,,,,,,,,,0,,,73,0
57150,note_on,0,0,1,,,,,,,,,0,,,71,49
57150,note_on,11,0,1,,,,,,,,,0,,,64,49
57150,note_on,0,0,3,,,,,,,,,2,,,57,36
57150,note_on,26,0,3,,,,,,,,,2,,,49,36
57159,note_on,9,0,1,,,,,,,,,0,,,71,0
57159,note_on,0,0,3,,,,,,,,,2,,,49,0
57159,note_on,9,0,3,,,,,,,,,2,,,57,0
57159,note_on,0,0,1,,,,,,,,,0,,,64,0
57240,note_on,81,0,1,,,,,,,,,0,,,64,49
57240,note_on,81,0,3,,,,,,,,,2,,,49,36
57240,note_on,0,0,3,,,,,,,,,2,,,57,36
57240,note_on,0,0,1,,,,,,,,,0,,,69,49
57244,note_on,0,0,1,,,,,,,,,0,,,64,0
57244,note_on,4,0,3,,,,,,,,,2,,,57,0
57244,note_on,0,0,3,,,,,,,,,2,,,49,0
57244,note_on,4,0,1,,,,,,,,,0,,,69,0
57270,note_on,26,0,3,,,,,,,,,2,,,49,36
57270,note_on,0,0,3,,,,,,,,,2,,,57,36
57270,note_on,26,0,1,,,,,,,,,0,,,64,49
57270,note_on,0,0,1,,,,,,,,,0,,,71,49
57279,note_on,0,0,3,,,,,,,,,2,,,49,0
57279,note_on,0,0,1,,,,,,,,,0,,,64,0
57279,note_on,9,0,1,,,,,,,,,0,,,71,0
57279,note_on,9,0,3,,,,,,,,,2,,,57,0
57360,note_on,81,0,3,,,,,,,,,2,,,49,36
57360,note_on,0,0,3,,,,,,,,,2,,,57,36
57360,note_on,81,0,1,,,,,,,,,0,,,64,49
57360,note_on,0,0,1,,,,,,,,,0,,,73,49
57364,note_on,4,0,1,,,,,,,,,0,,,73,0
57364,note_on,4,0,3,,,,,,,,,2,,,57,0
57364,note_on,0,0,3,,,,,,,,,2,,,49,0
57364,note_on,0,0,1,,,,,,,,,0,,,64,0
57390,note_on,26,0,1,,,,,,,,,0,,,62,65
57390,note_on,0,0,1,,,,,,,,,0,,,66,70
57390,note_on,0,0,1,,,,,,,,,0,,,74,75
57390,note_on,26,0,3,,,,,,,,,2,,,47,52
57390,note_on,0,0,3,,,,,,,,,2,,,54,57
57390,note_on,0,0,3,,,,,,,,,2,,,59,62
57630,note_on,0,0,1,,,,,,,,,0,,,62,0
57630,note_on,0,0,1,,,,,,,,,0,,,62,67
57630,note_on,0,0,1,,,,,,,,,0,,,66,75
57630,note_on,0,0,3,,,,,,,,,2,,,59,62
57630,note_on,0,0,3,,,,,,,,,2,,,50,54
57630,note_on,0,0,3,,,,,,,,,2,,,47,0
57630,note_on,0,0,3,,,,,,,,,2,,,54,0
57630,note_on,240,0,3,,,,,,,,,2,,,59,0
57630,note_on,0,0,1,,,,,,,,,0,,,66,0
57630,note_on,240,0,1,,,,,,,,,0,,,74,0
57840,note_on,210,0,1,,,,,,,,,0,,,66,0
57840,note_on,0,0,1,,,,,,,,,0,,,62,0
57840,note_on,210,0,3,,,,,,,,,2,,,59,0
57840,note_on,0,0,1,,,,,,,,,0,,,66,49
57840,note_on,0,0,3,,,,,,,,,2,,,50,0
57840,note_on,0,0,3,,,,,,,,,2,,,50,36
57840,note_on,0,0,3,,,,,,,,,2,,,59,36
57840,note_on,0,0,1,,,,,,,,,0,,,62,49
57855,note_on,15,0,1,,,,,,,,,0,,,66,0
57855,note_on,0,0,1,,,,,,,,,0,,,62,0
57855,note_on,0,0,1,,,,,,,,,0,,,69,49
57870,note_on,0,0,3,,,,,,,,,2,,,59,36
57870,note_on,0,0,3,,,,,,,,,2,,,52,36
57870,note_on,0,0,3,,,,,,,,,2,,,50,0
57870,note_on,30,0,3,,,,,,,,,2,,,59,0
57870,note_on,15,0,1,,,,,,,,,0,,,69,0
57870,note_on,0,0,1,,,,,,,,,0,,,68,49
57870,note_on,0,0,1,,,,,,,,,0,,,62,49
57879,note_on,0,0,3,,,,,,,,,2,,,52,0
57879,note_on,9,0,3,,,,,,,,,2,,,59,0
57879,note_on,0,0,1,,,,,,,,,0,,,62,0
57879,note_on,9,0,1,,,,,,,,,0,,,68,0
57960,note_on,81,0,1,,,,,,,,,0,,,62,49
57960,note_on,0,0,3,,,,,,,,,2,,,59,36
57960,note_on,81,0,3,,,,,,,,,2,,,52,36
57960,note_on,0,0,1,,,,,,,,,0,,,66,49
57964,note_on,0,0,3,,,,,,,,,2,,,52,0
57964,note_on,4,0,3,,,,,,,,,2,,,59,0
57964,note_on,4,0,1,,,,,,,,,0,,,66,0
57964,note_on,0,0,1,,,,,,,,,0,,,62,0
57990,note_on,26,0,1,,,,,,,,,0,,,62,49
57990,note_on,0,0,1,,,,,,,,,0,,,68,49
57990,note_on,26,0,3,,,,,,,,,2,,,52,36
57990,note_on,0,0,3,,,,,,,,,2,,,59,36
57999,note_on,9,0,1,,,,,,,,,0,,,68,0
57999,note_on,0,0,1,,,,,,,,,0,,,62,0
57999,note_on,9,0,3,,,,,,,,,2,,,59,0
57999,note_on,0,0,3,,,,,,,,,2,,,52,0
58080,note_on,81,0,3,,,,,,,,,2,,,52,36
58080,note_on,0,0,3,,,,,,,,,2,,,59,36
58080,note_on,81,0,1,,,,,,,,,0,,,62,49
58080,note_on,0,0,1,,,,,,,,,0,,,64,49
58084,note_on,4,0,1,,,,,,,,,0,,,64,0
58084,note_on,0,0,1,,,,,,,,,0,,,62,0
58084,note_on,0,0,3,,,,,,,,,2,,,52,0
58084,note_on,4,0,3,,,,,,,,,2,,,59,0
58110,note_on,0,0,1,,,,,,,,,0,,,69,75
58110,note_on,26,0,3,,,,,,,,,2,,,45,52
58110,note_on,0,0,3,,,,,,,,,2,,,52,57
58110,note_on,26,0,1,,,,,,,,,0,,,61,67
58110,note_on,0,0,3,,,,,,,,,2,,,57,62
58350,note_on,0,0,1,,,,,,,,,0,,,69,75
58350,note_on,0,0,1,,,,,,,,,0,,,61,67
58350,note_on,0,0,1,,,,,,,,,0,,,61,0
58350,note_on,240,0,1,,,,,,,,,0,,,69,0
58350,note_on,240,0,3,,,,,,,,,2,,,57,0
58350,note_on,0,0,3,,,,,,,,,2,,,52,0
58350,note_on,0,0,3,,,,,,,,,2,,,45,0
58350,note_on,0,0,3,,,,,,,,,2,,,45,52
58350,note_on,0,0,3,,,,,,,,,2,,,57,62
58350,note_on,0,0,3,,,,,,,,,2,,,52,57
58590,note_on,0,0,1,,,,,,,,,0,,,61,0
58590,note_on,240,0,1,,,,,,,,,0,,,69,0
58590,note_on,0,0,3,,,,,,,,,2,,,45,0
58590,note_on,0,0,1,,,,,,,,,0,,,69,88
58590,note_on,0,0,3,,,,,,,,,2,,,50,88
58590,note_on,0,0,1,,,,,,,,,0,,,66,88
58590,note_on,0,0,1,,,,,,,,,0,,,62,88
58590,note_on,240,0,3,,,,,,,,,2,,,57,0
58590,note_on,0,0,3,,,,,,,,,2,,,52,0
58602,note_on,12,0,3,,,,,,,,,2,,,50,0
58602,note_on,0,0,1,,,,,,,,,0,,,62,0
58602,note_on,0,0,1,,,,,,,,,0,,,66,0
58602,note_on,12,0,1,,,,,,,,,0,,,69,0
58710,note_on,108,0,3,,,,,,,,,2,,,49,88
58710,note_on,0,0,1,,,,,,,,,0,,,70,88
58710,note_on,0,0,1,,,,,,,,,0,,,66,88
58710,note_on,108,0,1,,,,,,,,,0,,,62,88
58722,note_on,0,0,1,,,,,,,,,0,,,66,0
58722,note_on,12,0,1,,,,,,,,,0,,,70,0
58722,note_on,12,0,3,,,,,,,,,2,,,49,0
58722,note_on,0,0,1,,,,,,,,,0,,,62,0
58830,control_change,108,0,3,,,,,,,,,2,64,127,,
58830,note_on,0,0,3,,,,,,,,,2,,,47,114
58830,note_on,0,0,1,,,,,,,,,0,,,71,101
58830,note_on,0,0,1,,,,,,,,,0,,,67,101
58830,note_on,108,0,1,,,,,,,,,0,,,62,101
58869,note_on,39,0,3,,,,,,,,,2,,,46,114
58870,note_on,1,0,3,,,,,,,,,2,,,47,0
58909,note_on,39,0,3,,,,,,,,,2,,,46,0
58910,note_on,1,0,3,,,,,,,,,2,,,47,114
58950,note_on,40,0,3,,,,,,,,,2,,,47,0
58950,note_on,0,0,3,,,,,,,,,2,,,43,114
58989,note_on,39,0,3,,,,,,,,,2,,,42,114
58990,note_on,1,0,3,,,,,,,,,2,,,43,0
59029,note_on,39,0,3,,,,,,,,,2,,,42,0
59030,control_change,1,0,3,,,,,,,,,2,64,0,,
59030,note_on,0,0,3,,,,,,,,,2,,,43,114
59070,note_on,40,0,3,,,,,,,,,2,,,43,0
59070,control_change,0,0,3,,,,,,,,,2,64,127,,
59070,note_on,0,0,3,,,,,,,,,2,,,40,127
59070,note_on,0,0,1,,,,,,,,,0,,,62,0
59070,note_on,0,0,1,,,,,,,,,0,,,67,117
59070,note_on,0,0,1,,,,,,,,,0,,,67,0
59070,note_on,0,0,1,,,,,,,,,0,,,71,122
59070,note_on,0,0,1,,,,,,,,,0,,,76,127
59070,control_change,0,0,1,,,,,,,,,0,64,127,,
59070,note_on,240,0,1,,,,,,,,,0,,,71,0
59190,note_on,120,0,1,,,,,,,,,0,,,76,0
59190,note_on,0,0,1,,,,,,,,,0,,,71,0
59190,note_on,0,0,1,,,,,,,,,0,,,67,0
59190,note_on,0,0,1,,,,,,,,,0,,,76,122
59190,note_on,0,0,1,,,,,,,,,0,,,79,127
59190,note_on,0,0,1,,,,,,,,,0,,,71,117
59202,note_on,0,0,1,,,,,,,,,0,,,71,0
59202,note_on,0,0,1,,,,,,,,,0,,,76,0
59202,note_on,12,0,1,,,,,,,,,0,,,79,0
59280,note_on,0,0,3,,,,,,,,,2,,,42,114
59280,control_change,0,0,3,,,,,,,,,2,64,0,,
59280,note_on,210,0,3,,,,,,,,,2,,,40,0
59310,note_on,0,0,1,,,,,,,,,0,,,71,122
59310,note_on,0,0,3,,,,,,,,,2,,,43,114
59310,note_on,30,0,3,,,,,,,,,2,,,42,0
59310,note_on,0,0,1,,,,,,,,,0,,,76,127
59310,control_change,108,0,1,,,,,,,,,0,64,0,,
59310,note_on,0,0,1,,,,,,,,,0,,,67,117
59322,note_on,0,0,1,,,,,,,,,0,,,67,0
59322,note_on,0,0,1,,,,,,,,,0,,,71,0
59322,note_on,12,0,1,,,,,,,,,0,,,76,0
59400,note_on,90,0,3,,,,,,,,,2,,,43,0
59400,note_on,0,0,3,,,,,,,,,2,,,45,114
59430,note_on,0,0,1,,,,,,,,,0,,,64,122
59430,note_on,108,0,1,,,,,,,,,0,,,61,117
59430,note_on,30,0,3,,,,,,,,,2,,,45,0
59430,note_on,0,0,3,,,,,,,,,2,,,47,114
59430,note_on,0,0,1,,,,,,,,,0,,,67,127
59442,note_on,12,0,1,,,,,,,,,0,,,67,0
59442,note_on,0,0,1,,,,,,,,,0,,,64,0
59442,note_on,0,0,1,,,,,,,,,0,,,61,0
59520,note_on,90,0,3,,,,,,,,,2,,,47,0
59520,note_on,0,0,3,,,,,,,,,2,,,49,114
59550,note_on,0,0,1,,,,,,,,,0,,,66,88
59550,note_on,108,0,1,,,,,,,,,0,,,61,88
59550,note_on,0,0,3,,,,,,,,,2,,,45,88
59550,control_change,0,0,3,,,,,,,,,2,64,127,,
59550,note_on,30,0,3,,,,,,,,,2,,,49,0
59550,note_on,0,0,1,,,,,,,,,0,,,69,88
59589,note_on,39,0,3,,,,,,,,,2,,,44,88
59590,note_on,1,0,3,,,,,,,,,2,,,45,0
59629,note_on,39,0,3,,,,,,,,,2,,,44,0
59630,note_on,1,0,3,,,,,,,,,2,,,45,88
59670,note_on,40,0,3,,,,,,,,,2,,,45,0
59670,note_on,0,0,3,,,,,,,,,2,,,42,88
59709,note_on,39,0,3,,,,,,,,,2,,,41,88
59710,note_on,1,0,3,,,,,,,,,2,,,42,0
59749,note_on,39,0,3,,,,,,,,,2,,,41,0
59750,control_change,1,0,3,,,,,,,,,2,64,0,,
59750,note_on,0,0,3,,,,,,,,,2,,,42,88
59790,note_on,240,0,1,,,,,,,,,0,,,69,0
59790,note_on,40,0,3,,,,,,,,,2,,,42,0
59790,control_change,0,0,3,,,,,,,,,2,64,127,,
59790,note_on,0,0,3,,,,,,,,,2,,,38,114
59790,note_on,0,0,1,,,,,,,,,0,,,66,0
59790,note_on,0,0,1,,,,,,,,,0,,,61,0
59790,note_on,0,0,1,,,,,,,,,0,,,66,104
59790,note_on,0,0,1,,,,,,,,,0,,,69,109
59790,note_on,0,0,1,,,,,,,,,0,,,74,114
59790,control_change,0,0,1,,,,,,,,,0,64,127,,
59910,note_on,0,0,1,,,,,,,,,0,,,78,114
59910,note_on,0,0,1,,,,,,,,,0,,,74,109
59910,note_on,0,0,1,,,,,,,,,0,,,69,104
59910,note_on,0,0,1,,,,,,,,,0,,,66,0
59910,note_on,0,0,1,,,,,,,,,0,,,69,0
59910,note_on,120,0,1,,,,,,,,,0,,,74,0
59922,note_on,0,0,1,,,,,,,,,0,,,69,0
59922,note_on,0,0,1,,,,,,,,,0,,,74,0
59922,note_on,12,0,1,,,,,,,,,0,,,78,0
60000,note_on,0,0,3,,,,,,,,,2,,,40,88
60000,control_change,0,0,3,,,,,,,,,2,64,0,,
60000,note_on,210,0,3,,,,,,,,,2,,,38,0
60030,note_on,0,0,1,,,,,,,,,0,,,66,104
60030,note_on,30,0,3,,,,,,,,,2,,,40,0
60030,note_on,0,0,3,,,,,,,,,2,,,42,88
60030,control_change,108,0,1,,,,,,,,,0,64,0,,
60030,note_on,0,0,1,,,,,,,,,0,,,69,109
60030,note_on,0,0,1,,,,,,,,,0,,,74,114
60042,note_on,0,0,1,,,,,,,,,0,,,66,0
60042,note_on,0,0,1,,,,,,,,,0,,,69,0
60042,note_on,12,0,1,,,,,,,,,0,,,74,0
60120,note_on,90,0,3,,,,,,,,,2,,,42,0
60120,note_on,0,0,3,,,,,,,,,2,,,43,88
60150,note_on,0,0,3,,,,,,,,,2,,,45,88
60150,note_on,30,0,3,,,,,,,,,2,,,43,0
60150,note_on,108,0,1,,,,,,,,,0,,,59,104
60150,note_on,0,0,1,,,,,,,,,0,,,62,109
60150,note_on,0,0,1,,,,,,,,,0,,,66,114
60162,note_on,12,0,1,,,,,,,,,0,,,66,0
60162,note_on,0,0,1,,,,,,,,,0,,,62,0
60162,note_on,0,0,1,,,,,,,,,0,,,59,0
60240,note_on,90,0,3,,,,,,,,,2,,,45,0
60240,note_on,0,0,3,,,,,,,,,2,,,47,88
60270,note_on,30,0,3,,,,,,,,,2,,,47,0
60270,note_on,108,0,1,,,,,,,,,0,,,59,88
60270,note_on,0,0,1,,,,,,,,,0,,,64,88
60270,note_on,0,0,1,,,,,,,,,0,,,67,88
60270,control_change,0,0,3,,,,,,,,,2,64,127,,
60270,note_on,0,0,3,,,,,,,,,2,,,43,88
60309,note_on,39,0,3,,,,,,,,,2,,,42,88
60310,note_on,1,0,3,,,,,,,,,2,,,43,0
60349,note_on,39,0,3,,,,,,,,,2,,,42,0
60350,note_on,1,0,3,,,,,,,,,2,,,43,88
60390,note_on,40,0,3,,,,,,,,,2,,,43,0
60390,note_on,0,0,3,,,,,,,,,2,,,40,88
60429,note_on,39,0,3,,,,,,,,,2,,,39,88
60430,note_on,1,0,3,,,,,,,,,2,,,40,0
60469,note_on,39,0,3,,,,,,,,,2,,,39,0
60470,control_change,1,0,3,,,,,,,,,2,64,0,,
60470,note_on,0,0,3,,,,,,,,,2,,,40,88
60510,note_on,0,0,3,,,,,,,,,2,,,37,114
60510,control_change,0,0,3,,,,,,,,,2,64,127,,
60510,note_on,240,0,1,,,,,,,,,0,,,67,0
60510,note_on,0,0,1,,,,,,,,,0,,,64,0
60510,note_on,0,0,1,,,,,,,,,0,,,59,0
60510,note_on,0,0,1,,,,,,,,,0,,,64,104
60510,note_on,40,0,3,,,,,,,,,2,,,40,0
60510,note_on,0,0,1,,,,,,,,,0,,,73,114
60510,note_on,0,0,1,,,,,,,,,0,,,67,109
60510,control_change,0,0,1,,,,,,,,,0,64,127,,
60630,note_on,120,0,1,,,,,,,,,0,,,73,0
60630,note_on,0,0,1,,,,,,,,,0,,,67,104
60630,note_on,0,0,1,,,,,,,,,0,,,67,0
60630,note_on,0,0,1,,,,,,,,,0,,,76,114
60630,note_on,0,0,1,,,,,,,,,0,,,64,0
60630,note_on,0,0,1,,,,,,,,,0,,,73,109
60642,note_on,0,0,1,,,,,,,,,0,,,67,0
60642,note_on,0,0,1,,,,,,,,,0,,,73,0
60642,note_on,12,0,1,,,,,,,,,0,,,76,0
60720,note_on,0,0,3,,,,,,,,,2,,,38,88
60720,note_on,210,0,3,,,,,,,,,2,,,37,0
60750,note_on,0,0,1,,,,,,,,,0,,,64,104
60750,control_change,108,0,1,,,,,,,,,0,64,0,,
60750,note_on,30,0,3,,,,,,,,,2,,,38,0
60750,control_change,0,0,3,,,,,,,,,2,64,0,,
60750,note_on,0,0,3,,,,,,,,,2,,,40,88
60750,note_on,0,0,1,,,,,,,,,0,,,67,109
60750,note_on,0,0,1,,,,,,,,,0,,,73,114
60762,note_on,12,0,1,,,,,,,,,0,,,73,0
60762,note_on,0,0,1,,,,,,,,,0,,,67,0
60762,note_on,0,0,1,,,,,,,,,0,,,64,0
60840,note_on,90,0,3,,,,,,,,,2,,,40,0
60840,note_on,0,0,3,,,,,,,,,2,,,37,88
60870,note_on,108,0,1,,,,,,,,,0,,,61,104
60870,note_on,0,0,1,,,,,,,,,0,,,71,114
60870,note_on,0,0,3,,,,,,,,,2,,,41,88
60870,note_on,30,0,3,,,,,,,,,2,,,37,0
60870,note_on,0,0,1,,,,,,,,,0,,,68,109
60882,note_on,12,0,1,,,,,,,,,0,,,71,0
60882,note_on,0,0,1,,,,,,,,,0,,,61,0
60882,note_on,0,0,1,,,,,,,,,0,,,68,0
60960,note_on,0,0,3,,,,,,,,,2,,,37,88
60960,note_on,90,0,3,,,,,,,,,2,,,41,0
60990,note_on,30,0,3,,,,,,,,,2,,,37,0
60990,note_on,0,0,3,,,,,,,,,2,,,42,101
60990,note_on,0,0,1,,,,,,,,,0,,,70,114
60990,note_on,0,0,1,,,,,,,,,0,,,66,114
60990,note_on,108,0,1,,,,,,,,,0,,,61,114
61230,note_on,240,0,3,,,,,,,,,2,,,42,0
61230,note_on,0,0,1,,,,,,,,,0,,,70,114
61230,note_on,0,0,1,,,,,,,,,0,,,61,114
61230,note_on,0,0,1,,,,,,,,,0,,,61,0
61230,note_on,0,0,1,,,,,,,,,0,,,66,0
61230,note_on,240,0,1,,,,,,,,,0,,,70,0
61230,note_on,0,0,1,,,,,,,,,0,,,66,114
61230,note_on,0,0,3,,,,,,,,,2,,,42,101
61440,note_on,0,0,1,,,,,,,,,0,,,73,114
61440,note_on,0,0,3,,,,,,,,,2,,,46,101
61440,note_on,210,0,3,,,,,,,,,2,,,42,0
61440,note_on,210,0,1,,,,,,,,,0,,,70,0
61440,note_on,0,0,1,,,,,,,,,0,,,66,0
61440,note_on,0,0,1,,,,,,,,,0,,,61,0
61440,note_on,0,0,1,,,,,,,,,0,,,66,114
61444,note_on,4,0,3,,,,,,,,,2,,,46,0
61444,note_on,4,0,1,,,,,,,,,0,,,73,0
61444,note_on,0,0,1,,,,,,,,,0,,,66,0
61470,note_on,26,0,3,,,,,,,,,2,,,47,101
61470,note_on,0,0,1,,,,,,,,,0,,,75,114
61470,note_on,26,0,1,,,,,,,,,0,,,66,114
61479,note_on,9,0,1,,,,,,,,,0,,,75,0
61479,note_on,0,0,1,,,,,,,,,0,,,66,0
61479,note_on,9,0,3,,,,,,,,,2,,,47,0
61560,note_on,81,0,1,,,,,,,,,0,,,66,114
61560,note_on,0,0,1,,,,,,,,,0,,,73,114
61560,note_on,81,0,3,,,,,,,,,2,,,46,101
61564,note_on,0,0,1,,,,,,,,,0,,,66,0
61564,note_on,4,0,1,,,,,,,,,0,,,73,0
61564,note_on,4,0,3,,,,,,,,,2,,,46,0
61590,note_on,26,0,1,,,,,,,,,0,,,66,114
61590,note_on,26,0,3,,,,,,,,,2,,,47,101
61590,note_on,0,0,1,,,,,,,,,0,,,75,114
61599,note_on,0,0,1,,,,,,,,,0,,,66,0
61599,note_on,9,0,3,,,,,,,,,2,,,47,0
61599,note_on,9,0,1,,,,,,,,,0,,,75,0
61680,note_on,81,0,3,,,,,,,,,2,,,46,101
61680,note_on,0,0,1,,,,,,,,,0,,,73,114
61680,note_on,81,0,1,,,,,,,,,0,,,66,114
61684,note_on,4,0,1,,,,,,,,,0,,,73,0
61684,note_on,4,0,3,,,,,,,,,2,,,46,0
61684,note_on,0,0,1,,,,,,,,,0,,,66,0
61710,note_on,26,0,1,,,,,,,,,0,,,65,114
61710,note_on,0,0,1,,,,,,,,,0,,,71,114
61710,note_on,0,0,1,,,,,,,,,0,,,77,114
61710,note_on,0,0,3,,,,,,,,,2,,,49,101
61710,note_on,26,0,3,,,,,,,,,2,,,44,101
61950,note_on,0,0,3,,,,,,,,,2,,,49,101
61950,note_on,0,0,3,,,,,,,,,2,,,44,0
61950,note_on,240,0,3,,,,,,,,,2,,,49,0
61950,note_on,0,0,3,,,,,,,,,2,,,44,101
61950,note_on,0,0,1,,,,,,,,,0,,,77,114
61950,note_on,0,0,1,,,,,,,,,0,,,71,114
61950,note_on,240,0,1,,,,,,,,,0,,,77,0
61950,note_on,0,0,1,,,,,,,,,0,,,71,0
61950,note_on,0,0,1,,,,,,,,,0,,,65,0
61950,note_on,0,0,1,,,,,,,,,0,,,65,114
62160,note_on,0,0,3,,,,,,,,,2,,,49,101
62160,note_on,0,0,3,,,,,,,,,2,,,44,101
62160,note_on,0,0,3,,,,,,,,,2,,,44,0
62160,note_on,210,0,3,,,,,,,,,2,,,49,0
62160,note_on,210,0,1,,,,,,,,,0,,,77,0
62160,note_on,0,0,1,,,,,,,,,0,,,65,0
62160,note_on,0,0,1,,,,,,,,,0,,,71,0
62160,note_on,0,0,1,,,,,,,,,0,,,73,114
62160,note_on,0,0,1,,,,,,,,,0,,,77,114
62160,note_on,0,0,1,,,,,,,,,0,,,65,114
62164,note_on,0,0,3,,,,,,,,,2,,,44,0
62164,note_on,4,0,1,,,,,,,,,0,,,77,0
62164,note_on,0,0,1,,,,,,,,,0,,,73,0
62164,note_on,0,0,1,,,,,,,,,0,,,65,0
62164,note_on,4,0,3,,,,,,,,,2,,,49,0
62190,note_on,0,0,3,,,,,,,,,2,,,49,101
62190,note_on,26,0,1,,,,,,,,,0,,,65,114
62190,note_on,0,0,1,,,,,,,,,0,,,73,114
62190,note_on,0,0,1,,,,,,,,,0,,,77,114
62190,note_on,26,0,3,,,,,,,,,2,,,46,101
62199,note_on,9,0,3,,,,,,,,,2,,,49,0
62199,note_on,0,0,1,,,,,,,,,0,,,73,0
62199,note_on,9,0,1,,,,,,,,,0,,,77,0
62199,note_on,0,0,1,,,,,,,,,0,,,65,0
62199,note_on,0,0,3,,,,,,,,,2,,,46,0
62280,note_on,0,0,3,,,,,,,,,2,,,49,101
62280,note_on,81,0,3,,,,,,,,,2,,,44,101
62280,note_on,81,0,1,,,,,,,,,0,,,65,114
62280,note_on,0,0,1,,,,,,,,,0,,,73,114
62280,note_on,0,0,1,,,,,,,,,0,,,77,114
62284,note_on,0,0,3,,,,,,,,,2,,,44,0
62284,note_on,4,0,1,,,,,,,,,0,,,77,0
62284,note_on,0,0,1,,,,,,,,,0,,,65,0
62284,note_on,0,0,1,,,,,,,,,0,,,73,0
62284,note_on,4,0,3,,,,,,,,,2,,,49,0
62310,note_on,0,0,1,,,,,,,,,0,,,73,114
62310,note_on,26,0,3,,,,,,,,,2,,,46,101
62310,note_on,0,0,1,,,,,,,,,0,,,77,114
62310,note_on,0,0,3,,,,,,,,,2,,,49,101
62310,note_on,26,0,1,,,,,,,,,0,,,65,114
62319,note_on,9,0,1,,,,,,,,,0,,,77,0
62319,note_on,0,0,1,,,,,,,,,0,,,73,0
62319,note_on,0,0,1,,,,,,,,,0,,,65,0
62319,note_on,9,0,3,,,,,,,,,2,,,49,0
62319,note_on,0,0,3,,,,,,,,,2,,,46,0
62400,note_on,0,0,3,,,,,,,,,2,,,49,101
62400,note_on,0,0,1,,,,,,,,,0,,,77,114
62400,note_on,0,0,1,,,,,,,,,0,,,73,114
62400,note_on,81,0,1,,,,,,,,,0,,,65,114
62400,note_on,81,0,3,,,,,,,,,2,,,44,101
62404,note_on,0,0,1,,,,,,,,,0,,,65,0
62404,note_on,0,0,1,,,,,,,,,0,,,73,0
62404,note_on,0,0,3,,,,,,,,,2,,,44,0
62404,note_on,4,0,3,,,,,,,,,2,,,49,0
62404,note_on,4,0,1,,,,,,,,,0,,,77,0
62430,note_on,0,0,1,,,,,,,,,0,,,70,114
62430,note_on,26,0,1,,,,,,,,,0,,,66,114
62430,note_on,26,0,3,,,,,,,,,2,,,42,101
62430,note_on,0,0,1,,,,,,,,,0,,,78,114
62430,note_on,0,0,3,,,,,,,,,2,,,49,101
62670,note_on,240,0,3,,,,,,,,,2,,,49,0
62670,note_on,240,0,1,,,,,,,,,0,,,78,0
62670,note_on,0,0,1,,,,,,,,,0,,,78,114
62670,note_on,0,0,1,,,,,,,,,0,,,70,114
62670,note_on,0,0,1,,,,,,,,,0,,,66,114
62670,note_on,0,0,1,,,,,,,,,0,,,66,0
62670,note_on,0,0,1,,,,,,,,,0,,,70,0
62670,note_on,0,0,3,,,,,,,,,2,,,49,101
62670,note_on,0,0,3,,,,,,,,,2,,,42,101
62670,note_on,0,0,3,,,,,,,,,2,,,42,0
62880,note_on,0,0,1,,,,,,,,,0,,,67,49
62880,note_on,0,0,1,,,,,,,,,0,,,69,49
62880,note_on,0,0,1,,,,,,,,,0,,,73,49
62880,note_on,0,0,3,,,,,,,,,2,,,57,36
62880,note_on,210,0,1,,,,,,,,,0,,,78,0
62880,note_on,0,0,1,,,,,,,,,0,,,66,0
62880,note_on,0,0,1,,,,,,,,,0,,,70,0
62880,note_on,0,0,3,,,,,,,,,2,,,42,0
62880,note_on,210,0,3,,,,,,,,,2,,,49,0
62884,note_on,4,0,3,,,,,,,,,2,,,57,0
62884,note_on,0,0,1,,,,,,,,,0,,,67,0
62884,note_on,0,0,1,,,,,,,,,0,,,69,0
62884,note_on,4,0,1,,,,,,,,,0,,,73,0
62910,note_on,26,0,3,,,,,,,,,2,,,57,36
62910,note_on,0,0,1,,,,,,,,,0,,,73,49
62910,note_on,0,0,1,,,,,,,,,0,,,69,49
62910,note_on,26,0,1,,,,,,,,,0,,,67,49
62919,note_on,0,0,1,,,,,,,,,0,,,69,0
62919,note_on,9,0,1,,,,,,,,,0,,,73,0
62919,note_on,0,0,1,,,,,,,,,0,,,67,0
62919,note_on,9,0,3,,,,,,,,,2,,,57,0
63000,note_on,0,0,1,,,,,,,,,0,,,73,49
63000,note_on,0,0,1,,,,,,,,,0,,,69,49
63000,note_on,81,0,3,,,,,,,,,2,,,57,36
63000,note_on,81,0,1,,,,,,,,,0,,,67,49
63004,note_on,0,0,1,,,,,,,,,0,,,69,0
63004,note_on,4,0,1,,,,,,,,,0,,,73,0
63004,note_on,0,0,1,,,,,,,,,0,,,67,0
63004,note_on,4,0,3,,,,,,,,,2,,,57,0
63030,note_on,26,0,3,,,,,,,,,2,,,59,36
63030,note_on,26,0,1,,,,,,,,,0,,,67,49
63030,note_on,0,0,1,,,,,,,,,0,,,69,49
63030,note_on,0,0,1,,,,,,,,,0,,,74,49
63039,note_on,0,0,1,,,,,,,,,0,,,69,0
63039,note_on,9,0,3,,,,,,,,,2,,,59,0
63039,note_on,9,0,1,,,,,,,,,0,,,74,0
63039,note_on,0,0,1,,,,,,,,,0,,,67,0
63120,note_on,0,0,1,,,,,,,,,0,,,69,49
63120,note_on,0,0,1,,,,,,,,,0,,,76,49
63120,note_on,81,0,3,,,,,,,,,2,,,61,36
63120,note_on,81,0,1,,,,,,,,,0,,,67,49
63124,note_on,4,0,3,,,,,,,,,2,,,61,0
63124,note_on,0,0,1,,,,,,,,,0,,,67,0
63124,note_on,4,0,1,,,,,,,,,0,,,76,0
63124,note_on,0,0,1,,,,,,,,,0,,,69,0
63150,note_on,26,0,3,,,,,,,,,2,,,62,62
63150,note_on,0,0,1,,,,,,,,,0,,,69,75
63150,note_on,26,0,1,,,,,,,,,0,,,66,67
63390,note_on,240,0,1,,,,,,,,,0,,,69,0
63390,note_on,0,0,3,,,,,,,,,2,,,62,62
63390,note_on,0,0,1,,,,,,,,,0,,,78,75
63390,note_on,240,0,3,,,,,,,,,2,,,62,0
63390,note_on,0,0,1,,,,,,,,,0,,,69,70
63390,note_on,0,0,1,,,,,,,,,0,,,66,0
63390,note_on,0,0,1,,,,,,,,,0,,,66,65
63600,note_on,0,0,3,,,,,,,,,2,,,62,36
63600,note_on,210,0,3,,,,,,,,,2,,,62,0
63600,note_on,210,0,1,,,,,,,,,0,,,78,0
63600,note_on,0,0,1,,,,,,,,,0,,,78,49
63600,note_on,0,0,1,,,,,,,,,0,,,66,49
63600,note_on,0,0,1,,,,,,,,,0,,,66,0
63600,note_on,0,0,1,,,,,,,,,0,,,69,0
63630,note_on,0,0,1,,,,,,,,,0,,,66,0
63630,note_on,0,0,1,,,,,,,,,0,,,66,49
63630,note_on,0,0,3,,,,,,,,,2,,,62,36
63630,note_on,30,0,3,,,,,,,,,2,,,62,0
63630,note_on,30,0,1,,,,,,,,,0,,,78,0
63630,note_on,0,0,1,,,,,,,,,0,,,78,49
63720,note_on,90,0,3,,,,,,,,,2,,,62,0
63720,note_on,0,0,1,,,,,,,,,0,,,66,49
63720,note_on,0,0,3,,,,,,,,,2,,,62,36
63720,note_on,0,0,1,,,,,,,,,0,,,66,0
63720,note_on,90,0,1,,,,,,,,,0,,,78,0
63720,note_on,0,0,1,,,,,,,,,0,,,78,49
63750,note_on,30,0,3,,,,,,,,,2,,,62,0
63750,note_on,0,0,1,,,,,,,,,0,,,76,49
63750,note_on,0,0,3,,,,,,,,,2,,,62,36
63750,note_on,0,0,1,,,,,,,,,0,,,68,49
63750,note_on,0,0,1,,,,,,,,,0,,,66,0
63750,note_on,0,0,3,,,,,,,,,2,,,59,36
63750,note_on,30,0,1,,,,,,,,,0,,,78,0
63840,note_on,90,0,3,,,,,,,,,2,,,62,0
63840,note_on,0,0,3,,,,,,,,,2,,,59,0
63840,note_on,0,0,3,,,,,,,,,2,,,59,36
63840,note_on,0,0,3,,,,,,,,,2,,,62,36
63840,note_on,90,0,1,,,,,,,,,0,,,76,0
63840,note_on,0,0,1,,,,,,,,,0,,,68,0
63840,note_on,0,0,1,,,,,,,,,0,,,68,49
63840,note_on,0,0,1,,,,,,,,,0,,,74,49
63870,note_on,0,0,3,,,,,,,,,2,,,64,62
63870,note_on,0,0,3,,,,,,,,,2,,,57,54
63870,note_on,0,0,3,,,,,,,,,2,,,59,0
63870,note_on,30,0,3,,,,,,,,,2,,,62,0
63870,note_on,30,0,1,,,,,,,,,0,,,74,0
63870,note_on,0,0,1,,,,,,,,,0,,,68,0
63870,note_on,0,0,1,,,,,,,,,0,,,69,67
63870,note_on,0,0,1,,,,,,,,,0,,,73,75
64110,note_on,240,0,3,,,,,,,,,2,,,64,0
64110,note_on,0,0,3,,,,,,,,,2,,,61,62
64110,note_on,0,0,3,,,,,,,,,2,,,57,0
64110,note_on,240,0,1,,,,,,,,,0,,,73,0
64110,note_on,0,0,1,,,,,,,,,0,,,69,67
64110,note_on,0,0,1,,,,,,,,,0,,,76,75
64110,note_on,0,0,1,,,,,,,,,0,,,69,0
64110,note_on,0,0,3,,,,,,,,,2,,,57,54
64320,note_on,210,0,1,,,,,,,,,0,,,76,0
64320,note_on,0,0,1,,,,,,,,,0,,,69,0
64320,note_on,0,0,1,,,,,,,,,0,,,70,49
64320,note_on,0,0,1,,,,,,,,,0,,,76,49
64320,note_on,0,0,3,,,,,,,,,2,,,57,0
64320,note_on,210,0,3,,,,,,,,,2,,,61,0
64320,note_on,0,0,3,,,,,,,,,2,,,54,36
64320,note_on,0,0,3,,,,,,,,,2,,,61,36
64350,note_on,30,0,3,,,,,,,,,2,,,61,0
64350,note_on,0,0,3,,,,,,,,,2,,,54,0
64350,note_on,0,0,3,,,,,,,,,2,,,54,36
64350,note_on,0,0,3,,,,,,,,,2,,,61,36
64350,note_on,0,0,1,,,,,,,,,0,,,70,0
64350,note_on,30,0,1,,,,,,,,,0,,,76,0
64350,note_on,0,0,1,,,,,,,,,0,,,76,49
64350,note_on,0,0,1,,,,,,,,,0,,,70,49
64440,note_on,0,0,1,,,,,,,,,0,,,76,49
64440,note_on,0,0,1,,,,,,,,,0,,,70,49
64440,note_on,0,0,1,,,,,,,,,0,,,70,0
64440,note_on,90,0,1,,,,,,,,,0,,,76,0
64440,note_on,90,0,3,,,,,,,,,2,,,61,0
64440,note_on,0,0,3,,,,,,,,,2,,,54,0
64440,note_on,0,0,3,,,,,,,,,2,,,54,36
64440,note_on,0,0,3,,,,,,,,,2,,,61,36
64470,note_on,0,0,3,,,,,,,,,2,,,62,36
64470,note_on,30,0,3,,,,,,,,,2,,,61,0
64470,note_on,0,0,3,,,,,,,,,2,,,54,36
64470,note_on,30,0,1,,,,,,,,,0,,,76,0
64470,note_on,0,0,1,,,,,,,,,0,,,70,0
64470,note_on,0,0,1,,,,,,,,,0,,,70,49
64470,note_on,0,0,1,,,,,,,,,0,,,74,49
64470,note_on,0,0,3,,,,,,,,,2,,,54,0
64560,note_on,0,0,1,,,,,,,,,0,,,73,49
64560,note_on,0,0,3,,,,,,,,,2,,,64,36
64560,note_on,0,0,3,,,,,,,,,2,,,54,36
64560,note_on,0,0,3,,,,,,,,,2,,,54,0
64560,note_on,90,0,3,,,,,,,,,2,,,62,0
64560,note_on,90,0,1,,,,,,,,,0,,,74,0
64560,note_on,0,0,1,,,,,,,,,0,,,70,0
64560,note_on,0,0,1,,,,,,,,,0,,,70,49
64590,note_on,0,0,3,,,,,,,,,2,,,54,0
64590,note_on,0,0,3,,,,,,,,,2,,,62,62
64590,note_on,30,0,1,,,,,,,,,0,,,73,0
64590,note_on,0,0,1,,,,,,,,,0,,,70,0
64590,note_on,0,0,1,,,,,,,,,0,,,71,75
64590,note_on,30,0,3,,,,,,,,,2,,,64,0
64590,note_on,0,0,3,,,,,,,,,2,,,55,54
64830,note_on,240,0,3,,,,,,,,,2,,,62,0
64830,note_on,0,0,3,,,,,,,,,2,,,55,0
64830,note_on,240,0,1,,,,,,,,,0,,,71,0
64830,note_on,0,0,1,,,,,,,,,0,,,67,67
64830,note_on,0,0,3,,,,,,,,,2,,,55,54
64830,note_on,0,0,3,,,,,,,,,2,,,59,62
64830,note_on,0,0,1,,,,,,,,,0,,,74,75
65040,note_on,0,0,1,,,,,,,,,0,,,67,0
65040,note_on,0,0,1,,,,,,,,,0,,,61,49
65040,note_on,0,0,1,,,,,,,,,0,,,67,49
65040,note_on,0,0,1,,,,,,,,,0,,,71,49
65040,note_on,210,0,3,,,,,,,,,2,,,59,0
65040,note_on,0,0,3,,,,,,,,,2,,,55,0
65040,note_on,0,0,3,,,,,,,,,2,,,45,36
65040,note_on,210,0,1,,,,,,,,,0,,,74,0
65070,note_on,0,0,1,,,,,,,,,0,,,67,49
65070,note_on,0,0,3,,,,,,,,,2,,,45,36
65070,note_on,30,0,3,,,,,,,,,2,,,45,0
65070,note_on,0,0,1,,,,,,,,,0,,,71,49
65070,note_on,30,0,1,,,,,,,,,0,,,71,0
65070,note_on,0,0,1,,,,,,,,,0,,,67,0
65070,note_on,0,0,1,,,,,,,,,0,,,61,0
65070,note_on,0,0,1,,,,,,,,,0,,,61,49
65160,note_on,0,0,3,,,,,,,,,2,,,45,36
65160,note_on,90,0,3,,,,,,,,,2,,,45,0
65160,note_on,0,0,1,,,,,,,,,0,,,71,49
65160,note_on,0,0,1,,,,,,,,,0,,,67,49
65160,note_on,0,0,1,,,,,,,,,0,,,61,49
65160,note_on,0,0,1,,,,,,,,,0,,,67,0
65160,note_on,90,0,1,,,,,,,,,0,,,71,0
65160,note_on,0,0,1,,,,,,,,,0,,,61,0
65190,note_on,0,0,3,,,,,,,,,2,,,45,36
65190,note_on,30,0,3,,,,,,,,,2,,,45,0
65190,note_on,30,0,1,,,,,,,,,0,,,71,0
65190,note_on,0,0,1,,,,,,,,,0,,,61,49
65190,note_on,0,0,1,,,,,,,,,0,,,61,0
65190,note_on,0,0,1,,,,,,,,,0,,,67,0
65190,note_on,0,0,1,,,,,,,,,0,,,66,49
65190,note_on,0,0,1,,,,,,,,,0,,,69,49
65280,note_on,90,0,3,,,,,,,,,2,,,45,0
65280,note_on,90,0,1,,,,,,,,,0,,,69,0
65280,note_on,0,0,3,,,,,,,,,2,,,45,36
65280,note_on,0,0,1,,,,,,,,,0,,,66,0
65280,note_on,0,0,1,,,,,,,,,0,,,61,0
65280,note_on,0,0,1,,,,,,,,,0,,,61,49
65280,note_on,0,0,1,,,,,,,,,0,,,64,49
65280,note_on,0,0,1,,,,,,,,,0,,,67,49
65310,note_on,30,0,3,,,,,,,,,2,,,45,0
65310,note_on,0,0,1,,,,,,,,,0,,,67,75
65310,note_on,0,0,1,,,,,,,,,0,,,57,65
65310,note_on,0,0,1,,,,,,,,,0,,,61,0
65310,note_on,0,0,1,,,,,,,,,0,,,64,0
65310,note_on,30,0,1,,,,,,,,,0,,,67,0
65310,note_on,0,0,1,,,,,,,,,0,,,64,70
65310,note_on,0,0,3,,,,,,,,,2,,,50,62
65550,note_on,0,0,1,,,,,,,,,0,,,66,75
65550,note_on,0,0,3,,,,,,,,,2,,,50,62
65550,note_on,240,0,3,,,,,,,,,2,,,50,0
65550,note_on,240,0,1,,,,,,,,,0,,,67,0
65550,note_on,0,0,1,,,,,,,,,0,,,64,0
65550,note_on,0,0,1,,,,,,,,,0,,,57,0
65550,note_on,0,0,1,,,,,,,,,0,,,57,65
65550,note_on,0,0,1,,,,,,,,,0,,,62,70
65790,note_on,0,0,1,,,,,,,,,0,,,69,88
65790,note_on,0,0,1,,,,,,,,,0,,,66,88
65790,note_on,0,0,1,,,,,,,,,0,,,62,88
65790,note_on,0,0,1,,,,,,,,,0,,,57,0
65790,note_on,0,0,3,,,,,,,,,2,,,50,88
65790,note_on,240,0,1,,,,,,,,,0,,,66,0
65790,note_on,240,0,3,,,,,,,,,2,,,50,0
65790,note_on,0,0,1,,,,,,,,,0,,,62,0
65802,note_on,12,0,3,,,,,,,,,2,,,50,0
65802,note_on,0,0,1,,,,,,,,,0,,,66,0
65802,note_on,12,0,1,,,,,,,,,0,,,69,0
65802,note_on,0,0,1,,,,,,,,,0,,,62,0
65910,note_on,0,0,1,,,,,,,,,0,,,70,88
65910,note_on,0,0,1,,,,,,,,,0,,,66,88
65910,note_on,108,0,1,,,,,,,,,0,,,62,88
65910,note_on,108,0,3,,,,,,,,,2,,,49,88
65922,note_on,12,0,3,,,,,,,,,2,,,49,0
65922,note_on,0,0,1,,,,,,,,,0,,,66,0
65922,note_on,12,0,1,,,,,,,,,0,,,70,0
65922,note_on,0,0,1,,,,,,,,,0,,,62,0
66030,note_on,108,0,1,,,,,,,,,0,,,62,101
66030,note_on,0,0,1,,,,,,,,,0,,,67,101
66030,note_on,0,0,1,,,,,,,,,0,,,71,101
66030,control_change,108,0,3,,,,,,,,,2,64,127,,
66030,note_on,0,0,3,,,,,,,,,2,,,47,114
66069,note_on,39,0,3,,,,,,,,,2,,,46,114
66070,note_on,1,0,3,,,,,,,,,2,,,47,0
66109,note_on,39,0,3,,,,,,,,,2,,,46,0
66110,note_on,1,0,3,,,,,,,,,2,,,47,114
66150,note_on,0,0,3,,,,,,,,,2,,,43,114
66150,note_on,40,0,3,,,,,,,,,2,,,47,0
66189,note_on,39,0,3,,,,,,,,,2,,,42,114
66190,note_on,1,0,3,,,,,,,,,2,,,43,0
66229,note_on,39,0,3,,,,,,,,,2,,,42,0
66230,note_on,0,0,3,,,,,,,,,2,,,43,114
66230,control_change,1,0,3,,,,,,,,,2,64,0,,
66270,control_change,0,0,3,,,,,,,,,2,64,127,,
66270,note_on,40,0,3,,,,,,,,,2,,,43,0
66270,note_on,0,0,3,,,,,,,,,2,,,40,127
66270,note_on,0,0,1,,,,,,,,,0,,,76,127
66270,note_on,240,0,1,,,,,,,,,0,,,71,0
66270,note_on,0,0,1,,,,,,,,,0,,,67,0
66270,note_on,0,0,1,,,,,,,,,0,,,62,0
66270,note_on,0,0,1,,,,,,,,,0,,,67,117
66270,note_on,0,0,1,,,,,,,,,0,,,71,122
66270,control_change,0,0,1,,,,,,,,,0,64,127,,
66390,note_on,120,0,1,,,,,,,,,0,,,76,0
66390,note_on,0,0,1,,,,,,,,,0,,,79,127
66390,note_on,0,0,1,,,,,,,,,0,,,76,122
66390,note_on,0,0,1,,,,,,,,,0,,,71,117
66390,note_on,0,0,1,,,,,,,,,0,,,67,0
66390,note_on,0,0,1,,,,,,,,,0,,,71,0
66402,note_on,0,0,1,,,,,,,,,0,,,76,0
66402,note_on,0,0,1,,,,,,,,,0,,,71,0
66402,note_on,12,0,1,,,,,,,,,0,,,79,0
66480,note_on,0,0,3,,,,,,,,,2,,,42,114
66480,note_on,210,0,3,,,,,,,,,2,,,40,0
66510,note_on,108,0,1,,,,,,,,,0,,,67,117
66510,note_on,0,0,1,,,,,,,,,0,,,71,122
66510,note_on,0,0,1,,,,,,,,,0,,,76,127
66510,note_on,0,0,3,,,,,,,,,2,,,43,114
66510,note_on,30,0,3,,,,,,,,,2,,,42,0
66522,note_on,12,0,1,,,,,,,,,0,,,76,0
66522,note_on,0,0,1,,,,,,,,,0,,,71,0
66522,note_on,0,0,1,,,,,,,,,0,,,67,0
66600,note_on,0,0,3,,,,,,,,,2,,,45,114
66600,note_on,90,0,3,,,,,,,,,2,,,43,0
66630,note_on,0,0,1,,,,,,,,,0,,,61,119
66630,note_on,0,0,3,,,,,,,,,2,,,47,114
66630,control_change,0,0,3,,,,,,,,,2,64,0,,
66630,note_on,30,0,3,,,,,,,,,2,,,45,0
66630,control_change,108,0,1,,,,,,,,,0,64,0,,
66630,note_on,0,0,1,,,,,,,,,0,,,64,127
66642,note_on,12,0,1,,,,,,,,,0,,,64,0
66642,note_on,0,0,1,,,,,,,,,0,,,61,0
66720,note_on,90,0,3,,,,,,,,,2,,,47,0
66720,note_on,0,0,3,,,,,,,,,2,,,49,114
66750,note_on,108,0,1,,,,,,,,,0,,,64,101
66750,note_on,0,0,1,,,,,,,,,0,,,69,101
66750,note_on,0,0,1,,,,,,,,,0,,,73,101
66750,note_on,30,0,3,,,,,,,,,2,,,49,0
66750,control_change,0,0,3,,,,,,,,,2,64,127,,
66750,note_on,0,0,3,,,,,,,,,2,,,49,114
66789,note_on,39,0,3,,,,,,,,,2,,,48,114
66790,note_on,1,0,3,,,,,,,,,2,,,49,0
66829,note_on,39,0,3,,,,,,,,,2,,,48,0
66830,note_on,1,0,3,,,,,,,,,2,,,49,114
66870,note_on,0,0,3,,,,,,,,,2,,,45,114
66870,note_on,40,0,3,,,,,,,,,2,,,49,0
66909,note_on,39,0,3,,,,,,,,,2,,,44,114
66910,note_on,1,0,3,,,,,,,,,2,,,45,0
66949,note_on,39,0,3,,,,,,,,,2,,,44,0
66950,note_on,0,0,3,,,,,,,,,2,,,45,114
66950,control_change,1,0,3,,,,,,,,,2,64,0,,
66990,control_change,0,0,3,,,,,,,,,2,64,127,,
66990,control_change,0,0,1,,,,,,,,,0,64,127,,
66990,note_on,0,0,1,,,,,,,,,0,,,78,101
66990,note_on,0,0,1,,,,,,,,,0,,,73,101
66990,note_on,0,0,1,,,,,,,,,0,,,69,101
66990,note_on,0,0,1,,,,,,,,,0,,,64,0
66990,note_on,0,0,3,,,,,,,,,2,,,42,114
66990,note_on,240,0,1,,,,,,,,,0,,,73,0
66990,note_on,40,0,3,,,,,,,,,2,,,45,0
66990,note_on,0,0,1,,,,,,,,,0,,,69,0
67110,note_on,0,0,1,,,,,,,,,0,,,69,0
67110,note_on,120,0,1,,,,,,,,,0,,,78,0
67110,note_on,0,0,1,,,,,,,,,0,,,73,0
67110,note_on,0,0,1,,,,,,,,,0,,,73,101
67110,note_on,0,0,1,,,,,,,,,0,,,78,101
67110,note_on,0,0,1,,,,,,,,,0,,,81,101
67122,note_on,0,0,1,,,,,,,,,0,,,73,0
67122,note_on,12,0,1,,,,,,,,,0,,,81,0
67122,note_on,0,0,1,,,,,,,,,0,,,78,0
67200,note_on,0,0,3,,,,,,,,,2,,,44,114
67200,note_on,210,0,3,,,,,,,,,2,,,42,0
67230,note_on,108,0,1,,,,,,,,,0,,,69,101
67230,note_on,0,0,1,,,,,,,,,0,,,78,101
67230,note_on,0,0,3,,,,,,,,,2,,,45,114
67230,note_on,30,0,3,,,,,,,,,2,,,44,0
67230,note_on,0,0,1,,,,,,,,,0,,,73,101
67242,note_on,0,0,1,,,,,,,,,0,,,69,0
67242,note_on,12,0,1,,,,,,,,,0,,,78,0
67242,note_on,0,0,1,,,,,,,,,0,,,73,0
67320,note_on,90,0,3,,,,,,,,,2,,,45,0
67320,note_on,0,0,3,,,,,,,,,2,,,47,114
67350,control_change,108,0,1,,,,,,,,,0,64,0,,
67350,note_on,30,0,3,,,,,,,,,2,,,47,0
67350,note_on,0,0,1,,,,,,,,,0,,,69,101
67350,note_on,0,0,1,,,,,,,,,0,,,66,101
67350,note_on,0,0,3,,,,,,,,,2,,,49,114
67350,control_change,0,0,3,,,,,,,,,2,64,0,,
67362,note_on,0,0,1,,,,,,,,,0,,,66,0
67362,note_on,12,0,1,,,,,,,,,0,,,69,0
67440,note_on,90,0,3,,,,,,,,,2,,,49,0
67440,note_on,0,0,3,,,,,,,,,2,,,52,114
67470,note_on,108,0,1,,,,,,,,,0,,,66,101
67470,note_on,0,0,1,,,,,,,,,0,,,74,101
67470,note_on,0,0,1,,,,,,,,,0,,,71,101
67470,note_on,30,0,3,,,,,,,,,2,,,52,0
67470,control_change,0,0,3,,,,,,,,,2,64,127,,
67470,note_on,0,0,3,,,,,,,,,2,,,50,114
67509,note_on,39,0,3,,,,,,,,,2,,,49,114
67510,note_on,1,0,3,,,,,,,,,2,,,50,0
67549,note_on,39,0,3,,,,,,,,,2,,,49,0
67550,note_on,1,0,3,,,,,,,,,2,,,50,114
67590,note_on,40,0,3,,,,,,,,,2,,,50,0
67590,note_on,0,0,3,,,,,,,,,2,,,47,114
67629,note_on,39,0,3,,,,,,,,,2,,,46,114
67630,note_on,1,0,3,,,,,,,,,2,,,47,0
67669,note_on,39,0,3,,,,,,,,,2,,,46,0
67670,control_change,1,0,3,,,,,,,,,2,64,0,,
67670,note_on,0,0,3,,,,,,,,,2,,,47,114
67710,note_on,0,0,1,,,,,,,,,0,,,71,101
67710,control_change,0,0,1,,,,,,,,,0,64,127,,
67710,note_on,0,0,1,,,,,,,,,0,,,66,0
67710,note_on,0,0,1,,,,,,,,,0,,,71,0
67710,note_on,240,0,1,,,,,,,,,0,,,74,0
67710,note_on,0,0,1,,,,,,,,,0,,,74,101
67710,control_change,0,0,3,,,,,,,,,2,64,127,,
67710,note_on,0,0,3,,,,,,,,,2,,,43,114
67710,note_on,0,0,1,,,,,,,,,0,,,79,101
67710,note_on,40,0,3,,,,,,,,,2,,,47,0
67830,note_on,120,0,1,,,,,,,,,0,,,79,0
67830,note_on,0,0,1,,,,,,,,,0,,,74,0
67830,note_on,0,0,1,,,,,,,,,0,,,71,0
67830,note_on,0,0,1,,,,,,,,,0,,,74,101
67830,note_on,0,0,1,,,,,,,,,0,,,79,101
67830,note_on,0,0,1,,,,,,,,,0,,,83,101
67842,note_on,12,0,1,,,,,,,,,0,,,83,0
67842,note_on,0,0,1,,,,,,,,,0,,,79,0
67842,note_on,0,0,1,,,,,,,,,0,,,74,0
67920,note_on,210,0,3,,,,,,,,,2,,,43,0
67920,note_on,0,0,3,,,,,,,,,2,,,45,114
67950,note_on,0,0,3,,,,,,,,,2,,,47,114
67950,note_on,0,0,1,,,,,,,,,0,,,74,101
67950,note_on,0,0,1,,,,,,,,,0,,,79,101
67950,note_on,108,0,1,,,,,,,,,0,,,71,101
67950,note_on,30,0,3,,,,,,,,,2,,,45,0
67962,note_on,12,0,1,,,,,,,,,0,,,79,0
67962,note_on,0,0,1,,,,,,,,,0,,,74,0
67962,note_on,0,0,1,,,,,,,,,0,,,71,0
68040,note_on,90,0,3,,,,,,,,,2,,,47,0
68040,note_on,0,0,3,,,,,,,,,2,,,49,114
68070,control_change,0,0,3,,,,,,,,,2,64,0,,
68070,note_on,0,0,3,,,,,,,,,2,,,50,114
68070,control_change,108,0,1,,,,,,,,,0,64,0,,
68070,note_on,0,0,1,,,,,,,,,0,,,71,101
68070,note_on,0,0,1,,,,,,,,,0,,,67,101
68070,note_on,30,0,3,,,,,,,,,2,,,49,0
68082,note_on,12,0,1,,,,,,,,,0,,,71,0
68082,note_on,0,0,1,,,,,,,,,0,,,67,0
68160,note_on,90,0,3,,,,,,,,,2,,,50,0
68160,note_on,0,0,3,,,,,,,,,2,,,54,114
68190,note_on,108,0,1,,,,,,,,,0,,,69,101
68190,note_on,0,0,1,,,,,,,,,0,,,73,101
68190,note_on,0,0,1,,,,,,,,,0,,,79,101
68190,note_on,0,0,1,,,,,,,,,0,,,81,101
68190,note_on,30,0,3,,,,,,,,,2,,,54,0
68190,note_on,0,0,3,,,,,,,,,2,,,52,88
68430,note_on,0,0,1,,,,,,,,,0,,,81,114
68430,note_on,0,0,1,,,,,,,,,0,,,79,114
68430,note_on,240,0,3,,,,,,,,,2,,,52,0
68430,note_on,0,0,3,,,,,,,,,2,,,57,101
68430,note_on,0,0,1,,,,,,,,,0,,,69,114
68430,note_on,0,0,1,,,,,,,,,0,,,79,0
68430,note_on,0,0,1,,,,,,,,,0,,,73,0
68430,note_on,0,0,1,,,,,,,,,0,,,69,0
68430,note_on,240,0,1,,,,,,,,,0,,,81,0
68430,note_on,0,0,3,,,,,,,,,2,,,52,101
68430,note_on,0,0,1,,,,,,,,,0,,,73,114
68640,note_on,210,0,3,,,,,,,,,2,,,57,0
68640,note_on,0,0,3,,,,,,,,,2,,,57,101
68640,note_on,0,0,3,,,,,,,,,2,,,52,0
68640,note_on,210,0,1,,,,,,,,,0,,,81,0
68640,note_on,0,0,3,,,,,,,,,2,,,45,101
68640,note_on,0,0,1,,,,,,,,,0,,,73,0
68640,note_on,0,0,1,,,,,,,,,0,,,79,0
68640,note_on,0,0,1,,,,,,,,,0,,,73,114
68640,note_on,0,0,1,,,,,,,,,0,,,79,114
68640,note_on,0,0,1,,,,,,,,,0,,,81,114
68640,note_on,0,0,1,,,,,,,,,0,,,69,0
68644,note_on,4,0,3,,,,,,,,,2,,,57,0
68644,note_on,0,0,3,,,,,,,,,2,,,45,0
68644,note_on,4,0,1,,,,,,,,,0,,,81,0
68644,note_on,0,0,1,,,,,,,,,0,,,79,0
68644,note_on,0,0,1,,,,,,,,,0,,,73,0
68670,note_on,26,0,1,,,,,,,,,0,,,73,114
68670,note_on,0,0,1,,,,,,,,,0,,,81,114
68670,note_on,0,0,3,,,,,,,,,2,,,57,101
68670,note_on,26,0,3,,,,,,,,,2,,,45,101
68670,note_on,0,0,1,,,,,,,,,0,,,79,114
68679,note_on,9,0,1,,,,,,,,,0,,,81,0
68679,note_on,0,0,1,,,,,,,,,0,,,79,0
68679,note_on,0,0,1,,,,,,,,,0,,,73,0
68679,note_on,0,0,3,,,,,,,,,2,,,45,0
68679,note_on,9,0,3,,,,,,,,,2,,,57,0
68760,note_on,0,0,1,,,,,,,,,0,,,79,114
68760,note_on,81,0,1,,,,,,,,,0,,,73,114
68760,note_on,0,0,1,,,,,,,,,0,,,81,114
68760,note_on,0,0,3,,,,,,,,,2,,,55,101
68760,note_on,81,0,3,,,,,,,,,2,,,43,101
68764,note_on,0,0,1,,,,,,,,,0,,,73,0
68764,note_on,0,0,1,,,,,,,,,0,,,79,0
68764,note_on,4,0,1,,,,,,,,,0,,,81,0
68764,note_on,0,0,3,,,,,,,,,2,,,43,0
68764,note_on,4,0,3,,,,,,,,,2,,,55,0
68790,note_on,0,0,1,,,,,,,,,0,,,83,114
68790,note_on,26,0,1,,,,,,,,,0,,,73,114
68790,note_on,0,0,1,,,,,,,,,0,,,79,114
68790,note_on,26,0,3,,,,,,,,,2,,,42,101
68790,note_on,0,0,3,,,,,,,,,2,,,54,101
68799,note_on,9,0,3,,,,,,,,,2,,,54,0
68799,note_on,0,0,3,,,,,,,,,2,,,42,0
68799,note_on,0,0,1,,,,,,,,,0,,,73,0
68799,note_on,0,0,1,,,,,,,,,0,,,79,0
68799,note_on,9,0,1,,,,,,,,,0,,,83,0
68880,note_on,81,0,3,,,,,,,,,2,,,40,101
68880,note_on,0,0,3,,,,,,,,,2,,,52,101
68880,note_on,0,0,1,,,,,,,,,0,,,85,114
68880,note_on,0,0,1,,,,,,,,,0,,,79,114
68880,note_on,81,0,1,,,,,,,,,0,,,73,114
68884,note_on,4,0,1,,,,,,,,,0,,,85,0
68884,note_on,0,0,1,,,,,,,,,0,,,79,0
68884,note_on,0,0,1,,,,,,,,,0,,,73,0
68884,note_on,0,0,3,,,,,,,,,2,,,40,0
68884,note_on,4,0,3,,,,,,,,,2,,,52,0
68910,note_on,0,0,3,,,,,,,,,2,,,50,101
68910,note_on,0,0,3,,,,,,,,,2,,,45,101
68910,note_on,26,0,1,,,,,,,,,0,,,74,114
68910,note_on,0,0,1,,,,,,,,,0,,,78,114
68910,note_on,0,0,1,,,,,,,,,0,,,86,114
68910,note_on,26,0,3,,,,,,,,,2,,,38,101
69150,note_on,0,0,1,,,,,,,,,0,,,86,114
69150,note_on,0,0,1,,,,,,,,,0,,,78,0
69150,note_on,0,0,1,,,,,,,,,0,,,74,114
69150,note_on,0,0,1,,,,,,,,,0,,,74,0
69150,note_on,240,0,1,,,,,,,,,0,,,86,0
69150,note_on,0,0,3,,,,,,,,,2,,,38,0
69150,note_on,0,0,1,,,,,,,,,0,,,78,114
69150,note_on,240,0,3,,,,,,,,,2,,,50,0
69150,note_on,0,0,3,,,,,,,,,2,,,38,101
69150,note_on,0,0,3,,,,,,,,,2,,,50,101
69150,note_on,0,0,3,,,,,,,,,2,,,45,101
69150,note_on,0,0,3,,,,,,,,,2,,,45,0
69360,note_on,0,0,3,,,,,,,,,2,,,38,0
69360,note_on,210,0,3,,,,,,,,,2,,,50,0
69360,note_on,210,0,1,,,,,,,,,0,,,86,0
69360,note_on,0,0,1,,,,,,,,,0,,,78,0
69360,note_on,0,0,1,,,,,,,,,0,,,74,0
69360,note_on,0,0,1,,,,,,,,,0,,,66,49
69360,note_on,0,0,1,,,,,,,,,0,,,69,49
69360,note_on,0,0,3,,,,,,,,,2,,,45,0
69390,note_on,30,0,1,,,,,,,,,0,,,69,0
69390,note_on,0,0,1,,,,,,,,,0,,,66,0
69390,note_on,0,0,1,,,,,,,,,0,,,69,49
69390,note_on,0,0,1,,,,,,,,,0,,,66,49
69480,note_on,0,0,1,,,,,,,,,0,,,66,0
69480,note_on,0,0,1,,,,,,,,,0,,,66,49
69480,note_on,0,0,1,,,,,,,,,0,,,69,49
69480,note_on,90,0,1,,,,,,,,,0,,,69,0
69510,note_on,30,0,1,,,,,,,,,0,,,69,0
69510,note_on,0,0,1,,,,,,,,,0,,,66,0
69510,note_on,0,0,1,,,,,,,,,0,,,64,49
69510,note_on,0,0,1,,,,,,,,,0,,,67,49
69600,note_on,90,0,1,,,,,,,,,0,,,67,0
69600,note_on,0,0,1,,,,,,,,,0,,,64,0
69600,note_on,0,0,1,,,,,,,,,0,,,62,49
69600,note_on,0,0,1,,,,,,,,,0,,,66,49
69630,note_on,30,0,1,,,,,,,,,0,,,66,0
69630,note_on,0,0,1,,,,,,,,,0,,,62,0
69630,note_on,0,0,1,,,,,,,,,0,,,57,67
69630,note_on,270,0,3,,,,,,,,,2,,,45,52
69630,note_on,0,0,3,,,,,,,,,2,,,55,62
69630,note_on,0,0,3,,,,,,,,,2,,,49,57
69630,note_on,0,0,1,,,,,,,,,0,,,64,75
69870,note_on,240,0,3,,,,,,,,,2,,,55,0
69870,note_on,0,0,3,,,,,,,,,2,,,45,0
69870,note_on,0,0,1,,,,,,,,,0,,,64,75
69870,note_on,0,0,3,,,,,,,,,2,,,45,52
69870,note_on,0,0,3,,,,,,,,,2,,,49,57
69870,note_on,0,0,3,,,,,,,,,2,,,55,62
69870,note_on,240,0,1,,,,,,,,,0,,,64,0
69870,note_on,0,0,1,,,,,,,,,0,,,57,0
69870,note_on,0,0,1,,,,,,,,,0,,,57,67
69870,note_on,0,0,3,,,,,,,,,2,,,49,0
70050,set_tempo,16980,1,0,,,,,,338983,,,,,,,
70080,note_on,210,0,1,,,,,,,,,0,,,64,0
70080,note_on,0,0,1,,,,,,,,,0,,,57,0
70080,note_on,0,0,1,,,,,,,,,0,,,71,49
70080,note_on,0,0,1,,,,,,,,,0,,,67,49
70110,note_on,0,0,1,,,,,,,,,0,,,69,49
70110,note_on,0,0,1,,,,,,,,,0,,,66,49
70110,note_on,30,0,1,,,,,,,,,0,,,71,0
70110,note_on,0,0,3,,,,,,,,,2,,,45,0
70110,note_on,0,0,1,,,,,,,,,0,,,67,0
70110,note_on,0,0,3,,,,,,,,,2,,,49,0
70110,note_on,240,0,3,,,,,,,,,2,,,55,0
70110,set_tempo,60,1,0,,,,,,344828,,,,,,,
70170,set_tempo,60,1,0,,,,,,350877,,,,,,,
70200,note_on,90,0,1,,,,,,,,,0,,,69,0
70200,note_on,0,0,1,,,,,,,,,0,,,66,0
70200,note_on,0,0,1,,,,,,,,,0,,,64,49
70200,note_on,0,0,1,,,,,,,,,0,,,67,49
70230,note_on,30,0,1,,,,,,,,,0,,,67,0
70230,note_on,0,0,1,,,,,,,,,0,,,64,0
70230,note_on,0,0,1,,,,,,,,,0,,,62,49
70230,note_on,0,0,1,,,,,,,,,0,,,66,49
70230,set_tempo,60,1,0,,,,,,359281,,,,,,,
70290,set_tempo,60,1,0,,,,,,365854,,,,,,,
70320,note_on,90,0,1,,,,,,,,,0,,,66,0
70320,note_on,0,0,1,,,,,,,,,0,,,62,0
70320,note_on,0,0,1,,,,,,,,,0,,,64,49
70320,note_on,0,0,1,,,,,,,,,0,,,57,49
70350,note_on,0,0,1,,,,,,,,,0,,,57,0
70350,note_on,0,0,1,,,,,,,,,0,,,54,67
70350,note_on,0,0,1,,,,,,,,,0,,,62,75
70350,set_tempo,60,1,0,,,,,,372671,,,,,,,
70350,note_on,240,0,3,,,,,,,,,2,,,38,52
70350,note_on,0,0,3,,,,,,,,,2,,,45,57
70350,note_on,0,0,3,,,,,,,,,2,,,50,62
70350,note_on,30,0,1,,,,,,,,,0,,,64,0
70410,set_tempo,60,1,0,,,,,,379747,,,,,,,
70470,set_tempo,60,1,0,,,,,,389610,,,,,,,
70590,note_on,0,0,3,,,,,,,,,2,,,50,62
70590,note_on,0,0,3,,,,,,,,,2,,,38,0
70590,note_on,0,0,3,,,,,,,,,2,,,45,0
70590,note_on,240,0,3,,,,,,,,,2,,,50,0
70590,note_on,0,0,1,,,,,,,,,0,,,62,75
70590,note_on,0,0,1,,,,,,,,,0,,,54,67
70590,note_on,0,0,1,,,,,,,,,0,,,54,0
70590,note_on,240,0,1,,,,,,,,,0,,,62,0
70590,note_on,0,0,3,,,,,,,,,2,,,38,52
70590,note_on,0,0,3,,,,,,,,,2,,,45,57
70710,note_on,120,0,1,,,,,,,,,0,,,62,0
70710,time_signature,240,1,0,1,4,24,8,,,,,,,,,
70710,note_on,0,0,3,,,,,,,,,2,,,38,0
70710,note_on,0,0,3,,,,,,,,,2,,,45,0
70710,note_on,120,0,3,,,,,,,,,2,,,50,0
70710,note_on,0,0,1,,,,,,,,,0,,,54,0
70830,note_on,120,0,1,,,,,,,,,0,,,62,49
70830,time_signature,120,1,0,2,4,24,8,,,,,,,,,
70830,note_on,120,0,3,,,,,,,,,2,,,50,36
70830,key_signature,0,1,0,,,,,G,,,,,,,,
70950,note_on,0,0,1,,,,,,,,,0,,,62,49
70950,note_on,0,0,3,,,,,,,,,2,,,50,36
70950,note_on,120,0,3,,,,,,,,,2,,,50,0
70950,note_on,120,0,1,,,,,,,,,0,,,62,0
71070,note_on,0,0,1,,,,,,,,,0,,,59,88
71070,note_on,0,0,3,,,,,,,,,2,,,43,75
71070,note_on,120,0,1,,,,,,,,,0,,,62,0
71070,note_on,0,0,3,,,,,,,,,2,,,50,75
71070,control_change,0,0,1,,,,,,,,,0,64,127,,
71070,note_on,0,0,3,,,,,,,,,2,,,55,75
71070,time_signature,240,1,0,3,4,24,8,,,,,,,,,
71070,note_on,120,0,3,,,,,,,,,2,,,50,0
71070,control_change,0,0,3,,,,,,,,,2,64,127,,
71070,note_on,0,0,1,,,,,,,,,0,,,71,88
71070,note_on,0,0,1,,,,,,,,,0,,,62,88
71310,note_on,0,0,3,,,,,,,,,2,,,55,36
71310,note_on,0,0,1,,,,,,,,,0,,,62,49
71310,note_on,0,0,3,,,,,,,,,2,,,43,36
71310,note_on,0,0,1,,,,,,,,,0,,,59,49
71310,note_on,0,0,3,,,,,,,,,2,,,43,0
71310,note_on,0,0,3,,,,,,,,,2,,,50,0
71310,note_on,240,0,3,,,,,,,,,2,,,55,0
71310,note_on,0,0,1,,,,,,,,,0,,,59,0
71310,note_on,0,0,1,,,,,,,,,0,,,62,0
71310,note_on,240,0,1,,,,,,,,,0,,,71,0
71310,note_on,0,0,1,,,,,,,,,0,,,71,49
71310,note_on,0,0,3,,,,,,,,,2,,,50,36
71430,note_on,0,0,3,,,,,,,,,2,,,50,0
71430,note_on,120,0,3,,,,,,,,,2,,,55,0
71430,note_on,0,0,3,,,,,,,,,2,,,55,36
71430,note_on,0,0,3,,,,,,,,,2,,,50,36
71430,note_on,0,0,3,,,,,,,,,2,,,43,0
71430,note_on,0,0,1,,,,,,,,,0,,,71,49
71430,note_on,0,0,1,,,,,,,,,0,,,62,49
71430,note_on,0,0,1,,,,,,,,,0,,,59,49
71430,note_on,0,0,1,,,,,,,,,0,,,59,0
71430,note_on,0,0,1,,,,,,,,,0,,,62,0
71430,note_on,120,0,1,,,,,,,,,0,,,71,0
71430,note_on,0,0,3,,,,,,,,,2,,,43,36
71550,note_on,120,0,3,,,,,,,,,2,,,55,0
71550,note_on,0,0,3,,,,,,,,,2,,,50,36
71550,note_on,0,0,3,,,,,,,,,2,,,43,36
71550,note_on,0,0,3,,,,,,,,,2,,,55,36
71550,note_on,0,0,3,,,,,,,,,2,,,50,0
71550,note_on,0,0,1,,,,,,,,,0,,,71,49
71550,note_on,0,0,1,,,,,,,,,0,,,62,49
71550,note_on,0,0,1,,,,,,,,,0,,,59,49
71550,note_on,0,0,1,,,,,,,,,0,,,59,0
71550,note_on,0,0,1,,,,,,,,,0,,,62,0
71550,note_on,120,0,1,,,,,,,,,0,,,71,0
71550,note_on,0,0,3,,,,,,,,,2,,,43,0
71670,control_change,0,0,3,,,,,,,,,2,64,0,,
71670,note_on,0,0,3,,,,,,,,,2,,,50,36
71670,control_change,0,0,1,,,,,,,,,0,64,0,,
71670,note_on,0,0,1,,,,,,,,,0,,,62,49
71670,note_on,0,0,1,,,,,,,,,0,,,71,49
71670,note_on,120,0,3,,,,,,,,,2,,,55,0
71670,note_on,0,0,1,,,,,,,,,0,,,62,0
71670,note_on,120,0,1,,,,,,,,,0,,,71,0
71670,note_on,0,0,1,,,,,,,,,0,,,59,49
71670,note_on,0,0,1,,,,,,,,,0,,,59,0
71670,note_on,0,0,3,,,,,,,,,2,,,55,36
71670,note_on,0,0,3,,,,,,,,,2,,,43,36
71670,note_on,0,0,3,,,,,,,,,2,,,43,0
71670,note_on,0,0,3,,,,,,,,,2,,,50,0
71790,note_on,0,0,3,,,,,,,,,2,,,50,36
71790,note_on,0,0,3,,,,,,,,,2,,,43,0
71790,note_on,0,0,3,,,,,,,,,2,,,50,0
71790,note_on,0,0,3,,,,,,,,,2,,,55,36
71790,note_on,0,0,3,,,,,,,,,2,,,43,36
71790,control_change,0,0,3,,,,,,,,,2,64,127,,
71790,note_on,120,0,3,,,,,,,,,2,,,55,0
71790,note_on,0,0,1,,,,,,,,,0,,,62,0
71790,note_on,0,0,1,,,,,,,,,0,,,59,0
71790,note_on,0,0,1,,,,,,,,,0,,,59,49
71790,note_on,0,0,1,,,,,,,,,0,,,62,49
71790,note_on,0,0,1,,,,,,,,,0,,,71,49
71790,control_change,0,0,1,,,,,,,,,0,64,127,,
71790,note_on,120,0,1,,,,,,,,,0,,,71,0
71910,note_on,0,0,3,,,,,,,,,2,,,48,36
71910,note_on,0,0,3,,,,,,,,,2,,,43,0
71910,note_on,0,0,3,,,,,,,,,2,,,50,36
71910,note_on,120,0,3,,,,,,,,,2,,,55,0
71910,note_on,0,0,3,,,,,,,,,2,,,50,0
71910,note_on,0,0,3,,,,,,,,,2,,,60,36
71910,note_on,120,0,1,,,,,,,,,0,,,71,0
71910,note_on,0,0,1,,,,,,,,,0,,,64,49
71910,note_on,0,0,1,,,,,,,,,0,,,62,0
71910,note_on,0,0,1,,,,,,,,,0,,,67,49
71910,note_on,0,0,1,,,,,,,,,0,,,76,49
71910,note_on,0,0,1,,,,,,,,,0,,,59,0
72030,note_on,120,0,3,,,,,,,,,2,,,60,0
72030,note_on,0,0,3,,,,,,,,,2,,,47,36
72030,note_on,0,0,3,,,,,,,,,2,,,50,36
72030,note_on,0,0,3,,,,,,,,,2,,,59,36
72030,note_on,120,0,1,,,,,,,,,0,,,76,0
72030,note_on,0,0,1,,,,,,,,,0,,,67,0
72030,note_on,0,0,1,,,,,,,,,0,,,64,0
72030,note_on,0,0,3,,,,,,,,,2,,,48,0
72030,note_on,0,0,1,,,,,,,,,0,,,62,49
72030,note_on,0,0,1,,,,,,,,,0,,,74,49
72030,note_on,0,0,1,,,,,,,,,0,,,67,49
72030,note_on,0,0,3,,,,,,,,,2,,,50,0
72150,note_on,0,0,3,,,,,,,,,2,,,50,0
72150,note_on,0,0,3,,,,,,,,,2,,,47,0
72150,note_on,120,0,3,,,,,,,,,2,,,59,0
72150,note_on,0,0,3,,,,,,,,,2,,,47,62
72150,note_on,0,0,3,,,,,,,,,2,,,50,62
72150,note_on,0,0,3,,,,,,,,,2,,,59,62
72150,note_on,0,0,1,,,,,,,,,0,,,74,75
72150,note_on,120,0,1,,,,,,,,,0,,,74,0
72150,note_on,0,0,1,,,,,,,,,0,,,67,0
72150,note_on,0,0,1,,,,,,,,,0,,,62,0
72150,note_on,0,0,1,,,,,,,,,0,,,62,75
72150,note_on,0,0,1,,,,,,,,,0,,,67,75
72270,note_on,0,0,1,,,,,,,,,0,,,62,0
72270,note_on,0,0,1,,,,,,,,,0,,,67,75
72270,note_on,0,0,3,,,,,,,,,2,,,50,62
72270,note_on,0,0,1,,,,,,,,,0,,,74,75
72270,note_on,0,0,1,,,,,,,,,0,,,67,0
72270,note_on,120,0,3,,,,,,,,,2,,,59,0
72270,note_on,0,0,3,,,,,,,,,2,,,50,0
72270,note_on,0,0,3,,,,,,,,,2,,,47,0
72270,note_on,0,0,3,,,,,,,,,2,,,47,62
72270,note_on,120,0,1,,,,,,,,,0,,,74,0
72270,note_on,0,0,3,,,,,,,,,2,,,59,62
72270,note_on,0,0,1,,,,,,,,,0,,,62,75
72390,note_on,0,0,1,,,,,,,,,0,,,62,0
72390,note_on,0,0,1,,,,,,,,,0,,,62,75
72390,note_on,0,0,1,,,,,,,,,0,,,67,75
72390,note_on,0,0,1,,,,,,,,,0,,,74,75
72390,control_change,0,0,1,,,,,,,,,0,64,0,,
72390,note_on,120,0,3,,,,,,,,,2,,,59,0
72390,note_on,0,0,3,,,,,,,,,2,,,50,0
72390,note_on,0,0,1,,,,,,,,,0,,,67,0
72390,control_change,0,0,3,,,,,,,,,2,64,0,,
72390,note_on,0,0,3,,,,,,,,,2,,,47,0
72390,note_on,0,0,3,,,,,,,,,2,,,50,62
72390,note_on,0,0,3,,,,,,,,,2,,,59,62
72390,note_on,0,0,3,,,,,,,,,2,,,47,62
72390,note_on,120,0,1,,,,,,,,,0,,,74,0
72510,note_on,0,0,1,,,,,,,,,0,,,62,49
72510,note_on,0,0,1,,,,,,,,,0,,,62,0
72510,note_on,0,0,1,,,,,,,,,0,,,67,0
72510,note_on,120,0,1,,,,,,,,,0,,,74,0
72510,note_on,0,0,1,,,,,,,,,0,,,67,49
72510,note_on,0,0,1,,,,,,,,,0,,,74,49
72510,control_change,0,0,1,,,,,,,,,0,64,127,,
72510,note_on,0,0,3,,,,,,,,,2,,,59,36
72510,note_on,0,0,3,,,,,,,,,2,,,50,36
72510,note_on,0,0,3,,,,,,,,,2,,,50,0
72510,note_on,0,0,3,,,,,,,,,2,,,47,0
72510,control_change,0,0,3,,,,,,,,,2,64,127,,
72510,note_on,0,0,3,,,,,,,,,2,,,47,36
72510,note_on,120,0,3,,,,,,,,,2,,,59,0
72630,note_on,0,0,1,,,,,,,,,0,,,57,49
72630,note_on,120,0,3,,,,,,,,,2,,,59,0
72630,note_on,0,0,3,,,,,,,,,2,,,50,0
72630,note_on,0,0,3,,,,,,,,,2,,,47,0
72630,note_on,0,0,3,,,,,,,,,2,,,42,36
72630,note_on,0,0,3,,,,,,,,,2,,,50,36
72630,note_on,0,0,1,,,,,,,,,0,,,62,49
72630,note_on,0,0,3,,,,,,,,,2,,,54,36
72630,note_on,0,0,1,,,,,,,,,0,,,69,49
72630,note_on,120,0,1,,,,,,,,,0,,,74,0
72630,note_on,0,0,1,,,,,,,,,0,,,67,0
72630,note_on,0,0,1,,,,,,,,,0,,,62,0
72750,note_on,0,0,1,,,,,,,,,0,,,62,49
72750,control_change,0,0,3,,,,,,,,,2,64,0,,
72750,note_on,120,0,1,,,,,,,,,0,,,69,0
72750,note_on,0,0,1,,,,,,,,,0,,,72,49
72750,control_change,0,0,1,,,,,,,,,0,64,0,,
72750,note_on,0,0,1,,,,,,,,,0,,,60,49
72750,note_on,0,0,3,,,,,,,,,2,,,45,36
72750,note_on,0,0,1,,,,,,,,,0,,,57,0
72750,note_on,0,0,3,,,,,,,,,2,,,50,0
72750,note_on,0,0,3,,,,,,,,,2,,,50,36
72750,note_on,0,0,3,,,,,,,,,2,,,57,36
72750,note_on,0,0,3,,,,,,,,,2,,,42,0
72750,note_on,120,0,3,,,,,,,,,2,,,54,0
72750,note_on,0,0,1,,,,,,,,,0,,,62,0
72870,note_on,120,0,3,,,,,,,,,2,,,57,0
72870,note_on,0,0,3,,,,,,,,,2,,,50,0
72870,note_on,0,0,3,,,,,,,,,2,,,45,0
72870,control_change,0,0,3,,,,,,,,,2,64,127,,
72870,note_on,0,0,3,,,,,,,,,2,,,45,36
72870,control_change,0,0,1,,,,,,,,,0,64,127,,
72870,note_on,0,0,3,,,,,,,,,2,,,50,36
72870,note_on,0,0,3,,,,,,,,,2,,,57,36
72870,note_on,120,0,1,,,,,,,,,0,,,72,0
72870,note_on,0,0,1,,,,,,,,,0,,,62,0
72870,note_on,0,0,1,,,,,,,,,0,,,60,0
72870,note_on,0,0,1,,,,,,,,,0,,,60,49
72870,note_on,0,0,1,,,,,,,,,0,,,62,49
72870,note_on,0,0,1,,,,,,,,,0,,,72,49
72990,note_on,0,0,1,,,,,,,,,0,,,59,49
72990,note_on,0,0,1,,,,,,,,,0,,,60,0
72990,note_on,0,0,1,,,,,,,,,0,,,62,49
72990,note_on,0,0,1,,,,,,,,,0,,,71,49
72990,note_on,0,0,3,,,,,,,,,2,,,50,0
72990,note_on,120,0,1,,,,,,,,,0,,,72,0
72990,note_on,120,0,3,,,,,,,,,2,,,57,0
72990,note_on,0,0,1,,,,,,,,,0,,,62,0
72990,note_on,0,0,3,,,,,,,,,2,,,55,36
72990,note_on,0,0,3,,,,,,,,,2,,,50,36
72990,note_on,0,0,3,,,,,,,,,2,,,43,36
72990,note_on,0,0,3,,,,,,,,,2,,,45,0
73110,note_on,120,0,1,,,,,,,,,0,,,71,0
73110,note_on,0,0,1,,,,,,,,,0,,,62,0
73110,note_on,0,0,1,,,,,,,,,0,,,59,0
73110,note_on,0,0,1,,,,,,,,,0,,,57,49
73110,note_on,0,0,1,,,,,,,,,0,,,62,49
73110,note_on,0,0,3,,,,,,,,,2,,,50,36
73110,control_change,0,0,1,,,,,,,,,0,64,0,,
73110,note_on,120,0,3,,,,,,,,,2,,,55,0
73110,note_on,0,0,3,,,,,,,,,2,,,50,0
73110,note_on,0,0,3,,,,,,,,,2,,,43,0
73110,control_change,0,0,3,,,,,,,,,2,64,0,,
73110,note_on,0,0,3,,,,,,,,,2,,,42,36
73110,note_on,0,0,3,,,,,,,,,2,,,54,36
73110,note_on,0,0,1,,,,,,,,,0,,,69,49
73230,note_on,0,0,3,,,,,,,,,2,,,42,52
73230,note_on,0,0,3,,,,,,,,,2,,,50,57
73230,note_on,0,0,3,,,,,,,,,2,,,54,62
73230,note_on,0,0,1,,,,,,,,,0,,,62,0
73230,note_on,120,0,3,,,,,,,,,2,,,54,0
73230,note_on,0,0,3,,,,,,,,,2,,,50,0
73230,note_on,0,0,3,,,,,,,,,2,,,42,0
73230,note_on,120,0,1,,,,,,,,,0,,,69,0
73230,control_change,0,0,3,,,,,,,,,2,64,127,,
73230,note_on,0,0,1,,,,,,,,,0,,,57,0
73230,control_change,0,0,1,,,,,,,,,0,64,127,,
73230,note_on,0,0,1,,,,,,,,,0,,,57,65
73230,note_on,0,0,1,,,,,,,,,0,,,62,70
73230,note_on,0,0,1,,,,,,,,,0,,,69,75
73350,note_on,0,0,3,,,,,,,,,2,,,50,0
73350,note_on,0,0,3,,,,,,,,,2,,,42,0
73350,note_on,0,0,3,,,,,,,,,2,,,43,36
73350,note_on,0,0,3,,,,,,,,,2,,,50,36
73350,note_on,0,0,3,,,,,,,,,2,,,55,36
73350,note_on,120,0,3,,,,,,,,,2,,,54,0
73350,note_on,120,0,1,,,,,,,,,0,,,69,0
73350,note_on,0,0,1,,,,,,,,,0,,,62,0
73350,note_on,0,0,1,,,,,,,,,0,,,57,0
73350,note_on,0,0,1,,,,,,,,,0,,,59,49
73350,note_on,0,0,1,,,,,,,,,0,,,62,49
73350,note_on,0,0,1,,,,,,,,,0,,,71,49
73470,note_on,0,0,1,,,,,,,,,0,,,71,49
73470,note_on,120,0,3,,,,,,,,,2,,,55,0
73470,note_on,0,0,3,,,,,,,,,2,,,50,0
73470,control_change,0,0,1,,,,,,,,,0,64,0,,
73470,note_on,0,0,3,,,,,,,,,2,,,43,0
73470,note_on,0,0,3,,,,,,,,,2,,,43,36
73470,note_on,0,0,3,,,,,,,,,2,,,50,36
73470,note_on,0,0,3,,,,,,,,,2,,,55,36
73470,note_on,120,0,1,,,,,,,,,0,,,71,0
73470,note_on,0,0,1,,,,,,,,,0,,,62,0
73470,note_on,0,0,1,,,,,,,,,0,,,59,0
73470,note_on,0,0,1,,,,,,,,,0,,,62,49
73470,control_change,0,0,3,,,,,,,,,2,64,0,,
73470,note_on,0,0,1,,,,,,,,,0,,,59,49
73590,note_on,0,0,1,,,,,,,,,0,,,59,49
73590,note_on,0,0,3,,,,,,,,,2,,,50,0
73590,note_on,0,0,1,,,,,,,,,0,,,59,0
73590,note_on,0,0,1,,,,,,,,,0,,,62,49
73590,note_on,0,0,1,,,,,,,,,0,,,71,49
73590,control_change,0,0,1,,,,,,,,,0,64,127,,
73590,note_on,0,0,1,,,,,,,,,0,,,62,0
73590,note_on,120,0,1,,,,,,,,,0,,,71,0
73590,note_on,0,0,3,,,,,,,,,2,,,55,36
73590,note_on,0,0,3,,,,,,,,,2,,,50,36
73590,note_on,0,0,3,,,,,,,,,2,,,43,36
73590,control_change,0,0,3,,,,,,,,,2,64,127,,
73590,note_on,0,0,3,,,,,,,,,2,,,43,0
73590,note_on,120,0,3,,,,,,,,,2,,,55,0
73710,note_on,0,0,1,,,,,,,,,0,,,69,49
73710,note_on,0,0,1,,,,,,,,,0,,,59,0
73710,note_on,0,0,1,,,,,,,,,0,,,62,0
73710,note_on,120,0,1,,,,,,,,,0,,,71,0
73710,note_on,0,0,1,,,,,,,,,0,,,62,49
73710,note_on,0,0,1,,,,,,,,,0,,,57,49
73710,note_on,120,0,3,,,,,,,,,2,,,55,0
73710,note_on,0,0,3,,,,,,,,,2,,,54,36
73710,note_on,0,0,3,,,,,,,,,2,,,50,36
73710,note_on,0,0,3,,,,,,,,,2,,,42,36
73710,note_on,0,0,3,,,,,,,,,2,,,43,0
73710,note_on,0,0,3,,,,,,,,,2,,,50,0
73830,control_change,0,0,1,,,,,,,,,0,64,0,,
73830,control_change,0,0,3,,,,,,,,,2,64,0,,
73830,note_on,0,0,3,,,,,,,,,2,,,42,0
73830,note_on,0,0,3,,,,,,,,,2,,,50,0
73830,note_on,120,0,3,,,,,,,,,2,,,54,0
73830,note_on,120,0,1,,,,,,,,,0,,,69,0
73830,note_on,0,0,1,,,,,,,,,0,,,62,0
73830,note_on,0,0,1,,,,,,,,,0,,,57,0
73830,note_on,0,0,1,,,,,,,,,0,,,55,49
73830,note_on,0,0,1,,,,,,,,,0,,,62,49
73830,note_on,0,0,1,,,,,,,,,0,,,67,49
73830,note_on,0,0,3,,,,,,,,,2,,,52,36
73830,note_on,0,0,3,,,,,,,,,2,,,40,36
73830,note_on,0,0,3,,,,,,,,,2,,,50,36
73950,note_on,120,0,1,,,,,,,,,0,,,67,0
73950,note_on,0,0,1,,,,,,,,,0,,,62,0
73950,note_on,0,0,1,,,,,,,,,0,,,55,0
73950,note_on,0,0,1,,,,,,,,,0,,,57,88
73950,note_on,0,0,1,,,,,,,,,0,,,62,88
73950,note_on,0,0,1,,,,,,,,,0,,,66,88
73950,note_on,0,0,1,,,,,,,,,0,,,69,88
73950,control_change,0,0,1,,,,,,,,,0,64,127,,
73950,note_on,120,0,3,,,,,,,,,2,,,52,0
73950,control_change,0,0,3,,,,,,,,,2,64,127,,
73950,note_on,0,0,3,,,,,,,,,2,,,50,0
73950,note_on,0,0,3,,,,,,,,,2,,,50,75
73950,note_on,0,0,3,,,,,,,,,2,,,38,75
73950,note_on,0,0,3,,,,,,,,,2,,,40,0
74190,note_on,0,0,3,,,,,,,,,2,,,50,36
74190,note_on,0,0,3,,,,,,,,,2,,,38,36
74190,note_on,0,0,3,,,,,,,,,2,,,38,0
74190,note_on,240,0,3,,,,,,,,,2,,,50,0
74190,note_on,0,0,1,,,,,,,,,0,,,57,49
74190,note_on,240,0,1,,,,,,,,,0,,,69,0
74190,note_on,0,0,1,,,,,,,,,0,,,57,0
74190,note_on,0,0,1,,,,,,,,,0,,,62,0
74190,note_on,0,0,1,,,,,,,,,0,,,66,0
74190,note_on,0,0,1,,,,,,,,,0,,,69,49
74190,note_on,0,0,1,,,,,,,,,0,,,66,49
74190,note_on,0,0,1,,,,,,,,,0,,,62,49
74310,note_on,120,0,3,,,,,,,,,2,,,50,0
74310,note_on,0,0,3,,,,,,,,,2,,,38,0
74310,note_on,0,0,3,,,,,,,,,2,,,50,36
74310,note_on,0,0,3,,,,,,,,,2,,,38,36
74310,note_on,0,0,1,,,,,,,,,0,,,62,49
74310,note_on,120,0,1,,,,,,,,,0,,,69,0
74310,note_on,0,0,1,,,,,,,,,0,,,57,0
74310,note_on,0,0,1,,,,,,,,,0,,,62,0
74310,note_on,0,0,1,,,,,,,,,0,,,66,0
74310,note_on,0,0,1,,,,,,,,,0,,,57,49
74310,note_on,0,0,1,,,,,,,,,0,,,66,49
74310,note_on,0,0,1,,,,,,,,,0,,,69,49
74430,note_on,120,0,1,,,,,,,,,0,,,69,0
74430,note_on,0,0,1,,,,,,,,,0,,,57,0
74430,note_on,0,0,1,,,,,,,,,0,,,62,0
74430,note_on,0,0,1,,,,,,,,,0,,,69,49
74430,note_on,0,0,1,,,,,,,,,0,,,66,0
74430,note_on,0,0,1,,,,,,,,,0,,,62,49
74430,note_on,0,0,1,,,,,,,,,0,,,66,49
74430,note_on,120,0,3,,,,,,,,,2,,,50,0
74430,note_on,0,0,3,,,,,,,,,2,,,38,0
74430,note_on,0,0,3,,,,,,,,,2,,,38,36
74430,note_on,0,0,3,,,,,,,,,2,,,50,36
74430,note_on,0,0,1,,,,,,,,,0,,,57,49
74550,note_on,0,0,1,,,,,,,,,0,,,57,49
74550,note_on,0,0,1,,,,,,,,,0,,,62,49
74550,note_on,0,0,1,,,,,,,,,0,,,66,0
74550,note_on,0,0,1,,,,,,,,,0,,,67,49
74550,note_on,0,0,1,,,,,,,,,0,,,69,49
74550,control_change,0,0,1,,,,,,,,,0,64,0,,
74550,note_on,0,0,1,,,,,,,,,0,,,62,0
74550,control_change,0,0,3,,,,,,,,,2,64,0,,
74550,note_on,120,0,1,,,,,,,,,0,,,69,0
74550,note_on,0,0,3,,,,,,,,,2,,,40,36
74550,note_on,0,0,3,,,,,,,,,2,,,52,36
74550,note_on,120,0,3,,,,,,,,,2,,,50,0
74550,note_on,0,0,3,,,,,,,,,2,,,50,36
74550,note_on,0,0,3,,,,,,,,,2,,,38,0
74550,note_on,0,0,1,,,,,,,,,0,,,57,0
74670,note_on,0,0,1,,,,,,,,,0,,,67,0
74670,note_on,120,0,1,,,,,,,,,0,,,69,0
74670,note_on,0,0,1,,,,,,,,,0,,,57,0
74670,note_on,0,0,1,,,,,,,,,0,,,62,0
74670,note_on,0,0,1,,,,,,,,,0,,,57,75
74670,note_on,0,0,3,,,,,,,,,2,,,50,62
74670,note_on,0,0,1,,,,,,,,,0,,,69,75
74670,control_change,0,0,1,,,,,,,,,0,64,127,,
74670,note_on,0,0,3,,,,,,,,,2,,,50,0
74670,note_on,0,0,3,,,,,,,,,2,,,40,0
74670,note_on,0,0,1,,,,,,,,,0,,,62,75
74670,control_change,0,0,3,,,,,,,,,2,64,127,,
74670,note_on,120,0,3,,,,,,,,,2,,,52,0
74670,note_on,0,0,3,,,,,,,,,2,,,54,62
74670,note_on,0,0,3,,,,,,,,,2,,,42,62
74790,note_on,0,0,3,,,,,,,,,2,,,45,62
74790,note_on,0,0,3,,,,,,,,,2,,,42,0
74790,note_on,0,0,3,,,,,,,,,2,,,50,0
74790,note_on,120,0,3,,,,,,,,,2,,,54,0
74790,note_on,0,0,1,,,,,,,,,0,,,74,75
74790,note_on,0,0,1,,,,,,,,,0,,,66,75
74790,note_on,0,0,1,,,,,,,,,0,,,62,75
74790,note_on,0,0,1,,,,,,,,,0,,,57,0
74790,note_on,0,0,1,,,,,,,,,0,,,62,0
74790,note_on,120,0,1,,,,,,,,,0,,,69,0
74790,note_on,0,0,3,,,,,,,,,2,,,54,62
74790,note_on,0,0,3,,,,,,,,,2,,,57,62
74910,note_on,0,0,3,,,,,,,,,2,,,57,62
74910,note_on,0,0,3,,,,,,,,,2,,,54,0
74910,note_on,0,0,3,,,,,,,,,2,,,45,0
74910,note_on,0,0,3,,,,,,,,,2,,,50,62
74910,note_on,0,0,3,,,,,,,,,2,,,62,62
74910,note_on,0,0,1,,,,,,,,,0,,,78,75
74910,note_on,0,0,1,,,,,,,,,0,,,66,75
74910,note_on,0,0,1,,,,,,,,,0,,,62,0
74910,note_on,0,0,1,,,,,,,,,0,,,66,0
74910,note_on,120,0,1,,,,,,,,,0,,,74,0
74910,note_on,120,0,3,,,,,,,,,2,,,57,0
74910,note_on,0,0,1,,,,,,,,,0,,,69,75
75030,note_on,0,0,1,,,,,,,,,0,,,69,0
75030,note_on,0,0,1,,,,,,,,,0,,,66,0
75030,note_on,0,0,1,,,,,,,,,0,,,66,88
75030,note_on,0,0,1,,,,,,,,,0,,,69,88
75030,note_on,0,0,1,,,,,,,,,0,,,78,88
75030,note_on,120,0,3,,,,,,,,,2,,,62,0
75030,note_on,0,0,3,,,,,,,,,2,,,57,0
75030,note_on,0,0,3,,,,,,,,,2,,,50,0
75030,note_on,0,0,3,,,,,,,,,2,,,50,75
75030,note_on,0,0,3,,,,,,,,,2,,,57,75
75030,note_on,0,0,3,,,,,,,,,2,,,62,75
75030,note_on,120,0,1,,,,,,,,,0,,,78,0
75150,note_on,0,0,3,,,,,,,,,2,,,62,75
75150,note_on,0,0,3,,,,,,,,,2,,,57,75
75150,note_on,0,0,3,,,,,,,,,2,,,57,0
75150,note_on,0,0,3,,,,,,,,,2,,,50,0
75150,note_on,0,0,3,,,,,,,,,2,,,50,75
75150,note_on,120,0,3,,,,,,,,,2,,,62,0
75150,note_on,120,0,1,,,,,,,,,0,,,78,0
75150,note_on,0,0,1,,,,,,,,,0,,,78,88
75150,note_on,0,0,1,,,,,,,,,0,,,69,88
75150,note_on,0,0,1,,,,,,,,,0,,,66,88
75150,note_on,0,0,1,,,,,,,,,0,,,66,0
75150,note_on,0,0,1,,,,,,,,,0,,,69,0
75270,note_on,0,0,1,,,,,,,,,0,,,78,88
75270,control_change,0,0,3,,,,,,,,,2,64,0,,
75270,note_on,0,0,3,,,,,,,,,2,,,50,0
75270,note_on,0,0,3,,,,,,,,,2,,,57,0
75270,note_on,120,0,3,,,,,,,,,2,,,62,0
75270,control_change,0,0,1,,,,,,,,,0,64,0,,
75270,note_on,0,0,3,,,,,,,,,2,,,57,75
75270,note_on,0,0,3,,,,,,,,,2,,,50,75
75270,note_on,120,0,1,,,,,,,,,0,,,78,0
75270,note_on,0,0,1,,,,,,,,,0,,,69,0
75270,note_on,0,0,1,,,,,,,,,0,,,66,0
75270,note_on,0,0,1,,,,,,,,,0,,,66,88
75270,note_on,0,0,1,,,,,,,,,0,,,69,88
75270,note_on,0,0,3,,,,,,,,,2,,,62,75
75390,note_on,120,0,3,,,,,,,,,2,,,62,0
75390,note_on,0,0,3,,,,,,,,,2,,,49,101
75390,note_on,0,0,3,,,,,,,,,2,,,61,101
75390,note_on,0,0,3,,,,,,,,,2,,,58,101
75390,note_on,0,0,3,,,,,,,,,2,,,57,0
75390,note_on,0,0,3,,,,,,,,,2,,,50,0
75390,note_on,120,0,1,,,,,,,,,0,,,78,0
75390,note_on,0,0,1,,,,,,,,,0,,,69,0
75390,note_on,0,0,1,,,,,,,,,0,,,66,0
75390,note_on,0,0,1,,,,,,,,,0,,,66,114
75390,note_on,0,0,1,,,,,,,,,0,,,70,114
75390,note_on,0,0,1,,,,,,,,,0,,,78,114
75390,control_change,0,0,1,,,,,,,,,0,64,127,,
75390,control_change,0,0,3,,,,,,,,,2,64,127,,
75510,note_on,0,0,1,,,,,,,,,0,,,70,101
75510,note_on,0,0,3,,,,,,,,,2,,,61,88
75510,note_on,0,0,3,,,,,,,,,2,,,58,88
75510,note_on,0,0,3,,,,,,,,,2,,,49,88
75510,note_on,0,0,3,,,,,,,,,2,,,49,0
75510,note_on,0,0,1,,,,,,,,,0,,,70,0
75510,note_on,0,0,1,,,,,,,,,0,,,66,101
75510,note_on,0,0,1,,,,,,,,,0,,,66,0
75510,note_on,120,0,1,,,,,,,,,0,,,78,0
75510,note_on,0,0,3,,,,,,,,,2,,,58,0
75510,note_on,0,0,1,,,,,,,,,0,,,78,101
75510,note_on,120,0,3,,,,,,,,,2,,,61,0
75630,note_on,0,0,1,,,,,,,,,0,,,70,0
75630,note_on,0,0,1,,,,,,,,,0,,,78,88
75630,note_on,0,0,1,,,,,,,,,0,,,70,88
75630,note_on,0,0,1,,,,,,,,,0,,,66,88
75630,note_on,0,0,1,,,,,,,,,0,,,66,0
75630,note_on,120,0,1,,,,,,,,,0,,,78,0
75630,note_on,120,0,3,,,,,,,,,2,,,61,0
75630,note_on,0,0,3,,,,,,,,,2,,,58,0
75630,note_on,0,0,3,,,,,,,,,2,,,49,0
75630,note_on,0,0,3,,,,,,,,,2,,,58,75
75630,note_on,0,0,3,,,,,,,,,2,,,61,75
75630,note_on,0,0,3,,,,,,,,,2,,,49,75
75750,note_on,120,0,1,,,,,,,,,0,,,78,0
75750,note_on,120,0,3,,,,,,,,,2,,,61,0
75750,note_on,0,0,3,,,,,,,,,2,,,58,0
75750,note_on,0,0,3,,,,,,,,,2,,,49,0
75750,note_on,0,0,3,,,,,,,,,2,,,49,62
75750,note_on,0,0,3,,,,,,,,,2,,,58,62
75750,note_on,0,0,3,,,,,,,,,2,,,61,62
75750,note_on,0,0,1,,,,,,,,,0,,,70,0
75750,note_on,0,0,1,,,,,,,,,0,,,66,75
75750,note_on,0,0,1,,,,,,,,,0,,,70,75
75750,note_on,0,0,1,,,,,,,,,0,,,78,75
75750,note_on,0,0,1,,,,,,,,,0,,,66,0
75870,note_on,0,0,3,,,,,,,,,2,,,61,49
75870,note_on,0,0,3,,,,,,,,,2,,,58,49
75870,note_on,0,0,3,,,,,,,,,2,,,49,49
75870,note_on,0,0,1,,,,,,,,,0,,,78,62
75870,note_on,0,0,3,,,,,,,,,2,,,49,0
75870,note_on,0,0,1,,,,,,,,,0,,,66,62
75870,note_on,0,0,3,,,,,,,,,2,,,58,0
75870,note_on,0,0,1,,,,,,,,,0,,,66,0
75870,note_on,0,0,1,,,,,,,,,0,,,70,0
75870,note_on,120,0,1,,,,,,,,,0,,,78,0
75870,note_on,0,0,1,,,,,,,,,0,,,70,62
75870,note_on,120,0,3,,,,,,,,,2,,,61,0
75990,note_on,120,0,3,,,,,,,,,2,,,61,0
75990,note_on,0,0,3,,,,,,,,,2,,,58,0
75990,note_on,0,0,3,,,,,,,,,2,,,49,0
75990,control_change,0,0,3,,,,,,,,,2,64,0,,
75990,note_on,0,0,3,,,,,,,,,2,,,49,36
75990,note_on,0,0,3,,,,,,,,,2,,,61,36
75990,note_on,120,0,1,,,,,,,,,0,,,78,0
75990,note_on,0,0,1,,,,,,,,,0,,,70,0
75990,note_on,0,0,1,,,,,,,,,0,,,66,0
75990,note_on,0,0,1,,,,,,,,,0,,,66,49
75990,note_on,0,0,1,,,,,,,,,0,,,70,49
75990,note_on,0,0,1,,,,,,,,,0,,,78,49
75990,control_change,0,0,1,,,,,,,,,0,64,0,,
75990,note_on,0,0,3,,,,,,,,,2,,,58,36
76110,control_change,0,0,1,,,,,,,,,0,64,127,,
76110,time_signature,5040,1,0,4,4,24,8,,,,,,,,,
76110,note_on,0,0,1,,,,,,,,,0,,,66,0
76110,note_on,0,0,3,,,,,,,,,2,,,50,36
76110,note_on,0,0,3,,,,,,,,,2,,,58,0
76110,note_on,0,0,3,,,,,,,,,2,,,49,0
76110,control_change,0,0,3,,,,,,,,,2,64,127,,
76110,note_on,0,0,1,,,,,,,,,0,,,66,49
76110,note_on,0,0,3,,,,,,,,,2,,,57,36
76110,note_on,0,0,3,,,,,,,,,2,,,62,36
76110,note_on,120,0,1,,,,,,,,,0,,,78,0
76110,note_on,0,0,1,,,,,,,,,0,,,69,49
76110,note_on,0,0,1,,,,,,,,,0,,,78,49
76110,note_on,120,0,3,,,,,,,,,2,,,61,0
76110,note_on,0,0,1,,,,,,,,,0,,,70,0
76230,note_on,0,0,1,,,,,,,,,0,,,69,0
76230,note_on,120,0,1,,,,,,,,,0,,,78,0
76230,note_on,0,0,1,,,,,,,,,0,,,69,49
76230,note_on,0,0,1,,,,,,,,,0,,,79,49
76230,note_on,0,0,1,,,,,,,,,0,,,67,49
76230,note_on,0,0,1,,,,,,,,,0,,,66,0
76230,note_on,0,0,3,,,,,,,,,2,,,64,36
76230,note_on,0,0,3,,,,,,,,,2,,,57,36
76230,note_on,0,0,3,,,,,,,,,2,,,52,36
76230,note_on,0,0,3,,,,,,,,,2,,,50,0
76230,note_on,0,0,3,,,,,,,,,2,,,57,0
76230,note_on,120,0,3,,,,,,,,,2,,,62,0
76350,note_on,0,0,1,,,,,,,,,0,,,67,0
76350,note_on,0,0,1,,,,,,,,,0,,,69,0
76350,note_on,120,0,1,,,,,,,,,0,,,79,0
76350,control_change,0,0,1,,,,,,,,,0,64,0,,
76350,note_on,0,0,1,,,,,,,,,0,,,69,49
76350,note_on,0,0,1,,,,,,,,,0,,,81,49
76350,note_on,0,0,3,,,,,,,,,2,,,57,0
76350,note_on,0,0,3,,,,,,,,,2,,,66,36
76350,note_on,0,0,3,,,,,,,,,2,,,57,36
76350,note_on,0,0,3,,,,,,,,,2,,,54,36
76350,control_change,0,0,3,,,,,,,,,2,64,0,,
76350,note_on,0,0,3,,,,,,,,,2,,,52,0
76350,note_on,120,0,3,,,,,,,,,2,,,64,0
76470,note_on,120,0,3,,,,,,,,,2,,,66,0
76470,note_on,120,0,1,,,,,,,,,0,,,81,0
76470,note_on,0,0,1,,,,,,,,,0,,,69,0
76470,note_on,0,0,3,,,,,,,,,2,,,57,0
76470,note_on,0,0,3,,,,,,,,,2,,,54,0
76590,note_on,0,0,1,,,,,,,,,0,,,74,49
76590,control_change,120,0,1,,,,,,,,,0,64,127,,
76590,time_signature,480,1,0,3,4,24,8,,,,,,,,,
76590,note_on,0,0,1,,,,,,,,,0,,,66,49
76590,note_on,0,0,3,,,,,,,,,2,,,59,36
76590,note_on,0,0,3,,,,,,,,,2,,,47,36
76590,control_change,120,0,3,,,,,,,,,2,64,127,,
76590,note_on,0,0,1,,,,,,,,,0,,,62,49
76710,note_on,0,0,1,,,,,,,,,0,,,76,49
76710,note_on,0,0,1,,,,,,,,,0,,,73,49
76710,note_on,0,0,1,,,,,,,,,0,,,67,49
76710,note_on,0,0,1,,,,,,,,,0,,,64,49
76710,note_on,0,0,1,,,,,,,,,0,,,62,0
76710,note_on,0,0,1,,,,,,,,,0,,,66,0
76710,note_on,120,0,1,,,,,,,,,0,,,74,0
76710,note_on,120,0,3,,,,,,,,,2,,,59,0
76710,note_on,0,0,3,,,,,,,,,2,,,47,0
76710,note_on,0,0,3,,,,,,,,,2,,,45,36
76710,note_on,0,0,3,,,,,,,,,2,,,57,36
76830,note_on,0,0,3,,,,,,,,,2,,,42,36
76830,note_on,0,0,1,,,,,,,,,0,,,66,49
76830,control_change,0,0,3,,,,,,,,,2,64,0,,
76830,note_on,120,0,3,,,,,,,,,2,,,57,0
76830,note_on,120,0,1,,,,,,,,,0,,,76,0
76830,note_on,0,0,1,,,,,,,,,0,,,64,0
76830,note_on,0,0,1,,,,,,,,,0,,,67,0
76830,note_on,0,0,1,,,,,,,,,0,,,73,0
76830,note_on,0,0,3,,,,,,,,,2,,,54,36
76830,note_on,0,0,1,,,,,,,,,0,,,69,49
76830,note_on,0,0,3,,,,,,,,,2,,,45,0
76830,note_on,0,0,1,,,,,,,,,0,,,78,49
76830,control_change,0,0,1,,,,,,,,,0,64,0,,
76830,note_on,0,0,1,,,,,,,,,0,,,74,49
76950,note_on,0,0,3,,,,,,,,,2,,,57,62
76950,note_on,0,0,3,,,,,,,,,2,,,45,54
76950,note_on,0,0,3,,,,,,,,,2,,,42,0
76950,note_on,120,0,3,,,,,,,,,2,,,54,0
76950,note_on,0,0,1,,,,,,,,,0,,,73,71
76950,note_on,0,0,1,,,,,,,,,0,,,76,75
76950,note_on,0,0,1,,,,,,,,,0,,,67,63
76950,note_on,0,0,1,,,,,,,,,0,,,74,0
76950,note_on,0,0,1,,,,,,,,,0,,,69,0
76950,note_on,0,0,1,,,,,,,,,0,,,66,0
76950,note_on,120,0,1,,,,,,,,,0,,,78,0
76950,note_on,0,0,1,,,,,,,,,0,,,69,67
77190,note_on,0,0,1,,,,,,,,,0,,,74,49
77190,note_on,0,0,1,,,,,,,,,0,,,69,49
77190,note_on,0,0,1,,,,,,,,,0,,,66,49
77190,note_on,240,0,3,,,,,,,,,2,,,57,0
77190,note_on,0,0,3,,,,,,,,,2,,,45,0
77190,note_on,0,0,3,,,,,,,,,2,,,50,36
77190,note_on,0,0,3,,,,,,,,,2,,,57,36
77190,note_on,0,0,3,,,,,,,,,2,,,62,36
77190,note_on,0,0,1,,,,,,,,,0,,,69,0
77190,note_on,0,0,1,,,,,,,,,0,,,67,0
77190,note_on,240,0,1,,,,,,,,,0,,,76,0
77190,note_on,0,0,1,,,,,,,,,0,,,73,0
77310,note_on,0,0,3,,,,,,,,,2,,,50,36
77310,note_on,0,0,1,,,,,,,,,0,,,74,49
77310,note_on,0,0,1,,,,,,,,,0,,,69,49
77310,note_on,0,0,1,,,,,,,,,0,,,66,49
77310,note_on,0,0,1,,,,,,,,,0,,,66,0
77310,note_on,0,0,3,,,,,,,,,2,,,50,0
77310,note_on,120,0,1,,,,,,,,,0,,,74,0
77310,note_on,0,0,3,,,,,,,,,2,,,57,0
77310,note_on,0,0,3,,,,,,,,,2,,,57,36
77310,note_on,120,0,3,,,,,,,,,2,,,62,0
77310,time_signature,720,1,0,1,4,24,8,,,,,,,,,
77310,note_on,0,0,1,,,,,,,,,0,,,69,0
77310,note_on,0,0,3,,,,,,,,,2,,,62,36
77430,note_on,0,0,1,,,,,,,,,0,,,69,0
77430,note_on,0,0,3,,,,,,,,,2,,,57,0
77430,note_on,0,0,3,,,,,,,,,2,,,50,0
77430,note_on,0,0,1,,,,,,,,,0,,,66,0
77430,note_on,0,0,3,,,,,,,,,2,,,50,36
77430,note_on,120,0,1,,,,,,,,,0,,,74,0
77430,note_on,0,0,1,,,,,,,,,0,,,62,49
77430,time_signature,120,1,0,2,4,24,8,,,,,,,,,
77430,note_on,120,0,3,,,,,,,,,2,,,62,0
77550,note_on,120,0,1,,,,,,,,,0,,,62,0
77550,note_on,0,0,1,,,,,,,,,0,,,62,49
77550,note_on,0,0,3,,,,,,,,,2,,,50,36
77550,note_on,120,0,3,,,,,,,,,2,,,50,0
77670,control_change,0,0,3,,,,,,,,,2,64,127,,
77670,note_on,0,0,3,,,,,,,,,2,,,55,75
77670,note_on,120,0,3,,,,,,,,,2,,,50,0
77670,note_on,0,0,3,,,,,,,,,2,,,50,75
77670,note_on,0,0,3,,,,,,,,,2,,,43,75
77670,control_change,0,0,1,,,,,,,,,0,64,127,,
77670,note_on,0,0,1,,,,,,,,,0,,,71,88
77670,note_on,0,0,1,,,,,,,,,0,,,62,88
77670,note_on,0,0,1,,,,,,,,,0,,,59,88
77670,time_signature,240,1,0,3,4,24,8,,,,,,,,,
77670,note_on,120,0,1,,,,,,,,,0,,,62,0
77910,note_on,0,0,1,,,,,,,,,0,,,71,49
77910,note_on,0,0,3,,,,,,,,,2,,,55,36
77910,note_on,0,0,3,,,,,,,,,2,,,50,36
77910,note_on,0,0,3,,,,,,,,,2,,,43,36
77910,note_on,0,0,3,,,,,,,,,2,,,43,0
77910,note_on,0,0,3,,,,,,,,,2,,,50,0
77910,note_on,240,0,1,,,,,,,,,0,,,71,0
77910,note_on,0,0,1,,,,,,,,,0,,,62,0
77910,note_on,0,0,1,,,,,,,,,0,,,59,0
77910,note_on,0,0,1,,,,,,,,,0,,,62,49
77910,note_on,240,0,3,,,,,,,,,2,,,55,0
77910,note_on,0,0,1,,,,,,,,,0,,,59,49
78030,note_on,120,0,1,,,,,,,,,0,,,71,0
78030,note_on,0,0,1,,,,,,,,,0,,,62,0
78030,note_on,0,0,1,,,,,,,,,0,,,59,0
78030,note_on,0,0,1,,,,,,,,,0,,,59,49
78030,note_on,0,0,1,,,,,,,,,0,,,62,49
78030,note_on,0,0,1,,,,,,,,,0,,,71,49
78030,note_on,0,0,3,,,,,,,,,2,,,55,36
78030,note_on,0,0,3,,,,,,,,,2,,,50,36
78030,note_on,0,0,3,,,,,,,,,2,,,43,36
78030,note_on,0,0,3,,,,,,,,,2,,,43,0
78030,note_on,0,0,3,,,,,,,,,2,,,50,0
78030,note_on,120,0,3,,,,,,,,,2,,,55,0
78150,note_on,120,0,1,,,,,,,,,0,,,71,0
78150,note_on,0,0,1,,,,,,,,,0,,,71,49
78150,note_on,0,0,1,,,,,,,,,0,,,62,49
78150,note_on,0,0,1,,,,,,,,,0,,,59,49
78150,note_on,0,0,1,,,,,,,,,0,,,59,0
78150,note_on,0,0,1,,,,,,,,,0,,,62,0
78150,note_on,0,0,3,,,,,,,,,2,,,43,0
78150,note_on,0,0,3,,,,,,,,,2,,,43,36
78150,note_on,120,0,3,,,,,,,,,2,,,55,0
78150,note_on,0,0,3,,,,,,,,,2,,,50,36
78150,note_on,0,0,3,,,,,,,,,2,,,55,36
78150,note_on,0,0,3,,,,,,,,,2,,,50,0
78270,note_on,0,0,3,,,,,,,,,2,,,43,0
78270,note_on,0,0,3,,,,,,,,,2,,,55,36
78270,note_on,0,0,3,,,,,,,,,2,,,50,36
78270,note_on,0,0,3,,,,,,,,,2,,,43,36
78270,control_change,0,0,3,,,,,,,,,2,64,0,,
78270,note_on,0,0,3,,,,,,,,,2,,,50,0
78270,note_on,120,0,3,,,,,,,,,2,,,55,0
78270,note_on,0,0,1,,,,,,,,,0,,,62,0
78270,note_on,0,0,1,,,,,,,,,0,,,59,0
78270,note_on,120,0,1,,,,,,,,,0,,,71,0
78270,note_on,0,0,1,,,,,,,,,0,,,62,49
78270,note_on,0,0,1,,,,,,,,,0,,,71,49
78270,control_change,0,0,1,,,,,,,,,0,64,0,,
78270,note_on,0,0,1,,,,,,,,,0,,,59,49
78390,note_on,0,0,3,,,,,,,,,2,,,50,0
78390,control_change,0,0,1,,,,,,,,,0,64,127,,
78390,note_on,0,0,1,,,,,,,,,0,,,62,49
78390,note_on,120,0,1,,,,,,,,,0,,,71,0
78390,note_on,0,0,1,,,,,,,,,0,,,62,0
78390,note_on,0,0,1,,,,,,,,,0,,,59,0
78390,note_on,0,0,1,,,,,,,,,0,,,59,49
78390,note_on,120,0,3,,,,,,,,,2,,,55,0
78390,note_on,0,0,3,,,,,,,,,2,,,43,0
78390,note_on,0,0,1,,,,,,,,,0,,,71,49
78390,note_on,0,0,3,,,,,,,,,2,,,43,36
78390,note_on,0,0,3,,,,,,,,,2,,,50,36
78390,note_on,0,0,3,,,,,,,,,2,,,55,36
78390,control_change,0,0,3,,,,,,,,,2,64,127,,
78510,note_on,120,0,1,,,,,,,,,0,,,71,0
78510,note_on,0,0,1,,,,,,,,,0,,,62,0
78510,note_on,0,0,1,,,,,,,,,0,,,59,0
78510,note_on,0,0,1,,,,,,,,,0,,,64,49
78510,note_on,0,0,1,,,,,,,,,0,,,76,49
78510,note_on,0,0,1,,,,,,,,,0,,,67,49
78510,note_on,0,0,3,,,,,,,,,2,,,43,0
78510,note_on,120,0,3,,,,,,,,,2,,,55,0
78510,note_on,0,0,3,,,,,,,,,2,,,50,0
78510,note_on,0,0,3,,,,,,,,,2,,,60,36
78510,note_on,0,0,3,,,,,,,,,2,,,50,36
78510,note_on,0,0,3,,,,,,,,,2,,,48,36
78630,note_on,0,0,3,,,,,,,,,2,,,59,36
78630,note_on,0,0,3,,,,,,,,,2,,,50,36
78630,note_on,0,0,3,,,,,,,,,2,,,47,36
78630,note_on,0,0,3,,,,,,,,,2,,,48,0
78630,note_on,120,0,3,,,,,,,,,2,,,60,0
78630,note_on,0,0,3,,,,,,,,,2,,,50,0
78630,note_on,120,0,1,,,,,,,,,0,,,76,0
78630,note_on,0,0,1,,,,,,,,,0,,,67,0
78630,note_on,0,0,1,,,,,,,,,0,,,64,0
78630,note_on,0,0,1,,,,,,,,,0,,,62,49
78630,note_on,0,0,1,,,,,,,,,0,,,67,49
78630,note_on,0,0,1,,,,,,,,,0,,,74,49
78750,note_on,0,0,1,,,,,,,,,0,,,67,0
78750,note_on,0,0,3,,,,,,,,,2,,,59,62
78750,note_on,0,0,3,,,,,,,,,2,,,50,62
78750,note_on,0,0,3,,,,,,,,,2,,,47,62
78750,note_on,0,0,3,,,,,,,,,2,,,47,0
78750,note_on,120,0,1,,,,,,,,,0,,,74,0
78750,note_on,120,0,3,,,,,,,,,2,,,59,0
78750,note_on,0,0,1,,,,,,,,,0,,,67,75
78750,note_on,0,0,1,,,,,,,,,0,,,74,75
78750,note_on,0,0,1,,,,,,,,,0,,,62,0
78750,note_on,0,0,3,,,,,,,,,2,,,50,0
78750,note_on,0,0,1,,,,,,,,,0,,,62,75
78870,note_on,0,0,3,,,,,,,,,2,,,50,0
78870,note_on,0,0,3,,,,,,,,,2,,,47,0
78870,note_on,0,0,1,,,,,,,,,0,,,67,0
78870,note_on,0,0,1,,,,,,,,,0,,,62,0
78870,note_on,0,0,1,,,,,,,,,0,,,62,75
78870,note_on,0,0,1,,,,,,,,,0,,,67,75
78870,note_on,0,0,1,,,,,,,,,0,,,74,75
78870,note_on,0,0,3,,,,,,,,,2,,,59,62
78870,note_on,0,0,3,,,,,,,,,2,,,50,62
78870,note_on,0,0,3,,,,,,,,,2,,,47,62
78870,note_on,120,0,3,,,,,,,,,2,,,59,0
78870,note_on,120,0,1,,,,,,,,,0,,,74,0
78990,note_on,120,0,1,,,,,,,,,0,,,74,0
78990,note_on,0,0,1,,,,,,,,,0,,,62,0
78990,note_on,0,0,1,,,,,,,,,0,,,62,75
78990,note_on,0,0,1,,,,,,,,,0,,,67,75
78990,note_on,0,0,1,,,,,,,,,0,,,67,0
78990,control_change,0,0,1,,,,,,,,,0,64,0,,
78990,note_on,0,0,3,,,,,,,,,2,,,59,62
78990,note_on,0,0,3,,,,,,,,,2,,,50,62
78990,note_on,0,0,3,,,,,,,,,2,,,47,62
78990,control_change,0,0,3,,,,,,,,,2,64,0,,
78990,note_on,0,0,3,,,,,,,,,2,,,47,0
78990,note_on,0,0,1,,,,,,,,,0,,,74,75
78990,note_on,0,0,3,,,,,,,,,2,,,50,0
78990,note_on,120,0,3,,,,,,,,,2,,,59,0
79110,note_on,0,0,1,,,,,,,,,0,,,74,49
79110,note_on,0,0,1,,,,,,,,,0,,,67,49
79110,note_on,0,0,1,,,,,,,,,0,,,62,0
79110,note_on,0,0,1,,,,,,,,,0,,,67,0
79110,control_change,0,0,1,,,,,,,,,0,64,127,,
79110,note_on,0,0,1,,,,,,,,,0,,,62,49
79110,note_on,0,0,3,,,,,,,,,2,,,50,36
79110,note_on,0,0,3,,,,,,,,,2,,,59,36
79110,note_on,120,0,3,,,,,,,,,2,,,59,0
79110,note_on,0,0,3,,,,,,,,,2,,,50,0
79110,note_on,0,0,3,,,,,,,,,2,,,47,0
79110,control_change,0,0,3,,,,,,,,,2,64,127,,
79110,note_on,0,0,3,,,,,,,,,2,,,47,36
79110,note_on,120,0,1,,,,,,,,,0,,,74,0
79230,note_on,120,0,1,,,,,,,,,0,,,74,0
79230,note_on,0,0,1,,,,,,,,,0,,,67,0
79230,note_on,0,0,1,,,,,,,,,0,,,62,0
79230,note_on,0,0,1,,,,,,,,,0,,,57,49
79230,note_on,0,0,1,,,,,,,,,0,,,69,49
79230,note_on,0,0,1,,,,,,,,,0,,,62,49
79230,note_on,120,0,3,,,,,,,,,2,,,59,0
79230,note_on,0,0,3,,,,,,,,,2,,,42,36
79230,note_on,0,0,3,,,,,,,,,2,,,50,36
79230,note_on,0,0,3,,,,,,,,,2,,,54,36
79230,note_on,0,0,3,,,,,,,,,2,,,47,0
79230,note_on,0,0,3,,,,,,,,,2,,,50,0
79350,note_on,0,0,1,,,,,,,,,0,,,60,49
79350,control_change,0,0,1,,,,,,,,,0,64,0,,
79350,note_on,120,0,3,,,,,,,,,2,,,54,0
79350,note_on,0,0,3,,,,,,,,,2,,,50,0
79350,note_on,0,0,3,,,,,,,,,2,,,42,0
79350,control_change,0,0,3,,,,,,,,,2,64,0,,
79350,note_on,0,0,3,,,,,,,,,2,,,45,36
79350,note_on,0,0,3,,,,,,,,,2,,,50,36
79350,note_on,0,0,1,,,,,,,,,0,,,62,49
79350,note_on,0,0,3,,,,,,,,,2,,,57,36
79350,note_on,0,0,1,,,,,,,,,0,,,72,49
79350,note_on,120,0,1,,,,,,,,,0,,,69,0
79350,note_on,0,0,1,,,,,,,,,0,,,62,0
79350,note_on,0,0,1,,,,,,,,,0,,,57,0
79470,note_on,0,0,3,,,,,,,,,2,,,50,0
79470,control_change,0,0,3,,,,,,,,,2,64,127,,
79470,note_on,0,0,3,,,,,,,,,2,,,45,36
79470,note_on,0,0,3,,,,,,,,,2,,,50,36
79470,note_on,0,0,3,,,,,,,,,2,,,57,36
79470,note_on,0,0,1,,,,,,,,,0,,,60,49
79470,note_on,120,0,3,,,,,,,,,2,,,57,0
79470,note_on,0,0,3,,,,,,,,,2,,,45,0
79470,note_on,0,0,1,,,,,,,,,0,,,60,0
79470,control_change,0,0,1,,,,,,,,,0,64,127,,
79470,note_on,0,0,1,,,,,,,,,0,,,72,49
79470,note_on,0,0,1,,,,,,,,,0,,,62,49
79470,note_on,120,0,1,,,,,,,,,0,,,72,0
79470,note_on,0,0,1,,,,,,,,,0,,,62,0
79590,note_on,120,0,1,,,,,,,,,0,,,72,0
79590,note_on,0,0,1,,,,,,,,,0,,,71,49
79590,note_on,0,0,1,,,,,,,,,0,,,62,49
79590,note_on,0,0,1,,,,,,,,,0,,,59,49
79590,note_on,0,0,1,,,,,,,,,0,,,60,0
79590,note_on,0,0,1,,,,,,,,,0,,,62,0
79590,note_on,0,0,3,,,,,,,,,2,,,50,0
79590,note_on,0,0,3,,,,,,,,,2,,,45,0
79590,note_on,0,0,3,,,,,,,,,2,,,43,36
79590,note_on,120,0,3,,,,,,,,,2,,,57,0
79590,note_on,0,0,3,,,,,,,,,2,,,55,36
79590,note_on,0,0,3,,,,,,,,,2,,,50,36
79710,note_on,0,0,1,,,,,,,,,0,,,59,0
79710,note_on,0,0,1,,,,,,,,,0,,,57,49
79710,note_on,0,0,1,,,,,,,,,0,,,62,49
79710,note_on,0,0,1,,,,,,,,,0,,,69,49
79710,control_change,0,0,1,,,,,,,,,0,64,0,,
79710,note_on,120,0,1,,,,,,,,,0,,,71,0
79710,note_on,0,0,3,,,,,,,,,2,,,54,36
79710,note_on,0,0,3,,,,,,,,,2,,,42,36
79710,control_change,0,0,3,,,,,,,,,2,64,0,,
79710,note_on,0,0,3,,,,,,,,,2,,,43,0
79710,note_on,0,0,3,,,,,,,,,2,,,50,0
79710,note_on,120,0,3,,,,,,,,,2,,,55,0
79710,note_on,0,0,3,,,,,,,,,2,,,50,36
79710,note_on,0,0,1,,,,,,,,,0,,,62,0
79830,note_on,120,0,1,,,,,,,,,0,,,69,0
79830,note_on,0,0,3,,,,,,,,,2,,,42,0
79830,note_on,0,0,3,,,,,,,,,2,,,54,62
79830,note_on,0,0,3,,,,,,,,,2,,,50,0
79830,note_on,120,0,3,,,,,,,,,2,,,54,0
79830,note_on,0,0,1,,,,,,,,,0,,,57,0
79830,note_on,0,0,1,,,,,,,,,0,,,62,0
79830,note_on,0,0,3,,,,,,,,,2,,,50,57
79830,note_on,0,0,3,,,,,,,,,2,,,42,52
79830,note_on,0,0,1,,,,,,,,,0,,,57,65
79830,control_change,0,0,3,,,,,,,,,2,64,127,,
79830,note_on,0,0,1,,,,,,,,,0,,,62,70
79830,note_on,0,0,1,,,,,,,,,0,,,69,75
79830,control_change,0,0,1,,,,,,,,,0,64,127,,
79950,note_on,120,0,3,,,,,,,,,2,,,54,0
79950,note_on,0,0,3,,,,,,,,,2,,,50,0
79950,note_on,0,0,3,,,,,,,,,2,,,42,0
79950,note_on,0,0,3,,,,,,,,,2,,,43,36
79950,note_on,0,0,3,,,,,,,,,2,,,50,36
79950,note_on,0,0,3,,,,,,,,,2,,,55,36
79950,note_on,0,0,1,,,,,,,,,0,,,62,0
79950,note_on,0,0,1,,,,,,,,,0,,,57,0
79950,note_on,0,0,1,,,,,,,,,0,,,59,49
79950,note_on,0,0,1,,,,,,,,,0,,,62,49
79950,note_on,0,0,1,,,,,,,,,0,,,71,49
79950,note_on,120,0,1,,,,,,,,,0,,,69,0
80070,note_on,0,0,1,,,,,,,,,0,,,59,49
80070,note_on,0,0,1,,,,,,,,,0,,,62,49
80070,note_on,0,0,1,,,,,,,,,0,,,59,0
80070,note_on,0,0,1,,,,,,,,,0,,,62,0
80070,note_on,120,0,1,,,,,,,,,0,,,71,0
80070,note_on,120,0,3,,,,,,,,,2,,,55,0
80070,note_on,0,0,3,,,,,,,,,2,,,50,0
80070,note_on,0,0,3,,,,,,,,,2,,,43,0
80070,control_change,0,0,3,,,,,,,,,2,64,0,,
80070,note_on,0,0,3,,,,,,,,,2,,,43,36
80070,note_on,0,0,3,,,,,,,,,2,,,50,36
80070,note_on,0,0,3,,,,,,,,,2,,,55,36
80070,note_on,0,0,1,,,,,,,,,0,,,71,49
80070,control_change,0,0,1,,,,,,,,,0,64,0,,
80190,note_on,120,0,3,,,,,,,,,2,,,55,0
80190,note_on,0,0,3,,,,,,,,,2,,,50,0
80190,note_on,0,0,3,,,,,,,,,2,,,43,0
80190,control_change,0,0,3,,,,,,,,,2,64,127,,
80190,note_on,0,0,3,,,,,,,,,2,,,43,36
80190,note_on,0,0,3,,,,,,,,,2,,,50,36
80190,note_on,0,0,3,,,,,,,,,2,,,55,36
80190,note_on,0,0,1,,,,,,,,,0,,,62,0
80190,note_on,0,0,1,,,,,,,,,0,,,59,0
80190,note_on,0,0,1,,,,,,,,,0,,,59,49
80190,note_on,0,0,1,,,,,,,,,0,,,62,49
80190,note_on,0,0,1,,,,,,,,,0,,,71,49
80190,control_change,0,0,1,,,,,,,,,0,64,127,,
80190,note_on,120,0,1,,,,,,,,,0,,,71,0
80310,note_on,0,0,3,,,,,,,,,2,,,50,0
80310,note_on,0,0,3,,,,,,,,,2,,,43,0
80310,note_on,0,0,3,,,,,,,,,2,,,42,36
80310,note_on,0,0,3,,,,,,,,,2,,,50,36
80310,note_on,0,0,3,,,,,,,,,2,,,54,36
80310,note_on,0,0,1,,,,,,,,,0,,,69,49
80310,note_on,0,0,1,,,,,,,,,0,,,62,49
80310,note_on,0,0,1,,,,,,,,,0,,,62,0
80310,note_on,0,0,1,,,,,,,,,0,,,59,0
80310,note_on,120,0,1,,,,,,,,,0,,,71,0
80310,note_on,120,0,3,,,,,,,,,2,,,55,0
80310,note_on,0,0,1,,,,,,,,,0,,,57,49
80430,note_on,0,0,3,,,,,,,,,2,,,42,0
80430,note_on,0,0,3,,,,,,,,,2,,,50,0
80430,note_on,120,0,3,,,,,,,,,2,,,54,0
80430,control_change,0,0,3,,,,,,,,,2,64,0,,
80430,note_on,0,0,3,,,,,,,,,2,,,40,36
80430,note_on,0,0,1,,,,,,,,,0,,,67,49
80430,note_on,0,0,3,,,,,,,,,2,,,52,36
80430,control_change,0,0,1,,,,,,,,,0,64,0,,
80430,note_on,120,0,1,,,,,,,,,0,,,69,0
80430,note_on,0,0,1,,,,,,,,,0,,,62,0
80430,note_on,0,0,1,,,,,,,,,0,,,57,0
80430,note_on,0,0,1,,,,,,,,,0,,,55,49
80430,note_on,0,0,1,,,,,,,,,0,,,62,49
80430,note_on,0,0,3,,,,,,,,,2,,,50,36
80550,note_on,0,0,1,,,,,,,,,0,,,69,88
80550,note_on,0,0,1,,,,,,,,,0,,,66,88
80550,control_change,0,0,1,,,,,,,,,0,64,127,,
80550,control_change,0,0,3,,,,,,,,,2,64,127,,
80550,note_on,0,0,3,,,,,,,,,2,,,50,0
80550,note_on,120,0,1,,,,,,,,,0,,,67,0
80550,note_on,0,0,1,,,,,,,,,0,,,62,0
80550,note_on,0,0,1,,,,,,,,,0,,,55,0
80550,note_on,120,0,3,,,,,,,,,2,,,52,0
80550,note_on,0,0,1,,,,,,,,,0,,,57,88
80550,note_on,0,0,1,,,,,,,,,0,,,62,88
80550,note_on,0,0,3,,,,,,,,,2,,,50,75
80550,note_on,0,0,3,,,,,,,,,2,,,38,75
80550,note_on,0,0,3,,,,,,,,,2,,,40,0
80790,note_on,0,0,3,,,,,,,,,2,,,50,36
80790,note_on,0,0,1,,,,,,,,,0,,,62,49
80790,note_on,0,0,3,,,,,,,,,2,,,38,0
80790,note_on,240,0,3,,,,,,,,,2,,,50,0
80790,note_on,0,0,1,,,,,,,,,0,,,69,49
80790,note_on,0,0,1,,,,,,,,,0,,,57,49
80790,note_on,0,0,1,,,,,,,,,0,,,66,0
80790,note_on,0,0,1,,,,,,,,,0,,,62,0
80790,note_on,0,0,1,,,,,,,,,0,,,57,0
80790,note_on,240,0,1,,,,,,,,,0,,,69,0
80790,note_on,0,0,3,,,,,,,,,2,,,38,36
80790,note_on,0,0,1,,,,,,,,,0,,,66,49
80910,note_on,120,0,1,,,,,,,,,0,,,69,0
80910,note_on,0,0,3,,,,,,,,,2,,,38,0
80910,note_on,0,0,1,,,,,,,,,0,,,69,49
80910,note_on,0,0,1,,,,,,,,,0,,,62,49
80910,note_on,0,0,1,,,,,,,,,0,,,57,49
80910,note_on,0,0,1,,,,,,,,,0,,,66,0
80910,note_on,0,0,1,,,,,,,,,0,,,66,49
80910,note_on,0,0,1,,,,,,,,,0,,,57,0
80910,note_on,0,0,3,,,,,,,,,2,,,50,36
80910,note_on,0,0,3,,,,,,,,,2,,,38,36
80910,note_on,0,0,1,,,,,,,,,0,,,62,0
80910,note_on,120,0,3,,,,,,,,,2,,,50,0
81030,note_on,0,0,1,,,,,,,,,0,,,66,49
81030,note_on,120,0,1,,,,,,,,,0,,,69,0
81030,note_on,0,0,1,,,,,,,,,0,,,57,0
81030,note_on,0,0,1,,,,,,,,,0,,,62,0
81030,note_on,0,0,1,,,,,,,,,0,,,66,0
81030,note_on,0,0,1,,,,,,,,,0,,,57,49
81030,note_on,0,0,1,,,,,,,,,0,,,62,49
81030,note_on,0,0,1,,,,,,,,,0,,,69,49
81030,note_on,120,0,3,,,,,,,,,2,,,50,0
81030,note_on,0,0,3,,,,,,,,,2,,,38,0
81030,note_on,0,0,3,,,,,,,,,2,,,38,36
81030,note_on,0,0,3,,,,,,,,,2,,,50,36
81150,note_on,120,0,1,,,,,,,,,0,,,69,0
81150,note_on,120,0,3,,,,,,,,,2,,,50,0
81150,note_on,0,0,1,,,,,,,,,0,,,57,0
81150,note_on,0,0,3,,,,,,,,,2,,,38,0
81150,control_change,0,0,3,,,,,,,,,2,64,0,,
81150,note_on,0,0,3,,,,,,,,,2,,,52,36
81150,note_on,0,0,3,,,,,,,,,2,,,50,36
81150,control_change,0,0,1,,,,,,,,,0,64,0,,
81150,note_on,0,0,1,,,,,,,,,0,,,67,49
81150,note_on,0,0,1,,,,,,,,,0,,,62,49
81150,note_on,0,0,1,,,,,,,,,0,,,57,49
81150,note_on,0,0,1,,,,,,,,,0,,,66,0
81150,note_on,0,0,1,,,,,,,,,0,,,62,0
81150,note_on,0,0,3,,,,,,,,,2,,,40,36
81150,note_on,0,0,1,,,,,,,,,0,,,69,49
81270,note_on,120,0,3,,,,,,,,,2,,,52,0
81270,note_on,0,0,3,,,,,,,,,2,,,50,0
81270,note_on,0,0,3,,,,,,,,,2,,,40,0
81270,control_change,0,0,3,,,,,,,,,2,64,127,,
81270,note_on,0,0,3,,,,,,,,,2,,,50,62
81270,control_change,0,0,1,,,,,,,,,0,64,127,,
81270,note_on,0,0,3,,,,,,,,,2,,,42,62
81270,note_on,0,0,1,,,,,,,,,0,,,69,75
81270,note_on,0,0,1,,,,,,,,,0,,,62,75
81270,note_on,0,0,1,,,,,,,,,0,,,57,75
81270,note_on,0,0,1,,,,,,,,,0,,,67,0
81270,note_on,0,0,1,,,,,,,,,0,,,62,0
81270,note_on,0,0,1,,,,,,,,,0,,,57,0
81270,note_on,120,0,1,,,,,,,,,0,,,69,0
81270,note_on,0,0,3,,,,,,,,,2,,,54,62
81390,note_on,0,0,1,,,,,,,,,0,,,66,75
81390,note_on,0,0,1,,,,,,,,,0,,,74,75
81390,note_on,0,0,1,,,,,,,,,0,,,62,75
81390,note_on,0,0,1,,,,,,,,,0,,,57,0
81390,note_on,0,0,1,,,,,,,,,0,,,62,0
81390,note_on,120,0,1,,,,,,,,,0,,,69,0
81390,note_on,0,0,3,,,,,,,,,2,,,50,0
81390,note_on,0,0,3,,,,,,,,,2,,,42,0
81390,note_on,120,0,3,,,,,,,,,2,,,54,0
81390,note_on,0,0,3,,,,,,,,,2,,,54,62
81390,note_on,0,0,3,,,,,,,,,2,,,57,62
81390,note_on,0,0,3,,,,,,,,,2,,,45,62
81510,note_on,0,0,1,,,,,,,,,0,,,78,75
81510,note_on,0,0,1,,,,,,,,,0,,,69,75
81510,note_on,0,0,1,,,,,,,,,0,,,66,75
81510,note_on,0,0,1,,,,,,,,,0,,,66,0
81510,note_on,0,0,1,,,,,,,,,0,,,62,0
81510,note_on,0,0,3,,,,,,,,,2,,,62,62
81510,note_on,0,0,3,,,,,,,,,2,,,50,62
81510,note_on,0,0,3,,,,,,,,,2,,,45,0
81510,note_on,0,0,3,,,,,,,,,2,,,54,0
81510,note_on,120,0,3,,,,,,,,,2,,,57,0
81510,note_on,120,0,1,,,,,,,,,0,,,74,0
81510,note_on,0,0,3,,,,,,,,,2,,,57,62
81630,note_on,120,0,1,,,,,,,,,0,,,78,0
81630,note_on,0,0,1,,,,,,,,,0,,,69,0
81630,note_on,0,0,1,,,,,,,,,0,,,66,0
81630,note_on,0,0,1,,,,,,,,,0,,,66,88
81630,note_on,0,0,1,,,,,,,,,0,,,69,88
81630,note_on,0,0,1,,,,,,,,,0,,,78,88
81630,note_on,120,0,3,,,,,,,,,2,,,62,0
81630,note_on,0,0,3,,,,,,,,,2,,,50,0
81630,note_on,0,0,3,,,,,,,,,2,,,50,75
81630,note_on,0,0,3,,,,,,,,,2,,,57,75
81630,note_on,0,0,3,,,,,,,,,2,,,62,75
81630,note_on,0,0,3,,,,,,,,,2,,,57,0
81750,note_on,0,0,1,,,,,,,,,0,,,66,88
81750,note_on,0,0,1,,,,,,,,,0,,,69,0
81750,note_on,120,0,1,,,,,,,,,0,,,78,0
81750,note_on,0,0,3,,,,,,,,,2,,,62,75
81750,note_on,0,0,3,,,,,,,,,2,,,50,75
81750,note_on,0,0,1,,,,,,,,,0,,,69,88
81750,note_on,0,0,3,,,,,,,,,2,,,50,0
81750,note_on,0,0,3,,,,,,,,,2,,,57,0
81750,note_on,120,0,3,,,,,,,,,2,,,62,0
81750,note_on,0,0,3,,,,,,,,,2,,,57,75
81750,note_on,0,0,1,,,,,,,,,0,,,78,88
81750,note_on,0,0,1,,,,,,,,,0,,,66,0
81870,note_on,0,0,3,,,,,,,,,2,,,62,75
81870,note_on,0,0,3,,,,,,,,,2,,,50,75
81870,control_change,0,0,3,,,,,,,,,2,64,0,,
81870,note_on,0,0,3,,,,,,,,,2,,,50,0
81870,note_on,0,0,3,,,,,,,,,2,,,57,0
81870,note_on,120,0,3,,,,,,,,,2,,,62,0
81870,note_on,0,0,3,,,,,,,,,2,,,57,75
81870,note_on,0,0,1,,,,,,,,,0,,,69,88
81870,control_change,0,0,1,,,,,,,,,0,64,0,,
81870,note_on,0,0,1,,,,,,,,,0,,,78,88
81870,note_on,120,0,1,,,,,,,,,0,,,78,0
81870,note_on,0,0,1,,,,,,,,,0,,,69,0
81870,note_on,0,0,1,,,,,,,,,0,,,66,0
81870,note_on,0,0,1,,,,,,,,,0,,,66,88
81990,note_on,0,0,1,,,,,,,,,0,,,70,114
81990,control_change,0,0,1,,,,,,,,,0,64,127,,
81990,note_on,0,0,1,,,,,,,,,0,,,78,114
81990,note_on,0,0,3,,,,,,,,,2,,,49,101
81990,note_on,0,0,3,,,,,,,,,2,,,57,0
81990,note_on,120,0,3,,,,,,,,,2,,,62,0
81990,note_on,0,0,1,,,,,,,,,0,,,69,0
81990,note_on,0,0,1,,,,,,,,,0,,,66,0
81990,note_on,0,0,1,,,,,,,,,0,,,66,114
81990,note_on,120,0,1,,,,,,,,,0,,,78,0
81990,note_on,0,0,3,,,,,,,,,2,,,58,101
81990,control_change,0,0,3,,,,,,,,,2,64,127,,
81990,note_on,0,0,3,,,,,,,,,2,,,50,0
81990,note_on,0,0,3,,,,,,,,,2,,,61,101
82110,note_on,120,0,1,,,,,,,,,0,,,78,0
82110,note_on,0,0,1,,,,,,,,,0,,,70,0
82110,note_on,0,0,1,,,,,,,,,0,,,66,0
82110,note_on,0,0,1,,,,,,,,,0,,,66,101
82110,note_on,0,0,1,,,,,,,,,0,,,70,101
82110,note_on,0,0,1,,,,,,,,,0,,,78,101
82110,note_on,0,0,3,,,,,,,,,2,,,58,0
82110,note_on,120,0,3,,,,,,,,,2,,,61,0
82110,note_on,0,0,3,,,,,,,,,2,,,49,0
82110,note_on,0,0,3,,,,,,,,,2,,,58,88
82110,note_on,0,0,3,,,,,,,,,2,,,61,88
82110,note_on,0,0,3,,,,,,,,,2,,,49,88
82230,note_on,0,0,3,,,,,,,,,2,,,61,75
82230,note_on,0,0,3,,,,,,,,,2,,,58,75
82230,note_on,0,0,3,,,,,,,,,2,,,49,75
82230,note_on,0,0,3,,,,,,,,,2,,,49,0
82230,note_on,0,0,3,,,,,,,,,2,,,58,0
82230,note_on,120,0,1,,,,,,,,,0,,,78,0
82230,note_on,0,0,1,,,,,,,,,0,,,70,0
82230,note_on,120,0,3,,,,,,,,,2,,,61,0
82230,note_on,0,0,1,,,,,,,,,0,,,66,88
82230,note_on,0,0,1,,,,,,,,,0,,,70,88
82230,note_on,0,0,1,,,,,,,,,0,,,78,88
82230,note_on,0,0,1,,,,,,,,,0,,,66,0
82350,note_on,0,0,3,,,,,,,,,2,,,58,62
82350,note_on,120,0,1,,,,,,,,,0,,,78,0
82350,note_on,0,0,1,,,,,,,,,0,,,70,0
82350,note_on,0,0,1,,,,,,,,,0,,,78,75
82350,note_on,0,0,1,,,,,,,,,0,,,70,75
82350,note_on,120,0,3,,,,,,,,,2,,,61,0
82350,note_on,0,0,3,,,,,,,,,2,,,58,0
82350,note_on,0,0,3,,,,,,,,,2,,,49,0
82350,note_on,0,0,3,,,,,,,,,2,,,49,62
82350,note_on,0,0,3,,,,,,,,,2,,,61,62
82350,note_on,0,0,1,,,,,,,,,0,,,66,0
82350,note_on,0,0,1,,,,,,,,,0,,,66,75
82470,note_on,0,0,1,,,,,,,,,0,,,78,62
82470,note_on,0,0,1,,,,,,,,,0,,,70,62
82470,note_on,0,0,1,,,,,,,,,0,,,66,0
82470,note_on,0,0,1,,,,,,,,,0,,,70,0
82470,note_on,120,0,3,,,,,,,,,2,,,61,0
82470,note_on,0,0,3,,,,,,,,,2,,,58,0
82470,note_on,0,0,3,,,,,,,,,2,,,49,0
82470,note_on,0,0,3,,,,,,,,,2,,,49,49
82470,note_on,0,0,3,,,,,,,,,2,,,58,49
82470,note_on,0,0,1,,,,,,,,,0,,,66,62
82470,note_on,0,0,3,,,,,,,,,2,,,61,49
82470,note_on,120,0,1,,,,,,,,,0,,,78,0
82590,note_on,120,0,3,,,,,,,,,2,,,61,0
82590,control_change,0,0,1,,,,,,,,,0,64,0,,
82590,note_on,0,0,1,,,,,,,,,0,,,78,49
82590,note_on,0,0,1,,,,,,,,,0,,,70,49
82590,note_on,0,0,1,,,,,,,,,0,,,66,49
82590,note_on,0,0,1,,,,,,,,,0,,,70,0
82590,note_on,120,0,1,,,,,,,,,0,,,78,0
82590,note_on,0,0,1,,,,,,,,,0,,,66,0
82590,note_on,0,0,3,,,,,,,,,2,,,58,36
82590,note_on,0,0,3,,,,,,,,,2,,,49,36
82590,control_change,0,0,3,,,,,,,,,2,64,0,,
82590,note_on,0,0,3,,,,,,,,,2,,,49,0
82590,note_on,0,0,3,,,,,,,,,2,,,58,0
82590,note_on,0,0,3,,,,,,,,,2,,,61,36
82710,control_change,0,0,1,,,,,,,,,0,64,127,,
82710,note_on,120,0,1,,,,,,,,,0,,,78,0
82710,note_on,0,0,1,,,,,,,,,0,,,70,0
82710,note_on,0,0,1,,,,,,,,,0,,,66,0
82710,note_on,0,0,1,,,,,,,,,0,,,66,49
82710,note_on,0,0,1,,,,,,,,,0,,,69,49
82710,note_on,0,0,1,,,,,,,,,0,,,78,49
82710,note_on,0,0,3,,,,,,,,,2,,,58,0
82710,time_signature,5040,1,0,4,4,24,8,,,,,,,,,
82710,note_on,120,0,3,,,,,,,,,2,,,61,0
82710,note_on,0,0,3,,,,,,,,,2,,,49,0
82710,control_change,0,0,3,,,,,,,,,2,64,127,,
82710,note_on,0,0,3,,,,,,,,,2,,,50,36
82710,note_on,0,0,3,,,,,,,,,2,,,57,36
82710,note_on,0,0,3,,,,,,,,,2,,,62,36
82830,note_on,0,0,1,,,,,,,,,0,,,69,49
82830,note_on,0,0,3,,,,,,,,,2,,,64,36
82830,note_on,0,0,3,,,,,,,,,2,,,50,0
82830,note_on,0,0,3,,,,,,,,,2,,,57,0
82830,note_on,120,0,1,,,,,,,,,0,,,78,0
82830,note_on,0,0,1,,,,,,,,,0,,,69,0
82830,note_on,0,0,1,,,,,,,,,0,,,66,0
82830,note_on,0,0,1,,,,,,,,,0,,,67,49
82830,note_on,0,0,3,,,,,,,,,2,,,57,36
82830,note_on,0,0,3,,,,,,,,,2,,,52,36
82830,note_on,120,0,3,,,,,,,,,2,,,62,0
82830,note_on,0,0,1,,,,,,,,,0,,,79,49
82950,note_on,120,0,1,,,,,,,,,0,,,79,0
82950,note_on,0,0,1,,,,,,,,,0,,,69,0
82950,note_on,0,0,1,,,,,,,,,0,,,67,0
82950,note_on,0,0,1,,,,,,,,,0,,,69,49
82950,note_on,0,0,3,,,,,,,,,2,,,66,36
82950,note_on,0,0,1,,,,,,,,,0,,,81,49
82950,note_on,0,0,3,,,,,,,,,2,,,54,36
82950,control_change,0,0,3,,,,,,,,,2,64,0,,
82950,note_on,0,0,3,,,,,,,,,2,,,52,0
82950,note_on,0,0,3,,,,,,,,,2,,,57,0
82950,note_on,120,0,3,,,,,,,,,2,,,64,0
82950,control_change,0,0,1,,,,,,,,,0,64,0,,
82950,note_on,0,0,3,,,,,,,,,2,,,57,36
83070,note_on,0,0,3,,,,,,,,,2,,,54,0
83070,note_on,0,0,3,,,,,,,,,2,,,57,0
83070,note_on,120,0,1,,,,,,,,,0,,,81,0
83070,note_on,0,0,1,,,,,,,,,0,,,69,0
83070,note_on,120,0,3,,,,,,,,,2,,,66,0
83190,control_change,120,0,1,,,,,,,,,0,64,127,,
83190,note_on,0,0,1,,,,,,,,,0,,,62,49
83190,note_on,0,0,1,,,,,,,,,0,,,74,49
83190,control_change,120,0,3,,,,,,,,,2,64,127,,
83190,note_on,0,0,3,,,,,,,,,2,,,47,36
83190,time_signature,480,1,0,3,4,24,8,,,,,,,,,
83190,note_on,0,0,3,,,,,,,,,2,,,59,36
83190,note_on,0,0,1,,,,,,,,,0,,,66,49
83310,note_on,0,0,1,,,,,,,,,0,,,73,49
83310,note_on,0,0,1,,,,,,,,,0,,,66,0
83310,note_on,0,0,1,,,,,,,,,0,,,62,0
83310,note_on,0,0,1,,,,,,,,,0,,,64,49
83310,note_on,0,0,1,,,,,,,,,0,,,67,49
83310,note_on,0,0,1,,,,,,,,,0,,,76,49
83310,note_on,0,0,3,,,,,,,,,2,,,57,36
83310,note_on,0,0,3,,,,,,,,,2,,,45,36
83310,note_on,0,0,3,,,,,,,,,2,,,47,0
83310,note_on,120,0,3,,,,,,,,,2,,,59,0
83310,note_on,120,0,1,,,,,,,,,0,,,74,0
83430,control_change,0,0,3,,,,,,,,,2,64,0,,
83430,note_on,0,0,3,,,,,,,,,2,,,42,36
83430,note_on,0,0,3,,,,,,,,,2,,,54,36
83430,control_change,0,0,1,,,,,,,,,0,64,0,,
83430,note_on,0,0,1,,,,,,,,,0,,,78,49
83430,note_on,0,0,1,,,,,,,,,0,,,74,49
83430,note_on,0,0,1,,,,,,,,,0,,,69,49
83430,note_on,0,0,1,,,,,,,,,0,,,66,49
83430,note_on,0,0,1,,,,,,,,,0,,,73,0
83430,note_on,0,0,1,,,,,,,,,0,,,67,0
83430,note_on,0,0,1,,,,,,,,,0,,,64,0
83430,note_on,120,0,1,,,,,,,,,0,,,76,0
83430,note_on,120,0,3,,,,,,,,,2,,,57,0
83430,note_on,0,0,3,,,,,,,,,2,,,45,0
83550,note_on,0,0,3,,,,,,,,,2,,,57,62
83550,note_on,0,0,3,,,,,,,,,2,,,45,54
83550,note_on,0,0,3,,,,,,,,,2,,,42,0
83550,note_on,120,0,3,,,,,,,,,2,,,54,0
83550,note_on,0,0,1,,,,,,,,,0,,,73,71
83550,note_on,0,0,1,,,,,,,,,0,,,69,67
83550,note_on,0,0,1,,,,,,,,,0,,,67,63
83550,note_on,0,0,1,,,,,,,,,0,,,74,0
83550,note_on,0,0,1,,,,,,,,,0,,,69,0
83550,note_on,0,0,1,,,,,,,,,0,,,66,0
83550,note_on,120,0,1,,,,,,,,,0,,,78,0
83550,note_on,0,0,1,,,,,,,,,0,,,76,75
83790,note_on,0,0,3,,,,,,,,,2,,,57,36
83790,note_on,240,0,3,,,,,,,,,2,,,57,0
83790,note_on,0,0,3,,,,,,,,,2,,,45,0
83790,note_on,0,0,3,,,,,,,,,2,,,50,36
83790,note_on,0,0,3,,,,,,,,,2,,,62,36
83790,note_on,0,0,1,,,,,,,,,0,,,67,0
83790,note_on,240,0,1,,,,,,,,,0,,,76,0
83790,note_on,0,0,1,,,,,,,,,0,,,69,0
83790,note_on,0,0,1,,,,,,,,,0,,,73,0
83790,note_on,0,0,1,,,,,,,,,0,,,66,49
83790,note_on,0,0,1,,,,,,,,,0,,,69,49
83790,note_on,0,0,1,,,,,,,,,0,,,74,49
83910,note_on,120,0,3,,,,,,,,,2,,,62,0
83910,time_signature,720,1,0,1,4,24,8,,,,,,,,,
83910,note_on,120,0,1,,,,,,,,,0,,,74,0
83910,note_on,0,0,3,,,,,,,,,2,,,57,0
83910,note_on,0,0,1,,,,,,,,,0,,,69,0
83910,note_on,0,0,1,,,,,,,,,0,,,66,49
83910,note_on,0,0,1,,,,,,,,,0,,,74,49
83910,note_on,0,0,3,,,,,,,,,2,,,62,36
83910,note_on,0,0,3,,,,,,,,,2,,,57,36
83910,note_on,0,0,3,,,,,,,,,2,,,50,36
83910,note_on,0,0,3,,,,,,,,,2,,,50,0
83910,note_on,0,0,1,,,,,,,,,0,,,66,0
83910,note_on,0,0,1,,,,,,,,,0,,,69,49
84030,note_on,0,0,3,,,,,,,,,2,,,50,0
84030,note_on,0,0,3,,,,,,,,,2,,,57,0
84030,note_on,120,0,3,,,,,,,,,2,,,62,0
84030,note_on,0,0,3,,,,,,,,,2,,,50,36
84030,note_on,0,0,3,,,,,,,,,2,,,62,36
84030,note_on,120,0,1,,,,,,,,,0,,,74,0
84030,note_on,0,0,1,,,,,,,,,0,,,74,49
84030,note_on,0,0,1,,,,,,,,,0,,,66,0
84030,note_on,0,0,1,,,,,,,,,0,,,69,0
84030,time_signature,120,1,0,2,4,24,8,,,,,,,,,
84150,note_on,120,0,3,,,,,,,,,2,,,62,0
84150,note_on,0,0,1,,,,,,,,,0,,,74,49
84150,note_on,120,0,1,,,,,,,,,0,,,74,0
84150,note_on,0,0,3,,,,,,,,,2,,,62,36
84150,note_on,0,0,3,,,,,,,,,2,,,50,36
84150,note_on,0,0,3,,,,,,,,,2,,,50,0
84270,note_on,0,0,1,,,,,,,,,0,,,67,88
84270,note_on,0,0,1,,,,,,,,,0,,,64,88
84270,control_change,0,0,1,,,,,,,,,0,64,127,,
84270,note_on,120,0,1,,,,,,,,,0,,,74,0
84270,time_signature,240,1,0,3,4,24,8,,,,,,,,,
84270,note_on,0,0,1,,,,,,,,,0,,,76,88
84270,note_on,120,0,3,,,,,,,,,2,,,62,0
84270,note_on,0,0,3,,,,,,,,,2,,,50,0
84270,control_change,0,0,3,,,,,,,,,2,64,127,,
84270,note_on,0,0,3,,,,,,,,,2,,,48,75
84270,note_on,0,0,3,,,,,,,,,2,,,55,75
84270,note_on,0,0,3,,,,,,,,,2,,,60,75
84270,note_on,0,0,1,,,,,,,,,0,,,72,88
84510,note_on,240,0,1,,,,,,,,,0,,,76,0
84510,note_on,0,0,1,,,,,,,,,0,,,64,0
84510,note_on,0,0,1,,,,,,,,,0,,,67,0
84510,note_on,0,0,1,,,,,,,,,0,,,72,0
84510,note_on,0,0,1,,,,,,,,,0,,,64,88
84510,note_on,0,0,1,,,,,,,,,0,,,67,88
84510,note_on,0,0,3,,,,,,,,,2,,,55,75
84510,note_on,240,0,3,,,,,,,,,2,,,60,0
84510,note_on,0,0,3,,,,,,,,,2,,,55,0
84510,note_on,0,0,3,,,,,,,,,2,,,48,0
84510,note_on,0,0,3,,,,,,,,,2,,,60,75
84510,note_on,0,0,1,,,,,,,,,0,,,72,88
84510,note_on,0,0,1,,,,,,,,,0,,,76,88
84510,note_on,0,0,3,,,,,,,,,2,,,48,75
84630,note_on,0,0,3,,,,,,,,,2,,,55,0
84630,note_on,0,0,1,,,,,,,,,0,,,64,0
84630,note_on,120,0,1,,,,,,,,,0,,,76,0
84630,note_on,0,0,1,,,,,,,,,0,,,64,88
84630,note_on,0,0,1,,,,,,,,,0,,,67,88
84630,note_on,0,0,1,,,,,,,,,0,,,72,88
84630,note_on,0,0,1,,,,,,,,,0,,,76,88
84630,note_on,120,0,3,,,,,,,,,2,,,60,0
84630,note_on,0,0,3,,,,,,,,,2,,,48,0
84630,note_on,0,0,1,,,,,,,,,0,,,67,0
84630,note_on,0,0,3,,,,,,,,,2,,,48,75
84630,note_on,0,0,3,,,,,,,,,2,,,60,75
84630,note_on,0,0,3,,,,,,,,,2,,,55,75
84630,note_on,0,0,1,,,,,,,,,0,,,72,0
84750,note_on,120,0,3,,,,,,,,,2,,,60,0
84750,note_on,0,0,1,,,,,,,,,0,,,72,88
84750,note_on,0,0,3,,,,,,,,,2,,,55,0
84750,note_on,120,0,1,,,,,,,,,0,,,76,0
84750,note_on,0,0,3,,,,,,,,,2,,,48,0
84750,note_on,0,0,1,,,,,,,,,0,,,64,0
84750,note_on,0,0,1,,,,,,,,,0,,,67,0
84750,note_on,0,0,1,,,,,,,,,0,,,72,0
84750,note_on,0,0,1,,,,,,,,,0,,,64,88
84750,note_on,0,0,1,,,,,,,,,0,,,76,88
84750,note_on,0,0,1,,,,,,,,,0,,,67,88
84750,note_on,0,0,3,,,,,,,,,2,,,55,75
84750,note_on,0,0,3,,,,,,,,,2,,,60,75
84750,note_on,0,0,3,,,,,,,,,2,,,48,75
84870,note_on,0,0,1,,,,,,,,,0,,,64,0
84870,control_change,0,0,1,,,,,,,,,0,64,0,,
84870,note_on,0,0,1,,,,,,,,,0,,,76,88
84870,note_on,0,0,1,,,,,,,,,0,,,72,88
84870,note_on,0,0,1,,,,,,,,,0,,,67,88
84870,note_on,0,0,1,,,,,,,,,0,,,64,88
84870,note_on,0,0,1,,,,,,,,,0,,,72,0
84870,note_on,0,0,1,,,,,,,,,0,,,67,0
84870,note_on,120,0,1,,,,,,,,,0,,,76,0
84870,note_on,0,0,3,,,,,,,,,2,,,60,75
84870,note_on,0,0,3,,,,,,,,,2,,,55,75
84870,note_on,0,0,3,,,,,,,,,2,,,48,75
84870,control_change,0,0,3,,,,,,,,,2,64,0,,
84870,note_on,0,0,3,,,,,,,,,2,,,48,0
84870,note_on,0,0,3,,,,,,,,,2,,,55,0
84870,note_on,120,0,3,,,,,,,,,2,,,60,0
84990,note_on,120,0,1,,,,,,,,,0,,,76,0
84990,note_on,0,0,3,,,,,,,,,2,,,60,75
84990,note_on,0,0,1,,,,,,,,,0,,,64,0
84990,note_on,0,0,1,,,,,,,,,0,,,76,88
84990,note_on,0,0,1,,,,,,,,,0,,,72,0
84990,note_on,0,0,1,,,,,,,,,0,,,64,88
84990,note_on,0,0,1,,,,,,,,,0,,,67,88
84990,control_change,0,0,1,,,,,,,,,0,64,127,,
84990,note_on,0,0,3,,,,,,,,,2,,,55,75
84990,note_on,0,0,3,,,,,,,,,2,,,48,75
84990,control_change,0,0,3,,,,,,,,,2,64,127,,
84990,note_on,0,0,3,,,,,,,,,2,,,48,0
84990,note_on,0,0,3,,,,,,,,,2,,,55,0
84990,note_on,120,0,3,,,,,,,,,2,,,60,0
84990,note_on,0,0,1,,,,,,,,,0,,,67,0
85110,note_on,120,0,3,,,,,,,,,2,,,60,0
85110,note_on,0,0,3,,,,,,,,,2,,,43,75
85110,note_on,0,0,3,,,,,,,,,2,,,48,0
85110,note_on,120,0,1,,,,,,,,,0,,,76,0
85110,note_on,0,0,3,,,,,,,,,2,,,55,75
85110,note_on,0,0,1,,,,,,,,,0,,,74,88
85110,note_on,0,0,1,,,,,,,,,0,,,67,88
85110,note_on,0,0,3,,,,,,,,,2,,,55,0
85110,note_on,0,0,1,,,,,,,,,0,,,64,0
85110,note_on,0,0,1,,,,,,,,,0,,,67,0
85110,note_on,0,0,1,,,,,,,,,0,,,62,88
85230,note_on,0,0,3,,,,,,,,,2,,,43,0
85230,control_change,0,0,3,,,,,,,,,2,64,0,,
85230,note_on,0,0,3,,,,,,,,,2,,,40,75
85230,control_change,0,0,1,,,,,,,,,0,64,0,,
85230,note_on,0,0,3,,,,,,,,,2,,,52,75
85230,note_on,0,0,3,,,,,,,,,2,,,43,75
85230,note_on,0,0,1,,,,,,,,,0,,,72,88
85230,note_on,0,0,1,,,,,,,,,0,,,67,88
85230,note_on,0,0,1,,,,,,,,,0,,,60,88
85230,note_on,0,0,1,,,,,,,,,0,,,62,0
85230,note_on,0,0,1,,,,,,,,,0,,,67,0
85230,note_on,120,0,1,,,,,,,,,0,,,74,0
85230,note_on,120,0,3,,,,,,,,,2,,,55,0
85350,note_on,0,0,1,,,,,,,,,0,,,67,101
85350,note_on,0,0,1,,,,,,,,,0,,,60,101
85350,note_on,0,0,1,,,,,,,,,0,,,60,0
85350,note_on,0,0,1,,,,,,,,,0,,,67,0
85350,note_on,0,0,1,,,,,,,,,0,,,72,101
85350,control_change,0,0,3,,,,,,,,,2,64,127,,
85350,note_on,0,0,3,,,,,,,,,2,,,43,88
85350,note_on,0,0,3,,,,,,,,,2,,,40,88
85350,control_change,0,0,1,,,,,,,,,0,64,127,,
85350,note_on,0,0,3,,,,,,,,,2,,,40,0
85350,note_on,120,0,1,,,,,,,,,0,,,72,0
85350,note_on,0,0,3,,,,,,,,,2,,,43,0
85350,note_on,120,0,3,,,,,,,,,2,,,52,0
85350,note_on,0,0,3,,,,,,,,,2,,,52,88
85470,note_on,0,0,1,,,,,,,,,0,,,74,101
85470,note_on,0,0,1,,,,,,,,,0,,,67,101
85470,note_on,0,0,1,,,,,,,,,0,,,62,101
85470,note_on,0,0,1,,,,,,,,,0,,,60,0
85470,note_on,0,0,1,,,,,,,,,0,,,67,0
85470,note_on,0,0,3,,,,,,,,,2,,,40,0
85470,note_on,0,0,3,,,,,,,,,2,,,55,88
85470,note_on,0,0,3,,,,,,,,,2,,,43,88
85470,note_on,0,0,3,,,,,,,,,2,,,43,0
85470,note_on,120,0,3,,,,,,,,,2,,,52,0
85470,note_on,120,0,1,,,,,,,,,0,,,72,0
85590,note_on,0,0,3,,,,,,,,,2,,,55,88
85590,note_on,0,0,3,,,,,,,,,2,,,48,88
85590,control_change,0,0,3,,,,,,,,,2,64,0,,
85590,note_on,0,0,3,,,,,,,,,2,,,43,0
85590,note_on,120,0,3,,,,,,,,,2,,,55,0
85590,note_on,0,0,3,,,,,,,,,2,,,60,88
85590,note_on,0,0,1,,,,,,,,,0,,,76,101
85590,note_on,0,0,1,,,,,,,,,0,,,67,101
85590,note_on,0,0,1,,,,,,,,,0,,,64,101
85590,note_on,0,0,1,,,,,,,,,0,,,62,0
85590,note_on,120,0,1,,,,,,,,,0,,,74,0
85590,control_change,0,0,1,,,,,,,,,0,64,0,,
85590,note_on,0,0,1,,,,,,,,,0,,,67,0
85710,note_on,0,0,1,,,,,,,,,0,,,70,114
85710,note_on,0,0,1,,,,,,,,,0,,,79,114
85710,note_on,0,0,1,,,,,,,,,0,,,67,114
85710,note_on,0,0,1,,,,,,,,,0,,,64,0
85710,note_on,0,0,1,,,,,,,,,0,,,67,0
85710,note_on,120,0,1,,,,,,,,,0,,,76,0
85710,note_on,120,0,3,,,,,,,,,2,,,60,0
85710,note_on,0,0,3,,,,,,,,,2,,,48,0
85710,note_on,0,0,3,,,,,,,,,2,,,55,0
85710,control_change,0,0,1,,,,,,,,,0,64,127,,
85710,note_on,0,0,3,,,,,,,,,2,,,51,101
85710,note_on,0,0,3,,,,,,,,,2,,,58,101
85710,note_on,0,0,3,,,,,,,,,2,,,63,101
85710,control_change,0,0,3,,,,,,,,,2,64,127,,
85950,note_on,0,0,1,,,,,,,,,0,,,70,0
85950,note_on,0,0,1,,,,,,,,,0,,,67,0
85950,note_on,0,0,1,,,,,,,,,0,,,67,114
85950,note_on,0,0,1,,,,,,,,,0,,,70,114
85950,note_on,0,0,1,,,,,,,,,0,,,79,114
85950,note_on,240,0,1,,,,,,,,,0,,,79,0
85950,note_on,0,0,3,,,,,,,,,2,,,51,101
85950,note_on,0,0,3,,,,,,,,,2,,,51,0
85950,note_on,0,0,3,,,,,,,,,2,,,58,0
85950,note_on,240,0,3,,,,,,,,,2,,,63,0
85950,note_on,0,0,3,,,,,,,,,2,,,63,101
85950,note_on,0,0,3,,,,,,,,,2,,,58,101
86070,note_on,0,0,3,,,,,,,,,2,,,51,101
86070,note_on,0,0,1,,,,,,,,,0,,,70,0
86070,note_on,0,0,1,,,,,,,,,0,,,67,0
86070,note_on,0,0,3,,,,,,,,,2,,,58,101
86070,note_on,0,0,1,,,,,,,,,0,,,70,114
86070,note_on,0,0,1,,,,,,,,,0,,,79,114
86070,note_on,0,0,3,,,,,,,,,2,,,63,101
86070,note_on,120,0,3,,,,,,,,,2,,,63,0
86070,note_on,0,0,3,,,,,,,,,2,,,58,0
86070,note_on,0,0,3,,,,,,,,,2,,,51,0
86070,note_on,120,0,1,,,,,,,,,0,,,79,0
86070,note_on,0,0,1,,,,,,,,,0,,,67,114
86190,note_on,120,0,1,,,,,,,,,0,,,79,0
86190,note_on,0,0,3,,,,,,,,,2,,,58,0
86190,note_on,0,0,3,,,,,,,,,2,,,63,101
86190,note_on,0,0,3,,,,,,,,,2,,,58,101
86190,note_on,0,0,1,,,,,,,,,0,,,70,0
86190,note_on,0,0,1,,,,,,,,,0,,,67,0
86190,note_on,120,0,3,,,,,,,,,2,,,63,0
86190,note_on,0,0,1,,,,,,,,,0,,,70,114
86190,note_on,0,0,1,,,,,,,,,0,,,79,114
86190,note_on,0,0,1,,,,,,,,,0,,,67,114
86190,note_on,0,0,3,,,,,,,,,2,,,51,0
86190,note_on,0,0,3,,,,,,,,,2,,,51,101
86310,note_on,0,0,3,,,,,,,,,2,,,63,101
86310,note_on,0,0,3,,,,,,,,,2,,,58,101
86310,note_on,0,0,3,,,,,,,,,2,,,51,101
86310,control_change,0,0,3,,,,,,,,,2,64,0,,
86310,note_on,0,0,3,,,,,,,,,2,,,51,0
86310,note_on,0,0,3,,,,,,,,,2,,,58,0
86310,note_on,120,0,3,,,,,,,,,2,,,63,0
86310,note_on,0,0,1,,,,,,,,,0,,,67,114
86310,note_on,0,0,1,,,,,,,,,0,,,67,0
86310,control_change,0,0,1,,,,,,,,,0,64,0,,
86310,note_on,0,0,1,,,,,,,,,0,,,79,114
86310,note_on,0,0,1,,,,,,,,,0,,,70,114
86310,note_on,120,0,1,,,,,,,,,0,,,79,0
86310,note_on,0,0,1,,,,,,,,,0,,,70,0
86430,note_on,0,0,1,,,,,,,,,0,,,70,114
86430,note_on,0,0,1,,,,,,,,,0,,,79,114
86430,note_on,0,0,1,,,,,,,,,0,,,67,114
86430,note_on,0,0,1,,,,,,,,,0,,,70,0
86430,note_on,0,0,1,,,,,,,,,0,,,67,0
86430,control_change,0,0,1,,,,,,,,,0,64,127,,
86430,note_on,120,0,1,,,,,,,,,0,,,79,0
86430,note_on,120,0,3,,,,,,,,,2,,,63,0
86430,note_on,0,0,3,,,,,,,,,2,,,58,0
86430,note_on,0,0,3,,,,,,,,,2,,,51,0
86430,control_change,0,0,3,,,,,,,,,2,64,127,,
86430,note_on,0,0,3,,,,,,,,,2,,,51,101
86430,note_on,0,0,3,,,,,,,,,2,,,58,101
86430,note_on,0,0,3,,,,,,,,,2,,,63,101
86550,note_on,120,0,3,,,,,,,,,2,,,63,0
86550,note_on,0,0,3,,,,,,,,,2,,,58,0
86550,note_on,0,0,3,,,,,,,,,2,,,51,0
86550,note_on,0,0,3,,,,,,,,,2,,,46,101
86550,note_on,0,0,3,,,,,,,,,2,,,58,101
86550,note_on,0,0,1,,,,,,,,,0,,,77,114
86550,note_on,0,0,1,,,,,,,,,0,,,70,0
86550,note_on,0,0,1,,,,,,,,,0,,,67,0
86550,note_on,0,0,1,,,,,,,,,0,,,65,114
86550,note_on,0,0,1,,,,,,,,,0,,,70,114
86550,note_on,120,0,1,,,,,,,,,0,,,79,0
86670,note_on,0,0,1,,,,,,,,,0,,,75,114
86670,note_on,0,0,3,,,,,,,,,2,,,43,101
86670,note_on,0,0,3,,,,,,,,,2,,,55,101
86670,note_on,0,0,3,,,,,,,,,2,,,46,0
86670,note_on,120,0,3,,,,,,,,,2,,,58,0
86670,control_change,0,0,1,,,,,,,,,0,64,0,,
86670,control_change,0,0,3,,,,,,,,,2,64,0,,
86670,note_on,0,0,1,,,,,,,,,0,,,70,0
86670,note_on,0,0,1,,,,,,,,,0,,,65,0
86670,note_on,0,0,1,,,,,,,,,0,,,63,114
86670,note_on,0,0,1,,,,,,,,,0,,,70,114
86670,note_on,120,0,1,,,,,,,,,0,,,77,0
86670,note_on,0,0,3,,,,,,,,,2,,,46,101
86790,note_on,0,0,3,,,,,,,,,2,,,46,0
86790,note_on,0,0,3,,,,,,,,,2,,,43,0
86790,control_change,0,0,3,,,,,,,,,2,64,127,,
86790,note_on,0,0,3,,,,,,,,,2,,,43,101
86790,note_on,0,0,3,,,,,,,,,2,,,46,101
86790,note_on,0,0,3,,,,,,,,,2,,,55,101
86790,note_on,120,0,3,,,,,,,,,2,,,55,0
86790,note_on,120,0,1,,,,,,,,,0,,,75,0
86790,note_on,0,0,1,,,,,,,,,0,,,70,0
86790,note_on,0,0,1,,,,,,,,,0,,,63,0
86790,note_on,0,0,1,,,,,,,,,0,,,63,114
86790,note_on,0,0,1,,,,,,,,,0,,,70,114
86790,note_on,0,0,1,,,,,,,,,0,,,75,114
86790,control_change,0,0,1,,,,,,,,,0,64,127,,
86910,note_on,120,0,3,,,,,,,,,2,,,55,0
86910,note_on,0,0,3,,,,,,,,,2,,,58,101
86910,note_on,0,0,3,,,,,,,,,2,,,46,0
86910,note_on,0,0,1,,,,,,,,,0,,,77,114
86910,note_on,0,0,1,,,,,,,,,0,,,70,114
86910,note_on,0,0,1,,,,,,,,,0,,,65,114
86910,note_on,0,0,1,,,,,,,,,0,,,63,0
86910,note_on,0,0,1,,,,,,,,,0,,,70,0
86910,note_on,120,0,1,,,,,,,,,0,,,75,0
86910,note_on,0,0,3,,,,,,,,,2,,,46,101
86910,note_on,0,0,3,,,,,,,,,2,,,43,0
87030,control_change,0,0,1,,,,,,,,,0,64,0,,
87030,note_on,0,0,1,,,,,,,,,0,,,67,114
87030,note_on,0,0,1,,,,,,,,,0,,,65,0
87030,note_on,0,0,1,,,,,,,,,0,,,70,0
87030,note_on,120,0,1,,,,,,,,,0,,,77,0
87030,note_on,0,0,3,,,,,,,,,2,,,58,101
87030,note_on,0,0,3,,,,,,,,,2,,,46,0
87030,control_change,0,0,3,,,,,,,,,2,64,0,,
87030,note_on,0,0,3,,,,,,,,,2,,,51,101
87030,note_on,0,0,1,,,,,,,,,0,,,79,114
87030,note_on,0,0,3,,,,,,,,,2,,,63,101
87030,note_on,120,0,3,,,,,,,,,2,,,58,0
87030,note_on,0,0,1,,,,,,,,,0,,,70,114
87150,control_change,0,0,1,,,,,,,,,0,64,127,,
87150,note_on,0,0,1,,,,,,,,,0,,,70,0
87150,note_on,0,0,1,,,,,,,,,0,,,73,114
87150,note_on,0,0,1,,,,,,,,,0,,,70,114
87150,note_on,0,0,3,,,,,,,,,2,,,54,101
87150,note_on,120,0,1,,,,,,,,,0,,,79,0
87150,note_on,0,0,3,,,,,,,,,2,,,42,101
87150,note_on,0,0,3,,,,,,,,,2,,,49,101
87150,note_on,0,0,3,,,,,,,,,2,,,51,0
87150,note_on,0,0,3,,,,,,,,,2,,,58,0
87150,note_on,120,0,3,,,,,,,,,2,,,63,0
87150,note_on,0,0,1,,,,,,,,,0,,,82,114
87150,note_on,0,0,1,,,,,,,,,0,,,67,0
87150,control_change,0,0,3,,,,,,,,,2,64,127,,
87390,note_on,240,0,3,,,,,,,,,2,,,54,0
87390,note_on,0,0,3,,,,,,,,,2,,,42,0
87390,note_on,0,0,3,,,,,,,,,2,,,42,101
87390,note_on,0,0,3,,,,,,,,,2,,,54,101
87390,note_on,0,0,3,,,,,,,,,2,,,49,0
87390,note_on,0,0,3,,,,,,,,,2,,,49,101
87390,note_on,0,0,1,,,,,,,,,0,,,73,114
87390,note_on,0,0,1,,,,,,,,,0,,,82,114
87390,note_on,0,0,1,,,,,,,,,0,,,70,114
87390,note_on,0,0,1,,,,,,,,,0,,,73,0
87390,note_on,240,0,1,,,,,,,,,0,,,82,0
87390,note_on,0,0,1,,,,,,,,,0,,,70,0
87510,note_on,0,0,3,,,,,,,,,2,,,49,0
87510,note_on,0,0,3,,,,,,,,,2,,,42,0
87510,note_on,0,0,1,,,,,,,,,0,,,73,114
87510,note_on,0,0,3,,,,,,,,,2,,,42,101
87510,note_on,0,0,3,,,,,,,,,2,,,49,101
87510,note_on,120,0,1,,,,,,,,,0,,,82,0
87510,note_on,0,0,1,,,,,,,,,0,,,73,0
87510,note_on,0,0,1,,,,,,,,,0,,,70,0
87510,note_on,0,0,1,,,,,,,,,0,,,70,114
87510,note_on,120,0,3,,,,,,,,,2,,,54,0
87510,note_on,0,0,3,,,,,,,,,2,,,54,101
87510,note_on,0,0,1,,,,,,,,,0,,,82,114
87630,note_on,0,0,1,,,,,,,,,0,,,73,0
87630,note_on,0,0,3,,,,,,,,,2,,,54,101
87630,note_on,120,0,1,,,,,,,,,0,,,82,0
87630,note_on,0,0,3,,,,,,,,,2,,,42,101
87630,note_on,0,0,3,,,,,,,,,2,,,49,0
87630,note_on,0,0,3,,,,,,,,,2,,,49,101
87630,note_on,0,0,1,,,,,,,,,0,,,82,114
87630,note_on,0,0,1,,,,,,,,,0,,,73,114
87630,note_on,0,0,1,,,,,,,,,0,,,70,114
87630,note_on,0,0,1,,,,,,,,,0,,,70,0
87630,note_on,0,0,3,,,,,,,,,2,,,42,0
87630,note_on,120,0,3,,,,,,,,,2,,,54,0
87750,note_on,120,0,3,,,,,,,,,2,,,54,0
87750,note_on,0,0,3,,,,,,,,,2,,,49,0
87750,control_change,0,0,3,,,,,,,,,2,64,0,,
87750,note_on,0,0,3,,,,,,,,,2,,,42,101
87750,note_on,0,0,3,,,,,,,,,2,,,49,101
87750,note_on,0,0,3,,,,,,,,,2,,,54,101
87750,note_on,0,0,3,,,,,,,,,2,,,42,0
87750,note_on,120,0,1,,,,,,,,,0,,,82,0
87750,note_on,0,0,1,,,,,,,,,0,,,73,0
87750,note_on,0,0,1,,,,,,,,,0,,,70,0
87750,note_on,0,0,1,,,,,,,,,0,,,70,114
87750,note_on,0,0,1,,,,,,,,,0,,,73,114
87750,note_on,0,0,1,,,,,,,,,0,,,82,114
87750,control_change,0,0,1,,,,,,,,,0,64,0,,
87870,note_on,0,0,3,,,,,,,,,2,,,49,101
87870,note_on,0,0,3,,,,,,,,,2,,,54,101
87870,control_change,0,0,1,,,,,,,,,0,64,127,,
87870,note_on,0,0,1,,,,,,,,,0,,,82,114
87870,note_on,0,0,3,,,,,,,,,2,,,42,101
87870,control_change,0,0,3,,,,,,,,,2,64,127,,
87870,note_on,0,0,1,,,,,,,,,0,,,70,114
87870,note_on,0,0,3,,,,,,,,,2,,,49,0
87870,note_on,0,0,3,,,,,,,,,2,,,42,0
87870,note_on,0,0,1,,,,,,,,,0,,,73,0
87870,note_on,0,0,1,,,,,,,,,0,,,70,0
87870,note_on,120,0,3,,,,,,,,,2,,,54,0
87870,note_on,120,0,1,,,,,,,,,0,,,82,0
87870,note_on,0,0,1,,,,,,,,,0,,,73,114
87990,note_on,120,0,3,,,,,,,,,2,,,54,0
87990,note_on,0,0,1,,,,,,,,,0,,,73,114
87990,note_on,0,0,1,,,,,,,,,0,,,80,114
87990,note_on,0,0,1,,,,,,,,,0,,,73,0
87990,note_on,0,0,1,,,,,,,,,0,,,68,114
87990,note_on,120,0,1,,,,,,,,,0,,,82,0
87990,note_on,0,0,1,,,,,,,,,0,,,70,0
87990,note_on,0,0,3,,,,,,,,,2,,,49,0
87990,note_on,0,0,3,,,,,,,,,2,,,42,0
87990,note_on,0,0,3,,,,,,,,,2,,,49,101
87990,note_on,0,0,3,,,,,,,,,2,,,37,101
88110,note_on,120,0,1,,,,,,,,,0,,,80,0
88110,note_on,0,0,1,,,,,,,,,0,,,73,0
88110,note_on,0,0,1,,,,,,,,,0,,,68,0
88110,note_on,0,0,1,,,,,,,,,0,,,66,114
88110,note_on,0,0,3,,,,,,,,,2,,,46,101
88110,note_on,0,0,1,,,,,,,,,0,,,78,114
88110,control_change,0,0,1,,,,,,,,,0,64,0,,
88110,note_on,120,0,3,,,,,,,,,2,,,49,0
88110,note_on,0,0,3,,,,,,,,,2,,,37,0
88110,control_change,0,0,3,,,,,,,,,2,64,0,,
88110,note_on,0,0,3,,,,,,,,,2,,,34,101
88110,note_on,0,0,1,,,,,,,,,0,,,73,114
88230,note_on,0,0,1,,,,,,,,,0,,,73,0
88230,note_on,0,0,1,,,,,,,,,0,,,66,0
88230,note_on,0,0,1,,,,,,,,,0,,,70,114
88230,note_on,0,0,1,,,,,,,,,0,,,78,114
88230,note_on,120,0,1,,,,,,,,,0,,,78,0
88230,note_on,0,0,1,,,,,,,,,0,,,82,114
88230,control_change,0,0,1,,,,,,,,,0,64,127,,
88230,note_on,120,0,3,,,,,,,,,2,,,46,0
88230,note_on,0,0,3,,,,,,,,,2,,,54,101
88230,note_on,0,0,3,,,,,,,,,2,,,34,0
88230,control_change,0,0,3,,,,,,,,,2,64,127,,
88230,note_on,0,0,3,,,,,,,,,2,,,42,101
88350,note_on,0,0,1,,,,,,,,,0,,,83,114
88350,note_on,0,0,1,,,,,,,,,0,,,78,114
88350,note_on,0,0,1,,,,,,,,,0,,,71,114
88350,note_on,0,0,1,,,,,,,,,0,,,70,0
88350,note_on,0,0,1,,,,,,,,,0,,,78,0
88350,note_on,120,0,1,,,,,,,,,0,,,82,0
88350,note_on,0,0,3,,,,,,,,,2,,,42,0
88350,note_on,120,0,3,,,,,,,,,2,,,54,0
88350,note_on,0,0,3,,,,,,,,,2,,,56,101
88350,note_on,0,0,3,,,,,,,,,2,,,54,101
88350,note_on,0,0,3,,,,,,,,,2,,,44,101
88470,control_change,0,0,1,,,,,,,,,0,64,0,,
88470,note_on,0,0,1,,,,,,,,,0,,,85,114
88470,note_on,0,0,1,,,,,,,,,0,,,78,114
88470,note_on,0,0,1,,,,,,,,,0,,,73,114
88470,note_on,0,0,1,,,,,,,,,0,,,71,0
88470,note_on,0,0,1,,,,,,,,,0,,,78,0
88470,note_on,120,0,1,,,,,,,,,0,,,83,0
88470,note_on,0,0,3,,,,,,,,,2,,,44,0
88470,note_on,120,0,3,,,,,,,,,2,,,56,0
88470,note_on,0,0,3,,,,,,,,,2,,,58,101
88470,note_on,0,0,3,,,,,,,,,2,,,54,101
88470,note_on,0,0,3,,,,,,,,,2,,,46,101
88470,control_change,0,0,3,,,,,,,,,2,64,0,,
88470,note_on,0,0,3,,,,,,,,,2,,,54,0
88590,note_on,0,0,3,,,,,,,,,2,,,47,101
88590,note_on,0,0,3,,,,,,,,,2,,,46,0
88590,note_on,0,0,1,,,,,,,,,0,,,78,0
88590,note_on,120,0,3,,,,,,,,,2,,,58,0
88590,note_on,120,0,1,,,,,,,,,0,,,85,0
88590,note_on,0,0,3,,,,,,,,,2,,,54,0
88590,note_on,0,0,3,,,,,,,,,2,,,59,101
88590,note_on,0,0,1,,,,,,,,,0,,,78,114
88590,note_on,0,0,3,,,,,,,,,2,,,54,101
88590,note_on,0,0,1,,,,,,,,,0,,,74,114
88590,control_change,0,0,3,,,,,,,,,2,64,127,,
88590,note_on,0,0,1,,,,,,,,,0,,,73,0
88590,control_change,0,0,1,,,,,,,,,0,64,127,,
88590,note_on,0,0,1,,,,,,,,,0,,,86,114
88830,note_on,0,0,3,,,,,,,,,2,,,59,101
88830,note_on,0,0,1,,,,,,,,,0,,,78,0
88830,note_on,0,0,3,,,,,,,,,2,,,47,0
88830,note_on,0,0,3,,,,,,,,,2,,,54,0
88830,note_on,0,0,3,,,,,,,,,2,,,54,101
88830,note_on,240,0,3,,,,,,,,,2,,,59,0
88830,note_on,0,0,1,,,,,,,,,0,,,74,0
88830,note_on,0,0,3,,,,,,,,,2,,,47,101
88830,note_on,0,0,1,,,,,,,,,0,,,74,114
88830,note_on,0,0,1,,,,,,,,,0,,,86,114
88830,note_on,0,0,1,,,,,,,,,0,,,78,114
88830,note_on,240,0,1,,,,,,,,,0,,,86,0
88950,note_on,120,0,3,,,,,,,,,2,,,59,0
88950,note_on,0,0,3,,,,,,,,,2,,,54,0
88950,note_on,0,0,3,,,,,,,,,2,,,47,0
88950,note_on,0,0,3,,,,,,,,,2,,,47,101
88950,note_on,0,0,1,,,,,,,,,0,,,78,114
88950,note_on,120,0,1,,,,,,,,,0,,,86,0
88950,note_on,0,0,1,,,,,,,,,0,,,78,0
88950,note_on,0,0,1,,,,,,,,,0,,,74,0
88950,note_on,0,0,1,,,,,,,,,0,,,74,114
88950,note_on,0,0,1,,,,,,,,,0,,,86,114
88950,note_on,0,0,3,,,,,,,,,2,,,54,101
88950,note_on,0,0,3,,,,,,,,,2,,,59,101
89070,note_on,0,0,1,,,,,,,,,0,,,86,114
89070,note_on,0,0,1,,,,,,,,,0,,,74,0
89070,note_on,120,0,1,,,,,,,,,0,,,86,0
89070,note_on,0,0,1,,,,,,,,,0,,,78,114
89070,note_on,0,0,1,,,,,,,,,0,,,78,0
89070,note_on,0,0,1,,,,,,,,,0,,,74,114
89070,note_on,0,0,3,,,,,,,,,2,,,47,0
89070,note_on,120,0,3,,,,,,,,,2,,,59,0
89070,note_on,0,0,3,,,,,,,,,2,,,59,101
89070,note_on,0,0,3,,,,,,,,,2,,,54,101
89070,note_on,0,0,3,,,,,,,,,2,,,54,0
89070,note_on,0,0,3,,,,,,,,,2,,,47,101
89190,note_on,0,0,3,,,,,,,,,2,,,47,0
89190,note_on,0,0,3,,,,,,,,,2,,,54,0
89190,note_on,120,0,3,,,,,,,,,2,,,59,0
89190,note_on,0,0,1,,,,,,,,,0,,,78,114
89190,note_on,120,0,1,,,,,,,,,0,,,86,0
89190,note_on,0,0,1,,,,,,,,,0,,,78,0
89190,note_on,0,0,1,,,,,,,,,0,,,74,0
89190,control_change,0,0,1,,,,,,,,,0,64,0,,
89190,note_on,0,0,1,,,,,,,,,0,,,86,114
89190,control_change,0,0,3,,,,,,,,,2,64,0,,
89190,note_on,0,0,3,,,,,,,,,2,,,47,101
89190,note_on,0,0,1,,,,,,,,,0,,,74,114
89190,note_on,0,0,3,,,,,,,,,2,,,59,101
89190,note_on,0,0,3,,,,,,,,,2,,,54,101
89310,note_on,120,0,1,,,,,,,,,0,,,86,0
89310,note_on,0,0,1,,,,,,,,,0,,,78,0
89310,note_on,0,0,1,,,,,,,,,0,,,74,0
89310,note_on,0,0,1,,,,,,,,,0,,,79,114
89310,note_on,0,0,1,,,,,,,,,0,,,83,114
89310,note_on,0,0,1,,,,,,,,,0,,,86,114
89310,note_on,0,0,1,,,,,,,,,0,,,91,114
89310,control_change,0,0,1,,,,,,,,,0,64,127,,
89310,note_on,0,0,1,,,,,,,,,0,,,77,114
89310,note_on,120,0,3,,,,,,,,,2,,,59,0
89310,note_on,0,0,3,,,,,,,,,2,,,54,0
89310,note_on,0,0,3,,,,,,,,,2,,,47,0
89310,control_change,0,0,3,,,,,,,,,2,64,127,,
89310,note_on,0,0,3,,,,,,,,,2,,,31,101
89310,note_on,0,0,3,,,,,,,,,2,,,43,101
89550,note_on,0,0,3,,,,,,,,,2,,,31,0
89550,note_on,240,0,3,,,,,,,,,2,,,43,0
89550,note_on,0,0,3,,,,,,,,,2,,,43,101
89550,note_on,240,0,1,,,,,,,,,0,,,91,0
89550,note_on,0,0,1,,,,,,,,,0,,,86,0
89550,note_on,0,0,1,,,,,,,,,0,,,77,0
89550,note_on,0,0,1,,,,,,,,,0,,,79,0
89550,note_on,0,0,3,,,,,,,,,2,,,31,101
89550,note_on,0,0,1,,,,,,,,,0,,,77,114
89550,note_on,0,0,1,,,,,,,,,0,,,79,114
89550,note_on,0,0,1,,,,,,,,,0,,,83,114
89550,note_on,0,0,1,,,,,,,,,0,,,86,114
89550,note_on,0,0,1,,,,,,,,,0,,,91,114
89550,note_on,0,0,1,,,,,,,,,0,,,83,0
89670,note_on,0,0,3,,,,,,,,,2,,,31,0
89670,note_on,0,0,3,,,,,,,,,2,,,35,88
89670,note_on,0,0,3,,,,,,,,,2,,,47,88
89670,note_on,120,0,3,,,,,,,,,2,,,43,0
89670,note_on,0,0,1,,,,,,,,,0,,,86,101
89670,note_on,120,0,1,,,,,,,,,0,,,91,0
89670,note_on,0,0,1,,,,,,,,,0,,,83,0
89670,note_on,0,0,1,,,,,,,,,0,,,77,0
89670,note_on,0,0,1,,,,,,,,,0,,,79,0
89670,note_on,0,0,1,,,,,,,,,0,,,86,0
89670,note_on,0,0,1,,,,,,,,,0,,,77,101
89670,note_on,0,0,1,,,,,,,,,0,,,79,101
89670,note_on,0,0,1,,,,,,,,,0,,,83,101
89670,note_on,0,0,1,,,,,,,,,0,,,91,101
89790,note_on,0,0,3,,,,,,,,,2,,,50,88
89790,note_on,0,0,3,,,,,,,,,2,,,38,88
89790,note_on,0,0,3,,,,,,,,,2,,,35,0
89790,note_on,120,0,3,,,,,,,,,2,,,47,0
89790,note_on,0,0,1,,,,,,,,,0,,,91,101
89790,note_on,0,0,1,,,,,,,,,0,,,83,101
89790,note_on,0,0,1,,,,,,,,,0,,,79,101
89790,note_on,0,0,1,,,,,,,,,0,,,86,101
89790,note_on,0,0,1,,,,,,,,,0,,,86,0
89790,note_on,0,0,1,,,,,,,,,0,,,79,0
89790,note_on,120,0,1,,,,,,,,,0,,,91,0
89790,note_on,0,0,1,,,,,,,,,0,,,83,0
89790,note_on,0,0,1,,,,,,,,,0,,,77,0
89790,note_on,0,0,1,,,,,,,,,0,,,77,101
89910,control_change,0,0,3,,,,,,,,,2,64,0,,
89910,note_on,0,0,3,,,,,,,,,2,,,38,0
89910,note_on,120,0,3,,,,,,,,,2,,,50,0
89910,note_on,0,0,1,,,,,,,,,0,,,91,101
89910,control_change,0,0,1,,,,,,,,,0,64,0,,
89910,note_on,0,0,1,,,,,,,,,0,,,83,101
89910,note_on,0,0,1,,,,,,,,,0,,,77,101
89910,note_on,0,0,1,,,,,,,,,0,,,86,0
89910,note_on,0,0,1,,,,,,,,,0,,,79,0
89910,note_on,0,0,1,,,,,,,,,0,,,77,0
89910,note_on,0,0,1,,,,,,,,,0,,,83,0
89910,note_on,120,0,1,,,,,,,,,0,,,91,0
89910,note_on,0,0,3,,,,,,,,,2,,,43,88
89910,note_on,0,0,1,,,,,,,,,0,,,79,101
89910,note_on,0,0,3,,,,,,,,,2,,,55,88
89910,note_on,0,0,1,,,,,,,,,0,,,86,101
90030,note_on,0,0,3,,,,,,,,,2,,,36,62
90030,note_on,0,0,1,,,,,,,,,0,,,77,0
90030,note_on,0,0,1,,,,,,,,,0,,,79,0
90030,note_on,0,0,1,,,,,,,,,0,,,86,0
90030,note_on,0,0,1,,,,,,,,,0,,,76,75
90030,note_on,0,0,1,,,,,,,,,0,,,79,75
90030,note_on,0,0,1,,,,,,,,,0,,,84,75
90030,note_on,0,0,1,,,,,,,,,0,,,88,75
90030,control_change,0,0,1,,,,,,,,,0,64,127,,
90030,note_on,0,0,1,,,,,,,,,0,,,83,0
90030,note_on,120,0,1,,,,,,,,,0,,,91,0
90030,note_on,120,0,3,,,,,,,,,2,,,55,0
90030,note_on,0,0,3,,,,,,,,,2,,,43,0
90030,control_change,0,0,3,,,,,,,,,2,64,127,,
90030,note_on,0,0,3,,,,,,,,,2,,,48,62
90270,note_on,0,0,1,,,,,,,,,0,,,79,0
90270,note_on,0,0,1,,,,,,,,,0,,,84,0
90270,note_on,0,0,1,,,,,,,,,0,,,64,75
90270,note_on,0,0,1,,,,,,,,,0,,,72,75
90270,note_on,0,0,1,,,,,,,,,0,,,76,75
90270,note_on,240,0,1,,,,,,,,,0,,,88,0
90270,note_on,0,0,1,,,,,,,,,0,,,76,0
90270,note_on,0,0,3,,,,,,,,,2,,,36,0
90270,note_on,240,0,3,,,,,,,,,2,,,48,0
90270,note_on,0,0,3,,,,,,,,,2,,,36,62
90270,note_on,0,0,3,,,,,,,,,2,,,48,62
90390,note_on,0,0,1,,,,,,,,,0,,,72,75
90390,note_on,0,0,1,,,,,,,,,0,,,64,75
90390,note_on,0,0,1,,,,,,,,,0,,,64,0
90390,note_on,0,0,1,,,,,,,,,0,,,72,0
90390,note_on,120,0,1,,,,,,,,,0,,,76,0
90390,note_on,120,0,3,,,,,,,,,2,,,48,0
90390,note_on,0,0,1,,,,,,,,,0,,,76,75
90390,note_on,0,0,3,,,,,,,,,2,,,36,49
90390,note_on,0,0,3,,,,,,,,,2,,,48,49
90390,note_on,0,0,3,,,,,,,,,2,,,36,0
90510,note_on,120,0,3,,,,,,,,,2,,,48,0
90510,note_on,0,0,1,,,,,,,,,0,,,76,75
90510,note_on,0,0,3,,,,,,,,,2,,,36,0
90510,note_on,0,0,3,,,,,,,,,2,,,36,49
90510,note_on,0,0,3,,,,,,,,,2,,,48,49
90510,note_on,0,0,1,,,,,,,,,0,,,72,75
90510,note_on,0,0,1,,,,,,,,,0,,,64,75
90510,note_on,0,0,1,,,,,,,,,0,,,64,0
90510,note_on,120,0,1,,,,,,,,,0,,,76,0
90510,note_on,0,0,1,,,,,,,,,0,,,72,0
90630,note_on,0,0,1,,,,,,,,,0,,,76,75
90630,control_change,0,0,1,,,,,,,,,0,64,0,,
90630,note_on,0,0,1,,,,,,,,,0,,,72,75
90630,note_on,0,0,1,,,,,,,,,0,,,64,75
90630,note_on,0,0,1,,,,,,,,,0,,,64,0
90630,note_on,0,0,3,,,,,,,,,2,,,36,49
90630,note_on,120,0,1,,,,,,,,,0,,,76,0
90630,note_on,0,0,3,,,,,,,,,2,,,48,49
90630,note_on,120,0,3,,,,,,,,,2,,,48,0
90630,note_on,0,0,3,,,,,,,,,2,,,36,0
90630,control_change,0,0,3,,,,,,,,,2,64,0,,
90630,note_on,0,0,1,,,,,,,,,0,,,72,0
90750,note_on,120,0,1,,,,,,,,,0,,,76,0
90750,note_on,0,0,1,,,,,,,,,0,,,72,0
90750,note_on,0,0,1,,,,,,,,,0,,,64,0
90750,note_on,0,0,1,,,,,,,,,0,,,64,49
90750,note_on,0,0,1,,,,,,,,,0,,,72,49
90750,note_on,0,0,1,,,,,,,,,0,,,76,49
90750,note_on,0,0,3,,,,,,,,,2,,,36,36
90750,note_on,0,0,3,,,,,,,,,2,,,48,36
90750,note_on,120,0,3,,,,,,,,,2,,,48,0
90750,note_on,0,0,3,,,,,,,,,2,,,36,0
90990,note_on,0,0,1,,,,,,,,,0,,,64,49
90990,note_on,0,0,3,,,,,,,,,2,,,48,36
90990,note_on,0,0,3,,,,,,,,,2,,,36,36
90990,note_on,0,0,3,,,,,,,,,2,,,36,0
90990,note_on,240,0,1,,,,,,,,,0,,,76,0
90990,note_on,0,0,1,,,,,,,,,0,,,64,0
90990,note_on,0,0,1,,,,,,,,,0,,,72,0
90990,note_on,0,0,1,,,,,,,,,0,,,71,49
90990,note_on,0,0,1,,,,,,,,,0,,,74,49
90990,note_on,240,0,3,,,,,,,,,2,,,48,0
91110,note_on,0,0,3,,,,,,,,,2,,,36,36
91110,note_on,0,0,1,,,,,,,,,0,,,71,0
91110,note_on,0,0,1,,,,,,,,,0,,,64,0
91110,note_on,0,0,1,,,,,,,,,0,,,64,49
91110,note_on,0,0,1,,,,,,,,,0,,,71,49
91110,note_on,0,0,1,,,,,,,,,0,,,74,49
91110,note_on,120,0,3,,,,,,,,,2,,,48,0
91110,note_on,0,0,3,,,,,,,,,2,,,36,0
91110,note_on,0,0,3,,,,,,,,,2,,,48,36
91110,note_on,120,0,1,,,,,,,,,0,,,74,0
91350,note_on,0,0,3,,,,,,,,,2,,,36,0
91350,note_on,0,0,1,,,,,,,,,0,,,72,49
91350,note_on,0,0,1,,,,,,,,,0,,,69,49
91350,note_on,0,0,1,,,,,,,,,0,,,64,49
91350,note_on,240,0,3,,,,,,,,,2,,,48,0
91350,note_on,0,0,1,,,,,,,,,0,,,71,0
91350,note_on,240,0,1,,,,,,,,,0,,,74,0
91350,note_on,0,0,1,,,,,,,,,0,,,64,0
91350,note_on,0,0,3,,,,,,,,,2,,,48,36
91350,note_on,0,0,3,,,,,,,,,2,,,36,36
91470,note_on,120,0,1,,,,,,,,,0,,,72,0
91470,note_on,0,0,3,,,,,,,,,2,,,36,36
91470,note_on,0,0,3,,,,,,,,,2,,,48,36
91470,note_on,0,0,1,,,,,,,,,0,,,69,0
91470,note_on,0,0,1,,,,,,,,,0,,,64,0
91470,note_on,0,0,3,,,,,,,,,2,,,36,0
91470,note_on,0,0,1,,,,,,,,,0,,,64,49
91470,note_on,0,0,1,,,,,,,,,0,,,72,49
91470,note_on,0,0,1,,,,,,,,,0,,,69,49
91470,note_on,120,0,3,,,,,,,,,2,,,48,0
91710,note_on,240,0,1,,,,,,,,,0,,,72,0
91710,note_on,240,0,3,,,,,,,,,2,,,48,0
91710,note_on,0,0,1,,,,,,,,,0,,,69,0
91710,note_on,0,0,1,,,,,,,,,0,,,64,0
91710,note_on,0,0,1,,,,,,,,,0,,,67,49
91710,note_on,0,0,1,,,,,,,,,0,,,71,49
91710,note_on,0,0,3,,,,,,,,,2,,,36,0
91710,note_on,0,0,3,,,,,,,,,2,,,36,36
91710,note_on,0,0,3,,,,,,,,,2,,,48,36
91830,note_on,0,0,3,,,,,,,,,2,,,48,36
91830,note_on,0,0,3,,,,,,,,,2,,,36,36
91830,note_on,0,0,3,,,,,,,,,2,,,36,0
91830,note_on,120,0,3,,,,,,,,,2,,,48,0
91830,note_on,0,0,1,,,,,,,,,0,,,71,49
91830,note_on,0,0,1,,,,,,,,,0,,,67,49
91830,note_on,120,0,1,,,,,,,,,0,,,71,0
91830,note_on,0,0,1,,,,,,,,,0,,,67,0
92070,note_on,0,0,1,,,,,,,,,0,,,66,49
92070,note_on,0,0,1,,,,,,,,,0,,,62,49
92070,note_on,0,0,1,,,,,,,,,0,,,67,0
92070,note_on,240,0,1,,,,,,,,,0,,,71,0
92070,note_on,0,0,3,,,,,,,,,2,,,36,36
92070,note_on,0,0,3,,,,,,,,,2,,,48,36
92070,note_on,0,0,1,,,,,,,,,0,,,69,49
92070,note_on,240,0,3,,,,,,,,,2,,,48,0
92070,note_on,0,0,3,,,,,,,,,2,,,36,0
92190,note_on,0,0,1,,,,,,,,,0,,,62,36
92190,note_on,0,0,1,,,,,,,,,0,,,66,36
92190,note_on,0,0,1,,,,,,,,,0,,,62,0
92190,note_on,120,0,3,,,,,,,,,2,,,48,0
92190,note_on,120,0,1,,,,,,,,,0,,,69,0
92190,note_on,0,0,3,,,,,,,,,2,,,36,0
92190,note_on,0,0,3,,,,,,,,,2,,,48,36
92190,note_on,0,0,1,,,,,,,,,0,,,66,0
92190,control_change,0,0,1,,,,,,,,,0,64,127,,
92190,note_on,0,0,1,,,,,,,,,0,,,69,36
92190,control_change,0,0,3,,,,,,,,,2,64,127,,
92190,note_on,0,0,3,,,,,,,,,2,,,36,36
92430,note_on,0,0,3,,,,,,,,,2,,,36,0
92430,note_on,0,0,1,,,,,,,,,0,,,69,36
92430,note_on,0,0,1,,,,,,,,,0,,,66,36
92430,note_on,0,0,1,,,,,,,,,0,,,62,36
92430,note_on,0,0,1,,,,,,,,,0,,,62,0
92430,note_on,0,0,1,,,,,,,,,0,,,66,0
92430,note_on,240,0,1,,,,,,,,,0,,,69,0
92430,note_on,0,0,3,,,,,,,,,2,,,36,36
92430,note_on,0,0,3,,,,,,,,,2,,,48,36
92430,note_on,240,0,3,,,,,,,,,2,,,48,0
92550,note_on,120,0,3,,,,,,,,,2,,,48,0
92550,note_on,0,0,3,,,,,,,,,2,,,36,0
92550,note_on,0,0,3,,,,,,,,,2,,,36,36
92550,note_on,0,0,3,,,,,,,,,2,,,48,36
92550,note_on,0,0,1,,,,,,,,,0,,,66,0
92550,note_on,0,0,1,,,,,,,,,0,,,62,0
92550,note_on,120,0,1,,,,,,,,,0,,,69,0
92550,note_on,0,0,1,,,,,,,,,0,,,62,36
92550,note_on,0,0,1,,,,,,,,,0,,,66,36
92550,note_on,0,0,1,,,,,,,,,0,,,69,36
92670,note_on,0,0,1,,,,,,,,,0,,,62,36
92670,note_on,0,0,3,,,,,,,,,2,,,48,36
92670,note_on,0,0,3,,,,,,,,,2,,,36,36
92670,note_on,0,0,3,,,,,,,,,2,,,36,0
92670,note_on,0,0,1,,,,,,,,,0,,,62,0
92670,note_on,0,0,1,,,,,,,,,0,,,69,36
92670,note_on,0,0,1,,,,,,,,,0,,,66,36
92670,note_on,0,0,1,,,,,,,,,0,,,66,0
92670,note_on,120,0,1,,,,,,,,,0,,,69,0
92670,note_on,120,0,3,,,,,,,,,2,,,48,0
92790,note_on,120,0,3,,,,,,,,,2,,,48,0
92790,note_on,0,0,3,,,,,,,,,2,,,36,0
92790,note_on,120,0,1,,,,,,,,,0,,,69,0
92790,note_on,0,0,3,,,,,,,,,2,,,48,36
92790,control_change,0,0,1,,,,,,,,,0,64,0,,
92790,note_on,0,0,1,,,,,,,,,0,,,69,36
92790,note_on,0,0,1,,,,,,,,,0,,,66,36
92790,note_on,0,0,1,,,,,,,,,0,,,62,36
92790,note_on,0,0,1,,,,,,,,,0,,,62,0
92790,note_on,0,0,1,,,,,,,,,0,,,66,0
92790,control_change,0,0,3,,,,,,,,,2,64,0,,
92790,note_on,0,0,3,,,,,,,,,2,,,36,36
92910,note_on,120,0,3,,,,,,,,,2,,,48,0
92910,note_on,0,0,3,,,,,,,,,2,,,36,0
92910,control_change,0,0,3,,,,,,,,,2,64,127,,
92910,note_on,0,0,3,,,,,,,,,2,,,36,36
92910,note_on,0,0,3,,,,,,,,,2,,,48,36
92910,control_change,0,0,1,,,,,,,,,0,64,127,,
92910,note_on,0,0,1,,,,,,,,,0,,,62,36
92910,note_on,120,0,1,,,,,,,,,0,,,69,0
92910,note_on,0,0,1,,,,,,,,,0,,,66,0
92910,note_on,0,0,1,,,,,,,,,0,,,62,0
92910,note_on,0,0,1,,,,,,,,,0,,,66,36
92910,note_on,0,0,1,,,,,,,,,0,,,69,36
93150,note_on,0,0,3,,,,,,,,,2,,,36,0
93150,note_on,240,0,3,,,,,,,,,2,,,48,0
93150,note_on,240,0,1,,,,,,,,,0,,,69,0
93150,note_on,0,0,1,,,,,,,,,0,,,66,0
93150,note_on,0,0,1,,,,,,,,,0,,,62,0
93150,note_on,0,0,1,,,,,,,,,0,,,62,36
93150,note_on,0,0,1,,,,,,,,,0,,,66,36
93150,note_on,0,0,1,,,,,,,,,0,,,69,36
93150,note_on,0,0,3,,,,,,,,,2,,,48,36
93150,note_on,0,0,3,,,,,,,,,2,,,36,36
93270,note_on,0,0,1,,,,,,,,,0,,,66,0
93270,note_on,0,0,1,,,,,,,,,0,,,62,0
93270,note_on,0,0,1,,,,,,,,,0,,,62,36
93270,note_on,0,0,1,,,,,,,,,0,,,66,36
93270,note_on,0,0,1,,,,,,,,,0,,,69,36
93270,note_on,0,0,3,,,,,,,,,2,,,36,0
93270,note_on,0,0,3,,,,,,,,,2,,,36,36
93270,note_on,0,0,3,,,,,,,,,2,,,48,36
93270,note_on,120,0,3,,,,,,,,,2,,,48,0
93270,note_on,120,0,1,,,,,,,,,0,,,69,0
93390,note_on,120,0,3,,,,,,,,,2,,,48,0
93390,note_on,0,0,3,,,,,,,,,2,,,36,0
93390,note_on,0,0,3,,,,,,,,,2,,,36,36
93390,note_on,0,0,3,,,,,,,,,2,,,48,36
93390,note_on,0,0,1,,,,,,,,,0,,,69,36
93390,note_on,120,0,1,,,,,,,,,0,,,69,0
93390,note_on,0,0,1,,,,,,,,,0,,,66,0
93390,note_on,0,0,1,,,,,,,,,0,,,62,0
93390,note_on,0,0,1,,,,,,,,,0,,,62,36
93390,note_on,0,0,1,,,,,,,,,0,,,66,36
93510,note_on,0,0,1,,,,,,,,,0,,,62,0
93510,control_change,0,0,1,,,,,,,,,0,64,0,,
93510,note_on,0,0,1,,,,,,,,,0,,,69,36
93510,note_on,0,0,3,,,,,,,,,2,,,48,36
93510,note_on,0,0,3,,,,,,,,,2,,,36,36
93510,note_on,0,0,3,,,,,,,,,2,,,36,0
93510,note_on,120,0,1,,,,,,,,,0,,,69,0
93510,note_on,120,0,3,,,,,,,,,2,,,48,0
93510,note_on,0,0,1,,,,,,,,,0,,,62,36
93510,note_on,0,0,1,,,,,,,,,0,,,66,36
93510,control_change,0,0,3,,,,,,,,,2,64,0,,
93510,note_on,0,0,1,,,,,,,,,0,,,66,0
93630,note_on,120,0,1,,,,,,,,,0,,,69,0
93630,note_on,0,0,1,,,,,,,,,0,,,62,0
93630,control_change,0,0,3,,,,,,,,,2,64,127,,
93630,note_on,0,0,3,,,,,,,,,2,,,35,36
93630,note_on,0,0,1,,,,,,,,,0,,,66,0
93630,note_on,0,0,3,,,,,,,,,2,,,47,36
93630,note_on,0,0,3,,,,,,,,,2,,,36,0
93630,note_on,120,0,3,,,,,,,,,2,,,48,0
93630,note_on,0,0,1,,,,,,,,,0,,,63,36
93630,control_change,0,0,1,,,,,,,,,0,64,127,,
93630,note_on,0,0,1,,,,,,,,,0,,,71,36
93630,note_on,0,0,1,,,,,,,,,0,,,66,36
93870,note_on,0,0,3,,,,,,,,,2,,,47,36
93870,note_on,0,0,3,,,,,,,,,2,,,35,0
93870,note_on,240,0,3,,,,,,,,,2,,,47,0
93870,note_on,0,0,1,,,,,,,,,0,,,66,0
93870,note_on,240,0,1,,,,,,,,,0,,,71,0
93870,note_on,0,0,1,,,,,,,,,0,,,63,0
93870,note_on,0,0,1,,,,,,,,,0,,,71,36
93870,note_on,0,0,1,,,,,,,,,0,,,66,36
93870,note_on,0,0,1,,,,,,,,,0,,,63,36
93990,note_on,120,0,3,,,,,,,,,2,,,47,0
93990,note_on,0,0,1,,,,,,,,,0,,,66,36
93990,note_on,0,0,1,,,,,,,,,0,,,63,36
93990,note_on,0,0,1,,,,,,,,,0,,,63,0
93990,note_on,0,0,1,,,,,,,,,0,,,66,0
93990,note_on,120,0,1,,,,,,,,,0,,,71,0
93990,note_on,0,0,1,,,,,,,,,0,,,71,36
93990,note_on,0,0,3,,,,,,,,,2,,,47,36
94110,note_on,0,0,1,,,,,,,,,0,,,71,36
94110,note_on,0,0,3,,,,,,,,,2,,,47,36
94110,note_on,0,0,1,,,,,,,,,0,,,66,36
94110,note_on,0,0,1,,,,,,,,,0,,,63,36
94110,note_on,0,0,1,,,,,,,,,0,,,63,0
94110,note_on,120,0,1,,,,,,,,,0,,,71,0
94110,note_on,120,0,3,,,,,,,,,2,,,47,0
94110,note_on,0,0,1,,,,,,,,,0,,,66,0
94230,note_on,120,0,3,,,,,,,,,2,,,47,0
94230,control_change,0,0,3,,,,,,,,,2,64,0,,
94230,note_on,0,0,1,,,,,,,,,0,,,63,36
94230,control_change,0,0,1,,,,,,,,,0,64,0,,
94230,note_on,0,0,1,,,,,,,,,0,,,71,36
94230,note_on,0,0,1,,,,,,,,,0,,,66,36
94230,note_on,0,0,3,,,,,,,,,2,,,45,36
94230,note_on,0,0,1,,,,,,,,,0,,,63,0
94230,note_on,0,0,1,,,,,,,,,0,,,66,0
94230,note_on,120,0,1,,,,,,,,,0,,,71,0
94230,note_on,0,0,3,,,,,,,,,2,,,47,36
94350,note_on,0,0,3,,,,,,,,,2,,,45,0
94350,control_change,0,0,3,,,,,,,,,2,64,127,,
94350,note_on,0,0,3,,,,,,,,,2,,,43,36
94350,note_on,0,0,3,,,,,,,,,2,,,47,36
94350,note_on,0,0,3,,,,,,,,,2,,,55,36
94350,note_on,120,0,3,,,,,,,,,2,,,47,0
94350,note_on,0,0,1,,,,,,,,,0,,,63,0
94350,note_on,0,0,1,,,,,,,,,0,,,71,49
94350,note_on,0,0,1,,,,,,,,,0,,,67,49
94350,note_on,0,0,1,,,,,,,,,0,,,62,49
94350,note_on,0,0,1,,,,,,,,,0,,,66,0
94350,note_on,120,0,1,,,,,,,,,0,,,71,0
94350,control_change,0,0,1,,,,,,,,,0,64,127,,
94470,note_on,0,0,3,,,,,,,,,2,,,50,36
94470,note_on,120,0,3,,,,,,,,,2,,,55,0
94470,note_on,0,0,3,,,,,,,,,2,,,47,0
94470,note_on,0,0,3,,,,,,,,,2,,,43,0
94470,note_on,0,0,3,,,,,,,,,2,,,60,36
94470,note_on,0,0,3,,,,,,,,,2,,,48,36
94470,note_on,120,0,1,,,,,,,,,0,,,71,0
94470,note_on,0,0,1,,,,,,,,,0,,,67,0
94470,note_on,0,0,1,,,,,,,,,0,,,62,0
94470,note_on,0,0,1,,,,,,,,,0,,,64,49
94470,note_on,0,0,1,,,,,,,,,0,,,67,49
94470,note_on,0,0,1,,,,,,,,,0,,,76,49
94590,note_on,0,0,3,,,,,,,,,2,,,48,0
94590,note_on,120,0,1,,,,,,,,,0,,,76,0
94590,note_on,120,0,3,,,,,,,,,2,,,60,0
94590,note_on,0,0,3,,,,,,,,,2,,,50,0
94590,note_on,0,0,1,,,,,,,,,0,,,62,49
94590,note_on,0,0,3,,,,,,,,,2,,,47,36
94590,note_on,0,0,3,,,,,,,,,2,,,50,36
94590,note_on,0,0,1,,,,,,,,,0,,,74,49
94590,note_on,0,0,1,,,,,,,,,0,,,67,49
94590,note_on,0,0,1,,,,,,,,,0,,,67,0
94590,note_on,0,0,3,,,,,,,,,2,,,59,36
94590,note_on,0,0,1,,,,,,,,,0,,,64,0
94710,note_on,120,0,1,,,,,,,,,0,,,74,0
94710,note_on,0,0,1,,,,,,,,,0,,,67,0
94710,note_on,0,0,1,,,,,,,,,0,,,74,36
94710,note_on,0,0,1,,,,,,,,,0,,,67,36
94710,note_on,0,0,1,,,,,,,,,0,,,62,0
94710,note_on,120,0,3,,,,,,,,,2,,,59,0
94710,note_on,0,0,3,,,,,,,,,2,,,50,0
94710,note_on,0,0,3,,,,,,,,,2,,,47,0
94710,note_on,0,0,3,,,,,,,,,2,,,47,36
94710,note_on,0,0,3,,,,,,,,,2,,,50,36
94710,note_on,0,0,3,,,,,,,,,2,,,59,36
94710,note_on,0,0,1,,,,,,,,,0,,,62,36
94830,note_on,0,0,3,,,,,,,,,2,,,59,36
94830,note_on,0,0,1,,,,,,,,,0,,,67,36
94830,note_on,0,0,1,,,,,,,,,0,,,62,0
94830,note_on,0,0,1,,,,,,,,,0,,,62,36
94830,note_on,0,0,1,,,,,,,,,0,,,74,36
94830,note_on,120,0,3,,,,,,,,,2,,,59,0
94830,note_on,0,0,3,,,,,,,,,2,,,50,0
94830,note_on,0,0,3,,,,,,,,,2,,,47,0
94830,note_on,0,0,3,,,,,,,,,2,,,47,36
94830,note_on,0,0,3,,,,,,,,,2,,,50,36
94830,note_on,120,0,1,,,,,,,,,0,,,74,0
94830,note_on,0,0,1,,,,,,,,,0,,,67,0
94950,note_on,0,0,1,,,,,,,,,0,,,62,0
94950,control_change,0,0,1,,,,,,,,,0,64,0,,
94950,note_on,0,0,1,,,,,,,,,0,,,74,36
94950,note_on,0,0,1,,,,,,,,,0,,,67,36
94950,note_on,0,0,1,,,,,,,,,0,,,62,36
94950,note_on,120,0,1,,,,,,,,,0,,,74,0
94950,note_on,0,0,3,,,,,,,,,2,,,50,36
94950,note_on,120,0,3,,,,,,,,,2,,,59,0
94950,note_on,0,0,3,,,,,,,,,2,,,50,0
94950,note_on,0,0,3,,,,,,,,,2,,,47,0
94950,control_change,0,0,3,,,,,,,,,2,64,0,,
94950,note_on,0,0,3,,,,,,,,,2,,,47,36
94950,note_on,0,0,1,,,,,,,,,0,,,67,0
94950,note_on,0,0,3,,,,,,,,,2,,,59,36
95070,note_on,120,0,3,,,,,,,,,2,,,59,0
95070,note_on,0,0,3,,,,,,,,,2,,,50,0
95070,note_on,0,0,3,,,,,,,,,2,,,47,0
95070,control_change,0,0,3,,,,,,,,,2,64,127,,
95070,note_on,0,0,3,,,,,,,,,2,,,47,52
95070,note_on,0,0,3,,,,,,,,,2,,,50,57
95070,note_on,0,0,3,,,,,,,,,2,,,59,62
95070,control_change,0,0,1,,,,,,,,,0,64,127,,
95070,note_on,0,0,1,,,,,,,,,0,,,74,62
95070,note_on,0,0,1,,,,,,,,,0,,,67,57
95070,note_on,0,0,1,,,,,,,,,0,,,62,52
95070,note_on,0,0,1,,,,,,,,,0,,,62,0
95070,note_on,0,0,1,,,,,,,,,0,,,67,0
95070,note_on,120,0,1,,,,,,,,,0,,,74,0
95190,note_on,0,0,1,,,,,,,,,0,,,69,36
95190,note_on,0,0,3,,,,,,,,,2,,,54,36
95190,note_on,0,0,1,,,,,,,,,0,,,62,0
95190,note_on,0,0,3,,,,,,,,,2,,,42,36
95190,note_on,0,0,3,,,,,,,,,2,,,47,0
95190,note_on,0,0,3,,,,,,,,,2,,,50,0
95190,note_on,120,0,3,,,,,,,,,2,,,59,0
95190,note_on,0,0,1,,,,,,,,,0,,,67,0
95190,note_on,120,0,1,,,,,,,,,0,,,74,0
95190,note_on,0,0,1,,,,,,,,,0,,,57,36
95190,note_on,0,0,1,,,,,,,,,0,,,62,36
95190,note_on,0,0,3,,,,,,,,,2,,,50,36
95310,control_change,0,0,3,,,,,,,,,2,64,0,,
95310,note_on,120,0,3,,,,,,,,,2,,,54,0
95310,note_on,0,0,3,,,,,,,,,2,,,45,36
95310,control_change,0,0,1,,,,,,,,,0,64,0,,
95310,note_on,0,0,1,,,,,,,,,0,,,72,36
95310,note_on,0,0,1,,,,,,,,,0,,,62,36
95310,note_on,0,0,1,,,,,,,,,0,,,60,36
95310,note_on,0,0,3,,,,,,,,,2,,,50,0
95310,note_on,0,0,1,,,,,,,,,0,,,57,0
95310,note_on,120,0,1,,,,,,,,,0,,,69,0
95310,note_on,0,0,3,,,,,,,,,2,,,57,36
95310,note_on,0,0,3,,,,,,,,,2,,,50,36
95310,note_on,0,0,1,,,,,,,,,0,,,62,0
95310,note_on,0,0,3,,,,,,,,,2,,,42,0
95430,control_change,0,0,3,,,,,,,,,2,64,127,,
95430,note_on,0,0,3,,,,,,,,,2,,,45,0
95430,note_on,0,0,3,,,,,,,,,2,,,50,0
95430,note_on,0,0,3,,,,,,,,,2,,,45,36
95430,note_on,120,0,3,,,,,,,,,2,,,57,0
95430,note_on,0,0,3,,,,,,,,,2,,,50,36
95430,note_on,120,0,1,,,,,,,,,0,,,72,0
95430,note_on,0,0,1,,,,,,,,,0,,,62,0
95430,control_change,0,0,1,,,,,,,,,0,64,127,,
95430,note_on,0,0,1,,,,,,,,,0,,,72,36
95430,note_on,0,0,1,,,,,,,,,0,,,62,36
95430,note_on,0,0,1,,,,,,,,,0,,,60,36
95430,note_on,0,0,1,,,,,,,,,0,,,60,0
95430,note_on,0,0,3,,,,,,,,,2,,,57,36
95550,note_on,0,0,1,,,,,,,,,0,,,62,0
95550,note_on,0,0,1,,,,,,,,,0,,,59,36
95550,note_on,0,0,1,,,,,,,,,0,,,60,0
95550,note_on,120,0,3,,,,,,,,,2,,,57,0
95550,note_on,0,0,3,,,,,,,,,2,,,45,0
95550,note_on,0,0,3,,,,,,,,,2,,,43,36
95550,note_on,0,0,3,,,,,,,,,2,,,50,36
95550,note_on,0,0,3,,,,,,,,,2,,,55,36
95550,note_on,120,0,1,,,,,,,,,0,,,72,0
95550,note_on,0,0,1,,,,,,,,,0,,,62,36
95550,note_on,0,0,1,,,,,,,,,0,,,71,36
95550,note_on,0,0,3,,,,,,,,,2,,,50,0
95670,note_on,0,0,1,,,,,,,,,0,,,62,0
95670,note_on,0,0,3,,,,,,,,,2,,,43,0
95670,control_change,0,0,3,,,,,,,,,2,64,0,,
95670,note_on,0,0,3,,,,,,,,,2,,,42,36
95670,note_on,0,0,3,,,,,,,,,2,,,50,36
95670,note_on,0,0,3,,,,,,,,,2,,,54,36
95670,note_on,0,0,3,,,,,,,,,2,,,50,0
95670,note_on,120,0,1,,,,,,,,,0,,,71,0
95670,note_on,120,0,3,,,,,,,,,2,,,55,0
95670,control_change,0,0,1,,,,,,,,,0,64,0,,
95670,note_on,0,0,1,,,,,,,,,0,,,69,36
95670,note_on,0,0,1,,,,,,,,,0,,,62,36
95670,note_on,0,0,1,,,,,,,,,0,,,57,36
95670,note_on,0,0,1,,,,,,,,,0,,,59,0
95790,note_on,0,0,3,,,,,,,,,2,,,54,62
95790,note_on,0,0,3,,,,,,,,,2,,,50,57
95790,note_on,0,0,1,,,,,,,,,0,,,69,62
95790,control_change,0,0,3,,,,,,,,,2,64,127,,
95790,note_on,0,0,3,,,,,,,,,2,,,42,0
95790,note_on,0,0,3,,,,,,,,,2,,,50,0
95790,note_on,120,0,3,,,,,,,,,2,,,54,0
95790,control_change,0,0,1,,,,,,,,,0,64,127,,
95790,note_on,0,0,3,,,,,,,,,2,,,42,52
95790,note_on,0,0,1,,,,,,,,,0,,,62,57
95790,note_on,0,0,1,,,,,,,,,0,,,57,0
95790,note_on,120,0,1,,,,,,,,,0,,,69,0
95790,note_on,0,0,1,,,,,,,,,0,,,62,0
95790,note_on,0,0,1,,,,,,,,,0,,,57,52
95910,note_on,0,0,3,,,,,,,,,2,,,55,36
95910,note_on,0,0,3,,,,,,,,,2,,,50,36
95910,note_on,0,0,3,,,,,,,,,2,,,43,36
95910,note_on,0,0,3,,,,,,,,,2,,,42,0
95910,note_on,120,0,3,,,,,,,,,2,,,54,0
95910,note_on,0,0,3,,,,,,,,,2,,,50,0
95910,note_on,0,0,1,,,,,,,,,0,,,62,36
95910,note_on,0,0,1,,,,,,,,,0,,,59,36
95910,note_on,0,0,1,,,,,,,,,0,,,57,0
95910,note_on,0,0,1,,,,,,,,,0,,,62,0
95910,note_on,120,0,1,,,,,,,,,0,,,69,0
95910,note_on,0,0,1,,,,,,,,,0,,,71,36
96030,note_on,120,0,1,,,,,,,,,0,,,71,0
96030,note_on,0,0,1,,,,,,,,,0,,,71,36
96030,note_on,0,0,1,,,,,,,,,0,,,62,36
96030,control_change,0,0,1,,,,,,,,,0,64,0,,
96030,note_on,0,0,3,,,,,,,,,2,,,55,36
96030,note_on,0,0,3,,,,,,,,,2,,,50,36
96030,note_on,0,0,3,,,,,,,,,2,,,43,36
96030,note_on,120,0,3,,,,,,,,,2,,,55,0
96030,note_on,0,0,3,,,,,,,,,2,,,43,0
96030,note_on,0,0,3,,,,,,,,,2,,,50,0
96030,note_on,0,0,1,,,,,,,,,0,,,59,36
96030,note_on,0,0,1,,,,,,,,,0,,,59,0
96030,note_on,0,0,1,,,,,,,,,0,,,62,0
96030,control_change,0,0,3,,,,,,,,,2,64,0,,
96150,note_on,0,0,3,,,,,,,,,2,,,55,36
96150,note_on,0,0,3,,,,,,,,,2,,,50,36
96150,note_on,120,0,1,,,,,,,,,0,,,71,0
96150,control_change,0,0,3,,,,,,,,,2,64,127,,
96150,note_on,0,0,1,,,,,,,,,0,,,62,0
96150,note_on,0,0,1,,,,,,,,,0,,,59,0
96150,note_on,0,0,1,,,,,,,,,0,,,59,36
96150,note_on,0,0,1,,,,,,,,,0,,,62,36
96150,note_on,0,0,1,,,,,,,,,0,,,71,36
96150,control_change,0,0,1,,,,,,,,,0,64,127,,
96150,note_on,0,0,3,,,,,,,,,2,,,43,36
96150,note_on,120,0,3,,,,,,,,,2,,,55,0
96150,note_on,0,0,3,,,,,,,,,2,,,50,0
96150,note_on,0,0,3,,,,,,,,,2,,,43,0
96270,note_on,0,0,1,,,,,,,,,0,,,67,36
96270,note_on,0,0,1,,,,,,,,,0,,,59,0
96270,note_on,0,0,1,,,,,,,,,0,,,62,0
96270,note_on,120,0,1,,,,,,,,,0,,,71,0
96270,note_on,0,0,3,,,,,,,,,2,,,55,36
96270,note_on,0,0,3,,,,,,,,,2,,,43,36
96270,note_on,0,0,3,,,,,,,,,2,,,43,0
96270,note_on,0,0,3,,,,,,,,,2,,,50,0
96270,note_on,120,0,3,,,,,,,,,2,,,55,0
96270,note_on,0,0,1,,,,,,,,,0,,,71,36
96270,note_on,0,0,1,,,,,,,,,0,,,59,36
96270,note_on,0,0,3,,,,,,,,,2,,,50,36
96390,note_on,0,0,1,,,,,,,,,0,,,60,36
96390,note_on,0,0,1,,,,,,,,,0,,,67,36
96390,note_on,120,0,3,,,,,,,,,2,,,55,0
96390,note_on,0,0,1,,,,,,,,,0,,,59,0
96390,note_on,0,0,3,,,,,,,,,2,,,50,36
96390,note_on,0,0,3,,,,,,,,,2,,,57,36
96390,note_on,0,0,1,,,,,,,,,0,,,72,36
96390,control_change,0,0,1,,,,,,,,,0,64,0,,
96390,note_on,0,0,3,,,,,,,,,2,,,45,36
96390,control_change,0,0,3,,,,,,,,,2,64,0,,
96390,note_on,0,0,3,,,,,,,,,2,,,43,0
96390,note_on,0,0,3,,,,,,,,,2,,,50,0
96390,note_on,0,0,1,,,,,,,,,0,,,67,0
96390,note_on,120,0,1,,,,,,,,,0,,,71,0
96510,note_on,0,0,1,,,,,,,,,0,,,74,88
96510,note_on,0,0,1,,,,,,,,,0,,,62,88
96510,note_on,0,0,1,,,,,,,,,0,,,60,0
96510,note_on,0,0,1,,,,,,,,,0,,,67,0
96510,control_change,0,0,1,,,,,,,,,0,64,127,,
96510,note_on,0,0,1,,,,,,,,,0,,,67,88
96510,note_on,0,0,3,,,,,,,,,2,,,50,75
96510,note_on,120,0,3,,,,,,,,,2,,,57,0
96510,note_on,0,0,3,,,,,,,,,2,,,50,0
96510,note_on,0,0,3,,,,,,,,,2,,,45,0
96510,control_change,0,0,3,,,,,,,,,2,64,127,,
96510,note_on,0,0,3,,,,,,,,,2,,,47,75
96510,note_on,0,0,3,,,,,,,,,2,,,59,75
96510,note_on,120,0,1,,,,,,,,,0,,,72,0
96750,note_on,240,0,3,,,,,,,,,2,,,59,0
96750,note_on,0,0,3,,,,,,,,,2,,,59,36
96750,note_on,0,0,3,,,,,,,,,2,,,50,36
96750,note_on,0,0,3,,,,,,,,,2,,,47,36
96750,note_on,0,0,3,,,,,,,,,2,,,47,0
96750,note_on,0,0,3,,,,,,,,,2,,,50,0
96750,note_on,240,0,1,,,,,,,,,0,,,74,0
96750,note_on,0,0,1,,,,,,,,,0,,,67,0
96750,note_on,0,0,1,,,,,,,,,0,,,62,0
96750,note_on,0,0,1,,,,,,,,,0,,,62,49
96750,note_on,0,0,1,,,,,,,,,0,,,67,49
96750,note_on,0,0,1,,,,,,,,,0,,,74,49
96870,note_on,0,0,1,,,,,,,,,0,,,67,0
96870,note_on,120,0,1,,,,,,,,,0,,,74,0
96870,note_on,0,0,3,,,,,,,,,2,,,59,36
96870,note_on,0,0,3,,,,,,,,,2,,,50,36
96870,note_on,0,0,3,,,,,,,,,2,,,47,36
96870,note_on,0,0,3,,,,,,,,,2,,,50,0
96870,note_on,120,0,3,,,,,,,,,2,,,59,0
96870,note_on,0,0,3,,,,,,,,,2,,,47,0
96870,note_on,0,0,1,,,,,,,,,0,,,62,0
96870,note_on,0,0,1,,,,,,,,,0,,,62,49
96870,note_on,0,0,1,,,,,,,,,0,,,67,49
96870,note_on,0,0,1,,,,,,,,,0,,,74,49
96990,note_on,0,0,3,,,,,,,,,2,,,45,36
96990,note_on,0,0,1,,,,,,,,,0,,,60,49
96990,note_on,0,0,1,,,,,,,,,0,,,62,0
96990,note_on,120,0,3,,,,,,,,,2,,,59,0
96990,note_on,0,0,3,,,,,,,,,2,,,50,0
96990,note_on,0,0,3,,,,,,,,,2,,,47,0
96990,note_on,0,0,3,,,,,,,,,2,,,50,36
96990,note_on,0,0,3,,,,,,,,,2,,,57,36
96990,note_on,0,0,1,,,,,,,,,0,,,72,49
96990,note_on,0,0,1,,,,,,,,,0,,,67,49
96990,note_on,0,0,1,,,,,,,,,0,,,67,0
96990,note_on,120,0,1,,,,,,,,,0,,,74,0
97110,note_on,120,0,3,,,,,,,,,2,,,57,0
97110,control_change,0,0,3,,,,,,,,,2,64,0,,
97110,note_on,0,0,1,,,,,,,,,0,,,60,0
97110,note_on,0,0,3,,,,,,,,,2,,,43,36
97110,note_on,0,0,3,,,,,,,,,2,,,50,36
97110,note_on,0,0,3,,,,,,,,,2,,,55,36
97110,note_on,0,0,3,,,,,,,,,2,,,50,0
97110,note_on,0,0,3,,,,,,,,,2,,,45,0
97110,note_on,0,0,1,,,,,,,,,0,,,59,49
97110,note_on,0,0,1,,,,,,,,,0,,,67,0
97110,note_on,0,0,1,,,,,,,,,0,,,67,49
97110,note_on,0,0,1,,,,,,,,,0,,,71,49
97110,note_on,120,0,1,,,,,,,,,0,,,72,0
97110,control_change,0,0,1,,,,,,,,,0,64,0,,
97230,control_change,0,0,1,,,,,,,,,0,64,127,,
97230,note_on,0,0,3,,,,,,,,,2,,,43,0
97230,note_on,120,0,1,,,,,,,,,0,,,71,0
97230,note_on,0,0,1,,,,,,,,,0,,,67,0
97230,note_on,0,0,1,,,,,,,,,0,,,59,0
97230,note_on,0,0,1,,,,,,,,,0,,,62,75
97230,note_on,0,0,1,,,,,,,,,0,,,67,75
97230,note_on,0,0,1,,,,,,,,,0,,,74,75
97230,note_on,0,0,3,,,,,,,,,2,,,50,0
97230,note_on,120,0,3,,,,,,,,,2,,,55,0
97230,note_on,0,0,3,,,,,,,,,2,,,47,62
97230,note_on,0,0,3,,,,,,,,,2,,,55,62
97230,note_on,0,0,3,,,,,,,,,2,,,59,62
97230,control_change,0,0,3,,,,,,,,,2,64,127,,
97350,note_on,120,0,3,,,,,,,,,2,,,59,0
97350,note_on,0,0,3,,,,,,,,,2,,,62,62
97350,note_on,0,0,3,,,,,,,,,2,,,59,62
97350,note_on,0,0,3,,,,,,,,,2,,,50,62
97350,note_on,0,0,3,,,,,,,,,2,,,47,0
97350,note_on,0,0,3,,,,,,,,,2,,,55,0
97350,note_on,120,0,1,,,,,,,,,0,,,74,0
97350,note_on,0,0,1,,,,,,,,,0,,,67,0
97350,note_on,0,0,1,,,,,,,,,0,,,62,0
97350,note_on,0,0,1,,,,,,,,,0,,,67,75
97350,note_on,0,0,1,,,,,,,,,0,,,71,75
97350,note_on,0,0,1,,,,,,,,,0,,,79,75
97470,note_on,0,0,1,,,,,,,,,0,,,83,75
97470,note_on,0,0,1,,,,,,,,,0,,,71,0
97470,note_on,120,0,1,,,,,,,,,0,,,79,0
97470,note_on,120,0,3,,,,,,,,,2,,,62,0
97470,note_on,0,0,3,,,,,,,,,2,,,59,0
97470,note_on,0,0,3,,,,,,,,,2,,,62,62
97470,note_on,0,0,3,,,,,,,,,2,,,55,62
97470,note_on,0,0,1,,,,,,,,,0,,,71,75
97470,note_on,0,0,3,,,,,,,,,2,,,67,62
97470,note_on,0,0,1,,,,,,,,,0,,,74,75
97470,note_on,0,0,3,,,,,,,,,2,,,50,0
97470,note_on,0,0,1,,,,,,,,,0,,,67,0
97590,note_on,0,0,1,,,,,,,,,0,,,71,0
97590,note_on,0,0,3,,,,,,,,,2,,,67,88
97590,note_on,0,0,3,,,,,,,,,2,,,62,88
97590,note_on,0,0,3,,,,,,,,,2,,,55,88
97590,note_on,0,0,3,,,,,,,,,2,,,55,0
97590,note_on,0,0,3,,,,,,,,,2,,,62,0
97590,note_on,120,0,3,,,,,,,,,2,,,67,0
97590,note_on,0,0,1,,,,,,,,,0,,,83,101
97590,note_on,0,0,1,,,,,,,,,0,,,74,101
97590,note_on,120,0,1,,,,,,,,,0,,,83,0
97590,note_on,0,0,1,,,,,,,,,0,,,74,0
97590,note_on,0,0,1,,,,,,,,,0,,,71,101
97710,note_on,0,0,3,,,,,,,,,2,,,62,0
97710,note_on,120,0,1,,,,,,,,,0,,,83,0
97710,note_on,0,0,3,,,,,,,,,2,,,62,88
97710,note_on,0,0,1,,,,,,,,,0,,,74,0
97710,note_on,0,0,3,,,,,,,,,2,,,67,88
97710,note_on,0,0,3,,,,,,,,,2,,,55,88
97710,note_on,0,0,1,,,,,,,,,0,,,71,0
97710,note_on,0,0,1,,,,,,,,,0,,,83,101
97710,note_on,0,0,1,,,,,,,,,0,,,74,101
97710,note_on,0,0,3,,,,,,,,,2,,,55,0
97710,note_on,120,0,3,,,,,,,,,2,,,67,0
97710,note_on,0,0,1,,,,,,,,,0,,,71,101
97830,note_on,120,0,1,,,,,,,,,0,,,83,0
97830,note_on,0,0,1,,,,,,,,,0,,,74,0
97830,note_on,0,0,1,,,,,,,,,0,,,71,0
97830,note_on,0,0,1,,,,,,,,,0,,,71,101
97830,note_on,0,0,1,,,,,,,,,0,,,74,101
97830,note_on,0,0,1,,,,,,,,,0,,,83,101
97830,control_change,0,0,1,,,,,,,,,0,64,0,,
97830,control_change,0,0,3,,,,,,,,,2,64,0,,
97830,note_on,0,0,3,,,,,,,,,2,,,55,0
97830,note_on,0,0,3,,,,,,,,,2,,,62,0
97830,note_on,120,0,3,,,,,,,,,2,,,67,0
97830,note_on,0,0,3,,,,,,,,,2,,,55,88
97830,note_on,0,0,3,,,,,,,,,2,,,62,88
97830,note_on,0,0,3,,,,,,,,,2,,,67,88
97950,note_on,0,0,3,,,,,,,,,2,,,54,101
97950,note_on,0,0,1,,,,,,,,,0,,,71,0
97950,note_on,0,0,1,,,,,,,,,0,,,74,0
97950,note_on,120,0,1,,,,,,,,,0,,,83,0
97950,note_on,0,0,3,,,,,,,,,2,,,66,101
97950,note_on,0,0,3,,,,,,,,,2,,,63,101
97950,note_on,0,0,3,,,,,,,,,2,,,55,0
97950,control_change,0,0,3,,,,,,,,,2,64,127,,
97950,note_on,0,0,1,,,,,,,,,0,,,71,114
97950,note_on,0,0,3,,,,,,,,,2,,,62,0
97950,note_on,120,0,3,,,,,,,,,2,,,67,0
97950,control_change,0,0,1,,,,,,,,,0,64,127,,
97950,note_on,0,0,1,,,,,,,,,0,,,83,114
97950,note_on,0,0,1,,,,,,,,,0,,,75,114
98070,note_on,0,0,3,,,,,,,,,2,,,54,101
98070,note_on,0,0,3,,,,,,,,,2,,,54,0
98070,note_on,120,0,1,,,,,,,,,0,,,83,0
98070,note_on,0,0,1,,,,,,,,,0,,,75,0
98070,note_on,120,0,3,,,,,,,,,2,,,66,0
98070,note_on,0,0,1,,,,,,,,,0,,,71,114
98070,note_on,0,0,1,,,,,,,,,0,,,75,114
98070,note_on,0,0,1,,,,,,,,,0,,,83,114
98070,note_on,0,0,3,,,,,,,,,2,,,63,0
98070,note_on,0,0,3,,,,,,,,,2,,,66,101
98070,note_on,0,0,3,,,,,,,,,2,,,63,101
98070,note_on,0,0,1,,,,,,,,,0,,,71,0
98190,note_on,120,0,1,,,,,,,,,0,,,83,0
98190,note_on,0,0,1,,,,,,,,,0,,,71,0
98190,note_on,0,0,1,,,,,,,,,0,,,71,101
98190,note_on,0,0,1,,,,,,,,,0,,,83,101
98190,note_on,0,0,1,,,,,,,,,0,,,75,0
98190,note_on,0,0,1,,,,,,,,,0,,,75,101
98190,note_on,0,0,3,,,,,,,,,2,,,66,88
98190,note_on,0,0,3,,,,,,,,,2,,,63,88
98190,note_on,120,0,3,,,,,,,,,2,,,66,0
98190,note_on,0,0,3,,,,,,,,,2,,,54,88
98190,note_on,0,0,3,,,,,,,,,2,,,54,0
98190,note_on,0,0,3,,,,,,,,,2,,,63,0
98310,note_on,0,0,1,,,,,,,,,0,,,75,88
98310,note_on,0,0,3,,,,,,,,,2,,,63,0
98310,note_on,120,0,3,,,,,,,,,2,,,66,0
98310,note_on,0,0,3,,,,,,,,,2,,,63,75
98310,note_on,0,0,3,,,,,,,,,2,,,66,75
98310,note_on,0,0,3,,,,,,,,,2,,,54,0
98310,note_on,0,0,3,,,,,,,,,2,,,54,75
98310,note_on,120,0,1,,,,,,,,,0,,,83,0
98310,note_on,0,0,1,,,,,,,,,0,,,75,0
98310,note_on,0,0,1,,,,,,,,,0,,,71,0
98310,note_on,0,0,1,,,,,,,,,0,,,71,88
98310,note_on,0,0,1,,,,,,,,,0,,,83,88
98430,note_on,0,0,3,,,,,,,,,2,,,66,62
98430,note_on,120,0,1,,,,,,,,,0,,,83,0
98430,note_on,0,0,1,,,,,,,,,0,,,83,75
98430,note_on,0,0,1,,,,,,,,,0,,,75,0
98430,note_on,0,0,1,,,,,,,,,0,,,71,75
98430,note_on,120,0,3,,,,,,,,,2,,,66,0
98430,note_on,0,0,3,,,,,,,,,2,,,63,0
98430,note_on,0,0,3,,,,,,,,,2,,,54,0
98430,note_on,0,0,3,,,,,,,,,2,,,54,62
98430,note_on,0,0,1,,,,,,,,,0,,,75,75
98430,note_on,0,0,1,,,,,,,,,0,,,71,0
98430,note_on,0,0,3,,,,,,,,,2,,,63,62
98550,control_change,0,0,1,,,,,,,,,0,64,0,,
98550,note_on,120,0,3,,,,,,,,,2,,,66,0
98550,note_on,0,0,1,,,,,,,,,0,,,83,62
98550,note_on,0,0,1,,,,,,,,,0,,,75,62
98550,note_on,0,0,1,,,,,,,,,0,,,71,62
98550,note_on,0,0,1,,,,,,,,,0,,,71,0
98550,note_on,0,0,1,,,,,,,,,0,,,75,0
98550,note_on,120,0,1,,,,,,,,,0,,,83,0
98550,control_change,0,0,3,,,,,,,,,2,64,0,,
98550,note_on,0,0,3,,,,,,,,,2,,,63,0
98550,note_on,0,0,3,,,,,,,,,2,,,54,49
98550,note_on,0,0,3,,,,,,,,,2,,,63,49
98550,note_on,0,0,3,,,,,,,,,2,,,66,49
98550,note_on,0,0,3,,,,,,,,,2,,,54,0
98670,control_change,0,0,3,,,,,,,,,2,64,127,,
98670,note_on,0,0,3,,,,,,,,,2,,,67,36
98670,note_on,0,0,3,,,,,,,,,2,,,62,36
98670,note_on,0,0,3,,,,,,,,,2,,,55,36
98670,control_change,0,0,1,,,,,,,,,0,64,127,,
98670,note_on,0,0,1,,,,,,,,,0,,,83,36
98670,time_signature,14400,1,0,4,4,24,8,,,,,,,,,
98670,note_on,0,0,1,,,,,,,,,0,,,74,36
98670,note_on,0,0,1,,,,,,,,,0,,,71,0
98670,note_on,0,0,1,,,,,,,,,0,,,71,36
98670,note_on,120,0,1,,,,,,,,,0,,,83,0
98670,note_on,0,0,3,,,,,,,,,2,,,54,0
98670,note_on,0,0,3,,,,,,,,,2,,,63,0
98670,note_on,120,0,3,,,,,,,,,2,,,66,0
98670,note_on,0,0,1,,,,,,,,,0,,,75,0
98790,note_on,0,0,3,,,,,,,,,2,,,57,36
98790,note_on,0,0,3,,,,,,,,,2,,,69,36
98790,note_on,0,0,1,,,,,,,,,0,,,74,36
98790,note_on,0,0,1,,,,,,,,,0,,,84,36
98790,note_on,0,0,1,,,,,,,,,0,,,72,36
98790,note_on,0,0,1,,,,,,,,,0,,,71,0
98790,note_on,0,0,1,,,,,,,,,0,,,74,0
98790,note_on,120,0,1,,,,,,,,,0,,,83,0
98790,note_on,0,0,3,,,,,,,,,2,,,55,0
98790,note_on,0,0,3,,,,,,,,,2,,,62,36
98790,note_on,120,0,3,,,,,,,,,2,,,67,0
98790,note_on,0,0,3,,,,,,,,,2,,,62,0
98910,note_on,0,0,1,,,,,,,,,0,,,86,36
98910,note_on,0,0,3,,,,,,,,,2,,,59,36
98910,note_on,0,0,3,,,,,,,,,2,,,62,36
98910,note_on,0,0,3,,,,,,,,,2,,,71,36
98910,control_change,0,0,3,,,,,,,,,2,64,0,,
98910,note_on,0,0,3,,,,,,,,,2,,,57,0
98910,note_on,0,0,3,,,,,,,,,2,,,62,0
98910,note_on,120,0,1,,,,,,,,,0,,,84,0
98910,note_on,0,0,1,,,,,,,,,0,,,74,0
98910,note_on,0,0,1,,,,,,,,,0,,,72,0
98910,note_on,0,0,1,,,,,,,,,0,,,74,36
98910,note_on,120,0,3,,,,,,,,,2,,,69,0
98910,control_change,0,0,1,,,,,,,,,0,64,0,,
99030,note_on,0,0,1,,,,,,,,,0,,,74,0
99030,note_on,0,0,3,,,,,,,,,2,,,62,0
99030,note_on,0,0,3,,,,,,,,,2,,,59,0
99030,note_on,120,0,1,,,,,,,,,0,,,86,0
99030,note_on,120,0,3,,,,,,,,,2,,,71,0
99150,note_on,0,0,3,,,,,,,,,2,,,64,36
99150,note_on,0,0,3,,,,,,,,,2,,,52,36
99150,control_change,120,0,3,,,,,,,,,2,64,127,,
99150,time_signature,480,1,0,3,4,24,8,,,,,,,,,
99150,control_change,120,0,1,,,,,,,,,0,64,127,,
99150,note_on,0,0,1,,,,,,,,,0,,,79,36
99150,note_on,0,0,1,,,,,,,,,0,,,71,36
99150,note_on,0,0,1,,,,,,,,,0,,,67,36
99270,note_on,0,0,1,,,,,,,,,0,,,81,36
99270,note_on,0,0,1,,,,,,,,,0,,,74,36
99270,note_on,0,0,1,,,,,,,,,0,,,69,36
99270,note_on,0,0,1,,,,,,,,,0,,,71,0
99270,note_on,120,0,1,,,,,,,,,0,,,79,0
99270,note_on,120,0,3,,,,,,,,,2,,,64,0
99270,note_on,0,0,3,,,,,,,,,2,,,52,0
99270,note_on,0,0,3,,,,,,,,,2,,,50,36
99270,note_on,0,0,3,,,,,,,,,2,,,62,36
99270,note_on,0,0,1,,,,,,,,,0,,,78,36
99270,note_on,0,0,1,,,,,,,,,0,,,67,0
99390,note_on,0,0,3,,,,,,,,,2,,,59,36
99390,note_on,0,0,1,,,,,,,,,0,,,69,0
99390,note_on,0,0,1,,,,,,,,,0,,,74,0
99390,note_on,0,0,1,,,,,,,,,0,,,78,0
99390,note_on,0,0,1,,,,,,,,,0,,,71,36
99390,note_on,0,0,1,,,,,,,,,0,,,74,36
99390,note_on,0,0,1,,,,,,,,,0,,,79,36
99390,note_on,0,0,1,,,,,,,,,0,,,83,36
99390,note_on,120,0,3,,,,,,,,,2,,,62,0
99390,note_on,0,0,3,,,,,,,,,2,,,50,0
99390,control_change,0,0,3,,,,,,,,,2,64,0,,
99390,note_on,0,0,3,,,,,,,,,2,,,47,36
99390,note_on,0,0,3,,,,,,,,,2,,,50,36
99390,note_on,120,0,1,,,,,,,,,0,,,81,0
99390,control_change,0,0,1,,,,,,,,,0,64,0,,
99510,note_on,0,0,1,,,,,,,,,0,,,74,54
99510,note_on,120,0,1,,,,,,,,,0,,,83,0
99510,note_on,0,0,1,,,,,,,,,0,,,78,58
99510,note_on,0,0,1,,,,,,,,,0,,,81,62
99510,note_on,120,0,3,,,,,,,,,2,,,59,0
99510,note_on,0,0,3,,,,,,,,,2,,,50,0
99510,note_on,0,0,3,,,,,,,,,2,,,50,54
99510,note_on,0,0,1,,,,,,,,,0,,,72,50
99510,note_on,0,0,3,,,,,,,,,2,,,62,62
99510,note_on,0,0,3,,,,,,,,,2,,,47,0
99510,note_on,0,0,1,,,,,,,,,0,,,74,0
99510,note_on,0,0,1,,,,,,,,,0,,,71,0
99510,note_on,0,0,1,,,,,,,,,0,,,79,0
99750,note_on,240,0,1,,,,,,,,,0,,,81,0
99750,note_on,0,0,1,,,,,,,,,0,,,78,0
99750,note_on,0,0,1,,,,,,,,,0,,,71,36
99750,note_on,0,0,1,,,,,,,,,0,,,74,36
99750,note_on,0,0,1,,,,,,,,,0,,,79,36
99750,note_on,0,0,1,,,,,,,,,0,,,74,0
99750,note_on,240,0,3,,,,,,,,,2,,,62,0
99750,note_on,0,0,3,,,,,,,,,2,,,50,0
99750,note_on,0,0,3,,,,,,,,,2,,,55,36
99750,note_on,0,0,3,,,,,,,,,2,,,62,36
99750,note_on,0,0,1,,,,,,,,,0,,,72,0
99870,note_on,120,0,1,,,,,,,,,0,,,79,0
99870,note_on,0,0,1,,,,,,,,,0,,,71,0
99870,time_signature,720,1,0,1,4,24,8,,,,,,,,,
99870,note_on,0,0,1,,,,,,,,,0,,,74,0
99870,note_on,0,0,3,,,,,,,,,2,,,55,0
99870,note_on,0,0,1,,,,,,,,,0,,,79,36
99870,note_on,0,0,1,,,,,,,,,0,,,74,36
99870,note_on,0,0,3,,,,,,,,,2,,,62,36
99870,note_on,120,0,3,,,,,,,,,2,,,62,0
99870,note_on,0,0,1,,,,,,,,,0,,,71,36
99870,note_on,0,0,3,,,,,,,,,2,,,55,36
99990,note_on,120,0,3,,,,,,,,,2,,,62,0
99990,note_on,0,0,3,,,,,,,,,2,,,55,0
99990,note_on,0,0,3,,,,,,,,,2,,,50,36
99990,note_on,0,0,3,,,,,,,,,2,,,62,36
99990,time_signature,120,1,0,2,4,24,8,,,,,,,,,
99990,note_on,0,0,1,,,,,,,,,0,,,74,36
99990,note_on,0,0,1,,,,,,,,,0,,,71,0
99990,note_on,0,0,1,,,,,,,,,0,,,74,0
99990,note_on,120,0,1,,,,,,,,,0,,,79,0
100110,note_on,120,0,1,,,,,,,,,0,,,74,0
100110,note_on,0,0,1,,,,,,,,,0,,,74,36
100110,note_on,120,0,3,,,,,,,,,2,,,62,0
100110,note_on,0,0,3,,,,,,,,,2,,,50,36
100110,note_on,0,0,3,,,,,,,,,2,,,62,36
100110,note_on,0,0,3,,,,,,,,,2,,,50,0
100230,note_on,120,0,1,,,,,,,,,0,,,74,0
100230,note_on,0,0,1,,,,,,,,,0,,,64,88
100230,note_on,0,0,1,,,,,,,,,0,,,67,88
100230,note_on,0,0,3,,,,,,,,,2,,,60,75
100230,note_on,0,0,3,,,,,,,,,2,,,55,75
100230,note_on,0,0,3,,,,,,,,,2,,,48,75
100230,control_change,0,0,3,,,,,,,,,2,64,127,,
100230,note_on,0,0,3,,,,,,,,,2,,,50,0
100230,note_on,120,0,3,,,,,,,,,2,,,62,0
100230,control_change,0,0,1,,,,,,,,,0,64,127,,
100230,time_signature,240,1,0,3,4,24,8,,,,,,,,,
100230,note_on,0,0,1,,,,,,,,,0,,,72,88
100230,note_on,0,0,1,,,,,,,,,0,,,76,88
100470,note_on,0,0,3,,,,,,,,,2,,,48,0
100470,note_on,0,0,1,,,,,,,,,0,,,64,0
100470,note_on,0,0,1,,,,,,,,,0,,,76,88
100470,note_on,0,0,1,,,,,,,,,0,,,67,88
100470,note_on,0,0,1,,,,,,,,,0,,,64,88
100470,note_on,240,0,1,,,,,,,,,0,,,76,0
100470,note_on,0,0,1,,,,,,,,,0,,,72,88
100470,note_on,0,0,1,,,,,,,,,0,,,67,0
100470,note_on,0,0,3,,,,,,,,,2,,,48,75
100470,note_on,0,0,1,,,,,,,,,0,,,72,0
100470,note_on,0,0,3,,,,,,,,,2,,,60,75
100470,note_on,0,0,3,,,,,,,,,2,,,55,75
100470,note_on,240,0,3,,,,,,,,,2,,,60,0
100470,note_on,0,0,3,,,,,,,,,2,,,55,0
100590,note_on,120,0,1,,,,,,,,,0,,,76,0
100590,note_on,0,0,3,,,,,,,,,2,,,48,75
100590,note_on,0,0,3,,,,,,,,,2,,,48,0
100590,note_on,0,0,3,,,,,,,,,2,,,55,0
100590,note_on,120,0,3,,,,,,,,,2,,,60,0
100590,note_on,0,0,3,,,,,,,,,2,,,60,75
100590,note_on,0,0,3,,,,,,,,,2,,,55,75
100590,note_on,0,0,1,,,,,,,,,0,,,64,0
100590,note_on,0,0,1,,,,,,,,,0,,,72,88
100590,note_on,0,0,1,,,,,,,,,0,,,76,88
100590,note_on,0,0,1,,,,,,,,,0,,,67,88
100590,note_on,0,0,1,,,,,,,,,0,,,72,0
100590,note_on,0,0,1,,,,,,,,,0,,,67,0
100590,note_on,0,0,1,,,,,,,,,0,,,64,88
100710,note_on,120,0,3,,,,,,,,,2,,,60,0
100710,note_on,0,0,3,,,,,,,,,2,,,48,0
100710,note_on,0,0,3,,,,,,,,,2,,,48,75
100710,note_on,0,0,1,,,,,,,,,0,,,72,88
100710,note_on,0,0,3,,,,,,,,,2,,,55,75
100710,note_on,0,0,3,,,,,,,,,2,,,60,75
100710,note_on,120,0,1,,,,,,,,,0,,,76,0
100710,note_on,0,0,1,,,,,,,,,0,,,67,0
100710,note_on,0,0,1,,,,,,,,,0,,,72,0
100710,note_on,0,0,1,,,,,,,,,0,,,64,88
100710,note_on,0,0,1,,,,,,,,,0,,,67,88
100710,note_on,0,0,3,,,,,,,,,2,,,55,0
100710,note_on,0,0,1,,,,,,,,,0,,,76,88
100710,note_on,0,0,1,,,,,,,,,0,,,64,0
100830,note_on,120,0,1,,,,,,,,,0,,,76,0
100830,note_on,0,0,3,,,,,,,,,2,,,48,0
100830,note_on,0,0,1,,,,,,,,,0,,,64,0
100830,control_change,0,0,3,,,,,,,,,2,64,0,,
100830,note_on,0,0,3,,,,,,,,,2,,,48,75
100830,note_on,0,0,3,,,,,,,,,2,,,55,75
100830,note_on,0,0,3,,,,,,,,,2,,,60,75
100830,note_on,0,0,3,,,,,,,,,2,,,55,0
100830,note_on,120,0,3,,,,,,,,,2,,,60,0
100830,note_on,0,0,1,,,,,,,,,0,,,76,88
100830,note_on,0,0,1,,,,,,,,,0,,,72,88
100830,note_on,0,0,1,,,,,,,,,0,,,67,88
100830,note_on,0,0,1,,,,,,,,,0,,,64,88
100830,note_on,0,0,1,,,,,,,,,0,,,72,0
100830,note_on,0,0,1,,,,,,,,,0,,,67,0
100830,control_change,0,0,1,,,,,,,,,0,64,0,,
100950,control_change,0,0,3,,,,,,,,,2,64,127,,
100950,note_on,0,0,3,,,,,,,,,2,,,48,75
100950,note_on,0,0,3,,,,,,,,,2,,,55,0
100950,note_on,120,0,3,,,,,,,,,2,,,60,0
100950,note_on,0,0,3,,,,,,,,,2,,,48,0
100950,control_change,0,0,1,,,,,,,,,0,64,127,,
100950,note_on,0,0,1,,,,,,,,,0,,,76,88
100950,note_on,0,0,1,,,,,,,,,0,,,67,88
100950,note_on,0,0,1,,,,,,,,,0,,,64,88
100950,note_on,0,0,1,,,,,,,,,0,,,72,0
100950,note_on,0,0,1,,,,,,,,,0,,,67,0
100950,note_on,0,0,1,,,,,,,,,0,,,64,0
100950,note_on,120,0,1,,,,,,,,,0,,,76,0
100950,note_on,0,0,3,,,,,,,,,2,,,55,75
100950,note_on,0,0,3,,,,,,,,,2,,,60,75
101070,note_on,0,0,3,,,,,,,,,2,,,43,75
101070,note_on,0,0,3,,,,,,,,,2,,,48,0
101070,note_on,0,0,3,,,,,,,,,2,,,55,0
101070,note_on,0,0,3,,,,,,,,,2,,,55,75
101070,note_on,0,0,1,,,,,,,,,0,,,67,88
101070,note_on,0,0,1,,,,,,,,,0,,,74,88
101070,note_on,120,0,1,,,,,,,,,0,,,76,0
101070,note_on,0,0,1,,,,,,,,,0,,,64,0
101070,note_on,0,0,1,,,,,,,,,0,,,62,88
101070,note_on,120,0,3,,,,,,,,,2,,,60,0
101070,note_on,0,0,1,,,,,,,,,0,,,67,0
101190,note_on,0,0,3,,,,,,,,,2,,,40,75
101190,note_on,120,0,1,,,,,,,,,0,,,74,0
101190,note_on,120,0,3,,,,,,,,,2,,,55,0
101190,note_on,0,0,3,,,,,,,,,2,,,43,75
101190,note_on,0,0,3,,,,,,,,,2,,,52,75
101190,note_on,0,0,3,,,,,,,,,2,,,43,0
101190,control_change,0,0,1,,,,,,,,,0,64,0,,
101190,control_change,0,0,3,,,,,,,,,2,64,0,,
101190,note_on,0,0,1,,,,,,,,,0,,,67,88
101190,note_on,0,0,1,,,,,,,,,0,,,60,88
101190,note_on,0,0,1,,,,,,,,,0,,,62,0
101190,note_on,0,0,1,,,,,,,,,0,,,67,0
101190,note_on,0,0,1,,,,,,,,,0,,,72,88
101310,note_on,0,0,3,,,,,,,,,2,,,40,88
101310,note_on,0,0,3,,,,,,,,,2,,,40,0
101310,note_on,0,0,3,,,,,,,,,2,,,43,0
101310,note_on,120,0,3,,,,,,,,,2,,,52,0
101310,control_change,0,0,3,,,,,,,,,2,64,127,,
101310,note_on,0,0,1,,,,,,,,,0,,,72,101
101310,note_on,0,0,3,,,,,,,,,2,,,52,88
101310,note_on,0,0,1,,,,,,,,,0,,,67,101
101310,note_on,0,0,1,,,,,,,,,0,,,60,101
101310,note_on,0,0,1,,,,,,,,,0,,,60,0
101310,note_on,0,0,1,,,,,,,,,0,,,67,0
101310,note_on,120,0,1,,,,,,,,,0,,,72,0
101310,control_change,0,0,1,,,,,,,,,0,64,127,,
101310,note_on,0,0,3,,,,,,,,,2,,,43,88
101430,note_on,0,0,1,,,,,,,,,0,,,67,101
101430,note_on,0,0,1,,,,,,,,,0,,,62,101
101430,note_on,0,0,1,,,,,,,,,0,,,60,0
101430,note_on,0,0,1,,,,,,,,,0,,,74,101
101430,note_on,0,0,1,,,,,,,,,0,,,67,0
101430,note_on,0,0,3,,,,,,,,,2,,,55,88
101430,note_on,0,0,3,,,,,,,,,2,,,43,88
101430,note_on,0,0,3,,,,,,,,,2,,,40,0
101430,note_on,120,0,1,,,,,,,,,0,,,72,0
101430,note_on,120,0,3,,,,,,,,,2,,,52,0
101430,note_on,0,0,3,,,,,,,,,2,,,43,0
101550,note_on,0,0,1,,,,,,,,,0,,,76,101
101550,note_on,0,0,1,,,,,,,,,0,,,67,101
101550,note_on,0,0,1,,,,,,,,,0,,,64,101
101550,note_on,0,0,1,,,,,,,,,0,,,62,0
101550,note_on,0,0,3,,,,,,,,,2,,,60,88
101550,control_change,0,0,1,,,,,,,,,0,64,0,,
101550,note_on,0,0,3,,,,,,,,,2,,,48,88
101550,note_on,120,0,1,,,,,,,,,0,,,74,0
101550,note_on,0,0,1,,,,,,,,,0,,,67,0
101550,note_on,0,0,3,,,,,,,,,2,,,55,88
101550,note_on,0,0,3,,,,,,,,,2,,,43,0
101550,control_change,0,0,3,,,,,,,,,2,64,0,,
101550,note_on,120,0,3,,,,,,,,,2,,,55,0
101670,note_on,0,0,3,,,,,,,,,2,,,63,101
101670,note_on,0,0,3,,,,,,,,,2,,,51,101
101670,control_change,0,0,3,,,,,,,,,2,64,127,,
101670,note_on,0,0,3,,,,,,,,,2,,,48,0
101670,note_on,0,0,3,,,,,,,,,2,,,55,0
101670,control_change,0,0,1,,,,,,,,,0,64,127,,
101670,note_on,0,0,1,,,,,,,,,0,,,79,114
101670,note_on,0,0,1,,,,,,,,,0,,,70,114
101670,note_on,120,0,3,,,,,,,,,2,,,60,0
101670,note_on,0,0,1,,,,,,,,,0,,,67,114
101670,note_on,0,0,1,,,,,,,,,0,,,64,0
101670,note_on,0,0,1,,,,,,,,,0,,,67,0
101670,note_on,120,0,1,,,,,,,,,0,,,76,0
101670,note_on,0,0,3,,,,,,,,,2,,,58,101
101910,note_on,0,0,1,,,,,,,,,0,,,79,114
101910,note_on,0,0,1,,,,,,,,,0,,,70,0
101910,note_on,0,0,1,,,,,,,,,0,,,67,0
101910,note_on,240,0,1,,,,,,,,,0,,,79,0
101910,note_on,0,0,1,,,,,,,,,0,,,70,114
101910,note_on,0,0,1,,,,,,,,,0,,,67,114
101910,note_on,0,0,3,,,,,,,,,2,,,58,0
101910,note_on,240,0,3,,,,,,,,,2,,,63,0
101910,note_on,0,0,3,,,,,,,,,2,,,51,0
101910,note_on,0,0,3,,,,,,,,,2,,,51,101
101910,note_on,0,0,3,,,,,,,,,2,,,58,101
101910,note_on,0,0,3,,,,,,,,,2,,,63,101
102030,note_on,0,0,1,,,,,,,,,0,,,79,114
102030,note_on,0,0,1,,,,,,,,,0,,,70,114
102030,note_on,0,0,1,,,,,,,,,0,,,67,114
102030,note_on,120,0,3,,,,,,,,,2,,,63,0
102030,note_on,0,0,3,,,,,,,,,2,,,58,0
102030,note_on,0,0,3,,,,,,,,,2,,,51,101
102030,note_on,0,0,3,,,,,,,,,2,,,51,0
102030,note_on,0,0,3,,,,,,,,,2,,,63,101
102030,note_on,120,0,1,,,,,,,,,0,,,79,0
102030,note_on,0,0,1,,,,,,,,,0,,,70,0
102030,note_on,0,0,1,,,,,,,,,0,,,67,0
102030,note_on,0,0,3,,,,,,,,,2,,,58,101
102150,note_on,0,0,1,,,,,,,,,0,,,67,114
102150,note_on,0,0,1,,,,,,,,,0,,,67,0
102150,note_on,0,0,1,,,,,,,,,0,,,70,0
102150,note_on,120,0,1,,,,,,,,,0,,,79,0
102150,note_on,0,0,3,,,,,,,,,2,,,63,101
102150,note_on,0,0,3,,,,,,,,,2,,,51,101
102150,note_on,0,0,3,,,,,,,,,2,,,51,0
102150,note_on,0,0,3,,,,,,,,,2,,,58,0
102150,note_on,120,0,3,,,,,,,,,2,,,63,0
102150,note_on,0,0,1,,,,,,,,,0,,,70,114
102150,note_on,0,0,3,,,,,,,,,2,,,58,101
102150,note_on,0,0,1,,,,,,,,,0,,,79,114
102270,note_on,0,0,3,,,,,,,,,2,,,58,0
102270,note_on,0,0,1,,,,,,,,,0,,,70,0
102270,note_on,0,0,1,,,,,,,,,0,,,67,0
102270,note_on,0,0,1,,,,,,,,,0,,,67,114
102270,note_on,0,0,1,,,,,,,,,0,,,70,114
102270,note_on,0,0,1,,,,,,,,,0,,,79,114
102270,control_change,0,0,1,,,,,,,,,0,64,0,,
102270,note_on,120,0,3,,,,,,,,,2,,,63,0
102270,note_on,0,0,3,,,,,,,,,2,,,63,101
102270,note_on,0,0,3,,,,,,,,,2,,,51,101
102270,control_change,0,0,3,,,,,,,,,2,64,0,,
102270,note_on,0,0,3,,,,,,,,,2,,,51,0
102270,note_on,120,0,1,,,,,,,,,0,,,79,0
102270,note_on,0,0,3,,,,,,,,,2,,,58,101
102390,control_change,0,0,1,,,,,,,,,0,64,127,,
102390,note_on,0,0,1,,,,,,,,,0,,,70,0
102390,note_on,120,0,3,,,,,,,,,2,,,63,0
102390,note_on,0,0,3,,,,,,,,,2,,,58,0
102390,note_on,0,0,3,,,,,,,,,2,,,51,0
102390,note_on,120,0,1,,,,,,,,,0,,,79,0
102390,note_on,0,0,3,,,,,,,,,2,,,51,101
102390,note_on,0,0,3,,,,,,,,,2,,,63,101
102390,control_change,0,0,3,,,,,,,,,2,64,127,,
102390,note_on,0,0,1,,,,,,,,,0,,,79,114
102390,note_on,0,0,1,,,,,,,,,0,,,70,114
102390,note_on,0,0,1,,,,,,,,,0,,,67,114
102390,note_on,0,0,1,,,,,,,,,0,,,67,0
102390,note_on,0,0,3,,,,,,,,,2,,,58,101
102510,note_on,0,0,1,,,,,,,,,0,,,70,114
102510,note_on,120,0,1,,,,,,,,,0,,,79,0
102510,note_on,0,0,1,,,,,,,,,0,,,65,114
102510,note_on,0,0,1,,,,,,,,,0,,,67,0
102510,note_on,0,0,1,,,,,,,,,0,,,77,114
102510,note_on,0,0,3,,,,,,,,,2,,,51,0
102510,note_on,0,0,3,,,,,,,,,2,,,46,101
102510,note_on,0,0,1,,,,,,,,,0,,,70,0
102510,note_on,0,0,3,,,,,,,,,2,,,58,101
102510,note_on,0,0,3,,,,,,,,,2,,,58,0
102510,note_on,120,0,3,,,,,,,,,2,,,63,0
102630,note_on,120,0,1,,,,,,,,,0,,,77,0
102630,control_change,0,0,3,,,,,,,,,2,64,0,,
102630,note_on,0,0,3,,,,,,,,,2,,,43,101
102630,note_on,0,0,3,,,,,,,,,2,,,46,101
102630,note_on,0,0,3,,,,,,,,,2,,,55,101
102630,note_on,0,0,1,,,,,,,,,0,,,70,0
102630,note_on,0,0,1,,,,,,,,,0,,,65,0
102630,note_on,0,0,3,,,,,,,,,2,,,46,0
102630,note_on,0,0,1,,,,,,,,,0,,,63,114
102630,note_on,0,0,1,,,,,,,,,0,,,75,114
102630,control_change,0,0,1,,,,,,,,,0,64,0,,
102630,note_on,0,0,1,,,,,,,,,0,,,70,114
102630,note_on,120,0,3,,,,,,,,,2,,,58,0
102750,note_on,0,0,1,,,,,,,,,0,,,70,0
102750,note_on,0,0,1,,,,,,,,,0,,,63,0
102750,note_on,0,0,1,,,,,,,,,0,,,63,114
102750,note_on,0,0,1,,,,,,,,,0,,,70,114
102750,note_on,0,0,1,,,,,,,,,0,,,75,114
102750,control_change,0,0,1,,,,,,,,,0,64,127,,
102750,note_on,120,0,1,,,,,,,,,0,,,75,0
102750,note_on,120,0,3,,,,,,,,,2,,,55,0
102750,note_on,0,0,3,,,,,,,,,2,,,43,0
102750,control_change,0,0,3,,,,,,,,,2,64,127,,
102750,note_on,0,0,3,,,,,,,,,2,,,43,101
102750,note_on,0,0,3,,,,,,,,,2,,,46,101
102750,note_on,0,0,3,,,,,,,,,2,,,55,101
102750,note_on,0,0,3,,,,,,,,,2,,,46,0
102870,note_on,120,0,3,,,,,,,,,2,,,55,0
102870,note_on,0,0,3,,,,,,,,,2,,,46,0
102870,note_on,0,0,3,,,,,,,,,2,,,43,0
102870,note_on,0,0,3,,,,,,,,,2,,,46,101
102870,note_on,120,0,1,,,,,,,,,0,,,75,0
102870,note_on,0,0,3,,,,,,,,,2,,,58,101
102870,note_on,0,0,1,,,,,,,,,0,,,63,0
102870,note_on,0,0,1,,,,,,,,,0,,,65,114
102870,note_on,0,0,1,,,,,,,,,0,,,70,114
102870,note_on,0,0,1,,,,,,,,,0,,,77,114
102870,note_on,0,0,1,,,,,,,,,0,,,70,0
102990,note_on,120,0,3,,,,,,,,,2,,,58,0
102990,note_on,0,0,3,,,,,,,,,2,,,58,101
102990,note_on,120,0,1,,,,,,,,,0,,,77,0
102990,note_on,0,0,1,,,,,,,,,0,,,70,0
102990,note_on,0,0,1,,,,,,,,,0,,,65,0
102990,note_on,0,0,1,,,,,,,,,0,,,67,114
102990,note_on,0,0,1,,,,,,,,,0,,,70,114
102990,note_on,0,0,1,,,,,,,,,0,,,79,114
102990,control_change,0,0,1,,,,,,,,,0,64,0,,
102990,note_on,0,0,3,,,,,,,,,2,,,51,101
102990,note_on,0,0,3,,,,,,,,,2,,,46,0
102990,note_on,0,0,3,,,,,,,,,2,,,63,101
102990,control_change,0,0,3,,,,,,,,,2,64,0,,
103110,control_change,0,0,1,,,,,,,,,0,64,127,,
103110,note_on,0,0,1,,,,,,,,,0,,,82,114
103110,note_on,0,0,1,,,,,,,,,0,,,73,114
103110,note_on,0,0,1,,,,,,,,,0,,,70,114
103110,note_on,0,0,1,,,,,,,,,0,,,67,0
103110,note_on,0,0,1,,,,,,,,,0,,,70,0
103110,note_on,120,0,1,,,,,,,,,0,,,79,0
103110,note_on,0,0,3,,,,,,,,,2,,,58,0
103110,note_on,0,0,3,,,,,,,,,2,,,51,0
103110,control_change,0,0,3,,,,,,,,,2,64,127,,
103110,note_on,0,0,3,,,,,,,,,2,,,42,101
103110,note_on,0,0,3,,,,,,,,,2,,,49,101
103110,note_on,0,0,3,,,,,,,,,2,,,54,101
103110,note_on,120,0,3,,,,,,,,,2,,,63,0
103350,note_on,240,0,1,,,,,,,,,0,,,82,0
103350,note_on,0,0,3,,,,,,,,,2,,,54,101
103350,note_on,0,0,3,,,,,,,,,2,,,49,101
103350,note_on,0,0,3,,,,,,,,,2,,,42,101
103350,note_on,0,0,3,,,,,,,,,2,,,42,0
103350,note_on,0,0,3,,,,,,,,,2,,,49,0
103350,note_on,240,0,3,,,,,,,,,2,,,54,0
103350,note_on,0,0,1,,,,,,,,,0,,,73,0
103350,note_on,0,0,1,,,,,,,,,0,,,82,114
103350,note_on,0,0,1,,,,,,,,,0,,,73,114
103350,note_on,0,0,1,,,,,,,,,0,,,70,114
103350,note_on,0,0,1,,,,,,,,,0,,,70,0
103470,note_on,0,0,1,,,,,,,,,0,,,70,114
103470,note_on,0,0,1,,,,,,,,,0,,,73,114
103470,note_on,0,0,3,,,,,,,,,2,,,42,0
103470,note_on,0,0,1,,,,,,,,,0,,,73,0
103470,note_on,120,0,1,,,,,,,,,0,,,82,0
103470,note_on,120,0,3,,,,,,,,,2,,,54,0
103470,note_on,0,0,3,,,,,,,,,2,,,49,0
103470,note_on,0,0,1,,,,,,,,,0,,,70,0
103470,note_on,0,0,1,,,,,,,,,0,,,82,114
103470,note_on,0,0,3,,,,,,,,,2,,,42,101
103470,note_on,0,0,3,,,,,,,,,2,,,54,101
103470,note_on,0,0,3,,,,,,,,,2,,,49,101
103590,note_on,0,0,1,,,,,,,,,0,,,73,0
103590,note_on,0,0,1,,,,,,,,,0,,,82,114
103590,note_on,0,0,1,,,,,,,,,0,,,73,114
103590,note_on,120,0,1,,,,,,,,,0,,,82,0
103590,note_on,0,0,1,,,,,,,,,0,,,70,0
103590,note_on,0,0,1,,,,,,,,,0,,,70,114
103590,note_on,0,0,3,,,,,,,,,2,,,49,101
103590,note_on,0,0,3,,,,,,,,,2,,,42,101
103590,note_on,0,0,3,,,,,,,,,2,,,42,0
103590,note_on,0,0,3,,,,,,,,,2,,,49,0
103590,note_on,120,0,3,,,,,,,,,2,,,54,0
103590,note_on,0,0,3,,,,,,,,,2,,,54,101
103710,note_on,120,0,1,,,,,,,,,0,,,82,0
103710,note_on,0,0,1,,,,,,,,,0,,,73,0
103710,note_on,0,0,1,,,,,,,,,0,,,70,0
103710,note_on,0,0,1,,,,,,,,,0,,,70,114
103710,note_on,0,0,1,,,,,,,,,0,,,73,114
103710,note_on,0,0,1,,,,,,,,,0,,,82,114
103710,control_change,0,0,1,,,,,,,,,0,64,0,,
103710,note_on,0,0,3,,,,,,,,,2,,,42,101
103710,control_change,0,0,3,,,,,,,,,2,64,0,,
103710,note_on,0,0,3,,,,,,,,,2,,,54,101
103710,note_on,120,0,3,,,,,,,,,2,,,54,0
103710,note_on,0,0,3,,,,,,,,,2,,,49,0
103710,note_on,0,0,3,,,,,,,,,2,,,42,0
103710,note_on,0,0,3,,,,,,,,,2,,,49,101
103830,note_on,120,0,1,,,,,,,,,0,,,82,0
103830,control_change,0,0,1,,,,,,,,,0,64,127,,
103830,note_on,0,0,1,,,,,,,,,0,,,70,114
103830,note_on,0,0,1,,,,,,,,,0,,,73,0
103830,note_on,0,0,1,,,,,,,,,0,,,70,0
103830,note_on,0,0,3,,,,,,,,,2,,,49,101
103830,note_on,0,0,1,,,,,,,,,0,,,82,114
103830,note_on,0,0,3,,,,,,,,,2,,,42,101
103830,control_change,0,0,3,,,,,,,,,2,64,127,,
103830,note_on,0,0,3,,,,,,,,,2,,,42,0
103830,note_on,0,0,3,,,,,,,,,2,,,49,0
103830,note_on,120,0,3,,,,,,,,,2,,,54,0
103830,note_on,0,0,3,,,,,,,,,2,,,54,101
103830,note_on,0,0,1,,,,,,,,,0,,,73,114
103950,note_on,0,0,3,,,,,,,,,2,,,37,101
103950,note_on,0,0,1,,,,,,,,,0,,,73,0
103950,note_on,0,0,1,,,,,,,,,0,,,70,0
103950,note_on,0,0,1,,,,,,,,,0,,,73,114
103950,note_on,0,0,1,,,,,,,,,0,,,80,114
103950,note_on,120,0,1,,,,,,,,,0,,,82,0
103950,note_on,0,0,1,,,,,,,,,0,,,68,114
103950,note_on,0,0,3,,,,,,,,,2,,,49,101
103950,note_on,0,0,3,,,,,,,,,2,,,49,0
103950,note_on,0,0,3,,,,,,,,,2,,,42,0
103950,note_on,120,0,3,,,,,,,,,2,,,54,0
104070,note_on,0,0,1,,,,,,,,,0,,,78,114
104070,note_on,0,0,1,,,,,,,,,0,,,73,114
104070,note_on,0,0,1,,,,,,,,,0,,,66,114
104070,note_on,0,0,1,,,,,,,,,0,,,68,0
104070,note_on,0,0,1,,,,,,,,,0,,,73,0
104070,note_on,120,0,1,,,,,,,,,0,,,80,0
104070,control_change,0,0,1,,,,,,,,,0,64,0,,
104070,note_on,0,0,3,,,,,,,,,2,,,37,0
104070,note_on,0,0,3,,,,,,,,,2,,,46,101
104070,note_on,0,0,3,,,,,,,,,2,,,34,101
104070,note_on,120,0,3,,,,,,,,,2,,,49,0
104070,control_change,0,0,3,,,,,,,,,2,64,0,,
104190,note_on,0,0,1,,,,,,,,,0,,,66,0
104190,note_on,0,0,1,,,,,,,,,0,,,70,114
104190,note_on,0,0,1,,,,,,,,,0,,,78,114
104190,note_on,0,0,1,,,,,,,,,0,,,82,114
104190,control_change,0,0,1,,,,,,,,,0,64,127,,
104190,note_on,0,0,1,,,,,,,,,0,,,73,0
104190,note_on,120,0,1,,,,,,,,,0,,,78,0
104190,note_on,120,0,3,,,,,,,,,2,,,46,0
104190,note_on,0,0,3,,,,,,,,,2,,,34,0
104190,control_change,0,0,3,,,,,,,,,2,64,127,,
104190,note_on,0,0,3,,,,,,,,,2,,,42,101
104190,note_on,0,0,3,,,,,,,,,2,,,54,101
104310,note_on,0,0,1,,,,,,,,,0,,,78,114
104310,note_on,0,0,1,,,,,,,,,0,,,71,114
104310,note_on,0,0,1,,,,,,,,,0,,,70,0
104310,note_on,0,0,1,,,,,,,,,0,,,78,0
104310,note_on,120,0,1,,,,,,,,,0,,,82,0
104310,note_on,0,0,1,,,,,,,,,0,,,83,114
104310,note_on,0,0,3,,,,,,,,,2,,,42,0
104310,note_on,120,0,3,,,,,,,,,2,,,54,0
104310,note_on,0,0,3,,,,,,,,,2,,,44,101
104310,note_on,0,0,3,,,,,,,,,2,,,54,101
104310,note_on,0,0,3,,,,,,,,,2,,,56,101
104430,note_on,0,0,1,,,,,,,,,0,,,78,0
104430,note_on,0,0,1,,,,,,,,,0,,,71,0
104430,note_on,0,0,1,,,,,,,,,0,,,73,114
104430,note_on,0,0,1,,,,,,,,,0,,,78,114
104430,note_on,0,0,1,,,,,,,,,0,,,85,114
104430,control_change,0,0,1,,,,,,,,,0,64,0,,
104430,note_on,120,0,3,,,,,,,,,2,,,56,0
104430,note_on,120,0,1,,,,,,,,,0,,,83,0
104430,note_on,0,0,3,,,,,,,,,2,,,54,0
104430,note_on,0,0,3,,,,,,,,,2,,,44,0
104430,note_on,0,0,3,,,,,,,,,2,,,46,101
104430,note_on,0,0,3,,,,,,,,,2,,,54,101
104430,note_on,0,0,3,,,,,,,,,2,,,58,101
104430,control_change,0,0,3,,,,,,,,,2,64,0,,
104550,note_on,0,0,3,,,,,,,,,2,,,59,101
104550,note_on,120,0,3,,,,,,,,,2,,,58,0
104550,note_on,120,0,1,,,,,,,,,0,,,85,0
104550,note_on,0,0,3,,,,,,,,,2,,,54,101
104550,note_on,0,0,3,,,,,,,,,2,,,47,101
104550,note_on,0,0,3,,,,,,,,,2,,,46,0
104550,control_change,0,0,3,,,,,,,,,2,64,127,,
104550,note_on,0,0,1,,,,,,,,,0,,,73,0
104550,note_on,0,0,1,,,,,,,,,0,,,74,114
104550,note_on,0,0,1,,,,,,,,,0,,,78,114
104550,note_on,0,0,1,,,,,,,,,0,,,86,114
104550,control_change,0,0,1,,,,,,,,,0,64,127,,
104550,note_on,0,0,1,,,,,,,,,0,,,78,0
104550,note_on,0,0,3,,,,,,,,,2,,,54,0
104790,note_on,0,0,1,,,,,,,,,0,,,74,114
104790,note_on,240,0,3,,,,,,,,,2,,,59,0
104790,note_on,240,0,1,,,,,,,,,0,,,86,0
104790,note_on,0,0,1,,,,,,,,,0,,,78,0
104790,note_on,0,0,1,,,,,,,,,0,,,86,114
104790,note_on,0,0,1,,,,,,,,,0,,,78,114
104790,note_on,0,0,3,,,,,,,,,2,,,54,0
104790,note_on,0,0,1,,,,,,,,,0,,,74,0
104790,note_on,0,0,3,,,,,,,,,2,,,47,0
104790,note_on,0,0,3,,,,,,,,,2,,,47,101
104790,note_on,0,0,3,,,,,,,,,2,,,54,101
104790,note_on,0,0,3,,,,,,,,,2,,,59,101
104910,note_on,0,0,1,,,,,,,,,0,,,86,114
104910,note_on,0,0,1,,,,,,,,,0,,,78,114
104910,note_on,0,0,1,,,,,,,,,0,,,74,114
104910,note_on,120,0,3,,,,,,,,,2,,,59,0
104910,note_on,0,0,3,,,,,,,,,2,,,54,0
104910,note_on,0,0,3,,,,,,,,,2,,,47,0
104910,note_on,0,0,3,,,,,,,,,2,,,54,101
104910,note_on,0,0,3,,,,,,,,,2,,,47,101
104910,note_on,0,0,1,,,,,,,,,0,,,74,0
104910,note_on,0,0,1,,,,,,,,,0,,,78,0
104910,note_on,120,0,1,,,,,,,,,0,,,86,0
104910,note_on,0,0,3,,,,,,,,,2,,,59,101
105030,note_on,120,0,3,,,,,,,,,2,,,59,0
105030,note_on,0,0,1,,,,,,,,,0,,,86,114
105030,note_on,0,0,3,,,,,,,,,2,,,54,0
105030,note_on,0,0,3,,,,,,,,,2,,,47,0
105030,note_on,0,0,3,,,,,,,,,2,,,47,101
105030,note_on,0,0,3,,,,,,,,,2,,,54,101
105030,note_on,0,0,3,,,,,,,,,2,,,59,101
105030,note_on,120,0,1,,,,,,,,,0,,,86,0
105030,note_on,0,0,1,,,,,,,,,0,,,78,0
105030,note_on,0,0,1,,,,,,,,,0,,,74,0
105030,note_on,0,0,1,,,,,,,,,0,,,74,114
105030,note_on,0,0,1,,,,,,,,,0,,,78,114
105150,note_on,0,0,3,,,,,,,,,2,,,54,101
105150,note_on,0,0,1,,,,,,,,,0,,,78,0
105150,note_on,0,0,1,,,,,,,,,0,,,74,0
105150,note_on,0,0,1,,,,,,,,,0,,,74,114
105150,note_on,0,0,1,,,,,,,,,0,,,78,114
105150,note_on,0,0,3,,,,,,,,,2,,,59,101
105150,control_change,0,0,1,,,,,,,,,0,64,0,,
105150,note_on,120,0,3,,,,,,,,,2,,,59,0
105150,note_on,0,0,3,,,,,,,,,2,,,54,0
105150,note_on,0,0,3,,,,,,,,,2,,,47,0
105150,control_change,0,0,3,,,,,,,,,2,64,0,,
105150,note_on,0,0,3,,,,,,,,,2,,,47,101
105150,note_on,120,0,1,,,,,,,,,0,,,86,0
105150,note_on,0,0,1,,,,,,,,,0,,,86,114
105270,note_on,0,0,1,,,,,,,,,0,,,77,114
105270,note_on,0,0,1,,,,,,,,,0,,,78,0
105270,note_on,0,0,1,,,,,,,,,0,,,74,0
105270,note_on,0,0,1,,,,,,,,,0,,,79,114
105270,note_on,0,0,1,,,,,,,,,0,,,83,114
105270,note_on,0,0,1,,,,,,,,,0,,,86,114
105270,note_on,0,0,1,,,,,,,,,0,,,91,114
105270,control_change,0,0,1,,,,,,,,,0,64,127,,
105270,control_change,0,0,3,,,,,,,,,2,64,127,,
105270,note_on,0,0,3,,,,,,,,,2,,,31,101
105270,note_on,0,0,3,,,,,,,,,2,,,47,0
105270,note_on,0,0,3,,,,,,,,,2,,,54,0
105270,note_on,120,0,3,,,,,,,,,2,,,59,0
105270,note_on,120,0,1,,,,,,,,,0,,,86,0
105270,note_on,0,0,3,,,,,,,,,2,,,43,101
105510,note_on,240,0,3,,,,,,,,,2,,,43,0
105510,note_on,0,0,3,,,,,,,,,2,,,31,0
105510,note_on,0,0,1,,,,,,,,,0,,,83,0
105510,note_on,0,0,3,,,,,,,,,2,,,43,101
105510,note_on,0,0,1,,,,,,,,,0,,,77,0
105510,note_on,0,0,1,,,,,,,,,0,,,79,0
105510,note_on,0,0,1,,,,,,,,,0,,,86,0
105510,note_on,0,0,1,,,,,,,,,0,,,77,114
105510,note_on,0,0,1,,,,,,,,,0,,,79,114
105510,note_on,0,0,1,,,,,,,,,0,,,83,114
105510,note_on,0,0,1,,,,,,,,,0,,,86,114
105510,note_on,0,0,1,,,,,,,,,0,,,91,114
105510,note_on,240,0,1,,,,,,,,,0,,,91,0
105510,note_on,0,0,3,,,,,,,,,2,,,31,101
105630,note_on,0,0,1,,,,,,,,,0,,,77,0
105630,note_on,0,0,1,,,,,,,,,0,,,79,101
105630,note_on,0,0,1,,,,,,,,,0,,,91,101
105630,note_on,0,0,1,,,,,,,,,0,,,83,101
105630,note_on,0,0,3,,,,,,,,,2,,,47,88
105630,note_on,0,0,3,,,,,,,,,2,,,35,88
105630,note_on,0,0,3,,,,,,,,,2,,,31,0
105630,note_on,120,0,1,,,,,,,,,0,,,91,0
105630,note_on,0,0,1,,,,,,,,,0,,,77,101
105630,note_on,0,0,1,,,,,,,,,0,,,83,0
105630,note_on,0,0,1,,,,,,,,,0,,,86,0
105630,note_on,0,0,1,,,,,,,,,0,,,79,0
105630,note_on,120,0,3,,,,,,,,,2,,,43,0
105630,note_on,0,0,1,,,,,,,,,0,,,86,101
105750,note_on,0,0,1,,,,,,,,,0,,,91,101
105750,note_on,0,0,1,,,,,,,,,0,,,86,101
105750,note_on,0,0,1,,,,,,,,,0,,,83,101
105750,note_on,0,0,1,,,,,,,,,0,,,77,101
105750,note_on,0,0,1,,,,,,,,,0,,,86,0
105750,note_on,0,0,1,,,,,,,,,0,,,79,0
105750,note_on,0,0,1,,,,,,,,,0,,,77,0
105750,note_on,0,0,1,,,,,,,,,0,,,83,0
105750,note_on,120,0,1,,,,,,,,,0,,,91,0
105750,note_on,0,0,1,,,,,,,,,0,,,79,101
105750,note_on,0,0,3,,,,,,,,,2,,,35,0
105750,note_on,0,0,3,,,,,,,,,2,,,38,88
105750,note_on,0,0,3,,,,,,,,,2,,,50,88
105750,note_on,120,0,3,,,,,,,,,2,,,47,0
105870,note_on,0,0,1,,,,,,,,,0,,,77,101
105870,note_on,0,0,1,,,,,,,,,0,,,86,0
105870,note_on,0,0,1,,,,,,,,,0,,,79,0
105870,note_on,0,0,1,,,,,,,,,0,,,77,0
105870,note_on,0,0,1,,,,,,,,,0,,,83,0
105870,note_on,120,0,1,,,,,,,,,0,,,91,0
105870,note_on,120,0,3,,,,,,,,,2,,,50,0
105870,note_on,0,0,3,,,,,,,,,2,,,38,0
105870,control_change,0,0,3,,,,,,,,,2,64,0,,
105870,note_on,0,0,3,,,,,,,,,2,,,43,88
105870,note_on,0,0,3,,,,,,,,,2,,,55,88
105870,note_on,0,0,1,,,,,,,,,0,,,86,101
105870,note_on,0,0,1,,,,,,,,,0,,,91,101
105870,control_change,0,0,1,,,,,,,,,0,64,0,,
105870,note_on,0,0,1,,,,,,,,,0,,,79,101
105870,note_on,0,0,1,,,,,,,,,0,,,83,101
105990,note_on,120,0,1,,,,,,,,,0,,,91,0
105990,note_on,0,0,1,,,,,,,,,0,,,83,0
105990,control_change,0,0,1,,,,,,,,,0,64,127,,
105990,note_on,0,0,1,,,,,,,,,0,,,88,75
105990,note_on,0,0,1,,,,,,,,,0,,,84,75
105990,note_on,0,0,1,,,,,,,,,0,,,79,75
105990,note_on,0,0,1,,,,,,,,,0,,,76,75
105990,note_on,0,0,1,,,,,,,,,0,,,86,0
105990,note_on,0,0,1,,,,,,,,,0,,,77,0
105990,note_on,0,0,1,,,,,,,,,0,,,79,0
105990,note_on,120,0,3,,,,,,,,,2,,,55,0
105990,note_on,0,0,3,,,,,,,,,2,,,43,0
105990,control_change,0,0,3,,,,,,,,,2,64,127,,
105990,note_on,0,0,3,,,,,,,,,2,,,36,62
105990,note_on,0,0,3,,,,,,,,,2,,,48,62
106230,note_on,0,0,3,,,,,,,,,2,,,36,0
106230,note_on,0,0,3,,,,,,,,,2,,,36,62
106230,note_on,0,0,3,,,,,,,,,2,,,48,62
106230,note_on,240,0,1,,,,,,,,,0,,,88,0
106230,note_on,0,0,1,,,,,,,,,0,,,76,0
106230,note_on,0,0,1,,,,,,,,,0,,,79,0
106230,note_on,0,0,1,,,,,,,,,0,,,84,0
106230,note_on,0,0,1,,,,,,,,,0,,,64,75
106230,note_on,0,0,1,,,,,,,,,0,,,72,75
106230,note_on,0,0,1,,,,,,,,,0,,,76,75
106230,note_on,240,0,3,,,,,,,,,2,,,48,0
106350,note_on,120,0,1,,,,,,,,,0,,,76,0
106350,note_on,0,0,1,,,,,,,,,0,,,72,0
106350,note_on,0,0,1,,,,,,,,,0,,,64,0
106350,note_on,0,0,1,,,,,,,,,0,,,64,75
106350,note_on,0,0,3,,,,,,,,,2,,,36,49
106350,note_on,0,0,3,,,,,,,,,2,,,36,0
106350,note_on,120,0,3,,,,,,,,,2,,,48,0
106350,note_on,0,0,1,,,,,,,,,0,,,72,75
106350,note_on,0,0,1,,,,,,,,,0,,,76,75
106350,note_on,0,0,3,,,,,,,,,2,,,48,49
106470,note_on,0,0,1,,,,,,,,,0,,,76,75
106470,note_on,0,0,1,,,,,,,,,0,,,72,0
106470,note_on,0,0,1,,,,,,,,,0,,,64,0
106470,note_on,0,0,1,,,,,,,,,0,,,64,75
106470,note_on,0,0,1,,,,,,,,,0,,,72,75
106470,note_on,120,0,3,,,,,,,,,2,,,48,0
106470,note_on,0,0,3,,,,,,,,,2,,,36,0
106470,note_on,0,0,3,,,,,,,,,2,,,36,49
106470,note_on,0,0,3,,,,,,,,,2,,,48,49
106470,note_on,120,0,1,,,,,,,,,0,,,76,0
106590,note_on,120,0,3,,,,,,,,,2,,,48,0
106590,note_on,0,0,3,,,,,,,,,2,,,36,0
106590,control_change,0,0,3,,,,,,,,,2,64,0,,
106590,note_on,0,0,3,,,,,,,,,2,,,36,49
106590,note_on,0,0,3,,,,,,,,,2,,,48,49
106590,note_on,0,0,1,,,,,,,,,0,,,72,0
106590,control_change,0,0,1,,,,,,,,,0,64,0,,
106590,note_on,0,0,1,,,,,,,,,0,,,76,75
106590,note_on,0,0,1,,,,,,,,,0,,,72,75
106590,note_on,0,0,1,,,,,,,,,0,,,64,75
106590,note_on,0,0,1,,,,,,,,,0,,,64,0
106590,note_on,120,0,1,,,,,,,,,0,,,76,0
106710,note_on,0,0,1,,,,,,,,,0,,,72,49
106710,note_on,0,0,1,,,,,,,,,0,,,64,0
106710,note_on,0,0,1,,,,,,,,,0,,,72,0
106710,note_on,0,0,1,,,,,,,,,0,,,76,49
106710,note_on,0,0,1,,,,,,,,,0,,,64,49
106710,note_on,120,0,1,,,,,,,,,0,,,76,0
106710,note_on,120,0,3,,,,,,,,,2,,,48,0
106710,note_on,0,0,3,,,,,,,,,2,,,48,36
106710,note_on,0,0,3,,,,,,,,,2,,,36,36
106710,note_on,0,0,3,,,,,,,,,2,,,36,0
106950,note_on,0,0,3,,,,,,,,,2,,,48,36
106950,note_on,0,0,3,,,,,,,,,2,,,36,36
106950,note_on,0,0,3,,,,,,,,,2,,,36,0
106950,note_on,240,0,3,,,,,,,,,2,,,48,0
106950,note_on,0,0,1,,,,,,,,,0,,,72,0
106950,note_on,240,0,1,,,,,,,,,0,,,76,0
106950,note_on,0,0,1,,,,,,,,,0,,,64,49
106950,note_on,0,0,1,,,,,,,,,0,,,71,49
106950,note_on,0,0,1,,,,,,,,,0,,,74,49
106950,note_on,0,0,1,,,,,,,,,0,,,64,0
107070,note_on,0,0,1,,,,,,,,,0,,,74,49
107070,note_on,0,0,3,,,,,,,,,2,,,36,36
107070,note_on,120,0,1,,,,,,,,,0,,,74,0
107070,note_on,0,0,1,,,,,,,,,0,,,71,0
107070,note_on,0,0,1,,,,,,,,,0,,,64,0
107070,note_on,0,0,1,,,,,,,,,0,,,64,49
107070,note_on,120,0,3,,,,,,,,,2,,,48,0
107070,note_on,0,0,3,,,,,,,,,2,,,36,0
107070,note_on,0,0,3,,,,,,,,,2,,,48,36
107070,note_on,0,0,1,,,,,,,,,0,,,71,49
107310,note_on,0,0,1,,,,,,,,,0,,,64,49
107310,note_on,0,0,1,,,,,,,,,0,,,72,49
107310,note_on,0,0,1,,,,,,,,,0,,,64,0
107310,note_on,0,0,1,,,,,,,,,0,,,71,0
107310,note_on,240,0,3,,,,,,,,,2,,,48,0
107310,note_on,0,0,1,,,,,,,,,0,,,69,49
107310,note_on,0,0,3,,,,,,,,,2,,,36,36
107310,note_on,0,0,3,,,,,,,,,2,,,48,36
107310,note_on,240,0,1,,,,,,,,,0,,,74,0
107310,note_on,0,0,3,,,,,,,,,2,,,36,0
107430,note_on,0,0,1,,,,,,,,,0,,,72,49
107430,note_on,120,0,1,,,,,,,,,0,,,72,0
107430,note_on,0,0,1,,,,,,,,,0,,,69,0
107430,note_on,0,0,1,,,,,,,,,0,,,64,0
107430,note_on,0,0,1,,,,,,,,,0,,,64,49
107430,note_on,0,0,1,,,,,,,,,0,,,69,49
107430,note_on,0,0,3,,,,,,,,,2,,,36,36
107430,note_on,0,0,3,,,,,,,,,2,,,36,0
107430,note_on,120,0,3,,,,,,,,,2,,,48,0
107430,note_on,0,0,3,,,,,,,,,2,,,48,36
107670,note_on,240,0,3,,,,,,,,,2,,,48,0
107670,note_on,0,0,3,,,,,,,,,2,,,36,0
107670,note_on,0,0,3,,,,,,,,,2,,,36,36
107670,note_on,0,0,3,,,,,,,,,2,,,48,36
107670,note_on,0,0,1,,,,,,,,,0,,,71,49
107670,note_on,0,0,1,,,,,,,,,0,,,67,49
107670,note_on,0,0,1,,,,,,,,,0,,,64,0
107670,note_on,240,0,1,,,,,,,,,0,,,72,0
107670,note_on,0,0,1,,,,,,,,,0,,,69,0
107790,note_on,0,0,1,,,,,,,,,0,,,71,49
107790,note_on,0,0,1,,,,,,,,,0,,,67,0
107790,note_on,120,0,1,,,,,,,,,0,,,71,0
107790,note_on,0,0,3,,,,,,,,,2,,,48,36
107790,note_on,0,0,1,,,,,,,,,0,,,67,49
107790,note_on,0,0,3,,,,,,,,,2,,,36,36
107790,note_on,0,0,3,,,,,,,,,2,,,36,0
107790,note_on,120,0,3,,,,,,,,,2,,,48,0
108030,note_on,240,0,3,,,,,,,,,2,,,48,0
108030,note_on,0,0,3,,,,,,,,,2,,,36,36
108030,note_on,0,0,3,,,,,,,,,2,,,48,36
108030,note_on,0,0,1,,,,,,,,,0,,,67,0
108030,note_on,0,0,1,,,,,,,,,0,,,62,49
108030,note_on,0,0,1,,,,,,,,,0,,,66,49
108030,note_on,0,0,1,,,,,,,,,0,,,69,49
108030,note_on,0,0,3,,,,,,,,,2,,,36,0
108030,note_on,240,0,1,,,,,,,,,0,,,71,0
108150,note_on,120,0,3,,,,,,,,,2,,,48,0
108150,note_on,0,0,3,,,,,,,,,2,,,36,0
108150,control_change,0,0,3,,,,,,,,,2,64,127,,
108150,note_on,0,0,3,,,,,,,,,2,,,36,36
108150,note_on,0,0,3,,,,,,,,,2,,,48,36
108150,control_change,0,0,1,,,,,,,,,0,64,127,,
108150,note_on,0,0,1,,,,,,,,,0,,,69,36
108150,note_on,0,0,1,,,,,,,,,0,,,66,36
108150,note_on,0,0,1,,,,,,,,,0,,,62,0
108150,note_on,0,0,1,,,,,,,,,0,,,66,0
108150,note_on,120,0,1,,,,,,,,,0,,,69,0
108150,note_on,0,0,1,,,,,,,,,0,,,62,36
108390,note_on,0,0,3,,,,,,,,,2,,,36,0
108390,note_on,240,0,3,,,,,,,,,2,,,48,0
108390,note_on,0,0,3,,,,,,,,,2,,,48,36
108390,note_on,0,0,3,,,,,,,,,2,,,36,36
108390,note_on,0,0,1,,,,,,,,,0,,,62,36
108390,note_on,240,0,1,,,,,,,,,0,,,69,0
108390,note_on,0,0,1,,,,,,,,,0,,,66,0
108390,note_on,0,0,1,,,,,,,,,0,,,62,0
108390,note_on,0,0,1,,,,,,,,,0,,,66,36
108390,note_on,0,0,1,,,,,,,,,0,,,69,36
108510,note_on,120,0,3,,,,,,,,,2,,,48,0
108510,note_on,0,0,3,,,,,,,,,2,,,48,36
108510,note_on,0,0,3,,,,,,,,,2,,,36,0
108510,note_on,0,0,1,,,,,,,,,0,,,69,36
108510,note_on,0,0,1,,,,,,,,,0,,,66,36
108510,note_on,0,0,3,,,,,,,,,2,,,36,36
108510,note_on,0,0,1,,,,,,,,,0,,,62,0
108510,note_on,0,0,1,,,,,,,,,0,,,66,0
108510,note_on,120,0,1,,,,,,,,,0,,,69,0
108510,note_on,0,0,1,,,,,,,,,0,,,62,36
108630,note_on,0,0,3,,,,,,,,,2,,,36,36
108630,note_on,0,0,3,,,,,,,,,2,,,48,36
108630,note_on,120,0,3,,,,,,,,,2,,,48,0
108630,note_on,0,0,3,,,,,,,,,2,,,36,0
108630,note_on,0,0,1,,,,,,,,,0,,,69,36
108630,note_on,0,0,1,,,,,,,,,0,,,66,36
108630,note_on,0,0,1,,,,,,,,,0,,,62,36
108630,note_on,0,0,1,,,,,,,,,0,,,62,0
108630,note_on,0,0,1,,,,,,,,,0,,,66,0
108630,note_on,120,0,1,,,,,,,,,0,,,69,0
108750,note_on,0,0,3,,,,,,,,,2,,,36,0
108750,note_on,120,0,3,,,,,,,,,2,,,48,0
108750,note_on,0,0,3,,,,,,,,,2,,,36,36
108750,control_change,0,0,3,,,,,,,,,2,64,0,,
108750,control_change,0,0,1,,,,,,,,,0,64,0,,
108750,note_on,0,0,1,,,,,,,,,0,,,69,36
108750,note_on,0,0,1,,,,,,,,,0,,,66,36
108750,note_on,0,0,1,,,,,,,,,0,,,62,36
108750,note_on,0,0,1,,,,,,,,,0,,,62,0
108750,note_on,0,0,1,,,,,,,,,0,,,66,0
108750,note_on,120,0,1,,,,,,,,,0,,,69,0
108750,note_on,0,0,3,,,,,,,,,2,,,48,36
108870,note_on,120,0,3,,,,,,,,,2,,,48,0
108870,control_change,0,0,1,,,,,,,,,0,64,127,,
108870,control_change,0,0,3,,,,,,,,,2,64,127,,
108870,note_on,0,0,3,,,,,,,,,2,,,36,36
108870,note_on,0,0,3,,,,,,,,,2,,,48,36
108870,note_on,0,0,1,,,,,,,,,0,,,69,36
108870,note_on,0,0,1,,,,,,,,,0,,,66,36
108870,note_on,0,0,1,,,,,,,,,0,,,62,36
108870,note_on,0,0,1,,,,,,,,,0,,,62,0
108870,note_on,120,0,1,,,,,,,,,0,,,69,0
108870,note_on,0,0,3,,,,,,,,,2,,,36,0
108870,note_on,0,0,1,,,,,,,,,0,,,66,0
109110,note_on,240,0,3,,,,,,,,,2,,,48,0
109110,note_on,0,0,3,,,,,,,,,2,,,36,0
109110,note_on,0,0,3,,,,,,,,,2,,,36,36
109110,note_on,0,0,3,,,,,,,,,2,,,48,36
109110,note_on,0,0,1,,,,,,,,,0,,,69,36
109110,note_on,240,0,1,,,,,,,,,0,,,69,0
109110,note_on,0,0,1,,,,,,,,,0,,,66,0
109110,note_on,0,0,1,,,,,,,,,0,,,62,0
109110,note_on,0,0,1,,,,,,,,,0,,,62,36
109110,note_on,0,0,1,,,,,,,,,0,,,66,36
109230,note_on,120,0,1,,,,,,,,,0,,,69,0
109230,note_on,120,0,3,,,,,,,,,2,,,48,0
109230,note_on,0,0,3,,,,,,,,,2,,,48,36
109230,note_on,0,0,3,,,,,,,,,2,,,36,0
109230,note_on,0,0,3,,,,,,,,,2,,,36,36
109230,note_on,0,0,1,,,,,,,,,0,,,62,0
109230,note_on,0,0,1,,,,,,,,,0,,,62,36
109230,note_on,0,0,1,,,,,,,,,0,,,66,36
109230,note_on,0,0,1,,,,,,,,,0,,,69,36
109230,note_on,0,0,1,,,,,,,,,0,,,66,0
109350,note_on,0,0,1,,,,,,,,,0,,,69,36
109350,note_on,120,0,1,,,,,,,,,0,,,69,0
109350,note_on,0,0,1,,,,,,,,,0,,,66,0
109350,note_on,0,0,1,,,,,,,,,0,,,62,0
109350,note_on,0,0,1,,,,,,,,,0,,,62,36
109350,note_on,0,0,1,,,,,,,,,0,,,66,36
109350,note_on,120,0,3,,,,,,,,,2,,,48,0
109350,note_on,0,0,3,,,,,,,,,2,,,48,36
109350,note_on,0,0,3,,,,,,,,,2,,,36,36
109350,note_on,0,0,3,,,,,,,,,2,,,36,0
109470,note_on,0,0,3,,,,,,,,,2,,,36,0
109470,control_change,0,0,3,,,,,,,,,2,64,0,,
109470,note_on,0,0,3,,,,,,,,,2,,,36,36
109470,note_on,0,0,3,,,,,,,,,2,,,48,36
109470,note_on,0,0,1,,,,,,,,,0,,,62,36
109470,note_on,120,0,1,,,,,,,,,0,,,69,0
109470,note_on,0,0,1,,,,,,,,,0,,,66,0
109470,note_on,120,0,3,,,,,,,,,2,,,48,0
109470,note_on,0,0,1,,,,,,,,,0,,,62,0
109470,note_on,0,0,1,,,,,,,,,0,,,66,36
109470,control_change,0,0,1,,,,,,,,,0,64,0,,
109470,note_on,0,0,1,,,,,,,,,0,,,69,36
109590,note_on,0,0,1,,,,,,,,,0,,,63,36
109590,note_on,0,0,1,,,,,,,,,0,,,66,36
109590,note_on,0,0,1,,,,,,,,,0,,,71,36
109590,note_on,0,0,1,,,,,,,,,0,,,66,0
109590,note_on,0,0,3,,,,,,,,,2,,,47,36
109590,note_on,0,0,3,,,,,,,,,2,,,35,36
109590,control_change,0,0,3,,,,,,,,,2,64,127,,
109590,note_on,0,0,3,,,,,,,,,2,,,36,0
109590,note_on,120,0,3,,,,,,,,,2,,,48,0
109590,control_change,0,0,1,,,,,,,,,0,64,127,,
109590,note_on,120,0,1,,,,,,,,,0,,,69,0
109590,note_on,0,0,1,,,,,,,,,0,,,62,0
109830,note_on,0,0,3,,,,,,,,,2,,,47,36
109830,note_on,0,0,3,,,,,,,,,2,,,35,0
109830,note_on,240,0,3,,,,,,,,,2,,,47,0
109830,note_on,240,0,1,,,,,,,,,0,,,71,0
109830,note_on,0,0,1,,,,,,,,,0,,,66,0
109830,note_on,0,0,1,,,,,,,,,0,,,63,0
109830,note_on,0,0,1,,,,,,,,,0,,,63,36
109830,note_on,0,0,1,,,,,,,,,0,,,66,36
109830,note_on,0,0,1,,,,,,,,,0,,,71,36
109950,note_on,0,0,1,,,,,,,,,0,,,66,36
109950,note_on,0,0,1,,,,,,,,,0,,,71,36
109950,note_on,0,0,1,,,,,,,,,0,,,63,36
109950,note_on,0,0,1,,,,,,,,,0,,,63,0
109950,note_on,120,0,3,,,,,,,,,2,,,47,0
109950,note_on,0,0,3,,,,,,,,,2,,,47,36
109950,note_on,0,0,1,,,,,,,,,0,,,66,0
109950,note_on,120,0,1,,,,,,,,,0,,,71,0
110070,note_on,0,0,3,,,,,,,,,2,,,47,36
110070,note_on,120,0,1,,,,,,,,,0,,,71,0
110070,note_on,0,0,1,,,,,,,,,0,,,66,0
110070,note_on,0,0,1,,,,,,,,,0,,,63,0
110070,note_on,0,0,1,,,,,,,,,0,,,63,36
110070,note_on,0,0,1,,,,,,,,,0,,,66,36
110070,note_on,0,0,1,,,,,,,,,0,,,71,36
110070,note_on,120,0,3,,,,,,,,,2,,,47,0
110190,note_on,0,0,1,,,,,,,,,0,,,66,0
110190,note_on,120,0,3,,,,,,,,,2,,,47,0
110190,note_on,0,0,1,,,,,,,,,0,,,63,0
110190,note_on,0,0,3,,,,,,,,,2,,,47,36
110190,note_on,120,0,1,,,,,,,,,0,,,71,0
110190,note_on,0,0,3,,,,,,,,,2,,,45,36
110190,note_on,0,0,1,,,,,,,,,0,,,63,36
110190,control_change,0,0,3,,,,,,,,,2,64,0,,
110190,control_change,0,0,1,,,,,,,,,0,64,0,,
110190,note_on,0,0,1,,,,,,,,,0,,,71,36
110190,note_on,0,0,1,,,,,,,,,0,,,66,36
110310,note_on,0,0,3,,,,,,,,,2,,,45,0
110310,control_change,0,0,3,,,,,,,,,2,64,127,,
110310,note_on,0,0,3,,,,,,,,,2,,,43,36
110310,note_on,0,0,3,,,,,,,,,2,,,47,36
110310,note_on,0,0,3,,,,,,,,,2,,,55,36
110310,note_on,120,0,1,,,,,,,,,0,,,71,0
110310,note_on,0,0,1,,,,,,,,,0,,,66,0
110310,note_on,120,0,3,,,,,,,,,2,,,47,0
110310,control_change,0,0,1,,,,,,,,,0,64,127,,
110310,note_on,0,0,1,,,,,,,,,0,,,71,49
110310,note_on,0,0,1,,,,,,,,,0,,,67,49
110310,note_on,0,0,1,,,,,,,,,0,,,62,49
110310,note_on,0,0,1,,,,,,,,,0,,,63,0
110430,note_on,120,0,1,,,,,,,,,0,,,71,0
110430,note_on,0,0,1,,,,,,,,,0,,,64,49
110430,note_on,0,0,1,,,,,,,,,0,,,62,0
110430,note_on,0,0,1,,,,,,,,,0,,,67,0
110430,note_on,0,0,1,,,,,,,,,0,,,76,49
110430,note_on,120,0,3,,,,,,,,,2,,,55,0
110430,note_on,0,0,3,,,,,,,,,2,,,47,0
110430,note_on,0,0,3,,,,,,,,,2,,,43,0
110430,note_on,0,0,1,,,,,,,,,0,,,67,49
110430,note_on,0,0,3,,,,,,,,,2,,,48,36
110430,note_on,0,0,3,,,,,,,,,2,,,50,36
110430,note_on,0,0,3,,,,,,,,,2,,,60,36
110550,note_on,0,0,1,,,,,,,,,0,,,67,49
110550,note_on,120,0,1,,,,,,,,,0,,,76,0
110550,note_on,120,0,3,,,,,,,,,2,,,60,0
110550,note_on,0,0,3,,,,,,,,,2,,,50,0
110550,note_on,0,0,3,,,,,,,,,2,,,48,0
110550,note_on,0,0,3,,,,,,,,,2,,,47,36
110550,note_on,0,0,3,,,,,,,,,2,,,50,36
110550,note_on,0,0,3,,,,,,,,,2,,,59,36
110550,note_on,0,0,1,,,,,,,,,0,,,67,0
110550,note_on,0,0,1,,,,,,,,,0,,,64,0
110550,note_on,0,0,1,,,,,,,,,0,,,62,49
110550,note_on,0,0,1,,,,,,,,,0,,,74,49
110670,note_on,120,0,1,,,,,,,,,0,,,74,0
110670,note_on,0,0,3,,,,,,,,,2,,,59,36
110670,note_on,0,0,1,,,,,,,,,0,,,67,0
110670,note_on,0,0,3,,,,,,,,,2,,,50,36
110670,note_on,0,0,3,,,,,,,,,2,,,47,36
110670,note_on,0,0,3,,,,,,,,,2,,,47,0
110670,note_on,0,0,3,,,,,,,,,2,,,50,0
110670,note_on,120,0,3,,,,,,,,,2,,,59,0
110670,note_on,0,0,1,,,,,,,,,0,,,62,36
110670,note_on,0,0,1,,,,,,,,,0,,,62,0
110670,note_on,0,0,1,,,,,,,,,0,,,67,36
110670,note_on,0,0,1,,,,,,,,,0,,,74,36
110790,note_on,0,0,1,,,,,,,,,0,,,67,0
110790,note_on,0,0,1,,,,,,,,,0,,,62,0
110790,note_on,0,0,1,,,,,,,,,0,,,62,36
110790,note_on,0,0,1,,,,,,,,,0,,,67,36
110790,note_on,0,0,1,,,,,,,,,0,,,74,36
110790,note_on,0,0,3,,,,,,,,,2,,,59,36
110790,note_on,0,0,3,,,,,,,,,2,,,50,36
110790,note_on,0,0,3,,,,,,,,,2,,,47,36
110790,note_on,0,0,3,,,,,,,,,2,,,47,0
110790,note_on,0,0,3,,,,,,,,,2,,,50,0
110790,note_on,120,0,3,,,,,,,,,2,,,59,0
110790,note_on,120,0,1,,,,,,,,,0,,,74,0
110910,note_on,120,0,1,,,,,,,,,0,,,74,0
110910,note_on,0,0,1,,,,,,,,,0,,,67,0
110910,note_on,0,0,1,,,,,,,,,0,,,62,0
110910,note_on,0,0,3,,,,,,,,,2,,,47,0
110910,note_on,0,0,1,,,,,,,,,0,,,67,36
110910,note_on,0,0,1,,,,,,,,,0,,,74,36
110910,note_on,120,0,3,,,,,,,,,2,,,59,0
110910,note_on,0,0,3,,,,,,,,,2,,,50,0
110910,note_on,0,0,3,,,,,,,,,2,,,59,36
110910,note_on,0,0,3,,,,,,,,,2,,,50,36
110910,note_on,0,0,3,,,,,,,,,2,,,47,36
110910,note_on,0,0,1,,,,,,,,,0,,,62,36
110910,control_change,0,0,3,,,,,,,,,2,64,0,,
110910,control_change,0,0,1,,,,,,,,,0,64,0,,
111030,note_on,0,0,1,,,,,,,,,0,,,62,52
111030,note_on,0,0,1,,,,,,,,,0,,,74,62
111030,note_on,0,0,1,,,,,,,,,0,,,67,57
111030,note_on,0,0,1,,,,,,,,,0,,,62,0
111030,note_on,0,0,1,,,,,,,,,0,,,67,0
111030,note_on,120,0,1,,,,,,,,,0,,,74,0
111030,control_change,0,0,3,,,,,,,,,2,64,127,,
111030,control_change,0,0,1,,,,,,,,,0,64,127,,
111030,note_on,0,0,3,,,,,,,,,2,,,47,0
111030,note_on,0,0,3,,,,,,,,,2,,,50,57
111030,note_on,0,0,3,,,,,,,,,2,,,59,62
111030,note_on,0,0,3,,,,,,,,,2,,,50,0
111030,note_on,120,0,3,,,,,,,,,2,,,59,0
111030,note_on,0,0,3,,,,,,,,,2,,,47,52
111150,note_on,120,0,3,,,,,,,,,2,,,59,0
111150,note_on,0,0,1,,,,,,,,,0,,,57,36
111150,note_on,0,0,3,,,,,,,,,2,,,50,0
111150,note_on,0,0,1,,,,,,,,,0,,,62,0
111150,note_on,0,0,3,,,,,,,,,2,,,42,36
111150,note_on,120,0,1,,,,,,,,,0,,,74,0
111150,note_on,0,0,3,,,,,,,,,2,,,47,0
111150,note_on,0,0,3,,,,,,,,,2,,,54,36
111150,note_on,0,0,3,,,,,,,,,2,,,50,36
111150,note_on,0,0,1,,,,,,,,,0,,,69,36
111150,note_on,0,0,1,,,,,,,,,0,,,62,36
111150,note_on,0,0,1,,,,,,,,,0,,,67,0
111270,note_on,0,0,1,,,,,,,,,0,,,72,36
111270,note_on,0,0,1,,,,,,,,,0,,,60,36
111270,note_on,0,0,3,,,,,,,,,2,,,45,36
111270,note_on,0,0,3,,,,,,,,,2,,,50,0
111270,note_on,0,0,1,,,,,,,,,0,,,57,0
111270,note_on,0,0,1,,,,,,,,,0,,,62,0
111270,note_on,120,0,1,,,,,,,,,0,,,69,0
111270,note_on,120,0,3,,,,,,,,,2,,,54,0
111270,note_on,0,0,3,,,,,,,,,2,,,42,0
111270,control_change,0,0,1,,,,,,,,,0,64,0,,
111270,note_on,0,0,1,,,,,,,,,0,,,62,36
111270,note_on,0,0,3,,,,,,,,,2,,,50,36
111270,note_on,0,0,3,,,,,,,,,2,,,57,36
111270,control_change,0,0,3,,,,,,,,,2,64,0,,
111390,control_change,0,0,3,,,,,,,,,2,64,127,,
111390,note_on,120,0,3,,,,,,,,,2,,,57,0
111390,note_on,0,0,3,,,,,,,,,2,,,45,36
111390,note_on,0,0,3,,,,,,,,,2,,,50,36
111390,note_on,0,0,3,,,,,,,,,2,,,50,0
111390,note_on,0,0,3,,,,,,,,,2,,,45,0
111390,note_on,0,0,3,,,,,,,,,2,,,57,36
111390,note_on,120,0,1,,,,,,,,,0,,,72,0
111390,note_on,0,0,1,,,,,,,,,0,,,62,0
111390,note_on,0,0,1,,,,,,,,,0,,,60,0
111390,note_on,0,0,1,,,,,,,,,0,,,60,36
111390,note_on,0,0,1,,,,,,,,,0,,,62,36
111390,note_on,0,0,1,,,,,,,,,0,,,72,36
111390,control_change,0,0,1,,,,,,,,,0,64,127,,
111510,note_on,0,0,3,,,,,,,,,2,,,55,36
111510,note_on,0,0,3,,,,,,,,,2,,,50,36
111510,note_on,0,0,3,,,,,,,,,2,,,43,36
111510,note_on,120,0,3,,,,,,,,,2,,,57,0
111510,note_on,0,0,3,,,,,,,,,2,,,50,0
111510,note_on,0,0,3,,,,,,,,,2,,,45,0
111510,note_on,0,0,1,,,,,,,,,0,,,62,36
111510,note_on,0,0,1,,,,,,,,,0,,,59,36
111510,note_on,0,0,1,,,,,,,,,0,,,60,0
111510,note_on,0,0,1,,,,,,,,,0,,,62,0
111510,note_on,120,0,1,,,,,,,,,0,,,72,0
111510,note_on,0,0,1,,,,,,,,,0,,,71,36
111630,note_on,120,0,3,,,,,,,,,2,,,55,0
111630,note_on,0,0,3,,,,,,,,,2,,,50,0
111630,note_on,0,0,3,,,,,,,,,2,,,43,0
111630,control_change,0,0,3,,,,,,,,,2,64,0,,
111630,note_on,0,0,3,,,,,,,,,2,,,42,36
111630,note_on,0,0,3,,,,,,,,,2,,,50,36
111630,note_on,0,0,1,,,,,,,,,0,,,69,36
111630,note_on,0,0,3,,,,,,,,,2,,,54,36
111630,control_change,0,0,1,,,,,,,,,0,64,0,,
111630,note_on,0,0,1,,,,,,,,,0,,,57,36
111630,note_on,0,0,1,,,,,,,,,0,,,62,36
111630,note_on,120,0,1,,,,,,,,,0,,,71,0
111630,note_on,0,0,1,,,,,,,,,0,,,62,0
111630,note_on,0,0,1,,,,,,,,,0,,,59,0
111750,note_on,0,0,1,,,,,,,,,0,,,69,62
111750,note_on,120,0,3,,,,,,,,,2,,,54,0
111750,note_on,0,0,3,,,,,,,,,2,,,50,0
111750,note_on,0,0,3,,,,,,,,,2,,,42,0
111750,control_change,0,0,3,,,,,,,,,2,64,127,,
111750,note_on,0,0,3,,,,,,,,,2,,,42,52
111750,note_on,0,0,3,,,,,,,,,2,,,50,57
111750,control_change,0,0,1,,,,,,,,,0,64,127,,
111750,note_on,0,0,3,,,,,,,,,2,,,54,62
111750,note_on,0,0,1,,,,,,,,,0,,,57,0
111750,note_on,0,0,1,,,,,,,,,0,,,62,57
111750,note_on,0,0,1,,,,,,,,,0,,,57,52
111750,note_on,0,0,1,,,,,,,,,0,,,62,0
111750,note_on,120,0,1,,,,,,,,,0,,,69,0
111870,note_on,0,0,3,,,,,,,,,2,,,43,36
111870,note_on,120,0,1,,,,,,,,,0,,,69,0
111870,note_on,0,0,1,,,,,,,,,0,,,71,36
111870,note_on,0,0,3,,,,,,,,,2,,,50,36
111870,note_on,0,0,1,,,,,,,,,0,,,59,36
111870,note_on,0,0,3,,,,,,,,,2,,,55,36
111870,note_on,0,0,1,,,,,,,,,0,,,62,0
111870,note_on,0,0,1,,,,,,,,,0,,,62,36
111870,note_on,0,0,3,,,,,,,,,2,,,42,0
111870,note_on,120,0,3,,,,,,,,,2,,,54,0
111870,note_on,0,0,3,,,,,,,,,2,,,50,0
111870,note_on,0,0,1,,,,,,,,,0,,,57,0
111990,note_on,0,0,3,,,,,,,,,2,,,55,36
111990,note_on,0,0,3,,,,,,,,,2,,,50,0
111990,note_on,120,0,3,,,,,,,,,2,,,55,0
111990,control_change,0,0,1,,,,,,,,,0,64,0,,
111990,note_on,0,0,1,,,,,,,,,0,,,71,36
111990,note_on,0,0,1,,,,,,,,,0,,,62,36
111990,note_on,0,0,1,,,,,,,,,0,,,59,0
111990,note_on,0,0,1,,,,,,,,,0,,,62,0
111990,note_on,120,0,1,,,,,,,,,0,,,71,0
111990,note_on,0,0,3,,,,,,,,,2,,,43,36
111990,control_change,0,0,3,,,,,,,,,2,64,0,,
111990,note_on,0,0,3,,,,,,,,,2,,,50,36
111990,note_on,0,0,1,,,,,,,,,0,,,59,36
111990,note_on,0,0,3,,,,,,,,,2,,,43,0
112110,note_on,0,0,3,,,,,,,,,2,,,50,36
112110,note_on,0,0,3,,,,,,,,,2,,,50,0
112110,note_on,120,0,3,,,,,,,,,2,,,55,0
112110,control_change,0,0,1,,,,,,,,,0,64,127,,
112110,note_on,0,0,1,,,,,,,,,0,,,71,36
112110,note_on,0,0,1,,,,,,,,,0,,,62,36
112110,note_on,0,0,1,,,,,,,,,0,,,59,36
112110,note_on,0,0,1,,,,,,,,,0,,,62,0
112110,note_on,120,0,1,,,,,,,,,0,,,71,0
112110,note_on,0,0,1,,,,,,,,,0,,,59,0
112110,control_change,0,0,3,,,,,,,,,2,64,127,,
112110,note_on,0,0,3,,,,,,,,,2,,,43,0
112110,note_on,0,0,3,,,,,,,,,2,,,43,36
112110,note_on,0,0,3,,,,,,,,,2,,,55,36
112230,note_on,0,0,1,,,,,,,,,0,,,71,36
112230,note_on,0,0,1,,,,,,,,,0,,,67,36
112230,note_on,0,0,1,,,,,,,,,0,,,59,36
112230,note_on,0,0,1,,,,,,,,,0,,,59,0
112230,note_on,0,0,1,,,,,,,,,0,,,62,0
112230,note_on,120,0,1,,,,,,,,,0,,,71,0
112230,note_on,0,0,3,,,,,,,,,2,,,43,36
112230,note_on,120,0,3,,,,,,,,,2,,,55,0
112230,note_on,0,0,3,,,,,,,,,2,,,50,36
112230,note_on,0,0,3,,,,,,,,,2,,,50,0
112230,note_on,0,0,3,,,,,,,,,2,,,43,0
112230,note_on,0,0,3,,,,,,,,,2,,,55,36
112350,control_change,0,0,1,,,,,,,,,0,64,0,,
112350,note_on,0,0,1,,,,,,,,,0,,,72,36
112350,note_on,0,0,1,,,,,,,,,0,,,67,36
112350,note_on,0,0,1,,,,,,,,,0,,,60,36
112350,note_on,0,0,1,,,,,,,,,0,,,59,0
112350,note_on,0,0,1,,,,,,,,,0,,,67,0
112350,note_on,120,0,1,,,,,,,,,0,,,71,0
112350,note_on,120,0,3,,,,,,,,,2,,,55,0
112350,note_on,0,0,3,,,,,,,,,2,,,50,0
112350,note_on,0,0,3,,,,,,,,,2,,,43,0
112350,control_change,0,0,3,,,,,,,,,2,64,0,,
112350,note_on,0,0,3,,,,,,,,,2,,,45,36
112350,note_on,0,0,3,,,,,,,,,2,,,50,36
112350,note_on,0,0,3,,,,,,,,,2,,,57,36
112470,note_on,120,0,1,,,,,,,,,0,,,72,0
112470,note_on,0,0,1,,,,,,,,,0,,,67,0
112470,note_on,0,0,3,,,,,,,,,2,,,50,75
112470,note_on,0,0,1,,,,,,,,,0,,,62,88
112470,note_on,0,0,1,,,,,,,,,0,,,67,88
112470,note_on,0,0,1,,,,,,,,,0,,,74,88
112470,control_change,0,0,1,,,,,,,,,0,64,127,,
112470,note_on,120,0,3,,,,,,,,,2,,,57,0
112470,note_on,0,0,3,,,,,,,,,2,,,50,0
112470,note_on,0,0,3,,,,,,,,,2,,,45,0
112470,control_change,0,0,3,,,,,,,,,2,64,127,,
112470,note_on,0,0,3,,,,,,,,,2,,,47,75
112470,note_on,0,0,3,,,,,,,,,2,,,59,75
112470,note_on,0,0,1,,,,,,,,,0,,,60,0
112710,note_on,240,0,3,,,,,,,,,2,,,59,0
112710,note_on,0,0,3,,,,,,,,,2,,,50,0
112710,note_on,0,0,3,,,,,,,,,2,,,47,36
112710,note_on,0,0,3,,,,,,,,,2,,,50,36
112710,note_on,0,0,3,,,,,,,,,2,,,59,36
112710,note_on,0,0,1,,,,,,,,,0,,,74,49
112710,note_on,0,0,1,,,,,,,,,0,,,67,49
112710,note_on,0,0,1,,,,,,,,,0,,,62,0
112710,note_on,0,0,1,,,,,,,,,0,,,67,0
112710,note_on,240,0,1,,,,,,,,,0,,,74,0
112710,note_on,0,0,3,,,,,,,,,2,,,47,0
112710,note_on,0,0,1,,,,,,,,,0,,,62,49
112830,note_on,0,0,1,,,,,,,,,0,,,67,49
112830,note_on,120,0,3,,,,,,,,,2,,,59,0
112830,note_on,0,0,3,,,,,,,,,2,,,50,0
112830,note_on,0,0,3,,,,,,,,,2,,,47,0
112830,note_on,0,0,3,,,,,,,,,2,,,47,36
112830,note_on,0,0,3,,,,,,,,,2,,,50,36
112830,note_on,0,0,3,,,,,,,,,2,,,59,36
112830,note_on,120,0,1,,,,,,,,,0,,,74,0
112830,note_on,0,0,1,,,,,,,,,0,,,67,0
112830,note_on,0,0,1,,,,,,,,,0,,,62,0
112830,note_on,0,0,1,,,,,,,,,0,,,62,49
112830,note_on,0,0,1,,,,,,,,,0,,,74,49
112950,note_on,0,0,1,,,,,,,,,0,,,72,49
112950,note_on,0,0,1,,,,,,,,,0,,,62,0
112950,note_on,0,0,1,,,,,,,,,0,,,67,0
112950,note_on,0,0,3,,,,,,,,,2,,,50,0
112950,note_on,0,0,1,,,,,,,,,0,,,60,49
112950,note_on,120,0,1,,,,,,,,,0,,,74,0
112950,note_on,0,0,1,,,,,,,,,0,,,67,49
112950,note_on,0,0,3,,,,,,,,,2,,,47,0
112950,note_on,120,0,3,,,,,,,,,2,,,59,0
112950,note_on,0,0,3,,,,,,,,,2,,,45,36
112950,note_on,0,0,3,,,,,,,,,2,,,50,36
112950,note_on,0,0,3,,,,,,,,,2,,,57,36
113070,control_change,0,0,1,,,,,,,,,0,64,0,,
113070,note_on,0,0,1,,,,,,,,,0,,,71,49
113070,note_on,0,0,1,,,,,,,,,0,,,67,49
113070,note_on,0,0,1,,,,,,,,,0,,,59,49
113070,note_on,0,0,1,,,,,,,,,0,,,60,0
113070,note_on,0,0,3,,,,,,,,,2,,,55,36
113070,note_on,120,0,1,,,,,,,,,0,,,72,0
113070,note_on,0,0,3,,,,,,,,,2,,,43,36
113070,note_on,120,0,3,,,,,,,,,2,,,57,0
113070,note_on,0,0,3,,,,,,,,,2,,,50,0
113070,note_on,0,0,3,,,,,,,,,2,,,45,0
113070,control_change,0,0,3,,,,,,,,,2,64,0,,
113070,note_on,0,0,3,,,,,,,,,2,,,50,36
113070,note_on,0,0,1,,,,,,,,,0,,,67,0
113190,note_on,0,0,1,,,,,,,,,0,,,67,0
113190,note_on,0,0,1,,,,,,,,,0,,,59,0
113190,note_on,0,0,1,,,,,,,,,0,,,62,75
113190,note_on,0,0,1,,,,,,,,,0,,,67,75
113190,note_on,0,0,1,,,,,,,,,0,,,74,75
113190,control_change,0,0,1,,,,,,,,,0,64,127,,
113190,note_on,120,0,1,,,,,,,,,0,,,71,0
113190,note_on,0,0,3,,,,,,,,,2,,,59,62
113190,note_on,0,0,3,,,,,,,,,2,,,55,62
113190,note_on,0,0,3,,,,,,,,,2,,,47,62
113190,control_change,0,0,3,,,,,,,,,2,64,127,,
113190,note_on,0,0,3,,,,,,,,,2,,,43,0
113190,note_on,0,0,3,,,,,,,,,2,,,50,0
113190,note_on,120,0,3,,,,,,,,,2,,,55,0
113310,note_on,0,0,1,,,,,,,,,0,,,62,0
113310,note_on,0,0,1,,,,,,,,,0,,,67,75
113310,note_on,0,0,1,,,,,,,,,0,,,71,75
113310,note_on,0,0,1,,,,,,,,,0,,,67,0
113310,note_on,120,0,1,,,,,,,,,0,,,74,0
113310,note_on,0,0,3,,,,,,,,,2,,,62,62
113310,note_on,0,0,1,,,,,,,,,0,,,79,75
113310,note_on,0,0,3,,,,,,,,,2,,,59,62
113310,note_on,0,0,3,,,,,,,,,2,,,50,62
113310,note_on,0,0,3,,,,,,,,,2,,,47,0
113310,note_on,0,0,3,,,,,,,,,2,,,55,0
113310,note_on,120,0,3,,,,,,,,,2,,,59,0
113430,note_on,0,0,1,,,,,,,,,0,,,67,0
113430,note_on,0,0,1,,,,,,,,,0,,,71,75
113430,note_on,0,0,1,,,,,,,,,0,,,74,75
113430,note_on,0,0,1,,,,,,,,,0,,,83,75
113430,note_on,0,0,1,,,,,,,,,0,,,71,0
113430,note_on,120,0,1,,,,,,,,,0,,,79,0
113430,note_on,0,0,3,,,,,,,,,2,,,67,62
113430,note_on,0,0,3,,,,,,,,,2,,,62,62
113430,note_on,0,0,3,,,,,,,,,2,,,55,62
113430,note_on,0,0,3,,,,,,,,,2,,,50,0
113430,note_on,0,0,3,,,,,,,,,2,,,59,0
113430,note_on,120,0,3,,,,,,,,,2,,,62,0
113550,note_on,120,0,1,,,,,,,,,0,,,83,0
113550,note_on,0,0,1,,,,,,,,,0,,,74,0
113550,note_on,0,0,1,,,,,,,,,0,,,71,101
113550,note_on,0,0,1,,,,,,,,,0,,,74,101
113550,note_on,0,0,1,,,,,,,,,0,,,83,101
113550,note_on,0,0,1,,,,,,,,,0,,,71,0
113550,note_on,0,0,3,,,,,,,,,2,,,62,88
113550,note_on,120,0,3,,,,,,,,,2,,,67,0
113550,note_on,0,0,3,,,,,,,,,2,,,62,0
113550,note_on,0,0,3,,,,,,,,,2,,,55,0
113550,note_on,0,0,3,,,,,,,,,2,,,55,88
113550,note_on,0,0,3,,,,,,,,,2,,,67,88
113670,note_on,0,0,3,,,,,,,,,2,,,67,88
113670,note_on,0,0,3,,,,,,,,,2,,,62,88
113670,note_on,0,0,3,,,,,,,,,2,,,55,88
113670,note_on,0,0,3,,,,,,,,,2,,,55,0
113670,note_on,0,0,3,,,,,,,,,2,,,62,0
113670,note_on,0,0,1,,,,,,,,,0,,,74,101
113670,note_on,120,0,1,,,,,,,,,0,,,83,0
113670,note_on,0,0,1,,,,,,,,,0,,,74,0
113670,note_on,0,0,1,,,,,,,,,0,,,71,0
113670,note_on,0,0,1,,,,,,,,,0,,,71,101
113670,note_on,120,0,3,,,,,,,,,2,,,67,0
113670,note_on,0,0,1,,,,,,,,,0,,,83,101
113790,note_on,120,0,3,,,,,,,,,2,,,67,0
113790,note_on,0,0,3,,,,,,,,,2,,,55,0
113790,control_change,0,0,3,,,,,,,,,2,64,0,,
113790,note_on,120,0,1,,,,,,,,,0,,,83,0
113790,note_on,0,0,1,,,,,,,,,0,,,74,0
113790,note_on,0,0,1,,,,,,,,,0,,,71,0
113790,note_on,0,0,1,,,,,,,,,0,,,71,101
113790,note_on,0,0,3,,,,,,,,,2,,,62,0
113790,note_on,0,0,1,,,,,,,,,0,,,83,101
113790,note_on,0,0,1,,,,,,,,,0,,,74,101
113790,note_on,0,0,3,,,,,,,,,2,,,67,88
113790,note_on,0,0,3,,,,,,,,,2,,,55,88
113790,control_change,0,0,1,,,,,,,,,0,64,0,,
113790,note_on,0,0,3,,,,,,,,,2,,,62,88
113910,control_change,0,0,1,,,,,,,,,0,64,127,,
113910,note_on,0,0,1,,,,,,,,,0,,,71,114
113910,note_on,0,0,1,,,,,,,,,0,,,83,114
113910,note_on,0,0,1,,,,,,,,,0,,,75,114
113910,note_on,0,0,1,,,,,,,,,0,,,71,0
113910,note_on,120,0,1,,,,,,,,,0,,,83,0
113910,control_change,0,0,3,,,,,,,,,2,64,127,,
113910,note_on,120,0,3,,,,,,,,,2,,,67,0
113910,note_on,0,0,3,,,,,,,,,2,,,62,0
113910,note_on,0,0,1,,,,,,,,,0,,,74,0
113910,note_on,0,0,3,,,,,,,,,2,,,55,0
113910,note_on,0,0,3,,,,,,,,,2,,,66,101
113910,note_on,0,0,3,,,,,,,,,2,,,63,101
113910,note_on,0,0,3,,,,,,,,,2,,,54,101
114030,note_on,0,0,3,,,,,,,,,2,,,66,101
114030,note_on,0,0,3,,,,,,,,,2,,,63,101
114030,note_on,0,0,3,,,,,,,,,2,,,54,101
114030,note_on,0,0,3,,,,,,,,,2,,,54,0
114030,note_on,0,0,3,,,,,,,,,2,,,63,0
114030,note_on,120,0,3,,,,,,,,,2,,,66,0
114030,note_on,0,0,1,,,,,,,,,0,,,83,114
114030,note_on,0,0,1,,,,,,,,,0,,,75,114
114030,note_on,0,0,1,,,,,,,,,0,,,71,114
114030,note_on,0,0,1,,,,,,,,,0,,,71,0
114030,note_on,0,0,1,,,,,,,,,0,,,75,0
114030,note_on,120,0,1,,,,,,,,,0,,,83,0
114150,note_on,120,0,1,,,,,,,,,0,,,83,0
114150,note_on,0,0,1,,,,,,,,,0,,,71,0
114150,note_on,0,0,1,,,,,,,,,0,,,71,101
114150,note_on,0,0,1,,,,,,,,,0,,,75,101
114150,note_on,0,0,1,,,,,,,,,0,,,83,101
114150,note_on,120,0,3,,,,,,,,,2,,,66,0
114150,note_on,0,0,3,,,,,,,,,2,,,54,0
114150,note_on,0,0,3,,,,,,,,,2,,,54,88
114150,note_on,0,0,3,,,,,,,,,2,,,63,88
114150,note_on,0,0,1,,,,,,,,,0,,,75,0
114150,note_on,0,0,3,,,,,,,,,2,,,63,0
114150,note_on,0,0,3,,,,,,,,,2,,,66,88
114270,note_on,120,0,3,,,,,,,,,2,,,66,0
114270,note_on,0,0,1,,,,,,,,,0,,,75,88
114270,note_on,0,0,1,,,,,,,,,0,,,83,88
114270,note_on,0,0,1,,,,,,,,,0,,,75,0
114270,note_on,120,0,1,,,,,,,,,0,,,83,0
114270,note_on,0,0,1,,,,,,,,,0,,,71,0
114270,note_on,0,0,3,,,,,,,,,2,,,66,75
114270,note_on,0,0,1,,,,,,,,,0,,,71,88
114270,note_on,0,0,3,,,,,,,,,2,,,54,75
114270,note_on,0,0,3,,,,,,,,,2,,,63,0
114270,note_on,0,0,3,,,,,,,,,2,,,54,0
114270,note_on,0,0,3,,,,,,,,,2,,,63,75
114390,note_on,120,0,3,,,,,,,,,2,,,66,0
114390,note_on,0,0,1,,,,,,,,,0,,,83,75
114390,note_on,0,0,1,,,,,,,,,0,,,75,75
114390,note_on,0,0,1,,,,,,,,,0,,,71,75
114390,note_on,0,0,1,,,,,,,,,0,,,75,0
114390,note_on,120,0,1,,,,,,,,,0,,,83,0
114390,note_on,0,0,3,,,,,,,,,2,,,66,62
114390,note_on,0,0,3,,,,,,,,,2,,,63,62
114390,note_on,0,0,3,,,,,,,,,2,,,54,62
114390,note_on,0,0,3,,,,,,,,,2,,,54,0
114390,note_on,0,0,3,,,,,,,,,2,,,63,0
114390,note_on,0,0,1,,,,,,,,,0,,,71,0
114510,note_on,120,0,1,,,,,,,,,0,,,83,0
114510,note_on,0,0,1,,,,,,,,,0,,,75,0
114510,control_change,0,0,1,,,,,,,,,0,64,0,,
114510,note_on,0,0,1,,,,,,,,,0,,,71,62
114510,note_on,0,0,1,,,,,,,,,0,,,75,62
114510,note_on,0,0,1,,,,,,,,,0,,,83,62
114510,note_on,0,0,3,,,,,,,,,2,,,63,49
114510,note_on,0,0,3,,,,,,,,,2,,,54,49
114510,control_change,0,0,3,,,,,,,,,2,64,0,,
114510,note_on,0,0,3,,,,,,,,,2,,,54,0
114510,note_on,0,0,3,,,,,,,,,2,,,63,0
114510,note_on,120,0,3,,,,,,,,,2,,,66,0
114510,note_on,0,0,1,,,,,,,,,0,,,71,0
114510,note_on,0,0,3,,,,,,,,,2,,,66,49
114630,time_signature,14400,1,0,4,4,24,8,,,,,,,,,
114630,note_on,0,0,1,,,,,,,,,0,,,75,0
114630,note_on,0,0,3,,,,,,,,,2,,,55,36
114630,note_on,0,0,3,,,,,,,,,2,,,62,36
114630,note_on,120,0,1,,,,,,,,,0,,,83,0
114630,note_on,120,0,3,,,,,,,,,2,,,66,0
114630,note_on,0,0,3,,,,,,,,,2,,,54,0
114630,note_on,0,0,3,,,,,,,,,2,,,63,0
114630,control_change,0,0,1,,,,,,,,,0,64,127,,
114630,note_on,0,0,1,,,,,,,,,0,,,83,36
114630,note_on,0,0,1,,,,,,,,,0,,,74,36
114630,note_on,0,0,1,,,,,,,,,0,,,71,36
114630,note_on,0,0,1,,,,,,,,,0,,,71,0
114630,control_change,0,0,3,,,,,,,,,2,64,127,,
114630,note_on,0,0,3,,,,,,,,,2,,,67,36
114750,note_on,0,0,3,,,,,,,,,2,,,57,36
114750,note_on,0,0,3,,,,,,,,,2,,,55,0
114750,note_on,0,0,3,,,,,,,,,2,,,62,0
114750,note_on,120,0,3,,,,,,,,,2,,,67,0
114750,note_on,0,0,3,,,,,,,,,2,,,62,36
114750,note_on,0,0,3,,,,,,,,,2,,,69,36
114750,note_on,0,0,1,,,,,,,,,0,,,74,36
114750,note_on,0,0,1,,,,,,,,,0,,,74,0
114750,note_on,0,0,1,,,,,,,,,0,,,71,0
114750,note_on,0,0,1,,,,,,,,,0,,,72,36
114750,note_on,120,0,1,,,,,,,,,0,,,83,0
114750,note_on,0,0,1,,,,,,,,,0,,,84,36
114870,note_on,0,0,3,,,,,,,,,2,,,57,0
114870,note_on,0,0,3,,,,,,,,,2,,,62,0
114870,note_on,120,0,3,,,,,,,,,2,,,69,0
114870,note_on,0,0,3,,,,,,,,,2,,,62,36
114870,note_on,0,0,3,,,,,,,,,2,,,71,36
114870,note_on,0,0,1,,,,,,,,,0,,,86,36
114870,control_change,0,0,3,,,,,,,,,2,64,0,,
114870,note_on,0,0,1,,,,,,,,,0,,,74,36
114870,note_on,0,0,1,,,,,,,,,0,,,72,0
114870,note_on,0,0,1,,,,,,,,,0,,,74,0
114870,note_on,120,0,1,,,,,,,,,0,,,84,0
114870,control_change,0,0,1,,,,,,,,,0,64,0,,
114870,note_on,0,0,3,,,,,,,,,2,,,59,36
114990,note_on,0,0,3,,,,,,,,,2,,,59,0
114990,note_on,120,0,1,,,,,,,,,0,,,86,0
114990,note_on,0,0,3,,,,,,,,,2,,,62,0
114990,note_on,0,0,1,,,,,,,,,0,,,74,0
114990,note_on,120,0,3,,,,,,,,,2,,,71,0
115110,time_signature,480,1,0,3,4,24,8,,,,,,,,,
115110,note_on,0,0,1,,,,,,,,,0,,,79,36
115110,note_on,0,0,3,,,,,,,,,2,,,52,36
115110,note_on,0,0,3,,,,,,,,,2,,,64,36
115110,note_on,0,0,1,,,,,,,,,0,,,71,36
115110,note_on,0,0,1,,,,,,,,,0,,,67,36
115110,control_change,120,0,1,,,,,,,,,0,64,127,,
115110,control_change,120,0,3,,,,,,,,,2,64,127,,
115230,note_on,120,0,3,,,,,,,,,2,,,64,0
115230,note_on,0,0,3,,,,,,,,,2,,,52,0
115230,note_on,0,0,3,,,,,,,,,2,,,50,36
115230,note_on,0,0,3,,,,,,,,,2,,,62,36
115230,note_on,120,0,1,,,,,,,,,0,,,79,0
115230,note_on,0,0,1,,,,,,,,,0,,,71,0
115230,note_on,0,0,1,,,,,,,,,0,,,67,0
115230,note_on,0,0,1,,,,,,,,,0,,,69,36
115230,note_on,0,0,1,,,,,,,,,0,,,74,36
115230,note_on,0,0,1,,,,,,,,,0,,,78,36
115230,note_on,0,0,1,,,,,,,,,0,,,81,36
115350,note_on,0,0,3,,,,,,,,,2,,,50,0
115350,note_on,0,0,1,,,,,,,,,0,,,83,36
115350,note_on,0,0,1,,,,,,,,,0,,,74,36
115350,control_change,0,0,3,,,,,,,,,2,64,0,,
115350,note_on,0,0,3,,,,,,,,,2,,,47,36
115350,note_on,0,0,3,,,,,,,,,2,,,50,36
115350,note_on,0,0,3,,,,,,,,,2,,,59,36
115350,control_change,0,0,1,,,,,,,,,0,64,0,,
115350,note_on,0,0,1,,,,,,,,,0,,,78,0
115350,note_on,0,0,1,,,,,,,,,0,,,74,0
115350,note_on,120,0,3,,,,,,,,,2,,,62,0
115350,note_on,0,0,1,,,,,,,,,0,,,69,0
115350,note_on,120,0,1,,,,,,,,,0,,,81,0
115350,note_on,0,0,1,,,,,,,,,0,,,71,36
115350,note_on,0,0,1,,,,,,,,,0,,,79,36
115470,note_on,0,0,1,,,,,,,,,0,,,74,0
115470,note_on,120,0,3,,,,,,,,,2,,,59,0
115470,note_on,0,0,3,,,,,,,,,2,,,50,0
115470,note_on,0,0,3,,,,,,,,,2,,,47,0
115470,note_on,0,0,3,,,,,,,,,2,,,50,54
115470,note_on,0,0,3,,,,,,,,,2,,,62,62
115470,note_on,0,0,1,,,,,,,,,0,,,81,62
115470,note_on,0,0,1,,,,,,,,,0,,,78,58
115470,note_on,0,0,1,,,,,,,,,0,,,74,54
115470,note_on,0,0,1,,,,,,,,,0,,,72,50
115470,note_on,120,0,1,,,,,,,,,0,,,83,0
115470,note_on,0,0,1,,,,,,,,,0,,,71,0
115470,note_on,0,0,1,,,,,,,,,0,,,79,0
115710,note_on,240,0,3,,,,,,,,,2,,,62,0
115710,note_on,0,0,3,,,,,,,,,2,,,50,0
115710,note_on,0,0,3,,,,,,,,,2,,,55,36
115710,note_on,0,0,1,,,,,,,,,0,,,71,36
115710,note_on,0,0,1,,,,,,,,,0,,,78,0
115710,note_on,240,0,1,,,,,,,,,0,,,81,0
115710,note_on,0,0,1,,,,,,,,,0,,,72,0
115710,note_on,0,0,1,,,,,,,,,0,,,74,0
115710,note_on,0,0,1,,,,,,,,,0,,,74,36
115710,note_on,0,0,1,,,,,,,,,0,,,79,36
115710,note_on,0,0,3,,,,,,,,,2,,,62,36
115830,note_on,0,0,1,,,,,,,,,0,,,74,0
115830,time_signature,720,1,0,1,4,24,8,,,,,,,,,
115830,note_on,0,0,1,,,,,,,,,0,,,71,0
115830,note_on,0,0,1,,,,,,,,,0,,,71,36
115830,note_on,0,0,1,,,,,,,,,0,,,74,36
115830,note_on,120,0,3,,,,,,,,,2,,,62,0
115830,note_on,0,0,3,,,,,,,,,2,,,62,36
115830,note_on,0,0,3,,,,,,,,,2,,,55,36
115830,note_on,0,0,3,,,,,,,,,2,,,55,0
115830,note_on,120,0,1,,,,,,,,,0,,,79,0
115830,note_on,0,0,1,,,,,,,,,0,,,79,36
115950,key_signature,0,1,0,,,,,D,,,,,,,,
115950,note_on,0,0,3,,,,,,,,,2,,,55,0
115950,note_on,0,0,3,,,,,,,,,2,,,43,49
115950,note_on,120,0,1,,,,,,,,,0,,,79,0
115950,note_on,0,0,1,,,,,,,,,0,,,74,0
115950,note_on,0,0,1,,,,,,,,,0,,,71,0
115950,note_on,0,0,1,,,,,,,,,0,,,71,49
115950,note_on,0,0,1,,,,,,,,,0,,,74,49
115950,time_signature,120,1,0,2,4,24,8,,,,,,,,,
115950,note_on,0,0,1,,,,,,,,,0,,,79,49
115950,note_on,120,0,3,,,,,,,,,2,,,62,0
116070,note_on,0,0,1,,,,,,,,,0,,,79,49
116070,note_on,0,0,1,,,,,,,,,0,,,74,49
116070,note_on,0,0,1,,,,,,,,,0,,,71,49
116070,note_on,0,0,1,,,,,,,,,0,,,74,0
116070,note_on,120,0,1,,,,,,,,,0,,,79,0
116070,note_on,0,0,3,,,,,,,,,2,,,43,49
116070,note_on,120,0,3,,,,,,,,,2,,,43,0
116070,note_on,0,0,1,,,,,,,,,0,,,71,0
116190,note_on,0,0,1,,,,,,,,,0,,,71,49
116190,note_on,120,0,1,,,,,,,,,0,,,79,0
116190,note_on,0,0,1,,,,,,,,,0,,,74,0
116190,note_on,0,0,1,,,,,,,,,0,,,71,0
116190,note_on,0,0,1,,,,,,,,,0,,,74,49
116190,time_signature,240,1,0,3,4,24,8,,,,,,,,,
116190,note_on,120,0,3,,,,,,,,,2,,,43,0
116190,note_on,0,0,3,,,,,,,,,2,,,43,49
116190,note_on,0,0,1,,,,,,,,,0,,,79,49
116430,note_on,240,0,1,,,,,,,,,0,,,79,0
116430,note_on,240,0,3,,,,,,,,,2,,,43,0
116430,note_on,0,0,3,,,,,,,,,2,,,43,49
116430,note_on,0,0,1,,,,,,,,,0,,,74,0
116430,note_on,0,0,1,,,,,,,,,0,,,76,49
116430,note_on,0,0,1,,,,,,,,,0,,,71,49
116430,note_on,0,0,1,,,,,,,,,0,,,67,49
116430,note_on,0,0,1,,,,,,,,,0,,,71,0
116550,note_on,0,0,1,,,,,,,,,0,,,67,49
116550,note_on,0,0,1,,,,,,,,,0,,,71,0
116550,note_on,0,0,1,,,,,,,,,0,,,76,49
116550,control_change,0,0,1,,,,,,,,,0,64,127,,
116550,note_on,0,0,1,,,,,,,,,0,,,67,0
116550,note_on,0,0,1,,,,,,,,,0,,,71,49
116550,note_on,120,0,1,,,,,,,,,0,,,76,0
116550,note_on,120,0,3,,,,,,,,,2,,,43,0
116550,control_change,0,0,3,,,,,,,,,2,64,127,,
116550,note_on,0,0,3,,,,,,,,,2,,,43,49
116670,note_on,0,0,1,,,,,,,,,0,,,73,49
116670,note_on,0,0,1,,,,,,,,,0,,,67,49
116670,note_on,0,0,1,,,,,,,,,0,,,64,49
116670,note_on,0,0,1,,,,,,,,,0,,,67,0
116670,note_on,0,0,1,,,,,,,,,0,,,71,0
116670,note_on,120,0,1,,,,,,,,,0,,,76,0
116670,note_on,120,0,3,,,,,,,,,2,,,43,0
116670,note_on,0,0,3,,,,,,,,,2,,,43,49
116730,note_on,0,0,3,,,,,,,,,2,,,40,49
116730,note_on,60,0,3,,,,,,,,,2,,,43,0
116790,note_on,0,0,3,,,,,,,,,2,,,42,49
116790,note_on,120,0,1,,,,,,,,,0,,,73,0
116790,note_on,0,0,1,,,,,,,,,0,,,64,0
116790,note_on,0,0,1,,,,,,,,,0,,,67,0
116790,note_on,0,0,1,,,,,,,,,0,,,67,49
116790,note_on,0,0,1,,,,,,,,,0,,,71,49
116790,note_on,60,0,3,,,,,,,,,2,,,40,0
116790,note_on,0,0,1,,,,,,,,,0,,,62,49
116790,control_change,0,0,1,,,,,,,,,0,64,0,,
116850,note_on,0,0,3,,,,,,,,,2,,,43,49
116850,control_change,0,0,3,,,,,,,,,2,64,0,,
116850,note_on,60,0,3,,,,,,,,,2,,,42,0
116910,note_on,0,0,1,,,,,,,,,0,,,67,0
116910,note_on,120,0,1,,,,,,,,,0,,,71,0
116910,note_on,0,0,1,,,,,,,,,0,,,62,0
116910,note_on,0,0,1,,,,,,,,,0,,,61,49
116910,note_on,0,0,1,,,,,,,,,0,,,67,49
116910,note_on,0,0,1,,,,,,,,,0,,,71,49
116910,note_on,0,0,3,,,,,,,,,2,,,45,49
116910,note_on,60,0,3,,,,,,,,,2,,,43,0
117150,note_on,240,0,1,,,,,,,,,0,,,71,0
117150,note_on,0,0,1,,,,,,,,,0,,,67,0
117150,note_on,0,0,1,,,,,,,,,0,,,61,0
117150,note_on,0,0,1,,,,,,,,,0,,,61,49
117150,note_on,0,0,1,,,,,,,,,0,,,67,49
117150,note_on,0,0,1,,,,,,,,,0,,,69,49
117150,note_on,0,0,3,,,,,,,,,2,,,45,49
117150,note_on,240,0,3,,,,,,,,,2,,,45,0
117270,note_on,0,0,1,,,,,,,,,0,,,61,0
117270,note_on,0,0,1,,,,,,,,,0,,,61,49
117270,note_on,0,0,1,,,,,,,,,0,,,67,49
117270,note_on,0,0,1,,,,,,,,,0,,,69,49
117270,control_change,0,0,1,,,,,,,,,0,64,127,,
117270,note_on,120,0,1,,,,,,,,,0,,,69,0
117270,note_on,0,0,1,,,,,,,,,0,,,67,0
117270,note_on,0,0,3,,,,,,,,,2,,,45,49
117270,control_change,0,0,3,,,,,,,,,2,64,127,,
117270,note_on,120,0,3,,,,,,,,,2,,,45,0
117390,note_on,120,0,1,,,,,,,,,0,,,69,0
117390,note_on,0,0,1,,,,,,,,,0,,,67,49
117390,note_on,0,0,1,,,,,,,,,0,,,71,49
117390,note_on,0,0,1,,,,,,,,,0,,,62,49
117390,note_on,0,0,1,,,,,,,,,0,,,67,0
117390,note_on,0,0,1,,,,,,,,,0,,,61,0
117390,note_on,0,0,3,,,,,,,,,2,,,43,49
117390,note_on,120,0,3,,,,,,,,,2,,,45,0
117450,note_on,0,0,3,,,,,,,,,2,,,40,49
117450,note_on,60,0,3,,,,,,,,,2,,,43,0
117510,note_on,0,0,1,,,,,,,,,0,,,71,49
117510,control_change,0,0,1,,,,,,,,,0,64,0,,
117510,note_on,0,0,1,,,,,,,,,0,,,67,49
117510,note_on,0,0,3,,,,,,,,,2,,,42,49
117510,note_on,60,0,3,,,,,,,,,2,,,40,0
117510,note_on,0,0,1,,,,,,,,,0,,,62,49
117510,note_on,120,0,1,,,,,,,,,0,,,71,0
117510,note_on,0,0,1,,,,,,,,,0,,,67,0
117510,note_on,0,0,1,,,,,,,,,0,,,62,0
117570,note_on,0,0,3,,,,,,,,,2,,,43,49
117570,note_on,60,0,3,,,,,,,,,2,,,42,0
117570,control_change,0,0,3,,,,,,,,,2,64,0,,
117630,note_on,0,0,3,,,,,,,,,2,,,45,75
117630,note_on,0,0,1,,,,,,,,,0,,,67,70
117630,note_on,0,0,1,,,,,,,,,0,,,61,65
117630,note_on,0,0,1,,,,,,,,,0,,,71,75
117630,note_on,0,0,1,,,,,,,,,0,,,67,0
117630,note_on,120,0,1,,,,,,,,,0,,,71,0
117630,note_on,60,0,3,,,,,,,,,2,,,43,0
117630,note_on,0,0,1,,,,,,,,,0,,,62,0
117870,note_on,0,0,3,,,,,,,,,2,,,45,49
117870,note_on,240,0,1,,,,,,,,,0,,,71,0
117870,note_on,0,0,1,,,,,,,,,0,,,67,0
117870,note_on,0,0,1,,,,,,,,,0,,,61,0
117870,note_on,0,0,1,,,,,,,,,0,,,61,49
117870,note_on,0,0,1,,,,,,,,,0,,,67,49
117870,note_on,0,0,1,,,,,,,,,0,,,69,49
117870,note_on,240,0,3,,,,,,,,,2,,,45,0
117990,note_on,120,0,1,,,,,,,,,0,,,69,0
117990,note_on,0,0,1,,,,,,,,,0,,,67,0
117990,note_on,0,0,1,,,,,,,,,0,,,61,0
117990,note_on,0,0,1,,,,,,,,,0,,,61,49
117990,note_on,0,0,1,,,,,,,,,0,,,67,49
117990,note_on,0,0,1,,,,,,,,,0,,,69,49
117990,control_change,0,0,1,,,,,,,,,0,64,127,,
117990,note_on,0,0,3,,,,,,,,,2,,,45,49
117990,control_change,0,0,3,,,,,,,,,2,64,127,,
117990,note_on,120,0,3,,,,,,,,,2,,,45,0
118110,note_on,0,0,3,,,,,,,,,2,,,43,49
118110,note_on,120,0,3,,,,,,,,,2,,,45,0
118110,note_on,0,0,1,,,,,,,,,0,,,67,49
118110,note_on,0,0,1,,,,,,,,,0,,,62,49
118110,note_on,0,0,1,,,,,,,,,0,,,61,0
118110,note_on,0,0,1,,,,,,,,,0,,,67,0
118110,note_on,120,0,1,,,,,,,,,0,,,69,0
118110,note_on,0,0,1,,,,,,,,,0,,,70,49
118170,note_on,60,0,3,,,,,,,,,2,,,43,0
118170,note_on,0,0,3,,,,,,,,,2,,,40,49
118230,note_on,60,0,3,,,,,,,,,2,,,40,0
118230,note_on,0,0,3,,,,,,,,,2,,,42,49
118230,note_on,0,0,1,,,,,,,,,0,,,62,49
118230,control_change,0,0,1,,,,,,,,,0,64,0,,
118230,note_on,0,0,1,,,,,,,,,0,,,70,49
118230,note_on,0,0,1,,,,,,,,,0,,,67,49
118230,note_on,0,0,1,,,,,,,,,0,,,62,0
118230,note_on,0,0,1,,,,,,,,,0,,,67,0
118230,note_on,120,0,1,,,,,,,,,0,,,70,0
118290,control_change,0,0,3,,,,,,,,,2,64,0,,
118290,note_on,60,0,3,,,,,,,,,2,,,42,0
118290,note_on,0,0,3,,,,,,,,,2,,,43,49
118350,note_on,0,0,3,,,,,,,,,2,,,45,49
118350,note_on,60,0,3,,,,,,,,,2,,,43,0
118350,note_on,120,0,1,,,,,,,,,0,,,70,0
118350,note_on,0,0,1,,,,,,,,,0,,,62,0
118350,note_on,0,0,1,,,,,,,,,0,,,61,49
118350,note_on,0,0,1,,,,,,,,,0,,,67,49
118350,note_on,0,0,1,,,,,,,,,0,,,70,49
118350,note_on,0,0,1,,,,,,,,,0,,,67,0
118590,note_on,240,0,1,,,,,,,,,0,,,70,0
118590,note_on,0,0,1,,,,,,,,,0,,,67,0
118590,note_on,0,0,1,,,,,,,,,0,,,61,0
118590,note_on,0,0,1,,,,,,,,,0,,,61,49
118590,note_on,0,0,1,,,,,,,,,0,,,69,49
118590,note_on,240,0,3,,,,,,,,,2,,,45,0
118590,note_on,0,0,3,,,,,,,,,2,,,45,49
118590,note_on,0,0,1,,,,,,,,,0,,,67,49
118710,note_on,120,0,3,,,,,,,,,2,,,45,0
118710,note_on,0,0,1,,,,,,,,,0,,,67,0
118710,note_on,0,0,3,,,,,,,,,2,,,45,49
118710,note_on,120,0,1,,,,,,,,,0,,,69,0
118710,note_on,0,0,1,,,,,,,,,0,,,61,0
118710,note_on,0,0,1,,,,,,,,,0,,,61,49
118710,note_on,0,0,1,,,,,,,,,0,,,69,49
118710,note_on,0,0,1,,,,,,,,,0,,,67,49
118950,note_on,240,0,1,,,,,,,,,0,,,69,0
118950,note_on,0,0,1,,,,,,,,,0,,,67,0
118950,note_on,0,0,1,,,,,,,,,0,,,61,0
118950,note_on,240,0,3,,,,,,,,,2,,,45,0
118950,note_on,0,0,1,,,,,,,,,0,,,67,49
118950,note_on,0,0,1,,,,,,,,,0,,,69,49
118950,note_on,0,0,1,,,,,,,,,0,,,61,49
118950,note_on,0,0,3,,,,,,,,,2,,,45,49
119070,note_on,0,0,1,,,,,,,,,0,,,61,49
119070,note_on,120,0,1,,,,,,,,,0,,,69,0
119070,note_on,0,0,1,,,,,,,,,0,,,67,49
119070,note_on,0,0,1,,,,,,,,,0,,,69,49
119070,note_on,120,0,3,,,,,,,,,2,,,45,0
119070,note_on,0,0,3,,,,,,,,,2,,,45,49
119070,note_on,0,0,1,,,,,,,,,0,,,61,0
119070,note_on,0,0,1,,,,,,,,,0,,,67,0
119310,note_on,240,0,3,,,,,,,,,2,,,45,0
119310,note_on,0,0,3,,,,,,,,,2,,,45,49
119310,note_on,0,0,1,,,,,,,,,0,,,61,49
119310,note_on,240,0,1,,,,,,,,,0,,,69,0
119310,note_on,0,0,1,,,,,,,,,0,,,67,0
119310,note_on,0,0,1,,,,,,,,,0,,,69,49
119310,note_on,0,0,1,,,,,,,,,0,,,67,49
119310,note_on,0,0,1,,,,,,,,,0,,,61,0
119430,note_on,120,0,3,,,,,,,,,2,,,45,0
119430,note_on,0,0,3,,,,,,,,,2,,,45,49
119430,note_on,120,0,1,,,,,,,,,0,,,69,0
119430,note_on,0,0,1,,,,,,,,,0,,,67,0
119430,note_on,0,0,1,,,,,,,,,0,,,61,0
119430,note_on,0,0,1,,,,,,,,,0,,,61,49
119430,note_on,0,0,1,,,,,,,,,0,,,67,49
119430,note_on,0,0,1,,,,,,,,,0,,,69,49
119430,set_tempo,3240,1,0,,,,,,333333,,,,,,,
119520,note_on,0,0,3,,,,,,,,,2,,,45,88
119520,note_on,0,0,3,,,,,,,,,2,,,33,88
119520,note_on,90,0,3,,,,,,,,,2,,,45,0
119520,note_on,90,0,1,,,,,,,,,0,,,69,0
119520,note_on,0,0,1,,,,,,,,,0,,,67,0
119520,note_on,0,0,1,,,,,,,,,0,,,61,0
119520,note_on,0,0,1,,,,,,,,,0,,,55,101
119520,note_on,0,0,1,,,,,,,,,0,,,57,101
119520,note_on,0,0,1,,,,,,,,,0,,,61,101
119550,note_on,0,0,1,,,,,,,,,0,,,57,0
119550,note_on,0,0,1,,,,,,,,,0,,,55,0
119550,note_on,0,0,1,,,,,,,,,0,,,55,101
119550,note_on,0,0,1,,,,,,,,,0,,,61,101
119550,note_on,30,0,3,,,,,,,,,2,,,45,0
119550,note_on,0,0,3,,,,,,,,,2,,,33,0
119550,note_on,0,0,3,,,,,,,,,2,,,33,88
119550,note_on,0,0,3,,,,,,,,,2,,,45,88
119550,note_on,30,0,1,,,,,,,,,0,,,61,0
119550,note_on,0,0,1,,,,,,,,,0,,,57,101
119640,note_on,0,0,3,,,,,,,,,2,,,45,88
119640,note_on,90,0,3,,,,,,,,,2,,,45,0
119640,note_on,0,0,3,,,,,,,,,2,,,33,0
119640,note_on,0,0,3,,,,,,,,,2,,,33,88
119640,note_on,0,0,1,,,,,,,,,0,,,55,0
119640,note_on,90,0,1,,,,,,,,,0,,,61,0
119640,note_on,0,0,1,,,,,,,,,0,,,57,0
119640,note_on,0,0,1,,,,,,,,,0,,,55,101
119640,note_on,0,0,1,,,,,,,,,0,,,57,101
119640,note_on,0,0,1,,,,,,,,,0,,,61,101
119670,note_on,30,0,3,,,,,,,,,2,,,45,0
119670,note_on,30,0,1,,,,,,,,,0,,,61,0
119670,note_on,0,0,1,,,,,,,,,0,,,57,0
119670,note_on,0,0,1,,,,,,,,,0,,,55,0
119670,note_on,0,0,3,,,,,,,,,2,,,33,0
119670,note_on,0,0,3,,,,,,,,,2,,,35,88
119670,note_on,0,0,3,,,,,,,,,2,,,47,88
119670,note_on,0,0,1,,,,,,,,,0,,,57,101
119670,note_on,0,0,1,,,,,,,,,0,,,55,101
119670,note_on,0,0,1,,,,,,,,,0,,,62,101
119760,note_on,0,0,3,,,,,,,,,2,,,37,88
119760,note_on,90,0,3,,,,,,,,,2,,,47,0
119760,note_on,90,0,1,,,,,,,,,0,,,62,0
119760,note_on,0,0,1,,,,,,,,,0,,,57,0
119760,note_on,0,0,1,,,,,,,,,0,,,55,0
119760,note_on,0,0,1,,,,,,,,,0,,,55,101
119760,note_on,0,0,1,,,,,,,,,0,,,57,101
119760,note_on,0,0,1,,,,,,,,,0,,,64,101
119760,note_on,0,0,3,,,,,,,,,2,,,35,0
119760,note_on,0,0,3,,,,,,,,,2,,,49,88
119790,note_on,0,0,3,,,,,,,,,2,,,37,0
119790,note_on,0,0,3,,,,,,,,,2,,,38,101
119790,note_on,0,0,3,,,,,,,,,2,,,45,101
119790,note_on,0,0,3,,,,,,,,,2,,,50,101
119790,note_on,30,0,3,,,,,,,,,2,,,49,0
119790,note_on,0,0,1,,,,,,,,,0,,,62,114
119790,note_on,0,0,1,,,,,,,,,0,,,66,114
119790,note_on,30,0,1,,,,,,,,,0,,,64,0
119790,note_on,0,0,1,,,,,,,,,0,,,57,0
119790,note_on,0,0,1,,,,,,,,,0,,,55,0
119790,note_on,0,0,1,,,,,,,,,0,,,54,114
119790,note_on,0,0,1,,,,,,,,,0,,,57,114
120030,note_on,0,0,3,,,,,,,,,2,,,50,101
120030,note_on,0,0,3,,,,,,,,,2,,,45,101
120030,note_on,0,0,1,,,,,,,,,0,,,57,0
120030,note_on,0,0,3,,,,,,,,,2,,,38,0
120030,note_on,0,0,3,,,,,,,,,2,,,38,101
120030,note_on,240,0,3,,,,,,,,,2,,,50,0
120030,note_on,0,0,1,,,,,,,,,0,,,66,114
120030,note_on,0,0,1,,,,,,,,,0,,,62,114
120030,note_on,0,0,1,,,,,,,,,0,,,57,114
120030,note_on,0,0,1,,,,,,,,,0,,,54,114
120030,note_on,0,0,1,,,,,,,,,0,,,62,0
120030,note_on,0,0,3,,,,,,,,,2,,,45,0
120030,note_on,240,0,1,,,,,,,,,0,,,66,0
120030,note_on,0,0,1,,,,,,,,,0,,,54,0
120240,note_on,0,0,1,,,,,,,,,0,,,66,114
120240,note_on,0,0,1,,,,,,,,,0,,,62,0
120240,note_on,0,0,1,,,,,,,,,0,,,54,0
120240,note_on,210,0,1,,,,,,,,,0,,,66,0
120240,note_on,0,0,1,,,,,,,,,0,,,57,0
120270,note_on,0,0,3,,,,,,,,,2,,,38,0
120270,note_on,0,0,3,,,,,,,,,2,,,38,101
120270,note_on,0,0,3,,,,,,,,,2,,,50,101
120270,note_on,66120,0,2,,,,,,,,,1,,,57,101
120270,note_on,30,0,1,,,,,,,,,0,,,66,0
120270,note_on,0,0,1,,,,,,,,,0,,,67,114
120270,note_on,240,0,3,,,,,,,,,2,,,50,0
120270,note_on,0,0,3,,,,,,,,,2,,,45,0
120360,note_on,90,0,1,,,,,,,,,0,,,67,0
120360,note_on,0,0,1,,,,,,,,,0,,,66,114
120375,note_on,15,0,1,,,,,,,,,0,,,66,0
120375,note_on,0,0,1,,,,,,,,,0,,,64,114
120382,note_on,7,0,1,,,,,,,,,0,,,66,114
120383,note_on,1,0,1,,,,,,,,,0,,,64,0
120390,note_on,0,0,1,,,,,,,,,0,,,64,114
120390,note_on,120,0,2,,,,,,,,,1,,,57,0
120390,note_on,120,0,3,,,,,,,,,2,,,50,0
120390,note_on,0,0,3,,,,,,,,,2,,,38,0
120390,note_on,0,0,3,,,,,,,,,2,,,42,101
120390,note_on,0,0,3,,,,,,,,,2,,,54,101
120390,note_on,7,0,1,,,,,,,,,0,,,66,0
120390,note_on,0,0,2,,,,,,,,,1,,,57,101
120480,note_on,0,0,1,,,,,,,,,0,,,62,114
120480,note_on,90,0,1,,,,,,,,,0,,,64,0
120510,note_on,0,0,3,,,,,,,,,2,,,37,101
120510,note_on,0,0,1,,,,,,,,,0,,,69,114
120510,note_on,120,0,3,,,,,,,,,2,,,54,0
120510,note_on,0,0,1,,,,,,,,,0,,,64,114
120510,note_on,120,0,2,,,,,,,,,1,,,57,0
120510,note_on,0,0,1,,,,,,,,,0,,,57,114
120510,note_on,30,0,1,,,,,,,,,0,,,62,0
120510,note_on,0,0,3,,,,,,,,,2,,,49,101
120510,note_on,0,0,3,,,,,,,,,2,,,45,101
120510,note_on,0,0,3,,,,,,,,,2,,,42,0
120750,note_on,240,0,3,,,,,,,,,2,,,49,0
120750,note_on,0,0,3,,,,,,,,,2,,,37,0
120750,note_on,0,0,1,,,,,,,,,0,,,69,114
120750,note_on,0,0,1,,,,,,,,,0,,,64,114
120750,note_on,0,0,1,,,,,,,,,0,,,57,114
120750,note_on,0,0,1,,,,,,,,,0,,,64,0
120750,note_on,240,0,1,,,,,,,,,0,,,69,0
120750,note_on,0,0,1,,,,,,,,,0,,,57,0
120750,note_on,0,0,3,,,,,,,,,2,,,49,101
120750,note_on,0,0,3,,,,,,,,,2,,,37,101
120750,note_on,0,0,3,,,,,,,,,2,,,45,0
120750,note_on,0,0,3,,,,,,,,,2,,,45,101
120960,note_on,210,0,1,,,,,,,,,0,,,69,0
120960,note_on,0,0,1,,,,,,,,,0,,,69,114
120960,note_on,0,0,1,,,,,,,,,0,,,57,0
120960,note_on,0,0,1,,,,,,,,,0,,,64,0
120975,note_on,0,0,1,,,,,,,,,0,,,71,114
120975,note_on,15,0,1,,,,,,,,,0,,,69,0
120982,note_on,7,0,1,,,,,,,,,0,,,73,114
120983,note_on,1,0,1,,,,,,,,,0,,,71,0
120990,note_on,480,0,2,,,,,,,,,1,,,64,101
120990,note_on,240,0,3,,,,,,,,,2,,,49,0
120990,note_on,0,0,3,,,,,,,,,2,,,45,0
120990,note_on,0,0,3,,,,,,,,,2,,,37,0
120990,note_on,0,0,3,,,,,,,,,2,,,37,101
120990,note_on,0,0,3,,,,,,,,,2,,,49,101
120993,note_on,10,0,1,,,,,,,,,0,,,73,0
120993,note_on,0,0,1,,,,,,,,,0,,,71,114
121053,note_on,60,0,1,,,,,,,,,0,,,71,0
121053,note_on,0,0,1,,,,,,,,,0,,,69,114
121083,note_on,0,0,1,,,,,,,,,0,,,71,114
121083,note_on,30,0,1,,,,,,,,,0,,,69,0
121110,note_on,0,0,3,,,,,,,,,2,,,49,101
121110,note_on,0,0,3,,,,,,,,,2,,,37,101
121110,note_on,0,0,3,,,,,,,,,2,,,37,0
121110,note_on,120,0,3,,,,,,,,,2,,,49,0
121110,note_on,120,0,2,,,,,,,,,1,,,64,0
121110,note_on,0,0,2,,,,,,,,,1,,,64,101
121173,note_on,0,0,1,,,,,,,,,0,,,73,114
121173,note_on,90,0,1,,,,,,,,,0,,,71,0
121203,note_on,30,0,1,,,,,,,,,0,,,73,0
121230,note_on,0,0,3,,,,,,,,,2,,,47,101
121230,note_on,0,0,3,,,,,,,,,2,,,35,101
121230,note_on,120,0,3,,,,,,,,,2,,,49,0
121230,note_on,0,0,3,,,,,,,,,2,,,37,0
121230,note_on,0,0,3,,,,,,,,,2,,,42,101
121230,note_on,0,0,1,,,,,,,,,0,,,74,114
121230,note_on,120,0,2,,,,,,,,,1,,,64,0
121230,note_on,0,0,1,,,,,,,,,0,,,66,114
121230,note_on,27,0,1,,,,,,,,,0,,,62,114
121230,note_on,0,0,1,,,,,,,,,0,,,71,114
121470,note_on,0,0,1,,,,,,,,,0,,,62,0
121470,note_on,0,0,1,,,,,,,,,0,,,71,0
121470,note_on,0,0,1,,,,,,,,,0,,,62,114
121470,note_on,0,0,1,,,,,,,,,0,,,66,114
121470,note_on,0,0,1,,,,,,,,,0,,,71,114
121470,note_on,0,0,1,,,,,,,,,0,,,74,114
121470,note_on,0,0,1,,,,,,,,,0,,,66,0
121470,note_on,240,0,1,,,,,,,,,0,,,74,0
121470,note_on,0,0,3,,,,,,,,,2,,,47,101
121470,note_on,0,0,3,,,,,,,,,2,,,42,101
121470,note_on,0,0,3,,,,,,,,,2,,,35,101
121470,note_on,0,0,3,,,,,,,,,2,,,35,0
121470,note_on,0,0,3,,,,,,,,,2,,,42,0
121470,note_on,240,0,3,,,,,,,,,2,,,47,0
121590,note_on,120,0,3,,,,,,,,,2,,,42,0
121650,note_on,0,0,3,,,,,,,,,2,,,35,0
121650,note_on,0,0,3,,,,,,,,,2,,,40,101
121650,note_on,0,0,3,,,,,,,,,2,,,52,101
121650,note_on,60,0,3,,,,,,,,,2,,,47,0
121650,note_on,0,0,1,,,,,,,,,0,,,68,114
121650,note_on,0,0,1,,,,,,,,,0,,,74,114
121650,note_on,0,0,1,,,,,,,,,0,,,71,0
121650,note_on,0,0,1,,,,,,,,,0,,,66,0
121650,note_on,0,0,1,,,,,,,,,0,,,62,0
121650,note_on,180,0,1,,,,,,,,,0,,,74,0
121656,note_on,0,0,1,,,,,,,,,0,,,68,0
121656,note_on,6,0,1,,,,,,,,,0,,,74,0
121656,note_on,6,0,3,,,,,,,,,2,,,52,0
121656,note_on,0,0,3,,,,,,,,,2,,,40,0
121710,note_on,0,0,1,,,,,,,,,0,,,74,114
121710,note_on,54,0,1,,,,,,,,,0,,,68,114
121710,note_on,54,0,3,,,,,,,,,2,,,40,101
121710,note_on,0,0,3,,,,,,,,,2,,,52,101
121716,note_on,6,0,3,,,,,,,,,2,,,52,0
121716,note_on,0,0,3,,,,,,,,,2,,,40,0
121716,note_on,0,0,1,,,,,,,,,0,,,68,0
121716,note_on,6,0,1,,,,,,,,,0,,,74,0
121770,note_on,0,0,1,,,,,,,,,0,,,74,114
121770,note_on,54,0,1,,,,,,,,,0,,,68,114
121770,note_on,0,0,1,,,,,,,,,0,,,76,114
121770,note_on,0,0,3,,,,,,,,,2,,,52,101
121770,note_on,54,0,3,,,,,,,,,2,,,40,101
121776,note_on,0,0,1,,,,,,,,,0,,,68,0
121776,note_on,0,0,3,,,,,,,,,2,,,40,0
121776,note_on,6,0,3,,,,,,,,,2,,,52,0
121776,note_on,0,0,1,,,,,,,,,0,,,74,0
121776,note_on,6,0,1,,,,,,,,,0,,,76,0
121830,note_on,0,0,1,,,,,,,,,0,,,78,114
121830,note_on,0,0,1,,,,,,,,,0,,,74,114
121830,note_on,54,0,1,,,,,,,,,0,,,68,114
121830,note_on,54,0,3,,,,,,,,,2,,,40,101
121830,note_on,0,0,3,,,,,,,,,2,,,52,101
121836,note_on,0,0,3,,,,,,,,,2,,,40,0
121836,note_on,6,0,3,,,,,,,,,2,,,52,0
121836,note_on,6,0,1,,,,,,,,,0,,,78,0
121836,note_on,0,0,1,,,,,,,,,0,,,74,0
121836,note_on,0,0,1,,,,,,,,,0,,,68,0
121890,note_on,0,0,3,,,,,,,,,2,,,52,101
121890,note_on,54,0,1,,,,,,,,,0,,,68,114
121890,note_on,0,0,1,,,,,,,,,0,,,74,114
121890,note_on,0,0,1,,,,,,,,,0,,,80,114
121890,note_on,54,0,3,,,,,,,,,2,,,40,101
121896,note_on,0,0,3,,,,,,,,,2,,,40,0
121896,note_on,6,0,1,,,,,,,,,0,,,80,0
121896,note_on,0,0,1,,,,,,,,,0,,,68,0
121896,note_on,6,0,3,,,,,,,,,2,,,52,0
121896,note_on,0,0,1,,,,,,,,,0,,,74,0
121950,note_on,54,0,3,,,,,,,,,2,,,33,101
121950,note_on,54,0,1,,,,,,,,,0,,,69,114
121950,note_on,0,0,1,,,,,,,,,0,,,81,114
121950,note_on,0,0,3,,,,,,,,,2,,,45,101
121950,note_on,0,0,1,,,,,,,,,0,,,73,114
122190,note_on,240,0,1,,,,,,,,,0,,,81,0
122190,note_on,0,0,1,,,,,,,,,0,,,73,0
122190,note_on,0,0,1,,,,,,,,,0,,,69,0
122190,note_on,0,0,1,,,,,,,,,0,,,57,114
122190,note_on,0,0,1,,,,,,,,,0,,,61,114
122190,note_on,0,0,3,,,,,,,,,2,,,33,0
122190,note_on,0,0,3,,,,,,,,,2,,,45,101
122190,note_on,0,0,3,,,,,,,,,2,,,52,101
122190,note_on,240,0,3,,,,,,,,,2,,,45,0
122190,note_on,0,0,1,,,,,,,,,0,,,69,114
122310,note_on,0,0,3,,,,,,,,,2,,,45,101
122310,note_on,120,0,3,,,,,,,,,2,,,52,0
122310,note_on,0,0,3,,,,,,,,,2,,,45,0
122310,note_on,0,0,3,,,,,,,,,2,,,33,101
122310,note_on,0,0,3,,,,,,,,,2,,,40,101
122310,time_signature,2880,1,0,4,4,24,8,,,,,,,,,
122430,note_on,0,0,3,,,,,,,,,2,,,33,0
122430,note_on,0,0,3,,,,,,,,,2,,,40,0
122430,note_on,120,0,3,,,,,,,,,2,,,45,0
122430,note_on,240,0,1,,,,,,,,,0,,,69,0
122430,note_on,0,0,1,,,,,,,,,0,,,61,0
122430,note_on,0,0,1,,,,,,,,,0,,,57,0
122550,note_on,120,0,3,,,,,,,,,2,,,66,36
122550,note_on,120,0,1,,,,,,,,,0,,,81,49
122670,note_on,0,0,3,,,,,,,,,2,,,62,36
122670,note_on,120,0,3,,,,,,,,,2,,,66,0
122670,note_on,0,0,1,,,,,,,,,0,,,82,49
122670,note_on,120,0,1,,,,,,,,,0,,,81,0
122790,control_change,0,0,3,,,,,,,,,2,64,127,,
122790,note_on,120,0,1,,,,,,,,,0,,,82,0
122790,control_change,0,0,1,,,,,,,,,0,64,127,,
122790,note_on,120,0,3,,,,,,,,,2,,,62,0
122790,note_on,0,0,1,,,,,,,,,0,,,83,49
122790,note_on,0,0,3,,,,,,,,,2,,,67,36
122790,time_signature,480,1,0,3,4,24,8,,,,,,,,,
122829,note_on,39,0,1,,,,,,,,,0,,,82,49
122830,note_on,1,0,1,,,,,,,,,0,,,83,0
122869,note_on,39,0,1,,,,,,,,,0,,,82,0
122870,note_on,1,0,1,,,,,,,,,0,,,83,49
122910,note_on,0,0,3,,,,,,,,,2,,,71,36
122910,note_on,0,0,1,,,,,,,,,0,,,88,49
122910,note_on,40,0,1,,,,,,,,,0,,,83,0
122910,note_on,120,0,3,,,,,,,,,2,,,67,0
122949,note_on,39,0,1,,,,,,,,,0,,,87,49
122950,note_on,1,0,1,,,,,,,,,0,,,88,0
122989,note_on,39,0,1,,,,,,,,,0,,,87,0
122990,note_on,1,0,1,,,,,,,,,0,,,88,49
123030,note_on,0,0,1,,,,,,,,,0,,,91,49
123030,control_change,0,0,1,,,,,,,,,0,64,0,,
123030,note_on,40,0,1,,,,,,,,,0,,,88,0
123030,note_on,120,0,3,,,,,,,,,2,,,71,0
123030,note_on,0,0,3,,,,,,,,,2,,,76,36
123150,control_change,120,0,1,,,,,,,,,0,64,127,,
123150,note_on,120,0,3,,,,,,,,,2,,,76,0
123150,control_change,0,0,3,,,,,,,,,2,64,127,,
123150,note_on,0,0,3,,,,,,,,,2,,,61,36
123210,note_on,60,0,3,,,,,,,,,2,,,61,0
123240,note_on,0,0,1,,,,,,,,,0,,,90,49
123240,note_on,90,0,1,,,,,,,,,0,,,91,0
123270,note_on,0,0,1,,,,,,,,,0,,,88,49
123270,note_on,30,0,1,,,,,,,,,0,,,90,0
123270,note_on,60,0,3,,,,,,,,,2,,,73,36
123360,note_on,90,0,1,,,,,,,,,0,,,88,0
123360,note_on,0,0,1,,,,,,,,,0,,,86,49
123390,control_change,0,0,3,,,,,,,,,2,64,0,,
123390,note_on,0,0,3,,,,,,,,,2,,,67,36
123390,note_on,120,0,3,,,,,,,,,2,,,73,0
123390,note_on,0,0,1,,,,,,,,,0,,,85,49
123390,note_on,30,0,1,,,,,,,,,0,,,86,0
123480,note_on,0,0,1,,,,,,,,,0,,,83,49
123480,control_change,0,0,1,,,,,,,,,0,64,0,,
123480,note_on,90,0,1,,,,,,,,,0,,,85,0
123510,note_on,120,0,3,,,,,,,,,2,,,67,0
123510,note_on,0,0,3,,,,,,,,,2,,,66,36
123510,note_on,0,0,1,,,,,,,,,0,,,81,49
123510,note_on,30,0,1,,,,,,,,,0,,,83,0
123510,control_change,0,0,3,,,,,,,,,2,64,127,,
123510,control_change,0,0,1,,,,,,,,,0,64,127,,
123549,note_on,39,0,1,,,,,,,,,0,,,80,49
123550,note_on,1,0,1,,,,,,,,,0,,,81,0
123589,note_on,39,0,1,,,,,,,,,0,,,80,0
123590,note_on,1,0,1,,,,,,,,,0,,,81,49
123630,note_on,0,0,1,,,,,,,,,0,,,86,49
123630,note_on,40,0,1,,,,,,,,,0,,,81,0
123630,note_on,0,0,3,,,,,,,,,2,,,69,36
123630,note_on,120,0,3,,,,,,,,,2,,,66,0
123669,note_on,39,0,1,,,,,,,,,0,,,85,49
123670,note_on,1,0,1,,,,,,,,,0,,,86,0
123709,note_on,39,0,1,,,,,,,,,0,,,85,0
123710,note_on,1,0,1,,,,,,,,,0,,,86,49
123750,control_change,0,0,1,,,,,,,,,0,64,0,,
123750,note_on,0,0,3,,,,,,,,,2,,,74,36
123750,note_on,120,0,3,,,,,,,,,2,,,69,0
123750,note_on,40,0,1,,,,,,,,,0,,,86,0
123750,note_on,0,0,1,,,,,,,,,0,,,90,75
123870,control_change,120,0,1,,,,,,,,,0,64,127,,
123870,note_on,0,0,3,,,,,,,,,2,,,59,36
123870,note_on,120,0,3,,,,,,,,,2,,,74,0
123870,control_change,0,0,3,,,,,,,,,2,64,127,,
123930,note_on,60,0,3,,,,,,,,,2,,,59,0
123960,note_on,0,0,1,,,,,,,,,0,,,88,49
123960,note_on,90,0,1,,,,,,,,,0,,,90,0
123990,note_on,60,0,3,,,,,,,,,2,,,71,36
123990,note_on,30,0,1,,,,,,,,,0,,,88,0
123990,note_on,0,0,1,,,,,,,,,0,,,86,49
124080,note_on,90,0,1,,,,,,,,,0,,,86,0
124080,note_on,0,0,1,,,,,,,,,0,,,85,49
124110,note_on,120,0,3,,,,,,,,,2,,,71,0
124110,control_change,0,0,3,,,,,,,,,2,64,0,,
124110,note_on,30,0,1,,,,,,,,,0,,,85,0
124110,note_on,0,0,1,,,,,,,,,0,,,83,49
124110,note_on,0,0,3,,,,,,,,,2,,,66,36
124200,note_on,0,0,1,,,,,,,,,0,,,81,49
124200,note_on,90,0,1,,,,,,,,,0,,,83,0
124200,control_change,0,0,1,,,,,,,,,0,64,0,,
124230,note_on,0,0,1,,,,,,,,,0,,,79,49
124230,note_on,0,0,3,,,,,,,,,2,,,64,36
124230,control_change,0,0,3,,,,,,,,,2,64,127,,
124230,note_on,120,0,3,,,,,,,,,2,,,66,0
124230,note_on,30,0,1,,,,,,,,,0,,,81,0
124230,control_change,0,0,1,,,,,,,,,0,64,127,,
124269,note_on,39,0,1,,,,,,,,,0,,,78,49
124270,note_on,1,0,1,,,,,,,,,0,,,79,0
124309,note_on,39,0,1,,,,,,,,,0,,,78,0
124310,note_on,1,0,1,,,,,,,,,0,,,79,49
124350,note_on,0,0,3,,,,,,,,,2,,,67,36
124350,note_on,40,0,1,,,,,,,,,0,,,79,0
124350,note_on,0,0,1,,,,,,,,,0,,,85,49
124350,note_on,120,0,3,,,,,,,,,2,,,64,0
124389,note_on,39,0,1,,,,,,,,,0,,,84,49
124390,note_on,1,0,1,,,,,,,,,0,,,85,0
124429,note_on,39,0,1,,,,,,,,,0,,,84,0
124430,note_on,1,0,1,,,,,,,,,0,,,85,49
124470,note_on,0,0,1,,,,,,,,,0,,,88,75
124470,control_change,0,0,1,,,,,,,,,0,64,0,,
124470,control_change,0,0,3,,,,,,,,,2,64,0,,
124470,note_on,0,0,3,,,,,,,,,2,,,73,62
124470,note_on,40,0,1,,,,,,,,,0,,,85,0
124470,note_on,120,0,3,,,,,,,,,2,,,67,0
124590,note_on,110400,0,4,,,,,,,,,3,,,52,36
124590,note_on,120,0,3,,,,,,,,,2,,,73,0
124650,note_on,60,0,4,,,,,,,,,3,,,52,0
124680,note_on,210,0,1,,,,,,,,,0,,,88,0
124680,note_on,0,0,1,,,,,,,,,0,,,86,49
124710,note_on,120,0,3,,,,,,,,,2,,,64,36
124710,note_on,30,0,1,,,,,,,,,0,,,86,0
124710,note_on,0,0,1,,,,,,,,,0,,,85,49
124800,note_on,90,0,1,,,,,,,,,0,,,85,0
124800,note_on,0,0,1,,,,,,,,,0,,,86,49
124830,note_on,0,0,3,,,,,,,,,2,,,65,36
124830,note_on,120,0,3,,,,,,,,,2,,,64,0
124830,note_on,0,0,1,,,,,,,,,0,,,85,49
124830,note_on,30,0,1,,,,,,,,,0,,,86,0
124920,note_on,90,0,1,,,,,,,,,0,,,85,0
124920,note_on,0,0,1,,,,,,,,,0,,,83,49
124950,note_on,30,0,1,,,,,,,,,0,,,83,0
124950,note_on,120,0,3,,,,,,,,,2,,,65,0
124950,note_on,0,0,3,,,,,,,,,2,,,73,62
124950,control_change,0,0,3,,,,,,,,,2,64,127,,
124950,control_change,0,0,1,,,,,,,,,0,64,127,,
124950,note_on,0,0,1,,,,,,,,,0,,,78,67
124950,note_on,0,0,1,,,,,,,,,0,,,82,75
124950,note_on,0,0,3,,,,,,,,,2,,,66,54
125190,note_on,0,0,3,,,,,,,,,2,,,66,54
125190,note_on,0,0,1,,,,,,,,,0,,,82,75
125190,note_on,0,0,1,,,,,,,,,0,,,78,67
125190,note_on,0,0,1,,,,,,,,,0,,,78,0
125190,note_on,240,0,1,,,,,,,,,0,,,82,0
125190,note_on,240,0,3,,,,,,,,,2,,,73,0
125190,note_on,0,0,3,,,,,,,,,2,,,66,0
125190,note_on,0,0,3,,,,,,,,,2,,,73,62
125370,note_on,0,0,1,,,,,,,,,0,,,82,49
125370,note_on,0,0,1,,,,,,,,,0,,,78,0
125370,note_on,180,0,1,,,,,,,,,0,,,82,0
125370,note_on,180,0,3,,,,,,,,,2,,,73,0
125370,note_on,0,0,3,,,,,,,,,2,,,66,0
125430,note_on,0,0,3,,,,,,,,,2,,,73,36
125430,note_on,4200,0,2,,,,,,,,,1,,,78,36
125430,note_on,0,0,1,,,,,,,,,0,,,83,49
125430,note_on,60,0,1,,,,,,,,,0,,,82,0
125430,note_on,60,0,3,,,,,,,,,2,,,66,36
125442,note_on,12,0,3,,,,,,,,,2,,,73,0
125442,note_on,0,0,3,,,,,,,,,2,,,66,0
125520,note_on,90,0,1,,,,,,,,,0,,,83,0
125520,note_on,0,0,1,,,,,,,,,0,,,82,49
125550,control_change,108,0,3,,,,,,,,,2,64,0,,
125550,note_on,30,0,1,,,,,,,,,0,,,82,0
125550,note_on,120,0,2,,,,,,,,,1,,,78,0
125550,note_on,0,0,1,,,,,,,,,0,,,83,49
125550,note_on,0,0,3,,,,,,,,,2,,,66,36
125550,note_on,0,0,3,,,,,,,,,2,,,73,36
125550,note_on,0,0,2,,,,,,,,,1,,,78,36
125562,note_on,12,0,3,,,,,,,,,2,,,73,0
125562,note_on,0,0,3,,,,,,,,,2,,,66,0
125640,control_change,0,0,1,,,,,,,,,0,64,0,,
125640,note_on,0,0,1,,,,,,,,,0,,,82,49
125640,note_on,90,0,1,,,,,,,,,0,,,83,0
125670,control_change,0,0,1,,,,,,,,,0,64,127,,
125670,note_on,0,0,1,,,,,,,,,0,,,77,67
125670,control_change,108,0,3,,,,,,,,,2,64,127,,
125670,note_on,0,0,3,,,,,,,,,2,,,61,54
125670,note_on,0,0,1,,,,,,,,,0,,,80,75
125670,note_on,30,0,1,,,,,,,,,0,,,82,0
125670,note_on,120,0,2,,,,,,,,,1,,,78,0
125670,note_on,0,0,3,,,,,,,,,2,,,71,62
125910,note_on,0,0,3,,,,,,,,,2,,,61,54
125910,note_on,0,0,3,,,,,,,,,2,,,61,0
125910,note_on,0,0,1,,,,,,,,,0,,,80,75
125910,note_on,0,0,1,,,,,,,,,0,,,77,67
125910,note_on,0,0,1,,,,,,,,,0,,,77,0
125910,note_on,240,0,1,,,,,,,,,0,,,80,0
125910,note_on,240,0,3,,,,,,,,,2,,,71,0
125910,note_on,0,0,3,,,,,,,,,2,,,71,62
126090,note_on,0,0,1,,,,,,,,,0,,,80,49
126090,note_on,0,0,1,,,,,,,,,0,,,77,0
126090,note_on,180,0,1,,,,,,,,,0,,,80,0
126150,note_on,60,0,1,,,,,,,,,0,,,80,0
126150,note_on,480,0,2,,,,,,,,,1,,,77,36
126150,note_on,0,0,1,,,,,,,,,0,,,82,49
126150,note_on,0,0,3,,,,,,,,,2,,,61,0
126150,note_on,0,0,3,,,,,,,,,2,,,71,36
126150,note_on,0,0,3,,,,,,,,,2,,,61,36
126150,note_on,240,0,3,,,,,,,,,2,,,71,0
126162,note_on,12,0,3,,,,,,,,,2,,,71,0
126162,note_on,0,0,3,,,,,,,,,2,,,61,0
126240,note_on,0,0,1,,,,,,,,,0,,,80,49
126240,note_on,90,0,1,,,,,,,,,0,,,82,0
126270,note_on,0,0,1,,,,,,,,,0,,,82,49
126270,note_on,30,0,1,,,,,,,,,0,,,80,0
126270,note_on,120,0,2,,,,,,,,,1,,,77,0
126270,note_on,0,0,2,,,,,,,,,1,,,77,36
126270,note_on,0,0,3,,,,,,,,,2,,,61,36
126270,note_on,0,0,3,,,,,,,,,2,,,71,36
126270,control_change,108,0,3,,,,,,,,,2,64,0,,
126282,note_on,12,0,3,,,,,,,,,2,,,71,0
126282,note_on,0,0,3,,,,,,,,,2,,,61,0
126360,control_change,0,0,1,,,,,,,,,0,64,0,,
126360,note_on,90,0,1,,,,,,,,,0,,,82,0
126360,note_on,0,0,1,,,,,,,,,0,,,80,49
126390,control_change,108,0,3,,,,,,,,,2,64,127,,
126390,note_on,0,0,3,,,,,,,,,2,,,70,62
126390,note_on,0,0,3,,,,,,,,,2,,,66,54
126390,note_on,0,0,1,,,,,,,,,0,,,78,75
126390,control_change,0,0,1,,,,,,,,,0,64,127,,
126390,note_on,30,0,1,,,,,,,,,0,,,80,0
126390,note_on,120,0,2,,,,,,,,,1,,,77,0
126630,note_on,240,0,3,,,,,,,,,2,,,70,0
126630,note_on,0,0,3,,,,,,,,,2,,,66,54
126630,note_on,0,0,1,,,,,,,,,0,,,78,75
126630,note_on,0,0,3,,,,,,,,,2,,,70,62
126630,note_on,0,0,3,,,,,,,,,2,,,66,0
126630,note_on,240,0,1,,,,,,,,,0,,,78,0
126750,control_change,120,0,1,,,,,,,,,0,64,0,,
126750,control_change,120,0,3,,,,,,,,,2,64,0,,
126840,note_on,90,0,3,,,,,,,,,2,,,70,0
126840,note_on,2190,0,4,,,,,,,,,3,,,33,75
126840,note_on,0,0,4,,,,,,,,,3,,,45,75
126840,note_on,90,0,1,,,,,,,,,0,,,78,0
126840,note_on,0,0,2,,,,,,,,,1,,,55,88
126840,note_on,0,0,2,,,,,,,,,1,,,57,88
126840,note_on,0,0,3,,,,,,,,,2,,,66,0
126840,note_on,450,0,2,,,,,,,,,1,,,49,88
126870,note_on,0,0,4,,,,,,,,,3,,,45,75
126870,note_on,0,0,4,,,,,,,,,3,,,33,75
126870,note_on,0,0,4,,,,,,,,,3,,,33,0
126870,note_on,30,0,4,,,,,,,,,3,,,45,0
126885,note_on,0,0,2,,,,,,,,,1,,,49,88
126885,note_on,0,0,2,,,,,,,,,1,,,55,88
126885,note_on,0,0,2,,,,,,,,,1,,,57,88
126885,note_on,0,0,2,,,,,,,,,1,,,49,0
126885,note_on,0,0,2,,,,,,,,,1,,,55,0
126885,note_on,45,0,2,,,,,,,,,1,,,57,0
126945,note_on,60,0,2,,,,,,,,,1,,,57,0
126945,note_on,0,0,2,,,,,,,,,1,,,55,0
126945,note_on,0,0,2,,,,,,,,,1,,,49,0
126945,note_on,0,0,2,,,,,,,,,1,,,49,88
126945,note_on,0,0,2,,,,,,,,,1,,,55,88
126945,note_on,0,0,2,,,,,,,,,1,,,57,88
126960,note_on,0,0,4,,,,,,,,,3,,,45,75
126960,note_on,0,0,4,,,,,,,,,3,,,33,75
126960,note_on,0,0,4,,,,,,,,,3,,,33,0
126960,note_on,90,0,4,,,,,,,,,3,,,45,0
126975,note_on,30,0,2,,,,,,,,,1,,,57,0
126975,note_on,0,0,2,,,,,,,,,1,,,55,0
126975,note_on,0,0,2,,,,,,,,,1,,,49,0
126975,note_on,0,0,2,,,,,,,,,1,,,49,88
126975,note_on,0,0,2,,,,,,,,,1,,,55,88
126975,note_on,0,0,2,,,,,,,,,1,,,59,88
126990,note_on,0,0,4,,,,,,,,,3,,,45,75
126990,note_on,0,0,4,,,,,,,,,3,,,33,75
126990,note_on,0,0,4,,,,,,,,,3,,,33,0
126990,note_on,30,0,4,,,,,,,,,3,,,45,0
127065,note_on,90,0,2,,,,,,,,,1,,,59,0
127065,note_on,0,0,2,,,,,,,,,1,,,61,88
127065,note_on,0,0,2,,,,,,,,,1,,,55,88
127065,note_on,0,0,2,,,,,,,,,1,,,49,88
127065,note_on,0,0,2,,,,,,,,,1,,,49,0
127065,note_on,0,0,2,,,,,,,,,1,,,55,0
127080,note_on,0,0,4,,,,,,,,,3,,,33,0
127080,note_on,90,0,4,,,,,,,,,3,,,45,0
127080,note_on,0,0,4,,,,,,,,,3,,,45,75
127080,note_on,0,0,4,,,,,,,,,3,,,33,75
127095,note_on,30,0,2,,,,,,,,,1,,,61,0
127095,note_on,0,0,2,,,,,,,,,1,,,55,0
127095,note_on,0,0,2,,,,,,,,,1,,,49,0
127110,note_on,0,0,4,,,,,,,,,3,,,35,101
127110,note_on,0,0,4,,,,,,,,,3,,,47,101
127110,note_on,0,0,4,,,,,,,,,3,,,33,0
127110,note_on,0,0,1,,,,,,,,,0,,,62,114
127110,note_on,0,0,1,,,,,,,,,0,,,54,114
127110,note_on,270,0,1,,,,,,,,,0,,,50,114
127110,note_on,30,0,4,,,,,,,,,3,,,45,0
127350,note_on,240,0,4,,,,,,,,,3,,,47,0
127350,note_on,0,0,4,,,,,,,,,3,,,35,0
127350,note_on,0,0,4,,,,,,,,,3,,,35,101
127350,note_on,0,0,4,,,,,,,,,3,,,47,101
127350,note_on,0,0,1,,,,,,,,,0,,,62,114
127350,note_on,0,0,1,,,,,,,,,0,,,59,114
127350,note_on,0,0,1,,,,,,,,,0,,,54,114
127350,note_on,0,0,1,,,,,,,,,0,,,50,114
127350,note_on,0,0,1,,,,,,,,,0,,,50,0
127350,note_on,0,0,1,,,,,,,,,0,,,54,0
127350,note_on,240,0,1,,,,,,,,,0,,,62,0
127560,note_on,0,0,1,,,,,,,,,0,,,59,0
127560,note_on,0,0,1,,,,,,,,,0,,,54,0
127560,note_on,0,0,1,,,,,,,,,0,,,50,0
127560,note_on,0,0,1,,,,,,,,,0,,,62,114
127560,note_on,210,0,1,,,,,,,,,0,,,62,0
127590,note_on,495,0,2,,,,,,,,,1,,,54,101
127590,note_on,30,0,1,,,,,,,,,0,,,62,0
127590,note_on,240,0,4,,,,,,,,,3,,,47,0
127590,note_on,0,0,4,,,,,,,,,3,,,35,0
127590,note_on,0,0,4,,,,,,,,,3,,,35,101
127590,note_on,0,0,4,,,,,,,,,3,,,47,101
127590,note_on,0,0,1,,,,,,,,,0,,,62,114
127680,note_on,0,0,1,,,,,,,,,0,,,64,114
127680,note_on,90,0,1,,,,,,,,,0,,,62,0
127710,note_on,0,0,1,,,,,,,,,0,,,66,114
127710,note_on,30,0,1,,,,,,,,,0,,,64,0
127710,note_on,120,0,2,,,,,,,,,1,,,54,0
127710,note_on,0,0,4,,,,,,,,,3,,,47,101
127710,note_on,0,0,4,,,,,,,,,3,,,35,101
127710,note_on,0,0,4,,,,,,,,,3,,,35,0
127710,note_on,120,0,4,,,,,,,,,3,,,47,0
127710,note_on,0,0,2,,,,,,,,,1,,,54,101
127800,note_on,90,0,1,,,,,,,,,0,,,66,0
127800,note_on,0,0,1,,,,,,,,,0,,,62,114
127830,note_on,0,0,1,,,,,,,,,0,,,69,114
127830,note_on,0,0,1,,,,,,,,,0,,,57,114
127830,note_on,0,0,1,,,,,,,,,0,,,67,114
127830,note_on,0,0,4,,,,,,,,,3,,,49,101
127830,note_on,0,0,4,,,,,,,,,3,,,45,101
127830,note_on,0,0,4,,,,,,,,,3,,,37,101
127830,note_on,0,0,4,,,,,,,,,3,,,35,0
127830,note_on,120,0,4,,,,,,,,,3,,,47,0
127830,note_on,30,0,1,,,,,,,,,0,,,62,0
127830,note_on,120,0,2,,,,,,,,,1,,,54,0
127830,note_on,0,0,1,,,,,,,,,0,,,64,114
128070,note_on,0,0,4,,,,,,,,,3,,,49,101
128070,note_on,240,0,4,,,,,,,,,3,,,49,0
128070,note_on,0,0,4,,,,,,,,,3,,,45,101
128070,note_on,0,0,1,,,,,,,,,0,,,69,114
128070,note_on,0,0,1,,,,,,,,,0,,,67,114
128070,note_on,0,0,1,,,,,,,,,0,,,64,114
128070,note_on,0,0,1,,,,,,,,,0,,,57,114
128070,note_on,0,0,1,,,,,,,,,0,,,67,0
128070,note_on,0,0,1,,,,,,,,,0,,,64,0
128070,note_on,0,0,1,,,,,,,,,0,,,57,0
128070,note_on,240,0,1,,,,,,,,,0,,,69,0
128070,note_on,0,0,4,,,,,,,,,3,,,37,101
128070,note_on,0,0,4,,,,,,,,,3,,,37,0
128070,note_on,0,0,4,,,,,,,,,3,,,45,0
128280,note_on,0,0,1,,,,,,,,,0,,,64,0
128280,note_on,0,0,1,,,,,,,,,0,,,67,0
128280,note_on,0,0,1,,,,,,,,,0,,,57,0
128280,note_on,0,0,1,,,,,,,,,0,,,69,114
128280,note_on,0,0,1,,,,,,,,,0,,,67,114
128280,note_on,0,0,1,,,,,,,,,0,,,64,114
128280,note_on,210,0,1,,,,,,,,,0,,,69,0
128310,note_on,0,0,1,,,,,,,,,0,,,67,0
128310,note_on,30,0,1,,,,,,,,,0,,,69,0
128310,note_on,0,0,1,,,,,,,,,0,,,69,114
128310,note_on,0,0,1,,,,,,,,,0,,,67,114
128310,note_on,0,0,4,,,,,,,,,3,,,37,101
128310,note_on,240,0,4,,,,,,,,,3,,,49,0
128310,note_on,0,0,4,,,,,,,,,3,,,45,0
128310,note_on,0,0,4,,,,,,,,,3,,,49,101
128310,note_on,0,0,1,,,,,,,,,0,,,64,114
128310,note_on,0,0,1,,,,,,,,,0,,,64,0
128310,note_on,0,0,4,,,,,,,,,3,,,37,0
128400,note_on,0,0,1,,,,,,,,,0,,,69,114
128400,note_on,0,0,1,,,,,,,,,0,,,67,114
128400,note_on,0,0,1,,,,,,,,,0,,,67,0
128400,note_on,0,0,1,,,,,,,,,0,,,64,0
128400,note_on,90,0,1,,,,,,,,,0,,,69,0
128400,note_on,0,0,1,,,,,,,,,0,,,64,114
128430,note_on,30,0,1,,,,,,,,,0,,,69,0
128430,note_on,0,0,1,,,,,,,,,0,,,67,0
128430,note_on,0,0,1,,,,,,,,,0,,,64,0
128430,note_on,0,0,1,,,,,,,,,0,,,64,114
128430,note_on,0,0,1,,,,,,,,,0,,,67,114
128430,note_on,0,0,1,,,,,,,,,0,,,71,114
128430,note_on,0,0,4,,,,,,,,,3,,,37,101
128430,note_on,120,0,4,,,,,,,,,3,,,49,0
128430,note_on,0,0,4,,,,,,,,,3,,,37,0
128430,note_on,0,0,4,,,,,,,,,3,,,49,101
128520,note_on,0,0,1,,,,,,,,,0,,,64,114
128520,note_on,0,0,1,,,,,,,,,0,,,67,0
128520,note_on,0,0,1,,,,,,,,,0,,,64,0
128520,note_on,90,0,1,,,,,,,,,0,,,71,0
128520,note_on,0,0,1,,,,,,,,,0,,,67,114
128520,note_on,0,0,1,,,,,,,,,0,,,73,114
128550,note_on,0,0,1,,,,,,,,,0,,,67,0
128550,note_on,30,0,1,,,,,,,,,0,,,73,0
128550,note_on,1710,0,3,,,,,,,,,2,,,36,101
128550,note_on,120,0,4,,,,,,,,,3,,,49,0
128550,note_on,0,0,3,,,,,,,,,2,,,48,101
128550,note_on,0,0,1,,,,,,,,,0,,,64,0
128550,note_on,0,0,1,,,,,,,,,0,,,74,114
128550,note_on,0,0,1,,,,,,,,,0,,,69,114
128550,note_on,0,0,1,,,,,,,,,0,,,66,114
128550,note_on,0,0,1,,,,,,,,,0,,,62,114
128550,note_on,0,0,4,,,,,,,,,3,,,37,0
128790,note_on,240,0,3,,,,,,,,,2,,,48,0
128790,note_on,0,0,3,,,,,,,,,2,,,36,0
128790,note_on,0,0,3,,,,,,,,,2,,,35,101
128790,note_on,0,0,3,,,,,,,,,2,,,47,101
128790,note_on,0,0,1,,,,,,,,,0,,,62,0
128790,note_on,0,0,1,,,,,,,,,0,,,67,114
128790,note_on,0,0,1,,,,,,,,,0,,,62,114
128790,note_on,0,0,1,,,,,,,,,0,,,69,0
128790,note_on,240,0,1,,,,,,,,,0,,,74,0
128790,note_on,0,0,1,,,,,,,,,0,,,74,114
128790,note_on,0,0,1,,,,,,,,,0,,,66,0
128970,note_on,0,0,3,,,,,,,,,2,,,46,101
128970,note_on,0,0,3,,,,,,,,,2,,,34,101
128970,note_on,0,0,3,,,,,,,,,2,,,35,0
128970,note_on,180,0,3,,,,,,,,,2,,,47,0
128970,note_on,180,0,1,,,,,,,,,0,,,74,0
128970,note_on,0,0,1,,,,,,,,,0,,,74,114
128970,note_on,0,0,1,,,,,,,,,0,,,68,114
128970,note_on,0,0,1,,,,,,,,,0,,,62,0
128970,note_on,0,0,1,,,,,,,,,0,,,67,0
128976,note_on,0,0,1,,,,,,,,,0,,,68,0
128976,note_on,6,0,1,,,,,,,,,0,,,74,0
128976,note_on,6,0,3,,,,,,,,,2,,,46,0
128976,note_on,0,0,3,,,,,,,,,2,,,34,0
129030,note_on,54,0,1,,,,,,,,,0,,,68,114
129030,note_on,0,0,1,,,,,,,,,0,,,74,114
129030,note_on,0,0,3,,,,,,,,,2,,,46,101
129030,note_on,54,0,3,,,,,,,,,2,,,34,101
129036,note_on,6,0,3,,,,,,,,,2,,,46,0
129036,note_on,0,0,3,,,,,,,,,2,,,34,0
129036,note_on,6,0,1,,,,,,,,,0,,,74,0
129036,note_on,0,0,1,,,,,,,,,0,,,68,0
129090,note_on,54,0,1,,,,,,,,,0,,,68,114
129090,note_on,0,0,1,,,,,,,,,0,,,74,114
129090,note_on,0,0,1,,,,,,,,,0,,,76,114
129090,note_on,0,0,3,,,,,,,,,2,,,46,101
129090,note_on,54,0,3,,,,,,,,,2,,,34,101
129096,note_on,0,0,1,,,,,,,,,0,,,74,0
129096,note_on,6,0,3,,,,,,,,,2,,,46,0
129096,note_on,0,0,1,,,,,,,,,0,,,68,0
129096,note_on,0,0,3,,,,,,,,,2,,,34,0
129096,note_on,6,0,1,,,,,,,,,0,,,76,0
129150,note_on,0,0,3,,,,,,,,,2,,,46,101
129150,note_on,0,0,1,,,,,,,,,0,,,78,114
129150,note_on,0,0,1,,,,,,,,,0,,,74,114
129150,note_on,54,0,1,,,,,,,,,0,,,68,114
129150,note_on,54,0,3,,,,,,,,,2,,,34,101
129156,note_on,0,0,1,,,,,,,,,0,,,68,0
129156,note_on,6,0,1,,,,,,,,,0,,,78,0
129156,note_on,0,0,1,,,,,,,,,0,,,74,0
129156,note_on,0,0,3,,,,,,,,,2,,,34,0
129156,note_on,6,0,3,,,,,,,,,2,,,46,0
129210,note_on,54,0,3,,,,,,,,,2,,,34,101
129210,note_on,0,0,3,,,,,,,,,2,,,46,101
129210,note_on,0,0,1,,,,,,,,,0,,,80,114
129210,note_on,0,0,1,,,,,,,,,0,,,74,114
129210,note_on,54,0,1,,,,,,,,,0,,,68,114
129216,note_on,6,0,1,,,,,,,,,0,,,80,0
129216,note_on,0,0,1,,,,,,,,,0,,,74,0
129216,note_on,0,0,3,,,,,,,,,2,,,34,0
129216,note_on,6,0,3,,,,,,,,,2,,,46,0
129216,note_on,0,0,1,,,,,,,,,0,,,68,0
129270,note_on,54,0,1,,,,,,,,,0,,,69,114
129270,note_on,0,0,1,,,,,,,,,0,,,73,114
129270,note_on,0,0,1,,,,,,,,,0,,,81,114
129270,note_on,0,0,3,,,,,,,,,2,,,45,101
129270,note_on,54,0,3,,,,,,,,,2,,,33,101
129510,note_on,240,0,3,,,,,,,,,2,,,45,0
129510,note_on,0,0,3,,,,,,,,,2,,,33,0
129510,note_on,0,0,3,,,,,,,,,2,,,45,101
129510,note_on,0,0,3,,,,,,,,,2,,,52,101
129510,note_on,0,0,1,,,,,,,,,0,,,57,114
129510,note_on,0,0,1,,,,,,,,,0,,,69,114
129510,note_on,0,0,1,,,,,,,,,0,,,61,114
129510,note_on,0,0,1,,,,,,,,,0,,,69,0
129510,note_on,0,0,1,,,,,,,,,0,,,73,0
129510,note_on,240,0,1,,,,,,,,,0,,,81,0
129630,time_signature,6840,1,0,4,4,24,8,,,,,,,,,
129750,note_on,240,0,3,,,,,,,,,2,,,52,0
129750,note_on,0,0,3,,,,,,,,,2,,,45,0
129750,note_on,0,0,1,,,,,,,,,0,,,57,0
129750,note_on,240,0,1,,,,,,,,,0,,,69,0
129750,note_on,0,0,1,,,,,,,,,0,,,61,0
129870,note_on,120,0,3,,,,,,,,,2,,,61,36
129870,note_on,120,0,1,,,,,,,,,0,,,76,49
129990,note_on,0,0,3,,,,,,,,,2,,,57,36
129990,note_on,120,0,3,,,,,,,,,2,,,61,0
129990,note_on,120,0,1,,,,,,,,,0,,,76,0
129990,note_on,0,0,1,,,,,,,,,0,,,77,49
130110,note_on,0,0,3,,,,,,,,,2,,,62,36
130110,note_on,0,0,1,,,,,,,,,0,,,78,49
130110,control_change,0,0,1,,,,,,,,,0,64,127,,
130110,note_on,120,0,1,,,,,,,,,0,,,77,0
130110,control_change,0,0,3,,,,,,,,,2,64,127,,
130110,note_on,120,0,3,,,,,,,,,2,,,57,0
130110,time_signature,480,1,0,3,4,24,8,,,,,,,,,
130149,note_on,39,0,1,,,,,,,,,0,,,77,49
130150,note_on,1,0,1,,,,,,,,,0,,,78,0
130189,note_on,39,0,1,,,,,,,,,0,,,77,0
130190,note_on,1,0,1,,,,,,,,,0,,,78,49
130230,note_on,0,0,3,,,,,,,,,2,,,66,36
130230,note_on,120,0,3,,,,,,,,,2,,,62,0
130230,note_on,0,0,1,,,,,,,,,0,,,83,49
130230,note_on,40,0,1,,,,,,,,,0,,,78,0
130269,note_on,39,0,1,,,,,,,,,0,,,82,49
130270,note_on,1,0,1,,,,,,,,,0,,,83,0
130309,note_on,39,0,1,,,,,,,,,0,,,82,0
130310,note_on,1,0,1,,,,,,,,,0,,,83,49
130350,note_on,0,0,3,,,,,,,,,2,,,71,62
130350,note_on,0,0,1,,,,,,,,,0,,,86,75
130350,control_change,0,0,1,,,,,,,,,0,64,0,,
130350,note_on,40,0,1,,,,,,,,,0,,,83,0
130350,control_change,0,0,3,,,,,,,,,2,64,0,,
130350,note_on,120,0,3,,,,,,,,,2,,,66,0
130470,note_on,0,0,3,,,,,,,,,2,,,56,36
130470,control_change,0,0,3,,,,,,,,,2,64,127,,
130470,note_on,120,0,3,,,,,,,,,2,,,71,0
130470,control_change,120,0,1,,,,,,,,,0,64,127,,
130530,note_on,60,0,3,,,,,,,,,2,,,56,0
130560,note_on,90,0,1,,,,,,,,,0,,,86,0
130560,note_on,0,0,1,,,,,,,,,0,,,85,49
130575,note_on,0,0,1,,,,,,,,,0,,,83,49
130575,note_on,15,0,1,,,,,,,,,0,,,85,0
130582,note_on,7,0,1,,,,,,,,,0,,,85,49
130583,note_on,1,0,1,,,,,,,,,0,,,83,0
130590,note_on,0,0,1,,,,,,,,,0,,,83,49
130590,note_on,7,0,1,,,,,,,,,0,,,85,0
130590,note_on,60,0,3,,,,,,,,,2,,,68,36
130680,note_on,90,0,1,,,,,,,,,0,,,83,0
130680,note_on,0,0,1,,,,,,,,,0,,,81,49
130695,note_on,15,0,1,,,,,,,,,0,,,81,0
130695,note_on,0,0,1,,,,,,,,,0,,,80,49
130702,note_on,7,0,1,,,,,,,,,0,,,81,49
130703,note_on,1,0,1,,,,,,,,,0,,,80,0
130710,note_on,7,0,1,,,,,,,,,0,,,81,0
130710,note_on,0,0,1,,,,,,,,,0,,,80,49
130710,note_on,0,0,3,,,,,,,,,2,,,62,36
130710,note_on,120,0,3,,,,,,,,,2,,,68,0
130710,control_change,0,0,3,,,,,,,,,2,64,0,,
130800,note_on,90,0,1,,,,,,,,,0,,,80,0
130800,control_change,0,0,1,,,,,,,,,0,64,0,,
130800,note_on,0,0,1,,,,,,,,,0,,,78,49
130830,note_on,30,0,1,,,,,,,,,0,,,78,0
130830,control_change,0,0,1,,,,,,,,,0,64,127,,
130830,note_on,0,0,1,,,,,,,,,0,,,76,49
130830,control_change,0,0,3,,,,,,,,,2,64,127,,
130830,note_on,120,0,3,,,,,,,,,2,,,62,0
130830,note_on,0,0,3,,,,,,,,,2,,,61,36
130869,note_on,39,0,1,,,,,,,,,0,,,75,49
130870,note_on,1,0,1,,,,,,,,,0,,,76,0
130909,note_on,39,0,1,,,,,,,,,0,,,75,0
130910,note_on,1,0,1,,,,,,,,,0,,,76,49
130950,note_on,0,0,1,,,,,,,,,0,,,81,49
130950,note_on,0,0,3,,,,,,,,,2,,,64,36
130950,note_on,120,0,3,,,,,,,,,2,,,61,0
130950,note_on,40,0,1,,,,,,,,,0,,,76,0
130989,note_on,39,0,1,,,,,,,,,0,,,80,49
130990,note_on,1,0,1,,,,,,,,,0,,,81,0
131029,note_on,39,0,1,,,,,,,,,0,,,80,0
131030,note_on,1,0,1,,,,,,,,,0,,,81,49
131070,note_on,0,0,1,,,,,,,,,0,,,85,75
131070,control_change,0,0,1,,,,,,,,,0,64,0,,
131070,control_change,0,0,3,,,,,,,,,2,64,0,,
131070,note_on,40,0,1,,,,,,,,,0,,,81,0
131070,note_on,0,0,3,,,,,,,,,2,,,69,62
131070,note_on,120,0,3,,,,,,,,,2,,,64,0
131190,note_on,0,0,3,,,,,,,,,2,,,54,36
131190,control_change,0,0,3,,,,,,,,,2,64,127,,
131190,note_on,120,0,3,,,,,,,,,2,,,69,0
131190,control_change,120,0,1,,,,,,,,,0,64,127,,
131250,note_on,60,0,3,,,,,,,,,2,,,54,0
131280,note_on,0,0,1,,,,,,,,,0,,,83,49
131280,note_on,90,0,1,,,,,,,,,0,,,85,0
131295,note_on,0,0,1,,,,,,,,,0,,,81,49
131295,note_on,15,0,1,,,,,,,,,0,,,83,0
131302,note_on,7,0,1,,,,,,,,,0,,,83,49
131303,note_on,1,0,1,,,,,,,,,0,,,81,0
131310,note_on,60,0,3,,,,,,,,,2,,,66,36
131310,note_on,7,0,1,,,,,,,,,0,,,83,0
131310,note_on,0,0,1,,,,,,,,,0,,,81,49
131400,note_on,90,0,1,,,,,,,,,0,,,81,0
131400,note_on,0,0,1,,,,,,,,,0,,,80,49
131415,note_on,15,0,1,,,,,,,,,0,,,80,0
131415,note_on,0,0,1,,,,,,,,,0,,,78,49
131422,note_on,7,0,1,,,,,,,,,0,,,80,49
131423,note_on,1,0,1,,,,,,,,,0,,,78,0
131430,note_on,0,0,1,,,,,,,,,0,,,78,49
131430,note_on,7,0,1,,,,,,,,,0,,,80,0
131430,control_change,0,0,3,,,,,,,,,2,64,0,,
131430,note_on,120,0,3,,,,,,,,,2,,,66,0
131430,note_on,0,0,3,,,,,,,,,2,,,61,36
131520,note_on,0,0,1,,,,,,,,,0,,,76,49
131520,control_change,0,0,1,,,,,,,,,0,64,0,,
131520,note_on,90,0,1,,,,,,,,,0,,,78,0
131550,note_on,0,0,1,,,,,,,,,0,,,74,49
131550,control_change,0,0,1,,,,,,,,,0,64,127,,
131550,note_on,120,0,3,,,,,,,,,2,,,61,0
131550,note_on,30,0,1,,,,,,,,,0,,,76,0
131550,note_on,0,0,3,,,,,,,,,2,,,59,36
131550,control_change,0,0,3,,,,,,,,,2,64,127,,
131589,note_on,39,0,1,,,,,,,,,0,,,73,49
131590,note_on,1,0,1,,,,,,,,,0,,,74,0
131629,note_on,39,0,1,,,,,,,,,0,,,73,0
131630,note_on,1,0,1,,,,,,,,,0,,,74,49
131670,note_on,120,0,3,,,,,,,,,2,,,59,0
131670,note_on,40,0,1,,,,,,,,,0,,,74,0
131670,note_on,0,0,1,,,,,,,,,0,,,80,49
131670,note_on,0,0,3,,,,,,,,,2,,,62,36
131709,note_on,39,0,1,,,,,,,,,0,,,79,49
131710,note_on,1,0,1,,,,,,,,,0,,,80,0
131749,note_on,39,0,1,,,,,,,,,0,,,79,0
131750,note_on,1,0,1,,,,,,,,,0,,,80,49
131790,note_on,40,0,1,,,,,,,,,0,,,80,0
131790,note_on,0,0,1,,,,,,,,,0,,,83,75
131790,control_change,0,0,1,,,,,,,,,0,64,0,,
131790,note_on,120,0,3,,,,,,,,,2,,,62,0
131790,note_on,0,0,3,,,,,,,,,2,,,68,62
131790,control_change,0,0,3,,,,,,,,,2,64,0,,
131910,note_on,0,0,3,,,,,,,,,2,,,47,36
131910,control_change,0,0,3,,,,,,,,,2,64,127,,
131910,note_on,120,0,3,,,,,,,,,2,,,68,0
131910,control_change,120,0,1,,,,,,,,,0,64,127,,
131970,note_on,60,0,3,,,,,,,,,2,,,47,0
132000,note_on,90,0,1,,,,,,,,,0,,,83,0
132000,note_on,0,0,1,,,,,,,,,0,,,81,49
132030,note_on,0,0,1,,,,,,,,,0,,,80,49
132030,note_on,30,0,1,,,,,,,,,0,,,81,0
132030,note_on,60,0,3,,,,,,,,,2,,,59,36
132120,note_on,0,0,1,,,,,,,,,0,,,81,49
132120,note_on,90,0,1,,,,,,,,,0,,,80,0
132150,note_on,0,0,1,,,,,,,,,0,,,80,49
132150,note_on,30,0,1,,,,,,,,,0,,,81,0
132150,note_on,120,0,3,,,,,,,,,2,,,59,0
132150,control_change,0,0,3,,,,,,,,,2,64,0,,
132150,note_on,0,0,3,,,,,,,,,2,,,60,36
132240,control_change,0,0,1,,,,,,,,,0,64,0,,
132240,note_on,0,0,1,,,,,,,,,0,,,78,49
132240,note_on,90,0,1,,,,,,,,,0,,,80,0
132270,note_on,120,0,3,,,,,,,,,2,,,60,0
132270,note_on,0,0,3,,,,,,,,,2,,,61,54
132270,note_on,0,0,3,,,,,,,,,2,,,68,62
132270,note_on,0,0,1,,,,,,,,,0,,,77,62
132270,note_on,30,0,1,,,,,,,,,0,,,78,0
132270,note_on,0,0,1,,,,,,,,,0,,,73,54
132510,note_on,240,0,1,,,,,,,,,0,,,77,0
132510,note_on,0,0,3,,,,,,,,,2,,,68,36
132510,note_on,0,0,3,,,,,,,,,2,,,61,36
132510,note_on,0,0,3,,,,,,,,,2,,,61,0
132510,note_on,240,0,3,,,,,,,,,2,,,68,0
132510,note_on,0,0,1,,,,,,,,,0,,,77,36
132510,note_on,0,0,1,,,,,,,,,0,,,73,36
132510,note_on,0,0,1,,,,,,,,,0,,,73,0
132720,note_on,0,0,1,,,,,,,,,0,,,73,0
132720,note_on,210,0,1,,,,,,,,,0,,,77,0
132720,note_on,0,0,1,,,,,,,,,0,,,77,36
132750,note_on,30,0,1,,,,,,,,,0,,,77,0
132750,note_on,4920,0,2,,,,,,,,,1,,,73,36
132750,note_on,240,0,3,,,,,,,,,2,,,68,0
132750,note_on,0,0,3,,,,,,,,,2,,,61,0
132750,note_on,0,0,3,,,,,,,,,2,,,61,36
132750,note_on,0,0,3,,,,,,,,,2,,,68,36
132750,note_on,0,0,1,,,,,,,,,0,,,78,36
132762,note_on,0,0,3,,,,,,,,,2,,,61,0
132762,note_on,12,0,3,,,,,,,,,2,,,68,0
132840,note_on,90,0,1,,,,,,,,,0,,,78,0
132840,note_on,0,0,1,,,,,,,,,0,,,77,36
132870,note_on,0,0,3,,,,,,,,,2,,,68,36
132870,note_on,0,0,2,,,,,,,,,1,,,73,36
132870,note_on,120,0,2,,,,,,,,,1,,,73,0
132870,note_on,0,0,1,,,,,,,,,0,,,78,36
132870,note_on,30,0,1,,,,,,,,,0,,,77,0
132870,note_on,108,0,3,,,,,,,,,2,,,61,36
132882,note_on,0,0,3,,,,,,,,,2,,,61,0
132882,note_on,12,0,3,,,,,,,,,2,,,68,0
132960,note_on,0,0,1,,,,,,,,,0,,,77,36
132960,note_on,90,0,1,,,,,,,,,0,,,78,0
132990,note_on,0,0,3,,,,,,,,,2,,,68,62
132990,note_on,0,0,3,,,,,,,,,2,,,64,57
132990,note_on,108,0,3,,,,,,,,,2,,,59,52
132990,note_on,0,0,2,,,,,,,,,1,,,74,36
132990,note_on,30,0,1,,,,,,,,,0,,,77,0
132990,note_on,0,0,1,,,,,,,,,0,,,76,54
132990,note_on,0,0,1,,,,,,,,,0,,,80,62
132990,note_on,120,0,2,,,,,,,,,1,,,73,0
133230,note_on,240,0,1,,,,,,,,,0,,,80,0
133230,note_on,0,0,3,,,,,,,,,2,,,59,52
133230,note_on,0,0,3,,,,,,,,,2,,,59,0
133230,note_on,0,0,1,,,,,,,,,0,,,80,62
133230,note_on,240,0,2,,,,,,,,,1,,,74,0
133230,note_on,0,0,1,,,,,,,,,0,,,76,0
133230,note_on,0,0,1,,,,,,,,,0,,,76,54
133230,note_on,0,0,3,,,,,,,,,2,,,64,57
133230,note_on,0,0,2,,,,,,,,,1,,,74,36
133230,note_on,0,0,3,,,,,,,,,2,,,68,62
133230,note_on,0,0,3,,,,,,,,,2,,,64,0
133230,note_on,240,0,3,,,,,,,,,2,,,68,0
133350,note_on,120,0,2,,,,,,,,,1,,,74,0
133440,note_on,210,0,1,,,,,,,,,0,,,80,0
133440,note_on,210,0,3,,,,,,,,,2,,,68,0
133440,note_on,0,0,3,,,,,,,,,2,,,64,0
133440,note_on,0,0,3,,,,,,,,,2,,,68,36
133440,note_on,0,0,3,,,,,,,,,2,,,59,0
133440,note_on,0,0,1,,,,,,,,,0,,,76,0
133440,note_on,0,0,1,,,,,,,,,0,,,76,36
133470,note_on,0,0,3,,,,,,,,,2,,,69,36
133470,note_on,30,0,3,,,,,,,,,2,,,68,0
133470,note_on,0,0,1,,,,,,,,,0,,,78,36
133470,note_on,120,0,2,,,,,,,,,1,,,74,36
133470,note_on,4920,0,4,,,,,,,,,3,,,64,36
133470,note_on,30,0,1,,,,,,,,,0,,,76,0
133560,note_on,0,0,3,,,,,,,,,2,,,68,36
133560,note_on,90,0,1,,,,,,,,,0,,,78,0
133560,note_on,0,0,1,,,,,,,,,0,,,76,36
133560,note_on,90,0,3,,,,,,,,,2,,,69,0
133590,note_on,120,0,4,,,,,,,,,3,,,64,0
133590,note_on,0,0,3,,,,,,,,,2,,,69,36
133590,note_on,120,0,2,,,,,,,,,1,,,74,0
133590,note_on,0,0,4,,,,,,,,,3,,,64,36
133590,note_on,30,0,1,,,,,,,,,0,,,76,0
133590,note_on,0,0,1,,,,,,,,,0,,,78,36
133590,note_on,30,0,3,,,,,,,,,2,,,68,0
133590,note_on,0,0,2,,,,,,,,,1,,,74,36
133680,note_on,0,0,1,,,,,,,,,0,,,80,36
133680,note_on,90,0,1,,,,,,,,,0,,,78,0
133680,note_on,90,0,3,,,,,,,,,2,,,69,0
133680,note_on,0,0,3,,,,,,,,,2,,,71,36
133710,note_on,120,0,2,,,,,,,,,1,,,74,0
133710,note_on,30,0,3,,,,,,,,,2,,,71,0
133710,note_on,0,0,3,,,,,,,,,2,,,57,36
133710,note_on,120,0,4,,,,,,,,,3,,,64,0
133710,note_on,30,0,1,,,,,,,,,0,,,80,0
133710,note_on,0,0,1,,,,,,,,,0,,,69,36
133710,note_on,0,0,1,,,,,,,,,0,,,73,36
133710,note_on,0,0,1,,,,,,,,,0,,,81,36
133710,note_on,0,0,3,,,,,,,,,2,,,64,36
133950,note_on,240,0,3,,,,,,,,,2,,,64,0
133950,note_on,0,0,3,,,,,,,,,2,,,57,0
133950,note_on,0,0,3,,,,,,,,,2,,,57,36
133950,note_on,0,0,1,,,,,,,,,0,,,73,36
133950,note_on,0,0,1,,,,,,,,,0,,,69,36
133950,note_on,0,0,1,,,,,,,,,0,,,81,36
133950,note_on,0,0,1,,,,,,,,,0,,,73,0
133950,note_on,240,0,1,,,,,,,,,0,,,81,0
133950,note_on,0,0,3,,,,,,,,,2,,,64,36
133950,note_on,0,0,1,,,,,,,,,0,,,69,0
134070,time_signature,3960,1,0,3,16,6,8,,,,,,,,,
134130,note_on,180,0,1,,,,,,,,,0,,,81,0
134130,note_on,0,0,1,,,,,,,,,0,,,73,0
134130,note_on,0,0,1,,,,,,,,,0,,,69,0
134160,note_on,0,0,3,,,,,,,,,2,,,57,0
134160,note_on,0,0,3,,,,,,,,,2,,,45,88
134160,note_on,210,0,3,,,,,,,,,2,,,64,0
134160,note_on,450,0,2,,,,,,,,,1,,,57,101
134160,time_signature,90,1,0,9,16,6,8,,,,,,,,,
134164,note_on,4,0,3,,,,,,,,,2,,,45,0
134164,note_on,4,0,2,,,,,,,,,1,,,57,0
134190,note_on,26,0,3,,,,,,,,,2,,,45,88
134190,note_on,26,0,2,,,,,,,,,1,,,57,101
134199,note_on,9,0,2,,,,,,,,,1,,,57,0
134199,note_on,9,0,3,,,,,,,,,2,,,45,0
134280,note_on,81,0,3,,,,,,,,,2,,,45,88
134280,note_on,81,0,2,,,,,,,,,1,,,57,101
134284,note_on,4,0,2,,,,,,,,,1,,,57,0
134284,note_on,4,0,3,,,,,,,,,2,,,45,0
134310,note_on,26,0,3,,,,,,,,,2,,,43,88
134310,note_on,26,0,2,,,,,,,,,1,,,55,101
134319,note_on,9,0,3,,,,,,,,,2,,,43,0
134319,note_on,9,0,2,,,,,,,,,1,,,55,0
134400,note_on,81,0,3,,,,,,,,,2,,,45,88
134400,note_on,81,0,2,,,,,,,,,1,,,57,101
134404,note_on,4,0,3,,,,,,,,,2,,,45,0
134404,note_on,4,0,2,,,,,,,,,1,,,57,0
134430,note_on,0,0,2,,,,,,,,,1,,,58,114
134430,note_on,0,0,2,,,,,,,,,1,,,55,114
134430,time_signature,270,1,0,3,4,24,8,,,,,,,,,
134430,note_on,26,0,2,,,,,,,,,1,,,52,114
134430,note_on,26,0,3,,,,,,,,,2,,,34,101
134430,note_on,0,0,3,,,,,,,,,2,,,46,101
134430,note_on,0,0,2,,,,,,,,,1,,,61,114
134670,note_on,0,0,2,,,,,,,,,1,,,58,114
134670,note_on,0,0,2,,,,,,,,,1,,,52,114
134670,note_on,0,0,2,,,,,,,,,1,,,55,114
134670,note_on,0,0,2,,,,,,,,,1,,,61,114
134670,note_on,0,0,2,,,,,,,,,1,,,58,0
134670,note_on,0,0,2,,,,,,,,,1,,,55,0
134670,note_on,0,0,2,,,,,,,,,1,,,52,0
134670,note_on,240,0,2,,,,,,,,,1,,,61,0
134670,note_on,240,0,3,,,,,,,,,2,,,46,0
134670,note_on,0,0,3,,,,,,,,,2,,,34,0
134670,note_on,0,0,3,,,,,,,,,2,,,34,101
134670,note_on,0,0,3,,,,,,,,,2,,,46,101
134850,note_on,0,0,2,,,,,,,,,1,,,52,0
134850,note_on,0,0,2,,,,,,,,,1,,,55,0
134850,note_on,0,0,2,,,,,,,,,1,,,58,0
134850,note_on,180,0,2,,,,,,,,,1,,,61,0
134880,note_on,0,0,3,,,,,,,,,2,,,57,101
134880,note_on,750,0,1,,,,,,,,,0,,,69,114
134880,note_on,210,0,3,,,,,,,,,2,,,46,0
134880,note_on,0,0,3,,,,,,,,,2,,,34,0
134884,note_on,4,0,1,,,,,,,,,0,,,69,0
134884,note_on,4,0,3,,,,,,,,,2,,,57,0
134910,note_on,26,0,1,,,,,,,,,0,,,69,114
134910,note_on,26,0,3,,,,,,,,,2,,,57,101
134919,note_on,9,0,3,,,,,,,,,2,,,57,0
134919,note_on,9,0,1,,,,,,,,,0,,,69,0
135000,note_on,81,0,1,,,,,,,,,0,,,69,114
135000,note_on,81,0,3,,,,,,,,,2,,,57,101
135004,note_on,4,0,1,,,,,,,,,0,,,69,0
135004,note_on,4,0,3,,,,,,,,,2,,,57,0
135030,note_on,26,0,3,,,,,,,,,2,,,55,101
135030,note_on,26,0,1,,,,,,,,,0,,,67,114
135039,note_on,9,0,3,,,,,,,,,2,,,55,0
135039,note_on,9,0,1,,,,,,,,,0,,,67,0
135120,note_on,81,0,1,,,,,,,,,0,,,69,114
135120,note_on,81,0,3,,,,,,,,,2,,,57,101
135124,note_on,4,0,1,,,,,,,,,0,,,69,0
135124,note_on,4,0,3,,,,,,,,,2,,,57,0
135150,note_on,0,0,1,,,,,,,,,0,,,65,114
135150,note_on,26,0,1,,,,,,,,,0,,,62,114
135150,note_on,0,0,3,,,,,,,,,2,,,58,101
135150,note_on,26,0,3,,,,,,,,,2,,,46,101
135150,note_on,0,0,3,,,,,,,,,2,,,53,101
135150,note_on,0,0,1,,,,,,,,,0,,,70,114
135150,note_on,0,0,1,,,,,,,,,0,,,74,114
135390,note_on,0,0,1,,,,,,,,,0,,,65,114
135390,note_on,0,0,1,,,,,,,,,0,,,62,114
135390,note_on,0,0,3,,,,,,,,,2,,,53,0
135390,note_on,0,0,1,,,,,,,,,0,,,62,0
135390,note_on,0,0,3,,,,,,,,,2,,,46,0
135390,note_on,0,0,1,,,,,,,,,0,,,74,114
135390,note_on,0,0,3,,,,,,,,,2,,,58,101
135390,note_on,0,0,3,,,,,,,,,2,,,53,101
135390,note_on,0,0,3,,,,,,,,,2,,,46,101
135390,note_on,0,0,1,,,,,,,,,0,,,70,0
135390,note_on,240,0,3,,,,,,,,,2,,,58,0
135390,note_on,240,0,1,,,,,,,,,0,,,74,0
135390,note_on,0,0,1,,,,,,,,,0,,,70,114
135390,note_on,0,0,1,,,,,,,,,0,,,65,0
135600,note_on,210,0,3,,,,,,,,,2,,,58,0
135600,note_on,210,0,1,,,,,,,,,0,,,74,0
135600,note_on,0,0,3,,,,,,,,,2,,,46,0
135600,note_on,0,0,3,,,,,,,,,2,,,62,101
135600,note_on,0,0,3,,,,,,,,,2,,,65,101
135600,note_on,0,0,1,,,,,,,,,0,,,62,0
135600,note_on,0,0,1,,,,,,,,,0,,,65,0
135600,note_on,0,0,1,,,,,,,,,0,,,70,0
135600,note_on,0,0,1,,,,,,,,,0,,,74,114
135600,note_on,0,0,1,,,,,,,,,0,,,77,114
135600,note_on,0,0,3,,,,,,,,,2,,,53,0
135604,note_on,4,0,3,,,,,,,,,2,,,65,0
135604,note_on,0,0,3,,,,,,,,,2,,,62,0
135604,note_on,0,0,1,,,,,,,,,0,,,74,0
135604,note_on,4,0,1,,,,,,,,,0,,,77,0
135630,note_on,0,0,3,,,,,,,,,2,,,65,127
135630,note_on,26,0,3,,,,,,,,,2,,,62,119
135630,note_on,26,0,1,,,,,,,,,0,,,74,127
135630,note_on,0,0,1,,,,,,,,,0,,,77,127
135639,note_on,0,0,3,,,,,,,,,2,,,62,0
135639,note_on,9,0,3,,,,,,,,,2,,,65,0
135639,note_on,9,0,1,,,,,,,,,0,,,77,0
135639,note_on,0,0,1,,,,,,,,,0,,,74,0
135720,note_on,81,0,3,,,,,,,,,2,,,62,101
135720,note_on,0,0,1,,,,,,,,,0,,,77,114
135720,note_on,0,0,3,,,,,,,,,2,,,65,101
135720,note_on,81,0,1,,,,,,,,,0,,,74,114
135724,note_on,4,0,1,,,,,,,,,0,,,77,0
135724,note_on,0,0,1,,,,,,,,,0,,,74,0
135724,note_on,4,0,3,,,,,,,,,2,,,65,0
135724,note_on,0,0,3,,,,,,,,,2,,,62,0
135750,note_on,26,0,1,,,,,,,,,0,,,73,114
135750,note_on,0,0,1,,,,,,,,,0,,,76,114
135750,note_on,26,0,3,,,,,,,,,2,,,61,101
135750,note_on,0,0,3,,,,,,,,,2,,,64,101
135759,note_on,0,0,3,,,,,,,,,2,,,61,0
135759,note_on,9,0,3,,,,,,,,,2,,,64,0
135759,note_on,0,0,1,,,,,,,,,0,,,73,0
135759,note_on,9,0,1,,,,,,,,,0,,,76,0
135840,note_on,0,0,3,,,,,,,,,2,,,65,101
135840,note_on,0,0,1,,,,,,,,,0,,,77,114
135840,note_on,81,0,1,,,,,,,,,0,,,74,114
135840,note_on,81,0,3,,,,,,,,,2,,,62,101
135844,note_on,4,0,1,,,,,,,,,0,,,77,0
135844,note_on,4,0,3,,,,,,,,,2,,,65,0
135844,note_on,0,0,1,,,,,,,,,0,,,74,0
135844,note_on,0,0,3,,,,,,,,,2,,,62,0
135870,note_on,0,0,3,,,,,,,,,2,,,62,127
135870,note_on,26,0,3,,,,,,,,,2,,,58,119
135870,note_on,0,0,1,,,,,,,,,0,,,74,127
135870,note_on,26,0,1,,,,,,,,,0,,,70,127
135879,note_on,9,0,3,,,,,,,,,2,,,62,0
135879,note_on,0,0,1,,,,,,,,,0,,,70,0
135879,note_on,0,0,3,,,,,,,,,2,,,58,0
135879,note_on,9,0,1,,,,,,,,,0,,,74,0
135960,note_on,0,0,1,,,,,,,,,0,,,74,114
135960,note_on,81,0,3,,,,,,,,,2,,,58,101
135960,note_on,0,0,3,,,,,,,,,2,,,62,101
135960,note_on,81,0,1,,,,,,,,,0,,,70,114
135964,note_on,4,0,3,,,,,,,,,2,,,62,0
135964,note_on,0,0,3,,,,,,,,,2,,,58,0
135964,note_on,0,0,1,,,,,,,,,0,,,70,0
135964,note_on,4,0,1,,,,,,,,,0,,,74,0
135990,note_on,26,0,1,,,,,,,,,0,,,69,114
135990,note_on,0,0,1,,,,,,,,,0,,,73,114
135990,note_on,26,0,3,,,,,,,,,2,,,57,101
135990,note_on,0,0,3,,,,,,,,,2,,,61,101
135999,note_on,0,0,1,,,,,,,,,0,,,69,0
135999,note_on,9,0,1,,,,,,,,,0,,,73,0
135999,note_on,9,0,3,,,,,,,,,2,,,61,0
135999,note_on,0,0,3,,,,,,,,,2,,,57,0
136080,note_on,0,0,1,,,,,,,,,0,,,74,114
136080,note_on,0,0,3,,,,,,,,,2,,,62,101
136080,note_on,81,0,1,,,,,,,,,0,,,70,114
136080,note_on,81,0,3,,,,,,,,,2,,,58,101
136084,note_on,4,0,3,,,,,,,,,2,,,62,0
136084,note_on,0,0,3,,,,,,,,,2,,,58,0
136084,note_on,4,0,1,,,,,,,,,0,,,74,0
136084,note_on,0,0,1,,,,,,,,,0,,,70,0
136110,note_on,26,0,3,,,,,,,,,2,,,55,119
136110,note_on,0,0,3,,,,,,,,,2,,,58,127
136110,note_on,26,0,1,,,,,,,,,0,,,67,127
136110,note_on,0,0,1,,,,,,,,,0,,,70,127
136119,note_on,9,0,3,,,,,,,,,2,,,58,0
136119,note_on,0,0,3,,,,,,,,,2,,,55,0
136119,note_on,9,0,1,,,,,,,,,0,,,70,0
136119,note_on,0,0,1,,,,,,,,,0,,,67,0
136200,note_on,0,0,1,,,,,,,,,0,,,70,114
136200,note_on,81,0,1,,,,,,,,,0,,,67,114
136200,note_on,0,0,3,,,,,,,,,2,,,58,101
136200,note_on,81,0,3,,,,,,,,,2,,,55,101
136204,note_on,0,0,3,,,,,,,,,2,,,55,0
136204,note_on,4,0,3,,,,,,,,,2,,,58,0
136204,note_on,4,0,1,,,,,,,,,0,,,70,0
136204,note_on,0,0,1,,,,,,,,,0,,,67,0
136230,note_on,26,0,3,,,,,,,,,2,,,54,101
136230,note_on,26,0,1,,,,,,,,,0,,,66,114
136230,note_on,0,0,1,,,,,,,,,0,,,69,114
136230,note_on,0,0,3,,,,,,,,,2,,,57,101
136239,note_on,9,0,1,,,,,,,,,0,,,69,0
136239,note_on,0,0,1,,,,,,,,,0,,,66,0
136239,note_on,0,0,3,,,,,,,,,2,,,54,0
136239,note_on,9,0,3,,,,,,,,,2,,,57,0
136320,note_on,0,0,3,,,,,,,,,2,,,58,101
136320,note_on,0,0,1,,,,,,,,,0,,,70,114
136320,note_on,81,0,1,,,,,,,,,0,,,67,114
136320,note_on,81,0,3,,,,,,,,,2,,,55,101
136324,note_on,0,0,1,,,,,,,,,0,,,67,0
136324,note_on,4,0,1,,,,,,,,,0,,,70,0
136324,note_on,0,0,3,,,,,,,,,2,,,55,0
136324,note_on,4,0,3,,,,,,,,,2,,,58,0
136350,note_on,0,0,3,,,,,,,,,2,,,55,101
136350,note_on,26,0,3,,,,,,,,,2,,,51,101
136350,note_on,0,0,1,,,,,,,,,0,,,67,114
136350,note_on,26,0,1,,,,,,,,,0,,,63,114
136590,note_on,0,0,1,,,,,,,,,0,,,63,0
136590,note_on,240,0,3,,,,,,,,,2,,,55,0
136590,note_on,0,0,3,,,,,,,,,2,,,51,0
136590,note_on,0,0,3,,,,,,,,,2,,,38,101
136590,note_on,0,0,3,,,,,,,,,2,,,50,101
136590,note_on,0,0,1,,,,,,,,,0,,,67,114
136590,note_on,0,0,1,,,,,,,,,0,,,71,114
136590,note_on,0,0,1,,,,,,,,,0,,,75,114
136590,note_on,0,0,1,,,,,,,,,0,,,79,114
136590,note_on,240,0,1,,,,,,,,,0,,,67,0
136830,note_on,0,0,3,,,,,,,,,2,,,48,101
136830,note_on,0,0,3,,,,,,,,,2,,,36,101
136830,note_on,240,0,3,,,,,,,,,2,,,50,0
136830,note_on,0,0,3,,,,,,,,,2,,,38,0
136830,note_on,240,0,1,,,,,,,,,0,,,79,0
136830,note_on,0,0,1,,,,,,,,,0,,,71,0
136830,note_on,0,0,1,,,,,,,,,0,,,75,0
136830,note_on,0,0,1,,,,,,,,,0,,,67,114
136830,note_on,0,0,1,,,,,,,,,0,,,72,114
136830,note_on,0,0,1,,,,,,,,,0,,,75,114
136830,note_on,0,0,1,,,,,,,,,0,,,79,114
136830,note_on,0,0,1,,,,,,,,,0,,,67,0
137070,note_on,0,0,1,,,,,,,,,0,,,67,0
137070,note_on,240,0,1,,,,,,,,,0,,,79,0
137070,note_on,0,0,1,,,,,,,,,0,,,75,0
137070,note_on,0,0,1,,,,,,,,,0,,,65,127
137070,note_on,0,0,1,,,,,,,,,0,,,74,127
137070,note_on,0,0,1,,,,,,,,,0,,,77,127
137070,note_on,0,0,1,,,,,,,,,0,,,72,0
137070,note_on,0,0,3,,,,,,,,,2,,,53,127
137070,note_on,0,0,3,,,,,,,,,2,,,41,119
137070,note_on,240,0,3,,,,,,,,,2,,,48,0
137070,note_on,0,0,3,,,,,,,,,2,,,36,0
137082,note_on,12,0,3,,,,,,,,,2,,,53,0
137082,note_on,0,0,1,,,,,,,,,0,,,65,0
137082,note_on,0,0,1,,,,,,,,,0,,,74,0
137082,note_on,12,0,1,,,,,,,,,0,,,77,0
137082,note_on,0,0,3,,,,,,,,,2,,,41,0
137190,note_on,108,0,3,,,,,,,,,2,,,41,119
137190,note_on,0,0,3,,,,,,,,,2,,,53,127
137190,note_on,0,0,1,,,,,,,,,0,,,75,127
137190,note_on,108,0,1,,,,,,,,,0,,,69,127
137190,note_on,0,0,1,,,,,,,,,0,,,72,127
137190,note_on,0,0,1,,,,,,,,,0,,,81,127
137202,note_on,0,0,1,,,,,,,,,0,,,75,0
137202,note_on,0,0,1,,,,,,,,,0,,,72,0
137202,note_on,0,0,1,,,,,,,,,0,,,69,0
137202,note_on,0,0,3,,,,,,,,,2,,,41,0
137202,note_on,12,0,3,,,,,,,,,2,,,53,0
137202,note_on,12,0,1,,,,,,,,,0,,,81,0
137310,note_on,0,0,1,,,,,,,,,0,,,82,114
137310,note_on,0,0,1,,,,,,,,,0,,,74,114
137310,note_on,108,0,1,,,,,,,,,0,,,70,114
137310,note_on,0,0,3,,,,,,,,,2,,,46,101
137310,note_on,108,0,3,,,,,,,,,2,,,34,101
137550,note_on,240,0,3,,,,,,,,,2,,,46,0
137550,note_on,0,0,3,,,,,,,,,2,,,53,101
137550,note_on,0,0,3,,,,,,,,,2,,,34,0
137550,note_on,0,0,3,,,,,,,,,2,,,46,101
137550,note_on,240,0,1,,,,,,,,,0,,,82,0
137550,note_on,0,0,1,,,,,,,,,0,,,74,0
137550,note_on,0,0,1,,,,,,,,,0,,,70,0
137550,note_on,0,0,1,,,,,,,,,0,,,58,114
137550,note_on,0,0,1,,,,,,,,,0,,,62,114
137550,note_on,0,0,1,,,,,,,,,0,,,70,114
137760,note_on,0,0,1,,,,,,,,,0,,,77,49
137760,note_on,0,0,1,,,,,,,,,0,,,74,49
137760,note_on,0,0,1,,,,,,,,,0,,,62,0
137760,note_on,210,0,1,,,,,,,,,0,,,70,0
137760,note_on,0,0,3,,,,,,,,,2,,,46,0
137760,note_on,0,0,1,,,,,,,,,0,,,58,0
137760,note_on,210,0,3,,,,,,,,,2,,,53,0
137764,note_on,4,0,1,,,,,,,,,0,,,77,0
137764,note_on,0,0,1,,,,,,,,,0,,,74,0
137790,note_on,26,0,1,,,,,,,,,0,,,74,49
137790,note_on,0,0,1,,,,,,,,,0,,,77,49
137799,note_on,9,0,1,,,,,,,,,0,,,77,0
137799,note_on,0,0,1,,,,,,,,,0,,,74,0
137880,note_on,81,0,1,,,,,,,,,0,,,74,49
137880,note_on,0,0,1,,,,,,,,,0,,,77,49
137884,note_on,0,0,1,,,,,,,,,0,,,74,0
137884,note_on,4,0,1,,,,,,,,,0,,,77,0
137910,note_on,26,0,1,,,,,,,,,0,,,73,49
137910,note_on,0,0,1,,,,,,,,,0,,,76,49
137919,note_on,9,0,1,,,,,,,,,0,,,76,0
137919,note_on,0,0,1,,,,,,,,,0,,,73,0
138000,note_on,81,0,1,,,,,,,,,0,,,74,49
138000,note_on,0,0,1,,,,,,,,,0,,,77,49
138004,note_on,4,0,1,,,,,,,,,0,,,77,0
138004,note_on,0,0,1,,,,,,,,,0,,,74,0
138030,note_on,0,0,3,,,,,,,,,2,,,46,36
138030,control_change,270,0,3,,,,,,,,,2,64,127,,
138030,note_on,0,0,1,,,,,,,,,0,,,70,67
138030,note_on,0,0,1,,,,,,,,,0,,,74,75
138030,control_change,26,0,1,,,,,,,,,0,64,127,,
138042,note_on,12,0,3,,,,,,,,,2,,,46,0
138150,note_on,108,0,3,,,,,,,,,2,,,53,62
138162,note_on,12,0,3,,,,,,,,,2,,,53,0
138270,note_on,0,0,1,,,,,,,,,0,,,70,67
138270,note_on,240,0,1,,,,,,,,,0,,,74,0
138270,note_on,0,0,1,,,,,,,,,0,,,70,0
138270,note_on,0,0,1,,,,,,,,,0,,,74,75
138270,note_on,0,0,3,,,,,,,,,2,,,58,36
138270,control_change,108,0,3,,,,,,,,,2,64,0,,
138270,note_on,0,0,3,,,,,,,,,2,,,62,36
138282,note_on,12,0,3,,,,,,,,,2,,,62,0
138282,note_on,0,0,3,,,,,,,,,2,,,58,0
138390,control_change,108,0,3,,,,,,,,,2,64,127,,
138390,note_on,0,0,3,,,,,,,,,2,,,46,36
138390,control_change,120,0,1,,,,,,,,,0,64,127,,
138402,note_on,12,0,3,,,,,,,,,2,,,46,0
138480,note_on,90,0,1,,,,,,,,,0,,,74,0
138480,note_on,0,0,1,,,,,,,,,0,,,70,0
138480,note_on,0,0,1,,,,,,,,,0,,,70,49
138480,note_on,0,0,1,,,,,,,,,0,,,74,49
138484,note_on,0,0,1,,,,,,,,,0,,,70,0
138484,note_on,4,0,1,,,,,,,,,0,,,74,0
138510,note_on,26,0,1,,,,,,,,,0,,,70,49
138510,note_on,0,0,1,,,,,,,,,0,,,74,49
138510,note_on,108,0,3,,,,,,,,,2,,,53,62
138519,note_on,0,0,1,,,,,,,,,0,,,70,0
138519,note_on,9,0,1,,,,,,,,,0,,,74,0
138522,note_on,12,0,3,,,,,,,,,2,,,53,0
138600,note_on,0,0,1,,,,,,,,,0,,,74,49
138600,note_on,81,0,1,,,,,,,,,0,,,70,49
138604,note_on,0,0,1,,,,,,,,,0,,,70,0
138604,note_on,4,0,1,,,,,,,,,0,,,74,0
138630,note_on,0,0,3,,,,,,,,,2,,,62,36
138630,note_on,0,0,3,,,,,,,,,2,,,58,36
138630,note_on,26,0,1,,,,,,,,,0,,,69,49
138630,note_on,0,0,1,,,,,,,,,0,,,73,49
138630,control_change,108,0,3,,,,,,,,,2,64,0,,
138639,note_on,0,0,1,,,,,,,,,0,,,69,0
138639,note_on,9,0,1,,,,,,,,,0,,,73,0
138642,note_on,0,0,3,,,,,,,,,2,,,58,0
138642,note_on,12,0,3,,,,,,,,,2,,,62,0
138720,note_on,0,0,1,,,,,,,,,0,,,74,49
138720,note_on,0,0,1,,,,,,,,,0,,,70,49
138720,control_change,81,0,1,,,,,,,,,0,64,0,,
138724,note_on,4,0,1,,,,,,,,,0,,,74,0
138724,note_on,0,0,1,,,,,,,,,0,,,70,0
138750,note_on,0,0,3,,,,,,,,,2,,,45,36
138750,note_on,0,0,1,,,,,,,,,0,,,74,67
138750,control_change,108,0,3,,,,,,,,,2,64,127,,
138750,control_change,26,0,1,,,,,,,,,0,64,127,,
138750,note_on,0,0,1,,,,,,,,,0,,,77,75
138762,note_on,12,0,3,,,,,,,,,2,,,45,0
138870,note_on,108,0,3,,,,,,,,,2,,,53,62
138882,note_on,12,0,3,,,,,,,,,2,,,53,0
138990,note_on,0,0,1,,,,,,,,,0,,,75,75
138990,control_change,108,0,3,,,,,,,,,2,64,0,,
138990,note_on,0,0,3,,,,,,,,,2,,,60,36
138990,note_on,0,0,3,,,,,,,,,2,,,63,36
138990,note_on,0,0,1,,,,,,,,,0,,,72,67
138990,note_on,0,0,1,,,,,,,,,0,,,74,0
138990,note_on,240,0,1,,,,,,,,,0,,,77,0
139002,note_on,0,0,3,,,,,,,,,2,,,60,0
139002,note_on,12,0,3,,,,,,,,,2,,,63,0
139110,note_on,0,0,3,,,,,,,,,2,,,45,36
139110,control_change,120,0,1,,,,,,,,,0,64,127,,
139110,control_change,108,0,3,,,,,,,,,2,64,127,,
139122,note_on,12,0,3,,,,,,,,,2,,,45,0
139200,note_on,90,0,1,,,,,,,,,0,,,75,0
139200,note_on,0,0,1,,,,,,,,,0,,,72,0
139200,note_on,0,0,1,,,,,,,,,0,,,72,49
139200,note_on,0,0,1,,,,,,,,,0,,,75,49
139200,note_on,0,0,1,,,,,,,,,0,,,77,49
139230,note_on,0,0,1,,,,,,,,,0,,,75,49
139230,note_on,30,0,1,,,,,,,,,0,,,77,0
139230,note_on,0,0,1,,,,,,,,,0,,,75,0
139230,note_on,0,0,1,,,,,,,,,0,,,72,0
139230,note_on,0,0,1,,,,,,,,,0,,,72,49
139230,note_on,0,0,1,,,,,,,,,0,,,77,49
139230,note_on,108,0,3,,,,,,,,,2,,,53,62
139242,note_on,12,0,3,,,,,,,,,2,,,53,0
139320,note_on,0,0,1,,,,,,,,,0,,,75,49
139320,note_on,0,0,1,,,,,,,,,0,,,77,49
139320,note_on,0,0,1,,,,,,,,,0,,,72,49
139320,note_on,0,0,1,,,,,,,,,0,,,75,0
139320,note_on,0,0,1,,,,,,,,,0,,,72,0
139320,note_on,90,0,1,,,,,,,,,0,,,77,0
139350,note_on,30,0,1,,,,,,,,,0,,,77,0
139350,note_on,0,0,1,,,,,,,,,0,,,75,0
139350,note_on,0,0,1,,,,,,,,,0,,,72,0
139350,note_on,0,0,1,,,,,,,,,0,,,71,49
139350,note_on,0,0,1,,,,,,,,,0,,,74,49
139350,note_on,0,0,1,,,,,,,,,0,,,77,49
139350,control_change,108,0,3,,,,,,,,,2,64,0,,
139350,note_on,0,0,3,,,,,,,,,2,,,60,36
139350,note_on,0,0,3,,,,,,,,,2,,,63,36
139362,note_on,12,0,3,,,,,,,,,2,,,63,0
139362,note_on,0,0,3,,,,,,,,,2,,,60,0
139440,note_on,0,0,1,,,,,,,,,0,,,72,49
139440,note_on,0,0,1,,,,,,,,,0,,,77,49
139440,note_on,0,0,1,,,,,,,,,0,,,75,49
139440,note_on,0,0,1,,,,,,,,,0,,,74,0
139440,control_change,0,0,1,,,,,,,,,0,64,0,,
139440,note_on,90,0,1,,,,,,,,,0,,,77,0
139440,note_on,0,0,1,,,,,,,,,0,,,71,0
139470,note_on,0,0,3,,,,,,,,,2,,,41,36
139470,note_on,0,0,1,,,,,,,,,0,,,77,75
139470,note_on,0,0,1,,,,,,,,,0,,,72,70
139470,note_on,0,0,1,,,,,,,,,0,,,69,65
139470,note_on,0,0,1,,,,,,,,,0,,,72,0
139470,note_on,0,0,1,,,,,,,,,0,,,75,0
139470,control_change,108,0,3,,,,,,,,,2,64,127,,
139470,note_on,30,0,1,,,,,,,,,0,,,77,0
139482,note_on,12,0,3,,,,,,,,,2,,,41,0
139590,note_on,108,0,3,,,,,,,,,2,,,53,36
139602,note_on,12,0,3,,,,,,,,,2,,,53,0
139710,note_on,0,0,1,,,,,,,,,0,,,72,0
139710,note_on,0,0,3,,,,,,,,,2,,,60,36
139710,control_change,108,0,3,,,,,,,,,2,64,0,,
139710,note_on,0,0,3,,,,,,,,,2,,,63,36
139710,note_on,0,0,1,,,,,,,,,0,,,77,75
139710,note_on,0,0,1,,,,,,,,,0,,,72,70
139710,note_on,0,0,1,,,,,,,,,0,,,69,65
139710,note_on,0,0,1,,,,,,,,,0,,,69,0
139710,note_on,240,0,1,,,,,,,,,0,,,77,0
139722,note_on,12,0,3,,,,,,,,,2,,,63,0
139722,note_on,0,0,3,,,,,,,,,2,,,60,0
139830,control_change,120,0,1,,,,,,,,,0,64,127,,
139830,note_on,0,0,3,,,,,,,,,2,,,41,36
139830,control_change,108,0,3,,,,,,,,,2,64,127,,
139842,note_on,12,0,3,,,,,,,,,2,,,41,0
139920,note_on,0,0,1,,,,,,,,,0,,,69,0
139920,note_on,0,0,1,,,,,,,,,0,,,69,49
139920,note_on,0,0,1,,,,,,,,,0,,,72,49
139920,note_on,0,0,1,,,,,,,,,0,,,77,49
139920,note_on,0,0,1,,,,,,,,,0,,,72,0
139920,note_on,90,0,1,,,,,,,,,0,,,77,0
139950,note_on,108,0,3,,,,,,,,,2,,,53,36
139950,note_on,30,0,1,,,,,,,,,0,,,77,0
139950,note_on,0,0,1,,,,,,,,,0,,,77,49
139950,note_on,0,0,1,,,,,,,,,0,,,72,0
139950,note_on,0,0,1,,,,,,,,,0,,,69,49
139950,note_on,0,0,1,,,,,,,,,0,,,69,0
139950,note_on,0,0,1,,,,,,,,,0,,,72,49
139962,note_on,12,0,3,,,,,,,,,2,,,53,0
140040,note_on,90,0,1,,,,,,,,,0,,,77,0
140040,note_on,0,0,1,,,,,,,,,0,,,72,0
140040,note_on,0,0,1,,,,,,,,,0,,,69,0
140040,note_on,0,0,1,,,,,,,,,0,,,72,49
140040,note_on,0,0,1,,,,,,,,,0,,,77,49
140040,note_on,0,0,1,,,,,,,,,0,,,69,49
140070,note_on,30,0,1,,,,,,,,,0,,,77,0
140070,note_on,0,0,1,,,,,,,,,0,,,72,0
140070,note_on,0,0,1,,,,,,,,,0,,,69,0
140070,note_on,0,0,1,,,,,,,,,0,,,71,49
140070,note_on,0,0,1,,,,,,,,,0,,,68,49
140070,control_change,108,0,3,,,,,,,,,2,64,0,,
140070,note_on,0,0,1,,,,,,,,,0,,,77,49
140070,note_on,0,0,3,,,,,,,,,2,,,60,36
140070,note_on,0,0,3,,,,,,,,,2,,,63,36
140082,note_on,12,0,3,,,,,,,,,2,,,63,0
140082,note_on,0,0,3,,,,,,,,,2,,,60,0
140160,note_on,0,0,1,,,,,,,,,0,,,69,49
140160,note_on,0,0,1,,,,,,,,,0,,,71,0
140160,note_on,0,0,1,,,,,,,,,0,,,68,0
140160,note_on,90,0,1,,,,,,,,,0,,,77,0
140160,note_on,0,0,1,,,,,,,,,0,,,72,49
140160,note_on,0,0,1,,,,,,,,,0,,,77,49
140160,control_change,0,0,1,,,,,,,,,0,64,0,,
140190,note_on,30,0,1,,,,,,,,,0,,,77,0
140190,note_on,0,0,1,,,,,,,,,0,,,72,0
140190,note_on,0,0,1,,,,,,,,,0,,,69,0
140190,note_on,0,0,1,,,,,,,,,0,,,69,65
140190,note_on,0,0,1,,,,,,,,,0,,,77,75
140190,note_on,0,0,1,,,,,,,,,0,,,73,70
140190,note_on,0,0,3,,,,,,,,,2,,,46,36
140190,control_change,108,0,3,,,,,,,,,2,64,127,,
140202,note_on,12,0,3,,,,,,,,,2,,,46,0
140310,note_on,108,0,3,,,,,,,,,2,,,53,62
140322,note_on,12,0,3,,,,,,,,,2,,,53,0
140430,note_on,0,0,1,,,,,,,,,0,,,69,0
140430,note_on,0,0,1,,,,,,,,,0,,,77,75
140430,note_on,0,0,1,,,,,,,,,0,,,74,70
140430,note_on,0,0,1,,,,,,,,,0,,,70,65
140430,note_on,0,0,1,,,,,,,,,0,,,73,0
140430,note_on,240,0,1,,,,,,,,,0,,,77,0
140430,note_on,0,0,3,,,,,,,,,2,,,58,36
140430,note_on,0,0,3,,,,,,,,,2,,,62,36
140430,control_change,108,0,3,,,,,,,,,2,64,0,,
140442,note_on,12,0,3,,,,,,,,,2,,,62,0
140442,note_on,0,0,3,,,,,,,,,2,,,58,0
140550,control_change,108,0,3,,,,,,,,,2,64,127,,
140550,note_on,0,0,3,,,,,,,,,2,,,46,36
140550,control_change,120,0,1,,,,,,,,,0,64,127,,
140562,note_on,12,0,3,,,,,,,,,2,,,46,0
140640,note_on,0,0,1,,,,,,,,,0,,,77,49
140640,note_on,90,0,1,,,,,,,,,0,,,77,0
140640,note_on,0,0,1,,,,,,,,,0,,,74,0
140640,note_on,0,0,1,,,,,,,,,0,,,70,0
140640,note_on,0,0,1,,,,,,,,,0,,,70,49
140640,note_on,0,0,1,,,,,,,,,0,,,74,49
140670,note_on,0,0,1,,,,,,,,,0,,,70,49
140670,note_on,0,0,1,,,,,,,,,0,,,70,0
140670,note_on,0,0,1,,,,,,,,,0,,,74,49
140670,note_on,108,0,3,,,,,,,,,2,,,53,62
140670,note_on,0,0,1,,,,,,,,,0,,,74,0
140670,note_on,0,0,1,,,,,,,,,0,,,77,49
140670,note_on,30,0,1,,,,,,,,,0,,,77,0
140682,note_on,12,0,3,,,,,,,,,2,,,53,0
140760,note_on,90,0,1,,,,,,,,,0,,,77,0
140760,note_on,0,0,1,,,,,,,,,0,,,74,0
140760,note_on,0,0,1,,,,,,,,,0,,,70,0
140760,note_on,0,0,1,,,,,,,,,0,,,70,49
140760,note_on,0,0,1,,,,,,,,,0,,,74,49
140760,note_on,0,0,1,,,,,,,,,0,,,77,49
140790,note_on,0,0,1,,,,,,,,,0,,,76,49
140790,note_on,0,0,1,,,,,,,,,0,,,74,49
140790,note_on,0,0,1,,,,,,,,,0,,,70,49
140790,control_change,108,0,3,,,,,,,,,2,64,0,,
140790,note_on,0,0,1,,,,,,,,,0,,,74,0
140790,note_on,30,0,1,,,,,,,,,0,,,77,0
140790,note_on,0,0,1,,,,,,,,,0,,,70,0
140790,note_on,0,0,3,,,,,,,,,2,,,62,36
140790,note_on,0,0,3,,,,,,,,,2,,,58,36
140802,note_on,0,0,3,,,,,,,,,2,,,58,0
140802,note_on,12,0,3,,,,,,,,,2,,,62,0
140880,note_on,0,0,1,,,,,,,,,0,,,70,49
140880,note_on,90,0,1,,,,,,,,,0,,,76,0
140880,note_on,0,0,1,,,,,,,,,0,,,74,0
140880,note_on,0,0,1,,,,,,,,,0,,,70,0
140880,note_on,0,0,1,,,,,,,,,0,,,74,49
140880,note_on,0,0,1,,,,,,,,,0,,,77,49
140880,control_change,0,0,1,,,,,,,,,0,64,0,,
140910,note_on,0,0,1,,,,,,,,,0,,,70,49
140910,note_on,0,0,1,,,,,,,,,0,,,70,0
140910,control_change,108,0,3,,,,,,,,,2,64,127,,
140910,note_on,30,0,1,,,,,,,,,0,,,77,0
140910,note_on,0,0,3,,,,,,,,,2,,,43,36
140910,note_on,0,0,1,,,,,,,,,0,,,74,0
140910,note_on,0,0,1,,,,,,,,,0,,,79,49
140910,note_on,0,0,1,,,,,,,,,0,,,74,49
140922,note_on,12,0,3,,,,,,,,,2,,,43,0
141030,note_on,108,0,3,,,,,,,,,2,,,55,36
141042,note_on,12,0,3,,,,,,,,,2,,,55,0
141150,note_on,0,0,1,,,,,,,,,0,,,74,49
141150,note_on,0,0,3,,,,,,,,,2,,,62,36
141150,note_on,0,0,3,,,,,,,,,2,,,58,36
141150,control_change,108,0,3,,,,,,,,,2,64,0,,
141150,note_on,240,0,1,,,,,,,,,0,,,79,0
141150,note_on,0,0,1,,,,,,,,,0,,,74,0
141150,note_on,0,0,1,,,,,,,,,0,,,70,0
141150,note_on,0,0,1,,,,,,,,,0,,,70,49
141150,note_on,0,0,1,,,,,,,,,0,,,79,49
141162,note_on,12,0,3,,,,,,,,,2,,,62,0
141162,note_on,0,0,3,,,,,,,,,2,,,58,0
141270,note_on,0,0,3,,,,,,,,,2,,,43,36
141270,control_change,120,0,1,,,,,,,,,0,64,127,,
141270,control_change,108,0,3,,,,,,,,,2,64,127,,
141360,note_on,90,0,1,,,,,,,,,0,,,79,0
141360,note_on,0,0,1,,,,,,,,,0,,,74,0
141360,note_on,0,0,1,,,,,,,,,0,,,70,0
141360,note_on,0,0,1,,,,,,,,,0,,,70,49
141360,note_on,0,0,1,,,,,,,,,0,,,74,49
141360,note_on,0,0,1,,,,,,,,,0,,,79,49
141390,note_on,0,0,1,,,,,,,,,0,,,70,49
141390,note_on,0,0,3,,,,,,,,,2,,,55,36
141390,note_on,0,0,1,,,,,,,,,0,,,74,49
141390,note_on,120,0,3,,,,,,,,,2,,,43,0
141390,note_on,0,0,1,,,,,,,,,0,,,74,0
141390,note_on,0,0,1,,,,,,,,,0,,,79,49
141390,note_on,0,0,1,,,,,,,,,0,,,70,0
141390,note_on,30,0,1,,,,,,,,,0,,,79,0
141480,note_on,0,0,1,,,,,,,,,0,,,82,49
141480,note_on,0,0,1,,,,,,,,,0,,,74,49
141480,note_on,0,0,1,,,,,,,,,0,,,70,49
141480,note_on,0,0,1,,,,,,,,,0,,,70,0
141480,note_on,0,0,1,,,,,,,,,0,,,74,0
141480,note_on,90,0,1,,,,,,,,,0,,,79,0
141510,note_on,0,0,1,,,,,,,,,0,,,70,49
141510,note_on,0,0,1,,,,,,,,,0,,,74,0
141510,note_on,0,0,3,,,,,,,,,2,,,62,36
141510,note_on,0,0,3,,,,,,,,,2,,,58,36
141510,control_change,0,0,3,,,,,,,,,2,64,0,,
141510,note_on,120,0,3,,,,,,,,,2,,,55,0
141510,note_on,0,0,1,,,,,,,,,0,,,81,49
141510,note_on,0,0,1,,,,,,,,,0,,,74,49
141510,note_on,0,0,1,,,,,,,,,0,,,70,0
141510,note_on,30,0,1,,,,,,,,,0,,,82,0
141600,note_on,0,0,1,,,,,,,,,0,,,74,49
141600,note_on,90,0,1,,,,,,,,,0,,,81,0
141600,note_on,0,0,1,,,,,,,,,0,,,74,0
141600,note_on,0,0,1,,,,,,,,,0,,,70,0
141600,note_on,0,0,1,,,,,,,,,0,,,70,49
141600,control_change,0,0,1,,,,,,,,,0,64,0,,
141600,note_on,0,0,1,,,,,,,,,0,,,79,49
141630,note_on,0,0,1,,,,,,,,,0,,,74,0
141630,note_on,0,0,3,,,,,,,,,2,,,46,36
141630,control_change,0,0,3,,,,,,,,,2,64,127,,
141630,note_on,0,0,3,,,,,,,,,2,,,58,0
141630,note_on,0,0,1,,,,,,,,,0,,,74,49
141630,note_on,0,0,1,,,,,,,,,0,,,70,49
141630,note_on,0,0,1,,,,,,,,,0,,,70,0
141630,note_on,30,0,1,,,,,,,,,0,,,79,0
141630,note_on,0,0,1,,,,,,,,,0,,,77,49
141630,note_on,120,0,3,,,,,,,,,2,,,62,0
141750,note_on,120,0,3,,,,,,,,,2,,,46,0
141750,note_on,0,0,3,,,,,,,,,2,,,53,36
141870,note_on,0,0,3,,,,,,,,,2,,,62,36
141870,note_on,0,0,3,,,,,,,,,2,,,58,36
141870,control_change,0,0,3,,,,,,,,,2,64,0,,
141870,note_on,120,0,3,,,,,,,,,2,,,53,0
141870,note_on,0,0,1,,,,,,,,,0,,,77,49
141870,note_on,240,0,1,,,,,,,,,0,,,77,0
141870,note_on,0,0,1,,,,,,,,,0,,,70,0
141870,note_on,0,0,1,,,,,,,,,0,,,74,0
141870,note_on,0,0,1,,,,,,,,,0,,,70,49
141870,note_on,0,0,1,,,,,,,,,0,,,74,49
141990,note_on,120,0,3,,,,,,,,,2,,,62,0
141990,note_on,0,0,3,,,,,,,,,2,,,58,0
141990,control_change,0,0,3,,,,,,,,,2,64,127,,
141990,note_on,0,0,3,,,,,,,,,2,,,46,36
141990,control_change,120,0,1,,,,,,,,,0,64,127,,
142080,note_on,0,0,1,,,,,,,,,0,,,74,0
142080,note_on,90,0,1,,,,,,,,,0,,,77,0
142080,note_on,0,0,1,,,,,,,,,0,,,77,49
142080,note_on,0,0,1,,,,,,,,,0,,,74,49
142080,note_on,0,0,1,,,,,,,,,0,,,70,49
142080,note_on,0,0,1,,,,,,,,,0,,,70,0
142110,note_on,120,0,3,,,,,,,,,2,,,46,0
142110,note_on,30,0,1,,,,,,,,,0,,,77,0
142110,note_on,0,0,3,,,,,,,,,2,,,53,36
142110,note_on,0,0,1,,,,,,,,,0,,,70,49
142110,note_on,0,0,1,,,,,,,,,0,,,74,49
142110,note_on,0,0,1,,,,,,,,,0,,,77,49
142110,note_on,0,0,1,,,,,,,,,0,,,70,0
142110,note_on,0,0,1,,,,,,,,,0,,,74,0
142200,note_on,90,0,1,,,,,,,,,0,,,77,0
142200,note_on,0,0,1,,,,,,,,,0,,,74,0
142200,note_on,0,0,1,,,,,,,,,0,,,70,0
142200,note_on,0,0,1,,,,,,,,,0,,,70,49
142200,note_on,0,0,1,,,,,,,,,0,,,74,49
142200,note_on,0,0,1,,,,,,,,,0,,,77,49
142230,note_on,0,0,1,,,,,,,,,0,,,79,49
142230,note_on,0,0,1,,,,,,,,,0,,,70,0
142230,note_on,120,0,3,,,,,,,,,2,,,53,0
142230,note_on,0,0,1,,,,,,,,,0,,,75,49
142230,note_on,0,0,3,,,,,,,,,2,,,58,36
142230,note_on,0,0,3,,,,,,,,,2,,,62,36
142230,note_on,30,0,1,,,,,,,,,0,,,77,0
142230,note_on,0,0,1,,,,,,,,,0,,,74,0
142230,note_on,0,0,1,,,,,,,,,0,,,70,49
142230,control_change,0,0,3,,,,,,,,,2,64,0,,
142320,note_on,0,0,1,,,,,,,,,0,,,70,49
142320,note_on,0,0,1,,,,,,,,,0,,,75,0
142320,note_on,90,0,1,,,,,,,,,0,,,79,0
142320,note_on,0,0,1,,,,,,,,,0,,,74,49
142320,note_on,0,0,1,,,,,,,,,0,,,70,0
142320,note_on,0,0,1,,,,,,,,,0,,,77,49
142320,control_change,0,0,1,,,,,,,,,0,64,0,,
142350,note_on,30,0,1,,,,,,,,,0,,,77,0
142350,note_on,0,0,1,,,,,,,,,0,,,74,0
142350,note_on,0,0,1,,,,,,,,,0,,,70,0
142350,note_on,0,0,1,,,,,,,,,0,,,69,49
142350,note_on,0,0,1,,,,,,,,,0,,,74,49
142350,note_on,0,0,1,,,,,,,,,0,,,77,49
142350,note_on,0,0,3,,,,,,,,,2,,,41,36
142350,note_on,0,0,3,,,,,,,,,2,,,58,0
142350,note_on,120,0,3,,,,,,,,,2,,,62,0
142350,control_change,0,0,3,,,,,,,,,2,64,127,,
142470,note_on,0,0,3,,,,,,,,,2,,,48,36
142470,note_on,120,0,3,,,,,,,,,2,,,41,0
142590,note_on,120,0,3,,,,,,,,,2,,,48,0
142590,control_change,0,0,3,,,,,,,,,2,64,0,,
142590,note_on,0,0,3,,,,,,,,,2,,,63,36
142590,note_on,0,0,1,,,,,,,,,0,,,75,49
142590,note_on,0,0,1,,,,,,,,,0,,,72,49
142590,note_on,0,0,3,,,,,,,,,2,,,60,36
142590,note_on,0,0,1,,,,,,,,,0,,,69,0
142590,note_on,0,0,1,,,,,,,,,0,,,69,49
142590,note_on,240,0,1,,,,,,,,,0,,,77,0
142590,note_on,0,0,1,,,,,,,,,0,,,74,0
142710,control_change,120,0,1,,,,,,,,,0,64,127,,
142710,note_on,120,0,3,,,,,,,,,2,,,63,0
142710,note_on,0,0,3,,,,,,,,,2,,,60,0
142710,control_change,0,0,3,,,,,,,,,2,64,127,,
142710,note_on,0,0,3,,,,,,,,,2,,,41,36
142800,note_on,0,0,1,,,,,,,,,0,,,75,49
142800,note_on,0,0,1,,,,,,,,,0,,,65,49
142800,note_on,0,0,1,,,,,,,,,0,,,72,49
142800,note_on,90,0,1,,,,,,,,,0,,,75,0
142800,note_on,0,0,1,,,,,,,,,0,,,72,0
142800,note_on,0,0,1,,,,,,,,,0,,,69,0
142830,note_on,0,0,3,,,,,,,,,2,,,48,36
142830,note_on,0,0,1,,,,,,,,,0,,,75,49
142830,note_on,120,0,3,,,,,,,,,2,,,41,0
142830,note_on,0,0,1,,,,,,,,,0,,,65,49
142830,note_on,0,0,1,,,,,,,,,0,,,65,0
142830,note_on,0,0,1,,,,,,,,,0,,,72,0
142830,note_on,30,0,1,,,,,,,,,0,,,75,0
142830,note_on,0,0,1,,,,,,,,,0,,,72,49
142920,note_on,0,0,1,,,,,,,,,0,,,65,49
142920,note_on,0,0,1,,,,,,,,,0,,,75,49
142920,note_on,0,0,1,,,,,,,,,0,,,72,49
142920,note_on,0,0,1,,,,,,,,,0,,,65,0
142920,note_on,90,0,1,,,,,,,,,0,,,75,0
142920,note_on,0,0,1,,,,,,,,,0,,,72,0
142950,note_on,120,0,3,,,,,,,,,2,,,48,0
142950,note_on,0,0,3,,,,,,,,,2,,,60,36
142950,note_on,0,0,1,,,,,,,,,0,,,65,0
142950,note_on,0,0,3,,,,,,,,,2,,,63,36
142950,note_on,0,0,1,,,,,,,,,0,,,70,49
142950,note_on,0,0,1,,,,,,,,,0,,,74,49
142950,note_on,30,0,1,,,,,,,,,0,,,75,0
142950,note_on,0,0,1,,,,,,,,,0,,,72,0
142950,control_change,0,0,3,,,,,,,,,2,64,0,,
142950,note_on,0,0,1,,,,,,,,,0,,,65,49
143040,note_on,90,0,1,,,,,,,,,0,,,74,0
143040,note_on,0,0,1,,,,,,,,,0,,,72,49
143040,control_change,0,0,1,,,,,,,,,0,64,0,,
143040,note_on,0,0,1,,,,,,,,,0,,,70,0
143040,note_on,0,0,1,,,,,,,,,0,,,65,49
143040,note_on,0,0,1,,,,,,,,,0,,,65,0
143040,note_on,0,0,1,,,,,,,,,0,,,69,49
143070,note_on,0,0,1,,,,,,,,,0,,,65,49
143070,note_on,30,0,1,,,,,,,,,0,,,72,0
143070,note_on,0,0,1,,,,,,,,,0,,,69,0
143070,note_on,0,0,1,,,,,,,,,0,,,65,0
143070,note_on,0,0,1,,,,,,,,,0,,,62,49
143070,note_on,120,0,3,,,,,,,,,2,,,63,0
143070,note_on,0,0,3,,,,,,,,,2,,,60,0
143070,note_on,0,0,1,,,,,,,,,0,,,70,49
143070,control_change,0,0,3,,,,,,,,,2,64,127,,
143070,note_on,0,0,3,,,,,,,,,2,,,46,36
143190,note_on,120,0,3,,,,,,,,,2,,,46,0
143190,note_on,0,0,3,,,,,,,,,2,,,50,36
143310,note_on,0,0,3,,,,,,,,,2,,,53,36
143310,control_change,0,0,3,,,,,,,,,2,64,0,,
143310,note_on,120,0,3,,,,,,,,,2,,,50,0
143310,note_on,0,0,1,,,,,,,,,0,,,65,49
143310,note_on,0,0,1,,,,,,,,,0,,,62,49
143310,note_on,240,0,1,,,,,,,,,0,,,70,0
143310,note_on,0,0,3,,,,,,,,,2,,,58,36
143310,note_on,0,0,1,,,,,,,,,0,,,65,0
143310,note_on,0,0,1,,,,,,,,,0,,,62,0
143310,note_on,0,0,1,,,,,,,,,0,,,70,49
143430,note_on,0,0,3,,,,,,,,,2,,,41,36
143430,control_change,0,0,3,,,,,,,,,2,64,127,,
143430,note_on,0,0,3,,,,,,,,,2,,,53,0
143430,note_on,120,0,3,,,,,,,,,2,,,58,0
143490,set_tempo,9060,1,0,,,,,,338983,,,,,,,
143520,note_on,0,0,1,,,,,,,,,0,,,72,49
143520,note_on,210,0,1,,,,,,,,,0,,,70,0
143520,note_on,0,0,1,,,,,,,,,0,,,75,49
143520,note_on,0,0,1,,,,,,,,,0,,,65,49
143520,note_on,0,0,1,,,,,,,,,0,,,62,0
143520,note_on,0,0,1,,,,,,,,,0,,,65,0
143550,note_on,0,0,1,,,,,,,,,0,,,75,49
143550,note_on,120,0,3,,,,,,,,,2,,,41,0
143550,note_on,0,0,1,,,,,,,,,0,,,65,49
143550,note_on,30,0,1,,,,,,,,,0,,,75,0
143550,note_on,0,0,1,,,,,,,,,0,,,72,0
143550,note_on,0,0,1,,,,,,,,,0,,,65,0
143550,set_tempo,60,1,0,,,,,,344828,,,,,,,
143550,note_on,0,0,1,,,,,,,,,0,,,72,49
143550,note_on,0,0,3,,,,,,,,,2,,,51,36
143610,set_tempo,60,1,0,,,,,,350877,,,,,,,
143640,note_on,90,0,1,,,,,,,,,0,,,75,0
143640,note_on,0,0,1,,,,,,,,,0,,,72,49
143640,note_on,0,0,1,,,,,,,,,0,,,65,49
143640,note_on,0,0,1,,,,,,,,,0,,,65,0
143640,note_on,0,0,1,,,,,,,,,0,,,72,0
143640,note_on,0,0,1,,,,,,,,,0,,,75,49
143670,note_on,0,0,3,,,,,,,,,2,,,57,36
143670,note_on,0,0,1,,,,,,,,,0,,,72,0
143670,note_on,0,0,1,,,,,,,,,0,,,65,0
143670,note_on,0,0,1,,,,,,,,,0,,,65,49
143670,note_on,0,0,1,,,,,,,,,0,,,70,49
143670,note_on,0,0,1,,,,,,,,,0,,,74,49
143670,note_on,0,0,3,,,,,,,,,2,,,53,36
143670,note_on,120,0,3,,,,,,,,,2,,,51,0
143670,set_tempo,60,1,0,,,,,,359281,,,,,,,
143670,note_on,30,0,1,,,,,,,,,0,,,75,0
143670,control_change,0,0,3,,,,,,,,,2,64,0,,
143730,set_tempo,60,1,0,,,,,,365854,,,,,,,
143760,note_on,0,0,1,,,,,,,,,0,,,65,0
143760,note_on,0,0,1,,,,,,,,,0,,,70,0
143760,note_on,90,0,1,,,,,,,,,0,,,74,0
143760,note_on,0,0,1,,,,,,,,,0,,,69,49
143760,note_on,0,0,1,,,,,,,,,0,,,72,49
143760,control_change,0,0,1,,,,,,,,,0,64,0,,
143760,note_on,0,0,1,,,,,,,,,0,,,65,49
143790,note_on,0,0,3,,,,,,,,,2,,,53,0
143790,note_on,120,0,3,,,,,,,,,2,,,57,0
143790,control_change,0,0,3,,,,,,,,,2,64,127,,
143790,note_on,0,0,3,,,,,,,,,2,,,46,36
143790,note_on,30,0,1,,,,,,,,,0,,,72,0
143790,note_on,0,0,1,,,,,,,,,0,,,69,0
143790,note_on,0,0,1,,,,,,,,,0,,,65,0
143790,note_on,0,0,1,,,,,,,,,0,,,62,49
143790,note_on,0,0,1,,,,,,,,,0,,,65,49
143790,note_on,0,0,1,,,,,,,,,0,,,70,49
143790,set_tempo,60,1,0,,,,,,372671,,,,,,,
143850,set_tempo,60,1,0,,,,,,379747,,,,,,,
143910,note_on,120,0,3,,,,,,,,,2,,,46,0
143910,note_on,0,0,3,,,,,,,,,2,,,50,36
143910,set_tempo,60,1,0,,,,,,389610,,,,,,,
144030,note_on,0,0,1,,,,,,,,,0,,,65,49
144030,note_on,120,0,3,,,,,,,,,2,,,50,0
144030,control_change,0,0,3,,,,,,,,,2,64,0,,
144030,note_on,0,0,3,,,,,,,,,2,,,53,36
144030,note_on,0,0,1,,,,,,,,,0,,,62,49
144030,note_on,0,0,1,,,,,,,,,0,,,62,0
144030,note_on,0,0,1,,,,,,,,,0,,,65,0
144030,note_on,240,0,1,,,,,,,,,0,,,70,0
144030,note_on,0,0,1,,,,,,,,,0,,,70,49
144030,note_on,0,0,3,,,,,,,,,2,,,58,36
144150,note_on,120,0,3,,,,,,,,,2,,,58,0
144150,note_on,0,0,3,,,,,,,,,2,,,41,36
144150,control_change,0,0,3,,,,,,,,,2,64,127,,
144150,note_on,0,0,3,,,,,,,,,2,,,53,0
144150,control_change,120,0,1,,,,,,,,,0,64,127,,
144240,note_on,90,0,1,,,,,,,,,0,,,70,0
144240,note_on,0,0,1,,,,,,,,,0,,,62,0
144240,note_on,0,0,1,,,,,,,,,0,,,65,49
144240,note_on,0,0,1,,,,,,,,,0,,,72,49
144240,note_on,0,0,1,,,,,,,,,0,,,75,49
144240,note_on,0,0,1,,,,,,,,,0,,,65,0
144270,note_on,0,0,1,,,,,,,,,0,,,75,49
144270,note_on,0,0,1,,,,,,,,,0,,,65,49
144270,note_on,120,0,3,,,,,,,,,2,,,41,0
144270,note_on,0,0,1,,,,,,,,,0,,,72,49
144270,note_on,0,0,3,,,,,,,,,2,,,51,36
144270,note_on,0,0,1,,,,,,,,,0,,,72,0
144270,note_on,30,0,1,,,,,,,,,0,,,75,0
144270,note_on,0,0,1,,,,,,,,,0,,,65,0
144360,note_on,0,0,1,,,,,,,,,0,,,72,0
144360,note_on,0,0,1,,,,,,,,,0,,,65,0
144360,note_on,0,0,1,,,,,,,,,0,,,65,49
144360,note_on,0,0,1,,,,,,,,,0,,,72,49
144360,note_on,0,0,1,,,,,,,,,0,,,75,49
144360,note_on,90,0,1,,,,,,,,,0,,,75,0
144390,note_on,0,0,1,,,,,,,,,0,,,74,49
144390,note_on,0,0,1,,,,,,,,,0,,,70,49
144390,note_on,0,0,1,,,,,,,,,0,,,65,49
144390,note_on,0,0,1,,,,,,,,,0,,,65,0
144390,note_on,30,0,1,,,,,,,,,0,,,75,0
144390,note_on,0,0,3,,,,,,,,,2,,,57,36
144390,note_on,0,0,3,,,,,,,,,2,,,53,36
144390,control_change,0,0,3,,,,,,,,,2,64,0,,
144390,note_on,120,0,3,,,,,,,,,2,,,51,0
144390,note_on,0,0,1,,,,,,,,,0,,,72,0
144480,note_on,0,0,1,,,,,,,,,0,,,65,0
144480,control_change,0,0,1,,,,,,,,,0,64,0,,
144480,note_on,0,0,1,,,,,,,,,0,,,69,49
144480,note_on,0,0,1,,,,,,,,,0,,,65,49
144480,note_on,90,0,1,,,,,,,,,0,,,74,0
144480,note_on,0,0,1,,,,,,,,,0,,,70,0
144480,note_on,0,0,1,,,,,,,,,0,,,72,49
144510,note_on,30,0,1,,,,,,,,,0,,,72,0
144510,note_on,120,0,3,,,,,,,,,2,,,57,0
144510,note_on,0,0,3,,,,,,,,,2,,,53,0
144510,note_on,0,0,3,,,,,,,,,2,,,46,36
144510,note_on,0,0,1,,,,,,,,,0,,,70,49
144510,note_on,0,0,1,,,,,,,,,0,,,65,49
144510,note_on,0,0,1,,,,,,,,,0,,,62,49
144510,note_on,0,0,1,,,,,,,,,0,,,65,0
144510,note_on,0,0,1,,,,,,,,,0,,,69,0
144510,set_tempo,600,1,0,,,,,,333333,,,,,,,
144600,note_on,90,0,3,,,,,,,,,2,,,46,0
144600,note_on,0,0,3,,,,,,,,,2,,,34,75
144600,note_on,0,0,1,,,,,,,,,0,,,62,0
144600,note_on,0,0,1,,,,,,,,,0,,,65,0
144600,note_on,90,0,1,,,,,,,,,0,,,70,0
144600,note_on,9750,0,2,,,,,,,,,1,,,46,88
144630,note_on,0,0,3,,,,,,,,,2,,,34,101
144630,note_on,30,0,3,,,,,,,,,2,,,34,0
144630,note_on,30,0,2,,,,,,,,,1,,,46,0
144630,note_on,0,0,2,,,,,,,,,1,,,46,114
144720,note_on,90,0,3,,,,,,,,,2,,,34,0
144720,note_on,90,0,2,,,,,,,,,1,,,46,0
144720,note_on,0,0,2,,,,,,,,,1,,,46,88
144720,note_on,0,0,3,,,,,,,,,2,,,34,75
144750,note_on,0,0,3,,,,,,,,,2,,,34,75
144750,note_on,30,0,2,,,,,,,,,1,,,46,0
144750,note_on,0,0,2,,,,,,,,,1,,,46,88
144750,note_on,30,0,3,,,,,,,,,2,,,34,0
144840,note_on,90,0,3,,,,,,,,,2,,,34,0
144840,note_on,0,0,3,,,,,,,,,2,,,36,75
144840,note_on,90,0,2,,,,,,,,,1,,,46,0
144840,note_on,0,0,2,,,,,,,,,1,,,48,88
144870,note_on,0,0,3,,,,,,,,,2,,,38,75
144870,note_on,30,0,3,,,,,,,,,2,,,36,0
144870,note_on,30,0,2,,,,,,,,,1,,,48,0
144870,note_on,0,0,2,,,,,,,,,1,,,50,88
144960,note_on,0,0,3,,,,,,,,,2,,,38,75
144960,note_on,90,0,3,,,,,,,,,2,,,38,0
144960,note_on,0,0,2,,,,,,,,,1,,,62,88
144960,note_on,0,0,2,,,,,,,,,1,,,50,88
144960,note_on,90,0,2,,,,,,,,,1,,,50,0
144990,note_on,0,0,2,,,,,,,,,1,,,50,0
144990,note_on,0,0,2,,,,,,,,,1,,,50,106
144990,note_on,0,0,2,,,,,,,,,1,,,62,114
144990,note_on,30,0,3,,,,,,,,,2,,,38,0
144990,note_on,0,0,3,,,,,,,,,2,,,38,101
144990,note_on,30,0,2,,,,,,,,,1,,,62,0
145080,note_on,0,0,3,,,,,,,,,2,,,38,75
145080,note_on,90,0,3,,,,,,,,,2,,,38,0
145080,note_on,90,0,2,,,,,,,,,1,,,62,0
145080,note_on,0,0,2,,,,,,,,,1,,,50,0
145080,note_on,0,0,2,,,,,,,,,1,,,50,88
145080,note_on,0,0,2,,,,,,,,,1,,,62,88
145110,note_on,0,0,3,,,,,,,,,2,,,38,75
145110,note_on,30,0,3,,,,,,,,,2,,,38,0
145110,note_on,0,0,2,,,,,,,,,1,,,62,88
145110,note_on,0,0,2,,,,,,,,,1,,,50,88
145110,note_on,0,0,2,,,,,,,,,1,,,50,0
145110,note_on,30,0,2,,,,,,,,,1,,,62,0
145200,note_on,0,0,3,,,,,,,,,2,,,40,75
145200,note_on,90,0,3,,,,,,,,,2,,,38,0
145200,note_on,0,0,2,,,,,,,,,1,,,64,88
145200,note_on,0,0,2,,,,,,,,,1,,,52,88
145200,note_on,0,0,2,,,,,,,,,1,,,50,0
145200,note_on,90,0,2,,,,,,,,,1,,,62,0
145230,note_on,0,0,2,,,,,,,,,1,,,52,0
145230,note_on,30,0,3,,,,,,,,,2,,,40,0
145230,control_change,0,0,2,,,,,,,,,1,64,127,,
145230,note_on,30,0,2,,,,,,,,,1,,,64,0
145230,control_change,0,0,3,,,,,,,,,2,64,127,,
145230,note_on,0,0,3,,,,,,,,,2,,,41,75
145230,note_on,0,0,2,,,,,,,,,1,,,65,88
145230,note_on,0,0,2,,,,,,,,,1,,,53,88
145320,note_on,0,0,2,,,,,,,,,1,,,53,0
145320,note_on,90,0,2,,,,,,,,,1,,,65,0
145320,note_on,0,0,3,,,,,,,,,2,,,41,75
145320,note_on,90,0,3,,,,,,,,,2,,,41,0
145320,note_on,0,0,2,,,,,,,,,1,,,53,88
145350,note_on,0,0,3,,,,,,,,,2,,,41,101
145350,note_on,30,0,2,,,,,,,,,1,,,53,0
145350,note_on,30,0,3,,,,,,,,,2,,,41,0
145350,note_on,0,0,2,,,,,,,,,1,,,53,114
145440,note_on,0,0,2,,,,,,,,,1,,,53,101
145440,note_on,90,0,3,,,,,,,,,2,,,41,0
145440,note_on,90,0,2,,,,,,,,,1,,,53,0
145440,note_on,0,0,3,,,,,,,,,2,,,41,88
145470,note_on,0,0,3,,,,,,,,,2,,,41,88
145470,note_on,30,0,3,,,,,,,,,2,,,41,0
145470,note_on,0,0,2,,,,,,,,,1,,,53,101
145470,note_on,30,0,2,,,,,,,,,1,,,53,0
145560,control_change,0,0,3,,,,,,,,,2,64,0,,
145560,note_on,90,0,3,,,,,,,,,2,,,41,0
145560,note_on,0,0,3,,,,,,,,,2,,,43,88
145560,note_on,0,0,2,,,,,,,,,1,,,55,101
145560,control_change,0,0,2,,,,,,,,,1,64,0,,
145560,note_on,90,0,2,,,,,,,,,1,,,53,0
145590,note_on,0,0,1,,,,,,,,,0,,,57,101
145590,note_on,30,0,2,,,,,,,,,1,,,55,0
145590,control_change,990,0,1,,,,,,,,,0,64,127,,
145590,note_on,30,0,3,,,,,,,,,2,,,43,0
145590,control_change,0,0,3,,,,,,,,,2,64,127,,
145590,note_on,0,0,3,,,,,,,,,2,,,45,88
145680,note_on,0,0,3,,,,,,,,,2,,,45,88
145680,note_on,0,0,3,,,,,,,,,2,,,33,88
145680,note_on,0,0,1,,,,,,,,,0,,,69,101
145680,note_on,0,0,1,,,,,,,,,0,,,57,101
145680,note_on,90,0,1,,,,,,,,,0,,,57,0
145680,note_on,90,0,3,,,,,,,,,2,,,45,0
145710,note_on,30,0,3,,,,,,,,,2,,,45,0
145710,note_on,30,0,1,,,,,,,,,0,,,69,0
145710,note_on,0,0,1,,,,,,,,,0,,,57,0
145710,note_on,0,0,1,,,,,,,,,0,,,57,119
145710,note_on,0,0,1,,,,,,,,,0,,,69,127
145710,note_on,0,0,3,,,,,,,,,2,,,33,106
145710,note_on,0,0,3,,,,,,,,,2,,,45,114
145710,note_on,0,0,3,,,,,,,,,2,,,33,0
145800,note_on,0,0,3,,,,,,,,,2,,,33,0
145800,note_on,0,0,1,,,,,,,,,0,,,59,101
145800,note_on,90,0,1,,,,,,,,,0,,,69,0
145800,note_on,90,0,3,,,,,,,,,2,,,45,0
145800,note_on,0,0,3,,,,,,,,,2,,,35,88
145800,note_on,0,0,3,,,,,,,,,2,,,47,88
145800,note_on,0,0,1,,,,,,,,,0,,,71,101
145800,note_on,0,0,1,,,,,,,,,0,,,57,0
145830,note_on,0,0,1,,,,,,,,,0,,,59,0
145830,note_on,0,0,1,,,,,,,,,0,,,61,101
145830,note_on,0,0,1,,,,,,,,,0,,,73,101
145830,note_on,30,0,1,,,,,,,,,0,,,71,0
145830,note_on,0,0,3,,,,,,,,,2,,,49,88
145830,note_on,30,0,3,,,,,,,,,2,,,47,0
145830,note_on,0,0,3,,,,,,,,,2,,,35,0
145830,note_on,0,0,3,,,,,,,,,2,,,37,88
145920,note_on,0,0,3,,,,,,,,,2,,,37,0
145920,note_on,0,0,3,,,,,,,,,2,,,38,88
145920,note_on,0,0,3,,,,,,,,,2,,,50,88
145920,note_on,90,0,3,,,,,,,,,2,,,49,0
145920,control_change,0,0,1,,,,,,,,,0,64,0,,
145920,note_on,0,0,1,,,,,,,,,0,,,74,101
145920,note_on,0,0,1,,,,,,,,,0,,,62,101
145920,note_on,0,0,1,,,,,,,,,0,,,61,0
145920,note_on,90,0,1,,,,,,,,,0,,,73,0
145920,control_change,0,0,3,,,,,,,,,2,64,0,,
145950,note_on,0,0,3,,,,,,,,,2,,,38,0
145950,note_on,0,0,1,,,,,,,,,0,,,62,0
145950,note_on,0,0,1,,,,,,,,,0,,,64,114
145950,note_on,30,0,1,,,,,,,,,0,,,74,0
145950,note_on,0,0,1,,,,,,,,,0,,,76,114
145950,note_on,0,0,1,,,,,,,,,0,,,73,114
145950,note_on,30,0,3,,,,,,,,,2,,,50,0
145950,note_on,0,0,3,,,,,,,,,2,,,45,101
145950,note_on,0,0,3,,,,,,,,,2,,,49,101
145950,note_on,0,0,1,,,,,,,,,0,,,69,114
145950,note_on,0,0,3,,,,,,,,,2,,,52,101
145950,note_on,0,0,3,,,,,,,,,2,,,40,101
146190,note_on,0,0,1,,,,,,,,,0,,,64,114
146190,note_on,240,0,3,,,,,,,,,2,,,52,0
146190,note_on,0,0,3,,,,,,,,,2,,,40,0
146190,note_on,0,0,3,,,,,,,,,2,,,45,0
146190,note_on,0,0,3,,,,,,,,,2,,,49,0
146190,note_on,0,0,3,,,,,,,,,2,,,40,101
146190,note_on,0,0,1,,,,,,,,,0,,,69,0
146190,note_on,0,0,1,,,,,,,,,0,,,64,0
146190,note_on,240,0,1,,,,,,,,,0,,,76,0
146190,note_on,0,0,3,,,,,,,,,2,,,52,101
146190,note_on,0,0,1,,,,,,,,,0,,,76,114
146190,note_on,0,0,1,,,,,,,,,0,,,73,114
146190,note_on,0,0,1,,,,,,,,,0,,,69,114
146190,note_on,0,0,1,,,,,,,,,0,,,73,0
146190,note_on,0,0,3,,,,,,,,,2,,,45,101
146190,note_on,0,0,3,,,,,,,,,2,,,49,101
146400,note_on,0,0,1,,,,,,,,,0,,,74,114
146400,note_on,210,0,1,,,,,,,,,0,,,76,0
146400,note_on,0,0,1,,,,,,,,,0,,,64,0
146400,note_on,0,0,1,,,,,,,,,0,,,69,0
146400,note_on,0,0,1,,,,,,,,,0,,,68,114
146400,note_on,0,0,1,,,,,,,,,0,,,73,0
146400,note_on,210,0,3,,,,,,,,,2,,,52,0
146400,note_on,0,0,3,,,,,,,,,2,,,40,0
146400,note_on,0,0,3,,,,,,,,,2,,,45,0
146400,note_on,0,0,3,,,,,,,,,2,,,49,0
146400,note_on,0,0,3,,,,,,,,,2,,,40,101
146400,note_on,0,0,3,,,,,,,,,2,,,52,101
146400,note_on,0,0,1,,,,,,,,,0,,,76,114
146430,note_on,30,0,1,,,,,,,,,0,,,76,0
146430,note_on,0,0,1,,,,,,,,,0,,,74,0
146430,note_on,0,0,1,,,,,,,,,0,,,68,114
146430,note_on,0,0,1,,,,,,,,,0,,,74,114
146430,note_on,0,0,1,,,,,,,,,0,,,76,114
146430,note_on,0,0,1,,,,,,,,,0,,,68,0
146430,note_on,0,0,3,,,,,,,,,2,,,52,101
146430,note_on,30,0,3,,,,,,,,,2,,,52,0
146430,note_on,0,0,3,,,,,,,,,2,,,40,0
146430,note_on,0,0,3,,,,,,,,,2,,,40,101
146520,note_on,0,0,3,,,,,,,,,2,,,50,101
146520,note_on,0,0,3,,,,,,,,,2,,,38,101
146520,note_on,0,0,3,,,,,,,,,2,,,40,0
146520,note_on,90,0,1,,,,,,,,,0,,,76,0
146520,note_on,0,0,1,,,,,,,,,0,,,74,0
146520,note_on,0,0,1,,,,,,,,,0,,,68,0
146520,note_on,0,0,1,,,,,,,,,0,,,68,114
146520,note_on,0,0,1,,,,,,,,,0,,,74,114
146520,note_on,0,0,1,,,,,,,,,0,,,76,114
146520,note_on,90,0,3,,,,,,,,,2,,,52,0
146550,note_on,0,0,1,,,,,,,,,0,,,74,0
146550,note_on,30,0,1,,,,,,,,,0,,,76,0
146550,note_on,0,0,1,,,,,,,,,0,,,68,0
146550,note_on,0,0,1,,,,,,,,,0,,,78,114
146550,note_on,0,0,1,,,,,,,,,0,,,74,114
146550,note_on,0,0,3,,,,,,,,,2,,,38,0
146550,note_on,0,0,3,,,,,,,,,2,,,37,101
146550,note_on,0,0,3,,,,,,,,,2,,,49,101
146550,note_on,0,0,1,,,,,,,,,0,,,68,114
146550,note_on,30,0,3,,,,,,,,,2,,,50,0
146640,note_on,90,0,3,,,,,,,,,2,,,49,0
146640,note_on,0,0,3,,,,,,,,,2,,,37,0
146640,note_on,0,0,3,,,,,,,,,2,,,35,101
146640,note_on,0,0,3,,,,,,,,,2,,,47,101
146640,note_on,0,0,1,,,,,,,,,0,,,80,114
146640,note_on,0,0,1,,,,,,,,,0,,,74,114
146640,note_on,0,0,1,,,,,,,,,0,,,68,114
146640,note_on,0,0,1,,,,,,,,,0,,,68,0
146640,note_on,0,0,1,,,,,,,,,0,,,74,0
146640,note_on,90,0,1,,,,,,,,,0,,,78,0
146670,note_on,0,0,3,,,,,,,,,2,,,35,0
146670,note_on,30,0,3,,,,,,,,,2,,,47,0
146670,note_on,0,0,3,,,,,,,,,2,,,45,101
146670,note_on,0,0,3,,,,,,,,,2,,,33,101
146670,note_on,0,0,1,,,,,,,,,0,,,68,0
146670,note_on,30,0,1,,,,,,,,,0,,,80,0
146670,note_on,0,0,1,,,,,,,,,0,,,74,0
146670,note_on,0,0,1,,,,,,,,,0,,,69,114
146670,note_on,0,0,1,,,,,,,,,0,,,73,114
146670,note_on,0,0,1,,,,,,,,,0,,,81,114
146910,note_on,0,0,3,,,,,,,,,2,,,40,101
146910,note_on,240,0,1,,,,,,,,,0,,,81,0
146910,note_on,0,0,1,,,,,,,,,0,,,73,0
146910,note_on,0,0,1,,,,,,,,,0,,,69,0
146910,note_on,0,0,1,,,,,,,,,0,,,69,114
146910,note_on,0,0,1,,,,,,,,,0,,,73,114
146910,note_on,0,0,3,,,,,,,,,2,,,33,101
146910,note_on,0,0,1,,,,,,,,,0,,,81,114
146910,note_on,0,0,3,,,,,,,,,2,,,33,0
146910,note_on,240,0,3,,,,,,,,,2,,,45,0
146910,note_on,0,0,3,,,,,,,,,2,,,45,101
147120,note_on,210,0,3,,,,,,,,,2,,,45,0
147120,note_on,0,0,1,,,,,,,,,0,,,73,0
147120,note_on,0,0,3,,,,,,,,,2,,,33,0
147120,note_on,0,0,3,,,,,,,,,2,,,45,36
147120,note_on,210,0,1,,,,,,,,,0,,,81,0
147120,note_on,0,0,1,,,,,,,,,0,,,61,49
147120,note_on,0,0,1,,,,,,,,,0,,,55,49
147120,note_on,0,0,1,,,,,,,,,0,,,69,0
147120,note_on,0,0,3,,,,,,,,,2,,,40,0
147120,note_on,0,0,1,,,,,,,,,0,,,57,49
147124,note_on,4,0,1,,,,,,,,,0,,,61,0
147124,note_on,0,0,1,,,,,,,,,0,,,55,0
147124,note_on,0,0,1,,,,,,,,,0,,,57,0
147124,note_on,4,0,3,,,,,,,,,2,,,45,0
147150,note_on,26,0,3,,,,,,,,,2,,,47,36
147150,note_on,0,0,1,,,,,,,,,0,,,57,49
147150,note_on,26,0,1,,,,,,,,,0,,,55,49
147150,note_on,0,0,1,,,,,,,,,0,,,62,49
147159,note_on,9,0,3,,,,,,,,,2,,,47,0
147159,note_on,0,0,1,,,,,,,,,0,,,55,0
147159,note_on,0,0,1,,,,,,,,,0,,,57,0
147159,note_on,9,0,1,,,,,,,,,0,,,62,0
147240,note_on,81,0,1,,,,,,,,,0,,,55,49
147240,note_on,0,0,1,,,,,,,,,0,,,57,49
147240,note_on,0,0,1,,,,,,,,,0,,,61,49
147240,note_on,81,0,3,,,,,,,,,2,,,45,36
147244,note_on,4,0,3,,,,,,,,,2,,,45,0
147244,note_on,4,0,1,,,,,,,,,0,,,61,0
147244,note_on,0,0,1,,,,,,,,,0,,,57,0
147244,note_on,0,0,1,,,,,,,,,0,,,55,0
147270,note_on,26,0,1,,,,,,,,,0,,,55,49
147270,note_on,0,0,1,,,,,,,,,0,,,62,49
147270,note_on,26,0,3,,,,,,,,,2,,,47,36
147270,note_on,0,0,1,,,,,,,,,0,,,57,49
147279,note_on,9,0,1,,,,,,,,,0,,,62,0
147279,note_on,0,0,1,,,,,,,,,0,,,57,0
147279,note_on,0,0,1,,,,,,,,,0,,,55,0
147279,note_on,9,0,3,,,,,,,,,2,,,47,0
147360,note_on,0,0,1,,,,,,,,,0,,,64,49
147360,note_on,81,0,1,,,,,,,,,0,,,55,49
147360,note_on,0,0,1,,,,,,,,,0,,,57,49
147360,note_on,81,0,3,,,,,,,,,2,,,49,36
147364,note_on,4,0,3,,,,,,,,,2,,,49,0
147364,note_on,0,0,1,,,,,,,,,0,,,57,0
147364,note_on,4,0,1,,,,,,,,,0,,,64,0
147364,note_on,0,0,1,,,,,,,,,0,,,55,0
147390,note_on,26,0,1,,,,,,,,,0,,,54,67
147390,note_on,0,0,1,,,,,,,,,0,,,57,75
147390,note_on,26,0,3,,,,,,,,,2,,,50,62
147630,note_on,0,0,3,,,,,,,,,2,,,50,36
147630,note_on,0,0,1,,,,,,,,,0,,,66,49
147630,note_on,0,0,1,,,,,,,,,0,,,57,49
147630,note_on,0,0,1,,,,,,,,,0,,,54,0
147630,note_on,240,0,1,,,,,,,,,0,,,57,0
147630,note_on,240,0,3,,,,,,,,,2,,,50,0
147630,note_on,0,0,3,,,,,,,,,2,,,54,36
147840,note_on,0,0,1,,,,,,,,,0,,,57,49
147840,note_on,0,0,1,,,,,,,,,0,,,66,49
147840,note_on,210,0,1,,,,,,,,,0,,,66,0
147840,note_on,0,0,3,,,,,,,,,2,,,50,36
147840,note_on,0,0,3,,,,,,,,,2,,,50,0
147840,note_on,210,0,3,,,,,,,,,2,,,54,0
147840,note_on,0,0,1,,,,,,,,,0,,,57,0
147844,note_on,4,0,3,,,,,,,,,2,,,50,0
147844,note_on,0,0,1,,,,,,,,,0,,,57,0
147844,note_on,4,0,1,,,,,,,,,0,,,66,0
147870,note_on,0,0,3,,,,,,,,,2,,,50,36
147870,note_on,26,0,3,,,,,,,,,2,,,47,36
147870,note_on,0,0,1,,,,,,,,,0,,,67,49
147870,note_on,26,0,1,,,,,,,,,0,,,55,49
147879,note_on,0,0,3,,,,,,,,,2,,,47,0
147879,note_on,0,0,1,,,,,,,,,0,,,55,0
147879,note_on,9,0,1,,,,,,,,,0,,,67,0
147879,note_on,9,0,3,,,,,,,,,2,,,50,0
147960,note_on,0,0,3,,,,,,,,,2,,,50,36
147960,note_on,81,0,1,,,,,,,,,0,,,55,49
147960,note_on,0,0,1,,,,,,,,,0,,,66,49
147960,note_on,81,0,3,,,,,,,,,2,,,47,36
147964,note_on,4,0,3,,,,,,,,,2,,,50,0
147964,note_on,0,0,3,,,,,,,,,2,,,47,0
147964,note_on,4,0,1,,,,,,,,,0,,,66,0
147964,note_on,0,0,1,,,,,,,,,0,,,55,0
147990,note_on,26,0,3,,,,,,,,,2,,,46,36
147990,note_on,0,0,3,,,,,,,,,2,,,50,36
147990,note_on,26,0,1,,,,,,,,,0,,,56,49
147990,note_on,0,0,1,,,,,,,,,0,,,64,49
147999,note_on,9,0,1,,,,,,,,,0,,,64,0
147999,note_on,0,0,1,,,,,,,,,0,,,56,0
147999,note_on,9,0,3,,,,,,,,,2,,,50,0
147999,note_on,0,0,3,,,,,,,,,2,,,46,0
148080,note_on,81,0,3,,,,,,,,,2,,,46,36
148080,note_on,0,0,1,,,,,,,,,0,,,62,49
148080,note_on,81,0,1,,,,,,,,,0,,,56,49
148080,note_on,0,0,3,,,,,,,,,2,,,50,36
148084,note_on,4,0,3,,,,,,,,,2,,,50,0
148084,note_on,4,0,1,,,,,,,,,0,,,62,0
148084,note_on,0,0,1,,,,,,,,,0,,,56,0
148084,note_on,0,0,3,,,,,,,,,2,,,46,0
148110,note_on,26,0,1,,,,,,,,,0,,,57,65
148110,note_on,0,0,1,,,,,,,,,0,,,69,75
148110,note_on,0,0,1,,,,,,,,,0,,,61,70
148110,note_on,0,0,3,,,,,,,,,2,,,52,62
148110,note_on,26,0,3,,,,,,,,,2,,,45,54
148350,note_on,0,0,3,,,,,,,,,2,,,57,62
148350,note_on,0,0,3,,,,,,,,,2,,,45,54
148350,note_on,0,0,3,,,,,,,,,2,,,45,0
148350,note_on,240,0,3,,,,,,,,,2,,,52,0
148350,note_on,0,0,1,,,,,,,,,0,,,61,67
148350,note_on,0,0,1,,,,,,,,,0,,,57,0
148350,note_on,0,0,1,,,,,,,,,0,,,61,0
148350,note_on,240,0,1,,,,,,,,,0,,,69,0
148350,note_on,0,0,1,,,,,,,,,0,,,64,75
148560,note_on,210,0,3,,,,,,,,,2,,,57,0
148560,note_on,0,0,3,,,,,,,,,2,,,45,0
148560,note_on,0,0,3,,,,,,,,,2,,,49,36
148560,note_on,0,0,3,,,,,,,,,2,,,57,36
148560,note_on,0,0,1,,,,,,,,,0,,,61,0
148560,note_on,0,0,1,,,,,,,,,0,,,69,49
148560,note_on,0,0,1,,,,,,,,,0,,,64,49
148560,note_on,210,0,1,,,,,,,,,0,,,64,0
148564,note_on,0,0,3,,,,,,,,,2,,,49,0
148564,note_on,4,0,3,,,,,,,,,2,,,57,0
148564,note_on,0,0,1,,,,,,,,,0,,,64,0
148564,note_on,4,0,1,,,,,,,,,0,,,69,0
148575,note_on,11,0,1,,,,,,,,,0,,,73,49
148579,note_on,4,0,1,,,,,,,,,0,,,73,0
148590,note_on,0,0,3,,,,,,,,,2,,,57,36
148590,note_on,0,0,1,,,,,,,,,0,,,71,49
148590,note_on,11,0,1,,,,,,,,,0,,,64,49
148590,note_on,26,0,3,,,,,,,,,2,,,49,36
148599,note_on,0,0,1,,,,,,,,,0,,,64,0
148599,note_on,9,0,1,,,,,,,,,0,,,71,0
148599,note_on,0,0,3,,,,,,,,,2,,,49,0
148599,note_on,9,0,3,,,,,,,,,2,,,57,0
148680,note_on,0,0,1,,,,,,,,,0,,,69,49
148680,note_on,81,0,3,,,,,,,,,2,,,49,36
148680,note_on,0,0,3,,,,,,,,,2,,,57,36
148680,note_on,81,0,1,,,,,,,,,0,,,64,49
148684,note_on,0,0,3,,,,,,,,,2,,,49,0
148684,note_on,4,0,3,,,,,,,,,2,,,57,0
148684,note_on,0,0,1,,,,,,,,,0,,,64,0
148684,note_on,4,0,1,,,,,,,,,0,,,69,0
148710,note_on,0,0,3,,,,,,,,,2,,,57,36
148710,note_on,26,0,3,,,,,,,,,2,,,49,36
148710,note_on,0,0,1,,,,,,,,,0,,,71,49
148710,note_on,26,0,1,,,,,,,,,0,,,64,49
148719,note_on,9,0,1,,,,,,,,,0,,,71,0
148719,note_on,0,0,3,,,,,,,,,2,,,49,0
148719,note_on,9,0,3,,,,,,,,,2,,,57,0
148719,note_on,0,0,1,,,,,,,,,0,,,64,0
148800,note_on,0,0,3,,,,,,,,,2,,,57,36
148800,note_on,81,0,1,,,,,,,,,0,,,64,49
148800,note_on,0,0,1,,,,,,,,,0,,,73,49
148800,note_on,81,0,3,,,,,,,,,2,,,49,36
148804,note_on,4,0,1,,,,,,,,,0,,,73,0
148804,note_on,0,0,3,,,,,,,,,2,,,49,0
148804,note_on,4,0,3,,,,,,,,,2,,,57,0
148804,note_on,0,0,1,,,,,,,,,0,,,64,0
148830,note_on,26,0,1,,,,,,,,,0,,,62,65
148830,note_on,0,0,3,,,,,,,,,2,,,59,62
148830,note_on,0,0,3,,,,,,,,,2,,,54,57
148830,note_on,0,0,1,,,,,,,,,0,,,66,70
148830,note_on,26,0,3,,,,,,,,,2,,,47,52
148830,note_on,0,0,1,,,,,,,,,0,,,74,75
149070,note_on,0,0,3,,,,,,,,,2,,,59,62
149070,note_on,0,0,1,,,,,,,,,0,,,66,75
149070,note_on,240,0,3,,,,,,,,,2,,,59,0
149070,note_on,0,0,3,,,,,,,,,2,,,50,54
149070,note_on,0,0,3,,,,,,,,,2,,,47,0
149070,note_on,0,0,3,,,,,,,,,2,,,54,0
149070,note_on,240,0,1,,,,,,,,,0,,,74,0
149070,note_on,0,0,1,,,,,,,,,0,,,62,67
149070,note_on,0,0,1,,,,,,,,,0,,,62,0
149070,note_on,0,0,1,,,,,,,,,0,,,66,0
149280,note_on,0,0,3,,,,,,,,,2,,,50,36
149280,note_on,0,0,3,,,,,,,,,2,,,50,0
149280,note_on,210,0,3,,,,,,,,,2,,,59,0
149280,note_on,210,0,1,,,,,,,,,0,,,66,0
149280,note_on,0,0,1,,,,,,,,,0,,,66,49
149280,note_on,0,0,1,,,,,,,,,0,,,62,0
149280,note_on,0,0,1,,,,,,,,,0,,,62,49
149280,note_on,0,0,3,,,,,,,,,2,,,59,36
149295,note_on,0,0,1,,,,,,,,,0,,,69,49
149295,note_on,0,0,1,,,,,,,,,0,,,62,0
149295,note_on,15,0,1,,,,,,,,,0,,,66,0
149310,note_on,0,0,1,,,,,,,,,0,,,68,49
149310,note_on,0,0,3,,,,,,,,,2,,,50,0
149310,note_on,0,0,3,,,,,,,,,2,,,52,36
149310,note_on,0,0,3,,,,,,,,,2,,,59,36
149310,note_on,0,0,1,,,,,,,,,0,,,62,49
149310,note_on,15,0,1,,,,,,,,,0,,,69,0
149310,note_on,30,0,3,,,,,,,,,2,,,59,0
149319,note_on,0,0,1,,,,,,,,,0,,,62,0
149319,note_on,0,0,3,,,,,,,,,2,,,52,0
149319,note_on,9,0,3,,,,,,,,,2,,,59,0
149319,note_on,9,0,1,,,,,,,,,0,,,68,0
149400,note_on,0,0,3,,,,,,,,,2,,,59,36
149400,note_on,81,0,3,,,,,,,,,2,,,52,36
149400,note_on,0,0,1,,,,,,,,,0,,,66,49
149400,note_on,81,0,1,,,,,,,,,0,,,62,49
149404,note_on,0,0,1,,,,,,,,,0,,,62,0
149404,note_on,0,0,3,,,,,,,,,2,,,52,0
149404,note_on,4,0,1,,,,,,,,,0,,,66,0
149404,note_on,4,0,3,,,,,,,,,2,,,59,0
149430,note_on,0,0,1,,,,,,,,,0,,,68,49
149430,note_on,26,0,1,,,,,,,,,0,,,62,49
149430,note_on,0,0,3,,,,,,,,,2,,,59,36
149430,note_on,26,0,3,,,,,,,,,2,,,52,36
149439,note_on,0,0,3,,,,,,,,,2,,,52,0
149439,note_on,9,0,3,,,,,,,,,2,,,59,0
149439,note_on,9,0,1,,,,,,,,,0,,,68,0
149439,note_on,0,0,1,,,,,,,,,0,,,62,0
149520,note_on,0,0,3,,,,,,,,,2,,,59,36
149520,note_on,81,0,3,,,,,,,,,2,,,52,36
149520,note_on,81,0,1,,,,,,,,,0,,,62,49
149520,note_on,0,0,1,,,,,,,,,0,,,64,49
149524,note_on,0,0,3,,,,,,,,,2,,,52,0
149524,note_on,4,0,3,,,,,,,,,2,,,59,0
149524,note_on,4,0,1,,,,,,,,,0,,,64,0
149524,note_on,0,0,1,,,,,,,,,0,,,62,0
149550,note_on,0,0,3,,,,,,,,,2,,,57,62
149550,note_on,0,0,3,,,,,,,,,2,,,52,57
149550,note_on,26,0,3,,,,,,,,,2,,,45,52
149550,note_on,0,0,1,,,,,,,,,0,,,69,75
149550,note_on,26,0,1,,,,,,,,,0,,,61,67
149790,note_on,240,0,3,,,,,,,,,2,,,57,0
149790,note_on,240,0,1,,,,,,,,,0,,,69,0
149790,note_on,0,0,1,,,,,,,,,0,,,69,75
149790,note_on,0,0,1,,,,,,,,,0,,,61,67
149790,note_on,0,0,3,,,,,,,,,2,,,52,0
149790,note_on,0,0,3,,,,,,,,,2,,,57,62
149790,note_on,0,0,3,,,,,,,,,2,,,52,57
149790,note_on,0,0,3,,,,,,,,,2,,,45,52
149790,note_on,0,0,3,,,,,,,,,2,,,45,0
149790,note_on,0,0,1,,,,,,,,,0,,,61,0
150030,note_on,0,0,3,,,,,,,,,2,,,50,88
150030,note_on,0,0,3,,,,,,,,,2,,,52,0
150030,note_on,240,0,3,,,,,,,,,2,,,57,0
150030,note_on,0,0,3,,,,,,,,,2,,,45,0
150030,note_on,0,0,1,,,,,,,,,0,,,62,88
150030,note_on,0,0,1,,,,,,,,,0,,,61,0
150030,note_on,240,0,1,,,,,,,,,0,,,69,0
150030,note_on,0,0,1,,,,,,,,,0,,,66,88
150030,note_on,0,0,1,,,,,,,,,0,,,69,88
150042,note_on,12,0,1,,,,,,,,,0,,,69,0
150042,note_on,0,0,1,,,,,,,,,0,,,66,0
150042,note_on,12,0,3,,,,,,,,,2,,,50,0
150042,note_on,0,0,1,,,,,,,,,0,,,62,0
150150,note_on,0,0,1,,,,,,,,,0,,,66,88
150150,note_on,0,0,1,,,,,,,,,0,,,70,88
150150,note_on,108,0,1,,,,,,,,,0,,,62,88
150150,note_on,108,0,3,,,,,,,,,2,,,49,88
150162,note_on,12,0,1,,,,,,,,,0,,,70,0
150162,note_on,0,0,1,,,,,,,,,0,,,66,0
150162,note_on,0,0,1,,,,,,,,,0,,,62,0
150162,note_on,12,0,3,,,,,,,,,2,,,49,0
150270,control_change,108,0,3,,,,,,,,,2,64,127,,
150270,note_on,0,0,3,,,,,,,,,2,,,47,114
150270,note_on,0,0,1,,,,,,,,,0,,,67,101
150270,note_on,0,0,1,,,,,,,,,0,,,71,101
150270,note_on,108,0,1,,,,,,,,,0,,,62,101
150309,note_on,39,0,3,,,,,,,,,2,,,46,114
150310,note_on,1,0,3,,,,,,,,,2,,,47,0
150349,note_on,39,0,3,,,,,,,,,2,,,46,0
150350,note_on,1,0,3,,,,,,,,,2,,,47,114
150390,note_on,40,0,3,,,,,,,,,2,,,47,0
150390,note_on,0,0,3,,,,,,,,,2,,,43,114
150429,note_on,39,0,3,,,,,,,,,2,,,42,114
150430,note_on,1,0,3,,,,,,,,,2,,,43,0
150469,note_on,39,0,3,,,,,,,,,2,,,42,0
150470,note_on,1,0,3,,,,,,,,,2,,,43,114
150510,control_change,0,0,3,,,,,,,,,2,64,0,,
150510,note_on,40,0,3,,,,,,,,,2,,,43,0
150510,note_on,0,0,3,,,,,,,,,2,,,40,127
150510,note_on,0,0,1,,,,,,,,,0,,,67,117
150510,note_on,240,0,1,,,,,,,,,0,,,71,0
150510,note_on,0,0,1,,,,,,,,,0,,,67,0
150510,note_on,0,0,1,,,,,,,,,0,,,62,0
150510,note_on,0,0,1,,,,,,,,,0,,,71,122
150510,note_on,0,0,1,,,,,,,,,0,,,76,127
150630,control_change,120,0,3,,,,,,,,,2,64,127,,
150630,note_on,120,0,1,,,,,,,,,0,,,76,0
150630,note_on,0,0,1,,,,,,,,,0,,,71,0
150630,note_on,0,0,1,,,,,,,,,0,,,67,0
150630,note_on,0,0,1,,,,,,,,,0,,,71,117
150630,note_on,0,0,1,,,,,,,,,0,,,76,122
150630,note_on,0,0,1,,,,,,,,,0,,,79,127
150630,control_change,0,0,1,,,,,,,,,0,64,127,,
150642,note_on,0,0,1,,,,,,,,,0,,,76,0
150642,note_on,0,0,1,,,,,,,,,0,,,71,0
150642,note_on,12,0,1,,,,,,,,,0,,,79,0
150720,note_on,90,0,3,,,,,,,,,2,,,40,0
150720,note_on,0,0,3,,,,,,,,,2,,,42,114
150750,note_on,108,0,1,,,,,,,,,0,,,67,117
150750,note_on,0,0,1,,,,,,,,,0,,,71,122
150750,note_on,0,0,1,,,,,,,,,0,,,76,127
150750,note_on,0,0,3,,,,,,,,,2,,,43,114
150750,note_on,30,0,3,,,,,,,,,2,,,42,0
150762,note_on,12,0,1,,,,,,,,,0,,,76,0
150762,note_on,0,0,1,,,,,,,,,0,,,71,0
150762,note_on,0,0,1,,,,,,,,,0,,,67,0
150840,note_on,0,0,3,,,,,,,,,2,,,45,114
150840,note_on,90,0,3,,,,,,,,,2,,,43,0
150870,note_on,0,0,3,,,,,,,,,2,,,47,114
150870,note_on,30,0,3,,,,,,,,,2,,,45,0
150870,note_on,0,0,1,,,,,,,,,0,,,67,127
150870,control_change,108,0,1,,,,,,,,,0,64,0,,
150870,note_on,0,0,1,,,,,,,,,0,,,64,122
150870,note_on,0,0,1,,,,,,,,,0,,,61,117
150882,note_on,0,0,1,,,,,,,,,0,,,61,0
150882,note_on,0,0,1,,,,,,,,,0,,,64,0
150882,note_on,12,0,1,,,,,,,,,0,,,67,0
150960,note_on,0,0,3,,,,,,,,,2,,,49,114
150960,note_on,90,0,3,,,,,,,,,2,,,47,0
150960,control_change,0,0,3,,,,,,,,,2,64,0,,
150990,control_change,0,0,3,,,,,,,,,2,64,127,,
150990,note_on,30,0,3,,,,,,,,,2,,,49,0
150990,note_on,0,0,1,,,,,,,,,0,,,66,88
150990,note_on,108,0,1,,,,,,,,,0,,,61,88
150990,note_on,0,0,3,,,,,,,,,2,,,45,88
150990,note_on,0,0,1,,,,,,,,,0,,,69,88
151029,note_on,39,0,3,,,,,,,,,2,,,44,88
151030,note_on,1,0,3,,,,,,,,,2,,,45,0
151069,note_on,39,0,3,,,,,,,,,2,,,44,0
151070,note_on,1,0,3,,,,,,,,,2,,,45,88
151110,note_on,40,0,3,,,,,,,,,2,,,45,0
151110,note_on,0,0,3,,,,,,,,,2,,,42,88
151149,note_on,39,0,3,,,,,,,,,2,,,41,88
151150,note_on,1,0,3,,,,,,,,,2,,,42,0
151189,note_on,39,0,3,,,,,,,,,2,,,41,0
151190,note_on,1,0,3,,,,,,,,,2,,,42,88
151230,note_on,0,0,1,,,,,,,,,0,,,74,114
151230,note_on,0,0,3,,,,,,,,,2,,,38,114
151230,control_change,0,0,3,,,,,,,,,2,64,0,,
151230,note_on,40,0,3,,,,,,,,,2,,,42,0
151230,note_on,0,0,1,,,,,,,,,0,,,66,104
151230,note_on,0,0,1,,,,,,,,,0,,,61,0
151230,note_on,0,0,1,,,,,,,,,0,,,66,0
151230,note_on,240,0,1,,,,,,,,,0,,,69,0
151230,note_on,0,0,1,,,,,,,,,0,,,69,109
151350,control_change,0,0,1,,,,,,,,,0,64,127,,
151350,note_on,0,0,1,,,,,,,,,0,,,66,0
151350,note_on,0,0,1,,,,,,,,,0,,,69,0
151350,note_on,120,0,1,,,,,,,,,0,,,74,0
151350,note_on,0,0,1,,,,,,,,,0,,,69,104
151350,note_on,0,0,1,,,,,,,,,0,,,74,109
151350,note_on,0,0,1,,,,,,,,,0,,,78,114
151350,control_change,120,0,3,,,,,,,,,2,64,127,,
151362,note_on,0,0,1,,,,,,,,,0,,,69,0
151362,note_on,0,0,1,,,,,,,,,0,,,74,0
151362,note_on,12,0,1,,,,,,,,,0,,,78,0
151440,note_on,0,0,3,,,,,,,,,2,,,40,88
151440,note_on,90,0,3,,,,,,,,,2,,,38,0
151470,note_on,0,0,1,,,,,,,,,0,,,69,109
151470,note_on,108,0,1,,,,,,,,,0,,,66,104
151470,note_on,0,0,1,,,,,,,,,0,,,74,114
151470,note_on,0,0,3,,,,,,,,,2,,,42,88
151470,note_on,30,0,3,,,,,,,,,2,,,40,0
151482,note_on,12,0,1,,,,,,,,,0,,,74,0
151482,note_on,0,0,1,,,,,,,,,0,,,69,0
151482,note_on,0,0,1,,,,,,,,,0,,,66,0
151560,note_on,90,0,3,,,,,,,,,2,,,42,0
151560,note_on,0,0,3,,,,,,,,,2,,,43,88
151590,control_change,108,0,1,,,,,,,,,0,64,0,,
151590,note_on,0,0,1,,,,,,,,,0,,,59,104
151590,note_on,0,0,1,,,,,,,,,0,,,62,109
151590,note_on,0,0,1,,,,,,,,,0,,,66,114
151590,note_on,30,0,3,,,,,,,,,2,,,43,0
151590,note_on,0,0,3,,,,,,,,,2,,,45,88
151602,note_on,12,0,1,,,,,,,,,0,,,66,0
151602,note_on,0,0,1,,,,,,,,,0,,,59,0
151602,note_on,0,0,1,,,,,,,,,0,,,62,0
151680,control_change,0,0,3,,,,,,,,,2,64,0,,
151680,note_on,0,0,3,,,,,,,,,2,,,47,88
151680,note_on,90,0,3,,,,,,,,,2,,,45,0
151710,note_on,0,0,1,,,,,,,,,0,,,64,88
151710,note_on,30,0,3,,,,,,,,,2,,,47,0
151710,control_change,0,0,3,,,,,,,,,2,64,127,,
151710,note_on,0,0,3,,,,,,,,,2,,,43,88
151710,note_on,108,0,1,,,,,,,,,0,,,59,88
151710,note_on,0,0,1,,,,,,,,,0,,,67,88
151749,note_on,39,0,3,,,,,,,,,2,,,42,88
151750,note_on,1,0,3,,,,,,,,,2,,,43,0
151789,note_on,39,0,3,,,,,,,,,2,,,42,0
151790,note_on,1,0,3,,,,,,,,,2,,,43,88
151830,note_on,0,0,3,,,,,,,,,2,,,40,88
151830,note_on,40,0,3,,,,,,,,,2,,,43,0
151869,note_on,39,0,3,,,,,,,,,2,,,39,88
151870,note_on,1,0,3,,,,,,,,,2,,,40,0
151909,note_on,39,0,3,,,,,,,,,2,,,39,0
151910,note_on,1,0,3,,,,,,,,,2,,,40,88
151950,note_on,40,0,3,,,,,,,,,2,,,40,0
151950,control_change,0,0,3,,,,,,,,,2,64,0,,
151950,note_on,0,0,3,,,,,,,,,2,,,37,114
151950,note_on,0,0,1,,,,,,,,,0,,,73,114
151950,note_on,0,0,1,,,,,,,,,0,,,67,109
151950,note_on,0,0,1,,,,,,,,,0,,,64,104
151950,note_on,0,0,1,,,,,,,,,0,,,59,0
151950,note_on,240,0,1,,,,,,,,,0,,,67,0
151950,note_on,0,0,1,,,,,,,,,0,,,64,0
152070,note_on,0,0,1,,,,,,,,,0,,,67,0
152070,note_on,0,0,1,,,,,,,,,0,,,64,0
152070,note_on,0,0,1,,,,,,,,,0,,,67,104
152070,note_on,0,0,1,,,,,,,,,0,,,73,109
152070,note_on,0,0,1,,,,,,,,,0,,,76,114
152070,control_change,0,0,1,,,,,,,,,0,64,127,,
152070,note_on,120,0,1,,,,,,,,,0,,,73,0
152070,control_change,120,0,3,,,,,,,,,2,64,127,,
152082,note_on,0,0,1,,,,,,,,,0,,,73,0
152082,note_on,0,0,1,,,,,,,,,0,,,67,0
152082,note_on,12,0,1,,,,,,,,,0,,,76,0
152160,note_on,90,0,3,,,,,,,,,2,,,37,0
152160,note_on,0,0,3,,,,,,,,,2,,,38,88
152190,note_on,0,0,1,,,,,,,,,0,,,73,114
152190,note_on,30,0,3,,,,,,,,,2,,,38,0
152190,note_on,0,0,3,,,,,,,,,2,,,40,88
152190,note_on,108,0,1,,,,,,,,,0,,,64,104
152190,note_on,0,0,1,,,,,,,,,0,,,67,109
152202,note_on,0,0,1,,,,,,,,,0,,,64,0
152202,note_on,0,0,1,,,,,,,,,0,,,67,0
152202,note_on,12,0,1,,,,,,,,,0,,,73,0
152280,note_on,0,0,3,,,,,,,,,2,,,37,88
152280,note_on,90,0,3,,,,,,,,,2,,,40,0
152310,control_change,108,0,1,,,,,,,,,0,64,0,,
152310,note_on,0,0,1,,,,,,,,,0,,,61,104
152310,note_on,0,0,1,,,,,,,,,0,,,68,109
152310,note_on,0,0,1,,,,,,,,,0,,,71,114
152310,note_on,0,0,3,,,,,,,,,2,,,41,88
152310,note_on,30,0,3,,,,,,,,,2,,,37,0
152322,note_on,12,0,1,,,,,,,,,0,,,71,0
152322,note_on,0,0,1,,,,,,,,,0,,,68,0
152322,note_on,0,0,1,,,,,,,,,0,,,61,0
152400,control_change,0,0,3,,,,,,,,,2,64,0,,
152400,note_on,0,0,3,,,,,,,,,2,,,37,88
152400,note_on,90,0,3,,,,,,,,,2,,,41,0
152430,note_on,0,0,3,,,,,,,,,2,,,42,101
152430,note_on,30,0,3,,,,,,,,,2,,,37,0
152430,note_on,0,0,1,,,,,,,,,0,,,66,114
152430,note_on,108,0,1,,,,,,,,,0,,,61,114
152430,note_on,0,0,1,,,,,,,,,0,,,70,114
152670,note_on,0,0,1,,,,,,,,,0,,,70,114
152670,note_on,0,0,1,,,,,,,,,0,,,66,114
152670,note_on,0,0,1,,,,,,,,,0,,,61,0
152670,note_on,240,0,3,,,,,,,,,2,,,42,0
152670,note_on,0,0,3,,,,,,,,,2,,,42,101
152670,note_on,0,0,1,,,,,,,,,0,,,61,114
152670,note_on,0,0,1,,,,,,,,,0,,,66,0
152670,note_on,240,0,1,,,,,,,,,0,,,70,0
152880,note_on,210,0,3,,,,,,,,,2,,,42,0
152880,note_on,0,0,1,,,,,,,,,0,,,73,114
152880,note_on,0,0,1,,,,,,,,,0,,,66,114
152880,note_on,0,0,1,,,,,,,,,0,,,61,0
152880,note_on,0,0,3,,,,,,,,,2,,,46,101
152880,note_on,0,0,1,,,,,,,,,0,,,66,0
152880,note_on,210,0,1,,,,,,,,,0,,,70,0
152884,note_on,4,0,3,,,,,,,,,2,,,46,0
152884,note_on,4,0,1,,,,,,,,,0,,,73,0
152884,note_on,0,0,1,,,,,,,,,0,,,66,0
152910,note_on,26,0,3,,,,,,,,,2,,,47,101
152910,note_on,26,0,1,,,,,,,,,0,,,66,114
152910,note_on,0,0,1,,,,,,,,,0,,,75,114
152919,note_on,0,0,1,,,,,,,,,0,,,66,0
152919,note_on,9,0,3,,,,,,,,,2,,,47,0
152919,note_on,9,0,1,,,,,,,,,0,,,75,0
153000,note_on,0,0,1,,,,,,,,,0,,,73,114
153000,note_on,81,0,3,,,,,,,,,2,,,46,101
153000,note_on,81,0,1,,,,,,,,,0,,,66,114
153004,note_on,4,0,3,,,,,,,,,2,,,46,0
153004,note_on,0,0,1,,,,,,,,,0,,,66,0
153004,note_on,4,0,1,,,,,,,,,0,,,73,0
153030,note_on,0,0,1,,,,,,,,,0,,,75,114
153030,note_on,26,0,1,,,,,,,,,0,,,66,114
153030,note_on,26,0,3,,,,,,,,,2,,,47,101
153039,note_on,0,0,1,,,,,,,,,0,,,66,0
153039,note_on,9,0,3,,,,,,,,,2,,,47,0
153039,note_on,9,0,1,,,,,,,,,0,,,75,0
153120,note_on,81,0,3,,,,,,,,,2,,,46,101
153120,note_on,0,0,1,,,,,,,,,0,,,73,114
153120,note_on,81,0,1,,,,,,,,,0,,,66,114
153124,note_on,4,0,3,,,,,,,,,2,,,46,0
153124,note_on,4,0,1,,,,,,,,,0,,,73,0
153124,note_on,0,0,1,,,,,,,,,0,,,66,0
153150,note_on,26,0,3,,,,,,,,,2,,,44,101
153150,note_on,26,0,1,,,,,,,,,0,,,65,114
153150,note_on,0,0,1,,,,,,,,,0,,,71,114
153150,note_on,0,0,1,,,,,,,,,0,,,77,114
153150,note_on,0,0,3,,,,,,,,,2,,,49,101
153390,note_on,0,0,1,,,,,,,,,0,,,65,0
153390,note_on,0,0,1,,,,,,,,,0,,,71,114
153390,note_on,0,0,1,,,,,,,,,0,,,65,114
153390,note_on,0,0,1,,,,,,,,,0,,,71,0
153390,note_on,240,0,1,,,,,,,,,0,,,77,0
153390,note_on,0,0,3,,,,,,,,,2,,,49,101
153390,note_on,0,0,3,,,,,,,,,2,,,44,101
153390,note_on,0,0,3,,,,,,,,,2,,,44,0
153390,note_on,240,0,3,,,,,,,,,2,,,49,0
153390,note_on,0,0,1,,,,,,,,,0,,,77,114
153600,note_on,210,0,1,,,,,,,,,0,,,77,0
153600,note_on,0,0,1,,,,,,,,,0,,,71,0
153600,note_on,0,0,1,,,,,,,,,0,,,65,0
153600,note_on,0,0,1,,,,,,,,,0,,,65,114
153600,note_on,0,0,1,,,,,,,,,0,,,73,114
153600,note_on,0,0,1,,,,,,,,,0,,,77,114
153600,note_on,0,0,3,,,,,,,,,2,,,44,0
153600,note_on,0,0,3,,,,,,,,,2,,,49,101
153600,note_on,0,0,3,,,,,,,,,2,,,44,101
153600,note_on,210,0,3,,,,,,,,,2,,,49,0
153604,note_on,4,0,1,,,,,,,,,0,,,77,0
153604,note_on,4,0,3,,,,,,,,,2,,,49,0
153604,note_on,0,0,3,,,,,,,,,2,,,44,0
153604,note_on,0,0,1,,,,,,,,,0,,,65,0
153604,note_on,0,0,1,,,,,,,,,0,,,73,0
153630,note_on,0,0,1,,,,,,,,,0,,,77,114
153630,note_on,26,0,1,,,,,,,,,0,,,65,114
153630,note_on,0,0,1,,,,,,,,,0,,,73,114
153630,note_on,0,0,3,,,,,,,,,2,,,49,101
153630,note_on,26,0,3,,,,,,,,,2,,,46,101
153639,note_on,0,0,3,,,,,,,,,2,,,46,0
153639,note_on,9,0,1,,,,,,,,,0,,,77,0
153639,note_on,0,0,1,,,,,,,,,0,,,73,0
153639,note_on,0,0,1,,,,,,,,,0,,,65,0
153639,note_on,9,0,3,,,,,,,,,2,,,49,0
153720,note_on,81,0,3,,,,,,,,,2,,,44,101
153720,note_on,81,0,1,,,,,,,,,0,,,65,114
153720,note_on,0,0,1,,,,,,,,,0,,,73,114
153720,note_on,0,0,1,,,,,,,,,0,,,77,114
153720,note_on,0,0,3,,,,,,,,,2,,,49,101
153724,note_on,0,0,1,,,,,,,,,0,,,65,0
153724,note_on,0,0,3,,,,,,,,,2,,,44,0
153724,note_on,4,0,3,,,,,,,,,2,,,49,0
153724,note_on,0,0,1,,,,,,,,,0,,,73,0
153724,note_on,4,0,1,,,,,,,,,0,,,77,0
153750,note_on,26,0,1,,,,,,,,,0,,,65,114
153750,note_on,0,0,1,,,,,,,,,0,,,73,114
153750,note_on,0,0,1,,,,,,,,,0,,,77,114
153750,note_on,0,0,3,,,,,,,,,2,,,49,101
153750,note_on,26,0,3,,,,,,,,,2,,,46,101
153759,note_on,9,0,1,,,,,,,,,0,,,77,0
153759,note_on,0,0,1,,,,,,,,,0,,,65,0
153759,note_on,0,0,1,,,,,,,,,0,,,73,0
153759,note_on,9,0,3,,,,,,,,,2,,,49,0
153759,note_on,0,0,3,,,,,,,,,2,,,46,0
153840,note_on,81,0,3,,,,,,,,,2,,,44,101
153840,note_on,0,0,3,,,,,,,,,2,,,49,101
153840,note_on,81,0,1,,,,,,,,,0,,,65,114
153840,note_on,0,0,1,,,,,,,,,0,,,73,114
153840,note_on,0,0,1,,,,,,,,,0,,,77,114
153844,note_on,0,0,3,,,,,,,,,2,,,44,0
153844,note_on,4,0,3,,,,,,,,,2,,,49,0
153844,note_on,0,0,1,,,,,,,,,0,,,65,0
153844,note_on,0,0,1,,,,,,,,,0,,,73,0
153844,note_on,4,0,1,,,,,,,,,0,,,77,0
153870,note_on,0,0,1,,,,,,,,,0,,,78,114
153870,note_on,26,0,1,,,,,,,,,0,,,66,114
153870,note_on,26,0,3,,,,,,,,,2,,,42,101
153870,note_on,0,0,1,,,,,,,,,0,,,70,114
153870,note_on,0,0,3,,,,,,,,,2,,,49,101
154110,note_on,240,0,1,,,,,,,,,0,,,78,0
154110,note_on,0,0,1,,,,,,,,,0,,,66,0
154110,note_on,0,0,1,,,,,,,,,0,,,66,114
154110,note_on,0,0,1,,,,,,,,,0,,,70,114
154110,note_on,0,0,1,,,,,,,,,0,,,78,114
154110,note_on,0,0,3,,,,,,,,,2,,,49,101
154110,note_on,0,0,3,,,,,,,,,2,,,42,101
154110,note_on,0,0,3,,,,,,,,,2,,,42,0
154110,note_on,240,0,3,,,,,,,,,2,,,49,0
154110,note_on,0,0,1,,,,,,,,,0,,,70,0
154320,note_on,210,0,1,,,,,,,,,0,,,78,0
154320,note_on,0,0,1,,,,,,,,,0,,,70,0
154320,note_on,0,0,1,,,,,,,,,0,,,66,0
154320,note_on,0,0,1,,,,,,,,,0,,,73,49
154320,note_on,0,0,3,,,,,,,,,2,,,57,36
154320,note_on,0,0,3,,,,,,,,,2,,,42,0
154320,note_on,210,0,3,,,,,,,,,2,,,49,0
154320,note_on,0,0,1,,,,,,,,,0,,,67,49
154320,note_on,0,0,1,,,,,,,,,0,,,69,49
154324,note_on,0,0,1,,,,,,,,,0,,,69,0
154324,note_on,0,0,1,,,,,,,,,0,,,67,0
154324,note_on,4,0,1,,,,,,,,,0,,,73,0
154324,note_on,4,0,3,,,,,,,,,2,,,57,0
154350,note_on,26,0,3,,,,,,,,,2,,,57,36
154350,note_on,26,0,1,,,,,,,,,0,,,67,49
154350,note_on,0,0,1,,,,,,,,,0,,,73,49
154350,note_on,0,0,1,,,,,,,,,0,,,69,49
154359,note_on,0,0,1,,,,,,,,,0,,,67,0
154359,note_on,0,0,1,,,,,,,,,0,,,69,0
154359,note_on,9,0,1,,,,,,,,,0,,,73,0
154359,note_on,9,0,3,,,,,,,,,2,,,57,0
154440,note_on,0,0,1,,,,,,,,,0,,,73,49
154440,note_on,81,0,3,,,,,,,,,2,,,57,36
154440,note_on,81,0,1,,,,,,,,,0,,,67,49
154440,note_on,0,0,1,,,,,,,,,0,,,69,49
154444,note_on,0,0,1,,,,,,,,,0,,,67,0
154444,note_on,4,0,3,,,,,,,,,2,,,57,0
154444,note_on,0,0,1,,,,,,,,,0,,,69,0
154444,note_on,4,0,1,,,,,,,,,0,,,73,0
154470,note_on,26,0,3,,,,,,,,,2,,,59,36
154470,note_on,26,0,1,,,,,,,,,0,,,67,49
154470,note_on,0,0,1,,,,,,,,,0,,,69,49
154470,note_on,0,0,1,,,,,,,,,0,,,74,49
154479,note_on,9,0,1,,,,,,,,,0,,,74,0
154479,note_on,0,0,1,,,,,,,,,0,,,69,0
154479,note_on,0,0,1,,,,,,,,,0,,,67,0
154479,note_on,9,0,3,,,,,,,,,2,,,59,0
154560,note_on,0,0,1,,,,,,,,,0,,,76,49
154560,note_on,81,0,3,,,,,,,,,2,,,61,36
154560,note_on,81,0,1,,,,,,,,,0,,,67,49
154560,note_on,0,0,1,,,,,,,,,0,,,69,49
154564,note_on,4,0,3,,,,,,,,,2,,,61,0
154564,note_on,4,0,1,,,,,,,,,0,,,76,0
154564,note_on,0,0,1,,,,,,,,,0,,,69,0
154564,note_on,0,0,1,,,,,,,,,0,,,67,0
154590,note_on,26,0,3,,,,,,,,,2,,,62,62
154590,note_on,0,0,1,,,,,,,,,0,,,69,75
154590,note_on,26,0,1,,,,,,,,,0,,,66,67
154830,note_on,0,0,1,,,,,,,,,0,,,69,70
154830,note_on,0,0,1,,,,,,,,,0,,,78,75
154830,note_on,240,0,1,,,,,,,,,0,,,69,0
154830,note_on,0,0,1,,,,,,,,,0,,,66,65
154830,note_on,0,0,3,,,,,,,,,2,,,62,62
154830,note_on,240,0,3,,,,,,,,,2,,,62,0
154830,note_on,0,0,1,,,,,,,,,0,,,66,0
155040,note_on,210,0,3,,,,,,,,,2,,,62,0
155040,note_on,0,0,3,,,,,,,,,2,,,62,36
155040,note_on,0,0,1,,,,,,,,,0,,,66,0
155040,note_on,0,0,1,,,,,,,,,0,,,69,0
155040,note_on,0,0,1,,,,,,,,,0,,,66,49
155040,note_on,0,0,1,,,,,,,,,0,,,78,49
155040,note_on,210,0,1,,,,,,,,,0,,,78,0
155070,note_on,30,0,1,,,,,,,,,0,,,78,0
155070,note_on,0,0,1,,,,,,,,,0,,,66,0
155070,note_on,0,0,1,,,,,,,,,0,,,66,49
155070,note_on,0,0,1,,,,,,,,,0,,,78,49
155070,note_on,30,0,3,,,,,,,,,2,,,62,0
155070,note_on,0,0,3,,,,,,,,,2,,,62,36
155160,note_on,90,0,3,,,,,,,,,2,,,62,0
155160,note_on,0,0,3,,,,,,,,,2,,,62,36
155160,note_on,0,0,1,,,,,,,,,0,,,66,49
155160,note_on,0,0,1,,,,,,,,,0,,,66,0
155160,note_on,90,0,1,,,,,,,,,0,,,78,0
155160,note_on,0,0,1,,,,,,,,,0,,,78,49
155190,note_on,0,0,3,,,,,,,,,2,,,62,36
155190,note_on,30,0,3,,,,,,,,,2,,,62,0
155190,note_on,0,0,3,,,,,,,,,2,,,59,36
155190,note_on,30,0,1,,,,,,,,,0,,,78,0
155190,note_on,0,0,1,,,,,,,,,0,,,66,0
155190,note_on,0,0,1,,,,,,,,,0,,,68,49
155190,note_on,0,0,1,,,,,,,,,0,,,76,49
155280,note_on,0,0,1,,,,,,,,,0,,,74,49
155280,note_on,0,0,1,,,,,,,,,0,,,68,0
155280,note_on,90,0,3,,,,,,,,,2,,,62,0
155280,note_on,0,0,3,,,,,,,,,2,,,59,0
155280,note_on,0,0,3,,,,,,,,,2,,,59,36
155280,note_on,90,0,1,,,,,,,,,0,,,76,0
155280,note_on,0,0,1,,,,,,,,,0,,,68,49
155280,note_on,0,0,3,,,,,,,,,2,,,62,36
155310,note_on,30,0,3,,,,,,,,,2,,,62,0
155310,note_on,0,0,3,,,,,,,,,2,,,57,54
155310,note_on,0,0,3,,,,,,,,,2,,,64,62
155310,note_on,0,0,1,,,,,,,,,0,,,73,75
155310,note_on,0,0,1,,,,,,,,,0,,,69,67
155310,note_on,0,0,1,,,,,,,,,0,,,68,0
155310,note_on,0,0,3,,,,,,,,,2,,,59,0
155310,note_on,30,0,1,,,,,,,,,0,,,74,0
155550,note_on,0,0,3,,,,,,,,,2,,,61,62
155550,note_on,0,0,3,,,,,,,,,2,,,57,54
155550,note_on,240,0,3,,,,,,,,,2,,,64,0
155550,note_on,0,0,1,,,,,,,,,0,,,76,75
155550,note_on,0,0,1,,,,,,,,,0,,,69,67
155550,note_on,0,0,1,,,,,,,,,0,,,69,0
155550,note_on,240,0,1,,,,,,,,,0,,,73,0
155550,note_on,0,0,3,,,,,,,,,2,,,57,0
155760,note_on,0,0,1,,,,,,,,,0,,,76,49
155760,note_on,0,0,1,,,,,,,,,0,,,70,49
155760,note_on,0,0,1,,,,,,,,,0,,,69,0
155760,note_on,0,0,3,,,,,,,,,2,,,61,36
155760,note_on,0,0,3,,,,,,,,,2,,,54,36
155760,note_on,0,0,3,,,,,,,,,2,,,57,0
155760,note_on,210,0,3,,,,,,,,,2,,,61,0
155760,note_on,210,0,1,,,,,,,,,0,,,76,0
155790,note_on,0,0,1,,,,,,,,,0,,,70,0
155790,note_on,30,0,1,,,,,,,,,0,,,76,0
155790,note_on,0,0,1,,,,,,,,,0,,,70,49
155790,note_on,0,0,1,,,,,,,,,0,,,76,49
155790,note_on,0,0,3,,,,,,,,,2,,,54,0
155790,note_on,0,0,3,,,,,,,,,2,,,54,36
155790,note_on,0,0,3,,,,,,,,,2,,,61,36
155790,note_on,30,0,3,,,,,,,,,2,,,61,0
155880,note_on,0,0,1,,,,,,,,,0,,,70,49
155880,note_on,0,0,1,,,,,,,,,0,,,76,49
155880,note_on,0,0,1,,,,,,,,,0,,,70,0
155880,note_on,90,0,1,,,,,,,,,0,,,76,0
155880,note_on,0,0,3,,,,,,,,,2,,,54,36
155880,note_on,0,0,3,,,,,,,,,2,,,61,36
155880,note_on,90,0,3,,,,,,,,,2,,,61,0
155880,note_on,0,0,3,,,,,,,,,2,,,54,0
155910,note_on,0,0,3,,,,,,,,,2,,,54,0
155910,note_on,0,0,1,,,,,,,,,0,,,74,49
155910,note_on,30,0,3,,,,,,,,,2,,,61,0
155910,note_on,0,0,1,,,,,,,,,0,,,70,49
155910,note_on,0,0,1,,,,,,,,,0,,,70,0
155910,note_on,30,0,1,,,,,,,,,0,,,76,0
155910,note_on,0,0,3,,,,,,,,,2,,,62,36
155910,note_on,0,0,3,,,,,,,,,2,,,54,36
156000,note_on,0,0,3,,,,,,,,,2,,,64,36
156000,note_on,0,0,3,,,,,,,,,2,,,54,36
156000,note_on,0,0,3,,,,,,,,,2,,,54,0
156000,note_on,90,0,3,,,,,,,,,2,,,62,0
156000,note_on,90,0,1,,,,,,,,,0,,,74,0
156000,note_on,0,0,1,,,,,,,,,0,,,73,49
156000,note_on,0,0,1,,,,,,,,,0,,,70,49
156000,note_on,0,0,1,,,,,,,,,0,,,70,0
156030,note_on,0,0,1,,,,,,,,,0,,,71,75
156030,note_on,0,0,1,,,,,,,,,0,,,70,0
156030,note_on,0,0,3,,,,,,,,,2,,,55,54
156030,note_on,0,0,3,,,,,,,,,2,,,54,0
156030,note_on,30,0,3,,,,,,,,,2,,,64,0
156030,note_on,30,0,1,,,,,,,,,0,,,73,0
156030,note_on,0,0,3,,,,,,,,,2,,,62,62
156270,note_on,0,0,1,,,,,,,,,0,,,67,67
156270,note_on,0,0,1,,,,,,,,,0,,,74,75
156270,note_on,240,0,1,,,,,,,,,0,,,71,0
156270,note_on,240,0,3,,,,,,,,,2,,,62,0
156270,note_on,0,0,3,,,,,,,,,2,,,59,62
156270,note_on,0,0,3,,,,,,,,,2,,,55,54
156270,note_on,0,0,3,,,,,,,,,2,,,55,0
156480,note_on,0,0,3,,,,,,,,,2,,,45,36
156480,note_on,0,0,1,,,,,,,,,0,,,71,49
156480,note_on,0,0,1,,,,,,,,,0,,,67,49
156480,note_on,0,0,1,,,,,,,,,0,,,67,0
156480,note_on,210,0,1,,,,,,,,,0,,,74,0
156480,note_on,0,0,1,,,,,,,,,0,,,61,49
156480,note_on,0,0,3,,,,,,,,,2,,,55,0
156480,note_on,210,0,3,,,,,,,,,2,,,59,0
156510,note_on,30,0,3,,,,,,,,,2,,,45,0
156510,note_on,0,0,3,,,,,,,,,2,,,45,36
156510,note_on,30,0,1,,,,,,,,,0,,,71,0
156510,note_on,0,0,1,,,,,,,,,0,,,67,0
156510,note_on,0,0,1,,,,,,,,,0,,,61,0
156510,note_on,0,0,1,,,,,,,,,0,,,61,49
156510,note_on,0,0,1,,,,,,,,,0,,,67,49
156510,note_on,0,0,1,,,,,,,,,0,,,71,49
156600,note_on,0,0,3,,,,,,,,,2,,,45,36
156600,note_on,90,0,3,,,,,,,,,2,,,45,0
156600,note_on,90,0,1,,,,,,,,,0,,,71,0
156600,note_on,0,0,1,,,,,,,,,0,,,67,0
156600,note_on,0,0,1,,,,,,,,,0,,,61,0
156600,note_on,0,0,1,,,,,,,,,0,,,67,49
156600,note_on,0,0,1,,,,,,,,,0,,,71,49
156600,note_on,0,0,1,,,,,,,,,0,,,61,49
156630,note_on,30,0,3,,,,,,,,,2,,,45,0
156630,note_on,0,0,3,,,,,,,,,2,,,45,36
156630,note_on,0,0,1,,,,,,,,,0,,,61,49
156630,note_on,0,0,1,,,,,,,,,0,,,69,49
156630,note_on,0,0,1,,,,,,,,,0,,,61,0
156630,note_on,0,0,1,,,,,,,,,0,,,66,49
156630,note_on,30,0,1,,,,,,,,,0,,,71,0
156630,note_on,0,0,1,,,,,,,,,0,,,67,0
156720,note_on,90,0,1,,,,,,,,,0,,,69,0
156720,note_on,0,0,1,,,,,,,,,0,,,66,0
156720,note_on,0,0,1,,,,,,,,,0,,,61,0
156720,note_on,0,0,1,,,,,,,,,0,,,61,49
156720,note_on,0,0,1,,,,,,,,,0,,,64,49
156720,note_on,0,0,1,,,,,,,,,0,,,67,49
156720,note_on,0,0,3,,,,,,,,,2,,,45,36
156720,note_on,90,0,3,,,,,,,,,2,,,45,0
156750,note_on,30,0,3,,,,,,,,,2,,,45,0
156750,note_on,0,0,1,,,,,,,,,0,,,57,65
156750,note_on,0,0,1,,,,,,,,,0,,,64,70
156750,note_on,0,0,3,,,,,,,,,2,,,50,62
156750,note_on,0,0,1,,,,,,,,,0,,,61,0
156750,note_on,0,0,1,,,,,,,,,0,,,64,0
156750,note_on,30,0,1,,,,,,,,,0,,,67,0
156750,note_on,0,0,1,,,,,,,,,0,,,67,75
156990,note_on,240,0,3,,,,,,,,,2,,,50,0
156990,note_on,0,0,1,,,,,,,,,0,,,57,65
156990,note_on,0,0,1,,,,,,,,,0,,,66,75
156990,note_on,0,0,1,,,,,,,,,0,,,62,70
156990,note_on,0,0,1,,,,,,,,,0,,,57,0
156990,note_on,0,0,1,,,,,,,,,0,,,64,0
156990,note_on,0,0,3,,,,,,,,,2,,,50,62
156990,note_on,240,0,1,,,,,,,,,0,,,67,0
157230,note_on,240,0,1,,,,,,,,,0,,,66,0
157230,note_on,0,0,1,,,,,,,,,0,,,57,0
157230,note_on,0,0,1,,,,,,,,,0,,,62,88
157230,note_on,0,0,1,,,,,,,,,0,,,66,88
157230,note_on,0,0,1,,,,,,,,,0,,,62,0
157230,note_on,240,0,3,,,,,,,,,2,,,50,0
157230,note_on,0,0,1,,,,,,,,,0,,,69,88
157230,note_on,0,0,3,,,,,,,,,2,,,50,88
157242,note_on,0,0,1,,,,,,,,,0,,,66,0
157242,note_on,0,0,1,,,,,,,,,0,,,62,0
157242,note_on,12,0,3,,,,,,,,,2,,,50,0
157242,note_on,12,0,1,,,,,,,,,0,,,69,0
157350,note_on,0,0,1,,,,,,,,,0,,,70,88
157350,note_on,0,0,1,,,,,,,,,0,,,66,88
157350,note_on,108,0,1,,,,,,,,,0,,,62,88
157350,note_on,108,0,3,,,,,,,,,2,,,49,88
157362,note_on,0,0,1,,,,,,,,,0,,,62,0
157362,note_on,0,0,1,,,,,,,,,0,,,66,0
157362,note_on,12,0,1,,,,,,,,,0,,,70,0
157362,note_on,12,0,3,,,,,,,,,2,,,49,0
157470,note_on,0,0,3,,,,,,,,,2,,,47,114
157470,control_change,108,0,3,,,,,,,,,2,64,127,,
157470,note_on,0,0,1,,,,,,,,,0,,,71,101
157470,note_on,0,0,1,,,,,,,,,0,,,67,101
157470,note_on,108,0,1,,,,,,,,,0,,,62,101
157509,note_on,39,0,3,,,,,,,,,2,,,46,114
157510,note_on,1,0,3,,,,,,,,,2,,,47,0
157549,note_on,39,0,3,,,,,,,,,2,,,46,0
157550,note_on,1,0,3,,,,,,,,,2,,,47,114
157590,note_on,40,0,3,,,,,,,,,2,,,47,0
157590,note_on,0,0,3,,,,,,,,,2,,,43,114
157629,note_on,39,0,3,,,,,,,,,2,,,42,114
157630,note_on,1,0,3,,,,,,,,,2,,,43,0
157669,note_on,39,0,3,,,,,,,,,2,,,42,0
157670,note_on,1,0,3,,,,,,,,,2,,,43,114
157710,note_on,0,0,1,,,,,,,,,0,,,71,122
157710,note_on,0,0,1,,,,,,,,,0,,,62,0
157710,note_on,240,0,1,,,,,,,,,0,,,71,0
157710,note_on,0,0,1,,,,,,,,,0,,,76,127
157710,note_on,40,0,3,,,,,,,,,2,,,43,0
157710,note_on,0,0,1,,,,,,,,,0,,,67,0
157710,control_change,0,0,3,,,,,,,,,2,64,0,,
157710,note_on,0,0,3,,,,,,,,,2,,,40,127
157710,note_on,0,0,1,,,,,,,,,0,,,67,117
157830,note_on,0,0,1,,,,,,,,,0,,,79,127
157830,note_on,0,0,1,,,,,,,,,0,,,76,122
157830,note_on,0,0,1,,,,,,,,,0,,,71,117
157830,note_on,0,0,1,,,,,,,,,0,,,67,0
157830,note_on,0,0,1,,,,,,,,,0,,,71,0
157830,note_on,120,0,1,,,,,,,,,0,,,76,0
157830,control_change,0,0,1,,,,,,,,,0,64,127,,
157830,control_change,120,0,3,,,,,,,,,2,64,127,,
157842,note_on,12,0,1,,,,,,,,,0,,,79,0
157842,note_on,0,0,1,,,,,,,,,0,,,71,0
157842,note_on,0,0,1,,,,,,,,,0,,,76,0
157920,note_on,0,0,3,,,,,,,,,2,,,42,114
157920,note_on,90,0,3,,,,,,,,,2,,,40,0
157950,note_on,0,0,1,,,,,,,,,0,,,76,127
157950,note_on,0,0,1,,,,,,,,,0,,,71,122
157950,note_on,108,0,1,,,,,,,,,0,,,67,117
157950,note_on,0,0,3,,,,,,,,,2,,,43,114
157950,note_on,30,0,3,,,,,,,,,2,,,42,0
157962,note_on,0,0,1,,,,,,,,,0,,,67,0
157962,note_on,0,0,1,,,,,,,,,0,,,71,0
157962,note_on,12,0,1,,,,,,,,,0,,,76,0
158040,note_on,90,0,3,,,,,,,,,2,,,43,0
158040,note_on,0,0,3,,,,,,,,,2,,,45,114
158070,note_on,0,0,3,,,,,,,,,2,,,47,114
158070,control_change,108,0,1,,,,,,,,,0,64,0,,
158070,note_on,30,0,3,,,,,,,,,2,,,45,0
158070,note_on,0,0,1,,,,,,,,,0,,,61,119
158070,note_on,0,0,1,,,,,,,,,0,,,64,127
158082,note_on,12,0,1,,,,,,,,,0,,,64,0
158082,note_on,0,0,1,,,,,,,,,0,,,61,0
158160,note_on,0,0,3,,,,,,,,,2,,,49,114
158160,control_change,0,0,3,,,,,,,,,2,64,0,,
158160,note_on,90,0,3,,,,,,,,,2,,,47,0
158190,control_change,0,0,3,,,,,,,,,2,64,127,,
158190,note_on,0,0,1,,,,,,,,,0,,,69,101
158190,note_on,30,0,3,,,,,,,,,2,,,49,0
158190,note_on,0,0,3,,,,,,,,,2,,,49,114
158190,note_on,108,0,1,,,,,,,,,0,,,64,101
158190,note_on,0,0,1,,,,,,,,,0,,,73,101
158229,note_on,39,0,3,,,,,,,,,2,,,48,114
158230,note_on,1,0,3,,,,,,,,,2,,,49,0
158269,note_on,39,0,3,,,,,,,,,2,,,48,0
158270,note_on,1,0,3,,,,,,,,,2,,,49,114
158310,note_on,40,0,3,,,,,,,,,2,,,49,0
158310,note_on,0,0,3,,,,,,,,,2,,,45,114
158349,note_on,39,0,3,,,,,,,,,2,,,44,114
158350,note_on,1,0,3,,,,,,,,,2,,,45,0
158389,note_on,39,0,3,,,,,,,,,2,,,44,0
158390,note_on,1,0,3,,,,,,,,,2,,,45,114
158430,note_on,0,0,1,,,,,,,,,0,,,69,0
158430,control_change,0,0,3,,,,,,,,,2,64,0,,
158430,note_on,0,0,3,,,,,,,,,2,,,42,114
158430,note_on,0,0,1,,,,,,,,,0,,,78,101
158430,note_on,0,0,1,,,,,,,,,0,,,73,101
158430,note_on,0,0,1,,,,,,,,,0,,,69,101
158430,note_on,0,0,1,,,,,,,,,0,,,64,0
158430,note_on,240,0,1,,,,,,,,,0,,,73,0
158430,note_on,40,0,3,,,,,,,,,2,,,45,0
158550,control_change,0,0,1,,,,,,,,,0,64,127,,
158550,note_on,0,0,1,,,,,,,,,0,,,73,0
158550,note_on,0,0,1,,,,,,,,,0,,,69,0
158550,note_on,0,0,1,,,,,,,,,0,,,73,101
158550,note_on,0,0,1,,,,,,,,,0,,,78,101
158550,note_on,0,0,1,,,,,,,,,0,,,81,101
158550,control_change,120,0,3,,,,,,,,,2,64,127,,
158550,note_on,120,0,1,,,,,,,,,0,,,78,0
158562,note_on,12,0,1,,,,,,,,,0,,,81,0
158562,note_on,0,0,1,,,,,,,,,0,,,78,0
158562,note_on,0,0,1,,,,,,,,,0,,,73,0
158640,note_on,90,0,3,,,,,,,,,2,,,42,0
158640,note_on,0,0,3,,,,,,,,,2,,,44,114
158670,note_on,30,0,3,,,,,,,,,2,,,44,0
158670,note_on,0,0,3,,,,,,,,,2,,,45,114
158670,note_on,0,0,1,,,,,,,,,0,,,73,101
158670,note_on,108,0,1,,,,,,,,,0,,,69,101
158670,note_on,0,0,1,,,,,,,,,0,,,78,101
158682,note_on,12,0,1,,,,,,,,,0,,,78,0
158682,note_on,0,0,1,,,,,,,,,0,,,73,0
158682,note_on,0,0,1,,,,,,,,,0,,,69,0
158760,note_on,90,0,3,,,,,,,,,2,,,45,0
158760,note_on,0,0,3,,,,,,,,,2,,,47,114
158790,note_on,0,0,3,,,,,,,,,2,,,49,114
158790,note_on,0,0,1,,,,,,,,,0,,,69,101
158790,note_on,108,0,1,,,,,,,,,0,,,66,101
158790,note_on,30,0,3,,,,,,,,,2,,,47,0
158802,note_on,12,0,1,,,,,,,,,0,,,69,0
158802,note_on,0,0,1,,,,,,,,,0,,,66,0
158880,note_on,0,0,3,,,,,,,,,2,,,52,114
158880,control_change,0,0,3,,,,,,,,,2,64,0,,
158880,note_on,90,0,3,,,,,,,,,2,,,49,0
158910,note_on,0,0,1,,,,,,,,,0,,,71,101
158910,note_on,108,0,1,,,,,,,,,0,,,66,101
158910,note_on,0,0,3,,,,,,,,,2,,,50,114
158910,control_change,0,0,3,,,,,,,,,2,64,127,,
158910,note_on,30,0,3,,,,,,,,,2,,,52,0
158910,note_on,0,0,1,,,,,,,,,0,,,74,101
158949,note_on,39,0,3,,,,,,,,,2,,,49,114
158950,note_on,1,0,3,,,,,,,,,2,,,50,0
158989,note_on,39,0,3,,,,,,,,,2,,,49,0
158990,note_on,1,0,3,,,,,,,,,2,,,50,114
159030,note_on,0,0,3,,,,,,,,,2,,,47,114
159030,note_on,40,0,3,,,,,,,,,2,,,50,0
159069,note_on,39,0,3,,,,,,,,,2,,,46,114
159070,note_on,1,0,3,,,,,,,,,2,,,47,0
159109,note_on,39,0,3,,,,,,,,,2,,,46,0
159110,note_on,1,0,3,,,,,,,,,2,,,47,114
159150,note_on,0,0,1,,,,,,,,,0,,,71,0
159150,note_on,0,0,1,,,,,,,,,0,,,71,101
159150,note_on,0,0,1,,,,,,,,,0,,,66,0
159150,note_on,0,0,1,,,,,,,,,0,,,74,101
159150,note_on,0,0,1,,,,,,,,,0,,,79,101
159150,control_change,0,0,3,,,,,,,,,2,64,0,,
159150,note_on,40,0,3,,,,,,,,,2,,,47,0
159150,note_on,240,0,1,,,,,,,,,0,,,74,0
159150,note_on,0,0,3,,,,,,,,,2,,,43,114
159270,note_on,0,0,1,,,,,,,,,0,,,83,101
159270,note_on,0,0,1,,,,,,,,,0,,,79,101
159270,note_on,0,0,1,,,,,,,,,0,,,74,101
159270,note_on,0,0,1,,,,,,,,,0,,,71,0
159270,note_on,120,0,1,,,,,,,,,0,,,79,0
159270,control_change,0,0,1,,,,,,,,,0,64,127,,
159270,note_on,0,0,1,,,,,,,,,0,,,74,0
159270,control_change,120,0,3,,,,,,,,,2,64,127,,
159282,note_on,0,0,1,,,,,,,,,0,,,74,0
159282,note_on,12,0,1,,,,,,,,,0,,,83,0
159282,note_on,0,0,1,,,,,,,,,0,,,79,0
159360,note_on,0,0,3,,,,,,,,,2,,,45,114
159360,note_on,90,0,3,,,,,,,,,2,,,43,0
159390,note_on,108,0,1,,,,,,,,,0,,,71,101
159390,note_on,0,0,3,,,,,,,,,2,,,47,114
159390,note_on,30,0,3,,,,,,,,,2,,,45,0
159390,note_on,0,0,1,,,,,,,,,0,,,74,101
159390,note_on,0,0,1,,,,,,,,,0,,,79,101
159402,note_on,12,0,1,,,,,,,,,0,,,79,0
159402,note_on,0,0,1,,,,,,,,,0,,,74,0
159402,note_on,0,0,1,,,,,,,,,0,,,71,0
159480,note_on,90,0,3,,,,,,,,,2,,,47,0
159480,note_on,0,0,3,,,,,,,,,2,,,49,114
159510,note_on,30,0,3,,,,,,,,,2,,,49,0
159510,note_on,0,0,1,,,,,,,,,0,,,71,101
159510,note_on,0,0,1,,,,,,,,,0,,,67,101
159510,control_change,108,0,1,,,,,,,,,0,64,0,,
159510,note_on,0,0,3,,,,,,,,,2,,,50,114
159522,note_on,12,0,1,,,,,,,,,0,,,71,0
159522,note_on,0,0,1,,,,,,,,,0,,,67,0
159600,control_change,0,0,3,,,,,,,,,2,64,0,,
159600,note_on,0,0,3,,,,,,,,,2,,,54,114
159600,note_on,90,0,3,,,,,,,,,2,,,50,0
159630,note_on,0,0,1,,,,,,,,,0,,,81,101
159630,note_on,0,0,1,,,,,,,,,0,,,79,101
159630,note_on,0,0,3,,,,,,,,,2,,,52,88
159630,note_on,30,0,3,,,,,,,,,2,,,54,0
159630,note_on,0,0,1,,,,,,,,,0,,,73,101
159630,note_on,108,0,1,,,,,,,,,0,,,69,101
159870,note_on,0,0,3,,,,,,,,,2,,,52,101
159870,note_on,0,0,3,,,,,,,,,2,,,57,101
159870,note_on,240,0,1,,,,,,,,,0,,,81,0
159870,note_on,0,0,1,,,,,,,,,0,,,69,0
159870,note_on,0,0,1,,,,,,,,,0,,,73,0
159870,note_on,0,0,1,,,,,,,,,0,,,79,0
159870,note_on,0,0,1,,,,,,,,,0,,,69,114
159870,note_on,0,0,1,,,,,,,,,0,,,73,114
159870,note_on,0,0,1,,,,,,,,,0,,,79,114
159870,note_on,0,0,1,,,,,,,,,0,,,81,114
159870,note_on,240,0,3,,,,,,,,,2,,,52,0
160080,note_on,0,0,1,,,,,,,,,0,,,79,114
160080,note_on,210,0,3,,,,,,,,,2,,,57,0
160080,note_on,0,0,3,,,,,,,,,2,,,52,0
160080,note_on,0,0,3,,,,,,,,,2,,,45,101
160080,note_on,0,0,3,,,,,,,,,2,,,57,101
160080,note_on,0,0,1,,,,,,,,,0,,,69,0
160080,note_on,0,0,1,,,,,,,,,0,,,73,0
160080,note_on,0,0,1,,,,,,,,,0,,,79,0
160080,note_on,0,0,1,,,,,,,,,0,,,73,114
160080,note_on,0,0,1,,,,,,,,,0,,,81,114
160080,note_on,210,0,1,,,,,,,,,0,,,81,0
160084,note_on,0,0,1,,,,,,,,,0,,,79,0
160084,note_on,4,0,3,,,,,,,,,2,,,57,0
160084,note_on,0,0,3,,,,,,,,,2,,,45,0
160084,note_on,0,0,1,,,,,,,,,0,,,73,0
160084,note_on,4,0,1,,,,,,,,,0,,,81,0
160110,note_on,26,0,3,,,,,,,,,2,,,45,101
160110,note_on,0,0,3,,,,,,,,,2,,,57,101
160110,note_on,0,0,1,,,,,,,,,0,,,81,114
160110,note_on,0,0,1,,,,,,,,,0,,,79,114
160110,note_on,26,0,1,,,,,,,,,0,,,73,114
160119,note_on,9,0,3,,,,,,,,,2,,,57,0
160119,note_on,0,0,1,,,,,,,,,0,,,73,0
160119,note_on,0,0,1,,,,,,,,,0,,,79,0
160119,note_on,9,0,1,,,,,,,,,0,,,81,0
160119,note_on,0,0,3,,,,,,,,,2,,,45,0
160200,note_on,0,0,3,,,,,,,,,2,,,55,101
160200,note_on,81,0,3,,,,,,,,,2,,,43,101
160200,note_on,0,0,1,,,,,,,,,0,,,81,114
160200,note_on,0,0,1,,,,,,,,,0,,,79,114
160200,note_on,81,0,1,,,,,,,,,0,,,73,114
160204,note_on,4,0,1,,,,,,,,,0,,,81,0
160204,note_on,0,0,1,,,,,,,,,0,,,79,0
160204,note_on,4,0,3,,,,,,,,,2,,,55,0
160204,note_on,0,0,3,,,,,,,,,2,,,43,0
160204,note_on,0,0,1,,,,,,,,,0,,,73,0
160230,note_on,0,0,1,,,,,,,,,0,,,79,114
160230,note_on,26,0,3,,,,,,,,,2,,,42,101
160230,note_on,0,0,3,,,,,,,,,2,,,54,101
160230,note_on,0,0,1,,,,,,,,,0,,,83,114
160230,note_on,26,0,1,,,,,,,,,0,,,73,114
160239,note_on,0,0,1,,,,,,,,,0,,,79,0
160239,note_on,0,0,3,,,,,,,,,2,,,42,0
160239,note_on,9,0,3,,,,,,,,,2,,,54,0
160239,note_on,0,0,1,,,,,,,,,0,,,73,0
160239,note_on,9,0,1,,,,,,,,,0,,,83,0
160320,note_on,0,0,1,,,,,,,,,0,,,79,114
160320,note_on,0,0,3,,,,,,,,,2,,,52,101
160320,note_on,81,0,3,,,,,,,,,2,,,40,101
160320,note_on,81,0,1,,,,,,,,,0,,,73,114
160320,note_on,0,0,1,,,,,,,,,0,,,85,114
160324,note_on,0,0,1,,,,,,,,,0,,,73,0
160324,note_on,0,0,3,,,,,,,,,2,,,40,0
160324,note_on,4,0,1,,,,,,,,,0,,,85,0
160324,note_on,0,0,1,,,,,,,,,0,,,79,0
160324,note_on,4,0,3,,,,,,,,,2,,,52,0
160350,note_on,26,0,1,,,,,,,,,0,,,74,114
160350,note_on,0,0,1,,,,,,,,,0,,,78,114
160350,note_on,0,0,1,,,,,,,,,0,,,86,114
160350,note_on,26,0,3,,,,,,,,,2,,,38,101
160350,note_on,0,0,3,,,,,,,,,2,,,45,101
160350,note_on,0,0,3,,,,,,,,,2,,,50,101
160590,note_on,240,0,3,,,,,,,,,2,,,50,0
160590,note_on,0,0,3,,,,,,,,,2,,,45,0
160590,note_on,0,0,3,,,,,,,,,2,,,38,0
160590,note_on,0,0,3,,,,,,,,,2,,,38,101
160590,note_on,0,0,3,,,,,,,,,2,,,45,101
160590,note_on,0,0,3,,,,,,,,,2,,,50,101
160590,note_on,240,0,1,,,,,,,,,0,,,86,0
160590,note_on,0,0,1,,,,,,,,,0,,,78,0
160590,note_on,0,0,1,,,,,,,,,0,,,74,0
160590,note_on,0,0,1,,,,,,,,,0,,,74,114
160590,note_on,0,0,1,,,,,,,,,0,,,78,114
160590,note_on,0,0,1,,,,,,,,,0,,,86,114
160710,time_signature,16200,1,0,4,4,24,8,,,,,,,,,
160800,note_on,210,0,3,,,,,,,,,2,,,50,0
160800,note_on,0,0,1,,,,,,,,,0,,,78,0
160800,note_on,0,0,1,,,,,,,,,0,,,74,0
160800,note_on,0,0,3,,,,,,,,,2,,,45,0
160800,note_on,210,0,1,,,,,,,,,0,,,86,0
160800,note_on,0,0,3,,,,,,,,,2,,,38,0
160920,note_on,120,0,1,,,,,,,,,0,,,78,36
160920,note_on,0,0,1,,,,,,,,,0,,,81,36
160924,note_on,4,0,1,,,,,,,,,0,,,81,0
160924,note_on,0,0,1,,,,,,,,,0,,,78,0
160950,note_on,26,0,1,,,,,,,,,0,,,78,36
160950,note_on,0,0,1,,,,,,,,,0,,,81,36
160959,note_on,9,0,1,,,,,,,,,0,,,81,0
160959,note_on,0,0,1,,,,,,,,,0,,,78,0
161040,note_on,81,0,1,,,,,,,,,0,,,78,36
161040,note_on,0,0,1,,,,,,,,,0,,,81,36
161044,note_on,4,0,1,,,,,,,,,0,,,81,0
161044,note_on,0,0,1,,,,,,,,,0,,,78,0
161070,note_on,0,0,1,,,,,,,,,0,,,80,36
161070,note_on,26,0,1,,,,,,,,,0,,,77,36
161079,note_on,9,0,1,,,,,,,,,0,,,80,0
161079,note_on,0,0,1,,,,,,,,,0,,,77,0
161160,note_on,81,0,1,,,,,,,,,0,,,78,36
161160,note_on,0,0,1,,,,,,,,,0,,,81,36
161164,note_on,4,0,1,,,,,,,,,0,,,81,0
161164,note_on,0,0,1,,,,,,,,,0,,,78,0
161190,control_change,390,0,3,,,,,,,,,2,64,127,,
161190,note_on,0,0,3,,,,,,,,,2,,,50,36
161190,note_on,0,0,1,,,,,,,,,0,,,78,62
161190,note_on,26,0,1,,,,,,,,,0,,,74,54
161190,time_signature,480,1,0,3,4,24,8,,,,,,,,,
161202,note_on,12,0,3,,,,,,,,,2,,,50,0
161310,note_on,108,0,3,,,,,,,,,2,,,57,62
161322,note_on,12,0,3,,,,,,,,,2,,,57,0
161430,note_on,0,0,3,,,,,,,,,2,,,62,36
161430,note_on,0,0,3,,,,,,,,,2,,,66,36
161430,control_change,108,0,3,,,,,,,,,2,64,0,,
161430,note_on,240,0,1,,,,,,,,,0,,,78,0
161430,note_on,0,0,1,,,,,,,,,0,,,74,0
161430,note_on,0,0,1,,,,,,,,,0,,,78,62
161430,note_on,0,0,1,,,,,,,,,0,,,74,54
161442,note_on,12,0,3,,,,,,,,,2,,,66,0
161442,note_on,0,0,3,,,,,,,,,2,,,62,0
161550,control_change,120,0,1,,,,,,,,,0,64,127,,
161550,control_change,108,0,3,,,,,,,,,2,64,127,,
161550,note_on,0,0,3,,,,,,,,,2,,,50,36
161562,note_on,12,0,3,,,,,,,,,2,,,50,0
161640,note_on,0,0,1,,,,,,,,,0,,,78,36
161640,note_on,0,0,1,,,,,,,,,0,,,74,36
161640,note_on,0,0,1,,,,,,,,,0,,,74,0
161640,note_on,90,0,1,,,,,,,,,0,,,78,0
161644,note_on,0,0,1,,,,,,,,,0,,,74,0
161644,note_on,4,0,1,,,,,,,,,0,,,78,0
161670,note_on,26,0,1,,,,,,,,,0,,,74,36
161670,note_on,0,0,1,,,,,,,,,0,,,78,36
161670,note_on,108,0,3,,,,,,,,,2,,,57,62
161679,note_on,9,0,1,,,,,,,,,0,,,78,0
161679,note_on,0,0,1,,,,,,,,,0,,,74,0
161682,note_on,12,0,3,,,,,,,,,2,,,57,0
161760,note_on,81,0,1,,,,,,,,,0,,,74,36
161760,note_on,0,0,1,,,,,,,,,0,,,78,36
161764,note_on,4,0,1,,,,,,,,,0,,,78,0
161764,note_on,0,0,1,,,,,,,,,0,,,74,0
161790,note_on,0,0,3,,,,,,,,,2,,,62,36
161790,control_change,108,0,3,,,,,,,,,2,64,0,,
161790,note_on,0,0,1,,,,,,,,,0,,,77,36
161790,note_on,26,0,1,,,,,,,,,0,,,73,36
161790,note_on,0,0,3,,,,,,,,,2,,,66,36
161799,note_on,0,0,1,,,,,,,,,0,,,73,0
161799,note_on,9,0,1,,,,,,,,,0,,,77,0
161802,note_on,0,0,3,,,,,,,,,2,,,62,0
161802,note_on,12,0,3,,,,,,,,,2,,,66,0
161880,note_on,0,0,1,,,,,,,,,0,,,78,36
161880,note_on,0,0,1,,,,,,,,,0,,,74,36
161880,control_change,81,0,1,,,,,,,,,0,64,0,,
161884,note_on,0,0,1,,,,,,,,,0,,,74,0
161884,note_on,4,0,1,,,,,,,,,0,,,78,0
161910,control_change,108,0,3,,,,,,,,,2,64,127,,
161910,note_on,0,0,3,,,,,,,,,2,,,49,36
161910,note_on,0,0,1,,,,,,,,,0,,,81,62
161910,note_on,26,0,1,,,,,,,,,0,,,78,54
161922,note_on,12,0,3,,,,,,,,,2,,,49,0
162030,note_on,108,0,3,,,,,,,,,2,,,57,62
162042,note_on,12,0,3,,,,,,,,,2,,,57,0
162150,note_on,0,0,1,,,,,,,,,0,,,76,54
162150,note_on,0,0,1,,,,,,,,,0,,,78,0
162150,note_on,240,0,1,,,,,,,,,0,,,81,0
162150,note_on,0,0,1,,,,,,,,,0,,,79,62
162150,note_on,0,0,3,,,,,,,,,2,,,67,36
162150,note_on,0,0,3,,,,,,,,,2,,,64,36
162150,control_change,108,0,3,,,,,,,,,2,64,0,,
162162,note_on,12,0,3,,,,,,,,,2,,,67,0
162162,note_on,0,0,3,,,,,,,,,2,,,64,0
162270,control_change,108,0,3,,,,,,,,,2,64,127,,
162270,note_on,0,0,3,,,,,,,,,2,,,49,36
162270,control_change,120,0,1,,,,,,,,,0,64,127,,
162282,note_on,12,0,3,,,,,,,,,2,,,49,0
162360,note_on,90,0,1,,,,,,,,,0,,,79,0
162360,note_on,0,0,1,,,,,,,,,0,,,76,0
162360,note_on,0,0,1,,,,,,,,,0,,,76,36
162360,note_on,0,0,1,,,,,,,,,0,,,79,36
162360,note_on,0,0,1,,,,,,,,,0,,,81,36
162364,note_on,4,0,1,,,,,,,,,0,,,81,0
162364,note_on,0,0,1,,,,,,,,,0,,,76,0
162364,note_on,0,0,1,,,,,,,,,0,,,79,0
162390,note_on,0,0,1,,,,,,,,,0,,,81,36
162390,note_on,108,0,3,,,,,,,,,2,,,57,62
162390,note_on,0,0,1,,,,,,,,,0,,,79,36
162390,note_on,26,0,1,,,,,,,,,0,,,76,36
162399,note_on,9,0,1,,,,,,,,,0,,,81,0
162399,note_on,0,0,1,,,,,,,,,0,,,79,0
162399,note_on,0,0,1,,,,,,,,,0,,,76,0
162402,note_on,12,0,3,,,,,,,,,2,,,57,0
162480,note_on,81,0,1,,,,,,,,,0,,,76,36
162480,note_on,0,0,1,,,,,,,,,0,,,79,36
162480,note_on,0,0,1,,,,,,,,,0,,,81,36
162484,note_on,4,0,1,,,,,,,,,0,,,81,0
162484,note_on,0,0,1,,,,,,,,,0,,,79,0
162484,note_on,0,0,1,,,,,,,,,0,,,76,0
162510,note_on,0,0,3,,,,,,,,,2,,,64,36
162510,note_on,0,0,1,,,,,,,,,0,,,78,36
162510,note_on,0,0,1,,,,,,,,,0,,,81,36
162510,note_on,26,0,1,,,,,,,,,0,,,75,36
162510,control_change,108,0,3,,,,,,,,,2,64,0,,
162510,note_on,0,0,3,,,,,,,,,2,,,67,36
162519,note_on,0,0,1,,,,,,,,,0,,,75,0
162519,note_on,9,0,1,,,,,,,,,0,,,81,0
162519,note_on,0,0,1,,,,,,,,,0,,,78,0
162522,note_on,0,0,3,,,,,,,,,2,,,64,0
162522,note_on,12,0,3,,,,,,,,,2,,,67,0
162600,control_change,81,0,1,,,,,,,,,0,64,0,,
162600,note_on,0,0,1,,,,,,,,,0,,,76,36
162600,note_on,0,0,1,,,,,,,,,0,,,79,36
162600,note_on,0,0,1,,,,,,,,,0,,,81,36
162604,note_on,4,0,1,,,,,,,,,0,,,81,0
162604,note_on,0,0,1,,,,,,,,,0,,,79,0
162604,note_on,0,0,1,,,,,,,,,0,,,76,0
162630,note_on,0,0,3,,,,,,,,,2,,,45,36
162630,control_change,108,0,3,,,,,,,,,2,64,127,,
162630,note_on,0,0,1,,,,,,,,,0,,,76,57
162630,note_on,0,0,1,,,,,,,,,0,,,81,62
162630,note_on,26,0,1,,,,,,,,,0,,,73,52
162642,note_on,12,0,3,,,,,,,,,2,,,45,0
162750,note_on,108,0,3,,,,,,,,,2,,,57,62
162762,note_on,12,0,3,,,,,,,,,2,,,57,0
162870,note_on,0,0,1,,,,,,,,,0,,,81,62
162870,note_on,0,0,1,,,,,,,,,0,,,76,57
162870,note_on,0,0,1,,,,,,,,,0,,,73,52
162870,note_on,0,0,1,,,,,,,,,0,,,73,0
162870,note_on,0,0,1,,,,,,,,,0,,,76,0
162870,note_on,240,0,1,,,,,,,,,0,,,81,0
162870,control_change,108,0,3,,,,,,,,,2,64,0,,
162870,note_on,0,0,3,,,,,,,,,2,,,64,36
162870,note_on,0,0,3,,,,,,,,,2,,,67,36
162882,note_on,12,0,3,,,,,,,,,2,,,67,0
162882,note_on,0,0,3,,,,,,,,,2,,,64,0
162990,control_change,108,0,3,,,,,,,,,2,64,127,,
162990,control_change,120,0,1,,,,,,,,,0,64,127,,
162990,note_on,0,0,3,,,,,,,,,2,,,45,36
163002,note_on,12,0,3,,,,,,,,,2,,,45,0
163080,note_on,0,0,1,,,,,,,,,0,,,76,36
163080,note_on,90,0,1,,,,,,,,,0,,,81,0
163080,note_on,0,0,1,,,,,,,,,0,,,73,36
163080,note_on,0,0,1,,,,,,,,,0,,,73,0
163080,note_on,0,0,1,,,,,,,,,0,,,76,0
163080,note_on,0,0,1,,,,,,,,,0,,,81,36
163110,note_on,108,0,3,,,,,,,,,2,,,57,62
163110,note_on,0,0,1,,,,,,,,,0,,,81,36
163110,note_on,0,0,1,,,,,,,,,0,,,76,36
163110,note_on,0,0,1,,,,,,,,,0,,,73,36
163110,note_on,0,0,1,,,,,,,,,0,,,73,0
163110,note_on,0,0,1,,,,,,,,,0,,,76,0
163110,note_on,30,0,1,,,,,,,,,0,,,81,0
163122,note_on,12,0,3,,,,,,,,,2,,,57,0
163200,note_on,0,0,1,,,,,,,,,0,,,73,0
163200,note_on,0,0,1,,,,,,,,,0,,,76,0
163200,note_on,90,0,1,,,,,,,,,0,,,81,0
163200,note_on,0,0,1,,,,,,,,,0,,,73,36
163200,note_on,0,0,1,,,,,,,,,0,,,76,36
163200,note_on,0,0,1,,,,,,,,,0,,,81,36
163230,note_on,0,0,3,,,,,,,,,2,,,67,36
163230,note_on,0,0,3,,,,,,,,,2,,,64,36
163230,note_on,0,0,1,,,,,,,,,0,,,81,36
163230,note_on,0,0,1,,,,,,,,,0,,,74,36
163230,note_on,0,0,1,,,,,,,,,0,,,71,36
163230,note_on,0,0,1,,,,,,,,,0,,,73,0
163230,note_on,0,0,1,,,,,,,,,0,,,76,0
163230,note_on,30,0,1,,,,,,,,,0,,,81,0
163230,control_change,108,0,3,,,,,,,,,2,64,0,,
163242,note_on,12,0,3,,,,,,,,,2,,,67,0
163242,note_on,0,0,3,,,,,,,,,2,,,64,0
163320,note_on,0,0,1,,,,,,,,,0,,,81,36
163320,control_change,0,0,1,,,,,,,,,0,64,0,,
163320,note_on,0,0,1,,,,,,,,,0,,,76,36
163320,note_on,0,0,1,,,,,,,,,0,,,73,36
163320,note_on,0,0,1,,,,,,,,,0,,,71,0
163320,note_on,0,0,1,,,,,,,,,0,,,74,0
163320,note_on,90,0,1,,,,,,,,,0,,,81,0
163350,note_on,0,0,1,,,,,,,,,0,,,81,62
163350,note_on,0,0,1,,,,,,,,,0,,,77,57
163350,note_on,0,0,1,,,,,,,,,0,,,73,0
163350,note_on,0,0,1,,,,,,,,,0,,,76,0
163350,note_on,30,0,1,,,,,,,,,0,,,81,0
163350,note_on,0,0,1,,,,,,,,,0,,,73,52
163350,control_change,108,0,3,,,,,,,,,2,64,127,,
163350,note_on,0,0,3,,,,,,,,,2,,,50,36
163362,note_on,12,0,3,,,,,,,,,2,,,50,0
163470,note_on,108,0,3,,,,,,,,,2,,,57,36
163482,note_on,12,0,3,,,,,,,,,2,,,57,0
163590,note_on,0,0,1,,,,,,,,,0,,,81,36
163590,note_on,0,0,1,,,,,,,,,0,,,74,36
163590,note_on,0,0,1,,,,,,,,,0,,,73,0
163590,note_on,0,0,1,,,,,,,,,0,,,77,0
163590,note_on,240,0,1,,,,,,,,,0,,,81,0
163590,note_on,0,0,1,,,,,,,,,0,,,78,36
163590,note_on,0,0,3,,,,,,,,,2,,,66,36
163590,note_on,0,0,3,,,,,,,,,2,,,62,36
163590,control_change,108,0,3,,,,,,,,,2,64,0,,
163602,note_on,0,0,3,,,,,,,,,2,,,62,0
163602,note_on,12,0,3,,,,,,,,,2,,,66,0
163710,control_change,108,0,3,,,,,,,,,2,64,127,,
163710,note_on,0,0,3,,,,,,,,,2,,,50,36
163710,control_change,120,0,1,,,,,,,,,0,64,127,,
163722,note_on,12,0,3,,,,,,,,,2,,,50,0
163800,note_on,0,0,1,,,,,,,,,0,,,81,36
163800,note_on,0,0,1,,,,,,,,,0,,,78,36
163800,note_on,0,0,1,,,,,,,,,0,,,78,0
163800,note_on,90,0,1,,,,,,,,,0,,,81,0
163800,note_on,0,0,1,,,,,,,,,0,,,74,0
163800,note_on,0,0,1,,,,,,,,,0,,,74,36
163830,note_on,30,0,1,,,,,,,,,0,,,81,0
163830,note_on,0,0,1,,,,,,,,,0,,,78,0
163830,note_on,0,0,1,,,,,,,,,0,,,74,0
163830,note_on,0,0,1,,,,,,,,,0,,,74,36
163830,note_on,0,0,1,,,,,,,,,0,,,78,36
163830,note_on,0,0,1,,,,,,,,,0,,,81,36
163830,note_on,108,0,3,,,,,,,,,2,,,57,36
163842,note_on,12,0,3,,,,,,,,,2,,,57,0
163920,note_on,0,0,1,,,,,,,,,0,,,74,0
163920,note_on,0,0,1,,,,,,,,,0,,,78,0
163920,note_on,90,0,1,,,,,,,,,0,,,81,0
163920,note_on,0,0,1,,,,,,,,,0,,,81,36
163920,note_on,0,0,1,,,,,,,,,0,,,78,36
163920,note_on,0,0,1,,,,,,,,,0,,,74,36
163950,note_on,30,0,1,,,,,,,,,0,,,81,0
163950,note_on,0,0,1,,,,,,,,,0,,,78,0
163950,note_on,0,0,1,,,,,,,,,0,,,74,0
163950,note_on,0,0,1,,,,,,,,,0,,,74,36
163950,note_on,0,0,1,,,,,,,,,0,,,78,36
163950,note_on,0,0,1,,,,,,,,,0,,,80,36
163950,note_on,0,0,3,,,,,,,,,2,,,66,36
163950,note_on,0,0,3,,,,,,,,,2,,,62,36
163950,control_change,108,0,3,,,,,,,,,2,64,0,,
163962,note_on,0,0,3,,,,,,,,,2,,,62,0
163962,note_on,12,0,3,,,,,,,,,2,,,66,0
164040,note_on,0,0,1,,,,,,,,,0,,,81,36
164040,note_on,0,0,1,,,,,,,,,0,,,78,36
164040,note_on,0,0,1,,,,,,,,,0,,,74,36
164040,note_on,0,0,1,,,,,,,,,0,,,74,0
164040,note_on,0,0,1,,,,,,,,,0,,,78,0
164040,note_on,90,0,1,,,,,,,,,0,,,80,0
164040,control_change,0,0,1,,,,,,,,,0,64,0,,
164070,control_change,108,0,3,,,,,,,,,2,64,127,,
164070,note_on,0,0,3,,,,,,,,,2,,,47,36
164070,note_on,0,0,1,,,,,,,,,0,,,78,57
164070,note_on,0,0,1,,,,,,,,,0,,,83,62
164070,note_on,0,0,1,,,,,,,,,0,,,74,52
164070,note_on,0,0,1,,,,,,,,,0,,,78,0
164070,note_on,30,0,1,,,,,,,,,0,,,81,0
164070,note_on,0,0,1,,,,,,,,,0,,,74,0
164190,note_on,120,0,3,,,,,,,,,2,,,47,0
164190,note_on,0,0,3,,,,,,,,,2,,,59,36
164310,note_on,120,0,3,,,,,,,,,2,,,59,0
164310,control_change,0,0,3,,,,,,,,,2,64,0,,
164310,note_on,0,0,3,,,,,,,,,2,,,62,36
164310,note_on,0,0,3,,,,,,,,,2,,,66,36
164310,note_on,240,0,1,,,,,,,,,0,,,83,0
164310,note_on,0,0,1,,,,,,,,,0,,,74,36
164310,note_on,0,0,1,,,,,,,,,0,,,78,0
164310,note_on,0,0,1,,,,,,,,,0,,,78,36
164310,note_on,0,0,1,,,,,,,,,0,,,83,36
164310,note_on,0,0,1,,,,,,,,,0,,,74,0
164430,note_on,120,0,3,,,,,,,,,2,,,66,0
164430,note_on,0,0,3,,,,,,,,,2,,,62,0
164430,control_change,0,0,3,,,,,,,,,2,64,127,,
164430,note_on,0,0,3,,,,,,,,,2,,,47,36
164430,control_change,120,0,1,,,,,,,,,0,64,127,,
164520,note_on,90,0,1,,,,,,,,,0,,,83,0
164520,note_on,0,0,1,,,,,,,,,0,,,74,0
164520,note_on,0,0,1,,,,,,,,,0,,,74,36
164520,note_on,0,0,1,,,,,,,,,0,,,78,36
164520,note_on,0,0,1,,,,,,,,,0,,,83,36
164520,note_on,0,0,1,,,,,,,,,0,,,78,0
164550,note_on,0,0,1,,,,,,,,,0,,,78,0
164550,note_on,0,0,1,,,,,,,,,0,,,74,0
164550,note_on,0,0,1,,,,,,,,,0,,,78,36
164550,note_on,0,0,1,,,,,,,,,0,,,83,36
164550,note_on,0,0,1,,,,,,,,,0,,,74,36
164550,note_on,30,0,1,,,,,,,,,0,,,83,0
164550,note_on,120,0,3,,,,,,,,,2,,,47,0
164550,note_on,0,0,3,,,,,,,,,2,,,59,36
164640,note_on,0,0,1,,,,,,,,,0,,,78,36
164640,note_on,0,0,1,,,,,,,,,0,,,74,36
164640,note_on,0,0,1,,,,,,,,,0,,,74,0
164640,note_on,0,0,1,,,,,,,,,0,,,78,0
164640,note_on,90,0,1,,,,,,,,,0,,,83,0
164640,note_on,0,0,1,,,,,,,,,0,,,86,36
164670,note_on,0,0,1,,,,,,,,,0,,,74,36
164670,note_on,0,0,1,,,,,,,,,0,,,85,36
164670,note_on,0,0,1,,,,,,,,,0,,,78,36
164670,note_on,0,0,1,,,,,,,,,0,,,74,0
164670,note_on,0,0,1,,,,,,,,,0,,,78,0
164670,note_on,30,0,1,,,,,,,,,0,,,86,0
164670,control_change,0,0,3,,,,,,,,,2,64,0,,
164670,note_on,0,0,3,,,,,,,,,2,,,62,36
164670,note_on,120,0,3,,,,,,,,,2,,,59,0
164670,note_on,0,0,3,,,,,,,,,2,,,66,36
164760,control_change,0,0,1,,,,,,,,,0,64,0,,
164760,note_on,0,0,1,,,,,,,,,0,,,74,0
164760,note_on,0,0,1,,,,,,,,,0,,,83,36
164760,note_on,0,0,1,,,,,,,,,0,,,78,36
164760,note_on,90,0,1,,,,,,,,,0,,,85,0
164760,note_on,0,0,1,,,,,,,,,0,,,78,0
164760,note_on,0,0,1,,,,,,,,,0,,,74,36
164790,note_on,30,0,1,,,,,,,,,0,,,83,0
164790,note_on,0,0,1,,,,,,,,,0,,,78,0
164790,note_on,0,0,1,,,,,,,,,0,,,74,0
164790,note_on,0,0,1,,,,,,,,,0,,,74,36
164790,note_on,0,0,1,,,,,,,,,0,,,78,36
164790,note_on,0,0,1,,,,,,,,,0,,,81,36
164790,note_on,120,0,3,,,,,,,,,2,,,66,0
164790,note_on,0,0,3,,,,,,,,,2,,,50,36
164790,control_change,0,0,3,,,,,,,,,2,64,127,,
164790,note_on,0,0,3,,,,,,,,,2,,,62,0
164910,note_on,0,0,3,,,,,,,,,2,,,57,36
164910,note_on,120,0,3,,,,,,,,,2,,,50,0
165030,note_on,0,0,1,,,,,,,,,0,,,78,36
165030,note_on,0,0,1,,,,,,,,,0,,,74,36
165030,note_on,0,0,1,,,,,,,,,0,,,74,0
165030,note_on,0,0,3,,,,,,,,,2,,,66,36
165030,note_on,240,0,1,,,,,,,,,0,,,81,0
165030,note_on,0,0,1,,,,,,,,,0,,,81,36
165030,note_on,120,0,3,,,,,,,,,2,,,57,0
165030,note_on,0,0,1,,,,,,,,,0,,,78,0
165030,note_on,0,0,3,,,,,,,,,2,,,62,36
165030,control_change,0,0,3,,,,,,,,,2,64,0,,
165150,note_on,120,0,3,,,,,,,,,2,,,66,0
165150,note_on,0,0,3,,,,,,,,,2,,,62,0
165150,control_change,0,0,3,,,,,,,,,2,64,127,,
165150,note_on,0,0,3,,,,,,,,,2,,,50,36
165150,control_change,120,0,1,,,,,,,,,0,64,127,,
165240,note_on,0,0,1,,,,,,,,,0,,,74,36
165240,note_on,90,0,1,,,,,,,,,0,,,81,0
165240,note_on,0,0,1,,,,,,,,,0,,,78,0
165240,note_on,0,0,1,,,,,,,,,0,,,74,0
165240,note_on,0,0,1,,,,,,,,,0,,,81,36
165240,note_on,0,0,1,,,,,,,,,0,,,78,36
165270,note_on,0,0,1,,,,,,,,,0,,,78,36
165270,note_on,0,0,1,,,,,,,,,0,,,74,36
165270,note_on,0,0,1,,,,,,,,,0,,,74,0
165270,note_on,0,0,1,,,,,,,,,0,,,78,0
165270,note_on,30,0,1,,,,,,,,,0,,,81,0
165270,note_on,0,0,1,,,,,,,,,0,,,81,36
165270,note_on,120,0,3,,,,,,,,,2,,,50,0
165270,note_on,0,0,3,,,,,,,,,2,,,57,36
165360,note_on,0,0,1,,,,,,,,,0,,,81,36
165360,note_on,0,0,1,,,,,,,,,0,,,78,36
165360,note_on,0,0,1,,,,,,,,,0,,,74,36
165360,note_on,0,0,1,,,,,,,,,0,,,74,0
165360,note_on,0,0,1,,,,,,,,,0,,,78,0
165360,note_on,90,0,1,,,,,,,,,0,,,81,0
165390,note_on,120,0,3,,,,,,,,,2,,,57,0
165390,control_change,0,0,3,,,,,,,,,2,64,0,,
165390,note_on,0,0,3,,,,,,,,,2,,,62,36
165390,note_on,0,0,3,,,,,,,,,2,,,66,36
165390,note_on,0,0,1,,,,,,,,,0,,,74,0
165390,note_on,30,0,1,,,,,,,,,0,,,81,0
165390,note_on,0,0,1,,,,,,,,,0,,,78,0
165390,note_on,0,0,1,,,,,,,,,0,,,74,36
165390,note_on,0,0,1,,,,,,,,,0,,,79,36
165390,note_on,0,0,1,,,,,,,,,0,,,83,36
165480,control_change,0,0,1,,,,,,,,,0,64,0,,
165480,note_on,0,0,1,,,,,,,,,0,,,81,36
165480,note_on,0,0,1,,,,,,,,,0,,,78,36
165480,note_on,0,0,1,,,,,,,,,0,,,74,36
165480,note_on,0,0,1,,,,,,,,,0,,,74,0
165480,note_on,0,0,1,,,,,,,,,0,,,79,0
165480,note_on,90,0,1,,,,,,,,,0,,,83,0
165510,note_on,0,0,3,,,,,,,,,2,,,45,36
165510,control_change,0,0,3,,,,,,,,,2,64,127,,
165510,note_on,0,0,3,,,,,,,,,2,,,62,0
165510,note_on,120,0,3,,,,,,,,,2,,,66,0
165510,note_on,0,0,1,,,,,,,,,0,,,81,36
165510,note_on,0,0,1,,,,,,,,,0,,,78,0
165510,note_on,0,0,1,,,,,,,,,0,,,73,36
165510,note_on,0,0,1,,,,,,,,,0,,,74,0
165510,note_on,30,0,1,,,,,,,,,0,,,81,0
165510,note_on,0,0,1,,,,,,,,,0,,,78,36
165630,note_on,120,0,3,,,,,,,,,2,,,45,0
165630,note_on,0,0,3,,,,,,,,,2,,,57,36
165750,note_on,0,0,3,,,,,,,,,2,,,64,36
165750,note_on,120,0,3,,,,,,,,,2,,,57,0
165750,control_change,0,0,3,,,,,,,,,2,64,0,,
165750,note_on,0,0,3,,,,,,,,,2,,,67,36
165750,note_on,0,0,1,,,,,,,,,0,,,73,36
165750,note_on,0,0,1,,,,,,,,,0,,,73,0
165750,note_on,0,0,1,,,,,,,,,0,,,78,0
165750,note_on,240,0,1,,,,,,,,,0,,,81,0
165750,note_on,0,0,1,,,,,,,,,0,,,79,36
165750,note_on,0,0,1,,,,,,,,,0,,,76,36
165870,note_on,0,0,3,,,,,,,,,2,,,45,36
165870,control_change,120,0,1,,,,,,,,,0,64,127,,
165870,control_change,0,0,3,,,,,,,,,2,64,127,,
165870,note_on,0,0,3,,,,,,,,,2,,,64,0
165870,note_on,120,0,3,,,,,,,,,2,,,67,0
165960,note_on,0,0,1,,,,,,,,,0,,,79,36
165960,note_on,0,0,1,,,,,,,,,0,,,69,36
165960,note_on,0,0,1,,,,,,,,,0,,,73,0
165960,note_on,0,0,1,,,,,,,,,0,,,76,0
165960,note_on,90,0,1,,,,,,,,,0,,,79,0
165960,note_on,0,0,1,,,,,,,,,0,,,76,36
165990,note_on,120,0,3,,,,,,,,,2,,,45,0
165990,note_on,30,0,1,,,,,,,,,0,,,79,0
165990,note_on,0,0,1,,,,,,,,,0,,,76,0
165990,note_on,0,0,1,,,,,,,,,0,,,69,0
165990,note_on,0,0,1,,,,,,,,,0,,,69,36
165990,note_on,0,0,1,,,,,,,,,0,,,76,36
165990,note_on,0,0,3,,,,,,,,,2,,,57,36
165990,note_on,0,0,1,,,,,,,,,0,,,79,36
166080,note_on,0,0,1,,,,,,,,,0,,,76,36
166080,note_on,0,0,1,,,,,,,,,0,,,69,36
166080,note_on,0,0,1,,,,,,,,,0,,,79,36
166080,note_on,0,0,1,,,,,,,,,0,,,69,0
166080,note_on,0,0,1,,,,,,,,,0,,,76,0
166080,note_on,90,0,1,,,,,,,,,0,,,79,0
166110,note_on,30,0,1,,,,,,,,,0,,,79,0
166110,note_on,0,0,1,,,,,,,,,0,,,76,0
166110,note_on,0,0,1,,,,,,,,,0,,,69,0
166110,note_on,0,0,1,,,,,,,,,0,,,69,36
166110,note_on,0,0,1,,,,,,,,,0,,,74,36
166110,note_on,0,0,1,,,,,,,,,0,,,78,36
166110,note_on,120,0,3,,,,,,,,,2,,,57,0
166110,control_change,0,0,3,,,,,,,,,2,64,0,,
166110,note_on,0,0,3,,,,,,,,,2,,,67,36
166110,note_on,0,0,3,,,,,,,,,2,,,64,36
166200,note_on,0,0,1,,,,,,,,,0,,,69,36
166200,note_on,0,0,1,,,,,,,,,0,,,69,0
166200,note_on,0,0,1,,,,,,,,,0,,,74,0
166200,note_on,90,0,1,,,,,,,,,0,,,78,0
166200,control_change,0,0,1,,,,,,,,,0,64,0,,
166200,note_on,0,0,1,,,,,,,,,0,,,76,36
166200,note_on,0,0,1,,,,,,,,,0,,,73,36
166230,note_on,0,0,3,,,,,,,,,2,,,50,36
166230,control_change,0,0,3,,,,,,,,,2,64,127,,
166230,note_on,0,0,3,,,,,,,,,2,,,64,0
166230,note_on,120,0,3,,,,,,,,,2,,,67,0
166230,note_on,0,0,1,,,,,,,,,0,,,69,36
166230,note_on,30,0,1,,,,,,,,,0,,,76,0
166230,note_on,0,0,1,,,,,,,,,0,,,74,36
166230,note_on,0,0,1,,,,,,,,,0,,,66,36
166230,note_on,0,0,1,,,,,,,,,0,,,69,0
166230,note_on,0,0,1,,,,,,,,,0,,,73,0
166350,note_on,0,0,3,,,,,,,,,2,,,54,36
166350,note_on,120,0,3,,,,,,,,,2,,,50,0
166470,note_on,0,0,1,,,,,,,,,0,,,69,36
166470,note_on,0,0,1,,,,,,,,,0,,,66,36
166470,note_on,0,0,1,,,,,,,,,0,,,66,0
166470,note_on,0,0,1,,,,,,,,,0,,,69,0
166470,note_on,240,0,1,,,,,,,,,0,,,74,0
166470,note_on,0,0,1,,,,,,,,,0,,,74,36
166470,note_on,120,0,3,,,,,,,,,2,,,54,0
166470,control_change,0,0,3,,,,,,,,,2,64,0,,
166470,note_on,0,0,3,,,,,,,,,2,,,57,36
166470,note_on,0,0,3,,,,,,,,,2,,,62,36
166590,note_on,120,0,3,,,,,,,,,2,,,62,0
166590,note_on,0,0,3,,,,,,,,,2,,,57,0
166590,control_change,0,0,3,,,,,,,,,2,64,127,,
166590,note_on,0,0,3,,,,,,,,,2,,,45,36
166590,note_on,0,0,1,,,,,,,,,0,,,66,0
166590,note_on,0,0,1,,,,,,,,,0,,,69,0
166590,note_on,120,0,1,,,,,,,,,0,,,74,0
166650,set_tempo,5460,1,0,,,,,,338983,,,,,,,
166680,control_change,90,0,1,,,,,,,,,0,64,127,,
166680,note_on,0,0,1,,,,,,,,,0,,,69,36
166680,note_on,0,0,1,,,,,,,,,0,,,76,36
166680,note_on,0,0,1,,,,,,,,,0,,,79,36
166710,note_on,30,0,1,,,,,,,,,0,,,79,0
166710,note_on,0,0,1,,,,,,,,,0,,,76,0
166710,note_on,0,0,1,,,,,,,,,0,,,69,0
166710,note_on,0,0,1,,,,,,,,,0,,,69,36
166710,note_on,0,0,1,,,,,,,,,0,,,76,36
166710,note_on,0,0,1,,,,,,,,,0,,,79,36
166710,note_on,120,0,3,,,,,,,,,2,,,45,0
166710,note_on,0,0,3,,,,,,,,,2,,,55,36
166710,set_tempo,60,1,0,,,,,,344828,,,,,,,
166770,set_tempo,60,1,0,,,,,,350877,,,,,,,
166800,note_on,0,0,1,,,,,,,,,0,,,79,36
166800,note_on,0,0,1,,,,,,,,,0,,,76,0
166800,note_on,0,0,1,,,,,,,,,0,,,69,36
166800,note_on,0,0,1,,,,,,,,,0,,,69,0
166800,note_on,90,0,1,,,,,,,,,0,,,79,0
166800,note_on,0,0,1,,,,,,,,,0,,,76,36
166830,note_on,0,0,3,,,,,,,,,2,,,61,36
166830,note_on,0,0,1,,,,,,,,,0,,,78,36
166830,note_on,0,0,3,,,,,,,,,2,,,57,36
166830,note_on,0,0,1,,,,,,,,,0,,,74,36
166830,note_on,120,0,3,,,,,,,,,2,,,55,0
166830,note_on,0,0,1,,,,,,,,,0,,,69,36
166830,control_change,0,0,3,,,,,,,,,2,64,0,,
166830,note_on,0,0,1,,,,,,,,,0,,,69,0
166830,note_on,0,0,1,,,,,,,,,0,,,76,0
166830,set_tempo,60,1,0,,,,,,359281,,,,,,,
166830,note_on,30,0,1,,,,,,,,,0,,,79,0
166890,set_tempo,60,1,0,,,,,,365854,,,,,,,
166920,note_on,90,0,1,,,,,,,,,0,,,78,0
166920,note_on,0,0,1,,,,,,,,,0,,,74,0
166920,note_on,0,0,1,,,,,,,,,0,,,69,0
166920,note_on,0,0,1,,,,,,,,,0,,,69,36
166920,note_on,0,0,1,,,,,,,,,0,,,73,36
166920,note_on,0,0,1,,,,,,,,,0,,,76,36
166920,control_change,0,0,1,,,,,,,,,0,64,0,,
166950,control_change,0,0,3,,,,,,,,,2,64,127,,
166950,note_on,0,0,1,,,,,,,,,0,,,74,36
166950,note_on,0,0,1,,,,,,,,,0,,,69,36
166950,note_on,0,0,3,,,,,,,,,2,,,50,36
166950,set_tempo,60,1,0,,,,,,372671,,,,,,,
166950,note_on,0,0,1,,,,,,,,,0,,,69,0
166950,note_on,120,0,3,,,,,,,,,2,,,61,0
166950,note_on,0,0,1,,,,,,,,,0,,,73,0
166950,note_on,30,0,1,,,,,,,,,0,,,76,0
166950,note_on,0,0,1,,,,,,,,,0,,,66,36
166950,note_on,0,0,3,,,,,,,,,2,,,57,0
167010,set_tempo,60,1,0,,,,,,379747,,,,,,,
167070,note_on,120,0,3,,,,,,,,,2,,,50,0
167070,set_tempo,60,1,0,,,,,,389610,,,,,,,
167070,note_on,0,0,3,,,,,,,,,2,,,54,36
167070,end_of_track,0,1,0,,,,,,,,,,,,,
167190,note_on,0,0,1,,,,,,,,,0,,,74,36
167190,note_on,0,0,1,,,,,,,,,0,,,69,36
167190,note_on,0,0,1,,,,,,,,,0,,,66,36
167190,note_on,0,0,1,,,,,,,,,0,,,66,0
167190,note_on,0,0,1,,,,,,,,,0,,,69,0
167190,note_on,240,0,1,,,,,,,,,0,,,74,0
167190,note_on,120,0,3,,,,,,,,,2,,,54,0
167190,control_change,0,0,3,,,,,,,,,2,64,0,,
167190,note_on,0,0,3,,,,,,,,,2,,,57,36
167190,note_on,0,0,3,,,,,,,,,2,,,62,36
167310,note_on,120,0,3,,,,,,,,,2,,,62,0
167310,note_on,120,0,1,,,,,,,,,0,,,74,0
167310,control_change,0,0,3,,,,,,,,,2,64,127,,
167310,note_on,0,0,3,,,,,,,,,2,,,45,36
167310,note_on,0,0,1,,,,,,,,,0,,,66,0
167310,note_on,0,0,3,,,,,,,,,2,,,57,0
167310,note_on,0,0,1,,,,,,,,,0,,,69,0
167400,note_on,0,0,1,,,,,,,,,0,,,76,36
167400,note_on,0,0,1,,,,,,,,,0,,,69,36
167400,note_on,0,0,1,,,,,,,,,0,,,79,36
167400,control_change,90,0,1,,,,,,,,,0,64,127,,
167430,note_on,0,0,1,,,,,,,,,0,,,69,0
167430,note_on,0,0,1,,,,,,,,,0,,,69,36
167430,note_on,0,0,1,,,,,,,,,0,,,76,36
167430,note_on,0,0,1,,,,,,,,,0,,,79,36
167430,note_on,0,0,1,,,,,,,,,0,,,76,0
167430,note_on,30,0,1,,,,,,,,,0,,,79,0
167430,note_on,120,0,3,,,,,,,,,2,,,45,0
167430,note_on,0,0,3,,,,,,,,,2,,,55,36
167520,note_on,90,0,1,,,,,,,,,0,,,79,0
167520,note_on,0,0,1,,,,,,,,,0,,,76,0
167520,note_on,0,0,1,,,,,,,,,0,,,69,0
167520,note_on,0,0,1,,,,,,,,,0,,,69,36
167520,note_on,0,0,1,,,,,,,,,0,,,76,36
167520,note_on,0,0,1,,,,,,,,,0,,,79,36
167550,note_on,30,0,1,,,,,,,,,0,,,79,0
167550,note_on,120,0,3,,,,,,,,,2,,,55,0
167550,control_change,0,0,3,,,,,,,,,2,64,0,,
167550,note_on,0,0,1,,,,,,,,,0,,,69,36
167550,note_on,0,0,1,,,,,,,,,0,,,76,0
167550,note_on,0,0,1,,,,,,,,,0,,,69,0
167550,note_on,0,0,3,,,,,,,,,2,,,57,36
167550,note_on,0,0,1,,,,,,,,,0,,,74,36
167550,note_on,0,0,1,,,,,,,,,0,,,78,36
167550,note_on,0,0,3,,,,,,,,,2,,,61,36
167640,note_on,90,0,1,,,,,,,,,0,,,78,0
167640,note_on,0,0,1,,,,,,,,,0,,,74,0
167640,note_on,0,0,1,,,,,,,,,0,,,69,0
167640,note_on,0,0,1,,,,,,,,,0,,,69,36
167640,note_on,0,0,1,,,,,,,,,0,,,76,36
167640,control_change,0,0,1,,,,,,,,,0,64,0,,
167640,note_on,0,0,1,,,,,,,,,0,,,73,36
167670,note_on,0,0,1,,,,,,,,,0,,,69,0
167670,note_on,0,0,3,,,,,,,,,2,,,50,36
167670,note_on,120,0,3,,,,,,,,,2,,,61,0
167670,note_on,0,0,1,,,,,,,,,0,,,73,0
167670,control_change,0,0,3,,,,,,,,,2,64,127,,
167670,note_on,0,0,3,,,,,,,,,2,,,57,0
167670,note_on,0,0,1,,,,,,,,,0,,,66,36
167670,note_on,30,0,1,,,,,,,,,0,,,76,0
167670,note_on,0,0,1,,,,,,,,,0,,,74,36
167670,note_on,0,0,1,,,,,,,,,0,,,69,36
167790,note_on,120,0,3,,,,,,,,,2,,,50,0
167790,note_on,0,0,3,,,,,,,,,2,,,54,36
167910,note_on,120,0,3,,,,,,,,,2,,,54,0
167910,control_change,0,0,3,,,,,,,,,2,64,0,,
167910,note_on,0,0,3,,,,,,,,,2,,,57,36
167910,note_on,0,0,1,,,,,,,,,0,,,69,0
167910,note_on,240,0,1,,,,,,,,,0,,,74,0
167910,note_on,0,0,1,,,,,,,,,0,,,74,36
167910,note_on,0,0,1,,,,,,,,,0,,,69,36
167910,note_on,0,0,1,,,,,,,,,0,,,66,36
167910,note_on,0,0,1,,,,,,,,,0,,,66,0
167910,note_on,0,0,3,,,,,,,,,2,,,62,36
168030,note_on,0,0,1,,,,,,,,,0,,,66,0
168030,note_on,120,0,1,,,,,,,,,0,,,74,0
168030,note_on,0,0,1,,,,,,,,,0,,,69,0
168030,control_change,0,0,3,,,,,,,,,2,64,127,,
168030,note_on,0,0,3,,,,,,,,,2,,,57,0
168030,note_on,0,0,3,,,,,,,,,2,,,50,36
168030,note_on,120,0,3,,,,,,,,,2,,,62,0
168150,note_on,0,0,3,,,,,,,,,2,,,54,36
168150,note_on,120,0,3,,,,,,,,,2,,,50,0
168150,note_on,120,0,1,,,,,,,,,0,,,66,36
168150,note_on,0,0,1,,,,,,,,,0,,,74,36
168150,note_on,0,0,1,,,,,,,,,0,,,69,36
168162,note_on,12,0,1,,,,,,,,,0,,,74,0
168162,note_on,0,0,1,,,,,,,,,0,,,66,0
168162,note_on,0,0,1,,,,,,,,,0,,,69,0
168270,note_on,0,0,3,,,,,,,,,2,,,62,36
168270,note_on,108,0,1,,,,,,,,,0,,,66,36
168270,note_on,0,0,1,,,,,,,,,0,,,69,36
168270,note_on,120,0,3,,,,,,,,,2,,,54,0
168270,control_change,0,0,3,,,,,,,,,2,64,0,,
168270,note_on,0,0,3,,,,,,,,,2,,,57,36
168282,note_on,12,0,1,,,,,,,,,0,,,69,0
168282,note_on,0,0,1,,,,,,,,,0,,,66,0
168390,control_change,0,0,3,,,,,,,,,2,64,127,,
168390,note_on,0,0,3,,,,,,,,,2,,,50,62
168390,note_on,0,0,3,,,,,,,,,2,,,57,0
168390,note_on,0,0,1,,,,,,,,,0,,,74,62
168390,note_on,108,0,1,,,,,,,,,0,,,66,52
168390,note_on,120,0,3,,,,,,,,,2,,,62,0
168390,note_on,0,0,1,,,,,,,,,0,,,69,57
168510,note_on,0,0,3,,,,,,,,,2,,,54,36
168510,note_on,120,0,3,,,,,,,,,2,,,50,0
168630,note_on,0,0,3,,,,,,,,,2,,,62,36
168630,note_on,240,0,1,,,,,,,,,0,,,74,0
168630,note_on,0,0,1,,,,,,,,,0,,,69,0
168630,note_on,0,0,1,,,,,,,,,0,,,66,0
168630,note_on,0,0,1,,,,,,,,,0,,,66,36
168630,note_on,0,0,1,,,,,,,,,0,,,69,36
168630,note_on,0,0,1,,,,,,,,,0,,,74,36
168630,control_change,0,0,3,,,,,,,,,2,64,0,,
168630,note_on,120,0,3,,,,,,,,,2,,,54,0
168630,note_on,0,0,3,,,,,,,,,2,,,57,36
168642,note_on,0,0,1,,,,,,,,,0,,,66,0
168642,note_on,0,0,1,,,,,,,,,0,,,69,0
168642,note_on,12,0,1,,,,,,,,,0,,,74,0
168750,note_on,0,0,3,,,,,,,,,2,,,50,36
168750,control_change,0,0,3,,,,,,,,,2,64,127,,
168750,note_on,0,0,3,,,,,,,,,2,,,57,0
168750,note_on,120,0,3,,,,,,,,,2,,,62,0
168870,note_on,0,0,1,,,,,,,,,0,,,74,36
168870,note_on,0,0,3,,,,,,,,,2,,,54,36
168870,note_on,228,0,1,,,,,,,,,0,,,66,36
168870,note_on,120,0,3,,,,,,,,,2,,,50,0
168870,note_on,0,0,1,,,,,,,,,0,,,69,36
168882,note_on,0,0,1,,,,,,,,,0,,,69,0
168882,note_on,0,0,1,,,,,,,,,0,,,66,0
168882,note_on,12,0,1,,,,,,,,,0,,,74,0
168990,control_change,0,0,3,,,,,,,,,2,64,0,,
168990,note_on,0,0,3,,,,,,,,,2,,,57,36
168990,note_on,0,0,3,,,,,,,,,2,,,62,36
168990,note_on,0,0,1,,,,,,,,,0,,,69,36
168990,note_on,108,0,1,,,,,,,,,0,,,66,36
168990,note_on,120,0,3,,,,,,,,,2,,,54,0
169002,note_on,12,0,1,,,,,,,,,0,,,69,0
169002,note_on,0,0,1,,,,,,,,,0,,,66,0
169110,note_on,0,0,3,,,,,,,,,2,,,50,36
169110,note_on,0,0,1,,,,,,,,,0,,,74,36
169110,note_on,0,0,1,,,,,,,,,0,,,69,36
169110,control_change,0,0,3,,,,,,,,,2,64,127,,
169110,note_on,0,0,1,,,,,,,,,0,,,66,36
169110,control_change,108,0,1,,,,,,,,,0,64,127,,
169110,note_on,0,0,3,,,,,,,,,2,,,57,0
169110,note_on,120,0,3,,,,,,,,,2,,,62,0
169122,note_on,0,0,1,,,,,,,,,0,,,66,0
169122,note_on,12,0,1,,,,,,,,,0,,,74,0
169122,note_on,0,0,1,,,,,,,,,0,,,69,0
169230,note_on,120,0,3,,,,,,,,,2,,,50,0
169470,note_on,240,0,3,,,,,,,,,2,,,50,36
169470,note_on,0,0,3,,,,,,,,,2,,,57,36
169470,note_on,0,0,3,,,,,,,,,2,,,62,36
169470,note_on,348,0,1,,,,,,,,,0,,,66,36
169470,note_on,0,0,1,,,,,,,,,0,,,69,36
169470,note_on,0,0,1,,,,,,,,,0,,,74,36
169482,note_on,12,0,1,,,,,,,,,0,,,74,0
169482,note_on,0,0,1,,,,,,,,,0,,,69,0
169482,note_on,0,0,1,,,,,,,,,0,,,66,0
169590,note_on,120,0,3,,,,,,,,,2,,,62,0
169590,note_on,0,0,3,,,,,,,,,2,,,57,0
169590,note_on,0,0,3,,,,,,,,,2,,,50,0
169830,note_on,0,0,3,,,,,,,,,2,,,62,36
169830,note_on,0,0,3,,,,,,,,,2,,,57,36
169830,note_on,240,0,3,,,,,,,,,2,,,50,36
169830,note_on,0,0,1,,,,,,,,,0,,,74,36
169830,note_on,0,0,1,,,,,,,,,0,,,69,36
169830,note_on,348,0,1,,,,,,,,,0,,,66,36
170310,note_on,0,0,1,,,,,,,,,0,,,66,0
170310,note_on,480,0,1,,,,,,,,,0,,,74,0
170310,note_on,480,0,3,,,,,,,,,2,,,62,0
170310,note_on,0,0,3,,,,,,,,,2,,,57,0
170310,note_on,0,0,1,,,,,,,,,0,,,69,0
170310,note_on,0,0,3,,,,,,,,,2,,,50,0
170550,control_change,240,0,1,,,,,,,,,0,64,0,,
170550,control_change,36840,0,4,,,,,,,,,3,64,0,,
170550,control_change,24960,0,2,,,,,,,,,1,64,0,,
170550,control_change,240,0,3,,,,,,,,,2,64,0,,
170910,control_change,360,0,2,,,,,,,,,1,64,0,,
170910,end_of_track,0,1,3,,,,,,,,,,,,,
170910,control_change,360,0,3,,,,,,,,,2,64,0,,
170910,end_of_track,0,1,2,,,,,,,,,,,,,
170910,control_change,360,0,1,,,,,,,,,0,64,0,,
170910,end_of_track,0,1,1,,,,,,,,,,,,,
170910,control_change,360,0,4,,,,,,,,,3,64,0,,
170910,end_of_track,0,1,4,,,,,,,,,,,,,
