tick,type,time,meta,track,numerator,denominator,clocks_per_click,notated_32nd_notes_per_beat,key,tempo,port,program,channel,control,value,note,velocity
0,track_name,0,1,0,,,,,,,,,,,,,
0,program_change,0,0,3,,,,,,,,0,2,,,,
0,note_on,0,0,3,,,,,,,,,2,,,38,75
0,note_on,0,0,3,,,,,,,,,2,,,50,75
0,control_change,0,0,2,,,,,,,,,1,10,97,,
0,control_change,0,0,2,,,,,,,,,1,7,127,,
0,program_change,0,0,2,,,,,,,,0,1,,,,
0,track_name,0,1,2,,,,,,,,,,,,,
0,midi_port,0,1,2,,,,,,,0,,,,,,
0,midi_port,0,1,4,,,,,,,0,,,,,,
0,track_name,0,1,4,,,,,,,,,,,,,
0,program_change,0,0,4,,,,,,,,0,3,,,,
0,control_change,0,0,4,,,,,,,,,3,7,127,,
0,control_change,0,0,4,,,,,,,,,3,10,30,,
0,control_change,0,0,3,,,,,,,,,2,10,30,,
0,note_on,0,0,1,,,,,,,,,0,,,86,88
0,control_change,0,0,3,,,,,,,,,2,7,127,,
0,track_name,0,1,3,,,,,,,,,,,,,
0,key_signature,0,1,0,,,,,D,,,,,,,,
0,set_tempo,0,1,0,,,,,,357143,,,,,,,
0,midi_port,0,1,3,,,,,,,0,,,,,,
0,note_on,0,0,1,,,,,,,,,0,,,81,88
0,midi_port,0,1,1,,,,,,,0,,,,,,
0,track_name,0,1,1,,,,,,,,,,,,,
0,program_change,0,0,1,,,,,,,,0,0,,,,
0,control_change,0,0,1,,,,,,,,,0,7,127,,
0,control_change,0,0,1,,,,,,,,,0,10,97,,
0,note_on,0,0,1,,,,,,,,,0,,,74,88
0,note_on,0,0,1,,,,,,,,,0,,,78,88
0,time_signature,0,1,0,4,4,24,8,,,,,,,,,
0,text,0,1,0,,,,,,,,,,,,,
0,copyright,0,1,0,,,,,,,,,,,,,
240,note_on,240,0,3,,,,,,,,,2,,,50,0
240,note_on,0,0,3,,,,,,,,,2,,,38,0
240,note_on,0,0,3,,,,,,,,,2,,,42,75
240,note_on,240,0,1,,,,,,,,,0,,,86,0
240,note_on,0,0,1,,,,,,,,,0,,,62,88
240,note_on,0,0,1,,,,,,,,,0,,,81,0
240,note_on,0,0,1,,,,,,,,,0,,,78,0
240,note_on,0,0,1,,,,,,,,,0,,,74,0
240,note_on,0,0,3,,,,,,,,,2,,,50,75
240,note_on,0,0,1,,,,,,,,,0,,,57,88
246,note_on,6,0,3,,,,,,,,,2,,,50,0
246,note_on,0,0,3,,,,,,,,,2,,,42,0
246,note_on,6,0,1,,,,,,,,,0,,,62,0
246,note_on,0,0,1,,,,,,,,,0,,,57,0
300,note_on,0,0,3,,,,,,,,,2,,,50,75
300,note_on,54,0,1,,,,,,,,,0,,,57,88
300,note_on,0,0,1,,,,,,,,,0,,,62,88
300,note_on,54,0,3,,,,,,,,,2,,,42,75
306,note_on,0,0,3,,,,,,,,,2,,,42,0
306,note_on,6,0,3,,,,,,,,,2,,,50,0
306,note_on,0,0,1,,,,,,,,,0,,,57,0
306,note_on,6,0,1,,,,,,,,,0,,,62,0
360,note_on,0,0,1,,,,,,,,,0,,,62,88
360,note_on,54,0,3,,,,,,,,,2,,,42,75
360,note_on,0,0,3,,,,,,,,,2,,,50,75
360,note_on,54,0,1,,,,,,,,,0,,,57,88
366,note_on,0,0,1,,,,,,,,,0,,,57,0
366,note_on,6,0,3,,,,,,,,,2,,,50,0
366,note_on,0,0,3,,,,,,,,,2,,,42,0
366,note_on,6,0,1,,,,,,,,,0,,,62,0
420,note_on,0,0,3,,,,,,,,,2,,,50,75
420,note_on,54,0,3,,,,,,,,,2,,,42,75
420,note_on,0,0,1,,,,,,,,,0,,,62,88
420,note_on,54,0,1,,,,,,,,,0,,,57,88
426,note_on,6,0,1,,,,,,,,,0,,,62,0
426,note_on,6,0,3,,,,,,,,,2,,,50,0
426,note_on,0,0,3,,,,,,,,,2,,,42,0
426,note_on,0,0,1,,,,,,,,,0,,,57,0
480,note_on,54,0,1,,,,,,,,,0,,,57,88
480,note_on,0,0,3,,,,,,,,,2,,,50,75
480,note_on,0,0,1,,,,,,,,,0,,,62,88
480,note_on,54,0,3,,,,,,,,,2,,,42,75
600,note_on,120,0,1,,,,,,,,,0,,,57,0
600,note_on,0,0,1,,,,,,,,,0,,,59,88
600,note_on,0,0,1,,,,,,,,,0,,,64,88
600,note_on,120,0,3,,,,,,,,,2,,,42,0
600,note_on,0,0,3,,,,,,,,,2,,,43,75
600,note_on,0,0,3,,,,,,,,,2,,,52,75
660,note_on,60,0,1,,,,,,,,,0,,,64,0
660,note_on,60,0,3,,,,,,,,,2,,,52,0
660,note_on,0,0,3,,,,,,,,,2,,,43,0
660,note_on,0,0,1,,,,,,,,,0,,,59,0
660,note_on,0,0,1,,,,,,,,,0,,,62,0
660,note_on,0,0,3,,,,,,,,,2,,,50,0
720,note_on,0,0,1,,,,,,,,,0,,,66,88
720,note_on,0,0,1,,,,,,,,,0,,,62,88
720,note_on,60,0,1,,,,,,,,,0,,,60,88
720,note_on,60,0,3,,,,,,,,,2,,,45,75
720,note_on,0,0,3,,,,,,,,,2,,,50,75
720,note_on,0,0,3,,,,,,,,,2,,,54,75
726,note_on,6,0,1,,,,,,,,,0,,,66,0
726,note_on,0,0,1,,,,,,,,,0,,,62,0
726,note_on,0,0,1,,,,,,,,,0,,,60,0
726,note_on,0,0,3,,,,,,,,,2,,,50,0
726,note_on,6,0,3,,,,,,,,,2,,,54,0
726,note_on,0,0,3,,,,,,,,,2,,,45,0
780,note_on,54,0,3,,,,,,,,,2,,,45,75
780,note_on,0,0,3,,,,,,,,,2,,,50,75
780,note_on,0,0,3,,,,,,,,,2,,,54,75
780,note_on,54,0,1,,,,,,,,,0,,,60,88
780,note_on,0,0,1,,,,,,,,,0,,,66,88
780,note_on,0,0,1,,,,,,,,,0,,,62,88
786,note_on,6,0,1,,,,,,,,,0,,,66,0
786,note_on,0,0,1,,,,,,,,,0,,,60,0
786,note_on,0,0,1,,,,,,,,,0,,,62,0
786,note_on,0,0,3,,,,,,,,,2,,,45,0
786,note_on,0,0,3,,,,,,,,,2,,,50,0
786,note_on,6,0,3,,,,,,,,,2,,,54,0
840,note_on,0,0,1,,,,,,,,,0,,,62,88
840,note_on,54,0,1,,,,,,,,,0,,,60,88
840,note_on,0,0,3,,,,,,,,,2,,,50,75
840,note_on,0,0,1,,,,,,,,,0,,,66,88
840,note_on,0,0,3,,,,,,,,,2,,,54,75
840,note_on,54,0,3,,,,,,,,,2,,,45,75
846,note_on,0,0,1,,,,,,,,,0,,,62,0
846,note_on,0,0,1,,,,,,,,,0,,,60,0
846,note_on,0,0,3,,,,,,,,,2,,,45,0
846,note_on,0,0,3,,,,,,,,,2,,,50,0
846,note_on,6,0,3,,,,,,,,,2,,,54,0
846,note_on,6,0,1,,,,,,,,,0,,,66,0
900,note_on,0,0,3,,,,,,,,,2,,,50,75
900,note_on,0,0,3,,,,,,,,,2,,,54,75
900,note_on,54,0,3,,,,,,,,,2,,,45,75
900,note_on,0,0,1,,,,,,,,,0,,,62,88
900,note_on,54,0,1,,,,,,,,,0,,,60,88
900,note_on,0,0,1,,,,,,,,,0,,,66,88
906,note_on,6,0,3,,,,,,,,,2,,,54,0
906,note_on,0,0,3,,,,,,,,,2,,,50,0
906,note_on,0,0,3,,,,,,,,,2,,,45,0
906,note_on,6,0,1,,,,,,,,,0,,,66,0
906,note_on,0,0,1,,,,,,,,,0,,,62,0
906,note_on,0,0,1,,,,,,,,,0,,,60,0
960,note_on,54,0,1,,,,,,,,,0,,,60,88
960,note_on,0,0,1,,,,,,,,,0,,,62,88
960,note_on,0,0,1,,,,,,,,,0,,,66,88
960,note_on,54,0,3,,,,,,,,,2,,,45,75
960,note_on,0,0,3,,,,,,,,,2,,,50,75
960,note_on,0,0,3,,,,,,,,,2,,,54,75
1080,note_on,120,0,3,,,,,,,,,2,,,54,0
1080,note_on,0,0,3,,,,,,,,,2,,,45,0
1080,note_on,0,0,3,,,,,,,,,2,,,55,75
1080,note_on,0,0,1,,,,,,,,,0,,,67,88
1080,note_on,0,0,1,,,,,,,,,0,,,59,88
1080,note_on,0,0,1,,,,,,,,,0,,,60,0
1080,note_on,120,0,1,,,,,,,,,0,,,66,0
1080,note_on,0,0,3,,,,,,,,,2,,,47,75
1140,note_on,0,0,3,,,,,,,,,2,,,52,75
1140,note_on,0,0,3,,,,,,,,,2,,,50,0
1140,note_on,60,0,3,,,,,,,,,2,,,55,0
1140,note_on,0,0,1,,,,,,,,,0,,,64,88
1140,note_on,0,0,1,,,,,,,,,0,,,62,0
1140,note_on,0,0,1,,,,,,,,,0,,,59,0
1140,note_on,60,0,1,,,,,,,,,0,,,67,0
1140,note_on,0,0,3,,,,,,,,,2,,,47,0
1200,note_on,0,0,1,,,,,,,,,0,,,67,88
1200,note_on,60,0,1,,,,,,,,,0,,,64,0
1200,note_on,0,0,3,,,,,,,,,2,,,55,75
1200,note_on,60,0,3,,,,,,,,,2,,,52,0
1239,note_on,39,0,1,,,,,,,,,0,,,66,88
1239,note_on,39,0,3,,,,,,,,,2,,,54,75
1240,note_on,1,0,1,,,,,,,,,0,,,67,0
1240,note_on,1,0,3,,,,,,,,,2,,,55,0
1279,note_on,39,0,3,,,,,,,,,2,,,54,0
1279,note_on,39,0,1,,,,,,,,,0,,,66,0
1280,note_on,1,0,1,,,,,,,,,0,,,64,88
1280,note_on,1,0,3,,,,,,,,,2,,,52,75
1320,note_on,0,0,1,,,,,,,,,0,,,70,88
1320,note_on,40,0,3,,,,,,,,,2,,,52,0
1320,note_on,40,0,1,,,,,,,,,0,,,64,0
1320,note_on,0,0,3,,,,,,,,,2,,,58,75
1359,note_on,39,0,3,,,,,,,,,2,,,57,75
1359,note_on,39,0,1,,,,,,,,,0,,,69,88
1360,note_on,1,0,1,,,,,,,,,0,,,70,0
1360,note_on,1,0,3,,,,,,,,,2,,,58,0
1399,note_on,39,0,3,,,,,,,,,2,,,57,0
1399,note_on,39,0,1,,,,,,,,,0,,,69,0
1400,note_on,1,0,3,,,,,,,,,2,,,55,75
1400,note_on,1,0,1,,,,,,,,,0,,,67,88
1440,note_on,0,0,3,,,,,,,,,2,,,57,75
1440,note_on,40,0,1,,,,,,,,,0,,,67,0
1440,note_on,0,0,1,,,,,,,,,0,,,69,88
1440,note_on,40,0,3,,,,,,,,,2,,,55,0
1500,note_on,60,0,3,,,,,,,,,2,,,57,0
1500,note_on,60,0,1,,,,,,,,,0,,,69,0
1560,note_on,60,0,1,,,,,,,,,0,,,78,49
1560,note_on,60,0,3,,,,,,,,,2,,,62,36
1599,note_on,39,0,1,,,,,,,,,0,,,76,49
1599,note_on,39,0,3,,,,,,,,,2,,,64,36
1600,note_on,1,0,1,,,,,,,,,0,,,78,0
1600,note_on,1,0,3,,,,,,,,,2,,,62,0
1639,note_on,39,0,1,,,,,,,,,0,,,76,0
1639,note_on,39,0,3,,,,,,,,,2,,,64,0
1640,note_on,1,0,1,,,,,,,,,0,,,74,49
1640,note_on,1,0,3,,,,,,,,,2,,,66,36
1680,note_on,0,0,1,,,,,,,,,0,,,81,49
1680,note_on,40,0,1,,,,,,,,,0,,,74,0
1680,note_on,0,0,3,,,,,,,,,2,,,57,36
1680,note_on,40,0,3,,,,,,,,,2,,,66,0
1719,note_on,39,0,1,,,,,,,,,0,,,79,49
1719,note_on,39,0,3,,,,,,,,,2,,,61,36
1720,note_on,1,0,1,,,,,,,,,0,,,81,0
1720,note_on,1,0,3,,,,,,,,,2,,,57,0
1759,note_on,39,0,3,,,,,,,,,2,,,61,0
1759,note_on,39,0,1,,,,,,,,,0,,,79,0
1760,note_on,1,0,3,,,,,,,,,2,,,62,36
1760,note_on,1,0,1,,,,,,,,,0,,,78,49
1800,note_on,40,0,3,,,,,,,,,2,,,62,0
1800,note_on,40,0,1,,,,,,,,,0,,,78,0
1800,note_on,0,0,1,,,,,,,,,0,,,76,49
1800,note_on,0,0,3,,,,,,,,,2,,,64,36
1839,note_on,39,0,3,,,,,,,,,2,,,66,36
1839,note_on,39,0,1,,,,,,,,,0,,,74,49
1840,note_on,1,0,3,,,,,,,,,2,,,64,0
1840,note_on,1,0,1,,,,,,,,,0,,,76,0
1879,note_on,39,0,3,,,,,,,,,2,,,66,0
1879,note_on,39,0,1,,,,,,,,,0,,,74,0
1880,note_on,1,0,3,,,,,,,,,2,,,67,36
1880,note_on,1,0,1,,,,,,,,,0,,,73,49
1920,note_on,0,0,1,,,,,,,,,0,,,78,88
1920,note_on,0,0,1,,,,,,,,,0,,,81,88
1920,note_on,0,0,1,,,,,,,,,0,,,86,88
1920,note_on,0,0,3,,,,,,,,,2,,,50,75
1920,note_on,0,0,3,,,,,,,,,2,,,38,75
1920,note_on,40,0,3,,,,,,,,,2,,,67,0
1920,note_on,40,0,1,,,,,,,,,0,,,73,0
1920,note_on,0,0,1,,,,,,,,,0,,,74,88
2160,note_on,0,0,1,,,,,,,,,0,,,78,0
2160,note_on,0,0,3,,,,,,,,,2,,,38,0
2160,note_on,0,0,3,,,,,,,,,2,,,41,75
2160,note_on,0,0,3,,,,,,,,,2,,,50,75
2160,note_on,0,0,1,,,,,,,,,0,,,62,88
2160,note_on,0,0,1,,,,,,,,,0,,,57,88
2160,note_on,0,0,1,,,,,,,,,0,,,81,0
2160,note_on,0,0,1,,,,,,,,,0,,,74,0
2160,note_on,240,0,1,,,,,,,,,0,,,86,0
2160,note_on,240,0,3,,,,,,,,,2,,,50,0
2166,note_on,0,0,3,,,,,,,,,2,,,41,0
2166,note_on,6,0,3,,,,,,,,,2,,,50,0
2166,note_on,6,0,1,,,,,,,,,0,,,62,0
2166,note_on,0,0,1,,,,,,,,,0,,,57,0
2220,note_on,54,0,3,,,,,,,,,2,,,41,75
2220,note_on,54,0,1,,,,,,,,,0,,,57,88
2220,note_on,0,0,1,,,,,,,,,0,,,62,88
2220,note_on,0,0,3,,,,,,,,,2,,,50,75
2226,note_on,6,0,1,,,,,,,,,0,,,62,0
2226,note_on,0,0,1,,,,,,,,,0,,,57,0
2226,note_on,0,0,3,,,,,,,,,2,,,41,0
2226,note_on,6,0,3,,,,,,,,,2,,,50,0
2280,note_on,54,0,1,,,,,,,,,0,,,57,88
2280,note_on,0,0,1,,,,,,,,,0,,,62,88
2280,note_on,0,0,3,,,,,,,,,2,,,50,75
2280,note_on,54,0,3,,,,,,,,,2,,,41,75
2286,note_on,6,0,1,,,,,,,,,0,,,62,0
2286,note_on,0,0,1,,,,,,,,,0,,,57,0
2286,note_on,0,0,3,,,,,,,,,2,,,41,0
2286,note_on,6,0,3,,,,,,,,,2,,,50,0
2340,note_on,54,0,3,,,,,,,,,2,,,41,75
2340,note_on,54,0,1,,,,,,,,,0,,,57,88
2340,note_on,0,0,3,,,,,,,,,2,,,50,75
2340,note_on,0,0,1,,,,,,,,,0,,,62,88
2346,note_on,0,0,3,,,,,,,,,2,,,41,0
2346,note_on,6,0,3,,,,,,,,,2,,,50,0
2346,note_on,0,0,1,,,,,,,,,0,,,57,0
2346,note_on,6,0,1,,,,,,,,,0,,,62,0
2400,note_on,0,0,3,,,,,,,,,2,,,50,75
2400,note_on,0,0,1,,,,,,,,,0,,,62,88
2400,note_on,54,0,1,,,,,,,,,0,,,57,88
2400,note_on,54,0,3,,,,,,,,,2,,,41,75
2520,note_on,120,0,3,,,,,,,,,2,,,41,0
2520,note_on,0,0,3,,,,,,,,,2,,,43,75
2520,note_on,0,0,1,,,,,,,,,0,,,64,88
2520,note_on,0,0,3,,,,,,,,,2,,,52,75
2520,note_on,120,0,1,,,,,,,,,0,,,57,0
2520,note_on,0,0,1,,,,,,,,,0,,,58,88
2580,note_on,0,0,3,,,,,,,,,2,,,43,0
2580,note_on,0,0,3,,,,,,,,,2,,,50,0
2580,note_on,60,0,3,,,,,,,,,2,,,52,0
2580,note_on,60,0,1,,,,,,,,,0,,,64,0
2580,note_on,0,0,1,,,,,,,,,0,,,58,0
2580,note_on,0,0,1,,,,,,,,,0,,,62,0
2640,note_on,0,0,1,,,,,,,,,0,,,66,88
2640,note_on,60,0,1,,,,,,,,,0,,,60,88
2640,note_on,0,0,1,,,,,,,,,0,,,62,88
2640,note_on,60,0,3,,,,,,,,,2,,,45,75
2640,note_on,0,0,3,,,,,,,,,2,,,50,75
2640,note_on,0,0,3,,,,,,,,,2,,,54,75
2646,note_on,0,0,1,,,,,,,,,0,,,62,0
2646,note_on,0,0,1,,,,,,,,,0,,,60,0
2646,note_on,6,0,1,,,,,,,,,0,,,66,0
2646,note_on,6,0,3,,,,,,,,,2,,,54,0
2646,note_on,0,0,3,,,,,,,,,2,,,45,0
2646,note_on,0,0,3,,,,,,,,,2,,,50,0
2700,note_on,54,0,3,,,,,,,,,2,,,45,75
2700,note_on,0,0,3,,,,,,,,,2,,,50,75
2700,note_on,0,0,3,,,,,,,,,2,,,54,75
2700,note_on,0,0,1,,,,,,,,,0,,,66,88
2700,note_on,0,0,1,,,,,,,,,0,,,62,88
2700,note_on,54,0,1,,,,,,,,,0,,,60,88
2706,note_on,6,0,3,,,,,,,,,2,,,54,0
2706,note_on,0,0,1,,,,,,,,,0,,,60,0
2706,note_on,0,0,1,,,,,,,,,0,,,62,0
2706,note_on,6,0,1,,,,,,,,,0,,,66,0
2706,note_on,0,0,3,,,,,,,,,2,,,50,0
2706,note_on,0,0,3,,,,,,,,,2,,,45,0
2760,note_on,54,0,1,,,,,,,,,0,,,60,88
2760,note_on,0,0,1,,,,,,,,,0,,,62,88
2760,note_on,0,0,1,,,,,,,,,0,,,66,88
2760,note_on,54,0,3,,,,,,,,,2,,,45,75
2760,note_on,0,0,3,,,,,,,,,2,,,50,75
2760,note_on,0,0,3,,,,,,,,,2,,,54,75
2766,note_on,0,0,3,,,,,,,,,2,,,45,0
2766,note_on,6,0,3,,,,,,,,,2,,,54,0
2766,note_on,0,0,3,,,,,,,,,2,,,50,0
2766,note_on,6,0,1,,,,,,,,,0,,,66,0
2766,note_on,0,0,1,,,,,,,,,0,,,62,0
2766,note_on,0,0,1,,,,,,,,,0,,,60,0
2820,note_on,0,0,3,,,,,,,,,2,,,54,75
2820,note_on,0,0,3,,,,,,,,,2,,,50,75
2820,note_on,54,0,3,,,,,,,,,2,,,45,75
2820,note_on,54,0,1,,,,,,,,,0,,,60,88
2820,note_on,0,0,1,,,,,,,,,0,,,62,88
2820,note_on,0,0,1,,,,,,,,,0,,,66,88
2826,note_on,0,0,1,,,,,,,,,0,,,60,0
2826,note_on,0,0,3,,,,,,,,,2,,,45,0
2826,note_on,6,0,1,,,,,,,,,0,,,66,0
2826,note_on,0,0,1,,,,,,,,,0,,,62,0
2826,note_on,6,0,3,,,,,,,,,2,,,54,0
2826,note_on,0,0,3,,,,,,,,,2,,,50,0
2880,note_on,0,0,3,,,,,,,,,2,,,50,75
2880,note_on,0,0,1,,,,,,,,,0,,,66,88
2880,note_on,0,0,1,,,,,,,,,0,,,62,88
2880,note_on,54,0,1,,,,,,,,,0,,,60,88
2880,note_on,0,0,3,,,,,,,,,2,,,54,75
2880,note_on,54,0,3,,,,,,,,,2,,,45,75
3000,note_on,0,0,1,,,,,,,,,0,,,67,88
3000,note_on,0,0,1,,,,,,,,,0,,,58,88
3000,note_on,0,0,3,,,,,,,,,2,,,55,75
3000,note_on,0,0,3,,,,,,,,,2,,,46,75
3000,note_on,0,0,3,,,,,,,,,2,,,45,0
3000,note_on,120,0,3,,,,,,,,,2,,,54,0
3000,note_on,0,0,1,,,,,,,,,0,,,60,0
3000,note_on,120,0,1,,,,,,,,,0,,,66,0
3060,note_on,0,0,1,,,,,,,,,0,,,58,0
3060,note_on,60,0,1,,,,,,,,,0,,,67,0
3060,note_on,0,0,3,,,,,,,,,2,,,46,0
3060,note_on,0,0,3,,,,,,,,,2,,,50,0
3060,note_on,60,0,3,,,,,,,,,2,,,55,0
3060,note_on,0,0,1,,,,,,,,,0,,,62,0
3120,note_on,0,0,1,,,,,,,,,0,,,65,88
3120,note_on,60,0,1,,,,,,,,,0,,,62,88
3120,note_on,0,0,3,,,,,,,,,2,,,56,75
3120,note_on,0,0,3,,,,,,,,,2,,,53,75
3120,note_on,60,0,3,,,,,,,,,2,,,47,75
3120,note_on,0,0,1,,,,,,,,,0,,,68,88
3126,note_on,6,0,3,,,,,,,,,2,,,56,0
3126,note_on,0,0,3,,,,,,,,,2,,,47,0
3126,note_on,0,0,3,,,,,,,,,2,,,53,0
3126,note_on,0,0,1,,,,,,,,,0,,,62,0
3126,note_on,0,0,1,,,,,,,,,0,,,65,0
3126,note_on,6,0,1,,,,,,,,,0,,,68,0
3180,note_on,54,0,3,,,,,,,,,2,,,47,75
3180,note_on,0,0,3,,,,,,,,,2,,,53,75
3180,note_on,0,0,3,,,,,,,,,2,,,56,75
3180,note_on,0,0,1,,,,,,,,,0,,,68,88
3180,note_on,0,0,1,,,,,,,,,0,,,65,88
3180,note_on,54,0,1,,,,,,,,,0,,,62,88
3186,note_on,6,0,3,,,,,,,,,2,,,56,0
3186,note_on,0,0,3,,,,,,,,,2,,,53,0
3186,note_on,0,0,3,,,,,,,,,2,,,47,0
3186,note_on,6,0,1,,,,,,,,,0,,,68,0
3186,note_on,0,0,1,,,,,,,,,0,,,62,0
3186,note_on,0,0,1,,,,,,,,,0,,,65,0
3240,note_on,54,0,1,,,,,,,,,0,,,62,88
3240,note_on,0,0,3,,,,,,,,,2,,,56,75
3240,note_on,0,0,3,,,,,,,,,2,,,53,75
3240,note_on,54,0,3,,,,,,,,,2,,,47,75
3240,note_on,0,0,1,,,,,,,,,0,,,65,88
3240,note_on,0,0,1,,,,,,,,,0,,,68,88
3246,note_on,0,0,3,,,,,,,,,2,,,53,0
3246,note_on,6,0,1,,,,,,,,,0,,,68,0
3246,note_on,0,0,1,,,,,,,,,0,,,65,0
3246,note_on,0,0,1,,,,,,,,,0,,,62,0
3246,note_on,6,0,3,,,,,,,,,2,,,56,0
3246,note_on,0,0,3,,,,,,,,,2,,,47,0
3300,note_on,54,0,1,,,,,,,,,0,,,62,88
3300,note_on,0,0,1,,,,,,,,,0,,,68,88
3300,note_on,54,0,3,,,,,,,,,2,,,47,75
3300,note_on,0,0,3,,,,,,,,,2,,,53,75
3300,note_on,0,0,1,,,,,,,,,0,,,65,88
3300,note_on,0,0,3,,,,,,,,,2,,,56,75
3306,note_on,6,0,3,,,,,,,,,2,,,56,0
3306,note_on,0,0,3,,,,,,,,,2,,,53,0
3306,note_on,6,0,1,,,,,,,,,0,,,68,0
3306,note_on,0,0,1,,,,,,,,,0,,,65,0
3306,note_on,0,0,1,,,,,,,,,0,,,62,0
3306,note_on,0,0,3,,,,,,,,,2,,,47,0
3360,note_on,0,0,3,,,,,,,,,2,,,57,75
3360,note_on,0,0,3,,,,,,,,,2,,,53,75
3360,note_on,54,0,3,,,,,,,,,2,,,48,75
3360,control_change,54,0,1,,,,,,,,,0,64,127,,
3360,note_on,0,0,1,,,,,,,,,0,,,65,88
3360,note_on,0,0,1,,,,,,,,,0,,,69,88
3360,note_on,0,0,1,,,,,,,,,0,,,60,88
3480,note_on,0,0,1,,,,,,,,,0,,,65,0
3480,note_on,0,0,1,,,,,,,,,0,,,60,0
3480,note_on,0,0,1,,,,,,,,,0,,,72,88
3480,note_on,120,0,1,,,,,,,,,0,,,69,0
3519,note_on,39,0,1,,,,,,,,,0,,,70,88
3520,note_on,1,0,1,,,,,,,,,0,,,72,0
3559,note_on,39,0,1,,,,,,,,,0,,,70,0
3560,note_on,1,0,1,,,,,,,,,0,,,69,88
3600,note_on,40,0,1,,,,,,,,,0,,,69,0
3600,control_change,0,0,1,,,,,,,,,0,64,0,,
3600,note_on,240,0,3,,,,,,,,,2,,,57,0
3600,note_on,0,0,3,,,,,,,,,2,,,53,0
3600,note_on,0,0,3,,,,,,,,,2,,,48,0
3600,note_on,0,0,3,,,,,,,,,2,,,48,62
3600,note_on,0,0,1,,,,,,,,,0,,,67,49
3606,note_on,6,0,3,,,,,,,,,2,,,48,0
3639,note_on,39,0,1,,,,,,,,,0,,,65,49
3640,note_on,1,0,1,,,,,,,,,0,,,67,0
3660,note_on,54,0,3,,,,,,,,,2,,,48,62
3666,note_on,6,0,3,,,,,,,,,2,,,48,0
3679,note_on,39,0,1,,,,,,,,,0,,,65,0
3680,note_on,1,0,1,,,,,,,,,0,,,64,49
3720,note_on,54,0,3,,,,,,,,,2,,,48,62
3720,note_on,40,0,1,,,,,,,,,0,,,64,0
3720,note_on,0,0,1,,,,,,,,,0,,,62,49
3726,note_on,6,0,3,,,,,,,,,2,,,48,0
3759,note_on,39,0,1,,,,,,,,,0,,,60,49
3760,note_on,1,0,1,,,,,,,,,0,,,62,0
3780,note_on,54,0,3,,,,,,,,,2,,,48,62
3786,note_on,6,0,3,,,,,,,,,2,,,48,0
3799,note_on,39,0,1,,,,,,,,,0,,,60,0
3800,note_on,1,0,1,,,,,,,,,0,,,58,49
3840,note_on,54,0,3,,,,,,,,,2,,,48,88
3840,control_change,0,0,1,,,,,,,,,0,64,127,,
3840,note_on,0,0,1,,,,,,,,,0,,,57,49
3840,note_on,40,0,1,,,,,,,,,0,,,58,0
3879,note_on,39,0,1,,,,,,,,,0,,,58,49
3880,note_on,1,0,1,,,,,,,,,0,,,57,0
3919,note_on,39,0,1,,,,,,,,,0,,,58,0
3920,note_on,1,0,1,,,,,,,,,0,,,60,49
3960,note_on,0,0,3,,,,,,,,,2,,,45,62
3960,note_on,40,0,1,,,,,,,,,0,,,60,0
3960,note_on,0,0,1,,,,,,,,,0,,,72,49
3960,note_on,120,0,3,,,,,,,,,2,,,48,0
3999,note_on,39,0,1,,,,,,,,,0,,,70,49
4000,note_on,1,0,1,,,,,,,,,0,,,72,0
4020,note_on,60,0,3,,,,,,,,,2,,,45,0
4039,note_on,39,0,1,,,,,,,,,0,,,70,0
4040,note_on,1,0,1,,,,,,,,,0,,,69,49
4080,note_on,60,0,3,,,,,,,,,2,,,48,49
4080,note_on,0,0,1,,,,,,,,,0,,,67,49
4080,control_change,0,0,1,,,,,,,,,0,64,0,,
4080,note_on,40,0,1,,,,,,,,,0,,,69,0
4086,note_on,6,0,3,,,,,,,,,2,,,48,0
4119,note_on,39,0,1,,,,,,,,,0,,,65,49
4120,note_on,1,0,1,,,,,,,,,0,,,67,0
4140,note_on,54,0,3,,,,,,,,,2,,,48,49
4146,note_on,6,0,3,,,,,,,,,2,,,48,0
4159,note_on,39,0,1,,,,,,,,,0,,,65,0
4160,note_on,1,0,1,,,,,,,,,0,,,64,49
4200,note_on,54,0,3,,,,,,,,,2,,,48,49
4200,note_on,0,0,1,,,,,,,,,0,,,62,49
4200,note_on,40,0,1,,,,,,,,,0,,,64,0
4206,note_on,6,0,3,,,,,,,,,2,,,48,0
4239,note_on,39,0,1,,,,,,,,,0,,,60,49
4240,note_on,1,0,1,,,,,,,,,0,,,62,0
4260,note_on,54,0,3,,,,,,,,,2,,,48,49
4266,note_on,6,0,3,,,,,,,,,2,,,48,0
4279,note_on,39,0,1,,,,,,,,,0,,,60,0
4280,note_on,1,0,1,,,,,,,,,0,,,58,49
4320,note_on,0,0,3,,,,,,,,,2,,,48,75
4320,control_change,0,0,1,,,,,,,,,0,64,127,,
4320,note_on,0,0,1,,,,,,,,,0,,,57,49
4320,note_on,40,0,1,,,,,,,,,0,,,58,0
4320,control_change,54,0,3,,,,,,,,,2,64,127,,
4359,note_on,39,0,1,,,,,,,,,0,,,58,49
4360,note_on,1,0,1,,,,,,,,,0,,,57,0
4399,note_on,39,0,1,,,,,,,,,0,,,58,0
4400,note_on,1,0,1,,,,,,,,,0,,,60,49
4440,note_on,40,0,1,,,,,,,,,0,,,60,0
4440,note_on,0,0,1,,,,,,,,,0,,,57,49
4440,note_on,120,0,3,,,,,,,,,2,,,48,0
4440,note_on,0,0,3,,,,,,,,,2,,,45,49
4479,note_on,39,0,1,,,,,,,,,0,,,58,49
4480,note_on,1,0,1,,,,,,,,,0,,,57,0
4500,note_on,60,0,3,,,,,,,,,2,,,45,0
4519,note_on,39,0,1,,,,,,,,,0,,,58,0
4520,note_on,1,0,1,,,,,,,,,0,,,60,49
4560,note_on,40,0,1,,,,,,,,,0,,,60,0
4560,note_on,0,0,1,,,,,,,,,0,,,57,49
4560,control_change,60,0,3,,,,,,,,,2,64,0,,
4560,note_on,0,0,3,,,,,,,,,2,,,53,49
4560,control_change,0,0,1,,,,,,,,,0,64,0,,
4599,note_on,39,0,3,,,,,,,,,2,,,55,49
4599,note_on,39,0,1,,,,,,,,,0,,,58,49
4600,note_on,1,0,1,,,,,,,,,0,,,57,0
4600,note_on,1,0,3,,,,,,,,,2,,,53,0
4639,note_on,39,0,3,,,,,,,,,2,,,55,0
4639,note_on,39,0,1,,,,,,,,,0,,,58,0
4640,note_on,1,0,3,,,,,,,,,2,,,57,49
4640,note_on,1,0,1,,,,,,,,,0,,,60,49
4680,note_on,0,0,3,,,,,,,,,2,,,45,49
4680,note_on,0,0,1,,,,,,,,,0,,,57,49
4680,note_on,40,0,1,,,,,,,,,0,,,60,0
4680,note_on,40,0,3,,,,,,,,,2,,,57,0
4719,note_on,39,0,3,,,,,,,,,2,,,46,49
4719,note_on,39,0,1,,,,,,,,,0,,,58,49
4720,note_on,1,0,3,,,,,,,,,2,,,45,0
4720,note_on,1,0,1,,,,,,,,,0,,,57,0
4759,note_on,39,0,1,,,,,,,,,0,,,58,0
4759,note_on,39,0,3,,,,,,,,,2,,,46,0
4760,note_on,1,0,1,,,,,,,,,0,,,60,49
4760,note_on,1,0,3,,,,,,,,,2,,,48,49
4800,note_on,40,0,3,,,,,,,,,2,,,48,0
4800,note_on,0,0,1,,,,,,,,,0,,,57,62
4800,control_change,0,0,1,,,,,,,,,0,64,127,,
4800,note_on,40,0,1,,,,,,,,,0,,,60,0
4800,note_on,0,0,3,,,,,,,,,2,,,41,62
4800,control_change,0,0,3,,,,,,,,,2,64,127,,
4839,note_on,39,0,3,,,,,,,,,2,,,43,62
4839,note_on,39,0,1,,,,,,,,,0,,,58,62
4840,note_on,1,0,1,,,,,,,,,0,,,57,0
4840,note_on,1,0,3,,,,,,,,,2,,,41,0
4879,note_on,39,0,1,,,,,,,,,0,,,58,0
4879,note_on,39,0,3,,,,,,,,,2,,,43,0
4880,note_on,1,0,3,,,,,,,,,2,,,45,62
4880,note_on,1,0,1,,,,,,,,,0,,,60,62
4920,note_on,40,0,1,,,,,,,,,0,,,60,0
4920,note_on,0,0,1,,,,,,,,,0,,,57,75
4920,note_on,40,0,3,,,,,,,,,2,,,45,0
4920,note_on,0,0,3,,,,,,,,,2,,,33,75
4959,note_on,39,0,1,,,,,,,,,0,,,58,75
4959,note_on,39,0,3,,,,,,,,,2,,,34,75
4960,note_on,1,0,3,,,,,,,,,2,,,33,0
4960,note_on,1,0,1,,,,,,,,,0,,,57,0
4999,note_on,39,0,1,,,,,,,,,0,,,58,0
4999,note_on,39,0,3,,,,,,,,,2,,,34,0
5000,note_on,1,0,1,,,,,,,,,0,,,60,75
5000,note_on,1,0,3,,,,,,,,,2,,,36,75
5040,note_on,40,0,3,,,,,,,,,2,,,36,0
5040,note_on,0,0,3,,,,,,,,,2,,,33,88
5040,note_on,0,0,1,,,,,,,,,0,,,57,88
5040,note_on,40,0,1,,,,,,,,,0,,,60,0
5079,note_on,39,0,3,,,,,,,,,2,,,34,88
5079,note_on,39,0,1,,,,,,,,,0,,,58,88
5080,note_on,1,0,1,,,,,,,,,0,,,57,0
5080,note_on,1,0,3,,,,,,,,,2,,,33,0
5119,note_on,39,0,3,,,,,,,,,2,,,34,0
5119,note_on,39,0,1,,,,,,,,,0,,,58,0
5120,note_on,1,0,3,,,,,,,,,2,,,36,88
5120,note_on,1,0,1,,,,,,,,,0,,,60,88
5160,note_on,40,0,3,,,,,,,,,2,,,36,0
5160,note_on,0,0,3,,,,,,,,,2,,,33,101
5160,note_on,40,0,1,,,,,,,,,0,,,60,0
5160,note_on,0,0,1,,,,,,,,,0,,,57,101
5199,note_on,39,0,1,,,,,,,,,0,,,58,101
5199,note_on,39,0,3,,,,,,,,,2,,,34,101
5200,note_on,1,0,1,,,,,,,,,0,,,57,0
5200,note_on,1,0,3,,,,,,,,,2,,,33,0
5239,note_on,39,0,3,,,,,,,,,2,,,34,0
5239,note_on,39,0,1,,,,,,,,,0,,,58,0
5240,note_on,0,0,3,,,,,,,,,2,,,36,101
5240,control_change,1,0,3,,,,,,,,,2,64,0,,
5240,control_change,1,0,1,,,,,,,,,0,64,0,,
5240,note_on,0,0,1,,,,,,,,,0,,,60,101
5280,note_on,0,0,1,,,,,,,,,0,,,56,114
5280,note_on,40,0,1,,,,,,,,,0,,,60,0
5280,note_on,0,0,1,,,,,,,,,0,,,53,114
5280,note_on,0,0,1,,,,,,,,,0,,,61,114
5280,note_on,40,0,3,,,,,,,,,2,,,36,0
5280,control_change,0,0,3,,,,,,,,,2,64,127,,
5280,note_on,0,0,3,,,,,,,,,2,,,37,101
5286,note_on,6,0,3,,,,,,,,,2,,,37,0
5340,note_on,54,0,3,,,,,,,,,2,,,37,101
5346,note_on,6,0,3,,,,,,,,,2,,,37,0
5400,note_on,54,0,3,,,,,,,,,2,,,37,101
5406,note_on,6,0,3,,,,,,,,,2,,,37,0
5460,note_on,54,0,3,,,,,,,,,2,,,37,101
5466,note_on,6,0,3,,,,,,,,,2,,,37,0
5520,control_change,54,0,3,,,,,,,,,2,64,0,,
5520,note_on,0,0,3,,,,,,,,,2,,,37,49
5520,note_on,0,0,1,,,,,,,,,0,,,65,49
5520,note_on,0,0,1,,,,,,,,,0,,,61,49
5520,note_on,0,0,1,,,,,,,,,0,,,56,49
5520,note_on,240,0,1,,,,,,,,,0,,,61,0
5520,note_on,0,0,1,,,,,,,,,0,,,56,0
5520,note_on,0,0,1,,,,,,,,,0,,,53,0
5526,note_on,0,0,1,,,,,,,,,0,,,56,0
5526,note_on,0,0,1,,,,,,,,,0,,,61,0
5526,note_on,6,0,1,,,,,,,,,0,,,65,0
5580,note_on,54,0,1,,,,,,,,,0,,,56,49
5580,note_on,0,0,1,,,,,,,,,0,,,61,49
5580,note_on,0,0,1,,,,,,,,,0,,,65,49
5586,note_on,0,0,1,,,,,,,,,0,,,61,0
5586,note_on,0,0,1,,,,,,,,,0,,,56,0
5586,note_on,6,0,1,,,,,,,,,0,,,65,0
5640,note_on,0,0,1,,,,,,,,,0,,,61,49
5640,note_on,54,0,1,,,,,,,,,0,,,56,49
5640,note_on,0,0,1,,,,,,,,,0,,,65,49
5646,note_on,6,0,1,,,,,,,,,0,,,65,0
5646,note_on,0,0,1,,,,,,,,,0,,,61,0
5646,note_on,0,0,1,,,,,,,,,0,,,56,0
5700,note_on,0,0,1,,,,,,,,,0,,,61,49
5700,note_on,54,0,1,,,,,,,,,0,,,56,49
5700,note_on,0,0,1,,,,,,,,,0,,,65,49
5706,note_on,0,0,1,,,,,,,,,0,,,56,0
5706,note_on,6,0,1,,,,,,,,,0,,,65,0
5706,note_on,0,0,1,,,,,,,,,0,,,61,0
5760,control_change,54,0,1,,,,,,,,,0,64,127,,
5760,note_on,0,0,1,,,,,,,,,0,,,61,49
5760,note_on,0,0,3,,,,,,,,,2,,,49,49
5760,note_on,240,0,3,,,,,,,,,2,,,37,0
5760,control_change,0,0,3,,,,,,,,,2,64,127,,
5760,note_on,0,0,1,,,,,,,,,0,,,65,49
5760,note_on,0,0,3,,,,,,,,,2,,,37,49
5760,note_on,0,0,1,,,,,,,,,0,,,68,49
5766,note_on,6,0,3,,,,,,,,,2,,,49,0
5766,note_on,0,0,3,,,,,,,,,2,,,37,0
5820,note_on,0,0,3,,,,,,,,,2,,,49,49
5820,note_on,54,0,3,,,,,,,,,2,,,37,49
5826,note_on,6,0,3,,,,,,,,,2,,,49,0
5826,note_on,0,0,3,,,,,,,,,2,,,37,0
5880,note_on,54,0,3,,,,,,,,,2,,,37,49
5880,note_on,0,0,3,,,,,,,,,2,,,49,49
5886,note_on,6,0,3,,,,,,,,,2,,,49,0
5886,note_on,0,0,3,,,,,,,,,2,,,37,0
5940,note_on,54,0,3,,,,,,,,,2,,,37,49
5940,note_on,0,0,3,,,,,,,,,2,,,49,49
5946,note_on,6,0,3,,,,,,,,,2,,,49,0
5946,note_on,0,0,3,,,,,,,,,2,,,37,0
6000,note_on,0,0,1,,,,,,,,,0,,,73,49
6000,note_on,0,0,1,,,,,,,,,0,,,65,0
6000,note_on,240,0,1,,,,,,,,,0,,,68,0
6000,note_on,0,0,1,,,,,,,,,0,,,68,49
6000,control_change,54,0,3,,,,,,,,,2,64,0,,
6000,note_on,0,0,3,,,,,,,,,2,,,37,49
6000,note_on,0,0,1,,,,,,,,,0,,,61,0
6000,note_on,0,0,3,,,,,,,,,2,,,49,49
6000,note_on,0,0,1,,,,,,,,,0,,,65,49
6006,note_on,0,0,1,,,,,,,,,0,,,65,0
6006,note_on,0,0,1,,,,,,,,,0,,,68,0
6006,note_on,6,0,1,,,,,,,,,0,,,73,0
6060,note_on,0,0,1,,,,,,,,,0,,,68,49
6060,note_on,54,0,1,,,,,,,,,0,,,65,49
6060,note_on,0,0,1,,,,,,,,,0,,,73,49
6066,note_on,6,0,1,,,,,,,,,0,,,73,0
6066,note_on,0,0,1,,,,,,,,,0,,,68,0
6066,note_on,0,0,1,,,,,,,,,0,,,65,0
6120,note_on,54,0,1,,,,,,,,,0,,,65,49
6120,note_on,0,0,1,,,,,,,,,0,,,68,49
6120,note_on,0,0,1,,,,,,,,,0,,,73,49
6126,note_on,0,0,1,,,,,,,,,0,,,68,0
6126,note_on,6,0,1,,,,,,,,,0,,,73,0
6126,note_on,0,0,1,,,,,,,,,0,,,65,0
6180,control_change,54,0,1,,,,,,,,,0,64,0,,
6180,note_on,0,0,1,,,,,,,,,0,,,65,49
6180,note_on,0,0,1,,,,,,,,,0,,,73,49
6180,note_on,0,0,1,,,,,,,,,0,,,68,49
6186,note_on,6,0,1,,,,,,,,,0,,,73,0
6186,note_on,0,0,1,,,,,,,,,0,,,68,0
6186,note_on,0,0,1,,,,,,,,,0,,,65,0
6240,note_on,0,0,3,,,,,,,,,2,,,45,62
6240,note_on,0,0,3,,,,,,,,,2,,,33,62
6240,control_change,0,0,3,,,,,,,,,2,64,127,,
6240,note_on,0,0,1,,,,,,,,,0,,,73,62
6240,note_on,0,0,1,,,,,,,,,0,,,69,62
6240,note_on,240,0,3,,,,,,,,,2,,,49,0
6240,note_on,0,0,1,,,,,,,,,0,,,67,62
6240,note_on,0,0,1,,,,,,,,,0,,,64,62
6240,control_change,54,0,1,,,,,,,,,0,64,127,,
6240,note_on,0,0,3,,,,,,,,,2,,,37,0
6246,note_on,6,0,3,,,,,,,,,2,,,45,0
6246,note_on,0,0,3,,,,,,,,,2,,,33,0
6300,note_on,0,0,3,,,,,,,,,2,,,45,62
6300,note_on,54,0,3,,,,,,,,,2,,,33,62
6306,note_on,0,0,3,,,,,,,,,2,,,33,0
6306,note_on,6,0,3,,,,,,,,,2,,,45,0
6360,note_on,54,0,3,,,,,,,,,2,,,33,62
6360,note_on,0,0,3,,,,,,,,,2,,,45,62
6366,note_on,6,0,3,,,,,,,,,2,,,45,0
6366,note_on,0,0,3,,,,,,,,,2,,,33,0
6420,note_on,54,0,3,,,,,,,,,2,,,33,62
6420,note_on,0,0,3,,,,,,,,,2,,,45,62
6426,note_on,0,0,3,,,,,,,,,2,,,33,0
6426,note_on,6,0,3,,,,,,,,,2,,,45,0
6480,note_on,0,0,1,,,,,,,,,0,,,67,75
6480,note_on,0,0,1,,,,,,,,,0,,,69,0
6480,note_on,0,0,1,,,,,,,,,0,,,67,0
6480,note_on,0,0,1,,,,,,,,,0,,,64,0
6480,note_on,240,0,1,,,,,,,,,0,,,73,0
6480,control_change,54,0,3,,,,,,,,,2,64,0,,
6480,note_on,0,0,3,,,,,,,,,2,,,33,62
6480,note_on,0,0,3,,,,,,,,,2,,,45,62
6480,note_on,0,0,1,,,,,,,,,0,,,69,75
6480,note_on,0,0,1,,,,,,,,,0,,,76,75
6480,note_on,0,0,1,,,,,,,,,0,,,73,75
6486,note_on,0,0,1,,,,,,,,,0,,,67,0
6486,note_on,6,0,1,,,,,,,,,0,,,76,0
6486,note_on,0,0,1,,,,,,,,,0,,,73,0
6486,note_on,0,0,1,,,,,,,,,0,,,69,0
6540,note_on,0,0,1,,,,,,,,,0,,,76,75
6540,note_on,0,0,1,,,,,,,,,0,,,73,75
6540,note_on,0,0,1,,,,,,,,,0,,,69,75
6540,note_on,54,0,1,,,,,,,,,0,,,67,75
6546,note_on,0,0,1,,,,,,,,,0,,,73,0
6546,note_on,0,0,1,,,,,,,,,0,,,69,0
6546,note_on,0,0,1,,,,,,,,,0,,,67,0
6546,note_on,6,0,1,,,,,,,,,0,,,76,0
6600,note_on,54,0,1,,,,,,,,,0,,,67,75
6600,note_on,0,0,1,,,,,,,,,0,,,76,75
6600,note_on,0,0,1,,,,,,,,,0,,,73,75
6600,note_on,0,0,1,,,,,,,,,0,,,69,75
6606,note_on,6,0,1,,,,,,,,,0,,,76,0
6606,note_on,0,0,1,,,,,,,,,0,,,67,0
6606,note_on,0,0,1,,,,,,,,,0,,,69,0
6606,note_on,0,0,1,,,,,,,,,0,,,73,0
6660,control_change,54,0,1,,,,,,,,,0,64,0,,
6660,note_on,0,0,1,,,,,,,,,0,,,67,75
6660,note_on,0,0,1,,,,,,,,,0,,,76,75
6660,note_on,0,0,1,,,,,,,,,0,,,73,75
6660,note_on,0,0,1,,,,,,,,,0,,,69,75
6666,note_on,0,0,1,,,,,,,,,0,,,73,0
6666,note_on,0,0,1,,,,,,,,,0,,,69,0
6666,note_on,0,0,1,,,,,,,,,0,,,67,0
6666,note_on,6,0,1,,,,,,,,,0,,,76,0
6720,note_on,0,0,1,,,,,,,,,0,,,76,88
6720,note_on,0,0,1,,,,,,,,,0,,,69,88
6720,note_on,0,0,1,,,,,,,,,0,,,73,88
6720,control_change,54,0,1,,,,,,,,,0,64,127,,
6720,note_on,0,0,1,,,,,,,,,0,,,79,88
6720,note_on,0,0,1,,,,,,,,,0,,,81,88
6720,note_on,240,0,3,,,,,,,,,2,,,45,0
6720,note_on,0,0,3,,,,,,,,,2,,,33,0
6720,control_change,0,0,3,,,,,,,,,2,64,127,,
6720,note_on,0,0,3,,,,,,,,,2,,,33,88
6720,note_on,0,0,3,,,,,,,,,2,,,45,88
6726,note_on,0,0,3,,,,,,,,,2,,,33,0
6726,note_on,6,0,3,,,,,,,,,2,,,45,0
6780,note_on,54,0,3,,,,,,,,,2,,,33,88
6780,note_on,0,0,3,,,,,,,,,2,,,45,88
6786,note_on,6,0,3,,,,,,,,,2,,,45,0
6786,note_on,0,0,3,,,,,,,,,2,,,33,0
6840,note_on,54,0,3,,,,,,,,,2,,,33,88
6840,note_on,0,0,3,,,,,,,,,2,,,45,88
6846,note_on,6,0,3,,,,,,,,,2,,,45,0
6846,note_on,0,0,3,,,,,,,,,2,,,33,0
6900,note_on,54,0,3,,,,,,,,,2,,,33,88
6900,note_on,0,0,3,,,,,,,,,2,,,45,88
6906,note_on,0,0,3,,,,,,,,,2,,,33,0
6906,note_on,6,0,3,,,,,,,,,2,,,45,0
6960,note_on,0,0,1,,,,,,,,,0,,,81,88
6960,note_on,0,0,1,,,,,,,,,0,,,76,0
6960,note_on,0,0,3,,,,,,,,,2,,,33,88
6960,note_on,0,0,3,,,,,,,,,2,,,45,88
6960,note_on,0,0,1,,,,,,,,,0,,,85,88
6960,note_on,0,0,1,,,,,,,,,0,,,79,88
6960,note_on,240,0,1,,,,,,,,,0,,,81,0
6960,note_on,0,0,1,,,,,,,,,0,,,76,88
6960,note_on,0,0,1,,,,,,,,,0,,,79,0
6960,note_on,0,0,1,,,,,,,,,0,,,73,0
6960,note_on,0,0,1,,,,,,,,,0,,,69,0
6960,control_change,54,0,3,,,,,,,,,2,64,0,,
6966,note_on,6,0,1,,,,,,,,,0,,,85,0
6966,note_on,0,0,1,,,,,,,,,0,,,79,0
6966,note_on,0,0,1,,,,,,,,,0,,,81,0
6966,note_on,0,0,1,,,,,,,,,0,,,76,0
7020,note_on,54,0,1,,,,,,,,,0,,,76,88
7020,note_on,0,0,1,,,,,,,,,0,,,79,88
7020,note_on,0,0,1,,,,,,,,,0,,,81,88
7020,note_on,0,0,1,,,,,,,,,0,,,85,88
7026,note_on,0,0,1,,,,,,,,,0,,,79,0
7026,note_on,0,0,1,,,,,,,,,0,,,81,0
7026,note_on,6,0,1,,,,,,,,,0,,,85,0
7026,note_on,0,0,1,,,,,,,,,0,,,76,0
7080,note_on,54,0,1,,,,,,,,,0,,,76,88
7080,note_on,0,0,1,,,,,,,,,0,,,79,88
7080,note_on,0,0,1,,,,,,,,,0,,,81,88
7080,note_on,0,0,1,,,,,,,,,0,,,85,88
7086,note_on,6,0,1,,,,,,,,,0,,,85,0
7086,note_on,0,0,1,,,,,,,,,0,,,76,0
7086,note_on,0,0,1,,,,,,,,,0,,,79,0
7086,note_on,0,0,1,,,,,,,,,0,,,81,0
7140,note_on,0,0,1,,,,,,,,,0,,,85,88
7140,control_change,54,0,1,,,,,,,,,0,64,0,,
7140,note_on,0,0,1,,,,,,,,,0,,,79,88
7140,note_on,0,0,1,,,,,,,,,0,,,76,88
7140,note_on,0,0,1,,,,,,,,,0,,,81,88
7146,note_on,0,0,1,,,,,,,,,0,,,76,0
7146,note_on,6,0,1,,,,,,,,,0,,,85,0
7146,note_on,0,0,1,,,,,,,,,0,,,81,0
7146,note_on,0,0,1,,,,,,,,,0,,,79,0
7200,note_on,54,0,1,,,,,,,,,0,,,74,101
7200,note_on,0,0,3,,,,,,,,,2,,,45,88
7200,note_on,0,0,3,,,,,,,,,2,,,42,88
7200,note_on,0,0,3,,,,,,,,,2,,,38,88
7200,note_on,0,0,1,,,,,,,,,0,,,78,101
7200,note_on,0,0,1,,,,,,,,,0,,,81,101
7200,note_on,0,0,1,,,,,,,,,0,,,86,101
7200,note_on,0,0,3,,,,,,,,,2,,,50,88
7200,note_on,240,0,3,,,,,,,,,2,,,45,0
7200,note_on,0,0,3,,,,,,,,,2,,,33,0
7440,note_on,0,0,3,,,,,,,,,2,,,42,0
7440,note_on,0,0,1,,,,,,,,,0,,,62,101
7440,note_on,0,0,1,,,,,,,,,0,,,57,101
7440,note_on,0,0,1,,,,,,,,,0,,,81,0
7440,note_on,0,0,1,,,,,,,,,0,,,78,0
7440,note_on,0,0,1,,,,,,,,,0,,,74,0
7440,note_on,240,0,1,,,,,,,,,0,,,86,0
7440,note_on,0,0,3,,,,,,,,,2,,,38,0
7440,note_on,240,0,3,,,,,,,,,2,,,50,0
7440,note_on,0,0,3,,,,,,,,,2,,,42,88
7440,note_on,0,0,3,,,,,,,,,2,,,45,0
7440,note_on,0,0,3,,,,,,,,,2,,,50,88
7446,note_on,0,0,1,,,,,,,,,0,,,57,0
7446,note_on,6,0,1,,,,,,,,,0,,,62,0
7446,note_on,0,0,3,,,,,,,,,2,,,42,0
7446,note_on,6,0,3,,,,,,,,,2,,,50,0
7500,control_change,54,0,1,,,,,,,,,0,64,0,,
7500,note_on,0,0,1,,,,,,,,,0,,,57,101
7500,control_change,54,0,3,,,,,,,,,2,64,0,,
7500,note_on,0,0,3,,,,,,,,,2,,,42,88
7500,note_on,0,0,1,,,,,,,,,0,,,62,101
7500,note_on,0,0,3,,,,,,,,,2,,,50,88
7506,note_on,0,0,3,,,,,,,,,2,,,42,0
7506,note_on,0,0,1,,,,,,,,,0,,,57,0
7506,note_on,6,0,1,,,,,,,,,0,,,62,0
7506,note_on,6,0,3,,,,,,,,,2,,,50,0
7560,note_on,0,0,1,,,,,,,,,0,,,62,101
7560,note_on,54,0,1,,,,,,,,,0,,,57,101
7560,note_on,0,0,3,,,,,,,,,2,,,50,88
7560,note_on,54,0,3,,,,,,,,,2,,,42,88
7566,note_on,0,0,3,,,,,,,,,2,,,42,0
7566,note_on,6,0,1,,,,,,,,,0,,,62,0
7566,note_on,0,0,1,,,,,,,,,0,,,57,0
7566,note_on,6,0,3,,,,,,,,,2,,,50,0
7620,note_on,54,0,1,,,,,,,,,0,,,57,101
7620,note_on,0,0,1,,,,,,,,,0,,,62,101
7620,note_on,54,0,3,,,,,,,,,2,,,42,88
7620,note_on,0,0,3,,,,,,,,,2,,,50,88
7626,note_on,6,0,1,,,,,,,,,0,,,62,0
7626,note_on,0,0,1,,,,,,,,,0,,,57,0
7626,note_on,6,0,3,,,,,,,,,2,,,50,0
7626,note_on,0,0,3,,,,,,,,,2,,,42,0
7680,note_on,54,0,3,,,,,,,,,2,,,42,88
7680,note_on,0,0,3,,,,,,,,,2,,,50,88
7680,note_on,54,0,1,,,,,,,,,0,,,57,101
7680,note_on,0,0,1,,,,,,,,,0,,,62,101
7800,note_on,0,0,3,,,,,,,,,2,,,43,62
7800,note_on,0,0,1,,,,,,,,,0,,,64,75
7800,note_on,0,0,1,,,,,,,,,0,,,59,75
7800,note_on,120,0,1,,,,,,,,,0,,,57,0
7800,note_on,120,0,3,,,,,,,,,2,,,42,0
7800,note_on,0,0,3,,,,,,,,,2,,,52,62
7860,note_on,0,0,1,,,,,,,,,0,,,62,0
7860,note_on,0,0,1,,,,,,,,,0,,,59,0
7860,note_on,60,0,1,,,,,,,,,0,,,64,0
7860,note_on,60,0,3,,,,,,,,,2,,,52,0
7860,note_on,0,0,3,,,,,,,,,2,,,50,0
7860,note_on,0,0,3,,,,,,,,,2,,,43,0
7920,note_on,60,0,1,,,,,,,,,0,,,57,75
7920,note_on,60,0,3,,,,,,,,,2,,,45,62
7959,note_on,39,0,1,,,,,,,,,0,,,59,75
7959,note_on,39,0,3,,,,,,,,,2,,,47,62
7960,note_on,1,0,3,,,,,,,,,2,,,45,0
7960,note_on,1,0,1,,,,,,,,,0,,,57,0
7999,note_on,39,0,3,,,,,,,,,2,,,47,0
7999,note_on,39,0,1,,,,,,,,,0,,,59,0
8000,note_on,1,0,3,,,,,,,,,2,,,48,62
8000,note_on,1,0,1,,,,,,,,,0,,,60,75
8040,note_on,0,0,1,,,,,,,,,0,,,62,75
8040,note_on,40,0,1,,,,,,,,,0,,,60,0
8040,note_on,40,0,3,,,,,,,,,2,,,48,0
8040,note_on,0,0,3,,,,,,,,,2,,,50,62
8079,note_on,39,0,1,,,,,,,,,0,,,64,75
8079,note_on,39,0,3,,,,,,,,,2,,,52,62
8080,note_on,1,0,1,,,,,,,,,0,,,62,0
8080,note_on,1,0,3,,,,,,,,,2,,,50,0
8119,note_on,39,0,3,,,,,,,,,2,,,52,0
8119,note_on,39,0,1,,,,,,,,,0,,,64,0
8120,note_on,1,0,3,,,,,,,,,2,,,54,62
8120,note_on,1,0,1,,,,,,,,,0,,,66,75
8160,note_on,0,0,3,,,,,,,,,2,,,46,88
8160,note_on,0,0,1,,,,,,,,,0,,,58,101
8160,note_on,40,0,3,,,,,,,,,2,,,54,0
8160,note_on,40,0,1,,,,,,,,,0,,,66,0
8220,note_on,60,0,1,,,,,,,,,0,,,58,0
8220,note_on,60,0,3,,,,,,,,,2,,,46,0
8220,note_on,0,0,3,,,,,,,,,2,,,54,62
8220,note_on,0,0,1,,,,,,,,,0,,,66,75
8280,note_on,0,0,3,,,,,,,,,2,,,47,88
8280,note_on,60,0,1,,,,,,,,,0,,,66,0
8280,note_on,0,0,1,,,,,,,,,0,,,59,101
8280,note_on,60,0,3,,,,,,,,,2,,,54,0
8340,note_on,60,0,3,,,,,,,,,2,,,47,0
8340,note_on,0,0,3,,,,,,,,,2,,,55,62
8340,note_on,60,0,1,,,,,,,,,0,,,59,0
8340,note_on,0,0,1,,,,,,,,,0,,,67,75
8400,note_on,0,0,3,,,,,,,,,2,,,49,62
8400,note_on,60,0,1,,,,,,,,,0,,,67,0
8400,note_on,0,0,1,,,,,,,,,0,,,64,75
8400,note_on,0,0,1,,,,,,,,,0,,,67,75
8400,note_on,0,0,1,,,,,,,,,0,,,69,75
8400,note_on,60,0,3,,,,,,,,,2,,,55,0
8400,note_on,0,0,3,,,,,,,,,2,,,57,62
8400,note_on,0,0,3,,,,,,,,,2,,,55,62
8406,note_on,6,0,1,,,,,,,,,0,,,69,0
8406,note_on,0,0,1,,,,,,,,,0,,,67,0
8406,note_on,0,0,1,,,,,,,,,0,,,64,0
8406,note_on,0,0,3,,,,,,,,,2,,,49,0
8406,note_on,0,0,3,,,,,,,,,2,,,55,0
8406,note_on,6,0,3,,,,,,,,,2,,,57,0
8460,note_on,54,0,3,,,,,,,,,2,,,49,62
8460,note_on,0,0,3,,,,,,,,,2,,,55,62
8460,note_on,0,0,3,,,,,,,,,2,,,57,62
8460,note_on,0,0,1,,,,,,,,,0,,,69,75
8460,note_on,0,0,1,,,,,,,,,0,,,67,75
8460,note_on,54,0,1,,,,,,,,,0,,,64,75
8466,note_on,6,0,1,,,,,,,,,0,,,69,0
8466,note_on,0,0,3,,,,,,,,,2,,,49,0
8466,note_on,0,0,3,,,,,,,,,2,,,55,0
8466,note_on,6,0,3,,,,,,,,,2,,,57,0
8466,note_on,0,0,1,,,,,,,,,0,,,64,0
8466,note_on,0,0,1,,,,,,,,,0,,,67,0
8520,note_on,0,0,1,,,,,,,,,0,,,69,75
8520,note_on,0,0,3,,,,,,,,,2,,,55,62
8520,note_on,0,0,3,,,,,,,,,2,,,57,62
8520,note_on,0,0,1,,,,,,,,,0,,,67,75
8520,note_on,54,0,1,,,,,,,,,0,,,64,75
8520,note_on,54,0,3,,,,,,,,,2,,,49,62
8526,note_on,0,0,3,,,,,,,,,2,,,49,0
8526,note_on,0,0,3,,,,,,,,,2,,,55,0
8526,note_on,6,0,3,,,,,,,,,2,,,57,0
8526,note_on,0,0,1,,,,,,,,,0,,,67,0
8526,note_on,0,0,1,,,,,,,,,0,,,64,0
8526,note_on,6,0,1,,,,,,,,,0,,,69,0
8580,note_on,54,0,3,,,,,,,,,2,,,49,62
8580,note_on,0,0,3,,,,,,,,,2,,,57,62
8580,note_on,54,0,1,,,,,,,,,0,,,64,75
8580,note_on,0,0,1,,,,,,,,,0,,,67,75
8580,note_on,0,0,1,,,,,,,,,0,,,69,75
8580,note_on,0,0,3,,,,,,,,,2,,,55,62
8586,note_on,0,0,3,,,,,,,,,2,,,49,0
8586,note_on,6,0,3,,,,,,,,,2,,,57,0
8586,note_on,0,0,3,,,,,,,,,2,,,55,0
8586,note_on,6,0,1,,,,,,,,,0,,,69,0
8586,note_on,0,0,1,,,,,,,,,0,,,67,0
8586,note_on,0,0,1,,,,,,,,,0,,,64,0
8640,note_on,0,0,3,,,,,,,,,2,,,57,62
8640,note_on,54,0,3,,,,,,,,,2,,,49,62
8640,note_on,0,0,1,,,,,,,,,0,,,67,75
8640,note_on,0,0,3,,,,,,,,,2,,,55,62
8640,note_on,0,0,1,,,,,,,,,0,,,69,75
8640,note_on,54,0,1,,,,,,,,,0,,,64,75
8760,note_on,120,0,1,,,,,,,,,0,,,69,0
8760,note_on,0,0,1,,,,,,,,,0,,,64,0
8760,note_on,0,0,1,,,,,,,,,0,,,62,75
8760,note_on,0,0,1,,,,,,,,,0,,,71,75
8760,note_on,0,0,3,,,,,,,,,2,,,49,0
8760,note_on,0,0,3,,,,,,,,,2,,,50,62
8760,note_on,0,0,3,,,,,,,,,2,,,59,62
8760,note_on,120,0,3,,,,,,,,,2,,,57,0
8820,note_on,60,0,3,,,,,,,,,2,,,59,0
8820,note_on,0,0,3,,,,,,,,,2,,,50,0
8820,note_on,0,0,3,,,,,,,,,2,,,55,0
8820,note_on,0,0,1,,,,,,,,,0,,,67,0
8820,note_on,0,0,1,,,,,,,,,0,,,62,0
8820,note_on,60,0,1,,,,,,,,,0,,,71,0
8880,note_on,60,0,3,,,,,,,,,2,,,50,62
8880,note_on,60,0,1,,,,,,,,,0,,,62,75
8919,note_on,39,0,3,,,,,,,,,2,,,52,62
8919,note_on,39,0,1,,,,,,,,,0,,,64,75
8920,note_on,1,0,3,,,,,,,,,2,,,50,0
8920,note_on,1,0,1,,,,,,,,,0,,,62,0
8959,note_on,39,0,3,,,,,,,,,2,,,52,0
8959,note_on,39,0,1,,,,,,,,,0,,,64,0
8960,note_on,1,0,3,,,,,,,,,2,,,54,62
8960,note_on,1,0,1,,,,,,,,,0,,,66,75
9000,note_on,40,0,3,,,,,,,,,2,,,54,0
9000,note_on,40,0,1,,,,,,,,,0,,,66,0
9000,note_on,0,0,1,,,,,,,,,0,,,67,75
9000,note_on,0,0,3,,,,,,,,,2,,,55,62
9039,note_on,39,0,1,,,,,,,,,0,,,69,75
9039,note_on,39,0,3,,,,,,,,,2,,,57,62
9040,note_on,1,0,1,,,,,,,,,0,,,67,0
9040,note_on,1,0,3,,,,,,,,,2,,,55,0
9079,note_on,39,0,1,,,,,,,,,0,,,69,0
9079,note_on,39,0,3,,,,,,,,,2,,,57,0
9080,note_on,1,0,3,,,,,,,,,2,,,59,62
9080,note_on,1,0,1,,,,,,,,,0,,,71,75
9120,note_on,40,0,3,,,,,,,,,2,,,59,0
9120,note_on,0,0,1,,,,,,,,,0,,,63,101
9120,note_on,0,0,3,,,,,,,,,2,,,51,88
9120,note_on,40,0,1,,,,,,,,,0,,,71,0
9180,note_on,0,0,3,,,,,,,,,2,,,59,62
9180,note_on,0,0,1,,,,,,,,,0,,,71,75
9180,note_on,60,0,1,,,,,,,,,0,,,63,0
9180,note_on,60,0,3,,,,,,,,,2,,,51,0
9240,note_on,60,0,1,,,,,,,,,0,,,71,0
9240,note_on,0,0,1,,,,,,,,,0,,,64,75
9240,note_on,60,0,3,,,,,,,,,2,,,59,0
9240,note_on,0,0,3,,,,,,,,,2,,,52,62
9300,note_on,0,0,1,,,,,,,,,0,,,72,75
9300,note_on,60,0,1,,,,,,,,,0,,,64,0
9300,note_on,0,0,3,,,,,,,,,2,,,60,62
9300,note_on,60,0,3,,,,,,,,,2,,,52,0
9360,note_on,0,0,1,,,,,,,,,0,,,73,75
9360,note_on,0,0,1,,,,,,,,,0,,,70,75
9360,note_on,0,0,1,,,,,,,,,0,,,67,75
9360,note_on,60,0,1,,,,,,,,,0,,,72,0
9360,note_on,60,0,3,,,,,,,,,2,,,60,0
9360,note_on,0,0,3,,,,,,,,,2,,,61,62
9360,note_on,0,0,3,,,,,,,,,2,,,58,62
9360,note_on,0,0,3,,,,,,,,,2,,,52,62
9366,note_on,0,0,3,,,,,,,,,2,,,52,0
9366,note_on,0,0,3,,,,,,,,,2,,,58,0
9366,note_on,6,0,3,,,,,,,,,2,,,61,0
9366,note_on,6,0,1,,,,,,,,,0,,,73,0
9366,note_on,0,0,1,,,,,,,,,0,,,70,0
9366,note_on,0,0,1,,,,,,,,,0,,,67,0
9420,note_on,0,0,1,,,,,,,,,0,,,70,75
9420,note_on,0,0,1,,,,,,,,,0,,,73,75
9420,note_on,54,0,1,,,,,,,,,0,,,67,75
9420,note_on,0,0,3,,,,,,,,,2,,,58,62
9420,note_on,0,0,3,,,,,,,,,2,,,61,62
9420,note_on,54,0,3,,,,,,,,,2,,,52,62
9426,note_on,0,0,3,,,,,,,,,2,,,58,0
9426,note_on,0,0,1,,,,,,,,,0,,,67,0
9426,note_on,0,0,1,,,,,,,,,0,,,70,0
9426,note_on,6,0,1,,,,,,,,,0,,,73,0
9426,note_on,0,0,3,,,,,,,,,2,,,52,0
9426,note_on,6,0,3,,,,,,,,,2,,,61,0
9480,note_on,0,0,3,,,,,,,,,2,,,58,62
9480,note_on,0,0,3,,,,,,,,,2,,,61,62
9480,note_on,54,0,1,,,,,,,,,0,,,67,75
9480,note_on,0,0,1,,,,,,,,,0,,,70,75
9480,note_on,0,0,1,,,,,,,,,0,,,73,75
9480,note_on,54,0,3,,,,,,,,,2,,,52,62
9486,note_on,0,0,1,,,,,,,,,0,,,70,0
9486,note_on,6,0,3,,,,,,,,,2,,,61,0
9486,note_on,0,0,3,,,,,,,,,2,,,58,0
9486,note_on,6,0,1,,,,,,,,,0,,,73,0
9486,note_on,0,0,1,,,,,,,,,0,,,67,0
9486,note_on,0,0,3,,,,,,,,,2,,,52,0
9540,note_on,0,0,3,,,,,,,,,2,,,58,62
9540,note_on,0,0,1,,,,,,,,,0,,,73,75
9540,note_on,0,0,1,,,,,,,,,0,,,70,75
9540,note_on,54,0,1,,,,,,,,,0,,,67,75
9540,note_on,0,0,3,,,,,,,,,2,,,61,62
9540,note_on,54,0,3,,,,,,,,,2,,,52,62
9546,note_on,0,0,3,,,,,,,,,2,,,52,0
9546,note_on,0,0,3,,,,,,,,,2,,,58,0
9546,note_on,6,0,3,,,,,,,,,2,,,61,0
9546,note_on,0,0,1,,,,,,,,,0,,,70,0
9546,note_on,0,0,1,,,,,,,,,0,,,67,0
9546,note_on,6,0,1,,,,,,,,,0,,,73,0
9600,note_on,0,0,3,,,,,,,,,2,,,58,62
9600,note_on,0,0,1,,,,,,,,,0,,,73,75
9600,note_on,0,0,1,,,,,,,,,0,,,70,75
9600,note_on,54,0,1,,,,,,,,,0,,,67,75
9600,note_on,54,0,3,,,,,,,,,2,,,52,62
9600,note_on,0,0,3,,,,,,,,,2,,,61,62
9720,note_on,0,0,3,,,,,,,,,2,,,53,62
9720,note_on,0,0,3,,,,,,,,,2,,,52,0
9720,note_on,0,0,3,,,,,,,,,2,,,62,62
9720,note_on,120,0,3,,,,,,,,,2,,,61,0
9720,note_on,0,0,1,,,,,,,,,0,,,74,75
9720,note_on,0,0,1,,,,,,,,,0,,,65,75
9720,note_on,0,0,1,,,,,,,,,0,,,67,0
9720,note_on,120,0,1,,,,,,,,,0,,,73,0
9780,note_on,60,0,1,,,,,,,,,0,,,74,0
9780,note_on,0,0,1,,,,,,,,,0,,,65,0
9780,note_on,0,0,1,,,,,,,,,0,,,70,0
9780,note_on,60,0,3,,,,,,,,,2,,,62,0
9780,note_on,0,0,3,,,,,,,,,2,,,53,0
9780,note_on,0,0,3,,,,,,,,,2,,,58,0
9840,note_on,60,0,1,,,,,,,,,0,,,65,75
9840,note_on,60,0,3,,,,,,,,,2,,,53,62
9879,note_on,39,0,1,,,,,,,,,0,,,67,75
9879,note_on,39,0,3,,,,,,,,,2,,,55,62
9880,note_on,1,0,1,,,,,,,,,0,,,65,0
9880,note_on,1,0,3,,,,,,,,,2,,,53,0
9919,note_on,39,0,1,,,,,,,,,0,,,67,0
9919,note_on,39,0,3,,,,,,,,,2,,,55,0
9920,note_on,1,0,3,,,,,,,,,2,,,57,62
9920,note_on,1,0,1,,,,,,,,,0,,,69,75
9960,note_on,40,0,3,,,,,,,,,2,,,57,0
9960,note_on,0,0,3,,,,,,,,,2,,,58,62
9960,note_on,0,0,1,,,,,,,,,0,,,70,75
9960,note_on,40,0,1,,,,,,,,,0,,,69,0
9999,note_on,39,0,1,,,,,,,,,0,,,72,75
9999,note_on,39,0,3,,,,,,,,,2,,,60,62
10000,note_on,1,0,3,,,,,,,,,2,,,58,0
10000,note_on,1,0,1,,,,,,,,,0,,,70,0
10039,note_on,39,0,3,,,,,,,,,2,,,60,0
10039,note_on,39,0,1,,,,,,,,,0,,,72,0
10040,note_on,1,0,3,,,,,,,,,2,,,62,62
10040,note_on,1,0,1,,,,,,,,,0,,,74,75
10080,note_on,40,0,1,,,,,,,,,0,,,74,0
10080,note_on,0,0,3,,,,,,,,,2,,,51,62
10080,note_on,0,0,1,,,,,,,,,0,,,75,75
10080,note_on,40,0,3,,,,,,,,,2,,,62,0
10140,note_on,0,0,3,,,,,,,,,2,,,58,62
10140,note_on,60,0,3,,,,,,,,,2,,,51,0
10140,note_on,0,0,1,,,,,,,,,0,,,67,75
10140,note_on,60,0,1,,,,,,,,,0,,,75,0
10200,note_on,60,0,3,,,,,,,,,2,,,58,0
10200,note_on,0,0,1,,,,,,,,,0,,,74,75
10200,note_on,60,0,1,,,,,,,,,0,,,67,0
10200,note_on,0,0,3,,,,,,,,,2,,,58,62
10260,note_on,0,0,1,,,,,,,,,0,,,65,75
10260,note_on,60,0,3,,,,,,,,,2,,,58,0
10260,note_on,60,0,1,,,,,,,,,0,,,74,0
10260,note_on,0,0,3,,,,,,,,,2,,,62,62
10320,note_on,0,0,1,,,,,,,,,0,,,67,75
10320,note_on,0,0,3,,,,,,,,,2,,,34,62
10320,note_on,0,0,3,,,,,,,,,2,,,46,62
10320,note_on,0,0,1,,,,,,,,,0,,,73,75
10320,note_on,0,0,1,,,,,,,,,0,,,70,75
10320,note_on,0,0,1,,,,,,,,,0,,,64,75
10320,note_on,60,0,1,,,,,,,,,0,,,65,0
10320,note_on,60,0,3,,,,,,,,,2,,,62,0
10326,note_on,0,0,3,,,,,,,,,2,,,34,0
10326,note_on,6,0,3,,,,,,,,,2,,,46,0
10326,note_on,0,0,1,,,,,,,,,0,,,70,0
10326,note_on,0,0,1,,,,,,,,,0,,,64,0
10326,note_on,6,0,1,,,,,,,,,0,,,73,0
10326,note_on,0,0,1,,,,,,,,,0,,,67,0
10380,note_on,0,0,3,,,,,,,,,2,,,46,62
10380,note_on,54,0,1,,,,,,,,,0,,,64,75
10380,note_on,0,0,1,,,,,,,,,0,,,70,75
10380,note_on,0,0,1,,,,,,,,,0,,,67,75
10380,note_on,0,0,1,,,,,,,,,0,,,73,75
10380,note_on,54,0,3,,,,,,,,,2,,,34,62
10386,note_on,0,0,1,,,,,,,,,0,,,64,0
10386,note_on,0,0,1,,,,,,,,,0,,,67,0
10386,note_on,0,0,1,,,,,,,,,0,,,70,0
10386,note_on,6,0,3,,,,,,,,,2,,,46,0
10386,note_on,6,0,1,,,,,,,,,0,,,73,0
10386,note_on,0,0,3,,,,,,,,,2,,,34,0
10440,note_on,54,0,3,,,,,,,,,2,,,34,62
10440,note_on,0,0,3,,,,,,,,,2,,,46,62
10440,note_on,54,0,1,,,,,,,,,0,,,64,75
10440,note_on,0,0,1,,,,,,,,,0,,,67,75
10440,note_on,0,0,1,,,,,,,,,0,,,70,75
10440,note_on,0,0,1,,,,,,,,,0,,,73,75
10446,note_on,0,0,1,,,,,,,,,0,,,67,0
10446,note_on,6,0,3,,,,,,,,,2,,,46,0
10446,note_on,0,0,3,,,,,,,,,2,,,34,0
10446,note_on,6,0,1,,,,,,,,,0,,,73,0
10446,note_on,0,0,1,,,,,,,,,0,,,64,0
10446,note_on,0,0,1,,,,,,,,,0,,,70,0
10500,note_on,0,0,1,,,,,,,,,0,,,73,75
10500,note_on,0,0,1,,,,,,,,,0,,,70,75
10500,note_on,0,0,1,,,,,,,,,0,,,67,75
10500,note_on,54,0,1,,,,,,,,,0,,,64,75
10500,note_on,0,0,3,,,,,,,,,2,,,46,62
10500,note_on,54,0,3,,,,,,,,,2,,,34,62
10506,note_on,0,0,3,,,,,,,,,2,,,34,0
10506,note_on,6,0,1,,,,,,,,,0,,,73,0
10506,note_on,0,0,1,,,,,,,,,0,,,64,0
10506,note_on,0,0,1,,,,,,,,,0,,,67,0
10506,note_on,0,0,1,,,,,,,,,0,,,70,0
10506,note_on,6,0,3,,,,,,,,,2,,,46,0
10560,note_on,0,0,3,,,,,,,,,2,,,46,62
10560,note_on,54,0,3,,,,,,,,,2,,,34,62
10560,note_on,54,0,1,,,,,,,,,0,,,64,75
10560,note_on,0,0,1,,,,,,,,,0,,,67,75
10560,note_on,0,0,1,,,,,,,,,0,,,70,75
10560,note_on,0,0,1,,,,,,,,,0,,,73,75
10680,note_on,120,0,1,,,,,,,,,0,,,73,0
10680,note_on,0,0,1,,,,,,,,,0,,,67,0
10680,note_on,0,0,1,,,,,,,,,0,,,74,75
10680,note_on,0,0,1,,,,,,,,,0,,,65,75
10680,note_on,0,0,1,,,,,,,,,0,,,64,0
10740,note_on,0,0,3,,,,,,,,,2,,,34,0
10740,note_on,60,0,1,,,,,,,,,0,,,74,0
10740,note_on,0,0,1,,,,,,,,,0,,,65,0
10740,note_on,0,0,1,,,,,,,,,0,,,70,0
10740,note_on,180,0,3,,,,,,,,,2,,,46,0
10800,note_on,60,0,1,,,,,,,,,0,,,65,75
10800,note_on,60,0,3,,,,,,,,,2,,,53,62
10839,note_on,39,0,3,,,,,,,,,2,,,55,62
10839,note_on,39,0,1,,,,,,,,,0,,,67,75
10840,note_on,1,0,1,,,,,,,,,0,,,65,0
10840,note_on,1,0,3,,,,,,,,,2,,,53,0
10879,note_on,39,0,1,,,,,,,,,0,,,67,0
10879,note_on,39,0,3,,,,,,,,,2,,,55,0
10880,note_on,1,0,1,,,,,,,,,0,,,69,75
10880,note_on,1,0,3,,,,,,,,,2,,,57,62
10920,note_on,0,0,1,,,,,,,,,0,,,70,75
10920,note_on,40,0,3,,,,,,,,,2,,,57,0
10920,note_on,40,0,1,,,,,,,,,0,,,69,0
10920,note_on,0,0,3,,,,,,,,,2,,,58,62
10959,note_on,39,0,1,,,,,,,,,0,,,72,75
10959,note_on,39,0,3,,,,,,,,,2,,,60,62
10960,note_on,1,0,1,,,,,,,,,0,,,70,0
10960,note_on,1,0,3,,,,,,,,,2,,,58,0
10999,note_on,39,0,3,,,,,,,,,2,,,60,0
10999,note_on,39,0,1,,,,,,,,,0,,,72,0
11000,note_on,1,0,1,,,,,,,,,0,,,74,75
11000,note_on,1,0,3,,,,,,,,,2,,,62,62
11040,note_on,40,0,3,,,,,,,,,2,,,62,0
11040,note_on,0,0,3,,,,,,,,,2,,,51,62
11040,note_on,40,0,1,,,,,,,,,0,,,74,0
11040,note_on,0,0,1,,,,,,,,,0,,,75,75
11040,note_on,0,0,1,,,,,,,,,0,,,79,75
11100,note_on,0,0,3,,,,,,,,,2,,,58,62
11100,note_on,60,0,3,,,,,,,,,2,,,51,0
11100,note_on,60,0,1,,,,,,,,,0,,,79,0
11100,note_on,0,0,1,,,,,,,,,0,,,75,0
11100,note_on,0,0,1,,,,,,,,,0,,,67,75
11160,note_on,0,0,1,,,,,,,,,0,,,77,75
11160,note_on,0,0,3,,,,,,,,,2,,,58,62
11160,note_on,60,0,3,,,,,,,,,2,,,58,0
11160,note_on,60,0,1,,,,,,,,,0,,,67,0
11160,note_on,0,0,1,,,,,,,,,0,,,74,75
11220,note_on,0,0,3,,,,,,,,,2,,,62,62
11220,note_on,60,0,3,,,,,,,,,2,,,58,0
11220,note_on,60,0,1,,,,,,,,,0,,,77,0
11220,note_on,0,0,1,,,,,,,,,0,,,65,75
11220,note_on,0,0,1,,,,,,,,,0,,,74,0
11280,note_on,0,0,1,,,,,,,,,0,,,71,75
11280,note_on,0,0,1,,,,,,,,,0,,,67,75
11280,note_on,60,0,3,,,,,,,,,2,,,62,0
11280,note_on,0,0,3,,,,,,,,,2,,,34,62
11280,note_on,0,0,3,,,,,,,,,2,,,46,62
11280,note_on,0,0,1,,,,,,,,,0,,,73,75
11280,note_on,0,0,1,,,,,,,,,0,,,64,75
11280,note_on,60,0,1,,,,,,,,,0,,,65,0
11286,note_on,0,0,1,,,,,,,,,0,,,64,0
11286,note_on,0,0,1,,,,,,,,,0,,,67,0
11286,note_on,0,0,1,,,,,,,,,0,,,71,0
11286,note_on,6,0,1,,,,,,,,,0,,,73,0
11286,note_on,0,0,3,,,,,,,,,2,,,34,0
11286,note_on,6,0,3,,,,,,,,,2,,,46,0
11340,note_on,54,0,3,,,,,,,,,2,,,34,62
11340,note_on,0,0,1,,,,,,,,,0,,,73,75
11340,note_on,0,0,1,,,,,,,,,0,,,70,75
11340,note_on,0,0,1,,,,,,,,,0,,,67,75
11340,note_on,54,0,1,,,,,,,,,0,,,64,75
11340,note_on,0,0,3,,,,,,,,,2,,,46,62
11346,note_on,0,0,1,,,,,,,,,0,,,67,0
11346,note_on,0,0,1,,,,,,,,,0,,,64,0
11346,note_on,6,0,1,,,,,,,,,0,,,73,0
11346,note_on,6,0,3,,,,,,,,,2,,,46,0
11346,note_on,0,0,3,,,,,,,,,2,,,34,0
11346,note_on,0,0,1,,,,,,,,,0,,,70,0
11400,note_on,54,0,3,,,,,,,,,2,,,34,62
11400,note_on,0,0,3,,,,,,,,,2,,,46,62
11400,note_on,54,0,1,,,,,,,,,0,,,64,75
11400,note_on,0,0,1,,,,,,,,,0,,,67,75
11400,note_on,0,0,1,,,,,,,,,0,,,70,75
11400,note_on,0,0,1,,,,,,,,,0,,,73,75
11406,note_on,0,0,3,,,,,,,,,2,,,34,0
11406,note_on,0,0,1,,,,,,,,,0,,,70,0
11406,note_on,6,0,3,,,,,,,,,2,,,46,0
11406,note_on,0,0,1,,,,,,,,,0,,,64,0
11406,note_on,6,0,1,,,,,,,,,0,,,73,0
11406,note_on,0,0,1,,,,,,,,,0,,,67,0
11460,note_on,54,0,1,,,,,,,,,0,,,64,75
11460,note_on,0,0,1,,,,,,,,,0,,,67,75
11460,note_on,0,0,3,,,,,,,,,2,,,46,62
11460,note_on,0,0,1,,,,,,,,,0,,,73,75
11460,note_on,0,0,1,,,,,,,,,0,,,70,75
11460,note_on,54,0,3,,,,,,,,,2,,,34,62
11466,note_on,0,0,1,,,,,,,,,0,,,70,0
11466,note_on,0,0,1,,,,,,,,,0,,,67,0
11466,note_on,0,0,1,,,,,,,,,0,,,64,0
11466,note_on,6,0,1,,,,,,,,,0,,,73,0
11466,note_on,0,0,3,,,,,,,,,2,,,34,0
11466,note_on,6,0,3,,,,,,,,,2,,,46,0
11520,note_on,0,0,1,,,,,,,,,0,,,73,75
11520,note_on,54,0,3,,,,,,,,,2,,,34,62
11520,note_on,0,0,3,,,,,,,,,2,,,46,62
11520,note_on,0,0,1,,,,,,,,,0,,,67,75
11520,note_on,0,0,1,,,,,,,,,0,,,70,75
11520,note_on,54,0,1,,,,,,,,,0,,,64,75
11640,note_on,120,0,1,,,,,,,,,0,,,73,0
11640,note_on,0,0,1,,,,,,,,,0,,,74,75
11640,note_on,0,0,1,,,,,,,,,0,,,65,75
11640,note_on,0,0,1,,,,,,,,,0,,,67,0
11640,note_on,0,0,1,,,,,,,,,0,,,64,0
11700,note_on,180,0,3,,,,,,,,,2,,,46,0
11700,note_on,0,0,3,,,,,,,,,2,,,34,0
11700,note_on,0,0,1,,,,,,,,,0,,,70,0
11700,note_on,0,0,1,,,,,,,,,0,,,65,0
11700,note_on,60,0,1,,,,,,,,,0,,,74,0
11760,note_on,60,0,1,,,,,,,,,0,,,65,75
11760,note_on,60,0,3,,,,,,,,,2,,,53,62
11799,note_on,39,0,1,,,,,,,,,0,,,67,75
11799,note_on,39,0,3,,,,,,,,,2,,,55,62
11800,note_on,1,0,1,,,,,,,,,0,,,65,0
11800,note_on,1,0,3,,,,,,,,,2,,,53,0
11839,note_on,39,0,1,,,,,,,,,0,,,67,0
11839,note_on,39,0,3,,,,,,,,,2,,,55,0
11840,note_on,1,0,1,,,,,,,,,0,,,69,75
11840,note_on,1,0,3,,,,,,,,,2,,,57,62
11880,note_on,40,0,3,,,,,,,,,2,,,57,0
11880,note_on,0,0,3,,,,,,,,,2,,,58,62
11880,note_on,0,0,1,,,,,,,,,0,,,70,75
11880,note_on,40,0,1,,,,,,,,,0,,,69,0
11919,note_on,39,0,1,,,,,,,,,0,,,72,75
11919,note_on,39,0,3,,,,,,,,,2,,,60,62
11920,note_on,1,0,3,,,,,,,,,2,,,58,0
11920,note_on,1,0,1,,,,,,,,,0,,,70,0
11959,note_on,39,0,3,,,,,,,,,2,,,60,0
11959,note_on,39,0,1,,,,,,,,,0,,,72,0
11960,note_on,1,0,3,,,,,,,,,2,,,62,62
11960,note_on,1,0,1,,,,,,,,,0,,,74,75
12000,note_on,0,0,1,,,,,,,,,0,,,75,75
12000,control_change,0,0,1,,,,,,,,,0,64,127,,
12000,note_on,40,0,1,,,,,,,,,0,,,74,0
12000,note_on,40,0,3,,,,,,,,,2,,,62,0
12000,control_change,0,0,3,,,,,,,,,2,64,127,,
12000,note_on,0,0,3,,,,,,,,,2,,,63,62
12039,note_on,39,0,1,,,,,,,,,0,,,77,75
12039,note_on,39,0,3,,,,,,,,,2,,,65,62
12040,note_on,1,0,1,,,,,,,,,0,,,75,0
12040,note_on,1,0,3,,,,,,,,,2,,,63,0
12079,note_on,39,0,3,,,,,,,,,2,,,65,0
12079,note_on,39,0,1,,,,,,,,,0,,,77,0
12080,note_on,1,0,1,,,,,,,,,0,,,79,75
12080,note_on,1,0,3,,,,,,,,,2,,,67,62
12120,control_change,0,0,1,,,,,,,,,0,64,0,,
12120,note_on,0,0,1,,,,,,,,,0,,,77,75
12120,note_on,40,0,1,,,,,,,,,0,,,79,0
12120,control_change,0,0,3,,,,,,,,,2,64,0,,
12120,note_on,0,0,3,,,,,,,,,2,,,65,62
12120,note_on,40,0,3,,,,,,,,,2,,,67,0
12159,note_on,39,0,3,,,,,,,,,2,,,63,62
12159,note_on,39,0,1,,,,,,,,,0,,,75,75
12160,note_on,1,0,3,,,,,,,,,2,,,65,0
12160,note_on,1,0,1,,,,,,,,,0,,,77,0
12199,note_on,39,0,3,,,,,,,,,2,,,63,0
12199,note_on,39,0,1,,,,,,,,,0,,,75,0
12200,note_on,1,0,3,,,,,,,,,2,,,62,62
12200,note_on,1,0,1,,,,,,,,,0,,,74,75
12240,note_on,40,0,3,,,,,,,,,2,,,62,0
12240,note_on,40,0,1,,,,,,,,,0,,,74,0
12240,note_on,0,0,1,,,,,,,,,0,,,73,75
12240,note_on,0,0,3,,,,,,,,,2,,,61,62
12279,note_on,39,0,3,,,,,,,,,2,,,58,62
12279,note_on,39,0,1,,,,,,,,,0,,,70,75
12280,note_on,1,0,3,,,,,,,,,2,,,61,0
12280,note_on,1,0,1,,,,,,,,,0,,,73,0
12319,note_on,39,0,3,,,,,,,,,2,,,58,0
12319,note_on,39,0,1,,,,,,,,,0,,,70,0
12320,note_on,1,0,1,,,,,,,,,0,,,67,75
12320,note_on,1,0,3,,,,,,,,,2,,,55,62
12360,note_on,40,0,3,,,,,,,,,2,,,55,0
12360,note_on,40,0,1,,,,,,,,,0,,,67,0
12360,note_on,0,0,1,,,,,,,,,0,,,64,75
12360,note_on,0,0,3,,,,,,,,,2,,,52,62
12399,note_on,39,0,3,,,,,,,,,2,,,49,62
12399,note_on,39,0,1,,,,,,,,,0,,,61,75
12400,note_on,1,0,1,,,,,,,,,0,,,64,0
12400,note_on,1,0,3,,,,,,,,,2,,,52,0
12439,note_on,39,0,1,,,,,,,,,0,,,61,0
12439,note_on,39,0,3,,,,,,,,,2,,,49,0
12440,note_on,1,0,1,,,,,,,,,0,,,64,75
12440,note_on,1,0,3,,,,,,,,,2,,,52,62
12480,control_change,0,0,1,,,,,,,,,0,64,127,,
12480,note_on,0,0,1,,,,,,,,,0,,,65,75
12480,note_on,40,0,3,,,,,,,,,2,,,52,0
12480,note_on,40,0,1,,,,,,,,,0,,,64,0
12480,control_change,0,0,3,,,,,,,,,2,64,127,,
12480,note_on,0,0,3,,,,,,,,,2,,,53,62
12519,note_on,39,0,1,,,,,,,,,0,,,62,75
12519,note_on,39,0,3,,,,,,,,,2,,,50,62
12520,note_on,1,0,3,,,,,,,,,2,,,53,0
12520,note_on,1,0,1,,,,,,,,,0,,,65,0
12559,note_on,39,0,1,,,,,,,,,0,,,62,0
12559,note_on,39,0,3,,,,,,,,,2,,,50,0
12560,note_on,1,0,3,,,,,,,,,2,,,53,62
12560,note_on,1,0,1,,,,,,,,,0,,,65,75
12600,note_on,0,0,3,,,,,,,,,2,,,50,62
12600,note_on,40,0,3,,,,,,,,,2,,,53,0
12600,note_on,0,0,1,,,,,,,,,0,,,62,75
12600,note_on,40,0,1,,,,,,,,,0,,,65,0
12639,note_on,39,0,1,,,,,,,,,0,,,58,75
12639,note_on,39,0,3,,,,,,,,,2,,,46,62
12640,note_on,1,0,3,,,,,,,,,2,,,50,0
12640,note_on,1,0,1,,,,,,,,,0,,,62,0
12679,note_on,39,0,3,,,,,,,,,2,,,46,0
12679,note_on,39,0,1,,,,,,,,,0,,,58,0
12680,note_on,1,0,3,,,,,,,,,2,,,50,62
12680,note_on,1,0,1,,,,,,,,,0,,,62,75
12720,note_on,0,0,3,,,,,,,,,2,,,53,62
12720,control_change,0,0,3,,,,,,,,,2,64,0,,
12720,note_on,40,0,3,,,,,,,,,2,,,50,0
12720,note_on,40,0,1,,,,,,,,,0,,,62,0
12720,control_change,0,0,1,,,,,,,,,0,64,0,,
12720,note_on,0,0,1,,,,,,,,,0,,,65,75
12759,note_on,39,0,1,,,,,,,,,0,,,67,75
12759,note_on,39,0,3,,,,,,,,,2,,,55,62
12760,note_on,1,0,1,,,,,,,,,0,,,65,0
12760,note_on,1,0,3,,,,,,,,,2,,,53,0
12799,note_on,39,0,3,,,,,,,,,2,,,55,0
12799,note_on,39,0,1,,,,,,,,,0,,,67,0
12800,note_on,1,0,3,,,,,,,,,2,,,57,62
12800,note_on,1,0,1,,,,,,,,,0,,,69,75
12840,note_on,0,0,1,,,,,,,,,0,,,70,75
12840,note_on,0,0,3,,,,,,,,,2,,,58,62
12840,note_on,40,0,1,,,,,,,,,0,,,69,0
12840,note_on,40,0,3,,,,,,,,,2,,,57,0
12879,note_on,39,0,3,,,,,,,,,2,,,60,62
12879,note_on,39,0,1,,,,,,,,,0,,,72,75
12880,note_on,1,0,3,,,,,,,,,2,,,58,0
12880,note_on,1,0,1,,,,,,,,,0,,,70,0
12919,note_on,39,0,1,,,,,,,,,0,,,72,0
12919,note_on,39,0,3,,,,,,,,,2,,,60,0
12920,note_on,1,0,1,,,,,,,,,0,,,74,75
12920,note_on,1,0,3,,,,,,,,,2,,,62,62
12960,note_on,40,0,1,,,,,,,,,0,,,74,0
12960,control_change,0,0,1,,,,,,,,,0,64,127,,
12960,note_on,0,0,1,,,,,,,,,0,,,75,75
12960,note_on,40,0,3,,,,,,,,,2,,,62,0
12960,control_change,0,0,3,,,,,,,,,2,64,127,,
12960,note_on,0,0,3,,,,,,,,,2,,,63,62
12999,note_on,39,0,3,,,,,,,,,2,,,65,62
12999,note_on,39,0,1,,,,,,,,,0,,,77,75
13000,note_on,1,0,1,,,,,,,,,0,,,75,0
13000,note_on,1,0,3,,,,,,,,,2,,,63,0
13039,note_on,39,0,1,,,,,,,,,0,,,77,0
13039,note_on,39,0,3,,,,,,,,,2,,,65,0
13040,note_on,1,0,3,,,,,,,,,2,,,67,62
13040,note_on,1,0,1,,,,,,,,,0,,,79,75
13080,note_on,40,0,1,,,,,,,,,0,,,79,0
13080,control_change,0,0,1,,,,,,,,,0,64,0,,
13080,note_on,0,0,1,,,,,,,,,0,,,77,75
13080,note_on,40,0,3,,,,,,,,,2,,,67,0
13080,control_change,0,0,3,,,,,,,,,2,64,0,,
13080,note_on,0,0,3,,,,,,,,,2,,,65,62
13119,note_on,39,0,1,,,,,,,,,0,,,75,75
13119,note_on,39,0,3,,,,,,,,,2,,,63,62
13120,note_on,1,0,3,,,,,,,,,2,,,65,0
13120,note_on,1,0,1,,,,,,,,,0,,,77,0
13159,note_on,39,0,3,,,,,,,,,2,,,63,0
13159,note_on,39,0,1,,,,,,,,,0,,,75,0
13160,note_on,1,0,3,,,,,,,,,2,,,62,62
13160,note_on,1,0,1,,,,,,,,,0,,,74,75
13200,note_on,40,0,1,,,,,,,,,0,,,74,0
13200,note_on,0,0,3,,,,,,,,,2,,,61,62
13200,note_on,40,0,3,,,,,,,,,2,,,62,0
13200,note_on,0,0,1,,,,,,,,,0,,,73,75
13239,note_on,39,0,1,,,,,,,,,0,,,70,75
13239,note_on,39,0,3,,,,,,,,,2,,,58,62
13240,note_on,1,0,3,,,,,,,,,2,,,61,0
13240,note_on,1,0,1,,,,,,,,,0,,,73,0
13279,note_on,39,0,3,,,,,,,,,2,,,58,0
13279,note_on,39,0,1,,,,,,,,,0,,,70,0
13280,note_on,1,0,1,,,,,,,,,0,,,67,75
13280,note_on,1,0,3,,,,,,,,,2,,,55,62
13320,note_on,40,0,3,,,,,,,,,2,,,55,0
13320,note_on,0,0,1,,,,,,,,,0,,,64,75
13320,note_on,40,0,1,,,,,,,,,0,,,67,0
13320,note_on,0,0,3,,,,,,,,,2,,,52,62
13359,note_on,39,0,1,,,,,,,,,0,,,61,75
13359,note_on,39,0,3,,,,,,,,,2,,,49,62
13360,note_on,1,0,3,,,,,,,,,2,,,52,0
13360,note_on,1,0,1,,,,,,,,,0,,,64,0
13399,note_on,39,0,1,,,,,,,,,0,,,61,0
13399,note_on,39,0,3,,,,,,,,,2,,,49,0
13400,note_on,1,0,1,,,,,,,,,0,,,64,75
13400,note_on,1,0,3,,,,,,,,,2,,,52,62
13440,note_on,0,0,1,,,,,,,,,0,,,67,101
13440,control_change,0,0,1,,,,,,,,,0,64,127,,
13440,note_on,40,0,1,,,,,,,,,0,,,64,0
13440,control_change,0,0,3,,,,,,,,,2,64,127,,
13440,note_on,40,0,3,,,,,,,,,2,,,52,0
13440,note_on,0,0,3,,,,,,,,,2,,,43,88
13444,note_on,4,0,1,,,,,,,,,0,,,67,0
13479,note_on,39,0,3,,,,,,,,,2,,,40,62
13479,note_on,35,0,1,,,,,,,,,0,,,64,75
13480,note_on,1,0,3,,,,,,,,,2,,,43,0
13519,note_on,39,0,3,,,,,,,,,2,,,40,0
13519,note_on,40,0,1,,,,,,,,,0,,,64,0
13520,note_on,1,0,1,,,,,,,,,0,,,67,75
13520,note_on,1,0,3,,,,,,,,,2,,,43,62
13560,note_on,0,0,1,,,,,,,,,0,,,64,75
13560,note_on,40,0,1,,,,,,,,,0,,,67,0
13560,note_on,0,0,3,,,,,,,,,2,,,40,62
13560,note_on,40,0,3,,,,,,,,,2,,,43,0
13599,note_on,39,0,1,,,,,,,,,0,,,61,75
13599,note_on,39,0,3,,,,,,,,,2,,,37,62
13600,note_on,1,0,1,,,,,,,,,0,,,64,0
13600,note_on,1,0,3,,,,,,,,,2,,,40,0
13639,note_on,39,0,1,,,,,,,,,0,,,61,0
13639,note_on,39,0,3,,,,,,,,,2,,,37,0
13640,note_on,0,0,3,,,,,,,,,2,,,40,62
13640,control_change,1,0,1,,,,,,,,,0,64,0,,
13640,note_on,0,0,1,,,,,,,,,0,,,64,75
13640,control_change,1,0,3,,,,,,,,,2,64,0,,
13680,control_change,0,0,1,,,,,,,,,0,64,127,,
13680,note_on,40,0,1,,,,,,,,,0,,,64,0
13680,note_on,0,0,1,,,,,,,,,0,,,68,114
13680,note_on,40,0,3,,,,,,,,,2,,,40,0
13680,note_on,0,0,3,,,,,,,,,2,,,44,101
13680,control_change,0,0,3,,,,,,,,,2,64,127,,
13684,note_on,4,0,1,,,,,,,,,0,,,68,0
13719,note_on,39,0,3,,,,,,,,,2,,,40,75
13719,note_on,35,0,1,,,,,,,,,0,,,64,88
13720,note_on,1,0,3,,,,,,,,,2,,,44,0
13759,note_on,39,0,3,,,,,,,,,2,,,40,0
13759,note_on,40,0,1,,,,,,,,,0,,,64,0
13760,note_on,1,0,3,,,,,,,,,2,,,44,75
13760,note_on,1,0,1,,,,,,,,,0,,,68,88
13800,note_on,0,0,3,,,,,,,,,2,,,40,75
13800,note_on,40,0,3,,,,,,,,,2,,,44,0
13800,note_on,40,0,1,,,,,,,,,0,,,68,0
13800,note_on,0,0,1,,,,,,,,,0,,,64,88
13839,note_on,39,0,3,,,,,,,,,2,,,37,75
13839,note_on,39,0,1,,,,,,,,,0,,,61,88
13840,note_on,1,0,3,,,,,,,,,2,,,40,0
13840,note_on,1,0,1,,,,,,,,,0,,,64,0
13879,note_on,39,0,3,,,,,,,,,2,,,37,0
13879,note_on,39,0,1,,,,,,,,,0,,,61,0
13880,control_change,1,0,3,,,,,,,,,2,64,0,,
13880,note_on,0,0,1,,,,,,,,,0,,,64,88
13880,note_on,0,0,3,,,,,,,,,2,,,40,75
13880,control_change,1,0,1,,,,,,,,,0,64,0,,
13920,note_on,40,0,3,,,,,,,,,2,,,40,0
13920,note_on,0,0,3,,,,,,,,,2,,,45,101
13920,control_change,0,0,3,,,,,,,,,2,64,127,,
13920,note_on,40,0,1,,,,,,,,,0,,,64,0
13920,control_change,0,0,1,,,,,,,,,0,64,127,,
13920,note_on,0,0,1,,,,,,,,,0,,,69,114
13959,note_on,39,0,3,,,,,,,,,2,,,40,75
13959,note_on,39,0,1,,,,,,,,,0,,,64,88
13960,note_on,1,0,1,,,,,,,,,0,,,69,0
13960,note_on,1,0,3,,,,,,,,,2,,,45,0
13999,note_on,39,0,3,,,,,,,,,2,,,40,0
13999,note_on,39,0,1,,,,,,,,,0,,,64,0
14000,note_on,1,0,3,,,,,,,,,2,,,45,75
14000,note_on,1,0,1,,,,,,,,,0,,,69,88
14040,note_on,40,0,3,,,,,,,,,2,,,45,0
14040,note_on,40,0,1,,,,,,,,,0,,,69,0
14040,note_on,0,0,1,,,,,,,,,0,,,64,88
14040,note_on,0,0,3,,,,,,,,,2,,,40,75
14079,note_on,39,0,1,,,,,,,,,0,,,61,88
14079,note_on,39,0,3,,,,,,,,,2,,,37,75
14080,note_on,1,0,3,,,,,,,,,2,,,40,0
14080,note_on,1,0,1,,,,,,,,,0,,,64,0
14119,note_on,39,0,1,,,,,,,,,0,,,61,0
14119,note_on,39,0,3,,,,,,,,,2,,,37,0
14120,note_on,0,0,1,,,,,,,,,0,,,64,88
14120,control_change,1,0,1,,,,,,,,,0,64,0,,
14120,control_change,1,0,3,,,,,,,,,2,64,0,,
14120,note_on,0,0,3,,,,,,,,,2,,,40,75
14160,note_on,0,0,1,,,,,,,,,0,,,69,114
14160,control_change,0,0,1,,,,,,,,,0,64,127,,
14160,note_on,40,0,1,,,,,,,,,0,,,64,0
14160,note_on,40,0,3,,,,,,,,,2,,,40,0
14160,control_change,0,0,3,,,,,,,,,2,64,127,,
14160,note_on,0,0,3,,,,,,,,,2,,,45,101
14199,note_on,39,0,1,,,,,,,,,0,,,64,88
14199,note_on,39,0,3,,,,,,,,,2,,,40,75
14200,note_on,1,0,1,,,,,,,,,0,,,69,0
14200,note_on,1,0,3,,,,,,,,,2,,,45,0
14239,note_on,39,0,3,,,,,,,,,2,,,40,0
14239,note_on,39,0,1,,,,,,,,,0,,,64,0
14240,note_on,1,0,1,,,,,,,,,0,,,69,88
14240,note_on,1,0,3,,,,,,,,,2,,,45,75
14280,note_on,0,0,1,,,,,,,,,0,,,64,88
14280,note_on,40,0,1,,,,,,,,,0,,,69,0
14280,note_on,40,0,3,,,,,,,,,2,,,45,0
14280,note_on,0,0,3,,,,,,,,,2,,,40,75
14319,note_on,39,0,3,,,,,,,,,2,,,36,75
14319,note_on,39,0,1,,,,,,,,,0,,,60,88
14320,note_on,1,0,1,,,,,,,,,0,,,64,0
14320,note_on,1,0,3,,,,,,,,,2,,,40,0
14359,note_on,39,0,1,,,,,,,,,0,,,60,0
14359,note_on,39,0,3,,,,,,,,,2,,,36,0
14360,control_change,1,0,1,,,,,,,,,0,64,0,,
14360,note_on,0,0,1,,,,,,,,,0,,,64,88
14360,note_on,0,0,3,,,,,,,,,2,,,40,75
14360,control_change,1,0,3,,,,,,,,,2,64,0,,
14400,note_on,0,0,1,,,,,,,,,0,,,74,114
14400,note_on,40,0,1,,,,,,,,,0,,,64,0
14400,control_change,0,0,3,,,,,,,,,2,64,127,,
14400,control_change,0,0,1,,,,,,,,,0,64,127,,
14400,note_on,40,0,3,,,,,,,,,2,,,40,0
14400,note_on,0,0,3,,,,,,,,,2,,,35,101
14439,note_on,39,0,1,,,,,,,,,0,,,69,88
14439,note_on,39,0,3,,,,,,,,,2,,,41,75
14440,note_on,1,0,1,,,,,,,,,0,,,74,0
14440,note_on,1,0,3,,,,,,,,,2,,,35,0
14479,note_on,39,0,1,,,,,,,,,0,,,69,0
14479,note_on,39,0,3,,,,,,,,,2,,,41,0
14480,note_on,1,0,1,,,,,,,,,0,,,74,88
14480,note_on,1,0,3,,,,,,,,,2,,,35,75
14520,note_on,40,0,1,,,,,,,,,0,,,74,0
14520,note_on,0,0,1,,,,,,,,,0,,,69,88
14520,note_on,0,0,3,,,,,,,,,2,,,41,75
14520,note_on,40,0,3,,,,,,,,,2,,,35,0
14559,note_on,39,0,3,,,,,,,,,2,,,47,75
14559,note_on,39,0,1,,,,,,,,,0,,,62,88
14560,note_on,1,0,3,,,,,,,,,2,,,41,0
14560,note_on,1,0,1,,,,,,,,,0,,,69,0
14599,note_on,39,0,3,,,,,,,,,2,,,47,0
14599,note_on,39,0,1,,,,,,,,,0,,,62,0
14600,control_change,1,0,1,,,,,,,,,0,64,0,,
14600,control_change,1,0,3,,,,,,,,,2,64,0,,
14600,note_on,0,0,3,,,,,,,,,2,,,41,75
14600,note_on,0,0,1,,,,,,,,,0,,,69,88
14640,note_on,0,0,3,,,,,,,,,2,,,34,101
14640,note_on,40,0,1,,,,,,,,,0,,,69,0
14640,control_change,0,0,1,,,,,,,,,0,64,127,,
14640,note_on,0,0,1,,,,,,,,,0,,,80,114
14640,note_on,40,0,3,,,,,,,,,2,,,41,0
14640,control_change,0,0,3,,,,,,,,,2,64,127,,
14679,note_on,39,0,3,,,,,,,,,2,,,41,75
14679,note_on,39,0,1,,,,,,,,,0,,,74,88
14680,note_on,1,0,1,,,,,,,,,0,,,80,0
14680,note_on,1,0,3,,,,,,,,,2,,,34,0
14719,note_on,39,0,1,,,,,,,,,0,,,74,0
14719,note_on,39,0,3,,,,,,,,,2,,,41,0
14720,note_on,1,0,1,,,,,,,,,0,,,80,88
14720,note_on,1,0,3,,,,,,,,,2,,,34,75
14760,note_on,40,0,1,,,,,,,,,0,,,80,0
14760,note_on,0,0,1,,,,,,,,,0,,,74,88
14760,note_on,40,0,3,,,,,,,,,2,,,34,0
14760,note_on,0,0,3,,,,,,,,,2,,,41,75
14799,note_on,39,0,1,,,,,,,,,0,,,68,88
14799,note_on,39,0,3,,,,,,,,,2,,,46,75
14800,note_on,1,0,1,,,,,,,,,0,,,74,0
14800,note_on,1,0,3,,,,,,,,,2,,,41,0
14839,note_on,39,0,1,,,,,,,,,0,,,68,0
14839,note_on,39,0,3,,,,,,,,,2,,,46,0
14840,note_on,0,0,1,,,,,,,,,0,,,74,88
14840,note_on,0,0,3,,,,,,,,,2,,,41,75
14840,control_change,1,0,1,,,,,,,,,0,64,0,,
14840,control_change,1,0,3,,,,,,,,,2,64,0,,
14880,note_on,0,0,1,,,,,,,,,0,,,81,114
14880,note_on,0,0,1,,,,,,,,,0,,,76,114
14880,note_on,0,0,1,,,,,,,,,0,,,73,114
14880,note_on,0,0,1,,,,,,,,,0,,,69,114
14880,note_on,40,0,3,,,,,,,,,2,,,41,0
14880,note_on,40,0,1,,,,,,,,,0,,,74,0
14880,note_on,0,0,3,,,,,,,,,2,,,33,101
14880,note_on,0,0,3,,,,,,,,,2,,,45,101
15120,note_on,0,0,1,,,,,,,,,0,,,75,49
15120,note_on,0,0,1,,,,,,,,,0,,,72,49
15120,note_on,0,0,1,,,,,,,,,0,,,76,0
15120,note_on,0,0,1,,,,,,,,,0,,,73,0
15120,note_on,0,0,1,,,,,,,,,0,,,69,0
15120,note_on,240,0,3,,,,,,,,,2,,,45,0
15120,note_on,0,0,3,,,,,,,,,2,,,33,0
15120,note_on,0,0,3,,,,,,,,,2,,,57,36
15120,note_on,0,0,3,,,,,,,,,2,,,66,36
15120,note_on,240,0,1,,,,,,,,,0,,,81,0
15180,note_on,60,0,1,,,,,,,,,0,,,75,0
15180,note_on,0,0,1,,,,,,,,,0,,,75,49
15180,note_on,0,0,1,,,,,,,,,0,,,72,49
15180,note_on,0,0,1,,,,,,,,,0,,,72,0
15180,note_on,0,0,3,,,,,,,,,2,,,66,36
15180,note_on,0,0,3,,,,,,,,,2,,,57,0
15180,note_on,60,0,3,,,,,,,,,2,,,66,0
15180,note_on,0,0,3,,,,,,,,,2,,,57,36
15240,note_on,60,0,1,,,,,,,,,0,,,75,0
15240,note_on,0,0,3,,,,,,,,,2,,,57,0
15240,note_on,0,0,3,,,,,,,,,2,,,57,36
15240,note_on,0,0,3,,,,,,,,,2,,,66,36
15240,note_on,0,0,1,,,,,,,,,0,,,72,49
15240,note_on,60,0,3,,,,,,,,,2,,,66,0
15240,note_on,0,0,1,,,,,,,,,0,,,75,49
15240,note_on,0,0,1,,,,,,,,,0,,,72,0
15300,note_on,0,0,1,,,,,,,,,0,,,72,0
15300,note_on,60,0,1,,,,,,,,,0,,,75,0
15300,note_on,0,0,1,,,,,,,,,0,,,75,49
15300,note_on,0,0,3,,,,,,,,,2,,,66,36
15300,note_on,0,0,3,,,,,,,,,2,,,57,36
15300,note_on,0,0,3,,,,,,,,,2,,,57,0
15300,note_on,60,0,3,,,,,,,,,2,,,66,0
15300,note_on,0,0,1,,,,,,,,,0,,,72,49
15360,note_on,60,0,1,,,,,,,,,0,,,75,0
15360,note_on,0,0,1,,,,,,,,,0,,,72,0
15360,note_on,0,0,1,,,,,,,,,0,,,73,49
15360,note_on,0,0,1,,,,,,,,,0,,,76,49
15360,note_on,0,0,3,,,,,,,,,2,,,69,36
15360,note_on,0,0,3,,,,,,,,,2,,,57,0
15360,note_on,0,0,3,,,,,,,,,2,,,57,36
15360,note_on,60,0,3,,,,,,,,,2,,,66,0
15480,note_on,120,0,1,,,,,,,,,0,,,76,0
15480,note_on,0,0,1,,,,,,,,,0,,,73,0
15480,note_on,0,0,1,,,,,,,,,0,,,85,49
15480,note_on,120,0,3,,,,,,,,,2,,,69,0
15480,note_on,0,0,3,,,,,,,,,2,,,64,36
15540,note_on,0,0,3,,,,,,,,,2,,,57,0
15540,note_on,15540,0,2,,,,,,,,,1,,,49,88
15540,note_on,60,0,1,,,,,,,,,0,,,85,0
15540,note_on,0,0,3,,,,,,,,,2,,,37,75
15540,note_on,60,0,3,,,,,,,,,2,,,64,0
15600,note_on,0,0,3,,,,,,,,,2,,,38,75
15600,note_on,60,0,3,,,,,,,,,2,,,37,0
15600,note_on,0,0,2,,,,,,,,,1,,,50,88
15600,note_on,60,0,2,,,,,,,,,1,,,49,0
15639,note_on,39,0,2,,,,,,,,,1,,,49,88
15639,note_on,39,0,3,,,,,,,,,2,,,37,75
15640,note_on,1,0,2,,,,,,,,,1,,,50,0
15640,note_on,1,0,3,,,,,,,,,2,,,38,0
15679,note_on,39,0,2,,,,,,,,,1,,,49,0
15679,note_on,39,0,3,,,,,,,,,2,,,37,0
15680,note_on,1,0,3,,,,,,,,,2,,,35,75
15680,note_on,1,0,2,,,,,,,,,1,,,47,88
15720,note_on,40,0,3,,,,,,,,,2,,,35,0
15720,note_on,0,0,3,,,,,,,,,2,,,41,75
15720,note_on,0,0,2,,,,,,,,,1,,,53,88
15720,note_on,40,0,2,,,,,,,,,1,,,47,0
15759,note_on,39,0,2,,,,,,,,,1,,,52,88
15759,note_on,39,0,3,,,,,,,,,2,,,40,75
15760,note_on,1,0,3,,,,,,,,,2,,,41,0
15760,note_on,1,0,2,,,,,,,,,1,,,53,0
15799,note_on,39,0,3,,,,,,,,,2,,,40,0
15799,note_on,39,0,2,,,,,,,,,1,,,52,0
15800,note_on,1,0,2,,,,,,,,,1,,,50,88
15800,note_on,1,0,3,,,,,,,,,2,,,38,75
15840,control_change,0,0,2,,,,,,,,,1,64,127,,
15840,note_on,0,0,2,,,,,,,,,1,,,49,49
15840,note_on,40,0,3,,,,,,,,,2,,,38,0
15840,note_on,0,0,3,,,,,,,,,2,,,40,75
15840,note_on,40,0,2,,,,,,,,,1,,,50,0
15879,note_on,39,0,2,,,,,,,,,1,,,50,49
15880,note_on,1,0,2,,,,,,,,,1,,,49,0
15900,note_on,60,0,3,,,,,,,,,2,,,40,0
15919,note_on,39,0,2,,,,,,,,,1,,,50,0
15920,note_on,1,0,2,,,,,,,,,1,,,52,49
15960,note_on,0,0,2,,,,,,,,,1,,,54,49
15960,note_on,40,0,2,,,,,,,,,1,,,52,0
15960,note_on,0,0,4,,,,,,,,,3,,,76,49
15960,note_on,15960,0,4,,,,,,,,,3,,,73,49
15999,note_on,39,0,2,,,,,,,,,1,,,56,49
16000,note_on,1,0,2,,,,,,,,,1,,,54,0
16039,note_on,39,0,2,,,,,,,,,1,,,56,0
16040,control_change,1,0,2,,,,,,,,,1,64,0,,
16040,note_on,0,0,2,,,,,,,,,1,,,57,49
16050,note_on,0,0,4,,,,,,,,,3,,,73,49
16050,note_on,0,0,4,,,,,,,,,3,,,73,0
16050,note_on,90,0,4,,,,,,,,,3,,,76,0
16050,note_on,0,0,4,,,,,,,,,3,,,76,49
16080,note_on,30,0,4,,,,,,,,,3,,,76,0
16080,note_on,0,0,4,,,,,,,,,3,,,73,0
16080,note_on,40,0,2,,,,,,,,,1,,,57,0
16080,note_on,0,0,4,,,,,,,,,3,,,71,49
16080,note_on,0,0,4,,,,,,,,,3,,,74,49
16080,note_on,540,0,1,,,,,,,,,0,,,59,75
16119,note_on,39,0,1,,,,,,,,,0,,,61,75
16120,note_on,1,0,1,,,,,,,,,0,,,59,0
16140,note_on,0,0,4,,,,,,,,,3,,,71,0
16140,note_on,60,0,4,,,,,,,,,3,,,74,0
16159,note_on,39,0,1,,,,,,,,,0,,,61,0
16160,note_on,260,0,3,,,,,,,,,2,,,52,62
16160,note_on,1,0,1,,,,,,,,,0,,,62,75
16200,note_on,0,0,1,,,,,,,,,0,,,64,75
16200,note_on,40,0,1,,,,,,,,,0,,,62,0
16200,note_on,0,0,3,,,,,,,,,2,,,50,62
16200,note_on,40,0,3,,,,,,,,,2,,,52,0
16239,note_on,39,0,3,,,,,,,,,2,,,49,62
16239,note_on,39,0,1,,,,,,,,,0,,,66,75
16240,note_on,1,0,3,,,,,,,,,2,,,50,0
16240,note_on,1,0,1,,,,,,,,,0,,,64,0
16279,note_on,39,0,3,,,,,,,,,2,,,49,0
16279,note_on,39,0,1,,,,,,,,,0,,,66,0
16280,note_on,1,0,3,,,,,,,,,2,,,47,62
16280,note_on,1,0,1,,,,,,,,,0,,,68,75
16320,note_on,40,0,1,,,,,,,,,0,,,68,0
16320,note_on,0,0,1,,,,,,,,,0,,,69,101
16320,note_on,0,0,1,,,,,,,,,0,,,73,101
16320,note_on,0,0,1,,,,,,,,,0,,,76,101
16320,note_on,0,0,1,,,,,,,,,0,,,81,101
16320,note_on,40,0,3,,,,,,,,,2,,,47,0
16320,note_on,0,0,3,,,,,,,,,2,,,33,88
16320,note_on,0,0,3,,,,,,,,,2,,,45,88
16560,note_on,240,0,1,,,,,,,,,0,,,81,0
16560,note_on,0,0,1,,,,,,,,,0,,,73,0
16560,note_on,0,0,1,,,,,,,,,0,,,72,49
16560,note_on,0,0,1,,,,,,,,,0,,,75,49
16560,note_on,0,0,1,,,,,,,,,0,,,69,0
16560,note_on,0,0,1,,,,,,,,,0,,,76,0
16560,note_on,240,0,3,,,,,,,,,2,,,45,0
16560,note_on,0,0,3,,,,,,,,,2,,,57,36
16560,note_on,0,0,3,,,,,,,,,2,,,66,36
16560,note_on,0,0,3,,,,,,,,,2,,,33,0
16650,note_on,90,0,3,,,,,,,,,2,,,66,0
16650,note_on,0,0,3,,,,,,,,,2,,,57,0
16650,note_on,0,0,3,,,,,,,,,2,,,57,36
16650,note_on,0,0,3,,,,,,,,,2,,,66,36
16650,note_on,0,0,1,,,,,,,,,0,,,75,49
16650,note_on,90,0,1,,,,,,,,,0,,,75,0
16650,note_on,0,0,1,,,,,,,,,0,,,72,0
16650,note_on,0,0,1,,,,,,,,,0,,,72,49
16680,note_on,30,0,1,,,,,,,,,0,,,75,0
16680,note_on,0,0,3,,,,,,,,,2,,,57,0
16680,note_on,0,0,1,,,,,,,,,0,,,75,49
16680,note_on,0,0,1,,,,,,,,,0,,,72,49
16680,note_on,0,0,1,,,,,,,,,0,,,72,0
16680,note_on,30,0,3,,,,,,,,,2,,,66,0
16680,note_on,0,0,3,,,,,,,,,2,,,57,36
16680,note_on,0,0,3,,,,,,,,,2,,,66,36
16770,note_on,0,0,1,,,,,,,,,0,,,75,49
16770,note_on,0,0,1,,,,,,,,,0,,,72,49
16770,note_on,0,0,1,,,,,,,,,0,,,72,0
16770,note_on,90,0,1,,,,,,,,,0,,,75,0
16770,note_on,0,0,3,,,,,,,,,2,,,57,0
16770,note_on,90,0,3,,,,,,,,,2,,,66,0
16770,note_on,0,0,3,,,,,,,,,2,,,57,36
16770,note_on,0,0,3,,,,,,,,,2,,,66,36
16800,note_on,0,0,1,,,,,,,,,0,,,76,49
16800,note_on,0,0,1,,,,,,,,,0,,,73,49
16800,note_on,0,0,1,,,,,,,,,0,,,72,0
16800,note_on,30,0,1,,,,,,,,,0,,,75,0
16800,note_on,30,0,3,,,,,,,,,2,,,66,0
16800,note_on,0,0,3,,,,,,,,,2,,,57,0
16800,note_on,0,0,3,,,,,,,,,2,,,57,36
16800,note_on,0,0,3,,,,,,,,,2,,,69,36
16920,note_on,0,0,1,,,,,,,,,0,,,85,49
16920,note_on,0,0,1,,,,,,,,,0,,,73,0
16920,note_on,120,0,1,,,,,,,,,0,,,76,0
16920,note_on,120,0,3,,,,,,,,,2,,,69,0
16920,note_on,0,0,3,,,,,,,,,2,,,64,36
16980,note_on,900,0,2,,,,,,,,,1,,,49,88
16980,note_on,60,0,3,,,,,,,,,2,,,64,0
16980,note_on,0,0,3,,,,,,,,,2,,,57,0
16980,note_on,0,0,3,,,,,,,,,2,,,37,75
16980,note_on,60,0,1,,,,,,,,,0,,,85,0
17040,note_on,0,0,2,,,,,,,,,1,,,50,88
17040,note_on,60,0,2,,,,,,,,,1,,,49,0
17040,note_on,0,0,3,,,,,,,,,2,,,38,75
17040,note_on,60,0,3,,,,,,,,,2,,,37,0
17079,note_on,39,0,3,,,,,,,,,2,,,37,75
17079,note_on,39,0,2,,,,,,,,,1,,,49,88
17080,note_on,1,0,3,,,,,,,,,2,,,38,0
17080,note_on,1,0,2,,,,,,,,,1,,,50,0
17119,note_on,39,0,3,,,,,,,,,2,,,37,0
17119,note_on,39,0,2,,,,,,,,,1,,,49,0
17120,note_on,1,0,3,,,,,,,,,2,,,35,75
17120,note_on,1,0,2,,,,,,,,,1,,,47,88
17160,note_on,0,0,3,,,,,,,,,2,,,41,75
17160,note_on,40,0,3,,,,,,,,,2,,,35,0
17160,note_on,0,0,2,,,,,,,,,1,,,53,88
17160,note_on,40,0,2,,,,,,,,,1,,,47,0
17199,note_on,39,0,2,,,,,,,,,1,,,52,88
17199,note_on,39,0,3,,,,,,,,,2,,,40,75
17200,note_on,1,0,3,,,,,,,,,2,,,41,0
17200,note_on,1,0,2,,,,,,,,,1,,,53,0
17239,note_on,39,0,2,,,,,,,,,1,,,52,0
17239,note_on,39,0,3,,,,,,,,,2,,,40,0
17240,note_on,1,0,3,,,,,,,,,2,,,38,75
17240,note_on,1,0,2,,,,,,,,,1,,,50,88
17280,control_change,0,0,2,,,,,,,,,1,64,127,,
17280,note_on,0,0,2,,,,,,,,,1,,,49,49
17280,note_on,40,0,2,,,,,,,,,1,,,50,0
17280,note_on,0,0,3,,,,,,,,,2,,,40,75
17280,note_on,40,0,3,,,,,,,,,2,,,38,0
17319,note_on,39,0,2,,,,,,,,,1,,,50,49
17320,note_on,1,0,2,,,,,,,,,1,,,49,0
17340,note_on,60,0,3,,,,,,,,,2,,,40,0
17359,note_on,39,0,2,,,,,,,,,1,,,50,0
17360,note_on,1,0,2,,,,,,,,,1,,,52,49
17400,note_on,1260,0,4,,,,,,,,,3,,,73,49
17400,note_on,0,0,4,,,,,,,,,3,,,76,49
17400,note_on,0,0,2,,,,,,,,,1,,,54,49
17400,note_on,40,0,2,,,,,,,,,1,,,52,0
17439,note_on,39,0,2,,,,,,,,,1,,,56,49
17440,note_on,1,0,2,,,,,,,,,1,,,54,0
17479,note_on,39,0,2,,,,,,,,,1,,,56,0
17480,note_on,0,0,2,,,,,,,,,1,,,57,49
17480,control_change,1,0,2,,,,,,,,,1,64,0,,
17490,note_on,0,0,4,,,,,,,,,3,,,73,0
17490,note_on,90,0,4,,,,,,,,,3,,,76,0
17490,note_on,0,0,4,,,,,,,,,3,,,73,49
17490,note_on,0,0,4,,,,,,,,,3,,,76,49
17520,note_on,30,0,4,,,,,,,,,3,,,76,0
17520,note_on,0,0,4,,,,,,,,,3,,,73,0
17520,note_on,0,0,4,,,,,,,,,3,,,71,49
17520,note_on,540,0,1,,,,,,,,,0,,,59,75
17520,note_on,40,0,2,,,,,,,,,1,,,57,0
17520,note_on,0,0,4,,,,,,,,,3,,,74,49
17559,note_on,39,0,1,,,,,,,,,0,,,61,75
17560,note_on,1,0,1,,,,,,,,,0,,,59,0
17580,note_on,0,0,4,,,,,,,,,3,,,71,0
17580,note_on,60,0,4,,,,,,,,,3,,,74,0
17599,note_on,39,0,1,,,,,,,,,0,,,61,0
17600,note_on,1,0,1,,,,,,,,,0,,,62,75
17600,note_on,260,0,3,,,,,,,,,2,,,52,62
17640,note_on,40,0,3,,,,,,,,,2,,,52,0
17640,note_on,0,0,3,,,,,,,,,2,,,50,62
17640,note_on,0,0,1,,,,,,,,,0,,,64,75
17640,note_on,40,0,1,,,,,,,,,0,,,62,0
17679,note_on,39,0,3,,,,,,,,,2,,,49,62
17679,note_on,39,0,1,,,,,,,,,0,,,66,75
17680,note_on,1,0,3,,,,,,,,,2,,,50,0
17680,note_on,1,0,1,,,,,,,,,0,,,64,0
17719,note_on,39,0,3,,,,,,,,,2,,,49,0
17719,note_on,39,0,1,,,,,,,,,0,,,66,0
17720,note_on,1,0,1,,,,,,,,,0,,,68,75
17720,note_on,1,0,3,,,,,,,,,2,,,47,62
17760,control_change,0,0,1,,,,,,,,,0,64,127,,
17760,note_on,0,0,1,,,,,,,,,0,,,69,75
17760,note_on,40,0,3,,,,,,,,,2,,,47,0
17760,note_on,0,0,3,,,,,,,,,2,,,45,62
17760,note_on,40,0,1,,,,,,,,,0,,,68,0
17799,note_on,39,0,1,,,,,,,,,0,,,71,75
17800,note_on,1,0,1,,,,,,,,,0,,,69,0
17820,note_on,60,0,3,,,,,,,,,2,,,45,0
17839,note_on,39,0,1,,,,,,,,,0,,,71,0
17840,note_on,1,0,1,,,,,,,,,0,,,73,75
17880,note_on,0,0,1,,,,,,,,,0,,,74,75
17880,note_on,40,0,1,,,,,,,,,0,,,73,0
17919,note_on,39,0,1,,,,,,,,,0,,,76,75
17920,note_on,1,0,1,,,,,,,,,0,,,74,0
17959,note_on,39,0,1,,,,,,,,,0,,,76,0
17960,note_on,1,0,1,,,,,,,,,0,,,78,75
18000,note_on,40,0,1,,,,,,,,,0,,,78,0
18000,control_change,0,0,1,,,,,,,,,0,64,0,,
18000,note_on,0,0,1,,,,,,,,,0,,,80,75
18039,note_on,39,0,1,,,,,,,,,0,,,81,75
18040,note_on,1,0,1,,,,,,,,,0,,,80,0
18079,note_on,39,0,1,,,,,,,,,0,,,81,0
18080,note_on,1,0,1,,,,,,,,,0,,,83,75
18120,note_on,40,0,1,,,,,,,,,0,,,83,0
18120,note_on,0,0,1,,,,,,,,,0,,,85,75
18159,note_on,39,0,1,,,,,,,,,0,,,86,75
18160,note_on,1,0,1,,,,,,,,,0,,,85,0
18199,note_on,39,0,1,,,,,,,,,0,,,86,0
18200,note_on,1,0,1,,,,,,,,,0,,,88,75
18240,control_change,0,0,1,,,,,,,,,0,64,127,,
18240,note_on,0,0,1,,,,,,,,,0,,,86,75
18240,note_on,40,0,1,,,,,,,,,0,,,88,0
18279,note_on,39,0,1,,,,,,,,,0,,,85,75
18280,note_on,1,0,1,,,,,,,,,0,,,86,0
18319,note_on,39,0,1,,,,,,,,,0,,,85,0
18320,note_on,1,0,1,,,,,,,,,0,,,83,75
18360,note_on,40,0,1,,,,,,,,,0,,,83,0
18360,note_on,0,0,1,,,,,,,,,0,,,81,75
18399,note_on,39,0,1,,,,,,,,,0,,,80,75
18400,note_on,1,0,1,,,,,,,,,0,,,81,0
18439,note_on,39,0,1,,,,,,,,,0,,,80,0
18440,note_on,1,0,1,,,,,,,,,0,,,78,75
18480,note_on,40,0,1,,,,,,,,,0,,,78,0
18480,control_change,0,0,1,,,,,,,,,0,64,0,,
18480,note_on,0,0,1,,,,,,,,,0,,,76,75
18519,note_on,39,0,1,,,,,,,,,0,,,74,75
18520,note_on,1,0,1,,,,,,,,,0,,,76,0
18559,note_on,39,0,1,,,,,,,,,0,,,74,0
18560,note_on,1,0,1,,,,,,,,,0,,,73,75
18600,note_on,0,0,1,,,,,,,,,0,,,71,75
18600,note_on,40,0,1,,,,,,,,,0,,,73,0
18639,note_on,39,0,1,,,,,,,,,0,,,69,75
18640,note_on,1,0,1,,,,,,,,,0,,,71,0
18679,note_on,39,0,1,,,,,,,,,0,,,69,0
18680,note_on,1,0,1,,,,,,,,,0,,,68,75
18720,note_on,900,0,3,,,,,,,,,2,,,57,36
18720,note_on,40,0,1,,,,,,,,,0,,,68,0
18720,note_on,0,0,1,,,,,,,,,0,,,69,49
18840,note_on,120,0,3,,,,,,,,,2,,,57,0
18840,note_on,0,0,3,,,,,,,,,2,,,49,36
18840,note_on,120,0,1,,,,,,,,,0,,,69,0
18840,note_on,0,0,1,,,,,,,,,0,,,61,49
18900,note_on,60,0,1,,,,,,,,,0,,,61,0
18900,note_on,60,0,3,,,,,,,,,2,,,49,0
18960,note_on,60,0,1,,,,,,,,,0,,,71,49
18960,note_on,60,0,3,,,,,,,,,2,,,59,36
19080,note_on,120,0,1,,,,,,,,,0,,,71,0
19080,note_on,120,0,3,,,,,,,,,2,,,59,0
19080,note_on,0,0,1,,,,,,,,,0,,,64,49
19080,note_on,0,0,3,,,,,,,,,2,,,52,36
19140,note_on,60,0,3,,,,,,,,,2,,,52,0
19140,note_on,60,0,1,,,,,,,,,0,,,64,0
19185,note_on,45,0,1,,,,,,,,,0,,,64,49
19185,note_on,45,0,3,,,,,,,,,2,,,52,36
19200,note_on,0,0,1,,,,,,,,,0,,,73,49
19200,note_on,15,0,1,,,,,,,,,0,,,64,0
19200,note_on,0,0,3,,,,,,,,,2,,,61,36
19200,note_on,15,0,3,,,,,,,,,2,,,52,0
19320,note_on,120,0,1,,,,,,,,,0,,,73,0
19320,note_on,0,0,3,,,,,,,,,2,,,57,36
19320,note_on,120,0,3,,,,,,,,,2,,,61,0
19320,note_on,0,0,1,,,,,,,,,0,,,69,49
19380,note_on,60,0,1,,,,,,,,,0,,,69,0
19380,note_on,60,0,3,,,,,,,,,2,,,57,0
19425,note_on,45,0,1,,,,,,,,,0,,,69,49
19425,note_on,45,0,3,,,,,,,,,2,,,57,36
19440,control_change,0,0,3,,,,,,,,,2,64,127,,
19440,note_on,15,0,3,,,,,,,,,2,,,57,0
19440,note_on,0,0,1,,,,,,,,,0,,,78,75
19440,control_change,0,0,1,,,,,,,,,0,64,127,,
19440,note_on,15,0,1,,,,,,,,,0,,,69,0
19440,note_on,0,0,3,,,,,,,,,2,,,66,62
19530,note_on,0,0,3,,,,,,,,,2,,,63,36
19530,note_on,90,0,3,,,,,,,,,2,,,66,0
19530,note_on,90,0,1,,,,,,,,,0,,,78,0
19530,note_on,0,0,1,,,,,,,,,0,,,75,49
19560,note_on,30,0,1,,,,,,,,,0,,,75,0
19560,note_on,0,0,1,,,,,,,,,0,,,78,49
19560,note_on,0,0,3,,,,,,,,,2,,,66,36
19560,note_on,30,0,3,,,,,,,,,2,,,63,0
19650,control_change,0,0,3,,,,,,,,,2,64,0,,
19650,note_on,90,0,3,,,,,,,,,2,,,66,0
19650,note_on,0,0,3,,,,,,,,,2,,,63,36
19650,note_on,90,0,1,,,,,,,,,0,,,78,0
19650,control_change,0,0,1,,,,,,,,,0,64,0,,
19650,note_on,0,0,1,,,,,,,,,0,,,75,49
19680,note_on,0,0,3,,,,,,,,,2,,,64,62
19680,note_on,30,0,3,,,,,,,,,2,,,63,0
19680,note_on,30,0,1,,,,,,,,,0,,,75,0
19680,note_on,0,0,1,,,,,,,,,0,,,76,75
19800,note_on,0,0,1,,,,,,,,,0,,,64,49
19800,note_on,120,0,1,,,,,,,,,0,,,76,0
19800,note_on,120,0,3,,,,,,,,,2,,,64,0
19800,note_on,0,0,3,,,,,,,,,2,,,52,36
19860,note_on,60,0,1,,,,,,,,,0,,,64,0
19860,note_on,60,0,3,,,,,,,,,2,,,52,0
19905,note_on,45,0,1,,,,,,,,,0,,,64,49
19905,note_on,45,0,3,,,,,,,,,2,,,52,36
19920,note_on,15,0,3,,,,,,,,,2,,,52,0
19920,note_on,0,0,1,,,,,,,,,0,,,74,49
19920,note_on,15,0,1,,,,,,,,,0,,,64,0
19920,note_on,0,0,3,,,,,,,,,2,,,62,36
20040,note_on,0,0,1,,,,,,,,,0,,,71,49
20040,note_on,120,0,1,,,,,,,,,0,,,74,0
20040,note_on,0,0,3,,,,,,,,,2,,,59,36
20040,note_on,120,0,3,,,,,,,,,2,,,62,0
20100,note_on,60,0,3,,,,,,,,,2,,,59,0
20100,note_on,60,0,1,,,,,,,,,0,,,71,0
20145,note_on,45,0,3,,,,,,,,,2,,,59,36
20145,note_on,45,0,1,,,,,,,,,0,,,71,49
20160,note_on,0,0,1,,,,,,,,,0,,,73,49
20160,note_on,15,0,3,,,,,,,,,2,,,59,0
20160,note_on,0,0,3,,,,,,,,,2,,,61,36
20160,note_on,15,0,1,,,,,,,,,0,,,71,0
20280,note_on,120,0,3,,,,,,,,,2,,,61,0
20280,note_on,0,0,3,,,,,,,,,2,,,52,36
20280,note_on,120,0,1,,,,,,,,,0,,,73,0
20280,note_on,0,0,1,,,,,,,,,0,,,64,49
20340,note_on,60,0,1,,,,,,,,,0,,,64,0
20340,note_on,60,0,3,,,,,,,,,2,,,52,0
20385,note_on,45,0,1,,,,,,,,,0,,,64,49
20385,note_on,45,0,3,,,,,,,,,2,,,52,36
20400,note_on,0,0,1,,,,,,,,,0,,,71,49
20400,control_change,0,0,1,,,,,,,,,0,64,127,,
20400,note_on,15,0,1,,,,,,,,,0,,,64,0
20400,note_on,0,0,3,,,,,,,,,2,,,59,36
20400,note_on,15,0,3,,,,,,,,,2,,,52,0
20400,control_change,0,0,3,,,,,,,,,2,64,127,,
20490,note_on,90,0,3,,,,,,,,,2,,,59,0
20490,note_on,0,0,3,,,,,,,,,2,,,56,36
20490,note_on,90,0,1,,,,,,,,,0,,,71,0
20490,note_on,0,0,1,,,,,,,,,0,,,68,49
20520,note_on,30,0,3,,,,,,,,,2,,,56,0
20520,note_on,30,0,1,,,,,,,,,0,,,68,0
20520,note_on,0,0,3,,,,,,,,,2,,,59,36
20520,note_on,0,0,1,,,,,,,,,0,,,71,49
20610,control_change,0,0,1,,,,,,,,,0,64,0,,
20610,control_change,0,0,3,,,,,,,,,2,64,0,,
20610,note_on,90,0,1,,,,,,,,,0,,,71,0
20610,note_on,0,0,3,,,,,,,,,2,,,56,36
20610,note_on,90,0,3,,,,,,,,,2,,,59,0
20610,note_on,0,0,1,,,,,,,,,0,,,68,49
20640,control_change,0,0,1,,,,,,,,,0,64,127,,
20640,note_on,30,0,1,,,,,,,,,0,,,68,0
20640,note_on,30,0,3,,,,,,,,,2,,,56,0
20640,note_on,0,0,3,,,,,,,,,2,,,49,36
20640,note_on,0,0,3,,,,,,,,,2,,,57,36
20640,note_on,0,0,1,,,,,,,,,0,,,69,49
20679,note_on,39,0,1,,,,,,,,,0,,,64,49
20680,note_on,1,0,1,,,,,,,,,0,,,69,0
20719,note_on,39,0,1,,,,,,,,,0,,,64,0
20720,note_on,1,0,1,,,,,,,,,0,,,69,49
20760,note_on,120,0,3,,,,,,,,,2,,,57,0
20760,note_on,0,0,3,,,,,,,,,2,,,49,0
20760,note_on,0,0,3,,,,,,,,,2,,,52,36
20760,note_on,0,0,1,,,,,,,,,0,,,61,49
20760,note_on,40,0,1,,,,,,,,,0,,,69,0
20760,control_change,0,0,1,,,,,,,,,0,64,0,,
20820,note_on,60,0,1,,,,,,,,,0,,,61,0
20820,note_on,60,0,3,,,,,,,,,2,,,52,0
20880,note_on,0,0,1,,,,,,,,,0,,,71,49
20880,control_change,60,0,1,,,,,,,,,0,64,127,,
20880,note_on,60,0,3,,,,,,,,,2,,,56,36
20880,note_on,0,0,3,,,,,,,,,2,,,59,36
20919,note_on,39,0,1,,,,,,,,,0,,,68,49
20920,note_on,1,0,1,,,,,,,,,0,,,71,0
20959,note_on,39,0,1,,,,,,,,,0,,,68,0
20960,note_on,1,0,1,,,,,,,,,0,,,71,49
21000,note_on,0,0,3,,,,,,,,,2,,,52,36
21000,note_on,120,0,3,,,,,,,,,2,,,59,0
21000,note_on,0,0,1,,,,,,,,,0,,,64,49
21000,control_change,0,0,1,,,,,,,,,0,64,0,,
21000,note_on,40,0,1,,,,,,,,,0,,,71,0
21000,note_on,0,0,3,,,,,,,,,2,,,56,0
21060,note_on,60,0,1,,,,,,,,,0,,,64,0
21060,note_on,60,0,3,,,,,,,,,2,,,52,0
21120,note_on,60,0,3,,,,,,,,,2,,,52,36
21120,note_on,0,0,3,,,,,,,,,2,,,61,36
21120,note_on,0,0,1,,,,,,,,,0,,,73,49
21120,control_change,60,0,1,,,,,,,,,0,64,127,,
21159,note_on,39,0,1,,,,,,,,,0,,,71,49
21160,note_on,1,0,1,,,,,,,,,0,,,73,0
21199,note_on,39,0,1,,,,,,,,,0,,,71,0
21200,note_on,1,0,1,,,,,,,,,0,,,73,49
21240,note_on,0,0,3,,,,,,,,,2,,,52,0
21240,note_on,0,0,3,,,,,,,,,2,,,57,36
21240,note_on,120,0,3,,,,,,,,,2,,,61,0
21240,note_on,40,0,1,,,,,,,,,0,,,73,0
21240,control_change,0,0,1,,,,,,,,,0,64,0,,
21240,note_on,0,0,1,,,,,,,,,0,,,69,49
21300,note_on,60,0,1,,,,,,,,,0,,,69,0
21300,note_on,60,0,3,,,,,,,,,2,,,57,0
21360,note_on,0,0,1,,,,,,,,,0,,,78,49
21360,control_change,60,0,1,,,,,,,,,0,64,127,,
21360,note_on,0,0,3,,,,,,,,,2,,,63,36
21360,note_on,0,0,3,,,,,,,,,2,,,60,36
21360,control_change,60,0,3,,,,,,,,,2,64,127,,
21399,note_on,39,0,1,,,,,,,,,0,,,75,49
21400,note_on,1,0,1,,,,,,,,,0,,,78,0
21439,note_on,39,0,1,,,,,,,,,0,,,75,0
21440,note_on,1,0,1,,,,,,,,,0,,,78,49
21450,note_on,90,0,3,,,,,,,,,2,,,63,0
21450,note_on,0,0,3,,,,,,,,,2,,,60,0
21450,note_on,0,0,3,,,,,,,,,2,,,57,36
21480,note_on,0,0,3,,,,,,,,,2,,,60,36
21480,note_on,0,0,3,,,,,,,,,2,,,63,36
21480,note_on,40,0,1,,,,,,,,,0,,,78,0
21480,note_on,0,0,1,,,,,,,,,0,,,81,49
21480,note_on,30,0,3,,,,,,,,,2,,,57,0
21519,note_on,39,0,1,,,,,,,,,0,,,78,49
21520,note_on,1,0,1,,,,,,,,,0,,,81,0
21559,note_on,39,0,1,,,,,,,,,0,,,78,0
21560,control_change,1,0,1,,,,,,,,,0,64,0,,
21560,note_on,0,0,1,,,,,,,,,0,,,75,49
21570,note_on,0,0,3,,,,,,,,,2,,,57,36
21570,note_on,90,0,3,,,,,,,,,2,,,63,0
21570,note_on,0,0,3,,,,,,,,,2,,,60,0
21570,control_change,0,0,3,,,,,,,,,2,64,0,,
21600,note_on,0,0,3,,,,,,,,,2,,,64,36
21600,note_on,0,0,3,,,,,,,,,2,,,61,36
21600,note_on,30,0,3,,,,,,,,,2,,,57,0
21600,note_on,40,0,1,,,,,,,,,0,,,75,0
21600,note_on,0,0,1,,,,,,,,,0,,,76,49
21600,control_change,0,0,1,,,,,,,,,0,64,127,,
21639,note_on,39,0,1,,,,,,,,,0,,,73,49
21640,note_on,1,0,1,,,,,,,,,0,,,76,0
21679,note_on,39,0,1,,,,,,,,,0,,,73,0
21680,note_on,1,0,1,,,,,,,,,0,,,76,49
21720,note_on,120,0,3,,,,,,,,,2,,,64,0
21720,note_on,40,0,1,,,,,,,,,0,,,76,0
21720,note_on,0,0,3,,,,,,,,,2,,,52,36
21720,note_on,0,0,3,,,,,,,,,2,,,61,0
21720,control_change,0,0,1,,,,,,,,,0,64,0,,
21720,note_on,0,0,1,,,,,,,,,0,,,64,49
21780,note_on,60,0,3,,,,,,,,,2,,,52,0
21780,note_on,60,0,1,,,,,,,,,0,,,64,0
21840,control_change,60,0,1,,,,,,,,,0,64,127,,
21840,note_on,60,0,3,,,,,,,,,2,,,59,36
21840,note_on,0,0,1,,,,,,,,,0,,,74,49
21840,note_on,0,0,3,,,,,,,,,2,,,62,36
21879,note_on,39,0,1,,,,,,,,,0,,,73,49
21880,note_on,1,0,1,,,,,,,,,0,,,74,0
21919,note_on,39,0,1,,,,,,,,,0,,,73,0
21920,note_on,1,0,1,,,,,,,,,0,,,74,49
21960,control_change,0,0,1,,,,,,,,,0,64,0,,
21960,note_on,0,0,3,,,,,,,,,2,,,59,0
21960,note_on,0,0,1,,,,,,,,,0,,,71,49
21960,note_on,0,0,3,,,,,,,,,2,,,52,36
21960,note_on,40,0,1,,,,,,,,,0,,,74,0
21960,note_on,120,0,3,,,,,,,,,2,,,62,0
22020,note_on,60,0,1,,,,,,,,,0,,,71,0
22020,note_on,60,0,3,,,,,,,,,2,,,52,0
22080,note_on,60,0,3,,,,,,,,,2,,,57,36
22080,note_on,0,0,3,,,,,,,,,2,,,61,36
22080,note_on,0,0,1,,,,,,,,,0,,,73,49
22080,control_change,60,0,1,,,,,,,,,0,64,127,,
22119,note_on,39,0,1,,,,,,,,,0,,,69,49
22120,note_on,1,0,1,,,,,,,,,0,,,73,0
22159,note_on,39,0,1,,,,,,,,,0,,,69,0
22160,note_on,1,0,1,,,,,,,,,0,,,73,49
22200,note_on,120,0,3,,,,,,,,,2,,,61,0
22200,note_on,0,0,3,,,,,,,,,2,,,57,0
22200,note_on,0,0,3,,,,,,,,,2,,,52,36
22200,control_change,0,0,1,,,,,,,,,0,64,0,,
22200,note_on,0,0,1,,,,,,,,,0,,,64,49
22200,note_on,40,0,1,,,,,,,,,0,,,73,0
22260,note_on,60,0,3,,,,,,,,,2,,,52,0
22260,note_on,60,0,1,,,,,,,,,0,,,64,0
22320,control_change,60,0,3,,,,,,,,,2,64,127,,
22320,control_change,60,0,1,,,,,,,,,0,64,127,,
22320,note_on,0,0,1,,,,,,,,,0,,,71,49
22320,note_on,0,0,3,,,,,,,,,2,,,56,36
22320,note_on,0,0,3,,,,,,,,,2,,,59,36
22410,note_on,0,0,1,,,,,,,,,0,,,68,49
22410,note_on,90,0,1,,,,,,,,,0,,,71,0
22410,note_on,0,0,3,,,,,,,,,2,,,52,36
22410,note_on,0,0,3,,,,,,,,,2,,,56,0
22410,note_on,90,0,3,,,,,,,,,2,,,59,0
22440,note_on,0,0,3,,,,,,,,,2,,,56,36
22440,note_on,30,0,3,,,,,,,,,2,,,52,0
22440,note_on,0,0,1,,,,,,,,,0,,,71,49
22440,note_on,30,0,1,,,,,,,,,0,,,68,0
22440,note_on,0,0,3,,,,,,,,,2,,,59,36
22530,control_change,0,0,1,,,,,,,,,0,64,0,,
22530,note_on,0,0,1,,,,,,,,,0,,,68,49
22530,note_on,90,0,1,,,,,,,,,0,,,71,0
22530,note_on,0,0,3,,,,,,,,,2,,,52,36
22530,note_on,0,0,3,,,,,,,,,2,,,56,0
22530,note_on,90,0,3,,,,,,,,,2,,,59,0
22530,control_change,0,0,3,,,,,,,,,2,64,0,,
22560,control_change,0,0,1,,,,,,,,,0,64,127,,
22560,note_on,30,0,1,,,,,,,,,0,,,68,0
22560,note_on,30,0,3,,,,,,,,,2,,,52,0
22560,control_change,0,0,3,,,,,,,,,2,64,127,,
22560,note_on,0,0,3,,,,,,,,,2,,,59,88
22560,note_on,0,0,1,,,,,,,,,0,,,71,101
22599,note_on,39,0,1,,,,,,,,,0,,,62,101
22599,note_on,39,0,3,,,,,,,,,2,,,50,88
22600,note_on,1,0,1,,,,,,,,,0,,,71,0
22600,note_on,1,0,3,,,,,,,,,2,,,59,0
22639,note_on,39,0,3,,,,,,,,,2,,,50,0
22639,note_on,39,0,1,,,,,,,,,0,,,62,0
22640,note_on,1,0,3,,,,,,,,,2,,,59,88
22640,note_on,1,0,1,,,,,,,,,0,,,71,101
22680,note_on,40,0,1,,,,,,,,,0,,,71,0
22680,note_on,0,0,1,,,,,,,,,0,,,55,101
22680,note_on,0,0,3,,,,,,,,,2,,,43,88
22680,note_on,40,0,3,,,,,,,,,2,,,59,0
22890,note_on,0,0,1,,,,,,,,,0,,,62,101
22890,note_on,0,0,1,,,,,,,,,0,,,71,101
22890,note_on,0,0,3,,,,,,,,,2,,,50,88
22890,note_on,210,0,1,,,,,,,,,0,,,55,0
22890,note_on,210,0,3,,,,,,,,,2,,,43,0
22890,note_on,0,0,3,,,,,,,,,2,,,59,88
22920,note_on,0,0,3,,,,,,,,,2,,,43,88
22920,note_on,0,0,3,,,,,,,,,2,,,50,0
22920,note_on,30,0,1,,,,,,,,,0,,,71,0
22920,note_on,0,0,1,,,,,,,,,0,,,62,0
22920,note_on,0,0,1,,,,,,,,,0,,,55,101
22920,note_on,30,0,3,,,,,,,,,2,,,59,0
23010,note_on,0,0,3,,,,,,,,,2,,,50,88
23010,note_on,90,0,3,,,,,,,,,2,,,43,0
23010,note_on,90,0,1,,,,,,,,,0,,,55,0
23010,note_on,0,0,1,,,,,,,,,0,,,62,101
23040,note_on,0,0,1,,,,,,,,,0,,,71,101
23040,note_on,30,0,1,,,,,,,,,0,,,62,0
23040,note_on,30,0,3,,,,,,,,,2,,,50,0
23040,note_on,0,0,3,,,,,,,,,2,,,59,88
23079,note_on,39,0,3,,,,,,,,,2,,,50,88
23079,note_on,39,0,1,,,,,,,,,0,,,62,101
23080,note_on,1,0,3,,,,,,,,,2,,,59,0
23080,note_on,1,0,1,,,,,,,,,0,,,71,0
23119,note_on,39,0,3,,,,,,,,,2,,,50,0
23119,note_on,39,0,1,,,,,,,,,0,,,62,0
23120,note_on,1,0,3,,,,,,,,,2,,,59,88
23120,note_on,1,0,1,,,,,,,,,0,,,71,101
23160,note_on,0,0,1,,,,,,,,,0,,,55,101
23160,note_on,40,0,1,,,,,,,,,0,,,71,0
23160,note_on,0,0,3,,,,,,,,,2,,,43,88
23160,note_on,40,0,3,,,,,,,,,2,,,59,0
23370,note_on,210,0,1,,,,,,,,,0,,,55,0
23370,note_on,0,0,1,,,,,,,,,0,,,71,101
23370,note_on,0,0,1,,,,,,,,,0,,,62,101
23370,note_on,0,0,3,,,,,,,,,2,,,59,88
23370,note_on,210,0,3,,,,,,,,,2,,,43,0
23370,note_on,0,0,3,,,,,,,,,2,,,50,88
23400,note_on,0,0,3,,,,,,,,,2,,,43,88
23400,note_on,0,0,3,,,,,,,,,2,,,50,0
23400,note_on,30,0,3,,,,,,,,,2,,,59,0
23400,note_on,0,0,1,,,,,,,,,0,,,55,101
23400,note_on,0,0,1,,,,,,,,,0,,,62,0
23400,note_on,30,0,1,,,,,,,,,0,,,71,0
23610,note_on,210,0,1,,,,,,,,,0,,,55,0
23610,note_on,0,0,3,,,,,,,,,2,,,59,88
23610,note_on,0,0,3,,,,,,,,,2,,,50,88
23610,note_on,210,0,3,,,,,,,,,2,,,43,0
23610,note_on,0,0,1,,,,,,,,,0,,,71,101
23610,note_on,0,0,1,,,,,,,,,0,,,62,101
23640,note_on,0,0,3,,,,,,,,,2,,,43,114
23640,note_on,0,0,3,,,,,,,,,2,,,50,0
23640,note_on,0,0,1,,,,,,,,,0,,,55,127
23640,note_on,30,0,3,,,,,,,,,2,,,59,0
23640,note_on,0,0,1,,,,,,,,,0,,,62,0
23640,note_on,30,0,1,,,,,,,,,0,,,71,0
23850,note_on,210,0,3,,,,,,,,,2,,,43,0
23850,note_on,0,0,1,,,,,,,,,0,,,62,101
23850,note_on,0,0,3,,,,,,,,,2,,,59,88
23850,note_on,0,0,1,,,,,,,,,0,,,71,101
23850,note_on,210,0,1,,,,,,,,,0,,,55,0
23850,note_on,0,0,3,,,,,,,,,2,,,50,88
23880,note_on,0,0,1,,,,,,,,,0,,,55,127
23880,note_on,0,0,1,,,,,,,,,0,,,62,0
23880,note_on,30,0,1,,,,,,,,,0,,,71,0
23880,note_on,0,0,3,,,,,,,,,2,,,43,114
23880,note_on,0,0,3,,,,,,,,,2,,,50,0
23880,note_on,30,0,3,,,,,,,,,2,,,59,0
23970,note_on,0,0,1,,,,,,,,,0,,,71,101
23970,control_change,0,0,3,,,,,,,,,2,64,0,,
23970,note_on,0,0,3,,,,,,,,,2,,,55,88
23970,note_on,0,0,1,,,,,,,,,0,,,62,101
23970,control_change,0,0,1,,,,,,,,,0,64,0,,
23970,note_on,90,0,1,,,,,,,,,0,,,55,0
23970,note_on,90,0,3,,,,,,,,,2,,,43,0
24000,control_change,0,0,3,,,,,,,,,2,64,127,,
24000,note_on,0,0,3,,,,,,,,,2,,,48,88
24000,note_on,30,0,3,,,,,,,,,2,,,55,0
24000,note_on,0,0,1,,,,,,,,,0,,,62,0
24000,note_on,30,0,1,,,,,,,,,0,,,71,0
24000,control_change,0,0,1,,,,,,,,,0,64,127,,
24000,note_on,0,0,1,,,,,,,,,0,,,72,101
24039,note_on,39,0,1,,,,,,,,,0,,,64,101
24039,note_on,39,0,3,,,,,,,,,2,,,55,88
24040,note_on,1,0,3,,,,,,,,,2,,,48,0
24040,note_on,1,0,1,,,,,,,,,0,,,72,0
24079,note_on,39,0,3,,,,,,,,,2,,,55,0
24079,note_on,39,0,1,,,,,,,,,0,,,64,0
24080,note_on,1,0,3,,,,,,,,,2,,,48,88
24080,note_on,1,0,1,,,,,,,,,0,,,72,101
24120,note_on,0,0,1,,,,,,,,,0,,,76,127
24120,note_on,0,0,3,,,,,,,,,2,,,36,114
24120,note_on,40,0,1,,,,,,,,,0,,,72,0
24120,note_on,40,0,3,,,,,,,,,2,,,48,0
24330,note_on,210,0,3,,,,,,,,,2,,,36,0
24330,note_on,0,0,3,,,,,,,,,2,,,48,88
24330,note_on,0,0,3,,,,,,,,,2,,,55,88
24330,note_on,210,0,1,,,,,,,,,0,,,76,0
24330,note_on,0,0,1,,,,,,,,,0,,,64,101
24360,note_on,30,0,1,,,,,,,,,0,,,64,0
24360,note_on,0,0,3,,,,,,,,,2,,,36,114
24360,note_on,0,0,3,,,,,,,,,2,,,48,0
24360,note_on,30,0,3,,,,,,,,,2,,,55,0
24360,note_on,0,0,1,,,,,,,,,0,,,76,127
24360,note_on,0,0,1,,,,,,,,,0,,,72,119
24450,note_on,0,0,1,,,,,,,,,0,,,64,101
24450,note_on,90,0,1,,,,,,,,,0,,,76,0
24450,note_on,90,0,3,,,,,,,,,2,,,36,0
24450,note_on,0,0,3,,,,,,,,,2,,,55,88
24450,note_on,0,0,1,,,,,,,,,0,,,72,0
24480,note_on,30,0,1,,,,,,,,,0,,,64,0
24480,note_on,0,0,1,,,,,,,,,0,,,72,101
24480,note_on,30,0,3,,,,,,,,,2,,,55,0
24480,note_on,0,0,3,,,,,,,,,2,,,48,88
24519,note_on,39,0,1,,,,,,,,,0,,,64,101
24519,note_on,39,0,3,,,,,,,,,2,,,55,88
24520,note_on,1,0,3,,,,,,,,,2,,,48,0
24520,note_on,1,0,1,,,,,,,,,0,,,72,0
24559,note_on,39,0,3,,,,,,,,,2,,,55,0
24559,note_on,39,0,1,,,,,,,,,0,,,64,0
24560,note_on,1,0,1,,,,,,,,,0,,,72,101
24560,note_on,1,0,3,,,,,,,,,2,,,48,88
24600,note_on,40,0,3,,,,,,,,,2,,,48,0
24600,note_on,0,0,1,,,,,,,,,0,,,76,127
24600,note_on,40,0,1,,,,,,,,,0,,,72,0
24600,note_on,0,0,3,,,,,,,,,2,,,36,114
24810,note_on,0,0,1,,,,,,,,,0,,,64,101
24810,note_on,210,0,1,,,,,,,,,0,,,76,0
24810,note_on,210,0,3,,,,,,,,,2,,,36,0
24810,note_on,0,0,3,,,,,,,,,2,,,48,88
24810,note_on,0,0,3,,,,,,,,,2,,,55,88
24840,note_on,0,0,3,,,,,,,,,2,,,36,114
24840,note_on,0,0,3,,,,,,,,,2,,,48,0
24840,note_on,30,0,3,,,,,,,,,2,,,55,0
24840,note_on,0,0,1,,,,,,,,,0,,,76,127
24840,note_on,30,0,1,,,,,,,,,0,,,64,0
24840,note_on,0,0,1,,,,,,,,,0,,,72,119
25050,note_on,210,0,3,,,,,,,,,2,,,36,0
25050,note_on,0,0,3,,,,,,,,,2,,,48,88
25050,note_on,0,0,3,,,,,,,,,2,,,55,88
25050,note_on,210,0,1,,,,,,,,,0,,,76,0
25050,note_on,0,0,1,,,,,,,,,0,,,64,101
25050,note_on,0,0,1,,,,,,,,,0,,,72,0
25080,note_on,30,0,1,,,,,,,,,0,,,64,0
25080,control_change,0,0,1,,,,,,,,,0,64,0,,
25080,note_on,0,0,1,,,,,,,,,0,,,72,119
25080,note_on,0,0,1,,,,,,,,,0,,,76,127
25080,note_on,0,0,3,,,,,,,,,2,,,36,114
25080,control_change,0,0,3,,,,,,,,,2,64,0,,
25080,note_on,30,0,3,,,,,,,,,2,,,55,0
25080,note_on,0,0,3,,,,,,,,,2,,,48,0
25290,note_on,210,0,3,,,,,,,,,2,,,36,0
25290,control_change,0,0,1,,,,,,,,,0,64,127,,
25290,note_on,0,0,1,,,,,,,,,0,,,64,101
25290,note_on,210,0,1,,,,,,,,,0,,,76,0
25290,control_change,0,0,3,,,,,,,,,2,64,127,,
25290,note_on,0,0,3,,,,,,,,,2,,,40,88
25290,note_on,0,0,1,,,,,,,,,0,,,72,0
25320,note_on,0,0,3,,,,,,,,,2,,,35,114
25320,note_on,0,0,1,,,,,,,,,0,,,76,127
25320,note_on,0,0,1,,,,,,,,,0,,,74,122
25320,note_on,0,0,1,,,,,,,,,0,,,68,117
25320,note_on,30,0,1,,,,,,,,,0,,,64,0
25320,note_on,30,0,3,,,,,,,,,2,,,40,0
25530,note_on,0,0,1,,,,,,,,,0,,,64,49
25530,note_on,0,0,1,,,,,,,,,0,,,68,0
25530,note_on,0,0,1,,,,,,,,,0,,,74,0
25530,note_on,210,0,3,,,,,,,,,2,,,35,0
25530,note_on,210,0,1,,,,,,,,,0,,,76,0
25530,note_on,0,0,3,,,,,,,,,2,,,40,36
25560,note_on,30,0,3,,,,,,,,,2,,,40,0
25560,note_on,0,0,3,,,,,,,,,2,,,35,36
25560,note_on,30,0,1,,,,,,,,,0,,,64,0
25560,note_on,0,0,1,,,,,,,,,0,,,68,49
25560,note_on,0,0,1,,,,,,,,,0,,,74,49
25560,note_on,0,0,1,,,,,,,,,0,,,76,49
25650,note_on,90,0,3,,,,,,,,,2,,,35,0
25650,note_on,90,0,1,,,,,,,,,0,,,76,0
25650,note_on,0,0,1,,,,,,,,,0,,,74,0
25650,note_on,0,0,1,,,,,,,,,0,,,68,0
25650,note_on,0,0,1,,,,,,,,,0,,,64,49
25650,note_on,0,0,3,,,,,,,,,2,,,40,36
25680,note_on,30,0,1,,,,,,,,,0,,,64,0
25680,note_on,0,0,3,,,,,,,,,2,,,35,36
25680,note_on,0,0,1,,,,,,,,,0,,,68,49
25680,note_on,0,0,1,,,,,,,,,0,,,76,49
25680,note_on,30,0,3,,,,,,,,,2,,,40,0
25680,note_on,0,0,1,,,,,,,,,0,,,74,49
25770,note_on,90,0,1,,,,,,,,,0,,,76,0
25770,note_on,0,0,1,,,,,,,,,0,,,74,0
25770,note_on,0,0,1,,,,,,,,,0,,,68,0
25770,note_on,0,0,1,,,,,,,,,0,,,64,49
25770,note_on,0,0,3,,,,,,,,,2,,,40,36
25770,note_on,90,0,3,,,,,,,,,2,,,35,0
25800,note_on,0,0,3,,,,,,,,,2,,,35,36
25800,note_on,30,0,3,,,,,,,,,2,,,40,0
25800,note_on,0,0,1,,,,,,,,,0,,,74,49
25800,note_on,30,0,1,,,,,,,,,0,,,64,0
25800,note_on,0,0,1,,,,,,,,,0,,,76,49
25800,note_on,0,0,1,,,,,,,,,0,,,68,49
25890,note_on,0,0,1,,,,,,,,,0,,,64,49
25890,control_change,0,0,1,,,,,,,,,0,64,0,,
25890,note_on,0,0,1,,,,,,,,,0,,,74,0
25890,note_on,0,0,3,,,,,,,,,2,,,40,36
25890,control_change,0,0,3,,,,,,,,,2,64,0,,
25890,note_on,90,0,3,,,,,,,,,2,,,35,0
25890,note_on,90,0,1,,,,,,,,,0,,,76,0
25890,note_on,0,0,1,,,,,,,,,0,,,68,0
25920,note_on,0,0,3,,,,,,,,,2,,,33,36
25920,note_on,0,0,1,,,,,,,,,0,,,73,49
25920,note_on,0,0,1,,,,,,,,,0,,,69,49
25920,control_change,0,0,1,,,,,,,,,0,64,127,,
25920,note_on,0,0,1,,,,,,,,,0,,,76,49
25920,note_on,30,0,1,,,,,,,,,0,,,64,0
25920,note_on,30,0,3,,,,,,,,,2,,,40,0
25959,note_on,39,0,1,,,,,,,,,0,,,64,49
25960,note_on,0,0,1,,,,,,,,,0,,,73,0
25960,note_on,1,0,1,,,,,,,,,0,,,76,0
25960,note_on,0,0,1,,,,,,,,,0,,,69,0
25980,note_on,60,0,3,,,,,,,,,2,,,33,0
25999,note_on,39,0,1,,,,,,,,,0,,,64,0
26000,note_on,1,0,1,,,,,,,,,0,,,69,49
26040,note_on,0,0,1,,,,,,,,,0,,,73,49
26040,note_on,40,0,1,,,,,,,,,0,,,69,0
26079,note_on,39,0,1,,,,,,,,,0,,,76,49
26080,note_on,1,0,1,,,,,,,,,0,,,73,0
26119,note_on,39,0,1,,,,,,,,,0,,,76,0
26120,note_on,1,0,1,,,,,,,,,0,,,81,49
26160,note_on,0,0,1,,,,,,,,,0,,,76,49
26160,note_on,40,0,1,,,,,,,,,0,,,81,0
26199,note_on,0,0,2,,,,,,,,,1,,,57,36
26199,control_change,8679,0,2,,,,,,,,,1,64,127,,
26199,note_on,39,0,1,,,,,,,,,0,,,69,49
26200,note_on,1,0,1,,,,,,,,,0,,,76,0
26239,note_on,39,0,1,,,,,,,,,0,,,69,0
26239,note_on,40,0,2,,,,,,,,,1,,,57,0
26240,note_on,1,0,2,,,,,,,,,1,,,61,36
26240,note_on,1,0,1,,,,,,,,,0,,,73,49
26280,note_on,0,0,2,,,,,,,,,1,,,64,36
26280,note_on,40,0,2,,,,,,,,,1,,,61,0
26280,note_on,40,0,1,,,,,,,,,0,,,73,0
26280,note_on,0,0,1,,,,,,,,,0,,,76,49
26319,note_on,39,0,1,,,,,,,,,0,,,81,49
26319,note_on,39,0,2,,,,,,,,,1,,,69,36
26320,note_on,1,0,2,,,,,,,,,1,,,64,0
26320,note_on,1,0,1,,,,,,,,,0,,,76,0
26359,note_on,39,0,1,,,,,,,,,0,,,81,0
26359,note_on,39,0,2,,,,,,,,,1,,,69,0
26360,control_change,1,0,1,,,,,,,,,0,64,0,,
26360,note_on,0,0,1,,,,,,,,,0,,,85,49
26360,note_on,0,0,2,,,,,,,,,1,,,73,36
26360,control_change,1,0,2,,,,,,,,,1,64,0,,
26400,note_on,40,0,1,,,,,,,,,0,,,85,0
26400,note_on,0,0,1,,,,,,,,,0,,,76,49
26400,note_on,420,0,3,,,,,,,,,2,,,64,36
26400,note_on,40,0,2,,,,,,,,,1,,,73,0
26439,note_on,39,0,1,,,,,,,,,0,,,78,49
26440,note_on,1,0,1,,,,,,,,,0,,,76,0
26460,note_on,60,0,3,,,,,,,,,2,,,64,0
26479,note_on,39,0,1,,,,,,,,,0,,,78,0
26480,note_on,1,0,1,,,,,,,,,0,,,76,49
26520,note_on,0,0,3,,,,,,,,,2,,,62,36
26520,note_on,0,0,3,,,,,,,,,2,,,59,36
26520,note_on,60,0,3,,,,,,,,,2,,,52,36
26520,note_on,0,0,1,,,,,,,,,0,,,74,49
26520,note_on,40,0,1,,,,,,,,,0,,,76,0
26559,note_on,39,0,1,,,,,,,,,0,,,78,49
26560,note_on,1,0,1,,,,,,,,,0,,,74,0
26580,note_on,60,0,3,,,,,,,,,2,,,62,0
26580,note_on,0,0,3,,,,,,,,,2,,,52,0
26580,note_on,0,0,3,,,,,,,,,2,,,59,0
26599,note_on,39,0,1,,,,,,,,,0,,,78,0
26600,note_on,1,0,1,,,,,,,,,0,,,74,49
26640,note_on,60,0,3,,,,,,,,,2,,,52,36
26640,note_on,0,0,3,,,,,,,,,2,,,61,36
26640,note_on,0,0,3,,,,,,,,,2,,,57,36
26640,note_on,40,0,1,,,,,,,,,0,,,74,0
26640,note_on,0,0,1,,,,,,,,,0,,,73,49
26679,note_on,39,0,1,,,,,,,,,0,,,76,49
26680,note_on,1,0,1,,,,,,,,,0,,,73,0
26700,note_on,0,0,3,,,,,,,,,2,,,57,0
26700,note_on,60,0,3,,,,,,,,,2,,,61,0
26700,note_on,0,0,3,,,,,,,,,2,,,52,0
26719,note_on,39,0,1,,,,,,,,,0,,,76,0
26720,note_on,1,0,1,,,,,,,,,0,,,73,49
26760,note_on,0,0,1,,,,,,,,,0,,,71,49
26760,note_on,40,0,1,,,,,,,,,0,,,73,0
26760,note_on,60,0,3,,,,,,,,,2,,,52,36
26760,note_on,0,0,3,,,,,,,,,2,,,56,36
26760,note_on,0,0,3,,,,,,,,,2,,,59,36
26799,note_on,39,0,1,,,,,,,,,0,,,74,49
26800,note_on,1,0,1,,,,,,,,,0,,,71,0
26820,note_on,0,0,3,,,,,,,,,2,,,52,0
26820,note_on,0,0,3,,,,,,,,,2,,,56,0
26820,note_on,60,0,3,,,,,,,,,2,,,59,0
26839,note_on,39,0,1,,,,,,,,,0,,,74,0
26840,note_on,1,0,1,,,,,,,,,0,,,71,49
26880,note_on,60,0,3,,,,,,,,,2,,,57,36
26880,note_on,0,0,3,,,,,,,,,2,,,61,36
26880,note_on,40,0,1,,,,,,,,,0,,,71,0
26880,note_on,0,0,1,,,,,,,,,0,,,69,49
26880,control_change,0,0,1,,,,,,,,,0,64,127,,
26919,note_on,39,0,1,,,,,,,,,0,,,64,49
26920,note_on,1,0,1,,,,,,,,,0,,,69,0
26940,note_on,0,0,3,,,,,,,,,2,,,57,0
26940,note_on,60,0,3,,,,,,,,,2,,,61,0
26959,note_on,39,0,1,,,,,,,,,0,,,64,0
26960,note_on,1,0,1,,,,,,,,,0,,,69,49
27000,note_on,40,0,1,,,,,,,,,0,,,69,0
27000,note_on,0,0,1,,,,,,,,,0,,,73,49
27039,note_on,39,0,1,,,,,,,,,0,,,76,49
27040,note_on,1,0,1,,,,,,,,,0,,,73,0
27079,note_on,39,0,1,,,,,,,,,0,,,76,0
27080,note_on,1,0,1,,,,,,,,,0,,,81,49
27120,note_on,0,0,1,,,,,,,,,0,,,76,49
27120,note_on,40,0,1,,,,,,,,,0,,,81,0
27159,control_change,759,0,2,,,,,,,,,1,64,127,,
27159,note_on,39,0,1,,,,,,,,,0,,,73,49
27159,note_on,0,0,2,,,,,,,,,1,,,61,36
27160,note_on,1,0,1,,,,,,,,,0,,,76,0
27199,note_on,40,0,2,,,,,,,,,1,,,61,0
27199,note_on,39,0,1,,,,,,,,,0,,,73,0
27200,note_on,1,0,1,,,,,,,,,0,,,76,49
27200,note_on,1,0,2,,,,,,,,,1,,,64,36
27240,note_on,40,0,1,,,,,,,,,0,,,76,0
27240,note_on,0,0,2,,,,,,,,,1,,,69,36
27240,note_on,40,0,2,,,,,,,,,1,,,64,0
27240,note_on,0,0,1,,,,,,,,,0,,,81,49
27279,note_on,39,0,1,,,,,,,,,0,,,85,49
27279,note_on,39,0,2,,,,,,,,,1,,,73,36
27280,note_on,1,0,2,,,,,,,,,1,,,69,0
27280,note_on,1,0,1,,,,,,,,,0,,,81,0
27319,note_on,39,0,1,,,,,,,,,0,,,85,0
27319,note_on,39,0,2,,,,,,,,,1,,,73,0
27320,control_change,1,0,1,,,,,,,,,0,64,0,,
27320,note_on,0,0,1,,,,,,,,,0,,,88,49
27320,note_on,0,0,2,,,,,,,,,1,,,76,36
27320,control_change,1,0,2,,,,,,,,,1,64,0,,
27360,note_on,40,0,1,,,,,,,,,0,,,88,0
27360,note_on,0,0,1,,,,,,,,,0,,,76,49
27360,note_on,40,0,2,,,,,,,,,1,,,76,0
27360,note_on,420,0,3,,,,,,,,,2,,,64,36
27399,note_on,39,0,1,,,,,,,,,0,,,78,49
27400,note_on,1,0,1,,,,,,,,,0,,,76,0
27420,note_on,60,0,3,,,,,,,,,2,,,64,0
27439,note_on,39,0,1,,,,,,,,,0,,,78,0
27440,note_on,1,0,1,,,,,,,,,0,,,76,49
27480,note_on,0,0,1,,,,,,,,,0,,,74,49
27480,note_on,40,0,1,,,,,,,,,0,,,76,0
27480,note_on,60,0,3,,,,,,,,,2,,,52,36
27480,note_on,0,0,3,,,,,,,,,2,,,59,36
27480,note_on,0,0,3,,,,,,,,,2,,,62,36
27519,note_on,39,0,1,,,,,,,,,0,,,76,49
27520,note_on,1,0,1,,,,,,,,,0,,,74,0
27540,note_on,0,0,3,,,,,,,,,2,,,59,0
27540,note_on,60,0,3,,,,,,,,,2,,,62,0
27540,note_on,0,0,3,,,,,,,,,2,,,52,0
27559,note_on,39,0,1,,,,,,,,,0,,,76,0
27560,note_on,1,0,1,,,,,,,,,0,,,74,49
27600,note_on,0,0,1,,,,,,,,,0,,,73,49
27600,note_on,40,0,1,,,,,,,,,0,,,74,0
27600,note_on,60,0,3,,,,,,,,,2,,,52,36
27600,note_on,0,0,3,,,,,,,,,2,,,57,36
27600,note_on,0,0,3,,,,,,,,,2,,,61,36
27639,note_on,39,0,1,,,,,,,,,0,,,74,49
27640,note_on,1,0,1,,,,,,,,,0,,,73,0
27660,note_on,60,0,3,,,,,,,,,2,,,61,0
27660,note_on,0,0,3,,,,,,,,,2,,,57,0
27660,note_on,0,0,3,,,,,,,,,2,,,52,0
27679,note_on,39,0,1,,,,,,,,,0,,,74,0
27680,note_on,1,0,1,,,,,,,,,0,,,73,49
27720,note_on,0,0,3,,,,,,,,,2,,,56,36
27720,note_on,0,0,3,,,,,,,,,2,,,59,36
27720,note_on,60,0,3,,,,,,,,,2,,,52,36
27720,note_on,40,0,1,,,,,,,,,0,,,73,0
27720,note_on,0,0,1,,,,,,,,,0,,,71,49
27759,note_on,39,0,1,,,,,,,,,0,,,73,49
27760,note_on,1,0,1,,,,,,,,,0,,,71,0
27780,note_on,0,0,3,,,,,,,,,2,,,52,0
27780,note_on,60,0,3,,,,,,,,,2,,,59,0
27780,note_on,0,0,3,,,,,,,,,2,,,56,0
27799,note_on,39,0,1,,,,,,,,,0,,,73,0
27800,note_on,1,0,1,,,,,,,,,0,,,71,49
27840,note_on,40,0,1,,,,,,,,,0,,,71,0
27840,control_change,0,0,1,,,,,,,,,0,64,127,,
27840,note_on,0,0,1,,,,,,,,,0,,,61,36
27840,note_on,60,0,3,,,,,,,,,2,,,57,49
27879,note_on,39,0,1,,,,,,,,,0,,,64,36
27880,note_on,1,0,1,,,,,,,,,0,,,61,0
27919,note_on,39,0,1,,,,,,,,,0,,,64,0
27920,control_change,1,0,1,,,,,,,,,0,64,0,,
27920,note_on,0,0,1,,,,,,,,,0,,,61,36
27960,note_on,0,0,1,,,,,,,,,0,,,64,36
27960,note_on,40,0,1,,,,,,,,,0,,,61,0
27960,note_on,0,0,3,,,,,,,,,2,,,49,49
27960,note_on,120,0,3,,,,,,,,,2,,,57,0
27999,note_on,39,0,1,,,,,,,,,0,,,69,36
28000,note_on,1,0,1,,,,,,,,,0,,,64,0
28020,note_on,60,0,3,,,,,,,,,2,,,49,0
28039,note_on,39,0,1,,,,,,,,,0,,,69,0
28040,note_on,1,0,1,,,,,,,,,0,,,64,36
28080,control_change,0,0,1,,,,,,,,,0,64,127,,
28080,note_on,40,0,1,,,,,,,,,0,,,64,0
28080,note_on,60,0,3,,,,,,,,,2,,,59,49
28080,note_on,0,0,1,,,,,,,,,0,,,64,36
28119,note_on,39,0,1,,,,,,,,,0,,,68,36
28120,note_on,1,0,1,,,,,,,,,0,,,64,0
28159,note_on,39,0,1,,,,,,,,,0,,,68,0
28160,note_on,0,0,1,,,,,,,,,0,,,64,36
28160,control_change,1,0,1,,,,,,,,,0,64,0,,
28200,note_on,120,0,3,,,,,,,,,2,,,59,0
28200,note_on,0,0,3,,,,,,,,,2,,,52,49
28200,note_on,0,0,1,,,,,,,,,0,,,68,36
28200,note_on,40,0,1,,,,,,,,,0,,,64,0
28239,note_on,39,0,1,,,,,,,,,0,,,71,36
28240,note_on,1,0,1,,,,,,,,,0,,,68,0
28260,note_on,60,0,3,,,,,,,,,2,,,52,0
28279,note_on,39,0,1,,,,,,,,,0,,,71,0
28280,note_on,1,0,1,,,,,,,,,0,,,68,36
28320,control_change,0,0,1,,,,,,,,,0,64,127,,
28320,note_on,0,0,1,,,,,,,,,0,,,64,36
28320,note_on,60,0,3,,,,,,,,,2,,,61,49
28320,note_on,40,0,1,,,,,,,,,0,,,68,0
28359,note_on,39,0,1,,,,,,,,,0,,,69,36
28360,note_on,1,0,1,,,,,,,,,0,,,64,0
28399,note_on,39,0,1,,,,,,,,,0,,,69,0
28400,note_on,0,0,1,,,,,,,,,0,,,64,36
28400,control_change,1,0,1,,,,,,,,,0,64,0,,
28440,note_on,0,0,1,,,,,,,,,0,,,69,36
28440,note_on,120,0,3,,,,,,,,,2,,,61,0
28440,note_on,40,0,1,,,,,,,,,0,,,64,0
28440,note_on,0,0,3,,,,,,,,,2,,,57,49
28479,note_on,39,0,1,,,,,,,,,0,,,73,36
28480,note_on,1,0,1,,,,,,,,,0,,,69,0
28500,note_on,60,0,3,,,,,,,,,2,,,57,0
28519,note_on,39,0,1,,,,,,,,,0,,,73,0
28520,note_on,1,0,1,,,,,,,,,0,,,69,36
28560,note_on,0,0,1,,,,,,,,,0,,,69,36
28560,note_on,40,0,1,,,,,,,,,0,,,69,0
28560,note_on,0,0,3,,,,,,,,,2,,,66,49
28560,control_change,60,0,3,,,,,,,,,2,64,127,,
28560,control_change,0,0,1,,,,,,,,,0,64,127,,
28599,note_on,39,0,1,,,,,,,,,0,,,72,36
28600,note_on,1,0,1,,,,,,,,,0,,,69,0
28639,note_on,39,0,1,,,,,,,,,0,,,72,0
28640,note_on,1,0,1,,,,,,,,,0,,,69,36
28650,note_on,0,0,3,,,,,,,,,2,,,63,49
28650,note_on,90,0,3,,,,,,,,,2,,,66,0
28680,note_on,0,0,3,,,,,,,,,2,,,66,49
28680,note_on,30,0,3,,,,,,,,,2,,,63,0
28680,note_on,0,0,1,,,,,,,,,0,,,72,36
28680,note_on,40,0,1,,,,,,,,,0,,,69,0
28719,note_on,39,0,1,,,,,,,,,0,,,75,36
28720,note_on,1,0,1,,,,,,,,,0,,,72,0
28759,note_on,39,0,1,,,,,,,,,0,,,75,0
28760,control_change,1,0,1,,,,,,,,,0,64,0,,
28760,note_on,0,0,1,,,,,,,,,0,,,72,36
28770,note_on,90,0,3,,,,,,,,,2,,,66,0
28770,note_on,0,0,3,,,,,,,,,2,,,63,49
28770,control_change,0,0,3,,,,,,,,,2,64,0,,
28800,note_on,30,0,3,,,,,,,,,2,,,63,0
28800,note_on,0,0,3,,,,,,,,,2,,,64,49
28800,control_change,0,0,1,,,,,,,,,0,64,127,,
28800,note_on,40,0,1,,,,,,,,,0,,,72,0
28800,note_on,0,0,1,,,,,,,,,0,,,69,36
28839,note_on,39,0,1,,,,,,,,,0,,,73,36
28840,note_on,1,0,1,,,,,,,,,0,,,69,0
28879,note_on,39,0,1,,,,,,,,,0,,,73,0
28880,control_change,1,0,1,,,,,,,,,0,64,0,,
28880,note_on,0,0,1,,,,,,,,,0,,,69,36
28920,note_on,0,0,1,,,,,,,,,0,,,73,36
28920,note_on,40,0,1,,,,,,,,,0,,,69,0
28920,note_on,120,0,3,,,,,,,,,2,,,64,0
28920,note_on,0,0,3,,,,,,,,,2,,,52,49
28959,note_on,39,0,1,,,,,,,,,0,,,76,36
28960,note_on,1,0,1,,,,,,,,,0,,,73,0
28980,note_on,60,0,3,,,,,,,,,2,,,52,0
28999,note_on,39,0,1,,,,,,,,,0,,,76,0
29000,note_on,1,0,1,,,,,,,,,0,,,73,36
29040,note_on,0,0,1,,,,,,,,,0,,,64,36
29040,control_change,0,0,1,,,,,,,,,0,64,127,,
29040,note_on,40,0,1,,,,,,,,,0,,,73,0
29040,note_on,60,0,3,,,,,,,,,2,,,62,49
29079,note_on,39,0,1,,,,,,,,,0,,,71,36
29080,note_on,1,0,1,,,,,,,,,0,,,64,0
29119,note_on,39,0,1,,,,,,,,,0,,,71,0
29120,note_on,0,0,1,,,,,,,,,0,,,64,36
29120,control_change,1,0,1,,,,,,,,,0,64,0,,
29160,note_on,0,0,3,,,,,,,,,2,,,59,49
29160,note_on,120,0,3,,,,,,,,,2,,,62,0
29160,note_on,40,0,1,,,,,,,,,0,,,64,0
29160,note_on,0,0,1,,,,,,,,,0,,,71,36
29199,note_on,39,0,1,,,,,,,,,0,,,74,36
29200,note_on,1,0,1,,,,,,,,,0,,,71,0
29220,note_on,60,0,3,,,,,,,,,2,,,59,0
29239,note_on,39,0,1,,,,,,,,,0,,,74,0
29240,note_on,1,0,1,,,,,,,,,0,,,71,36
29280,note_on,40,0,1,,,,,,,,,0,,,71,0
29280,control_change,0,0,1,,,,,,,,,0,64,127,,
29280,note_on,0,0,1,,,,,,,,,0,,,64,36
29280,note_on,60,0,3,,,,,,,,,2,,,61,49
29319,note_on,39,0,1,,,,,,,,,0,,,69,36
29320,note_on,1,0,1,,,,,,,,,0,,,64,0
29359,note_on,39,0,1,,,,,,,,,0,,,69,0
29360,control_change,1,0,1,,,,,,,,,0,64,0,,
29360,note_on,0,0,1,,,,,,,,,0,,,64,36
29400,note_on,120,0,3,,,,,,,,,2,,,61,0
29400,note_on,40,0,1,,,,,,,,,0,,,64,0
29400,note_on,0,0,3,,,,,,,,,2,,,52,49
29400,note_on,0,0,1,,,,,,,,,0,,,69,36
29439,note_on,39,0,1,,,,,,,,,0,,,73,36
29440,note_on,1,0,1,,,,,,,,,0,,,69,0
29460,note_on,60,0,3,,,,,,,,,2,,,52,0
29479,note_on,39,0,1,,,,,,,,,0,,,73,0
29480,note_on,1,0,1,,,,,,,,,0,,,69,36
29520,note_on,40,0,1,,,,,,,,,0,,,69,0
29520,control_change,0,0,1,,,,,,,,,0,64,127,,
29520,note_on,0,0,1,,,,,,,,,0,,,64,36
29520,note_on,0,0,3,,,,,,,,,2,,,59,49
29520,control_change,60,0,3,,,,,,,,,2,64,127,,
29559,note_on,39,0,1,,,,,,,,,0,,,68,36
29560,note_on,1,0,1,,,,,,,,,0,,,64,0
29599,note_on,39,0,1,,,,,,,,,0,,,68,0
29600,note_on,1,0,1,,,,,,,,,0,,,64,36
29610,note_on,0,0,3,,,,,,,,,2,,,56,49
29610,note_on,90,0,3,,,,,,,,,2,,,59,0
29640,note_on,30,0,3,,,,,,,,,2,,,56,0
29640,note_on,0,0,3,,,,,,,,,2,,,59,49
29640,note_on,0,0,1,,,,,,,,,0,,,68,36
29640,note_on,40,0,1,,,,,,,,,0,,,64,0
29679,note_on,39,0,1,,,,,,,,,0,,,71,36
29680,note_on,1,0,1,,,,,,,,,0,,,68,0
29719,note_on,39,0,1,,,,,,,,,0,,,71,0
29720,control_change,1,0,1,,,,,,,,,0,64,0,,
29720,note_on,0,0,1,,,,,,,,,0,,,68,36
29730,control_change,0,0,3,,,,,,,,,2,64,0,,
29730,note_on,90,0,3,,,,,,,,,2,,,59,0
29730,note_on,0,0,3,,,,,,,,,2,,,52,49
29760,note_on,30,0,3,,,,,,,,,2,,,52,0
29760,note_on,0,0,1,,,,,,,,,0,,,73,36
29760,control_change,0,0,1,,,,,,,,,0,64,127,,
29760,note_on,40,0,1,,,,,,,,,0,,,68,0
29760,note_on,0,0,2,,,,,,,,,1,,,69,36
29760,control_change,2400,0,2,,,,,,,,,1,64,127,,
29799,note_on,39,0,2,,,,,,,,,1,,,64,36
29799,note_on,39,0,1,,,,,,,,,0,,,76,36
29800,note_on,1,0,2,,,,,,,,,1,,,69,0
29800,note_on,1,0,1,,,,,,,,,0,,,73,0
29839,note_on,39,0,2,,,,,,,,,1,,,64,0
29839,note_on,39,0,1,,,,,,,,,0,,,76,0
29840,note_on,1,0,1,,,,,,,,,0,,,73,36
29840,note_on,0,0,2,,,,,,,,,1,,,69,36
29840,control_change,1,0,2,,,,,,,,,1,64,0,,
29880,note_on,40,0,2,,,,,,,,,1,,,69,0
29880,note_on,0,0,2,,,,,,,,,1,,,61,36
29880,note_on,40,0,1,,,,,,,,,0,,,73,0
29880,note_on,0,0,1,,,,,,,,,0,,,76,36
29919,note_on,39,0,1,,,,,,,,,0,,,81,36
29920,note_on,1,0,1,,,,,,,,,0,,,76,0
29940,note_on,60,0,2,,,,,,,,,1,,,61,0
29959,note_on,39,0,1,,,,,,,,,0,,,81,0
29960,note_on,1,0,1,,,,,,,,,0,,,76,36
30000,control_change,60,0,2,,,,,,,,,1,64,127,,
30000,note_on,0,0,2,,,,,,,,,1,,,71,36
30000,note_on,40,0,1,,,,,,,,,0,,,76,0
30000,note_on,0,0,1,,,,,,,,,0,,,76,36
30000,control_change,0,0,1,,,,,,,,,0,64,127,,
30039,note_on,39,0,2,,,,,,,,,1,,,68,36
30039,note_on,39,0,1,,,,,,,,,0,,,80,36
30040,note_on,1,0,2,,,,,,,,,1,,,71,0
30040,note_on,1,0,1,,,,,,,,,0,,,76,0
30079,note_on,39,0,2,,,,,,,,,1,,,68,0
30079,note_on,39,0,1,,,,,,,,,0,,,80,0
30080,control_change,1,0,2,,,,,,,,,1,64,0,,
30080,note_on,0,0,1,,,,,,,,,0,,,76,36
30080,control_change,1,0,1,,,,,,,,,0,64,0,,
30080,note_on,0,0,2,,,,,,,,,1,,,71,36
30120,note_on,0,0,1,,,,,,,,,0,,,80,36
30120,note_on,40,0,2,,,,,,,,,1,,,71,0
30120,note_on,0,0,2,,,,,,,,,1,,,64,36
30120,note_on,40,0,1,,,,,,,,,0,,,76,0
30159,note_on,39,0,1,,,,,,,,,0,,,83,36
30160,note_on,1,0,1,,,,,,,,,0,,,80,0
30180,note_on,60,0,2,,,,,,,,,1,,,64,0
30199,note_on,39,0,1,,,,,,,,,0,,,83,0
30200,note_on,1,0,1,,,,,,,,,0,,,80,36
30240,note_on,40,0,1,,,,,,,,,0,,,80,0
30240,control_change,0,0,1,,,,,,,,,0,64,127,,
30240,note_on,0,0,1,,,,,,,,,0,,,76,36
30240,note_on,0,0,2,,,,,,,,,1,,,73,36
30240,control_change,60,0,2,,,,,,,,,1,64,127,,
30279,note_on,39,0,1,,,,,,,,,0,,,81,36
30279,note_on,39,0,2,,,,,,,,,1,,,71,36
30280,note_on,1,0,2,,,,,,,,,1,,,73,0
30280,note_on,1,0,1,,,,,,,,,0,,,76,0
30319,note_on,39,0,1,,,,,,,,,0,,,81,0
30319,note_on,39,0,2,,,,,,,,,1,,,71,0
30320,control_change,1,0,1,,,,,,,,,0,64,0,,
30320,note_on,0,0,2,,,,,,,,,1,,,73,36
30320,control_change,1,0,2,,,,,,,,,1,64,0,,
30320,note_on,0,0,1,,,,,,,,,0,,,76,36
30360,note_on,0,0,1,,,,,,,,,0,,,81,36
30360,note_on,40,0,2,,,,,,,,,1,,,73,0
30360,note_on,0,0,2,,,,,,,,,1,,,69,36
30360,note_on,40,0,1,,,,,,,,,0,,,76,0
30399,note_on,39,0,1,,,,,,,,,0,,,85,36
30400,note_on,1,0,1,,,,,,,,,0,,,81,0
30420,note_on,60,0,2,,,,,,,,,1,,,69,0
30439,note_on,39,0,1,,,,,,,,,0,,,85,0
30440,note_on,1,0,1,,,,,,,,,0,,,81,36
30480,note_on,40,0,1,,,,,,,,,0,,,81,0
30480,control_change,0,0,1,,,,,,,,,0,64,127,,
30480,note_on,0,0,2,,,,,,,,,1,,,78,36
30480,control_change,60,0,2,,,,,,,,,1,64,127,,
30480,note_on,0,0,1,,,,,,,,,0,,,81,36
30519,note_on,39,0,1,,,,,,,,,0,,,84,36
30520,note_on,1,0,1,,,,,,,,,0,,,81,0
30559,note_on,39,0,1,,,,,,,,,0,,,84,0
30560,note_on,1,0,1,,,,,,,,,0,,,81,36
30570,note_on,0,0,2,,,,,,,,,1,,,75,36
30570,note_on,90,0,2,,,,,,,,,1,,,78,0
30600,note_on,0,0,2,,,,,,,,,1,,,78,36
30600,note_on,30,0,2,,,,,,,,,1,,,75,0
30600,note_on,40,0,1,,,,,,,,,0,,,81,0
30600,note_on,0,0,1,,,,,,,,,0,,,84,36
30639,note_on,39,0,1,,,,,,,,,0,,,87,36
30640,note_on,1,0,1,,,,,,,,,0,,,84,0
30679,note_on,39,0,1,,,,,,,,,0,,,87,0
30680,control_change,1,0,1,,,,,,,,,0,64,0,,
30680,note_on,0,0,1,,,,,,,,,0,,,84,36
30690,control_change,0,0,2,,,,,,,,,1,64,0,,
30690,note_on,0,0,2,,,,,,,,,1,,,75,36
30690,note_on,90,0,2,,,,,,,,,1,,,78,0
30720,note_on,40,0,1,,,,,,,,,0,,,84,0
30720,control_change,0,0,1,,,,,,,,,0,64,127,,
30720,note_on,0,0,1,,,,,,,,,0,,,81,49
30720,control_change,0,0,2,,,,,,,,,1,64,127,,
30720,note_on,30,0,2,,,,,,,,,1,,,75,0
30720,note_on,0,0,2,,,,,,,,,1,,,78,62
30759,note_on,39,0,1,,,,,,,,,0,,,84,49
30760,note_on,1,0,1,,,,,,,,,0,,,81,0
30799,note_on,39,0,1,,,,,,,,,0,,,84,0
30800,note_on,1,0,1,,,,,,,,,0,,,81,49
30840,note_on,40,0,1,,,,,,,,,0,,,81,0
30840,note_on,0,0,1,,,,,,,,,0,,,84,49
30840,note_on,120,0,2,,,,,,,,,1,,,78,0
30840,note_on,0,0,2,,,,,,,,,1,,,75,62
30879,note_on,39,0,1,,,,,,,,,0,,,87,49
30880,note_on,1,0,1,,,,,,,,,0,,,84,0
30900,note_on,60,0,2,,,,,,,,,1,,,75,0
30919,note_on,39,0,1,,,,,,,,,0,,,87,0
30920,note_on,1,0,1,,,,,,,,,0,,,84,49
30960,note_on,40,0,1,,,,,,,,,0,,,84,0
30960,note_on,0,0,1,,,,,,,,,0,,,81,49
30960,note_on,60,0,2,,,,,,,,,1,,,78,62
30999,note_on,39,0,1,,,,,,,,,0,,,84,49
31000,note_on,1,0,1,,,,,,,,,0,,,81,0
31039,note_on,39,0,1,,,,,,,,,0,,,84,0
31040,note_on,1,0,1,,,,,,,,,0,,,81,49
31080,note_on,0,0,1,,,,,,,,,0,,,84,49
31080,note_on,40,0,1,,,,,,,,,0,,,81,0
31080,note_on,0,0,2,,,,,,,,,1,,,75,62
31080,note_on,120,0,2,,,,,,,,,1,,,78,0
31119,note_on,39,0,1,,,,,,,,,0,,,87,49
31120,note_on,1,0,1,,,,,,,,,0,,,84,0
31140,note_on,60,0,2,,,,,,,,,1,,,75,0
31159,note_on,39,0,1,,,,,,,,,0,,,87,0
31160,note_on,1,0,1,,,,,,,,,0,,,84,49
31200,note_on,0,0,1,,,,,,,,,0,,,81,49
31200,note_on,40,0,1,,,,,,,,,0,,,84,0
31200,note_on,60,0,2,,,,,,,,,1,,,78,62
31239,note_on,39,0,1,,,,,,,,,0,,,84,49
31240,note_on,1,0,1,,,,,,,,,0,,,81,0
31279,note_on,39,0,1,,,,,,,,,0,,,84,0
31280,note_on,0,0,1,,,,,,,,,0,,,81,49
31280,control_change,1,0,1,,,,,,,,,0,64,0,,
31320,note_on,0,0,1,,,,,,,,,0,,,84,49
31320,note_on,40,0,1,,,,,,,,,0,,,81,0
31320,note_on,120,0,2,,,,,,,,,1,,,78,0
31320,control_change,0,0,2,,,,,,,,,1,64,0,,
31320,note_on,0,0,2,,,,,,,,,1,,,75,62
31359,note_on,39,0,1,,,,,,,,,0,,,87,49
31360,note_on,1,0,1,,,,,,,,,0,,,84,0
31380,note_on,60,0,2,,,,,,,,,1,,,75,0
31399,note_on,39,0,1,,,,,,,,,0,,,87,0
31400,note_on,1,0,1,,,,,,,,,0,,,84,49
31440,note_on,0,0,1,,,,,,,,,0,,,81,49
31440,note_on,40,0,1,,,,,,,,,0,,,84,0
31440,control_change,0,0,1,,,,,,,,,0,64,127,,
31440,note_on,0,0,2,,,,,,,,,1,,,77,62
31440,control_change,60,0,2,,,,,,,,,1,64,127,,
31479,note_on,39,0,1,,,,,,,,,0,,,84,49
31480,note_on,1,0,1,,,,,,,,,0,,,81,0
31519,note_on,39,0,1,,,,,,,,,0,,,84,0
31520,note_on,1,0,1,,,,,,,,,0,,,81,49
31530,note_on,90,0,2,,,,,,,,,1,,,77,0
31530,note_on,0,0,2,,,,,,,,,1,,,75,62
31560,note_on,30,0,2,,,,,,,,,1,,,75,0
31560,note_on,0,0,2,,,,,,,,,1,,,77,62
31560,note_on,0,0,1,,,,,,,,,0,,,84,49
31560,note_on,40,0,1,,,,,,,,,0,,,81,0
31599,note_on,39,0,1,,,,,,,,,0,,,89,49
31600,note_on,1,0,1,,,,,,,,,0,,,84,0
31639,note_on,39,0,1,,,,,,,,,0,,,89,0
31640,note_on,1,0,1,,,,,,,,,0,,,84,49
31650,note_on,0,0,2,,,,,,,,,1,,,75,62
31650,note_on,90,0,2,,,,,,,,,1,,,77,0
31680,note_on,0,0,1,,,,,,,,,0,,,81,49
31680,note_on,40,0,1,,,,,,,,,0,,,84,0
31680,note_on,0,0,2,,,,,,,,,1,,,77,62
31680,note_on,30,0,2,,,,,,,,,1,,,75,0
31719,note_on,39,0,1,,,,,,,,,0,,,84,49
31720,note_on,1,0,1,,,,,,,,,0,,,81,0
31759,note_on,39,0,1,,,,,,,,,0,,,84,0
31760,note_on,1,0,1,,,,,,,,,0,,,81,49
31800,note_on,120,0,2,,,,,,,,,1,,,77,0
31800,note_on,0,0,2,,,,,,,,,1,,,75,62
31800,note_on,40,0,1,,,,,,,,,0,,,81,0
31800,note_on,0,0,1,,,,,,,,,0,,,84,49
31839,note_on,39,0,1,,,,,,,,,0,,,89,49
31840,note_on,1,0,1,,,,,,,,,0,,,84,0
31860,note_on,60,0,2,,,,,,,,,1,,,75,0
31879,note_on,39,0,1,,,,,,,,,0,,,89,0
31880,note_on,1,0,1,,,,,,,,,0,,,84,49
31920,note_on,0,0,1,,,,,,,,,0,,,81,49
31920,note_on,40,0,1,,,,,,,,,0,,,84,0
31920,note_on,60,0,2,,,,,,,,,1,,,77,62
31959,note_on,39,0,1,,,,,,,,,0,,,84,49
31960,note_on,1,0,1,,,,,,,,,0,,,81,0
31999,note_on,39,0,1,,,,,,,,,0,,,84,0
32000,note_on,1,0,1,,,,,,,,,0,,,81,49
32040,note_on,0,0,1,,,,,,,,,0,,,84,49
32040,control_change,0,0,2,,,,,,,,,1,64,0,,
32040,note_on,40,0,1,,,,,,,,,0,,,81,0
32040,note_on,0,0,2,,,,,,,,,1,,,75,62
32040,note_on,120,0,2,,,,,,,,,1,,,77,0
32079,note_on,39,0,1,,,,,,,,,0,,,89,49
32080,note_on,1,0,1,,,,,,,,,0,,,84,0
32100,note_on,60,0,2,,,,,,,,,1,,,75,0
32119,note_on,39,0,1,,,,,,,,,0,,,89,0
32120,control_change,1,0,1,,,,,,,,,0,64,0,,
32120,note_on,0,0,1,,,,,,,,,0,,,84,49
32160,note_on,0,0,1,,,,,,,,,0,,,82,49
32160,control_change,0,0,1,,,,,,,,,0,64,127,,
32160,note_on,60,0,2,,,,,,,,,1,,,77,62
32160,note_on,40,0,1,,,,,,,,,0,,,84,0
32199,note_on,39,0,1,,,,,,,,,0,,,86,49
32200,note_on,1,0,1,,,,,,,,,0,,,82,0
32239,note_on,39,0,1,,,,,,,,,0,,,86,0
32240,note_on,1,0,1,,,,,,,,,0,,,82,49
32280,note_on,0,0,2,,,,,,,,,1,,,74,62
32280,note_on,120,0,2,,,,,,,,,1,,,77,0
32280,note_on,40,0,1,,,,,,,,,0,,,82,0
32280,note_on,0,0,1,,,,,,,,,0,,,86,49
32319,note_on,39,0,1,,,,,,,,,0,,,89,49
32320,note_on,1,0,1,,,,,,,,,0,,,86,0
32340,note_on,60,0,2,,,,,,,,,1,,,74,0
32359,note_on,39,0,1,,,,,,,,,0,,,89,0
32360,control_change,1,0,1,,,,,,,,,0,64,0,,
32360,note_on,0,0,1,,,,,,,,,0,,,86,49
32400,note_on,0,0,1,,,,,,,,,0,,,80,49
32400,note_on,40,0,1,,,,,,,,,0,,,86,0
32400,control_change,0,0,1,,,,,,,,,0,64,127,,
32400,note_on,60,0,2,,,,,,,,,1,,,76,62
32439,note_on,39,0,1,,,,,,,,,0,,,83,49
32440,note_on,1,0,1,,,,,,,,,0,,,80,0
32479,note_on,39,0,1,,,,,,,,,0,,,83,0
32480,note_on,1,0,1,,,,,,,,,0,,,80,49
32520,note_on,0,0,1,,,,,,,,,0,,,83,49
32520,note_on,40,0,1,,,,,,,,,0,,,80,0
32520,note_on,0,0,2,,,,,,,,,1,,,74,62
32520,note_on,120,0,2,,,,,,,,,1,,,76,0
32559,note_on,39,0,1,,,,,,,,,0,,,88,49
32560,note_on,1,0,1,,,,,,,,,0,,,83,0
32580,note_on,60,0,2,,,,,,,,,1,,,74,0
32599,note_on,39,0,1,,,,,,,,,0,,,88,0
32600,note_on,0,0,1,,,,,,,,,0,,,83,49
32600,control_change,1,0,1,,,,,,,,,0,64,0,,
32640,note_on,0,0,1,,,,,,,,,0,,,81,49
32640,note_on,40,0,1,,,,,,,,,0,,,83,0
32640,note_on,60,0,2,,,,,,,,,1,,,73,62
32640,control_change,0,0,1,,,,,,,,,0,64,127,,
32679,note_on,39,0,1,,,,,,,,,0,,,85,49
32680,note_on,1,0,1,,,,,,,,,0,,,81,0
32719,note_on,39,0,1,,,,,,,,,0,,,85,0
32720,note_on,1,0,1,,,,,,,,,0,,,81,49
32760,note_on,120,0,2,,,,,,,,,1,,,73,0
32760,note_on,0,0,2,,,,,,,,,1,,,76,62
32760,note_on,0,0,1,,,,,,,,,0,,,85,49
32760,note_on,40,0,1,,,,,,,,,0,,,81,0
32799,note_on,39,0,1,,,,,,,,,0,,,88,49
32800,note_on,1,0,1,,,,,,,,,0,,,85,0
32820,note_on,60,0,2,,,,,,,,,1,,,76,0
32839,note_on,39,0,1,,,,,,,,,0,,,88,0
32840,control_change,1,0,1,,,,,,,,,0,64,0,,
32840,note_on,0,0,1,,,,,,,,,0,,,85,49
32880,note_on,60,0,2,,,,,,,,,1,,,66,62
32880,note_on,0,0,1,,,,,,,,,0,,,74,49
32880,control_change,0,0,1,,,,,,,,,0,64,127,,
32880,note_on,40,0,1,,,,,,,,,0,,,85,0
32919,note_on,39,0,1,,,,,,,,,0,,,81,49
32920,note_on,1,0,1,,,,,,,,,0,,,74,0
32959,note_on,39,0,1,,,,,,,,,0,,,81,0
32960,note_on,1,0,1,,,,,,,,,0,,,74,49
33000,note_on,120,0,2,,,,,,,,,1,,,66,0
33000,note_on,0,0,2,,,,,,,,,1,,,69,62
33000,note_on,0,0,2,,,,,,,,,1,,,74,62
33000,note_on,40,0,1,,,,,,,,,0,,,74,0
33000,note_on,0,0,1,,,,,,,,,0,,,81,49
33039,note_on,39,0,1,,,,,,,,,0,,,86,49
33040,note_on,1,0,1,,,,,,,,,0,,,81,0
33060,note_on,0,0,2,,,,,,,,,1,,,69,0
33060,note_on,60,0,2,,,,,,,,,1,,,74,0
33079,note_on,39,0,1,,,,,,,,,0,,,86,0
33080,note_on,0,0,1,,,,,,,,,0,,,81,49
33080,control_change,1,0,1,,,,,,,,,0,64,0,,
33120,note_on,40,0,1,,,,,,,,,0,,,81,0
33120,control_change,0,0,1,,,,,,,,,0,64,127,,
33120,note_on,0,0,1,,,,,,,,,0,,,76,49
33120,note_on,60,0,2,,,,,,,,,1,,,64,62
33159,note_on,39,0,1,,,,,,,,,0,,,81,49
33160,note_on,1,0,1,,,,,,,,,0,,,76,0
33199,note_on,39,0,1,,,,,,,,,0,,,81,0
33200,note_on,1,0,1,,,,,,,,,0,,,76,49
33240,note_on,40,0,1,,,,,,,,,0,,,76,0
33240,note_on,0,0,1,,,,,,,,,0,,,81,49
33240,note_on,120,0,2,,,,,,,,,1,,,64,0
33240,note_on,0,0,2,,,,,,,,,1,,,73,62
33240,note_on,0,0,2,,,,,,,,,1,,,69,62
33279,note_on,39,0,1,,,,,,,,,0,,,85,49
33280,note_on,1,0,1,,,,,,,,,0,,,81,0
33300,note_on,0,0,2,,,,,,,,,1,,,69,0
33300,note_on,60,0,2,,,,,,,,,1,,,73,0
33319,note_on,39,0,1,,,,,,,,,0,,,85,0
33320,note_on,0,0,1,,,,,,,,,0,,,81,49
33320,control_change,1,0,1,,,,,,,,,0,64,0,,
33360,note_on,60,0,2,,,,,,,,,1,,,64,62
33360,note_on,40,0,1,,,,,,,,,0,,,81,0
33360,control_change,0,0,1,,,,,,,,,0,64,127,,
33360,note_on,0,0,1,,,,,,,,,0,,,76,49
33399,note_on,39,0,1,,,,,,,,,0,,,83,49
33400,note_on,1,0,1,,,,,,,,,0,,,76,0
33439,note_on,39,0,1,,,,,,,,,0,,,83,0
33440,note_on,1,0,1,,,,,,,,,0,,,80,49
33480,note_on,0,0,2,,,,,,,,,1,,,68,62
33480,note_on,40,0,1,,,,,,,,,0,,,80,0
33480,note_on,120,0,2,,,,,,,,,1,,,64,0
33480,note_on,0,0,2,,,,,,,,,1,,,71,62
33480,note_on,0,0,1,,,,,,,,,0,,,76,49
33519,note_on,39,0,1,,,,,,,,,0,,,74,49
33520,note_on,1,0,1,,,,,,,,,0,,,76,0
33540,note_on,0,0,2,,,,,,,,,1,,,68,0
33540,note_on,60,0,2,,,,,,,,,1,,,71,0
33559,note_on,39,0,1,,,,,,,,,0,,,74,0
33560,note_on,0,0,1,,,,,,,,,0,,,71,49
33560,control_change,1,0,1,,,,,,,,,0,64,0,,
33600,note_on,0,0,3,,,,,,,,,2,,,55,88
33600,note_on,0,0,1,,,,,,,,,0,,,67,101
33600,control_change,0,0,1,,,,,,,,,0,64,127,,
33600,note_on,40,0,1,,,,,,,,,0,,,71,0
33600,control_change,3840,0,3,,,,,,,,,2,64,127,,
33639,note_on,39,0,3,,,,,,,,,2,,,57,88
33639,note_on,39,0,1,,,,,,,,,0,,,69,101
33640,note_on,1,0,3,,,,,,,,,2,,,55,0
33640,note_on,1,0,1,,,,,,,,,0,,,67,0
33679,note_on,39,0,1,,,,,,,,,0,,,69,0
33679,note_on,39,0,3,,,,,,,,,2,,,57,0
33680,note_on,1,0,3,,,,,,,,,2,,,55,88
33680,note_on,1,0,1,,,,,,,,,0,,,67,101
33720,note_on,40,0,3,,,,,,,,,2,,,55,0
33720,note_on,0,0,3,,,,,,,,,2,,,52,88
33720,note_on,40,0,1,,,,,,,,,0,,,67,0
33720,note_on,0,0,1,,,,,,,,,0,,,64,101
33759,note_on,39,0,1,,,,,,,,,0,,,61,101
33759,note_on,39,0,3,,,,,,,,,2,,,49,88
33760,note_on,1,0,3,,,,,,,,,2,,,52,0
33760,note_on,1,0,1,,,,,,,,,0,,,64,0
33799,note_on,39,0,3,,,,,,,,,2,,,49,0
33799,note_on,39,0,1,,,,,,,,,0,,,61,0
33800,note_on,1,0,1,,,,,,,,,0,,,57,101
33800,note_on,1,0,3,,,,,,,,,2,,,45,88
33840,note_on,40,0,1,,,,,,,,,0,,,57,0
33840,note_on,0,0,3,,,,,,,,,2,,,43,88
33840,note_on,40,0,3,,,,,,,,,2,,,45,0
33840,note_on,0,0,1,,,,,,,,,0,,,55,127
33879,note_on,39,0,3,,,,,,,,,2,,,45,88
33879,note_on,39,0,1,,,,,,,,,0,,,57,101
33880,note_on,1,0,3,,,,,,,,,2,,,43,0
33880,note_on,1,0,1,,,,,,,,,0,,,55,0
33919,note_on,39,0,3,,,,,,,,,2,,,45,0
33919,note_on,39,0,1,,,,,,,,,0,,,57,0
33920,note_on,1,0,1,,,,,,,,,0,,,55,101
33920,note_on,1,0,3,,,,,,,,,2,,,43,88
33960,note_on,40,0,1,,,,,,,,,0,,,55,0
33960,note_on,40,0,3,,,,,,,,,2,,,43,0
33960,note_on,0,0,1,,,,,,,,,0,,,57,101
33960,note_on,0,0,3,,,,,,,,,2,,,45,88
33999,note_on,39,0,3,,,,,,,,,2,,,43,88
33999,note_on,39,0,1,,,,,,,,,0,,,55,101
34000,note_on,1,0,3,,,,,,,,,2,,,45,0
34000,note_on,1,0,1,,,,,,,,,0,,,57,0
34039,note_on,39,0,3,,,,,,,,,2,,,43,0
34039,note_on,39,0,1,,,,,,,,,0,,,55,0
34040,note_on,0,0,1,,,,,,,,,0,,,57,101
34040,note_on,0,0,3,,,,,,,,,2,,,45,88
34040,control_change,1,0,3,,,,,,,,,2,64,0,,
34040,control_change,1,0,1,,,,,,,,,0,64,0,,
34080,note_on,40,0,1,,,,,,,,,0,,,57,0
34080,control_change,0,0,1,,,,,,,,,0,64,127,,
34080,note_on,0,0,1,,,,,,,,,0,,,65,114
34080,control_change,0,0,3,,,,,,,,,2,64,127,,
34080,note_on,0,0,3,,,,,,,,,2,,,53,101
34080,note_on,40,0,3,,,,,,,,,2,,,45,0
34119,note_on,39,0,3,,,,,,,,,2,,,57,101
34119,note_on,39,0,1,,,,,,,,,0,,,69,114
34120,note_on,1,0,3,,,,,,,,,2,,,53,0
34120,note_on,1,0,1,,,,,,,,,0,,,65,0
34159,note_on,39,0,1,,,,,,,,,0,,,69,0
34159,note_on,39,0,3,,,,,,,,,2,,,57,0
34160,note_on,1,0,3,,,,,,,,,2,,,53,101
34160,note_on,1,0,1,,,,,,,,,0,,,65,114
34200,note_on,0,0,1,,,,,,,,,0,,,60,114
34200,note_on,40,0,1,,,,,,,,,0,,,65,0
34200,note_on,0,0,3,,,,,,,,,2,,,48,101
34200,note_on,40,0,3,,,,,,,,,2,,,53,0
34239,note_on,39,0,1,,,,,,,,,0,,,57,114
34239,note_on,39,0,3,,,,,,,,,2,,,45,101
34240,note_on,1,0,3,,,,,,,,,2,,,48,0
34240,note_on,1,0,1,,,,,,,,,0,,,60,0
34279,note_on,39,0,3,,,,,,,,,2,,,45,0
34279,note_on,39,0,1,,,,,,,,,0,,,57,0
34280,note_on,1,0,3,,,,,,,,,2,,,41,101
34280,note_on,1,0,1,,,,,,,,,0,,,53,114
34320,note_on,40,0,3,,,,,,,,,2,,,41,0
34320,note_on,0,0,3,,,,,,,,,2,,,45,101
34320,note_on,40,0,1,,,,,,,,,0,,,53,0
34320,note_on,0,0,1,,,,,,,,,0,,,57,114
34359,note_on,39,0,1,,,,,,,,,0,,,53,114
34359,note_on,39,0,3,,,,,,,,,2,,,41,101
34360,note_on,1,0,1,,,,,,,,,0,,,57,0
34360,note_on,1,0,3,,,,,,,,,2,,,45,0
34399,note_on,39,0,1,,,,,,,,,0,,,53,0
34399,note_on,39,0,3,,,,,,,,,2,,,41,0
34400,note_on,1,0,1,,,,,,,,,0,,,57,114
34400,note_on,1,0,3,,,,,,,,,2,,,45,101
34440,note_on,40,0,1,,,,,,,,,0,,,57,0
34440,note_on,40,0,3,,,,,,,,,2,,,45,0
34440,note_on,0,0,3,,,,,,,,,2,,,41,101
34440,note_on,0,0,1,,,,,,,,,0,,,53,114
34479,note_on,39,0,3,,,,,,,,,2,,,45,101
34479,note_on,39,0,1,,,,,,,,,0,,,57,114
34480,note_on,1,0,3,,,,,,,,,2,,,41,0
34480,note_on,1,0,1,,,,,,,,,0,,,53,0
34519,note_on,39,0,3,,,,,,,,,2,,,45,0
34519,note_on,39,0,1,,,,,,,,,0,,,57,0
34520,note_on,0,0,3,,,,,,,,,2,,,41,101
34520,note_on,0,0,1,,,,,,,,,0,,,53,114
34520,control_change,1,0,3,,,,,,,,,2,64,0,,
34520,control_change,1,0,1,,,,,,,,,0,64,0,,
34560,control_change,0,0,1,,,,,,,,,0,64,127,,
34560,note_on,0,0,3,,,,,,,,,2,,,55,101
34560,note_on,0,0,1,,,,,,,,,0,,,67,114
34560,control_change,0,0,3,,,,,,,,,2,64,127,,
34560,note_on,40,0,3,,,,,,,,,2,,,41,0
34560,note_on,40,0,1,,,,,,,,,0,,,53,0
34599,note_on,39,0,1,,,,,,,,,0,,,69,114
34599,note_on,39,0,3,,,,,,,,,2,,,57,101
34600,note_on,1,0,1,,,,,,,,,0,,,67,0
34600,note_on,1,0,3,,,,,,,,,2,,,55,0
34639,note_on,39,0,3,,,,,,,,,2,,,57,0
34639,note_on,39,0,1,,,,,,,,,0,,,69,0
34640,note_on,1,0,1,,,,,,,,,0,,,67,114
34640,note_on,1,0,3,,,,,,,,,2,,,55,101
34680,note_on,40,0,3,,,,,,,,,2,,,55,0
34680,note_on,0,0,3,,,,,,,,,2,,,52,101
34680,note_on,40,0,1,,,,,,,,,0,,,67,0
34680,note_on,0,0,1,,,,,,,,,0,,,64,114
34719,note_on,39,0,3,,,,,,,,,2,,,49,101
34719,note_on,39,0,1,,,,,,,,,0,,,61,114
34720,note_on,1,0,1,,,,,,,,,0,,,64,0
34720,note_on,1,0,3,,,,,,,,,2,,,52,0
34759,note_on,39,0,3,,,,,,,,,2,,,49,0
34759,note_on,39,0,1,,,,,,,,,0,,,61,0
34760,note_on,1,0,1,,,,,,,,,0,,,57,114
34760,note_on,1,0,3,,,,,,,,,2,,,45,101
34800,note_on,40,0,1,,,,,,,,,0,,,57,0
34800,note_on,0,0,1,,,,,,,,,0,,,55,114
34800,note_on,40,0,3,,,,,,,,,2,,,45,0
34800,note_on,0,0,3,,,,,,,,,2,,,43,101
34839,note_on,39,0,1,,,,,,,,,0,,,57,114
34839,note_on,39,0,3,,,,,,,,,2,,,45,101
34840,note_on,1,0,3,,,,,,,,,2,,,43,0
34840,note_on,1,0,1,,,,,,,,,0,,,55,0
34879,note_on,39,0,1,,,,,,,,,0,,,57,0
34879,note_on,39,0,3,,,,,,,,,2,,,45,0
34880,note_on,1,0,1,,,,,,,,,0,,,55,114
34880,note_on,1,0,3,,,,,,,,,2,,,43,101
34920,note_on,40,0,3,,,,,,,,,2,,,43,0
34920,note_on,0,0,3,,,,,,,,,2,,,45,101
34920,note_on,0,0,1,,,,,,,,,0,,,57,114
34920,note_on,40,0,1,,,,,,,,,0,,,55,0
34959,note_on,39,0,3,,,,,,,,,2,,,43,101
34959,note_on,39,0,1,,,,,,,,,0,,,55,114
34960,note_on,1,0,3,,,,,,,,,2,,,45,0
34960,note_on,1,0,1,,,,,,,,,0,,,57,0
34999,note_on,39,0,3,,,,,,,,,2,,,43,0
34999,note_on,39,0,1,,,,,,,,,0,,,55,0
35000,control_change,1,0,3,,,,,,,,,2,64,0,,
35000,note_on,0,0,1,,,,,,,,,0,,,57,114
35000,control_change,1,0,1,,,,,,,,,0,64,0,,
35000,note_on,0,0,3,,,,,,,,,2,,,45,101
35040,control_change,0,0,3,,,,,,,,,2,64,127,,
35040,note_on,0,0,3,,,,,,,,,2,,,53,88
35040,note_on,0,0,1,,,,,,,,,0,,,65,101
35040,control_change,0,0,1,,,,,,,,,0,64,127,,
35040,note_on,40,0,1,,,,,,,,,0,,,57,0
35040,note_on,40,0,3,,,,,,,,,2,,,45,0
35079,note_on,39,0,3,,,,,,,,,2,,,57,88
35079,note_on,39,0,1,,,,,,,,,0,,,69,101
35080,note_on,1,0,3,,,,,,,,,2,,,53,0
35080,note_on,1,0,1,,,,,,,,,0,,,65,0
35119,note_on,39,0,1,,,,,,,,,0,,,69,0
35119,note_on,39,0,3,,,,,,,,,2,,,57,0
35120,note_on,1,0,3,,,,,,,,,2,,,53,88
35120,note_on,1,0,1,,,,,,,,,0,,,65,101
35160,note_on,40,0,3,,,,,,,,,2,,,53,0
35160,note_on,0,0,3,,,,,,,,,2,,,48,88
35160,note_on,40,0,1,,,,,,,,,0,,,65,0
35160,note_on,0,0,1,,,,,,,,,0,,,60,101
35199,note_on,39,0,3,,,,,,,,,2,,,45,88
35199,note_on,39,0,1,,,,,,,,,0,,,57,101
35200,note_on,1,0,3,,,,,,,,,2,,,48,0
35200,note_on,1,0,1,,,,,,,,,0,,,60,0
35239,note_on,39,0,3,,,,,,,,,2,,,45,0
35239,note_on,39,0,1,,,,,,,,,0,,,57,0
35240,note_on,1,0,3,,,,,,,,,2,,,41,88
35240,note_on,1,0,1,,,,,,,,,0,,,53,101
35280,note_on,40,0,3,,,,,,,,,2,,,41,0
35280,note_on,0,0,1,,,,,,,,,0,,,57,127
35280,note_on,0,0,3,,,,,,,,,2,,,45,88
35280,note_on,40,0,1,,,,,,,,,0,,,53,0
35319,note_on,39,0,3,,,,,,,,,2,,,41,88
35319,note_on,39,0,1,,,,,,,,,0,,,53,101
35320,note_on,1,0,1,,,,,,,,,0,,,57,0
35320,note_on,1,0,3,,,,,,,,,2,,,45,0
35359,note_on,39,0,3,,,,,,,,,2,,,41,0
35359,note_on,39,0,1,,,,,,,,,0,,,53,0
35360,note_on,1,0,1,,,,,,,,,0,,,57,101
35360,note_on,1,0,3,,,,,,,,,2,,,45,88
35400,note_on,0,0,1,,,,,,,,,0,,,53,101
35400,note_on,40,0,3,,,,,,,,,2,,,45,0
35400,note_on,0,0,3,,,,,,,,,2,,,41,88
35400,note_on,40,0,1,,,,,,,,,0,,,57,0
35439,note_on,39,0,1,,,,,,,,,0,,,57,101
35439,note_on,39,0,3,,,,,,,,,2,,,45,88
35440,note_on,1,0,1,,,,,,,,,0,,,53,0
35440,note_on,1,0,3,,,,,,,,,2,,,41,0
35479,note_on,39,0,3,,,,,,,,,2,,,45,0
35479,note_on,39,0,1,,,,,,,,,0,,,57,0
35480,note_on,0,0,1,,,,,,,,,0,,,53,101
35480,note_on,0,0,3,,,,,,,,,2,,,41,88
35480,control_change,1,0,3,,,,,,,,,2,64,0,,
35480,control_change,1,0,1,,,,,,,,,0,64,0,,
35520,note_on,40,0,1,,,,,,,,,0,,,53,0
35520,note_on,40,0,3,,,,,,,,,2,,,41,0
35520,note_on,0,0,3,,,,,,,,,2,,,40,49
35520,note_on,0,0,1,,,,,,,,,0,,,52,49
35559,note_on,39,0,1,,,,,,,,,0,,,54,49
35560,note_on,1,0,1,,,,,,,,,0,,,52,0
35580,note_on,60,0,3,,,,,,,,,2,,,40,0
35599,note_on,39,0,1,,,,,,,,,0,,,54,0
35600,note_on,1,0,1,,,,,,,,,0,,,56,49
35640,note_on,40,0,1,,,,,,,,,0,,,56,0
35640,note_on,0,0,1,,,,,,,,,0,,,57,49
35640,note_on,0,0,2,,,,,,,,,1,,,76,49
35640,note_on,2100,0,2,,,,,,,,,1,,,73,49
35679,note_on,39,0,1,,,,,,,,,0,,,59,49
35680,note_on,1,0,1,,,,,,,,,0,,,57,0
35719,note_on,39,0,1,,,,,,,,,0,,,59,0
35720,note_on,1,0,1,,,,,,,,,0,,,61,49
35730,note_on,90,0,2,,,,,,,,,1,,,76,0
35730,note_on,0,0,2,,,,,,,,,1,,,73,0
35730,note_on,0,0,2,,,,,,,,,1,,,73,49
35730,note_on,0,0,2,,,,,,,,,1,,,76,49
35760,note_on,0,0,2,,,,,,,,,1,,,74,49
35760,note_on,30,0,2,,,,,,,,,1,,,76,0
35760,note_on,40,0,1,,,,,,,,,0,,,61,0
35760,note_on,0,0,1,,,,,,,,,0,,,62,49
35760,note_on,0,0,2,,,,,,,,,1,,,71,49
35760,note_on,0,0,2,,,,,,,,,1,,,73,0
35799,note_on,39,0,1,,,,,,,,,0,,,64,49
35800,note_on,1,0,1,,,,,,,,,0,,,62,0
35820,note_on,0,0,2,,,,,,,,,1,,,71,0
35820,note_on,60,0,2,,,,,,,,,1,,,74,0
35839,note_on,39,0,1,,,,,,,,,0,,,64,0
35840,note_on,1,0,1,,,,,,,,,0,,,66,49
35880,note_on,300,0,3,,,,,,,,,2,,,52,49
35880,note_on,0,0,3,,,,,,,,,2,,,59,49
35880,note_on,40,0,1,,,,,,,,,0,,,66,0
35880,note_on,0,0,1,,,,,,,,,0,,,68,49
35919,note_on,39,0,1,,,,,,,,,0,,,69,49
35920,note_on,1,0,1,,,,,,,,,0,,,68,0
35940,note_on,60,0,3,,,,,,,,,2,,,59,0
35940,note_on,0,0,3,,,,,,,,,2,,,52,0
35959,note_on,39,0,1,,,,,,,,,0,,,69,0
35960,note_on,1,0,1,,,,,,,,,0,,,71,49
36000,note_on,0,0,1,,,,,,,,,0,,,73,49
36000,note_on,40,0,1,,,,,,,,,0,,,71,0
36000,note_on,60,0,3,,,,,,,,,2,,,45,49
36000,note_on,0,0,3,,,,,,,,,2,,,49,49
36000,note_on,0,0,3,,,,,,,,,2,,,57,49
36039,note_on,39,0,1,,,,,,,,,0,,,74,49
36040,note_on,1,0,1,,,,,,,,,0,,,73,0
36060,note_on,60,0,3,,,,,,,,,2,,,57,0
36060,note_on,0,0,3,,,,,,,,,2,,,49,0
36060,note_on,0,0,3,,,,,,,,,2,,,45,0
36079,note_on,39,0,1,,,,,,,,,0,,,74,0
36080,note_on,1,0,1,,,,,,,,,0,,,76,49
36120,note_on,300,0,2,,,,,,,,,1,,,73,49
36120,note_on,0,0,1,,,,,,,,,0,,,78,49
36120,note_on,40,0,1,,,,,,,,,0,,,76,0
36120,note_on,0,0,2,,,,,,,,,1,,,76,49
36159,note_on,39,0,1,,,,,,,,,0,,,80,49
36160,note_on,1,0,1,,,,,,,,,0,,,78,0
36199,note_on,39,0,1,,,,,,,,,0,,,80,0
36200,note_on,1,0,1,,,,,,,,,0,,,81,49
36210,note_on,0,0,2,,,,,,,,,1,,,76,49
36210,note_on,0,0,2,,,,,,,,,1,,,73,49
36210,note_on,90,0,2,,,,,,,,,1,,,76,0
36210,note_on,0,0,2,,,,,,,,,1,,,73,0
36240,note_on,0,0,2,,,,,,,,,1,,,71,49
36240,note_on,0,0,2,,,,,,,,,1,,,74,49
36240,note_on,30,0,2,,,,,,,,,1,,,76,0
36240,note_on,0,0,2,,,,,,,,,1,,,73,0
36240,note_on,40,0,1,,,,,,,,,0,,,81,0
36240,note_on,0,0,1,,,,,,,,,0,,,83,49
36279,note_on,39,0,1,,,,,,,,,0,,,85,49
36280,note_on,1,0,1,,,,,,,,,0,,,83,0
36300,note_on,60,0,2,,,,,,,,,1,,,74,0
36300,note_on,0,0,2,,,,,,,,,1,,,71,0
36319,note_on,39,0,1,,,,,,,,,0,,,85,0
36320,note_on,1,0,1,,,,,,,,,0,,,86,49
36360,note_on,0,0,1,,,,,,,,,0,,,88,49
36360,note_on,40,0,1,,,,,,,,,0,,,86,0
36360,note_on,300,0,3,,,,,,,,,2,,,52,49
36360,note_on,0,0,3,,,,,,,,,2,,,59,49
36399,note_on,39,0,1,,,,,,,,,0,,,90,49
36400,note_on,1,0,1,,,,,,,,,0,,,88,0
36420,note_on,0,0,3,,,,,,,,,2,,,52,0
36420,note_on,60,0,3,,,,,,,,,2,,,59,0
36439,note_on,39,0,1,,,,,,,,,0,,,90,0
36440,note_on,1,0,1,,,,,,,,,0,,,92,49
36480,note_on,60,0,3,,,,,,,,,2,,,45,49
36480,note_on,0,0,3,,,,,,,,,2,,,49,49
36480,note_on,0,0,3,,,,,,,,,2,,,57,49
36480,note_on,40,0,1,,,,,,,,,0,,,92,0
36480,control_change,0,0,1,,,,,,,,,0,64,127,,
36480,note_on,0,0,1,,,,,,,,,0,,,93,49
36519,note_on,39,0,1,,,,,,,,,0,,,92,49
36520,note_on,1,0,1,,,,,,,,,0,,,93,0
36540,note_on,0,0,3,,,,,,,,,2,,,45,0
36540,note_on,0,0,3,,,,,,,,,2,,,49,0
36540,note_on,60,0,3,,,,,,,,,2,,,57,0
36559,note_on,39,0,1,,,,,,,,,0,,,92,0
36560,note_on,1,0,1,,,,,,,,,0,,,90,49
36600,note_on,0,0,1,,,,,,,,,0,,,88,49
36600,note_on,300,0,2,,,,,,,,,1,,,73,49
36600,note_on,0,0,2,,,,,,,,,1,,,76,49
36600,note_on,40,0,1,,,,,,,,,0,,,90,0
36639,note_on,39,0,1,,,,,,,,,0,,,86,49
36640,note_on,1,0,1,,,,,,,,,0,,,88,0
36679,note_on,39,0,1,,,,,,,,,0,,,86,0
36680,note_on,1,0,1,,,,,,,,,0,,,85,49
36690,note_on,90,0,2,,,,,,,,,1,,,76,0
36690,note_on,0,0,2,,,,,,,,,1,,,76,49
36690,note_on,0,0,2,,,,,,,,,1,,,73,0
36690,note_on,0,0,2,,,,,,,,,1,,,73,49
36720,note_on,30,0,2,,,,,,,,,1,,,76,0
36720,note_on,0,0,1,,,,,,,,,0,,,83,49
36720,note_on,40,0,1,,,,,,,,,0,,,85,0
36720,control_change,0,0,1,,,,,,,,,0,64,0,,
36720,note_on,0,0,2,,,,,,,,,1,,,73,0
36720,note_on,0,0,2,,,,,,,,,1,,,74,49
36720,note_on,0,0,2,,,,,,,,,1,,,71,49
36759,note_on,39,0,1,,,,,,,,,0,,,81,49
36760,note_on,1,0,1,,,,,,,,,0,,,83,0
36780,note_on,60,0,2,,,,,,,,,1,,,74,0
36780,note_on,0,0,2,,,,,,,,,1,,,71,0
36799,note_on,39,0,1,,,,,,,,,0,,,81,0
36800,note_on,1,0,1,,,,,,,,,0,,,80,49
36840,note_on,0,0,3,,,,,,,,,2,,,59,49
36840,note_on,40,0,1,,,,,,,,,0,,,80,0
36840,note_on,0,0,1,,,,,,,,,0,,,78,49
36840,note_on,300,0,3,,,,,,,,,2,,,52,49
36879,note_on,39,0,1,,,,,,,,,0,,,76,49
36880,note_on,1,0,1,,,,,,,,,0,,,78,0
36900,note_on,0,0,3,,,,,,,,,2,,,52,0
36900,note_on,60,0,3,,,,,,,,,2,,,59,0
36919,note_on,39,0,1,,,,,,,,,0,,,76,0
36920,note_on,1,0,1,,,,,,,,,0,,,74,49
36960,note_on,40,0,1,,,,,,,,,0,,,74,0
36960,note_on,0,0,3,,,,,,,,,2,,,49,49
36960,note_on,60,0,3,,,,,,,,,2,,,45,49
36960,note_on,0,0,1,,,,,,,,,0,,,73,49
36960,note_on,0,0,3,,,,,,,,,2,,,57,49
36999,note_on,39,0,1,,,,,,,,,0,,,71,49
37000,note_on,1,0,1,,,,,,,,,0,,,73,0
37020,note_on,0,0,3,,,,,,,,,2,,,45,0
37020,note_on,0,0,3,,,,,,,,,2,,,49,0
37020,note_on,60,0,3,,,,,,,,,2,,,57,0
37039,note_on,39,0,1,,,,,,,,,0,,,71,0
37040,note_on,1,0,1,,,,,,,,,0,,,69,49
37080,note_on,0,0,1,,,,,,,,,0,,,68,49
37080,note_on,40,0,1,,,,,,,,,0,,,69,0
37080,note_on,0,0,2,,,,,,,,,1,,,76,49
37080,note_on,300,0,2,,,,,,,,,1,,,73,49
37119,note_on,39,0,1,,,,,,,,,0,,,66,49
37120,note_on,1,0,1,,,,,,,,,0,,,68,0
37159,note_on,39,0,1,,,,,,,,,0,,,66,0
37160,note_on,1,0,1,,,,,,,,,0,,,64,49
37170,note_on,0,0,2,,,,,,,,,1,,,73,0
37170,note_on,0,0,2,,,,,,,,,1,,,76,49
37170,note_on,0,0,2,,,,,,,,,1,,,73,49
37170,note_on,90,0,2,,,,,,,,,1,,,76,0
37200,note_on,0,0,2,,,,,,,,,1,,,73,0
37200,note_on,0,0,2,,,,,,,,,1,,,71,49
37200,note_on,0,0,2,,,,,,,,,1,,,74,49
37200,note_on,40,0,1,,,,,,,,,0,,,64,0
37200,note_on,0,0,1,,,,,,,,,0,,,62,49
37200,note_on,30,0,2,,,,,,,,,1,,,76,0
37239,note_on,39,0,1,,,,,,,,,0,,,66,49
37240,note_on,1,0,1,,,,,,,,,0,,,62,0
37260,note_on,60,0,2,,,,,,,,,1,,,74,0
37260,note_on,0,0,2,,,,,,,,,1,,,71,0
37279,note_on,39,0,1,,,,,,,,,0,,,66,0
37280,note_on,1,0,1,,,,,,,,,0,,,64,49
37320,note_on,0,0,1,,,,,,,,,0,,,62,49
37320,note_on,40,0,1,,,,,,,,,0,,,64,0
37320,note_on,300,0,3,,,,,,,,,2,,,52,49
37359,note_on,39,0,1,,,,,,,,,0,,,61,49
37360,note_on,1,0,1,,,,,,,,,0,,,62,0
37380,note_on,60,0,3,,,,,,,,,2,,,52,0
37399,note_on,39,0,1,,,,,,,,,0,,,61,0
37400,note_on,1,0,1,,,,,,,,,0,,,59,49
37440,note_on,40,0,1,,,,,,,,,0,,,59,0
37440,control_change,0,0,1,,,,,,,,,0,64,127,,
37440,note_on,0,0,1,,,,,,,,,0,,,67,101
37440,note_on,0,0,3,,,,,,,,,2,,,55,88
37440,control_change,60,0,3,,,,,,,,,2,64,127,,
37479,note_on,39,0,1,,,,,,,,,0,,,69,101
37479,note_on,39,0,3,,,,,,,,,2,,,57,88
37480,note_on,1,0,3,,,,,,,,,2,,,55,0
37480,note_on,1,0,1,,,,,,,,,0,,,67,0
37519,note_on,39,0,1,,,,,,,,,0,,,69,0
37519,note_on,39,0,3,,,,,,,,,2,,,57,0
37520,note_on,1,0,1,,,,,,,,,0,,,67,101
37520,note_on,1,0,3,,,,,,,,,2,,,55,88
37560,note_on,40,0,3,,,,,,,,,2,,,55,0
37560,note_on,40,0,1,,,,,,,,,0,,,67,0
37560,note_on,0,0,1,,,,,,,,,0,,,64,101
37560,note_on,0,0,3,,,,,,,,,2,,,52,88
37599,note_on,39,0,3,,,,,,,,,2,,,49,88
37599,note_on,39,0,1,,,,,,,,,0,,,61,101
37600,note_on,1,0,3,,,,,,,,,2,,,52,0
37600,note_on,1,0,1,,,,,,,,,0,,,64,0
37639,note_on,39,0,3,,,,,,,,,2,,,49,0
37639,note_on,39,0,1,,,,,,,,,0,,,61,0
37640,note_on,1,0,3,,,,,,,,,2,,,45,88
37640,note_on,1,0,1,,,,,,,,,0,,,57,101
37680,note_on,0,0,1,,,,,,,,,0,,,55,127
37680,note_on,0,0,3,,,,,,,,,2,,,43,88
37680,note_on,40,0,3,,,,,,,,,2,,,45,0
37680,note_on,40,0,1,,,,,,,,,0,,,57,0
37719,note_on,39,0,3,,,,,,,,,2,,,45,88
37719,note_on,39,0,1,,,,,,,,,0,,,57,101
37720,note_on,1,0,1,,,,,,,,,0,,,55,0
37720,note_on,1,0,3,,,,,,,,,2,,,43,0
37759,note_on,39,0,1,,,,,,,,,0,,,57,0
37759,note_on,39,0,3,,,,,,,,,2,,,45,0
37760,note_on,1,0,1,,,,,,,,,0,,,55,101
37760,note_on,1,0,3,,,,,,,,,2,,,43,88
37800,note_on,0,0,1,,,,,,,,,0,,,57,101
37800,note_on,40,0,1,,,,,,,,,0,,,55,0
37800,note_on,0,0,3,,,,,,,,,2,,,45,88
37800,note_on,40,0,3,,,,,,,,,2,,,43,0
37839,note_on,39,0,1,,,,,,,,,0,,,55,101
37839,note_on,39,0,3,,,,,,,,,2,,,43,88
37840,note_on,1,0,1,,,,,,,,,0,,,57,0
37840,note_on,1,0,3,,,,,,,,,2,,,45,0
37879,note_on,39,0,3,,,,,,,,,2,,,43,0
37879,note_on,39,0,1,,,,,,,,,0,,,55,0
37880,note_on,0,0,3,,,,,,,,,2,,,45,88
37880,control_change,1,0,3,,,,,,,,,2,64,0,,
37880,control_change,1,0,1,,,,,,,,,0,64,0,,
37880,note_on,0,0,1,,,,,,,,,0,,,57,101
37920,control_change,0,0,3,,,,,,,,,2,64,127,,
37920,note_on,40,0,1,,,,,,,,,0,,,57,0
37920,control_change,0,0,1,,,,,,,,,0,64,127,,
37920,note_on,0,0,1,,,,,,,,,0,,,65,114
37920,note_on,0,0,3,,,,,,,,,2,,,53,101
37920,note_on,40,0,3,,,,,,,,,2,,,45,0
37959,note_on,39,0,1,,,,,,,,,0,,,69,114
37959,note_on,39,0,3,,,,,,,,,2,,,57,101
37960,note_on,1,0,1,,,,,,,,,0,,,65,0
37960,note_on,1,0,3,,,,,,,,,2,,,53,0
37999,note_on,39,0,1,,,,,,,,,0,,,69,0
37999,note_on,39,0,3,,,,,,,,,2,,,57,0
38000,note_on,1,0,1,,,,,,,,,0,,,65,114
38000,note_on,1,0,3,,,,,,,,,2,,,53,101
38040,note_on,40,0,3,,,,,,,,,2,,,53,0
38040,note_on,0,0,3,,,,,,,,,2,,,48,101
38040,note_on,40,0,1,,,,,,,,,0,,,65,0
38040,note_on,0,0,1,,,,,,,,,0,,,60,114
38079,note_on,39,0,3,,,,,,,,,2,,,45,101
38079,note_on,39,0,1,,,,,,,,,0,,,57,114
38080,note_on,1,0,3,,,,,,,,,2,,,48,0
38080,note_on,1,0,1,,,,,,,,,0,,,60,0
38119,note_on,39,0,3,,,,,,,,,2,,,45,0
38119,note_on,39,0,1,,,,,,,,,0,,,57,0
38120,note_on,1,0,1,,,,,,,,,0,,,53,114
38120,note_on,1,0,3,,,,,,,,,2,,,41,101
38160,note_on,40,0,1,,,,,,,,,0,,,53,0
38160,note_on,0,0,3,,,,,,,,,2,,,45,101
38160,note_on,40,0,3,,,,,,,,,2,,,41,0
38160,note_on,0,0,1,,,,,,,,,0,,,57,114
38199,note_on,39,0,1,,,,,,,,,0,,,53,114
38199,note_on,39,0,3,,,,,,,,,2,,,41,101
38200,note_on,1,0,3,,,,,,,,,2,,,45,0
38200,note_on,1,0,1,,,,,,,,,0,,,57,0
38239,note_on,39,0,3,,,,,,,,,2,,,41,0
38239,note_on,39,0,1,,,,,,,,,0,,,53,0
38240,note_on,1,0,1,,,,,,,,,0,,,57,114
38240,note_on,1,0,3,,,,,,,,,2,,,45,101
38280,note_on,40,0,3,,,,,,,,,2,,,45,0
38280,note_on,0,0,3,,,,,,,,,2,,,41,101
38280,note_on,0,0,1,,,,,,,,,0,,,53,114
38280,note_on,40,0,1,,,,,,,,,0,,,57,0
38319,note_on,39,0,3,,,,,,,,,2,,,45,101
38319,note_on,39,0,1,,,,,,,,,0,,,57,114
38320,note_on,1,0,3,,,,,,,,,2,,,41,0
38320,note_on,1,0,1,,,,,,,,,0,,,53,0
38359,note_on,39,0,3,,,,,,,,,2,,,45,0
38359,note_on,39,0,1,,,,,,,,,0,,,57,0
38360,control_change,1,0,3,,,,,,,,,2,64,0,,
38360,note_on,0,0,1,,,,,,,,,0,,,53,114
38360,control_change,1,0,1,,,,,,,,,0,64,0,,
38360,note_on,0,0,3,,,,,,,,,2,,,41,101
38400,note_on,40,0,3,,,,,,,,,2,,,41,0
38400,control_change,0,0,1,,,,,,,,,0,64,127,,
38400,note_on,0,0,3,,,,,,,,,2,,,53,101
38400,control_change,0,0,3,,,,,,,,,2,64,127,,
38400,note_on,40,0,1,,,,,,,,,0,,,53,0
38400,note_on,0,0,1,,,,,,,,,0,,,65,114
38439,note_on,39,0,1,,,,,,,,,0,,,67,114
38439,note_on,39,0,3,,,,,,,,,2,,,55,101
38440,note_on,1,0,1,,,,,,,,,0,,,65,0
38440,note_on,1,0,3,,,,,,,,,2,,,53,0
38479,note_on,39,0,3,,,,,,,,,2,,,55,0
38479,note_on,39,0,1,,,,,,,,,0,,,67,0
38480,note_on,1,0,1,,,,,,,,,0,,,65,114
38480,note_on,1,0,3,,,,,,,,,2,,,53,101
38520,note_on,40,0,1,,,,,,,,,0,,,65,0
38520,note_on,0,0,1,,,,,,,,,0,,,62,114
38520,note_on,0,0,3,,,,,,,,,2,,,50,101
38520,note_on,40,0,3,,,,,,,,,2,,,53,0
38559,note_on,39,0,1,,,,,,,,,0,,,59,114
38559,note_on,39,0,3,,,,,,,,,2,,,47,101
38560,note_on,1,0,1,,,,,,,,,0,,,62,0
38560,note_on,1,0,3,,,,,,,,,2,,,50,0
38599,note_on,39,0,3,,,,,,,,,2,,,47,0
38599,note_on,39,0,1,,,,,,,,,0,,,59,0
38600,note_on,1,0,1,,,,,,,,,0,,,55,114
38600,note_on,1,0,3,,,,,,,,,2,,,43,101
38640,note_on,40,0,1,,,,,,,,,0,,,55,0
38640,note_on,0,0,3,,,,,,,,,2,,,41,101
38640,note_on,40,0,3,,,,,,,,,2,,,43,0
38640,note_on,0,0,1,,,,,,,,,0,,,53,114
38679,note_on,39,0,3,,,,,,,,,2,,,43,101
38679,note_on,39,0,1,,,,,,,,,0,,,55,114
38680,note_on,1,0,3,,,,,,,,,2,,,41,0
38680,note_on,1,0,1,,,,,,,,,0,,,53,0
38719,note_on,39,0,3,,,,,,,,,2,,,43,0
38719,note_on,39,0,1,,,,,,,,,0,,,55,0
38720,note_on,1,0,3,,,,,,,,,2,,,41,101
38720,note_on,1,0,1,,,,,,,,,0,,,53,114
38760,note_on,40,0,1,,,,,,,,,0,,,53,0
38760,note_on,0,0,3,,,,,,,,,2,,,43,101
38760,note_on,40,0,3,,,,,,,,,2,,,41,0
38760,note_on,0,0,1,,,,,,,,,0,,,55,114
38799,note_on,39,0,3,,,,,,,,,2,,,41,101
38799,note_on,39,0,1,,,,,,,,,0,,,53,114
38800,note_on,1,0,3,,,,,,,,,2,,,43,0
38800,note_on,1,0,1,,,,,,,,,0,,,55,0
38839,note_on,39,0,1,,,,,,,,,0,,,53,0
38839,note_on,39,0,3,,,,,,,,,2,,,41,0
38840,control_change,1,0,1,,,,,,,,,0,64,0,,
38840,control_change,1,0,3,,,,,,,,,2,64,0,,
38840,note_on,0,0,1,,,,,,,,,0,,,55,114
38840,note_on,0,0,3,,,,,,,,,2,,,43,101
38880,control_change,0,0,3,,,,,,,,,2,64,127,,
38880,note_on,40,0,1,,,,,,,,,0,,,55,0
38880,control_change,0,0,1,,,,,,,,,0,64,127,,
38880,note_on,0,0,1,,,,,,,,,0,,,63,114
38880,note_on,40,0,3,,,,,,,,,2,,,43,0
38880,note_on,0,0,3,,,,,,,,,2,,,51,101
38919,note_on,39,0,1,,,,,,,,,0,,,67,114
38919,note_on,39,0,3,,,,,,,,,2,,,55,101
38920,note_on,1,0,3,,,,,,,,,2,,,51,0
38920,note_on,1,0,1,,,,,,,,,0,,,63,0
38959,note_on,39,0,3,,,,,,,,,2,,,55,0
38959,note_on,39,0,1,,,,,,,,,0,,,67,0
38960,note_on,1,0,1,,,,,,,,,0,,,63,114
38960,note_on,1,0,3,,,,,,,,,2,,,51,101
39000,note_on,40,0,3,,,,,,,,,2,,,51,0
39000,note_on,40,0,1,,,,,,,,,0,,,63,0
39000,note_on,0,0,1,,,,,,,,,0,,,59,114
39000,note_on,0,0,3,,,,,,,,,2,,,47,101
39039,note_on,39,0,1,,,,,,,,,0,,,55,114
39039,note_on,39,0,3,,,,,,,,,2,,,43,101
39040,note_on,1,0,3,,,,,,,,,2,,,47,0
39040,note_on,1,0,1,,,,,,,,,0,,,59,0
39079,note_on,39,0,3,,,,,,,,,2,,,43,0
39079,note_on,39,0,1,,,,,,,,,0,,,55,0
39080,note_on,1,0,3,,,,,,,,,2,,,39,101
39080,note_on,1,0,1,,,,,,,,,0,,,51,114
39120,note_on,40,0,1,,,,,,,,,0,,,51,0
39120,note_on,40,0,3,,,,,,,,,2,,,39,0
39120,note_on,0,0,3,,,,,,,,,2,,,43,101
39120,note_on,0,0,1,,,,,,,,,0,,,55,114
39159,note_on,39,0,3,,,,,,,,,2,,,39,101
39159,note_on,39,0,1,,,,,,,,,0,,,51,114
39160,note_on,1,0,3,,,,,,,,,2,,,43,0
39160,note_on,1,0,1,,,,,,,,,0,,,55,0
39199,note_on,39,0,1,,,,,,,,,0,,,51,0
39199,note_on,39,0,3,,,,,,,,,2,,,39,0
39200,note_on,1,0,1,,,,,,,,,0,,,55,114
39200,note_on,1,0,3,,,,,,,,,2,,,43,101
39240,note_on,0,0,1,,,,,,,,,0,,,51,114
39240,note_on,40,0,1,,,,,,,,,0,,,55,0
39240,note_on,40,0,3,,,,,,,,,2,,,43,0
39240,note_on,0,0,3,,,,,,,,,2,,,39,101
39279,note_on,39,0,1,,,,,,,,,0,,,55,114
39279,note_on,39,0,3,,,,,,,,,2,,,43,101
39280,note_on,1,0,1,,,,,,,,,0,,,51,0
39280,note_on,1,0,3,,,,,,,,,2,,,39,0
39319,note_on,39,0,3,,,,,,,,,2,,,43,0
39319,note_on,39,0,1,,,,,,,,,0,,,55,0
39320,control_change,1,0,3,,,,,,,,,2,64,0,,
39320,note_on,0,0,1,,,,,,,,,0,,,51,114
39320,note_on,0,0,3,,,,,,,,,2,,,39,101
39320,control_change,1,0,1,,,,,,,,,0,64,0,,
39360,note_on,0,0,4,,,,,,,,,3,,,51,101
39360,note_on,40,0,3,,,,,,,,,2,,,39,0
39360,control_change,0,0,3,,,,,,,,,2,64,127,,
39360,note_on,0,0,3,,,,,,,,,2,,,63,114
39360,note_on,40,0,1,,,,,,,,,0,,,51,0
39360,control_change,21780,0,4,,,,,,,,,3,64,127,,
39399,note_on,39,0,3,,,,,,,,,2,,,65,114
39399,note_on,39,0,4,,,,,,,,,3,,,53,101
39400,note_on,1,0,4,,,,,,,,,3,,,51,0
39400,note_on,1,0,3,,,,,,,,,2,,,63,0
39439,note_on,39,0,4,,,,,,,,,3,,,53,0
39439,note_on,39,0,3,,,,,,,,,2,,,65,0
39440,note_on,1,0,4,,,,,,,,,3,,,51,101
39440,note_on,1,0,3,,,,,,,,,2,,,63,114
39480,note_on,40,0,3,,,,,,,,,2,,,63,0
39480,note_on,0,0,4,,,,,,,,,3,,,48,101
39480,note_on,0,0,3,,,,,,,,,2,,,60,114
39480,note_on,40,0,4,,,,,,,,,3,,,51,0
39519,note_on,39,0,3,,,,,,,,,2,,,57,114
39519,note_on,39,0,4,,,,,,,,,3,,,45,101
39520,note_on,1,0,4,,,,,,,,,3,,,48,0
39520,note_on,1,0,3,,,,,,,,,2,,,60,0
39559,note_on,39,0,3,,,,,,,,,2,,,57,0
39559,note_on,39,0,4,,,,,,,,,3,,,45,0
39560,control_change,1,0,3,,,,,,,,,2,64,0,,
39560,control_change,1,0,4,,,,,,,,,3,64,0,,
39560,note_on,0,0,4,,,,,,,,,3,,,41,101
39560,note_on,0,0,3,,,,,,,,,2,,,53,114
39600,control_change,0,0,4,,,,,,,,,3,64,127,,
39600,note_on,0,0,4,,,,,,,,,3,,,49,101
39600,note_on,40,0,3,,,,,,,,,2,,,53,0
39600,note_on,0,0,3,,,,,,,,,2,,,61,114
39600,control_change,0,0,3,,,,,,,,,2,64,127,,
39600,note_on,40,0,4,,,,,,,,,3,,,41,0
39639,note_on,39,0,4,,,,,,,,,3,,,53,101
39639,note_on,39,0,3,,,,,,,,,2,,,65,114
39640,note_on,1,0,4,,,,,,,,,3,,,49,0
39640,note_on,1,0,3,,,,,,,,,2,,,61,0
39679,note_on,39,0,4,,,,,,,,,3,,,53,0
39679,note_on,39,0,3,,,,,,,,,2,,,65,0
39680,note_on,1,0,4,,,,,,,,,3,,,49,101
39680,note_on,1,0,3,,,,,,,,,2,,,61,114
39720,note_on,40,0,4,,,,,,,,,3,,,49,0
39720,note_on,0,0,3,,,,,,,,,2,,,56,114
39720,note_on,0,0,4,,,,,,,,,3,,,44,101
39720,note_on,40,0,3,,,,,,,,,2,,,61,0
39759,note_on,39,0,4,,,,,,,,,3,,,41,101
39759,note_on,39,0,3,,,,,,,,,2,,,53,114
39760,note_on,1,0,4,,,,,,,,,3,,,44,0
39760,note_on,1,0,3,,,,,,,,,2,,,56,0
39799,note_on,39,0,4,,,,,,,,,3,,,41,0
39799,note_on,39,0,3,,,,,,,,,2,,,53,0
39800,control_change,1,0,3,,,,,,,,,2,64,0,,
39800,control_change,1,0,4,,,,,,,,,3,64,0,,
39800,note_on,0,0,4,,,,,,,,,3,,,37,101
39800,note_on,0,0,3,,,,,,,,,2,,,49,114
39840,note_on,0,0,4,,,,,,,,,3,,,50,101
39840,control_change,0,0,4,,,,,,,,,3,64,127,,
39840,note_on,40,0,4,,,,,,,,,3,,,37,0
39840,note_on,0,0,3,,,,,,,,,2,,,62,114
39840,note_on,40,0,3,,,,,,,,,2,,,49,0
39840,control_change,0,0,3,,,,,,,,,2,64,127,,
39879,note_on,39,0,4,,,,,,,,,3,,,52,101
39879,note_on,39,0,3,,,,,,,,,2,,,64,114
39880,note_on,1,0,3,,,,,,,,,2,,,62,0
39880,note_on,1,0,4,,,,,,,,,3,,,50,0
39919,note_on,39,0,4,,,,,,,,,3,,,52,0
39919,note_on,39,0,3,,,,,,,,,2,,,64,0
39920,note_on,1,0,4,,,,,,,,,3,,,50,101
39920,note_on,1,0,3,,,,,,,,,2,,,62,114
39960,note_on,40,0,3,,,,,,,,,2,,,62,0
39960,note_on,0,0,3,,,,,,,,,2,,,59,114
39960,note_on,40,0,4,,,,,,,,,3,,,50,0
39960,note_on,0,0,4,,,,,,,,,3,,,47,101
39999,note_on,39,0,4,,,,,,,,,3,,,44,101
39999,note_on,39,0,3,,,,,,,,,2,,,56,114
40000,note_on,1,0,3,,,,,,,,,2,,,59,0
40000,note_on,1,0,4,,,,,,,,,3,,,47,0
40039,note_on,39,0,3,,,,,,,,,2,,,56,0
40039,note_on,39,0,4,,,,,,,,,3,,,44,0
40040,control_change,1,0,3,,,,,,,,,2,64,0,,
40040,note_on,0,0,3,,,,,,,,,2,,,52,114
40040,control_change,1,0,4,,,,,,,,,3,64,0,,
40040,note_on,0,0,4,,,,,,,,,3,,,40,101
40080,note_on,40,0,3,,,,,,,,,2,,,52,0
40080,note_on,40,0,4,,,,,,,,,3,,,40,0
40080,control_change,0,0,4,,,,,,,,,3,64,127,,
40080,note_on,0,0,4,,,,,,,,,3,,,48,101
40080,control_change,0,0,3,,,,,,,,,2,64,127,,
40080,note_on,0,0,3,,,,,,,,,2,,,60,114
40119,note_on,39,0,4,,,,,,,,,3,,,52,101
40119,note_on,39,0,3,,,,,,,,,2,,,64,114
40120,note_on,1,0,4,,,,,,,,,3,,,48,0
40120,note_on,1,0,3,,,,,,,,,2,,,60,0
40159,note_on,39,0,4,,,,,,,,,3,,,52,0
40159,note_on,39,0,3,,,,,,,,,2,,,64,0
40160,note_on,1,0,4,,,,,,,,,3,,,48,101
40160,note_on,1,0,3,,,,,,,,,2,,,60,114
40200,note_on,40,0,3,,,,,,,,,2,,,60,0
40200,note_on,0,0,4,,,,,,,,,3,,,43,101
40200,note_on,40,0,4,,,,,,,,,3,,,48,0
40200,note_on,0,0,3,,,,,,,,,2,,,55,114
40239,note_on,39,0,4,,,,,,,,,3,,,40,101
40239,note_on,39,0,3,,,,,,,,,2,,,52,114
40240,note_on,1,0,4,,,,,,,,,3,,,43,0
40240,note_on,1,0,3,,,,,,,,,2,,,55,0
40279,note_on,39,0,4,,,,,,,,,3,,,40,0
40279,note_on,39,0,3,,,,,,,,,2,,,52,0
40280,note_on,0,0,3,,,,,,,,,2,,,48,114
40280,control_change,1,0,3,,,,,,,,,2,64,0,,
40280,note_on,0,0,4,,,,,,,,,3,,,36,101
40280,control_change,1,0,4,,,,,,,,,3,64,0,,
40320,note_on,40,0,3,,,,,,,,,2,,,48,0
40320,control_change,0,0,3,,,,,,,,,2,64,127,,
40320,note_on,0,0,3,,,,,,,,,2,,,53,101
40320,note_on,0,0,4,,,,,,,,,3,,,41,88
40320,control_change,0,0,4,,,,,,,,,3,64,127,,
40320,note_on,40,0,4,,,,,,,,,3,,,36,0
40359,note_on,39,0,3,,,,,,,,,2,,,57,101
40359,note_on,39,0,4,,,,,,,,,3,,,45,88
40360,note_on,1,0,3,,,,,,,,,2,,,53,0
40360,note_on,1,0,4,,,,,,,,,3,,,41,0
40399,note_on,39,0,4,,,,,,,,,3,,,45,0
40399,note_on,39,0,3,,,,,,,,,2,,,57,0
40400,note_on,1,0,3,,,,,,,,,2,,,53,101
40400,note_on,1,0,4,,,,,,,,,3,,,41,88
40440,note_on,0,0,3,,,,,,,,,2,,,48,101
40440,note_on,40,0,3,,,,,,,,,2,,,53,0
40440,note_on,40,0,4,,,,,,,,,3,,,41,0
40440,note_on,0,0,4,,,,,,,,,3,,,36,88
40479,note_on,39,0,3,,,,,,,,,2,,,45,101
40479,note_on,39,0,4,,,,,,,,,3,,,33,88
40480,note_on,1,0,4,,,,,,,,,3,,,36,0
40480,note_on,1,0,3,,,,,,,,,2,,,48,0
40519,note_on,39,0,3,,,,,,,,,2,,,45,0
40519,note_on,39,0,4,,,,,,,,,3,,,33,0
40520,note_on,1,0,3,,,,,,,,,2,,,41,101
40520,note_on,1,0,4,,,,,,,,,3,,,29,88
40560,note_on,40,0,4,,,,,,,,,3,,,29,0
40560,note_on,0,0,4,,,,,,,,,3,,,33,62
40560,note_on,0,0,3,,,,,,,,,2,,,45,75
40560,note_on,40,0,3,,,,,,,,,2,,,41,0
40599,note_on,39,0,4,,,,,,,,,3,,,29,62
40599,note_on,39,0,3,,,,,,,,,2,,,41,75
40600,note_on,1,0,4,,,,,,,,,3,,,33,0
40600,note_on,1,0,3,,,,,,,,,2,,,45,0
40639,note_on,39,0,4,,,,,,,,,3,,,29,0
40639,note_on,39,0,3,,,,,,,,,2,,,41,0
40640,note_on,1,0,3,,,,,,,,,2,,,45,75
40640,note_on,1,0,4,,,,,,,,,3,,,33,62
40680,note_on,0,0,4,,,,,,,,,3,,,29,62
40680,note_on,0,0,3,,,,,,,,,2,,,41,75
40680,note_on,40,0,3,,,,,,,,,2,,,45,0
40680,note_on,40,0,4,,,,,,,,,3,,,33,0
40719,note_on,39,0,4,,,,,,,,,3,,,33,62
40719,note_on,39,0,3,,,,,,,,,2,,,45,75
40720,note_on,1,0,4,,,,,,,,,3,,,29,0
40720,note_on,1,0,3,,,,,,,,,2,,,41,0
40759,note_on,39,0,4,,,,,,,,,3,,,33,0
40759,note_on,39,0,3,,,,,,,,,2,,,45,0
40760,note_on,1,0,4,,,,,,,,,3,,,29,62
40760,note_on,1,0,3,,,,,,,,,2,,,41,75
40800,note_on,40,0,4,,,,,,,,,3,,,29,0
40800,note_on,0,0,4,,,,,,,,,3,,,45,49
40800,note_on,40,0,3,,,,,,,,,2,,,41,0
40800,note_on,0,0,3,,,,,,,,,2,,,57,62
40839,note_on,39,0,3,,,,,,,,,2,,,53,62
40839,note_on,39,0,4,,,,,,,,,3,,,41,49
40840,note_on,1,0,4,,,,,,,,,3,,,45,0
40840,note_on,1,0,3,,,,,,,,,2,,,57,0
40879,note_on,39,0,4,,,,,,,,,3,,,41,0
40879,note_on,39,0,3,,,,,,,,,2,,,53,0
40880,note_on,1,0,3,,,,,,,,,2,,,57,62
40880,note_on,1,0,4,,,,,,,,,3,,,45,49
40920,note_on,40,0,4,,,,,,,,,3,,,45,0
40920,note_on,40,0,3,,,,,,,,,2,,,57,0
40920,note_on,0,0,3,,,,,,,,,2,,,53,62
40920,note_on,0,0,4,,,,,,,,,3,,,41,49
40959,note_on,39,0,4,,,,,,,,,3,,,45,49
40959,note_on,39,0,3,,,,,,,,,2,,,57,62
40960,note_on,1,0,4,,,,,,,,,3,,,41,0
40960,note_on,1,0,3,,,,,,,,,2,,,53,0
40999,note_on,39,0,4,,,,,,,,,3,,,45,0
40999,note_on,39,0,3,,,,,,,,,2,,,57,0
41000,note_on,1,0,3,,,,,,,,,2,,,53,62
41000,note_on,1,0,4,,,,,,,,,3,,,41,49
41040,note_on,40,0,3,,,,,,,,,2,,,53,0
41040,note_on,0,0,4,,,,,,,,,3,,,45,49
41040,note_on,40,0,4,,,,,,,,,3,,,41,0
41040,note_on,0,0,3,,,,,,,,,2,,,57,62
41079,note_on,39,0,3,,,,,,,,,2,,,53,62
41079,note_on,39,0,4,,,,,,,,,3,,,41,49
41080,note_on,1,0,3,,,,,,,,,2,,,57,0
41080,note_on,1,0,4,,,,,,,,,3,,,45,0
41119,note_on,39,0,4,,,,,,,,,3,,,41,0
41119,note_on,39,0,3,,,,,,,,,2,,,53,0
41120,note_on,1,0,3,,,,,,,,,2,,,57,62
41120,note_on,1,0,4,,,,,,,,,3,,,45,49
41160,note_on,0,0,4,,,,,,,,,3,,,41,49
41160,note_on,40,0,3,,,,,,,,,2,,,57,0
41160,control_change,0,0,3,,,,,,,,,2,64,0,,
41160,note_on,0,0,3,,,,,,,,,2,,,53,62
41160,note_on,40,0,4,,,,,,,,,3,,,45,0
41160,control_change,0,0,4,,,,,,,,,3,64,0,,
41199,note_on,39,0,3,,,,,,,,,2,,,57,62
41199,note_on,39,0,4,,,,,,,,,3,,,45,49
41200,note_on,1,0,3,,,,,,,,,2,,,53,0
41200,note_on,1,0,4,,,,,,,,,3,,,41,0
41239,note_on,39,0,4,,,,,,,,,3,,,45,0
41239,note_on,39,0,3,,,,,,,,,2,,,57,0
41240,note_on,1,0,4,,,,,,,,,3,,,41,49
41240,note_on,1,0,3,,,,,,,,,2,,,53,62
41280,note_on,40,0,4,,,,,,,,,3,,,41,0
41280,note_on,40,0,3,,,,,,,,,2,,,53,0
41280,note_on,0,0,3,,,,,,,,,2,,,40,49
41280,note_on,1920,0,1,,,,,,,,,0,,,52,49
41319,note_on,39,0,1,,,,,,,,,0,,,54,49
41320,note_on,1,0,1,,,,,,,,,0,,,52,0
41340,note_on,60,0,3,,,,,,,,,2,,,40,0
41359,note_on,39,0,1,,,,,,,,,0,,,54,0
41360,note_on,1,0,1,,,,,,,,,0,,,56,49
41400,note_on,0,0,1,,,,,,,,,0,,,57,49
41400,note_on,40,0,1,,,,,,,,,0,,,56,0
41400,note_on,4140,0,2,,,,,,,,,1,,,73,49
41400,note_on,0,0,2,,,,,,,,,1,,,76,49
41439,note_on,39,0,1,,,,,,,,,0,,,59,49
41440,note_on,1,0,1,,,,,,,,,0,,,57,0
41479,note_on,39,0,1,,,,,,,,,0,,,59,0
41480,note_on,1,0,1,,,,,,,,,0,,,61,49
41490,note_on,0,0,2,,,,,,,,,1,,,76,49
41490,note_on,0,0,2,,,,,,,,,1,,,73,49
41490,note_on,0,0,2,,,,,,,,,1,,,73,0
41490,note_on,90,0,2,,,,,,,,,1,,,76,0
41520,note_on,0,0,2,,,,,,,,,1,,,74,49
41520,note_on,0,0,2,,,,,,,,,1,,,71,49
41520,note_on,0,0,2,,,,,,,,,1,,,73,0
41520,note_on,30,0,2,,,,,,,,,1,,,76,0
41520,note_on,0,0,1,,,,,,,,,0,,,62,49
41520,note_on,40,0,1,,,,,,,,,0,,,61,0
41559,note_on,39,0,1,,,,,,,,,0,,,64,49
41560,note_on,1,0,1,,,,,,,,,0,,,62,0
41580,note_on,0,0,2,,,,,,,,,1,,,71,0
41580,note_on,60,0,2,,,,,,,,,1,,,74,0
41599,note_on,39,0,1,,,,,,,,,0,,,64,0
41600,note_on,1,0,1,,,,,,,,,0,,,66,49
41640,note_on,300,0,3,,,,,,,,,2,,,52,49
41640,note_on,0,0,3,,,,,,,,,2,,,59,49
41640,note_on,40,0,1,,,,,,,,,0,,,66,0
41640,note_on,0,0,1,,,,,,,,,0,,,68,49
41679,note_on,39,0,1,,,,,,,,,0,,,69,49
41680,note_on,1,0,1,,,,,,,,,0,,,68,0
41700,note_on,0,0,3,,,,,,,,,2,,,52,0
41700,note_on,60,0,3,,,,,,,,,2,,,59,0
41719,note_on,39,0,1,,,,,,,,,0,,,69,0
41720,note_on,1,0,1,,,,,,,,,0,,,71,49
41760,note_on,0,0,1,,,,,,,,,0,,,73,49
41760,note_on,40,0,1,,,,,,,,,0,,,71,0
41760,note_on,0,0,3,,,,,,,,,2,,,57,49
41760,note_on,60,0,3,,,,,,,,,2,,,45,49
41760,note_on,0,0,3,,,,,,,,,2,,,49,49
41799,note_on,39,0,1,,,,,,,,,0,,,74,49
41800,note_on,1,0,1,,,,,,,,,0,,,73,0
41820,note_on,0,0,3,,,,,,,,,2,,,45,0
41820,note_on,0,0,3,,,,,,,,,2,,,49,0
41820,note_on,60,0,3,,,,,,,,,2,,,57,0
41839,note_on,39,0,1,,,,,,,,,0,,,74,0
41840,note_on,1,0,1,,,,,,,,,0,,,76,49
41880,note_on,300,0,2,,,,,,,,,1,,,73,49
41880,note_on,40,0,1,,,,,,,,,0,,,76,0
41880,note_on,0,0,2,,,,,,,,,1,,,76,49
41880,note_on,0,0,1,,,,,,,,,0,,,78,49
41919,note_on,39,0,1,,,,,,,,,0,,,80,49
41920,note_on,1,0,1,,,,,,,,,0,,,78,0
41959,note_on,39,0,1,,,,,,,,,0,,,80,0
41960,note_on,1,0,1,,,,,,,,,0,,,81,49
41970,note_on,0,0,2,,,,,,,,,1,,,76,49
41970,note_on,0,0,2,,,,,,,,,1,,,73,49
41970,note_on,0,0,2,,,,,,,,,1,,,73,0
41970,note_on,90,0,2,,,,,,,,,1,,,76,0
42000,note_on,0,0,2,,,,,,,,,1,,,74,49
42000,note_on,0,0,2,,,,,,,,,1,,,71,49
42000,note_on,0,0,2,,,,,,,,,1,,,73,0
42000,note_on,30,0,2,,,,,,,,,1,,,76,0
42000,note_on,40,0,1,,,,,,,,,0,,,81,0
42000,note_on,0,0,1,,,,,,,,,0,,,83,49
42039,note_on,39,0,1,,,,,,,,,0,,,85,49
42040,note_on,1,0,1,,,,,,,,,0,,,83,0
42060,note_on,0,0,2,,,,,,,,,1,,,71,0
42060,note_on,60,0,2,,,,,,,,,1,,,74,0
42079,note_on,39,0,1,,,,,,,,,0,,,85,0
42080,note_on,1,0,1,,,,,,,,,0,,,86,49
42120,note_on,0,0,1,,,,,,,,,0,,,88,49
42120,note_on,0,0,3,,,,,,,,,2,,,59,49
42120,note_on,300,0,3,,,,,,,,,2,,,52,49
42120,note_on,40,0,1,,,,,,,,,0,,,86,0
42159,note_on,39,0,1,,,,,,,,,0,,,90,49
42160,note_on,1,0,1,,,,,,,,,0,,,88,0
42180,note_on,0,0,3,,,,,,,,,2,,,52,0
42180,note_on,60,0,3,,,,,,,,,2,,,59,0
42199,note_on,39,0,1,,,,,,,,,0,,,90,0
42200,note_on,1,0,1,,,,,,,,,0,,,92,49
42240,note_on,0,0,1,,,,,,,,,0,,,93,49
42240,control_change,0,0,1,,,,,,,,,0,64,127,,
42240,note_on,40,0,1,,,,,,,,,0,,,92,0
42240,note_on,0,0,3,,,,,,,,,2,,,57,49
42240,note_on,0,0,3,,,,,,,,,2,,,49,49
42240,note_on,60,0,3,,,,,,,,,2,,,45,49
42279,note_on,39,0,1,,,,,,,,,0,,,92,49
42280,note_on,1,0,1,,,,,,,,,0,,,93,0
42300,note_on,0,0,3,,,,,,,,,2,,,45,0
42300,note_on,60,0,3,,,,,,,,,2,,,57,0
42300,note_on,0,0,3,,,,,,,,,2,,,49,0
42319,note_on,39,0,1,,,,,,,,,0,,,92,0
42320,note_on,1,0,1,,,,,,,,,0,,,90,49
42360,note_on,0,0,1,,,,,,,,,0,,,88,49
42360,note_on,40,0,1,,,,,,,,,0,,,90,0
42360,note_on,0,0,2,,,,,,,,,1,,,76,49
42360,note_on,300,0,2,,,,,,,,,1,,,73,49
42399,note_on,39,0,1,,,,,,,,,0,,,86,49
42400,note_on,1,0,1,,,,,,,,,0,,,88,0
42439,note_on,39,0,1,,,,,,,,,0,,,86,0
42440,note_on,1,0,1,,,,,,,,,0,,,85,49
42450,note_on,0,0,2,,,,,,,,,1,,,76,49
42450,note_on,0,0,2,,,,,,,,,1,,,73,49
42450,note_on,0,0,2,,,,,,,,,1,,,73,0
42450,note_on,90,0,2,,,,,,,,,1,,,76,0
42480,control_change,0,0,1,,,,,,,,,0,64,0,,
42480,note_on,0,0,1,,,,,,,,,0,,,83,49
42480,note_on,0,0,2,,,,,,,,,1,,,74,49
42480,note_on,0,0,2,,,,,,,,,1,,,71,49
42480,note_on,0,0,2,,,,,,,,,1,,,73,0
42480,note_on,30,0,2,,,,,,,,,1,,,76,0
42480,note_on,40,0,1,,,,,,,,,0,,,85,0
42519,note_on,39,0,1,,,,,,,,,0,,,81,49
42520,note_on,1,0,1,,,,,,,,,0,,,83,0
42540,note_on,0,0,2,,,,,,,,,1,,,71,0
42540,note_on,60,0,2,,,,,,,,,1,,,74,0
42559,note_on,39,0,1,,,,,,,,,0,,,81,0
42560,note_on,1,0,1,,,,,,,,,0,,,80,49
42600,note_on,300,0,3,,,,,,,,,2,,,52,49
42600,note_on,0,0,3,,,,,,,,,2,,,59,49
42600,note_on,0,0,1,,,,,,,,,0,,,78,49
42600,note_on,40,0,1,,,,,,,,,0,,,80,0
42639,note_on,39,0,1,,,,,,,,,0,,,76,49
42640,note_on,1,0,1,,,,,,,,,0,,,78,0
42660,note_on,60,0,3,,,,,,,,,2,,,59,0
42660,note_on,0,0,3,,,,,,,,,2,,,52,0
42679,note_on,39,0,1,,,,,,,,,0,,,76,0
42680,note_on,1,0,1,,,,,,,,,0,,,74,49
42720,note_on,0,0,3,,,,,,,,,2,,,57,49
42720,note_on,40,0,1,,,,,,,,,0,,,74,0
42720,note_on,0,0,3,,,,,,,,,2,,,49,49
42720,note_on,60,0,3,,,,,,,,,2,,,45,49
42720,note_on,0,0,1,,,,,,,,,0,,,73,49
42759,note_on,39,0,1,,,,,,,,,0,,,71,49
42760,note_on,1,0,1,,,,,,,,,0,,,73,0
42780,note_on,60,0,3,,,,,,,,,2,,,57,0
42780,note_on,0,0,3,,,,,,,,,2,,,45,0
42780,note_on,0,0,3,,,,,,,,,2,,,49,0
42799,note_on,39,0,1,,,,,,,,,0,,,71,0
42800,note_on,1,0,1,,,,,,,,,0,,,69,49
42840,note_on,300,0,2,,,,,,,,,1,,,73,49
42840,note_on,0,0,2,,,,,,,,,1,,,76,49
42840,note_on,40,0,1,,,,,,,,,0,,,69,0
42840,note_on,0,0,1,,,,,,,,,0,,,68,49
42879,note_on,39,0,1,,,,,,,,,0,,,66,49
42880,note_on,1,0,1,,,,,,,,,0,,,68,0
42919,note_on,39,0,1,,,,,,,,,0,,,66,0
42920,note_on,1,0,1,,,,,,,,,0,,,64,49
42930,note_on,0,0,2,,,,,,,,,1,,,73,49
42930,note_on,90,0,2,,,,,,,,,1,,,76,0
42930,note_on,0,0,2,,,,,,,,,1,,,73,0
42930,note_on,0,0,2,,,,,,,,,1,,,76,49
42960,note_on,0,0,2,,,,,,,,,1,,,74,49
42960,note_on,0,0,2,,,,,,,,,1,,,71,49
42960,note_on,0,0,2,,,,,,,,,1,,,73,0
42960,note_on,0,0,1,,,,,,,,,0,,,62,49
42960,note_on,40,0,1,,,,,,,,,0,,,64,0
42960,note_on,30,0,2,,,,,,,,,1,,,76,0
42999,note_on,39,0,1,,,,,,,,,0,,,66,49
43000,note_on,1,0,1,,,,,,,,,0,,,62,0
43020,note_on,0,0,2,,,,,,,,,1,,,71,0
43020,note_on,60,0,2,,,,,,,,,1,,,74,0
43039,note_on,39,0,1,,,,,,,,,0,,,66,0
43040,note_on,1,0,1,,,,,,,,,0,,,64,49
43080,note_on,300,0,3,,,,,,,,,2,,,40,49
43080,note_on,0,0,1,,,,,,,,,0,,,62,49
43080,note_on,40,0,1,,,,,,,,,0,,,64,0
43119,note_on,39,0,1,,,,,,,,,0,,,61,49
43120,note_on,1,0,1,,,,,,,,,0,,,62,0
43140,note_on,60,0,3,,,,,,,,,2,,,40,0
43159,note_on,39,0,1,,,,,,,,,0,,,61,0
43160,note_on,1,0,1,,,,,,,,,0,,,59,49
43200,control_change,0,0,1,,,,,,,,,0,64,127,,
43200,note_on,40,0,1,,,,,,,,,0,,,59,0
43200,note_on,0,0,1,,,,,,,,,0,,,57,49
43200,note_on,60,0,3,,,,,,,,,2,,,33,49
43239,note_on,39,0,1,,,,,,,,,0,,,61,49
43240,note_on,1,0,1,,,,,,,,,0,,,57,0
43279,note_on,39,0,1,,,,,,,,,0,,,61,0
43280,note_on,1,0,1,,,,,,,,,0,,,57,49
43320,note_on,40,0,1,,,,,,,,,0,,,57,0
43320,note_on,0,0,1,,,,,,,,,0,,,61,49
43359,note_on,39,0,1,,,,,,,,,0,,,69,49
43360,note_on,1,0,1,,,,,,,,,0,,,61,0
43399,note_on,39,0,1,,,,,,,,,0,,,69,0
43400,note_on,0,0,1,,,,,,,,,0,,,61,49
43400,control_change,1,0,1,,,,,,,,,0,64,0,,
43440,note_on,0,0,1,,,,,,,,,0,,,57,49
43440,note_on,40,0,1,,,,,,,,,0,,,61,0
43440,note_on,240,0,3,,,,,,,,,2,,,33,0
43440,note_on,0,0,3,,,,,,,,,2,,,45,49
43446,note_on,6,0,3,,,,,,,,,2,,,45,0
43479,note_on,39,0,1,,,,,,,,,0,,,61,49
43480,note_on,1,0,1,,,,,,,,,0,,,57,0
43500,note_on,54,0,3,,,,,,,,,2,,,45,49
43506,note_on,6,0,3,,,,,,,,,2,,,45,0
43519,note_on,39,0,1,,,,,,,,,0,,,61,0
43520,note_on,1,0,1,,,,,,,,,0,,,57,49
43560,note_on,40,0,1,,,,,,,,,0,,,57,0
43560,note_on,54,0,3,,,,,,,,,2,,,45,49
43560,note_on,0,0,1,,,,,,,,,0,,,61,49
43566,note_on,6,0,3,,,,,,,,,2,,,45,0
43599,note_on,39,0,1,,,,,,,,,0,,,69,49
43600,note_on,1,0,1,,,,,,,,,0,,,61,0
43620,note_on,54,0,3,,,,,,,,,2,,,45,49
43626,note_on,6,0,3,,,,,,,,,2,,,45,0
43639,note_on,39,0,1,,,,,,,,,0,,,69,0
43640,note_on,1,0,1,,,,,,,,,0,,,61,49
43680,note_on,54,0,3,,,,,,,,,2,,,45,49
43680,note_on,40,0,1,,,,,,,,,0,,,61,0
43680,control_change,0,0,1,,,,,,,,,0,64,127,,
43680,note_on,0,0,1,,,,,,,,,0,,,61,62
43719,note_on,39,0,1,,,,,,,,,0,,,69,62
43720,note_on,1,0,1,,,,,,,,,0,,,61,0
43759,note_on,39,0,1,,,,,,,,,0,,,69,0
43760,note_on,1,0,1,,,,,,,,,0,,,61,62
43800,note_on,120,0,3,,,,,,,,,2,,,45,0
43800,note_on,40,0,1,,,,,,,,,0,,,61,0
43800,note_on,0,0,1,,,,,,,,,0,,,69,62
43800,note_on,0,0,3,,,,,,,,,2,,,55,49
43839,note_on,39,0,1,,,,,,,,,0,,,73,62
43840,note_on,1,0,1,,,,,,,,,0,,,69,0
43860,note_on,60,0,3,,,,,,,,,2,,,55,0
43879,note_on,39,0,1,,,,,,,,,0,,,73,0
43880,note_on,0,0,1,,,,,,,,,0,,,69,62
43880,control_change,1,0,1,,,,,,,,,0,64,0,,
43920,note_on,60,0,3,,,,,,,,,2,,,45,49
43920,note_on,0,0,1,,,,,,,,,0,,,61,62
43920,note_on,40,0,1,,,,,,,,,0,,,69,0
43926,note_on,6,0,3,,,,,,,,,2,,,45,0
43959,note_on,39,0,1,,,,,,,,,0,,,69,62
43960,note_on,1,0,1,,,,,,,,,0,,,61,0
43980,note_on,54,0,3,,,,,,,,,2,,,45,49
43986,note_on,6,0,3,,,,,,,,,2,,,45,0
43999,note_on,39,0,1,,,,,,,,,0,,,69,0
44000,note_on,1,0,1,,,,,,,,,0,,,61,62
44040,note_on,54,0,3,,,,,,,,,2,,,45,49
44040,note_on,0,0,1,,,,,,,,,0,,,69,62
44040,note_on,40,0,1,,,,,,,,,0,,,61,0
44046,note_on,6,0,3,,,,,,,,,2,,,45,0
44079,note_on,39,0,1,,,,,,,,,0,,,73,62
44080,note_on,1,0,1,,,,,,,,,0,,,69,0
44100,note_on,54,0,3,,,,,,,,,2,,,45,49
44106,note_on,6,0,3,,,,,,,,,2,,,45,0
44119,note_on,39,0,1,,,,,,,,,0,,,73,0
44120,note_on,1,0,1,,,,,,,,,0,,,69,62
44160,note_on,40,0,1,,,,,,,,,0,,,69,0
44160,control_change,0,0,1,,,,,,,,,0,64,127,,
44160,note_on,0,0,1,,,,,,,,,0,,,64,75
44160,note_on,54,0,3,,,,,,,,,2,,,45,62
44199,note_on,39,0,1,,,,,,,,,0,,,73,75
44200,note_on,1,0,1,,,,,,,,,0,,,64,0
44239,note_on,39,0,1,,,,,,,,,0,,,73,0
44240,note_on,1,0,1,,,,,,,,,0,,,64,75
44280,note_on,0,0,1,,,,,,,,,0,,,73,75
44280,note_on,40,0,1,,,,,,,,,0,,,64,0
44280,note_on,0,0,3,,,,,,,,,2,,,55,62
44280,note_on,120,0,3,,,,,,,,,2,,,45,0
44319,note_on,39,0,1,,,,,,,,,0,,,76,75
44320,note_on,1,0,1,,,,,,,,,0,,,73,0
44340,note_on,60,0,3,,,,,,,,,2,,,55,0
44359,note_on,39,0,1,,,,,,,,,0,,,76,0
44360,note_on,0,0,1,,,,,,,,,0,,,73,75
44360,control_change,1,0,1,,,,,,,,,0,64,0,,
44400,note_on,60,0,3,,,,,,,,,2,,,57,62
44400,note_on,40,0,1,,,,,,,,,0,,,73,0
44400,control_change,0,0,1,,,,,,,,,0,64,127,,
44400,note_on,0,0,1,,,,,,,,,0,,,64,75
44439,note_on,39,0,1,,,,,,,,,0,,,73,75
44440,note_on,1,0,1,,,,,,,,,0,,,64,0
44479,note_on,39,0,1,,,,,,,,,0,,,73,0
44480,note_on,1,0,1,,,,,,,,,0,,,64,75
44520,note_on,0,0,3,,,,,,,,,2,,,67,62
44520,note_on,120,0,3,,,,,,,,,2,,,57,0
44520,note_on,0,0,1,,,,,,,,,0,,,73,75
44520,note_on,40,0,1,,,,,,,,,0,,,64,0
44559,note_on,39,0,1,,,,,,,,,0,,,76,75
44560,note_on,1,0,1,,,,,,,,,0,,,73,0
44580,note_on,60,0,3,,,,,,,,,2,,,67,0
44599,note_on,39,0,1,,,,,,,,,0,,,76,0
44600,note_on,0,0,1,,,,,,,,,0,,,73,75
44600,control_change,1,0,1,,,,,,,,,0,64,0,,
44640,note_on,40,0,1,,,,,,,,,0,,,73,0
44640,control_change,0,0,1,,,,,,,,,0,64,127,,
44640,note_on,60,0,3,,,,,,,,,2,,,57,75
44640,note_on,0,0,1,,,,,,,,,0,,,69,88
44679,note_on,39,0,1,,,,,,,,,0,,,73,88
44680,note_on,1,0,1,,,,,,,,,0,,,69,0
44719,note_on,39,0,1,,,,,,,,,0,,,73,0
44720,note_on,1,0,1,,,,,,,,,0,,,69,88
44760,note_on,0,0,3,,,,,,,,,2,,,67,75
44760,note_on,120,0,3,,,,,,,,,2,,,57,0
44760,note_on,40,0,1,,,,,,,,,0,,,69,0
44760,note_on,0,0,1,,,,,,,,,0,,,73,88
44799,note_on,39,0,1,,,,,,,,,0,,,81,88
44800,note_on,1,0,1,,,,,,,,,0,,,73,0
44820,note_on,60,0,3,,,,,,,,,2,,,67,0
44839,note_on,39,0,1,,,,,,,,,0,,,81,0
44840,control_change,1,0,1,,,,,,,,,0,64,0,,
44840,note_on,0,0,1,,,,,,,,,0,,,73,88
44880,control_change,0,0,1,,,,,,,,,0,64,127,,
44880,note_on,60,0,3,,,,,,,,,2,,,57,75
44880,note_on,0,0,1,,,,,,,,,0,,,73,88
44880,note_on,40,0,1,,,,,,,,,0,,,73,0
44919,note_on,39,0,1,,,,,,,,,0,,,81,88
44920,note_on,1,0,1,,,,,,,,,0,,,73,0
44959,note_on,39,0,1,,,,,,,,,0,,,81,0
44960,note_on,1,0,1,,,,,,,,,0,,,73,88
45000,note_on,0,0,1,,,,,,,,,0,,,81,88
45000,note_on,120,0,3,,,,,,,,,2,,,57,0
45000,note_on,0,0,3,,,,,,,,,2,,,67,75
45000,note_on,40,0,1,,,,,,,,,0,,,73,0
45039,note_on,39,0,1,,,,,,,,,0,,,85,88
45040,note_on,1,0,1,,,,,,,,,0,,,81,0
45060,note_on,60,0,3,,,,,,,,,2,,,67,0
45079,note_on,39,0,1,,,,,,,,,0,,,85,0
45080,note_on,0,0,1,,,,,,,,,0,,,81,88
45080,control_change,1,0,1,,,,,,,,,0,64,0,,
45120,note_on,0,0,3,,,,,,,,,2,,,50,75
45120,note_on,60,0,3,,,,,,,,,2,,,38,75
45120,note_on,0,0,1,,,,,,,,,0,,,86,88
45120,note_on,0,0,1,,,,,,,,,0,,,81,88
45120,note_on,0,0,1,,,,,,,,,0,,,78,88
45120,note_on,0,0,1,,,,,,,,,0,,,74,88
45120,note_on,40,0,1,,,,,,,,,0,,,81,0
45360,note_on,0,0,3,,,,,,,,,2,,,50,75
45360,note_on,0,0,3,,,,,,,,,2,,,42,75
45360,note_on,0,0,3,,,,,,,,,2,,,38,0
45360,note_on,240,0,3,,,,,,,,,2,,,50,0
45360,note_on,240,0,1,,,,,,,,,0,,,86,0
45360,note_on,0,0,1,,,,,,,,,0,,,62,88
45360,note_on,0,0,1,,,,,,,,,0,,,57,88
45360,note_on,0,0,1,,,,,,,,,0,,,74,0
45360,note_on,0,0,1,,,,,,,,,0,,,78,0
45360,note_on,0,0,1,,,,,,,,,0,,,81,0
45366,note_on,0,0,1,,,,,,,,,0,,,57,0
45366,note_on,6,0,1,,,,,,,,,0,,,62,0
45366,note_on,6,0,3,,,,,,,,,2,,,50,0
45366,note_on,0,0,3,,,,,,,,,2,,,42,0
45420,note_on,0,0,1,,,,,,,,,0,,,62,88
45420,note_on,54,0,1,,,,,,,,,0,,,57,88
45420,note_on,54,0,3,,,,,,,,,2,,,42,75
45420,note_on,0,0,3,,,,,,,,,2,,,50,75
45426,note_on,0,0,1,,,,,,,,,0,,,57,0
45426,note_on,6,0,1,,,,,,,,,0,,,62,0
45426,note_on,6,0,3,,,,,,,,,2,,,50,0
45426,note_on,0,0,3,,,,,,,,,2,,,42,0
45480,note_on,54,0,1,,,,,,,,,0,,,57,88
45480,note_on,0,0,3,,,,,,,,,2,,,50,75
45480,note_on,0,0,1,,,,,,,,,0,,,62,88
45480,note_on,54,0,3,,,,,,,,,2,,,42,75
45486,note_on,6,0,3,,,,,,,,,2,,,50,0
45486,note_on,6,0,1,,,,,,,,,0,,,62,0
45486,note_on,0,0,1,,,,,,,,,0,,,57,0
45486,note_on,0,0,3,,,,,,,,,2,,,42,0
45540,note_on,54,0,3,,,,,,,,,2,,,42,75
45540,note_on,0,0,3,,,,,,,,,2,,,50,75
45540,note_on,54,0,1,,,,,,,,,0,,,57,88
45540,note_on,0,0,1,,,,,,,,,0,,,62,88
45546,note_on,6,0,3,,,,,,,,,2,,,50,0
45546,note_on,0,0,3,,,,,,,,,2,,,42,0
45546,note_on,6,0,1,,,,,,,,,0,,,62,0
45546,note_on,0,0,1,,,,,,,,,0,,,57,0
45600,note_on,0,0,3,,,,,,,,,2,,,50,75
45600,note_on,54,0,3,,,,,,,,,2,,,42,75
45600,note_on,54,0,1,,,,,,,,,0,,,57,88
45600,note_on,0,0,1,,,,,,,,,0,,,62,88
45720,note_on,0,0,1,,,,,,,,,0,,,64,88
45720,note_on,0,0,1,,,,,,,,,0,,,59,88
45720,note_on,120,0,1,,,,,,,,,0,,,57,0
45720,note_on,0,0,3,,,,,,,,,2,,,52,75
45720,note_on,0,0,3,,,,,,,,,2,,,43,75
45720,note_on,120,0,3,,,,,,,,,2,,,42,0
45780,note_on,0,0,1,,,,,,,,,0,,,59,0
45780,note_on,60,0,1,,,,,,,,,0,,,64,0
45780,note_on,0,0,3,,,,,,,,,2,,,50,0
45780,note_on,0,0,3,,,,,,,,,2,,,43,0
45780,note_on,60,0,3,,,,,,,,,2,,,52,0
45780,note_on,0,0,1,,,,,,,,,0,,,62,0
45840,note_on,0,0,3,,,,,,,,,2,,,50,75
45840,note_on,0,0,3,,,,,,,,,2,,,54,75
45840,note_on,0,0,1,,,,,,,,,0,,,66,88
45840,note_on,0,0,1,,,,,,,,,0,,,62,88
45840,note_on,60,0,1,,,,,,,,,0,,,60,88
45840,note_on,60,0,3,,,,,,,,,2,,,45,75
45846,note_on,0,0,3,,,,,,,,,2,,,45,0
45846,note_on,6,0,3,,,,,,,,,2,,,54,0
45846,note_on,0,0,3,,,,,,,,,2,,,50,0
45846,note_on,0,0,1,,,,,,,,,0,,,62,0
45846,note_on,6,0,1,,,,,,,,,0,,,66,0
45846,note_on,0,0,1,,,,,,,,,0,,,60,0
45900,note_on,0,0,1,,,,,,,,,0,,,66,88
45900,note_on,0,0,1,,,,,,,,,0,,,62,88
45900,note_on,54,0,3,,,,,,,,,2,,,45,75
45900,note_on,0,0,3,,,,,,,,,2,,,50,75
45900,note_on,0,0,3,,,,,,,,,2,,,54,75
45900,note_on,54,0,1,,,,,,,,,0,,,60,88
45906,note_on,0,0,3,,,,,,,,,2,,,50,0
45906,note_on,6,0,3,,,,,,,,,2,,,54,0
45906,note_on,0,0,1,,,,,,,,,0,,,62,0
45906,note_on,6,0,1,,,,,,,,,0,,,66,0
45906,note_on,0,0,1,,,,,,,,,0,,,60,0
45906,note_on,0,0,3,,,,,,,,,2,,,45,0
45960,note_on,54,0,3,,,,,,,,,2,,,45,75
45960,note_on,0,0,3,,,,,,,,,2,,,54,75
45960,note_on,0,0,3,,,,,,,,,2,,,50,75
45960,note_on,0,0,1,,,,,,,,,0,,,66,88
45960,note_on,0,0,1,,,,,,,,,0,,,62,88
45960,note_on,54,0,1,,,,,,,,,0,,,60,88
45966,note_on,0,0,3,,,,,,,,,2,,,45,0
45966,note_on,0,0,3,,,,,,,,,2,,,50,0
45966,note_on,6,0,3,,,,,,,,,2,,,54,0
45966,note_on,6,0,1,,,,,,,,,0,,,66,0
45966,note_on,0,0,1,,,,,,,,,0,,,62,0
45966,note_on,0,0,1,,,,,,,,,0,,,60,0
46020,note_on,0,0,1,,,,,,,,,0,,,62,88
46020,note_on,0,0,3,,,,,,,,,2,,,54,75
46020,note_on,0,0,3,,,,,,,,,2,,,50,75
46020,note_on,54,0,3,,,,,,,,,2,,,45,75
46020,note_on,0,0,1,,,,,,,,,0,,,66,88
46020,note_on,54,0,1,,,,,,,,,0,,,60,88
46026,note_on,0,0,3,,,,,,,,,2,,,45,0
46026,note_on,0,0,1,,,,,,,,,0,,,62,0
46026,note_on,6,0,3,,,,,,,,,2,,,54,0
46026,note_on,0,0,1,,,,,,,,,0,,,60,0
46026,note_on,0,0,3,,,,,,,,,2,,,50,0
46026,note_on,6,0,1,,,,,,,,,0,,,66,0
46080,note_on,0,0,3,,,,,,,,,2,,,54,75
46080,note_on,0,0,3,,,,,,,,,2,,,50,75
46080,note_on,54,0,3,,,,,,,,,2,,,45,75
46080,note_on,0,0,1,,,,,,,,,0,,,66,88
46080,note_on,0,0,1,,,,,,,,,0,,,62,88
46080,note_on,54,0,1,,,,,,,,,0,,,60,88
46200,note_on,0,0,3,,,,,,,,,2,,,55,75
46200,note_on,0,0,3,,,,,,,,,2,,,45,0
46200,note_on,120,0,3,,,,,,,,,2,,,54,0
46200,note_on,0,0,3,,,,,,,,,2,,,47,75
46200,note_on,120,0,1,,,,,,,,,0,,,66,0
46200,note_on,0,0,1,,,,,,,,,0,,,60,0
46200,note_on,0,0,1,,,,,,,,,0,,,59,88
46200,note_on,0,0,1,,,,,,,,,0,,,67,88
46260,note_on,0,0,1,,,,,,,,,0,,,64,88
46260,note_on,0,0,3,,,,,,,,,2,,,50,0
46260,note_on,0,0,3,,,,,,,,,2,,,47,0
46260,note_on,0,0,3,,,,,,,,,2,,,52,75
46260,note_on,0,0,1,,,,,,,,,0,,,59,0
46260,note_on,60,0,1,,,,,,,,,0,,,67,0
46260,note_on,60,0,3,,,,,,,,,2,,,55,0
46260,note_on,0,0,1,,,,,,,,,0,,,62,0
46320,note_on,60,0,1,,,,,,,,,0,,,64,0
46320,note_on,60,0,3,,,,,,,,,2,,,52,0
46320,note_on,0,0,3,,,,,,,,,2,,,55,75
46320,note_on,0,0,1,,,,,,,,,0,,,67,88
46359,note_on,39,0,3,,,,,,,,,2,,,54,75
46359,note_on,39,0,1,,,,,,,,,0,,,66,88
46360,note_on,1,0,3,,,,,,,,,2,,,55,0
46360,note_on,1,0,1,,,,,,,,,0,,,67,0
46399,note_on,39,0,1,,,,,,,,,0,,,66,0
46399,note_on,39,0,3,,,,,,,,,2,,,54,0
46400,note_on,1,0,1,,,,,,,,,0,,,64,88
46400,note_on,1,0,3,,,,,,,,,2,,,52,75
46440,note_on,0,0,3,,,,,,,,,2,,,58,75
46440,note_on,40,0,3,,,,,,,,,2,,,52,0
46440,note_on,40,0,1,,,,,,,,,0,,,64,0
46440,note_on,0,0,1,,,,,,,,,0,,,70,88
46479,note_on,39,0,3,,,,,,,,,2,,,57,75
46479,note_on,39,0,1,,,,,,,,,0,,,69,88
46480,note_on,1,0,3,,,,,,,,,2,,,58,0
46480,note_on,1,0,1,,,,,,,,,0,,,70,0
46519,note_on,39,0,1,,,,,,,,,0,,,69,0
46519,note_on,39,0,3,,,,,,,,,2,,,57,0
46520,note_on,1,0,3,,,,,,,,,2,,,55,75
46520,note_on,1,0,1,,,,,,,,,0,,,67,88
46560,note_on,40,0,1,,,,,,,,,0,,,67,0
46560,note_on,40,0,3,,,,,,,,,2,,,55,0
46560,note_on,0,0,3,,,,,,,,,2,,,57,75
46560,note_on,0,0,1,,,,,,,,,0,,,69,88
46620,note_on,60,0,3,,,,,,,,,2,,,57,0
46620,note_on,60,0,1,,,,,,,,,0,,,69,0
46680,note_on,60,0,3,,,,,,,,,2,,,62,36
46680,note_on,60,0,1,,,,,,,,,0,,,78,49
46719,note_on,39,0,1,,,,,,,,,0,,,76,49
46719,note_on,39,0,3,,,,,,,,,2,,,64,36
46720,note_on,1,0,1,,,,,,,,,0,,,78,0
46720,note_on,1,0,3,,,,,,,,,2,,,62,0
46759,note_on,39,0,3,,,,,,,,,2,,,64,0
46759,note_on,39,0,1,,,,,,,,,0,,,76,0
46760,note_on,1,0,1,,,,,,,,,0,,,74,49
46760,note_on,1,0,3,,,,,,,,,2,,,66,36
46800,note_on,0,0,1,,,,,,,,,0,,,81,49
46800,note_on,40,0,1,,,,,,,,,0,,,74,0
46800,note_on,40,0,3,,,,,,,,,2,,,66,0
46800,note_on,0,0,3,,,,,,,,,2,,,57,36
46839,note_on,39,0,1,,,,,,,,,0,,,79,49
46839,note_on,39,0,3,,,,,,,,,2,,,61,36
46840,note_on,1,0,1,,,,,,,,,0,,,81,0
46840,note_on,1,0,3,,,,,,,,,2,,,57,0
46879,note_on,39,0,1,,,,,,,,,0,,,79,0
46879,note_on,39,0,3,,,,,,,,,2,,,61,0
46880,note_on,1,0,3,,,,,,,,,2,,,62,36
46880,note_on,1,0,1,,,,,,,,,0,,,78,49
46920,note_on,40,0,3,,,,,,,,,2,,,62,0
46920,note_on,40,0,1,,,,,,,,,0,,,78,0
46920,note_on,0,0,1,,,,,,,,,0,,,76,49
46920,note_on,0,0,3,,,,,,,,,2,,,64,36
46959,note_on,39,0,1,,,,,,,,,0,,,74,49
46959,note_on,39,0,3,,,,,,,,,2,,,66,36
46960,note_on,1,0,3,,,,,,,,,2,,,64,0
46960,note_on,1,0,1,,,,,,,,,0,,,76,0
46999,note_on,39,0,3,,,,,,,,,2,,,66,0
46999,note_on,39,0,1,,,,,,,,,0,,,74,0
47000,note_on,1,0,1,,,,,,,,,0,,,73,49
47000,note_on,1,0,3,,,,,,,,,2,,,67,36
47040,note_on,0,0,3,,,,,,,,,2,,,50,75
47040,note_on,0,0,3,,,,,,,,,2,,,38,75
47040,note_on,40,0,1,,,,,,,,,0,,,73,0
47040,note_on,0,0,1,,,,,,,,,0,,,74,88
47040,note_on,0,0,1,,,,,,,,,0,,,78,88
47040,note_on,0,0,1,,,,,,,,,0,,,81,88
47040,note_on,0,0,1,,,,,,,,,0,,,86,88
47040,note_on,40,0,3,,,,,,,,,2,,,67,0
47280,note_on,0,0,3,,,,,,,,,2,,,38,0
47280,note_on,240,0,3,,,,,,,,,2,,,50,0
47280,note_on,0,0,3,,,,,,,,,2,,,41,75
47280,note_on,0,0,3,,,,,,,,,2,,,50,75
47280,note_on,0,0,1,,,,,,,,,0,,,81,0
47280,note_on,240,0,1,,,,,,,,,0,,,86,0
47280,note_on,0,0,1,,,,,,,,,0,,,74,0
47280,note_on,0,0,1,,,,,,,,,0,,,78,0
47280,note_on,0,0,1,,,,,,,,,0,,,57,88
47280,note_on,0,0,1,,,,,,,,,0,,,62,88
47286,note_on,6,0,3,,,,,,,,,2,,,50,0
47286,note_on,6,0,1,,,,,,,,,0,,,62,0
47286,note_on,0,0,1,,,,,,,,,0,,,57,0
47286,note_on,0,0,3,,,,,,,,,2,,,41,0
47340,note_on,0,0,1,,,,,,,,,0,,,62,88
47340,note_on,54,0,1,,,,,,,,,0,,,57,88
47340,note_on,54,0,3,,,,,,,,,2,,,41,75
47340,note_on,0,0,3,,,,,,,,,2,,,50,75
47346,note_on,0,0,1,,,,,,,,,0,,,57,0
47346,note_on,6,0,1,,,,,,,,,0,,,62,0
47346,note_on,6,0,3,,,,,,,,,2,,,50,0
47346,note_on,0,0,3,,,,,,,,,2,,,41,0
47400,note_on,0,0,1,,,,,,,,,0,,,62,88
47400,note_on,54,0,1,,,,,,,,,0,,,57,88
47400,note_on,54,0,3,,,,,,,,,2,,,41,75
47400,note_on,0,0,3,,,,,,,,,2,,,50,75
47406,note_on,6,0,1,,,,,,,,,0,,,62,0
47406,note_on,6,0,3,,,,,,,,,2,,,50,0
47406,note_on,0,0,3,,,,,,,,,2,,,41,0
47406,note_on,0,0,1,,,,,,,,,0,,,57,0
47460,note_on,54,0,3,,,,,,,,,2,,,41,75
47460,note_on,54,0,1,,,,,,,,,0,,,57,88
47460,note_on,0,0,3,,,,,,,,,2,,,50,75
47460,note_on,0,0,1,,,,,,,,,0,,,62,88
47466,note_on,6,0,1,,,,,,,,,0,,,62,0
47466,note_on,0,0,1,,,,,,,,,0,,,57,0
47466,note_on,6,0,3,,,,,,,,,2,,,50,0
47466,note_on,0,0,3,,,,,,,,,2,,,41,0
47520,note_on,0,0,1,,,,,,,,,0,,,62,88
47520,note_on,0,0,3,,,,,,,,,2,,,50,75
47520,note_on,54,0,3,,,,,,,,,2,,,41,75
47520,note_on,54,0,1,,,,,,,,,0,,,57,88
47640,note_on,120,0,1,,,,,,,,,0,,,57,0
47640,note_on,0,0,1,,,,,,,,,0,,,58,88
47640,note_on,0,0,3,,,,,,,,,2,,,52,75
47640,note_on,0,0,3,,,,,,,,,2,,,43,75
47640,note_on,120,0,3,,,,,,,,,2,,,41,0
47640,note_on,0,0,1,,,,,,,,,0,,,64,88
47700,note_on,60,0,1,,,,,,,,,0,,,64,0
47700,note_on,0,0,3,,,,,,,,,2,,,43,0
47700,note_on,0,0,3,,,,,,,,,2,,,50,0
47700,note_on,0,0,1,,,,,,,,,0,,,62,0
47700,note_on,0,0,1,,,,,,,,,0,,,58,0
47700,note_on,60,0,3,,,,,,,,,2,,,52,0
47760,note_on,0,0,3,,,,,,,,,2,,,54,75
47760,note_on,60,0,3,,,,,,,,,2,,,45,75
47760,note_on,0,0,3,,,,,,,,,2,,,50,75
47760,note_on,0,0,1,,,,,,,,,0,,,66,88
47760,note_on,0,0,1,,,,,,,,,0,,,62,88
47760,note_on,60,0,1,,,,,,,,,0,,,60,88
47766,note_on,6,0,3,,,,,,,,,2,,,54,0
47766,note_on,0,0,3,,,,,,,,,2,,,45,0
47766,note_on,0,0,1,,,,,,,,,0,,,60,0
47766,note_on,0,0,1,,,,,,,,,0,,,62,0
47766,note_on,6,0,1,,,,,,,,,0,,,66,0
47766,note_on,0,0,3,,,,,,,,,2,,,50,0
47820,note_on,54,0,3,,,,,,,,,2,,,45,75
47820,note_on,0,0,3,,,,,,,,,2,,,50,75
47820,note_on,0,0,3,,,,,,,,,2,,,54,75
47820,note_on,0,0,1,,,,,,,,,0,,,66,88
47820,note_on,0,0,1,,,,,,,,,0,,,62,88
47820,note_on,54,0,1,,,,,,,,,0,,,60,88
47826,note_on,0,0,1,,,,,,,,,0,,,62,0
47826,note_on,0,0,1,,,,,,,,,0,,,60,0
47826,note_on,6,0,3,,,,,,,,,2,,,54,0
47826,note_on,6,0,1,,,,,,,,,0,,,66,0
47826,note_on,0,0,3,,,,,,,,,2,,,45,0
47826,note_on,0,0,3,,,,,,,,,2,,,50,0
47880,note_on,54,0,3,,,,,,,,,2,,,45,75
47880,note_on,54,0,1,,,,,,,,,0,,,60,88
47880,note_on,0,0,1,,,,,,,,,0,,,62,88
47880,note_on,0,0,1,,,,,,,,,0,,,66,88
47880,note_on,0,0,3,,,,,,,,,2,,,54,75
47880,note_on,0,0,3,,,,,,,,,2,,,50,75
47886,note_on,6,0,3,,,,,,,,,2,,,54,0
47886,note_on,0,0,3,,,,,,,,,2,,,50,0
47886,note_on,0,0,1,,,,,,,,,0,,,60,0
47886,note_on,0,0,1,,,,,,,,,0,,,62,0
47886,note_on,0,0,3,,,,,,,,,2,,,45,0
47886,note_on,6,0,1,,,,,,,,,0,,,66,0
47940,note_on,54,0,3,,,,,,,,,2,,,45,75
47940,note_on,54,0,1,,,,,,,,,0,,,60,88
47940,note_on,0,0,1,,,,,,,,,0,,,62,88
47940,note_on,0,0,1,,,,,,,,,0,,,66,88
47940,note_on,0,0,3,,,,,,,,,2,,,50,75
47940,note_on,0,0,3,,,,,,,,,2,,,54,75
47946,note_on,0,0,1,,,,,,,,,0,,,62,0
47946,note_on,6,0,1,,,,,,,,,0,,,66,0
47946,note_on,0,0,1,,,,,,,,,0,,,60,0
47946,note_on,6,0,3,,,,,,,,,2,,,54,0
47946,note_on,0,0,3,,,,,,,,,2,,,45,0
47946,note_on,0,0,3,,,,,,,,,2,,,50,0
48000,note_on,54,0,3,,,,,,,,,2,,,45,75
48000,note_on,54,0,1,,,,,,,,,0,,,60,88
48000,note_on,0,0,3,,,,,,,,,2,,,54,75
48000,note_on,0,0,3,,,,,,,,,2,,,50,75
48000,note_on,0,0,1,,,,,,,,,0,,,66,88
48000,note_on,0,0,1,,,,,,,,,0,,,62,88
48120,note_on,0,0,1,,,,,,,,,0,,,60,0
48120,note_on,0,0,3,,,,,,,,,2,,,55,75
48120,note_on,0,0,1,,,,,,,,,0,,,58,88
48120,note_on,120,0,3,,,,,,,,,2,,,54,0
48120,note_on,120,0,1,,,,,,,,,0,,,66,0
48120,note_on,0,0,1,,,,,,,,,0,,,67,88
48120,note_on,0,0,3,,,,,,,,,2,,,46,75
48120,note_on,0,0,3,,,,,,,,,2,,,45,0
48180,note_on,60,0,3,,,,,,,,,2,,,55,0
48180,note_on,0,0,3,,,,,,,,,2,,,46,0
48180,note_on,0,0,3,,,,,,,,,2,,,50,0
48180,note_on,60,0,1,,,,,,,,,0,,,67,0
48180,note_on,0,0,1,,,,,,,,,0,,,62,0
48180,note_on,0,0,1,,,,,,,,,0,,,58,0
48240,note_on,0,0,1,,,,,,,,,0,,,68,88
48240,note_on,0,0,1,,,,,,,,,0,,,65,88
48240,note_on,60,0,1,,,,,,,,,0,,,62,88
48240,note_on,0,0,3,,,,,,,,,2,,,53,75
48240,note_on,0,0,3,,,,,,,,,2,,,56,75
48240,note_on,60,0,3,,,,,,,,,2,,,47,75
48246,note_on,6,0,1,,,,,,,,,0,,,68,0
48246,note_on,0,0,3,,,,,,,,,2,,,47,0
48246,note_on,0,0,3,,,,,,,,,2,,,53,0
48246,note_on,6,0,3,,,,,,,,,2,,,56,0
48246,note_on,0,0,1,,,,,,,,,0,,,62,0
48246,note_on,0,0,1,,,,,,,,,0,,,65,0
48300,note_on,0,0,3,,,,,,,,,2,,,53,75
48300,note_on,0,0,1,,,,,,,,,0,,,68,88
48300,note_on,0,0,1,,,,,,,,,0,,,65,88
48300,note_on,54,0,1,,,,,,,,,0,,,62,88
48300,note_on,54,0,3,,,,,,,,,2,,,47,75
48300,note_on,0,0,3,,,,,,,,,2,,,56,75
48306,note_on,6,0,1,,,,,,,,,0,,,68,0
48306,note_on,0,0,1,,,,,,,,,0,,,62,0
48306,note_on,0,0,3,,,,,,,,,2,,,47,0
48306,note_on,0,0,3,,,,,,,,,2,,,53,0
48306,note_on,6,0,3,,,,,,,,,2,,,56,0
48306,note_on,0,0,1,,,,,,,,,0,,,65,0
48360,note_on,0,0,1,,,,,,,,,0,,,68,88
48360,note_on,0,0,1,,,,,,,,,0,,,65,88
48360,note_on,54,0,1,,,,,,,,,0,,,62,88
48360,note_on,0,0,3,,,,,,,,,2,,,53,75
48360,note_on,54,0,3,,,,,,,,,2,,,47,75
48360,note_on,0,0,3,,,,,,,,,2,,,56,75
48366,note_on,0,0,1,,,,,,,,,0,,,62,0
48366,note_on,6,0,3,,,,,,,,,2,,,56,0
48366,note_on,0,0,3,,,,,,,,,2,,,47,0
48366,note_on,0,0,3,,,,,,,,,2,,,53,0
48366,note_on,0,0,1,,,,,,,,,0,,,65,0
48366,note_on,6,0,1,,,,,,,,,0,,,68,0
48420,note_on,0,0,3,,,,,,,,,2,,,56,75
48420,note_on,0,0,3,,,,,,,,,2,,,53,75
48420,note_on,54,0,3,,,,,,,,,2,,,47,75
48420,note_on,0,0,1,,,,,,,,,0,,,68,88
48420,note_on,0,0,1,,,,,,,,,0,,,65,88
48420,note_on,54,0,1,,,,,,,,,0,,,62,88
48426,note_on,6,0,1,,,,,,,,,0,,,68,0
48426,note_on,0,0,1,,,,,,,,,0,,,65,0
48426,note_on,0,0,1,,,,,,,,,0,,,62,0
48426,note_on,6,0,3,,,,,,,,,2,,,56,0
48426,note_on,0,0,3,,,,,,,,,2,,,53,0
48426,note_on,0,0,3,,,,,,,,,2,,,47,0
48480,note_on,0,0,1,,,,,,,,,0,,,69,88
48480,note_on,0,0,1,,,,,,,,,0,,,65,88
48480,note_on,0,0,3,,,,,,,,,2,,,53,75
48480,note_on,54,0,3,,,,,,,,,2,,,48,75
48480,note_on,0,0,3,,,,,,,,,2,,,57,75
48480,control_change,54,0,1,,,,,,,,,0,64,127,,
48480,note_on,0,0,1,,,,,,,,,0,,,60,88
48600,note_on,0,0,1,,,,,,,,,0,,,60,0
48600,note_on,0,0,1,,,,,,,,,0,,,65,0
48600,note_on,120,0,1,,,,,,,,,0,,,69,0
48600,note_on,0,0,1,,,,,,,,,0,,,72,88
48639,note_on,39,0,1,,,,,,,,,0,,,70,88
48640,note_on,1,0,1,,,,,,,,,0,,,72,0
48679,note_on,39,0,1,,,,,,,,,0,,,70,0
48680,note_on,1,0,1,,,,,,,,,0,,,69,88
48720,note_on,0,0,1,,,,,,,,,0,,,67,49
48720,control_change,0,0,1,,,,,,,,,0,64,0,,
48720,note_on,40,0,1,,,,,,,,,0,,,69,0
48720,note_on,0,0,3,,,,,,,,,2,,,48,62
48720,note_on,0,0,3,,,,,,,,,2,,,48,0
48720,note_on,0,0,3,,,,,,,,,2,,,53,0
48720,note_on,240,0,3,,,,,,,,,2,,,57,0
48726,note_on,6,0,3,,,,,,,,,2,,,48,0
48759,note_on,39,0,1,,,,,,,,,0,,,65,49
48760,note_on,1,0,1,,,,,,,,,0,,,67,0
48780,note_on,54,0,3,,,,,,,,,2,,,48,62
48786,note_on,6,0,3,,,,,,,,,2,,,48,0
48799,note_on,39,0,1,,,,,,,,,0,,,65,0
48800,note_on,1,0,1,,,,,,,,,0,,,64,49
48840,note_on,40,0,1,,,,,,,,,0,,,64,0
48840,note_on,0,0,1,,,,,,,,,0,,,62,49
48840,note_on,54,0,3,,,,,,,,,2,,,48,62
48846,note_on,6,0,3,,,,,,,,,2,,,48,0
48879,note_on,39,0,1,,,,,,,,,0,,,60,49
48880,note_on,1,0,1,,,,,,,,,0,,,62,0
48900,note_on,54,0,3,,,,,,,,,2,,,48,62
48906,note_on,6,0,3,,,,,,,,,2,,,48,0
48919,note_on,39,0,1,,,,,,,,,0,,,60,0
48920,note_on,1,0,1,,,,,,,,,0,,,58,49
48960,note_on,0,0,1,,,,,,,,,0,,,57,49
48960,control_change,0,0,1,,,,,,,,,0,64,127,,
48960,note_on,40,0,1,,,,,,,,,0,,,58,0
48960,note_on,54,0,3,,,,,,,,,2,,,48,88
48999,note_on,39,0,1,,,,,,,,,0,,,58,49
49000,note_on,1,0,1,,,,,,,,,0,,,57,0
49039,note_on,39,0,1,,,,,,,,,0,,,58,0
49040,note_on,1,0,1,,,,,,,,,0,,,60,49
49080,note_on,0,0,3,,,,,,,,,2,,,45,62
49080,note_on,0,0,1,,,,,,,,,0,,,72,49
49080,note_on,40,0,1,,,,,,,,,0,,,60,0
49080,note_on,120,0,3,,,,,,,,,2,,,48,0
49119,note_on,39,0,1,,,,,,,,,0,,,70,49
49120,note_on,1,0,1,,,,,,,,,0,,,72,0
49140,note_on,60,0,3,,,,,,,,,2,,,45,0
49159,note_on,39,0,1,,,,,,,,,0,,,70,0
49160,note_on,1,0,1,,,,,,,,,0,,,69,49
49200,note_on,40,0,1,,,,,,,,,0,,,69,0
49200,control_change,0,0,1,,,,,,,,,0,64,0,,
49200,note_on,0,0,1,,,,,,,,,0,,,67,49
49200,note_on,60,0,3,,,,,,,,,2,,,48,49
49206,note_on,6,0,3,,,,,,,,,2,,,48,0
49239,note_on,39,0,1,,,,,,,,,0,,,65,49
49240,note_on,1,0,1,,,,,,,,,0,,,67,0
49260,note_on,54,0,3,,,,,,,,,2,,,48,49
49266,note_on,6,0,3,,,,,,,,,2,,,48,0
49279,note_on,39,0,1,,,,,,,,,0,,,65,0
49280,note_on,1,0,1,,,,,,,,,0,,,64,49
49320,note_on,54,0,3,,,,,,,,,2,,,48,49
49320,note_on,0,0,1,,,,,,,,,0,,,62,49
49320,note_on,40,0,1,,,,,,,,,0,,,64,0
49326,note_on,6,0,3,,,,,,,,,2,,,48,0
49359,note_on,39,0,1,,,,,,,,,0,,,60,49
49360,note_on,1,0,1,,,,,,,,,0,,,62,0
49380,note_on,54,0,3,,,,,,,,,2,,,48,49
49386,note_on,6,0,3,,,,,,,,,2,,,48,0
49399,note_on,39,0,1,,,,,,,,,0,,,60,0
49400,note_on,1,0,1,,,,,,,,,0,,,58,49
49440,control_change,54,0,3,,,,,,,,,2,64,127,,
49440,note_on,40,0,1,,,,,,,,,0,,,58,0
49440,control_change,0,0,1,,,,,,,,,0,64,127,,
49440,note_on,0,0,3,,,,,,,,,2,,,48,75
49440,note_on,0,0,1,,,,,,,,,0,,,57,49
49479,note_on,39,0,1,,,,,,,,,0,,,58,49
49480,note_on,1,0,1,,,,,,,,,0,,,57,0
49519,note_on,39,0,1,,,,,,,,,0,,,58,0
49520,note_on,1,0,1,,,,,,,,,0,,,60,49
49560,note_on,120,0,3,,,,,,,,,2,,,48,0
49560,note_on,40,0,1,,,,,,,,,0,,,60,0
49560,note_on,0,0,1,,,,,,,,,0,,,57,49
49560,note_on,0,0,3,,,,,,,,,2,,,45,49
49599,note_on,39,0,1,,,,,,,,,0,,,58,49
49600,note_on,1,0,1,,,,,,,,,0,,,57,0
49620,note_on,60,0,3,,,,,,,,,2,,,45,0
49639,note_on,39,0,1,,,,,,,,,0,,,58,0
49640,note_on,1,0,1,,,,,,,,,0,,,60,49
49680,control_change,60,0,3,,,,,,,,,2,64,0,,
49680,note_on,40,0,1,,,,,,,,,0,,,60,0
49680,control_change,0,0,1,,,,,,,,,0,64,0,,
49680,note_on,0,0,1,,,,,,,,,0,,,57,49
49680,note_on,0,0,3,,,,,,,,,2,,,53,49
49719,note_on,39,0,1,,,,,,,,,0,,,58,49
49719,note_on,39,0,3,,,,,,,,,2,,,55,49
49720,note_on,1,0,3,,,,,,,,,2,,,53,0
49720,note_on,1,0,1,,,,,,,,,0,,,57,0
49759,note_on,39,0,3,,,,,,,,,2,,,55,0
49759,note_on,39,0,1,,,,,,,,,0,,,58,0
49760,note_on,1,0,3,,,,,,,,,2,,,57,49
49760,note_on,1,0,1,,,,,,,,,0,,,60,49
49800,note_on,40,0,1,,,,,,,,,0,,,60,0
49800,note_on,40,0,3,,,,,,,,,2,,,57,0
49800,note_on,0,0,3,,,,,,,,,2,,,45,49
49800,note_on,0,0,1,,,,,,,,,0,,,57,49
49839,note_on,39,0,3,,,,,,,,,2,,,46,49
49839,note_on,39,0,1,,,,,,,,,0,,,58,49
49840,note_on,1,0,3,,,,,,,,,2,,,45,0
49840,note_on,1,0,1,,,,,,,,,0,,,57,0
49879,note_on,39,0,3,,,,,,,,,2,,,46,0
49879,note_on,39,0,1,,,,,,,,,0,,,58,0
49880,note_on,1,0,3,,,,,,,,,2,,,48,49
49880,note_on,1,0,1,,,,,,,,,0,,,60,49
49920,note_on,40,0,3,,,,,,,,,2,,,48,0
49920,control_change,0,0,3,,,,,,,,,2,64,127,,
49920,note_on,0,0,3,,,,,,,,,2,,,41,62
49920,control_change,0,0,1,,,,,,,,,0,64,127,,
49920,note_on,0,0,1,,,,,,,,,0,,,57,62
49920,note_on,40,0,1,,,,,,,,,0,,,60,0
49959,note_on,39,0,3,,,,,,,,,2,,,43,62
49959,note_on,39,0,1,,,,,,,,,0,,,58,62
49960,note_on,1,0,3,,,,,,,,,2,,,41,0
49960,note_on,1,0,1,,,,,,,,,0,,,57,0
49999,note_on,39,0,1,,,,,,,,,0,,,58,0
49999,note_on,39,0,3,,,,,,,,,2,,,43,0
50000,note_on,1,0,1,,,,,,,,,0,,,60,62
50000,note_on,1,0,3,,,,,,,,,2,,,45,62
50040,note_on,40,0,1,,,,,,,,,0,,,60,0
50040,note_on,0,0,3,,,,,,,,,2,,,33,75
50040,note_on,40,0,3,,,,,,,,,2,,,45,0
50040,note_on,0,0,1,,,,,,,,,0,,,57,75
50079,note_on,39,0,1,,,,,,,,,0,,,58,75
50079,note_on,39,0,3,,,,,,,,,2,,,34,75
50080,note_on,1,0,3,,,,,,,,,2,,,33,0
50080,note_on,1,0,1,,,,,,,,,0,,,57,0
50119,note_on,39,0,1,,,,,,,,,0,,,58,0
50119,note_on,39,0,3,,,,,,,,,2,,,34,0
50120,note_on,1,0,3,,,,,,,,,2,,,36,75
50120,note_on,1,0,1,,,,,,,,,0,,,60,75
50160,note_on,0,0,3,,,,,,,,,2,,,33,88
50160,note_on,40,0,3,,,,,,,,,2,,,36,0
50160,note_on,40,0,1,,,,,,,,,0,,,60,0
50160,note_on,0,0,1,,,,,,,,,0,,,57,88
50199,note_on,39,0,3,,,,,,,,,2,,,34,88
50199,note_on,39,0,1,,,,,,,,,0,,,58,88
50200,note_on,1,0,3,,,,,,,,,2,,,33,0
50200,note_on,1,0,1,,,,,,,,,0,,,57,0
50239,note_on,39,0,3,,,,,,,,,2,,,34,0
50239,note_on,39,0,1,,,,,,,,,0,,,58,0
50240,note_on,1,0,3,,,,,,,,,2,,,36,88
50240,note_on,1,0,1,,,,,,,,,0,,,60,88
50280,note_on,40,0,3,,,,,,,,,2,,,36,0
50280,note_on,0,0,3,,,,,,,,,2,,,33,101
50280,note_on,40,0,1,,,,,,,,,0,,,60,0
50280,note_on,0,0,1,,,,,,,,,0,,,57,101
50319,note_on,39,0,1,,,,,,,,,0,,,58,101
50319,note_on,39,0,3,,,,,,,,,2,,,34,101
50320,note_on,1,0,1,,,,,,,,,0,,,57,0
50320,note_on,1,0,3,,,,,,,,,2,,,33,0
50359,note_on,39,0,1,,,,,,,,,0,,,58,0
50359,note_on,39,0,3,,,,,,,,,2,,,34,0
50360,note_on,0,0,1,,,,,,,,,0,,,60,101
50360,control_change,1,0,3,,,,,,,,,2,64,0,,
50360,note_on,0,0,3,,,,,,,,,2,,,36,101
50360,control_change,1,0,1,,,,,,,,,0,64,0,,
50400,note_on,0,0,1,,,,,,,,,0,,,56,114
50400,note_on,0,0,1,,,,,,,,,0,,,53,114
50400,note_on,40,0,1,,,,,,,,,0,,,60,0
50400,note_on,40,0,3,,,,,,,,,2,,,36,0
50400,control_change,0,0,3,,,,,,,,,2,64,127,,
50400,note_on,0,0,3,,,,,,,,,2,,,37,101
50400,note_on,0,0,1,,,,,,,,,0,,,61,114
50406,note_on,6,0,3,,,,,,,,,2,,,37,0
50460,note_on,54,0,3,,,,,,,,,2,,,37,101
50466,note_on,6,0,3,,,,,,,,,2,,,37,0
50520,note_on,54,0,3,,,,,,,,,2,,,37,101
50526,note_on,6,0,3,,,,,,,,,2,,,37,0
50580,note_on,54,0,3,,,,,,,,,2,,,37,101
50586,note_on,6,0,3,,,,,,,,,2,,,37,0
50640,control_change,54,0,3,,,,,,,,,2,64,0,,
50640,note_on,0,0,1,,,,,,,,,0,,,56,49
50640,note_on,0,0,1,,,,,,,,,0,,,53,0
50640,note_on,0,0,1,,,,,,,,,0,,,56,0
50640,note_on,240,0,1,,,,,,,,,0,,,61,0
50640,note_on,0,0,1,,,,,,,,,0,,,65,49
50640,note_on,0,0,1,,,,,,,,,0,,,61,49
50640,note_on,0,0,3,,,,,,,,,2,,,37,49
50646,note_on,6,0,1,,,,,,,,,0,,,65,0
50646,note_on,0,0,1,,,,,,,,,0,,,56,0
50646,note_on,0,0,1,,,,,,,,,0,,,61,0
50700,note_on,54,0,1,,,,,,,,,0,,,56,49
50700,note_on,0,0,1,,,,,,,,,0,,,65,49
50700,note_on,0,0,1,,,,,,,,,0,,,61,49
50706,note_on,0,0,1,,,,,,,,,0,,,61,0
50706,note_on,0,0,1,,,,,,,,,0,,,56,0
50706,note_on,6,0,1,,,,,,,,,0,,,65,0
50760,note_on,54,0,1,,,,,,,,,0,,,56,49
50760,note_on,0,0,1,,,,,,,,,0,,,61,49
50760,note_on,0,0,1,,,,,,,,,0,,,65,49
50766,note_on,0,0,1,,,,,,,,,0,,,56,0
50766,note_on,0,0,1,,,,,,,,,0,,,61,0
50766,note_on,6,0,1,,,,,,,,,0,,,65,0
50820,note_on,0,0,1,,,,,,,,,0,,,65,49
50820,note_on,0,0,1,,,,,,,,,0,,,61,49
50820,note_on,54,0,1,,,,,,,,,0,,,56,49
50826,note_on,0,0,1,,,,,,,,,0,,,56,0
50826,note_on,0,0,1,,,,,,,,,0,,,61,0
50826,note_on,6,0,1,,,,,,,,,0,,,65,0
50880,note_on,0,0,3,,,,,,,,,2,,,49,49
50880,note_on,240,0,3,,,,,,,,,2,,,37,0
50880,note_on,0,0,3,,,,,,,,,2,,,37,49
50880,control_change,0,0,3,,,,,,,,,2,64,127,,
50880,note_on,0,0,1,,,,,,,,,0,,,61,49
50880,control_change,54,0,1,,,,,,,,,0,64,127,,
50880,note_on,0,0,1,,,,,,,,,0,,,68,49
50880,note_on,0,0,1,,,,,,,,,0,,,65,49
50886,note_on,6,0,3,,,,,,,,,2,,,49,0
50886,note_on,0,0,3,,,,,,,,,2,,,37,0
50940,note_on,54,0,3,,,,,,,,,2,,,37,49
50940,note_on,0,0,3,,,,,,,,,2,,,49,49
50946,note_on,6,0,3,,,,,,,,,2,,,49,0
50946,note_on,0,0,3,,,,,,,,,2,,,37,0
51000,note_on,54,0,3,,,,,,,,,2,,,37,49
51000,note_on,0,0,3,,,,,,,,,2,,,49,49
51006,note_on,6,0,3,,,,,,,,,2,,,49,0
51006,note_on,0,0,3,,,,,,,,,2,,,37,0
51060,note_on,54,0,3,,,,,,,,,2,,,37,49
51060,note_on,0,0,3,,,,,,,,,2,,,49,49
51066,note_on,0,0,3,,,,,,,,,2,,,37,0
51066,note_on,6,0,3,,,,,,,,,2,,,49,0
51120,note_on,0,0,1,,,,,,,,,0,,,65,49
51120,control_change,54,0,3,,,,,,,,,2,64,0,,
51120,note_on,0,0,3,,,,,,,,,2,,,37,49
51120,note_on,0,0,3,,,,,,,,,2,,,49,49
51120,note_on,240,0,1,,,,,,,,,0,,,68,0
51120,note_on,0,0,1,,,,,,,,,0,,,65,0
51120,note_on,0,0,1,,,,,,,,,0,,,61,0
51120,note_on,0,0,1,,,,,,,,,0,,,68,49
51120,note_on,0,0,1,,,,,,,,,0,,,73,49
51126,note_on,0,0,1,,,,,,,,,0,,,65,0
51126,note_on,0,0,1,,,,,,,,,0,,,68,0
51126,note_on,6,0,1,,,,,,,,,0,,,73,0
51180,note_on,54,0,1,,,,,,,,,0,,,65,49
51180,note_on,0,0,1,,,,,,,,,0,,,73,49
51180,note_on,0,0,1,,,,,,,,,0,,,68,49
51186,note_on,6,0,1,,,,,,,,,0,,,73,0
51186,note_on,0,0,1,,,,,,,,,0,,,68,0
51186,note_on,0,0,1,,,,,,,,,0,,,65,0
51240,note_on,54,0,1,,,,,,,,,0,,,65,49
51240,note_on,0,0,1,,,,,,,,,0,,,68,49
51240,note_on,0,0,1,,,,,,,,,0,,,73,49
51246,note_on,6,0,1,,,,,,,,,0,,,73,0
51246,note_on,0,0,1,,,,,,,,,0,,,68,0
51246,note_on,0,0,1,,,,,,,,,0,,,65,0
51300,note_on,0,0,1,,,,,,,,,0,,,73,49
51300,note_on,0,0,1,,,,,,,,,0,,,68,49
51300,note_on,0,0,1,,,,,,,,,0,,,65,49
51300,control_change,54,0,1,,,,,,,,,0,64,0,,
51306,note_on,6,0,1,,,,,,,,,0,,,73,0
51306,note_on,0,0,1,,,,,,,,,0,,,68,0
51306,note_on,0,0,1,,,,,,,,,0,,,65,0
51360,note_on,240,0,3,,,,,,,,,2,,,49,0
51360,note_on,0,0,3,,,,,,,,,2,,,37,0
51360,control_change,0,0,3,,,,,,,,,2,64,127,,
51360,note_on,0,0,3,,,,,,,,,2,,,33,62
51360,note_on,0,0,3,,,,,,,,,2,,,45,62
51360,note_on,0,0,1,,,,,,,,,0,,,67,62
51360,note_on,0,0,1,,,,,,,,,0,,,69,62
51360,control_change,54,0,1,,,,,,,,,0,64,127,,
51360,note_on,0,0,1,,,,,,,,,0,,,73,62
51360,note_on,0,0,1,,,,,,,,,0,,,64,62
51366,note_on,0,0,3,,,,,,,,,2,,,33,0
51366,note_on,6,0,3,,,,,,,,,2,,,45,0
51420,note_on,0,0,3,,,,,,,,,2,,,45,62
51420,note_on,54,0,3,,,,,,,,,2,,,33,62
51426,note_on,6,0,3,,,,,,,,,2,,,45,0
51426,note_on,0,0,3,,,,,,,,,2,,,33,0
51480,note_on,54,0,3,,,,,,,,,2,,,33,62
51480,note_on,0,0,3,,,,,,,,,2,,,45,62
51486,note_on,6,0,3,,,,,,,,,2,,,45,0
51486,note_on,0,0,3,,,,,,,,,2,,,33,0
51540,note_on,54,0,3,,,,,,,,,2,,,33,62
51540,note_on,0,0,3,,,,,,,,,2,,,45,62
51546,note_on,6,0,3,,,,,,,,,2,,,45,0
51546,note_on,0,0,3,,,,,,,,,2,,,33,0
51600,note_on,240,0,1,,,,,,,,,0,,,73,0
51600,note_on,0,0,1,,,,,,,,,0,,,64,0
51600,note_on,0,0,1,,,,,,,,,0,,,67,0
51600,note_on,0,0,1,,,,,,,,,0,,,76,75
51600,note_on,0,0,1,,,,,,,,,0,,,67,75
51600,note_on,0,0,1,,,,,,,,,0,,,69,75
51600,note_on,0,0,1,,,,,,,,,0,,,73,75
51600,note_on,0,0,3,,,,,,,,,2,,,45,62
51600,control_change,54,0,3,,,,,,,,,2,64,0,,
51600,note_on,0,0,1,,,,,,,,,0,,,69,0
51600,note_on,0,0,3,,,,,,,,,2,,,33,62
51606,note_on,0,0,1,,,,,,,,,0,,,69,0
51606,note_on,6,0,1,,,,,,,,,0,,,76,0
51606,note_on,0,0,1,,,,,,,,,0,,,67,0
51606,note_on,0,0,1,,,,,,,,,0,,,73,0
51660,note_on,0,0,1,,,,,,,,,0,,,76,75
51660,note_on,54,0,1,,,,,,,,,0,,,67,75
51660,note_on,0,0,1,,,,,,,,,0,,,69,75
51660,note_on,0,0,1,,,,,,,,,0,,,73,75
51666,note_on,6,0,1,,,,,,,,,0,,,76,0
51666,note_on,0,0,1,,,,,,,,,0,,,67,0
51666,note_on,0,0,1,,,,,,,,,0,,,69,0
51666,note_on,0,0,1,,,,,,,,,0,,,73,0
51720,note_on,54,0,1,,,,,,,,,0,,,67,75
51720,note_on,0,0,1,,,,,,,,,0,,,69,75
51720,note_on,0,0,1,,,,,,,,,0,,,73,75
51720,note_on,0,0,1,,,,,,,,,0,,,76,75
51726,note_on,0,0,1,,,,,,,,,0,,,67,0
51726,note_on,0,0,1,,,,,,,,,0,,,69,0
51726,note_on,0,0,1,,,,,,,,,0,,,73,0
51726,note_on,6,0,1,,,,,,,,,0,,,76,0
51780,control_change,54,0,1,,,,,,,,,0,64,0,,
51780,note_on,0,0,1,,,,,,,,,0,,,67,75
51780,note_on,0,0,1,,,,,,,,,0,,,69,75
51780,note_on,0,0,1,,,,,,,,,0,,,73,75
51780,note_on,0,0,1,,,,,,,,,0,,,76,75
51786,note_on,6,0,1,,,,,,,,,0,,,76,0
51786,note_on,0,0,1,,,,,,,,,0,,,67,0
51786,note_on,0,0,1,,,,,,,,,0,,,69,0
51786,note_on,0,0,1,,,,,,,,,0,,,73,0
51840,control_change,54,0,1,,,,,,,,,0,64,127,,
51840,note_on,0,0,1,,,,,,,,,0,,,73,88
51840,note_on,0,0,1,,,,,,,,,0,,,69,88
51840,note_on,0,0,1,,,,,,,,,0,,,79,88
51840,note_on,0,0,1,,,,,,,,,0,,,76,88
51840,control_change,0,0,3,,,,,,,,,2,64,127,,
51840,note_on,0,0,3,,,,,,,,,2,,,33,88
51840,note_on,0,0,3,,,,,,,,,2,,,45,88
51840,note_on,0,0,3,,,,,,,,,2,,,33,0
51840,note_on,240,0,3,,,,,,,,,2,,,45,0
51840,note_on,0,0,1,,,,,,,,,0,,,81,88
51846,note_on,6,0,3,,,,,,,,,2,,,45,0
51846,note_on,0,0,3,,,,,,,,,2,,,33,0
51900,note_on,54,0,3,,,,,,,,,2,,,33,88
51900,note_on,0,0,3,,,,,,,,,2,,,45,88
51906,note_on,6,0,3,,,,,,,,,2,,,45,0
51906,note_on,0,0,3,,,,,,,,,2,,,33,0
51960,note_on,0,0,3,,,,,,,,,2,,,45,88
51960,note_on,54,0,3,,,,,,,,,2,,,33,88
51966,note_on,6,0,3,,,,,,,,,2,,,45,0
51966,note_on,0,0,3,,,,,,,,,2,,,33,0
52020,note_on,54,0,3,,,,,,,,,2,,,33,88
52020,note_on,0,0,3,,,,,,,,,2,,,45,88
52026,note_on,0,0,3,,,,,,,,,2,,,33,0
52026,note_on,6,0,3,,,,,,,,,2,,,45,0
52080,control_change,54,0,3,,,,,,,,,2,64,0,,
52080,note_on,0,0,3,,,,,,,,,2,,,33,88
52080,note_on,0,0,3,,,,,,,,,2,,,45,88
52080,note_on,240,0,1,,,,,,,,,0,,,81,0
52080,note_on,0,0,1,,,,,,,,,0,,,76,0
52080,note_on,0,0,1,,,,,,,,,0,,,69,0
52080,note_on,0,0,1,,,,,,,,,0,,,73,0
52080,note_on,0,0,1,,,,,,,,,0,,,79,0
52080,note_on,0,0,1,,,,,,,,,0,,,76,88
52080,note_on,0,0,1,,,,,,,,,0,,,79,88
52080,note_on,0,0,1,,,,,,,,,0,,,81,88
52080,note_on,0,0,1,,,,,,,,,0,,,85,88
52086,note_on,0,0,1,,,,,,,,,0,,,79,0
52086,note_on,6,0,1,,,,,,,,,0,,,85,0
52086,note_on,0,0,1,,,,,,,,,0,,,76,0
52086,note_on,0,0,1,,,,,,,,,0,,,81,0
52140,note_on,0,0,1,,,,,,,,,0,,,81,88
52140,note_on,0,0,1,,,,,,,,,0,,,85,88
52140,note_on,0,0,1,,,,,,,,,0,,,79,88
52140,note_on,54,0,1,,,,,,,,,0,,,76,88
52146,note_on,0,0,1,,,,,,,,,0,,,81,0
52146,note_on,0,0,1,,,,,,,,,0,,,79,0
52146,note_on,0,0,1,,,,,,,,,0,,,76,0
52146,note_on,6,0,1,,,,,,,,,0,,,85,0
52200,note_on,0,0,1,,,,,,,,,0,,,79,88
52200,note_on,54,0,1,,,,,,,,,0,,,76,88
52200,note_on,0,0,1,,,,,,,,,0,,,85,88
52200,note_on,0,0,1,,,,,,,,,0,,,81,88
52206,note_on,6,0,1,,,,,,,,,0,,,85,0
52206,note_on,0,0,1,,,,,,,,,0,,,81,0
52206,note_on,0,0,1,,,,,,,,,0,,,76,0
52206,note_on,0,0,1,,,,,,,,,0,,,79,0
52260,control_change,54,0,1,,,,,,,,,0,64,0,,
52260,note_on,0,0,1,,,,,,,,,0,,,76,88
52260,note_on,0,0,1,,,,,,,,,0,,,85,88
52260,note_on,0,0,1,,,,,,,,,0,,,81,88
52260,note_on,0,0,1,,,,,,,,,0,,,79,88
52266,note_on,0,0,1,,,,,,,,,0,,,81,0
52266,note_on,6,0,1,,,,,,,,,0,,,85,0
52266,note_on,0,0,1,,,,,,,,,0,,,76,0
52266,note_on,0,0,1,,,,,,,,,0,,,79,0
52320,note_on,0,0,3,,,,,,,,,2,,,45,88
52320,note_on,240,0,3,,,,,,,,,2,,,45,0
52320,note_on,0,0,3,,,,,,,,,2,,,33,0
52320,note_on,0,0,3,,,,,,,,,2,,,38,88
52320,note_on,0,0,3,,,,,,,,,2,,,42,88
52320,note_on,0,0,3,,,,,,,,,2,,,50,88
52320,note_on,54,0,1,,,,,,,,,0,,,74,101
52320,note_on,0,0,1,,,,,,,,,0,,,78,101
52320,note_on,0,0,1,,,,,,,,,0,,,81,101
52320,note_on,0,0,1,,,,,,,,,0,,,86,101
52560,note_on,0,0,3,,,,,,,,,2,,,42,0
52560,note_on,0,0,1,,,,,,,,,0,,,62,101
52560,note_on,0,0,1,,,,,,,,,0,,,78,0
52560,note_on,0,0,1,,,,,,,,,0,,,74,0
52560,note_on,240,0,1,,,,,,,,,0,,,86,0
52560,note_on,240,0,3,,,,,,,,,2,,,50,0
52560,note_on,0,0,3,,,,,,,,,2,,,38,0
52560,note_on,0,0,1,,,,,,,,,0,,,57,101
52560,note_on,0,0,3,,,,,,,,,2,,,45,0
52560,note_on,0,0,3,,,,,,,,,2,,,42,88
52560,note_on,0,0,3,,,,,,,,,2,,,50,88
52560,note_on,0,0,1,,,,,,,,,0,,,81,0
52566,note_on,6,0,1,,,,,,,,,0,,,62,0
52566,note_on,0,0,3,,,,,,,,,2,,,42,0
52566,note_on,6,0,3,,,,,,,,,2,,,50,0
52566,note_on,0,0,1,,,,,,,,,0,,,57,0
52620,note_on,0,0,1,,,,,,,,,0,,,62,101
52620,note_on,0,0,3,,,,,,,,,2,,,42,88
52620,note_on,0,0,1,,,,,,,,,0,,,57,101
52620,control_change,54,0,1,,,,,,,,,0,64,0,,
52620,control_change,54,0,3,,,,,,,,,2,64,0,,
52620,note_on,0,0,3,,,,,,,,,2,,,50,88
52626,note_on,0,0,1,,,,,,,,,0,,,57,0
52626,note_on,0,0,3,,,,,,,,,2,,,42,0
52626,note_on,6,0,3,,,,,,,,,2,,,50,0
52626,note_on,6,0,1,,,,,,,,,0,,,62,0
52680,note_on,0,0,3,,,,,,,,,2,,,50,88
52680,note_on,54,0,3,,,,,,,,,2,,,42,88
52680,note_on,0,0,1,,,,,,,,,0,,,62,101
52680,note_on,54,0,1,,,,,,,,,0,,,57,101
52686,note_on,0,0,3,,,,,,,,,2,,,42,0
52686,note_on,0,0,1,,,,,,,,,0,,,57,0
52686,note_on,6,0,1,,,,,,,,,0,,,62,0
52686,note_on,6,0,3,,,,,,,,,2,,,50,0
52740,note_on,0,0,1,,,,,,,,,0,,,62,101
52740,note_on,0,0,3,,,,,,,,,2,,,50,88
52740,note_on,54,0,3,,,,,,,,,2,,,42,88
52740,note_on,54,0,1,,,,,,,,,0,,,57,101
52746,note_on,6,0,1,,,,,,,,,0,,,62,0
52746,note_on,6,0,3,,,,,,,,,2,,,50,0
52746,note_on,0,0,3,,,,,,,,,2,,,42,0
52746,note_on,0,0,1,,,,,,,,,0,,,57,0
52800,note_on,54,0,1,,,,,,,,,0,,,57,101
52800,note_on,0,0,1,,,,,,,,,0,,,62,101
52800,note_on,54,0,3,,,,,,,,,2,,,42,88
52800,note_on,0,0,3,,,,,,,,,2,,,50,88
52920,note_on,120,0,1,,,,,,,,,0,,,57,0
52920,note_on,0,0,1,,,,,,,,,0,,,59,75
52920,note_on,120,0,3,,,,,,,,,2,,,42,0
52920,note_on,0,0,1,,,,,,,,,0,,,64,75
52920,note_on,0,0,3,,,,,,,,,2,,,52,62
52920,note_on,0,0,3,,,,,,,,,2,,,43,62
52980,note_on,60,0,1,,,,,,,,,0,,,64,0
52980,note_on,0,0,1,,,,,,,,,0,,,62,0
52980,note_on,60,0,3,,,,,,,,,2,,,52,0
52980,note_on,0,0,3,,,,,,,,,2,,,43,0
52980,note_on,0,0,3,,,,,,,,,2,,,50,0
52980,note_on,0,0,1,,,,,,,,,0,,,59,0
53040,note_on,60,0,3,,,,,,,,,2,,,45,62
53040,note_on,60,0,1,,,,,,,,,0,,,57,75
53079,note_on,39,0,1,,,,,,,,,0,,,59,75
53079,note_on,39,0,3,,,,,,,,,2,,,47,62
53080,note_on,1,0,1,,,,,,,,,0,,,57,0
53080,note_on,1,0,3,,,,,,,,,2,,,45,0
53119,note_on,39,0,1,,,,,,,,,0,,,59,0
53119,note_on,39,0,3,,,,,,,,,2,,,47,0
53120,note_on,1,0,1,,,,,,,,,0,,,60,75
53120,note_on,1,0,3,,,,,,,,,2,,,48,62
53160,note_on,40,0,3,,,,,,,,,2,,,48,0
53160,note_on,0,0,3,,,,,,,,,2,,,50,62
53160,note_on,40,0,1,,,,,,,,,0,,,60,0
53160,note_on,0,0,1,,,,,,,,,0,,,62,75
53199,note_on,39,0,1,,,,,,,,,0,,,64,75
53199,note_on,39,0,3,,,,,,,,,2,,,52,62
53200,note_on,1,0,3,,,,,,,,,2,,,50,0
53200,note_on,1,0,1,,,,,,,,,0,,,62,0
53239,note_on,39,0,1,,,,,,,,,0,,,64,0
53239,note_on,39,0,3,,,,,,,,,2,,,52,0
53240,note_on,1,0,1,,,,,,,,,0,,,66,75
53240,note_on,1,0,3,,,,,,,,,2,,,54,62
53280,note_on,0,0,3,,,,,,,,,2,,,46,88
53280,note_on,40,0,3,,,,,,,,,2,,,54,0
53280,note_on,0,0,1,,,,,,,,,0,,,58,101
53280,note_on,40,0,1,,,,,,,,,0,,,66,0
53340,note_on,60,0,1,,,,,,,,,0,,,58,0
53340,note_on,60,0,3,,,,,,,,,2,,,46,0
53340,note_on,0,0,1,,,,,,,,,0,,,66,75
53340,note_on,0,0,3,,,,,,,,,2,,,54,62
53400,note_on,60,0,3,,,,,,,,,2,,,54,0
53400,note_on,0,0,3,,,,,,,,,2,,,47,88
53400,note_on,0,0,1,,,,,,,,,0,,,59,101
53400,note_on,60,0,1,,,,,,,,,0,,,66,0
53460,note_on,0,0,1,,,,,,,,,0,,,67,75
53460,note_on,60,0,3,,,,,,,,,2,,,47,0
53460,note_on,0,0,3,,,,,,,,,2,,,55,62
53460,note_on,60,0,1,,,,,,,,,0,,,59,0
53520,note_on,60,0,3,,,,,,,,,2,,,55,0
53520,note_on,0,0,3,,,,,,,,,2,,,49,62
53520,note_on,0,0,3,,,,,,,,,2,,,57,62
53520,note_on,60,0,1,,,,,,,,,0,,,67,0
53520,note_on,0,0,1,,,,,,,,,0,,,64,75
53520,note_on,0,0,1,,,,,,,,,0,,,67,75
53520,note_on,0,0,1,,,,,,,,,0,,,69,75
53520,note_on,0,0,3,,,,,,,,,2,,,55,62
53526,note_on,6,0,3,,,,,,,,,2,,,57,0
53526,note_on,0,0,3,,,,,,,,,2,,,55,0
53526,note_on,0,0,3,,,,,,,,,2,,,49,0
53526,note_on,6,0,1,,,,,,,,,0,,,69,0
53526,note_on,0,0,1,,,,,,,,,0,,,67,0
53526,note_on,0,0,1,,,,,,,,,0,,,64,0
53580,note_on,54,0,1,,,,,,,,,0,,,64,75
53580,note_on,0,0,1,,,,,,,,,0,,,67,75
53580,note_on,0,0,1,,,,,,,,,0,,,69,75
53580,note_on,0,0,3,,,,,,,,,2,,,55,62
53580,note_on,54,0,3,,,,,,,,,2,,,49,62
53580,note_on,0,0,3,,,,,,,,,2,,,57,62
53586,note_on,0,0,1,,,,,,,,,0,,,67,0
53586,note_on,0,0,1,,,,,,,,,0,,,64,0
53586,note_on,0,0,3,,,,,,,,,2,,,49,0
53586,note_on,0,0,3,,,,,,,,,2,,,55,0
53586,note_on,6,0,3,,,,,,,,,2,,,57,0
53586,note_on,6,0,1,,,,,,,,,0,,,69,0
53640,note_on,54,0,1,,,,,,,,,0,,,64,75
53640,note_on,0,0,1,,,,,,,,,0,,,67,75
53640,note_on,0,0,1,,,,,,,,,0,,,69,75
53640,note_on,54,0,3,,,,,,,,,2,,,49,62
53640,note_on,0,0,3,,,,,,,,,2,,,55,62
53640,note_on,0,0,3,,,,,,,,,2,,,57,62
53646,note_on,0,0,1,,,,,,,,,0,,,67,0
53646,note_on,6,0,3,,,,,,,,,2,,,57,0
53646,note_on,6,0,1,,,,,,,,,0,,,69,0
53646,note_on,0,0,3,,,,,,,,,2,,,49,0
53646,note_on,0,0,3,,,,,,,,,2,,,55,0
53646,note_on,0,0,1,,,,,,,,,0,,,64,0
53700,note_on,54,0,3,,,,,,,,,2,,,49,62
53700,note_on,0,0,3,,,,,,,,,2,,,57,62
53700,note_on,0,0,1,,,,,,,,,0,,,67,75
53700,note_on,0,0,3,,,,,,,,,2,,,55,62
53700,note_on,0,0,1,,,,,,,,,0,,,69,75
53700,note_on,54,0,1,,,,,,,,,0,,,64,75
53706,note_on,6,0,1,,,,,,,,,0,,,69,0
53706,note_on,0,0,1,,,,,,,,,0,,,67,0
53706,note_on,0,0,1,,,,,,,,,0,,,64,0
53706,note_on,0,0,3,,,,,,,,,2,,,49,0
53706,note_on,0,0,3,,,,,,,,,2,,,55,0
53706,note_on,6,0,3,,,,,,,,,2,,,57,0
53760,note_on,54,0,1,,,,,,,,,0,,,64,75
53760,note_on,0,0,1,,,,,,,,,0,,,67,75
53760,note_on,0,0,1,,,,,,,,,0,,,69,75
53760,note_on,0,0,3,,,,,,,,,2,,,57,62
53760,note_on,0,0,3,,,,,,,,,2,,,55,62
53760,note_on,54,0,3,,,,,,,,,2,,,49,62
53880,note_on,0,0,3,,,,,,,,,2,,,49,0
53880,note_on,0,0,3,,,,,,,,,2,,,50,62
53880,note_on,0,0,3,,,,,,,,,2,,,59,62
53880,note_on,120,0,1,,,,,,,,,0,,,69,0
53880,note_on,0,0,1,,,,,,,,,0,,,64,0
53880,note_on,0,0,1,,,,,,,,,0,,,62,75
53880,note_on,120,0,3,,,,,,,,,2,,,57,0
53880,note_on,0,0,1,,,,,,,,,0,,,71,75
53940,note_on,60,0,1,,,,,,,,,0,,,71,0
53940,note_on,60,0,3,,,,,,,,,2,,,59,0
53940,note_on,0,0,3,,,,,,,,,2,,,50,0
53940,note_on,0,0,3,,,,,,,,,2,,,55,0
53940,note_on,0,0,1,,,,,,,,,0,,,67,0
53940,note_on,0,0,1,,,,,,,,,0,,,62,0
54000,note_on,60,0,3,,,,,,,,,2,,,50,62
54000,note_on,60,0,1,,,,,,,,,0,,,62,75
54039,note_on,39,0,3,,,,,,,,,2,,,52,62
54039,note_on,39,0,1,,,,,,,,,0,,,64,75
54040,note_on,1,0,3,,,,,,,,,2,,,50,0
54040,note_on,1,0,1,,,,,,,,,0,,,62,0
54079,note_on,39,0,3,,,,,,,,,2,,,52,0
54079,note_on,39,0,1,,,,,,,,,0,,,64,0
54080,note_on,1,0,3,,,,,,,,,2,,,54,62
54080,note_on,1,0,1,,,,,,,,,0,,,66,75
54120,note_on,0,0,1,,,,,,,,,0,,,67,75
54120,note_on,40,0,1,,,,,,,,,0,,,66,0
54120,note_on,40,0,3,,,,,,,,,2,,,54,0
54120,note_on,0,0,3,,,,,,,,,2,,,55,62
54159,note_on,39,0,3,,,,,,,,,2,,,57,62
54159,note_on,39,0,1,,,,,,,,,0,,,69,75
54160,note_on,1,0,3,,,,,,,,,2,,,55,0
54160,note_on,1,0,1,,,,,,,,,0,,,67,0
54199,note_on,39,0,3,,,,,,,,,2,,,57,0
54199,note_on,39,0,1,,,,,,,,,0,,,69,0
54200,note_on,1,0,3,,,,,,,,,2,,,59,62
54200,note_on,1,0,1,,,,,,,,,0,,,71,75
54240,note_on,40,0,3,,,,,,,,,2,,,59,0
54240,note_on,40,0,1,,,,,,,,,0,,,71,0
54240,note_on,0,0,1,,,,,,,,,0,,,63,101
54240,note_on,0,0,3,,,,,,,,,2,,,51,88
54300,note_on,60,0,3,,,,,,,,,2,,,51,0
54300,note_on,0,0,1,,,,,,,,,0,,,71,75
54300,note_on,60,0,1,,,,,,,,,0,,,63,0
54300,note_on,0,0,3,,,,,,,,,2,,,59,62
54360,note_on,0,0,1,,,,,,,,,0,,,64,75
54360,note_on,60,0,3,,,,,,,,,2,,,59,0
54360,note_on,60,0,1,,,,,,,,,0,,,71,0
54360,note_on,0,0,3,,,,,,,,,2,,,52,62
54420,note_on,0,0,1,,,,,,,,,0,,,72,75
54420,note_on,0,0,3,,,,,,,,,2,,,60,62
54420,note_on,60,0,3,,,,,,,,,2,,,52,0
54420,note_on,60,0,1,,,,,,,,,0,,,64,0
54480,note_on,0,0,3,,,,,,,,,2,,,61,62
54480,note_on,0,0,3,,,,,,,,,2,,,58,62
54480,note_on,0,0,3,,,,,,,,,2,,,52,62
54480,note_on,60,0,1,,,,,,,,,0,,,72,0
54480,note_on,0,0,1,,,,,,,,,0,,,67,75
54480,note_on,0,0,1,,,,,,,,,0,,,70,75
54480,note_on,0,0,1,,,,,,,,,0,,,73,75
54480,note_on,60,0,3,,,,,,,,,2,,,60,0
54486,note_on,0,0,3,,,,,,,,,2,,,52,0
54486,note_on,6,0,3,,,,,,,,,2,,,61,0
54486,note_on,6,0,1,,,,,,,,,0,,,73,0
54486,note_on,0,0,1,,,,,,,,,0,,,70,0
54486,note_on,0,0,1,,,,,,,,,0,,,67,0
54486,note_on,0,0,3,,,,,,,,,2,,,58,0
54540,note_on,0,0,1,,,,,,,,,0,,,70,75
54540,note_on,54,0,1,,,,,,,,,0,,,67,75
54540,note_on,0,0,1,,,,,,,,,0,,,73,75
54540,note_on,54,0,3,,,,,,,,,2,,,52,62
54540,note_on,0,0,3,,,,,,,,,2,,,58,62
54540,note_on,0,0,3,,,,,,,,,2,,,61,62
54546,note_on,6,0,3,,,,,,,,,2,,,61,0
54546,note_on,0,0,3,,,,,,,,,2,,,58,0
54546,note_on,0,0,3,,,,,,,,,2,,,52,0
54546,note_on,0,0,1,,,,,,,,,0,,,67,0
54546,note_on,0,0,1,,,,,,,,,0,,,70,0
54546,note_on,6,0,1,,,,,,,,,0,,,73,0
54600,note_on,54,0,3,,,,,,,,,2,,,52,62
54600,note_on,0,0,3,,,,,,,,,2,,,58,62
54600,note_on,0,0,3,,,,,,,,,2,,,61,62
54600,note_on,0,0,1,,,,,,,,,0,,,73,75
54600,note_on,0,0,1,,,,,,,,,0,,,70,75
54600,note_on,54,0,1,,,,,,,,,0,,,67,75
54606,note_on,0,0,3,,,,,,,,,2,,,58,0
54606,note_on,0,0,1,,,,,,,,,0,,,70,0
54606,note_on,0,0,3,,,,,,,,,2,,,52,0
54606,note_on,6,0,1,,,,,,,,,0,,,73,0
54606,note_on,6,0,3,,,,,,,,,2,,,61,0
54606,note_on,0,0,1,,,,,,,,,0,,,67,0
54660,note_on,54,0,1,,,,,,,,,0,,,67,75
54660,note_on,0,0,1,,,,,,,,,0,,,70,75
54660,note_on,54,0,3,,,,,,,,,2,,,52,62
54660,note_on,0,0,3,,,,,,,,,2,,,61,62
54660,note_on,0,0,3,,,,,,,,,2,,,58,62
54660,note_on,0,0,1,,,,,,,,,0,,,73,75
54666,note_on,6,0,3,,,,,,,,,2,,,61,0
54666,note_on,0,0,1,,,,,,,,,0,,,70,0
54666,note_on,6,0,1,,,,,,,,,0,,,73,0
54666,note_on,0,0,3,,,,,,,,,2,,,52,0
54666,note_on,0,0,3,,,,,,,,,2,,,58,0
54666,note_on,0,0,1,,,,,,,,,0,,,67,0
54720,note_on,0,0,1,,,,,,,,,0,,,73,75
54720,note_on,54,0,1,,,,,,,,,0,,,67,75
54720,note_on,54,0,3,,,,,,,,,2,,,52,62
54720,note_on,0,0,3,,,,,,,,,2,,,58,62
54720,note_on,0,0,3,,,,,,,,,2,,,61,62
54720,note_on,0,0,1,,,,,,,,,0,,,70,75
54840,note_on,120,0,1,,,,,,,,,0,,,73,0
54840,note_on,0,0,1,,,,,,,,,0,,,67,0
54840,note_on,0,0,1,,,,,,,,,0,,,65,75
54840,note_on,0,0,1,,,,,,,,,0,,,74,75
54840,note_on,0,0,3,,,,,,,,,2,,,53,62
54840,note_on,120,0,3,,,,,,,,,2,,,61,0
54840,note_on,0,0,3,,,,,,,,,2,,,62,62
54840,note_on,0,0,3,,,,,,,,,2,,,52,0
54900,note_on,0,0,3,,,,,,,,,2,,,58,0
54900,note_on,0,0,3,,,,,,,,,2,,,53,0
54900,note_on,0,0,1,,,,,,,,,0,,,70,0
54900,note_on,0,0,1,,,,,,,,,0,,,65,0
54900,note_on,60,0,1,,,,,,,,,0,,,74,0
54900,note_on,60,0,3,,,,,,,,,2,,,62,0
54960,note_on,60,0,3,,,,,,,,,2,,,53,62
54960,note_on,60,0,1,,,,,,,,,0,,,65,75
54999,note_on,39,0,1,,,,,,,,,0,,,67,75
54999,note_on,39,0,3,,,,,,,,,2,,,55,62
55000,note_on,1,0,1,,,,,,,,,0,,,65,0
55000,note_on,1,0,3,,,,,,,,,2,,,53,0
55039,note_on,39,0,3,,,,,,,,,2,,,55,0
55039,note_on,39,0,1,,,,,,,,,0,,,67,0
55040,note_on,1,0,3,,,,,,,,,2,,,57,62
55040,note_on,1,0,1,,,,,,,,,0,,,69,75
55080,note_on,0,0,3,,,,,,,,,2,,,58,62
55080,note_on,40,0,1,,,,,,,,,0,,,69,0
55080,note_on,40,0,3,,,,,,,,,2,,,57,0
55080,note_on,0,0,1,,,,,,,,,0,,,70,75
55119,note_on,39,0,1,,,,,,,,,0,,,72,75
55119,note_on,39,0,3,,,,,,,,,2,,,60,62
55120,note_on,1,0,1,,,,,,,,,0,,,70,0
55120,note_on,1,0,3,,,,,,,,,2,,,58,0
55159,note_on,39,0,1,,,,,,,,,0,,,72,0
55159,note_on,39,0,3,,,,,,,,,2,,,60,0
55160,note_on,1,0,3,,,,,,,,,2,,,62,62
55160,note_on,1,0,1,,,,,,,,,0,,,74,75
55200,note_on,40,0,3,,,,,,,,,2,,,62,0
55200,note_on,0,0,3,,,,,,,,,2,,,51,62
55200,note_on,0,0,1,,,,,,,,,0,,,75,75
55200,note_on,40,0,1,,,,,,,,,0,,,74,0
55260,note_on,60,0,3,,,,,,,,,2,,,51,0
55260,note_on,0,0,3,,,,,,,,,2,,,58,62
55260,note_on,60,0,1,,,,,,,,,0,,,75,0
55260,note_on,0,0,1,,,,,,,,,0,,,67,75
55320,note_on,60,0,3,,,,,,,,,2,,,58,0
55320,note_on,0,0,1,,,,,,,,,0,,,74,75
55320,note_on,0,0,3,,,,,,,,,2,,,58,62
55320,note_on,60,0,1,,,,,,,,,0,,,67,0
55380,note_on,60,0,1,,,,,,,,,0,,,74,0
55380,note_on,0,0,3,,,,,,,,,2,,,62,62
55380,note_on,60,0,3,,,,,,,,,2,,,58,0
55380,note_on,0,0,1,,,,,,,,,0,,,65,75
55440,note_on,0,0,3,,,,,,,,,2,,,46,62
55440,note_on,0,0,3,,,,,,,,,2,,,34,62
55440,note_on,60,0,3,,,,,,,,,2,,,62,0
55440,note_on,60,0,1,,,,,,,,,0,,,65,0
55440,note_on,0,0,1,,,,,,,,,0,,,73,75
55440,note_on,0,0,1,,,,,,,,,0,,,70,75
55440,note_on,0,0,1,,,,,,,,,0,,,67,75
55440,note_on,0,0,1,,,,,,,,,0,,,64,75
55446,note_on,0,0,3,,,,,,,,,2,,,34,0
55446,note_on,6,0,1,,,,,,,,,0,,,73,0
55446,note_on,0,0,1,,,,,,,,,0,,,67,0
55446,note_on,6,0,3,,,,,,,,,2,,,46,0
55446,note_on,0,0,1,,,,,,,,,0,,,64,0
55446,note_on,0,0,1,,,,,,,,,0,,,70,0
55500,note_on,0,0,3,,,,,,,,,2,,,46,62
55500,note_on,0,0,1,,,,,,,,,0,,,73,75
55500,note_on,0,0,1,,,,,,,,,0,,,70,75
55500,note_on,54,0,1,,,,,,,,,0,,,64,75
55500,note_on,54,0,3,,,,,,,,,2,,,34,62
55500,note_on,0,0,1,,,,,,,,,0,,,67,75
55506,note_on,6,0,1,,,,,,,,,0,,,73,0
55506,note_on,0,0,1,,,,,,,,,0,,,67,0
55506,note_on,6,0,3,,,,,,,,,2,,,46,0
55506,note_on,0,0,1,,,,,,,,,0,,,70,0
55506,note_on,0,0,1,,,,,,,,,0,,,64,0
55506,note_on,0,0,3,,,,,,,,,2,,,34,0
55560,note_on,0,0,3,,,,,,,,,2,,,46,62
55560,note_on,54,0,3,,,,,,,,,2,,,34,62
55560,note_on,54,0,1,,,,,,,,,0,,,64,75
55560,note_on,0,0,1,,,,,,,,,0,,,73,75
55560,note_on,0,0,1,,,,,,,,,0,,,70,75
55560,note_on,0,0,1,,,,,,,,,0,,,67,75
55566,note_on,0,0,1,,,,,,,,,0,,,70,0
55566,note_on,0,0,1,,,,,,,,,0,,,64,0
55566,note_on,6,0,1,,,,,,,,,0,,,73,0
55566,note_on,6,0,3,,,,,,,,,2,,,46,0
55566,note_on,0,0,3,,,,,,,,,2,,,34,0
55566,note_on,0,0,1,,,,,,,,,0,,,67,0
55620,note_on,54,0,3,,,,,,,,,2,,,34,62
55620,note_on,0,0,3,,,,,,,,,2,,,46,62
55620,note_on,0,0,1,,,,,,,,,0,,,70,75
55620,note_on,0,0,1,,,,,,,,,0,,,73,75
55620,note_on,0,0,1,,,,,,,,,0,,,67,75
55620,note_on,54,0,1,,,,,,,,,0,,,64,75
55626,note_on,0,0,3,,,,,,,,,2,,,34,0
55626,note_on,6,0,3,,,,,,,,,2,,,46,0
55626,note_on,0,0,1,,,,,,,,,0,,,67,0
55626,note_on,0,0,1,,,,,,,,,0,,,64,0
55626,note_on,6,0,1,,,,,,,,,0,,,73,0
55626,note_on,0,0,1,,,,,,,,,0,,,70,0
55680,note_on,0,0,1,,,,,,,,,0,,,67,75
55680,note_on,54,0,1,,,,,,,,,0,,,64,75
55680,note_on,0,0,1,,,,,,,,,0,,,73,75
55680,note_on,0,0,1,,,,,,,,,0,,,70,75
55680,note_on,0,0,3,,,,,,,,,2,,,46,62
55680,note_on,54,0,3,,,,,,,,,2,,,34,62
55800,note_on,0,0,1,,,,,,,,,0,,,67,0
55800,note_on,0,0,1,,,,,,,,,0,,,74,75
55800,note_on,0,0,1,,,,,,,,,0,,,65,75
55800,note_on,0,0,1,,,,,,,,,0,,,64,0
55800,note_on,120,0,1,,,,,,,,,0,,,73,0
55860,note_on,0,0,1,,,,,,,,,0,,,70,0
55860,note_on,0,0,1,,,,,,,,,0,,,65,0
55860,note_on,180,0,3,,,,,,,,,2,,,46,0
55860,note_on,0,0,3,,,,,,,,,2,,,34,0
55860,note_on,60,0,1,,,,,,,,,0,,,74,0
55920,note_on,60,0,1,,,,,,,,,0,,,65,75
55920,note_on,60,0,3,,,,,,,,,2,,,53,62
55959,note_on,39,0,3,,,,,,,,,2,,,55,62
55959,note_on,39,0,1,,,,,,,,,0,,,67,75
55960,note_on,1,0,3,,,,,,,,,2,,,53,0
55960,note_on,1,0,1,,,,,,,,,0,,,65,0
55999,note_on,39,0,3,,,,,,,,,2,,,55,0
55999,note_on,39,0,1,,,,,,,,,0,,,67,0
56000,note_on,1,0,1,,,,,,,,,0,,,69,75
56000,note_on,1,0,3,,,,,,,,,2,,,57,62
56040,note_on,0,0,3,,,,,,,,,2,,,58,62
56040,note_on,0,0,1,,,,,,,,,0,,,70,75
56040,note_on,40,0,1,,,,,,,,,0,,,69,0
56040,note_on,40,0,3,,,,,,,,,2,,,57,0
56079,note_on,39,0,1,,,,,,,,,0,,,72,75
56079,note_on,39,0,3,,,,,,,,,2,,,60,62
56080,note_on,1,0,1,,,,,,,,,0,,,70,0
56080,note_on,1,0,3,,,,,,,,,2,,,58,0
56119,note_on,39,0,1,,,,,,,,,0,,,72,0
56119,note_on,39,0,3,,,,,,,,,2,,,60,0
56120,note_on,1,0,1,,,,,,,,,0,,,74,75
56120,note_on,1,0,3,,,,,,,,,2,,,62,62
56160,note_on,0,0,3,,,,,,,,,2,,,51,62
56160,note_on,40,0,3,,,,,,,,,2,,,62,0
56160,note_on,40,0,1,,,,,,,,,0,,,74,0
56160,note_on,0,0,1,,,,,,,,,0,,,75,75
56160,note_on,0,0,1,,,,,,,,,0,,,79,75
56220,note_on,0,0,3,,,,,,,,,2,,,58,62
56220,note_on,60,0,3,,,,,,,,,2,,,51,0
56220,note_on,0,0,1,,,,,,,,,0,,,75,0
56220,note_on,60,0,1,,,,,,,,,0,,,79,0
56220,note_on,0,0,1,,,,,,,,,0,,,67,75
56280,note_on,0,0,1,,,,,,,,,0,,,77,75
56280,note_on,0,0,1,,,,,,,,,0,,,74,75
56280,note_on,60,0,1,,,,,,,,,0,,,67,0
56280,note_on,60,0,3,,,,,,,,,2,,,58,0
56280,note_on,0,0,3,,,,,,,,,2,,,58,62
56340,note_on,0,0,1,,,,,,,,,0,,,74,0
56340,note_on,60,0,1,,,,,,,,,0,,,77,0
56340,note_on,0,0,3,,,,,,,,,2,,,62,62
56340,note_on,0,0,1,,,,,,,,,0,,,65,75
56340,note_on,60,0,3,,,,,,,,,2,,,58,0
56400,note_on,0,0,1,,,,,,,,,0,,,73,75
56400,note_on,0,0,1,,,,,,,,,0,,,71,75
56400,note_on,0,0,1,,,,,,,,,0,,,67,75
56400,note_on,0,0,1,,,,,,,,,0,,,64,75
56400,note_on,60,0,1,,,,,,,,,0,,,65,0
56400,note_on,60,0,3,,,,,,,,,2,,,62,0
56400,note_on,0,0,3,,,,,,,,,2,,,46,62
56400,note_on,0,0,3,,,,,,,,,2,,,34,62
56406,note_on,6,0,3,,,,,,,,,2,,,46,0
56406,note_on,6,0,1,,,,,,,,,0,,,73,0
56406,note_on,0,0,1,,,,,,,,,0,,,64,0
56406,note_on,0,0,1,,,,,,,,,0,,,67,0
56406,note_on,0,0,1,,,,,,,,,0,,,71,0
56406,note_on,0,0,3,,,,,,,,,2,,,34,0
56460,note_on,0,0,1,,,,,,,,,0,,,73,75
56460,note_on,54,0,1,,,,,,,,,0,,,64,75
56460,note_on,0,0,1,,,,,,,,,0,,,67,75
56460,note_on,0,0,1,,,,,,,,,0,,,70,75
56460,note_on,54,0,3,,,,,,,,,2,,,34,62
56460,note_on,0,0,3,,,,,,,,,2,,,46,62
56466,note_on,6,0,1,,,,,,,,,0,,,73,0
56466,note_on,0,0,1,,,,,,,,,0,,,67,0
56466,note_on,0,0,1,,,,,,,,,0,,,64,0
56466,note_on,0,0,3,,,,,,,,,2,,,34,0
56466,note_on,0,0,1,,,,,,,,,0,,,70,0
56466,note_on,6,0,3,,,,,,,,,2,,,46,0
56520,note_on,0,0,3,,,,,,,,,2,,,46,62
56520,note_on,54,0,1,,,,,,,,,0,,,64,75
56520,note_on,0,0,1,,,,,,,,,0,,,67,75
56520,note_on,0,0,1,,,,,,,,,0,,,70,75
56520,note_on,0,0,1,,,,,,,,,0,,,73,75
56520,note_on,54,0,3,,,,,,,,,2,,,34,62
56526,note_on,6,0,3,,,,,,,,,2,,,46,0
56526,note_on,0,0,3,,,,,,,,,2,,,34,0
56526,note_on,6,0,1,,,,,,,,,0,,,73,0
56526,note_on,0,0,1,,,,,,,,,0,,,64,0
56526,note_on,0,0,1,,,,,,,,,0,,,70,0
56526,note_on,0,0,1,,,,,,,,,0,,,67,0
56580,note_on,54,0,3,,,,,,,,,2,,,34,62
56580,note_on,0,0,1,,,,,,,,,0,,,73,75
56580,note_on,0,0,1,,,,,,,,,0,,,70,75
56580,note_on,0,0,1,,,,,,,,,0,,,67,75
56580,note_on,54,0,1,,,,,,,,,0,,,64,75
56580,note_on,0,0,3,,,,,,,,,2,,,46,62
56586,note_on,0,0,1,,,,,,,,,0,,,70,0
56586,note_on,0,0,1,,,,,,,,,0,,,67,0
56586,note_on,0,0,1,,,,,,,,,0,,,64,0
56586,note_on,6,0,1,,,,,,,,,0,,,73,0
56586,note_on,6,0,3,,,,,,,,,2,,,46,0
56586,note_on,0,0,3,,,,,,,,,2,,,34,0
56640,note_on,54,0,3,,,,,,,,,2,,,34,62
56640,note_on,0,0,3,,,,,,,,,2,,,46,62
56640,note_on,0,0,1,,,,,,,,,0,,,67,75
56640,note_on,54,0,1,,,,,,,,,0,,,64,75
56640,note_on,0,0,1,,,,,,,,,0,,,70,75
56640,note_on,0,0,1,,,,,,,,,0,,,73,75
56760,note_on,0,0,1,,,,,,,,,0,,,65,75
56760,note_on,120,0,1,,,,,,,,,0,,,73,0
56760,note_on,0,0,1,,,,,,,,,0,,,64,0
56760,note_on,0,0,1,,,,,,,,,0,,,67,0
56760,note_on,0,0,1,,,,,,,,,0,,,74,75
56820,note_on,60,0,1,,,,,,,,,0,,,74,0
56820,note_on,180,0,3,,,,,,,,,2,,,46,0
56820,note_on,0,0,3,,,,,,,,,2,,,34,0
56820,note_on,0,0,1,,,,,,,,,0,,,70,0
56820,note_on,0,0,1,,,,,,,,,0,,,65,0
56880,note_on,60,0,3,,,,,,,,,2,,,53,62
56880,note_on,60,0,1,,,,,,,,,0,,,65,75
56919,note_on,39,0,1,,,,,,,,,0,,,67,75
56919,note_on,39,0,3,,,,,,,,,2,,,55,62
56920,note_on,1,0,3,,,,,,,,,2,,,53,0
56920,note_on,1,0,1,,,,,,,,,0,,,65,0
56959,note_on,39,0,3,,,,,,,,,2,,,55,0
56959,note_on,39,0,1,,,,,,,,,0,,,67,0
56960,note_on,1,0,3,,,,,,,,,2,,,57,62
56960,note_on,1,0,1,,,,,,,,,0,,,69,75
57000,note_on,40,0,3,,,,,,,,,2,,,57,0
57000,note_on,0,0,3,,,,,,,,,2,,,58,62
57000,note_on,0,0,1,,,,,,,,,0,,,70,75
57000,note_on,40,0,1,,,,,,,,,0,,,69,0
57039,note_on,39,0,1,,,,,,,,,0,,,72,75
57039,note_on,39,0,3,,,,,,,,,2,,,60,62
57040,note_on,1,0,1,,,,,,,,,0,,,70,0
57040,note_on,1,0,3,,,,,,,,,2,,,58,0
57079,note_on,39,0,3,,,,,,,,,2,,,60,0
57079,note_on,39,0,1,,,,,,,,,0,,,72,0
57080,note_on,1,0,3,,,,,,,,,2,,,62,62
57080,note_on,1,0,1,,,,,,,,,0,,,74,75
57120,control_change,0,0,3,,,,,,,,,2,64,127,,
57120,note_on,40,0,3,,,,,,,,,2,,,62,0
57120,note_on,0,0,3,,,,,,,,,2,,,63,62
57120,control_change,0,0,1,,,,,,,,,0,64,127,,
57120,note_on,0,0,1,,,,,,,,,0,,,75,75
57120,note_on,40,0,1,,,,,,,,,0,,,74,0
57159,note_on,39,0,1,,,,,,,,,0,,,77,75
57159,note_on,39,0,3,,,,,,,,,2,,,65,62
57160,note_on,1,0,1,,,,,,,,,0,,,75,0
57160,note_on,1,0,3,,,,,,,,,2,,,63,0
57199,note_on,39,0,1,,,,,,,,,0,,,77,0
57199,note_on,39,0,3,,,,,,,,,2,,,65,0
57200,note_on,1,0,3,,,,,,,,,2,,,67,62
57200,note_on,1,0,1,,,,,,,,,0,,,79,75
57240,note_on,0,0,3,,,,,,,,,2,,,65,62
57240,control_change,0,0,3,,,,,,,,,2,64,0,,
57240,note_on,0,0,1,,,,,,,,,0,,,77,75
57240,control_change,0,0,1,,,,,,,,,0,64,0,,
57240,note_on,40,0,3,,,,,,,,,2,,,67,0
57240,note_on,40,0,1,,,,,,,,,0,,,79,0
57279,note_on,39,0,1,,,,,,,,,0,,,75,75
57279,note_on,39,0,3,,,,,,,,,2,,,63,62
57280,note_on,1,0,3,,,,,,,,,2,,,65,0
57280,note_on,1,0,1,,,,,,,,,0,,,77,0
57319,note_on,39,0,3,,,,,,,,,2,,,63,0
57319,note_on,39,0,1,,,,,,,,,0,,,75,0
57320,note_on,1,0,3,,,,,,,,,2,,,62,62
57320,note_on,1,0,1,,,,,,,,,0,,,74,75
57360,note_on,40,0,3,,,,,,,,,2,,,62,0
57360,note_on,0,0,3,,,,,,,,,2,,,61,62
57360,note_on,0,0,1,,,,,,,,,0,,,73,75
57360,note_on,40,0,1,,,,,,,,,0,,,74,0
57399,note_on,39,0,1,,,,,,,,,0,,,70,75
57399,note_on,39,0,3,,,,,,,,,2,,,58,62
57400,note_on,1,0,1,,,,,,,,,0,,,73,0
57400,note_on,1,0,3,,,,,,,,,2,,,61,0
57439,note_on,39,0,1,,,,,,,,,0,,,70,0
57439,note_on,39,0,3,,,,,,,,,2,,,58,0
57440,note_on,1,0,1,,,,,,,,,0,,,67,75
57440,note_on,1,0,3,,,,,,,,,2,,,55,62
57480,note_on,40,0,3,,,,,,,,,2,,,55,0
57480,note_on,0,0,3,,,,,,,,,2,,,52,62
57480,note_on,0,0,1,,,,,,,,,0,,,64,75
57480,note_on,40,0,1,,,,,,,,,0,,,67,0
57519,note_on,39,0,1,,,,,,,,,0,,,61,75
57519,note_on,39,0,3,,,,,,,,,2,,,49,62
57520,note_on,1,0,3,,,,,,,,,2,,,52,0
57520,note_on,1,0,1,,,,,,,,,0,,,64,0
57559,note_on,39,0,1,,,,,,,,,0,,,61,0
57559,note_on,39,0,3,,,,,,,,,2,,,49,0
57560,note_on,1,0,3,,,,,,,,,2,,,52,62
57560,note_on,1,0,1,,,,,,,,,0,,,64,75
57600,control_change,0,0,1,,,,,,,,,0,64,127,,
57600,note_on,0,0,3,,,,,,,,,2,,,53,62
57600,note_on,40,0,3,,,,,,,,,2,,,52,0
57600,control_change,0,0,3,,,,,,,,,2,64,127,,
57600,note_on,0,0,1,,,,,,,,,0,,,65,75
57600,note_on,40,0,1,,,,,,,,,0,,,64,0
57639,note_on,39,0,1,,,,,,,,,0,,,62,75
57639,note_on,39,0,3,,,,,,,,,2,,,50,62
57640,note_on,1,0,1,,,,,,,,,0,,,65,0
57640,note_on,1,0,3,,,,,,,,,2,,,53,0
57679,note_on,39,0,1,,,,,,,,,0,,,62,0
57679,note_on,39,0,3,,,,,,,,,2,,,50,0
57680,note_on,1,0,1,,,,,,,,,0,,,65,75
57680,note_on,1,0,3,,,,,,,,,2,,,53,62
57720,note_on,0,0,1,,,,,,,,,0,,,62,75
57720,note_on,40,0,1,,,,,,,,,0,,,65,0
57720,note_on,0,0,3,,,,,,,,,2,,,50,62
57720,note_on,40,0,3,,,,,,,,,2,,,53,0
57759,note_on,39,0,1,,,,,,,,,0,,,58,75
57759,note_on,39,0,3,,,,,,,,,2,,,46,62
57760,note_on,1,0,1,,,,,,,,,0,,,62,0
57760,note_on,1,0,3,,,,,,,,,2,,,50,0
57799,note_on,39,0,3,,,,,,,,,2,,,46,0
57799,note_on,39,0,1,,,,,,,,,0,,,58,0
57800,note_on,1,0,3,,,,,,,,,2,,,50,62
57800,note_on,1,0,1,,,,,,,,,0,,,62,75
57840,note_on,40,0,1,,,,,,,,,0,,,62,0
57840,control_change,0,0,1,,,,,,,,,0,64,0,,
57840,note_on,40,0,3,,,,,,,,,2,,,50,0
57840,control_change,0,0,3,,,,,,,,,2,64,0,,
57840,note_on,0,0,3,,,,,,,,,2,,,53,62
57840,note_on,0,0,1,,,,,,,,,0,,,65,75
57879,note_on,39,0,3,,,,,,,,,2,,,55,62
57879,note_on,39,0,1,,,,,,,,,0,,,67,75
57880,note_on,1,0,3,,,,,,,,,2,,,53,0
57880,note_on,1,0,1,,,,,,,,,0,,,65,0
57919,note_on,39,0,1,,,,,,,,,0,,,67,0
57919,note_on,39,0,3,,,,,,,,,2,,,55,0
57920,note_on,1,0,1,,,,,,,,,0,,,69,75
57920,note_on,1,0,3,,,,,,,,,2,,,57,62
57960,note_on,40,0,3,,,,,,,,,2,,,57,0
57960,note_on,0,0,1,,,,,,,,,0,,,70,75
57960,note_on,40,0,1,,,,,,,,,0,,,69,0
57960,note_on,0,0,3,,,,,,,,,2,,,58,62
57999,note_on,39,0,1,,,,,,,,,0,,,72,75
57999,note_on,39,0,3,,,,,,,,,2,,,60,62
58000,note_on,1,0,3,,,,,,,,,2,,,58,0
58000,note_on,1,0,1,,,,,,,,,0,,,70,0
58039,note_on,39,0,3,,,,,,,,,2,,,60,0
58039,note_on,39,0,1,,,,,,,,,0,,,72,0
58040,note_on,1,0,1,,,,,,,,,0,,,74,75
58040,note_on,1,0,3,,,,,,,,,2,,,62,62
58080,note_on,0,0,1,,,,,,,,,0,,,75,75
58080,control_change,0,0,1,,,,,,,,,0,64,127,,
58080,note_on,40,0,1,,,,,,,,,0,,,74,0
58080,note_on,0,0,3,,,,,,,,,2,,,63,62
58080,control_change,0,0,3,,,,,,,,,2,64,127,,
58080,note_on,40,0,3,,,,,,,,,2,,,62,0
58119,note_on,39,0,3,,,,,,,,,2,,,65,62
58119,note_on,39,0,1,,,,,,,,,0,,,77,75
58120,note_on,1,0,3,,,,,,,,,2,,,63,0
58120,note_on,1,0,1,,,,,,,,,0,,,75,0
58159,note_on,39,0,3,,,,,,,,,2,,,65,0
58159,note_on,39,0,1,,,,,,,,,0,,,77,0
58160,note_on,1,0,3,,,,,,,,,2,,,67,62
58160,note_on,1,0,1,,,,,,,,,0,,,79,75
58200,control_change,0,0,3,,,,,,,,,2,64,0,,
58200,note_on,40,0,1,,,,,,,,,0,,,79,0
58200,control_change,0,0,1,,,,,,,,,0,64,0,,
58200,note_on,0,0,3,,,,,,,,,2,,,65,62
58200,note_on,0,0,1,,,,,,,,,0,,,77,75
58200,note_on,40,0,3,,,,,,,,,2,,,67,0
58239,note_on,39,0,3,,,,,,,,,2,,,63,62
58239,note_on,39,0,1,,,,,,,,,0,,,75,75
58240,note_on,1,0,3,,,,,,,,,2,,,65,0
58240,note_on,1,0,1,,,,,,,,,0,,,77,0
58279,note_on,39,0,3,,,,,,,,,2,,,63,0
58279,note_on,39,0,1,,,,,,,,,0,,,75,0
58280,note_on,1,0,1,,,,,,,,,0,,,74,75
58280,note_on,1,0,3,,,,,,,,,2,,,62,62
58320,note_on,0,0,1,,,,,,,,,0,,,73,75
58320,note_on,0,0,3,,,,,,,,,2,,,61,62
58320,note_on,40,0,3,,,,,,,,,2,,,62,0
58320,note_on,40,0,1,,,,,,,,,0,,,74,0
58359,note_on,39,0,1,,,,,,,,,0,,,70,75
58359,note_on,39,0,3,,,,,,,,,2,,,58,62
58360,note_on,1,0,3,,,,,,,,,2,,,61,0
58360,note_on,1,0,1,,,,,,,,,0,,,73,0
58399,note_on,39,0,1,,,,,,,,,0,,,70,0
58399,note_on,39,0,3,,,,,,,,,2,,,58,0
58400,note_on,1,0,3,,,,,,,,,2,,,55,62
58400,note_on,1,0,1,,,,,,,,,0,,,67,75
58440,note_on,0,0,1,,,,,,,,,0,,,64,75
58440,note_on,40,0,1,,,,,,,,,0,,,67,0
58440,note_on,40,0,3,,,,,,,,,2,,,55,0
58440,note_on,0,0,3,,,,,,,,,2,,,52,62
58479,note_on,39,0,1,,,,,,,,,0,,,61,75
58479,note_on,39,0,3,,,,,,,,,2,,,49,62
58480,note_on,1,0,1,,,,,,,,,0,,,64,0
58480,note_on,1,0,3,,,,,,,,,2,,,52,0
58519,note_on,39,0,1,,,,,,,,,0,,,61,0
58519,note_on,39,0,3,,,,,,,,,2,,,49,0
58520,note_on,1,0,3,,,,,,,,,2,,,52,62
58520,note_on,1,0,1,,,,,,,,,0,,,64,75
58560,note_on,40,0,1,,,,,,,,,0,,,64,0
58560,note_on,40,0,3,,,,,,,,,2,,,52,0
58560,note_on,0,0,1,,,,,,,,,0,,,67,101
58560,note_on,0,0,3,,,,,,,,,2,,,43,88
58560,control_change,0,0,3,,,,,,,,,2,64,127,,
58560,control_change,0,0,1,,,,,,,,,0,64,127,,
58564,note_on,4,0,1,,,,,,,,,0,,,67,0
58599,note_on,35,0,1,,,,,,,,,0,,,64,75
58599,note_on,39,0,3,,,,,,,,,2,,,40,62
58600,note_on,1,0,3,,,,,,,,,2,,,43,0
58639,note_on,39,0,3,,,,,,,,,2,,,40,0
58639,note_on,40,0,1,,,,,,,,,0,,,64,0
58640,note_on,1,0,3,,,,,,,,,2,,,43,62
58640,note_on,1,0,1,,,,,,,,,0,,,67,75
58680,note_on,0,0,3,,,,,,,,,2,,,40,62
58680,note_on,40,0,1,,,,,,,,,0,,,67,0
58680,note_on,0,0,1,,,,,,,,,0,,,64,75
58680,note_on,40,0,3,,,,,,,,,2,,,43,0
58719,note_on,39,0,1,,,,,,,,,0,,,61,75
58719,note_on,39,0,3,,,,,,,,,2,,,37,62
58720,note_on,1,0,3,,,,,,,,,2,,,40,0
58720,note_on,1,0,1,,,,,,,,,0,,,64,0
58759,note_on,39,0,3,,,,,,,,,2,,,37,0
58759,note_on,39,0,1,,,,,,,,,0,,,61,0
58760,control_change,1,0,3,,,,,,,,,2,64,0,,
58760,note_on,0,0,3,,,,,,,,,2,,,40,62
58760,control_change,1,0,1,,,,,,,,,0,64,0,,
58760,note_on,0,0,1,,,,,,,,,0,,,64,75
58800,note_on,40,0,1,,,,,,,,,0,,,64,0
58800,note_on,0,0,1,,,,,,,,,0,,,68,114
58800,note_on,0,0,3,,,,,,,,,2,,,44,101
58800,control_change,0,0,1,,,,,,,,,0,64,127,,
58800,note_on,40,0,3,,,,,,,,,2,,,40,0
58800,control_change,0,0,3,,,,,,,,,2,64,127,,
58804,note_on,4,0,1,,,,,,,,,0,,,68,0
58839,note_on,39,0,3,,,,,,,,,2,,,40,75
58839,note_on,35,0,1,,,,,,,,,0,,,64,88
58840,note_on,1,0,3,,,,,,,,,2,,,44,0
58879,note_on,39,0,3,,,,,,,,,2,,,40,0
58879,note_on,40,0,1,,,,,,,,,0,,,64,0
58880,note_on,1,0,3,,,,,,,,,2,,,44,75
58880,note_on,1,0,1,,,,,,,,,0,,,68,88
58920,note_on,40,0,3,,,,,,,,,2,,,44,0
58920,note_on,0,0,1,,,,,,,,,0,,,64,88
58920,note_on,40,0,1,,,,,,,,,0,,,68,0
58920,note_on,0,0,3,,,,,,,,,2,,,40,75
58959,note_on,39,0,3,,,,,,,,,2,,,37,75
58959,note_on,39,0,1,,,,,,,,,0,,,61,88
58960,note_on,1,0,3,,,,,,,,,2,,,40,0
58960,note_on,1,0,1,,,,,,,,,0,,,64,0
58999,note_on,39,0,3,,,,,,,,,2,,,37,0
58999,note_on,39,0,1,,,,,,,,,0,,,61,0
59000,control_change,1,0,1,,,,,,,,,0,64,0,,
59000,note_on,0,0,3,,,,,,,,,2,,,40,75
59000,control_change,1,0,3,,,,,,,,,2,64,0,,
59000,note_on,0,0,1,,,,,,,,,0,,,64,88
59040,note_on,0,0,1,,,,,,,,,0,,,69,114
59040,note_on,40,0,1,,,,,,,,,0,,,64,0
59040,note_on,40,0,3,,,,,,,,,2,,,40,0
59040,control_change,0,0,3,,,,,,,,,2,64,127,,
59040,note_on,0,0,3,,,,,,,,,2,,,45,101
59040,control_change,0,0,1,,,,,,,,,0,64,127,,
59079,note_on,39,0,1,,,,,,,,,0,,,64,88
59079,note_on,39,0,3,,,,,,,,,2,,,40,75
59080,note_on,1,0,1,,,,,,,,,0,,,69,0
59080,note_on,1,0,3,,,,,,,,,2,,,45,0
59119,note_on,39,0,3,,,,,,,,,2,,,40,0
59119,note_on,39,0,1,,,,,,,,,0,,,64,0
59120,note_on,1,0,3,,,,,,,,,2,,,45,75
59120,note_on,1,0,1,,,,,,,,,0,,,69,88
59160,note_on,0,0,1,,,,,,,,,0,,,64,88
59160,note_on,0,0,3,,,,,,,,,2,,,40,75
59160,note_on,40,0,3,,,,,,,,,2,,,45,0
59160,note_on,40,0,1,,,,,,,,,0,,,69,0
59199,note_on,39,0,1,,,,,,,,,0,,,61,88
59199,note_on,39,0,3,,,,,,,,,2,,,37,75
59200,note_on,1,0,1,,,,,,,,,0,,,64,0
59200,note_on,1,0,3,,,,,,,,,2,,,40,0
59239,note_on,39,0,3,,,,,,,,,2,,,37,0
59239,note_on,39,0,1,,,,,,,,,0,,,61,0
59240,control_change,1,0,1,,,,,,,,,0,64,0,,
59240,note_on,0,0,1,,,,,,,,,0,,,64,88
59240,control_change,1,0,3,,,,,,,,,2,64,0,,
59240,note_on,0,0,3,,,,,,,,,2,,,40,75
59280,control_change,0,0,1,,,,,,,,,0,64,127,,
59280,note_on,0,0,1,,,,,,,,,0,,,69,114
59280,note_on,40,0,3,,,,,,,,,2,,,40,0
59280,control_change,0,0,3,,,,,,,,,2,64,127,,
59280,note_on,0,0,3,,,,,,,,,2,,,45,101
59280,note_on,40,0,1,,,,,,,,,0,,,64,0
59319,note_on,39,0,3,,,,,,,,,2,,,40,75
59319,note_on,39,0,1,,,,,,,,,0,,,64,88
59320,note_on,1,0,3,,,,,,,,,2,,,45,0
59320,note_on,1,0,1,,,,,,,,,0,,,69,0
59359,note_on,39,0,3,,,,,,,,,2,,,40,0
59359,note_on,39,0,1,,,,,,,,,0,,,64,0
59360,note_on,1,0,1,,,,,,,,,0,,,69,88
59360,note_on,1,0,3,,,,,,,,,2,,,45,75
59400,note_on,40,0,3,,,,,,,,,2,,,45,0
59400,note_on,0,0,3,,,,,,,,,2,,,40,75
59400,note_on,40,0,1,,,,,,,,,0,,,69,0
59400,note_on,0,0,1,,,,,,,,,0,,,64,88
59439,note_on,39,0,3,,,,,,,,,2,,,36,75
59439,note_on,39,0,1,,,,,,,,,0,,,60,88
59440,note_on,1,0,3,,,,,,,,,2,,,40,0
59440,note_on,1,0,1,,,,,,,,,0,,,64,0
59479,note_on,39,0,1,,,,,,,,,0,,,60,0
59479,note_on,39,0,3,,,,,,,,,2,,,36,0
59480,control_change,1,0,3,,,,,,,,,2,64,0,,
59480,note_on,0,0,1,,,,,,,,,0,,,64,88
59480,note_on,0,0,3,,,,,,,,,2,,,40,75
59480,control_change,1,0,1,,,,,,,,,0,64,0,,
59520,note_on,40,0,1,,,,,,,,,0,,,64,0
59520,note_on,0,0,1,,,,,,,,,0,,,74,114
59520,control_change,0,0,1,,,,,,,,,0,64,127,,
59520,note_on,0,0,3,,,,,,,,,2,,,35,101
59520,note_on,40,0,3,,,,,,,,,2,,,40,0
59520,control_change,0,0,3,,,,,,,,,2,64,127,,
59559,note_on,39,0,1,,,,,,,,,0,,,69,88
59559,note_on,39,0,3,,,,,,,,,2,,,41,75
59560,note_on,1,0,1,,,,,,,,,0,,,74,0
59560,note_on,1,0,3,,,,,,,,,2,,,35,0
59599,note_on,39,0,1,,,,,,,,,0,,,69,0
59599,note_on,39,0,3,,,,,,,,,2,,,41,0
59600,note_on,1,0,3,,,,,,,,,2,,,35,75
59600,note_on,1,0,1,,,,,,,,,0,,,74,88
59640,note_on,40,0,3,,,,,,,,,2,,,35,0
59640,note_on,0,0,3,,,,,,,,,2,,,41,75
59640,note_on,40,0,1,,,,,,,,,0,,,74,0
59640,note_on,0,0,1,,,,,,,,,0,,,69,88
59679,note_on,39,0,1,,,,,,,,,0,,,62,88
59679,note_on,39,0,3,,,,,,,,,2,,,47,75
59680,note_on,1,0,1,,,,,,,,,0,,,69,0
59680,note_on,1,0,3,,,,,,,,,2,,,41,0
59719,note_on,39,0,1,,,,,,,,,0,,,62,0
59719,note_on,39,0,3,,,,,,,,,2,,,47,0
59720,control_change,1,0,1,,,,,,,,,0,64,0,,
59720,note_on,0,0,1,,,,,,,,,0,,,69,88
59720,note_on,0,0,3,,,,,,,,,2,,,41,75
59720,control_change,1,0,3,,,,,,,,,2,64,0,,
59760,note_on,40,0,3,,,,,,,,,2,,,41,0
59760,note_on,0,0,3,,,,,,,,,2,,,34,101
59760,control_change,0,0,3,,,,,,,,,2,64,127,,
59760,control_change,0,0,1,,,,,,,,,0,64,127,,
59760,note_on,40,0,1,,,,,,,,,0,,,69,0
59760,note_on,0,0,1,,,,,,,,,0,,,80,114
59799,note_on,39,0,1,,,,,,,,,0,,,74,88
59799,note_on,39,0,3,,,,,,,,,2,,,41,75
59800,note_on,1,0,3,,,,,,,,,2,,,34,0
59800,note_on,1,0,1,,,,,,,,,0,,,80,0
59839,note_on,39,0,3,,,,,,,,,2,,,41,0
59839,note_on,39,0,1,,,,,,,,,0,,,74,0
59840,note_on,1,0,1,,,,,,,,,0,,,80,88
59840,note_on,1,0,3,,,,,,,,,2,,,34,75
59880,note_on,40,0,1,,,,,,,,,0,,,80,0
59880,note_on,0,0,3,,,,,,,,,2,,,41,75
59880,note_on,40,0,3,,,,,,,,,2,,,34,0
59880,note_on,0,0,1,,,,,,,,,0,,,74,88
59919,note_on,39,0,1,,,,,,,,,0,,,68,88
59919,note_on,39,0,3,,,,,,,,,2,,,46,75
59920,note_on,1,0,1,,,,,,,,,0,,,74,0
59920,note_on,1,0,3,,,,,,,,,2,,,41,0
59959,note_on,39,0,1,,,,,,,,,0,,,68,0
59959,note_on,39,0,3,,,,,,,,,2,,,46,0
59960,note_on,0,0,3,,,,,,,,,2,,,41,75
59960,note_on,0,0,1,,,,,,,,,0,,,74,88
59960,control_change,1,0,3,,,,,,,,,2,64,0,,
59960,control_change,1,0,1,,,,,,,,,0,64,0,,
60000,note_on,0,0,1,,,,,,,,,0,,,73,114
60000,note_on,0,0,3,,,,,,,,,2,,,33,101
60000,note_on,0,0,3,,,,,,,,,2,,,45,101
60000,note_on,40,0,1,,,,,,,,,0,,,74,0
60000,note_on,0,0,1,,,,,,,,,0,,,76,114
60000,note_on,0,0,1,,,,,,,,,0,,,81,114
60000,note_on,40,0,3,,,,,,,,,2,,,41,0
60000,note_on,0,0,1,,,,,,,,,0,,,69,114
60240,note_on,0,0,3,,,,,,,,,2,,,33,0
60240,note_on,0,0,3,,,,,,,,,2,,,57,36
60240,note_on,0,0,3,,,,,,,,,2,,,66,36
60240,note_on,240,0,3,,,,,,,,,2,,,45,0
60240,note_on,240,0,1,,,,,,,,,0,,,81,0
60240,note_on,0,0,1,,,,,,,,,0,,,69,0
60240,note_on,0,0,1,,,,,,,,,0,,,73,0
60240,note_on,0,0,1,,,,,,,,,0,,,76,0
60240,note_on,0,0,1,,,,,,,,,0,,,72,49
60240,note_on,0,0,1,,,,,,,,,0,,,75,49
60300,note_on,60,0,1,,,,,,,,,0,,,75,0
60300,note_on,0,0,1,,,,,,,,,0,,,72,0
60300,note_on,0,0,1,,,,,,,,,0,,,72,49
60300,note_on,0,0,1,,,,,,,,,0,,,75,49
60300,note_on,0,0,3,,,,,,,,,2,,,66,36
60300,note_on,0,0,3,,,,,,,,,2,,,57,36
60300,note_on,0,0,3,,,,,,,,,2,,,57,0
60300,note_on,60,0,3,,,,,,,,,2,,,66,0
60360,note_on,0,0,1,,,,,,,,,0,,,72,49
60360,note_on,0,0,1,,,,,,,,,0,,,75,49
60360,note_on,60,0,1,,,,,,,,,0,,,75,0
60360,note_on,0,0,1,,,,,,,,,0,,,72,0
60360,note_on,60,0,3,,,,,,,,,2,,,66,0
60360,note_on,0,0,3,,,,,,,,,2,,,57,0
60360,note_on,0,0,3,,,,,,,,,2,,,57,36
60360,note_on,0,0,3,,,,,,,,,2,,,66,36
60420,note_on,0,0,1,,,,,,,,,0,,,75,49
60420,note_on,0,0,1,,,,,,,,,0,,,72,49
60420,note_on,0,0,1,,,,,,,,,0,,,72,0
60420,note_on,60,0,1,,,,,,,,,0,,,75,0
60420,note_on,60,0,3,,,,,,,,,2,,,66,0
60420,note_on,0,0,3,,,,,,,,,2,,,57,0
60420,note_on,0,0,3,,,,,,,,,2,,,57,36
60420,note_on,0,0,3,,,,,,,,,2,,,66,36
60480,note_on,0,0,1,,,,,,,,,0,,,73,49
60480,note_on,0,0,3,,,,,,,,,2,,,57,0
60480,note_on,0,0,1,,,,,,,,,0,,,72,0
60480,note_on,0,0,3,,,,,,,,,2,,,57,36
60480,note_on,0,0,3,,,,,,,,,2,,,69,36
60480,note_on,0,0,1,,,,,,,,,0,,,76,49
60480,note_on,60,0,3,,,,,,,,,2,,,66,0
60480,note_on,60,0,1,,,,,,,,,0,,,75,0
60600,note_on,120,0,1,,,,,,,,,0,,,76,0
60600,note_on,0,0,1,,,,,,,,,0,,,85,49
60600,note_on,0,0,1,,,,,,,,,0,,,73,0
60600,note_on,120,0,3,,,,,,,,,2,,,69,0
60600,note_on,0,0,3,,,,,,,,,2,,,64,36
60660,note_on,60,0,1,,,,,,,,,0,,,85,0
60660,note_on,60,0,3,,,,,,,,,2,,,64,0
60660,note_on,0,0,3,,,,,,,,,2,,,57,0
60660,note_on,0,0,3,,,,,,,,,2,,,37,75
60660,note_on,17640,0,2,,,,,,,,,1,,,49,88
60720,note_on,60,0,3,,,,,,,,,2,,,37,0
60720,note_on,60,0,2,,,,,,,,,1,,,49,0
60720,note_on,0,0,2,,,,,,,,,1,,,50,88
60720,note_on,0,0,3,,,,,,,,,2,,,38,75
60759,note_on,39,0,2,,,,,,,,,1,,,49,88
60759,note_on,39,0,3,,,,,,,,,2,,,37,75
60760,note_on,1,0,3,,,,,,,,,2,,,38,0
60760,note_on,1,0,2,,,,,,,,,1,,,50,0
60799,note_on,39,0,2,,,,,,,,,1,,,49,0
60799,note_on,39,0,3,,,,,,,,,2,,,37,0
60800,note_on,1,0,3,,,,,,,,,2,,,35,75
60800,note_on,1,0,2,,,,,,,,,1,,,47,88
60840,note_on,0,0,3,,,,,,,,,2,,,41,75
60840,note_on,40,0,2,,,,,,,,,1,,,47,0
60840,note_on,0,0,2,,,,,,,,,1,,,53,88
60840,note_on,40,0,3,,,,,,,,,2,,,35,0
60879,note_on,39,0,2,,,,,,,,,1,,,52,88
60879,note_on,39,0,3,,,,,,,,,2,,,40,75
60880,note_on,1,0,2,,,,,,,,,1,,,53,0
60880,note_on,1,0,3,,,,,,,,,2,,,41,0
60919,note_on,39,0,2,,,,,,,,,1,,,52,0
60919,note_on,39,0,3,,,,,,,,,2,,,40,0
60920,note_on,1,0,2,,,,,,,,,1,,,50,88
60920,note_on,1,0,3,,,,,,,,,2,,,38,75
60960,control_change,0,0,2,,,,,,,,,1,64,127,,
60960,note_on,40,0,2,,,,,,,,,1,,,50,0
60960,note_on,0,0,2,,,,,,,,,1,,,49,49
60960,note_on,40,0,3,,,,,,,,,2,,,38,0
60960,note_on,0,0,3,,,,,,,,,2,,,40,75
60999,note_on,39,0,2,,,,,,,,,1,,,50,49
61000,note_on,1,0,2,,,,,,,,,1,,,49,0
61020,note_on,60,0,3,,,,,,,,,2,,,40,0
61039,note_on,39,0,2,,,,,,,,,1,,,50,0
61040,note_on,1,0,2,,,,,,,,,1,,,52,49
61080,note_on,19800,0,4,,,,,,,,,3,,,73,49
61080,note_on,0,0,4,,,,,,,,,3,,,76,49
61080,note_on,0,0,2,,,,,,,,,1,,,54,49
61080,note_on,40,0,2,,,,,,,,,1,,,52,0
61119,note_on,39,0,2,,,,,,,,,1,,,56,49
61120,note_on,1,0,2,,,,,,,,,1,,,54,0
61159,note_on,39,0,2,,,,,,,,,1,,,56,0
61160,note_on,0,0,2,,,,,,,,,1,,,57,49
61160,control_change,1,0,2,,,,,,,,,1,64,0,,
61170,note_on,0,0,4,,,,,,,,,3,,,76,49
61170,note_on,0,0,4,,,,,,,,,3,,,73,49
61170,note_on,0,0,4,,,,,,,,,3,,,73,0
61170,note_on,90,0,4,,,,,,,,,3,,,76,0
61200,note_on,0,0,4,,,,,,,,,3,,,71,49
61200,note_on,40,0,2,,,,,,,,,1,,,57,0
61200,note_on,30,0,4,,,,,,,,,3,,,76,0
61200,note_on,540,0,1,,,,,,,,,0,,,59,75
61200,note_on,0,0,4,,,,,,,,,3,,,73,0
61200,note_on,0,0,4,,,,,,,,,3,,,74,49
61239,note_on,39,0,1,,,,,,,,,0,,,61,75
61240,note_on,1,0,1,,,,,,,,,0,,,59,0
61260,note_on,60,0,4,,,,,,,,,3,,,74,0
61260,note_on,0,0,4,,,,,,,,,3,,,71,0
61279,note_on,39,0,1,,,,,,,,,0,,,61,0
61280,note_on,1,0,1,,,,,,,,,0,,,62,75
61280,note_on,260,0,3,,,,,,,,,2,,,52,62
61320,note_on,40,0,3,,,,,,,,,2,,,52,0
61320,note_on,0,0,3,,,,,,,,,2,,,50,62
61320,note_on,0,0,1,,,,,,,,,0,,,64,75
61320,note_on,40,0,1,,,,,,,,,0,,,62,0
61359,note_on,39,0,3,,,,,,,,,2,,,49,62
61359,note_on,39,0,1,,,,,,,,,0,,,66,75
61360,note_on,1,0,3,,,,,,,,,2,,,50,0
61360,note_on,1,0,1,,,,,,,,,0,,,64,0
61399,note_on,39,0,1,,,,,,,,,0,,,66,0
61399,note_on,39,0,3,,,,,,,,,2,,,49,0
61400,note_on,1,0,3,,,,,,,,,2,,,47,62
61400,note_on,1,0,1,,,,,,,,,0,,,68,75
61440,note_on,0,0,1,,,,,,,,,0,,,73,101
61440,note_on,0,0,1,,,,,,,,,0,,,76,101
61440,note_on,0,0,1,,,,,,,,,0,,,81,101
61440,note_on,0,0,3,,,,,,,,,2,,,45,88
61440,note_on,0,0,3,,,,,,,,,2,,,33,88
61440,note_on,40,0,3,,,,,,,,,2,,,47,0
61440,note_on,0,0,1,,,,,,,,,0,,,69,101
61440,note_on,40,0,1,,,,,,,,,0,,,68,0
61680,note_on,0,0,1,,,,,,,,,0,,,75,49
61680,note_on,0,0,1,,,,,,,,,0,,,72,49
61680,note_on,0,0,1,,,,,,,,,0,,,76,0
61680,note_on,0,0,1,,,,,,,,,0,,,73,0
61680,note_on,0,0,3,,,,,,,,,2,,,57,36
61680,note_on,0,0,3,,,,,,,,,2,,,66,36
61680,note_on,0,0,1,,,,,,,,,0,,,69,0
61680,note_on,0,0,3,,,,,,,,,2,,,33,0
61680,note_on,240,0,3,,,,,,,,,2,,,45,0
61680,note_on,240,0,1,,,,,,,,,0,,,81,0
61770,note_on,0,0,3,,,,,,,,,2,,,57,36
61770,note_on,0,0,3,,,,,,,,,2,,,57,0
61770,note_on,90,0,3,,,,,,,,,2,,,66,0
61770,note_on,0,0,1,,,,,,,,,0,,,75,49
61770,note_on,0,0,1,,,,,,,,,0,,,72,49
61770,note_on,0,0,1,,,,,,,,,0,,,72,0
61770,note_on,90,0,1,,,,,,,,,0,,,75,0
61770,note_on,0,0,3,,,,,,,,,2,,,66,36
61800,note_on,0,0,3,,,,,,,,,2,,,57,36
61800,note_on,0,0,1,,,,,,,,,0,,,72,0
61800,note_on,30,0,1,,,,,,,,,0,,,75,0
61800,note_on,0,0,3,,,,,,,,,2,,,66,36
61800,note_on,30,0,3,,,,,,,,,2,,,66,0
61800,note_on,0,0,3,,,,,,,,,2,,,57,0
61800,note_on,0,0,1,,,,,,,,,0,,,75,49
61800,note_on,0,0,1,,,,,,,,,0,,,72,49
61890,note_on,0,0,1,,,,,,,,,0,,,72,49
61890,note_on,0,0,1,,,,,,,,,0,,,75,49
61890,note_on,90,0,1,,,,,,,,,0,,,75,0
61890,note_on,90,0,3,,,,,,,,,2,,,66,0
61890,note_on,0,0,3,,,,,,,,,2,,,57,0
61890,note_on,0,0,3,,,,,,,,,2,,,57,36
61890,note_on,0,0,3,,,,,,,,,2,,,66,36
61890,note_on,0,0,1,,,,,,,,,0,,,72,0
61920,note_on,0,0,3,,,,,,,,,2,,,57,36
61920,note_on,0,0,3,,,,,,,,,2,,,57,0
61920,note_on,0,0,3,,,,,,,,,2,,,69,36
61920,note_on,30,0,3,,,,,,,,,2,,,66,0
61920,note_on,30,0,1,,,,,,,,,0,,,75,0
61920,note_on,0,0,1,,,,,,,,,0,,,72,0
61920,note_on,0,0,1,,,,,,,,,0,,,73,49
61920,note_on,0,0,1,,,,,,,,,0,,,76,49
62040,note_on,0,0,1,,,,,,,,,0,,,85,49
62040,note_on,0,0,3,,,,,,,,,2,,,64,36
62040,note_on,120,0,3,,,,,,,,,2,,,69,0
62040,note_on,0,0,1,,,,,,,,,0,,,73,0
62040,note_on,120,0,1,,,,,,,,,0,,,76,0
62100,note_on,900,0,2,,,,,,,,,1,,,49,88
62100,note_on,60,0,1,,,,,,,,,0,,,85,0
62100,note_on,60,0,3,,,,,,,,,2,,,64,0
62100,note_on,0,0,3,,,,,,,,,2,,,57,0
62100,note_on,0,0,3,,,,,,,,,2,,,37,75
62160,note_on,0,0,3,,,,,,,,,2,,,38,75
62160,note_on,0,0,2,,,,,,,,,1,,,50,88
62160,note_on,60,0,2,,,,,,,,,1,,,49,0
62160,note_on,60,0,3,,,,,,,,,2,,,37,0
62199,note_on,39,0,2,,,,,,,,,1,,,49,88
62199,note_on,39,0,3,,,,,,,,,2,,,37,75
62200,note_on,1,0,2,,,,,,,,,1,,,50,0
62200,note_on,1,0,3,,,,,,,,,2,,,38,0
62239,note_on,39,0,2,,,,,,,,,1,,,49,0
62239,note_on,39,0,3,,,,,,,,,2,,,37,0
62240,note_on,1,0,3,,,,,,,,,2,,,35,75
62240,note_on,1,0,2,,,,,,,,,1,,,47,88
62280,note_on,40,0,3,,,,,,,,,2,,,35,0
62280,note_on,0,0,3,,,,,,,,,2,,,41,75
62280,note_on,40,0,2,,,,,,,,,1,,,47,0
62280,note_on,0,0,2,,,,,,,,,1,,,53,88
62319,note_on,39,0,2,,,,,,,,,1,,,52,88
62319,note_on,39,0,3,,,,,,,,,2,,,40,75
62320,note_on,1,0,3,,,,,,,,,2,,,41,0
62320,note_on,1,0,2,,,,,,,,,1,,,53,0
62359,note_on,39,0,3,,,,,,,,,2,,,40,0
62359,note_on,39,0,2,,,,,,,,,1,,,52,0
62360,note_on,1,0,2,,,,,,,,,1,,,50,88
62360,note_on,1,0,3,,,,,,,,,2,,,38,75
62400,note_on,0,0,2,,,,,,,,,1,,,49,49
62400,note_on,40,0,3,,,,,,,,,2,,,38,0
62400,note_on,0,0,3,,,,,,,,,2,,,40,75
62400,note_on,40,0,2,,,,,,,,,1,,,50,0
62400,control_change,0,0,2,,,,,,,,,1,64,127,,
62439,note_on,39,0,2,,,,,,,,,1,,,50,49
62440,note_on,1,0,2,,,,,,,,,1,,,49,0
62460,note_on,60,0,3,,,,,,,,,2,,,40,0
62479,note_on,39,0,2,,,,,,,,,1,,,50,0
62480,note_on,1,0,2,,,,,,,,,1,,,52,49
62520,note_on,0,0,4,,,,,,,,,3,,,76,49
62520,note_on,1260,0,4,,,,,,,,,3,,,73,49
62520,note_on,40,0,2,,,,,,,,,1,,,52,0
62520,note_on,0,0,2,,,,,,,,,1,,,54,49
62559,note_on,39,0,2,,,,,,,,,1,,,56,49
62560,note_on,1,0,2,,,,,,,,,1,,,54,0
62599,note_on,39,0,2,,,,,,,,,1,,,56,0
62600,note_on,0,0,2,,,,,,,,,1,,,57,49
62600,control_change,1,0,2,,,,,,,,,1,64,0,,
62610,note_on,0,0,4,,,,,,,,,3,,,73,0
62610,note_on,0,0,4,,,,,,,,,3,,,73,49
62610,note_on,0,0,4,,,,,,,,,3,,,76,49
62610,note_on,90,0,4,,,,,,,,,3,,,76,0
62640,note_on,30,0,4,,,,,,,,,3,,,76,0
62640,note_on,0,0,4,,,,,,,,,3,,,74,49
62640,note_on,0,0,4,,,,,,,,,3,,,71,49
62640,note_on,40,0,2,,,,,,,,,1,,,57,0
62640,note_on,0,0,4,,,,,,,,,3,,,73,0
62640,note_on,540,0,1,,,,,,,,,0,,,59,75
62679,note_on,39,0,1,,,,,,,,,0,,,61,75
62680,note_on,1,0,1,,,,,,,,,0,,,59,0
62700,note_on,60,0,4,,,,,,,,,3,,,74,0
62700,note_on,0,0,4,,,,,,,,,3,,,71,0
62719,note_on,39,0,1,,,,,,,,,0,,,61,0
62720,note_on,1,0,1,,,,,,,,,0,,,62,75
62720,note_on,260,0,3,,,,,,,,,2,,,52,62
62760,note_on,40,0,3,,,,,,,,,2,,,52,0
62760,note_on,0,0,3,,,,,,,,,2,,,50,62
62760,note_on,0,0,1,,,,,,,,,0,,,64,75
62760,note_on,40,0,1,,,,,,,,,0,,,62,0
62799,note_on,39,0,1,,,,,,,,,0,,,66,75
62799,note_on,39,0,3,,,,,,,,,2,,,49,62
62800,note_on,1,0,1,,,,,,,,,0,,,64,0
62800,note_on,1,0,3,,,,,,,,,2,,,50,0
62839,note_on,39,0,1,,,,,,,,,0,,,66,0
62839,note_on,39,0,3,,,,,,,,,2,,,49,0
62840,note_on,1,0,3,,,,,,,,,2,,,47,62
62840,note_on,1,0,1,,,,,,,,,0,,,68,75
62880,note_on,40,0,3,,,,,,,,,2,,,47,0
62880,note_on,0,0,3,,,,,,,,,2,,,45,62
62880,note_on,0,0,1,,,,,,,,,0,,,69,75
62880,control_change,0,0,1,,,,,,,,,0,64,127,,
62880,note_on,40,0,1,,,,,,,,,0,,,68,0
62919,note_on,39,0,1,,,,,,,,,0,,,71,75
62920,note_on,1,0,1,,,,,,,,,0,,,69,0
62940,note_on,60,0,3,,,,,,,,,2,,,45,0
62959,note_on,39,0,1,,,,,,,,,0,,,71,0
62960,note_on,1,0,1,,,,,,,,,0,,,73,75
63000,note_on,40,0,1,,,,,,,,,0,,,73,0
63000,note_on,0,0,1,,,,,,,,,0,,,74,75
63039,note_on,39,0,1,,,,,,,,,0,,,76,75
63040,note_on,1,0,1,,,,,,,,,0,,,74,0
63079,note_on,39,0,1,,,,,,,,,0,,,76,0
63080,note_on,1,0,1,,,,,,,,,0,,,78,75
63120,note_on,40,0,1,,,,,,,,,0,,,78,0
63120,note_on,0,0,1,,,,,,,,,0,,,80,75
63120,control_change,0,0,1,,,,,,,,,0,64,0,,
63159,note_on,39,0,1,,,,,,,,,0,,,81,75
63160,note_on,1,0,1,,,,,,,,,0,,,80,0
63199,note_on,39,0,1,,,,,,,,,0,,,81,0
63200,note_on,1,0,1,,,,,,,,,0,,,83,75
63240,note_on,40,0,1,,,,,,,,,0,,,83,0
63240,note_on,0,0,1,,,,,,,,,0,,,85,75
63279,note_on,39,0,1,,,,,,,,,0,,,86,75
63280,note_on,1,0,1,,,,,,,,,0,,,85,0
63319,note_on,39,0,1,,,,,,,,,0,,,86,0
63320,note_on,1,0,1,,,,,,,,,0,,,88,75
63360,note_on,40,0,1,,,,,,,,,0,,,88,0
63360,control_change,0,0,1,,,,,,,,,0,64,127,,
63360,note_on,0,0,1,,,,,,,,,0,,,86,75
63399,note_on,39,0,1,,,,,,,,,0,,,85,75
63400,note_on,1,0,1,,,,,,,,,0,,,86,0
63439,note_on,39,0,1,,,,,,,,,0,,,85,0
63440,note_on,1,0,1,,,,,,,,,0,,,83,75
63480,note_on,40,0,1,,,,,,,,,0,,,83,0
63480,note_on,0,0,1,,,,,,,,,0,,,81,75
63519,note_on,39,0,1,,,,,,,,,0,,,80,75
63520,note_on,1,0,1,,,,,,,,,0,,,81,0
63559,note_on,39,0,1,,,,,,,,,0,,,80,0
63560,note_on,1,0,1,,,,,,,,,0,,,78,75
63600,note_on,0,0,1,,,,,,,,,0,,,76,75
63600,control_change,0,0,1,,,,,,,,,0,64,0,,
63600,note_on,40,0,1,,,,,,,,,0,,,78,0
63639,note_on,39,0,1,,,,,,,,,0,,,74,75
63640,note_on,1,0,1,,,,,,,,,0,,,76,0
63679,note_on,39,0,1,,,,,,,,,0,,,74,0
63680,note_on,1,0,1,,,,,,,,,0,,,73,75
63720,note_on,0,0,1,,,,,,,,,0,,,71,75
63720,note_on,40,0,1,,,,,,,,,0,,,73,0
63759,note_on,39,0,1,,,,,,,,,0,,,69,75
63760,note_on,1,0,1,,,,,,,,,0,,,71,0
63799,note_on,39,0,1,,,,,,,,,0,,,69,0
63800,note_on,1,0,1,,,,,,,,,0,,,68,75
63840,note_on,900,0,3,,,,,,,,,2,,,57,36
63840,note_on,0,0,1,,,,,,,,,0,,,69,49
63840,note_on,40,0,1,,,,,,,,,0,,,68,0
63960,note_on,0,0,3,,,,,,,,,2,,,49,36
63960,note_on,0,0,1,,,,,,,,,0,,,61,49
63960,note_on,120,0,1,,,,,,,,,0,,,69,0
63960,note_on,120,0,3,,,,,,,,,2,,,57,0
64020,note_on,60,0,3,,,,,,,,,2,,,49,0
64020,note_on,60,0,1,,,,,,,,,0,,,61,0
64080,note_on,60,0,3,,,,,,,,,2,,,59,36
64080,note_on,60,0,1,,,,,,,,,0,,,71,49
64200,note_on,0,0,1,,,,,,,,,0,,,64,49
64200,note_on,120,0,1,,,,,,,,,0,,,71,0
64200,note_on,120,0,3,,,,,,,,,2,,,59,0
64200,note_on,0,0,3,,,,,,,,,2,,,52,36
64260,note_on,60,0,1,,,,,,,,,0,,,64,0
64260,note_on,60,0,3,,,,,,,,,2,,,52,0
64305,note_on,45,0,1,,,,,,,,,0,,,64,49
64305,note_on,45,0,3,,,,,,,,,2,,,52,36
64320,note_on,0,0,1,,,,,,,,,0,,,73,49
64320,note_on,0,0,3,,,,,,,,,2,,,61,36
64320,note_on,15,0,3,,,,,,,,,2,,,52,0
64320,note_on,15,0,1,,,,,,,,,0,,,64,0
64440,note_on,0,0,3,,,,,,,,,2,,,57,36
64440,note_on,0,0,1,,,,,,,,,0,,,69,49
64440,note_on,120,0,1,,,,,,,,,0,,,73,0
64440,note_on,120,0,3,,,,,,,,,2,,,61,0
64500,note_on,60,0,3,,,,,,,,,2,,,57,0
64500,note_on,60,0,1,,,,,,,,,0,,,69,0
64545,note_on,45,0,3,,,,,,,,,2,,,57,36
64545,note_on,45,0,1,,,,,,,,,0,,,69,49
64560,control_change,0,0,1,,,,,,,,,0,64,127,,
64560,note_on,15,0,1,,,,,,,,,0,,,69,0
64560,note_on,0,0,1,,,,,,,,,0,,,78,75
64560,note_on,0,0,3,,,,,,,,,2,,,66,62
64560,control_change,0,0,3,,,,,,,,,2,64,127,,
64560,note_on,15,0,3,,,,,,,,,2,,,57,0
64650,note_on,90,0,1,,,,,,,,,0,,,78,0
64650,note_on,0,0,1,,,,,,,,,0,,,75,49
64650,note_on,90,0,3,,,,,,,,,2,,,66,0
64650,note_on,0,0,3,,,,,,,,,2,,,63,36
64680,note_on,0,0,3,,,,,,,,,2,,,66,36
64680,note_on,30,0,3,,,,,,,,,2,,,63,0
64680,note_on,30,0,1,,,,,,,,,0,,,75,0
64680,note_on,0,0,1,,,,,,,,,0,,,78,49
64770,note_on,90,0,1,,,,,,,,,0,,,78,0
64770,control_change,0,0,1,,,,,,,,,0,64,0,,
64770,note_on,0,0,1,,,,,,,,,0,,,75,49
64770,note_on,90,0,3,,,,,,,,,2,,,66,0
64770,control_change,0,0,3,,,,,,,,,2,64,0,,
64770,note_on,0,0,3,,,,,,,,,2,,,63,36
64800,note_on,0,0,1,,,,,,,,,0,,,76,75
64800,note_on,30,0,1,,,,,,,,,0,,,75,0
64800,note_on,0,0,3,,,,,,,,,2,,,64,62
64800,note_on,30,0,3,,,,,,,,,2,,,63,0
64920,note_on,0,0,3,,,,,,,,,2,,,52,36
64920,note_on,120,0,3,,,,,,,,,2,,,64,0
64920,note_on,0,0,1,,,,,,,,,0,,,64,49
64920,note_on,120,0,1,,,,,,,,,0,,,76,0
64980,note_on,60,0,1,,,,,,,,,0,,,64,0
64980,note_on,60,0,3,,,,,,,,,2,,,52,0
65025,note_on,45,0,3,,,,,,,,,2,,,52,36
65025,note_on,45,0,1,,,,,,,,,0,,,64,49
65040,note_on,15,0,1,,,,,,,,,0,,,64,0
65040,note_on,0,0,1,,,,,,,,,0,,,74,49
65040,note_on,15,0,3,,,,,,,,,2,,,52,0
65040,note_on,0,0,3,,,,,,,,,2,,,62,36
65160,note_on,0,0,1,,,,,,,,,0,,,71,49
65160,note_on,0,0,3,,,,,,,,,2,,,59,36
65160,note_on,120,0,3,,,,,,,,,2,,,62,0
65160,note_on,120,0,1,,,,,,,,,0,,,74,0
65220,note_on,60,0,3,,,,,,,,,2,,,59,0
65220,note_on,60,0,1,,,,,,,,,0,,,71,0
65265,note_on,45,0,3,,,,,,,,,2,,,59,36
65265,note_on,45,0,1,,,,,,,,,0,,,71,49
65280,note_on,15,0,1,,,,,,,,,0,,,71,0
65280,note_on,0,0,1,,,,,,,,,0,,,73,49
65280,note_on,15,0,3,,,,,,,,,2,,,59,0
65280,note_on,0,0,3,,,,,,,,,2,,,61,36
65400,note_on,120,0,1,,,,,,,,,0,,,73,0
65400,note_on,0,0,1,,,,,,,,,0,,,64,49
65400,note_on,120,0,3,,,,,,,,,2,,,61,0
65400,note_on,0,0,3,,,,,,,,,2,,,52,36
65460,note_on,60,0,1,,,,,,,,,0,,,64,0
65460,note_on,60,0,3,,,,,,,,,2,,,52,0
65505,note_on,45,0,3,,,,,,,,,2,,,52,36
65505,note_on,45,0,1,,,,,,,,,0,,,64,49
65520,note_on,0,0,3,,,,,,,,,2,,,59,36
65520,control_change,0,0,1,,,,,,,,,0,64,127,,
65520,note_on,0,0,1,,,,,,,,,0,,,71,49
65520,control_change,0,0,3,,,,,,,,,2,64,127,,
65520,note_on,15,0,3,,,,,,,,,2,,,52,0
65520,note_on,15,0,1,,,,,,,,,0,,,64,0
65610,note_on,90,0,3,,,,,,,,,2,,,59,0
65610,note_on,0,0,1,,,,,,,,,0,,,68,49
65610,note_on,90,0,1,,,,,,,,,0,,,71,0
65610,note_on,0,0,3,,,,,,,,,2,,,56,36
65640,note_on,0,0,1,,,,,,,,,0,,,71,49
65640,note_on,30,0,3,,,,,,,,,2,,,56,0
65640,note_on,0,0,3,,,,,,,,,2,,,59,36
65640,note_on,30,0,1,,,,,,,,,0,,,68,0
65730,control_change,0,0,1,,,,,,,,,0,64,0,,
65730,note_on,90,0,3,,,,,,,,,2,,,59,0
65730,control_change,0,0,3,,,,,,,,,2,64,0,,
65730,note_on,0,0,3,,,,,,,,,2,,,56,36
65730,note_on,90,0,1,,,,,,,,,0,,,71,0
65730,note_on,0,0,1,,,,,,,,,0,,,68,49
65760,note_on,30,0,1,,,,,,,,,0,,,68,0
65760,control_change,0,0,1,,,,,,,,,0,64,127,,
65760,note_on,0,0,3,,,,,,,,,2,,,57,36
65760,note_on,0,0,3,,,,,,,,,2,,,49,36
65760,note_on,30,0,3,,,,,,,,,2,,,56,0
65760,note_on,0,0,1,,,,,,,,,0,,,69,49
65799,note_on,39,0,1,,,,,,,,,0,,,64,49
65800,note_on,1,0,1,,,,,,,,,0,,,69,0
65839,note_on,39,0,1,,,,,,,,,0,,,64,0
65840,note_on,1,0,1,,,,,,,,,0,,,69,49
65880,note_on,120,0,3,,,,,,,,,2,,,57,0
65880,note_on,40,0,1,,,,,,,,,0,,,69,0
65880,control_change,0,0,1,,,,,,,,,0,64,0,,
65880,note_on,0,0,1,,,,,,,,,0,,,61,49
65880,note_on,0,0,3,,,,,,,,,2,,,49,0
65880,note_on,0,0,3,,,,,,,,,2,,,52,36
65940,note_on,60,0,1,,,,,,,,,0,,,61,0
65940,note_on,60,0,3,,,,,,,,,2,,,52,0
66000,note_on,0,0,3,,,,,,,,,2,,,59,36
66000,note_on,60,0,3,,,,,,,,,2,,,56,36
66000,control_change,60,0,1,,,,,,,,,0,64,127,,
66000,note_on,0,0,1,,,,,,,,,0,,,71,49
66039,note_on,39,0,1,,,,,,,,,0,,,68,49
66040,note_on,1,0,1,,,,,,,,,0,,,71,0
66079,note_on,39,0,1,,,,,,,,,0,,,68,0
66080,note_on,1,0,1,,,,,,,,,0,,,71,49
66120,note_on,0,0,3,,,,,,,,,2,,,56,0
66120,note_on,120,0,3,,,,,,,,,2,,,59,0
66120,note_on,40,0,1,,,,,,,,,0,,,71,0
66120,control_change,0,0,1,,,,,,,,,0,64,0,,
66120,note_on,0,0,1,,,,,,,,,0,,,64,49
66120,note_on,0,0,3,,,,,,,,,2,,,52,36
66180,note_on,60,0,1,,,,,,,,,0,,,64,0
66180,note_on,60,0,3,,,,,,,,,2,,,52,0
66240,note_on,0,0,1,,,,,,,,,0,,,73,49
66240,note_on,0,0,3,,,,,,,,,2,,,61,36
66240,note_on,60,0,3,,,,,,,,,2,,,52,36
66240,control_change,60,0,1,,,,,,,,,0,64,127,,
66279,note_on,39,0,1,,,,,,,,,0,,,71,49
66280,note_on,1,0,1,,,,,,,,,0,,,73,0
66319,note_on,39,0,1,,,,,,,,,0,,,71,0
66320,note_on,1,0,1,,,,,,,,,0,,,73,49
66360,note_on,120,0,3,,,,,,,,,2,,,61,0
66360,note_on,0,0,3,,,,,,,,,2,,,57,36
66360,note_on,0,0,3,,,,,,,,,2,,,52,0
66360,note_on,0,0,1,,,,,,,,,0,,,69,49
66360,control_change,0,0,1,,,,,,,,,0,64,0,,
66360,note_on,40,0,1,,,,,,,,,0,,,73,0
66420,note_on,60,0,1,,,,,,,,,0,,,69,0
66420,note_on,60,0,3,,,,,,,,,2,,,57,0
66480,control_change,60,0,3,,,,,,,,,2,64,127,,
66480,note_on,0,0,1,,,,,,,,,0,,,78,49
66480,control_change,60,0,1,,,,,,,,,0,64,127,,
66480,note_on,0,0,3,,,,,,,,,2,,,60,36
66480,note_on,0,0,3,,,,,,,,,2,,,63,36
66519,note_on,39,0,1,,,,,,,,,0,,,75,49
66520,note_on,1,0,1,,,,,,,,,0,,,78,0
66559,note_on,39,0,1,,,,,,,,,0,,,75,0
66560,note_on,1,0,1,,,,,,,,,0,,,78,49
66570,note_on,0,0,3,,,,,,,,,2,,,60,0
66570,note_on,0,0,3,,,,,,,,,2,,,57,36
66570,note_on,90,0,3,,,,,,,,,2,,,63,0
66600,note_on,0,0,1,,,,,,,,,0,,,81,49
66600,note_on,40,0,1,,,,,,,,,0,,,78,0
66600,note_on,30,0,3,,,,,,,,,2,,,57,0
66600,note_on,0,0,3,,,,,,,,,2,,,60,36
66600,note_on,0,0,3,,,,,,,,,2,,,63,36
66639,note_on,39,0,1,,,,,,,,,0,,,78,49
66640,note_on,1,0,1,,,,,,,,,0,,,81,0
66679,note_on,39,0,1,,,,,,,,,0,,,78,0
66680,note_on,0,0,1,,,,,,,,,0,,,75,49
66680,control_change,1,0,1,,,,,,,,,0,64,0,,
66690,note_on,0,0,3,,,,,,,,,2,,,60,0
66690,note_on,90,0,3,,,,,,,,,2,,,63,0
66690,control_change,0,0,3,,,,,,,,,2,64,0,,
66690,note_on,0,0,3,,,,,,,,,2,,,57,36
66720,note_on,0,0,3,,,,,,,,,2,,,64,36
66720,note_on,30,0,3,,,,,,,,,2,,,57,0
66720,note_on,0,0,1,,,,,,,,,0,,,76,49
66720,control_change,0,0,1,,,,,,,,,0,64,127,,
66720,note_on,40,0,1,,,,,,,,,0,,,75,0
66720,note_on,0,0,3,,,,,,,,,2,,,61,36
66759,note_on,39,0,1,,,,,,,,,0,,,73,49
66760,note_on,1,0,1,,,,,,,,,0,,,76,0
66799,note_on,39,0,1,,,,,,,,,0,,,73,0
66800,note_on,1,0,1,,,,,,,,,0,,,76,49
66840,control_change,0,0,1,,,,,,,,,0,64,0,,
66840,note_on,0,0,1,,,,,,,,,0,,,64,49
66840,note_on,40,0,1,,,,,,,,,0,,,76,0
66840,note_on,120,0,3,,,,,,,,,2,,,64,0
66840,note_on,0,0,3,,,,,,,,,2,,,52,36
66840,note_on,0,0,3,,,,,,,,,2,,,61,0
66900,note_on,60,0,1,,,,,,,,,0,,,64,0
66900,note_on,60,0,3,,,,,,,,,2,,,52,0
66960,note_on,0,0,3,,,,,,,,,2,,,62,36
66960,control_change,60,0,1,,,,,,,,,0,64,127,,
66960,note_on,0,0,1,,,,,,,,,0,,,74,49
66960,note_on,60,0,3,,,,,,,,,2,,,59,36
66999,note_on,39,0,1,,,,,,,,,0,,,73,49
67000,note_on,1,0,1,,,,,,,,,0,,,74,0
67039,note_on,39,0,1,,,,,,,,,0,,,73,0
67040,note_on,1,0,1,,,,,,,,,0,,,74,49
67080,note_on,0,0,3,,,,,,,,,2,,,59,0
67080,note_on,120,0,3,,,,,,,,,2,,,62,0
67080,note_on,0,0,3,,,,,,,,,2,,,52,36
67080,note_on,40,0,1,,,,,,,,,0,,,74,0
67080,control_change,0,0,1,,,,,,,,,0,64,0,,
67080,note_on,0,0,1,,,,,,,,,0,,,71,49
67140,note_on,60,0,3,,,,,,,,,2,,,52,0
67140,note_on,60,0,1,,,,,,,,,0,,,71,0
67200,note_on,0,0,3,,,,,,,,,2,,,61,36
67200,note_on,60,0,3,,,,,,,,,2,,,57,36
67200,control_change,60,0,1,,,,,,,,,0,64,127,,
67200,note_on,0,0,1,,,,,,,,,0,,,73,49
67239,note_on,39,0,1,,,,,,,,,0,,,69,49
67240,note_on,1,0,1,,,,,,,,,0,,,73,0
67279,note_on,39,0,1,,,,,,,,,0,,,69,0
67280,note_on,1,0,1,,,,,,,,,0,,,73,49
67320,note_on,40,0,1,,,,,,,,,0,,,73,0
67320,control_change,0,0,1,,,,,,,,,0,64,0,,
67320,note_on,0,0,1,,,,,,,,,0,,,64,49
67320,note_on,120,0,3,,,,,,,,,2,,,61,0
67320,note_on,0,0,3,,,,,,,,,2,,,52,36
67320,note_on,0,0,3,,,,,,,,,2,,,57,0
67380,note_on,60,0,1,,,,,,,,,0,,,64,0
67380,note_on,60,0,3,,,,,,,,,2,,,52,0
67440,note_on,0,0,3,,,,,,,,,2,,,59,36
67440,note_on,0,0,1,,,,,,,,,0,,,71,49
67440,control_change,60,0,1,,,,,,,,,0,64,127,,
67440,note_on,0,0,3,,,,,,,,,2,,,56,36
67440,control_change,60,0,3,,,,,,,,,2,64,127,,
67530,note_on,0,0,3,,,,,,,,,2,,,52,36
67530,note_on,0,0,3,,,,,,,,,2,,,56,0
67530,note_on,90,0,3,,,,,,,,,2,,,59,0
67530,note_on,0,0,1,,,,,,,,,0,,,68,49
67530,note_on,90,0,1,,,,,,,,,0,,,71,0
67560,note_on,0,0,3,,,,,,,,,2,,,56,36
67560,note_on,0,0,3,,,,,,,,,2,,,59,36
67560,note_on,0,0,1,,,,,,,,,0,,,71,49
67560,note_on,30,0,1,,,,,,,,,0,,,68,0
67560,note_on,30,0,3,,,,,,,,,2,,,52,0
67650,control_change,0,0,1,,,,,,,,,0,64,0,,
67650,note_on,90,0,1,,,,,,,,,0,,,71,0
67650,note_on,0,0,1,,,,,,,,,0,,,68,49
67650,note_on,0,0,3,,,,,,,,,2,,,56,0
67650,note_on,0,0,3,,,,,,,,,2,,,52,36
67650,control_change,0,0,3,,,,,,,,,2,64,0,,
67650,note_on,90,0,3,,,,,,,,,2,,,59,0
67680,control_change,0,0,1,,,,,,,,,0,64,127,,
67680,note_on,30,0,1,,,,,,,,,0,,,68,0
67680,note_on,0,0,3,,,,,,,,,2,,,59,88
67680,control_change,0,0,3,,,,,,,,,2,64,127,,
67680,note_on,30,0,3,,,,,,,,,2,,,52,0
67680,note_on,0,0,1,,,,,,,,,0,,,71,101
67719,note_on,39,0,1,,,,,,,,,0,,,62,101
67719,note_on,39,0,3,,,,,,,,,2,,,50,88
67720,note_on,1,0,1,,,,,,,,,0,,,71,0
67720,note_on,1,0,3,,,,,,,,,2,,,59,0
67759,note_on,39,0,3,,,,,,,,,2,,,50,0
67759,note_on,39,0,1,,,,,,,,,0,,,62,0
67760,note_on,1,0,1,,,,,,,,,0,,,71,101
67760,note_on,1,0,3,,,,,,,,,2,,,59,88
67800,note_on,0,0,3,,,,,,,,,2,,,43,88
67800,note_on,0,0,1,,,,,,,,,0,,,55,101
67800,note_on,40,0,3,,,,,,,,,2,,,59,0
67800,note_on,40,0,1,,,,,,,,,0,,,71,0
68010,note_on,210,0,1,,,,,,,,,0,,,55,0
68010,note_on,0,0,3,,,,,,,,,2,,,59,88
68010,note_on,0,0,1,,,,,,,,,0,,,71,101
68010,note_on,0,0,3,,,,,,,,,2,,,50,88
68010,note_on,210,0,3,,,,,,,,,2,,,43,0
68010,note_on,0,0,1,,,,,,,,,0,,,62,101
68040,note_on,30,0,3,,,,,,,,,2,,,59,0
68040,note_on,30,0,1,,,,,,,,,0,,,71,0
68040,note_on,0,0,1,,,,,,,,,0,,,62,0
68040,note_on,0,0,1,,,,,,,,,0,,,55,101
68040,note_on,0,0,3,,,,,,,,,2,,,50,0
68040,note_on,0,0,3,,,,,,,,,2,,,43,88
68130,note_on,90,0,1,,,,,,,,,0,,,55,0
68130,note_on,0,0,1,,,,,,,,,0,,,62,101
68130,note_on,90,0,3,,,,,,,,,2,,,43,0
68130,note_on,0,0,3,,,,,,,,,2,,,50,88
68160,note_on,30,0,1,,,,,,,,,0,,,62,0
68160,note_on,0,0,1,,,,,,,,,0,,,71,101
68160,note_on,30,0,3,,,,,,,,,2,,,50,0
68160,note_on,0,0,3,,,,,,,,,2,,,59,88
68199,note_on,39,0,1,,,,,,,,,0,,,62,101
68199,note_on,39,0,3,,,,,,,,,2,,,50,88
68200,note_on,1,0,3,,,,,,,,,2,,,59,0
68200,note_on,1,0,1,,,,,,,,,0,,,71,0
68239,note_on,39,0,3,,,,,,,,,2,,,50,0
68239,note_on,39,0,1,,,,,,,,,0,,,62,0
68240,note_on,1,0,3,,,,,,,,,2,,,59,88
68240,note_on,1,0,1,,,,,,,,,0,,,71,101
68280,note_on,40,0,3,,,,,,,,,2,,,59,0
68280,note_on,0,0,1,,,,,,,,,0,,,55,101
68280,note_on,40,0,1,,,,,,,,,0,,,71,0
68280,note_on,0,0,3,,,,,,,,,2,,,43,88
68490,note_on,0,0,1,,,,,,,,,0,,,71,101
68490,note_on,210,0,1,,,,,,,,,0,,,55,0
68490,note_on,0,0,3,,,,,,,,,2,,,59,88
68490,note_on,0,0,3,,,,,,,,,2,,,50,88
68490,note_on,0,0,1,,,,,,,,,0,,,62,101
68490,note_on,210,0,3,,,,,,,,,2,,,43,0
68520,note_on,30,0,3,,,,,,,,,2,,,59,0
68520,note_on,30,0,1,,,,,,,,,0,,,71,0
68520,note_on,0,0,3,,,,,,,,,2,,,43,88
68520,note_on,0,0,3,,,,,,,,,2,,,50,0
68520,note_on,0,0,1,,,,,,,,,0,,,62,0
68520,note_on,0,0,1,,,,,,,,,0,,,55,101
68730,note_on,0,0,3,,,,,,,,,2,,,59,88
68730,note_on,0,0,3,,,,,,,,,2,,,50,88
68730,note_on,210,0,3,,,,,,,,,2,,,43,0
68730,note_on,0,0,1,,,,,,,,,0,,,62,101
68730,note_on,210,0,1,,,,,,,,,0,,,55,0
68730,note_on,0,0,1,,,,,,,,,0,,,71,101
68760,note_on,30,0,1,,,,,,,,,0,,,71,0
68760,note_on,0,0,3,,,,,,,,,2,,,50,0
68760,note_on,30,0,3,,,,,,,,,2,,,59,0
68760,note_on,0,0,1,,,,,,,,,0,,,62,0
68760,note_on,0,0,1,,,,,,,,,0,,,55,127
68760,note_on,0,0,3,,,,,,,,,2,,,43,114
68970,note_on,0,0,1,,,,,,,,,0,,,62,101
68970,note_on,0,0,1,,,,,,,,,0,,,71,101
68970,note_on,210,0,3,,,,,,,,,2,,,43,0
68970,note_on,0,0,3,,,,,,,,,2,,,59,88
68970,note_on,0,0,3,,,,,,,,,2,,,50,88
68970,note_on,210,0,1,,,,,,,,,0,,,55,0
69000,note_on,30,0,1,,,,,,,,,0,,,71,0
69000,note_on,0,0,1,,,,,,,,,0,,,62,0
69000,note_on,0,0,3,,,,,,,,,2,,,43,114
69000,note_on,0,0,3,,,,,,,,,2,,,50,0
69000,note_on,30,0,3,,,,,,,,,2,,,59,0
69000,note_on,0,0,1,,,,,,,,,0,,,55,127
69090,control_change,0,0,1,,,,,,,,,0,64,0,,
69090,control_change,0,0,3,,,,,,,,,2,64,0,,
69090,note_on,0,0,3,,,,,,,,,2,,,55,88
69090,note_on,0,0,1,,,,,,,,,0,,,71,101
69090,note_on,0,0,1,,,,,,,,,0,,,62,101
69090,note_on,90,0,1,,,,,,,,,0,,,55,0
69090,note_on,90,0,3,,,,,,,,,2,,,43,0
69120,note_on,30,0,3,,,,,,,,,2,,,55,0
69120,control_change,0,0,3,,,,,,,,,2,64,127,,
69120,control_change,0,0,1,,,,,,,,,0,64,127,,
69120,note_on,0,0,1,,,,,,,,,0,,,72,101
69120,note_on,0,0,1,,,,,,,,,0,,,62,0
69120,note_on,30,0,1,,,,,,,,,0,,,71,0
69120,note_on,0,0,3,,,,,,,,,2,,,48,88
69159,note_on,39,0,1,,,,,,,,,0,,,64,101
69159,note_on,39,0,3,,,,,,,,,2,,,55,88
69160,note_on,1,0,3,,,,,,,,,2,,,48,0
69160,note_on,1,0,1,,,,,,,,,0,,,72,0
69199,note_on,39,0,1,,,,,,,,,0,,,64,0
69199,note_on,39,0,3,,,,,,,,,2,,,55,0
69200,note_on,1,0,3,,,,,,,,,2,,,48,88
69200,note_on,1,0,1,,,,,,,,,0,,,72,101
69240,note_on,40,0,1,,,,,,,,,0,,,72,0
69240,note_on,0,0,1,,,,,,,,,0,,,76,127
69240,note_on,40,0,3,,,,,,,,,2,,,48,0
69240,note_on,0,0,3,,,,,,,,,2,,,36,114
69450,note_on,210,0,1,,,,,,,,,0,,,76,0
69450,note_on,0,0,1,,,,,,,,,0,,,64,101
69450,note_on,210,0,3,,,,,,,,,2,,,36,0
69450,note_on,0,0,3,,,,,,,,,2,,,48,88
69450,note_on,0,0,3,,,,,,,,,2,,,55,88
69480,note_on,0,0,1,,,,,,,,,0,,,76,127
69480,note_on,0,0,1,,,,,,,,,0,,,72,119
69480,note_on,30,0,3,,,,,,,,,2,,,55,0
69480,note_on,0,0,3,,,,,,,,,2,,,36,114
69480,note_on,30,0,1,,,,,,,,,0,,,64,0
69480,note_on,0,0,3,,,,,,,,,2,,,48,0
69570,note_on,0,0,3,,,,,,,,,2,,,55,88
69570,note_on,0,0,1,,,,,,,,,0,,,64,101
69570,note_on,0,0,1,,,,,,,,,0,,,72,0
69570,note_on,90,0,1,,,,,,,,,0,,,76,0
69570,note_on,90,0,3,,,,,,,,,2,,,36,0
69600,note_on,30,0,3,,,,,,,,,2,,,55,0
69600,note_on,0,0,1,,,,,,,,,0,,,72,101
69600,note_on,30,0,1,,,,,,,,,0,,,64,0
69600,note_on,0,0,3,,,,,,,,,2,,,48,88
69639,note_on,39,0,3,,,,,,,,,2,,,55,88
69639,note_on,39,0,1,,,,,,,,,0,,,64,101
69640,note_on,1,0,3,,,,,,,,,2,,,48,0
69640,note_on,1,0,1,,,,,,,,,0,,,72,0
69679,note_on,39,0,1,,,,,,,,,0,,,64,0
69679,note_on,39,0,3,,,,,,,,,2,,,55,0
69680,note_on,1,0,1,,,,,,,,,0,,,72,101
69680,note_on,1,0,3,,,,,,,,,2,,,48,88
69720,note_on,40,0,3,,,,,,,,,2,,,48,0
69720,note_on,0,0,1,,,,,,,,,0,,,76,127
69720,note_on,40,0,1,,,,,,,,,0,,,72,0
69720,note_on,0,0,3,,,,,,,,,2,,,36,114
69930,note_on,0,0,1,,,,,,,,,0,,,64,101
69930,note_on,210,0,1,,,,,,,,,0,,,76,0
69930,note_on,0,0,3,,,,,,,,,2,,,48,88
69930,note_on,0,0,3,,,,,,,,,2,,,55,88
69930,note_on,210,0,3,,,,,,,,,2,,,36,0
69960,note_on,0,0,1,,,,,,,,,0,,,76,127
69960,note_on,30,0,1,,,,,,,,,0,,,64,0
69960,note_on,0,0,3,,,,,,,,,2,,,36,114
69960,note_on,0,0,3,,,,,,,,,2,,,48,0
69960,note_on,30,0,3,,,,,,,,,2,,,55,0
69960,note_on,0,0,1,,,,,,,,,0,,,72,119
70170,note_on,0,0,1,,,,,,,,,0,,,64,101
70170,note_on,0,0,3,,,,,,,,,2,,,55,88
70170,note_on,0,0,1,,,,,,,,,0,,,72,0
70170,note_on,0,0,3,,,,,,,,,2,,,48,88
70170,note_on,210,0,1,,,,,,,,,0,,,76,0
70170,note_on,210,0,3,,,,,,,,,2,,,36,0
70200,control_change,0,0,1,,,,,,,,,0,64,0,,
70200,note_on,0,0,1,,,,,,,,,0,,,72,119
70200,note_on,0,0,1,,,,,,,,,0,,,76,127
70200,note_on,30,0,1,,,,,,,,,0,,,64,0
70200,note_on,30,0,3,,,,,,,,,2,,,55,0
70200,note_on,0,0,3,,,,,,,,,2,,,36,114
70200,control_change,0,0,3,,,,,,,,,2,64,0,,
70200,note_on,0,0,3,,,,,,,,,2,,,48,0
70410,control_change,0,0,3,,,,,,,,,2,64,127,,
70410,note_on,210,0,3,,,,,,,,,2,,,36,0
70410,control_change,0,0,1,,,,,,,,,0,64,127,,
70410,note_on,0,0,1,,,,,,,,,0,,,64,101
70410,note_on,0,0,1,,,,,,,,,0,,,72,0
70410,note_on,210,0,1,,,,,,,,,0,,,76,0
70410,note_on,0,0,3,,,,,,,,,2,,,40,88
70440,note_on,0,0,1,,,,,,,,,0,,,74,122
70440,note_on,30,0,1,,,,,,,,,0,,,64,0
70440,note_on,0,0,1,,,,,,,,,0,,,68,117
70440,note_on,0,0,1,,,,,,,,,0,,,76,127
70440,note_on,30,0,3,,,,,,,,,2,,,40,0
70440,note_on,0,0,3,,,,,,,,,2,,,35,114
70650,note_on,0,0,1,,,,,,,,,0,,,74,0
70650,note_on,210,0,3,,,,,,,,,2,,,35,0
70650,note_on,210,0,1,,,,,,,,,0,,,76,0
70650,note_on,0,0,1,,,,,,,,,0,,,68,0
70650,note_on,0,0,1,,,,,,,,,0,,,64,49
70650,note_on,0,0,3,,,,,,,,,2,,,40,36
70680,note_on,30,0,3,,,,,,,,,2,,,40,0
70680,note_on,0,0,1,,,,,,,,,0,,,74,49
70680,note_on,0,0,1,,,,,,,,,0,,,76,49
70680,note_on,0,0,3,,,,,,,,,2,,,35,36
70680,note_on,0,0,1,,,,,,,,,0,,,68,49
70680,note_on,30,0,1,,,,,,,,,0,,,64,0
70770,note_on,90,0,1,,,,,,,,,0,,,76,0
70770,note_on,0,0,1,,,,,,,,,0,,,74,0
70770,note_on,0,0,1,,,,,,,,,0,,,64,49
70770,note_on,0,0,1,,,,,,,,,0,,,68,0
70770,note_on,0,0,3,,,,,,,,,2,,,40,36
70770,note_on,90,0,3,,,,,,,,,2,,,35,0
70800,note_on,30,0,3,,,,,,,,,2,,,40,0
70800,note_on,0,0,3,,,,,,,,,2,,,35,36
70800,note_on,0,0,1,,,,,,,,,0,,,76,49
70800,note_on,0,0,1,,,,,,,,,0,,,74,49
70800,note_on,0,0,1,,,,,,,,,0,,,68,49
70800,note_on,30,0,1,,,,,,,,,0,,,64,0
70890,note_on,0,0,1,,,,,,,,,0,,,64,49
70890,note_on,90,0,3,,,,,,,,,2,,,35,0
70890,note_on,0,0,3,,,,,,,,,2,,,40,36
70890,note_on,0,0,1,,,,,,,,,0,,,68,0
70890,note_on,0,0,1,,,,,,,,,0,,,74,0
70890,note_on,90,0,1,,,,,,,,,0,,,76,0
70920,note_on,0,0,1,,,,,,,,,0,,,68,49
70920,note_on,0,0,1,,,,,,,,,0,,,76,49
70920,note_on,0,0,1,,,,,,,,,0,,,74,49
70920,note_on,0,0,3,,,,,,,,,2,,,35,36
70920,note_on,30,0,3,,,,,,,,,2,,,40,0
70920,note_on,30,0,1,,,,,,,,,0,,,64,0
71010,note_on,0,0,1,,,,,,,,,0,,,68,0
71010,note_on,90,0,1,,,,,,,,,0,,,76,0
71010,note_on,0,0,1,,,,,,,,,0,,,74,0
71010,control_change,0,0,3,,,,,,,,,2,64,0,,
71010,control_change,0,0,1,,,,,,,,,0,64,0,,
71010,note_on,90,0,3,,,,,,,,,2,,,35,0
71010,note_on,0,0,3,,,,,,,,,2,,,40,36
71010,note_on,0,0,1,,,,,,,,,0,,,64,49
71040,note_on,0,0,3,,,,,,,,,2,,,33,36
71040,note_on,0,0,1,,,,,,,,,0,,,76,49
71040,note_on,0,0,1,,,,,,,,,0,,,73,49
71040,note_on,0,0,1,,,,,,,,,0,,,69,49
71040,control_change,0,0,1,,,,,,,,,0,64,127,,
71040,note_on,30,0,1,,,,,,,,,0,,,64,0
71040,note_on,30,0,3,,,,,,,,,2,,,40,0
71079,note_on,39,0,1,,,,,,,,,0,,,64,49
71080,note_on,0,0,1,,,,,,,,,0,,,73,0
71080,note_on,0,0,1,,,,,,,,,0,,,69,0
71080,note_on,1,0,1,,,,,,,,,0,,,76,0
71100,note_on,60,0,3,,,,,,,,,2,,,33,0
71119,note_on,39,0,1,,,,,,,,,0,,,64,0
71120,note_on,1,0,1,,,,,,,,,0,,,69,49
71160,note_on,0,0,1,,,,,,,,,0,,,73,49
71160,note_on,40,0,1,,,,,,,,,0,,,69,0
71199,note_on,39,0,1,,,,,,,,,0,,,76,49
71200,note_on,1,0,1,,,,,,,,,0,,,73,0
71239,note_on,39,0,1,,,,,,,,,0,,,76,0
71240,note_on,1,0,1,,,,,,,,,0,,,81,49
71280,note_on,40,0,1,,,,,,,,,0,,,81,0
71280,note_on,0,0,1,,,,,,,,,0,,,76,49
71319,note_on,39,0,1,,,,,,,,,0,,,69,49
71319,control_change,8679,0,2,,,,,,,,,1,64,127,,
71319,note_on,0,0,2,,,,,,,,,1,,,57,36
71320,note_on,1,0,1,,,,,,,,,0,,,76,0
71359,note_on,39,0,1,,,,,,,,,0,,,69,0
71359,note_on,40,0,2,,,,,,,,,1,,,57,0
71360,note_on,1,0,1,,,,,,,,,0,,,73,49
71360,note_on,1,0,2,,,,,,,,,1,,,61,36
71400,note_on,0,0,2,,,,,,,,,1,,,64,36
71400,note_on,40,0,2,,,,,,,,,1,,,61,0
71400,note_on,0,0,1,,,,,,,,,0,,,76,49
71400,note_on,40,0,1,,,,,,,,,0,,,73,0
71439,note_on,39,0,2,,,,,,,,,1,,,69,36
71439,note_on,39,0,1,,,,,,,,,0,,,81,49
71440,note_on,1,0,2,,,,,,,,,1,,,64,0
71440,note_on,1,0,1,,,,,,,,,0,,,76,0
71479,note_on,39,0,2,,,,,,,,,1,,,69,0
71479,note_on,39,0,1,,,,,,,,,0,,,81,0
71480,note_on,0,0,1,,,,,,,,,0,,,85,49
71480,control_change,1,0,1,,,,,,,,,0,64,0,,
71480,note_on,0,0,2,,,,,,,,,1,,,73,36
71480,control_change,1,0,2,,,,,,,,,1,64,0,,
71520,note_on,0,0,1,,,,,,,,,0,,,76,49
71520,note_on,40,0,2,,,,,,,,,1,,,73,0
71520,note_on,40,0,1,,,,,,,,,0,,,85,0
71520,note_on,420,0,3,,,,,,,,,2,,,64,36
71559,note_on,39,0,1,,,,,,,,,0,,,78,49
71560,note_on,1,0,1,,,,,,,,,0,,,76,0
71580,note_on,60,0,3,,,,,,,,,2,,,64,0
71599,note_on,39,0,1,,,,,,,,,0,,,78,0
71600,note_on,1,0,1,,,,,,,,,0,,,76,49
71640,note_on,0,0,3,,,,,,,,,2,,,59,36
71640,note_on,0,0,3,,,,,,,,,2,,,62,36
71640,note_on,0,0,1,,,,,,,,,0,,,74,49
71640,note_on,40,0,1,,,,,,,,,0,,,76,0
71640,note_on,60,0,3,,,,,,,,,2,,,52,36
71679,note_on,39,0,1,,,,,,,,,0,,,78,49
71680,note_on,1,0,1,,,,,,,,,0,,,74,0
71700,note_on,60,0,3,,,,,,,,,2,,,62,0
71700,note_on,0,0,3,,,,,,,,,2,,,59,0
71700,note_on,0,0,3,,,,,,,,,2,,,52,0
71719,note_on,39,0,1,,,,,,,,,0,,,78,0
71720,note_on,1,0,1,,,,,,,,,0,,,74,49
71760,note_on,60,0,3,,,,,,,,,2,,,52,36
71760,note_on,0,0,3,,,,,,,,,2,,,57,36
71760,note_on,0,0,3,,,,,,,,,2,,,61,36
71760,note_on,0,0,1,,,,,,,,,0,,,73,49
71760,note_on,40,0,1,,,,,,,,,0,,,74,0
71799,note_on,39,0,1,,,,,,,,,0,,,76,49
71800,note_on,1,0,1,,,,,,,,,0,,,73,0
71820,note_on,0,0,3,,,,,,,,,2,,,52,0
71820,note_on,0,0,3,,,,,,,,,2,,,57,0
71820,note_on,60,0,3,,,,,,,,,2,,,61,0
71839,note_on,39,0,1,,,,,,,,,0,,,76,0
71840,note_on,1,0,1,,,,,,,,,0,,,73,49
71880,note_on,0,0,3,,,,,,,,,2,,,59,36
71880,note_on,0,0,3,,,,,,,,,2,,,56,36
71880,note_on,60,0,3,,,,,,,,,2,,,52,36
71880,note_on,0,0,1,,,,,,,,,0,,,71,49
71880,note_on,40,0,1,,,,,,,,,0,,,73,0
71919,note_on,39,0,1,,,,,,,,,0,,,74,49
71920,note_on,1,0,1,,,,,,,,,0,,,71,0
71940,note_on,0,0,3,,,,,,,,,2,,,52,0
71940,note_on,60,0,3,,,,,,,,,2,,,59,0
71940,note_on,0,0,3,,,,,,,,,2,,,56,0
71959,note_on,39,0,1,,,,,,,,,0,,,74,0
71960,note_on,1,0,1,,,,,,,,,0,,,71,49
72000,note_on,40,0,1,,,,,,,,,0,,,71,0
72000,control_change,0,0,1,,,,,,,,,0,64,127,,
72000,note_on,0,0,1,,,,,,,,,0,,,69,49
72000,note_on,0,0,3,,,,,,,,,2,,,61,36
72000,note_on,60,0,3,,,,,,,,,2,,,57,36
72039,note_on,39,0,1,,,,,,,,,0,,,64,49
72040,note_on,1,0,1,,,,,,,,,0,,,69,0
72060,note_on,60,0,3,,,,,,,,,2,,,61,0
72060,note_on,0,0,3,,,,,,,,,2,,,57,0
72079,note_on,39,0,1,,,,,,,,,0,,,64,0
72080,note_on,1,0,1,,,,,,,,,0,,,69,49
72120,note_on,40,0,1,,,,,,,,,0,,,69,0
72120,note_on,0,0,1,,,,,,,,,0,,,73,49
72159,note_on,39,0,1,,,,,,,,,0,,,76,49
72160,note_on,1,0,1,,,,,,,,,0,,,73,0
72199,note_on,39,0,1,,,,,,,,,0,,,76,0
72200,note_on,1,0,1,,,,,,,,,0,,,81,49
72240,note_on,40,0,1,,,,,,,,,0,,,81,0
72240,note_on,0,0,1,,,,,,,,,0,,,76,49
72279,note_on,39,0,1,,,,,,,,,0,,,73,49
72279,note_on,0,0,2,,,,,,,,,1,,,61,36
72279,control_change,759,0,2,,,,,,,,,1,64,127,,
72280,note_on,1,0,1,,,,,,,,,0,,,76,0
72319,note_on,39,0,1,,,,,,,,,0,,,73,0
72319,note_on,40,0,2,,,,,,,,,1,,,61,0
72320,note_on,1,0,1,,,,,,,,,0,,,76,49
72320,note_on,1,0,2,,,,,,,,,1,,,64,36
72360,note_on,0,0,1,,,,,,,,,0,,,81,49
72360,note_on,40,0,1,,,,,,,,,0,,,76,0
72360,note_on,0,0,2,,,,,,,,,1,,,69,36
72360,note_on,40,0,2,,,,,,,,,1,,,64,0
72399,note_on,39,0,2,,,,,,,,,1,,,73,36
72399,note_on,39,0,1,,,,,,,,,0,,,85,49
72400,note_on,1,0,1,,,,,,,,,0,,,81,0
72400,note_on,1,0,2,,,,,,,,,1,,,69,0
72439,note_on,39,0,2,,,,,,,,,1,,,73,0
72439,note_on,39,0,1,,,,,,,,,0,,,85,0
72440,control_change,1,0,2,,,,,,,,,1,64,0,,
72440,note_on,0,0,2,,,,,,,,,1,,,76,36
72440,note_on,0,0,1,,,,,,,,,0,,,88,49
72440,control_change,1,0,1,,,,,,,,,0,64,0,,
72480,note_on,40,0,2,,,,,,,,,1,,,76,0
72480,note_on,40,0,1,,,,,,,,,0,,,88,0
72480,note_on,0,0,1,,,,,,,,,0,,,76,49
72480,note_on,420,0,3,,,,,,,,,2,,,64,36
72519,note_on,39,0,1,,,,,,,,,0,,,78,49
72520,note_on,1,0,1,,,,,,,,,0,,,76,0
72540,note_on,60,0,3,,,,,,,,,2,,,64,0
72559,note_on,39,0,1,,,,,,,,,0,,,78,0
72560,note_on,1,0,1,,,,,,,,,0,,,76,49
72600,note_on,0,0,3,,,,,,,,,2,,,59,36
72600,note_on,60,0,3,,,,,,,,,2,,,52,36
72600,note_on,0,0,1,,,,,,,,,0,,,74,49
72600,note_on,0,0,3,,,,,,,,,2,,,62,36
72600,note_on,40,0,1,,,,,,,,,0,,,76,0
72639,note_on,39,0,1,,,,,,,,,0,,,76,49
72640,note_on,1,0,1,,,,,,,,,0,,,74,0
72660,note_on,0,0,3,,,,,,,,,2,,,59,0
72660,note_on,60,0,3,,,,,,,,,2,,,62,0
72660,note_on,0,0,3,,,,,,,,,2,,,52,0
72679,note_on,39,0,1,,,,,,,,,0,,,76,0
72680,note_on,1,0,1,,,,,,,,,0,,,74,49
72720,note_on,0,0,1,,,,,,,,,0,,,73,49
72720,note_on,40,0,1,,,,,,,,,0,,,74,0
72720,note_on,60,0,3,,,,,,,,,2,,,52,36
72720,note_on,0,0,3,,,,,,,,,2,,,57,36
72720,note_on,0,0,3,,,,,,,,,2,,,61,36
72759,note_on,39,0,1,,,,,,,,,0,,,74,49
72760,note_on,1,0,1,,,,,,,,,0,,,73,0
72780,note_on,60,0,3,,,,,,,,,2,,,61,0
72780,note_on,0,0,3,,,,,,,,,2,,,57,0
72780,note_on,0,0,3,,,,,,,,,2,,,52,0
72799,note_on,39,0,1,,,,,,,,,0,,,74,0
72800,note_on,1,0,1,,,,,,,,,0,,,73,49
72840,note_on,40,0,1,,,,,,,,,0,,,73,0
72840,note_on,60,0,3,,,,,,,,,2,,,52,36
72840,note_on,0,0,1,,,,,,,,,0,,,71,49
72840,note_on,0,0,3,,,,,,,,,2,,,56,36
72840,note_on,0,0,3,,,,,,,,,2,,,59,36
72879,note_on,39,0,1,,,,,,,,,0,,,73,49
72880,note_on,1,0,1,,,,,,,,,0,,,71,0
72900,note_on,60,0,3,,,,,,,,,2,,,59,0
72900,note_on,0,0,3,,,,,,,,,2,,,56,0
72900,note_on,0,0,3,,,,,,,,,2,,,52,0
72919,note_on,39,0,1,,,,,,,,,0,,,73,0
72920,note_on,1,0,1,,,,,,,,,0,,,71,49
72960,note_on,60,0,3,,,,,,,,,2,,,57,49
72960,note_on,40,0,1,,,,,,,,,0,,,71,0
72960,control_change,0,0,1,,,,,,,,,0,64,127,,
72960,note_on,0,0,1,,,,,,,,,0,,,61,36
72999,note_on,39,0,1,,,,,,,,,0,,,64,36
73000,note_on,1,0,1,,,,,,,,,0,,,61,0
73039,note_on,39,0,1,,,,,,,,,0,,,64,0
73040,control_change,1,0,1,,,,,,,,,0,64,0,,
73040,note_on,0,0,1,,,,,,,,,0,,,61,36
73080,note_on,0,0,1,,,,,,,,,0,,,64,36
73080,note_on,40,0,1,,,,,,,,,0,,,61,0
73080,note_on,0,0,3,,,,,,,,,2,,,49,49
73080,note_on,120,0,3,,,,,,,,,2,,,57,0
73119,note_on,39,0,1,,,,,,,,,0,,,69,36
73120,note_on,1,0,1,,,,,,,,,0,,,64,0
73140,note_on,60,0,3,,,,,,,,,2,,,49,0
73159,note_on,39,0,1,,,,,,,,,0,,,69,0
73160,note_on,1,0,1,,,,,,,,,0,,,64,36
73200,note_on,0,0,1,,,,,,,,,0,,,64,36
73200,note_on,60,0,3,,,,,,,,,2,,,59,49
73200,control_change,0,0,1,,,,,,,,,0,64,127,,
73200,note_on,40,0,1,,,,,,,,,0,,,64,0
73239,note_on,39,0,1,,,,,,,,,0,,,68,36
73240,note_on,1,0,1,,,,,,,,,0,,,64,0
73279,note_on,39,0,1,,,,,,,,,0,,,68,0
73280,note_on,0,0,1,,,,,,,,,0,,,64,36
73280,control_change,1,0,1,,,,,,,,,0,64,0,,
73320,note_on,120,0,3,,,,,,,,,2,,,59,0
73320,note_on,0,0,3,,,,,,,,,2,,,52,49
73320,note_on,0,0,1,,,,,,,,,0,,,68,36
73320,note_on,40,0,1,,,,,,,,,0,,,64,0
73359,note_on,39,0,1,,,,,,,,,0,,,71,36
73360,note_on,1,0,1,,,,,,,,,0,,,68,0
73380,note_on,60,0,3,,,,,,,,,2,,,52,0
73399,note_on,39,0,1,,,,,,,,,0,,,71,0
73400,note_on,1,0,1,,,,,,,,,0,,,68,36
73440,control_change,0,0,1,,,,,,,,,0,64,127,,
73440,note_on,0,0,1,,,,,,,,,0,,,64,36
73440,note_on,40,0,1,,,,,,,,,0,,,68,0
73440,note_on,60,0,3,,,,,,,,,2,,,61,49
73479,note_on,39,0,1,,,,,,,,,0,,,69,36
73480,note_on,1,0,1,,,,,,,,,0,,,64,0
73519,note_on,39,0,1,,,,,,,,,0,,,69,0
73520,control_change,1,0,1,,,,,,,,,0,64,0,,
73520,note_on,0,0,1,,,,,,,,,0,,,64,36
73560,note_on,0,0,3,,,,,,,,,2,,,57,49
73560,note_on,120,0,3,,,,,,,,,2,,,61,0
73560,note_on,40,0,1,,,,,,,,,0,,,64,0
73560,note_on,0,0,1,,,,,,,,,0,,,69,36
73599,note_on,39,0,1,,,,,,,,,0,,,73,36
73600,note_on,1,0,1,,,,,,,,,0,,,69,0
73620,note_on,60,0,3,,,,,,,,,2,,,57,0
73639,note_on,39,0,1,,,,,,,,,0,,,73,0
73640,note_on,1,0,1,,,,,,,,,0,,,69,36
73680,control_change,60,0,3,,,,,,,,,2,64,127,,
73680,control_change,0,0,1,,,,,,,,,0,64,127,,
73680,note_on,0,0,1,,,,,,,,,0,,,69,36
73680,note_on,0,0,3,,,,,,,,,2,,,66,49
73680,note_on,40,0,1,,,,,,,,,0,,,69,0
73719,note_on,39,0,1,,,,,,,,,0,,,72,36
73720,note_on,1,0,1,,,,,,,,,0,,,69,0
73759,note_on,39,0,1,,,,,,,,,0,,,72,0
73760,note_on,1,0,1,,,,,,,,,0,,,69,36
73770,note_on,90,0,3,,,,,,,,,2,,,66,0
73770,note_on,0,0,3,,,,,,,,,2,,,63,49
73800,note_on,30,0,3,,,,,,,,,2,,,63,0
73800,note_on,0,0,3,,,,,,,,,2,,,66,49
73800,note_on,40,0,1,,,,,,,,,0,,,69,0
73800,note_on,0,0,1,,,,,,,,,0,,,72,36
73839,note_on,39,0,1,,,,,,,,,0,,,75,36
73840,note_on,1,0,1,,,,,,,,,0,,,72,0
73879,note_on,39,0,1,,,,,,,,,0,,,75,0
73880,control_change,1,0,1,,,,,,,,,0,64,0,,
73880,note_on,0,0,1,,,,,,,,,0,,,72,36
73890,note_on,0,0,3,,,,,,,,,2,,,63,49
73890,control_change,0,0,3,,,,,,,,,2,64,0,,
73890,note_on,90,0,3,,,,,,,,,2,,,66,0
73920,control_change,0,0,1,,,,,,,,,0,64,127,,
73920,note_on,30,0,3,,,,,,,,,2,,,63,0
73920,note_on,0,0,3,,,,,,,,,2,,,64,49
73920,note_on,40,0,1,,,,,,,,,0,,,72,0
73920,note_on,0,0,1,,,,,,,,,0,,,69,36
73959,note_on,39,0,1,,,,,,,,,0,,,73,36
73960,note_on,1,0,1,,,,,,,,,0,,,69,0
73999,note_on,39,0,1,,,,,,,,,0,,,73,0
74000,control_change,1,0,1,,,,,,,,,0,64,0,,
74000,note_on,0,0,1,,,,,,,,,0,,,69,36
74040,note_on,120,0,3,,,,,,,,,2,,,64,0
74040,note_on,0,0,1,,,,,,,,,0,,,73,36
74040,note_on,40,0,1,,,,,,,,,0,,,69,0
74040,note_on,0,0,3,,,,,,,,,2,,,52,49
74079,note_on,39,0,1,,,,,,,,,0,,,76,36
74080,note_on,1,0,1,,,,,,,,,0,,,73,0
74100,note_on,60,0,3,,,,,,,,,2,,,52,0
74119,note_on,39,0,1,,,,,,,,,0,,,76,0
74120,note_on,1,0,1,,,,,,,,,0,,,73,36
74160,note_on,60,0,3,,,,,,,,,2,,,62,49
74160,note_on,0,0,1,,,,,,,,,0,,,64,36
74160,control_change,0,0,1,,,,,,,,,0,64,127,,
74160,note_on,40,0,1,,,,,,,,,0,,,73,0
74199,note_on,39,0,1,,,,,,,,,0,,,71,36
74200,note_on,1,0,1,,,,,,,,,0,,,64,0
74239,note_on,39,0,1,,,,,,,,,0,,,71,0
74240,note_on,0,0,1,,,,,,,,,0,,,64,36
74240,control_change,1,0,1,,,,,,,,,0,64,0,,
74280,note_on,0,0,3,,,,,,,,,2,,,59,49
74280,note_on,0,0,1,,,,,,,,,0,,,71,36
74280,note_on,40,0,1,,,,,,,,,0,,,64,0
74280,note_on,120,0,3,,,,,,,,,2,,,62,0
74319,note_on,39,0,1,,,,,,,,,0,,,74,36
74320,note_on,1,0,1,,,,,,,,,0,,,71,0
74340,note_on,60,0,3,,,,,,,,,2,,,59,0
74359,note_on,39,0,1,,,,,,,,,0,,,74,0
74360,note_on,1,0,1,,,,,,,,,0,,,71,36
74400,note_on,0,0,1,,,,,,,,,0,,,64,36
74400,note_on,60,0,3,,,,,,,,,2,,,61,49
74400,control_change,0,0,1,,,,,,,,,0,64,127,,
74400,note_on,40,0,1,,,,,,,,,0,,,71,0
74439,note_on,39,0,1,,,,,,,,,0,,,69,36
74440,note_on,1,0,1,,,,,,,,,0,,,64,0
74479,note_on,39,0,1,,,,,,,,,0,,,69,0
74480,note_on,0,0,1,,,,,,,,,0,,,64,36
74480,control_change,1,0,1,,,,,,,,,0,64,0,,
74520,note_on,120,0,3,,,,,,,,,2,,,61,0
74520,note_on,0,0,3,,,,,,,,,2,,,52,49
74520,note_on,40,0,1,,,,,,,,,0,,,64,0
74520,note_on,0,0,1,,,,,,,,,0,,,69,36
74559,note_on,39,0,1,,,,,,,,,0,,,73,36
74560,note_on,1,0,1,,,,,,,,,0,,,69,0
74580,note_on,60,0,3,,,,,,,,,2,,,52,0
74599,note_on,39,0,1,,,,,,,,,0,,,73,0
74600,note_on,1,0,1,,,,,,,,,0,,,69,36
74640,note_on,0,0,1,,,,,,,,,0,,,64,36
74640,control_change,0,0,1,,,,,,,,,0,64,127,,
74640,note_on,40,0,1,,,,,,,,,0,,,69,0
74640,control_change,60,0,3,,,,,,,,,2,64,127,,
74640,note_on,0,0,3,,,,,,,,,2,,,59,49
74679,note_on,39,0,1,,,,,,,,,0,,,68,36
74680,note_on,1,0,1,,,,,,,,,0,,,64,0
74719,note_on,39,0,1,,,,,,,,,0,,,68,0
74720,note_on,1,0,1,,,,,,,,,0,,,64,36
74730,note_on,0,0,3,,,,,,,,,2,,,56,49
74730,note_on,90,0,3,,,,,,,,,2,,,59,0
74760,note_on,0,0,1,,,,,,,,,0,,,68,36
74760,note_on,0,0,3,,,,,,,,,2,,,59,49
74760,note_on,30,0,3,,,,,,,,,2,,,56,0
74760,note_on,40,0,1,,,,,,,,,0,,,64,0
74799,note_on,39,0,1,,,,,,,,,0,,,71,36
74800,note_on,1,0,1,,,,,,,,,0,,,68,0
74839,note_on,39,0,1,,,,,,,,,0,,,71,0
74840,note_on,0,0,1,,,,,,,,,0,,,68,36
74840,control_change,1,0,1,,,,,,,,,0,64,0,,
74850,control_change,0,0,3,,,,,,,,,2,64,0,,
74850,note_on,0,0,3,,,,,,,,,2,,,52,49
74850,note_on,90,0,3,,,,,,,,,2,,,59,0
74880,note_on,40,0,1,,,,,,,,,0,,,68,0
74880,control_change,0,0,1,,,,,,,,,0,64,127,,
74880,control_change,2400,0,2,,,,,,,,,1,64,127,,
74880,note_on,30,0,3,,,,,,,,,2,,,52,0
74880,note_on,0,0,2,,,,,,,,,1,,,69,36
74880,note_on,0,0,1,,,,,,,,,0,,,73,36
74919,note_on,39,0,2,,,,,,,,,1,,,64,36
74919,note_on,39,0,1,,,,,,,,,0,,,76,36
74920,note_on,1,0,2,,,,,,,,,1,,,69,0
74920,note_on,1,0,1,,,,,,,,,0,,,73,0
74959,note_on,39,0,2,,,,,,,,,1,,,64,0
74959,note_on,39,0,1,,,,,,,,,0,,,76,0
74960,note_on,1,0,1,,,,,,,,,0,,,73,36
74960,control_change,1,0,2,,,,,,,,,1,64,0,,
74960,note_on,0,0,2,,,,,,,,,1,,,69,36
75000,note_on,0,0,1,,,,,,,,,0,,,76,36
75000,note_on,40,0,1,,,,,,,,,0,,,73,0
75000,note_on,40,0,2,,,,,,,,,1,,,69,0
75000,note_on,0,0,2,,,,,,,,,1,,,61,36
75039,note_on,39,0,1,,,,,,,,,0,,,81,36
75040,note_on,1,0,1,,,,,,,,,0,,,76,0
75060,note_on,60,0,2,,,,,,,,,1,,,61,0
75079,note_on,39,0,1,,,,,,,,,0,,,81,0
75080,note_on,1,0,1,,,,,,,,,0,,,76,36
75120,note_on,40,0,1,,,,,,,,,0,,,76,0
75120,control_change,0,0,1,,,,,,,,,0,64,127,,
75120,note_on,0,0,2,,,,,,,,,1,,,71,36
75120,control_change,60,0,2,,,,,,,,,1,64,127,,
75120,note_on,0,0,1,,,,,,,,,0,,,76,36
75159,note_on,39,0,2,,,,,,,,,1,,,68,36
75159,note_on,39,0,1,,,,,,,,,0,,,80,36
75160,note_on,1,0,1,,,,,,,,,0,,,76,0
75160,note_on,1,0,2,,,,,,,,,1,,,71,0
75199,note_on,39,0,2,,,,,,,,,1,,,68,0
75199,note_on,39,0,1,,,,,,,,,0,,,80,0
75200,control_change,1,0,2,,,,,,,,,1,64,0,,
75200,control_change,1,0,1,,,,,,,,,0,64,0,,
75200,note_on,0,0,1,,,,,,,,,0,,,76,36
75200,note_on,0,0,2,,,,,,,,,1,,,71,36
75240,note_on,40,0,1,,,,,,,,,0,,,76,0
75240,note_on,0,0,1,,,,,,,,,0,,,80,36
75240,note_on,0,0,2,,,,,,,,,1,,,64,36
75240,note_on,40,0,2,,,,,,,,,1,,,71,0
75279,note_on,39,0,1,,,,,,,,,0,,,83,36
75280,note_on,1,0,1,,,,,,,,,0,,,80,0
75300,note_on,60,0,2,,,,,,,,,1,,,64,0
75319,note_on,39,0,1,,,,,,,,,0,,,83,0
75320,note_on,1,0,1,,,,,,,,,0,,,80,36
75360,control_change,0,0,1,,,,,,,,,0,64,127,,
75360,note_on,0,0,2,,,,,,,,,1,,,73,36
75360,note_on,0,0,1,,,,,,,,,0,,,76,36
75360,control_change,60,0,2,,,,,,,,,1,64,127,,
75360,note_on,40,0,1,,,,,,,,,0,,,80,0
75399,note_on,39,0,1,,,,,,,,,0,,,81,36
75399,note_on,39,0,2,,,,,,,,,1,,,71,36
75400,note_on,1,0,1,,,,,,,,,0,,,76,0
75400,note_on,1,0,2,,,,,,,,,1,,,73,0
75439,note_on,39,0,1,,,,,,,,,0,,,81,0
75439,note_on,39,0,2,,,,,,,,,1,,,71,0
75440,note_on,0,0,1,,,,,,,,,0,,,76,36
75440,control_change,1,0,1,,,,,,,,,0,64,0,,
75440,note_on,0,0,2,,,,,,,,,1,,,73,36
75440,control_change,1,0,2,,,,,,,,,1,64,0,,
75480,note_on,0,0,2,,,,,,,,,1,,,69,36
75480,note_on,40,0,2,,,,,,,,,1,,,73,0
75480,note_on,40,0,1,,,,,,,,,0,,,76,0
75480,note_on,0,0,1,,,,,,,,,0,,,81,36
75519,note_on,39,0,1,,,,,,,,,0,,,85,36
75520,note_on,1,0,1,,,,,,,,,0,,,81,0
75540,note_on,60,0,2,,,,,,,,,1,,,69,0
75559,note_on,39,0,1,,,,,,,,,0,,,85,0
75560,note_on,1,0,1,,,,,,,,,0,,,81,36
75600,control_change,60,0,2,,,,,,,,,1,64,127,,
75600,note_on,0,0,2,,,,,,,,,1,,,78,36
75600,control_change,0,0,1,,,,,,,,,0,64,127,,
75600,note_on,0,0,1,,,,,,,,,0,,,81,36
75600,note_on,40,0,1,,,,,,,,,0,,,81,0
75639,note_on,39,0,1,,,,,,,,,0,,,84,36
75640,note_on,1,0,1,,,,,,,,,0,,,81,0
75679,note_on,39,0,1,,,,,,,,,0,,,84,0
75680,note_on,1,0,1,,,,,,,,,0,,,81,36
75690,note_on,90,0,2,,,,,,,,,1,,,78,0
75690,note_on,0,0,2,,,,,,,,,1,,,75,36
75720,note_on,0,0,1,,,,,,,,,0,,,84,36
75720,note_on,40,0,1,,,,,,,,,0,,,81,0
75720,note_on,0,0,2,,,,,,,,,1,,,78,36
75720,note_on,30,0,2,,,,,,,,,1,,,75,0
75759,note_on,39,0,1,,,,,,,,,0,,,87,36
75760,note_on,1,0,1,,,,,,,,,0,,,84,0
75799,note_on,39,0,1,,,,,,,,,0,,,87,0
75800,note_on,0,0,1,,,,,,,,,0,,,84,36
75800,control_change,1,0,1,,,,,,,,,0,64,0,,
75810,control_change,0,0,2,,,,,,,,,1,64,0,,
75810,note_on,0,0,2,,,,,,,,,1,,,75,36
75810,note_on,90,0,2,,,,,,,,,1,,,78,0
75840,note_on,0,0,1,,,,,,,,,0,,,81,49
75840,note_on,40,0,1,,,,,,,,,0,,,84,0
75840,control_change,0,0,1,,,,,,,,,0,64,127,,
75840,note_on,0,0,2,,,,,,,,,1,,,78,62
75840,control_change,0,0,2,,,,,,,,,1,64,127,,
75840,note_on,30,0,2,,,,,,,,,1,,,75,0
75879,note_on,39,0,1,,,,,,,,,0,,,84,49
75880,note_on,1,0,1,,,,,,,,,0,,,81,0
75919,note_on,39,0,1,,,,,,,,,0,,,84,0
75920,note_on,1,0,1,,,,,,,,,0,,,81,49
75960,note_on,0,0,1,,,,,,,,,0,,,84,49
75960,note_on,40,0,1,,,,,,,,,0,,,81,0
75960,note_on,0,0,2,,,,,,,,,1,,,75,62
75960,note_on,120,0,2,,,,,,,,,1,,,78,0
75999,note_on,39,0,1,,,,,,,,,0,,,87,49
76000,note_on,1,0,1,,,,,,,,,0,,,84,0
76020,note_on,60,0,2,,,,,,,,,1,,,75,0
76039,note_on,39,0,1,,,,,,,,,0,,,87,0
76040,note_on,1,0,1,,,,,,,,,0,,,84,49
76080,note_on,40,0,1,,,,,,,,,0,,,84,0
76080,note_on,0,0,1,,,,,,,,,0,,,81,49
76080,note_on,60,0,2,,,,,,,,,1,,,78,62
76119,note_on,39,0,1,,,,,,,,,0,,,84,49
76120,note_on,1,0,1,,,,,,,,,0,,,81,0
76159,note_on,39,0,1,,,,,,,,,0,,,84,0
76160,note_on,1,0,1,,,,,,,,,0,,,81,49
76200,note_on,40,0,1,,,,,,,,,0,,,81,0
76200,note_on,0,0,1,,,,,,,,,0,,,84,49
76200,note_on,0,0,2,,,,,,,,,1,,,75,62
76200,note_on,120,0,2,,,,,,,,,1,,,78,0
76239,note_on,39,0,1,,,,,,,,,0,,,87,49
76240,note_on,1,0,1,,,,,,,,,0,,,84,0
76260,note_on,60,0,2,,,,,,,,,1,,,75,0
76279,note_on,39,0,1,,,,,,,,,0,,,87,0
76280,note_on,1,0,1,,,,,,,,,0,,,84,49
76320,note_on,40,0,1,,,,,,,,,0,,,84,0
76320,note_on,60,0,2,,,,,,,,,1,,,78,62
76320,note_on,0,0,1,,,,,,,,,0,,,81,49
76359,note_on,39,0,1,,,,,,,,,0,,,84,49
76360,note_on,1,0,1,,,,,,,,,0,,,81,0
76399,note_on,39,0,1,,,,,,,,,0,,,84,0
76400,note_on,0,0,1,,,,,,,,,0,,,81,49
76400,control_change,1,0,1,,,,,,,,,0,64,0,,
76440,note_on,40,0,1,,,,,,,,,0,,,81,0
76440,note_on,0,0,1,,,,,,,,,0,,,84,49
76440,note_on,0,0,2,,,,,,,,,1,,,75,62
76440,control_change,0,0,2,,,,,,,,,1,64,0,,
76440,note_on,120,0,2,,,,,,,,,1,,,78,0
76479,note_on,39,0,1,,,,,,,,,0,,,87,49
76480,note_on,1,0,1,,,,,,,,,0,,,84,0
76500,note_on,60,0,2,,,,,,,,,1,,,75,0
76519,note_on,39,0,1,,,,,,,,,0,,,87,0
76520,note_on,1,0,1,,,,,,,,,0,,,84,49
76560,note_on,0,0,1,,,,,,,,,0,,,81,49
76560,control_change,0,0,1,,,,,,,,,0,64,127,,
76560,note_on,40,0,1,,,,,,,,,0,,,84,0
76560,control_change,60,0,2,,,,,,,,,1,64,127,,
76560,note_on,0,0,2,,,,,,,,,1,,,77,62
76599,note_on,39,0,1,,,,,,,,,0,,,84,49
76600,note_on,1,0,1,,,,,,,,,0,,,81,0
76639,note_on,39,0,1,,,,,,,,,0,,,84,0
76640,note_on,1,0,1,,,,,,,,,0,,,81,49
76650,note_on,90,0,2,,,,,,,,,1,,,77,0
76650,note_on,0,0,2,,,,,,,,,1,,,75,62
76680,note_on,40,0,1,,,,,,,,,0,,,81,0
76680,note_on,30,0,2,,,,,,,,,1,,,75,0
76680,note_on,0,0,2,,,,,,,,,1,,,77,62
76680,note_on,0,0,1,,,,,,,,,0,,,84,49
76719,note_on,39,0,1,,,,,,,,,0,,,89,49
76720,note_on,1,0,1,,,,,,,,,0,,,84,0
76759,note_on,39,0,1,,,,,,,,,0,,,89,0
76760,note_on,1,0,1,,,,,,,,,0,,,84,49
76770,note_on,90,0,2,,,,,,,,,1,,,77,0
76770,note_on,0,0,2,,,,,,,,,1,,,75,62
76800,note_on,30,0,2,,,,,,,,,1,,,75,0
76800,note_on,0,0,2,,,,,,,,,1,,,77,62
76800,note_on,0,0,1,,,,,,,,,0,,,81,49
76800,note_on,40,0,1,,,,,,,,,0,,,84,0
76839,note_on,39,0,1,,,,,,,,,0,,,84,49
76840,note_on,1,0,1,,,,,,,,,0,,,81,0
76879,note_on,39,0,1,,,,,,,,,0,,,84,0
76880,note_on,1,0,1,,,,,,,,,0,,,81,49
76920,note_on,0,0,2,,,,,,,,,1,,,75,62
76920,note_on,120,0,2,,,,,,,,,1,,,77,0
76920,note_on,0,0,1,,,,,,,,,0,,,84,49
76920,note_on,40,0,1,,,,,,,,,0,,,81,0
76959,note_on,39,0,1,,,,,,,,,0,,,89,49
76960,note_on,1,0,1,,,,,,,,,0,,,84,0
76980,note_on,60,0,2,,,,,,,,,1,,,75,0
76999,note_on,39,0,1,,,,,,,,,0,,,89,0
77000,note_on,1,0,1,,,,,,,,,0,,,84,49
77040,note_on,60,0,2,,,,,,,,,1,,,77,62
77040,note_on,40,0,1,,,,,,,,,0,,,84,0
77040,note_on,0,0,1,,,,,,,,,0,,,81,49
77079,note_on,39,0,1,,,,,,,,,0,,,84,49
77080,note_on,1,0,1,,,,,,,,,0,,,81,0
77119,note_on,39,0,1,,,,,,,,,0,,,84,0
77120,note_on,1,0,1,,,,,,,,,0,,,81,49
77160,note_on,0,0,2,,,,,,,,,1,,,75,62
77160,control_change,0,0,2,,,,,,,,,1,64,0,,
77160,note_on,120,0,2,,,,,,,,,1,,,77,0
77160,note_on,0,0,1,,,,,,,,,0,,,84,49
77160,note_on,40,0,1,,,,,,,,,0,,,81,0
77199,note_on,39,0,1,,,,,,,,,0,,,89,49
77200,note_on,1,0,1,,,,,,,,,0,,,84,0
77220,note_on,60,0,2,,,,,,,,,1,,,75,0
77239,note_on,39,0,1,,,,,,,,,0,,,89,0
77240,control_change,1,0,1,,,,,,,,,0,64,0,,
77240,note_on,0,0,1,,,,,,,,,0,,,84,49
77280,note_on,40,0,1,,,,,,,,,0,,,84,0
77280,control_change,0,0,1,,,,,,,,,0,64,127,,
77280,note_on,0,0,1,,,,,,,,,0,,,82,49
77280,note_on,60,0,2,,,,,,,,,1,,,77,62
77319,note_on,39,0,1,,,,,,,,,0,,,86,49
77320,note_on,1,0,1,,,,,,,,,0,,,82,0
77359,note_on,39,0,1,,,,,,,,,0,,,86,0
77360,note_on,1,0,1,,,,,,,,,0,,,82,49
77400,note_on,40,0,1,,,,,,,,,0,,,82,0
77400,note_on,0,0,1,,,,,,,,,0,,,86,49
77400,note_on,0,0,2,,,,,,,,,1,,,74,62
77400,note_on,120,0,2,,,,,,,,,1,,,77,0
77439,note_on,39,0,1,,,,,,,,,0,,,89,49
77440,note_on,1,0,1,,,,,,,,,0,,,86,0
77460,note_on,60,0,2,,,,,,,,,1,,,74,0
77479,note_on,39,0,1,,,,,,,,,0,,,89,0
77480,control_change,1,0,1,,,,,,,,,0,64,0,,
77480,note_on,0,0,1,,,,,,,,,0,,,86,49
77520,control_change,0,0,1,,,,,,,,,0,64,127,,
77520,note_on,0,0,1,,,,,,,,,0,,,80,49
77520,note_on,40,0,1,,,,,,,,,0,,,86,0
77520,note_on,60,0,2,,,,,,,,,1,,,76,62
77559,note_on,39,0,1,,,,,,,,,0,,,83,49
77560,note_on,1,0,1,,,,,,,,,0,,,80,0
77599,note_on,39,0,1,,,,,,,,,0,,,83,0
77600,note_on,1,0,1,,,,,,,,,0,,,80,49
77640,note_on,40,0,1,,,,,,,,,0,,,80,0
77640,note_on,0,0,1,,,,,,,,,0,,,83,49
77640,note_on,0,0,2,,,,,,,,,1,,,74,62
77640,note_on,120,0,2,,,,,,,,,1,,,76,0
77679,note_on,39,0,1,,,,,,,,,0,,,88,49
77680,note_on,1,0,1,,,,,,,,,0,,,83,0
77700,note_on,60,0,2,,,,,,,,,1,,,74,0
77719,note_on,39,0,1,,,,,,,,,0,,,88,0
77720,note_on,0,0,1,,,,,,,,,0,,,83,49
77720,control_change,1,0,1,,,,,,,,,0,64,0,,
77760,note_on,0,0,1,,,,,,,,,0,,,81,49
77760,control_change,0,0,1,,,,,,,,,0,64,127,,
77760,note_on,40,0,1,,,,,,,,,0,,,83,0
77760,note_on,60,0,2,,,,,,,,,1,,,73,62
77799,note_on,39,0,1,,,,,,,,,0,,,85,49
77800,note_on,1,0,1,,,,,,,,,0,,,81,0
77839,note_on,39,0,1,,,,,,,,,0,,,85,0
77840,note_on,1,0,1,,,,,,,,,0,,,81,49
77880,note_on,0,0,2,,,,,,,,,1,,,76,62
77880,note_on,120,0,2,,,,,,,,,1,,,73,0
77880,note_on,40,0,1,,,,,,,,,0,,,81,0
77880,note_on,0,0,1,,,,,,,,,0,,,85,49
77919,note_on,39,0,1,,,,,,,,,0,,,88,49
77920,note_on,1,0,1,,,,,,,,,0,,,85,0
77940,note_on,60,0,2,,,,,,,,,1,,,76,0
77959,note_on,39,0,1,,,,,,,,,0,,,88,0
77960,control_change,1,0,1,,,,,,,,,0,64,0,,
77960,note_on,0,0,1,,,,,,,,,0,,,85,49
78000,note_on,60,0,2,,,,,,,,,1,,,66,62
78000,control_change,0,0,1,,,,,,,,,0,64,127,,
78000,note_on,40,0,1,,,,,,,,,0,,,85,0
78000,note_on,0,0,1,,,,,,,,,0,,,74,49
78039,note_on,39,0,1,,,,,,,,,0,,,81,49
78040,note_on,1,0,1,,,,,,,,,0,,,74,0
78079,note_on,39,0,1,,,,,,,,,0,,,81,0
78080,note_on,1,0,1,,,,,,,,,0,,,74,49
78120,note_on,0,0,2,,,,,,,,,1,,,69,62
78120,note_on,120,0,2,,,,,,,,,1,,,66,0
78120,note_on,40,0,1,,,,,,,,,0,,,74,0
78120,note_on,0,0,1,,,,,,,,,0,,,81,49
78120,note_on,0,0,2,,,,,,,,,1,,,74,62
78159,note_on,39,0,1,,,,,,,,,0,,,86,49
78160,note_on,1,0,1,,,,,,,,,0,,,81,0
78180,note_on,60,0,2,,,,,,,,,1,,,74,0
78180,note_on,0,0,2,,,,,,,,,1,,,69,0
78199,note_on,39,0,1,,,,,,,,,0,,,86,0
78200,control_change,1,0,1,,,,,,,,,0,64,0,,
78200,note_on,0,0,1,,,,,,,,,0,,,81,49
78240,control_change,0,0,1,,,,,,,,,0,64,127,,
78240,note_on,60,0,2,,,,,,,,,1,,,64,62
78240,note_on,40,0,1,,,,,,,,,0,,,81,0
78240,note_on,0,0,1,,,,,,,,,0,,,76,49
78279,note_on,39,0,1,,,,,,,,,0,,,81,49
78280,note_on,1,0,1,,,,,,,,,0,,,76,0
78319,note_on,39,0,1,,,,,,,,,0,,,81,0
78320,note_on,1,0,1,,,,,,,,,0,,,76,49
78360,note_on,0,0,1,,,,,,,,,0,,,81,49
78360,note_on,40,0,1,,,,,,,,,0,,,76,0
78360,note_on,120,0,2,,,,,,,,,1,,,64,0
78360,note_on,0,0,2,,,,,,,,,1,,,69,62
78360,note_on,0,0,2,,,,,,,,,1,,,73,62
78399,note_on,39,0,1,,,,,,,,,0,,,85,49
78400,note_on,1,0,1,,,,,,,,,0,,,81,0
78420,note_on,60,0,2,,,,,,,,,1,,,73,0
78420,note_on,0,0,2,,,,,,,,,1,,,69,0
78439,note_on,39,0,1,,,,,,,,,0,,,85,0
78440,note_on,0,0,1,,,,,,,,,0,,,81,49
78440,control_change,1,0,1,,,,,,,,,0,64,0,,
78480,control_change,0,0,1,,,,,,,,,0,64,127,,
78480,note_on,40,0,1,,,,,,,,,0,,,81,0
78480,note_on,0,0,1,,,,,,,,,0,,,76,49
78480,note_on,60,0,2,,,,,,,,,1,,,64,62
78519,note_on,39,0,1,,,,,,,,,0,,,83,49
78520,note_on,1,0,1,,,,,,,,,0,,,76,0
78559,note_on,39,0,1,,,,,,,,,0,,,83,0
78560,note_on,1,0,1,,,,,,,,,0,,,80,49
78600,note_on,40,0,1,,,,,,,,,0,,,80,0
78600,note_on,0,0,2,,,,,,,,,1,,,71,62
78600,note_on,0,0,2,,,,,,,,,1,,,68,62
78600,note_on,120,0,2,,,,,,,,,1,,,64,0
78600,note_on,0,0,1,,,,,,,,,0,,,76,49
78639,note_on,39,0,1,,,,,,,,,0,,,74,49
78640,note_on,1,0,1,,,,,,,,,0,,,76,0
78660,note_on,0,0,2,,,,,,,,,1,,,68,0
78660,note_on,60,0,2,,,,,,,,,1,,,71,0
78679,note_on,39,0,1,,,,,,,,,0,,,74,0
78680,note_on,0,0,1,,,,,,,,,0,,,71,49
78680,control_change,1,0,1,,,,,,,,,0,64,0,,
78720,note_on,0,0,1,,,,,,,,,0,,,67,101
78720,control_change,0,0,1,,,,,,,,,0,64,127,,
78720,note_on,40,0,1,,,,,,,,,0,,,71,0
78720,note_on,0,0,3,,,,,,,,,2,,,55,88
78720,control_change,3840,0,3,,,,,,,,,2,64,127,,
78759,note_on,39,0,3,,,,,,,,,2,,,57,88
78759,note_on,39,0,1,,,,,,,,,0,,,69,101
78760,note_on,1,0,1,,,,,,,,,0,,,67,0
78760,note_on,1,0,3,,,,,,,,,2,,,55,0
78799,note_on,39,0,1,,,,,,,,,0,,,69,0
78799,note_on,39,0,3,,,,,,,,,2,,,57,0
78800,note_on,1,0,3,,,,,,,,,2,,,55,88
78800,note_on,1,0,1,,,,,,,,,0,,,67,101
78840,note_on,0,0,1,,,,,,,,,0,,,64,101
78840,note_on,40,0,1,,,,,,,,,0,,,67,0
78840,note_on,40,0,3,,,,,,,,,2,,,55,0
78840,note_on,0,0,3,,,,,,,,,2,,,52,88
78879,note_on,39,0,1,,,,,,,,,0,,,61,101
78879,note_on,39,0,3,,,,,,,,,2,,,49,88
78880,note_on,1,0,3,,,,,,,,,2,,,52,0
78880,note_on,1,0,1,,,,,,,,,0,,,64,0
78919,note_on,39,0,3,,,,,,,,,2,,,49,0
78919,note_on,39,0,1,,,,,,,,,0,,,61,0
78920,note_on,1,0,3,,,,,,,,,2,,,45,88
78920,note_on,1,0,1,,,,,,,,,0,,,57,101
78960,note_on,0,0,3,,,,,,,,,2,,,43,88
78960,note_on,40,0,3,,,,,,,,,2,,,45,0
78960,note_on,40,0,1,,,,,,,,,0,,,57,0
78960,note_on,0,0,1,,,,,,,,,0,,,55,127
78999,note_on,39,0,1,,,,,,,,,0,,,57,101
78999,note_on,39,0,3,,,,,,,,,2,,,45,88
79000,note_on,1,0,3,,,,,,,,,2,,,43,0
79000,note_on,1,0,1,,,,,,,,,0,,,55,0
79039,note_on,39,0,3,,,,,,,,,2,,,45,0
79039,note_on,39,0,1,,,,,,,,,0,,,57,0
79040,note_on,1,0,3,,,,,,,,,2,,,43,88
79040,note_on,1,0,1,,,,,,,,,0,,,55,101
79080,note_on,0,0,3,,,,,,,,,2,,,45,88
79080,note_on,40,0,3,,,,,,,,,2,,,43,0
79080,note_on,40,0,1,,,,,,,,,0,,,55,0
79080,note_on,0,0,1,,,,,,,,,0,,,57,101
79119,note_on,39,0,1,,,,,,,,,0,,,55,101
79119,note_on,39,0,3,,,,,,,,,2,,,43,88
79120,note_on,1,0,3,,,,,,,,,2,,,45,0
79120,note_on,1,0,1,,,,,,,,,0,,,57,0
79159,note_on,39,0,1,,,,,,,,,0,,,55,0
79159,note_on,39,0,3,,,,,,,,,2,,,43,0
79160,note_on,0,0,1,,,,,,,,,0,,,57,101
79160,control_change,1,0,3,,,,,,,,,2,64,0,,
79160,note_on,0,0,3,,,,,,,,,2,,,45,88
79160,control_change,1,0,1,,,,,,,,,0,64,0,,
79200,note_on,40,0,1,,,,,,,,,0,,,57,0
79200,control_change,0,0,1,,,,,,,,,0,64,127,,
79200,note_on,40,0,3,,,,,,,,,2,,,45,0
79200,control_change,0,0,3,,,,,,,,,2,64,127,,
79200,note_on,0,0,3,,,,,,,,,2,,,53,101
79200,note_on,0,0,1,,,,,,,,,0,,,65,114
79239,note_on,39,0,3,,,,,,,,,2,,,57,101
79239,note_on,39,0,1,,,,,,,,,0,,,69,114
79240,note_on,1,0,1,,,,,,,,,0,,,65,0
79240,note_on,1,0,3,,,,,,,,,2,,,53,0
79279,note_on,39,0,1,,,,,,,,,0,,,69,0
79279,note_on,39,0,3,,,,,,,,,2,,,57,0
79280,note_on,1,0,1,,,,,,,,,0,,,65,114
79280,note_on,1,0,3,,,,,,,,,2,,,53,101
79320,note_on,0,0,1,,,,,,,,,0,,,60,114
79320,note_on,40,0,3,,,,,,,,,2,,,53,0
79320,note_on,40,0,1,,,,,,,,,0,,,65,0
79320,note_on,0,0,3,,,,,,,,,2,,,48,101
79359,note_on,39,0,1,,,,,,,,,0,,,57,114
79359,note_on,39,0,3,,,,,,,,,2,,,45,101
79360,note_on,1,0,3,,,,,,,,,2,,,48,0
79360,note_on,1,0,1,,,,,,,,,0,,,60,0
79399,note_on,39,0,1,,,,,,,,,0,,,57,0
79399,note_on,39,0,3,,,,,,,,,2,,,45,0
79400,note_on,1,0,3,,,,,,,,,2,,,41,101
79400,note_on,1,0,1,,,,,,,,,0,,,53,114
79440,note_on,0,0,1,,,,,,,,,0,,,57,114
79440,note_on,40,0,1,,,,,,,,,0,,,53,0
79440,note_on,40,0,3,,,,,,,,,2,,,41,0
79440,note_on,0,0,3,,,,,,,,,2,,,45,101
79479,note_on,39,0,1,,,,,,,,,0,,,53,114
79479,note_on,39,0,3,,,,,,,,,2,,,41,101
79480,note_on,1,0,3,,,,,,,,,2,,,45,0
79480,note_on,1,0,1,,,,,,,,,0,,,57,0
79519,note_on,39,0,1,,,,,,,,,0,,,53,0
79519,note_on,39,0,3,,,,,,,,,2,,,41,0
79520,note_on,1,0,1,,,,,,,,,0,,,57,114
79520,note_on,1,0,3,,,,,,,,,2,,,45,101
79560,note_on,40,0,3,,,,,,,,,2,,,45,0
79560,note_on,0,0,3,,,,,,,,,2,,,41,101
79560,note_on,40,0,1,,,,,,,,,0,,,57,0
79560,note_on,0,0,1,,,,,,,,,0,,,53,114
79599,note_on,39,0,1,,,,,,,,,0,,,57,114
79599,note_on,39,0,3,,,,,,,,,2,,,45,101
79600,note_on,1,0,3,,,,,,,,,2,,,41,0
79600,note_on,1,0,1,,,,,,,,,0,,,53,0
79639,note_on,39,0,1,,,,,,,,,0,,,57,0
79639,note_on,39,0,3,,,,,,,,,2,,,45,0
79640,note_on,0,0,1,,,,,,,,,0,,,53,114
79640,control_change,1,0,1,,,,,,,,,0,64,0,,
79640,note_on,0,0,3,,,,,,,,,2,,,41,101
79640,control_change,1,0,3,,,,,,,,,2,64,0,,
79680,note_on,40,0,3,,,,,,,,,2,,,41,0
79680,note_on,0,0,3,,,,,,,,,2,,,55,101
79680,note_on,0,0,1,,,,,,,,,0,,,67,114
79680,control_change,0,0,1,,,,,,,,,0,64,127,,
79680,note_on,40,0,1,,,,,,,,,0,,,53,0
79680,control_change,0,0,3,,,,,,,,,2,64,127,,
79719,note_on,39,0,3,,,,,,,,,2,,,57,101
79719,note_on,39,0,1,,,,,,,,,0,,,69,114
79720,note_on,1,0,1,,,,,,,,,0,,,67,0
79720,note_on,1,0,3,,,,,,,,,2,,,55,0
79759,note_on,39,0,1,,,,,,,,,0,,,69,0
79759,note_on,39,0,3,,,,,,,,,2,,,57,0
79760,note_on,1,0,1,,,,,,,,,0,,,67,114
79760,note_on,1,0,3,,,,,,,,,2,,,55,101
79800,note_on,0,0,3,,,,,,,,,2,,,52,101
79800,note_on,40,0,1,,,,,,,,,0,,,67,0
79800,note_on,0,0,1,,,,,,,,,0,,,64,114
79800,note_on,40,0,3,,,,,,,,,2,,,55,0
79839,note_on,39,0,3,,,,,,,,,2,,,49,101
79839,note_on,39,0,1,,,,,,,,,0,,,61,114
79840,note_on,1,0,3,,,,,,,,,2,,,52,0
79840,note_on,1,0,1,,,,,,,,,0,,,64,0
79879,note_on,39,0,3,,,,,,,,,2,,,49,0
79879,note_on,39,0,1,,,,,,,,,0,,,61,0
79880,note_on,1,0,1,,,,,,,,,0,,,57,114
79880,note_on,1,0,3,,,,,,,,,2,,,45,101
79920,note_on,40,0,1,,,,,,,,,0,,,57,0
79920,note_on,0,0,1,,,,,,,,,0,,,55,114
79920,note_on,0,0,3,,,,,,,,,2,,,43,101
79920,note_on,40,0,3,,,,,,,,,2,,,45,0
79959,note_on,39,0,1,,,,,,,,,0,,,57,114
79959,note_on,39,0,3,,,,,,,,,2,,,45,101
79960,note_on,1,0,1,,,,,,,,,0,,,55,0
79960,note_on,1,0,3,,,,,,,,,2,,,43,0
79999,note_on,39,0,3,,,,,,,,,2,,,45,0
79999,note_on,39,0,1,,,,,,,,,0,,,57,0
80000,note_on,1,0,3,,,,,,,,,2,,,43,101
80000,note_on,1,0,1,,,,,,,,,0,,,55,114
80040,note_on,0,0,3,,,,,,,,,2,,,45,101
80040,note_on,0,0,1,,,,,,,,,0,,,57,114
80040,note_on,40,0,1,,,,,,,,,0,,,55,0
80040,note_on,40,0,3,,,,,,,,,2,,,43,0
80079,note_on,39,0,1,,,,,,,,,0,,,55,114
80079,note_on,39,0,3,,,,,,,,,2,,,43,101
80080,note_on,1,0,3,,,,,,,,,2,,,45,0
80080,note_on,1,0,1,,,,,,,,,0,,,57,0
80119,note_on,39,0,3,,,,,,,,,2,,,43,0
80119,note_on,39,0,1,,,,,,,,,0,,,55,0
80120,note_on,0,0,3,,,,,,,,,2,,,45,101
80120,note_on,0,0,1,,,,,,,,,0,,,57,114
80120,control_change,1,0,1,,,,,,,,,0,64,0,,
80120,control_change,1,0,3,,,,,,,,,2,64,0,,
80160,note_on,40,0,3,,,,,,,,,2,,,45,0
80160,control_change,0,0,3,,,,,,,,,2,64,127,,
80160,note_on,0,0,3,,,,,,,,,2,,,53,88
80160,note_on,0,0,1,,,,,,,,,0,,,65,101
80160,control_change,0,0,1,,,,,,,,,0,64,127,,
80160,note_on,40,0,1,,,,,,,,,0,,,57,0
80199,note_on,39,0,1,,,,,,,,,0,,,69,101
80199,note_on,39,0,3,,,,,,,,,2,,,57,88
80200,note_on,1,0,3,,,,,,,,,2,,,53,0
80200,note_on,1,0,1,,,,,,,,,0,,,65,0
80239,note_on,39,0,1,,,,,,,,,0,,,69,0
80239,note_on,39,0,3,,,,,,,,,2,,,57,0
80240,note_on,1,0,3,,,,,,,,,2,,,53,88
80240,note_on,1,0,1,,,,,,,,,0,,,65,101
80280,note_on,0,0,3,,,,,,,,,2,,,48,88
80280,note_on,40,0,3,,,,,,,,,2,,,53,0
80280,note_on,40,0,1,,,,,,,,,0,,,65,0
80280,note_on,0,0,1,,,,,,,,,0,,,60,101
80319,note_on,39,0,1,,,,,,,,,0,,,57,101
80319,note_on,39,0,3,,,,,,,,,2,,,45,88
80320,note_on,1,0,3,,,,,,,,,2,,,48,0
80320,note_on,1,0,1,,,,,,,,,0,,,60,0
80359,note_on,39,0,1,,,,,,,,,0,,,57,0
80359,note_on,39,0,3,,,,,,,,,2,,,45,0
80360,note_on,1,0,1,,,,,,,,,0,,,53,101
80360,note_on,1,0,3,,,,,,,,,2,,,41,88
80400,note_on,0,0,3,,,,,,,,,2,,,45,88
80400,note_on,40,0,1,,,,,,,,,0,,,53,0
80400,note_on,0,0,1,,,,,,,,,0,,,57,127
80400,note_on,40,0,3,,,,,,,,,2,,,41,0
80439,note_on,39,0,1,,,,,,,,,0,,,53,101
80439,note_on,39,0,3,,,,,,,,,2,,,41,88
80440,note_on,1,0,1,,,,,,,,,0,,,57,0
80440,note_on,1,0,3,,,,,,,,,2,,,45,0
80479,note_on,39,0,1,,,,,,,,,0,,,53,0
80479,note_on,39,0,3,,,,,,,,,2,,,41,0
80480,note_on,1,0,3,,,,,,,,,2,,,45,88
80480,note_on,1,0,1,,,,,,,,,0,,,57,101
80520,note_on,40,0,1,,,,,,,,,0,,,57,0
80520,note_on,0,0,1,,,,,,,,,0,,,53,101
80520,note_on,40,0,3,,,,,,,,,2,,,45,0
80520,note_on,0,0,3,,,,,,,,,2,,,41,88
80559,note_on,39,0,1,,,,,,,,,0,,,57,101
80559,note_on,39,0,3,,,,,,,,,2,,,45,88
80560,note_on,1,0,3,,,,,,,,,2,,,41,0
80560,note_on,1,0,1,,,,,,,,,0,,,53,0
80599,note_on,39,0,3,,,,,,,,,2,,,45,0
80599,note_on,39,0,1,,,,,,,,,0,,,57,0
80600,note_on,0,0,3,,,,,,,,,2,,,41,88
80600,control_change,1,0,3,,,,,,,,,2,64,0,,
80600,control_change,1,0,1,,,,,,,,,0,64,0,,
80600,note_on,0,0,1,,,,,,,,,0,,,53,101
80640,note_on,0,0,1,,,,,,,,,0,,,52,49
80640,note_on,0,0,3,,,,,,,,,2,,,40,49
80640,note_on,40,0,3,,,,,,,,,2,,,41,0
80640,note_on,40,0,1,,,,,,,,,0,,,53,0
80679,note_on,39,0,1,,,,,,,,,0,,,54,49
80680,note_on,1,0,1,,,,,,,,,0,,,52,0
80700,note_on,60,0,3,,,,,,,,,2,,,40,0
80719,note_on,39,0,1,,,,,,,,,0,,,54,0
80720,note_on,1,0,1,,,,,,,,,0,,,56,49
80760,note_on,0,0,1,,,,,,,,,0,,,57,49
80760,note_on,40,0,1,,,,,,,,,0,,,56,0
80760,note_on,0,0,2,,,,,,,,,1,,,76,49
80760,note_on,2100,0,2,,,,,,,,,1,,,73,49
80799,note_on,39,0,1,,,,,,,,,0,,,59,49
80800,note_on,1,0,1,,,,,,,,,0,,,57,0
80839,note_on,39,0,1,,,,,,,,,0,,,59,0
80840,note_on,1,0,1,,,,,,,,,0,,,61,49
80850,note_on,90,0,2,,,,,,,,,1,,,76,0
80850,note_on,0,0,2,,,,,,,,,1,,,76,49
80850,note_on,0,0,2,,,,,,,,,1,,,73,0
80850,note_on,0,0,2,,,,,,,,,1,,,73,49
80880,note_on,0,0,2,,,,,,,,,1,,,74,49
80880,note_on,0,0,2,,,,,,,,,1,,,71,49
80880,note_on,0,0,2,,,,,,,,,1,,,73,0
80880,note_on,30,0,2,,,,,,,,,1,,,76,0
80880,note_on,40,0,1,,,,,,,,,0,,,61,0
80880,note_on,0,0,1,,,,,,,,,0,,,62,49
80919,note_on,39,0,1,,,,,,,,,0,,,64,49
80920,note_on,1,0,1,,,,,,,,,0,,,62,0
80940,note_on,0,0,2,,,,,,,,,1,,,71,0
80940,note_on,60,0,2,,,,,,,,,1,,,74,0
80959,note_on,39,0,1,,,,,,,,,0,,,64,0
80960,note_on,1,0,1,,,,,,,,,0,,,66,49
81000,note_on,0,0,3,,,,,,,,,2,,,59,49
81000,note_on,300,0,3,,,,,,,,,2,,,52,49
81000,note_on,40,0,1,,,,,,,,,0,,,66,0
81000,note_on,0,0,1,,,,,,,,,0,,,68,49
81039,note_on,39,0,1,,,,,,,,,0,,,69,49
81040,note_on,1,0,1,,,,,,,,,0,,,68,0
81060,note_on,60,0,3,,,,,,,,,2,,,59,0
81060,note_on,0,0,3,,,,,,,,,2,,,52,0
81079,note_on,39,0,1,,,,,,,,,0,,,69,0
81080,note_on,1,0,1,,,,,,,,,0,,,71,49
81120,note_on,0,0,1,,,,,,,,,0,,,73,49
81120,note_on,40,0,1,,,,,,,,,0,,,71,0
81120,note_on,60,0,3,,,,,,,,,2,,,45,49
81120,note_on,0,0,3,,,,,,,,,2,,,49,49
81120,note_on,0,0,3,,,,,,,,,2,,,57,49
81159,note_on,39,0,1,,,,,,,,,0,,,74,49
81160,note_on,1,0,1,,,,,,,,,0,,,73,0
81180,note_on,60,0,3,,,,,,,,,2,,,57,0
81180,note_on,0,0,3,,,,,,,,,2,,,49,0
81180,note_on,0,0,3,,,,,,,,,2,,,45,0
81199,note_on,39,0,1,,,,,,,,,0,,,74,0
81200,note_on,1,0,1,,,,,,,,,0,,,76,49
81240,note_on,0,0,1,,,,,,,,,0,,,78,49
81240,note_on,40,0,1,,,,,,,,,0,,,76,0
81240,note_on,0,0,2,,,,,,,,,1,,,76,49
81240,note_on,300,0,2,,,,,,,,,1,,,73,49
81279,note_on,39,0,1,,,,,,,,,0,,,80,49
81280,note_on,1,0,1,,,,,,,,,0,,,78,0
81319,note_on,39,0,1,,,,,,,,,0,,,80,0
81320,note_on,1,0,1,,,,,,,,,0,,,81,49
81330,note_on,90,0,2,,,,,,,,,1,,,76,0
81330,note_on,0,0,2,,,,,,,,,1,,,73,0
81330,note_on,0,0,2,,,,,,,,,1,,,73,49
81330,note_on,0,0,2,,,,,,,,,1,,,76,49
81360,note_on,40,0,1,,,,,,,,,0,,,81,0
81360,note_on,0,0,1,,,,,,,,,0,,,83,49
81360,note_on,0,0,2,,,,,,,,,1,,,74,49
81360,note_on,0,0,2,,,,,,,,,1,,,71,49
81360,note_on,0,0,2,,,,,,,,,1,,,73,0
81360,note_on,30,0,2,,,,,,,,,1,,,76,0
81399,note_on,39,0,1,,,,,,,,,0,,,85,49
81400,note_on,1,0,1,,,,,,,,,0,,,83,0
81420,note_on,0,0,2,,,,,,,,,1,,,71,0
81420,note_on,60,0,2,,,,,,,,,1,,,74,0
81439,note_on,39,0,1,,,,,,,,,0,,,85,0
81440,note_on,1,0,1,,,,,,,,,0,,,86,49
81480,note_on,0,0,1,,,,,,,,,0,,,88,49
81480,note_on,0,0,3,,,,,,,,,2,,,59,49
81480,note_on,300,0,3,,,,,,,,,2,,,52,49
81480,note_on,40,0,1,,,,,,,,,0,,,86,0
81519,note_on,39,0,1,,,,,,,,,0,,,90,49
81520,note_on,1,0,1,,,,,,,,,0,,,88,0
81540,note_on,60,0,3,,,,,,,,,2,,,59,0
81540,note_on,0,0,3,,,,,,,,,2,,,52,0
81559,note_on,39,0,1,,,,,,,,,0,,,90,0
81560,note_on,1,0,1,,,,,,,,,0,,,92,49
81600,note_on,0,0,1,,,,,,,,,0,,,93,49
81600,note_on,0,0,3,,,,,,,,,2,,,57,49
81600,note_on,0,0,3,,,,,,,,,2,,,49,49
81600,note_on,60,0,3,,,,,,,,,2,,,45,49
81600,control_change,0,0,1,,,,,,,,,0,64,127,,
81600,note_on,40,0,1,,,,,,,,,0,,,92,0
81639,note_on,39,0,1,,,,,,,,,0,,,92,49
81640,note_on,1,0,1,,,,,,,,,0,,,93,0
81660,note_on,0,0,3,,,,,,,,,2,,,45,0
81660,note_on,60,0,3,,,,,,,,,2,,,57,0
81660,note_on,0,0,3,,,,,,,,,2,,,49,0
81679,note_on,39,0,1,,,,,,,,,0,,,92,0
81680,note_on,1,0,1,,,,,,,,,0,,,90,49
81720,note_on,0,0,2,,,,,,,,,1,,,76,49
81720,note_on,300,0,2,,,,,,,,,1,,,73,49
81720,note_on,40,0,1,,,,,,,,,0,,,90,0
81720,note_on,0,0,1,,,,,,,,,0,,,88,49
81759,note_on,39,0,1,,,,,,,,,0,,,86,49
81760,note_on,1,0,1,,,,,,,,,0,,,88,0
81799,note_on,39,0,1,,,,,,,,,0,,,86,0
81800,note_on,1,0,1,,,,,,,,,0,,,85,49
81810,note_on,0,0,2,,,,,,,,,1,,,73,0
81810,note_on,90,0,2,,,,,,,,,1,,,76,0
81810,note_on,0,0,2,,,,,,,,,1,,,76,49
81810,note_on,0,0,2,,,,,,,,,1,,,73,49
81840,note_on,0,0,2,,,,,,,,,1,,,74,49
81840,note_on,30,0,2,,,,,,,,,1,,,76,0
81840,note_on,0,0,2,,,,,,,,,1,,,73,0
81840,note_on,0,0,2,,,,,,,,,1,,,71,49
81840,control_change,0,0,1,,,,,,,,,0,64,0,,
81840,note_on,40,0,1,,,,,,,,,0,,,85,0
81840,note_on,0,0,1,,,,,,,,,0,,,83,49
81879,note_on,39,0,1,,,,,,,,,0,,,81,49
81880,note_on,1,0,1,,,,,,,,,0,,,83,0
81900,note_on,0,0,2,,,,,,,,,1,,,71,0
81900,note_on,60,0,2,,,,,,,,,1,,,74,0
81919,note_on,39,0,1,,,,,,,,,0,,,81,0
81920,note_on,1,0,1,,,,,,,,,0,,,80,49
81960,note_on,0,0,1,,,,,,,,,0,,,78,49
81960,note_on,40,0,1,,,,,,,,,0,,,80,0
81960,note_on,300,0,3,,,,,,,,,2,,,52,49
81960,note_on,0,0,3,,,,,,,,,2,,,59,49
81999,note_on,39,0,1,,,,,,,,,0,,,76,49
82000,note_on,1,0,1,,,,,,,,,0,,,78,0
82020,note_on,0,0,3,,,,,,,,,2,,,52,0
82020,note_on,60,0,3,,,,,,,,,2,,,59,0
82039,note_on,39,0,1,,,,,,,,,0,,,76,0
82040,note_on,1,0,1,,,,,,,,,0,,,74,49
82080,note_on,0,0,3,,,,,,,,,2,,,57,49
82080,note_on,0,0,3,,,,,,,,,2,,,49,49
82080,note_on,0,0,1,,,,,,,,,0,,,73,49
82080,note_on,40,0,1,,,,,,,,,0,,,74,0
82080,note_on,60,0,3,,,,,,,,,2,,,45,49
82119,note_on,39,0,1,,,,,,,,,0,,,71,49
82120,note_on,1,0,1,,,,,,,,,0,,,73,0
82140,note_on,60,0,3,,,,,,,,,2,,,57,0
82140,note_on,0,0,3,,,,,,,,,2,,,49,0
82140,note_on,0,0,3,,,,,,,,,2,,,45,0
82159,note_on,39,0,1,,,,,,,,,0,,,71,0
82160,note_on,1,0,1,,,,,,,,,0,,,69,49
82200,note_on,0,0,1,,,,,,,,,0,,,68,49
82200,note_on,0,0,2,,,,,,,,,1,,,76,49
82200,note_on,40,0,1,,,,,,,,,0,,,69,0
82200,note_on,300,0,2,,,,,,,,,1,,,73,49
82239,note_on,39,0,1,,,,,,,,,0,,,66,49
82240,note_on,1,0,1,,,,,,,,,0,,,68,0
82279,note_on,39,0,1,,,,,,,,,0,,,66,0
82280,note_on,1,0,1,,,,,,,,,0,,,64,49
82290,note_on,90,0,2,,,,,,,,,1,,,76,0
82290,note_on,0,0,2,,,,,,,,,1,,,73,0
82290,note_on,0,0,2,,,,,,,,,1,,,73,49
82290,note_on,0,0,2,,,,,,,,,1,,,76,49
82320,note_on,0,0,2,,,,,,,,,1,,,73,0
82320,note_on,0,0,2,,,,,,,,,1,,,71,49
82320,note_on,0,0,2,,,,,,,,,1,,,74,49
82320,note_on,30,0,2,,,,,,,,,1,,,76,0
82320,note_on,40,0,1,,,,,,,,,0,,,64,0
82320,note_on,0,0,1,,,,,,,,,0,,,62,49
82359,note_on,39,0,1,,,,,,,,,0,,,66,49
82360,note_on,1,0,1,,,,,,,,,0,,,62,0
82380,note_on,0,0,2,,,,,,,,,1,,,71,0
82380,note_on,60,0,2,,,,,,,,,1,,,74,0
82399,note_on,39,0,1,,,,,,,,,0,,,66,0
82400,note_on,1,0,1,,,,,,,,,0,,,64,49
82440,note_on,40,0,1,,,,,,,,,0,,,64,0
82440,note_on,0,0,1,,,,,,,,,0,,,62,49
82440,note_on,300,0,3,,,,,,,,,2,,,52,49
82479,note_on,39,0,1,,,,,,,,,0,,,61,49
82480,note_on,1,0,1,,,,,,,,,0,,,62,0
82500,note_on,60,0,3,,,,,,,,,2,,,52,0
82519,note_on,39,0,1,,,,,,,,,0,,,61,0
82520,note_on,1,0,1,,,,,,,,,0,,,59,49
82560,note_on,40,0,1,,,,,,,,,0,,,59,0
82560,control_change,60,0,3,,,,,,,,,2,64,127,,
82560,note_on,0,0,3,,,,,,,,,2,,,55,88
82560,note_on,0,0,1,,,,,,,,,0,,,67,101
82560,control_change,0,0,1,,,,,,,,,0,64,127,,
82599,note_on,39,0,3,,,,,,,,,2,,,57,88
82599,note_on,39,0,1,,,,,,,,,0,,,69,101
82600,note_on,1,0,3,,,,,,,,,2,,,55,0
82600,note_on,1,0,1,,,,,,,,,0,,,67,0
82639,note_on,39,0,3,,,,,,,,,2,,,57,0
82639,note_on,39,0,1,,,,,,,,,0,,,69,0
82640,note_on,1,0,3,,,,,,,,,2,,,55,88
82640,note_on,1,0,1,,,,,,,,,0,,,67,101
82680,note_on,40,0,1,,,,,,,,,0,,,67,0
82680,note_on,0,0,1,,,,,,,,,0,,,64,101
82680,note_on,40,0,3,,,,,,,,,2,,,55,0
82680,note_on,0,0,3,,,,,,,,,2,,,52,88
82719,note_on,39,0,1,,,,,,,,,0,,,61,101
82719,note_on,39,0,3,,,,,,,,,2,,,49,88
82720,note_on,1,0,1,,,,,,,,,0,,,64,0
82720,note_on,1,0,3,,,,,,,,,2,,,52,0
82759,note_on,39,0,3,,,,,,,,,2,,,49,0
82759,note_on,39,0,1,,,,,,,,,0,,,61,0
82760,note_on,1,0,3,,,,,,,,,2,,,45,88
82760,note_on,1,0,1,,,,,,,,,0,,,57,101
82800,note_on,0,0,1,,,,,,,,,0,,,55,127
82800,note_on,0,0,3,,,,,,,,,2,,,43,88
82800,note_on,40,0,3,,,,,,,,,2,,,45,0
82800,note_on,40,0,1,,,,,,,,,0,,,57,0
82839,note_on,39,0,3,,,,,,,,,2,,,45,88
82839,note_on,39,0,1,,,,,,,,,0,,,57,101
82840,note_on,1,0,1,,,,,,,,,0,,,55,0
82840,note_on,1,0,3,,,,,,,,,2,,,43,0
82879,note_on,39,0,1,,,,,,,,,0,,,57,0
82879,note_on,39,0,3,,,,,,,,,2,,,45,0
82880,note_on,1,0,3,,,,,,,,,2,,,43,88
82880,note_on,1,0,1,,,,,,,,,0,,,55,101
82920,note_on,0,0,1,,,,,,,,,0,,,57,101
82920,note_on,40,0,1,,,,,,,,,0,,,55,0
82920,note_on,40,0,3,,,,,,,,,2,,,43,0
82920,note_on,0,0,3,,,,,,,,,2,,,45,88
82959,note_on,39,0,1,,,,,,,,,0,,,55,101
82959,note_on,39,0,3,,,,,,,,,2,,,43,88
82960,note_on,1,0,3,,,,,,,,,2,,,45,0
82960,note_on,1,0,1,,,,,,,,,0,,,57,0
82999,note_on,39,0,3,,,,,,,,,2,,,43,0
82999,note_on,39,0,1,,,,,,,,,0,,,55,0
83000,note_on,0,0,1,,,,,,,,,0,,,57,101
83000,control_change,1,0,3,,,,,,,,,2,64,0,,
83000,note_on,0,0,3,,,,,,,,,2,,,45,88
83000,control_change,1,0,1,,,,,,,,,0,64,0,,
83040,note_on,40,0,3,,,,,,,,,2,,,45,0
83040,control_change,0,0,3,,,,,,,,,2,64,127,,
83040,note_on,0,0,3,,,,,,,,,2,,,53,101
83040,note_on,0,0,1,,,,,,,,,0,,,65,114
83040,note_on,40,0,1,,,,,,,,,0,,,57,0
83040,control_change,0,0,1,,,,,,,,,0,64,127,,
83079,note_on,39,0,1,,,,,,,,,0,,,69,114
83079,note_on,39,0,3,,,,,,,,,2,,,57,101
83080,note_on,1,0,1,,,,,,,,,0,,,65,0
83080,note_on,1,0,3,,,,,,,,,2,,,53,0
83119,note_on,39,0,1,,,,,,,,,0,,,69,0
83119,note_on,39,0,3,,,,,,,,,2,,,57,0
83120,note_on,1,0,1,,,,,,,,,0,,,65,114
83120,note_on,1,0,3,,,,,,,,,2,,,53,101
83160,note_on,0,0,3,,,,,,,,,2,,,48,101
83160,note_on,40,0,1,,,,,,,,,0,,,65,0
83160,note_on,0,0,1,,,,,,,,,0,,,60,114
83160,note_on,40,0,3,,,,,,,,,2,,,53,0
83199,note_on,39,0,1,,,,,,,,,0,,,57,114
83199,note_on,39,0,3,,,,,,,,,2,,,45,101
83200,note_on,1,0,3,,,,,,,,,2,,,48,0
83200,note_on,1,0,1,,,,,,,,,0,,,60,0
83239,note_on,39,0,3,,,,,,,,,2,,,45,0
83239,note_on,39,0,1,,,,,,,,,0,,,57,0
83240,note_on,1,0,1,,,,,,,,,0,,,53,114
83240,note_on,1,0,3,,,,,,,,,2,,,41,101
83280,note_on,40,0,1,,,,,,,,,0,,,53,0
83280,note_on,0,0,1,,,,,,,,,0,,,57,114
83280,note_on,40,0,3,,,,,,,,,2,,,41,0
83280,note_on,0,0,3,,,,,,,,,2,,,45,101
83319,note_on,39,0,3,,,,,,,,,2,,,41,101
83319,note_on,39,0,1,,,,,,,,,0,,,53,114
83320,note_on,1,0,3,,,,,,,,,2,,,45,0
83320,note_on,1,0,1,,,,,,,,,0,,,57,0
83359,note_on,39,0,3,,,,,,,,,2,,,41,0
83359,note_on,39,0,1,,,,,,,,,0,,,53,0
83360,note_on,1,0,3,,,,,,,,,2,,,45,101
83360,note_on,1,0,1,,,,,,,,,0,,,57,114
83400,note_on,0,0,3,,,,,,,,,2,,,41,101
83400,note_on,40,0,3,,,,,,,,,2,,,45,0
83400,note_on,0,0,1,,,,,,,,,0,,,53,114
83400,note_on,40,0,1,,,,,,,,,0,,,57,0
83439,note_on,39,0,3,,,,,,,,,2,,,45,101
83439,note_on,39,0,1,,,,,,,,,0,,,57,114
83440,note_on,1,0,1,,,,,,,,,0,,,53,0
83440,note_on,1,0,3,,,,,,,,,2,,,41,0
83479,note_on,39,0,3,,,,,,,,,2,,,45,0
83479,note_on,39,0,1,,,,,,,,,0,,,57,0
83480,control_change,1,0,1,,,,,,,,,0,64,0,,
83480,control_change,1,0,3,,,,,,,,,2,64,0,,
83480,note_on,0,0,1,,,,,,,,,0,,,53,114
83480,note_on,0,0,3,,,,,,,,,2,,,41,101
83520,control_change,0,0,3,,,,,,,,,2,64,127,,
83520,note_on,40,0,3,,,,,,,,,2,,,41,0
83520,note_on,0,0,3,,,,,,,,,2,,,53,101
83520,note_on,40,0,1,,,,,,,,,0,,,53,0
83520,control_change,0,0,1,,,,,,,,,0,64,127,,
83520,note_on,0,0,1,,,,,,,,,0,,,65,114
83559,note_on,39,0,3,,,,,,,,,2,,,55,101
83559,note_on,39,0,1,,,,,,,,,0,,,67,114
83560,note_on,1,0,1,,,,,,,,,0,,,65,0
83560,note_on,1,0,3,,,,,,,,,2,,,53,0
83599,note_on,39,0,3,,,,,,,,,2,,,55,0
83599,note_on,39,0,1,,,,,,,,,0,,,67,0
83600,note_on,1,0,1,,,,,,,,,0,,,65,114
83600,note_on,1,0,3,,,,,,,,,2,,,53,101
83640,note_on,40,0,1,,,,,,,,,0,,,65,0
83640,note_on,0,0,1,,,,,,,,,0,,,62,114
83640,note_on,40,0,3,,,,,,,,,2,,,53,0
83640,note_on,0,0,3,,,,,,,,,2,,,50,101
83679,note_on,39,0,1,,,,,,,,,0,,,59,114
83679,note_on,39,0,3,,,,,,,,,2,,,47,101
83680,note_on,1,0,1,,,,,,,,,0,,,62,0
83680,note_on,1,0,3,,,,,,,,,2,,,50,0
83719,note_on,39,0,1,,,,,,,,,0,,,59,0
83719,note_on,39,0,3,,,,,,,,,2,,,47,0
83720,note_on,1,0,1,,,,,,,,,0,,,55,114
83720,note_on,1,0,3,,,,,,,,,2,,,43,101
83760,note_on,40,0,3,,,,,,,,,2,,,43,0
83760,note_on,40,0,1,,,,,,,,,0,,,55,0
83760,note_on,0,0,3,,,,,,,,,2,,,41,101
83760,note_on,0,0,1,,,,,,,,,0,,,53,114
83799,note_on,39,0,3,,,,,,,,,2,,,43,101
83799,note_on,39,0,1,,,,,,,,,0,,,55,114
83800,note_on,1,0,3,,,,,,,,,2,,,41,0
83800,note_on,1,0,1,,,,,,,,,0,,,53,0
83839,note_on,39,0,3,,,,,,,,,2,,,43,0
83839,note_on,39,0,1,,,,,,,,,0,,,55,0
83840,note_on,1,0,3,,,,,,,,,2,,,41,101
83840,note_on,1,0,1,,,,,,,,,0,,,53,114
83880,note_on,0,0,3,,,,,,,,,2,,,43,101
83880,note_on,40,0,3,,,,,,,,,2,,,41,0
83880,note_on,0,0,1,,,,,,,,,0,,,55,114
83880,note_on,40,0,1,,,,,,,,,0,,,53,0
83919,note_on,39,0,3,,,,,,,,,2,,,41,101
83919,note_on,39,0,1,,,,,,,,,0,,,53,114
83920,note_on,1,0,1,,,,,,,,,0,,,55,0
83920,note_on,1,0,3,,,,,,,,,2,,,43,0
83959,note_on,39,0,3,,,,,,,,,2,,,41,0
83959,note_on,39,0,1,,,,,,,,,0,,,53,0
83960,note_on,0,0,1,,,,,,,,,0,,,55,114
83960,note_on,0,0,3,,,,,,,,,2,,,43,101
83960,control_change,1,0,3,,,,,,,,,2,64,0,,
83960,control_change,1,0,1,,,,,,,,,0,64,0,,
84000,control_change,0,0,3,,,,,,,,,2,64,127,,
84000,note_on,40,0,3,,,,,,,,,2,,,43,0
84000,note_on,0,0,1,,,,,,,,,0,,,63,114
84000,control_change,0,0,1,,,,,,,,,0,64,127,,
84000,note_on,40,0,1,,,,,,,,,0,,,55,0
84000,note_on,0,0,3,,,,,,,,,2,,,51,101
84039,note_on,39,0,3,,,,,,,,,2,,,55,101
84039,note_on,39,0,1,,,,,,,,,0,,,67,114
84040,note_on,1,0,3,,,,,,,,,2,,,51,0
84040,note_on,1,0,1,,,,,,,,,0,,,63,0
84079,note_on,39,0,1,,,,,,,,,0,,,67,0
84079,note_on,39,0,3,,,,,,,,,2,,,55,0
84080,note_on,1,0,1,,,,,,,,,0,,,63,114
84080,note_on,1,0,3,,,,,,,,,2,,,51,101
84120,note_on,40,0,1,,,,,,,,,0,,,63,0
84120,note_on,40,0,3,,,,,,,,,2,,,51,0
84120,note_on,0,0,1,,,,,,,,,0,,,59,114
84120,note_on,0,0,3,,,,,,,,,2,,,47,101
84159,note_on,39,0,3,,,,,,,,,2,,,43,101
84159,note_on,39,0,1,,,,,,,,,0,,,55,114
84160,note_on,1,0,1,,,,,,,,,0,,,59,0
84160,note_on,1,0,3,,,,,,,,,2,,,47,0
84199,note_on,39,0,1,,,,,,,,,0,,,55,0
84199,note_on,39,0,3,,,,,,,,,2,,,43,0
84200,note_on,1,0,3,,,,,,,,,2,,,39,101
84200,note_on,1,0,1,,,,,,,,,0,,,51,114
84240,note_on,0,0,3,,,,,,,,,2,,,43,101
84240,note_on,40,0,3,,,,,,,,,2,,,39,0
84240,note_on,0,0,1,,,,,,,,,0,,,55,114
84240,note_on,40,0,1,,,,,,,,,0,,,51,0
84279,note_on,39,0,3,,,,,,,,,2,,,39,101
84279,note_on,39,0,1,,,,,,,,,0,,,51,114
84280,note_on,1,0,3,,,,,,,,,2,,,43,0
84280,note_on,1,0,1,,,,,,,,,0,,,55,0
84319,note_on,39,0,1,,,,,,,,,0,,,51,0
84319,note_on,39,0,3,,,,,,,,,2,,,39,0
84320,note_on,1,0,1,,,,,,,,,0,,,55,114
84320,note_on,1,0,3,,,,,,,,,2,,,43,101
84360,note_on,40,0,1,,,,,,,,,0,,,55,0
84360,note_on,0,0,1,,,,,,,,,0,,,51,114
84360,note_on,40,0,3,,,,,,,,,2,,,43,0
84360,note_on,0,0,3,,,,,,,,,2,,,39,101
84399,note_on,39,0,3,,,,,,,,,2,,,43,101
84399,note_on,39,0,1,,,,,,,,,0,,,55,114
84400,note_on,1,0,1,,,,,,,,,0,,,51,0
84400,note_on,1,0,3,,,,,,,,,2,,,39,0
84439,note_on,39,0,1,,,,,,,,,0,,,55,0
84439,note_on,39,0,3,,,,,,,,,2,,,43,0
84440,control_change,1,0,3,,,,,,,,,2,64,0,,
84440,note_on,0,0,3,,,,,,,,,2,,,39,101
84440,control_change,1,0,1,,,,,,,,,0,64,0,,
84440,note_on,0,0,1,,,,,,,,,0,,,51,114
84480,note_on,40,0,3,,,,,,,,,2,,,39,0
84480,control_change,0,0,3,,,,,,,,,2,64,127,,
84480,note_on,0,0,3,,,,,,,,,2,,,63,114
84480,control_change,21780,0,4,,,,,,,,,3,64,127,,
84480,note_on,0,0,4,,,,,,,,,3,,,51,101
84480,note_on,40,0,1,,,,,,,,,0,,,51,0
84519,note_on,39,0,3,,,,,,,,,2,,,65,114
84519,note_on,39,0,4,,,,,,,,,3,,,53,101
84520,note_on,1,0,3,,,,,,,,,2,,,63,0
84520,note_on,1,0,4,,,,,,,,,3,,,51,0
84559,note_on,39,0,4,,,,,,,,,3,,,53,0
84559,note_on,39,0,3,,,,,,,,,2,,,65,0
84560,note_on,1,0,3,,,,,,,,,2,,,63,114
84560,note_on,1,0,4,,,,,,,,,3,,,51,101
84600,note_on,40,0,3,,,,,,,,,2,,,63,0
84600,note_on,0,0,3,,,,,,,,,2,,,60,114
84600,note_on,40,0,4,,,,,,,,,3,,,51,0
84600,note_on,0,0,4,,,,,,,,,3,,,48,101
84639,note_on,39,0,3,,,,,,,,,2,,,57,114
84639,note_on,39,0,4,,,,,,,,,3,,,45,101
84640,note_on,1,0,4,,,,,,,,,3,,,48,0
84640,note_on,1,0,3,,,,,,,,,2,,,60,0
84679,note_on,39,0,4,,,,,,,,,3,,,45,0
84679,note_on,39,0,3,,,,,,,,,2,,,57,0
84680,control_change,1,0,4,,,,,,,,,3,64,0,,
84680,note_on,0,0,3,,,,,,,,,2,,,53,114
84680,control_change,1,0,3,,,,,,,,,2,64,0,,
84680,note_on,0,0,4,,,,,,,,,3,,,41,101
84720,note_on,0,0,3,,,,,,,,,2,,,61,114
84720,control_change,0,0,3,,,,,,,,,2,64,127,,
84720,note_on,40,0,4,,,,,,,,,3,,,41,0
84720,control_change,0,0,4,,,,,,,,,3,64,127,,
84720,note_on,0,0,4,,,,,,,,,3,,,49,101
84720,note_on,40,0,3,,,,,,,,,2,,,53,0
84759,note_on,39,0,4,,,,,,,,,3,,,53,101
84759,note_on,39,0,3,,,,,,,,,2,,,65,114
84760,note_on,1,0,3,,,,,,,,,2,,,61,0
84760,note_on,1,0,4,,,,,,,,,3,,,49,0
84799,note_on,39,0,3,,,,,,,,,2,,,65,0
84799,note_on,39,0,4,,,,,,,,,3,,,53,0
84800,note_on,1,0,3,,,,,,,,,2,,,61,114
84800,note_on,1,0,4,,,,,,,,,3,,,49,101
84840,note_on,0,0,4,,,,,,,,,3,,,44,101
84840,note_on,40,0,4,,,,,,,,,3,,,49,0
84840,note_on,40,0,3,,,,,,,,,2,,,61,0
84840,note_on,0,0,3,,,,,,,,,2,,,56,114
84879,note_on,39,0,4,,,,,,,,,3,,,41,101
84879,note_on,39,0,3,,,,,,,,,2,,,53,114
84880,note_on,1,0,4,,,,,,,,,3,,,44,0
84880,note_on,1,0,3,,,,,,,,,2,,,56,0
84919,note_on,39,0,3,,,,,,,,,2,,,53,0
84919,note_on,39,0,4,,,,,,,,,3,,,41,0
84920,note_on,0,0,3,,,,,,,,,2,,,49,114
84920,control_change,1,0,3,,,,,,,,,2,64,0,,
84920,control_change,1,0,4,,,,,,,,,3,64,0,,
84920,note_on,0,0,4,,,,,,,,,3,,,37,101
84960,note_on,40,0,4,,,,,,,,,3,,,37,0
84960,note_on,0,0,3,,,,,,,,,2,,,62,114
84960,control_change,0,0,3,,,,,,,,,2,64,127,,
84960,note_on,40,0,3,,,,,,,,,2,,,49,0
84960,note_on,0,0,4,,,,,,,,,3,,,50,101
84960,control_change,0,0,4,,,,,,,,,3,64,127,,
84999,note_on,39,0,3,,,,,,,,,2,,,64,114
84999,note_on,39,0,4,,,,,,,,,3,,,52,101
85000,note_on,1,0,3,,,,,,,,,2,,,62,0
85000,note_on,1,0,4,,,,,,,,,3,,,50,0
85039,note_on,39,0,4,,,,,,,,,3,,,52,0
85039,note_on,39,0,3,,,,,,,,,2,,,64,0
85040,note_on,1,0,3,,,,,,,,,2,,,62,114
85040,note_on,1,0,4,,,,,,,,,3,,,50,101
85080,note_on,0,0,4,,,,,,,,,3,,,47,101
85080,note_on,40,0,4,,,,,,,,,3,,,50,0
85080,note_on,0,0,3,,,,,,,,,2,,,59,114
85080,note_on,40,0,3,,,,,,,,,2,,,62,0
85119,note_on,39,0,4,,,,,,,,,3,,,44,101
85119,note_on,39,0,3,,,,,,,,,2,,,56,114
85120,note_on,1,0,4,,,,,,,,,3,,,47,0
85120,note_on,1,0,3,,,,,,,,,2,,,59,0
85159,note_on,39,0,4,,,,,,,,,3,,,44,0
85159,note_on,39,0,3,,,,,,,,,2,,,56,0
85160,note_on,0,0,4,,,,,,,,,3,,,40,101
85160,note_on,0,0,3,,,,,,,,,2,,,52,114
85160,control_change,1,0,3,,,,,,,,,2,64,0,,
85160,control_change,1,0,4,,,,,,,,,3,64,0,,
85200,note_on,40,0,4,,,,,,,,,3,,,40,0
85200,control_change,0,0,4,,,,,,,,,3,64,127,,
85200,note_on,0,0,4,,,,,,,,,3,,,48,101
85200,control_change,0,0,3,,,,,,,,,2,64,127,,
85200,note_on,0,0,3,,,,,,,,,2,,,60,114
85200,note_on,40,0,3,,,,,,,,,2,,,52,0
85239,note_on,39,0,3,,,,,,,,,2,,,64,114
85239,note_on,39,0,4,,,,,,,,,3,,,52,101
85240,note_on,1,0,4,,,,,,,,,3,,,48,0
85240,note_on,1,0,3,,,,,,,,,2,,,60,0
85279,note_on,39,0,3,,,,,,,,,2,,,64,0
85279,note_on,39,0,4,,,,,,,,,3,,,52,0
85280,note_on,1,0,3,,,,,,,,,2,,,60,114
85280,note_on,1,0,4,,,,,,,,,3,,,48,101
85320,note_on,40,0,3,,,,,,,,,2,,,60,0
85320,note_on,40,0,4,,,,,,,,,3,,,48,0
85320,note_on,0,0,4,,,,,,,,,3,,,43,101
85320,note_on,0,0,3,,,,,,,,,2,,,55,114
85359,note_on,39,0,3,,,,,,,,,2,,,52,114
85359,note_on,39,0,4,,,,,,,,,3,,,40,101
85360,note_on,1,0,3,,,,,,,,,2,,,55,0
85360,note_on,1,0,4,,,,,,,,,3,,,43,0
85399,note_on,39,0,4,,,,,,,,,3,,,40,0
85399,note_on,39,0,3,,,,,,,,,2,,,52,0
85400,note_on,0,0,3,,,,,,,,,2,,,48,114
85400,control_change,1,0,4,,,,,,,,,3,64,0,,
85400,note_on,0,0,4,,,,,,,,,3,,,36,101
85400,control_change,1,0,3,,,,,,,,,2,64,0,,
85440,note_on,40,0,4,,,,,,,,,3,,,36,0
85440,control_change,0,0,4,,,,,,,,,3,64,127,,
85440,note_on,0,0,4,,,,,,,,,3,,,41,88
85440,control_change,0,0,3,,,,,,,,,2,64,127,,
85440,note_on,0,0,3,,,,,,,,,2,,,53,101
85440,note_on,40,0,3,,,,,,,,,2,,,48,0
85479,note_on,39,0,4,,,,,,,,,3,,,45,88
85479,note_on,39,0,3,,,,,,,,,2,,,57,101
85480,note_on,1,0,4,,,,,,,,,3,,,41,0
85480,note_on,1,0,3,,,,,,,,,2,,,53,0
85519,note_on,39,0,4,,,,,,,,,3,,,45,0
85519,note_on,39,0,3,,,,,,,,,2,,,57,0
85520,note_on,1,0,3,,,,,,,,,2,,,53,101
85520,note_on,1,0,4,,,,,,,,,3,,,41,88
85560,note_on,40,0,3,,,,,,,,,2,,,53,0
85560,note_on,0,0,3,,,,,,,,,2,,,48,101
85560,note_on,40,0,4,,,,,,,,,3,,,41,0
85560,note_on,0,0,4,,,,,,,,,3,,,36,88
85599,note_on,39,0,4,,,,,,,,,3,,,33,88
85599,note_on,39,0,3,,,,,,,,,2,,,45,101
85600,note_on,1,0,4,,,,,,,,,3,,,36,0
85600,note_on,1,0,3,,,,,,,,,2,,,48,0
85639,note_on,39,0,4,,,,,,,,,3,,,33,0
85639,note_on,39,0,3,,,,,,,,,2,,,45,0
85640,note_on,1,0,4,,,,,,,,,3,,,29,88
85640,note_on,1,0,3,,,,,,,,,2,,,41,101
85680,note_on,40,0,4,,,,,,,,,3,,,29,0
85680,note_on,0,0,3,,,,,,,,,2,,,45,75
85680,note_on,40,0,3,,,,,,,,,2,,,41,0
85680,note_on,0,0,4,,,,,,,,,3,,,33,62
85719,note_on,39,0,3,,,,,,,,,2,,,41,75
85719,note_on,39,0,4,,,,,,,,,3,,,29,62
85720,note_on,1,0,4,,,,,,,,,3,,,33,0
85720,note_on,1,0,3,,,,,,,,,2,,,45,0
85759,note_on,39,0,4,,,,,,,,,3,,,29,0
85759,note_on,39,0,3,,,,,,,,,2,,,41,0
85760,note_on,1,0,4,,,,,,,,,3,,,33,62
85760,note_on,1,0,3,,,,,,,,,2,,,45,75
85800,note_on,0,0,4,,,,,,,,,3,,,29,62
85800,note_on,40,0,4,,,,,,,,,3,,,33,0
85800,note_on,0,0,3,,,,,,,,,2,,,41,75
85800,note_on,40,0,3,,,,,,,,,2,,,45,0
85839,note_on,39,0,4,,,,,,,,,3,,,33,62
85839,note_on,39,0,3,,,,,,,,,2,,,45,75
85840,note_on,1,0,3,,,,,,,,,2,,,41,0
85840,note_on,1,0,4,,,,,,,,,3,,,29,0
85879,note_on,39,0,4,,,,,,,,,3,,,33,0
85879,note_on,39,0,3,,,,,,,,,2,,,45,0
85880,note_on,1,0,3,,,,,,,,,2,,,41,75
85880,note_on,1,0,4,,,,,,,,,3,,,29,62
85920,note_on,40,0,3,,,,,,,,,2,,,41,0
85920,note_on,0,0,3,,,,,,,,,2,,,57,62
85920,note_on,0,0,4,,,,,,,,,3,,,45,49
85920,note_on,40,0,4,,,,,,,,,3,,,29,0
85959,note_on,39,0,3,,,,,,,,,2,,,53,62
85959,note_on,39,0,4,,,,,,,,,3,,,41,49
85960,note_on,1,0,4,,,,,,,,,3,,,45,0
85960,note_on,1,0,3,,,,,,,,,2,,,57,0
85999,note_on,39,0,4,,,,,,,,,3,,,41,0
85999,note_on,39,0,3,,,,,,,,,2,,,53,0
86000,note_on,1,0,4,,,,,,,,,3,,,45,49
86000,note_on,1,0,3,,,,,,,,,2,,,57,62
86040,note_on,40,0,3,,,,,,,,,2,,,57,0
86040,note_on,40,0,4,,,,,,,,,3,,,45,0
86040,note_on,0,0,4,,,,,,,,,3,,,41,49
86040,note_on,0,0,3,,,,,,,,,2,,,53,62
86079,note_on,39,0,3,,,,,,,,,2,,,57,62
86079,note_on,39,0,4,,,,,,,,,3,,,45,49
86080,note_on,1,0,3,,,,,,,,,2,,,53,0
86080,note_on,1,0,4,,,,,,,,,3,,,41,0
86119,note_on,39,0,3,,,,,,,,,2,,,57,0
86119,note_on,39,0,4,,,,,,,,,3,,,45,0
86120,note_on,1,0,3,,,,,,,,,2,,,53,62
86120,note_on,1,0,4,,,,,,,,,3,,,41,49
86160,note_on,0,0,3,,,,,,,,,2,,,57,62
86160,note_on,40,0,3,,,,,,,,,2,,,53,0
86160,note_on,0,0,4,,,,,,,,,3,,,45,49
86160,note_on,40,0,4,,,,,,,,,3,,,41,0
86199,note_on,39,0,3,,,,,,,,,2,,,53,62
86199,note_on,39,0,4,,,,,,,,,3,,,41,49
86200,note_on,1,0,3,,,,,,,,,2,,,57,0
86200,note_on,1,0,4,,,,,,,,,3,,,45,0
86239,note_on,39,0,4,,,,,,,,,3,,,41,0
86239,note_on,39,0,3,,,,,,,,,2,,,53,0
86240,note_on,1,0,4,,,,,,,,,3,,,45,49
86240,note_on,1,0,3,,,,,,,,,2,,,57,62
86280,note_on,0,0,4,,,,,,,,,3,,,41,49
86280,note_on,0,0,3,,,,,,,,,2,,,53,62
86280,note_on,40,0,4,,,,,,,,,3,,,45,0
86280,note_on,40,0,3,,,,,,,,,2,,,57,0
86280,control_change,0,0,4,,,,,,,,,3,64,0,,
86280,control_change,0,0,3,,,,,,,,,2,64,0,,
86319,note_on,39,0,4,,,,,,,,,3,,,45,49
86319,note_on,39,0,3,,,,,,,,,2,,,57,62
86320,note_on,1,0,4,,,,,,,,,3,,,41,0
86320,note_on,1,0,3,,,,,,,,,2,,,53,0
86359,note_on,39,0,3,,,,,,,,,2,,,57,0
86359,note_on,39,0,4,,,,,,,,,3,,,45,0
86360,note_on,1,0,3,,,,,,,,,2,,,53,62
86360,note_on,1,0,4,,,,,,,,,3,,,41,49
86400,note_on,40,0,3,,,,,,,,,2,,,53,0
86400,note_on,0,0,3,,,,,,,,,2,,,40,49
86400,note_on,40,0,4,,,,,,,,,3,,,41,0
86400,note_on,1920,0,1,,,,,,,,,0,,,52,49
86439,note_on,39,0,1,,,,,,,,,0,,,54,49
86440,note_on,1,0,1,,,,,,,,,0,,,52,0
86460,note_on,60,0,3,,,,,,,,,2,,,40,0
86479,note_on,39,0,1,,,,,,,,,0,,,54,0
86480,note_on,1,0,1,,,,,,,,,0,,,56,49
86520,note_on,0,0,1,,,,,,,,,0,,,57,49
86520,note_on,40,0,1,,,,,,,,,0,,,56,0
86520,note_on,0,0,2,,,,,,,,,1,,,76,49
86520,note_on,4140,0,2,,,,,,,,,1,,,73,49
86559,note_on,39,0,1,,,,,,,,,0,,,59,49
86560,note_on,1,0,1,,,,,,,,,0,,,57,0
86599,note_on,39,0,1,,,,,,,,,0,,,59,0
86600,note_on,1,0,1,,,,,,,,,0,,,61,49
86610,note_on,90,0,2,,,,,,,,,1,,,76,0
86610,note_on,0,0,2,,,,,,,,,1,,,73,0
86610,note_on,0,0,2,,,,,,,,,1,,,73,49
86610,note_on,0,0,2,,,,,,,,,1,,,76,49
86640,note_on,40,0,1,,,,,,,,,0,,,61,0
86640,note_on,0,0,1,,,,,,,,,0,,,62,49
86640,note_on,0,0,2,,,,,,,,,1,,,73,0
86640,note_on,30,0,2,,,,,,,,,1,,,76,0
86640,note_on,0,0,2,,,,,,,,,1,,,71,49
86640,note_on,0,0,2,,,,,,,,,1,,,74,49
86679,note_on,39,0,1,,,,,,,,,0,,,64,49
86680,note_on,1,0,1,,,,,,,,,0,,,62,0
86700,note_on,60,0,2,,,,,,,,,1,,,74,0
86700,note_on,0,0,2,,,,,,,,,1,,,71,0
86719,note_on,39,0,1,,,,,,,,,0,,,64,0
86720,note_on,1,0,1,,,,,,,,,0,,,66,49
86760,note_on,0,0,3,,,,,,,,,2,,,59,49
86760,note_on,0,0,1,,,,,,,,,0,,,68,49
86760,note_on,40,0,1,,,,,,,,,0,,,66,0
86760,note_on,300,0,3,,,,,,,,,2,,,52,49
86799,note_on,39,0,1,,,,,,,,,0,,,69,49
86800,note_on,1,0,1,,,,,,,,,0,,,68,0
86820,note_on,0,0,3,,,,,,,,,2,,,52,0
86820,note_on,60,0,3,,,,,,,,,2,,,59,0
86839,note_on,39,0,1,,,,,,,,,0,,,69,0
86840,note_on,1,0,1,,,,,,,,,0,,,71,49
86880,note_on,40,0,1,,,,,,,,,0,,,71,0
86880,note_on,0,0,1,,,,,,,,,0,,,73,49
86880,note_on,0,0,3,,,,,,,,,2,,,57,49
86880,note_on,0,0,3,,,,,,,,,2,,,49,49
86880,note_on,60,0,3,,,,,,,,,2,,,45,49
86919,note_on,39,0,1,,,,,,,,,0,,,74,49
86920,note_on,1,0,1,,,,,,,,,0,,,73,0
86940,note_on,0,0,3,,,,,,,,,2,,,45,0
86940,note_on,0,0,3,,,,,,,,,2,,,49,0
86940,note_on,60,0,3,,,,,,,,,2,,,57,0
86959,note_on,39,0,1,,,,,,,,,0,,,74,0
86960,note_on,1,0,1,,,,,,,,,0,,,76,49
87000,note_on,300,0,2,,,,,,,,,1,,,73,49
87000,note_on,0,0,1,,,,,,,,,0,,,78,49
87000,note_on,40,0,1,,,,,,,,,0,,,76,0
87000,note_on,0,0,2,,,,,,,,,1,,,76,49
87039,note_on,39,0,1,,,,,,,,,0,,,80,49
87040,note_on,1,0,1,,,,,,,,,0,,,78,0
87079,note_on,39,0,1,,,,,,,,,0,,,80,0
87080,note_on,1,0,1,,,,,,,,,0,,,81,49
87090,note_on,90,0,2,,,,,,,,,1,,,76,0
87090,note_on,0,0,2,,,,,,,,,1,,,73,49
87090,note_on,0,0,2,,,,,,,,,1,,,76,49
87090,note_on,0,0,2,,,,,,,,,1,,,73,0
87120,note_on,30,0,2,,,,,,,,,1,,,76,0
87120,note_on,0,0,2,,,,,,,,,1,,,73,0
87120,note_on,0,0,2,,,,,,,,,1,,,71,49
87120,note_on,0,0,2,,,,,,,,,1,,,74,49
87120,note_on,0,0,1,,,,,,,,,0,,,83,49
87120,note_on,40,0,1,,,,,,,,,0,,,81,0
87159,note_on,39,0,1,,,,,,,,,0,,,85,49
87160,note_on,1,0,1,,,,,,,,,0,,,83,0
87180,note_on,0,0,2,,,,,,,,,1,,,71,0
87180,note_on,60,0,2,,,,,,,,,1,,,74,0
87199,note_on,39,0,1,,,,,,,,,0,,,85,0
87200,note_on,1,0,1,,,,,,,,,0,,,86,49
87240,note_on,0,0,1,,,,,,,,,0,,,88,49
87240,note_on,300,0,3,,,,,,,,,2,,,52,49
87240,note_on,40,0,1,,,,,,,,,0,,,86,0
87240,note_on,0,0,3,,,,,,,,,2,,,59,49
87279,note_on,39,0,1,,,,,,,,,0,,,90,49
87280,note_on,1,0,1,,,,,,,,,0,,,88,0
87300,note_on,0,0,3,,,,,,,,,2,,,52,0
87300,note_on,60,0,3,,,,,,,,,2,,,59,0
87319,note_on,39,0,1,,,,,,,,,0,,,90,0
87320,note_on,1,0,1,,,,,,,,,0,,,92,49
87360,note_on,40,0,1,,,,,,,,,0,,,92,0
87360,control_change,0,0,1,,,,,,,,,0,64,127,,
87360,note_on,0,0,1,,,,,,,,,0,,,93,49
87360,note_on,60,0,3,,,,,,,,,2,,,45,49
87360,note_on,0,0,3,,,,,,,,,2,,,49,49
87360,note_on,0,0,3,,,,,,,,,2,,,57,49
87399,note_on,39,0,1,,,,,,,,,0,,,92,49
87400,note_on,1,0,1,,,,,,,,,0,,,93,0
87420,note_on,60,0,3,,,,,,,,,2,,,57,0
87420,note_on,0,0,3,,,,,,,,,2,,,49,0
87420,note_on,0,0,3,,,,,,,,,2,,,45,0
87439,note_on,39,0,1,,,,,,,,,0,,,92,0
87440,note_on,1,0,1,,,,,,,,,0,,,90,49
87480,note_on,0,0,1,,,,,,,,,0,,,88,49
87480,note_on,0,0,2,,,,,,,,,1,,,76,49
87480,note_on,300,0,2,,,,,,,,,1,,,73,49
87480,note_on,40,0,1,,,,,,,,,0,,,90,0
87519,note_on,39,0,1,,,,,,,,,0,,,86,49
87520,note_on,1,0,1,,,,,,,,,0,,,88,0
87559,note_on,39,0,1,,,,,,,,,0,,,86,0
87560,note_on,1,0,1,,,,,,,,,0,,,85,49
87570,note_on,90,0,2,,,,,,,,,1,,,76,0
87570,note_on,0,0,2,,,,,,,,,1,,,73,0
87570,note_on,0,0,2,,,,,,,,,1,,,73,49
87570,note_on,0,0,2,,,,,,,,,1,,,76,49
87600,note_on,30,0,2,,,,,,,,,1,,,76,0
87600,note_on,0,0,2,,,,,,,,,1,,,73,0
87600,note_on,0,0,2,,,,,,,,,1,,,71,49
87600,note_on,0,0,2,,,,,,,,,1,,,74,49
87600,note_on,40,0,1,,,,,,,,,0,,,85,0
87600,control_change,0,0,1,,,,,,,,,0,64,0,,
87600,note_on,0,0,1,,,,,,,,,0,,,83,49
87639,note_on,39,0,1,,,,,,,,,0,,,81,49
87640,note_on,1,0,1,,,,,,,,,0,,,83,0
87660,note_on,60,0,2,,,,,,,,,1,,,74,0
87660,note_on,0,0,2,,,,,,,,,1,,,71,0
87679,note_on,39,0,1,,,,,,,,,0,,,81,0
87680,note_on,1,0,1,,,,,,,,,0,,,80,49
87720,note_on,40,0,1,,,,,,,,,0,,,80,0
87720,note_on,0,0,3,,,,,,,,,2,,,59,49
87720,note_on,300,0,3,,,,,,,,,2,,,52,49
87720,note_on,0,0,1,,,,,,,,,0,,,78,49
87759,note_on,39,0,1,,,,,,,,,0,,,76,49
87760,note_on,1,0,1,,,,,,,,,0,,,78,0
87780,note_on,0,0,3,,,,,,,,,2,,,52,0
87780,note_on,60,0,3,,,,,,,,,2,,,59,0
87799,note_on,39,0,1,,,,,,,,,0,,,76,0
87800,note_on,1,0,1,,,,,,,,,0,,,74,49
87840,note_on,0,0,1,,,,,,,,,0,,,73,49
87840,note_on,40,0,1,,,,,,,,,0,,,74,0
87840,note_on,0,0,3,,,,,,,,,2,,,49,49
87840,note_on,0,0,3,,,,,,,,,2,,,57,49
87840,note_on,60,0,3,,,,,,,,,2,,,45,49
87879,note_on,39,0,1,,,,,,,,,0,,,71,49
87880,note_on,1,0,1,,,,,,,,,0,,,73,0
87900,note_on,60,0,3,,,,,,,,,2,,,57,0
87900,note_on,0,0,3,,,,,,,,,2,,,45,0
87900,note_on,0,0,3,,,,,,,,,2,,,49,0
87919,note_on,39,0,1,,,,,,,,,0,,,71,0
87920,note_on,1,0,1,,,,,,,,,0,,,69,49
87960,note_on,40,0,1,,,,,,,,,0,,,69,0
87960,note_on,0,0,1,,,,,,,,,0,,,68,49
87960,note_on,300,0,2,,,,,,,,,1,,,73,49
87960,note_on,0,0,2,,,,,,,,,1,,,76,49
87999,note_on,39,0,1,,,,,,,,,0,,,66,49
88000,note_on,1,0,1,,,,,,,,,0,,,68,0
88039,note_on,39,0,1,,,,,,,,,0,,,66,0
88040,note_on,1,0,1,,,,,,,,,0,,,64,49
88050,note_on,90,0,2,,,,,,,,,1,,,76,0
88050,note_on,0,0,2,,,,,,,,,1,,,73,0
88050,note_on,0,0,2,,,,,,,,,1,,,73,49
88050,note_on,0,0,2,,,,,,,,,1,,,76,49
88080,note_on,0,0,2,,,,,,,,,1,,,73,0
88080,note_on,0,0,1,,,,,,,,,0,,,62,49
88080,note_on,0,0,2,,,,,,,,,1,,,74,49
88080,note_on,30,0,2,,,,,,,,,1,,,76,0
88080,note_on,40,0,1,,,,,,,,,0,,,64,0
88080,note_on,0,0,2,,,,,,,,,1,,,71,49
88119,note_on,39,0,1,,,,,,,,,0,,,66,49
88120,note_on,1,0,1,,,,,,,,,0,,,62,0
88140,note_on,60,0,2,,,,,,,,,1,,,74,0
88140,note_on,0,0,2,,,,,,,,,1,,,71,0
88159,note_on,39,0,1,,,,,,,,,0,,,66,0
88160,note_on,1,0,1,,,,,,,,,0,,,64,49
88200,note_on,40,0,1,,,,,,,,,0,,,64,0
88200,note_on,0,0,1,,,,,,,,,0,,,62,49
88200,note_on,300,0,3,,,,,,,,,2,,,40,49
88239,note_on,39,0,1,,,,,,,,,0,,,61,49
88240,note_on,1,0,1,,,,,,,,,0,,,62,0
88260,note_on,60,0,3,,,,,,,,,2,,,40,0
88279,note_on,39,0,1,,,,,,,,,0,,,61,0
88280,note_on,1,0,1,,,,,,,,,0,,,59,49
88320,note_on,40,0,1,,,,,,,,,0,,,59,0
88320,note_on,60,0,3,,,,,,,,,2,,,33,49
88320,note_on,0,0,1,,,,,,,,,0,,,57,49
88320,control_change,0,0,1,,,,,,,,,0,64,127,,
88359,note_on,39,0,1,,,,,,,,,0,,,61,49
88360,note_on,1,0,1,,,,,,,,,0,,,57,0
88399,note_on,39,0,1,,,,,,,,,0,,,61,0
88400,note_on,1,0,1,,,,,,,,,0,,,57,49
88440,note_on,40,0,1,,,,,,,,,0,,,57,0
88440,note_on,0,0,1,,,,,,,,,0,,,61,49
88479,note_on,39,0,1,,,,,,,,,0,,,69,49
88480,note_on,1,0,1,,,,,,,,,0,,,61,0
88519,note_on,39,0,1,,,,,,,,,0,,,69,0
88520,note_on,0,0,1,,,,,,,,,0,,,61,49
88520,control_change,1,0,1,,,,,,,,,0,64,0,,
88560,note_on,0,0,3,,,,,,,,,2,,,45,49
88560,note_on,240,0,3,,,,,,,,,2,,,33,0
88560,note_on,0,0,1,,,,,,,,,0,,,57,49
88560,note_on,40,0,1,,,,,,,,,0,,,61,0
88566,note_on,6,0,3,,,,,,,,,2,,,45,0
88599,note_on,39,0,1,,,,,,,,,0,,,61,49
88600,note_on,1,0,1,,,,,,,,,0,,,57,0
88620,note_on,54,0,3,,,,,,,,,2,,,45,49
88626,note_on,6,0,3,,,,,,,,,2,,,45,0
88639,note_on,39,0,1,,,,,,,,,0,,,61,0
88640,note_on,1,0,1,,,,,,,,,0,,,57,49
88680,note_on,54,0,3,,,,,,,,,2,,,45,49
88680,note_on,0,0,1,,,,,,,,,0,,,61,49
88680,note_on,40,0,1,,,,,,,,,0,,,57,0
88686,note_on,6,0,3,,,,,,,,,2,,,45,0
88719,note_on,39,0,1,,,,,,,,,0,,,69,49
88720,note_on,1,0,1,,,,,,,,,0,,,61,0
88740,note_on,54,0,3,,,,,,,,,2,,,45,49
88746,note_on,6,0,3,,,,,,,,,2,,,45,0
88759,note_on,39,0,1,,,,,,,,,0,,,69,0
88760,note_on,1,0,1,,,,,,,,,0,,,61,49
88800,note_on,40,0,1,,,,,,,,,0,,,61,0
88800,note_on,0,0,1,,,,,,,,,0,,,61,62
88800,control_change,0,0,1,,,,,,,,,0,64,127,,
88800,note_on,54,0,3,,,,,,,,,2,,,45,49
88839,note_on,39,0,1,,,,,,,,,0,,,69,62
88840,note_on,1,0,1,,,,,,,,,0,,,61,0
88879,note_on,39,0,1,,,,,,,,,0,,,69,0
88880,note_on,1,0,1,,,,,,,,,0,,,61,62
88920,note_on,0,0,3,,,,,,,,,2,,,55,49
88920,note_on,40,0,1,,,,,,,,,0,,,61,0
88920,note_on,0,0,1,,,,,,,,,0,,,69,62
88920,note_on,120,0,3,,,,,,,,,2,,,45,0
88959,note_on,39,0,1,,,,,,,,,0,,,73,62
88960,note_on,1,0,1,,,,,,,,,0,,,69,0
88980,note_on,60,0,3,,,,,,,,,2,,,55,0
88999,note_on,39,0,1,,,,,,,,,0,,,73,0
89000,note_on,0,0,1,,,,,,,,,0,,,69,62
89000,control_change,1,0,1,,,,,,,,,0,64,0,,
89040,note_on,40,0,1,,,,,,,,,0,,,69,0
89040,note_on,0,0,1,,,,,,,,,0,,,61,62
89040,note_on,60,0,3,,,,,,,,,2,,,45,49
89046,note_on,6,0,3,,,,,,,,,2,,,45,0
89079,note_on,39,0,1,,,,,,,,,0,,,69,62
89080,note_on,1,0,1,,,,,,,,,0,,,61,0
89100,note_on,54,0,3,,,,,,,,,2,,,45,49
89106,note_on,6,0,3,,,,,,,,,2,,,45,0
89119,note_on,39,0,1,,,,,,,,,0,,,69,0
89120,note_on,1,0,1,,,,,,,,,0,,,61,62
89160,note_on,40,0,1,,,,,,,,,0,,,61,0
89160,note_on,0,0,1,,,,,,,,,0,,,69,62
89160,note_on,54,0,3,,,,,,,,,2,,,45,49
89166,note_on,6,0,3,,,,,,,,,2,,,45,0
89199,note_on,39,0,1,,,,,,,,,0,,,73,62
89200,note_on,1,0,1,,,,,,,,,0,,,69,0
89220,note_on,54,0,3,,,,,,,,,2,,,45,49
89226,note_on,6,0,3,,,,,,,,,2,,,45,0
89239,note_on,39,0,1,,,,,,,,,0,,,73,0
89240,note_on,1,0,1,,,,,,,,,0,,,69,62
89280,note_on,40,0,1,,,,,,,,,0,,,69,0
89280,note_on,0,0,1,,,,,,,,,0,,,64,75
89280,control_change,0,0,1,,,,,,,,,0,64,127,,
89280,note_on,54,0,3,,,,,,,,,2,,,45,62
89319,note_on,39,0,1,,,,,,,,,0,,,73,75
89320,note_on,1,0,1,,,,,,,,,0,,,64,0
89359,note_on,39,0,1,,,,,,,,,0,,,73,0
89360,note_on,1,0,1,,,,,,,,,0,,,64,75
89400,note_on,0,0,3,,,,,,,,,2,,,55,62
89400,note_on,40,0,1,,,,,,,,,0,,,64,0
89400,note_on,0,0,1,,,,,,,,,0,,,73,75
89400,note_on,120,0,3,,,,,,,,,2,,,45,0
89439,note_on,39,0,1,,,,,,,,,0,,,76,75
89440,note_on,1,0,1,,,,,,,,,0,,,73,0
89460,note_on,60,0,3,,,,,,,,,2,,,55,0
89479,note_on,39,0,1,,,,,,,,,0,,,76,0
89480,control_change,1,0,1,,,,,,,,,0,64,0,,
89480,note_on,0,0,1,,,,,,,,,0,,,73,75
89520,control_change,0,0,1,,,,,,,,,0,64,127,,
89520,note_on,0,0,1,,,,,,,,,0,,,64,75
89520,note_on,60,0,3,,,,,,,,,2,,,57,62
89520,note_on,40,0,1,,,,,,,,,0,,,73,0
89559,note_on,39,0,1,,,,,,,,,0,,,73,75
89560,note_on,1,0,1,,,,,,,,,0,,,64,0
89599,note_on,39,0,1,,,,,,,,,0,,,73,0
89600,note_on,1,0,1,,,,,,,,,0,,,64,75
89640,note_on,0,0,3,,,,,,,,,2,,,67,62
89640,note_on,120,0,3,,,,,,,,,2,,,57,0
89640,note_on,40,0,1,,,,,,,,,0,,,64,0
89640,note_on,0,0,1,,,,,,,,,0,,,73,75
89679,note_on,39,0,1,,,,,,,,,0,,,76,75
89680,note_on,1,0,1,,,,,,,,,0,,,73,0
89700,note_on,60,0,3,,,,,,,,,2,,,67,0
89719,note_on,39,0,1,,,,,,,,,0,,,76,0
89720,control_change,1,0,1,,,,,,,,,0,64,0,,
89720,note_on,0,0,1,,,,,,,,,0,,,73,75
89760,control_change,0,0,1,,,,,,,,,0,64,127,,
89760,note_on,0,0,1,,,,,,,,,0,,,69,88
89760,note_on,60,0,3,,,,,,,,,2,,,57,75
89760,note_on,40,0,1,,,,,,,,,0,,,73,0
89799,note_on,39,0,1,,,,,,,,,0,,,73,88
89800,note_on,1,0,1,,,,,,,,,0,,,69,0
89839,note_on,39,0,1,,,,,,,,,0,,,73,0
89840,note_on,1,0,1,,,,,,,,,0,,,69,88
89880,note_on,0,0,3,,,,,,,,,2,,,67,75
89880,note_on,120,0,3,,,,,,,,,2,,,57,0
89880,note_on,0,0,1,,,,,,,,,0,,,73,88
89880,note_on,40,0,1,,,,,,,,,0,,,69,0
89919,note_on,39,0,1,,,,,,,,,0,,,81,88
89920,note_on,1,0,1,,,,,,,,,0,,,73,0
89940,note_on,60,0,3,,,,,,,,,2,,,67,0
89959,note_on,39,0,1,,,,,,,,,0,,,81,0
89960,note_on,0,0,1,,,,,,,,,0,,,73,88
89960,control_change,1,0,1,,,,,,,,,0,64,0,,
90000,note_on,60,0,3,,,,,,,,,2,,,57,75
90000,control_change,0,0,1,,,,,,,,,0,64,127,,
90000,note_on,0,0,1,,,,,,,,,0,,,73,88
90000,note_on,40,0,1,,,,,,,,,0,,,73,0
90039,note_on,39,0,1,,,,,,,,,0,,,81,88
90040,note_on,1,0,1,,,,,,,,,0,,,73,0
90079,note_on,39,0,1,,,,,,,,,0,,,81,0
90080,note_on,1,0,1,,,,,,,,,0,,,73,88
90120,note_on,120,0,3,,,,,,,,,2,,,57,0
90120,note_on,40,0,1,,,,,,,,,0,,,73,0
90120,note_on,0,0,1,,,,,,,,,0,,,81,88
90120,note_on,0,0,3,,,,,,,,,2,,,67,75
90159,note_on,39,0,1,,,,,,,,,0,,,85,88
90160,note_on,1,0,1,,,,,,,,,0,,,81,0
90180,note_on,60,0,3,,,,,,,,,2,,,67,0
90199,note_on,39,0,1,,,,,,,,,0,,,85,0
90200,control_change,1,0,1,,,,,,,,,0,64,0,,
90200,note_on,0,0,1,,,,,,,,,0,,,81,88
90240,note_on,60,0,3,,,,,,,,,2,,,34,101
90240,note_on,0,0,3,,,,,,,,,2,,,46,101
90240,note_on,0,0,1,,,,,,,,,0,,,74,114
90240,note_on,0,0,1,,,,,,,,,0,,,82,114
90240,note_on,0,0,1,,,,,,,,,0,,,77,114
90240,note_on,40,0,1,,,,,,,,,0,,,81,0
90240,note_on,0,0,1,,,,,,,,,0,,,86,114
90480,note_on,0,0,3,,,,,,,,,2,,,34,0
90480,note_on,240,0,3,,,,,,,,,2,,,46,0
90480,note_on,0,0,1,,,,,,,,,0,,,70,114
90480,note_on,0,0,1,,,,,,,,,0,,,74,0
90480,note_on,0,0,1,,,,,,,,,0,,,82,0
90480,note_on,0,0,1,,,,,,,,,0,,,77,0
90480,note_on,0,0,3,,,,,,,,,2,,,58,101
90480,note_on,240,0,1,,,,,,,,,0,,,86,0
90480,note_on,0,0,1,,,,,,,,,0,,,62,114
90480,note_on,0,0,3,,,,,,,,,2,,,50,101
90486,note_on,0,0,1,,,,,,,,,0,,,62,0
90486,note_on,6,0,1,,,,,,,,,0,,,70,0
90486,note_on,0,0,3,,,,,,,,,2,,,50,0
90486,note_on,6,0,3,,,,,,,,,2,,,58,0
90540,note_on,54,0,1,,,,,,,,,0,,,62,114
90540,note_on,0,0,3,,,,,,,,,2,,,58,101
90540,note_on,0,0,1,,,,,,,,,0,,,70,114
90540,note_on,54,0,3,,,,,,,,,2,,,50,101
90546,note_on,6,0,3,,,,,,,,,2,,,58,0
90546,note_on,0,0,3,,,,,,,,,2,,,50,0
90546,note_on,6,0,1,,,,,,,,,0,,,70,0
90546,note_on,0,0,1,,,,,,,,,0,,,62,0
90600,note_on,54,0,1,,,,,,,,,0,,,62,114
90600,note_on,0,0,1,,,,,,,,,0,,,70,114
90600,note_on,54,0,3,,,,,,,,,2,,,50,101
90600,note_on,0,0,3,,,,,,,,,2,,,58,101
90606,note_on,6,0,1,,,,,,,,,0,,,70,0
90606,note_on,0,0,1,,,,,,,,,0,,,62,0
90606,note_on,6,0,3,,,,,,,,,2,,,58,0
90606,note_on,0,0,3,,,,,,,,,2,,,50,0
90660,note_on,54,0,3,,,,,,,,,2,,,50,101
90660,note_on,0,0,3,,,,,,,,,2,,,58,101
90660,note_on,54,0,1,,,,,,,,,0,,,62,114
90660,note_on,0,0,1,,,,,,,,,0,,,70,114
90666,note_on,0,0,1,,,,,,,,,0,,,62,0
90666,note_on,6,0,1,,,,,,,,,0,,,70,0
90666,note_on,0,0,3,,,,,,,,,2,,,50,0
90666,note_on,6,0,3,,,,,,,,,2,,,58,0
90720,note_on,54,0,3,,,,,,,,,2,,,50,101
90720,note_on,0,0,3,,,,,,,,,2,,,58,101
90720,note_on,54,0,1,,,,,,,,,0,,,62,114
90720,note_on,0,0,1,,,,,,,,,0,,,70,114
90840,note_on,0,0,1,,,,,,,,,0,,,72,114
90840,note_on,0,0,1,,,,,,,,,0,,,65,114
90840,note_on,0,0,1,,,,,,,,,0,,,62,0
90840,note_on,120,0,1,,,,,,,,,0,,,70,0
90840,note_on,120,0,3,,,,,,,,,2,,,58,0
90840,note_on,0,0,3,,,,,,,,,2,,,60,101
90840,note_on,0,0,3,,,,,,,,,2,,,53,101
90840,note_on,0,0,3,,,,,,,,,2,,,50,0
90900,note_on,0,0,3,,,,,,,,,2,,,53,0
90900,note_on,60,0,3,,,,,,,,,2,,,60,0
90900,note_on,60,0,1,,,,,,,,,0,,,72,0
90900,note_on,0,0,1,,,,,,,,,0,,,65,0
90960,note_on,0,0,3,,,,,,,,,2,,,60,101
90960,note_on,0,0,1,,,,,,,,,0,,,72,114
90960,note_on,60,0,3,,,,,,,,,2,,,53,101
90960,note_on,60,0,1,,,,,,,,,0,,,65,114
91080,note_on,120,0,1,,,,,,,,,0,,,72,0
91080,note_on,0,0,1,,,,,,,,,0,,,65,0
91080,note_on,0,0,1,,,,,,,,,0,,,74,114
91080,note_on,0,0,3,,,,,,,,,2,,,62,101
91080,note_on,0,0,3,,,,,,,,,2,,,58,101
91080,note_on,0,0,3,,,,,,,,,2,,,53,0
91080,note_on,120,0,3,,,,,,,,,2,,,60,0
91080,note_on,0,0,1,,,,,,,,,0,,,70,114
91140,note_on,0,0,3,,,,,,,,,2,,,58,0
91140,note_on,0,0,1,,,,,,,,,0,,,70,0
91140,note_on,60,0,3,,,,,,,,,2,,,62,0
91140,note_on,60,0,1,,,,,,,,,0,,,74,0
91200,note_on,60,0,3,,,,,,,,,2,,,58,101
91200,note_on,60,0,1,,,,,,,,,0,,,70,114
91200,note_on,0,0,1,,,,,,,,,0,,,74,114
91200,note_on,0,0,3,,,,,,,,,2,,,62,101
91320,note_on,120,0,1,,,,,,,,,0,,,74,0
91320,note_on,0,0,1,,,,,,,,,0,,,70,0
91320,note_on,0,0,3,,,,,,,,,2,,,53,101
91320,note_on,0,0,3,,,,,,,,,2,,,58,0
91320,note_on,120,0,3,,,,,,,,,2,,,62,0
91320,note_on,0,0,1,,,,,,,,,0,,,65,114
91320,note_on,0,0,1,,,,,,,,,0,,,72,114
91320,note_on,0,0,3,,,,,,,,,2,,,60,101
91380,note_on,0,0,1,,,,,,,,,0,,,65,0
91380,note_on,60,0,1,,,,,,,,,0,,,72,0
91380,note_on,60,0,3,,,,,,,,,2,,,60,0
91380,note_on,0,0,3,,,,,,,,,2,,,53,0
91440,note_on,60,0,1,,,,,,,,,0,,,65,114
91440,note_on,0,0,1,,,,,,,,,0,,,72,114
91440,note_on,60,0,3,,,,,,,,,2,,,53,101
91440,note_on,0,0,3,,,,,,,,,2,,,60,101
91446,note_on,0,0,1,,,,,,,,,0,,,65,0
91446,note_on,6,0,1,,,,,,,,,0,,,72,0
91446,note_on,0,0,3,,,,,,,,,2,,,53,0
91446,note_on,6,0,3,,,,,,,,,2,,,60,0
91500,note_on,0,0,3,,,,,,,,,2,,,60,101
91500,note_on,54,0,3,,,,,,,,,2,,,53,101
91500,note_on,54,0,1,,,,,,,,,0,,,65,114
91500,note_on,0,0,1,,,,,,,,,0,,,72,114
91506,note_on,0,0,3,,,,,,,,,2,,,53,0
91506,note_on,6,0,3,,,,,,,,,2,,,60,0
91506,note_on,6,0,1,,,,,,,,,0,,,72,0
91506,note_on,0,0,1,,,,,,,,,0,,,65,0
91560,note_on,0,0,3,,,,,,,,,2,,,60,101
91560,note_on,54,0,1,,,,,,,,,0,,,65,114
91560,note_on,0,0,1,,,,,,,,,0,,,72,114
91560,note_on,54,0,3,,,,,,,,,2,,,53,101
91566,note_on,6,0,3,,,,,,,,,2,,,60,0
91566,note_on,0,0,3,,,,,,,,,2,,,53,0
91566,note_on,6,0,1,,,,,,,,,0,,,72,0
91566,note_on,0,0,1,,,,,,,,,0,,,65,0
91620,note_on,54,0,3,,,,,,,,,2,,,53,101
91620,note_on,54,0,1,,,,,,,,,0,,,65,114
91620,note_on,0,0,1,,,,,,,,,0,,,72,114
91620,note_on,0,0,3,,,,,,,,,2,,,60,101
91626,note_on,0,0,3,,,,,,,,,2,,,53,0
91626,note_on,0,0,1,,,,,,,,,0,,,65,0
91626,note_on,6,0,1,,,,,,,,,0,,,72,0
91626,note_on,6,0,3,,,,,,,,,2,,,60,0
91680,note_on,0,0,1,,,,,,,,,0,,,72,114
91680,note_on,54,0,3,,,,,,,,,2,,,53,101
91680,note_on,0,0,3,,,,,,,,,2,,,60,101
91680,note_on,54,0,1,,,,,,,,,0,,,65,114
91800,note_on,0,0,3,,,,,,,,,2,,,62,101
91800,note_on,0,0,3,,,,,,,,,2,,,53,0
91800,note_on,120,0,3,,,,,,,,,2,,,60,0
91800,note_on,0,0,1,,,,,,,,,0,,,77,114
91800,note_on,120,0,1,,,,,,,,,0,,,72,0
91800,note_on,0,0,1,,,,,,,,,0,,,65,0
91800,note_on,0,0,3,,,,,,,,,2,,,65,101
91800,note_on,0,0,1,,,,,,,,,0,,,74,114
91860,note_on,0,0,3,,,,,,,,,2,,,62,0
91860,note_on,60,0,3,,,,,,,,,2,,,65,0
91860,note_on,60,0,1,,,,,,,,,0,,,77,0
91860,note_on,0,0,1,,,,,,,,,0,,,74,0
91920,note_on,60,0,3,,,,,,,,,2,,,62,101
91920,note_on,0,0,3,,,,,,,,,2,,,65,101
91920,note_on,60,0,1,,,,,,,,,0,,,74,114
91920,note_on,0,0,1,,,,,,,,,0,,,77,114
92040,note_on,0,0,1,,,,,,,,,0,,,69,114
92040,note_on,0,0,1,,,,,,,,,0,,,75,114
92040,note_on,120,0,1,,,,,,,,,0,,,77,0
92040,note_on,0,0,1,,,,,,,,,0,,,74,0
92040,note_on,120,0,3,,,,,,,,,2,,,65,0
92040,note_on,0,0,3,,,,,,,,,2,,,62,0
92040,note_on,0,0,3,,,,,,,,,2,,,57,101
92040,note_on,0,0,3,,,,,,,,,2,,,63,101
92100,note_on,0,0,1,,,,,,,,,0,,,69,0
92100,note_on,60,0,3,,,,,,,,,2,,,63,0
92100,note_on,0,0,3,,,,,,,,,2,,,57,0
92100,note_on,60,0,1,,,,,,,,,0,,,75,0
92160,note_on,0,0,3,,,,,,,,,2,,,63,101
92160,note_on,60,0,3,,,,,,,,,2,,,57,101
92160,note_on,0,0,1,,,,,,,,,0,,,75,114
92160,note_on,60,0,1,,,,,,,,,0,,,69,114
92280,note_on,0,0,3,,,,,,,,,2,,,57,0
92280,note_on,0,0,1,,,,,,,,,0,,,74,114
92280,note_on,0,0,1,,,,,,,,,0,,,70,114
92280,note_on,0,0,1,,,,,,,,,0,,,69,0
92280,note_on,0,0,3,,,,,,,,,2,,,58,101
92280,note_on,120,0,1,,,,,,,,,0,,,75,0
92280,note_on,120,0,3,,,,,,,,,2,,,63,0
92280,note_on,0,0,3,,,,,,,,,2,,,62,101
92340,note_on,0,0,1,,,,,,,,,0,,,70,0
92340,note_on,60,0,3,,,,,,,,,2,,,62,0
92340,note_on,0,0,3,,,,,,,,,2,,,58,0
92340,note_on,60,0,1,,,,,,,,,0,,,74,0
92400,note_on,0,0,3,,,,,,,,,2,,,43,101
92400,note_on,60,0,1,,,,,,,,,0,,,70,114
92400,note_on,0,0,1,,,,,,,,,0,,,74,114
92400,note_on,0,0,1,,,,,,,,,0,,,79,114
92400,note_on,0,0,1,,,,,,,,,0,,,82,114
92400,note_on,60,0,3,,,,,,,,,2,,,31,101
92406,note_on,0,0,3,,,,,,,,,2,,,31,0
92406,note_on,0,0,1,,,,,,,,,0,,,74,0
92406,note_on,6,0,3,,,,,,,,,2,,,43,0
92406,note_on,6,0,1,,,,,,,,,0,,,82,0
92406,note_on,0,0,1,,,,,,,,,0,,,70,0
92406,note_on,0,0,1,,,,,,,,,0,,,79,0
92460,note_on,54,0,1,,,,,,,,,0,,,70,114
92460,note_on,54,0,3,,,,,,,,,2,,,31,101
92460,note_on,0,0,1,,,,,,,,,0,,,74,114
92460,note_on,0,0,1,,,,,,,,,0,,,79,114
92460,note_on,0,0,3,,,,,,,,,2,,,43,101
92460,note_on,0,0,1,,,,,,,,,0,,,82,114
92466,note_on,6,0,1,,,,,,,,,0,,,82,0
92466,note_on,0,0,1,,,,,,,,,0,,,70,0
92466,note_on,0,0,1,,,,,,,,,0,,,74,0
92466,note_on,0,0,1,,,,,,,,,0,,,79,0
92466,note_on,0,0,3,,,,,,,,,2,,,31,0
92466,note_on,6,0,3,,,,,,,,,2,,,43,0
92520,note_on,0,0,3,,,,,,,,,2,,,43,101
92520,note_on,54,0,3,,,,,,,,,2,,,31,101
92520,note_on,0,0,1,,,,,,,,,0,,,82,114
92520,note_on,0,0,1,,,,,,,,,0,,,79,114
92520,note_on,0,0,1,,,,,,,,,0,,,74,114
92520,note_on,54,0,1,,,,,,,,,0,,,70,114
92526,note_on,0,0,1,,,,,,,,,0,,,74,0
92526,note_on,0,0,1,,,,,,,,,0,,,79,0
92526,note_on,6,0,1,,,,,,,,,0,,,82,0
92526,note_on,6,0,3,,,,,,,,,2,,,43,0
92526,note_on,0,0,3,,,,,,,,,2,,,31,0
92526,note_on,0,0,1,,,,,,,,,0,,,70,0
92580,note_on,0,0,1,,,,,,,,,0,,,74,114
92580,note_on,0,0,1,,,,,,,,,0,,,79,114
92580,note_on,0,0,1,,,,,,,,,0,,,82,114
92580,note_on,54,0,3,,,,,,,,,2,,,31,101
92580,note_on,0,0,3,,,,,,,,,2,,,43,101
92580,note_on,54,0,1,,,,,,,,,0,,,70,114
92586,note_on,6,0,1,,,,,,,,,0,,,82,0
92586,note_on,0,0,1,,,,,,,,,0,,,70,0
92586,note_on,0,0,1,,,,,,,,,0,,,74,0
92586,note_on,0,0,1,,,,,,,,,0,,,79,0
92586,note_on,0,0,3,,,,,,,,,2,,,31,0
92586,note_on,6,0,3,,,,,,,,,2,,,43,0
92640,note_on,54,0,1,,,,,,,,,0,,,70,114
92640,note_on,0,0,1,,,,,,,,,0,,,74,114
92640,note_on,0,0,1,,,,,,,,,0,,,79,114
92640,note_on,0,0,1,,,,,,,,,0,,,82,114
92640,note_on,0,0,3,,,,,,,,,2,,,43,101
92640,note_on,54,0,3,,,,,,,,,2,,,31,101
92760,note_on,0,0,3,,,,,,,,,2,,,34,101
92760,note_on,0,0,3,,,,,,,,,2,,,46,101
92760,note_on,120,0,3,,,,,,,,,2,,,43,0
92760,note_on,0,0,3,,,,,,,,,2,,,31,0
92760,note_on,120,0,1,,,,,,,,,0,,,82,0
92760,note_on,0,0,1,,,,,,,,,0,,,79,0
92760,note_on,0,0,1,,,,,,,,,0,,,74,0
92760,note_on,0,0,1,,,,,,,,,0,,,74,114
92760,note_on,0,0,1,,,,,,,,,0,,,79,114
92820,note_on,0,0,1,,,,,,,,,0,,,74,0
92820,note_on,60,0,1,,,,,,,,,0,,,79,0
92820,note_on,60,0,3,,,,,,,,,2,,,46,0
92820,note_on,0,0,3,,,,,,,,,2,,,34,0
92820,note_on,0,0,1,,,,,,,,,0,,,70,0
92880,note_on,60,0,1,,,,,,,,,0,,,65,114
92880,note_on,0,0,1,,,,,,,,,0,,,74,114
92880,note_on,0,0,1,,,,,,,,,0,,,77,114
92880,note_on,60,0,3,,,,,,,,,2,,,34,101
92880,note_on,0,0,3,,,,,,,,,2,,,46,101
92892,note_on,0,0,3,,,,,,,,,2,,,34,0
92892,note_on,0,0,1,,,,,,,,,0,,,74,0
92892,note_on,12,0,1,,,,,,,,,0,,,77,0
92892,note_on,12,0,3,,,,,,,,,2,,,46,0
92892,note_on,0,0,1,,,,,,,,,0,,,65,0
93000,note_on,108,0,3,,,,,,,,,2,,,38,101
93000,note_on,0,0,3,,,,,,,,,2,,,50,101
93000,note_on,0,0,1,,,,,,,,,0,,,74,114
93000,note_on,0,0,1,,,,,,,,,0,,,70,114
93000,note_on,108,0,1,,,,,,,,,0,,,65,114
93012,note_on,12,0,3,,,,,,,,,2,,,50,0
93012,note_on,0,0,1,,,,,,,,,0,,,65,0
93012,note_on,0,0,3,,,,,,,,,2,,,38,0
93012,note_on,0,0,1,,,,,,,,,0,,,70,0
93012,note_on,12,0,1,,,,,,,,,0,,,74,0
93120,note_on,0,0,1,,,,,,,,,0,,,72,114
93120,note_on,0,0,1,,,,,,,,,0,,,69,114
93120,note_on,108,0,1,,,,,,,,,0,,,65,114
93120,note_on,0,0,3,,,,,,,,,2,,,53,101
93120,note_on,108,0,3,,,,,,,,,2,,,41,101
93360,note_on,240,0,3,,,,,,,,,2,,,53,0
93360,note_on,0,0,3,,,,,,,,,2,,,41,0
93360,note_on,0,0,3,,,,,,,,,2,,,37,101
93360,note_on,0,0,3,,,,,,,,,2,,,49,101
93360,note_on,240,0,1,,,,,,,,,0,,,72,0
93360,note_on,0,0,1,,,,,,,,,0,,,61,114
93360,note_on,0,0,1,,,,,,,,,0,,,65,0
93360,note_on,0,0,1,,,,,,,,,0,,,69,0
93360,note_on,0,0,1,,,,,,,,,0,,,73,114
93366,note_on,6,0,3,,,,,,,,,2,,,49,0
93366,note_on,0,0,3,,,,,,,,,2,,,37,0
93366,note_on,6,0,1,,,,,,,,,0,,,73,0
93366,note_on,0,0,1,,,,,,,,,0,,,61,0
93420,note_on,54,0,3,,,,,,,,,2,,,37,101
93420,note_on,54,0,1,,,,,,,,,0,,,61,114
93420,note_on,0,0,1,,,,,,,,,0,,,73,114
93420,note_on,0,0,3,,,,,,,,,2,,,49,101
93426,note_on,6,0,1,,,,,,,,,0,,,73,0
93426,note_on,0,0,1,,,,,,,,,0,,,61,0
93426,note_on,6,0,3,,,,,,,,,2,,,49,0
93426,note_on,0,0,3,,,,,,,,,2,,,37,0
93480,note_on,54,0,1,,,,,,,,,0,,,61,114
93480,note_on,0,0,1,,,,,,,,,0,,,73,114
93480,note_on,0,0,3,,,,,,,,,2,,,49,101
93480,note_on,54,0,3,,,,,,,,,2,,,37,101
93486,note_on,0,0,3,,,,,,,,,2,,,37,0
93486,note_on,0,0,1,,,,,,,,,0,,,61,0
93486,note_on,6,0,3,,,,,,,,,2,,,49,0
93486,note_on,6,0,1,,,,,,,,,0,,,73,0
93540,note_on,54,0,3,,,,,,,,,2,,,37,101
93540,note_on,0,0,1,,,,,,,,,0,,,73,114
93540,note_on,0,0,3,,,,,,,,,2,,,49,101
93540,note_on,54,0,1,,,,,,,,,0,,,61,114
93546,note_on,6,0,3,,,,,,,,,2,,,49,0
93546,note_on,0,0,3,,,,,,,,,2,,,37,0
93546,note_on,0,0,1,,,,,,,,,0,,,61,0
93546,note_on,6,0,1,,,,,,,,,0,,,73,0
93600,note_on,0,0,1,,,,,,,,,0,,,77,114
93600,note_on,0,0,1,,,,,,,,,0,,,74,114
93600,note_on,54,0,1,,,,,,,,,0,,,65,114
93600,note_on,0,0,3,,,,,,,,,2,,,53,101
93600,note_on,0,0,3,,,,,,,,,2,,,50,101
93600,note_on,54,0,3,,,,,,,,,2,,,41,101
93720,note_on,0,0,1,,,,,,,,,0,,,74,0
93720,note_on,0,0,1,,,,,,,,,0,,,70,114
93720,note_on,0,0,1,,,,,,,,,0,,,74,114
93720,note_on,120,0,1,,,,,,,,,0,,,77,0
93780,note_on,0,0,1,,,,,,,,,0,,,65,0
93780,note_on,60,0,1,,,,,,,,,0,,,74,0
93780,note_on,0,0,1,,,,,,,,,0,,,70,0
93840,note_on,240,0,3,,,,,,,,,2,,,53,0
93840,note_on,0,0,3,,,,,,,,,2,,,50,0
93840,note_on,0,0,3,,,,,,,,,2,,,41,0
93840,note_on,0,0,3,,,,,,,,,2,,,50,101
93840,note_on,60,0,1,,,,,,,,,0,,,65,114
93840,note_on,0,0,3,,,,,,,,,2,,,62,101
93840,note_on,0,0,1,,,,,,,,,0,,,74,114
93840,note_on,0,0,1,,,,,,,,,0,,,70,114
93840,note_on,0,0,3,,,,,,,,,2,,,58,101
93852,note_on,0,0,1,,,,,,,,,0,,,70,0
93852,note_on,12,0,3,,,,,,,,,2,,,62,0
93852,note_on,0,0,3,,,,,,,,,2,,,58,0
93852,note_on,0,0,3,,,,,,,,,2,,,50,0
93852,note_on,0,0,1,,,,,,,,,0,,,65,0
93852,note_on,12,0,1,,,,,,,,,0,,,74,0
93960,note_on,108,0,1,,,,,,,,,0,,,65,114
93960,note_on,0,0,1,,,,,,,,,0,,,69,114
93960,note_on,0,0,1,,,,,,,,,0,,,72,114
93960,note_on,0,0,3,,,,,,,,,2,,,60,101
93960,note_on,0,0,3,,,,,,,,,2,,,57,101
93960,note_on,108,0,3,,,,,,,,,2,,,53,101
93972,note_on,0,0,3,,,,,,,,,2,,,53,0
93972,note_on,12,0,3,,,,,,,,,2,,,60,0
93972,note_on,0,0,1,,,,,,,,,0,,,65,0
93972,note_on,0,0,1,,,,,,,,,0,,,69,0
93972,note_on,12,0,1,,,,,,,,,0,,,72,0
93972,note_on,0,0,3,,,,,,,,,2,,,57,0
94080,note_on,108,0,3,,,,,,,,,2,,,34,114
94080,note_on,0,0,1,,,,,,,,,0,,,86,114
94080,note_on,0,0,1,,,,,,,,,0,,,77,114
94080,note_on,108,0,1,,,,,,,,,0,,,74,114
94080,note_on,0,0,3,,,,,,,,,2,,,46,114
94080,note_on,0,0,1,,,,,,,,,0,,,82,114
94320,note_on,0,0,3,,,,,,,,,2,,,34,0
94320,note_on,240,0,1,,,,,,,,,0,,,86,0
94320,note_on,0,0,3,,,,,,,,,2,,,58,114
94320,note_on,240,0,3,,,,,,,,,2,,,46,0
94320,note_on,0,0,1,,,,,,,,,0,,,65,114
94320,note_on,0,0,3,,,,,,,,,2,,,50,114
94320,note_on,0,0,1,,,,,,,,,0,,,82,0
94320,note_on,0,0,1,,,,,,,,,0,,,74,0
94320,note_on,0,0,1,,,,,,,,,0,,,77,0
94326,note_on,0,0,3,,,,,,,,,2,,,50,0
94326,note_on,6,0,3,,,,,,,,,2,,,58,0
94359,note_on,39,0,1,,,,,,,,,0,,,63,114
94360,note_on,1,0,1,,,,,,,,,0,,,65,0
94380,note_on,54,0,3,,,,,,,,,2,,,50,114
94380,note_on,0,0,3,,,,,,,,,2,,,58,114
94386,note_on,0,0,3,,,,,,,,,2,,,50,0
94386,note_on,6,0,3,,,,,,,,,2,,,58,0
94399,note_on,39,0,1,,,,,,,,,0,,,63,0
94400,note_on,1,0,1,,,,,,,,,0,,,62,114
94440,note_on,0,0,3,,,,,,,,,2,,,58,114
94440,note_on,54,0,3,,,,,,,,,2,,,50,114
94440,note_on,40,0,1,,,,,,,,,0,,,62,0
94440,note_on,0,0,1,,,,,,,,,0,,,70,114
94446,note_on,0,0,3,,,,,,,,,2,,,50,0
94446,note_on,6,0,3,,,,,,,,,2,,,58,0
94479,note_on,39,0,1,,,,,,,,,0,,,69,114
94480,note_on,1,0,1,,,,,,,,,0,,,70,0
94500,note_on,0,0,3,,,,,,,,,2,,,58,114
94500,note_on,54,0,3,,,,,,,,,2,,,50,114
94506,note_on,0,0,3,,,,,,,,,2,,,50,0
94506,note_on,6,0,3,,,,,,,,,2,,,58,0
94519,note_on,39,0,1,,,,,,,,,0,,,69,0
94520,note_on,1,0,1,,,,,,,,,0,,,67,114
94560,note_on,0,0,3,,,,,,,,,2,,,58,114
94560,note_on,54,0,3,,,,,,,,,2,,,50,114
94560,note_on,40,0,1,,,,,,,,,0,,,67,0
94560,note_on,0,0,1,,,,,,,,,0,,,65,114
94680,note_on,0,0,3,,,,,,,,,2,,,60,114
94680,note_on,0,0,3,,,,,,,,,2,,,53,114
94680,note_on,120,0,3,,,,,,,,,2,,,58,0
94680,note_on,0,0,3,,,,,,,,,2,,,50,0
94740,note_on,0,0,3,,,,,,,,,2,,,53,0
94740,note_on,60,0,3,,,,,,,,,2,,,60,0
94800,note_on,0,0,3,,,,,,,,,2,,,60,114
94800,note_on,0,0,1,,,,,,,,,0,,,77,114
94800,note_on,240,0,1,,,,,,,,,0,,,65,0
94800,note_on,60,0,3,,,,,,,,,2,,,53,114
94839,note_on,39,0,1,,,,,,,,,0,,,75,114
94840,note_on,1,0,1,,,,,,,,,0,,,77,0
94879,note_on,39,0,1,,,,,,,,,0,,,75,0
94880,note_on,1,0,1,,,,,,,,,0,,,74,114
94920,note_on,0,0,3,,,,,,,,,2,,,62,114
94920,note_on,0,0,3,,,,,,,,,2,,,58,114
94920,note_on,0,0,3,,,,,,,,,2,,,53,0
94920,note_on,120,0,3,,,,,,,,,2,,,60,0
94920,note_on,0,0,1,,,,,,,,,0,,,82,114
94920,note_on,40,0,1,,,,,,,,,0,,,74,0
94959,note_on,39,0,1,,,,,,,,,0,,,81,114
94960,note_on,1,0,1,,,,,,,,,0,,,82,0
94980,note_on,60,0,3,,,,,,,,,2,,,62,0
94980,note_on,0,0,3,,,,,,,,,2,,,58,0
94999,note_on,39,0,1,,,,,,,,,0,,,81,0
95000,note_on,1,0,1,,,,,,,,,0,,,79,114
95040,note_on,0,0,1,,,,,,,,,0,,,77,114
95040,note_on,40,0,1,,,,,,,,,0,,,79,0
95040,note_on,60,0,3,,,,,,,,,2,,,58,114
95040,note_on,0,0,3,,,,,,,,,2,,,62,114
95160,note_on,0,0,3,,,,,,,,,2,,,60,114
95160,note_on,0,0,3,,,,,,,,,2,,,58,0
95160,note_on,120,0,3,,,,,,,,,2,,,62,0
95160,note_on,0,0,3,,,,,,,,,2,,,53,114
95220,note_on,60,0,3,,,,,,,,,2,,,60,0
95220,note_on,0,0,3,,,,,,,,,2,,,53,0
95280,note_on,0,0,1,,,,,,,,,0,,,77,114
95280,note_on,240,0,1,,,,,,,,,0,,,77,0
95280,note_on,60,0,3,,,,,,,,,2,,,53,114
95280,note_on,0,0,3,,,,,,,,,2,,,60,114
95286,note_on,6,0,3,,,,,,,,,2,,,60,0
95286,note_on,0,0,3,,,,,,,,,2,,,53,0
95319,note_on,39,0,1,,,,,,,,,0,,,81,114
95320,note_on,1,0,1,,,,,,,,,0,,,77,0
95340,note_on,54,0,3,,,,,,,,,2,,,53,114
95340,note_on,0,0,3,,,,,,,,,2,,,60,114
95346,note_on,6,0,3,,,,,,,,,2,,,60,0
95346,note_on,0,0,3,,,,,,,,,2,,,53,0
95359,note_on,39,0,1,,,,,,,,,0,,,81,0
95360,note_on,1,0,1,,,,,,,,,0,,,82,114
95400,note_on,40,0,1,,,,,,,,,0,,,82,0
95400,note_on,54,0,3,,,,,,,,,2,,,53,114
95400,note_on,0,0,1,,,,,,,,,0,,,84,114
95400,note_on,0,0,3,,,,,,,,,2,,,60,114
95406,note_on,6,0,3,,,,,,,,,2,,,60,0
95406,note_on,0,0,3,,,,,,,,,2,,,53,0
95439,note_on,39,0,1,,,,,,,,,0,,,86,114
95440,note_on,1,0,1,,,,,,,,,0,,,84,0
95460,note_on,54,0,3,,,,,,,,,2,,,53,114
95460,note_on,0,0,3,,,,,,,,,2,,,60,114
95466,note_on,6,0,3,,,,,,,,,2,,,60,0
95466,note_on,0,0,3,,,,,,,,,2,,,53,0
95479,note_on,39,0,1,,,,,,,,,0,,,86,0
95480,note_on,1,0,1,,,,,,,,,0,,,87,114
95520,note_on,40,0,1,,,,,,,,,0,,,87,0
95520,note_on,0,0,1,,,,,,,,,0,,,89,114
95520,note_on,54,0,3,,,,,,,,,2,,,53,114
95520,note_on,0,0,3,,,,,,,,,2,,,60,114
95640,note_on,0,0,3,,,,,,,,,2,,,65,114
95640,note_on,0,0,3,,,,,,,,,2,,,62,114
95640,note_on,120,0,3,,,,,,,,,2,,,60,0
95640,note_on,0,0,3,,,,,,,,,2,,,53,0
95700,note_on,0,0,3,,,,,,,,,2,,,62,0
95700,note_on,60,0,3,,,,,,,,,2,,,65,0
95760,note_on,0,0,1,,,,,,,,,0,,,81,114
95760,note_on,0,0,3,,,,,,,,,2,,,65,114
95760,note_on,60,0,3,,,,,,,,,2,,,62,114
95760,control_change,0,0,1,,,,,,,,,0,64,127,,
95760,note_on,240,0,1,,,,,,,,,0,,,89,0
95799,note_on,39,0,1,,,,,,,,,0,,,82,114
95800,note_on,1,0,1,,,,,,,,,0,,,81,0
95839,note_on,39,0,1,,,,,,,,,0,,,82,0
95840,note_on,1,0,1,,,,,,,,,0,,,84,114
95880,note_on,40,0,1,,,,,,,,,0,,,84,0
95880,note_on,120,0,3,,,,,,,,,2,,,65,0
95880,note_on,0,0,3,,,,,,,,,2,,,57,114
95880,note_on,0,0,3,,,,,,,,,2,,,63,114
95880,note_on,0,0,1,,,,,,,,,0,,,86,114
95880,note_on,0,0,3,,,,,,,,,2,,,62,0
95919,note_on,39,0,1,,,,,,,,,0,,,87,114
95920,note_on,1,0,1,,,,,,,,,0,,,86,0
95940,note_on,60,0,3,,,,,,,,,2,,,63,0
95940,note_on,0,0,3,,,,,,,,,2,,,57,0
95959,note_on,39,0,1,,,,,,,,,0,,,87,0
95960,control_change,1,0,1,,,,,,,,,0,64,0,,
95960,note_on,0,0,1,,,,,,,,,0,,,89,114
96000,note_on,40,0,1,,,,,,,,,0,,,89,0
96000,note_on,0,0,3,,,,,,,,,2,,,63,114
96000,note_on,60,0,3,,,,,,,,,2,,,57,114
96000,note_on,0,0,1,,,,,,,,,0,,,90,114
96120,note_on,0,0,3,,,,,,,,,2,,,57,0
96120,note_on,120,0,3,,,,,,,,,2,,,63,0
96120,note_on,120,0,1,,,,,,,,,0,,,90,0
96120,note_on,0,0,1,,,,,,,,,0,,,91,114
96120,note_on,0,0,3,,,,,,,,,2,,,58,114
96120,note_on,0,0,3,,,,,,,,,2,,,62,114
96180,note_on,0,0,3,,,,,,,,,2,,,58,0
96180,note_on,60,0,3,,,,,,,,,2,,,62,0
96180,note_on,60,0,1,,,,,,,,,0,,,91,0
96240,note_on,60,0,1,,,,,,,,,0,,,70,114
96240,note_on,0,0,1,,,,,,,,,0,,,74,114
96240,note_on,0,0,1,,,,,,,,,0,,,79,114
96240,note_on,0,0,1,,,,,,,,,0,,,82,114
96240,note_on,60,0,3,,,,,,,,,2,,,31,114
96246,note_on,0,0,1,,,,,,,,,0,,,70,0
96246,note_on,0,0,1,,,,,,,,,0,,,79,0
96246,note_on,0,0,1,,,,,,,,,0,,,74,0
96246,note_on,6,0,1,,,,,,,,,0,,,82,0
96279,note_on,39,0,3,,,,,,,,,2,,,34,114
96280,note_on,1,0,3,,,,,,,,,2,,,31,0
96300,note_on,54,0,1,,,,,,,,,0,,,70,114
96300,note_on,0,0,1,,,,,,,,,0,,,82,114
96300,note_on,0,0,1,,,,,,,,,0,,,79,114
96300,note_on,0,0,1,,,,,,,,,0,,,74,114
96306,note_on,0,0,1,,,,,,,,,0,,,74,0
96306,note_on,0,0,1,,,,,,,,,0,,,70,0
96306,note_on,6,0,1,,,,,,,,,0,,,82,0
96306,note_on,0,0,1,,,,,,,,,0,,,79,0
96319,note_on,39,0,3,,,,,,,,,2,,,34,0
96320,note_on,1,0,3,,,,,,,,,2,,,36,114
96360,note_on,0,0,1,,,,,,,,,0,,,82,114
96360,note_on,40,0,3,,,,,,,,,2,,,36,0
96360,note_on,0,0,3,,,,,,,,,2,,,38,114
96360,note_on,0,0,1,,,,,,,,,0,,,74,114
96360,note_on,0,0,1,,,,,,,,,0,,,79,114
96360,note_on,54,0,1,,,,,,,,,0,,,70,114
96366,note_on,0,0,1,,,,,,,,,0,,,79,0
96366,note_on,0,0,1,,,,,,,,,0,,,74,0
96366,note_on,0,0,1,,,,,,,,,0,,,70,0
96366,note_on,6,0,1,,,,,,,,,0,,,82,0
96399,note_on,39,0,3,,,,,,,,,2,,,40,114
96400,note_on,1,0,3,,,,,,,,,2,,,38,0
96420,note_on,0,0,1,,,,,,,,,0,,,79,114
96420,note_on,0,0,1,,,,,,,,,0,,,82,114
96420,note_on,0,0,1,,,,,,,,,0,,,74,114
96420,note_on,54,0,1,,,,,,,,,0,,,70,114
96426,note_on,6,0,1,,,,,,,,,0,,,82,0
96426,note_on,0,0,1,,,,,,,,,0,,,70,0
96426,note_on,0,0,1,,,,,,,,,0,,,74,0
96426,note_on,0,0,1,,,,,,,,,0,,,79,0
96439,note_on,39,0,3,,,,,,,,,2,,,40,0
96440,note_on,1,0,3,,,,,,,,,2,,,42,114
96480,note_on,0,0,3,,,,,,,,,2,,,43,114
96480,note_on,40,0,3,,,,,,,,,2,,,42,0
96480,note_on,0,0,1,,,,,,,,,0,,,82,114
96480,note_on,0,0,1,,,,,,,,,0,,,79,114
96480,note_on,0,0,1,,,,,,,,,0,,,74,114
96480,note_on,54,0,1,,,,,,,,,0,,,70,114
96600,note_on,0,0,1,,,,,,,,,0,,,79,114
96600,note_on,0,0,1,,,,,,,,,0,,,74,114
96600,note_on,0,0,1,,,,,,,,,0,,,74,0
96600,note_on,0,0,1,,,,,,,,,0,,,79,0
96600,note_on,120,0,1,,,,,,,,,0,,,82,0
96600,note_on,120,0,3,,,,,,,,,2,,,43,0
96600,note_on,0,0,3,,,,,,,,,2,,,46,114
96660,note_on,0,0,1,,,,,,,,,0,,,74,0
96660,note_on,0,0,1,,,,,,,,,0,,,70,0
96660,note_on,60,0,1,,,,,,,,,0,,,79,0
96660,note_on,60,0,3,,,,,,,,,2,,,46,0
96720,note_on,0,0,1,,,,,,,,,0,,,77,114
96720,note_on,60,0,3,,,,,,,,,2,,,46,114
96720,note_on,0,0,1,,,,,,,,,0,,,74,114
96720,note_on,60,0,1,,,,,,,,,0,,,65,114
96732,note_on,12,0,1,,,,,,,,,0,,,77,0
96732,note_on,0,0,1,,,,,,,,,0,,,74,0
96732,note_on,0,0,1,,,,,,,,,0,,,65,0
96759,note_on,39,0,3,,,,,,,,,2,,,45,114
96760,note_on,1,0,3,,,,,,,,,2,,,46,0
96799,note_on,39,0,3,,,,,,,,,2,,,45,0
96800,note_on,1,0,3,,,,,,,,,2,,,46,114
96840,note_on,0,0,3,,,,,,,,,2,,,50,114
96840,note_on,40,0,3,,,,,,,,,2,,,46,0
96840,note_on,0,0,1,,,,,,,,,0,,,74,114
96840,note_on,0,0,1,,,,,,,,,0,,,70,114
96840,note_on,108,0,1,,,,,,,,,0,,,65,114
96852,note_on,12,0,1,,,,,,,,,0,,,74,0
96852,note_on,0,0,1,,,,,,,,,0,,,65,0
96852,note_on,0,0,1,,,,,,,,,0,,,70,0
96879,note_on,39,0,3,,,,,,,,,2,,,48,114
96880,note_on,1,0,3,,,,,,,,,2,,,50,0
96919,note_on,39,0,3,,,,,,,,,2,,,48,0
96920,note_on,1,0,3,,,,,,,,,2,,,46,114
96960,note_on,0,0,3,,,,,,,,,2,,,53,114
96960,note_on,0,0,1,,,,,,,,,0,,,72,114
96960,note_on,0,0,1,,,,,,,,,0,,,69,114
96960,note_on,108,0,1,,,,,,,,,0,,,65,114
96960,note_on,40,0,3,,,,,,,,,2,,,46,0
97200,note_on,240,0,3,,,,,,,,,2,,,53,0
97200,note_on,0,0,3,,,,,,,,,2,,,44,114
97200,note_on,0,0,3,,,,,,,,,2,,,56,114
97200,note_on,0,0,1,,,,,,,,,0,,,68,114
97200,note_on,0,0,1,,,,,,,,,0,,,65,0
97200,note_on,0,0,1,,,,,,,,,0,,,69,0
97200,note_on,240,0,1,,,,,,,,,0,,,72,0
97206,note_on,0,0,3,,,,,,,,,2,,,44,0
97206,note_on,6,0,3,,,,,,,,,2,,,56,0
97239,note_on,39,0,1,,,,,,,,,0,,,72,114
97240,note_on,1,0,1,,,,,,,,,0,,,68,0
97260,note_on,0,0,3,,,,,,,,,2,,,56,114
97260,note_on,54,0,3,,,,,,,,,2,,,44,114
97266,note_on,0,0,3,,,,,,,,,2,,,44,0
97266,note_on,6,0,3,,,,,,,,,2,,,56,0
97279,note_on,39,0,1,,,,,,,,,0,,,72,0
97280,note_on,1,0,1,,,,,,,,,0,,,76,114
97320,note_on,40,0,1,,,,,,,,,0,,,76,0
97320,note_on,0,0,3,,,,,,,,,2,,,56,114
97320,note_on,54,0,3,,,,,,,,,2,,,44,114
97320,note_on,0,0,1,,,,,,,,,0,,,77,114
97326,note_on,0,0,3,,,,,,,,,2,,,44,0
97326,note_on,6,0,3,,,,,,,,,2,,,56,0
97359,note_on,39,0,1,,,,,,,,,0,,,79,114
97360,note_on,1,0,1,,,,,,,,,0,,,77,0
97380,note_on,0,0,3,,,,,,,,,2,,,56,114
97380,note_on,54,0,3,,,,,,,,,2,,,44,114
97386,note_on,0,0,3,,,,,,,,,2,,,44,0
97386,note_on,6,0,3,,,,,,,,,2,,,56,0
97399,note_on,39,0,1,,,,,,,,,0,,,79,0
97400,note_on,1,0,1,,,,,,,,,0,,,80,114
97440,note_on,0,0,3,,,,,,,,,2,,,57,114
97440,note_on,0,0,1,,,,,,,,,0,,,72,114
97440,note_on,0,0,3,,,,,,,,,2,,,60,114
97440,note_on,54,0,3,,,,,,,,,2,,,48,114
97440,note_on,0,0,1,,,,,,,,,0,,,81,114
97440,note_on,40,0,1,,,,,,,,,0,,,80,0
97440,note_on,0,0,1,,,,,,,,,0,,,84,114
97560,note_on,0,0,1,,,,,,,,,0,,,81,0
97560,note_on,0,0,1,,,,,,,,,0,,,77,114
97560,note_on,0,0,1,,,,,,,,,0,,,81,114
97560,note_on,120,0,1,,,,,,,,,0,,,84,0
97620,note_on,60,0,1,,,,,,,,,0,,,81,0
97620,note_on,0,0,1,,,,,,,,,0,,,77,0
97620,note_on,0,0,1,,,,,,,,,0,,,72,0
97680,note_on,0,0,3,,,,,,,,,2,,,65,114
97680,note_on,240,0,3,,,,,,,,,2,,,60,0
97680,note_on,0,0,3,,,,,,,,,2,,,57,0
97680,note_on,0,0,3,,,,,,,,,2,,,48,0
97680,note_on,0,0,3,,,,,,,,,2,,,57,114
97680,note_on,60,0,1,,,,,,,,,0,,,72,114
97680,note_on,0,0,1,,,,,,,,,0,,,81,114
97680,note_on,0,0,3,,,,,,,,,2,,,69,114
97680,note_on,0,0,1,,,,,,,,,0,,,77,114
97692,note_on,0,0,1,,,,,,,,,0,,,72,0
97692,note_on,0,0,1,,,,,,,,,0,,,77,0
97692,note_on,0,0,3,,,,,,,,,2,,,57,0
97692,note_on,0,0,3,,,,,,,,,2,,,65,0
97692,note_on,12,0,3,,,,,,,,,2,,,69,0
97692,note_on,12,0,1,,,,,,,,,0,,,81,0
97800,note_on,0,0,1,,,,,,,,,0,,,76,114
97800,note_on,0,0,1,,,,,,,,,0,,,79,114
97800,note_on,108,0,1,,,,,,,,,0,,,72,114
97800,note_on,0,0,3,,,,,,,,,2,,,64,114
97800,note_on,0,0,3,,,,,,,,,2,,,67,114
97800,note_on,108,0,3,,,,,,,,,2,,,60,114
97812,note_on,0,0,3,,,,,,,,,2,,,60,0
97812,note_on,0,0,3,,,,,,,,,2,,,64,0
97812,note_on,12,0,1,,,,,,,,,0,,,79,0
97812,note_on,12,0,3,,,,,,,,,2,,,67,0
97812,note_on,0,0,1,,,,,,,,,0,,,72,0
97812,note_on,0,0,1,,,,,,,,,0,,,76,0
97920,note_on,108,0,1,,,,,,,,,0,,,69,114
97920,note_on,0,0,1,,,,,,,,,0,,,72,114
97920,note_on,0,0,3,,,,,,,,,2,,,41,114
97920,control_change,108,0,3,,,,,,,,,2,64,127,,
97920,note_on,0,0,1,,,,,,,,,0,,,77,114
97959,note_on,39,0,3,,,,,,,,,2,,,43,114
97960,note_on,1,0,3,,,,,,,,,2,,,41,0
97999,note_on,39,0,3,,,,,,,,,2,,,43,0
98000,note_on,1,0,3,,,,,,,,,2,,,45,114
98040,note_on,0,0,3,,,,,,,,,2,,,46,114
98040,note_on,40,0,3,,,,,,,,,2,,,45,0
98079,note_on,39,0,3,,,,,,,,,2,,,48,114
98080,note_on,1,0,3,,,,,,,,,2,,,46,0
98119,note_on,39,0,3,,,,,,,,,2,,,48,0
98120,note_on,0,0,3,,,,,,,,,2,,,50,114
98120,control_change,1,0,3,,,,,,,,,2,64,0,,
98160,note_on,0,0,1,,,,,,,,,0,,,82,114
98160,note_on,0,0,3,,,,,,,,,2,,,52,114
98160,note_on,40,0,3,,,,,,,,,2,,,50,0
98160,note_on,240,0,1,,,,,,,,,0,,,77,0
98160,note_on,0,0,1,,,,,,,,,0,,,69,0
98160,note_on,0,0,1,,,,,,,,,0,,,72,0
98199,note_on,39,0,1,,,,,,,,,0,,,81,114
98200,note_on,1,0,1,,,,,,,,,0,,,82,0
98220,note_on,60,0,3,,,,,,,,,2,,,52,0
98239,note_on,39,0,1,,,,,,,,,0,,,81,0
98240,note_on,1,0,1,,,,,,,,,0,,,79,114
98280,note_on,60,0,3,,,,,,,,,2,,,52,114
98280,note_on,0,0,1,,,,,,,,,0,,,86,114
98280,note_on,40,0,1,,,,,,,,,0,,,79,0
98280,note_on,0,0,3,,,,,,,,,2,,,60,114
98286,note_on,6,0,3,,,,,,,,,2,,,60,0
98286,note_on,0,0,3,,,,,,,,,2,,,52,0
98319,note_on,39,0,1,,,,,,,,,0,,,84,114
98320,note_on,1,0,1,,,,,,,,,0,,,86,0
98340,note_on,0,0,3,,,,,,,,,2,,,60,114
98340,note_on,54,0,3,,,,,,,,,2,,,52,114
98346,note_on,0,0,3,,,,,,,,,2,,,52,0
98346,note_on,6,0,3,,,,,,,,,2,,,60,0
98359,note_on,39,0,1,,,,,,,,,0,,,84,0
98360,note_on,1,0,1,,,,,,,,,0,,,82,114
98400,note_on,40,0,1,,,,,,,,,0,,,82,0
98400,note_on,0,0,3,,,,,,,,,2,,,60,114
98400,note_on,54,0,3,,,,,,,,,2,,,53,114
98400,control_change,0,0,1,,,,,,,,,0,64,127,,
98400,note_on,0,0,1,,,,,,,,,0,,,81,114
98439,note_on,39,0,1,,,,,,,,,0,,,79,114
98440,note_on,1,0,1,,,,,,,,,0,,,81,0
98479,note_on,39,0,1,,,,,,,,,0,,,79,0
98480,note_on,1,0,1,,,,,,,,,0,,,77,114
98520,note_on,40,0,1,,,,,,,,,0,,,77,0
98520,note_on,0,0,3,,,,,,,,,2,,,57,114
98520,note_on,0,0,3,,,,,,,,,2,,,53,0
98520,note_on,120,0,3,,,,,,,,,2,,,60,0
98520,note_on,0,0,1,,,,,,,,,0,,,76,114
98559,note_on,39,0,1,,,,,,,,,0,,,74,114
98560,note_on,1,0,1,,,,,,,,,0,,,76,0
98580,note_on,60,0,3,,,,,,,,,2,,,57,0
98599,note_on,39,0,1,,,,,,,,,0,,,74,0
98600,control_change,1,0,1,,,,,,,,,0,64,0,,
98600,note_on,0,0,1,,,,,,,,,0,,,72,114
98640,note_on,40,0,1,,,,,,,,,0,,,72,0
98640,note_on,0,0,1,,,,,,,,,0,,,70,114
98640,note_on,60,0,3,,,,,,,,,2,,,43,114
98640,note_on,0,0,3,,,,,,,,,2,,,48,114
98652,note_on,12,0,3,,,,,,,,,2,,,48,0
98652,note_on,0,0,3,,,,,,,,,2,,,43,0
98679,note_on,39,0,1,,,,,,,,,0,,,69,114
98680,note_on,1,0,1,,,,,,,,,0,,,70,0
98719,note_on,39,0,1,,,,,,,,,0,,,69,0
98720,note_on,1,0,1,,,,,,,,,0,,,67,114
98760,note_on,40,0,1,,,,,,,,,0,,,67,0
98760,note_on,0,0,1,,,,,,,,,0,,,74,114
98760,note_on,108,0,3,,,,,,,,,2,,,40,114
98760,note_on,0,0,3,,,,,,,,,2,,,48,114
98772,note_on,0,0,3,,,,,,,,,2,,,40,0
98772,note_on,12,0,3,,,,,,,,,2,,,48,0
98799,note_on,39,0,1,,,,,,,,,0,,,72,114
98800,note_on,1,0,1,,,,,,,,,0,,,74,0
98839,note_on,39,0,1,,,,,,,,,0,,,72,0
98840,note_on,1,0,1,,,,,,,,,0,,,70,114
98880,note_on,0,0,1,,,,,,,,,0,,,65,114
98880,note_on,0,0,1,,,,,,,,,0,,,77,114
98880,note_on,0,0,1,,,,,,,,,0,,,72,114
98880,note_on,0,0,1,,,,,,,,,0,,,69,114
98880,note_on,0,0,3,,,,,,,,,2,,,41,114
98880,note_on,40,0,1,,,,,,,,,0,,,70,0
98880,control_change,108,0,3,,,,,,,,,2,64,127,,
98919,note_on,39,0,3,,,,,,,,,2,,,43,114
98920,note_on,1,0,3,,,,,,,,,2,,,41,0
98959,note_on,39,0,3,,,,,,,,,2,,,43,0
98960,note_on,1,0,3,,,,,,,,,2,,,45,114
99000,note_on,40,0,3,,,,,,,,,2,,,45,0
99000,note_on,0,0,3,,,,,,,,,2,,,46,114
99039,note_on,39,0,3,,,,,,,,,2,,,48,114
99040,note_on,1,0,3,,,,,,,,,2,,,46,0
99079,note_on,39,0,3,,,,,,,,,2,,,48,0
99080,note_on,1,0,3,,,,,,,,,2,,,50,114
99120,note_on,40,0,3,,,,,,,,,2,,,50,0
99120,control_change,0,0,3,,,,,,,,,2,64,0,,
99120,note_on,0,0,1,,,,,,,,,0,,,65,0
99120,note_on,0,0,1,,,,,,,,,0,,,69,0
99120,note_on,0,0,1,,,,,,,,,0,,,72,0
99120,note_on,0,0,1,,,,,,,,,0,,,82,114
99120,note_on,0,0,3,,,,,,,,,2,,,52,114
99120,note_on,240,0,1,,,,,,,,,0,,,77,0
99159,note_on,39,0,1,,,,,,,,,0,,,81,114
99160,note_on,1,0,1,,,,,,,,,0,,,82,0
99180,note_on,60,0,3,,,,,,,,,2,,,52,0
99199,note_on,39,0,1,,,,,,,,,0,,,81,0
99200,note_on,1,0,1,,,,,,,,,0,,,79,114
99240,note_on,0,0,3,,,,,,,,,2,,,60,114
99240,note_on,0,0,1,,,,,,,,,0,,,86,114
99240,note_on,40,0,1,,,,,,,,,0,,,79,0
99240,note_on,60,0,3,,,,,,,,,2,,,52,114
99246,note_on,0,0,3,,,,,,,,,2,,,52,0
99246,note_on,6,0,3,,,,,,,,,2,,,60,0
99279,note_on,39,0,1,,,,,,,,,0,,,84,114
99280,note_on,1,0,1,,,,,,,,,0,,,86,0
99300,note_on,0,0,3,,,,,,,,,2,,,60,114
99300,note_on,54,0,3,,,,,,,,,2,,,52,114
99306,note_on,0,0,3,,,,,,,,,2,,,52,0
99306,note_on,6,0,3,,,,,,,,,2,,,60,0
99319,note_on,39,0,1,,,,,,,,,0,,,84,0
99320,note_on,1,0,1,,,,,,,,,0,,,82,114
99360,note_on,0,0,1,,,,,,,,,0,,,81,114
99360,note_on,40,0,1,,,,,,,,,0,,,82,0
99360,control_change,0,0,1,,,,,,,,,0,64,127,,
99360,note_on,0,0,3,,,,,,,,,2,,,60,114
99360,note_on,54,0,3,,,,,,,,,2,,,53,114
99399,note_on,39,0,1,,,,,,,,,0,,,79,114
99400,note_on,1,0,1,,,,,,,,,0,,,81,0
99439,note_on,39,0,1,,,,,,,,,0,,,79,0
99440,note_on,1,0,1,,,,,,,,,0,,,77,114
99480,note_on,120,0,3,,,,,,,,,2,,,60,0
99480,note_on,0,0,3,,,,,,,,,2,,,53,0
99480,note_on,0,0,3,,,,,,,,,2,,,57,114
99480,note_on,40,0,1,,,,,,,,,0,,,77,0
99480,note_on,0,0,1,,,,,,,,,0,,,76,114
99519,note_on,39,0,1,,,,,,,,,0,,,74,114
99520,note_on,1,0,1,,,,,,,,,0,,,76,0
99540,note_on,60,0,3,,,,,,,,,2,,,57,0
99559,note_on,39,0,1,,,,,,,,,0,,,74,0
99560,note_on,1,0,1,,,,,,,,,0,,,72,114
99600,note_on,40,0,1,,,,,,,,,0,,,72,0
99600,note_on,0,0,1,,,,,,,,,0,,,70,114
99600,note_on,0,0,3,,,,,,,,,2,,,48,114
99600,note_on,60,0,3,,,,,,,,,2,,,43,114
99600,control_change,0,0,1,,,,,,,,,0,64,0,,
99612,note_on,12,0,3,,,,,,,,,2,,,48,0
99612,note_on,0,0,3,,,,,,,,,2,,,43,0
99639,note_on,39,0,1,,,,,,,,,0,,,69,114
99640,note_on,1,0,1,,,,,,,,,0,,,70,0
99679,note_on,39,0,1,,,,,,,,,0,,,69,0
99680,note_on,1,0,1,,,,,,,,,0,,,67,114
99720,note_on,0,0,3,,,,,,,,,2,,,48,114
99720,note_on,108,0,3,,,,,,,,,2,,,40,114
99720,note_on,40,0,1,,,,,,,,,0,,,67,0
99720,note_on,0,0,1,,,,,,,,,0,,,74,114
99732,note_on,12,0,3,,,,,,,,,2,,,48,0
99732,note_on,0,0,3,,,,,,,,,2,,,40,0
99759,note_on,39,0,1,,,,,,,,,0,,,72,114
99760,note_on,1,0,1,,,,,,,,,0,,,74,0
99799,note_on,39,0,1,,,,,,,,,0,,,72,0
99800,note_on,1,0,1,,,,,,,,,0,,,70,114
99840,note_on,40,0,1,,,,,,,,,0,,,70,0
99840,control_change,0,0,1,,,,,,,,,0,64,127,,
99840,note_on,0,0,1,,,,,,,,,0,,,69,114
99840,note_on,108,0,3,,,,,,,,,2,,,41,114
99840,note_on,0,0,3,,,,,,,,,2,,,48,114
99879,note_on,39,0,1,,,,,,,,,0,,,67,114
99880,note_on,1,0,1,,,,,,,,,0,,,69,0
99919,note_on,39,0,1,,,,,,,,,0,,,67,0
99920,note_on,1,0,1,,,,,,,,,0,,,65,114
99960,note_on,120,0,3,,,,,,,,,2,,,48,0
99960,note_on,0,0,3,,,,,,,,,2,,,41,0
99960,control_change,0,0,1,,,,,,,,,0,64,0,,
99960,note_on,0,0,1,,,,,,,,,0,,,64,114
99960,note_on,40,0,1,,,,,,,,,0,,,65,0
99960,note_on,0,0,3,,,,,,,,,2,,,45,114
99999,note_on,39,0,1,,,,,,,,,0,,,62,114
100000,note_on,1,0,1,,,,,,,,,0,,,64,0
100020,note_on,60,0,3,,,,,,,,,2,,,45,0
100039,note_on,39,0,1,,,,,,,,,0,,,62,0
100040,note_on,1,0,1,,,,,,,,,0,,,60,114
100080,note_on,0,0,1,,,,,,,,,0,,,58,114
100080,note_on,40,0,1,,,,,,,,,0,,,60,0
100080,note_on,60,0,3,,,,,,,,,2,,,46,114
100119,note_on,39,0,1,,,,,,,,,0,,,57,114
100119,note_on,39,0,3,,,,,,,,,2,,,45,114
100120,note_on,1,0,3,,,,,,,,,2,,,46,0
100120,note_on,1,0,1,,,,,,,,,0,,,58,0
100159,note_on,39,0,3,,,,,,,,,2,,,45,0
100159,note_on,39,0,1,,,,,,,,,0,,,57,0
100160,note_on,1,0,3,,,,,,,,,2,,,43,114
100160,note_on,1,0,1,,,,,,,,,0,,,55,114
100200,note_on,40,0,3,,,,,,,,,2,,,43,0
100200,note_on,0,0,3,,,,,,,,,2,,,49,114
100200,note_on,0,0,1,,,,,,,,,0,,,61,114
100200,note_on,40,0,1,,,,,,,,,0,,,55,0
100239,note_on,39,0,1,,,,,,,,,0,,,60,114
100239,note_on,39,0,3,,,,,,,,,2,,,48,114
100240,note_on,1,0,1,,,,,,,,,0,,,61,0
100240,note_on,1,0,3,,,,,,,,,2,,,49,0
100279,note_on,39,0,1,,,,,,,,,0,,,60,0
100279,note_on,39,0,3,,,,,,,,,2,,,48,0
100280,note_on,1,0,3,,,,,,,,,2,,,46,114
100280,note_on,1,0,1,,,,,,,,,0,,,58,114
100320,note_on,40,0,3,,,,,,,,,2,,,46,0
100320,control_change,0,0,3,,,,,,,,,2,64,127,,
100320,note_on,0,0,1,,,,,,,,,0,,,61,114
100320,control_change,0,0,1,,,,,,,,,0,64,127,,
100320,note_on,0,0,3,,,,,,,,,2,,,49,114
100320,note_on,40,0,1,,,,,,,,,0,,,58,0
100359,note_on,39,0,1,,,,,,,,,0,,,60,114
100359,note_on,39,0,3,,,,,,,,,2,,,48,114
100360,note_on,1,0,1,,,,,,,,,0,,,61,0
100360,note_on,1,0,3,,,,,,,,,2,,,49,0
100399,note_on,39,0,3,,,,,,,,,2,,,48,0
100399,note_on,39,0,1,,,,,,,,,0,,,60,0
100400,note_on,1,0,3,,,,,,,,,2,,,46,114
100400,note_on,1,0,1,,,,,,,,,0,,,58,114
100440,note_on,0,0,3,,,,,,,,,2,,,49,114
100440,note_on,0,0,1,,,,,,,,,0,,,61,114
100440,note_on,40,0,3,,,,,,,,,2,,,46,0
100440,note_on,40,0,1,,,,,,,,,0,,,58,0
100479,note_on,39,0,3,,,,,,,,,2,,,48,114
100479,note_on,39,0,1,,,,,,,,,0,,,60,114
100480,note_on,1,0,1,,,,,,,,,0,,,61,0
100480,note_on,1,0,3,,,,,,,,,2,,,49,0
100519,note_on,39,0,3,,,,,,,,,2,,,48,0
100519,note_on,39,0,1,,,,,,,,,0,,,60,0
100520,note_on,1,0,3,,,,,,,,,2,,,46,114
100520,note_on,1,0,1,,,,,,,,,0,,,58,114
100560,note_on,40,0,3,,,,,,,,,2,,,46,0
100560,note_on,0,0,1,,,,,,,,,0,,,61,114
100560,note_on,40,0,1,,,,,,,,,0,,,58,0
100560,note_on,0,0,3,,,,,,,,,2,,,49,114
100599,note_on,39,0,1,,,,,,,,,0,,,60,114
100599,note_on,39,0,3,,,,,,,,,2,,,48,114
100600,note_on,1,0,3,,,,,,,,,2,,,49,0
100600,note_on,1,0,1,,,,,,,,,0,,,61,0
100639,note_on,39,0,1,,,,,,,,,0,,,60,0
100639,note_on,39,0,3,,,,,,,,,2,,,48,0
100640,note_on,1,0,1,,,,,,,,,0,,,58,114
100640,note_on,1,0,3,,,,,,,,,2,,,46,114
100680,note_on,0,0,1,,,,,,,,,0,,,61,114
100680,control_change,0,0,1,,,,,,,,,0,64,0,,
100680,note_on,40,0,1,,,,,,,,,0,,,58,0
100680,note_on,40,0,3,,,,,,,,,2,,,46,0
100680,control_change,0,0,3,,,,,,,,,2,64,0,,
100680,note_on,0,0,3,,,,,,,,,2,,,49,114
100719,note_on,39,0,1,,,,,,,,,0,,,60,114
100719,note_on,39,0,3,,,,,,,,,2,,,48,114
100720,note_on,1,0,3,,,,,,,,,2,,,49,0
100720,note_on,1,0,1,,,,,,,,,0,,,61,0
100759,note_on,39,0,1,,,,,,,,,0,,,60,0
100759,note_on,39,0,3,,,,,,,,,2,,,48,0
100760,note_on,1,0,1,,,,,,,,,0,,,59,114
100760,note_on,1,0,3,,,,,,,,,2,,,47,114
100800,note_on,0,0,1,,,,,,,,,0,,,60,114
100800,control_change,0,0,1,,,,,,,,,0,64,127,,
100800,note_on,40,0,1,,,,,,,,,0,,,59,0
100800,note_on,0,0,3,,,,,,,,,2,,,56,114
100800,note_on,0,0,3,,,,,,,,,2,,,51,114
100800,note_on,0,0,3,,,,,,,,,2,,,48,114
100800,note_on,40,0,3,,,,,,,,,2,,,47,0
100839,note_on,39,0,1,,,,,,,,,0,,,61,114
100840,note_on,1,0,1,,,,,,,,,0,,,60,0
100879,note_on,39,0,1,,,,,,,,,0,,,61,0
100880,note_on,1,0,1,,,,,,,,,0,,,63,114
100920,note_on,40,0,1,,,,,,,,,0,,,63,0
100920,note_on,0,0,1,,,,,,,,,0,,,65,114
100959,note_on,39,0,1,,,,,,,,,0,,,67,114
100960,note_on,1,0,1,,,,,,,,,0,,,65,0
100999,note_on,39,0,1,,,,,,,,,0,,,67,0
101000,note_on,1,0,1,,,,,,,,,0,,,68,114
101040,note_on,0,0,1,,,,,,,,,0,,,70,114
101040,note_on,40,0,1,,,,,,,,,0,,,68,0
101040,note_on,240,0,3,,,,,,,,,2,,,56,0
101040,note_on,0,0,3,,,,,,,,,2,,,51,0
101040,note_on,0,0,3,,,,,,,,,2,,,58,114
101040,note_on,0,0,3,,,,,,,,,2,,,55,114
101040,note_on,0,0,3,,,,,,,,,2,,,51,114
101040,note_on,0,0,3,,,,,,,,,2,,,48,0
101040,note_on,0,0,3,,,,,,,,,2,,,61,114
101079,note_on,39,0,1,,,,,,,,,0,,,72,114
101080,note_on,1,0,1,,,,,,,,,0,,,70,0
101119,note_on,39,0,1,,,,,,,,,0,,,72,0
101120,note_on,1,0,1,,,,,,,,,0,,,73,114
101160,note_on,40,0,1,,,,,,,,,0,,,73,0
101160,note_on,0,0,1,,,,,,,,,0,,,75,114
101199,note_on,39,0,1,,,,,,,,,0,,,77,114
101200,note_on,1,0,1,,,,,,,,,0,,,75,0
101239,note_on,39,0,1,,,,,,,,,0,,,77,0
101240,note_on,0,0,1,,,,,,,,,0,,,79,114
101240,control_change,1,0,1,,,,,,,,,0,64,0,,
101280,note_on,240,0,3,,,,,,,,,2,,,61,0
101280,note_on,0,0,1,,,,,,,,,0,,,68,36
101280,note_on,0,0,3,,,,,,,,,2,,,55,0
101280,note_on,0,0,3,,,,,,,,,2,,,58,0
101280,control_change,0,0,3,,,,,,,,,2,64,127,,
101280,note_on,0,0,3,,,,,,,,,2,,,44,36
101280,note_on,40,0,1,,,,,,,,,0,,,79,0
101280,note_on,0,0,1,,,,,,,,,0,,,80,36
101280,note_on,0,0,3,,,,,,,,,2,,,51,0
101280,note_on,0,0,1,,,,,,,,,0,,,75,36
101280,note_on,0,0,1,,,,,,,,,0,,,72,36
101319,note_on,39,0,3,,,,,,,,,2,,,46,36
101320,note_on,1,0,3,,,,,,,,,2,,,44,0
101359,note_on,39,0,3,,,,,,,,,2,,,46,0
101360,note_on,1,0,3,,,,,,,,,2,,,48,36
101400,note_on,0,0,3,,,,,,,,,2,,,49,36
101400,note_on,40,0,3,,,,,,,,,2,,,48,0
101439,note_on,39,0,3,,,,,,,,,2,,,51,36
101440,note_on,1,0,3,,,,,,,,,2,,,49,0
101479,note_on,39,0,3,,,,,,,,,2,,,51,0
101480,note_on,1,0,3,,,,,,,,,2,,,53,36
101520,note_on,40,0,3,,,,,,,,,2,,,53,0
101520,note_on,0,0,3,,,,,,,,,2,,,55,36
101520,control_change,0,0,3,,,,,,,,,2,64,0,,
101520,note_on,240,0,1,,,,,,,,,0,,,80,0
101520,note_on,0,0,1,,,,,,,,,0,,,68,0
101520,note_on,0,0,1,,,,,,,,,0,,,72,0
101520,note_on,0,0,1,,,,,,,,,0,,,75,0
101520,note_on,0,0,1,,,,,,,,,0,,,85,36
101559,note_on,39,0,1,,,,,,,,,0,,,84,36
101560,note_on,1,0,1,,,,,,,,,0,,,85,0
101580,note_on,60,0,3,,,,,,,,,2,,,55,0
101599,note_on,39,0,1,,,,,,,,,0,,,84,0
101600,note_on,1,0,1,,,,,,,,,0,,,82,36
101640,note_on,40,0,1,,,,,,,,,0,,,82,0
101640,note_on,60,0,3,,,,,,,,,2,,,55,36
101640,note_on,0,0,1,,,,,,,,,0,,,89,36
101640,note_on,0,0,3,,,,,,,,,2,,,63,36
101646,note_on,0,0,3,,,,,,,,,2,,,55,0
101646,note_on,6,0,3,,,,,,,,,2,,,63,0
101679,note_on,39,0,1,,,,,,,,,0,,,87,36
101680,note_on,1,0,1,,,,,,,,,0,,,89,0
101700,note_on,0,0,3,,,,,,,,,2,,,63,36
101700,note_on,54,0,3,,,,,,,,,2,,,55,36
101706,note_on,6,0,3,,,,,,,,,2,,,63,0
101706,note_on,0,0,3,,,,,,,,,2,,,55,0
101719,note_on,39,0,1,,,,,,,,,0,,,87,0
101720,note_on,1,0,1,,,,,,,,,0,,,85,36
101760,control_change,0,0,1,,,,,,,,,0,64,127,,
101760,note_on,40,0,1,,,,,,,,,0,,,85,0
101760,note_on,0,0,3,,,,,,,,,2,,,63,36
101760,note_on,54,0,3,,,,,,,,,2,,,56,36
101760,note_on,0,0,1,,,,,,,,,0,,,84,36
101799,note_on,39,0,1,,,,,,,,,0,,,82,36
101800,note_on,1,0,1,,,,,,,,,0,,,84,0
101839,note_on,39,0,1,,,,,,,,,0,,,82,0
101840,note_on,1,0,1,,,,,,,,,0,,,80,36
101880,note_on,0,0,1,,,,,,,,,0,,,79,36
101880,note_on,40,0,1,,,,,,,,,0,,,80,0
101880,note_on,120,0,3,,,,,,,,,2,,,63,0
101880,note_on,0,0,3,,,,,,,,,2,,,60,36
101880,note_on,0,0,3,,,,,,,,,2,,,56,0
101919,note_on,39,0,1,,,,,,,,,0,,,77,36
101920,note_on,1,0,1,,,,,,,,,0,,,79,0
101940,note_on,60,0,3,,,,,,,,,2,,,60,0
101959,note_on,39,0,1,,,,,,,,,0,,,77,0
101960,note_on,1,0,1,,,,,,,,,0,,,75,36
102000,control_change,0,0,1,,,,,,,,,0,64,0,,
102000,note_on,40,0,1,,,,,,,,,0,,,75,0
102000,note_on,0,0,3,,,,,,,,,2,,,51,36
102000,note_on,60,0,3,,,,,,,,,2,,,46,36
102000,note_on,0,0,1,,,,,,,,,0,,,73,36
102012,note_on,0,0,3,,,,,,,,,2,,,46,0
102012,note_on,12,0,3,,,,,,,,,2,,,51,0
102039,note_on,39,0,1,,,,,,,,,0,,,72,36
102040,note_on,1,0,1,,,,,,,,,0,,,73,0
102079,note_on,39,0,1,,,,,,,,,0,,,72,0
102080,note_on,1,0,1,,,,,,,,,0,,,70,36
102120,note_on,108,0,3,,,,,,,,,2,,,43,36
102120,note_on,40,0,1,,,,,,,,,0,,,70,0
102120,note_on,0,0,1,,,,,,,,,0,,,77,36
102120,note_on,0,0,3,,,,,,,,,2,,,51,36
102132,note_on,12,0,3,,,,,,,,,2,,,51,0
102132,note_on,0,0,3,,,,,,,,,2,,,43,0
102159,note_on,39,0,1,,,,,,,,,0,,,75,36
102160,note_on,1,0,1,,,,,,,,,0,,,77,0
102199,note_on,39,0,1,,,,,,,,,0,,,75,0
102200,note_on,1,0,1,,,,,,,,,0,,,73,36
102240,note_on,0,0,1,,,,,,,,,0,,,80,62
102240,note_on,0,0,1,,,,,,,,,0,,,72,54
102240,note_on,0,0,1,,,,,,,,,0,,,68,50
102240,note_on,40,0,1,,,,,,,,,0,,,73,0
102240,note_on,0,0,1,,,,,,,,,0,,,75,58
102240,control_change,108,0,3,,,,,,,,,2,64,127,,
102240,note_on,0,0,3,,,,,,,,,2,,,44,36
102279,note_on,39,0,3,,,,,,,,,2,,,46,36
102280,note_on,1,0,3,,,,,,,,,2,,,44,0
102319,note_on,39,0,3,,,,,,,,,2,,,46,0
102320,note_on,1,0,3,,,,,,,,,2,,,48,36
102360,note_on,40,0,3,,,,,,,,,2,,,48,0
102360,note_on,0,0,3,,,,,,,,,2,,,49,36
102399,note_on,39,0,3,,,,,,,,,2,,,51,36
102400,note_on,1,0,3,,,,,,,,,2,,,49,0
102439,note_on,39,0,3,,,,,,,,,2,,,51,0
102440,note_on,1,0,3,,,,,,,,,2,,,53,36
102480,note_on,0,0,1,,,,,,,,,0,,,68,0
102480,control_change,0,0,3,,,,,,,,,2,64,0,,
102480,note_on,40,0,3,,,,,,,,,2,,,53,0
102480,note_on,0,0,1,,,,,,,,,0,,,85,36
102480,note_on,0,0,1,,,,,,,,,0,,,72,0
102480,note_on,0,0,1,,,,,,,,,0,,,75,0
102480,note_on,240,0,1,,,,,,,,,0,,,80,0
102480,note_on,0,0,3,,,,,,,,,2,,,55,36
102519,note_on,39,0,1,,,,,,,,,0,,,84,36
102520,note_on,1,0,1,,,,,,,,,0,,,85,0
102540,note_on,60,0,3,,,,,,,,,2,,,55,0
102559,note_on,39,0,1,,,,,,,,,0,,,84,0
102560,note_on,1,0,1,,,,,,,,,0,,,82,36
102600,note_on,40,0,1,,,,,,,,,0,,,82,0
102600,note_on,0,0,1,,,,,,,,,0,,,89,36
102600,note_on,0,0,3,,,,,,,,,2,,,63,36
102600,note_on,60,0,3,,,,,,,,,2,,,55,36
102606,note_on,6,0,3,,,,,,,,,2,,,63,0
102606,note_on,0,0,3,,,,,,,,,2,,,55,0
102639,note_on,39,0,1,,,,,,,,,0,,,87,36
102640,note_on,1,0,1,,,,,,,,,0,,,89,0
102660,note_on,0,0,3,,,,,,,,,2,,,63,36
102660,note_on,54,0,3,,,,,,,,,2,,,55,36
102666,note_on,0,0,3,,,,,,,,,2,,,55,0
102666,note_on,6,0,3,,,,,,,,,2,,,63,0
102679,note_on,39,0,1,,,,,,,,,0,,,87,0
102680,note_on,1,0,1,,,,,,,,,0,,,85,36
102720,note_on,40,0,1,,,,,,,,,0,,,85,0
102720,control_change,0,0,1,,,,,,,,,0,64,127,,
102720,note_on,0,0,1,,,,,,,,,0,,,84,36
102720,note_on,0,0,3,,,,,,,,,2,,,63,36
102720,note_on,54,0,3,,,,,,,,,2,,,56,36
102759,note_on,39,0,1,,,,,,,,,0,,,82,36
102760,note_on,1,0,1,,,,,,,,,0,,,84,0
102799,note_on,39,0,1,,,,,,,,,0,,,82,0
102800,note_on,1,0,1,,,,,,,,,0,,,80,36
102840,note_on,0,0,3,,,,,,,,,2,,,56,0
102840,note_on,0,0,3,,,,,,,,,2,,,60,36
102840,note_on,120,0,3,,,,,,,,,2,,,63,0
102840,note_on,0,0,1,,,,,,,,,0,,,79,36
102840,note_on,40,0,1,,,,,,,,,0,,,80,0
102879,note_on,39,0,1,,,,,,,,,0,,,77,36
102880,note_on,1,0,1,,,,,,,,,0,,,79,0
102900,note_on,60,0,3,,,,,,,,,2,,,60,0
102919,note_on,39,0,1,,,,,,,,,0,,,77,0
102920,note_on,1,0,1,,,,,,,,,0,,,75,36
102960,note_on,0,0,3,,,,,,,,,2,,,51,36
102960,note_on,60,0,3,,,,,,,,,2,,,46,36
102960,note_on,40,0,1,,,,,,,,,0,,,75,0
102960,control_change,0,0,1,,,,,,,,,0,64,0,,
102960,note_on,0,0,1,,,,,,,,,0,,,73,36
102972,note_on,12,0,3,,,,,,,,,2,,,51,0
102972,note_on,0,0,3,,,,,,,,,2,,,46,0
102999,note_on,39,0,1,,,,,,,,,0,,,72,36
103000,note_on,1,0,1,,,,,,,,,0,,,73,0
103039,note_on,39,0,1,,,,,,,,,0,,,72,0
103040,note_on,1,0,1,,,,,,,,,0,,,70,36
103080,note_on,40,0,1,,,,,,,,,0,,,70,0
103080,note_on,0,0,1,,,,,,,,,0,,,77,36
103080,note_on,108,0,3,,,,,,,,,2,,,43,36
103080,note_on,0,0,3,,,,,,,,,2,,,51,36
103092,note_on,12,0,3,,,,,,,,,2,,,51,0
103092,note_on,0,0,3,,,,,,,,,2,,,43,0
103119,note_on,39,0,1,,,,,,,,,0,,,75,36
103120,note_on,1,0,1,,,,,,,,,0,,,77,0
103159,note_on,39,0,1,,,,,,,,,0,,,75,0
103160,note_on,1,0,1,,,,,,,,,0,,,73,36
103200,note_on,108,0,3,,,,,,,,,2,,,51,36
103200,note_on,0,0,1,,,,,,,,,0,,,72,36
103200,control_change,0,0,1,,,,,,,,,0,64,127,,
103200,note_on,40,0,1,,,,,,,,,0,,,73,0
103200,note_on,16800,0,4,,,,,,,,,3,,,44,36
103239,note_on,39,0,1,,,,,,,,,0,,,70,36
103240,note_on,1,0,1,,,,,,,,,0,,,72,0
103279,note_on,39,0,1,,,,,,,,,0,,,70,0
103280,note_on,1,0,1,,,,,,,,,0,,,68,36
103320,note_on,0,0,1,,,,,,,,,0,,,67,36
103320,note_on,40,0,1,,,,,,,,,0,,,68,0
103320,note_on,120,0,4,,,,,,,,,3,,,44,0
103320,note_on,0,0,4,,,,,,,,,3,,,48,36
103359,note_on,39,0,1,,,,,,,,,0,,,65,36
103360,note_on,1,0,1,,,,,,,,,0,,,67,0
103380,note_on,60,0,4,,,,,,,,,3,,,48,0
103399,note_on,39,0,1,,,,,,,,,0,,,65,0
103400,note_on,1,0,1,,,,,,,,,0,,,63,36
103440,note_on,0,0,1,,,,,,,,,0,,,61,36
103440,control_change,0,0,1,,,,,,,,,0,64,0,,
103440,note_on,240,0,3,,,,,,,,,2,,,51,0
103440,note_on,0,0,3,,,,,,,,,2,,,49,36
103440,note_on,40,0,1,,,,,,,,,0,,,63,0
103479,note_on,39,0,1,,,,,,,,,0,,,60,36
103479,note_on,39,0,3,,,,,,,,,2,,,48,36
103480,note_on,1,0,3,,,,,,,,,2,,,49,0
103480,note_on,1,0,1,,,,,,,,,0,,,61,0
103519,note_on,39,0,3,,,,,,,,,2,,,48,0
103519,note_on,39,0,1,,,,,,,,,0,,,60,0
103520,note_on,1,0,1,,,,,,,,,0,,,58,36
103520,note_on,1,0,3,,,,,,,,,2,,,46,36
103560,note_on,0,0,1,,,,,,,,,0,,,64,36
103560,note_on,40,0,1,,,,,,,,,0,,,58,0
103560,note_on,0,0,3,,,,,,,,,2,,,52,36
103560,note_on,40,0,3,,,,,,,,,2,,,46,0
103599,note_on,39,0,1,,,,,,,,,0,,,63,36
103599,note_on,39,0,3,,,,,,,,,2,,,51,36
103600,note_on,1,0,1,,,,,,,,,0,,,64,0
103600,note_on,1,0,3,,,,,,,,,2,,,52,0
103639,note_on,39,0,1,,,,,,,,,0,,,63,0
103639,note_on,39,0,3,,,,,,,,,2,,,51,0
103640,note_on,1,0,1,,,,,,,,,0,,,61,36
103640,note_on,1,0,3,,,,,,,,,2,,,49,36
103680,note_on,0,0,1,,,,,,,,,0,,,64,36
103680,control_change,0,0,3,,,,,,,,,2,64,127,,
103680,note_on,0,0,3,,,,,,,,,2,,,52,36
103680,control_change,0,0,1,,,,,,,,,0,64,127,,
103680,note_on,40,0,1,,,,,,,,,0,,,61,0
103680,note_on,40,0,3,,,,,,,,,2,,,49,0
103719,note_on,39,0,3,,,,,,,,,2,,,51,36
103719,note_on,39,0,1,,,,,,,,,0,,,63,36
103720,note_on,1,0,1,,,,,,,,,0,,,64,0
103720,note_on,1,0,3,,,,,,,,,2,,,52,0
103759,note_on,39,0,3,,,,,,,,,2,,,51,0
103759,note_on,39,0,1,,,,,,,,,0,,,63,0
103760,note_on,1,0,3,,,,,,,,,2,,,49,36
103760,note_on,1,0,1,,,,,,,,,0,,,61,36
103800,note_on,0,0,3,,,,,,,,,2,,,52,36
103800,note_on,40,0,3,,,,,,,,,2,,,49,0
103800,note_on,0,0,1,,,,,,,,,0,,,64,36
103800,note_on,40,0,1,,,,,,,,,0,,,61,0
103839,note_on,39,0,1,,,,,,,,,0,,,63,36
103839,note_on,39,0,3,,,,,,,,,2,,,51,36
103840,note_on,1,0,3,,,,,,,,,2,,,52,0
103840,note_on,1,0,1,,,,,,,,,0,,,64,0
103879,note_on,39,0,1,,,,,,,,,0,,,63,0
103879,note_on,39,0,3,,,,,,,,,2,,,51,0
103880,note_on,1,0,3,,,,,,,,,2,,,49,36
103880,note_on,1,0,1,,,,,,,,,0,,,61,36
103920,note_on,40,0,1,,,,,,,,,0,,,61,0
103920,note_on,0,0,3,,,,,,,,,2,,,52,36
103920,note_on,0,0,1,,,,,,,,,0,,,64,36
103920,note_on,40,0,3,,,,,,,,,2,,,49,0
103959,note_on,39,0,1,,,,,,,,,0,,,63,36
103959,note_on,39,0,3,,,,,,,,,2,,,51,36
103960,note_on,1,0,3,,,,,,,,,2,,,52,0
103960,note_on,1,0,1,,,,,,,,,0,,,64,0
103999,note_on,39,0,1,,,,,,,,,0,,,63,0
103999,note_on,39,0,3,,,,,,,,,2,,,51,0
104000,note_on,1,0,3,,,,,,,,,2,,,49,36
104000,note_on,1,0,1,,,,,,,,,0,,,61,36
104040,control_change,0,0,1,,,,,,,,,0,64,0,,
104040,note_on,0,0,3,,,,,,,,,2,,,52,36
104040,control_change,0,0,3,,,,,,,,,2,64,0,,
104040,note_on,40,0,1,,,,,,,,,0,,,61,0
104040,note_on,40,0,3,,,,,,,,,2,,,49,0
104040,note_on,0,0,1,,,,,,,,,0,,,64,36
104079,note_on,39,0,1,,,,,,,,,0,,,63,36
104079,note_on,39,0,3,,,,,,,,,2,,,51,36
104080,note_on,1,0,1,,,,,,,,,0,,,64,0
104080,note_on,1,0,3,,,,,,,,,2,,,52,0
104119,note_on,39,0,1,,,,,,,,,0,,,63,0
104119,note_on,39,0,3,,,,,,,,,2,,,51,0
104120,note_on,1,0,1,,,,,,,,,0,,,62,36
104120,note_on,1,0,3,,,,,,,,,2,,,50,36
104160,note_on,0,0,3,,,,,,,,,2,,,54,36
104160,note_on,0,0,3,,,,,,,,,2,,,51,36
104160,note_on,40,0,3,,,,,,,,,2,,,50,0
104160,note_on,40,0,1,,,,,,,,,0,,,62,0
104160,note_on,0,0,3,,,,,,,,,2,,,59,36
104160,note_on,0,0,1,,,,,,,,,0,,,63,49
104160,control_change,0,0,1,,,,,,,,,0,64,127,,
104199,note_on,39,0,1,,,,,,,,,0,,,64,49
104200,note_on,1,0,1,,,,,,,,,0,,,63,0
104239,note_on,39,0,1,,,,,,,,,0,,,64,0
104240,note_on,1,0,1,,,,,,,,,0,,,66,49
104280,note_on,40,0,1,,,,,,,,,0,,,66,0
104280,note_on,0,0,1,,,,,,,,,0,,,68,62
104319,note_on,39,0,1,,,,,,,,,0,,,70,62
104320,note_on,1,0,1,,,,,,,,,0,,,68,0
104359,note_on,39,0,1,,,,,,,,,0,,,70,0
104360,note_on,1,0,1,,,,,,,,,0,,,71,62
104400,note_on,240,0,3,,,,,,,,,2,,,59,0
104400,note_on,0,0,3,,,,,,,,,2,,,51,0
104400,control_change,0,0,1,,,,,,,,,0,64,0,,
104400,note_on,0,0,1,,,,,,,,,0,,,73,75
104400,note_on,0,0,3,,,,,,,,,2,,,64,62
104400,note_on,0,0,3,,,,,,,,,2,,,61,62
104400,note_on,0,0,3,,,,,,,,,2,,,54,62
104400,note_on,40,0,1,,,,,,,,,0,,,71,0
104400,note_on,0,0,3,,,,,,,,,2,,,54,0
104439,note_on,39,0,1,,,,,,,,,0,,,75,75
104440,note_on,1,0,1,,,,,,,,,0,,,73,0
104479,note_on,39,0,1,,,,,,,,,0,,,75,0
104480,note_on,1,0,1,,,,,,,,,0,,,76,75
104520,note_on,40,0,1,,,,,,,,,0,,,76,0
104520,note_on,0,0,1,,,,,,,,,0,,,78,88
104559,note_on,39,0,1,,,,,,,,,0,,,80,88
104560,note_on,1,0,1,,,,,,,,,0,,,78,0
104599,note_on,39,0,1,,,,,,,,,0,,,80,0
104600,note_on,1,0,1,,,,,,,,,0,,,82,88
104640,note_on,0,0,1,,,,,,,,,0,,,78,101
104640,note_on,0,0,1,,,,,,,,,0,,,83,101
104640,control_change,0,0,3,,,,,,,,,2,64,127,,
104640,note_on,0,0,3,,,,,,,,,2,,,54,0
104640,note_on,0,0,3,,,,,,,,,2,,,61,0
104640,note_on,240,0,3,,,,,,,,,2,,,64,0
104640,note_on,0,0,3,,,,,,,,,2,,,35,101
104640,note_on,40,0,1,,,,,,,,,0,,,82,0
104640,note_on,0,0,1,,,,,,,,,0,,,71,101
104640,note_on,0,0,1,,,,,,,,,0,,,74,101
104679,note_on,39,0,3,,,,,,,,,2,,,34,101
104680,note_on,1,0,3,,,,,,,,,2,,,35,0
104719,note_on,39,0,3,,,,,,,,,2,,,34,0
104720,note_on,1,0,3,,,,,,,,,2,,,35,101
104760,note_on,40,0,3,,,,,,,,,2,,,35,0
104760,note_on,0,0,3,,,,,,,,,2,,,42,101
104799,note_on,39,0,3,,,,,,,,,2,,,40,101
104800,note_on,1,0,3,,,,,,,,,2,,,42,0
104839,note_on,39,0,3,,,,,,,,,2,,,40,0
104840,note_on,1,0,3,,,,,,,,,2,,,38,101
104880,note_on,0,0,1,,,,,,,,,0,,,83,101
104880,note_on,0,0,1,,,,,,,,,0,,,78,101
104880,note_on,0,0,1,,,,,,,,,0,,,71,101
104880,note_on,0,0,1,,,,,,,,,0,,,74,0
104880,note_on,0,0,1,,,,,,,,,0,,,74,101
104880,note_on,0,0,1,,,,,,,,,0,,,78,0
104880,note_on,0,0,3,,,,,,,,,2,,,40,101
104880,note_on,0,0,1,,,,,,,,,0,,,71,0
104880,note_on,240,0,1,,,,,,,,,0,,,83,0
104880,control_change,0,0,3,,,,,,,,,2,64,0,,
104880,note_on,40,0,3,,,,,,,,,2,,,38,0
104886,note_on,0,0,1,,,,,,,,,0,,,78,0
104886,note_on,0,0,1,,,,,,,,,0,,,74,0
104886,note_on,0,0,1,,,,,,,,,0,,,71,0
104886,note_on,6,0,1,,,,,,,,,0,,,83,0
104919,note_on,39,0,3,,,,,,,,,2,,,38,101
104920,note_on,1,0,3,,,,,,,,,2,,,40,0
104940,note_on,0,0,1,,,,,,,,,0,,,83,101
104940,note_on,0,0,1,,,,,,,,,0,,,74,101
104940,note_on,54,0,1,,,,,,,,,0,,,71,101
104940,note_on,0,0,1,,,,,,,,,0,,,78,101
104946,note_on,0,0,1,,,,,,,,,0,,,74,0
104946,note_on,0,0,1,,,,,,,,,0,,,71,0
104946,note_on,6,0,1,,,,,,,,,0,,,83,0
104946,note_on,0,0,1,,,,,,,,,0,,,78,0
104959,note_on,39,0,3,,,,,,,,,2,,,38,0
104960,note_on,1,0,3,,,,,,,,,2,,,37,101
105000,note_on,0,0,3,,,,,,,,,2,,,42,101
105000,note_on,0,0,1,,,,,,,,,0,,,83,101
105000,note_on,0,0,1,,,,,,,,,0,,,78,101
105000,note_on,0,0,1,,,,,,,,,0,,,74,101
105000,note_on,54,0,1,,,,,,,,,0,,,71,101
105000,note_on,40,0,3,,,,,,,,,2,,,37,0
105006,note_on,0,0,1,,,,,,,,,0,,,78,0
105006,note_on,0,0,1,,,,,,,,,0,,,74,0
105006,note_on,0,0,1,,,,,,,,,0,,,71,0
105006,note_on,6,0,1,,,,,,,,,0,,,83,0
105039,note_on,39,0,3,,,,,,,,,2,,,40,101
105040,note_on,1,0,3,,,,,,,,,2,,,42,0
105060,note_on,0,0,1,,,,,,,,,0,,,83,101
105060,note_on,54,0,1,,,,,,,,,0,,,71,101
105060,note_on,0,0,1,,,,,,,,,0,,,74,101
105060,note_on,0,0,1,,,,,,,,,0,,,78,101
105066,note_on,6,0,1,,,,,,,,,0,,,83,0
105066,note_on,0,0,1,,,,,,,,,0,,,71,0
105066,note_on,0,0,1,,,,,,,,,0,,,74,0
105066,note_on,0,0,1,,,,,,,,,0,,,78,0
105079,note_on,39,0,3,,,,,,,,,2,,,40,0
105080,note_on,1,0,3,,,,,,,,,2,,,38,101
105120,note_on,40,0,3,,,,,,,,,2,,,38,0
105120,control_change,0,0,3,,,,,,,,,2,64,127,,
105120,note_on,0,0,3,,,,,,,,,2,,,47,101
105120,note_on,0,0,1,,,,,,,,,0,,,83,101
105120,note_on,0,0,1,,,,,,,,,0,,,78,101
105120,note_on,0,0,1,,,,,,,,,0,,,74,101
105120,note_on,54,0,1,,,,,,,,,0,,,71,101
105159,note_on,39,0,3,,,,,,,,,2,,,46,101
105160,note_on,1,0,3,,,,,,,,,2,,,47,0
105199,note_on,39,0,3,,,,,,,,,2,,,46,0
105200,note_on,1,0,3,,,,,,,,,2,,,47,101
105240,note_on,0,0,1,,,,,,,,,0,,,78,0
105240,note_on,0,0,1,,,,,,,,,0,,,74,0
105240,note_on,120,0,1,,,,,,,,,0,,,83,0
105240,note_on,0,0,3,,,,,,,,,2,,,50,101
105240,note_on,0,0,1,,,,,,,,,0,,,78,101
105240,note_on,0,0,1,,,,,,,,,0,,,74,101
105240,note_on,40,0,3,,,,,,,,,2,,,47,0
105279,note_on,39,0,3,,,,,,,,,2,,,49,101
105280,note_on,1,0,3,,,,,,,,,2,,,50,0
105300,note_on,0,0,1,,,,,,,,,0,,,71,0
105300,note_on,0,0,1,,,,,,,,,0,,,74,0
105300,note_on,60,0,1,,,,,,,,,0,,,78,0
105319,note_on,39,0,3,,,,,,,,,2,,,49,0
105320,note_on,1,0,3,,,,,,,,,2,,,47,101
105360,control_change,0,0,3,,,,,,,,,2,64,0,,
105360,note_on,0,0,1,,,,,,,,,0,,,73,101
105360,note_on,60,0,1,,,,,,,,,0,,,71,101
105360,note_on,40,0,3,,,,,,,,,2,,,47,0
105360,note_on,0,0,3,,,,,,,,,2,,,52,101
105360,note_on,0,0,1,,,,,,,,,0,,,79,101
105372,note_on,0,0,1,,,,,,,,,0,,,71,0
105372,note_on,12,0,1,,,,,,,,,0,,,79,0
105372,note_on,0,0,1,,,,,,,,,0,,,73,0
105399,note_on,39,0,3,,,,,,,,,2,,,50,101
105400,note_on,1,0,3,,,,,,,,,2,,,52,0
105439,note_on,39,0,3,,,,,,,,,2,,,50,0
105440,note_on,1,0,3,,,,,,,,,2,,,49,101
105480,note_on,108,0,1,,,,,,,,,0,,,71,101
105480,note_on,0,0,1,,,,,,,,,0,,,76,101
105480,note_on,0,0,1,,,,,,,,,0,,,73,101
105480,note_on,0,0,3,,,,,,,,,2,,,55,101
105480,note_on,40,0,3,,,,,,,,,2,,,49,0
105492,note_on,0,0,1,,,,,,,,,0,,,73,0
105492,note_on,0,0,1,,,,,,,,,0,,,71,0
105492,note_on,12,0,1,,,,,,,,,0,,,76,0
105519,note_on,39,0,3,,,,,,,,,2,,,54,101
105520,note_on,1,0,3,,,,,,,,,2,,,55,0
105559,note_on,39,0,3,,,,,,,,,2,,,54,0
105560,note_on,1,0,3,,,,,,,,,2,,,52,101
105600,control_change,0,0,3,,,,,,,,,2,64,127,,
105600,note_on,40,0,3,,,,,,,,,2,,,52,0
105600,note_on,0,0,3,,,,,,,,,2,,,59,101
105600,note_on,0,0,1,,,,,,,,,0,,,74,122
105600,note_on,0,0,1,,,,,,,,,0,,,78,127
105600,note_on,108,0,1,,,,,,,,,0,,,71,117
105639,note_on,39,0,3,,,,,,,,,2,,,58,101
105640,note_on,1,0,3,,,,,,,,,2,,,59,0
105679,note_on,39,0,3,,,,,,,,,2,,,58,0
105680,note_on,1,0,3,,,,,,,,,2,,,59,101
105720,note_on,0,0,3,,,,,,,,,2,,,61,101
105720,note_on,40,0,3,,,,,,,,,2,,,59,0
105759,note_on,39,0,3,,,,,,,,,2,,,62,101
105760,note_on,1,0,3,,,,,,,,,2,,,61,0
105799,note_on,39,0,3,,,,,,,,,2,,,62,0
105800,control_change,1,0,3,,,,,,,,,2,64,0,,
105800,note_on,0,0,3,,,,,,,,,2,,,64,101
105840,note_on,240,0,1,,,,,,,,,0,,,78,0
105840,note_on,0,0,3,,,,,,,,,2,,,66,101
105840,note_on,0,0,3,,,,,,,,,2,,,62,101
105840,note_on,0,0,3,,,,,,,,,2,,,54,101
105840,note_on,40,0,3,,,,,,,,,2,,,64,0
105840,note_on,0,0,1,,,,,,,,,0,,,71,0
105840,note_on,0,0,1,,,,,,,,,0,,,74,0
105840,note_on,0,0,1,,,,,,,,,0,,,71,101
105846,note_on,6,0,3,,,,,,,,,2,,,66,0
105846,note_on,0,0,3,,,,,,,,,2,,,62,0
105846,note_on,0,0,3,,,,,,,,,2,,,54,0
105879,note_on,39,0,1,,,,,,,,,0,,,70,101
105880,note_on,1,0,1,,,,,,,,,0,,,71,0
105900,note_on,54,0,3,,,,,,,,,2,,,54,101
105900,note_on,0,0,3,,,,,,,,,2,,,62,101
105900,note_on,0,0,3,,,,,,,,,2,,,66,101
105906,note_on,0,0,3,,,,,,,,,2,,,54,0
105906,note_on,0,0,3,,,,,,,,,2,,,62,0
105906,note_on,6,0,3,,,,,,,,,2,,,66,0
105919,note_on,39,0,1,,,,,,,,,0,,,70,0
105920,note_on,1,0,1,,,,,,,,,0,,,71,101
105960,note_on,0,0,1,,,,,,,,,0,,,73,101
105960,note_on,0,0,3,,,,,,,,,2,,,66,101
105960,note_on,0,0,3,,,,,,,,,2,,,62,101
105960,note_on,54,0,3,,,,,,,,,2,,,54,101
105960,note_on,40,0,1,,,,,,,,,0,,,71,0
105966,note_on,0,0,3,,,,,,,,,2,,,54,0
105966,note_on,0,0,3,,,,,,,,,2,,,62,0
105966,note_on,6,0,3,,,,,,,,,2,,,66,0
105999,note_on,39,0,1,,,,,,,,,0,,,71,101
106000,note_on,1,0,1,,,,,,,,,0,,,73,0
106020,note_on,0,0,3,,,,,,,,,2,,,66,101
106020,note_on,0,0,3,,,,,,,,,2,,,62,101
106020,note_on,54,0,3,,,,,,,,,2,,,54,101
106026,note_on,0,0,3,,,,,,,,,2,,,54,0
106026,note_on,0,0,3,,,,,,,,,2,,,62,0
106026,note_on,6,0,3,,,,,,,,,2,,,66,0
106039,note_on,39,0,1,,,,,,,,,0,,,71,0
106040,note_on,1,0,1,,,,,,,,,0,,,70,101
106080,note_on,0,0,1,,,,,,,,,0,,,74,101
106080,control_change,0,0,1,,,,,,,,,0,64,127,,
106080,note_on,40,0,1,,,,,,,,,0,,,70,0
106080,note_on,0,0,3,,,,,,,,,2,,,66,101
106080,note_on,54,0,3,,,,,,,,,2,,,54,101
106080,note_on,0,0,3,,,,,,,,,2,,,62,101
106119,note_on,39,0,1,,,,,,,,,0,,,73,101
106120,note_on,1,0,1,,,,,,,,,0,,,74,0
106159,note_on,39,0,1,,,,,,,,,0,,,73,0
106160,note_on,1,0,1,,,,,,,,,0,,,71,101
106200,note_on,0,0,3,,,,,,,,,2,,,62,101
106200,note_on,0,0,3,,,,,,,,,2,,,59,101
106200,note_on,0,0,3,,,,,,,,,2,,,62,0
106200,note_on,120,0,3,,,,,,,,,2,,,66,0
106200,note_on,0,0,1,,,,,,,,,0,,,78,101
106200,control_change,0,0,1,,,,,,,,,0,64,0,,
106200,note_on,40,0,1,,,,,,,,,0,,,71,0
106239,note_on,39,0,1,,,,,,,,,0,,,76,101
106240,note_on,1,0,1,,,,,,,,,0,,,78,0
106260,note_on,60,0,3,,,,,,,,,2,,,62,0
106260,note_on,0,0,3,,,,,,,,,2,,,54,0
106260,note_on,0,0,3,,,,,,,,,2,,,59,0
106279,note_on,39,0,1,,,,,,,,,0,,,76,0
106280,note_on,1,0,1,,,,,,,,,0,,,74,101
106320,note_on,0,0,3,,,,,,,,,2,,,61,101
106320,note_on,0,0,3,,,,,,,,,2,,,59,101
106320,note_on,60,0,3,,,,,,,,,2,,,54,101
106320,note_on,40,0,1,,,,,,,,,0,,,74,0
106320,note_on,0,0,1,,,,,,,,,0,,,79,101
106332,note_on,12,0,3,,,,,,,,,2,,,61,0
106332,note_on,0,0,3,,,,,,,,,2,,,54,0
106332,note_on,0,0,3,,,,,,,,,2,,,59,0
106359,note_on,39,0,1,,,,,,,,,0,,,78,101
106360,note_on,1,0,1,,,,,,,,,0,,,79,0
106399,note_on,39,0,1,,,,,,,,,0,,,78,0
106400,note_on,1,0,1,,,,,,,,,0,,,76,101
106440,note_on,0,0,1,,,,,,,,,0,,,82,101
106440,note_on,40,0,1,,,,,,,,,0,,,76,0
106440,note_on,0,0,3,,,,,,,,,2,,,58,101
106440,note_on,108,0,3,,,,,,,,,2,,,54,101
106440,note_on,0,0,3,,,,,,,,,2,,,66,101
106452,note_on,12,0,3,,,,,,,,,2,,,66,0
106452,note_on,0,0,3,,,,,,,,,2,,,58,0
106452,note_on,0,0,3,,,,,,,,,2,,,54,0
106479,note_on,39,0,1,,,,,,,,,0,,,80,101
106480,note_on,1,0,1,,,,,,,,,0,,,82,0
106519,note_on,39,0,1,,,,,,,,,0,,,80,0
106520,note_on,1,0,1,,,,,,,,,0,,,78,101
106560,note_on,0,0,1,,,,,,,,,0,,,83,101
106560,note_on,0,0,1,,,,,,,,,0,,,78,101
106560,control_change,108,0,3,,,,,,,,,2,64,127,,
106560,note_on,0,0,1,,,,,,,,,0,,,74,101
106560,note_on,0,0,1,,,,,,,,,0,,,71,101
106560,note_on,40,0,1,,,,,,,,,0,,,78,0
106560,note_on,0,0,3,,,,,,,,,2,,,35,101
106599,note_on,39,0,3,,,,,,,,,2,,,34,101
106600,note_on,1,0,3,,,,,,,,,2,,,35,0
106639,note_on,39,0,3,,,,,,,,,2,,,34,0
106640,note_on,1,0,3,,,,,,,,,2,,,35,101
106680,note_on,0,0,3,,,,,,,,,2,,,38,127
106680,note_on,40,0,3,,,,,,,,,2,,,35,0
106719,note_on,39,0,3,,,,,,,,,2,,,37,101
106720,note_on,1,0,3,,,,,,,,,2,,,38,0
106759,note_on,39,0,3,,,,,,,,,2,,,37,0
106760,note_on,1,0,3,,,,,,,,,2,,,35,101
106800,note_on,240,0,1,,,,,,,,,0,,,83,0
106800,note_on,0,0,1,,,,,,,,,0,,,71,0
106800,note_on,0,0,1,,,,,,,,,0,,,78,0
106800,note_on,0,0,3,,,,,,,,,2,,,40,127
106800,control_change,0,0,3,,,,,,,,,2,64,0,,
106800,note_on,40,0,3,,,,,,,,,2,,,35,0
106800,note_on,0,0,1,,,,,,,,,0,,,74,0
106839,note_on,39,0,3,,,,,,,,,2,,,38,101
106840,note_on,1,0,3,,,,,,,,,2,,,40,0
106879,note_on,39,0,3,,,,,,,,,2,,,38,0
106880,note_on,1,0,3,,,,,,,,,2,,,37,101
106920,note_on,40,0,3,,,,,,,,,2,,,37,0
106920,note_on,0,0,3,,,,,,,,,2,,,43,127
106959,note_on,39,0,3,,,,,,,,,2,,,42,101
106960,note_on,1,0,3,,,,,,,,,2,,,43,0
106999,note_on,39,0,3,,,,,,,,,2,,,42,0
107000,note_on,1,0,3,,,,,,,,,2,,,40,101
107040,note_on,0,0,1,,,,,,,,,0,,,59,127
107040,note_on,40,0,3,,,,,,,,,2,,,40,0
107040,control_change,0,0,3,,,,,,,,,2,64,127,,
107040,note_on,0,0,3,,,,,,,,,2,,,38,127
107040,control_change,240,0,1,,,,,,,,,0,64,127,,
107079,note_on,39,0,1,,,,,,,,,0,,,58,101
107079,note_on,39,0,3,,,,,,,,,2,,,37,101
107080,note_on,1,0,3,,,,,,,,,2,,,38,0
107080,note_on,1,0,1,,,,,,,,,0,,,59,0
107119,note_on,39,0,1,,,,,,,,,0,,,58,0
107119,note_on,39,0,3,,,,,,,,,2,,,37,0
107120,note_on,1,0,1,,,,,,,,,0,,,59,101
107120,note_on,1,0,3,,,,,,,,,2,,,38,101
107160,note_on,40,0,1,,,,,,,,,0,,,59,0
107160,note_on,40,0,3,,,,,,,,,2,,,38,0
107160,note_on,0,0,3,,,,,,,,,2,,,42,127
107160,note_on,0,0,1,,,,,,,,,0,,,62,127
107199,note_on,39,0,3,,,,,,,,,2,,,40,101
107199,note_on,39,0,1,,,,,,,,,0,,,61,101
107200,note_on,1,0,1,,,,,,,,,0,,,62,0
107200,note_on,1,0,3,,,,,,,,,2,,,42,0
107239,note_on,39,0,3,,,,,,,,,2,,,40,0
107239,note_on,39,0,1,,,,,,,,,0,,,61,0
107240,note_on,1,0,3,,,,,,,,,2,,,38,101
107240,note_on,1,0,1,,,,,,,,,0,,,59,101
107280,control_change,0,0,1,,,,,,,,,0,64,0,,
107280,note_on,0,0,1,,,,,,,,,0,,,64,127
107280,note_on,0,0,3,,,,,,,,,2,,,43,127
107280,control_change,0,0,3,,,,,,,,,2,64,0,,
107280,note_on,40,0,3,,,,,,,,,2,,,38,0
107280,note_on,40,0,1,,,,,,,,,0,,,59,0
107319,note_on,39,0,1,,,,,,,,,0,,,62,101
107319,note_on,39,0,3,,,,,,,,,2,,,42,101
107320,note_on,1,0,1,,,,,,,,,0,,,64,0
107320,note_on,1,0,3,,,,,,,,,2,,,43,0
107359,note_on,39,0,1,,,,,,,,,0,,,62,0
107359,note_on,39,0,3,,,,,,,,,2,,,42,0
107360,note_on,1,0,3,,,,,,,,,2,,,40,101
107360,note_on,1,0,1,,,,,,,,,0,,,61,101
107400,note_on,40,0,1,,,,,,,,,0,,,61,0
107400,note_on,0,0,1,,,,,,,,,0,,,67,127
107400,note_on,0,0,3,,,,,,,,,2,,,46,127
107400,note_on,40,0,3,,,,,,,,,2,,,40,0
107439,note_on,39,0,1,,,,,,,,,0,,,66,101
107439,note_on,39,0,3,,,,,,,,,2,,,45,101
107440,note_on,1,0,1,,,,,,,,,0,,,67,0
107440,note_on,1,0,3,,,,,,,,,2,,,46,0
107479,note_on,39,0,1,,,,,,,,,0,,,66,0
107479,note_on,39,0,3,,,,,,,,,2,,,45,0
107480,note_on,1,0,1,,,,,,,,,0,,,64,101
107480,note_on,1,0,3,,,,,,,,,2,,,43,101
107520,note_on,40,0,1,,,,,,,,,0,,,64,0
107520,note_on,0,0,1,,,,,,,,,0,,,66,127
107520,control_change,0,0,1,,,,,,,,,0,64,127,,
107520,note_on,0,0,3,,,,,,,,,2,,,45,127
107520,control_change,0,0,3,,,,,,,,,2,64,127,,
107520,note_on,40,0,3,,,,,,,,,2,,,43,0
107559,note_on,39,0,3,,,,,,,,,2,,,44,101
107559,note_on,39,0,1,,,,,,,,,0,,,65,101
107560,note_on,1,0,1,,,,,,,,,0,,,66,0
107560,note_on,1,0,3,,,,,,,,,2,,,45,0
107599,note_on,39,0,3,,,,,,,,,2,,,44,0
107599,note_on,39,0,1,,,,,,,,,0,,,65,0
107600,note_on,1,0,1,,,,,,,,,0,,,66,101
107600,note_on,1,0,3,,,,,,,,,2,,,45,101
107640,note_on,40,0,1,,,,,,,,,0,,,66,0
107640,note_on,0,0,1,,,,,,,,,0,,,69,127
107640,note_on,40,0,3,,,,,,,,,2,,,45,0
107640,note_on,0,0,3,,,,,,,,,2,,,42,127
107679,note_on,39,0,1,,,,,,,,,0,,,68,101
107679,note_on,39,0,3,,,,,,,,,2,,,41,101
107680,note_on,1,0,3,,,,,,,,,2,,,42,0
107680,note_on,1,0,1,,,,,,,,,0,,,69,0
107719,note_on,39,0,1,,,,,,,,,0,,,68,0
107719,note_on,39,0,3,,,,,,,,,2,,,41,0
107720,note_on,1,0,1,,,,,,,,,0,,,69,101
107720,note_on,1,0,3,,,,,,,,,2,,,42,101
107760,note_on,40,0,1,,,,,,,,,0,,,69,0
107760,note_on,0,0,1,,,,,,,,,0,,,72,127
107760,note_on,40,0,3,,,,,,,,,2,,,42,0
107760,note_on,0,0,3,,,,,,,,,2,,,39,127
107799,note_on,39,0,1,,,,,,,,,0,,,71,101
107799,note_on,39,0,3,,,,,,,,,2,,,38,101
107800,note_on,1,0,1,,,,,,,,,0,,,72,0
107800,note_on,1,0,3,,,,,,,,,2,,,39,0
107839,note_on,39,0,1,,,,,,,,,0,,,71,0
107839,note_on,39,0,3,,,,,,,,,2,,,38,0
107840,note_on,1,0,1,,,,,,,,,0,,,72,101
107840,note_on,1,0,3,,,,,,,,,2,,,39,101
107880,note_on,40,0,1,,,,,,,,,0,,,72,0
107880,note_on,0,0,1,,,,,,,,,0,,,75,127
107880,note_on,0,0,3,,,,,,,,,2,,,36,127
107880,note_on,40,0,3,,,,,,,,,2,,,39,0
107919,note_on,39,0,1,,,,,,,,,0,,,74,101
107919,note_on,39,0,3,,,,,,,,,2,,,35,101
107920,note_on,1,0,3,,,,,,,,,2,,,36,0
107920,note_on,1,0,1,,,,,,,,,0,,,75,0
107959,note_on,39,0,3,,,,,,,,,2,,,35,0
107959,note_on,39,0,1,,,,,,,,,0,,,74,0
107960,note_on,1,0,3,,,,,,,,,2,,,36,101
107960,note_on,1,0,1,,,,,,,,,0,,,75,101
108000,note_on,0,0,3,,,,,,,,,2,,,33,101
108000,control_change,0,0,3,,,,,,,,,2,64,0,,
108000,note_on,40,0,3,,,,,,,,,2,,,36,0
108000,note_on,40,0,1,,,,,,,,,0,,,75,0
108000,note_on,0,0,1,,,,,,,,,0,,,78,101
108000,control_change,0,0,1,,,,,,,,,0,64,0,,
108120,note_on,120,0,1,,,,,,,,,0,,,78,0
108120,control_change,0,0,1,,,,,,,,,0,64,127,,
108120,note_on,0,0,1,,,,,,,,,0,,,72,101
108120,note_on,0,0,1,,,,,,,,,0,,,75,101
108120,note_on,0,0,1,,,,,,,,,0,,,80,101
108120,note_on,0,0,1,,,,,,,,,0,,,84,101
108120,note_on,0,0,1,,,,,,,,,0,,,78,101
108120,note_on,120,0,3,,,,,,,,,2,,,33,0
108120,control_change,0,0,3,,,,,,,,,2,64,127,,
108120,note_on,0,0,3,,,,,,,,,2,,,32,101
108159,note_on,39,0,3,,,,,,,,,2,,,31,101
108160,note_on,1,0,3,,,,,,,,,2,,,32,0
108199,note_on,39,0,3,,,,,,,,,2,,,31,0
108200,note_on,1,0,3,,,,,,,,,2,,,32,101
108240,note_on,0,0,1,,,,,,,,,0,,,80,0
108240,note_on,0,0,1,,,,,,,,,0,,,75,0
108240,note_on,0,0,1,,,,,,,,,0,,,72,0
108240,note_on,0,0,1,,,,,,,,,0,,,78,0
108240,note_on,120,0,1,,,,,,,,,0,,,84,0
108240,note_on,0,0,1,,,,,,,,,0,,,78,101
108240,note_on,0,0,1,,,,,,,,,0,,,80,101
108240,note_on,40,0,3,,,,,,,,,2,,,32,0
108240,note_on,0,0,3,,,,,,,,,2,,,32,101
108240,note_on,0,0,1,,,,,,,,,0,,,84,101
108240,note_on,0,0,1,,,,,,,,,0,,,72,101
108240,note_on,0,0,1,,,,,,,,,0,,,75,101
108279,note_on,39,0,3,,,,,,,,,2,,,31,101
108280,note_on,1,0,3,,,,,,,,,2,,,32,0
108319,note_on,39,0,3,,,,,,,,,2,,,31,0
108320,note_on,1,0,3,,,,,,,,,2,,,32,101
108360,note_on,0,0,3,,,,,,,,,2,,,32,101
108360,note_on,0,0,1,,,,,,,,,0,,,72,0
108360,note_on,40,0,3,,,,,,,,,2,,,32,0
108360,note_on,0,0,1,,,,,,,,,0,,,78,0
108360,note_on,0,0,1,,,,,,,,,0,,,72,101
108360,note_on,120,0,1,,,,,,,,,0,,,84,0
108360,note_on,0,0,1,,,,,,,,,0,,,75,0
108360,control_change,0,0,1,,,,,,,,,0,64,0,,
108360,note_on,0,0,1,,,,,,,,,0,,,84,101
108360,note_on,0,0,1,,,,,,,,,0,,,80,101
108360,note_on,0,0,1,,,,,,,,,0,,,78,101
108360,note_on,0,0,1,,,,,,,,,0,,,75,101
108360,note_on,0,0,1,,,,,,,,,0,,,80,0
108399,note_on,39,0,3,,,,,,,,,2,,,31,101
108400,note_on,1,0,3,,,,,,,,,2,,,32,0
108439,note_on,39,0,3,,,,,,,,,2,,,31,0
108440,control_change,1,0,3,,,,,,,,,2,64,0,,
108440,note_on,0,0,3,,,,,,,,,2,,,32,101
108480,note_on,40,0,3,,,,,,,,,2,,,32,0
108480,control_change,0,0,3,,,,,,,,,2,64,127,,
108480,note_on,0,0,3,,,,,,,,,2,,,37,101
108480,note_on,0,0,1,,,,,,,,,0,,,78,0
108480,note_on,0,0,1,,,,,,,,,0,,,72,0
108480,note_on,0,0,1,,,,,,,,,0,,,75,0
108480,note_on,0,0,1,,,,,,,,,0,,,80,0
108480,note_on,0,0,1,,,,,,,,,0,,,73,114
108480,note_on,120,0,1,,,,,,,,,0,,,84,0
108480,note_on,0,0,1,,,,,,,,,0,,,80,114
108480,note_on,0,0,1,,,,,,,,,0,,,85,114
108480,note_on,0,0,1,,,,,,,,,0,,,76,114
108519,note_on,39,0,3,,,,,,,,,2,,,36,101
108520,note_on,1,0,3,,,,,,,,,2,,,37,0
108559,note_on,39,0,3,,,,,,,,,2,,,36,0
108560,note_on,1,0,3,,,,,,,,,2,,,37,101
108600,note_on,0,0,3,,,,,,,,,2,,,40,101
108600,note_on,40,0,3,,,,,,,,,2,,,37,0
108639,note_on,39,0,3,,,,,,,,,2,,,39,101
108640,note_on,1,0,3,,,,,,,,,2,,,40,0
108679,note_on,39,0,3,,,,,,,,,2,,,39,0
108680,note_on,1,0,3,,,,,,,,,2,,,37,101
108720,note_on,0,0,1,,,,,,,,,0,,,76,114
108720,note_on,240,0,1,,,,,,,,,0,,,85,0
108720,note_on,0,0,1,,,,,,,,,0,,,73,0
108720,note_on,0,0,1,,,,,,,,,0,,,76,0
108720,note_on,0,0,3,,,,,,,,,2,,,42,101
108720,control_change,0,0,3,,,,,,,,,2,64,0,,
108720,note_on,0,0,1,,,,,,,,,0,,,80,0
108720,note_on,40,0,3,,,,,,,,,2,,,37,0
108720,note_on,0,0,1,,,,,,,,,0,,,85,114
108720,note_on,0,0,1,,,,,,,,,0,,,80,114
108720,note_on,0,0,1,,,,,,,,,0,,,73,114
108726,note_on,0,0,1,,,,,,,,,0,,,80,0
108726,note_on,0,0,1,,,,,,,,,0,,,76,0
108726,note_on,0,0,1,,,,,,,,,0,,,73,0
108726,note_on,6,0,1,,,,,,,,,0,,,85,0
108759,note_on,39,0,3,,,,,,,,,2,,,40,101
108760,note_on,1,0,3,,,,,,,,,2,,,42,0
108780,note_on,0,0,1,,,,,,,,,0,,,80,114
108780,note_on,0,0,1,,,,,,,,,0,,,76,114
108780,note_on,0,0,1,,,,,,,,,0,,,85,114
108780,note_on,54,0,1,,,,,,,,,0,,,73,114
108786,note_on,0,0,1,,,,,,,,,0,,,76,0
108786,note_on,0,0,1,,,,,,,,,0,,,80,0
108786,note_on,0,0,1,,,,,,,,,0,,,73,0
108786,note_on,6,0,1,,,,,,,,,0,,,85,0
108799,note_on,39,0,3,,,,,,,,,2,,,40,0
108800,note_on,1,0,3,,,,,,,,,2,,,39,101
108840,note_on,40,0,3,,,,,,,,,2,,,39,0
108840,note_on,0,0,1,,,,,,,,,0,,,80,114
108840,note_on,0,0,1,,,,,,,,,0,,,76,114
108840,note_on,54,0,1,,,,,,,,,0,,,73,114
108840,note_on,0,0,3,,,,,,,,,2,,,44,101
108840,note_on,0,0,1,,,,,,,,,0,,,85,114
108846,note_on,0,0,1,,,,,,,,,0,,,76,0
108846,note_on,0,0,1,,,,,,,,,0,,,73,0
108846,note_on,6,0,1,,,,,,,,,0,,,85,0
108846,note_on,0,0,1,,,,,,,,,0,,,80,0
108879,note_on,39,0,3,,,,,,,,,2,,,42,101
108880,note_on,1,0,3,,,,,,,,,2,,,44,0
108900,note_on,0,0,1,,,,,,,,,0,,,80,114
108900,note_on,54,0,1,,,,,,,,,0,,,73,114
108900,note_on,0,0,1,,,,,,,,,0,,,76,114
108900,note_on,0,0,1,,,,,,,,,0,,,85,114
108906,note_on,6,0,1,,,,,,,,,0,,,85,0
108906,note_on,0,0,1,,,,,,,,,0,,,73,0
108906,note_on,0,0,1,,,,,,,,,0,,,76,0
108906,note_on,0,0,1,,,,,,,,,0,,,80,0
108919,note_on,39,0,3,,,,,,,,,2,,,42,0
108920,note_on,1,0,3,,,,,,,,,2,,,40,101
108960,note_on,54,0,1,,,,,,,,,0,,,73,114
108960,note_on,0,0,1,,,,,,,,,0,,,76,114
108960,note_on,0,0,1,,,,,,,,,0,,,80,114
108960,note_on,0,0,1,,,,,,,,,0,,,85,114
108960,control_change,0,0,3,,,,,,,,,2,64,127,,
108960,note_on,0,0,3,,,,,,,,,2,,,49,101
108960,note_on,40,0,3,,,,,,,,,2,,,40,0
108999,note_on,39,0,3,,,,,,,,,2,,,48,101
109000,note_on,1,0,3,,,,,,,,,2,,,49,0
109039,note_on,39,0,3,,,,,,,,,2,,,48,0
109040,note_on,1,0,3,,,,,,,,,2,,,49,101
109080,note_on,40,0,3,,,,,,,,,2,,,49,0
109080,note_on,120,0,1,,,,,,,,,0,,,85,0
109080,note_on,0,0,1,,,,,,,,,0,,,80,0
109080,note_on,0,0,3,,,,,,,,,2,,,52,101
109080,note_on,0,0,1,,,,,,,,,0,,,76,114
109080,note_on,0,0,1,,,,,,,,,0,,,80,114
109080,note_on,0,0,1,,,,,,,,,0,,,76,0
109119,note_on,39,0,3,,,,,,,,,2,,,51,101
109120,note_on,1,0,3,,,,,,,,,2,,,52,0
109140,note_on,60,0,1,,,,,,,,,0,,,80,0
109140,note_on,0,0,1,,,,,,,,,0,,,73,0
109140,note_on,0,0,1,,,,,,,,,0,,,76,0
109159,note_on,39,0,3,,,,,,,,,2,,,51,0
109160,note_on,1,0,3,,,,,,,,,2,,,49,101
109200,note_on,40,0,3,,,,,,,,,2,,,49,0
109200,control_change,0,0,3,,,,,,,,,2,64,0,,
109200,note_on,0,0,1,,,,,,,,,0,,,81,114
109200,note_on,0,0,1,,,,,,,,,0,,,75,114
109200,note_on,0,0,3,,,,,,,,,2,,,54,101
109200,note_on,60,0,1,,,,,,,,,0,,,73,114
109212,note_on,0,0,1,,,,,,,,,0,,,73,0
109212,note_on,0,0,1,,,,,,,,,0,,,75,0
109212,note_on,12,0,1,,,,,,,,,0,,,81,0
109239,note_on,39,0,3,,,,,,,,,2,,,52,101
109240,note_on,1,0,3,,,,,,,,,2,,,54,0
109279,note_on,39,0,3,,,,,,,,,2,,,52,0
109280,note_on,1,0,3,,,,,,,,,2,,,51,101
109320,note_on,0,0,3,,,,,,,,,2,,,57,101
109320,note_on,40,0,3,,,,,,,,,2,,,51,0
109320,note_on,0,0,1,,,,,,,,,0,,,78,114
109320,note_on,0,0,1,,,,,,,,,0,,,75,114
109320,note_on,108,0,1,,,,,,,,,0,,,73,114
109332,note_on,0,0,1,,,,,,,,,0,,,73,0
109332,note_on,0,0,1,,,,,,,,,0,,,75,0
109332,note_on,12,0,1,,,,,,,,,0,,,78,0
109359,note_on,39,0,3,,,,,,,,,2,,,56,101
109360,note_on,1,0,3,,,,,,,,,2,,,57,0
109399,note_on,39,0,3,,,,,,,,,2,,,56,0
109400,note_on,1,0,3,,,,,,,,,2,,,54,101
109440,note_on,108,0,1,,,,,,,,,0,,,73,114
109440,note_on,0,0,3,,,,,,,,,2,,,61,101
109440,note_on,40,0,3,,,,,,,,,2,,,54,0
109440,control_change,0,0,3,,,,,,,,,2,64,127,,
109440,note_on,0,0,1,,,,,,,,,0,,,80,114
109440,note_on,0,0,1,,,,,,,,,0,,,76,114
109479,note_on,39,0,3,,,,,,,,,2,,,60,101
109480,note_on,1,0,3,,,,,,,,,2,,,61,0
109519,note_on,39,0,3,,,,,,,,,2,,,60,0
109520,note_on,1,0,3,,,,,,,,,2,,,61,101
109560,note_on,40,0,3,,,,,,,,,2,,,61,0
109560,note_on,0,0,3,,,,,,,,,2,,,63,101
109599,note_on,39,0,3,,,,,,,,,2,,,64,101
109600,note_on,1,0,3,,,,,,,,,2,,,63,0
109639,note_on,39,0,3,,,,,,,,,2,,,64,0
109640,note_on,1,0,3,,,,,,,,,2,,,66,101
109680,control_change,0,0,3,,,,,,,,,2,64,0,,
109680,note_on,0,0,3,,,,,,,,,2,,,64,101
109680,note_on,0,0,3,,,,,,,,,2,,,56,101
109680,note_on,0,0,3,,,,,,,,,2,,,68,101
109680,note_on,0,0,1,,,,,,,,,0,,,73,0
109680,note_on,0,0,1,,,,,,,,,0,,,73,114
109680,note_on,240,0,1,,,,,,,,,0,,,80,0
109680,note_on,0,0,1,,,,,,,,,0,,,76,0
109680,note_on,40,0,3,,,,,,,,,2,,,66,0
109686,note_on,0,0,3,,,,,,,,,2,,,64,0
109686,note_on,6,0,3,,,,,,,,,2,,,68,0
109686,note_on,0,0,3,,,,,,,,,2,,,56,0
109719,note_on,39,0,1,,,,,,,,,0,,,72,114
109720,note_on,1,0,1,,,,,,,,,0,,,73,0
109740,note_on,0,0,3,,,,,,,,,2,,,68,101
109740,note_on,0,0,3,,,,,,,,,2,,,64,101
109740,note_on,54,0,3,,,,,,,,,2,,,56,101
109746,note_on,0,0,3,,,,,,,,,2,,,56,0
109746,note_on,0,0,3,,,,,,,,,2,,,64,0
109746,note_on,6,0,3,,,,,,,,,2,,,68,0
109759,note_on,39,0,1,,,,,,,,,0,,,72,0
109760,note_on,1,0,1,,,,,,,,,0,,,73,114
109800,note_on,0,0,1,,,,,,,,,0,,,75,114
109800,note_on,40,0,1,,,,,,,,,0,,,73,0
109800,note_on,54,0,3,,,,,,,,,2,,,56,101
109800,note_on,0,0,3,,,,,,,,,2,,,64,101
109800,note_on,0,0,3,,,,,,,,,2,,,68,101
109806,note_on,6,0,3,,,,,,,,,2,,,68,0
109806,note_on,0,0,3,,,,,,,,,2,,,64,0
109806,note_on,0,0,3,,,,,,,,,2,,,56,0
109839,note_on,39,0,1,,,,,,,,,0,,,73,114
109840,note_on,1,0,1,,,,,,,,,0,,,75,0
109860,note_on,54,0,3,,,,,,,,,2,,,56,101
109860,note_on,0,0,3,,,,,,,,,2,,,68,101
109860,note_on,0,0,3,,,,,,,,,2,,,64,101
109866,note_on,6,0,3,,,,,,,,,2,,,68,0
109866,note_on,0,0,3,,,,,,,,,2,,,56,0
109866,note_on,0,0,3,,,,,,,,,2,,,64,0
109879,note_on,39,0,1,,,,,,,,,0,,,73,0
109880,note_on,1,0,1,,,,,,,,,0,,,72,114
109920,note_on,0,0,1,,,,,,,,,0,,,76,114
109920,control_change,0,0,1,,,,,,,,,0,64,127,,
109920,note_on,40,0,1,,,,,,,,,0,,,72,0
109920,note_on,0,0,3,,,,,,,,,2,,,68,101
109920,note_on,0,0,3,,,,,,,,,2,,,64,101
109920,note_on,54,0,3,,,,,,,,,2,,,56,101
109959,note_on,39,0,1,,,,,,,,,0,,,75,114
109960,note_on,1,0,1,,,,,,,,,0,,,76,0
109999,note_on,39,0,1,,,,,,,,,0,,,75,0
110000,note_on,1,0,1,,,,,,,,,0,,,73,114
110040,note_on,0,0,3,,,,,,,,,2,,,61,101
110040,note_on,0,0,3,,,,,,,,,2,,,64,101
110040,note_on,0,0,1,,,,,,,,,0,,,80,114
110040,note_on,40,0,1,,,,,,,,,0,,,73,0
110040,note_on,120,0,3,,,,,,,,,2,,,68,0
110040,note_on,0,0,3,,,,,,,,,2,,,64,0
110079,note_on,39,0,1,,,,,,,,,0,,,78,114
110080,note_on,1,0,1,,,,,,,,,0,,,80,0
110100,note_on,0,0,3,,,,,,,,,2,,,61,0
110100,note_on,60,0,3,,,,,,,,,2,,,64,0
110100,note_on,0,0,3,,,,,,,,,2,,,56,0
110119,note_on,39,0,1,,,,,,,,,0,,,78,0
110120,note_on,1,0,1,,,,,,,,,0,,,76,114
110160,note_on,0,0,3,,,,,,,,,2,,,61,101
110160,note_on,0,0,3,,,,,,,,,2,,,63,101
110160,note_on,60,0,3,,,,,,,,,2,,,56,101
110160,control_change,0,0,1,,,,,,,,,0,64,0,,
110160,note_on,0,0,1,,,,,,,,,0,,,81,114
110160,note_on,40,0,1,,,,,,,,,0,,,76,0
110172,note_on,12,0,3,,,,,,,,,2,,,63,0
110172,note_on,0,0,3,,,,,,,,,2,,,61,0
110172,note_on,0,0,3,,,,,,,,,2,,,56,0
110199,note_on,39,0,1,,,,,,,,,0,,,80,114
110200,note_on,1,0,1,,,,,,,,,0,,,81,0
110239,note_on,39,0,1,,,,,,,,,0,,,80,0
110240,note_on,1,0,1,,,,,,,,,0,,,78,114
110280,note_on,0,0,1,,,,,,,,,0,,,84,114
110280,note_on,108,0,3,,,,,,,,,2,,,56,101
110280,note_on,0,0,3,,,,,,,,,2,,,60,101
110280,note_on,0,0,3,,,,,,,,,2,,,68,101
110280,note_on,40,0,1,,,,,,,,,0,,,78,0
110292,note_on,0,0,3,,,,,,,,,2,,,60,0
110292,note_on,12,0,3,,,,,,,,,2,,,68,0
110292,note_on,0,0,3,,,,,,,,,2,,,56,0
110319,note_on,39,0,1,,,,,,,,,0,,,82,114
110320,note_on,1,0,1,,,,,,,,,0,,,84,0
110359,note_on,39,0,1,,,,,,,,,0,,,82,0
110360,note_on,1,0,1,,,,,,,,,0,,,80,114
110400,note_on,0,0,1,,,,,,,,,0,,,85,114
110400,note_on,0,0,1,,,,,,,,,0,,,80,114
110400,note_on,0,0,1,,,,,,,,,0,,,76,114
110400,note_on,0,0,1,,,,,,,,,0,,,73,114
110400,note_on,40,0,1,,,,,,,,,0,,,80,0
110400,control_change,108,0,3,,,,,,,,,2,64,127,,
110400,note_on,0,0,3,,,,,,,,,2,,,37,101
110439,note_on,39,0,3,,,,,,,,,2,,,36,101
110440,note_on,1,0,3,,,,,,,,,2,,,37,0
110479,note_on,39,0,3,,,,,,,,,2,,,36,0
110480,note_on,1,0,3,,,,,,,,,2,,,37,101
110520,note_on,0,0,3,,,,,,,,,2,,,40,101
110520,note_on,40,0,3,,,,,,,,,2,,,37,0
110559,note_on,39,0,3,,,,,,,,,2,,,39,101
110560,note_on,1,0,3,,,,,,,,,2,,,40,0
110599,note_on,39,0,3,,,,,,,,,2,,,39,0
110600,note_on,1,0,3,,,,,,,,,2,,,37,101
110640,note_on,40,0,3,,,,,,,,,2,,,37,0
110640,note_on,0,0,1,,,,,,,,,0,,,80,0
110640,note_on,240,0,1,,,,,,,,,0,,,85,0
110640,note_on,0,0,1,,,,,,,,,0,,,73,0
110640,note_on,0,0,1,,,,,,,,,0,,,76,0
110640,control_change,0,0,3,,,,,,,,,2,64,0,,
110640,note_on,0,0,3,,,,,,,,,2,,,42,101
110679,note_on,39,0,3,,,,,,,,,2,,,40,101
110680,note_on,1,0,3,,,,,,,,,2,,,42,0
110719,note_on,39,0,3,,,,,,,,,2,,,40,0
110720,note_on,1,0,3,,,,,,,,,2,,,39,101
110760,note_on,0,0,3,,,,,,,,,2,,,45,101
110760,note_on,40,0,3,,,,,,,,,2,,,39,0
110799,note_on,39,0,3,,,,,,,,,2,,,44,101
110800,note_on,1,0,3,,,,,,,,,2,,,45,0
110839,note_on,39,0,3,,,,,,,,,2,,,44,0
110840,note_on,1,0,3,,,,,,,,,2,,,42,101
110880,note_on,40,0,3,,,,,,,,,2,,,42,0
110880,note_on,0,0,3,,,,,,,,,2,,,40,101
110880,note_on,0,0,1,,,,,,,,,0,,,61,114
110880,control_change,240,0,1,,,,,,,,,0,64,127,,
110880,control_change,0,0,3,,,,,,,,,2,64,127,,
110919,note_on,39,0,3,,,,,,,,,2,,,39,101
110919,note_on,39,0,1,,,,,,,,,0,,,60,114
110920,note_on,1,0,3,,,,,,,,,2,,,40,0
110920,note_on,1,0,1,,,,,,,,,0,,,61,0
110959,note_on,39,0,1,,,,,,,,,0,,,60,0
110959,note_on,39,0,3,,,,,,,,,2,,,39,0
110960,note_on,1,0,1,,,,,,,,,0,,,61,114
110960,note_on,1,0,3,,,,,,,,,2,,,40,101
111000,note_on,0,0,3,,,,,,,,,2,,,44,101
111000,note_on,40,0,3,,,,,,,,,2,,,40,0
111000,note_on,40,0,1,,,,,,,,,0,,,61,0
111000,note_on,0,0,1,,,,,,,,,0,,,64,114
111039,note_on,39,0,3,,,,,,,,,2,,,42,101
111039,note_on,39,0,1,,,,,,,,,0,,,63,114
111040,note_on,1,0,3,,,,,,,,,2,,,44,0
111040,note_on,1,0,1,,,,,,,,,0,,,64,0
111079,note_on,39,0,3,,,,,,,,,2,,,42,0
111079,note_on,39,0,1,,,,,,,,,0,,,63,0
111080,note_on,1,0,3,,,,,,,,,2,,,40,101
111080,note_on,1,0,1,,,,,,,,,0,,,61,114
111120,control_change,0,0,1,,,,,,,,,0,64,0,,
111120,note_on,0,0,1,,,,,,,,,0,,,66,114
111120,control_change,0,0,3,,,,,,,,,2,64,0,,
111120,note_on,0,0,3,,,,,,,,,2,,,45,101
111120,note_on,40,0,1,,,,,,,,,0,,,61,0
111120,note_on,40,0,3,,,,,,,,,2,,,40,0
111159,note_on,39,0,1,,,,,,,,,0,,,64,114
111159,note_on,39,0,3,,,,,,,,,2,,,43,101
111160,note_on,1,0,1,,,,,,,,,0,,,66,0
111160,note_on,1,0,3,,,,,,,,,2,,,45,0
111199,note_on,39,0,1,,,,,,,,,0,,,64,0
111199,note_on,39,0,3,,,,,,,,,2,,,43,0
111200,note_on,1,0,3,,,,,,,,,2,,,42,101
111200,note_on,1,0,1,,,,,,,,,0,,,63,114
111240,note_on,40,0,1,,,,,,,,,0,,,63,0
111240,note_on,0,0,1,,,,,,,,,0,,,69,114
111240,note_on,40,0,3,,,,,,,,,2,,,42,0
111240,note_on,0,0,3,,,,,,,,,2,,,48,101
111279,note_on,39,0,1,,,,,,,,,0,,,68,114
111279,note_on,39,0,3,,,,,,,,,2,,,47,101
111280,note_on,1,0,1,,,,,,,,,0,,,69,0
111280,note_on,1,0,3,,,,,,,,,2,,,48,0
111319,note_on,39,0,1,,,,,,,,,0,,,68,0
111319,note_on,39,0,3,,,,,,,,,2,,,47,0
111320,note_on,1,0,1,,,,,,,,,0,,,66,114
111320,note_on,1,0,3,,,,,,,,,2,,,45,101
111360,note_on,0,0,3,,,,,,,,,2,,,47,101
111360,control_change,0,0,3,,,,,,,,,2,64,127,,
111360,note_on,0,0,1,,,,,,,,,0,,,68,114
111360,note_on,40,0,1,,,,,,,,,0,,,66,0
111360,note_on,40,0,3,,,,,,,,,2,,,45,0
111360,control_change,0,0,1,,,,,,,,,0,64,127,,
111399,note_on,39,0,3,,,,,,,,,2,,,46,101
111399,note_on,39,0,1,,,,,,,,,0,,,67,114
111400,note_on,1,0,3,,,,,,,,,2,,,47,0
111400,note_on,1,0,1,,,,,,,,,0,,,68,0
111439,note_on,39,0,1,,,,,,,,,0,,,67,0
111439,note_on,39,0,3,,,,,,,,,2,,,46,0
111440,note_on,1,0,3,,,,,,,,,2,,,47,101
111440,note_on,1,0,1,,,,,,,,,0,,,68,114
111480,note_on,40,0,3,,,,,,,,,2,,,47,0
111480,note_on,0,0,3,,,,,,,,,2,,,44,101
111480,note_on,40,0,1,,,,,,,,,0,,,68,0
111480,note_on,0,0,1,,,,,,,,,0,,,71,114
111519,note_on,39,0,1,,,,,,,,,0,,,70,114
111519,note_on,39,0,3,,,,,,,,,2,,,43,101
111520,note_on,1,0,1,,,,,,,,,0,,,71,0
111520,note_on,1,0,3,,,,,,,,,2,,,44,0
111559,note_on,39,0,1,,,,,,,,,0,,,70,0
111559,note_on,39,0,3,,,,,,,,,2,,,43,0
111560,note_on,1,0,3,,,,,,,,,2,,,44,101
111560,note_on,1,0,1,,,,,,,,,0,,,71,114
111600,note_on,0,0,1,,,,,,,,,0,,,74,114
111600,note_on,40,0,1,,,,,,,,,0,,,71,0
111600,note_on,40,0,3,,,,,,,,,2,,,44,0
111600,note_on,0,0,3,,,,,,,,,2,,,42,101
111639,note_on,39,0,1,,,,,,,,,0,,,73,114
111639,note_on,39,0,3,,,,,,,,,2,,,40,101
111640,note_on,1,0,3,,,,,,,,,2,,,42,0
111640,note_on,1,0,1,,,,,,,,,0,,,74,0
111679,note_on,39,0,3,,,,,,,,,2,,,40,0
111679,note_on,39,0,1,,,,,,,,,0,,,73,0
111680,note_on,1,0,3,,,,,,,,,2,,,42,101
111680,note_on,1,0,1,,,,,,,,,0,,,74,114
111720,note_on,40,0,3,,,,,,,,,2,,,42,0
111720,note_on,0,0,3,,,,,,,,,2,,,38,101
111720,note_on,40,0,1,,,,,,,,,0,,,74,0
111720,note_on,0,0,1,,,,,,,,,0,,,77,114
111759,note_on,39,0,3,,,,,,,,,2,,,37,101
111759,note_on,39,0,1,,,,,,,,,0,,,76,114
111760,note_on,1,0,3,,,,,,,,,2,,,38,0
111760,note_on,1,0,1,,,,,,,,,0,,,77,0
111799,note_on,39,0,1,,,,,,,,,0,,,76,0
111799,note_on,39,0,3,,,,,,,,,2,,,37,0
111800,control_change,1,0,1,,,,,,,,,0,64,0,,
111800,note_on,0,0,3,,,,,,,,,2,,,38,101
111800,note_on,0,0,1,,,,,,,,,0,,,77,114
111800,control_change,1,0,3,,,,,,,,,2,64,0,,
111840,note_on,40,0,3,,,,,,,,,2,,,38,0
111840,note_on,0,0,3,,,,,,,,,2,,,35,101
111840,note_on,0,0,1,,,,,,,,,0,,,80,114
111840,note_on,40,0,1,,,,,,,,,0,,,77,0
111960,control_change,0,0,1,,,,,,,,,0,64,127,,
111960,note_on,0,0,1,,,,,,,,,0,,,74,114
111960,note_on,0,0,1,,,,,,,,,0,,,77,114
111960,note_on,0,0,1,,,,,,,,,0,,,80,114
111960,note_on,0,0,1,,,,,,,,,0,,,86,114
111960,note_on,0,0,3,,,,,,,,,2,,,34,101
111960,control_change,0,0,3,,,,,,,,,2,64,127,,
111960,note_on,120,0,3,,,,,,,,,2,,,35,0
111960,note_on,0,0,1,,,,,,,,,0,,,82,114
111960,note_on,120,0,1,,,,,,,,,0,,,80,0
111999,note_on,39,0,3,,,,,,,,,2,,,33,101
112000,note_on,1,0,3,,,,,,,,,2,,,34,0
112039,note_on,39,0,3,,,,,,,,,2,,,33,0
112040,note_on,1,0,3,,,,,,,,,2,,,34,101
112080,note_on,0,0,1,,,,,,,,,0,,,80,0
112080,note_on,0,0,1,,,,,,,,,0,,,77,0
112080,note_on,0,0,1,,,,,,,,,0,,,82,0
112080,note_on,0,0,1,,,,,,,,,0,,,74,114
112080,note_on,0,0,1,,,,,,,,,0,,,77,114
112080,note_on,0,0,1,,,,,,,,,0,,,80,114
112080,note_on,0,0,1,,,,,,,,,0,,,82,114
112080,note_on,0,0,1,,,,,,,,,0,,,86,114
112080,note_on,40,0,3,,,,,,,,,2,,,34,0
112080,note_on,0,0,3,,,,,,,,,2,,,34,101
112080,note_on,120,0,1,,,,,,,,,0,,,86,0
112080,note_on,0,0,1,,,,,,,,,0,,,74,0
112119,note_on,39,0,3,,,,,,,,,2,,,33,101
112120,note_on,1,0,3,,,,,,,,,2,,,34,0
112159,note_on,39,0,3,,,,,,,,,2,,,33,0
112160,note_on,1,0,3,,,,,,,,,2,,,34,101
112200,note_on,0,0,1,,,,,,,,,0,,,74,0
112200,note_on,0,0,1,,,,,,,,,0,,,77,0
112200,note_on,0,0,1,,,,,,,,,0,,,82,0
112200,note_on,0,0,1,,,,,,,,,0,,,74,114
112200,note_on,0,0,1,,,,,,,,,0,,,77,114
112200,note_on,0,0,1,,,,,,,,,0,,,80,114
112200,note_on,0,0,1,,,,,,,,,0,,,82,114
112200,note_on,0,0,1,,,,,,,,,0,,,86,114
112200,control_change,0,0,1,,,,,,,,,0,64,0,,
112200,note_on,0,0,1,,,,,,,,,0,,,80,0
112200,note_on,120,0,1,,,,,,,,,0,,,86,0
112200,note_on,40,0,3,,,,,,,,,2,,,34,0
112200,note_on,0,0,3,,,,,,,,,2,,,34,101
112239,note_on,39,0,3,,,,,,,,,2,,,33,101
112240,note_on,1,0,3,,,,,,,,,2,,,34,0
112279,note_on,39,0,3,,,,,,,,,2,,,33,0
112280,control_change,1,0,3,,,,,,,,,2,64,0,,
112280,note_on,0,0,3,,,,,,,,,2,,,34,101
112320,note_on,40,0,3,,,,,,,,,2,,,34,0
112320,note_on,0,0,3,,,,,,,,,2,,,39,101
112320,note_on,120,0,1,,,,,,,,,0,,,86,0
112320,note_on,0,0,1,,,,,,,,,0,,,80,0
112320,note_on,0,0,1,,,,,,,,,0,,,74,0
112320,note_on,0,0,1,,,,,,,,,0,,,77,0
112320,note_on,0,0,1,,,,,,,,,0,,,82,0
112320,note_on,0,0,1,,,,,,,,,0,,,75,114
112320,note_on,0,0,1,,,,,,,,,0,,,78,114
112320,note_on,0,0,1,,,,,,,,,0,,,82,114
112320,note_on,0,0,1,,,,,,,,,0,,,87,114
112440,note_on,120,0,1,,,,,,,,,0,,,87,0
112440,note_on,0,0,1,,,,,,,,,0,,,75,0
112440,note_on,0,0,3,,,,,,,,,2,,,45,75
112440,note_on,0,0,1,,,,,,,,,0,,,78,0
112440,note_on,0,0,1,,,,,,,,,0,,,82,0
112440,note_on,0,0,1,,,,,,,,,0,,,66,88
112440,note_on,0,0,1,,,,,,,,,0,,,69,88
112440,note_on,0,0,1,,,,,,,,,0,,,71,88
112440,note_on,0,0,1,,,,,,,,,0,,,75,88
112440,note_on,120,0,3,,,,,,,,,2,,,39,0
112452,note_on,12,0,1,,,,,,,,,0,,,75,0
112452,note_on,0,0,1,,,,,,,,,0,,,69,0
112452,note_on,0,0,1,,,,,,,,,0,,,71,0
112452,note_on,0,0,1,,,,,,,,,0,,,66,0
112479,note_on,39,0,3,,,,,,,,,2,,,47,75
112480,note_on,1,0,3,,,,,,,,,2,,,45,0
112519,note_on,39,0,3,,,,,,,,,2,,,47,0
112520,note_on,1,0,3,,,,,,,,,2,,,45,75
112560,note_on,0,0,3,,,,,,,,,2,,,43,62
112560,note_on,40,0,3,,,,,,,,,2,,,45,0
112560,note_on,108,0,1,,,,,,,,,0,,,66,75
112560,note_on,0,0,1,,,,,,,,,0,,,69,75
112560,note_on,0,0,1,,,,,,,,,0,,,75,75
112560,note_on,0,0,1,,,,,,,,,0,,,71,75
112572,note_on,0,0,1,,,,,,,,,0,,,66,0
112572,note_on,0,0,1,,,,,,,,,0,,,71,0
112572,note_on,0,0,1,,,,,,,,,0,,,69,0
112572,note_on,12,0,1,,,,,,,,,0,,,75,0
112599,note_on,39,0,3,,,,,,,,,2,,,45,62
112600,note_on,1,0,3,,,,,,,,,2,,,43,0
112639,note_on,39,0,3,,,,,,,,,2,,,45,0
112640,note_on,1,0,3,,,,,,,,,2,,,43,62
112680,note_on,0,0,3,,,,,,,,,2,,,42,49
112680,note_on,0,0,1,,,,,,,,,0,,,69,62
112680,note_on,0,0,1,,,,,,,,,0,,,71,62
112680,note_on,0,0,1,,,,,,,,,0,,,75,62
112680,note_on,108,0,1,,,,,,,,,0,,,66,62
112680,note_on,40,0,3,,,,,,,,,2,,,43,0
112692,note_on,12,0,1,,,,,,,,,0,,,75,0
112692,note_on,0,0,1,,,,,,,,,0,,,66,0
112692,note_on,0,0,1,,,,,,,,,0,,,71,0
112692,note_on,0,0,1,,,,,,,,,0,,,69,0
112719,note_on,39,0,3,,,,,,,,,2,,,43,49
112720,note_on,1,0,3,,,,,,,,,2,,,42,0
112759,note_on,39,0,3,,,,,,,,,2,,,43,0
112760,note_on,1,0,3,,,,,,,,,2,,,42,49
112800,note_on,0,0,1,,,,,,,,,0,,,76,49
112800,note_on,40,0,3,,,,,,,,,2,,,42,0
112800,note_on,0,0,3,,,,,,,,,2,,,40,36
112800,note_on,0,0,1,,,,,,,,,0,,,71,49
112800,note_on,108,0,1,,,,,,,,,0,,,67,49
112920,control_change,0,0,1,,,,,,,,,0,64,127,,
112920,note_on,0,0,1,,,,,,,,,0,,,88,114
112920,note_on,0,0,1,,,,,,,,,0,,,84,114
112920,note_on,0,0,1,,,,,,,,,0,,,79,114
112920,note_on,0,0,1,,,,,,,,,0,,,76,114
112920,note_on,0,0,1,,,,,,,,,0,,,82,114
112920,note_on,0,0,1,,,,,,,,,0,,,71,0
112920,note_on,0,0,1,,,,,,,,,0,,,67,0
112920,note_on,0,0,3,,,,,,,,,2,,,36,101
112920,note_on,120,0,1,,,,,,,,,0,,,76,0
112920,note_on,120,0,3,,,,,,,,,2,,,40,0
112920,control_change,0,0,3,,,,,,,,,2,64,127,,
112959,note_on,39,0,3,,,,,,,,,2,,,35,101
112960,note_on,1,0,3,,,,,,,,,2,,,36,0
112999,note_on,39,0,3,,,,,,,,,2,,,35,0
113000,note_on,1,0,3,,,,,,,,,2,,,36,101
113040,note_on,0,0,1,,,,,,,,,0,,,79,101
113040,note_on,0,0,1,,,,,,,,,0,,,76,101
113040,note_on,0,0,1,,,,,,,,,0,,,84,0
113040,note_on,0,0,1,,,,,,,,,0,,,79,0
113040,note_on,0,0,1,,,,,,,,,0,,,84,101
113040,note_on,0,0,1,,,,,,,,,0,,,88,101
113040,note_on,120,0,1,,,,,,,,,0,,,88,0
113040,note_on,0,0,1,,,,,,,,,0,,,82,101
113040,note_on,0,0,1,,,,,,,,,0,,,82,0
113040,note_on,0,0,1,,,,,,,,,0,,,76,0
113040,note_on,40,0,3,,,,,,,,,2,,,36,0
113040,note_on,0,0,3,,,,,,,,,2,,,36,88
113079,note_on,39,0,3,,,,,,,,,2,,,35,88
113080,note_on,1,0,3,,,,,,,,,2,,,36,0
113119,note_on,39,0,3,,,,,,,,,2,,,35,0
113120,note_on,1,0,3,,,,,,,,,2,,,36,88
113160,note_on,0,0,1,,,,,,,,,0,,,88,88
113160,note_on,0,0,1,,,,,,,,,0,,,84,88
113160,note_on,0,0,1,,,,,,,,,0,,,82,88
113160,note_on,0,0,1,,,,,,,,,0,,,79,88
113160,note_on,0,0,1,,,,,,,,,0,,,76,88
113160,note_on,0,0,1,,,,,,,,,0,,,84,0
113160,note_on,120,0,1,,,,,,,,,0,,,88,0
113160,note_on,0,0,1,,,,,,,,,0,,,76,0
113160,note_on,0,0,1,,,,,,,,,0,,,82,0
113160,control_change,0,0,1,,,,,,,,,0,64,0,,
113160,note_on,0,0,3,,,,,,,,,2,,,36,75
113160,note_on,40,0,3,,,,,,,,,2,,,36,0
113160,note_on,0,0,1,,,,,,,,,0,,,79,0
113199,note_on,39,0,3,,,,,,,,,2,,,35,75
113200,note_on,1,0,3,,,,,,,,,2,,,36,0
113239,note_on,39,0,3,,,,,,,,,2,,,35,0
113240,control_change,1,0,3,,,,,,,,,2,64,0,,
113240,note_on,0,0,3,,,,,,,,,2,,,36,75
113280,note_on,0,0,1,,,,,,,,,0,,,76,0
113280,note_on,40,0,3,,,,,,,,,2,,,36,0
113280,note_on,0,0,3,,,,,,,,,2,,,29,62
113280,note_on,0,0,1,,,,,,,,,0,,,84,0
113280,note_on,0,0,1,,,,,,,,,0,,,79,0
113280,note_on,0,0,1,,,,,,,,,0,,,84,75
113280,note_on,0,0,1,,,,,,,,,0,,,80,75
113280,note_on,0,0,1,,,,,,,,,0,,,77,75
113280,note_on,120,0,1,,,,,,,,,0,,,88,0
113280,note_on,0,0,1,,,,,,,,,0,,,82,0
113280,note_on,0,0,1,,,,,,,,,0,,,89,75
113400,note_on,120,0,1,,,,,,,,,0,,,89,0
113400,note_on,0,0,1,,,,,,,,,0,,,77,0
113400,note_on,0,0,1,,,,,,,,,0,,,80,0
113400,note_on,0,0,1,,,,,,,,,0,,,84,0
113400,note_on,0,0,1,,,,,,,,,0,,,71,114
113400,note_on,0,0,1,,,,,,,,,0,,,73,114
113400,note_on,0,0,1,,,,,,,,,0,,,77,114
113400,note_on,0,0,3,,,,,,,,,2,,,47,101
113400,note_on,120,0,3,,,,,,,,,2,,,29,0
113400,note_on,0,0,1,,,,,,,,,0,,,68,114
113412,note_on,0,0,1,,,,,,,,,0,,,71,0
113412,note_on,0,0,1,,,,,,,,,0,,,68,0
113412,note_on,0,0,1,,,,,,,,,0,,,73,0
113412,note_on,12,0,1,,,,,,,,,0,,,77,0
113439,note_on,39,0,3,,,,,,,,,2,,,49,101
113440,note_on,1,0,3,,,,,,,,,2,,,47,0
113479,note_on,39,0,3,,,,,,,,,2,,,49,0
113480,note_on,1,0,3,,,,,,,,,2,,,47,101
113520,note_on,108,0,1,,,,,,,,,0,,,68,101
113520,note_on,0,0,1,,,,,,,,,0,,,71,101
113520,note_on,0,0,1,,,,,,,,,0,,,73,101
113520,note_on,0,0,1,,,,,,,,,0,,,77,101
113520,note_on,40,0,3,,,,,,,,,2,,,47,0
113520,note_on,0,0,3,,,,,,,,,2,,,45,88
113532,note_on,0,0,1,,,,,,,,,0,,,68,0
113532,note_on,0,0,1,,,,,,,,,0,,,73,0
113532,note_on,0,0,1,,,,,,,,,0,,,71,0
113532,note_on,12,0,1,,,,,,,,,0,,,77,0
113559,note_on,39,0,3,,,,,,,,,2,,,47,88
113560,note_on,1,0,3,,,,,,,,,2,,,45,0
113599,note_on,39,0,3,,,,,,,,,2,,,47,0
113600,note_on,1,0,3,,,,,,,,,2,,,45,88
113640,note_on,0,0,1,,,,,,,,,0,,,71,88
113640,note_on,40,0,3,,,,,,,,,2,,,45,0
113640,note_on,0,0,3,,,,,,,,,2,,,44,75
113640,note_on,0,0,1,,,,,,,,,0,,,73,88
113640,note_on,108,0,1,,,,,,,,,0,,,68,88
113640,note_on,0,0,1,,,,,,,,,0,,,77,88
113652,note_on,0,0,1,,,,,,,,,0,,,71,0
113652,note_on,12,0,1,,,,,,,,,0,,,77,0
113652,note_on,0,0,1,,,,,,,,,0,,,73,0
113652,note_on,0,0,1,,,,,,,,,0,,,68,0
113679,note_on,39,0,3,,,,,,,,,2,,,45,75
113680,note_on,1,0,3,,,,,,,,,2,,,44,0
113719,note_on,39,0,3,,,,,,,,,2,,,45,0
113720,note_on,1,0,3,,,,,,,,,2,,,44,75
113760,note_on,0,0,3,,,,,,,,,2,,,42,62
113760,note_on,0,0,1,,,,,,,,,0,,,78,101
113760,note_on,40,0,3,,,,,,,,,2,,,44,0
113760,control_change,108,0,1,,,,,,,,,0,64,127,,
113760,note_on,0,0,1,,,,,,,,,0,,,74,96
113760,note_on,0,0,3,,,,,,,,,2,,,50,62
113760,note_on,0,0,1,,,,,,,,,0,,,69,91
113760,note_on,0,0,3,,,,,,,,,2,,,45,62
113880,note_on,0,0,1,,,,,,,,,0,,,69,0
113880,note_on,0,0,1,,,,,,,,,0,,,74,49
113880,note_on,0,0,1,,,,,,,,,0,,,74,0
113880,note_on,120,0,1,,,,,,,,,0,,,78,0
113919,note_on,39,0,1,,,,,,,,,0,,,73,49
113920,note_on,1,0,1,,,,,,,,,0,,,74,0
113959,note_on,39,0,1,,,,,,,,,0,,,73,0
113960,note_on,1,0,1,,,,,,,,,0,,,74,49
114000,note_on,40,0,1,,,,,,,,,0,,,74,0
114000,note_on,0,0,1,,,,,,,,,0,,,78,49
114039,note_on,39,0,1,,,,,,,,,0,,,76,49
114040,note_on,1,0,1,,,,,,,,,0,,,78,0
114079,note_on,39,0,1,,,,,,,,,0,,,76,0
114080,note_on,1,0,1,,,,,,,,,0,,,74,49
114120,note_on,40,0,1,,,,,,,,,0,,,74,0
114120,note_on,0,0,1,,,,,,,,,0,,,81,49
114159,note_on,39,0,1,,,,,,,,,0,,,79,49
114160,note_on,1,0,1,,,,,,,,,0,,,81,0
114199,note_on,39,0,1,,,,,,,,,0,,,79,0
114200,note_on,1,0,1,,,,,,,,,0,,,78,49
114240,note_on,40,0,1,,,,,,,,,0,,,78,0
114240,note_on,0,0,1,,,,,,,,,0,,,76,49
114279,note_on,39,0,1,,,,,,,,,0,,,74,49
114280,note_on,1,0,1,,,,,,,,,0,,,76,0
114319,note_on,39,0,1,,,,,,,,,0,,,74,0
114320,note_on,1,0,1,,,,,,,,,0,,,73,49
114360,note_on,40,0,1,,,,,,,,,0,,,73,0
114360,note_on,0,0,1,,,,,,,,,0,,,74,49
114399,note_on,39,0,1,,,,,,,,,0,,,73,49
114400,note_on,1,0,1,,,,,,,,,0,,,74,0
114439,note_on,39,0,1,,,,,,,,,0,,,73,0
114440,note_on,1,0,1,,,,,,,,,0,,,71,49
114480,note_on,0,0,1,,,,,,,,,0,,,69,49
114480,note_on,40,0,1,,,,,,,,,0,,,71,0
114519,note_on,39,0,1,,,,,,,,,0,,,67,49
114520,note_on,1,0,1,,,,,,,,,0,,,69,0
114559,note_on,39,0,1,,,,,,,,,0,,,67,0
114560,note_on,1,0,1,,,,,,,,,0,,,66,49
114600,note_on,40,0,1,,,,,,,,,0,,,66,0
114600,note_on,0,0,1,,,,,,,,,0,,,64,49
114639,note_on,39,0,1,,,,,,,,,0,,,62,49
114640,note_on,1,0,1,,,,,,,,,0,,,64,0
114679,note_on,39,0,1,,,,,,,,,0,,,62,0
114680,note_on,0,0,1,,,,,,,,,0,,,66,49
114680,control_change,1,0,1,,,,,,,,,0,64,0,,
114720,note_on,0,0,1,,,,,,,,,0,,,64,49
114720,control_change,0,0,1,,,,,,,,,0,64,127,,
114720,note_on,40,0,1,,,,,,,,,0,,,66,0
114720,note_on,0,0,3,,,,,,,,,2,,,45,0
114720,note_on,0,0,3,,,,,,,,,2,,,52,36
114720,note_on,0,0,3,,,,,,,,,2,,,50,36
114720,note_on,0,0,3,,,,,,,,,2,,,47,36
114720,note_on,0,0,3,,,,,,,,,2,,,43,36
114720,note_on,0,0,3,,,,,,,,,2,,,42,0
114720,note_on,960,0,3,,,,,,,,,2,,,50,0
114780,note_on,60,0,1,,,,,,,,,0,,,64,0
114840,note_on,60,0,1,,,,,,,,,0,,,76,49
114879,note_on,39,0,1,,,,,,,,,0,,,75,49
114880,note_on,1,0,1,,,,,,,,,0,,,76,0
114919,note_on,39,0,1,,,,,,,,,0,,,75,0
114920,note_on,1,0,1,,,,,,,,,0,,,76,49
114960,note_on,40,0,1,,,,,,,,,0,,,76,0
114960,note_on,0,0,1,,,,,,,,,0,,,79,49
114999,note_on,39,0,1,,,,,,,,,0,,,78,49
115000,note_on,1,0,1,,,,,,,,,0,,,79,0
115039,note_on,39,0,1,,,,,,,,,0,,,78,0
115040,note_on,1,0,1,,,,,,,,,0,,,76,49
115080,note_on,0,0,1,,,,,,,,,0,,,83,49
115080,note_on,40,0,1,,,,,,,,,0,,,76,0
115119,note_on,39,0,1,,,,,,,,,0,,,81,49
115120,note_on,1,0,1,,,,,,,,,0,,,83,0
115159,note_on,39,0,1,,,,,,,,,0,,,81,0
115160,note_on,1,0,1,,,,,,,,,0,,,79,49
115200,note_on,40,0,1,,,,,,,,,0,,,79,0
115200,note_on,0,0,1,,,,,,,,,0,,,78,49
115239,note_on,39,0,1,,,,,,,,,0,,,76,49
115240,note_on,1,0,1,,,,,,,,,0,,,78,0
115279,note_on,39,0,1,,,,,,,,,0,,,76,0
115280,note_on,1,0,1,,,,,,,,,0,,,75,49
115320,note_on,0,0,1,,,,,,,,,0,,,76,49
115320,note_on,40,0,1,,,,,,,,,0,,,75,0
115359,note_on,39,0,1,,,,,,,,,0,,,74,49
115360,note_on,1,0,1,,,,,,,,,0,,,76,0
115399,note_on,39,0,1,,,,,,,,,0,,,74,0
115400,note_on,1,0,1,,,,,,,,,0,,,73,49
115440,note_on,40,0,1,,,,,,,,,0,,,73,0
115440,note_on,0,0,1,,,,,,,,,0,,,71,49
115479,note_on,39,0,1,,,,,,,,,0,,,69,49
115480,note_on,1,0,1,,,,,,,,,0,,,71,0
115519,note_on,39,0,1,,,,,,,,,0,,,69,0
115520,note_on,1,0,1,,,,,,,,,0,,,67,49
115560,note_on,40,0,1,,,,,,,,,0,,,67,0
115560,note_on,0,0,1,,,,,,,,,0,,,66,49
115599,note_on,39,0,1,,,,,,,,,0,,,64,49
115600,note_on,1,0,1,,,,,,,,,0,,,66,0
115639,note_on,39,0,1,,,,,,,,,0,,,64,0
115640,control_change,1,0,1,,,,,,,,,0,64,0,,
115640,note_on,0,0,1,,,,,,,,,0,,,67,49
115680,note_on,0,0,3,,,,,,,,,2,,,50,36
115680,note_on,0,0,3,,,,,,,,,2,,,48,36
115680,note_on,0,0,3,,,,,,,,,2,,,45,36
115680,note_on,0,0,3,,,,,,,,,2,,,50,0
115680,note_on,0,0,3,,,,,,,,,2,,,47,0
115680,note_on,0,0,3,,,,,,,,,2,,,43,0
115680,note_on,960,0,3,,,,,,,,,2,,,52,0
115680,note_on,0,0,1,,,,,,,,,0,,,66,49
115680,note_on,0,0,3,,,,,,,,,2,,,54,36
115680,control_change,0,0,1,,,,,,,,,0,64,127,,
115680,note_on,40,0,1,,,,,,,,,0,,,67,0
115740,note_on,60,0,1,,,,,,,,,0,,,66,0
115800,note_on,60,0,1,,,,,,,,,0,,,78,49
115839,note_on,39,0,1,,,,,,,,,0,,,77,49
115840,note_on,1,0,1,,,,,,,,,0,,,78,0
115879,note_on,39,0,1,,,,,,,,,0,,,77,0
115880,note_on,1,0,1,,,,,,,,,0,,,78,49
115920,note_on,40,0,1,,,,,,,,,0,,,78,0
115920,note_on,0,0,1,,,,,,,,,0,,,81,49
115959,note_on,39,0,1,,,,,,,,,0,,,79,49
115960,note_on,1,0,1,,,,,,,,,0,,,81,0
115999,note_on,39,0,1,,,,,,,,,0,,,79,0
116000,note_on,1,0,1,,,,,,,,,0,,,78,49
116040,note_on,40,0,1,,,,,,,,,0,,,78,0
116040,note_on,0,0,1,,,,,,,,,0,,,84,49
116079,note_on,39,0,1,,,,,,,,,0,,,83,49
116080,note_on,1,0,1,,,,,,,,,0,,,84,0
116119,note_on,39,0,1,,,,,,,,,0,,,83,0
116120,note_on,1,0,1,,,,,,,,,0,,,81,49
116160,note_on,40,0,1,,,,,,,,,0,,,81,0
116160,note_on,0,0,1,,,,,,,,,0,,,79,49
116199,note_on,39,0,1,,,,,,,,,0,,,78,49
116200,note_on,1,0,1,,,,,,,,,0,,,79,0
116239,note_on,39,0,1,,,,,,,,,0,,,78,0
116240,note_on,1,0,1,,,,,,,,,0,,,76,49
116280,note_on,40,0,1,,,,,,,,,0,,,76,0
116280,note_on,0,0,1,,,,,,,,,0,,,78,49
116319,note_on,39,0,1,,,,,,,,,0,,,76,49
116320,note_on,1,0,1,,,,,,,,,0,,,78,0
116359,note_on,39,0,1,,,,,,,,,0,,,76,0
116360,note_on,1,0,1,,,,,,,,,0,,,74,49
116400,note_on,40,0,1,,,,,,,,,0,,,74,0
116400,note_on,0,0,1,,,,,,,,,0,,,72,49
116439,note_on,39,0,1,,,,,,,,,0,,,71,49
116440,note_on,1,0,1,,,,,,,,,0,,,72,0
116479,note_on,39,0,1,,,,,,,,,0,,,71,0
116480,note_on,1,0,1,,,,,,,,,0,,,69,49
116520,note_on,40,0,1,,,,,,,,,0,,,69,0
116520,note_on,0,0,1,,,,,,,,,0,,,67,49
116559,note_on,39,0,1,,,,,,,,,0,,,66,49
116560,note_on,1,0,1,,,,,,,,,0,,,67,0
116599,note_on,39,0,1,,,,,,,,,0,,,66,0
116600,control_change,1,0,1,,,,,,,,,0,64,0,,
116600,note_on,0,0,1,,,,,,,,,0,,,69,49
116640,note_on,40,0,1,,,,,,,,,0,,,69,0
116640,control_change,0,0,1,,,,,,,,,0,64,127,,
116640,note_on,960,0,3,,,,,,,,,2,,,54,0
116640,note_on,0,0,1,,,,,,,,,0,,,67,49
116640,note_on,0,0,3,,,,,,,,,2,,,48,0
116640,note_on,0,0,3,,,,,,,,,2,,,50,0
116640,note_on,0,0,3,,,,,,,,,2,,,47,36
116640,note_on,0,0,3,,,,,,,,,2,,,50,36
116640,note_on,0,0,3,,,,,,,,,2,,,55,36
116640,note_on,0,0,3,,,,,,,,,2,,,45,0
116679,note_on,39,0,1,,,,,,,,,0,,,66,49
116680,note_on,1,0,1,,,,,,,,,0,,,67,0
116719,note_on,39,0,1,,,,,,,,,0,,,66,0
116720,note_on,1,0,1,,,,,,,,,0,,,67,49
116760,note_on,40,0,1,,,,,,,,,0,,,67,0
116760,note_on,0,0,1,,,,,,,,,0,,,71,49
116799,note_on,39,0,1,,,,,,,,,0,,,70,49
116800,note_on,1,0,1,,,,,,,,,0,,,71,0
116839,note_on,39,0,1,,,,,,,,,0,,,70,0
116840,note_on,1,0,1,,,,,,,,,0,,,71,49
116880,note_on,0,0,1,,,,,,,,,0,,,74,49
116880,note_on,40,0,1,,,,,,,,,0,,,71,0
116919,note_on,39,0,1,,,,,,,,,0,,,73,49
116920,note_on,1,0,1,,,,,,,,,0,,,74,0
116959,note_on,39,0,1,,,,,,,,,0,,,73,0
116960,note_on,1,0,1,,,,,,,,,0,,,74,49
117000,note_on,40,0,1,,,,,,,,,0,,,74,0
117000,note_on,0,0,1,,,,,,,,,0,,,79,49
117039,note_on,39,0,1,,,,,,,,,0,,,78,49
117040,note_on,1,0,1,,,,,,,,,0,,,79,0
117079,note_on,39,0,1,,,,,,,,,0,,,78,0
117080,note_on,1,0,1,,,,,,,,,0,,,79,49
117120,note_on,0,0,1,,,,,,,,,0,,,83,49
117120,note_on,40,0,1,,,,,,,,,0,,,79,0
117159,note_on,39,0,1,,,,,,,,,0,,,82,49
117160,note_on,1,0,1,,,,,,,,,0,,,83,0
117199,note_on,39,0,1,,,,,,,,,0,,,82,0
117200,note_on,1,0,1,,,,,,,,,0,,,83,49
117240,note_on,40,0,1,,,,,,,,,0,,,83,0
117240,note_on,0,0,1,,,,,,,,,0,,,86,49
117279,note_on,39,0,1,,,,,,,,,0,,,85,49
117280,note_on,1,0,1,,,,,,,,,0,,,86,0
117319,note_on,39,0,1,,,,,,,,,0,,,85,0
117320,note_on,1,0,1,,,,,,,,,0,,,86,49
117360,control_change,0,0,1,,,,,,,,,0,64,0,,
117360,note_on,40,0,1,,,,,,,,,0,,,86,0
117360,note_on,0,0,1,,,,,,,,,0,,,89,49
117360,note_on,0,0,3,,,,,,,,,2,,,50,0
117360,note_on,0,0,3,,,,,,,,,2,,,47,0
117360,note_on,0,0,3,,,,,,,,,2,,,46,36
117360,note_on,0,0,3,,,,,,,,,2,,,50,36
117360,note_on,0,0,3,,,,,,,,,2,,,56,36
117360,note_on,720,0,3,,,,,,,,,2,,,55,0
117399,note_on,39,0,1,,,,,,,,,0,,,88,49
117400,note_on,1,0,1,,,,,,,,,0,,,89,0
117439,note_on,39,0,1,,,,,,,,,0,,,88,0
117440,note_on,1,0,1,,,,,,,,,0,,,89,49
117480,note_on,0,0,1,,,,,,,,,0,,,80,49
117480,note_on,40,0,1,,,,,,,,,0,,,89,0
117519,note_on,39,0,1,,,,,,,,,0,,,79,49
117520,note_on,1,0,1,,,,,,,,,0,,,80,0
117559,note_on,39,0,1,,,,,,,,,0,,,79,0
117560,note_on,1,0,1,,,,,,,,,0,,,80,49
117600,control_change,0,0,1,,,,,,,,,0,64,127,,
117600,note_on,0,0,3,,,,,,,,,2,,,45,36
117600,note_on,0,0,3,,,,,,,,,2,,,46,0
117600,note_on,0,0,3,,,,,,,,,2,,,50,0
117600,note_on,240,0,3,,,,,,,,,2,,,56,0
117600,note_on,0,0,1,,,,,,,,,0,,,81,36
117600,note_on,0,0,3,,,,,,,,,2,,,49,36
117600,note_on,0,0,3,,,,,,,,,2,,,57,36
117600,note_on,40,0,1,,,,,,,,,0,,,80,0
117639,note_on,39,0,1,,,,,,,,,0,,,80,36
117640,note_on,1,0,1,,,,,,,,,0,,,81,0
117679,note_on,39,0,1,,,,,,,,,0,,,80,0
117680,note_on,1,0,1,,,,,,,,,0,,,81,36
117720,note_on,40,0,1,,,,,,,,,0,,,81,0
117720,note_on,0,0,1,,,,,,,,,0,,,85,36
117720,note_on,120,0,3,,,,,,,,,2,,,57,0
117720,note_on,0,0,3,,,,,,,,,2,,,49,0
117720,note_on,0,0,3,,,,,,,,,2,,,45,0
117759,note_on,39,0,1,,,,,,,,,0,,,83,36
117760,note_on,1,0,1,,,,,,,,,0,,,85,0
117799,note_on,39,0,1,,,,,,,,,0,,,83,0
117800,note_on,1,0,1,,,,,,,,,0,,,81,36
117840,note_on,0,0,1,,,,,,,,,0,,,83,36
117840,control_change,0,0,1,,,,,,,,,0,64,0,,
117840,note_on,40,0,1,,,,,,,,,0,,,81,0
117840,note_on,120,0,3,,,,,,,,,2,,,62,36
117840,note_on,0,0,3,,,,,,,,,2,,,64,36
117846,note_on,0,0,3,,,,,,,,,2,,,62,0
117846,note_on,6,0,3,,,,,,,,,2,,,64,0
117879,note_on,39,0,1,,,,,,,,,0,,,81,36
117880,note_on,1,0,1,,,,,,,,,0,,,83,0
117900,note_on,54,0,3,,,,,,,,,2,,,62,36
117900,note_on,0,0,3,,,,,,,,,2,,,64,36
117906,note_on,6,0,3,,,,,,,,,2,,,64,0
117906,note_on,0,0,3,,,,,,,,,2,,,62,0
117919,note_on,39,0,1,,,,,,,,,0,,,81,0
117920,note_on,1,0,1,,,,,,,,,0,,,80,36
117960,note_on,40,0,1,,,,,,,,,0,,,80,0
117960,note_on,54,0,3,,,,,,,,,2,,,59,36
117960,note_on,0,0,1,,,,,,,,,0,,,86,36
117960,note_on,0,0,3,,,,,,,,,2,,,64,36
117966,note_on,6,0,3,,,,,,,,,2,,,64,0
117966,note_on,0,0,3,,,,,,,,,2,,,59,0
117999,note_on,39,0,1,,,,,,,,,0,,,85,36
118000,note_on,1,0,1,,,,,,,,,0,,,86,0
118020,note_on,54,0,3,,,,,,,,,2,,,59,36
118020,note_on,0,0,3,,,,,,,,,2,,,64,36
118026,note_on,0,0,3,,,,,,,,,2,,,59,0
118026,note_on,6,0,3,,,,,,,,,2,,,64,0
118039,note_on,39,0,1,,,,,,,,,0,,,85,0
118040,note_on,1,0,1,,,,,,,,,0,,,83,36
118080,note_on,54,0,3,,,,,,,,,2,,,61,36
118080,note_on,40,0,1,,,,,,,,,0,,,83,0
118080,control_change,0,0,1,,,,,,,,,0,64,127,,
118080,note_on,0,0,1,,,,,,,,,0,,,81,36
118080,note_on,0,0,3,,,,,,,,,2,,,64,36
118119,note_on,39,0,1,,,,,,,,,0,,,80,36
118120,note_on,1,0,1,,,,,,,,,0,,,81,0
118159,note_on,39,0,1,,,,,,,,,0,,,80,0
118160,note_on,1,0,1,,,,,,,,,0,,,78,36
118200,note_on,0,0,1,,,,,,,,,0,,,76,36
118200,note_on,0,0,3,,,,,,,,,2,,,57,36
118200,note_on,120,0,3,,,,,,,,,2,,,61,0
118200,note_on,40,0,1,,,,,,,,,0,,,78,0
118239,note_on,39,0,1,,,,,,,,,0,,,74,36
118240,note_on,1,0,1,,,,,,,,,0,,,76,0
118260,note_on,0,0,3,,,,,,,,,2,,,64,0
118260,note_on,60,0,3,,,,,,,,,2,,,57,0
118279,note_on,39,0,1,,,,,,,,,0,,,74,0
118280,note_on,1,0,1,,,,,,,,,0,,,73,36
118320,note_on,60,0,3,,,,,,,,,2,,,35,36
118320,note_on,40,0,1,,,,,,,,,0,,,73,0
118320,note_on,0,0,1,,,,,,,,,0,,,74,36
118320,control_change,0,0,1,,,,,,,,,0,64,0,,
118320,note_on,0,0,3,,,,,,,,,2,,,40,36
118326,note_on,6,0,3,,,,,,,,,2,,,40,0
118326,note_on,0,0,3,,,,,,,,,2,,,35,0
118359,note_on,39,0,1,,,,,,,,,0,,,73,36
118360,note_on,1,0,1,,,,,,,,,0,,,74,0
118380,note_on,54,0,3,,,,,,,,,2,,,35,36
118380,note_on,0,0,3,,,,,,,,,2,,,40,36
118386,note_on,6,0,3,,,,,,,,,2,,,40,0
118386,note_on,0,0,3,,,,,,,,,2,,,35,0
118399,note_on,39,0,1,,,,,,,,,0,,,73,0
118400,note_on,1,0,1,,,,,,,,,0,,,71,36
118440,note_on,54,0,3,,,,,,,,,2,,,32,36
118440,note_on,0,0,3,,,,,,,,,2,,,40,36
118440,note_on,40,0,1,,,,,,,,,0,,,71,0
118440,note_on,0,0,1,,,,,,,,,0,,,78,36
118446,note_on,0,0,3,,,,,,,,,2,,,32,0
118446,note_on,6,0,3,,,,,,,,,2,,,40,0
118479,note_on,39,0,1,,,,,,,,,0,,,76,36
118480,note_on,1,0,1,,,,,,,,,0,,,78,0
118500,note_on,0,0,3,,,,,,,,,2,,,40,36
118500,note_on,54,0,3,,,,,,,,,2,,,32,36
118506,note_on,6,0,3,,,,,,,,,2,,,40,0
118506,note_on,0,0,3,,,,,,,,,2,,,32,0
118519,note_on,39,0,1,,,,,,,,,0,,,76,0
118520,note_on,1,0,1,,,,,,,,,0,,,74,36
118560,control_change,0,0,1,,,,,,,,,0,64,127,,
118560,note_on,40,0,1,,,,,,,,,0,,,74,0
118560,note_on,0,0,1,,,,,,,,,0,,,73,36
118560,note_on,0,0,3,,,,,,,,,2,,,40,36
118560,note_on,54,0,3,,,,,,,,,2,,,33,36
118599,note_on,39,0,1,,,,,,,,,0,,,76,36
118600,note_on,1,0,1,,,,,,,,,0,,,73,0
118639,note_on,39,0,1,,,,,,,,,0,,,76,0
118640,note_on,1,0,1,,,,,,,,,0,,,81,36
118680,note_on,0,0,1,,,,,,,,,0,,,85,36
118680,note_on,0,0,3,,,,,,,,,2,,,33,0
118680,note_on,120,0,3,,,,,,,,,2,,,40,0
118680,note_on,0,0,3,,,,,,,,,2,,,45,36
118680,note_on,40,0,1,,,,,,,,,0,,,81,0
118719,note_on,39,0,1,,,,,,,,,0,,,83,36
118720,note_on,1,0,1,,,,,,,,,0,,,85,0
118740,note_on,60,0,3,,,,,,,,,2,,,45,0
118759,note_on,39,0,1,,,,,,,,,0,,,83,0
118760,note_on,1,0,1,,,,,,,,,0,,,81,36
118800,note_on,0,0,1,,,,,,,,,0,,,83,36
118800,note_on,40,0,1,,,,,,,,,0,,,81,0
118800,control_change,0,0,1,,,,,,,,,0,64,0,,
118800,note_on,0,0,3,,,,,,,,,2,,,64,36
118800,note_on,60,0,3,,,,,,,,,2,,,62,36
118806,note_on,6,0,3,,,,,,,,,2,,,64,0
118806,note_on,0,0,3,,,,,,,,,2,,,62,0
118839,note_on,39,0,1,,,,,,,,,0,,,81,36
118840,note_on,1,0,1,,,,,,,,,0,,,83,0
118860,note_on,0,0,3,,,,,,,,,2,,,64,36
118860,note_on,54,0,3,,,,,,,,,2,,,62,36
118866,note_on,0,0,3,,,,,,,,,2,,,62,0
118866,note_on,6,0,3,,,,,,,,,2,,,64,0
118879,note_on,39,0,1,,,,,,,,,0,,,81,0
118880,note_on,1,0,1,,,,,,,,,0,,,80,36
118920,note_on,54,0,3,,,,,,,,,2,,,59,36
118920,note_on,0,0,1,,,,,,,,,0,,,86,36
118920,note_on,0,0,3,,,,,,,,,2,,,64,36
118920,note_on,40,0,1,,,,,,,,,0,,,80,0
118926,note_on,6,0,3,,,,,,,,,2,,,64,0
118926,note_on,0,0,3,,,,,,,,,2,,,59,0
118959,note_on,39,0,1,,,,,,,,,0,,,85,36
118960,note_on,1,0,1,,,,,,,,,0,,,86,0
118980,note_on,54,0,3,,,,,,,,,2,,,59,36
118980,note_on,0,0,3,,,,,,,,,2,,,64,36
118986,note_on,0,0,3,,,,,,,,,2,,,59,0
118986,note_on,6,0,3,,,,,,,,,2,,,64,0
118999,note_on,39,0,1,,,,,,,,,0,,,85,0
119000,note_on,1,0,1,,,,,,,,,0,,,83,36
119040,note_on,0,0,1,,,,,,,,,0,,,81,36
119040,note_on,0,0,3,,,,,,,,,2,,,64,36
119040,note_on,54,0,3,,,,,,,,,2,,,61,36
119040,control_change,0,0,1,,,,,,,,,0,64,127,,
119040,note_on,40,0,1,,,,,,,,,0,,,83,0
119079,note_on,39,0,1,,,,,,,,,0,,,80,36
119080,note_on,1,0,1,,,,,,,,,0,,,81,0
119119,note_on,39,0,1,,,,,,,,,0,,,80,0
119120,note_on,1,0,1,,,,,,,,,0,,,78,36
119160,note_on,0,0,3,,,,,,,,,2,,,57,36
119160,note_on,0,0,1,,,,,,,,,0,,,76,36
119160,note_on,40,0,1,,,,,,,,,0,,,78,0
119160,note_on,120,0,3,,,,,,,,,2,,,61,0
119199,note_on,39,0,1,,,,,,,,,0,,,74,36
119200,note_on,1,0,1,,,,,,,,,0,,,76,0
119220,note_on,0,0,3,,,,,,,,,2,,,64,0
119220,note_on,60,0,3,,,,,,,,,2,,,57,0
119239,note_on,39,0,1,,,,,,,,,0,,,74,0
119240,note_on,1,0,1,,,,,,,,,0,,,73,36
119280,note_on,60,0,3,,,,,,,,,2,,,35,36
119280,note_on,40,0,1,,,,,,,,,0,,,73,0
119280,note_on,0,0,1,,,,,,,,,0,,,74,36
119280,note_on,0,0,3,,,,,,,,,2,,,40,36
119280,control_change,0,0,1,,,,,,,,,0,64,0,,
119286,note_on,0,0,3,,,,,,,,,2,,,35,0
119286,note_on,6,0,3,,,,,,,,,2,,,40,0
119319,note_on,39,0,1,,,,,,,,,0,,,73,36
119320,note_on,1,0,1,,,,,,,,,0,,,74,0
119340,note_on,0,0,3,,,,,,,,,2,,,40,36
119340,note_on,54,0,3,,,,,,,,,2,,,35,36
119346,note_on,0,0,3,,,,,,,,,2,,,35,0
119346,note_on,6,0,3,,,,,,,,,2,,,40,0
119359,note_on,39,0,1,,,,,,,,,0,,,73,0
119360,note_on,1,0,1,,,,,,,,,0,,,71,36
119400,note_on,54,0,3,,,,,,,,,2,,,32,36
119400,note_on,0,0,3,,,,,,,,,2,,,40,36
119400,note_on,40,0,1,,,,,,,,,0,,,71,0
119400,note_on,0,0,1,,,,,,,,,0,,,78,36
119406,note_on,0,0,3,,,,,,,,,2,,,32,0
119406,note_on,6,0,3,,,,,,,,,2,,,40,0
119439,note_on,39,0,1,,,,,,,,,0,,,76,36
119440,note_on,1,0,1,,,,,,,,,0,,,78,0
119460,note_on,54,0,3,,,,,,,,,2,,,32,36
119460,note_on,0,0,3,,,,,,,,,2,,,40,36
119466,note_on,0,0,3,,,,,,,,,2,,,32,0
119466,note_on,6,0,3,,,,,,,,,2,,,40,0
119479,note_on,39,0,1,,,,,,,,,0,,,76,0
119480,note_on,1,0,1,,,,,,,,,0,,,74,36
119520,note_on,40,0,1,,,,,,,,,0,,,74,0
119520,control_change,0,0,1,,,,,,,,,0,64,127,,
119520,note_on,54,0,3,,,,,,,,,2,,,33,36
119520,note_on,0,0,3,,,,,,,,,2,,,40,36
119520,note_on,0,0,1,,,,,,,,,0,,,73,49
119559,note_on,39,0,1,,,,,,,,,0,,,71,49
119560,note_on,1,0,1,,,,,,,,,0,,,73,0
119599,note_on,39,0,1,,,,,,,,,0,,,71,0
119600,note_on,1,0,1,,,,,,,,,0,,,69,49
119640,note_on,0,0,3,,,,,,,,,2,,,45,36
119640,note_on,0,0,1,,,,,,,,,0,,,76,49
119640,note_on,40,0,1,,,,,,,,,0,,,69,0
119640,note_on,0,0,3,,,,,,,,,2,,,33,0
119640,note_on,120,0,3,,,,,,,,,2,,,40,0
119679,note_on,39,0,1,,,,,,,,,0,,,74,49
119680,note_on,1,0,1,,,,,,,,,0,,,76,0
119700,note_on,60,0,3,,,,,,,,,2,,,45,0
119719,note_on,39,0,1,,,,,,,,,0,,,74,0
119720,note_on,0,0,1,,,,,,,,,0,,,73,49
119720,control_change,1,0,1,,,,,,,,,0,64,0,,
119760,note_on,0,0,1,,,,,,,,,0,,,79,49
119760,note_on,0,0,3,,,,,,,,,2,,,61,36
119760,note_on,60,0,3,,,,,,,,,2,,,57,36
119760,note_on,40,0,1,,,,,,,,,0,,,73,0
119766,note_on,0,0,3,,,,,,,,,2,,,57,0
119766,note_on,6,0,3,,,,,,,,,2,,,61,0
119799,note_on,39,0,1,,,,,,,,,0,,,78,49
119800,note_on,1,0,1,,,,,,,,,0,,,79,0
119820,note_on,0,0,3,,,,,,,,,2,,,61,36
119820,note_on,54,0,3,,,,,,,,,2,,,57,36
119826,note_on,0,0,3,,,,,,,,,2,,,57,0
119826,note_on,6,0,3,,,,,,,,,2,,,61,0
119839,note_on,39,0,1,,,,,,,,,0,,,78,0
119840,note_on,1,0,1,,,,,,,,,0,,,76,49
119880,note_on,0,0,3,,,,,,,,,2,,,61,36
119880,note_on,54,0,3,,,,,,,,,2,,,57,36
119880,note_on,40,0,1,,,,,,,,,0,,,76,0
119880,note_on,0,0,1,,,,,,,,,0,,,83,49
119886,note_on,0,0,3,,,,,,,,,2,,,57,0
119886,note_on,6,0,3,,,,,,,,,2,,,61,0
119919,note_on,39,0,1,,,,,,,,,0,,,81,49
119920,note_on,1,0,1,,,,,,,,,0,,,83,0
119940,note_on,54,0,3,,,,,,,,,2,,,57,36
119940,note_on,0,0,3,,,,,,,,,2,,,61,36
119946,note_on,0,0,3,,,,,,,,,2,,,57,0
119946,note_on,6,0,3,,,,,,,,,2,,,61,0
119959,note_on,39,0,1,,,,,,,,,0,,,81,0
119960,note_on,1,0,1,,,,,,,,,0,,,79,49
120000,note_on,40,0,1,,,,,,,,,0,,,79,0
120000,note_on,54,0,3,,,,,,,,,2,,,57,49
120000,control_change,0,0,1,,,,,,,,,0,64,127,,
120000,note_on,0,0,3,,,,,,,,,2,,,61,49
120000,note_on,0,0,1,,,,,,,,,0,,,78,62
120039,note_on,39,0,1,,,,,,,,,0,,,76,62
120040,note_on,1,0,1,,,,,,,,,0,,,78,0
120079,note_on,39,0,1,,,,,,,,,0,,,76,0
120080,note_on,1,0,1,,,,,,,,,0,,,74,62
120120,note_on,40,0,1,,,,,,,,,0,,,74,0
120120,note_on,0,0,3,,,,,,,,,2,,,67,49
120120,note_on,120,0,3,,,,,,,,,2,,,61,0
120120,note_on,0,0,1,,,,,,,,,0,,,73,62
120159,note_on,39,0,1,,,,,,,,,0,,,71,62
120160,note_on,1,0,1,,,,,,,,,0,,,73,0
120180,note_on,0,0,3,,,,,,,,,2,,,57,0
120180,note_on,60,0,3,,,,,,,,,2,,,67,0
120199,note_on,39,0,1,,,,,,,,,0,,,71,0
120200,note_on,1,0,1,,,,,,,,,0,,,69,62
120240,note_on,40,0,1,,,,,,,,,0,,,69,0
120240,note_on,0,0,3,,,,,,,,,2,,,45,49
120240,note_on,60,0,3,,,,,,,,,2,,,40,49
120240,note_on,0,0,1,,,,,,,,,0,,,67,62
120240,control_change,0,0,1,,,,,,,,,0,64,0,,
120246,note_on,6,0,3,,,,,,,,,2,,,45,0
120246,note_on,0,0,3,,,,,,,,,2,,,40,0
120279,note_on,39,0,1,,,,,,,,,0,,,64,62
120280,note_on,1,0,1,,,,,,,,,0,,,67,0
120300,note_on,54,0,3,,,,,,,,,2,,,40,49
120300,note_on,0,0,3,,,,,,,,,2,,,45,49
120306,note_on,6,0,3,,,,,,,,,2,,,45,0
120306,note_on,0,0,3,,,,,,,,,2,,,40,0
120319,note_on,39,0,1,,,,,,,,,0,,,64,0
120320,note_on,1,0,1,,,,,,,,,0,,,66,62
120360,note_on,54,0,3,,,,,,,,,2,,,40,49
120360,note_on,0,0,3,,,,,,,,,2,,,45,49
120360,note_on,0,0,1,,,,,,,,,0,,,67,62
120360,note_on,40,0,1,,,,,,,,,0,,,66,0
120366,note_on,6,0,3,,,,,,,,,2,,,45,0
120366,note_on,0,0,3,,,,,,,,,2,,,40,0
120399,note_on,39,0,1,,,,,,,,,0,,,69,62
120400,note_on,1,0,1,,,,,,,,,0,,,67,0
120420,note_on,0,0,3,,,,,,,,,2,,,45,49
120420,note_on,54,0,3,,,,,,,,,2,,,40,49
120426,note_on,6,0,3,,,,,,,,,2,,,45,0
120426,note_on,0,0,3,,,,,,,,,2,,,40,0
120439,note_on,39,0,1,,,,,,,,,0,,,69,0
120440,note_on,1,0,1,,,,,,,,,0,,,71,62
120480,control_change,0,0,1,,,,,,,,,0,64,127,,
120480,note_on,0,0,1,,,,,,,,,0,,,73,62
120480,note_on,40,0,1,,,,,,,,,0,,,71,0
120480,note_on,54,0,3,,,,,,,,,2,,,40,49
120480,note_on,0,0,3,,,,,,,,,2,,,45,49
120519,note_on,39,0,1,,,,,,,,,0,,,71,62
120520,note_on,1,0,1,,,,,,,,,0,,,73,0
120559,note_on,39,0,1,,,,,,,,,0,,,71,0
120560,note_on,1,0,1,,,,,,,,,0,,,69,62
120600,note_on,0,0,3,,,,,,,,,2,,,33,49
120600,note_on,0,0,3,,,,,,,,,2,,,40,0
120600,note_on,120,0,3,,,,,,,,,2,,,45,0
120600,note_on,0,0,1,,,,,,,,,0,,,76,62
120600,note_on,40,0,1,,,,,,,,,0,,,69,0
120639,note_on,39,0,1,,,,,,,,,0,,,74,62
120640,note_on,1,0,1,,,,,,,,,0,,,76,0
120660,note_on,60,0,3,,,,,,,,,2,,,33,0
120679,note_on,39,0,1,,,,,,,,,0,,,74,0
120680,control_change,1,0,1,,,,,,,,,0,64,0,,
120680,note_on,0,0,1,,,,,,,,,0,,,73,62
120720,note_on,60,0,3,,,,,,,,,2,,,57,62
120720,note_on,0,0,1,,,,,,,,,0,,,79,75
120720,note_on,0,0,3,,,,,,,,,2,,,61,62
120720,note_on,40,0,1,,,,,,,,,0,,,73,0
120726,note_on,0,0,3,,,,,,,,,2,,,57,0
120726,note_on,6,0,3,,,,,,,,,2,,,61,0
120759,note_on,39,0,1,,,,,,,,,0,,,78,75
120760,note_on,1,0,1,,,,,,,,,0,,,79,0
120780,note_on,0,0,3,,,,,,,,,2,,,61,62
120780,note_on,54,0,3,,,,,,,,,2,,,57,62
120786,note_on,6,0,3,,,,,,,,,2,,,61,0
120786,note_on,0,0,3,,,,,,,,,2,,,57,0
120799,note_on,39,0,1,,,,,,,,,0,,,78,0
120800,note_on,1,0,1,,,,,,,,,0,,,76,75
120840,note_on,40,0,1,,,,,,,,,0,,,76,0
120840,note_on,0,0,1,,,,,,,,,0,,,82,75
120840,note_on,54,0,3,,,,,,,,,2,,,57,62
120840,note_on,0,0,3,,,,,,,,,2,,,61,62
120846,note_on,6,0,3,,,,,,,,,2,,,61,0
120846,note_on,0,0,3,,,,,,,,,2,,,57,0
120879,note_on,39,0,1,,,,,,,,,0,,,81,75
120880,note_on,1,0,1,,,,,,,,,0,,,82,0
120900,note_on,54,0,3,,,,,,,,,2,,,57,62
120900,note_on,0,0,3,,,,,,,,,2,,,61,62
120906,note_on,6,0,3,,,,,,,,,2,,,61,0
120906,note_on,0,0,3,,,,,,,,,2,,,57,0
120919,note_on,39,0,1,,,,,,,,,0,,,81,0
120920,note_on,1,0,1,,,,,,,,,0,,,79,75
120960,note_on,0,0,1,,,,,,,,,0,,,78,75
120960,note_on,40,0,1,,,,,,,,,0,,,79,0
120960,control_change,0,0,1,,,,,,,,,0,64,127,,
120960,note_on,0,0,3,,,,,,,,,2,,,61,62
120960,note_on,54,0,3,,,,,,,,,2,,,57,62
120999,note_on,39,0,1,,,,,,,,,0,,,76,75
121000,note_on,1,0,1,,,,,,,,,0,,,78,0
121039,note_on,39,0,1,,,,,,,,,0,,,76,0
121040,note_on,1,0,1,,,,,,,,,0,,,74,75
121080,note_on,0,0,1,,,,,,,,,0,,,73,75
121080,note_on,0,0,3,,,,,,,,,2,,,57,0
121080,note_on,120,0,3,,,,,,,,,2,,,61,0
121080,note_on,40,0,1,,,,,,,,,0,,,74,0
121080,note_on,0,0,3,,,,,,,,,2,,,67,62
121119,note_on,39,0,1,,,,,,,,,0,,,71,75
121120,note_on,1,0,1,,,,,,,,,0,,,73,0
121140,note_on,60,0,3,,,,,,,,,2,,,67,0
121159,note_on,39,0,1,,,,,,,,,0,,,71,0
121160,note_on,1,0,1,,,,,,,,,0,,,69,75
121200,note_on,40,0,1,,,,,,,,,0,,,69,0
121200,note_on,0,0,1,,,,,,,,,0,,,67,75
121200,control_change,0,0,1,,,,,,,,,0,64,0,,
121200,note_on,0,0,3,,,,,,,,,2,,,45,62
121200,note_on,60,0,3,,,,,,,,,2,,,40,62
121206,note_on,0,0,3,,,,,,,,,2,,,40,0
121206,note_on,6,0,3,,,,,,,,,2,,,45,0
121239,note_on,39,0,1,,,,,,,,,0,,,64,75
121240,note_on,1,0,1,,,,,,,,,0,,,67,0
121260,note_on,0,0,3,,,,,,,,,2,,,45,62
121260,note_on,54,0,3,,,,,,,,,2,,,40,62
121266,note_on,0,0,3,,,,,,,,,2,,,40,0
121266,note_on,6,0,3,,,,,,,,,2,,,45,0
121279,note_on,39,0,1,,,,,,,,,0,,,64,0
121280,note_on,1,0,1,,,,,,,,,0,,,66,75
121320,note_on,40,0,1,,,,,,,,,0,,,66,0
121320,note_on,0,0,1,,,,,,,,,0,,,67,75
121320,note_on,54,0,3,,,,,,,,,2,,,40,62
121320,note_on,0,0,3,,,,,,,,,2,,,45,62
121326,note_on,6,0,3,,,,,,,,,2,,,45,0
121326,note_on,0,0,3,,,,,,,,,2,,,40,0
121359,note_on,39,0,1,,,,,,,,,0,,,69,75
121360,note_on,1,0,1,,,,,,,,,0,,,67,0
121380,note_on,54,0,3,,,,,,,,,2,,,40,62
121380,note_on,0,0,3,,,,,,,,,2,,,45,62
121386,note_on,6,0,3,,,,,,,,,2,,,45,0
121386,note_on,0,0,3,,,,,,,,,2,,,40,0
121399,note_on,39,0,1,,,,,,,,,0,,,69,0
121400,note_on,1,0,1,,,,,,,,,0,,,71,75
121440,note_on,0,0,3,,,,,,,,,2,,,40,75
121440,note_on,0,0,1,,,,,,,,,0,,,73,88
121440,control_change,0,0,1,,,,,,,,,0,64,127,,
121440,note_on,40,0,1,,,,,,,,,0,,,71,0
121440,control_change,54,0,3,,,,,,,,,2,64,127,,
121440,note_on,0,0,3,,,,,,,,,2,,,45,75
121479,note_on,39,0,1,,,,,,,,,0,,,71,88
121480,note_on,1,0,1,,,,,,,,,0,,,73,0
121519,note_on,39,0,1,,,,,,,,,0,,,71,0
121520,note_on,1,0,1,,,,,,,,,0,,,69,88
121560,note_on,0,0,3,,,,,,,,,2,,,33,75
121560,note_on,0,0,3,,,,,,,,,2,,,40,0
121560,note_on,120,0,3,,,,,,,,,2,,,45,0
121560,note_on,0,0,1,,,,,,,,,0,,,76,88
121560,note_on,40,0,1,,,,,,,,,0,,,69,0
121599,note_on,39,0,1,,,,,,,,,0,,,74,88
121600,note_on,1,0,1,,,,,,,,,0,,,76,0
121620,note_on,60,0,3,,,,,,,,,2,,,33,0
121639,note_on,39,0,1,,,,,,,,,0,,,74,0
121640,note_on,1,0,1,,,,,,,,,0,,,73,88
121680,note_on,60,0,3,,,,,,,,,2,,,49,75
121680,note_on,0,0,1,,,,,,,,,0,,,79,88
121680,note_on,40,0,1,,,,,,,,,0,,,73,0
121719,note_on,39,0,1,,,,,,,,,0,,,78,88
121720,note_on,1,0,1,,,,,,,,,0,,,79,0
121759,note_on,39,0,1,,,,,,,,,0,,,78,0
121760,note_on,1,0,1,,,,,,,,,0,,,76,88
121800,note_on,40,0,1,,,,,,,,,0,,,76,0
121800,note_on,0,0,1,,,,,,,,,0,,,76,88
121800,note_on,0,0,3,,,,,,,,,2,,,45,75
121800,control_change,0,0,3,,,,,,,,,2,64,0,,
121800,note_on,120,0,3,,,,,,,,,2,,,49,0
121839,note_on,39,0,1,,,,,,,,,0,,,74,88
121840,note_on,1,0,1,,,,,,,,,0,,,76,0
121860,note_on,60,0,3,,,,,,,,,2,,,45,0
121879,note_on,39,0,1,,,,,,,,,0,,,74,0
121880,note_on,0,0,1,,,,,,,,,0,,,73,88
121880,control_change,1,0,1,,,,,,,,,0,64,0,,
121920,note_on,40,0,1,,,,,,,,,0,,,73,0
121920,control_change,0,0,1,,,,,,,,,0,64,127,,
121920,note_on,0,0,1,,,,,,,,,0,,,79,88
121920,note_on,0,0,3,,,,,,,,,2,,,52,75
121920,control_change,60,0,3,,,,,,,,,2,64,127,,
121959,note_on,39,0,1,,,,,,,,,0,,,78,88
121960,note_on,1,0,1,,,,,,,,,0,,,79,0
121999,note_on,39,0,1,,,,,,,,,0,,,78,0
122000,note_on,1,0,1,,,,,,,,,0,,,76,88
122040,note_on,40,0,1,,,,,,,,,0,,,76,0
122040,note_on,0,0,1,,,,,,,,,0,,,83,88
122040,note_on,0,0,3,,,,,,,,,2,,,49,75
122040,note_on,120,0,3,,,,,,,,,2,,,52,0
122079,note_on,39,0,1,,,,,,,,,0,,,81,88
122080,note_on,1,0,1,,,,,,,,,0,,,83,0
122100,note_on,60,0,3,,,,,,,,,2,,,49,0
122119,note_on,39,0,1,,,,,,,,,0,,,81,0
122120,note_on,1,0,1,,,,,,,,,0,,,79,88
122160,note_on,60,0,3,,,,,,,,,2,,,61,75
122160,note_on,0,0,1,,,,,,,,,0,,,79,88
122160,note_on,40,0,1,,,,,,,,,0,,,79,0
122199,note_on,39,0,1,,,,,,,,,0,,,78,88
122200,note_on,1,0,1,,,,,,,,,0,,,79,0
122239,note_on,39,0,1,,,,,,,,,0,,,78,0
122240,note_on,1,0,1,,,,,,,,,0,,,76,88
122280,note_on,120,0,3,,,,,,,,,2,,,61,0
122280,note_on,0,0,3,,,,,,,,,2,,,57,75
122280,note_on,0,0,1,,,,,,,,,0,,,83,88
122280,note_on,40,0,1,,,,,,,,,0,,,76,0
122280,control_change,0,0,3,,,,,,,,,2,64,0,,
122319,note_on,39,0,1,,,,,,,,,0,,,81,88
122320,note_on,1,0,1,,,,,,,,,0,,,83,0
122340,note_on,60,0,3,,,,,,,,,2,,,57,0
122359,note_on,39,0,1,,,,,,,,,0,,,81,0
122360,control_change,1,0,1,,,,,,,,,0,64,0,,
122360,note_on,0,0,1,,,,,,,,,0,,,79,88
122400,note_on,40,0,1,,,,,,,,,0,,,79,0
122400,note_on,0,0,3,,,,,,,,,2,,,64,75
122400,control_change,0,0,1,,,,,,,,,0,64,127,,
122400,note_on,0,0,1,,,,,,,,,0,,,85,88
122400,control_change,60,0,3,,,,,,,,,2,64,127,,
122439,note_on,39,0,1,,,,,,,,,0,,,83,88
122440,note_on,1,0,1,,,,,,,,,0,,,85,0
122479,note_on,39,0,1,,,,,,,,,0,,,83,0
122480,note_on,1,0,1,,,,,,,,,0,,,81,88
122520,note_on,0,0,3,,,,,,,,,2,,,57,75
122520,note_on,120,0,3,,,,,,,,,2,,,64,0
122520,note_on,40,0,1,,,,,,,,,0,,,81,0
122520,note_on,0,0,1,,,,,,,,,0,,,85,88
122559,note_on,39,0,1,,,,,,,,,0,,,83,88
122560,note_on,1,0,1,,,,,,,,,0,,,85,0
122580,note_on,60,0,3,,,,,,,,,2,,,57,0
122599,note_on,39,0,1,,,,,,,,,0,,,83,0
122600,note_on,1,0,1,,,,,,,,,0,,,81,88
122640,note_on,40,0,1,,,,,,,,,0,,,81,0
122640,note_on,0,0,1,,,,,,,,,0,,,85,88
122640,note_on,60,0,3,,,,,,,,,2,,,67,75
122679,note_on,39,0,1,,,,,,,,,0,,,83,88
122680,note_on,1,0,1,,,,,,,,,0,,,85,0
122719,note_on,39,0,1,,,,,,,,,0,,,83,0
122720,note_on,1,0,1,,,,,,,,,0,,,81,88
122760,note_on,0,0,1,,,,,,,,,0,,,85,88
122760,note_on,40,0,1,,,,,,,,,0,,,81,0
122760,note_on,120,0,3,,,,,,,,,2,,,67,0
122760,note_on,0,0,3,,,,,,,,,2,,,64,75
122760,control_change,0,0,3,,,,,,,,,2,64,0,,
122799,note_on,39,0,1,,,,,,,,,0,,,83,88
122800,note_on,1,0,1,,,,,,,,,0,,,85,0
122820,note_on,60,0,3,,,,,,,,,2,,,64,0
122839,note_on,39,0,1,,,,,,,,,0,,,83,0
122840,note_on,0,0,1,,,,,,,,,0,,,81,88
122840,control_change,1,0,1,,,,,,,,,0,64,0,,
122880,note_on,0,0,1,,,,,,,,,0,,,81,101
122880,note_on,60,0,3,,,,,,,,,2,,,38,88
122880,note_on,0,0,1,,,,,,,,,0,,,74,101
122880,note_on,40,0,1,,,,,,,,,0,,,81,0
122880,note_on,0,0,3,,,,,,,,,2,,,50,88
122880,note_on,0,0,1,,,,,,,,,0,,,86,101
122880,note_on,0,0,1,,,,,,,,,0,,,78,101
123120,note_on,240,0,1,,,,,,,,,0,,,86,0
123120,note_on,0,0,1,,,,,,,,,0,,,74,0
123120,note_on,0,0,3,,,,,,,,,2,,,50,88
123120,note_on,0,0,1,,,,,,,,,0,,,57,101
123120,note_on,0,0,1,,,,,,,,,0,,,81,0
123120,note_on,0,0,1,,,,,,,,,0,,,62,101
123120,note_on,240,0,3,,,,,,,,,2,,,50,0
123120,note_on,0,0,3,,,,,,,,,2,,,38,0
123120,note_on,0,0,3,,,,,,,,,2,,,42,88
123120,note_on,0,0,1,,,,,,,,,0,,,78,0
123126,note_on,6,0,1,,,,,,,,,0,,,62,0
123126,note_on,0,0,1,,,,,,,,,0,,,57,0
123126,note_on,0,0,3,,,,,,,,,2,,,42,0
123126,note_on,6,0,3,,,,,,,,,2,,,50,0
123180,note_on,0,0,1,,,,,,,,,0,,,62,101
123180,note_on,54,0,1,,,,,,,,,0,,,57,101
123180,note_on,54,0,3,,,,,,,,,2,,,42,88
123180,note_on,0,0,3,,,,,,,,,2,,,50,88
123186,note_on,6,0,3,,,,,,,,,2,,,50,0
123186,note_on,6,0,1,,,,,,,,,0,,,62,0
123186,note_on,0,0,3,,,,,,,,,2,,,42,0
123186,note_on,0,0,1,,,,,,,,,0,,,57,0
123240,note_on,54,0,1,,,,,,,,,0,,,57,101
123240,note_on,0,0,3,,,,,,,,,2,,,50,88
123240,note_on,54,0,3,,,,,,,,,2,,,42,88
123240,note_on,0,0,1,,,,,,,,,0,,,62,101
123246,note_on,6,0,1,,,,,,,,,0,,,62,0
123246,note_on,0,0,3,,,,,,,,,2,,,42,0
123246,note_on,6,0,3,,,,,,,,,2,,,50,0
123246,note_on,0,0,1,,,,,,,,,0,,,57,0
123300,note_on,54,0,1,,,,,,,,,0,,,57,101
123300,note_on,0,0,1,,,,,,,,,0,,,62,101
123300,note_on,0,0,3,,,,,,,,,2,,,50,88
123300,note_on,54,0,3,,,,,,,,,2,,,42,88
123306,note_on,0,0,1,,,,,,,,,0,,,57,0
123306,note_on,6,0,1,,,,,,,,,0,,,62,0
123306,note_on,0,0,3,,,,,,,,,2,,,42,0
123306,note_on,6,0,3,,,,,,,,,2,,,50,0
123360,note_on,0,0,1,,,,,,,,,0,,,62,127
123360,note_on,54,0,1,,,,,,,,,0,,,57,119
123360,note_on,0,0,3,,,,,,,,,2,,,50,114
123360,note_on,54,0,3,,,,,,,,,2,,,42,106
123480,note_on,120,0,3,,,,,,,,,2,,,42,0
123480,note_on,0,0,3,,,,,,,,,2,,,52,88
123480,note_on,0,0,3,,,,,,,,,2,,,43,88
123480,note_on,120,0,1,,,,,,,,,0,,,57,0
123480,note_on,0,0,1,,,,,,,,,0,,,59,101
123480,note_on,0,0,1,,,,,,,,,0,,,64,101
123540,note_on,0,0,3,,,,,,,,,2,,,50,0
123540,note_on,60,0,1,,,,,,,,,0,,,64,0
123540,note_on,0,0,1,,,,,,,,,0,,,59,0
123540,note_on,0,0,1,,,,,,,,,0,,,62,0
123540,note_on,60,0,3,,,,,,,,,2,,,52,0
123540,note_on,0,0,3,,,,,,,,,2,,,43,0
123600,note_on,60,0,1,,,,,,,,,0,,,60,101
123600,note_on,0,0,1,,,,,,,,,0,,,62,101
123600,note_on,0,0,1,,,,,,,,,0,,,66,101
123600,note_on,0,0,3,,,,,,,,,2,,,54,88
123600,note_on,0,0,3,,,,,,,,,2,,,50,88
123600,note_on,60,0,3,,,,,,,,,2,,,45,88
123606,note_on,0,0,3,,,,,,,,,2,,,45,0
123606,note_on,6,0,3,,,,,,,,,2,,,54,0
123606,note_on,0,0,3,,,,,,,,,2,,,50,0
123606,note_on,0,0,1,,,,,,,,,0,,,60,0
123606,note_on,0,0,1,,,,,,,,,0,,,62,0
123606,note_on,6,0,1,,,,,,,,,0,,,66,0
123660,note_on,0,0,1,,,,,,,,,0,,,62,101
123660,note_on,0,0,3,,,,,,,,,2,,,54,88
123660,note_on,0,0,3,,,,,,,,,2,,,50,88
123660,note_on,54,0,3,,,,,,,,,2,,,45,88
123660,note_on,0,0,1,,,,,,,,,0,,,66,101
123660,note_on,54,0,1,,,,,,,,,0,,,60,101
123666,note_on,0,0,1,,,,,,,,,0,,,62,0
123666,note_on,0,0,3,,,,,,,,,2,,,50,0
123666,note_on,0,0,3,,,,,,,,,2,,,45,0
123666,note_on,6,0,1,,,,,,,,,0,,,66,0
123666,note_on,6,0,3,,,,,,,,,2,,,54,0
123666,note_on,0,0,1,,,,,,,,,0,,,60,0
123720,note_on,0,0,1,,,,,,,,,0,,,62,101
123720,note_on,0,0,1,,,,,,,,,0,,,66,101
123720,note_on,54,0,1,,,,,,,,,0,,,60,101
123720,note_on,0,0,3,,,,,,,,,2,,,50,88
123720,note_on,0,0,3,,,,,,,,,2,,,54,88
123720,note_on,54,0,3,,,,,,,,,2,,,45,88
123726,note_on,0,0,1,,,,,,,,,0,,,62,0
123726,note_on,6,0,1,,,,,,,,,0,,,66,0
123726,note_on,0,0,1,,,,,,,,,0,,,60,0
123726,note_on,6,0,3,,,,,,,,,2,,,54,0
123726,note_on,0,0,3,,,,,,,,,2,,,50,0
123726,note_on,0,0,3,,,,,,,,,2,,,45,0
123780,note_on,0,0,1,,,,,,,,,0,,,62,101
123780,note_on,0,0,1,,,,,,,,,0,,,66,101
123780,note_on,54,0,3,,,,,,,,,2,,,45,88
123780,note_on,0,0,3,,,,,,,,,2,,,50,88
123780,note_on,54,0,1,,,,,,,,,0,,,60,101
123780,note_on,0,0,3,,,,,,,,,2,,,54,88
123786,note_on,0,0,3,,,,,,,,,2,,,50,0
123786,note_on,0,0,1,,,,,,,,,0,,,62,0
123786,note_on,6,0,1,,,,,,,,,0,,,66,0
123786,note_on,0,0,3,,,,,,,,,2,,,45,0
123786,note_on,6,0,3,,,,,,,,,2,,,54,0
123786,note_on,0,0,1,,,,,,,,,0,,,60,0
123840,note_on,0,0,3,,,,,,,,,2,,,50,88
123840,note_on,0,0,1,,,,,,,,,0,,,62,101
123840,note_on,0,0,1,,,,,,,,,0,,,66,101
123840,note_on,54,0,1,,,,,,,,,0,,,60,101
123840,note_on,54,0,3,,,,,,,,,2,,,45,88
123840,note_on,0,0,3,,,,,,,,,2,,,54,88
123960,note_on,120,0,1,,,,,,,,,0,,,66,0
123960,note_on,0,0,1,,,,,,,,,0,,,60,0
123960,note_on,0,0,1,,,,,,,,,0,,,59,101
123960,note_on,0,0,1,,,,,,,,,0,,,67,101
123960,note_on,0,0,3,,,,,,,,,2,,,47,88
123960,note_on,0,0,3,,,,,,,,,2,,,45,0
123960,note_on,0,0,3,,,,,,,,,2,,,55,88
123960,note_on,120,0,3,,,,,,,,,2,,,54,0
124020,note_on,0,0,1,,,,,,,,,0,,,62,0
124020,note_on,0,0,1,,,,,,,,,0,,,64,101
124020,note_on,0,0,1,,,,,,,,,0,,,59,0
124020,note_on,60,0,1,,,,,,,,,0,,,67,0
124020,note_on,0,0,3,,,,,,,,,2,,,47,0
124020,note_on,60,0,3,,,,,,,,,2,,,55,0
124020,note_on,0,0,3,,,,,,,,,2,,,50,0
124020,note_on,0,0,3,,,,,,,,,2,,,52,88
124080,note_on,0,0,1,,,,,,,,,0,,,67,101
124080,note_on,60,0,1,,,,,,,,,0,,,64,0
124080,note_on,60,0,3,,,,,,,,,2,,,52,0
124080,note_on,0,0,3,,,,,,,,,2,,,55,88
124119,note_on,39,0,3,,,,,,,,,2,,,54,88
124119,note_on,39,0,1,,,,,,,,,0,,,66,101
124120,note_on,1,0,1,,,,,,,,,0,,,67,0
124120,note_on,1,0,3,,,,,,,,,2,,,55,0
124159,note_on,39,0,3,,,,,,,,,2,,,54,0
124159,note_on,39,0,1,,,,,,,,,0,,,66,0
124160,note_on,1,0,3,,,,,,,,,2,,,52,88
124160,note_on,1,0,1,,,,,,,,,0,,,64,101
124200,note_on,40,0,3,,,,,,,,,2,,,52,0
124200,note_on,0,0,3,,,,,,,,,2,,,58,88
124200,note_on,0,0,1,,,,,,,,,0,,,70,101
124200,note_on,40,0,1,,,,,,,,,0,,,64,0
124239,note_on,39,0,3,,,,,,,,,2,,,57,88
124239,note_on,39,0,1,,,,,,,,,0,,,69,101
124240,note_on,1,0,3,,,,,,,,,2,,,58,0
124240,note_on,1,0,1,,,,,,,,,0,,,70,0
124279,note_on,39,0,3,,,,,,,,,2,,,57,0
124279,note_on,39,0,1,,,,,,,,,0,,,69,0
124280,note_on,1,0,3,,,,,,,,,2,,,55,88
124280,note_on,1,0,1,,,,,,,,,0,,,67,101
124320,note_on,0,0,1,,,,,,,,,0,,,69,101
124320,note_on,40,0,3,,,,,,,,,2,,,55,0
124320,note_on,0,0,3,,,,,,,,,2,,,57,88
124320,note_on,40,0,1,,,,,,,,,0,,,67,0
124380,note_on,60,0,1,,,,,,,,,0,,,69,0
124380,note_on,60,0,3,,,,,,,,,2,,,57,0
124440,note_on,60,0,3,,,,,,,,,2,,,62,36
124440,note_on,60,0,1,,,,,,,,,0,,,78,49
124479,note_on,39,0,1,,,,,,,,,0,,,76,49
124479,note_on,39,0,3,,,,,,,,,2,,,64,36
124480,note_on,1,0,1,,,,,,,,,0,,,78,0
124480,note_on,1,0,3,,,,,,,,,2,,,62,0
124519,note_on,39,0,1,,,,,,,,,0,,,76,0
124519,note_on,39,0,3,,,,,,,,,2,,,64,0
124520,note_on,1,0,3,,,,,,,,,2,,,66,36
124520,note_on,1,0,1,,,,,,,,,0,,,74,49
124560,note_on,40,0,1,,,,,,,,,0,,,74,0
124560,note_on,40,0,3,,,,,,,,,2,,,66,0
124560,note_on,0,0,1,,,,,,,,,0,,,81,49
124560,note_on,0,0,3,,,,,,,,,2,,,57,36
124599,note_on,39,0,1,,,,,,,,,0,,,79,49
124599,note_on,39,0,3,,,,,,,,,2,,,61,36
124600,note_on,1,0,3,,,,,,,,,2,,,57,0
124600,note_on,1,0,1,,,,,,,,,0,,,81,0
124639,note_on,39,0,1,,,,,,,,,0,,,79,0
124639,note_on,39,0,3,,,,,,,,,2,,,61,0
124640,note_on,1,0,1,,,,,,,,,0,,,78,49
124640,note_on,1,0,3,,,,,,,,,2,,,62,36
124680,note_on,40,0,3,,,,,,,,,2,,,62,0
124680,note_on,0,0,3,,,,,,,,,2,,,64,36
124680,note_on,0,0,1,,,,,,,,,0,,,76,49
124680,note_on,40,0,1,,,,,,,,,0,,,78,0
124719,note_on,39,0,3,,,,,,,,,2,,,66,36
124719,note_on,39,0,1,,,,,,,,,0,,,74,49
124720,note_on,1,0,1,,,,,,,,,0,,,76,0
124720,note_on,1,0,3,,,,,,,,,2,,,64,0
124759,note_on,39,0,1,,,,,,,,,0,,,74,0
124759,note_on,39,0,3,,,,,,,,,2,,,66,0
124760,note_on,1,0,1,,,,,,,,,0,,,73,49
124760,note_on,1,0,3,,,,,,,,,2,,,67,36
124800,note_on,0,0,3,,,,,,,,,2,,,50,75
124800,note_on,0,0,3,,,,,,,,,2,,,38,75
124800,note_on,0,0,1,,,,,,,,,0,,,86,88
124800,note_on,0,0,1,,,,,,,,,0,,,81,88
124800,note_on,0,0,1,,,,,,,,,0,,,78,88
124800,note_on,0,0,1,,,,,,,,,0,,,74,88
124800,note_on,40,0,1,,,,,,,,,0,,,73,0
124800,note_on,40,0,3,,,,,,,,,2,,,67,0
125040,note_on,0,0,3,,,,,,,,,2,,,38,0
125040,note_on,240,0,3,,,,,,,,,2,,,50,0
125040,note_on,0,0,3,,,,,,,,,2,,,50,36
125040,note_on,0,0,3,,,,,,,,,2,,,42,36
125040,note_on,0,0,1,,,,,,,,,0,,,62,49
125040,note_on,0,0,1,,,,,,,,,0,,,81,0
125040,note_on,0,0,1,,,,,,,,,0,,,78,0
125040,note_on,0,0,1,,,,,,,,,0,,,74,0
125040,note_on,240,0,1,,,,,,,,,0,,,86,0
125040,note_on,0,0,1,,,,,,,,,0,,,57,49
125046,note_on,6,0,3,,,,,,,,,2,,,50,0
125046,note_on,0,0,3,,,,,,,,,2,,,42,0
125046,note_on,6,0,1,,,,,,,,,0,,,62,0
125046,note_on,0,0,1,,,,,,,,,0,,,57,0
125100,note_on,54,0,1,,,,,,,,,0,,,57,49
125100,note_on,0,0,1,,,,,,,,,0,,,62,49
125100,note_on,54,0,3,,,,,,,,,2,,,42,36
125100,note_on,0,0,3,,,,,,,,,2,,,50,36
125106,note_on,6,0,3,,,,,,,,,2,,,50,0
125106,note_on,6,0,1,,,,,,,,,0,,,62,0
125106,note_on,0,0,3,,,,,,,,,2,,,42,0
125106,note_on,0,0,1,,,,,,,,,0,,,57,0
125160,note_on,0,0,3,,,,,,,,,2,,,50,36
125160,note_on,54,0,3,,,,,,,,,2,,,42,36
125160,note_on,54,0,1,,,,,,,,,0,,,57,49
125160,note_on,0,0,1,,,,,,,,,0,,,62,49
125166,note_on,0,0,3,,,,,,,,,2,,,42,0
125166,note_on,6,0,3,,,,,,,,,2,,,50,0
125166,note_on,6,0,1,,,,,,,,,0,,,62,0
125166,note_on,0,0,1,,,,,,,,,0,,,57,0
125220,note_on,0,0,3,,,,,,,,,2,,,50,36
125220,note_on,54,0,3,,,,,,,,,2,,,42,36
125220,note_on,54,0,1,,,,,,,,,0,,,57,49
125220,note_on,0,0,1,,,,,,,,,0,,,62,49
125226,note_on,6,0,3,,,,,,,,,2,,,50,0
125226,note_on,0,0,1,,,,,,,,,0,,,57,0
125226,note_on,0,0,3,,,,,,,,,2,,,42,0
125226,note_on,6,0,1,,,,,,,,,0,,,62,0
125280,note_on,54,0,3,,,,,,,,,2,,,42,36
125280,note_on,0,0,3,,,,,,,,,2,,,50,36
125280,note_on,54,0,1,,,,,,,,,0,,,57,49
125280,note_on,0,0,1,,,,,,,,,0,,,62,49
125400,note_on,0,0,3,,,,,,,,,2,,,43,36
125400,note_on,0,0,1,,,,,,,,,0,,,64,49
125400,note_on,0,0,1,,,,,,,,,0,,,59,49
125400,note_on,120,0,1,,,,,,,,,0,,,57,0
125400,note_on,120,0,3,,,,,,,,,2,,,42,0
125400,note_on,0,0,3,,,,,,,,,2,,,52,36
125460,note_on,0,0,1,,,,,,,,,0,,,62,0
125460,note_on,0,0,1,,,,,,,,,0,,,59,0
125460,note_on,60,0,1,,,,,,,,,0,,,64,0
125460,note_on,0,0,3,,,,,,,,,2,,,43,0
125460,note_on,0,0,3,,,,,,,,,2,,,50,0
125460,note_on,60,0,3,,,,,,,,,2,,,52,0
125520,note_on,60,0,1,,,,,,,,,0,,,57,49
125520,note_on,60,0,3,,,,,,,,,2,,,45,36
125559,note_on,39,0,3,,,,,,,,,2,,,47,36
125559,note_on,39,0,1,,,,,,,,,0,,,59,49
125560,note_on,1,0,3,,,,,,,,,2,,,45,0
125560,note_on,1,0,1,,,,,,,,,0,,,57,0
125599,note_on,39,0,3,,,,,,,,,2,,,47,0
125599,note_on,39,0,1,,,,,,,,,0,,,59,0
125600,note_on,1,0,3,,,,,,,,,2,,,48,36
125600,note_on,1,0,1,,,,,,,,,0,,,60,49
125640,note_on,40,0,3,,,,,,,,,2,,,48,0
125640,note_on,40,0,1,,,,,,,,,0,,,60,0
125640,note_on,0,0,1,,,,,,,,,0,,,62,49
125640,note_on,0,0,3,,,,,,,,,2,,,50,36
125679,note_on,39,0,3,,,,,,,,,2,,,52,36
125679,note_on,39,0,1,,,,,,,,,0,,,64,49
125680,note_on,1,0,3,,,,,,,,,2,,,50,0
125680,note_on,1,0,1,,,,,,,,,0,,,62,0
125719,note_on,39,0,3,,,,,,,,,2,,,52,0
125719,note_on,39,0,1,,,,,,,,,0,,,64,0
125720,note_on,1,0,3,,,,,,,,,2,,,54,36
125720,note_on,1,0,1,,,,,,,,,0,,,66,49
125760,note_on,40,0,3,,,,,,,,,2,,,54,0
125760,note_on,40,0,1,,,,,,,,,0,,,66,0
125760,note_on,0,0,3,,,,,,,,,2,,,46,62
125760,note_on,0,0,1,,,,,,,,,0,,,58,75
125820,note_on,60,0,1,,,,,,,,,0,,,58,0
125820,note_on,0,0,1,,,,,,,,,0,,,66,49
125820,note_on,0,0,3,,,,,,,,,2,,,54,36
125820,note_on,60,0,3,,,,,,,,,2,,,46,0
125880,note_on,0,0,3,,,,,,,,,2,,,47,62
125880,note_on,60,0,3,,,,,,,,,2,,,54,0
125880,note_on,60,0,1,,,,,,,,,0,,,66,0
125880,note_on,0,0,1,,,,,,,,,0,,,59,75
125940,note_on,0,0,3,,,,,,,,,2,,,55,36
125940,note_on,60,0,3,,,,,,,,,2,,,47,0
125940,note_on,0,0,1,,,,,,,,,0,,,67,49
125940,note_on,60,0,1,,,,,,,,,0,,,59,0
126000,note_on,0,0,3,,,,,,,,,2,,,55,36
126000,note_on,60,0,3,,,,,,,,,2,,,55,0
126000,note_on,0,0,1,,,,,,,,,0,,,64,49
126000,note_on,0,0,3,,,,,,,,,2,,,57,36
126000,note_on,0,0,3,,,,,,,,,2,,,49,36
126000,note_on,0,0,1,,,,,,,,,0,,,67,49
126000,note_on,0,0,1,,,,,,,,,0,,,69,49
126000,note_on,60,0,1,,,,,,,,,0,,,67,0
126006,note_on,0,0,3,,,,,,,,,2,,,55,0
126006,note_on,0,0,3,,,,,,,,,2,,,49,0
126006,note_on,6,0,3,,,,,,,,,2,,,57,0
126006,note_on,0,0,1,,,,,,,,,0,,,67,0
126006,note_on,0,0,1,,,,,,,,,0,,,64,0
126006,note_on,6,0,1,,,,,,,,,0,,,69,0
126060,note_on,54,0,3,,,,,,,,,2,,,49,36
126060,note_on,0,0,3,,,,,,,,,2,,,57,36
126060,note_on,0,0,3,,,,,,,,,2,,,55,36
126060,note_on,0,0,1,,,,,,,,,0,,,67,49
126060,note_on,0,0,1,,,,,,,,,0,,,69,49
126060,note_on,54,0,1,,,,,,,,,0,,,64,49
126066,note_on,0,0,1,,,,,,,,,0,,,67,0
126066,note_on,6,0,1,,,,,,,,,0,,,69,0
126066,note_on,0,0,3,,,,,,,,,2,,,55,0
126066,note_on,0,0,3,,,,,,,,,2,,,49,0
126066,note_on,6,0,3,,,,,,,,,2,,,57,0
126066,note_on,0,0,1,,,,,,,,,0,,,64,0
126120,note_on,0,0,1,,,,,,,,,0,,,67,49
126120,note_on,0,0,3,,,,,,,,,2,,,57,36
126120,note_on,0,0,3,,,,,,,,,2,,,55,36
126120,note_on,54,0,3,,,,,,,,,2,,,49,36
126120,note_on,0,0,1,,,,,,,,,0,,,69,49
126120,note_on,54,0,1,,,,,,,,,0,,,64,49
126126,note_on,6,0,1,,,,,,,,,0,,,69,0
126126,note_on,0,0,1,,,,,,,,,0,,,67,0
126126,note_on,0,0,1,,,,,,,,,0,,,64,0
126126,note_on,0,0,3,,,,,,,,,2,,,55,0
126126,note_on,6,0,3,,,,,,,,,2,,,57,0
126126,note_on,0,0,3,,,,,,,,,2,,,49,0
126180,note_on,0,0,1,,,,,,,,,0,,,69,49
126180,note_on,0,0,1,,,,,,,,,0,,,67,49
126180,note_on,54,0,1,,,,,,,,,0,,,64,49
126180,note_on,0,0,3,,,,,,,,,2,,,57,36
126180,note_on,0,0,3,,,,,,,,,2,,,55,36
126180,note_on,54,0,3,,,,,,,,,2,,,49,36
126186,note_on,0,0,3,,,,,,,,,2,,,49,0
126186,note_on,6,0,3,,,,,,,,,2,,,57,0
126186,note_on,0,0,3,,,,,,,,,2,,,55,0
126186,note_on,0,0,1,,,,,,,,,0,,,67,0
126186,note_on,6,0,1,,,,,,,,,0,,,69,0
126186,note_on,0,0,1,,,,,,,,,0,,,64,0
126240,note_on,0,0,1,,,,,,,,,0,,,69,49
126240,note_on,0,0,1,,,,,,,,,0,,,67,49
126240,note_on,54,0,3,,,,,,,,,2,,,49,36
126240,note_on,0,0,3,,,,,,,,,2,,,55,36
126240,note_on,0,0,3,,,,,,,,,2,,,57,36
126240,note_on,54,0,1,,,,,,,,,0,,,64,49
126360,note_on,0,0,3,,,,,,,,,2,,,49,0
126360,note_on,0,0,1,,,,,,,,,0,,,71,49
126360,note_on,0,0,1,,,,,,,,,0,,,62,49
126360,note_on,120,0,3,,,,,,,,,2,,,57,0
126360,note_on,120,0,1,,,,,,,,,0,,,69,0
126360,note_on,0,0,1,,,,,,,,,0,,,64,0
126360,note_on,0,0,3,,,,,,,,,2,,,59,36
126360,note_on,0,0,3,,,,,,,,,2,,,50,36
126420,note_on,0,0,3,,,,,,,,,2,,,55,0
126420,note_on,60,0,3,,,,,,,,,2,,,59,0
126420,note_on,60,0,1,,,,,,,,,0,,,71,0
126420,note_on,0,0,1,,,,,,,,,0,,,62,0
126420,note_on,0,0,1,,,,,,,,,0,,,67,0
126420,note_on,0,0,3,,,,,,,,,2,,,50,0
126480,note_on,60,0,3,,,,,,,,,2,,,50,36
126480,note_on,60,0,1,,,,,,,,,0,,,62,49
126519,note_on,39,0,1,,,,,,,,,0,,,64,49
126519,note_on,39,0,3,,,,,,,,,2,,,52,36
126520,note_on,1,0,1,,,,,,,,,0,,,62,0
126520,note_on,1,0,3,,,,,,,,,2,,,50,0
126559,note_on,39,0,3,,,,,,,,,2,,,52,0
126559,note_on,39,0,1,,,,,,,,,0,,,64,0
126560,note_on,1,0,3,,,,,,,,,2,,,54,36
126560,note_on,1,0,1,,,,,,,,,0,,,66,49
126600,note_on,0,0,1,,,,,,,,,0,,,67,49
126600,note_on,40,0,3,,,,,,,,,2,,,54,0
126600,note_on,40,0,1,,,,,,,,,0,,,66,0
126600,note_on,0,0,3,,,,,,,,,2,,,55,36
126639,note_on,39,0,3,,,,,,,,,2,,,57,36
126639,note_on,39,0,1,,,,,,,,,0,,,69,49
126640,note_on,1,0,3,,,,,,,,,2,,,55,0
126640,note_on,1,0,1,,,,,,,,,0,,,67,0
126679,note_on,39,0,3,,,,,,,,,2,,,57,0
126679,note_on,39,0,1,,,,,,,,,0,,,69,0
126680,note_on,1,0,1,,,,,,,,,0,,,71,49
126680,note_on,1,0,3,,,,,,,,,2,,,59,36
126720,note_on,0,0,1,,,,,,,,,0,,,63,75
126720,note_on,40,0,1,,,,,,,,,0,,,71,0
126720,note_on,40,0,3,,,,,,,,,2,,,59,0
126720,note_on,0,0,3,,,,,,,,,2,,,51,62
126780,note_on,0,0,1,,,,,,,,,0,,,71,49
126780,note_on,60,0,1,,,,,,,,,0,,,63,0
126780,note_on,60,0,3,,,,,,,,,2,,,51,0
126780,note_on,0,0,3,,,,,,,,,2,,,59,36
126840,note_on,0,0,3,,,,,,,,,2,,,52,36
126840,note_on,0,0,1,,,,,,,,,0,,,64,49
126840,note_on,60,0,1,,,,,,,,,0,,,71,0
126840,note_on,60,0,3,,,,,,,,,2,,,59,0
126900,note_on,0,0,3,,,,,,,,,2,,,60,36
126900,note_on,60,0,3,,,,,,,,,2,,,52,0
126900,note_on,0,0,1,,,,,,,,,0,,,72,49
126900,note_on,60,0,1,,,,,,,,,0,,,64,0
126960,note_on,0,0,3,,,,,,,,,2,,,58,36
126960,note_on,0,0,1,,,,,,,,,0,,,73,49
126960,note_on,0,0,1,,,,,,,,,0,,,70,49
126960,note_on,0,0,1,,,,,,,,,0,,,67,49
126960,note_on,0,0,3,,,,,,,,,2,,,61,36
126960,note_on,60,0,1,,,,,,,,,0,,,72,0
126960,note_on,60,0,3,,,,,,,,,2,,,60,0
126960,note_on,0,0,3,,,,,,,,,2,,,52,36
126966,note_on,6,0,1,,,,,,,,,0,,,73,0
126966,note_on,0,0,1,,,,,,,,,0,,,67,0
126966,note_on,0,0,3,,,,,,,,,2,,,52,0
126966,note_on,0,0,3,,,,,,,,,2,,,58,0
126966,note_on,0,0,1,,,,,,,,,0,,,70,0
126966,note_on,6,0,3,,,,,,,,,2,,,61,0
127020,note_on,0,0,1,,,,,,,,,0,,,73,49
127020,note_on,0,0,1,,,,,,,,,0,,,70,49
127020,note_on,54,0,1,,,,,,,,,0,,,67,49
127020,note_on,0,0,3,,,,,,,,,2,,,61,36
127020,note_on,54,0,3,,,,,,,,,2,,,52,36
127020,note_on,0,0,3,,,,,,,,,2,,,58,36
127026,note_on,0,0,3,,,,,,,,,2,,,52,0
127026,note_on,0,0,3,,,,,,,,,2,,,58,0
127026,note_on,6,0,3,,,,,,,,,2,,,61,0
127026,note_on,6,0,1,,,,,,,,,0,,,73,0
127026,note_on,0,0,1,,,,,,,,,0,,,70,0
127026,note_on,0,0,1,,,,,,,,,0,,,67,0
127080,note_on,0,0,1,,,,,,,,,0,,,70,49
127080,note_on,54,0,1,,,,,,,,,0,,,67,49
127080,note_on,0,0,1,,,,,,,,,0,,,73,49
127080,note_on,54,0,3,,,,,,,,,2,,,52,36
127080,note_on,0,0,3,,,,,,,,,2,,,61,36
127080,note_on,0,0,3,,,,,,,,,2,,,58,36
127086,note_on,6,0,3,,,,,,,,,2,,,61,0
127086,note_on,0,0,1,,,,,,,,,0,,,67,0
127086,note_on,0,0,1,,,,,,,,,0,,,70,0
127086,note_on,6,0,1,,,,,,,,,0,,,73,0
127086,note_on,0,0,3,,,,,,,,,2,,,58,0
127086,note_on,0,0,3,,,,,,,,,2,,,52,0
127140,note_on,54,0,3,,,,,,,,,2,,,52,36
127140,note_on,0,0,3,,,,,,,,,2,,,58,36
127140,note_on,0,0,3,,,,,,,,,2,,,61,36
127140,note_on,0,0,1,,,,,,,,,0,,,70,49
127140,note_on,54,0,1,,,,,,,,,0,,,67,49
127140,note_on,0,0,1,,,,,,,,,0,,,73,49
127146,note_on,6,0,1,,,,,,,,,0,,,73,0
127146,note_on,0,0,1,,,,,,,,,0,,,70,0
127146,note_on,0,0,1,,,,,,,,,0,,,67,0
127146,note_on,0,0,3,,,,,,,,,2,,,58,0
127146,note_on,6,0,3,,,,,,,,,2,,,61,0
127146,note_on,0,0,3,,,,,,,,,2,,,52,0
127200,note_on,0,0,3,,,,,,,,,2,,,58,36
127200,note_on,0,0,1,,,,,,,,,0,,,73,49
127200,note_on,0,0,1,,,,,,,,,0,,,70,49
127200,note_on,54,0,1,,,,,,,,,0,,,67,49
127200,note_on,0,0,3,,,,,,,,,2,,,61,36
127200,note_on,54,0,3,,,,,,,,,2,,,52,36
127320,note_on,0,0,1,,,,,,,,,0,,,65,49
127320,note_on,0,0,1,,,,,,,,,0,,,74,49
127320,note_on,0,0,1,,,,,,,,,0,,,67,0
127320,note_on,120,0,1,,,,,,,,,0,,,73,0
127320,note_on,120,0,3,,,,,,,,,2,,,61,0
127320,note_on,0,0,3,,,,,,,,,2,,,52,0
127320,note_on,0,0,3,,,,,,,,,2,,,53,36
127320,note_on,0,0,3,,,,,,,,,2,,,62,36
127380,note_on,0,0,1,,,,,,,,,0,,,70,0
127380,note_on,0,0,3,,,,,,,,,2,,,58,0
127380,note_on,0,0,3,,,,,,,,,2,,,53,0
127380,note_on,60,0,3,,,,,,,,,2,,,62,0
127380,note_on,0,0,1,,,,,,,,,0,,,65,0
127380,note_on,60,0,1,,,,,,,,,0,,,74,0
127440,note_on,60,0,3,,,,,,,,,2,,,53,36
127440,note_on,60,0,1,,,,,,,,,0,,,65,49
127479,note_on,39,0,3,,,,,,,,,2,,,55,36
127479,note_on,39,0,1,,,,,,,,,0,,,67,49
127480,note_on,1,0,1,,,,,,,,,0,,,65,0
127480,note_on,1,0,3,,,,,,,,,2,,,53,0
127519,note_on,39,0,3,,,,,,,,,2,,,55,0
127519,note_on,39,0,1,,,,,,,,,0,,,67,0
127520,note_on,1,0,1,,,,,,,,,0,,,69,49
127520,note_on,1,0,3,,,,,,,,,2,,,57,36
127560,note_on,40,0,1,,,,,,,,,0,,,69,0
127560,note_on,0,0,1,,,,,,,,,0,,,70,49
127560,note_on,0,0,3,,,,,,,,,2,,,58,36
127560,note_on,40,0,3,,,,,,,,,2,,,57,0
127599,note_on,39,0,1,,,,,,,,,0,,,72,49
127599,note_on,39,0,3,,,,,,,,,2,,,60,36
127600,note_on,1,0,1,,,,,,,,,0,,,70,0
127600,note_on,1,0,3,,,,,,,,,2,,,58,0
127639,note_on,39,0,3,,,,,,,,,2,,,60,0
127639,note_on,39,0,1,,,,,,,,,0,,,72,0
127640,note_on,1,0,1,,,,,,,,,0,,,74,49
127640,note_on,1,0,3,,,,,,,,,2,,,62,36
127680,note_on,0,0,3,,,,,,,,,2,,,51,62
127680,note_on,40,0,3,,,,,,,,,2,,,62,0
127680,note_on,0,0,1,,,,,,,,,0,,,75,75
127680,note_on,40,0,1,,,,,,,,,0,,,74,0
127740,note_on,0,0,3,,,,,,,,,2,,,63,36
127740,note_on,60,0,3,,,,,,,,,2,,,51,0
127740,note_on,0,0,1,,,,,,,,,0,,,67,49
127740,note_on,60,0,1,,,,,,,,,0,,,75,0
127800,note_on,60,0,3,,,,,,,,,2,,,63,0
127800,note_on,0,0,3,,,,,,,,,2,,,58,62
127800,note_on,60,0,1,,,,,,,,,0,,,67,0
127800,note_on,0,0,1,,,,,,,,,0,,,74,75
127860,note_on,60,0,1,,,,,,,,,0,,,74,0
127860,note_on,0,0,1,,,,,,,,,0,,,65,49
127860,note_on,60,0,3,,,,,,,,,2,,,58,0
127860,note_on,0,0,3,,,,,,,,,2,,,62,36
127920,note_on,60,0,1,,,,,,,,,0,,,65,0
127920,note_on,0,0,1,,,,,,,,,0,,,64,49
127920,note_on,0,0,1,,,,,,,,,0,,,67,49
127920,note_on,0,0,1,,,,,,,,,0,,,73,49
127920,note_on,60,0,3,,,,,,,,,2,,,62,0
127920,note_on,0,0,3,,,,,,,,,2,,,34,36
127920,note_on,0,0,1,,,,,,,,,0,,,70,49
127920,note_on,0,0,3,,,,,,,,,2,,,46,36
127926,note_on,6,0,3,,,,,,,,,2,,,46,0
127926,note_on,0,0,3,,,,,,,,,2,,,34,0
127926,note_on,0,0,1,,,,,,,,,0,,,70,0
127926,note_on,0,0,1,,,,,,,,,0,,,67,0
127926,note_on,0,0,1,,,,,,,,,0,,,64,0
127926,note_on,6,0,1,,,,,,,,,0,,,73,0
127980,note_on,0,0,1,,,,,,,,,0,,,67,49
127980,note_on,54,0,1,,,,,,,,,0,,,64,49
127980,note_on,0,0,1,,,,,,,,,0,,,73,49
127980,note_on,54,0,3,,,,,,,,,2,,,34,36
127980,note_on,0,0,1,,,,,,,,,0,,,70,49
127980,note_on,0,0,3,,,,,,,,,2,,,46,36
127986,note_on,0,0,1,,,,,,,,,0,,,64,0
127986,note_on,0,0,1,,,,,,,,,0,,,67,0
127986,note_on,0,0,1,,,,,,,,,0,,,70,0
127986,note_on,6,0,3,,,,,,,,,2,,,46,0
127986,note_on,6,0,1,,,,,,,,,0,,,73,0
127986,note_on,0,0,3,,,,,,,,,2,,,34,0
128040,note_on,54,0,1,,,,,,,,,0,,,64,49
128040,note_on,0,0,1,,,,,,,,,0,,,67,49
128040,note_on,0,0,1,,,,,,,,,0,,,70,49
128040,note_on,0,0,1,,,,,,,,,0,,,73,49
128040,note_on,0,0,3,,,,,,,,,2,,,46,36
128040,note_on,54,0,3,,,,,,,,,2,,,34,36
128046,note_on,6,0,1,,,,,,,,,0,,,73,0
128046,note_on,0,0,1,,,,,,,,,0,,,70,0
128046,note_on,0,0,1,,,,,,,,,0,,,67,0
128046,note_on,0,0,1,,,,,,,,,0,,,64,0
128046,note_on,6,0,3,,,,,,,,,2,,,46,0
128046,note_on,0,0,3,,,,,,,,,2,,,34,0
128100,note_on,0,0,1,,,,,,,,,0,,,73,49
128100,note_on,0,0,1,,,,,,,,,0,,,70,49
128100,note_on,0,0,1,,,,,,,,,0,,,67,49
128100,note_on,54,0,1,,,,,,,,,0,,,64,49
128100,note_on,54,0,3,,,,,,,,,2,,,34,36
128100,note_on,0,0,3,,,,,,,,,2,,,46,36
128106,note_on,0,0,1,,,,,,,,,0,,,70,0
128106,note_on,0,0,1,,,,,,,,,0,,,67,0
128106,note_on,0,0,1,,,,,,,,,0,,,64,0
128106,note_on,6,0,1,,,,,,,,,0,,,73,0
128106,note_on,6,0,3,,,,,,,,,2,,,46,0
128106,note_on,0,0,3,,,,,,,,,2,,,34,0
128160,note_on,0,0,1,,,,,,,,,0,,,70,49
128160,note_on,0,0,1,,,,,,,,,0,,,67,49
128160,note_on,54,0,1,,,,,,,,,0,,,64,49
128160,note_on,0,0,1,,,,,,,,,0,,,73,49
128160,note_on,54,0,3,,,,,,,,,2,,,34,36
128160,note_on,0,0,3,,,,,,,,,2,,,46,36
128280,note_on,0,0,1,,,,,,,,,0,,,67,0
128280,note_on,0,0,1,,,,,,,,,0,,,65,49
128280,note_on,0,0,1,,,,,,,,,0,,,74,49
128280,note_on,0,0,1,,,,,,,,,0,,,64,0
128280,note_on,120,0,1,,,,,,,,,0,,,73,0
128340,note_on,180,0,3,,,,,,,,,2,,,46,0
128340,note_on,0,0,3,,,,,,,,,2,,,34,0
128340,note_on,60,0,1,,,,,,,,,0,,,74,0
128340,note_on,0,0,1,,,,,,,,,0,,,65,0
128340,note_on,0,0,1,,,,,,,,,0,,,70,0
128400,note_on,60,0,1,,,,,,,,,0,,,65,49
128400,note_on,60,0,3,,,,,,,,,2,,,53,36
128439,note_on,39,0,3,,,,,,,,,2,,,55,36
128439,note_on,39,0,1,,,,,,,,,0,,,67,49
128440,note_on,1,0,1,,,,,,,,,0,,,65,0
128440,note_on,1,0,3,,,,,,,,,2,,,53,0
128479,note_on,39,0,1,,,,,,,,,0,,,67,0
128479,note_on,39,0,3,,,,,,,,,2,,,55,0
128480,note_on,1,0,3,,,,,,,,,2,,,57,36
128480,note_on,1,0,1,,,,,,,,,0,,,69,49
128520,note_on,40,0,3,,,,,,,,,2,,,57,0
128520,note_on,0,0,3,,,,,,,,,2,,,58,36
128520,note_on,40,0,1,,,,,,,,,0,,,69,0
128520,note_on,0,0,1,,,,,,,,,0,,,70,49
128559,note_on,39,0,3,,,,,,,,,2,,,60,36
128559,note_on,39,0,1,,,,,,,,,0,,,72,49
128560,note_on,1,0,1,,,,,,,,,0,,,70,0
128560,note_on,1,0,3,,,,,,,,,2,,,58,0
128599,note_on,39,0,3,,,,,,,,,2,,,60,0
128599,note_on,39,0,1,,,,,,,,,0,,,72,0
128600,note_on,1,0,1,,,,,,,,,0,,,74,49
128600,note_on,1,0,3,,,,,,,,,2,,,62,36
128640,note_on,0,0,1,,,,,,,,,0,,,75,67
128640,note_on,0,0,1,,,,,,,,,0,,,79,75
128640,note_on,40,0,1,,,,,,,,,0,,,74,0
128640,note_on,40,0,3,,,,,,,,,2,,,62,0
128640,note_on,0,0,3,,,,,,,,,2,,,51,62
128700,note_on,0,0,1,,,,,,,,,0,,,75,0
128700,note_on,60,0,1,,,,,,,,,0,,,79,0
128700,note_on,60,0,3,,,,,,,,,2,,,51,0
128700,note_on,0,0,3,,,,,,,,,2,,,58,36
128700,note_on,0,0,1,,,,,,,,,0,,,67,49
128760,note_on,0,0,1,,,,,,,,,0,,,74,67
128760,note_on,60,0,3,,,,,,,,,2,,,58,0
128760,note_on,60,0,1,,,,,,,,,0,,,67,0
128760,note_on,0,0,1,,,,,,,,,0,,,77,75
128760,note_on,0,0,3,,,,,,,,,2,,,58,62
128820,note_on,0,0,3,,,,,,,,,2,,,62,36
128820,note_on,60,0,1,,,,,,,,,0,,,77,0
128820,note_on,0,0,1,,,,,,,,,0,,,74,0
128820,note_on,0,0,1,,,,,,,,,0,,,65,49
128820,note_on,60,0,3,,,,,,,,,2,,,58,0
128880,note_on,60,0,1,,,,,,,,,0,,,65,0
128880,note_on,0,0,1,,,,,,,,,0,,,67,49
128880,note_on,0,0,1,,,,,,,,,0,,,71,49
128880,note_on,0,0,1,,,,,,,,,0,,,73,49
128880,note_on,0,0,1,,,,,,,,,0,,,64,49
128880,note_on,60,0,3,,,,,,,,,2,,,62,0
128880,note_on,0,0,3,,,,,,,,,2,,,34,36
128880,note_on,0,0,3,,,,,,,,,2,,,46,36
128886,note_on,6,0,3,,,,,,,,,2,,,46,0
128886,note_on,0,0,3,,,,,,,,,2,,,34,0
128940,note_on,0,0,1,,,,,,,,,0,,,73,49
128940,note_on,0,0,1,,,,,,,,,0,,,70,49
128940,note_on,0,0,1,,,,,,,,,0,,,67,49
128940,note_on,0,0,1,,,,,,,,,0,,,64,49
128940,note_on,0,0,1,,,,,,,,,0,,,67,0
128940,note_on,0,0,1,,,,,,,,,0,,,71,0
128940,note_on,60,0,1,,,,,,,,,0,,,73,0
128940,note_on,0,0,3,,,,,,,,,2,,,46,36
128940,note_on,54,0,3,,,,,,,,,2,,,34,36
128940,note_on,0,0,1,,,,,,,,,0,,,64,0
128946,note_on,0,0,3,,,,,,,,,2,,,34,0
128946,note_on,6,0,3,,,,,,,,,2,,,46,0
128946,note_on,6,0,1,,,,,,,,,0,,,73,0
128946,note_on,0,0,1,,,,,,,,,0,,,64,0
128946,note_on,0,0,1,,,,,,,,,0,,,67,0
128946,note_on,0,0,1,,,,,,,,,0,,,70,0
129000,note_on,0,0,1,,,,,,,,,0,,,73,49
129000,note_on,54,0,1,,,,,,,,,0,,,64,49
129000,note_on,0,0,1,,,,,,,,,0,,,67,49
129000,note_on,0,0,1,,,,,,,,,0,,,70,49
129000,note_on,54,0,3,,,,,,,,,2,,,34,36
129000,note_on,0,0,3,,,,,,,,,2,,,46,36
129006,note_on,0,0,1,,,,,,,,,0,,,70,0
129006,note_on,6,0,3,,,,,,,,,2,,,46,0
129006,note_on,0,0,1,,,,,,,,,0,,,67,0
129006,note_on,0,0,3,,,,,,,,,2,,,34,0
129006,note_on,0,0,1,,,,,,,,,0,,,64,0
129006,note_on,6,0,1,,,,,,,,,0,,,73,0
129060,note_on,0,0,1,,,,,,,,,0,,,73,49
129060,note_on,0,0,3,,,,,,,,,2,,,46,36
129060,note_on,0,0,1,,,,,,,,,0,,,70,49
129060,note_on,54,0,1,,,,,,,,,0,,,64,49
129060,note_on,0,0,1,,,,,,,,,0,,,67,49
129060,note_on,54,0,3,,,,,,,,,2,,,34,36
129066,note_on,6,0,1,,,,,,,,,0,,,73,0
129066,note_on,0,0,1,,,,,,,,,0,,,64,0
129066,note_on,6,0,3,,,,,,,,,2,,,46,0
129066,note_on,0,0,1,,,,,,,,,0,,,70,0
129066,note_on,0,0,1,,,,,,,,,0,,,67,0
129066,note_on,0,0,3,,,,,,,,,2,,,34,0
129120,note_on,54,0,1,,,,,,,,,0,,,64,49
129120,note_on,0,0,1,,,,,,,,,0,,,67,49
129120,note_on,0,0,1,,,,,,,,,0,,,73,49
129120,note_on,0,0,3,,,,,,,,,2,,,46,36
129120,note_on,54,0,3,,,,,,,,,2,,,34,36
129120,note_on,0,0,1,,,,,,,,,0,,,70,49
129240,note_on,0,0,1,,,,,,,,,0,,,74,49
129240,note_on,0,0,1,,,,,,,,,0,,,67,0
129240,note_on,0,0,1,,,,,,,,,0,,,64,0
129240,note_on,120,0,1,,,,,,,,,0,,,73,0
129240,note_on,0,0,1,,,,,,,,,0,,,65,49
129300,note_on,0,0,1,,,,,,,,,0,,,70,0
129300,note_on,0,0,3,,,,,,,,,2,,,34,0
129300,note_on,0,0,1,,,,,,,,,0,,,65,0
129300,note_on,180,0,3,,,,,,,,,2,,,46,0
129300,note_on,60,0,1,,,,,,,,,0,,,74,0
129360,note_on,60,0,1,,,,,,,,,0,,,65,49
129360,note_on,60,0,3,,,,,,,,,2,,,53,36
129399,note_on,39,0,1,,,,,,,,,0,,,67,49
129399,note_on,39,0,3,,,,,,,,,2,,,55,36
129400,note_on,1,0,3,,,,,,,,,2,,,53,0
129400,note_on,1,0,1,,,,,,,,,0,,,65,0
129439,note_on,39,0,3,,,,,,,,,2,,,55,0
129439,note_on,39,0,1,,,,,,,,,0,,,67,0
129440,note_on,1,0,3,,,,,,,,,2,,,57,36
129440,note_on,1,0,1,,,,,,,,,0,,,69,49
129480,note_on,40,0,1,,,,,,,,,0,,,69,0
129480,note_on,40,0,3,,,,,,,,,2,,,57,0
129480,note_on,0,0,3,,,,,,,,,2,,,58,36
129480,note_on,0,0,1,,,,,,,,,0,,,70,49
129519,note_on,39,0,1,,,,,,,,,0,,,72,49
129519,note_on,39,0,3,,,,,,,,,2,,,60,36
129520,note_on,1,0,1,,,,,,,,,0,,,70,0
129520,note_on,1,0,3,,,,,,,,,2,,,58,0
129559,note_on,39,0,3,,,,,,,,,2,,,60,0
129559,note_on,39,0,1,,,,,,,,,0,,,72,0
129560,note_on,1,0,3,,,,,,,,,2,,,62,36
129560,note_on,1,0,1,,,,,,,,,0,,,74,49
129600,note_on,40,0,3,,,,,,,,,2,,,62,0
129600,note_on,0,0,3,,,,,,,,,2,,,63,36
129600,control_change,0,0,3,,,,,,,,,2,64,127,,
129600,note_on,40,0,1,,,,,,,,,0,,,74,0
129600,control_change,0,0,1,,,,,,,,,0,64,127,,
129600,note_on,0,0,1,,,,,,,,,0,,,75,49
129639,note_on,39,0,3,,,,,,,,,2,,,65,36
129639,note_on,39,0,1,,,,,,,,,0,,,77,49
129640,note_on,1,0,1,,,,,,,,,0,,,75,0
129640,note_on,1,0,3,,,,,,,,,2,,,63,0
129679,note_on,39,0,3,,,,,,,,,2,,,65,0
129679,note_on,39,0,1,,,,,,,,,0,,,77,0
129680,note_on,1,0,1,,,,,,,,,0,,,79,49
129680,note_on,1,0,3,,,,,,,,,2,,,67,36
129720,note_on,0,0,1,,,,,,,,,0,,,77,49
129720,note_on,0,0,3,,,,,,,,,2,,,65,36
129720,note_on,40,0,3,,,,,,,,,2,,,67,0
129720,note_on,40,0,1,,,,,,,,,0,,,79,0
129759,note_on,39,0,1,,,,,,,,,0,,,75,49
129759,note_on,39,0,3,,,,,,,,,2,,,63,36
129760,note_on,1,0,1,,,,,,,,,0,,,77,0
129760,note_on,1,0,3,,,,,,,,,2,,,65,0
129799,note_on,39,0,1,,,,,,,,,0,,,75,0
129799,note_on,39,0,3,,,,,,,,,2,,,63,0
129800,note_on,1,0,3,,,,,,,,,2,,,62,36
129800,note_on,1,0,1,,,,,,,,,0,,,74,49
129840,control_change,0,0,1,,,,,,,,,0,64,0,,
129840,note_on,40,0,3,,,,,,,,,2,,,62,0
129840,note_on,0,0,1,,,,,,,,,0,,,73,49
129840,note_on,0,0,3,,,,,,,,,2,,,61,36
129840,note_on,40,0,1,,,,,,,,,0,,,74,0
129840,control_change,0,0,3,,,,,,,,,2,64,0,,
129879,note_on,39,0,3,,,,,,,,,2,,,58,36
129879,note_on,39,0,1,,,,,,,,,0,,,70,49
129880,note_on,1,0,3,,,,,,,,,2,,,61,0
129880,note_on,1,0,1,,,,,,,,,0,,,73,0
129919,note_on,39,0,3,,,,,,,,,2,,,58,0
129919,note_on,39,0,1,,,,,,,,,0,,,70,0
129920,note_on,1,0,3,,,,,,,,,2,,,55,36
129920,note_on,1,0,1,,,,,,,,,0,,,67,49
129960,note_on,0,0,3,,,,,,,,,2,,,52,36
129960,note_on,40,0,3,,,,,,,,,2,,,55,0
129960,note_on,0,0,1,,,,,,,,,0,,,64,49
129960,note_on,40,0,1,,,,,,,,,0,,,67,0
129999,note_on,39,0,3,,,,,,,,,2,,,49,36
129999,note_on,39,0,1,,,,,,,,,0,,,61,49
130000,note_on,1,0,1,,,,,,,,,0,,,64,0
130000,note_on,1,0,3,,,,,,,,,2,,,52,0
130039,note_on,39,0,3,,,,,,,,,2,,,49,0
130039,note_on,39,0,1,,,,,,,,,0,,,61,0
130040,note_on,1,0,3,,,,,,,,,2,,,52,36
130040,note_on,1,0,1,,,,,,,,,0,,,64,49
130080,note_on,0,0,3,,,,,,,,,2,,,53,36
130080,control_change,0,0,3,,,,,,,,,2,64,127,,
130080,note_on,40,0,3,,,,,,,,,2,,,52,0
130080,note_on,40,0,1,,,,,,,,,0,,,64,0
130080,control_change,0,0,1,,,,,,,,,0,64,127,,
130080,note_on,0,0,1,,,,,,,,,0,,,65,49
130119,note_on,39,0,1,,,,,,,,,0,,,62,49
130119,note_on,39,0,3,,,,,,,,,2,,,50,36
130120,note_on,1,0,3,,,,,,,,,2,,,53,0
130120,note_on,1,0,1,,,,,,,,,0,,,65,0
130159,note_on,39,0,1,,,,,,,,,0,,,62,0
130159,note_on,39,0,3,,,,,,,,,2,,,50,0
130160,note_on,1,0,1,,,,,,,,,0,,,65,49
130160,note_on,1,0,3,,,,,,,,,2,,,53,36
130200,note_on,0,0,1,,,,,,,,,0,,,62,49
130200,note_on,40,0,1,,,,,,,,,0,,,65,0
130200,note_on,0,0,3,,,,,,,,,2,,,50,36
130200,note_on,40,0,3,,,,,,,,,2,,,53,0
130239,note_on,39,0,1,,,,,,,,,0,,,58,49
130239,note_on,39,0,3,,,,,,,,,2,,,46,36
130240,note_on,1,0,3,,,,,,,,,2,,,50,0
130240,note_on,1,0,1,,,,,,,,,0,,,62,0
130279,note_on,39,0,3,,,,,,,,,2,,,46,0
130279,note_on,39,0,1,,,,,,,,,0,,,58,0
130280,note_on,1,0,1,,,,,,,,,0,,,62,49
130280,note_on,1,0,3,,,,,,,,,2,,,50,36
130320,control_change,0,0,3,,,,,,,,,2,64,0,,
130320,note_on,0,0,3,,,,,,,,,2,,,53,36
130320,note_on,0,0,1,,,,,,,,,0,,,65,49
130320,control_change,0,0,1,,,,,,,,,0,64,0,,
130320,note_on,40,0,1,,,,,,,,,0,,,62,0
130320,note_on,40,0,3,,,,,,,,,2,,,50,0
130359,note_on,39,0,3,,,,,,,,,2,,,55,36
130359,note_on,39,0,1,,,,,,,,,0,,,67,49
130360,note_on,1,0,1,,,,,,,,,0,,,65,0
130360,note_on,1,0,3,,,,,,,,,2,,,53,0
130399,note_on,39,0,1,,,,,,,,,0,,,67,0
130399,note_on,39,0,3,,,,,,,,,2,,,55,0
130400,note_on,1,0,3,,,,,,,,,2,,,57,36
130400,note_on,1,0,1,,,,,,,,,0,,,69,49
130440,note_on,0,0,3,,,,,,,,,2,,,58,36
130440,note_on,40,0,1,,,,,,,,,0,,,69,0
130440,note_on,0,0,1,,,,,,,,,0,,,70,49
130440,note_on,40,0,3,,,,,,,,,2,,,57,0
130479,note_on,39,0,3,,,,,,,,,2,,,60,36
130479,note_on,39,0,1,,,,,,,,,0,,,72,49
130480,note_on,1,0,1,,,,,,,,,0,,,70,0
130480,note_on,1,0,3,,,,,,,,,2,,,58,0
130519,note_on,39,0,1,,,,,,,,,0,,,72,0
130519,note_on,39,0,3,,,,,,,,,2,,,60,0
130520,note_on,1,0,3,,,,,,,,,2,,,62,36
130520,note_on,1,0,1,,,,,,,,,0,,,74,49
130560,control_change,0,0,3,,,,,,,,,2,64,127,,
130560,note_on,40,0,3,,,,,,,,,2,,,62,0
130560,note_on,40,0,1,,,,,,,,,0,,,74,0
130560,control_change,0,0,1,,,,,,,,,0,64,127,,
130560,note_on,0,0,3,,,,,,,,,2,,,63,36
130560,note_on,0,0,1,,,,,,,,,0,,,75,49
130599,note_on,39,0,3,,,,,,,,,2,,,65,36
130599,note_on,39,0,1,,,,,,,,,0,,,77,49
130600,note_on,1,0,3,,,,,,,,,2,,,63,0
130600,note_on,1,0,1,,,,,,,,,0,,,75,0
130639,note_on,39,0,3,,,,,,,,,2,,,65,0
130639,note_on,39,0,1,,,,,,,,,0,,,77,0
130640,note_on,1,0,1,,,,,,,,,0,,,79,49
130640,note_on,1,0,3,,,,,,,,,2,,,67,36
130680,note_on,40,0,1,,,,,,,,,0,,,79,0
130680,note_on,0,0,1,,,,,,,,,0,,,77,49
130680,note_on,0,0,3,,,,,,,,,2,,,65,36
130680,note_on,40,0,3,,,,,,,,,2,,,67,0
130719,note_on,39,0,1,,,,,,,,,0,,,75,49
130719,note_on,39,0,3,,,,,,,,,2,,,63,36
130720,note_on,1,0,1,,,,,,,,,0,,,77,0
130720,note_on,1,0,3,,,,,,,,,2,,,65,0
130759,note_on,39,0,1,,,,,,,,,0,,,75,0
130759,note_on,39,0,3,,,,,,,,,2,,,63,0
130760,note_on,1,0,1,,,,,,,,,0,,,74,49
130760,note_on,1,0,3,,,,,,,,,2,,,62,36
130800,note_on,40,0,1,,,,,,,,,0,,,74,0
130800,note_on,0,0,1,,,,,,,,,0,,,73,49
130800,control_change,0,0,1,,,,,,,,,0,64,0,,
130800,note_on,40,0,3,,,,,,,,,2,,,62,0
130800,control_change,0,0,3,,,,,,,,,2,64,0,,
130800,note_on,0,0,3,,,,,,,,,2,,,61,36
130839,note_on,39,0,1,,,,,,,,,0,,,70,49
130839,note_on,39,0,3,,,,,,,,,2,,,58,36
130840,note_on,1,0,1,,,,,,,,,0,,,73,0
130840,note_on,1,0,3,,,,,,,,,2,,,61,0
130879,note_on,39,0,1,,,,,,,,,0,,,70,0
130879,note_on,39,0,3,,,,,,,,,2,,,58,0
130880,note_on,1,0,1,,,,,,,,,0,,,67,49
130880,note_on,1,0,3,,,,,,,,,2,,,55,36
130920,note_on,0,0,3,,,,,,,,,2,,,52,36
130920,note_on,0,0,1,,,,,,,,,0,,,64,49
130920,note_on,40,0,3,,,,,,,,,2,,,55,0
130920,note_on,40,0,1,,,,,,,,,0,,,67,0
130959,note_on,39,0,1,,,,,,,,,0,,,61,49
130959,note_on,39,0,3,,,,,,,,,2,,,49,36
130960,note_on,1,0,1,,,,,,,,,0,,,64,0
130960,note_on,1,0,3,,,,,,,,,2,,,52,0
130999,note_on,39,0,3,,,,,,,,,2,,,49,0
130999,note_on,39,0,1,,,,,,,,,0,,,61,0
131000,note_on,1,0,1,,,,,,,,,0,,,64,49
131000,note_on,1,0,3,,,,,,,,,2,,,52,36
131040,note_on,0,0,1,,,,,,,,,0,,,67,75
131040,control_change,0,0,1,,,,,,,,,0,64,127,,
131040,note_on,40,0,1,,,,,,,,,0,,,64,0
131040,note_on,0,0,3,,,,,,,,,2,,,43,62
131040,control_change,0,0,3,,,,,,,,,2,64,127,,
131040,note_on,40,0,3,,,,,,,,,2,,,52,0
131044,note_on,4,0,1,,,,,,,,,0,,,67,0
131079,note_on,39,0,3,,,,,,,,,2,,,40,36
131079,note_on,35,0,1,,,,,,,,,0,,,64,49
131080,note_on,1,0,3,,,,,,,,,2,,,43,0
131119,note_on,39,0,3,,,,,,,,,2,,,40,0
131119,note_on,40,0,1,,,,,,,,,0,,,64,0
131120,note_on,1,0,1,,,,,,,,,0,,,67,49
131120,note_on,1,0,3,,,,,,,,,2,,,43,36
131160,note_on,40,0,3,,,,,,,,,2,,,43,0
131160,note_on,0,0,3,,,,,,,,,2,,,40,36
131160,note_on,40,0,1,,,,,,,,,0,,,67,0
131160,note_on,0,0,1,,,,,,,,,0,,,64,49
131199,note_on,39,0,1,,,,,,,,,0,,,61,49
131199,note_on,39,0,3,,,,,,,,,2,,,37,36
131200,note_on,1,0,1,,,,,,,,,0,,,64,0
131200,note_on,1,0,3,,,,,,,,,2,,,40,0
131239,note_on,39,0,1,,,,,,,,,0,,,61,0
131239,note_on,39,0,3,,,,,,,,,2,,,37,0
131240,control_change,1,0,3,,,,,,,,,2,64,0,,
131240,control_change,1,0,1,,,,,,,,,0,64,0,,
131240,note_on,0,0,1,,,,,,,,,0,,,64,49
131240,note_on,0,0,3,,,,,,,,,2,,,40,36
131280,control_change,0,0,1,,,,,,,,,0,64,127,,
131280,note_on,40,0,1,,,,,,,,,0,,,64,0
131280,control_change,0,0,3,,,,,,,,,2,64,127,,
131280,note_on,40,0,3,,,,,,,,,2,,,40,0
131280,note_on,0,0,3,,,,,,,,,2,,,44,101
131280,note_on,0,0,1,,,,,,,,,0,,,68,114
131284,note_on,4,0,1,,,,,,,,,0,,,68,0
131319,note_on,35,0,1,,,,,,,,,0,,,64,88
131319,note_on,39,0,3,,,,,,,,,2,,,40,75
131320,note_on,1,0,3,,,,,,,,,2,,,44,0
131359,note_on,40,0,1,,,,,,,,,0,,,64,0
131359,note_on,39,0,3,,,,,,,,,2,,,40,0
131360,note_on,1,0,1,,,,,,,,,0,,,68,88
131360,note_on,1,0,3,,,,,,,,,2,,,44,75
131400,note_on,40,0,1,,,,,,,,,0,,,68,0
131400,note_on,0,0,1,,,,,,,,,0,,,64,88
131400,note_on,0,0,3,,,,,,,,,2,,,40,75
131400,note_on,40,0,3,,,,,,,,,2,,,44,0
131439,note_on,39,0,3,,,,,,,,,2,,,37,75
131439,note_on,39,0,1,,,,,,,,,0,,,61,88
131440,note_on,1,0,3,,,,,,,,,2,,,40,0
131440,note_on,1,0,1,,,,,,,,,0,,,64,0
131479,note_on,39,0,1,,,,,,,,,0,,,61,0
131479,note_on,39,0,3,,,,,,,,,2,,,37,0
131480,note_on,0,0,1,,,,,,,,,0,,,64,88
131480,control_change,1,0,1,,,,,,,,,0,64,0,,
131480,control_change,1,0,3,,,,,,,,,2,64,0,,
131480,note_on,0,0,3,,,,,,,,,2,,,40,75
131520,note_on,0,0,1,,,,,,,,,0,,,69,114
131520,control_change,0,0,1,,,,,,,,,0,64,127,,
131520,note_on,40,0,3,,,,,,,,,2,,,40,0
131520,control_change,0,0,3,,,,,,,,,2,64,127,,
131520,note_on,40,0,1,,,,,,,,,0,,,64,0
131520,note_on,0,0,3,,,,,,,,,2,,,45,101
131559,note_on,39,0,1,,,,,,,,,0,,,64,88
131559,note_on,39,0,3,,,,,,,,,2,,,40,75
131560,note_on,1,0,1,,,,,,,,,0,,,69,0
131560,note_on,1,0,3,,,,,,,,,2,,,45,0
131599,note_on,39,0,1,,,,,,,,,0,,,64,0
131599,note_on,39,0,3,,,,,,,,,2,,,40,0
131600,note_on,1,0,3,,,,,,,,,2,,,45,75
131600,note_on,1,0,1,,,,,,,,,0,,,69,88
131640,note_on,40,0,1,,,,,,,,,0,,,69,0
131640,note_on,0,0,3,,,,,,,,,2,,,40,75
131640,note_on,0,0,1,,,,,,,,,0,,,64,88
131640,note_on,40,0,3,,,,,,,,,2,,,45,0
131679,note_on,39,0,1,,,,,,,,,0,,,61,88
131679,note_on,39,0,3,,,,,,,,,2,,,37,75
131680,note_on,1,0,3,,,,,,,,,2,,,40,0
131680,note_on,1,0,1,,,,,,,,,0,,,64,0
131719,note_on,39,0,1,,,,,,,,,0,,,61,0
131719,note_on,39,0,3,,,,,,,,,2,,,37,0
131720,note_on,0,0,3,,,,,,,,,2,,,40,75
131720,control_change,1,0,1,,,,,,,,,0,64,0,,
131720,note_on,0,0,1,,,,,,,,,0,,,64,88
131720,control_change,1,0,3,,,,,,,,,2,64,0,,
131760,note_on,40,0,1,,,,,,,,,0,,,64,0
131760,control_change,0,0,1,,,,,,,,,0,64,127,,
131760,note_on,0,0,1,,,,,,,,,0,,,69,114
131760,note_on,40,0,3,,,,,,,,,2,,,40,0
131760,note_on,0,0,3,,,,,,,,,2,,,45,101
131760,control_change,0,0,3,,,,,,,,,2,64,127,,
131799,note_on,39,0,3,,,,,,,,,2,,,40,75
131799,note_on,39,0,1,,,,,,,,,0,,,64,88
131800,note_on,1,0,1,,,,,,,,,0,,,69,0
131800,note_on,1,0,3,,,,,,,,,2,,,45,0
131839,note_on,39,0,1,,,,,,,,,0,,,64,0
131839,note_on,39,0,3,,,,,,,,,2,,,40,0
131840,note_on,1,0,1,,,,,,,,,0,,,69,88
131840,note_on,1,0,3,,,,,,,,,2,,,45,75
131880,note_on,0,0,1,,,,,,,,,0,,,64,88
131880,note_on,40,0,1,,,,,,,,,0,,,69,0
131880,note_on,0,0,3,,,,,,,,,2,,,40,75
131880,note_on,40,0,3,,,,,,,,,2,,,45,0
131919,note_on,39,0,1,,,,,,,,,0,,,60,88
131919,note_on,39,0,3,,,,,,,,,2,,,36,75
131920,note_on,1,0,1,,,,,,,,,0,,,64,0
131920,note_on,1,0,3,,,,,,,,,2,,,40,0
131959,note_on,39,0,3,,,,,,,,,2,,,36,0
131959,note_on,39,0,1,,,,,,,,,0,,,60,0
131960,note_on,0,0,3,,,,,,,,,2,,,40,75
131960,control_change,1,0,3,,,,,,,,,2,64,0,,
131960,control_change,1,0,1,,,,,,,,,0,64,0,,
131960,note_on,0,0,1,,,,,,,,,0,,,64,88
132000,note_on,0,0,3,,,,,,,,,2,,,35,101
132000,control_change,0,0,3,,,,,,,,,2,64,127,,
132000,note_on,40,0,1,,,,,,,,,0,,,64,0
132000,control_change,0,0,1,,,,,,,,,0,64,127,,
132000,note_on,0,0,1,,,,,,,,,0,,,74,114
132000,note_on,40,0,3,,,,,,,,,2,,,40,0
132039,note_on,39,0,3,,,,,,,,,2,,,41,75
132039,note_on,39,0,1,,,,,,,,,0,,,69,88
132040,note_on,1,0,3,,,,,,,,,2,,,35,0
132040,note_on,1,0,1,,,,,,,,,0,,,74,0
132079,note_on,39,0,3,,,,,,,,,2,,,41,0
132079,note_on,39,0,1,,,,,,,,,0,,,69,0
132080,note_on,1,0,1,,,,,,,,,0,,,74,88
132080,note_on,1,0,3,,,,,,,,,2,,,35,75
132120,note_on,40,0,1,,,,,,,,,0,,,74,0
132120,note_on,0,0,3,,,,,,,,,2,,,41,75
132120,note_on,40,0,3,,,,,,,,,2,,,35,0
132120,note_on,0,0,1,,,,,,,,,0,,,69,88
132159,note_on,39,0,3,,,,,,,,,2,,,47,75
132159,note_on,39,0,1,,,,,,,,,0,,,62,88
132160,note_on,1,0,1,,,,,,,,,0,,,69,0
132160,note_on,1,0,3,,,,,,,,,2,,,41,0
132199,note_on,39,0,1,,,,,,,,,0,,,62,0
132199,note_on,39,0,3,,,,,,,,,2,,,47,0
132200,note_on,0,0,1,,,,,,,,,0,,,69,88
132200,control_change,1,0,3,,,,,,,,,2,64,0,,
132200,note_on,0,0,3,,,,,,,,,2,,,41,75
132200,control_change,1,0,1,,,,,,,,,0,64,0,,
132240,note_on,40,0,3,,,,,,,,,2,,,41,0
132240,control_change,0,0,3,,,,,,,,,2,64,127,,
132240,note_on,0,0,3,,,,,,,,,2,,,34,101
132240,note_on,40,0,1,,,,,,,,,0,,,69,0
132240,control_change,0,0,1,,,,,,,,,0,64,127,,
132240,note_on,0,0,1,,,,,,,,,0,,,80,114
132279,note_on,39,0,1,,,,,,,,,0,,,74,88
132279,note_on,39,0,3,,,,,,,,,2,,,41,75
132280,note_on,1,0,1,,,,,,,,,0,,,80,0
132280,note_on,1,0,3,,,,,,,,,2,,,34,0
132319,note_on,39,0,1,,,,,,,,,0,,,74,0
132319,note_on,39,0,3,,,,,,,,,2,,,41,0
132320,note_on,1,0,1,,,,,,,,,0,,,80,88
132320,note_on,1,0,3,,,,,,,,,2,,,34,75
132360,note_on,40,0,1,,,,,,,,,0,,,80,0
132360,note_on,0,0,1,,,,,,,,,0,,,74,88
132360,note_on,0,0,3,,,,,,,,,2,,,41,75
132360,note_on,40,0,3,,,,,,,,,2,,,34,0
132399,note_on,39,0,1,,,,,,,,,0,,,68,88
132399,note_on,39,0,3,,,,,,,,,2,,,46,75
132400,note_on,1,0,3,,,,,,,,,2,,,41,0
132400,note_on,1,0,1,,,,,,,,,0,,,74,0
132439,note_on,39,0,3,,,,,,,,,2,,,46,0
132439,note_on,39,0,1,,,,,,,,,0,,,68,0
132440,note_on,0,0,1,,,,,,,,,0,,,74,88
132440,control_change,1,0,3,,,,,,,,,2,64,0,,
132440,note_on,0,0,3,,,,,,,,,2,,,41,75
132440,control_change,1,0,1,,,,,,,,,0,64,0,,
132480,note_on,0,0,1,,,,,,,,,0,,,76,114
132480,note_on,0,0,1,,,,,,,,,0,,,81,114
132480,note_on,40,0,1,,,,,,,,,0,,,74,0
132480,note_on,0,0,1,,,,,,,,,0,,,73,114
132480,note_on,0,0,1,,,,,,,,,0,,,69,114
132480,note_on,0,0,3,,,,,,,,,2,,,45,101
132480,note_on,0,0,3,,,,,,,,,2,,,33,101
132480,note_on,40,0,3,,,,,,,,,2,,,41,0
132720,note_on,0,0,3,,,,,,,,,2,,,66,36
132720,note_on,0,0,3,,,,,,,,,2,,,57,36
132720,note_on,0,0,3,,,,,,,,,2,,,33,0
132720,note_on,240,0,3,,,,,,,,,2,,,45,0
132720,note_on,0,0,1,,,,,,,,,0,,,75,49
132720,note_on,0,0,1,,,,,,,,,0,,,72,49
132720,note_on,0,0,1,,,,,,,,,0,,,76,0
132720,note_on,0,0,1,,,,,,,,,0,,,73,0
132720,note_on,0,0,1,,,,,,,,,0,,,69,0
132720,note_on,240,0,1,,,,,,,,,0,,,81,0
132780,note_on,0,0,1,,,,,,,,,0,,,75,49
132780,note_on,0,0,1,,,,,,,,,0,,,72,49
132780,note_on,60,0,1,,,,,,,,,0,,,75,0
132780,note_on,0,0,3,,,,,,,,,2,,,57,36
132780,note_on,0,0,3,,,,,,,,,2,,,57,0
132780,note_on,60,0,3,,,,,,,,,2,,,66,0
132780,note_on,0,0,3,,,,,,,,,2,,,66,36
132780,note_on,0,0,1,,,,,,,,,0,,,72,0
132840,note_on,0,0,3,,,,,,,,,2,,,66,36
132840,note_on,60,0,1,,,,,,,,,0,,,75,0
132840,note_on,0,0,1,,,,,,,,,0,,,72,0
132840,note_on,60,0,3,,,,,,,,,2,,,66,0
132840,note_on,0,0,3,,,,,,,,,2,,,57,0
132840,note_on,0,0,3,,,,,,,,,2,,,57,36
132840,note_on,0,0,1,,,,,,,,,0,,,72,49
132840,note_on,0,0,1,,,,,,,,,0,,,75,49
132900,note_on,60,0,1,,,,,,,,,0,,,75,0
132900,note_on,0,0,1,,,,,,,,,0,,,72,0
132900,note_on,0,0,1,,,,,,,,,0,,,72,49
132900,note_on,0,0,1,,,,,,,,,0,,,75,49
132900,note_on,0,0,3,,,,,,,,,2,,,57,36
132900,note_on,0,0,3,,,,,,,,,2,,,66,36
132900,note_on,60,0,3,,,,,,,,,2,,,66,0
132900,note_on,0,0,3,,,,,,,,,2,,,57,0
132960,note_on,0,0,3,,,,,,,,,2,,,69,36
132960,note_on,0,0,1,,,,,,,,,0,,,72,0
132960,note_on,60,0,1,,,,,,,,,0,,,75,0
132960,note_on,0,0,1,,,,,,,,,0,,,76,49
132960,note_on,0,0,1,,,,,,,,,0,,,73,49
132960,note_on,0,0,3,,,,,,,,,2,,,57,36
132960,note_on,0,0,3,,,,,,,,,2,,,57,0
132960,note_on,60,0,3,,,,,,,,,2,,,66,0
133080,note_on,0,0,1,,,,,,,,,0,,,85,49
133080,note_on,0,0,1,,,,,,,,,0,,,73,0
133080,note_on,120,0,1,,,,,,,,,0,,,76,0
133080,note_on,120,0,3,,,,,,,,,2,,,69,0
133080,note_on,0,0,3,,,,,,,,,2,,,64,36
133140,note_on,60,0,1,,,,,,,,,0,,,85,0
133140,note_on,0,0,3,,,,,,,,,2,,,37,75
133140,note_on,0,0,3,,,,,,,,,2,,,57,0
133140,note_on,60,0,3,,,,,,,,,2,,,64,0
133140,note_on,45000,0,2,,,,,,,,,1,,,49,88
133200,note_on,0,0,3,,,,,,,,,2,,,38,75
133200,note_on,60,0,3,,,,,,,,,2,,,37,0
133200,note_on,60,0,2,,,,,,,,,1,,,49,0
133200,note_on,0,0,2,,,,,,,,,1,,,50,88
133239,note_on,39,0,3,,,,,,,,,2,,,37,75
133239,note_on,39,0,2,,,,,,,,,1,,,49,88
133240,note_on,1,0,3,,,,,,,,,2,,,38,0
133240,note_on,1,0,2,,,,,,,,,1,,,50,0
133279,note_on,39,0,3,,,,,,,,,2,,,37,0
133279,note_on,39,0,2,,,,,,,,,1,,,49,0
133280,note_on,1,0,3,,,,,,,,,2,,,35,75
133280,note_on,1,0,2,,,,,,,,,1,,,47,88
133320,note_on,0,0,2,,,,,,,,,1,,,53,88
133320,note_on,0,0,3,,,,,,,,,2,,,41,75
133320,note_on,40,0,3,,,,,,,,,2,,,35,0
133320,note_on,40,0,2,,,,,,,,,1,,,47,0
133359,note_on,39,0,3,,,,,,,,,2,,,40,75
133359,note_on,39,0,2,,,,,,,,,1,,,52,88
133360,note_on,1,0,2,,,,,,,,,1,,,53,0
133360,note_on,1,0,3,,,,,,,,,2,,,41,0
133399,note_on,39,0,2,,,,,,,,,1,,,52,0
133399,note_on,39,0,3,,,,,,,,,2,,,40,0
133400,note_on,1,0,2,,,,,,,,,1,,,50,88
133400,note_on,1,0,3,,,,,,,,,2,,,38,75
133440,note_on,0,0,2,,,,,,,,,1,,,49,49
133440,note_on,40,0,2,,,,,,,,,1,,,50,0
133440,note_on,40,0,3,,,,,,,,,2,,,38,0
133440,note_on,0,0,3,,,,,,,,,2,,,40,75
133479,note_on,39,0,2,,,,,,,,,1,,,50,49
133480,note_on,1,0,2,,,,,,,,,1,,,49,0
133500,note_on,60,0,3,,,,,,,,,2,,,40,0
133519,note_on,39,0,2,,,,,,,,,1,,,50,0
133520,note_on,1,0,2,,,,,,,,,1,,,52,49
133560,note_on,30180,0,4,,,,,,,,,3,,,73,49
133560,note_on,0,0,4,,,,,,,,,3,,,76,49
133560,note_on,40,0,2,,,,,,,,,1,,,52,0
133560,note_on,0,0,2,,,,,,,,,1,,,54,49
133599,note_on,39,0,2,,,,,,,,,1,,,56,49
133600,note_on,1,0,2,,,,,,,,,1,,,54,0
133639,note_on,39,0,2,,,,,,,,,1,,,56,0
133640,note_on,0,0,2,,,,,,,,,1,,,57,49
133640,control_change,1,0,2,,,,,,,,,1,64,0,,
133650,note_on,90,0,4,,,,,,,,,3,,,76,0
133650,note_on,0,0,4,,,,,,,,,3,,,73,49
133650,note_on,0,0,4,,,,,,,,,3,,,73,0
133650,note_on,0,0,4,,,,,,,,,3,,,76,49
133680,note_on,540,0,1,,,,,,,,,0,,,59,75
133680,note_on,0,0,4,,,,,,,,,3,,,71,49
133680,note_on,30,0,4,,,,,,,,,3,,,76,0
133680,note_on,40,0,2,,,,,,,,,1,,,57,0
133680,note_on,0,0,4,,,,,,,,,3,,,73,0
133680,note_on,0,0,4,,,,,,,,,3,,,74,49
133719,note_on,39,0,1,,,,,,,,,0,,,61,75
133720,note_on,1,0,1,,,,,,,,,0,,,59,0
133740,note_on,0,0,4,,,,,,,,,3,,,71,0
133740,note_on,60,0,4,,,,,,,,,3,,,74,0
133759,note_on,39,0,1,,,,,,,,,0,,,61,0
133760,note_on,260,0,3,,,,,,,,,2,,,52,62
133760,note_on,1,0,1,,,,,,,,,0,,,62,75
133800,note_on,40,0,1,,,,,,,,,0,,,62,0
133800,note_on,40,0,3,,,,,,,,,2,,,52,0
133800,note_on,0,0,3,,,,,,,,,2,,,50,62
133800,note_on,0,0,1,,,,,,,,,0,,,64,75
133839,note_on,39,0,3,,,,,,,,,2,,,49,62
133839,note_on,39,0,1,,,,,,,,,0,,,66,75
133840,note_on,1,0,3,,,,,,,,,2,,,50,0
133840,note_on,1,0,1,,,,,,,,,0,,,64,0
133879,note_on,39,0,3,,,,,,,,,2,,,49,0
133879,note_on,39,0,1,,,,,,,,,0,,,66,0
133880,note_on,1,0,3,,,,,,,,,2,,,47,62
133880,note_on,1,0,1,,,,,,,,,0,,,68,75
133920,note_on,40,0,1,,,,,,,,,0,,,68,0
133920,note_on,0,0,1,,,,,,,,,0,,,69,101
133920,note_on,0,0,1,,,,,,,,,0,,,73,101
133920,note_on,0,0,1,,,,,,,,,0,,,76,101
133920,note_on,0,0,1,,,,,,,,,0,,,81,101
133920,note_on,0,0,3,,,,,,,,,2,,,33,88
133920,note_on,0,0,3,,,,,,,,,2,,,45,88
133920,note_on,40,0,3,,,,,,,,,2,,,47,0
134160,note_on,240,0,3,,,,,,,,,2,,,45,0
134160,note_on,0,0,3,,,,,,,,,2,,,33,0
134160,note_on,0,0,3,,,,,,,,,2,,,57,36
134160,note_on,0,0,3,,,,,,,,,2,,,66,36
134160,note_on,0,0,1,,,,,,,,,0,,,76,0
134160,note_on,0,0,1,,,,,,,,,0,,,75,49
134160,note_on,0,0,1,,,,,,,,,0,,,72,49
134160,note_on,0,0,1,,,,,,,,,0,,,73,0
134160,note_on,0,0,1,,,,,,,,,0,,,69,0
134160,note_on,240,0,1,,,,,,,,,0,,,81,0
134250,note_on,0,0,1,,,,,,,,,0,,,75,49
134250,note_on,0,0,3,,,,,,,,,2,,,66,36
134250,note_on,0,0,3,,,,,,,,,2,,,57,36
134250,note_on,0,0,3,,,,,,,,,2,,,57,0
134250,note_on,90,0,3,,,,,,,,,2,,,66,0
134250,note_on,90,0,1,,,,,,,,,0,,,75,0
134250,note_on,0,0,1,,,,,,,,,0,,,72,0
134250,note_on,0,0,1,,,,,,,,,0,,,72,49
134280,note_on,0,0,3,,,,,,,,,2,,,57,0
134280,note_on,0,0,3,,,,,,,,,2,,,57,36
134280,note_on,0,0,1,,,,,,,,,0,,,75,49
134280,note_on,0,0,1,,,,,,,,,0,,,72,49
134280,note_on,0,0,1,,,,,,,,,0,,,72,0
134280,note_on,30,0,1,,,,,,,,,0,,,75,0
134280,note_on,30,0,3,,,,,,,,,2,,,66,0
134280,note_on,0,0,3,,,,,,,,,2,,,66,36
134370,note_on,0,0,1,,,,,,,,,0,,,75,49
134370,note_on,0,0,3,,,,,,,,,2,,,66,36
134370,note_on,0,0,1,,,,,,,,,0,,,72,49
134370,note_on,0,0,1,,,,,,,,,0,,,72,0
134370,note_on,90,0,3,,,,,,,,,2,,,66,0
134370,note_on,90,0,1,,,,,,,,,0,,,75,0
134370,note_on,0,0,3,,,,,,,,,2,,,57,36
134370,note_on,0,0,3,,,,,,,,,2,,,57,0
134400,note_on,0,0,1,,,,,,,,,0,,,73,49
134400,note_on,0,0,1,,,,,,,,,0,,,72,0
134400,note_on,30,0,1,,,,,,,,,0,,,75,0
134400,note_on,0,0,1,,,,,,,,,0,,,76,49
134400,note_on,0,0,3,,,,,,,,,2,,,57,36
134400,note_on,0,0,3,,,,,,,,,2,,,69,36
134400,note_on,0,0,3,,,,,,,,,2,,,57,0
134400,note_on,30,0,3,,,,,,,,,2,,,66,0
134520,note_on,120,0,1,,,,,,,,,0,,,76,0
134520,note_on,0,0,1,,,,,,,,,0,,,73,0
134520,note_on,0,0,1,,,,,,,,,0,,,85,49
134520,note_on,120,0,3,,,,,,,,,2,,,69,0
134520,note_on,0,0,3,,,,,,,,,2,,,64,36
134580,note_on,0,0,3,,,,,,,,,2,,,37,75
134580,note_on,900,0,2,,,,,,,,,1,,,49,88
134580,note_on,0,0,3,,,,,,,,,2,,,57,0
134580,note_on,60,0,1,,,,,,,,,0,,,85,0
134580,note_on,60,0,3,,,,,,,,,2,,,64,0
134640,note_on,60,0,3,,,,,,,,,2,,,37,0
134640,note_on,0,0,3,,,,,,,,,2,,,38,75
134640,note_on,60,0,2,,,,,,,,,1,,,49,0
134640,note_on,0,0,2,,,,,,,,,1,,,50,88
134679,note_on,39,0,2,,,,,,,,,1,,,49,88
134679,note_on,39,0,3,,,,,,,,,2,,,37,75
134680,note_on,1,0,2,,,,,,,,,1,,,50,0
134680,note_on,1,0,3,,,,,,,,,2,,,38,0
134719,note_on,39,0,3,,,,,,,,,2,,,37,0
134719,note_on,39,0,2,,,,,,,,,1,,,49,0
134720,note_on,1,0,3,,,,,,,,,2,,,35,75
134720,note_on,1,0,2,,,,,,,,,1,,,47,88
134760,note_on,0,0,3,,,,,,,,,2,,,41,75
134760,note_on,40,0,3,,,,,,,,,2,,,35,0
134760,note_on,40,0,2,,,,,,,,,1,,,47,0
134760,note_on,0,0,2,,,,,,,,,1,,,53,88
134799,note_on,39,0,3,,,,,,,,,2,,,40,75
134799,note_on,39,0,2,,,,,,,,,1,,,52,88
134800,note_on,1,0,2,,,,,,,,,1,,,53,0
134800,note_on,1,0,3,,,,,,,,,2,,,41,0
134839,note_on,39,0,2,,,,,,,,,1,,,52,0
134839,note_on,39,0,3,,,,,,,,,2,,,40,0
134840,note_on,1,0,3,,,,,,,,,2,,,38,75
134840,note_on,1,0,2,,,,,,,,,1,,,50,88
134880,note_on,40,0,3,,,,,,,,,2,,,38,0
134880,note_on,0,0,3,,,,,,,,,2,,,40,75
134880,note_on,0,0,2,,,,,,,,,1,,,49,49
134880,note_on,40,0,2,,,,,,,,,1,,,50,0
134880,control_change,0,0,2,,,,,,,,,1,64,127,,
134919,note_on,39,0,2,,,,,,,,,1,,,50,49
134920,note_on,1,0,2,,,,,,,,,1,,,49,0
134940,note_on,60,0,3,,,,,,,,,2,,,40,0
134959,note_on,39,0,2,,,,,,,,,1,,,50,0
134960,note_on,1,0,2,,,,,,,,,1,,,52,49
135000,note_on,1260,0,4,,,,,,,,,3,,,73,49
135000,note_on,0,0,4,,,,,,,,,3,,,76,49
135000,note_on,0,0,2,,,,,,,,,1,,,54,49
135000,note_on,40,0,2,,,,,,,,,1,,,52,0
135039,note_on,39,0,2,,,,,,,,,1,,,56,49
135040,note_on,1,0,2,,,,,,,,,1,,,54,0
135079,note_on,39,0,2,,,,,,,,,1,,,56,0
135080,note_on,0,0,2,,,,,,,,,1,,,57,49
135080,control_change,1,0,2,,,,,,,,,1,64,0,,
135090,note_on,0,0,4,,,,,,,,,3,,,76,49
135090,note_on,0,0,4,,,,,,,,,3,,,73,49
135090,note_on,0,0,4,,,,,,,,,3,,,73,0
135090,note_on,90,0,4,,,,,,,,,3,,,76,0
135120,note_on,0,0,4,,,,,,,,,3,,,74,49
135120,note_on,0,0,4,,,,,,,,,3,,,71,49
135120,note_on,0,0,4,,,,,,,,,3,,,73,0
135120,note_on,30,0,4,,,,,,,,,3,,,76,0
135120,note_on,540,0,1,,,,,,,,,0,,,59,75
135120,note_on,40,0,2,,,,,,,,,1,,,57,0
135159,note_on,39,0,1,,,,,,,,,0,,,61,75
135160,note_on,1,0,1,,,,,,,,,0,,,59,0
135180,note_on,60,0,4,,,,,,,,,3,,,74,0
135180,note_on,0,0,4,,,,,,,,,3,,,71,0
135199,note_on,39,0,1,,,,,,,,,0,,,61,0
135200,note_on,1,0,1,,,,,,,,,0,,,62,75
135200,note_on,260,0,3,,,,,,,,,2,,,52,62
135240,note_on,40,0,1,,,,,,,,,0,,,62,0
135240,note_on,0,0,1,,,,,,,,,0,,,64,75
135240,note_on,0,0,3,,,,,,,,,2,,,50,62
135240,note_on,40,0,3,,,,,,,,,2,,,52,0
135279,note_on,39,0,1,,,,,,,,,0,,,66,75
135279,note_on,39,0,3,,,,,,,,,2,,,49,62
135280,note_on,1,0,1,,,,,,,,,0,,,64,0
135280,note_on,1,0,3,,,,,,,,,2,,,50,0
135319,note_on,39,0,1,,,,,,,,,0,,,66,0
135319,note_on,39,0,3,,,,,,,,,2,,,49,0
135320,note_on,1,0,1,,,,,,,,,0,,,68,75
135320,note_on,1,0,3,,,,,,,,,2,,,47,62
135360,note_on,0,0,1,,,,,,,,,0,,,69,75
135360,control_change,0,0,1,,,,,,,,,0,64,127,,
135360,note_on,40,0,1,,,,,,,,,0,,,68,0
135360,note_on,0,0,3,,,,,,,,,2,,,45,62
135360,note_on,40,0,3,,,,,,,,,2,,,47,0
135399,note_on,39,0,1,,,,,,,,,0,,,71,75
135400,note_on,1,0,1,,,,,,,,,0,,,69,0
135420,note_on,60,0,3,,,,,,,,,2,,,45,0
135439,note_on,39,0,1,,,,,,,,,0,,,71,0
135440,note_on,1,0,1,,,,,,,,,0,,,73,75
135480,note_on,40,0,1,,,,,,,,,0,,,73,0
135480,note_on,0,0,1,,,,,,,,,0,,,74,75
135519,note_on,39,0,1,,,,,,,,,0,,,76,75
135520,note_on,1,0,1,,,,,,,,,0,,,74,0
135559,note_on,39,0,1,,,,,,,,,0,,,76,0
135560,note_on,1,0,1,,,,,,,,,0,,,78,75
135600,note_on,0,0,1,,,,,,,,,0,,,79,75
135600,note_on,40,0,1,,,,,,,,,0,,,78,0
135639,note_on,39,0,1,,,,,,,,,0,,,80,75
135640,note_on,1,0,1,,,,,,,,,0,,,79,0
135679,note_on,39,0,1,,,,,,,,,0,,,80,0
135680,note_on,1,0,1,,,,,,,,,0,,,81,75
135720,note_on,0,0,1,,,,,,,,,0,,,83,75
135720,note_on,40,0,1,,,,,,,,,0,,,81,0
135759,note_on,39,0,1,,,,,,,,,0,,,85,75
135760,note_on,1,0,1,,,,,,,,,0,,,83,0
135799,note_on,39,0,1,,,,,,,,,0,,,85,0
135800,note_on,1,0,1,,,,,,,,,0,,,86,75
135840,note_on,0,0,1,,,,,,,,,0,,,88,75
135840,note_on,40,0,1,,,,,,,,,0,,,86,0
135879,note_on,39,0,1,,,,,,,,,0,,,90,75
135880,note_on,1,0,1,,,,,,,,,0,,,88,0
135919,note_on,39,0,1,,,,,,,,,0,,,90,0
135920,note_on,1,0,1,,,,,,,,,0,,,88,75
135960,note_on,40,0,1,,,,,,,,,0,,,88,0
135960,note_on,0,0,1,,,,,,,,,0,,,86,75
135999,note_on,39,0,1,,,,,,,,,0,,,85,75
136000,note_on,1,0,1,,,,,,,,,0,,,86,0
136039,note_on,39,0,1,,,,,,,,,0,,,85,0
136040,note_on,1,0,1,,,,,,,,,0,,,83,75
136080,note_on,40,0,1,,,,,,,,,0,,,83,0
136080,note_on,0,0,1,,,,,,,,,0,,,81,75
136119,note_on,39,0,1,,,,,,,,,0,,,83,75
136120,note_on,1,0,1,,,,,,,,,0,,,81,0
136159,note_on,39,0,1,,,,,,,,,0,,,83,0
136160,note_on,1,0,1,,,,,,,,,0,,,81,75
136200,note_on,40,0,1,,,,,,,,,0,,,81,0
136200,control_change,0,0,1,,,,,,,,,0,64,0,,
136200,note_on,0,0,1,,,,,,,,,0,,,79,75
136239,note_on,39,0,1,,,,,,,,,0,,,78,75
136240,note_on,1,0,1,,,,,,,,,0,,,79,0
136279,note_on,39,0,1,,,,,,,,,0,,,78,0
136280,note_on,1,0,1,,,,,,,,,0,,,76,75
136320,note_on,0,0,1,,,,,,,,,0,,,74,75
136320,note_on,900,0,3,,,,,,,,,2,,,62,62
136320,note_on,40,0,1,,,,,,,,,0,,,76,0
136440,note_on,120,0,1,,,,,,,,,0,,,74,0
136440,note_on,0,0,1,,,,,,,,,0,,,66,49
136440,note_on,120,0,3,,,,,,,,,2,,,62,0
136440,note_on,0,0,3,,,,,,,,,2,,,54,36
136500,note_on,60,0,1,,,,,,,,,0,,,66,0
136500,note_on,60,0,3,,,,,,,,,2,,,54,0
136560,note_on,60,0,1,,,,,,,,,0,,,76,75
136560,note_on,60,0,3,,,,,,,,,2,,,64,62
136680,note_on,0,0,3,,,,,,,,,2,,,57,36
136680,note_on,0,0,1,,,,,,,,,0,,,69,49
136680,note_on,120,0,1,,,,,,,,,0,,,76,0
136680,note_on,120,0,3,,,,,,,,,2,,,64,0
136740,note_on,60,0,3,,,,,,,,,2,,,57,0
136740,note_on,60,0,1,,,,,,,,,0,,,69,0
136785,note_on,1665,0,2,,,,,,,,,1,,,57,75
136785,note_on,45,0,1,,,,,,,,,0,,,69,49
136800,note_on,0,0,2,,,,,,,,,1,,,66,36
136800,note_on,15,0,2,,,,,,,,,1,,,57,0
136800,note_on,15,0,1,,,,,,,,,0,,,69,0
136800,note_on,0,0,1,,,,,,,,,0,,,78,75
136920,note_on,0,0,2,,,,,,,,,1,,,62,36
136920,note_on,120,0,1,,,,,,,,,0,,,78,0
136920,note_on,120,0,2,,,,,,,,,1,,,66,0
136920,note_on,0,0,1,,,,,,,,,0,,,74,49
136980,note_on,60,0,2,,,,,,,,,1,,,62,0
136980,note_on,60,0,1,,,,,,,,,0,,,74,0
137025,note_on,45,0,2,,,,,,,,,1,,,62,36
137025,note_on,45,0,1,,,,,,,,,0,,,74,49
137040,note_on,0,0,2,,,,,,,,,1,,,71,62
137040,control_change,0,0,2,,,,,,,,,1,64,127,,
137040,note_on,15,0,2,,,,,,,,,1,,,62,0
137040,note_on,15,0,1,,,,,,,,,0,,,74,0
137040,control_change,0,0,1,,,,,,,,,0,64,127,,
137040,note_on,0,0,1,,,,,,,,,0,,,83,75
137130,note_on,90,0,2,,,,,,,,,1,,,71,0
137130,note_on,0,0,1,,,,,,,,,0,,,80,49
137130,note_on,90,0,1,,,,,,,,,0,,,83,0
137130,note_on,0,0,2,,,,,,,,,1,,,68,36
137160,note_on,0,0,1,,,,,,,,,0,,,83,49
137160,note_on,30,0,1,,,,,,,,,0,,,80,0
137160,note_on,30,0,2,,,,,,,,,1,,,68,0
137160,note_on,0,0,2,,,,,,,,,1,,,71,36
137250,note_on,0,0,2,,,,,,,,,1,,,68,36
137250,control_change,0,0,2,,,,,,,,,1,64,0,,
137250,note_on,0,0,1,,,,,,,,,0,,,80,49
137250,control_change,0,0,1,,,,,,,,,0,64,0,,
137250,note_on,90,0,1,,,,,,,,,0,,,83,0
137250,note_on,90,0,2,,,,,,,,,1,,,71,0
137280,note_on,30,0,2,,,,,,,,,1,,,68,0
137280,note_on,30,0,1,,,,,,,,,0,,,80,0
137280,note_on,0,0,1,,,,,,,,,0,,,81,75
137280,note_on,0,0,2,,,,,,,,,1,,,69,62
137400,note_on,120,0,1,,,,,,,,,0,,,81,0
137400,note_on,0,0,2,,,,,,,,,1,,,57,36
137400,note_on,120,0,2,,,,,,,,,1,,,69,0
137400,note_on,0,0,1,,,,,,,,,0,,,69,49
137460,note_on,60,0,2,,,,,,,,,1,,,57,0
137460,note_on,60,0,1,,,,,,,,,0,,,69,0
137505,note_on,45,0,1,,,,,,,,,0,,,69,49
137505,note_on,45,0,2,,,,,,,,,1,,,57,36
137520,note_on,15,0,2,,,,,,,,,1,,,57,0
137520,note_on,0,0,2,,,,,,,,,1,,,67,36
137520,note_on,15,0,1,,,,,,,,,0,,,69,0
137520,note_on,0,0,1,,,,,,,,,0,,,79,49
137640,note_on,120,0,2,,,,,,,,,1,,,67,0
137640,note_on,0,0,2,,,,,,,,,1,,,64,36
137640,note_on,0,0,1,,,,,,,,,0,,,76,49
137640,note_on,120,0,1,,,,,,,,,0,,,79,0
137700,note_on,60,0,2,,,,,,,,,1,,,64,0
137700,note_on,60,0,1,,,,,,,,,0,,,76,0
137745,note_on,45,0,1,,,,,,,,,0,,,76,49
137745,note_on,45,0,2,,,,,,,,,1,,,64,36
137760,note_on,0,0,1,,,,,,,,,0,,,78,49
137760,note_on,15,0,2,,,,,,,,,1,,,64,0
137760,note_on,15,0,1,,,,,,,,,0,,,76,0
137760,note_on,0,0,2,,,,,,,,,1,,,66,36
137880,note_on,120,0,1,,,,,,,,,0,,,78,0
137880,note_on,0,0,1,,,,,,,,,0,,,69,49
137880,note_on,120,0,2,,,,,,,,,1,,,66,0
137880,note_on,0,0,2,,,,,,,,,1,,,57,36
137940,note_on,60,0,2,,,,,,,,,1,,,57,0
137940,note_on,60,0,1,,,,,,,,,0,,,69,0
137985,note_on,45,0,2,,,,,,,,,1,,,57,36
137985,note_on,45,0,1,,,,,,,,,0,,,69,49
138000,note_on,0,0,2,,,,,,,,,1,,,64,36
138000,control_change,0,0,2,,,,,,,,,1,64,127,,
138000,note_on,15,0,2,,,,,,,,,1,,,57,0
138000,control_change,0,0,1,,,,,,,,,0,64,127,,
138000,note_on,15,0,1,,,,,,,,,0,,,69,0
138000,note_on,0,0,1,,,,,,,,,0,,,76,49
138090,note_on,90,0,1,,,,,,,,,0,,,76,0
138090,note_on,0,0,1,,,,,,,,,0,,,73,49
138090,note_on,0,0,2,,,,,,,,,1,,,61,36
138090,note_on,90,0,2,,,,,,,,,1,,,64,0
138120,note_on,0,0,2,,,,,,,,,1,,,64,36
138120,note_on,30,0,2,,,,,,,,,1,,,61,0
138120,note_on,30,0,1,,,,,,,,,0,,,73,0
138120,note_on,0,0,1,,,,,,,,,0,,,76,49
138210,note_on,90,0,2,,,,,,,,,1,,,64,0
138210,note_on,90,0,1,,,,,,,,,0,,,76,0
138210,control_change,0,0,1,,,,,,,,,0,64,0,,
138210,note_on,0,0,1,,,,,,,,,0,,,73,49
138210,note_on,0,0,2,,,,,,,,,1,,,61,36
138210,control_change,0,0,2,,,,,,,,,1,64,0,,
138240,note_on,30,0,2,,,,,,,,,1,,,61,0
138240,note_on,0,0,3,,,,,,,,,2,,,62,36
138240,note_on,1500,0,3,,,,,,,,,2,,,54,36
138240,note_on,0,0,1,,,,,,,,,0,,,74,49
138240,control_change,0,0,1,,,,,,,,,0,64,127,,
138240,note_on,30,0,1,,,,,,,,,0,,,73,0
138279,note_on,39,0,1,,,,,,,,,0,,,69,49
138280,note_on,1,0,1,,,,,,,,,0,,,74,0
138319,note_on,39,0,1,,,,,,,,,0,,,69,0
138320,note_on,1,0,1,,,,,,,,,0,,,74,49
138360,note_on,120,0,3,,,,,,,,,2,,,62,0
138360,note_on,0,0,3,,,,,,,,,2,,,54,0
138360,note_on,0,0,3,,,,,,,,,2,,,57,36
138360,note_on,40,0,1,,,,,,,,,0,,,74,0
138360,control_change,0,0,1,,,,,,,,,0,64,0,,
138360,note_on,0,0,1,,,,,,,,,0,,,66,49
138420,note_on,60,0,3,,,,,,,,,2,,,57,0
138420,note_on,60,0,1,,,,,,,,,0,,,66,0
138480,control_change,60,0,1,,,,,,,,,0,64,127,,
138480,note_on,0,0,1,,,,,,,,,0,,,76,49
138480,note_on,0,0,3,,,,,,,,,2,,,64,36
138480,note_on,60,0,3,,,,,,,,,2,,,61,36
138519,note_on,39,0,1,,,,,,,,,0,,,73,49
138520,note_on,1,0,1,,,,,,,,,0,,,76,0
138559,note_on,39,0,1,,,,,,,,,0,,,73,0
138560,note_on,1,0,1,,,,,,,,,0,,,76,49
138600,note_on,0,0,3,,,,,,,,,2,,,61,0
138600,note_on,120,0,3,,,,,,,,,2,,,64,0
138600,note_on,0,0,3,,,,,,,,,2,,,57,36
138600,note_on,0,0,1,,,,,,,,,0,,,69,49
138600,control_change,0,0,1,,,,,,,,,0,64,0,,
138600,note_on,40,0,1,,,,,,,,,0,,,76,0
138660,note_on,60,0,3,,,,,,,,,2,,,57,0
138660,note_on,60,0,1,,,,,,,,,0,,,69,0
138720,note_on,480,0,2,,,,,,,,,1,,,57,36
138720,note_on,0,0,2,,,,,,,,,1,,,66,36
138720,control_change,60,0,1,,,,,,,,,0,64,127,,
138720,note_on,0,0,1,,,,,,,,,0,,,78,49
138759,note_on,39,0,1,,,,,,,,,0,,,76,49
138760,note_on,1,0,1,,,,,,,,,0,,,78,0
138799,note_on,39,0,1,,,,,,,,,0,,,76,0
138800,note_on,1,0,1,,,,,,,,,0,,,78,49
138840,note_on,0,0,2,,,,,,,,,1,,,62,36
138840,note_on,0,0,2,,,,,,,,,1,,,57,0
138840,note_on,120,0,2,,,,,,,,,1,,,66,0
138840,control_change,0,0,1,,,,,,,,,0,64,0,,
138840,note_on,40,0,1,,,,,,,,,0,,,78,0
138840,note_on,0,0,1,,,,,,,,,0,,,74,49
138900,note_on,60,0,2,,,,,,,,,1,,,62,0
138900,note_on,60,0,1,,,,,,,,,0,,,74,0
138960,note_on,0,0,2,,,,,,,,,1,,,68,36
138960,note_on,0,0,2,,,,,,,,,1,,,65,36
138960,control_change,60,0,2,,,,,,,,,1,64,127,,
138960,control_change,60,0,1,,,,,,,,,0,64,127,,
138960,note_on,0,0,1,,,,,,,,,0,,,83,75
138999,note_on,39,0,1,,,,,,,,,0,,,80,49
139000,note_on,1,0,1,,,,,,,,,0,,,83,0
139039,note_on,39,0,1,,,,,,,,,0,,,80,0
139040,note_on,1,0,1,,,,,,,,,0,,,83,49
139050,note_on,0,0,2,,,,,,,,,1,,,62,36
139050,note_on,90,0,2,,,,,,,,,1,,,68,0
139050,note_on,0,0,2,,,,,,,,,1,,,65,0
139080,control_change,0,0,1,,,,,,,,,0,64,0,,
139080,note_on,0,0,2,,,,,,,,,1,,,68,36
139080,note_on,30,0,2,,,,,,,,,1,,,62,0
139080,note_on,40,0,1,,,,,,,,,0,,,83,0
139080,control_change,0,0,2,,,,,,,,,1,64,0,,
139080,note_on,0,0,1,,,,,,,,,0,,,86,49
139080,note_on,0,0,2,,,,,,,,,1,,,65,36
139119,note_on,39,0,1,,,,,,,,,0,,,83,49
139120,note_on,1,0,1,,,,,,,,,0,,,86,0
139159,note_on,39,0,1,,,,,,,,,0,,,83,0
139160,note_on,1,0,1,,,,,,,,,0,,,80,49
139170,note_on,90,0,2,,,,,,,,,1,,,68,0
139170,note_on,0,0,2,,,,,,,,,1,,,62,36
139170,note_on,0,0,2,,,,,,,,,1,,,65,0
139200,note_on,30,0,2,,,,,,,,,1,,,62,0
139200,note_on,0,0,2,,,,,,,,,1,,,66,36
139200,note_on,40,0,1,,,,,,,,,0,,,80,0
139200,note_on,0,0,2,,,,,,,,,1,,,69,36
139200,note_on,0,0,1,,,,,,,,,0,,,81,49
139200,control_change,0,0,1,,,,,,,,,0,64,127,,
139239,note_on,39,0,1,,,,,,,,,0,,,78,49
139240,note_on,1,0,1,,,,,,,,,0,,,81,0
139279,note_on,39,0,1,,,,,,,,,0,,,78,0
139280,note_on,1,0,1,,,,,,,,,0,,,81,49
139320,note_on,120,0,2,,,,,,,,,1,,,69,0
139320,note_on,0,0,2,,,,,,,,,1,,,66,0
139320,note_on,0,0,2,,,,,,,,,1,,,57,36
139320,note_on,40,0,1,,,,,,,,,0,,,81,0
139320,note_on,0,0,1,,,,,,,,,0,,,69,49
139320,control_change,0,0,1,,,,,,,,,0,64,0,,
139380,note_on,60,0,2,,,,,,,,,1,,,57,0
139380,note_on,60,0,1,,,,,,,,,0,,,69,0
139440,note_on,0,0,2,,,,,,,,,1,,,67,36
139440,note_on,60,0,2,,,,,,,,,1,,,64,36
139440,note_on,0,0,1,,,,,,,,,0,,,79,49
139440,control_change,60,0,1,,,,,,,,,0,64,127,,
139479,note_on,39,0,1,,,,,,,,,0,,,78,49
139480,note_on,1,0,1,,,,,,,,,0,,,79,0
139519,note_on,39,0,1,,,,,,,,,0,,,78,0
139520,note_on,1,0,1,,,,,,,,,0,,,79,49
139560,note_on,40,0,1,,,,,,,,,0,,,79,0
139560,note_on,0,0,2,,,,,,,,,1,,,64,0
139560,note_on,0,0,2,,,,,,,,,1,,,57,36
139560,control_change,0,0,1,,,,,,,,,0,64,0,,
139560,note_on,120,0,2,,,,,,,,,1,,,67,0
139560,note_on,0,0,1,,,,,,,,,0,,,76,49
139620,note_on,60,0,2,,,,,,,,,1,,,57,0
139620,note_on,60,0,1,,,,,,,,,0,,,76,0
139680,note_on,0,0,1,,,,,,,,,0,,,78,49
139680,note_on,0,0,2,,,,,,,,,1,,,66,36
139680,control_change,60,0,1,,,,,,,,,0,64,127,,
139680,note_on,60,0,2,,,,,,,,,1,,,62,36
139719,note_on,39,0,1,,,,,,,,,0,,,74,49
139720,note_on,1,0,1,,,,,,,,,0,,,78,0
139759,note_on,39,0,1,,,,,,,,,0,,,74,0
139760,note_on,1,0,1,,,,,,,,,0,,,78,49
139800,note_on,120,0,2,,,,,,,,,1,,,66,0
139800,note_on,0,0,2,,,,,,,,,1,,,62,0
139800,note_on,0,0,2,,,,,,,,,1,,,57,36
139800,control_change,0,0,1,,,,,,,,,0,64,0,,
139800,note_on,40,0,1,,,,,,,,,0,,,78,0
139800,note_on,0,0,1,,,,,,,,,0,,,69,49
139860,note_on,60,0,2,,,,,,,,,1,,,57,0
139860,note_on,60,0,1,,,,,,,,,0,,,69,0
139920,note_on,0,0,1,,,,,,,,,0,,,76,49
139920,control_change,60,0,2,,,,,,,,,1,64,127,,
139920,note_on,0,0,2,,,,,,,,,1,,,61,36
139920,note_on,0,0,2,,,,,,,,,1,,,64,36
139920,control_change,60,0,1,,,,,,,,,0,64,127,,
140010,note_on,90,0,1,,,,,,,,,0,,,76,0
140010,note_on,0,0,1,,,,,,,,,0,,,73,49
140010,note_on,90,0,2,,,,,,,,,1,,,64,0
140010,note_on,0,0,2,,,,,,,,,1,,,61,0
140010,note_on,0,0,2,,,,,,,,,1,,,57,36
140040,note_on,30,0,2,,,,,,,,,1,,,57,0
140040,note_on,0,0,2,,,,,,,,,1,,,61,36
140040,note_on,0,0,2,,,,,,,,,1,,,64,36
140040,note_on,30,0,1,,,,,,,,,0,,,73,0
140040,note_on,0,0,1,,,,,,,,,0,,,76,49
140130,note_on,90,0,1,,,,,,,,,0,,,76,0
140130,note_on,0,0,1,,,,,,,,,0,,,73,49
140130,note_on,0,0,2,,,,,,,,,1,,,57,36
140130,note_on,0,0,2,,,,,,,,,1,,,61,0
140130,note_on,90,0,2,,,,,,,,,1,,,64,0
140130,control_change,0,0,1,,,,,,,,,0,64,0,,
140130,control_change,0,0,2,,,,,,,,,1,64,0,,
140160,note_on,0,0,3,,,,,,,,,2,,,64,88
140160,control_change,1500,0,3,,,,,,,,,2,64,127,,
140160,note_on,30,0,2,,,,,,,,,1,,,57,0
140160,note_on,0,0,1,,,,,,,,,0,,,76,101
140160,control_change,0,0,1,,,,,,,,,0,64,127,,
140160,note_on,30,0,1,,,,,,,,,0,,,73,0
140199,note_on,39,0,1,,,,,,,,,0,,,67,101
140199,note_on,39,0,3,,,,,,,,,2,,,55,88
140200,note_on,1,0,1,,,,,,,,,0,,,76,0
140200,note_on,1,0,3,,,,,,,,,2,,,64,0
140239,note_on,39,0,1,,,,,,,,,0,,,67,0
140239,note_on,39,0,3,,,,,,,,,2,,,55,0
140240,note_on,1,0,1,,,,,,,,,0,,,76,101
140240,note_on,1,0,3,,,,,,,,,2,,,64,88
140280,note_on,40,0,3,,,,,,,,,2,,,64,0
140280,note_on,40,0,1,,,,,,,,,0,,,76,0
140280,note_on,0,0,1,,,,,,,,,0,,,60,127
140280,note_on,0,0,3,,,,,,,,,2,,,48,114
140490,note_on,0,0,3,,,,,,,,,2,,,64,88
140490,note_on,0,0,3,,,,,,,,,2,,,55,88
140490,note_on,210,0,3,,,,,,,,,2,,,48,0
140490,note_on,210,0,1,,,,,,,,,0,,,60,0
140490,note_on,0,0,1,,,,,,,,,0,,,67,101
140490,note_on,0,0,1,,,,,,,,,0,,,76,101
140520,note_on,0,0,1,,,,,,,,,0,,,60,127
140520,note_on,30,0,3,,,,,,,,,2,,,64,0
140520,note_on,0,0,1,,,,,,,,,0,,,67,0
140520,note_on,30,0,1,,,,,,,,,0,,,76,0
140520,note_on,0,0,3,,,,,,,,,2,,,48,114
140520,note_on,0,0,3,,,,,,,,,2,,,55,0
140610,note_on,90,0,3,,,,,,,,,2,,,48,0
140610,note_on,90,0,1,,,,,,,,,0,,,60,0
140610,note_on,0,0,1,,,,,,,,,0,,,67,101
140610,note_on,0,0,3,,,,,,,,,2,,,55,88
140640,note_on,0,0,1,,,,,,,,,0,,,76,101
140640,note_on,30,0,3,,,,,,,,,2,,,55,0
140640,note_on,0,0,3,,,,,,,,,2,,,64,88
140640,note_on,30,0,1,,,,,,,,,0,,,67,0
140679,note_on,39,0,3,,,,,,,,,2,,,55,88
140679,note_on,39,0,1,,,,,,,,,0,,,67,101
140680,note_on,1,0,1,,,,,,,,,0,,,76,0
140680,note_on,1,0,3,,,,,,,,,2,,,64,0
140719,note_on,39,0,1,,,,,,,,,0,,,67,0
140719,note_on,39,0,3,,,,,,,,,2,,,55,0
140720,note_on,1,0,1,,,,,,,,,0,,,76,101
140720,note_on,1,0,3,,,,,,,,,2,,,64,88
140760,note_on,40,0,3,,,,,,,,,2,,,64,0
140760,note_on,0,0,1,,,,,,,,,0,,,60,127
140760,note_on,40,0,1,,,,,,,,,0,,,76,0
140760,note_on,0,0,3,,,,,,,,,2,,,48,114
140970,note_on,210,0,1,,,,,,,,,0,,,60,0
140970,note_on,0,0,3,,,,,,,,,2,,,64,88
140970,note_on,0,0,1,,,,,,,,,0,,,76,101
140970,note_on,0,0,3,,,,,,,,,2,,,55,88
140970,note_on,210,0,3,,,,,,,,,2,,,48,0
140970,note_on,0,0,1,,,,,,,,,0,,,67,101
141000,note_on,30,0,1,,,,,,,,,0,,,76,0
141000,note_on,0,0,1,,,,,,,,,0,,,67,0
141000,note_on,0,0,1,,,,,,,,,0,,,60,127
141000,note_on,0,0,3,,,,,,,,,2,,,55,0
141000,note_on,0,0,3,,,,,,,,,2,,,48,114
141000,note_on,30,0,3,,,,,,,,,2,,,64,0
141210,note_on,210,0,3,,,,,,,,,2,,,48,0
141210,note_on,0,0,3,,,,,,,,,2,,,55,88
141210,note_on,210,0,1,,,,,,,,,0,,,60,0
141210,note_on,0,0,1,,,,,,,,,0,,,67,101
141210,note_on,0,0,3,,,,,,,,,2,,,64,88
141210,note_on,0,0,1,,,,,,,,,0,,,76,101
141240,note_on,0,0,3,,,,,,,,,2,,,55,0
141240,note_on,30,0,1,,,,,,,,,0,,,76,0
141240,note_on,0,0,1,,,,,,,,,0,,,67,0
141240,note_on,0,0,1,,,,,,,,,0,,,60,127
141240,note_on,0,0,3,,,,,,,,,2,,,48,114
141240,note_on,30,0,3,,,,,,,,,2,,,64,0
141450,note_on,210,0,1,,,,,,,,,0,,,60,0
141450,note_on,0,0,1,,,,,,,,,0,,,76,101
141450,note_on,0,0,3,,,,,,,,,2,,,64,88
141450,note_on,0,0,3,,,,,,,,,2,,,55,88
141450,note_on,210,0,3,,,,,,,,,2,,,48,0
141450,note_on,0,0,1,,,,,,,,,0,,,67,101
141480,note_on,0,0,3,,,,,,,,,2,,,48,114
141480,note_on,0,0,1,,,,,,,,,0,,,67,0
141480,note_on,0,0,3,,,,,,,,,2,,,55,0
141480,note_on,30,0,3,,,,,,,,,2,,,64,0
141480,note_on,30,0,1,,,,,,,,,0,,,76,0
141480,note_on,0,0,1,,,,,,,,,0,,,60,127
141570,note_on,0,0,1,,,,,,,,,0,,,67,101
141570,control_change,0,0,1,,,,,,,,,0,64,0,,
141570,note_on,0,0,1,,,,,,,,,0,,,76,101
141570,note_on,90,0,3,,,,,,,,,2,,,48,0
141570,control_change,0,0,3,,,,,,,,,2,64,0,,
141570,note_on,0,0,3,,,,,,,,,2,,,55,88
141570,note_on,90,0,1,,,,,,,,,0,,,60,0
141600,note_on,30,0,1,,,,,,,,,0,,,76,0
141600,note_on,0,0,1,,,,,,,,,0,,,67,0
141600,note_on,0,0,1,,,,,,,,,0,,,77,101
141600,control_change,0,0,1,,,,,,,,,0,64,127,,
141600,note_on,30,0,3,,,,,,,,,2,,,55,0
141600,control_change,0,0,3,,,,,,,,,2,64,127,,
141600,note_on,0,0,3,,,,,,,,,2,,,53,88
141639,note_on,39,0,1,,,,,,,,,0,,,69,101
141639,note_on,39,0,3,,,,,,,,,2,,,60,88
141640,note_on,1,0,3,,,,,,,,,2,,,53,0
141640,note_on,1,0,1,,,,,,,,,0,,,77,0
141679,note_on,39,0,1,,,,,,,,,0,,,69,0
141679,note_on,39,0,3,,,,,,,,,2,,,60,0
141680,note_on,1,0,3,,,,,,,,,2,,,53,88
141680,note_on,1,0,1,,,,,,,,,0,,,77,101
141720,note_on,0,0,3,,,,,,,,,2,,,41,114
141720,note_on,40,0,3,,,,,,,,,2,,,53,0
141720,note_on,40,0,1,,,,,,,,,0,,,77,0
141720,note_on,0,0,1,,,,,,,,,0,,,81,127
141930,note_on,210,0,1,,,,,,,,,0,,,81,0
141930,note_on,0,0,3,,,,,,,,,2,,,60,88
141930,note_on,0,0,3,,,,,,,,,2,,,53,88
141930,note_on,210,0,3,,,,,,,,,2,,,41,0
141930,note_on,0,0,1,,,,,,,,,0,,,69,101
141960,note_on,0,0,3,,,,,,,,,2,,,53,0
141960,note_on,30,0,3,,,,,,,,,2,,,60,0
141960,note_on,0,0,3,,,,,,,,,2,,,41,88
141960,note_on,30,0,1,,,,,,,,,0,,,69,0
141960,note_on,0,0,1,,,,,,,,,0,,,77,101
141960,note_on,0,0,1,,,,,,,,,0,,,81,101
142050,note_on,0,0,1,,,,,,,,,0,,,77,0
142050,note_on,0,0,1,,,,,,,,,0,,,69,101
142050,note_on,90,0,3,,,,,,,,,2,,,41,0
142050,note_on,0,0,3,,,,,,,,,2,,,60,88
142050,note_on,90,0,1,,,,,,,,,0,,,81,0
142080,note_on,0,0,3,,,,,,,,,2,,,53,88
142080,note_on,30,0,1,,,,,,,,,0,,,69,0
142080,note_on,0,0,1,,,,,,,,,0,,,77,101
142080,note_on,30,0,3,,,,,,,,,2,,,60,0
142119,note_on,39,0,1,,,,,,,,,0,,,69,101
142119,note_on,39,0,3,,,,,,,,,2,,,60,88
142120,note_on,1,0,3,,,,,,,,,2,,,53,0
142120,note_on,1,0,1,,,,,,,,,0,,,77,0
142159,note_on,39,0,1,,,,,,,,,0,,,69,0
142159,note_on,39,0,3,,,,,,,,,2,,,60,0
142160,note_on,1,0,3,,,,,,,,,2,,,53,88
142160,note_on,1,0,1,,,,,,,,,0,,,77,101
142200,note_on,40,0,3,,,,,,,,,2,,,53,0
142200,note_on,0,0,3,,,,,,,,,2,,,41,114
142200,note_on,40,0,1,,,,,,,,,0,,,77,0
142200,note_on,0,0,1,,,,,,,,,0,,,81,127
142410,note_on,210,0,3,,,,,,,,,2,,,41,0
142410,note_on,0,0,3,,,,,,,,,2,,,53,88
142410,note_on,0,0,3,,,,,,,,,2,,,60,88
142410,note_on,210,0,1,,,,,,,,,0,,,81,0
142410,note_on,0,0,1,,,,,,,,,0,,,69,101
142440,note_on,0,0,3,,,,,,,,,2,,,53,0
142440,note_on,30,0,3,,,,,,,,,2,,,60,0
142440,note_on,0,0,1,,,,,,,,,0,,,77,101
142440,note_on,0,0,1,,,,,,,,,0,,,81,101
142440,note_on,0,0,3,,,,,,,,,2,,,41,88
142440,note_on,30,0,1,,,,,,,,,0,,,69,0
142650,note_on,210,0,1,,,,,,,,,0,,,81,0
142650,note_on,0,0,1,,,,,,,,,0,,,77,0
142650,note_on,0,0,3,,,,,,,,,2,,,53,88
142650,note_on,0,0,1,,,,,,,,,0,,,69,101
142650,note_on,210,0,3,,,,,,,,,2,,,41,0
142650,note_on,0,0,3,,,,,,,,,2,,,60,88
142680,note_on,30,0,1,,,,,,,,,0,,,69,0
142680,note_on,0,0,1,,,,,,,,,0,,,81,101
142680,control_change,0,0,1,,,,,,,,,0,64,0,,
142680,note_on,0,0,1,,,,,,,,,0,,,77,101
142680,note_on,0,0,3,,,,,,,,,2,,,41,88
142680,control_change,0,0,3,,,,,,,,,2,64,0,,
142680,note_on,0,0,3,,,,,,,,,2,,,53,0
142680,note_on,30,0,3,,,,,,,,,2,,,60,0
142890,note_on,0,0,1,,,,,,,,,0,,,69,101
142890,note_on,0,0,1,,,,,,,,,0,,,77,0
142890,note_on,210,0,1,,,,,,,,,0,,,81,0
142890,note_on,0,0,3,,,,,,,,,2,,,45,88
142890,note_on,210,0,3,,,,,,,,,2,,,41,0
142920,control_change,0,0,1,,,,,,,,,0,64,127,,
142920,note_on,30,0,1,,,,,,,,,0,,,69,0
142920,note_on,0,0,1,,,,,,,,,0,,,81,114
142920,note_on,0,0,1,,,,,,,,,0,,,79,114
142920,control_change,0,0,3,,,,,,,,,2,64,127,,
142920,note_on,0,0,1,,,,,,,,,0,,,73,114
142920,note_on,0,0,3,,,,,,,,,2,,,40,101
142920,note_on,30,0,3,,,,,,,,,2,,,45,0
143130,note_on,210,0,3,,,,,,,,,2,,,40,0
143130,note_on,0,0,3,,,,,,,,,2,,,45,36
143130,note_on,210,0,1,,,,,,,,,0,,,81,0
143130,note_on,0,0,1,,,,,,,,,0,,,79,0
143130,note_on,0,0,1,,,,,,,,,0,,,73,0
143130,note_on,0,0,1,,,,,,,,,0,,,69,49
143160,note_on,30,0,1,,,,,,,,,0,,,69,0
143160,note_on,0,0,1,,,,,,,,,0,,,73,49
143160,note_on,0,0,1,,,,,,,,,0,,,79,49
143160,note_on,30,0,3,,,,,,,,,2,,,45,0
143160,note_on,0,0,1,,,,,,,,,0,,,81,49
143160,note_on,0,0,3,,,,,,,,,2,,,40,36
143250,note_on,0,0,1,,,,,,,,,0,,,79,0
143250,note_on,0,0,1,,,,,,,,,0,,,69,49
143250,note_on,0,0,1,,,,,,,,,0,,,73,0
143250,note_on,0,0,3,,,,,,,,,2,,,45,36
143250,note_on,90,0,1,,,,,,,,,0,,,81,0
143250,note_on,90,0,3,,,,,,,,,2,,,40,0
143280,note_on,30,0,1,,,,,,,,,0,,,69,0
143280,note_on,0,0,1,,,,,,,,,0,,,81,49
143280,note_on,0,0,1,,,,,,,,,0,,,73,49
143280,note_on,0,0,1,,,,,,,,,0,,,79,49
143280,note_on,0,0,3,,,,,,,,,2,,,40,36
143280,note_on,30,0,3,,,,,,,,,2,,,45,0
143370,note_on,0,0,1,,,,,,,,,0,,,69,49
143370,note_on,90,0,1,,,,,,,,,0,,,81,0
143370,note_on,0,0,3,,,,,,,,,2,,,45,36
143370,note_on,90,0,3,,,,,,,,,2,,,40,0
143370,note_on,0,0,1,,,,,,,,,0,,,79,0
143370,note_on,0,0,1,,,,,,,,,0,,,73,0
143400,note_on,0,0,1,,,,,,,,,0,,,81,49
143400,note_on,0,0,1,,,,,,,,,0,,,79,49
143400,note_on,0,0,1,,,,,,,,,0,,,73,49
143400,control_change,0,0,1,,,,,,,,,0,64,0,,
143400,note_on,30,0,1,,,,,,,,,0,,,69,0
143400,control_change,0,0,3,,,,,,,,,2,64,0,,
143400,note_on,30,0,3,,,,,,,,,2,,,45,0
143400,note_on,0,0,3,,,,,,,,,2,,,40,36
143490,note_on,90,0,3,,,,,,,,,2,,,40,0
143490,note_on,0,0,3,,,,,,,,,2,,,45,36
143490,note_on,90,0,1,,,,,,,,,0,,,81,0
143490,note_on,0,0,1,,,,,,,,,0,,,79,0
143490,note_on,0,0,1,,,,,,,,,0,,,73,0
143490,note_on,0,0,1,,,,,,,,,0,,,69,49
143520,note_on,30,0,1,,,,,,,,,0,,,69,0
143520,control_change,0,0,1,,,,,,,,,0,64,127,,
143520,note_on,0,0,1,,,,,,,,,0,,,74,49
143520,note_on,0,0,1,,,,,,,,,0,,,78,49
143520,note_on,0,0,1,,,,,,,,,0,,,81,49
143520,note_on,0,0,3,,,,,,,,,2,,,38,36
143520,note_on,30,0,3,,,,,,,,,2,,,45,0
143524,note_on,0,0,1,,,,,,,,,0,,,74,0
143524,note_on,0,0,1,,,,,,,,,0,,,78,0
143524,note_on,4,0,1,,,,,,,,,0,,,81,0
143526,note_on,6,0,3,,,,,,,,,2,,,38,0
143559,note_on,35,0,1,,,,,,,,,0,,,69,49
143599,note_on,40,0,1,,,,,,,,,0,,,69,0
143600,note_on,1,0,1,,,,,,,,,0,,,74,49
143640,note_on,40,0,1,,,,,,,,,0,,,74,0
143640,note_on,0,0,1,,,,,,,,,0,,,78,49
143679,note_on,39,0,1,,,,,,,,,0,,,81,49
143680,note_on,1,0,1,,,,,,,,,0,,,78,0
143719,note_on,39,0,1,,,,,,,,,0,,,81,0
143720,note_on,1,0,1,,,,,,,,,0,,,86,49
143760,note_on,40,0,1,,,,,,,,,0,,,86,0
143760,note_on,0,0,1,,,,,,,,,0,,,81,49
143799,note_on,3639,0,2,,,,,,,,,1,,,62,36
143799,note_on,39,0,1,,,,,,,,,0,,,74,49
143800,note_on,1,0,1,,,,,,,,,0,,,81,0
143839,note_on,40,0,2,,,,,,,,,1,,,62,0
143839,note_on,39,0,1,,,,,,,,,0,,,74,0
143840,note_on,1,0,1,,,,,,,,,0,,,78,49
143840,note_on,1,0,2,,,,,,,,,1,,,66,36
143880,note_on,40,0,2,,,,,,,,,1,,,66,0
143880,note_on,0,0,2,,,,,,,,,1,,,69,36
143880,note_on,40,0,1,,,,,,,,,0,,,78,0
143880,note_on,0,0,1,,,,,,,,,0,,,81,49
143919,note_on,39,0,1,,,,,,,,,0,,,86,49
143919,note_on,39,0,2,,,,,,,,,1,,,74,36
143920,note_on,1,0,2,,,,,,,,,1,,,69,0
143920,note_on,1,0,1,,,,,,,,,0,,,81,0
143959,note_on,39,0,2,,,,,,,,,1,,,74,0
143959,note_on,39,0,1,,,,,,,,,0,,,86,0
143960,note_on,1,0,2,,,,,,,,,1,,,78,36
143960,note_on,1,0,1,,,,,,,,,0,,,90,49
144000,note_on,0,0,2,,,,,,,,,1,,,69,36
144000,note_on,40,0,2,,,,,,,,,1,,,78,0
144000,note_on,0,0,1,,,,,,,,,0,,,81,49
144000,note_on,40,0,1,,,,,,,,,0,,,90,0
144000,control_change,0,0,1,,,,,,,,,0,64,0,,
144039,note_on,39,0,1,,,,,,,,,0,,,83,49
144040,note_on,1,0,1,,,,,,,,,0,,,81,0
144060,note_on,60,0,2,,,,,,,,,1,,,69,0
144079,note_on,39,0,1,,,,,,,,,0,,,83,0
144080,note_on,1,0,1,,,,,,,,,0,,,81,49
144120,note_on,0,0,2,,,,,,,,,1,,,67,36
144120,note_on,0,0,2,,,,,,,,,1,,,64,36
144120,note_on,40,0,1,,,,,,,,,0,,,81,0
144120,note_on,0,0,1,,,,,,,,,0,,,79,49
144120,note_on,60,0,2,,,,,,,,,1,,,57,36
144159,note_on,39,0,1,,,,,,,,,0,,,83,49
144160,note_on,1,0,1,,,,,,,,,0,,,79,0
144180,note_on,0,0,2,,,,,,,,,1,,,64,0
144180,note_on,0,0,2,,,,,,,,,1,,,57,0
144180,note_on,60,0,2,,,,,,,,,1,,,67,0
144199,note_on,39,0,1,,,,,,,,,0,,,83,0
144200,note_on,1,0,1,,,,,,,,,0,,,79,49
144240,note_on,0,0,2,,,,,,,,,1,,,66,36
144240,note_on,0,0,1,,,,,,,,,0,,,78,49
144240,note_on,40,0,1,,,,,,,,,0,,,79,0
144240,note_on,0,0,2,,,,,,,,,1,,,62,36
144240,note_on,60,0,2,,,,,,,,,1,,,57,36
144279,note_on,39,0,1,,,,,,,,,0,,,81,49
144280,note_on,1,0,1,,,,,,,,,0,,,78,0
144300,note_on,0,0,2,,,,,,,,,1,,,57,0
144300,note_on,0,0,2,,,,,,,,,1,,,62,0
144300,note_on,60,0,2,,,,,,,,,1,,,66,0
144319,note_on,39,0,1,,,,,,,,,0,,,81,0
144320,note_on,1,0,1,,,,,,,,,0,,,78,49
144360,note_on,0,0,1,,,,,,,,,0,,,76,49
144360,note_on,40,0,1,,,,,,,,,0,,,78,0
144360,note_on,60,0,2,,,,,,,,,1,,,57,36
144360,note_on,0,0,2,,,,,,,,,1,,,61,36
144360,note_on,0,0,2,,,,,,,,,1,,,64,36
144399,note_on,39,0,1,,,,,,,,,0,,,79,49
144400,note_on,1,0,1,,,,,,,,,0,,,76,0
144420,note_on,60,0,2,,,,,,,,,1,,,64,0
144420,note_on,0,0,2,,,,,,,,,1,,,61,0
144420,note_on,0,0,2,,,,,,,,,1,,,57,0
144439,note_on,39,0,1,,,,,,,,,0,,,79,0
144440,note_on,1,0,1,,,,,,,,,0,,,76,49
144480,note_on,0,0,3,,,,,,,,,2,,,54,36
144480,note_on,954,0,3,,,,,,,,,2,,,50,36
144480,note_on,0,0,3,,,,,,,,,2,,,62,36
144480,note_on,40,0,1,,,,,,,,,0,,,76,0
144480,control_change,0,0,1,,,,,,,,,0,64,127,,
144480,note_on,0,0,1,,,,,,,,,0,,,74,49
144484,note_on,4,0,1,,,,,,,,,0,,,74,0
144519,note_on,35,0,1,,,,,,,,,0,,,69,49
144540,note_on,60,0,3,,,,,,,,,2,,,62,0
144540,note_on,0,0,3,,,,,,,,,2,,,50,0
144540,note_on,0,0,3,,,,,,,,,2,,,54,0
144559,note_on,40,0,1,,,,,,,,,0,,,69,0
144560,note_on,1,0,1,,,,,,,,,0,,,74,49
144600,note_on,40,0,1,,,,,,,,,0,,,74,0
144600,note_on,0,0,1,,,,,,,,,0,,,78,49
144639,note_on,39,0,1,,,,,,,,,0,,,81,49
144640,note_on,1,0,1,,,,,,,,,0,,,78,0
144679,note_on,39,0,1,,,,,,,,,0,,,81,0
144680,note_on,1,0,1,,,,,,,,,0,,,86,49
144720,note_on,40,0,1,,,,,,,,,0,,,86,0
144720,note_on,0,0,1,,,,,,,,,0,,,81,49
144759,note_on,39,0,1,,,,,,,,,0,,,78,49
144759,control_change,339,0,2,,,,,,,,,1,64,127,,
144759,note_on,0,0,2,,,,,,,,,1,,,66,36
144760,note_on,1,0,1,,,,,,,,,0,,,81,0
144799,note_on,40,0,2,,,,,,,,,1,,,66,0
144799,note_on,39,0,1,,,,,,,,,0,,,78,0
144800,note_on,1,0,1,,,,,,,,,0,,,81,49
144800,note_on,1,0,2,,,,,,,,,1,,,69,36
144840,note_on,0,0,1,,,,,,,,,0,,,86,49
144840,note_on,40,0,1,,,,,,,,,0,,,81,0
144840,note_on,0,0,2,,,,,,,,,1,,,74,36
144840,note_on,40,0,2,,,,,,,,,1,,,69,0
144879,note_on,39,0,2,,,,,,,,,1,,,78,36
144879,note_on,39,0,1,,,,,,,,,0,,,90,49
144880,note_on,1,0,2,,,,,,,,,1,,,74,0
144880,note_on,1,0,1,,,,,,,,,0,,,86,0
144919,note_on,39,0,1,,,,,,,,,0,,,90,0
144919,note_on,39,0,2,,,,,,,,,1,,,78,0
144920,note_on,1,0,1,,,,,,,,,0,,,93,49
144920,note_on,1,0,2,,,,,,,,,1,,,81,36
144960,note_on,40,0,2,,,,,,,,,1,,,81,0
144960,control_change,0,0,2,,,,,,,,,1,64,0,,
144960,note_on,40,0,1,,,,,,,,,0,,,93,0
144960,control_change,0,0,1,,,,,,,,,0,64,0,,
144960,note_on,0,0,1,,,,,,,,,0,,,81,49
144960,note_on,0,0,2,,,,,,,,,1,,,69,36
144999,note_on,39,0,1,,,,,,,,,0,,,83,49
145000,note_on,1,0,1,,,,,,,,,0,,,81,0
145020,note_on,60,0,2,,,,,,,,,1,,,69,0
145039,note_on,39,0,1,,,,,,,,,0,,,83,0
145040,note_on,1,0,1,,,,,,,,,0,,,81,49
145080,note_on,60,0,2,,,,,,,,,1,,,57,36
145080,note_on,0,0,2,,,,,,,,,1,,,67,36
145080,note_on,0,0,2,,,,,,,,,1,,,64,36
145080,note_on,40,0,1,,,,,,,,,0,,,81,0
145080,note_on,0,0,1,,,,,,,,,0,,,79,49
145119,note_on,39,0,1,,,,,,,,,0,,,81,49
145120,note_on,1,0,1,,,,,,,,,0,,,79,0
145140,note_on,0,0,2,,,,,,,,,1,,,57,0
145140,note_on,60,0,2,,,,,,,,,1,,,67,0
145140,note_on,0,0,2,,,,,,,,,1,,,64,0
145159,note_on,39,0,1,,,,,,,,,0,,,81,0
145160,note_on,1,0,1,,,,,,,,,0,,,79,49
145200,note_on,0,0,1,,,,,,,,,0,,,78,49
145200,note_on,40,0,1,,,,,,,,,0,,,79,0
145200,note_on,0,0,2,,,,,,,,,1,,,66,36
145200,note_on,0,0,2,,,,,,,,,1,,,62,36
145200,note_on,60,0,2,,,,,,,,,1,,,57,36
145239,note_on,39,0,1,,,,,,,,,0,,,79,49
145240,note_on,1,0,1,,,,,,,,,0,,,78,0
145260,note_on,0,0,2,,,,,,,,,1,,,62,0
145260,note_on,0,0,2,,,,,,,,,1,,,57,0
145260,note_on,60,0,2,,,,,,,,,1,,,66,0
145279,note_on,39,0,1,,,,,,,,,0,,,79,0
145280,note_on,1,0,1,,,,,,,,,0,,,78,49
145320,note_on,60,0,2,,,,,,,,,1,,,57,36
145320,note_on,0,0,2,,,,,,,,,1,,,61,36
145320,note_on,0,0,2,,,,,,,,,1,,,64,36
145320,note_on,0,0,1,,,,,,,,,0,,,76,49
145320,note_on,40,0,1,,,,,,,,,0,,,78,0
145359,note_on,39,0,1,,,,,,,,,0,,,78,49
145360,note_on,1,0,1,,,,,,,,,0,,,76,0
145380,note_on,60,0,2,,,,,,,,,1,,,64,0
145380,note_on,0,0,2,,,,,,,,,1,,,61,0
145380,note_on,0,0,2,,,,,,,,,1,,,57,0
145399,note_on,39,0,1,,,,,,,,,0,,,78,0
145400,note_on,1,0,1,,,,,,,,,0,,,76,49
145440,note_on,40,0,1,,,,,,,,,0,,,76,0
145440,control_change,0,0,1,,,,,,,,,0,64,127,,
145440,note_on,0,0,1,,,,,,,,,0,,,66,49
145440,note_on,60,0,2,,,,,,,,,1,,,62,49
145479,note_on,39,0,1,,,,,,,,,0,,,69,49
145480,note_on,1,0,1,,,,,,,,,0,,,66,0
145519,note_on,39,0,1,,,,,,,,,0,,,69,0
145520,note_on,1,0,1,,,,,,,,,0,,,66,49
145560,note_on,120,0,2,,,,,,,,,1,,,62,0
145560,note_on,0,0,2,,,,,,,,,1,,,54,49
145560,control_change,0,0,1,,,,,,,,,0,64,0,,
145560,note_on,40,0,1,,,,,,,,,0,,,66,0
145560,note_on,0,0,1,,,,,,,,,0,,,69,49
145599,note_on,39,0,1,,,,,,,,,0,,,74,49
145600,note_on,1,0,1,,,,,,,,,0,,,69,0
145620,note_on,60,0,2,,,,,,,,,1,,,54,0
145639,note_on,39,0,1,,,,,,,,,0,,,74,0
145640,note_on,1,0,1,,,,,,,,,0,,,69,49
145680,note_on,40,0,1,,,,,,,,,0,,,69,0
145680,control_change,0,0,1,,,,,,,,,0,64,127,,
145680,note_on,0,0,1,,,,,,,,,0,,,69,49
145680,note_on,60,0,2,,,,,,,,,1,,,64,49
145719,note_on,39,0,1,,,,,,,,,0,,,73,49
145720,note_on,1,0,1,,,,,,,,,0,,,69,0
145759,note_on,39,0,1,,,,,,,,,0,,,73,0
145760,note_on,1,0,1,,,,,,,,,0,,,69,49
145800,note_on,0,0,2,,,,,,,,,1,,,57,49
145800,note_on,120,0,2,,,,,,,,,1,,,64,0
145800,note_on,40,0,1,,,,,,,,,0,,,69,0
145800,note_on,0,0,1,,,,,,,,,0,,,73,49
145800,control_change,0,0,1,,,,,,,,,0,64,0,,
145839,note_on,39,0,1,,,,,,,,,0,,,76,49
145840,note_on,1,0,1,,,,,,,,,0,,,73,0
145860,note_on,60,0,2,,,,,,,,,1,,,57,0
145879,note_on,39,0,1,,,,,,,,,0,,,76,0
145880,note_on,1,0,1,,,,,,,,,0,,,73,49
145920,note_on,0,0,1,,,,,,,,,0,,,69,49
145920,control_change,0,0,1,,,,,,,,,0,64,127,,
145920,note_on,40,0,1,,,,,,,,,0,,,73,0
145920,note_on,60,0,2,,,,,,,,,1,,,66,49
145959,note_on,39,0,1,,,,,,,,,0,,,74,49
145960,note_on,1,0,1,,,,,,,,,0,,,69,0
145999,note_on,39,0,1,,,,,,,,,0,,,74,0
146000,note_on,1,0,1,,,,,,,,,0,,,69,49
146040,note_on,0,0,2,,,,,,,,,1,,,62,49
146040,note_on,0,0,1,,,,,,,,,0,,,74,49
146040,control_change,0,0,1,,,,,,,,,0,64,0,,
146040,note_on,120,0,2,,,,,,,,,1,,,66,0
146040,note_on,40,0,1,,,,,,,,,0,,,69,0
146079,note_on,39,0,1,,,,,,,,,0,,,78,49
146080,note_on,1,0,1,,,,,,,,,0,,,74,0
146100,note_on,60,0,2,,,,,,,,,1,,,62,0
146119,note_on,39,0,1,,,,,,,,,0,,,78,0
146120,note_on,1,0,1,,,,,,,,,0,,,74,49
146160,note_on,0,0,2,,,,,,,,,1,,,71,49
146160,note_on,40,0,1,,,,,,,,,0,,,74,0
146160,control_change,0,0,1,,,,,,,,,0,64,127,,
146160,note_on,0,0,1,,,,,,,,,0,,,74,49
146160,control_change,60,0,2,,,,,,,,,1,64,127,,
146199,note_on,39,0,1,,,,,,,,,0,,,77,49
146200,note_on,1,0,1,,,,,,,,,0,,,74,0
146239,note_on,39,0,1,,,,,,,,,0,,,77,0
146240,note_on,1,0,1,,,,,,,,,0,,,74,49
146250,note_on,0,0,2,,,,,,,,,1,,,68,49
146250,note_on,90,0,2,,,,,,,,,1,,,71,0
146280,note_on,40,0,1,,,,,,,,,0,,,74,0
146280,note_on,0,0,1,,,,,,,,,0,,,77,49
146280,note_on,0,0,2,,,,,,,,,1,,,71,49
146280,note_on,30,0,2,,,,,,,,,1,,,68,0
146319,note_on,39,0,1,,,,,,,,,0,,,80,49
146320,note_on,1,0,1,,,,,,,,,0,,,77,0
146359,note_on,39,0,1,,,,,,,,,0,,,80,0
146360,control_change,1,0,1,,,,,,,,,0,64,0,,
146360,note_on,0,0,1,,,,,,,,,0,,,77,49
146370,control_change,0,0,2,,,,,,,,,1,64,0,,
146370,note_on,90,0,2,,,,,,,,,1,,,71,0
146370,note_on,0,0,2,,,,,,,,,1,,,68,49
146400,note_on,0,0,1,,,,,,,,,0,,,74,49
146400,control_change,0,0,1,,,,,,,,,0,64,127,,
146400,note_on,40,0,1,,,,,,,,,0,,,77,0
146400,note_on,0,0,2,,,,,,,,,1,,,69,49
146400,note_on,30,0,2,,,,,,,,,1,,,68,0
146439,note_on,39,0,1,,,,,,,,,0,,,78,49
146440,note_on,1,0,1,,,,,,,,,0,,,74,0
146479,note_on,39,0,1,,,,,,,,,0,,,78,0
146480,note_on,1,0,1,,,,,,,,,0,,,74,49
146520,note_on,0,0,2,,,,,,,,,1,,,57,49
146520,note_on,120,0,2,,,,,,,,,1,,,69,0
146520,note_on,40,0,1,,,,,,,,,0,,,74,0
146520,control_change,0,0,1,,,,,,,,,0,64,0,,
146520,note_on,0,0,1,,,,,,,,,0,,,78,49
146559,note_on,39,0,1,,,,,,,,,0,,,81,49
146560,note_on,1,0,1,,,,,,,,,0,,,78,0
146580,note_on,60,0,2,,,,,,,,,1,,,57,0
146599,note_on,39,0,1,,,,,,,,,0,,,81,0
146600,note_on,1,0,1,,,,,,,,,0,,,78,49
146640,note_on,60,0,2,,,,,,,,,1,,,67,49
146640,note_on,40,0,1,,,,,,,,,0,,,78,0
146640,control_change,0,0,1,,,,,,,,,0,64,127,,
146640,note_on,0,0,1,,,,,,,,,0,,,69,49
146679,note_on,39,0,1,,,,,,,,,0,,,76,49
146680,note_on,1,0,1,,,,,,,,,0,,,69,0
146719,note_on,39,0,1,,,,,,,,,0,,,76,0
146720,note_on,1,0,1,,,,,,,,,0,,,69,49
146760,note_on,120,0,2,,,,,,,,,1,,,67,0
146760,note_on,40,0,1,,,,,,,,,0,,,69,0
146760,note_on,0,0,2,,,,,,,,,1,,,64,49
146760,note_on,0,0,1,,,,,,,,,0,,,76,49
146760,control_change,0,0,1,,,,,,,,,0,64,0,,
146799,note_on,39,0,1,,,,,,,,,0,,,79,49
146800,note_on,1,0,1,,,,,,,,,0,,,76,0
146820,note_on,60,0,2,,,,,,,,,1,,,64,0
146839,note_on,39,0,1,,,,,,,,,0,,,79,0
146840,note_on,1,0,1,,,,,,,,,0,,,76,49
146880,note_on,0,0,1,,,,,,,,,0,,,69,49
146880,note_on,40,0,1,,,,,,,,,0,,,76,0
146880,control_change,0,0,1,,,,,,,,,0,64,127,,
146880,note_on,60,0,2,,,,,,,,,1,,,66,49
146919,note_on,39,0,1,,,,,,,,,0,,,74,49
146920,note_on,1,0,1,,,,,,,,,0,,,69,0
146959,note_on,39,0,1,,,,,,,,,0,,,74,0
146960,note_on,1,0,1,,,,,,,,,0,,,69,49
147000,note_on,40,0,1,,,,,,,,,0,,,69,0
147000,control_change,0,0,1,,,,,,,,,0,64,0,,
147000,note_on,0,0,1,,,,,,,,,0,,,74,49
147000,note_on,0,0,2,,,,,,,,,1,,,57,49
147000,note_on,120,0,2,,,,,,,,,1,,,66,0
147039,note_on,39,0,1,,,,,,,,,0,,,78,49
147040,note_on,1,0,1,,,,,,,,,0,,,74,0
147060,note_on,60,0,2,,,,,,,,,1,,,57,0
147079,note_on,39,0,1,,,,,,,,,0,,,78,0
147080,note_on,1,0,1,,,,,,,,,0,,,74,49
147120,note_on,40,0,1,,,,,,,,,0,,,74,0
147120,control_change,0,0,1,,,,,,,,,0,64,127,,
147120,note_on,0,0,1,,,,,,,,,0,,,69,49
147120,control_change,60,0,2,,,,,,,,,1,64,127,,
147120,note_on,0,0,2,,,,,,,,,1,,,64,49
147159,note_on,39,0,1,,,,,,,,,0,,,73,49
147160,note_on,1,0,1,,,,,,,,,0,,,69,0
147199,note_on,39,0,1,,,,,,,,,0,,,73,0
147200,note_on,1,0,1,,,,,,,,,0,,,69,49
147210,note_on,90,0,2,,,,,,,,,1,,,64,0
147210,note_on,0,0,2,,,,,,,,,1,,,61,49
147240,note_on,40,0,1,,,,,,,,,0,,,69,0
147240,note_on,0,0,1,,,,,,,,,0,,,73,49
147240,note_on,30,0,2,,,,,,,,,1,,,61,0
147240,note_on,0,0,2,,,,,,,,,1,,,64,49
147279,note_on,39,0,1,,,,,,,,,0,,,76,49
147280,note_on,1,0,1,,,,,,,,,0,,,73,0
147319,note_on,39,0,1,,,,,,,,,0,,,76,0
147320,control_change,1,0,1,,,,,,,,,0,64,0,,
147320,note_on,0,0,1,,,,,,,,,0,,,73,49
147330,note_on,90,0,2,,,,,,,,,1,,,64,0
147330,note_on,0,0,2,,,,,,,,,1,,,57,49
147330,control_change,0,0,2,,,,,,,,,1,64,0,,
147360,note_on,30,0,2,,,,,,,,,1,,,57,0
147360,note_on,0,0,2,,,,,,,,,1,,,74,49
147360,note_on,0,0,1,,,,,,,,,0,,,78,49
147360,control_change,0,0,1,,,,,,,,,0,64,127,,
147360,note_on,40,0,1,,,,,,,,,0,,,73,0
147399,note_on,39,0,1,,,,,,,,,0,,,81,49
147400,note_on,1,0,1,,,,,,,,,0,,,78,0
147439,note_on,39,0,1,,,,,,,,,0,,,81,0
147440,note_on,1,0,1,,,,,,,,,0,,,78,49
147480,note_on,0,0,1,,,,,,,,,0,,,81,49
147480,control_change,0,0,1,,,,,,,,,0,64,0,,
147480,note_on,40,0,1,,,,,,,,,0,,,78,0
147480,note_on,120,0,2,,,,,,,,,1,,,74,0
147480,note_on,0,0,2,,,,,,,,,1,,,66,49
147519,note_on,39,0,1,,,,,,,,,0,,,86,49
147520,note_on,1,0,1,,,,,,,,,0,,,81,0
147540,note_on,60,0,2,,,,,,,,,1,,,66,0
147559,note_on,39,0,1,,,,,,,,,0,,,86,0
147560,note_on,1,0,1,,,,,,,,,0,,,81,49
147600,note_on,0,0,1,,,,,,,,,0,,,81,49
147600,control_change,0,0,1,,,,,,,,,0,64,127,,
147600,note_on,40,0,1,,,,,,,,,0,,,81,0
147600,note_on,60,0,2,,,,,,,,,1,,,76,49
147639,note_on,39,0,1,,,,,,,,,0,,,85,49
147640,note_on,1,0,1,,,,,,,,,0,,,81,0
147679,note_on,39,0,1,,,,,,,,,0,,,85,0
147680,note_on,1,0,1,,,,,,,,,0,,,81,49
147720,note_on,120,0,2,,,,,,,,,1,,,76,0
147720,note_on,0,0,2,,,,,,,,,1,,,69,49
147720,note_on,0,0,1,,,,,,,,,0,,,85,49
147720,note_on,40,0,1,,,,,,,,,0,,,81,0
147720,control_change,0,0,1,,,,,,,,,0,64,0,,
147759,note_on,39,0,1,,,,,,,,,0,,,88,49
147760,note_on,1,0,1,,,,,,,,,0,,,85,0
147780,note_on,60,0,2,,,,,,,,,1,,,69,0
147799,note_on,39,0,1,,,,,,,,,0,,,88,0
147800,note_on,1,0,1,,,,,,,,,0,,,85,49
147840,note_on,40,0,1,,,,,,,,,0,,,85,0
147840,control_change,0,0,1,,,,,,,,,0,64,127,,
147840,note_on,0,0,1,,,,,,,,,0,,,81,49
147840,note_on,60,0,2,,,,,,,,,1,,,78,49
147879,note_on,39,0,1,,,,,,,,,0,,,86,49
147880,note_on,1,0,1,,,,,,,,,0,,,81,0
147919,note_on,39,0,1,,,,,,,,,0,,,86,0
147920,note_on,1,0,1,,,,,,,,,0,,,81,49
147960,note_on,120,0,2,,,,,,,,,1,,,78,0
147960,note_on,0,0,2,,,,,,,,,1,,,74,49
147960,note_on,40,0,1,,,,,,,,,0,,,81,0
147960,control_change,0,0,1,,,,,,,,,0,64,0,,
147960,note_on,0,0,1,,,,,,,,,0,,,86,49
147999,note_on,39,0,1,,,,,,,,,0,,,90,49
148000,note_on,1,0,1,,,,,,,,,0,,,86,0
148020,note_on,60,0,2,,,,,,,,,1,,,74,0
148039,note_on,39,0,1,,,,,,,,,0,,,90,0
148040,note_on,1,0,1,,,,,,,,,0,,,86,49
148080,note_on,0,0,1,,,,,,,,,0,,,86,49
148080,note_on,40,0,1,,,,,,,,,0,,,86,0
148080,note_on,0,0,2,,,,,,,,,1,,,83,49
148080,control_change,60,0,2,,,,,,,,,1,64,127,,
148080,control_change,0,0,1,,,,,,,,,0,64,127,,
148119,note_on,39,0,1,,,,,,,,,0,,,89,49
148120,note_on,1,0,1,,,,,,,,,0,,,86,0
148159,note_on,39,0,1,,,,,,,,,0,,,89,0
148160,note_on,1,0,1,,,,,,,,,0,,,86,49
148170,note_on,0,0,2,,,,,,,,,1,,,80,49
148170,note_on,90,0,2,,,,,,,,,1,,,83,0
148200,note_on,30,0,2,,,,,,,,,1,,,80,0
148200,note_on,0,0,2,,,,,,,,,1,,,83,49
148200,note_on,40,0,1,,,,,,,,,0,,,86,0
148200,note_on,0,0,1,,,,,,,,,0,,,89,49
148239,note_on,39,0,1,,,,,,,,,0,,,92,49
148240,note_on,1,0,1,,,,,,,,,0,,,89,0
148279,note_on,39,0,1,,,,,,,,,0,,,92,0
148280,note_on,0,0,1,,,,,,,,,0,,,89,49
148280,control_change,1,0,1,,,,,,,,,0,64,0,,
148290,note_on,90,0,2,,,,,,,,,1,,,83,0
148290,note_on,0,0,2,,,,,,,,,1,,,80,49
148290,control_change,0,0,2,,,,,,,,,1,64,0,,
148320,note_on,30,0,2,,,,,,,,,1,,,80,0
148320,note_on,40,0,1,,,,,,,,,0,,,89,0
148320,note_on,0,0,1,,,,,,,,,0,,,86,49
148320,control_change,0,0,1,,,,,,,,,0,64,127,,
148320,control_change,0,0,2,,,,,,,,,1,64,127,,
148320,note_on,0,0,2,,,,,,,,,1,,,83,49
148359,note_on,39,0,1,,,,,,,,,0,,,89,49
148360,note_on,1,0,1,,,,,,,,,0,,,86,0
148399,note_on,39,0,1,,,,,,,,,0,,,89,0
148400,note_on,1,0,1,,,,,,,,,0,,,86,49
148440,note_on,0,0,2,,,,,,,,,1,,,80,49
148440,note_on,0,0,1,,,,,,,,,0,,,89,49
148440,note_on,40,0,1,,,,,,,,,0,,,86,0
148440,note_on,120,0,2,,,,,,,,,1,,,83,0
148479,note_on,39,0,1,,,,,,,,,0,,,92,49
148480,note_on,1,0,1,,,,,,,,,0,,,89,0
148500,note_on,60,0,2,,,,,,,,,1,,,80,0
148519,note_on,39,0,1,,,,,,,,,0,,,92,0
148520,note_on,1,0,1,,,,,,,,,0,,,89,49
148560,note_on,0,0,1,,,,,,,,,0,,,86,49
148560,note_on,40,0,1,,,,,,,,,0,,,89,0
148560,note_on,60,0,2,,,,,,,,,1,,,83,49
148599,note_on,39,0,1,,,,,,,,,0,,,89,49
148600,note_on,1,0,1,,,,,,,,,0,,,86,0
148639,note_on,39,0,1,,,,,,,,,0,,,89,0
148640,note_on,1,0,1,,,,,,,,,0,,,86,49
148680,note_on,120,0,2,,,,,,,,,1,,,83,0
148680,note_on,40,0,1,,,,,,,,,0,,,86,0
148680,note_on,0,0,1,,,,,,,,,0,,,89,49
148680,note_on,0,0,2,,,,,,,,,1,,,80,49
148719,note_on,39,0,1,,,,,,,,,0,,,92,49
148720,note_on,1,0,1,,,,,,,,,0,,,89,0
148740,note_on,60,0,2,,,,,,,,,1,,,80,0
148759,note_on,39,0,1,,,,,,,,,0,,,92,0
148760,note_on,1,0,1,,,,,,,,,0,,,89,49
148800,note_on,0,0,1,,,,,,,,,0,,,86,49
148800,note_on,40,0,1,,,,,,,,,0,,,89,0
148800,note_on,60,0,2,,,,,,,,,1,,,83,49
148839,note_on,39,0,1,,,,,,,,,0,,,89,49
148840,note_on,1,0,1,,,,,,,,,0,,,86,0
148879,note_on,39,0,1,,,,,,,,,0,,,89,0
148880,note_on,1,0,1,,,,,,,,,0,,,86,49
148920,note_on,120,0,2,,,,,,,,,1,,,83,0
148920,control_change,0,0,2,,,,,,,,,1,64,0,,
148920,note_on,0,0,2,,,,,,,,,1,,,80,49
148920,note_on,0,0,1,,,,,,,,,0,,,89,49
148920,control_change,0,0,1,,,,,,,,,0,64,0,,
148920,note_on,40,0,1,,,,,,,,,0,,,86,0
148959,note_on,39,0,1,,,,,,,,,0,,,92,49
148960,note_on,1,0,1,,,,,,,,,0,,,89,0
148980,note_on,60,0,2,,,,,,,,,1,,,80,0
148999,note_on,39,0,1,,,,,,,,,0,,,92,0
149000,note_on,1,0,1,,,,,,,,,0,,,89,49
149040,note_on,40,0,1,,,,,,,,,0,,,89,0
149040,control_change,60,0,2,,,,,,,,,1,64,127,,
149040,note_on,0,0,2,,,,,,,,,1,,,82,49
149040,control_change,0,0,1,,,,,,,,,0,64,127,,
149040,note_on,0,0,1,,,,,,,,,0,,,86,49
149079,note_on,39,0,1,,,,,,,,,0,,,89,49
149080,note_on,1,0,1,,,,,,,,,0,,,86,0
149119,note_on,39,0,1,,,,,,,,,0,,,89,0
149120,note_on,1,0,1,,,,,,,,,0,,,86,49
149130,note_on,0,0,2,,,,,,,,,1,,,80,49
149130,note_on,90,0,2,,,,,,,,,1,,,82,0
149160,note_on,0,0,1,,,,,,,,,0,,,89,49
149160,note_on,0,0,2,,,,,,,,,1,,,82,49
149160,note_on,30,0,2,,,,,,,,,1,,,80,0
149160,note_on,40,0,1,,,,,,,,,0,,,86,0
149199,note_on,39,0,1,,,,,,,,,0,,,94,49
149200,note_on,1,0,1,,,,,,,,,0,,,89,0
149239,note_on,39,0,1,,,,,,,,,0,,,94,0
149240,note_on,1,0,1,,,,,,,,,0,,,89,49
149250,note_on,0,0,2,,,,,,,,,1,,,80,49
149250,note_on,90,0,2,,,,,,,,,1,,,82,0
149280,note_on,0,0,1,,,,,,,,,0,,,86,49
149280,note_on,40,0,1,,,,,,,,,0,,,89,0
149280,note_on,30,0,2,,,,,,,,,1,,,80,0
149280,note_on,0,0,2,,,,,,,,,1,,,82,49
149319,note_on,39,0,1,,,,,,,,,0,,,89,49
149320,note_on,1,0,1,,,,,,,,,0,,,86,0
149359,note_on,39,0,1,,,,,,,,,0,,,89,0
149360,note_on,1,0,1,,,,,,,,,0,,,86,49
149400,note_on,0,0,1,,,,,,,,,0,,,89,49
149400,note_on,40,0,1,,,,,,,,,0,,,86,0
149400,note_on,0,0,2,,,,,,,,,1,,,80,49
149400,note_on,120,0,2,,,,,,,,,1,,,82,0
149439,note_on,39,0,1,,,,,,,,,0,,,94,49
149440,note_on,1,0,1,,,,,,,,,0,,,89,0
149460,note_on,60,0,2,,,,,,,,,1,,,80,0
149479,note_on,39,0,1,,,,,,,,,0,,,94,0
149480,note_on,1,0,1,,,,,,,,,0,,,89,49
149520,note_on,40,0,1,,,,,,,,,0,,,89,0
149520,note_on,60,0,2,,,,,,,,,1,,,82,49
149520,note_on,0,0,1,,,,,,,,,0,,,86,49
149559,note_on,39,0,1,,,,,,,,,0,,,89,49
149560,note_on,1,0,1,,,,,,,,,0,,,86,0
149599,note_on,39,0,1,,,,,,,,,0,,,89,0
149600,note_on,1,0,1,,,,,,,,,0,,,86,49
149640,note_on,120,0,2,,,,,,,,,1,,,82,0
149640,control_change,0,0,2,,,,,,,,,1,64,0,,
149640,note_on,0,0,2,,,,,,,,,1,,,80,49
149640,note_on,40,0,1,,,,,,,,,0,,,86,0
149640,note_on,0,0,1,,,,,,,,,0,,,89,49
149679,note_on,39,0,1,,,,,,,,,0,,,94,49
149680,note_on,1,0,1,,,,,,,,,0,,,89,0
149700,note_on,60,0,2,,,,,,,,,1,,,80,0
149719,note_on,39,0,1,,,,,,,,,0,,,94,0
149720,control_change,1,0,1,,,,,,,,,0,64,0,,
149720,note_on,0,0,1,,,,,,,,,0,,,89,49
149760,note_on,60,0,2,,,,,,,,,1,,,82,49
149760,note_on,0,0,1,,,,,,,,,0,,,87,49
149760,control_change,0,0,1,,,,,,,,,0,64,127,,
149760,note_on,40,0,1,,,,,,,,,0,,,89,0
149799,note_on,39,0,1,,,,,,,,,0,,,91,49
149800,note_on,1,0,1,,,,,,,,,0,,,87,0
149839,note_on,39,0,1,,,,,,,,,0,,,91,0
149840,note_on,1,0,1,,,,,,,,,0,,,87,49
149880,note_on,40,0,1,,,,,,,,,0,,,87,0
149880,note_on,0,0,2,,,,,,,,,1,,,79,49
149880,note_on,120,0,2,,,,,,,,,1,,,82,0
149880,note_on,0,0,1,,,,,,,,,0,,,91,49
149919,note_on,39,0,1,,,,,,,,,0,,,94,49
149920,note_on,1,0,1,,,,,,,,,0,,,91,0
149940,note_on,60,0,2,,,,,,,,,1,,,79,0
149959,note_on,39,0,1,,,,,,,,,0,,,94,0
149960,control_change,1,0,1,,,,,,,,,0,64,0,,
149960,note_on,0,0,1,,,,,,,,,0,,,91,49
150000,note_on,40,0,1,,,,,,,,,0,,,91,0
150000,note_on,60,0,2,,,,,,,,,1,,,81,49
150000,note_on,0,0,1,,,,,,,,,0,,,85,49
150000,control_change,0,0,1,,,,,,,,,0,64,127,,
150039,note_on,39,0,1,,,,,,,,,0,,,88,49
150040,note_on,1,0,1,,,,,,,,,0,,,85,0
150079,note_on,39,0,1,,,,,,,,,0,,,88,0
150080,note_on,1,0,1,,,,,,,,,0,,,85,49
150120,note_on,40,0,1,,,,,,,,,0,,,85,0
150120,note_on,120,0,2,,,,,,,,,1,,,81,0
150120,note_on,0,0,2,,,,,,,,,1,,,79,49
150120,note_on,0,0,1,,,,,,,,,0,,,88,49
150159,note_on,39,0,1,,,,,,,,,0,,,93,49
150160,note_on,1,0,1,,,,,,,,,0,,,88,0
150180,note_on,60,0,2,,,,,,,,,1,,,79,0
150199,note_on,39,0,1,,,,,,,,,0,,,93,0
150200,control_change,1,0,1,,,,,,,,,0,64,0,,
150200,note_on,0,0,1,,,,,,,,,0,,,88,49
150240,note_on,60,0,2,,,,,,,,,1,,,78,49
150240,note_on,0,0,1,,,,,,,,,0,,,86,49
150240,control_change,0,0,1,,,,,,,,,0,64,127,,
150240,note_on,40,0,1,,,,,,,,,0,,,88,0
150279,note_on,39,0,1,,,,,,,,,0,,,90,49
150280,note_on,1,0,1,,,,,,,,,0,,,86,0
150319,note_on,39,0,1,,,,,,,,,0,,,90,0
150320,note_on,1,0,1,,,,,,,,,0,,,86,49
150360,note_on,0,0,1,,,,,,,,,0,,,90,49
150360,note_on,40,0,1,,,,,,,,,0,,,86,0
150360,note_on,0,0,2,,,,,,,,,1,,,81,49
150360,note_on,120,0,2,,,,,,,,,1,,,78,0
150399,note_on,39,0,1,,,,,,,,,0,,,93,49
150400,note_on,1,0,1,,,,,,,,,0,,,90,0
150420,note_on,60,0,2,,,,,,,,,1,,,81,0
150439,note_on,39,0,1,,,,,,,,,0,,,93,0
150440,control_change,1,0,1,,,,,,,,,0,64,0,,
150440,note_on,0,0,1,,,,,,,,,0,,,90,49
150480,note_on,40,0,1,,,,,,,,,0,,,90,0
150480,control_change,0,0,1,,,,,,,,,0,64,127,,
150480,note_on,0,0,1,,,,,,,,,0,,,79,49
150480,note_on,60,0,2,,,,,,,,,1,,,71,49
150519,note_on,39,0,1,,,,,,,,,0,,,86,49
150520,note_on,1,0,1,,,,,,,,,0,,,79,0
150559,note_on,39,0,1,,,,,,,,,0,,,86,0
150560,note_on,1,0,1,,,,,,,,,0,,,79,49
150600,note_on,0,0,1,,,,,,,,,0,,,86,49
150600,note_on,40,0,1,,,,,,,,,0,,,79,0
150600,note_on,0,0,2,,,,,,,,,1,,,74,49
150600,note_on,120,0,2,,,,,,,,,1,,,71,0
150600,note_on,0,0,2,,,,,,,,,1,,,79,49
150639,note_on,39,0,1,,,,,,,,,0,,,91,49
150640,note_on,1,0,1,,,,,,,,,0,,,86,0
150660,note_on,60,0,2,,,,,,,,,1,,,79,0
150660,note_on,0,0,2,,,,,,,,,1,,,74,0
150679,note_on,39,0,1,,,,,,,,,0,,,91,0
150680,control_change,1,0,1,,,,,,,,,0,64,0,,
150680,note_on,0,0,1,,,,,,,,,0,,,86,49
150720,note_on,60,0,2,,,,,,,,,1,,,69,49
150720,control_change,0,0,1,,,,,,,,,0,64,127,,
150720,note_on,40,0,1,,,,,,,,,0,,,86,0
150720,note_on,0,0,1,,,,,,,,,0,,,81,49
150759,note_on,39,0,1,,,,,,,,,0,,,86,49
150760,note_on,1,0,1,,,,,,,,,0,,,81,0
150799,note_on,39,0,1,,,,,,,,,0,,,86,0
150800,note_on,1,0,1,,,,,,,,,0,,,81,49
150840,note_on,40,0,1,,,,,,,,,0,,,81,0
150840,note_on,0,0,1,,,,,,,,,0,,,86,49
150840,note_on,0,0,2,,,,,,,,,1,,,78,49
150840,note_on,120,0,2,,,,,,,,,1,,,69,0
150840,note_on,0,0,2,,,,,,,,,1,,,74,49
150879,note_on,39,0,1,,,,,,,,,0,,,90,49
150880,note_on,1,0,1,,,,,,,,,0,,,86,0
150900,note_on,0,0,2,,,,,,,,,1,,,74,0
150900,note_on,60,0,2,,,,,,,,,1,,,78,0
150919,note_on,39,0,1,,,,,,,,,0,,,90,0
150920,control_change,1,0,1,,,,,,,,,0,64,0,,
150920,note_on,0,0,1,,,,,,,,,0,,,86,49
150960,note_on,60,0,2,,,,,,,,,1,,,69,49
150960,note_on,40,0,1,,,,,,,,,0,,,86,0
150960,control_change,0,0,1,,,,,,,,,0,64,127,,
150960,note_on,0,0,1,,,,,,,,,0,,,81,49
150999,note_on,39,0,1,,,,,,,,,0,,,88,49
151000,note_on,1,0,1,,,,,,,,,0,,,81,0
151039,note_on,39,0,1,,,,,,,,,0,,,88,0
151040,note_on,1,0,1,,,,,,,,,0,,,85,49
151080,note_on,0,0,2,,,,,,,,,1,,,76,49
151080,note_on,0,0,2,,,,,,,,,1,,,73,49
151080,note_on,120,0,2,,,,,,,,,1,,,69,0
151080,note_on,40,0,1,,,,,,,,,0,,,85,0
151080,note_on,0,0,1,,,,,,,,,0,,,81,49
151119,note_on,39,0,1,,,,,,,,,0,,,79,49
151120,note_on,1,0,1,,,,,,,,,0,,,81,0
151140,note_on,60,0,2,,,,,,,,,1,,,76,0
151140,note_on,0,0,2,,,,,,,,,1,,,73,0
151159,note_on,39,0,1,,,,,,,,,0,,,79,0
151160,note_on,0,0,1,,,,,,,,,0,,,76,49
151160,control_change,1,0,1,,,,,,,,,0,64,0,,
151200,note_on,40,0,1,,,,,,,,,0,,,76,0
151200,note_on,0,0,3,,,,,,,,,2,,,60,88
151200,control_change,6660,0,3,,,,,,,,,2,64,127,,
151200,note_on,0,0,1,,,,,,,,,0,,,72,101
151200,control_change,0,0,1,,,,,,,,,0,64,127,,
151239,note_on,39,0,1,,,,,,,,,0,,,74,101
151239,note_on,39,0,3,,,,,,,,,2,,,62,88
151240,note_on,1,0,1,,,,,,,,,0,,,72,0
151240,note_on,1,0,3,,,,,,,,,2,,,60,0
151279,note_on,39,0,1,,,,,,,,,0,,,74,0
151279,note_on,39,0,3,,,,,,,,,2,,,62,0
151280,note_on,1,0,3,,,,,,,,,2,,,60,88
151280,note_on,1,0,1,,,,,,,,,0,,,72,101
151320,note_on,40,0,1,,,,,,,,,0,,,72,0
151320,note_on,0,0,1,,,,,,,,,0,,,69,88
151320,note_on,40,0,3,,,,,,,,,2,,,60,0
151320,note_on,0,0,3,,,,,,,,,2,,,57,75
151359,note_on,39,0,1,,,,,,,,,0,,,66,88
151359,note_on,39,0,3,,,,,,,,,2,,,54,75
151360,note_on,1,0,1,,,,,,,,,0,,,69,0
151360,note_on,1,0,3,,,,,,,,,2,,,57,0
151399,note_on,39,0,1,,,,,,,,,0,,,66,0
151399,note_on,39,0,3,,,,,,,,,2,,,54,0
151400,note_on,1,0,3,,,,,,,,,2,,,50,75
151400,note_on,1,0,1,,,,,,,,,0,,,62,88
151440,note_on,0,0,1,,,,,,,,,0,,,60,101
151440,note_on,40,0,1,,,,,,,,,0,,,62,0
151440,note_on,40,0,3,,,,,,,,,2,,,50,0
151440,note_on,0,0,3,,,,,,,,,2,,,48,88
151479,note_on,39,0,3,,,,,,,,,2,,,50,62
151479,note_on,39,0,1,,,,,,,,,0,,,62,75
151480,note_on,1,0,1,,,,,,,,,0,,,60,0
151480,note_on,1,0,3,,,,,,,,,2,,,48,0
151519,note_on,39,0,3,,,,,,,,,2,,,50,0
151519,note_on,39,0,1,,,,,,,,,0,,,62,0
151520,note_on,1,0,3,,,,,,,,,2,,,48,62
151520,note_on,1,0,1,,,,,,,,,0,,,60,75
151560,note_on,40,0,3,,,,,,,,,2,,,48,0
151560,note_on,40,0,1,,,,,,,,,0,,,60,0
151560,control_change,0,0,1,,,,,,,,,0,64,0,,
151560,note_on,0,0,1,,,,,,,,,0,,,62,75
151560,note_on,0,0,3,,,,,,,,,2,,,50,62
151560,control_change,0,0,3,,,,,,,,,2,64,0,,
151599,note_on,39,0,1,,,,,,,,,0,,,60,75
151599,note_on,39,0,3,,,,,,,,,2,,,48,62
151600,note_on,1,0,3,,,,,,,,,2,,,50,0
151600,note_on,1,0,1,,,,,,,,,0,,,62,0
151639,note_on,39,0,1,,,,,,,,,0,,,60,0
151639,note_on,39,0,3,,,,,,,,,2,,,48,0
151640,note_on,1,0,1,,,,,,,,,0,,,62,75
151640,note_on,1,0,3,,,,,,,,,2,,,50,62
151680,note_on,40,0,3,,,,,,,,,2,,,50,0
151680,control_change,0,0,3,,,,,,,,,2,64,127,,
151680,note_on,0,0,3,,,,,,,,,2,,,58,101
151680,note_on,0,0,1,,,,,,,,,0,,,70,114
151680,control_change,0,0,1,,,,,,,,,0,64,127,,
151680,note_on,40,0,1,,,,,,,,,0,,,62,0
151719,note_on,39,0,1,,,,,,,,,0,,,74,114
151719,note_on,39,0,3,,,,,,,,,2,,,62,101
151720,note_on,1,0,3,,,,,,,,,2,,,58,0
151720,note_on,1,0,1,,,,,,,,,0,,,70,0
151759,note_on,39,0,1,,,,,,,,,0,,,74,0
151759,note_on,39,0,3,,,,,,,,,2,,,62,0
151760,note_on,1,0,1,,,,,,,,,0,,,72,114
151760,note_on,1,0,3,,,,,,,,,2,,,60,101
151800,note_on,0,0,1,,,,,,,,,0,,,70,101
151800,note_on,40,0,1,,,,,,,,,0,,,72,0
151800,note_on,0,0,3,,,,,,,,,2,,,58,88
151800,note_on,40,0,3,,,,,,,,,2,,,60,0
151839,note_on,39,0,3,,,,,,,,,2,,,53,88
151839,note_on,39,0,1,,,,,,,,,0,,,65,101
151840,note_on,1,0,1,,,,,,,,,0,,,70,0
151840,note_on,1,0,3,,,,,,,,,2,,,58,0
151879,note_on,39,0,1,,,,,,,,,0,,,65,0
151879,note_on,39,0,3,,,,,,,,,2,,,53,0
151880,note_on,1,0,3,,,,,,,,,2,,,50,88
151880,note_on,1,0,1,,,,,,,,,0,,,62,101
151920,note_on,40,0,3,,,,,,,,,2,,,50,0
151920,note_on,0,0,3,,,,,,,,,2,,,46,101
151920,note_on,40,0,1,,,,,,,,,0,,,62,0
151920,note_on,0,0,1,,,,,,,,,0,,,58,114
151959,note_on,39,0,3,,,,,,,,,2,,,50,75
151959,note_on,39,0,1,,,,,,,,,0,,,62,88
151960,note_on,1,0,3,,,,,,,,,2,,,46,0
151960,note_on,1,0,1,,,,,,,,,0,,,58,0
151999,note_on,39,0,3,,,,,,,,,2,,,50,0
151999,note_on,39,0,1,,,,,,,,,0,,,62,0
152000,note_on,1,0,3,,,,,,,,,2,,,46,75
152000,note_on,1,0,1,,,,,,,,,0,,,58,88
152040,control_change,0,0,1,,,,,,,,,0,64,0,,
152040,note_on,0,0,1,,,,,,,,,0,,,62,88
152040,note_on,40,0,1,,,,,,,,,0,,,58,0
152040,note_on,0,0,3,,,,,,,,,2,,,50,75
152040,note_on,40,0,3,,,,,,,,,2,,,46,0
152040,control_change,0,0,3,,,,,,,,,2,64,0,,
152079,note_on,39,0,3,,,,,,,,,2,,,46,75
152079,note_on,39,0,1,,,,,,,,,0,,,58,88
152080,note_on,1,0,1,,,,,,,,,0,,,62,0
152080,note_on,1,0,3,,,,,,,,,2,,,50,0
152119,note_on,39,0,3,,,,,,,,,2,,,46,0
152119,note_on,39,0,1,,,,,,,,,0,,,58,0
152120,note_on,1,0,1,,,,,,,,,0,,,62,88
152120,note_on,1,0,3,,,,,,,,,2,,,50,75
152160,note_on,40,0,1,,,,,,,,,0,,,62,0
152160,note_on,40,0,3,,,,,,,,,2,,,50,0
152160,control_change,0,0,3,,,,,,,,,2,64,127,,
152160,note_on,0,0,3,,,,,,,,,2,,,60,101
152160,note_on,0,0,1,,,,,,,,,0,,,72,114
152160,control_change,0,0,1,,,,,,,,,0,64,127,,
152199,note_on,39,0,1,,,,,,,,,0,,,74,114
152199,note_on,39,0,3,,,,,,,,,2,,,62,101
152200,note_on,1,0,1,,,,,,,,,0,,,72,0
152200,note_on,1,0,3,,,,,,,,,2,,,60,0
152239,note_on,39,0,3,,,,,,,,,2,,,62,0
152239,note_on,39,0,1,,,,,,,,,0,,,74,0
152240,note_on,1,0,1,,,,,,,,,0,,,72,114
152240,note_on,1,0,3,,,,,,,,,2,,,60,101
152280,note_on,40,0,1,,,,,,,,,0,,,72,0
152280,note_on,0,0,3,,,,,,,,,2,,,57,88
152280,note_on,0,0,1,,,,,,,,,0,,,69,101
152280,note_on,40,0,3,,,,,,,,,2,,,60,0
152319,note_on,39,0,1,,,,,,,,,0,,,66,101
152319,note_on,39,0,3,,,,,,,,,2,,,54,88
152320,note_on,1,0,1,,,,,,,,,0,,,69,0
152320,note_on,1,0,3,,,,,,,,,2,,,57,0
152359,note_on,39,0,3,,,,,,,,,2,,,54,0
152359,note_on,39,0,1,,,,,,,,,0,,,66,0
152360,note_on,1,0,3,,,,,,,,,2,,,50,88
152360,note_on,1,0,1,,,,,,,,,0,,,62,101
152400,note_on,0,0,1,,,,,,,,,0,,,60,114
152400,note_on,0,0,3,,,,,,,,,2,,,48,101
152400,note_on,40,0,3,,,,,,,,,2,,,50,0
152400,note_on,40,0,1,,,,,,,,,0,,,62,0
152439,note_on,39,0,3,,,,,,,,,2,,,50,75
152439,note_on,39,0,1,,,,,,,,,0,,,62,88
152440,note_on,1,0,1,,,,,,,,,0,,,60,0
152440,note_on,1,0,3,,,,,,,,,2,,,48,0
152479,note_on,39,0,1,,,,,,,,,0,,,62,0
152479,note_on,39,0,3,,,,,,,,,2,,,50,0
152480,note_on,1,0,3,,,,,,,,,2,,,48,75
152480,note_on,1,0,1,,,,,,,,,0,,,60,88
152520,note_on,40,0,1,,,,,,,,,0,,,60,0
152520,note_on,0,0,1,,,,,,,,,0,,,62,88
152520,note_on,40,0,3,,,,,,,,,2,,,48,0
152520,control_change,0,0,3,,,,,,,,,2,64,0,,
152520,note_on,0,0,3,,,,,,,,,2,,,50,75
152520,control_change,0,0,1,,,,,,,,,0,64,0,,
152559,note_on,39,0,1,,,,,,,,,0,,,60,88
152559,note_on,39,0,3,,,,,,,,,2,,,48,75
152560,note_on,1,0,1,,,,,,,,,0,,,62,0
152560,note_on,1,0,3,,,,,,,,,2,,,50,0
152599,note_on,39,0,1,,,,,,,,,0,,,60,0
152599,note_on,39,0,3,,,,,,,,,2,,,48,0
152600,note_on,1,0,1,,,,,,,,,0,,,62,88
152600,note_on,1,0,3,,,,,,,,,2,,,50,75
152640,note_on,0,0,1,,,,,,,,,0,,,70,114
152640,control_change,0,0,3,,,,,,,,,2,64,127,,
152640,control_change,0,0,1,,,,,,,,,0,64,127,,
152640,note_on,40,0,1,,,,,,,,,0,,,62,0
152640,note_on,0,0,3,,,,,,,,,2,,,58,101
152640,note_on,40,0,3,,,,,,,,,2,,,50,0
152679,note_on,39,0,3,,,,,,,,,2,,,62,101
152679,note_on,39,0,1,,,,,,,,,0,,,74,114
152680,note_on,1,0,3,,,,,,,,,2,,,58,0
152680,note_on,1,0,1,,,,,,,,,0,,,70,0
152719,note_on,39,0,3,,,,,,,,,2,,,62,0
152719,note_on,39,0,1,,,,,,,,,0,,,74,0
152720,note_on,1,0,1,,,,,,,,,0,,,72,114
152720,note_on,1,0,3,,,,,,,,,2,,,60,101
152760,note_on,0,0,1,,,,,,,,,0,,,70,101
152760,note_on,0,0,3,,,,,,,,,2,,,58,88
152760,note_on,40,0,1,,,,,,,,,0,,,72,0
152760,note_on,40,0,3,,,,,,,,,2,,,60,0
152799,note_on,39,0,1,,,,,,,,,0,,,65,101
152799,note_on,39,0,3,,,,,,,,,2,,,53,88
152800,note_on,1,0,3,,,,,,,,,2,,,58,0
152800,note_on,1,0,1,,,,,,,,,0,,,70,0
152839,note_on,39,0,3,,,,,,,,,2,,,53,0
152839,note_on,39,0,1,,,,,,,,,0,,,65,0
152840,note_on,1,0,1,,,,,,,,,0,,,62,101
152840,note_on,1,0,3,,,,,,,,,2,,,50,88
152880,note_on,0,0,3,,,,,,,,,2,,,46,101
152880,note_on,40,0,3,,,,,,,,,2,,,50,0
152880,note_on,40,0,1,,,,,,,,,0,,,62,0
152880,note_on,0,0,1,,,,,,,,,0,,,58,114
152919,note_on,39,0,1,,,,,,,,,0,,,62,88
152919,note_on,39,0,3,,,,,,,,,2,,,50,75
152920,note_on,1,0,3,,,,,,,,,2,,,46,0
152920,note_on,1,0,1,,,,,,,,,0,,,58,0
152959,note_on,39,0,1,,,,,,,,,0,,,62,0
152959,note_on,39,0,3,,,,,,,,,2,,,50,0
152960,note_on,1,0,1,,,,,,,,,0,,,58,88
152960,note_on,1,0,3,,,,,,,,,2,,,46,75
153000,note_on,40,0,1,,,,,,,,,0,,,58,0
153000,control_change,0,0,1,,,,,,,,,0,64,0,,
153000,note_on,0,0,1,,,,,,,,,0,,,62,88
153000,note_on,40,0,3,,,,,,,,,2,,,46,0
153000,control_change,0,0,3,,,,,,,,,2,64,0,,
153000,note_on,0,0,3,,,,,,,,,2,,,50,75
153039,note_on,39,0,3,,,,,,,,,2,,,46,75
153039,note_on,39,0,1,,,,,,,,,0,,,58,88
153040,note_on,1,0,3,,,,,,,,,2,,,50,0
153040,note_on,1,0,1,,,,,,,,,0,,,62,0
153079,note_on,39,0,3,,,,,,,,,2,,,46,0
153079,note_on,39,0,1,,,,,,,,,0,,,58,0
153080,note_on,1,0,3,,,,,,,,,2,,,50,75
153080,note_on,1,0,1,,,,,,,,,0,,,62,88
153120,note_on,17940,0,4,,,,,,,,,3,,,45,36
153120,note_on,40,0,3,,,,,,,,,2,,,50,0
153120,note_on,40,0,1,,,,,,,,,0,,,62,0
153120,control_change,0,0,1,,,,,,,,,0,64,127,,
153120,note_on,0,0,1,,,,,,,,,0,,,57,36
153159,note_on,39,0,1,,,,,,,,,0,,,59,36
153160,note_on,1,0,1,,,,,,,,,0,,,57,0
153180,note_on,60,0,4,,,,,,,,,3,,,45,0
153199,note_on,39,0,1,,,,,,,,,0,,,59,0
153200,note_on,1,0,1,,,,,,,,,0,,,61,36
153240,note_on,0,0,1,,,,,,,,,0,,,62,36
153240,note_on,40,0,1,,,,,,,,,0,,,61,0
153240,note_on,0,0,2,,,,,,,,,1,,,81,36
153240,note_on,2100,0,2,,,,,,,,,1,,,78,36
153279,note_on,39,0,1,,,,,,,,,0,,,64,36
153280,note_on,1,0,1,,,,,,,,,0,,,62,0
153319,note_on,39,0,1,,,,,,,,,0,,,64,0
153320,note_on,1,0,1,,,,,,,,,0,,,66,36
153330,note_on,90,0,2,,,,,,,,,1,,,81,0
153330,note_on,0,0,2,,,,,,,,,1,,,78,0
153330,note_on,0,0,2,,,,,,,,,1,,,78,36
153330,note_on,0,0,2,,,,,,,,,1,,,81,36
153360,note_on,0,0,1,,,,,,,,,0,,,67,36
153360,control_change,0,0,1,,,,,,,,,0,64,0,,
153360,note_on,40,0,1,,,,,,,,,0,,,66,0
153360,note_on,30,0,2,,,,,,,,,1,,,81,0
153360,note_on,0,0,2,,,,,,,,,1,,,79,36
153360,note_on,0,0,2,,,,,,,,,1,,,76,36
153360,note_on,0,0,2,,,,,,,,,1,,,78,0
153399,note_on,39,0,1,,,,,,,,,0,,,69,36
153400,note_on,1,0,1,,,,,,,,,0,,,67,0
153420,note_on,0,0,2,,,,,,,,,1,,,76,0
153420,note_on,60,0,2,,,,,,,,,1,,,79,0
153439,note_on,39,0,1,,,,,,,,,0,,,69,0
153440,note_on,1,0,1,,,,,,,,,0,,,71,36
153480,note_on,60,0,2,,,,,,,,,1,,,57,36
153480,note_on,0,0,2,,,,,,,,,1,,,64,36
153480,note_on,0,0,1,,,,,,,,,0,,,73,36
153480,note_on,40,0,1,,,,,,,,,0,,,71,0
153519,note_on,39,0,1,,,,,,,,,0,,,74,36
153520,note_on,1,0,1,,,,,,,,,0,,,73,0
153540,note_on,60,0,2,,,,,,,,,1,,,64,0
153540,note_on,0,0,2,,,,,,,,,1,,,57,0
153559,note_on,39,0,1,,,,,,,,,0,,,74,0
153560,note_on,1,0,1,,,,,,,,,0,,,76,36
153600,note_on,40,0,1,,,,,,,,,0,,,76,0
153600,control_change,0,0,1,,,,,,,,,0,64,127,,
153600,note_on,0,0,1,,,,,,,,,0,,,78,36
153600,note_on,0,0,4,,,,,,,,,3,,,54,36
153600,note_on,420,0,4,,,,,,,,,3,,,50,36
153600,note_on,0,0,4,,,,,,,,,3,,,62,36
153639,note_on,39,0,1,,,,,,,,,0,,,79,36
153640,note_on,1,0,1,,,,,,,,,0,,,78,0
153660,note_on,0,0,4,,,,,,,,,3,,,54,0
153660,note_on,0,0,4,,,,,,,,,3,,,50,0
153660,note_on,60,0,4,,,,,,,,,3,,,62,0
153679,note_on,39,0,1,,,,,,,,,0,,,79,0
153680,note_on,1,0,1,,,,,,,,,0,,,81,36
153720,note_on,180,0,2,,,,,,,,,1,,,78,36
153720,note_on,0,0,2,,,,,,,,,1,,,81,36
153720,note_on,0,0,1,,,,,,,,,0,,,83,36
153720,note_on,40,0,1,,,,,,,,,0,,,81,0
153759,note_on,39,0,1,,,,,,,,,0,,,85,36
153760,note_on,1,0,1,,,,,,,,,0,,,83,0
153799,note_on,39,0,1,,,,,,,,,0,,,85,0
153800,note_on,1,0,1,,,,,,,,,0,,,86,36
153810,note_on,0,0,2,,,,,,,,,1,,,78,0
153810,note_on,0,0,2,,,,,,,,,1,,,78,36
153810,note_on,0,0,2,,,,,,,,,1,,,81,36
153810,note_on,90,0,2,,,,,,,,,1,,,81,0
153840,note_on,0,0,2,,,,,,,,,1,,,79,36
153840,note_on,0,0,2,,,,,,,,,1,,,78,0
153840,note_on,30,0,2,,,,,,,,,1,,,81,0
153840,note_on,0,0,1,,,,,,,,,0,,,88,36
153840,control_change,0,0,1,,,,,,,,,0,64,0,,
153840,note_on,40,0,1,,,,,,,,,0,,,86,0
153840,note_on,0,0,2,,,,,,,,,1,,,76,36
153879,note_on,39,0,1,,,,,,,,,0,,,90,36
153880,note_on,1,0,1,,,,,,,,,0,,,88,0
153900,note_on,60,0,2,,,,,,,,,1,,,79,0
153900,note_on,0,0,2,,,,,,,,,1,,,76,0
153919,note_on,39,0,1,,,,,,,,,0,,,90,0
153920,note_on,1,0,1,,,,,,,,,0,,,91,36
153960,note_on,0,0,2,,,,,,,,,1,,,64,36
153960,note_on,40,0,1,,,,,,,,,0,,,91,0
153960,note_on,0,0,1,,,,,,,,,0,,,93,36
153960,note_on,60,0,2,,,,,,,,,1,,,57,36
153999,note_on,39,0,1,,,,,,,,,0,,,95,36
154000,note_on,1,0,1,,,,,,,,,0,,,93,0
154020,note_on,60,0,2,,,,,,,,,1,,,64,0
154020,note_on,0,0,2,,,,,,,,,1,,,57,0
154039,note_on,39,0,1,,,,,,,,,0,,,95,0
154040,note_on,1,0,1,,,,,,,,,0,,,97,36
154080,note_on,420,0,4,,,,,,,,,3,,,50,36
154080,note_on,0,0,4,,,,,,,,,3,,,54,36
154080,note_on,0,0,4,,,,,,,,,3,,,62,36
154080,note_on,0,0,1,,,,,,,,,0,,,98,36
154080,note_on,40,0,1,,,,,,,,,0,,,97,0
154119,control_change,39,0,1,,,,,,,,,0,64,127,,
154119,note_on,0,0,1,,,,,,,,,0,,,97,36
154120,note_on,1,0,1,,,,,,,,,0,,,98,0
154140,note_on,60,0,4,,,,,,,,,3,,,62,0
154140,note_on,0,0,4,,,,,,,,,3,,,54,0
154140,note_on,0,0,4,,,,,,,,,3,,,50,0
154159,note_on,39,0,1,,,,,,,,,0,,,97,0
154160,note_on,1,0,1,,,,,,,,,0,,,95,36
154200,note_on,40,0,1,,,,,,,,,0,,,95,0
154200,note_on,0,0,1,,,,,,,,,0,,,93,36
154200,note_on,180,0,2,,,,,,,,,1,,,78,36
154200,note_on,0,0,2,,,,,,,,,1,,,81,36
154239,note_on,39,0,1,,,,,,,,,0,,,91,36
154240,note_on,1,0,1,,,,,,,,,0,,,93,0
154279,note_on,39,0,1,,,,,,,,,0,,,91,0
154280,note_on,1,0,1,,,,,,,,,0,,,90,36
154290,note_on,90,0,2,,,,,,,,,1,,,81,0
154290,note_on,0,0,2,,,,,,,,,1,,,78,0
154290,note_on,0,0,2,,,,,,,,,1,,,78,36
154290,note_on,0,0,2,,,,,,,,,1,,,81,36
154320,note_on,40,0,1,,,,,,,,,0,,,90,0
154320,control_change,0,0,1,,,,,,,,,0,64,0,,
154320,note_on,0,0,1,,,,,,,,,0,,,88,36
154320,note_on,30,0,2,,,,,,,,,1,,,81,0
154320,note_on,0,0,2,,,,,,,,,1,,,78,0
154320,note_on,0,0,2,,,,,,,,,1,,,76,36
154320,note_on,0,0,2,,,,,,,,,1,,,79,36
154359,note_on,39,0,1,,,,,,,,,0,,,86,36
154360,note_on,1,0,1,,,,,,,,,0,,,88,0
154380,note_on,60,0,2,,,,,,,,,1,,,79,0
154380,note_on,0,0,2,,,,,,,,,1,,,76,0
154399,note_on,39,0,1,,,,,,,,,0,,,86,0
154400,note_on,1,0,1,,,,,,,,,0,,,85,36
154440,note_on,0,0,2,,,,,,,,,1,,,64,36
154440,note_on,40,0,1,,,,,,,,,0,,,85,0
154440,note_on,0,0,1,,,,,,,,,0,,,83,36
154440,note_on,60,0,2,,,,,,,,,1,,,57,36
154479,note_on,39,0,1,,,,,,,,,0,,,81,36
154480,note_on,1,0,1,,,,,,,,,0,,,83,0
154500,note_on,60,0,2,,,,,,,,,1,,,64,0
154500,note_on,0,0,2,,,,,,,,,1,,,57,0
154519,note_on,39,0,1,,,,,,,,,0,,,81,0
154520,note_on,1,0,1,,,,,,,,,0,,,79,36
154560,note_on,0,0,4,,,,,,,,,3,,,54,36
154560,note_on,420,0,4,,,,,,,,,3,,,50,36
154560,note_on,40,0,1,,,,,,,,,0,,,79,0
154560,control_change,0,0,1,,,,,,,,,0,64,127,,
154560,note_on,0,0,1,,,,,,,,,0,,,78,36
154560,note_on,0,0,4,,,,,,,,,3,,,62,36
154599,note_on,39,0,1,,,,,,,,,0,,,76,36
154600,note_on,1,0,1,,,,,,,,,0,,,78,0
154620,note_on,0,0,4,,,,,,,,,3,,,50,0
154620,note_on,0,0,4,,,,,,,,,3,,,54,0
154620,note_on,60,0,4,,,,,,,,,3,,,62,0
154639,note_on,39,0,1,,,,,,,,,0,,,76,0
154640,note_on,1,0,1,,,,,,,,,0,,,74,36
154680,note_on,40,0,1,,,,,,,,,0,,,74,0
154680,note_on,0,0,1,,,,,,,,,0,,,73,36
154680,note_on,0,0,2,,,,,,,,,1,,,81,36
154680,note_on,180,0,2,,,,,,,,,1,,,78,36
154719,note_on,39,0,1,,,,,,,,,0,,,71,36
154720,note_on,1,0,1,,,,,,,,,0,,,73,0
154759,note_on,39,0,1,,,,,,,,,0,,,71,0
154760,note_on,1,0,1,,,,,,,,,0,,,69,36
154770,note_on,90,0,2,,,,,,,,,1,,,81,0
154770,note_on,0,0,2,,,,,,,,,1,,,78,0
154770,note_on,0,0,2,,,,,,,,,1,,,78,36
154770,note_on,0,0,2,,,,,,,,,1,,,81,36
154800,note_on,0,0,1,,,,,,,,,0,,,67,36
154800,control_change,0,0,1,,,,,,,,,0,64,0,,
154800,note_on,40,0,1,,,,,,,,,0,,,69,0
154800,note_on,0,0,2,,,,,,,,,1,,,79,36
154800,note_on,0,0,2,,,,,,,,,1,,,76,36
154800,note_on,30,0,2,,,,,,,,,1,,,81,0
154800,note_on,0,0,2,,,,,,,,,1,,,78,0
154839,note_on,39,0,1,,,,,,,,,0,,,71,36
154840,note_on,1,0,1,,,,,,,,,0,,,67,0
154860,note_on,60,0,2,,,,,,,,,1,,,79,0
154860,note_on,0,0,2,,,,,,,,,1,,,76,0
154879,note_on,39,0,1,,,,,,,,,0,,,71,0
154880,note_on,1,0,1,,,,,,,,,0,,,69,36
154920,note_on,60,0,2,,,,,,,,,1,,,57,36
154920,note_on,0,0,1,,,,,,,,,0,,,67,36
154920,note_on,40,0,1,,,,,,,,,0,,,69,0
154959,note_on,39,0,1,,,,,,,,,0,,,66,36
154960,note_on,1,0,1,,,,,,,,,0,,,67,0
154980,note_on,60,0,2,,,,,,,,,1,,,57,0
154999,note_on,39,0,1,,,,,,,,,0,,,66,0
155000,note_on,1,0,1,,,,,,,,,0,,,64,36
155040,note_on,0,0,1,,,,,,,,,0,,,72,101
155040,control_change,1920,0,3,,,,,,,,,2,64,127,,
155040,note_on,40,0,1,,,,,,,,,0,,,64,0
155040,note_on,0,0,3,,,,,,,,,2,,,60,88
155040,control_change,0,0,1,,,,,,,,,0,64,127,,
155079,note_on,39,0,1,,,,,,,,,0,,,74,101
155079,note_on,39,0,3,,,,,,,,,2,,,62,88
155080,note_on,1,0,3,,,,,,,,,2,,,60,0
155080,note_on,1,0,1,,,,,,,,,0,,,72,0
155119,note_on,39,0,1,,,,,,,,,0,,,74,0
155119,note_on,39,0,3,,,,,,,,,2,,,62,0
155120,note_on,1,0,3,,,,,,,,,2,,,60,88
155120,note_on,1,0,1,,,,,,,,,0,,,72,101
155160,note_on,0,0,3,,,,,,,,,2,,,57,75
155160,note_on,40,0,3,,,,,,,,,2,,,60,0
155160,note_on,0,0,1,,,,,,,,,0,,,69,88
155160,note_on,40,0,1,,,,,,,,,0,,,72,0
155199,note_on,39,0,3,,,,,,,,,2,,,54,75
155199,note_on,39,0,1,,,,,,,,,0,,,66,88
155200,note_on,1,0,3,,,,,,,,,2,,,57,0
155200,note_on,1,0,1,,,,,,,,,0,,,69,0
155239,note_on,39,0,3,,,,,,,,,2,,,54,0
155239,note_on,39,0,1,,,,,,,,,0,,,66,0
155240,note_on,1,0,1,,,,,,,,,0,,,62,88
155240,note_on,1,0,3,,,,,,,,,2,,,50,75
155280,note_on,40,0,3,,,,,,,,,2,,,50,0
155280,note_on,0,0,3,,,,,,,,,2,,,48,88
155280,note_on,0,0,1,,,,,,,,,0,,,60,101
155280,note_on,40,0,1,,,,,,,,,0,,,62,0
155319,note_on,39,0,3,,,,,,,,,2,,,50,62
155319,note_on,39,0,1,,,,,,,,,0,,,62,75
155320,note_on,1,0,3,,,,,,,,,2,,,48,0
155320,note_on,1,0,1,,,,,,,,,0,,,60,0
155359,note_on,39,0,1,,,,,,,,,0,,,62,0
155359,note_on,39,0,3,,,,,,,,,2,,,50,0
155360,note_on,1,0,1,,,,,,,,,0,,,60,75
155360,note_on,1,0,3,,,,,,,,,2,,,48,62
155400,note_on,0,0,3,,,,,,,,,2,,,50,62
155400,note_on,40,0,3,,,,,,,,,2,,,48,0
155400,note_on,40,0,1,,,,,,,,,0,,,60,0
155400,note_on,0,0,1,,,,,,,,,0,,,62,75
155439,note_on,39,0,3,,,,,,,,,2,,,48,62
155439,note_on,39,0,1,,,,,,,,,0,,,60,75
155440,note_on,1,0,1,,,,,,,,,0,,,62,0
155440,note_on,1,0,3,,,,,,,,,2,,,50,0
155479,note_on,39,0,3,,,,,,,,,2,,,48,0
155479,note_on,39,0,1,,,,,,,,,0,,,60,0
155480,note_on,0,0,1,,,,,,,,,0,,,62,75
155480,note_on,0,0,3,,,,,,,,,2,,,50,62
155480,control_change,1,0,1,,,,,,,,,0,64,0,,
155480,control_change,1,0,3,,,,,,,,,2,64,0,,
155520,note_on,40,0,1,,,,,,,,,0,,,62,0
155520,note_on,0,0,3,,,,,,,,,2,,,58,101
155520,note_on,40,0,3,,,,,,,,,2,,,50,0
155520,control_change,0,0,3,,,,,,,,,2,64,127,,
155520,note_on,0,0,1,,,,,,,,,0,,,70,114
155520,control_change,0,0,1,,,,,,,,,0,64,127,,
155559,note_on,39,0,1,,,,,,,,,0,,,74,114
155559,note_on,39,0,3,,,,,,,,,2,,,62,101
155560,note_on,1,0,1,,,,,,,,,0,,,70,0
155560,note_on,1,0,3,,,,,,,,,2,,,58,0
155599,note_on,39,0,1,,,,,,,,,0,,,74,0
155599,note_on,39,0,3,,,,,,,,,2,,,62,0
155600,note_on,1,0,3,,,,,,,,,2,,,60,101
155600,note_on,1,0,1,,,,,,,,,0,,,72,114
155640,note_on,0,0,1,,,,,,,,,0,,,70,101
155640,note_on,40,0,3,,,,,,,,,2,,,60,0
155640,note_on,0,0,3,,,,,,,,,2,,,58,88
155640,note_on,40,0,1,,,,,,,,,0,,,72,0
155679,note_on,39,0,3,,,,,,,,,2,,,53,88
155679,note_on,39,0,1,,,,,,,,,0,,,65,101
155680,note_on,1,0,3,,,,,,,,,2,,,58,0
155680,note_on,1,0,1,,,,,,,,,0,,,70,0
155719,note_on,39,0,1,,,,,,,,,0,,,65,0
155719,note_on,39,0,3,,,,,,,,,2,,,53,0
155720,note_on,1,0,3,,,,,,,,,2,,,50,88
155720,note_on,1,0,1,,,,,,,,,0,,,62,101
155760,note_on,0,0,1,,,,,,,,,0,,,58,114
155760,note_on,40,0,1,,,,,,,,,0,,,62,0
155760,note_on,0,0,3,,,,,,,,,2,,,46,101
155760,note_on,40,0,3,,,,,,,,,2,,,50,0
155799,note_on,39,0,1,,,,,,,,,0,,,62,88
155799,note_on,39,0,3,,,,,,,,,2,,,50,75
155800,note_on,1,0,3,,,,,,,,,2,,,46,0
155800,note_on,1,0,1,,,,,,,,,0,,,58,0
155839,note_on,39,0,3,,,,,,,,,2,,,50,0
155839,note_on,39,0,1,,,,,,,,,0,,,62,0
155840,note_on,1,0,3,,,,,,,,,2,,,46,75
155840,note_on,1,0,1,,,,,,,,,0,,,58,88
155880,note_on,0,0,3,,,,,,,,,2,,,50,75
155880,note_on,40,0,3,,,,,,,,,2,,,46,0
155880,note_on,0,0,1,,,,,,,,,0,,,62,88
155880,note_on,40,0,1,,,,,,,,,0,,,58,0
155919,note_on,39,0,1,,,,,,,,,0,,,58,88
155919,note_on,39,0,3,,,,,,,,,2,,,46,75
155920,note_on,1,0,3,,,,,,,,,2,,,50,0
155920,note_on,1,0,1,,,,,,,,,0,,,62,0
155959,note_on,39,0,1,,,,,,,,,0,,,58,0
155959,note_on,39,0,3,,,,,,,,,2,,,46,0
155960,note_on,0,0,1,,,,,,,,,0,,,62,88
155960,control_change,1,0,1,,,,,,,,,0,64,0,,
155960,note_on,0,0,3,,,,,,,,,2,,,50,75
155960,control_change,1,0,3,,,,,,,,,2,64,0,,
156000,control_change,0,0,3,,,,,,,,,2,64,127,,
156000,control_change,0,0,1,,,,,,,,,0,64,127,,
156000,note_on,40,0,1,,,,,,,,,0,,,62,0
156000,note_on,40,0,3,,,,,,,,,2,,,50,0
156000,note_on,0,0,1,,,,,,,,,0,,,70,114
156000,note_on,0,0,3,,,,,,,,,2,,,58,101
156039,note_on,39,0,1,,,,,,,,,0,,,72,114
156039,note_on,39,0,3,,,,,,,,,2,,,60,101
156040,note_on,1,0,3,,,,,,,,,2,,,58,0
156040,note_on,1,0,1,,,,,,,,,0,,,70,0
156079,note_on,39,0,3,,,,,,,,,2,,,60,0
156079,note_on,39,0,1,,,,,,,,,0,,,72,0
156080,note_on,1,0,1,,,,,,,,,0,,,70,114
156080,note_on,1,0,3,,,,,,,,,2,,,58,101
156120,note_on,40,0,1,,,,,,,,,0,,,70,0
156120,note_on,40,0,3,,,,,,,,,2,,,58,0
156120,note_on,0,0,3,,,,,,,,,2,,,55,88
156120,note_on,0,0,1,,,,,,,,,0,,,67,101
156159,note_on,39,0,3,,,,,,,,,2,,,52,88
156159,note_on,39,0,1,,,,,,,,,0,,,64,101
156160,note_on,1,0,3,,,,,,,,,2,,,55,0
156160,note_on,1,0,1,,,,,,,,,0,,,67,0
156199,note_on,39,0,1,,,,,,,,,0,,,64,0
156199,note_on,39,0,3,,,,,,,,,2,,,52,0
156200,note_on,1,0,3,,,,,,,,,2,,,48,88
156200,note_on,1,0,1,,,,,,,,,0,,,60,101
156240,note_on,40,0,1,,,,,,,,,0,,,60,0
156240,note_on,40,0,3,,,,,,,,,2,,,48,0
156240,note_on,0,0,3,,,,,,,,,2,,,46,101
156240,note_on,0,0,1,,,,,,,,,0,,,58,114
156279,note_on,39,0,3,,,,,,,,,2,,,48,75
156279,note_on,39,0,1,,,,,,,,,0,,,60,88
156280,note_on,1,0,3,,,,,,,,,2,,,46,0
156280,note_on,1,0,1,,,,,,,,,0,,,58,0
156319,note_on,39,0,3,,,,,,,,,2,,,48,0
156319,note_on,39,0,1,,,,,,,,,0,,,60,0
156320,note_on,1,0,3,,,,,,,,,2,,,46,75
156320,note_on,1,0,1,,,,,,,,,0,,,58,88
156360,note_on,40,0,3,,,,,,,,,2,,,46,0
156360,note_on,40,0,1,,,,,,,,,0,,,58,0
156360,note_on,0,0,1,,,,,,,,,0,,,60,88
156360,note_on,0,0,3,,,,,,,,,2,,,48,75
156399,note_on,39,0,3,,,,,,,,,2,,,46,75
156399,note_on,39,0,1,,,,,,,,,0,,,58,88
156400,note_on,1,0,3,,,,,,,,,2,,,48,0
156400,note_on,1,0,1,,,,,,,,,0,,,60,0
156439,note_on,39,0,1,,,,,,,,,0,,,58,0
156439,note_on,39,0,3,,,,,,,,,2,,,46,0
156440,control_change,1,0,3,,,,,,,,,2,64,0,,
156440,note_on,0,0,3,,,,,,,,,2,,,48,75
156440,note_on,0,0,1,,,,,,,,,0,,,60,88
156440,control_change,1,0,1,,,,,,,,,0,64,0,,
156480,note_on,40,0,1,,,,,,,,,0,,,60,0
156480,control_change,0,0,1,,,,,,,,,0,64,127,,
156480,note_on,0,0,1,,,,,,,,,0,,,68,114
156480,note_on,0,0,3,,,,,,,,,2,,,56,101
156480,note_on,40,0,3,,,,,,,,,2,,,48,0
156480,control_change,0,0,3,,,,,,,,,2,64,127,,
156519,note_on,39,0,1,,,,,,,,,0,,,72,114
156519,note_on,39,0,3,,,,,,,,,2,,,60,101
156520,note_on,1,0,1,,,,,,,,,0,,,68,0
156520,note_on,1,0,3,,,,,,,,,2,,,56,0
156559,note_on,39,0,3,,,,,,,,,2,,,60,0
156559,note_on,39,0,1,,,,,,,,,0,,,72,0
156560,note_on,1,0,1,,,,,,,,,0,,,70,114
156560,note_on,1,0,3,,,,,,,,,2,,,58,101
156600,note_on,0,0,3,,,,,,,,,2,,,56,88
156600,note_on,40,0,3,,,,,,,,,2,,,58,0
156600,note_on,40,0,1,,,,,,,,,0,,,70,0
156600,note_on,0,0,1,,,,,,,,,0,,,68,101
156639,note_on,39,0,3,,,,,,,,,2,,,51,88
156639,note_on,39,0,1,,,,,,,,,0,,,63,101
156640,note_on,1,0,1,,,,,,,,,0,,,68,0
156640,note_on,1,0,3,,,,,,,,,2,,,56,0
156679,note_on,39,0,3,,,,,,,,,2,,,51,0
156679,note_on,39,0,1,,,,,,,,,0,,,63,0
156680,note_on,1,0,1,,,,,,,,,0,,,60,101
156680,note_on,1,0,3,,,,,,,,,2,,,48,88
156720,note_on,40,0,1,,,,,,,,,0,,,60,0
156720,note_on,0,0,1,,,,,,,,,0,,,56,114
156720,note_on,40,0,3,,,,,,,,,2,,,48,0
156720,note_on,0,0,3,,,,,,,,,2,,,44,101
156759,note_on,39,0,1,,,,,,,,,0,,,60,88
156759,note_on,39,0,3,,,,,,,,,2,,,48,75
156760,note_on,1,0,3,,,,,,,,,2,,,44,0
156760,note_on,1,0,1,,,,,,,,,0,,,56,0
156799,note_on,39,0,3,,,,,,,,,2,,,48,0
156799,note_on,39,0,1,,,,,,,,,0,,,60,0
156800,note_on,1,0,3,,,,,,,,,2,,,44,75
156800,note_on,1,0,1,,,,,,,,,0,,,56,88
156840,note_on,0,0,3,,,,,,,,,2,,,48,75
156840,note_on,40,0,3,,,,,,,,,2,,,44,0
156840,note_on,0,0,1,,,,,,,,,0,,,60,88
156840,note_on,40,0,1,,,,,,,,,0,,,56,0
156879,note_on,39,0,3,,,,,,,,,2,,,44,75
156879,note_on,39,0,1,,,,,,,,,0,,,56,88
156880,note_on,1,0,1,,,,,,,,,0,,,60,0
156880,note_on,1,0,3,,,,,,,,,2,,,48,0
156919,note_on,39,0,3,,,,,,,,,2,,,44,0
156919,note_on,39,0,1,,,,,,,,,0,,,56,0
156920,note_on,0,0,1,,,,,,,,,0,,,60,88
156920,control_change,1,0,1,,,,,,,,,0,64,0,,
156920,control_change,1,0,3,,,,,,,,,2,64,0,,
156920,note_on,0,0,3,,,,,,,,,2,,,48,75
156960,note_on,0,0,3,,,,,,,,,2,,,56,101
156960,note_on,40,0,3,,,,,,,,,2,,,48,0
156960,control_change,0,0,3,,,,,,,,,2,64,127,,
156960,control_change,0,0,1,,,,,,,,,0,64,127,,
156960,note_on,0,0,1,,,,,,,,,0,,,68,114
156960,note_on,40,0,1,,,,,,,,,0,,,60,0
156999,note_on,39,0,1,,,,,,,,,0,,,70,114
156999,note_on,39,0,3,,,,,,,,,2,,,58,101
157000,note_on,1,0,1,,,,,,,,,0,,,68,0
157000,note_on,1,0,3,,,,,,,,,2,,,56,0
157039,note_on,39,0,1,,,,,,,,,0,,,70,0
157039,note_on,39,0,3,,,,,,,,,2,,,58,0
157040,note_on,1,0,1,,,,,,,,,0,,,68,114
157040,note_on,1,0,3,,,,,,,,,2,,,56,101
157080,note_on,40,0,1,,,,,,,,,0,,,68,0
157080,note_on,0,0,3,,,,,,,,,2,,,53,101
157080,note_on,40,0,3,,,,,,,,,2,,,56,0
157080,note_on,0,0,1,,,,,,,,,0,,,65,114
157119,note_on,39,0,3,,,,,,,,,2,,,50,101
157119,note_on,39,0,1,,,,,,,,,0,,,62,114
157120,note_on,1,0,1,,,,,,,,,0,,,65,0
157120,note_on,1,0,3,,,,,,,,,2,,,53,0
157159,note_on,39,0,1,,,,,,,,,0,,,62,0
157159,note_on,39,0,3,,,,,,,,,2,,,50,0
157160,control_change,1,0,1,,,,,,,,,0,64,0,,
157160,note_on,0,0,1,,,,,,,,,0,,,58,114
157160,note_on,0,0,3,,,,,,,,,2,,,46,101
157160,control_change,1,0,3,,,,,,,,,2,64,0,,
157200,control_change,0,0,1,,,,,,,,,0,64,127,,
157200,note_on,0,0,1,,,,,,,,,0,,,66,114
157200,note_on,40,0,3,,,,,,,,,2,,,46,0
157200,note_on,40,0,1,,,,,,,,,0,,,58,0
157200,note_on,0,0,3,,,,,,,,,2,,,54,101
157200,control_change,0,0,3,,,,,,,,,2,64,127,,
157239,note_on,39,0,3,,,,,,,,,2,,,58,101
157239,note_on,39,0,1,,,,,,,,,0,,,70,114
157240,note_on,1,0,1,,,,,,,,,0,,,66,0
157240,note_on,1,0,3,,,,,,,,,2,,,54,0
157279,note_on,39,0,3,,,,,,,,,2,,,58,0
157279,note_on,39,0,1,,,,,,,,,0,,,70,0
157280,note_on,1,0,1,,,,,,,,,0,,,66,114
157280,note_on,1,0,3,,,,,,,,,2,,,54,101
157320,note_on,0,0,3,,,,,,,,,2,,,49,101
157320,note_on,40,0,1,,,,,,,,,0,,,66,0
157320,note_on,0,0,1,,,,,,,,,0,,,61,114
157320,note_on,40,0,3,,,,,,,,,2,,,54,0
157359,note_on,39,0,1,,,,,,,,,0,,,58,114
157359,note_on,39,0,3,,,,,,,,,2,,,46,101
157360,note_on,1,0,3,,,,,,,,,2,,,49,0
157360,note_on,1,0,1,,,,,,,,,0,,,61,0
157399,note_on,39,0,1,,,,,,,,,0,,,58,0
157399,note_on,39,0,3,,,,,,,,,2,,,46,0
157400,control_change,1,0,1,,,,,,,,,0,64,0,,
157400,note_on,0,0,1,,,,,,,,,0,,,54,114
157400,control_change,1,0,3,,,,,,,,,2,64,0,,
157400,note_on,0,0,3,,,,,,,,,2,,,42,101
157440,note_on,0,0,3,,,,,,,,,2,,,55,101
157440,note_on,40,0,1,,,,,,,,,0,,,54,0
157440,note_on,0,0,1,,,,,,,,,0,,,67,114
157440,control_change,0,0,1,,,,,,,,,0,64,127,,
157440,note_on,40,0,3,,,,,,,,,2,,,42,0
157440,control_change,0,0,3,,,,,,,,,2,64,127,,
157479,note_on,39,0,3,,,,,,,,,2,,,57,101
157479,note_on,39,0,1,,,,,,,,,0,,,69,114
157480,note_on,1,0,1,,,,,,,,,0,,,67,0
157480,note_on,1,0,3,,,,,,,,,2,,,55,0
157519,note_on,39,0,1,,,,,,,,,0,,,69,0
157519,note_on,39,0,3,,,,,,,,,2,,,57,0
157520,note_on,1,0,3,,,,,,,,,2,,,55,101
157520,note_on,1,0,1,,,,,,,,,0,,,67,114
157560,note_on,40,0,1,,,,,,,,,0,,,67,0
157560,note_on,0,0,3,,,,,,,,,2,,,52,101
157560,note_on,40,0,3,,,,,,,,,2,,,55,0
157560,note_on,0,0,1,,,,,,,,,0,,,64,114
157599,note_on,39,0,1,,,,,,,,,0,,,61,114
157599,note_on,39,0,3,,,,,,,,,2,,,49,101
157600,note_on,1,0,1,,,,,,,,,0,,,64,0
157600,note_on,1,0,3,,,,,,,,,2,,,52,0
157639,note_on,39,0,3,,,,,,,,,2,,,49,0
157639,note_on,39,0,1,,,,,,,,,0,,,61,0
157640,note_on,0,0,3,,,,,,,,,2,,,45,101
157640,control_change,1,0,1,,,,,,,,,0,64,0,,
157640,control_change,1,0,3,,,,,,,,,2,64,0,,
157640,note_on,0,0,1,,,,,,,,,0,,,57,114
157680,control_change,0,0,1,,,,,,,,,0,64,127,,
157680,control_change,0,0,3,,,,,,,,,2,64,127,,
157680,note_on,0,0,3,,,,,,,,,2,,,53,101
157680,note_on,0,0,1,,,,,,,,,0,,,65,114
157680,note_on,40,0,1,,,,,,,,,0,,,57,0
157680,note_on,40,0,3,,,,,,,,,2,,,45,0
157719,note_on,39,0,3,,,,,,,,,2,,,57,101
157719,note_on,39,0,1,,,,,,,,,0,,,69,114
157720,note_on,1,0,3,,,,,,,,,2,,,53,0
157720,note_on,1,0,1,,,,,,,,,0,,,65,0
157759,note_on,39,0,3,,,,,,,,,2,,,57,0
157759,note_on,39,0,1,,,,,,,,,0,,,69,0
157760,note_on,1,0,3,,,,,,,,,2,,,53,101
157760,note_on,1,0,1,,,,,,,,,0,,,65,114
157800,note_on,0,0,1,,,,,,,,,0,,,60,114
157800,note_on,0,0,3,,,,,,,,,2,,,48,101
157800,note_on,40,0,1,,,,,,,,,0,,,65,0
157800,note_on,40,0,3,,,,,,,,,2,,,53,0
157839,note_on,39,0,1,,,,,,,,,0,,,57,114
157839,note_on,39,0,3,,,,,,,,,2,,,45,101
157840,note_on,1,0,1,,,,,,,,,0,,,60,0
157840,note_on,1,0,3,,,,,,,,,2,,,48,0
157879,note_on,39,0,3,,,,,,,,,2,,,45,0
157879,note_on,39,0,1,,,,,,,,,0,,,57,0
157880,control_change,1,0,1,,,,,,,,,0,64,0,,
157880,note_on,0,0,1,,,,,,,,,0,,,53,114
157880,note_on,0,0,3,,,,,,,,,2,,,41,101
157880,control_change,1,0,3,,,,,,,,,2,64,0,,
157920,note_on,40,0,1,,,,,,,,,0,,,53,0
157920,note_on,0,0,3,,,,,,,,,2,,,58,114
157920,control_change,0,0,3,,,,,,,,,2,64,127,,
157920,note_on,40,0,3,,,,,,,,,2,,,41,0
157920,control_change,3300,0,4,,,,,,,,,3,64,127,,
157920,note_on,0,0,4,,,,,,,,,3,,,46,101
157959,note_on,39,0,4,,,,,,,,,3,,,50,101
157959,note_on,39,0,3,,,,,,,,,2,,,62,114
157960,note_on,1,0,4,,,,,,,,,3,,,46,0
157960,note_on,1,0,3,,,,,,,,,2,,,58,0
157999,note_on,39,0,3,,,,,,,,,2,,,62,0
157999,note_on,39,0,4,,,,,,,,,3,,,50,0
158000,note_on,1,0,4,,,,,,,,,3,,,46,101
158000,note_on,1,0,3,,,,,,,,,2,,,58,114
158040,note_on,40,0,3,,,,,,,,,2,,,58,0
158040,note_on,40,0,4,,,,,,,,,3,,,46,0
158040,note_on,0,0,3,,,,,,,,,2,,,53,114
158040,note_on,0,0,4,,,,,,,,,3,,,41,101
158079,note_on,39,0,3,,,,,,,,,2,,,50,114
158079,note_on,39,0,4,,,,,,,,,3,,,38,101
158080,note_on,1,0,4,,,,,,,,,3,,,41,0
158080,note_on,1,0,3,,,,,,,,,2,,,53,0
158119,note_on,39,0,3,,,,,,,,,2,,,50,0
158119,note_on,39,0,4,,,,,,,,,3,,,38,0
158120,note_on,1,0,4,,,,,,,,,3,,,34,101
158120,note_on,1,0,3,,,,,,,,,2,,,46,114
158160,note_on,40,0,3,,,,,,,,,2,,,46,0
158160,note_on,0,0,3,,,,,,,,,2,,,50,101
158160,note_on,0,0,4,,,,,,,,,3,,,38,88
158160,note_on,40,0,4,,,,,,,,,3,,,34,0
158199,note_on,39,0,3,,,,,,,,,2,,,46,101
158199,note_on,39,0,4,,,,,,,,,3,,,34,88
158200,note_on,1,0,4,,,,,,,,,3,,,38,0
158200,note_on,1,0,3,,,,,,,,,2,,,50,0
158239,note_on,39,0,4,,,,,,,,,3,,,34,0
158239,note_on,39,0,3,,,,,,,,,2,,,46,0
158240,note_on,1,0,3,,,,,,,,,2,,,50,101
158240,note_on,1,0,4,,,,,,,,,3,,,38,88
158280,note_on,0,0,4,,,,,,,,,3,,,34,88
158280,note_on,40,0,4,,,,,,,,,3,,,38,0
158280,note_on,40,0,3,,,,,,,,,2,,,50,0
158280,note_on,0,0,3,,,,,,,,,2,,,46,101
158319,note_on,39,0,4,,,,,,,,,3,,,38,88
158319,note_on,39,0,3,,,,,,,,,2,,,50,101
158320,note_on,1,0,4,,,,,,,,,3,,,34,0
158320,note_on,1,0,3,,,,,,,,,2,,,46,0
158359,note_on,39,0,3,,,,,,,,,2,,,50,0
158359,note_on,39,0,4,,,,,,,,,3,,,38,0
158360,note_on,1,0,4,,,,,,,,,3,,,34,88
158360,note_on,1,0,3,,,,,,,,,2,,,46,101
158400,note_on,0,0,4,,,,,,,,,3,,,38,75
158400,note_on,40,0,3,,,,,,,,,2,,,46,0
158400,note_on,0,0,3,,,,,,,,,2,,,50,88
158400,note_on,40,0,4,,,,,,,,,3,,,34,0
158439,note_on,39,0,4,,,,,,,,,3,,,34,75
158439,note_on,39,0,3,,,,,,,,,2,,,46,88
158440,note_on,1,0,4,,,,,,,,,3,,,38,0
158440,note_on,1,0,3,,,,,,,,,2,,,50,0
158479,note_on,39,0,4,,,,,,,,,3,,,34,0
158479,note_on,39,0,3,,,,,,,,,2,,,46,0
158480,note_on,1,0,3,,,,,,,,,2,,,50,88
158480,note_on,1,0,4,,,,,,,,,3,,,38,75
158520,note_on,0,0,4,,,,,,,,,3,,,34,75
158520,note_on,40,0,4,,,,,,,,,3,,,38,0
158520,note_on,40,0,3,,,,,,,,,2,,,50,0
158520,note_on,0,0,3,,,,,,,,,2,,,46,88
158559,note_on,39,0,4,,,,,,,,,3,,,38,75
158559,note_on,39,0,3,,,,,,,,,2,,,50,88
158560,note_on,1,0,4,,,,,,,,,3,,,34,0
158560,note_on,1,0,3,,,,,,,,,2,,,46,0
158599,note_on,39,0,3,,,,,,,,,2,,,50,0
158599,note_on,39,0,4,,,,,,,,,3,,,38,0
158600,note_on,1,0,4,,,,,,,,,3,,,34,75
158600,note_on,1,0,3,,,,,,,,,2,,,46,88
158640,note_on,0,0,3,,,,,,,,,2,,,50,75
158640,note_on,40,0,3,,,,,,,,,2,,,46,0
158640,note_on,0,0,4,,,,,,,,,3,,,38,62
158640,note_on,40,0,4,,,,,,,,,3,,,34,0
158679,note_on,39,0,4,,,,,,,,,3,,,34,62
158679,note_on,39,0,3,,,,,,,,,2,,,46,75
158680,note_on,1,0,4,,,,,,,,,3,,,38,0
158680,note_on,1,0,3,,,,,,,,,2,,,50,0
158719,note_on,39,0,4,,,,,,,,,3,,,34,0
158719,note_on,39,0,3,,,,,,,,,2,,,46,0
158720,note_on,1,0,4,,,,,,,,,3,,,38,62
158720,note_on,1,0,3,,,,,,,,,2,,,50,75
158760,note_on,0,0,3,,,,,,,,,2,,,46,75
158760,control_change,0,0,3,,,,,,,,,2,64,0,,
158760,note_on,40,0,3,,,,,,,,,2,,,50,0
158760,note_on,0,0,4,,,,,,,,,3,,,34,62
158760,control_change,0,0,4,,,,,,,,,3,64,0,,
158760,note_on,40,0,4,,,,,,,,,3,,,38,0
158799,note_on,39,0,3,,,,,,,,,2,,,50,75
158799,note_on,39,0,4,,,,,,,,,3,,,38,62
158800,note_on,1,0,3,,,,,,,,,2,,,46,0
158800,note_on,1,0,4,,,,,,,,,3,,,34,0
158839,note_on,39,0,4,,,,,,,,,3,,,38,0
158839,note_on,39,0,3,,,,,,,,,2,,,50,0
158840,note_on,1,0,3,,,,,,,,,2,,,46,75
158840,note_on,1,0,4,,,,,,,,,3,,,34,62
158880,note_on,40,0,4,,,,,,,,,3,,,34,0
158880,note_on,0,0,4,,,,,,,,,3,,,33,49
158880,note_on,40,0,3,,,,,,,,,2,,,46,0
158880,note_on,0,0,3,,,,,,,,,2,,,45,49
158880,control_change,0,0,3,,,,,,,,,2,64,127,,
158919,note_on,39,0,3,,,,,,,,,2,,,47,49
158920,note_on,1,0,3,,,,,,,,,2,,,45,0
158940,note_on,60,0,4,,,,,,,,,3,,,33,0
158959,note_on,39,0,3,,,,,,,,,2,,,47,0
158960,note_on,1,0,3,,,,,,,,,2,,,49,49
159000,note_on,0,0,3,,,,,,,,,2,,,50,49
159000,note_on,0,0,2,,,,,,,,,1,,,69,49
159000,note_on,4020,0,2,,,,,,,,,1,,,66,49
159000,note_on,40,0,3,,,,,,,,,2,,,49,0
159039,note_on,39,0,3,,,,,,,,,2,,,52,49
159040,note_on,1,0,3,,,,,,,,,2,,,50,0
159079,note_on,39,0,3,,,,,,,,,2,,,52,0
159080,note_on,1,0,3,,,,,,,,,2,,,54,49
159090,note_on,0,0,2,,,,,,,,,1,,,69,49
159090,note_on,90,0,2,,,,,,,,,1,,,69,0
159090,note_on,0,0,2,,,,,,,,,1,,,66,0
159090,note_on,0,0,2,,,,,,,,,1,,,66,49
159120,note_on,0,0,3,,,,,,,,,2,,,55,49
159120,note_on,0,0,2,,,,,,,,,1,,,67,49
159120,note_on,0,0,2,,,,,,,,,1,,,66,0
159120,note_on,0,0,2,,,,,,,,,1,,,64,49
159120,control_change,0,0,3,,,,,,,,,2,64,0,,
159120,note_on,40,0,3,,,,,,,,,2,,,54,0
159120,note_on,30,0,2,,,,,,,,,1,,,69,0
159159,note_on,39,0,3,,,,,,,,,2,,,57,49
159160,note_on,1,0,3,,,,,,,,,2,,,55,0
159180,note_on,60,0,2,,,,,,,,,1,,,67,0
159180,note_on,0,0,2,,,,,,,,,1,,,64,0
159199,note_on,39,0,3,,,,,,,,,2,,,57,0
159200,note_on,1,0,3,,,,,,,,,2,,,59,49
159240,note_on,300,0,4,,,,,,,,,3,,,45,49
159240,note_on,40,0,3,,,,,,,,,2,,,59,0
159240,note_on,0,0,3,,,,,,,,,2,,,61,49
159240,note_on,0,0,4,,,,,,,,,3,,,52,49
159279,note_on,39,0,3,,,,,,,,,2,,,62,49
159280,note_on,1,0,3,,,,,,,,,2,,,61,0
159300,note_on,60,0,4,,,,,,,,,3,,,52,0
159300,note_on,0,0,4,,,,,,,,,3,,,45,0
159319,note_on,39,0,3,,,,,,,,,2,,,62,0
159320,note_on,1,0,3,,,,,,,,,2,,,64,49
159360,control_change,1440,0,1,,,,,,,,,0,64,127,,
159360,note_on,40,0,3,,,,,,,,,2,,,64,0
159360,note_on,0,0,1,,,,,,,,,0,,,66,49
159360,note_on,0,0,4,,,,,,,,,3,,,54,49
159360,note_on,60,0,4,,,,,,,,,3,,,50,49
159399,note_on,39,0,1,,,,,,,,,0,,,67,49
159400,note_on,1,0,1,,,,,,,,,0,,,66,0
159420,note_on,60,0,4,,,,,,,,,3,,,54,0
159420,note_on,0,0,4,,,,,,,,,3,,,50,0
159439,note_on,39,0,1,,,,,,,,,0,,,67,0
159440,note_on,1,0,1,,,,,,,,,0,,,69,49
159480,note_on,40,0,1,,,,,,,,,0,,,69,0
159480,note_on,0,0,1,,,,,,,,,0,,,71,49
159480,note_on,0,0,2,,,,,,,,,1,,,69,49
159480,note_on,300,0,2,,,,,,,,,1,,,66,49
159519,note_on,39,0,1,,,,,,,,,0,,,73,49
159520,note_on,1,0,1,,,,,,,,,0,,,71,0
159559,note_on,39,0,1,,,,,,,,,0,,,73,0
159560,note_on,1,0,1,,,,,,,,,0,,,74,49
159570,note_on,90,0,2,,,,,,,,,1,,,69,0
159570,note_on,0,0,2,,,,,,,,,1,,,66,0
159570,note_on,0,0,2,,,,,,,,,1,,,66,49
159570,note_on,0,0,2,,,,,,,,,1,,,69,49
159600,note_on,40,0,1,,,,,,,,,0,,,74,0
159600,control_change,0,0,1,,,,,,,,,0,64,0,,
159600,note_on,0,0,1,,,,,,,,,0,,,76,49
159600,note_on,0,0,2,,,,,,,,,1,,,67,49
159600,note_on,30,0,2,,,,,,,,,1,,,69,0
159600,note_on,0,0,2,,,,,,,,,1,,,66,0
159600,note_on,0,0,2,,,,,,,,,1,,,64,49
159639,note_on,39,0,1,,,,,,,,,0,,,78,49
159640,note_on,1,0,1,,,,,,,,,0,,,76,0
159660,note_on,0,0,2,,,,,,,,,1,,,64,0
159660,note_on,60,0,2,,,,,,,,,1,,,67,0
159679,note_on,39,0,1,,,,,,,,,0,,,78,0
159680,note_on,1,0,1,,,,,,,,,0,,,79,49
159720,note_on,300,0,4,,,,,,,,,3,,,45,49
159720,note_on,0,0,4,,,,,,,,,3,,,52,49
159720,note_on,0,0,1,,,,,,,,,0,,,81,49
159720,note_on,40,0,1,,,,,,,,,0,,,79,0
159759,note_on,39,0,1,,,,,,,,,0,,,83,49
159760,note_on,1,0,1,,,,,,,,,0,,,81,0
159780,note_on,60,0,4,,,,,,,,,3,,,52,0
159780,note_on,0,0,4,,,,,,,,,3,,,45,0
159799,note_on,39,0,1,,,,,,,,,0,,,83,0
159800,note_on,1,0,1,,,,,,,,,0,,,85,49
159840,note_on,40,0,1,,,,,,,,,0,,,85,0
159840,note_on,60,0,4,,,,,,,,,3,,,50,62
159840,note_on,0,0,1,,,,,,,,,0,,,74,62
159840,note_on,0,0,4,,,,,,,,,3,,,54,62
159840,control_change,0,0,1,,,,,,,,,0,64,127,,
159879,note_on,39,0,1,,,,,,,,,0,,,76,62
159880,note_on,1,0,1,,,,,,,,,0,,,74,0
159900,note_on,0,0,4,,,,,,,,,3,,,50,0
159900,note_on,60,0,4,,,,,,,,,3,,,54,0
159919,note_on,39,0,1,,,,,,,,,0,,,76,0
159920,note_on,1,0,1,,,,,,,,,0,,,78,62
159960,note_on,40,0,1,,,,,,,,,0,,,78,0
159960,note_on,0,0,1,,,,,,,,,0,,,79,62
159960,note_on,0,0,2,,,,,,,,,1,,,69,62
159960,note_on,300,0,2,,,,,,,,,1,,,66,62
159999,note_on,39,0,1,,,,,,,,,0,,,81,62
160000,note_on,1,0,1,,,,,,,,,0,,,79,0
160039,note_on,39,0,1,,,,,,,,,0,,,81,0
160040,note_on,1,0,1,,,,,,,,,0,,,83,62
160050,note_on,90,0,2,,,,,,,,,1,,,69,0
160050,note_on,0,0,2,,,,,,,,,1,,,66,0
160050,note_on,0,0,2,,,,,,,,,1,,,66,62
160050,note_on,0,0,2,,,,,,,,,1,,,69,62
160080,control_change,0,0,1,,,,,,,,,0,64,0,,
160080,note_on,0,0,1,,,,,,,,,0,,,85,62
160080,note_on,0,0,2,,,,,,,,,1,,,67,62
160080,note_on,0,0,2,,,,,,,,,1,,,66,0
160080,note_on,0,0,2,,,,,,,,,1,,,64,62
160080,note_on,30,0,2,,,,,,,,,1,,,69,0
160080,note_on,40,0,1,,,,,,,,,0,,,83,0
160119,note_on,39,0,1,,,,,,,,,0,,,86,62
160120,note_on,1,0,1,,,,,,,,,0,,,85,0
160140,note_on,60,0,2,,,,,,,,,1,,,67,0
160140,note_on,0,0,2,,,,,,,,,1,,,64,0
160159,note_on,39,0,1,,,,,,,,,0,,,86,0
160160,note_on,1,0,1,,,,,,,,,0,,,88,62
160200,note_on,0,0,4,,,,,,,,,3,,,52,62
160200,note_on,300,0,4,,,,,,,,,3,,,45,62
160200,note_on,0,0,1,,,,,,,,,0,,,90,62
160200,note_on,40,0,1,,,,,,,,,0,,,88,0
160239,note_on,39,0,1,,,,,,,,,0,,,91,62
160240,note_on,1,0,1,,,,,,,,,0,,,90,0
160260,note_on,0,0,4,,,,,,,,,3,,,45,0
160260,note_on,60,0,4,,,,,,,,,3,,,52,0
160279,note_on,39,0,1,,,,,,,,,0,,,91,0
160280,note_on,1,0,1,,,,,,,,,0,,,93,62
160320,control_change,0,0,1,,,,,,,,,0,64,127,,
160320,note_on,40,0,1,,,,,,,,,0,,,93,0
160320,note_on,0,0,1,,,,,,,,,0,,,81,75
160320,note_on,60,0,4,,,,,,,,,3,,,50,75
160320,note_on,0,0,4,,,,,,,,,3,,,54,75
160359,note_on,39,0,1,,,,,,,,,0,,,83,75
160360,note_on,1,0,1,,,,,,,,,0,,,81,0
160380,note_on,0,0,4,,,,,,,,,3,,,50,0
160380,note_on,60,0,4,,,,,,,,,3,,,54,0
160399,note_on,39,0,1,,,,,,,,,0,,,83,0
160400,note_on,1,0,1,,,,,,,,,0,,,85,75
160440,note_on,40,0,1,,,,,,,,,0,,,85,0
160440,note_on,0,0,1,,,,,,,,,0,,,86,75
160440,note_on,300,0,2,,,,,,,,,1,,,66,75
160440,note_on,0,0,2,,,,,,,,,1,,,69,75
160479,note_on,39,0,1,,,,,,,,,0,,,88,75
160480,note_on,1,0,1,,,,,,,,,0,,,86,0
160519,note_on,39,0,1,,,,,,,,,0,,,88,0
160520,note_on,1,0,1,,,,,,,,,0,,,90,75
160530,note_on,90,0,2,,,,,,,,,1,,,69,0
160530,note_on,0,0,2,,,,,,,,,1,,,66,0
160530,note_on,0,0,2,,,,,,,,,1,,,69,75
160530,note_on,0,0,2,,,,,,,,,1,,,66,75
160560,note_on,40,0,1,,,,,,,,,0,,,90,0
160560,control_change,0,0,1,,,,,,,,,0,64,0,,
160560,note_on,0,0,1,,,,,,,,,0,,,91,75
160560,note_on,0,0,2,,,,,,,,,1,,,67,75
160560,note_on,0,0,2,,,,,,,,,1,,,64,75
160560,note_on,0,0,2,,,,,,,,,1,,,66,0
160560,note_on,30,0,2,,,,,,,,,1,,,69,0
160599,note_on,39,0,1,,,,,,,,,0,,,93,75
160600,note_on,1,0,1,,,,,,,,,0,,,91,0
160620,note_on,60,0,2,,,,,,,,,1,,,67,0
160620,note_on,0,0,2,,,,,,,,,1,,,64,0
160639,note_on,39,0,1,,,,,,,,,0,,,93,0
160640,note_on,1,0,1,,,,,,,,,0,,,95,75
160680,note_on,300,0,4,,,,,,,,,3,,,45,75
160680,note_on,0,0,4,,,,,,,,,3,,,52,75
160680,note_on,0,0,1,,,,,,,,,0,,,97,75
160680,note_on,40,0,1,,,,,,,,,0,,,95,0
160719,note_on,39,0,1,,,,,,,,,0,,,98,75
160720,note_on,1,0,1,,,,,,,,,0,,,97,0
160740,note_on,60,0,4,,,,,,,,,3,,,52,0
160740,note_on,0,0,4,,,,,,,,,3,,,45,0
160759,note_on,39,0,1,,,,,,,,,0,,,98,0
160760,note_on,1,0,1,,,,,,,,,0,,,100,75
160800,note_on,40,0,1,,,,,,,,,0,,,100,0
160800,control_change,0,0,1,,,,,,,,,0,64,127,,
160800,note_on,0,0,1,,,,,,,,,0,,,86,88
160800,control_change,1440,0,3,,,,,,,,,2,64,127,,
160800,note_on,0,0,3,,,,,,,,,2,,,50,88
160800,note_on,0,0,3,,,,,,,,,2,,,38,88
160839,note_on,39,0,1,,,,,,,,,0,,,88,88
160840,note_on,1,0,1,,,,,,,,,0,,,86,0
160879,note_on,39,0,1,,,,,,,,,0,,,88,0
160880,note_on,1,0,1,,,,,,,,,0,,,86,88
160920,note_on,40,0,1,,,,,,,,,0,,,86,0
160920,note_on,0,0,1,,,,,,,,,0,,,90,88
160959,note_on,39,0,1,,,,,,,,,0,,,98,88
160960,note_on,1,0,1,,,,,,,,,0,,,90,0
160999,note_on,39,0,1,,,,,,,,,0,,,98,0
161000,note_on,1,0,1,,,,,,,,,0,,,90,88
161040,note_on,240,0,3,,,,,,,,,2,,,50,0
161040,note_on,0,0,1,,,,,,,,,0,,,86,88
161040,note_on,40,0,1,,,,,,,,,0,,,90,0
161040,note_on,0,0,3,,,,,,,,,2,,,38,0
161040,note_on,0,0,3,,,,,,,,,2,,,50,88
161040,note_on,0,0,3,,,,,,,,,2,,,54,88
161046,note_on,0,0,3,,,,,,,,,2,,,50,0
161046,note_on,6,0,3,,,,,,,,,2,,,54,0
161079,note_on,39,0,1,,,,,,,,,0,,,88,88
161080,note_on,1,0,1,,,,,,,,,0,,,86,0
161100,note_on,0,0,3,,,,,,,,,2,,,54,88
161100,note_on,54,0,3,,,,,,,,,2,,,50,88
161106,note_on,0,0,3,,,,,,,,,2,,,50,0
161106,note_on,6,0,3,,,,,,,,,2,,,54,0
161119,note_on,39,0,1,,,,,,,,,0,,,88,0
161120,note_on,1,0,1,,,,,,,,,0,,,86,88
161160,note_on,54,0,3,,,,,,,,,2,,,50,88
161160,note_on,0,0,3,,,,,,,,,2,,,54,88
161160,note_on,40,0,1,,,,,,,,,0,,,86,0
161160,note_on,0,0,1,,,,,,,,,0,,,90,88
161166,note_on,6,0,3,,,,,,,,,2,,,54,0
161166,note_on,0,0,3,,,,,,,,,2,,,50,0
161199,note_on,39,0,1,,,,,,,,,0,,,98,88
161200,note_on,1,0,1,,,,,,,,,0,,,90,0
161220,control_change,54,0,3,,,,,,,,,2,64,0,,
161220,note_on,0,0,3,,,,,,,,,2,,,50,88
161220,note_on,0,0,3,,,,,,,,,2,,,54,88
161226,note_on,6,0,3,,,,,,,,,2,,,54,0
161226,note_on,0,0,3,,,,,,,,,2,,,50,0
161239,note_on,39,0,1,,,,,,,,,0,,,98,0
161240,control_change,1,0,1,,,,,,,,,0,64,0,,
161240,note_on,0,0,1,,,,,,,,,0,,,90,88
161280,note_on,0,0,3,,,,,,,,,2,,,54,114
161280,note_on,0,0,3,,,,,,,,,2,,,50,106
161280,control_change,54,0,3,,,,,,,,,2,64,127,,
161280,note_on,40,0,1,,,,,,,,,0,,,90,0
161280,control_change,0,0,1,,,,,,,,,0,64,127,,
161280,note_on,0,0,1,,,,,,,,,0,,,81,88
161319,note_on,39,0,1,,,,,,,,,0,,,90,88
161320,note_on,1,0,1,,,,,,,,,0,,,81,0
161359,note_on,39,0,1,,,,,,,,,0,,,90,0
161360,note_on,1,0,1,,,,,,,,,0,,,81,88
161400,note_on,0,0,3,,,,,,,,,2,,,50,0
161400,note_on,120,0,3,,,,,,,,,2,,,54,0
161400,note_on,40,0,1,,,,,,,,,0,,,81,0
161400,note_on,0,0,1,,,,,,,,,0,,,90,88
161400,note_on,0,0,3,,,,,,,,,2,,,54,88
161400,note_on,0,0,3,,,,,,,,,2,,,62,88
161439,note_on,39,0,1,,,,,,,,,0,,,93,88
161440,note_on,1,0,1,,,,,,,,,0,,,90,0
161460,note_on,60,0,3,,,,,,,,,2,,,62,0
161460,note_on,0,0,3,,,,,,,,,2,,,54,0
161479,note_on,39,0,1,,,,,,,,,0,,,93,0
161480,note_on,1,0,1,,,,,,,,,0,,,90,88
161520,note_on,60,0,3,,,,,,,,,2,,,54,88
161520,note_on,0,0,3,,,,,,,,,2,,,62,88
161520,note_on,40,0,1,,,,,,,,,0,,,90,0
161520,note_on,0,0,1,,,,,,,,,0,,,81,88
161526,note_on,6,0,3,,,,,,,,,2,,,62,0
161526,note_on,0,0,3,,,,,,,,,2,,,54,0
161559,note_on,39,0,1,,,,,,,,,0,,,90,88
161560,note_on,1,0,1,,,,,,,,,0,,,81,0
161580,note_on,54,0,3,,,,,,,,,2,,,54,88
161580,note_on,0,0,3,,,,,,,,,2,,,62,88
161586,note_on,0,0,3,,,,,,,,,2,,,54,0
161586,note_on,6,0,3,,,,,,,,,2,,,62,0
161599,note_on,39,0,1,,,,,,,,,0,,,90,0
161600,note_on,1,0,1,,,,,,,,,0,,,81,88
161640,note_on,0,0,1,,,,,,,,,0,,,90,88
161640,note_on,40,0,1,,,,,,,,,0,,,81,0
161640,note_on,0,0,3,,,,,,,,,2,,,62,88
161640,note_on,54,0,3,,,,,,,,,2,,,54,88
161646,note_on,0,0,3,,,,,,,,,2,,,54,0
161646,note_on,6,0,3,,,,,,,,,2,,,62,0
161679,note_on,39,0,1,,,,,,,,,0,,,93,88
161680,note_on,1,0,1,,,,,,,,,0,,,90,0
161700,note_on,0,0,3,,,,,,,,,2,,,62,88
161700,note_on,0,0,3,,,,,,,,,2,,,54,88
161700,control_change,54,0,3,,,,,,,,,2,64,0,,
161706,note_on,6,0,3,,,,,,,,,2,,,62,0
161706,note_on,0,0,3,,,,,,,,,2,,,54,0
161719,note_on,39,0,1,,,,,,,,,0,,,93,0
161720,control_change,1,0,1,,,,,,,,,0,64,0,,
161720,note_on,0,0,1,,,,,,,,,0,,,90,88
161760,control_change,54,0,3,,,,,,,,,2,64,127,,
161760,note_on,0,0,3,,,,,,,,,2,,,54,106
161760,note_on,0,0,3,,,,,,,,,2,,,62,114
161760,note_on,40,0,1,,,,,,,,,0,,,90,0
161760,control_change,0,0,1,,,,,,,,,0,64,127,,
161760,note_on,0,0,1,,,,,,,,,0,,,78,88
161799,note_on,39,0,1,,,,,,,,,0,,,86,88
161800,note_on,1,0,1,,,,,,,,,0,,,78,0
161839,note_on,39,0,1,,,,,,,,,0,,,86,0
161840,note_on,1,0,1,,,,,,,,,0,,,78,88
161880,note_on,40,0,1,,,,,,,,,0,,,78,0
161880,note_on,0,0,1,,,,,,,,,0,,,86,88
161880,note_on,0,0,3,,,,,,,,,2,,,62,88
161880,note_on,0,0,3,,,,,,,,,2,,,54,0
161880,note_on,120,0,3,,,,,,,,,2,,,62,0
161880,note_on,0,0,3,,,,,,,,,2,,,66,88
161919,note_on,39,0,1,,,,,,,,,0,,,90,88
161920,note_on,1,0,1,,,,,,,,,0,,,86,0
161940,note_on,0,0,3,,,,,,,,,2,,,62,0
161940,note_on,60,0,3,,,,,,,,,2,,,66,0
161959,note_on,39,0,1,,,,,,,,,0,,,90,0
161960,note_on,1,0,1,,,,,,,,,0,,,86,88
162000,note_on,60,0,3,,,,,,,,,2,,,62,88
162000,note_on,40,0,1,,,,,,,,,0,,,86,0
162000,note_on,0,0,1,,,,,,,,,0,,,78,88
162000,note_on,0,0,3,,,,,,,,,2,,,66,88
162006,note_on,6,0,3,,,,,,,,,2,,,66,0
162006,note_on,0,0,3,,,,,,,,,2,,,62,0
162039,note_on,39,0,1,,,,,,,,,0,,,86,88
162040,note_on,1,0,1,,,,,,,,,0,,,78,0
162060,note_on,54,0,3,,,,,,,,,2,,,62,88
162060,note_on,0,0,3,,,,,,,,,2,,,66,88
162066,note_on,6,0,3,,,,,,,,,2,,,66,0
162066,note_on,0,0,3,,,,,,,,,2,,,62,0
162079,note_on,39,0,1,,,,,,,,,0,,,86,0
162080,note_on,1,0,1,,,,,,,,,0,,,78,88
162120,note_on,40,0,1,,,,,,,,,0,,,78,0
162120,note_on,0,0,1,,,,,,,,,0,,,86,88
162120,note_on,0,0,3,,,,,,,,,2,,,66,88
162120,note_on,54,0,3,,,,,,,,,2,,,62,88
162126,note_on,6,0,3,,,,,,,,,2,,,66,0
162126,note_on,0,0,3,,,,,,,,,2,,,62,0
162159,note_on,39,0,1,,,,,,,,,0,,,90,88
162160,note_on,1,0,1,,,,,,,,,0,,,86,0
162180,note_on,0,0,3,,,,,,,,,2,,,66,88
162180,note_on,0,0,3,,,,,,,,,2,,,62,88
162180,control_change,54,0,3,,,,,,,,,2,64,0,,
162186,note_on,0,0,3,,,,,,,,,2,,,62,0
162186,note_on,6,0,3,,,,,,,,,2,,,66,0
162199,note_on,39,0,1,,,,,,,,,0,,,90,0
162200,note_on,0,0,1,,,,,,,,,0,,,86,88
162200,control_change,1,0,1,,,,,,,,,0,64,0,,
162240,note_on,40,0,1,,,,,,,,,0,,,86,0
162240,note_on,0,0,2,,,,,,,,,1,,,66,75
162240,note_on,0,0,2,,,,,,,,,1,,,62,75
162240,control_change,0,0,1,,,,,,,,,0,64,127,,
162240,note_on,0,0,1,,,,,,,,,0,,,74,88
162240,control_change,1620,0,2,,,,,,,,,1,64,127,,
162279,note_on,39,0,1,,,,,,,,,0,,,78,88
162280,note_on,1,0,1,,,,,,,,,0,,,74,0
162319,note_on,39,0,1,,,,,,,,,0,,,78,0
162320,note_on,1,0,1,,,,,,,,,0,,,74,88
162360,note_on,120,0,2,,,,,,,,,1,,,66,0
162360,note_on,0,0,2,,,,,,,,,1,,,62,0
162360,note_on,0,0,2,,,,,,,,,1,,,69,75
162360,note_on,40,0,1,,,,,,,,,0,,,74,0
162360,note_on,0,0,1,,,,,,,,,0,,,78,88
162360,note_on,0,0,2,,,,,,,,,1,,,66,75
162399,note_on,39,0,1,,,,,,,,,0,,,86,88
162400,note_on,1,0,1,,,,,,,,,0,,,78,0
162420,note_on,0,0,2,,,,,,,,,1,,,66,0
162420,note_on,60,0,2,,,,,,,,,1,,,69,0
162439,note_on,39,0,1,,,,,,,,,0,,,86,0
162440,note_on,1,0,1,,,,,,,,,0,,,78,88
162480,note_on,0,0,1,,,,,,,,,0,,,74,88
162480,note_on,60,0,2,,,,,,,,,1,,,66,75
162480,note_on,0,0,2,,,,,,,,,1,,,69,75
162480,note_on,40,0,1,,,,,,,,,0,,,78,0
162486,note_on,0,0,2,,,,,,,,,1,,,66,0
162486,note_on,6,0,2,,,,,,,,,1,,,69,0
162519,note_on,39,0,1,,,,,,,,,0,,,78,88
162520,note_on,1,0,1,,,,,,,,,0,,,74,0
162540,note_on,0,0,2,,,,,,,,,1,,,69,75
162540,note_on,54,0,2,,,,,,,,,1,,,66,75
162546,note_on,0,0,2,,,,,,,,,1,,,66,0
162546,note_on,6,0,2,,,,,,,,,1,,,69,0
162559,note_on,39,0,1,,,,,,,,,0,,,78,0
162560,note_on,1,0,1,,,,,,,,,0,,,74,88
162600,note_on,40,0,1,,,,,,,,,0,,,74,0
162600,note_on,0,0,1,,,,,,,,,0,,,78,88
162600,note_on,54,0,2,,,,,,,,,1,,,66,75
162600,note_on,0,0,2,,,,,,,,,1,,,69,75
162606,note_on,6,0,2,,,,,,,,,1,,,69,0
162606,note_on,0,0,2,,,,,,,,,1,,,66,0
162639,note_on,39,0,1,,,,,,,,,0,,,86,88
162640,note_on,1,0,1,,,,,,,,,0,,,78,0
162660,note_on,0,0,2,,,,,,,,,1,,,69,75
162660,note_on,0,0,2,,,,,,,,,1,,,66,75
162660,control_change,54,0,2,,,,,,,,,1,64,0,,
162666,note_on,0,0,2,,,,,,,,,1,,,66,0
162666,note_on,6,0,2,,,,,,,,,1,,,69,0
162679,note_on,39,0,1,,,,,,,,,0,,,86,0
162680,control_change,1,0,1,,,,,,,,,0,64,0,,
162680,note_on,0,0,1,,,,,,,,,0,,,78,88
162720,note_on,40,0,1,,,,,,,,,0,,,78,0
162720,note_on,0,0,3,,,,,,,,,2,,,50,114
162720,note_on,0,0,1,,,,,,,,,0,,,86,127
162720,note_on,534,0,3,,,,,,,,,2,,,38,106
162720,note_on,0,0,1,,,,,,,,,0,,,78,119
162720,note_on,0,0,1,,,,,,,,,0,,,74,115
162720,end_of_track,0,1,0,,,,,,,,,,,,,
162720,set_tempo,162720,1,0,,,,,,297030,,,,,,,
162720,note_on,0,0,1,,,,,,,,,0,,,81,123
162960,note_on,0,0,1,,,,,,,,,0,,,78,0
162960,note_on,0,0,3,,,,,,,,,2,,,62,88
162960,note_on,0,0,3,,,,,,,,,2,,,54,88
162960,note_on,0,0,3,,,,,,,,,2,,,38,0
162960,note_on,240,0,3,,,,,,,,,2,,,50,0
162960,note_on,240,0,1,,,,,,,,,0,,,86,0
162960,note_on,0,0,1,,,,,,,,,0,,,74,0
162960,note_on,0,0,1,,,,,,,,,0,,,81,0
162960,note_on,0,0,1,,,,,,,,,0,,,66,101
162960,note_on,0,0,1,,,,,,,,,0,,,74,101
162966,note_on,0,0,3,,,,,,,,,2,,,54,0
162966,note_on,6,0,3,,,,,,,,,2,,,62,0
162966,note_on,6,0,1,,,,,,,,,0,,,74,0
162966,note_on,0,0,1,,,,,,,,,0,,,66,0
163020,note_on,0,0,1,,,,,,,,,0,,,74,101
163020,note_on,0,0,3,,,,,,,,,2,,,62,88
163020,note_on,54,0,3,,,,,,,,,2,,,54,88
163020,note_on,54,0,1,,,,,,,,,0,,,66,101
163026,note_on,6,0,1,,,,,,,,,0,,,74,0
163026,note_on,0,0,1,,,,,,,,,0,,,66,0
163026,note_on,6,0,3,,,,,,,,,2,,,62,0
163026,note_on,0,0,3,,,,,,,,,2,,,54,0
163080,note_on,0,0,1,,,,,,,,,0,,,74,101
163080,note_on,54,0,1,,,,,,,,,0,,,66,101
163080,note_on,54,0,3,,,,,,,,,2,,,54,88
163080,note_on,0,0,3,,,,,,,,,2,,,62,88
163086,note_on,0,0,1,,,,,,,,,0,,,66,0
163086,note_on,6,0,1,,,,,,,,,0,,,74,0
163140,note_on,0,0,1,,,,,,,,,0,,,74,101
163140,note_on,60,0,3,,,,,,,,,2,,,62,0
163140,note_on,0,0,3,,,,,,,,,2,,,54,0
163140,note_on,0,0,3,,,,,,,,,2,,,54,88
163140,note_on,54,0,1,,,,,,,,,0,,,66,101
163140,note_on,0,0,3,,,,,,,,,2,,,62,88
163146,note_on,6,0,3,,,,,,,,,2,,,62,0
163146,note_on,6,0,1,,,,,,,,,0,,,74,0
163146,note_on,0,0,1,,,,,,,,,0,,,66,0
163146,note_on,0,0,3,,,,,,,,,2,,,54,0
163200,note_on,54,0,3,,,,,,,,,2,,,54,106
163200,note_on,0,0,1,,,,,,,,,0,,,74,127
163200,note_on,54,0,1,,,,,,,,,0,,,66,119
163200,note_on,0,0,3,,,,,,,,,2,,,62,114
163320,note_on,120,0,3,,,,,,,,,2,,,62,0
163320,note_on,0,0,3,,,,,,,,,2,,,54,0
163320,note_on,0,0,3,,,,,,,,,2,,,64,88
163320,note_on,0,0,3,,,,,,,,,2,,,57,88
163320,note_on,0,0,1,,,,,,,,,0,,,66,0
163320,note_on,120,0,1,,,,,,,,,0,,,74,0
163320,note_on,0,0,1,,,,,,,,,0,,,69,101
163320,note_on,0,0,1,,,,,,,,,0,,,76,101
163380,note_on,0,0,1,,,,,,,,,0,,,69,0
163380,note_on,60,0,1,,,,,,,,,0,,,76,0
163380,note_on,60,0,3,,,,,,,,,2,,,64,0
163380,note_on,0,0,3,,,,,,,,,2,,,57,0
163440,note_on,0,0,3,,,,,,,,,2,,,64,114
163440,note_on,0,0,1,,,,,,,,,0,,,76,127
163440,note_on,60,0,1,,,,,,,,,0,,,69,119
163440,note_on,60,0,3,,,,,,,,,2,,,57,106
163560,note_on,0,0,3,,,,,,,,,2,,,57,0
163560,note_on,0,0,3,,,,,,,,,2,,,62,88
163560,note_on,0,0,3,,,,,,,,,2,,,66,88
163560,note_on,0,0,1,,,,,,,,,0,,,69,0
163560,note_on,0,0,1,,,,,,,,,0,,,78,101
163560,note_on,120,0,3,,,,,,,,,2,,,64,0
163560,note_on,120,0,1,,,,,,,,,0,,,76,0
163560,note_on,0,0,1,,,,,,,,,0,,,74,101
163620,note_on,60,0,1,,,,,,,,,0,,,78,0
163620,note_on,0,0,1,,,,,,,,,0,,,74,0
163620,note_on,0,0,3,,,,,,,,,2,,,62,0
163620,note_on,60,0,3,,,,,,,,,2,,,66,0
163680,note_on,60,0,3,,,,,,,,,2,,,62,106
163680,note_on,0,0,3,,,,,,,,,2,,,66,114
163680,note_on,0,0,1,,,,,,,,,0,,,78,127
163680,note_on,60,0,1,,,,,,,,,0,,,74,119
163800,note_on,0,0,1,,,,,,,,,0,,,69,101
163800,note_on,120,0,3,,,,,,,,,2,,,66,0
163800,note_on,0,0,3,,,,,,,,,2,,,62,0
163800,note_on,0,0,3,,,,,,,,,2,,,57,88
163800,note_on,0,0,3,,,,,,,,,2,,,64,88
163800,note_on,0,0,1,,,,,,,,,0,,,74,0
163800,note_on,120,0,1,,,,,,,,,0,,,78,0
163800,note_on,0,0,1,,,,,,,,,0,,,76,101
163860,note_on,60,0,1,,,,,,,,,0,,,76,0
163860,note_on,0,0,3,,,,,,,,,2,,,57,0
163860,note_on,60,0,3,,,,,,,,,2,,,64,0
163860,note_on,0,0,1,,,,,,,,,0,,,69,0
163920,note_on,0,0,1,,,,,,,,,0,,,76,101
163920,note_on,0,0,3,,,,,,,,,2,,,64,88
163920,note_on,60,0,1,,,,,,,,,0,,,69,101
163920,note_on,60,0,3,,,,,,,,,2,,,57,88
163926,note_on,6,0,3,,,,,,,,,2,,,64,0
163926,note_on,0,0,1,,,,,,,,,0,,,69,0
163926,note_on,0,0,3,,,,,,,,,2,,,57,0
163926,note_on,6,0,1,,,,,,,,,0,,,76,0
163980,note_on,0,0,3,,,,,,,,,2,,,64,88
163980,note_on,54,0,1,,,,,,,,,0,,,69,101
163980,note_on,0,0,1,,,,,,,,,0,,,76,101
163980,note_on,54,0,3,,,,,,,,,2,,,57,88
163986,note_on,6,0,1,,,,,,,,,0,,,76,0
163986,note_on,0,0,3,,,,,,,,,2,,,57,0
163986,note_on,6,0,3,,,,,,,,,2,,,64,0
163986,note_on,0,0,1,,,,,,,,,0,,,69,0
164040,note_on,0,0,3,,,,,,,,,2,,,64,88
164040,note_on,54,0,3,,,,,,,,,2,,,57,88
164040,note_on,54,0,1,,,,,,,,,0,,,69,101
164040,note_on,0,0,1,,,,,,,,,0,,,76,101
164046,note_on,0,0,3,,,,,,,,,2,,,57,0
164046,note_on,6,0,3,,,,,,,,,2,,,64,0
164046,note_on,6,0,1,,,,,,,,,0,,,76,0
164046,note_on,0,0,1,,,,,,,,,0,,,69,0
164100,note_on,54,0,3,,,,,,,,,2,,,57,88
164100,note_on,0,0,1,,,,,,,,,0,,,76,101
164100,note_on,54,0,1,,,,,,,,,0,,,69,101
164100,note_on,0,0,3,,,,,,,,,2,,,64,88
164106,note_on,6,0,1,,,,,,,,,0,,,76,0
164106,note_on,0,0,1,,,,,,,,,0,,,69,0
164106,note_on,6,0,3,,,,,,,,,2,,,64,0
164106,note_on,0,0,3,,,,,,,,,2,,,57,0
164160,note_on,54,0,1,,,,,,,,,0,,,69,101
164160,note_on,0,0,1,,,,,,,,,0,,,76,101
164160,note_on,54,0,3,,,,,,,,,2,,,57,88
164160,note_on,0,0,3,,,,,,,,,2,,,64,88
164280,note_on,120,0,3,,,,,,,,,2,,,64,0
164280,note_on,0,0,3,,,,,,,,,2,,,57,0
164280,note_on,0,0,3,,,,,,,,,2,,,66,88
164280,note_on,120,0,1,,,,,,,,,0,,,76,0
164280,note_on,0,0,1,,,,,,,,,0,,,69,0
164280,note_on,0,0,1,,,,,,,,,0,,,78,101
164280,note_on,0,0,1,,,,,,,,,0,,,81,101
164280,note_on,0,0,3,,,,,,,,,2,,,69,88
164340,note_on,60,0,1,,,,,,,,,0,,,81,0
164340,note_on,0,0,3,,,,,,,,,2,,,66,0
164340,note_on,60,0,3,,,,,,,,,2,,,69,0
164340,note_on,0,0,1,,,,,,,,,0,,,78,0
164400,note_on,60,0,1,,,,,,,,,0,,,78,101
164400,note_on,0,0,3,,,,,,,,,2,,,69,88
164400,note_on,0,0,1,,,,,,,,,0,,,81,101
164400,note_on,60,0,3,,,,,,,,,2,,,66,88
164520,note_on,120,0,3,,,,,,,,,2,,,69,0
164520,note_on,0,0,3,,,,,,,,,2,,,66,0
164520,note_on,0,0,3,,,,,,,,,2,,,61,88
164520,note_on,0,0,1,,,,,,,,,0,,,79,101
164520,note_on,0,0,1,,,,,,,,,0,,,73,101
164520,note_on,0,0,1,,,,,,,,,0,,,78,0
164520,note_on,120,0,1,,,,,,,,,0,,,81,0
164520,note_on,0,0,3,,,,,,,,,2,,,67,88
164580,note_on,60,0,3,,,,,,,,,2,,,67,0
164580,note_on,0,0,1,,,,,,,,,0,,,73,0
164580,note_on,60,0,1,,,,,,,,,0,,,79,0
164580,note_on,0,0,3,,,,,,,,,2,,,61,0
164640,note_on,0,0,3,,,,,,,,,2,,,67,88
164640,note_on,60,0,3,,,,,,,,,2,,,61,88
164640,note_on,60,0,1,,,,,,,,,0,,,73,101
164640,note_on,0,0,1,,,,,,,,,0,,,79,101
164760,note_on,0,0,3,,,,,,,,,2,,,61,0
164760,note_on,120,0,1,,,,,,,,,0,,,79,0
164760,note_on,0,0,1,,,,,,,,,0,,,73,0
164760,note_on,0,0,1,,,,,,,,,0,,,78,101
164760,note_on,0,0,1,,,,,,,,,0,,,74,101
164760,note_on,0,0,3,,,,,,,,,2,,,66,88
164760,note_on,0,0,3,,,,,,,,,2,,,62,88
164760,note_on,120,0,3,,,,,,,,,2,,,67,0
164820,note_on,0,0,1,,,,,,,,,0,,,74,0
164820,note_on,60,0,1,,,,,,,,,0,,,78,0
164820,note_on,0,0,3,,,,,,,,,2,,,62,0
164820,note_on,60,0,3,,,,,,,,,2,,,66,0
164880,note_on,0,0,1,,,,,,,,,0,,,86,101
164880,note_on,60,0,1,,,,,,,,,0,,,74,101
164880,note_on,0,0,1,,,,,,,,,0,,,78,101
164880,note_on,60,0,3,,,,,,,,,2,,,35,88
164880,note_on,0,0,3,,,,,,,,,2,,,47,88
164880,note_on,0,0,1,,,,,,,,,0,,,83,101
164886,note_on,6,0,3,,,,,,,,,2,,,47,0
164886,note_on,0,0,3,,,,,,,,,2,,,35,0
164886,note_on,0,0,1,,,,,,,,,0,,,83,0
164886,note_on,0,0,1,,,,,,,,,0,,,78,0
164886,note_on,0,0,1,,,,,,,,,0,,,74,0
164886,note_on,6,0,1,,,,,,,,,0,,,86,0
164940,note_on,0,0,1,,,,,,,,,0,,,86,101
164940,note_on,54,0,3,,,,,,,,,2,,,35,88
164940,note_on,0,0,1,,,,,,,,,0,,,78,101
164940,note_on,54,0,1,,,,,,,,,0,,,74,101
164940,note_on,0,0,3,,,,,,,,,2,,,47,88
164940,note_on,0,0,1,,,,,,,,,0,,,83,101
164946,note_on,0,0,1,,,,,,,,,0,,,74,0
164946,note_on,6,0,1,,,,,,,,,0,,,86,0
164946,note_on,0,0,1,,,,,,,,,0,,,78,0
164946,note_on,0,0,1,,,,,,,,,0,,,83,0
164946,note_on,6,0,3,,,,,,,,,2,,,47,0
164946,note_on,0,0,3,,,,,,,,,2,,,35,0
165000,note_on,54,0,3,,,,,,,,,2,,,35,88
165000,note_on,0,0,3,,,,,,,,,2,,,47,88
165000,note_on,54,0,1,,,,,,,,,0,,,74,101
165000,note_on,0,0,1,,,,,,,,,0,,,86,101
165000,note_on,0,0,1,,,,,,,,,0,,,78,101
165000,note_on,0,0,1,,,,,,,,,0,,,83,101
165006,note_on,6,0,3,,,,,,,,,2,,,47,0
165006,note_on,0,0,1,,,,,,,,,0,,,83,0
165006,note_on,0,0,3,,,,,,,,,2,,,35,0
165006,note_on,6,0,1,,,,,,,,,0,,,86,0
165006,note_on,0,0,1,,,,,,,,,0,,,74,0
165006,note_on,0,0,1,,,,,,,,,0,,,78,0
165060,note_on,0,0,3,,,,,,,,,2,,,47,88
165060,note_on,54,0,1,,,,,,,,,0,,,74,101
165060,note_on,0,0,1,,,,,,,,,0,,,83,101
165060,note_on,0,0,1,,,,,,,,,0,,,78,101
165060,note_on,0,0,1,,,,,,,,,0,,,86,101
165060,note_on,54,0,3,,,,,,,,,2,,,35,88
165066,note_on,6,0,1,,,,,,,,,0,,,86,0
165066,note_on,0,0,1,,,,,,,,,0,,,74,0
165066,note_on,0,0,1,,,,,,,,,0,,,78,0
165066,note_on,0,0,1,,,,,,,,,0,,,83,0
165066,note_on,6,0,3,,,,,,,,,2,,,47,0
165066,note_on,0,0,3,,,,,,,,,2,,,35,0
165120,note_on,0,0,1,,,,,,,,,0,,,78,119
165120,note_on,54,0,3,,,,,,,,,2,,,35,106
165120,note_on,0,0,3,,,,,,,,,2,,,47,114
165120,note_on,0,0,1,,,,,,,,,0,,,83,123
165120,note_on,54,0,1,,,,,,,,,0,,,74,115
165120,note_on,0,0,1,,,,,,,,,0,,,86,127
165240,note_on,0,0,1,,,,,,,,,0,,,74,0
165240,note_on,0,0,1,,,,,,,,,0,,,78,0
165240,note_on,0,0,1,,,,,,,,,0,,,78,101
165240,note_on,0,0,1,,,,,,,,,0,,,71,101
165240,note_on,0,0,3,,,,,,,,,2,,,50,88
165240,note_on,0,0,1,,,,,,,,,0,,,83,101
165240,note_on,0,0,1,,,,,,,,,0,,,83,0
165240,note_on,0,0,3,,,,,,,,,2,,,38,88
165240,note_on,120,0,1,,,,,,,,,0,,,86,0
165240,note_on,120,0,3,,,,,,,,,2,,,47,0
165240,note_on,0,0,3,,,,,,,,,2,,,35,0
165300,note_on,60,0,3,,,,,,,,,2,,,50,0
165300,note_on,0,0,1,,,,,,,,,0,,,78,0
165300,note_on,60,0,1,,,,,,,,,0,,,83,0
165300,note_on,0,0,1,,,,,,,,,0,,,71,0
165300,note_on,0,0,3,,,,,,,,,2,,,38,0
165360,note_on,0,0,1,,,,,,,,,0,,,74,101
165360,note_on,0,0,1,,,,,,,,,0,,,78,101
165360,note_on,60,0,3,,,,,,,,,2,,,38,88
165360,note_on,60,0,1,,,,,,,,,0,,,69,101
165360,note_on,0,0,3,,,,,,,,,2,,,50,88
165360,note_on,0,0,1,,,,,,,,,0,,,81,101
165372,note_on,12,0,3,,,,,,,,,2,,,50,0
165372,note_on,0,0,1,,,,,,,,,0,,,74,0
165372,note_on,0,0,1,,,,,,,,,0,,,69,0
165372,note_on,12,0,1,,,,,,,,,0,,,81,0
165372,note_on,0,0,3,,,,,,,,,2,,,38,0
165372,note_on,0,0,1,,,,,,,,,0,,,78,0
165480,note_on,108,0,1,,,,,,,,,0,,,69,101
165480,note_on,0,0,1,,,,,,,,,0,,,74,101
165480,note_on,0,0,3,,,,,,,,,2,,,54,88
165480,note_on,108,0,3,,,,,,,,,2,,,42,88
165480,note_on,0,0,1,,,,,,,,,0,,,78,101
165492,note_on,0,0,1,,,,,,,,,0,,,74,0
165492,note_on,12,0,1,,,,,,,,,0,,,78,0
165492,note_on,0,0,1,,,,,,,,,0,,,69,0
165492,note_on,12,0,3,,,,,,,,,2,,,54,0
165492,note_on,0,0,3,,,,,,,,,2,,,42,0
165600,note_on,0,0,1,,,,,,,,,0,,,69,101
165600,note_on,0,0,3,,,,,,,,,2,,,45,88
165600,control_change,108,0,3,,,,,,,,,2,64,127,,
165600,control_change,108,0,1,,,,,,,,,0,64,127,,
165600,note_on,0,0,1,,,,,,,,,0,,,73,101
165600,note_on,0,0,1,,,,,,,,,0,,,76,101
165600,note_on,0,0,3,,,,,,,,,2,,,57,88
165840,note_on,0,0,1,,,,,,,,,0,,,73,0
165840,note_on,0,0,1,,,,,,,,,0,,,69,0
165840,note_on,240,0,3,,,,,,,,,2,,,57,0
165840,note_on,0,0,1,,,,,,,,,0,,,65,101
165840,note_on,0,0,1,,,,,,,,,0,,,77,101
165840,note_on,0,0,3,,,,,,,,,2,,,53,88
165840,note_on,0,0,3,,,,,,,,,2,,,41,88
165840,note_on,0,0,3,,,,,,,,,2,,,45,0
165840,note_on,240,0,1,,,,,,,,,0,,,76,0
165846,note_on,6,0,1,,,,,,,,,0,,,77,0
165846,note_on,0,0,3,,,,,,,,,2,,,41,0
165846,note_on,6,0,3,,,,,,,,,2,,,53,0
165846,note_on,0,0,1,,,,,,,,,0,,,65,0
165900,note_on,0,0,1,,,,,,,,,0,,,77,101
165900,note_on,54,0,1,,,,,,,,,0,,,65,101
165900,note_on,54,0,3,,,,,,,,,2,,,41,88
165900,note_on,0,0,3,,,,,,,,,2,,,53,88
165906,note_on,0,0,1,,,,,,,,,0,,,65,0
165906,note_on,0,0,3,,,,,,,,,2,,,41,0
165906,note_on,6,0,3,,,,,,,,,2,,,53,0
165906,note_on,6,0,1,,,,,,,,,0,,,77,0
165960,note_on,54,0,1,,,,,,,,,0,,,65,101
165960,note_on,0,0,1,,,,,,,,,0,,,77,101
165960,note_on,0,0,3,,,,,,,,,2,,,53,88
165960,note_on,54,0,3,,,,,,,,,2,,,41,88
165966,note_on,0,0,1,,,,,,,,,0,,,65,0
165966,note_on,6,0,1,,,,,,,,,0,,,77,0
165966,note_on,0,0,3,,,,,,,,,2,,,41,0
165966,note_on,6,0,3,,,,,,,,,2,,,53,0
166020,note_on,0,0,3,,,,,,,,,2,,,53,88
166020,note_on,0,0,3,,,,,,,,,2,,,41,88
166020,control_change,54,0,3,,,,,,,,,2,64,0,,
166020,control_change,54,0,1,,,,,,,,,0,64,0,,
166020,note_on,0,0,1,,,,,,,,,0,,,65,101
166020,note_on,0,0,1,,,,,,,,,0,,,77,101
166026,note_on,6,0,3,,,,,,,,,2,,,53,0
166026,note_on,0,0,1,,,,,,,,,0,,,65,0
166026,note_on,0,0,3,,,,,,,,,2,,,41,0
166026,note_on,6,0,1,,,,,,,,,0,,,77,0
166080,note_on,54,0,3,,,,,,,,,2,,,45,88
166080,note_on,0,0,3,,,,,,,,,2,,,54,88
166080,note_on,0,0,3,,,,,,,,,2,,,57,88
166080,note_on,54,0,1,,,,,,,,,0,,,69,101
166080,note_on,0,0,1,,,,,,,,,0,,,74,101
166080,note_on,0,0,1,,,,,,,,,0,,,78,101
166080,note_on,0,0,1,,,,,,,,,0,,,81,101
166200,note_on,120,0,1,,,,,,,,,0,,,81,0
166200,note_on,0,0,1,,,,,,,,,0,,,74,0
166200,note_on,0,0,1,,,,,,,,,0,,,74,101
166200,note_on,0,0,1,,,,,,,,,0,,,78,101
166200,note_on,0,0,1,,,,,,,,,0,,,78,0
166260,note_on,0,0,1,,,,,,,,,0,,,69,0
166260,note_on,0,0,1,,,,,,,,,0,,,74,0
166260,note_on,60,0,1,,,,,,,,,0,,,78,0
166320,note_on,240,0,3,,,,,,,,,2,,,57,0
166320,note_on,0,0,1,,,,,,,,,0,,,78,101
166320,note_on,0,0,1,,,,,,,,,0,,,74,101
166320,note_on,60,0,1,,,,,,,,,0,,,69,101
166320,note_on,0,0,3,,,,,,,,,2,,,66,88
166320,note_on,0,0,3,,,,,,,,,2,,,62,88
166320,note_on,0,0,3,,,,,,,,,2,,,57,88
166320,note_on,0,0,3,,,,,,,,,2,,,45,0
166320,note_on,0,0,3,,,,,,,,,2,,,54,0
166332,note_on,0,0,3,,,,,,,,,2,,,57,0
166332,note_on,0,0,3,,,,,,,,,2,,,62,0
166332,note_on,12,0,3,,,,,,,,,2,,,66,0
166332,note_on,0,0,1,,,,,,,,,0,,,69,0
166332,note_on,0,0,1,,,,,,,,,0,,,74,0
166332,note_on,12,0,1,,,,,,,,,0,,,78,0
166440,note_on,0,0,3,,,,,,,,,2,,,64,88
166440,note_on,0,0,3,,,,,,,,,2,,,61,88
166440,note_on,108,0,3,,,,,,,,,2,,,57,88
166440,note_on,0,0,1,,,,,,,,,0,,,73,101
166440,note_on,0,0,1,,,,,,,,,0,,,76,101
166440,note_on,108,0,1,,,,,,,,,0,,,69,101
166452,note_on,12,0,1,,,,,,,,,0,,,76,0
166452,note_on,12,0,3,,,,,,,,,2,,,64,0
166452,note_on,0,0,1,,,,,,,,,0,,,73,0
166452,note_on,0,0,1,,,,,,,,,0,,,69,0
166452,note_on,0,0,3,,,,,,,,,2,,,57,0
166452,note_on,0,0,3,,,,,,,,,2,,,61,0
166560,note_on,0,0,3,,,,,,,,,2,,,50,88
166560,note_on,0,0,3,,,,,,,,,2,,,62,88
166560,control_change,108,0,3,,,,,,,,,2,64,127,,
166560,note_on,0,0,1,,,,,,,,,0,,,66,101
166560,note_on,0,0,3,,,,,,,,,2,,,57,88
166560,note_on,0,0,1,,,,,,,,,0,,,74,101
166560,note_on,0,0,1,,,,,,,,,0,,,69,101
166560,control_change,108,0,1,,,,,,,,,0,64,127,,
166560,note_on,0,0,3,,,,,,,,,2,,,54,88
166680,note_on,0,0,1,,,,,,,,,0,,,66,0
166680,note_on,0,0,3,,,,,,,,,2,,,50,0
166680,note_on,0,0,1,,,,,,,,,0,,,69,0
166680,note_on,120,0,1,,,,,,,,,0,,,74,0
166680,note_on,0,0,1,,,,,,,,,0,,,77,101
166680,note_on,120,0,3,,,,,,,,,2,,,62,0
166680,note_on,0,0,1,,,,,,,,,0,,,65,101
166680,note_on,0,0,3,,,,,,,,,2,,,53,88
166680,note_on,0,0,3,,,,,,,,,2,,,41,88
166680,note_on,0,0,3,,,,,,,,,2,,,57,0
166680,note_on,0,0,3,,,,,,,,,2,,,54,0
166860,note_on,0,0,3,,,,,,,,,2,,,41,0
166860,control_change,0,0,3,,,,,,,,,2,64,0,,
166860,note_on,0,0,3,,,,,,,,,2,,,41,88
166860,note_on,0,0,3,,,,,,,,,2,,,53,88
166860,control_change,0,0,1,,,,,,,,,0,64,0,,
166860,note_on,0,0,1,,,,,,,,,0,,,77,101
166860,note_on,0,0,1,,,,,,,,,0,,,65,101
166860,note_on,0,0,1,,,,,,,,,0,,,65,0
166860,note_on,180,0,1,,,,,,,,,0,,,77,0
166860,note_on,180,0,3,,,,,,,,,2,,,53,0
166866,note_on,0,0,1,,,,,,,,,0,,,65,0
166866,note_on,6,0,1,,,,,,,,,0,,,77,0
166866,note_on,0,0,3,,,,,,,,,2,,,41,0
166866,note_on,6,0,3,,,,,,,,,2,,,53,0
166920,note_on,0,0,1,,,,,,,,,0,,,77,101
166920,note_on,54,0,1,,,,,,,,,0,,,65,101
166920,note_on,54,0,3,,,,,,,,,2,,,41,88
166920,note_on,0,0,3,,,,,,,,,2,,,53,88
166926,note_on,0,0,3,,,,,,,,,2,,,41,0
166926,note_on,0,0,1,,,,,,,,,0,,,65,0
166926,note_on,6,0,1,,,,,,,,,0,,,77,0
166926,note_on,6,0,3,,,,,,,,,2,,,53,0
166980,note_on,0,0,1,,,,,,,,,0,,,77,101
166980,note_on,54,0,1,,,,,,,,,0,,,65,101
166980,note_on,54,0,3,,,,,,,,,2,,,41,88
166980,note_on,0,0,3,,,,,,,,,2,,,53,88
166986,note_on,6,0,1,,,,,,,,,0,,,77,0
166986,note_on,0,0,1,,,,,,,,,0,,,65,0
166986,note_on,6,0,3,,,,,,,,,2,,,53,0
166986,note_on,0,0,3,,,,,,,,,2,,,41,0
167040,note_on,54,0,3,,,,,,,,,2,,,45,88
167040,note_on,0,0,3,,,,,,,,,2,,,57,88
167040,note_on,54,0,1,,,,,,,,,0,,,69,101
167040,note_on,0,0,1,,,,,,,,,0,,,78,101
167040,note_on,0,0,3,,,,,,,,,2,,,54,88
167040,note_on,0,0,1,,,,,,,,,0,,,81,101
167160,note_on,120,0,1,,,,,,,,,0,,,81,0
167160,note_on,0,0,1,,,,,,,,,0,,,74,101
167160,note_on,0,0,1,,,,,,,,,0,,,78,0
167160,note_on,0,0,1,,,,,,,,,0,,,78,101
167220,note_on,0,0,1,,,,,,,,,0,,,74,0
167220,note_on,0,0,1,,,,,,,,,0,,,69,0
167220,note_on,60,0,1,,,,,,,,,0,,,78,0
167280,note_on,0,0,1,,,,,,,,,0,,,78,101
167280,note_on,0,0,1,,,,,,,,,0,,,74,101
167280,note_on,60,0,1,,,,,,,,,0,,,69,101
167280,note_on,0,0,3,,,,,,,,,2,,,54,0
167280,note_on,0,0,3,,,,,,,,,2,,,45,0
167280,note_on,240,0,3,,,,,,,,,2,,,57,0
167280,note_on,0,0,3,,,,,,,,,2,,,62,88
167280,note_on,0,0,3,,,,,,,,,2,,,66,88
167280,note_on,0,0,3,,,,,,,,,2,,,57,88
167292,note_on,12,0,1,,,,,,,,,0,,,78,0
167292,note_on,0,0,1,,,,,,,,,0,,,69,0
167292,note_on,12,0,3,,,,,,,,,2,,,66,0
167292,note_on,0,0,3,,,,,,,,,2,,,62,0
167292,note_on,0,0,3,,,,,,,,,2,,,57,0
167292,note_on,0,0,1,,,,,,,,,0,,,74,0
167400,note_on,0,0,1,,,,,,,,,0,,,73,101
167400,note_on,108,0,1,,,,,,,,,0,,,69,101
167400,note_on,0,0,1,,,,,,,,,0,,,76,101
167400,note_on,0,0,3,,,,,,,,,2,,,61,88
167400,note_on,0,0,3,,,,,,,,,2,,,64,88
167400,note_on,108,0,3,,,,,,,,,2,,,57,88
167412,note_on,0,0,3,,,,,,,,,2,,,57,0
167412,note_on,0,0,3,,,,,,,,,2,,,61,0
167412,note_on,12,0,3,,,,,,,,,2,,,64,0
167412,note_on,0,0,1,,,,,,,,,0,,,69,0
167412,note_on,12,0,1,,,,,,,,,0,,,76,0
167412,note_on,0,0,1,,,,,,,,,0,,,73,0
167520,note_on,0,0,1,,,,,,,,,0,,,69,101
167520,note_on,0,0,3,,,,,,,,,2,,,54,88
167520,note_on,0,0,1,,,,,,,,,0,,,74,101
167520,note_on,108,0,3,,,,,,,,,2,,,50,88
167520,note_on,108,0,1,,,,,,,,,0,,,66,101
167520,note_on,0,0,3,,,,,,,,,2,,,57,88
167520,note_on,0,0,3,,,,,,,,,2,,,62,88
167640,note_on,0,0,3,,,,,,,,,2,,,50,0
167640,note_on,120,0,1,,,,,,,,,0,,,74,0
167640,note_on,0,0,1,,,,,,,,,0,,,69,0
167640,note_on,0,0,1,,,,,,,,,0,,,66,0
167640,note_on,0,0,1,,,,,,,,,0,,,80,114
167640,note_on,0,0,1,,,,,,,,,0,,,86,114
167640,note_on,0,0,1,,,,,,,,,0,,,89,114
167640,note_on,0,0,3,,,,,,,,,2,,,46,101
167640,note_on,0,0,3,,,,,,,,,2,,,34,101
167640,note_on,0,0,3,,,,,,,,,2,,,57,0
167640,note_on,0,0,3,,,,,,,,,2,,,54,0
167640,note_on,120,0,3,,,,,,,,,2,,,62,0
167820,note_on,0,0,1,,,,,,,,,0,,,89,114
167820,note_on,0,0,1,,,,,,,,,0,,,80,114
167820,note_on,0,0,1,,,,,,,,,0,,,80,0
167820,note_on,0,0,1,,,,,,,,,0,,,86,114
167820,note_on,180,0,1,,,,,,,,,0,,,89,0
167820,note_on,0,0,3,,,,,,,,,2,,,34,0
167820,note_on,0,0,1,,,,,,,,,0,,,86,0
167820,note_on,0,0,3,,,,,,,,,2,,,46,101
167820,note_on,180,0,3,,,,,,,,,2,,,46,0
167820,note_on,0,0,3,,,,,,,,,2,,,34,101
167826,note_on,0,0,1,,,,,,,,,0,,,80,0
167826,note_on,0,0,1,,,,,,,,,0,,,86,0
167826,note_on,6,0,1,,,,,,,,,0,,,89,0
167880,note_on,54,0,1,,,,,,,,,0,,,80,114
167880,note_on,0,0,1,,,,,,,,,0,,,86,114
167880,note_on,60,0,3,,,,,,,,,2,,,46,0
167880,note_on,0,0,3,,,,,,,,,2,,,34,0
167880,note_on,0,0,3,,,,,,,,,2,,,34,101
167880,note_on,0,0,3,,,,,,,,,2,,,46,101
167880,note_on,0,0,1,,,,,,,,,0,,,89,114
167886,note_on,0,0,1,,,,,,,,,0,,,86,0
167886,note_on,6,0,1,,,,,,,,,0,,,89,0
167886,note_on,0,0,1,,,,,,,,,0,,,80,0
167940,note_on,0,0,3,,,,,,,,,2,,,34,0
167940,note_on,54,0,1,,,,,,,,,0,,,80,114
167940,note_on,0,0,1,,,,,,,,,0,,,86,114
167940,note_on,0,0,1,,,,,,,,,0,,,89,114
167940,note_on,60,0,3,,,,,,,,,2,,,46,0
167940,note_on,0,0,3,,,,,,,,,2,,,34,101
167940,note_on,0,0,3,,,,,,,,,2,,,46,101
167946,note_on,6,0,1,,,,,,,,,0,,,89,0
167946,note_on,0,0,1,,,,,,,,,0,,,86,0
167946,note_on,0,0,1,,,,,,,,,0,,,80,0
168000,note_on,0,0,3,,,,,,,,,2,,,54,101
168000,note_on,0,0,1,,,,,,,,,0,,,90,114
168000,note_on,54,0,1,,,,,,,,,0,,,81,114
168000,note_on,0,0,3,,,,,,,,,2,,,57,101
168000,note_on,0,0,3,,,,,,,,,2,,,45,101
168000,note_on,0,0,3,,,,,,,,,2,,,34,0
168000,note_on,60,0,3,,,,,,,,,2,,,46,0
168000,note_on,0,0,1,,,,,,,,,0,,,93,114
168120,note_on,0,0,1,,,,,,,,,0,,,90,114
168120,note_on,0,0,1,,,,,,,,,0,,,81,0
168120,note_on,0,0,1,,,,,,,,,0,,,90,0
168120,note_on,120,0,1,,,,,,,,,0,,,93,0
168120,note_on,0,0,1,,,,,,,,,0,,,86,114
168180,note_on,60,0,1,,,,,,,,,0,,,90,0
168180,note_on,0,0,1,,,,,,,,,0,,,86,0
168240,note_on,5574,0,2,,,,,,,,,1,,,57,101
168240,note_on,240,0,3,,,,,,,,,2,,,57,0
168240,note_on,0,0,3,,,,,,,,,2,,,54,0
168240,note_on,0,0,3,,,,,,,,,2,,,45,0
168240,note_on,0,0,2,,,,,,,,,1,,,62,101
168240,note_on,0,0,2,,,,,,,,,1,,,66,101
168240,note_on,0,0,1,,,,,,,,,0,,,86,114
168240,note_on,0,0,1,,,,,,,,,0,,,90,114
168240,note_on,60,0,1,,,,,,,,,0,,,81,114
168252,note_on,12,0,1,,,,,,,,,0,,,90,0
168252,note_on,0,0,2,,,,,,,,,1,,,57,0
168252,note_on,0,0,2,,,,,,,,,1,,,62,0
168252,note_on,12,0,2,,,,,,,,,1,,,66,0
168252,note_on,0,0,1,,,,,,,,,0,,,81,0
168252,note_on,0,0,1,,,,,,,,,0,,,86,0
168360,note_on,0,0,1,,,,,,,,,0,,,85,114
168360,note_on,0,0,1,,,,,,,,,0,,,88,114
168360,note_on,108,0,1,,,,,,,,,0,,,81,114
168360,note_on,108,0,2,,,,,,,,,1,,,57,101
168360,note_on,0,0,2,,,,,,,,,1,,,61,101
168360,note_on,0,0,2,,,,,,,,,1,,,64,101
168372,note_on,0,0,2,,,,,,,,,1,,,57,0
168372,note_on,12,0,2,,,,,,,,,1,,,64,0
168372,note_on,0,0,2,,,,,,,,,1,,,61,0
168372,note_on,0,0,1,,,,,,,,,0,,,85,0
168372,note_on,12,0,1,,,,,,,,,0,,,88,0
168372,note_on,0,0,1,,,,,,,,,0,,,81,0
168480,control_change,108,0,2,,,,,,,,,1,64,127,,
168480,note_on,0,0,2,,,,,,,,,1,,,66,101
168480,note_on,0,0,2,,,,,,,,,1,,,69,101
168480,note_on,0,0,2,,,,,,,,,1,,,57,101
168480,control_change,108,0,1,,,,,,,,,0,64,127,,
168480,note_on,0,0,1,,,,,,,,,0,,,93,114
168519,note_on,39,0,1,,,,,,,,,0,,,90,114
168520,note_on,1,0,1,,,,,,,,,0,,,93,0
168559,note_on,39,0,1,,,,,,,,,0,,,90,0
168560,note_on,1,0,1,,,,,,,,,0,,,81,114
168600,note_on,120,0,2,,,,,,,,,1,,,69,0
168600,note_on,0,0,2,,,,,,,,,1,,,66,0
168600,note_on,0,0,2,,,,,,,,,1,,,62,101
168600,note_on,0,0,2,,,,,,,,,1,,,66,101
168600,note_on,40,0,1,,,,,,,,,0,,,81,0
168600,note_on,0,0,1,,,,,,,,,0,,,86,114
168639,note_on,39,0,1,,,,,,,,,0,,,90,114
168640,note_on,1,0,1,,,,,,,,,0,,,86,0
168660,note_on,0,0,2,,,,,,,,,1,,,57,0
168660,note_on,0,0,2,,,,,,,,,1,,,62,0
168660,note_on,60,0,2,,,,,,,,,1,,,66,0
168679,note_on,39,0,1,,,,,,,,,0,,,90,0
168680,note_on,1,0,1,,,,,,,,,0,,,95,114
168720,note_on,40,0,1,,,,,,,,,0,,,95,0
168720,note_on,0,0,1,,,,,,,,,0,,,93,114
168720,note_on,60,0,2,,,,,,,,,1,,,57,101
168720,note_on,0,0,2,,,,,,,,,1,,,62,101
168720,note_on,0,0,2,,,,,,,,,1,,,66,101
168732,note_on,0,0,2,,,,,,,,,1,,,57,0
168732,note_on,0,0,2,,,,,,,,,1,,,62,0
168732,note_on,12,0,2,,,,,,,,,1,,,66,0
168759,note_on,39,0,1,,,,,,,,,0,,,90,114
168760,note_on,1,0,1,,,,,,,,,0,,,93,0
168799,note_on,39,0,1,,,,,,,,,0,,,90,0
168800,note_on,1,0,1,,,,,,,,,0,,,81,114
168840,note_on,0,0,1,,,,,,,,,0,,,88,114
168840,note_on,40,0,1,,,,,,,,,0,,,81,0
168840,control_change,0,0,1,,,,,,,,,0,64,0,,
168840,control_change,108,0,2,,,,,,,,,1,64,0,,
168840,note_on,0,0,2,,,,,,,,,1,,,57,101
168840,note_on,0,0,2,,,,,,,,,1,,,61,101
168840,note_on,0,0,2,,,,,,,,,1,,,64,101
168852,note_on,12,0,2,,,,,,,,,1,,,64,0
168852,note_on,0,0,2,,,,,,,,,1,,,61,0
168852,note_on,0,0,2,,,,,,,,,1,,,57,0
168879,note_on,39,0,1,,,,,,,,,0,,,85,114
168880,note_on,1,0,1,,,,,,,,,0,,,88,0
168919,note_on,39,0,1,,,,,,,,,0,,,85,0
168920,note_on,1,0,1,,,,,,,,,0,,,81,114
168960,note_on,0,0,2,,,,,,,,,1,,,57,101
168960,note_on,40,0,1,,,,,,,,,0,,,81,0
168960,note_on,0,0,2,,,,,,,,,1,,,66,101
168960,control_change,108,0,2,,,,,,,,,1,64,127,,
168960,note_on,0,0,1,,,,,,,,,0,,,93,114
168960,note_on,0,0,2,,,,,,,,,1,,,69,101
168960,control_change,0,0,1,,,,,,,,,0,64,127,,
168999,note_on,39,0,1,,,,,,,,,0,,,90,114
169000,note_on,1,0,1,,,,,,,,,0,,,93,0
169039,note_on,39,0,1,,,,,,,,,0,,,90,0
169040,note_on,1,0,1,,,,,,,,,0,,,81,114
169080,note_on,0,0,2,,,,,,,,,1,,,62,101
169080,note_on,40,0,1,,,,,,,,,0,,,81,0
169080,note_on,0,0,2,,,,,,,,,1,,,66,101
169080,note_on,0,0,1,,,,,,,,,0,,,86,114
169080,note_on,0,0,2,,,,,,,,,1,,,66,0
169080,note_on,120,0,2,,,,,,,,,1,,,69,0
169119,note_on,39,0,1,,,,,,,,,0,,,90,114
169120,note_on,1,0,1,,,,,,,,,0,,,86,0
169140,note_on,60,0,2,,,,,,,,,1,,,66,0
169140,note_on,0,0,2,,,,,,,,,1,,,57,0
169140,note_on,0,0,2,,,,,,,,,1,,,62,0
169159,note_on,39,0,1,,,,,,,,,0,,,90,0
169160,note_on,1,0,1,,,,,,,,,0,,,95,114
169200,note_on,0,0,1,,,,,,,,,0,,,93,114
169200,note_on,40,0,1,,,,,,,,,0,,,95,0
169200,note_on,0,0,2,,,,,,,,,1,,,62,101
169200,note_on,0,0,2,,,,,,,,,1,,,66,101
169200,note_on,60,0,2,,,,,,,,,1,,,57,101
169212,note_on,12,0,2,,,,,,,,,1,,,66,0
169212,note_on,0,0,2,,,,,,,,,1,,,62,0
169212,note_on,0,0,2,,,,,,,,,1,,,57,0
169239,note_on,39,0,1,,,,,,,,,0,,,90,114
169240,note_on,1,0,1,,,,,,,,,0,,,93,0
169279,note_on,39,0,1,,,,,,,,,0,,,90,0
169280,note_on,1,0,1,,,,,,,,,0,,,81,114
169320,note_on,0,0,2,,,,,,,,,1,,,64,101
169320,note_on,0,0,2,,,,,,,,,1,,,61,101
169320,note_on,0,0,2,,,,,,,,,1,,,57,101
169320,control_change,108,0,2,,,,,,,,,1,64,0,,
169320,note_on,0,0,1,,,,,,,,,0,,,88,114
169320,note_on,40,0,1,,,,,,,,,0,,,81,0
169320,control_change,0,0,1,,,,,,,,,0,64,0,,
169332,note_on,0,0,2,,,,,,,,,1,,,57,0
169332,note_on,0,0,2,,,,,,,,,1,,,61,0
169332,note_on,12,0,2,,,,,,,,,1,,,64,0
169359,note_on,39,0,1,,,,,,,,,0,,,85,114
169360,note_on,1,0,1,,,,,,,,,0,,,88,0
169399,note_on,39,0,1,,,,,,,,,0,,,85,0
169400,note_on,1,0,1,,,,,,,,,0,,,81,114
169440,control_change,0,0,1,,,,,,,,,0,64,127,,
169440,note_on,0,0,1,,,,,,,,,0,,,93,114
169440,note_on,40,0,1,,,,,,,,,0,,,81,0
169440,control_change,1200,0,3,,,,,,,,,2,64,127,,
169440,note_on,0,0,3,,,,,,,,,2,,,57,101
169440,note_on,0,0,3,,,,,,,,,2,,,66,101
169440,note_on,0,0,3,,,,,,,,,2,,,69,101
169479,note_on,39,0,1,,,,,,,,,0,,,81,114
169480,note_on,1,0,1,,,,,,,,,0,,,93,0
169519,note_on,39,0,1,,,,,,,,,0,,,81,0
169520,note_on,1,0,1,,,,,,,,,0,,,86,114
169560,note_on,0,0,3,,,,,,,,,2,,,66,101
169560,note_on,40,0,1,,,,,,,,,0,,,86,0
169560,note_on,0,0,1,,,,,,,,,0,,,90,114
169560,note_on,0,0,3,,,,,,,,,2,,,62,101
169560,note_on,0,0,3,,,,,,,,,2,,,66,0
169560,note_on,120,0,3,,,,,,,,,2,,,69,0
169599,note_on,39,0,1,,,,,,,,,0,,,93,114
169600,note_on,1,0,1,,,,,,,,,0,,,90,0
169620,note_on,0,0,3,,,,,,,,,2,,,57,0
169620,note_on,60,0,3,,,,,,,,,2,,,66,0
169620,note_on,0,0,3,,,,,,,,,2,,,62,0
169639,note_on,39,0,1,,,,,,,,,0,,,93,0
169640,note_on,1,0,1,,,,,,,,,0,,,98,114
169680,note_on,40,0,1,,,,,,,,,0,,,98,0
169680,note_on,60,0,3,,,,,,,,,2,,,57,101
169680,note_on,0,0,3,,,,,,,,,2,,,62,101
169680,note_on,0,0,3,,,,,,,,,2,,,66,101
169680,note_on,0,0,1,,,,,,,,,0,,,93,114
169692,note_on,12,0,3,,,,,,,,,2,,,66,0
169692,note_on,0,0,3,,,,,,,,,2,,,62,0
169692,note_on,0,0,3,,,,,,,,,2,,,57,0
169719,note_on,39,0,1,,,,,,,,,0,,,90,114
169720,note_on,1,0,1,,,,,,,,,0,,,93,0
169759,note_on,39,0,1,,,,,,,,,0,,,90,0
169760,note_on,1,0,1,,,,,,,,,0,,,95,114
169800,note_on,0,0,1,,,,,,,,,0,,,93,114
169800,control_change,0,0,1,,,,,,,,,0,64,0,,
169800,note_on,40,0,1,,,,,,,,,0,,,95,0
169800,note_on,0,0,3,,,,,,,,,2,,,64,101
169800,note_on,0,0,3,,,,,,,,,2,,,61,101
169800,note_on,0,0,3,,,,,,,,,2,,,57,101
169800,control_change,108,0,3,,,,,,,,,2,64,0,,
169812,note_on,12,0,3,,,,,,,,,2,,,64,0
169812,note_on,0,0,3,,,,,,,,,2,,,57,0
169812,note_on,0,0,3,,,,,,,,,2,,,61,0
169839,note_on,39,0,1,,,,,,,,,0,,,91,114
169840,note_on,1,0,1,,,,,,,,,0,,,93,0
169879,note_on,39,0,1,,,,,,,,,0,,,91,0
169880,note_on,1,0,1,,,,,,,,,0,,,88,114
169920,control_change,9180,0,4,,,,,,,,,3,64,127,,
169920,note_on,0,0,1,,,,,,,,,0,,,86,114
169920,note_on,40,0,1,,,,,,,,,0,,,88,0
169920,note_on,0,0,4,,,,,,,,,3,,,62,75
169920,note_on,0,0,4,,,,,,,,,3,,,50,75
169920,note_on,0,0,4,,,,,,,,,3,,,54,75
169960,note_on,0,0,4,,,,,,,,,3,,,50,0
169960,note_on,0,0,4,,,,,,,,,3,,,54,0
169960,note_on,40,0,4,,,,,,,,,3,,,62,0
169980,note_on,60,0,1,,,,,,,,,0,,,86,0
170000,note_on,40,0,4,,,,,,,,,3,,,40,75
170000,note_on,0,0,3,,,,,,,,,2,,,52,101
170000,control_change,188,0,3,,,,,,,,,2,64,127,,
170040,note_on,40,0,4,,,,,,,,,3,,,40,0
170040,note_on,0,0,3,,,,,,,,,2,,,54,101
170040,note_on,40,0,3,,,,,,,,,2,,,52,0
170040,note_on,0,0,4,,,,,,,,,3,,,42,75
170079,note_on,39,0,3,,,,,,,,,2,,,52,101
170079,note_on,39,0,4,,,,,,,,,3,,,40,75
170080,note_on,1,0,4,,,,,,,,,3,,,42,0
170080,note_on,1,0,3,,,,,,,,,2,,,54,0
170119,note_on,39,0,3,,,,,,,,,2,,,52,0
170119,note_on,39,0,4,,,,,,,,,3,,,40,0
170120,note_on,1,0,4,,,,,,,,,3,,,38,75
170120,note_on,1,0,3,,,,,,,,,2,,,50,101
170160,note_on,40,0,4,,,,,,,,,3,,,38,0
170160,control_change,0,0,4,,,,,,,,,3,64,0,,
170160,note_on,0,0,4,,,,,,,,,3,,,43,75
170160,note_on,40,0,3,,,,,,,,,2,,,50,0
170160,note_on,0,0,3,,,,,,,,,2,,,55,101
170160,control_change,0,0,3,,,,,,,,,2,64,0,,
170199,note_on,39,0,3,,,,,,,,,2,,,54,101
170199,note_on,39,0,4,,,,,,,,,3,,,42,75
170200,note_on,1,0,3,,,,,,,,,2,,,55,0
170200,note_on,1,0,4,,,,,,,,,3,,,43,0
170239,note_on,39,0,3,,,,,,,,,2,,,54,0
170239,note_on,39,0,4,,,,,,,,,3,,,42,0
170240,note_on,1,0,4,,,,,,,,,3,,,40,75
170240,note_on,1,0,3,,,,,,,,,2,,,52,101
170280,note_on,0,0,4,,,,,,,,,3,,,45,75
170280,note_on,0,0,3,,,,,,,,,2,,,57,101
170280,note_on,40,0,3,,,,,,,,,2,,,52,0
170280,note_on,40,0,4,,,,,,,,,3,,,40,0
170319,note_on,39,0,4,,,,,,,,,3,,,43,75
170319,note_on,39,0,3,,,,,,,,,2,,,55,101
170320,note_on,1,0,4,,,,,,,,,3,,,45,0
170320,note_on,1,0,3,,,,,,,,,2,,,57,0
170359,note_on,39,0,3,,,,,,,,,2,,,55,0
170359,note_on,39,0,4,,,,,,,,,3,,,43,0
170360,note_on,1,0,4,,,,,,,,,3,,,42,75
170360,note_on,1,0,3,,,,,,,,,2,,,54,101
170400,note_on,0,0,4,,,,,,,,,3,,,47,75
170400,note_on,40,0,3,,,,,,,,,2,,,54,0
170400,note_on,420,0,1,,,,,,,,,0,,,59,114
170400,note_on,40,0,4,,,,,,,,,3,,,42,0
170439,note_on,39,0,4,,,,,,,,,3,,,45,75
170439,note_on,39,0,1,,,,,,,,,0,,,57,114
170440,note_on,1,0,4,,,,,,,,,3,,,47,0
170440,note_on,1,0,1,,,,,,,,,0,,,59,0
170479,note_on,39,0,4,,,,,,,,,3,,,45,0
170479,note_on,39,0,1,,,,,,,,,0,,,57,0
170480,note_on,1,0,4,,,,,,,,,3,,,43,75
170480,note_on,1,0,1,,,,,,,,,0,,,55,114
170520,note_on,40,0,1,,,,,,,,,0,,,55,0
170520,note_on,0,0,1,,,,,,,,,0,,,61,114
170520,note_on,0,0,4,,,,,,,,,3,,,49,75
170520,note_on,40,0,4,,,,,,,,,3,,,43,0
170559,note_on,39,0,1,,,,,,,,,0,,,59,114
170559,note_on,39,0,4,,,,,,,,,3,,,47,75
170560,note_on,1,0,1,,,,,,,,,0,,,61,0
170560,note_on,1,0,4,,,,,,,,,3,,,49,0
170599,note_on,39,0,1,,,,,,,,,0,,,59,0
170599,note_on,39,0,4,,,,,,,,,3,,,47,0
170600,note_on,1,0,1,,,,,,,,,0,,,57,114
170600,note_on,1,0,4,,,,,,,,,3,,,45,75
170640,note_on,40,0,1,,,,,,,,,0,,,57,0
170640,note_on,0,0,1,,,,,,,,,0,,,62,114
170640,note_on,0,0,4,,,,,,,,,3,,,50,75
170640,note_on,40,0,4,,,,,,,,,3,,,45,0
170679,note_on,39,0,1,,,,,,,,,0,,,61,114
170679,note_on,39,0,4,,,,,,,,,3,,,49,75
170680,note_on,1,0,1,,,,,,,,,0,,,62,0
170680,note_on,1,0,4,,,,,,,,,3,,,50,0
170719,note_on,39,0,1,,,,,,,,,0,,,61,0
170719,note_on,39,0,4,,,,,,,,,3,,,49,0
170720,note_on,1,0,4,,,,,,,,,3,,,47,75
170720,note_on,1,0,1,,,,,,,,,0,,,59,114
170760,note_on,40,0,4,,,,,,,,,3,,,47,0
170760,note_on,0,0,4,,,,,,,,,3,,,52,75
170760,note_on,40,0,1,,,,,,,,,0,,,59,0
170760,note_on,0,0,1,,,,,,,,,0,,,64,114
170799,note_on,39,0,4,,,,,,,,,3,,,50,75
170799,note_on,39,0,1,,,,,,,,,0,,,62,114
170800,note_on,1,0,1,,,,,,,,,0,,,64,0
170800,note_on,1,0,4,,,,,,,,,3,,,52,0
170839,note_on,39,0,4,,,,,,,,,3,,,50,0
170839,note_on,39,0,1,,,,,,,,,0,,,62,0
170840,note_on,1,0,4,,,,,,,,,3,,,49,75
170840,note_on,1,0,1,,,,,,,,,0,,,61,114
170880,note_on,0,0,1,,,,,,,,,0,,,66,114
170880,note_on,0,0,1,,,,,,,,,0,,,58,114
170880,note_on,40,0,1,,,,,,,,,0,,,61,0
170880,note_on,40,0,4,,,,,,,,,3,,,49,0
170880,note_on,0,0,1,,,,,,,,,0,,,61,114
170880,note_on,480,0,3,,,,,,,,,2,,,42,101
170880,note_on,0,0,3,,,,,,,,,2,,,54,101
171120,note_on,0,0,1,,,,,,,,,0,,,58,0
171120,note_on,0,0,1,,,,,,,,,0,,,61,0
171120,note_on,240,0,1,,,,,,,,,0,,,66,0
171120,note_on,0,0,3,,,,,,,,,2,,,42,0
171120,note_on,240,0,3,,,,,,,,,2,,,54,0
171360,note_on,0,0,1,,,,,,,,,0,,,81,114
171360,note_on,240,0,1,,,,,,,,,0,,,67,114
171360,note_on,0,0,1,,,,,,,,,0,,,76,114
171360,note_on,0,0,1,,,,,,,,,0,,,73,114
171360,note_on,0,0,1,,,,,,,,,0,,,69,114
171360,note_on,240,0,3,,,,,,,,,2,,,33,101
171360,note_on,0,0,3,,,,,,,,,2,,,45,101
171600,note_on,0,0,3,,,,,,,,,2,,,33,0
171600,note_on,0,0,1,,,,,,,,,0,,,76,0
171600,note_on,0,0,1,,,,,,,,,0,,,69,0
171600,note_on,0,0,1,,,,,,,,,0,,,67,0
171600,note_on,0,0,1,,,,,,,,,0,,,73,0
171600,note_on,240,0,1,,,,,,,,,0,,,81,0
171600,note_on,240,0,3,,,,,,,,,2,,,45,0
171840,control_change,240,0,3,,,,,,,,,2,64,127,,
171840,note_on,0,0,1,,,,,,,,,0,,,62,114
171840,note_on,0,0,1,,,,,,,,,0,,,57,114
171840,note_on,0,0,1,,,,,,,,,0,,,54,114
171840,control_change,240,0,1,,,,,,,,,0,64,127,,
171840,note_on,0,0,3,,,,,,,,,2,,,38,101
171840,note_on,0,0,3,,,,,,,,,2,,,50,101
172020,note_on,180,0,3,,,,,,,,,2,,,50,0
172020,note_on,0,0,3,,,,,,,,,2,,,38,0
172020,note_on,0,0,3,,,,,,,,,2,,,38,114
172080,note_on,0,0,1,,,,,,,,,0,,,62,114
172080,note_on,0,0,1,,,,,,,,,0,,,54,0
172080,note_on,0,0,1,,,,,,,,,0,,,57,0
172080,note_on,240,0,1,,,,,,,,,0,,,62,0
172080,note_on,60,0,3,,,,,,,,,2,,,38,0
172080,note_on,0,0,1,,,,,,,,,0,,,57,114
172080,note_on,0,0,3,,,,,,,,,2,,,42,114
172080,note_on,0,0,1,,,,,,,,,0,,,54,114
172119,note_on,39,0,3,,,,,,,,,2,,,40,114
172120,note_on,1,0,3,,,,,,,,,2,,,42,0
172159,note_on,39,0,3,,,,,,,,,2,,,40,0
172160,note_on,1,0,3,,,,,,,,,2,,,38,114
172200,note_on,40,0,3,,,,,,,,,2,,,38,0
172200,note_on,120,0,1,,,,,,,,,0,,,62,0
172200,note_on,0,0,1,,,,,,,,,0,,,57,0
172200,note_on,0,0,1,,,,,,,,,0,,,54,0
172200,note_on,0,0,3,,,,,,,,,2,,,45,114
172200,note_on,0,0,1,,,,,,,,,0,,,54,114
172200,note_on,0,0,1,,,,,,,,,0,,,57,114
172200,note_on,0,0,1,,,,,,,,,0,,,62,114
172239,note_on,39,0,3,,,,,,,,,2,,,43,114
172240,note_on,1,0,3,,,,,,,,,2,,,45,0
172279,note_on,39,0,3,,,,,,,,,2,,,43,0
172280,note_on,1,0,3,,,,,,,,,2,,,42,114
172320,note_on,0,0,1,,,,,,,,,0,,,57,114
172320,note_on,0,0,1,,,,,,,,,0,,,54,114
172320,note_on,0,0,1,,,,,,,,,0,,,54,0
172320,note_on,0,0,1,,,,,,,,,0,,,57,0
172320,note_on,120,0,1,,,,,,,,,0,,,62,0
172320,note_on,40,0,3,,,,,,,,,2,,,42,0
172320,note_on,0,0,3,,,,,,,,,2,,,50,114
172320,note_on,0,0,1,,,,,,,,,0,,,62,114
172440,note_on,120,0,3,,,,,,,,,2,,,50,0
172440,note_on,0,0,1,,,,,,,,,0,,,54,0
172440,note_on,0,0,1,,,,,,,,,0,,,57,0
172440,note_on,120,0,1,,,,,,,,,0,,,62,0
172560,note_on,0,0,1,,,,,,,,,0,,,78,114
172560,note_on,0,0,1,,,,,,,,,0,,,86,114
172560,note_on,0,0,1,,,,,,,,,0,,,81,114
172560,note_on,120,0,1,,,,,,,,,0,,,74,114
172560,note_on,0,0,3,,,,,,,,,2,,,62,101
172560,note_on,0,0,3,,,,,,,,,2,,,57,101
172560,note_on,0,0,3,,,,,,,,,2,,,54,101
172560,note_on,120,0,3,,,,,,,,,2,,,50,101
172680,note_on,120,0,1,,,,,,,,,0,,,86,0
172680,note_on,0,0,3,,,,,,,,,2,,,57,0
172680,note_on,0,0,3,,,,,,,,,2,,,54,0
172680,note_on,0,0,3,,,,,,,,,2,,,50,0
172680,note_on,120,0,3,,,,,,,,,2,,,62,0
172680,note_on,0,0,1,,,,,,,,,0,,,78,0
172680,note_on,0,0,1,,,,,,,,,0,,,81,0
172680,note_on,0,0,1,,,,,,,,,0,,,74,0
172800,note_on,120,0,3,,,,,,,,,2,,,38,101
172800,note_on,0,0,3,,,,,,,,,2,,,50,101
172800,note_on,0,0,3,,,,,,,,,2,,,45,101
172800,note_on,120,0,1,,,,,,,,,0,,,54,114
172800,note_on,0,0,1,,,,,,,,,0,,,57,114
172800,note_on,0,0,1,,,,,,,,,0,,,62,114
173040,note_on,0,0,3,,,,,,,,,2,,,38,0
173040,note_on,0,0,3,,,,,,,,,2,,,45,0
173040,note_on,240,0,3,,,,,,,,,2,,,50,0
173040,note_on,240,0,1,,,,,,,,,0,,,62,0
173040,note_on,0,0,1,,,,,,,,,0,,,54,0
173040,note_on,0,0,1,,,,,,,,,0,,,57,0
173280,control_change,240,0,3,,,,,,,,,2,7,0,,
173280,control_change,2400,0,4,,,,,,,,,3,7,0,,
173280,control_change,240,0,1,,,,,,,,,0,7,0,,
173280,control_change,3948,0,2,,,,,,,,,1,7,0,,
173760,control_change,480,0,2,,,,,,,,,1,64,0,,
173760,end_of_track,0,1,3,,,,,,,,,,,,,
173760,control_change,480,0,3,,,,,,,,,2,64,0,,
173760,end_of_track,0,1,2,,,,,,,,,,,,,
173760,control_change,480,0,1,,,,,,,,,0,64,0,,
173760,end_of_track,0,1,1,,,,,,,,,,,,,
173760,control_change,480,0,4,,,,,,,,,3,64,0,,
173760,end_of_track,0,1,4,,,,,,,,,,,,,
