tick,type,numerator,denominator,clocks_per_click,notated_32nd_notes_per_beat,time,meta,track,tempo,program,channel,control,value,note,velocity
0,time_signature,3,4,24,8,0,1,0,,,,,,,
0,control_change,,,,,0,0,1,,,0,7,80,,
0,control_change,,,,,0,0,1,,,0,91,96,,
0,note_on,,,,,0,0,1,,,0,,,81,46
0,track_name,,,,,0,1,8,,,,,,,
0,track_name,,,,,0,1,2,,,,,,,
0,program_change,,,,,0,0,2,,0,0,,,,
0,control_change,,,,,0,0,2,,,0,7,80,,
0,track_name,,,,,0,1,3,,,,,,,
0,program_change,,,,,0,0,3,,0,0,,,,
0,control_change,,,,,0,0,3,,,0,7,80,,
0,end_of_track,,,,,0,1,3,,,,,,,
0,track_name,,,,,0,1,4,,,,,,,
0,end_of_track,,,,,0,1,4,,,,,,,
0,track_name,,,,,0,1,5,,,,,,,
0,end_of_track,,,,,0,1,5,,,,,,,
0,track_name,,,,,0,1,6,,,,,,,
0,end_of_track,,,,,0,1,6,,,,,,,
0,track_name,,,,,0,1,7,,,,,,,
0,end_of_track,,,,,0,1,7,,,,,,,
0,program_change,,,,,0,0,1,,0,0,,,,
0,track_name,,,,,0,1,1,,,,,,,
0,end_of_track,,,,,0,1,8,,,,,,,
0,set_tempo,,,,,0,1,0,382166,,,,,,
0,marker,,,,,0,1,0,,,,,,,
20,note_on,,,,,20,0,1,,,0,,,85,51
30,set_tempo,,,,,30,1,0,258621,,,,,,
40,note_on,,,,,20,0,1,,,0,,,88,53
120,note_off,,,,,80,0,1,,,0,,,81,64
140,note_off,,,,,20,0,1,,,0,,,85,64
160,note_off,,,,,20,0,1,,,0,,,88,64
240,note_on,,,,,0,0,1,,,0,,,73,41
240,note_on,,,,,80,0,1,,,0,,,76,41
240,note_on,,,,,0,0,1,,,0,,,69,41
360,note_off,,,,,0,0,1,,,0,,,73,64
360,note_off,,,,,0,0,1,,,0,,,76,64
360,note_off,,,,,120,0,1,,,0,,,69,64
480,note_on,,,,,0,0,2,,,0,,,57,49
480,note_on,,,,,480,0,2,,,0,,,64,49
480,note_on,,,,,0,0,2,,,0,,,61,49
600,note_off,,,,,0,0,2,,,0,,,61,64
600,note_off,,,,,120,0,2,,,0,,,57,64
600,note_off,,,,,0,0,2,,,0,,,64,64
720,note_on,,,,,120,0,2,,,0,,,64,67
720,note_on,,,,,0,0,2,,,0,,,59,67
720,note_on,,,,,0,0,2,,,0,,,56,67
900,note_off,,,,,0,0,2,,,0,,,64,64
900,note_off,,,,,0,0,2,,,0,,,59,64
900,note_off,,,,,180,0,2,,,0,,,56,64
960,note_on,,,,,0,0,1,,,0,,,68,38
960,note_on,,,,,600,0,1,,,0,,,71,38
1080,note_on,,,,,0,0,1,,,0,,,76,31
1080,note_off,,,,,0,0,1,,,0,,,71,64
1080,note_off,,,,,120,0,1,,,0,,,68,64
1170,note_off,,,,,90,0,1,,,0,,,76,64
1200,note_on,,,,,0,0,1,,,0,,,69,41
1200,note_on,,,,,0,0,2,,,0,,,57,46
1200,note_on,,,,,0,0,2,,,0,,,61,46
1200,note_on,,,,,300,0,2,,,0,,,64,46
1200,note_on,,,,,30,0,1,,,0,,,73,41
1320,note_on,,,,,0,0,1,,,0,,,76,35
1320,note_off,,,,,120,0,1,,,0,,,69,64
1320,note_off,,,,,0,0,1,,,0,,,73,64
1320,note_off,,,,,0,0,2,,,0,,,64,64
1320,note_off,,,,,120,0,2,,,0,,,57,64
1320,note_off,,,,,0,0,2,,,0,,,61,64
1380,set_tempo,,,,,1350,1,0,310881,,,,,,
1410,note_off,,,,,90,0,1,,,0,,,76,64
1440,note_on,,,,,30,0,1,,,0,,,83,46
1460,note_on,,,,,20,0,1,,,0,,,86,51
1470,set_tempo,,,,,90,1,0,256410,,,,,,
1480,note_on,,,,,20,0,1,,,0,,,88,53
1560,note_off,,,,,80,0,1,,,0,,,83,64
1580,note_off,,,,,20,0,1,,,0,,,86,64
1600,note_off,,,,,20,0,1,,,0,,,88,64
1680,note_on,,,,,0,0,1,,,0,,,71,41
1680,note_on,,,,,0,0,1,,,0,,,74,41
1680,note_on,,,,,80,0,1,,,0,,,76,41
1800,note_off,,,,,0,0,1,,,0,,,76,64
1800,note_off,,,,,0,0,1,,,0,,,74,64
1800,note_off,,,,,120,0,1,,,0,,,71,64
1920,note_on,,,,,0,0,2,,,0,,,59,49
1920,note_on,,,,,0,0,2,,,0,,,62,49
1920,note_on,,,,,600,0,2,,,0,,,64,49
2040,note_off,,,,,0,0,2,,,0,,,64,64
2040,note_off,,,,,0,0,2,,,0,,,62,64
2040,note_off,,,,,120,0,2,,,0,,,59,64
2160,note_on,,,,,0,0,2,,,0,,,61,67
2160,note_on,,,,,120,0,2,,,0,,,64,67
2160,note_on,,,,,0,0,2,,,0,,,57,67
2340,note_off,,,,,180,0,2,,,0,,,57,64
2340,note_off,,,,,0,0,2,,,0,,,61,64
2340,note_off,,,,,0,0,2,,,0,,,64,64
2400,note_on,,,,,600,0,1,,,0,,,73,37
2400,note_on,,,,,0,0,1,,,0,,,69,37
2520,note_off,,,,,120,0,1,,,0,,,69,64
2520,note_off,,,,,0,0,1,,,0,,,73,64
2520,note_on,,,,,0,0,1,,,0,,,76,31
2610,note_off,,,,,90,0,1,,,0,,,76,64
2640,note_on,,,,,0,0,1,,,0,,,71,43
2640,note_on,,,,,300,0,2,,,0,,,64,46
2640,note_on,,,,,0,0,2,,,0,,,59,46
2640,note_on,,,,,0,0,2,,,0,,,62,46
2640,note_on,,,,,30,0,1,,,0,,,74,43
2760,note_off,,,,,120,0,1,,,0,,,71,64
2760,note_on,,,,,0,0,1,,,0,,,76,36
2760,note_off,,,,,0,0,2,,,0,,,64,64
2760,note_off,,,,,0,0,2,,,0,,,62,64
2760,note_off,,,,,120,0,2,,,0,,,59,64
2760,note_off,,,,,0,0,1,,,0,,,74,64
2810,set_tempo,,,,,1340,1,0,326087,,,,,,
2850,note_off,,,,,90,0,1,,,0,,,76,64
2880,note_on,,,,,30,0,1,,,0,,,85,60
2900,note_on,,,,,20,0,1,,,0,,,88,61
2920,set_tempo,,,,,110,1,0,258621,,,,,,
2920,note_on,,,,,20,0,1,,,0,,,93,62
3000,note_off,,,,,80,0,1,,,0,,,85,64
3020,note_off,,,,,20,0,1,,,0,,,88,64
3040,note_off,,,,,20,0,1,,,0,,,93,64
3120,note_on,,,,,0,0,1,,,0,,,73,48
3120,note_on,,,,,0,0,1,,,0,,,76,48
3120,note_on,,,,,80,0,1,,,0,,,81,48
3240,note_off,,,,,120,0,1,,,0,,,73,64
3240,note_off,,,,,0,0,1,,,0,,,81,64
3240,note_off,,,,,0,0,1,,,0,,,76,64
3360,note_on,,,,,600,0,2,,,0,,,64,67
3360,note_on,,,,,0,0,2,,,0,,,61,67
3480,note_off,,,,,120,0,2,,,0,,,61,64
3480,note_off,,,,,0,0,2,,,0,,,64,64
3600,note_on,,,,,120,0,2,,,0,,,67,86
3600,note_on,,,,,0,0,2,,,0,,,62,86
3600,note_on,,,,,0,0,2,,,0,,,59,86
3840,note_on,,,,,0,0,1,,,0,,,71,38
3840,note_on,,,,,0,0,1,,,0,,,74,38
3840,note_on,,,,,600,0,1,,,0,,,79,38
3960,note_off,,,,,0,0,1,,,0,,,79,64
3960,note_off,,,,,120,0,1,,,0,,,71,64
3960,note_off,,,,,0,0,1,,,0,,,74,64
4080,note_on,,,,,120,0,1,,,0,,,83,46
4100,note_on,,,,,20,0,1,,,0,,,86,48
4120,note_on,,,,,20,0,1,,,0,,,91,50
4200,note_off,,,,,80,0,1,,,0,,,83,64
4220,note_off,,,,,20,0,1,,,0,,,86,64
4240,note_off,,,,,20,0,1,,,0,,,91,64
4290,note_on,,,,,50,0,1,,,0,,,91,47
4320,note_on,,,,,0,0,2,,,0,,,62,67
4320,note_off,,,,,0,0,2,,,0,,,67,64
4320,note_on,,,,,0,0,1,,,0,,,90,52
4320,note_off,,,,,30,0,1,,,0,,,91,64
4320,note_on,,,,,0,0,2,,,0,,,59,67
4320,note_off,,,,,0,0,2,,,0,,,62,64
4320,note_on,,,,,0,0,2,,,0,,,54,67
4320,note_off,,,,,720,0,2,,,0,,,59,64
4440,note_on,,,,,0,0,1,,,0,,,89,31
4440,note_off,,,,,120,0,1,,,0,,,90,64
4560,note_on,,,,,0,0,1,,,0,,,90,42
4560,note_off,,,,,120,0,1,,,0,,,89,64
4680,note_on,,,,,0,0,1,,,0,,,93,50
4680,note_off,,,,,120,0,1,,,0,,,90,64
4800,note_on,,,,,0,0,1,,,0,,,88,57
4800,note_off,,,,,120,0,1,,,0,,,93,64
4800,note_off,,,,,480,0,2,,,0,,,54,64
4800,note_off,,,,,0,0,2,,,0,,,59,64
4800,note_on,,,,,0,0,2,,,0,,,54,49
4800,note_on,,,,,0,0,2,,,0,,,61,49
4800,note_on,,,,,0,0,2,,,0,,,64,49
4800,note_off,,,,,0,0,2,,,0,,,62,64
4920,note_on,,,,,0,0,1,,,0,,,94,63
4920,note_off,,,,,120,0,1,,,0,,,88,64
4980,note_off,,,,,0,0,2,,,0,,,64,64
4980,note_off,,,,,0,0,2,,,0,,,61,64
4980,note_off,,,,,180,0,2,,,0,,,54,64
5040,note_on,,,,,0,0,1,,,0,,,95,70
5040,note_off,,,,,120,0,1,,,0,,,94,64
5040,note_on,,,,,60,0,2,,,0,,,62,62
5040,note_on,,,,,0,0,2,,,0,,,59,62
5160,note_off,,,,,120,0,1,,,0,,,95,64
5160,note_on,,,,,0,0,1,,,0,,,90,62
5264,note_off,,,,,104,0,1,,,0,,,90,64
5280,note_on,,,,,16,0,1,,,0,,,86,50
5370,note_off,,,,,90,0,1,,,0,,,86,64
5400,note_on,,,,,30,0,1,,,0,,,83,41
5490,note_off,,,,,90,0,1,,,0,,,83,64
5520,note_off,,,,,0,0,2,,,0,,,62,64
5520,note_off,,,,,480,0,2,,,0,,,59,64
5520,note_on,,,,,30,0,1,,,0,,,74,25
5610,note_off,,,,,90,0,1,,,0,,,74,64
5720,set_tempo,,,,,2800,1,0,326087,,,,,,
5760,note_on,,,,,150,0,1,,,0,,,83,60
5780,note_on,,,,,20,0,1,,,0,,,86,61
5800,set_tempo,,,,,80,1,0,258621,,,,,,
5800,note_on,,,,,20,0,1,,,0,,,91,62
5880,note_off,,,,,80,0,1,,,0,,,83,64
5900,note_off,,,,,20,0,1,,,0,,,86,64
5920,note_off,,,,,20,0,1,,,0,,,91,64
6000,note_on,,,,,80,0,1,,,0,,,79,48
6000,note_on,,,,,0,0,1,,,0,,,74,48
6000,note_on,,,,,0,0,1,,,0,,,71,48
6120,note_off,,,,,120,0,1,,,0,,,71,64
6120,note_off,,,,,0,0,1,,,0,,,74,64
6120,note_off,,,,,0,0,1,,,0,,,79,64
6240,note_on,,,,,720,0,2,,,0,,,62,67
6240,note_on,,,,,0,0,2,,,0,,,59,67
6360,note_off,,,,,0,0,2,,,0,,,62,64
6360,note_off,,,,,120,0,2,,,0,,,59,64
6480,note_on,,,,,0,0,2,,,0,,,57,86
6480,note_on,,,,,0,0,2,,,0,,,60,86
6480,note_on,,,,,120,0,2,,,0,,,65,86
6720,note_on,,,,,0,0,1,,,0,,,72,37
6720,note_on,,,,,600,0,1,,,0,,,77,37
6720,note_on,,,,,0,0,1,,,0,,,69,37
6840,note_off,,,,,0,0,1,,,0,,,72,64
6840,note_off,,,,,120,0,1,,,0,,,69,64
6840,note_off,,,,,0,0,1,,,0,,,77,64
6960,note_on,,,,,120,0,1,,,0,,,81,46
6980,note_on,,,,,20,0,1,,,0,,,84,48
7000,note_on,,,,,20,0,1,,,0,,,89,50
7080,note_off,,,,,80,0,1,,,0,,,81,64
7100,note_off,,,,,20,0,1,,,0,,,84,64
7120,note_off,,,,,20,0,1,,,0,,,89,64
7170,note_on,,,,,50,0,1,,,0,,,89,47
7200,note_off,,,,,30,0,1,,,0,,,89,64
7200,note_off,,,,,720,0,2,,,0,,,57,64
7200,note_off,,,,,0,0,2,,,0,,,60,64
7200,note_off,,,,,0,0,2,,,0,,,65,64
7200,note_on,,,,,0,0,2,,,0,,,44,72
7200,note_on,,,,,0,0,1,,,0,,,88,52
7320,note_off,,,,,120,0,1,,,0,,,88,64
7320,note_on,,,,,0,0,1,,,0,,,87,31
7440,note_off,,,,,120,0,1,,,0,,,87,64
7440,note_on,,,,,0,0,1,,,0,,,88,42
7440,note_on,,,,,0,0,2,,,0,,,52,52
7440,note_off,,,,,240,0,2,,,0,,,44,64
7560,note_off,,,,,120,0,1,,,0,,,88,64
7560,note_on,,,,,0,0,1,,,0,,,87,50
7680,note_off,,,,,120,0,1,,,0,,,87,64
7680,note_on,,,,,0,0,1,,,0,,,88,57
7680,note_off,,,,,240,0,2,,,0,,,52,64
7680,note_on,,,,,0,0,2,,,0,,,59,47
7800,note_off,,,,,120,0,1,,,0,,,88,64
7800,note_on,,,,,0,0,1,,,0,,,90,63
7890,note_off,,,,,210,0,2,,,0,,,59,64
7890,note_off,,,,,90,0,1,,,0,,,90,64
7920,note_on,,,,,30,0,1,,,0,,,90,77
7920,note_on,,,,,30,0,2,,,0,,,45,63
8040,note_off,,,,,120,0,1,,,0,,,90,64
8040,note_on,,,,,0,0,1,,,0,,,88,62
8144,note_off,,,,,104,0,1,,,0,,,88,64
8160,note_off,,,,,240,0,2,,,0,,,45,64
8160,note_on,,,,,16,0,1,,,0,,,85,50
8160,note_on,,,,,0,0,2,,,0,,,52,52
8260,note_off,,,,,100,0,1,,,0,,,85,64
8280,note_on,,,,,20,0,1,,,0,,,81,41
8370,note_off,,,,,90,0,1,,,0,,,81,64
8400,note_on,,,,,0,0,2,,,0,,,61,42
8400,note_on,,,,,30,0,1,,,0,,,76,25
8400,note_off,,,,,240,0,2,,,0,,,52,64
8490,note_off,,,,,90,0,1,,,0,,,76,64
8580,note_off,,,,,180,0,2,,,0,,,61,64
8620,set_tempo,,,,,2820,1,0,288462,,,,,,
8640,set_tempo,,,,,20,1,0,320856,,,,,,
8640,note_on,,,,,60,0,2,,,0,,,47,63
8640,note_on,,,,,0,0,1,,,0,,,74,37
8640,note_on,,,,,150,0,1,,,0,,,76,37
8730,note_off,,,,,90,0,1,,,0,,,74,64
8730,note_off,,,,,0,0,1,,,0,,,76,64
8760,note_on,,,,,0,0,1,,,0,,,74,31
8760,note_on,,,,,30,0,1,,,0,,,76,31
8780,set_tempo,,,,,140,1,0,314136,,,,,,
8800,set_tempo,,,,,20,1,0,284360,,,,,,
8820,note_off,,,,,0,0,1,,,0,,,76,64
8820,note_off,,,,,60,0,1,,,0,,,74,64
8820,set_tempo,,,,,20,1,0,281690,,,,,,
8840,set_tempo,,,,,20,1,0,284360,,,,,,
8880,note_on,,,,,60,0,1,,,0,,,76,31
8880,note_on,,,,,0,0,2,,,0,,,56,52
8880,note_off,,,,,240,0,2,,,0,,,47,64
8880,note_on,,,,,0,0,1,,,0,,,74,31
8940,set_tempo,,,,,100,1,0,281690,,,,,,
8940,note_off,,,,,60,0,1,,,0,,,74,64
8940,note_off,,,,,0,0,1,,,0,,,76,64
8960,set_tempo,,,,,20,1,0,280374,,,,,,
9000,note_on,,,,,60,0,1,,,0,,,76,37
9000,note_on,,,,,0,0,1,,,0,,,74,37
9040,set_tempo,,,,,80,1,0,279070,,,,,,
9060,note_off,,,,,60,0,1,,,0,,,74,64
9060,note_off,,,,,0,0,1,,,0,,,76,64
9120,note_on,,,,,0,0,2,,,0,,,62,42
9120,note_on,,,,,60,0,1,,,0,,,76,40
9120,note_on,,,,,0,0,1,,,0,,,74,40
9120,set_tempo,,,,,80,1,0,276498,,,,,,
9120,note_off,,,,,240,0,2,,,0,,,56,64
9160,set_tempo,,,,,40,1,0,275229,,,,,,
9180,note_off,,,,,0,0,1,,,0,,,76,64
9180,note_off,,,,,60,0,1,,,0,,,74,64
9200,set_tempo,,,,,40,1,0,273973,,,,,,
9240,note_on,,,,,60,0,1,,,0,,,76,46
9240,note_on,,,,,0,0,1,,,0,,,74,46
9260,set_tempo,,,,,60,1,0,271493,,,,,,
9300,note_off,,,,,60,0,1,,,0,,,74,64
9300,note_off,,,,,0,0,1,,,0,,,76,64
9320,set_tempo,,,,,60,1,0,270270,,,,,,
9330,note_off,,,,,210,0,2,,,0,,,62,64
9340,set_tempo,,,,,20,1,0,269058,,,,,,
9360,note_on,,,,,60,0,1,,,0,,,78,48
9360,note_on,,,,,0,0,1,,,0,,,73,48
9360,note_on,,,,,30,0,2,,,0,,,49,63
9440,set_tempo,,,,,100,1,0,265487,,,,,,
9480,note_off,,,,,120,0,1,,,0,,,73,64
9480,note_on,,,,,0,0,1,,,0,,,76,46
9480,note_off,,,,,0,0,1,,,0,,,78,64
9520,set_tempo,,,,,80,1,0,264317,,,,,,
9540,set_tempo,,,,,20,1,0,265487,,,,,,
9560,set_tempo,,,,,20,1,0,267857,,,,,,
9584,note_off,,,,,104,0,1,,,0,,,76,64
9600,note_on,,,,,16,0,1,,,0,,,73,43
9600,note_off,,,,,240,0,2,,,0,,,49,64
9600,note_on,,,,,0,0,2,,,0,,,57,52
9600,set_tempo,,,,,40,1,0,270270,,,,,,
9620,set_tempo,,,,,20,1,0,271493,,,,,,
9640,set_tempo,,,,,20,1,0,276498,,,,,,
9680,set_tempo,,,,,40,1,0,279070,,,,,,
9690,note_off,,,,,90,0,1,,,0,,,73,64
9720,set_tempo,,,,,40,1,0,280374,,,,,,
9720,note_on,,,,,30,0,1,,,0,,,69,38
9760,set_tempo,,,,,40,1,0,281690,,,,,,
9800,set_tempo,,,,,40,1,0,284360,,,,,,
9810,note_off,,,,,90,0,1,,,0,,,69,64
9840,note_on,,,,,0,0,2,,,0,,,61,42
9840,note_off,,,,,240,0,2,,,0,,,57,64
9840,note_on,,,,,30,0,1,,,0,,,64,35
9840,set_tempo,,,,,40,1,0,285714,,,,,,
9920,set_tempo,,,,,80,1,0,287081,,,,,,
9930,note_off,,,,,90,0,1,,,0,,,64,64
10020,note_off,,,,,180,0,2,,,0,,,61,64
10040,set_tempo,,,,,120,1,0,284360,,,,,,
10060,set_tempo,,,,,20,1,0,281690,,,,,,
10080,note_on,,,,,150,0,1,,,0,,,64,45
10080,note_on,,,,,60,0,2,,,0,,,47,62
10180,set_tempo,,,,,120,1,0,280374,,,,,,
10200,note_on,,,,,0,0,1,,,0,,,66,37
10200,note_off,,,,,120,0,1,,,0,,,64,64
10220,set_tempo,,,,,40,1,0,276498,,,,,,
10260,set_tempo,,,,,40,1,0,275229,,,,,,
10280,set_tempo,,,,,20,1,0,273973,,,,,,
10300,set_tempo,,,,,20,1,0,271493,,,,,,
10320,note_off,,,,,120,0,1,,,0,,,66,64
10320,note_off,,,,,240,0,2,,,0,,,47,64
10320,note_on,,,,,0,0,2,,,0,,,50,46
10320,note_on,,,,,0,0,1,,,0,,,62,38
10340,set_tempo,,,,,40,1,0,270270,,,,,,
10380,set_tempo,,,,,40,1,0,267857,,,,,,
10420,set_tempo,,,,,40,1,0,265487,,,,,,
10440,note_off,,,,,120,0,1,,,0,,,62,64
10440,set_tempo,,,,,20,1,0,263158,,,,,,
10440,note_on,,,,,0,0,1,,,0,,,66,28
10500,note_off,,,,,180,0,2,,,0,,,50,64
10540,set_tempo,,,,,100,1,0,265487,,,,,,
10560,note_off,,,,,120,0,1,,,0,,,66,64
10560,note_on,,,,,0,0,1,,,0,,,68,35
10560,note_on,,,,,0,0,1,,,0,,,64,35
10560,note_on,,,,,0,0,1,,,0,,,61,35
10560,note_on,,,,,60,0,2,,,0,,,52,39
10620,set_tempo,,,,,80,1,0,267857,,,,,,
10680,set_tempo,,,,,60,1,0,269058,,,,,,
10680,note_off,,,,,120,0,1,,,0,,,61,64
10680,note_off,,,,,0,0,1,,,0,,,64,64
10680,note_on,,,,,0,0,1,,,0,,,62,26
10680,note_on,,,,,0,0,1,,,0,,,59,26
10720,set_tempo,,,,,40,1,0,270270,,,,,,
10740,note_off,,,,,60,0,1,,,0,,,68,64
10740,note_off,,,,,180,0,2,,,0,,,52,64
10780,set_tempo,,,,,60,1,0,271493,,,,,,
10800,note_on,,,,,0,0,1,,,0,,,69,37
10800,note_off,,,,,0,0,1,,,0,,,62,64
10800,note_off,,,,,60,0,1,,,0,,,59,64
10800,note_on,,,,,0,0,1,,,0,,,61,37
10820,set_tempo,,,,,40,1,0,273973,,,,,,
10860,set_tempo,,,,,40,1,0,276498,,,,,,
10920,set_tempo,,,,,60,1,0,280374,,,,,,
10920,note_on,,,,,180,0,2,,,0,,,57,55
10980,set_tempo,,,,,60,1,0,281690,,,,,,
11020,set_tempo,,,,,40,1,0,285714,,,,,,
11040,note_off,,,,,240,0,1,,,0,,,61,64
11040,note_off,,,,,0,0,1,,,0,,,69,64
11040,note_off,,,,,120,0,2,,,0,,,57,64
11040,note_on,,,,,0,0,2,,,0,,,52,48
11060,set_tempo,,,,,40,1,0,288462,,,,,,
11100,set_tempo,,,,,40,1,0,291262,,,,,,
11120,set_tempo,,,,,20,1,0,292683,,,,,,
11160,note_on,,,,,0,0,2,,,0,,,49,46
11160,set_tempo,,,,,40,1,0,297030,,,,,,
11160,note_off,,,,,120,0,2,,,0,,,52,64
11180,set_tempo,,,,,20,1,0,300000,,,,,,
11240,set_tempo,,,,,60,1,0,306122,,,,,,
11280,note_off,,,,,120,0,2,,,0,,,49,64
11280,note_on,,,,,0,0,2,,,0,,,45,32
11280,set_tempo,,,,,40,1,0,310881,,,,,,
11300,set_tempo,,,,,20,1,0,314136,,,,,,
11320,set_tempo,,,,,20,1,0,317460,,,,,,
11340,set_tempo,,,,,20,1,0,320856,,,,,,
11360,set_tempo,,,,,20,1,0,326087,,,,,,
11400,note_off,,,,,120,0,2,,,0,,,45,64
11400,set_tempo,,,,,40,1,0,335196,,,,,,
11420,set_tempo,,,,,20,1,0,340909,,,,,,
11460,set_tempo,,,,,40,1,0,355030,,,,,,
11480,set_tempo,,,,,20,1,0,431655,,,,,,
11520,note_on,,,,,480,0,1,,,0,,,81,46
11520,set_tempo,,,,,40,1,0,382166,,,,,,
11540,note_on,,,,,20,0,1,,,0,,,85,51
11540,set_tempo,,,,,20,1,0,306122,,,,,,
11560,note_on,,,,,20,0,1,,,0,,,88,53
11640,note_off,,,,,80,0,1,,,0,,,81,64
11660,note_off,,,,,20,0,1,,,0,,,85,64
11680,note_off,,,,,20,0,1,,,0,,,88,64
11700,set_tempo,,,,,160,1,0,258621,,,,,,
11760,note_on,,,,,0,0,1,,,0,,,73,41
11760,note_on,,,,,0,0,1,,,0,,,69,41
11760,note_on,,,,,80,0,1,,,0,,,76,41
11880,note_off,,,,,120,0,1,,,0,,,69,64
11880,note_off,,,,,0,0,1,,,0,,,73,64
11880,note_off,,,,,0,0,1,,,0,,,76,64
12000,note_on,,,,,0,0,2,,,0,,,61,49
12000,note_on,,,,,600,0,2,,,0,,,64,49
12000,note_on,,,,,0,0,2,,,0,,,57,49
12120,note_off,,,,,120,0,2,,,0,,,57,64
12120,note_off,,,,,0,0,2,,,0,,,61,64
12120,note_off,,,,,0,0,2,,,0,,,64,64
12240,note_on,,,,,0,0,2,,,0,,,59,67
12240,note_on,,,,,0,0,2,,,0,,,56,67
12240,note_on,,,,,120,0,2,,,0,,,64,67
12420,note_off,,,,,0,0,2,,,0,,,64,64
12420,note_off,,,,,0,0,2,,,0,,,59,64
12420,note_off,,,,,180,0,2,,,0,,,56,64
12480,note_on,,,,,600,0,1,,,0,,,71,38
12480,note_on,,,,,0,0,1,,,0,,,68,38
12600,note_off,,,,,120,0,1,,,0,,,68,64
12600,note_on,,,,,0,0,1,,,0,,,76,31
12600,note_off,,,,,0,0,1,,,0,,,71,64
12690,note_off,,,,,90,0,1,,,0,,,76,64
12720,note_on,,,,,0,0,2,,,0,,,61,46
12720,note_on,,,,,30,0,1,,,0,,,73,41
12720,note_on,,,,,0,0,1,,,0,,,69,41
12720,note_on,,,,,0,0,2,,,0,,,57,46
12720,note_on,,,,,300,0,2,,,0,,,64,46
12840,note_on,,,,,0,0,1,,,0,,,76,35
12840,note_off,,,,,0,0,1,,,0,,,73,64
12840,note_off,,,,,120,0,1,,,0,,,69,64
12840,note_off,,,,,120,0,2,,,0,,,57,64
12840,note_off,,,,,0,0,2,,,0,,,61,64
12840,note_off,,,,,0,0,2,,,0,,,64,64
12900,set_tempo,,,,,1200,1,0,310881,,,,,,
12930,note_off,,,,,90,0,1,,,0,,,76,64
12960,note_on,,,,,30,0,1,,,0,,,83,46
12980,note_on,,,,,20,0,1,,,0,,,86,51
12990,set_tempo,,,,,90,1,0,256410,,,,,,
13000,note_on,,,,,20,0,1,,,0,,,88,53
13080,note_off,,,,,80,0,1,,,0,,,83,64
13100,note_off,,,,,20,0,1,,,0,,,86,64
13120,note_off,,,,,20,0,1,,,0,,,88,64
13200,note_on,,,,,0,0,1,,,0,,,71,41
13200,note_on,,,,,80,0,1,,,0,,,76,41
13200,note_on,,,,,0,0,1,,,0,,,74,41
13320,note_off,,,,,0,0,1,,,0,,,74,64
13320,note_off,,,,,120,0,1,,,0,,,71,64
13320,note_off,,,,,0,0,1,,,0,,,76,64
13440,note_on,,,,,0,0,2,,,0,,,59,49
13440,note_on,,,,,0,0,2,,,0,,,62,49
13440,note_on,,,,,600,0,2,,,0,,,64,49
13560,note_off,,,,,0,0,2,,,0,,,64,64
13560,note_off,,,,,0,0,2,,,0,,,62,64
13560,note_off,,,,,120,0,2,,,0,,,59,64
13680,note_on,,,,,0,0,2,,,0,,,57,67
13680,note_on,,,,,120,0,2,,,0,,,64,67
13680,note_on,,,,,0,0,2,,,0,,,61,67
13860,note_off,,,,,180,0,2,,,0,,,57,64
13860,note_off,,,,,0,0,2,,,0,,,61,64
13860,note_off,,,,,0,0,2,,,0,,,64,64
13920,note_on,,,,,0,0,1,,,0,,,69,37
13920,note_on,,,,,600,0,1,,,0,,,73,37
14040,note_on,,,,,0,0,1,,,0,,,76,31
14040,note_off,,,,,0,0,1,,,0,,,73,64
14040,note_off,,,,,120,0,1,,,0,,,69,64
14130,note_off,,,,,90,0,1,,,0,,,76,64
14160,note_on,,,,,30,0,1,,,0,,,74,43
14160,note_on,,,,,0,0,2,,,0,,,62,46
14160,note_on,,,,,0,0,2,,,0,,,59,46
14160,note_on,,,,,0,0,1,,,0,,,71,43
14160,note_on,,,,,300,0,2,,,0,,,64,46
14280,note_off,,,,,0,0,2,,,0,,,64,64
14280,note_off,,,,,0,0,1,,,0,,,74,64
14280,note_off,,,,,120,0,2,,,0,,,59,64
14280,note_off,,,,,120,0,1,,,0,,,71,64
14280,note_off,,,,,0,0,2,,,0,,,62,64
14280,note_on,,,,,0,0,1,,,0,,,76,36
14330,set_tempo,,,,,1340,1,0,326087,,,,,,
14370,note_off,,,,,90,0,1,,,0,,,76,64
14400,note_on,,,,,30,0,1,,,0,,,85,60
14420,note_on,,,,,20,0,1,,,0,,,88,61
14440,note_on,,,,,20,0,1,,,0,,,93,62
14440,set_tempo,,,,,110,1,0,258621,,,,,,
14520,note_off,,,,,80,0,1,,,0,,,85,64
14540,note_off,,,,,20,0,1,,,0,,,88,64
14560,note_off,,,,,20,0,1,,,0,,,93,64
14640,note_on,,,,,0,0,1,,,0,,,73,48
14640,note_on,,,,,80,0,1,,,0,,,81,48
14640,note_on,,,,,0,0,1,,,0,,,76,48
14760,note_off,,,,,0,0,1,,,0,,,81,64
14760,note_off,,,,,120,0,1,,,0,,,73,64
14760,note_off,,,,,0,0,1,,,0,,,76,64
14880,note_on,,,,,0,0,2,,,0,,,61,67
14880,note_on,,,,,600,0,2,,,0,,,64,67
15000,note_off,,,,,0,0,2,,,0,,,64,64
15000,note_off,,,,,120,0,2,,,0,,,61,64
15120,note_on,,,,,120,0,2,,,0,,,67,86
15120,note_on,,,,,0,0,2,,,0,,,62,86
15120,note_on,,,,,0,0,2,,,0,,,59,86
15360,note_on,,,,,0,0,1,,,0,,,71,38
15360,note_on,,,,,0,0,1,,,0,,,74,38
15360,note_on,,,,,600,0,1,,,0,,,79,38
15480,note_off,,,,,0,0,1,,,0,,,79,64
15480,note_off,,,,,0,0,1,,,0,,,74,64
15480,note_off,,,,,120,0,1,,,0,,,71,64
15600,note_on,,,,,120,0,1,,,0,,,83,46
15620,note_on,,,,,20,0,1,,,0,,,86,48
15640,note_on,,,,,20,0,1,,,0,,,91,50
15720,note_off,,,,,80,0,1,,,0,,,83,64
15740,note_off,,,,,20,0,1,,,0,,,86,64
15760,note_off,,,,,20,0,1,,,0,,,91,64
15810,note_on,,,,,50,0,1,,,0,,,91,47
15840,note_off,,,,,30,0,1,,,0,,,91,64
15840,note_on,,,,,0,0,1,,,0,,,90,52
15840,note_on,,,,,0,0,2,,,0,,,59,67
15840,note_off,,,,,720,0,2,,,0,,,59,64
15840,note_off,,,,,0,0,2,,,0,,,62,64
15840,note_off,,,,,0,0,2,,,0,,,67,64
15840,note_on,,,,,0,0,2,,,0,,,62,67
15840,note_on,,,,,0,0,2,,,0,,,54,67
15960,note_on,,,,,0,0,1,,,0,,,89,31
15960,note_off,,,,,120,0,1,,,0,,,90,64
16080,note_on,,,,,0,0,1,,,0,,,90,42
16080,note_off,,,,,120,0,1,,,0,,,89,64
16200,note_off,,,,,120,0,1,,,0,,,90,64
16200,note_on,,,,,0,0,1,,,0,,,93,50
16320,note_on,,,,,0,0,1,,,0,,,88,57
16320,note_off,,,,,120,0,1,,,0,,,93,64
16320,note_off,,,,,480,0,2,,,0,,,54,64
16320,note_off,,,,,0,0,2,,,0,,,59,64
16320,note_on,,,,,0,0,2,,,0,,,54,49
16320,note_on,,,,,0,0,2,,,0,,,61,49
16320,note_on,,,,,0,0,2,,,0,,,64,49
16320,note_off,,,,,0,0,2,,,0,,,62,64
16440,note_on,,,,,0,0,1,,,0,,,94,63
16440,note_off,,,,,120,0,1,,,0,,,88,64
16500,note_off,,,,,0,0,2,,,0,,,61,64
16500,note_off,,,,,180,0,2,,,0,,,54,64
16500,note_off,,,,,0,0,2,,,0,,,64,64
16560,note_on,,,,,0,0,1,,,0,,,95,70
16560,note_off,,,,,120,0,1,,,0,,,94,64
16560,note_on,,,,,0,0,2,,,0,,,59,62
16560,note_on,,,,,60,0,2,,,0,,,62,62
16680,note_off,,,,,120,0,1,,,0,,,95,64
16680,note_on,,,,,0,0,1,,,0,,,90,62
16784,note_off,,,,,104,0,1,,,0,,,90,64
16800,note_on,,,,,16,0,1,,,0,,,86,50
16890,note_off,,,,,90,0,1,,,0,,,86,64
16920,note_on,,,,,30,0,1,,,0,,,83,41
17010,note_off,,,,,90,0,1,,,0,,,83,64
17040,note_off,,,,,480,0,2,,,0,,,59,64
17040,note_off,,,,,0,0,2,,,0,,,62,64
17040,note_on,,,,,30,0,1,,,0,,,74,25
17130,note_off,,,,,90,0,1,,,0,,,74,64
17240,set_tempo,,,,,2800,1,0,326087,,,,,,
17280,note_on,,,,,150,0,1,,,0,,,83,60
17300,note_on,,,,,20,0,1,,,0,,,86,61
17320,set_tempo,,,,,80,1,0,258621,,,,,,
17320,note_on,,,,,20,0,1,,,0,,,91,62
17400,note_off,,,,,80,0,1,,,0,,,83,64
17420,note_off,,,,,20,0,1,,,0,,,86,64
17440,note_off,,,,,20,0,1,,,0,,,91,64
17520,note_on,,,,,0,0,1,,,0,,,74,48
17520,note_on,,,,,0,0,1,,,0,,,71,48
17520,note_on,,,,,80,0,1,,,0,,,79,48
17640,note_off,,,,,0,0,1,,,0,,,79,64
17640,note_off,,,,,0,0,1,,,0,,,74,64
17640,note_off,,,,,120,0,1,,,0,,,71,64
17760,note_on,,,,,0,0,2,,,0,,,59,67
17760,note_on,,,,,720,0,2,,,0,,,62,67
17880,note_off,,,,,120,0,2,,,0,,,59,64
17880,note_off,,,,,0,0,2,,,0,,,62,64
18000,note_on,,,,,0,0,2,,,0,,,57,86
18000,note_on,,,,,0,0,2,,,0,,,60,86
18000,note_on,,,,,120,0,2,,,0,,,65,86
18240,note_on,,,,,0,0,1,,,0,,,72,37
18240,note_on,,,,,0,0,1,,,0,,,69,37
18240,note_on,,,,,600,0,1,,,0,,,77,37
18360,note_off,,,,,120,0,1,,,0,,,69,64
18360,note_off,,,,,0,0,1,,,0,,,72,64
18360,note_off,,,,,0,0,1,,,0,,,77,64
18480,note_on,,,,,120,0,1,,,0,,,81,46
18500,note_on,,,,,20,0,1,,,0,,,84,48
18520,note_on,,,,,20,0,1,,,0,,,89,50
18600,note_off,,,,,80,0,1,,,0,,,81,64
18620,note_off,,,,,20,0,1,,,0,,,84,64
18640,note_off,,,,,20,0,1,,,0,,,89,64
18690,note_on,,,,,50,0,1,,,0,,,89,47
18720,note_off,,,,,0,0,2,,,0,,,65,64
18720,note_on,,,,,0,0,2,,,0,,,44,72
18720,note_off,,,,,0,0,2,,,0,,,60,64
18720,note_off,,,,,720,0,2,,,0,,,57,64
18720,note_off,,,,,30,0,1,,,0,,,89,64
18720,note_on,,,,,0,0,1,,,0,,,88,52
18840,note_on,,,,,0,0,1,,,0,,,87,31
18840,note_off,,,,,120,0,1,,,0,,,88,64
18960,note_off,,,,,120,0,1,,,0,,,87,64
18960,note_on,,,,,0,0,1,,,0,,,88,42
18960,note_off,,,,,240,0,2,,,0,,,44,64
18960,note_on,,,,,0,0,2,,,0,,,52,52
19080,note_off,,,,,120,0,1,,,0,,,88,64
19080,note_on,,,,,0,0,1,,,0,,,87,50
19200,note_off,,,,,120,0,1,,,0,,,87,64
19200,note_on,,,,,0,0,1,,,0,,,88,57
19200,note_off,,,,,240,0,2,,,0,,,52,64
19200,note_on,,,,,0,0,2,,,0,,,59,41
19320,note_off,,,,,120,0,1,,,0,,,88,64
19320,note_on,,,,,0,0,1,,,0,,,90,63
19410,note_off,,,,,90,0,1,,,0,,,90,64
19410,note_off,,,,,210,0,2,,,0,,,59,64
19440,note_on,,,,,30,0,1,,,0,,,90,77
19440,note_on,,,,,30,0,2,,,0,,,45,63
19560,note_off,,,,,120,0,1,,,0,,,90,64
19560,note_on,,,,,0,0,1,,,0,,,88,62
19664,note_off,,,,,104,0,1,,,0,,,88,64
19680,note_off,,,,,240,0,2,,,0,,,45,64
19680,note_on,,,,,16,0,1,,,0,,,85,50
19680,note_on,,,,,0,0,2,,,0,,,52,52
19780,note_off,,,,,100,0,1,,,0,,,85,64
19800,note_on,,,,,20,0,1,,,0,,,81,41
19890,note_off,,,,,90,0,1,,,0,,,81,64
19920,note_off,,,,,240,0,2,,,0,,,52,64
19920,note_on,,,,,0,0,2,,,0,,,61,42
19920,note_on,,,,,30,0,1,,,0,,,76,25
20010,note_off,,,,,90,0,1,,,0,,,76,64
20100,note_off,,,,,180,0,2,,,0,,,61,64
20120,set_tempo,,,,,2800,1,0,287081,,,,,,
20160,note_on,,,,,60,0,2,,,0,,,47,63
20160,note_on,,,,,0,0,1,,,0,,,74,37
20160,note_on,,,,,150,0,1,,,0,,,76,37
20250,note_off,,,,,0,0,1,,,0,,,76,64
20250,note_off,,,,,90,0,1,,,0,,,74,64
20280,note_on,,,,,30,0,1,,,0,,,76,31
20280,note_on,,,,,0,0,1,,,0,,,74,31
20340,note_off,,,,,60,0,1,,,0,,,74,64
20340,note_off,,,,,0,0,1,,,0,,,76,64
20400,note_off,,,,,240,0,2,,,0,,,47,64
20400,note_on,,,,,0,0,2,,,0,,,56,52
20400,note_on,,,,,60,0,1,,,0,,,76,31
20400,note_on,,,,,0,0,1,,,0,,,74,31
20460,note_off,,,,,0,0,1,,,0,,,76,64
20460,note_off,,,,,60,0,1,,,0,,,74,64
20500,set_tempo,,,,,380,1,0,284360,,,,,,
20520,note_on,,,,,60,0,1,,,0,,,76,37
20520,note_on,,,,,0,0,1,,,0,,,74,37
20520,set_tempo,,,,,20,1,0,281690,,,,,,
20560,set_tempo,,,,,40,1,0,280374,,,,,,
20580,set_tempo,,,,,20,1,0,279070,,,,,,
20580,note_off,,,,,0,0,1,,,0,,,76,64
20580,note_off,,,,,60,0,1,,,0,,,74,64
20600,set_tempo,,,,,20,1,0,276498,,,,,,
20620,set_tempo,,,,,20,1,0,275229,,,,,,
20640,note_on,,,,,0,0,1,,,0,,,74,40
20640,note_on,,,,,0,0,2,,,0,,,62,42
20640,note_on,,,,,60,0,1,,,0,,,76,40
20640,note_off,,,,,240,0,2,,,0,,,56,64
20660,set_tempo,,,,,40,1,0,273973,,,,,,
20700,note_off,,,,,0,0,1,,,0,,,76,64
20700,note_off,,,,,60,0,1,,,0,,,74,64
20720,set_tempo,,,,,60,1,0,270270,,,,,,
20760,note_on,,,,,60,0,1,,,0,,,76,46
20760,note_on,,,,,0,0,1,,,0,,,74,46
20800,set_tempo,,,,,80,1,0,269058,,,,,,
20820,note_off,,,,,60,0,1,,,0,,,74,64
20820,note_off,,,,,0,0,1,,,0,,,76,64
20820,set_tempo,,,,,20,1,0,267857,,,,,,
20850,note_off,,,,,210,0,2,,,0,,,62,64
20860,set_tempo,,,,,40,1,0,265487,,,,,,
20880,note_on,,,,,30,0,2,,,0,,,49,63
20880,note_on,,,,,0,0,1,,,0,,,73,48
20880,note_on,,,,,60,0,1,,,0,,,78,48
20920,set_tempo,,,,,60,1,0,264317,,,,,,
20960,set_tempo,,,,,40,1,0,263158,,,,,,
21000,note_off,,,,,120,0,1,,,0,,,73,64
21000,note_off,,,,,0,0,1,,,0,,,78,64
21000,note_on,,,,,0,0,1,,,0,,,76,46
21104,note_off,,,,,104,0,1,,,0,,,76,64
21120,note_on,,,,,16,0,1,,,0,,,73,43
21120,note_on,,,,,0,0,2,,,0,,,57,52
21120,note_off,,,,,240,0,2,,,0,,,49,64
21210,note_off,,,,,90,0,1,,,0,,,73,64
21240,note_on,,,,,30,0,1,,,0,,,69,38
21330,note_off,,,,,90,0,1,,,0,,,69,64
21340,set_tempo,,,,,380,1,0,264317,,,,,,
21360,note_on,,,,,30,0,1,,,0,,,64,35
21360,note_on,,,,,0,0,2,,,0,,,61,42
21360,note_off,,,,,240,0,2,,,0,,,57,64
21380,set_tempo,,,,,40,1,0,265487,,,,,,
21400,set_tempo,,,,,20,1,0,267857,,,,,,
21450,note_off,,,,,90,0,1,,,0,,,64,64
21460,set_tempo,,,,,60,1,0,269058,,,,,,
21480,set_tempo,,,,,20,1,0,271493,,,,,,
21500,set_tempo,,,,,20,1,0,273973,,,,,,
21540,set_tempo,,,,,40,1,0,275229,,,,,,
21540,note_off,,,,,180,0,2,,,0,,,61,64
21560,set_tempo,,,,,20,1,0,279070,,,,,,
21580,set_tempo,,,,,20,1,0,280374,,,,,,
21600,note_on,,,,,60,0,2,,,0,,,47,62
21600,set_tempo,,,,,20,1,0,284360,,,,,,
21600,note_on,,,,,150,0,1,,,0,,,64,45
21620,set_tempo,,,,,20,1,0,287081,,,,,,
21640,set_tempo,,,,,20,1,0,292683,,,,,,
21660,set_tempo,,,,,20,1,0,297030,,,,,,
21680,set_tempo,,,,,20,1,0,298507,,,,,,
21700,set_tempo,,,,,20,1,0,303030,,,,,,
21720,note_off,,,,,120,0,1,,,0,,,64,64
21720,note_on,,,,,0,0,1,,,0,,,66,37
21840,note_off,,,,,120,0,1,,,0,,,66,64
21840,note_on,,,,,0,0,1,,,0,,,62,38
21840,note_on,,,,,0,0,2,,,0,,,50,46
21840,note_off,,,,,240,0,2,,,0,,,47,64
21960,note_off,,,,,120,0,1,,,0,,,62,64
21960,note_on,,,,,0,0,1,,,0,,,66,28
22000,set_tempo,,,,,300,1,0,304569,,,,,,
22020,note_off,,,,,180,0,2,,,0,,,50,64
22040,set_tempo,,,,,40,1,0,300000,,,,,,
22060,set_tempo,,,,,20,1,0,297030,,,,,,
22080,note_on,,,,,0,0,1,,,0,,,64,35
22080,note_off,,,,,120,0,1,,,0,,,66,64
22080,note_on,,,,,0,0,1,,,0,,,68,35
22080,note_on,,,,,60,0,2,,,0,,,52,39
22080,note_on,,,,,0,0,1,,,0,,,61,35
22140,set_tempo,,,,,80,1,0,300000,,,,,,
22200,note_off,,,,,120,0,1,,,0,,,61,64
22200,note_off,,,,,0,0,1,,,0,,,64,64
22200,note_on,,,,,0,0,1,,,0,,,62,26
22200,note_on,,,,,0,0,1,,,0,,,59,26
22240,set_tempo,,,,,100,1,0,304569,,,,,,
22260,note_off,,,,,180,0,2,,,0,,,52,64
22260,note_off,,,,,60,0,1,,,0,,,68,64
22300,set_tempo,,,,,60,1,0,306122,,,,,,
22320,note_off,,,,,0,0,1,,,0,,,62,64
22320,note_off,,,,,60,0,1,,,0,,,59,64
22320,note_on,,,,,0,0,1,,,0,,,61,37
22320,set_tempo,,,,,20,1,0,310881,,,,,,
22320,note_on,,,,,0,0,1,,,0,,,69,37
22400,set_tempo,,,,,80,1,0,314136,,,,,,
22440,note_on,,,,,180,0,2,,,0,,,57,55
22440,set_tempo,,,,,40,1,0,317460,,,,,,
22500,set_tempo,,,,,60,1,0,320856,,,,,,
22520,set_tempo,,,,,20,1,0,326087,,,,,,
22560,note_off,,,,,0,0,1,,,0,,,69,64
22560,set_tempo,,,,,40,1,0,337079,,,,,,
22560,note_off,,,,,240,0,1,,,0,,,61,64
22560,note_off,,,,,120,0,2,,,0,,,57,64
22560,note_on,,,,,0,0,2,,,0,,,52,48
22600,set_tempo,,,,,40,1,0,340909,,,,,,
22640,set_tempo,,,,,40,1,0,344828,,,,,,
22660,set_tempo,,,,,20,1,0,352941,,,,,,
22680,note_off,,,,,120,0,2,,,0,,,52,64
22680,note_on,,,,,0,0,2,,,0,,,49,46
22720,set_tempo,,,,,60,1,0,372671,,,,,,
22740,set_tempo,,,,,20,1,0,382166,,,,,,
22760,set_tempo,,,,,20,1,0,394737,,,,,,
22780,set_tempo,,,,,20,1,0,402685,,,,,,
22800,note_on,,,,,0,0,2,,,0,,,45,32
22800,note_off,,,,,120,0,2,,,0,,,49,64
22800,set_tempo,,,,,20,1,0,425532,,,,,,
22820,set_tempo,,,,,20,1,0,444444,,,,,,
22840,set_tempo,,,,,20,1,0,461538,,,,,,
22860,set_tempo,,,,,20,1,0,483871,,,,,,
22920,set_tempo,,,,,60,1,0,1153846,,,,,,
22920,note_off,,,,,120,0,2,,,0,,,45,64
23000,set_tempo,,,,,80,1,0,335196,,,,,,
23010,note_on,,,,,90,0,2,,,0,,,53,88
23010,note_on,,,,,0,0,2,,,0,,,41,88
23040,note_off,,,,,30,0,2,,,0,,,41,64
23040,note_on,,,,,0,0,2,,,0,,,52,88
23040,note_on,,,,,0,0,2,,,0,,,40,88
23040,note_off,,,,,0,0,2,,,0,,,53,64
23060,set_tempo,,,,,60,1,0,258621,,,,,,
23160,note_off,,,,,120,0,2,,,0,,,40,64
23160,note_off,,,,,0,0,2,,,0,,,52,64
23160,note_on,,,,,0,0,2,,,0,,,51,88
23160,note_on,,,,,0,0,2,,,0,,,39,88
23280,note_off,,,,,0,0,2,,,0,,,51,64
23280,note_on,,,,,0,0,2,,,0,,,52,88
23280,note_on,,,,,0,0,2,,,0,,,40,88
23280,note_off,,,,,120,0,2,,,0,,,39,64
23400,note_on,,,,,0,0,2,,,0,,,39,88
23400,note_off,,,,,120,0,2,,,0,,,40,64
23400,note_off,,,,,0,0,2,,,0,,,52,64
23400,note_on,,,,,0,0,2,,,0,,,51,88
23520,note_off,,,,,120,0,2,,,0,,,39,64
23520,note_off,,,,,0,0,2,,,0,,,51,64
23520,note_on,,,,,0,0,2,,,0,,,40,88
23520,note_on,,,,,0,0,2,,,0,,,52,88
23640,note_off,,,,,120,0,2,,,0,,,40,64
23640,note_on,,,,,0,0,2,,,0,,,41,88
23640,note_on,,,,,0,0,2,,,0,,,53,88
23640,note_off,,,,,0,0,2,,,0,,,52,64
23700,note_off,,,,,0,0,2,,,0,,,53,64
23700,note_off,,,,,60,0,2,,,0,,,41,64
23760,note_on,,,,,0,0,2,,,0,,,41,88
23760,note_on,,,,,60,0,2,,,0,,,53,88
23880,note_on,,,,,0,0,2,,,0,,,52,88
23880,note_off,,,,,0,0,2,,,0,,,53,64
23880,note_off,,,,,120,0,2,,,0,,,41,64
23880,note_on,,,,,0,0,2,,,0,,,40,88
24000,note_on,,,,,0,0,2,,,0,,,48,88
24000,note_off,,,,,120,0,2,,,0,,,40,64
24000,note_off,,,,,0,0,2,,,0,,,52,64
24000,note_on,,,,,0,0,2,,,0,,,36,88
24120,note_off,,,,,120,0,2,,,0,,,36,64
24120,note_off,,,,,0,0,2,,,0,,,48,64
24120,note_on,,,,,0,0,2,,,0,,,55,84
24120,note_on,,,,,0,0,2,,,0,,,43,84
24240,note_on,,,,,0,0,2,,,0,,,60,88
24240,note_on,,,,,0,0,2,,,0,,,52,88
24240,note_off,,,,,120,0,2,,,0,,,43,64
24240,note_on,,,,,0,0,2,,,0,,,64,88
24240,note_off,,,,,0,0,2,,,0,,,55,64
24380,set_tempo,,,,,1320,1,0,326087,,,,,,
24420,note_off,,,,,0,0,2,,,0,,,64,64
24420,note_off,,,,,0,0,2,,,0,,,60,64
24420,note_off,,,,,180,0,2,,,0,,,52,64
24480,set_tempo,,,,,100,1,0,258621,,,,,,
24480,note_on,,,,,60,0,2,,,0,,,64,61
24480,note_on,,,,,0,0,2,,,0,,,52,61
24600,note_off,,,,,120,0,2,,,0,,,52,64
24600,note_off,,,,,0,0,2,,,0,,,64,64
24600,note_on,,,,,0,0,2,,,0,,,62,61
24600,note_on,,,,,0,0,2,,,0,,,50,61
24720,note_on,,,,,0,0,2,,,0,,,47,61
24720,note_on,,,,,0,0,2,,,0,,,59,61
24720,note_off,,,,,0,0,2,,,0,,,62,64
24720,note_off,,,,,120,0,2,,,0,,,50,64
24840,note_on,,,,,0,0,2,,,0,,,43,58
24840,note_on,,,,,0,0,2,,,0,,,55,58
24840,note_off,,,,,0,0,2,,,0,,,59,64
24840,note_off,,,,,120,0,2,,,0,,,47,64
24960,note_on,,,,,0,0,2,,,0,,,50,61
24960,note_on,,,,,0,0,2,,,0,,,67,61
24960,note_on,,,,,0,0,2,,,0,,,43,61
24960,note_on,,,,,0,0,2,,,0,,,55,61
24960,note_off,,,,,0,0,2,,,0,,,55,64
24960,note_off,,,,,120,0,2,,,0,,,43,64
24960,note_on,,,,,0,0,2,,,0,,,59,61
25140,note_off,,,,,180,0,2,,,0,,,43,64
25140,note_off,,,,,0,0,2,,,0,,,50,64
25140,note_off,,,,,0,0,2,,,0,,,55,64
25140,note_off,,,,,0,0,2,,,0,,,67,64
25140,note_off,,,,,0,0,2,,,0,,,59,64
25200,note_on,,,,,60,0,2,,,0,,,60,61
25200,note_on,,,,,2640,0,1,,,0,,,65,72
25200,note_on,,,,,0,0,2,,,0,,,48,61
25200,note_on,,,,,0,0,2,,,0,,,55,61
25206,control_change,,,,,6,0,1,,,0,64,96,,
25320,note_off,,,,,114,0,1,,,0,,,65,64
25320,note_on,,,,,0,0,1,,,0,,,64,64
25410,note_off,,,,,0,0,2,,,0,,,60,64
25410,note_off,,,,,210,0,2,,,0,,,48,64
25410,note_off,,,,,0,0,2,,,0,,,55,64
25420,note_off,,,,,100,0,1,,,0,,,64,64
25432,control_change,,,,,12,0,1,,,0,64,0,,
25440,control_change,,,,,0,0,1,,,0,64,96,,
25440,note_on,,,,,8,0,1,,,0,,,67,74
25440,note_on,,,,,0,0,2,,,0,,,55,61
25440,note_on,,,,,0,0,2,,,0,,,50,61
25440,note_on,,,,,30,0,2,,,0,,,59,61
25560,note_off,,,,,120,0,1,,,0,,,67,64
25560,note_on,,,,,0,0,1,,,0,,,65,64
25650,note_off,,,,,0,0,2,,,0,,,55,64
25650,note_off,,,,,210,0,2,,,0,,,50,64
25650,note_off,,,,,0,0,2,,,0,,,59,64
25660,note_off,,,,,100,0,1,,,0,,,65,64
25672,control_change,,,,,12,0,1,,,0,64,0,,
25680,note_on,,,,,8,0,1,,,0,,,69,78
25680,note_on,,,,,0,0,2,,,0,,,52,61
25680,note_on,,,,,0,0,2,,,0,,,55,61
25680,note_on,,,,,30,0,2,,,0,,,60,61
25680,control_change,,,,,0,0,1,,,0,64,96,,
25800,note_off,,,,,120,0,1,,,0,,,69,64
25800,note_on,,,,,0,0,1,,,0,,,67,65
25890,note_off,,,,,210,0,2,,,0,,,52,64
25890,note_off,,,,,0,0,2,,,0,,,55,64
25890,note_off,,,,,0,0,2,,,0,,,60,64
25900,note_off,,,,,100,0,1,,,0,,,67,64
25912,control_change,,,,,12,0,1,,,0,64,0,,
25920,note_on,,,,,0,0,1,,,0,,,59,79
25920,control_change,,,,,0,0,1,,,0,64,96,,
25920,note_on,,,,,8,0,1,,,0,,,62,79
26040,note_on,,,,,150,0,2,,,0,,,55,61
26160,note_off,,,,,120,0,2,,,0,,,55,64
26160,note_on,,,,,0,0,2,,,0,,,50,58
26280,note_on,,,,,0,0,2,,,0,,,47,53
26280,note_off,,,,,120,0,2,,,0,,,50,64
26400,note_off,,,,,120,0,2,,,0,,,47,64
26400,note_on,,,,,0,0,2,,,0,,,43,46
26520,note_off,,,,,120,0,2,,,0,,,43,64
26520,note_off,,,,,0,0,1,,,0,,,62,64
26520,note_off,,,,,600,0,1,,,0,,,59,64
26560,set_tempo,,,,,2080,1,0,382166,,,,,,
26580,control_change,,,,,60,0,1,,,0,64,0,,
26610,note_on,,,,,30,0,1,,,0,,,67,71
26640,note_off,,,,,30,0,1,,,0,,,67,64
26640,set_tempo,,,,,80,1,0,267857,,,,,,
26640,note_on,,,,,0,0,2,,,0,,,43,61
26640,note_on,,,,,120,0,2,,,0,,,59,57
26640,note_on,,,,,0,0,1,,,0,,,65,72
26646,control_change,,,,,6,0,1,,,0,64,96,,
26660,set_tempo,,,,,20,1,0,256410,,,,,,
26760,note_off,,,,,114,0,1,,,0,,,65,64
26760,note_on,,,,,0,0,1,,,0,,,64,44
26880,note_on,,,,,0,0,1,,,0,,,65,49
26880,note_off,,,,,120,0,1,,,0,,,64,64
26880,note_on,,,,,240,0,2,,,0,,,50,54
27000,note_on,,,,,0,0,1,,,0,,,64,53
27000,note_off,,,,,120,0,1,,,0,,,65,64
27120,note_off,,,,,240,0,2,,,0,,,50,64
27120,note_on,,,,,0,0,1,,,0,,,65,58
27120,note_off,,,,,120,0,1,,,0,,,64,64
27120,note_on,,,,,0,0,2,,,0,,,55,49
27240,note_on,,,,,0,0,1,,,0,,,69,61
27240,note_off,,,,,120,0,1,,,0,,,65,64
27300,note_off,,,,,60,0,1,,,0,,,69,64
27300,note_off,,,,,180,0,2,,,0,,,55,64
27300,control_change,,,,,0,0,1,,,0,64,0,,
27360,note_off,,,,,60,0,2,,,0,,,43,64
27360,note_on,,,,,60,0,1,,,0,,,69,67
27360,note_on,,,,,0,0,2,,,0,,,64,56
27360,note_on,,,,,0,0,2,,,0,,,43,58
27360,note_on,,,,,0,0,2,,,0,,,60,56
27360,control_change,,,,,0,0,1,,,0,64,96,,
27360,note_off,,,,,0,0,2,,,0,,,59,64
27480,note_on,,,,,0,0,1,,,0,,,67,62
27480,note_off,,,,,120,0,1,,,0,,,69,64
27600,note_off,,,,,0,0,2,,,0,,,64,64
27600,note_off,,,,,240,0,2,,,0,,,60,64
27600,note_on,,,,,0,0,1,,,0,,,64,56
27600,note_off,,,,,120,0,1,,,0,,,67,64
27600,note_on,,,,,0,0,2,,,0,,,52,51
27720,note_on,,,,,0,0,1,,,0,,,60,46
27720,note_off,,,,,120,0,1,,,0,,,64,64
27840,note_off,,,,,120,0,1,,,0,,,60,64
27840,note_off,,,,,240,0,2,,,0,,,52,64
27840,note_on,,,,,0,0,1,,,0,,,64,56
27840,note_on,,,,,0,0,2,,,0,,,55,38
27960,note_off,,,,,120,0,1,,,0,,,64,64
27960,note_on,,,,,0,0,1,,,0,,,76,47
28020,note_off,,,,,60,0,1,,,0,,,76,64
28020,control_change,,,,,0,0,1,,,0,64,0,,
28020,note_off,,,,,180,0,2,,,0,,,55,64
28080,note_on,,,,,0,0,2,,,0,,,43,61
28080,control_change,,,,,0,0,1,,,0,64,96,,
28080,note_on,,,,,0,0,2,,,0,,,65,61
28080,note_on,,,,,0,0,2,,,0,,,71,61
28080,note_on,,,,,60,0,1,,,0,,,76,74
28080,note_off,,,,,60,0,2,,,0,,,43,64
28200,note_on,,,,,0,0,1,,,0,,,74,63
28200,note_off,,,,,120,0,1,,,0,,,76,64
28320,note_off,,,,,120,0,1,,,0,,,74,64
28320,note_on,,,,,0,0,2,,,0,,,50,53
28320,note_on,,,,,0,0,2,,,0,,,62,43
28320,note_on,,,,,0,0,2,,,0,,,65,43
28320,note_off,,,,,0,0,2,,,0,,,71,64
28320,note_off,,,,,240,0,2,,,0,,,65,64
28320,note_on,,,,,0,0,1,,,0,,,72,54
28440,note_on,,,,,0,0,1,,,0,,,71,48
28440,note_off,,,,,120,0,1,,,0,,,72,64
28560,note_on,,,,,0,0,1,,,0,,,69,62
28560,note_off,,,,,120,0,1,,,0,,,71,64
28560,note_off,,,,,240,0,2,,,0,,,50,64
28560,note_off,,,,,0,0,2,,,0,,,62,64
28560,note_off,,,,,0,0,2,,,0,,,65,64
28560,note_on,,,,,0,0,2,,,0,,,65,43
28560,note_on,,,,,0,0,2,,,0,,,59,43
28560,note_on,,,,,0,0,2,,,0,,,55,49
28680,note_off,,,,,120,0,1,,,0,,,69,64
28680,note_on,,,,,0,0,1,,,0,,,67,46
28740,note_off,,,,,180,0,2,,,0,,,55,64
28740,note_off,,,,,0,0,2,,,0,,,65,64
28740,control_change,,,,,60,0,1,,,0,64,0,,
28740,note_off,,,,,0,0,2,,,0,,,59,64
28800,note_off,,,,,60,0,2,,,0,,,43,64
28800,note_on,,,,,0,0,2,,,0,,,64,51
28800,note_on,,,,,0,0,2,,,0,,,60,51
28800,note_on,,,,,0,0,2,,,0,,,43,54
28800,note_on,,,,,0,0,1,,,0,,,69,63
28800,control_change,,,,,0,0,1,,,0,64,96,,
28800,note_off,,,,,60,0,1,,,0,,,67,64
28920,note_off,,,,,120,0,1,,,0,,,69,64
28920,note_on,,,,,0,0,1,,,0,,,67,53
29020,note_off,,,,,100,0,1,,,0,,,67,64
29040,note_off,,,,,0,0,2,,,0,,,64,64
29040,note_on,,,,,0,0,2,,,0,,,52,45
29040,note_on,,,,,20,0,1,,,0,,,64,44
29040,note_off,,,,,240,0,2,,,0,,,60,64
29130,note_off,,,,,90,0,1,,,0,,,64,64
29160,note_on,,,,,30,0,1,,,0,,,60,41
29250,note_off,,,,,90,0,1,,,0,,,60,64
29280,note_on,,,,,30,0,1,,,0,,,55,37
29280,note_off,,,,,240,0,2,,,0,,,52,64
29280,note_on,,,,,0,0,2,,,0,,,55,35
29370,note_off,,,,,90,0,1,,,0,,,55,64
29400,control_change,,,,,30,0,1,,,0,64,0,,
29460,note_off,,,,,180,0,2,,,0,,,55,64
29480,set_tempo,,,,,2820,1,0,384615,,,,,,
29490,note_on,,,,,90,0,1,,,0,,,79,56
29520,note_on,,,,,0,0,1,,,0,,,77,72
29520,note_off,,,,,30,0,1,,,0,,,79,64
29520,note_off,,,,,60,0,2,,,0,,,43,64
29520,note_on,,,,,0,0,2,,,0,,,71,57
29520,note_on,,,,,0,0,2,,,0,,,43,61
29520,set_tempo,,,,,40,1,0,256410,,,,,,
29526,control_change,,,,,6,0,1,,,0,64,96,,
29560,set_tempo,,,,,40,1,0,255319,,,,,,
29580,set_tempo,,,,,20,1,0,250000,,,,,,
29640,note_off,,,,,114,0,1,,,0,,,77,64
29640,note_on,,,,,0,0,1,,,0,,,76,44
29760,note_off,,,,,120,0,1,,,0,,,76,64
29760,note_on,,,,,0,0,1,,,0,,,77,49
29760,note_on,,,,,240,0,2,,,0,,,50,54
29820,set_tempo,,,,,240,1,0,248963,,,,,,
29880,note_on,,,,,0,0,1,,,0,,,76,53
29880,note_off,,,,,120,0,1,,,0,,,77,64
30000,note_on,,,,,0,0,1,,,0,,,77,58
30000,note_off,,,,,240,0,2,,,0,,,50,64
30000,note_on,,,,,0,0,2,,,0,,,55,49
30000,note_off,,,,,120,0,1,,,0,,,76,64
30120,note_off,,,,,120,0,1,,,0,,,77,64
30120,note_on,,,,,0,0,1,,,0,,,81,61
30180,note_off,,,,,60,0,1,,,0,,,81,64
30180,note_off,,,,,180,0,2,,,0,,,55,64
30180,control_change,,,,,0,0,1,,,0,64,0,,
30240,note_on,,,,,60,0,1,,,0,,,81,67
30240,control_change,,,,,0,0,1,,,0,64,96,,
30240,note_off,,,,,60,0,2,,,0,,,43,64
30240,note_off,,,,,0,0,2,,,0,,,71,64
30240,note_on,,,,,0,0,2,,,0,,,76,56
30240,note_on,,,,,0,0,2,,,0,,,72,56
30240,note_on,,,,,0,0,2,,,0,,,43,58
30360,note_off,,,,,120,0,1,,,0,,,81,64
30360,note_on,,,,,0,0,1,,,0,,,79,62
30360,set_tempo,,,,,540,1,0,245902,,,,,,
30460,set_tempo,,,,,100,1,0,244898,,,,,,
30480,note_off,,,,,120,0,1,,,0,,,79,64
30480,note_off,,,,,240,0,2,,,0,,,72,64
30480,note_on,,,,,0,0,2,,,0,,,52,51
30480,note_on,,,,,0,0,1,,,0,,,76,56
30480,note_off,,,,,0,0,2,,,0,,,76,64
30600,note_on,,,,,0,0,1,,,0,,,72,46
30600,note_off,,,,,120,0,1,,,0,,,76,64
30700,set_tempo,,,,,240,1,0,242915,,,,,,
30720,note_off,,,,,240,0,2,,,0,,,52,64
30720,note_on,,,,,0,0,2,,,0,,,55,38
30720,note_on,,,,,0,0,1,,,0,,,76,56
30720,note_off,,,,,120,0,1,,,0,,,72,64
30840,set_tempo,,,,,140,1,0,241935,,,,,,
30840,note_on,,,,,0,0,1,,,0,,,88,47
30840,note_off,,,,,120,0,1,,,0,,,76,64
30900,note_off,,,,,180,0,2,,,0,,,55,64
30900,note_off,,,,,60,0,1,,,0,,,88,64
30900,control_change,,,,,0,0,1,,,0,64,0,,
30960,note_off,,,,,60,0,2,,,0,,,43,64
30960,control_change,,,,,0,0,1,,,0,64,96,,
30960,note_on,,,,,0,0,2,,,0,,,43,61
30960,note_on,,,,,60,0,1,,,0,,,88,74
30960,note_on,,,,,0,0,2,,,0,,,83,88
30960,note_on,,,,,0,0,2,,,0,,,77,61
31000,set_tempo,,,,,160,1,0,240000,,,,,,
31080,note_off,,,,,120,0,1,,,0,,,88,64
31080,note_on,,,,,0,0,1,,,0,,,86,63
31200,note_off,,,,,120,0,1,,,0,,,86,64
31200,note_on,,,,,0,0,1,,,0,,,84,54
31200,note_on,,,,,0,0,2,,,0,,,50,53
31200,note_off,,,,,240,0,2,,,0,,,77,64
31200,note_off,,,,,0,0,2,,,0,,,83,64
31200,note_on,,,,,0,0,2,,,0,,,77,43
31200,note_on,,,,,0,0,2,,,0,,,74,43
31320,note_off,,,,,120,0,1,,,0,,,84,64
31320,note_on,,,,,0,0,1,,,0,,,83,48
31440,note_on,,,,,0,0,2,,,0,,,55,49
31440,note_on,,,,,0,0,1,,,0,,,81,62
31440,note_off,,,,,240,0,2,,,0,,,50,64
31440,note_off,,,,,0,0,2,,,0,,,74,64
31440,note_off,,,,,0,0,2,,,0,,,77,64
31440,note_on,,,,,0,0,2,,,0,,,77,43
31440,note_on,,,,,0,0,2,,,0,,,71,43
31440,note_off,,,,,120,0,1,,,0,,,83,64
31560,note_off,,,,,120,0,1,,,0,,,81,64
31560,note_on,,,,,0,0,1,,,0,,,79,46
31620,note_off,,,,,0,0,2,,,0,,,77,64
31620,control_change,,,,,60,0,1,,,0,64,0,,
31620,note_off,,,,,0,0,2,,,0,,,71,64
31620,note_off,,,,,180,0,2,,,0,,,55,64
31680,note_on,,,,,0,0,2,,,0,,,72,51
31680,control_change,,,,,0,0,1,,,0,64,96,,
31680,note_on,,,,,0,0,2,,,0,,,76,51
31680,note_off,,,,,60,0,1,,,0,,,79,64
31680,note_on,,,,,0,0,1,,,0,,,81,63
31680,note_on,,,,,0,0,2,,,0,,,43,54
31680,note_off,,,,,60,0,2,,,0,,,43,64
31700,set_tempo,,,,,700,1,0,237154,,,,,,
31800,note_off,,,,,120,0,1,,,0,,,81,64
31800,note_on,,,,,0,0,1,,,0,,,79,53
31900,note_off,,,,,100,0,1,,,0,,,79,64
31920,note_on,,,,,0,0,2,,,0,,,52,41
31920,note_off,,,,,0,0,2,,,0,,,76,64
31920,note_off,,,,,240,0,2,,,0,,,72,64
31920,note_on,,,,,20,0,1,,,0,,,76,44
32010,note_off,,,,,90,0,1,,,0,,,76,64
32040,note_on,,,,,30,0,1,,,0,,,72,41
32130,note_off,,,,,90,0,1,,,0,,,72,64
32160,note_off,,,,,240,0,2,,,0,,,52,64
32160,note_on,,,,,0,0,2,,,0,,,55,47
32160,note_on,,,,,30,0,1,,,0,,,76,48
32260,set_tempo,,,,,560,1,0,236220,,,,,,
32280,note_off,,,,,120,0,1,,,0,,,76,64
32280,note_on,,,,,0,0,1,,,0,,,88,56
32340,note_off,,,,,60,0,1,,,0,,,88,64
32340,note_off,,,,,180,0,2,,,0,,,55,64
32400,note_on,,,,,60,0,1,,,0,,,88,74
32400,control_change,,,,,0,0,1,,,0,64,96,,
32400,note_on,,,,,0,0,2,,,0,,,43,61
32400,note_on,,,,,0,0,2,,,0,,,77,61
32400,note_on,,,,,0,0,2,,,0,,,83,88
32400,note_off,,,,,60,0,2,,,0,,,43,64
32480,set_tempo,,,,,220,1,0,237154,,,,,,
32520,set_tempo,,,,,40,1,0,240000,,,,,,
32520,note_off,,,,,120,0,1,,,0,,,88,64
32520,note_on,,,,,0,0,1,,,0,,,86,63
32600,set_tempo,,,,,80,1,0,241935,,,,,,
32640,note_off,,,,,120,0,1,,,0,,,86,64
32640,note_on,,,,,0,0,1,,,0,,,84,54
32640,set_tempo,,,,,40,1,0,242915,,,,,,
32640,note_off,,,,,240,0,2,,,0,,,77,64
32640,note_off,,,,,0,0,2,,,0,,,83,64
32640,note_on,,,,,0,0,2,,,0,,,77,44
32640,note_on,,,,,0,0,2,,,0,,,74,44
32640,note_on,,,,,0,0,2,,,0,,,50,44
32680,set_tempo,,,,,40,1,0,244898,,,,,,
32760,note_on,,,,,0,0,1,,,0,,,83,57
32760,note_off,,,,,120,0,1,,,0,,,84,64
32760,set_tempo,,,,,80,1,0,248963,,,,,,
32800,set_tempo,,,,,40,1,0,250000,,,,,,
32820,set_tempo,,,,,20,1,0,251046,,,,,,
32840,set_tempo,,,,,20,1,0,255319,,,,,,
32880,note_off,,,,,0,0,2,,,0,,,77,64
32880,note_off,,,,,0,0,2,,,0,,,74,64
32880,note_on,,,,,0,0,2,,,0,,,77,51
32880,note_on,,,,,0,0,2,,,0,,,71,51
32880,note_on,,,,,0,0,2,,,0,,,55,51
32880,set_tempo,,,,,40,1,0,256410,,,,,,
32880,note_off,,,,,240,0,2,,,0,,,50,64
32880,note_on,,,,,0,0,1,,,0,,,81,65
32880,note_off,,,,,120,0,1,,,0,,,83,64
32900,set_tempo,,,,,20,1,0,258621,,,,,,
32940,set_tempo,,,,,40,1,0,259740,,,,,,
32980,set_tempo,,,,,40,1,0,260870,,,,,,
33000,note_on,,,,,0,0,1,,,0,,,79,61
33000,note_off,,,,,120,0,1,,,0,,,81,64
33000,set_tempo,,,,,20,1,0,263158,,,,,,
33060,note_off,,,,,0,0,2,,,0,,,71,64
33060,note_off,,,,,180,0,2,,,0,,,55,64
33060,control_change,,,,,60,0,1,,,0,64,0,,
33060,set_tempo,,,,,60,1,0,265487,,,,,,
33060,note_off,,,,,0,0,2,,,0,,,77,64
33100,set_tempo,,,,,40,1,0,267857,,,,,,
33120,note_on,,,,,0,0,2,,,0,,,76,53
33120,control_change,,,,,0,0,1,,,0,64,96,,
33120,note_on,,,,,0,0,2,,,0,,,43,60
33120,note_off,,,,,60,0,1,,,0,,,79,64
33120,note_on,,,,,0,0,1,,,0,,,81,74
33120,note_on,,,,,0,0,2,,,0,,,72,53
33120,note_off,,,,,60,0,2,,,0,,,43,64
33162,set_tempo,,,,,62,1,0,270270,,,,,,
33182,set_tempo,,,,,20,1,0,271493,,,,,,
33202,set_tempo,,,,,20,1,0,273973,,,,,,
33240,note_off,,,,,120,0,1,,,0,,,81,64
33240,note_on,,,,,0,0,1,,,0,,,79,65
33242,set_tempo,,,,,40,1,0,276498,,,,,,
33282,set_tempo,,,,,40,1,0,280374,,,,,,
33322,set_tempo,,,,,40,1,0,281690,,,,,,
33340,note_off,,,,,100,0,1,,,0,,,79,64
33360,note_off,,,,,240,0,2,,,0,,,72,64
33360,note_on,,,,,0,0,2,,,0,,,52,41
33360,note_on,,,,,20,0,1,,,0,,,76,52
33360,note_off,,,,,0,0,2,,,0,,,76,64
33362,set_tempo,,,,,40,1,0,285714,,,,,,
33450,note_off,,,,,90,0,1,,,0,,,76,64
33480,note_on,,,,,30,0,1,,,0,,,72,42
33482,set_tempo,,,,,120,1,0,291262,,,,,,
33522,set_tempo,,,,,40,1,0,292683,,,,,,
33562,set_tempo,,,,,40,1,0,300000,,,,,,
33570,note_off,,,,,90,0,1,,,0,,,72,64
33600,note_on,,,,,30,0,1,,,0,,,67,31
33600,note_off,,,,,240,0,2,,,0,,,52,64
33600,note_on,,,,,0,0,2,,,0,,,55,25
33622,set_tempo,,,,,60,1,0,304569,,,,,,
33642,set_tempo,,,,,20,1,0,306122,,,,,,
33690,note_off,,,,,90,0,1,,,0,,,67,64
33720,control_change,,,,,30,0,1,,,0,64,0,,
33722,set_tempo,,,,,80,1,0,310881,,,,,,
33742,set_tempo,,,,,20,1,0,314136,,,,,,
33780,note_off,,,,,180,0,2,,,0,,,55,64
33782,set_tempo,,,,,40,1,0,317460,,,,,,
33822,set_tempo,,,,,40,1,0,320856,,,,,,
33840,control_change,,,,,0,0,1,,,0,64,96,,
33840,note_on,,,,,120,0,1,,,0,,,81,51
33840,note_off,,,,,60,0,2,,,0,,,43,64
33840,note_on,,,,,0,0,2,,,0,,,43,53
33840,note_on,,,,,0,0,2,,,0,,,72,46
33840,note_on,,,,,0,0,2,,,0,,,76,46
33842,set_tempo,,,,,20,1,0,326087,,,,,,
33882,set_tempo,,,,,40,1,0,327869,,,,,,
33922,set_tempo,,,,,40,1,0,333333,,,,,,
33942,set_tempo,,,,,20,1,0,335196,,,,,,
33960,note_on,,,,,0,0,1,,,0,,,79,47
33960,note_off,,,,,120,0,1,,,0,,,81,64
33962,set_tempo,,,,,20,1,0,337079,,,,,,
34002,set_tempo,,,,,40,1,0,340909,,,,,,
34022,set_tempo,,,,,20,1,0,344828,,,,,,
34042,set_tempo,,,,,20,1,0,348837,,,,,,
34060,note_off,,,,,100,0,1,,,0,,,79,64
34062,set_tempo,,,,,20,1,0,352941,,,,,,
34080,note_on,,,,,20,0,1,,,0,,,76,39
34080,note_off,,,,,240,0,2,,,0,,,72,64
34080,note_on,,,,,0,0,2,,,0,,,52,31
34080,note_off,,,,,0,0,2,,,0,,,76,64
34122,set_tempo,,,,,60,1,0,355030,,,,,,
34142,set_tempo,,,,,20,1,0,359281,,,,,,
34170,note_off,,,,,90,0,1,,,0,,,76,64
34182,set_tempo,,,,,40,1,0,361446,,,,,,
34200,note_on,,,,,30,0,1,,,0,,,72,32
34202,set_tempo,,,,,20,1,0,363636,,,,,,
34222,set_tempo,,,,,20,1,0,370370,,,,,,
34262,set_tempo,,,,,40,1,0,377358,,,,,,
34290,note_off,,,,,90,0,1,,,0,,,72,64
34302,set_tempo,,,,,40,1,0,379747,,,,,,
34320,note_off,,,,,240,0,2,,,0,,,52,64
34320,note_on,,,,,30,0,1,,,0,,,67,26
34320,note_on,,,,,0,0,2,,,0,,,55,23
34342,set_tempo,,,,,40,1,0,382166,,,,,,
34362,set_tempo,,,,,20,1,0,384615,,,,,,
34410,note_off,,,,,90,0,1,,,0,,,67,64
34440,control_change,,,,,30,0,1,,,0,64,0,,
34482,set_tempo,,,,,120,1,0,389610,,,,,,
34500,note_off,,,,,180,0,2,,,0,,,55,64
34522,set_tempo,,,,,40,1,0,394737,,,,,,
34560,note_on,,,,,0,0,2,,,0,,,76,28
34560,note_on,,,,,0,0,2,,,0,,,43,35
34560,note_on,,,,,0,0,2,,,0,,,72,28
34560,note_off,,,,,60,0,2,,,0,,,43,64
34560,control_change,,,,,0,0,1,,,0,64,96,,
34560,note_on,,,,,120,0,1,,,0,,,81,39
34562,set_tempo,,,,,40,1,0,402685,,,,,,
34642,set_tempo,,,,,80,1,0,405405,,,,,,
34680,note_off,,,,,120,0,1,,,0,,,81,64
34680,note_on,,,,,0,0,1,,,0,,,79,32
34682,set_tempo,,,,,40,1,0,410959,,,,,,
34702,set_tempo,,,,,20,1,0,416667,,,,,,
34780,note_off,,,,,100,0,1,,,0,,,79,64
34800,note_off,,,,,240,0,2,,,0,,,72,64
34800,note_on,,,,,20,0,1,,,0,,,76,25
34800,note_off,,,,,0,0,2,,,0,,,76,64
34800,note_on,,,,,0,0,2,,,0,,,52,21
34890,note_off,,,,,90,0,1,,,0,,,76,64
34920,note_on,,,,,30,0,1,,,0,,,72,22
34922,set_tempo,,,,,220,1,0,419580,,,,,,
35010,note_off,,,,,90,0,1,,,0,,,72,64
35040,note_off,,,,,240,0,2,,,0,,,52,64
35040,note_on,,,,,0,0,2,,,0,,,55,14
35040,note_on,,,,,30,0,1,,,0,,,67,18
35042,set_tempo,,,,,120,1,0,431655,,,,,,
35130,note_off,,,,,90,0,1,,,0,,,67,64
35160,control_change,,,,,30,0,1,,,0,64,0,,
35200,set_tempo,,,,,158,1,0,1500000,,,,,,
35220,note_off,,,,,180,0,2,,,0,,,55,64
35260,set_tempo,,,,,60,1,0,454545,,,,,,
35280,note_on,,,,,0,0,1,,,0,,,93,88
35280,note_on,,,,,0,0,2,,,0,,,44,88
35280,note_on,,,,,0,0,2,,,0,,,49,88
35280,note_on,,,,,0,0,2,,,0,,,52,88
35280,note_on,,,,,0,0,2,,,0,,,56,88
35280,control_change,,,,,0,0,2,,,0,7,112,,
35280,note_off,,,,,60,0,2,,,0,,,43,64
35280,set_tempo,,,,,20,1,0,372671,,,,,,
35280,control_change,,,,,120,0,1,,,0,7,112,,
35280,control_change,,,,,0,0,1,,,0,64,95,,
35326,control_change,,,,,46,0,1,,,0,7,111,,
35326,control_change,,,,,46,0,2,,,0,7,111,,
35340,note_off,,,,,14,0,1,,,0,,,93,64
35340,note_on,,,,,0,0,1,,,0,,,92,86
35360,set_tempo,,,,,80,1,0,271493,,,,,,
35374,control_change,,,,,48,0,2,,,0,7,110,,
35374,control_change,,,,,34,0,1,,,0,7,110,,
35380,set_tempo,,,,,20,1,0,270270,,,,,,
35400,note_on,,,,,0,0,1,,,0,,,90,83
35400,note_off,,,,,26,0,1,,,0,,,92,64
35400,set_tempo,,,,,20,1,0,269058,,,,,,
35420,set_tempo,,,,,20,1,0,267857,,,,,,
35422,control_change,,,,,22,0,1,,,0,7,109,,
35422,control_change,,,,,48,0,2,,,0,7,109,,
35460,note_on,,,,,0,0,1,,,0,,,88,81
35460,note_off,,,,,38,0,1,,,0,,,90,64
35460,note_off,,,,,0,0,2,,,0,,,56,64
35460,note_off,,,,,0,0,2,,,0,,,49,64
35460,note_off,,,,,0,0,2,,,0,,,52,64
35460,note_off,,,,,38,0,2,,,0,,,44,64
35470,control_change,,,,,10,0,2,,,0,7,108,,
35470,control_change,,,,,10,0,1,,,0,7,108,,
35480,set_tempo,,,,,60,1,0,265487,,,,,,
35518,control_change,,,,,48,0,2,,,0,7,107,,
35518,control_change,,,,,48,0,1,,,0,7,107,,
35520,note_on,,,,,0,0,2,,,0,,,44,88
35520,note_on,,,,,0,0,2,,,0,,,49,88
35520,note_on,,,,,0,0,2,,,0,,,52,88
35520,note_on,,,,,2,0,2,,,0,,,56,88
35520,note_on,,,,,0,0,1,,,0,,,87,77
35520,note_off,,,,,2,0,1,,,0,,,88,64
35560,set_tempo,,,,,80,1,0,263158,,,,,,
35566,control_change,,,,,46,0,2,,,0,7,106,,
35566,control_change,,,,,46,0,1,,,0,7,106,,
35580,note_off,,,,,14,0,1,,,0,,,87,64
35580,note_on,,,,,0,0,1,,,0,,,85,77
35614,control_change,,,,,48,0,2,,,0,7,105,,
35614,control_change,,,,,34,0,1,,,0,7,105,,
35620,set_tempo,,,,,60,1,0,260870,,,,,,
35640,note_off,,,,,26,0,1,,,0,,,85,64
35640,note_on,,,,,0,0,1,,,0,,,83,72
35640,set_tempo,,,,,20,1,0,259740,,,,,,
35662,control_change,,,,,48,0,2,,,0,7,104,,
35662,control_change,,,,,22,0,1,,,0,7,104,,
35680,set_tempo,,,,,40,1,0,258621,,,,,,
35700,note_on,,,,,0,0,1,,,0,,,81,71
35700,note_off,,,,,38,0,1,,,0,,,83,64
35710,control_change,,,,,10,0,1,,,0,7,103,,
35710,control_change,,,,,48,0,2,,,0,7,103,,
35720,set_tempo,,,,,40,1,0,256410,,,,,,
35758,control_change,,,,,48,0,2,,,0,7,102,,
35758,control_change,,,,,48,0,1,,,0,7,102,,
35760,note_off,,,,,2,0,1,,,0,,,81,64
35760,note_on,,,,,0,0,1,,,0,,,80,66
35804,control_change,,,,,44,0,1,,,0,7,101,,
35804,control_change,,,,,46,0,2,,,0,7,101,,
35820,note_on,,,,,0,0,1,,,0,,,78,65
35820,note_off,,,,,16,0,1,,,0,,,80,64
35852,control_change,,,,,32,0,1,,,0,7,100,,
35852,control_change,,,,,48,0,2,,,0,7,100,,
35880,note_on,,,,,0,0,1,,,0,,,76,64
35880,note_off,,,,,28,0,1,,,0,,,78,64
35900,control_change,,,,,48,0,2,,,0,7,99,,
35900,control_change,,,,,20,0,1,,,0,7,99,,
35940,note_off,,,,,40,0,1,,,0,,,76,64
35940,note_on,,,,,0,0,1,,,0,,,75,62
35948,control_change,,,,,48,0,2,,,0,7,98,,
35948,control_change,,,,,8,0,1,,,0,7,98,,
35996,control_change,,,,,48,0,1,,,0,7,97,,
35996,control_change,,,,,48,0,2,,,0,7,97,,
36000,note_off,,,,,4,0,1,,,0,,,75,64
36000,note_on,,,,,0,0,1,,,0,,,73,61
36044,control_change,,,,,44,0,1,,,0,7,96,,
36044,control_change,,,,,48,0,2,,,0,7,96,,
36060,note_off,,,,,16,0,1,,,0,,,73,64
36060,note_on,,,,,0,0,1,,,0,,,71,60
36092,control_change,,,,,48,0,2,,,0,7,95,,
36092,control_change,,,,,32,0,1,,,0,7,95,,
36120,note_off,,,,,28,0,1,,,0,,,71,64
36120,note_on,,,,,0,0,1,,,0,,,69,60
36140,control_change,,,,,20,0,1,,,0,7,94,,
36140,control_change,,,,,48,0,2,,,0,7,94,,
36180,note_on,,,,,0,0,1,,,0,,,68,56
36180,note_off,,,,,40,0,1,,,0,,,69,64
36188,control_change,,,,,48,0,2,,,0,7,93,,
36188,control_change,,,,,8,0,1,,,0,7,93,,
36236,control_change,,,,,48,0,2,,,0,7,92,,
36236,control_change,,,,,48,0,1,,,0,7,92,,
36240,note_on,,,,,0,0,1,,,0,,,66,55
36240,set_tempo,,,,,520,1,0,232558,,,,,,
36240,note_off,,,,,4,0,1,,,0,,,68,64
36284,control_change,,,,,44,0,1,,,0,7,91,,
36284,control_change,,,,,48,0,2,,,0,7,91,,
36320,note_off,,,,,36,0,1,,,0,,,66,64
36320,note_on,,,,,0,0,1,,,0,,,64,53
36320,set_tempo,,,,,80,1,0,233463,,,,,,
36330,control_change,,,,,10,0,1,,,0,7,90,,
36330,control_change,,,,,46,0,2,,,0,7,90,,
36340,set_tempo,,,,,20,1,0,236220,,,,,,
36378,control_change,,,,,48,0,1,,,0,7,89,,
36378,control_change,,,,,48,0,2,,,0,7,89,,
36400,note_on,,,,,0,0,1,,,0,,,63,51
36400,note_off,,,,,22,0,1,,,0,,,64,64
36400,set_tempo,,,,,60,1,0,237154,,,,,,
36426,control_change,,,,,26,0,1,,,0,7,88,,
36426,control_change,,,,,48,0,2,,,0,7,88,,
36440,set_tempo,,,,,40,1,0,240000,,,,,,
36474,control_change,,,,,48,0,2,,,0,7,87,,
36474,control_change,,,,,48,0,1,,,0,7,87,,
36480,set_tempo,,,,,40,1,0,241935,,,,,,
36480,note_on,,,,,0,0,1,,,0,,,61,49
36480,note_off,,,,,6,0,1,,,0,,,63,64
36520,set_tempo,,,,,40,1,0,242915,,,,,,
36522,control_change,,,,,42,0,1,,,0,7,86,,
36522,control_change,,,,,48,0,2,,,0,7,86,,
36560,set_tempo,,,,,40,1,0,244898,,,,,,
36560,note_on,,,,,0,0,1,,,0,,,59,45
36560,note_off,,,,,38,0,1,,,0,,,61,64
36570,control_change,,,,,10,0,1,,,0,7,85,,
36570,control_change,,,,,48,0,2,,,0,7,85,,
36580,set_tempo,,,,,20,1,0,245902,,,,,,
36618,control_change,,,,,48,0,2,,,0,7,84,,
36618,control_change,,,,,48,0,1,,,0,7,84,,
36620,set_tempo,,,,,40,1,0,248963,,,,,,
36640,note_on,,,,,0,0,1,,,0,,,57,42
36640,note_off,,,,,22,0,1,,,0,,,59,64
36660,set_tempo,,,,,40,1,0,250000,,,,,,
36666,control_change,,,,,48,0,2,,,0,7,83,,
36666,control_change,,,,,26,0,1,,,0,7,83,,
36680,set_tempo,,,,,20,1,0,251046,,,,,,
36714,control_change,,,,,48,0,1,,,0,7,82,,
36714,control_change,,,,,48,0,2,,,0,7,82,,
36720,note_on,,,,,0,0,2,,,0,,,32,73
36720,note_on,,,,,0,0,2,,,0,,,44,73
36720,note_off,,,,,0,0,2,,,0,,,56,64
36720,note_off,,,,,0,0,2,,,0,,,52,64
36720,note_off,,,,,0,0,2,,,0,,,49,64
36720,note_off,,,,,6,0,2,,,0,,,44,64
36720,control_change,,,,,0,0,1,,,0,64,0,,
36720,note_on,,,,,0,0,1,,,0,,,56,57
36720,set_tempo,,,,,40,1,0,253165,,,,,,
36720,note_off,,,,,6,0,1,,,0,,,57,64
36740,set_tempo,,,,,20,1,0,382166,,,,,,
36762,control_change,,,,,42,0,2,,,0,7,81,,
36762,control_change,,,,,42,0,1,,,0,7,81,,
36810,control_change,,,,,0,0,1,,,0,7,80,,
36810,note_off,,,,,48,0,2,,,0,,,32,64
36810,note_off,,,,,0,0,2,,,0,,,44,64
36810,note_off,,,,,48,0,1,,,0,,,56,64
36810,control_change,,,,,0,0,2,,,0,7,80,,
36900,set_tempo,,,,,160,1,0,379747,,,,,,
36960,note_on,,,,,150,0,1,,,0,,,68,88
36960,control_change,,,,,0,0,1,,,0,64,97,,
36960,note_on,,,,,0,0,1,,,0,,,63,88
36960,note_on,,,,,0,0,1,,,0,,,60,88
36960,note_on,,,,,0,0,2,,,0,,,44,88
36960,note_on,,,,,150,0,2,,,0,,,56,88
37080,note_off,,,,,0,0,2,,,0,,,56,64
37080,note_off,,,,,120,0,2,,,0,,,44,64
37080,note_off,,,,,0,0,1,,,0,,,68,64
37080,note_off,,,,,0,0,1,,,0,,,63,64
37080,note_off,,,,,120,0,1,,,0,,,60,64
37180,set_tempo,,,,,280,1,0,1132075,,,,,,
37200,control_change,,,,,120,0,1,,,0,64,0,,
37340,set_tempo,,,,,160,1,0,288462,,,,,,
37360,set_tempo,,,,,20,1,0,333333,,,,,,
37380,note_on,,,,,180,0,1,,,0,,,75,28
37400,set_tempo,,,,,40,1,0,329670,,,,,,
37420,set_tempo,,,,,20,1,0,327869,,,,,,
37440,note_off,,,,,60,0,1,,,0,,,75,64
37440,note_on,,,,,0,0,1,,,0,,,73,42
37460,set_tempo,,,,,40,1,0,326087,,,,,,
37480,set_tempo,,,,,20,1,0,324324,,,,,,
37560,note_on,,,,,0,0,1,,,0,,,72,37
37560,set_tempo,,,,,80,1,0,320856,,,,,,
37560,note_off,,,,,120,0,1,,,0,,,73,64
37600,set_tempo,,,,,40,1,0,319149,,,,,,
37640,set_tempo,,,,,40,1,0,314136,,,,,,
37680,note_on,,,,,0,0,2,,,0,,,61,44
37680,note_on,,,,,0,0,1,,,0,,,73,35
37680,note_on,,,,,0,0,2,,,0,,,64,44
37680,note_on,,,,,600,0,2,,,0,,,68,44
37680,note_off,,,,,120,0,1,,,0,,,72,64
37760,set_tempo,,,,,120,1,0,312500,,,,,,
37800,note_on,,,,,0,0,1,,,0,,,76,30
37800,note_off,,,,,120,0,1,,,0,,,73,64
37820,set_tempo,,,,,60,1,0,310881,,,,,,
37860,set_tempo,,,,,40,1,0,307692,,,,,,
37900,set_tempo,,,,,40,1,0,306122,,,,,,
37920,note_off,,,,,240,0,2,,,0,,,61,64
37920,note_off,,,,,0,0,2,,,0,,,64,64
37920,note_off,,,,,0,0,2,,,0,,,68,64
37920,set_tempo,,,,,20,1,0,304569,,,,,,
37920,note_on,,,,,0,0,1,,,0,,,73,22
37920,note_off,,,,,120,0,1,,,0,,,76,64
37940,set_tempo,,,,,20,1,0,303030,,,,,,
38000,set_tempo,,,,,60,1,0,300000,,,,,,
38020,set_tempo,,,,,20,1,0,298507,,,,,,
38040,note_off,,,,,120,0,1,,,0,,,73,64
38060,set_tempo,,,,,40,1,0,348837,,,,,,
38120,set_tempo,,,,,60,1,0,350877,,,,,,
38160,note_on,,,,,120,0,1,,,0,,,78,39
38240,set_tempo,,,,,120,1,0,352941,,,,,,
38400,set_tempo,,,,,160,1,0,314136,,,,,,
38400,note_on,,,,,480,0,2,,,0,,,66,41
38400,note_on,,,,,0,0,2,,,0,,,61,41
38400,note_on,,,,,0,0,2,,,0,,,57,41
38700,note_off,,,,,0,0,2,,,0,,,66,64
38700,note_off,,,,,0,0,2,,,0,,,61,64
38700,note_off,,,,,300,0,2,,,0,,,57,64
38790,note_off,,,,,630,0,1,,,0,,,78,64
38820,note_on,,,,,30,0,1,,,0,,,75,34
38860,set_tempo,,,,,460,1,0,312500,,,,,,
38880,note_off,,,,,60,0,1,,,0,,,75,64
38880,note_on,,,,,0,0,1,,,0,,,73,40
38880,set_tempo,,,,,20,1,0,307692,,,,,,
38940,set_tempo,,,,,60,1,0,304569,,,,,,
38960,set_tempo,,,,,20,1,0,303030,,,,,,
39000,note_on,,,,,0,0,1,,,0,,,72,33
39000,note_off,,,,,120,0,1,,,0,,,73,64
39020,set_tempo,,,,,60,1,0,300000,,,,,,
39040,set_tempo,,,,,20,1,0,298507,,,,,,
39060,set_tempo,,,,,20,1,0,297030,,,,,,
39100,set_tempo,,,,,40,1,0,294118,,,,,,
39120,note_off,,,,,120,0,1,,,0,,,72,64
39120,note_on,,,,,0,0,2,,,0,,,61,49
39120,note_on,,,,,0,0,2,,,0,,,56,49
39120,note_on,,,,,0,0,1,,,0,,,73,36
39120,note_on,,,,,420,0,2,,,0,,,64,49
39160,set_tempo,,,,,60,1,0,292683,,,,,,
39220,set_tempo,,,,,60,1,0,291262,,,,,,
39240,note_off,,,,,120,0,1,,,0,,,73,64
39240,note_on,,,,,0,0,1,,,0,,,76,39
39320,set_tempo,,,,,100,1,0,288462,,,,,,
39340,set_tempo,,,,,20,1,0,287081,,,,,,
39360,note_off,,,,,240,0,2,,,0,,,56,64
39360,note_off,,,,,0,0,2,,,0,,,64,64
39360,note_on,,,,,0,0,1,,,0,,,73,42
39360,note_off,,,,,120,0,1,,,0,,,76,64
39360,note_off,,,,,0,0,2,,,0,,,61,64
39400,set_tempo,,,,,60,1,0,285714,,,,,,
39440,set_tempo,,,,,40,1,0,284360,,,,,,
39480,note_off,,,,,120,0,1,,,0,,,73,64
39500,set_tempo,,,,,60,1,0,342857,,,,,,
39600,note_on,,,,,120,0,1,,,0,,,81,48
39700,set_tempo,,,,,200,1,0,344828,,,,,,
39840,note_on,,,,,0,0,2,,,0,,,54,48
39840,note_on,,,,,0,0,2,,,0,,,57,48
39840,note_on,,,,,480,0,2,,,0,,,62,48
40000,set_tempo,,,,,300,1,0,342857,,,,,,
40060,set_tempo,,,,,60,1,0,303030,,,,,,
40140,note_off,,,,,0,0,2,,,0,,,57,64
40140,note_off,,,,,0,0,2,,,0,,,62,64
40140,note_off,,,,,300,0,2,,,0,,,54,64
40260,note_off,,,,,660,0,1,,,0,,,81,64
40320,set_tempo,,,,,260,1,0,333333,,,,,,
40320,note_on,,,,,60,0,1,,,0,,,81,28
40440,note_on,,,,,0,0,1,,,0,,,80,25
40440,note_off,,,,,120,0,1,,,0,,,81,64
40460,set_tempo,,,,,140,1,0,291262,,,,,,
40544,note_off,,,,,104,0,1,,,0,,,80,64
40560,note_on,,,,,16,0,1,,,0,,,78,26
40560,note_on,,,,,0,0,2,,,0,,,56,39
40560,note_on,,,,,0,0,2,,,0,,,61,39
40560,note_on,,,,,420,0,2,,,0,,,64,39
40680,note_off,,,,,120,0,1,,,0,,,78,64
40680,note_on,,,,,0,0,1,,,0,,,76,18
40784,note_off,,,,,104,0,1,,,0,,,76,64
40800,note_off,,,,,240,0,2,,,0,,,56,64
40800,note_off,,,,,0,0,2,,,0,,,61,64
40800,note_off,,,,,0,0,2,,,0,,,64,64
40800,note_on,,,,,16,0,1,,,0,,,75,25
40920,note_on,,,,,0,0,1,,,0,,,73,17
40920,note_off,,,,,120,0,1,,,0,,,75,64
41024,note_off,,,,,104,0,1,,,0,,,73,64
41040,note_on,,,,,240,0,2,,,0,,,64,48
41040,note_on,,,,,0,0,2,,,0,,,56,48
41040,note_on,,,,,16,0,1,,,0,,,73,29
41080,set_tempo,,,,,620,1,0,292683,,,,,,
41100,set_tempo,,,,,20,1,0,294118,,,,,,
41120,set_tempo,,,,,20,1,0,306122,,,,,,
41160,set_tempo,,,,,40,1,0,307692,,,,,,
41200,set_tempo,,,,,40,1,0,320856,,,,,,
41240,set_tempo,,,,,40,1,0,324324,,,,,,
41260,set_tempo,,,,,20,1,0,327869,,,,,,
41280,note_on,,,,,240,0,1,,,0,,,76,23
41280,note_off,,,,,240,0,2,,,0,,,64,64
41280,note_on,,,,,0,0,2,,,0,,,68,44
41300,set_tempo,,,,,40,1,0,333333,,,,,,
41320,set_tempo,,,,,20,1,0,340909,,,,,,
41340,set_tempo,,,,,20,1,0,342857,,,,,,
41360,set_tempo,,,,,20,1,0,344828,,,,,,
41380,set_tempo,,,,,20,1,0,350877,,,,,,
41400,set_tempo,,,,,20,1,0,355030,,,,,,
41420,set_tempo,,,,,20,1,0,363636,,,,,,
41440,set_tempo,,,,,20,1,0,368098,,,,,,
41460,note_off,,,,,180,0,2,,,0,,,68,64
41460,note_off,,,,,180,0,1,,,0,,,76,64
41460,set_tempo,,,,,20,1,0,377358,,,,,,
41480,set_tempo,,,,,20,1,0,394737,,,,,,
41500,set_tempo,,,,,20,1,0,410959,,,,,,
41520,note_off,,,,,60,0,2,,,0,,,56,64
41520,note_on,,,,,0,0,2,,,0,,,68,27
41520,note_on,,,,,0,0,1,,,0,,,75,21
41520,note_off,,,,,60,0,1,,,0,,,73,64
41520,set_tempo,,,,,20,1,0,413793,,,,,,
41520,note_on,,,,,0,0,1,,,0,,,72,21
41520,note_on,,,,,0,0,2,,,0,,,56,27
41540,set_tempo,,,,,20,1,0,431655,,,,,,
41560,set_tempo,,,,,20,1,0,472441,,,,,,
41580,set_tempo,,,,,20,1,0,487805,,,,,,
41600,set_tempo,,,,,20,1,0,909091,,,,,,
41670,note_off,,,,,150,0,1,,,0,,,72,64
41670,note_off,,,,,0,0,1,,,0,,,75,64
41700,note_on,,,,,30,0,1,,,0,,,63,34
41700,note_off,,,,,0,0,2,,,0,,,68,64
41700,note_off,,,,,180,0,2,,,0,,,56,64
41700,set_tempo,,,,,100,1,0,326087,,,,,,
41760,note_off,,,,,60,0,1,,,0,,,63,64
41760,note_on,,,,,0,0,1,,,0,,,61,42
41800,set_tempo,,,,,100,1,0,324324,,,,,,
41880,note_off,,,,,120,0,1,,,0,,,61,64
41880,note_on,,,,,0,0,1,,,0,,,60,37
41880,set_tempo,,,,,80,1,0,320856,,,,,,
41920,set_tempo,,,,,40,1,0,319149,,,,,,
41960,set_tempo,,,,,40,1,0,314136,,,,,,
42000,note_on,,,,,0,0,1,,,0,,,61,35
42000,note_off,,,,,120,0,1,,,0,,,60,64
42000,note_on,,,,,300,0,2,,,0,,,56,44
42000,note_on,,,,,0,0,2,,,0,,,52,44
42000,note_on,,,,,0,0,2,,,0,,,49,44
42080,set_tempo,,,,,120,1,0,312500,,,,,,
42120,note_on,,,,,0,0,1,,,0,,,64,30
42120,note_off,,,,,120,0,1,,,0,,,61,64
42140,set_tempo,,,,,60,1,0,310881,,,,,,
42180,set_tempo,,,,,40,1,0,307692,,,,,,
42220,set_tempo,,,,,40,1,0,306122,,,,,,
42240,set_tempo,,,,,20,1,0,304569,,,,,,
42240,note_off,,,,,240,0,2,,,0,,,49,64
42240,note_off,,,,,0,0,2,,,0,,,52,64
42240,note_on,,,,,0,0,2,,,0,,,52,35
42240,note_on,,,,,0,0,2,,,0,,,56,35
42240,note_on,,,,,0,0,2,,,0,,,49,35
42240,note_off,,,,,120,0,1,,,0,,,64,64
42240,note_on,,,,,0,0,1,,,0,,,61,22
42240,note_off,,,,,0,0,2,,,0,,,56,64
42260,set_tempo,,,,,20,1,0,303030,,,,,,
42320,set_tempo,,,,,60,1,0,300000,,,,,,
42340,set_tempo,,,,,20,1,0,298507,,,,,,
42360,note_off,,,,,120,0,1,,,0,,,61,64
42380,set_tempo,,,,,40,1,0,297030,,,,,,
42400,set_tempo,,,,,20,1,0,350877,,,,,,
42480,note_off,,,,,240,0,2,,,0,,,49,64
42480,note_off,,,,,0,0,2,,,0,,,52,64
42480,note_off,,,,,0,0,2,,,0,,,56,64
42480,note_on,,,,,120,0,1,,,0,,,66,39
42560,set_tempo,,,,,160,1,0,352941,,,,,,
42720,set_tempo,,,,,160,1,0,314136,,,,,,
42720,note_on,,,,,0,0,2,,,0,,,45,40
42720,note_on,,,,,0,0,2,,,0,,,49,40
42720,note_on,,,,,240,0,2,,,0,,,54,40
42960,note_on,,,,,0,0,2,,,0,,,45,31
42960,note_on,,,,,0,0,2,,,0,,,54,31
42960,note_off,,,,,0,0,2,,,0,,,54,64
42960,note_off,,,,,0,0,2,,,0,,,49,64
42960,note_off,,,,,240,0,2,,,0,,,45,64
42960,note_on,,,,,0,0,2,,,0,,,49,31
43110,note_off,,,,,630,0,1,,,0,,,66,64
43140,note_on,,,,,30,0,1,,,0,,,63,34
43180,set_tempo,,,,,460,1,0,312500,,,,,,
43200,set_tempo,,,,,20,1,0,307692,,,,,,
43200,note_off,,,,,0,0,2,,,0,,,54,64
43200,note_off,,,,,0,0,2,,,0,,,49,64
43200,note_off,,,,,240,0,2,,,0,,,45,64
43200,note_off,,,,,60,0,1,,,0,,,63,64
43200,note_on,,,,,0,0,1,,,0,,,61,40
43260,set_tempo,,,,,60,1,0,304569,,,,,,
43280,set_tempo,,,,,20,1,0,303030,,,,,,
43320,note_off,,,,,120,0,1,,,0,,,61,64
43320,note_on,,,,,0,0,1,,,0,,,60,37
43340,set_tempo,,,,,60,1,0,300000,,,,,,
43360,set_tempo,,,,,20,1,0,298507,,,,,,
43380,set_tempo,,,,,20,1,0,297030,,,,,,
43420,set_tempo,,,,,40,1,0,294118,,,,,,
43440,note_on,,,,,240,0,2,,,0,,,52,44
43440,note_on,,,,,0,0,1,,,0,,,61,29
43440,note_on,,,,,0,0,2,,,0,,,44,44
43440,note_on,,,,,0,0,2,,,0,,,49,44
43440,set_tempo,,,,,20,1,0,292683,,,,,,
43440,note_off,,,,,120,0,1,,,0,,,60,64
43480,set_tempo,,,,,40,1,0,297030,,,,,,
43500,set_tempo,,,,,20,1,0,298507,,,,,,
43540,set_tempo,,,,,40,1,0,303030,,,,,,
43560,note_on,,,,,0,0,1,,,0,,,64,35
43560,set_tempo,,,,,20,1,0,306122,,,,,,
43560,note_off,,,,,120,0,1,,,0,,,61,64
43580,set_tempo,,,,,20,1,0,307692,,,,,,
43620,set_tempo,,,,,40,1,0,312500,,,,,,
43640,set_tempo,,,,,20,1,0,317460,,,,,,
43660,set_tempo,,,,,20,1,0,319149,,,,,,
43680,note_off,,,,,0,0,2,,,0,,,49,64
43680,note_off,,,,,0,0,2,,,0,,,52,64
43680,note_on,,,,,0,0,2,,,0,,,52,44
43680,note_on,,,,,0,0,1,,,0,,,61,39
43680,note_off,,,,,120,0,1,,,0,,,64,64
43680,note_on,,,,,0,0,2,,,0,,,44,44
43680,note_on,,,,,0,0,2,,,0,,,49,44
43680,note_off,,,,,240,0,2,,,0,,,44,64
43700,set_tempo,,,,,40,1,0,324324,,,,,,
43720,set_tempo,,,,,20,1,0,326087,,,,,,
43740,set_tempo,,,,,20,1,0,327869,,,,,,
43780,set_tempo,,,,,40,1,0,329670,,,,,,
43800,note_off,,,,,120,0,1,,,0,,,61,64
43800,set_tempo,,,,,20,1,0,333333,,,,,,
43820,set_tempo,,,,,20,1,0,335196,,,,,,
43860,set_tempo,,,,,40,1,0,337079,,,,,,
43880,set_tempo,,,,,20,1,0,340909,,,,,,
43920,note_off,,,,,240,0,2,,,0,,,44,64
43920,note_off,,,,,0,0,2,,,0,,,49,64
43920,note_off,,,,,0,0,2,,,0,,,52,64
43920,set_tempo,,,,,40,1,0,342857,,,,,,
43920,note_on,,,,,120,0,1,,,0,,,69,46
43960,set_tempo,,,,,40,1,0,344828,,,,,,
44120,set_tempo,,,,,160,1,0,348837,,,,,,
44160,note_on,,,,,240,0,2,,,0,,,50,45
44160,note_on,,,,,0,0,2,,,0,,,45,45
44160,note_on,,,,,0,0,2,,,0,,,42,45
44240,set_tempo,,,,,120,1,0,350877,,,,,,
44340,set_tempo,,,,,100,1,0,352941,,,,,,
44400,note_on,,,,,0,0,2,,,0,,,50,34
44400,note_off,,,,,0,0,2,,,0,,,50,64
44400,note_off,,,,,0,0,2,,,0,,,45,64
44400,note_off,,,,,240,0,2,,,0,,,42,64
44400,note_on,,,,,0,0,2,,,0,,,42,34
44400,note_on,,,,,0,0,2,,,0,,,45,34
44420,set_tempo,,,,,80,1,0,355030,,,,,,
44540,set_tempo,,,,,120,1,0,472441,,,,,,
44580,note_off,,,,,660,0,1,,,0,,,69,64
44640,note_off,,,,,0,0,2,,,0,,,50,64
44640,note_off,,,,,0,0,2,,,0,,,45,64
44640,note_off,,,,,240,0,2,,,0,,,42,64
44640,note_on,,,,,60,0,1,,,0,,,69,30
44640,set_tempo,,,,,100,1,0,333333,,,,,,
44760,note_on,,,,,0,0,1,,,0,,,68,21
44760,note_off,,,,,120,0,1,,,0,,,69,64
44780,set_tempo,,,,,140,1,0,291262,,,,,,
44864,note_off,,,,,104,0,1,,,0,,,68,64
44880,note_on,,,,,16,0,1,,,0,,,66,25
44880,note_on,,,,,0,0,2,,,0,,,40,39
44880,note_on,,,,,240,0,2,,,0,,,49,39
45000,note_off,,,,,120,0,1,,,0,,,66,64
45000,note_on,,,,,0,0,1,,,0,,,64,19
45020,set_tempo,,,,,240,1,0,292683,,,,,,
45060,set_tempo,,,,,40,1,0,294118,,,,,,
45080,set_tempo,,,,,20,1,0,297030,,,,,,
45104,note_off,,,,,104,0,1,,,0,,,64,64
45120,note_on,,,,,0,0,2,,,0,,,45,30
45120,set_tempo,,,,,40,1,0,298507,,,,,,
45120,note_off,,,,,0,0,2,,,0,,,49,64
45120,note_on,,,,,0,0,2,,,0,,,40,30
45120,note_off,,,,,240,0,2,,,0,,,40,64
45120,note_on,,,,,16,0,1,,,0,,,62,25
45140,set_tempo,,,,,20,1,0,300000,,,,,,
45240,note_on,,,,,0,0,1,,,0,,,61,19
45240,note_off,,,,,120,0,1,,,0,,,62,64
45260,set_tempo,,,,,120,1,0,306122,,,,,,
45280,set_tempo,,,,,20,1,0,310881,,,,,,
45300,set_tempo,,,,,20,1,0,314136,,,,,,
45340,set_tempo,,,,,40,1,0,312500,,,,,,
45344,note_off,,,,,104,0,1,,,0,,,61,64
45360,note_on,,,,,0,0,2,,,0,,,52,38
45360,note_on,,,,,0,0,2,,,0,,,40,38
45360,note_on,,,,,16,0,1,,,0,,,61,30
45360,note_on,,,,,0,0,2,,,0,,,57,38
45360,note_off,,,,,0,0,2,,,0,,,45,64
45360,note_off,,,,,240,0,2,,,0,,,40,64
45380,set_tempo,,,,,40,1,0,314136,,,,,,
45460,set_tempo,,,,,80,1,0,317460,,,,,,
45520,set_tempo,,,,,60,1,0,320856,,,,,,
45580,set_tempo,,,,,60,1,0,324324,,,,,,
45600,note_off,,,,,240,0,2,,,0,,,57,64
45660,set_tempo,,,,,80,1,0,333333,,,,,,
45720,note_on,,,,,0,0,1,,,0,,,62,30
45720,note_off,,,,,360,0,1,,,0,,,61,64
45760,set_tempo,,,,,100,1,0,337079,,,,,,
45800,set_tempo,,,,,40,1,0,344828,,,,,,
45820,set_tempo,,,,,20,1,0,363636,,,,,,
45840,note_on,,,,,240,0,2,,,0,,,56,27
45840,note_on,,,,,0,0,1,,,0,,,59,21
45840,note_off,,,,,120,0,1,,,0,,,62,64
45840,set_tempo,,,,,20,1,0,368098,,,,,,
45860,set_tempo,,,,,20,1,0,389610,,,,,,
45880,set_tempo,,,,,20,1,0,402685,,,,,,
45900,set_tempo,,,,,20,1,0,419580,,,,,,
45920,set_tempo,,,,,20,1,0,454545,,,,,,
45940,set_tempo,,,,,20,1,0,483871,,,,,,
45960,set_tempo,,,,,20,1,0,487805,,,,,,
45980,set_tempo,,,,,20,1,0,508475,,,,,,
46000,set_tempo,,,,,20,1,0,540541,,,,,,
46020,note_off,,,,,180,0,2,,,0,,,56,64
46020,note_off,,,,,0,0,2,,,0,,,52,64
46020,note_off,,,,,0,0,2,,,0,,,40,64
46020,set_tempo,,,,,20,1,0,545455,,,,,,
46020,note_off,,,,,180,0,1,,,0,,,59,64
46040,set_tempo,,,,,20,1,0,845070,,,,,,
46080,control_change,,,,,0,0,1,,,0,7,56,,
46080,note_on,,,,,60,0,1,,,0,,,81,57
46080,set_tempo,,,,,40,1,0,382166,,,,,,
46100,note_on,,,,,20,0,1,,,0,,,85,63
46110,set_tempo,,,,,30,1,0,258621,,,,,,
46120,note_on,,,,,20,0,1,,,0,,,88,66
46200,note_off,,,,,80,0,1,,,0,,,81,64
46220,note_off,,,,,20,0,1,,,0,,,85,64
46240,note_off,,,,,20,0,1,,,0,,,88,64
46320,note_on,,,,,80,0,1,,,0,,,76,52
46320,note_on,,,,,0,0,1,,,0,,,73,52
46320,note_on,,,,,0,0,1,,,0,,,69,52
46440,note_off,,,,,120,0,1,,,0,,,69,64
46440,note_off,,,,,0,0,1,,,0,,,73,64
46440,note_off,,,,,0,0,1,,,0,,,76,64
46560,note_on,,,,,0,0,2,,,0,,,57,49
46560,note_on,,,,,0,0,2,,,0,,,61,49
46560,note_on,,,,,540,0,2,,,0,,,64,49
46680,note_off,,,,,120,0,2,,,0,,,57,64
46680,note_off,,,,,0,0,2,,,0,,,61,64
46680,note_off,,,,,0,0,2,,,0,,,64,64
46800,note_on,,,,,0,0,2,,,0,,,59,67
46800,note_on,,,,,120,0,2,,,0,,,64,67
46800,note_on,,,,,0,0,2,,,0,,,56,67
46980,note_off,,,,,0,0,2,,,0,,,64,64
46980,note_off,,,,,0,0,2,,,0,,,59,64
46980,note_off,,,,,180,0,2,,,0,,,56,64
47040,note_on,,,,,600,0,1,,,0,,,71,48
47040,note_on,,,,,0,0,1,,,0,,,68,48
47160,note_on,,,,,0,0,1,,,0,,,76,38
47160,note_off,,,,,120,0,1,,,0,,,68,64
47160,note_off,,,,,0,0,1,,,0,,,71,64
47250,note_off,,,,,90,0,1,,,0,,,76,64
47280,note_on,,,,,0,0,2,,,0,,,61,46
47280,note_on,,,,,0,0,2,,,0,,,57,46
47280,note_on,,,,,0,0,1,,,0,,,69,52
47280,note_on,,,,,30,0,1,,,0,,,73,52
47280,note_on,,,,,300,0,2,,,0,,,64,46
47400,note_on,,,,,0,0,1,,,0,,,76,43
47400,note_off,,,,,0,0,1,,,0,,,73,64
47400,note_off,,,,,120,0,1,,,0,,,69,64
47400,note_off,,,,,120,0,2,,,0,,,57,64
47400,note_off,,,,,0,0,2,,,0,,,61,64
47400,note_off,,,,,0,0,2,,,0,,,64,64
47460,set_tempo,,,,,1350,1,0,310881,,,,,,
47490,note_off,,,,,90,0,1,,,0,,,76,64
47520,note_on,,,,,30,0,1,,,0,,,83,57
47540,note_on,,,,,20,0,1,,,0,,,86,63
47550,set_tempo,,,,,90,1,0,256410,,,,,,
47560,note_on,,,,,20,0,1,,,0,,,88,66
47640,note_off,,,,,80,0,1,,,0,,,83,64
47660,note_off,,,,,20,0,1,,,0,,,86,64
47680,note_off,,,,,20,0,1,,,0,,,88,64
47760,note_on,,,,,0,0,1,,,0,,,71,52
47760,note_on,,,,,0,0,1,,,0,,,74,52
47760,note_on,,,,,80,0,1,,,0,,,76,52
47880,note_off,,,,,0,0,1,,,0,,,76,64
47880,note_off,,,,,120,0,1,,,0,,,71,64
47880,note_off,,,,,0,0,1,,,0,,,74,64
48000,note_on,,,,,600,0,2,,,0,,,64,49
48000,note_on,,,,,0,0,2,,,0,,,62,49
48000,note_on,,,,,0,0,2,,,0,,,59,49
48120,note_off,,,,,0,0,2,,,0,,,64,64
48120,note_off,,,,,0,0,2,,,0,,,62,64
48120,note_off,,,,,120,0,2,,,0,,,59,64
48240,note_on,,,,,120,0,2,,,0,,,64,67
48240,note_on,,,,,0,0,2,,,0,,,61,67
48240,note_on,,,,,0,0,2,,,0,,,57,67
48420,note_off,,,,,0,0,2,,,0,,,64,64
48420,note_off,,,,,0,0,2,,,0,,,61,64
48420,note_off,,,,,180,0,2,,,0,,,57,64
48480,note_on,,,,,600,0,1,,,0,,,73,47
48480,note_on,,,,,0,0,1,,,0,,,69,47
48600,note_off,,,,,120,0,1,,,0,,,69,64
48600,note_off,,,,,0,0,1,,,0,,,73,64
48600,note_on,,,,,0,0,1,,,0,,,76,40
48690,note_off,,,,,90,0,1,,,0,,,76,64
48720,note_on,,,,,0,0,2,,,0,,,62,46
48720,note_on,,,,,0,0,2,,,0,,,59,46
48720,note_on,,,,,30,0,1,,,0,,,74,55
48720,note_on,,,,,0,0,1,,,0,,,71,55
48720,note_on,,,,,300,0,2,,,0,,,64,46
48840,note_off,,,,,120,0,1,,,0,,,71,64
48840,note_off,,,,,0,0,1,,,0,,,74,64
48840,note_on,,,,,0,0,1,,,0,,,76,45
48840,note_off,,,,,0,0,2,,,0,,,62,64
48840,note_off,,,,,0,0,2,,,0,,,64,64
48840,note_off,,,,,120,0,2,,,0,,,59,64
48890,set_tempo,,,,,1340,1,0,326087,,,,,,
48930,note_off,,,,,90,0,1,,,0,,,76,64
48960,note_on,,,,,30,0,1,,,0,,,85,75
48980,note_on,,,,,20,0,1,,,0,,,88,75
49000,note_on,,,,,20,0,1,,,0,,,93,78
49000,set_tempo,,,,,110,1,0,258621,,,,,,
49080,note_off,,,,,80,0,1,,,0,,,85,64
49100,note_off,,,,,20,0,1,,,0,,,88,64
49120,note_off,,,,,20,0,1,,,0,,,93,64
49200,note_on,,,,,0,0,1,,,0,,,73,61
49200,note_on,,,,,80,0,1,,,0,,,81,61
49200,note_on,,,,,0,0,1,,,0,,,76,61
49320,note_off,,,,,120,0,1,,,0,,,73,64
49320,note_off,,,,,0,0,1,,,0,,,76,64
49320,note_off,,,,,0,0,1,,,0,,,81,64
49440,note_on,,,,,600,0,2,,,0,,,64,67
49440,note_on,,,,,0,0,2,,,0,,,61,67
49560,note_off,,,,,120,0,2,,,0,,,61,64
49560,note_off,,,,,0,0,2,,,0,,,64,64
49680,note_on,,,,,120,0,2,,,0,,,67,86
49680,note_on,,,,,0,0,2,,,0,,,62,86
49680,note_on,,,,,0,0,2,,,0,,,59,86
49920,note_on,,,,,0,0,1,,,0,,,71,48
49920,note_on,,,,,0,0,1,,,0,,,74,48
49920,note_on,,,,,600,0,1,,,0,,,79,48
50040,note_off,,,,,0,0,1,,,0,,,79,64
50040,note_off,,,,,0,0,1,,,0,,,74,64
50040,note_off,,,,,120,0,1,,,0,,,71,64
50160,note_on,,,,,120,0,1,,,0,,,83,57
50180,note_on,,,,,20,0,1,,,0,,,86,61
50200,note_on,,,,,20,0,1,,,0,,,91,62
50280,note_off,,,,,80,0,1,,,0,,,83,64
50300,note_off,,,,,20,0,1,,,0,,,86,64
50320,note_off,,,,,20,0,1,,,0,,,91,64
50370,note_on,,,,,50,0,1,,,0,,,91,70
50400,note_off,,,,,0,0,2,,,0,,,67,64
50400,note_on,,,,,0,0,1,,,0,,,90,78
50400,note_off,,,,,720,0,2,,,0,,,59,64
50400,note_off,,,,,0,0,2,,,0,,,62,64
50400,note_off,,,,,30,0,1,,,0,,,91,64
50520,note_on,,,,,0,0,1,,,0,,,89,57
50520,note_off,,,,,120,0,1,,,0,,,90,64
50640,note_on,,,,,0,0,2,,,0,,,57,67
50640,note_on,,,,,0,0,2,,,0,,,62,67
50640,note_on,,,,,240,0,2,,,0,,,66,67
50640,note_on,,,,,0,0,1,,,0,,,90,70
50640,note_off,,,,,120,0,1,,,0,,,89,64
50760,note_on,,,,,0,0,1,,,0,,,93,75
50760,note_off,,,,,120,0,1,,,0,,,90,64
50820,note_off,,,,,0,0,2,,,0,,,66,64
50820,note_off,,,,,180,0,2,,,0,,,57,64
50820,note_off,,,,,0,0,2,,,0,,,62,64
50880,note_off,,,,,120,0,1,,,0,,,93,64
50880,note_on,,,,,60,0,2,,,0,,,67,49
50880,note_on,,,,,0,0,2,,,0,,,57,49
50880,note_on,,,,,0,0,1,,,0,,,88,81
50880,note_on,,,,,0,0,2,,,0,,,61,49
51000,note_off,,,,,120,0,1,,,0,,,88,64
51000,note_on,,,,,0,0,1,,,0,,,93,83
51060,note_off,,,,,180,0,2,,,0,,,57,64
51060,note_off,,,,,0,0,2,,,0,,,61,64
51060,note_off,,,,,0,0,2,,,0,,,67,64
51120,note_off,,,,,120,0,1,,,0,,,93,64
51120,note_on,,,,,0,0,1,,,0,,,90,87
51120,note_on,,,,,60,0,2,,,0,,,66,62
51120,note_on,,,,,0,0,2,,,0,,,62,62
51240,note_on,,,,,0,0,1,,,0,,,86,78
51240,note_off,,,,,120,0,1,,,0,,,90,64
51344,note_off,,,,,104,0,1,,,0,,,86,64
51360,note_on,,,,,16,0,1,,,0,,,81,62
51450,note_off,,,,,90,0,1,,,0,,,81,64
51480,note_on,,,,,30,0,1,,,0,,,78,52
51570,note_off,,,,,90,0,1,,,0,,,78,64
51600,note_on,,,,,30,0,1,,,0,,,74,31
51600,note_off,,,,,0,0,2,,,0,,,66,64
51600,note_off,,,,,480,0,2,,,0,,,62,64
51690,note_off,,,,,90,0,1,,,0,,,74,64
51800,set_tempo,,,,,2800,1,0,326087,,,,,,
51840,note_on,,,,,150,0,1,,,0,,,83,75
51860,note_on,,,,,20,0,1,,,0,,,86,75
51880,note_on,,,,,20,0,1,,,0,,,91,78
51880,set_tempo,,,,,80,1,0,258621,,,,,,
51960,note_off,,,,,80,0,1,,,0,,,83,64
51980,note_off,,,,,20,0,1,,,0,,,86,64
52000,note_off,,,,,20,0,1,,,0,,,91,64
52080,note_on,,,,,0,0,1,,,0,,,74,61
52080,note_on,,,,,0,0,1,,,0,,,71,61
52080,note_on,,,,,80,0,1,,,0,,,79,61
52200,note_off,,,,,0,0,1,,,0,,,79,64
52200,note_off,,,,,0,0,1,,,0,,,74,64
52200,note_off,,,,,120,0,1,,,0,,,71,64
52320,note_on,,,,,720,0,2,,,0,,,62,67
52320,note_on,,,,,0,0,2,,,0,,,59,67
52440,note_off,,,,,120,0,2,,,0,,,59,64
52440,note_off,,,,,0,0,2,,,0,,,62,64
52560,note_on,,,,,120,0,2,,,0,,,65,86
52560,note_on,,,,,0,0,2,,,0,,,60,86
52560,note_on,,,,,0,0,2,,,0,,,57,86
52800,note_on,,,,,0,0,1,,,0,,,69,46
52800,note_on,,,,,0,0,1,,,0,,,72,46
52800,note_on,,,,,600,0,1,,,0,,,77,46
52920,note_off,,,,,0,0,1,,,0,,,77,64
52920,note_off,,,,,0,0,1,,,0,,,72,64
52920,note_off,,,,,120,0,1,,,0,,,69,64
53040,note_on,,,,,120,0,1,,,0,,,81,57
53060,note_on,,,,,20,0,1,,,0,,,84,61
53080,note_on,,,,,20,0,1,,,0,,,89,62
53160,note_off,,,,,80,0,1,,,0,,,81,64
53180,note_off,,,,,20,0,1,,,0,,,84,64
53200,note_off,,,,,20,0,1,,,0,,,89,64
53250,note_on,,,,,50,0,1,,,0,,,89,58
53280,note_off,,,,,0,0,2,,,0,,,60,64
53280,note_off,,,,,720,0,2,,,0,,,57,64
53280,note_off,,,,,0,0,2,,,0,,,65,64
53280,note_on,,,,,0,0,1,,,0,,,88,65
53280,note_off,,,,,30,0,1,,,0,,,89,64
53400,note_off,,,,,120,0,1,,,0,,,88,64
53400,note_on,,,,,0,0,1,,,0,,,87,40
53520,note_off,,,,,120,0,1,,,0,,,87,64
53520,note_on,,,,,0,0,2,,,0,,,55,52
53520,note_on,,,,,240,0,2,,,0,,,64,52
53520,note_on,,,,,0,0,1,,,0,,,88,52
53520,note_on,,,,,0,0,2,,,0,,,60,52
53640,note_off,,,,,120,0,1,,,0,,,88,64
53640,note_on,,,,,0,0,1,,,0,,,91,62
53760,note_off,,,,,120,0,1,,,0,,,91,64
53760,note_on,,,,,0,0,1,,,0,,,86,71
53760,note_off,,,,,0,0,2,,,0,,,60,64
53760,note_off,,,,,0,0,2,,,0,,,64,64
53760,note_on,,,,,0,0,2,,,0,,,65,42
53760,note_off,,,,,240,0,2,,,0,,,55,64
53760,note_on,,,,,0,0,2,,,0,,,55,42
53760,note_on,,,,,0,0,2,,,0,,,59,42
53880,note_on,,,,,0,0,1,,,0,,,91,80
53880,note_off,,,,,120,0,1,,,0,,,86,64
53970,note_off,,,,,210,0,2,,,0,,,55,64
53970,note_off,,,,,0,0,2,,,0,,,59,64
53970,note_off,,,,,90,0,1,,,0,,,91,64
53970,note_off,,,,,0,0,2,,,0,,,65,64
54000,note_on,,,,,30,0,1,,,0,,,88,96
54000,note_on,,,,,30,0,2,,,0,,,64,52
54000,note_on,,,,,0,0,2,,,0,,,60,52
54120,note_on,,,,,0,0,1,,,0,,,84,78
54120,note_off,,,,,120,0,1,,,0,,,88,64
54224,note_off,,,,,104,0,1,,,0,,,84,64
54240,note_on,,,,,16,0,1,,,0,,,79,62
54340,note_off,,,,,100,0,1,,,0,,,79,64
54360,note_on,,,,,20,0,1,,,0,,,76,52
54450,note_off,,,,,90,0,1,,,0,,,76,64
54480,note_on,,,,,30,0,1,,,0,,,72,31
54480,note_off,,,,,480,0,2,,,0,,,60,64
54480,note_off,,,,,0,0,2,,,0,,,64,64
54570,note_off,,,,,90,0,1,,,0,,,72,64
54690,control_change,,,,,0,0,1,,,0,7,56,,
54690,note_on,,,,,120,0,1,,,0,,,93,58
54720,note_on,,,,,0,0,1,,,0,,,91,65
54720,note_on,,,,,240,0,2,,,0,,,47,72
54720,note_off,,,,,30,0,1,,,0,,,93,64
54756,control_change,,,,,36,0,1,,,0,7,57,,
54824,control_change,,,,,68,0,1,,,0,7,58,,
54840,note_on,,,,,0,0,1,,,0,,,90,56
54840,note_off,,,,,16,0,1,,,0,,,91,64
54892,control_change,,,,,52,0,1,,,0,7,59,,
54960,note_off,,,,,68,0,1,,,0,,,90,64
54960,note_on,,,,,0,0,1,,,0,,,91,62
54960,control_change,,,,,0,0,1,,,0,7,60,,
54960,note_off,,,,,240,0,2,,,0,,,47,64
54960,note_on,,,,,0,0,2,,,0,,,55,52
55026,control_change,,,,,66,0,1,,,0,7,61,,
55080,note_on,,,,,0,0,1,,,0,,,90,70
55080,note_off,,,,,54,0,1,,,0,,,91,64
55094,control_change,,,,,14,0,1,,,0,7,62,,
55162,control_change,,,,,68,0,1,,,0,7,63,,
55200,note_off,,,,,240,0,2,,,0,,,55,64
55200,note_off,,,,,38,0,1,,,0,,,90,64
55200,note_on,,,,,0,0,1,,,0,,,91,78
55200,note_on,,,,,0,0,2,,,0,,,62,65
55230,control_change,,,,,30,0,1,,,0,7,64,,
55296,control_change,,,,,66,0,1,,,0,7,65,,
55320,note_off,,,,,24,0,1,,,0,,,91,64
55320,note_on,,,,,0,0,1,,,0,,,93,83
55364,control_change,,,,,44,0,1,,,0,7,66,,
55410,note_off,,,,,210,0,2,,,0,,,62,64
55410,note_off,,,,,46,0,1,,,0,,,93,64
55432,control_change,,,,,22,0,1,,,0,7,67,,
55440,note_on,,,,,30,0,2,,,0,,,48,79
55440,note_on,,,,,8,0,1,,,0,,,93,96
55500,control_change,,,,,60,0,1,,,0,7,68,,
55560,note_on,,,,,0,0,1,,,0,,,91,91
55560,note_off,,,,,60,0,1,,,0,,,93,64
55566,control_change,,,,,6,0,1,,,0,7,69,,
55634,control_change,,,,,68,0,1,,,0,7,70,,
55664,note_off,,,,,30,0,1,,,0,,,91,64
55680,note_off,,,,,240,0,2,,,0,,,48,64
55680,note_on,,,,,0,0,2,,,0,,,55,66
55680,note_on,,,,,16,0,1,,,0,,,88,82
55702,control_change,,,,,22,0,1,,,0,7,71,,
55770,control_change,,,,,68,0,1,,,0,7,72,,
55780,note_off,,,,,10,0,1,,,0,,,88,64
55800,note_on,,,,,20,0,1,,,0,,,84,75
55836,control_change,,,,,36,0,1,,,0,7,73,,
55890,note_off,,,,,54,0,1,,,0,,,84,64
55904,control_change,,,,,14,0,1,,,0,7,74,,
55920,note_on,,,,,16,0,1,,,0,,,79,70
55920,note_on,,,,,0,0,2,,,0,,,64,67
55920,note_off,,,,,240,0,2,,,0,,,55,64
55972,control_change,,,,,52,0,1,,,0,7,75,,
56010,note_off,,,,,38,0,1,,,0,,,79,64
56040,control_change,,,,,30,0,1,,,0,7,76,,
56100,note_off,,,,,180,0,2,,,0,,,64,64
56106,control_change,,,,,66,0,1,,,0,7,77,,
56140,set_tempo,,,,,4260,1,0,291262,,,,,,
56160,note_on,,,,,60,0,2,,,0,,,50,79
56160,note_on,,,,,54,0,1,,,0,,,79,62
56160,note_on,,,,,0,0,1,,,0,,,77,62
56160,set_tempo,,,,,20,1,0,312500,,,,,,
56174,control_change,,,,,14,0,1,,,0,7,78,,
56242,control_change,,,,,68,0,1,,,0,7,79,,
56250,note_off,,,,,8,0,1,,,0,,,77,64
56250,note_off,,,,,0,0,1,,,0,,,79,64
56260,set_tempo,,,,,100,1,0,291262,,,,,,
56280,note_on,,,,,30,0,1,,,0,,,79,61
56280,note_on,,,,,0,0,1,,,0,,,77,61
56310,control_change,,,,,30,0,1,,,0,7,80,,
56340,set_tempo,,,,,80,1,0,269058,,,,,,
56340,note_off,,,,,30,0,1,,,0,,,77,64
56340,note_off,,,,,0,0,1,,,0,,,79,64
56376,control_change,,,,,36,0,1,,,0,7,81,,
56400,note_on,,,,,24,0,1,,,0,,,79,62
56400,note_on,,,,,0,0,1,,,0,,,77,62
56400,note_off,,,,,240,0,2,,,0,,,50,64
56400,note_on,,,,,0,0,2,,,0,,,59,71
56444,control_change,,,,,44,0,1,,,0,7,82,,
56460,note_off,,,,,0,0,1,,,0,,,79,64
56460,note_off,,,,,16,0,1,,,0,,,77,64
56512,control_change,,,,,52,0,1,,,0,7,83,,
56520,note_on,,,,,8,0,1,,,0,,,79,67
56520,note_on,,,,,0,0,1,,,0,,,77,67
56580,note_off,,,,,60,0,1,,,0,,,77,64
56580,note_off,,,,,0,0,1,,,0,,,79,64
56580,control_change,,,,,0,0,1,,,0,7,84,,
56640,note_on,,,,,0,0,1,,,0,,,77,72
56640,note_on,,,,,60,0,1,,,0,,,79,72
56640,note_off,,,,,240,0,2,,,0,,,59,64
56640,note_on,,,,,0,0,2,,,0,,,65,77
56646,control_change,,,,,6,0,1,,,0,7,85,,
56700,note_off,,,,,0,0,1,,,0,,,79,64
56700,note_off,,,,,54,0,1,,,0,,,77,64
56714,control_change,,,,,14,0,1,,,0,7,86,,
56760,note_on,,,,,0,0,1,,,0,,,77,78
56760,note_on,,,,,46,0,1,,,0,,,79,78
56782,control_change,,,,,22,0,1,,,0,7,87,,
56820,note_off,,,,,0,0,1,,,0,,,79,64
56820,note_off,,,,,38,0,1,,,0,,,77,64
56850,control_change,,,,,30,0,1,,,0,7,88,,
56850,note_off,,,,,210,0,2,,,0,,,65,64
56860,set_tempo,,,,,520,1,0,256410,,,,,,
56880,note_on,,,,,0,0,1,,,0,,,76,85
56880,note_on,,,,,30,0,2,,,0,,,52,72
56880,note_on,,,,,30,0,1,,,0,,,81,85
56916,control_change,,,,,36,0,1,,,0,7,89,,
56984,control_change,,,,,68,0,1,,,0,7,90,,
57000,note_off,,,,,0,0,1,,,0,,,81,64
57000,note_off,,,,,16,0,1,,,0,,,76,64
57000,note_on,,,,,0,0,1,,,0,,,79,90
57052,control_change,,,,,52,0,1,,,0,7,91,,
57104,note_off,,,,,52,0,1,,,0,,,79,64
57120,control_change,,,,,16,0,1,,,0,7,92,,
57120,note_on,,,,,0,0,1,,,0,,,76,80
57120,note_off,,,,,240,0,2,,,0,,,52,64
57120,note_on,,,,,0,0,2,,,0,,,60,52
57186,control_change,,,,,66,0,1,,,0,7,93,,
57210,note_off,,,,,24,0,1,,,0,,,76,64
57240,note_on,,,,,30,0,1,,,0,,,72,71
57254,control_change,,,,,14,0,1,,,0,7,94,,
57322,control_change,,,,,68,0,1,,,0,7,95,,
57330,note_off,,,,,8,0,1,,,0,,,72,64
57360,note_on,,,,,30,0,1,,,0,,,67,43
57360,note_off,,,,,240,0,2,,,0,,,60,64
57360,note_on,,,,,0,0,2,,,0,,,64,42
57390,control_change,,,,,30,0,1,,,0,7,96,,
57440,set_tempo,,,,,580,1,0,327869,,,,,,
57450,note_off,,,,,60,0,1,,,0,,,67,64
57500,set_tempo,,,,,60,1,0,258621,,,,,,
57540,note_off,,,,,180,0,2,,,0,,,64,64
57570,note_on,,,,,120,0,1,,,0,,,90,48
57570,control_change,,,,,0,0,1,,,0,7,80,,
57600,note_off,,,,,30,0,1,,,0,,,90,64
57600,note_on,,,,,0,0,1,,,0,,,88,52
57600,note_on,,,,,60,0,2,,,0,,,44,64
57720,note_on,,,,,0,0,1,,,0,,,87,47
57720,note_off,,,,,120,0,1,,,0,,,88,64
57840,note_off,,,,,120,0,1,,,0,,,87,64
57840,note_on,,,,,0,0,1,,,0,,,88,50
57840,note_on,,,,,0,0,2,,,0,,,52,54
57840,note_off,,,,,240,0,2,,,0,,,44,64
57960,note_on,,,,,0,0,1,,,0,,,87,53
57960,note_off,,,,,120,0,1,,,0,,,88,64
58080,note_on,,,,,0,0,1,,,0,,,88,57
58080,note_off,,,,,120,0,1,,,0,,,87,64
58080,note_on,,,,,0,0,2,,,0,,,59,47
58080,note_off,,,,,240,0,2,,,0,,,52,64
58200,note_on,,,,,0,0,1,,,0,,,90,61
58200,note_off,,,,,120,0,1,,,0,,,88,64
58290,note_off,,,,,210,0,2,,,0,,,59,64
58290,note_off,,,,,90,0,1,,,0,,,90,64
58320,note_on,,,,,30,0,1,,,0,,,90,66
58320,note_on,,,,,30,0,2,,,0,,,45,62
58440,note_off,,,,,120,0,1,,,0,,,90,64
58440,note_on,,,,,0,0,1,,,0,,,88,66
58544,note_off,,,,,104,0,1,,,0,,,88,64
58560,note_off,,,,,240,0,2,,,0,,,45,64
58560,note_on,,,,,0,0,2,,,0,,,52,50
58560,note_on,,,,,16,0,1,,,0,,,85,61
58660,note_off,,,,,100,0,1,,,0,,,85,64
58680,note_on,,,,,20,0,1,,,0,,,81,57
58770,note_off,,,,,90,0,1,,,0,,,81,64
58800,note_off,,,,,240,0,2,,,0,,,52,64
58800,note_on,,,,,0,0,2,,,0,,,61,46
58800,note_on,,,,,30,0,1,,,0,,,76,48
58890,note_off,,,,,90,0,1,,,0,,,76,64
58980,note_off,,,,,180,0,2,,,0,,,61,64
59020,set_tempo,,,,,1520,1,0,288462,,,,,,
59040,set_tempo,,,,,20,1,0,320856,,,,,,
59040,note_on,,,,,150,0,1,,,0,,,76,40
59040,note_on,,,,,0,0,1,,,0,,,74,40
59040,note_on,,,,,60,0,2,,,0,,,47,59
59130,note_off,,,,,90,0,1,,,0,,,74,64
59130,note_off,,,,,0,0,1,,,0,,,76,64
59140,set_tempo,,,,,100,1,0,263158,,,,,,
59160,note_on,,,,,0,0,1,,,0,,,74,35
59160,note_on,,,,,30,0,1,,,0,,,76,35
59220,note_off,,,,,60,0,1,,,0,,,74,64
59220,note_off,,,,,0,0,1,,,0,,,76,64
59280,note_off,,,,,240,0,2,,,0,,,47,64
59280,note_on,,,,,0,0,1,,,0,,,74,40
59280,note_on,,,,,60,0,1,,,0,,,76,40
59280,note_on,,,,,0,0,2,,,0,,,56,56
59340,note_off,,,,,0,0,1,,,0,,,76,64
59340,note_off,,,,,60,0,1,,,0,,,74,64
59400,note_on,,,,,0,0,1,,,0,,,74,45
59400,note_on,,,,,60,0,1,,,0,,,76,45
59460,note_off,,,,,0,0,1,,,0,,,76,64
59460,note_off,,,,,60,0,1,,,0,,,74,64
59520,note_on,,,,,0,0,1,,,0,,,74,48
59520,note_on,,,,,60,0,1,,,0,,,76,48
59520,note_on,,,,,0,0,2,,,0,,,62,42
59520,note_off,,,,,240,0,2,,,0,,,56,64
59580,note_off,,,,,0,0,1,,,0,,,76,64
59580,note_off,,,,,60,0,1,,,0,,,74,64
59640,note_on,,,,,60,0,1,,,0,,,76,53
59640,note_on,,,,,0,0,1,,,0,,,74,53
59700,note_off,,,,,60,0,1,,,0,,,74,64
59700,note_off,,,,,0,0,1,,,0,,,76,64
59730,note_off,,,,,210,0,2,,,0,,,62,64
59760,note_on,,,,,60,0,1,,,0,,,78,57
59760,note_on,,,,,30,0,2,,,0,,,49,52
59760,note_on,,,,,0,0,1,,,0,,,73,57
59860,set_tempo,,,,,720,1,0,269058,,,,,,
59880,set_tempo,,,,,20,1,0,270270,,,,,,
59880,note_on,,,,,0,0,1,,,0,,,76,48
59880,note_off,,,,,0,0,1,,,0,,,78,64
59880,note_off,,,,,120,0,1,,,0,,,73,64
59920,set_tempo,,,,,40,1,0,273973,,,,,,
59940,set_tempo,,,,,20,1,0,276498,,,,,,
59980,set_tempo,,,,,40,1,0,279070,,,,,,
59984,note_off,,,,,104,0,1,,,0,,,76,64
60000,note_on,,,,,16,0,1,,,0,,,73,40
60000,note_off,,,,,240,0,2,,,0,,,49,64
60000,note_on,,,,,0,0,2,,,0,,,57,52
60000,set_tempo,,,,,20,1,0,280374,,,,,,
60020,set_tempo,,,,,20,1,0,284360,,,,,,
60040,set_tempo,,,,,20,1,0,287081,,,,,,
60080,set_tempo,,,,,40,1,0,288462,,,,,,
60090,note_off,,,,,90,0,1,,,0,,,73,64
60100,set_tempo,,,,,20,1,0,297030,,,,,,
60120,set_tempo,,,,,20,1,0,298507,,,,,,
60120,note_on,,,,,30,0,1,,,0,,,69,35
60160,set_tempo,,,,,40,1,0,303030,,,,,,
60180,set_tempo,,,,,20,1,0,304569,,,,,,
60200,set_tempo,,,,,20,1,0,307692,,,,,,
60210,note_off,,,,,90,0,1,,,0,,,69,64
60240,note_on,,,,,30,0,1,,,0,,,64,28
60240,note_on,,,,,0,0,2,,,0,,,61,42
60240,note_off,,,,,240,0,2,,,0,,,57,64
60240,set_tempo,,,,,40,1,0,310881,,,,,,
60260,set_tempo,,,,,20,1,0,314136,,,,,,
60280,set_tempo,,,,,20,1,0,319149,,,,,,
60320,set_tempo,,,,,40,1,0,324324,,,,,,
60330,note_off,,,,,90,0,1,,,0,,,64,64
60340,set_tempo,,,,,20,1,0,329670,,,,,,
60360,set_tempo,,,,,20,1,0,333333,,,,,,
60400,set_tempo,,,,,40,1,0,337079,,,,,,
60420,note_off,,,,,180,0,2,,,0,,,61,64
60420,set_tempo,,,,,20,1,0,425532,,,,,,
60480,note_on,,,,,150,0,1,,,0,,,79,100
60500,note_on,,,,,20,0,1,,,0,,,81,101
60510,set_tempo,,,,,90,1,0,258621,,,,,,
60510,note_on,,,,,10,0,1,,,0,,,88,101
60520,note_on,,,,,10,0,1,,,0,,,85,101
60600,note_off,,,,,80,0,1,,,0,,,79,64
60620,note_off,,,,,20,0,1,,,0,,,81,64
60630,note_off,,,,,10,0,1,,,0,,,88,64
60640,note_off,,,,,10,0,1,,,0,,,85,64
60720,note_on,,,,,80,0,1,,,0,,,76,73
60720,note_on,,,,,0,0,1,,,0,,,73,73
60720,note_on,,,,,0,0,1,,,0,,,69,73
60720,note_on,,,,,0,0,1,,,0,,,67,73
60840,note_off,,,,,0,0,1,,,0,,,69,64
60840,note_off,,,,,0,0,1,,,0,,,73,64
60840,note_off,,,,,120,0,1,,,0,,,67,64
60840,note_off,,,,,0,0,1,,,0,,,76,64
60960,note_on,,,,,0,0,2,,,0,,,57,86
60960,note_on,,,,,0,0,2,,,0,,,61,86
60960,note_on,,,,,540,0,2,,,0,,,64,86
61080,note_off,,,,,0,0,2,,,0,,,64,64
61080,note_off,,,,,120,0,2,,,0,,,57,64
61080,note_off,,,,,0,0,2,,,0,,,61,64
61200,note_on,,,,,0,0,2,,,0,,,50,110
61200,note_on,,,,,0,0,2,,,0,,,57,110
61200,note_on,,,,,120,0,2,,,0,,,62,110
61320,set_tempo,,,,,810,1,0,259740,,,,,,
61380,note_off,,,,,180,0,2,,,0,,,50,64
61380,note_off,,,,,0,0,2,,,0,,,57,64
61380,note_off,,,,,0,0,2,,,0,,,62,64
61380,set_tempo,,,,,60,1,0,260870,,,,,,
61440,note_on,,,,,600,0,1,,,0,,,78,78
61440,note_on,,,,,0,0,1,,,0,,,74,78
61440,note_on,,,,,0,0,1,,,0,,,69,78
61440,note_on,,,,,0,0,1,,,0,,,66,78
61440,set_tempo,,,,,60,1,0,263158,,,,,,
61460,set_tempo,,,,,20,1,0,265487,,,,,,
61520,set_tempo,,,,,60,1,0,269058,,,,,,
61540,set_tempo,,,,,20,1,0,270270,,,,,,
61560,set_tempo,,,,,20,1,0,271493,,,,,,
61560,note_off,,,,,0,0,1,,,0,,,78,64
61560,note_off,,,,,0,0,1,,,0,,,74,64
61560,note_off,,,,,120,0,1,,,0,,,66,64
61560,note_off,,,,,0,0,1,,,0,,,69,64
61600,set_tempo,,,,,40,1,0,273973,,,,,,
61620,set_tempo,,,,,20,1,0,275229,,,,,,
61640,set_tempo,,,,,20,1,0,276498,,,,,,
61660,set_tempo,,,,,20,1,0,279070,,,,,,
61680,note_on,,,,,120,0,1,,,0,,,81,88
61700,note_on,,,,,20,0,1,,,0,,,86,88
61700,set_tempo,,,,,40,1,0,281690,,,,,,
61720,note_on,,,,,20,0,1,,,0,,,90,88
61740,note_on,,,,,20,0,1,,,0,,,93,88
61740,set_tempo,,,,,40,1,0,284360,,,,,,
61800,note_off,,,,,60,0,1,,,0,,,81,64
61820,note_off,,,,,20,0,1,,,0,,,86,64
61840,set_tempo,,,,,100,1,0,333333,,,,,,
61840,note_off,,,,,20,0,1,,,0,,,90,64
61860,note_off,,,,,20,0,1,,,0,,,93,64
61920,note_on,,,,,60,0,1,,,0,,,100,61
61920,note_on,,,,,540,0,2,,,0,,,64,58
61920,note_on,,,,,0,0,2,,,0,,,61,58
61920,note_on,,,,,0,0,2,,,0,,,57,58
61920,set_tempo,,,,,80,1,0,256410,,,,,,
61920,note_on,,,,,0,0,2,,,0,,,52,58
61980,note_off,,,,,60,0,1,,,0,,,100,64
61980,note_on,,,,,0,0,1,,,0,,,97,57
62020,set_tempo,,,,,100,1,0,259740,,,,,,
62040,note_off,,,,,60,0,1,,,0,,,97,64
62040,note_on,,,,,0,0,1,,,0,,,93,47
62100,note_off,,,,,0,0,2,,,0,,,64,64
62100,note_off,,,,,0,0,2,,,0,,,61,64
62100,set_tempo,,,,,80,1,0,260870,,,,,,
62100,note_off,,,,,0,0,2,,,0,,,57,64
62100,note_off,,,,,60,0,1,,,0,,,93,64
62100,note_off,,,,,180,0,2,,,0,,,52,64
62120,set_tempo,,,,,20,1,0,263158,,,,,,
62160,set_tempo,,,,,40,1,0,264317,,,,,,
62160,note_on,,,,,0,0,2,,,0,,,52,39
62160,note_on,,,,,60,0,1,,,0,,,97,52
62160,note_on,,,,,0,0,2,,,0,,,57,39
62160,note_on,,,,,0,0,2,,,0,,,61,39
62160,note_on,,,,,60,0,2,,,0,,,64,39
62200,set_tempo,,,,,40,1,0,265487,,,,,,
62220,note_on,,,,,0,0,1,,,0,,,93,43
62220,note_off,,,,,60,0,1,,,0,,,97,64
62240,set_tempo,,,,,40,1,0,267857,,,,,,
62260,set_tempo,,,,,20,1,0,269058,,,,,,
62280,note_on,,,,,0,0,1,,,0,,,88,40
62280,note_off,,,,,60,0,1,,,0,,,93,64
62300,set_tempo,,,,,40,1,0,267857,,,,,,
62340,note_off,,,,,60,0,1,,,0,,,88,64
62400,set_tempo,,,,,100,1,0,269058,,,,,,
62400,note_off,,,,,0,0,2,,,0,,,64,64
62400,note_off,,,,,0,0,2,,,0,,,61,64
62400,note_off,,,,,0,0,2,,,0,,,57,64
62400,note_off,,,,,240,0,2,,,0,,,52,64
62400,note_on,,,,,60,0,1,,,0,,,93,43
62420,set_tempo,,,,,20,1,0,270270,,,,,,
62440,set_tempo,,,,,20,1,0,271493,,,,,,
62460,note_on,,,,,0,0,1,,,0,,,88,40
62460,note_off,,,,,60,0,1,,,0,,,93,64
62520,note_off,,,,,60,0,1,,,0,,,88,64
62520,note_on,,,,,0,0,1,,,0,,,85,32
62560,set_tempo,,,,,120,1,0,273973,,,,,,
62580,set_tempo,,,,,20,1,0,275229,,,,,,
62580,note_off,,,,,60,0,1,,,0,,,85,64
62640,set_tempo,,,,,60,1,0,279070,,,,,,
62640,note_on,,,,,240,0,2,,,0,,,64,56
62640,note_on,,,,,0,0,2,,,0,,,59,56
62640,note_on,,,,,0,0,2,,,0,,,62,56
62640,note_on,,,,,60,0,1,,,0,,,88,47
62640,note_on,,,,,0,0,2,,,0,,,52,56
62680,set_tempo,,,,,40,1,0,280374,,,,,,
62700,note_off,,,,,60,0,1,,,0,,,88,64
62700,note_on,,,,,0,0,1,,,0,,,86,43
62720,set_tempo,,,,,40,1,0,281690,,,,,,
62740,set_tempo,,,,,20,1,0,284360,,,,,,
62760,note_off,,,,,60,0,1,,,0,,,86,64
62760,note_on,,,,,0,0,1,,,0,,,83,37
62780,set_tempo,,,,,40,1,0,287081,,,,,,
62800,set_tempo,,,,,20,1,0,298507,,,,,,
62820,note_off,,,,,60,0,1,,,0,,,83,64
62820,note_off,,,,,0,0,2,,,0,,,64,64
62820,note_off,,,,,0,0,2,,,0,,,62,64
62820,note_off,,,,,0,0,2,,,0,,,59,64
62820,note_off,,,,,180,0,2,,,0,,,52,64
62840,set_tempo,,,,,40,1,0,300000,,,,,,
62880,note_on,,,,,0,0,2,,,0,,,52,40
62880,note_on,,,,,60,0,1,,,0,,,86,38
62880,note_on,,,,,60,0,2,,,0,,,64,40
62880,note_on,,,,,0,0,2,,,0,,,62,40
62880,note_on,,,,,0,0,2,,,0,,,59,40
62880,set_tempo,,,,,40,1,0,304569,,,,,,
62940,set_tempo,,,,,60,1,0,307692,,,,,,
62940,note_on,,,,,0,0,1,,,0,,,83,35
62940,note_off,,,,,60,0,1,,,0,,,86,64
62960,set_tempo,,,,,20,1,0,310881,,,,,,
62980,set_tempo,,,,,20,1,0,314136,,,,,,
63000,note_off,,,,,60,0,1,,,0,,,83,64
63000,note_on,,,,,0,0,1,,,0,,,80,30
63000,set_tempo,,,,,20,1,0,317460,,,,,,
63020,set_tempo,,,,,20,1,0,319149,,,,,,
63040,set_tempo,,,,,20,1,0,324324,,,,,,
63060,note_off,,,,,60,0,1,,,0,,,80,64
63060,set_tempo,,,,,20,1,0,327869,,,,,,
63080,set_tempo,,,,,20,1,0,329670,,,,,,
63100,set_tempo,,,,,20,1,0,335196,,,,,,
63120,note_on,,,,,60,0,1,,,0,,,83,35
63120,note_off,,,,,0,0,2,,,0,,,59,64
63120,set_tempo,,,,,20,1,0,340909,,,,,,
63120,note_off,,,,,0,0,2,,,0,,,64,64
63120,note_off,,,,,0,0,2,,,0,,,62,64
63120,note_off,,,,,240,0,2,,,0,,,52,64
63140,set_tempo,,,,,20,1,0,342857,,,,,,
63180,set_tempo,,,,,40,1,0,363636,,,,,,
63180,note_on,,,,,0,0,1,,,0,,,80,30
63180,note_off,,,,,60,0,1,,,0,,,83,64
63200,set_tempo,,,,,20,1,0,372671,,,,,,
63220,set_tempo,,,,,20,1,0,389610,,,,,,
63240,note_off,,,,,60,0,1,,,0,,,80,64
63240,note_on,,,,,0,0,1,,,0,,,76,22
63260,set_tempo,,,,,40,1,0,402685,,,,,,
63280,set_tempo,,,,,20,1,0,431655,,,,,,
63300,note_off,,,,,60,0,1,,,0,,,76,64
63300,set_tempo,,,,,20,1,0,444444,,,,,,
63360,note_on,,,,,60,0,1,,,0,,,67,92
63380,set_tempo,,,,,80,1,0,256410,,,,,,
63380,note_on,,,,,20,0,1,,,0,,,69,96
63390,note_on,,,,,10,0,1,,,0,,,76,97
63400,note_on,,,,,10,0,1,,,0,,,73,100
63480,note_off,,,,,80,0,1,,,0,,,67,64
63500,note_off,,,,,20,0,1,,,0,,,69,64
63510,note_off,,,,,10,0,1,,,0,,,76,64
63520,note_off,,,,,10,0,1,,,0,,,73,64
63600,note_on,,,,,80,0,1,,,0,,,64,70
63600,note_on,,,,,0,0,1,,,0,,,55,70
63600,note_on,,,,,0,0,1,,,0,,,61,70
63600,note_on,,,,,0,0,1,,,0,,,57,70
63720,note_off,,,,,120,0,1,,,0,,,55,64
63720,note_off,,,,,0,0,1,,,0,,,57,64
63720,note_off,,,,,0,0,1,,,0,,,61,64
63720,note_off,,,,,0,0,1,,,0,,,64,64
63840,note_on,,,,,720,0,2,,,0,,,52,94
63840,note_on,,,,,0,0,2,,,0,,,49,94
63840,note_on,,,,,0,0,2,,,0,,,45,94
63960,note_off,,,,,0,0,2,,,0,,,52,64
63960,note_off,,,,,0,0,2,,,0,,,49,64
63960,note_off,,,,,120,0,2,,,0,,,45,64
64080,note_on,,,,,0,0,2,,,0,,,45,127
64080,note_on,,,,,0,0,2,,,0,,,38,127
64080,note_on,,,,,120,0,2,,,0,,,50,127
64260,note_off,,,,,0,0,2,,,0,,,50,64
64260,note_off,,,,,0,0,2,,,0,,,45,64
64260,note_off,,,,,180,0,2,,,0,,,38,64
64320,note_on,,,,,600,0,1,,,0,,,66,70
64320,note_on,,,,,0,0,1,,,0,,,62,70
64320,note_on,,,,,0,0,1,,,0,,,57,70
64320,note_on,,,,,0,0,1,,,0,,,54,70
64380,set_tempo,,,,,1000,1,0,271493,,,,,,
64440,note_off,,,,,0,0,1,,,0,,,66,64
64440,note_off,,,,,120,0,1,,,0,,,54,64
64440,note_off,,,,,0,0,1,,,0,,,57,64
64440,note_off,,,,,0,0,1,,,0,,,62,64
64560,note_on,,,,,120,0,1,,,0,,,69,70
64580,note_on,,,,,20,0,1,,,0,,,74,73
64600,note_on,,,,,20,0,1,,,0,,,78,78
64620,note_on,,,,,20,0,1,,,0,,,81,78
64680,set_tempo,,,,,300,1,0,255319,,,,,,
64680,note_off,,,,,60,0,1,,,0,,,69,64
64700,note_off,,,,,20,0,1,,,0,,,74,64
64720,set_tempo,,,,,40,1,0,571429,,,,,,
64720,note_off,,,,,20,0,1,,,0,,,78,64
64740,note_off,,,,,20,0,1,,,0,,,81,64
64800,note_on,,,,,540,0,2,,,0,,,64,58
64800,note_on,,,,,0,0,2,,,0,,,61,58
64800,note_on,,,,,0,0,2,,,0,,,57,58
64800,set_tempo,,,,,80,1,0,294118,,,,,,
64800,note_on,,,,,60,0,1,,,0,,,88,61
64800,note_on,,,,,0,0,2,,,0,,,52,58
64860,note_on,,,,,0,0,1,,,0,,,85,57
64860,note_off,,,,,60,0,1,,,0,,,88,64
64920,note_on,,,,,0,0,1,,,0,,,81,47
64920,note_off,,,,,60,0,1,,,0,,,85,64
64940,set_tempo,,,,,140,1,0,291262,,,,,,
64980,note_off,,,,,180,0,2,,,0,,,52,64
64980,note_off,,,,,0,0,2,,,0,,,57,64
64980,set_tempo,,,,,40,1,0,287081,,,,,,
64980,note_off,,,,,0,0,2,,,0,,,64,64
64980,note_off,,,,,0,0,2,,,0,,,61,64
64980,note_off,,,,,60,0,1,,,0,,,81,64
65040,set_tempo,,,,,60,1,0,284360,,,,,,
65040,note_on,,,,,0,0,2,,,0,,,52,39
65040,note_on,,,,,0,0,2,,,0,,,57,39
65040,note_on,,,,,0,0,2,,,0,,,61,39
65040,note_on,,,,,60,0,2,,,0,,,64,39
65040,note_on,,,,,60,0,1,,,0,,,85,52
65080,set_tempo,,,,,40,1,0,281690,,,,,,
65100,note_off,,,,,60,0,1,,,0,,,85,64
65100,note_on,,,,,0,0,1,,,0,,,81,43
65120,set_tempo,,,,,40,1,0,280374,,,,,,
65160,note_off,,,,,60,0,1,,,0,,,81,64
65160,note_on,,,,,0,0,1,,,0,,,76,40
65180,set_tempo,,,,,60,1,0,279070,,,,,,
65220,note_off,,,,,60,0,1,,,0,,,76,64
65240,set_tempo,,,,,60,1,0,276498,,,,,,
65260,set_tempo,,,,,20,1,0,275229,,,,,,
65280,note_off,,,,,0,0,2,,,0,,,57,64
65280,note_off,,,,,240,0,2,,,0,,,52,64
65280,note_off,,,,,0,0,2,,,0,,,64,64
65280,note_off,,,,,0,0,2,,,0,,,61,64
65280,note_on,,,,,60,0,1,,,0,,,81,43
65320,set_tempo,,,,,60,1,0,273973,,,,,,
65340,note_on,,,,,0,0,1,,,0,,,76,40
65340,note_off,,,,,60,0,1,,,0,,,81,64
65400,note_off,,,,,60,0,1,,,0,,,76,64
65400,note_on,,,,,0,0,1,,,0,,,73,32
65460,note_off,,,,,60,0,1,,,0,,,73,64
65520,note_on,,,,,240,0,2,,,0,,,64,56
65520,note_on,,,,,0,0,2,,,0,,,62,56
65520,note_on,,,,,0,0,2,,,0,,,59,56
65520,note_on,,,,,60,0,1,,,0,,,76,46
65520,note_on,,,,,0,0,2,,,0,,,52,56
65580,note_on,,,,,0,0,1,,,0,,,74,41
65580,note_off,,,,,60,0,1,,,0,,,76,64
65600,set_tempo,,,,,280,1,0,271493,,,,,,
65640,note_on,,,,,0,0,1,,,0,,,71,35
65640,note_off,,,,,60,0,1,,,0,,,74,64
65700,note_off,,,,,0,0,2,,,0,,,59,64
65700,note_off,,,,,0,0,2,,,0,,,62,64
65700,note_off,,,,,0,0,2,,,0,,,64,64
65700,note_off,,,,,180,0,2,,,0,,,52,64
65700,note_off,,,,,60,0,1,,,0,,,71,64
65720,set_tempo,,,,,120,1,0,270270,,,,,,
65760,note_on,,,,,0,0,2,,,0,,,52,40
65760,note_on,,,,,0,0,2,,,0,,,59,40
65760,note_on,,,,,0,0,2,,,0,,,62,40
65760,note_on,,,,,60,0,2,,,0,,,64,40
65760,note_on,,,,,60,0,1,,,0,,,74,50
65820,note_off,,,,,60,0,1,,,0,,,74,64
65820,note_on,,,,,0,0,1,,,0,,,71,40
65840,set_tempo,,,,,120,1,0,271493,,,,,,
65860,set_tempo,,,,,20,1,0,273973,,,,,,
65880,note_off,,,,,60,0,1,,,0,,,71,64
65880,note_on,,,,,0,0,1,,,0,,,68,38
65920,set_tempo,,,,,60,1,0,275229,,,,,,
65940,note_off,,,,,60,0,1,,,0,,,68,64
65940,set_tempo,,,,,20,1,0,276498,,,,,,
66000,note_on,,,,,60,0,1,,,0,,,71,56
66000,note_off,,,,,240,0,2,,,0,,,52,64
66000,note_off,,,,,0,0,2,,,0,,,59,64
66000,note_off,,,,,0,0,2,,,0,,,62,64
66000,note_off,,,,,0,0,2,,,0,,,64,64
66060,note_on,,,,,0,0,1,,,0,,,68,50
66060,note_off,,,,,60,0,1,,,0,,,71,64
66060,set_tempo,,,,,120,1,0,279070,,,,,,
66080,set_tempo,,,,,20,1,0,280374,,,,,,
66100,set_tempo,,,,,20,1,0,281690,,,,,,
66120,note_on,,,,,0,0,1,,,0,,,64,46
66120,note_off,,,,,60,0,1,,,0,,,68,64
66180,set_tempo,,,,,80,1,0,363636,,,,,,
66180,note_off,,,,,60,0,1,,,0,,,64,64
66240,note_on,,,,,0,0,2,,,0,,,57,88
66240,note_on,,,,,240,0,2,,,0,,,69,88
66260,set_tempo,,,,,80,1,0,288462,,,,,,
66300,note_on,,,,,0,0,2,,,0,,,52,88
66300,note_on,,,,,0,0,2,,,0,,,64,88
66300,note_off,,,,,0,0,2,,,0,,,69,64
66300,note_off,,,,,60,0,2,,,0,,,57,64
66360,note_off,,,,,60,0,2,,,0,,,52,64
66360,note_off,,,,,0,0,2,,,0,,,64,64
66360,note_on,,,,,0,0,2,,,0,,,61,81
66360,note_on,,,,,0,0,2,,,0,,,49,81
66360,set_tempo,,,,,100,1,0,287081,,,,,,
66380,set_tempo,,,,,20,1,0,288462,,,,,,
66420,note_off,,,,,0,0,2,,,0,,,61,64
66420,note_off,,,,,60,0,2,,,0,,,49,64
66480,note_on,,,,,60,0,2,,,0,,,64,88
66480,note_on,,,,,0,0,2,,,0,,,52,88
66500,set_tempo,,,,,120,1,0,291262,,,,,,
66540,note_on,,,,,0,0,2,,,0,,,61,88
66540,note_on,,,,,0,0,2,,,0,,,49,88
66540,note_off,,,,,0,0,2,,,0,,,64,64
66540,note_off,,,,,60,0,2,,,0,,,52,64
66600,note_on,,,,,0,0,2,,,0,,,45,86
66600,note_on,,,,,0,0,2,,,0,,,57,86
66600,note_off,,,,,0,0,2,,,0,,,61,64
66600,note_off,,,,,60,0,2,,,0,,,49,64
66620,set_tempo,,,,,120,1,0,294118,,,,,,
66660,set_tempo,,,,,40,1,0,298507,,,,,,
66660,note_off,,,,,0,0,2,,,0,,,57,64
66660,note_off,,,,,60,0,2,,,0,,,45,64
66720,note_on,,,,,0,0,2,,,0,,,45,88
66720,note_on,,,,,60,0,2,,,0,,,57,88
66780,note_on,,,,,0,0,2,,,0,,,40,88
66780,note_off,,,,,60,0,2,,,0,,,45,64
66780,note_off,,,,,0,0,2,,,0,,,57,64
66780,note_on,,,,,0,0,2,,,0,,,52,88
66840,note_off,,,,,60,0,2,,,0,,,40,64
66840,note_off,,,,,0,0,2,,,0,,,52,64
66840,note_on,,,,,0,0,2,,,0,,,49,88
66840,note_on,,,,,0,0,2,,,0,,,37,88
66880,set_tempo,,,,,220,1,0,402685,,,,,,
66900,note_off,,,,,0,0,2,,,0,,,49,64
66900,note_off,,,,,60,0,2,,,0,,,37,64
66960,note_on,,,,,0,0,2,,,0,,,33,88
66960,note_on,,,,,60,0,2,,,0,,,45,88
67060,set_tempo,,,,,180,1,0,314136,,,,,,
67100,set_tempo,,,,,40,1,0,319149,,,,,,
67140,note_off,,,,,0,0,2,,,0,,,45,64
67140,note_off,,,,,180,0,2,,,0,,,33,64
67220,set_tempo,,,,,120,1,0,324324,,,,,,
67280,set_tempo,,,,,60,1,0,326087,,,,,,
67650,note_on,,,,,0,0,2,,,0,,,41,88
67650,note_on,,,,,510,0,2,,,0,,,53,88
67650,set_tempo,,,,,370,1,0,335196,,,,,,
67680,note_off,,,,,30,0,2,,,0,,,41,64
67680,note_off,,,,,0,0,2,,,0,,,53,64
67680,note_on,,,,,0,0,2,,,0,,,52,88
67680,note_on,,,,,0,0,2,,,0,,,40,88
67700,set_tempo,,,,,50,1,0,258621,,,,,,
67800,note_off,,,,,0,0,2,,,0,,,52,64
67800,note_on,,,,,0,0,2,,,0,,,51,88
67800,note_on,,,,,0,0,2,,,0,,,39,88
67800,note_off,,,,,120,0,2,,,0,,,40,64
67920,note_off,,,,,120,0,2,,,0,,,39,64
67920,note_off,,,,,0,0,2,,,0,,,51,64
67920,note_on,,,,,0,0,2,,,0,,,52,88
67920,note_on,,,,,0,0,2,,,0,,,40,88
68040,note_on,,,,,0,0,2,,,0,,,39,88
68040,note_on,,,,,0,0,2,,,0,,,51,88
68040,note_off,,,,,0,0,2,,,0,,,52,64
68040,note_off,,,,,120,0,2,,,0,,,40,64
68160,note_off,,,,,120,0,2,,,0,,,39,64
68160,note_on,,,,,0,0,2,,,0,,,52,88
68160,note_on,,,,,0,0,2,,,0,,,40,88
68160,note_off,,,,,0,0,2,,,0,,,51,64
68280,note_off,,,,,120,0,2,,,0,,,40,64
68280,note_off,,,,,0,0,2,,,0,,,52,64
68280,note_on,,,,,0,0,2,,,0,,,53,88
68280,note_on,,,,,0,0,2,,,0,,,41,88
68340,note_off,,,,,60,0,2,,,0,,,41,64
68340,note_off,,,,,0,0,2,,,0,,,53,64
68400,note_on,,,,,60,0,2,,,0,,,53,88
68400,note_on,,,,,0,0,2,,,0,,,41,88
68520,note_off,,,,,0,0,2,,,0,,,53,64
68520,note_off,,,,,120,0,2,,,0,,,41,64
68520,note_on,,,,,0,0,2,,,0,,,52,88
68520,note_on,,,,,0,0,2,,,0,,,40,88
68640,note_off,,,,,120,0,2,,,0,,,40,64
68640,note_off,,,,,0,0,2,,,0,,,52,64
68640,note_on,,,,,0,0,2,,,0,,,48,88
68640,note_on,,,,,0,0,2,,,0,,,36,88
68760,note_on,,,,,0,0,2,,,0,,,55,84
68760,note_off,,,,,120,0,2,,,0,,,36,64
68760,note_off,,,,,0,0,2,,,0,,,48,64
68760,note_on,,,,,0,0,2,,,0,,,43,84
68880,note_on,,,,,0,0,2,,,0,,,52,88
68880,note_off,,,,,120,0,2,,,0,,,43,64
68880,note_off,,,,,0,0,2,,,0,,,55,64
68880,note_on,,,,,0,0,2,,,0,,,64,88
68880,note_on,,,,,0,0,2,,,0,,,60,88
69020,set_tempo,,,,,1320,1,0,326087,,,,,,
69060,note_off,,,,,180,0,2,,,0,,,52,64
69060,note_off,,,,,0,0,2,,,0,,,60,64
69060,note_off,,,,,0,0,2,,,0,,,64,64
69120,note_on,,,,,0,0,2,,,0,,,52,88
69120,set_tempo,,,,,100,1,0,258621,,,,,,
69120,note_on,,,,,60,0,2,,,0,,,64,88
69240,note_on,,,,,0,0,2,,,0,,,50,88
69240,note_off,,,,,120,0,2,,,0,,,52,64
69240,note_off,,,,,0,0,2,,,0,,,64,64
69240,note_on,,,,,0,0,2,,,0,,,62,88
69360,note_off,,,,,120,0,2,,,0,,,50,64
69360,note_off,,,,,0,0,2,,,0,,,62,64
69360,note_on,,,,,0,0,2,,,0,,,59,88
69360,note_on,,,,,0,0,2,,,0,,,47,88
69480,note_off,,,,,120,0,2,,,0,,,47,64
69480,note_off,,,,,0,0,2,,,0,,,59,64
69480,note_on,,,,,0,0,2,,,0,,,55,83
69480,note_on,,,,,0,0,2,,,0,,,43,83
69600,note_on,,,,,0,0,2,,,0,,,43,88
69600,note_on,,,,,0,0,2,,,0,,,55,88
69600,note_on,,,,,0,0,2,,,0,,,50,88
69600,note_on,,,,,0,0,2,,,0,,,67,88
69600,note_off,,,,,0,0,2,,,0,,,55,64
69600,note_off,,,,,120,0,2,,,0,,,43,64
69600,note_on,,,,,0,0,2,,,0,,,59,88
69780,note_off,,,,,180,0,2,,,0,,,43,64
69780,note_off,,,,,0,0,2,,,0,,,50,64
69780,note_off,,,,,0,0,2,,,0,,,55,64
69780,note_off,,,,,0,0,2,,,0,,,59,64
69780,note_off,,,,,0,0,2,,,0,,,67,64
69840,note_on,,,,,60,0,2,,,0,,,60,61
69840,note_on,,,,,0,0,2,,,0,,,55,61
69840,note_on,,,,,0,0,2,,,0,,,48,61
69840,note_on,,,,,3660,0,1,,,0,,,65,72
69846,control_change,,,,,6,0,1,,,0,64,96,,
69960,note_on,,,,,0,0,1,,,0,,,64,64
69960,note_off,,,,,114,0,1,,,0,,,65,64
70050,note_off,,,,,0,0,2,,,0,,,60,64
70050,note_off,,,,,0,0,2,,,0,,,55,64
70050,note_off,,,,,210,0,2,,,0,,,48,64
70060,note_off,,,,,100,0,1,,,0,,,64,64
70072,control_change,,,,,12,0,1,,,0,64,0,,
70080,control_change,,,,,0,0,1,,,0,64,96,,
70080,note_on,,,,,8,0,1,,,0,,,67,74
70080,note_on,,,,,0,0,2,,,0,,,55,61
70080,note_on,,,,,0,0,2,,,0,,,50,61
70080,note_on,,,,,30,0,2,,,0,,,59,61
70200,note_on,,,,,0,0,1,,,0,,,65,64
70200,note_off,,,,,120,0,1,,,0,,,67,64
70290,note_off,,,,,0,0,2,,,0,,,59,64
70290,note_off,,,,,210,0,2,,,0,,,50,64
70290,note_off,,,,,0,0,2,,,0,,,55,64
70300,note_off,,,,,100,0,1,,,0,,,65,64
70312,control_change,,,,,12,0,1,,,0,64,0,,
70320,control_change,,,,,0,0,1,,,0,64,96,,
70320,note_on,,,,,8,0,1,,,0,,,69,78
70320,note_on,,,,,30,0,2,,,0,,,60,61
70320,note_on,,,,,0,0,2,,,0,,,55,61
70320,note_on,,,,,0,0,2,,,0,,,52,61
70440,note_on,,,,,0,0,1,,,0,,,67,65
70440,note_off,,,,,120,0,1,,,0,,,69,64
70530,note_off,,,,,0,0,2,,,0,,,55,64
70530,note_off,,,,,210,0,2,,,0,,,52,64
70530,note_off,,,,,0,0,2,,,0,,,60,64
70540,note_off,,,,,100,0,1,,,0,,,67,64
70552,control_change,,,,,12,0,1,,,0,64,0,,
70560,control_change,,,,,0,0,1,,,0,64,96,,
70560,note_on,,,,,0,0,1,,,0,,,59,79
70560,note_on,,,,,8,0,1,,,0,,,62,79
70680,note_on,,,,,150,0,2,,,0,,,55,61
70800,note_on,,,,,0,0,2,,,0,,,50,58
70800,note_off,,,,,120,0,2,,,0,,,55,64
70920,note_off,,,,,120,0,2,,,0,,,50,64
70920,note_on,,,,,0,0,2,,,0,,,47,53
71040,note_off,,,,,120,0,2,,,0,,,47,64
71040,note_on,,,,,0,0,2,,,0,,,43,46
71160,note_off,,,,,120,0,2,,,0,,,43,64
71160,note_off,,,,,600,0,1,,,0,,,59,64
71160,note_off,,,,,0,0,1,,,0,,,62,64
71200,set_tempo,,,,,2080,1,0,382166,,,,,,
71220,control_change,,,,,60,0,1,,,0,64,0,,
71250,note_on,,,,,30,0,1,,,0,,,67,71
71280,note_on,,,,,120,0,2,,,0,,,59,82
71280,note_on,,,,,0,0,2,,,0,,,43,88
71280,note_off,,,,,30,0,1,,,0,,,67,64
71280,set_tempo,,,,,80,1,0,267857,,,,,,
71280,note_on,,,,,0,0,1,,,0,,,65,72
71286,control_change,,,,,6,0,1,,,0,64,96,,
71300,set_tempo,,,,,20,1,0,256410,,,,,,
71400,note_off,,,,,114,0,1,,,0,,,65,64
71400,note_on,,,,,0,0,1,,,0,,,64,44
71520,note_on,,,,,240,0,2,,,0,,,50,78
71520,note_off,,,,,120,0,1,,,0,,,64,64
71520,note_on,,,,,0,0,1,,,0,,,65,49
71640,note_off,,,,,120,0,1,,,0,,,65,64
71640,note_on,,,,,0,0,1,,,0,,,64,53
71760,note_off,,,,,120,0,1,,,0,,,64,64
71760,note_off,,,,,240,0,2,,,0,,,50,64
71760,note_on,,,,,0,0,2,,,0,,,55,70
71760,note_on,,,,,0,0,1,,,0,,,65,58
71880,note_on,,,,,0,0,1,,,0,,,69,61
71880,note_off,,,,,120,0,1,,,0,,,65,64
71940,note_off,,,,,180,0,2,,,0,,,55,64
71940,control_change,,,,,0,0,1,,,0,64,0,,
71940,note_off,,,,,60,0,1,,,0,,,69,64
72000,note_on,,,,,60,0,1,,,0,,,69,67
72000,control_change,,,,,0,0,1,,,0,64,96,,
72000,note_off,,,,,60,0,2,,,0,,,43,64
72000,note_off,,,,,0,0,2,,,0,,,59,64
72000,note_on,,,,,0,0,2,,,0,,,64,80
72000,note_on,,,,,0,0,2,,,0,,,60,80
72000,note_on,,,,,0,0,2,,,0,,,43,84
72120,note_off,,,,,120,0,1,,,0,,,69,64
72120,note_on,,,,,0,0,1,,,0,,,67,62
72240,note_off,,,,,120,0,1,,,0,,,67,64
72240,note_on,,,,,0,0,1,,,0,,,64,56
72240,note_off,,,,,240,0,2,,,0,,,60,64
72240,note_off,,,,,0,0,2,,,0,,,64,64
72240,note_on,,,,,0,0,2,,,0,,,52,73
72360,note_on,,,,,0,0,1,,,0,,,60,46
72360,note_off,,,,,120,0,1,,,0,,,64,64
72480,note_off,,,,,120,0,1,,,0,,,60,64
72480,note_off,,,,,240,0,2,,,0,,,52,64
72480,note_on,,,,,0,0,1,,,0,,,64,56
72480,note_on,,,,,0,0,2,,,0,,,55,55
72600,note_on,,,,,0,0,1,,,0,,,76,47
72600,note_off,,,,,120,0,1,,,0,,,64,64
72660,note_off,,,,,60,0,1,,,0,,,76,64
72660,note_off,,,,,180,0,2,,,0,,,55,64
72660,control_change,,,,,0,0,1,,,0,64,0,,
72720,control_change,,,,,0,0,1,,,0,64,96,,
72720,note_on,,,,,0,0,2,,,0,,,65,88
72720,note_off,,,,,60,0,2,,,0,,,43,64
72720,note_on,,,,,0,0,2,,,0,,,43,88
72720,note_on,,,,,0,0,2,,,0,,,71,88
72720,note_on,,,,,60,0,1,,,0,,,76,74
72840,note_off,,,,,120,0,1,,,0,,,76,64
72840,note_on,,,,,0,0,1,,,0,,,74,63
72960,note_on,,,,,0,0,2,,,0,,,50,76
72960,note_on,,,,,0,0,2,,,0,,,62,62
72960,note_on,,,,,0,0,2,,,0,,,65,62
72960,note_off,,,,,0,0,2,,,0,,,71,64
72960,note_off,,,,,240,0,2,,,0,,,65,64
72960,note_off,,,,,120,0,1,,,0,,,74,64
72960,note_on,,,,,0,0,1,,,0,,,72,54
73080,note_off,,,,,120,0,1,,,0,,,72,64
73080,note_on,,,,,0,0,1,,,0,,,71,48
73200,note_off,,,,,120,0,1,,,0,,,71,64
73200,note_on,,,,,0,0,1,,,0,,,69,62
73200,note_on,,,,,0,0,2,,,0,,,59,62
73200,note_off,,,,,240,0,2,,,0,,,50,64
73200,note_off,,,,,0,0,2,,,0,,,62,64
73200,note_off,,,,,0,0,2,,,0,,,65,64
73200,note_on,,,,,0,0,2,,,0,,,65,62
73200,note_on,,,,,0,0,2,,,0,,,55,71
73320,note_on,,,,,0,0,1,,,0,,,67,46
73320,note_off,,,,,120,0,1,,,0,,,69,64
73380,note_off,,,,,0,0,2,,,0,,,59,64
73380,note_off,,,,,0,0,2,,,0,,,65,64
73380,control_change,,,,,60,0,1,,,0,64,0,,
73380,note_off,,,,,180,0,2,,,0,,,55,64
73440,note_off,,,,,60,0,2,,,0,,,43,64
73440,note_on,,,,,0,0,2,,,0,,,43,78
73440,note_on,,,,,0,0,2,,,0,,,60,74
73440,note_on,,,,,0,0,2,,,0,,,64,74
73440,note_off,,,,,60,0,1,,,0,,,67,64
73440,note_on,,,,,0,0,1,,,0,,,69,63
73440,control_change,,,,,0,0,1,,,0,64,96,,
73560,note_off,,,,,120,0,1,,,0,,,69,64
73560,note_on,,,,,0,0,1,,,0,,,67,53
73660,note_off,,,,,100,0,1,,,0,,,67,64
73680,note_on,,,,,0,0,2,,,0,,,52,65
73680,note_on,,,,,20,0,1,,,0,,,64,44
73680,note_off,,,,,0,0,2,,,0,,,64,64
73680,note_off,,,,,240,0,2,,,0,,,60,64
73770,note_off,,,,,90,0,1,,,0,,,64,64
73800,note_on,,,,,30,0,1,,,0,,,60,41
73890,note_off,,,,,90,0,1,,,0,,,60,64
73920,note_on,,,,,0,0,2,,,0,,,55,51
73920,note_on,,,,,30,0,1,,,0,,,55,37
73920,note_off,,,,,240,0,2,,,0,,,52,64
74010,note_off,,,,,90,0,1,,,0,,,55,64
74040,control_change,,,,,30,0,1,,,0,64,0,,
74100,note_off,,,,,180,0,2,,,0,,,55,64
74120,set_tempo,,,,,2820,1,0,384615,,,,,,
74130,note_on,,,,,90,0,1,,,0,,,79,56
74160,note_off,,,,,30,0,1,,,0,,,79,64
74160,set_tempo,,,,,40,1,0,256410,,,,,,
74160,note_on,,,,,0,0,2,,,0,,,71,82
74160,note_on,,,,,0,0,2,,,0,,,43,88
74160,note_off,,,,,60,0,2,,,0,,,43,64
74160,note_on,,,,,0,0,1,,,0,,,77,72
74166,control_change,,,,,6,0,1,,,0,64,96,,
74200,set_tempo,,,,,40,1,0,255319,,,,,,
74220,set_tempo,,,,,20,1,0,250000,,,,,,
74280,note_off,,,,,114,0,1,,,0,,,77,64
74280,note_on,,,,,0,0,1,,,0,,,76,44
74400,note_on,,,,,240,0,2,,,0,,,50,78
74400,note_on,,,,,0,0,1,,,0,,,77,49
74400,note_off,,,,,120,0,1,,,0,,,76,64
74460,set_tempo,,,,,240,1,0,248963,,,,,,
74520,note_on,,,,,0,0,1,,,0,,,76,53
74520,note_off,,,,,120,0,1,,,0,,,77,64
74640,note_off,,,,,120,0,1,,,0,,,76,64
74640,note_on,,,,,0,0,1,,,0,,,77,58
74640,note_on,,,,,0,0,2,,,0,,,55,70
74640,note_off,,,,,240,0,2,,,0,,,50,64
74760,note_on,,,,,0,0,1,,,0,,,81,61
74760,note_off,,,,,120,0,1,,,0,,,77,64
74820,note_off,,,,,180,0,2,,,0,,,55,64
74820,control_change,,,,,0,0,1,,,0,64,0,,
74820,note_off,,,,,60,0,1,,,0,,,81,64
74880,note_on,,,,,60,0,1,,,0,,,81,67
74880,control_change,,,,,0,0,1,,,0,64,96,,
74880,note_off,,,,,60,0,2,,,0,,,43,64
74880,note_off,,,,,0,0,2,,,0,,,71,64
74880,note_on,,,,,0,0,2,,,0,,,76,80
74880,note_on,,,,,0,0,2,,,0,,,72,80
74880,note_on,,,,,0,0,2,,,0,,,43,84
75000,set_tempo,,,,,540,1,0,245902,,,,,,
75000,note_off,,,,,120,0,1,,,0,,,81,64
75000,note_on,,,,,0,0,1,,,0,,,79,62
75100,set_tempo,,,,,100,1,0,244898,,,,,,
75120,note_off,,,,,240,0,2,,,0,,,72,64
75120,note_on,,,,,0,0,1,,,0,,,76,56
75120,note_off,,,,,0,0,2,,,0,,,76,64
75120,note_on,,,,,0,0,2,,,0,,,52,73
75120,note_off,,,,,120,0,1,,,0,,,79,64
75240,note_on,,,,,0,0,1,,,0,,,72,46
75240,note_off,,,,,120,0,1,,,0,,,76,64
75340,set_tempo,,,,,240,1,0,242915,,,,,,
75360,note_on,,,,,0,0,1,,,0,,,76,56
75360,note_off,,,,,240,0,2,,,0,,,52,64
75360,note_on,,,,,0,0,2,,,0,,,55,55
75360,note_off,,,,,120,0,1,,,0,,,72,64
75480,note_on,,,,,0,0,1,,,0,,,88,47
75480,note_off,,,,,120,0,1,,,0,,,76,64
75480,set_tempo,,,,,140,1,0,241935,,,,,,
75540,note_off,,,,,60,0,1,,,0,,,88,64
75540,control_change,,,,,0,0,1,,,0,64,0,,
75540,note_off,,,,,180,0,2,,,0,,,55,64
75600,note_on,,,,,0,0,2,,,0,,,83,88
75600,control_change,,,,,0,0,1,,,0,64,96,,
75600,note_on,,,,,60,0,1,,,0,,,88,74
75600,note_on,,,,,0,0,2,,,0,,,77,88
75600,note_on,,,,,0,0,2,,,0,,,43,88
75600,note_off,,,,,60,0,2,,,0,,,43,64
75640,set_tempo,,,,,160,1,0,240000,,,,,,
75720,note_on,,,,,0,0,1,,,0,,,86,63
75720,note_off,,,,,120,0,1,,,0,,,88,64
75840,note_on,,,,,0,0,2,,,0,,,74,62
75840,note_on,,,,,0,0,2,,,0,,,50,76
75840,note_on,,,,,0,0,1,,,0,,,84,54
75840,note_off,,,,,120,0,1,,,0,,,86,64
75840,note_off,,,,,0,0,2,,,0,,,83,64
75840,note_off,,,,,240,0,2,,,0,,,77,64
75840,note_on,,,,,0,0,2,,,0,,,77,62
75960,note_off,,,,,120,0,1,,,0,,,84,64
75960,note_on,,,,,0,0,1,,,0,,,83,48
76080,note_off,,,,,0,0,2,,,0,,,74,64
76080,note_off,,,,,240,0,2,,,0,,,50,64
76080,note_on,,,,,0,0,2,,,0,,,77,62
76080,note_on,,,,,0,0,2,,,0,,,71,62
76080,note_on,,,,,0,0,2,,,0,,,55,71
76080,note_off,,,,,0,0,2,,,0,,,77,64
76080,note_on,,,,,0,0,1,,,0,,,81,62
76080,note_off,,,,,120,0,1,,,0,,,83,64
76200,note_on,,,,,0,0,1,,,0,,,79,46
76200,note_off,,,,,120,0,1,,,0,,,81,64
76260,note_off,,,,,180,0,2,,,0,,,55,64
76260,note_off,,,,,0,0,2,,,0,,,71,64
76260,note_off,,,,,0,0,2,,,0,,,77,64
76260,control_change,,,,,60,0,1,,,0,64,0,,
76320,note_on,,,,,0,0,2,,,0,,,43,78
76320,note_off,,,,,60,0,1,,,0,,,79,64
76320,control_change,,,,,0,0,1,,,0,64,96,,
76320,note_on,,,,,0,0,1,,,0,,,81,63
76320,note_off,,,,,60,0,2,,,0,,,43,64
76320,note_on,,,,,0,0,2,,,0,,,76,74
76320,note_on,,,,,0,0,2,,,0,,,72,74
76340,set_tempo,,,,,700,1,0,237154,,,,,,
76440,note_on,,,,,0,0,1,,,0,,,79,53
76440,note_off,,,,,120,0,1,,,0,,,81,64
76540,note_off,,,,,100,0,1,,,0,,,79,64
76560,note_off,,,,,0,0,2,,,0,,,76,64
76560,note_off,,,,,240,0,2,,,0,,,72,64
76560,note_on,,,,,0,0,2,,,0,,,52,59
76560,note_on,,,,,20,0,1,,,0,,,76,44
76650,note_off,,,,,90,0,1,,,0,,,76,64
76680,note_on,,,,,30,0,1,,,0,,,72,41
76770,note_off,,,,,90,0,1,,,0,,,72,64
76800,note_on,,,,,30,0,1,,,0,,,76,48
76800,note_on,,,,,0,0,2,,,0,,,55,68
76800,note_off,,,,,240,0,2,,,0,,,52,64
76900,set_tempo,,,,,560,1,0,236220,,,,,,
76920,note_on,,,,,0,0,1,,,0,,,88,56
76920,note_off,,,,,120,0,1,,,0,,,76,64
76980,note_off,,,,,180,0,2,,,0,,,55,64
76980,note_off,,,,,60,0,1,,,0,,,88,64
77040,note_off,,,,,60,0,2,,,0,,,43,64
77040,note_on,,,,,0,0,2,,,0,,,77,88
77040,note_on,,,,,60,0,1,,,0,,,88,74
77040,control_change,,,,,0,0,1,,,0,64,96,,
77040,note_on,,,,,0,0,2,,,0,,,43,88
77040,note_on,,,,,0,0,2,,,0,,,83,88
77120,set_tempo,,,,,220,1,0,237154,,,,,,
77160,note_off,,,,,120,0,1,,,0,,,88,64
77160,note_on,,,,,0,0,1,,,0,,,86,63
77160,set_tempo,,,,,40,1,0,240000,,,,,,
77240,set_tempo,,,,,80,1,0,241935,,,,,,
77280,note_on,,,,,0,0,2,,,0,,,50,63
77280,note_off,,,,,0,0,2,,,0,,,83,64
77280,note_on,,,,,0,0,2,,,0,,,77,63
77280,note_on,,,,,0,0,2,,,0,,,74,63
77280,set_tempo,,,,,40,1,0,242915,,,,,,
77280,note_off,,,,,240,0,2,,,0,,,77,64
77280,note_on,,,,,0,0,1,,,0,,,84,54
77280,note_off,,,,,120,0,1,,,0,,,86,64
77320,set_tempo,,,,,40,1,0,244898,,,,,,
77400,note_on,,,,,0,0,1,,,0,,,83,57
77400,set_tempo,,,,,80,1,0,248963,,,,,,
77400,note_off,,,,,120,0,1,,,0,,,84,64
77440,set_tempo,,,,,40,1,0,250000,,,,,,
77460,set_tempo,,,,,20,1,0,251046,,,,,,
77480,set_tempo,,,,,20,1,0,255319,,,,,,
77520,note_off,,,,,120,0,1,,,0,,,83,64
77520,note_off,,,,,240,0,2,,,0,,,50,64
77520,note_off,,,,,0,0,2,,,0,,,74,64
77520,note_on,,,,,0,0,1,,,0,,,81,65
77520,note_off,,,,,0,0,2,,,0,,,77,64
77520,set_tempo,,,,,40,1,0,256410,,,,,,
77520,note_on,,,,,0,0,2,,,0,,,71,73
77520,note_on,,,,,0,0,2,,,0,,,55,73
77520,note_on,,,,,0,0,2,,,0,,,77,73
77540,set_tempo,,,,,20,1,0,258621,,,,,,
77580,set_tempo,,,,,40,1,0,259740,,,,,,
77620,set_tempo,,,,,40,1,0,260870,,,,,,
77640,set_tempo,,,,,20,1,0,263158,,,,,,
77640,note_on,,,,,0,0,1,,,0,,,79,61
77640,note_off,,,,,120,0,1,,,0,,,81,64
77700,set_tempo,,,,,60,1,0,265487,,,,,,
77700,note_off,,,,,0,0,2,,,0,,,77,64
77700,note_off,,,,,0,0,2,,,0,,,71,64
77700,note_off,,,,,180,0,2,,,0,,,55,64
77700,control_change,,,,,60,0,1,,,0,64,0,,
77740,set_tempo,,,,,40,1,0,267857,,,,,,
77760,note_off,,,,,60,0,2,,,0,,,43,64
77760,note_on,,,,,0,0,2,,,0,,,76,77
77760,note_on,,,,,0,0,2,,,0,,,72,77
77760,note_on,,,,,0,0,2,,,0,,,43,86
77760,control_change,,,,,0,0,1,,,0,64,96,,
77760,note_on,,,,,0,0,1,,,0,,,81,74
77760,note_off,,,,,60,0,1,,,0,,,79,64
77802,set_tempo,,,,,62,1,0,270270,,,,,,
77822,set_tempo,,,,,20,1,0,271493,,,,,,
77842,set_tempo,,,,,20,1,0,273973,,,,,,
77880,note_off,,,,,120,0,1,,,0,,,81,64
77880,note_on,,,,,0,0,1,,,0,,,79,65
77882,set_tempo,,,,,40,1,0,276498,,,,,,
77922,set_tempo,,,,,40,1,0,280374,,,,,,
77962,set_tempo,,,,,40,1,0,281690,,,,,,
77980,note_off,,,,,100,0,1,,,0,,,79,64
78000,note_off,,,,,240,0,2,,,0,,,72,64
78000,note_off,,,,,0,0,2,,,0,,,76,64
78000,note_on,,,,,0,0,2,,,0,,,52,59
78000,note_on,,,,,20,0,1,,,0,,,76,52
78002,set_tempo,,,,,40,1,0,285714,,,,,,
78090,note_off,,,,,90,0,1,,,0,,,76,64
78120,note_on,,,,,30,0,1,,,0,,,72,42
78122,set_tempo,,,,,120,1,0,291262,,,,,,
78162,set_tempo,,,,,40,1,0,292683,,,,,,
78202,set_tempo,,,,,40,1,0,300000,,,,,,
78210,note_off,,,,,90,0,1,,,0,,,72,64
78240,note_on,,,,,0,0,2,,,0,,,55,37
78240,note_off,,,,,240,0,2,,,0,,,52,64
78240,note_on,,,,,30,0,1,,,0,,,67,31
78262,set_tempo,,,,,60,1,0,304569,,,,,,
78282,set_tempo,,,,,20,1,0,306122,,,,,,
78330,note_off,,,,,90,0,1,,,0,,,67,64
78360,control_change,,,,,30,0,1,,,0,64,0,,
78362,set_tempo,,,,,80,1,0,310881,,,,,,
78382,set_tempo,,,,,20,1,0,314136,,,,,,
78420,note_off,,,,,180,0,2,,,0,,,55,64
78422,set_tempo,,,,,40,1,0,317460,,,,,,
78462,set_tempo,,,,,40,1,0,320856,,,,,,
78480,note_on,,,,,0,0,2,,,0,,,72,67
78480,note_on,,,,,0,0,2,,,0,,,43,77
78480,note_on,,,,,120,0,1,,,0,,,81,51
78480,control_change,,,,,0,0,1,,,0,64,96,,
78480,note_off,,,,,60,0,2,,,0,,,43,64
78480,note_on,,,,,0,0,2,,,0,,,76,67
78482,set_tempo,,,,,20,1,0,326087,,,,,,
78522,set_tempo,,,,,40,1,0,327869,,,,,,
78562,set_tempo,,,,,40,1,0,333333,,,,,,
78582,set_tempo,,,,,20,1,0,335196,,,,,,
78600,note_off,,,,,120,0,1,,,0,,,81,64
78600,note_on,,,,,0,0,1,,,0,,,79,47
78602,set_tempo,,,,,20,1,0,337079,,,,,,
78642,set_tempo,,,,,40,1,0,340909,,,,,,
78662,set_tempo,,,,,20,1,0,344828,,,,,,
78682,set_tempo,,,,,20,1,0,348837,,,,,,
78700,note_off,,,,,100,0,1,,,0,,,79,64
78702,set_tempo,,,,,20,1,0,352941,,,,,,
78720,note_off,,,,,240,0,2,,,0,,,72,64
78720,note_off,,,,,0,0,2,,,0,,,76,64
78720,note_on,,,,,0,0,2,,,0,,,52,45
78720,note_on,,,,,20,0,1,,,0,,,76,39
78762,set_tempo,,,,,60,1,0,355030,,,,,,
78782,set_tempo,,,,,20,1,0,359281,,,,,,
78810,note_off,,,,,90,0,1,,,0,,,76,64
78822,set_tempo,,,,,40,1,0,361446,,,,,,
78840,note_on,,,,,30,0,1,,,0,,,72,32
78842,set_tempo,,,,,20,1,0,363636,,,,,,
78862,set_tempo,,,,,20,1,0,370370,,,,,,
78902,set_tempo,,,,,40,1,0,377358,,,,,,
78930,note_off,,,,,90,0,1,,,0,,,72,64
78942,set_tempo,,,,,40,1,0,379747,,,,,,
78960,note_on,,,,,30,0,1,,,0,,,67,26
78960,note_on,,,,,0,0,2,,,0,,,55,34
78960,note_off,,,,,240,0,2,,,0,,,52,64
78982,set_tempo,,,,,40,1,0,382166,,,,,,
79002,set_tempo,,,,,20,1,0,384615,,,,,,
79050,note_off,,,,,90,0,1,,,0,,,67,64
79080,control_change,,,,,30,0,1,,,0,64,0,,
79122,set_tempo,,,,,120,1,0,389610,,,,,,
79140,note_off,,,,,180,0,2,,,0,,,55,64
79162,set_tempo,,,,,40,1,0,394737,,,,,,
79200,note_on,,,,,0,0,2,,,0,,,43,50
79200,note_on,,,,,0,0,2,,,0,,,76,40
79200,note_on,,,,,0,0,2,,,0,,,72,40
79200,note_off,,,,,60,0,2,,,0,,,43,64
79200,control_change,,,,,0,0,1,,,0,64,96,,
79200,note_on,,,,,120,0,1,,,0,,,81,39
79202,set_tempo,,,,,40,1,0,402685,,,,,,
79282,set_tempo,,,,,80,1,0,405405,,,,,,
79320,note_on,,,,,0,0,1,,,0,,,79,32
79320,note_off,,,,,120,0,1,,,0,,,81,64
79322,set_tempo,,,,,40,1,0,410959,,,,,,
79342,set_tempo,,,,,20,1,0,416667,,,,,,
79420,note_off,,,,,100,0,1,,,0,,,79,64
79440,note_on,,,,,20,0,1,,,0,,,76,25
79440,note_off,,,,,0,0,2,,,0,,,76,64
79440,note_off,,,,,240,0,2,,,0,,,72,64
79440,note_on,,,,,0,0,2,,,0,,,52,30
79530,note_off,,,,,90,0,1,,,0,,,76,64
79560,note_on,,,,,30,0,1,,,0,,,72,22
79562,set_tempo,,,,,220,1,0,419580,,,,,,
79650,note_off,,,,,90,0,1,,,0,,,72,64
79680,note_off,,,,,240,0,2,,,0,,,52,64
79680,note_on,,,,,30,0,1,,,0,,,67,18
79680,note_on,,,,,0,0,2,,,0,,,55,20
79682,set_tempo,,,,,120,1,0,431655,,,,,,
79770,note_off,,,,,90,0,1,,,0,,,67,64
79800,control_change,,,,,30,0,1,,,0,64,0,,
79840,set_tempo,,,,,158,1,0,1500000,,,,,,
79860,note_off,,,,,180,0,2,,,0,,,55,64
79900,set_tempo,,,,,60,1,0,454545,,,,,,
79920,control_change,,,,,120,0,1,,,0,7,112,,
79920,note_off,,,,,60,0,2,,,0,,,43,64
79920,control_change,,,,,0,0,2,,,0,7,112,,
79920,note_on,,,,,0,0,2,,,0,,,56,88
79920,note_on,,,,,0,0,2,,,0,,,52,88
79920,note_on,,,,,0,0,1,,,0,,,93,88
79920,control_change,,,,,0,0,1,,,0,64,95,,
79920,note_on,,,,,0,0,2,,,0,,,49,88
79920,note_on,,,,,0,0,2,,,0,,,44,88
79920,set_tempo,,,,,20,1,0,372671,,,,,,
79966,control_change,,,,,46,0,1,,,0,7,111,,
79966,control_change,,,,,46,0,2,,,0,7,111,,
79980,note_off,,,,,14,0,1,,,0,,,93,64
79980,note_on,,,,,0,0,1,,,0,,,92,86
80000,set_tempo,,,,,80,1,0,271493,,,,,,
80014,control_change,,,,,48,0,2,,,0,7,110,,
80014,control_change,,,,,34,0,1,,,0,7,110,,
80020,set_tempo,,,,,20,1,0,270270,,,,,,
80040,set_tempo,,,,,20,1,0,269058,,,,,,
80040,note_on,,,,,0,0,1,,,0,,,90,83
80040,note_off,,,,,26,0,1,,,0,,,92,64
80060,set_tempo,,,,,20,1,0,267857,,,,,,
80062,control_change,,,,,48,0,2,,,0,7,109,,
80062,control_change,,,,,22,0,1,,,0,7,109,,
80100,note_off,,,,,0,0,2,,,0,,,49,64
80100,note_off,,,,,0,0,2,,,0,,,52,64
80100,note_off,,,,,38,0,1,,,0,,,90,64
80100,note_off,,,,,0,0,2,,,0,,,56,64
80100,note_off,,,,,38,0,2,,,0,,,44,64
80100,note_on,,,,,0,0,1,,,0,,,88,81
80110,control_change,,,,,10,0,2,,,0,7,108,,
80110,control_change,,,,,10,0,1,,,0,7,108,,
80120,set_tempo,,,,,60,1,0,265487,,,,,,
80158,control_change,,,,,48,0,2,,,0,7,107,,
80158,control_change,,,,,48,0,1,,,0,7,107,,
80160,note_on,,,,,2,0,2,,,0,,,56,88
80160,note_on,,,,,0,0,2,,,0,,,49,88
80160,note_on,,,,,0,0,2,,,0,,,44,88
80160,note_off,,,,,2,0,1,,,0,,,88,64
80160,note_on,,,,,0,0,1,,,0,,,87,77
80160,note_on,,,,,0,0,2,,,0,,,52,88
80200,set_tempo,,,,,80,1,0,263158,,,,,,
80206,control_change,,,,,46,0,1,,,0,7,106,,
80206,control_change,,,,,46,0,2,,,0,7,106,,
80220,note_on,,,,,0,0,1,,,0,,,85,77
80220,note_off,,,,,14,0,1,,,0,,,87,64
80254,control_change,,,,,48,0,2,,,0,7,105,,
80254,control_change,,,,,34,0,1,,,0,7,105,,
80260,set_tempo,,,,,60,1,0,260870,,,,,,
80280,note_off,,,,,26,0,1,,,0,,,85,64
80280,note_on,,,,,0,0,1,,,0,,,83,72
80280,set_tempo,,,,,20,1,0,259740,,,,,,
80302,control_change,,,,,22,0,1,,,0,7,104,,
80302,control_change,,,,,48,0,2,,,0,7,104,,
80320,set_tempo,,,,,40,1,0,258621,,,,,,
80340,note_off,,,,,38,0,1,,,0,,,83,64
80340,note_on,,,,,0,0,1,,,0,,,81,71
80350,control_change,,,,,10,0,1,,,0,7,103,,
80350,control_change,,,,,48,0,2,,,0,7,103,,
80360,set_tempo,,,,,40,1,0,256410,,,,,,
80398,control_change,,,,,48,0,1,,,0,7,102,,
80398,control_change,,,,,48,0,2,,,0,7,102,,
80400,note_off,,,,,2,0,1,,,0,,,81,64
80400,note_on,,,,,0,0,1,,,0,,,80,66
80444,control_change,,,,,44,0,1,,,0,7,101,,
80444,control_change,,,,,46,0,2,,,0,7,101,,
80460,note_on,,,,,0,0,1,,,0,,,78,65
80460,note_off,,,,,16,0,1,,,0,,,80,64
80492,control_change,,,,,32,0,1,,,0,7,100,,
80492,control_change,,,,,48,0,2,,,0,7,100,,
80520,note_off,,,,,28,0,1,,,0,,,78,64
80520,note_on,,,,,0,0,1,,,0,,,76,64
80540,control_change,,,,,48,0,2,,,0,7,99,,
80540,control_change,,,,,20,0,1,,,0,7,99,,
80580,note_on,,,,,0,0,1,,,0,,,75,62
80580,note_off,,,,,40,0,1,,,0,,,76,64
80588,control_change,,,,,48,0,2,,,0,7,98,,
80588,control_change,,,,,8,0,1,,,0,7,98,,
80636,control_change,,,,,48,0,1,,,0,7,97,,
80636,control_change,,,,,48,0,2,,,0,7,97,,
80640,note_on,,,,,0,0,1,,,0,,,73,61
80640,note_off,,,,,4,0,1,,,0,,,75,64
80684,control_change,,,,,48,0,2,,,0,7,96,,
80684,control_change,,,,,44,0,1,,,0,7,96,,
80700,note_off,,,,,16,0,1,,,0,,,73,64
80700,note_on,,,,,0,0,1,,,0,,,71,60
80732,control_change,,,,,48,0,2,,,0,7,95,,
80732,control_change,,,,,32,0,1,,,0,7,95,,
80760,note_on,,,,,0,0,1,,,0,,,69,60
80760,note_off,,,,,28,0,1,,,0,,,71,64
80780,control_change,,,,,48,0,2,,,0,7,94,,
80780,control_change,,,,,20,0,1,,,0,7,94,,
80820,note_on,,,,,0,0,1,,,0,,,68,56
80820,note_off,,,,,40,0,1,,,0,,,69,64
80828,control_change,,,,,8,0,1,,,0,7,93,,
80828,control_change,,,,,48,0,2,,,0,7,93,,
80876,control_change,,,,,48,0,1,,,0,7,92,,
80876,control_change,,,,,48,0,2,,,0,7,92,,
80880,note_off,,,,,4,0,1,,,0,,,68,64
80880,note_on,,,,,0,0,1,,,0,,,66,55
80880,set_tempo,,,,,520,1,0,232558,,,,,,
80924,control_change,,,,,44,0,1,,,0,7,91,,
80924,control_change,,,,,48,0,2,,,0,7,91,,
80960,set_tempo,,,,,80,1,0,233463,,,,,,
80960,note_off,,,,,36,0,1,,,0,,,66,64
80960,note_on,,,,,0,0,1,,,0,,,64,53
80970,control_change,,,,,10,0,1,,,0,7,90,,
80970,control_change,,,,,46,0,2,,,0,7,90,,
80980,set_tempo,,,,,20,1,0,236220,,,,,,
81018,control_change,,,,,48,0,2,,,0,7,89,,
81018,control_change,,,,,48,0,1,,,0,7,89,,
81040,note_on,,,,,0,0,1,,,0,,,63,51
81040,set_tempo,,,,,60,1,0,237154,,,,,,
81040,note_off,,,,,22,0,1,,,0,,,64,64
81066,control_change,,,,,26,0,1,,,0,7,88,,
81066,control_change,,,,,48,0,2,,,0,7,88,,
81080,set_tempo,,,,,40,1,0,240000,,,,,,
81114,control_change,,,,,48,0,1,,,0,7,87,,
81114,control_change,,,,,48,0,2,,,0,7,87,,
81120,set_tempo,,,,,40,1,0,241935,,,,,,
81120,note_on,,,,,0,0,1,,,0,,,61,49
81120,note_off,,,,,6,0,1,,,0,,,63,64
81160,set_tempo,,,,,40,1,0,242915,,,,,,
81162,control_change,,,,,42,0,1,,,0,7,86,,
81162,control_change,,,,,48,0,2,,,0,7,86,,
81200,note_off,,,,,38,0,1,,,0,,,61,64
81200,note_on,,,,,0,0,1,,,0,,,59,45
81200,set_tempo,,,,,40,1,0,244898,,,,,,
81210,control_change,,,,,48,0,2,,,0,7,85,,
81210,control_change,,,,,10,0,1,,,0,7,85,,
81220,set_tempo,,,,,20,1,0,245902,,,,,,
81258,control_change,,,,,48,0,1,,,0,7,84,,
81258,control_change,,,,,48,0,2,,,0,7,84,,
81260,set_tempo,,,,,40,1,0,248963,,,,,,
81280,note_off,,,,,22,0,1,,,0,,,59,64
81280,note_on,,,,,0,0,1,,,0,,,57,42
81300,set_tempo,,,,,40,1,0,250000,,,,,,
81306,control_change,,,,,48,0,2,,,0,7,83,,
81306,control_change,,,,,26,0,1,,,0,7,83,,
81320,set_tempo,,,,,20,1,0,251046,,,,,,
81354,control_change,,,,,48,0,2,,,0,7,82,,
81354,control_change,,,,,48,0,1,,,0,7,82,,
81360,set_tempo,,,,,40,1,0,253165,,,,,,
81360,control_change,,,,,0,0,1,,,0,64,0,,
81360,note_on,,,,,0,0,2,,,0,,,32,73
81360,note_off,,,,,6,0,1,,,0,,,57,64
81360,note_on,,,,,0,0,2,,,0,,,44,73
81360,note_off,,,,,0,0,2,,,0,,,56,64
81360,note_off,,,,,0,0,2,,,0,,,52,64
81360,note_off,,,,,0,0,2,,,0,,,49,64
81360,note_off,,,,,6,0,2,,,0,,,44,64
81360,note_on,,,,,0,0,1,,,0,,,56,57
81380,set_tempo,,,,,20,1,0,382166,,,,,,
81402,control_change,,,,,42,0,2,,,0,7,81,,
81402,control_change,,,,,42,0,1,,,0,7,81,,
81450,note_off,,,,,48,0,1,,,0,,,56,64
81450,control_change,,,,,0,0,1,,,0,7,80,,
81450,control_change,,,,,0,0,2,,,0,7,80,,
81450,note_off,,,,,0,0,2,,,0,,,44,64
81450,note_off,,,,,48,0,2,,,0,,,32,64
81540,set_tempo,,,,,160,1,0,379747,,,,,,
81600,note_on,,,,,0,0,1,,,0,,,63,88
81600,control_change,,,,,0,0,1,,,0,64,97,,
81600,note_on,,,,,0,0,1,,,0,,,60,88
81600,note_on,,,,,150,0,2,,,0,,,56,88
81600,note_on,,,,,150,0,1,,,0,,,68,88
81600,note_on,,,,,0,0,2,,,0,,,44,88
81720,note_off,,,,,0,0,2,,,0,,,56,64
81720,note_off,,,,,120,0,2,,,0,,,44,64
81720,note_off,,,,,0,0,1,,,0,,,68,64
81720,note_off,,,,,0,0,1,,,0,,,63,64
81720,note_off,,,,,120,0,1,,,0,,,60,64
81820,set_tempo,,,,,280,1,0,1132075,,,,,,
81840,control_change,,,,,120,0,1,,,0,64,0,,
81980,set_tempo,,,,,160,1,0,288462,,,,,,
82000,set_tempo,,,,,20,1,0,333333,,,,,,
82020,note_on,,,,,180,0,1,,,0,,,75,28
82040,set_tempo,,,,,40,1,0,329670,,,,,,
82060,set_tempo,,,,,20,1,0,327869,,,,,,
82080,note_off,,,,,60,0,1,,,0,,,75,64
82080,note_on,,,,,0,0,1,,,0,,,73,50
82100,set_tempo,,,,,40,1,0,326087,,,,,,
82120,set_tempo,,,,,20,1,0,324324,,,,,,
82200,note_off,,,,,120,0,1,,,0,,,73,64
82200,note_on,,,,,0,0,1,,,0,,,72,45
82200,set_tempo,,,,,80,1,0,320856,,,,,,
82240,set_tempo,,,,,40,1,0,319149,,,,,,
82280,set_tempo,,,,,40,1,0,314136,,,,,,
82320,note_on,,,,,0,0,2,,,0,,,64,47
82320,note_on,,,,,600,0,2,,,0,,,68,47
82320,note_off,,,,,120,0,1,,,0,,,72,64
82320,note_on,,,,,0,0,1,,,0,,,73,42
82320,note_on,,,,,0,0,2,,,0,,,61,47
82400,set_tempo,,,,,120,1,0,312500,,,,,,
82440,note_on,,,,,0,0,1,,,0,,,76,37
82440,note_off,,,,,120,0,1,,,0,,,73,64
82460,set_tempo,,,,,60,1,0,310881,,,,,,
82500,set_tempo,,,,,40,1,0,307692,,,,,,
82540,set_tempo,,,,,40,1,0,306122,,,,,,
82560,set_tempo,,,,,20,1,0,304569,,,,,,
82560,note_on,,,,,0,0,1,,,0,,,73,27
82560,note_off,,,,,120,0,1,,,0,,,76,64
82560,note_off,,,,,0,0,2,,,0,,,68,64
82560,note_off,,,,,240,0,2,,,0,,,61,64
82560,note_off,,,,,0,0,2,,,0,,,64,64
82580,set_tempo,,,,,20,1,0,303030,,,,,,
82640,set_tempo,,,,,60,1,0,300000,,,,,,
82660,set_tempo,,,,,20,1,0,298507,,,,,,
82680,note_off,,,,,120,0,1,,,0,,,73,64
82700,set_tempo,,,,,40,1,0,348837,,,,,,
82760,set_tempo,,,,,60,1,0,350877,,,,,,
82800,note_on,,,,,120,0,1,,,0,,,78,47
82880,set_tempo,,,,,120,1,0,352941,,,,,,
83040,set_tempo,,,,,160,1,0,314136,,,,,,
83040,note_on,,,,,480,0,2,,,0,,,66,44
83040,note_on,,,,,0,0,2,,,0,,,61,44
83040,note_on,,,,,0,0,2,,,0,,,57,44
83340,note_off,,,,,300,0,2,,,0,,,57,64
83340,note_off,,,,,0,0,2,,,0,,,61,64
83340,note_off,,,,,0,0,2,,,0,,,66,64
83430,note_off,,,,,630,0,1,,,0,,,78,64
83460,note_on,,,,,30,0,1,,,0,,,75,41
83500,set_tempo,,,,,460,1,0,312500,,,,,,
83520,note_off,,,,,60,0,1,,,0,,,75,64
83520,set_tempo,,,,,20,1,0,307692,,,,,,
83520,note_on,,,,,0,0,1,,,0,,,73,49
83580,set_tempo,,,,,60,1,0,304569,,,,,,
83600,set_tempo,,,,,20,1,0,303030,,,,,,
83640,note_off,,,,,120,0,1,,,0,,,73,64
83640,note_on,,,,,0,0,1,,,0,,,72,40
83660,set_tempo,,,,,60,1,0,300000,,,,,,
83680,set_tempo,,,,,20,1,0,298507,,,,,,
83700,set_tempo,,,,,20,1,0,297030,,,,,,
83740,set_tempo,,,,,40,1,0,294118,,,,,,
83760,note_on,,,,,0,0,2,,,0,,,56,52
83760,note_on,,,,,0,0,2,,,0,,,61,52
83760,note_on,,,,,420,0,2,,,0,,,64,52
83760,note_on,,,,,0,0,1,,,0,,,73,44
83760,note_off,,,,,120,0,1,,,0,,,72,64
83800,set_tempo,,,,,60,1,0,292683,,,,,,
83860,set_tempo,,,,,60,1,0,291262,,,,,,
83880,note_off,,,,,120,0,1,,,0,,,73,64
83880,note_on,,,,,0,0,1,,,0,,,76,48
83960,set_tempo,,,,,100,1,0,288462,,,,,,
83980,set_tempo,,,,,20,1,0,287081,,,,,,
84000,note_off,,,,,0,0,2,,,0,,,64,64
84000,note_off,,,,,120,0,1,,,0,,,76,64
84000,note_on,,,,,0,0,1,,,0,,,73,51
84000,note_off,,,,,0,0,2,,,0,,,61,64
84000,note_off,,,,,240,0,2,,,0,,,56,64
84040,set_tempo,,,,,60,1,0,285714,,,,,,
84080,set_tempo,,,,,40,1,0,284360,,,,,,
84120,note_off,,,,,120,0,1,,,0,,,73,64
84140,set_tempo,,,,,60,1,0,342857,,,,,,
84240,note_on,,,,,120,0,1,,,0,,,81,58
84340,set_tempo,,,,,200,1,0,344828,,,,,,
84480,note_on,,,,,0,0,2,,,0,,,57,50
84480,note_on,,,,,480,0,2,,,0,,,62,50
84480,note_on,,,,,0,0,2,,,0,,,54,50
84640,set_tempo,,,,,300,1,0,342857,,,,,,
84700,set_tempo,,,,,60,1,0,303030,,,,,,
84780,note_off,,,,,300,0,2,,,0,,,54,64
84780,note_off,,,,,0,0,2,,,0,,,57,64
84780,note_off,,,,,0,0,2,,,0,,,62,64
84900,note_off,,,,,660,0,1,,,0,,,81,64
84960,set_tempo,,,,,260,1,0,333333,,,,,,
84960,note_on,,,,,60,0,1,,,0,,,81,34
85080,note_off,,,,,120,0,1,,,0,,,81,64
85080,note_on,,,,,0,0,1,,,0,,,80,30
85100,set_tempo,,,,,140,1,0,291262,,,,,,
85184,note_off,,,,,104,0,1,,,0,,,80,64
85200,note_on,,,,,420,0,2,,,0,,,64,41
85200,note_on,,,,,16,0,1,,,0,,,78,32
85200,note_on,,,,,0,0,2,,,0,,,56,41
85200,note_on,,,,,0,0,2,,,0,,,61,41
85320,note_off,,,,,120,0,1,,,0,,,78,64
85320,note_on,,,,,0,0,1,,,0,,,76,22
85424,note_off,,,,,104,0,1,,,0,,,76,64
85440,note_on,,,,,16,0,1,,,0,,,75,30
85440,note_off,,,,,0,0,2,,,0,,,64,64
85440,note_off,,,,,0,0,2,,,0,,,61,64
85440,note_off,,,,,240,0,2,,,0,,,56,64
85560,note_off,,,,,120,0,1,,,0,,,75,64
85560,note_on,,,,,0,0,1,,,0,,,73,21
85664,note_off,,,,,104,0,1,,,0,,,73,64
85680,note_on,,,,,16,0,1,,,0,,,73,35
85680,note_on,,,,,0,0,2,,,0,,,56,50
85680,note_on,,,,,240,0,2,,,0,,,64,50
85720,set_tempo,,,,,620,1,0,292683,,,,,,
85740,set_tempo,,,,,20,1,0,294118,,,,,,
85760,set_tempo,,,,,20,1,0,306122,,,,,,
85800,set_tempo,,,,,40,1,0,307692,,,,,,
85840,set_tempo,,,,,40,1,0,320856,,,,,,
85880,set_tempo,,,,,40,1,0,324324,,,,,,
85900,set_tempo,,,,,20,1,0,327869,,,,,,
85920,note_off,,,,,240,0,2,,,0,,,64,64
85920,note_on,,,,,0,0,2,,,0,,,68,46
85920,note_on,,,,,240,0,1,,,0,,,76,29
85940,set_tempo,,,,,40,1,0,333333,,,,,,
85960,set_tempo,,,,,20,1,0,340909,,,,,,
85980,set_tempo,,,,,20,1,0,342857,,,,,,
86000,set_tempo,,,,,20,1,0,344828,,,,,,
86020,set_tempo,,,,,20,1,0,350877,,,,,,
86040,set_tempo,,,,,20,1,0,355030,,,,,,
86060,set_tempo,,,,,20,1,0,363636,,,,,,
86080,set_tempo,,,,,20,1,0,368098,,,,,,
86100,set_tempo,,,,,20,1,0,377358,,,,,,
86100,note_off,,,,,180,0,2,,,0,,,68,64
86100,note_off,,,,,180,0,1,,,0,,,76,64
86120,set_tempo,,,,,20,1,0,394737,,,,,,
86140,set_tempo,,,,,20,1,0,410959,,,,,,
86160,note_on,,,,,0,0,2,,,0,,,68,29
86160,note_off,,,,,60,0,2,,,0,,,56,64
86160,note_on,,,,,0,0,1,,,0,,,75,25
86160,note_on,,,,,0,0,1,,,0,,,72,25
86160,set_tempo,,,,,20,1,0,413793,,,,,,
86160,note_on,,,,,0,0,2,,,0,,,56,29
86160,note_off,,,,,60,0,1,,,0,,,73,64
86180,set_tempo,,,,,20,1,0,431655,,,,,,
86200,set_tempo,,,,,20,1,0,472441,,,,,,
86220,set_tempo,,,,,20,1,0,487805,,,,,,
86240,set_tempo,,,,,20,1,0,909091,,,,,,
86310,note_off,,,,,150,0,1,,,0,,,72,64
86310,note_off,,,,,0,0,1,,,0,,,75,64
86340,note_off,,,,,0,0,2,,,0,,,68,64
86340,note_on,,,,,30,0,1,,,0,,,63,41
86340,note_off,,,,,180,0,2,,,0,,,56,64
86340,set_tempo,,,,,100,1,0,326087,,,,,,
86400,note_off,,,,,60,0,1,,,0,,,63,64
86400,note_on,,,,,0,0,1,,,0,,,61,50
86440,set_tempo,,,,,100,1,0,324324,,,,,,
86520,note_off,,,,,120,0,1,,,0,,,61,64
86520,set_tempo,,,,,80,1,0,320856,,,,,,
86520,note_on,,,,,0,0,1,,,0,,,60,45
86560,set_tempo,,,,,40,1,0,319149,,,,,,
86600,set_tempo,,,,,40,1,0,314136,,,,,,
86640,note_off,,,,,120,0,1,,,0,,,60,64
86640,note_on,,,,,300,0,2,,,0,,,56,47
86640,note_on,,,,,0,0,2,,,0,,,52,47
86640,note_on,,,,,0,0,2,,,0,,,49,47
86640,note_on,,,,,0,0,1,,,0,,,61,42
86720,set_tempo,,,,,120,1,0,312500,,,,,,
86760,note_off,,,,,120,0,1,,,0,,,61,64
86760,note_on,,,,,0,0,1,,,0,,,64,37
86780,set_tempo,,,,,60,1,0,310881,,,,,,
86820,set_tempo,,,,,40,1,0,307692,,,,,,
86860,set_tempo,,,,,40,1,0,306122,,,,,,
86880,note_on,,,,,0,0,2,,,0,,,56,37
86880,note_off,,,,,240,0,2,,,0,,,49,64
86880,note_off,,,,,0,0,2,,,0,,,56,64
86880,note_off,,,,,0,0,2,,,0,,,52,64
86880,note_on,,,,,0,0,2,,,0,,,49,37
86880,note_on,,,,,0,0,2,,,0,,,52,37
86880,set_tempo,,,,,20,1,0,304569,,,,,,
86880,note_off,,,,,120,0,1,,,0,,,64,64
86880,note_on,,,,,0,0,1,,,0,,,61,27
86900,set_tempo,,,,,20,1,0,303030,,,,,,
86960,set_tempo,,,,,60,1,0,300000,,,,,,
86980,set_tempo,,,,,20,1,0,298507,,,,,,
87000,note_off,,,,,120,0,1,,,0,,,61,64
87020,set_tempo,,,,,40,1,0,297030,,,,,,
87040,set_tempo,,,,,20,1,0,350877,,,,,,
87120,note_off,,,,,0,0,2,,,0,,,52,64
87120,note_off,,,,,240,0,2,,,0,,,49,64
87120,note_off,,,,,0,0,2,,,0,,,56,64
87120,note_on,,,,,120,0,1,,,0,,,66,47
87200,set_tempo,,,,,160,1,0,352941,,,,,,
87360,note_on,,,,,0,0,2,,,0,,,49,42
87360,note_on,,,,,0,0,2,,,0,,,45,42
87360,set_tempo,,,,,160,1,0,314136,,,,,,
87360,note_on,,,,,240,0,2,,,0,,,54,42
87600,note_on,,,,,0,0,2,,,0,,,45,33
87600,note_off,,,,,240,0,2,,,0,,,45,64
87600,note_off,,,,,0,0,2,,,0,,,49,64
87600,note_off,,,,,0,0,2,,,0,,,54,64
87600,note_on,,,,,0,0,2,,,0,,,54,33
87600,note_on,,,,,0,0,2,,,0,,,49,33
87750,note_off,,,,,630,0,1,,,0,,,66,64
87780,note_on,,,,,30,0,1,,,0,,,63,41
87820,set_tempo,,,,,460,1,0,312500,,,,,,
87840,note_on,,,,,0,0,1,,,0,,,61,49
87840,note_off,,,,,60,0,1,,,0,,,63,64
87840,note_off,,,,,240,0,2,,,0,,,45,64
87840,note_off,,,,,0,0,2,,,0,,,54,64
87840,set_tempo,,,,,20,1,0,307692,,,,,,
87840,note_off,,,,,0,0,2,,,0,,,49,64
87900,set_tempo,,,,,60,1,0,304569,,,,,,
87920,set_tempo,,,,,20,1,0,303030,,,,,,
87960,note_on,,,,,0,0,1,,,0,,,60,45
87960,note_off,,,,,120,0,1,,,0,,,61,64
87980,set_tempo,,,,,60,1,0,300000,,,,,,
88000,set_tempo,,,,,20,1,0,298507,,,,,,
88020,set_tempo,,,,,20,1,0,297030,,,,,,
88060,set_tempo,,,,,40,1,0,294118,,,,,,
88080,note_off,,,,,120,0,1,,,0,,,60,64
88080,note_on,,,,,240,0,2,,,0,,,52,47
88080,note_on,,,,,0,0,1,,,0,,,61,35
88080,set_tempo,,,,,20,1,0,292683,,,,,,
88080,note_on,,,,,0,0,2,,,0,,,49,47
88080,note_on,,,,,0,0,2,,,0,,,44,47
88120,set_tempo,,,,,40,1,0,297030,,,,,,
88140,set_tempo,,,,,20,1,0,298507,,,,,,
88180,set_tempo,,,,,40,1,0,303030,,,,,,
88200,set_tempo,,,,,20,1,0,306122,,,,,,
88200,note_on,,,,,0,0,1,,,0,,,64,42
88200,note_off,,,,,120,0,1,,,0,,,61,64
88220,set_tempo,,,,,20,1,0,307692,,,,,,
88260,set_tempo,,,,,40,1,0,312500,,,,,,
88280,set_tempo,,,,,20,1,0,317460,,,,,,
88300,set_tempo,,,,,20,1,0,319149,,,,,,
88320,note_off,,,,,0,0,2,,,0,,,49,64
88320,note_off,,,,,240,0,2,,,0,,,44,64
88320,note_on,,,,,0,0,1,,,0,,,61,47
88320,note_off,,,,,120,0,1,,,0,,,64,64
88320,note_on,,,,,0,0,2,,,0,,,49,46
88320,note_on,,,,,0,0,2,,,0,,,52,46
88320,note_off,,,,,0,0,2,,,0,,,52,64
88320,note_on,,,,,0,0,2,,,0,,,44,46
88340,set_tempo,,,,,40,1,0,324324,,,,,,
88360,set_tempo,,,,,20,1,0,326087,,,,,,
88380,set_tempo,,,,,20,1,0,327869,,,,,,
88420,set_tempo,,,,,40,1,0,329670,,,,,,
88440,set_tempo,,,,,20,1,0,333333,,,,,,
88440,note_off,,,,,120,0,1,,,0,,,61,64
88460,set_tempo,,,,,20,1,0,335196,,,,,,
88500,set_tempo,,,,,40,1,0,337079,,,,,,
88520,set_tempo,,,,,20,1,0,340909,,,,,,
88560,note_off,,,,,240,0,2,,,0,,,44,64
88560,note_off,,,,,0,0,2,,,0,,,52,64
88560,note_on,,,,,120,0,1,,,0,,,69,55
88560,note_off,,,,,0,0,2,,,0,,,49,64
88560,set_tempo,,,,,40,1,0,342857,,,,,,
88600,set_tempo,,,,,40,1,0,344828,,,,,,
88760,set_tempo,,,,,160,1,0,348837,,,,,,
88800,note_on,,,,,0,0,2,,,0,,,42,48
88800,note_on,,,,,0,0,2,,,0,,,45,48
88800,note_on,,,,,240,0,2,,,0,,,50,48
88880,set_tempo,,,,,120,1,0,350877,,,,,,
88980,set_tempo,,,,,100,1,0,352941,,,,,,
89040,note_on,,,,,0,0,2,,,0,,,50,36
89040,note_off,,,,,0,0,2,,,0,,,50,64
89040,note_off,,,,,0,0,2,,,0,,,45,64
89040,note_off,,,,,240,0,2,,,0,,,42,64
89040,note_on,,,,,0,0,2,,,0,,,45,36
89040,note_on,,,,,0,0,2,,,0,,,42,36
89060,set_tempo,,,,,80,1,0,355030,,,,,,
89180,set_tempo,,,,,120,1,0,472441,,,,,,
89220,note_off,,,,,660,0,1,,,0,,,69,64
89280,note_off,,,,,0,0,2,,,0,,,50,64
89280,note_off,,,,,0,0,2,,,0,,,45,64
89280,note_off,,,,,240,0,2,,,0,,,42,64
89280,set_tempo,,,,,100,1,0,333333,,,,,,
89280,note_on,,,,,60,0,1,,,0,,,69,36
89400,note_off,,,,,120,0,1,,,0,,,69,64
89400,note_on,,,,,0,0,1,,,0,,,68,26
89420,set_tempo,,,,,140,1,0,291262,,,,,,
89504,note_off,,,,,104,0,1,,,0,,,68,64
89520,note_on,,,,,240,0,2,,,0,,,49,41
89520,note_on,,,,,16,0,1,,,0,,,66,31
89520,note_on,,,,,0,0,2,,,0,,,40,41
89640,note_off,,,,,120,0,1,,,0,,,66,64
89640,note_on,,,,,0,0,1,,,0,,,64,24
89660,set_tempo,,,,,240,1,0,292683,,,,,,
89700,set_tempo,,,,,40,1,0,294118,,,,,,
89720,set_tempo,,,,,20,1,0,297030,,,,,,
89744,note_off,,,,,104,0,1,,,0,,,64,64
89760,set_tempo,,,,,40,1,0,298507,,,,,,
89760,note_off,,,,,240,0,2,,,0,,,40,64
89760,note_off,,,,,0,0,2,,,0,,,49,64
89760,note_on,,,,,0,0,2,,,0,,,45,32
89760,note_on,,,,,0,0,2,,,0,,,40,32
89760,note_on,,,,,16,0,1,,,0,,,62,30
89780,set_tempo,,,,,20,1,0,300000,,,,,,
89880,note_off,,,,,120,0,1,,,0,,,62,64
89880,note_on,,,,,0,0,1,,,0,,,61,24
89900,set_tempo,,,,,120,1,0,306122,,,,,,
89920,set_tempo,,,,,20,1,0,310881,,,,,,
89940,set_tempo,,,,,20,1,0,314136,,,,,,
89980,set_tempo,,,,,40,1,0,312500,,,,,,
89984,note_off,,,,,104,0,1,,,0,,,61,64
90000,note_on,,,,,0,0,2,,,0,,,52,40
90000,note_on,,,,,0,0,2,,,0,,,57,40
90000,note_off,,,,,0,0,2,,,0,,,45,64
90000,note_off,,,,,240,0,2,,,0,,,40,64
90000,note_on,,,,,0,0,2,,,0,,,40,40
90000,note_on,,,,,16,0,1,,,0,,,61,36
90020,set_tempo,,,,,40,1,0,314136,,,,,,
90100,set_tempo,,,,,80,1,0,317460,,,,,,
90160,set_tempo,,,,,60,1,0,320856,,,,,,
90220,set_tempo,,,,,60,1,0,324324,,,,,,
90240,note_off,,,,,240,0,2,,,0,,,57,64
90300,set_tempo,,,,,80,1,0,333333,,,,,,
90360,note_off,,,,,360,0,1,,,0,,,61,64
90360,note_on,,,,,0,0,1,,,0,,,62,36
90400,set_tempo,,,,,100,1,0,337079,,,,,,
90440,set_tempo,,,,,40,1,0,344828,,,,,,
90460,set_tempo,,,,,20,1,0,363636,,,,,,
90480,set_tempo,,,,,20,1,0,368098,,,,,,
90480,note_off,,,,,120,0,1,,,0,,,62,64
90480,note_on,,,,,240,0,2,,,0,,,56,29
90480,note_on,,,,,0,0,1,,,0,,,59,25
90500,set_tempo,,,,,20,1,0,389610,,,,,,
90520,set_tempo,,,,,20,1,0,402685,,,,,,
90540,set_tempo,,,,,20,1,0,419580,,,,,,
90560,set_tempo,,,,,20,1,0,454545,,,,,,
90580,set_tempo,,,,,20,1,0,483871,,,,,,
90600,set_tempo,,,,,20,1,0,487805,,,,,,
90620,set_tempo,,,,,20,1,0,508475,,,,,,
90640,set_tempo,,,,,20,1,0,540541,,,,,,
90660,note_off,,,,,0,0,2,,,0,,,40,64
90660,set_tempo,,,,,20,1,0,545455,,,,,,
90660,note_off,,,,,180,0,1,,,0,,,59,64
90660,note_off,,,,,180,0,2,,,0,,,56,64
90660,note_off,,,,,0,0,2,,,0,,,52,64
90680,set_tempo,,,,,20,1,0,845070,,,,,,
90720,set_tempo,,,,,40,1,0,382166,,,,,,
90720,control_change,,,,,0,0,1,,,0,7,56,,
90720,note_on,,,,,60,0,1,,,0,,,81,53
90740,note_on,,,,,20,0,1,,,0,,,85,59
90750,set_tempo,,,,,30,1,0,258621,,,,,,
90760,note_on,,,,,20,0,1,,,0,,,88,62
90840,note_off,,,,,80,0,1,,,0,,,81,64
90860,note_off,,,,,20,0,1,,,0,,,85,64
90880,note_off,,,,,20,0,1,,,0,,,88,64
90960,note_on,,,,,0,0,1,,,0,,,73,48
90960,note_on,,,,,80,0,1,,,0,,,76,48
90960,note_on,,,,,0,0,1,,,0,,,69,48
91080,note_off,,,,,0,0,1,,,0,,,76,64
91080,note_off,,,,,0,0,1,,,0,,,73,64
91080,note_off,,,,,120,0,1,,,0,,,69,64
91200,note_on,,,,,0,0,2,,,0,,,57,49
91200,note_on,,,,,540,0,2,,,0,,,64,49
91200,note_on,,,,,0,0,2,,,0,,,61,49
91320,note_off,,,,,0,0,2,,,0,,,64,64
91320,note_off,,,,,0,0,2,,,0,,,61,64
91320,note_off,,,,,120,0,2,,,0,,,57,64
91440,note_on,,,,,0,0,2,,,0,,,59,67
91440,note_on,,,,,0,0,2,,,0,,,56,67
91440,note_on,,,,,120,0,2,,,0,,,64,67
91620,note_off,,,,,0,0,2,,,0,,,64,64
91620,note_off,,,,,0,0,2,,,0,,,59,64
91620,note_off,,,,,180,0,2,,,0,,,56,64
91680,note_on,,,,,0,0,1,,,0,,,68,45
91680,note_on,,,,,600,0,1,,,0,,,71,45
91800,note_off,,,,,120,0,1,,,0,,,68,64
91800,note_off,,,,,0,0,1,,,0,,,71,64
91800,note_on,,,,,0,0,1,,,0,,,76,36
91890,note_off,,,,,90,0,1,,,0,,,76,64
91920,note_on,,,,,30,0,1,,,0,,,73,48
91920,note_on,,,,,0,0,1,,,0,,,69,48
91920,note_on,,,,,0,0,2,,,0,,,61,46
91920,note_on,,,,,0,0,2,,,0,,,57,46
91920,note_on,,,,,300,0,2,,,0,,,64,46
92040,note_off,,,,,0,0,2,,,0,,,61,64
92040,note_off,,,,,120,0,2,,,0,,,57,64
92040,note_on,,,,,0,0,1,,,0,,,76,41
92040,note_off,,,,,0,0,2,,,0,,,64,64
92040,note_off,,,,,0,0,1,,,0,,,73,64
92040,note_off,,,,,120,0,1,,,0,,,69,64
92100,set_tempo,,,,,1350,1,0,310881,,,,,,
92130,note_off,,,,,90,0,1,,,0,,,76,64
92160,note_on,,,,,30,0,1,,,0,,,83,53
92180,note_on,,,,,20,0,1,,,0,,,86,59
92190,set_tempo,,,,,90,1,0,256410,,,,,,
92200,note_on,,,,,20,0,1,,,0,,,88,62
92280,note_off,,,,,80,0,1,,,0,,,83,64
92300,note_off,,,,,20,0,1,,,0,,,86,64
92320,note_off,,,,,20,0,1,,,0,,,88,64
92400,note_on,,,,,0,0,1,,,0,,,71,48
92400,note_on,,,,,0,0,1,,,0,,,76,48
92400,note_on,,,,,80,0,1,,,0,,,74,48
92520,note_off,,,,,0,0,1,,,0,,,76,64
92520,note_off,,,,,120,0,1,,,0,,,71,64
92520,note_off,,,,,0,0,1,,,0,,,74,64
92640,note_on,,,,,600,0,2,,,0,,,64,49
92640,note_on,,,,,0,0,2,,,0,,,62,49
92640,note_on,,,,,0,0,2,,,0,,,59,49
92760,note_off,,,,,0,0,2,,,0,,,62,64
92760,note_off,,,,,0,0,2,,,0,,,64,64
92760,note_off,,,,,120,0,2,,,0,,,59,64
92880,note_on,,,,,0,0,2,,,0,,,57,67
92880,note_on,,,,,0,0,2,,,0,,,61,67
92880,note_on,,,,,120,0,2,,,0,,,64,67
93060,note_off,,,,,0,0,2,,,0,,,64,64
93060,note_off,,,,,0,0,2,,,0,,,61,64
93060,note_off,,,,,180,0,2,,,0,,,57,64
93120,note_on,,,,,600,0,1,,,0,,,73,44
93120,note_on,,,,,0,0,1,,,0,,,69,44
93240,note_off,,,,,120,0,1,,,0,,,69,64
93240,note_off,,,,,0,0,1,,,0,,,73,64
93240,note_on,,,,,0,0,1,,,0,,,76,37
93330,note_off,,,,,90,0,1,,,0,,,76,64
93360,note_on,,,,,0,0,2,,,0,,,59,46
93360,note_on,,,,,0,0,2,,,0,,,62,46
93360,note_on,,,,,300,0,2,,,0,,,64,46
93360,note_on,,,,,30,0,1,,,0,,,74,51
93360,note_on,,,,,0,0,1,,,0,,,71,51
93480,note_off,,,,,0,0,2,,,0,,,64,64
93480,note_on,,,,,0,0,1,,,0,,,76,42
93480,note_off,,,,,120,0,2,,,0,,,59,64
93480,note_off,,,,,0,0,2,,,0,,,62,64
93480,note_off,,,,,120,0,1,,,0,,,71,64
93480,note_off,,,,,0,0,1,,,0,,,74,64
93530,set_tempo,,,,,1340,1,0,326087,,,,,,
93570,note_off,,,,,90,0,1,,,0,,,76,64
93600,note_on,,,,,30,0,1,,,0,,,85,69
93620,note_on,,,,,20,0,1,,,0,,,88,70
93640,set_tempo,,,,,110,1,0,258621,,,,,,
93640,note_on,,,,,20,0,1,,,0,,,93,72
93720,note_off,,,,,80,0,1,,,0,,,85,64
93740,note_off,,,,,20,0,1,,,0,,,88,64
93760,note_off,,,,,20,0,1,,,0,,,93,64
93840,note_on,,,,,0,0,1,,,0,,,73,56
93840,note_on,,,,,0,0,1,,,0,,,76,56
93840,note_on,,,,,80,0,1,,,0,,,81,56
93960,note_off,,,,,0,0,1,,,0,,,81,64
93960,note_off,,,,,0,0,1,,,0,,,76,64
93960,note_off,,,,,120,0,1,,,0,,,73,64
94080,note_on,,,,,600,0,2,,,0,,,64,67
94080,note_on,,,,,0,0,2,,,0,,,61,67
94200,note_off,,,,,120,0,2,,,0,,,61,64
94200,note_off,,,,,0,0,2,,,0,,,64,64
94320,note_on,,,,,0,0,2,,,0,,,62,86
94320,note_on,,,,,120,0,2,,,0,,,67,86
94320,note_on,,,,,0,0,2,,,0,,,59,86
94560,note_on,,,,,0,0,1,,,0,,,74,45
94560,note_on,,,,,600,0,1,,,0,,,79,45
94560,note_on,,,,,0,0,1,,,0,,,71,45
94680,note_off,,,,,120,0,1,,,0,,,71,64
94680,note_off,,,,,0,0,1,,,0,,,74,64
94680,note_off,,,,,0,0,1,,,0,,,79,64
94800,note_on,,,,,120,0,1,,,0,,,83,54
94820,note_on,,,,,20,0,1,,,0,,,86,56
94840,note_on,,,,,20,0,1,,,0,,,91,58
94920,note_off,,,,,80,0,1,,,0,,,83,64
94940,note_off,,,,,20,0,1,,,0,,,86,64
94960,note_off,,,,,20,0,1,,,0,,,91,64
95010,note_on,,,,,50,0,1,,,0,,,91,64
95040,note_on,,,,,0,0,1,,,0,,,90,73
95040,note_off,,,,,30,0,1,,,0,,,91,64
95040,note_off,,,,,0,0,2,,,0,,,67,64
95040,note_off,,,,,0,0,2,,,0,,,62,64
95040,note_off,,,,,720,0,2,,,0,,,59,64
95160,note_on,,,,,0,0,1,,,0,,,89,54
95160,note_off,,,,,120,0,1,,,0,,,90,64
95280,note_on,,,,,240,0,2,,,0,,,66,67
95280,note_on,,,,,0,0,2,,,0,,,62,67
95280,note_on,,,,,0,0,2,,,0,,,57,67
95280,note_off,,,,,120,0,1,,,0,,,89,64
95280,note_on,,,,,0,0,1,,,0,,,90,65
95400,note_off,,,,,120,0,1,,,0,,,90,64
95400,note_on,,,,,0,0,1,,,0,,,93,69
95460,note_off,,,,,180,0,2,,,0,,,57,64
95460,note_off,,,,,0,0,2,,,0,,,66,64
95460,note_off,,,,,0,0,2,,,0,,,62,64
95520,note_off,,,,,120,0,1,,,0,,,93,64
95520,note_on,,,,,60,0,2,,,0,,,67,49
95520,note_on,,,,,0,0,2,,,0,,,61,49
95520,note_on,,,,,0,0,2,,,0,,,57,49
95520,note_on,,,,,0,0,1,,,0,,,88,75
95640,note_on,,,,,0,0,1,,,0,,,93,78
95640,note_off,,,,,120,0,1,,,0,,,88,64
95700,note_off,,,,,0,0,2,,,0,,,67,64
95700,note_off,,,,,0,0,2,,,0,,,61,64
95700,note_off,,,,,180,0,2,,,0,,,57,64
95760,note_on,,,,,0,0,2,,,0,,,62,62
95760,note_on,,,,,0,0,1,,,0,,,90,80
95760,note_off,,,,,120,0,1,,,0,,,93,64
95760,note_on,,,,,60,0,2,,,0,,,66,62
95880,note_on,,,,,0,0,1,,,0,,,86,72
95880,note_off,,,,,120,0,1,,,0,,,90,64
95984,note_off,,,,,104,0,1,,,0,,,86,64
96000,note_on,,,,,16,0,1,,,0,,,81,58
96090,note_off,,,,,90,0,1,,,0,,,81,64
96120,note_on,,,,,30,0,1,,,0,,,78,48
96210,note_off,,,,,90,0,1,,,0,,,78,64
96240,note_off,,,,,0,0,2,,,0,,,66,64
96240,note_off,,,,,480,0,2,,,0,,,62,64
96240,note_on,,,,,30,0,1,,,0,,,74,29
96330,note_off,,,,,90,0,1,,,0,,,74,64
96440,set_tempo,,,,,2800,1,0,326087,,,,,,
96480,note_on,,,,,150,0,1,,,0,,,83,69
96500,note_on,,,,,20,0,1,,,0,,,86,70
96520,set_tempo,,,,,80,1,0,258621,,,,,,
96520,note_on,,,,,20,0,1,,,0,,,91,72
96600,note_off,,,,,80,0,1,,,0,,,83,64
96620,note_off,,,,,20,0,1,,,0,,,86,64
96640,note_off,,,,,20,0,1,,,0,,,91,64
96720,note_on,,,,,0,0,1,,,0,,,71,56
96720,note_on,,,,,80,0,1,,,0,,,79,56
96720,note_on,,,,,0,0,1,,,0,,,74,56
96840,note_off,,,,,0,0,1,,,0,,,79,64
96840,note_off,,,,,0,0,1,,,0,,,74,64
96840,note_off,,,,,120,0,1,,,0,,,71,64
96960,note_on,,,,,0,0,2,,,0,,,59,67
96960,note_on,,,,,720,0,2,,,0,,,62,67
97080,note_off,,,,,120,0,2,,,0,,,59,64
97080,note_off,,,,,0,0,2,,,0,,,62,64
97200,note_on,,,,,120,0,2,,,0,,,65,86
97200,note_on,,,,,0,0,2,,,0,,,60,86
97200,note_on,,,,,0,0,2,,,0,,,57,86
97440,note_on,,,,,600,0,1,,,0,,,77,43
97440,note_on,,,,,0,0,1,,,0,,,72,43
97440,note_on,,,,,0,0,1,,,0,,,69,43
97560,note_off,,,,,0,0,1,,,0,,,77,64
97560,note_off,,,,,0,0,1,,,0,,,72,64
97560,note_off,,,,,120,0,1,,,0,,,69,64
97680,note_on,,,,,120,0,1,,,0,,,81,54
97700,note_on,,,,,20,0,1,,,0,,,84,56
97720,note_on,,,,,20,0,1,,,0,,,89,58
97800,note_off,,,,,80,0,1,,,0,,,81,64
97820,note_off,,,,,20,0,1,,,0,,,84,64
97840,note_off,,,,,20,0,1,,,0,,,89,64
97890,note_on,,,,,50,0,1,,,0,,,89,55
97920,note_off,,,,,0,0,2,,,0,,,65,64
97920,note_off,,,,,0,0,2,,,0,,,60,64
97920,note_off,,,,,720,0,2,,,0,,,57,64
97920,note_off,,,,,30,0,1,,,0,,,89,64
97920,note_on,,,,,0,0,1,,,0,,,88,60
98040,note_on,,,,,0,0,1,,,0,,,87,37
98040,note_off,,,,,120,0,1,,,0,,,88,64
98160,note_off,,,,,120,0,1,,,0,,,87,64
98160,note_on,,,,,0,0,2,,,0,,,60,52
98160,note_on,,,,,240,0,2,,,0,,,64,52
98160,note_on,,,,,0,0,1,,,0,,,88,49
98160,note_on,,,,,0,0,2,,,0,,,55,52
98280,note_on,,,,,0,0,1,,,0,,,91,58
98280,note_off,,,,,120,0,1,,,0,,,88,64
98400,note_on,,,,,0,0,1,,,0,,,86,66
98400,note_off,,,,,120,0,1,,,0,,,91,64
98400,note_off,,,,,240,0,2,,,0,,,55,64
98400,note_off,,,,,0,0,2,,,0,,,60,64
98400,note_off,,,,,0,0,2,,,0,,,64,64
98400,note_on,,,,,0,0,2,,,0,,,55,42
98400,note_on,,,,,0,0,2,,,0,,,59,42
98400,note_on,,,,,0,0,2,,,0,,,65,42
98520,note_on,,,,,0,0,1,,,0,,,91,74
98520,note_off,,,,,120,0,1,,,0,,,86,64
98610,note_off,,,,,90,0,1,,,0,,,91,64
98610,note_off,,,,,0,0,2,,,0,,,59,64
98610,note_off,,,,,0,0,2,,,0,,,65,64
98610,note_off,,,,,210,0,2,,,0,,,55,64
98640,note_on,,,,,30,0,2,,,0,,,64,52
98640,note_on,,,,,0,0,2,,,0,,,60,52
98640,note_on,,,,,30,0,1,,,0,,,88,89
98760,note_on,,,,,0,0,1,,,0,,,84,72
98760,note_off,,,,,120,0,1,,,0,,,88,64
98864,note_off,,,,,104,0,1,,,0,,,84,64
98880,note_on,,,,,16,0,1,,,0,,,79,58
98980,note_off,,,,,100,0,1,,,0,,,79,64
99000,note_on,,,,,20,0,1,,,0,,,76,48
99090,note_off,,,,,90,0,1,,,0,,,76,64
99120,note_off,,,,,480,0,2,,,0,,,60,64
99120,note_on,,,,,30,0,1,,,0,,,72,29
99120,note_off,,,,,0,0,2,,,0,,,64,64
99210,note_off,,,,,90,0,1,,,0,,,72,64
99330,note_on,,,,,120,0,1,,,0,,,93,55
99330,control_change,,,,,0,0,1,,,0,7,56,,
99360,note_off,,,,,30,0,1,,,0,,,93,64
99360,note_on,,,,,0,0,1,,,0,,,91,60
99360,note_on,,,,,240,0,2,,,0,,,47,72
99396,control_change,,,,,36,0,1,,,0,7,57,,
99464,control_change,,,,,68,0,1,,,0,7,58,,
99480,note_on,,,,,0,0,1,,,0,,,90,52
99480,note_off,,,,,16,0,1,,,0,,,91,64
99532,control_change,,,,,52,0,1,,,0,7,59,,
99600,control_change,,,,,0,0,1,,,0,7,60,,
99600,note_on,,,,,0,0,2,,,0,,,55,52
99600,note_off,,,,,240,0,2,,,0,,,47,64
99600,note_on,,,,,0,0,1,,,0,,,91,58
99600,note_off,,,,,68,0,1,,,0,,,90,64
99666,control_change,,,,,66,0,1,,,0,7,61,,
99720,note_off,,,,,54,0,1,,,0,,,91,64
99720,note_on,,,,,0,0,1,,,0,,,90,65
99734,control_change,,,,,14,0,1,,,0,7,62,,
99802,control_change,,,,,68,0,1,,,0,7,63,,
99840,note_on,,,,,0,0,2,,,0,,,62,65
99840,note_on,,,,,0,0,1,,,0,,,91,72
99840,note_off,,,,,240,0,2,,,0,,,55,64
99840,note_off,,,,,38,0,1,,,0,,,90,64
99870,control_change,,,,,30,0,1,,,0,7,64,,
99936,control_change,,,,,66,0,1,,,0,7,65,,
99960,note_off,,,,,24,0,1,,,0,,,91,64
99960,note_on,,,,,0,0,1,,,0,,,93,78
100004,control_change,,,,,44,0,1,,,0,7,66,,
100050,note_off,,,,,210,0,2,,,0,,,62,64
100050,note_off,,,,,46,0,1,,,0,,,93,64
100072,control_change,,,,,22,0,1,,,0,7,67,,
100080,note_on,,,,,8,0,1,,,0,,,93,88
100080,note_on,,,,,30,0,2,,,0,,,48,79
100140,control_change,,,,,60,0,1,,,0,7,68,,
100200,note_on,,,,,0,0,1,,,0,,,91,84
100200,note_off,,,,,60,0,1,,,0,,,93,64
100206,control_change,,,,,6,0,1,,,0,7,69,,
100274,control_change,,,,,68,0,1,,,0,7,70,,
100304,note_off,,,,,30,0,1,,,0,,,91,64
100320,note_on,,,,,16,0,1,,,0,,,88,76
100320,note_on,,,,,0,0,2,,,0,,,55,66
100320,note_off,,,,,240,0,2,,,0,,,48,64
100342,control_change,,,,,22,0,1,,,0,7,71,,
100410,control_change,,,,,68,0,1,,,0,7,72,,
100420,note_off,,,,,10,0,1,,,0,,,88,64
100440,note_on,,,,,20,0,1,,,0,,,84,70
100476,control_change,,,,,36,0,1,,,0,7,73,,
100530,note_off,,,,,54,0,1,,,0,,,84,64
100544,control_change,,,,,14,0,1,,,0,7,74,,
100560,note_on,,,,,16,0,1,,,0,,,79,64
100560,note_off,,,,,240,0,2,,,0,,,55,64
100560,note_on,,,,,0,0,2,,,0,,,64,67
100612,control_change,,,,,52,0,1,,,0,7,75,,
100650,note_off,,,,,38,0,1,,,0,,,79,64
100680,control_change,,,,,30,0,1,,,0,7,76,,
100740,note_off,,,,,180,0,2,,,0,,,64,64
100746,control_change,,,,,66,0,1,,,0,7,77,,
100780,set_tempo,,,,,4260,1,0,291262,,,,,,
100800,note_on,,,,,0,0,1,,,0,,,77,58
100800,note_on,,,,,60,0,2,,,0,,,50,79
100800,set_tempo,,,,,20,1,0,312500,,,,,,
100800,note_on,,,,,54,0,1,,,0,,,79,58
100814,control_change,,,,,14,0,1,,,0,7,78,,
100882,control_change,,,,,68,0,1,,,0,7,79,,
100890,note_off,,,,,0,0,1,,,0,,,79,64
100890,note_off,,,,,8,0,1,,,0,,,77,64
100900,set_tempo,,,,,100,1,0,291262,,,,,,
100920,note_on,,,,,30,0,1,,,0,,,79,57
100920,note_on,,,,,0,0,1,,,0,,,77,57
100950,control_change,,,,,30,0,1,,,0,7,80,,
100980,note_off,,,,,30,0,1,,,0,,,77,64
100980,note_off,,,,,0,0,1,,,0,,,79,64
100980,set_tempo,,,,,80,1,0,269058,,,,,,
101016,control_change,,,,,36,0,1,,,0,7,81,,
101040,note_off,,,,,240,0,2,,,0,,,50,64
101040,note_on,,,,,24,0,1,,,0,,,79,58
101040,note_on,,,,,0,0,1,,,0,,,77,58
101040,note_on,,,,,0,0,2,,,0,,,59,71
101084,control_change,,,,,44,0,1,,,0,7,82,,
101100,note_off,,,,,16,0,1,,,0,,,77,64
101100,note_off,,,,,0,0,1,,,0,,,79,64
101152,control_change,,,,,52,0,1,,,0,7,83,,
101160,note_on,,,,,8,0,1,,,0,,,79,63
101160,note_on,,,,,0,0,1,,,0,,,77,63
101220,note_off,,,,,60,0,1,,,0,,,77,64
101220,note_off,,,,,0,0,1,,,0,,,79,64
101220,control_change,,,,,0,0,1,,,0,7,84,,
101280,note_on,,,,,60,0,1,,,0,,,79,67
101280,note_on,,,,,0,0,1,,,0,,,77,67
101280,note_off,,,,,240,0,2,,,0,,,59,64
101280,note_on,,,,,0,0,2,,,0,,,65,77
101286,control_change,,,,,6,0,1,,,0,7,85,,
101340,note_off,,,,,0,0,1,,,0,,,79,64
101340,note_off,,,,,54,0,1,,,0,,,77,64
101354,control_change,,,,,14,0,1,,,0,7,86,,
101400,note_on,,,,,0,0,1,,,0,,,77,72
101400,note_on,,,,,46,0,1,,,0,,,79,72
101422,control_change,,,,,22,0,1,,,0,7,87,,
101460,note_off,,,,,38,0,1,,,0,,,77,64
101460,note_off,,,,,0,0,1,,,0,,,79,64
101490,note_off,,,,,210,0,2,,,0,,,65,64
101490,control_change,,,,,30,0,1,,,0,7,88,,
101500,set_tempo,,,,,520,1,0,256410,,,,,,
101520,note_on,,,,,0,0,1,,,0,,,76,79
101520,note_on,,,,,30,0,1,,,0,,,81,79
101520,note_on,,,,,30,0,2,,,0,,,52,72
101556,control_change,,,,,36,0,1,,,0,7,89,,
101624,control_change,,,,,68,0,1,,,0,7,90,,
101640,note_off,,,,,16,0,1,,,0,,,76,64
101640,note_off,,,,,0,0,1,,,0,,,81,64
101640,note_on,,,,,0,0,1,,,0,,,79,83
101692,control_change,,,,,52,0,1,,,0,7,91,,
101744,note_off,,,,,52,0,1,,,0,,,79,64
101760,note_on,,,,,0,0,2,,,0,,,60,52
101760,note_off,,,,,240,0,2,,,0,,,52,64
101760,note_on,,,,,0,0,1,,,0,,,76,74
101760,control_change,,,,,16,0,1,,,0,7,92,,
101826,control_change,,,,,66,0,1,,,0,7,93,,
101850,note_off,,,,,24,0,1,,,0,,,76,64
101880,note_on,,,,,30,0,1,,,0,,,72,66
101894,control_change,,,,,14,0,1,,,0,7,94,,
101962,control_change,,,,,68,0,1,,,0,7,95,,
101970,note_off,,,,,8,0,1,,,0,,,72,64
102000,note_off,,,,,240,0,2,,,0,,,60,64
102000,note_on,,,,,30,0,1,,,0,,,67,41
102000,note_on,,,,,0,0,2,,,0,,,64,42
102030,control_change,,,,,30,0,1,,,0,7,96,,
102080,set_tempo,,,,,580,1,0,327869,,,,,,
102090,note_off,,,,,60,0,1,,,0,,,67,64
102140,set_tempo,,,,,60,1,0,258621,,,,,,
102180,note_off,,,,,180,0,2,,,0,,,64,64
102210,control_change,,,,,0,0,1,,,0,7,80,,
102210,note_on,,,,,120,0,1,,,0,,,90,45
102240,note_off,,,,,30,0,1,,,0,,,90,64
102240,note_on,,,,,60,0,2,,,0,,,44,64
102240,note_on,,,,,0,0,1,,,0,,,88,49
102360,note_on,,,,,0,0,1,,,0,,,87,44
102360,note_off,,,,,120,0,1,,,0,,,88,64
102480,note_off,,,,,120,0,1,,,0,,,87,64
102480,note_on,,,,,0,0,1,,,0,,,88,47
102480,note_on,,,,,0,0,2,,,0,,,52,54
102480,note_off,,,,,240,0,2,,,0,,,44,64
102600,note_on,,,,,0,0,1,,,0,,,87,50
102600,note_off,,,,,120,0,1,,,0,,,88,64
102720,note_on,,,,,0,0,2,,,0,,,59,47
102720,note_off,,,,,240,0,2,,,0,,,52,64
102720,note_off,,,,,120,0,1,,,0,,,87,64
102720,note_on,,,,,0,0,1,,,0,,,88,53
102840,note_off,,,,,120,0,1,,,0,,,88,64
102840,note_on,,,,,0,0,1,,,0,,,90,57
102930,note_off,,,,,210,0,2,,,0,,,59,64
102930,note_off,,,,,90,0,1,,,0,,,90,64
102960,note_on,,,,,30,0,2,,,0,,,45,62
102960,note_on,,,,,30,0,1,,,0,,,90,61
103080,note_on,,,,,0,0,1,,,0,,,88,61
103080,note_off,,,,,120,0,1,,,0,,,90,64
103184,note_off,,,,,104,0,1,,,0,,,88,64
103200,note_off,,,,,240,0,2,,,0,,,45,64
103200,note_on,,,,,0,0,2,,,0,,,52,50
103200,note_on,,,,,16,0,1,,,0,,,85,57
103300,note_off,,,,,100,0,1,,,0,,,85,64
103320,note_on,,,,,20,0,1,,,0,,,81,54
103410,note_off,,,,,90,0,1,,,0,,,81,64
103440,note_on,,,,,0,0,2,,,0,,,61,46
103440,note_off,,,,,240,0,2,,,0,,,52,64
103440,note_on,,,,,30,0,1,,,0,,,76,46
103530,note_off,,,,,90,0,1,,,0,,,76,64
103620,note_off,,,,,180,0,2,,,0,,,61,64
103660,set_tempo,,,,,1520,1,0,288462,,,,,,
103680,set_tempo,,,,,20,1,0,320856,,,,,,
103680,note_on,,,,,60,0,2,,,0,,,47,59
103680,note_on,,,,,150,0,1,,,0,,,76,38
103680,note_on,,,,,0,0,1,,,0,,,74,38
103770,note_off,,,,,0,0,1,,,0,,,76,64
103770,note_off,,,,,90,0,1,,,0,,,74,64
103780,set_tempo,,,,,100,1,0,263158,,,,,,
103800,note_on,,,,,30,0,1,,,0,,,76,33
103800,note_on,,,,,0,0,1,,,0,,,74,33
103860,note_off,,,,,60,0,1,,,0,,,74,64
103860,note_off,,,,,0,0,1,,,0,,,76,64
103920,note_on,,,,,0,0,1,,,0,,,74,38
103920,note_on,,,,,0,0,2,,,0,,,56,56
103920,note_off,,,,,240,0,2,,,0,,,47,64
103920,note_on,,,,,60,0,1,,,0,,,76,38
103980,note_off,,,,,0,0,1,,,0,,,76,64
103980,note_off,,,,,60,0,1,,,0,,,74,64
104040,note_on,,,,,0,0,1,,,0,,,74,42
104040,note_on,,,,,60,0,1,,,0,,,76,42
104100,note_off,,,,,60,0,1,,,0,,,74,64
104100,note_off,,,,,0,0,1,,,0,,,76,64
104160,note_on,,,,,60,0,1,,,0,,,76,46
104160,note_on,,,,,0,0,1,,,0,,,74,46
104160,note_off,,,,,240,0,2,,,0,,,56,64
104160,note_on,,,,,0,0,2,,,0,,,62,42
104220,note_off,,,,,0,0,1,,,0,,,76,64
104220,note_off,,,,,60,0,1,,,0,,,74,64
104280,note_on,,,,,0,0,1,,,0,,,74,50
104280,note_on,,,,,60,0,1,,,0,,,76,50
104340,note_off,,,,,0,0,1,,,0,,,76,64
104340,note_off,,,,,60,0,1,,,0,,,74,64
104370,note_off,,,,,210,0,2,,,0,,,62,64
104400,note_on,,,,,0,0,1,,,0,,,73,54
104400,note_on,,,,,30,0,2,,,0,,,49,52
104400,note_on,,,,,60,0,1,,,0,,,78,54
104500,set_tempo,,,,,720,1,0,269058,,,,,,
104520,note_on,,,,,0,0,1,,,0,,,76,45
104520,set_tempo,,,,,20,1,0,270270,,,,,,
104520,note_off,,,,,120,0,1,,,0,,,73,64
104520,note_off,,,,,0,0,1,,,0,,,78,64
104560,set_tempo,,,,,40,1,0,273973,,,,,,
104580,set_tempo,,,,,20,1,0,276498,,,,,,
104620,set_tempo,,,,,40,1,0,279070,,,,,,
104624,note_off,,,,,104,0,1,,,0,,,76,64
104640,set_tempo,,,,,20,1,0,280374,,,,,,
104640,note_on,,,,,0,0,2,,,0,,,57,52
104640,note_on,,,,,16,0,1,,,0,,,73,37
104640,note_off,,,,,240,0,2,,,0,,,49,64
104660,set_tempo,,,,,20,1,0,284360,,,,,,
104680,set_tempo,,,,,20,1,0,287081,,,,,,
104720,set_tempo,,,,,40,1,0,288462,,,,,,
104730,note_off,,,,,90,0,1,,,0,,,73,64
104740,set_tempo,,,,,20,1,0,297030,,,,,,
104760,note_on,,,,,30,0,1,,,0,,,69,33
104760,set_tempo,,,,,20,1,0,298507,,,,,,
104800,set_tempo,,,,,40,1,0,303030,,,,,,
104820,set_tempo,,,,,20,1,0,304569,,,,,,
104840,set_tempo,,,,,20,1,0,307692,,,,,,
104850,note_off,,,,,90,0,1,,,0,,,69,64
104880,set_tempo,,,,,40,1,0,310881,,,,,,
104880,note_on,,,,,30,0,1,,,0,,,64,27
104880,note_off,,,,,240,0,2,,,0,,,57,64
104880,note_on,,,,,0,0,2,,,0,,,61,42
104900,set_tempo,,,,,20,1,0,314136,,,,,,
104920,set_tempo,,,,,20,1,0,319149,,,,,,
104960,set_tempo,,,,,40,1,0,324324,,,,,,
104970,note_off,,,,,90,0,1,,,0,,,64,64
104980,set_tempo,,,,,20,1,0,329670,,,,,,
105000,set_tempo,,,,,20,1,0,333333,,,,,,
105040,set_tempo,,,,,40,1,0,337079,,,,,,
105060,set_tempo,,,,,20,1,0,425532,,,,,,
105060,note_off,,,,,180,0,2,,,0,,,61,64
105120,note_on,,,,,150,0,1,,,0,,,79,92
105140,note_on,,,,,20,0,1,,,0,,,81,94
105150,set_tempo,,,,,90,1,0,258621,,,,,,
105150,note_on,,,,,10,0,1,,,0,,,88,94
105160,note_on,,,,,10,0,1,,,0,,,85,94
105240,note_off,,,,,80,0,1,,,0,,,79,64
105260,note_off,,,,,20,0,1,,,0,,,81,64
105270,note_off,,,,,10,0,1,,,0,,,88,64
105280,note_off,,,,,10,0,1,,,0,,,85,64
105360,note_on,,,,,0,0,1,,,0,,,67,68
105360,note_on,,,,,0,0,1,,,0,,,69,68
105360,note_on,,,,,80,0,1,,,0,,,76,68
105360,note_on,,,,,0,0,1,,,0,,,73,68
105480,note_off,,,,,0,0,1,,,0,,,73,64
105480,note_off,,,,,0,0,1,,,0,,,69,64
105480,note_off,,,,,0,0,1,,,0,,,76,64
105480,note_off,,,,,120,0,1,,,0,,,67,64
105600,note_on,,,,,0,0,2,,,0,,,57,86
105600,note_on,,,,,0,0,2,,,0,,,61,86
105600,note_on,,,,,540,0,2,,,0,,,64,86
105720,note_off,,,,,120,0,2,,,0,,,57,64
105720,note_off,,,,,0,0,2,,,0,,,64,64
105720,note_off,,,,,0,0,2,,,0,,,61,64
105840,note_on,,,,,0,0,2,,,0,,,57,110
105840,note_on,,,,,120,0,2,,,0,,,62,110
105840,note_on,,,,,0,0,2,,,0,,,50,110
105960,set_tempo,,,,,810,1,0,259740,,,,,,
106020,note_off,,,,,0,0,2,,,0,,,57,64
106020,note_off,,,,,0,0,2,,,0,,,62,64
106020,note_off,,,,,180,0,2,,,0,,,50,64
106020,set_tempo,,,,,60,1,0,260870,,,,,,
106080,note_on,,,,,600,0,1,,,0,,,78,72
106080,note_on,,,,,0,0,1,,,0,,,66,72
106080,note_on,,,,,0,0,1,,,0,,,69,72
106080,set_tempo,,,,,60,1,0,263158,,,,,,
106080,note_on,,,,,0,0,1,,,0,,,74,72
106100,set_tempo,,,,,20,1,0,265487,,,,,,
106160,set_tempo,,,,,60,1,0,269058,,,,,,
106180,set_tempo,,,,,20,1,0,270270,,,,,,
106200,note_off,,,,,120,0,1,,,0,,,66,64
106200,set_tempo,,,,,20,1,0,271493,,,,,,
106200,note_off,,,,,0,0,1,,,0,,,78,64
106200,note_off,,,,,0,0,1,,,0,,,74,64
106200,note_off,,,,,0,0,1,,,0,,,69,64
106240,set_tempo,,,,,40,1,0,273973,,,,,,
106260,set_tempo,,,,,20,1,0,275229,,,,,,
106280,set_tempo,,,,,20,1,0,276498,,,,,,
106300,set_tempo,,,,,20,1,0,279070,,,,,,
106320,note_on,,,,,120,0,1,,,0,,,81,82
106340,set_tempo,,,,,40,1,0,281690,,,,,,
106340,note_on,,,,,20,0,1,,,0,,,86,82
106360,note_on,,,,,20,0,1,,,0,,,90,82
106380,note_on,,,,,20,0,1,,,0,,,93,82
106380,set_tempo,,,,,40,1,0,284360,,,,,,
106440,note_off,,,,,60,0,1,,,0,,,81,64
106460,note_off,,,,,20,0,1,,,0,,,86,64
106480,note_off,,,,,20,0,1,,,0,,,90,64
106480,set_tempo,,,,,100,1,0,333333,,,,,,
106500,note_off,,,,,20,0,1,,,0,,,93,64
106560,note_on,,,,,0,0,2,,,0,,,52,58
106560,note_on,,,,,0,0,2,,,0,,,57,58
106560,note_on,,,,,0,0,2,,,0,,,61,58
106560,note_on,,,,,540,0,2,,,0,,,64,58
106560,note_on,,,,,60,0,1,,,0,,,100,57
106560,set_tempo,,,,,80,1,0,256410,,,,,,
106620,note_on,,,,,0,0,1,,,0,,,97,53
106620,note_off,,,,,60,0,1,,,0,,,100,64
106660,set_tempo,,,,,100,1,0,259740,,,,,,
106680,note_on,,,,,0,0,1,,,0,,,93,44
106680,note_off,,,,,60,0,1,,,0,,,97,64
106740,set_tempo,,,,,80,1,0,260870,,,,,,
106740,note_off,,,,,60,0,1,,,0,,,93,64
106740,note_off,,,,,180,0,2,,,0,,,52,64
106740,note_off,,,,,0,0,2,,,0,,,57,64
106740,note_off,,,,,0,0,2,,,0,,,61,64
106740,note_off,,,,,0,0,2,,,0,,,64,64
106760,set_tempo,,,,,20,1,0,263158,,,,,,
106800,note_on,,,,,0,0,2,,,0,,,61,39
106800,note_on,,,,,0,0,2,,,0,,,52,39
106800,note_on,,,,,0,0,2,,,0,,,57,39
106800,note_on,,,,,60,0,2,,,0,,,64,39
106800,set_tempo,,,,,40,1,0,264317,,,,,,
106800,note_on,,,,,60,0,1,,,0,,,97,49
106840,set_tempo,,,,,40,1,0,265487,,,,,,
106860,note_on,,,,,0,0,1,,,0,,,93,41
106860,note_off,,,,,60,0,1,,,0,,,97,64
106880,set_tempo,,,,,40,1,0,267857,,,,,,
106900,set_tempo,,,,,20,1,0,269058,,,,,,
106920,note_off,,,,,60,0,1,,,0,,,93,64
106920,note_on,,,,,0,0,1,,,0,,,88,37
106940,set_tempo,,,,,40,1,0,267857,,,,,,
106980,note_off,,,,,60,0,1,,,0,,,88,64
107040,set_tempo,,,,,100,1,0,269058,,,,,,
107040,note_on,,,,,60,0,1,,,0,,,93,40
107040,note_off,,,,,0,0,2,,,0,,,61,64
107040,note_off,,,,,0,0,2,,,0,,,57,64
107040,note_off,,,,,0,0,2,,,0,,,64,64
107040,note_off,,,,,240,0,2,,,0,,,52,64
107060,set_tempo,,,,,20,1,0,270270,,,,,,
107080,set_tempo,,,,,20,1,0,271493,,,,,,
107100,note_off,,,,,60,0,1,,,0,,,93,64
107100,note_on,,,,,0,0,1,,,0,,,88,38
107160,note_off,,,,,60,0,1,,,0,,,88,64
107160,note_on,,,,,0,0,1,,,0,,,85,31
107200,set_tempo,,,,,120,1,0,273973,,,,,,
107220,note_off,,,,,60,0,1,,,0,,,85,64
107220,set_tempo,,,,,20,1,0,275229,,,,,,
107280,note_on,,,,,0,0,2,,,0,,,52,56
107280,set_tempo,,,,,60,1,0,279070,,,,,,
107280,note_on,,,,,240,0,2,,,0,,,64,56
107280,note_on,,,,,0,0,2,,,0,,,62,56
107280,note_on,,,,,0,0,2,,,0,,,59,56
107280,note_on,,,,,60,0,1,,,0,,,88,44
107320,set_tempo,,,,,40,1,0,280374,,,,,,
107340,note_off,,,,,60,0,1,,,0,,,88,64
107340,note_on,,,,,0,0,1,,,0,,,86,41
107360,set_tempo,,,,,40,1,0,281690,,,,,,
107380,set_tempo,,,,,20,1,0,284360,,,,,,
107400,note_on,,,,,0,0,1,,,0,,,83,35
107400,note_off,,,,,60,0,1,,,0,,,86,64
107420,set_tempo,,,,,40,1,0,287081,,,,,,
107440,set_tempo,,,,,20,1,0,298507,,,,,,
107460,note_off,,,,,180,0,2,,,0,,,52,64
107460,note_off,,,,,0,0,2,,,0,,,62,64
107460,note_off,,,,,0,0,2,,,0,,,59,64
107460,note_off,,,,,0,0,2,,,0,,,64,64
107460,note_off,,,,,60,0,1,,,0,,,83,64
107480,set_tempo,,,,,40,1,0,300000,,,,,,
107520,note_on,,,,,60,0,2,,,0,,,64,40
107520,note_on,,,,,0,0,2,,,0,,,59,40
107520,note_on,,,,,0,0,2,,,0,,,52,40
107520,note_on,,,,,60,0,1,,,0,,,86,36
107520,note_on,,,,,0,0,2,,,0,,,62,40
107520,set_tempo,,,,,40,1,0,304569,,,,,,
107580,set_tempo,,,,,60,1,0,307692,,,,,,
107580,note_off,,,,,60,0,1,,,0,,,86,64
107580,note_on,,,,,0,0,1,,,0,,,83,33
107600,set_tempo,,,,,20,1,0,310881,,,,,,
107620,set_tempo,,,,,20,1,0,314136,,,,,,
107640,note_on,,,,,0,0,1,,,0,,,80,28
107640,set_tempo,,,,,20,1,0,317460,,,,,,
107640,note_off,,,,,60,0,1,,,0,,,83,64
107660,set_tempo,,,,,20,1,0,319149,,,,,,
107680,set_tempo,,,,,20,1,0,324324,,,,,,
107700,set_tempo,,,,,20,1,0,327869,,,,,,
107700,note_off,,,,,60,0,1,,,0,,,80,64
107720,set_tempo,,,,,20,1,0,329670,,,,,,
107740,set_tempo,,,,,20,1,0,335196,,,,,,
107760,note_on,,,,,60,0,1,,,0,,,83,33
107760,note_off,,,,,0,0,2,,,0,,,64,64
107760,note_off,,,,,0,0,2,,,0,,,59,64
107760,note_off,,,,,240,0,2,,,0,,,52,64
107760,set_tempo,,,,,20,1,0,340909,,,,,,
107760,note_off,,,,,0,0,2,,,0,,,62,64
107780,set_tempo,,,,,20,1,0,342857,,,,,,
107820,note_off,,,,,60,0,1,,,0,,,83,64
107820,set_tempo,,,,,40,1,0,363636,,,,,,
107820,note_on,,,,,0,0,1,,,0,,,80,28
107840,set_tempo,,,,,20,1,0,372671,,,,,,
107860,set_tempo,,,,,20,1,0,389610,,,,,,
107880,note_on,,,,,0,0,1,,,0,,,76,22
107880,note_off,,,,,60,0,1,,,0,,,80,64
107900,set_tempo,,,,,40,1,0,402685,,,,,,
107920,set_tempo,,,,,20,1,0,431655,,,,,,
107940,note_off,,,,,60,0,1,,,0,,,76,64
107940,set_tempo,,,,,20,1,0,444444,,,,,,
108000,note_on,,,,,60,0,1,,,0,,,67,86
108020,set_tempo,,,,,80,1,0,256410,,,,,,
108020,note_on,,,,,20,0,1,,,0,,,69,88
108030,note_on,,,,,10,0,1,,,0,,,76,90
108040,note_on,,,,,10,0,1,,,0,,,73,92
108120,note_off,,,,,80,0,1,,,0,,,67,64
108140,note_off,,,,,20,0,1,,,0,,,69,64
108150,note_off,,,,,10,0,1,,,0,,,76,64
108160,note_off,,,,,10,0,1,,,0,,,73,64
108240,note_on,,,,,0,0,1,,,0,,,55,64
108240,note_on,,,,,80,0,1,,,0,,,64,64
108240,note_on,,,,,0,0,1,,,0,,,61,64
108240,note_on,,,,,0,0,1,,,0,,,57,64
108360,note_off,,,,,0,0,1,,,0,,,64,64
108360,note_off,,,,,120,0,1,,,0,,,55,64
108360,note_off,,,,,0,0,1,,,0,,,57,64
108360,note_off,,,,,0,0,1,,,0,,,61,64
108480,note_on,,,,,720,0,2,,,0,,,52,94
108480,note_on,,,,,0,0,2,,,0,,,49,94
108480,note_on,,,,,0,0,2,,,0,,,45,94
108600,note_off,,,,,120,0,2,,,0,,,45,64
108600,note_off,,,,,0,0,2,,,0,,,49,64
108600,note_off,,,,,0,0,2,,,0,,,52,64
108720,note_on,,,,,120,0,2,,,0,,,50,127
108720,note_on,,,,,0,0,2,,,0,,,38,127
108720,note_on,,,,,0,0,2,,,0,,,45,127
108900,note_off,,,,,0,0,2,,,0,,,50,64
108900,note_off,,,,,180,0,2,,,0,,,38,64
108900,note_off,,,,,0,0,2,,,0,,,45,64
108960,note_on,,,,,0,0,1,,,0,,,54,65
108960,note_on,,,,,600,0,1,,,0,,,66,65
108960,note_on,,,,,0,0,1,,,0,,,62,65
108960,note_on,,,,,0,0,1,,,0,,,57,65
109020,set_tempo,,,,,1000,1,0,271493,,,,,,
109080,note_off,,,,,120,0,1,,,0,,,54,64
109080,note_off,,,,,0,0,1,,,0,,,57,64
109080,note_off,,,,,0,0,1,,,0,,,62,64
109080,note_off,,,,,0,0,1,,,0,,,66,64
109200,note_on,,,,,120,0,1,,,0,,,69,65
109220,note_on,,,,,20,0,1,,,0,,,74,68
109240,note_on,,,,,20,0,1,,,0,,,78,72
109260,note_on,,,,,20,0,1,,,0,,,81,73
109320,set_tempo,,,,,300,1,0,255319,,,,,,
109320,note_off,,,,,60,0,1,,,0,,,69,64
109340,note_off,,,,,20,0,1,,,0,,,74,64
109360,set_tempo,,,,,40,1,0,571429,,,,,,
109360,note_off,,,,,20,0,1,,,0,,,78,64
109380,note_off,,,,,20,0,1,,,0,,,81,64
109440,note_on,,,,,0,0,2,,,0,,,61,58
109440,set_tempo,,,,,80,1,0,294118,,,,,,
109440,note_on,,,,,0,0,2,,,0,,,52,58
109440,note_on,,,,,0,0,2,,,0,,,57,58
109440,note_on,,,,,540,0,2,,,0,,,64,58
109440,note_on,,,,,60,0,1,,,0,,,88,57
109500,note_off,,,,,60,0,1,,,0,,,88,64
109500,note_on,,,,,0,0,1,,,0,,,85,53
109560,note_off,,,,,60,0,1,,,0,,,85,64
109560,note_on,,,,,0,0,1,,,0,,,81,44
109580,set_tempo,,,,,140,1,0,291262,,,,,,
109620,note_off,,,,,0,0,2,,,0,,,64,64
109620,note_off,,,,,0,0,2,,,0,,,61,64
109620,note_off,,,,,0,0,2,,,0,,,57,64
109620,note_off,,,,,180,0,2,,,0,,,52,64
109620,note_off,,,,,60,0,1,,,0,,,81,64
109620,set_tempo,,,,,40,1,0,287081,,,,,,
109680,note_on,,,,,60,0,2,,,0,,,64,39
109680,note_on,,,,,0,0,2,,,0,,,57,39
109680,note_on,,,,,0,0,2,,,0,,,52,39
109680,set_tempo,,,,,60,1,0,284360,,,,,,
109680,note_on,,,,,0,0,2,,,0,,,61,39
109680,note_on,,,,,60,0,1,,,0,,,85,49
109720,set_tempo,,,,,40,1,0,281690,,,,,,
109740,note_on,,,,,0,0,1,,,0,,,81,41
109740,note_off,,,,,60,0,1,,,0,,,85,64
109760,set_tempo,,,,,40,1,0,280374,,,,,,
109800,note_on,,,,,0,0,1,,,0,,,76,37
109800,note_off,,,,,60,0,1,,,0,,,81,64
109820,set_tempo,,,,,60,1,0,279070,,,,,,
109860,note_off,,,,,60,0,1,,,0,,,76,64
109880,set_tempo,,,,,60,1,0,276498,,,,,,
109900,set_tempo,,,,,20,1,0,275229,,,,,,
109920,note_off,,,,,0,0,2,,,0,,,64,64
109920,note_off,,,,,0,0,2,,,0,,,57,64
109920,note_on,,,,,60,0,1,,,0,,,81,40
109920,note_off,,,,,240,0,2,,,0,,,52,64
109920,note_off,,,,,0,0,2,,,0,,,61,64
109960,set_tempo,,,,,60,1,0,273973,,,,,,
109980,note_on,,,,,0,0,1,,,0,,,76,38
109980,note_off,,,,,60,0,1,,,0,,,81,64
110040,note_off,,,,,60,0,1,,,0,,,76,64
110040,note_on,,,,,0,0,1,,,0,,,73,31
110100,note_off,,,,,60,0,1,,,0,,,73,64
110160,note_on,,,,,0,0,2,,,0,,,52,56
110160,note_on,,,,,0,0,2,,,0,,,59,56
110160,note_on,,,,,0,0,2,,,0,,,62,56
110160,note_on,,,,,240,0,2,,,0,,,64,56
110160,note_on,,,,,60,0,1,,,0,,,76,43
110220,note_on,,,,,0,0,1,,,0,,,74,39
110220,note_off,,,,,60,0,1,,,0,,,76,64
110240,set_tempo,,,,,280,1,0,271493,,,,,,
110280,note_on,,,,,0,0,1,,,0,,,71,33
110280,note_off,,,,,60,0,1,,,0,,,74,64
110340,note_off,,,,,60,0,1,,,0,,,71,64
110340,note_off,,,,,0,0,2,,,0,,,64,64
110340,note_off,,,,,0,0,2,,,0,,,62,64
110340,note_off,,,,,0,0,2,,,0,,,59,64
110340,note_off,,,,,180,0,2,,,0,,,52,64
110360,set_tempo,,,,,120,1,0,270270,,,,,,
110400,note_on,,,,,0,0,2,,,0,,,59,40
110400,note_on,,,,,0,0,2,,,0,,,62,40
110400,note_on,,,,,60,0,2,,,0,,,64,40
110400,note_on,,,,,0,0,2,,,0,,,52,40
110400,note_on,,,,,60,0,1,,,0,,,74,47
110460,note_on,,,,,0,0,1,,,0,,,71,37
110460,note_off,,,,,60,0,1,,,0,,,74,64
110480,set_tempo,,,,,120,1,0,271493,,,,,,
110500,set_tempo,,,,,20,1,0,273973,,,,,,
110520,note_off,,,,,60,0,1,,,0,,,71,64
110520,note_on,,,,,0,0,1,,,0,,,68,36
110560,set_tempo,,,,,60,1,0,275229,,,,,,
110580,note_off,,,,,60,0,1,,,0,,,68,64
110580,set_tempo,,,,,20,1,0,276498,,,,,,
110640,note_off,,,,,0,0,2,,,0,,,59,64
110640,note_off,,,,,0,0,2,,,0,,,62,64
110640,note_off,,,,,0,0,2,,,0,,,64,64
110640,note_off,,,,,240,0,2,,,0,,,52,64
110640,note_on,,,,,60,0,1,,,0,,,71,52
110700,set_tempo,,,,,120,1,0,279070,,,,,,
110700,note_on,,,,,0,0,1,,,0,,,68,47
110700,note_off,,,,,60,0,1,,,0,,,71,64
110720,set_tempo,,,,,20,1,0,280374,,,,,,
110740,set_tempo,,,,,20,1,0,281690,,,,,,
110760,note_on,,,,,0,0,1,,,0,,,64,43
110760,note_off,,,,,60,0,1,,,0,,,68,64
110820,note_off,,,,,60,0,1,,,0,,,64,64
110820,set_tempo,,,,,80,1,0,363636,,,,,,
110880,note_on,,,,,0,0,2,,,0,,,57,88
110880,note_on,,,,,240,0,2,,,0,,,69,88
110900,set_tempo,,,,,80,1,0,288462,,,,,,
110940,note_off,,,,,0,0,2,,,0,,,69,64
110940,note_on,,,,,0,0,2,,,0,,,64,88
110940,note_on,,,,,0,0,2,,,0,,,52,88
110940,note_off,,,,,60,0,2,,,0,,,57,64
111000,note_on,,,,,0,0,2,,,0,,,61,81
111000,note_on,,,,,0,0,2,,,0,,,49,81
111000,note_off,,,,,0,0,2,,,0,,,64,64
111000,set_tempo,,,,,100,1,0,287081,,,,,,
111000,note_off,,,,,60,0,2,,,0,,,52,64
111020,set_tempo,,,,,20,1,0,288462,,,,,,
111060,note_off,,,,,60,0,2,,,0,,,49,64
111060,note_off,,,,,0,0,2,,,0,,,61,64
111120,note_on,,,,,60,0,2,,,0,,,64,88
111120,note_on,,,,,0,0,2,,,0,,,52,88
111140,set_tempo,,,,,120,1,0,291262,,,,,,
111180,note_on,,,,,0,0,2,,,0,,,49,88
111180,note_on,,,,,0,0,2,,,0,,,61,88
111180,note_off,,,,,60,0,2,,,0,,,52,64
111180,note_off,,,,,0,0,2,,,0,,,64,64
111240,note_off,,,,,60,0,2,,,0,,,49,64
111240,note_on,,,,,0,0,2,,,0,,,57,86
111240,note_on,,,,,0,0,2,,,0,,,45,86
111240,note_off,,,,,0,0,2,,,0,,,61,64
111260,set_tempo,,,,,120,1,0,294118,,,,,,
111300,set_tempo,,,,,40,1,0,298507,,,,,,
111300,note_off,,,,,60,0,2,,,0,,,45,64
111300,note_off,,,,,0,0,2,,,0,,,57,64
111360,note_on,,,,,0,0,2,,,0,,,45,88
111360,note_on,,,,,60,0,2,,,0,,,57,88
111420,note_off,,,,,0,0,2,,,0,,,57,64
111420,note_off,,,,,60,0,2,,,0,,,45,64
111420,note_on,,,,,0,0,2,,,0,,,52,88
111420,note_on,,,,,0,0,2,,,0,,,40,88
111480,note_off,,,,,60,0,2,,,0,,,40,64
111480,note_on,,,,,0,0,2,,,0,,,37,88
111480,note_off,,,,,0,0,2,,,0,,,52,64
111480,note_on,,,,,0,0,2,,,0,,,49,88
111500,set_tempo,,,,,200,1,0,416667,,,,,,
111540,note_off,,,,,0,0,2,,,0,,,49,64
111540,note_off,,,,,60,0,2,,,0,,,37,64
111600,note_on,,,,,60,0,2,,,0,,,45,88
111600,note_on,,,,,0,0,2,,,0,,,33,88
111600,set_tempo,,,,,100,1,0,389610,,,,,,
111780,note_off,,,,,180,0,2,,,0,,,33,64
111780,note_off,,,,,0,0,2,,,0,,,45,64
111840,set_tempo,,,,,240,1,0,588235,,,,,,
112320,note_on,,,,,0,0,1,,,0,,,57,34
112320,note_on,,,,,0,0,1,,,0,,,62,34
112320,note_on,,,,,1500,0,1,,,0,,,66,34
112320,control_change,,,,,0,0,1,,,0,64,96,,
112320,note_on,,,,,540,0,2,,,0,,,50,44
112320,set_tempo,,,,,480,1,0,461538,,,,,,
112320,marker,,,,,0,1,0,,,,,,,
112500,note_off,,,,,180,0,2,,,0,,,50,64
112560,note_on,,,,,60,0,2,,,0,,,74,28
112740,note_off,,,,,180,0,2,,,0,,,74,64
113030,control_change,,,,,710,0,1,,,0,64,0,,
113040,note_on,,,,,300,0,2,,,0,,,50,48
113040,note_on,,,,,0,0,1,,,0,,,62,35
113040,note_off,,,,,0,0,1,,,0,,,62,64
113040,note_off,,,,,0,0,1,,,0,,,66,64
113040,note_on,,,,,0,0,1,,,0,,,67,35
113040,note_on,,,,,0,0,1,,,0,,,59,35
113040,control_change,,,,,0,0,1,,,0,64,95,,
113040,note_off,,,,,10,0,1,,,0,,,57,64
113220,note_off,,,,,180,0,2,,,0,,,50,64
113280,note_on,,,,,60,0,2,,,0,,,74,26
113460,note_off,,,,,180,0,2,,,0,,,74,64
113750,control_change,,,,,710,0,1,,,0,64,0,,
113760,note_on,,,,,300,0,2,,,0,,,50,48
113760,note_off,,,,,0,0,1,,,0,,,62,64
113760,control_change,,,,,0,0,1,,,0,64,95,,
113760,note_on,,,,,0,0,1,,,0,,,59,36
113760,note_off,,,,,10,0,1,,,0,,,59,64
113760,note_on,,,,,0,0,1,,,0,,,67,36
113760,note_off,,,,,0,0,1,,,0,,,67,64
113760,note_on,,,,,0,0,1,,,0,,,62,36
113940,note_off,,,,,180,0,2,,,0,,,50,64
114000,note_off,,,,,240,0,1,,,0,,,59,64
114000,note_off,,,,,0,0,1,,,0,,,62,64
114000,note_off,,,,,0,0,1,,,0,,,67,64
114000,note_on,,,,,0,0,1,,,0,,,62,31
114000,note_on,,,,,0,0,1,,,0,,,57,31
114000,control_change,,,,,0,0,1,,,0,64,0,,
114000,note_on,,,,,60,0,2,,,0,,,74,44
114000,note_on,,,,,0,0,1,,,0,,,66,31
114090,note_off,,,,,90,0,2,,,0,,,74,64
114120,note_on,,,,,30,0,2,,,0,,,76,35
114210,note_off,,,,,90,0,2,,,0,,,76,64
114240,note_on,,,,,30,0,2,,,0,,,78,46
114240,note_on,,,,,0,0,1,,,0,,,62,25
114240,note_off,,,,,240,0,1,,,0,,,57,64
114240,note_on,,,,,0,0,1,,,0,,,54,25
114240,note_on,,,,,0,0,1,,,0,,,57,25
114240,note_off,,,,,0,0,1,,,0,,,66,64
114240,note_off,,,,,0,0,1,,,0,,,62,64
114330,note_off,,,,,90,0,2,,,0,,,78,64
114360,note_on,,,,,30,0,2,,,0,,,79,49
114450,note_off,,,,,90,0,2,,,0,,,79,64
114480,note_on,,,,,30,0,2,,,0,,,81,54
114480,note_off,,,,,0,0,1,,,0,,,62,64
114480,note_on,,,,,0,0,1,,,0,,,61,34
114480,control_change,,,,,0,0,1,,,0,64,95,,
114480,note_off,,,,,0,0,1,,,0,,,57,64
114480,note_on,,,,,0,0,1,,,0,,,57,34
114480,note_off,,,,,240,0,1,,,0,,,54,64
114480,note_on,,,,,0,0,1,,,0,,,52,34
114660,note_off,,,,,180,0,2,,,0,,,81,64
114720,control_change,,,,,240,0,1,,,0,64,0,,
114720,note_on,,,,,60,0,2,,,0,,,45,44
114810,note_off,,,,,90,0,2,,,0,,,45,64
114840,note_on,,,,,30,0,2,,,0,,,43,36
114930,note_off,,,,,90,0,2,,,0,,,43,64
114960,note_on,,,,,30,0,2,,,0,,,42,44
115050,note_off,,,,,90,0,2,,,0,,,42,64
115080,note_on,,,,,30,0,2,,,0,,,40,50
115170,note_off,,,,,90,0,2,,,0,,,40,64
115200,note_off,,,,,0,0,1,,,0,,,61,64
115200,note_off,,,,,480,0,1,,,0,,,52,64
115200,note_off,,,,,0,0,1,,,0,,,57,64
115200,note_on,,,,,0,0,1,,,0,,,66,34
115200,note_on,,,,,30,0,2,,,0,,,38,55
115200,note_on,,,,,0,0,1,,,0,,,62,34
115200,control_change,,,,,0,0,1,,,0,64,95,,
115200,note_on,,,,,0,0,1,,,0,,,57,34
115380,note_off,,,,,180,0,2,,,0,,,38,64
115440,note_on,,,,,60,0,2,,,0,,,74,28
115620,note_off,,,,,180,0,2,,,0,,,74,64
115910,control_change,,,,,710,0,1,,,0,64,0,,
115920,note_on,,,,,0,0,1,,,0,,,58,35
115920,note_off,,,,,0,0,1,,,0,,,62,64
115920,note_on,,,,,0,0,1,,,0,,,67,35
115920,control_change,,,,,0,0,1,,,0,64,96,,
115920,note_on,,,,,0,0,1,,,0,,,62,35
115920,note_off,,,,,0,0,1,,,0,,,66,64
115920,note_on,,,,,300,0,2,,,0,,,50,48
115920,note_off,,,,,10,0,1,,,0,,,57,64
116100,note_off,,,,,180,0,2,,,0,,,50,64
116160,note_on,,,,,60,0,2,,,0,,,74,26
116340,note_off,,,,,180,0,2,,,0,,,74,64
116630,control_change,,,,,710,0,1,,,0,64,0,,
116640,note_on,,,,,0,0,1,,,0,,,62,36
116640,note_on,,,,,0,0,1,,,0,,,57,36
116640,note_on,,,,,0,0,1,,,0,,,66,36
116640,note_off,,,,,0,0,1,,,0,,,67,64
116640,note_off,,,,,0,0,1,,,0,,,62,64
116640,note_off,,,,,10,0,1,,,0,,,58,64
116640,control_change,,,,,0,0,1,,,0,64,95,,
116640,note_on,,,,,300,0,2,,,0,,,45,48
116820,note_off,,,,,180,0,2,,,0,,,45,64
116880,note_on,,,,,60,0,2,,,0,,,81,36
116880,note_off,,,,,0,0,1,,,0,,,62,64
116880,note_off,,,,,0,0,1,,,0,,,66,64
116880,note_on,,,,,0,0,1,,,0,,,69,30
116880,note_on,,,,,0,0,1,,,0,,,66,30
116880,note_on,,,,,0,0,1,,,0,,,57,30
116880,control_change,,,,,0,0,1,,,0,64,0,,
116880,note_off,,,,,240,0,1,,,0,,,57,64
116970,note_off,,,,,90,0,2,,,0,,,81,64
117000,note_on,,,,,30,0,2,,,0,,,81,31
117090,note_off,,,,,90,0,2,,,0,,,81,64
117120,note_on,,,,,30,0,2,,,0,,,83,36
117120,note_off,,,,,0,0,1,,,0,,,69,64
117120,note_on,,,,,0,0,1,,,0,,,64,25
117120,note_on,,,,,0,0,1,,,0,,,67,25
117120,note_off,,,,,0,0,1,,,0,,,66,64
117120,note_off,,,,,240,0,1,,,0,,,57,64
117120,note_on,,,,,0,0,1,,,0,,,57,25
117210,note_off,,,,,90,0,2,,,0,,,83,64
117240,note_on,,,,,30,0,2,,,0,,,85,44
117330,note_off,,,,,90,0,2,,,0,,,85,64
117360,note_off,,,,,0,0,1,,,0,,,64,64
117360,note_off,,,,,240,0,1,,,0,,,57,64
117360,note_on,,,,,30,0,2,,,0,,,86,48
117360,note_off,,,,,0,0,1,,,0,,,67,64
117360,note_on,,,,,0,0,1,,,0,,,66,34
117360,note_on,,,,,0,0,1,,,0,,,62,34
117360,control_change,,,,,0,0,1,,,0,64,96,,
117360,note_on,,,,,0,0,1,,,0,,,57,34
117540,note_off,,,,,180,0,2,,,0,,,86,64
117590,control_change,,,,,230,0,1,,,0,64,0,,
117600,note_on,,,,,60,0,2,,,0,,,45,46
117690,note_off,,,,,90,0,2,,,0,,,45,64
117720,note_on,,,,,30,0,2,,,0,,,45,39
117810,note_off,,,,,90,0,2,,,0,,,45,64
117840,note_on,,,,,30,0,2,,,0,,,47,36
117930,note_off,,,,,90,0,2,,,0,,,47,64
117960,note_on,,,,,30,0,2,,,0,,,49,44
118020,note_off,,,,,0,0,1,,,0,,,62,64
118020,note_off,,,,,0,0,1,,,0,,,66,64
118020,note_off,,,,,430,0,1,,,0,,,57,64
118050,note_off,,,,,90,0,2,,,0,,,49,64
118080,control_change,,,,,0,0,1,,,0,64,95,,
118080,note_on,,,,,60,0,1,,,0,,,66,34
118080,note_on,,,,,0,0,1,,,0,,,57,34
118080,control_change,,,,,0,0,1,,,0,7,72,,
118080,note_on,,,,,30,0,2,,,0,,,50,49
118080,note_on,,,,,0,0,1,,,0,,,62,34
118260,note_off,,,,,180,0,2,,,0,,,50,64
118320,note_on,,,,,60,0,2,,,0,,,74,28
118500,note_off,,,,,180,0,2,,,0,,,74,64
118790,control_change,,,,,710,0,1,,,0,64,0,,
118800,note_off,,,,,0,0,1,,,0,,,62,64
118800,note_off,,,,,0,0,1,,,0,,,66,64
118800,note_on,,,,,0,0,1,,,0,,,67,35
118800,note_on,,,,,0,0,1,,,0,,,62,35
118800,note_on,,,,,0,0,1,,,0,,,59,35
118800,note_on,,,,,300,0,2,,,0,,,50,48
118800,note_off,,,,,10,0,1,,,0,,,57,64
118800,control_change,,,,,0,0,1,,,0,64,95,,
118980,note_off,,,,,180,0,2,,,0,,,50,64
119040,note_on,,,,,60,0,2,,,0,,,74,26
119220,note_off,,,,,180,0,2,,,0,,,74,64
119510,control_change,,,,,710,0,1,,,0,64,0,,
119520,note_off,,,,,10,0,1,,,0,,,59,64
119520,note_off,,,,,0,0,1,,,0,,,62,64
119520,note_off,,,,,0,0,1,,,0,,,67,64
119520,note_on,,,,,0,0,1,,,0,,,67,36
119520,note_on,,,,,0,0,1,,,0,,,62,36
119520,note_on,,,,,0,0,1,,,0,,,59,36
119520,control_change,,,,,0,0,1,,,0,64,95,,
119520,note_on,,,,,300,0,2,,,0,,,50,42
119700,note_off,,,,,180,0,2,,,0,,,50,64
119760,note_on,,,,,60,0,2,,,0,,,74,44
119760,control_change,,,,,0,0,1,,,0,64,0,,
119760,note_off,,,,,240,0,1,,,0,,,59,64
119760,note_off,,,,,0,0,1,,,0,,,67,64
119760,note_on,,,,,0,0,1,,,0,,,66,31
119760,note_on,,,,,0,0,1,,,0,,,62,31
119760,note_on,,,,,0,0,1,,,0,,,57,31
119760,note_off,,,,,0,0,1,,,0,,,62,64
119850,note_off,,,,,90,0,2,,,0,,,74,64
119880,note_on,,,,,30,0,2,,,0,,,76,35
119970,note_off,,,,,90,0,2,,,0,,,76,64
120000,note_off,,,,,0,0,1,,,0,,,66,64
120000,note_on,,,,,0,0,1,,,0,,,62,25
120000,note_off,,,,,240,0,1,,,0,,,57,64
120000,note_on,,,,,0,0,1,,,0,,,54,25
120000,note_on,,,,,30,0,2,,,0,,,78,46
120000,note_off,,,,,0,0,1,,,0,,,62,64
120000,note_on,,,,,0,0,1,,,0,,,57,25
120090,note_off,,,,,90,0,2,,,0,,,78,64
120120,note_on,,,,,30,0,2,,,0,,,79,49
120210,note_off,,,,,90,0,2,,,0,,,79,64
120240,note_off,,,,,0,0,1,,,0,,,57,64
120240,note_on,,,,,0,0,1,,,0,,,52,34
120240,note_on,,,,,0,0,1,,,0,,,61,34
120240,note_off,,,,,0,0,1,,,0,,,62,64
120240,note_off,,,,,240,0,1,,,0,,,54,64
120240,control_change,,,,,0,0,1,,,0,64,95,,
120240,note_on,,,,,30,0,2,,,0,,,81,54
120240,note_on,,,,,0,0,1,,,0,,,57,34
120420,note_off,,,,,180,0,2,,,0,,,81,64
120480,note_on,,,,,60,0,2,,,0,,,45,44
120480,control_change,,,,,240,0,1,,,0,64,0,,
120570,note_off,,,,,90,0,2,,,0,,,45,64
120600,note_on,,,,,30,0,2,,,0,,,43,36
120690,note_off,,,,,90,0,2,,,0,,,43,64
120720,note_on,,,,,30,0,2,,,0,,,42,44
120810,note_off,,,,,90,0,2,,,0,,,42,64
120840,note_on,,,,,30,0,2,,,0,,,40,50
120930,note_off,,,,,90,0,2,,,0,,,40,64
120960,control_change,,,,,0,0,1,,,0,64,95,,
120960,note_on,,,,,0,0,1,,,0,,,57,34
120960,note_on,,,,,0,0,1,,,0,,,62,34
120960,note_on,,,,,0,0,1,,,0,,,66,34
120960,note_off,,,,,0,0,1,,,0,,,61,64
120960,note_off,,,,,0,0,1,,,0,,,57,64
120960,note_off,,,,,480,0,1,,,0,,,52,64
120960,note_on,,,,,30,0,2,,,0,,,38,55
121140,note_off,,,,,180,0,2,,,0,,,38,64
121200,note_on,,,,,60,0,2,,,0,,,74,28
121380,note_off,,,,,180,0,2,,,0,,,74,64
121670,control_change,,,,,710,0,1,,,0,64,0,,
121680,note_off,,,,,10,0,1,,,0,,,57,64
121680,note_off,,,,,0,0,1,,,0,,,62,64
121680,note_off,,,,,0,0,1,,,0,,,66,64
121680,note_on,,,,,0,0,1,,,0,,,67,35
121680,note_on,,,,,0,0,1,,,0,,,62,35
121680,note_on,,,,,0,0,1,,,0,,,58,35
121680,control_change,,,,,0,0,1,,,0,64,96,,
121680,note_on,,,,,300,0,2,,,0,,,50,48
121860,note_off,,,,,180,0,2,,,0,,,50,64
121920,note_on,,,,,60,0,2,,,0,,,74,26
122100,note_off,,,,,180,0,2,,,0,,,74,64
122390,control_change,,,,,710,0,1,,,0,64,0,,
122400,note_on,,,,,0,0,1,,,0,,,66,36
122400,note_off,,,,,0,0,1,,,0,,,67,64
122400,note_on,,,,,300,0,2,,,0,,,45,42
122400,note_off,,,,,10,0,1,,,0,,,58,64
122400,note_off,,,,,0,0,1,,,0,,,62,64
122400,control_change,,,,,0,0,1,,,0,64,95,,
122400,note_on,,,,,0,0,1,,,0,,,57,36
122400,note_on,,,,,0,0,1,,,0,,,62,36
122580,note_off,,,,,180,0,2,,,0,,,45,64
122640,note_off,,,,,0,0,1,,,0,,,66,64
122640,note_on,,,,,0,0,1,,,0,,,69,30
122640,note_on,,,,,0,0,1,,,0,,,66,30
122640,note_on,,,,,0,0,1,,,0,,,57,30
122640,note_off,,,,,240,0,1,,,0,,,57,64
122640,note_on,,,,,60,0,2,,,0,,,81,36
122640,note_off,,,,,0,0,1,,,0,,,62,64
122640,control_change,,,,,0,0,1,,,0,64,0,,
122730,note_off,,,,,90,0,2,,,0,,,81,64
122760,note_on,,,,,30,0,2,,,0,,,81,31
122850,note_off,,,,,90,0,2,,,0,,,81,64
122880,note_on,,,,,0,0,1,,,0,,,67,25
122880,note_on,,,,,0,0,1,,,0,,,64,25
122880,note_on,,,,,30,0,2,,,0,,,83,36
122880,note_off,,,,,0,0,1,,,0,,,69,64
122880,note_off,,,,,0,0,1,,,0,,,66,64
122880,note_off,,,,,240,0,1,,,0,,,57,64
122880,note_on,,,,,0,0,1,,,0,,,57,25
122970,note_off,,,,,90,0,2,,,0,,,83,64
122992,set_tempo,,,,,10672,1,0,454545,,,,,,
123000,note_on,,,,,30,0,2,,,0,,,85,44
123066,set_tempo,,,,,74,1,0,461538,,,,,,
123090,note_off,,,,,90,0,2,,,0,,,85,64
123120,note_on,,,,,0,0,1,,,0,,,62,34
123120,note_off,,,,,240,0,1,,,0,,,57,64
123120,note_on,,,,,30,0,2,,,0,,,86,48
123120,control_change,,,,,0,0,1,,,0,64,96,,
123120,note_on,,,,,0,0,1,,,0,,,57,34
123120,note_on,,,,,0,0,1,,,0,,,66,34
123120,note_off,,,,,0,0,1,,,0,,,67,64
123120,note_off,,,,,0,0,1,,,0,,,64,64
123126,set_tempo,,,,,60,1,0,465116,,,,,,
123146,set_tempo,,,,,20,1,0,468750,,,,,,
123186,set_tempo,,,,,40,1,0,472441,,,,,,
123200,set_tempo,,,,,14,1,0,476190,,,,,,
123220,set_tempo,,,,,20,1,0,483871,,,,,,
123246,set_tempo,,,,,26,1,0,487805,,,,,,
123260,set_tempo,,,,,14,1,0,491803,,,,,,
123272,set_tempo,,,,,12,1,0,495868,,,,,,
123292,set_tempo,,,,,20,1,0,500000,,,,,,
123300,set_tempo,,,,,8,1,0,508475,,,,,,
123300,note_off,,,,,180,0,2,,,0,,,86,64
123320,set_tempo,,,,,20,1,0,512821,,,,,,
123340,set_tempo,,,,,20,1,0,521739,,,,,,
123350,control_change,,,,,230,0,1,,,0,64,0,,
123352,set_tempo,,,,,12,1,0,526316,,,,,,
123360,note_on,,,,,60,0,2,,,0,,,45,50
123366,set_tempo,,,,,14,1,0,535714,,,,,,
123380,set_tempo,,,,,14,1,0,540541,,,,,,
123432,set_tempo,,,,,52,1,0,550459,,,,,,
123452,set_tempo,,,,,20,1,0,555556,,,,,,
123460,set_tempo,,,,,8,1,0,566038,,,,,,
123472,set_tempo,,,,,12,1,0,571429,,,,,,
123480,note_on,,,,,0,0,2,,,0,,,49,39
123480,note_off,,,,,120,0,2,,,0,,,45,64
123486,set_tempo,,,,,14,1,0,576923,,,,,,
123520,set_tempo,,,,,34,1,0,571429,,,,,,
123546,set_tempo,,,,,26,1,0,576923,,,,,,
123560,set_tempo,,,,,14,1,0,582524,,,,,,
123570,note_off,,,,,90,0,2,,,0,,,49,64
123580,set_tempo,,,,,20,1,0,588235,,,,,,
123586,set_tempo,,,,,6,1,0,600000,,,,,,
123592,set_tempo,,,,,6,1,0,606061,,,,,,
123600,note_on,,,,,30,0,2,,,0,,,50,33
123606,set_tempo,,,,,14,1,0,612245,,,,,,
123612,set_tempo,,,,,6,1,0,625000,,,,,,
123626,set_tempo,,,,,14,1,0,645161,,,,,,
123632,set_tempo,,,,,6,1,0,659341,,,,,,
123640,set_tempo,,,,,8,1,0,666667,,,,,,
123646,set_tempo,,,,,6,1,0,681818,,,,,,
123660,set_tempo,,,,,14,1,0,697674,,,,,,
123666,set_tempo,,,,,6,1,0,705882,,,,,,
123686,set_tempo,,,,,20,1,0,714286,,,,,,
123692,set_tempo,,,,,6,1,0,740741,,,,,,
123706,set_tempo,,,,,14,1,0,750000,,,,,,
123712,set_tempo,,,,,6,1,0,759494,,,,,,
123720,set_tempo,,,,,8,1,0,769231,,,,,,
123726,set_tempo,,,,,6,1,0,789474,,,,,,
123740,set_tempo,,,,,14,1,0,800000,,,,,,
123746,set_tempo,,,,,6,1,0,810811,,,,,,
123752,set_tempo,,,,,6,1,0,821918,,,,,,
123760,set_tempo,,,,,8,1,0,857143,,,,,,
123766,set_tempo,,,,,6,1,0,882353,,,,,,
123772,set_tempo,,,,,6,1,0,909091,,,,,,
123780,note_off,,,,,0,0,1,,,0,,,66,64
123780,set_tempo,,,,,8,1,0,952381,,,,,,
123780,note_off,,,,,0,0,1,,,0,,,62,64
123780,note_off,,,,,430,0,1,,,0,,,57,64
123780,note_off,,,,,180,0,2,,,0,,,50,64
123786,set_tempo,,,,,6,1,0,967742,,,,,,
123792,set_tempo,,,,,6,1,0,2222222,,,,,,
123840,note_on,,,,,0,0,1,,,0,,,61,59
123840,note_on,,,,,60,0,1,,,0,,,64,59
123840,note_on,,,,,60,0,2,,,0,,,69,64
123840,note_on,,,,,0,0,1,,,0,,,57,59
123846,set_tempo,,,,,54,1,0,472441,,,,,,
124080,note_off,,,,,240,0,2,,,0,,,69,64
124080,note_on,,,,,0,0,2,,,0,,,45,50
124320,note_off,,,,,240,0,2,,,0,,,45,64
124560,note_off,,,,,720,0,1,,,0,,,57,64
124560,note_off,,,,,0,0,1,,,0,,,61,64
124560,note_off,,,,,0,0,1,,,0,,,64,64
124560,note_on,,,,,0,0,1,,,0,,,57,74
124560,note_on,,,,,0,0,1,,,0,,,62,74
124560,note_on,,,,,0,0,1,,,0,,,65,74
124560,note_on,,,,,240,0,2,,,0,,,69,60
124800,note_on,,,,,240,0,2,,,0,,,45,47
124980,note_off,,,,,180,0,2,,,0,,,45,64
125260,set_tempo,,,,,1414,1,0,468750,,,,,,
125280,note_off,,,,,300,0,2,,,0,,,69,64
125280,note_off,,,,,720,0,1,,,0,,,57,64
125280,note_off,,,,,0,0,1,,,0,,,62,64
125280,note_off,,,,,0,0,1,,,0,,,65,64
125280,note_on,,,,,0,0,1,,,0,,,69,60
125280,note_on,,,,,0,0,1,,,0,,,65,60
125296,set_tempo,,,,,36,1,0,465116,,,,,,
125320,set_tempo,,,,,24,1,0,461538,,,,,,
125328,set_tempo,,,,,8,1,0,454545,,,,,,
125356,set_tempo,,,,,28,1,0,451128,,,,,,
125420,set_tempo,,,,,64,1,0,447761,,,,,,
125492,set_tempo,,,,,72,1,0,444444,,,,,,
125520,note_off,,,,,0,0,1,,,0,,,69,64
125520,note_off,,,,,240,0,1,,,0,,,65,64
125520,note_on,,,,,0,0,1,,,0,,,67,56
125520,note_on,,,,,240,0,2,,,0,,,76,42
125520,note_on,,,,,0,0,1,,,0,,,64,56
125540,set_tempo,,,,,48,1,0,441176,,,,,,
125640,note_off,,,,,120,0,2,,,0,,,76,64
125640,note_on,,,,,0,0,2,,,0,,,77,36
125652,set_tempo,,,,,112,1,0,434783,,,,,,
125700,note_off,,,,,180,0,1,,,0,,,64,64
125700,note_off,,,,,0,0,1,,,0,,,67,64
125760,note_off,,,,,120,0,2,,,0,,,77,64
125760,note_on,,,,,0,0,2,,,0,,,79,45
125760,note_on,,,,,0,0,1,,,0,,,62,49
125760,note_on,,,,,60,0,1,,,0,,,65,49
125848,set_tempo,,,,,196,1,0,431655,,,,,,
125880,note_off,,,,,120,0,2,,,0,,,79,64
125880,note_on,,,,,0,0,2,,,0,,,80,51
125888,set_tempo,,,,,40,1,0,428571,,,,,,
125940,note_off,,,,,0,0,1,,,0,,,65,64
125940,note_off,,,,,180,0,1,,,0,,,62,64
125992,set_tempo,,,,,104,1,0,425532,,,,,,
126000,note_on,,,,,60,0,1,,,0,,,64,53
126000,note_on,,,,,0,0,1,,,0,,,61,53
126000,note_on,,,,,0,0,1,,,0,,,57,53
126000,note_on,,,,,0,0,2,,,0,,,81,54
126000,note_off,,,,,120,0,2,,,0,,,80,64
126240,note_on,,,,,240,0,2,,,0,,,45,52
126250,set_tempo,,,,,258,1,0,431655,,,,,,
126270,set_tempo,,,,,20,1,0,461538,,,,,,
126280,set_tempo,,,,,10,1,0,491803,,,,,,
126290,set_tempo,,,,,10,1,0,508475,,,,,,
126300,set_tempo,,,,,10,1,0,512821,,,,,,
126310,set_tempo,,,,,10,1,0,521739,,,,,,
126320,set_tempo,,,,,10,1,0,545455,,,,,,
126360,note_off,,,,,120,0,2,,,0,,,45,64
126360,note_on,,,,,0,0,2,,,0,,,46,59
126360,set_tempo,,,,,40,1,0,550459,,,,,,
126400,set_tempo,,,,,40,1,0,566038,,,,,,
126430,set_tempo,,,,,30,1,0,571429,,,,,,
126440,set_tempo,,,,,10,1,0,576923,,,,,,
126470,set_tempo,,,,,30,1,0,588235,,,,,,
126480,note_off,,,,,120,0,2,,,0,,,46,64
126480,set_tempo,,,,,10,1,0,821918,,,,,,
126480,note_on,,,,,0,0,2,,,0,,,45,46
126600,note_off,,,,,120,0,2,,,0,,,45,64
126720,note_on,,,,,0,0,2,,,0,,,69,76
126720,note_off,,,,,120,0,2,,,0,,,81,64
126720,note_on,,,,,0,0,1,,,0,,,57,75
126720,note_off,,,,,0,0,1,,,0,,,61,64
126720,note_off,,,,,0,0,1,,,0,,,64,64
126720,note_on,,,,,0,0,1,,,0,,,64,75
126720,note_on,,,,,0,0,1,,,0,,,61,75
126720,control_change,,,,,0,0,1,,,0,64,127,,
126720,note_off,,,,,720,0,1,,,0,,,57,64
126734,set_tempo,,,,,254,1,0,416667,,,,,,
126744,set_tempo,,,,,10,1,0,413793,,,,,,
126794,set_tempo,,,,,50,1,0,410959,,,,,,
126894,set_tempo,,,,,100,1,0,408163,,,,,,
126960,note_off,,,,,240,0,2,,,0,,,69,64
126960,note_on,,,,,0,0,2,,,0,,,45,62
127034,set_tempo,,,,,140,1,0,405405,,,,,,
127074,set_tempo,,,,,40,1,0,400000,,,,,,
127114,set_tempo,,,,,40,1,0,397351,,,,,,
127164,set_tempo,,,,,50,1,0,394737,,,,,,
127194,set_tempo,,,,,30,1,0,392157,,,,,,
127200,control_change,,,,,480,0,1,,,0,64,0,,
127200,note_off,,,,,240,0,2,,,0,,,45,64
127234,set_tempo,,,,,40,1,0,389610,,,,,,
127304,set_tempo,,,,,70,1,0,384615,,,,,,
127374,set_tempo,,,,,70,1,0,382166,,,,,,
127394,set_tempo,,,,,20,1,0,379747,,,,,,
127434,set_tempo,,,,,40,1,0,389610,,,,,,
127440,note_off,,,,,0,0,1,,,0,,,64,64
127440,note_on,,,,,0,0,1,,,0,,,65,85
127440,note_on,,,,,0,0,1,,,0,,,60,85
127440,note_on,,,,,0,0,1,,,0,,,57,85
127440,control_change,,,,,0,0,1,,,0,64,127,,
127440,note_off,,,,,0,0,1,,,0,,,61,64
127440,note_off,,,,,240,0,1,,,0,,,57,64
127440,note_on,,,,,240,0,2,,,0,,,69,74
127494,set_tempo,,,,,60,1,0,392157,,,,,,
127524,set_tempo,,,,,30,1,0,394737,,,,,,
127534,set_tempo,,,,,10,1,0,397351,,,,,,
127574,set_tempo,,,,,40,1,0,400000,,,,,,
127584,set_tempo,,,,,10,1,0,405405,,,,,,
127614,set_tempo,,,,,30,1,0,408163,,,,,,
127624,set_tempo,,,,,10,1,0,410959,,,,,,
127654,set_tempo,,,,,30,1,0,413793,,,,,,
127680,note_on,,,,,0,0,2,,,0,,,45,80
127680,note_off,,,,,240,0,2,,,0,,,69,64
127684,set_tempo,,,,,30,1,0,422535,,,,,,
127704,set_tempo,,,,,20,1,0,425532,,,,,,
127714,set_tempo,,,,,10,1,0,428571,,,,,,
127734,set_tempo,,,,,20,1,0,431655,,,,,,
127744,set_tempo,,,,,10,1,0,441176,,,,,,
127774,set_tempo,,,,,30,1,0,444444,,,,,,
127784,set_tempo,,,,,10,1,0,447761,,,,,,
127804,set_tempo,,,,,20,1,0,451128,,,,,,
127814,set_tempo,,,,,10,1,0,454545,,,,,,
127844,set_tempo,,,,,30,1,0,461538,,,,,,
127854,set_tempo,,,,,10,1,0,465116,,,,,,
127860,note_off,,,,,180,0,2,,,0,,,45,64
127884,set_tempo,,,,,30,1,0,468750,,,,,,
127904,set_tempo,,,,,20,1,0,472441,,,,,,
127914,set_tempo,,,,,10,1,0,476190,,,,,,
127920,control_change,,,,,0,0,1,,,0,64,0,,
127920,note_on,,,,,60,0,2,,,0,,,41,80
127920,control_change,,,,,480,0,1,,,0,64,0,,
127944,set_tempo,,,,,30,1,0,483871,,,,,,
127964,set_tempo,,,,,20,1,0,487805,,,,,,
127984,set_tempo,,,,,20,1,0,491803,,,,,,
128014,set_tempo,,,,,30,1,0,495868,,,,,,
128024,set_tempo,,,,,10,1,0,500000,,,,,,
128044,set_tempo,,,,,20,1,0,508475,,,,,,
128064,set_tempo,,,,,20,1,0,517241,,,,,,
128074,set_tempo,,,,,10,1,0,521739,,,,,,
128094,set_tempo,,,,,20,1,0,526316,,,,,,
128100,note_off,,,,,180,0,2,,,0,,,41,64
128104,set_tempo,,,,,10,1,0,535714,,,,,,
128134,set_tempo,,,,,30,1,0,540541,,,,,,
128154,set_tempo,,,,,20,1,0,550459,,,,,,
128160,note_on,,,,,0,0,1,,,0,,,65,77
128160,note_on,,,,,60,0,2,,,0,,,36,80
128160,control_change,,,,,0,0,1,,,0,64,127,,
128160,note_on,,,,,0,0,1,,,0,,,60,77
128160,note_off,,,,,240,0,1,,,0,,,57,64
128160,note_off,,,,,0,0,1,,,0,,,60,64
128160,note_off,,,,,0,0,1,,,0,,,65,64
128160,note_on,,,,,0,0,1,,,0,,,69,77
128164,set_tempo,,,,,10,1,0,545455,,,,,,
128174,set_tempo,,,,,10,1,0,517241,,,,,,
128184,set_tempo,,,,,10,1,0,495868,,,,,,
128194,set_tempo,,,,,10,1,0,491803,,,,,,
128204,set_tempo,,,,,10,1,0,483871,,,,,,
128214,set_tempo,,,,,10,1,0,468750,,,,,,
128224,set_tempo,,,,,10,1,0,451128,,,,,,
128234,set_tempo,,,,,10,1,0,447761,,,,,,
128244,set_tempo,,,,,10,1,0,431655,,,,,,
128254,set_tempo,,,,,10,1,0,425532,,,,,,
128264,set_tempo,,,,,10,1,0,410959,,,,,,
128274,set_tempo,,,,,10,1,0,400000,,,,,,
128284,set_tempo,,,,,10,1,0,397351,,,,,,
128294,set_tempo,,,,,10,1,0,394737,,,,,,
128304,set_tempo,,,,,10,1,0,377358,,,,,,
128314,set_tempo,,,,,10,1,0,370370,,,,,,
128324,set_tempo,,,,,10,1,0,365854,,,,,,
128400,note_on,,,,,0,0,1,,,0,,,70,94
128400,note_off,,,,,240,0,2,,,0,,,36,64
128400,note_on,,,,,0,0,1,,,0,,,67,94
128400,note_off,,,,,0,0,1,,,0,,,69,64
128400,note_off,,,,,0,0,1,,,0,,,65,64
128400,note_off,,,,,240,0,1,,,0,,,60,64
128400,note_on,,,,,0,0,1,,,0,,,60,94
128580,note_off,,,,,0,0,1,,,0,,,70,64
128580,note_off,,,,,0,0,1,,,0,,,67,64
128580,note_off,,,,,180,0,1,,,0,,,60,64
128640,note_on,,,,,240,0,2,,,0,,,72,80
128640,note_on,,,,,0,0,1,,,0,,,60,98
128640,note_on,,,,,0,0,1,,,0,,,64,98
128640,note_on,,,,,60,0,1,,,0,,,67,98
128804,set_tempo,,,,,480,1,0,405405,,,,,,
128814,set_tempo,,,,,10,1,0,408163,,,,,,
128820,note_off,,,,,180,0,1,,,0,,,60,64
128820,note_off,,,,,0,0,1,,,0,,,67,64
128820,note_off,,,,,180,0,2,,,0,,,72,64
128820,control_change,,,,,0,0,1,,,0,64,0,,
128820,note_off,,,,,0,0,1,,,0,,,64,64
128824,set_tempo,,,,,10,1,0,638298,,,,,,
128834,set_tempo,,,,,10,1,0,645161,,,,,,
128870,control_change,,,,,50,0,1,,,0,64,0,,
128880,control_change,,,,,10,0,1,,,0,64,127,,
128880,note_on,,,,,0,0,1,,,0,,,74,112
128880,note_on,,,,,0,0,1,,,0,,,60,112
128880,note_on,,,,,0,0,1,,,0,,,70,112
128880,note_on,,,,,60,0,2,,,0,,,77,69
128884,set_tempo,,,,,50,1,0,500000,,,,,,
128934,set_tempo,,,,,50,1,0,392157,,,,,,
128964,set_tempo,,,,,30,1,0,394737,,,,,,
128974,set_tempo,,,,,10,1,0,397351,,,,,,
129014,set_tempo,,,,,40,1,0,400000,,,,,,
129024,set_tempo,,,,,10,1,0,405405,,,,,,
129054,set_tempo,,,,,30,1,0,408163,,,,,,
129064,set_tempo,,,,,10,1,0,410959,,,,,,
129094,set_tempo,,,,,30,1,0,413793,,,,,,
129120,note_on,,,,,0,0,1,,,0,,,60,72
129120,note_on,,,,,0,0,1,,,0,,,72,72
129120,note_off,,,,,0,0,1,,,0,,,74,64
129120,note_off,,,,,0,0,1,,,0,,,70,64
129120,note_off,,,,,240,0,1,,,0,,,60,64
129120,note_off,,,,,240,0,2,,,0,,,77,64
129120,note_on,,,,,0,0,1,,,0,,,69,72
129124,set_tempo,,,,,30,1,0,422535,,,,,,
129144,set_tempo,,,,,20,1,0,425532,,,,,,
129154,set_tempo,,,,,10,1,0,428571,,,,,,
129174,set_tempo,,,,,20,1,0,431655,,,,,,
129184,set_tempo,,,,,10,1,0,441176,,,,,,
129214,set_tempo,,,,,30,1,0,444444,,,,,,
129224,set_tempo,,,,,10,1,0,447761,,,,,,
129244,set_tempo,,,,,20,1,0,451128,,,,,,
129254,set_tempo,,,,,10,1,0,454545,,,,,,
129284,set_tempo,,,,,30,1,0,461538,,,,,,
129294,set_tempo,,,,,10,1,0,465116,,,,,,
129324,set_tempo,,,,,30,1,0,468750,,,,,,
129344,set_tempo,,,,,20,1,0,472441,,,,,,
129354,set_tempo,,,,,10,1,0,476190,,,,,,
129360,note_on,,,,,240,0,2,,,0,,,48,64
129360,note_off,,,,,0,0,1,,,0,,,72,64
129360,note_off,,,,,0,0,1,,,0,,,69,64
129360,note_off,,,,,240,0,1,,,0,,,60,64
129384,set_tempo,,,,,30,1,0,483871,,,,,,
129404,set_tempo,,,,,20,1,0,487805,,,,,,
129424,set_tempo,,,,,20,1,0,491803,,,,,,
129454,set_tempo,,,,,30,1,0,495868,,,,,,
129464,set_tempo,,,,,10,1,0,500000,,,,,,
129484,set_tempo,,,,,20,1,0,508475,,,,,,
129504,set_tempo,,,,,20,1,0,517241,,,,,,
129514,set_tempo,,,,,10,1,0,521739,,,,,,
129534,set_tempo,,,,,20,1,0,526316,,,,,,
129540,control_change,,,,,180,0,1,,,0,64,0,,
129544,set_tempo,,,,,10,1,0,535714,,,,,,
129574,set_tempo,,,,,30,1,0,540541,,,,,,
129594,set_tempo,,,,,20,1,0,550459,,,,,,
129600,note_on,,,,,60,0,1,,,0,,,69,56
129600,note_on,,,,,0,0,1,,,0,,,65,56
129600,note_on,,,,,0,0,1,,,0,,,60,56
129600,control_change,,,,,0,0,1,,,0,64,127,,
129600,note_on,,,,,0,0,2,,,0,,,36,80
129600,note_off,,,,,240,0,2,,,0,,,48,64
129604,set_tempo,,,,,10,1,0,545455,,,,,,
129614,set_tempo,,,,,10,1,0,517241,,,,,,
129624,set_tempo,,,,,10,1,0,495868,,,,,,
129634,set_tempo,,,,,10,1,0,491803,,,,,,
129644,set_tempo,,,,,10,1,0,483871,,,,,,
129654,set_tempo,,,,,10,1,0,468750,,,,,,
129664,set_tempo,,,,,10,1,0,451128,,,,,,
129674,set_tempo,,,,,10,1,0,447761,,,,,,
129684,set_tempo,,,,,10,1,0,431655,,,,,,
129694,set_tempo,,,,,10,1,0,425532,,,,,,
129704,set_tempo,,,,,10,1,0,410959,,,,,,
129714,set_tempo,,,,,10,1,0,400000,,,,,,
129724,set_tempo,,,,,10,1,0,397351,,,,,,
129734,set_tempo,,,,,10,1,0,394737,,,,,,
129744,set_tempo,,,,,10,1,0,377358,,,,,,
129754,set_tempo,,,,,10,1,0,370370,,,,,,
129764,set_tempo,,,,,10,1,0,365854,,,,,,
129840,note_on,,,,,0,0,1,,,0,,,70,69
129840,note_off,,,,,0,0,1,,,0,,,69,64
129840,note_off,,,,,0,0,1,,,0,,,65,64
129840,note_off,,,,,240,0,1,,,0,,,60,64
129840,note_off,,,,,240,0,2,,,0,,,36,64
129840,note_on,,,,,0,0,1,,,0,,,60,69
129840,note_on,,,,,0,0,1,,,0,,,67,69
130020,note_off,,,,,0,0,1,,,0,,,70,64
130020,note_off,,,,,0,0,1,,,0,,,67,64
130020,note_off,,,,,180,0,1,,,0,,,60,64
130080,note_on,,,,,0,0,1,,,0,,,64,80
130080,note_on,,,,,0,0,1,,,0,,,60,80
130080,note_on,,,,,60,0,1,,,0,,,67,80
130080,note_on,,,,,240,0,2,,,0,,,72,69
130244,set_tempo,,,,,480,1,0,405405,,,,,,
130254,set_tempo,,,,,10,1,0,408163,,,,,,
130260,note_off,,,,,180,0,1,,,0,,,60,64
130260,note_off,,,,,0,0,1,,,0,,,64,64
130260,note_off,,,,,0,0,1,,,0,,,67,64
130260,control_change,,,,,0,0,1,,,0,64,0,,
130260,note_off,,,,,180,0,2,,,0,,,72,64
130264,set_tempo,,,,,10,1,0,638298,,,,,,
130274,set_tempo,,,,,10,1,0,645161,,,,,,
130310,control_change,,,,,50,0,1,,,0,64,0,,
130320,note_on,,,,,60,0,2,,,0,,,77,80
130320,note_on,,,,,0,0,1,,,0,,,74,93
130320,note_on,,,,,0,0,1,,,0,,,70,93
130320,note_on,,,,,0,0,1,,,0,,,60,93
130320,control_change,,,,,10,0,1,,,0,64,127,,
130324,set_tempo,,,,,50,1,0,508475,,,,,,
130374,set_tempo,,,,,50,1,0,397351,,,,,,
130394,set_tempo,,,,,20,1,0,405405,,,,,,
130434,set_tempo,,,,,40,1,0,408163,,,,,,
130454,set_tempo,,,,,20,1,0,410959,,,,,,
130474,set_tempo,,,,,20,1,0,413793,,,,,,
130494,set_tempo,,,,,20,1,0,416667,,,,,,
130504,set_tempo,,,,,10,1,0,422535,,,,,,
130524,set_tempo,,,,,20,1,0,425532,,,,,,
130554,set_tempo,,,,,30,1,0,428571,,,,,,
130560,note_off,,,,,240,0,1,,,0,,,60,64
130560,note_off,,,,,0,0,1,,,0,,,70,64
130560,note_on,,,,,0,0,1,,,0,,,60,64
130560,note_on,,,,,0,0,1,,,0,,,69,64
130560,note_on,,,,,0,0,1,,,0,,,72,64
130560,note_off,,,,,0,0,1,,,0,,,74,64
130560,note_off,,,,,240,0,2,,,0,,,77,64
130574,set_tempo,,,,,20,1,0,431655,,,,,,
130584,set_tempo,,,,,10,1,0,434783,,,,,,
130604,set_tempo,,,,,20,1,0,441176,,,,,,
130634,set_tempo,,,,,30,1,0,444444,,,,,,
130654,set_tempo,,,,,20,1,0,447761,,,,,,
130664,set_tempo,,,,,10,1,0,451128,,,,,,
130674,set_tempo,,,,,10,1,0,454545,,,,,,
130704,set_tempo,,,,,30,1,0,461538,,,,,,
130714,set_tempo,,,,,10,1,0,465116,,,,,,
130734,set_tempo,,,,,20,1,0,472441,,,,,,
130774,set_tempo,,,,,40,1,0,476190,,,,,,
130784,set_tempo,,,,,10,1,0,483871,,,,,,
130794,set_tempo,,,,,10,1,0,491803,,,,,,
130800,note_on,,,,,240,0,2,,,0,,,48,64
130814,set_tempo,,,,,20,1,0,495868,,,,,,
130824,set_tempo,,,,,10,1,0,500000,,,,,,
130834,set_tempo,,,,,10,1,0,512821,,,,,,
130864,set_tempo,,,,,30,1,0,517241,,,,,,
130874,set_tempo,,,,,10,1,0,521739,,,,,,
130894,set_tempo,,,,,20,1,0,526316,,,,,,
130904,set_tempo,,,,,10,1,0,535714,,,,,,
130914,set_tempo,,,,,10,1,0,540541,,,,,,
130944,set_tempo,,,,,30,1,0,545455,,,,,,
130954,set_tempo,,,,,10,1,0,550459,,,,,,
130974,set_tempo,,,,,20,1,0,555556,,,,,,
130980,note_off,,,,,180,0,2,,,0,,,48,64
130980,note_off,,,,,0,0,1,,,0,,,69,64
130980,control_change,,,,,0,0,1,,,0,64,0,,
130980,note_off,,,,,420,0,1,,,0,,,60,64
130980,note_off,,,,,0,0,1,,,0,,,72,64
131040,set_tempo,,,,,66,1,0,434783,,,,,,
131040,note_on,,,,,60,0,2,,,0,,,36,80
131040,note_on,,,,,60,0,1,,,0,,,69,103
131040,note_on,,,,,0,0,1,,,0,,,65,103
131040,note_on,,,,,0,0,1,,,0,,,60,103
131040,control_change,,,,,0,0,1,,,0,64,127,,
131060,set_tempo,,,,,20,1,0,441176,,,,,,
131130,set_tempo,,,,,70,1,0,447761,,,,,,
131140,set_tempo,,,,,10,1,0,451128,,,,,,
131190,set_tempo,,,,,50,1,0,454545,,,,,,
131280,note_off,,,,,0,0,1,,,0,,,65,64
131280,note_on,,,,,0,0,1,,,0,,,67,90
131280,note_off,,,,,0,0,1,,,0,,,69,64
131280,note_off,,,,,240,0,2,,,0,,,36,64
131280,note_on,,,,,0,0,1,,,0,,,70,90
131280,note_on,,,,,0,0,1,,,0,,,60,90
131280,note_off,,,,,240,0,1,,,0,,,60,64
131390,set_tempo,,,,,200,1,0,465116,,,,,,
131490,set_tempo,,,,,100,1,0,468750,,,,,,
131520,note_on,,,,,0,0,1,,,0,,,64,105
131520,note_on,,,,,0,0,1,,,0,,,60,105
131520,note_on,,,,,0,0,1,,,0,,,67,105
131520,note_off,,,,,0,0,1,,,0,,,67,64
131520,note_off,,,,,0,0,1,,,0,,,70,64
131520,note_off,,,,,240,0,1,,,0,,,60,64
131520,note_on,,,,,240,0,2,,,0,,,72,70
131570,set_tempo,,,,,80,1,0,472441,,,,,,
131630,set_tempo,,,,,60,1,0,476190,,,,,,
131700,control_change,,,,,180,0,1,,,0,64,0,,
131710,set_tempo,,,,,80,1,0,483871,,,,,,
131730,set_tempo,,,,,20,1,0,1250000,,,,,,
131760,note_on,,,,,0,0,1,,,0,,,64,111
131760,note_on,,,,,0,0,1,,,0,,,67,111
131760,note_on,,,,,0,0,1,,,0,,,69,111
131760,note_on,,,,,0,0,1,,,0,,,57,111
131760,note_off,,,,,0,0,1,,,0,,,67,64
131760,note_on,,,,,0,0,2,,,0,,,73,80
131760,note_off,,,,,240,0,2,,,0,,,72,64
131760,note_off,,,,,60,0,1,,,0,,,60,64
131760,note_off,,,,,0,0,1,,,0,,,64,64
131790,set_tempo,,,,,60,1,0,491803,,,,,,
131870,set_tempo,,,,,80,1,0,495868,,,,,,
131930,set_tempo,,,,,60,1,0,500000,,,,,,
131940,note_off,,,,,180,0,2,,,0,,,73,64
131950,set_tempo,,,,,20,1,0,508475,,,,,,
132000,note_on,,,,,60,0,2,,,0,,,61,80
132010,set_tempo,,,,,60,1,0,512821,,,,,,
132090,set_tempo,,,,,80,1,0,517241,,,,,,
132170,set_tempo,,,,,80,1,0,521739,,,,,,
132180,note_off,,,,,180,0,2,,,0,,,61,64
132180,set_tempo,,,,,10,1,0,526316,,,,,,
132240,set_tempo,,,,,60,1,0,535714,,,,,,
132240,note_on,,,,,60,0,2,,,0,,,49,80
132260,set_tempo,,,,,20,1,0,540541,,,,,,
132280,set_tempo,,,,,20,1,0,545455,,,,,,
132360,set_tempo,,,,,80,1,0,550459,,,,,,
132380,set_tempo,,,,,20,1,0,555556,,,,,,
132400,set_tempo,,,,,20,1,0,566038,,,,,,
132420,note_off,,,,,180,0,2,,,0,,,49,64
132430,set_tempo,,,,,30,1,0,571429,,,,,,
132450,set_tempo,,,,,20,1,0,576923,,,,,,
132480,note_on,,,,,60,0,2,,,0,,,37,80
132510,set_tempo,,,,,60,1,0,582524,,,,,,
132590,set_tempo,,,,,80,1,0,600000,,,,,,
132660,set_tempo,,,,,70,1,0,618557,,,,,,
132660,note_off,,,,,180,0,2,,,0,,,37,64
132680,set_tempo,,,,,20,1,0,625000,,,,,,
132690,set_tempo,,,,,10,1,0,638298,,,,,,
132720,set_tempo,,,,,30,1,0,645161,,,,,,
132720,note_on,,,,,60,0,2,,,0,,,45,80
132730,set_tempo,,,,,10,1,0,652174,,,,,,
132750,set_tempo,,,,,20,1,0,659341,,,,,,
132780,set_tempo,,,,,30,1,0,666667,,,,,,
132800,set_tempo,,,,,20,1,0,681818,,,,,,
132820,set_tempo,,,,,20,1,0,689655,,,,,,
132840,set_tempo,,,,,20,1,0,697674,,,,,,
132860,set_tempo,,,,,20,1,0,705882,,,,,,
132880,set_tempo,,,,,20,1,0,714286,,,,,,
132900,note_off,,,,,180,0,2,,,0,,,45,64
132910,set_tempo,,,,,30,1,0,731707,,,,,,
132920,set_tempo,,,,,10,1,0,740741,,,,,,
132950,set_tempo,,,,,30,1,0,750000,,,,,,
133210,set_tempo,,,,,260,1,0,508475,,,,,,
133910,set_tempo,,,,,700,1,0,512821,,,,,,
133920,note_off,,,,,0,0,1,,,0,,,67,64
133920,note_off,,,,,0,0,1,,,0,,,64,64
133920,note_off,,,,,2160,0,1,,,0,,,57,64
133920,note_on,,,,,0,0,1,,,0,,,62,34
133920,note_on,,,,,0,0,1,,,0,,,66,34
133920,note_off,,,,,0,0,1,,,0,,,69,64
133920,note_on,,,,,1020,0,2,,,0,,,50,44
133920,note_on,,,,,0,0,1,,,0,,,57,34
133940,set_tempo,,,,,30,1,0,508475,,,,,,
133970,set_tempo,,,,,30,1,0,495868,,,,,,
134000,set_tempo,,,,,30,1,0,491803,,,,,,
134020,set_tempo,,,,,20,1,0,487805,,,,,,
134030,set_tempo,,,,,10,1,0,483871,,,,,,
134100,note_off,,,,,180,0,2,,,0,,,50,64
134110,set_tempo,,,,,80,1,0,476190,,,,,,
134160,note_on,,,,,60,0,2,,,0,,,72,37
134170,set_tempo,,,,,60,1,0,472441,,,,,,
134230,set_tempo,,,,,60,1,0,468750,,,,,,
134250,set_tempo,,,,,20,1,0,465116,,,,,,
134270,set_tempo,,,,,20,1,0,461538,,,,,,
134290,set_tempo,,,,,20,1,0,454545,,,,,,
134340,note_off,,,,,180,0,2,,,0,,,72,64
134350,set_tempo,,,,,60,1,0,451128,,,,,,
134370,set_tempo,,,,,20,1,0,447761,,,,,,
134430,set_tempo,,,,,60,1,0,444444,,,,,,
134510,set_tempo,,,,,80,1,0,441176,,,,,,
134570,set_tempo,,,,,60,1,0,434783,,,,,,
134590,set_tempo,,,,,20,1,0,428571,,,,,,
134640,note_off,,,,,0,0,1,,,0,,,66,64
134640,note_on,,,,,300,0,2,,,0,,,50,48
134640,note_on,,,,,0,0,1,,,0,,,59,35
134640,note_off,,,,,720,0,1,,,0,,,57,64
134640,note_off,,,,,0,0,1,,,0,,,62,64
134640,note_on,,,,,0,0,1,,,0,,,62,35
134640,note_on,,,,,0,0,1,,,0,,,67,35
134650,set_tempo,,,,,60,1,0,425532,,,,,,
134730,set_tempo,,,,,80,1,0,422535,,,,,,
134810,set_tempo,,,,,80,1,0,416667,,,,,,
134820,note_off,,,,,180,0,2,,,0,,,50,64
134830,set_tempo,,,,,20,1,0,413793,,,,,,
134860,set_tempo,,,,,30,1,0,410959,,,,,,
134880,note_on,,,,,60,0,2,,,0,,,71,32
134980,set_tempo,,,,,120,1,0,408163,,,,,,
135060,note_off,,,,,180,0,2,,,0,,,71,64
135360,note_on,,,,,300,0,2,,,0,,,50,48
135360,control_change,,,,,0,0,1,,,0,64,127,,
135360,note_on,,,,,0,0,1,,,0,,,64,36
135360,note_off,,,,,0,0,1,,,0,,,67,64
135360,note_off,,,,,0,0,1,,,0,,,62,64
135360,note_off,,,,,720,0,1,,,0,,,59,64
135360,note_on,,,,,0,0,1,,,0,,,67,36
135360,note_on,,,,,0,0,1,,,0,,,57,36
135540,note_off,,,,,180,0,2,,,0,,,50,64
135600,note_off,,,,,0,0,1,,,0,,,64,64
135600,note_off,,,,,0,0,1,,,0,,,67,64
135600,note_on,,,,,0,0,1,,,0,,,64,31
135600,note_on,,,,,0,0,1,,,0,,,57,31
135600,note_off,,,,,240,0,1,,,0,,,57,64
135600,note_on,,,,,0,0,1,,,0,,,69,31
135600,note_on,,,,,60,0,2,,,0,,,73,36
135650,set_tempo,,,,,670,1,0,410959,,,,,,
135660,set_tempo,,,,,10,1,0,413793,,,,,,
135700,set_tempo,,,,,40,1,0,416667,,,,,,
135770,set_tempo,,,,,70,1,0,422535,,,,,,
135780,note_off,,,,,180,0,2,,,0,,,73,64
135840,note_on,,,,,0,0,1,,,0,,,64,25
135840,note_off,,,,,240,0,1,,,0,,,57,64
135840,note_off,,,,,0,0,1,,,0,,,64,64
135840,note_off,,,,,0,0,1,,,0,,,69,64
135840,note_on,,,,,0,0,1,,,0,,,67,25
135840,note_on,,,,,0,0,1,,,0,,,57,25
135880,set_tempo,,,,,110,1,0,425532,,,,,,
135920,set_tempo,,,,,40,1,0,428571,,,,,,
136060,set_tempo,,,,,140,1,0,434783,,,,,,
136080,note_off,,,,,240,0,1,,,0,,,57,64
136080,control_change,,,,,0,0,1,,,0,64,0,,
136080,note_on,,,,,0,0,1,,,0,,,62,34
136080,note_on,,,,,0,0,1,,,0,,,66,34
136080,note_off,,,,,0,0,1,,,0,,,67,64
136080,note_off,,,,,0,0,1,,,0,,,64,64
136080,note_on,,,,,0,0,1,,,0,,,57,34
136080,note_on,,,,,300,0,2,,,0,,,50,44
136140,set_tempo,,,,,80,1,0,444444,,,,,,
136180,set_tempo,,,,,40,1,0,447761,,,,,,
136240,set_tempo,,,,,60,1,0,451128,,,,,,
136260,note_off,,,,,180,0,2,,,0,,,50,64
136300,set_tempo,,,,,60,1,0,461538,,,,,,
136320,note_on,,,,,60,0,2,,,0,,,74,31
136370,set_tempo,,,,,70,1,0,465116,,,,,,
136430,set_tempo,,,,,60,1,0,468750,,,,,,
136450,set_tempo,,,,,20,1,0,472441,,,,,,
136490,set_tempo,,,,,40,1,0,476190,,,,,,
136500,note_off,,,,,180,0,2,,,0,,,74,64
136540,set_tempo,,,,,50,1,0,483871,,,,,,
136560,set_tempo,,,,,20,1,0,487805,,,,,,
136580,set_tempo,,,,,20,1,0,491803,,,,,,
136590,set_tempo,,,,,10,1,0,495868,,,,,,
136690,set_tempo,,,,,100,1,0,500000,,,,,,
136750,set_tempo,,,,,60,1,0,508475,,,,,,
136790,set_tempo,,,,,40,1,0,428571,,,,,,
136800,note_off,,,,,720,0,1,,,0,,,57,64
136800,note_off,,,,,0,0,1,,,0,,,62,64
136800,note_off,,,,,0,0,1,,,0,,,66,64
136800,note_on,,,,,300,0,2,,,0,,,62,33
136800,note_on,,,,,0,0,1,,,0,,,74,28
136800,note_on,,,,,0,0,1,,,0,,,69,28
136800,note_on,,,,,0,0,1,,,0,,,78,28
136850,set_tempo,,,,,60,1,0,431655,,,,,,
136950,set_tempo,,,,,100,1,0,441176,,,,,,
136980,note_off,,,,,180,0,2,,,0,,,62,64
137040,note_on,,,,,60,0,2,,,0,,,84,23
137070,set_tempo,,,,,120,1,0,444444,,,,,,
137130,set_tempo,,,,,60,1,0,447761,,,,,,
137190,set_tempo,,,,,60,1,0,454545,,,,,,
137220,note_off,,,,,180,0,2,,,0,,,84,64
137370,set_tempo,,,,,180,1,0,465116,,,,,,
137510,set_tempo,,,,,140,1,0,468750,,,,,,
137520,note_on,,,,,0,0,1,,,0,,,71,29
137520,note_on,,,,,0,0,1,,,0,,,74,29
137520,note_off,,,,,0,0,1,,,0,,,78,64
137520,note_off,,,,,0,0,1,,,0,,,74,64
137520,note_off,,,,,720,0,1,,,0,,,69,64
137520,note_on,,,,,300,0,2,,,0,,,62,32
137520,note_on,,,,,0,0,1,,,0,,,79,29
137590,set_tempo,,,,,80,1,0,472441,,,,,,
137700,note_off,,,,,180,0,2,,,0,,,62,64
137730,set_tempo,,,,,140,1,0,476190,,,,,,
137760,note_on,,,,,60,0,2,,,0,,,83,21
137870,set_tempo,,,,,140,1,0,483871,,,,,,
137940,note_off,,,,,180,0,2,,,0,,,83,64
138110,set_tempo,,,,,240,1,0,487805,,,,,,
138130,set_tempo,,,,,20,1,0,491803,,,,,,
138240,note_on,,,,,0,0,1,,,0,,,69,28
138240,control_change,,,,,0,0,1,,,0,64,127,,
138240,note_off,,,,,0,0,1,,,0,,,74,64
138240,note_off,,,,,720,0,1,,,0,,,71,64
138240,note_off,,,,,0,0,1,,,0,,,79,64
138240,note_on,,,,,0,0,1,,,0,,,76,28
138240,note_on,,,,,0,0,1,,,0,,,79,28
138240,note_on,,,,,300,0,2,,,0,,,62,32
138350,set_tempo,,,,,220,1,0,495868,,,,,,
138420,note_off,,,,,180,0,2,,,0,,,62,64
138430,set_tempo,,,,,80,1,0,500000,,,,,,
138480,note_on,,,,,0,0,1,,,0,,,69,25
138480,note_on,,,,,60,0,2,,,0,,,85,23
138480,note_off,,,,,240,0,1,,,0,,,69,64
138480,note_on,,,,,0,0,1,,,0,,,81,25
138480,note_off,,,,,0,0,1,,,0,,,79,64
138480,note_off,,,,,0,0,1,,,0,,,76,64
138480,note_on,,,,,0,0,1,,,0,,,76,25
138650,set_tempo,,,,,220,1,0,508475,,,,,,
138660,note_off,,,,,180,0,2,,,0,,,85,64
138670,set_tempo,,,,,20,1,0,512821,,,,,,
138720,note_off,,,,,240,0,1,,,0,,,69,64
138720,note_off,,,,,0,0,1,,,0,,,81,64
138720,note_off,,,,,0,0,1,,,0,,,76,64
138720,note_on,,,,,0,0,1,,,0,,,69,19
138720,note_on,,,,,0,0,1,,,0,,,79,19
138720,note_on,,,,,0,0,1,,,0,,,76,19
138790,set_tempo,,,,,120,1,0,521739,,,,,,
138870,set_tempo,,,,,80,1,0,526316,,,,,,
138930,set_tempo,,,,,60,1,0,535714,,,,,,
138952,set_tempo,,,,,22,1,0,540541,,,,,,
138960,note_off,,,,,0,0,1,,,0,,,69,64
138960,note_off,,,,,240,0,1,,,0,,,76,64
138960,note_off,,,,,0,0,1,,,0,,,79,64
138960,note_on,,,,,300,0,2,,,0,,,62,24
138960,note_on,,,,,0,0,1,,,0,,,69,23
138960,control_change,,,,,0,0,1,,,0,64,0,,
138960,note_on,,,,,0,0,1,,,0,,,74,23
138960,note_on,,,,,0,0,1,,,0,,,78,23
139000,set_tempo,,,,,48,1,0,545455,,,,,,
139012,set_tempo,,,,,12,1,0,550459,,,,,,
139032,set_tempo,,,,,20,1,0,555556,,,,,,
139040,set_tempo,,,,,8,1,0,566038,,,,,,
139060,set_tempo,,,,,20,1,0,571429,,,,,,
139066,set_tempo,,,,,6,1,0,576923,,,,,,
139086,set_tempo,,,,,20,1,0,582524,,,,,,
139100,set_tempo,,,,,14,1,0,588235,,,,,,
139112,set_tempo,,,,,12,1,0,600000,,,,,,
139126,set_tempo,,,,,14,1,0,606061,,,,,,
139140,note_off,,,,,180,0,2,,,0,,,62,64
139140,set_tempo,,,,,14,1,0,618557,,,,,,
139146,set_tempo,,,,,6,1,0,625000,,,,,,
139166,set_tempo,,,,,20,1,0,638298,,,,,,
139180,set_tempo,,,,,14,1,0,652174,,,,,,
139192,set_tempo,,,,,12,1,0,666667,,,,,,
139200,note_on,,,,,60,0,2,,,0,,,86,21
139206,set_tempo,,,,,14,1,0,689655,,,,,,
139220,set_tempo,,,,,14,1,0,697674,,,,,,
139260,set_tempo,,,,,40,1,0,759494,,,,,,
139266,set_tempo,,,,,6,1,0,769231,,,,,,
139306,set_tempo,,,,,40,1,0,800000,,,,,,
139312,set_tempo,,,,,6,1,0,821918,,,,,,
139360,set_tempo,,,,,48,1,0,833333,,,,,,
139372,set_tempo,,,,,12,1,0,869565,,,,,,
139380,note_off,,,,,180,0,2,,,0,,,86,64
139386,set_tempo,,,,,14,1,0,882353,,,,,,
139392,set_tempo,,,,,6,1,0,895522,,,,,,
139406,set_tempo,,,,,14,1,0,909091,,,,,,
139420,set_tempo,,,,,14,1,0,937500,,,,,,
139432,set_tempo,,,,,12,1,0,952381,,,,,,
139440,set_tempo,,,,,8,1,0,983607,,,,,,
139480,set_tempo,,,,,40,1,0,1034483,,,,,,
139486,set_tempo,,,,,6,1,0,1071429,,,,,,
139506,set_tempo,,,,,20,1,0,1111111,,,,,,
139512,set_tempo,,,,,6,1,0,1153846,,,,,,
139520,set_tempo,,,,,8,1,0,1176471,,,,,,
139526,set_tempo,,,,,6,1,0,1200000,,,,,,
139532,set_tempo,,,,,6,1,0,1224490,,,,,,
139552,set_tempo,,,,,20,1,0,1250000,,,,,,
139560,set_tempo,,,,,8,1,0,1304348,,,,,,
139566,set_tempo,,,,,6,1,0,1333333,,,,,,
139606,set_tempo,,,,,40,1,0,1363636,,,,,,
139612,set_tempo,,,,,6,1,0,1428571,,,,,,
139626,set_tempo,,,,,14,1,0,1538462,,,,,,
139632,set_tempo,,,,,6,1,0,1578947,,,,,,
139640,set_tempo,,,,,8,1,0,1666667,,,,,,
139646,set_tempo,,,,,6,1,0,3157895,,,,,,
139680,set_tempo,,,,,34,1,0,465116,,,,,,
139680,note_on,,,,,300,0,2,,,0,,,69,56
139680,note_off,,,,,720,0,1,,,0,,,74,64
139680,note_off,,,,,0,0,1,,,0,,,78,64
139680,note_off,,,,,0,0,1,,,0,,,69,64
139680,note_on,,,,,0,0,1,,,0,,,64,59
139680,note_on,,,,,0,0,1,,,0,,,61,59
139680,note_on,,,,,0,0,1,,,0,,,57,59
139920,note_off,,,,,240,0,2,,,0,,,69,64
139920,note_on,,,,,0,0,2,,,0,,,45,45
140160,note_off,,,,,240,0,2,,,0,,,45,64
140400,note_on,,,,,0,0,1,,,0,,,57,74
140400,note_on,,,,,0,0,1,,,0,,,65,74
140400,note_off,,,,,0,0,1,,,0,,,61,64
140400,note_off,,,,,720,0,1,,,0,,,57,64
140400,note_off,,,,,0,0,1,,,0,,,64,64
140400,note_on,,,,,0,0,1,,,0,,,62,74
140400,note_on,,,,,240,0,2,,,0,,,69,60
140640,note_on,,,,,240,0,2,,,0,,,45,47
140820,note_off,,,,,180,0,2,,,0,,,45,64
141100,set_tempo,,,,,1420,1,0,468750,,,,,,
141120,note_off,,,,,300,0,2,,,0,,,69,64
141120,note_on,,,,,0,0,1,,,0,,,65,60
141120,note_on,,,,,0,0,1,,,0,,,69,60
141120,note_off,,,,,720,0,1,,,0,,,57,64
141120,note_off,,,,,0,0,1,,,0,,,62,64
141120,note_off,,,,,0,0,1,,,0,,,65,64
141136,set_tempo,,,,,36,1,0,465116,,,,,,
141160,set_tempo,,,,,24,1,0,461538,,,,,,
141168,set_tempo,,,,,8,1,0,454545,,,,,,
141196,set_tempo,,,,,28,1,0,451128,,,,,,
141260,set_tempo,,,,,64,1,0,447761,,,,,,
141332,set_tempo,,,,,72,1,0,444444,,,,,,
141360,note_off,,,,,240,0,1,,,0,,,65,64
141360,note_off,,,,,0,0,1,,,0,,,69,64
141360,note_on,,,,,0,0,1,,,0,,,67,56
141360,note_on,,,,,240,0,2,,,0,,,76,42
141360,note_on,,,,,0,0,1,,,0,,,64,56
141380,set_tempo,,,,,48,1,0,441176,,,,,,
141480,note_on,,,,,0,0,2,,,0,,,77,36
141480,note_off,,,,,120,0,2,,,0,,,76,64
141492,set_tempo,,,,,112,1,0,434783,,,,,,
141540,note_off,,,,,180,0,1,,,0,,,64,64
141540,note_off,,,,,0,0,1,,,0,,,67,64
141600,note_on,,,,,0,0,2,,,0,,,79,45
141600,note_on,,,,,0,0,1,,,0,,,62,49
141600,note_on,,,,,60,0,1,,,0,,,65,49
141600,note_off,,,,,120,0,2,,,0,,,77,64
141688,set_tempo,,,,,196,1,0,431655,,,,,,
141720,note_off,,,,,120,0,2,,,0,,,79,64
141720,note_on,,,,,0,0,2,,,0,,,80,51
141728,set_tempo,,,,,40,1,0,428571,,,,,,
141780,note_off,,,,,0,0,1,,,0,,,65,64
141780,note_off,,,,,180,0,1,,,0,,,62,64
141832,set_tempo,,,,,104,1,0,425532,,,,,,
141840,note_on,,,,,0,0,1,,,0,,,57,53
141840,note_off,,,,,120,0,2,,,0,,,80,64
141840,note_on,,,,,60,0,1,,,0,,,64,53
141840,note_on,,,,,0,0,2,,,0,,,81,54
141840,note_on,,,,,0,0,1,,,0,,,61,53
142080,note_on,,,,,240,0,2,,,0,,,45,52
142090,set_tempo,,,,,258,1,0,431655,,,,,,
142110,set_tempo,,,,,20,1,0,461538,,,,,,
142120,set_tempo,,,,,10,1,0,491803,,,,,,
142130,set_tempo,,,,,10,1,0,508475,,,,,,
142140,set_tempo,,,,,10,1,0,512821,,,,,,
142150,set_tempo,,,,,10,1,0,521739,,,,,,
142160,set_tempo,,,,,10,1,0,545455,,,,,,
142200,note_on,,,,,0,0,2,,,0,,,46,60
142200,note_off,,,,,120,0,2,,,0,,,45,64
142200,set_tempo,,,,,40,1,0,550459,,,,,,
142240,set_tempo,,,,,40,1,0,566038,,,,,,
142270,set_tempo,,,,,30,1,0,571429,,,,,,
142280,set_tempo,,,,,10,1,0,576923,,,,,,
142310,set_tempo,,,,,30,1,0,588235,,,,,,
142320,set_tempo,,,,,10,1,0,821918,,,,,,
142320,note_on,,,,,0,0,2,,,0,,,45,46
142320,note_off,,,,,120,0,2,,,0,,,46,64
142440,note_off,,,,,120,0,2,,,0,,,45,64
142560,note_off,,,,,720,0,1,,,0,,,57,64
142560,note_off,,,,,0,0,1,,,0,,,64,64
142560,note_on,,,,,0,0,1,,,0,,,61,75
142560,note_on,,,,,0,0,1,,,0,,,57,75
142560,control_change,,,,,0,0,1,,,0,64,127,,
142560,note_on,,,,,0,0,1,,,0,,,64,75
142560,note_off,,,,,0,0,1,,,0,,,61,64
142560,note_off,,,,,120,0,2,,,0,,,81,64
142560,note_on,,,,,0,0,2,,,0,,,69,76
142574,set_tempo,,,,,254,1,0,416667,,,,,,
142584,set_tempo,,,,,10,1,0,413793,,,,,,
142634,set_tempo,,,,,50,1,0,410959,,,,,,
142734,set_tempo,,,,,100,1,0,408163,,,,,,
142800,note_on,,,,,0,0,2,,,0,,,45,62
142800,note_off,,,,,240,0,2,,,0,,,69,64
142874,set_tempo,,,,,140,1,0,405405,,,,,,
142914,set_tempo,,,,,40,1,0,400000,,,,,,
142954,set_tempo,,,,,40,1,0,397351,,,,,,
143004,set_tempo,,,,,50,1,0,394737,,,,,,
143034,set_tempo,,,,,30,1,0,392157,,,,,,
143040,control_change,,,,,480,0,1,,,0,64,0,,
143040,note_off,,,,,240,0,2,,,0,,,45,64
143074,set_tempo,,,,,40,1,0,389610,,,,,,
143144,set_tempo,,,,,70,1,0,384615,,,,,,
143214,set_tempo,,,,,70,1,0,382166,,,,,,
143234,set_tempo,,,,,20,1,0,379747,,,,,,
143274,set_tempo,,,,,40,1,0,389610,,,,,,
143280,note_on,,,,,0,0,1,,,0,,,57,85
143280,note_off,,,,,240,0,1,,,0,,,57,64
143280,note_off,,,,,0,0,1,,,0,,,64,64
143280,note_on,,,,,0,0,1,,,0,,,65,85
143280,note_on,,,,,240,0,2,,,0,,,69,74
143280,control_change,,,,,0,0,1,,,0,64,127,,
143280,note_on,,,,,0,0,1,,,0,,,60,85
143280,note_off,,,,,0,0,1,,,0,,,61,64
143334,set_tempo,,,,,60,1,0,392157,,,,,,
143364,set_tempo,,,,,30,1,0,394737,,,,,,
143374,set_tempo,,,,,10,1,0,397351,,,,,,
143414,set_tempo,,,,,40,1,0,400000,,,,,,
143424,set_tempo,,,,,10,1,0,405405,,,,,,
143454,set_tempo,,,,,30,1,0,408163,,,,,,
143464,set_tempo,,,,,10,1,0,410959,,,,,,
143494,set_tempo,,,,,30,1,0,413793,,,,,,
143520,note_off,,,,,240,0,2,,,0,,,69,64
143520,note_on,,,,,0,0,2,,,0,,,45,80
143524,set_tempo,,,,,30,1,0,422535,,,,,,
143544,set_tempo,,,,,20,1,0,425532,,,,,,
143554,set_tempo,,,,,10,1,0,428571,,,,,,
143574,set_tempo,,,,,20,1,0,431655,,,,,,
143584,set_tempo,,,,,10,1,0,441176,,,,,,
143614,set_tempo,,,,,30,1,0,444444,,,,,,
143624,set_tempo,,,,,10,1,0,447761,,,,,,
143644,set_tempo,,,,,20,1,0,451128,,,,,,
143654,set_tempo,,,,,10,1,0,454545,,,,,,
143684,set_tempo,,,,,30,1,0,461538,,,,,,
143694,set_tempo,,,,,10,1,0,465116,,,,,,
143700,note_off,,,,,180,0,2,,,0,,,45,64
143724,set_tempo,,,,,30,1,0,468750,,,,,,
143744,set_tempo,,,,,20,1,0,472441,,,,,,
143754,set_tempo,,,,,10,1,0,476190,,,,,,
143760,note_on,,,,,60,0,2,,,0,,,41,80
143760,control_change,,,,,0,0,1,,,0,64,0,,
143760,control_change,,,,,480,0,1,,,0,64,0,,
143784,set_tempo,,,,,30,1,0,483871,,,,,,
143804,set_tempo,,,,,20,1,0,487805,,,,,,
143824,set_tempo,,,,,20,1,0,491803,,,,,,
143854,set_tempo,,,,,30,1,0,495868,,,,,,
143864,set_tempo,,,,,10,1,0,500000,,,,,,
143884,set_tempo,,,,,20,1,0,508475,,,,,,
143904,set_tempo,,,,,20,1,0,517241,,,,,,
143914,set_tempo,,,,,10,1,0,521739,,,,,,
143934,set_tempo,,,,,20,1,0,526316,,,,,,
143940,note_off,,,,,180,0,2,,,0,,,41,64
143944,set_tempo,,,,,10,1,0,535714,,,,,,
143974,set_tempo,,,,,30,1,0,540541,,,,,,
143994,set_tempo,,,,,20,1,0,550459,,,,,,
144000,note_off,,,,,0,0,1,,,0,,,60,64
144000,note_on,,,,,60,0,2,,,0,,,36,80
144000,note_on,,,,,0,0,1,,,0,,,69,77
144000,control_change,,,,,0,0,1,,,0,64,127,,
144000,note_off,,,,,240,0,1,,,0,,,57,64
144000,note_off,,,,,0,0,1,,,0,,,65,64
144000,note_on,,,,,0,0,1,,,0,,,65,77
144000,note_on,,,,,0,0,1,,,0,,,60,77
144004,set_tempo,,,,,10,1,0,545455,,,,,,
144014,set_tempo,,,,,10,1,0,517241,,,,,,
144024,set_tempo,,,,,10,1,0,495868,,,,,,
144034,set_tempo,,,,,10,1,0,491803,,,,,,
144044,set_tempo,,,,,10,1,0,483871,,,,,,
144054,set_tempo,,,,,10,1,0,468750,,,,,,
144064,set_tempo,,,,,10,1,0,451128,,,,,,
144074,set_tempo,,,,,10,1,0,447761,,,,,,
144084,set_tempo,,,,,10,1,0,431655,,,,,,
144094,set_tempo,,,,,10,1,0,425532,,,,,,
144104,set_tempo,,,,,10,1,0,410959,,,,,,
144114,set_tempo,,,,,10,1,0,400000,,,,,,
144124,set_tempo,,,,,10,1,0,397351,,,,,,
144134,set_tempo,,,,,10,1,0,394737,,,,,,
144144,set_tempo,,,,,10,1,0,377358,,,,,,
144154,set_tempo,,,,,10,1,0,370370,,,,,,
144164,set_tempo,,,,,10,1,0,365854,,,,,,
144240,note_off,,,,,0,0,1,,,0,,,65,64
144240,note_off,,,,,0,0,1,,,0,,,69,64
144240,note_on,,,,,0,0,1,,,0,,,70,94
144240,note_on,,,,,0,0,1,,,0,,,67,94
144240,note_on,,,,,0,0,1,,,0,,,60,94
144240,note_off,,,,,240,0,2,,,0,,,36,64
144240,note_off,,,,,240,0,1,,,0,,,60,64
144420,note_off,,,,,180,0,1,,,0,,,60,64
144420,note_off,,,,,0,0,1,,,0,,,70,64
144420,note_off,,,,,0,0,1,,,0,,,67,64
144480,note_on,,,,,0,0,1,,,0,,,60,98
144480,note_on,,,,,240,0,2,,,0,,,72,80
144480,note_on,,,,,0,0,1,,,0,,,64,98
144480,note_on,,,,,60,0,1,,,0,,,67,98
144644,set_tempo,,,,,480,1,0,405405,,,,,,
144654,set_tempo,,,,,10,1,0,408163,,,,,,
144660,note_off,,,,,0,0,1,,,0,,,64,64
144660,note_off,,,,,0,0,1,,,0,,,67,64
144660,control_change,,,,,0,0,1,,,0,64,0,,
144660,note_off,,,,,180,0,2,,,0,,,72,64
144660,note_off,,,,,180,0,1,,,0,,,60,64
144664,set_tempo,,,,,10,1,0,638298,,,,,,
144674,set_tempo,,,,,10,1,0,645161,,,,,,
144710,control_change,,,,,50,0,1,,,0,64,0,,
144720,note_on,,,,,0,0,1,,,0,,,60,112
144720,note_on,,,,,60,0,2,,,0,,,77,69
144720,note_on,,,,,0,0,1,,,0,,,70,112
144720,note_on,,,,,0,0,1,,,0,,,74,112
144720,control_change,,,,,10,0,1,,,0,64,127,,
144724,set_tempo,,,,,50,1,0,500000,,,,,,
144774,set_tempo,,,,,50,1,0,392157,,,,,,
144804,set_tempo,,,,,30,1,0,394737,,,,,,
144814,set_tempo,,,,,10,1,0,397351,,,,,,
144854,set_tempo,,,,,40,1,0,400000,,,,,,
144864,set_tempo,,,,,10,1,0,405405,,,,,,
144894,set_tempo,,,,,30,1,0,408163,,,,,,
144904,set_tempo,,,,,10,1,0,410959,,,,,,
144934,set_tempo,,,,,30,1,0,413793,,,,,,
144960,note_off,,,,,0,0,1,,,0,,,74,64
144960,note_off,,,,,240,0,1,,,0,,,60,64
144960,note_off,,,,,0,0,1,,,0,,,70,64
144960,note_on,,,,,0,0,1,,,0,,,69,72
144960,note_off,,,,,240,0,2,,,0,,,77,64
144960,note_on,,,,,0,0,1,,,0,,,72,72
144960,note_on,,,,,0,0,1,,,0,,,60,72
144964,set_tempo,,,,,30,1,0,422535,,,,,,
144984,set_tempo,,,,,20,1,0,425532,,,,,,
144994,set_tempo,,,,,10,1,0,428571,,,,,,
145014,set_tempo,,,,,20,1,0,431655,,,,,,
145024,set_tempo,,,,,10,1,0,441176,,,,,,
145054,set_tempo,,,,,30,1,0,444444,,,,,,
145064,set_tempo,,,,,10,1,0,447761,,,,,,
145084,set_tempo,,,,,20,1,0,451128,,,,,,
145094,set_tempo,,,,,10,1,0,454545,,,,,,
145124,set_tempo,,,,,30,1,0,461538,,,,,,
145134,set_tempo,,,,,10,1,0,465116,,,,,,
145164,set_tempo,,,,,30,1,0,468750,,,,,,
145184,set_tempo,,,,,20,1,0,472441,,,,,,
145194,set_tempo,,,,,10,1,0,476190,,,,,,
145200,note_off,,,,,240,0,1,,,0,,,60,64
145200,note_off,,,,,0,0,1,,,0,,,72,64
145200,note_on,,,,,240,0,2,,,0,,,48,64
145200,note_off,,,,,0,0,1,,,0,,,69,64
145224,set_tempo,,,,,30,1,0,483871,,,,,,
145244,set_tempo,,,,,20,1,0,487805,,,,,,
145264,set_tempo,,,,,20,1,0,491803,,,,,,
145294,set_tempo,,,,,30,1,0,495868,,,,,,
145304,set_tempo,,,,,10,1,0,500000,,,,,,
145324,set_tempo,,,,,20,1,0,508475,,,,,,
145344,set_tempo,,,,,20,1,0,517241,,,,,,
145354,set_tempo,,,,,10,1,0,521739,,,,,,
145374,set_tempo,,,,,20,1,0,526316,,,,,,
145380,control_change,,,,,180,0,1,,,0,64,0,,
145384,set_tempo,,,,,10,1,0,535714,,,,,,
145414,set_tempo,,,,,30,1,0,540541,,,,,,
145434,set_tempo,,,,,20,1,0,550459,,,,,,
145440,note_off,,,,,240,0,2,,,0,,,48,64
145440,note_on,,,,,0,0,2,,,0,,,36,80
145440,control_change,,,,,0,0,1,,,0,64,127,,
145440,note_on,,,,,0,0,1,,,0,,,60,56
145440,note_on,,,,,0,0,1,,,0,,,65,56
145440,note_on,,,,,60,0,1,,,0,,,69,56
145444,set_tempo,,,,,10,1,0,545455,,,,,,
145454,set_tempo,,,,,10,1,0,517241,,,,,,
145464,set_tempo,,,,,10,1,0,495868,,,,,,
145474,set_tempo,,,,,10,1,0,491803,,,,,,
145484,set_tempo,,,,,10,1,0,483871,,,,,,
145494,set_tempo,,,,,10,1,0,468750,,,,,,
145504,set_tempo,,,,,10,1,0,451128,,,,,,
145514,set_tempo,,,,,10,1,0,447761,,,,,,
145524,set_tempo,,,,,10,1,0,431655,,,,,,
145534,set_tempo,,,,,10,1,0,425532,,,,,,
145544,set_tempo,,,,,10,1,0,410959,,,,,,
145554,set_tempo,,,,,10,1,0,400000,,,,,,
145564,set_tempo,,,,,10,1,0,397351,,,,,,
145574,set_tempo,,,,,10,1,0,394737,,,,,,
145584,set_tempo,,,,,10,1,0,377358,,,,,,
145594,set_tempo,,,,,10,1,0,370370,,,,,,
145604,set_tempo,,,,,10,1,0,365854,,,,,,
145680,note_on,,,,,0,0,1,,,0,,,60,69
145680,note_off,,,,,240,0,1,,,0,,,60,64
145680,note_on,,,,,0,0,1,,,0,,,67,69
145680,note_on,,,,,0,0,1,,,0,,,70,69
145680,note_off,,,,,0,0,1,,,0,,,65,64
145680,note_off,,,,,0,0,1,,,0,,,69,64
145680,note_off,,,,,240,0,2,,,0,,,36,64
145860,note_off,,,,,180,0,1,,,0,,,60,64
145860,note_off,,,,,0,0,1,,,0,,,67,64
145860,note_off,,,,,0,0,1,,,0,,,70,64
145920,note_on,,,,,0,0,1,,,0,,,64,80
145920,note_on,,,,,60,0,1,,,0,,,67,80
145920,note_on,,,,,240,0,2,,,0,,,72,69
145920,note_on,,,,,0,0,1,,,0,,,60,80
146084,set_tempo,,,,,480,1,0,405405,,,,,,
146094,set_tempo,,,,,10,1,0,408163,,,,,,
146100,control_change,,,,,0,0,1,,,0,64,0,,
146100,note_off,,,,,180,0,2,,,0,,,72,64
146100,note_off,,,,,180,0,1,,,0,,,60,64
146100,note_off,,,,,0,0,1,,,0,,,64,64
146100,note_off,,,,,0,0,1,,,0,,,67,64
146104,set_tempo,,,,,10,1,0,638298,,,,,,
146114,set_tempo,,,,,10,1,0,645161,,,,,,
146150,control_change,,,,,50,0,1,,,0,64,0,,
146160,note_on,,,,,0,0,1,,,0,,,60,93
146160,note_on,,,,,0,0,1,,,0,,,74,93
146160,note_on,,,,,0,0,1,,,0,,,70,93
146160,note_on,,,,,60,0,2,,,0,,,77,80
146160,control_change,,,,,10,0,1,,,0,64,127,,
146164,set_tempo,,,,,50,1,0,508475,,,,,,
146214,set_tempo,,,,,50,1,0,397351,,,,,,
146234,set_tempo,,,,,20,1,0,405405,,,,,,
146274,set_tempo,,,,,40,1,0,408163,,,,,,
146294,set_tempo,,,,,20,1,0,410959,,,,,,
146314,set_tempo,,,,,20,1,0,413793,,,,,,
146334,set_tempo,,,,,20,1,0,416667,,,,,,
146344,set_tempo,,,,,10,1,0,422535,,,,,,
146364,set_tempo,,,,,20,1,0,425532,,,,,,
146394,set_tempo,,,,,30,1,0,428571,,,,,,
146400,note_on,,,,,0,0,1,,,0,,,72,64
146400,note_off,,,,,0,0,1,,,0,,,74,64
146400,note_off,,,,,0,0,1,,,0,,,70,64
146400,note_off,,,,,240,0,1,,,0,,,60,64
146400,note_off,,,,,240,0,2,,,0,,,77,64
146400,note_on,,,,,0,0,1,,,0,,,69,64
146400,note_on,,,,,0,0,1,,,0,,,60,64
146414,set_tempo,,,,,20,1,0,431655,,,,,,
146424,set_tempo,,,,,10,1,0,434783,,,,,,
146444,set_tempo,,,,,20,1,0,441176,,,,,,
146474,set_tempo,,,,,30,1,0,444444,,,,,,
146494,set_tempo,,,,,20,1,0,447761,,,,,,
146504,set_tempo,,,,,10,1,0,451128,,,,,,
146514,set_tempo,,,,,10,1,0,454545,,,,,,
146544,set_tempo,,,,,30,1,0,461538,,,,,,
146554,set_tempo,,,,,10,1,0,465116,,,,,,
146574,set_tempo,,,,,20,1,0,472441,,,,,,
146614,set_tempo,,,,,40,1,0,476190,,,,,,
146624,set_tempo,,,,,10,1,0,483871,,,,,,
146634,set_tempo,,,,,10,1,0,491803,,,,,,
146640,note_on,,,,,240,0,2,,,0,,,48,65
146654,set_tempo,,,,,20,1,0,495868,,,,,,
146664,set_tempo,,,,,10,1,0,500000,,,,,,
146674,set_tempo,,,,,10,1,0,512821,,,,,,
146704,set_tempo,,,,,30,1,0,517241,,,,,,
146714,set_tempo,,,,,10,1,0,521739,,,,,,
146734,set_tempo,,,,,20,1,0,526316,,,,,,
146744,set_tempo,,,,,10,1,0,535714,,,,,,
146754,set_tempo,,,,,10,1,0,540541,,,,,,
146784,set_tempo,,,,,30,1,0,545455,,,,,,
146794,set_tempo,,,,,10,1,0,550459,,,,,,
146814,set_tempo,,,,,20,1,0,555556,,,,,,
146820,note_off,,,,,180,0,2,,,0,,,48,64
146820,note_off,,,,,0,0,1,,,0,,,72,64
146820,note_off,,,,,0,0,1,,,0,,,69,64
146820,control_change,,,,,0,0,1,,,0,64,0,,
146820,note_off,,,,,420,0,1,,,0,,,60,64
146880,note_on,,,,,0,0,1,,,0,,,65,103
146880,note_on,,,,,0,0,1,,,0,,,60,103
146880,control_change,,,,,0,0,1,,,0,64,127,,
146880,note_on,,,,,60,0,2,,,0,,,36,80
146880,note_on,,,,,60,0,1,,,0,,,69,103
146880,set_tempo,,,,,66,1,0,434783,,,,,,
146900,set_tempo,,,,,20,1,0,441176,,,,,,
146970,set_tempo,,,,,70,1,0,447761,,,,,,
146980,set_tempo,,,,,10,1,0,451128,,,,,,
147030,set_tempo,,,,,50,1,0,454545,,,,,,
147120,note_on,,,,,0,0,1,,,0,,,70,90
147120,note_off,,,,,240,0,2,,,0,,,36,64
147120,note_on,,,,,0,0,1,,,0,,,67,90
147120,note_on,,,,,0,0,1,,,0,,,60,90
147120,note_off,,,,,0,0,1,,,0,,,65,64
147120,note_off,,,,,0,0,1,,,0,,,69,64
147120,note_off,,,,,240,0,1,,,0,,,60,64
147230,set_tempo,,,,,200,1,0,465116,,,,,,
147330,set_tempo,,,,,100,1,0,468750,,,,,,
147360,note_on,,,,,0,0,1,,,0,,,64,105
147360,note_off,,,,,240,0,1,,,0,,,60,64
147360,note_off,,,,,0,0,1,,,0,,,67,64
147360,note_off,,,,,0,0,1,,,0,,,70,64
147360,note_on,,,,,0,0,1,,,0,,,67,105
147360,note_on,,,,,0,0,1,,,0,,,60,105
147360,note_on,,,,,240,0,2,,,0,,,72,70
147410,set_tempo,,,,,80,1,0,472441,,,,,,
147470,set_tempo,,,,,60,1,0,476190,,,,,,
147540,control_change,,,,,180,0,1,,,0,64,0,,
147550,set_tempo,,,,,80,1,0,483871,,,,,,
147570,set_tempo,,,,,20,1,0,1250000,,,,,,
147600,note_on,,,,,0,0,1,,,0,,,69,111
147600,note_on,,,,,0,0,1,,,0,,,67,111
147600,note_on,,,,,0,0,1,,,0,,,64,111
147600,note_on,,,,,0,0,1,,,0,,,57,111
147600,note_on,,,,,0,0,2,,,0,,,73,80
147600,note_off,,,,,240,0,2,,,0,,,72,64
147600,note_off,,,,,0,0,1,,,0,,,64,64
147600,note_off,,,,,60,0,1,,,0,,,60,64
147600,note_off,,,,,0,0,1,,,0,,,67,64
147630,set_tempo,,,,,60,1,0,491803,,,,,,
147710,set_tempo,,,,,80,1,0,495868,,,,,,
147770,set_tempo,,,,,60,1,0,500000,,,,,,
147780,note_off,,,,,180,0,2,,,0,,,73,64
147790,set_tempo,,,,,20,1,0,508475,,,,,,
147840,note_on,,,,,60,0,2,,,0,,,61,80
147850,set_tempo,,,,,60,1,0,512821,,,,,,
147930,set_tempo,,,,,80,1,0,517241,,,,,,
148010,set_tempo,,,,,80,1,0,521739,,,,,,
148020,set_tempo,,,,,10,1,0,526316,,,,,,
148020,note_off,,,,,180,0,2,,,0,,,61,64
148080,set_tempo,,,,,60,1,0,535714,,,,,,
148080,note_on,,,,,60,0,2,,,0,,,49,80
148100,set_tempo,,,,,20,1,0,540541,,,,,,
148120,set_tempo,,,,,20,1,0,545455,,,,,,
148200,set_tempo,,,,,80,1,0,550459,,,,,,
148220,set_tempo,,,,,20,1,0,555556,,,,,,
148240,set_tempo,,,,,20,1,0,566038,,,,,,
148260,note_off,,,,,180,0,2,,,0,,,49,64
148270,set_tempo,,,,,30,1,0,571429,,,,,,
148290,set_tempo,,,,,20,1,0,576923,,,,,,
148320,note_on,,,,,60,0,2,,,0,,,37,80
148350,set_tempo,,,,,60,1,0,582524,,,,,,
148430,set_tempo,,,,,80,1,0,600000,,,,,,
148500,set_tempo,,,,,70,1,0,618557,,,,,,
148500,note_off,,,,,180,0,2,,,0,,,37,64
148520,set_tempo,,,,,20,1,0,625000,,,,,,
148530,set_tempo,,,,,10,1,0,638298,,,,,,
148560,set_tempo,,,,,30,1,0,645161,,,,,,
148560,note_on,,,,,60,0,2,,,0,,,45,80
148570,set_tempo,,,,,10,1,0,652174,,,,,,
148590,set_tempo,,,,,20,1,0,659341,,,,,,
148620,set_tempo,,,,,30,1,0,666667,,,,,,
148640,set_tempo,,,,,20,1,0,681818,,,,,,
148660,set_tempo,,,,,20,1,0,689655,,,,,,
148680,set_tempo,,,,,20,1,0,697674,,,,,,
148700,set_tempo,,,,,20,1,0,705882,,,,,,
148720,set_tempo,,,,,20,1,0,714286,,,,,,
148740,note_off,,,,,180,0,2,,,0,,,45,64
148750,set_tempo,,,,,30,1,0,731707,,,,,,
148760,set_tempo,,,,,10,1,0,740741,,,,,,
148790,set_tempo,,,,,30,1,0,750000,,,,,,
149050,set_tempo,,,,,260,1,0,508475,,,,,,
149750,set_tempo,,,,,700,1,0,512821,,,,,,
149760,note_off,,,,,2160,0,1,,,0,,,57,64
149760,note_off,,,,,0,0,1,,,0,,,67,64
149760,note_off,,,,,0,0,1,,,0,,,69,64
149760,note_on,,,,,0,0,1,,,0,,,66,34
149760,note_on,,,,,0,0,1,,,0,,,62,34
149760,note_on,,,,,0,0,1,,,0,,,57,34
149760,note_on,,,,,1020,0,2,,,0,,,50,44
149760,note_off,,,,,0,0,1,,,0,,,64,64
149780,set_tempo,,,,,30,1,0,508475,,,,,,
149810,set_tempo,,,,,30,1,0,495868,,,,,,
149840,set_tempo,,,,,30,1,0,491803,,,,,,
149860,set_tempo,,,,,20,1,0,487805,,,,,,
149870,set_tempo,,,,,10,1,0,483871,,,,,,
149940,note_off,,,,,180,0,2,,,0,,,50,64
149950,set_tempo,,,,,80,1,0,476190,,,,,,
150000,note_on,,,,,60,0,2,,,0,,,72,37
150010,set_tempo,,,,,60,1,0,472441,,,,,,
150070,set_tempo,,,,,60,1,0,468750,,,,,,
150090,set_tempo,,,,,20,1,0,465116,,,,,,
150110,set_tempo,,,,,20,1,0,461538,,,,,,
150130,set_tempo,,,,,20,1,0,454545,,,,,,
150180,note_off,,,,,180,0,2,,,0,,,72,64
150190,set_tempo,,,,,60,1,0,451128,,,,,,
150210,set_tempo,,,,,20,1,0,447761,,,,,,
150270,set_tempo,,,,,60,1,0,444444,,,,,,
150350,set_tempo,,,,,80,1,0,441176,,,,,,
150410,set_tempo,,,,,60,1,0,434783,,,,,,
150430,set_tempo,,,,,20,1,0,428571,,,,,,
150480,note_on,,,,,0,0,1,,,0,,,62,35
150480,note_on,,,,,300,0,2,,,0,,,50,48
150480,note_off,,,,,720,0,1,,,0,,,57,64
150480,note_off,,,,,0,0,1,,,0,,,62,64
150480,note_off,,,,,0,0,1,,,0,,,66,64
150480,note_on,,,,,0,0,1,,,0,,,59,35
150480,note_on,,,,,0,0,1,,,0,,,67,35
150490,set_tempo,,,,,60,1,0,425532,,,,,,
150570,set_tempo,,,,,80,1,0,422535,,,,,,
150650,set_tempo,,,,,80,1,0,416667,,,,,,
150660,note_off,,,,,180,0,2,,,0,,,50,64
150670,set_tempo,,,,,20,1,0,413793,,,,,,
150700,set_tempo,,,,,30,1,0,410959,,,,,,
150720,note_on,,,,,60,0,2,,,0,,,71,32
150820,set_tempo,,,,,120,1,0,408163,,,,,,
150900,note_off,,,,,180,0,2,,,0,,,71,64
151200,note_on,,,,,0,0,1,,,0,,,67,36
151200,note_on,,,,,300,0,2,,,0,,,50,48
151200,note_on,,,,,0,0,1,,,0,,,64,36
151200,note_off,,,,,0,0,1,,,0,,,62,64
151200,note_on,,,,,0,0,1,,,0,,,57,36
151200,note_off,,,,,720,0,1,,,0,,,59,64
151200,note_off,,,,,0,0,1,,,0,,,67,64
151200,control_change,,,,,0,0,1,,,0,64,127,,
151380,note_off,,,,,180,0,2,,,0,,,50,64
151440,note_off,,,,,240,0,1,,,0,,,57,64
151440,note_off,,,,,0,0,1,,,0,,,64,64
151440,note_off,,,,,0,0,1,,,0,,,67,64
151440,note_on,,,,,0,0,1,,,0,,,69,31
151440,note_on,,,,,0,0,1,,,0,,,64,31
151440,note_on,,,,,0,0,1,,,0,,,57,31
151440,note_on,,,,,60,0,2,,,0,,,73,36
151490,set_tempo,,,,,670,1,0,410959,,,,,,
151500,set_tempo,,,,,10,1,0,413793,,,,,,
151540,set_tempo,,,,,40,1,0,416667,,,,,,
151610,set_tempo,,,,,70,1,0,422535,,,,,,
151620,note_off,,,,,180,0,2,,,0,,,73,64
151680,note_on,,,,,0,0,1,,,0,,,57,25
151680,note_on,,,,,0,0,1,,,0,,,67,25
151680,note_on,,,,,0,0,1,,,0,,,64,25
151680,note_off,,,,,0,0,1,,,0,,,64,64
151680,note_off,,,,,240,0,1,,,0,,,57,64
151680,note_off,,,,,0,0,1,,,0,,,69,64
151720,set_tempo,,,,,110,1,0,425532,,,,,,
151760,set_tempo,,,,,40,1,0,428571,,,,,,
151900,set_tempo,,,,,140,1,0,434783,,,,,,
151920,note_on,,,,,300,0,2,,,0,,,50,44
151920,control_change,,,,,0,0,1,,,0,64,0,,
151920,note_on,,,,,0,0,1,,,0,,,62,34
151920,note_on,,,,,0,0,1,,,0,,,66,34
151920,note_off,,,,,0,0,1,,,0,,,67,64
151920,note_off,,,,,0,0,1,,,0,,,64,64
151920,note_off,,,,,240,0,1,,,0,,,57,64
151920,note_on,,,,,0,0,1,,,0,,,57,34
151980,set_tempo,,,,,80,1,0,444444,,,,,,
152020,set_tempo,,,,,40,1,0,447761,,,,,,
152080,set_tempo,,,,,60,1,0,451128,,,,,,
152100,note_off,,,,,180,0,2,,,0,,,50,64
152140,set_tempo,,,,,60,1,0,461538,,,,,,
152160,note_on,,,,,60,0,2,,,0,,,74,31
152210,set_tempo,,,,,70,1,0,465116,,,,,,
152270,set_tempo,,,,,60,1,0,468750,,,,,,
152290,set_tempo,,,,,20,1,0,472441,,,,,,
152330,set_tempo,,,,,40,1,0,476190,,,,,,
152340,note_off,,,,,180,0,2,,,0,,,74,64
152380,set_tempo,,,,,50,1,0,483871,,,,,,
152400,set_tempo,,,,,20,1,0,487805,,,,,,
152420,set_tempo,,,,,20,1,0,491803,,,,,,
152430,set_tempo,,,,,10,1,0,495868,,,,,,
152530,set_tempo,,,,,100,1,0,500000,,,,,,
152590,set_tempo,,,,,60,1,0,508475,,,,,,
152630,set_tempo,,,,,40,1,0,428571,,,,,,
152640,note_off,,,,,0,0,1,,,0,,,62,64
152640,note_off,,,,,0,0,1,,,0,,,66,64
152640,note_on,,,,,0,0,1,,,0,,,78,28
152640,note_on,,,,,0,0,1,,,0,,,69,28
152640,note_on,,,,,300,0,2,,,0,,,62,33
152640,note_off,,,,,720,0,1,,,0,,,57,64
152640,note_on,,,,,0,0,1,,,0,,,74,28
152690,set_tempo,,,,,60,1,0,431655,,,,,,
152790,set_tempo,,,,,100,1,0,441176,,,,,,
152820,note_off,,,,,180,0,2,,,0,,,62,64
152880,note_on,,,,,60,0,2,,,0,,,84,23
152910,set_tempo,,,,,120,1,0,444444,,,,,,
152970,set_tempo,,,,,60,1,0,447761,,,,,,
153030,set_tempo,,,,,60,1,0,454545,,,,,,
153060,note_off,,,,,180,0,2,,,0,,,84,64
153210,set_tempo,,,,,180,1,0,465116,,,,,,
153350,set_tempo,,,,,140,1,0,468750,,,,,,
153360,note_on,,,,,300,0,2,,,0,,,62,32
153360,note_off,,,,,0,0,1,,,0,,,74,64
153360,note_off,,,,,0,0,1,,,0,,,78,64
153360,note_on,,,,,0,0,1,,,0,,,79,29
153360,note_on,,,,,0,0,1,,,0,,,74,29
153360,note_on,,,,,0,0,1,,,0,,,71,29
153360,note_off,,,,,720,0,1,,,0,,,69,64
153430,set_tempo,,,,,80,1,0,472441,,,,,,
153540,note_off,,,,,180,0,2,,,0,,,62,64
153570,set_tempo,,,,,140,1,0,476190,,,,,,
153600,note_on,,,,,60,0,2,,,0,,,83,21
153710,set_tempo,,,,,140,1,0,483871,,,,,,
153780,note_off,,,,,180,0,2,,,0,,,83,64
153950,set_tempo,,,,,240,1,0,487805,,,,,,
153970,set_tempo,,,,,20,1,0,491803,,,,,,
154080,note_on,,,,,0,0,1,,,0,,,69,28
154080,note_off,,,,,720,0,1,,,0,,,71,64
154080,note_off,,,,,0,0,1,,,0,,,74,64
154080,note_off,,,,,0,0,1,,,0,,,79,64
154080,control_change,,,,,0,0,1,,,0,64,127,,
154080,note_on,,,,,0,0,1,,,0,,,76,28
154080,note_on,,,,,0,0,1,,,0,,,79,28
154080,note_on,,,,,300,0,2,,,0,,,62,32
154190,set_tempo,,,,,220,1,0,495868,,,,,,
154260,note_off,,,,,180,0,2,,,0,,,62,64
154270,set_tempo,,,,,80,1,0,500000,,,,,,
154320,note_off,,,,,240,0,1,,,0,,,69,64
154320,note_off,,,,,0,0,1,,,0,,,79,64
154320,note_off,,,,,0,0,1,,,0,,,76,64
154320,note_on,,,,,0,0,1,,,0,,,76,25
154320,note_on,,,,,0,0,1,,,0,,,81,25
154320,note_on,,,,,0,0,1,,,0,,,69,25
154320,note_on,,,,,60,0,2,,,0,,,85,23
154490,set_tempo,,,,,220,1,0,508475,,,,,,
154500,note_off,,,,,180,0,2,,,0,,,85,64
154510,set_tempo,,,,,20,1,0,512821,,,,,,
154560,note_on,,,,,0,0,1,,,0,,,76,19
154560,note_on,,,,,0,0,1,,,0,,,79,19
154560,note_on,,,,,0,0,1,,,0,,,69,19
154560,note_off,,,,,0,0,1,,,0,,,76,64
154560,note_off,,,,,0,0,1,,,0,,,81,64
154560,note_off,,,,,240,0,1,,,0,,,69,64
154630,set_tempo,,,,,120,1,0,521739,,,,,,
154710,set_tempo,,,,,80,1,0,526316,,,,,,
154770,set_tempo,,,,,60,1,0,535714,,,,,,
154800,note_off,,,,,0,0,1,,,0,,,79,64
154800,note_on,,,,,0,0,1,,,0,,,74,23
154800,note_on,,,,,0,0,1,,,0,,,69,23
154800,note_off,,,,,0,0,1,,,0,,,69,64
154800,note_off,,,,,240,0,1,,,0,,,76,64
154800,control_change,,,,,0,0,1,,,0,64,0,,
154800,note_on,,,,,0,0,1,,,0,,,78,23
154800,note_on,,,,,300,0,2,,,0,,,62,24
154840,set_tempo,,,,,70,1,0,540541,,,,,,
154900,set_tempo,,,,,60,1,0,545455,,,,,,
154980,note_off,,,,,180,0,2,,,0,,,62,64
155000,set_tempo,,,,,100,1,0,555556,,,,,,
155040,note_on,,,,,60,0,2,,,0,,,86,19
155100,set_tempo,,,,,100,1,0,566038,,,,,,
155130,set_tempo,,,,,30,1,0,571429,,,,,,
155210,set_tempo,,,,,80,1,0,576923,,,,,,
155220,note_off,,,,,180,0,2,,,0,,,86,64
155270,set_tempo,,,,,60,1,0,582524,,,,,,
155350,set_tempo,,,,,80,1,0,588235,,,,,,
155380,set_tempo,,,,,30,1,0,600000,,,,,,
155450,set_tempo,,,,,70,1,0,612245,,,,,,
155470,set_tempo,,,,,20,1,0,618557,,,,,,
155480,set_tempo,,,,,10,1,0,645161,,,,,,
155500,set_tempo,,,,,20,1,0,652174,,,,,,
155520,note_on,,,,,300,0,2,,,0,,,62,32
155520,note_on,,,,,0,0,1,,,0,,,76,28
155520,note_off,,,,,720,0,1,,,0,,,74,64
155520,control_change,,,,,0,0,1,,,0,64,127,,
155520,note_off,,,,,0,0,1,,,0,,,69,64
155520,note_on,,,,,0,0,1,,,0,,,79,28
155520,note_off,,,,,0,0,1,,,0,,,78,64
155520,note_on,,,,,0,0,1,,,0,,,69,28
155530,set_tempo,,,,,30,1,0,666667,,,,,,
155700,note_off,,,,,180,0,2,,,0,,,62,64
155760,note_on,,,,,0,0,1,,,0,,,69,25
155760,note_on,,,,,0,0,1,,,0,,,81,25
155760,note_on,,,,,60,0,2,,,0,,,85,23
155760,note_off,,,,,0,0,1,,,0,,,76,64
155760,note_off,,,,,0,0,1,,,0,,,79,64
155760,note_off,,,,,240,0,1,,,0,,,69,64
155760,note_on,,,,,0,0,1,,,0,,,76,25
155940,note_off,,,,,180,0,2,,,0,,,85,64
156000,note_off,,,,,240,0,1,,,0,,,69,64
156000,note_off,,,,,0,0,1,,,0,,,76,64
156000,note_off,,,,,0,0,1,,,0,,,81,64
156000,note_on,,,,,0,0,1,,,0,,,76,19
156000,note_on,,,,,0,0,1,,,0,,,69,19
156000,note_on,,,,,0,0,1,,,0,,,79,19
156130,set_tempo,,,,,600,1,0,681818,,,,,,
156240,note_on,,,,,0,0,1,,,0,,,74,23
156240,note_on,,,,,0,0,1,,,0,,,78,23
156240,note_off,,,,,0,0,1,,,0,,,69,64
156240,note_off,,,,,0,0,1,,,0,,,79,64
156240,note_off,,,,,240,0,1,,,0,,,76,64
156240,note_on,,,,,300,0,2,,,0,,,62,24
156240,note_on,,,,,0,0,1,,,0,,,69,23
156240,control_change,,,,,0,0,1,,,0,64,0,,
156350,set_tempo,,,,,220,1,0,689655,,,,,,
156420,note_off,,,,,180,0,2,,,0,,,62,64
156430,set_tempo,,,,,80,1,0,697674,,,,,,
156480,note_on,,,,,60,0,2,,,0,,,86,19
156490,set_tempo,,,,,60,1,0,705882,,,,,,
156590,set_tempo,,,,,100,1,0,714286,,,,,,
156660,note_off,,,,,180,0,2,,,0,,,86,64
156670,set_tempo,,,,,80,1,0,731707,,,,,,
156750,set_tempo,,,,,80,1,0,740741,,,,,,
156830,set_tempo,,,,,80,1,0,750000,,,,,,
156890,set_tempo,,,,,60,1,0,759494,,,,,,
156960,control_change,,,,,0,0,1,,,0,64,0,,
156960,note_off,,,,,0,0,1,,,0,,,74,64
156960,note_off,,,,,0,0,1,,,0,,,78,64
156960,note_on,,,,,0,0,1,,,0,,,78,23
156960,note_on,,,,,0,0,1,,,0,,,74,23
156960,note_on,,,,,0,0,1,,,0,,,71,23
156960,note_on,,,,,300,0,2,,,0,,,59,24
156960,note_off,,,,,720,0,1,,,0,,,69,64
156990,set_tempo,,,,,100,1,0,769231,,,,,,
157070,set_tempo,,,,,80,1,0,789474,,,,,,
157130,set_tempo,,,,,60,1,0,800000,,,,,,
157140,note_off,,,,,180,0,2,,,0,,,59,64
157200,note_on,,,,,0,0,2,,,0,,,86,19
157200,note_on,,,,,60,0,2,,,0,,,90,24
157210,set_tempo,,,,,80,1,0,810811,,,,,,
157290,set_tempo,,,,,80,1,0,821918,,,,,,
157370,set_tempo,,,,,80,1,0,833333,,,,,,
157380,note_off,,,,,180,0,2,,,0,,,86,64
157380,note_off,,,,,0,0,2,,,0,,,90,64
157450,set_tempo,,,,,80,1,0,869565,,,,,,
157610,set_tempo,,,,,160,1,0,882353,,,,,,
157650,set_tempo,,,,,40,1,0,895522,,,,,,
157680,note_on,,,,,0,0,1,,,0,,,76,23
157680,note_off,,,,,0,0,1,,,0,,,74,64
157680,note_off,,,,,0,0,1,,,0,,,78,64
157680,note_on,,,,,0,0,1,,,0,,,74,23
157680,note_on,,,,,0,0,1,,,0,,,71,23
157680,control_change,,,,,0,0,1,,,0,64,0,,
157680,note_on,,,,,300,0,2,,,0,,,56,24
157680,note_off,,,,,720,0,1,,,0,,,71,64
157790,set_tempo,,,,,140,1,0,909091,,,,,,
157860,note_off,,,,,180,0,2,,,0,,,56,64
157890,set_tempo,,,,,100,1,0,937500,,,,,,
157920,note_on,,,,,0,0,2,,,0,,,83,24
157920,note_on,,,,,60,0,2,,,0,,,88,24
157920,note_on,,,,,0,0,2,,,0,,,86,19
157950,set_tempo,,,,,60,1,0,952381,,,,,,
158030,set_tempo,,,,,80,1,0,967742,,,,,,
158050,set_tempo,,,,,20,1,0,983607,,,,,,
158110,set_tempo,,,,,60,1,0,1000000,,,,,,
158150,set_tempo,,,,,40,1,0,1034483,,,,,,
158170,set_tempo,,,,,20,1,0,1052632,,,,,,
158200,set_tempo,,,,,30,1,0,1071429,,,,,,
158230,set_tempo,,,,,30,1,0,1090909,,,,,,
158240,set_tempo,,,,,10,1,0,1111111,,,,,,
158280,set_tempo,,,,,40,1,0,1153846,,,,,,
158290,set_tempo,,,,,10,1,0,1176471,,,,,,
158310,set_tempo,,,,,20,1,0,1200000,,,,,,
158340,note_off,,,,,420,0,2,,,0,,,83,64
158340,note_off,,,,,0,0,2,,,0,,,86,64
158340,note_off,,,,,0,0,2,,,0,,,88,64
158380,set_tempo,,,,,70,1,0,1224490,,,,,,
158390,set_tempo,,,,,10,1,0,1250000,,,,,,
158400,note_off,,,,,0,0,1,,,0,,,74,64
158400,set_tempo,,,,,10,1,0,382166,,,,,,
158400,note_off,,,,,720,0,1,,,0,,,71,64
158400,note_on,,,,,0,0,1,,,0,,,81,49
158400,note_off,,,,,0,0,1,,,0,,,76,64
158420,note_on,,,,,20,0,1,,,0,,,85,54
158420,set_tempo,,,,,20,1,0,333333,,,,,,
158440,note_on,,,,,20,0,1,,,0,,,88,57
158520,note_off,,,,,80,0,1,,,0,,,81,64
158540,note_off,,,,,20,0,1,,,0,,,85,64
158550,set_tempo,,,,,130,1,0,291262,,,,,,
158560,note_off,,,,,20,0,1,,,0,,,88,64
158640,note_on,,,,,80,0,1,,,0,,,76,44
158640,note_on,,,,,0,0,1,,,0,,,73,44
158640,note_on,,,,,0,0,1,,,0,,,69,44
158760,note_off,,,,,0,0,1,,,0,,,73,64
158760,note_off,,,,,0,0,1,,,0,,,76,64
158760,note_off,,,,,120,0,1,,,0,,,69,64
158830,set_tempo,,,,,280,1,0,288462,,,,,,
158870,set_tempo,,,,,40,1,0,287081,,,,,,
158880,note_on,,,,,0,0,2,,,0,,,57,35
158880,note_on,,,,,0,0,2,,,0,,,61,35
158880,note_on,,,,,540,0,2,,,0,,,64,35
158920,set_tempo,,,,,50,1,0,285714,,,,,,
158990,set_tempo,,,,,70,1,0,284360,,,,,,
159000,note_off,,,,,120,0,2,,,0,,,57,64
159000,note_off,,,,,0,0,2,,,0,,,61,64
159000,note_off,,,,,0,0,2,,,0,,,64,64
159030,set_tempo,,,,,40,1,0,281690,,,,,,
159070,set_tempo,,,,,40,1,0,280374,,,,,,
159110,set_tempo,,,,,40,1,0,279070,,,,,,
159120,note_on,,,,,0,0,2,,,0,,,59,42
159120,note_on,,,,,120,0,2,,,0,,,64,42
159120,note_on,,,,,0,0,2,,,0,,,56,42
159150,set_tempo,,,,,40,1,0,276498,,,,,,
159190,set_tempo,,,,,40,1,0,275229,,,,,,
159240,set_tempo,,,,,50,1,0,273973,,,,,,
159300,note_off,,,,,0,0,2,,,0,,,59,64
159300,note_off,,,,,0,0,2,,,0,,,64,64
159300,note_off,,,,,180,0,2,,,0,,,56,64
159340,set_tempo,,,,,100,1,0,271493,,,,,,
159360,note_on,,,,,600,0,1,,,0,,,71,46
159360,note_on,,,,,0,0,1,,,0,,,68,46
159380,set_tempo,,,,,40,1,0,270270,,,,,,
159440,set_tempo,,,,,60,1,0,269058,,,,,,
159460,set_tempo,,,,,20,1,0,267857,,,,,,
159480,note_off,,,,,0,0,1,,,0,,,71,64
159480,note_on,,,,,0,0,1,,,0,,,76,40
159480,note_off,,,,,120,0,1,,,0,,,68,64
159500,set_tempo,,,,,40,1,0,265487,,,,,,
159530,set_tempo,,,,,30,1,0,264317,,,,,,
159570,note_off,,,,,90,0,1,,,0,,,76,64
159570,set_tempo,,,,,40,1,0,263158,,,,,,
159580,set_tempo,,,,,10,1,0,260870,,,,,,
159600,note_on,,,,,0,0,2,,,0,,,57,46
159600,note_on,,,,,0,0,2,,,0,,,61,46
159600,note_on,,,,,30,0,1,,,0,,,73,55
159600,note_on,,,,,0,0,1,,,0,,,69,55
159600,note_on,,,,,300,0,2,,,0,,,64,46
159650,set_tempo,,,,,70,1,0,258621,,,,,,
159720,note_off,,,,,120,0,2,,,0,,,57,64
159720,note_off,,,,,0,0,2,,,0,,,61,64
159720,note_off,,,,,0,0,2,,,0,,,64,64
159720,note_off,,,,,120,0,1,,,0,,,69,64
159720,note_off,,,,,0,0,1,,,0,,,73,64
159720,note_on,,,,,0,0,1,,,0,,,76,46
159730,set_tempo,,,,,80,1,0,256410,,,,,,
159810,note_off,,,,,90,0,1,,,0,,,76,64
159840,note_on,,,,,30,0,1,,,0,,,83,61
159860,note_on,,,,,20,0,1,,,0,,,86,63
159880,note_on,,,,,20,0,1,,,0,,,88,66
159960,note_off,,,,,80,0,1,,,0,,,83,64
159980,note_off,,,,,20,0,1,,,0,,,86,64
160000,note_off,,,,,20,0,1,,,0,,,88,64
160080,note_on,,,,,0,0,1,,,0,,,74,48
160080,note_on,,,,,80,0,1,,,0,,,76,48
160080,note_on,,,,,0,0,1,,,0,,,71,48
160200,note_off,,,,,0,0,1,,,0,,,76,64
160200,note_off,,,,,0,0,1,,,0,,,74,64
160200,note_off,,,,,120,0,1,,,0,,,71,64
160320,note_on,,,,,0,0,2,,,0,,,59,41
160320,note_on,,,,,0,0,2,,,0,,,62,41
160320,note_on,,,,,600,0,2,,,0,,,64,41
160440,note_off,,,,,0,0,2,,,0,,,62,64
160440,note_off,,,,,120,0,2,,,0,,,59,64
160440,note_off,,,,,0,0,2,,,0,,,64,64
160560,note_on,,,,,0,0,2,,,0,,,57,58
160560,note_on,,,,,0,0,2,,,0,,,61,58
160560,note_on,,,,,120,0,2,,,0,,,64,58
160740,note_off,,,,,0,0,2,,,0,,,64,64
160740,note_off,,,,,0,0,2,,,0,,,61,64
160740,note_off,,,,,180,0,2,,,0,,,57,64
160800,note_on,,,,,0,0,1,,,0,,,69,57
160800,note_on,,,,,600,0,1,,,0,,,73,57
160920,note_off,,,,,120,0,1,,,0,,,69,64
160920,note_on,,,,,0,0,1,,,0,,,76,48
160920,note_off,,,,,0,0,1,,,0,,,73,64
161010,note_off,,,,,90,0,1,,,0,,,76,64
161040,note_on,,,,,30,0,1,,,0,,,74,66
161040,note_on,,,,,0,0,1,,,0,,,71,66
161040,note_on,,,,,300,0,2,,,0,,,64,46
161040,note_on,,,,,0,0,2,,,0,,,62,46
161040,note_on,,,,,0,0,2,,,0,,,59,46
161160,note_off,,,,,120,0,1,,,0,,,71,64
161160,note_off,,,,,120,0,2,,,0,,,59,64
161160,note_off,,,,,0,0,2,,,0,,,62,64
161160,note_on,,,,,0,0,1,,,0,,,76,54
161160,note_off,,,,,0,0,1,,,0,,,74,64
161160,note_off,,,,,0,0,2,,,0,,,64,64
161210,set_tempo,,,,,1480,1,0,326087,,,,,,
161250,note_off,,,,,90,0,1,,,0,,,76,64
161280,note_on,,,,,30,0,1,,,0,,,85,89
161300,note_on,,,,,20,0,1,,,0,,,88,91
161320,set_tempo,,,,,110,1,0,258621,,,,,,
161320,note_on,,,,,20,0,1,,,0,,,93,93
161400,note_off,,,,,80,0,1,,,0,,,85,64
161420,note_off,,,,,20,0,1,,,0,,,88,64
161440,note_off,,,,,20,0,1,,,0,,,93,64
161520,note_on,,,,,0,0,1,,,0,,,73,72
161520,note_on,,,,,80,0,1,,,0,,,81,72
161520,note_on,,,,,0,0,1,,,0,,,76,72
161640,note_off,,,,,0,0,1,,,0,,,81,64
161640,note_off,,,,,120,0,1,,,0,,,73,64
161640,note_off,,,,,0,0,1,,,0,,,76,64
161760,note_on,,,,,0,0,2,,,0,,,61,67
161760,note_on,,,,,600,0,2,,,0,,,64,67
161880,note_off,,,,,0,0,2,,,0,,,64,64
161880,note_off,,,,,120,0,2,,,0,,,61,64
162000,note_on,,,,,0,0,2,,,0,,,59,86
162000,note_on,,,,,0,0,2,,,0,,,62,86
162000,note_on,,,,,120,0,2,,,0,,,67,86
162240,note_on,,,,,600,0,1,,,0,,,79,58
162240,note_on,,,,,0,0,1,,,0,,,74,58
162240,note_on,,,,,0,0,1,,,0,,,71,58
162360,note_off,,,,,120,0,1,,,0,,,71,64
162360,note_off,,,,,0,0,1,,,0,,,74,64
162360,note_off,,,,,0,0,1,,,0,,,79,64
162480,note_on,,,,,120,0,1,,,0,,,83,70
162500,note_on,,,,,20,0,1,,,0,,,86,72
162520,note_on,,,,,20,0,1,,,0,,,91,75
162600,note_off,,,,,80,0,1,,,0,,,83,64
162620,note_off,,,,,20,0,1,,,0,,,86,64
162640,note_off,,,,,20,0,1,,,0,,,91,64
162690,note_on,,,,,50,0,1,,,0,,,91,71
162720,note_on,,,,,0,0,1,,,0,,,90,78
162720,note_off,,,,,30,0,1,,,0,,,91,64
162720,note_on,,,,,0,0,2,,,0,,,62,67
162720,note_on,,,,,0,0,2,,,0,,,59,67
162720,note_on,,,,,0,0,2,,,0,,,54,67
162720,note_off,,,,,0,0,2,,,0,,,62,64
162720,note_off,,,,,0,0,2,,,0,,,67,64
162720,note_off,,,,,720,0,2,,,0,,,59,64
162840,note_on,,,,,0,0,1,,,0,,,89,48
162840,note_off,,,,,120,0,1,,,0,,,90,64
162960,note_on,,,,,0,0,1,,,0,,,90,63
162960,note_off,,,,,120,0,1,,,0,,,89,64
163080,note_off,,,,,120,0,1,,,0,,,90,64
163080,note_on,,,,,0,0,1,,,0,,,93,75
163200,note_on,,,,,0,0,2,,,0,,,54,49
163200,note_on,,,,,0,0,2,,,0,,,61,49
163200,note_off,,,,,120,0,1,,,0,,,93,64
163200,note_off,,,,,0,0,2,,,0,,,62,64
163200,note_off,,,,,0,0,2,,,0,,,59,64
163200,note_off,,,,,480,0,2,,,0,,,54,64
163200,note_on,,,,,0,0,1,,,0,,,88,85
163200,note_on,,,,,0,0,2,,,0,,,64,49
163320,note_off,,,,,120,0,1,,,0,,,88,64
163320,note_on,,,,,0,0,1,,,0,,,94,96
163380,note_off,,,,,180,0,2,,,0,,,54,64
163380,note_off,,,,,0,0,2,,,0,,,61,64
163380,note_off,,,,,0,0,2,,,0,,,64,64
163440,note_off,,,,,120,0,1,,,0,,,94,64
163440,note_on,,,,,0,0,1,,,0,,,95,104
163440,note_on,,,,,60,0,2,,,0,,,62,62
163440,note_on,,,,,0,0,2,,,0,,,59,62
163560,note_on,,,,,0,0,1,,,0,,,90,93
163560,note_off,,,,,120,0,1,,,0,,,95,64
163664,note_off,,,,,104,0,1,,,0,,,90,64
163680,note_on,,,,,16,0,1,,,0,,,86,75
163770,note_off,,,,,90,0,1,,,0,,,86,64
163800,note_on,,,,,30,0,1,,,0,,,83,62
163890,note_off,,,,,90,0,1,,,0,,,83,64
163920,note_off,,,,,480,0,2,,,0,,,59,64
163920,note_off,,,,,0,0,2,,,0,,,62,64
163920,note_on,,,,,30,0,1,,,0,,,74,37
164010,note_off,,,,,90,0,1,,,0,,,74,64
164120,set_tempo,,,,,2800,1,0,326087,,,,,,
164160,note_on,,,,,150,0,1,,,0,,,83,89
164180,note_on,,,,,20,0,1,,,0,,,86,91
164200,note_on,,,,,20,0,1,,,0,,,91,93
164200,set_tempo,,,,,80,1,0,258621,,,,,,
164280,note_off,,,,,80,0,1,,,0,,,83,64
164300,note_off,,,,,20,0,1,,,0,,,86,64
164320,note_off,,,,,20,0,1,,,0,,,91,64
164400,note_on,,,,,80,0,1,,,0,,,79,72
164400,note_on,,,,,0,0,1,,,0,,,74,72
164400,note_on,,,,,0,0,1,,,0,,,71,72
164520,note_off,,,,,120,0,1,,,0,,,71,64
164520,note_off,,,,,0,0,1,,,0,,,74,64
164520,note_off,,,,,0,0,1,,,0,,,79,64
164640,note_on,,,,,0,0,2,,,0,,,59,67
164640,note_on,,,,,720,0,2,,,0,,,62,67
164760,note_off,,,,,120,0,2,,,0,,,59,64
164760,note_off,,,,,0,0,2,,,0,,,62,64
164880,note_on,,,,,120,0,2,,,0,,,65,86
164880,note_on,,,,,0,0,2,,,0,,,57,86
164880,note_on,,,,,0,0,2,,,0,,,60,86
165120,note_on,,,,,0,0,1,,,0,,,72,55
165120,note_on,,,,,0,0,1,,,0,,,69,55
165120,note_on,,,,,600,0,1,,,0,,,77,55
165240,note_off,,,,,120,0,1,,,0,,,69,64
165240,note_off,,,,,0,0,1,,,0,,,72,64
165240,note_off,,,,,0,0,1,,,0,,,77,64
165360,note_on,,,,,120,0,1,,,0,,,81,70
165380,note_on,,,,,20,0,1,,,0,,,84,72
165400,note_on,,,,,20,0,1,,,0,,,89,75
165480,note_off,,,,,80,0,1,,,0,,,81,64
165500,note_off,,,,,20,0,1,,,0,,,84,64
165520,note_off,,,,,20,0,1,,,0,,,89,64
165570,note_on,,,,,50,0,1,,,0,,,89,71
165600,note_on,,,,,0,0,2,,,0,,,44,72
165600,note_off,,,,,0,0,2,,,0,,,65,64
165600,note_off,,,,,720,0,2,,,0,,,57,64
165600,note_on,,,,,0,0,1,,,0,,,88,78
165600,note_off,,,,,30,0,1,,,0,,,89,64
165600,note_off,,,,,0,0,2,,,0,,,60,64
165720,note_off,,,,,120,0,1,,,0,,,88,64
165720,note_on,,,,,0,0,1,,,0,,,87,48
165840,note_off,,,,,240,0,2,,,0,,,44,64
165840,note_on,,,,,0,0,2,,,0,,,52,52
165840,note_on,,,,,0,0,1,,,0,,,88,63
165840,note_off,,,,,120,0,1,,,0,,,87,64
165960,note_off,,,,,120,0,1,,,0,,,88,64
165960,note_on,,,,,0,0,1,,,0,,,87,75
166080,note_off,,,,,120,0,1,,,0,,,87,64
166080,note_on,,,,,0,0,2,,,0,,,59,41
166080,note_off,,,,,240,0,2,,,0,,,52,64
166080,note_on,,,,,0,0,1,,,0,,,88,85
166200,note_on,,,,,0,0,1,,,0,,,90,96
166200,note_off,,,,,120,0,1,,,0,,,88,64
166290,note_off,,,,,90,0,1,,,0,,,90,64
166290,note_off,,,,,210,0,2,,,0,,,59,64
166320,note_on,,,,,30,0,1,,,0,,,90,115
166320,note_on,,,,,30,0,2,,,0,,,45,63
166440,note_off,,,,,120,0,1,,,0,,,90,64
166440,note_on,,,,,0,0,1,,,0,,,88,93
166544,note_off,,,,,104,0,1,,,0,,,88,64
166560,note_off,,,,,240,0,2,,,0,,,45,64
166560,note_on,,,,,16,0,1,,,0,,,85,75
166560,note_on,,,,,0,0,2,,,0,,,52,52
166660,note_off,,,,,100,0,1,,,0,,,85,64
166680,note_on,,,,,20,0,1,,,0,,,81,62
166770,note_off,,,,,90,0,1,,,0,,,81,64
166800,note_off,,,,,240,0,2,,,0,,,52,64
166800,note_on,,,,,30,0,1,,,0,,,76,37
166800,note_on,,,,,0,0,2,,,0,,,61,42
166890,note_off,,,,,90,0,1,,,0,,,76,64
166980,note_off,,,,,180,0,2,,,0,,,61,64
167000,set_tempo,,,,,2800,1,0,287081,,,,,,
167040,note_on,,,,,0,0,1,,,0,,,74,57
167040,note_on,,,,,150,0,1,,,0,,,76,57
167040,note_on,,,,,60,0,2,,,0,,,47,63
167130,note_off,,,,,0,0,1,,,0,,,76,64
167130,note_off,,,,,90,0,1,,,0,,,74,64
167160,note_on,,,,,30,0,1,,,0,,,76,48
167160,note_on,,,,,0,0,1,,,0,,,74,48
167220,note_off,,,,,0,0,1,,,0,,,76,64
167220,note_off,,,,,60,0,1,,,0,,,74,64
167280,note_on,,,,,0,0,2,,,0,,,56,52
167280,note_off,,,,,240,0,2,,,0,,,47,64
167280,note_on,,,,,0,0,1,,,0,,,74,48
167280,note_on,,,,,60,0,1,,,0,,,76,48
167340,note_off,,,,,0,0,1,,,0,,,76,64
167340,note_off,,,,,60,0,1,,,0,,,74,64
167380,set_tempo,,,,,380,1,0,284360,,,,,,
167400,set_tempo,,,,,20,1,0,281690,,,,,,
167400,note_on,,,,,0,0,1,,,0,,,74,55
167400,note_on,,,,,60,0,1,,,0,,,76,55
167440,set_tempo,,,,,40,1,0,280374,,,,,,
167460,set_tempo,,,,,20,1,0,279070,,,,,,
167460,note_off,,,,,60,0,1,,,0,,,74,64
167460,note_off,,,,,0,0,1,,,0,,,76,64
167480,set_tempo,,,,,20,1,0,276498,,,,,,
167500,set_tempo,,,,,20,1,0,275229,,,,,,
167520,note_on,,,,,60,0,1,,,0,,,76,61
167520,note_on,,,,,0,0,1,,,0,,,74,61
167520,note_off,,,,,240,0,2,,,0,,,56,64
167520,note_on,,,,,0,0,2,,,0,,,62,42
167540,set_tempo,,,,,40,1,0,273973,,,,,,
167580,note_off,,,,,60,0,1,,,0,,,74,64
167580,note_off,,,,,0,0,1,,,0,,,76,64
167600,set_tempo,,,,,60,1,0,270270,,,,,,
167640,note_on,,,,,60,0,1,,,0,,,76,68
167640,note_on,,,,,0,0,1,,,0,,,74,68
167680,set_tempo,,,,,80,1,0,269058,,,,,,
167700,note_off,,,,,60,0,1,,,0,,,74,64
167700,note_off,,,,,0,0,1,,,0,,,76,64
167700,set_tempo,,,,,20,1,0,267857,,,,,,
167730,note_off,,,,,210,0,2,,,0,,,62,64
167740,set_tempo,,,,,40,1,0,265487,,,,,,
167760,note_on,,,,,0,0,1,,,0,,,73,72
167760,note_on,,,,,30,0,2,,,0,,,49,63
167760,note_on,,,,,60,0,1,,,0,,,78,72
167800,set_tempo,,,,,60,1,0,264317,,,,,,
167840,set_tempo,,,,,40,1,0,263158,,,,,,
167880,note_off,,,,,120,0,1,,,0,,,73,64
167880,note_off,,,,,0,0,1,,,0,,,78,64
167880,note_on,,,,,0,0,1,,,0,,,76,70
167984,note_off,,,,,104,0,1,,,0,,,76,64
168000,note_on,,,,,0,0,2,,,0,,,57,52
168000,note_off,,,,,240,0,2,,,0,,,49,64
168000,note_on,,,,,16,0,1,,,0,,,73,65
168090,note_off,,,,,90,0,1,,,0,,,73,64
168120,note_on,,,,,30,0,1,,,0,,,69,58
168210,note_off,,,,,90,0,1,,,0,,,69,64
168220,set_tempo,,,,,380,1,0,264317,,,,,,
168240,note_off,,,,,240,0,2,,,0,,,57,64
168240,note_on,,,,,30,0,1,,,0,,,64,53
168240,note_on,,,,,0,0,2,,,0,,,61,42
168260,set_tempo,,,,,40,1,0,265487,,,,,,
168280,set_tempo,,,,,20,1,0,267857,,,,,,
168330,note_off,,,,,90,0,1,,,0,,,64,64
168340,set_tempo,,,,,60,1,0,269058,,,,,,
168360,set_tempo,,,,,20,1,0,271493,,,,,,
168380,set_tempo,,,,,20,1,0,273973,,,,,,
168420,note_off,,,,,180,0,2,,,0,,,61,64
168420,set_tempo,,,,,40,1,0,275229,,,,,,
168440,set_tempo,,,,,20,1,0,279070,,,,,,
168460,set_tempo,,,,,20,1,0,280374,,,,,,
168480,set_tempo,,,,,20,1,0,284360,,,,,,
168480,note_on,,,,,150,0,1,,,0,,,64,67
168480,note_on,,,,,60,0,2,,,0,,,47,62
168500,set_tempo,,,,,20,1,0,287081,,,,,,
168520,set_tempo,,,,,20,1,0,292683,,,,,,
168540,set_tempo,,,,,20,1,0,297030,,,,,,
168560,set_tempo,,,,,20,1,0,298507,,,,,,
168580,set_tempo,,,,,20,1,0,303030,,,,,,
168600,note_on,,,,,0,0,1,,,0,,,66,57
168600,note_off,,,,,120,0,1,,,0,,,64,64
168720,note_on,,,,,0,0,2,,,0,,,50,46
168720,note_off,,,,,240,0,2,,,0,,,47,64
168720,note_off,,,,,120,0,1,,,0,,,66,64
168720,note_on,,,,,0,0,1,,,0,,,62,58
168840,note_off,,,,,120,0,1,,,0,,,62,64
168840,note_on,,,,,0,0,1,,,0,,,66,44
168880,set_tempo,,,,,300,1,0,304569,,,,,,
168900,note_off,,,,,180,0,2,,,0,,,50,64
168920,set_tempo,,,,,40,1,0,300000,,,,,,
168940,set_tempo,,,,,20,1,0,297030,,,,,,
168960,note_on,,,,,0,0,1,,,0,,,61,52
168960,note_on,,,,,0,0,1,,,0,,,64,52
168960,note_on,,,,,0,0,1,,,0,,,68,52
168960,note_off,,,,,120,0,1,,,0,,,66,64
168960,note_on,,,,,60,0,2,,,0,,,52,39
169020,set_tempo,,,,,80,1,0,300000,,,,,,
169080,note_off,,,,,120,0,1,,,0,,,61,64
169080,note_off,,,,,0,0,1,,,0,,,64,64
169080,note_on,,,,,0,0,1,,,0,,,62,40
169080,note_on,,,,,0,0,1,,,0,,,59,40
169120,set_tempo,,,,,100,1,0,304569,,,,,,
169140,note_off,,,,,180,0,2,,,0,,,52,64
169140,note_off,,,,,60,0,1,,,0,,,68,64
169180,set_tempo,,,,,60,1,0,306122,,,,,,
169200,note_off,,,,,60,0,1,,,0,,,59,64
169200,note_on,,,,,0,0,1,,,0,,,61,46
169200,set_tempo,,,,,20,1,0,310881,,,,,,
169200,note_off,,,,,0,0,1,,,0,,,62,64
169200,note_on,,,,,0,0,1,,,0,,,69,46
169280,set_tempo,,,,,80,1,0,314136,,,,,,
169320,set_tempo,,,,,40,1,0,317460,,,,,,
169320,note_on,,,,,180,0,2,,,0,,,57,55
169380,set_tempo,,,,,60,1,0,320856,,,,,,
169400,set_tempo,,,,,20,1,0,326087,,,,,,
169440,note_on,,,,,0,0,2,,,0,,,52,48
169440,note_off,,,,,120,0,2,,,0,,,57,64
169440,note_off,,,,,240,0,1,,,0,,,61,64
169440,note_off,,,,,0,0,1,,,0,,,69,64
169440,set_tempo,,,,,40,1,0,337079,,,,,,
169480,set_tempo,,,,,40,1,0,340909,,,,,,
169520,set_tempo,,,,,40,1,0,344828,,,,,,
169540,set_tempo,,,,,20,1,0,352941,,,,,,
169560,note_on,,,,,0,0,2,,,0,,,49,46
169560,note_off,,,,,120,0,2,,,0,,,52,64
169600,set_tempo,,,,,60,1,0,372671,,,,,,
169620,set_tempo,,,,,20,1,0,382166,,,,,,
169640,set_tempo,,,,,20,1,0,394737,,,,,,
169660,set_tempo,,,,,20,1,0,402685,,,,,,
169680,note_on,,,,,0,0,2,,,0,,,45,32
169680,set_tempo,,,,,20,1,0,425532,,,,,,
169680,note_off,,,,,120,0,2,,,0,,,49,64
169700,set_tempo,,,,,20,1,0,444444,,,,,,
169720,set_tempo,,,,,20,1,0,461538,,,,,,
169740,set_tempo,,,,,20,1,0,483871,,,,,,
169800,note_off,,,,,120,0,2,,,0,,,45,64
169800,set_tempo,,,,,60,1,0,1153846,,,,,,
169890,note_on,,,,,0,0,2,,,0,,,41,101
169890,note_on,,,,,90,0,2,,,0,,,53,101
169890,set_tempo,,,,,90,1,0,335196,,,,,,
169920,note_on,,,,,0,0,2,,,0,,,40,101
169920,note_off,,,,,30,0,2,,,0,,,41,64
169920,note_on,,,,,0,0,2,,,0,,,52,101
169920,note_off,,,,,0,0,2,,,0,,,53,64
169940,set_tempo,,,,,50,1,0,258621,,,,,,
170040,note_on,,,,,0,0,2,,,0,,,39,101
170040,note_on,,,,,0,0,2,,,0,,,51,101
170040,note_off,,,,,0,0,2,,,0,,,52,64
170040,note_off,,,,,120,0,2,,,0,,,40,64
170160,note_off,,,,,120,0,2,,,0,,,39,64
170160,note_on,,,,,0,0,2,,,0,,,52,101
170160,note_off,,,,,0,0,2,,,0,,,51,64
170160,note_on,,,,,0,0,2,,,0,,,40,101
170280,note_off,,,,,0,0,2,,,0,,,52,64
170280,note_on,,,,,0,0,2,,,0,,,51,101
170280,note_on,,,,,0,0,2,,,0,,,39,101
170280,note_off,,,,,120,0,2,,,0,,,40,64
170400,note_on,,,,,0,0,2,,,0,,,40,101
170400,note_off,,,,,120,0,2,,,0,,,39,64
170400,note_off,,,,,0,0,2,,,0,,,51,64
170400,note_on,,,,,0,0,2,,,0,,,52,101
170520,note_off,,,,,120,0,2,,,0,,,40,64
170520,note_off,,,,,0,0,2,,,0,,,52,64
170520,note_on,,,,,0,0,2,,,0,,,53,101
170520,note_on,,,,,0,0,2,,,0,,,41,101
170580,note_off,,,,,0,0,2,,,0,,,53,64
170580,note_off,,,,,60,0,2,,,0,,,41,64
170640,note_on,,,,,60,0,2,,,0,,,53,101
170640,note_on,,,,,0,0,2,,,0,,,41,101
170760,note_off,,,,,0,0,2,,,0,,,53,64
170760,note_off,,,,,120,0,2,,,0,,,41,64
170760,note_on,,,,,0,0,2,,,0,,,40,101
170760,note_on,,,,,0,0,2,,,0,,,52,101
170880,note_on,,,,,0,0,2,,,0,,,36,101
170880,note_on,,,,,0,0,2,,,0,,,48,101
170880,note_off,,,,,0,0,2,,,0,,,52,64
170880,note_off,,,,,120,0,2,,,0,,,40,64
171000,note_on,,,,,0,0,2,,,0,,,43,96
171000,note_on,,,,,0,0,2,,,0,,,55,96
171000,note_off,,,,,0,0,2,,,0,,,48,64
171000,note_off,,,,,120,0,2,,,0,,,36,64
171120,note_on,,,,,0,0,2,,,0,,,64,101
171120,note_off,,,,,0,0,2,,,0,,,55,64
171120,note_on,,,,,0,0,2,,,0,,,60,101
171120,note_off,,,,,120,0,2,,,0,,,43,64
171120,note_on,,,,,0,0,2,,,0,,,52,101
171260,set_tempo,,,,,1320,1,0,326087,,,,,,
171300,note_off,,,,,0,0,2,,,0,,,64,64
171300,note_off,,,,,0,0,2,,,0,,,60,64
171300,note_off,,,,,180,0,2,,,0,,,52,64
171360,set_tempo,,,,,100,1,0,258621,,,,,,
171360,note_on,,,,,0,0,2,,,0,,,52,101
171360,note_on,,,,,60,0,2,,,0,,,64,101
171480,note_on,,,,,0,0,2,,,0,,,50,101
171480,note_on,,,,,0,0,2,,,0,,,62,101
171480,note_off,,,,,0,0,2,,,0,,,64,64
171480,note_off,,,,,120,0,2,,,0,,,52,64
171600,note_on,,,,,0,0,2,,,0,,,59,100
171600,note_on,,,,,0,0,2,,,0,,,47,100
171600,note_off,,,,,0,0,2,,,0,,,62,64
171600,note_off,,,,,120,0,2,,,0,,,50,64
171720,note_off,,,,,120,0,2,,,0,,,47,64
171720,note_off,,,,,0,0,2,,,0,,,59,64
171720,note_on,,,,,0,0,2,,,0,,,55,95
171720,note_on,,,,,0,0,2,,,0,,,43,95
171840,note_off,,,,,120,0,2,,,0,,,43,64
171840,note_on,,,,,0,0,2,,,0,,,43,101
171840,note_off,,,,,0,0,2,,,0,,,55,64
171840,note_on,,,,,0,0,2,,,0,,,55,101
171840,note_on,,,,,0,0,2,,,0,,,67,101
171840,note_on,,,,,0,0,2,,,0,,,59,101
171840,note_on,,,,,0,0,2,,,0,,,50,101
172020,note_off,,,,,180,0,2,,,0,,,43,64
172020,note_off,,,,,0,0,2,,,0,,,50,64
172020,note_off,,,,,0,0,2,,,0,,,55,64
172020,note_off,,,,,0,0,2,,,0,,,59,64
172020,note_off,,,,,0,0,2,,,0,,,67,64
172080,note_on,,,,,0,0,2,,,0,,,48,61
172080,note_on,,,,,2640,0,1,,,0,,,65,72
172080,note_on,,,,,0,0,2,,,0,,,55,61
172080,note_on,,,,,60,0,2,,,0,,,60,61
172086,control_change,,,,,6,0,1,,,0,64,96,,
172200,note_on,,,,,0,0,1,,,0,,,64,64
172200,note_off,,,,,114,0,1,,,0,,,65,64
172290,note_off,,,,,0,0,2,,,0,,,55,64
172290,note_off,,,,,210,0,2,,,0,,,48,64
172290,note_off,,,,,0,0,2,,,0,,,60,64
172300,note_off,,,,,100,0,1,,,0,,,64,64
172312,control_change,,,,,12,0,1,,,0,64,0,,
172320,control_change,,,,,0,0,1,,,0,64,96,,
172320,note_on,,,,,8,0,1,,,0,,,67,74
172320,note_on,,,,,0,0,2,,,0,,,50,61
172320,note_on,,,,,0,0,2,,,0,,,55,61
172320,note_on,,,,,30,0,2,,,0,,,59,61
172440,note_on,,,,,0,0,1,,,0,,,65,64
172440,note_off,,,,,120,0,1,,,0,,,67,64
172530,note_off,,,,,0,0,2,,,0,,,59,64
172530,note_off,,,,,0,0,2,,,0,,,55,64
172530,note_off,,,,,210,0,2,,,0,,,50,64
172540,note_off,,,,,100,0,1,,,0,,,65,64
172552,control_change,,,,,12,0,1,,,0,64,0,,
172560,note_on,,,,,8,0,1,,,0,,,69,78
172560,control_change,,,,,0,0,1,,,0,64,96,,
172560,note_on,,,,,30,0,2,,,0,,,60,61
172560,note_on,,,,,0,0,2,,,0,,,55,61
172560,note_on,,,,,0,0,2,,,0,,,52,61
172680,note_off,,,,,120,0,1,,,0,,,69,64
172680,note_on,,,,,0,0,1,,,0,,,67,65
172770,note_off,,,,,0,0,2,,,0,,,60,64
172770,note_off,,,,,0,0,2,,,0,,,55,64
172770,note_off,,,,,210,0,2,,,0,,,52,64
172780,note_off,,,,,100,0,1,,,0,,,67,64
172792,control_change,,,,,12,0,1,,,0,64,0,,
172800,control_change,,,,,0,0,1,,,0,64,96,,
172800,note_on,,,,,0,0,1,,,0,,,59,79
172800,note_on,,,,,8,0,1,,,0,,,62,79
172920,note_on,,,,,150,0,2,,,0,,,55,61
173040,note_on,,,,,0,0,2,,,0,,,50,58
173040,note_off,,,,,120,0,2,,,0,,,55,64
173160,note_off,,,,,120,0,2,,,0,,,50,64
173160,note_on,,,,,0,0,2,,,0,,,47,53
173280,note_off,,,,,120,0,2,,,0,,,47,64
173280,note_on,,,,,0,0,2,,,0,,,43,46
173400,note_off,,,,,600,0,1,,,0,,,59,64
173400,note_off,,,,,0,0,1,,,0,,,62,64
173400,note_off,,,,,120,0,2,,,0,,,43,64
173440,set_tempo,,,,,2080,1,0,382166,,,,,,
173460,control_change,,,,,60,0,1,,,0,64,0,,
173490,note_on,,,,,30,0,1,,,0,,,67,71
173520,note_on,,,,,0,0,2,,,0,,,43,61
173520,note_on,,,,,120,0,2,,,0,,,59,57
173520,set_tempo,,,,,80,1,0,267857,,,,,,
173520,note_off,,,,,30,0,1,,,0,,,67,64
173520,note_on,,,,,0,0,1,,,0,,,65,72
173526,control_change,,,,,6,0,1,,,0,64,96,,
173540,set_tempo,,,,,20,1,0,256410,,,,,,
173640,note_on,,,,,0,0,1,,,0,,,64,44
173640,note_off,,,,,114,0,1,,,0,,,65,64
173760,note_off,,,,,120,0,1,,,0,,,64,64
173760,note_on,,,,,240,0,2,,,0,,,50,54
173760,note_on,,,,,0,0,1,,,0,,,65,49
173880,note_off,,,,,120,0,1,,,0,,,65,64
173880,note_on,,,,,0,0,1,,,0,,,64,53
174000,note_on,,,,,0,0,2,,,0,,,55,49
174000,note_off,,,,,120,0,1,,,0,,,64,64
174000,note_on,,,,,0,0,1,,,0,,,65,58
174000,note_off,,,,,240,0,2,,,0,,,50,64
174120,note_off,,,,,120,0,1,,,0,,,65,64
174120,note_on,,,,,0,0,1,,,0,,,69,61
174180,control_change,,,,,0,0,1,,,0,64,0,,
174180,note_off,,,,,60,0,1,,,0,,,69,64
174180,note_off,,,,,180,0,2,,,0,,,55,64
174240,control_change,,,,,0,0,1,,,0,64,96,,
174240,note_on,,,,,60,0,1,,,0,,,69,67
174240,note_on,,,,,0,0,2,,,0,,,43,58
174240,note_on,,,,,0,0,2,,,0,,,60,56
174240,note_on,,,,,0,0,2,,,0,,,64,56
174240,note_off,,,,,0,0,2,,,0,,,59,64
174240,note_off,,,,,60,0,2,,,0,,,43,64
174360,note_off,,,,,120,0,1,,,0,,,69,64
174360,note_on,,,,,0,0,1,,,0,,,67,62
174480,note_off,,,,,240,0,2,,,0,,,60,64
174480,note_on,,,,,0,0,1,,,0,,,64,56
174480,note_on,,,,,0,0,2,,,0,,,52,51
174480,note_off,,,,,0,0,2,,,0,,,64,64
174480,note_off,,,,,120,0,1,,,0,,,67,64
174600,note_off,,,,,120,0,1,,,0,,,64,64
174600,note_on,,,,,0,0,1,,,0,,,60,46
174720,note_on,,,,,0,0,1,,,0,,,64,56
174720,note_on,,,,,0,0,2,,,0,,,55,38
174720,note_off,,,,,240,0,2,,,0,,,52,64
174720,note_off,,,,,120,0,1,,,0,,,60,64
174840,note_off,,,,,120,0,1,,,0,,,64,64
174840,note_on,,,,,0,0,1,,,0,,,76,47
174900,note_off,,,,,180,0,2,,,0,,,55,64
174900,control_change,,,,,0,0,1,,,0,64,0,,
174900,note_off,,,,,60,0,1,,,0,,,76,64
174960,note_on,,,,,0,0,2,,,0,,,43,61
174960,note_on,,,,,0,0,2,,,0,,,65,61
174960,note_on,,,,,0,0,2,,,0,,,71,61
174960,note_off,,,,,60,0,2,,,0,,,43,64
174960,control_change,,,,,0,0,1,,,0,64,96,,
174960,note_on,,,,,60,0,1,,,0,,,76,74
175080,note_off,,,,,120,0,1,,,0,,,76,64
175080,note_on,,,,,0,0,1,,,0,,,74,63
175200,note_off,,,,,240,0,2,,,0,,,65,64
175200,note_off,,,,,120,0,1,,,0,,,74,64
175200,note_on,,,,,0,0,1,,,0,,,72,54
175200,note_off,,,,,0,0,2,,,0,,,71,64
175200,note_on,,,,,0,0,2,,,0,,,50,53
175200,note_on,,,,,0,0,2,,,0,,,62,43
175200,note_on,,,,,0,0,2,,,0,,,65,43
175320,note_off,,,,,120,0,1,,,0,,,72,64
175320,note_on,,,,,0,0,1,,,0,,,71,48
175440,note_off,,,,,120,0,1,,,0,,,71,64
175440,note_on,,,,,0,0,1,,,0,,,69,62
175440,note_off,,,,,240,0,2,,,0,,,50,64
175440,note_off,,,,,0,0,2,,,0,,,62,64
175440,note_off,,,,,0,0,2,,,0,,,65,64
175440,note_on,,,,,0,0,2,,,0,,,65,43
175440,note_on,,,,,0,0,2,,,0,,,59,43
175440,note_on,,,,,0,0,2,,,0,,,55,49
175560,note_off,,,,,120,0,1,,,0,,,69,64
175560,note_on,,,,,0,0,1,,,0,,,67,46
175620,control_change,,,,,60,0,1,,,0,64,0,,
175620,note_off,,,,,180,0,2,,,0,,,55,64
175620,note_off,,,,,0,0,2,,,0,,,65,64
175620,note_off,,,,,0,0,2,,,0,,,59,64
175680,note_on,,,,,0,0,1,,,0,,,69,63
175680,control_change,,,,,0,0,1,,,0,64,96,,
175680,note_off,,,,,60,0,1,,,0,,,67,64
175680,note_off,,,,,60,0,2,,,0,,,43,64
175680,note_on,,,,,0,0,2,,,0,,,64,51
175680,note_on,,,,,0,0,2,,,0,,,60,51
175680,note_on,,,,,0,0,2,,,0,,,43,54
175800,note_off,,,,,120,0,1,,,0,,,69,64
175800,note_on,,,,,0,0,1,,,0,,,67,53
175900,note_off,,,,,100,0,1,,,0,,,67,64
175920,note_on,,,,,0,0,2,,,0,,,52,45
175920,note_off,,,,,0,0,2,,,0,,,64,64
175920,note_on,,,,,20,0,1,,,0,,,64,44
175920,note_off,,,,,240,0,2,,,0,,,60,64
176010,note_off,,,,,90,0,1,,,0,,,64,64
176040,note_on,,,,,30,0,1,,,0,,,60,41
176130,note_off,,,,,90,0,1,,,0,,,60,64
176160,note_on,,,,,30,0,1,,,0,,,55,37
176160,note_off,,,,,240,0,2,,,0,,,52,64
176160,note_on,,,,,0,0,2,,,0,,,55,35
176250,note_off,,,,,90,0,1,,,0,,,55,64
176280,control_change,,,,,30,0,1,,,0,64,0,,
176340,note_off,,,,,180,0,2,,,0,,,55,64
176360,set_tempo,,,,,2820,1,0,384615,,,,,,
176370,note_on,,,,,90,0,1,,,0,,,79,56
176400,set_tempo,,,,,40,1,0,256410,,,,,,
176400,note_on,,,,,0,0,2,,,0,,,71,57
176400,note_off,,,,,60,0,2,,,0,,,43,64
176400,note_on,,,,,0,0,1,,,0,,,77,72
176400,note_off,,,,,30,0,1,,,0,,,79,64
176400,note_on,,,,,0,0,2,,,0,,,43,61
176406,control_change,,,,,6,0,1,,,0,64,96,,
176440,set_tempo,,,,,40,1,0,255319,,,,,,
176460,set_tempo,,,,,20,1,0,250000,,,,,,
176520,note_off,,,,,114,0,1,,,0,,,77,64
176520,note_on,,,,,0,0,1,,,0,,,76,44
176640,note_off,,,,,120,0,1,,,0,,,76,64
176640,note_on,,,,,240,0,2,,,0,,,50,54
176640,note_on,,,,,0,0,1,,,0,,,77,49
176700,set_tempo,,,,,240,1,0,248963,,,,,,
176760,note_off,,,,,120,0,1,,,0,,,77,64
176760,note_on,,,,,0,0,1,,,0,,,76,53
176880,note_on,,,,,0,0,1,,,0,,,77,58
176880,note_off,,,,,240,0,2,,,0,,,50,64
176880,note_on,,,,,0,0,2,,,0,,,55,49
176880,note_off,,,,,120,0,1,,,0,,,76,64
177000,note_off,,,,,120,0,1,,,0,,,77,64
177000,note_on,,,,,0,0,1,,,0,,,81,61
177060,note_off,,,,,60,0,1,,,0,,,81,64
177060,note_off,,,,,180,0,2,,,0,,,55,64
177060,control_change,,,,,0,0,1,,,0,64,0,,
177120,note_on,,,,,60,0,1,,,0,,,81,67
177120,note_off,,,,,60,0,2,,,0,,,43,64
177120,note_off,,,,,0,0,2,,,0,,,71,64
177120,note_on,,,,,0,0,2,,,0,,,76,56
177120,note_on,,,,,0,0,2,,,0,,,72,56
177120,note_on,,,,,0,0,2,,,0,,,43,58
177120,control_change,,,,,0,0,1,,,0,64,96,,
177240,set_tempo,,,,,540,1,0,245902,,,,,,
177240,note_on,,,,,0,0,1,,,0,,,79,62
177240,note_off,,,,,120,0,1,,,0,,,81,64
177340,set_tempo,,,,,100,1,0,244898,,,,,,
177360,note_on,,,,,0,0,1,,,0,,,76,56
177360,note_off,,,,,120,0,1,,,0,,,79,64
177360,note_on,,,,,0,0,2,,,0,,,52,51
177360,note_off,,,,,0,0,2,,,0,,,76,64
177360,note_off,,,,,240,0,2,,,0,,,72,64
177480,note_off,,,,,120,0,1,,,0,,,76,64
177480,note_on,,,,,0,0,1,,,0,,,72,46
177580,set_tempo,,,,,240,1,0,242915,,,,,,
177600,note_off,,,,,240,0,2,,,0,,,52,64
177600,note_on,,,,,0,0,1,,,0,,,76,56
177600,note_off,,,,,120,0,1,,,0,,,72,64
177600,note_on,,,,,0,0,2,,,0,,,55,38
177720,note_off,,,,,120,0,1,,,0,,,76,64
177720,note_on,,,,,0,0,1,,,0,,,88,47
177720,set_tempo,,,,,140,1,0,241935,,,,,,
177780,note_off,,,,,180,0,2,,,0,,,55,64
177780,note_off,,,,,60,0,1,,,0,,,88,64
177780,control_change,,,,,0,0,1,,,0,64,0,,
177840,note_off,,,,,60,0,2,,,0,,,43,64
177840,note_on,,,,,0,0,2,,,0,,,83,88
177840,note_on,,,,,0,0,2,,,0,,,77,61
177840,note_on,,,,,0,0,2,,,0,,,43,61
177840,note_on,,,,,60,0,1,,,0,,,88,74
177840,control_change,,,,,0,0,1,,,0,64,96,,
177880,set_tempo,,,,,160,1,0,240000,,,,,,
177960,note_off,,,,,120,0,1,,,0,,,88,64
177960,note_on,,,,,0,0,1,,,0,,,86,63
178080,note_off,,,,,240,0,2,,,0,,,77,64
178080,note_off,,,,,0,0,2,,,0,,,83,64
178080,note_on,,,,,0,0,2,,,0,,,77,43
178080,note_on,,,,,0,0,2,,,0,,,74,43
178080,note_off,,,,,120,0,1,,,0,,,86,64
178080,note_on,,,,,0,0,1,,,0,,,84,54
178080,note_on,,,,,0,0,2,,,0,,,50,53
178200,note_on,,,,,0,0,1,,,0,,,83,48
178200,note_off,,,,,120,0,1,,,0,,,84,64
178320,note_off,,,,,240,0,2,,,0,,,50,64
178320,note_off,,,,,0,0,2,,,0,,,77,64
178320,note_on,,,,,0,0,2,,,0,,,77,43
178320,note_on,,,,,0,0,2,,,0,,,71,43
178320,note_on,,,,,0,0,2,,,0,,,55,49
178320,note_on,,,,,0,0,1,,,0,,,81,62
178320,note_off,,,,,120,0,1,,,0,,,83,64
178320,note_off,,,,,0,0,2,,,0,,,74,64
178440,note_on,,,,,0,0,1,,,0,,,79,46
178440,note_off,,,,,120,0,1,,,0,,,81,64
178500,note_off,,,,,180,0,2,,,0,,,55,64
178500,note_off,,,,,0,0,2,,,0,,,71,64
178500,note_off,,,,,0,0,2,,,0,,,77,64
178500,control_change,,,,,60,0,1,,,0,64,0,,
178560,note_on,,,,,0,0,1,,,0,,,81,63
178560,control_change,,,,,0,0,1,,,0,64,96,,
178560,note_off,,,,,60,0,1,,,0,,,79,64
178560,note_off,,,,,60,0,2,,,0,,,43,64
178560,note_on,,,,,0,0,2,,,0,,,76,51
178560,note_on,,,,,0,0,2,,,0,,,72,51
178560,note_on,,,,,0,0,2,,,0,,,43,54
178580,set_tempo,,,,,700,1,0,237154,,,,,,
178680,note_off,,,,,120,0,1,,,0,,,81,64
178680,note_on,,,,,0,0,1,,,0,,,79,53
178780,note_off,,,,,100,0,1,,,0,,,79,64
178800,note_off,,,,,240,0,2,,,0,,,72,64
178800,note_off,,,,,0,0,2,,,0,,,76,64
178800,note_on,,,,,0,0,2,,,0,,,52,41
178800,note_on,,,,,20,0,1,,,0,,,76,44
178890,note_off,,,,,90,0,1,,,0,,,76,64
178920,note_on,,,,,30,0,1,,,0,,,72,41
179010,note_off,,,,,90,0,1,,,0,,,72,64
179040,note_on,,,,,0,0,2,,,0,,,55,47
179040,note_on,,,,,30,0,1,,,0,,,76,48
179040,note_off,,,,,240,0,2,,,0,,,52,64
179140,set_tempo,,,,,560,1,0,236220,,,,,,
179160,note_off,,,,,120,0,1,,,0,,,76,64
179160,note_on,,,,,0,0,1,,,0,,,88,56
179220,note_off,,,,,60,0,1,,,0,,,88,64
179220,note_off,,,,,180,0,2,,,0,,,55,64
179280,control_change,,,,,0,0,1,,,0,64,96,,
179280,note_on,,,,,60,0,1,,,0,,,88,74
179280,note_off,,,,,60,0,2,,,0,,,43,64
179280,note_on,,,,,0,0,2,,,0,,,83,88
179280,note_on,,,,,0,0,2,,,0,,,77,61
179280,note_on,,,,,0,0,2,,,0,,,43,61
179360,set_tempo,,,,,220,1,0,237154,,,,,,
179400,note_off,,,,,120,0,1,,,0,,,88,64
179400,set_tempo,,,,,40,1,0,240000,,,,,,
179400,note_on,,,,,0,0,1,,,0,,,86,63
179480,set_tempo,,,,,80,1,0,241935,,,,,,
179520,note_off,,,,,240,0,2,,,0,,,77,64
179520,note_off,,,,,0,0,2,,,0,,,83,64
179520,note_on,,,,,0,0,2,,,0,,,77,44
179520,set_tempo,,,,,40,1,0,242915,,,,,,
179520,note_on,,,,,0,0,1,,,0,,,84,54
179520,note_on,,,,,0,0,2,,,0,,,50,44
179520,note_off,,,,,120,0,1,,,0,,,86,64
179520,note_on,,,,,0,0,2,,,0,,,74,44
179560,set_tempo,,,,,40,1,0,244898,,,,,,
179640,set_tempo,,,,,80,1,0,248963,,,,,,
179640,note_off,,,,,120,0,1,,,0,,,84,64
179640,note_on,,,,,0,0,1,,,0,,,83,57
179680,set_tempo,,,,,40,1,0,250000,,,,,,
179700,set_tempo,,,,,20,1,0,251046,,,,,,
179720,set_tempo,,,,,20,1,0,255319,,,,,,
179760,note_off,,,,,0,0,2,,,0,,,77,64
179760,note_off,,,,,120,0,1,,,0,,,83,64
179760,note_on,,,,,0,0,1,,,0,,,81,65
179760,set_tempo,,,,,40,1,0,256410,,,,,,
179760,note_on,,,,,0,0,2,,,0,,,71,51
179760,note_on,,,,,0,0,2,,,0,,,77,51
179760,note_off,,,,,0,0,2,,,0,,,74,64
179760,note_off,,,,,240,0,2,,,0,,,50,64
179760,note_on,,,,,0,0,2,,,0,,,55,51
179780,set_tempo,,,,,20,1,0,258621,,,,,,
179820,set_tempo,,,,,40,1,0,259740,,,,,,
179860,set_tempo,,,,,40,1,0,260870,,,,,,
179880,set_tempo,,,,,20,1,0,263158,,,,,,
179880,note_on,,,,,0,0,1,,,0,,,79,61
179880,note_off,,,,,120,0,1,,,0,,,81,64
179940,set_tempo,,,,,60,1,0,265487,,,,,,
179940,control_change,,,,,60,0,1,,,0,64,0,,
179940,note_off,,,,,180,0,2,,,0,,,55,64
179940,note_off,,,,,0,0,2,,,0,,,71,64
179940,note_off,,,,,0,0,2,,,0,,,77,64
179980,set_tempo,,,,,40,1,0,267857,,,,,,
180000,control_change,,,,,0,0,1,,,0,64,96,,
180000,note_on,,,,,0,0,1,,,0,,,81,74
180000,note_off,,,,,60,0,1,,,0,,,79,64
180000,note_off,,,,,60,0,2,,,0,,,43,64
180000,note_on,,,,,0,0,2,,,0,,,76,53
180000,note_on,,,,,0,0,2,,,0,,,72,53
180000,note_on,,,,,0,0,2,,,0,,,43,60
180042,set_tempo,,,,,62,1,0,270270,,,,,,
180062,set_tempo,,,,,20,1,0,271493,,,,,,
180082,set_tempo,,,,,20,1,0,273973,,,,,,
180120,note_off,,,,,120,0,1,,,0,,,81,64
180120,note_on,,,,,0,0,1,,,0,,,79,65
180122,set_tempo,,,,,40,1,0,276498,,,,,,
180162,set_tempo,,,,,40,1,0,280374,,,,,,
180202,set_tempo,,,,,40,1,0,281690,,,,,,
180220,note_off,,,,,100,0,1,,,0,,,79,64
180240,note_off,,,,,240,0,2,,,0,,,72,64
180240,note_off,,,,,0,0,2,,,0,,,76,64
180240,note_on,,,,,0,0,2,,,0,,,52,41
180240,note_on,,,,,20,0,1,,,0,,,76,52
180242,set_tempo,,,,,40,1,0,285714,,,,,,
180330,note_off,,,,,90,0,1,,,0,,,76,64
180360,note_on,,,,,30,0,1,,,0,,,72,42
180362,set_tempo,,,,,120,1,0,291262,,,,,,
180402,set_tempo,,,,,40,1,0,292683,,,,,,
180442,set_tempo,,,,,40,1,0,300000,,,,,,
180450,note_off,,,,,90,0,1,,,0,,,72,64
180480,note_on,,,,,30,0,1,,,0,,,67,31
180480,note_off,,,,,240,0,2,,,0,,,52,64
180480,note_on,,,,,0,0,2,,,0,,,55,25
180502,set_tempo,,,,,60,1,0,304569,,,,,,
180522,set_tempo,,,,,20,1,0,306122,,,,,,
180570,note_off,,,,,90,0,1,,,0,,,67,64
180600,control_change,,,,,30,0,1,,,0,64,0,,
180602,set_tempo,,,,,80,1,0,310881,,,,,,
180622,set_tempo,,,,,20,1,0,314136,,,,,,
180660,note_off,,,,,180,0,2,,,0,,,55,64
180662,set_tempo,,,,,40,1,0,317460,,,,,,
180702,set_tempo,,,,,40,1,0,320856,,,,,,
180720,note_off,,,,,60,0,2,,,0,,,43,64
180720,note_on,,,,,0,0,2,,,0,,,76,46
180720,note_on,,,,,0,0,2,,,0,,,72,46
180720,note_on,,,,,0,0,2,,,0,,,43,53
180720,note_on,,,,,120,0,1,,,0,,,81,51
180720,control_change,,,,,0,0,1,,,0,64,96,,
180722,set_tempo,,,,,20,1,0,326087,,,,,,
180762,set_tempo,,,,,40,1,0,327869,,,,,,
180802,set_tempo,,,,,40,1,0,333333,,,,,,
180822,set_tempo,,,,,20,1,0,335196,,,,,,
180840,note_on,,,,,0,0,1,,,0,,,79,47
180840,note_off,,,,,120,0,1,,,0,,,81,64
180842,set_tempo,,,,,20,1,0,337079,,,,,,
180882,set_tempo,,,,,40,1,0,340909,,,,,,
180902,set_tempo,,,,,20,1,0,344828,,,,,,
180922,set_tempo,,,,,20,1,0,348837,,,,,,
180940,note_off,,,,,100,0,1,,,0,,,79,64
180942,set_tempo,,,,,20,1,0,352941,,,,,,
180960,note_on,,,,,20,0,1,,,0,,,76,39
180960,note_off,,,,,240,0,2,,,0,,,72,64
180960,note_on,,,,,0,0,2,,,0,,,52,31
180960,note_off,,,,,0,0,2,,,0,,,76,64
181002,set_tempo,,,,,60,1,0,355030,,,,,,
181022,set_tempo,,,,,20,1,0,359281,,,,,,
181050,note_off,,,,,90,0,1,,,0,,,76,64
181062,set_tempo,,,,,40,1,0,361446,,,,,,
181080,note_on,,,,,30,0,1,,,0,,,72,32
181082,set_tempo,,,,,20,1,0,363636,,,,,,
181102,set_tempo,,,,,20,1,0,370370,,,,,,
181142,set_tempo,,,,,40,1,0,377358,,,,,,
181170,note_off,,,,,90,0,1,,,0,,,72,64
181182,set_tempo,,,,,40,1,0,379747,,,,,,
181200,note_on,,,,,0,0,2,,,0,,,55,23
181200,note_off,,,,,240,0,2,,,0,,,52,64
181200,note_on,,,,,30,0,1,,,0,,,67,26
181222,set_tempo,,,,,40,1,0,382166,,,,,,
181242,set_tempo,,,,,20,1,0,384615,,,,,,
181290,note_off,,,,,90,0,1,,,0,,,67,64
181320,control_change,,,,,30,0,1,,,0,64,0,,
181362,set_tempo,,,,,120,1,0,389610,,,,,,
181380,note_off,,,,,180,0,2,,,0,,,55,64
181402,set_tempo,,,,,40,1,0,394737,,,,,,
181440,note_on,,,,,0,0,2,,,0,,,43,35
181440,note_on,,,,,0,0,2,,,0,,,72,28
181440,note_on,,,,,0,0,2,,,0,,,76,28
181440,note_off,,,,,60,0,2,,,0,,,43,64
181440,control_change,,,,,0,0,1,,,0,64,96,,
181440,note_on,,,,,120,0,1,,,0,,,81,39
181442,set_tempo,,,,,40,1,0,402685,,,,,,
181522,set_tempo,,,,,80,1,0,405405,,,,,,
181560,note_off,,,,,120,0,1,,,0,,,81,64
181560,note_on,,,,,0,0,1,,,0,,,79,32
181562,set_tempo,,,,,40,1,0,410959,,,,,,
181582,set_tempo,,,,,20,1,0,416667,,,,,,
181660,note_off,,,,,100,0,1,,,0,,,79,64
181680,note_on,,,,,20,0,1,,,0,,,76,25
181680,note_on,,,,,0,0,2,,,0,,,52,21
181680,note_off,,,,,0,0,2,,,0,,,76,64
181680,note_off,,,,,240,0,2,,,0,,,72,64
181770,note_off,,,,,90,0,1,,,0,,,76,64
181800,note_on,,,,,30,0,1,,,0,,,72,22
181802,set_tempo,,,,,220,1,0,419580,,,,,,
181890,note_off,,,,,90,0,1,,,0,,,72,64
181920,note_on,,,,,0,0,2,,,0,,,55,14
181920,note_on,,,,,30,0,1,,,0,,,67,18
181920,note_off,,,,,240,0,2,,,0,,,52,64
181922,set_tempo,,,,,120,1,0,431655,,,,,,
182010,note_off,,,,,90,0,1,,,0,,,67,64
182040,control_change,,,,,30,0,1,,,0,64,0,,
182080,set_tempo,,,,,158,1,0,1500000,,,,,,
182100,note_off,,,,,180,0,2,,,0,,,55,64
182140,set_tempo,,,,,60,1,0,454545,,,,,,
182160,note_on,,,,,0,0,2,,,0,,,52,90
182160,control_change,,,,,0,0,2,,,0,7,112,,
182160,control_change,,,,,0,0,1,,,0,64,95,,
182160,note_on,,,,,0,0,1,,,0,,,93,88
182160,control_change,,,,,120,0,1,,,0,7,112,,
182160,note_off,,,,,60,0,2,,,0,,,43,64
182160,note_on,,,,,0,0,2,,,0,,,49,90
182160,set_tempo,,,,,20,1,0,372671,,,,,,
182160,note_on,,,,,0,0,2,,,0,,,56,90
182160,note_on,,,,,0,0,2,,,0,,,44,90
182206,control_change,,,,,46,0,2,,,0,7,111,,
182206,control_change,,,,,46,0,1,,,0,7,111,,
182220,note_off,,,,,14,0,1,,,0,,,93,64
182220,note_on,,,,,0,0,1,,,0,,,92,86
182240,set_tempo,,,,,80,1,0,271493,,,,,,
182254,control_change,,,,,48,0,2,,,0,7,110,,
182254,control_change,,,,,34,0,1,,,0,7,110,,
182260,set_tempo,,,,,20,1,0,270270,,,,,,
182280,set_tempo,,,,,20,1,0,269058,,,,,,
182280,note_on,,,,,0,0,1,,,0,,,90,83
182280,note_off,,,,,26,0,1,,,0,,,92,64
182300,set_tempo,,,,,20,1,0,267857,,,,,,
182302,control_change,,,,,48,0,2,,,0,7,109,,
182302,control_change,,,,,22,0,1,,,0,7,109,,
182340,note_off,,,,,38,0,1,,,0,,,90,64
182340,note_off,,,,,0,0,2,,,0,,,52,64
182340,note_off,,,,,0,0,2,,,0,,,56,64
182340,note_off,,,,,0,0,2,,,0,,,49,64
182340,note_off,,,,,38,0,2,,,0,,,44,64
182340,note_on,,,,,0,0,1,,,0,,,88,81
182350,control_change,,,,,10,0,1,,,0,7,108,,
182350,control_change,,,,,10,0,2,,,0,7,108,,
182360,set_tempo,,,,,60,1,0,265487,,,,,,
182398,control_change,,,,,48,0,1,,,0,7,107,,
182398,control_change,,,,,48,0,2,,,0,7,107,,
182400,note_on,,,,,0,0,2,,,0,,,49,90
182400,note_on,,,,,0,0,2,,,0,,,52,90
182400,note_on,,,,,2,0,2,,,0,,,56,90
182400,note_on,,,,,0,0,2,,,0,,,44,90
182400,note_on,,,,,0,0,1,,,0,,,87,77
182400,note_off,,,,,2,0,1,,,0,,,88,64
182440,set_tempo,,,,,80,1,0,263158,,,,,,
182446,control_change,,,,,46,0,1,,,0,7,106,,
182446,control_change,,,,,46,0,2,,,0,7,106,,
182460,note_off,,,,,14,0,1,,,0,,,87,64
182460,note_on,,,,,0,0,1,,,0,,,85,77
182494,control_change,,,,,34,0,1,,,0,7,105,,
182494,control_change,,,,,48,0,2,,,0,7,105,,
182500,set_tempo,,,,,60,1,0,260870,,,,,,
182520,note_off,,,,,26,0,1,,,0,,,85,64
182520,note_on,,,,,0,0,1,,,0,,,83,72
182520,set_tempo,,,,,20,1,0,259740,,,,,,
182542,control_change,,,,,48,0,2,,,0,7,104,,
182542,control_change,,,,,22,0,1,,,0,7,104,,
182560,set_tempo,,,,,40,1,0,258621,,,,,,
182580,note_on,,,,,0,0,1,,,0,,,81,71
182580,note_off,,,,,38,0,1,,,0,,,83,64
182590,control_change,,,,,10,0,1,,,0,7,103,,
182590,control_change,,,,,48,0,2,,,0,7,103,,
182600,set_tempo,,,,,40,1,0,256410,,,,,,
182638,control_change,,,,,48,0,2,,,0,7,102,,
182638,control_change,,,,,48,0,1,,,0,7,102,,
182640,note_off,,,,,2,0,1,,,0,,,81,64
182640,note_on,,,,,0,0,1,,,0,,,80,66
182684,control_change,,,,,46,0,2,,,0,7,101,,
182684,control_change,,,,,44,0,1,,,0,7,101,,
182700,note_on,,,,,0,0,1,,,0,,,78,65
182700,note_off,,,,,16,0,1,,,0,,,80,64
182732,control_change,,,,,32,0,1,,,0,7,100,,
182732,control_change,,,,,48,0,2,,,0,7,100,,
182760,note_on,,,,,0,0,1,,,0,,,76,64
182760,note_off,,,,,28,0,1,,,0,,,78,64
182780,control_change,,,,,20,0,1,,,0,7,99,,
182780,control_change,,,,,48,0,2,,,0,7,99,,
182820,note_off,,,,,40,0,1,,,0,,,76,64
182820,note_on,,,,,0,0,1,,,0,,,75,62
182828,control_change,,,,,8,0,1,,,0,7,98,,
182828,control_change,,,,,48,0,2,,,0,7,98,,
182876,control_change,,,,,48,0,1,,,0,7,97,,
182876,control_change,,,,,48,0,2,,,0,7,97,,
182880,note_off,,,,,4,0,1,,,0,,,75,64
182880,note_on,,,,,0,0,1,,,0,,,73,61
182924,control_change,,,,,44,0,1,,,0,7,96,,
182924,control_change,,,,,48,0,2,,,0,7,96,,
182940,note_off,,,,,16,0,1,,,0,,,73,64
182940,note_on,,,,,0,0,1,,,0,,,71,60
182972,control_change,,,,,48,0,2,,,0,7,95,,
182972,control_change,,,,,32,0,1,,,0,7,95,,
183000,note_on,,,,,0,0,1,,,0,,,69,60
183000,note_off,,,,,28,0,1,,,0,,,71,64
183020,control_change,,,,,20,0,1,,,0,7,94,,
183020,control_change,,,,,48,0,2,,,0,7,94,,
183060,note_on,,,,,0,0,1,,,0,,,68,56
183060,note_off,,,,,40,0,1,,,0,,,69,64
183068,control_change,,,,,8,0,1,,,0,7,93,,
183068,control_change,,,,,48,0,2,,,0,7,93,,
183116,control_change,,,,,48,0,1,,,0,7,92,,
183116,control_change,,,,,48,0,2,,,0,7,92,,
183120,note_on,,,,,0,0,1,,,0,,,66,55
183120,note_off,,,,,4,0,1,,,0,,,68,64
183120,set_tempo,,,,,520,1,0,232558,,,,,,
183164,control_change,,,,,44,0,1,,,0,7,91,,
183164,control_change,,,,,48,0,2,,,0,7,91,,
183200,note_on,,,,,0,0,1,,,0,,,64,53
183200,set_tempo,,,,,80,1,0,233463,,,,,,
183200,note_off,,,,,36,0,1,,,0,,,66,64
183210,control_change,,,,,46,0,2,,,0,7,90,,
183210,control_change,,,,,10,0,1,,,0,7,90,,
183220,set_tempo,,,,,20,1,0,236220,,,,,,
183258,control_change,,,,,48,0,1,,,0,7,89,,
183258,control_change,,,,,48,0,2,,,0,7,89,,
183280,note_on,,,,,0,0,1,,,0,,,63,51
183280,set_tempo,,,,,60,1,0,237154,,,,,,
183280,note_off,,,,,22,0,1,,,0,,,64,64
183306,control_change,,,,,26,0,1,,,0,7,88,,
183306,control_change,,,,,48,0,2,,,0,7,88,,
183320,set_tempo,,,,,40,1,0,240000,,,,,,
183354,control_change,,,,,48,0,2,,,0,7,87,,
183354,control_change,,,,,48,0,1,,,0,7,87,,
183360,note_off,,,,,6,0,1,,,0,,,63,64
183360,note_on,,,,,0,0,1,,,0,,,61,49
183360,set_tempo,,,,,40,1,0,241935,,,,,,
183400,set_tempo,,,,,40,1,0,242915,,,,,,
183402,control_change,,,,,42,0,1,,,0,7,86,,
183402,control_change,,,,,48,0,2,,,0,7,86,,
183440,note_off,,,,,38,0,1,,,0,,,61,64
183440,note_on,,,,,0,0,1,,,0,,,59,45
183440,set_tempo,,,,,40,1,0,244898,,,,,,
183450,control_change,,,,,10,0,1,,,0,7,85,,
183450,control_change,,,,,48,0,2,,,0,7,85,,
183460,set_tempo,,,,,20,1,0,245902,,,,,,
183498,control_change,,,,,48,0,1,,,0,7,84,,
183498,control_change,,,,,48,0,2,,,0,7,84,,
183500,set_tempo,,,,,40,1,0,248963,,,,,,
183520,note_on,,,,,0,0,1,,,0,,,57,42
183520,note_off,,,,,22,0,1,,,0,,,59,64
183540,set_tempo,,,,,40,1,0,250000,,,,,,
183546,control_change,,,,,48,0,2,,,0,7,83,,
183546,control_change,,,,,26,0,1,,,0,7,83,,
183560,set_tempo,,,,,20,1,0,251046,,,,,,
183594,control_change,,,,,48,0,1,,,0,7,82,,
183594,control_change,,,,,48,0,2,,,0,7,82,,
183600,note_on,,,,,0,0,2,,,0,,,32,75
183600,note_on,,,,,0,0,2,,,0,,,44,75
183600,note_off,,,,,0,0,2,,,0,,,56,64
183600,note_off,,,,,0,0,2,,,0,,,52,64
183600,note_off,,,,,0,0,2,,,0,,,49,64
183600,note_off,,,,,6,0,2,,,0,,,44,64
183600,set_tempo,,,,,40,1,0,253165,,,,,,
183600,note_on,,,,,0,0,1,,,0,,,56,57
183600,control_change,,,,,0,0,1,,,0,64,0,,
183600,note_off,,,,,6,0,1,,,0,,,57,64
183620,set_tempo,,,,,20,1,0,382166,,,,,,
183642,control_change,,,,,42,0,1,,,0,7,81,,
183642,control_change,,,,,42,0,2,,,0,7,81,,
183690,note_off,,,,,48,0,1,,,0,,,56,64
183690,control_change,,,,,0,0,1,,,0,7,80,,
183690,note_off,,,,,48,0,2,,,0,,,32,64
183690,note_off,,,,,0,0,2,,,0,,,44,64
183690,control_change,,,,,0,0,2,,,0,7,80,,
183780,set_tempo,,,,,160,1,0,379747,,,,,,
183840,note_on,,,,,0,0,1,,,0,,,60,88
183840,note_on,,,,,150,0,2,,,0,,,56,90
183840,note_on,,,,,0,0,1,,,0,,,63,88
183840,control_change,,,,,0,0,1,,,0,64,97,,
183840,note_on,,,,,150,0,1,,,0,,,68,88
183840,note_on,,,,,0,0,2,,,0,,,44,90
183960,note_off,,,,,0,0,1,,,0,,,63,64
183960,note_off,,,,,0,0,1,,,0,,,68,64
183960,note_off,,,,,120,0,2,,,0,,,44,64
183960,note_off,,,,,120,0,1,,,0,,,60,64
183960,note_off,,,,,0,0,2,,,0,,,56,64
184060,set_tempo,,,,,280,1,0,1132075,,,,,,
184080,control_change,,,,,120,0,1,,,0,64,0,,
184220,set_tempo,,,,,160,1,0,288462,,,,,,
184240,set_tempo,,,,,20,1,0,333333,,,,,,
184260,note_on,,,,,180,0,1,,,0,,,75,28
184280,set_tempo,,,,,40,1,0,329670,,,,,,
184300,set_tempo,,,,,20,1,0,327869,,,,,,
184320,note_off,,,,,60,0,1,,,0,,,75,64
184320,note_on,,,,,0,0,1,,,0,,,73,50
184340,set_tempo,,,,,40,1,0,326087,,,,,,
184360,set_tempo,,,,,20,1,0,324324,,,,,,
184440,note_on,,,,,0,0,1,,,0,,,72,45
184440,note_off,,,,,120,0,1,,,0,,,73,64
184440,set_tempo,,,,,80,1,0,320856,,,,,,
184480,set_tempo,,,,,40,1,0,319149,,,,,,
184520,set_tempo,,,,,40,1,0,314136,,,,,,
184560,note_on,,,,,0,0,2,,,0,,,61,47
184560,note_on,,,,,0,0,2,,,0,,,64,47
184560,note_on,,,,,600,0,2,,,0,,,68,47
184560,note_off,,,,,120,0,1,,,0,,,72,64
184560,note_on,,,,,0,0,1,,,0,,,73,42
184640,set_tempo,,,,,120,1,0,312500,,,,,,
184680,note_off,,,,,120,0,1,,,0,,,73,64
184680,note_on,,,,,0,0,1,,,0,,,76,37
184700,set_tempo,,,,,60,1,0,310881,,,,,,
184740,set_tempo,,,,,40,1,0,307692,,,,,,
184780,set_tempo,,,,,40,1,0,306122,,,,,,
184800,note_off,,,,,240,0,2,,,0,,,61,64
184800,set_tempo,,,,,20,1,0,304569,,,,,,
184800,note_off,,,,,0,0,2,,,0,,,64,64
184800,note_off,,,,,120,0,1,,,0,,,76,64
184800,note_on,,,,,0,0,1,,,0,,,73,27
184800,note_off,,,,,0,0,2,,,0,,,68,64
184820,set_tempo,,,,,20,1,0,303030,,,,,,
184880,set_tempo,,,,,60,1,0,300000,,,,,,
184900,set_tempo,,,,,20,1,0,298507,,,,,,
184920,note_off,,,,,120,0,1,,,0,,,73,64
184940,set_tempo,,,,,40,1,0,348837,,,,,,
185000,set_tempo,,,,,60,1,0,350877,,,,,,
185040,note_on,,,,,120,0,1,,,0,,,78,47
185120,set_tempo,,,,,120,1,0,352941,,,,,,
185280,note_on,,,,,0,0,2,,,0,,,57,44
185280,set_tempo,,,,,160,1,0,314136,,,,,,
185280,note_on,,,,,0,0,2,,,0,,,61,44
185280,note_on,,,,,480,0,2,,,0,,,66,44
185580,note_off,,,,,300,0,2,,,0,,,57,64
185580,note_off,,,,,0,0,2,,,0,,,61,64
185580,note_off,,,,,0,0,2,,,0,,,66,64
185670,note_off,,,,,630,0,1,,,0,,,78,64
185700,note_on,,,,,30,0,1,,,0,,,75,41
185740,set_tempo,,,,,460,1,0,312500,,,,,,
185760,note_off,,,,,60,0,1,,,0,,,75,64
185760,note_on,,,,,0,0,1,,,0,,,73,49
185760,set_tempo,,,,,20,1,0,307692,,,,,,
185820,set_tempo,,,,,60,1,0,304569,,,,,,
185840,set_tempo,,,,,20,1,0,303030,,,,,,
185880,note_off,,,,,120,0,1,,,0,,,73,64
185880,note_on,,,,,0,0,1,,,0,,,72,40
185900,set_tempo,,,,,60,1,0,300000,,,,,,
185920,set_tempo,,,,,20,1,0,298507,,,,,,
185940,set_tempo,,,,,20,1,0,297030,,,,,,
185980,set_tempo,,,,,40,1,0,294118,,,,,,
186000,note_on,,,,,0,0,2,,,0,,,61,52
186000,note_on,,,,,420,0,2,,,0,,,64,52
186000,note_on,,,,,0,0,1,,,0,,,73,44
186000,note_off,,,,,120,0,1,,,0,,,72,64
186000,note_on,,,,,0,0,2,,,0,,,56,52
186040,set_tempo,,,,,60,1,0,292683,,,,,,
186100,set_tempo,,,,,60,1,0,291262,,,,,,
186120,note_on,,,,,0,0,1,,,0,,,76,48
186120,note_off,,,,,120,0,1,,,0,,,73,64
186200,set_tempo,,,,,100,1,0,288462,,,,,,
186220,set_tempo,,,,,20,1,0,287081,,,,,,
186240,note_on,,,,,0,0,1,,,0,,,73,51
186240,note_off,,,,,120,0,1,,,0,,,76,64
186240,note_off,,,,,240,0,2,,,0,,,56,64
186240,note_off,,,,,0,0,2,,,0,,,64,64
186240,note_off,,,,,0,0,2,,,0,,,61,64
186280,set_tempo,,,,,60,1,0,285714,,,,,,
186320,set_tempo,,,,,40,1,0,284360,,,,,,
186360,note_off,,,,,120,0,1,,,0,,,73,64
186380,set_tempo,,,,,60,1,0,342857,,,,,,
186480,note_on,,,,,120,0,1,,,0,,,81,58
186580,set_tempo,,,,,200,1,0,344828,,,,,,
186720,note_on,,,,,480,0,2,,,0,,,62,50
186720,note_on,,,,,0,0,2,,,0,,,54,50
186720,note_on,,,,,0,0,2,,,0,,,57,50
186880,set_tempo,,,,,300,1,0,342857,,,,,,
186940,set_tempo,,,,,60,1,0,303030,,,,,,
187020,note_off,,,,,0,0,2,,,0,,,62,64
187020,note_off,,,,,0,0,2,,,0,,,57,64
187020,note_off,,,,,300,0,2,,,0,,,54,64
187140,note_off,,,,,660,0,1,,,0,,,81,64
187200,note_on,,,,,60,0,1,,,0,,,81,34
187200,set_tempo,,,,,260,1,0,333333,,,,,,
187320,note_off,,,,,120,0,1,,,0,,,81,64
187320,note_on,,,,,0,0,1,,,0,,,80,30
187340,set_tempo,,,,,140,1,0,291262,,,,,,
187424,note_off,,,,,104,0,1,,,0,,,80,64
187440,note_on,,,,,16,0,1,,,0,,,78,32
187440,note_on,,,,,420,0,2,,,0,,,64,41
187440,note_on,,,,,0,0,2,,,0,,,61,41
187440,note_on,,,,,0,0,2,,,0,,,56,41
187560,note_on,,,,,0,0,1,,,0,,,76,22
187560,note_off,,,,,120,0,1,,,0,,,78,64
187664,note_off,,,,,104,0,1,,,0,,,76,64
187680,note_on,,,,,16,0,1,,,0,,,75,30
187680,note_off,,,,,240,0,2,,,0,,,56,64
187680,note_off,,,,,0,0,2,,,0,,,61,64
187680,note_off,,,,,0,0,2,,,0,,,64,64
187800,note_off,,,,,120,0,1,,,0,,,75,64
187800,note_on,,,,,0,0,1,,,0,,,73,21
187904,note_off,,,,,104,0,1,,,0,,,73,64
187920,note_on,,,,,240,0,2,,,0,,,64,50
187920,note_on,,,,,0,0,2,,,0,,,56,50
187920,note_on,,,,,16,0,1,,,0,,,73,35
187960,set_tempo,,,,,620,1,0,292683,,,,,,
187980,set_tempo,,,,,20,1,0,294118,,,,,,
188000,set_tempo,,,,,20,1,0,306122,,,,,,
188040,set_tempo,,,,,40,1,0,307692,,,,,,
188080,set_tempo,,,,,40,1,0,320856,,,,,,
188120,set_tempo,,,,,40,1,0,324324,,,,,,
188140,set_tempo,,,,,20,1,0,327869,,,,,,
188160,note_off,,,,,240,0,2,,,0,,,64,64
188160,note_on,,,,,0,0,2,,,0,,,68,46
188160,note_on,,,,,240,0,1,,,0,,,76,29
188180,set_tempo,,,,,40,1,0,333333,,,,,,
188200,set_tempo,,,,,20,1,0,340909,,,,,,
188220,set_tempo,,,,,20,1,0,342857,,,,,,
188240,set_tempo,,,,,20,1,0,344828,,,,,,
188260,set_tempo,,,,,20,1,0,350877,,,,,,
188280,set_tempo,,,,,20,1,0,355030,,,,,,
188300,set_tempo,,,,,20,1,0,363636,,,,,,
188320,set_tempo,,,,,20,1,0,368098,,,,,,
188340,note_off,,,,,180,0,2,,,0,,,68,64
188340,note_off,,,,,180,0,1,,,0,,,76,64
188340,set_tempo,,,,,20,1,0,377358,,,,,,
188360,set_tempo,,,,,20,1,0,394737,,,,,,
188380,set_tempo,,,,,20,1,0,410959,,,,,,
188400,note_on,,,,,0,0,2,,,0,,,56,29
188400,note_on,,,,,0,0,2,,,0,,,68,29
188400,note_off,,,,,60,0,2,,,0,,,56,64
188400,note_off,,,,,60,0,1,,,0,,,73,64
188400,set_tempo,,,,,20,1,0,413793,,,,,,
188400,note_on,,,,,0,0,1,,,0,,,75,25
188400,note_on,,,,,0,0,1,,,0,,,72,25
188420,set_tempo,,,,,20,1,0,431655,,,,,,
188440,set_tempo,,,,,20,1,0,472441,,,,,,
188460,set_tempo,,,,,20,1,0,487805,,,,,,
188480,set_tempo,,,,,20,1,0,909091,,,,,,
188550,note_off,,,,,0,0,1,,,0,,,72,64
188550,note_off,,,,,150,0,1,,,0,,,75,64
188580,note_on,,,,,30,0,1,,,0,,,63,41
188580,note_off,,,,,180,0,2,,,0,,,56,64
188580,note_off,,,,,0,0,2,,,0,,,68,64
188580,set_tempo,,,,,100,1,0,326087,,,,,,
188640,note_on,,,,,0,0,1,,,0,,,61,50
188640,note_off,,,,,60,0,1,,,0,,,63,64
188680,set_tempo,,,,,100,1,0,324324,,,,,,
188760,note_off,,,,,120,0,1,,,0,,,61,64
188760,note_on,,,,,0,0,1,,,0,,,60,45
188760,set_tempo,,,,,80,1,0,320856,,,,,,
188800,set_tempo,,,,,40,1,0,319149,,,,,,
188840,set_tempo,,,,,40,1,0,314136,,,,,,
188880,note_on,,,,,0,0,2,,,0,,,52,47
188880,note_off,,,,,120,0,1,,,0,,,60,64
188880,note_on,,,,,0,0,1,,,0,,,61,42
188880,note_on,,,,,300,0,2,,,0,,,56,47
188880,note_on,,,,,0,0,2,,,0,,,49,47
188960,set_tempo,,,,,120,1,0,312500,,,,,,
189000,note_on,,,,,0,0,1,,,0,,,64,37
189000,note_off,,,,,120,0,1,,,0,,,61,64
189020,set_tempo,,,,,60,1,0,310881,,,,,,
189060,set_tempo,,,,,40,1,0,307692,,,,,,
189100,set_tempo,,,,,40,1,0,306122,,,,,,
189120,note_off,,,,,0,0,2,,,0,,,52,64
189120,note_off,,,,,0,0,2,,,0,,,56,64
189120,note_on,,,,,0,0,2,,,0,,,56,37
189120,note_on,,,,,0,0,2,,,0,,,52,37
189120,note_on,,,,,0,0,2,,,0,,,49,37
189120,note_off,,,,,120,0,1,,,0,,,64,64
189120,note_off,,,,,240,0,2,,,0,,,49,64
189120,note_on,,,,,0,0,1,,,0,,,61,27
189120,set_tempo,,,,,20,1,0,304569,,,,,,
189140,set_tempo,,,,,20,1,0,303030,,,,,,
189200,set_tempo,,,,,60,1,0,300000,,,,,,
189220,set_tempo,,,,,20,1,0,298507,,,,,,
189240,note_off,,,,,120,0,1,,,0,,,61,64
189260,set_tempo,,,,,40,1,0,297030,,,,,,
189280,set_tempo,,,,,20,1,0,350877,,,,,,
189360,note_on,,,,,120,0,1,,,0,,,66,47
189360,note_off,,,,,0,0,2,,,0,,,56,64
189360,note_off,,,,,0,0,2,,,0,,,52,64
189360,note_off,,,,,240,0,2,,,0,,,49,64
189440,set_tempo,,,,,160,1,0,352941,,,,,,
189600,note_on,,,,,240,0,2,,,0,,,54,42
189600,note_on,,,,,0,0,2,,,0,,,45,42
189600,set_tempo,,,,,160,1,0,314136,,,,,,
189600,note_on,,,,,0,0,2,,,0,,,49,42
189840,note_on,,,,,0,0,2,,,0,,,54,33
189840,note_on,,,,,0,0,2,,,0,,,49,33
189840,note_off,,,,,0,0,2,,,0,,,49,64
189840,note_off,,,,,240,0,2,,,0,,,45,64
189840,note_off,,,,,0,0,2,,,0,,,54,64
189840,note_on,,,,,0,0,2,,,0,,,45,33
189990,note_off,,,,,630,0,1,,,0,,,66,64
190020,note_on,,,,,30,0,1,,,0,,,63,41
190060,set_tempo,,,,,460,1,0,312500,,,,,,
190080,note_off,,,,,0,0,2,,,0,,,54,64
190080,set_tempo,,,,,20,1,0,307692,,,,,,
190080,note_off,,,,,0,0,2,,,0,,,49,64
190080,note_off,,,,,240,0,2,,,0,,,45,64
190080,note_on,,,,,0,0,1,,,0,,,61,49
190080,note_off,,,,,60,0,1,,,0,,,63,64
190140,set_tempo,,,,,60,1,0,304569,,,,,,
190160,set_tempo,,,,,20,1,0,303030,,,,,,
190200,note_on,,,,,0,0,1,,,0,,,60,45
190200,note_off,,,,,120,0,1,,,0,,,61,64
190220,set_tempo,,,,,60,1,0,300000,,,,,,
190240,set_tempo,,,,,20,1,0,298507,,,,,,
190260,set_tempo,,,,,20,1,0,297030,,,,,,
190300,set_tempo,,,,,40,1,0,294118,,,,,,
190320,set_tempo,,,,,20,1,0,292683,,,,,,
190320,note_on,,,,,0,0,2,,,0,,,44,47
190320,note_on,,,,,0,0,2,,,0,,,49,47
190320,note_on,,,,,0,0,1,,,0,,,61,35
190320,note_off,,,,,120,0,1,,,0,,,60,64
190320,note_on,,,,,240,0,2,,,0,,,52,47
190360,set_tempo,,,,,40,1,0,297030,,,,,,
190380,set_tempo,,,,,20,1,0,298507,,,,,,
190420,set_tempo,,,,,40,1,0,303030,,,,,,
190440,set_tempo,,,,,20,1,0,306122,,,,,,
190440,note_on,,,,,0,0,1,,,0,,,64,42
190440,note_off,,,,,120,0,1,,,0,,,61,64
190460,set_tempo,,,,,20,1,0,307692,,,,,,
190500,set_tempo,,,,,40,1,0,312500,,,,,,
190520,set_tempo,,,,,20,1,0,317460,,,,,,
190540,set_tempo,,,,,20,1,0,319149,,,,,,
190560,note_off,,,,,120,0,1,,,0,,,64,64
190560,note_on,,,,,0,0,1,,,0,,,61,47
190560,note_on,,,,,0,0,2,,,0,,,44,46
190560,note_on,,,,,0,0,2,,,0,,,49,46
190560,note_on,,,,,0,0,2,,,0,,,52,46
190560,note_off,,,,,0,0,2,,,0,,,52,64
190560,note_off,,,,,0,0,2,,,0,,,49,64
190560,note_off,,,,,240,0,2,,,0,,,44,64
190580,set_tempo,,,,,40,1,0,324324,,,,,,
190600,set_tempo,,,,,20,1,0,326087,,,,,,
190620,set_tempo,,,,,20,1,0,327869,,,,,,
190660,set_tempo,,,,,40,1,0,329670,,,,,,
190680,set_tempo,,,,,20,1,0,333333,,,,,,
190680,note_off,,,,,120,0,1,,,0,,,61,64
190700,set_tempo,,,,,20,1,0,335196,,,,,,
190740,set_tempo,,,,,40,1,0,337079,,,,,,
190760,set_tempo,,,,,20,1,0,340909,,,,,,
190800,set_tempo,,,,,40,1,0,342857,,,,,,
190800,note_off,,,,,0,0,2,,,0,,,52,64
190800,note_on,,,,,120,0,1,,,0,,,69,55
190800,note_off,,,,,240,0,2,,,0,,,44,64
190800,note_off,,,,,0,0,2,,,0,,,49,64
190840,set_tempo,,,,,40,1,0,344828,,,,,,
191000,set_tempo,,,,,160,1,0,348837,,,,,,
191040,note_on,,,,,240,0,2,,,0,,,50,48
191040,note_on,,,,,0,0,2,,,0,,,45,48
191040,note_on,,,,,0,0,2,,,0,,,42,48
191120,set_tempo,,,,,120,1,0,350877,,,,,,
191220,set_tempo,,,,,100,1,0,352941,,,,,,
191280,note_on,,,,,0,0,2,,,0,,,50,36
191280,note_off,,,,,0,0,2,,,0,,,50,64
191280,note_off,,,,,0,0,2,,,0,,,45,64
191280,note_on,,,,,0,0,2,,,0,,,42,36
191280,note_on,,,,,0,0,2,,,0,,,45,36
191280,note_off,,,,,240,0,2,,,0,,,42,64
191300,set_tempo,,,,,80,1,0,355030,,,,,,
191420,set_tempo,,,,,120,1,0,472441,,,,,,
191460,note_off,,,,,660,0,1,,,0,,,69,64
191520,note_off,,,,,0,0,2,,,0,,,45,64
191520,note_off,,,,,0,0,2,,,0,,,50,64
191520,set_tempo,,,,,100,1,0,333333,,,,,,
191520,note_on,,,,,60,0,1,,,0,,,69,36
191520,note_off,,,,,240,0,2,,,0,,,42,64
191640,note_off,,,,,120,0,1,,,0,,,69,64
191640,note_on,,,,,0,0,1,,,0,,,68,26
191660,set_tempo,,,,,140,1,0,291262,,,,,,
191744,note_off,,,,,104,0,1,,,0,,,68,64
191760,note_on,,,,,240,0,2,,,0,,,49,41
191760,note_on,,,,,0,0,2,,,0,,,40,41
191760,note_on,,,,,16,0,1,,,0,,,66,31
191880,note_on,,,,,0,0,1,,,0,,,64,24
191880,note_off,,,,,120,0,1,,,0,,,66,64
191900,set_tempo,,,,,240,1,0,292683,,,,,,
191940,set_tempo,,,,,40,1,0,294118,,,,,,
191960,set_tempo,,,,,20,1,0,297030,,,,,,
191984,note_off,,,,,104,0,1,,,0,,,64,64
192000,note_on,,,,,0,0,2,,,0,,,40,32
192000,note_on,,,,,0,0,2,,,0,,,45,32
192000,note_off,,,,,0,0,2,,,0,,,49,64
192000,set_tempo,,,,,40,1,0,298507,,,,,,
192000,note_on,,,,,16,0,1,,,0,,,62,30
192000,note_off,,,,,240,0,2,,,0,,,40,64
192020,set_tempo,,,,,20,1,0,300000,,,,,,
192120,note_on,,,,,0,0,1,,,0,,,61,24
192120,note_off,,,,,120,0,1,,,0,,,62,64
192140,set_tempo,,,,,120,1,0,306122,,,,,,
192160,set_tempo,,,,,20,1,0,310881,,,,,,
192180,set_tempo,,,,,20,1,0,314136,,,,,,
192220,set_tempo,,,,,40,1,0,312500,,,,,,
192224,note_off,,,,,104,0,1,,,0,,,61,64
192240,note_on,,,,,0,0,2,,,0,,,40,40
192240,note_on,,,,,0,0,2,,,0,,,52,40
192240,note_on,,,,,0,0,2,,,0,,,57,40
192240,note_on,,,,,16,0,1,,,0,,,61,36
192240,note_off,,,,,0,0,2,,,0,,,45,64
192240,note_off,,,,,240,0,2,,,0,,,40,64
192260,set_tempo,,,,,40,1,0,314136,,,,,,
192340,set_tempo,,,,,80,1,0,317460,,,,,,
192400,set_tempo,,,,,60,1,0,320856,,,,,,
192460,set_tempo,,,,,60,1,0,324324,,,,,,
192480,note_off,,,,,240,0,2,,,0,,,57,64
192540,set_tempo,,,,,80,1,0,333333,,,,,,
192600,note_on,,,,,0,0,1,,,0,,,62,36
192600,note_off,,,,,360,0,1,,,0,,,61,64
192640,set_tempo,,,,,100,1,0,337079,,,,,,
192680,set_tempo,,,,,40,1,0,344828,,,,,,
192700,set_tempo,,,,,20,1,0,363636,,,,,,
192720,note_on,,,,,0,0,1,,,0,,,59,25
192720,note_on,,,,,240,0,2,,,0,,,56,29
192720,note_off,,,,,120,0,1,,,0,,,62,64
192720,set_tempo,,,,,20,1,0,368098,,,,,,
192740,set_tempo,,,,,20,1,0,389610,,,,,,
192760,set_tempo,,,,,20,1,0,402685,,,,,,
192780,set_tempo,,,,,20,1,0,419580,,,,,,
192800,set_tempo,,,,,20,1,0,454545,,,,,,
192820,set_tempo,,,,,20,1,0,483871,,,,,,
192840,set_tempo,,,,,20,1,0,487805,,,,,,
192860,set_tempo,,,,,20,1,0,508475,,,,,,
192880,set_tempo,,,,,20,1,0,540541,,,,,,
192900,note_off,,,,,0,0,2,,,0,,,40,64
192900,note_off,,,,,180,0,2,,,0,,,56,64
192900,set_tempo,,,,,20,1,0,545455,,,,,,
192900,note_off,,,,,180,0,1,,,0,,,59,64
192900,note_off,,,,,0,0,2,,,0,,,52,64
192920,set_tempo,,,,,20,1,0,845070,,,,,,
192960,set_tempo,,,,,40,1,0,382166,,,,,,
192960,note_on,,,,,60,0,1,,,0,,,81,53
192960,control_change,,,,,0,0,1,,,0,7,56,,
192980,note_on,,,,,20,0,1,,,0,,,85,59
192990,set_tempo,,,,,30,1,0,258621,,,,,,
193000,note_on,,,,,20,0,1,,,0,,,88,62
193080,note_off,,,,,80,0,1,,,0,,,81,64
193100,note_off,,,,,20,0,1,,,0,,,85,64
193120,note_off,,,,,20,0,1,,,0,,,88,64
193200,note_on,,,,,0,0,1,,,0,,,73,48
193200,note_on,,,,,80,0,1,,,0,,,69,48
193200,note_on,,,,,0,0,1,,,0,,,76,48
193320,note_off,,,,,0,0,1,,,0,,,69,64
193320,note_off,,,,,120,0,1,,,0,,,76,64
193320,note_off,,,,,0,0,1,,,0,,,73,64
193440,note_on,,,,,0,0,2,,,0,,,61,49
193440,note_on,,,,,0,0,2,,,0,,,57,49
193440,note_on,,,,,540,0,2,,,0,,,64,49
193560,note_off,,,,,120,0,2,,,0,,,57,64
193560,note_off,,,,,0,0,2,,,0,,,61,64
193560,note_off,,,,,0,0,2,,,0,,,64,64
193680,note_on,,,,,0,0,2,,,0,,,59,67
193680,note_on,,,,,120,0,2,,,0,,,64,67
193680,note_on,,,,,0,0,2,,,0,,,56,67
193860,note_off,,,,,180,0,2,,,0,,,56,64
193860,note_off,,,,,0,0,2,,,0,,,64,64
193860,note_off,,,,,0,0,2,,,0,,,59,64
193920,note_on,,,,,600,0,1,,,0,,,71,45
193920,note_on,,,,,0,0,1,,,0,,,68,45
194040,note_off,,,,,120,0,1,,,0,,,68,64
194040,note_off,,,,,0,0,1,,,0,,,71,64
194040,note_on,,,,,0,0,1,,,0,,,76,36
194130,note_off,,,,,90,0,1,,,0,,,76,64
194160,note_on,,,,,0,0,2,,,0,,,57,46
194160,note_on,,,,,0,0,2,,,0,,,61,46
194160,note_on,,,,,30,0,1,,,0,,,69,48
194160,note_on,,,,,0,0,1,,,0,,,73,48
194160,note_on,,,,,300,0,2,,,0,,,64,46
194280,note_off,,,,,120,0,1,,,0,,,73,64
194280,note_off,,,,,0,0,1,,,0,,,69,64
194280,note_on,,,,,0,0,1,,,0,,,76,41
194280,note_off,,,,,0,0,2,,,0,,,61,64
194280,note_off,,,,,0,0,2,,,0,,,64,64
194280,note_off,,,,,120,0,2,,,0,,,57,64
194340,set_tempo,,,,,1350,1,0,310881,,,,,,
194370,note_off,,,,,90,0,1,,,0,,,76,64
194400,note_on,,,,,30,0,1,,,0,,,83,53
194420,note_on,,,,,20,0,1,,,0,,,86,59
194430,set_tempo,,,,,90,1,0,256410,,,,,,
194440,note_on,,,,,20,0,1,,,0,,,88,62
194520,note_off,,,,,80,0,1,,,0,,,83,64
194540,note_off,,,,,20,0,1,,,0,,,86,64
194560,note_off,,,,,20,0,1,,,0,,,88,64
194640,note_on,,,,,80,0,1,,,0,,,74,48
194640,note_on,,,,,0,0,1,,,0,,,76,48
194640,note_on,,,,,0,0,1,,,0,,,71,48
194760,note_off,,,,,0,0,1,,,0,,,74,64
194760,note_off,,,,,0,0,1,,,0,,,71,64
194760,note_off,,,,,120,0,1,,,0,,,76,64
194880,note_on,,,,,0,0,2,,,0,,,59,49
194880,note_on,,,,,0,0,2,,,0,,,62,49
194880,note_on,,,,,600,0,2,,,0,,,64,49
195000,note_off,,,,,120,0,2,,,0,,,59,64
195000,note_off,,,,,0,0,2,,,0,,,64,64
195000,note_off,,,,,0,0,2,,,0,,,62,64
195120,note_on,,,,,0,0,2,,,0,,,61,67
195120,note_on,,,,,0,0,2,,,0,,,57,67
195120,note_on,,,,,120,0,2,,,0,,,64,67
195300,note_off,,,,,180,0,2,,,0,,,57,64
195300,note_off,,,,,0,0,2,,,0,,,61,64
195300,note_off,,,,,0,0,2,,,0,,,64,64
195360,note_on,,,,,600,0,1,,,0,,,69,44
195360,note_on,,,,,0,0,1,,,0,,,73,44
195480,note_off,,,,,120,0,1,,,0,,,73,64
195480,note_off,,,,,0,0,1,,,0,,,69,64
195480,note_on,,,,,0,0,1,,,0,,,76,37
195570,note_off,,,,,90,0,1,,,0,,,76,64
195600,note_on,,,,,0,0,2,,,0,,,62,46
195600,note_on,,,,,300,0,2,,,0,,,64,46
195600,note_on,,,,,0,0,2,,,0,,,59,46
195600,note_on,,,,,30,0,1,,,0,,,71,51
195600,note_on,,,,,0,0,1,,,0,,,74,51
195720,note_on,,,,,0,0,1,,,0,,,76,42
195720,note_off,,,,,0,0,1,,,0,,,71,64
195720,note_off,,,,,120,0,2,,,0,,,59,64
195720,note_off,,,,,0,0,2,,,0,,,62,64
195720,note_off,,,,,120,0,1,,,0,,,74,64
195720,note_off,,,,,0,0,2,,,0,,,64,64
195770,set_tempo,,,,,1340,1,0,326087,,,,,,
195810,note_off,,,,,90,0,1,,,0,,,76,64
195840,note_on,,,,,30,0,1,,,0,,,85,69
195860,note_on,,,,,20,0,1,,,0,,,88,70
195880,note_on,,,,,20,0,1,,,0,,,93,72
195880,set_tempo,,,,,110,1,0,258621,,,,,,
195960,note_off,,,,,80,0,1,,,0,,,85,64
195980,note_off,,,,,20,0,1,,,0,,,88,64
196000,note_off,,,,,20,0,1,,,0,,,93,64
196080,note_on,,,,,80,0,1,,,0,,,73,56
196080,note_on,,,,,0,0,1,,,0,,,76,56
196080,note_on,,,,,0,0,1,,,0,,,81,56
196200,note_off,,,,,120,0,1,,,0,,,81,64
196200,note_off,,,,,0,0,1,,,0,,,76,64
196200,note_off,,,,,0,0,1,,,0,,,73,64
196320,note_on,,,,,0,0,2,,,0,,,61,67
196320,note_on,,,,,600,0,2,,,0,,,64,67
196440,note_off,,,,,0,0,2,,,0,,,64,64
196440,note_off,,,,,120,0,2,,,0,,,61,64
196560,note_on,,,,,120,0,2,,,0,,,67,86
196560,note_on,,,,,0,0,2,,,0,,,62,86
196560,note_on,,,,,0,0,2,,,0,,,59,86
196800,note_on,,,,,0,0,1,,,0,,,74,45
196800,note_on,,,,,0,0,1,,,0,,,71,45
196800,note_on,,,,,600,0,1,,,0,,,79,45
196920,note_off,,,,,120,0,1,,,0,,,71,64
196920,note_off,,,,,0,0,1,,,0,,,79,64
196920,note_off,,,,,0,0,1,,,0,,,74,64
197040,note_on,,,,,120,0,1,,,0,,,83,54
197060,note_on,,,,,20,0,1,,,0,,,86,56
197080,note_on,,,,,20,0,1,,,0,,,91,58
197160,note_off,,,,,80,0,1,,,0,,,83,64
197180,note_off,,,,,20,0,1,,,0,,,86,64
197200,note_off,,,,,20,0,1,,,0,,,91,64
197250,note_on,,,,,50,0,1,,,0,,,91,64
197280,note_on,,,,,0,0,1,,,0,,,90,73
197280,note_off,,,,,30,0,1,,,0,,,91,64
197280,note_off,,,,,720,0,2,,,0,,,59,64
197280,note_off,,,,,0,0,2,,,0,,,62,64
197280,note_off,,,,,0,0,2,,,0,,,67,64
197400,note_off,,,,,120,0,1,,,0,,,90,64
197400,note_on,,,,,0,0,1,,,0,,,89,54
197520,note_on,,,,,0,0,2,,,0,,,57,67
197520,note_on,,,,,0,0,2,,,0,,,62,67
197520,note_on,,,,,240,0,2,,,0,,,66,67
197520,note_off,,,,,120,0,1,,,0,,,89,64
197520,note_on,,,,,0,0,1,,,0,,,90,65
197640,note_off,,,,,120,0,1,,,0,,,90,64
197640,note_on,,,,,0,0,1,,,0,,,93,69
197700,note_off,,,,,0,0,2,,,0,,,66,64
197700,note_off,,,,,180,0,2,,,0,,,57,64
197700,note_off,,,,,0,0,2,,,0,,,62,64
197760,note_on,,,,,60,0,2,,,0,,,67,49
197760,note_off,,,,,120,0,1,,,0,,,93,64
197760,note_on,,,,,0,0,2,,,0,,,57,49
197760,note_on,,,,,0,0,2,,,0,,,61,49
197760,note_on,,,,,0,0,1,,,0,,,88,75
197880,note_on,,,,,0,0,1,,,0,,,93,78
197880,note_off,,,,,120,0,1,,,0,,,88,64
197940,note_off,,,,,0,0,2,,,0,,,67,64
197940,note_off,,,,,180,0,2,,,0,,,57,64
197940,note_off,,,,,0,0,2,,,0,,,61,64
198000,note_on,,,,,0,0,2,,,0,,,62,62
198000,note_off,,,,,120,0,1,,,0,,,93,64
198000,note_on,,,,,0,0,1,,,0,,,90,80
198000,note_on,,,,,60,0,2,,,0,,,66,62
198120,note_off,,,,,120,0,1,,,0,,,90,64
198120,note_on,,,,,0,0,1,,,0,,,86,72
198224,note_off,,,,,104,0,1,,,0,,,86,64
198240,note_on,,,,,16,0,1,,,0,,,81,58
198330,note_off,,,,,90,0,1,,,0,,,81,64
198360,note_on,,,,,30,0,1,,,0,,,78,48
198450,note_off,,,,,90,0,1,,,0,,,78,64
198480,note_off,,,,,0,0,2,,,0,,,66,64
198480,note_on,,,,,30,0,1,,,0,,,74,29
198480,note_off,,,,,480,0,2,,,0,,,62,64
198570,note_off,,,,,90,0,1,,,0,,,74,64
198680,set_tempo,,,,,2800,1,0,326087,,,,,,
198720,note_on,,,,,150,0,1,,,0,,,83,69
198740,note_on,,,,,20,0,1,,,0,,,86,70
198760,note_on,,,,,20,0,1,,,0,,,91,72
198760,set_tempo,,,,,80,1,0,258621,,,,,,
198840,note_off,,,,,80,0,1,,,0,,,83,64
198860,note_off,,,,,20,0,1,,,0,,,86,64
198880,note_off,,,,,20,0,1,,,0,,,91,64
198960,note_on,,,,,0,0,1,,,0,,,79,56
198960,note_on,,,,,80,0,1,,,0,,,71,56
198960,note_on,,,,,0,0,1,,,0,,,74,56
199080,note_off,,,,,120,0,1,,,0,,,79,64
199080,note_off,,,,,0,0,1,,,0,,,71,64
199080,note_off,,,,,0,0,1,,,0,,,74,64
199200,note_on,,,,,0,0,2,,,0,,,59,67
199200,note_on,,,,,720,0,2,,,0,,,62,67
199320,note_off,,,,,0,0,2,,,0,,,62,64
199320,note_off,,,,,120,0,2,,,0,,,59,64
199440,note_on,,,,,120,0,2,,,0,,,65,86
199440,note_on,,,,,0,0,2,,,0,,,57,86
199440,note_on,,,,,0,0,2,,,0,,,60,86
199680,note_on,,,,,600,0,1,,,0,,,77,43
199680,note_on,,,,,0,0,1,,,0,,,72,43
199680,note_on,,,,,0,0,1,,,0,,,69,43
199800,note_off,,,,,120,0,1,,,0,,,69,64
199800,note_off,,,,,0,0,1,,,0,,,72,64
199800,note_off,,,,,0,0,1,,,0,,,77,64
199920,note_on,,,,,120,0,1,,,0,,,81,54
199940,note_on,,,,,20,0,1,,,0,,,84,56
199960,note_on,,,,,20,0,1,,,0,,,89,58
200040,note_off,,,,,80,0,1,,,0,,,81,64
200060,note_off,,,,,20,0,1,,,0,,,84,64
200080,note_off,,,,,20,0,1,,,0,,,89,64
200130,note_on,,,,,50,0,1,,,0,,,89,55
200160,note_off,,,,,720,0,2,,,0,,,57,64
200160,note_off,,,,,0,0,2,,,0,,,65,64
200160,note_off,,,,,30,0,1,,,0,,,89,64
200160,note_on,,,,,0,0,1,,,0,,,88,60
200160,note_off,,,,,0,0,2,,,0,,,60,64
200280,note_on,,,,,0,0,1,,,0,,,87,37
200280,note_off,,,,,120,0,1,,,0,,,88,64
200400,note_on,,,,,240,0,2,,,0,,,64,52
200400,note_on,,,,,0,0,2,,,0,,,60,52
200400,note_on,,,,,0,0,2,,,0,,,55,52
200400,note_on,,,,,0,0,1,,,0,,,88,49
200400,note_off,,,,,120,0,1,,,0,,,87,64
200520,note_on,,,,,0,0,1,,,0,,,91,58
200520,note_off,,,,,120,0,1,,,0,,,88,64
200640,note_on,,,,,0,0,2,,,0,,,55,42
200640,note_off,,,,,120,0,1,,,0,,,91,64
200640,note_on,,,,,0,0,2,,,0,,,65,42
200640,note_off,,,,,0,0,2,,,0,,,64,64
200640,note_off,,,,,0,0,2,,,0,,,60,64
200640,note_off,,,,,240,0,2,,,0,,,55,64
200640,note_on,,,,,0,0,1,,,0,,,86,66
200640,note_on,,,,,0,0,2,,,0,,,59,42
200760,note_off,,,,,120,0,1,,,0,,,86,64
200760,note_on,,,,,0,0,1,,,0,,,91,74
200850,note_off,,,,,0,0,2,,,0,,,59,64
200850,note_off,,,,,0,0,2,,,0,,,65,64
200850,note_off,,,,,210,0,2,,,0,,,55,64
200850,note_off,,,,,90,0,1,,,0,,,91,64
200880,note_on,,,,,30,0,2,,,0,,,64,52
200880,note_on,,,,,0,0,2,,,0,,,60,52
200880,note_on,,,,,30,0,1,,,0,,,88,89
201000,note_on,,,,,0,0,1,,,0,,,84,72
201000,note_off,,,,,120,0,1,,,0,,,88,64
201104,note_off,,,,,104,0,1,,,0,,,84,64
201120,note_on,,,,,16,0,1,,,0,,,79,58
201220,note_off,,,,,100,0,1,,,0,,,79,64
201240,note_on,,,,,20,0,1,,,0,,,76,48
201330,note_off,,,,,90,0,1,,,0,,,76,64
201360,note_on,,,,,30,0,1,,,0,,,72,29
201360,note_off,,,,,480,0,2,,,0,,,60,64
201360,note_off,,,,,0,0,2,,,0,,,64,64
201450,note_off,,,,,90,0,1,,,0,,,72,64
201570,note_on,,,,,120,0,1,,,0,,,93,55
201570,control_change,,,,,0,0,1,,,0,7,56,,
201600,note_on,,,,,0,0,1,,,0,,,91,60
201600,note_off,,,,,30,0,1,,,0,,,93,64
201600,note_on,,,,,240,0,2,,,0,,,47,72
201636,control_change,,,,,36,0,1,,,0,7,57,,
201704,control_change,,,,,68,0,1,,,0,7,58,,
201720,note_on,,,,,0,0,1,,,0,,,90,52
201720,note_off,,,,,16,0,1,,,0,,,91,64
201772,control_change,,,,,52,0,1,,,0,7,59,,
201840,note_on,,,,,0,0,1,,,0,,,91,58
201840,control_change,,,,,0,0,1,,,0,7,60,,
201840,note_off,,,,,68,0,1,,,0,,,90,64
201840,note_off,,,,,240,0,2,,,0,,,47,64
201840,note_on,,,,,0,0,2,,,0,,,55,52
201906,control_change,,,,,66,0,1,,,0,7,61,,
201960,note_on,,,,,0,0,1,,,0,,,90,65
201960,note_off,,,,,54,0,1,,,0,,,91,64
201974,control_change,,,,,14,0,1,,,0,7,62,,
202042,control_change,,,,,68,0,1,,,0,7,63,,
202080,note_on,,,,,0,0,2,,,0,,,62,65
202080,note_off,,,,,240,0,2,,,0,,,55,64
202080,note_on,,,,,0,0,1,,,0,,,91,72
202080,note_off,,,,,38,0,1,,,0,,,90,64
202110,control_change,,,,,30,0,1,,,0,7,64,,
202176,control_change,,,,,66,0,1,,,0,7,65,,
202200,note_on,,,,,0,0,1,,,0,,,93,78
202200,note_off,,,,,24,0,1,,,0,,,91,64
202244,control_change,,,,,44,0,1,,,0,7,66,,
202290,note_off,,,,,46,0,1,,,0,,,93,64
202290,note_off,,,,,210,0,2,,,0,,,62,64
202312,control_change,,,,,22,0,1,,,0,7,67,,
202320,note_on,,,,,8,0,1,,,0,,,93,88
202320,note_on,,,,,30,0,2,,,0,,,48,79
202380,control_change,,,,,60,0,1,,,0,7,68,,
202440,note_off,,,,,60,0,1,,,0,,,93,64
202440,note_on,,,,,0,0,1,,,0,,,91,84
202446,control_change,,,,,6,0,1,,,0,7,69,,
202514,control_change,,,,,68,0,1,,,0,7,70,,
202544,note_off,,,,,30,0,1,,,0,,,91,64
202560,note_on,,,,,0,0,2,,,0,,,55,66
202560,note_off,,,,,240,0,2,,,0,,,48,64
202560,note_on,,,,,16,0,1,,,0,,,88,76
202582,control_change,,,,,22,0,1,,,0,7,71,,
202650,control_change,,,,,68,0,1,,,0,7,72,,
202660,note_off,,,,,10,0,1,,,0,,,88,64
202680,note_on,,,,,20,0,1,,,0,,,84,70
202716,control_change,,,,,36,0,1,,,0,7,73,,
202770,note_off,,,,,54,0,1,,,0,,,84,64
202784,control_change,,,,,14,0,1,,,0,7,74,,
202800,note_off,,,,,240,0,2,,,0,,,55,64
202800,note_on,,,,,0,0,2,,,0,,,64,67
202800,note_on,,,,,16,0,1,,,0,,,79,64
202852,control_change,,,,,52,0,1,,,0,7,75,,
202890,note_off,,,,,38,0,1,,,0,,,79,64
202920,control_change,,,,,30,0,1,,,0,7,76,,
202980,note_off,,,,,180,0,2,,,0,,,64,64
202986,control_change,,,,,66,0,1,,,0,7,77,,
203020,set_tempo,,,,,4260,1,0,291262,,,,,,
203040,set_tempo,,,,,20,1,0,312500,,,,,,
203040,note_on,,,,,54,0,1,,,0,,,77,58
203040,note_on,,,,,60,0,2,,,0,,,50,79
203040,note_on,,,,,0,0,1,,,0,,,79,58
203054,control_change,,,,,14,0,1,,,0,7,78,,
203122,control_change,,,,,68,0,1,,,0,7,79,,
203130,note_off,,,,,8,0,1,,,0,,,79,64
203130,note_off,,,,,0,0,1,,,0,,,77,64
203140,set_tempo,,,,,100,1,0,291262,,,,,,
203160,note_on,,,,,0,0,1,,,0,,,77,57
203160,note_on,,,,,30,0,1,,,0,,,79,57
203190,control_change,,,,,30,0,1,,,0,7,80,,
203220,note_off,,,,,0,0,1,,,0,,,79,64
203220,note_off,,,,,30,0,1,,,0,,,77,64
203220,set_tempo,,,,,80,1,0,269058,,,,,,
203256,control_change,,,,,36,0,1,,,0,7,81,,
203280,note_off,,,,,240,0,2,,,0,,,50,64
203280,note_on,,,,,0,0,2,,,0,,,59,71
203280,note_on,,,,,24,0,1,,,0,,,79,58
203280,note_on,,,,,0,0,1,,,0,,,77,58
203324,control_change,,,,,44,0,1,,,0,7,82,,
203340,note_off,,,,,16,0,1,,,0,,,77,64
203340,note_off,,,,,0,0,1,,,0,,,79,64
203392,control_change,,,,,52,0,1,,,0,7,83,,
203400,note_on,,,,,8,0,1,,,0,,,79,63
203400,note_on,,,,,0,0,1,,,0,,,77,63
203460,control_change,,,,,0,0,1,,,0,7,84,,
203460,note_off,,,,,0,0,1,,,0,,,79,64
203460,note_off,,,,,60,0,1,,,0,,,77,64
203520,note_on,,,,,0,0,1,,,0,,,77,67
203520,note_on,,,,,60,0,1,,,0,,,79,67
203520,note_on,,,,,0,0,2,,,0,,,65,77
203520,note_off,,,,,240,0,2,,,0,,,59,64
203526,control_change,,,,,6,0,1,,,0,7,85,,
203580,note_off,,,,,0,0,1,,,0,,,79,64
203580,note_off,,,,,54,0,1,,,0,,,77,64
203594,control_change,,,,,14,0,1,,,0,7,86,,
203640,note_on,,,,,46,0,1,,,0,,,79,72
203640,note_on,,,,,0,0,1,,,0,,,77,72
203662,control_change,,,,,22,0,1,,,0,7,87,,
203700,note_off,,,,,38,0,1,,,0,,,77,64
203700,note_off,,,,,0,0,1,,,0,,,79,64
203730,note_off,,,,,210,0,2,,,0,,,65,64
203730,control_change,,,,,30,0,1,,,0,7,88,,
203740,set_tempo,,,,,520,1,0,256410,,,,,,
203760,note_on,,,,,30,0,1,,,0,,,81,79
203760,note_on,,,,,0,0,1,,,0,,,76,79
203760,note_on,,,,,30,0,2,,,0,,,52,72
203796,control_change,,,,,36,0,1,,,0,7,89,,
203864,control_change,,,,,68,0,1,,,0,7,90,,
203880,note_on,,,,,0,0,1,,,0,,,79,83
203880,note_off,,,,,16,0,1,,,0,,,76,64
203880,note_off,,,,,0,0,1,,,0,,,81,64
203932,control_change,,,,,52,0,1,,,0,7,91,,
203984,note_off,,,,,52,0,1,,,0,,,79,64
204000,note_on,,,,,0,0,2,,,0,,,60,52
204000,note_off,,,,,240,0,2,,,0,,,52,64
204000,note_on,,,,,0,0,1,,,0,,,76,74
204000,control_change,,,,,16,0,1,,,0,7,92,,
204066,control_change,,,,,66,0,1,,,0,7,93,,
204090,note_off,,,,,24,0,1,,,0,,,76,64
204120,note_on,,,,,30,0,1,,,0,,,72,66
204134,control_change,,,,,14,0,1,,,0,7,94,,
204202,control_change,,,,,68,0,1,,,0,7,95,,
204210,note_off,,,,,8,0,1,,,0,,,72,64
204240,note_on,,,,,30,0,1,,,0,,,67,41
204240,note_on,,,,,0,0,2,,,0,,,64,42
204240,note_off,,,,,240,0,2,,,0,,,60,64
204270,control_change,,,,,30,0,1,,,0,7,96,,
204320,set_tempo,,,,,580,1,0,327869,,,,,,
204330,note_off,,,,,60,0,1,,,0,,,67,64
204380,set_tempo,,,,,60,1,0,258621,,,,,,
204420,note_off,,,,,180,0,2,,,0,,,64,64
204450,control_change,,,,,0,0,1,,,0,7,80,,
204450,note_on,,,,,120,0,1,,,0,,,90,45
204480,note_off,,,,,30,0,1,,,0,,,90,64
204480,note_on,,,,,0,0,1,,,0,,,88,49
204480,note_on,,,,,60,0,2,,,0,,,44,64
204600,note_off,,,,,120,0,1,,,0,,,88,64
204600,note_on,,,,,0,0,1,,,0,,,87,44
204720,note_on,,,,,0,0,1,,,0,,,88,47
204720,note_off,,,,,120,0,1,,,0,,,87,64
204720,note_off,,,,,240,0,2,,,0,,,44,64
204720,note_on,,,,,0,0,2,,,0,,,52,54
204840,note_on,,,,,0,0,1,,,0,,,87,50
204840,note_off,,,,,120,0,1,,,0,,,88,64
204960,note_on,,,,,0,0,2,,,0,,,59,47
204960,note_off,,,,,240,0,2,,,0,,,52,64
204960,note_on,,,,,0,0,1,,,0,,,88,53
204960,note_off,,,,,120,0,1,,,0,,,87,64
205080,note_on,,,,,0,0,1,,,0,,,90,57
205080,note_off,,,,,120,0,1,,,0,,,88,64
205170,note_off,,,,,90,0,1,,,0,,,90,64
205170,note_off,,,,,210,0,2,,,0,,,59,64
205200,note_on,,,,,30,0,1,,,0,,,90,61
205200,note_on,,,,,30,0,2,,,0,,,45,62
205320,note_off,,,,,120,0,1,,,0,,,90,64
205320,note_on,,,,,0,0,1,,,0,,,88,61
205424,note_off,,,,,104,0,1,,,0,,,88,64
205440,note_off,,,,,240,0,2,,,0,,,45,64
205440,note_on,,,,,16,0,1,,,0,,,85,57
205440,note_on,,,,,0,0,2,,,0,,,52,50
205540,note_off,,,,,100,0,1,,,0,,,85,64
205560,note_on,,,,,20,0,1,,,0,,,81,54
205650,note_off,,,,,90,0,1,,,0,,,81,64
205680,note_on,,,,,30,0,1,,,0,,,76,46
205680,note_off,,,,,240,0,2,,,0,,,52,64
205680,note_on,,,,,0,0,2,,,0,,,61,46
205770,note_off,,,,,90,0,1,,,0,,,76,64
205860,note_off,,,,,180,0,2,,,0,,,61,64
205900,set_tempo,,,,,1520,1,0,288462,,,,,,
205920,set_tempo,,,,,20,1,0,320856,,,,,,
205920,note_on,,,,,60,0,2,,,0,,,47,59
205920,note_on,,,,,0,0,1,,,0,,,76,38
205920,note_on,,,,,150,0,1,,,0,,,74,38
206010,note_off,,,,,0,0,1,,,0,,,74,64
206010,note_off,,,,,90,0,1,,,0,,,76,64
206020,set_tempo,,,,,100,1,0,263158,,,,,,
206040,note_on,,,,,30,0,1,,,0,,,76,33
206040,note_on,,,,,0,0,1,,,0,,,74,33
206100,note_off,,,,,60,0,1,,,0,,,74,64
206100,note_off,,,,,0,0,1,,,0,,,76,64
206160,note_off,,,,,240,0,2,,,0,,,47,64
206160,note_on,,,,,0,0,2,,,0,,,56,56
206160,note_on,,,,,60,0,1,,,0,,,76,38
206160,note_on,,,,,0,0,1,,,0,,,74,38
206220,note_off,,,,,0,0,1,,,0,,,76,64
206220,note_off,,,,,60,0,1,,,0,,,74,64
206280,note_on,,,,,60,0,1,,,0,,,76,42
206280,note_on,,,,,0,0,1,,,0,,,74,42
206340,note_off,,,,,0,0,1,,,0,,,76,64
206340,note_off,,,,,60,0,1,,,0,,,74,64
206400,note_on,,,,,0,0,1,,,0,,,74,46
206400,note_on,,,,,60,0,1,,,0,,,76,46
206400,note_off,,,,,240,0,2,,,0,,,56,64
206400,note_on,,,,,0,0,2,,,0,,,62,42
206460,note_off,,,,,0,0,1,,,0,,,76,64
206460,note_off,,,,,60,0,1,,,0,,,74,64
206520,note_on,,,,,60,0,1,,,0,,,76,50
206520,note_on,,,,,0,0,1,,,0,,,74,50
206580,note_off,,,,,60,0,1,,,0,,,74,64
206580,note_off,,,,,0,0,1,,,0,,,76,64
206610,note_off,,,,,210,0,2,,,0,,,62,64
206640,note_on,,,,,60,0,1,,,0,,,78,54
206640,note_on,,,,,0,0,1,,,0,,,73,54
206640,note_on,,,,,30,0,2,,,0,,,49,52
206740,set_tempo,,,,,720,1,0,269058,,,,,,
206760,note_off,,,,,120,0,1,,,0,,,73,64
206760,note_off,,,,,0,0,1,,,0,,,78,64
206760,note_on,,,,,0,0,1,,,0,,,76,45
206760,set_tempo,,,,,20,1,0,270270,,,,,,
206800,set_tempo,,,,,40,1,0,273973,,,,,,
206820,set_tempo,,,,,20,1,0,276498,,,,,,
206860,set_tempo,,,,,40,1,0,279070,,,,,,
206864,note_off,,,,,104,0,1,,,0,,,76,64
206880,note_on,,,,,16,0,1,,,0,,,73,37
206880,note_off,,,,,240,0,2,,,0,,,49,64
206880,set_tempo,,,,,20,1,0,280374,,,,,,
206880,note_on,,,,,0,0,2,,,0,,,57,52
206900,set_tempo,,,,,20,1,0,284360,,,,,,
206920,set_tempo,,,,,20,1,0,287081,,,,,,
206960,set_tempo,,,,,40,1,0,288462,,,,,,
206970,note_off,,,,,90,0,1,,,0,,,73,64
206980,set_tempo,,,,,20,1,0,297030,,,,,,
207000,set_tempo,,,,,20,1,0,298507,,,,,,
207000,note_on,,,,,30,0,1,,,0,,,69,33
207040,set_tempo,,,,,40,1,0,303030,,,,,,
207060,set_tempo,,,,,20,1,0,304569,,,,,,
207080,set_tempo,,,,,20,1,0,307692,,,,,,
207090,note_off,,,,,90,0,1,,,0,,,69,64
207120,note_on,,,,,30,0,1,,,0,,,64,27
207120,note_on,,,,,0,0,2,,,0,,,61,42
207120,note_off,,,,,240,0,2,,,0,,,57,64
207120,set_tempo,,,,,40,1,0,310881,,,,,,
207140,set_tempo,,,,,20,1,0,314136,,,,,,
207160,set_tempo,,,,,20,1,0,319149,,,,,,
207200,set_tempo,,,,,40,1,0,324324,,,,,,
207210,note_off,,,,,90,0,1,,,0,,,64,64
207220,set_tempo,,,,,20,1,0,329670,,,,,,
207240,set_tempo,,,,,20,1,0,333333,,,,,,
207280,set_tempo,,,,,40,1,0,337079,,,,,,
207300,note_off,,,,,180,0,2,,,0,,,61,64
207300,set_tempo,,,,,20,1,0,425532,,,,,,
207360,note_on,,,,,150,0,1,,,0,,,79,92
207380,note_on,,,,,20,0,1,,,0,,,81,94
207390,note_on,,,,,10,0,1,,,0,,,88,94
207390,set_tempo,,,,,90,1,0,258621,,,,,,
207400,note_on,,,,,10,0,1,,,0,,,85,94
207480,note_off,,,,,80,0,1,,,0,,,79,64
207500,note_off,,,,,20,0,1,,,0,,,81,64
207510,note_off,,,,,10,0,1,,,0,,,88,64
207520,note_off,,,,,10,0,1,,,0,,,85,64
207600,note_on,,,,,80,0,1,,,0,,,67,68
207600,note_on,,,,,0,0,1,,,0,,,73,68
207600,note_on,,,,,0,0,1,,,0,,,69,68
207600,note_on,,,,,0,0,1,,,0,,,76,68
207720,note_off,,,,,0,0,1,,,0,,,69,64
207720,note_off,,,,,0,0,1,,,0,,,67,64
207720,note_off,,,,,0,0,1,,,0,,,73,64
207720,note_off,,,,,120,0,1,,,0,,,76,64
207840,note_on,,,,,0,0,2,,,0,,,61,86
207840,note_on,,,,,540,0,2,,,0,,,64,86
207840,note_on,,,,,0,0,2,,,0,,,57,86
207960,note_off,,,,,0,0,2,,,0,,,64,64
207960,note_off,,,,,120,0,2,,,0,,,57,64
207960,note_off,,,,,0,0,2,,,0,,,61,64
208080,note_on,,,,,120,0,2,,,0,,,62,110
208080,note_on,,,,,0,0,2,,,0,,,57,110
208080,note_on,,,,,0,0,2,,,0,,,50,110
208200,set_tempo,,,,,810,1,0,259740,,,,,,
208260,set_tempo,,,,,60,1,0,260870,,,,,,
208260,note_off,,,,,0,0,2,,,0,,,57,64
208260,note_off,,,,,180,0,2,,,0,,,50,64
208260,note_off,,,,,0,0,2,,,0,,,62,64
208320,note_on,,,,,600,0,1,,,0,,,78,72
208320,note_on,,,,,0,0,1,,,0,,,69,72
208320,note_on,,,,,0,0,1,,,0,,,74,72
208320,note_on,,,,,0,0,1,,,0,,,66,72
208320,set_tempo,,,,,60,1,0,263158,,,,,,
208340,set_tempo,,,,,20,1,0,265487,,,,,,
208400,set_tempo,,,,,60,1,0,269058,,,,,,
208420,set_tempo,,,,,20,1,0,270270,,,,,,
208440,set_tempo,,,,,20,1,0,271493,,,,,,
208440,note_off,,,,,0,0,1,,,0,,,69,64
208440,note_off,,,,,0,0,1,,,0,,,74,64
208440,note_off,,,,,120,0,1,,,0,,,66,64
208440,note_off,,,,,0,0,1,,,0,,,78,64
208480,set_tempo,,,,,40,1,0,273973,,,,,,
208500,set_tempo,,,,,20,1,0,275229,,,,,,
208520,set_tempo,,,,,20,1,0,276498,,,,,,
208540,set_tempo,,,,,20,1,0,279070,,,,,,
208560,note_on,,,,,120,0,1,,,0,,,81,82
208580,set_tempo,,,,,40,1,0,281690,,,,,,
208580,note_on,,,,,20,0,1,,,0,,,86,82
208600,note_on,,,,,20,0,1,,,0,,,90,82
208620,set_tempo,,,,,40,1,0,284360,,,,,,
208620,note_on,,,,,20,0,1,,,0,,,93,82
208680,note_off,,,,,60,0,1,,,0,,,81,64
208700,note_off,,,,,20,0,1,,,0,,,86,64
208720,note_off,,,,,20,0,1,,,0,,,90,64
208720,set_tempo,,,,,100,1,0,333333,,,,,,
208740,note_off,,,,,20,0,1,,,0,,,93,64
208800,note_on,,,,,0,0,2,,,0,,,57,58
208800,note_on,,,,,540,0,2,,,0,,,64,58
208800,note_on,,,,,0,0,2,,,0,,,61,58
208800,note_on,,,,,0,0,2,,,0,,,52,58
208800,note_on,,,,,60,0,1,,,0,,,100,57
208800,set_tempo,,,,,80,1,0,256410,,,,,,
208860,note_on,,,,,0,0,1,,,0,,,97,53
208860,note_off,,,,,60,0,1,,,0,,,100,64
208900,set_tempo,,,,,100,1,0,259740,,,,,,
208920,note_on,,,,,0,0,1,,,0,,,93,44
208920,note_off,,,,,60,0,1,,,0,,,97,64
208980,note_off,,,,,180,0,2,,,0,,,52,64
208980,note_off,,,,,0,0,2,,,0,,,61,64
208980,note_off,,,,,0,0,2,,,0,,,57,64
208980,note_off,,,,,0,0,2,,,0,,,64,64
208980,note_off,,,,,60,0,1,,,0,,,93,64
208980,set_tempo,,,,,80,1,0,260870,,,,,,
209000,set_tempo,,,,,20,1,0,263158,,,,,,
209040,note_on,,,,,0,0,2,,,0,,,52,39
209040,note_on,,,,,0,0,2,,,0,,,57,39
209040,note_on,,,,,0,0,2,,,0,,,61,39
209040,note_on,,,,,60,0,2,,,0,,,64,39
209040,set_tempo,,,,,40,1,0,264317,,,,,,
209040,note_on,,,,,60,0,1,,,0,,,97,49
209080,set_tempo,,,,,40,1,0,265487,,,,,,
209100,note_off,,,,,60,0,1,,,0,,,97,64
209100,note_on,,,,,0,0,1,,,0,,,93,41
209120,set_tempo,,,,,40,1,0,267857,,,,,,
209140,set_tempo,,,,,20,1,0,269058,,,,,,
209160,note_on,,,,,0,0,1,,,0,,,88,37
209160,note_off,,,,,60,0,1,,,0,,,93,64
209180,set_tempo,,,,,40,1,0,267857,,,,,,
209220,note_off,,,,,60,0,1,,,0,,,88,64
209280,note_on,,,,,60,0,1,,,0,,,93,40
209280,note_off,,,,,240,0,2,,,0,,,52,64
209280,note_off,,,,,0,0,2,,,0,,,57,64
209280,note_off,,,,,0,0,2,,,0,,,61,64
209280,note_off,,,,,0,0,2,,,0,,,64,64
209280,set_tempo,,,,,100,1,0,269058,,,,,,
209300,set_tempo,,,,,20,1,0,270270,,,,,,
209320,set_tempo,,,,,20,1,0,271493,,,,,,
209340,note_on,,,,,0,0,1,,,0,,,88,38
209340,note_off,,,,,60,0,1,,,0,,,93,64
209400,note_on,,,,,0,0,1,,,0,,,85,31
209400,note_off,,,,,60,0,1,,,0,,,88,64
209440,set_tempo,,,,,120,1,0,273973,,,,,,
209460,set_tempo,,,,,20,1,0,275229,,,,,,
209460,note_off,,,,,60,0,1,,,0,,,85,64
209520,note_on,,,,,240,0,2,,,0,,,64,56
209520,note_on,,,,,0,0,2,,,0,,,62,56
209520,note_on,,,,,0,0,2,,,0,,,59,56
209520,note_on,,,,,0,0,2,,,0,,,52,56
209520,note_on,,,,,60,0,1,,,0,,,88,44
209520,set_tempo,,,,,60,1,0,279070,,,,,,
209560,set_tempo,,,,,40,1,0,280374,,,,,,
209580,note_off,,,,,60,0,1,,,0,,,88,64
209580,note_on,,,,,0,0,1,,,0,,,86,41
209600,set_tempo,,,,,40,1,0,281690,,,,,,
209620,set_tempo,,,,,20,1,0,284360,,,,,,
209640,note_on,,,,,0,0,1,,,0,,,83,35
209640,note_off,,,,,60,0,1,,,0,,,86,64
209660,set_tempo,,,,,40,1,0,287081,,,,,,
209680,set_tempo,,,,,20,1,0,298507,,,,,,
209700,note_off,,,,,0,0,2,,,0,,,62,64
209700,note_off,,,,,0,0,2,,,0,,,64,64
209700,note_off,,,,,60,0,1,,,0,,,83,64
209700,note_off,,,,,180,0,2,,,0,,,52,64
209700,note_off,,,,,0,0,2,,,0,,,59,64
209720,set_tempo,,,,,40,1,0,300000,,,,,,
209760,note_on,,,,,0,0,2,,,0,,,52,40
209760,note_on,,,,,60,0,1,,,0,,,86,36
209760,note_on,,,,,0,0,2,,,0,,,59,40
209760,note_on,,,,,0,0,2,,,0,,,62,40
209760,note_on,,,,,60,0,2,,,0,,,64,40
209760,set_tempo,,,,,40,1,0,304569,,,,,,
209820,set_tempo,,,,,60,1,0,307692,,,,,,
209820,note_off,,,,,60,0,1,,,0,,,86,64
209820,note_on,,,,,0,0,1,,,0,,,83,33
209840,set_tempo,,,,,20,1,0,310881,,,,,,
209860,set_tempo,,,,,20,1,0,314136,,,,,,
209880,set_tempo,,,,,20,1,0,317460,,,,,,
209880,note_off,,,,,60,0,1,,,0,,,83,64
209880,note_on,,,,,0,0,1,,,0,,,80,28
209900,set_tempo,,,,,20,1,0,319149,,,,,,
209920,set_tempo,,,,,20,1,0,324324,,,,,,
209940,note_off,,,,,60,0,1,,,0,,,80,64
209940,set_tempo,,,,,20,1,0,327869,,,,,,
209960,set_tempo,,,,,20,1,0,329670,,,,,,
209980,set_tempo,,,,,20,1,0,335196,,,,,,
210000,note_on,,,,,60,0,1,,,0,,,83,33
210000,set_tempo,,,,,20,1,0,340909,,,,,,
210000,note_off,,,,,240,0,2,,,0,,,52,64
210000,note_off,,,,,0,0,2,,,0,,,62,64
210000,note_off,,,,,0,0,2,,,0,,,64,64
210000,note_off,,,,,0,0,2,,,0,,,59,64
210020,set_tempo,,,,,20,1,0,342857,,,,,,
210060,note_on,,,,,0,0,1,,,0,,,80,28
210060,note_off,,,,,60,0,1,,,0,,,83,64
210060,set_tempo,,,,,40,1,0,363636,,,,,,
210080,set_tempo,,,,,20,1,0,372671,,,,,,
210100,set_tempo,,,,,20,1,0,389610,,,,,,
210120,note_on,,,,,0,0,1,,,0,,,76,22
210120,note_off,,,,,60,0,1,,,0,,,80,64
210140,set_tempo,,,,,40,1,0,402685,,,,,,
210160,set_tempo,,,,,20,1,0,431655,,,,,,
210180,note_off,,,,,60,0,1,,,0,,,76,64
210180,set_tempo,,,,,20,1,0,444444,,,,,,
210240,note_on,,,,,60,0,1,,,0,,,67,86
210260,set_tempo,,,,,80,1,0,256410,,,,,,
210260,note_on,,,,,20,0,1,,,0,,,69,88
210270,note_on,,,,,10,0,1,,,0,,,76,90
210280,note_on,,,,,10,0,1,,,0,,,73,92
210360,note_off,,,,,80,0,1,,,0,,,67,64
210380,note_off,,,,,20,0,1,,,0,,,69,64
210390,note_off,,,,,10,0,1,,,0,,,76,64
210400,note_off,,,,,10,0,1,,,0,,,73,64
210480,note_on,,,,,0,0,1,,,0,,,64,64
210480,note_on,,,,,0,0,1,,,0,,,61,64
210480,note_on,,,,,0,0,1,,,0,,,57,64
210480,note_on,,,,,80,0,1,,,0,,,55,64
210600,note_off,,,,,0,0,1,,,0,,,61,64
210600,note_off,,,,,120,0,1,,,0,,,64,64
210600,note_off,,,,,0,0,1,,,0,,,55,64
210600,note_off,,,,,0,0,1,,,0,,,57,64
210720,note_on,,,,,720,0,2,,,0,,,52,94
210720,note_on,,,,,0,0,2,,,0,,,45,94
210720,note_on,,,,,0,0,2,,,0,,,49,94
210840,note_off,,,,,0,0,2,,,0,,,49,64
210840,note_off,,,,,120,0,2,,,0,,,45,64
210840,note_off,,,,,0,0,2,,,0,,,52,64
210960,note_on,,,,,120,0,2,,,0,,,50,127
210960,note_on,,,,,0,0,2,,,0,,,45,127
210960,note_on,,,,,0,0,2,,,0,,,38,127
211140,note_off,,,,,180,0,2,,,0,,,38,64
211140,note_off,,,,,0,0,2,,,0,,,45,64
211140,note_off,,,,,0,0,2,,,0,,,50,64
211200,note_on,,,,,0,0,1,,,0,,,62,65
211200,note_on,,,,,0,0,1,,,0,,,57,65
211200,note_on,,,,,0,0,1,,,0,,,54,65
211200,note_on,,,,,600,0,1,,,0,,,66,65
211260,set_tempo,,,,,1000,1,0,271493,,,,,,
211320,note_off,,,,,0,0,1,,,0,,,66,64
211320,note_off,,,,,120,0,1,,,0,,,54,64
211320,note_off,,,,,0,0,1,,,0,,,57,64
211320,note_off,,,,,0,0,1,,,0,,,62,64
211440,note_on,,,,,120,0,1,,,0,,,69,65
211460,note_on,,,,,20,0,1,,,0,,,74,68
211480,note_on,,,,,20,0,1,,,0,,,78,72
211500,note_on,,,,,20,0,1,,,0,,,81,73
211560,set_tempo,,,,,300,1,0,255319,,,,,,
211560,note_off,,,,,60,0,1,,,0,,,69,64
211580,note_off,,,,,20,0,1,,,0,,,74,64
211600,note_off,,,,,20,0,1,,,0,,,78,64
211600,set_tempo,,,,,40,1,0,571429,,,,,,
211620,note_off,,,,,20,0,1,,,0,,,81,64
211680,note_on,,,,,60,0,1,,,0,,,88,57
211680,set_tempo,,,,,80,1,0,294118,,,,,,
211680,note_on,,,,,540,0,2,,,0,,,64,58
211680,note_on,,,,,0,0,2,,,0,,,61,58
211680,note_on,,,,,0,0,2,,,0,,,57,58
211680,note_on,,,,,0,0,2,,,0,,,52,58
211740,note_on,,,,,0,0,1,,,0,,,85,53
211740,note_off,,,,,60,0,1,,,0,,,88,64
211800,note_on,,,,,0,0,1,,,0,,,81,44
211800,note_off,,,,,60,0,1,,,0,,,85,64
211820,set_tempo,,,,,140,1,0,291262,,,,,,
211860,note_off,,,,,180,0,2,,,0,,,52,64
211860,note_off,,,,,0,0,2,,,0,,,57,64
211860,note_off,,,,,0,0,2,,,0,,,61,64
211860,note_off,,,,,0,0,2,,,0,,,64,64
211860,note_off,,,,,60,0,1,,,0,,,81,64
211860,set_tempo,,,,,40,1,0,287081,,,,,,
211920,set_tempo,,,,,60,1,0,284360,,,,,,
211920,note_on,,,,,0,0,2,,,0,,,52,39
211920,note_on,,,,,0,0,2,,,0,,,57,39
211920,note_on,,,,,0,0,2,,,0,,,61,39
211920,note_on,,,,,60,0,2,,,0,,,64,39
211920,note_on,,,,,60,0,1,,,0,,,85,49
211960,set_tempo,,,,,40,1,0,281690,,,,,,
211980,note_off,,,,,60,0,1,,,0,,,85,64
211980,note_on,,,,,0,0,1,,,0,,,81,41
212000,set_tempo,,,,,40,1,0,280374,,,,,,
212040,note_off,,,,,60,0,1,,,0,,,81,64
212040,note_on,,,,,0,0,1,,,0,,,76,37
212060,set_tempo,,,,,60,1,0,279070,,,,,,
212100,note_off,,,,,60,0,1,,,0,,,76,64
212120,set_tempo,,,,,60,1,0,276498,,,,,,
212140,set_tempo,,,,,20,1,0,275229,,,,,,
212160,note_off,,,,,240,0,2,,,0,,,52,64
212160,note_off,,,,,0,0,2,,,0,,,57,64
212160,note_off,,,,,0,0,2,,,0,,,61,64
212160,note_off,,,,,0,0,2,,,0,,,64,64
212160,note_on,,,,,60,0,1,,,0,,,81,40
212200,set_tempo,,,,,60,1,0,273973,,,,,,
212220,note_off,,,,,60,0,1,,,0,,,81,64
212220,note_on,,,,,0,0,1,,,0,,,76,38
212280,note_off,,,,,60,0,1,,,0,,,76,64
212280,note_on,,,,,0,0,1,,,0,,,73,31
212340,note_off,,,,,60,0,1,,,0,,,73,64
212400,note_on,,,,,60,0,1,,,0,,,76,43
212400,note_on,,,,,240,0,2,,,0,,,64,56
212400,note_on,,,,,0,0,2,,,0,,,62,56
212400,note_on,,,,,0,0,2,,,0,,,59,56
212400,note_on,,,,,0,0,2,,,0,,,52,56
212460,note_on,,,,,0,0,1,,,0,,,74,39
212460,note_off,,,,,60,0,1,,,0,,,76,64
212480,set_tempo,,,,,280,1,0,271493,,,,,,
212520,note_off,,,,,60,0,1,,,0,,,74,64
212520,note_on,,,,,0,0,1,,,0,,,71,33
212580,note_off,,,,,180,0,2,,,0,,,52,64
212580,note_off,,,,,0,0,2,,,0,,,62,64
212580,note_off,,,,,0,0,2,,,0,,,59,64
212580,note_off,,,,,60,0,1,,,0,,,71,64
212580,note_off,,,,,0,0,2,,,0,,,64,64
212600,set_tempo,,,,,120,1,0,270270,,,,,,
212640,note_on,,,,,60,0,1,,,0,,,74,47
212640,note_on,,,,,60,0,2,,,0,,,64,40
212640,note_on,,,,,0,0,2,,,0,,,59,40
212640,note_on,,,,,0,0,2,,,0,,,52,40
212640,note_on,,,,,0,0,2,,,0,,,62,40
212700,note_off,,,,,60,0,1,,,0,,,74,64
212700,note_on,,,,,0,0,1,,,0,,,71,37
212720,set_tempo,,,,,120,1,0,271493,,,,,,
212740,set_tempo,,,,,20,1,0,273973,,,,,,
212760,note_off,,,,,60,0,1,,,0,,,71,64
212760,note_on,,,,,0,0,1,,,0,,,68,36
212800,set_tempo,,,,,60,1,0,275229,,,,,,
212820,set_tempo,,,,,20,1,0,276498,,,,,,
212820,note_off,,,,,60,0,1,,,0,,,68,64
212880,note_on,,,,,60,0,1,,,0,,,71,52
212880,note_off,,,,,240,0,2,,,0,,,52,64
212880,note_off,,,,,0,0,2,,,0,,,59,64
212880,note_off,,,,,0,0,2,,,0,,,62,64
212880,note_off,,,,,0,0,2,,,0,,,64,64
212940,set_tempo,,,,,120,1,0,279070,,,,,,
212940,note_off,,,,,60,0,1,,,0,,,71,64
212940,note_on,,,,,0,0,1,,,0,,,68,47
212960,set_tempo,,,,,20,1,0,280374,,,,,,
212980,set_tempo,,,,,20,1,0,281690,,,,,,
213000,note_on,,,,,0,0,1,,,0,,,64,43
213000,note_off,,,,,60,0,1,,,0,,,68,64
213060,set_tempo,,,,,80,1,0,363636,,,,,,
213060,end_of_track,,,,,0,1,1,,,,,,,
213060,note_off,,,,,60,0,1,,,0,,,64,64
213120,note_on,,,,,0,0,2,,,0,,,57,101
213120,note_on,,,,,240,0,2,,,0,,,69,101
213140,set_tempo,,,,,80,1,0,288462,,,,,,
213180,note_off,,,,,60,0,2,,,0,,,57,64
213180,note_off,,,,,0,0,2,,,0,,,69,64
213180,note_on,,,,,0,0,2,,,0,,,64,101
213180,note_on,,,,,0,0,2,,,0,,,52,101
213240,note_off,,,,,60,0,2,,,0,,,52,64
213240,set_tempo,,,,,100,1,0,287081,,,,,,
213240,note_on,,,,,0,0,2,,,0,,,49,92
213240,note_on,,,,,0,0,2,,,0,,,61,92
213240,note_off,,,,,0,0,2,,,0,,,64,64
213260,set_tempo,,,,,20,1,0,288462,,,,,,
213300,note_off,,,,,0,0,2,,,0,,,61,64
213300,note_off,,,,,60,0,2,,,0,,,49,64
213360,note_on,,,,,0,0,2,,,0,,,52,101
213360,note_on,,,,,60,0,2,,,0,,,64,101
213380,set_tempo,,,,,120,1,0,291262,,,,,,
213420,note_off,,,,,60,0,2,,,0,,,52,64
213420,note_off,,,,,0,0,2,,,0,,,64,64
213420,note_on,,,,,0,0,2,,,0,,,61,101
213420,note_on,,,,,0,0,2,,,0,,,49,101
213480,note_off,,,,,0,0,2,,,0,,,61,64
213480,note_on,,,,,0,0,2,,,0,,,45,99
213480,note_on,,,,,0,0,2,,,0,,,57,99
213480,note_off,,,,,60,0,2,,,0,,,49,64
213500,set_tempo,,,,,120,1,0,294118,,,,,,
213540,note_off,,,,,60,0,2,,,0,,,45,64
213540,set_tempo,,,,,40,1,0,298507,,,,,,
213540,note_off,,,,,0,0,2,,,0,,,57,64
213600,note_on,,,,,60,0,2,,,0,,,57,101
213600,note_on,,,,,0,0,2,,,0,,,45,101
213660,note_on,,,,,0,0,2,,,0,,,52,101
213660,note_off,,,,,60,0,2,,,0,,,45,64
213660,note_on,,,,,0,0,2,,,0,,,40,101
213660,note_off,,,,,0,0,2,,,0,,,57,64
213720,note_off,,,,,60,0,2,,,0,,,40,64
213720,note_on,,,,,0,0,2,,,0,,,37,101
213720,note_on,,,,,0,0,2,,,0,,,49,101
213720,note_off,,,,,0,0,2,,,0,,,52,64
213740,set_tempo,,,,,200,1,0,416667,,,,,,
213780,note_off,,,,,0,0,2,,,0,,,49,64
213780,note_off,,,,,60,0,2,,,0,,,37,64
213840,note_on,,,,,0,0,2,,,0,,,33,101
213840,note_on,,,,,60,0,2,,,0,,,45,101
213840,end_of_track,,,,,0,1,0,,,,,,,
213840,set_tempo,,,,,100,1,0,389610,,,,,,
214020,note_off,,,,,0,0,2,,,0,,,45,64
214020,note_off,,,,,180,0,2,,,0,,,33,64
214020,end_of_track,,,,,0,1,2,,,,,,,
