tick,type,numerator,denominator,clocks_per_click,notated_32nd_notes_per_beat,time,meta,track,tempo,program,channel,control,value,note,velocity
0,time_signature,4,4,24,8,0,1,0,,,,,,,
0,control_change,,,,,0,0,1,,,0,7,80,,
0,control_change,,,,,0,0,1,,,0,91,96,,
0,note_on,,,,,0,0,1,,,0,,,69,112
0,note_on,,,,,0,0,1,,,0,,,61,112
0,note_on,,,,,0,0,1,,,0,,,57,112
0,track_name,,,,,0,1,8,,,,,,,
0,track_name,,,,,0,1,2,,,,,,,
0,program_change,,,,,0,0,2,,0,0,,,,
0,control_change,,,,,0,0,2,,,0,7,80,,
0,program_change,,,,,0,0,1,,0,0,,,,
0,note_on,,,,,0,0,2,,,0,,,45,113
0,end_of_track,,,,,0,1,3,,,,,,,
0,track_name,,,,,0,1,4,,,,,,,
0,end_of_track,,,,,0,1,4,,,,,,,
0,track_name,,,,,0,1,5,,,,,,,
0,end_of_track,,,,,0,1,5,,,,,,,
0,track_name,,,,,0,1,6,,,,,,,
0,end_of_track,,,,,0,1,6,,,,,,,
0,track_name,,,,,0,1,7,,,,,,,
0,end_of_track,,,,,0,1,7,,,,,,,
0,note_on,,,,,0,0,2,,,0,,,49,113
0,track_name,,,,,0,1,1,,,,,,,
0,end_of_track,,,,,0,1,8,,,,,,,
0,set_tempo,,,,,0,1,0,461538,,,,,,
0,marker,,,,,0,1,0,,,,,,,
180,note_off,,,,,180,0,2,,,0,,,49,64
180,note_off,,,,,0,0,2,,,0,,,45,64
240,note_on,,,,,60,0,2,,,0,,,33,127
420,note_off,,,,,180,0,2,,,0,,,33,64
840,note_on,,,,,420,0,2,,,0,,,45,103
840,note_on,,,,,0,0,2,,,0,,,49,103
900,note_off,,,,,0,0,1,,,0,,,69,64
900,note_off,,,,,0,0,1,,,0,,,61,64
900,note_off,,,,,900,0,1,,,0,,,57,64
930,note_off,,,,,90,0,2,,,0,,,49,64
930,note_off,,,,,0,0,2,,,0,,,45,64
960,note_on,,,,,0,0,1,,,0,,,57,112
960,note_on,,,,,0,0,1,,,0,,,59,112
960,note_on,,,,,60,0,1,,,0,,,69,112
960,note_on,,,,,0,0,1,,,0,,,62,112
960,note_on,,,,,0,0,2,,,0,,,50,115
960,note_on,,,,,30,0,2,,,0,,,47,115
1140,note_off,,,,,180,0,2,,,0,,,50,64
1140,note_off,,,,,0,0,2,,,0,,,47,64
1200,note_on,,,,,60,0,2,,,0,,,33,127
1380,note_off,,,,,180,0,2,,,0,,,33,64
1800,note_on,,,,,0,0,2,,,0,,,50,100
1800,note_on,,,,,420,0,2,,,0,,,47,100
1860,note_off,,,,,0,0,1,,,0,,,69,64
1860,note_off,,,,,0,0,1,,,0,,,62,64
1860,note_off,,,,,0,0,1,,,0,,,59,64
1860,note_off,,,,,900,0,1,,,0,,,57,64
1890,note_off,,,,,90,0,2,,,0,,,50,64
1890,note_off,,,,,0,0,2,,,0,,,47,64
1920,note_on,,,,,0,0,1,,,0,,,57,115
1920,note_on,,,,,60,0,1,,,0,,,69,115
1920,note_on,,,,,0,0,1,,,0,,,61,115
1920,note_on,,,,,0,0,1,,,0,,,64,115
1920,note_on,,,,,0,0,2,,,0,,,52,111
1920,note_on,,,,,30,0,2,,,0,,,49,111
2100,note_off,,,,,0,0,2,,,0,,,49,64
2100,note_off,,,,,180,0,2,,,0,,,52,64
2140,set_tempo,,,,,2140,1,0,454545,,,,,,
2160,note_on,,,,,60,0,2,,,0,,,33,127
2340,note_off,,,,,0,0,1,,,0,,,69,64
2340,note_off,,,,,0,0,1,,,0,,,64,64
2340,note_off,,,,,0,0,1,,,0,,,61,64
2340,note_off,,,,,420,0,1,,,0,,,57,64
2340,note_off,,,,,180,0,2,,,0,,,33,64
2400,note_on,,,,,0,0,1,,,0,,,66,97
2400,note_on,,,,,0,0,1,,,0,,,57,97
2400,note_on,,,,,60,0,2,,,0,,,54,94
2400,note_on,,,,,0,0,2,,,0,,,50,94
2400,note_on,,,,,60,0,1,,,0,,,69,97
2400,note_on,,,,,0,0,1,,,0,,,62,97
2460,set_tempo,,,,,320,1,0,447761,,,,,,
2490,note_off,,,,,90,0,2,,,0,,,50,64
2490,note_off,,,,,0,0,2,,,0,,,54,64
2520,note_on,,,,,30,0,2,,,0,,,45,121
2610,note_off,,,,,90,0,2,,,0,,,45,64
2640,note_on,,,,,0,0,1,,,0,,,57,111
2640,note_on,,,,,0,0,2,,,0,,,55,103
2640,note_on,,,,,30,0,2,,,0,,,52,103
2640,note_off,,,,,240,0,1,,,0,,,57,64
2640,note_off,,,,,0,0,1,,,0,,,62,64
2640,note_off,,,,,0,0,1,,,0,,,66,64
2640,note_off,,,,,0,0,1,,,0,,,69,64
2640,note_on,,,,,0,0,1,,,0,,,69,111
2640,note_on,,,,,0,0,1,,,0,,,67,111
2640,note_on,,,,,0,0,1,,,0,,,64,111
2730,note_off,,,,,0,0,2,,,0,,,52,64
2730,note_off,,,,,90,0,2,,,0,,,55,64
2760,set_tempo,,,,,300,1,0,437956,,,,,,
2760,note_on,,,,,30,0,2,,,0,,,45,122
2850,note_off,,,,,90,0,2,,,0,,,45,64
2880,note_on,,,,,30,0,2,,,0,,,50,115
2880,note_on,,,,,0,0,2,,,0,,,54,115
2880,note_off,,,,,0,0,1,,,0,,,64,64
2880,note_off,,,,,0,0,1,,,0,,,67,64
2880,note_off,,,,,240,0,1,,,0,,,57,64
2880,note_off,,,,,0,0,1,,,0,,,69,64
2880,note_on,,,,,0,0,1,,,0,,,69,120
2880,note_on,,,,,0,0,1,,,0,,,62,120
2880,note_on,,,,,0,0,1,,,0,,,57,120
2880,set_tempo,,,,,120,1,0,447761,,,,,,
2880,note_on,,,,,0,0,1,,,0,,,66,120
3000,note_off,,,,,120,0,2,,,0,,,54,64
3000,note_off,,,,,0,0,2,,,0,,,50,64
3120,note_off,,,,,0,0,1,,,0,,,62,64
3120,note_on,,,,,0,0,1,,,0,,,64,91
3120,note_on,,,,,0,0,1,,,0,,,61,91
3120,note_on,,,,,0,0,1,,,0,,,57,91
3120,note_on,,,,,120,0,2,,,0,,,49,96
3120,note_on,,,,,0,0,2,,,0,,,52,96
3120,note_off,,,,,240,0,1,,,0,,,57,64
3120,note_on,,,,,0,0,1,,,0,,,69,91
3120,note_off,,,,,0,0,1,,,0,,,69,64
3120,note_off,,,,,0,0,1,,,0,,,66,64
3120,set_tempo,,,,,240,1,0,458015,,,,,,
3240,note_off,,,,,0,0,2,,,0,,,49,64
3240,note_off,,,,,120,0,2,,,0,,,52,64
3360,note_off,,,,,0,0,1,,,0,,,61,64
3360,note_on,,,,,0,0,2,,,0,,,49,88
3360,note_off,,,,,0,0,1,,,0,,,69,64
3360,note_on,,,,,0,0,1,,,0,,,69,85
3360,note_on,,,,,0,0,1,,,0,,,61,85
3360,note_on,,,,,0,0,1,,,0,,,57,85
3360,note_off,,,,,240,0,1,,,0,,,57,64
3360,set_tempo,,,,,240,1,0,480000,,,,,,
3360,note_off,,,,,0,0,1,,,0,,,64,64
3360,note_on,,,,,120,0,2,,,0,,,45,88
3464,note_off,,,,,104,0,2,,,0,,,49,64
3464,note_off,,,,,0,0,1,,,0,,,69,64
3464,note_off,,,,,0,0,1,,,0,,,61,64
3464,note_off,,,,,0,0,2,,,0,,,45,64
3464,note_off,,,,,104,0,1,,,0,,,57,64
3480,note_on,,,,,16,0,1,,,0,,,69,94
3480,note_on,,,,,0,0,1,,,0,,,59,94
3480,note_on,,,,,16,0,2,,,0,,,50,93
3480,note_on,,,,,0,0,2,,,0,,,47,93
3480,note_on,,,,,0,0,1,,,0,,,62,94
3584,note_off,,,,,0,0,1,,,0,,,62,64
3584,note_off,,,,,104,0,1,,,0,,,59,64
3584,note_off,,,,,0,0,1,,,0,,,69,64
3584,note_off,,,,,0,0,2,,,0,,,50,64
3584,note_off,,,,,104,0,2,,,0,,,47,64
3600,note_on,,,,,16,0,2,,,0,,,49,102
3600,set_tempo,,,,,240,1,0,500000,,,,,,
3600,note_on,,,,,0,0,2,,,0,,,45,102
3600,note_on,,,,,16,0,1,,,0,,,69,101
3600,note_on,,,,,0,0,1,,,0,,,61,101
3600,note_on,,,,,0,0,1,,,0,,,57,101
3704,note_off,,,,,0,0,2,,,0,,,49,64
3704,note_off,,,,,104,0,1,,,0,,,57,64
3704,note_off,,,,,0,0,1,,,0,,,61,64
3704,note_off,,,,,0,0,1,,,0,,,69,64
3704,note_off,,,,,104,0,2,,,0,,,45,64
3720,note_on,,,,,16,0,2,,,0,,,50,108
3720,note_on,,,,,0,0,1,,,0,,,59,110
3720,note_on,,,,,0,0,1,,,0,,,62,110
3720,note_on,,,,,16,0,1,,,0,,,69,110
3720,note_on,,,,,0,0,2,,,0,,,47,108
3780,set_tempo,,,,,180,1,0,550459,,,,,,
3824,note_off,,,,,0,0,1,,,0,,,69,64
3824,note_off,,,,,0,0,1,,,0,,,62,64
3824,note_off,,,,,104,0,1,,,0,,,59,64
3824,note_off,,,,,104,0,2,,,0,,,47,64
3824,note_off,,,,,0,0,2,,,0,,,50,64
3840,note_on,,,,,0,0,1,,,0,,,61,121
3840,note_on,,,,,0,0,1,,,0,,,64,121
3840,note_on,,,,,16,0,1,,,0,,,69,121
3840,note_on,,,,,16,0,2,,,0,,,52,120
3840,note_on,,,,,0,0,2,,,0,,,49,120
3860,set_tempo,,,,,80,1,0,487805,,,,,,
4320,note_off,,,,,0,0,2,,,0,,,52,64
4320,note_on,,,,,0,0,2,,,0,,,50,127
4320,note_on,,,,,0,0,2,,,0,,,54,127
4320,note_off,,,,,480,0,2,,,0,,,49,64
4320,note_off,,,,,0,0,1,,,0,,,64,64
4320,note_off,,,,,480,0,1,,,0,,,61,64
4320,note_off,,,,,0,0,1,,,0,,,69,64
4320,note_on,,,,,0,0,1,,,0,,,66,121
4320,note_on,,,,,0,0,1,,,0,,,62,121
4320,note_on,,,,,0,0,1,,,0,,,57,121
4320,note_on,,,,,0,0,1,,,0,,,69,121
4720,set_tempo,,,,,860,1,0,1224490,,,,,,
4800,note_off,,,,,480,0,1,,,0,,,57,64
4800,note_off,,,,,0,0,1,,,0,,,62,64
4800,note_off,,,,,0,0,1,,,0,,,66,64
4800,note_off,,,,,0,0,1,,,0,,,69,64
4800,note_on,,,,,0,0,1,,,0,,,57,112
4800,note_on,,,,,0,0,2,,,0,,,64,118
4800,note_on,,,,,0,0,2,,,0,,,62,118
4800,note_on,,,,,0,0,2,,,0,,,40,118
4800,note_on,,,,,0,0,2,,,0,,,47,118
4800,note_on,,,,,0,0,2,,,0,,,50,118
4800,note_on,,,,,0,0,2,,,0,,,52,118
4800,note_on,,,,,0,0,1,,,0,,,69,112
4800,note_off,,,,,0,0,2,,,0,,,50,64
4800,note_off,,,,,480,0,2,,,0,,,54,64
4820,set_tempo,,,,,100,1,0,491803,,,,,,
5020,set_tempo,,,,,200,1,0,594059,,,,,,
5040,note_on,,,,,0,0,1,,,0,,,56,85
5040,note_off,,,,,0,0,1,,,0,,,69,64
5040,note_off,,,,,240,0,1,,,0,,,57,64
5040,note_on,,,,,0,0,1,,,0,,,68,85
5140,set_tempo,,,,,120,1,0,714286,,,,,,
5160,note_off,,,,,0,0,1,,,0,,,68,64
5160,note_off,,,,,120,0,1,,,0,,,56,64
5160,note_on,,,,,0,0,1,,,0,,,54,78
5160,note_on,,,,,0,0,1,,,0,,,66,78
5280,note_off,,,,,0,0,1,,,0,,,66,64
5280,note_on,,,,,0,0,1,,,0,,,68,59
5280,note_on,,,,,0,0,1,,,0,,,56,59
5280,note_off,,,,,120,0,1,,,0,,,54,64
5320,set_tempo,,,,,180,1,0,895522,,,,,,
5700,set_tempo,,,,,380,1,0,1463415,,,,,,
5700,note_off,,,,,0,0,2,,,0,,,62,64
5700,note_off,,,,,0,0,2,,,0,,,40,64
5700,note_off,,,,,0,0,2,,,0,,,47,64
5700,note_off,,,,,0,0,2,,,0,,,50,64
5700,note_off,,,,,900,0,2,,,0,,,52,64
5700,note_off,,,,,0,0,2,,,0,,,64,64
5700,note_off,,,,,0,0,1,,,0,,,68,64
5700,note_off,,,,,420,0,1,,,0,,,56,64
5760,set_tempo,,,,,60,1,0,750000,,,,,,
5760,note_on,,,,,60,0,1,,,0,,,86,69
5780,set_tempo,,,,,20,1,0,625000,,,,,,
5800,set_tempo,,,,,20,1,0,517241,,,,,,
5832,note_off,,,,,72,0,1,,,0,,,86,64
5840,note_on,,,,,8,0,1,,,0,,,83,48
5880,set_tempo,,,,,80,1,0,483871,,,,,,
5912,note_off,,,,,72,0,1,,,0,,,83,64
5920,note_on,,,,,8,0,1,,,0,,,80,45
5980,set_tempo,,,,,100,1,0,472441,,,,,,
5992,note_off,,,,,72,0,1,,,0,,,80,64
6000,note_on,,,,,8,0,1,,,0,,,74,46
6072,note_off,,,,,72,0,1,,,0,,,74,64
6080,note_on,,,,,8,0,1,,,0,,,71,49
6152,note_off,,,,,72,0,1,,,0,,,71,64
6160,note_on,,,,,8,0,1,,,0,,,68,51
6180,set_tempo,,,,,200,1,0,465116,,,,,,
6232,note_off,,,,,72,0,1,,,0,,,68,64
6240,note_on,,,,,8,0,1,,,0,,,62,53
6312,note_off,,,,,72,0,1,,,0,,,62,64
6320,note_on,,,,,8,0,1,,,0,,,59,55
6392,note_off,,,,,72,0,1,,,0,,,59,64
6400,note_on,,,,,8,0,1,,,0,,,56,57
6472,note_off,,,,,72,0,1,,,0,,,56,64
6480,note_on,,,,,8,0,1,,,0,,,50,58
6560,note_off,,,,,80,0,1,,,0,,,50,64
6560,note_on,,,,,0,0,1,,,0,,,47,61
6560,set_tempo,,,,,380,1,0,461538,,,,,,
6640,note_off,,,,,80,0,1,,,0,,,47,64
6640,note_on,,,,,0,0,1,,,0,,,44,62
6720,set_tempo,,,,,160,1,0,447761,,,,,,
6720,note_on,,,,,1020,0,2,,,0,,,40,67
6720,note_off,,,,,80,0,1,,,0,,,44,64
6840,note_off,,,,,120,0,2,,,0,,,40,64
6960,note_on,,,,,120,0,2,,,0,,,52,61
6960,note_on,,,,,0,0,2,,,0,,,56,61
6960,note_on,,,,,240,0,1,,,0,,,74,63
6960,note_on,,,,,0,0,1,,,0,,,62,63
6960,note_on,,,,,0,0,1,,,0,,,68,63
7000,set_tempo,,,,,280,1,0,576923,,,,,,
7080,note_off,,,,,0,0,1,,,0,,,68,64
7080,note_off,,,,,0,0,1,,,0,,,74,64
7080,note_off,,,,,0,0,2,,,0,,,52,64
7080,note_off,,,,,120,0,2,,,0,,,56,64
7080,note_off,,,,,120,0,1,,,0,,,62,64
7200,note_on,,,,,120,0,1,,,0,,,74,74
7200,note_on,,,,,0,0,1,,,0,,,69,74
7200,set_tempo,,,,,200,1,0,461538,,,,,,
7200,note_on,,,,,0,0,1,,,0,,,62,74
7200,note_on,,,,,0,0,2,,,0,,,57,74
7200,note_on,,,,,120,0,2,,,0,,,53,74
7620,note_off,,,,,0,0,2,,,0,,,53,64
7620,note_off,,,,,420,0,2,,,0,,,57,64
7620,note_off,,,,,420,0,1,,,0,,,62,64
7620,note_off,,,,,0,0,1,,,0,,,69,64
7620,note_off,,,,,0,0,1,,,0,,,74,64
7680,set_tempo,,,,,480,1,0,517241,,,,,,
7680,note_on,,,,,60,0,1,,,0,,,86,70
7740,set_tempo,,,,,60,1,0,512821,,,,,,
7752,note_off,,,,,72,0,1,,,0,,,86,64
7760,note_on,,,,,8,0,1,,,0,,,81,58
7800,set_tempo,,,,,60,1,0,483871,,,,,,
7832,note_off,,,,,72,0,1,,,0,,,81,64
7840,note_on,,,,,8,0,1,,,0,,,77,52
7900,set_tempo,,,,,100,1,0,472441,,,,,,
7912,note_off,,,,,72,0,1,,,0,,,77,64
7920,note_on,,,,,8,0,1,,,0,,,74,52
7992,note_off,,,,,72,0,1,,,0,,,74,64
8000,note_on,,,,,8,0,1,,,0,,,69,53
8072,note_off,,,,,72,0,1,,,0,,,69,64
8080,note_on,,,,,8,0,1,,,0,,,65,55
8100,set_tempo,,,,,200,1,0,465116,,,,,,
8152,note_off,,,,,72,0,1,,,0,,,65,64
8160,note_on,,,,,8,0,1,,,0,,,62,58
8232,note_off,,,,,72,0,1,,,0,,,62,64
8240,note_on,,,,,8,0,1,,,0,,,57,61
8312,note_off,,,,,72,0,1,,,0,,,57,64
8320,note_on,,,,,8,0,1,,,0,,,53,63
8392,note_off,,,,,72,0,1,,,0,,,53,64
8400,note_on,,,,,8,0,1,,,0,,,50,65
8480,note_on,,,,,0,0,1,,,0,,,45,68
8480,note_off,,,,,80,0,1,,,0,,,50,64
8480,set_tempo,,,,,380,1,0,461538,,,,,,
8560,note_on,,,,,0,0,1,,,0,,,40,70
8560,note_off,,,,,80,0,1,,,0,,,45,64
8640,note_on,,,,,1020,0,2,,,0,,,41,72
8640,set_tempo,,,,,160,1,0,447761,,,,,,
8640,note_off,,,,,80,0,1,,,0,,,40,64
8760,note_off,,,,,120,0,2,,,0,,,41,64
8880,note_on,,,,,0,0,1,,,0,,,69,76
8880,note_on,,,,,120,0,2,,,0,,,53,79
8880,note_on,,,,,0,0,1,,,0,,,62,76
8880,note_on,,,,,0,0,2,,,0,,,57,79
8880,note_on,,,,,240,0,1,,,0,,,74,76
8960,set_tempo,,,,,320,1,0,659341,,,,,,
9000,note_off,,,,,0,0,1,,,0,,,69,64
9000,note_off,,,,,120,0,1,,,0,,,62,64
9000,note_off,,,,,120,0,2,,,0,,,57,64
9000,note_off,,,,,0,0,2,,,0,,,53,64
9000,note_off,,,,,0,0,1,,,0,,,74,64
9120,note_on,,,,,120,0,1,,,0,,,74,82
9120,note_on,,,,,0,0,1,,,0,,,72,82
9120,note_on,,,,,0,0,1,,,0,,,62,82
9120,note_on,,,,,120,0,2,,,0,,,54,82
9120,note_on,,,,,0,0,2,,,0,,,57,82
9120,set_tempo,,,,,160,1,0,461538,,,,,,
9540,note_off,,,,,420,0,2,,,0,,,57,64
9540,note_off,,,,,0,0,2,,,0,,,54,64
9540,set_tempo,,,,,420,1,0,458015,,,,,,
9540,note_off,,,,,0,0,1,,,0,,,72,64
9540,note_off,,,,,0,0,1,,,0,,,74,64
9540,note_off,,,,,420,0,1,,,0,,,62,64
9600,note_on,,,,,60,0,1,,,0,,,86,81
9680,note_off,,,,,80,0,1,,,0,,,86,64
9680,note_on,,,,,0,0,1,,,0,,,83,70
9760,note_off,,,,,80,0,1,,,0,,,83,64
9760,note_on,,,,,0,0,1,,,0,,,79,76
9840,note_off,,,,,80,0,1,,,0,,,79,64
9840,note_on,,,,,0,0,1,,,0,,,74,82
9840,note_on,,,,,300,0,2,,,0,,,43,80
9920,note_on,,,,,0,0,1,,,0,,,71,85
9920,note_off,,,,,80,0,1,,,0,,,74,64
10000,note_on,,,,,0,0,1,,,0,,,67,91
10000,note_off,,,,,80,0,1,,,0,,,71,64
10060,set_tempo,,,,,520,1,0,451128,,,,,,
10080,note_on,,,,,0,0,1,,,0,,,62,95
10080,note_on,,,,,0,0,2,,,0,,,50,87
10080,note_off,,,,,80,0,1,,,0,,,67,64
10080,note_on,,,,,0,0,2,,,0,,,44,87
10080,note_on,,,,,0,0,2,,,0,,,53,87
10080,note_on,,,,,0,0,2,,,0,,,62,87
10080,note_off,,,,,240,0,2,,,0,,,43,64
10320,note_off,,,,,240,0,1,,,0,,,62,64
10320,note_on,,,,,0,0,1,,,0,,,74,80
10500,note_off,,,,,0,0,2,,,0,,,50,64
10500,note_off,,,,,0,0,2,,,0,,,53,64
10500,set_tempo,,,,,440,1,0,545455,,,,,,
10500,note_off,,,,,180,0,1,,,0,,,74,64
10500,note_off,,,,,420,0,2,,,0,,,44,64
10500,note_off,,,,,0,0,2,,,0,,,62,64
10560,set_tempo,,,,,60,1,0,451128,,,,,,
10560,note_on,,,,,60,0,1,,,0,,,86,100
10640,note_off,,,,,80,0,1,,,0,,,86,64
10640,note_on,,,,,0,0,1,,,0,,,81,81
10720,note_off,,,,,80,0,1,,,0,,,81,64
10720,note_on,,,,,0,0,1,,,0,,,77,86
10800,note_on,,,,,300,0,2,,,0,,,45,99
10800,note_on,,,,,0,0,2,,,0,,,50,99
10800,note_on,,,,,0,0,2,,,0,,,53,99
10800,set_tempo,,,,,240,1,0,447761,,,,,,
10800,note_off,,,,,80,0,1,,,0,,,77,64
10800,note_on,,,,,0,0,1,,,0,,,74,92
10880,note_on,,,,,0,0,1,,,0,,,69,98
10880,note_off,,,,,80,0,1,,,0,,,74,64
10960,note_on,,,,,0,0,1,,,0,,,65,103
10960,note_off,,,,,80,0,1,,,0,,,69,64
11010,note_off,,,,,0,0,2,,,0,,,50,64
11010,note_off,,,,,210,0,2,,,0,,,53,64
11010,note_off,,,,,0,0,2,,,0,,,45,64
11020,set_tempo,,,,,220,1,0,441176,,,,,,
11040,note_off,,,,,80,0,1,,,0,,,65,64
11040,note_on,,,,,0,0,1,,,0,,,62,110
11040,note_on,,,,,0,0,2,,,0,,,46,104
11040,note_on,,,,,30,0,2,,,0,,,53,104
11040,note_on,,,,,0,0,2,,,0,,,50,104
11120,note_off,,,,,80,0,1,,,0,,,62,64
11120,note_on,,,,,0,0,1,,,0,,,74,104
11200,note_on,,,,,0,0,1,,,0,,,73,99
11200,note_off,,,,,80,0,1,,,0,,,74,64
11250,note_off,,,,,210,0,2,,,0,,,46,64
11250,note_off,,,,,0,0,2,,,0,,,50,64
11250,note_off,,,,,0,0,2,,,0,,,53,64
11280,note_on,,,,,0,0,2,,,0,,,47,111
11280,note_on,,,,,0,0,2,,,0,,,50,111
11280,set_tempo,,,,,260,1,0,437956,,,,,,
11280,note_off,,,,,80,0,1,,,0,,,73,64
11280,note_on,,,,,0,0,1,,,0,,,74,102
11280,note_on,,,,,30,0,2,,,0,,,53,111
11360,note_off,,,,,80,0,1,,,0,,,74,64
11360,note_on,,,,,0,0,1,,,0,,,86,113
11440,note_off,,,,,80,0,1,,,0,,,86,64
11440,note_on,,,,,0,0,1,,,0,,,85,122
11490,note_off,,,,,0,0,2,,,0,,,50,64
11490,note_off,,,,,210,0,2,,,0,,,47,64
11490,note_off,,,,,0,0,2,,,0,,,53,64
11494,note_off,,,,,54,0,1,,,0,,,85,64
11500,set_tempo,,,,,220,1,0,431655,,,,,,
11520,note_on,,,,,30,0,2,,,0,,,56,118
11520,note_on,,,,,0,0,2,,,0,,,52,118
11520,note_on,,,,,0,0,2,,,0,,,50,118
11520,note_on,,,,,0,0,2,,,0,,,47,118
11520,note_on,,,,,26,0,1,,,0,,,86,126
11600,note_off,,,,,80,0,1,,,0,,,86,64
11600,note_on,,,,,0,0,1,,,0,,,85,118
11680,note_off,,,,,80,0,1,,,0,,,85,64
11680,note_on,,,,,0,0,1,,,0,,,88,106
11760,note_off,,,,,80,0,1,,,0,,,88,64
11760,note_on,,,,,0,0,1,,,0,,,86,96
11840,note_off,,,,,80,0,1,,,0,,,86,64
11840,note_on,,,,,0,0,1,,,0,,,85,88
11920,note_on,,,,,0,0,1,,,0,,,83,84
11920,note_off,,,,,80,0,1,,,0,,,85,64
12000,note_off,,,,,80,0,1,,,0,,,83,64
12000,note_on,,,,,0,0,1,,,0,,,81,80
12000,set_tempo,,,,,500,1,0,434783,,,,,,
12080,note_on,,,,,0,0,1,,,0,,,80,78
12080,note_off,,,,,80,0,1,,,0,,,81,64
12160,note_off,,,,,80,0,1,,,0,,,80,64
12160,note_on,,,,,0,0,1,,,0,,,83,75
12240,note_off,,,,,80,0,1,,,0,,,83,64
12240,note_on,,,,,0,0,1,,,0,,,81,75
12260,set_tempo,,,,,260,1,0,437956,,,,,,
12320,note_off,,,,,80,0,1,,,0,,,81,64
12320,note_on,,,,,0,0,1,,,0,,,80,73
12400,note_on,,,,,0,0,1,,,0,,,78,70
12400,note_off,,,,,80,0,1,,,0,,,80,64
12480,set_tempo,,,,,220,1,0,447761,,,,,,
12480,note_on,,,,,0,0,1,,,0,,,76,67
12480,note_off,,,,,80,0,1,,,0,,,78,64
12560,note_on,,,,,0,0,1,,,0,,,75,67
12560,note_off,,,,,80,0,1,,,0,,,76,64
12640,note_on,,,,,0,0,1,,,0,,,78,67
12640,note_off,,,,,80,0,1,,,0,,,75,64
12720,note_off,,,,,80,0,1,,,0,,,78,64
12720,note_on,,,,,0,0,1,,,0,,,76,67
12720,note_off,,,,,1200,0,2,,,0,,,47,64
12720,note_off,,,,,0,0,2,,,0,,,50,64
12720,note_off,,,,,0,0,2,,,0,,,52,64
12720,note_off,,,,,0,0,2,,,0,,,56,64
12800,note_off,,,,,80,0,1,,,0,,,76,64
12800,note_on,,,,,0,0,1,,,0,,,74,67
12880,note_off,,,,,80,0,1,,,0,,,74,64
12880,note_on,,,,,0,0,1,,,0,,,73,67
12960,note_off,,,,,80,0,1,,,0,,,73,64
12960,note_on,,,,,0,0,1,,,0,,,71,70
12960,note_on,,,,,0,0,1,,,0,,,59,70
13040,note_off,,,,,80,0,1,,,0,,,59,64
13040,note_off,,,,,0,0,1,,,0,,,71,64
13040,note_on,,,,,0,0,1,,,0,,,70,73
13040,note_on,,,,,0,0,1,,,0,,,58,73
13120,note_on,,,,,0,0,1,,,0,,,62,79
13120,note_off,,,,,80,0,1,,,0,,,58,64
13120,note_off,,,,,0,0,1,,,0,,,70,64
13120,note_on,,,,,0,0,1,,,0,,,74,79
13200,note_on,,,,,0,0,1,,,0,,,61,81
13200,note_off,,,,,0,0,1,,,0,,,74,64
13200,note_on,,,,,0,0,1,,,0,,,73,81
13200,note_off,,,,,80,0,1,,,0,,,62,64
13280,note_off,,,,,80,0,1,,,0,,,61,64
13280,note_off,,,,,0,0,1,,,0,,,73,64
13280,note_on,,,,,0,0,1,,,0,,,71,85
13280,note_on,,,,,0,0,1,,,0,,,59,85
13340,set_tempo,,,,,860,1,0,441176,,,,,,
13360,note_off,,,,,80,0,1,,,0,,,59,64
13360,note_off,,,,,0,0,1,,,0,,,71,64
13360,note_on,,,,,0,0,1,,,0,,,69,89
13360,note_on,,,,,0,0,1,,,0,,,57,89
13440,note_off,,,,,0,0,1,,,0,,,69,64
13440,note_on,,,,,0,0,1,,,0,,,56,89
13440,note_off,,,,,80,0,1,,,0,,,57,64
13440,note_on,,,,,0,0,1,,,0,,,68,89
13520,note_off,,,,,80,0,1,,,0,,,56,64
13520,note_off,,,,,0,0,1,,,0,,,68,64
13520,note_on,,,,,0,0,1,,,0,,,69,92
13520,note_on,,,,,0,0,1,,,0,,,57,92
13600,note_off,,,,,80,0,1,,,0,,,57,64
13600,note_off,,,,,0,0,1,,,0,,,69,64
13600,note_on,,,,,0,0,1,,,0,,,71,94
13600,note_on,,,,,0,0,1,,,0,,,59,94
13620,set_tempo,,,,,280,1,0,437956,,,,,,
13680,note_off,,,,,80,0,1,,,0,,,59,64
13680,note_off,,,,,0,0,1,,,0,,,71,64
13680,note_on,,,,,0,0,1,,,0,,,69,97
13680,note_on,,,,,0,0,1,,,0,,,57,97
13760,note_off,,,,,80,0,1,,,0,,,57,64
13760,note_off,,,,,0,0,1,,,0,,,69,64
13760,note_on,,,,,0,0,1,,,0,,,68,100
13760,note_on,,,,,0,0,1,,,0,,,56,100
13840,note_off,,,,,0,0,1,,,0,,,68,64
13840,note_on,,,,,0,0,1,,,0,,,66,103
13840,note_on,,,,,0,0,1,,,0,,,54,103
13840,note_off,,,,,80,0,1,,,0,,,56,64
13860,set_tempo,,,,,240,1,0,434783,,,,,,
13920,note_off,,,,,80,0,1,,,0,,,54,64
13920,note_on,,,,,0,0,1,,,0,,,64,106
13920,note_off,,,,,0,0,1,,,0,,,66,64
13920,note_on,,,,,0,0,1,,,0,,,52,106
14000,note_on,,,,,0,0,1,,,0,,,66,109
14000,note_on,,,,,0,0,1,,,0,,,54,109
14000,note_off,,,,,80,0,1,,,0,,,52,64
14000,note_off,,,,,0,0,1,,,0,,,64,64
14060,set_tempo,,,,,200,1,0,431655,,,,,,
14080,note_off,,,,,80,0,1,,,0,,,54,64
14080,note_off,,,,,0,0,1,,,0,,,66,64
14080,note_on,,,,,0,0,1,,,0,,,52,111
14080,note_on,,,,,0,0,1,,,0,,,64,111
14160,note_off,,,,,80,0,1,,,0,,,52,64
14160,note_off,,,,,0,0,1,,,0,,,64,64
14160,note_on,,,,,0,0,1,,,0,,,62,113
14160,note_on,,,,,0,0,1,,,0,,,50,113
14240,note_off,,,,,80,0,1,,,0,,,50,64
14240,note_off,,,,,0,0,1,,,0,,,62,64
14240,note_on,,,,,0,0,1,,,0,,,61,116
14240,note_on,,,,,0,0,1,,,0,,,49,116
14300,set_tempo,,,,,240,1,0,425532,,,,,,
14320,note_off,,,,,0,0,1,,,0,,,61,64
14320,note_on,,,,,0,0,1,,,0,,,59,117
14320,note_on,,,,,0,0,1,,,0,,,47,117
14320,note_off,,,,,80,0,1,,,0,,,49,64
14400,set_tempo,,,,,100,1,0,491803,,,,,,
14400,note_on,,,,,0,0,1,,,0,,,57,121
14400,note_on,,,,,0,0,2,,,0,,,49,80
14400,note_off,,,,,0,0,1,,,0,,,59,64
14400,note_off,,,,,80,0,1,,,0,,,47,64
14400,note_on,,,,,1680,0,2,,,0,,,45,80
14480,set_tempo,,,,,80,1,0,461538,,,,,,
14520,note_off,,,,,120,0,1,,,0,,,57,64
14640,note_on,,,,,120,0,1,,,0,,,69,66
14760,note_off,,,,,120,0,1,,,0,,,69,64
14760,set_tempo,,,,,280,1,0,526316,,,,,,
14880,note_on,,,,,120,0,1,,,0,,,76,68
14880,note_on,,,,,0,0,1,,,0,,,64,68
14880,set_tempo,,,,,120,1,0,465116,,,,,,
15120,note_off,,,,,0,0,2,,,0,,,45,64
15120,note_on,,,,,0,0,2,,,0,,,45,52
15120,note_off,,,,,720,0,2,,,0,,,49,64
15120,note_on,,,,,0,0,2,,,0,,,49,52
15120,note_on,,,,,0,0,2,,,0,,,57,52
15240,note_off,,,,,0,0,2,,,0,,,45,64
15240,note_off,,,,,120,0,2,,,0,,,57,64
15240,note_off,,,,,0,0,2,,,0,,,49,64
15360,note_on,,,,,0,0,2,,,0,,,57,70
15360,note_on,,,,,0,0,2,,,0,,,50,70
15360,note_on,,,,,120,0,2,,,0,,,47,70
15600,note_on,,,,,0,0,1,,,0,,,66,58
15600,note_on,,,,,0,0,1,,,0,,,78,58
15600,note_off,,,,,0,0,1,,,0,,,76,64
15600,note_off,,,,,720,0,1,,,0,,,64,64
15700,set_tempo,,,,,820,1,0,521739,,,,,,
15720,note_off,,,,,0,0,1,,,0,,,78,64
15720,note_off,,,,,120,0,1,,,0,,,66,64
15840,note_on,,,,,0,0,1,,,0,,,62,68
15840,note_on,,,,,120,0,1,,,0,,,74,68
15840,set_tempo,,,,,140,1,0,461538,,,,,,
16080,note_off,,,,,720,0,2,,,0,,,57,64
16080,note_off,,,,,0,0,2,,,0,,,50,64
16080,note_off,,,,,0,0,2,,,0,,,47,64
16080,note_on,,,,,0,0,2,,,0,,,50,53
16080,note_on,,,,,0,0,2,,,0,,,57,53
16080,note_on,,,,,0,0,2,,,0,,,47,53
16200,note_off,,,,,120,0,2,,,0,,,47,64
16200,note_off,,,,,0,0,2,,,0,,,57,64
16200,note_off,,,,,0,0,2,,,0,,,50,64
16320,note_on,,,,,0,0,2,,,0,,,57,71
16320,note_on,,,,,120,0,2,,,0,,,49,71
16320,note_on,,,,,0,0,2,,,0,,,52,71
16440,note_off,,,,,600,0,1,,,0,,,62,64
16440,note_on,,,,,0,0,1,,,0,,,64,66
16440,note_off,,,,,0,0,1,,,0,,,74,64
16440,note_on,,,,,0,0,1,,,0,,,76,66
16530,note_off,,,,,0,0,1,,,0,,,76,64
16530,note_off,,,,,90,0,1,,,0,,,64,64
16560,note_on,,,,,30,0,1,,,0,,,73,69
16560,note_on,,,,,0,0,1,,,0,,,61,69
16770,note_off,,,,,0,0,2,,,0,,,49,64
16770,note_off,,,,,450,0,2,,,0,,,57,64
16770,note_off,,,,,0,0,2,,,0,,,52,64
16770,note_off,,,,,0,0,1,,,0,,,73,64
16770,note_off,,,,,210,0,1,,,0,,,61,64
16800,set_tempo,,,,,960,1,0,454545,,,,,,
16800,note_on,,,,,0,0,2,,,0,,,57,51
16800,note_on,,,,,30,0,1,,,0,,,71,74
16800,note_on,,,,,30,0,2,,,0,,,50,51
16800,note_on,,,,,0,0,2,,,0,,,54,51
16878,note_off,,,,,78,0,1,,,0,,,71,64
16880,note_on,,,,,2,0,1,,,0,,,59,64
16900,set_tempo,,,,,100,1,0,447761,,,,,,
16958,note_off,,,,,78,0,1,,,0,,,59,64
16960,note_on,,,,,2,0,1,,,0,,,71,70
16980,set_tempo,,,,,80,1,0,441176,,,,,,
17038,note_off,,,,,78,0,1,,,0,,,71,64
17040,note_off,,,,,240,0,2,,,0,,,57,64
17040,note_off,,,,,0,0,2,,,0,,,54,64
17040,note_off,,,,,0,0,2,,,0,,,50,64
17040,note_on,,,,,2,0,1,,,0,,,70,83
17040,note_on,,,,,0,0,2,,,0,,,55,63
17040,note_on,,,,,0,0,2,,,0,,,52,63
17040,note_on,,,,,0,0,2,,,0,,,57,63
17118,note_off,,,,,78,0,1,,,0,,,70,64
17120,note_on,,,,,2,0,1,,,0,,,58,79
17120,set_tempo,,,,,140,1,0,447761,,,,,,
17198,note_off,,,,,78,0,1,,,0,,,58,64
17200,note_on,,,,,2,0,1,,,0,,,70,82
17220,set_tempo,,,,,100,1,0,454545,,,,,,
17260,set_tempo,,,,,40,1,0,458015,,,,,,
17278,note_off,,,,,78,0,1,,,0,,,70,64
17280,note_on,,,,,2,0,1,,,0,,,71,85
17280,note_on,,,,,0,0,2,,,0,,,50,74
17280,note_on,,,,,0,0,2,,,0,,,57,74
17280,note_on,,,,,0,0,2,,,0,,,54,74
17280,note_off,,,,,240,0,2,,,0,,,52,64
17280,note_off,,,,,0,0,2,,,0,,,57,64
17280,note_on,,,,,0,0,1,,,0,,,59,85
17280,note_off,,,,,0,0,2,,,0,,,55,64
17300,set_tempo,,,,,40,1,0,451128,,,,,,
17500,set_tempo,,,,,200,1,0,461538,,,,,,
17520,note_off,,,,,0,0,2,,,0,,,50,64
17520,note_off,,,,,0,0,2,,,0,,,54,64
17520,note_off,,,,,240,0,2,,,0,,,57,64
17520,note_on,,,,,0,0,2,,,0,,,57,60
17520,note_on,,,,,0,0,2,,,0,,,52,60
17520,note_on,,,,,0,0,1,,,0,,,61,81
17520,note_on,,,,,0,0,1,,,0,,,73,81
17520,note_off,,,,,0,0,1,,,0,,,71,64
17520,note_off,,,,,240,0,1,,,0,,,59,64
17520,note_on,,,,,0,0,2,,,0,,,49,60
17640,note_on,,,,,0,0,1,,,0,,,62,83
17640,note_on,,,,,0,0,1,,,0,,,74,83
17640,note_off,,,,,0,0,1,,,0,,,73,64
17640,note_off,,,,,120,0,1,,,0,,,61,64
17760,note_off,,,,,0,0,2,,,0,,,49,64
17760,note_off,,,,,240,0,2,,,0,,,57,64
17760,note_off,,,,,0,0,2,,,0,,,52,64
17760,note_on,,,,,0,0,1,,,0,,,64,96
17760,note_on,,,,,0,0,1,,,0,,,76,96
17760,note_off,,,,,0,0,1,,,0,,,74,64
17760,note_on,,,,,0,0,2,,,0,,,45,76
17760,note_on,,,,,0,0,2,,,0,,,49,76
17760,note_off,,,,,120,0,1,,,0,,,62,64
17800,set_tempo,,,,,300,1,0,458015,,,,,,
17838,note_off,,,,,78,0,2,,,0,,,49,64
17838,note_off,,,,,0,0,2,,,0,,,45,64
17840,note_on,,,,,2,0,2,,,0,,,57,68
17900,set_tempo,,,,,100,1,0,454545,,,,,,
17918,note_off,,,,,78,0,2,,,0,,,57,64
17920,note_on,,,,,2,0,2,,,0,,,45,71
17920,note_on,,,,,0,0,2,,,0,,,49,71
17998,note_off,,,,,78,0,2,,,0,,,49,64
17998,note_off,,,,,238,0,1,,,0,,,64,64
17998,note_off,,,,,0,0,1,,,0,,,76,64
17998,note_off,,,,,0,0,2,,,0,,,45,64
18000,note_on,,,,,0,0,1,,,0,,,69,83
18000,note_on,,,,,2,0,2,,,0,,,47,85
18000,note_on,,,,,0,0,2,,,0,,,50,85
18000,note_on,,,,,2,0,1,,,0,,,81,83
18000,set_tempo,,,,,100,1,0,447761,,,,,,
18078,note_off,,,,,0,0,2,,,0,,,47,64
18078,note_off,,,,,78,0,2,,,0,,,50,64
18080,set_tempo,,,,,80,1,0,441176,,,,,,
18080,note_on,,,,,2,0,2,,,0,,,57,75
18140,set_tempo,,,,,60,1,0,434783,,,,,,
18158,note_off,,,,,78,0,2,,,0,,,57,64
18160,note_on,,,,,2,0,2,,,0,,,47,78
18160,note_on,,,,,0,0,2,,,0,,,50,78
18238,note_off,,,,,78,0,2,,,0,,,50,64
18238,note_off,,,,,0,0,2,,,0,,,47,64
18238,note_off,,,,,238,0,1,,,0,,,69,64
18238,note_off,,,,,0,0,1,,,0,,,81,64
18240,set_tempo,,,,,100,1,0,545455,,,,,,
18240,note_on,,,,,2,0,1,,,0,,,73,88
18240,control_change,,,,,0,0,1,,,0,64,95,,
18240,note_on,,,,,0,0,1,,,0,,,61,88
18240,note_on,,,,,0,0,2,,,0,,,57,93
18240,note_on,,,,,0,0,2,,,0,,,52,93
18240,note_on,,,,,2,0,2,,,0,,,49,93
18480,set_tempo,,,,,240,1,0,487805,,,,,,
18660,note_off,,,,,0,0,2,,,0,,,49,64
18660,note_off,,,,,0,0,2,,,0,,,52,64
18660,note_off,,,,,420,0,2,,,0,,,57,64
18660,set_tempo,,,,,180,1,0,1071429,,,,,,
18660,note_off,,,,,0,0,1,,,0,,,73,64
18660,note_off,,,,,420,0,1,,,0,,,61,64
18700,set_tempo,,,,,40,1,0,545455,,,,,,
18710,control_change,,,,,50,0,1,,,0,64,0,,
18720,note_on,,,,,0,0,2,,,0,,,57,126
18720,note_on,,,,,0,0,2,,,0,,,54,126
18720,note_on,,,,,60,0,2,,,0,,,50,126
18720,note_on,,,,,10,0,1,,,0,,,78,127
18720,note_on,,,,,0,0,1,,,0,,,69,127
18720,note_on,,,,,0,0,1,,,0,,,66,127
18720,control_change,,,,,0,0,1,,,0,64,95,,
19120,set_tempo,,,,,420,1,0,1363636,,,,,,
19140,note_off,,,,,420,0,2,,,0,,,57,64
19140,note_off,,,,,0,0,2,,,0,,,54,64
19140,note_off,,,,,0,0,2,,,0,,,50,64
19140,note_off,,,,,420,0,1,,,0,,,66,64
19140,note_off,,,,,0,0,1,,,0,,,69,64
19140,note_off,,,,,0,0,1,,,0,,,78,64
19190,control_change,,,,,50,0,1,,,0,64,0,,
19200,note_on,,,,,10,0,1,,,0,,,69,117
19200,note_on,,,,,60,0,2,,,0,,,47,98
19200,note_on,,,,,0,0,2,,,0,,,74,98
19200,note_on,,,,,0,0,2,,,0,,,62,98
19200,note_on,,,,,0,0,1,,,0,,,57,117
19200,note_on,,,,,0,0,2,,,0,,,52,98
19220,set_tempo,,,,,100,1,0,461538,,,,,,
19300,set_tempo,,,,,80,1,0,487805,,,,,,
19400,set_tempo,,,,,100,1,0,582524,,,,,,
19440,note_on,,,,,0,0,1,,,0,,,56,92
19440,note_on,,,,,0,0,1,,,0,,,68,92
19440,note_off,,,,,0,0,1,,,0,,,69,64
19440,note_off,,,,,240,0,1,,,0,,,57,64
19500,set_tempo,,,,,100,1,0,659341,,,,,,
19560,note_off,,,,,0,0,1,,,0,,,68,64
19560,note_on,,,,,0,0,1,,,0,,,66,69
19560,note_on,,,,,0,0,1,,,0,,,54,69
19560,note_off,,,,,120,0,1,,,0,,,56,64
19600,set_tempo,,,,,100,1,0,731707,,,,,,
19680,note_on,,,,,0,0,1,,,0,,,56,49
19680,note_off,,,,,0,0,1,,,0,,,66,64
19680,note_on,,,,,0,0,1,,,0,,,68,49
19680,note_off,,,,,120,0,1,,,0,,,54,64
19920,set_tempo,,,,,320,1,0,857143,,,,,,
20100,note_off,,,,,420,0,1,,,0,,,68,64
20100,note_off,,,,,0,0,2,,,0,,,74,64
20100,note_off,,,,,0,0,2,,,0,,,62,64
20100,note_off,,,,,900,0,2,,,0,,,52,64
20160,note_off,,,,,60,0,1,,,0,,,56,64
20160,note_on,,,,,0,0,1,,,0,,,73,49
20160,note_on,,,,,0,0,2,,,0,,,57,39
20160,note_on,,,,,0,0,2,,,0,,,52,39
20160,note_on,,,,,0,0,2,,,0,,,45,39
20160,note_off,,,,,60,0,2,,,0,,,47,64
20160,set_tempo,,,,,240,1,0,461538,,,,,,
20240,note_on,,,,,0,0,1,,,0,,,76,46
20240,note_off,,,,,80,0,1,,,0,,,73,64
20320,note_off,,,,,80,0,1,,,0,,,76,64
20320,note_on,,,,,0,0,1,,,0,,,81,45
20380,set_tempo,,,,,220,1,0,454545,,,,,,
20400,note_off,,,,,0,0,2,,,0,,,45,64
20400,note_off,,,,,0,0,2,,,0,,,52,64
20400,note_off,,,,,240,0,2,,,0,,,57,64
20400,note_off,,,,,80,0,1,,,0,,,81,64
20402,note_on,,,,,2,0,1,,,0,,,76,45
20482,note_on,,,,,0,0,1,,,0,,,73,45
20482,note_off,,,,,80,0,1,,,0,,,76,64
20560,set_tempo,,,,,180,1,0,451128,,,,,,
20562,note_off,,,,,80,0,1,,,0,,,73,64
20562,note_on,,,,,0,0,1,,,0,,,69,46
20642,note_off,,,,,80,0,1,,,0,,,69,64
20642,note_on,,,,,0,0,1,,,0,,,64,48
20722,note_off,,,,,80,0,1,,,0,,,64,64
20722,note_on,,,,,0,0,1,,,0,,,61,55
20740,set_tempo,,,,,180,1,0,447761,,,,,,
20802,note_off,,,,,80,0,1,,,0,,,61,64
20804,note_on,,,,,2,0,1,,,0,,,57,59
20880,note_on,,,,,76,0,1,,,0,,,52,64
20884,note_off,,,,,4,0,1,,,0,,,57,64
20920,set_tempo,,,,,180,1,0,441176,,,,,,
20960,note_on,,,,,0,0,1,,,0,,,49,69
20960,note_off,,,,,76,0,1,,,0,,,52,64
21040,note_off,,,,,80,0,1,,,0,,,49,64
21040,note_on,,,,,0,0,1,,,0,,,45,76
21080,set_tempo,,,,,160,1,0,437956,,,,,,
21120,note_off,,,,,80,0,1,,,0,,,45,64
21120,note_on,,,,,0,0,1,,,0,,,33,82
21180,set_tempo,,,,,100,1,0,444444,,,,,,
21240,set_tempo,,,,,60,1,0,483871,,,,,,
21240,note_off,,,,,120,0,1,,,0,,,33,64
21360,note_on,,,,,0,0,1,,,0,,,61,49
21360,note_on,,,,,0,0,1,,,0,,,64,49
21360,note_on,,,,,120,0,1,,,0,,,76,49
21360,note_on,,,,,0,0,1,,,0,,,57,49
21360,note_on,,,,,0,0,1,,,0,,,69,49
21460,set_tempo,,,,,220,1,0,576923,,,,,,
21480,note_off,,,,,120,0,1,,,0,,,57,64
21480,note_off,,,,,0,0,1,,,0,,,61,64
21480,note_off,,,,,0,0,1,,,0,,,64,64
21480,note_off,,,,,0,0,1,,,0,,,69,64
21480,note_off,,,,,0,0,1,,,0,,,76,64
21600,set_tempo,,,,,140,1,0,461538,,,,,,
21600,note_on,,,,,0,0,1,,,0,,,62,65
21600,note_on,,,,,0,0,1,,,0,,,64,65
21600,note_on,,,,,0,0,1,,,0,,,68,65
21600,note_on,,,,,0,0,1,,,0,,,71,65
21600,note_on,,,,,120,0,1,,,0,,,76,65
21600,note_on,,,,,0,0,1,,,0,,,57,65
22080,note_off,,,,,480,0,1,,,0,,,57,64
22080,note_off,,,,,0,0,1,,,0,,,62,64
22080,note_on,,,,,0,0,2,,,0,,,57,39
22080,note_on,,,,,1680,0,2,,,0,,,61,39
22080,note_off,,,,,0,0,1,,,0,,,68,64
22080,note_off,,,,,0,0,1,,,0,,,76,64
22080,note_off,,,,,0,0,1,,,0,,,64,64
22080,note_on,,,,,0,0,1,,,0,,,76,58
22080,note_off,,,,,0,0,1,,,0,,,71,64
22160,note_off,,,,,80,0,1,,,0,,,76,64
22160,note_on,,,,,0,0,1,,,0,,,81,56
22240,note_off,,,,,80,0,1,,,0,,,81,64
22240,note_on,,,,,0,0,1,,,0,,,85,53
22300,set_tempo,,,,,700,1,0,454545,,,,,,
22320,note_off,,,,,80,0,1,,,0,,,85,64
22320,note_on,,,,,0,0,1,,,0,,,81,52
22320,note_off,,,,,240,0,2,,,0,,,57,64
22320,note_off,,,,,0,0,2,,,0,,,61,64
22400,note_off,,,,,80,0,1,,,0,,,81,64
22400,note_on,,,,,0,0,1,,,0,,,76,52
22480,note_on,,,,,0,0,1,,,0,,,73,55
22480,note_off,,,,,80,0,1,,,0,,,76,64
22480,set_tempo,,,,,180,1,0,451128,,,,,,
22560,note_off,,,,,80,0,1,,,0,,,73,64
22560,note_on,,,,,0,0,1,,,0,,,69,59
22640,note_off,,,,,80,0,1,,,0,,,69,64
22640,note_on,,,,,0,0,1,,,0,,,64,65
22660,set_tempo,,,,,180,1,0,447761,,,,,,
22720,note_on,,,,,0,0,1,,,0,,,61,69
22720,note_off,,,,,80,0,1,,,0,,,64,64
22800,note_on,,,,,0,0,1,,,0,,,57,74
22800,note_on,,,,,0,0,1,,,0,,,52,74
22800,note_off,,,,,80,0,1,,,0,,,61,64
22840,set_tempo,,,,,180,1,0,441176,,,,,,
22880,note_off,,,,,80,0,1,,,0,,,52,64
22880,note_on,,,,,0,0,1,,,0,,,49,80
22880,note_off,,,,,0,0,1,,,0,,,57,64
22960,note_off,,,,,80,0,1,,,0,,,49,64
22960,note_on,,,,,0,0,1,,,0,,,45,83
23000,set_tempo,,,,,160,1,0,437956,,,,,,
23040,note_on,,,,,0,0,1,,,0,,,33,88
23040,note_off,,,,,80,0,1,,,0,,,45,64
23100,set_tempo,,,,,100,1,0,444444,,,,,,
23160,note_off,,,,,120,0,1,,,0,,,33,64
23160,set_tempo,,,,,60,1,0,483871,,,,,,
23280,note_on,,,,,0,0,1,,,0,,,76,70
23280,note_on,,,,,0,0,1,,,0,,,64,70
23280,note_on,,,,,120,0,1,,,0,,,81,70
23280,note_on,,,,,0,0,1,,,0,,,61,70
23280,note_on,,,,,0,0,1,,,0,,,57,70
23280,note_on,,,,,0,0,1,,,0,,,69,70
23380,set_tempo,,,,,220,1,0,576923,,,,,,
23400,note_off,,,,,120,0,1,,,0,,,57,64
23400,note_off,,,,,0,0,1,,,0,,,81,64
23400,note_off,,,,,0,0,1,,,0,,,76,64
23400,note_off,,,,,0,0,1,,,0,,,69,64
23400,note_off,,,,,0,0,1,,,0,,,64,64
23400,note_off,,,,,0,0,1,,,0,,,61,64
23520,note_on,,,,,0,0,1,,,0,,,76,83
23520,note_on,,,,,0,0,1,,,0,,,71,83
23520,note_on,,,,,0,0,1,,,0,,,68,83
23520,set_tempo,,,,,140,1,0,461538,,,,,,
23520,note_on,,,,,0,0,1,,,0,,,64,83
23520,note_on,,,,,120,0,1,,,0,,,83,83
23520,note_on,,,,,0,0,1,,,0,,,57,83
23520,note_on,,,,,0,0,1,,,0,,,62,83
24000,note_off,,,,,0,0,1,,,0,,,62,64
24000,note_on,,,,,0,0,1,,,0,,,69,57
24000,note_on,,,,,0,0,1,,,0,,,76,57
24000,note_on,,,,,0,0,1,,,0,,,81,57
24000,note_off,,,,,0,0,1,,,0,,,83,64
24000,note_off,,,,,0,0,1,,,0,,,76,64
24000,note_off,,,,,0,0,1,,,0,,,71,64
24000,note_off,,,,,480,0,1,,,0,,,57,64
24000,note_off,,,,,0,0,1,,,0,,,64,64
24000,set_tempo,,,,,480,1,0,483871,,,,,,
24000,note_off,,,,,0,0,1,,,0,,,68,64
24000,note_on,,,,,1680,0,2,,,0,,,57,54
24080,note_off,,,,,80,0,2,,,0,,,57,64
24080,note_on,,,,,0,0,2,,,0,,,61,58
24160,note_off,,,,,80,0,2,,,0,,,61,64
24160,note_on,,,,,0,0,2,,,0,,,64,64
24220,note_off,,,,,0,0,1,,,0,,,76,64
24220,note_off,,,,,0,0,1,,,0,,,81,64
24220,set_tempo,,,,,220,1,0,472441,,,,,,
24220,note_off,,,,,220,0,1,,,0,,,69,64
24240,note_off,,,,,80,0,2,,,0,,,64,64
24242,note_on,,,,,2,0,2,,,0,,,61,69
24322,note_off,,,,,80,0,2,,,0,,,61,64
24322,note_on,,,,,0,0,2,,,0,,,57,69
24402,note_off,,,,,80,0,2,,,0,,,57,64
24402,note_on,,,,,0,0,2,,,0,,,52,74
24482,note_on,,,,,0,0,2,,,0,,,57,79
24482,note_off,,,,,80,0,2,,,0,,,52,64
24560,set_tempo,,,,,340,1,0,465116,,,,,,
24562,note_on,,,,,0,0,2,,,0,,,52,83
24562,note_off,,,,,80,0,2,,,0,,,57,64
24642,note_off,,,,,80,0,2,,,0,,,52,64
24644,note_on,,,,,2,0,2,,,0,,,49,87
24724,note_on,,,,,0,0,2,,,0,,,52,94
24724,note_off,,,,,80,0,2,,,0,,,49,64
24804,note_off,,,,,80,0,2,,,0,,,52,64
24804,note_on,,,,,0,0,2,,,0,,,49,99
24840,set_tempo,,,,,280,1,0,458015,,,,,,
24884,note_on,,,,,0,0,2,,,0,,,45,104
24884,note_off,,,,,80,0,2,,,0,,,49,64
24960,note_on,,,,,76,0,2,,,0,,,42,109
24964,note_on,,,,,744,0,1,,,0,,,87,93
24964,note_off,,,,,4,0,2,,,0,,,45,64
25044,note_off,,,,,80,0,1,,,0,,,87,64
25046,note_on,,,,,2,0,1,,,0,,,90,84
25060,set_tempo,,,,,220,1,0,454545,,,,,,
25126,note_off,,,,,80,0,1,,,0,,,90,64
25126,note_on,,,,,0,0,1,,,0,,,93,86
25200,note_off,,,,,236,0,2,,,0,,,42,64
25206,note_off,,,,,80,0,1,,,0,,,93,64
25206,note_on,,,,,0,0,1,,,0,,,90,90
25286,note_on,,,,,0,0,1,,,0,,,87,94
25286,note_off,,,,,80,0,1,,,0,,,90,64
25360,set_tempo,,,,,300,1,0,447761,,,,,,
25366,note_off,,,,,80,0,1,,,0,,,87,64
25366,note_on,,,,,0,0,1,,,0,,,81,96
25446,note_off,,,,,80,0,1,,,0,,,81,64
25448,note_on,,,,,2,0,1,,,0,,,78,99
25528,note_off,,,,,80,0,1,,,0,,,78,64
25528,note_on,,,,,0,0,1,,,0,,,75,103
25580,set_tempo,,,,,220,1,0,441176,,,,,,
25608,note_on,,,,,0,0,1,,,0,,,71,106
25608,note_off,,,,,80,0,1,,,0,,,75,64
25688,note_on,,,,,0,0,1,,,0,,,69,110
25688,note_off,,,,,80,0,1,,,0,,,71,64
25768,note_on,,,,,0,0,1,,,0,,,66,113
25768,note_off,,,,,80,0,1,,,0,,,69,64
25800,set_tempo,,,,,220,1,0,434783,,,,,,
25848,note_off,,,,,80,0,1,,,0,,,66,64
25850,note_on,,,,,2,0,1,,,0,,,63,117
25920,set_tempo,,,,,120,1,0,461538,,,,,,
25920,note_on,,,,,70,0,1,,,0,,,64,125
25920,note_on,,,,,720,0,2,,,0,,,40,117
25930,note_off,,,,,10,0,1,,,0,,,63,64
26040,note_off,,,,,120,0,2,,,0,,,40,64
26040,set_tempo,,,,,120,1,0,480000,,,,,,
26160,note_on,,,,,120,0,2,,,0,,,64,92
26160,note_on,,,,,0,0,2,,,0,,,52,92
26160,note_on,,,,,0,0,2,,,0,,,56,92
26160,note_off,,,,,230,0,1,,,0,,,64,64
26280,note_off,,,,,0,0,2,,,0,,,64,64
26280,note_off,,,,,0,0,2,,,0,,,56,64
26280,set_tempo,,,,,240,1,0,576923,,,,,,
26280,note_off,,,,,120,0,2,,,0,,,52,64
26400,note_on,,,,,120,0,2,,,0,,,64,111
26400,set_tempo,,,,,120,1,0,461538,,,,,,
26400,note_on,,,,,0,0,2,,,0,,,57,111
26400,note_on,,,,,0,0,2,,,0,,,53,111
26640,note_on,,,,,480,0,1,,,0,,,76,103
26760,note_off,,,,,120,0,1,,,0,,,76,64
26780,set_tempo,,,,,380,1,0,526316,,,,,,
26880,set_tempo,,,,,100,1,0,461538,,,,,,
26880,note_on,,,,,0,0,1,,,0,,,69,121
26880,note_on,,,,,120,0,1,,,0,,,81,121
27060,note_off,,,,,0,0,2,,,0,,,64,64
27060,note_off,,,,,660,0,2,,,0,,,53,64
27060,note_off,,,,,0,0,2,,,0,,,57,64
27120,note_on,,,,,60,0,2,,,0,,,64,99
27120,note_on,,,,,0,0,2,,,0,,,57,99
27120,note_on,,,,,0,0,2,,,0,,,54,99
27320,set_tempo,,,,,440,1,0,458015,,,,,,
27360,note_off,,,,,480,0,1,,,0,,,69,64
27360,note_on,,,,,0,0,1,,,0,,,79,123
27360,note_off,,,,,0,0,1,,,0,,,81,64
27360,note_off,,,,,240,0,2,,,0,,,54,64
27360,note_off,,,,,0,0,2,,,0,,,57,64
27360,note_off,,,,,0,0,2,,,0,,,64,64
27360,note_on,,,,,0,0,2,,,0,,,60,116
27360,note_on,,,,,0,0,2,,,0,,,55,116
27360,note_on,,,,,0,0,2,,,0,,,64,116
27440,note_off,,,,,80,0,1,,,0,,,79,64
27440,note_on,,,,,0,0,1,,,0,,,81,119
27520,note_off,,,,,80,0,1,,,0,,,81,64
27520,note_on,,,,,0,0,1,,,0,,,79,115
27560,set_tempo,,,,,240,1,0,451128,,,,,,
27600,note_off,,,,,0,0,2,,,0,,,60,64
27600,note_off,,,,,240,0,2,,,0,,,55,64
27600,note_on,,,,,0,0,2,,,0,,,55,108
27600,note_on,,,,,0,0,2,,,0,,,59,108
27600,note_on,,,,,0,0,2,,,0,,,62,108
27600,note_off,,,,,80,0,1,,,0,,,79,64
27600,note_off,,,,,0,0,2,,,0,,,64,64
27602,note_on,,,,,2,0,1,,,0,,,77,116
27682,note_on,,,,,0,0,1,,,0,,,79,108
27682,note_off,,,,,80,0,1,,,0,,,77,64
27720,set_tempo,,,,,160,1,0,447761,,,,,,
27762,note_on,,,,,0,0,1,,,0,,,77,103
27762,note_off,,,,,80,0,1,,,0,,,79,64
27840,note_on,,,,,78,0,1,,,0,,,76,99
27840,note_on,,,,,0,0,2,,,0,,,60,94
27840,note_off,,,,,0,0,2,,,0,,,55,64
27840,note_off,,,,,0,0,2,,,0,,,59,64
27840,note_off,,,,,240,0,2,,,0,,,62,64
27840,set_tempo,,,,,120,1,0,545455,,,,,,
27842,note_off,,,,,2,0,1,,,0,,,77,64
27960,note_off,,,,,118,0,1,,,0,,,76,64
27960,set_tempo,,,,,120,1,0,480000,,,,,,
27960,note_off,,,,,120,0,2,,,0,,,60,64
28080,note_on,,,,,0,0,2,,,0,,,52,61
28080,note_on,,,,,0,0,2,,,0,,,48,61
28080,note_on,,,,,120,0,2,,,0,,,60,61
28200,note_off,,,,,120,0,2,,,0,,,48,64
28200,set_tempo,,,,,240,1,0,576923,,,,,,
28200,note_off,,,,,0,0,2,,,0,,,52,64
28200,note_off,,,,,0,0,2,,,0,,,60,64
28320,set_tempo,,,,,120,1,0,461538,,,,,,
28320,note_on,,,,,120,0,2,,,0,,,60,67
28320,note_on,,,,,0,0,2,,,0,,,53,67
28320,note_on,,,,,0,0,2,,,0,,,49,67
28560,note_on,,,,,600,0,1,,,0,,,72,63
28680,note_off,,,,,120,0,1,,,0,,,72,64
28700,set_tempo,,,,,380,1,0,526316,,,,,,
28800,note_on,,,,,120,0,1,,,0,,,77,77
28800,note_on,,,,,0,0,1,,,0,,,65,77
28800,set_tempo,,,,,100,1,0,461538,,,,,,
28980,note_off,,,,,0,0,2,,,0,,,53,64
28980,note_off,,,,,660,0,2,,,0,,,49,64
28980,note_off,,,,,0,0,2,,,0,,,60,64
29040,note_on,,,,,60,0,2,,,0,,,60,57
29040,note_on,,,,,0,0,2,,,0,,,53,57
29040,note_on,,,,,0,0,2,,,0,,,50,57
29240,set_tempo,,,,,440,1,0,458015,,,,,,
29280,note_off,,,,,240,0,2,,,0,,,50,64
29280,note_off,,,,,0,0,2,,,0,,,53,64
29280,note_off,,,,,0,0,2,,,0,,,60,64
29280,note_on,,,,,0,0,2,,,0,,,60,51
29280,note_on,,,,,0,0,2,,,0,,,56,51
29280,note_on,,,,,0,0,2,,,0,,,51,51
29280,note_off,,,,,480,0,1,,,0,,,65,64
29280,note_off,,,,,0,0,1,,,0,,,77,64
29280,note_on,,,,,0,0,1,,,0,,,75,61
29360,note_off,,,,,80,0,1,,,0,,,75,64
29360,note_on,,,,,0,0,1,,,0,,,77,49
29440,note_off,,,,,80,0,1,,,0,,,77,64
29440,note_on,,,,,0,0,1,,,0,,,75,49
29480,set_tempo,,,,,240,1,0,451128,,,,,,
29520,note_on,,,,,0,0,2,,,0,,,58,47
29520,note_off,,,,,0,0,2,,,0,,,56,64
29520,note_off,,,,,80,0,1,,,0,,,75,64
29520,note_on,,,,,0,0,2,,,0,,,51,47
29520,note_off,,,,,0,0,2,,,0,,,60,64
29520,note_off,,,,,240,0,2,,,0,,,51,64
29520,note_on,,,,,0,0,2,,,0,,,55,47
29522,note_on,,,,,2,0,1,,,0,,,73,55
29602,note_off,,,,,80,0,1,,,0,,,73,64
29602,note_on,,,,,0,0,1,,,0,,,75,43
29640,set_tempo,,,,,160,1,0,447761,,,,,,
29682,note_on,,,,,0,0,1,,,0,,,73,41
29682,note_off,,,,,80,0,1,,,0,,,75,64
29740,set_tempo,,,,,100,1,0,545455,,,,,,
29760,note_off,,,,,0,0,2,,,0,,,51,64
29760,note_on,,,,,0,0,2,,,0,,,56,42
29760,note_off,,,,,0,0,2,,,0,,,58,64
29760,note_on,,,,,78,0,1,,,0,,,72,46
29760,note_off,,,,,240,0,2,,,0,,,55,64
29762,note_off,,,,,2,0,1,,,0,,,73,64
29880,note_off,,,,,118,0,1,,,0,,,72,64
29882,set_tempo,,,,,142,1,0,480000,,,,,,
30000,note_on,,,,,120,0,1,,,0,,,80,113
30000,note_on,,,,,0,0,1,,,0,,,72,113
30000,note_on,,,,,0,0,1,,,0,,,68,113
30000,note_off,,,,,240,0,2,,,0,,,56,64
30120,note_off,,,,,0,0,1,,,0,,,80,64
30120,note_off,,,,,0,0,1,,,0,,,72,64
30120,note_off,,,,,120,0,1,,,0,,,68,64
30122,set_tempo,,,,,240,1,0,576923,,,,,,
30240,note_on,,,,,120,0,1,,,0,,,80,122
30240,note_on,,,,,0,0,1,,,0,,,73,122
30240,note_on,,,,,0,0,1,,,0,,,69,122
30242,set_tempo,,,,,120,1,0,461538,,,,,,
30480,note_on,,,,,480,0,2,,,0,,,64,112
30600,note_off,,,,,120,0,2,,,0,,,64,64
30622,set_tempo,,,,,380,1,0,526316,,,,,,
30720,note_on,,,,,120,0,2,,,0,,,49,121
30722,set_tempo,,,,,100,1,0,461538,,,,,,
30900,note_off,,,,,660,0,1,,,0,,,69,64
30900,note_off,,,,,0,0,1,,,0,,,80,64
30900,note_off,,,,,0,0,1,,,0,,,73,64
30960,note_on,,,,,60,0,1,,,0,,,80,113
30960,note_on,,,,,0,0,1,,,0,,,70,113
30960,note_on,,,,,0,0,1,,,0,,,76,113
31162,set_tempo,,,,,440,1,0,458015,,,,,,
31200,note_on,,,,,0,0,1,,,0,,,71,117
31200,note_off,,,,,240,0,1,,,0,,,70,64
31200,note_off,,,,,0,0,1,,,0,,,76,64
31200,note_off,,,,,0,0,1,,,0,,,80,64
31200,note_off,,,,,480,0,2,,,0,,,49,64
31200,note_on,,,,,0,0,2,,,0,,,47,122
31200,note_on,,,,,0,0,1,,,0,,,76,117
31200,note_on,,,,,0,0,1,,,0,,,80,117
31280,note_off,,,,,80,0,2,,,0,,,47,64
31280,note_on,,,,,0,0,2,,,0,,,49,110
31360,note_on,,,,,0,0,2,,,0,,,47,108
31360,note_off,,,,,80,0,2,,,0,,,49,64
31402,set_tempo,,,,,240,1,0,451128,,,,,,
31440,note_on,,,,,0,0,1,,,0,,,75,122
31440,note_on,,,,,0,0,1,,,0,,,71,122
31440,note_off,,,,,80,0,2,,,0,,,47,64
31440,note_on,,,,,0,0,1,,,0,,,78,122
31440,note_off,,,,,0,0,1,,,0,,,80,64
31440,note_off,,,,,0,0,1,,,0,,,76,64
31440,note_off,,,,,240,0,1,,,0,,,71,64
31440,note_on,,,,,0,0,2,,,0,,,45,117
31520,note_off,,,,,80,0,2,,,0,,,45,64
31520,note_on,,,,,0,0,2,,,0,,,47,108
31562,set_tempo,,,,,160,1,0,447761,,,,,,
31600,note_off,,,,,80,0,2,,,0,,,47,64
31600,note_on,,,,,0,0,2,,,0,,,45,114
31650,set_tempo,,,,,88,1,0,461538,,,,,,
31680,note_off,,,,,0,0,1,,,0,,,78,64
31680,note_on,,,,,0,0,1,,,0,,,76,122
31680,note_off,,,,,0,0,1,,,0,,,75,64
31680,note_off,,,,,80,0,2,,,0,,,45,64
31680,note_on,,,,,0,0,1,,,0,,,71,122
31680,note_on,,,,,0,0,2,,,0,,,44,122
31680,note_off,,,,,240,0,1,,,0,,,71,64
31772,set_tempo,,,,,122,1,0,480000,,,,,,
31800,note_off,,,,,120,0,1,,,0,,,71,64
31800,note_off,,,,,0,0,1,,,0,,,76,64
31800,note_off,,,,,120,0,2,,,0,,,44,64
31920,note_on,,,,,120,0,1,,,0,,,76,113
31920,note_on,,,,,0,0,1,,,0,,,68,113
31920,note_on,,,,,0,0,1,,,0,,,64,113
32000,set_tempo,,,,,228,1,0,508475,,,,,,
32040,note_off,,,,,120,0,1,,,0,,,64,64
32040,note_off,,,,,0,0,1,,,0,,,68,64
32040,note_off,,,,,0,0,1,,,0,,,76,64
32120,set_tempo,,,,,120,1,0,447761,,,,,,
32160,note_on,,,,,0,0,1,,,0,,,69,122
32160,note_on,,,,,0,0,1,,,0,,,65,122
32160,note_on,,,,,120,0,1,,,0,,,76,122
32400,note_on,,,,,600,0,2,,,0,,,60,112
32460,set_tempo,,,,,340,1,0,480000,,,,,,
32480,set_tempo,,,,,20,1,0,476190,,,,,,
32520,note_off,,,,,120,0,2,,,0,,,60,64
32612,set_tempo,,,,,132,1,0,461538,,,,,,
32640,note_on,,,,,120,0,2,,,0,,,45,121
32680,set_tempo,,,,,68,1,0,451128,,,,,,
32740,set_tempo,,,,,60,1,0,447761,,,,,,
32820,note_off,,,,,0,0,1,,,0,,,76,64
32820,note_off,,,,,0,0,1,,,0,,,69,64
32820,note_off,,,,,660,0,1,,,0,,,65,64
32880,note_on,,,,,0,0,1,,,0,,,66,113
32880,note_on,,,,,0,0,1,,,0,,,72,113
32880,note_on,,,,,60,0,1,,,0,,,76,113
33000,set_tempo,,,,,260,1,0,441176,,,,,,
33120,note_on,,,,,0,0,2,,,0,,,43,122
33120,note_off,,,,,480,0,2,,,0,,,45,64
33120,note_on,,,,,0,0,1,,,0,,,67,118
33120,note_on,,,,,0,0,1,,,0,,,72,118
33120,note_off,,,,,0,0,1,,,0,,,76,64
33120,note_on,,,,,0,0,1,,,0,,,76,118
33120,note_off,,,,,240,0,1,,,0,,,66,64
33120,note_off,,,,,0,0,1,,,0,,,72,64
33160,set_tempo,,,,,160,1,0,434783,,,,,,
33200,note_on,,,,,0,0,2,,,0,,,45,119
33200,note_off,,,,,80,0,2,,,0,,,43,64
33280,note_on,,,,,0,0,2,,,0,,,43,116
33280,note_off,,,,,80,0,2,,,0,,,45,64
33360,note_on,,,,,0,0,2,,,0,,,41,116
33360,note_on,,,,,0,0,1,,,0,,,67,110
33360,note_on,,,,,0,0,1,,,0,,,74,110
33360,note_off,,,,,0,0,1,,,0,,,72,64
33360,note_off,,,,,240,0,1,,,0,,,67,64
33360,note_off,,,,,0,0,1,,,0,,,76,64
33360,note_off,,,,,80,0,2,,,0,,,43,64
33360,note_on,,,,,0,0,1,,,0,,,71,110
33440,note_off,,,,,80,0,2,,,0,,,41,64
33440,note_on,,,,,0,0,2,,,0,,,43,111
33440,set_tempo,,,,,280,1,0,431655,,,,,,
33520,note_off,,,,,80,0,2,,,0,,,43,64
33520,note_on,,,,,0,0,2,,,0,,,41,109
33600,note_off,,,,,240,0,1,,,0,,,67,64
33600,note_off,,,,,0,0,1,,,0,,,71,64
33600,note_off,,,,,0,0,1,,,0,,,74,64
33600,note_on,,,,,0,0,1,,,0,,,79,96
33600,note_on,,,,,0,0,1,,,0,,,72,96
33600,note_on,,,,,0,0,1,,,0,,,67,96
33600,note_off,,,,,80,0,2,,,0,,,41,64
33600,note_on,,,,,0,0,2,,,0,,,40,110
33680,note_off,,,,,80,0,2,,,0,,,40,64
33680,note_on,,,,,0,0,2,,,0,,,41,106
33720,note_off,,,,,0,0,1,,,0,,,79,64
33720,note_off,,,,,120,0,1,,,0,,,67,64
33720,note_off,,,,,0,0,1,,,0,,,72,64
33760,note_off,,,,,80,0,2,,,0,,,41,64
33760,note_on,,,,,0,0,2,,,0,,,40,95
33840,note_on,,,,,120,0,1,,,0,,,71,73
33840,note_on,,,,,0,0,1,,,0,,,64,73
33840,note_on,,,,,0,0,1,,,0,,,68,73
33840,note_on,,,,,0,0,2,,,0,,,38,103
33840,note_off,,,,,80,0,2,,,0,,,40,64
33920,note_on,,,,,0,0,2,,,0,,,40,93
33920,note_off,,,,,80,0,2,,,0,,,38,64
33960,note_off,,,,,0,0,1,,,0,,,71,64
33960,note_off,,,,,0,0,1,,,0,,,68,64
33960,note_off,,,,,120,0,1,,,0,,,64,64
34000,note_off,,,,,80,0,2,,,0,,,40,64
34000,note_on,,,,,0,0,2,,,0,,,38,85
34080,note_on,,,,,0,0,2,,,0,,,36,96
34080,note_on,,,,,0,0,1,,,0,,,64,78
34080,note_on,,,,,0,0,1,,,0,,,69,78
34080,note_on,,,,,120,0,1,,,0,,,76,78
34080,note_off,,,,,80,0,2,,,0,,,38,64
34200,note_off,,,,,120,0,2,,,0,,,36,64
34200,note_off,,,,,0,0,1,,,0,,,69,64
34200,note_off,,,,,0,0,1,,,0,,,76,64
34200,note_off,,,,,120,0,1,,,0,,,64,64
34320,note_on,,,,,120,0,1,,,0,,,80,83
34320,note_on,,,,,0,0,1,,,0,,,76,83
34320,note_on,,,,,120,0,2,,,0,,,50,73
34320,note_on,,,,,0,0,1,,,0,,,71,83
34400,note_on,,,,,0,0,2,,,0,,,52,77
34400,note_off,,,,,80,0,2,,,0,,,50,64
34440,note_off,,,,,120,0,1,,,0,,,71,64
34440,note_off,,,,,0,0,1,,,0,,,80,64
34440,note_off,,,,,0,0,1,,,0,,,76,64
34480,note_on,,,,,0,0,2,,,0,,,50,80
34480,note_off,,,,,80,0,2,,,0,,,52,64
34560,note_on,,,,,0,0,2,,,0,,,48,92
34560,note_off,,,,,80,0,2,,,0,,,50,64
34560,note_on,,,,,0,0,1,,,0,,,69,87
34560,note_on,,,,,0,0,1,,,0,,,76,87
34560,note_on,,,,,120,0,1,,,0,,,81,87
34640,note_on,,,,,0,0,2,,,0,,,50,84
34640,note_off,,,,,80,0,2,,,0,,,48,64
34660,set_tempo,,,,,1220,1,0,437956,,,,,,
34680,note_off,,,,,0,0,1,,,0,,,81,64
34680,note_off,,,,,0,0,1,,,0,,,76,64
34680,note_off,,,,,120,0,1,,,0,,,69,64
34720,note_on,,,,,0,0,2,,,0,,,48,87
34720,note_off,,,,,80,0,2,,,0,,,50,64
34800,note_on,,,,,0,0,2,,,0,,,47,91
34800,note_off,,,,,80,0,2,,,0,,,48,64
34800,note_on,,,,,120,0,1,,,0,,,74,92
34800,note_on,,,,,0,0,1,,,0,,,68,92
34800,note_on,,,,,0,0,1,,,0,,,64,92
34880,note_off,,,,,80,0,2,,,0,,,47,64
34880,note_on,,,,,0,0,2,,,0,,,48,97
34880,set_tempo,,,,,220,1,0,447761,,,,,,
34920,note_off,,,,,120,0,1,,,0,,,64,64
34920,note_off,,,,,0,0,1,,,0,,,68,64
34920,note_off,,,,,0,0,1,,,0,,,74,64
34960,note_on,,,,,0,0,2,,,0,,,47,100
34960,note_off,,,,,80,0,2,,,0,,,48,64
35040,note_on,,,,,0,0,2,,,0,,,45,107
35040,note_off,,,,,80,0,2,,,0,,,47,64
35040,note_on,,,,,0,0,1,,,0,,,69,96
35040,note_on,,,,,120,0,1,,,0,,,72,96
35040,note_on,,,,,0,0,1,,,0,,,64,96
35100,set_tempo,,,,,220,1,0,451128,,,,,,
35120,note_off,,,,,80,0,2,,,0,,,45,64
35120,note_on,,,,,0,0,2,,,0,,,47,102
35160,note_off,,,,,120,0,1,,,0,,,64,64
35160,note_off,,,,,0,0,1,,,0,,,69,64
35160,note_off,,,,,0,0,1,,,0,,,72,64
35200,note_on,,,,,0,0,2,,,0,,,45,106
35200,note_off,,,,,80,0,2,,,0,,,47,64
35280,set_tempo,,,,,180,1,0,458015,,,,,,
35280,note_off,,,,,80,0,2,,,0,,,45,64
35280,note_on,,,,,0,0,2,,,0,,,43,109
35280,note_on,,,,,120,0,1,,,0,,,71,102
35280,note_on,,,,,0,0,1,,,0,,,64,102
35280,note_on,,,,,0,0,1,,,0,,,59,102
35360,note_on,,,,,0,0,2,,,0,,,45,111
35360,note_off,,,,,80,0,2,,,0,,,43,64
35400,note_off,,,,,120,0,1,,,0,,,59,64
35400,note_off,,,,,0,0,1,,,0,,,71,64
35400,note_off,,,,,0,0,1,,,0,,,64,64
35440,note_on,,,,,0,0,2,,,0,,,43,114
35440,note_off,,,,,80,0,2,,,0,,,45,64
35520,note_off,,,,,80,0,2,,,0,,,43,64
35520,note_on,,,,,0,0,2,,,0,,,42,119
35520,note_on,,,,,120,0,1,,,0,,,69,117
35520,note_on,,,,,0,0,1,,,0,,,63,117
35520,note_on,,,,,0,0,1,,,0,,,59,117
35600,note_off,,,,,80,0,2,,,0,,,42,64
35600,note_on,,,,,0,0,2,,,0,,,43,114
35620,set_tempo,,,,,340,1,0,451128,,,,,,
35640,note_off,,,,,120,0,1,,,0,,,59,64
35640,note_off,,,,,0,0,1,,,0,,,63,64
35640,note_off,,,,,0,0,1,,,0,,,69,64
35680,note_off,,,,,80,0,2,,,0,,,43,64
35680,note_on,,,,,0,0,2,,,0,,,42,117
35760,note_off,,,,,80,0,2,,,0,,,42,64
35760,note_on,,,,,120,0,1,,,0,,,69,98
35760,note_on,,,,,0,0,1,,,0,,,61,98
35760,note_on,,,,,0,0,1,,,0,,,64,98
35760,note_on,,,,,0,0,2,,,0,,,40,118
35760,control_change,,,,,0,0,1,,,0,64,96,,
35780,set_tempo,,,,,160,1,0,441176,,,,,,
35840,note_off,,,,,80,0,2,,,0,,,40,64
35840,note_on,,,,,0,0,2,,,0,,,42,121
35880,note_off,,,,,0,0,1,,,0,,,69,64
35880,note_off,,,,,0,0,1,,,0,,,64,64
35880,note_off,,,,,120,0,1,,,0,,,61,64
35900,set_tempo,,,,,120,1,0,434783,,,,,,
35920,note_on,,,,,0,0,2,,,0,,,40,121
35920,note_off,,,,,80,0,2,,,0,,,42,64
35980,control_change,,,,,100,0,1,,,0,64,0,,
36000,note_on,,,,,0,0,1,,,0,,,66,108
36000,control_change,,,,,0,0,1,,,0,64,95,,
36000,note_on,,,,,0,0,1,,,0,,,63,108
36000,note_on,,,,,20,0,1,,,0,,,69,108
36000,set_tempo,,,,,100,1,0,422535,,,,,,
36000,note_on,,,,,0,0,2,,,0,,,39,126
36000,note_off,,,,,80,0,2,,,0,,,40,64
36080,note_off,,,,,80,0,2,,,0,,,39,64
36080,note_on,,,,,0,0,2,,,0,,,40,123
36120,note_off,,,,,0,0,1,,,0,,,69,64
36120,note_off,,,,,120,0,1,,,0,,,63,64
36120,note_off,,,,,0,0,1,,,0,,,66,64
36160,note_on,,,,,0,0,2,,,0,,,39,123
36160,note_off,,,,,80,0,2,,,0,,,40,64
36230,control_change,,,,,110,0,1,,,0,64,0,,
36240,note_on,,,,,0,0,1,,,0,,,64,120
36240,note_off,,,,,80,0,2,,,0,,,39,64
36240,note_on,,,,,0,0,2,,,0,,,37,124
36240,note_on,,,,,10,0,1,,,0,,,70,120
36240,note_on,,,,,0,0,1,,,0,,,66,120
36240,control_change,,,,,0,0,1,,,0,64,95,,
36260,set_tempo,,,,,260,1,0,428571,,,,,,
36300,set_tempo,,,,,40,1,0,434783,,,,,,
36320,note_off,,,,,80,0,2,,,0,,,37,64
36320,note_on,,,,,0,0,2,,,0,,,39,125
36320,set_tempo,,,,,20,1,0,437956,,,,,,
36360,note_off,,,,,0,0,1,,,0,,,66,64
36360,note_off,,,,,0,0,1,,,0,,,70,64
36360,note_off,,,,,120,0,1,,,0,,,64,64
36400,note_off,,,,,80,0,2,,,0,,,39,64
36400,set_tempo,,,,,80,1,0,441176,,,,,,
36400,note_on,,,,,0,0,2,,,0,,,37,127
36450,control_change,,,,,90,0,1,,,0,64,0,,
36460,set_tempo,,,,,60,1,0,444444,,,,,,
36480,note_on,,,,,30,0,1,,,0,,,71,127
36480,note_off,,,,,80,0,2,,,0,,,37,64
36480,note_on,,,,,0,0,2,,,0,,,35,127
36480,control_change,,,,,0,0,1,,,0,64,96,,
36480,note_on,,,,,0,0,1,,,0,,,63,127
36480,note_on,,,,,0,0,1,,,0,,,66,127
36580,control_change,,,,,100,0,1,,,0,64,0,,
36580,set_tempo,,,,,120,1,0,500000,,,,,,
36600,note_off,,,,,120,0,2,,,0,,,35,64
36600,note_off,,,,,0,0,1,,,0,,,66,64
36600,note_off,,,,,20,0,1,,,0,,,63,64
36600,note_off,,,,,0,0,1,,,0,,,71,64
36700,set_tempo,,,,,120,1,0,461538,,,,,,
36720,note_on,,,,,0,0,2,,,0,,,47,116
36720,note_on,,,,,0,0,2,,,0,,,39,116
36720,note_on,,,,,120,0,2,,,0,,,35,116
36820,set_tempo,,,,,120,1,0,566038,,,,,,
36840,note_off,,,,,0,0,2,,,0,,,39,64
36840,note_off,,,,,120,0,2,,,0,,,47,64
36840,note_off,,,,,0,0,2,,,0,,,35,64
36940,set_tempo,,,,,120,1,0,571429,,,,,,
36960,note_on,,,,,0,0,2,,,0,,,47,127
36960,note_on,,,,,120,0,2,,,0,,,36,127
36960,note_on,,,,,0,0,2,,,0,,,40,127
37040,note_on,,,,,440,0,1,,,0,,,78,90
37040,set_tempo,,,,,100,1,0,461538,,,,,,
37120,note_on,,,,,0,0,1,,,0,,,79,94
37120,note_off,,,,,80,0,1,,,0,,,78,64
37200,note_on,,,,,0,0,1,,,0,,,81,100
37200,note_off,,,,,80,0,1,,,0,,,79,64
37280,note_on,,,,,0,0,1,,,0,,,79,106
37280,note_off,,,,,80,0,1,,,0,,,81,64
37360,note_on,,,,,0,0,1,,,0,,,78,112
37360,note_off,,,,,80,0,1,,,0,,,79,64
37440,note_off,,,,,80,0,1,,,0,,,78,64
37440,note_on,,,,,0,0,1,,,0,,,79,122
37512,note_off,,,,,72,0,1,,,0,,,79,64
37520,note_on,,,,,8,0,1,,,0,,,76,116
37592,note_off,,,,,72,0,1,,,0,,,76,64
37600,note_on,,,,,8,0,1,,,0,,,74,107
37672,note_off,,,,,72,0,1,,,0,,,74,64
37680,note_on,,,,,8,0,1,,,0,,,72,101
37752,note_off,,,,,72,0,1,,,0,,,72,64
37760,note_on,,,,,8,0,1,,,0,,,71,95
37832,note_off,,,,,72,0,1,,,0,,,71,64
37840,note_on,,,,,8,0,1,,,0,,,69,81
37912,note_off,,,,,72,0,1,,,0,,,69,64
37920,note_on,,,,,8,0,1,,,0,,,67,77
37920,note_off,,,,,960,0,2,,,0,,,47,64
37920,note_on,,,,,0,0,2,,,0,,,46,76
37992,note_off,,,,,72,0,1,,,0,,,67,64
38000,note_on,,,,,8,0,1,,,0,,,66,71
38072,note_off,,,,,72,0,1,,,0,,,66,64
38080,note_on,,,,,8,0,1,,,0,,,64,65
38152,note_off,,,,,72,0,1,,,0,,,64,64
38160,note_on,,,,,8,0,1,,,0,,,63,62
38232,note_off,,,,,72,0,1,,,0,,,63,64
38240,note_on,,,,,8,0,1,,,0,,,66,61
38312,note_off,,,,,72,0,1,,,0,,,66,64
38320,note_on,,,,,8,0,1,,,0,,,64,54
38392,note_off,,,,,72,0,1,,,0,,,64,64
38400,note_on,,,,,0,0,2,,,0,,,47,47
38400,note_on,,,,,0,0,2,,,0,,,35,47
38400,note_on,,,,,0,0,2,,,0,,,39,47
38400,note_off,,,,,0,0,2,,,0,,,36,64
38400,note_off,,,,,0,0,2,,,0,,,40,64
38400,note_off,,,,,480,0,2,,,0,,,46,64
38400,note_on,,,,,8,0,1,,,0,,,59,51
38520,note_off,,,,,120,0,2,,,0,,,47,64
38520,note_off,,,,,120,0,1,,,0,,,59,64
38520,note_off,,,,,0,0,2,,,0,,,39,64
38520,note_off,,,,,0,0,2,,,0,,,35,64
38640,note_on,,,,,0,0,2,,,0,,,59,67
38640,note_on,,,,,0,0,2,,,0,,,51,67
38640,note_on,,,,,120,0,2,,,0,,,47,67
38740,set_tempo,,,,,1700,1,0,566038,,,,,,
38760,note_off,,,,,0,0,2,,,0,,,47,64
38760,note_off,,,,,0,0,2,,,0,,,51,64
38760,note_off,,,,,120,0,2,,,0,,,59,64
38860,set_tempo,,,,,120,1,0,571429,,,,,,
38880,note_on,,,,,120,0,2,,,0,,,48,83
38880,note_on,,,,,0,0,2,,,0,,,59,83
38880,note_on,,,,,0,0,2,,,0,,,52,83
38960,note_on,,,,,440,0,1,,,0,,,90,72
38960,set_tempo,,,,,100,1,0,461538,,,,,,
39040,note_off,,,,,80,0,1,,,0,,,90,64
39040,note_on,,,,,0,0,1,,,0,,,91,70
39120,note_off,,,,,80,0,1,,,0,,,91,64
39120,note_on,,,,,0,0,1,,,0,,,93,71
39200,note_on,,,,,0,0,1,,,0,,,91,77
39200,note_off,,,,,80,0,1,,,0,,,93,64
39280,note_off,,,,,80,0,1,,,0,,,91,64
39280,note_on,,,,,0,0,1,,,0,,,90,88
39360,note_off,,,,,80,0,1,,,0,,,90,64
39360,note_on,,,,,0,0,1,,,0,,,91,94
39432,note_off,,,,,72,0,1,,,0,,,91,64
39440,note_on,,,,,8,0,1,,,0,,,88,79
39460,set_tempo,,,,,500,1,0,472441,,,,,,
39512,note_off,,,,,72,0,1,,,0,,,88,64
39520,note_on,,,,,8,0,1,,,0,,,86,81
39580,set_tempo,,,,,120,1,0,480000,,,,,,
39592,note_off,,,,,72,0,1,,,0,,,86,64
39600,note_on,,,,,8,0,1,,,0,,,84,77
39672,note_off,,,,,72,0,1,,,0,,,84,64
39680,note_on,,,,,8,0,1,,,0,,,83,67
39700,set_tempo,,,,,120,1,0,483871,,,,,,
39752,note_off,,,,,72,0,1,,,0,,,83,64
39760,note_on,,,,,8,0,1,,,0,,,81,63
39832,note_off,,,,,72,0,1,,,0,,,81,64
39840,note_on,,,,,8,0,1,,,0,,,79,59
39840,set_tempo,,,,,140,1,0,487805,,,,,,
39840,note_off,,,,,960,0,2,,,0,,,59,64
39840,note_on,,,,,0,0,2,,,0,,,58,52
39900,set_tempo,,,,,60,1,0,491803,,,,,,
39912,note_off,,,,,72,0,1,,,0,,,79,64
39920,note_on,,,,,8,0,1,,,0,,,78,55
39980,set_tempo,,,,,80,1,0,500000,,,,,,
39992,note_off,,,,,72,0,1,,,0,,,78,64
40000,note_on,,,,,8,0,1,,,0,,,76,49
40072,note_off,,,,,72,0,1,,,0,,,76,64
40080,note_on,,,,,8,0,1,,,0,,,75,46
40140,set_tempo,,,,,160,1,0,508475,,,,,,
40152,note_off,,,,,72,0,1,,,0,,,75,64
40160,note_on,,,,,8,0,1,,,0,,,78,43
40200,set_tempo,,,,,60,1,0,535714,,,,,,
40232,note_off,,,,,72,0,1,,,0,,,78,64
40240,note_on,,,,,8,0,1,,,0,,,76,40
40260,set_tempo,,,,,60,1,0,600000,,,,,,
40312,note_off,,,,,72,0,1,,,0,,,76,64
40320,note_on,,,,,8,0,1,,,0,,,71,44
40320,note_off,,,,,0,0,2,,,0,,,52,64
40320,note_off,,,,,480,0,2,,,0,,,58,64
40320,note_on,,,,,0,0,2,,,0,,,59,38
40320,note_on,,,,,0,0,2,,,0,,,47,38
40320,note_on,,,,,0,0,2,,,0,,,51,38
40320,set_tempo,,,,,60,1,0,800000,,,,,,
40320,note_off,,,,,0,0,2,,,0,,,48,64
40360,set_tempo,,,,,40,1,0,550459,,,,,,
40380,set_tempo,,,,,20,1,0,560748,,,,,,
40400,note_on,,,,,0,0,1,,,0,,,75,43
40400,note_off,,,,,80,0,1,,,0,,,71,64
40400,set_tempo,,,,,20,1,0,508475,,,,,,
40460,set_tempo,,,,,60,1,0,483871,,,,,,
40480,note_off,,,,,80,0,1,,,0,,,75,64
40480,note_on,,,,,0,0,1,,,0,,,71,41
40500,set_tempo,,,,,40,1,0,468750,,,,,,
40560,note_off,,,,,80,0,1,,,0,,,71,64
40560,note_on,,,,,0,0,1,,,0,,,66,38
40560,note_off,,,,,240,0,2,,,0,,,59,64
40560,note_off,,,,,0,0,2,,,0,,,47,64
40560,note_off,,,,,0,0,2,,,0,,,51,64
40580,set_tempo,,,,,80,1,0,461538,,,,,,
40640,note_on,,,,,0,0,1,,,0,,,63,35
40640,note_off,,,,,80,0,1,,,0,,,66,64
40720,note_off,,,,,80,0,1,,,0,,,63,64
40720,note_on,,,,,0,0,1,,,0,,,59,33
40800,note_on,,,,,0,0,2,,,0,,,51,40
40800,note_on,,,,,240,0,2,,,0,,,48,40
40800,note_on,,,,,0,0,2,,,0,,,54,40
40800,note_on,,,,,0,0,1,,,0,,,60,48
40800,note_off,,,,,80,0,1,,,0,,,59,64
40800,control_change,,,,,0,0,1,,,0,64,96,,
40880,note_on,,,,,0,0,1,,,0,,,66,47
40880,note_off,,,,,80,0,1,,,0,,,60,64
40960,note_off,,,,,80,0,1,,,0,,,66,64
40960,note_on,,,,,0,0,1,,,0,,,63,45
41040,note_off,,,,,80,0,1,,,0,,,63,64
41040,note_on,,,,,0,0,1,,,0,,,60,43
41120,note_off,,,,,80,0,1,,,0,,,60,64
41120,note_on,,,,,0,0,1,,,0,,,66,42
41200,note_on,,,,,0,0,1,,,0,,,63,39
41200,note_off,,,,,80,0,1,,,0,,,66,64
41280,note_off,,,,,80,0,1,,,0,,,63,64
41280,note_on,,,,,0,0,1,,,0,,,59,41
41280,control_change,,,,,0,0,1,,,0,64,0,,
41280,note_on,,,,,0,0,2,,,0,,,47,32
41280,note_off,,,,,480,0,2,,,0,,,48,64
41360,note_off,,,,,80,0,1,,,0,,,59,64
41360,note_on,,,,,0,0,1,,,0,,,66,40
41440,note_off,,,,,80,0,1,,,0,,,66,64
41440,note_on,,,,,0,0,1,,,0,,,63,40
41520,note_off,,,,,80,0,1,,,0,,,63,64
41520,note_on,,,,,0,0,1,,,0,,,59,40
41600,note_off,,,,,80,0,1,,,0,,,59,64
41600,note_on,,,,,0,0,1,,,0,,,66,40
41600,set_tempo,,,,,1020,1,0,468750,,,,,,
41680,note_off,,,,,80,0,1,,,0,,,66,64
41680,note_on,,,,,0,0,1,,,0,,,63,39
41700,note_off,,,,,420,0,2,,,0,,,47,64
41700,note_off,,,,,0,0,2,,,0,,,51,64
41700,note_off,,,,,0,0,2,,,0,,,54,64
41760,note_on,,,,,60,0,2,,,0,,,54,33
41760,note_on,,,,,0,0,2,,,0,,,49,33
41760,note_on,,,,,0,0,2,,,0,,,42,33
41760,note_on,,,,,0,0,1,,,0,,,58,39
41760,note_off,,,,,80,0,1,,,0,,,63,64
41840,note_on,,,,,0,0,1,,,0,,,66,39
41840,note_off,,,,,80,0,1,,,0,,,58,64
41880,set_tempo,,,,,280,1,0,472441,,,,,,
41920,note_off,,,,,80,0,1,,,0,,,66,64
41920,note_on,,,,,0,0,1,,,0,,,64,39
42000,note_on,,,,,0,0,1,,,0,,,58,38
42000,note_off,,,,,80,0,1,,,0,,,64,64
42060,set_tempo,,,,,180,1,0,483871,,,,,,
42080,note_on,,,,,0,0,1,,,0,,,66,38
42080,note_off,,,,,80,0,1,,,0,,,58,64
42160,note_on,,,,,0,0,1,,,0,,,64,38
42160,note_off,,,,,80,0,1,,,0,,,66,64
42200,set_tempo,,,,,140,1,0,491803,,,,,,
42240,note_on,,,,,0,0,2,,,0,,,54,32
42240,note_off,,,,,0,0,2,,,0,,,54,64
42240,note_off,,,,,0,0,2,,,0,,,49,64
42240,note_off,,,,,480,0,2,,,0,,,42,64
42240,note_on,,,,,0,0,2,,,0,,,47,32
42240,note_on,,,,,0,0,1,,,0,,,59,37
42240,note_off,,,,,80,0,1,,,0,,,64,64
42240,note_on,,,,,0,0,2,,,0,,,51,32
42320,note_on,,,,,0,0,1,,,0,,,63,36
42320,note_off,,,,,80,0,1,,,0,,,59,64
42400,set_tempo,,,,,200,1,0,500000,,,,,,
42400,note_off,,,,,80,0,1,,,0,,,63,64
42400,note_on,,,,,0,0,1,,,0,,,59,34
42480,note_off,,,,,80,0,1,,,0,,,59,64
42480,note_on,,,,,0,0,1,,,0,,,54,32
42480,note_off,,,,,0,0,2,,,0,,,54,64
42480,note_off,,,,,0,0,2,,,0,,,51,64
42480,note_off,,,,,240,0,2,,,0,,,47,64
42520,set_tempo,,,,,120,1,0,508475,,,,,,
42560,note_off,,,,,80,0,1,,,0,,,54,64
42560,note_on,,,,,0,0,1,,,0,,,51,30
42620,set_tempo,,,,,100,1,0,517241,,,,,,
42640,note_on,,,,,0,0,1,,,0,,,47,29
42640,note_off,,,,,80,0,1,,,0,,,51,64
42680,set_tempo,,,,,60,1,0,540541,,,,,,
42720,set_tempo,,,,,40,1,0,588235,,,,,,
42720,control_change,,,,,0,0,1,,,0,64,95,,
42720,note_on,,,,,240,0,2,,,0,,,36,52
42720,note_on,,,,,0,0,1,,,0,,,48,46
42720,note_off,,,,,80,0,1,,,0,,,47,64
42780,set_tempo,,,,,60,1,0,508475,,,,,,
42800,note_on,,,,,0,0,1,,,0,,,54,45
42800,note_off,,,,,80,0,1,,,0,,,48,64
42820,set_tempo,,,,,40,1,0,491803,,,,,,
42880,set_tempo,,,,,60,1,0,487805,,,,,,
42880,note_off,,,,,80,0,1,,,0,,,54,64
42880,note_on,,,,,0,0,1,,,0,,,51,43
42920,set_tempo,,,,,40,1,0,476190,,,,,,
42950,control_change,,,,,70,0,1,,,0,64,0,,
42960,note_off,,,,,10,0,1,,,0,,,51,64
42960,note_on,,,,,0,0,1,,,0,,,48,38
42960,control_change,,,,,0,0,1,,,0,64,96,,
42980,set_tempo,,,,,60,1,0,468750,,,,,,
43040,note_off,,,,,80,0,1,,,0,,,48,64
43040,note_on,,,,,0,0,1,,,0,,,54,37
43120,note_off,,,,,80,0,1,,,0,,,54,64
43120,note_on,,,,,0,0,1,,,0,,,51,37
43190,control_change,,,,,70,0,1,,,0,64,0,,
43200,note_off,,,,,10,0,1,,,0,,,51,64
43200,note_on,,,,,0,0,1,,,0,,,47,35
43200,note_on,,,,,0,0,2,,,0,,,35,48
43200,note_off,,,,,480,0,2,,,0,,,36,64
43220,set_tempo,,,,,240,1,0,472441,,,,,,
43280,note_off,,,,,80,0,1,,,0,,,47,64
43280,note_on,,,,,0,0,1,,,0,,,54,33
43360,note_off,,,,,80,0,1,,,0,,,54,64
43360,note_on,,,,,0,0,1,,,0,,,51,32
43440,note_off,,,,,80,0,1,,,0,,,51,64
43440,note_on,,,,,0,0,1,,,0,,,47,31
43520,note_off,,,,,80,0,1,,,0,,,47,64
43520,note_on,,,,,0,0,1,,,0,,,54,31
43580,set_tempo,,,,,360,1,0,480000,,,,,,
43600,note_off,,,,,80,0,1,,,0,,,54,64
43600,note_on,,,,,0,0,1,,,0,,,51,30
43680,note_off,,,,,480,0,2,,,0,,,35,64
43680,note_on,,,,,0,0,2,,,0,,,30,48
43680,note_on,,,,,0,0,1,,,0,,,46,30
43680,note_off,,,,,80,0,1,,,0,,,51,64
43760,note_on,,,,,0,0,1,,,0,,,54,30
43760,note_off,,,,,80,0,1,,,0,,,46,64
43800,set_tempo,,,,,220,1,0,483871,,,,,,
43840,note_on,,,,,0,0,1,,,0,,,52,30
43840,note_off,,,,,80,0,1,,,0,,,54,64
43920,note_off,,,,,80,0,1,,,0,,,52,64
43920,note_on,,,,,0,0,1,,,0,,,46,30
44000,note_off,,,,,80,0,1,,,0,,,46,64
44000,note_on,,,,,0,0,1,,,0,,,54,32
44080,note_on,,,,,0,0,1,,,0,,,52,32
44080,set_tempo,,,,,280,1,0,491803,,,,,,
44080,note_off,,,,,80,0,1,,,0,,,54,64
44160,note_off,,,,,480,0,2,,,0,,,30,64
44160,note_on,,,,,0,0,2,,,0,,,35,43
44160,note_off,,,,,80,0,1,,,0,,,52,64
44160,note_on,,,,,0,0,1,,,0,,,47,34
44240,note_on,,,,,0,0,1,,,0,,,54,35
44240,note_off,,,,,80,0,1,,,0,,,47,64
44320,note_on,,,,,0,0,1,,,0,,,51,36
44320,note_off,,,,,80,0,1,,,0,,,54,64
44400,note_off,,,,,80,0,1,,,0,,,51,64
44400,note_on,,,,,0,0,1,,,0,,,47,37
44400,set_tempo,,,,,320,1,0,500000,,,,,,
44480,note_off,,,,,80,0,1,,,0,,,47,64
44480,note_on,,,,,0,0,1,,,0,,,54,38
44560,note_off,,,,,80,0,1,,,0,,,54,64
44560,note_on,,,,,0,0,1,,,0,,,51,41
44640,note_off,,,,,480,0,2,,,0,,,35,64
44640,note_on,,,,,0,0,2,,,0,,,30,56
44640,control_change,,,,,0,0,1,,,0,64,95,,
44640,note_on,,,,,0,0,1,,,0,,,46,41
44640,note_off,,,,,80,0,1,,,0,,,51,64
44700,set_tempo,,,,,300,1,0,504202,,,,,,
44720,note_on,,,,,0,0,1,,,0,,,54,39
44720,note_off,,,,,80,0,1,,,0,,,46,64
44800,note_off,,,,,80,0,1,,,0,,,54,64
44800,note_on,,,,,0,0,1,,,0,,,52,36
44870,control_change,,,,,70,0,1,,,0,64,0,,
44880,note_off,,,,,10,0,1,,,0,,,52,64
44880,note_on,,,,,0,0,1,,,0,,,46,33
44880,control_change,,,,,0,0,1,,,0,64,95,,
44920,set_tempo,,,,,220,1,0,517241,,,,,,
44940,note_on,,,,,60,0,1,,,0,,,55,31
44960,note_off,,,,,20,0,1,,,0,,,46,64
45020,note_off,,,,,60,0,1,,,0,,,55,64
45040,note_on,,,,,20,0,1,,,0,,,52,31
45120,note_on,,,,,0,0,2,,,0,,,35,50
45120,note_off,,,,,480,0,2,,,0,,,30,64
45120,control_change,,,,,0,0,1,,,0,64,0,,
45120,set_tempo,,,,,200,1,0,530973,,,,,,
45120,note_on,,,,,0,0,1,,,0,,,47,31
45120,note_off,,,,,80,0,1,,,0,,,52,64
45200,note_on,,,,,0,0,1,,,0,,,54,36
45200,note_off,,,,,80,0,1,,,0,,,47,64
45260,set_tempo,,,,,140,1,0,545455,,,,,,
45280,note_off,,,,,80,0,1,,,0,,,54,64
45280,note_on,,,,,0,0,1,,,0,,,52,33
45360,note_off,,,,,80,0,1,,,0,,,52,64
45360,note_on,,,,,0,0,1,,,0,,,47,31
45440,note_on,,,,,0,0,1,,,0,,,54,32
45440,note_off,,,,,80,0,1,,,0,,,47,64
45460,set_tempo,,,,,200,1,0,576923,,,,,,
45520,note_on,,,,,0,0,1,,,0,,,51,34
45520,note_off,,,,,80,0,1,,,0,,,54,64
45580,set_tempo,,,,,120,1,0,638298,,,,,,
45600,note_off,,,,,80,0,1,,,0,,,51,64
45600,control_change,,,,,0,0,1,,,0,64,94,,
45600,note_off,,,,,480,0,2,,,0,,,35,64
45600,note_on,,,,,0,0,2,,,0,,,30,50
45600,note_on,,,,,0,0,1,,,0,,,46,38
45680,note_off,,,,,80,0,1,,,0,,,46,64
45680,note_on,,,,,0,0,1,,,0,,,54,36
45740,set_tempo,,,,,160,1,0,714286,,,,,,
45760,note_on,,,,,0,0,1,,,0,,,52,34
45760,note_off,,,,,80,0,1,,,0,,,54,64
45840,note_off,,,,,80,0,1,,,0,,,52,64
45840,set_tempo,,,,,100,1,0,857143,,,,,,
45840,note_on,,,,,0,0,1,,,0,,,46,34
45920,note_on,,,,,0,0,1,,,0,,,55,31
45920,note_off,,,,,80,0,1,,,0,,,46,64
46000,note_on,,,,,0,0,1,,,0,,,52,26
46000,note_off,,,,,80,0,1,,,0,,,55,64
46060,control_change,,,,,60,0,1,,,0,64,0,,
46080,note_off,,,,,480,0,2,,,0,,,30,64
46080,note_on,,,,,0,0,2,,,0,,,35,44
46080,note_on,,,,,0,0,1,,,0,,,51,29
46080,note_off,,,,,20,0,1,,,0,,,52,64
46080,note_on,,,,,0,0,1,,,0,,,54,29
46160,note_off,,,,,80,0,1,,,0,,,51,64
46160,note_off,,,,,0,0,1,,,0,,,54,64
46160,note_on,,,,,0,0,1,,,0,,,47,30
46200,set_tempo,,,,,360,1,0,594059,,,,,,
46220,set_tempo,,,,,20,1,0,588235,,,,,,
46240,note_on,,,,,0,0,1,,,0,,,46,33
46240,note_off,,,,,80,0,1,,,0,,,47,64
46320,note_off,,,,,240,0,2,,,0,,,35,64
46320,note_off,,,,,80,0,1,,,0,,,46,64
46320,note_on,,,,,0,0,1,,,0,,,47,35
46360,set_tempo,,,,,140,1,0,576923,,,,,,
46400,note_off,,,,,80,0,1,,,0,,,47,64
46400,note_on,,,,,0,0,1,,,0,,,51,37
46420,set_tempo,,,,,60,1,0,571429,,,,,,
46460,set_tempo,,,,,40,1,0,566038,,,,,,
46480,set_tempo,,,,,20,1,0,560748,,,,,,
46480,note_on,,,,,0,0,1,,,0,,,50,37
46480,note_off,,,,,80,0,1,,,0,,,51,64
46560,note_off,,,,,80,0,1,,,0,,,50,64
46560,note_on,,,,,0,0,1,,,0,,,51,39
46620,set_tempo,,,,,140,1,0,550459,,,,,,
46640,note_off,,,,,80,0,1,,,0,,,51,64
46640,note_on,,,,,0,0,1,,,0,,,54,41
46680,set_tempo,,,,,60,1,0,545455,,,,,,
46720,note_off,,,,,80,0,1,,,0,,,54,64
46720,note_on,,,,,0,0,1,,,0,,,53,43
46740,set_tempo,,,,,60,1,0,540541,,,,,,
46800,note_off,,,,,80,0,1,,,0,,,53,64
46800,note_on,,,,,0,0,1,,,0,,,54,45
46880,note_off,,,,,80,0,1,,,0,,,54,64
46880,note_on,,,,,0,0,1,,,0,,,59,47
46900,set_tempo,,,,,160,1,0,530973,,,,,,
46960,note_on,,,,,0,0,1,,,0,,,58,47
46960,note_off,,,,,80,0,1,,,0,,,59,64
47020,set_tempo,,,,,120,1,0,526316,,,,,,
47040,note_on,,,,,0,0,1,,,0,,,59,49
47040,note_off,,,,,80,0,1,,,0,,,58,64
47120,note_off,,,,,80,0,1,,,0,,,59,64
47120,note_on,,,,,0,0,1,,,0,,,63,33
47180,set_tempo,,,,,160,1,0,521739,,,,,,
47200,note_on,,,,,0,0,1,,,0,,,62,35
47200,note_off,,,,,80,0,1,,,0,,,63,64
47280,note_off,,,,,80,0,1,,,0,,,62,64
47280,note_on,,,,,0,0,1,,,0,,,63,37
47360,note_off,,,,,80,0,1,,,0,,,63,64
47360,note_on,,,,,0,0,1,,,0,,,66,41
47440,note_off,,,,,80,0,1,,,0,,,66,64
47440,note_on,,,,,0,0,1,,,0,,,65,42
47520,note_off,,,,,80,0,1,,,0,,,65,64
47520,note_on,,,,,0,0,1,,,0,,,66,43
47600,note_off,,,,,80,0,1,,,0,,,66,64
47600,note_on,,,,,0,0,1,,,0,,,71,46
47620,set_tempo,,,,,440,1,0,512821,,,,,,
47680,note_on,,,,,0,0,1,,,0,,,70,46
47680,note_off,,,,,80,0,1,,,0,,,71,64
47760,note_off,,,,,80,0,1,,,0,,,70,64
47760,note_on,,,,,0,0,1,,,0,,,71,44
47780,set_tempo,,,,,160,1,0,508475,,,,,,
47840,note_off,,,,,80,0,1,,,0,,,71,64
47840,note_on,,,,,0,0,1,,,0,,,75,42
47920,note_on,,,,,0,0,1,,,0,,,74,42
47920,note_off,,,,,80,0,1,,,0,,,75,64
47960,set_tempo,,,,,180,1,0,500000,,,,,,
48000,note_on,,,,,0,0,1,,,0,,,75,40
48000,note_off,,,,,80,0,1,,,0,,,74,64
48108,note_off,,,,,108,0,1,,,0,,,75,64
48120,note_on,,,,,12,0,1,,,0,,,76,29
48210,note_off,,,,,90,0,1,,,0,,,76,64
48240,note_on,,,,,30,0,1,,,0,,,78,31
48330,note_off,,,,,90,0,1,,,0,,,78,64
48360,note_on,,,,,30,0,1,,,0,,,76,32
48450,note_off,,,,,90,0,1,,,0,,,76,64
48480,note_on,,,,,30,0,1,,,0,,,75,35
48570,note_off,,,,,90,0,1,,,0,,,75,64
48600,note_on,,,,,30,0,1,,,0,,,73,36
48690,note_off,,,,,90,0,1,,,0,,,73,64
48720,note_on,,,,,30,0,1,,,0,,,71,38
48810,note_off,,,,,90,0,1,,,0,,,71,64
48840,note_on,,,,,30,0,1,,,0,,,70,40
48930,note_off,,,,,90,0,1,,,0,,,70,64
48960,note_on,,,,,30,0,1,,,0,,,71,40
49068,note_off,,,,,108,0,1,,,0,,,71,64
49080,note_on,,,,,12,0,1,,,0,,,73,32
49140,set_tempo,,,,,1180,1,0,504202,,,,,,
49160,set_tempo,,,,,20,1,0,508475,,,,,,
49170,note_off,,,,,90,0,1,,,0,,,73,64
49180,set_tempo,,,,,20,1,0,512821,,,,,,
49200,set_tempo,,,,,20,1,0,759494,,,,,,
49200,note_on,,,,,30,0,1,,,0,,,75,27
49260,set_tempo,,,,,60,1,0,540541,,,,,,
49260,note_off,,,,,60,0,1,,,0,,,75,64
49300,set_tempo,,,,,40,1,0,618557,,,,,,
49320,note_on,,,,,0,0,1,,,0,,,71,36
49320,note_on,,,,,0,0,1,,,0,,,75,36
49320,note_on,,,,,60,0,1,,,0,,,78,36
49340,set_tempo,,,,,40,1,0,612245,,,,,,
49380,set_tempo,,,,,40,1,0,606061,,,,,,
49410,note_off,,,,,0,0,1,,,0,,,75,64
49410,note_off,,,,,90,0,1,,,0,,,71,64
49410,note_off,,,,,0,0,1,,,0,,,78,64
49420,set_tempo,,,,,40,1,0,600000,,,,,,
49440,note_on,,,,,0,0,1,,,0,,,70,36
49440,note_on,,,,,30,0,1,,,0,,,78,36
49440,note_on,,,,,0,0,1,,,0,,,73,36
49530,note_off,,,,,90,0,1,,,0,,,70,64
49530,note_off,,,,,0,0,1,,,0,,,73,64
49530,note_off,,,,,0,0,1,,,0,,,78,64
49540,set_tempo,,,,,120,1,0,594059,,,,,,
49560,note_on,,,,,0,0,1,,,0,,,68,36
49560,set_tempo,,,,,20,1,0,588235,,,,,,
49560,note_on,,,,,30,0,1,,,0,,,78,36
49560,note_on,,,,,0,0,1,,,0,,,71,36
49640,set_tempo,,,,,80,1,0,576923,,,,,,
49650,note_off,,,,,0,0,1,,,0,,,71,64
49650,note_off,,,,,0,0,1,,,0,,,78,64
49650,note_off,,,,,90,0,1,,,0,,,68,64
49680,note_on,,,,,30,0,1,,,0,,,78,32
49680,note_on,,,,,0,0,1,,,0,,,70,32
49680,note_on,,,,,0,0,1,,,0,,,66,32
49680,set_tempo,,,,,40,1,0,582524,,,,,,
49720,set_tempo,,,,,40,1,0,600000,,,,,,
49740,set_tempo,,,,,20,1,0,606061,,,,,,
49770,note_off,,,,,90,0,1,,,0,,,66,64
49770,note_off,,,,,0,0,1,,,0,,,70,64
49770,note_off,,,,,0,0,1,,,0,,,78,64
49780,set_tempo,,,,,40,1,0,631579,,,,,,
49800,set_tempo,,,,,20,1,0,638298,,,,,,
49800,note_on,,,,,0,0,1,,,0,,,73,30
49800,note_on,,,,,0,0,1,,,0,,,64,30
49800,note_on,,,,,30,0,1,,,0,,,78,30
49820,set_tempo,,,,,20,1,0,645161,,,,,,
49840,set_tempo,,,,,20,1,0,652174,,,,,,
49860,set_tempo,,,,,20,1,0,659341,,,,,,
49890,note_off,,,,,90,0,1,,,0,,,64,64
49890,note_off,,,,,0,0,1,,,0,,,78,64
49890,note_off,,,,,0,0,1,,,0,,,73,64
49920,note_on,,,,,30,0,1,,,0,,,78,30
49920,note_on,,,,,0,0,1,,,0,,,71,30
49920,note_on,,,,,0,0,1,,,0,,,63,30
50028,note_off,,,,,108,0,1,,,0,,,63,64
50040,note_on,,,,,12,0,1,,,0,,,64,28
50060,set_tempo,,,,,200,1,0,540541,,,,,,
50080,set_tempo,,,,,20,1,0,521739,,,,,,
50130,note_off,,,,,90,0,1,,,0,,,64,64
50160,note_off,,,,,0,0,1,,,0,,,78,64
50160,note_on,,,,,0,0,1,,,0,,,66,28
50160,note_off,,,,,30,0,1,,,0,,,71,64
50250,note_off,,,,,90,0,1,,,0,,,66,64
50280,note_on,,,,,30,0,1,,,0,,,64,28
50370,note_off,,,,,90,0,1,,,0,,,64,64
50400,note_on,,,,,30,0,1,,,0,,,63,28
50420,set_tempo,,,,,340,1,0,526316,,,,,,
50460,set_tempo,,,,,40,1,0,530973,,,,,,
50490,note_off,,,,,90,0,1,,,0,,,63,64
50520,note_on,,,,,30,0,1,,,0,,,61,30
50520,set_tempo,,,,,60,1,0,535714,,,,,,
50580,set_tempo,,,,,60,1,0,540541,,,,,,
50610,note_off,,,,,90,0,1,,,0,,,61,64
50640,note_on,,,,,30,0,1,,,0,,,59,33
50660,set_tempo,,,,,80,1,0,550459,,,,,,
50730,note_off,,,,,90,0,1,,,0,,,59,64
50760,note_on,,,,,30,0,1,,,0,,,58,37
50780,set_tempo,,,,,120,1,0,555556,,,,,,
50820,set_tempo,,,,,40,1,0,560748,,,,,,
50850,note_off,,,,,90,0,1,,,0,,,58,64
50880,note_on,,,,,30,0,1,,,0,,,59,37
50940,set_tempo,,,,,120,1,0,571429,,,,,,
50960,set_tempo,,,,,20,1,0,576923,,,,,,
50986,note_off,,,,,106,0,1,,,0,,,59,64
51000,note_on,,,,,14,0,1,,,0,,,60,30
51000,set_tempo,,,,,40,1,0,582524,,,,,,
51020,set_tempo,,,,,20,1,0,588235,,,,,,
51040,set_tempo,,,,,20,1,0,606061,,,,,,
51060,set_tempo,,,,,20,1,0,612245,,,,,,
51080,set_tempo,,,,,20,1,0,618557,,,,,,
51090,note_off,,,,,90,0,1,,,0,,,60,64
51120,set_tempo,,,,,40,1,0,1016949,,,,,,
51120,note_on,,,,,30,0,1,,,0,,,61,26
51180,note_off,,,,,60,0,1,,,0,,,61,64
51180,set_tempo,,,,,60,1,0,540541,,,,,,
51240,note_on,,,,,0,0,1,,,0,,,59,33
51240,note_on,,,,,0,0,1,,,0,,,63,33
51240,note_on,,,,,60,0,1,,,0,,,71,33
51240,set_tempo,,,,,60,1,0,681818,,,,,,
51300,set_tempo,,,,,60,1,0,779221,,,,,,
51320,set_tempo,,,,,20,1,0,800000,,,,,,
51330,note_off,,,,,90,0,1,,,0,,,59,64
51330,note_off,,,,,0,0,1,,,0,,,63,64
51330,note_off,,,,,0,0,1,,,0,,,71,64
51340,set_tempo,,,,,20,1,0,810811,,,,,,
51360,note_on,,,,,30,0,1,,,0,,,71,38
51360,note_on,,,,,0,0,1,,,0,,,61,38
51360,note_on,,,,,0,0,1,,,0,,,58,38
51380,set_tempo,,,,,40,1,0,821918,,,,,,
51400,set_tempo,,,,,20,1,0,869565,,,,,,
51420,set_tempo,,,,,20,1,0,895522,,,,,,
51450,note_off,,,,,0,0,1,,,0,,,61,64
51450,note_off,,,,,90,0,1,,,0,,,58,64
51450,note_off,,,,,0,0,1,,,0,,,71,64
51460,set_tempo,,,,,40,1,0,952381,,,,,,
51480,note_on,,,,,30,0,1,,,0,,,71,34
51480,note_on,,,,,0,0,1,,,0,,,63,34
51480,set_tempo,,,,,20,1,0,983607,,,,,,
51480,note_on,,,,,0,0,1,,,0,,,59,34
51480,note_on,,,,,0,0,1,,,0,,,57,34
51500,set_tempo,,,,,20,1,0,1000000,,,,,,
51520,set_tempo,,,,,20,1,0,1016949,,,,,,
51540,set_tempo,,,,,20,1,0,1034483,,,,,,
51560,set_tempo,,,,,20,1,0,1071429,,,,,,
51570,note_off,,,,,0,0,1,,,0,,,71,64
51570,note_off,,,,,0,0,1,,,0,,,63,64
51570,note_off,,,,,0,0,1,,,0,,,59,64
51570,note_off,,,,,90,0,1,,,0,,,57,64
51580,set_tempo,,,,,20,1,0,1111111,,,,,,
51600,note_on,,,,,0,0,1,,,0,,,56,30
51600,note_on,,,,,0,0,1,,,0,,,59,30
51600,note_on,,,,,0,0,1,,,0,,,64,30
51600,note_on,,,,,30,0,1,,,0,,,71,30
51620,set_tempo,,,,,40,1,0,1153846,,,,,,
51640,set_tempo,,,,,20,1,0,1200000,,,,,,
51660,set_tempo,,,,,20,1,0,1276596,,,,,,
51690,note_off,,,,,0,0,1,,,0,,,59,64
51690,note_off,,,,,90,0,1,,,0,,,56,64
51690,note_off,,,,,0,0,1,,,0,,,71,64
51690,note_off,,,,,0,0,1,,,0,,,64,64
51700,set_tempo,,,,,40,1,0,1304348,,,,,,
51720,note_on,,,,,30,0,1,,,0,,,71,27
51720,note_on,,,,,0,0,1,,,0,,,63,27
51720,note_on,,,,,0,0,1,,,0,,,57,27
51720,set_tempo,,,,,20,1,0,1363636,,,,,,
51720,note_on,,,,,0,0,1,,,0,,,54,27
51740,set_tempo,,,,,20,1,0,1428571,,,,,,
51780,set_tempo,,,,,40,1,0,1463415,,,,,,
51800,set_tempo,,,,,20,1,0,1500000,,,,,,
51810,note_off,,,,,90,0,1,,,0,,,54,64
51810,note_off,,,,,0,0,1,,,0,,,63,64
51810,note_off,,,,,0,0,1,,,0,,,57,64
51810,note_off,,,,,0,0,1,,,0,,,71,64
51840,note_on,,,,,0,0,2,,,0,,,56,29
51840,note_on,,,,,5520,0,2,,,0,,,64,29
51840,note_on,,,,,30,0,1,,,0,,,71,32
51840,note_on,,,,,0,0,2,,,0,,,52,29
51860,set_tempo,,,,,60,1,0,461538,,,,,,
52320,note_on,,,,,0,0,1,,,0,,,76,34
52320,set_tempo,,,,,460,1,0,500000,,,,,,
52320,note_off,,,,,480,0,1,,,0,,,71,64
52320,control_change,,,,,0,0,1,,,0,64,95,,
52440,note_off,,,,,120,0,1,,,0,,,76,64
52440,note_on,,,,,0,0,1,,,0,,,75,24
52560,note_off,,,,,120,0,1,,,0,,,75,64
52560,note_on,,,,,0,0,1,,,0,,,73,29
52680,note_off,,,,,120,0,1,,,0,,,73,64
52680,note_on,,,,,0,0,1,,,0,,,71,30
52770,control_change,,,,,90,0,1,,,0,64,0,,
52780,note_off,,,,,10,0,1,,,0,,,71,64
52800,note_on,,,,,0,0,2,,,0,,,54,30
52800,note_off,,,,,960,0,2,,,0,,,52,64
52800,set_tempo,,,,,480,1,0,659341,,,,,,
52800,note_on,,,,,0,0,1,,,0,,,63,37
52800,note_off,,,,,0,0,2,,,0,,,64,64
52800,note_off,,,,,0,0,2,,,0,,,56,64
52800,note_on,,,,,20,0,1,,,0,,,71,37
52800,note_on,,,,,0,0,2,,,0,,,57,30
52860,set_tempo,,,,,60,1,0,545455,,,,,,
53010,note_off,,,,,0,0,2,,,0,,,54,64
53010,note_off,,,,,210,0,1,,,0,,,63,64
53010,note_off,,,,,0,0,1,,,0,,,71,64
53010,note_off,,,,,210,0,2,,,0,,,57,64
53040,note_on,,,,,0,0,2,,,0,,,57,32
53040,note_on,,,,,30,0,2,,,0,,,54,32
53040,note_on,,,,,30,0,1,,,0,,,71,34
53040,note_on,,,,,0,0,1,,,0,,,63,34
53040,set_tempo,,,,,180,1,0,517241,,,,,,
53220,note_off,,,,,180,0,1,,,0,,,63,64
53220,note_off,,,,,180,0,2,,,0,,,57,64
53220,note_off,,,,,0,0,2,,,0,,,54,64
53220,note_off,,,,,0,0,1,,,0,,,71,64
53280,note_on,,,,,0,0,1,,,0,,,63,32
53280,note_on,,,,,60,0,1,,,0,,,71,32
53280,note_on,,,,,60,0,2,,,0,,,54,28
53280,note_on,,,,,0,0,2,,,0,,,57,28
53300,set_tempo,,,,,260,1,0,500000,,,,,,
53460,note_off,,,,,180,0,1,,,0,,,63,64
53460,note_off,,,,,0,0,1,,,0,,,71,64
53460,note_off,,,,,180,0,2,,,0,,,57,64
53460,note_off,,,,,0,0,2,,,0,,,54,64
53520,set_tempo,,,,,220,1,0,480000,,,,,,
53520,note_on,,,,,60,0,2,,,0,,,54,27
53520,note_on,,,,,0,0,2,,,0,,,57,27
53520,note_on,,,,,60,0,1,,,0,,,71,28
53520,note_on,,,,,0,0,1,,,0,,,63,28
53700,note_off,,,,,180,0,2,,,0,,,57,64
53700,note_off,,,,,0,0,2,,,0,,,54,64
53700,note_off,,,,,0,0,1,,,0,,,71,64
53700,note_off,,,,,180,0,1,,,0,,,63,64
53760,note_on,,,,,0,0,2,,,0,,,59,33
53760,note_on,,,,,60,0,2,,,0,,,56,33
53760,note_on,,,,,0,0,1,,,0,,,64,35
53760,note_on,,,,,60,0,1,,,0,,,71,35
53760,set_tempo,,,,,240,1,0,500000,,,,,,
54000,note_off,,,,,0,0,2,,,0,,,56,64
54000,note_off,,,,,240,0,2,,,0,,,59,64
54000,note_on,,,,,0,0,2,,,0,,,56,29
54000,note_off,,,,,240,0,1,,,0,,,71,64
54000,note_on,,,,,0,0,1,,,0,,,68,31
54000,note_on,,,,,0,0,2,,,0,,,52,29
54180,set_tempo,,,,,420,1,0,759494,,,,,,
54240,note_off,,,,,240,0,2,,,0,,,56,64
54240,note_off,,,,,0,0,2,,,0,,,52,64
54240,note_off,,,,,0,0,1,,,0,,,64,64
54240,note_on,,,,,0,0,2,,,0,,,61,39
54240,set_tempo,,,,,60,1,0,545455,,,,,,
54240,control_change,,,,,0,0,1,,,0,64,96,,
54240,note_on,,,,,0,0,1,,,0,,,64,38
54240,note_off,,,,,240,0,1,,,0,,,68,64
54240,note_on,,,,,0,0,2,,,0,,,57,39
54240,note_on,,,,,0,0,1,,,0,,,73,38
54660,note_off,,,,,420,0,2,,,0,,,61,64
54660,note_off,,,,,0,0,2,,,0,,,57,64
54660,note_off,,,,,420,0,1,,,0,,,64,64
54660,note_off,,,,,0,0,1,,,0,,,73,64
54680,control_change,,,,,20,0,1,,,0,64,0,,
54720,note_on,,,,,60,0,2,,,0,,,56,31
54720,note_on,,,,,0,0,2,,,0,,,59,31
54720,set_tempo,,,,,480,1,0,495868,,,,,,
54720,note_on,,,,,0,0,1,,,0,,,64,31
54720,note_on,,,,,40,0,1,,,0,,,71,31
54960,note_off,,,,,240,0,1,,,0,,,71,64
54960,note_on,,,,,0,0,1,,,0,,,68,27
54960,note_on,,,,,0,0,2,,,0,,,56,27
54960,note_on,,,,,0,0,2,,,0,,,52,27
54960,note_off,,,,,0,0,2,,,0,,,56,64
54960,note_off,,,,,240,0,2,,,0,,,59,64
55140,set_tempo,,,,,420,1,0,857143,,,,,,
55200,note_off,,,,,0,0,2,,,0,,,52,64
55200,note_off,,,,,240,0,2,,,0,,,56,64
55200,note_on,,,,,0,0,1,,,0,,,63,28
55200,set_tempo,,,,,60,1,0,600000,,,,,,
55200,note_on,,,,,0,0,2,,,0,,,47,27
55200,control_change,,,,,0,0,1,,,0,64,97,,
55200,note_on,,,,,0,0,2,,,0,,,54,27
55200,note_off,,,,,240,0,1,,,0,,,68,64
55200,note_off,,,,,0,0,1,,,0,,,64,64
55200,note_on,,,,,0,0,1,,,0,,,66,28
55560,set_tempo,,,,,360,1,0,857143,,,,,,
55640,control_change,,,,,440,0,1,,,0,64,0,,
55680,set_tempo,,,,,120,1,0,500000,,,,,,
56100,note_off,,,,,460,0,1,,,0,,,63,64
56100,note_off,,,,,0,0,1,,,0,,,66,64
56100,note_off,,,,,0,0,2,,,0,,,54,64
56100,note_off,,,,,900,0,2,,,0,,,47,64
56280,note_on,,,,,0,0,1,,,0,,,66,23
56280,note_on,,,,,180,0,1,,,0,,,78,23
56400,note_off,,,,,0,0,1,,,0,,,78,64
56400,note_off,,,,,120,0,1,,,0,,,66,64
56400,note_on,,,,,0,0,1,,,0,,,68,26
56400,note_on,,,,,0,0,1,,,0,,,80,26
56520,note_on,,,,,0,0,1,,,0,,,69,28
56520,note_on,,,,,0,0,1,,,0,,,81,28
56520,note_off,,,,,0,0,1,,,0,,,80,64
56520,note_off,,,,,120,0,1,,,0,,,68,64
56640,note_off,,,,,120,0,1,,,0,,,69,64
56640,note_on,,,,,0,0,1,,,0,,,83,32
56640,note_on,,,,,0,0,1,,,0,,,71,32
56640,note_on,,,,,540,0,2,,,0,,,68,38
56640,note_on,,,,,0,0,2,,,0,,,64,38
56640,note_on,,,,,0,0,2,,,0,,,76,38
56640,set_tempo,,,,,960,1,0,1500000,,,,,,
56640,note_off,,,,,0,0,1,,,0,,,81,64
56660,set_tempo,,,,,20,1,0,461538,,,,,,
57120,set_tempo,,,,,460,1,0,500000,,,,,,
57120,note_on,,,,,0,0,1,,,0,,,88,34
57120,note_on,,,,,0,0,1,,,0,,,76,34
57120,control_change,,,,,0,0,1,,,0,64,95,,
57120,note_off,,,,,480,0,1,,,0,,,71,64
57120,note_off,,,,,0,0,1,,,0,,,83,64
57240,note_off,,,,,120,0,1,,,0,,,76,64
57240,note_off,,,,,0,0,1,,,0,,,88,64
57240,note_on,,,,,0,0,1,,,0,,,87,24
57240,note_on,,,,,0,0,1,,,0,,,75,24
57360,note_on,,,,,0,0,1,,,0,,,73,29
57360,note_on,,,,,0,0,1,,,0,,,85,29
57360,note_off,,,,,120,0,1,,,0,,,75,64
57360,note_off,,,,,0,0,1,,,0,,,87,64
57480,note_off,,,,,120,0,1,,,0,,,73,64
57480,note_off,,,,,0,0,1,,,0,,,85,64
57480,note_on,,,,,0,0,1,,,0,,,83,30
57480,note_on,,,,,0,0,1,,,0,,,71,30
57570,control_change,,,,,90,0,1,,,0,64,0,,
57580,note_off,,,,,10,0,1,,,0,,,71,64
57580,note_off,,,,,0,0,1,,,0,,,83,64
57600,note_on,,,,,0,0,1,,,0,,,71,37
57600,note_on,,,,,0,0,1,,,0,,,75,37
57600,note_on,,,,,0,0,2,,,0,,,66,36
57600,set_tempo,,,,,480,1,0,600000,,,,,,
57600,note_off,,,,,960,0,2,,,0,,,76,64
57600,note_off,,,,,0,0,2,,,0,,,64,64
57600,note_off,,,,,0,0,2,,,0,,,68,64
57600,note_on,,,,,20,0,1,,,0,,,83,37
57600,note_on,,,,,0,0,2,,,0,,,69,36
57620,set_tempo,,,,,20,1,0,594059,,,,,,
57660,set_tempo,,,,,40,1,0,545455,,,,,,
57810,note_off,,,,,0,0,1,,,0,,,75,64
57810,note_off,,,,,210,0,2,,,0,,,69,64
57810,note_off,,,,,0,0,2,,,0,,,66,64
57810,note_off,,,,,0,0,1,,,0,,,83,64
57810,note_off,,,,,210,0,1,,,0,,,71,64
57840,note_on,,,,,30,0,2,,,0,,,66,32
57840,note_on,,,,,0,0,1,,,0,,,71,34
57840,note_on,,,,,0,0,1,,,0,,,75,34
57840,note_on,,,,,30,0,1,,,0,,,83,34
57840,note_on,,,,,0,0,2,,,0,,,69,32
57840,set_tempo,,,,,180,1,0,517241,,,,,,
58020,note_off,,,,,180,0,2,,,0,,,69,64
58020,note_off,,,,,0,0,2,,,0,,,66,64
58020,note_off,,,,,0,0,1,,,0,,,83,64
58020,note_off,,,,,0,0,1,,,0,,,75,64
58020,note_off,,,,,180,0,1,,,0,,,71,64
58080,note_on,,,,,0,0,2,,,0,,,69,28
58080,note_on,,,,,60,0,2,,,0,,,66,28
58080,note_on,,,,,0,0,1,,,0,,,71,32
58080,note_on,,,,,0,0,1,,,0,,,75,32
58080,note_on,,,,,60,0,1,,,0,,,83,32
58100,set_tempo,,,,,260,1,0,500000,,,,,,
58260,note_off,,,,,180,0,2,,,0,,,69,64
58260,note_off,,,,,0,0,1,,,0,,,83,64
58260,note_off,,,,,0,0,1,,,0,,,75,64
58260,note_off,,,,,180,0,1,,,0,,,71,64
58260,note_off,,,,,0,0,2,,,0,,,66,64
58320,set_tempo,,,,,220,1,0,480000,,,,,,
58320,note_on,,,,,60,0,2,,,0,,,66,27
58320,note_on,,,,,0,0,1,,,0,,,75,28
58320,note_on,,,,,0,0,1,,,0,,,71,28
58320,note_on,,,,,0,0,2,,,0,,,69,27
58320,note_on,,,,,60,0,1,,,0,,,83,28
58500,note_off,,,,,180,0,1,,,0,,,71,64
58500,note_off,,,,,0,0,1,,,0,,,75,64
58500,note_off,,,,,0,0,1,,,0,,,83,64
58500,note_off,,,,,0,0,2,,,0,,,66,64
58500,note_off,,,,,180,0,2,,,0,,,69,64
58560,note_on,,,,,60,0,1,,,0,,,83,32
58560,note_on,,,,,0,0,1,,,0,,,76,32
58560,note_on,,,,,60,0,2,,,0,,,67,27
58560,set_tempo,,,,,240,1,0,500000,,,,,,
58560,note_on,,,,,0,0,2,,,0,,,71,27
58800,note_on,,,,,0,0,2,,,0,,,64,37
58800,note_on,,,,,0,0,1,,,0,,,79,40
58800,note_off,,,,,0,0,2,,,0,,,67,64
58800,note_off,,,,,240,0,2,,,0,,,71,64
58800,note_off,,,,,240,0,1,,,0,,,83,64
58800,note_on,,,,,0,0,2,,,0,,,67,37
58800,control_change,,,,,0,0,1,,,0,64,96,,
58980,set_tempo,,,,,420,1,0,606061,,,,,,
59040,note_off,,,,,240,0,2,,,0,,,64,64
59040,note_off,,,,,0,0,2,,,0,,,67,64
59040,note_on,,,,,0,0,2,,,0,,,72,47
59040,note_on,,,,,0,0,2,,,0,,,69,47
59040,note_off,,,,,240,0,1,,,0,,,79,64
59040,note_off,,,,,0,0,1,,,0,,,76,64
59040,note_on,,,,,0,0,1,,,0,,,84,46
59040,note_on,,,,,0,0,1,,,0,,,76,46
59040,set_tempo,,,,,60,1,0,545455,,,,,,
59280,note_off,,,,,240,0,1,,,0,,,76,64
59280,note_on,,,,,0,0,1,,,0,,,78,43
59480,control_change,,,,,200,0,1,,,0,64,0,,
59520,note_on,,,,,0,0,2,,,0,,,67,37
59520,note_off,,,,,0,0,2,,,0,,,72,64
59520,note_on,,,,,0,0,1,,,0,,,79,39
59520,note_on,,,,,0,0,2,,,0,,,71,37
59520,note_off,,,,,480,0,2,,,0,,,69,64
59520,note_on,,,,,0,0,1,,,0,,,83,39
59520,note_off,,,,,0,0,1,,,0,,,84,64
59520,note_off,,,,,40,0,1,,,0,,,78,64
59520,set_tempo,,,,,480,1,0,495868,,,,,,
59640,set_tempo,,,,,120,1,0,526316,,,,,,
59760,note_on,,,,,0,0,2,,,0,,,59,30
59760,note_off,,,,,240,0,1,,,0,,,79,64
59760,note_off,,,,,0,0,1,,,0,,,83,64
59760,note_on,,,,,0,0,1,,,0,,,79,32
59760,note_on,,,,,0,0,1,,,0,,,74,32
59760,note_off,,,,,240,0,2,,,0,,,71,64
59760,note_off,,,,,0,0,2,,,0,,,67,64
59760,note_on,,,,,0,0,2,,,0,,,67,30
59840,set_tempo,,,,,200,1,0,571429,,,,,,
59940,set_tempo,,,,,100,1,0,697674,,,,,,
60000,note_off,,,,,0,0,2,,,0,,,59,64
60000,note_off,,,,,240,0,2,,,0,,,67,64
60000,control_change,,,,,0,0,1,,,0,64,97,,
60000,note_on,,,,,0,0,1,,,0,,,78,23
60000,note_on,,,,,0,0,1,,,0,,,81,23
60000,note_off,,,,,0,0,1,,,0,,,79,64
60000,set_tempo,,,,,60,1,0,600000,,,,,,
60000,note_on,,,,,0,0,2,,,0,,,69,24
60000,note_on,,,,,0,0,2,,,0,,,62,24
60000,note_off,,,,,240,0,1,,,0,,,74,64
60440,control_change,,,,,440,0,1,,,0,64,0,,
60480,set_tempo,,,,,480,1,0,500000,,,,,,
60900,note_off,,,,,900,0,2,,,0,,,69,64
60900,note_off,,,,,0,0,2,,,0,,,62,64
60900,note_off,,,,,460,0,1,,,0,,,78,64
60900,note_off,,,,,0,0,1,,,0,,,81,64
60960,set_tempo,,,,,480,1,0,491803,,,,,,
61040,set_tempo,,,,,80,1,0,483871,,,,,,
61080,note_on,,,,,180,0,2,,,0,,,50,30
61140,set_tempo,,,,,100,1,0,468750,,,,,,
61200,note_off,,,,,120,0,2,,,0,,,50,64
61200,note_on,,,,,0,0,2,,,0,,,49,37
61240,set_tempo,,,,,100,1,0,461538,,,,,,
61320,note_off,,,,,120,0,2,,,0,,,49,64
61320,note_on,,,,,0,0,2,,,0,,,48,42
61440,note_on,,,,,0,0,1,,,0,,,62,37
61440,note_off,,,,,120,0,2,,,0,,,48,64
61440,note_on,,,,,0,0,2,,,0,,,47,44
61440,note_on,,,,,540,0,1,,,0,,,67,37
61560,note_on,,,,,120,0,2,,,0,,,50,29
61680,note_off,,,,,120,0,2,,,0,,,50,64
61680,note_on,,,,,0,0,2,,,0,,,55,30
61800,note_off,,,,,120,0,2,,,0,,,55,64
61800,note_on,,,,,0,0,2,,,0,,,50,30
61920,note_on,,,,,0,0,1,,,0,,,69,29
61920,note_off,,,,,120,0,2,,,0,,,50,64
61920,note_on,,,,,0,0,2,,,0,,,55,34
61920,note_off,,,,,480,0,1,,,0,,,67,64
62040,note_off,,,,,120,0,2,,,0,,,55,64
62040,note_on,,,,,0,0,2,,,0,,,50,35
62040,note_off,,,,,120,0,1,,,0,,,69,64
62040,note_on,,,,,0,0,1,,,0,,,67,35
62160,note_on,,,,,0,0,1,,,0,,,69,38
62160,note_off,,,,,120,0,1,,,0,,,67,64
62160,note_off,,,,,120,0,2,,,0,,,50,64
62160,note_on,,,,,0,0,2,,,0,,,55,40
62280,note_on,,,,,0,0,1,,,0,,,67,42
62280,note_on,,,,,0,0,2,,,0,,,50,41
62280,note_off,,,,,120,0,2,,,0,,,55,64
62280,note_off,,,,,120,0,1,,,0,,,69,64
62400,note_on,,,,,0,0,1,,,0,,,66,51
62400,note_off,,,,,120,0,1,,,0,,,67,64
62400,note_off,,,,,120,0,2,,,0,,,50,64
62400,note_off,,,,,0,0,2,,,0,,,47,64
62400,note_on,,,,,0,0,2,,,0,,,48,51
62500,set_tempo,,,,,1260,1,0,495868,,,,,,
62520,note_on,,,,,120,0,2,,,0,,,50,45
62640,control_change,,,,,0,0,1,,,0,64,95,,
62640,note_on,,,,,0,0,1,,,0,,,62,50
62640,note_on,,,,,0,0,2,,,0,,,57,46
62640,note_off,,,,,120,0,2,,,0,,,50,64
62640,set_tempo,,,,,140,1,0,461538,,,,,,
62640,note_on,,,,,0,0,1,,,0,,,66,50
62640,note_off,,,,,240,0,1,,,0,,,62,64
62640,note_off,,,,,0,0,1,,,0,,,66,64
62640,note_on,,,,,0,0,1,,,0,,,74,50
62720,set_tempo,,,,,80,1,0,472441,,,,,,
62760,note_off,,,,,120,0,2,,,0,,,57,64
62760,note_on,,,,,0,0,2,,,0,,,50,43
62820,note_off,,,,,0,0,1,,,0,,,66,64
62820,note_off,,,,,180,0,1,,,0,,,62,64
62820,note_off,,,,,0,0,1,,,0,,,74,64
62820,set_tempo,,,,,100,1,0,483871,,,,,,
62880,note_on,,,,,60,0,1,,,0,,,74,39
62880,note_on,,,,,0,0,2,,,0,,,57,35
62880,note_on,,,,,0,0,1,,,0,,,66,39
62880,note_on,,,,,0,0,1,,,0,,,62,39
62880,control_change,,,,,0,0,1,,,0,64,0,,
62880,note_off,,,,,120,0,2,,,0,,,50,64
62980,set_tempo,,,,,160,1,0,491803,,,,,,
63000,note_off,,,,,120,0,2,,,0,,,57,64
63000,note_on,,,,,0,0,2,,,0,,,50,30
63060,note_off,,,,,0,0,1,,,0,,,66,64
63060,note_off,,,,,180,0,1,,,0,,,62,64
63060,note_off,,,,,0,0,1,,,0,,,74,64
63100,set_tempo,,,,,120,1,0,500000,,,,,,
63120,note_on,,,,,0,0,2,,,0,,,57,24
63120,note_off,,,,,120,0,2,,,0,,,50,64
63120,note_on,,,,,0,0,1,,,0,,,62,32
63120,note_on,,,,,0,0,1,,,0,,,66,32
63120,note_on,,,,,60,0,1,,,0,,,74,32
63220,set_tempo,,,,,120,1,0,512821,,,,,,
63240,note_on,,,,,0,0,2,,,0,,,50,22
63240,note_off,,,,,120,0,2,,,0,,,57,64
63300,note_off,,,,,0,0,1,,,0,,,74,64
63300,set_tempo,,,,,80,1,0,521739,,,,,,
63300,note_off,,,,,0,0,1,,,0,,,66,64
63300,note_off,,,,,180,0,1,,,0,,,62,64
63360,note_off,,,,,120,0,2,,,0,,,50,64
63360,note_on,,,,,60,0,1,,,0,,,67,37
63360,note_on,,,,,0,0,1,,,0,,,62,37
63360,note_on,,,,,0,0,2,,,0,,,47,38
63360,set_tempo,,,,,60,1,0,461538,,,,,,
63360,note_off,,,,,0,0,2,,,0,,,48,64
63480,note_on,,,,,120,0,2,,,0,,,50,29
63600,note_on,,,,,0,0,2,,,0,,,55,30
63600,note_off,,,,,120,0,2,,,0,,,50,64
63600,set_tempo,,,,,240,1,0,451128,,,,,,
63600,note_off,,,,,240,0,1,,,0,,,67,64
63600,note_on,,,,,0,0,1,,,0,,,66,30
63720,note_off,,,,,120,0,1,,,0,,,66,64
63720,note_on,,,,,0,0,1,,,0,,,67,36
63720,note_off,,,,,120,0,2,,,0,,,55,64
63720,note_on,,,,,0,0,2,,,0,,,50,30
63740,set_tempo,,,,,140,1,0,447761,,,,,,
63840,note_off,,,,,120,0,2,,,0,,,50,64
63840,note_on,,,,,0,0,2,,,0,,,55,34
63840,note_off,,,,,120,0,1,,,0,,,67,64
63840,note_on,,,,,0,0,1,,,0,,,72,40
63940,set_tempo,,,,,200,1,0,437956,,,,,,
63960,note_on,,,,,0,0,2,,,0,,,50,35
63960,note_off,,,,,120,0,1,,,0,,,72,64
63960,note_on,,,,,0,0,1,,,0,,,71,39
63960,note_off,,,,,120,0,2,,,0,,,55,64
64080,note_off,,,,,120,0,2,,,0,,,50,64
64080,note_on,,,,,0,0,2,,,0,,,55,40
64080,set_tempo,,,,,140,1,0,441176,,,,,,
64080,note_on,,,,,0,0,1,,,0,,,69,47
64080,note_off,,,,,120,0,1,,,0,,,71,64
64200,set_tempo,,,,,120,1,0,447761,,,,,,
64200,note_off,,,,,120,0,2,,,0,,,55,64
64200,note_on,,,,,0,0,1,,,0,,,67,52
64200,note_off,,,,,120,0,1,,,0,,,69,64
64200,note_on,,,,,0,0,2,,,0,,,50,41
64300,set_tempo,,,,,100,1,0,454545,,,,,,
64320,note_on,,,,,0,0,2,,,0,,,48,51
64320,note_on,,,,,0,0,1,,,0,,,66,52
64320,note_off,,,,,0,0,2,,,0,,,47,64
64320,note_off,,,,,120,0,1,,,0,,,67,64
64320,note_off,,,,,120,0,2,,,0,,,50,64
64420,set_tempo,,,,,120,1,0,521739,,,,,,
64440,note_on,,,,,120,0,2,,,0,,,50,45
64560,note_on,,,,,0,0,1,,,0,,,62,50
64560,note_off,,,,,240,0,1,,,0,,,62,64
64560,note_off,,,,,0,0,1,,,0,,,66,64
64560,note_on,,,,,0,0,1,,,0,,,74,50
64560,note_on,,,,,0,0,1,,,0,,,66,50
64560,note_on,,,,,0,0,2,,,0,,,57,46
64560,control_change,,,,,0,0,1,,,0,64,95,,
64560,note_off,,,,,120,0,2,,,0,,,50,64
64560,set_tempo,,,,,140,1,0,461538,,,,,,
64600,set_tempo,,,,,40,1,0,508475,,,,,,
64620,set_tempo,,,,,20,1,0,521739,,,,,,
64660,set_tempo,,,,,40,1,0,566038,,,,,,
64680,note_off,,,,,120,0,2,,,0,,,57,64
64680,note_on,,,,,0,0,2,,,0,,,50,43
64740,note_off,,,,,0,0,1,,,0,,,66,64
64740,note_off,,,,,180,0,1,,,0,,,62,64
64740,note_off,,,,,0,0,1,,,0,,,74,64
64800,note_on,,,,,0,0,1,,,0,,,62,39
64800,note_on,,,,,0,0,1,,,0,,,66,39
64800,note_on,,,,,60,0,1,,,0,,,74,39
64800,control_change,,,,,0,0,1,,,0,64,0,,
64800,note_off,,,,,120,0,2,,,0,,,50,64
64800,note_on,,,,,0,0,2,,,0,,,57,35
64900,set_tempo,,,,,240,1,0,588235,,,,,,
64920,note_on,,,,,0,0,2,,,0,,,50,30
64920,note_off,,,,,120,0,2,,,0,,,57,64
64980,note_off,,,,,0,0,1,,,0,,,74,64
64980,note_off,,,,,0,0,1,,,0,,,66,64
64980,note_off,,,,,180,0,1,,,0,,,62,64
65020,set_tempo,,,,,120,1,0,618557,,,,,,
65040,note_on,,,,,0,0,2,,,0,,,57,24
65040,note_off,,,,,120,0,2,,,0,,,50,64
65040,note_on,,,,,60,0,1,,,0,,,74,32
65040,note_on,,,,,0,0,1,,,0,,,62,32
65040,set_tempo,,,,,20,1,0,625000,,,,,,
65040,note_on,,,,,0,0,1,,,0,,,66,32
65160,note_on,,,,,0,0,2,,,0,,,50,22
65160,set_tempo,,,,,120,1,0,638298,,,,,,
65160,note_off,,,,,120,0,2,,,0,,,57,64
65200,set_tempo,,,,,40,1,0,674157,,,,,,
65220,note_off,,,,,180,0,1,,,0,,,62,64
65220,note_off,,,,,0,0,1,,,0,,,66,64
65220,note_off,,,,,0,0,1,,,0,,,74,64
65280,note_off,,,,,0,0,2,,,0,,,48,64
65280,note_on,,,,,0,0,1,,,0,,,67,37
65280,set_tempo,,,,,80,1,0,458015,,,,,,
65280,note_on,,,,,0,0,2,,,0,,,47,47
65280,note_on,,,,,60,0,1,,,0,,,74,37
65280,note_off,,,,,120,0,2,,,0,,,50,64
65400,note_on,,,,,120,0,2,,,0,,,50,29
65460,set_tempo,,,,,180,1,0,454545,,,,,,
65480,set_tempo,,,,,20,1,0,451128,,,,,,
65520,note_off,,,,,120,0,2,,,0,,,50,64
65520,note_on,,,,,0,0,2,,,0,,,55,30
65640,note_off,,,,,120,0,2,,,0,,,55,64
65640,note_on,,,,,0,0,2,,,0,,,50,30
65760,note_on,,,,,0,0,1,,,0,,,73,46
65760,control_change,,,,,0,0,1,,,0,64,95,,
65760,note_off,,,,,120,0,2,,,0,,,50,64
65760,note_on,,,,,0,0,2,,,0,,,55,34
65760,note_off,,,,,480,0,1,,,0,,,74,64
65780,set_tempo,,,,,300,1,0,447761,,,,,,
65880,note_on,,,,,0,0,2,,,0,,,50,35
65880,note_on,,,,,0,0,1,,,0,,,74,54
65880,note_off,,,,,120,0,1,,,0,,,73,64
65880,note_off,,,,,120,0,2,,,0,,,55,64
66000,note_on,,,,,0,0,2,,,0,,,55,40
66000,note_on,,,,,0,0,1,,,0,,,79,55
66000,note_off,,,,,120,0,1,,,0,,,74,64
66000,note_off,,,,,120,0,2,,,0,,,50,64
66120,note_on,,,,,0,0,2,,,0,,,50,41
66120,note_off,,,,,120,0,2,,,0,,,55,64
66120,note_off,,,,,120,0,1,,,0,,,79,64
66120,note_on,,,,,0,0,1,,,0,,,78,66
66140,set_tempo,,,,,360,1,0,444444,,,,,,
66210,control_change,,,,,90,0,1,,,0,64,0,,
66240,set_tempo,,,,,100,1,0,461538,,,,,,
66240,note_off,,,,,120,0,2,,,0,,,50,64
66240,note_off,,,,,0,0,2,,,0,,,47,64
66240,note_on,,,,,0,0,2,,,0,,,35,51
66240,control_change,,,,,0,0,1,,,0,64,95,,
66240,note_on,,,,,0,0,1,,,0,,,76,70
66240,note_off,,,,,30,0,1,,,0,,,78,64
66360,note_off,,,,,120,0,2,,,0,,,35,64
66360,note_on,,,,,0,0,2,,,0,,,57,51
66460,set_tempo,,,,,220,1,0,437956,,,,,,
66480,note_on,,,,,0,0,1,,,0,,,66,60
66480,note_on,,,,,0,0,1,,,0,,,75,60
66480,note_off,,,,,120,0,2,,,0,,,57,64
66480,note_off,,,,,240,0,1,,,0,,,67,64
66480,note_on,,,,,0,0,2,,,0,,,47,55
66480,note_off,,,,,0,0,1,,,0,,,76,64
66600,note_off,,,,,120,0,2,,,0,,,47,64
66600,note_on,,,,,0,0,2,,,0,,,57,59
66660,note_off,,,,,180,0,1,,,0,,,66,64
66660,note_off,,,,,0,0,1,,,0,,,75,64
66720,note_on,,,,,60,0,1,,,0,,,75,72
66720,note_on,,,,,0,0,1,,,0,,,66,72
66720,note_off,,,,,120,0,2,,,0,,,57,64
66720,note_on,,,,,0,0,2,,,0,,,47,61
66800,set_tempo,,,,,340,1,0,431655,,,,,,
66840,note_off,,,,,120,0,2,,,0,,,47,64
66840,note_on,,,,,0,0,2,,,0,,,57,68
66900,note_off,,,,,180,0,1,,,0,,,66,64
66900,note_off,,,,,0,0,1,,,0,,,75,64
66960,set_tempo,,,,,160,1,0,422535,,,,,,
66960,note_on,,,,,60,0,1,,,0,,,75,85
66960,note_on,,,,,0,0,1,,,0,,,66,85
66960,note_off,,,,,120,0,2,,,0,,,57,64
66960,note_on,,,,,0,0,2,,,0,,,48,73
67080,note_off,,,,,120,0,2,,,0,,,48,64
67080,note_on,,,,,0,0,2,,,0,,,57,73
67140,note_off,,,,,180,0,1,,,0,,,66,64
67140,note_off,,,,,0,0,1,,,0,,,75,64
67180,control_change,,,,,40,0,1,,,0,64,0,,
67200,note_on,,,,,20,0,1,,,0,,,76,88
67200,note_on,,,,,0,0,2,,,0,,,49,87
67200,note_off,,,,,120,0,2,,,0,,,57,64
67200,control_change,,,,,0,0,1,,,0,64,95,,
67200,note_on,,,,,0,0,1,,,0,,,64,88
67320,note_on,,,,,0,0,2,,,0,,,56,77
67320,note_off,,,,,120,0,2,,,0,,,49,64
67440,note_off,,,,,120,0,2,,,0,,,56,64
67440,note_on,,,,,0,0,2,,,0,,,52,70
67560,note_off,,,,,120,0,2,,,0,,,52,64
67560,note_on,,,,,0,0,2,,,0,,,49,62
67660,control_change,,,,,460,0,1,,,0,64,0,,
67680,control_change,,,,,0,0,1,,,0,64,95,,
67680,note_on,,,,,0,0,1,,,0,,,75,58
67680,note_off,,,,,20,0,1,,,0,,,76,64
67680,note_on,,,,,0,0,2,,,0,,,45,57
67680,note_off,,,,,120,0,2,,,0,,,49,64
67800,note_off,,,,,120,0,2,,,0,,,45,64
67800,note_on,,,,,0,0,2,,,0,,,57,53
67900,control_change,,,,,220,0,1,,,0,64,0,,
67920,note_on,,,,,0,0,2,,,0,,,52,46
67920,note_off,,,,,20,0,1,,,0,,,75,64
67920,note_on,,,,,0,0,1,,,0,,,73,44
67920,control_change,,,,,0,0,1,,,0,64,95,,
67920,note_off,,,,,120,0,2,,,0,,,57,64
68040,note_off,,,,,120,0,2,,,0,,,52,64
68040,note_on,,,,,0,0,2,,,0,,,49,40
68130,note_off,,,,,210,0,1,,,0,,,73,64
68140,control_change,,,,,10,0,1,,,0,64,0,,
68160,note_off,,,,,120,0,2,,,0,,,49,64
68160,note_on,,,,,0,0,2,,,0,,,47,44
68160,note_off,,,,,20,0,1,,,0,,,64,64
68160,note_on,,,,,0,0,1,,,0,,,71,51
68160,control_change,,,,,0,0,1,,,0,64,95,,
68280,note_off,,,,,120,0,1,,,0,,,71,64
68280,note_on,,,,,0,0,1,,,0,,,59,36
68340,set_tempo,,,,,1380,1,0,416667,,,,,,
68400,note_on,,,,,0,0,1,,,0,,,64,48
68400,note_off,,,,,120,0,1,,,0,,,59,64
68400,note_on,,,,,240,0,2,,,0,,,52,38
68400,note_on,,,,,0,0,2,,,0,,,56,38
68440,set_tempo,,,,,100,1,0,410959,,,,,,
68520,note_on,,,,,0,0,1,,,0,,,68,53
68520,note_off,,,,,120,0,1,,,0,,,64,64
68620,set_tempo,,,,,180,1,0,416667,,,,,,
68640,note_on,,,,,0,0,2,,,0,,,57,53
68640,note_on,,,,,0,0,2,,,0,,,54,53
68640,note_off,,,,,0,0,2,,,0,,,52,64
68640,note_off,,,,,120,0,1,,,0,,,68,64
68640,note_on,,,,,0,0,1,,,0,,,66,57
68640,note_off,,,,,240,0,2,,,0,,,56,64
68740,set_tempo,,,,,120,1,0,422535,,,,,,
68760,note_off,,,,,120,0,1,,,0,,,66,64
68760,note_on,,,,,0,0,1,,,0,,,69,52
68840,set_tempo,,,,,100,1,0,428571,,,,,,
68880,note_off,,,,,240,0,2,,,0,,,57,64
68880,note_off,,,,,0,0,2,,,0,,,54,64
68880,note_on,,,,,0,0,2,,,0,,,59,44
68880,note_on,,,,,0,0,2,,,0,,,51,44
68880,note_off,,,,,120,0,1,,,0,,,69,64
68880,note_on,,,,,0,0,1,,,0,,,63,46
68980,set_tempo,,,,,140,1,0,437956,,,,,,
69000,note_off,,,,,120,0,1,,,0,,,63,64
69000,note_on,,,,,0,0,1,,,0,,,71,38
69090,control_change,,,,,90,0,1,,,0,64,0,,
69100,note_off,,,,,10,0,1,,,0,,,71,64
69120,note_off,,,,,240,0,2,,,0,,,51,64
69120,note_on,,,,,20,0,1,,,0,,,59,51
69120,control_change,,,,,0,0,1,,,0,64,95,,
69120,note_off,,,,,0,0,2,,,0,,,59,64
69120,note_off,,,,,0,0,2,,,0,,,47,64
69120,note_on,,,,,0,0,2,,,0,,,35,44
69200,set_tempo,,,,,220,1,0,422535,,,,,,
69240,note_off,,,,,120,0,1,,,0,,,59,64
69240,note_on,,,,,0,0,1,,,0,,,47,36
69320,set_tempo,,,,,120,1,0,416667,,,,,,
69360,note_on,,,,,0,0,1,,,0,,,52,48
69360,note_off,,,,,120,0,1,,,0,,,47,64
69480,note_on,,,,,0,0,1,,,0,,,56,53
69480,note_off,,,,,120,0,1,,,0,,,52,64
69480,set_tempo,,,,,160,1,0,410959,,,,,,
69600,note_on,,,,,0,0,1,,,0,,,49,57
69600,note_off,,,,,120,0,1,,,0,,,56,64
69680,set_tempo,,,,,200,1,0,416667,,,,,,
69720,note_on,,,,,0,0,1,,,0,,,57,52
69720,note_off,,,,,120,0,1,,,0,,,49,64
69760,set_tempo,,,,,80,1,0,422535,,,,,,
69820,set_tempo,,,,,60,1,0,437956,,,,,,
69840,note_on,,,,,0,0,1,,,0,,,51,46
69840,note_off,,,,,120,0,1,,,0,,,57,64
69900,set_tempo,,,,,80,1,0,441176,,,,,,
69960,note_off,,,,,120,0,1,,,0,,,51,64
69960,note_on,,,,,0,0,1,,,0,,,59,38
70000,set_tempo,,,,,100,1,0,447761,,,,,,
70050,control_change,,,,,90,0,1,,,0,64,0,,
70060,note_off,,,,,10,0,1,,,0,,,59,64
70080,note_on,,,,,0,0,2,,,0,,,59,44
70080,note_on,,,,,20,0,1,,,0,,,71,44
70080,note_off,,,,,960,0,2,,,0,,,35,64
70100,set_tempo,,,,,100,1,0,444444,,,,,,
70158,note_off,,,,,78,0,1,,,0,,,71,64
70160,note_on,,,,,2,0,1,,,0,,,70,35
70238,note_off,,,,,78,0,1,,,0,,,70,64
70240,note_on,,,,,2,0,1,,,0,,,71,35
70240,set_tempo,,,,,140,1,0,437956,,,,,,
70318,note_off,,,,,78,0,1,,,0,,,71,64
70320,note_on,,,,,2,0,1,,,0,,,72,39
70320,note_on,,,,,240,0,2,,,0,,,64,38
70320,note_on,,,,,0,0,2,,,0,,,68,38
70398,note_off,,,,,78,0,1,,,0,,,72,64
70400,note_on,,,,,2,0,1,,,0,,,73,40
70478,note_off,,,,,78,0,1,,,0,,,73,64
70480,note_on,,,,,2,0,1,,,0,,,74,47
70500,set_tempo,,,,,260,1,0,434783,,,,,,
70558,note_off,,,,,78,0,1,,,0,,,74,64
70560,note_on,,,,,0,0,2,,,0,,,66,53
70560,note_off,,,,,240,0,2,,,0,,,68,64
70560,note_on,,,,,2,0,1,,,0,,,73,47
70560,note_off,,,,,0,0,2,,,0,,,64,64
70560,note_on,,,,,0,0,2,,,0,,,69,53
70638,note_off,,,,,78,0,1,,,0,,,73,64
70640,note_on,,,,,2,0,1,,,0,,,75,50
70718,note_off,,,,,78,0,1,,,0,,,75,64
70720,note_on,,,,,2,0,1,,,0,,,76,55
70798,note_off,,,,,78,0,1,,,0,,,76,64
70800,note_on,,,,,0,0,2,,,0,,,63,43
70800,note_on,,,,,0,0,2,,,0,,,71,43
70800,note_off,,,,,0,0,2,,,0,,,66,64
70800,note_off,,,,,240,0,2,,,0,,,69,64
70800,note_on,,,,,2,0,1,,,0,,,77,55
70800,set_tempo,,,,,300,1,0,425532,,,,,,
70878,note_off,,,,,78,0,1,,,0,,,77,64
70880,note_on,,,,,2,0,1,,,0,,,78,62
70880,set_tempo,,,,,80,1,0,416667,,,,,,
70958,note_off,,,,,78,0,1,,,0,,,78,64
70960,set_tempo,,,,,80,1,0,410959,,,,,,
70960,note_on,,,,,2,0,1,,,0,,,79,68
71038,note_off,,,,,78,0,1,,,0,,,79,64
71040,note_on,,,,,0,0,2,,,0,,,47,35
71040,note_off,,,,,0,0,2,,,0,,,71,64
71040,note_off,,,,,240,0,2,,,0,,,63,64
71040,note_on,,,,,2,0,1,,,0,,,80,77
71040,note_off,,,,,0,0,2,,,0,,,59,64
71080,set_tempo,,,,,120,1,0,405405,,,,,,
71118,note_off,,,,,78,0,1,,,0,,,80,64
71120,note_on,,,,,2,0,1,,,0,,,78,79
71198,note_off,,,,,78,0,1,,,0,,,78,64
71200,note_on,,,,,2,0,1,,,0,,,76,75
71278,note_off,,,,,78,0,1,,,0,,,76,64
71280,note_on,,,,,0,0,2,,,0,,,56,33
71280,note_on,,,,,240,0,2,,,0,,,52,33
71280,note_on,,,,,2,0,1,,,0,,,75,69
71340,set_tempo,,,,,260,1,0,416667,,,,,,
71358,note_off,,,,,78,0,1,,,0,,,75,64
71360,note_on,,,,,2,0,1,,,0,,,76,66
71438,note_off,,,,,78,0,1,,,0,,,76,64
71440,note_on,,,,,2,0,1,,,0,,,73,60
71500,set_tempo,,,,,160,1,0,425532,,,,,,
71518,note_off,,,,,78,0,1,,,0,,,73,64
71520,note_on,,,,,2,0,1,,,0,,,72,56
71520,note_off,,,,,240,0,2,,,0,,,56,64
71520,note_off,,,,,0,0,2,,,0,,,52,64
71520,note_on,,,,,0,0,2,,,0,,,54,38
71520,note_on,,,,,0,0,2,,,0,,,57,38
71598,note_off,,,,,78,0,1,,,0,,,72,64
71600,note_on,,,,,2,0,1,,,0,,,73,52
71678,note_off,,,,,78,0,1,,,0,,,73,64
71680,note_on,,,,,2,0,1,,,0,,,69,49
71720,set_tempo,,,,,220,1,0,434783,,,,,,
71758,note_off,,,,,78,0,1,,,0,,,69,64
71760,note_on,,,,,0,0,2,,,0,,,59,27
71760,note_on,,,,,0,0,2,,,0,,,51,27
71760,note_on,,,,,2,0,1,,,0,,,68,47
71760,note_off,,,,,0,0,2,,,0,,,54,64
71760,note_off,,,,,240,0,2,,,0,,,57,64
71780,set_tempo,,,,,60,1,0,437956,,,,,,
71838,note_off,,,,,78,0,1,,,0,,,68,64
71840,note_on,,,,,2,0,1,,,0,,,69,46
71918,note_off,,,,,78,0,1,,,0,,,69,64
71920,note_on,,,,,2,0,1,,,0,,,66,45
71998,note_off,,,,,78,0,1,,,0,,,66,64
72000,note_on,,,,,2,0,1,,,0,,,65,50
72078,note_off,,,,,78,0,1,,,0,,,65,64
72080,note_on,,,,,2,0,1,,,0,,,66,44
72080,set_tempo,,,,,300,1,0,447761,,,,,,
72158,note_off,,,,,78,0,1,,,0,,,66,64
72160,note_on,,,,,2,0,1,,,0,,,63,44
72238,note_off,,,,,78,0,1,,,0,,,63,64
72240,note_on,,,,,2,0,1,,,0,,,62,44
72240,note_off,,,,,0,0,2,,,0,,,59,64
72240,note_off,,,,,480,0,2,,,0,,,47,64
72240,note_off,,,,,0,0,2,,,0,,,51,64
72318,note_off,,,,,78,0,1,,,0,,,62,64
72320,note_on,,,,,2,0,1,,,0,,,63,44
72340,set_tempo,,,,,260,1,0,458015,,,,,,
72398,note_off,,,,,78,0,1,,,0,,,63,64
72400,note_on,,,,,2,0,1,,,0,,,59,44
72478,note_off,,,,,78,0,1,,,0,,,59,64
72480,note_on,,,,,2,0,1,,,0,,,58,48
72558,note_off,,,,,78,0,1,,,0,,,58,64
72560,note_on,,,,,2,0,1,,,0,,,59,44
72580,set_tempo,,,,,240,1,0,465116,,,,,,
72638,note_off,,,,,78,0,1,,,0,,,59,64
72640,note_on,,,,,2,0,1,,,0,,,58,44
72660,set_tempo,,,,,80,1,0,468750,,,,,,
72718,note_off,,,,,78,0,1,,,0,,,58,64
72720,note_on,,,,,2,0,1,,,0,,,59,44
72798,note_off,,,,,78,0,1,,,0,,,59,64
72800,note_on,,,,,2,0,1,,,0,,,61,44
72820,set_tempo,,,,,160,1,0,472441,,,,,,
72878,note_off,,,,,78,0,1,,,0,,,61,64
72880,note_on,,,,,2,0,1,,,0,,,59,42
72940,set_tempo,,,,,120,1,0,487805,,,,,,
72958,note_off,,,,,78,0,1,,,0,,,59,64
72960,note_on,,,,,2,0,1,,,0,,,58,42
73038,note_off,,,,,78,0,1,,,0,,,58,64
73040,note_on,,,,,2,0,1,,,0,,,59,39
73118,note_off,,,,,78,0,1,,,0,,,59,64
73120,note_on,,,,,2,0,1,,,0,,,58,38
73198,note_off,,,,,78,0,1,,,0,,,58,64
73200,note_on,,,,,2,0,1,,,0,,,59,34
73220,set_tempo,,,,,280,1,0,500000,,,,,,
73278,note_off,,,,,78,0,1,,,0,,,59,64
73280,note_on,,,,,2,0,1,,,0,,,61,32
73300,set_tempo,,,,,80,1,0,517241,,,,,,
73358,note_off,,,,,78,0,1,,,0,,,61,64
73360,note_on,,,,,2,0,1,,,0,,,59,30
73380,set_tempo,,,,,80,1,0,526316,,,,,,
73438,note_off,,,,,78,0,1,,,0,,,59,64
73440,note_on,,,,,2,0,1,,,0,,,61,34
73440,set_tempo,,,,,60,1,0,545455,,,,,,
73518,note_off,,,,,78,0,1,,,0,,,61,64
73520,note_on,,,,,2,0,1,,,0,,,59,28
73540,set_tempo,,,,,100,1,0,571429,,,,,,
73598,note_off,,,,,78,0,1,,,0,,,59,64
73600,note_on,,,,,2,0,1,,,0,,,61,27
73640,set_tempo,,,,,100,1,0,582524,,,,,,
73660,set_tempo,,,,,20,1,0,606061,,,,,,
73678,note_off,,,,,78,0,1,,,0,,,61,64
73680,note_on,,,,,2,0,1,,,0,,,59,26
73758,note_off,,,,,78,0,1,,,0,,,59,64
73760,set_tempo,,,,,100,1,0,645161,,,,,,
73760,note_on,,,,,2,0,1,,,0,,,61,25
73800,set_tempo,,,,,40,1,0,779221,,,,,,
73838,note_off,,,,,78,0,1,,,0,,,61,64
73840,note_on,,,,,2,0,1,,,0,,,59,25
73840,set_tempo,,,,,40,1,0,952381,,,,,,
73900,note_off,,,,,60,0,1,,,0,,,59,64
73920,note_on,,,,,20,0,1,,,0,,,59,32
73920,note_on,,,,,1680,0,2,,,0,,,52,29
73920,note_on,,,,,0,0,2,,,0,,,40,29
73920,note_on,,,,,0,0,2,,,0,,,44,29
73920,set_tempo,,,,,80,1,0,1500000,,,,,,
73940,set_tempo,,,,,20,1,0,461538,,,,,,
74400,note_off,,,,,480,0,1,,,0,,,59,64
74400,note_on,,,,,0,0,1,,,0,,,64,34
74400,control_change,,,,,0,0,1,,,0,64,95,,
74400,set_tempo,,,,,460,1,0,500000,,,,,,
74520,note_off,,,,,120,0,1,,,0,,,64,64
74520,note_on,,,,,0,0,1,,,0,,,63,24
74640,note_off,,,,,120,0,1,,,0,,,63,64
74640,note_on,,,,,0,0,1,,,0,,,61,29
74760,note_off,,,,,120,0,1,,,0,,,61,64
74760,note_on,,,,,0,0,1,,,0,,,59,30
74850,control_change,,,,,90,0,1,,,0,64,0,,
74860,note_off,,,,,10,0,1,,,0,,,59,64
74880,note_off,,,,,960,0,2,,,0,,,40,64
74880,set_tempo,,,,,480,1,0,659341,,,,,,
74880,note_on,,,,,0,0,2,,,0,,,45,30
74880,note_on,,,,,0,0,2,,,0,,,42,30
74880,note_on,,,,,0,0,1,,,0,,,51,37
74880,note_on,,,,,20,0,1,,,0,,,59,37
74880,note_off,,,,,0,0,2,,,0,,,52,64
74880,note_off,,,,,0,0,2,,,0,,,44,64
74940,set_tempo,,,,,60,1,0,545455,,,,,,
75090,note_off,,,,,210,0,1,,,0,,,51,64
75090,note_off,,,,,210,0,2,,,0,,,45,64
75090,note_off,,,,,0,0,2,,,0,,,42,64
75090,note_off,,,,,0,0,1,,,0,,,59,64
75100,set_tempo,,,,,160,1,0,517241,,,,,,
75120,note_on,,,,,30,0,1,,,0,,,59,34
75120,note_on,,,,,30,0,2,,,0,,,42,32
75120,note_on,,,,,0,0,2,,,0,,,45,32
75120,note_on,,,,,0,0,1,,,0,,,51,34
75300,note_off,,,,,180,0,1,,,0,,,51,64
75300,note_off,,,,,0,0,1,,,0,,,59,64
75300,note_off,,,,,180,0,2,,,0,,,45,64
75300,note_off,,,,,0,0,2,,,0,,,42,64
75360,note_on,,,,,60,0,1,,,0,,,59,32
75360,note_on,,,,,60,0,2,,,0,,,42,28
75360,note_on,,,,,0,0,2,,,0,,,45,28
75360,note_on,,,,,0,0,1,,,0,,,51,32
75540,note_off,,,,,0,0,1,,,0,,,59,64
75540,note_off,,,,,180,0,1,,,0,,,51,64
75540,note_off,,,,,180,0,2,,,0,,,45,64
75540,note_off,,,,,0,0,2,,,0,,,42,64
75600,note_on,,,,,60,0,1,,,0,,,59,28
75600,note_on,,,,,0,0,1,,,0,,,51,28
75600,note_on,,,,,0,0,2,,,0,,,45,27
75600,note_on,,,,,60,0,2,,,0,,,42,27
75780,note_off,,,,,180,0,1,,,0,,,51,64
75780,note_off,,,,,0,0,1,,,0,,,59,64
75780,note_off,,,,,0,0,2,,,0,,,42,64
75780,note_off,,,,,180,0,2,,,0,,,45,64
75840,note_on,,,,,0,0,1,,,0,,,52,33
75840,note_on,,,,,0,0,2,,,0,,,44,35
75840,control_change,,,,,0,0,1,,,0,64,95,,
75840,note_on,,,,,60,0,2,,,0,,,40,35
75840,note_on,,,,,60,0,1,,,0,,,59,33
76290,note_off,,,,,450,0,1,,,0,,,52,64
76290,note_off,,,,,0,0,1,,,0,,,59,64
76290,note_off,,,,,0,0,2,,,0,,,40,64
76290,note_off,,,,,450,0,2,,,0,,,44,64
76320,note_on,,,,,0,0,2,,,0,,,45,28
76320,note_on,,,,,0,0,1,,,0,,,51,28
76320,note_on,,,,,30,0,1,,,0,,,59,32
76320,note_on,,,,,30,0,2,,,0,,,42,28
76330,control_change,,,,,10,0,1,,,0,64,0,,
76500,set_tempo,,,,,1400,1,0,540541,,,,,,
76530,note_off,,,,,210,0,2,,,0,,,45,64
76530,note_off,,,,,0,0,1,,,0,,,59,64
76530,note_off,,,,,200,0,1,,,0,,,51,64
76530,note_off,,,,,0,0,2,,,0,,,42,64
76560,note_on,,,,,30,0,2,,,0,,,42,28
76560,note_on,,,,,0,0,1,,,0,,,51,28
76560,note_on,,,,,30,0,1,,,0,,,59,28
76560,note_on,,,,,0,0,2,,,0,,,45,28
76640,set_tempo,,,,,140,1,0,545455,,,,,,
76740,note_off,,,,,180,0,1,,,0,,,51,64
76740,note_off,,,,,0,0,1,,,0,,,59,64
76740,note_off,,,,,180,0,2,,,0,,,45,64
76740,note_off,,,,,0,0,2,,,0,,,42,64
76800,note_on,,,,,0,0,2,,,0,,,44,34
76800,note_on,,,,,60,0,2,,,0,,,40,34
76800,control_change,,,,,0,0,1,,,0,64,96,,
76800,note_on,,,,,0,0,1,,,0,,,52,30
76800,note_on,,,,,60,0,1,,,0,,,59,30
77240,control_change,,,,,440,0,1,,,0,64,0,,
77250,note_off,,,,,0,0,2,,,0,,,40,64
77250,note_off,,,,,450,0,2,,,0,,,44,64
77250,note_off,,,,,10,0,1,,,0,,,52,64
77250,note_off,,,,,0,0,1,,,0,,,59,64
77260,set_tempo,,,,,620,1,0,1276596,,,,,,
77280,set_tempo,,,,,20,1,0,588235,,,,,,
77280,note_on,,,,,0,0,2,,,0,,,45,28
77280,note_on,,,,,0,0,1,,,0,,,51,27
77280,note_on,,,,,30,0,2,,,0,,,42,28
77280,note_on,,,,,30,0,1,,,0,,,59,27
77380,set_tempo,,,,,100,1,0,606061,,,,,,
77490,note_off,,,,,210,0,1,,,0,,,51,64
77490,note_off,,,,,0,0,2,,,0,,,42,64
77490,note_off,,,,,0,0,1,,,0,,,59,64
77490,note_off,,,,,210,0,2,,,0,,,45,64
77500,set_tempo,,,,,120,1,0,645161,,,,,,
77520,note_on,,,,,0,0,2,,,0,,,45,24
77520,note_on,,,,,30,0,2,,,0,,,42,24
77520,note_on,,,,,30,0,1,,,0,,,59,23
77520,note_on,,,,,0,0,1,,,0,,,51,23
77580,set_tempo,,,,,80,1,0,697674,,,,,,
77660,set_tempo,,,,,80,1,0,740741,,,,,,
77700,set_tempo,,,,,40,1,0,1090909,,,,,,
77730,note_off,,,,,0,0,2,,,0,,,42,64
77730,note_off,,,,,210,0,1,,,0,,,51,64
77730,note_off,,,,,0,0,1,,,0,,,59,64
77730,note_off,,,,,210,0,2,,,0,,,45,64
77760,note_on,,,,,0,0,1,,,0,,,52,53
77760,note_on,,,,,30,0,1,,,0,,,59,53
77760,set_tempo,,,,,60,1,0,666667,,,,,,
77760,note_on,,,,,0,0,2,,,0,,,44,41
77760,note_on,,,,,30,0,2,,,0,,,40,81
77780,set_tempo,,,,,20,1,0,483871,,,,,,
77840,set_tempo,,,,,60,1,0,472441,,,,,,
77940,note_off,,,,,180,0,2,,,0,,,40,64
77970,note_off,,,,,210,0,1,,,0,,,52,64
77970,note_off,,,,,0,0,1,,,0,,,59,64
77970,note_off,,,,,30,0,2,,,0,,,44,64
78000,note_on,,,,,30,0,2,,,0,,,40,61
78180,note_off,,,,,180,0,2,,,0,,,40,64
78240,note_on,,,,,270,0,1,,,0,,,45,86
78240,note_on,,,,,60,0,2,,,0,,,41,97
78420,note_off,,,,,180,0,1,,,0,,,45,64
78480,note_on,,,,,60,0,1,,,0,,,45,62
78660,note_off,,,,,180,0,1,,,0,,,45,64
78720,note_on,,,,,0,0,2,,,0,,,42,86
78720,note_off,,,,,480,0,2,,,0,,,41,64
78720,note_on,,,,,60,0,1,,,0,,,46,85
78780,note_off,,,,,60,0,1,,,0,,,46,64
78800,note_on,,,,,20,0,1,,,0,,,47,80
78860,note_off,,,,,60,0,1,,,0,,,47,64
78880,note_on,,,,,20,0,1,,,0,,,48,85
78900,note_off,,,,,180,0,2,,,0,,,42,64
78940,note_off,,,,,60,0,1,,,0,,,48,64
78960,note_on,,,,,60,0,2,,,0,,,42,63
78960,note_on,,,,,20,0,1,,,0,,,49,92
79020,note_off,,,,,60,0,1,,,0,,,49,64
79040,note_on,,,,,20,0,1,,,0,,,50,92
79100,note_off,,,,,60,0,1,,,0,,,50,64
79120,note_on,,,,,20,0,1,,,0,,,51,97
79140,note_off,,,,,180,0,2,,,0,,,42,64
79180,note_off,,,,,60,0,1,,,0,,,51,64
79200,note_on,,,,,60,0,2,,,0,,,43,83
79200,note_on,,,,,0,0,1,,,0,,,47,100
79200,note_on,,,,,20,0,1,,,0,,,52,100
79260,note_off,,,,,60,0,2,,,0,,,43,64
79280,note_on,,,,,20,0,2,,,0,,,42,76
79340,note_off,,,,,60,0,2,,,0,,,42,64
79360,note_on,,,,,20,0,2,,,0,,,43,86
79380,note_off,,,,,180,0,1,,,0,,,47,64
79420,note_off,,,,,60,0,2,,,0,,,43,64
79440,note_on,,,,,20,0,2,,,0,,,45,91
79440,note_on,,,,,60,0,1,,,0,,,47,78
79480,set_tempo,,,,,1640,1,0,468750,,,,,,
79500,note_off,,,,,60,0,2,,,0,,,45,64
79520,note_on,,,,,20,0,2,,,0,,,43,77
79580,note_off,,,,,60,0,2,,,0,,,43,64
79600,note_on,,,,,20,0,2,,,0,,,42,85
79620,note_off,,,,,180,0,1,,,0,,,47,64
79660,note_off,,,,,60,0,2,,,0,,,42,64
79680,note_on,,,,,20,0,2,,,0,,,43,99
79680,note_on,,,,,0,0,1,,,0,,,53,109
79680,note_off,,,,,60,0,1,,,0,,,52,64
79680,note_on,,,,,0,0,1,,,0,,,47,99
79758,note_off,,,,,78,0,1,,,0,,,47,64
79760,note_on,,,,,2,0,1,,,0,,,46,83
79838,note_off,,,,,78,0,1,,,0,,,46,64
79840,note_on,,,,,2,0,1,,,0,,,47,92
79918,note_off,,,,,78,0,1,,,0,,,47,64
79920,note_off,,,,,240,0,2,,,0,,,43,64
79920,note_on,,,,,0,0,2,,,0,,,44,109
79920,note_on,,,,,2,0,1,,,0,,,48,102
79998,note_off,,,,,78,0,1,,,0,,,48,64
80000,note_on,,,,,2,0,1,,,0,,,50,99
80078,note_off,,,,,78,0,1,,,0,,,50,64
80078,note_off,,,,,0,0,1,,,0,,,53,64
80080,note_on,,,,,2,0,1,,,0,,,48,90
80120,set_tempo,,,,,640,1,0,465116,,,,,,
80158,note_off,,,,,78,0,1,,,0,,,48,64
80160,note_off,,,,,240,0,2,,,0,,,44,64
80160,note_on,,,,,0,0,1,,,0,,,47,108
80160,note_on,,,,,2,0,1,,,0,,,53,108
80160,note_on,,,,,0,0,2,,,0,,,43,99
80238,note_off,,,,,78,0,1,,,0,,,53,64
80240,note_on,,,,,2,0,1,,,0,,,52,104
80318,note_off,,,,,78,0,1,,,0,,,52,64
80320,note_on,,,,,2,0,1,,,0,,,53,94
80398,note_off,,,,,78,0,1,,,0,,,53,64
80400,note_on,,,,,2,0,1,,,0,,,55,97
80478,note_off,,,,,78,0,1,,,0,,,55,64
80480,note_on,,,,,2,0,1,,,0,,,56,84
80558,note_off,,,,,0,0,1,,,0,,,47,64
80558,note_off,,,,,78,0,1,,,0,,,56,64
80560,set_tempo,,,,,440,1,0,461538,,,,,,
80560,note_on,,,,,2,0,1,,,0,,,53,74
80580,note_off,,,,,420,0,2,,,0,,,43,64
80638,note_off,,,,,78,0,1,,,0,,,53,64
80640,note_on,,,,,60,0,2,,,0,,,60,108
80640,note_on,,,,,0,0,1,,,0,,,48,81
80640,note_on,,,,,2,0,1,,,0,,,52,81
80760,set_tempo,,,,,200,1,0,458015,,,,,,
80820,note_off,,,,,180,0,2,,,0,,,60,64
80850,note_off,,,,,210,0,1,,,0,,,48,64
80850,note_off,,,,,0,0,1,,,0,,,52,64
80880,note_on,,,,,60,0,2,,,0,,,60,83
81060,note_off,,,,,180,0,2,,,0,,,60,64
81060,set_tempo,,,,,300,1,0,560748,,,,,,
81120,set_tempo,,,,,60,1,0,451128,,,,,,
81120,note_on,,,,,270,0,1,,,0,,,65,81
81120,note_on,,,,,60,0,2,,,0,,,61,117
81300,note_off,,,,,180,0,1,,,0,,,65,64
81360,note_on,,,,,60,0,1,,,0,,,65,66
81540,note_off,,,,,180,0,1,,,0,,,65,64
81600,note_on,,,,,60,0,1,,,0,,,66,77
81600,set_tempo,,,,,480,1,0,447761,,,,,,
81600,note_off,,,,,480,0,2,,,0,,,61,64
81600,note_on,,,,,0,0,2,,,0,,,62,100
81660,note_off,,,,,60,0,1,,,0,,,66,64
81680,note_on,,,,,20,0,1,,,0,,,67,82
81740,note_off,,,,,60,0,1,,,0,,,67,64
81760,note_on,,,,,20,0,1,,,0,,,68,84
81780,note_off,,,,,180,0,2,,,0,,,62,64
81820,note_off,,,,,60,0,1,,,0,,,68,64
81840,note_on,,,,,60,0,2,,,0,,,62,77
81840,note_on,,,,,20,0,1,,,0,,,69,95
81900,note_off,,,,,60,0,1,,,0,,,69,64
81920,note_on,,,,,20,0,1,,,0,,,70,90
81980,note_off,,,,,60,0,1,,,0,,,70,64
82000,note_on,,,,,20,0,1,,,0,,,71,94
82020,note_off,,,,,180,0,2,,,0,,,62,64
82060,note_off,,,,,60,0,1,,,0,,,71,64
82080,note_on,,,,,20,0,1,,,0,,,72,100
82080,note_on,,,,,0,0,1,,,0,,,67,100
82080,note_on,,,,,60,0,2,,,0,,,63,96
82140,note_off,,,,,60,0,2,,,0,,,63,64
82160,note_on,,,,,20,0,2,,,0,,,62,92
82180,set_tempo,,,,,580,1,0,444444,,,,,,
82220,note_off,,,,,60,0,2,,,0,,,62,64
82240,note_on,,,,,20,0,2,,,0,,,63,95
82260,note_off,,,,,180,0,1,,,0,,,67,64
82300,note_off,,,,,60,0,2,,,0,,,63,64
82320,note_on,,,,,60,0,1,,,0,,,67,80
82320,note_on,,,,,20,0,2,,,0,,,65,100
82380,note_off,,,,,60,0,2,,,0,,,65,64
82400,note_on,,,,,20,0,2,,,0,,,63,95
82460,note_off,,,,,60,0,2,,,0,,,63,64
82480,note_on,,,,,20,0,2,,,0,,,62,99
82500,note_off,,,,,180,0,1,,,0,,,67,64
82540,note_off,,,,,60,0,2,,,0,,,62,64
82560,note_on,,,,,20,0,2,,,0,,,63,103
82560,note_on,,,,,0,0,1,,,0,,,73,109
82560,note_on,,,,,0,0,1,,,0,,,67,99
82560,note_off,,,,,60,0,1,,,0,,,72,64
82638,note_off,,,,,78,0,1,,,0,,,67,64
82640,note_on,,,,,2,0,1,,,0,,,66,83
82718,note_off,,,,,78,0,1,,,0,,,66,64
82720,note_on,,,,,2,0,1,,,0,,,67,92
82798,note_off,,,,,78,0,1,,,0,,,67,64
82800,note_on,,,,,0,0,2,,,0,,,64,109
82800,note_off,,,,,240,0,2,,,0,,,63,64
82800,note_on,,,,,2,0,1,,,0,,,68,102
82878,note_off,,,,,78,0,1,,,0,,,68,64
82880,note_on,,,,,2,0,1,,,0,,,70,99
82958,note_off,,,,,78,0,1,,,0,,,70,64
82958,note_off,,,,,0,0,1,,,0,,,73,64
82960,note_on,,,,,2,0,1,,,0,,,68,90
83038,note_off,,,,,78,0,1,,,0,,,68,64
83040,note_off,,,,,240,0,2,,,0,,,64,64
83040,note_on,,,,,0,0,2,,,0,,,63,99
83040,note_on,,,,,0,0,1,,,0,,,67,108
83040,note_on,,,,,2,0,1,,,0,,,73,108
83118,note_off,,,,,78,0,1,,,0,,,73,64
83120,note_on,,,,,2,0,1,,,0,,,72,104
83198,note_off,,,,,78,0,1,,,0,,,72,64
83200,note_on,,,,,2,0,1,,,0,,,73,94
83278,note_off,,,,,78,0,1,,,0,,,73,64
83280,note_on,,,,,2,0,1,,,0,,,75,97
83320,set_tempo,,,,,1140,1,0,441176,,,,,,
83358,note_off,,,,,78,0,1,,,0,,,75,64
83360,note_on,,,,,2,0,1,,,0,,,76,84
83438,note_off,,,,,78,0,1,,,0,,,76,64
83438,note_off,,,,,0,0,1,,,0,,,67,64
83440,note_on,,,,,2,0,1,,,0,,,73,74
83460,note_off,,,,,420,0,2,,,0,,,63,64
83518,note_off,,,,,78,0,1,,,0,,,73,64
83520,note_on,,,,,2,0,1,,,0,,,72,87
83520,note_on,,,,,60,0,2,,,0,,,44,117
83520,note_on,,,,,0,0,1,,,0,,,68,87
83700,note_off,,,,,180,0,2,,,0,,,44,64
83730,note_off,,,,,210,0,1,,,0,,,68,64
83730,note_off,,,,,0,0,1,,,0,,,72,64
83760,note_on,,,,,60,0,2,,,0,,,44,102
83880,set_tempo,,,,,560,1,0,437956,,,,,,
83940,note_off,,,,,180,0,2,,,0,,,44,64
83940,set_tempo,,,,,60,1,0,508475,,,,,,
84000,note_on,,,,,270,0,1,,,0,,,49,118
84000,set_tempo,,,,,60,1,0,437956,,,,,,
84000,note_on,,,,,60,0,2,,,0,,,45,123
84180,note_off,,,,,180,0,1,,,0,,,49,64
84240,note_on,,,,,60,0,1,,,0,,,49,97
84420,note_off,,,,,180,0,1,,,0,,,49,64
84440,set_tempo,,,,,440,1,0,434783,,,,,,
84480,note_off,,,,,480,0,2,,,0,,,45,64
84480,note_on,,,,,0,0,2,,,0,,,46,120
84480,note_on,,,,,60,0,1,,,0,,,50,109
84540,note_off,,,,,60,0,1,,,0,,,50,64
84560,note_on,,,,,20,0,1,,,0,,,51,112
84620,note_off,,,,,60,0,1,,,0,,,51,64
84640,note_on,,,,,20,0,1,,,0,,,52,115
84660,note_off,,,,,180,0,2,,,0,,,46,64
84700,note_off,,,,,60,0,1,,,0,,,52,64
84720,note_on,,,,,20,0,1,,,0,,,53,118
84720,note_on,,,,,60,0,2,,,0,,,46,97
84780,note_off,,,,,60,0,1,,,0,,,53,64
84800,note_on,,,,,20,0,1,,,0,,,54,114
84860,note_off,,,,,60,0,1,,,0,,,54,64
84880,note_on,,,,,20,0,1,,,0,,,55,119
84900,note_off,,,,,180,0,2,,,0,,,46,64
84920,set_tempo,,,,,480,1,0,431655,,,,,,
84940,note_off,,,,,60,0,1,,,0,,,55,64
84960,note_on,,,,,60,0,2,,,0,,,47,108
84960,note_on,,,,,20,0,1,,,0,,,56,122
84960,note_on,,,,,0,0,1,,,0,,,51,122
85020,note_off,,,,,60,0,2,,,0,,,47,64
85040,note_on,,,,,20,0,2,,,0,,,46,113
85100,note_off,,,,,60,0,2,,,0,,,46,64
85120,note_on,,,,,20,0,2,,,0,,,47,116
85140,note_off,,,,,180,0,1,,,0,,,51,64
85180,note_off,,,,,60,0,2,,,0,,,47,64
85200,note_on,,,,,60,0,1,,,0,,,51,103
85200,note_on,,,,,20,0,2,,,0,,,49,118
85240,set_tempo,,,,,320,1,0,428571,,,,,,
85260,note_off,,,,,60,0,2,,,0,,,49,64
85280,set_tempo,,,,,40,1,0,425532,,,,,,
85280,note_on,,,,,20,0,2,,,0,,,47,114
85340,note_off,,,,,60,0,2,,,0,,,47,64
85360,note_on,,,,,20,0,2,,,0,,,46,118
85380,note_off,,,,,180,0,1,,,0,,,51,64
85420,note_off,,,,,60,0,2,,,0,,,46,64
85440,note_off,,,,,60,0,1,,,0,,,56,64
85440,note_on,,,,,20,0,2,,,0,,,47,122
85440,note_on,,,,,0,0,1,,,0,,,51,119
85440,note_on,,,,,0,0,1,,,0,,,57,119
85518,note_off,,,,,78,0,1,,,0,,,51,64
85520,note_on,,,,,2,0,1,,,0,,,50,107
85598,note_off,,,,,78,0,1,,,0,,,50,64
85600,note_on,,,,,2,0,1,,,0,,,51,113
85600,set_tempo,,,,,320,1,0,422535,,,,,,
85678,note_off,,,,,78,0,1,,,0,,,51,64
85680,note_off,,,,,240,0,2,,,0,,,47,64
85680,note_on,,,,,2,0,1,,,0,,,52,117
85680,note_on,,,,,0,0,2,,,0,,,48,109
85758,note_off,,,,,78,0,1,,,0,,,52,64
85760,note_on,,,,,2,0,1,,,0,,,54,111
85838,note_off,,,,,0,0,1,,,0,,,57,64
85838,note_off,,,,,78,0,1,,,0,,,54,64
85840,note_on,,,,,2,0,1,,,0,,,52,111
85918,note_off,,,,,78,0,1,,,0,,,52,64
85920,note_on,,,,,2,0,1,,,0,,,57,112
85920,note_on,,,,,0,0,1,,,0,,,51,112
85920,note_off,,,,,240,0,2,,,0,,,48,64
85920,note_on,,,,,0,0,2,,,0,,,47,99
85998,note_off,,,,,78,0,1,,,0,,,57,64
86000,note_on,,,,,2,0,1,,,0,,,56,104
86040,set_tempo,,,,,440,1,0,419580,,,,,,
86078,note_off,,,,,78,0,1,,,0,,,56,64
86080,note_on,,,,,2,0,1,,,0,,,57,94
86158,note_off,,,,,78,0,1,,,0,,,57,64
86160,note_on,,,,,2,0,1,,,0,,,59,97
86238,note_off,,,,,78,0,1,,,0,,,59,64
86240,note_on,,,,,2,0,1,,,0,,,60,84
86318,note_off,,,,,78,0,1,,,0,,,60,64
86318,note_off,,,,,0,0,1,,,0,,,51,64
86320,note_on,,,,,2,0,1,,,0,,,57,74
86340,note_off,,,,,420,0,2,,,0,,,47,64
86398,note_off,,,,,78,0,1,,,0,,,57,64
86400,control_change,,,,,60,0,2,,,0,7,80,,
86400,note_on,,,,,0,0,2,,,0,,,52,117
86400,note_on,,,,,0,0,1,,,0,,,56,87
86400,control_change,,,,,2,0,1,,,0,7,80,,
86518,control_change,,,,,118,0,1,,,0,7,81,,
86518,control_change,,,,,118,0,2,,,0,7,81,,
86540,set_tempo,,,,,500,1,0,416667,,,,,,
86608,note_off,,,,,90,0,2,,,0,,,52,64
86638,control_change,,,,,30,0,2,,,0,7,82,,
86638,control_change,,,,,120,0,1,,,0,7,82,,
86640,note_on,,,,,2,0,2,,,0,,,52,102
86642,note_off,,,,,4,0,1,,,0,,,56,64
86758,control_change,,,,,118,0,2,,,0,7,83,,
86758,control_change,,,,,116,0,1,,,0,7,83,,
86820,note_off,,,,,62,0,2,,,0,,,52,64
86878,control_change,,,,,120,0,1,,,0,7,84,,
86878,control_change,,,,,58,0,2,,,0,7,84,,
86880,note_on,,,,,2,0,1,,,0,,,57,118
86880,note_on,,,,,2,0,2,,,0,,,53,123
86998,control_change,,,,,118,0,1,,,0,7,85,,
86998,control_change,,,,,118,0,2,,,0,7,85,,
87088,note_off,,,,,90,0,1,,,0,,,57,64
87118,control_change,,,,,30,0,1,,,0,7,86,,
87118,control_change,,,,,120,0,2,,,0,7,86,,
87120,note_on,,,,,2,0,1,,,0,,,57,98
87140,set_tempo,,,,,600,1,0,413793,,,,,,
87238,control_change,,,,,118,0,1,,,0,7,87,,
87238,control_change,,,,,120,0,2,,,0,7,87,,
87300,note_off,,,,,62,0,1,,,0,,,57,64
87358,control_change,,,,,120,0,2,,,0,7,88,,
87358,control_change,,,,,58,0,1,,,0,7,88,,
87360,note_off,,,,,2,0,2,,,0,,,53,64
87360,note_on,,,,,0,0,2,,,0,,,53,120
87360,note_on,,,,,2,0,1,,,0,,,69,90
87360,note_on,,,,,0,0,2,,,0,,,60,120
87420,set_tempo,,,,,280,1,0,410959,,,,,,
87420,note_off,,,,,60,0,1,,,0,,,69,64
87440,note_on,,,,,20,0,1,,,0,,,70,94
87478,control_change,,,,,118,0,2,,,0,7,89,,
87478,control_change,,,,,38,0,1,,,0,7,89,,
87500,note_off,,,,,22,0,1,,,0,,,70,64
87520,note_on,,,,,20,0,1,,,0,,,71,99
87568,note_off,,,,,0,0,2,,,0,,,60,64
87568,note_off,,,,,90,0,2,,,0,,,53,64
87580,note_off,,,,,60,0,1,,,0,,,71,64
87598,control_change,,,,,30,0,2,,,0,7,90,,
87598,control_change,,,,,18,0,1,,,0,7,90,,
87600,note_on,,,,,2,0,1,,,0,,,72,103
87600,note_on,,,,,0,0,2,,,0,,,53,95
87600,note_on,,,,,2,0,2,,,0,,,60,95
87640,set_tempo,,,,,220,1,0,408163,,,,,,
87660,note_off,,,,,60,0,1,,,0,,,72,64
87680,note_on,,,,,20,0,1,,,0,,,73,108
87718,control_change,,,,,118,0,2,,,0,7,91,,
87718,control_change,,,,,38,0,1,,,0,7,91,,
87740,note_off,,,,,22,0,1,,,0,,,73,64
87760,note_on,,,,,20,0,1,,,0,,,74,112
87780,note_off,,,,,62,0,2,,,0,,,53,64
87780,note_off,,,,,0,0,2,,,0,,,60,64
87820,note_off,,,,,60,0,1,,,0,,,74,64
87838,control_change,,,,,18,0,1,,,0,7,92,,
87838,control_change,,,,,58,0,2,,,0,7,92,,
87840,note_on,,,,,0,0,1,,,0,,,69,117
87840,note_on,,,,,2,0,2,,,0,,,54,105
87840,note_on,,,,,2,0,1,,,0,,,75,117
87900,note_off,,,,,60,0,2,,,0,,,54,64
87920,note_on,,,,,20,0,2,,,0,,,55,106
87958,control_change,,,,,118,0,1,,,0,7,93,,
87958,control_change,,,,,38,0,2,,,0,7,93,,
87980,note_off,,,,,22,0,2,,,0,,,55,64
88000,note_on,,,,,20,0,2,,,0,,,56,110
88048,note_off,,,,,90,0,1,,,0,,,69,64
88048,note_off,,,,,0,0,1,,,0,,,75,64
88060,note_off,,,,,60,0,2,,,0,,,56,64
88078,control_change,,,,,18,0,2,,,0,7,94,,
88078,control_change,,,,,30,0,1,,,0,7,94,,
88080,note_on,,,,,2,0,1,,,0,,,75,92
88080,note_on,,,,,2,0,2,,,0,,,57,110
88080,note_on,,,,,0,0,1,,,0,,,69,92
88140,note_off,,,,,60,0,2,,,0,,,57,64
88160,note_on,,,,,20,0,2,,,0,,,58,112
88198,control_change,,,,,118,0,1,,,0,7,95,,
88198,control_change,,,,,38,0,2,,,0,7,95,,
88220,note_off,,,,,22,0,2,,,0,,,58,64
88240,note_on,,,,,20,0,2,,,0,,,59,114
88260,note_off,,,,,62,0,1,,,0,,,69,64
88260,note_off,,,,,0,0,1,,,0,,,75,64
88280,set_tempo,,,,,640,1,0,405405,,,,,,
88300,note_off,,,,,60,0,2,,,0,,,59,64
88318,control_change,,,,,58,0,1,,,0,7,96,,
88318,control_change,,,,,18,0,2,,,0,7,96,,
88320,note_on,,,,,0,0,2,,,0,,,54,118
88320,note_on,,,,,2,0,1,,,0,,,75,101
88320,note_on,,,,,2,0,2,,,0,,,60,118
88340,set_tempo,,,,,60,1,0,402685,,,,,,
88380,note_off,,,,,60,0,1,,,0,,,75,64
88400,note_on,,,,,20,0,1,,,0,,,76,105
88438,control_change,,,,,118,0,2,,,0,7,97,,
88438,control_change,,,,,38,0,1,,,0,7,97,,
88460,note_off,,,,,22,0,1,,,0,,,76,64
88480,note_on,,,,,20,0,1,,,0,,,77,110
88528,note_off,,,,,0,0,2,,,0,,,60,64
88528,note_off,,,,,90,0,2,,,0,,,54,64
88540,note_off,,,,,60,0,1,,,0,,,77,64
88558,control_change,,,,,30,0,2,,,0,7,98,,
88558,control_change,,,,,18,0,1,,,0,7,98,,
88560,note_on,,,,,2,0,2,,,0,,,60,94
88560,note_on,,,,,0,0,2,,,0,,,54,94
88560,note_on,,,,,2,0,1,,,0,,,78,113
88620,note_off,,,,,60,0,1,,,0,,,78,64
88640,note_on,,,,,20,0,1,,,0,,,79,115
88678,control_change,,,,,118,0,2,,,0,7,99,,
88678,control_change,,,,,38,0,1,,,0,7,99,,
88700,note_off,,,,,22,0,1,,,0,,,79,64
88720,note_on,,,,,20,0,1,,,0,,,80,120
88740,note_off,,,,,62,0,2,,,0,,,54,64
88740,note_off,,,,,0,0,2,,,0,,,60,64
88780,note_off,,,,,60,0,1,,,0,,,80,64
88798,control_change,,,,,18,0,1,,,0,7,100,,
88798,control_change,,,,,58,0,2,,,0,7,100,,
88800,note_on,,,,,2,0,1,,,0,,,81,126
88800,set_tempo,,,,,460,1,0,400000,,,,,,
88800,note_on,,,,,2,0,2,,,0,,,54,113
88800,note_on,,,,,0,0,1,,,0,,,75,126
88860,note_off,,,,,60,0,2,,,0,,,54,64
88880,note_on,,,,,20,0,2,,,0,,,55,114
88880,set_tempo,,,,,80,1,0,397351,,,,,,
88918,control_change,,,,,118,0,1,,,0,7,101,,
88918,control_change,,,,,38,0,2,,,0,7,101,,
88940,note_off,,,,,22,0,2,,,0,,,55,64
88960,note_on,,,,,20,0,2,,,0,,,56,115
89008,note_off,,,,,90,0,1,,,0,,,75,64
89008,note_off,,,,,0,0,1,,,0,,,81,64
89020,note_off,,,,,60,0,2,,,0,,,56,64
89038,control_change,,,,,30,0,1,,,0,7,102,,
89038,control_change,,,,,18,0,2,,,0,7,102,,
89040,note_on,,,,,2,0,1,,,0,,,81,98
89040,note_on,,,,,0,0,1,,,0,,,75,98
89040,note_on,,,,,2,0,2,,,0,,,57,115
89100,note_off,,,,,60,0,2,,,0,,,57,64
89120,note_on,,,,,20,0,2,,,0,,,59,122
89158,control_change,,,,,38,0,2,,,0,7,103,,
89158,control_change,,,,,118,0,1,,,0,7,103,,
89180,note_off,,,,,22,0,2,,,0,,,59,64
89200,note_on,,,,,20,0,2,,,0,,,60,124
89220,note_off,,,,,0,0,1,,,0,,,81,64
89220,note_off,,,,,62,0,1,,,0,,,75,64
89260,note_off,,,,,60,0,2,,,0,,,60,64
89278,control_change,,,,,58,0,1,,,0,7,104,,
89278,control_change,,,,,18,0,2,,,0,7,104,,
89280,note_on,,,,,0,0,2,,,0,,,54,127
89280,note_on,,,,,2,0,2,,,0,,,59,127
89280,note_on,,,,,2,0,1,,,0,,,81,108
89300,set_tempo,,,,,420,1,0,400000,,,,,,
89340,note_off,,,,,60,0,1,,,0,,,81,64
89360,note_on,,,,,20,0,1,,,0,,,82,110
89360,set_tempo,,,,,60,1,0,402685,,,,,,
89398,control_change,,,,,118,0,2,,,0,7,105,,
89398,control_change,,,,,38,0,1,,,0,7,105,,
89400,set_tempo,,,,,40,1,0,405405,,,,,,
89420,note_off,,,,,22,0,1,,,0,,,82,64
89440,set_tempo,,,,,40,1,0,413793,,,,,,
89440,note_on,,,,,20,0,1,,,0,,,83,114
89460,set_tempo,,,,,20,1,0,416667,,,,,,
89480,set_tempo,,,,,20,1,0,422535,,,,,,
89488,note_off,,,,,0,0,2,,,0,,,59,64
89488,note_off,,,,,90,0,2,,,0,,,54,64
89500,note_off,,,,,60,0,1,,,0,,,83,64
89518,control_change,,,,,18,0,1,,,0,7,106,,
89518,control_change,,,,,30,0,2,,,0,7,106,,
89520,note_on,,,,,2,0,2,,,0,,,59,104
89520,note_on,,,,,0,0,2,,,0,,,54,104
89520,note_on,,,,,2,0,1,,,0,,,84,117
89540,set_tempo,,,,,60,1,0,444444,,,,,,
89580,note_off,,,,,60,0,1,,,0,,,84,64
89600,note_on,,,,,20,0,1,,,0,,,85,121
89638,control_change,,,,,38,0,1,,,0,7,107,,
89638,control_change,,,,,118,0,2,,,0,7,107,,
89640,set_tempo,,,,,100,1,0,465116,,,,,,
89660,note_off,,,,,22,0,1,,,0,,,85,64
89680,set_tempo,,,,,40,1,0,468750,,,,,,
89680,note_on,,,,,20,0,1,,,0,,,86,124
89700,note_off,,,,,0,0,2,,,0,,,59,64
89700,note_off,,,,,62,0,2,,,0,,,54,64
89700,set_tempo,,,,,20,1,0,480000,,,,,,
89740,note_off,,,,,60,0,1,,,0,,,86,64
89740,set_tempo,,,,,40,1,0,491803,,,,,,
89758,control_change,,,,,58,0,2,,,0,7,108,,
89758,control_change,,,,,18,0,1,,,0,7,108,,
89760,note_on,,,,,2,0,2,,,0,,,54,111
89760,note_on,,,,,2,0,1,,,0,,,87,127
89760,note_on,,,,,0,0,1,,,0,,,81,127
89780,set_tempo,,,,,40,1,0,504202,,,,,,
89800,set_tempo,,,,,20,1,0,508475,,,,,,
89820,note_off,,,,,60,0,2,,,0,,,54,64
89820,set_tempo,,,,,20,1,0,521739,,,,,,
89840,note_on,,,,,20,0,2,,,0,,,55,115
89860,set_tempo,,,,,40,1,0,535714,,,,,,
89878,control_change,,,,,118,0,1,,,0,7,109,,
89878,control_change,,,,,38,0,2,,,0,7,109,,
89900,set_tempo,,,,,40,1,0,540541,,,,,,
89900,note_off,,,,,22,0,2,,,0,,,55,64
89920,note_on,,,,,20,0,2,,,0,,,56,117
89960,set_tempo,,,,,60,1,0,555556,,,,,,
89968,note_off,,,,,90,0,1,,,0,,,81,64
89968,note_off,,,,,0,0,1,,,0,,,87,64
89980,note_off,,,,,60,0,2,,,0,,,56,64
89998,control_change,,,,,18,0,2,,,0,7,110,,
89998,control_change,,,,,30,0,1,,,0,7,110,,
90000,note_on,,,,,0,0,1,,,0,,,81,105
90000,note_on,,,,,2,0,2,,,0,,,57,119
90000,note_on,,,,,2,0,1,,,0,,,87,105
90000,set_tempo,,,,,40,1,0,560748,,,,,,
90040,set_tempo,,,,,40,1,0,582524,,,,,,
90060,set_tempo,,,,,20,1,0,588235,,,,,,
90060,note_off,,,,,60,0,2,,,0,,,57,64
90080,note_on,,,,,20,0,2,,,0,,,59,122
90080,set_tempo,,,,,20,1,0,594059,,,,,,
90100,set_tempo,,,,,20,1,0,606061,,,,,,
90118,control_change,,,,,118,0,1,,,0,7,111,,
90118,control_change,,,,,38,0,2,,,0,7,111,,
90120,set_tempo,,,,,20,1,0,618557,,,,,,
90140,set_tempo,,,,,20,1,0,625000,,,,,,
90140,note_off,,,,,22,0,2,,,0,,,59,64
90160,note_on,,,,,20,0,2,,,0,,,60,125
90160,set_tempo,,,,,20,1,0,1111111,,,,,,
90180,note_off,,,,,62,0,1,,,0,,,81,64
90180,note_off,,,,,0,0,1,,,0,,,87,64
90200,set_tempo,,,,,40,1,0,1090909,,,,,,
90220,note_off,,,,,60,0,2,,,0,,,60,64
90238,control_change,,,,,58,0,1,,,0,7,112,,
90238,control_change,,,,,18,0,2,,,0,7,112,,
90240,note_on,,,,,0,0,2,,,0,,,55,127
90240,note_on,,,,,0,0,2,,,0,,,59,127
90240,control_change,,,,,2,0,2,,,0,7,112,,
90240,note_on,,,,,0,0,1,,,0,,,88,120
90240,control_change,,,,,2,0,1,,,0,7,112,,
90250,control_change,,,,,10,0,1,,,0,64,95,,
90254,control_change,,,,,4,0,1,,,0,7,111,,
90254,control_change,,,,,14,0,2,,,0,7,111,,
90260,set_tempo,,,,,60,1,0,491803,,,,,,
90270,control_change,,,,,16,0,1,,,0,7,110,,
90270,control_change,,,,,16,0,2,,,0,7,110,,
90280,set_tempo,,,,,20,1,0,487805,,,,,,
90284,control_change,,,,,14,0,1,,,0,7,109,,
90284,control_change,,,,,14,0,2,,,0,7,109,,
90300,control_change,,,,,16,0,1,,,0,7,108,,
90300,control_change,,,,,16,0,2,,,0,7,108,,
90314,control_change,,,,,14,0,1,,,0,7,107,,
90314,control_change,,,,,14,0,2,,,0,7,107,,
90318,note_off,,,,,4,0,1,,,0,,,88,64
90320,note_on,,,,,2,0,1,,,0,,,83,115
90330,control_change,,,,,16,0,2,,,0,7,106,,
90330,control_change,,,,,10,0,1,,,0,7,106,,
90340,set_tempo,,,,,60,1,0,468750,,,,,,
90344,control_change,,,,,14,0,1,,,0,7,105,,
90344,control_change,,,,,14,0,2,,,0,7,105,,
90360,control_change,,,,,16,0,2,,,0,7,104,,
90360,control_change,,,,,16,0,1,,,0,7,104,,
90374,control_change,,,,,14,0,1,,,0,7,103,,
90374,control_change,,,,,14,0,2,,,0,7,103,,
90390,control_change,,,,,16,0,1,,,0,7,102,,
90390,control_change,,,,,16,0,2,,,0,7,102,,
90398,note_off,,,,,8,0,1,,,0,,,83,64
90400,note_on,,,,,2,0,1,,,0,,,79,108
90404,control_change,,,,,4,0,1,,,0,7,101,,
90404,control_change,,,,,14,0,2,,,0,7,101,,
90420,control_change,,,,,16,0,1,,,0,7,100,,
90420,control_change,,,,,16,0,2,,,0,7,100,,
90434,control_change,,,,,14,0,1,,,0,7,99,,
90434,control_change,,,,,14,0,2,,,0,7,99,,
90450,control_change,,,,,16,0,1,,,0,7,98,,
90450,note_off,,,,,0,0,2,,,0,,,59,64
90450,control_change,,,,,0,0,2,,,0,7,98,,
90450,note_off,,,,,16,0,2,,,0,,,55,64
90464,control_change,,,,,14,0,1,,,0,7,97,,
90464,control_change,,,,,14,0,2,,,0,7,97,,
90478,note_off,,,,,14,0,1,,,0,,,79,64
90480,note_on,,,,,0,0,1,,,0,,,76,100
90480,control_change,,,,,2,0,1,,,0,7,96,,
90480,control_change,,,,,16,0,2,,,0,7,96,,
90480,note_on,,,,,0,0,2,,,0,,,59,87
90480,note_on,,,,,0,0,2,,,0,,,55,87
90494,control_change,,,,,14,0,1,,,0,7,95,,
90494,control_change,,,,,14,0,2,,,0,7,95,,
90500,set_tempo,,,,,160,1,0,465116,,,,,,
90510,control_change,,,,,16,0,1,,,0,7,94,,
90510,control_change,,,,,16,0,2,,,0,7,94,,
90520,set_tempo,,,,,20,1,0,461538,,,,,,
90524,control_change,,,,,14,0,2,,,0,7,93,,
90524,control_change,,,,,14,0,1,,,0,7,93,,
90540,control_change,,,,,16,0,2,,,0,7,92,,
90540,control_change,,,,,16,0,1,,,0,7,92,,
90554,control_change,,,,,14,0,1,,,0,7,91,,
90554,control_change,,,,,14,0,2,,,0,7,91,,
90558,note_off,,,,,4,0,1,,,0,,,76,64
90560,note_on,,,,,2,0,1,,,0,,,71,94
90570,control_change,,,,,16,0,2,,,0,7,90,,
90570,control_change,,,,,10,0,1,,,0,7,90,,
90584,control_change,,,,,14,0,1,,,0,7,89,,
90584,control_change,,,,,14,0,2,,,0,7,89,,
90600,control_change,,,,,16,0,2,,,0,7,88,,
90600,control_change,,,,,16,0,1,,,0,7,88,,
90614,control_change,,,,,14,0,2,,,0,7,87,,
90614,control_change,,,,,14,0,1,,,0,7,87,,
90630,control_change,,,,,16,0,2,,,0,7,86,,
90630,control_change,,,,,16,0,1,,,0,7,86,,
90638,note_off,,,,,8,0,1,,,0,,,71,64
90640,note_on,,,,,2,0,1,,,0,,,67,89
90644,control_change,,,,,14,0,2,,,0,7,85,,
90644,control_change,,,,,4,0,1,,,0,7,85,,
90660,control_change,,,,,0,0,2,,,0,7,84,,
90660,note_off,,,,,16,0,2,,,0,,,55,64
90660,control_change,,,,,16,0,1,,,0,7,84,,
90660,note_off,,,,,0,0,2,,,0,,,59,64
90674,control_change,,,,,14,0,1,,,0,7,83,,
90674,control_change,,,,,14,0,2,,,0,7,83,,
90680,control_change,,,,,6,0,1,,,0,64,0,,
90680,set_tempo,,,,,160,1,0,451128,,,,,,
90690,control_change,,,,,10,0,1,,,0,7,82,,
90690,control_change,,,,,16,0,2,,,0,7,82,,
90704,control_change,,,,,14,0,2,,,0,7,81,,
90704,control_change,,,,,14,0,1,,,0,7,81,,
90718,note_off,,,,,14,0,1,,,0,,,67,64
90720,control_change,,,,,2,0,1,,,0,7,80,,
90720,note_on,,,,,0,0,1,,,0,,,64,84
90720,control_change,,,,,16,0,2,,,0,7,80,,
90798,note_off,,,,,78,0,1,,,0,,,64,64
90800,note_on,,,,,2,0,1,,,0,,,63,79
90878,note_off,,,,,78,0,1,,,0,,,63,64
90880,note_on,,,,,2,0,1,,,0,,,64,75
90958,note_off,,,,,78,0,1,,,0,,,64,64
90960,note_on,,,,,240,0,2,,,0,,,60,79
90960,note_on,,,,,2,0,1,,,0,,,66,72
90960,set_tempo,,,,,280,1,0,447761,,,,,,
90960,note_on,,,,,0,0,2,,,0,,,57,79
91038,note_off,,,,,78,0,1,,,0,,,66,64
91040,note_on,,,,,2,0,1,,,0,,,67,70
91118,note_off,,,,,78,0,1,,,0,,,67,64
91120,note_on,,,,,2,0,1,,,0,,,66,68
91198,note_off,,,,,78,0,1,,,0,,,66,64
91200,note_on,,,,,0,0,2,,,0,,,59,68
91200,note_off,,,,,0,0,2,,,0,,,60,64
91200,note_on,,,,,2,0,1,,,0,,,64,67
91200,note_off,,,,,240,0,2,,,0,,,57,64
91200,note_on,,,,,0,0,2,,,0,,,55,68
91278,note_off,,,,,78,0,1,,,0,,,64,64
91280,note_on,,,,,2,0,1,,,0,,,66,62
91358,note_off,,,,,78,0,1,,,0,,,66,64
91360,note_on,,,,,2,0,1,,,0,,,64,59
91438,note_off,,,,,78,0,1,,,0,,,64,64
91440,note_off,,,,,0,0,2,,,0,,,59,64
91440,note_on,,,,,0,0,2,,,0,,,57,65
91440,note_on,,,,,2,0,1,,,0,,,66,58
91440,note_off,,,,,240,0,2,,,0,,,55,64
91440,note_on,,,,,0,0,2,,,0,,,60,65
91500,set_tempo,,,,,540,1,0,454545,,,,,,
91518,note_off,,,,,78,0,1,,,0,,,66,64
91520,note_on,,,,,2,0,1,,,0,,,67,57
91598,note_off,,,,,78,0,1,,,0,,,67,64
91600,note_on,,,,,2,0,1,,,0,,,66,57
91640,set_tempo,,,,,140,1,0,472441,,,,,,
91678,note_off,,,,,78,0,1,,,0,,,66,64
91680,note_on,,,,,0,0,2,,,0,,,55,60
91680,note_on,,,,,0,0,2,,,0,,,59,60
91680,note_off,,,,,0,0,2,,,0,,,60,64
91680,note_off,,,,,240,0,2,,,0,,,57,64
91680,note_on,,,,,2,0,1,,,0,,,64,63
91758,note_off,,,,,78,0,1,,,0,,,64,64
91760,note_on,,,,,2,0,1,,,0,,,66,58
91838,note_off,,,,,78,0,1,,,0,,,66,64
91840,note_on,,,,,2,0,1,,,0,,,64,54
91860,set_tempo,,,,,220,1,0,483871,,,,,,
91918,note_off,,,,,78,0,1,,,0,,,64,64
91920,note_off,,,,,240,0,2,,,0,,,55,64
91920,note_off,,,,,0,0,2,,,0,,,59,64
91920,note_on,,,,,0,0,2,,,0,,,57,49
91920,note_on,,,,,0,0,2,,,0,,,54,49
91920,note_on,,,,,2,0,1,,,0,,,63,51
91998,note_off,,,,,78,0,1,,,0,,,63,64
92000,set_tempo,,,,,140,1,0,495868,,,,,,
92000,note_on,,,,,2,0,1,,,0,,,64,48
92040,set_tempo,,,,,40,1,0,504202,,,,,,
92078,note_off,,,,,78,0,1,,,0,,,64,64
92080,note_on,,,,,2,0,1,,,0,,,63,46
92130,note_off,,,,,210,0,2,,,0,,,54,64
92130,note_off,,,,,0,0,2,,,0,,,57,64
92140,set_tempo,,,,,100,1,0,461538,,,,,,
92158,note_off,,,,,78,0,1,,,0,,,63,64
92160,note_on,,,,,2,0,1,,,0,,,88,120
92160,set_tempo,,,,,20,1,0,1090909,,,,,,
92160,control_change,,,,,0,0,2,,,0,7,112,,
92160,note_on,,,,,30,0,2,,,0,,,56,127
92160,note_on,,,,,0,0,2,,,0,,,59,127
92170,control_change,,,,,10,0,1,,,0,64,95,,
92174,control_change,,,,,14,0,2,,,0,7,111,,
92180,set_tempo,,,,,20,1,0,491803,,,,,,
92190,control_change,,,,,16,0,2,,,0,7,110,,
92200,set_tempo,,,,,20,1,0,487805,,,,,,
92204,control_change,,,,,14,0,2,,,0,7,109,,
92220,control_change,,,,,16,0,2,,,0,7,108,,
92234,control_change,,,,,14,0,2,,,0,7,107,,
92238,note_off,,,,,68,0,1,,,0,,,88,64
92240,note_on,,,,,2,0,1,,,0,,,83,115
92250,control_change,,,,,16,0,2,,,0,7,106,,
92260,set_tempo,,,,,60,1,0,468750,,,,,,
92264,control_change,,,,,14,0,2,,,0,7,105,,
92280,control_change,,,,,16,0,2,,,0,7,104,,
92294,control_change,,,,,14,0,2,,,0,7,103,,
92310,control_change,,,,,16,0,2,,,0,7,102,,
92318,note_off,,,,,78,0,1,,,0,,,83,64
92320,note_on,,,,,2,0,1,,,0,,,80,108
92324,control_change,,,,,14,0,2,,,0,7,101,,
92340,control_change,,,,,16,0,2,,,0,7,100,,
92354,control_change,,,,,14,0,2,,,0,7,99,,
92370,note_off,,,,,0,0,2,,,0,,,56,64
92370,control_change,,,,,0,0,2,,,0,7,98,,
92370,note_off,,,,,16,0,2,,,0,,,59,64
92384,control_change,,,,,14,0,2,,,0,7,97,,
92398,note_off,,,,,78,0,1,,,0,,,80,64
92400,note_on,,,,,16,0,2,,,0,,,56,87
92400,note_on,,,,,2,0,1,,,0,,,76,100
92400,note_on,,,,,0,0,2,,,0,,,59,87
92400,control_change,,,,,0,0,2,,,0,7,96,,
92414,control_change,,,,,14,0,2,,,0,7,95,,
92420,set_tempo,,,,,160,1,0,465116,,,,,,
92430,control_change,,,,,16,0,2,,,0,7,94,,
92440,set_tempo,,,,,20,1,0,461538,,,,,,
92444,control_change,,,,,14,0,2,,,0,7,93,,
92460,control_change,,,,,16,0,2,,,0,7,92,,
92474,control_change,,,,,14,0,2,,,0,7,91,,
92478,note_off,,,,,78,0,1,,,0,,,76,64
92480,note_on,,,,,2,0,1,,,0,,,71,94
92490,control_change,,,,,16,0,2,,,0,7,90,,
92504,control_change,,,,,14,0,2,,,0,7,89,,
92520,control_change,,,,,16,0,2,,,0,7,88,,
92534,control_change,,,,,14,0,2,,,0,7,87,,
92550,control_change,,,,,16,0,2,,,0,7,86,,
92558,note_off,,,,,78,0,1,,,0,,,71,64
92560,note_on,,,,,2,0,1,,,0,,,68,89
92564,control_change,,,,,14,0,2,,,0,7,85,,
92580,control_change,,,,,0,0,2,,,0,7,84,,
92580,note_off,,,,,0,0,2,,,0,,,56,64
92580,note_off,,,,,16,0,2,,,0,,,59,64
92594,control_change,,,,,14,0,2,,,0,7,83,,
92600,control_change,,,,,40,0,1,,,0,64,0,,
92600,set_tempo,,,,,160,1,0,451128,,,,,,
92610,control_change,,,,,16,0,2,,,0,7,82,,
92624,control_change,,,,,14,0,2,,,0,7,81,,
92638,note_off,,,,,38,0,1,,,0,,,68,64
92640,control_change,,,,,16,0,2,,,0,7,80,,
92640,note_on,,,,,2,0,1,,,0,,,64,84
92718,note_off,,,,,78,0,1,,,0,,,64,64
92720,note_on,,,,,2,0,1,,,0,,,63,79
92798,note_off,,,,,78,0,1,,,0,,,63,64
92800,note_on,,,,,2,0,1,,,0,,,64,75
92878,note_off,,,,,78,0,1,,,0,,,64,64
92880,note_on,,,,,2,0,1,,,0,,,66,72
92880,set_tempo,,,,,280,1,0,447761,,,,,,
92880,note_on,,,,,240,0,2,,,0,,,61,79
92880,note_on,,,,,0,0,2,,,0,,,57,79
92958,note_off,,,,,78,0,1,,,0,,,66,64
92960,note_on,,,,,2,0,1,,,0,,,68,70
93038,note_off,,,,,78,0,1,,,0,,,68,64
93040,note_on,,,,,2,0,1,,,0,,,66,68
93118,note_off,,,,,78,0,1,,,0,,,66,64
93120,note_on,,,,,0,0,2,,,0,,,59,68
93120,note_off,,,,,240,0,2,,,0,,,57,64
93120,note_on,,,,,2,0,1,,,0,,,64,67
93120,note_off,,,,,0,0,2,,,0,,,61,64
93120,note_on,,,,,0,0,2,,,0,,,56,68
93198,note_off,,,,,78,0,1,,,0,,,64,64
93200,note_on,,,,,2,0,1,,,0,,,66,62
93278,note_off,,,,,78,0,1,,,0,,,66,64
93280,note_on,,,,,2,0,1,,,0,,,64,59
93358,note_off,,,,,78,0,1,,,0,,,64,64
93360,note_off,,,,,240,0,2,,,0,,,56,64
93360,note_off,,,,,0,0,2,,,0,,,59,64
93360,note_on,,,,,0,0,2,,,0,,,61,65
93360,note_on,,,,,0,0,2,,,0,,,57,65
93360,note_on,,,,,2,0,1,,,0,,,66,58
93420,set_tempo,,,,,540,1,0,454545,,,,,,
93438,note_off,,,,,78,0,1,,,0,,,66,64
93440,note_on,,,,,2,0,1,,,0,,,68,57
93518,note_off,,,,,78,0,1,,,0,,,68,64
93520,note_on,,,,,2,0,1,,,0,,,66,57
93560,set_tempo,,,,,140,1,0,472441,,,,,,
93598,note_off,,,,,78,0,1,,,0,,,66,64
93600,note_on,,,,,2,0,1,,,0,,,64,63
93600,note_on,,,,,0,0,2,,,0,,,59,60
93600,note_off,,,,,0,0,2,,,0,,,61,64
93600,note_off,,,,,240,0,2,,,0,,,57,64
93600,note_on,,,,,0,0,2,,,0,,,56,60
93678,note_off,,,,,78,0,1,,,0,,,64,64
93680,note_on,,,,,2,0,1,,,0,,,66,58
93758,note_off,,,,,78,0,1,,,0,,,66,64
93760,note_on,,,,,2,0,1,,,0,,,64,54
93780,set_tempo,,,,,220,1,0,483871,,,,,,
93838,note_off,,,,,78,0,1,,,0,,,64,64
93840,note_on,,,,,0,0,2,,,0,,,54,49
93840,note_on,,,,,0,0,2,,,0,,,57,49
93840,note_off,,,,,0,0,2,,,0,,,59,64
93840,note_off,,,,,240,0,2,,,0,,,56,64
93840,note_on,,,,,2,0,1,,,0,,,63,51
93918,note_off,,,,,78,0,1,,,0,,,63,64
93920,note_on,,,,,2,0,1,,,0,,,64,48
93920,set_tempo,,,,,140,1,0,495868,,,,,,
93960,set_tempo,,,,,40,1,0,504202,,,,,,
93998,note_off,,,,,78,0,1,,,0,,,64,64
94000,note_on,,,,,2,0,1,,,0,,,63,46
94020,set_tempo,,,,,60,1,0,1090909,,,,,,
94060,set_tempo,,,,,40,1,0,483871,,,,,,
94078,control_change,,,,,0,0,2,,,0,7,112,,
94078,note_off,,,,,0,0,2,,,0,,,57,64
94078,note_off,,,,,78,0,1,,,0,,,63,64
94078,note_off,,,,,238,0,2,,,0,,,54,64
94080,control_change,,,,,0,0,1,,,0,7,117,,
94080,note_on,,,,,2,0,1,,,0,,,88,120
94080,note_on,,,,,2,0,2,,,0,,,43,127
94088,control_change,,,,,8,0,1,,,0,64,95,,
94092,control_change,,,,,12,0,2,,,0,7,111,,
94108,control_change,,,,,16,0,2,,,0,7,110,,
94110,control_change,,,,,22,0,1,,,0,7,116,,
94122,control_change,,,,,14,0,2,,,0,7,109,,
94130,control_change,,,,,20,0,1,,,0,7,115,,
94138,control_change,,,,,16,0,2,,,0,7,108,,
94150,control_change,,,,,20,0,1,,,0,7,114,,
94152,control_change,,,,,14,0,2,,,0,7,107,,
94158,note_off,,,,,8,0,1,,,0,,,88,64
94160,note_on,,,,,2,0,1,,,0,,,83,115
94168,control_change,,,,,16,0,2,,,0,7,106,,
94170,control_change,,,,,10,0,1,,,0,7,113,,
94182,control_change,,,,,14,0,2,,,0,7,105,,
94198,control_change,,,,,16,0,2,,,0,7,104,,
94200,control_change,,,,,30,0,1,,,0,7,112,,
94212,control_change,,,,,14,0,2,,,0,7,103,,
94220,set_tempo,,,,,160,1,0,480000,,,,,,
94228,control_change,,,,,16,0,2,,,0,7,102,,
94230,control_change,,,,,30,0,1,,,0,7,111,,
94238,note_off,,,,,8,0,1,,,0,,,83,64
94240,note_on,,,,,2,0,1,,,0,,,79,108
94240,control_change,,,,,0,0,1,,,0,7,110,,
94242,control_change,,,,,14,0,2,,,0,7,101,,
94258,control_change,,,,,16,0,2,,,0,7,100,,
94260,set_tempo,,,,,40,1,0,476190,,,,,,
94270,control_change,,,,,30,0,1,,,0,7,109,,
94272,control_change,,,,,14,0,2,,,0,7,99,,
94280,control_change,,,,,10,0,1,,,0,7,108,,
94288,control_change,,,,,16,0,2,,,0,7,98,,
94300,set_tempo,,,,,40,1,0,472441,,,,,,
94302,control_change,,,,,14,0,2,,,0,7,97,,
94310,control_change,,,,,30,0,1,,,0,7,106,,
94318,note_off,,,,,16,0,2,,,0,,,43,64
94318,control_change,,,,,0,0,2,,,0,7,96,,
94318,note_off,,,,,8,0,1,,,0,,,79,64
94320,note_on,,,,,2,0,2,,,0,,,55,87
94320,note_on,,,,,0,0,2,,,0,,,47,87
94320,note_on,,,,,0,0,2,,,0,,,52,87
94320,note_on,,,,,2,0,1,,,0,,,76,100
94330,control_change,,,,,10,0,1,,,0,7,105,,
94332,control_change,,,,,12,0,2,,,0,7,95,,
94348,control_change,,,,,16,0,2,,,0,7,94,,
94350,control_change,,,,,20,0,1,,,0,7,104,,
94362,control_change,,,,,14,0,2,,,0,7,93,,
94370,control_change,,,,,20,0,1,,,0,7,103,,
94378,control_change,,,,,16,0,2,,,0,7,92,,
94380,set_tempo,,,,,80,1,0,468750,,,,,,
94390,control_change,,,,,20,0,1,,,0,7,102,,
94392,control_change,,,,,14,0,2,,,0,7,91,,
94398,note_off,,,,,8,0,1,,,0,,,76,64
94400,note_on,,,,,2,0,1,,,0,,,71,94
94400,control_change,,,,,0,0,1,,,0,7,101,,
94408,control_change,,,,,16,0,2,,,0,7,90,,
94410,control_change,,,,,10,0,1,,,0,7,100,,
94420,set_tempo,,,,,40,1,0,465116,,,,,,
94422,control_change,,,,,14,0,2,,,0,7,89,,
94430,control_change,,,,,20,0,1,,,0,7,99,,
94438,control_change,,,,,16,0,2,,,0,7,88,,
94440,control_change,,,,,10,0,1,,,0,7,98,,
94452,control_change,,,,,14,0,2,,,0,7,87,,
94460,set_tempo,,,,,40,1,0,461538,,,,,,
94468,control_change,,,,,16,0,2,,,0,7,86,,
94470,control_change,,,,,30,0,1,,,0,7,97,,
94478,note_off,,,,,8,0,1,,,0,,,71,64
94478,note_off,,,,,10,0,2,,,0,,,47,64
94478,note_off,,,,,0,0,2,,,0,,,55,64
94478,note_off,,,,,0,0,2,,,0,,,52,64
94480,note_on,,,,,2,0,1,,,0,,,67,89
94480,control_change,,,,,0,0,1,,,0,7,96,,
94482,control_change,,,,,4,0,2,,,0,7,85,,
94498,control_change,,,,,16,0,2,,,0,7,84,,
94510,control_change,,,,,30,0,1,,,0,7,95,,
94512,control_change,,,,,14,0,2,,,0,7,83,,
94518,control_change,,,,,8,0,1,,,0,64,0,,
94520,control_change,,,,,2,0,1,,,0,7,94,,
94528,control_change,,,,,16,0,2,,,0,7,82,,
94542,control_change,,,,,14,0,2,,,0,7,81,,
94558,note_off,,,,,38,0,1,,,0,,,67,64
94558,control_change,,,,,16,0,2,,,0,7,80,,
94560,note_on,,,,,2,0,2,,,0,,,45,127
94560,note_on,,,,,2,0,1,,,0,,,84,84
94568,control_change,,,,,8,0,1,,,0,64,95,,
94572,control_change,,,,,12,0,2,,,0,7,111,,
94572,control_change,,,,,4,0,1,,,0,7,111,,
94580,set_tempo,,,,,120,1,0,458015,,,,,,
94588,control_change,,,,,16,0,2,,,0,7,110,,
94588,control_change,,,,,16,0,1,,,0,7,110,,
94602,control_change,,,,,14,0,2,,,0,7,109,,
94602,control_change,,,,,14,0,1,,,0,7,109,,
94618,control_change,,,,,16,0,1,,,0,7,108,,
94618,control_change,,,,,16,0,2,,,0,7,108,,
94632,control_change,,,,,14,0,1,,,0,7,107,,
94632,control_change,,,,,14,0,2,,,0,7,107,,
94638,note_off,,,,,6,0,1,,,0,,,84,64
94640,note_on,,,,,2,0,1,,,0,,,81,115
94648,control_change,,,,,8,0,1,,,0,7,106,,
94648,control_change,,,,,16,0,2,,,0,7,106,,
94660,set_tempo,,,,,80,1,0,451128,,,,,,
94662,control_change,,,,,14,0,2,,,0,7,105,,
94662,control_change,,,,,14,0,1,,,0,7,105,,
94678,control_change,,,,,16,0,1,,,0,7,104,,
94678,control_change,,,,,16,0,2,,,0,7,104,,
94692,control_change,,,,,14,0,1,,,0,7,103,,
94692,control_change,,,,,14,0,2,,,0,7,103,,
94708,control_change,,,,,16,0,2,,,0,7,102,,
94708,control_change,,,,,16,0,1,,,0,7,102,,
94718,note_off,,,,,10,0,1,,,0,,,81,64
94720,note_on,,,,,2,0,1,,,0,,,76,108
94722,control_change,,,,,14,0,2,,,0,7,101,,
94722,control_change,,,,,2,0,1,,,0,7,101,,
94738,control_change,,,,,16,0,1,,,0,7,100,,
94738,control_change,,,,,16,0,2,,,0,7,100,,
94752,control_change,,,,,14,0,1,,,0,7,99,,
94752,control_change,,,,,14,0,2,,,0,7,99,,
94760,set_tempo,,,,,100,1,0,447761,,,,,,
94768,control_change,,,,,16,0,2,,,0,7,98,,
94768,control_change,,,,,16,0,1,,,0,7,98,,
94782,control_change,,,,,14,0,2,,,0,7,97,,
94782,control_change,,,,,14,0,1,,,0,7,97,,
94798,note_off,,,,,16,0,2,,,0,,,45,64
94798,control_change,,,,,0,0,2,,,0,7,96,,
94798,note_off,,,,,16,0,1,,,0,,,76,64
94798,control_change,,,,,0,0,1,,,0,7,96,,
94800,note_on,,,,,0,0,2,,,0,,,48,87
94800,note_on,,,,,2,0,1,,,0,,,72,100
94800,note_on,,,,,2,0,2,,,0,,,57,87
94800,note_on,,,,,0,0,2,,,0,,,52,87
94812,control_change,,,,,12,0,2,,,0,7,95,,
94812,control_change,,,,,12,0,1,,,0,7,95,,
94828,control_change,,,,,16,0,2,,,0,7,94,,
94828,control_change,,,,,16,0,1,,,0,7,94,,
94840,set_tempo,,,,,80,1,0,444444,,,,,,
94842,control_change,,,,,14,0,2,,,0,7,93,,
94842,control_change,,,,,14,0,1,,,0,7,93,,
94858,control_change,,,,,16,0,2,,,0,7,92,,
94858,control_change,,,,,16,0,1,,,0,7,92,,
94872,control_change,,,,,14,0,2,,,0,7,91,,
94872,control_change,,,,,14,0,1,,,0,7,91,,
94878,note_off,,,,,6,0,1,,,0,,,72,64
94880,note_on,,,,,2,0,1,,,0,,,69,94
94888,control_change,,,,,16,0,2,,,0,7,90,,
94888,control_change,,,,,8,0,1,,,0,7,90,,
94902,control_change,,,,,14,0,2,,,0,7,89,,
94902,control_change,,,,,14,0,1,,,0,7,89,,
94918,control_change,,,,,16,0,2,,,0,7,88,,
94918,control_change,,,,,16,0,1,,,0,7,88,,
94932,control_change,,,,,14,0,2,,,0,7,87,,
94932,control_change,,,,,14,0,1,,,0,7,87,,
94948,control_change,,,,,16,0,1,,,0,7,86,,
94948,control_change,,,,,16,0,2,,,0,7,86,,
94958,note_off,,,,,0,0,2,,,0,,,57,64
94958,note_off,,,,,0,0,2,,,0,,,52,64
94958,note_off,,,,,10,0,2,,,0,,,48,64
94958,note_off,,,,,10,0,1,,,0,,,69,64
94960,set_tempo,,,,,120,1,0,441176,,,,,,
94960,note_on,,,,,2,0,1,,,0,,,64,89
94962,control_change,,,,,4,0,2,,,0,7,85,,
94962,control_change,,,,,2,0,1,,,0,7,85,,
94978,control_change,,,,,16,0,1,,,0,7,84,,
94978,control_change,,,,,16,0,2,,,0,7,84,,
94992,control_change,,,,,14,0,2,,,0,7,83,,
94992,control_change,,,,,14,0,1,,,0,7,83,,
94998,control_change,,,,,6,0,1,,,0,64,0,,
95000,set_tempo,,,,,40,1,0,437956,,,,,,
95008,control_change,,,,,16,0,2,,,0,7,82,,
95008,control_change,,,,,10,0,1,,,0,7,82,,
95022,control_change,,,,,14,0,2,,,0,7,81,,
95022,control_change,,,,,14,0,1,,,0,7,81,,
95038,control_change,,,,,16,0,2,,,0,7,80,,
95038,control_change,,,,,0,0,1,,,0,7,80,,
95038,note_off,,,,,16,0,1,,,0,,,64,64
95040,note_on,,,,,2,0,2,,,0,,,47,127
95040,note_on,,,,,2,0,1,,,0,,,83,84
95048,control_change,,,,,8,0,1,,,0,64,95,,
95052,control_change,,,,,4,0,1,,,0,7,111,,
95052,control_change,,,,,12,0,2,,,0,7,111,,
95068,control_change,,,,,16,0,1,,,0,7,110,,
95068,control_change,,,,,16,0,2,,,0,7,110,,
95082,control_change,,,,,14,0,1,,,0,7,109,,
95082,control_change,,,,,14,0,2,,,0,7,109,,
95098,control_change,,,,,16,0,1,,,0,7,108,,
95098,control_change,,,,,16,0,2,,,0,7,108,,
95112,control_change,,,,,14,0,2,,,0,7,107,,
95112,control_change,,,,,14,0,1,,,0,7,107,,
95118,note_off,,,,,6,0,1,,,0,,,83,64
95120,note_on,,,,,2,0,1,,,0,,,79,115
95128,control_change,,,,,16,0,2,,,0,7,106,,
95128,control_change,,,,,8,0,1,,,0,7,106,,
95142,control_change,,,,,14,0,1,,,0,7,105,,
95142,control_change,,,,,14,0,2,,,0,7,105,,
95158,control_change,,,,,16,0,2,,,0,7,104,,
95158,control_change,,,,,16,0,1,,,0,7,104,,
95172,control_change,,,,,14,0,2,,,0,7,103,,
95172,control_change,,,,,14,0,1,,,0,7,103,,
95180,set_tempo,,,,,180,1,0,434783,,,,,,
95188,control_change,,,,,16,0,2,,,0,7,102,,
95188,control_change,,,,,16,0,1,,,0,7,102,,
95198,note_off,,,,,10,0,1,,,0,,,79,64
95200,note_on,,,,,2,0,1,,,0,,,76,108
95202,control_change,,,,,2,0,1,,,0,7,101,,
95202,control_change,,,,,14,0,2,,,0,7,101,,
95218,control_change,,,,,16,0,2,,,0,7,100,,
95218,control_change,,,,,16,0,1,,,0,7,100,,
95232,control_change,,,,,14,0,1,,,0,7,99,,
95232,control_change,,,,,14,0,2,,,0,7,99,,
95248,control_change,,,,,16,0,2,,,0,7,98,,
95248,control_change,,,,,16,0,1,,,0,7,98,,
95262,control_change,,,,,14,0,1,,,0,7,97,,
95262,control_change,,,,,14,0,2,,,0,7,97,,
95278,control_change,,,,,0,0,1,,,0,7,96,,
95278,control_change,,,,,0,0,2,,,0,7,96,,
95278,note_off,,,,,16,0,2,,,0,,,47,64
95278,note_off,,,,,16,0,1,,,0,,,76,64
95280,note_on,,,,,0,0,2,,,0,,,55,87
95280,note_on,,,,,2,0,1,,,0,,,71,100
95280,note_on,,,,,0,0,2,,,0,,,52,87
95280,set_tempo,,,,,100,1,0,431655,,,,,,
95280,note_on,,,,,2,0,2,,,0,,,59,87
95292,control_change,,,,,12,0,2,,,0,7,95,,
95292,control_change,,,,,12,0,1,,,0,7,95,,
95308,control_change,,,,,16,0,1,,,0,7,94,,
95308,control_change,,,,,16,0,2,,,0,7,94,,
95322,control_change,,,,,14,0,1,,,0,7,93,,
95322,control_change,,,,,14,0,2,,,0,7,93,,
95338,control_change,,,,,16,0,1,,,0,7,92,,
95338,control_change,,,,,16,0,2,,,0,7,92,,
95352,control_change,,,,,14,0,1,,,0,7,91,,
95352,control_change,,,,,14,0,2,,,0,7,91,,
95358,note_off,,,,,6,0,1,,,0,,,71,64
95360,note_on,,,,,2,0,1,,,0,,,67,94
95368,control_change,,,,,16,0,2,,,0,7,90,,
95368,control_change,,,,,8,0,1,,,0,7,90,,
95382,control_change,,,,,14,0,2,,,0,7,89,,
95382,control_change,,,,,14,0,1,,,0,7,89,,
95398,control_change,,,,,16,0,1,,,0,7,88,,
95398,control_change,,,,,16,0,2,,,0,7,88,,
95400,set_tempo,,,,,120,1,0,428571,,,,,,
95412,control_change,,,,,14,0,2,,,0,7,87,,
95412,control_change,,,,,14,0,1,,,0,7,87,,
95428,control_change,,,,,16,0,1,,,0,7,86,,
95428,control_change,,,,,16,0,2,,,0,7,86,,
95438,note_off,,,,,10,0,2,,,0,,,52,64
95438,note_off,,,,,0,0,2,,,0,,,55,64
95438,note_off,,,,,0,0,2,,,0,,,59,64
95438,note_off,,,,,10,0,1,,,0,,,67,64
95440,set_tempo,,,,,40,1,0,425532,,,,,,
95440,note_on,,,,,2,0,1,,,0,,,64,89
95442,control_change,,,,,4,0,2,,,0,7,85,,
95442,control_change,,,,,2,0,1,,,0,7,85,,
95458,control_change,,,,,16,0,2,,,0,7,84,,
95458,control_change,,,,,16,0,1,,,0,7,84,,
95472,control_change,,,,,14,0,2,,,0,7,83,,
95472,control_change,,,,,14,0,1,,,0,7,83,,
95478,control_change,,,,,6,0,1,,,0,64,0,,
95488,control_change,,,,,16,0,2,,,0,7,82,,
95488,control_change,,,,,10,0,1,,,0,7,82,,
95502,control_change,,,,,14,0,1,,,0,7,81,,
95502,control_change,,,,,14,0,2,,,0,7,81,,
95518,control_change,,,,,16,0,2,,,0,7,80,,
95518,note_off,,,,,16,0,1,,,0,,,64,64
95518,control_change,,,,,0,0,1,,,0,7,80,,
95520,note_on,,,,,2,0,2,,,0,,,47,127
95520,note_on,,,,,2,0,1,,,0,,,83,84
95528,control_change,,,,,8,0,1,,,0,64,95,,
95532,control_change,,,,,4,0,1,,,0,7,111,,
95532,control_change,,,,,12,0,2,,,0,7,111,,
95540,set_tempo,,,,,100,1,0,422535,,,,,,
95548,control_change,,,,,16,0,2,,,0,7,110,,
95548,control_change,,,,,16,0,1,,,0,7,110,,
95562,control_change,,,,,14,0,2,,,0,7,109,,
95562,control_change,,,,,14,0,1,,,0,7,109,,
95578,control_change,,,,,16,0,2,,,0,7,108,,
95578,control_change,,,,,16,0,1,,,0,7,108,,
95592,control_change,,,,,14,0,1,,,0,7,107,,
95592,control_change,,,,,14,0,2,,,0,7,107,,
95598,note_off,,,,,6,0,1,,,0,,,83,64
95600,note_on,,,,,2,0,1,,,0,,,78,115
95608,control_change,,,,,8,0,1,,,0,7,106,,
95608,control_change,,,,,16,0,2,,,0,7,106,,
95622,control_change,,,,,14,0,1,,,0,7,105,,
95622,control_change,,,,,14,0,2,,,0,7,105,,
95638,control_change,,,,,16,0,1,,,0,7,104,,
95638,control_change,,,,,16,0,2,,,0,7,104,,
95652,control_change,,,,,14,0,2,,,0,7,103,,
95652,control_change,,,,,14,0,1,,,0,7,103,,
95660,set_tempo,,,,,120,1,0,425532,,,,,,
95668,control_change,,,,,16,0,1,,,0,7,102,,
95668,control_change,,,,,16,0,2,,,0,7,102,,
95678,note_off,,,,,10,0,1,,,0,,,78,64
95680,set_tempo,,,,,20,1,0,431655,,,,,,
95680,note_on,,,,,2,0,1,,,0,,,75,94
95682,control_change,,,,,2,0,1,,,0,7,101,,
95682,control_change,,,,,14,0,2,,,0,7,101,,
95698,control_change,,,,,16,0,2,,,0,7,100,,
95698,control_change,,,,,16,0,1,,,0,7,100,,
95712,control_change,,,,,14,0,2,,,0,7,99,,
95712,control_change,,,,,14,0,1,,,0,7,99,,
95728,control_change,,,,,16,0,2,,,0,7,98,,
95728,control_change,,,,,16,0,1,,,0,7,98,,
95740,set_tempo,,,,,60,1,0,437956,,,,,,
95742,control_change,,,,,14,0,2,,,0,7,97,,
95742,control_change,,,,,14,0,1,,,0,7,97,,
95758,control_change,,,,,0,0,2,,,0,7,96,,
95758,note_off,,,,,16,0,1,,,0,,,75,64
95758,control_change,,,,,0,0,1,,,0,7,96,,
95758,note_off,,,,,16,0,2,,,0,,,47,64
95760,note_on,,,,,2,0,2,,,0,,,59,87
95760,note_on,,,,,2,0,1,,,0,,,71,96
95760,set_tempo,,,,,20,1,0,441176,,,,,,
95760,note_on,,,,,0,0,2,,,0,,,51,87
95760,note_on,,,,,0,0,2,,,0,,,54,87
95772,control_change,,,,,12,0,1,,,0,7,95,,
95772,control_change,,,,,12,0,2,,,0,7,95,,
95788,control_change,,,,,16,0,1,,,0,7,94,,
95788,control_change,,,,,16,0,2,,,0,7,94,,
95800,set_tempo,,,,,40,1,0,447761,,,,,,
95802,control_change,,,,,14,0,1,,,0,7,93,,
95802,control_change,,,,,14,0,2,,,0,7,93,,
95818,control_change,,,,,16,0,1,,,0,7,92,,
95818,control_change,,,,,16,0,2,,,0,7,92,,
95820,set_tempo,,,,,20,1,0,451128,,,,,,
95832,control_change,,,,,14,0,1,,,0,7,91,,
95832,control_change,,,,,14,0,2,,,0,7,91,,
95838,note_off,,,,,6,0,1,,,0,,,71,64
95840,set_tempo,,,,,20,1,0,454545,,,,,,
95840,note_on,,,,,2,0,1,,,0,,,66,99
95848,control_change,,,,,16,0,2,,,0,7,90,,
95848,control_change,,,,,8,0,1,,,0,7,90,,
95860,set_tempo,,,,,20,1,0,458015,,,,,,
95862,control_change,,,,,14,0,2,,,0,7,89,,
95862,control_change,,,,,14,0,1,,,0,7,89,,
95878,control_change,,,,,16,0,2,,,0,7,88,,
95878,control_change,,,,,16,0,1,,,0,7,88,,
95892,control_change,,,,,14,0,1,,,0,7,87,,
95892,control_change,,,,,14,0,2,,,0,7,87,,
95908,control_change,,,,,16,0,1,,,0,7,86,,
95908,control_change,,,,,16,0,2,,,0,7,86,,
95918,note_off,,,,,10,0,2,,,0,,,51,64
95918,note_off,,,,,0,0,2,,,0,,,59,64
95918,note_off,,,,,0,0,2,,,0,,,54,64
95918,note_off,,,,,10,0,1,,,0,,,66,64
95920,note_on,,,,,2,0,1,,,0,,,63,100
95922,control_change,,,,,2,0,1,,,0,7,85,,
95922,control_change,,,,,4,0,2,,,0,7,85,,
95938,control_change,,,,,16,0,1,,,0,7,84,,
95938,control_change,,,,,16,0,2,,,0,7,84,,
95952,control_change,,,,,14,0,2,,,0,7,83,,
95952,control_change,,,,,14,0,1,,,0,7,83,,
95958,control_change,,,,,6,0,1,,,0,64,0,,
95968,control_change,,,,,10,0,1,,,0,7,82,,
95968,control_change,,,,,16,0,2,,,0,7,82,,
95982,control_change,,,,,14,0,1,,,0,7,81,,
95982,control_change,,,,,14,0,2,,,0,7,81,,
95998,note_off,,,,,16,0,1,,,0,,,63,64
95998,control_change,,,,,0,0,1,,,0,7,80,,
95998,control_change,,,,,16,0,2,,,0,7,80,,
96000,note_on,,,,,2,0,1,,,0,,,64,100
96008,control_change,,,,,8,0,1,,,0,64,95,,
96012,control_change,,,,,14,0,2,,,0,7,111,,
96012,control_change,,,,,4,0,1,,,0,7,111,,
96020,set_tempo,,,,,160,1,0,472441,,,,,,
96028,control_change,,,,,16,0,2,,,0,7,110,,
96028,control_change,,,,,16,0,1,,,0,7,110,,
96040,set_tempo,,,,,20,1,0,476190,,,,,,
96042,control_change,,,,,14,0,2,,,0,7,109,,
96042,control_change,,,,,14,0,1,,,0,7,109,,
96058,control_change,,,,,16,0,1,,,0,7,108,,
96058,control_change,,,,,16,0,2,,,0,7,108,,
96072,control_change,,,,,14,0,2,,,0,7,107,,
96072,control_change,,,,,14,0,1,,,0,7,107,,
96078,note_off,,,,,6,0,1,,,0,,,64,64
96080,note_on,,,,,2,0,1,,,0,,,59,90
96088,control_change,,,,,16,0,2,,,0,7,106,,
96088,control_change,,,,,8,0,1,,,0,7,106,,
96102,control_change,,,,,14,0,2,,,0,7,105,,
96102,control_change,,,,,14,0,1,,,0,7,105,,
96118,control_change,,,,,16,0,1,,,0,7,104,,
96118,control_change,,,,,16,0,2,,,0,7,104,,
96132,control_change,,,,,14,0,2,,,0,7,103,,
96132,control_change,,,,,14,0,1,,,0,7,103,,
96148,control_change,,,,,16,0,1,,,0,7,102,,
96148,control_change,,,,,16,0,2,,,0,7,102,,
96158,note_off,,,,,10,0,1,,,0,,,59,64
96160,note_on,,,,,2,0,1,,,0,,,55,86
96162,control_change,,,,,14,0,2,,,0,7,101,,
96162,control_change,,,,,2,0,1,,,0,7,101,,
96178,control_change,,,,,16,0,2,,,0,7,100,,
96178,control_change,,,,,16,0,1,,,0,7,100,,
96192,control_change,,,,,14,0,2,,,0,7,99,,
96192,control_change,,,,,14,0,1,,,0,7,99,,
96208,control_change,,,,,16,0,2,,,0,7,98,,
96208,control_change,,,,,16,0,1,,,0,7,98,,
96220,set_tempo,,,,,180,1,0,461538,,,,,,
96222,control_change,,,,,14,0,2,,,0,7,97,,
96222,control_change,,,,,14,0,1,,,0,7,97,,
96238,note_off,,,,,16,0,1,,,0,,,55,64
96238,control_change,,,,,0,0,1,,,0,7,96,,
96238,control_change,,,,,16,0,2,,,0,7,96,,
96240,set_tempo,,,,,20,1,0,465116,,,,,,
96240,note_on,,,,,2,0,1,,,0,,,52,77
96252,control_change,,,,,12,0,1,,,0,7,95,,
96252,control_change,,,,,14,0,2,,,0,7,95,,
96268,control_change,,,,,16,0,1,,,0,7,94,,
96268,control_change,,,,,16,0,2,,,0,7,94,,
96282,control_change,,,,,14,0,1,,,0,7,93,,
96282,control_change,,,,,14,0,2,,,0,7,93,,
96298,control_change,,,,,16,0,2,,,0,7,92,,
96298,control_change,,,,,16,0,1,,,0,7,92,,
96312,control_change,,,,,14,0,1,,,0,7,91,,
96312,control_change,,,,,14,0,2,,,0,7,91,,
96318,note_off,,,,,6,0,1,,,0,,,52,64
96320,note_on,,,,,8,0,2,,,0,,,47,77
96328,control_change,,,,,8,0,2,,,0,7,90,,
96328,control_change,,,,,10,0,1,,,0,7,90,,
96342,control_change,,,,,14,0,1,,,0,7,89,,
96342,control_change,,,,,14,0,2,,,0,7,89,,
96358,control_change,,,,,16,0,1,,,0,7,88,,
96358,control_change,,,,,16,0,2,,,0,7,88,,
96372,control_change,,,,,14,0,2,,,0,7,87,,
96372,control_change,,,,,14,0,1,,,0,7,87,,
96388,control_change,,,,,16,0,2,,,0,7,86,,
96388,control_change,,,,,16,0,1,,,0,7,86,,
96398,note_off,,,,,10,0,2,,,0,,,47,64
96400,note_on,,,,,2,0,2,,,0,,,43,72
96402,control_change,,,,,2,0,2,,,0,7,85,,
96402,control_change,,,,,14,0,1,,,0,7,85,,
96418,control_change,,,,,16,0,1,,,0,7,84,,
96418,control_change,,,,,16,0,2,,,0,7,84,,
96432,control_change,,,,,14,0,1,,,0,7,83,,
96432,control_change,,,,,14,0,2,,,0,7,83,,
96438,control_change,,,,,6,0,1,,,0,64,0,,
96448,control_change,,,,,16,0,2,,,0,7,82,,
96448,control_change,,,,,10,0,1,,,0,7,82,,
96462,control_change,,,,,14,0,2,,,0,7,81,,
96462,control_change,,,,,14,0,1,,,0,7,81,,
96478,control_change,,,,,0,0,2,,,0,7,80,,
96478,control_change,,,,,16,0,1,,,0,7,80,,
96478,note_off,,,,,16,0,2,,,0,,,43,64
96480,note_on,,,,,2,0,1,,,0,,,71,55
96480,note_on,,,,,0,0,1,,,0,,,67,55
96480,note_on,,,,,0,0,1,,,0,,,64,55
96480,note_on,,,,,2,0,2,,,0,,,40,67
96492,control_change,,,,,12,0,2,,,0,7,111,,
96508,control_change,,,,,16,0,2,,,0,7,110,,
96522,control_change,,,,,14,0,2,,,0,7,109,,
96538,control_change,,,,,16,0,2,,,0,7,108,,
96552,control_change,,,,,14,0,2,,,0,7,107,,
96558,note_off,,,,,6,0,2,,,0,,,40,64
96560,note_on,,,,,2,0,2,,,0,,,39,62
96568,control_change,,,,,8,0,2,,,0,7,106,,
96582,control_change,,,,,14,0,2,,,0,7,105,,
96598,control_change,,,,,16,0,2,,,0,7,104,,
96612,control_change,,,,,14,0,2,,,0,7,103,,
96628,control_change,,,,,16,0,2,,,0,7,102,,
96638,note_off,,,,,10,0,2,,,0,,,39,64
96640,note_on,,,,,2,0,2,,,0,,,40,59
96642,control_change,,,,,2,0,2,,,0,7,101,,
96658,control_change,,,,,16,0,2,,,0,7,100,,
96660,note_off,,,,,180,0,1,,,0,,,64,64
96660,note_off,,,,,0,0,1,,,0,,,67,64
96660,note_off,,,,,0,0,1,,,0,,,71,64
96672,control_change,,,,,14,0,2,,,0,7,99,,
96680,set_tempo,,,,,440,1,0,461538,,,,,,
96688,control_change,,,,,16,0,2,,,0,7,98,,
96702,control_change,,,,,14,0,2,,,0,7,97,,
96718,note_off,,,,,16,0,2,,,0,,,40,64
96718,control_change,,,,,0,0,2,,,0,7,96,,
96720,note_on,,,,,60,0,1,,,0,,,71,51
96720,note_on,,,,,2,0,2,,,0,,,42,56
96720,note_on,,,,,0,0,1,,,0,,,69,51
96720,note_on,,,,,0,0,1,,,0,,,63,51
96732,control_change,,,,,12,0,2,,,0,7,95,,
96748,control_change,,,,,16,0,2,,,0,7,94,,
96762,control_change,,,,,14,0,2,,,0,7,93,,
96778,control_change,,,,,16,0,2,,,0,7,92,,
96792,control_change,,,,,14,0,2,,,0,7,91,,
96798,note_off,,,,,6,0,2,,,0,,,42,64
96800,note_on,,,,,2,0,2,,,0,,,43,54
96808,control_change,,,,,8,0,2,,,0,7,90,,
96822,control_change,,,,,14,0,2,,,0,7,89,,
96838,control_change,,,,,16,0,2,,,0,7,88,,
96852,control_change,,,,,14,0,2,,,0,7,87,,
96868,control_change,,,,,16,0,2,,,0,7,86,,
96878,note_off,,,,,10,0,2,,,0,,,43,64
96880,note_on,,,,,2,0,2,,,0,,,42,58
96882,control_change,,,,,2,0,2,,,0,7,85,,
96898,control_change,,,,,16,0,2,,,0,7,84,,
96900,note_off,,,,,180,0,1,,,0,,,63,64
96900,note_off,,,,,0,0,1,,,0,,,71,64
96900,note_off,,,,,0,0,1,,,0,,,69,64
96912,control_change,,,,,14,0,2,,,0,7,83,,
96928,control_change,,,,,16,0,2,,,0,7,82,,
96940,set_tempo,,,,,260,1,0,458015,,,,,,
96942,control_change,,,,,14,0,2,,,0,7,81,,
96958,control_change,,,,,0,0,2,,,0,7,80,,
96958,note_off,,,,,16,0,2,,,0,,,42,64
96960,note_on,,,,,60,0,1,,,0,,,71,75
96960,note_on,,,,,0,0,1,,,0,,,67,75
96960,note_on,,,,,0,0,1,,,0,,,64,75
96960,note_on,,,,,2,0,2,,,0,,,40,59
97038,note_off,,,,,78,0,2,,,0,,,40,64
97040,note_on,,,,,2,0,2,,,0,,,39,53
97118,note_off,,,,,78,0,2,,,0,,,39,64
97120,note_on,,,,,2,0,2,,,0,,,40,59
97140,note_off,,,,,0,0,1,,,0,,,71,64
97140,note_off,,,,,0,0,1,,,0,,,67,64
97140,note_off,,,,,180,0,1,,,0,,,64,64
97160,set_tempo,,,,,220,1,0,454545,,,,,,
97198,note_off,,,,,78,0,2,,,0,,,40,64
97200,note_on,,,,,0,0,1,,,0,,,63,69
97200,note_on,,,,,0,0,1,,,0,,,69,69
97200,note_on,,,,,60,0,1,,,0,,,71,69
97200,note_on,,,,,2,0,2,,,0,,,42,63
97278,note_off,,,,,78,0,2,,,0,,,42,64
97280,note_on,,,,,2,0,2,,,0,,,43,67
97358,note_off,,,,,78,0,2,,,0,,,43,64
97360,note_on,,,,,2,0,2,,,0,,,42,72
97380,note_off,,,,,0,0,1,,,0,,,69,64
97380,note_off,,,,,180,0,1,,,0,,,63,64
97380,note_off,,,,,0,0,1,,,0,,,71,64
97438,note_off,,,,,78,0,2,,,0,,,42,64
97440,set_tempo,,,,,280,1,0,451128,,,,,,
97440,note_on,,,,,2,0,2,,,0,,,40,75
97440,note_on,,,,,60,0,1,,,0,,,71,87
97440,note_on,,,,,0,0,1,,,0,,,67,87
97440,note_on,,,,,0,0,1,,,0,,,64,87
97518,note_off,,,,,78,0,2,,,0,,,40,64
97520,note_on,,,,,2,0,2,,,0,,,42,75
97598,note_off,,,,,78,0,2,,,0,,,42,64
97600,note_on,,,,,2,0,2,,,0,,,40,78
97620,note_off,,,,,180,0,1,,,0,,,64,64
97620,note_off,,,,,0,0,1,,,0,,,67,64
97620,note_off,,,,,0,0,1,,,0,,,71,64
97640,set_tempo,,,,,200,1,0,447761,,,,,,
97678,note_off,,,,,78,0,2,,,0,,,40,64
97680,note_on,,,,,0,0,1,,,0,,,65,81
97680,note_on,,,,,0,0,1,,,0,,,68,81
97680,note_on,,,,,60,0,1,,,0,,,71,81
97680,note_on,,,,,2,0,2,,,0,,,38,82
97758,note_off,,,,,78,0,2,,,0,,,38,64
97760,note_on,,,,,2,0,2,,,0,,,40,86
97838,note_off,,,,,78,0,2,,,0,,,40,64
97840,note_on,,,,,2,0,2,,,0,,,38,91
97860,note_off,,,,,180,0,1,,,0,,,65,64
97860,note_off,,,,,0,0,1,,,0,,,71,64
97860,note_off,,,,,0,0,1,,,0,,,68,64
97918,note_off,,,,,78,0,2,,,0,,,38,64
97920,note_on,,,,,2,0,2,,,0,,,36,95
97920,set_tempo,,,,,280,1,0,444444,,,,,,
97920,note_on,,,,,0,0,1,,,0,,,64,98
97920,note_on,,,,,0,0,1,,,0,,,67,98
97920,note_on,,,,,60,0,1,,,0,,,72,98
97998,note_off,,,,,78,0,2,,,0,,,36,64
98000,note_on,,,,,2,0,2,,,0,,,40,89
98040,set_tempo,,,,,120,1,0,441176,,,,,,
98078,note_off,,,,,78,0,2,,,0,,,40,64
98080,note_on,,,,,2,0,2,,,0,,,43,84
98100,note_off,,,,,0,0,1,,,0,,,67,64
98100,note_off,,,,,180,0,1,,,0,,,64,64
98100,note_off,,,,,0,0,1,,,0,,,72,64
98158,note_off,,,,,78,0,2,,,0,,,43,64
98160,note_on,,,,,2,0,2,,,0,,,48,81
98200,set_tempo,,,,,160,1,0,437956,,,,,,
98238,note_off,,,,,78,0,2,,,0,,,48,64
98240,note_on,,,,,2,0,2,,,0,,,52,71
98318,note_off,,,,,78,0,2,,,0,,,52,64
98320,note_on,,,,,2,0,2,,,0,,,55,66
98398,note_off,,,,,78,0,2,,,0,,,55,64
98400,note_on,,,,,2,0,2,,,0,,,60,65
98400,note_on,,,,,0,0,1,,,0,,,76,67
98400,note_on,,,,,300,0,1,,,0,,,79,67
98400,note_on,,,,,0,0,1,,,0,,,72,67
98478,note_off,,,,,78,0,2,,,0,,,60,64
98480,note_on,,,,,2,0,2,,,0,,,62,63
98540,set_tempo,,,,,340,1,0,434783,,,,,,
98558,note_off,,,,,78,0,2,,,0,,,62,64
98560,note_on,,,,,2,0,2,,,0,,,60,63
98580,note_off,,,,,180,0,1,,,0,,,72,64
98580,note_off,,,,,0,0,1,,,0,,,76,64
98580,note_off,,,,,0,0,1,,,0,,,79,64
98638,note_off,,,,,78,0,2,,,0,,,60,64
98640,note_on,,,,,60,0,1,,,0,,,79,60
98640,note_on,,,,,0,0,1,,,0,,,77,60
98640,note_on,,,,,0,0,1,,,0,,,71,60
98640,note_on,,,,,2,0,2,,,0,,,59,63
98718,note_off,,,,,78,0,2,,,0,,,59,64
98720,note_on,,,,,2,0,2,,,0,,,57,66
98798,note_off,,,,,78,0,2,,,0,,,57,64
98800,note_on,,,,,2,0,2,,,0,,,59,70
98820,note_off,,,,,0,0,1,,,0,,,77,64
98820,note_off,,,,,0,0,1,,,0,,,79,64
98820,note_off,,,,,180,0,1,,,0,,,71,64
98820,set_tempo,,,,,280,1,0,431655,,,,,,
98878,note_off,,,,,78,0,2,,,0,,,59,64
98880,note_on,,,,,0,0,1,,,0,,,72,77
98880,note_on,,,,,0,0,1,,,0,,,76,77
98880,note_on,,,,,60,0,1,,,0,,,79,77
98880,note_on,,,,,2,0,2,,,0,,,60,72
98958,note_off,,,,,78,0,2,,,0,,,60,64
98960,note_on,,,,,2,0,2,,,0,,,62,78
99038,note_off,,,,,78,0,2,,,0,,,62,64
99040,note_on,,,,,2,0,2,,,0,,,60,82
99060,note_off,,,,,0,0,1,,,0,,,76,64
99060,note_off,,,,,180,0,1,,,0,,,72,64
99060,note_off,,,,,0,0,1,,,0,,,79,64
99118,note_off,,,,,78,0,2,,,0,,,60,64
99120,note_on,,,,,60,0,1,,,0,,,79,74
99120,note_on,,,,,0,0,1,,,0,,,74,74
99120,note_on,,,,,2,0,2,,,0,,,59,86
99120,note_on,,,,,0,0,1,,,0,,,77,74
99198,note_off,,,,,78,0,2,,,0,,,59,64
99200,note_on,,,,,2,0,2,,,0,,,57,91
99220,set_tempo,,,,,400,1,0,428571,,,,,,
99278,note_off,,,,,78,0,2,,,0,,,57,64
99280,note_on,,,,,2,0,2,,,0,,,59,96
99300,note_off,,,,,0,0,1,,,0,,,79,64
99300,note_off,,,,,0,0,1,,,0,,,77,64
99300,note_off,,,,,180,0,1,,,0,,,74,64
99358,note_off,,,,,78,0,2,,,0,,,59,64
99360,note_on,,,,,0,0,1,,,0,,,72,96
99360,note_on,,,,,2,0,2,,,0,,,60,100
99360,note_on,,,,,60,0,1,,,0,,,79,96
99360,note_on,,,,,0,0,1,,,0,,,76,96
99438,note_off,,,,,78,0,2,,,0,,,60,64
99440,note_on,,,,,2,0,2,,,0,,,62,106
99460,set_tempo,,,,,240,1,0,425532,,,,,,
99518,note_off,,,,,78,0,2,,,0,,,62,64
99520,note_on,,,,,2,0,2,,,0,,,60,109
99540,note_off,,,,,180,0,1,,,0,,,72,64
99540,note_off,,,,,0,0,1,,,0,,,76,64
99540,note_off,,,,,0,0,1,,,0,,,79,64
99598,note_off,,,,,78,0,2,,,0,,,60,64
99600,note_on,,,,,60,0,1,,,0,,,79,92
99600,note_on,,,,,2,0,2,,,0,,,59,112
99600,note_on,,,,,0,0,1,,,0,,,76,92
99678,note_off,,,,,78,0,2,,,0,,,59,64
99680,note_on,,,,,2,0,2,,,0,,,60,116
99680,set_tempo,,,,,220,1,0,431655,,,,,,
99758,note_off,,,,,78,0,2,,,0,,,60,64
99760,note_on,,,,,2,0,2,,,0,,,59,119
99780,note_off,,,,,0,0,1,,,0,,,79,64
99780,note_off,,,,,180,0,1,,,0,,,76,64
99838,note_off,,,,,78,0,2,,,0,,,59,64
99840,note_on,,,,,60,0,1,,,0,,,79,127
99840,set_tempo,,,,,160,1,0,500000,,,,,,
99840,control_change,,,,,0,0,1,,,0,64,95,,
99840,note_on,,,,,2,0,2,,,0,,,58,122
99900,set_tempo,,,,,60,1,0,425532,,,,,,
99918,note_off,,,,,78,0,1,,,0,,,79,64
99920,note_on,,,,,2,0,1,,,0,,,76,118
99998,note_off,,,,,78,0,1,,,0,,,76,64
100000,note_on,,,,,2,0,1,,,0,,,73,114
100078,note_off,,,,,78,0,1,,,0,,,73,64
100080,note_off,,,,,240,0,2,,,0,,,58,64
100080,note_on,,,,,2,0,1,,,0,,,67,110
100158,note_off,,,,,78,0,1,,,0,,,67,64
100160,note_on,,,,,2,0,1,,,0,,,64,104
100238,note_off,,,,,78,0,1,,,0,,,64,64
100240,note_on,,,,,2,0,1,,,0,,,61,98
100300,set_tempo,,,,,400,1,0,422535,,,,,,
100310,control_change,,,,,70,0,1,,,0,64,0,,
100318,note_off,,,,,8,0,1,,,0,,,61,64
100320,note_on,,,,,0,0,1,,,0,,,88,127
100320,control_change,,,,,0,0,1,,,0,64,96,,
100320,note_on,,,,,2,0,1,,,0,,,46,127
100340,set_tempo,,,,,40,1,0,500000,,,,,,
100400,set_tempo,,,,,60,1,0,422535,,,,,,
100440,note_off,,,,,120,0,1,,,0,,,88,64
100440,note_off,,,,,0,0,1,,,0,,,46,64
100440,note_on,,,,,0,0,1,,,0,,,76,114
100440,note_on,,,,,0,0,1,,,0,,,49,114
100500,control_change,,,,,60,0,1,,,0,64,0,,
100530,note_off,,,,,0,0,1,,,0,,,76,64
100530,note_off,,,,,30,0,1,,,0,,,49,64
100560,note_on,,,,,30,0,1,,,0,,,49,123
100560,note_on,,,,,0,0,1,,,0,,,76,123
100560,note_on,,,,,0,0,1,,,0,,,79,123
100560,control_change,,,,,0,0,1,,,0,64,95,,
100680,note_off,,,,,120,0,1,,,0,,,79,64
100680,note_off,,,,,0,0,1,,,0,,,76,64
100680,note_off,,,,,0,0,1,,,0,,,49,64
100680,note_on,,,,,0,0,1,,,0,,,61,105
100680,note_on,,,,,0,0,1,,,0,,,67,105
100740,control_change,,,,,60,0,1,,,0,64,0,,
100770,note_off,,,,,30,0,1,,,0,,,67,64
100770,note_off,,,,,0,0,1,,,0,,,61,64
100800,control_change,,,,,0,0,1,,,0,64,95,,
100800,note_on,,,,,30,0,1,,,0,,,79,127
100878,note_off,,,,,78,0,1,,,0,,,79,64
100880,note_on,,,,,2,0,1,,,0,,,76,118
100958,note_off,,,,,78,0,1,,,0,,,76,64
100960,set_tempo,,,,,560,1,0,419580,,,,,,
100960,note_on,,,,,2,0,1,,,0,,,71,114
101038,note_off,,,,,78,0,1,,,0,,,71,64
101040,note_on,,,,,2,0,1,,,0,,,67,110
101100,set_tempo,,,,,140,1,0,416667,,,,,,
101118,note_off,,,,,78,0,1,,,0,,,67,64
101120,note_on,,,,,2,0,1,,,0,,,64,104
101198,note_off,,,,,78,0,1,,,0,,,64,64
101200,note_on,,,,,2,0,1,,,0,,,59,99
101270,control_change,,,,,70,0,1,,,0,64,0,,
101280,control_change,,,,,0,0,1,,,0,64,96,,
101280,note_off,,,,,10,0,1,,,0,,,59,64
101280,note_on,,,,,0,0,1,,,0,,,46,127
101280,note_on,,,,,0,0,1,,,0,,,88,127
101400,note_on,,,,,0,0,1,,,0,,,76,114
101400,note_on,,,,,0,0,1,,,0,,,47,114
101400,note_off,,,,,120,0,1,,,0,,,88,64
101400,note_off,,,,,0,0,1,,,0,,,46,64
101460,control_change,,,,,60,0,1,,,0,64,0,,
101490,note_off,,,,,0,0,1,,,0,,,47,64
101490,note_off,,,,,30,0,1,,,0,,,76,64
101520,control_change,,,,,0,0,1,,,0,64,95,,
101520,note_on,,,,,0,0,1,,,0,,,79,123
101520,note_on,,,,,30,0,1,,,0,,,47,123
101520,note_on,,,,,0,0,1,,,0,,,76,123
101640,note_off,,,,,0,0,1,,,0,,,47,64
101640,note_off,,,,,0,0,1,,,0,,,76,64
101640,note_off,,,,,120,0,1,,,0,,,79,64
101640,note_on,,,,,0,0,1,,,0,,,67,105
101640,note_on,,,,,0,0,1,,,0,,,59,105
101700,control_change,,,,,60,0,1,,,0,64,0,,
101730,note_off,,,,,0,0,1,,,0,,,59,64
101730,note_off,,,,,30,0,1,,,0,,,67,64
101740,set_tempo,,,,,640,1,0,410959,,,,,,
101760,note_on,,,,,30,0,1,,,0,,,79,127
101760,control_change,,,,,0,0,1,,,0,64,95,,
101838,note_off,,,,,78,0,1,,,0,,,79,64
101840,note_on,,,,,2,0,1,,,0,,,76,118
101918,note_off,,,,,78,0,1,,,0,,,76,64
101920,note_on,,,,,2,0,1,,,0,,,69,114
101998,note_off,,,,,78,0,1,,,0,,,69,64
102000,note_on,,,,,2,0,1,,,0,,,69,110
102078,note_off,,,,,78,0,1,,,0,,,69,64
102080,note_on,,,,,2,0,1,,,0,,,67,104
102120,set_tempo,,,,,380,1,0,408163,,,,,,
102158,note_off,,,,,78,0,1,,,0,,,67,64
102160,note_on,,,,,2,0,1,,,0,,,64,99
102230,control_change,,,,,70,0,1,,,0,64,0,,
102240,control_change,,,,,0,0,1,,,0,64,96,,
102240,note_on,,,,,0,0,1,,,0,,,47,127
102240,note_off,,,,,10,0,1,,,0,,,64,64
102240,note_on,,,,,0,0,1,,,0,,,88,127
102360,note_off,,,,,120,0,1,,,0,,,88,64
102360,note_off,,,,,0,0,1,,,0,,,47,64
102360,note_on,,,,,0,0,1,,,0,,,48,114
102360,note_on,,,,,0,0,1,,,0,,,76,114
102420,control_change,,,,,60,0,1,,,0,64,0,,
102450,note_off,,,,,30,0,1,,,0,,,76,64
102450,note_off,,,,,0,0,1,,,0,,,48,64
102480,note_on,,,,,0,0,1,,,0,,,76,123
102480,note_on,,,,,0,0,1,,,0,,,48,123
102480,note_on,,,,,0,0,1,,,0,,,79,123
102480,note_on,,,,,30,0,1,,,0,,,81,123
102480,control_change,,,,,0,0,1,,,0,64,95,,
102500,set_tempo,,,,,380,1,0,405405,,,,,,
102600,note_off,,,,,0,0,1,,,0,,,48,64
102600,note_on,,,,,0,0,1,,,0,,,69,105
102600,note_on,,,,,0,0,1,,,0,,,60,105
102600,note_off,,,,,0,0,1,,,0,,,81,64
102600,note_off,,,,,120,0,1,,,0,,,79,64
102600,note_off,,,,,0,0,1,,,0,,,76,64
102660,control_change,,,,,60,0,1,,,0,64,0,,
102690,note_off,,,,,30,0,1,,,0,,,60,64
102690,note_off,,,,,0,0,1,,,0,,,69,64
102720,note_on,,,,,30,0,1,,,0,,,47,127
102720,note_on,,,,,0,0,1,,,0,,,88,127
102720,control_change,,,,,0,0,1,,,0,64,96,,
102800,set_tempo,,,,,300,1,0,402685,,,,,,
102840,note_on,,,,,0,0,1,,,0,,,76,114
102840,note_off,,,,,120,0,1,,,0,,,88,64
102840,note_off,,,,,0,0,1,,,0,,,47,64
102840,note_on,,,,,0,0,1,,,0,,,48,114
102900,control_change,,,,,60,0,1,,,0,64,0,,
102930,note_off,,,,,30,0,1,,,0,,,76,64
102930,note_off,,,,,0,0,1,,,0,,,48,64
102960,note_on,,,,,0,0,1,,,0,,,48,123
102960,note_on,,,,,0,0,1,,,0,,,76,123
102960,note_on,,,,,30,0,1,,,0,,,81,123
102960,control_change,,,,,0,0,1,,,0,64,95,,
102960,note_on,,,,,0,0,1,,,0,,,79,123
103080,note_off,,,,,120,0,1,,,0,,,79,64
103080,note_off,,,,,0,0,1,,,0,,,76,64
103080,note_off,,,,,0,0,1,,,0,,,48,64
103080,note_off,,,,,0,0,1,,,0,,,81,64
103080,note_on,,,,,0,0,1,,,0,,,69,105
103080,note_on,,,,,0,0,1,,,0,,,60,105
103170,note_off,,,,,90,0,1,,,0,,,60,64
103170,note_off,,,,,0,0,1,,,0,,,69,64
103198,control_change,,,,,28,0,1,,,0,64,0,,
103200,note_on,,,,,0,0,1,,,0,,,88,127
103200,control_change,,,,,0,0,1,,,0,64,96,,
103200,note_on,,,,,2,0,1,,,0,,,48,127
103320,note_off,,,,,120,0,1,,,0,,,88,64
103320,note_on,,,,,0,0,1,,,0,,,49,114
103320,note_on,,,,,0,0,1,,,0,,,76,114
103320,note_off,,,,,0,0,1,,,0,,,48,64
103380,control_change,,,,,60,0,1,,,0,64,0,,
103410,note_off,,,,,0,0,1,,,0,,,49,64
103410,note_off,,,,,30,0,1,,,0,,,76,64
103440,note_on,,,,,30,0,1,,,0,,,49,123
103440,note_on,,,,,0,0,1,,,0,,,81,123
103440,note_on,,,,,0,0,1,,,0,,,76,123
103440,note_on,,,,,0,0,1,,,0,,,79,123
103440,control_change,,,,,0,0,1,,,0,64,95,,
103560,note_on,,,,,0,0,1,,,0,,,69,105
103560,note_on,,,,,0,0,1,,,0,,,61,105
103560,note_off,,,,,0,0,1,,,0,,,49,64
103560,note_off,,,,,0,0,1,,,0,,,76,64
103560,note_off,,,,,120,0,1,,,0,,,79,64
103560,note_off,,,,,0,0,1,,,0,,,81,64
103620,control_change,,,,,60,0,1,,,0,64,0,,
103650,note_off,,,,,0,0,1,,,0,,,61,64
103650,note_off,,,,,30,0,1,,,0,,,69,64
103680,control_change,,,,,0,0,1,,,0,64,96,,
103680,note_on,,,,,0,0,1,,,0,,,90,127
103680,note_on,,,,,0,0,1,,,0,,,49,127
103680,control_change,,,,,30,0,1,,,0,7,80,,
103768,control_change,,,,,88,0,1,,,0,7,81,,
103800,note_off,,,,,32,0,1,,,0,,,90,64
103800,note_off,,,,,0,0,1,,,0,,,49,64
103800,note_on,,,,,0,0,1,,,0,,,50,114
103800,note_on,,,,,0,0,1,,,0,,,78,114
103858,control_change,,,,,58,0,1,,,0,7,82,,
103860,control_change,,,,,2,0,1,,,0,64,0,,
103890,note_off,,,,,0,0,1,,,0,,,50,64
103890,note_off,,,,,30,0,1,,,0,,,78,64
103920,note_on,,,,,0,0,1,,,0,,,81,123
103920,control_change,,,,,0,0,1,,,0,64,95,,
103920,note_on,,,,,0,0,1,,,0,,,50,123
103920,note_on,,,,,0,0,1,,,0,,,78,123
103920,note_on,,,,,30,0,1,,,0,,,83,123
103948,control_change,,,,,28,0,1,,,0,7,83,,
104038,control_change,,,,,90,0,1,,,0,7,84,,
104040,note_off,,,,,0,0,1,,,0,,,78,64
104040,note_off,,,,,2,0,1,,,0,,,81,64
104040,note_off,,,,,0,0,1,,,0,,,50,64
104040,note_off,,,,,0,0,1,,,0,,,83,64
104040,note_on,,,,,0,0,1,,,0,,,71,105
104040,note_on,,,,,0,0,1,,,0,,,62,105
104100,set_tempo,,,,,1300,1,0,431655,,,,,,
104128,control_change,,,,,88,0,1,,,0,7,85,,
104130,note_off,,,,,2,0,1,,,0,,,62,64
104130,note_off,,,,,0,0,1,,,0,,,71,64
104158,control_change,,,,,28,0,1,,,0,64,0,,
104160,note_on,,,,,2,0,1,,,0,,,87,127
104160,note_on,,,,,0,0,1,,,0,,,46,127
104160,control_change,,,,,0,0,1,,,0,64,96,,
104160,set_tempo,,,,,60,1,0,400000,,,,,,
104218,control_change,,,,,58,0,1,,,0,7,86,,
104280,note_on,,,,,0,0,1,,,0,,,47,114
104280,note_off,,,,,0,0,1,,,0,,,87,64
104280,note_off,,,,,62,0,1,,,0,,,46,64
104280,note_on,,,,,0,0,1,,,0,,,75,114
104308,control_change,,,,,28,0,1,,,0,7,87,,
104340,control_change,,,,,32,0,1,,,0,64,0,,
104370,note_off,,,,,30,0,1,,,0,,,47,64
104370,note_off,,,,,0,0,1,,,0,,,75,64
104398,control_change,,,,,28,0,1,,,0,7,88,,
104400,note_on,,,,,2,0,1,,,0,,,75,123
104400,note_on,,,,,0,0,1,,,0,,,47,123
104400,note_on,,,,,0,0,1,,,0,,,83,123
104400,note_on,,,,,0,0,1,,,0,,,78,123
104400,control_change,,,,,0,0,1,,,0,64,95,,
104488,control_change,,,,,88,0,1,,,0,7,89,,
104520,note_on,,,,,0,0,1,,,0,,,71,105
104520,note_on,,,,,0,0,1,,,0,,,59,105
104520,note_off,,,,,32,0,1,,,0,,,78,64
104520,note_off,,,,,0,0,1,,,0,,,47,64
104520,note_off,,,,,0,0,1,,,0,,,75,64
104520,note_off,,,,,0,0,1,,,0,,,83,64
104578,control_change,,,,,58,0,1,,,0,7,90,,
104580,control_change,,,,,2,0,1,,,0,64,0,,
104580,set_tempo,,,,,420,1,0,447761,,,,,,
104610,note_off,,,,,0,0,1,,,0,,,59,64
104610,note_off,,,,,30,0,1,,,0,,,71,64
104640,control_change,,,,,0,0,1,,,0,64,96,,
104640,note_on,,,,,30,0,1,,,0,,,42,127
104640,note_on,,,,,0,0,1,,,0,,,88,127
104668,control_change,,,,,28,0,1,,,0,7,91,,
104680,set_tempo,,,,,100,1,0,397351,,,,,,
104758,control_change,,,,,90,0,1,,,0,7,92,,
104760,note_on,,,,,0,0,1,,,0,,,76,114
104760,note_on,,,,,0,0,1,,,0,,,43,114
104760,note_off,,,,,0,0,1,,,0,,,42,64
104760,note_off,,,,,2,0,1,,,0,,,88,64
104820,control_change,,,,,60,0,1,,,0,64,0,,
104848,control_change,,,,,28,0,1,,,0,7,93,,
104850,note_off,,,,,0,0,1,,,0,,,43,64
104850,note_off,,,,,2,0,1,,,0,,,76,64
104880,note_on,,,,,0,0,1,,,0,,,76,123
104880,note_on,,,,,0,0,1,,,0,,,83,123
104880,note_on,,,,,30,0,1,,,0,,,43,123
104880,control_change,,,,,0,0,1,,,0,64,95,,
104880,note_on,,,,,0,0,1,,,0,,,79,123
104938,control_change,,,,,58,0,1,,,0,7,94,,
105000,note_off,,,,,62,0,1,,,0,,,79,64
105000,note_off,,,,,0,0,1,,,0,,,76,64
105000,note_off,,,,,0,0,1,,,0,,,83,64
105000,note_off,,,,,0,0,1,,,0,,,43,64
105000,note_on,,,,,0,0,1,,,0,,,71,105
105000,note_on,,,,,0,0,1,,,0,,,55,105
105028,control_change,,,,,28,0,1,,,0,7,95,,
105060,set_tempo,,,,,380,1,0,447761,,,,,,
105090,note_off,,,,,62,0,1,,,0,,,55,64
105090,note_off,,,,,0,0,1,,,0,,,71,64
105118,control_change,,,,,28,0,1,,,0,7,96,,
105118,control_change,,,,,0,0,1,,,0,64,0,,
105120,control_change,,,,,0,0,1,,,0,64,96,,
105120,note_on,,,,,0,0,1,,,0,,,44,125
105120,note_on,,,,,2,0,1,,,0,,,84,125
105120,set_tempo,,,,,60,1,0,400000,,,,,,
105208,control_change,,,,,88,0,1,,,0,7,97,,
105240,note_off,,,,,32,0,1,,,0,,,44,64
105240,note_off,,,,,0,0,1,,,0,,,84,64
105240,note_on,,,,,0,0,1,,,0,,,72,114
105240,note_on,,,,,0,0,1,,,0,,,45,114
105298,control_change,,,,,58,0,1,,,0,7,98,,
105300,control_change,,,,,2,0,1,,,0,64,0,,
105330,note_off,,,,,30,0,1,,,0,,,45,64
105330,note_off,,,,,0,0,1,,,0,,,72,64
105360,note_on,,,,,0,0,1,,,0,,,45,127
105360,note_on,,,,,0,0,1,,,0,,,81,127
105360,control_change,,,,,0,0,1,,,0,64,95,,
105360,note_on,,,,,30,0,1,,,0,,,76,127
105360,note_on,,,,,0,0,1,,,0,,,72,127
105388,control_change,,,,,28,0,1,,,0,7,99,,
105478,control_change,,,,,90,0,1,,,0,7,100,,
105480,note_on,,,,,0,0,1,,,0,,,57,127
105480,note_on,,,,,0,0,1,,,0,,,69,127
105480,note_off,,,,,0,0,1,,,0,,,76,64
105480,note_off,,,,,0,0,1,,,0,,,72,64
105480,note_off,,,,,2,0,1,,,0,,,81,64
105480,note_off,,,,,0,0,1,,,0,,,45,64
105540,control_change,,,,,60,0,1,,,0,64,0,,
105540,set_tempo,,,,,420,1,0,468750,,,,,,
105568,control_change,,,,,28,0,1,,,0,7,101,,
105570,note_off,,,,,2,0,1,,,0,,,69,64
105570,note_off,,,,,0,0,1,,,0,,,57,64
105600,set_tempo,,,,,60,1,0,400000,,,,,,
105600,control_change,,,,,0,0,1,,,0,64,96,,
105600,note_on,,,,,30,0,1,,,0,,,46,127
105600,note_on,,,,,0,0,1,,,0,,,83,127
105658,control_change,,,,,58,0,1,,,0,7,102,,
105660,set_tempo,,,,,60,1,0,422535,,,,,,
105720,note_off,,,,,62,0,1,,,0,,,83,64
105720,note_off,,,,,0,0,1,,,0,,,46,64
105720,note_on,,,,,0,0,1,,,0,,,47,114
105720,note_on,,,,,0,0,1,,,0,,,71,114
105748,control_change,,,,,28,0,1,,,0,7,103,,
105760,set_tempo,,,,,100,1,0,437956,,,,,,
105780,control_change,,,,,32,0,1,,,0,64,0,,
105810,note_off,,,,,30,0,1,,,0,,,71,64
105810,note_off,,,,,0,0,1,,,0,,,47,64
105838,control_change,,,,,28,0,1,,,0,7,104,,
105840,set_tempo,,,,,80,1,0,472441,,,,,,
105840,note_on,,,,,0,0,1,,,0,,,79,119
105840,control_change,,,,,0,0,1,,,0,64,95,,
105840,note_on,,,,,0,0,1,,,0,,,71,119
105840,note_on,,,,,2,0,1,,,0,,,47,119
105840,note_on,,,,,0,0,1,,,0,,,76,119
105900,set_tempo,,,,,60,1,0,495868,,,,,,
105928,control_change,,,,,88,0,1,,,0,7,105,,
105960,note_off,,,,,32,0,1,,,0,,,79,64
105960,note_off,,,,,0,0,1,,,0,,,76,64
105960,note_off,,,,,0,0,1,,,0,,,71,64
105960,note_off,,,,,0,0,1,,,0,,,47,64
105960,note_on,,,,,0,0,1,,,0,,,67,117
105960,note_on,,,,,0,0,1,,,0,,,59,117
105960,set_tempo,,,,,60,1,0,555556,,,,,,
106000,set_tempo,,,,,40,1,0,550459,,,,,,
106018,control_change,,,,,58,0,1,,,0,7,106,,
106020,control_change,,,,,2,0,1,,,0,64,0,,
106020,set_tempo,,,,,20,1,0,731707,,,,,,
106040,set_tempo,,,,,20,1,0,740741,,,,,,
106050,note_off,,,,,30,0,1,,,0,,,67,64
106050,note_off,,,,,0,0,1,,,0,,,59,64
106080,note_on,,,,,30,0,1,,,0,,,34,124
106080,set_tempo,,,,,40,1,0,566038,,,,,,
106080,note_on,,,,,0,0,1,,,0,,,83,124
106080,control_change,,,,,0,0,1,,,0,64,95,,
106108,control_change,,,,,28,0,1,,,0,7,107,,
106198,control_change,,,,,90,0,1,,,0,7,108,,
106200,note_on,,,,,0,0,1,,,0,,,35,109
106200,note_off,,,,,0,0,1,,,0,,,34,64
106200,note_on,,,,,0,0,1,,,0,,,71,109
106200,note_off,,,,,2,0,1,,,0,,,83,64
106200,set_tempo,,,,,120,1,0,588235,,,,,,
106220,set_tempo,,,,,20,1,0,594059,,,,,,
106240,set_tempo,,,,,20,1,0,618557,,,,,,
106260,control_change,,,,,60,0,1,,,0,64,0,,
106288,control_change,,,,,28,0,1,,,0,7,109,,
106290,note_off,,,,,2,0,1,,,0,,,71,64
106290,note_off,,,,,0,0,1,,,0,,,35,64
106300,set_tempo,,,,,60,1,0,759494,,,,,,
106320,control_change,,,,,0,0,1,,,0,64,96,,
106320,note_on,,,,,0,0,1,,,0,,,71,127
106320,note_on,,,,,30,0,1,,,0,,,35,127
106378,control_change,,,,,58,0,1,,,0,7,110,,
106400,set_tempo,,,,,100,1,0,845070,,,,,,
106440,note_off,,,,,62,0,1,,,0,,,71,64
106440,note_off,,,,,0,0,1,,,0,,,35,64
106440,note_on,,,,,0,0,1,,,0,,,47,116
106440,note_on,,,,,0,0,1,,,0,,,59,116
106468,control_change,,,,,28,0,1,,,0,7,111,,
106500,set_tempo,,,,,100,1,0,1132075,,,,,,
106500,control_change,,,,,32,0,1,,,0,64,0,,
106558,control_change,,,,,58,0,1,,,0,7,112,,
106560,set_tempo,,,,,60,1,0,1500000,,,,,,
106560,note_off,,,,,0,0,1,,,0,,,47,64
106560,note_off,,,,,2,0,1,,,0,,,59,64
106920,control_change,,,,,360,0,1,,,0,7,79,,
106920,set_tempo,,,,,360,1,0,451128,,,,,,
106920,note_on,,,,,6840,0,2,,,0,,,83,42
107010,note_off,,,,,90,0,2,,,0,,,83,64
107040,note_on,,,,,30,0,2,,,0,,,81,48
107130,note_off,,,,,90,0,2,,,0,,,81,64
107160,note_on,,,,,30,0,2,,,0,,,80,46
107250,note_off,,,,,90,0,2,,,0,,,80,64
107280,note_on,,,,,30,0,2,,,0,,,78,41
107370,note_off,,,,,90,0,2,,,0,,,78,64
107400,note_on,,,,,30,0,2,,,0,,,76,41
107490,note_off,,,,,90,0,2,,,0,,,76,64
107520,note_on,,,,,30,0,2,,,0,,,75,46
107610,note_off,,,,,90,0,2,,,0,,,75,64
107640,note_on,,,,,30,0,2,,,0,,,76,34
107640,set_tempo,,,,,720,1,0,447761,,,,,,
107730,note_off,,,,,90,0,2,,,0,,,76,64
107760,note_on,,,,,30,0,2,,,0,,,78,32
107850,note_off,,,,,90,0,2,,,0,,,78,64
107880,note_on,,,,,30,0,2,,,0,,,76,32
107970,note_off,,,,,90,0,2,,,0,,,76,64
108000,set_tempo,,,,,360,1,0,441176,,,,,,
108000,note_on,,,,,30,0,2,,,0,,,75,43
108090,note_off,,,,,90,0,2,,,0,,,75,64
108120,note_on,,,,,30,0,2,,,0,,,73,38
108210,note_off,,,,,90,0,2,,,0,,,73,64
108240,note_on,,,,,30,0,2,,,0,,,71,43
108330,note_off,,,,,90,0,2,,,0,,,71,64
108360,note_on,,,,,30,0,2,,,0,,,70,49
108450,note_off,,,,,90,0,2,,,0,,,70,64
108480,note_on,,,,,30,0,2,,,0,,,71,58
108520,set_tempo,,,,,520,1,0,447761,,,,,,
108570,note_off,,,,,90,0,2,,,0,,,71,64
108600,note_on,,,,,30,0,2,,,0,,,72,43
108690,note_off,,,,,90,0,2,,,0,,,72,64
108720,note_on,,,,,30,0,2,,,0,,,73,37
108780,set_tempo,,,,,260,1,0,458015,,,,,,
108810,note_off,,,,,90,0,2,,,0,,,73,64
108840,note_on,,,,,30,0,2,,,0,,,71,33
108930,note_off,,,,,90,0,2,,,0,,,71,64
108960,note_on,,,,,30,0,2,,,0,,,69,33
108960,set_tempo,,,,,180,1,0,465116,,,,,,
109050,note_off,,,,,90,0,2,,,0,,,69,64
109080,note_on,,,,,30,0,2,,,0,,,68,33
109170,note_off,,,,,90,0,2,,,0,,,68,64
109180,set_tempo,,,,,220,1,0,476190,,,,,,
109200,note_on,,,,,30,0,2,,,0,,,66,36
109290,note_off,,,,,90,0,2,,,0,,,66,64
109320,note_on,,,,,30,0,2,,,0,,,64,41
109400,set_tempo,,,,,220,1,0,491803,,,,,,
109410,note_off,,,,,90,0,2,,,0,,,64,64
109440,note_on,,,,,30,0,2,,,0,,,63,46
109500,set_tempo,,,,,100,1,0,508475,,,,,,
109530,note_off,,,,,90,0,2,,,0,,,63,64
109560,note_on,,,,,30,0,2,,,0,,,64,38
109650,note_off,,,,,90,0,2,,,0,,,64,64
109680,note_on,,,,,30,0,2,,,0,,,66,42
109680,note_on,,,,,0,0,1,,,0,,,71,35
109680,control_change,,,,,0,0,1,,,0,64,95,,
109680,note_on,,,,,2760,0,1,,,0,,,69,35
109700,set_tempo,,,,,200,1,0,521739,,,,,,
109770,note_off,,,,,90,0,2,,,0,,,66,64
109800,note_on,,,,,30,0,2,,,0,,,64,46
109820,set_tempo,,,,,120,1,0,550459,,,,,,
109860,note_off,,,,,180,0,1,,,0,,,71,64
109860,note_off,,,,,0,0,1,,,0,,,69,64
109890,note_off,,,,,90,0,2,,,0,,,64,64
109890,control_change,,,,,30,0,1,,,0,64,0,,
109900,set_tempo,,,,,80,1,0,588235,,,,,,
109920,note_on,,,,,30,0,1,,,0,,,69,42
109920,note_on,,,,,0,0,1,,,0,,,71,42
109920,control_change,,,,,0,0,1,,,0,64,96,,
109920,note_on,,,,,30,0,2,,,0,,,63,47
109980,set_tempo,,,,,80,1,0,606061,,,,,,
110000,set_tempo,,,,,20,1,0,612245,,,,,,
110010,note_off,,,,,90,0,2,,,0,,,63,64
110020,set_tempo,,,,,20,1,0,618557,,,,,,
110040,note_on,,,,,30,0,2,,,0,,,61,41
110100,note_off,,,,,0,0,1,,,0,,,69,64
110100,note_off,,,,,180,0,1,,,0,,,71,64
110100,set_tempo,,,,,80,1,0,638298,,,,,,
110120,set_tempo,,,,,20,1,0,674157,,,,,,
110130,note_off,,,,,90,0,2,,,0,,,61,64
110130,control_change,,,,,30,0,1,,,0,64,0,,
110140,set_tempo,,,,,20,1,0,697674,,,,,,
110160,note_on,,,,,30,0,1,,,0,,,68,36
110160,note_on,,,,,0,0,1,,,0,,,71,36
110160,note_on,,,,,30,0,2,,,0,,,59,36
110160,control_change,,,,,0,0,1,,,0,64,95,,
110200,set_tempo,,,,,60,1,0,740741,,,,,,
110220,set_tempo,,,,,20,1,0,789474,,,,,,
110240,set_tempo,,,,,20,1,0,800000,,,,,,
110250,note_off,,,,,90,0,2,,,0,,,59,64
110280,set_tempo,,,,,40,1,0,1000000,,,,,,
110280,note_on,,,,,0,0,1,,,0,,,66,33
110280,note_off,,,,,120,0,1,,,0,,,68,64
110280,note_on,,,,,30,0,2,,,0,,,57,32
110300,set_tempo,,,,,20,1,0,1016949,,,,,,
110340,note_off,,,,,60,0,1,,,0,,,71,64
110340,set_tempo,,,,,40,1,0,1111111,,,,,,
110360,set_tempo,,,,,20,1,0,1153846,,,,,,
110370,note_off,,,,,90,0,2,,,0,,,57,64
110390,control_change,,,,,50,0,1,,,0,64,0,,
110400,set_tempo,,,,,40,1,0,1500000,,,,,,
110400,note_on,,,,,0,0,2,,,0,,,52,28
110400,note_on,,,,,30,0,2,,,0,,,64,28
110400,note_on,,,,,0,0,2,,,0,,,56,28
110400,note_off,,,,,10,0,1,,,0,,,66,64
110400,note_on,,,,,0,0,1,,,0,,,71,32
110420,set_tempo,,,,,20,1,0,461538,,,,,,
110880,note_off,,,,,480,0,1,,,0,,,71,64
110880,note_on,,,,,0,0,1,,,0,,,76,34
110880,control_change,,,,,0,0,1,,,0,64,95,,
110880,set_tempo,,,,,460,1,0,500000,,,,,,
111000,note_off,,,,,120,0,1,,,0,,,76,64
111000,note_on,,,,,0,0,1,,,0,,,75,24
111120,note_off,,,,,120,0,1,,,0,,,75,64
111120,note_on,,,,,0,0,1,,,0,,,73,29
111240,note_off,,,,,120,0,1,,,0,,,73,64
111240,note_on,,,,,0,0,1,,,0,,,71,30
111330,control_change,,,,,90,0,1,,,0,64,0,,
111340,note_off,,,,,10,0,1,,,0,,,71,64
111360,set_tempo,,,,,480,1,0,659341,,,,,,
111360,note_on,,,,,20,0,1,,,0,,,63,37
111360,note_off,,,,,960,0,2,,,0,,,52,64
111360,note_on,,,,,0,0,2,,,0,,,54,30
111360,note_on,,,,,0,0,2,,,0,,,57,30
111360,note_off,,,,,0,0,2,,,0,,,64,64
111360,note_off,,,,,0,0,2,,,0,,,56,64
111360,note_on,,,,,0,0,1,,,0,,,71,37
111420,set_tempo,,,,,60,1,0,545455,,,,,,
111570,note_off,,,,,0,0,2,,,0,,,57,64
111570,note_off,,,,,210,0,1,,,0,,,71,64
111570,note_off,,,,,0,0,1,,,0,,,63,64
111570,note_off,,,,,210,0,2,,,0,,,54,64
111600,note_on,,,,,30,0,2,,,0,,,57,32
111600,note_on,,,,,30,0,1,,,0,,,63,34
111600,note_on,,,,,0,0,1,,,0,,,71,34
111600,set_tempo,,,,,180,1,0,517241,,,,,,
111600,note_on,,,,,0,0,2,,,0,,,54,32
111780,note_off,,,,,180,0,2,,,0,,,54,64
111780,note_off,,,,,0,0,2,,,0,,,57,64
111780,note_off,,,,,0,0,1,,,0,,,63,64
111780,note_off,,,,,180,0,1,,,0,,,71,64
111840,note_on,,,,,0,0,1,,,0,,,71,32
111840,note_on,,,,,60,0,1,,,0,,,63,32
111840,note_on,,,,,60,0,2,,,0,,,57,28
111840,note_on,,,,,0,0,2,,,0,,,54,28
111860,set_tempo,,,,,260,1,0,500000,,,,,,
112020,note_off,,,,,0,0,2,,,0,,,57,64
112020,note_off,,,,,180,0,1,,,0,,,71,64
112020,note_off,,,,,0,0,1,,,0,,,63,64
112020,note_off,,,,,180,0,2,,,0,,,54,64
112080,note_on,,,,,60,0,2,,,0,,,57,27
112080,note_on,,,,,0,0,2,,,0,,,54,27
112080,set_tempo,,,,,220,1,0,480000,,,,,,
112080,note_on,,,,,60,0,1,,,0,,,63,28
112080,note_on,,,,,0,0,1,,,0,,,71,28
112260,note_off,,,,,0,0,1,,,0,,,63,64
112260,note_off,,,,,180,0,2,,,0,,,54,64
112260,note_off,,,,,0,0,2,,,0,,,57,64
112260,note_off,,,,,180,0,1,,,0,,,71,64
112320,set_tempo,,,,,240,1,0,500000,,,,,,
112320,note_on,,,,,0,0,2,,,0,,,56,33
112320,note_on,,,,,60,0,2,,,0,,,59,33
112320,note_on,,,,,60,0,1,,,0,,,64,35
112320,note_on,,,,,0,0,1,,,0,,,71,35
112560,note_on,,,,,0,0,1,,,0,,,68,31
112560,note_off,,,,,240,0,2,,,0,,,56,64
112560,note_off,,,,,240,0,1,,,0,,,71,64
112560,note_off,,,,,0,0,2,,,0,,,59,64
112560,note_on,,,,,0,0,2,,,0,,,56,29
112560,note_on,,,,,0,0,2,,,0,,,52,29
112740,set_tempo,,,,,420,1,0,759494,,,,,,
112800,note_off,,,,,0,0,1,,,0,,,64,64
112800,note_off,,,,,240,0,1,,,0,,,68,64
112800,note_on,,,,,0,0,2,,,0,,,61,39
112800,note_on,,,,,0,0,1,,,0,,,73,38
112800,control_change,,,,,0,0,1,,,0,64,96,,
112800,note_on,,,,,0,0,2,,,0,,,57,39
112800,note_off,,,,,240,0,2,,,0,,,52,64
112800,set_tempo,,,,,60,1,0,545455,,,,,,
112800,note_on,,,,,0,0,1,,,0,,,64,38
112800,note_off,,,,,0,0,2,,,0,,,56,64
113220,note_off,,,,,0,0,2,,,0,,,61,64
113220,note_off,,,,,420,0,1,,,0,,,73,64
113220,note_off,,,,,0,0,1,,,0,,,64,64
113220,note_off,,,,,420,0,2,,,0,,,57,64
113240,control_change,,,,,20,0,1,,,0,64,0,,
113280,note_on,,,,,40,0,1,,,0,,,64,31
113280,note_on,,,,,0,0,1,,,0,,,71,31
113280,set_tempo,,,,,480,1,0,495868,,,,,,
113280,note_on,,,,,60,0,2,,,0,,,59,31
113280,note_on,,,,,0,0,2,,,0,,,56,31
113520,note_on,,,,,0,0,1,,,0,,,64,27
113520,note_off,,,,,240,0,1,,,0,,,71,64
113520,note_off,,,,,240,0,2,,,0,,,56,64
113520,note_off,,,,,0,0,2,,,0,,,59,64
113520,note_on,,,,,0,0,2,,,0,,,56,27
113520,note_on,,,,,0,0,2,,,0,,,52,27
113700,set_tempo,,,,,420,1,0,857143,,,,,,
113760,control_change,,,,,0,0,1,,,0,64,97,,
113760,note_on,,,,,0,0,1,,,0,,,66,28
113760,note_on,,,,,0,0,1,,,0,,,63,28
113760,note_off,,,,,0,0,1,,,0,,,64,64
113760,note_on,,,,,0,0,2,,,0,,,47,27
113760,note_on,,,,,0,0,2,,,0,,,54,27
113760,note_off,,,,,0,0,2,,,0,,,56,64
113760,note_off,,,,,240,0,2,,,0,,,52,64
113760,note_off,,,,,240,0,1,,,0,,,64,64
113760,set_tempo,,,,,60,1,0,600000,,,,,,
114100,set_tempo,,,,,340,1,0,1500000,,,,,,
114180,note_off,,,,,0,0,1,,,0,,,63,64
114180,note_off,,,,,420,0,2,,,0,,,47,64
114180,note_off,,,,,0,0,2,,,0,,,54,64
114180,note_off,,,,,420,0,1,,,0,,,66,64
114200,control_change,,,,,20,0,1,,,0,64,0,,
114240,set_tempo,,,,,140,1,0,560748,,,,,,
114240,control_change,,,,,0,0,1,,,0,7,63,,
114240,note_on,,,,,60,0,2,,,0,,,68,27
114240,note_on,,,,,0,0,2,,,0,,,71,27
114240,note_on,,,,,40,0,1,,,0,,,83,27
114480,note_off,,,,,240,0,2,,,0,,,71,64
114480,note_on,,,,,0,0,2,,,0,,,64,22
114480,note_off,,,,,240,0,1,,,0,,,83,64
114480,note_off,,,,,0,0,2,,,0,,,68,64
114480,note_on,,,,,0,0,1,,,0,,,81,30
114480,note_on,,,,,0,0,2,,,0,,,68,22
114540,note_on,,,,,0,0,1,,,0,,,80,31
114540,note_off,,,,,60,0,1,,,0,,,81,64
114600,note_on,,,,,0,0,1,,,0,,,78,33
114600,note_off,,,,,60,0,1,,,0,,,80,64
114660,note_on,,,,,0,0,1,,,0,,,76,36
114660,note_off,,,,,60,0,1,,,0,,,78,64
114660,set_tempo,,,,,420,1,0,857143,,,,,,
114720,note_off,,,,,0,0,2,,,0,,,64,64
114720,note_off,,,,,240,0,2,,,0,,,68,64
114720,set_tempo,,,,,60,1,0,545455,,,,,,
114720,note_on,,,,,0,0,2,,,0,,,69,35
114720,note_on,,,,,0,0,2,,,0,,,73,35
114720,note_off,,,,,60,0,1,,,0,,,76,64
114720,note_on,,,,,0,0,1,,,0,,,85,41
114720,control_change,,,,,0,0,1,,,0,64,96,,
115140,note_off,,,,,420,0,2,,,0,,,73,64
115140,note_off,,,,,0,0,2,,,0,,,69,64
115140,note_off,,,,,420,0,1,,,0,,,85,64
115160,control_change,,,,,20,0,1,,,0,64,0,,
115200,note_on,,,,,40,0,1,,,0,,,83,31
115200,set_tempo,,,,,480,1,0,600000,,,,,,
115200,note_on,,,,,60,0,2,,,0,,,68,30
115200,note_on,,,,,0,0,2,,,0,,,71,30
115440,note_on,,,,,0,0,1,,,0,,,81,30
115440,note_off,,,,,240,0,2,,,0,,,71,64
115440,note_off,,,,,0,0,2,,,0,,,68,64
115440,note_on,,,,,0,0,2,,,0,,,64,24
115440,note_on,,,,,0,0,2,,,0,,,68,24
115440,note_off,,,,,240,0,1,,,0,,,83,64
115500,note_on,,,,,0,0,1,,,0,,,80,33
115500,note_off,,,,,60,0,1,,,0,,,81,64
115560,note_on,,,,,0,0,1,,,0,,,78,36
115560,note_off,,,,,60,0,1,,,0,,,80,64
115620,set_tempo,,,,,420,1,0,857143,,,,,,
115620,note_off,,,,,60,0,1,,,0,,,78,64
115620,note_on,,,,,0,0,1,,,0,,,76,37
115680,note_off,,,,,240,0,2,,,0,,,68,64
115680,note_off,,,,,0,0,2,,,0,,,64,64
115680,note_on,,,,,0,0,2,,,0,,,59,40
115680,set_tempo,,,,,60,1,0,659341,,,,,,
115680,note_on,,,,,0,0,2,,,0,,,66,40
115680,control_change,,,,,0,0,1,,,0,64,97,,
115680,note_on,,,,,0,0,1,,,0,,,78,39
115680,note_on,,,,,0,0,1,,,0,,,75,39
115680,note_off,,,,,60,0,1,,,0,,,76,64
116040,set_tempo,,,,,360,1,0,1463415,,,,,,
116140,control_change,,,,,460,0,1,,,0,64,0,,
116160,note_on,,,,,0,0,2,,,0,,,64,27
116160,note_off,,,,,480,0,2,,,0,,,59,64
116160,set_tempo,,,,,120,1,0,600000,,,,,,
116160,note_off,,,,,0,0,2,,,0,,,66,64
116160,note_off,,,,,0,0,1,,,0,,,75,64
116160,control_change,,,,,0,0,1,,,0,7,79,,
116160,note_on,,,,,0,0,1,,,0,,,76,24
116160,note_on,,,,,0,0,1,,,0,,,68,24
116160,note_off,,,,,20,0,1,,,0,,,78,64
116180,set_tempo,,,,,20,1,0,582524,,,,,,
116220,set_tempo,,,,,40,1,0,576923,,,,,,
116240,set_tempo,,,,,20,1,0,571429,,,,,,
116280,set_tempo,,,,,40,1,0,566038,,,,,,
116300,set_tempo,,,,,20,1,0,560748,,,,,,
116320,set_tempo,,,,,20,1,0,550459,,,,,,
116360,set_tempo,,,,,40,1,0,545455,,,,,,
116370,note_off,,,,,0,0,1,,,0,,,68,64
116370,note_off,,,,,210,0,2,,,0,,,64,64
116370,note_off,,,,,210,0,1,,,0,,,76,64
116380,set_tempo,,,,,20,1,0,540541,,,,,,
116400,note_on,,,,,30,0,2,,,0,,,64,30
116420,set_tempo,,,,,40,1,0,535714,,,,,,
116460,set_tempo,,,,,40,1,0,526316,,,,,,
116500,set_tempo,,,,,40,1,0,521739,,,,,,
116560,set_tempo,,,,,60,1,0,512821,,,,,,
116580,note_off,,,,,180,0,2,,,0,,,64,64
116600,set_tempo,,,,,40,1,0,508475,,,,,,
116620,set_tempo,,,,,20,1,0,504202,,,,,,
116640,note_on,,,,,60,0,2,,,0,,,65,36
116640,note_on,,,,,0,0,2,,,0,,,69,36
116660,set_tempo,,,,,40,1,0,500000,,,,,,
116700,set_tempo,,,,,40,1,0,495868,,,,,,
116720,set_tempo,,,,,20,1,0,491803,,,,,,
116780,set_tempo,,,,,60,1,0,487805,,,,,,
116820,set_tempo,,,,,40,1,0,483871,,,,,,
116850,note_off,,,,,210,0,2,,,0,,,69,64
116880,set_tempo,,,,,60,1,0,480000,,,,,,
116880,note_on,,,,,30,0,2,,,0,,,69,32
116920,set_tempo,,,,,40,1,0,472441,,,,,,
116960,set_tempo,,,,,40,1,0,468750,,,,,,
117020,set_tempo,,,,,60,1,0,465116,,,,,,
117040,set_tempo,,,,,20,1,0,461538,,,,,,
117060,note_off,,,,,180,0,2,,,0,,,69,64
117100,set_tempo,,,,,60,1,0,458015,,,,,,
117120,note_on,,,,,0,0,2,,,0,,,68,33
117120,note_on,,,,,0,0,2,,,0,,,64,33
117120,note_off,,,,,60,0,2,,,0,,,65,64
117120,note_on,,,,,750,0,1,,,0,,,71,32
117330,note_off,,,,,210,0,1,,,0,,,71,64
117360,note_on,,,,,30,0,1,,,0,,,71,27
117540,note_off,,,,,180,0,1,,,0,,,71,64
117600,note_on,,,,,60,0,1,,,0,,,71,30
117600,note_on,,,,,0,0,2,,,0,,,69,36
117600,note_off,,,,,0,0,2,,,0,,,64,64
117600,note_off,,,,,480,0,2,,,0,,,68,64
117600,note_on,,,,,0,0,1,,,0,,,83,38
117600,note_on,,,,,0,0,2,,,0,,,59,36
117680,note_off,,,,,80,0,1,,,0,,,71,64
117680,note_on,,,,,0,0,1,,,0,,,73,31
117760,note_on,,,,,0,0,1,,,0,,,75,35
117760,note_off,,,,,80,0,1,,,0,,,73,64
117810,note_off,,,,,50,0,1,,,0,,,83,64
117826,note_off,,,,,16,0,1,,,0,,,75,64
117840,note_on,,,,,14,0,1,,,0,,,75,36
117840,note_on,,,,,0,0,1,,,0,,,83,36
117920,note_off,,,,,80,0,1,,,0,,,75,64
117920,note_on,,,,,0,0,1,,,0,,,76,35
118000,note_off,,,,,80,0,1,,,0,,,76,64
118000,note_on,,,,,0,0,1,,,0,,,78,37
118020,note_off,,,,,20,0,1,,,0,,,83,64
118080,note_on,,,,,0,0,2,,,0,,,64,37
118080,note_on,,,,,0,0,2,,,0,,,68,37
118080,note_off,,,,,0,0,2,,,0,,,69,64
118080,note_off,,,,,480,0,2,,,0,,,59,64
118080,note_off,,,,,60,0,1,,,0,,,78,64
118080,note_on,,,,,0,0,1,,,0,,,76,31
118080,note_on,,,,,0,0,1,,,0,,,83,31
118290,note_off,,,,,0,0,1,,,0,,,76,64
118290,note_off,,,,,0,0,2,,,0,,,68,64
118290,note_off,,,,,210,0,2,,,0,,,64,64
118290,note_off,,,,,210,0,1,,,0,,,83,64
118320,note_on,,,,,30,0,2,,,0,,,52,30
118500,note_off,,,,,180,0,2,,,0,,,52,64
118560,note_on,,,,,60,0,2,,,0,,,53,36
118560,note_on,,,,,0,0,2,,,0,,,57,36
118770,note_off,,,,,210,0,2,,,0,,,57,64
118800,note_on,,,,,30,0,2,,,0,,,57,32
118980,note_off,,,,,180,0,2,,,0,,,57,64
119020,set_tempo,,,,,1920,1,0,465116,,,,,,
119040,note_off,,,,,60,0,2,,,0,,,53,64
119040,note_on,,,,,0,0,2,,,0,,,52,33
119040,note_on,,,,,0,0,2,,,0,,,56,33
119040,set_tempo,,,,,20,1,0,461538,,,,,,
119040,note_on,,,,,750,0,1,,,0,,,59,32
119240,set_tempo,,,,,200,1,0,465116,,,,,,
119250,note_off,,,,,210,0,1,,,0,,,59,64
119280,note_on,,,,,30,0,1,,,0,,,59,27
119400,set_tempo,,,,,160,1,0,468750,,,,,,
119420,set_tempo,,,,,20,1,0,472441,,,,,,
119460,note_off,,,,,180,0,1,,,0,,,59,64
119520,note_on,,,,,0,0,2,,,0,,,57,27
119520,note_on,,,,,0,0,1,,,0,,,71,32
119520,note_on,,,,,60,0,1,,,0,,,59,32
119520,note_off,,,,,480,0,2,,,0,,,56,64
119520,note_off,,,,,0,0,2,,,0,,,52,64
119520,note_on,,,,,0,0,2,,,0,,,47,27
119600,note_on,,,,,0,0,1,,,0,,,61,26
119600,note_off,,,,,80,0,1,,,0,,,59,64
119660,set_tempo,,,,,240,1,0,480000,,,,,,
119680,note_off,,,,,80,0,1,,,0,,,61,64
119680,note_on,,,,,0,0,1,,,0,,,63,27
119700,set_tempo,,,,,40,1,0,483871,,,,,,
119730,note_off,,,,,50,0,1,,,0,,,71,64
119746,note_off,,,,,16,0,1,,,0,,,63,64
119760,note_on,,,,,14,0,1,,,0,,,63,28
119760,note_on,,,,,0,0,1,,,0,,,71,28
119840,note_off,,,,,80,0,1,,,0,,,63,64
119840,note_on,,,,,0,0,1,,,0,,,64,27
119920,note_off,,,,,80,0,1,,,0,,,64,64
119920,note_on,,,,,0,0,1,,,0,,,66,30
119940,set_tempo,,,,,240,1,0,487805,,,,,,
119940,note_off,,,,,20,0,1,,,0,,,71,64
119960,set_tempo,,,,,20,1,0,491803,,,,,,
120000,note_on,,,,,0,0,2,,,0,,,56,28
120000,note_off,,,,,0,0,2,,,0,,,57,64
120000,note_off,,,,,480,0,2,,,0,,,47,64
120000,note_on,,,,,0,0,2,,,0,,,52,28
120000,note_off,,,,,60,0,1,,,0,,,66,64
120000,note_on,,,,,0,0,1,,,0,,,64,34
120000,note_on,,,,,0,0,1,,,0,,,71,34
120120,set_tempo,,,,,160,1,0,495868,,,,,,
120210,note_off,,,,,0,0,2,,,0,,,52,64
120210,note_off,,,,,210,0,2,,,0,,,56,64
120240,note_on,,,,,0,0,2,,,0,,,56,23
120240,note_on,,,,,30,0,2,,,0,,,52,23
120260,set_tempo,,,,,140,1,0,500000,,,,,,
120380,set_tempo,,,,,120,1,0,504202,,,,,,
120420,note_off,,,,,0,0,2,,,0,,,52,64
120420,note_off,,,,,180,0,2,,,0,,,56,64
120480,note_on,,,,,0,0,1,,,0,,,59,26
120480,note_on,,,,,0,0,2,,,0,,,47,31
120480,note_off,,,,,0,0,1,,,0,,,64,64
120480,note_off,,,,,480,0,1,,,0,,,71,64
120480,note_on,,,,,60,0,2,,,0,,,57,31
120480,note_on,,,,,0,0,1,,,0,,,71,26
120540,set_tempo,,,,,160,1,0,508475,,,,,,
120560,note_off,,,,,80,0,1,,,0,,,59,64
120560,note_on,,,,,0,0,1,,,0,,,61,24
120640,note_off,,,,,80,0,1,,,0,,,61,64
120640,note_on,,,,,0,0,1,,,0,,,63,25
120660,set_tempo,,,,,120,1,0,512821,,,,,,
120690,note_off,,,,,50,0,1,,,0,,,71,64
120706,note_off,,,,,16,0,1,,,0,,,63,64
120720,note_on,,,,,14,0,1,,,0,,,63,28
120720,note_on,,,,,0,0,1,,,0,,,71,28
120780,set_tempo,,,,,120,1,0,526316,,,,,,
120800,note_off,,,,,80,0,1,,,0,,,63,64
120800,note_on,,,,,0,0,1,,,0,,,64,22
120880,note_off,,,,,80,0,1,,,0,,,64,64
120880,note_on,,,,,0,0,1,,,0,,,66,24
120900,set_tempo,,,,,120,1,0,530973,,,,,,
120900,note_off,,,,,20,0,1,,,0,,,71,64
120960,note_on,,,,,0,0,2,,,0,,,52,25
120960,note_on,,,,,0,0,2,,,0,,,56,25
120960,note_off,,,,,0,0,2,,,0,,,57,64
120960,note_on,,,,,0,0,1,,,0,,,71,28
120960,note_off,,,,,60,0,1,,,0,,,66,64
120960,note_off,,,,,480,0,2,,,0,,,47,64
120960,note_on,,,,,0,0,1,,,0,,,64,28
121020,set_tempo,,,,,120,1,0,535714,,,,,,
121040,set_tempo,,,,,20,1,0,540541,,,,,,
121170,note_off,,,,,0,0,2,,,0,,,52,64
121170,note_off,,,,,210,0,2,,,0,,,56,64
121200,note_on,,,,,0,0,2,,,0,,,56,18
121200,set_tempo,,,,,160,1,0,545455,,,,,,
121200,note_on,,,,,30,0,2,,,0,,,52,18
121280,set_tempo,,,,,80,1,0,550459,,,,,,
121360,set_tempo,,,,,80,1,0,560748,,,,,,
121380,note_off,,,,,0,0,2,,,0,,,52,64
121380,note_off,,,,,180,0,2,,,0,,,56,64
121440,note_on,,,,,0,0,2,,,0,,,47,25
121440,set_tempo,,,,,80,1,0,566038,,,,,,
121440,note_off,,,,,480,0,1,,,0,,,71,64
121440,note_off,,,,,0,0,1,,,0,,,64,64
121440,note_on,,,,,0,0,1,,,0,,,59,24
121440,note_on,,,,,60,0,2,,,0,,,57,25
121440,note_on,,,,,0,0,1,,,0,,,71,24
121500,set_tempo,,,,,60,1,0,571429,,,,,,
121520,set_tempo,,,,,20,1,0,576923,,,,,,
121520,note_off,,,,,80,0,1,,,0,,,59,64
121520,note_on,,,,,0,0,1,,,0,,,61,19
121560,set_tempo,,,,,40,1,0,588235,,,,,,
121600,set_tempo,,,,,40,1,0,600000,,,,,,
121600,note_on,,,,,0,0,1,,,0,,,63,24
121600,note_off,,,,,80,0,1,,,0,,,61,64
121620,set_tempo,,,,,20,1,0,612245,,,,,,
121640,set_tempo,,,,,20,1,0,618557,,,,,,
121650,note_off,,,,,50,0,1,,,0,,,71,64
121660,set_tempo,,,,,20,1,0,625000,,,,,,
121666,note_off,,,,,16,0,1,,,0,,,63,64
121680,set_tempo,,,,,20,1,0,652174,,,,,,
121680,note_on,,,,,14,0,1,,,0,,,63,27
121680,note_on,,,,,0,0,1,,,0,,,71,27
121700,set_tempo,,,,,20,1,0,659341,,,,,,
121760,set_tempo,,,,,60,1,0,674157,,,,,,
121760,note_off,,,,,80,0,1,,,0,,,63,64
121760,note_on,,,,,0,0,1,,,0,,,64,23
121780,set_tempo,,,,,20,1,0,689655,,,,,,
121800,set_tempo,,,,,20,1,0,697674,,,,,,
121820,set_tempo,,,,,20,1,0,714286,,,,,,
121840,note_off,,,,,80,0,1,,,0,,,64,64
121840,set_tempo,,,,,20,1,0,759494,,,,,,
121840,note_on,,,,,0,0,1,,,0,,,66,23
121860,note_off,,,,,20,0,1,,,0,,,71,64
121860,set_tempo,,,,,20,1,0,789474,,,,,,
121880,set_tempo,,,,,20,1,0,800000,,,,,,
121900,set_tempo,,,,,20,1,0,1333333,,,,,,
121920,note_off,,,,,0,0,2,,,0,,,57,64
121920,note_on,,,,,0,0,2,,,0,,,52,25
121920,note_on,,,,,0,0,2,,,0,,,56,25
121920,note_off,,,,,480,0,2,,,0,,,47,64
121920,note_on,,,,,0,0,1,,,0,,,71,28
121920,note_on,,,,,0,0,1,,,0,,,64,28
121920,note_off,,,,,60,0,1,,,0,,,66,64
121940,set_tempo,,,,,40,1,0,1304348,,,,,,
121960,set_tempo,,,,,20,1,0,869565,,,,,,
121980,set_tempo,,,,,20,1,0,740741,,,,,,
122000,set_tempo,,,,,20,1,0,697674,,,,,,
122020,set_tempo,,,,,20,1,0,659341,,,,,,
122040,set_tempo,,,,,20,1,0,652174,,,,,,
122060,set_tempo,,,,,20,1,0,638298,,,,,,
122080,set_tempo,,,,,20,1,0,625000,,,,,,
122120,set_tempo,,,,,40,1,0,618557,,,,,,
122130,note_off,,,,,210,0,2,,,0,,,56,64
122130,note_off,,,,,0,0,2,,,0,,,52,64
122140,set_tempo,,,,,20,1,0,612245,,,,,,
122160,set_tempo,,,,,20,1,0,606061,,,,,,
122160,note_on,,,,,0,0,2,,,0,,,44,42
122160,note_on,,,,,30,0,2,,,0,,,40,42
122180,set_tempo,,,,,20,1,0,600000,,,,,,
122200,set_tempo,,,,,20,1,0,594059,,,,,,
122220,set_tempo,,,,,20,1,0,588235,,,,,,
122340,note_off,,,,,0,0,2,,,0,,,40,64
122340,note_off,,,,,180,0,2,,,0,,,44,64
122400,note_on,,,,,0,0,2,,,0,,,40,63
122400,control_change,,,,,0,0,1,,,0,64,95,,
122400,note_on,,,,,0,0,1,,,0,,,52,51
122400,note_off,,,,,0,0,1,,,0,,,64,64
122400,note_off,,,,,480,0,1,,,0,,,71,64
122400,note_on,,,,,0,0,2,,,0,,,46,63
122400,note_on,,,,,60,0,2,,,0,,,61,63
122420,set_tempo,,,,,200,1,0,566038,,,,,,
122480,note_off,,,,,80,0,1,,,0,,,52,64
122480,note_on,,,,,0,0,1,,,0,,,53,55
122540,set_tempo,,,,,120,1,0,550459,,,,,,
122560,note_on,,,,,0,0,1,,,0,,,54,61
122560,note_off,,,,,80,0,1,,,0,,,53,64
122580,set_tempo,,,,,40,1,0,545455,,,,,,
122620,set_tempo,,,,,40,1,0,530973,,,,,,
122626,note_off,,,,,66,0,1,,,0,,,54,64
122640,note_on,,,,,14,0,1,,,0,,,55,68
122720,note_on,,,,,0,0,1,,,0,,,56,75
122720,note_off,,,,,80,0,1,,,0,,,55,64
122780,set_tempo,,,,,160,1,0,526316,,,,,,
122800,note_on,,,,,0,0,1,,,0,,,55,82
122800,note_off,,,,,80,0,1,,,0,,,56,64
122820,set_tempo,,,,,40,1,0,521739,,,,,,
122860,control_change,,,,,60,0,1,,,0,64,0,,
122880,note_on,,,,,0,0,2,,,0,,,40,76
122880,note_on,,,,,0,0,2,,,0,,,47,76
122880,note_off,,,,,480,0,2,,,0,,,40,64
122880,note_off,,,,,0,0,2,,,0,,,46,64
122880,note_off,,,,,20,0,1,,,0,,,55,64
122880,note_on,,,,,0,0,1,,,0,,,62,88
122880,note_on,,,,,0,0,1,,,0,,,52,88
122880,note_on,,,,,0,0,1,,,0,,,56,88
122880,control_change,,,,,0,0,1,,,0,64,95,,
122880,note_off,,,,,0,0,2,,,0,,,61,64
122980,set_tempo,,,,,160,1,0,512821,,,,,,
123020,set_tempo,,,,,40,1,0,508475,,,,,,
123090,note_off,,,,,210,0,2,,,0,,,40,64
123090,note_off,,,,,0,0,2,,,0,,,47,64
123120,note_on,,,,,0,0,2,,,0,,,40,74
123120,note_on,,,,,30,0,2,,,0,,,47,74
123140,set_tempo,,,,,120,1,0,504202,,,,,,
123300,set_tempo,,,,,160,1,0,500000,,,,,,
123300,note_off,,,,,0,0,2,,,0,,,47,64
123300,note_off,,,,,180,0,2,,,0,,,40,64
123340,control_change,,,,,460,0,1,,,0,64,0,,
123360,control_change,,,,,0,0,1,,,0,64,95,,
123360,note_off,,,,,0,0,1,,,0,,,62,64
123360,note_off,,,,,0,0,1,,,0,,,52,64
123360,note_off,,,,,20,0,1,,,0,,,56,64
123360,note_on,,,,,0,0,2,,,0,,,40,92
123360,note_on,,,,,0,0,2,,,0,,,64,92
123360,note_on,,,,,0,0,1,,,0,,,55,51
123360,note_on,,,,,60,0,2,,,0,,,49,92
123380,set_tempo,,,,,80,1,0,495868,,,,,,
123440,note_off,,,,,80,0,1,,,0,,,55,64
123440,note_on,,,,,0,0,1,,,0,,,56,56
123520,note_on,,,,,0,0,1,,,0,,,57,62
123520,note_off,,,,,80,0,1,,,0,,,56,64
123540,set_tempo,,,,,160,1,0,491803,,,,,,
123586,note_off,,,,,66,0,1,,,0,,,57,64
123600,note_on,,,,,14,0,1,,,0,,,58,68
123680,note_off,,,,,80,0,1,,,0,,,58,64
123680,note_on,,,,,0,0,1,,,0,,,59,82
123760,note_off,,,,,80,0,1,,,0,,,59,64
123760,note_on,,,,,0,0,1,,,0,,,58,92
123780,control_change,,,,,20,0,1,,,0,64,0,,
123820,set_tempo,,,,,280,1,0,487805,,,,,,
123840,note_on,,,,,0,0,2,,,0,,,56,101
123840,note_on,,,,,0,0,2,,,0,,,50,101
123840,note_on,,,,,0,0,2,,,0,,,40,101
123840,control_change,,,,,0,0,1,,,0,64,97,,
123840,note_on,,,,,0,0,1,,,0,,,65,99
123840,note_off,,,,,60,0,1,,,0,,,58,64
123840,note_off,,,,,480,0,2,,,0,,,40,64
123840,note_off,,,,,0,0,2,,,0,,,49,64
123840,note_off,,,,,0,0,2,,,0,,,64,64
123840,note_on,,,,,0,0,2,,,0,,,59,101
123980,set_tempo,,,,,160,1,0,483871,,,,,,
124220,set_tempo,,,,,240,1,0,480000,,,,,,
124460,set_tempo,,,,,240,1,0,476190,,,,,,
124580,set_tempo,,,,,120,1,0,472441,,,,,,
124740,set_tempo,,,,,160,1,0,468750,,,,,,
124790,control_change,,,,,950,0,1,,,0,64,0,,
124800,note_on,,,,,0,0,1,,,0,,,64,49
124800,set_tempo,,,,,60,1,0,821918,,,,,,
124800,note_off,,,,,10,0,1,,,0,,,65,64
124820,set_tempo,,,,,20,1,0,1463415,,,,,,
124980,note_off,,,,,180,0,1,,,0,,,64,64
124992,note_off,,,,,1152,0,2,,,0,,,40,64
124992,note_off,,,,,0,0,2,,,0,,,50,64
124992,note_off,,,,,0,0,2,,,0,,,56,64
124992,note_off,,,,,0,0,2,,,0,,,59,64
125040,set_tempo,,,,,220,1,0,681818,,,,,,
125280,note_on,,,,,288,0,2,,,0,,,40,106
125280,set_tempo,,,,,240,1,0,560748,,,,,,
125490,note_off,,,,,210,0,2,,,0,,,40,64
125520,note_on,,,,,30,0,2,,,0,,,40,114
125520,set_tempo,,,,,240,1,0,530973,,,,,,
125700,note_off,,,,,180,0,2,,,0,,,40,64
125760,note_on,,,,,0,0,2,,,0,,,45,113
125760,note_on,,,,,60,0,2,,,0,,,49,113
125760,note_on,,,,,0,0,1,,,0,,,61,112
125760,note_on,,,,,0,0,1,,,0,,,69,112
125760,set_tempo,,,,,240,1,0,461538,,,,,,
125760,control_change,,,,,0,0,1,,,0,91,96,,
125760,note_on,,,,,780,0,1,,,0,,,57,112
125940,note_off,,,,,180,0,2,,,0,,,45,64
125940,note_off,,,,,0,0,2,,,0,,,49,64
126000,note_on,,,,,60,0,2,,,0,,,33,127
126180,note_off,,,,,180,0,2,,,0,,,33,64
126600,note_on,,,,,0,0,2,,,0,,,45,103
126600,note_on,,,,,420,0,2,,,0,,,49,103
126660,note_off,,,,,900,0,1,,,0,,,69,64
126660,note_off,,,,,0,0,1,,,0,,,57,64
126660,note_off,,,,,0,0,1,,,0,,,61,64
126690,note_off,,,,,0,0,2,,,0,,,49,64
126690,note_off,,,,,90,0,2,,,0,,,45,64
126720,note_on,,,,,0,0,1,,,0,,,59,112
126720,note_on,,,,,60,0,1,,,0,,,57,112
126720,note_on,,,,,0,0,1,,,0,,,69,112
126720,note_on,,,,,0,0,2,,,0,,,47,115
126720,note_on,,,,,0,0,1,,,0,,,62,112
126720,note_on,,,,,30,0,2,,,0,,,50,115
126900,note_off,,,,,0,0,2,,,0,,,50,64
126900,note_off,,,,,180,0,2,,,0,,,47,64
126960,note_on,,,,,60,0,2,,,0,,,33,127
127140,note_off,,,,,180,0,2,,,0,,,33,64
127560,note_on,,,,,420,0,2,,,0,,,50,100
127560,note_on,,,,,0,0,2,,,0,,,47,100
127620,note_off,,,,,900,0,1,,,0,,,69,64
127620,note_off,,,,,0,0,1,,,0,,,62,64
127620,note_off,,,,,0,0,1,,,0,,,59,64
127620,note_off,,,,,0,0,1,,,0,,,57,64
127650,note_off,,,,,90,0,2,,,0,,,47,64
127650,note_off,,,,,0,0,2,,,0,,,50,64
127680,note_on,,,,,30,0,2,,,0,,,52,111
127680,note_on,,,,,0,0,1,,,0,,,64,115
127680,note_on,,,,,0,0,1,,,0,,,69,115
127680,note_on,,,,,60,0,1,,,0,,,57,115
127680,note_on,,,,,0,0,1,,,0,,,61,115
127680,note_on,,,,,0,0,2,,,0,,,49,111
127860,note_off,,,,,180,0,2,,,0,,,49,64
127860,note_off,,,,,0,0,2,,,0,,,52,64
127900,set_tempo,,,,,2140,1,0,454545,,,,,,
127920,note_on,,,,,60,0,2,,,0,,,33,127
128100,note_off,,,,,0,0,1,,,0,,,57,64
128100,note_off,,,,,0,0,1,,,0,,,61,64
128100,note_off,,,,,0,0,1,,,0,,,64,64
128100,note_off,,,,,420,0,1,,,0,,,69,64
128100,note_off,,,,,180,0,2,,,0,,,33,64
128160,note_on,,,,,60,0,1,,,0,,,57,97
128160,note_on,,,,,0,0,2,,,0,,,50,94
128160,note_on,,,,,0,0,1,,,0,,,69,97
128160,note_on,,,,,0,0,1,,,0,,,66,97
128160,note_on,,,,,0,0,1,,,0,,,62,97
128160,note_on,,,,,60,0,2,,,0,,,54,94
128220,set_tempo,,,,,320,1,0,447761,,,,,,
128250,note_off,,,,,90,0,2,,,0,,,50,64
128250,note_off,,,,,0,0,2,,,0,,,54,64
128280,note_on,,,,,30,0,2,,,0,,,45,121
128370,note_off,,,,,90,0,2,,,0,,,45,64
128400,note_on,,,,,0,0,2,,,0,,,52,103
128400,note_on,,,,,30,0,2,,,0,,,55,103
128400,note_on,,,,,0,0,1,,,0,,,69,111
128400,note_on,,,,,0,0,1,,,0,,,57,111
128400,note_on,,,,,0,0,1,,,0,,,64,111
128400,note_on,,,,,0,0,1,,,0,,,67,111
128400,note_off,,,,,0,0,1,,,0,,,57,64
128400,note_off,,,,,0,0,1,,,0,,,62,64
128400,note_off,,,,,0,0,1,,,0,,,66,64
128400,note_off,,,,,240,0,1,,,0,,,69,64
128490,note_off,,,,,90,0,2,,,0,,,52,64
128490,note_off,,,,,0,0,2,,,0,,,55,64
128520,note_on,,,,,30,0,2,,,0,,,45,122
128520,set_tempo,,,,,300,1,0,437956,,,,,,
128610,note_off,,,,,90,0,2,,,0,,,45,64
128640,note_on,,,,,30,0,2,,,0,,,54,115
128640,note_on,,,,,0,0,2,,,0,,,50,115
128640,note_on,,,,,0,0,1,,,0,,,62,120
128640,note_off,,,,,0,0,1,,,0,,,64,64
128640,note_on,,,,,0,0,1,,,0,,,57,120
128640,note_off,,,,,0,0,1,,,0,,,69,64
128640,note_on,,,,,0,0,1,,,0,,,66,120
128640,note_on,,,,,0,0,1,,,0,,,69,120
128640,note_off,,,,,0,0,1,,,0,,,67,64
128640,set_tempo,,,,,120,1,0,447761,,,,,,
128640,note_off,,,,,240,0,1,,,0,,,57,64
128760,note_off,,,,,0,0,2,,,0,,,54,64
128760,note_off,,,,,120,0,2,,,0,,,50,64
128880,note_on,,,,,0,0,1,,,0,,,69,91
128880,note_on,,,,,0,0,1,,,0,,,64,91
128880,note_on,,,,,0,0,1,,,0,,,61,91
128880,note_on,,,,,0,0,1,,,0,,,57,91
128880,note_off,,,,,0,0,1,,,0,,,57,64
128880,set_tempo,,,,,240,1,0,458015,,,,,,
128880,note_off,,,,,0,0,1,,,0,,,66,64
128880,note_off,,,,,240,0,1,,,0,,,69,64
128880,note_on,,,,,120,0,2,,,0,,,52,96
128880,note_on,,,,,0,0,2,,,0,,,49,96
128880,note_off,,,,,0,0,1,,,0,,,62,64
129000,note_off,,,,,120,0,2,,,0,,,49,64
129000,note_off,,,,,0,0,2,,,0,,,52,64
129120,note_off,,,,,240,0,1,,,0,,,69,64
129120,note_off,,,,,0,0,1,,,0,,,64,64
129120,note_off,,,,,0,0,1,,,0,,,61,64
129120,note_off,,,,,0,0,1,,,0,,,57,64
129120,set_tempo,,,,,240,1,0,480000,,,,,,
129120,note_on,,,,,0,0,1,,,0,,,61,85
129120,note_on,,,,,0,0,2,,,0,,,45,88
129120,note_on,,,,,0,0,1,,,0,,,69,85
129120,note_on,,,,,120,0,2,,,0,,,49,88
129120,note_on,,,,,0,0,1,,,0,,,57,85
129224,note_off,,,,,104,0,2,,,0,,,45,64
129224,note_off,,,,,0,0,1,,,0,,,61,64
129224,note_off,,,,,104,0,1,,,0,,,69,64
129224,note_off,,,,,0,0,2,,,0,,,49,64
129224,note_off,,,,,0,0,1,,,0,,,57,64
129240,note_on,,,,,16,0,1,,,0,,,59,94
129240,note_on,,,,,0,0,1,,,0,,,62,94
129240,note_on,,,,,0,0,1,,,0,,,69,94
129240,note_on,,,,,0,0,2,,,0,,,47,93
129240,note_on,,,,,16,0,2,,,0,,,50,93
129344,note_off,,,,,0,0,1,,,0,,,59,64
129344,note_off,,,,,104,0,1,,,0,,,69,64
129344,note_off,,,,,0,0,1,,,0,,,62,64
129344,note_off,,,,,0,0,2,,,0,,,50,64
129344,note_off,,,,,104,0,2,,,0,,,47,64
129360,note_on,,,,,0,0,1,,,0,,,69,101
129360,note_on,,,,,0,0,1,,,0,,,61,101
129360,note_on,,,,,16,0,2,,,0,,,49,102
129360,note_on,,,,,0,0,2,,,0,,,45,102
129360,set_tempo,,,,,240,1,0,500000,,,,,,
129360,note_on,,,,,16,0,1,,,0,,,57,101
129464,note_off,,,,,104,0,1,,,0,,,69,64
129464,note_off,,,,,0,0,1,,,0,,,57,64
129464,note_off,,,,,0,0,1,,,0,,,61,64
129464,note_off,,,,,104,0,2,,,0,,,45,64
129464,note_off,,,,,0,0,2,,,0,,,49,64
129480,note_on,,,,,0,0,1,,,0,,,69,110
129480,note_on,,,,,0,0,1,,,0,,,62,110
129480,note_on,,,,,16,0,1,,,0,,,59,110
129480,note_on,,,,,16,0,2,,,0,,,50,108
129480,note_on,,,,,0,0,2,,,0,,,47,108
129540,set_tempo,,,,,180,1,0,550459,,,,,,
129584,note_off,,,,,0,0,2,,,0,,,50,64
129584,note_off,,,,,104,0,2,,,0,,,47,64
129584,note_off,,,,,0,0,1,,,0,,,59,64
129584,note_off,,,,,0,0,1,,,0,,,62,64
129584,note_off,,,,,104,0,1,,,0,,,69,64
129600,note_on,,,,,0,0,1,,,0,,,69,121
129600,note_on,,,,,16,0,1,,,0,,,61,121
129600,note_on,,,,,0,0,1,,,0,,,64,121
129600,note_on,,,,,16,0,2,,,0,,,52,120
129600,note_on,,,,,0,0,2,,,0,,,49,120
129620,set_tempo,,,,,80,1,0,487805,,,,,,
130080,note_off,,,,,0,0,1,,,0,,,61,64
130080,note_on,,,,,0,0,1,,,0,,,57,121
130080,note_on,,,,,0,0,1,,,0,,,62,121
130080,note_on,,,,,0,0,1,,,0,,,66,121
130080,note_on,,,,,0,0,1,,,0,,,69,121
130080,note_off,,,,,480,0,2,,,0,,,49,64
130080,note_off,,,,,0,0,1,,,0,,,64,64
130080,note_off,,,,,0,0,2,,,0,,,52,64
130080,note_on,,,,,0,0,2,,,0,,,54,127
130080,note_on,,,,,0,0,2,,,0,,,50,127
130080,note_off,,,,,480,0,1,,,0,,,69,64
130480,set_tempo,,,,,860,1,0,1224490,,,,,,
130560,note_on,,,,,0,0,2,,,0,,,40,118
130560,note_on,,,,,0,0,1,,,0,,,69,112
130560,note_on,,,,,0,0,1,,,0,,,57,112
130560,note_off,,,,,0,0,1,,,0,,,66,64
130560,note_on,,,,,0,0,2,,,0,,,47,118
130560,note_off,,,,,480,0,1,,,0,,,57,64
130560,note_on,,,,,0,0,2,,,0,,,50,118
130560,note_on,,,,,0,0,2,,,0,,,52,118
130560,note_off,,,,,0,0,1,,,0,,,62,64
130560,note_on,,,,,0,0,2,,,0,,,64,118
130560,note_on,,,,,0,0,2,,,0,,,62,118
130560,note_off,,,,,0,0,2,,,0,,,54,64
130560,note_off,,,,,480,0,2,,,0,,,50,64
130560,note_off,,,,,0,0,1,,,0,,,69,64
130580,set_tempo,,,,,100,1,0,491803,,,,,,
130780,set_tempo,,,,,200,1,0,594059,,,,,,
130800,note_on,,,,,0,0,1,,,0,,,68,85
130800,note_off,,,,,0,0,1,,,0,,,69,64
130800,note_off,,,,,240,0,1,,,0,,,57,64
130800,note_on,,,,,0,0,1,,,0,,,56,85
130900,set_tempo,,,,,120,1,0,714286,,,,,,
130920,note_off,,,,,120,0,1,,,0,,,68,64
130920,note_off,,,,,0,0,1,,,0,,,56,64
130920,note_on,,,,,0,0,1,,,0,,,54,78
130920,note_on,,,,,0,0,1,,,0,,,66,78
131040,note_off,,,,,120,0,1,,,0,,,66,64
131040,note_off,,,,,0,0,1,,,0,,,54,64
131040,note_on,,,,,0,0,1,,,0,,,68,59
131040,note_on,,,,,0,0,1,,,0,,,56,59
131080,set_tempo,,,,,180,1,0,895522,,,,,,
131460,note_off,,,,,420,0,1,,,0,,,68,64
131460,set_tempo,,,,,380,1,0,1463415,,,,,,
131460,note_off,,,,,0,0,1,,,0,,,56,64
131460,note_off,,,,,0,0,2,,,0,,,64,64
131460,note_off,,,,,0,0,2,,,0,,,62,64
131460,note_off,,,,,0,0,2,,,0,,,52,64
131460,note_off,,,,,0,0,2,,,0,,,50,64
131460,note_off,,,,,0,0,2,,,0,,,47,64
131460,note_off,,,,,900,0,2,,,0,,,40,64
131520,set_tempo,,,,,60,1,0,750000,,,,,,
131520,note_on,,,,,60,0,1,,,0,,,86,69
131540,set_tempo,,,,,20,1,0,625000,,,,,,
131560,set_tempo,,,,,20,1,0,517241,,,,,,
131592,note_off,,,,,72,0,1,,,0,,,86,64
131600,note_on,,,,,8,0,1,,,0,,,83,48
131640,set_tempo,,,,,80,1,0,483871,,,,,,
131672,note_off,,,,,72,0,1,,,0,,,83,64
131680,note_on,,,,,8,0,1,,,0,,,80,45
131740,set_tempo,,,,,100,1,0,472441,,,,,,
131752,note_off,,,,,72,0,1,,,0,,,80,64
131760,note_on,,,,,8,0,1,,,0,,,74,46
131832,note_off,,,,,72,0,1,,,0,,,74,64
131840,note_on,,,,,8,0,1,,,0,,,71,49
131912,note_off,,,,,72,0,1,,,0,,,71,64
131920,note_on,,,,,8,0,1,,,0,,,68,51
131940,set_tempo,,,,,200,1,0,465116,,,,,,
131992,note_off,,,,,72,0,1,,,0,,,68,64
132000,note_on,,,,,8,0,1,,,0,,,62,53
132072,note_off,,,,,72,0,1,,,0,,,62,64
132080,note_on,,,,,8,0,1,,,0,,,59,55
132152,note_off,,,,,72,0,1,,,0,,,59,64
132160,note_on,,,,,8,0,1,,,0,,,56,57
132232,note_off,,,,,72,0,1,,,0,,,56,64
132240,note_on,,,,,8,0,1,,,0,,,50,58
132320,set_tempo,,,,,380,1,0,461538,,,,,,
132320,note_off,,,,,80,0,1,,,0,,,50,64
132320,note_on,,,,,0,0,1,,,0,,,47,61
132400,note_off,,,,,80,0,1,,,0,,,47,64
132400,note_on,,,,,0,0,1,,,0,,,44,62
132480,note_on,,,,,1020,0,2,,,0,,,40,67
132480,note_off,,,,,80,0,1,,,0,,,44,64
132480,set_tempo,,,,,160,1,0,447761,,,,,,
132600,note_off,,,,,120,0,2,,,0,,,40,64
132720,note_on,,,,,120,0,2,,,0,,,56,61
132720,note_on,,,,,0,0,2,,,0,,,52,61
132720,note_on,,,,,0,0,1,,,0,,,74,63
132720,note_on,,,,,0,0,1,,,0,,,68,63
132720,note_on,,,,,240,0,1,,,0,,,62,63
132760,set_tempo,,,,,280,1,0,576923,,,,,,
132840,note_off,,,,,120,0,1,,,0,,,74,64
132840,note_off,,,,,0,0,2,,,0,,,56,64
132840,note_off,,,,,120,0,2,,,0,,,52,64
132840,note_off,,,,,0,0,1,,,0,,,62,64
132840,note_off,,,,,0,0,1,,,0,,,68,64
132960,note_on,,,,,0,0,2,,,0,,,53,74
132960,note_on,,,,,0,0,1,,,0,,,74,74
132960,note_on,,,,,0,0,1,,,0,,,69,74
132960,note_on,,,,,120,0,1,,,0,,,62,74
132960,set_tempo,,,,,200,1,0,461538,,,,,,
132960,note_on,,,,,120,0,2,,,0,,,57,74
133380,note_off,,,,,420,0,1,,,0,,,74,64
133380,note_off,,,,,0,0,2,,,0,,,57,64
133380,note_off,,,,,420,0,2,,,0,,,53,64
133380,note_off,,,,,0,0,1,,,0,,,69,64
133380,note_off,,,,,0,0,1,,,0,,,62,64
133440,note_on,,,,,60,0,1,,,0,,,86,70
133440,set_tempo,,,,,480,1,0,517241,,,,,,
133500,set_tempo,,,,,60,1,0,512821,,,,,,
133512,note_off,,,,,72,0,1,,,0,,,86,64
133520,note_on,,,,,8,0,1,,,0,,,81,58
133560,set_tempo,,,,,60,1,0,483871,,,,,,
133592,note_off,,,,,72,0,1,,,0,,,81,64
133600,note_on,,,,,8,0,1,,,0,,,77,52
133660,set_tempo,,,,,100,1,0,472441,,,,,,
133672,note_off,,,,,72,0,1,,,0,,,77,64
133680,note_on,,,,,8,0,1,,,0,,,74,52
133752,note_off,,,,,72,0,1,,,0,,,74,64
133760,note_on,,,,,8,0,1,,,0,,,69,53
133832,note_off,,,,,72,0,1,,,0,,,69,64
133840,note_on,,,,,8,0,1,,,0,,,65,55
133860,set_tempo,,,,,200,1,0,465116,,,,,,
133912,note_off,,,,,72,0,1,,,0,,,65,64
133920,note_on,,,,,8,0,1,,,0,,,62,58
133992,note_off,,,,,72,0,1,,,0,,,62,64
134000,note_on,,,,,8,0,1,,,0,,,57,61
134072,note_off,,,,,72,0,1,,,0,,,57,64
134080,note_on,,,,,8,0,1,,,0,,,53,63
134152,note_off,,,,,72,0,1,,,0,,,53,64
134160,note_on,,,,,8,0,1,,,0,,,50,65
134240,note_on,,,,,0,0,1,,,0,,,45,68
134240,set_tempo,,,,,380,1,0,461538,,,,,,
134240,note_off,,,,,80,0,1,,,0,,,50,64
134320,note_off,,,,,80,0,1,,,0,,,45,64
134320,note_on,,,,,0,0,1,,,0,,,40,70
134400,note_off,,,,,80,0,1,,,0,,,40,64
134400,set_tempo,,,,,160,1,0,447761,,,,,,
134400,note_on,,,,,1020,0,2,,,0,,,41,72
134520,note_off,,,,,120,0,2,,,0,,,41,64
134640,note_on,,,,,120,0,2,,,0,,,57,79
134640,note_on,,,,,0,0,2,,,0,,,53,79
134640,note_on,,,,,0,0,1,,,0,,,62,76
134640,note_on,,,,,240,0,1,,,0,,,69,76
134640,note_on,,,,,0,0,1,,,0,,,74,76
134720,set_tempo,,,,,320,1,0,659341,,,,,,
134760,note_off,,,,,120,0,1,,,0,,,74,64
134760,note_off,,,,,0,0,1,,,0,,,69,64
134760,note_off,,,,,0,0,1,,,0,,,62,64
134760,note_off,,,,,120,0,2,,,0,,,53,64
134760,note_off,,,,,0,0,2,,,0,,,57,64
134880,note_on,,,,,0,0,1,,,0,,,74,82
134880,note_on,,,,,0,0,1,,,0,,,62,82
134880,note_on,,,,,120,0,1,,,0,,,72,82
134880,note_on,,,,,0,0,2,,,0,,,54,82
134880,set_tempo,,,,,160,1,0,461538,,,,,,
134880,note_on,,,,,120,0,2,,,0,,,57,82
135300,note_off,,,,,0,0,1,,,0,,,62,64
135300,note_off,,,,,0,0,2,,,0,,,57,64
135300,note_off,,,,,420,0,2,,,0,,,54,64
135300,set_tempo,,,,,420,1,0,458015,,,,,,
135300,note_off,,,,,420,0,1,,,0,,,74,64
135300,note_off,,,,,0,0,1,,,0,,,72,64
135360,note_on,,,,,60,0,1,,,0,,,86,81
135440,note_on,,,,,0,0,1,,,0,,,83,70
135440,note_off,,,,,80,0,1,,,0,,,86,64
135520,note_off,,,,,80,0,1,,,0,,,83,64
135520,note_on,,,,,0,0,1,,,0,,,79,76
135600,note_on,,,,,300,0,2,,,0,,,43,80
135600,note_off,,,,,80,0,1,,,0,,,79,64
135600,note_on,,,,,0,0,1,,,0,,,74,82
135680,note_off,,,,,80,0,1,,,0,,,74,64
135680,note_on,,,,,0,0,1,,,0,,,71,85
135760,note_on,,,,,0,0,1,,,0,,,67,91
135760,note_off,,,,,80,0,1,,,0,,,71,64
135820,set_tempo,,,,,520,1,0,451128,,,,,,
135840,note_off,,,,,80,0,1,,,0,,,67,64
135840,note_off,,,,,240,0,2,,,0,,,43,64
135840,note_on,,,,,0,0,2,,,0,,,62,87
135840,note_on,,,,,0,0,2,,,0,,,53,87
135840,note_on,,,,,0,0,2,,,0,,,50,87
135840,note_on,,,,,0,0,2,,,0,,,44,87
135840,note_on,,,,,0,0,1,,,0,,,62,95
136080,note_on,,,,,0,0,1,,,0,,,74,80
136080,note_off,,,,,240,0,1,,,0,,,62,64
136260,note_off,,,,,0,0,2,,,0,,,62,64
136260,note_off,,,,,0,0,2,,,0,,,53,64
136260,note_off,,,,,0,0,2,,,0,,,50,64
136260,note_off,,,,,420,0,2,,,0,,,44,64
136260,set_tempo,,,,,440,1,0,545455,,,,,,
136260,note_off,,,,,180,0,1,,,0,,,74,64
136320,set_tempo,,,,,60,1,0,451128,,,,,,
136320,note_on,,,,,60,0,1,,,0,,,86,100
136400,note_off,,,,,80,0,1,,,0,,,86,64
136400,note_on,,,,,0,0,1,,,0,,,81,81
136480,note_on,,,,,0,0,1,,,0,,,77,86
136480,note_off,,,,,80,0,1,,,0,,,81,64
136560,note_on,,,,,300,0,2,,,0,,,53,99
136560,set_tempo,,,,,240,1,0,447761,,,,,,
136560,note_on,,,,,0,0,2,,,0,,,45,99
136560,note_on,,,,,0,0,1,,,0,,,74,92
136560,note_off,,,,,80,0,1,,,0,,,77,64
136560,note_on,,,,,0,0,2,,,0,,,50,99
136640,note_on,,,,,0,0,1,,,0,,,69,98
136640,note_off,,,,,80,0,1,,,0,,,74,64
136720,note_on,,,,,0,0,1,,,0,,,65,103
136720,note_off,,,,,80,0,1,,,0,,,69,64
136770,note_off,,,,,0,0,2,,,0,,,53,64
136770,note_off,,,,,210,0,2,,,0,,,45,64
136770,note_off,,,,,0,0,2,,,0,,,50,64
136780,set_tempo,,,,,220,1,0,441176,,,,,,
136800,note_on,,,,,0,0,2,,,0,,,50,104
136800,note_on,,,,,30,0,2,,,0,,,53,104
136800,note_on,,,,,0,0,2,,,0,,,46,104
136800,note_on,,,,,0,0,1,,,0,,,62,110
136800,note_off,,,,,80,0,1,,,0,,,65,64
136880,note_off,,,,,80,0,1,,,0,,,62,64
136880,note_on,,,,,0,0,1,,,0,,,74,104
136960,note_off,,,,,80,0,1,,,0,,,74,64
136960,note_on,,,,,0,0,1,,,0,,,73,99
137010,note_off,,,,,0,0,2,,,0,,,50,64
137010,note_off,,,,,210,0,2,,,0,,,46,64
137010,note_off,,,,,0,0,2,,,0,,,53,64
137040,note_on,,,,,0,0,2,,,0,,,47,111
137040,note_on,,,,,0,0,2,,,0,,,50,111
137040,set_tempo,,,,,260,1,0,437956,,,,,,
137040,note_on,,,,,30,0,2,,,0,,,53,111
137040,note_on,,,,,0,0,1,,,0,,,74,102
137040,note_off,,,,,80,0,1,,,0,,,73,64
137120,note_on,,,,,0,0,1,,,0,,,86,113
137120,note_off,,,,,80,0,1,,,0,,,74,64
137200,note_off,,,,,80,0,1,,,0,,,86,64
137200,note_on,,,,,0,0,1,,,0,,,85,122
137250,note_off,,,,,0,0,2,,,0,,,50,64
137250,note_off,,,,,0,0,2,,,0,,,53,64
137250,note_off,,,,,210,0,2,,,0,,,47,64
137254,note_off,,,,,54,0,1,,,0,,,85,64
137260,set_tempo,,,,,220,1,0,431655,,,,,,
137280,note_on,,,,,0,0,2,,,0,,,50,118
137280,note_on,,,,,0,0,2,,,0,,,52,118
137280,note_on,,,,,0,0,2,,,0,,,47,118
137280,note_on,,,,,30,0,2,,,0,,,56,118
137280,note_on,,,,,26,0,1,,,0,,,86,126
137360,note_on,,,,,0,0,1,,,0,,,85,118
137360,note_off,,,,,80,0,1,,,0,,,86,64
137440,note_on,,,,,0,0,1,,,0,,,88,106
137440,note_off,,,,,80,0,1,,,0,,,85,64
137520,note_off,,,,,80,0,1,,,0,,,88,64
137520,note_on,,,,,0,0,1,,,0,,,86,96
137600,note_on,,,,,0,0,1,,,0,,,85,88
137600,note_off,,,,,80,0,1,,,0,,,86,64
137680,note_off,,,,,80,0,1,,,0,,,85,64
137680,note_on,,,,,0,0,1,,,0,,,83,84
137760,set_tempo,,,,,500,1,0,434783,,,,,,
137760,note_off,,,,,80,0,1,,,0,,,83,64
137760,note_on,,,,,0,0,1,,,0,,,81,80
137840,note_off,,,,,80,0,1,,,0,,,81,64
137840,note_on,,,,,0,0,1,,,0,,,80,78
137920,note_off,,,,,80,0,1,,,0,,,80,64
137920,note_on,,,,,0,0,1,,,0,,,83,75
138000,note_off,,,,,80,0,1,,,0,,,83,64
138000,note_on,,,,,0,0,1,,,0,,,81,75
138020,set_tempo,,,,,260,1,0,437956,,,,,,
138080,note_off,,,,,80,0,1,,,0,,,81,64
138080,note_on,,,,,0,0,1,,,0,,,80,73
138160,note_off,,,,,80,0,1,,,0,,,80,64
138160,note_on,,,,,0,0,1,,,0,,,78,70
138240,note_off,,,,,80,0,1,,,0,,,78,64
138240,note_on,,,,,0,0,1,,,0,,,76,67
138240,set_tempo,,,,,220,1,0,447761,,,,,,
138320,note_off,,,,,80,0,1,,,0,,,76,64
138320,note_on,,,,,0,0,1,,,0,,,75,67
138400,note_off,,,,,80,0,1,,,0,,,75,64
138400,note_on,,,,,0,0,1,,,0,,,78,67
138480,note_on,,,,,0,0,1,,,0,,,76,67
138480,note_off,,,,,0,0,2,,,0,,,56,64
138480,note_off,,,,,1200,0,2,,,0,,,47,64
138480,note_off,,,,,0,0,2,,,0,,,50,64
138480,note_off,,,,,0,0,2,,,0,,,52,64
138480,note_off,,,,,80,0,1,,,0,,,78,64
138560,note_off,,,,,80,0,1,,,0,,,76,64
138560,note_on,,,,,0,0,1,,,0,,,74,67
138640,note_on,,,,,0,0,1,,,0,,,73,67
138640,note_off,,,,,80,0,1,,,0,,,74,64
138720,note_on,,,,,0,0,1,,,0,,,59,70
138720,note_on,,,,,0,0,1,,,0,,,71,70
138720,note_off,,,,,80,0,1,,,0,,,73,64
138800,note_off,,,,,0,0,1,,,0,,,59,64
138800,note_on,,,,,0,0,1,,,0,,,58,73
138800,note_on,,,,,0,0,1,,,0,,,70,73
138800,note_off,,,,,80,0,1,,,0,,,71,64
138880,note_on,,,,,0,0,1,,,0,,,74,79
138880,note_on,,,,,0,0,1,,,0,,,62,79
138880,note_off,,,,,0,0,1,,,0,,,58,64
138880,note_off,,,,,80,0,1,,,0,,,70,64
138960,note_on,,,,,0,0,1,,,0,,,61,81
138960,note_off,,,,,0,0,1,,,0,,,62,64
138960,note_off,,,,,80,0,1,,,0,,,74,64
138960,note_on,,,,,0,0,1,,,0,,,73,81
139040,note_on,,,,,0,0,1,,,0,,,71,85
139040,note_on,,,,,0,0,1,,,0,,,59,85
139040,note_off,,,,,0,0,1,,,0,,,61,64
139040,note_off,,,,,80,0,1,,,0,,,73,64
139100,set_tempo,,,,,860,1,0,441176,,,,,,
139120,note_off,,,,,80,0,1,,,0,,,71,64
139120,note_off,,,,,0,0,1,,,0,,,59,64
139120,note_on,,,,,0,0,1,,,0,,,69,89
139120,note_on,,,,,0,0,1,,,0,,,57,89
139200,note_off,,,,,80,0,1,,,0,,,57,64
139200,note_on,,,,,0,0,1,,,0,,,68,89
139200,note_on,,,,,0,0,1,,,0,,,56,89
139200,note_off,,,,,0,0,1,,,0,,,69,64
139280,note_off,,,,,80,0,1,,,0,,,68,64
139280,note_off,,,,,0,0,1,,,0,,,56,64
139280,note_on,,,,,0,0,1,,,0,,,57,92
139280,note_on,,,,,0,0,1,,,0,,,69,92
139360,note_on,,,,,0,0,1,,,0,,,71,94
139360,note_off,,,,,0,0,1,,,0,,,57,64
139360,note_on,,,,,0,0,1,,,0,,,59,94
139360,note_off,,,,,80,0,1,,,0,,,69,64
139380,set_tempo,,,,,280,1,0,437956,,,,,,
139440,note_off,,,,,80,0,1,,,0,,,71,64
139440,note_off,,,,,0,0,1,,,0,,,59,64
139440,note_on,,,,,0,0,1,,,0,,,57,97
139440,note_on,,,,,0,0,1,,,0,,,69,97
139520,note_on,,,,,0,0,1,,,0,,,68,100
139520,note_off,,,,,0,0,1,,,0,,,57,64
139520,note_off,,,,,80,0,1,,,0,,,69,64
139520,note_on,,,,,0,0,1,,,0,,,56,100
139600,note_off,,,,,80,0,1,,,0,,,68,64
139600,note_off,,,,,0,0,1,,,0,,,56,64
139600,note_on,,,,,0,0,1,,,0,,,66,103
139600,note_on,,,,,0,0,1,,,0,,,54,103
139620,set_tempo,,,,,240,1,0,434783,,,,,,
139680,note_off,,,,,80,0,1,,,0,,,66,64
139680,note_off,,,,,0,0,1,,,0,,,54,64
139680,note_on,,,,,0,0,1,,,0,,,52,106
139680,note_on,,,,,0,0,1,,,0,,,64,106
139760,note_off,,,,,80,0,1,,,0,,,64,64
139760,note_off,,,,,0,0,1,,,0,,,52,64
139760,note_on,,,,,0,0,1,,,0,,,54,109
139760,note_on,,,,,0,0,1,,,0,,,66,109
139820,set_tempo,,,,,200,1,0,431655,,,,,,
139840,note_on,,,,,0,0,1,,,0,,,64,111
139840,note_on,,,,,0,0,1,,,0,,,52,111
139840,note_off,,,,,0,0,1,,,0,,,54,64
139840,note_off,,,,,80,0,1,,,0,,,66,64
139920,note_off,,,,,0,0,1,,,0,,,52,64
139920,note_on,,,,,0,0,1,,,0,,,50,113
139920,note_on,,,,,0,0,1,,,0,,,62,113
139920,note_off,,,,,80,0,1,,,0,,,64,64
140000,note_off,,,,,80,0,1,,,0,,,62,64
140000,note_off,,,,,0,0,1,,,0,,,50,64
140000,note_on,,,,,0,0,1,,,0,,,49,116
140000,note_on,,,,,0,0,1,,,0,,,61,116
140060,set_tempo,,,,,240,1,0,425532,,,,,,
140080,note_off,,,,,80,0,1,,,0,,,61,64
140080,note_off,,,,,0,0,1,,,0,,,49,64
140080,note_on,,,,,0,0,1,,,0,,,59,117
140080,note_on,,,,,0,0,1,,,0,,,47,117
140160,note_on,,,,,0,0,1,,,0,,,57,121
140160,note_off,,,,,0,0,1,,,0,,,59,64
140160,note_off,,,,,80,0,1,,,0,,,47,64
140160,set_tempo,,,,,100,1,0,491803,,,,,,
140160,note_on,,,,,1680,0,2,,,0,,,49,80
140160,note_on,,,,,0,0,2,,,0,,,45,80
140240,set_tempo,,,,,80,1,0,461538,,,,,,
140280,note_off,,,,,120,0,1,,,0,,,57,64
140400,note_on,,,,,120,0,1,,,0,,,69,66
140520,note_off,,,,,120,0,1,,,0,,,69,64
140520,set_tempo,,,,,280,1,0,526316,,,,,,
140640,set_tempo,,,,,120,1,0,465116,,,,,,
140640,note_on,,,,,120,0,1,,,0,,,76,68
140640,note_on,,,,,0,0,1,,,0,,,64,68
140880,note_on,,,,,0,0,2,,,0,,,45,52
140880,note_on,,,,,0,0,2,,,0,,,49,52
140880,note_on,,,,,0,0,2,,,0,,,57,52
140880,note_off,,,,,0,0,2,,,0,,,49,64
140880,note_off,,,,,720,0,2,,,0,,,45,64
141000,note_off,,,,,0,0,2,,,0,,,57,64
141000,note_off,,,,,0,0,2,,,0,,,49,64
141000,note_off,,,,,120,0,2,,,0,,,45,64
141120,note_on,,,,,0,0,2,,,0,,,47,70
141120,note_on,,,,,0,0,2,,,0,,,50,70
141120,note_on,,,,,120,0,2,,,0,,,57,70
141360,note_off,,,,,0,0,1,,,0,,,76,64
141360,note_off,,,,,720,0,1,,,0,,,64,64
141360,note_on,,,,,0,0,1,,,0,,,78,58
141360,note_on,,,,,0,0,1,,,0,,,66,58
141460,set_tempo,,,,,820,1,0,521739,,,,,,
141480,note_off,,,,,120,0,1,,,0,,,78,64
141480,note_off,,,,,0,0,1,,,0,,,66,64
141600,set_tempo,,,,,140,1,0,461538,,,,,,
141600,note_on,,,,,0,0,1,,,0,,,62,68
141600,note_on,,,,,120,0,1,,,0,,,74,68
141840,note_on,,,,,0,0,2,,,0,,,57,53
141840,note_off,,,,,0,0,2,,,0,,,57,64
141840,note_off,,,,,0,0,2,,,0,,,50,64
141840,note_off,,,,,720,0,2,,,0,,,47,64
141840,note_on,,,,,0,0,2,,,0,,,50,53
141840,note_on,,,,,0,0,2,,,0,,,47,53
141960,note_off,,,,,120,0,2,,,0,,,47,64
141960,note_off,,,,,0,0,2,,,0,,,50,64
141960,note_off,,,,,0,0,2,,,0,,,57,64
142080,note_on,,,,,0,0,2,,,0,,,49,71
142080,note_on,,,,,0,0,2,,,0,,,52,71
142080,note_on,,,,,120,0,2,,,0,,,57,71
142200,note_on,,,,,0,0,1,,,0,,,64,66
142200,note_on,,,,,0,0,1,,,0,,,76,66
142200,note_off,,,,,600,0,1,,,0,,,62,64
142200,note_off,,,,,0,0,1,,,0,,,74,64
142290,note_off,,,,,90,0,1,,,0,,,76,64
142290,note_off,,,,,0,0,1,,,0,,,64,64
142320,note_on,,,,,30,0,1,,,0,,,73,69
142320,note_on,,,,,0,0,1,,,0,,,61,69
142530,note_off,,,,,210,0,1,,,0,,,61,64
142530,note_off,,,,,450,0,2,,,0,,,49,64
142530,note_off,,,,,0,0,2,,,0,,,52,64
142530,note_off,,,,,0,0,2,,,0,,,57,64
142530,note_off,,,,,0,0,1,,,0,,,73,64
142560,note_on,,,,,0,0,2,,,0,,,50,51
142560,set_tempo,,,,,960,1,0,454545,,,,,,
142560,note_on,,,,,30,0,2,,,0,,,57,51
142560,note_on,,,,,0,0,2,,,0,,,54,51
142560,note_on,,,,,30,0,1,,,0,,,71,74
142638,note_off,,,,,78,0,1,,,0,,,71,64
142640,note_on,,,,,2,0,1,,,0,,,59,64
142660,set_tempo,,,,,100,1,0,447761,,,,,,
142718,note_off,,,,,78,0,1,,,0,,,59,64
142720,note_on,,,,,2,0,1,,,0,,,71,70
142740,set_tempo,,,,,80,1,0,441176,,,,,,
142798,note_off,,,,,78,0,1,,,0,,,71,64
142800,note_off,,,,,0,0,2,,,0,,,54,64
142800,note_off,,,,,0,0,2,,,0,,,57,64
142800,note_on,,,,,0,0,2,,,0,,,57,63
142800,note_on,,,,,0,0,2,,,0,,,55,63
142800,note_on,,,,,0,0,2,,,0,,,52,63
142800,note_on,,,,,2,0,1,,,0,,,70,83
142800,note_off,,,,,240,0,2,,,0,,,50,64
142878,note_off,,,,,78,0,1,,,0,,,70,64
142880,set_tempo,,,,,140,1,0,447761,,,,,,
142880,note_on,,,,,2,0,1,,,0,,,58,79
142958,note_off,,,,,78,0,1,,,0,,,58,64
142960,note_on,,,,,2,0,1,,,0,,,70,82
142980,set_tempo,,,,,100,1,0,454545,,,,,,
143020,set_tempo,,,,,40,1,0,458015,,,,,,
143038,note_off,,,,,78,0,1,,,0,,,70,64
143040,note_off,,,,,0,0,2,,,0,,,55,64
143040,note_on,,,,,2,0,1,,,0,,,59,85
143040,note_off,,,,,0,0,2,,,0,,,57,64
143040,note_on,,,,,0,0,2,,,0,,,50,74
143040,note_on,,,,,0,0,2,,,0,,,54,74
143040,note_on,,,,,0,0,2,,,0,,,57,74
143040,note_off,,,,,240,0,2,,,0,,,52,64
143040,note_on,,,,,0,0,1,,,0,,,71,85
143060,set_tempo,,,,,40,1,0,451128,,,,,,
143260,set_tempo,,,,,200,1,0,461538,,,,,,
143280,note_on,,,,,0,0,2,,,0,,,57,60
143280,note_off,,,,,0,0,2,,,0,,,57,64
143280,note_off,,,,,0,0,2,,,0,,,54,64
143280,note_on,,,,,0,0,2,,,0,,,49,60
143280,note_on,,,,,0,0,1,,,0,,,61,81
143280,note_off,,,,,0,0,1,,,0,,,59,64
143280,note_on,,,,,0,0,2,,,0,,,52,60
143280,note_off,,,,,240,0,2,,,0,,,50,64
143280,note_on,,,,,0,0,1,,,0,,,73,81
143280,note_off,,,,,240,0,1,,,0,,,71,64
143400,note_off,,,,,120,0,1,,,0,,,73,64
143400,note_off,,,,,0,0,1,,,0,,,61,64
143400,note_on,,,,,0,0,1,,,0,,,62,83
143400,note_on,,,,,0,0,1,,,0,,,74,83
143520,note_off,,,,,120,0,1,,,0,,,74,64
143520,note_off,,,,,0,0,1,,,0,,,62,64
143520,note_on,,,,,0,0,1,,,0,,,64,96
143520,note_on,,,,,0,0,1,,,0,,,76,96
143520,note_off,,,,,240,0,2,,,0,,,49,64
143520,note_off,,,,,0,0,2,,,0,,,52,64
143520,note_off,,,,,0,0,2,,,0,,,57,64
143520,note_on,,,,,0,0,2,,,0,,,49,76
143520,note_on,,,,,0,0,2,,,0,,,45,76
143560,set_tempo,,,,,300,1,0,458015,,,,,,
143598,note_off,,,,,0,0,2,,,0,,,49,64
143598,note_off,,,,,78,0,2,,,0,,,45,64
143600,note_on,,,,,2,0,2,,,0,,,57,68
143660,set_tempo,,,,,100,1,0,454545,,,,,,
143678,note_off,,,,,78,0,2,,,0,,,57,64
143680,note_on,,,,,0,0,2,,,0,,,45,71
143680,note_on,,,,,2,0,2,,,0,,,49,71
143758,note_off,,,,,238,0,1,,,0,,,76,64
143758,note_off,,,,,0,0,2,,,0,,,49,64
143758,note_off,,,,,78,0,2,,,0,,,45,64
143758,note_off,,,,,0,0,1,,,0,,,64,64
143760,note_on,,,,,2,0,1,,,0,,,69,83
143760,note_on,,,,,0,0,1,,,0,,,81,83
143760,note_on,,,,,0,0,2,,,0,,,47,85
143760,set_tempo,,,,,100,1,0,447761,,,,,,
143760,note_on,,,,,2,0,2,,,0,,,50,85
143838,note_off,,,,,78,0,2,,,0,,,47,64
143838,note_off,,,,,0,0,2,,,0,,,50,64
143840,note_on,,,,,2,0,2,,,0,,,57,75
143840,set_tempo,,,,,80,1,0,441176,,,,,,
143900,set_tempo,,,,,60,1,0,434783,,,,,,
143918,note_off,,,,,78,0,2,,,0,,,57,64
143920,note_on,,,,,0,0,2,,,0,,,47,78
143920,note_on,,,,,2,0,2,,,0,,,50,78
143998,note_off,,,,,0,0,2,,,0,,,50,64
143998,note_off,,,,,238,0,1,,,0,,,81,64
143998,note_off,,,,,0,0,1,,,0,,,69,64
143998,note_off,,,,,78,0,2,,,0,,,47,64
144000,note_on,,,,,2,0,1,,,0,,,61,88
144000,note_on,,,,,0,0,1,,,0,,,73,88
144000,control_change,,,,,0,0,1,,,0,64,95,,
144000,set_tempo,,,,,100,1,0,545455,,,,,,
144000,note_on,,,,,0,0,2,,,0,,,49,93
144000,note_on,,,,,0,0,2,,,0,,,52,93
144000,note_on,,,,,2,0,2,,,0,,,57,93
144240,set_tempo,,,,,240,1,0,487805,,,,,,
144420,set_tempo,,,,,180,1,0,1071429,,,,,,
144420,note_off,,,,,0,0,1,,,0,,,61,64
144420,note_off,,,,,420,0,1,,,0,,,73,64
144420,note_off,,,,,0,0,2,,,0,,,52,64
144420,note_off,,,,,420,0,2,,,0,,,49,64
144420,note_off,,,,,0,0,2,,,0,,,57,64
144460,set_tempo,,,,,40,1,0,545455,,,,,,
144470,control_change,,,,,50,0,1,,,0,64,0,,
144480,note_on,,,,,0,0,1,,,0,,,69,127
144480,note_on,,,,,0,0,1,,,0,,,78,127
144480,control_change,,,,,0,0,1,,,0,64,95,,
144480,note_on,,,,,10,0,1,,,0,,,66,127
144480,note_on,,,,,60,0,2,,,0,,,57,126
144480,note_on,,,,,0,0,2,,,0,,,54,126
144480,note_on,,,,,0,0,2,,,0,,,50,126
144880,set_tempo,,,,,420,1,0,1363636,,,,,,
144900,note_off,,,,,0,0,1,,,0,,,69,64
144900,note_off,,,,,0,0,1,,,0,,,66,64
144900,note_off,,,,,420,0,1,,,0,,,78,64
144900,note_off,,,,,420,0,2,,,0,,,50,64
144900,note_off,,,,,0,0,2,,,0,,,57,64
144900,note_off,,,,,0,0,2,,,0,,,54,64
144950,control_change,,,,,50,0,1,,,0,64,0,,
144960,note_on,,,,,0,0,1,,,0,,,69,117
144960,note_on,,,,,60,0,2,,,0,,,74,98
144960,note_on,,,,,0,0,2,,,0,,,62,98
144960,note_on,,,,,0,0,2,,,0,,,52,98
144960,note_on,,,,,0,0,2,,,0,,,47,98
144960,note_on,,,,,10,0,1,,,0,,,57,117
144980,set_tempo,,,,,100,1,0,461538,,,,,,
145060,set_tempo,,,,,80,1,0,487805,,,,,,
145160,set_tempo,,,,,100,1,0,582524,,,,,,
145200,note_on,,,,,0,0,1,,,0,,,68,92
145200,note_on,,,,,0,0,1,,,0,,,56,92
145200,note_off,,,,,0,0,1,,,0,,,57,64
145200,note_off,,,,,240,0,1,,,0,,,69,64
145260,set_tempo,,,,,100,1,0,659341,,,,,,
145320,note_off,,,,,120,0,1,,,0,,,68,64
145320,note_off,,,,,0,0,1,,,0,,,56,64
145320,note_on,,,,,0,0,1,,,0,,,54,69
145320,note_on,,,,,0,0,1,,,0,,,66,69
145360,set_tempo,,,,,100,1,0,731707,,,,,,
145440,note_off,,,,,120,0,1,,,0,,,66,64
145440,note_off,,,,,0,0,1,,,0,,,54,64
145440,note_on,,,,,0,0,1,,,0,,,56,49
145440,note_on,,,,,0,0,1,,,0,,,68,49
145680,set_tempo,,,,,320,1,0,857143,,,,,,
145860,note_off,,,,,900,0,2,,,0,,,52,64
145860,note_off,,,,,420,0,1,,,0,,,68,64
145860,note_off,,,,,0,0,2,,,0,,,74,64
145860,note_off,,,,,0,0,2,,,0,,,62,64
145920,note_off,,,,,60,0,1,,,0,,,56,64
145920,note_on,,,,,0,0,1,,,0,,,73,49
145920,set_tempo,,,,,240,1,0,461538,,,,,,
145920,note_off,,,,,60,0,2,,,0,,,47,64
145920,note_on,,,,,0,0,2,,,0,,,45,39
145920,note_on,,,,,0,0,2,,,0,,,52,39
145920,note_on,,,,,0,0,2,,,0,,,57,39
146000,note_off,,,,,80,0,1,,,0,,,73,64
146000,note_on,,,,,0,0,1,,,0,,,76,46
146080,note_off,,,,,80,0,1,,,0,,,76,64
146080,note_on,,,,,0,0,1,,,0,,,81,45
146140,set_tempo,,,,,220,1,0,454545,,,,,,
146160,note_off,,,,,0,0,2,,,0,,,57,64
146160,note_off,,,,,0,0,2,,,0,,,52,64
146160,note_off,,,,,240,0,2,,,0,,,45,64
146160,note_off,,,,,80,0,1,,,0,,,81,64
146162,note_on,,,,,2,0,1,,,0,,,76,45
146242,note_off,,,,,80,0,1,,,0,,,76,64
146242,note_on,,,,,0,0,1,,,0,,,73,45
146320,set_tempo,,,,,180,1,0,451128,,,,,,
146322,note_on,,,,,0,0,1,,,0,,,69,46
146322,note_off,,,,,80,0,1,,,0,,,73,64
146402,note_on,,,,,0,0,1,,,0,,,64,48
146402,note_off,,,,,80,0,1,,,0,,,69,64
146482,note_off,,,,,80,0,1,,,0,,,64,64
146482,note_on,,,,,0,0,1,,,0,,,61,55
146500,set_tempo,,,,,180,1,0,447761,,,,,,
146562,note_off,,,,,80,0,1,,,0,,,61,64
146564,note_on,,,,,2,0,1,,,0,,,57,59
146640,note_on,,,,,76,0,1,,,0,,,52,64
146644,note_off,,,,,4,0,1,,,0,,,57,64
146680,set_tempo,,,,,180,1,0,441176,,,,,,
146720,note_off,,,,,76,0,1,,,0,,,52,64
146720,note_on,,,,,0,0,1,,,0,,,49,69
146800,note_off,,,,,80,0,1,,,0,,,49,64
146800,note_on,,,,,0,0,1,,,0,,,45,76
146840,set_tempo,,,,,160,1,0,437956,,,,,,
146880,note_on,,,,,0,0,1,,,0,,,33,82
146880,note_off,,,,,80,0,1,,,0,,,45,64
146940,set_tempo,,,,,100,1,0,444444,,,,,,
147000,set_tempo,,,,,60,1,0,483871,,,,,,
147000,note_off,,,,,120,0,1,,,0,,,33,64
147120,note_on,,,,,0,0,1,,,0,,,64,49
147120,note_on,,,,,0,0,1,,,0,,,69,49
147120,note_on,,,,,0,0,1,,,0,,,76,49
147120,note_on,,,,,120,0,1,,,0,,,57,49
147120,note_on,,,,,0,0,1,,,0,,,61,49
147220,set_tempo,,,,,220,1,0,576923,,,,,,
147240,note_off,,,,,120,0,1,,,0,,,76,64
147240,note_off,,,,,0,0,1,,,0,,,69,64
147240,note_off,,,,,0,0,1,,,0,,,64,64
147240,note_off,,,,,0,0,1,,,0,,,61,64
147240,note_off,,,,,0,0,1,,,0,,,57,64
147360,note_on,,,,,0,0,1,,,0,,,68,65
147360,set_tempo,,,,,140,1,0,461538,,,,,,
147360,note_on,,,,,120,0,1,,,0,,,76,65
147360,note_on,,,,,0,0,1,,,0,,,71,65
147360,note_on,,,,,0,0,1,,,0,,,64,65
147360,note_on,,,,,0,0,1,,,0,,,57,65
147360,note_on,,,,,0,0,1,,,0,,,62,65
147840,note_on,,,,,0,0,2,,,0,,,57,39
147840,note_on,,,,,1680,0,2,,,0,,,61,39
147840,note_on,,,,,0,0,1,,,0,,,76,58
147840,note_off,,,,,0,0,1,,,0,,,62,64
147840,note_off,,,,,0,0,1,,,0,,,64,64
147840,note_off,,,,,0,0,1,,,0,,,68,64
147840,note_off,,,,,0,0,1,,,0,,,71,64
147840,note_off,,,,,0,0,1,,,0,,,76,64
147840,note_off,,,,,480,0,1,,,0,,,57,64
147920,note_off,,,,,80,0,1,,,0,,,76,64
147920,note_on,,,,,0,0,1,,,0,,,81,56
148000,note_off,,,,,80,0,1,,,0,,,81,64
148000,note_on,,,,,0,0,1,,,0,,,85,53
148060,set_tempo,,,,,700,1,0,454545,,,,,,
148080,note_off,,,,,240,0,2,,,0,,,57,64
148080,note_off,,,,,80,0,1,,,0,,,85,64
148080,note_on,,,,,0,0,1,,,0,,,81,52
148080,note_off,,,,,0,0,2,,,0,,,61,64
148160,note_on,,,,,0,0,1,,,0,,,76,52
148160,note_off,,,,,80,0,1,,,0,,,81,64
148240,note_on,,,,,0,0,1,,,0,,,73,55
148240,note_off,,,,,80,0,1,,,0,,,76,64
148240,set_tempo,,,,,180,1,0,451128,,,,,,
148320,note_off,,,,,80,0,1,,,0,,,73,64
148320,note_on,,,,,0,0,1,,,0,,,69,59
148400,note_on,,,,,0,0,1,,,0,,,64,65
148400,note_off,,,,,80,0,1,,,0,,,69,64
148420,set_tempo,,,,,180,1,0,447761,,,,,,
148480,note_off,,,,,80,0,1,,,0,,,64,64
148480,note_on,,,,,0,0,1,,,0,,,61,69
148560,note_on,,,,,0,0,1,,,0,,,52,74
148560,note_on,,,,,0,0,1,,,0,,,57,74
148560,note_off,,,,,80,0,1,,,0,,,61,64
148600,set_tempo,,,,,180,1,0,441176,,,,,,
148640,note_off,,,,,0,0,1,,,0,,,52,64
148640,note_off,,,,,80,0,1,,,0,,,57,64
148640,note_on,,,,,0,0,1,,,0,,,49,80
148720,note_off,,,,,80,0,1,,,0,,,49,64
148720,note_on,,,,,0,0,1,,,0,,,45,83
148760,set_tempo,,,,,160,1,0,437956,,,,,,
148800,note_off,,,,,80,0,1,,,0,,,45,64
148800,note_on,,,,,0,0,1,,,0,,,33,88
148860,set_tempo,,,,,100,1,0,444444,,,,,,
148920,note_off,,,,,120,0,1,,,0,,,33,64
148920,set_tempo,,,,,60,1,0,483871,,,,,,
149040,note_on,,,,,0,0,1,,,0,,,81,70
149040,note_on,,,,,0,0,1,,,0,,,57,70
149040,note_on,,,,,0,0,1,,,0,,,61,70
149040,note_on,,,,,0,0,1,,,0,,,69,70
149040,note_on,,,,,0,0,1,,,0,,,76,70
149040,note_on,,,,,120,0,1,,,0,,,64,70
149140,set_tempo,,,,,220,1,0,576923,,,,,,
149160,note_off,,,,,0,0,1,,,0,,,81,64
149160,note_off,,,,,0,0,1,,,0,,,64,64
149160,note_off,,,,,0,0,1,,,0,,,57,64
149160,note_off,,,,,120,0,1,,,0,,,76,64
149160,note_off,,,,,0,0,1,,,0,,,69,64
149160,note_off,,,,,0,0,1,,,0,,,61,64
149280,note_on,,,,,0,0,1,,,0,,,83,83
149280,note_on,,,,,0,0,1,,,0,,,62,83
149280,note_on,,,,,0,0,1,,,0,,,64,83
149280,note_on,,,,,0,0,1,,,0,,,57,83
149280,note_on,,,,,0,0,1,,,0,,,71,83
149280,note_on,,,,,120,0,1,,,0,,,76,83
149280,set_tempo,,,,,140,1,0,461538,,,,,,
149280,note_on,,,,,0,0,1,,,0,,,68,83
149760,note_off,,,,,0,0,1,,,0,,,76,64
149760,note_off,,,,,480,0,1,,,0,,,83,64
149760,note_off,,,,,0,0,1,,,0,,,57,64
149760,note_off,,,,,0,0,1,,,0,,,62,64
149760,note_off,,,,,0,0,1,,,0,,,64,64
149760,note_off,,,,,0,0,1,,,0,,,68,64
149760,note_off,,,,,0,0,1,,,0,,,71,64
149760,note_on,,,,,0,0,1,,,0,,,76,57
149760,note_on,,,,,0,0,1,,,0,,,81,57
149760,note_on,,,,,0,0,1,,,0,,,69,57
149760,set_tempo,,,,,480,1,0,483871,,,,,,
149760,note_on,,,,,1680,0,2,,,0,,,57,54
149840,note_on,,,,,0,0,2,,,0,,,61,58
149840,note_off,,,,,80,0,2,,,0,,,57,64
149920,note_off,,,,,80,0,2,,,0,,,61,64
149920,note_on,,,,,0,0,2,,,0,,,64,64
149980,note_off,,,,,0,0,1,,,0,,,76,64
149980,note_off,,,,,0,0,1,,,0,,,69,64
149980,note_off,,,,,220,0,1,,,0,,,81,64
149980,set_tempo,,,,,220,1,0,472441,,,,,,
150000,note_off,,,,,80,0,2,,,0,,,64,64
150002,note_on,,,,,2,0,2,,,0,,,61,69
150082,note_on,,,,,0,0,2,,,0,,,57,69
150082,note_off,,,,,80,0,2,,,0,,,61,64
150162,note_on,,,,,0,0,2,,,0,,,52,74
150162,note_off,,,,,80,0,2,,,0,,,57,64
150242,note_off,,,,,80,0,2,,,0,,,52,64
150242,note_on,,,,,0,0,2,,,0,,,57,79
150320,set_tempo,,,,,340,1,0,465116,,,,,,
150322,note_on,,,,,0,0,2,,,0,,,52,83
150322,note_off,,,,,80,0,2,,,0,,,57,64
150402,note_off,,,,,80,0,2,,,0,,,52,64
150404,note_on,,,,,2,0,2,,,0,,,49,87
150484,note_off,,,,,80,0,2,,,0,,,49,64
150484,note_on,,,,,0,0,2,,,0,,,52,94
150564,note_off,,,,,80,0,2,,,0,,,52,64
150564,note_on,,,,,0,0,2,,,0,,,49,99
150600,set_tempo,,,,,280,1,0,458015,,,,,,
150644,note_off,,,,,80,0,2,,,0,,,49,64
150644,note_on,,,,,0,0,2,,,0,,,45,104
150720,note_on,,,,,76,0,2,,,0,,,42,109
150724,note_on,,,,,744,0,1,,,0,,,87,93
150724,note_off,,,,,4,0,2,,,0,,,45,64
150804,note_off,,,,,80,0,1,,,0,,,87,64
150806,note_on,,,,,2,0,1,,,0,,,90,84
150820,set_tempo,,,,,220,1,0,454545,,,,,,
150886,note_on,,,,,0,0,1,,,0,,,93,86
150886,note_off,,,,,80,0,1,,,0,,,90,64
150960,note_off,,,,,236,0,2,,,0,,,42,64
150966,note_on,,,,,0,0,1,,,0,,,90,90
150966,note_off,,,,,80,0,1,,,0,,,93,64
151046,note_off,,,,,80,0,1,,,0,,,90,64
151046,note_on,,,,,0,0,1,,,0,,,87,94
151120,set_tempo,,,,,300,1,0,447761,,,,,,
151126,note_off,,,,,80,0,1,,,0,,,87,64
151126,note_on,,,,,0,0,1,,,0,,,81,96
151206,note_off,,,,,80,0,1,,,0,,,81,64
151208,note_on,,,,,2,0,1,,,0,,,78,99
151288,note_off,,,,,80,0,1,,,0,,,78,64
151288,note_on,,,,,0,0,1,,,0,,,75,103
151340,set_tempo,,,,,220,1,0,441176,,,,,,
151368,note_on,,,,,0,0,1,,,0,,,71,106
151368,note_off,,,,,80,0,1,,,0,,,75,64
151448,note_off,,,,,80,0,1,,,0,,,71,64
151448,note_on,,,,,0,0,1,,,0,,,69,110
151528,note_off,,,,,80,0,1,,,0,,,69,64
151528,note_on,,,,,0,0,1,,,0,,,66,113
151560,set_tempo,,,,,220,1,0,434783,,,,,,
151608,note_off,,,,,80,0,1,,,0,,,66,64
151610,note_on,,,,,2,0,1,,,0,,,63,117
151680,set_tempo,,,,,120,1,0,461538,,,,,,
151680,note_on,,,,,70,0,1,,,0,,,64,125
151680,note_on,,,,,720,0,2,,,0,,,40,117
151690,note_off,,,,,10,0,1,,,0,,,63,64
151800,note_off,,,,,120,0,2,,,0,,,40,64
151800,set_tempo,,,,,120,1,0,480000,,,,,,
151920,note_off,,,,,230,0,1,,,0,,,64,64
151920,note_on,,,,,120,0,2,,,0,,,64,92
151920,note_on,,,,,0,0,2,,,0,,,56,92
151920,note_on,,,,,0,0,2,,,0,,,52,92
152040,set_tempo,,,,,240,1,0,576923,,,,,,
152040,note_off,,,,,120,0,2,,,0,,,52,64
152040,note_off,,,,,0,0,2,,,0,,,64,64
152040,note_off,,,,,0,0,2,,,0,,,56,64
152160,set_tempo,,,,,120,1,0,461538,,,,,,
152160,note_on,,,,,0,0,2,,,0,,,57,111
152160,note_on,,,,,0,0,2,,,0,,,53,111
152160,note_on,,,,,120,0,2,,,0,,,64,111
152400,note_on,,,,,480,0,1,,,0,,,76,103
152520,note_off,,,,,120,0,1,,,0,,,76,64
152540,set_tempo,,,,,380,1,0,526316,,,,,,
152640,note_on,,,,,0,0,1,,,0,,,81,121
152640,note_on,,,,,120,0,1,,,0,,,69,121
152640,set_tempo,,,,,100,1,0,461538,,,,,,
152820,note_off,,,,,660,0,2,,,0,,,53,64
152820,note_off,,,,,0,0,2,,,0,,,57,64
152820,note_off,,,,,0,0,2,,,0,,,64,64
152880,note_on,,,,,60,0,2,,,0,,,64,99
152880,note_on,,,,,0,0,2,,,0,,,54,99
152880,note_on,,,,,0,0,2,,,0,,,57,99
153080,set_tempo,,,,,440,1,0,458015,,,,,,
153120,note_on,,,,,0,0,1,,,0,,,79,123
153120,note_on,,,,,0,0,2,,,0,,,55,116
153120,note_off,,,,,480,0,1,,,0,,,81,64
153120,note_off,,,,,240,0,2,,,0,,,54,64
153120,note_off,,,,,0,0,2,,,0,,,57,64
153120,note_off,,,,,0,0,2,,,0,,,64,64
153120,note_on,,,,,0,0,2,,,0,,,64,116
153120,note_on,,,,,0,0,2,,,0,,,60,116
153120,note_off,,,,,0,0,1,,,0,,,69,64
153200,note_on,,,,,0,0,1,,,0,,,81,119
153200,note_off,,,,,80,0,1,,,0,,,79,64
153280,note_on,,,,,0,0,1,,,0,,,79,115
153280,note_off,,,,,80,0,1,,,0,,,81,64
153320,set_tempo,,,,,240,1,0,451128,,,,,,
153360,note_off,,,,,0,0,2,,,0,,,60,64
153360,note_off,,,,,80,0,1,,,0,,,79,64
153360,note_off,,,,,240,0,2,,,0,,,55,64
153360,note_off,,,,,0,0,2,,,0,,,64,64
153360,note_on,,,,,0,0,2,,,0,,,62,108
153360,note_on,,,,,0,0,2,,,0,,,59,108
153360,note_on,,,,,0,0,2,,,0,,,55,108
153362,note_on,,,,,2,0,1,,,0,,,77,116
153442,note_on,,,,,0,0,1,,,0,,,79,108
153442,note_off,,,,,80,0,1,,,0,,,77,64
153480,set_tempo,,,,,160,1,0,447761,,,,,,
153522,note_on,,,,,0,0,1,,,0,,,77,103
153522,note_off,,,,,80,0,1,,,0,,,79,64
153600,set_tempo,,,,,120,1,0,545455,,,,,,
153600,note_off,,,,,240,0,2,,,0,,,55,64
153600,note_on,,,,,78,0,1,,,0,,,76,99
153600,note_off,,,,,0,0,2,,,0,,,59,64
153600,note_on,,,,,0,0,2,,,0,,,60,94
153600,note_off,,,,,0,0,2,,,0,,,62,64
153602,note_off,,,,,2,0,1,,,0,,,77,64
153720,set_tempo,,,,,120,1,0,480000,,,,,,
153720,note_off,,,,,120,0,2,,,0,,,60,64
153720,note_off,,,,,118,0,1,,,0,,,76,64
153840,note_on,,,,,0,0,2,,,0,,,52,61
153840,note_on,,,,,120,0,2,,,0,,,60,61
153840,note_on,,,,,0,0,2,,,0,,,48,61
153960,note_off,,,,,120,0,2,,,0,,,48,64
153960,set_tempo,,,,,240,1,0,576923,,,,,,
153960,note_off,,,,,0,0,2,,,0,,,60,64
153960,note_off,,,,,0,0,2,,,0,,,52,64
154080,set_tempo,,,,,120,1,0,461538,,,,,,
154080,note_on,,,,,0,0,2,,,0,,,49,67
154080,note_on,,,,,0,0,2,,,0,,,53,67
154080,note_on,,,,,120,0,2,,,0,,,60,67
154320,note_on,,,,,600,0,1,,,0,,,72,63
154440,note_off,,,,,120,0,1,,,0,,,72,64
154460,set_tempo,,,,,380,1,0,526316,,,,,,
154560,note_on,,,,,120,0,1,,,0,,,65,77
154560,set_tempo,,,,,100,1,0,461538,,,,,,
154560,note_on,,,,,0,0,1,,,0,,,77,77
154740,note_off,,,,,660,0,2,,,0,,,49,64
154740,note_off,,,,,0,0,2,,,0,,,53,64
154740,note_off,,,,,0,0,2,,,0,,,60,64
154800,note_on,,,,,60,0,2,,,0,,,60,57
154800,note_on,,,,,0,0,2,,,0,,,53,57
154800,note_on,,,,,0,0,2,,,0,,,50,57
155000,set_tempo,,,,,440,1,0,458015,,,,,,
155040,note_off,,,,,0,0,1,,,0,,,65,64
155040,note_off,,,,,0,0,2,,,0,,,53,64
155040,note_off,,,,,240,0,2,,,0,,,50,64
155040,note_on,,,,,0,0,1,,,0,,,75,61
155040,note_off,,,,,0,0,2,,,0,,,60,64
155040,note_off,,,,,480,0,1,,,0,,,77,64
155040,note_on,,,,,0,0,2,,,0,,,60,51
155040,note_on,,,,,0,0,2,,,0,,,56,51
155040,note_on,,,,,0,0,2,,,0,,,51,51
155120,note_off,,,,,80,0,1,,,0,,,75,64
155120,note_on,,,,,0,0,1,,,0,,,77,49
155200,note_off,,,,,80,0,1,,,0,,,77,64
155200,note_on,,,,,0,0,1,,,0,,,75,49
155240,set_tempo,,,,,240,1,0,451128,,,,,,
155280,note_on,,,,,0,0,2,,,0,,,51,47
155280,note_on,,,,,0,0,2,,,0,,,55,47
155280,note_on,,,,,0,0,2,,,0,,,58,47
155280,note_off,,,,,0,0,2,,,0,,,60,64
155280,note_off,,,,,0,0,2,,,0,,,56,64
155280,note_off,,,,,240,0,2,,,0,,,51,64
155280,note_off,,,,,80,0,1,,,0,,,75,64
155282,note_on,,,,,2,0,1,,,0,,,73,55
155362,note_on,,,,,0,0,1,,,0,,,75,43
155362,note_off,,,,,80,0,1,,,0,,,73,64
155400,set_tempo,,,,,160,1,0,447761,,,,,,
155442,note_off,,,,,80,0,1,,,0,,,75,64
155442,note_on,,,,,0,0,1,,,0,,,73,41
155500,set_tempo,,,,,100,1,0,545455,,,,,,
155520,note_on,,,,,78,0,1,,,0,,,72,46
155520,note_off,,,,,0,0,2,,,0,,,55,64
155520,note_on,,,,,0,0,2,,,0,,,56,42
155520,note_off,,,,,240,0,2,,,0,,,51,64
155520,note_off,,,,,0,0,2,,,0,,,58,64
155522,note_off,,,,,2,0,1,,,0,,,73,64
155640,note_off,,,,,118,0,1,,,0,,,72,64
155642,set_tempo,,,,,142,1,0,480000,,,,,,
155760,note_on,,,,,0,0,1,,,0,,,80,113
155760,note_on,,,,,0,0,1,,,0,,,68,113
155760,note_on,,,,,120,0,1,,,0,,,72,113
155760,note_off,,,,,240,0,2,,,0,,,56,64
155880,note_off,,,,,120,0,1,,,0,,,80,64
155880,note_off,,,,,0,0,1,,,0,,,72,64
155880,note_off,,,,,0,0,1,,,0,,,68,64
155882,set_tempo,,,,,240,1,0,576923,,,,,,
156000,note_on,,,,,0,0,1,,,0,,,73,122
156000,note_on,,,,,120,0,1,,,0,,,69,122
156000,note_on,,,,,0,0,1,,,0,,,80,122
156002,set_tempo,,,,,120,1,0,461538,,,,,,
156240,note_on,,,,,480,0,2,,,0,,,64,112
156360,note_off,,,,,120,0,2,,,0,,,64,64
156382,set_tempo,,,,,380,1,0,526316,,,,,,
156480,note_on,,,,,120,0,2,,,0,,,49,121
156482,set_tempo,,,,,100,1,0,461538,,,,,,
156660,note_off,,,,,660,0,1,,,0,,,80,64
156660,note_off,,,,,0,0,1,,,0,,,69,64
156660,note_off,,,,,0,0,1,,,0,,,73,64
156720,note_on,,,,,60,0,1,,,0,,,70,113
156720,note_on,,,,,0,0,1,,,0,,,76,113
156720,note_on,,,,,0,0,1,,,0,,,80,113
156922,set_tempo,,,,,440,1,0,458015,,,,,,
156960,note_off,,,,,480,0,2,,,0,,,49,64
156960,note_on,,,,,0,0,2,,,0,,,47,122
156960,note_on,,,,,0,0,1,,,0,,,76,117
156960,note_on,,,,,0,0,1,,,0,,,80,117
156960,note_off,,,,,240,0,1,,,0,,,80,64
156960,note_off,,,,,0,0,1,,,0,,,76,64
156960,note_off,,,,,0,0,1,,,0,,,70,64
156960,note_on,,,,,0,0,1,,,0,,,71,117
157040,note_off,,,,,80,0,2,,,0,,,47,64
157040,note_on,,,,,0,0,2,,,0,,,49,110
157120,note_off,,,,,80,0,2,,,0,,,49,64
157120,note_on,,,,,0,0,2,,,0,,,47,108
157162,set_tempo,,,,,240,1,0,451128,,,,,,
157200,note_off,,,,,80,0,2,,,0,,,47,64
157200,note_on,,,,,0,0,2,,,0,,,45,117
157200,note_off,,,,,240,0,1,,,0,,,80,64
157200,note_off,,,,,0,0,1,,,0,,,76,64
157200,note_off,,,,,0,0,1,,,0,,,71,64
157200,note_on,,,,,0,0,1,,,0,,,75,122
157200,note_on,,,,,0,0,1,,,0,,,71,122
157200,note_on,,,,,0,0,1,,,0,,,78,122
157280,note_on,,,,,0,0,2,,,0,,,47,108
157280,note_off,,,,,80,0,2,,,0,,,45,64
157322,set_tempo,,,,,160,1,0,447761,,,,,,
157360,note_off,,,,,80,0,2,,,0,,,47,64
157360,note_on,,,,,0,0,2,,,0,,,45,114
157410,set_tempo,,,,,88,1,0,461538,,,,,,
157440,note_off,,,,,240,0,1,,,0,,,78,64
157440,note_off,,,,,0,0,1,,,0,,,75,64
157440,note_on,,,,,0,0,1,,,0,,,76,122
157440,note_on,,,,,0,0,1,,,0,,,71,122
157440,note_off,,,,,0,0,1,,,0,,,71,64
157440,note_off,,,,,80,0,2,,,0,,,45,64
157440,note_on,,,,,0,0,2,,,0,,,44,122
157532,set_tempo,,,,,122,1,0,480000,,,,,,
157560,note_off,,,,,120,0,2,,,0,,,44,64
157560,note_off,,,,,120,0,1,,,0,,,71,64
157560,note_off,,,,,0,0,1,,,0,,,76,64
157680,note_on,,,,,120,0,1,,,0,,,76,113
157680,note_on,,,,,0,0,1,,,0,,,68,113
157680,note_on,,,,,0,0,1,,,0,,,64,113
157760,set_tempo,,,,,228,1,0,508475,,,,,,
157800,note_off,,,,,120,0,1,,,0,,,64,64
157800,note_off,,,,,0,0,1,,,0,,,68,64
157800,note_off,,,,,0,0,1,,,0,,,76,64
157880,set_tempo,,,,,120,1,0,447761,,,,,,
157920,note_on,,,,,0,0,1,,,0,,,76,122
157920,note_on,,,,,0,0,1,,,0,,,69,122
157920,note_on,,,,,120,0,1,,,0,,,65,122
158160,note_on,,,,,600,0,2,,,0,,,60,112
158220,set_tempo,,,,,340,1,0,480000,,,,,,
158240,set_tempo,,,,,20,1,0,476190,,,,,,
158280,note_off,,,,,120,0,2,,,0,,,60,64
158372,set_tempo,,,,,132,1,0,461538,,,,,,
158400,note_on,,,,,120,0,2,,,0,,,45,121
158440,set_tempo,,,,,68,1,0,451128,,,,,,
158500,set_tempo,,,,,60,1,0,447761,,,,,,
158580,note_off,,,,,0,0,1,,,0,,,65,64
158580,note_off,,,,,0,0,1,,,0,,,69,64
158580,note_off,,,,,660,0,1,,,0,,,76,64
158640,note_on,,,,,60,0,1,,,0,,,72,113
158640,note_on,,,,,0,0,1,,,0,,,66,113
158640,note_on,,,,,0,0,1,,,0,,,76,113
158760,set_tempo,,,,,260,1,0,441176,,,,,,
158880,note_off,,,,,480,0,2,,,0,,,45,64
158880,note_on,,,,,0,0,2,,,0,,,43,122
158880,note_on,,,,,0,0,1,,,0,,,72,118
158880,note_on,,,,,0,0,1,,,0,,,67,118
158880,note_on,,,,,0,0,1,,,0,,,76,118
158880,note_off,,,,,0,0,1,,,0,,,66,64
158880,note_off,,,,,240,0,1,,,0,,,76,64
158880,note_off,,,,,0,0,1,,,0,,,72,64
158920,set_tempo,,,,,160,1,0,434783,,,,,,
158960,note_off,,,,,80,0,2,,,0,,,43,64
158960,note_on,,,,,0,0,2,,,0,,,45,119
159040,note_off,,,,,80,0,2,,,0,,,45,64
159040,note_on,,,,,0,0,2,,,0,,,43,116
159120,note_off,,,,,240,0,1,,,0,,,72,64
159120,note_on,,,,,0,0,1,,,0,,,74,110
159120,note_on,,,,,0,0,1,,,0,,,67,110
159120,note_on,,,,,0,0,1,,,0,,,71,110
159120,note_off,,,,,0,0,1,,,0,,,76,64
159120,note_off,,,,,0,0,1,,,0,,,67,64
159120,note_on,,,,,0,0,2,,,0,,,41,116
159120,note_off,,,,,80,0,2,,,0,,,43,64
159200,set_tempo,,,,,280,1,0,431655,,,,,,
159200,note_off,,,,,80,0,2,,,0,,,41,64
159200,note_on,,,,,0,0,2,,,0,,,43,111
159280,note_off,,,,,80,0,2,,,0,,,43,64
159280,note_on,,,,,0,0,2,,,0,,,41,109
159360,note_off,,,,,0,0,1,,,0,,,71,64
159360,note_on,,,,,0,0,1,,,0,,,67,96
159360,note_on,,,,,0,0,1,,,0,,,72,96
159360,note_on,,,,,0,0,1,,,0,,,79,96
159360,note_off,,,,,80,0,2,,,0,,,41,64
159360,note_off,,,,,240,0,1,,,0,,,74,64
159360,note_off,,,,,0,0,1,,,0,,,67,64
159360,note_on,,,,,0,0,2,,,0,,,40,110
159440,note_off,,,,,80,0,2,,,0,,,40,64
159440,note_on,,,,,0,0,2,,,0,,,41,106
159480,note_off,,,,,0,0,1,,,0,,,67,64
159480,note_off,,,,,0,0,1,,,0,,,72,64
159480,note_off,,,,,120,0,1,,,0,,,79,64
159520,note_off,,,,,80,0,2,,,0,,,41,64
159520,note_on,,,,,0,0,2,,,0,,,40,95
159600,note_on,,,,,0,0,1,,,0,,,71,73
159600,note_on,,,,,0,0,1,,,0,,,68,73
159600,note_on,,,,,120,0,1,,,0,,,64,73
159600,note_off,,,,,80,0,2,,,0,,,40,64
159600,note_on,,,,,0,0,2,,,0,,,38,103
159680,note_on,,,,,0,0,2,,,0,,,40,93
159680,note_off,,,,,80,0,2,,,0,,,38,64
159720,note_off,,,,,0,0,1,,,0,,,68,64
159720,note_off,,,,,0,0,1,,,0,,,64,64
159720,note_off,,,,,120,0,1,,,0,,,71,64
159760,note_on,,,,,0,0,2,,,0,,,38,85
159760,note_off,,,,,80,0,2,,,0,,,40,64
159840,note_on,,,,,0,0,2,,,0,,,36,96
159840,note_on,,,,,120,0,1,,,0,,,64,78
159840,note_off,,,,,80,0,2,,,0,,,38,64
159840,note_on,,,,,0,0,1,,,0,,,69,78
159840,note_on,,,,,0,0,1,,,0,,,76,78
159960,note_off,,,,,120,0,2,,,0,,,36,64
159960,note_off,,,,,120,0,1,,,0,,,76,64
159960,note_off,,,,,0,0,1,,,0,,,69,64
159960,note_off,,,,,0,0,1,,,0,,,64,64
160080,note_on,,,,,120,0,2,,,0,,,50,73
160080,note_on,,,,,0,0,1,,,0,,,76,83
160080,note_on,,,,,0,0,1,,,0,,,80,83
160080,note_on,,,,,120,0,1,,,0,,,71,83
160160,note_off,,,,,80,0,2,,,0,,,50,64
160160,note_on,,,,,0,0,2,,,0,,,52,77
160200,note_off,,,,,120,0,1,,,0,,,80,64
160200,note_off,,,,,0,0,1,,,0,,,76,64
160200,note_off,,,,,0,0,1,,,0,,,71,64
160240,note_on,,,,,0,0,2,,,0,,,50,80
160240,note_off,,,,,80,0,2,,,0,,,52,64
160320,note_on,,,,,0,0,2,,,0,,,48,92
160320,note_off,,,,,80,0,2,,,0,,,50,64
160320,note_on,,,,,0,0,1,,,0,,,81,87
160320,note_on,,,,,0,0,1,,,0,,,76,87
160320,note_on,,,,,120,0,1,,,0,,,69,87
160400,note_off,,,,,80,0,2,,,0,,,48,64
160400,note_on,,,,,0,0,2,,,0,,,50,84
160420,set_tempo,,,,,1220,1,0,437956,,,,,,
160440,note_off,,,,,0,0,1,,,0,,,69,64
160440,note_off,,,,,0,0,1,,,0,,,76,64
160440,note_off,,,,,120,0,1,,,0,,,81,64
160480,note_on,,,,,0,0,2,,,0,,,48,87
160480,note_off,,,,,80,0,2,,,0,,,50,64
160560,note_on,,,,,0,0,1,,,0,,,74,92
160560,note_on,,,,,0,0,1,,,0,,,68,92
160560,note_on,,,,,120,0,1,,,0,,,64,92
160560,note_on,,,,,0,0,2,,,0,,,47,91
160560,note_off,,,,,80,0,2,,,0,,,48,64
160640,note_off,,,,,80,0,2,,,0,,,47,64
160640,note_on,,,,,0,0,2,,,0,,,48,97
160640,set_tempo,,,,,220,1,0,447761,,,,,,
160680,note_off,,,,,120,0,1,,,0,,,74,64
160680,note_off,,,,,0,0,1,,,0,,,68,64
160680,note_off,,,,,0,0,1,,,0,,,64,64
160720,note_on,,,,,0,0,2,,,0,,,47,100
160720,note_off,,,,,80,0,2,,,0,,,48,64
160800,note_on,,,,,0,0,1,,,0,,,72,96
160800,note_on,,,,,0,0,2,,,0,,,45,107
160800,note_off,,,,,80,0,2,,,0,,,47,64
160800,note_on,,,,,120,0,1,,,0,,,64,96
160800,note_on,,,,,0,0,1,,,0,,,69,96
160860,set_tempo,,,,,220,1,0,451128,,,,,,
160880,note_on,,,,,0,0,2,,,0,,,47,102
160880,note_off,,,,,80,0,2,,,0,,,45,64
160920,note_off,,,,,0,0,1,,,0,,,64,64
160920,note_off,,,,,120,0,1,,,0,,,72,64
160920,note_off,,,,,0,0,1,,,0,,,69,64
160960,note_on,,,,,0,0,2,,,0,,,45,106
160960,note_off,,,,,80,0,2,,,0,,,47,64
161040,note_on,,,,,120,0,1,,,0,,,59,102
161040,note_on,,,,,0,0,1,,,0,,,64,102
161040,set_tempo,,,,,180,1,0,458015,,,,,,
161040,note_on,,,,,0,0,1,,,0,,,71,102
161040,note_on,,,,,0,0,2,,,0,,,43,109
161040,note_off,,,,,80,0,2,,,0,,,45,64
161120,note_on,,,,,0,0,2,,,0,,,45,111
161120,note_off,,,,,80,0,2,,,0,,,43,64
161160,note_off,,,,,0,0,1,,,0,,,59,64
161160,note_off,,,,,0,0,1,,,0,,,64,64
161160,note_off,,,,,120,0,1,,,0,,,71,64
161200,note_on,,,,,0,0,2,,,0,,,43,114
161200,note_off,,,,,80,0,2,,,0,,,45,64
161280,note_on,,,,,0,0,1,,,0,,,69,117
161280,note_on,,,,,0,0,1,,,0,,,63,117
161280,note_off,,,,,80,0,2,,,0,,,43,64
161280,note_on,,,,,120,0,1,,,0,,,59,117
161280,note_on,,,,,0,0,2,,,0,,,42,119
161360,note_on,,,,,0,0,2,,,0,,,43,114
161360,note_off,,,,,80,0,2,,,0,,,42,64
161380,set_tempo,,,,,340,1,0,451128,,,,,,
161400,note_off,,,,,0,0,1,,,0,,,59,64
161400,note_off,,,,,0,0,1,,,0,,,63,64
161400,note_off,,,,,120,0,1,,,0,,,69,64
161440,note_off,,,,,80,0,2,,,0,,,43,64
161440,note_on,,,,,0,0,2,,,0,,,42,117
161520,control_change,,,,,0,0,1,,,0,64,96,,
161520,note_on,,,,,0,0,2,,,0,,,40,118
161520,note_off,,,,,80,0,2,,,0,,,42,64
161520,note_on,,,,,0,0,1,,,0,,,69,98
161520,note_on,,,,,0,0,1,,,0,,,64,98
161520,note_on,,,,,120,0,1,,,0,,,61,98
161540,set_tempo,,,,,160,1,0,441176,,,,,,
161600,note_on,,,,,0,0,2,,,0,,,42,121
161600,note_off,,,,,80,0,2,,,0,,,40,64
161640,note_off,,,,,120,0,1,,,0,,,69,64
161640,note_off,,,,,0,0,1,,,0,,,64,64
161640,note_off,,,,,0,0,1,,,0,,,61,64
161660,set_tempo,,,,,120,1,0,434783,,,,,,
161680,note_on,,,,,0,0,2,,,0,,,40,121
161680,note_off,,,,,80,0,2,,,0,,,42,64
161740,control_change,,,,,100,0,1,,,0,64,0,,
161760,note_on,,,,,0,0,2,,,0,,,39,126
161760,note_on,,,,,0,0,1,,,0,,,69,108
161760,note_on,,,,,0,0,1,,,0,,,66,108
161760,set_tempo,,,,,100,1,0,422535,,,,,,
161760,control_change,,,,,0,0,1,,,0,64,95,,
161760,note_off,,,,,80,0,2,,,0,,,40,64
161760,note_on,,,,,20,0,1,,,0,,,63,108
161840,note_off,,,,,80,0,2,,,0,,,39,64
161840,note_on,,,,,0,0,2,,,0,,,40,123
161880,note_off,,,,,0,0,1,,,0,,,63,64
161880,note_off,,,,,0,0,1,,,0,,,66,64
161880,note_off,,,,,120,0,1,,,0,,,69,64
161920,note_on,,,,,0,0,2,,,0,,,39,123
161920,note_off,,,,,80,0,2,,,0,,,40,64
161990,control_change,,,,,110,0,1,,,0,64,0,,
162000,note_on,,,,,10,0,1,,,0,,,64,120
162000,note_on,,,,,0,0,1,,,0,,,66,120
162000,control_change,,,,,0,0,1,,,0,64,95,,
162000,note_off,,,,,80,0,2,,,0,,,39,64
162000,note_on,,,,,0,0,2,,,0,,,37,124
162000,note_on,,,,,0,0,1,,,0,,,70,120
162020,set_tempo,,,,,260,1,0,428571,,,,,,
162060,set_tempo,,,,,40,1,0,434783,,,,,,
162080,set_tempo,,,,,20,1,0,437956,,,,,,
162080,note_off,,,,,80,0,2,,,0,,,37,64
162080,note_on,,,,,0,0,2,,,0,,,39,125
162120,note_off,,,,,0,0,1,,,0,,,64,64
162120,note_off,,,,,0,0,1,,,0,,,66,64
162120,note_off,,,,,120,0,1,,,0,,,70,64
162160,set_tempo,,,,,80,1,0,441176,,,,,,
162160,note_off,,,,,80,0,2,,,0,,,39,64
162160,note_on,,,,,0,0,2,,,0,,,37,127
162210,control_change,,,,,90,0,1,,,0,64,0,,
162220,set_tempo,,,,,60,1,0,444444,,,,,,
162240,control_change,,,,,0,0,1,,,0,64,96,,
162240,note_on,,,,,0,0,1,,,0,,,71,127
162240,note_on,,,,,0,0,1,,,0,,,66,127
162240,note_on,,,,,30,0,1,,,0,,,63,127
162240,note_off,,,,,80,0,2,,,0,,,37,64
162240,note_on,,,,,0,0,2,,,0,,,35,127
162340,control_change,,,,,100,0,1,,,0,64,0,,
162340,set_tempo,,,,,120,1,0,500000,,,,,,
162360,note_off,,,,,120,0,2,,,0,,,35,64
162360,note_off,,,,,20,0,1,,,0,,,71,64
162360,note_off,,,,,0,0,1,,,0,,,66,64
162360,note_off,,,,,0,0,1,,,0,,,63,64
162460,set_tempo,,,,,120,1,0,461538,,,,,,
162480,note_on,,,,,120,0,2,,,0,,,47,116
162480,note_on,,,,,0,0,2,,,0,,,35,116
162480,note_on,,,,,0,0,2,,,0,,,39,116
162580,set_tempo,,,,,120,1,0,566038,,,,,,
162600,note_off,,,,,0,0,2,,,0,,,39,64
162600,note_off,,,,,0,0,2,,,0,,,47,64
162600,note_off,,,,,120,0,2,,,0,,,35,64
162700,set_tempo,,,,,120,1,0,571429,,,,,,
162720,note_on,,,,,120,0,2,,,0,,,47,127
162720,note_on,,,,,0,0,2,,,0,,,40,127
162720,note_on,,,,,0,0,2,,,0,,,36,127
162800,set_tempo,,,,,100,1,0,461538,,,,,,
162800,note_on,,,,,440,0,1,,,0,,,78,90
162880,note_on,,,,,0,0,1,,,0,,,79,94
162880,note_off,,,,,80,0,1,,,0,,,78,64
162960,note_off,,,,,80,0,1,,,0,,,79,64
162960,note_on,,,,,0,0,1,,,0,,,81,100
163040,note_off,,,,,80,0,1,,,0,,,81,64
163040,note_on,,,,,0,0,1,,,0,,,79,106
163120,note_off,,,,,80,0,1,,,0,,,79,64
163120,note_on,,,,,0,0,1,,,0,,,78,112
163200,note_off,,,,,80,0,1,,,0,,,78,64
163200,note_on,,,,,0,0,1,,,0,,,79,122
163272,note_off,,,,,72,0,1,,,0,,,79,64
163280,note_on,,,,,8,0,1,,,0,,,76,116
163352,note_off,,,,,72,0,1,,,0,,,76,64
163360,note_on,,,,,8,0,1,,,0,,,74,107
163432,note_off,,,,,72,0,1,,,0,,,74,64
163440,note_on,,,,,8,0,1,,,0,,,72,101
163512,note_off,,,,,72,0,1,,,0,,,72,64
163520,note_on,,,,,8,0,1,,,0,,,71,95
163592,note_off,,,,,72,0,1,,,0,,,71,64
163600,note_on,,,,,8,0,1,,,0,,,69,81
163672,note_off,,,,,72,0,1,,,0,,,69,64
163680,note_off,,,,,960,0,2,,,0,,,47,64
163680,note_on,,,,,8,0,1,,,0,,,67,77
163680,note_on,,,,,0,0,2,,,0,,,46,76
163752,note_off,,,,,72,0,1,,,0,,,67,64
163760,note_on,,,,,8,0,1,,,0,,,66,71
163832,note_off,,,,,72,0,1,,,0,,,66,64
163840,note_on,,,,,8,0,1,,,0,,,64,65
163912,note_off,,,,,72,0,1,,,0,,,64,64
163920,note_on,,,,,8,0,1,,,0,,,63,62
163992,note_off,,,,,72,0,1,,,0,,,63,64
164000,note_on,,,,,8,0,1,,,0,,,66,61
164072,note_off,,,,,72,0,1,,,0,,,66,64
164080,note_on,,,,,8,0,1,,,0,,,64,54
164152,note_off,,,,,72,0,1,,,0,,,64,64
164160,note_off,,,,,0,0,2,,,0,,,40,64
164160,note_on,,,,,0,0,2,,,0,,,35,47
164160,note_on,,,,,0,0,2,,,0,,,39,47
164160,note_off,,,,,0,0,2,,,0,,,36,64
164160,note_on,,,,,0,0,2,,,0,,,47,47
164160,note_on,,,,,8,0,1,,,0,,,59,51
164160,note_off,,,,,480,0,2,,,0,,,46,64
164280,note_off,,,,,120,0,1,,,0,,,59,64
164280,note_off,,,,,0,0,2,,,0,,,47,64
164280,note_off,,,,,0,0,2,,,0,,,39,64
164280,note_off,,,,,120,0,2,,,0,,,35,64
164400,note_on,,,,,0,0,2,,,0,,,47,67
164400,note_on,,,,,0,0,2,,,0,,,51,67
164400,note_on,,,,,120,0,2,,,0,,,59,67
164500,set_tempo,,,,,1700,1,0,566038,,,,,,
164520,note_off,,,,,0,0,2,,,0,,,59,64
164520,note_off,,,,,0,0,2,,,0,,,51,64
164520,note_off,,,,,120,0,2,,,0,,,47,64
164620,set_tempo,,,,,120,1,0,571429,,,,,,
164640,note_on,,,,,0,0,2,,,0,,,52,83
164640,note_on,,,,,0,0,2,,,0,,,48,83
164640,note_on,,,,,120,0,2,,,0,,,59,83
164720,note_on,,,,,440,0,1,,,0,,,90,72
164720,set_tempo,,,,,100,1,0,461538,,,,,,
164800,note_off,,,,,80,0,1,,,0,,,90,64
164800,note_on,,,,,0,0,1,,,0,,,91,70
164880,note_off,,,,,80,0,1,,,0,,,91,64
164880,note_on,,,,,0,0,1,,,0,,,93,71
164960,note_off,,,,,80,0,1,,,0,,,93,64
164960,note_on,,,,,0,0,1,,,0,,,91,77
165040,note_on,,,,,0,0,1,,,0,,,90,88
165040,note_off,,,,,80,0,1,,,0,,,91,64
165120,note_off,,,,,80,0,1,,,0,,,90,64
165120,note_on,,,,,0,0,1,,,0,,,91,94
165192,note_off,,,,,72,0,1,,,0,,,91,64
165200,note_on,,,,,8,0,1,,,0,,,88,79
165220,set_tempo,,,,,500,1,0,472441,,,,,,
165272,note_off,,,,,72,0,1,,,0,,,88,64
165280,note_on,,,,,8,0,1,,,0,,,86,81
165340,set_tempo,,,,,120,1,0,480000,,,,,,
165352,note_off,,,,,72,0,1,,,0,,,86,64
165360,note_on,,,,,8,0,1,,,0,,,84,77
165432,note_off,,,,,72,0,1,,,0,,,84,64
165440,note_on,,,,,8,0,1,,,0,,,83,67
165460,set_tempo,,,,,120,1,0,483871,,,,,,
165512,note_off,,,,,72,0,1,,,0,,,83,64
165520,note_on,,,,,8,0,1,,,0,,,81,63
165592,note_off,,,,,72,0,1,,,0,,,81,64
165600,note_on,,,,,8,0,1,,,0,,,79,59
165600,set_tempo,,,,,140,1,0,487805,,,,,,
165600,note_on,,,,,0,0,2,,,0,,,58,52
165600,note_off,,,,,960,0,2,,,0,,,59,64
165660,set_tempo,,,,,60,1,0,491803,,,,,,
165672,note_off,,,,,72,0,1,,,0,,,79,64
165680,note_on,,,,,8,0,1,,,0,,,78,55
165740,set_tempo,,,,,80,1,0,500000,,,,,,
165752,note_off,,,,,72,0,1,,,0,,,78,64
165760,note_on,,,,,8,0,1,,,0,,,76,49
165832,note_off,,,,,72,0,1,,,0,,,76,64
165840,note_on,,,,,8,0,1,,,0,,,75,46
165900,set_tempo,,,,,160,1,0,508475,,,,,,
165912,note_off,,,,,72,0,1,,,0,,,75,64
165920,note_on,,,,,8,0,1,,,0,,,78,43
165960,set_tempo,,,,,60,1,0,535714,,,,,,
165992,note_off,,,,,72,0,1,,,0,,,78,64
166000,note_on,,,,,8,0,1,,,0,,,76,40
166020,set_tempo,,,,,60,1,0,600000,,,,,,
166072,note_off,,,,,72,0,1,,,0,,,76,64
166080,note_on,,,,,0,0,2,,,0,,,47,38
166080,note_off,,,,,0,0,2,,,0,,,48,64
166080,note_off,,,,,0,0,2,,,0,,,52,64
166080,note_off,,,,,480,0,2,,,0,,,58,64
166080,set_tempo,,,,,60,1,0,800000,,,,,,
166080,note_on,,,,,0,0,2,,,0,,,51,38
166080,note_on,,,,,0,0,2,,,0,,,59,38
166080,note_on,,,,,8,0,1,,,0,,,71,44
166120,set_tempo,,,,,40,1,0,550459,,,,,,
166140,set_tempo,,,,,20,1,0,560748,,,,,,
166160,set_tempo,,,,,20,1,0,508475,,,,,,
166160,note_on,,,,,0,0,1,,,0,,,75,43
166160,note_off,,,,,80,0,1,,,0,,,71,64
166220,set_tempo,,,,,60,1,0,483871,,,,,,
166240,note_on,,,,,0,0,1,,,0,,,71,41
166240,note_off,,,,,80,0,1,,,0,,,75,64
166260,set_tempo,,,,,40,1,0,468750,,,,,,
166320,note_off,,,,,0,0,2,,,0,,,51,64
166320,note_on,,,,,0,0,1,,,0,,,66,38
166320,note_off,,,,,80,0,1,,,0,,,71,64
166320,note_off,,,,,240,0,2,,,0,,,47,64
166320,note_off,,,,,0,0,2,,,0,,,59,64
166340,set_tempo,,,,,80,1,0,461538,,,,,,
166400,note_off,,,,,80,0,1,,,0,,,66,64
166400,note_on,,,,,0,0,1,,,0,,,63,35
166480,note_on,,,,,0,0,1,,,0,,,59,33
166480,note_off,,,,,80,0,1,,,0,,,63,64
166560,note_off,,,,,80,0,1,,,0,,,59,64
166560,note_on,,,,,0,0,2,,,0,,,51,40
166560,control_change,,,,,0,0,1,,,0,64,96,,
166560,note_on,,,,,0,0,2,,,0,,,48,40
166560,note_on,,,,,240,0,2,,,0,,,54,40
166560,note_on,,,,,0,0,1,,,0,,,60,48
166640,note_off,,,,,80,0,1,,,0,,,60,64
166640,note_on,,,,,0,0,1,,,0,,,66,47
166720,note_off,,,,,80,0,1,,,0,,,66,64
166720,note_on,,,,,0,0,1,,,0,,,63,45
166800,note_on,,,,,0,0,1,,,0,,,60,43
166800,note_off,,,,,80,0,1,,,0,,,63,64
166880,note_off,,,,,80,0,1,,,0,,,60,64
166880,note_on,,,,,0,0,1,,,0,,,66,42
166960,note_off,,,,,80,0,1,,,0,,,66,64
166960,note_on,,,,,0,0,1,,,0,,,63,39
167040,note_on,,,,,0,0,1,,,0,,,59,41
167040,note_off,,,,,80,0,1,,,0,,,63,64
167040,note_off,,,,,480,0,2,,,0,,,48,64
167040,control_change,,,,,0,0,1,,,0,64,0,,
167040,note_on,,,,,0,0,2,,,0,,,47,32
167120,note_on,,,,,0,0,1,,,0,,,66,40
167120,note_off,,,,,80,0,1,,,0,,,59,64
167200,note_off,,,,,80,0,1,,,0,,,66,64
167200,note_on,,,,,0,0,1,,,0,,,63,40
167280,note_off,,,,,80,0,1,,,0,,,63,64
167280,note_on,,,,,0,0,1,,,0,,,59,40
167360,set_tempo,,,,,1020,1,0,468750,,,,,,
167360,note_off,,,,,80,0,1,,,0,,,59,64
167360,note_on,,,,,0,0,1,,,0,,,66,40
167440,note_on,,,,,0,0,1,,,0,,,63,39
167440,note_off,,,,,80,0,1,,,0,,,66,64
167460,note_off,,,,,0,0,2,,,0,,,54,64
167460,note_off,,,,,0,0,2,,,0,,,51,64
167460,note_off,,,,,420,0,2,,,0,,,47,64
167520,note_on,,,,,0,0,1,,,0,,,58,39
167520,note_off,,,,,80,0,1,,,0,,,63,64
167520,note_on,,,,,60,0,2,,,0,,,54,33
167520,note_on,,,,,0,0,2,,,0,,,42,33
167520,note_on,,,,,0,0,2,,,0,,,49,33
167600,note_off,,,,,80,0,1,,,0,,,58,64
167600,note_on,,,,,0,0,1,,,0,,,66,39
167640,set_tempo,,,,,280,1,0,472441,,,,,,
167680,note_on,,,,,0,0,1,,,0,,,64,39
167680,note_off,,,,,80,0,1,,,0,,,66,64
167760,note_on,,,,,0,0,1,,,0,,,58,38
167760,note_off,,,,,80,0,1,,,0,,,64,64
167820,set_tempo,,,,,180,1,0,483871,,,,,,
167840,note_off,,,,,80,0,1,,,0,,,58,64
167840,note_on,,,,,0,0,1,,,0,,,66,38
167920,note_off,,,,,80,0,1,,,0,,,66,64
167920,note_on,,,,,0,0,1,,,0,,,64,38
167960,set_tempo,,,,,140,1,0,491803,,,,,,
168000,note_off,,,,,480,0,2,,,0,,,42,64
168000,note_off,,,,,0,0,2,,,0,,,54,64
168000,note_on,,,,,0,0,2,,,0,,,54,32
168000,note_on,,,,,0,0,1,,,0,,,59,37
168000,note_on,,,,,0,0,2,,,0,,,47,32
168000,note_off,,,,,80,0,1,,,0,,,64,64
168000,note_on,,,,,0,0,2,,,0,,,51,32
168000,note_off,,,,,0,0,2,,,0,,,49,64
168080,note_off,,,,,80,0,1,,,0,,,59,64
168080,note_on,,,,,0,0,1,,,0,,,63,36
168160,note_off,,,,,80,0,1,,,0,,,63,64
168160,note_on,,,,,0,0,1,,,0,,,59,34
168160,set_tempo,,,,,200,1,0,500000,,,,,,
168240,note_off,,,,,240,0,2,,,0,,,47,64
168240,note_off,,,,,0,0,2,,,0,,,51,64
168240,note_off,,,,,0,0,2,,,0,,,54,64
168240,note_on,,,,,0,0,1,,,0,,,54,32
168240,note_off,,,,,80,0,1,,,0,,,59,64
168280,set_tempo,,,,,120,1,0,508475,,,,,,
168320,note_off,,,,,80,0,1,,,0,,,54,64
168320,note_on,,,,,0,0,1,,,0,,,51,30
168380,set_tempo,,,,,100,1,0,517241,,,,,,
168400,note_on,,,,,0,0,1,,,0,,,47,29
168400,note_off,,,,,80,0,1,,,0,,,51,64
168440,set_tempo,,,,,60,1,0,540541,,,,,,
168480,note_off,,,,,80,0,1,,,0,,,47,64
168480,set_tempo,,,,,40,1,0,588235,,,,,,
168480,control_change,,,,,0,0,1,,,0,64,95,,
168480,note_on,,,,,0,0,1,,,0,,,48,46
168480,note_on,,,,,240,0,2,,,0,,,36,52
168540,set_tempo,,,,,60,1,0,508475,,,,,,
168560,note_off,,,,,80,0,1,,,0,,,48,64
168560,note_on,,,,,0,0,1,,,0,,,54,45
168580,set_tempo,,,,,40,1,0,491803,,,,,,
168640,note_off,,,,,80,0,1,,,0,,,54,64
168640,note_on,,,,,0,0,1,,,0,,,51,43
168640,set_tempo,,,,,60,1,0,487805,,,,,,
168680,set_tempo,,,,,40,1,0,476190,,,,,,
168710,control_change,,,,,70,0,1,,,0,64,0,,
168720,control_change,,,,,0,0,1,,,0,64,96,,
168720,note_off,,,,,10,0,1,,,0,,,51,64
168720,note_on,,,,,0,0,1,,,0,,,48,38
168740,set_tempo,,,,,60,1,0,468750,,,,,,
168800,note_off,,,,,80,0,1,,,0,,,48,64
168800,note_on,,,,,0,0,1,,,0,,,54,37
168880,note_off,,,,,80,0,1,,,0,,,54,64
168880,note_on,,,,,0,0,1,,,0,,,51,37
168950,control_change,,,,,70,0,1,,,0,64,0,,
168960,note_off,,,,,480,0,2,,,0,,,36,64
168960,note_on,,,,,0,0,2,,,0,,,35,48
168960,note_off,,,,,10,0,1,,,0,,,51,64
168960,note_on,,,,,0,0,1,,,0,,,47,35
168980,set_tempo,,,,,240,1,0,472441,,,,,,
169040,note_off,,,,,80,0,1,,,0,,,47,64
169040,note_on,,,,,0,0,1,,,0,,,54,33
169120,note_off,,,,,80,0,1,,,0,,,54,64
169120,note_on,,,,,0,0,1,,,0,,,51,32
169200,note_on,,,,,0,0,1,,,0,,,47,31
169200,note_off,,,,,80,0,1,,,0,,,51,64
169280,note_off,,,,,80,0,1,,,0,,,47,64
169280,note_on,,,,,0,0,1,,,0,,,54,31
169340,set_tempo,,,,,360,1,0,480000,,,,,,
169360,note_off,,,,,80,0,1,,,0,,,54,64
169360,note_on,,,,,0,0,1,,,0,,,51,30
169440,note_off,,,,,480,0,2,,,0,,,35,64
169440,note_on,,,,,0,0,2,,,0,,,30,48
169440,note_on,,,,,0,0,1,,,0,,,46,30
169440,note_off,,,,,80,0,1,,,0,,,51,64
169520,note_on,,,,,0,0,1,,,0,,,54,30
169520,note_off,,,,,80,0,1,,,0,,,46,64
169560,set_tempo,,,,,220,1,0,483871,,,,,,
169600,note_on,,,,,0,0,1,,,0,,,52,30
169600,note_off,,,,,80,0,1,,,0,,,54,64
169680,note_off,,,,,80,0,1,,,0,,,52,64
169680,note_on,,,,,0,0,1,,,0,,,46,30
169760,note_off,,,,,80,0,1,,,0,,,46,64
169760,note_on,,,,,0,0,1,,,0,,,54,32
169840,note_off,,,,,80,0,1,,,0,,,54,64
169840,note_on,,,,,0,0,1,,,0,,,52,32
169840,set_tempo,,,,,280,1,0,491803,,,,,,
169920,note_off,,,,,480,0,2,,,0,,,30,64
169920,note_on,,,,,0,0,2,,,0,,,35,43
169920,note_off,,,,,80,0,1,,,0,,,52,64
169920,note_on,,,,,0,0,1,,,0,,,47,34
170000,note_off,,,,,80,0,1,,,0,,,47,64
170000,note_on,,,,,0,0,1,,,0,,,54,35
170080,note_off,,,,,80,0,1,,,0,,,54,64
170080,note_on,,,,,0,0,1,,,0,,,51,36
170160,set_tempo,,,,,320,1,0,500000,,,,,,
170160,note_on,,,,,0,0,1,,,0,,,47,37
170160,note_off,,,,,80,0,1,,,0,,,51,64
170240,note_off,,,,,80,0,1,,,0,,,47,64
170240,note_on,,,,,0,0,1,,,0,,,54,38
170320,note_off,,,,,80,0,1,,,0,,,54,64
170320,note_on,,,,,0,0,1,,,0,,,51,41
170400,note_on,,,,,0,0,2,,,0,,,30,56
170400,note_off,,,,,80,0,1,,,0,,,51,64
170400,note_on,,,,,0,0,1,,,0,,,46,41
170400,control_change,,,,,0,0,1,,,0,64,95,,
170400,note_off,,,,,480,0,2,,,0,,,35,64
170460,set_tempo,,,,,300,1,0,504202,,,,,,
170480,note_on,,,,,0,0,1,,,0,,,54,39
170480,note_off,,,,,80,0,1,,,0,,,46,64
170560,note_on,,,,,0,0,1,,,0,,,52,36
170560,note_off,,,,,80,0,1,,,0,,,54,64
170630,control_change,,,,,70,0,1,,,0,64,0,,
170640,note_off,,,,,10,0,1,,,0,,,52,64
170640,note_on,,,,,0,0,1,,,0,,,46,33
170640,control_change,,,,,0,0,1,,,0,64,95,,
170680,set_tempo,,,,,220,1,0,517241,,,,,,
170700,note_on,,,,,60,0,1,,,0,,,55,31
170720,note_off,,,,,20,0,1,,,0,,,46,64
170780,note_off,,,,,60,0,1,,,0,,,55,64
170800,note_on,,,,,20,0,1,,,0,,,52,31
170880,note_off,,,,,80,0,1,,,0,,,52,64
170880,set_tempo,,,,,200,1,0,530973,,,,,,
170880,note_off,,,,,480,0,2,,,0,,,30,64
170880,note_on,,,,,0,0,2,,,0,,,35,50
170880,control_change,,,,,0,0,1,,,0,64,0,,
170880,note_on,,,,,0,0,1,,,0,,,47,31
170960,note_on,,,,,0,0,1,,,0,,,54,36
170960,note_off,,,,,80,0,1,,,0,,,47,64
171020,set_tempo,,,,,140,1,0,545455,,,,,,
171040,note_on,,,,,0,0,1,,,0,,,52,33
171040,note_off,,,,,80,0,1,,,0,,,54,64
171120,note_off,,,,,80,0,1,,,0,,,52,64
171120,note_on,,,,,0,0,1,,,0,,,47,31
171200,note_off,,,,,80,0,1,,,0,,,47,64
171200,note_on,,,,,0,0,1,,,0,,,54,32
171220,set_tempo,,,,,200,1,0,576923,,,,,,
171280,note_on,,,,,0,0,1,,,0,,,51,34
171280,note_off,,,,,80,0,1,,,0,,,54,64
171340,set_tempo,,,,,120,1,0,638298,,,,,,
171360,note_on,,,,,0,0,2,,,0,,,30,50
171360,control_change,,,,,0,0,1,,,0,64,94,,
171360,note_on,,,,,0,0,1,,,0,,,46,38
171360,note_off,,,,,480,0,2,,,0,,,35,64
171360,note_off,,,,,80,0,1,,,0,,,51,64
171440,note_off,,,,,80,0,1,,,0,,,46,64
171440,note_on,,,,,0,0,1,,,0,,,54,36
171500,set_tempo,,,,,160,1,0,714286,,,,,,
171520,note_off,,,,,80,0,1,,,0,,,54,64
171520,note_on,,,,,0,0,1,,,0,,,52,34
171600,note_off,,,,,80,0,1,,,0,,,52,64
171600,set_tempo,,,,,100,1,0,857143,,,,,,
171600,note_on,,,,,0,0,1,,,0,,,46,34
171680,note_off,,,,,80,0,1,,,0,,,46,64
171680,note_on,,,,,0,0,1,,,0,,,55,31
171760,note_off,,,,,80,0,1,,,0,,,55,64
171760,note_on,,,,,0,0,1,,,0,,,52,26
171820,control_change,,,,,60,0,1,,,0,64,0,,
171840,note_on,,,,,0,0,2,,,0,,,35,44
171840,note_off,,,,,480,0,2,,,0,,,30,64
171840,note_off,,,,,20,0,1,,,0,,,52,64
171840,note_on,,,,,0,0,1,,,0,,,54,29
171840,note_on,,,,,0,0,1,,,0,,,51,29
171920,note_off,,,,,0,0,1,,,0,,,51,64
171920,note_off,,,,,80,0,1,,,0,,,54,64
171920,note_on,,,,,0,0,1,,,0,,,47,30
171960,set_tempo,,,,,360,1,0,594059,,,,,,
171980,set_tempo,,,,,20,1,0,588235,,,,,,
172000,note_on,,,,,0,0,1,,,0,,,46,33
172000,note_off,,,,,80,0,1,,,0,,,47,64
172080,note_off,,,,,80,0,1,,,0,,,46,64
172080,note_on,,,,,0,0,1,,,0,,,47,35
172080,note_off,,,,,240,0,2,,,0,,,35,64
172120,set_tempo,,,,,140,1,0,576923,,,,,,
172160,note_off,,,,,80,0,1,,,0,,,47,64
172160,note_on,,,,,0,0,1,,,0,,,51,37
172180,set_tempo,,,,,60,1,0,571429,,,,,,
172220,set_tempo,,,,,40,1,0,566038,,,,,,
172240,set_tempo,,,,,20,1,0,560748,,,,,,
172240,note_off,,,,,80,0,1,,,0,,,51,64
172240,note_on,,,,,0,0,1,,,0,,,50,37
172320,note_off,,,,,80,0,1,,,0,,,50,64
172320,note_on,,,,,0,0,1,,,0,,,51,39
172380,set_tempo,,,,,140,1,0,550459,,,,,,
172400,note_on,,,,,0,0,1,,,0,,,54,41
172400,note_off,,,,,80,0,1,,,0,,,51,64
172440,set_tempo,,,,,60,1,0,545455,,,,,,
172480,note_on,,,,,0,0,1,,,0,,,53,43
172480,note_off,,,,,80,0,1,,,0,,,54,64
172500,set_tempo,,,,,60,1,0,540541,,,,,,
172560,note_off,,,,,80,0,1,,,0,,,53,64
172560,note_on,,,,,0,0,1,,,0,,,54,45
172640,note_off,,,,,80,0,1,,,0,,,54,64
172640,note_on,,,,,0,0,1,,,0,,,59,47
172660,set_tempo,,,,,160,1,0,530973,,,,,,
172720,note_off,,,,,80,0,1,,,0,,,59,64
172720,note_on,,,,,0,0,1,,,0,,,58,47
172780,set_tempo,,,,,120,1,0,526316,,,,,,
172800,note_off,,,,,80,0,1,,,0,,,58,64
172800,note_on,,,,,0,0,1,,,0,,,59,49
172880,note_off,,,,,80,0,1,,,0,,,59,64
172880,note_on,,,,,0,0,1,,,0,,,63,33
172940,set_tempo,,,,,160,1,0,521739,,,,,,
172960,note_on,,,,,0,0,1,,,0,,,62,35
172960,note_off,,,,,80,0,1,,,0,,,63,64
173040,note_on,,,,,0,0,1,,,0,,,63,37
173040,note_off,,,,,80,0,1,,,0,,,62,64
173120,note_on,,,,,0,0,1,,,0,,,66,41
173120,note_off,,,,,80,0,1,,,0,,,63,64
173200,note_on,,,,,0,0,1,,,0,,,65,42
173200,note_off,,,,,80,0,1,,,0,,,66,64
173280,note_on,,,,,0,0,1,,,0,,,66,43
173280,note_off,,,,,80,0,1,,,0,,,65,64
173360,note_on,,,,,0,0,1,,,0,,,71,46
173360,note_off,,,,,80,0,1,,,0,,,66,64
173380,set_tempo,,,,,440,1,0,512821,,,,,,
173440,note_off,,,,,80,0,1,,,0,,,71,64
173440,note_on,,,,,0,0,1,,,0,,,70,46
173520,note_off,,,,,80,0,1,,,0,,,70,64
173520,note_on,,,,,0,0,1,,,0,,,71,44
173540,set_tempo,,,,,160,1,0,508475,,,,,,
173600,note_off,,,,,80,0,1,,,0,,,71,64
173600,note_on,,,,,0,0,1,,,0,,,75,42
173680,note_off,,,,,80,0,1,,,0,,,75,64
173680,note_on,,,,,0,0,1,,,0,,,74,42
173720,set_tempo,,,,,180,1,0,500000,,,,,,
173760,note_off,,,,,80,0,1,,,0,,,74,64
173760,note_on,,,,,0,0,1,,,0,,,75,40
173868,note_off,,,,,108,0,1,,,0,,,75,64
173880,note_on,,,,,12,0,1,,,0,,,76,29
173970,note_off,,,,,90,0,1,,,0,,,76,64
174000,note_on,,,,,30,0,1,,,0,,,78,31
174090,note_off,,,,,90,0,1,,,0,,,78,64
174120,note_on,,,,,30,0,1,,,0,,,76,32
174210,note_off,,,,,90,0,1,,,0,,,76,64
174240,note_on,,,,,30,0,1,,,0,,,75,35
174330,note_off,,,,,90,0,1,,,0,,,75,64
174360,note_on,,,,,30,0,1,,,0,,,73,36
174450,note_off,,,,,90,0,1,,,0,,,73,64
174480,note_on,,,,,30,0,1,,,0,,,71,38
174570,note_off,,,,,90,0,1,,,0,,,71,64
174600,note_on,,,,,30,0,1,,,0,,,70,40
174690,note_off,,,,,90,0,1,,,0,,,70,64
174720,note_on,,,,,30,0,1,,,0,,,71,40
174828,note_off,,,,,108,0,1,,,0,,,71,64
174840,note_on,,,,,12,0,1,,,0,,,73,32
174900,set_tempo,,,,,1180,1,0,504202,,,,,,
174920,set_tempo,,,,,20,1,0,508475,,,,,,
174930,note_off,,,,,90,0,1,,,0,,,73,64
174940,set_tempo,,,,,20,1,0,512821,,,,,,
174960,note_on,,,,,30,0,1,,,0,,,75,27
174960,set_tempo,,,,,20,1,0,759494,,,,,,
175020,set_tempo,,,,,60,1,0,540541,,,,,,
175020,note_off,,,,,60,0,1,,,0,,,75,64
175060,set_tempo,,,,,40,1,0,618557,,,,,,
175080,note_on,,,,,60,0,1,,,0,,,71,36
175080,note_on,,,,,0,0,1,,,0,,,75,36
175080,note_on,,,,,0,0,1,,,0,,,78,36
175100,set_tempo,,,,,40,1,0,612245,,,,,,
175140,set_tempo,,,,,40,1,0,606061,,,,,,
175170,note_off,,,,,0,0,1,,,0,,,71,64
175170,note_off,,,,,0,0,1,,,0,,,75,64
175170,note_off,,,,,90,0,1,,,0,,,78,64
175180,set_tempo,,,,,40,1,0,600000,,,,,,
175200,note_on,,,,,30,0,1,,,0,,,70,36
175200,note_on,,,,,0,0,1,,,0,,,73,36
175200,note_on,,,,,0,0,1,,,0,,,78,36
175290,note_off,,,,,90,0,1,,,0,,,78,64
175290,note_off,,,,,0,0,1,,,0,,,73,64
175290,note_off,,,,,0,0,1,,,0,,,70,64
175300,set_tempo,,,,,120,1,0,594059,,,,,,
175320,note_on,,,,,0,0,1,,,0,,,78,36
175320,set_tempo,,,,,20,1,0,588235,,,,,,
175320,note_on,,,,,30,0,1,,,0,,,68,36
175320,note_on,,,,,0,0,1,,,0,,,71,36
175400,set_tempo,,,,,80,1,0,576923,,,,,,
175410,note_off,,,,,90,0,1,,,0,,,78,64
175410,note_off,,,,,0,0,1,,,0,,,71,64
175410,note_off,,,,,0,0,1,,,0,,,68,64
175440,note_on,,,,,30,0,1,,,0,,,66,32
175440,note_on,,,,,0,0,1,,,0,,,70,32
175440,note_on,,,,,0,0,1,,,0,,,78,32
175440,set_tempo,,,,,40,1,0,582524,,,,,,
175480,set_tempo,,,,,40,1,0,600000,,,,,,
175500,set_tempo,,,,,20,1,0,606061,,,,,,
175530,note_off,,,,,0,0,1,,,0,,,70,64
175530,note_off,,,,,90,0,1,,,0,,,78,64
175530,note_off,,,,,0,0,1,,,0,,,66,64
175540,set_tempo,,,,,40,1,0,631579,,,,,,
175560,note_on,,,,,0,0,1,,,0,,,78,30
175560,note_on,,,,,0,0,1,,,0,,,73,30
175560,note_on,,,,,30,0,1,,,0,,,64,30
175560,set_tempo,,,,,20,1,0,638298,,,,,,
175580,set_tempo,,,,,20,1,0,645161,,,,,,
175600,set_tempo,,,,,20,1,0,652174,,,,,,
175620,set_tempo,,,,,20,1,0,659341,,,,,,
175650,note_off,,,,,90,0,1,,,0,,,78,64
175650,note_off,,,,,0,0,1,,,0,,,64,64
175650,note_off,,,,,0,0,1,,,0,,,73,64
175680,note_on,,,,,0,0,1,,,0,,,71,30
175680,note_on,,,,,30,0,1,,,0,,,63,30
175680,note_on,,,,,0,0,1,,,0,,,78,30
175788,note_off,,,,,108,0,1,,,0,,,63,64
175800,note_on,,,,,12,0,1,,,0,,,64,28
175820,set_tempo,,,,,200,1,0,540541,,,,,,
175840,set_tempo,,,,,20,1,0,521739,,,,,,
175890,note_off,,,,,90,0,1,,,0,,,64,64
175920,note_on,,,,,0,0,1,,,0,,,66,28
175920,note_off,,,,,0,0,1,,,0,,,71,64
175920,note_off,,,,,30,0,1,,,0,,,78,64
176010,note_off,,,,,90,0,1,,,0,,,66,64
176040,note_on,,,,,30,0,1,,,0,,,64,28
176130,note_off,,,,,90,0,1,,,0,,,64,64
176160,note_on,,,,,30,0,1,,,0,,,63,28
176180,set_tempo,,,,,340,1,0,526316,,,,,,
176220,set_tempo,,,,,40,1,0,530973,,,,,,
176250,note_off,,,,,90,0,1,,,0,,,63,64
176280,set_tempo,,,,,60,1,0,535714,,,,,,
176280,note_on,,,,,30,0,1,,,0,,,61,30
176340,set_tempo,,,,,60,1,0,540541,,,,,,
176370,note_off,,,,,90,0,1,,,0,,,61,64
176400,note_on,,,,,30,0,1,,,0,,,59,33
176420,set_tempo,,,,,80,1,0,550459,,,,,,
176490,note_off,,,,,90,0,1,,,0,,,59,64
176520,note_on,,,,,30,0,1,,,0,,,58,37
176540,set_tempo,,,,,120,1,0,555556,,,,,,
176580,set_tempo,,,,,40,1,0,560748,,,,,,
176610,note_off,,,,,90,0,1,,,0,,,58,64
176640,note_on,,,,,30,0,1,,,0,,,59,37
176700,set_tempo,,,,,120,1,0,571429,,,,,,
176720,set_tempo,,,,,20,1,0,576923,,,,,,
176746,note_off,,,,,106,0,1,,,0,,,59,64
176760,set_tempo,,,,,40,1,0,582524,,,,,,
176760,note_on,,,,,14,0,1,,,0,,,60,30
176780,set_tempo,,,,,20,1,0,588235,,,,,,
176800,set_tempo,,,,,20,1,0,606061,,,,,,
176820,set_tempo,,,,,20,1,0,612245,,,,,,
176840,set_tempo,,,,,20,1,0,618557,,,,,,
176850,note_off,,,,,90,0,1,,,0,,,60,64
176880,set_tempo,,,,,40,1,0,1016949,,,,,,
176880,note_on,,,,,30,0,1,,,0,,,61,26
176940,set_tempo,,,,,60,1,0,540541,,,,,,
176940,note_off,,,,,60,0,1,,,0,,,61,64
177000,note_on,,,,,0,0,1,,,0,,,59,33
177000,note_on,,,,,0,0,1,,,0,,,71,33
177000,note_on,,,,,60,0,1,,,0,,,63,33
177000,set_tempo,,,,,60,1,0,681818,,,,,,
177060,set_tempo,,,,,60,1,0,779221,,,,,,
177080,set_tempo,,,,,20,1,0,800000,,,,,,
177090,note_off,,,,,90,0,1,,,0,,,59,64
177090,note_off,,,,,0,0,1,,,0,,,71,64
177090,note_off,,,,,0,0,1,,,0,,,63,64
177100,set_tempo,,,,,20,1,0,810811,,,,,,
177120,note_on,,,,,30,0,1,,,0,,,61,38
177120,note_on,,,,,0,0,1,,,0,,,71,38
177120,note_on,,,,,0,0,1,,,0,,,58,38
177140,set_tempo,,,,,40,1,0,821918,,,,,,
177160,set_tempo,,,,,20,1,0,869565,,,,,,
177180,set_tempo,,,,,20,1,0,895522,,,,,,
177210,note_off,,,,,0,0,1,,,0,,,71,64
177210,note_off,,,,,90,0,1,,,0,,,58,64
177210,note_off,,,,,0,0,1,,,0,,,61,64
177220,set_tempo,,,,,40,1,0,952381,,,,,,
177240,set_tempo,,,,,20,1,0,983607,,,,,,
177240,note_on,,,,,0,0,1,,,0,,,57,34
177240,note_on,,,,,0,0,1,,,0,,,59,34
177240,note_on,,,,,0,0,1,,,0,,,71,34
177240,note_on,,,,,30,0,1,,,0,,,63,34
177260,set_tempo,,,,,20,1,0,1000000,,,,,,
177280,set_tempo,,,,,20,1,0,1016949,,,,,,
177300,set_tempo,,,,,20,1,0,1034483,,,,,,
177320,set_tempo,,,,,20,1,0,1071429,,,,,,
177330,note_off,,,,,90,0,1,,,0,,,59,64
177330,note_off,,,,,0,0,1,,,0,,,57,64
177330,note_off,,,,,0,0,1,,,0,,,71,64
177330,note_off,,,,,0,0,1,,,0,,,63,64
177340,set_tempo,,,,,20,1,0,1111111,,,,,,
177360,note_on,,,,,0,0,1,,,0,,,56,30
177360,note_on,,,,,30,0,1,,,0,,,64,30
177360,note_on,,,,,0,0,1,,,0,,,59,30
177360,note_on,,,,,0,0,1,,,0,,,71,30
177380,set_tempo,,,,,40,1,0,1153846,,,,,,
177400,set_tempo,,,,,20,1,0,1200000,,,,,,
177420,set_tempo,,,,,20,1,0,1276596,,,,,,
177450,note_off,,,,,0,0,1,,,0,,,56,64
177450,note_off,,,,,90,0,1,,,0,,,59,64
177450,note_off,,,,,0,0,1,,,0,,,64,64
177450,note_off,,,,,0,0,1,,,0,,,71,64
177460,set_tempo,,,,,40,1,0,1304348,,,,,,
177480,note_on,,,,,30,0,1,,,0,,,57,27
177480,note_on,,,,,0,0,1,,,0,,,63,27
177480,note_on,,,,,0,0,1,,,0,,,71,27
177480,note_on,,,,,0,0,1,,,0,,,54,27
177480,set_tempo,,,,,20,1,0,1363636,,,,,,
177500,set_tempo,,,,,20,1,0,1428571,,,,,,
177540,set_tempo,,,,,40,1,0,1463415,,,,,,
177560,set_tempo,,,,,20,1,0,1500000,,,,,,
177570,note_off,,,,,0,0,1,,,0,,,57,64
177570,note_off,,,,,0,0,1,,,0,,,63,64
177570,note_off,,,,,0,0,1,,,0,,,71,64
177570,note_off,,,,,90,0,1,,,0,,,54,64
177600,note_on,,,,,5520,0,2,,,0,,,64,29
177600,note_on,,,,,0,0,2,,,0,,,56,29
177600,note_on,,,,,0,0,2,,,0,,,52,29
177600,note_on,,,,,30,0,1,,,0,,,71,32
177620,set_tempo,,,,,60,1,0,461538,,,,,,
178080,note_off,,,,,480,0,1,,,0,,,71,64
178080,control_change,,,,,0,0,1,,,0,64,95,,
178080,note_on,,,,,0,0,1,,,0,,,76,34
178080,set_tempo,,,,,460,1,0,500000,,,,,,
178200,note_off,,,,,120,0,1,,,0,,,76,64
178200,note_on,,,,,0,0,1,,,0,,,75,24
178320,note_off,,,,,120,0,1,,,0,,,75,64
178320,note_on,,,,,0,0,1,,,0,,,73,29
178440,note_off,,,,,120,0,1,,,0,,,73,64
178440,note_on,,,,,0,0,1,,,0,,,71,30
178530,control_change,,,,,90,0,1,,,0,64,0,,
178540,note_off,,,,,10,0,1,,,0,,,71,64
178560,note_on,,,,,0,0,2,,,0,,,54,30
178560,note_off,,,,,0,0,2,,,0,,,56,64
178560,note_off,,,,,0,0,2,,,0,,,64,64
178560,note_on,,,,,0,0,2,,,0,,,57,30
178560,set_tempo,,,,,480,1,0,659341,,,,,,
178560,note_on,,,,,20,0,1,,,0,,,63,37
178560,note_on,,,,,0,0,1,,,0,,,71,37
178560,note_off,,,,,960,0,2,,,0,,,52,64
178620,set_tempo,,,,,60,1,0,545455,,,,,,
178770,note_off,,,,,210,0,1,,,0,,,71,64
178770,note_off,,,,,210,0,2,,,0,,,54,64
178770,note_off,,,,,0,0,1,,,0,,,63,64
178770,note_off,,,,,0,0,2,,,0,,,57,64
178800,note_on,,,,,30,0,2,,,0,,,57,32
178800,note_on,,,,,0,0,2,,,0,,,54,32
178800,note_on,,,,,30,0,1,,,0,,,63,34
178800,note_on,,,,,0,0,1,,,0,,,71,34
178800,set_tempo,,,,,180,1,0,517241,,,,,,
178980,note_off,,,,,0,0,1,,,0,,,63,64
178980,note_off,,,,,180,0,1,,,0,,,71,64
178980,note_off,,,,,180,0,2,,,0,,,54,64
178980,note_off,,,,,0,0,2,,,0,,,57,64
179040,note_on,,,,,0,0,2,,,0,,,54,28
179040,note_on,,,,,0,0,1,,,0,,,71,32
179040,note_on,,,,,60,0,2,,,0,,,57,28
179040,note_on,,,,,60,0,1,,,0,,,63,32
179060,set_tempo,,,,,260,1,0,500000,,,,,,
179220,note_off,,,,,0,0,1,,,0,,,63,64
179220,note_off,,,,,0,0,2,,,0,,,57,64
179220,note_off,,,,,180,0,2,,,0,,,54,64
179220,note_off,,,,,180,0,1,,,0,,,71,64
179280,note_on,,,,,60,0,2,,,0,,,57,27
179280,note_on,,,,,0,0,2,,,0,,,54,27
179280,set_tempo,,,,,220,1,0,480000,,,,,,
179280,note_on,,,,,0,0,1,,,0,,,71,28
179280,note_on,,,,,60,0,1,,,0,,,63,28
179460,note_off,,,,,180,0,2,,,0,,,54,64
179460,note_off,,,,,0,0,1,,,0,,,63,64
179460,note_off,,,,,0,0,2,,,0,,,57,64
179460,note_off,,,,,180,0,1,,,0,,,71,64
179520,note_on,,,,,60,0,2,,,0,,,59,33
179520,set_tempo,,,,,240,1,0,500000,,,,,,
179520,note_on,,,,,0,0,2,,,0,,,56,33
179520,note_on,,,,,60,0,1,,,0,,,64,35
179520,note_on,,,,,0,0,1,,,0,,,71,35
179760,note_on,,,,,0,0,2,,,0,,,52,29
179760,note_on,,,,,0,0,2,,,0,,,56,29
179760,note_off,,,,,0,0,2,,,0,,,59,64
179760,note_off,,,,,240,0,2,,,0,,,56,64
179760,note_off,,,,,240,0,1,,,0,,,71,64
179760,note_on,,,,,0,0,1,,,0,,,68,31
179940,set_tempo,,,,,420,1,0,759494,,,,,,
180000,note_off,,,,,0,0,1,,,0,,,64,64
180000,note_on,,,,,0,0,1,,,0,,,64,38
180000,note_on,,,,,0,0,1,,,0,,,73,38
180000,control_change,,,,,0,0,1,,,0,64,96,,
180000,set_tempo,,,,,60,1,0,545455,,,,,,
180000,note_off,,,,,240,0,2,,,0,,,52,64
180000,note_off,,,,,240,0,1,,,0,,,68,64
180000,note_on,,,,,0,0,2,,,0,,,57,39
180000,note_off,,,,,0,0,2,,,0,,,56,64
180000,note_on,,,,,0,0,2,,,0,,,61,39
180420,note_off,,,,,0,0,2,,,0,,,61,64
180420,note_off,,,,,420,0,2,,,0,,,57,64
180420,note_off,,,,,420,0,1,,,0,,,73,64
180420,note_off,,,,,0,0,1,,,0,,,64,64
180440,control_change,,,,,20,0,1,,,0,64,0,,
180480,note_on,,,,,60,0,2,,,0,,,59,31
180480,set_tempo,,,,,480,1,0,495868,,,,,,
180480,note_on,,,,,0,0,2,,,0,,,56,31
180480,note_on,,,,,0,0,1,,,0,,,71,31
180480,note_on,,,,,40,0,1,,,0,,,64,31
180720,note_on,,,,,0,0,2,,,0,,,52,27
180720,note_on,,,,,0,0,1,,,0,,,68,27
180720,note_on,,,,,0,0,2,,,0,,,56,27
180720,note_off,,,,,0,0,2,,,0,,,59,64
180720,note_off,,,,,240,0,2,,,0,,,56,64
180720,note_off,,,,,240,0,1,,,0,,,71,64
180900,set_tempo,,,,,420,1,0,857143,,,,,,
180960,note_off,,,,,240,0,1,,,0,,,68,64
180960,note_off,,,,,0,0,2,,,0,,,56,64
180960,control_change,,,,,0,0,1,,,0,64,97,,
180960,note_on,,,,,0,0,1,,,0,,,63,28
180960,set_tempo,,,,,60,1,0,600000,,,,,,
180960,note_off,,,,,0,0,1,,,0,,,64,64
180960,note_on,,,,,0,0,1,,,0,,,66,28
180960,note_off,,,,,240,0,2,,,0,,,52,64
180960,note_on,,,,,0,0,2,,,0,,,54,27
180960,note_on,,,,,0,0,2,,,0,,,47,27
181320,set_tempo,,,,,360,1,0,857143,,,,,,
181400,control_change,,,,,440,0,1,,,0,64,0,,
181440,set_tempo,,,,,120,1,0,500000,,,,,,
181860,note_off,,,,,900,0,2,,,0,,,47,64
181860,note_off,,,,,0,0,2,,,0,,,54,64
181860,note_off,,,,,460,0,1,,,0,,,63,64
181860,note_off,,,,,0,0,1,,,0,,,66,64
182040,note_on,,,,,0,0,1,,,0,,,78,23
182040,note_on,,,,,180,0,1,,,0,,,66,23
182160,note_off,,,,,120,0,1,,,0,,,78,64
182160,note_off,,,,,0,0,1,,,0,,,66,64
182160,note_on,,,,,0,0,1,,,0,,,68,26
182160,note_on,,,,,0,0,1,,,0,,,80,26
182280,note_off,,,,,120,0,1,,,0,,,80,64
182280,note_off,,,,,0,0,1,,,0,,,68,64
182280,note_on,,,,,0,0,1,,,0,,,81,28
182280,note_on,,,,,0,0,1,,,0,,,69,28
182400,set_tempo,,,,,960,1,0,1500000,,,,,,
182400,note_on,,,,,0,0,1,,,0,,,83,32
182400,note_on,,,,,0,0,1,,,0,,,71,32
182400,note_on,,,,,0,0,2,,,0,,,76,38
182400,note_on,,,,,540,0,2,,,0,,,68,38
182400,note_on,,,,,0,0,2,,,0,,,64,38
182400,note_off,,,,,0,0,1,,,0,,,81,64
182400,note_off,,,,,120,0,1,,,0,,,69,64
182420,set_tempo,,,,,20,1,0,461538,,,,,,
182880,note_off,,,,,480,0,1,,,0,,,83,64
182880,note_off,,,,,0,0,1,,,0,,,71,64
182880,note_on,,,,,0,0,1,,,0,,,76,34
182880,note_on,,,,,0,0,1,,,0,,,88,34
182880,control_change,,,,,0,0,1,,,0,64,95,,
182880,set_tempo,,,,,460,1,0,500000,,,,,,
183000,note_on,,,,,0,0,1,,,0,,,75,24
183000,note_off,,,,,0,0,1,,,0,,,76,64
183000,note_off,,,,,120,0,1,,,0,,,88,64
183000,note_on,,,,,0,0,1,,,0,,,87,24
183120,note_off,,,,,120,0,1,,,0,,,87,64
183120,note_off,,,,,0,0,1,,,0,,,75,64
183120,note_on,,,,,0,0,1,,,0,,,73,29
183120,note_on,,,,,0,0,1,,,0,,,85,29
183240,note_on,,,,,0,0,1,,,0,,,83,30
183240,note_off,,,,,120,0,1,,,0,,,85,64
183240,note_off,,,,,0,0,1,,,0,,,73,64
183240,note_on,,,,,0,0,1,,,0,,,71,30
183330,control_change,,,,,90,0,1,,,0,64,0,,
183340,note_off,,,,,10,0,1,,,0,,,83,64
183340,note_off,,,,,0,0,1,,,0,,,71,64
183360,set_tempo,,,,,480,1,0,600000,,,,,,
183360,note_off,,,,,960,0,2,,,0,,,64,64
183360,note_off,,,,,0,0,2,,,0,,,76,64
183360,note_off,,,,,0,0,2,,,0,,,68,64
183360,note_on,,,,,0,0,2,,,0,,,66,36
183360,note_on,,,,,0,0,1,,,0,,,83,37
183360,note_on,,,,,20,0,1,,,0,,,71,37
183360,note_on,,,,,0,0,2,,,0,,,69,36
183360,note_on,,,,,0,0,1,,,0,,,75,37
183380,set_tempo,,,,,20,1,0,594059,,,,,,
183420,set_tempo,,,,,40,1,0,545455,,,,,,
183570,note_off,,,,,0,0,2,,,0,,,69,64
183570,note_off,,,,,210,0,1,,,0,,,83,64
183570,note_off,,,,,0,0,1,,,0,,,75,64
183570,note_off,,,,,0,0,1,,,0,,,71,64
183570,note_off,,,,,210,0,2,,,0,,,66,64
183600,note_on,,,,,0,0,1,,,0,,,83,34
183600,note_on,,,,,0,0,2,,,0,,,66,32
183600,note_on,,,,,30,0,2,,,0,,,69,32
183600,set_tempo,,,,,180,1,0,517241,,,,,,
183600,note_on,,,,,30,0,1,,,0,,,71,34
183600,note_on,,,,,0,0,1,,,0,,,75,34
183780,note_off,,,,,0,0,2,,,0,,,69,64
183780,note_off,,,,,180,0,2,,,0,,,66,64
183780,note_off,,,,,180,0,1,,,0,,,83,64
183780,note_off,,,,,0,0,1,,,0,,,75,64
183780,note_off,,,,,0,0,1,,,0,,,71,64
183840,note_on,,,,,0,0,2,,,0,,,66,28
183840,note_on,,,,,60,0,2,,,0,,,69,28
183840,note_on,,,,,60,0,1,,,0,,,71,32
183840,note_on,,,,,0,0,1,,,0,,,75,32
183840,note_on,,,,,0,0,1,,,0,,,83,32
183860,set_tempo,,,,,260,1,0,500000,,,,,,
184020,note_off,,,,,180,0,2,,,0,,,66,64
184020,note_off,,,,,0,0,1,,,0,,,71,64
184020,note_off,,,,,0,0,1,,,0,,,75,64
184020,note_off,,,,,180,0,1,,,0,,,83,64
184020,note_off,,,,,0,0,2,,,0,,,69,64
184080,note_on,,,,,60,0,2,,,0,,,69,27
184080,note_on,,,,,0,0,1,,,0,,,83,28
184080,note_on,,,,,0,0,1,,,0,,,75,28
184080,note_on,,,,,60,0,1,,,0,,,71,28
184080,note_on,,,,,0,0,2,,,0,,,66,27
184080,set_tempo,,,,,220,1,0,480000,,,,,,
184260,note_off,,,,,180,0,2,,,0,,,66,64
184260,note_off,,,,,0,0,2,,,0,,,69,64
184260,note_off,,,,,0,0,1,,,0,,,71,64
184260,note_off,,,,,0,0,1,,,0,,,75,64
184260,note_off,,,,,180,0,1,,,0,,,83,64
184320,note_on,,,,,60,0,1,,,0,,,76,32
184320,note_on,,,,,0,0,1,,,0,,,83,32
184320,set_tempo,,,,,240,1,0,500000,,,,,,
184320,note_on,,,,,60,0,2,,,0,,,71,27
184320,note_on,,,,,0,0,2,,,0,,,67,27
184560,note_off,,,,,240,0,1,,,0,,,83,64
184560,control_change,,,,,0,0,1,,,0,64,96,,
184560,note_on,,,,,0,0,1,,,0,,,79,40
184560,note_on,,,,,0,0,2,,,0,,,64,37
184560,note_off,,,,,240,0,2,,,0,,,67,64
184560,note_off,,,,,0,0,2,,,0,,,71,64
184560,note_on,,,,,0,0,2,,,0,,,67,37
184740,set_tempo,,,,,420,1,0,606061,,,,,,
184800,note_off,,,,,0,0,1,,,0,,,76,64
184800,note_off,,,,,240,0,2,,,0,,,64,64
184800,note_off,,,,,0,0,2,,,0,,,67,64
184800,note_on,,,,,0,0,2,,,0,,,69,47
184800,note_off,,,,,240,0,1,,,0,,,79,64
184800,note_on,,,,,0,0,1,,,0,,,76,46
184800,note_on,,,,,0,0,1,,,0,,,84,46
184800,note_on,,,,,0,0,2,,,0,,,72,47
184800,set_tempo,,,,,60,1,0,545455,,,,,,
185040,note_on,,,,,0,0,1,,,0,,,78,43
185040,note_off,,,,,240,0,1,,,0,,,76,64
185240,control_change,,,,,200,0,1,,,0,64,0,,
185280,note_on,,,,,0,0,1,,,0,,,79,39
185280,note_off,,,,,0,0,1,,,0,,,84,64
185280,note_off,,,,,40,0,1,,,0,,,78,64
185280,set_tempo,,,,,480,1,0,495868,,,,,,
185280,note_on,,,,,0,0,2,,,0,,,71,37
185280,note_on,,,,,0,0,2,,,0,,,67,37
185280,note_off,,,,,0,0,2,,,0,,,72,64
185280,note_off,,,,,480,0,2,,,0,,,69,64
185280,note_on,,,,,0,0,1,,,0,,,83,39
185400,set_tempo,,,,,120,1,0,526316,,,,,,
185520,note_on,,,,,0,0,2,,,0,,,67,30
185520,note_off,,,,,0,0,1,,,0,,,79,64
185520,note_on,,,,,0,0,1,,,0,,,74,32
185520,note_off,,,,,240,0,1,,,0,,,83,64
185520,note_on,,,,,0,0,1,,,0,,,79,32
185520,note_on,,,,,0,0,2,,,0,,,59,30
185520,note_off,,,,,0,0,2,,,0,,,71,64
185520,note_off,,,,,240,0,2,,,0,,,67,64
185600,set_tempo,,,,,200,1,0,571429,,,,,,
185700,set_tempo,,,,,100,1,0,697674,,,,,,
185760,note_on,,,,,0,0,2,,,0,,,62,24
185760,note_on,,,,,0,0,2,,,0,,,69,24
185760,note_off,,,,,0,0,2,,,0,,,67,64
185760,note_off,,,,,240,0,2,,,0,,,59,64
185760,control_change,,,,,0,0,1,,,0,64,97,,
185760,note_on,,,,,0,0,1,,,0,,,81,23
185760,note_on,,,,,0,0,1,,,0,,,78,23
185760,note_off,,,,,0,0,1,,,0,,,74,64
185760,note_off,,,,,240,0,1,,,0,,,79,64
185760,set_tempo,,,,,60,1,0,600000,,,,,,
186200,control_change,,,,,440,0,1,,,0,64,0,,
186240,set_tempo,,,,,480,1,0,500000,,,,,,
186660,note_off,,,,,460,0,1,,,0,,,81,64
186660,note_off,,,,,900,0,2,,,0,,,62,64
186660,note_off,,,,,0,0,2,,,0,,,69,64
186660,note_off,,,,,0,0,1,,,0,,,78,64
186720,set_tempo,,,,,480,1,0,491803,,,,,,
186800,set_tempo,,,,,80,1,0,483871,,,,,,
186840,note_on,,,,,180,0,2,,,0,,,50,30
186900,set_tempo,,,,,100,1,0,468750,,,,,,
186960,note_on,,,,,0,0,2,,,0,,,49,37
186960,note_off,,,,,120,0,2,,,0,,,50,64
187000,set_tempo,,,,,100,1,0,461538,,,,,,
187080,note_on,,,,,0,0,2,,,0,,,48,42
187080,note_off,,,,,120,0,2,,,0,,,49,64
187200,note_on,,,,,0,0,1,,,0,,,67,37
187200,note_off,,,,,120,0,2,,,0,,,48,64
187200,note_on,,,,,0,0,2,,,0,,,47,44
187200,note_on,,,,,540,0,1,,,0,,,62,37
187320,note_on,,,,,120,0,2,,,0,,,50,29
187440,note_off,,,,,120,0,2,,,0,,,50,64
187440,note_on,,,,,0,0,2,,,0,,,55,30
187560,note_off,,,,,120,0,2,,,0,,,55,64
187560,note_on,,,,,0,0,2,,,0,,,50,30
187680,note_on,,,,,0,0,1,,,0,,,69,29
187680,note_off,,,,,480,0,1,,,0,,,67,64
187680,note_off,,,,,120,0,2,,,0,,,50,64
187680,note_on,,,,,0,0,2,,,0,,,55,34
187800,note_off,,,,,120,0,2,,,0,,,55,64
187800,note_on,,,,,0,0,2,,,0,,,50,35
187800,note_off,,,,,120,0,1,,,0,,,69,64
187800,note_on,,,,,0,0,1,,,0,,,67,35
187920,note_off,,,,,120,0,1,,,0,,,67,64
187920,note_on,,,,,0,0,1,,,0,,,69,38
187920,note_on,,,,,0,0,2,,,0,,,55,40
187920,note_off,,,,,120,0,2,,,0,,,50,64
188040,note_on,,,,,0,0,1,,,0,,,67,42
188040,note_off,,,,,120,0,1,,,0,,,69,64
188040,note_off,,,,,120,0,2,,,0,,,55,64
188040,note_on,,,,,0,0,2,,,0,,,50,41
188160,note_on,,,,,0,0,2,,,0,,,48,51
188160,note_on,,,,,0,0,1,,,0,,,66,51
188160,note_off,,,,,120,0,1,,,0,,,67,64
188160,note_off,,,,,0,0,2,,,0,,,47,64
188160,note_off,,,,,120,0,2,,,0,,,50,64
188260,set_tempo,,,,,1260,1,0,495868,,,,,,
188280,note_on,,,,,120,0,2,,,0,,,50,45
188400,note_on,,,,,0,0,1,,,0,,,62,50
188400,note_off,,,,,120,0,2,,,0,,,50,64
188400,control_change,,,,,0,0,1,,,0,64,95,,
188400,note_on,,,,,0,0,2,,,0,,,57,46
188400,note_on,,,,,0,0,1,,,0,,,74,50
188400,note_off,,,,,240,0,1,,,0,,,66,64
188400,set_tempo,,,,,140,1,0,461538,,,,,,
188400,note_on,,,,,0,0,1,,,0,,,66,50
188400,note_off,,,,,0,0,1,,,0,,,62,64
188480,set_tempo,,,,,80,1,0,472441,,,,,,
188520,note_on,,,,,0,0,2,,,0,,,50,43
188520,note_off,,,,,120,0,2,,,0,,,57,64
188580,note_off,,,,,0,0,1,,,0,,,66,64
188580,set_tempo,,,,,100,1,0,483871,,,,,,
188580,note_off,,,,,180,0,1,,,0,,,74,64
188580,note_off,,,,,0,0,1,,,0,,,62,64
188640,note_off,,,,,120,0,2,,,0,,,50,64
188640,note_on,,,,,0,0,2,,,0,,,57,35
188640,note_on,,,,,0,0,1,,,0,,,74,39
188640,control_change,,,,,0,0,1,,,0,64,0,,
188640,note_on,,,,,0,0,1,,,0,,,66,39
188640,note_on,,,,,60,0,1,,,0,,,62,39
188740,set_tempo,,,,,160,1,0,491803,,,,,,
188760,note_off,,,,,120,0,2,,,0,,,57,64
188760,note_on,,,,,0,0,2,,,0,,,50,30
188820,note_off,,,,,0,0,1,,,0,,,62,64
188820,note_off,,,,,0,0,1,,,0,,,66,64
188820,note_off,,,,,180,0,1,,,0,,,74,64
188860,set_tempo,,,,,120,1,0,500000,,,,,,
188880,note_on,,,,,60,0,1,,,0,,,62,32
188880,note_on,,,,,0,0,2,,,0,,,57,24
188880,note_off,,,,,120,0,2,,,0,,,50,64
188880,note_on,,,,,0,0,1,,,0,,,66,32
188880,note_on,,,,,0,0,1,,,0,,,74,32
188980,set_tempo,,,,,120,1,0,512821,,,,,,
189000,note_on,,,,,0,0,2,,,0,,,50,22
189000,note_off,,,,,120,0,2,,,0,,,57,64
189060,note_off,,,,,0,0,1,,,0,,,66,64
189060,note_off,,,,,0,0,1,,,0,,,62,64
189060,set_tempo,,,,,80,1,0,521739,,,,,,
189060,note_off,,,,,180,0,1,,,0,,,74,64
189120,note_on,,,,,0,0,2,,,0,,,47,38
189120,set_tempo,,,,,60,1,0,461538,,,,,,
189120,note_off,,,,,120,0,2,,,0,,,50,64
189120,note_off,,,,,0,0,2,,,0,,,48,64
189120,note_on,,,,,60,0,1,,,0,,,62,37
189120,note_on,,,,,0,0,1,,,0,,,67,37
189240,note_on,,,,,120,0,2,,,0,,,50,29
189360,note_on,,,,,0,0,2,,,0,,,55,30
189360,note_off,,,,,240,0,1,,,0,,,67,64
189360,set_tempo,,,,,240,1,0,451128,,,,,,
189360,note_on,,,,,0,0,1,,,0,,,66,30
189360,note_off,,,,,120,0,2,,,0,,,50,64
189480,note_off,,,,,120,0,1,,,0,,,66,64
189480,note_on,,,,,0,0,1,,,0,,,67,36
189480,note_on,,,,,0,0,2,,,0,,,50,30
189480,note_off,,,,,120,0,2,,,0,,,55,64
189500,set_tempo,,,,,140,1,0,447761,,,,,,
189600,note_on,,,,,0,0,1,,,0,,,72,40
189600,note_on,,,,,0,0,2,,,0,,,55,34
189600,note_off,,,,,120,0,2,,,0,,,50,64
189600,note_off,,,,,120,0,1,,,0,,,67,64
189700,set_tempo,,,,,200,1,0,437956,,,,,,
189720,note_on,,,,,0,0,1,,,0,,,71,39
189720,note_on,,,,,0,0,2,,,0,,,50,35
189720,note_off,,,,,120,0,2,,,0,,,55,64
189720,note_off,,,,,120,0,1,,,0,,,72,64
189840,note_off,,,,,120,0,1,,,0,,,71,64
189840,note_on,,,,,0,0,1,,,0,,,69,47
189840,note_on,,,,,0,0,2,,,0,,,55,40
189840,note_off,,,,,120,0,2,,,0,,,50,64
189840,set_tempo,,,,,140,1,0,441176,,,,,,
189960,note_off,,,,,120,0,1,,,0,,,69,64
189960,note_on,,,,,0,0,1,,,0,,,67,52
189960,set_tempo,,,,,120,1,0,447761,,,,,,
189960,note_on,,,,,0,0,2,,,0,,,50,41
189960,note_off,,,,,120,0,2,,,0,,,55,64
190060,set_tempo,,,,,100,1,0,454545,,,,,,
190080,note_off,,,,,120,0,2,,,0,,,50,64
190080,note_on,,,,,0,0,1,,,0,,,66,52
190080,note_off,,,,,120,0,1,,,0,,,67,64
190080,note_on,,,,,0,0,2,,,0,,,48,51
190080,note_off,,,,,0,0,2,,,0,,,47,64
190180,set_tempo,,,,,120,1,0,521739,,,,,,
190200,note_on,,,,,120,0,2,,,0,,,50,45
190320,control_change,,,,,0,0,1,,,0,64,95,,
190320,set_tempo,,,,,140,1,0,461538,,,,,,
190320,note_off,,,,,240,0,1,,,0,,,66,64
190320,note_on,,,,,0,0,1,,,0,,,74,50
190320,note_off,,,,,120,0,2,,,0,,,50,64
190320,note_off,,,,,0,0,1,,,0,,,62,64
190320,note_on,,,,,0,0,1,,,0,,,66,50
190320,note_on,,,,,0,0,2,,,0,,,57,46
190320,note_on,,,,,0,0,1,,,0,,,62,50
190360,set_tempo,,,,,40,1,0,508475,,,,,,
190380,set_tempo,,,,,20,1,0,521739,,,,,,
190420,set_tempo,,,,,40,1,0,566038,,,,,,
190440,note_off,,,,,120,0,2,,,0,,,57,64
190440,note_on,,,,,0,0,2,,,0,,,50,43
190500,note_off,,,,,0,0,1,,,0,,,62,64
190500,note_off,,,,,0,0,1,,,0,,,66,64
190500,note_off,,,,,180,0,1,,,0,,,74,64
190560,note_on,,,,,0,0,1,,,0,,,74,39
190560,note_on,,,,,0,0,1,,,0,,,66,39
190560,note_on,,,,,60,0,1,,,0,,,62,39
190560,note_off,,,,,120,0,2,,,0,,,50,64
190560,note_on,,,,,0,0,2,,,0,,,57,35
190560,control_change,,,,,0,0,1,,,0,64,0,,
190660,set_tempo,,,,,240,1,0,588235,,,,,,
190680,note_on,,,,,0,0,2,,,0,,,50,30
190680,note_off,,,,,120,0,2,,,0,,,57,64
190740,note_off,,,,,180,0,1,,,0,,,74,64
190740,note_off,,,,,0,0,1,,,0,,,66,64
190740,note_off,,,,,0,0,1,,,0,,,62,64
190780,set_tempo,,,,,120,1,0,618557,,,,,,
190800,note_on,,,,,0,0,2,,,0,,,57,24
190800,note_on,,,,,60,0,1,,,0,,,62,32
190800,note_off,,,,,120,0,2,,,0,,,50,64
190800,note_on,,,,,0,0,1,,,0,,,74,32
190800,note_on,,,,,0,0,1,,,0,,,66,32
190800,set_tempo,,,,,20,1,0,625000,,,,,,
190920,note_on,,,,,0,0,2,,,0,,,50,22
190920,set_tempo,,,,,120,1,0,638298,,,,,,
190920,note_off,,,,,120,0,2,,,0,,,57,64
190960,set_tempo,,,,,40,1,0,674157,,,,,,
190980,note_off,,,,,0,0,1,,,0,,,62,64
190980,note_off,,,,,180,0,1,,,0,,,74,64
190980,note_off,,,,,0,0,1,,,0,,,66,64
191040,note_on,,,,,60,0,1,,,0,,,67,37
191040,note_on,,,,,0,0,1,,,0,,,74,37
191040,note_off,,,,,0,0,2,,,0,,,48,64
191040,note_off,,,,,120,0,2,,,0,,,50,64
191040,note_on,,,,,0,0,2,,,0,,,47,47
191040,set_tempo,,,,,80,1,0,458015,,,,,,
191160,note_on,,,,,120,0,2,,,0,,,50,29
191220,set_tempo,,,,,180,1,0,454545,,,,,,
191240,set_tempo,,,,,20,1,0,451128,,,,,,
191280,note_off,,,,,120,0,2,,,0,,,50,64
191280,note_on,,,,,0,0,2,,,0,,,55,30
191400,note_off,,,,,120,0,2,,,0,,,55,64
191400,note_on,,,,,0,0,2,,,0,,,50,30
191520,note_off,,,,,120,0,2,,,0,,,50,64
191520,note_on,,,,,0,0,2,,,0,,,55,34
191520,note_off,,,,,480,0,1,,,0,,,74,64
191520,note_on,,,,,0,0,1,,,0,,,73,46
191520,control_change,,,,,0,0,1,,,0,64,95,,
191540,set_tempo,,,,,300,1,0,447761,,,,,,
191640,note_off,,,,,120,0,2,,,0,,,55,64
191640,note_on,,,,,0,0,2,,,0,,,50,35
191640,note_off,,,,,120,0,1,,,0,,,73,64
191640,note_on,,,,,0,0,1,,,0,,,74,54
191760,note_off,,,,,120,0,2,,,0,,,50,64
191760,note_on,,,,,0,0,2,,,0,,,55,40
191760,note_on,,,,,0,0,1,,,0,,,79,55
191760,note_off,,,,,120,0,1,,,0,,,74,64
191880,note_off,,,,,120,0,2,,,0,,,55,64
191880,note_on,,,,,0,0,2,,,0,,,50,41
191880,note_on,,,,,0,0,1,,,0,,,78,66
191880,note_off,,,,,120,0,1,,,0,,,79,64
191900,set_tempo,,,,,360,1,0,444444,,,,,,
191970,control_change,,,,,90,0,1,,,0,64,0,,
192000,set_tempo,,,,,100,1,0,461538,,,,,,
192000,note_off,,,,,0,0,2,,,0,,,47,64
192000,note_on,,,,,0,0,2,,,0,,,35,51
192000,note_off,,,,,30,0,1,,,0,,,78,64
192000,note_on,,,,,0,0,1,,,0,,,76,70
192000,control_change,,,,,0,0,1,,,0,64,95,,
192000,note_off,,,,,120,0,2,,,0,,,50,64
192120,note_off,,,,,120,0,2,,,0,,,35,64
192120,note_on,,,,,0,0,2,,,0,,,57,51
192220,set_tempo,,,,,220,1,0,437956,,,,,,
192240,note_off,,,,,0,0,1,,,0,,,67,64
192240,note_on,,,,,0,0,1,,,0,,,75,60
192240,note_off,,,,,240,0,1,,,0,,,76,64
192240,note_off,,,,,120,0,2,,,0,,,57,64
192240,note_on,,,,,0,0,2,,,0,,,47,55
192240,note_on,,,,,0,0,1,,,0,,,66,60
192360,note_off,,,,,120,0,2,,,0,,,47,64
192360,note_on,,,,,0,0,2,,,0,,,57,59
192420,note_off,,,,,180,0,1,,,0,,,66,64
192420,note_off,,,,,0,0,1,,,0,,,75,64
192480,note_on,,,,,0,0,2,,,0,,,47,61
192480,note_on,,,,,60,0,1,,,0,,,75,72
192480,note_on,,,,,0,0,1,,,0,,,66,72
192480,note_off,,,,,120,0,2,,,0,,,57,64
192560,set_tempo,,,,,340,1,0,431655,,,,,,
192600,note_on,,,,,0,0,2,,,0,,,57,68
192600,note_off,,,,,120,0,2,,,0,,,47,64
192660,note_off,,,,,0,0,1,,,0,,,75,64
192660,note_off,,,,,180,0,1,,,0,,,66,64
192720,set_tempo,,,,,160,1,0,422535,,,,,,
192720,note_on,,,,,0,0,1,,,0,,,66,85
192720,note_off,,,,,120,0,2,,,0,,,57,64
192720,note_on,,,,,0,0,2,,,0,,,48,73
192720,note_on,,,,,60,0,1,,,0,,,75,85
192840,note_on,,,,,0,0,2,,,0,,,57,73
192840,note_off,,,,,120,0,2,,,0,,,48,64
192900,note_off,,,,,0,0,1,,,0,,,75,64
192900,note_off,,,,,180,0,1,,,0,,,66,64
192940,control_change,,,,,40,0,1,,,0,64,0,,
192960,note_on,,,,,0,0,1,,,0,,,64,88
192960,control_change,,,,,0,0,1,,,0,64,95,,
192960,note_on,,,,,20,0,1,,,0,,,76,88
192960,note_on,,,,,0,0,2,,,0,,,49,87
192960,note_off,,,,,120,0,2,,,0,,,57,64
193080,note_off,,,,,120,0,2,,,0,,,49,64
193080,note_on,,,,,0,0,2,,,0,,,56,77
193200,note_off,,,,,120,0,2,,,0,,,56,64
193200,note_on,,,,,0,0,2,,,0,,,52,70
193320,note_on,,,,,0,0,2,,,0,,,49,62
193320,note_off,,,,,120,0,2,,,0,,,52,64
193420,control_change,,,,,460,0,1,,,0,64,0,,
193440,control_change,,,,,0,0,1,,,0,64,95,,
193440,note_off,,,,,20,0,1,,,0,,,76,64
193440,note_on,,,,,0,0,2,,,0,,,45,57
193440,note_on,,,,,0,0,1,,,0,,,75,58
193440,note_off,,,,,120,0,2,,,0,,,49,64
193560,note_off,,,,,120,0,2,,,0,,,45,64
193560,note_on,,,,,0,0,2,,,0,,,57,53
193660,control_change,,,,,220,0,1,,,0,64,0,,
193680,note_off,,,,,120,0,2,,,0,,,57,64
193680,note_on,,,,,0,0,2,,,0,,,52,46
193680,control_change,,,,,0,0,1,,,0,64,95,,
193680,note_on,,,,,0,0,1,,,0,,,73,44
193680,note_off,,,,,20,0,1,,,0,,,75,64
193800,note_off,,,,,120,0,2,,,0,,,52,64
193800,note_on,,,,,0,0,2,,,0,,,49,40
193890,note_off,,,,,210,0,1,,,0,,,73,64
193900,control_change,,,,,10,0,1,,,0,64,0,,
193920,control_change,,,,,0,0,1,,,0,64,95,,
193920,note_on,,,,,0,0,1,,,0,,,71,51
193920,note_off,,,,,20,0,1,,,0,,,64,64
193920,note_on,,,,,0,0,2,,,0,,,47,44
193920,note_off,,,,,120,0,2,,,0,,,49,64
194040,note_off,,,,,120,0,1,,,0,,,71,64
194040,note_on,,,,,0,0,1,,,0,,,59,36
194100,set_tempo,,,,,1380,1,0,416667,,,,,,
194160,note_on,,,,,0,0,2,,,0,,,52,38
194160,note_on,,,,,240,0,2,,,0,,,56,38
194160,note_off,,,,,120,0,1,,,0,,,59,64
194160,note_on,,,,,0,0,1,,,0,,,64,48
194200,set_tempo,,,,,100,1,0,410959,,,,,,
194280,note_off,,,,,120,0,1,,,0,,,64,64
194280,note_on,,,,,0,0,1,,,0,,,68,53
194380,set_tempo,,,,,180,1,0,416667,,,,,,
194400,note_on,,,,,0,0,2,,,0,,,57,53
194400,note_off,,,,,120,0,1,,,0,,,68,64
194400,note_on,,,,,0,0,1,,,0,,,66,57
194400,note_off,,,,,240,0,2,,,0,,,52,64
194400,note_off,,,,,0,0,2,,,0,,,56,64
194400,note_on,,,,,0,0,2,,,0,,,54,53
194500,set_tempo,,,,,120,1,0,422535,,,,,,
194520,note_off,,,,,120,0,1,,,0,,,66,64
194520,note_on,,,,,0,0,1,,,0,,,69,52
194600,set_tempo,,,,,100,1,0,428571,,,,,,
194640,note_off,,,,,120,0,1,,,0,,,69,64
194640,note_on,,,,,0,0,1,,,0,,,63,46
194640,note_off,,,,,240,0,2,,,0,,,54,64
194640,note_off,,,,,0,0,2,,,0,,,57,64
194640,note_on,,,,,0,0,2,,,0,,,59,44
194640,note_on,,,,,0,0,2,,,0,,,51,44
194740,set_tempo,,,,,140,1,0,437956,,,,,,
194760,note_on,,,,,0,0,1,,,0,,,71,38
194760,note_off,,,,,120,0,1,,,0,,,63,64
194850,control_change,,,,,90,0,1,,,0,64,0,,
194860,note_off,,,,,10,0,1,,,0,,,71,64
194880,note_on,,,,,20,0,1,,,0,,,59,51
194880,note_off,,,,,240,0,2,,,0,,,51,64
194880,note_off,,,,,0,0,2,,,0,,,59,64
194880,note_off,,,,,0,0,2,,,0,,,47,64
194880,note_on,,,,,0,0,2,,,0,,,35,44
194880,control_change,,,,,0,0,1,,,0,64,95,,
194960,set_tempo,,,,,220,1,0,422535,,,,,,
195000,note_on,,,,,0,0,1,,,0,,,47,36
195000,note_off,,,,,120,0,1,,,0,,,59,64
195080,set_tempo,,,,,120,1,0,416667,,,,,,
195120,note_off,,,,,120,0,1,,,0,,,47,64
195120,note_on,,,,,0,0,1,,,0,,,52,48
195240,note_on,,,,,0,0,1,,,0,,,56,53
195240,set_tempo,,,,,160,1,0,410959,,,,,,
195240,note_off,,,,,120,0,1,,,0,,,52,64
195360,note_off,,,,,120,0,1,,,0,,,56,64
195360,note_on,,,,,0,0,1,,,0,,,49,57
195440,set_tempo,,,,,200,1,0,416667,,,,,,
195480,note_off,,,,,120,0,1,,,0,,,49,64
195480,note_on,,,,,0,0,1,,,0,,,57,52
195520,set_tempo,,,,,80,1,0,422535,,,,,,
195580,set_tempo,,,,,60,1,0,437956,,,,,,
195600,note_off,,,,,120,0,1,,,0,,,57,64
195600,note_on,,,,,0,0,1,,,0,,,51,46
195660,set_tempo,,,,,80,1,0,441176,,,,,,
195720,note_on,,,,,0,0,1,,,0,,,59,38
195720,note_off,,,,,120,0,1,,,0,,,51,64
195760,set_tempo,,,,,100,1,0,447761,,,,,,
195810,control_change,,,,,90,0,1,,,0,64,0,,
195820,note_off,,,,,10,0,1,,,0,,,59,64
195840,note_on,,,,,20,0,1,,,0,,,71,44
195840,note_off,,,,,960,0,2,,,0,,,35,64
195840,note_on,,,,,0,0,2,,,0,,,59,44
195860,set_tempo,,,,,100,1,0,444444,,,,,,
195918,note_off,,,,,78,0,1,,,0,,,71,64
195920,note_on,,,,,2,0,1,,,0,,,70,35
195998,note_off,,,,,78,0,1,,,0,,,70,64
196000,set_tempo,,,,,140,1,0,437956,,,,,,
196000,note_on,,,,,2,0,1,,,0,,,71,35
196078,note_off,,,,,78,0,1,,,0,,,71,64
196080,note_on,,,,,240,0,2,,,0,,,68,38
196080,note_on,,,,,0,0,2,,,0,,,64,38
196080,note_on,,,,,2,0,1,,,0,,,72,39
196158,note_off,,,,,78,0,1,,,0,,,72,64
196160,note_on,,,,,2,0,1,,,0,,,73,40
196238,note_off,,,,,78,0,1,,,0,,,73,64
196240,note_on,,,,,2,0,1,,,0,,,74,47
196260,set_tempo,,,,,260,1,0,434783,,,,,,
196318,note_off,,,,,78,0,1,,,0,,,74,64
196320,note_on,,,,,2,0,1,,,0,,,73,47
196320,note_off,,,,,240,0,2,,,0,,,64,64
196320,note_off,,,,,0,0,2,,,0,,,68,64
196320,note_on,,,,,0,0,2,,,0,,,69,53
196320,note_on,,,,,0,0,2,,,0,,,66,53
196398,note_off,,,,,78,0,1,,,0,,,73,64
196400,note_on,,,,,2,0,1,,,0,,,75,50
196478,note_off,,,,,78,0,1,,,0,,,75,64
196480,note_on,,,,,2,0,1,,,0,,,76,55
196558,note_off,,,,,78,0,1,,,0,,,76,64
196560,note_on,,,,,2,0,1,,,0,,,77,55
196560,note_off,,,,,0,0,2,,,0,,,69,64
196560,set_tempo,,,,,300,1,0,425532,,,,,,
196560,note_on,,,,,0,0,2,,,0,,,71,43
196560,note_off,,,,,240,0,2,,,0,,,66,64
196560,note_on,,,,,0,0,2,,,0,,,63,43
196638,note_off,,,,,78,0,1,,,0,,,77,64
196640,note_on,,,,,2,0,1,,,0,,,78,62
196640,set_tempo,,,,,80,1,0,416667,,,,,,
196718,note_off,,,,,78,0,1,,,0,,,78,64
196720,note_on,,,,,2,0,1,,,0,,,79,68
196720,set_tempo,,,,,80,1,0,410959,,,,,,
196798,note_off,,,,,78,0,1,,,0,,,79,64
196800,note_on,,,,,0,0,2,,,0,,,47,35
196800,note_off,,,,,0,0,2,,,0,,,59,64
196800,note_off,,,,,0,0,2,,,0,,,71,64
196800,note_on,,,,,2,0,1,,,0,,,80,77
196800,note_off,,,,,240,0,2,,,0,,,63,64
196840,set_tempo,,,,,120,1,0,405405,,,,,,
196878,note_off,,,,,78,0,1,,,0,,,80,64
196880,note_on,,,,,2,0,1,,,0,,,78,79
196958,note_off,,,,,78,0,1,,,0,,,78,64
196960,note_on,,,,,2,0,1,,,0,,,76,75
197038,note_off,,,,,78,0,1,,,0,,,76,64
197040,note_on,,,,,0,0,2,,,0,,,52,33
197040,note_on,,,,,240,0,2,,,0,,,56,33
197040,note_on,,,,,2,0,1,,,0,,,75,69
197100,set_tempo,,,,,260,1,0,416667,,,,,,
197118,note_off,,,,,78,0,1,,,0,,,75,64
197120,note_on,,,,,2,0,1,,,0,,,76,66
197198,note_off,,,,,78,0,1,,,0,,,76,64
197200,note_on,,,,,2,0,1,,,0,,,73,60
197260,set_tempo,,,,,160,1,0,425532,,,,,,
197278,note_off,,,,,78,0,1,,,0,,,73,64
197280,note_off,,,,,0,0,2,,,0,,,56,64
197280,note_off,,,,,240,0,2,,,0,,,52,64
197280,note_on,,,,,0,0,2,,,0,,,57,38
197280,note_on,,,,,2,0,1,,,0,,,72,56
197280,note_on,,,,,0,0,2,,,0,,,54,38
197358,note_off,,,,,78,0,1,,,0,,,72,64
197360,note_on,,,,,2,0,1,,,0,,,73,52
197438,note_off,,,,,78,0,1,,,0,,,73,64
197440,note_on,,,,,2,0,1,,,0,,,69,49
197480,set_tempo,,,,,220,1,0,434783,,,,,,
197518,note_off,,,,,78,0,1,,,0,,,69,64
197520,note_on,,,,,2,0,1,,,0,,,68,47
197520,note_on,,,,,0,0,2,,,0,,,51,27
197520,note_on,,,,,0,0,2,,,0,,,59,27
197520,note_off,,,,,0,0,2,,,0,,,57,64
197520,note_off,,,,,240,0,2,,,0,,,54,64
197540,set_tempo,,,,,60,1,0,437956,,,,,,
197598,note_off,,,,,78,0,1,,,0,,,68,64
197600,note_on,,,,,2,0,1,,,0,,,69,46
197678,note_off,,,,,78,0,1,,,0,,,69,64
197680,note_on,,,,,2,0,1,,,0,,,66,45
197758,note_off,,,,,78,0,1,,,0,,,66,64
197760,note_on,,,,,2,0,1,,,0,,,65,50
197838,note_off,,,,,78,0,1,,,0,,,65,64
197840,set_tempo,,,,,300,1,0,447761,,,,,,
197840,note_on,,,,,2,0,1,,,0,,,66,44
197918,note_off,,,,,78,0,1,,,0,,,66,64
197920,note_on,,,,,2,0,1,,,0,,,63,44
197998,note_off,,,,,78,0,1,,,0,,,63,64
198000,note_off,,,,,0,0,2,,,0,,,59,64
198000,note_on,,,,,2,0,1,,,0,,,62,44
198000,note_off,,,,,0,0,2,,,0,,,51,64
198000,note_off,,,,,480,0,2,,,0,,,47,64
198078,note_off,,,,,78,0,1,,,0,,,62,64
198080,note_on,,,,,2,0,1,,,0,,,63,44
198100,set_tempo,,,,,260,1,0,458015,,,,,,
198158,note_off,,,,,78,0,1,,,0,,,63,64
198160,note_on,,,,,2,0,1,,,0,,,59,44
198238,note_off,,,,,78,0,1,,,0,,,59,64
198240,note_on,,,,,2,0,1,,,0,,,58,48
198318,note_off,,,,,78,0,1,,,0,,,58,64
198320,note_on,,,,,2,0,1,,,0,,,59,44
198340,set_tempo,,,,,240,1,0,465116,,,,,,
198398,note_off,,,,,78,0,1,,,0,,,59,64
198400,note_on,,,,,2,0,1,,,0,,,58,44
198420,set_tempo,,,,,80,1,0,468750,,,,,,
198478,note_off,,,,,78,0,1,,,0,,,58,64
198480,note_on,,,,,2,0,1,,,0,,,59,44
198558,note_off,,,,,78,0,1,,,0,,,59,64
198560,note_on,,,,,2,0,1,,,0,,,61,44
198580,set_tempo,,,,,160,1,0,472441,,,,,,
198638,note_off,,,,,78,0,1,,,0,,,61,64
198640,note_on,,,,,2,0,1,,,0,,,59,42
198700,set_tempo,,,,,120,1,0,487805,,,,,,
198718,note_off,,,,,78,0,1,,,0,,,59,64
198720,note_on,,,,,2,0,1,,,0,,,58,42
198798,note_off,,,,,78,0,1,,,0,,,58,64
198800,note_on,,,,,2,0,1,,,0,,,59,39
198878,note_off,,,,,78,0,1,,,0,,,59,64
198880,note_on,,,,,2,0,1,,,0,,,58,38
198958,note_off,,,,,78,0,1,,,0,,,58,64
198960,note_on,,,,,2,0,1,,,0,,,59,34
198980,set_tempo,,,,,280,1,0,500000,,,,,,
199038,note_off,,,,,78,0,1,,,0,,,59,64
199040,note_on,,,,,2,0,1,,,0,,,61,32
199060,set_tempo,,,,,80,1,0,517241,,,,,,
199118,note_off,,,,,78,0,1,,,0,,,61,64
199120,note_on,,,,,2,0,1,,,0,,,59,30
199140,set_tempo,,,,,80,1,0,526316,,,,,,
199198,note_off,,,,,78,0,1,,,0,,,59,64
199200,set_tempo,,,,,60,1,0,545455,,,,,,
199200,note_on,,,,,2,0,1,,,0,,,61,34
199278,note_off,,,,,78,0,1,,,0,,,61,64
199280,note_on,,,,,2,0,1,,,0,,,59,28
199300,set_tempo,,,,,100,1,0,571429,,,,,,
199358,note_off,,,,,78,0,1,,,0,,,59,64
199360,note_on,,,,,2,0,1,,,0,,,61,27
199400,set_tempo,,,,,100,1,0,582524,,,,,,
199420,set_tempo,,,,,20,1,0,606061,,,,,,
199438,note_off,,,,,78,0,1,,,0,,,61,64
199440,note_on,,,,,2,0,1,,,0,,,59,26
199518,note_off,,,,,78,0,1,,,0,,,59,64
199520,set_tempo,,,,,100,1,0,645161,,,,,,
199520,note_on,,,,,2,0,1,,,0,,,61,25
199560,set_tempo,,,,,40,1,0,779221,,,,,,
199598,note_off,,,,,78,0,1,,,0,,,61,64
199600,note_on,,,,,2,0,1,,,0,,,59,25
199600,set_tempo,,,,,40,1,0,952381,,,,,,
199660,note_off,,,,,60,0,1,,,0,,,59,64
199680,note_on,,,,,20,0,1,,,0,,,59,32
199680,set_tempo,,,,,80,1,0,1500000,,,,,,
199680,note_on,,,,,1680,0,2,,,0,,,52,29
199680,note_on,,,,,0,0,2,,,0,,,40,29
199680,note_on,,,,,0,0,2,,,0,,,44,29
199700,set_tempo,,,,,20,1,0,461538,,,,,,
200160,set_tempo,,,,,460,1,0,500000,,,,,,
200160,note_off,,,,,480,0,1,,,0,,,59,64
200160,note_on,,,,,0,0,1,,,0,,,64,34
200160,control_change,,,,,0,0,1,,,0,64,95,,
200280,note_off,,,,,120,0,1,,,0,,,64,64
200280,note_on,,,,,0,0,1,,,0,,,63,24
200400,note_off,,,,,120,0,1,,,0,,,63,64
200400,note_on,,,,,0,0,1,,,0,,,61,29
200520,note_off,,,,,120,0,1,,,0,,,61,64
200520,note_on,,,,,0,0,1,,,0,,,59,30
200610,control_change,,,,,90,0,1,,,0,64,0,,
200620,note_off,,,,,10,0,1,,,0,,,59,64
200640,set_tempo,,,,,480,1,0,659341,,,,,,
200640,note_on,,,,,0,0,1,,,0,,,59,37
200640,note_on,,,,,20,0,1,,,0,,,51,37
200640,note_off,,,,,960,0,2,,,0,,,40,64
200640,note_off,,,,,0,0,2,,,0,,,44,64
200640,note_off,,,,,0,0,2,,,0,,,52,64
200640,note_on,,,,,0,0,2,,,0,,,45,30
200640,note_on,,,,,0,0,2,,,0,,,42,30
200700,set_tempo,,,,,60,1,0,545455,,,,,,
200850,note_off,,,,,0,0,2,,,0,,,45,64
200850,note_off,,,,,210,0,2,,,0,,,42,64
200850,note_off,,,,,0,0,1,,,0,,,51,64
200850,note_off,,,,,210,0,1,,,0,,,59,64
200860,set_tempo,,,,,160,1,0,517241,,,,,,
200880,note_on,,,,,0,0,1,,,0,,,59,34
200880,note_on,,,,,30,0,1,,,0,,,51,34
200880,note_on,,,,,30,0,2,,,0,,,45,32
200880,note_on,,,,,0,0,2,,,0,,,42,32
201060,note_off,,,,,180,0,2,,,0,,,42,64
201060,note_off,,,,,0,0,2,,,0,,,45,64
201060,note_off,,,,,180,0,1,,,0,,,59,64
201060,note_off,,,,,0,0,1,,,0,,,51,64
201120,note_on,,,,,60,0,2,,,0,,,45,28
201120,note_on,,,,,60,0,1,,,0,,,51,32
201120,note_on,,,,,0,0,2,,,0,,,42,28
201120,note_on,,,,,0,0,1,,,0,,,59,32
201300,note_off,,,,,180,0,1,,,0,,,59,64
201300,note_off,,,,,0,0,1,,,0,,,51,64
201300,note_off,,,,,0,0,2,,,0,,,45,64
201300,note_off,,,,,180,0,2,,,0,,,42,64
201360,note_on,,,,,60,0,1,,,0,,,51,28
201360,note_on,,,,,0,0,1,,,0,,,59,28
201360,note_on,,,,,0,0,2,,,0,,,42,27
201360,note_on,,,,,60,0,2,,,0,,,45,27
201540,note_off,,,,,180,0,1,,,0,,,59,64
201540,note_off,,,,,0,0,1,,,0,,,51,64
201540,note_off,,,,,0,0,2,,,0,,,45,64
201540,note_off,,,,,180,0,2,,,0,,,42,64
201600,note_on,,,,,60,0,2,,,0,,,44,35
201600,note_on,,,,,0,0,2,,,0,,,40,35
201600,control_change,,,,,0,0,1,,,0,64,95,,
201600,note_on,,,,,0,0,1,,,0,,,52,33
201600,note_on,,,,,60,0,1,,,0,,,59,33
202050,note_off,,,,,0,0,1,,,0,,,59,64
202050,note_off,,,,,450,0,2,,,0,,,40,64
202050,note_off,,,,,0,0,2,,,0,,,44,64
202050,note_off,,,,,450,0,1,,,0,,,52,64
202080,note_on,,,,,0,0,1,,,0,,,59,32
202080,note_on,,,,,30,0,1,,,0,,,51,28
202080,note_on,,,,,30,0,2,,,0,,,45,28
202080,note_on,,,,,0,0,2,,,0,,,42,28
202090,control_change,,,,,10,0,1,,,0,64,0,,
202260,set_tempo,,,,,1400,1,0,540541,,,,,,
202290,note_off,,,,,0,0,2,,,0,,,45,64
202290,note_off,,,,,210,0,2,,,0,,,42,64
202290,note_off,,,,,200,0,1,,,0,,,59,64
202290,note_off,,,,,0,0,1,,,0,,,51,64
202320,note_on,,,,,0,0,2,,,0,,,42,28
202320,note_on,,,,,30,0,2,,,0,,,45,28
202320,note_on,,,,,30,0,1,,,0,,,51,28
202320,note_on,,,,,0,0,1,,,0,,,59,28
202400,set_tempo,,,,,140,1,0,545455,,,,,,
202500,note_off,,,,,0,0,2,,,0,,,45,64
202500,note_off,,,,,180,0,2,,,0,,,42,64
202500,note_off,,,,,180,0,1,,,0,,,59,64
202500,note_off,,,,,0,0,1,,,0,,,51,64
202560,note_on,,,,,60,0,2,,,0,,,44,34
202560,note_on,,,,,0,0,2,,,0,,,40,34
202560,note_on,,,,,60,0,1,,,0,,,59,30
202560,note_on,,,,,0,0,1,,,0,,,52,30
202560,control_change,,,,,0,0,1,,,0,64,96,,
203000,control_change,,,,,440,0,1,,,0,64,0,,
203010,note_off,,,,,0,0,1,,,0,,,59,64
203010,note_off,,,,,450,0,2,,,0,,,40,64
203010,note_off,,,,,0,0,2,,,0,,,44,64
203010,note_off,,,,,10,0,1,,,0,,,52,64
203020,set_tempo,,,,,620,1,0,1276596,,,,,,
203040,set_tempo,,,,,20,1,0,588235,,,,,,
203040,note_on,,,,,30,0,2,,,0,,,45,28
203040,note_on,,,,,0,0,1,,,0,,,51,27
203040,note_on,,,,,30,0,1,,,0,,,59,27
203040,note_on,,,,,0,0,2,,,0,,,42,28
203140,set_tempo,,,,,100,1,0,606061,,,,,,
203250,note_off,,,,,0,0,2,,,0,,,45,64
203250,note_off,,,,,210,0,2,,,0,,,42,64
203250,note_off,,,,,0,0,1,,,0,,,59,64
203250,note_off,,,,,210,0,1,,,0,,,51,64
203260,set_tempo,,,,,120,1,0,645161,,,,,,
203280,note_on,,,,,0,0,2,,,0,,,42,24
203280,note_on,,,,,30,0,1,,,0,,,51,23
203280,note_on,,,,,30,0,2,,,0,,,45,24
203280,note_on,,,,,0,0,1,,,0,,,59,23
203340,set_tempo,,,,,80,1,0,697674,,,,,,
203420,set_tempo,,,,,80,1,0,740741,,,,,,
203460,set_tempo,,,,,40,1,0,1090909,,,,,,
203490,note_off,,,,,0,0,2,,,0,,,45,64
203490,note_off,,,,,210,0,2,,,0,,,42,64
203490,note_off,,,,,0,0,1,,,0,,,51,64
203490,note_off,,,,,210,0,1,,,0,,,59,64
203520,note_on,,,,,30,0,2,,,0,,,44,41
203520,note_on,,,,,0,0,2,,,0,,,40,81
203520,set_tempo,,,,,60,1,0,666667,,,,,,
203520,note_on,,,,,30,0,1,,,0,,,52,53
203520,note_on,,,,,0,0,1,,,0,,,59,53
203540,set_tempo,,,,,20,1,0,483871,,,,,,
203600,set_tempo,,,,,60,1,0,472441,,,,,,
203700,note_off,,,,,180,0,2,,,0,,,40,64
203730,note_off,,,,,210,0,1,,,0,,,59,64
203730,note_off,,,,,30,0,2,,,0,,,44,64
203730,note_off,,,,,0,0,1,,,0,,,52,64
203760,note_on,,,,,30,0,2,,,0,,,40,61
203940,note_off,,,,,180,0,2,,,0,,,40,64
204000,note_on,,,,,270,0,1,,,0,,,45,86
204000,note_on,,,,,60,0,2,,,0,,,41,97
204180,note_off,,,,,180,0,1,,,0,,,45,64
204240,note_on,,,,,60,0,1,,,0,,,45,62
204420,note_off,,,,,180,0,1,,,0,,,45,64
204480,note_off,,,,,480,0,2,,,0,,,41,64
204480,note_on,,,,,0,0,2,,,0,,,42,86
204480,note_on,,,,,60,0,1,,,0,,,46,85
204540,note_off,,,,,60,0,1,,,0,,,46,64
204560,note_on,,,,,20,0,1,,,0,,,47,80
204620,note_off,,,,,60,0,1,,,0,,,47,64
204640,note_on,,,,,20,0,1,,,0,,,48,85
204660,note_off,,,,,180,0,2,,,0,,,42,64
204700,note_off,,,,,60,0,1,,,0,,,48,64
204720,note_on,,,,,60,0,2,,,0,,,42,63
204720,note_on,,,,,20,0,1,,,0,,,49,92
204780,note_off,,,,,60,0,1,,,0,,,49,64
204800,note_on,,,,,20,0,1,,,0,,,50,92
204860,note_off,,,,,60,0,1,,,0,,,50,64
204880,note_on,,,,,20,0,1,,,0,,,51,97
204900,note_off,,,,,180,0,2,,,0,,,42,64
204940,note_off,,,,,60,0,1,,,0,,,51,64
204960,note_on,,,,,20,0,1,,,0,,,52,100
204960,note_on,,,,,0,0,1,,,0,,,47,100
204960,note_on,,,,,60,0,2,,,0,,,43,83
205020,note_off,,,,,60,0,2,,,0,,,43,64
205040,note_on,,,,,20,0,2,,,0,,,42,76
205100,note_off,,,,,60,0,2,,,0,,,42,64
205120,note_on,,,,,20,0,2,,,0,,,43,86
205140,note_off,,,,,180,0,1,,,0,,,47,64
205180,note_off,,,,,60,0,2,,,0,,,43,64
205200,note_on,,,,,60,0,1,,,0,,,47,78
205200,note_on,,,,,20,0,2,,,0,,,45,91
205240,set_tempo,,,,,1640,1,0,468750,,,,,,
205260,note_off,,,,,60,0,2,,,0,,,45,64
205280,note_on,,,,,20,0,2,,,0,,,43,77
205340,note_off,,,,,60,0,2,,,0,,,43,64
205360,note_on,,,,,20,0,2,,,0,,,42,85
205380,note_off,,,,,180,0,1,,,0,,,47,64
205420,note_off,,,,,60,0,2,,,0,,,42,64
205440,note_off,,,,,60,0,1,,,0,,,52,64
205440,note_on,,,,,0,0,1,,,0,,,53,109
205440,note_on,,,,,0,0,1,,,0,,,47,99
205440,note_on,,,,,20,0,2,,,0,,,43,99
205518,note_off,,,,,78,0,1,,,0,,,47,64
205520,note_on,,,,,2,0,1,,,0,,,46,83
205598,note_off,,,,,78,0,1,,,0,,,46,64
205600,note_on,,,,,2,0,1,,,0,,,47,92
205678,note_off,,,,,78,0,1,,,0,,,47,64
205680,note_on,,,,,2,0,1,,,0,,,48,102
205680,note_on,,,,,0,0,2,,,0,,,44,109
205680,note_off,,,,,240,0,2,,,0,,,43,64
205758,note_off,,,,,78,0,1,,,0,,,48,64
205760,note_on,,,,,2,0,1,,,0,,,50,99
205838,note_off,,,,,78,0,1,,,0,,,50,64
205838,note_off,,,,,0,0,1,,,0,,,53,64
205840,note_on,,,,,2,0,1,,,0,,,48,90
205880,set_tempo,,,,,640,1,0,465116,,,,,,
205918,note_off,,,,,78,0,1,,,0,,,48,64
205920,note_on,,,,,0,0,1,,,0,,,47,108
205920,note_on,,,,,0,0,2,,,0,,,43,99
205920,note_on,,,,,2,0,1,,,0,,,53,108
205920,note_off,,,,,240,0,2,,,0,,,44,64
205998,note_off,,,,,78,0,1,,,0,,,53,64
206000,note_on,,,,,2,0,1,,,0,,,52,104
206078,note_off,,,,,78,0,1,,,0,,,52,64
206080,note_on,,,,,2,0,1,,,0,,,53,94
206158,note_off,,,,,78,0,1,,,0,,,53,64
206160,note_on,,,,,2,0,1,,,0,,,55,97
206238,note_off,,,,,78,0,1,,,0,,,55,64
206240,note_on,,,,,2,0,1,,,0,,,56,84
206318,note_off,,,,,0,0,1,,,0,,,47,64
206318,note_off,,,,,78,0,1,,,0,,,56,64
206320,set_tempo,,,,,440,1,0,461538,,,,,,
206320,note_on,,,,,2,0,1,,,0,,,53,74
206340,note_off,,,,,420,0,2,,,0,,,43,64
206398,note_off,,,,,78,0,1,,,0,,,53,64
206400,note_on,,,,,0,0,1,,,0,,,52,81
206400,note_on,,,,,2,0,1,,,0,,,48,81
206400,note_on,,,,,60,0,2,,,0,,,60,108
206520,set_tempo,,,,,200,1,0,458015,,,,,,
206580,note_off,,,,,180,0,2,,,0,,,60,64
206610,note_off,,,,,210,0,1,,,0,,,52,64
206610,note_off,,,,,0,0,1,,,0,,,48,64
206640,note_on,,,,,60,0,2,,,0,,,60,83
206820,note_off,,,,,180,0,2,,,0,,,60,64
206820,set_tempo,,,,,300,1,0,560748,,,,,,
206880,set_tempo,,,,,60,1,0,451128,,,,,,
206880,note_on,,,,,270,0,1,,,0,,,65,81
206880,note_on,,,,,60,0,2,,,0,,,61,117
207060,note_off,,,,,180,0,1,,,0,,,65,64
207120,note_on,,,,,60,0,1,,,0,,,65,66
207300,note_off,,,,,180,0,1,,,0,,,65,64
207360,note_on,,,,,60,0,1,,,0,,,66,77
207360,note_on,,,,,0,0,2,,,0,,,62,100
207360,note_off,,,,,480,0,2,,,0,,,61,64
207360,set_tempo,,,,,480,1,0,447761,,,,,,
207420,note_off,,,,,60,0,1,,,0,,,66,64
207440,note_on,,,,,20,0,1,,,0,,,67,82
207500,note_off,,,,,60,0,1,,,0,,,67,64
207520,note_on,,,,,20,0,1,,,0,,,68,84
207540,note_off,,,,,180,0,2,,,0,,,62,64
207580,note_off,,,,,60,0,1,,,0,,,68,64
207600,note_on,,,,,20,0,1,,,0,,,69,95
207600,note_on,,,,,60,0,2,,,0,,,62,77
207660,note_off,,,,,60,0,1,,,0,,,69,64
207680,note_on,,,,,20,0,1,,,0,,,70,90
207740,note_off,,,,,60,0,1,,,0,,,70,64
207760,note_on,,,,,20,0,1,,,0,,,71,94
207780,note_off,,,,,180,0,2,,,0,,,62,64
207820,note_off,,,,,60,0,1,,,0,,,71,64
207840,note_on,,,,,0,0,1,,,0,,,67,100
207840,note_on,,,,,20,0,1,,,0,,,72,100
207840,note_on,,,,,60,0,2,,,0,,,63,96
207900,note_off,,,,,60,0,2,,,0,,,63,64
207920,note_on,,,,,20,0,2,,,0,,,62,92
207940,set_tempo,,,,,580,1,0,444444,,,,,,
207980,note_off,,,,,60,0,2,,,0,,,62,64
208000,note_on,,,,,20,0,2,,,0,,,63,95
208020,note_off,,,,,180,0,1,,,0,,,67,64
208060,note_off,,,,,60,0,2,,,0,,,63,64
208080,note_on,,,,,20,0,2,,,0,,,65,100
208080,note_on,,,,,60,0,1,,,0,,,67,80
208140,note_off,,,,,60,0,2,,,0,,,65,64
208160,note_on,,,,,20,0,2,,,0,,,63,95
208220,note_off,,,,,60,0,2,,,0,,,63,64
208240,note_on,,,,,20,0,2,,,0,,,62,99
208260,note_off,,,,,180,0,1,,,0,,,67,64
208300,note_off,,,,,60,0,2,,,0,,,62,64
208320,note_on,,,,,20,0,2,,,0,,,63,103
208320,note_off,,,,,60,0,1,,,0,,,72,64
208320,note_on,,,,,0,0,1,,,0,,,73,109
208320,note_on,,,,,0,0,1,,,0,,,67,99
208398,note_off,,,,,78,0,1,,,0,,,67,64
208400,note_on,,,,,2,0,1,,,0,,,66,83
208478,note_off,,,,,78,0,1,,,0,,,66,64
208480,note_on,,,,,2,0,1,,,0,,,67,92
208558,note_off,,,,,78,0,1,,,0,,,67,64
208560,note_on,,,,,0,0,2,,,0,,,64,109
208560,note_off,,,,,240,0,2,,,0,,,63,64
208560,note_on,,,,,2,0,1,,,0,,,68,102
208638,note_off,,,,,78,0,1,,,0,,,68,64
208640,note_on,,,,,2,0,1,,,0,,,70,99
208718,note_off,,,,,0,0,1,,,0,,,73,64
208718,note_off,,,,,78,0,1,,,0,,,70,64
208720,note_on,,,,,2,0,1,,,0,,,68,90
208798,note_off,,,,,78,0,1,,,0,,,68,64
208800,note_on,,,,,2,0,1,,,0,,,73,108
208800,note_on,,,,,0,0,1,,,0,,,67,108
208800,note_off,,,,,240,0,2,,,0,,,64,64
208800,note_on,,,,,0,0,2,,,0,,,63,99
208878,note_off,,,,,78,0,1,,,0,,,73,64
208880,note_on,,,,,2,0,1,,,0,,,72,104
208958,note_off,,,,,78,0,1,,,0,,,72,64
208960,note_on,,,,,2,0,1,,,0,,,73,94
209038,note_off,,,,,78,0,1,,,0,,,73,64
209040,note_on,,,,,2,0,1,,,0,,,75,97
209080,set_tempo,,,,,1140,1,0,441176,,,,,,
209118,note_off,,,,,78,0,1,,,0,,,75,64
209120,note_on,,,,,2,0,1,,,0,,,76,84
209198,note_off,,,,,0,0,1,,,0,,,67,64
209198,note_off,,,,,78,0,1,,,0,,,76,64
209200,note_on,,,,,2,0,1,,,0,,,73,74
209220,note_off,,,,,420,0,2,,,0,,,63,64
209278,note_off,,,,,78,0,1,,,0,,,73,64
209280,note_on,,,,,60,0,2,,,0,,,44,117
209280,note_on,,,,,2,0,1,,,0,,,68,87
209280,note_on,,,,,0,0,1,,,0,,,72,87
209460,note_off,,,,,180,0,2,,,0,,,44,64
209490,note_off,,,,,210,0,1,,,0,,,72,64
209490,note_off,,,,,0,0,1,,,0,,,68,64
209520,note_on,,,,,60,0,2,,,0,,,44,102
209640,set_tempo,,,,,560,1,0,437956,,,,,,
209700,note_off,,,,,180,0,2,,,0,,,44,64
209700,set_tempo,,,,,60,1,0,508475,,,,,,
209760,note_on,,,,,60,0,2,,,0,,,45,123
209760,set_tempo,,,,,60,1,0,437956,,,,,,
209760,note_on,,,,,270,0,1,,,0,,,49,118
209940,note_off,,,,,180,0,1,,,0,,,49,64
210000,note_on,,,,,60,0,1,,,0,,,49,97
210180,note_off,,,,,180,0,1,,,0,,,49,64
210200,set_tempo,,,,,440,1,0,434783,,,,,,
210240,note_off,,,,,480,0,2,,,0,,,45,64
210240,note_on,,,,,60,0,1,,,0,,,50,109
210240,note_on,,,,,0,0,2,,,0,,,46,120
210300,note_off,,,,,60,0,1,,,0,,,50,64
210320,note_on,,,,,20,0,1,,,0,,,51,112
210380,note_off,,,,,60,0,1,,,0,,,51,64
210400,note_on,,,,,20,0,1,,,0,,,52,115
210420,note_off,,,,,180,0,2,,,0,,,46,64
210460,note_off,,,,,60,0,1,,,0,,,52,64
210480,note_on,,,,,20,0,1,,,0,,,53,118
210480,note_on,,,,,60,0,2,,,0,,,46,97
210540,note_off,,,,,60,0,1,,,0,,,53,64
210560,note_on,,,,,20,0,1,,,0,,,54,114
210620,note_off,,,,,60,0,1,,,0,,,54,64
210640,note_on,,,,,20,0,1,,,0,,,55,119
210660,note_off,,,,,180,0,2,,,0,,,46,64
210680,set_tempo,,,,,480,1,0,431655,,,,,,
210700,note_off,,,,,60,0,1,,,0,,,55,64
210720,note_on,,,,,60,0,2,,,0,,,47,108
210720,note_on,,,,,20,0,1,,,0,,,56,122
210720,note_on,,,,,0,0,1,,,0,,,51,122
210780,note_off,,,,,60,0,2,,,0,,,47,64
210800,note_on,,,,,20,0,2,,,0,,,46,113
210860,note_off,,,,,60,0,2,,,0,,,46,64
210880,note_on,,,,,20,0,2,,,0,,,47,116
210900,note_off,,,,,180,0,1,,,0,,,51,64
210940,note_off,,,,,60,0,2,,,0,,,47,64
210960,note_on,,,,,20,0,2,,,0,,,49,118
210960,note_on,,,,,60,0,1,,,0,,,51,103
211000,set_tempo,,,,,320,1,0,428571,,,,,,
211020,note_off,,,,,60,0,2,,,0,,,49,64
211040,set_tempo,,,,,40,1,0,425532,,,,,,
211040,note_on,,,,,20,0,2,,,0,,,47,114
211100,note_off,,,,,60,0,2,,,0,,,47,64
211120,note_on,,,,,20,0,2,,,0,,,46,118
211140,note_off,,,,,180,0,1,,,0,,,51,64
211180,note_off,,,,,60,0,2,,,0,,,46,64
211200,note_on,,,,,20,0,2,,,0,,,47,122
211200,note_off,,,,,60,0,1,,,0,,,56,64
211200,note_on,,,,,0,0,1,,,0,,,57,119
211200,note_on,,,,,0,0,1,,,0,,,51,119
211278,note_off,,,,,78,0,1,,,0,,,51,64
211280,note_on,,,,,2,0,1,,,0,,,50,107
211358,note_off,,,,,78,0,1,,,0,,,50,64
211360,note_on,,,,,2,0,1,,,0,,,51,113
211360,set_tempo,,,,,320,1,0,422535,,,,,,
211438,note_off,,,,,78,0,1,,,0,,,51,64
211440,note_on,,,,,2,0,1,,,0,,,52,117
211440,note_on,,,,,0,0,2,,,0,,,48,109
211440,note_off,,,,,240,0,2,,,0,,,47,64
211518,note_off,,,,,78,0,1,,,0,,,52,64
211520,note_on,,,,,2,0,1,,,0,,,54,111
211598,note_off,,,,,78,0,1,,,0,,,54,64
211598,note_off,,,,,0,0,1,,,0,,,57,64
211600,note_on,,,,,2,0,1,,,0,,,52,111
211678,note_off,,,,,78,0,1,,,0,,,52,64
211680,note_on,,,,,0,0,1,,,0,,,51,112
211680,note_on,,,,,2,0,1,,,0,,,57,112
211680,note_off,,,,,240,0,2,,,0,,,48,64
211680,note_on,,,,,0,0,2,,,0,,,47,99
211758,note_off,,,,,78,0,1,,,0,,,57,64
211760,note_on,,,,,2,0,1,,,0,,,56,104
211800,set_tempo,,,,,440,1,0,419580,,,,,,
211838,note_off,,,,,78,0,1,,,0,,,56,64
211840,note_on,,,,,2,0,1,,,0,,,57,94
211918,note_off,,,,,78,0,1,,,0,,,57,64
211920,note_on,,,,,2,0,1,,,0,,,59,97
211998,note_off,,,,,78,0,1,,,0,,,59,64
212000,note_on,,,,,2,0,1,,,0,,,60,84
212078,note_off,,,,,78,0,1,,,0,,,60,64
212078,note_off,,,,,0,0,1,,,0,,,51,64
212080,note_on,,,,,2,0,1,,,0,,,57,74
212100,note_off,,,,,420,0,2,,,0,,,47,64
212158,note_off,,,,,78,0,1,,,0,,,57,64
212160,note_on,,,,,0,0,1,,,0,,,56,87
212160,control_change,,,,,2,0,1,,,0,7,80,,
212160,note_on,,,,,0,0,2,,,0,,,52,117
212160,control_change,,,,,60,0,2,,,0,7,80,,
212278,control_change,,,,,118,0,1,,,0,7,81,,
212278,control_change,,,,,118,0,2,,,0,7,81,,
212300,set_tempo,,,,,500,1,0,416667,,,,,,
212368,note_off,,,,,90,0,2,,,0,,,52,64
212398,control_change,,,,,120,0,1,,,0,7,82,,
212398,control_change,,,,,30,0,2,,,0,7,82,,
212400,note_on,,,,,2,0,2,,,0,,,52,102
212402,note_off,,,,,4,0,1,,,0,,,56,64
212518,control_change,,,,,116,0,1,,,0,7,83,,
212518,control_change,,,,,118,0,2,,,0,7,83,,
212580,note_off,,,,,62,0,2,,,0,,,52,64
212638,control_change,,,,,58,0,2,,,0,7,84,,
212638,control_change,,,,,120,0,1,,,0,7,84,,
212640,note_on,,,,,2,0,2,,,0,,,53,123
212640,note_on,,,,,2,0,1,,,0,,,57,118
212758,control_change,,,,,118,0,1,,,0,7,85,,
212758,control_change,,,,,118,0,2,,,0,7,85,,
212848,note_off,,,,,90,0,1,,,0,,,57,64
212878,control_change,,,,,120,0,2,,,0,7,86,,
212878,control_change,,,,,30,0,1,,,0,7,86,,
212880,note_on,,,,,2,0,1,,,0,,,57,98
212900,set_tempo,,,,,600,1,0,413793,,,,,,
212998,control_change,,,,,118,0,1,,,0,7,87,,
212998,control_change,,,,,120,0,2,,,0,7,87,,
213060,note_off,,,,,62,0,1,,,0,,,57,64
213118,control_change,,,,,58,0,1,,,0,7,88,,
213118,control_change,,,,,120,0,2,,,0,7,88,,
213120,note_on,,,,,0,0,2,,,0,,,53,120
213120,note_on,,,,,0,0,2,,,0,,,60,120
213120,note_off,,,,,2,0,2,,,0,,,53,64
213120,note_on,,,,,2,0,1,,,0,,,69,90
213180,set_tempo,,,,,280,1,0,410959,,,,,,
213180,note_off,,,,,60,0,1,,,0,,,69,64
213200,note_on,,,,,20,0,1,,,0,,,70,94
213238,control_change,,,,,118,0,2,,,0,7,89,,
213238,control_change,,,,,38,0,1,,,0,7,89,,
213260,note_off,,,,,22,0,1,,,0,,,70,64
213280,note_on,,,,,20,0,1,,,0,,,71,99
213328,note_off,,,,,0,0,2,,,0,,,60,64
213328,note_off,,,,,90,0,2,,,0,,,53,64
213340,note_off,,,,,60,0,1,,,0,,,71,64
213358,control_change,,,,,18,0,1,,,0,7,90,,
213358,control_change,,,,,30,0,2,,,0,7,90,,
213360,note_on,,,,,0,0,2,,,0,,,53,95
213360,note_on,,,,,2,0,2,,,0,,,60,95
213360,note_on,,,,,2,0,1,,,0,,,72,103
213400,set_tempo,,,,,220,1,0,408163,,,,,,
213420,note_off,,,,,60,0,1,,,0,,,72,64
213440,note_on,,,,,20,0,1,,,0,,,73,108
213478,control_change,,,,,38,0,1,,,0,7,91,,
213478,control_change,,,,,118,0,2,,,0,7,91,,
213500,note_off,,,,,22,0,1,,,0,,,73,64
213520,note_on,,,,,20,0,1,,,0,,,74,112
213540,note_off,,,,,0,0,2,,,0,,,60,64
213540,note_off,,,,,62,0,2,,,0,,,53,64
213580,note_off,,,,,60,0,1,,,0,,,74,64
213598,control_change,,,,,58,0,2,,,0,7,92,,
213598,control_change,,,,,18,0,1,,,0,7,92,,
213600,note_on,,,,,2,0,2,,,0,,,54,105
213600,note_on,,,,,2,0,1,,,0,,,69,117
213600,note_on,,,,,0,0,1,,,0,,,75,117
213660,note_off,,,,,60,0,2,,,0,,,54,64
213680,note_on,,,,,20,0,2,,,0,,,55,106
213718,control_change,,,,,118,0,1,,,0,7,93,,
213718,control_change,,,,,38,0,2,,,0,7,93,,
213740,note_off,,,,,22,0,2,,,0,,,55,64
213760,note_on,,,,,20,0,2,,,0,,,56,110
213808,note_off,,,,,90,0,1,,,0,,,75,64
213808,note_off,,,,,0,0,1,,,0,,,69,64
213820,note_off,,,,,60,0,2,,,0,,,56,64
213838,control_change,,,,,18,0,2,,,0,7,94,,
213838,control_change,,,,,30,0,1,,,0,7,94,,
213840,note_on,,,,,2,0,1,,,0,,,69,92
213840,note_on,,,,,2,0,2,,,0,,,57,110
213840,note_on,,,,,0,0,1,,,0,,,75,92
213900,note_off,,,,,60,0,2,,,0,,,57,64
213920,note_on,,,,,20,0,2,,,0,,,58,112
213958,control_change,,,,,38,0,2,,,0,7,95,,
213958,control_change,,,,,118,0,1,,,0,7,95,,
213980,note_off,,,,,22,0,2,,,0,,,58,64
214000,note_on,,,,,20,0,2,,,0,,,59,114
214020,note_off,,,,,62,0,1,,,0,,,75,64
214020,note_off,,,,,0,0,1,,,0,,,69,64
214040,set_tempo,,,,,640,1,0,405405,,,,,,
214060,note_off,,,,,60,0,2,,,0,,,59,64
214078,control_change,,,,,58,0,1,,,0,7,96,,
214078,control_change,,,,,18,0,2,,,0,7,96,,
214080,note_on,,,,,2,0,2,,,0,,,60,118
214080,note_on,,,,,0,0,2,,,0,,,54,118
214080,note_on,,,,,2,0,1,,,0,,,75,101
214100,set_tempo,,,,,60,1,0,402685,,,,,,
214140,note_off,,,,,60,0,1,,,0,,,75,64
214160,note_on,,,,,20,0,1,,,0,,,76,105
214198,control_change,,,,,38,0,1,,,0,7,97,,
214198,control_change,,,,,118,0,2,,,0,7,97,,
214220,note_off,,,,,22,0,1,,,0,,,76,64
214240,note_on,,,,,20,0,1,,,0,,,77,110
214288,note_off,,,,,0,0,2,,,0,,,60,64
214288,note_off,,,,,90,0,2,,,0,,,54,64
214300,note_off,,,,,60,0,1,,,0,,,77,64
214318,control_change,,,,,18,0,1,,,0,7,98,,
214318,control_change,,,,,30,0,2,,,0,7,98,,
214320,note_on,,,,,2,0,1,,,0,,,78,113
214320,note_on,,,,,0,0,2,,,0,,,54,94
214320,note_on,,,,,2,0,2,,,0,,,60,94
214380,note_off,,,,,60,0,1,,,0,,,78,64
214400,note_on,,,,,20,0,1,,,0,,,79,115
214438,control_change,,,,,118,0,2,,,0,7,99,,
214438,control_change,,,,,38,0,1,,,0,7,99,,
214460,note_off,,,,,22,0,1,,,0,,,79,64
214480,note_on,,,,,20,0,1,,,0,,,80,120
214500,note_off,,,,,0,0,2,,,0,,,60,64
214500,note_off,,,,,62,0,2,,,0,,,54,64
214540,note_off,,,,,60,0,1,,,0,,,80,64
214558,control_change,,,,,18,0,1,,,0,7,100,,
214558,control_change,,,,,58,0,2,,,0,7,100,,
214560,note_on,,,,,2,0,2,,,0,,,54,113
214560,note_on,,,,,2,0,1,,,0,,,75,126
214560,note_on,,,,,0,0,1,,,0,,,81,126
214560,set_tempo,,,,,460,1,0,400000,,,,,,
214620,note_off,,,,,60,0,2,,,0,,,54,64
214640,note_on,,,,,20,0,2,,,0,,,55,114
214640,set_tempo,,,,,80,1,0,397351,,,,,,
214678,control_change,,,,,118,0,1,,,0,7,101,,
214678,control_change,,,,,38,0,2,,,0,7,101,,
214700,note_off,,,,,22,0,2,,,0,,,55,64
214720,note_on,,,,,20,0,2,,,0,,,56,115
214768,note_off,,,,,90,0,1,,,0,,,81,64
214768,note_off,,,,,0,0,1,,,0,,,75,64
214780,note_off,,,,,60,0,2,,,0,,,56,64
214798,control_change,,,,,18,0,2,,,0,7,102,,
214798,control_change,,,,,30,0,1,,,0,7,102,,
214800,note_on,,,,,2,0,2,,,0,,,57,115
214800,note_on,,,,,0,0,1,,,0,,,81,98
214800,note_on,,,,,2,0,1,,,0,,,75,98
214860,note_off,,,,,60,0,2,,,0,,,57,64
214880,note_on,,,,,20,0,2,,,0,,,59,122
214918,control_change,,,,,38,0,2,,,0,7,103,,
214918,control_change,,,,,118,0,1,,,0,7,103,,
214940,note_off,,,,,22,0,2,,,0,,,59,64
214960,note_on,,,,,20,0,2,,,0,,,60,124
214980,note_off,,,,,0,0,1,,,0,,,75,64
214980,note_off,,,,,62,0,1,,,0,,,81,64
215020,note_off,,,,,60,0,2,,,0,,,60,64
215038,control_change,,,,,58,0,1,,,0,7,104,,
215038,control_change,,,,,18,0,2,,,0,7,104,,
215040,note_on,,,,,2,0,1,,,0,,,81,108
215040,note_on,,,,,2,0,2,,,0,,,59,127
215040,note_on,,,,,0,0,2,,,0,,,54,127
215060,set_tempo,,,,,420,1,0,400000,,,,,,
215100,note_off,,,,,60,0,1,,,0,,,81,64
215120,note_on,,,,,20,0,1,,,0,,,82,110
215120,set_tempo,,,,,60,1,0,402685,,,,,,
215158,control_change,,,,,118,0,2,,,0,7,105,,
215158,control_change,,,,,38,0,1,,,0,7,105,,
215160,set_tempo,,,,,40,1,0,405405,,,,,,
215180,note_off,,,,,22,0,1,,,0,,,82,64
215200,note_on,,,,,20,0,1,,,0,,,83,114
215200,set_tempo,,,,,40,1,0,413793,,,,,,
215220,set_tempo,,,,,20,1,0,416667,,,,,,
215240,set_tempo,,,,,20,1,0,422535,,,,,,
215248,note_off,,,,,90,0,2,,,0,,,54,64
215248,note_off,,,,,0,0,2,,,0,,,59,64
215260,note_off,,,,,60,0,1,,,0,,,83,64
215278,control_change,,,,,18,0,1,,,0,7,106,,
215278,control_change,,,,,30,0,2,,,0,7,106,,
215280,note_on,,,,,2,0,1,,,0,,,84,117
215280,note_on,,,,,0,0,2,,,0,,,54,104
215280,note_on,,,,,2,0,2,,,0,,,59,104
215300,set_tempo,,,,,60,1,0,444444,,,,,,
215340,note_off,,,,,60,0,1,,,0,,,84,64
215360,note_on,,,,,20,0,1,,,0,,,85,121
215398,control_change,,,,,118,0,2,,,0,7,107,,
215398,control_change,,,,,38,0,1,,,0,7,107,,
215400,set_tempo,,,,,100,1,0,465116,,,,,,
215420,note_off,,,,,22,0,1,,,0,,,85,64
215440,note_on,,,,,20,0,1,,,0,,,86,124
215440,set_tempo,,,,,40,1,0,468750,,,,,,
215460,note_off,,,,,0,0,2,,,0,,,59,64
215460,note_off,,,,,62,0,2,,,0,,,54,64
215460,set_tempo,,,,,20,1,0,480000,,,,,,
215500,note_off,,,,,60,0,1,,,0,,,86,64
215500,set_tempo,,,,,40,1,0,491803,,,,,,
215518,control_change,,,,,18,0,1,,,0,7,108,,
215518,control_change,,,,,58,0,2,,,0,7,108,,
215520,note_on,,,,,2,0,1,,,0,,,81,127
215520,note_on,,,,,0,0,1,,,0,,,87,127
215520,note_on,,,,,2,0,2,,,0,,,54,111
215540,set_tempo,,,,,40,1,0,504202,,,,,,
215560,set_tempo,,,,,20,1,0,508475,,,,,,
215580,note_off,,,,,60,0,2,,,0,,,54,64
215580,set_tempo,,,,,20,1,0,521739,,,,,,
215600,note_on,,,,,20,0,2,,,0,,,55,115
215620,set_tempo,,,,,40,1,0,535714,,,,,,
215638,control_change,,,,,38,0,2,,,0,7,109,,
215638,control_change,,,,,118,0,1,,,0,7,109,,
215660,set_tempo,,,,,40,1,0,540541,,,,,,
215660,note_off,,,,,22,0,2,,,0,,,55,64
215680,note_on,,,,,20,0,2,,,0,,,56,117
215720,set_tempo,,,,,60,1,0,555556,,,,,,
215728,note_off,,,,,0,0,1,,,0,,,81,64
215728,note_off,,,,,90,0,1,,,0,,,87,64
215740,note_off,,,,,60,0,2,,,0,,,56,64
215758,control_change,,,,,18,0,2,,,0,7,110,,
215758,control_change,,,,,30,0,1,,,0,7,110,,
215760,note_on,,,,,2,0,2,,,0,,,57,119
215760,set_tempo,,,,,40,1,0,560748,,,,,,
215760,note_on,,,,,0,0,1,,,0,,,87,105
215760,note_on,,,,,2,0,1,,,0,,,81,105
215800,set_tempo,,,,,40,1,0,582524,,,,,,
215820,note_off,,,,,60,0,2,,,0,,,57,64
215820,set_tempo,,,,,20,1,0,588235,,,,,,
215840,note_on,,,,,20,0,2,,,0,,,59,122
215840,set_tempo,,,,,20,1,0,594059,,,,,,
215860,set_tempo,,,,,20,1,0,606061,,,,,,
215878,control_change,,,,,38,0,2,,,0,7,111,,
215878,control_change,,,,,118,0,1,,,0,7,111,,
215880,set_tempo,,,,,20,1,0,618557,,,,,,
215900,note_off,,,,,22,0,2,,,0,,,59,64
215900,set_tempo,,,,,20,1,0,625000,,,,,,
215920,note_on,,,,,20,0,2,,,0,,,60,125
215920,set_tempo,,,,,20,1,0,1111111,,,,,,
215940,note_off,,,,,62,0,1,,,0,,,87,64
215940,note_off,,,,,0,0,1,,,0,,,81,64
215960,set_tempo,,,,,40,1,0,1090909,,,,,,
215980,note_off,,,,,60,0,2,,,0,,,60,64
215998,control_change,,,,,18,0,2,,,0,7,112,,
215998,control_change,,,,,58,0,1,,,0,7,112,,
216000,note_on,,,,,0,0,2,,,0,,,59,127
216000,control_change,,,,,2,0,2,,,0,7,112,,
216000,control_change,,,,,2,0,1,,,0,7,112,,
216000,note_on,,,,,0,0,1,,,0,,,88,120
216000,note_on,,,,,0,0,2,,,0,,,55,127
216010,control_change,,,,,10,0,1,,,0,64,95,,
216014,control_change,,,,,14,0,2,,,0,7,111,,
216014,control_change,,,,,4,0,1,,,0,7,111,,
216020,set_tempo,,,,,60,1,0,491803,,,,,,
216030,control_change,,,,,16,0,2,,,0,7,110,,
216030,control_change,,,,,16,0,1,,,0,7,110,,
216040,set_tempo,,,,,20,1,0,487805,,,,,,
216044,control_change,,,,,14,0,2,,,0,7,109,,
216044,control_change,,,,,14,0,1,,,0,7,109,,
216060,control_change,,,,,16,0,1,,,0,7,108,,
216060,control_change,,,,,16,0,2,,,0,7,108,,
216074,control_change,,,,,14,0,1,,,0,7,107,,
216074,control_change,,,,,14,0,2,,,0,7,107,,
216078,note_off,,,,,4,0,1,,,0,,,88,64
216080,note_on,,,,,2,0,1,,,0,,,83,115
216090,control_change,,,,,16,0,2,,,0,7,106,,
216090,control_change,,,,,10,0,1,,,0,7,106,,
216100,set_tempo,,,,,60,1,0,468750,,,,,,
216104,control_change,,,,,14,0,2,,,0,7,105,,
216104,control_change,,,,,14,0,1,,,0,7,105,,
216120,control_change,,,,,16,0,1,,,0,7,104,,
216120,control_change,,,,,16,0,2,,,0,7,104,,
216134,control_change,,,,,14,0,2,,,0,7,103,,
216134,control_change,,,,,14,0,1,,,0,7,103,,
216150,control_change,,,,,16,0,2,,,0,7,102,,
216150,control_change,,,,,16,0,1,,,0,7,102,,
216158,note_off,,,,,8,0,1,,,0,,,83,64
216160,note_on,,,,,2,0,1,,,0,,,79,108
216164,control_change,,,,,14,0,2,,,0,7,101,,
216164,control_change,,,,,4,0,1,,,0,7,101,,
216180,control_change,,,,,16,0,2,,,0,7,100,,
216180,control_change,,,,,16,0,1,,,0,7,100,,
216194,control_change,,,,,14,0,2,,,0,7,99,,
216194,control_change,,,,,14,0,1,,,0,7,99,,
216210,control_change,,,,,16,0,1,,,0,7,98,,
216210,control_change,,,,,0,0,2,,,0,7,98,,
216210,note_off,,,,,0,0,2,,,0,,,59,64
216210,note_off,,,,,16,0,2,,,0,,,55,64
216224,control_change,,,,,14,0,2,,,0,7,97,,
216224,control_change,,,,,14,0,1,,,0,7,97,,
216238,note_off,,,,,14,0,1,,,0,,,79,64
216240,note_on,,,,,0,0,1,,,0,,,76,100
216240,control_change,,,,,2,0,1,,,0,7,96,,
216240,control_change,,,,,16,0,2,,,0,7,96,,
216240,note_on,,,,,0,0,2,,,0,,,59,87
216240,note_on,,,,,0,0,2,,,0,,,55,87
216254,control_change,,,,,14,0,1,,,0,7,95,,
216254,control_change,,,,,14,0,2,,,0,7,95,,
216260,set_tempo,,,,,160,1,0,465116,,,,,,
216270,control_change,,,,,16,0,1,,,0,7,94,,
216270,control_change,,,,,16,0,2,,,0,7,94,,
216280,set_tempo,,,,,20,1,0,461538,,,,,,
216284,control_change,,,,,14,0,2,,,0,7,93,,
216284,control_change,,,,,14,0,1,,,0,7,93,,
216300,control_change,,,,,16,0,1,,,0,7,92,,
216300,control_change,,,,,16,0,2,,,0,7,92,,
216314,control_change,,,,,14,0,1,,,0,7,91,,
216314,control_change,,,,,14,0,2,,,0,7,91,,
216318,note_off,,,,,4,0,1,,,0,,,76,64
216320,note_on,,,,,2,0,1,,,0,,,71,94
216330,control_change,,,,,16,0,2,,,0,7,90,,
216330,control_change,,,,,10,0,1,,,0,7,90,,
216344,control_change,,,,,14,0,2,,,0,7,89,,
216344,control_change,,,,,14,0,1,,,0,7,89,,
216360,control_change,,,,,16,0,1,,,0,7,88,,
216360,control_change,,,,,16,0,2,,,0,7,88,,
216374,control_change,,,,,14,0,1,,,0,7,87,,
216374,control_change,,,,,14,0,2,,,0,7,87,,
216390,control_change,,,,,16,0,2,,,0,7,86,,
216390,control_change,,,,,16,0,1,,,0,7,86,,
216398,note_off,,,,,8,0,1,,,0,,,71,64
216400,note_on,,,,,2,0,1,,,0,,,67,89
216404,control_change,,,,,4,0,1,,,0,7,85,,
216404,control_change,,,,,14,0,2,,,0,7,85,,
216420,note_off,,,,,16,0,2,,,0,,,55,64
216420,control_change,,,,,0,0,2,,,0,7,84,,
216420,control_change,,,,,16,0,1,,,0,7,84,,
216420,note_off,,,,,0,0,2,,,0,,,59,64
216434,control_change,,,,,14,0,2,,,0,7,83,,
216434,control_change,,,,,14,0,1,,,0,7,83,,
216440,set_tempo,,,,,160,1,0,451128,,,,,,
216440,control_change,,,,,6,0,1,,,0,64,0,,
216450,control_change,,,,,16,0,2,,,0,7,82,,
216450,control_change,,,,,10,0,1,,,0,7,82,,
216464,control_change,,,,,14,0,1,,,0,7,81,,
216464,control_change,,,,,14,0,2,,,0,7,81,,
216478,note_off,,,,,14,0,1,,,0,,,67,64
216480,control_change,,,,,2,0,1,,,0,7,80,,
216480,note_on,,,,,0,0,1,,,0,,,64,84
216480,control_change,,,,,16,0,2,,,0,7,80,,
216558,note_off,,,,,78,0,1,,,0,,,64,64
216560,note_on,,,,,2,0,1,,,0,,,63,79
216638,note_off,,,,,78,0,1,,,0,,,63,64
216640,note_on,,,,,2,0,1,,,0,,,64,75
216718,note_off,,,,,78,0,1,,,0,,,64,64
216720,set_tempo,,,,,280,1,0,447761,,,,,,
216720,note_on,,,,,2,0,1,,,0,,,66,72
216720,note_on,,,,,0,0,2,,,0,,,57,79
216720,note_on,,,,,240,0,2,,,0,,,60,79
216798,note_off,,,,,78,0,1,,,0,,,66,64
216800,note_on,,,,,2,0,1,,,0,,,67,70
216878,note_off,,,,,78,0,1,,,0,,,67,64
216880,note_on,,,,,2,0,1,,,0,,,66,68
216958,note_off,,,,,78,0,1,,,0,,,66,64
216960,note_off,,,,,240,0,2,,,0,,,57,64
216960,note_off,,,,,0,0,2,,,0,,,60,64
216960,note_on,,,,,0,0,2,,,0,,,59,68
216960,note_on,,,,,0,0,2,,,0,,,55,68
216960,note_on,,,,,2,0,1,,,0,,,64,67
217038,note_off,,,,,78,0,1,,,0,,,64,64
217040,note_on,,,,,2,0,1,,,0,,,66,62
217118,note_off,,,,,78,0,1,,,0,,,66,64
217120,note_on,,,,,2,0,1,,,0,,,64,59
217198,note_off,,,,,78,0,1,,,0,,,64,64
217200,note_on,,,,,0,0,2,,,0,,,57,65
217200,note_on,,,,,0,0,2,,,0,,,60,65
217200,note_off,,,,,0,0,2,,,0,,,59,64
217200,note_off,,,,,240,0,2,,,0,,,55,64
217200,note_on,,,,,2,0,1,,,0,,,66,58
217260,set_tempo,,,,,540,1,0,454545,,,,,,
217278,note_off,,,,,78,0,1,,,0,,,66,64
217280,note_on,,,,,2,0,1,,,0,,,67,57
217358,note_off,,,,,78,0,1,,,0,,,67,64
217360,note_on,,,,,2,0,1,,,0,,,66,57
217400,set_tempo,,,,,140,1,0,472441,,,,,,
217438,note_off,,,,,78,0,1,,,0,,,66,64
217440,note_off,,,,,240,0,2,,,0,,,57,64
217440,note_off,,,,,0,0,2,,,0,,,60,64
217440,note_on,,,,,0,0,2,,,0,,,59,60
217440,note_on,,,,,0,0,2,,,0,,,55,60
217440,note_on,,,,,2,0,1,,,0,,,64,63
217518,note_off,,,,,78,0,1,,,0,,,64,64
217520,note_on,,,,,2,0,1,,,0,,,66,58
217598,note_off,,,,,78,0,1,,,0,,,66,64
217600,note_on,,,,,2,0,1,,,0,,,64,54
217620,set_tempo,,,,,220,1,0,483871,,,,,,
217678,note_off,,,,,78,0,1,,,0,,,64,64
217680,note_on,,,,,2,0,1,,,0,,,63,51
217680,note_off,,,,,240,0,2,,,0,,,55,64
217680,note_off,,,,,0,0,2,,,0,,,59,64
217680,note_on,,,,,0,0,2,,,0,,,57,49
217680,note_on,,,,,0,0,2,,,0,,,54,49
217758,note_off,,,,,78,0,1,,,0,,,63,64
217760,set_tempo,,,,,140,1,0,495868,,,,,,
217760,note_on,,,,,2,0,1,,,0,,,64,48
217800,set_tempo,,,,,40,1,0,504202,,,,,,
217838,note_off,,,,,78,0,1,,,0,,,64,64
217840,note_on,,,,,2,0,1,,,0,,,63,46
217890,note_off,,,,,210,0,2,,,0,,,54,64
217890,note_off,,,,,0,0,2,,,0,,,57,64
217900,set_tempo,,,,,100,1,0,461538,,,,,,
217918,note_off,,,,,78,0,1,,,0,,,63,64
217920,note_on,,,,,2,0,1,,,0,,,88,120
217920,set_tempo,,,,,20,1,0,1090909,,,,,,
217920,note_on,,,,,30,0,2,,,0,,,56,127
217920,control_change,,,,,0,0,2,,,0,7,112,,
217920,note_on,,,,,0,0,2,,,0,,,59,127
217930,control_change,,,,,10,0,1,,,0,64,95,,
217934,control_change,,,,,14,0,2,,,0,7,111,,
217940,set_tempo,,,,,20,1,0,491803,,,,,,
217950,control_change,,,,,16,0,2,,,0,7,110,,
217960,set_tempo,,,,,20,1,0,487805,,,,,,
217964,control_change,,,,,14,0,2,,,0,7,109,,
217980,control_change,,,,,16,0,2,,,0,7,108,,
217994,control_change,,,,,14,0,2,,,0,7,107,,
217998,note_off,,,,,68,0,1,,,0,,,88,64
218000,note_on,,,,,2,0,1,,,0,,,83,115
218010,control_change,,,,,16,0,2,,,0,7,106,,
218020,set_tempo,,,,,60,1,0,468750,,,,,,
218024,control_change,,,,,14,0,2,,,0,7,105,,
218040,control_change,,,,,16,0,2,,,0,7,104,,
218054,control_change,,,,,14,0,2,,,0,7,103,,
218070,control_change,,,,,16,0,2,,,0,7,102,,
218078,note_off,,,,,78,0,1,,,0,,,83,64
218080,note_on,,,,,2,0,1,,,0,,,80,108
218084,control_change,,,,,14,0,2,,,0,7,101,,
218100,control_change,,,,,16,0,2,,,0,7,100,,
218114,control_change,,,,,14,0,2,,,0,7,99,,
218130,control_change,,,,,0,0,2,,,0,7,98,,
218130,note_off,,,,,0,0,2,,,0,,,56,64
218130,note_off,,,,,16,0,2,,,0,,,59,64
218144,control_change,,,,,14,0,2,,,0,7,97,,
218158,note_off,,,,,78,0,1,,,0,,,80,64
218160,control_change,,,,,0,0,2,,,0,7,96,,
218160,note_on,,,,,16,0,2,,,0,,,56,87
218160,note_on,,,,,2,0,1,,,0,,,76,100
218160,note_on,,,,,0,0,2,,,0,,,59,87
218174,control_change,,,,,14,0,2,,,0,7,95,,
218180,set_tempo,,,,,160,1,0,465116,,,,,,
218190,control_change,,,,,16,0,2,,,0,7,94,,
218200,set_tempo,,,,,20,1,0,461538,,,,,,
218204,control_change,,,,,14,0,2,,,0,7,93,,
218220,control_change,,,,,16,0,2,,,0,7,92,,
218234,control_change,,,,,14,0,2,,,0,7,91,,
218238,note_off,,,,,78,0,1,,,0,,,76,64
218240,note_on,,,,,2,0,1,,,0,,,71,94
218250,control_change,,,,,16,0,2,,,0,7,90,,
218264,control_change,,,,,14,0,2,,,0,7,89,,
218280,control_change,,,,,16,0,2,,,0,7,88,,
218294,control_change,,,,,14,0,2,,,0,7,87,,
218310,control_change,,,,,16,0,2,,,0,7,86,,
218318,note_off,,,,,78,0,1,,,0,,,71,64
218320,note_on,,,,,2,0,1,,,0,,,68,89
218324,control_change,,,,,14,0,2,,,0,7,85,,
218340,control_change,,,,,0,0,2,,,0,7,84,,
218340,note_off,,,,,0,0,2,,,0,,,56,64
218340,note_off,,,,,16,0,2,,,0,,,59,64
218354,control_change,,,,,14,0,2,,,0,7,83,,
218360,control_change,,,,,40,0,1,,,0,64,0,,
218360,set_tempo,,,,,160,1,0,451128,,,,,,
218370,control_change,,,,,16,0,2,,,0,7,82,,
218384,control_change,,,,,14,0,2,,,0,7,81,,
218398,note_off,,,,,38,0,1,,,0,,,68,64
218400,note_on,,,,,2,0,1,,,0,,,64,84
218400,control_change,,,,,16,0,2,,,0,7,80,,
218478,note_off,,,,,78,0,1,,,0,,,64,64
218480,note_on,,,,,2,0,1,,,0,,,63,79
218558,note_off,,,,,78,0,1,,,0,,,63,64
218560,note_on,,,,,2,0,1,,,0,,,64,75
218638,note_off,,,,,78,0,1,,,0,,,64,64
218640,note_on,,,,,2,0,1,,,0,,,66,72
218640,set_tempo,,,,,280,1,0,447761,,,,,,
218640,note_on,,,,,0,0,2,,,0,,,57,79
218640,note_on,,,,,240,0,2,,,0,,,61,79
218718,note_off,,,,,78,0,1,,,0,,,66,64
218720,note_on,,,,,2,0,1,,,0,,,68,70
218798,note_off,,,,,78,0,1,,,0,,,68,64
218800,note_on,,,,,2,0,1,,,0,,,66,68
218878,note_off,,,,,78,0,1,,,0,,,66,64
218880,note_on,,,,,2,0,1,,,0,,,64,67
218880,note_off,,,,,240,0,2,,,0,,,57,64
218880,note_off,,,,,0,0,2,,,0,,,61,64
218880,note_on,,,,,0,0,2,,,0,,,59,68
218880,note_on,,,,,0,0,2,,,0,,,56,68
218958,note_off,,,,,78,0,1,,,0,,,64,64
218960,note_on,,,,,2,0,1,,,0,,,66,62
219038,note_off,,,,,78,0,1,,,0,,,66,64
219040,note_on,,,,,2,0,1,,,0,,,64,59
219118,note_off,,,,,78,0,1,,,0,,,64,64
219120,note_on,,,,,0,0,2,,,0,,,57,65
219120,note_on,,,,,0,0,2,,,0,,,61,65
219120,note_off,,,,,0,0,2,,,0,,,59,64
219120,note_off,,,,,240,0,2,,,0,,,56,64
219120,note_on,,,,,2,0,1,,,0,,,66,58
219180,set_tempo,,,,,540,1,0,454545,,,,,,
219198,note_off,,,,,78,0,1,,,0,,,66,64
219200,note_on,,,,,2,0,1,,,0,,,68,57
219278,note_off,,,,,78,0,1,,,0,,,68,64
219280,note_on,,,,,2,0,1,,,0,,,66,57
219320,set_tempo,,,,,140,1,0,472441,,,,,,
219358,note_off,,,,,78,0,1,,,0,,,66,64
219360,note_on,,,,,2,0,1,,,0,,,64,63
219360,note_off,,,,,240,0,2,,,0,,,57,64
219360,note_off,,,,,0,0,2,,,0,,,61,64
219360,note_on,,,,,0,0,2,,,0,,,59,60
219360,note_on,,,,,0,0,2,,,0,,,56,60
219438,note_off,,,,,78,0,1,,,0,,,64,64
219440,note_on,,,,,2,0,1,,,0,,,66,58
219518,note_off,,,,,78,0,1,,,0,,,66,64
219520,note_on,,,,,2,0,1,,,0,,,64,54
219540,set_tempo,,,,,220,1,0,483871,,,,,,
219598,note_off,,,,,78,0,1,,,0,,,64,64
219600,note_on,,,,,2,0,1,,,0,,,63,51
219600,note_on,,,,,0,0,2,,,0,,,54,49
219600,note_on,,,,,0,0,2,,,0,,,57,49
219600,note_off,,,,,0,0,2,,,0,,,59,64
219600,note_off,,,,,240,0,2,,,0,,,56,64
219678,note_off,,,,,78,0,1,,,0,,,63,64
219680,set_tempo,,,,,140,1,0,495868,,,,,,
219680,note_on,,,,,2,0,1,,,0,,,64,48
219720,set_tempo,,,,,40,1,0,504202,,,,,,
219758,note_off,,,,,78,0,1,,,0,,,64,64
219760,note_on,,,,,2,0,1,,,0,,,63,46
219780,set_tempo,,,,,60,1,0,1090909,,,,,,
219820,set_tempo,,,,,40,1,0,483871,,,,,,
219838,note_off,,,,,0,0,2,,,0,,,57,64
219838,note_off,,,,,238,0,2,,,0,,,54,64
219838,control_change,,,,,0,0,2,,,0,7,112,,
219838,note_off,,,,,78,0,1,,,0,,,63,64
219840,note_on,,,,,2,0,2,,,0,,,43,127
219840,note_on,,,,,2,0,1,,,0,,,88,120
219840,control_change,,,,,0,0,1,,,0,7,117,,
219848,control_change,,,,,8,0,1,,,0,64,95,,
219852,control_change,,,,,12,0,2,,,0,7,111,,
219868,control_change,,,,,16,0,2,,,0,7,110,,
219870,control_change,,,,,22,0,1,,,0,7,116,,
219882,control_change,,,,,14,0,2,,,0,7,109,,
219890,control_change,,,,,20,0,1,,,0,7,115,,
219898,control_change,,,,,16,0,2,,,0,7,108,,
219910,control_change,,,,,20,0,1,,,0,7,114,,
219912,control_change,,,,,14,0,2,,,0,7,107,,
219918,note_off,,,,,8,0,1,,,0,,,88,64
219920,note_on,,,,,2,0,1,,,0,,,83,115
219928,control_change,,,,,16,0,2,,,0,7,106,,
219930,control_change,,,,,10,0,1,,,0,7,113,,
219942,control_change,,,,,14,0,2,,,0,7,105,,
219958,control_change,,,,,16,0,2,,,0,7,104,,
219960,control_change,,,,,30,0,1,,,0,7,112,,
219972,control_change,,,,,14,0,2,,,0,7,103,,
219980,set_tempo,,,,,160,1,0,480000,,,,,,
219988,control_change,,,,,16,0,2,,,0,7,102,,
219990,control_change,,,,,30,0,1,,,0,7,111,,
219998,note_off,,,,,8,0,1,,,0,,,83,64
220000,note_on,,,,,2,0,1,,,0,,,79,108
220000,control_change,,,,,0,0,1,,,0,7,110,,
220002,control_change,,,,,14,0,2,,,0,7,101,,
220018,control_change,,,,,16,0,2,,,0,7,100,,
220020,set_tempo,,,,,40,1,0,476190,,,,,,
220030,control_change,,,,,30,0,1,,,0,7,109,,
220032,control_change,,,,,14,0,2,,,0,7,99,,
220040,control_change,,,,,10,0,1,,,0,7,108,,
220048,control_change,,,,,16,0,2,,,0,7,98,,
220060,set_tempo,,,,,40,1,0,472441,,,,,,
220062,control_change,,,,,14,0,2,,,0,7,97,,
220070,control_change,,,,,30,0,1,,,0,7,106,,
220078,note_off,,,,,8,0,1,,,0,,,79,64
220078,note_off,,,,,16,0,2,,,0,,,43,64
220078,control_change,,,,,0,0,2,,,0,7,96,,
220080,note_on,,,,,0,0,2,,,0,,,47,87
220080,note_on,,,,,2,0,1,,,0,,,76,100
220080,note_on,,,,,0,0,2,,,0,,,52,87
220080,note_on,,,,,2,0,2,,,0,,,55,87
220090,control_change,,,,,10,0,1,,,0,7,105,,
220092,control_change,,,,,12,0,2,,,0,7,95,,
220108,control_change,,,,,16,0,2,,,0,7,94,,
220110,control_change,,,,,20,0,1,,,0,7,104,,
220122,control_change,,,,,14,0,2,,,0,7,93,,
220130,control_change,,,,,20,0,1,,,0,7,103,,
220138,control_change,,,,,16,0,2,,,0,7,92,,
220140,set_tempo,,,,,80,1,0,468750,,,,,,
220150,control_change,,,,,20,0,1,,,0,7,102,,
220152,control_change,,,,,14,0,2,,,0,7,91,,
220158,note_off,,,,,8,0,1,,,0,,,76,64
220160,note_on,,,,,2,0,1,,,0,,,71,94
220160,control_change,,,,,0,0,1,,,0,7,101,,
220168,control_change,,,,,16,0,2,,,0,7,90,,
220170,control_change,,,,,10,0,1,,,0,7,100,,
220180,set_tempo,,,,,40,1,0,465116,,,,,,
220182,control_change,,,,,14,0,2,,,0,7,89,,
220190,control_change,,,,,20,0,1,,,0,7,99,,
220198,control_change,,,,,16,0,2,,,0,7,88,,
220200,control_change,,,,,10,0,1,,,0,7,98,,
220212,control_change,,,,,14,0,2,,,0,7,87,,
220220,set_tempo,,,,,40,1,0,461538,,,,,,
220228,control_change,,,,,16,0,2,,,0,7,86,,
220230,control_change,,,,,30,0,1,,,0,7,97,,
220238,note_off,,,,,8,0,1,,,0,,,71,64
220238,note_off,,,,,0,0,2,,,0,,,52,64
220238,note_off,,,,,0,0,2,,,0,,,55,64
220238,note_off,,,,,10,0,2,,,0,,,47,64
220240,note_on,,,,,2,0,1,,,0,,,67,89
220240,control_change,,,,,0,0,1,,,0,7,96,,
220242,control_change,,,,,4,0,2,,,0,7,85,,
220258,control_change,,,,,16,0,2,,,0,7,84,,
220270,control_change,,,,,30,0,1,,,0,7,95,,
220272,control_change,,,,,14,0,2,,,0,7,83,,
220278,control_change,,,,,8,0,1,,,0,64,0,,
220280,control_change,,,,,2,0,1,,,0,7,94,,
220288,control_change,,,,,16,0,2,,,0,7,82,,
220302,control_change,,,,,14,0,2,,,0,7,81,,
220318,control_change,,,,,16,0,2,,,0,7,80,,
220318,note_off,,,,,38,0,1,,,0,,,67,64
220320,note_on,,,,,2,0,1,,,0,,,84,84
220320,note_on,,,,,2,0,2,,,0,,,45,127
220328,control_change,,,,,8,0,1,,,0,64,95,,
220332,control_change,,,,,4,0,1,,,0,7,111,,
220332,control_change,,,,,12,0,2,,,0,7,111,,
220340,set_tempo,,,,,120,1,0,458015,,,,,,
220348,control_change,,,,,16,0,1,,,0,7,110,,
220348,control_change,,,,,16,0,2,,,0,7,110,,
220362,control_change,,,,,14,0,1,,,0,7,109,,
220362,control_change,,,,,14,0,2,,,0,7,109,,
220378,control_change,,,,,16,0,1,,,0,7,108,,
220378,control_change,,,,,16,0,2,,,0,7,108,,
220392,control_change,,,,,14,0,1,,,0,7,107,,
220392,control_change,,,,,14,0,2,,,0,7,107,,
220398,note_off,,,,,6,0,1,,,0,,,84,64
220400,note_on,,,,,2,0,1,,,0,,,81,115
220408,control_change,,,,,16,0,2,,,0,7,106,,
220408,control_change,,,,,8,0,1,,,0,7,106,,
220420,set_tempo,,,,,80,1,0,451128,,,,,,
220422,control_change,,,,,14,0,2,,,0,7,105,,
220422,control_change,,,,,14,0,1,,,0,7,105,,
220438,control_change,,,,,16,0,2,,,0,7,104,,
220438,control_change,,,,,16,0,1,,,0,7,104,,
220452,control_change,,,,,14,0,2,,,0,7,103,,
220452,control_change,,,,,14,0,1,,,0,7,103,,
220468,control_change,,,,,16,0,1,,,0,7,102,,
220468,control_change,,,,,16,0,2,,,0,7,102,,
220478,note_off,,,,,10,0,1,,,0,,,81,64
220480,note_on,,,,,2,0,1,,,0,,,76,108
220482,control_change,,,,,14,0,2,,,0,7,101,,
220482,control_change,,,,,2,0,1,,,0,7,101,,
220498,control_change,,,,,16,0,2,,,0,7,100,,
220498,control_change,,,,,16,0,1,,,0,7,100,,
220512,control_change,,,,,14,0,1,,,0,7,99,,
220512,control_change,,,,,14,0,2,,,0,7,99,,
220520,set_tempo,,,,,100,1,0,447761,,,,,,
220528,control_change,,,,,16,0,2,,,0,7,98,,
220528,control_change,,,,,16,0,1,,,0,7,98,,
220542,control_change,,,,,14,0,2,,,0,7,97,,
220542,control_change,,,,,14,0,1,,,0,7,97,,
220558,note_off,,,,,16,0,2,,,0,,,45,64
220558,control_change,,,,,0,0,1,,,0,7,96,,
220558,note_off,,,,,16,0,1,,,0,,,76,64
220558,control_change,,,,,0,0,2,,,0,7,96,,
220560,note_on,,,,,2,0,1,,,0,,,72,100
220560,note_on,,,,,2,0,2,,,0,,,57,87
220560,note_on,,,,,0,0,2,,,0,,,52,87
220560,note_on,,,,,0,0,2,,,0,,,48,87
220572,control_change,,,,,12,0,2,,,0,7,95,,
220572,control_change,,,,,12,0,1,,,0,7,95,,
220588,control_change,,,,,16,0,2,,,0,7,94,,
220588,control_change,,,,,16,0,1,,,0,7,94,,
220600,set_tempo,,,,,80,1,0,444444,,,,,,
220602,control_change,,,,,14,0,2,,,0,7,93,,
220602,control_change,,,,,14,0,1,,,0,7,93,,
220618,control_change,,,,,16,0,2,,,0,7,92,,
220618,control_change,,,,,16,0,1,,,0,7,92,,
220632,control_change,,,,,14,0,2,,,0,7,91,,
220632,control_change,,,,,14,0,1,,,0,7,91,,
220638,note_off,,,,,6,0,1,,,0,,,72,64
220640,note_on,,,,,2,0,1,,,0,,,69,94
220648,control_change,,,,,16,0,2,,,0,7,90,,
220648,control_change,,,,,8,0,1,,,0,7,90,,
220662,control_change,,,,,14,0,2,,,0,7,89,,
220662,control_change,,,,,14,0,1,,,0,7,89,,
220678,control_change,,,,,16,0,1,,,0,7,88,,
220678,control_change,,,,,16,0,2,,,0,7,88,,
220692,control_change,,,,,14,0,1,,,0,7,87,,
220692,control_change,,,,,14,0,2,,,0,7,87,,
220708,control_change,,,,,16,0,2,,,0,7,86,,
220708,control_change,,,,,16,0,1,,,0,7,86,,
220718,note_off,,,,,10,0,1,,,0,,,69,64
220718,note_off,,,,,0,0,2,,,0,,,52,64
220718,note_off,,,,,10,0,2,,,0,,,48,64
220718,note_off,,,,,0,0,2,,,0,,,57,64
220720,set_tempo,,,,,120,1,0,441176,,,,,,
220720,note_on,,,,,2,0,1,,,0,,,64,89
220722,control_change,,,,,4,0,2,,,0,7,85,,
220722,control_change,,,,,2,0,1,,,0,7,85,,
220738,control_change,,,,,16,0,2,,,0,7,84,,
220738,control_change,,,,,16,0,1,,,0,7,84,,
220752,control_change,,,,,14,0,1,,,0,7,83,,
220752,control_change,,,,,14,0,2,,,0,7,83,,
220758,control_change,,,,,6,0,1,,,0,64,0,,
220760,set_tempo,,,,,40,1,0,437956,,,,,,
220768,control_change,,,,,10,0,1,,,0,7,82,,
220768,control_change,,,,,16,0,2,,,0,7,82,,
220782,control_change,,,,,14,0,1,,,0,7,81,,
220782,control_change,,,,,14,0,2,,,0,7,81,,
220798,note_off,,,,,16,0,1,,,0,,,64,64
220798,control_change,,,,,0,0,1,,,0,7,80,,
220798,control_change,,,,,16,0,2,,,0,7,80,,
220800,note_on,,,,,2,0,2,,,0,,,47,127
220800,note_on,,,,,2,0,1,,,0,,,83,84
220808,control_change,,,,,8,0,1,,,0,64,95,,
220812,control_change,,,,,12,0,2,,,0,7,111,,
220812,control_change,,,,,4,0,1,,,0,7,111,,
220828,control_change,,,,,16,0,2,,,0,7,110,,
220828,control_change,,,,,16,0,1,,,0,7,110,,
220842,control_change,,,,,14,0,2,,,0,7,109,,
220842,control_change,,,,,14,0,1,,,0,7,109,,
220858,control_change,,,,,16,0,1,,,0,7,108,,
220858,control_change,,,,,16,0,2,,,0,7,108,,
220872,control_change,,,,,14,0,2,,,0,7,107,,
220872,control_change,,,,,14,0,1,,,0,7,107,,
220878,note_off,,,,,6,0,1,,,0,,,83,64
220880,note_on,,,,,2,0,1,,,0,,,79,115
220888,control_change,,,,,16,0,2,,,0,7,106,,
220888,control_change,,,,,8,0,1,,,0,7,106,,
220902,control_change,,,,,14,0,1,,,0,7,105,,
220902,control_change,,,,,14,0,2,,,0,7,105,,
220918,control_change,,,,,16,0,2,,,0,7,104,,
220918,control_change,,,,,16,0,1,,,0,7,104,,
220932,control_change,,,,,14,0,1,,,0,7,103,,
220932,control_change,,,,,14,0,2,,,0,7,103,,
220940,set_tempo,,,,,180,1,0,434783,,,,,,
220948,control_change,,,,,16,0,1,,,0,7,102,,
220948,control_change,,,,,16,0,2,,,0,7,102,,
220958,note_off,,,,,10,0,1,,,0,,,79,64
220960,note_on,,,,,2,0,1,,,0,,,76,108
220962,control_change,,,,,2,0,1,,,0,7,101,,
220962,control_change,,,,,14,0,2,,,0,7,101,,
220978,control_change,,,,,16,0,2,,,0,7,100,,
220978,control_change,,,,,16,0,1,,,0,7,100,,
220992,control_change,,,,,14,0,1,,,0,7,99,,
220992,control_change,,,,,14,0,2,,,0,7,99,,
221008,control_change,,,,,16,0,2,,,0,7,98,,
221008,control_change,,,,,16,0,1,,,0,7,98,,
221022,control_change,,,,,14,0,1,,,0,7,97,,
221022,control_change,,,,,14,0,2,,,0,7,97,,
221038,note_off,,,,,16,0,1,,,0,,,76,64
221038,control_change,,,,,0,0,1,,,0,7,96,,
221038,control_change,,,,,0,0,2,,,0,7,96,,
221038,note_off,,,,,16,0,2,,,0,,,47,64
221040,set_tempo,,,,,100,1,0,431655,,,,,,
221040,note_on,,,,,2,0,2,,,0,,,59,87
221040,note_on,,,,,0,0,2,,,0,,,55,87
221040,note_on,,,,,0,0,2,,,0,,,52,87
221040,note_on,,,,,2,0,1,,,0,,,71,100
221052,control_change,,,,,12,0,1,,,0,7,95,,
221052,control_change,,,,,12,0,2,,,0,7,95,,
221068,control_change,,,,,16,0,1,,,0,7,94,,
221068,control_change,,,,,16,0,2,,,0,7,94,,
221082,control_change,,,,,14,0,1,,,0,7,93,,
221082,control_change,,,,,14,0,2,,,0,7,93,,
221098,control_change,,,,,16,0,2,,,0,7,92,,
221098,control_change,,,,,16,0,1,,,0,7,92,,
221112,control_change,,,,,14,0,1,,,0,7,91,,
221112,control_change,,,,,14,0,2,,,0,7,91,,
221118,note_off,,,,,6,0,1,,,0,,,71,64
221120,note_on,,,,,2,0,1,,,0,,,67,94
221128,control_change,,,,,8,0,1,,,0,7,90,,
221128,control_change,,,,,16,0,2,,,0,7,90,,
221142,control_change,,,,,14,0,1,,,0,7,89,,
221142,control_change,,,,,14,0,2,,,0,7,89,,
221158,control_change,,,,,16,0,2,,,0,7,88,,
221158,control_change,,,,,16,0,1,,,0,7,88,,
221160,set_tempo,,,,,120,1,0,428571,,,,,,
221172,control_change,,,,,14,0,2,,,0,7,87,,
221172,control_change,,,,,14,0,1,,,0,7,87,,
221188,control_change,,,,,16,0,2,,,0,7,86,,
221188,control_change,,,,,16,0,1,,,0,7,86,,
221198,note_off,,,,,10,0,2,,,0,,,52,64
221198,note_off,,,,,0,0,2,,,0,,,59,64
221198,note_off,,,,,10,0,1,,,0,,,67,64
221198,note_off,,,,,0,0,2,,,0,,,55,64
221200,note_on,,,,,2,0,1,,,0,,,64,89
221200,set_tempo,,,,,40,1,0,425532,,,,,,
221202,control_change,,,,,4,0,2,,,0,7,85,,
221202,control_change,,,,,2,0,1,,,0,7,85,,
221218,control_change,,,,,16,0,2,,,0,7,84,,
221218,control_change,,,,,16,0,1,,,0,7,84,,
221232,control_change,,,,,14,0,2,,,0,7,83,,
221232,control_change,,,,,14,0,1,,,0,7,83,,
221238,control_change,,,,,6,0,1,,,0,64,0,,
221248,control_change,,,,,16,0,2,,,0,7,82,,
221248,control_change,,,,,10,0,1,,,0,7,82,,
221262,control_change,,,,,14,0,1,,,0,7,81,,
221262,control_change,,,,,14,0,2,,,0,7,81,,
221278,control_change,,,,,0,0,1,,,0,7,80,,
221278,control_change,,,,,16,0,2,,,0,7,80,,
221278,note_off,,,,,16,0,1,,,0,,,64,64
221280,note_on,,,,,2,0,1,,,0,,,83,84
221280,note_on,,,,,2,0,2,,,0,,,47,127
221288,control_change,,,,,8,0,1,,,0,64,95,,
221292,control_change,,,,,12,0,2,,,0,7,111,,
221292,control_change,,,,,4,0,1,,,0,7,111,,
221300,set_tempo,,,,,100,1,0,422535,,,,,,
221308,control_change,,,,,16,0,1,,,0,7,110,,
221308,control_change,,,,,16,0,2,,,0,7,110,,
221322,control_change,,,,,14,0,1,,,0,7,109,,
221322,control_change,,,,,14,0,2,,,0,7,109,,
221338,control_change,,,,,16,0,2,,,0,7,108,,
221338,control_change,,,,,16,0,1,,,0,7,108,,
221352,control_change,,,,,14,0,1,,,0,7,107,,
221352,control_change,,,,,14,0,2,,,0,7,107,,
221358,note_off,,,,,6,0,1,,,0,,,83,64
221360,note_on,,,,,2,0,1,,,0,,,78,115
221368,control_change,,,,,16,0,2,,,0,7,106,,
221368,control_change,,,,,8,0,1,,,0,7,106,,
221382,control_change,,,,,14,0,1,,,0,7,105,,
221382,control_change,,,,,14,0,2,,,0,7,105,,
221398,control_change,,,,,16,0,2,,,0,7,104,,
221398,control_change,,,,,16,0,1,,,0,7,104,,
221412,control_change,,,,,14,0,2,,,0,7,103,,
221412,control_change,,,,,14,0,1,,,0,7,103,,
221420,set_tempo,,,,,120,1,0,425532,,,,,,
221428,control_change,,,,,16,0,2,,,0,7,102,,
221428,control_change,,,,,16,0,1,,,0,7,102,,
221438,note_off,,,,,10,0,1,,,0,,,78,64
221440,note_on,,,,,2,0,1,,,0,,,75,94
221440,set_tempo,,,,,20,1,0,431655,,,,,,
221442,control_change,,,,,14,0,2,,,0,7,101,,
221442,control_change,,,,,2,0,1,,,0,7,101,,
221458,control_change,,,,,16,0,1,,,0,7,100,,
221458,control_change,,,,,16,0,2,,,0,7,100,,
221472,control_change,,,,,14,0,2,,,0,7,99,,
221472,control_change,,,,,14,0,1,,,0,7,99,,
221488,control_change,,,,,16,0,1,,,0,7,98,,
221488,control_change,,,,,16,0,2,,,0,7,98,,
221500,set_tempo,,,,,60,1,0,437956,,,,,,
221502,control_change,,,,,14,0,2,,,0,7,97,,
221502,control_change,,,,,14,0,1,,,0,7,97,,
221518,note_off,,,,,16,0,2,,,0,,,47,64
221518,note_off,,,,,16,0,1,,,0,,,75,64
221518,control_change,,,,,0,0,1,,,0,7,96,,
221518,control_change,,,,,0,0,2,,,0,7,96,,
221520,note_on,,,,,2,0,1,,,0,,,71,96
221520,set_tempo,,,,,20,1,0,441176,,,,,,
221520,note_on,,,,,2,0,2,,,0,,,59,87
221520,note_on,,,,,0,0,2,,,0,,,54,87
221520,note_on,,,,,0,0,2,,,0,,,51,87
221532,control_change,,,,,12,0,2,,,0,7,95,,
221532,control_change,,,,,12,0,1,,,0,7,95,,
221548,control_change,,,,,16,0,2,,,0,7,94,,
221548,control_change,,,,,16,0,1,,,0,7,94,,
221560,set_tempo,,,,,40,1,0,447761,,,,,,
221562,control_change,,,,,14,0,2,,,0,7,93,,
221562,control_change,,,,,14,0,1,,,0,7,93,,
221578,control_change,,,,,16,0,2,,,0,7,92,,
221578,control_change,,,,,16,0,1,,,0,7,92,,
221580,set_tempo,,,,,20,1,0,451128,,,,,,
221592,control_change,,,,,14,0,1,,,0,7,91,,
221592,control_change,,,,,14,0,2,,,0,7,91,,
221598,note_off,,,,,6,0,1,,,0,,,71,64
221600,note_on,,,,,2,0,1,,,0,,,66,99
221600,set_tempo,,,,,20,1,0,454545,,,,,,
221608,control_change,,,,,8,0,1,,,0,7,90,,
221608,control_change,,,,,16,0,2,,,0,7,90,,
221620,set_tempo,,,,,20,1,0,458015,,,,,,
221622,control_change,,,,,14,0,2,,,0,7,89,,
221622,control_change,,,,,14,0,1,,,0,7,89,,
221638,control_change,,,,,16,0,2,,,0,7,88,,
221638,control_change,,,,,16,0,1,,,0,7,88,,
221652,control_change,,,,,14,0,2,,,0,7,87,,
221652,control_change,,,,,14,0,1,,,0,7,87,,
221668,control_change,,,,,16,0,2,,,0,7,86,,
221668,control_change,,,,,16,0,1,,,0,7,86,,
221678,note_off,,,,,10,0,2,,,0,,,51,64
221678,note_off,,,,,0,0,2,,,0,,,54,64
221678,note_off,,,,,10,0,1,,,0,,,66,64
221678,note_off,,,,,0,0,2,,,0,,,59,64
221680,note_on,,,,,2,0,1,,,0,,,63,100
221682,control_change,,,,,2,0,1,,,0,7,85,,
221682,control_change,,,,,4,0,2,,,0,7,85,,
221698,control_change,,,,,16,0,2,,,0,7,84,,
221698,control_change,,,,,16,0,1,,,0,7,84,,
221712,control_change,,,,,14,0,2,,,0,7,83,,
221712,control_change,,,,,14,0,1,,,0,7,83,,
221718,control_change,,,,,6,0,1,,,0,64,0,,
221728,control_change,,,,,16,0,2,,,0,7,82,,
221728,control_change,,,,,10,0,1,,,0,7,82,,
221742,control_change,,,,,14,0,2,,,0,7,81,,
221742,control_change,,,,,14,0,1,,,0,7,81,,
221758,control_change,,,,,16,0,2,,,0,7,80,,
221758,control_change,,,,,0,0,1,,,0,7,80,,
221758,note_off,,,,,16,0,1,,,0,,,63,64
221760,note_on,,,,,2,0,1,,,0,,,64,100
221768,control_change,,,,,8,0,1,,,0,64,95,,
221772,control_change,,,,,4,0,1,,,0,7,111,,
221772,control_change,,,,,14,0,2,,,0,7,111,,
221780,set_tempo,,,,,160,1,0,472441,,,,,,
221788,control_change,,,,,16,0,2,,,0,7,110,,
221788,control_change,,,,,16,0,1,,,0,7,110,,
221800,set_tempo,,,,,20,1,0,476190,,,,,,
221802,control_change,,,,,14,0,2,,,0,7,109,,
221802,control_change,,,,,14,0,1,,,0,7,109,,
221818,control_change,,,,,16,0,1,,,0,7,108,,
221818,control_change,,,,,16,0,2,,,0,7,108,,
221832,control_change,,,,,14,0,2,,,0,7,107,,
221832,control_change,,,,,14,0,1,,,0,7,107,,
221838,note_off,,,,,6,0,1,,,0,,,64,64
221840,note_on,,,,,2,0,1,,,0,,,59,90
221848,control_change,,,,,8,0,1,,,0,7,106,,
221848,control_change,,,,,16,0,2,,,0,7,106,,
221862,control_change,,,,,14,0,2,,,0,7,105,,
221862,control_change,,,,,14,0,1,,,0,7,105,,
221878,control_change,,,,,16,0,2,,,0,7,104,,
221878,control_change,,,,,16,0,1,,,0,7,104,,
221892,control_change,,,,,14,0,1,,,0,7,103,,
221892,control_change,,,,,14,0,2,,,0,7,103,,
221908,control_change,,,,,16,0,2,,,0,7,102,,
221908,control_change,,,,,16,0,1,,,0,7,102,,
221918,note_off,,,,,10,0,1,,,0,,,59,64
221920,note_on,,,,,2,0,1,,,0,,,55,86
221922,control_change,,,,,2,0,1,,,0,7,101,,
221922,control_change,,,,,14,0,2,,,0,7,101,,
221938,control_change,,,,,16,0,1,,,0,7,100,,
221938,control_change,,,,,16,0,2,,,0,7,100,,
221952,control_change,,,,,14,0,2,,,0,7,99,,
221952,control_change,,,,,14,0,1,,,0,7,99,,
221968,control_change,,,,,16,0,2,,,0,7,98,,
221968,control_change,,,,,16,0,1,,,0,7,98,,
221980,set_tempo,,,,,180,1,0,461538,,,,,,
221982,control_change,,,,,14,0,1,,,0,7,97,,
221982,control_change,,,,,14,0,2,,,0,7,97,,
221998,note_off,,,,,16,0,1,,,0,,,55,64
221998,control_change,,,,,0,0,1,,,0,7,96,,
221998,control_change,,,,,16,0,2,,,0,7,96,,
222000,set_tempo,,,,,20,1,0,465116,,,,,,
222000,note_on,,,,,2,0,1,,,0,,,52,77
222012,control_change,,,,,14,0,2,,,0,7,95,,
222012,control_change,,,,,12,0,1,,,0,7,95,,
222028,control_change,,,,,16,0,1,,,0,7,94,,
222028,control_change,,,,,16,0,2,,,0,7,94,,
222042,control_change,,,,,14,0,2,,,0,7,93,,
222042,control_change,,,,,14,0,1,,,0,7,93,,
222058,control_change,,,,,16,0,1,,,0,7,92,,
222058,control_change,,,,,16,0,2,,,0,7,92,,
222072,control_change,,,,,14,0,1,,,0,7,91,,
222072,control_change,,,,,14,0,2,,,0,7,91,,
222078,note_off,,,,,6,0,1,,,0,,,52,64
222080,note_on,,,,,8,0,2,,,0,,,47,77
222088,control_change,,,,,10,0,1,,,0,7,90,,
222088,control_change,,,,,8,0,2,,,0,7,90,,
222102,control_change,,,,,14,0,1,,,0,7,89,,
222102,control_change,,,,,14,0,2,,,0,7,89,,
222118,control_change,,,,,16,0,2,,,0,7,88,,
222118,control_change,,,,,16,0,1,,,0,7,88,,
222132,control_change,,,,,14,0,2,,,0,7,87,,
222132,control_change,,,,,14,0,1,,,0,7,87,,
222148,control_change,,,,,16,0,2,,,0,7,86,,
222148,control_change,,,,,16,0,1,,,0,7,86,,
222158,note_off,,,,,10,0,2,,,0,,,47,64
222160,note_on,,,,,2,0,2,,,0,,,43,72
222162,control_change,,,,,2,0,2,,,0,7,85,,
222162,control_change,,,,,14,0,1,,,0,7,85,,
222178,control_change,,,,,16,0,1,,,0,7,84,,
222178,control_change,,,,,16,0,2,,,0,7,84,,
222192,control_change,,,,,14,0,1,,,0,7,83,,
222192,control_change,,,,,14,0,2,,,0,7,83,,
222198,control_change,,,,,6,0,1,,,0,64,0,,
222208,control_change,,,,,10,0,1,,,0,7,82,,
222208,control_change,,,,,16,0,2,,,0,7,82,,
222222,control_change,,,,,14,0,2,,,0,7,81,,
222222,control_change,,,,,14,0,1,,,0,7,81,,
222238,note_off,,,,,16,0,2,,,0,,,43,64
222238,control_change,,,,,0,0,2,,,0,7,80,,
222238,control_change,,,,,16,0,1,,,0,7,80,,
222240,note_on,,,,,2,0,1,,,0,,,64,55
222240,note_on,,,,,0,0,1,,,0,,,71,55
222240,note_on,,,,,0,0,1,,,0,,,67,55
222240,note_on,,,,,2,0,2,,,0,,,40,67
222252,control_change,,,,,12,0,2,,,0,7,111,,
222268,control_change,,,,,16,0,2,,,0,7,110,,
222282,control_change,,,,,14,0,2,,,0,7,109,,
222298,control_change,,,,,16,0,2,,,0,7,108,,
222312,control_change,,,,,14,0,2,,,0,7,107,,
222318,note_off,,,,,6,0,2,,,0,,,40,64
222320,note_on,,,,,2,0,2,,,0,,,39,62
222328,control_change,,,,,8,0,2,,,0,7,106,,
222342,control_change,,,,,14,0,2,,,0,7,105,,
222358,control_change,,,,,16,0,2,,,0,7,104,,
222372,control_change,,,,,14,0,2,,,0,7,103,,
222388,control_change,,,,,16,0,2,,,0,7,102,,
222398,note_off,,,,,10,0,2,,,0,,,39,64
222400,note_on,,,,,2,0,2,,,0,,,40,59
222402,control_change,,,,,2,0,2,,,0,7,101,,
222418,control_change,,,,,16,0,2,,,0,7,100,,
222420,note_off,,,,,0,0,1,,,0,,,67,64
222420,note_off,,,,,0,0,1,,,0,,,64,64
222420,note_off,,,,,180,0,1,,,0,,,71,64
222432,control_change,,,,,14,0,2,,,0,7,99,,
222440,set_tempo,,,,,440,1,0,461538,,,,,,
222448,control_change,,,,,16,0,2,,,0,7,98,,
222462,control_change,,,,,14,0,2,,,0,7,97,,
222478,control_change,,,,,0,0,2,,,0,7,96,,
222478,note_off,,,,,16,0,2,,,0,,,40,64
222480,note_on,,,,,2,0,2,,,0,,,42,56
222480,note_on,,,,,60,0,1,,,0,,,63,51
222480,note_on,,,,,0,0,1,,,0,,,69,51
222480,note_on,,,,,0,0,1,,,0,,,71,51
222492,control_change,,,,,12,0,2,,,0,7,95,,
222508,control_change,,,,,16,0,2,,,0,7,94,,
222522,control_change,,,,,14,0,2,,,0,7,93,,
222538,control_change,,,,,16,0,2,,,0,7,92,,
222552,control_change,,,,,14,0,2,,,0,7,91,,
222558,note_off,,,,,6,0,2,,,0,,,42,64
222560,note_on,,,,,2,0,2,,,0,,,43,54
222568,control_change,,,,,8,0,2,,,0,7,90,,
222582,control_change,,,,,14,0,2,,,0,7,89,,
222598,control_change,,,,,16,0,2,,,0,7,88,,
222612,control_change,,,,,14,0,2,,,0,7,87,,
222628,control_change,,,,,16,0,2,,,0,7,86,,
222638,note_off,,,,,10,0,2,,,0,,,43,64
222640,note_on,,,,,2,0,2,,,0,,,42,58
222642,control_change,,,,,2,0,2,,,0,7,85,,
222658,control_change,,,,,16,0,2,,,0,7,84,,
222660,note_off,,,,,180,0,1,,,0,,,71,64
222660,note_off,,,,,0,0,1,,,0,,,69,64
222660,note_off,,,,,0,0,1,,,0,,,63,64
222672,control_change,,,,,14,0,2,,,0,7,83,,
222688,control_change,,,,,16,0,2,,,0,7,82,,
222700,set_tempo,,,,,260,1,0,458015,,,,,,
222702,control_change,,,,,14,0,2,,,0,7,81,,
222718,control_change,,,,,0,0,2,,,0,7,80,,
222718,note_off,,,,,16,0,2,,,0,,,42,64
222720,note_on,,,,,0,0,1,,,0,,,67,75
222720,note_on,,,,,60,0,1,,,0,,,64,75
222720,note_on,,,,,2,0,2,,,0,,,40,59
222720,note_on,,,,,0,0,1,,,0,,,71,75
222798,note_off,,,,,78,0,2,,,0,,,40,64
222800,note_on,,,,,2,0,2,,,0,,,39,53
222878,note_off,,,,,78,0,2,,,0,,,39,64
222880,note_on,,,,,2,0,2,,,0,,,40,59
222900,note_off,,,,,0,0,1,,,0,,,64,64
222900,note_off,,,,,0,0,1,,,0,,,67,64
222900,note_off,,,,,180,0,1,,,0,,,71,64
222920,set_tempo,,,,,220,1,0,454545,,,,,,
222958,note_off,,,,,78,0,2,,,0,,,40,64
222960,note_on,,,,,2,0,2,,,0,,,42,63
222960,note_on,,,,,0,0,1,,,0,,,71,69
222960,note_on,,,,,60,0,1,,,0,,,63,69
222960,note_on,,,,,0,0,1,,,0,,,69,69
223038,note_off,,,,,78,0,2,,,0,,,42,64
223040,note_on,,,,,2,0,2,,,0,,,43,67
223118,note_off,,,,,78,0,2,,,0,,,43,64
223120,note_on,,,,,2,0,2,,,0,,,42,72
223140,note_off,,,,,0,0,1,,,0,,,63,64
223140,note_off,,,,,0,0,1,,,0,,,69,64
223140,note_off,,,,,180,0,1,,,0,,,71,64
223198,note_off,,,,,78,0,2,,,0,,,42,64
223200,note_on,,,,,0,0,1,,,0,,,71,87
223200,note_on,,,,,60,0,1,,,0,,,64,87
223200,set_tempo,,,,,280,1,0,451128,,,,,,
223200,note_on,,,,,2,0,2,,,0,,,40,75
223200,note_on,,,,,0,0,1,,,0,,,67,87
223278,note_off,,,,,78,0,2,,,0,,,40,64
223280,note_on,,,,,2,0,2,,,0,,,42,75
223358,note_off,,,,,78,0,2,,,0,,,42,64
223360,note_on,,,,,2,0,2,,,0,,,40,78
223380,note_off,,,,,180,0,1,,,0,,,71,64
223380,note_off,,,,,0,0,1,,,0,,,67,64
223380,note_off,,,,,0,0,1,,,0,,,64,64
223400,set_tempo,,,,,200,1,0,447761,,,,,,
223438,note_off,,,,,78,0,2,,,0,,,40,64
223440,note_on,,,,,2,0,2,,,0,,,38,82
223440,note_on,,,,,0,0,1,,,0,,,71,81
223440,note_on,,,,,0,0,1,,,0,,,68,81
223440,note_on,,,,,60,0,1,,,0,,,65,81
223518,note_off,,,,,78,0,2,,,0,,,38,64
223520,note_on,,,,,2,0,2,,,0,,,40,86
223598,note_off,,,,,78,0,2,,,0,,,40,64
223600,note_on,,,,,2,0,2,,,0,,,38,91
223620,note_off,,,,,0,0,1,,,0,,,65,64
223620,note_off,,,,,180,0,1,,,0,,,71,64
223620,note_off,,,,,0,0,1,,,0,,,68,64
223678,note_off,,,,,78,0,2,,,0,,,38,64
223680,note_on,,,,,2,0,2,,,0,,,36,95
223680,set_tempo,,,,,280,1,0,444444,,,,,,
223680,note_on,,,,,60,0,1,,,0,,,64,98
223680,note_on,,,,,0,0,1,,,0,,,67,98
223680,note_on,,,,,0,0,1,,,0,,,72,98
223758,note_off,,,,,78,0,2,,,0,,,36,64
223760,note_on,,,,,2,0,2,,,0,,,40,89
223800,set_tempo,,,,,120,1,0,441176,,,,,,
223838,note_off,,,,,78,0,2,,,0,,,40,64
223840,note_on,,,,,2,0,2,,,0,,,43,84
223860,note_off,,,,,180,0,1,,,0,,,72,64
223860,note_off,,,,,0,0,1,,,0,,,67,64
223860,note_off,,,,,0,0,1,,,0,,,64,64
223918,note_off,,,,,78,0,2,,,0,,,43,64
223920,note_on,,,,,2,0,2,,,0,,,48,81
223960,set_tempo,,,,,160,1,0,437956,,,,,,
223998,note_off,,,,,78,0,2,,,0,,,48,64
224000,note_on,,,,,2,0,2,,,0,,,52,71
224078,note_off,,,,,78,0,2,,,0,,,52,64
224080,note_on,,,,,2,0,2,,,0,,,55,66
224158,note_off,,,,,78,0,2,,,0,,,55,64
224160,note_on,,,,,300,0,1,,,0,,,79,67
224160,note_on,,,,,0,0,1,,,0,,,76,67
224160,note_on,,,,,2,0,2,,,0,,,60,65
224160,note_on,,,,,0,0,1,,,0,,,72,67
224238,note_off,,,,,78,0,2,,,0,,,60,64
224240,note_on,,,,,2,0,2,,,0,,,62,63
224300,set_tempo,,,,,340,1,0,434783,,,,,,
224318,note_off,,,,,78,0,2,,,0,,,62,64
224320,note_on,,,,,2,0,2,,,0,,,60,63
224340,note_off,,,,,0,0,1,,,0,,,72,64
224340,note_off,,,,,180,0,1,,,0,,,76,64
224340,note_off,,,,,0,0,1,,,0,,,79,64
224398,note_off,,,,,78,0,2,,,0,,,60,64
224400,note_on,,,,,60,0,1,,,0,,,71,60
224400,note_on,,,,,2,0,2,,,0,,,59,63
224400,note_on,,,,,0,0,1,,,0,,,77,60
224400,note_on,,,,,0,0,1,,,0,,,79,60
224478,note_off,,,,,78,0,2,,,0,,,59,64
224480,note_on,,,,,2,0,2,,,0,,,57,66
224558,note_off,,,,,78,0,2,,,0,,,57,64
224560,note_on,,,,,2,0,2,,,0,,,59,70
224580,note_off,,,,,0,0,1,,,0,,,71,64
224580,note_off,,,,,0,0,1,,,0,,,77,64
224580,note_off,,,,,180,0,1,,,0,,,79,64
224580,set_tempo,,,,,280,1,0,431655,,,,,,
224638,note_off,,,,,78,0,2,,,0,,,59,64
224640,note_on,,,,,0,0,1,,,0,,,79,77
224640,note_on,,,,,0,0,1,,,0,,,76,77
224640,note_on,,,,,60,0,1,,,0,,,72,77
224640,note_on,,,,,2,0,2,,,0,,,60,72
224718,note_off,,,,,78,0,2,,,0,,,60,64
224720,note_on,,,,,2,0,2,,,0,,,62,78
224798,note_off,,,,,78,0,2,,,0,,,62,64
224800,note_on,,,,,2,0,2,,,0,,,60,82
224820,note_off,,,,,180,0,1,,,0,,,79,64
224820,note_off,,,,,0,0,1,,,0,,,76,64
224820,note_off,,,,,0,0,1,,,0,,,72,64
224878,note_off,,,,,78,0,2,,,0,,,60,64
224880,note_on,,,,,0,0,1,,,0,,,79,74
224880,note_on,,,,,60,0,1,,,0,,,74,74
224880,note_on,,,,,2,0,2,,,0,,,59,86
224880,note_on,,,,,0,0,1,,,0,,,77,74
224958,note_off,,,,,78,0,2,,,0,,,59,64
224960,note_on,,,,,2,0,2,,,0,,,57,91
224980,set_tempo,,,,,400,1,0,428571,,,,,,
225038,note_off,,,,,78,0,2,,,0,,,57,64
225040,note_on,,,,,2,0,2,,,0,,,59,96
225060,note_off,,,,,0,0,1,,,0,,,77,64
225060,note_off,,,,,0,0,1,,,0,,,74,64
225060,note_off,,,,,180,0,1,,,0,,,79,64
225118,note_off,,,,,78,0,2,,,0,,,59,64
225120,note_on,,,,,0,0,1,,,0,,,76,96
225120,note_on,,,,,0,0,1,,,0,,,79,96
225120,note_on,,,,,2,0,2,,,0,,,60,100
225120,note_on,,,,,60,0,1,,,0,,,72,96
225198,note_off,,,,,78,0,2,,,0,,,60,64
225200,note_on,,,,,2,0,2,,,0,,,62,106
225220,set_tempo,,,,,240,1,0,425532,,,,,,
225278,note_off,,,,,78,0,2,,,0,,,62,64
225280,note_on,,,,,2,0,2,,,0,,,60,109
225300,note_off,,,,,0,0,1,,,0,,,72,64
225300,note_off,,,,,0,0,1,,,0,,,76,64
225300,note_off,,,,,180,0,1,,,0,,,79,64
225358,note_off,,,,,78,0,2,,,0,,,60,64
225360,note_on,,,,,0,0,1,,,0,,,79,92
225360,note_on,,,,,60,0,1,,,0,,,76,92
225360,note_on,,,,,2,0,2,,,0,,,59,112
225438,note_off,,,,,78,0,2,,,0,,,59,64
225440,set_tempo,,,,,220,1,0,431655,,,,,,
225440,note_on,,,,,2,0,2,,,0,,,60,116
225518,note_off,,,,,78,0,2,,,0,,,60,64
225520,note_on,,,,,2,0,2,,,0,,,59,119
225540,note_off,,,,,0,0,1,,,0,,,76,64
225540,note_off,,,,,180,0,1,,,0,,,79,64
225598,note_off,,,,,78,0,2,,,0,,,59,64
225600,set_tempo,,,,,160,1,0,500000,,,,,,
225600,note_on,,,,,60,0,1,,,0,,,79,127
225600,note_on,,,,,2,0,2,,,0,,,58,122
225600,control_change,,,,,0,0,1,,,0,64,95,,
225660,set_tempo,,,,,60,1,0,425532,,,,,,
225678,note_off,,,,,78,0,1,,,0,,,79,64
225680,note_on,,,,,2,0,1,,,0,,,76,118
225758,note_off,,,,,78,0,1,,,0,,,76,64
225760,note_on,,,,,2,0,1,,,0,,,73,114
225838,note_off,,,,,78,0,1,,,0,,,73,64
225840,note_off,,,,,240,0,2,,,0,,,58,64
225840,note_on,,,,,2,0,1,,,0,,,67,110
225918,note_off,,,,,78,0,1,,,0,,,67,64
225920,note_on,,,,,2,0,1,,,0,,,64,104
225998,note_off,,,,,78,0,1,,,0,,,64,64
226000,note_on,,,,,2,0,1,,,0,,,61,98
226060,set_tempo,,,,,400,1,0,422535,,,,,,
226070,control_change,,,,,70,0,1,,,0,64,0,,
226078,note_off,,,,,8,0,1,,,0,,,61,64
226080,note_on,,,,,2,0,1,,,0,,,46,127
226080,note_on,,,,,0,0,1,,,0,,,88,127
226080,control_change,,,,,0,0,1,,,0,64,96,,
226100,set_tempo,,,,,40,1,0,500000,,,,,,
226160,set_tempo,,,,,60,1,0,422535,,,,,,
226200,note_on,,,,,0,0,1,,,0,,,49,114
226200,note_off,,,,,120,0,1,,,0,,,88,64
226200,note_off,,,,,0,0,1,,,0,,,46,64
226200,note_on,,,,,0,0,1,,,0,,,76,114
226260,control_change,,,,,60,0,1,,,0,64,0,,
226290,note_off,,,,,30,0,1,,,0,,,49,64
226290,note_off,,,,,0,0,1,,,0,,,76,64
226320,note_on,,,,,30,0,1,,,0,,,49,123
226320,note_on,,,,,0,0,1,,,0,,,76,123
226320,note_on,,,,,0,0,1,,,0,,,79,123
226320,control_change,,,,,0,0,1,,,0,64,95,,
226440,note_on,,,,,0,0,1,,,0,,,61,105
226440,note_off,,,,,0,0,1,,,0,,,76,64
226440,note_off,,,,,0,0,1,,,0,,,49,64
226440,note_on,,,,,0,0,1,,,0,,,67,105
226440,note_off,,,,,120,0,1,,,0,,,79,64
226500,control_change,,,,,60,0,1,,,0,64,0,,
226530,note_off,,,,,30,0,1,,,0,,,67,64
226530,note_off,,,,,0,0,1,,,0,,,61,64
226560,note_on,,,,,30,0,1,,,0,,,79,127
226560,control_change,,,,,0,0,1,,,0,64,95,,
226638,note_off,,,,,78,0,1,,,0,,,79,64
226640,note_on,,,,,2,0,1,,,0,,,76,118
226718,note_off,,,,,78,0,1,,,0,,,76,64
226720,note_on,,,,,2,0,1,,,0,,,71,114
226720,set_tempo,,,,,560,1,0,419580,,,,,,
226798,note_off,,,,,78,0,1,,,0,,,71,64
226800,note_on,,,,,2,0,1,,,0,,,67,110
226860,set_tempo,,,,,140,1,0,416667,,,,,,
226878,note_off,,,,,78,0,1,,,0,,,67,64
226880,note_on,,,,,2,0,1,,,0,,,64,104
226958,note_off,,,,,78,0,1,,,0,,,64,64
226960,note_on,,,,,2,0,1,,,0,,,59,99
227030,control_change,,,,,70,0,1,,,0,64,0,,
227040,note_on,,,,,0,0,1,,,0,,,88,127
227040,note_off,,,,,10,0,1,,,0,,,59,64
227040,control_change,,,,,0,0,1,,,0,64,96,,
227040,note_on,,,,,0,0,1,,,0,,,46,127
227160,note_off,,,,,120,0,1,,,0,,,88,64
227160,note_off,,,,,0,0,1,,,0,,,46,64
227160,note_on,,,,,0,0,1,,,0,,,47,114
227160,note_on,,,,,0,0,1,,,0,,,76,114
227220,control_change,,,,,60,0,1,,,0,64,0,,
227250,note_off,,,,,30,0,1,,,0,,,76,64
227250,note_off,,,,,0,0,1,,,0,,,47,64
227280,note_on,,,,,30,0,1,,,0,,,47,123
227280,note_on,,,,,0,0,1,,,0,,,76,123
227280,note_on,,,,,0,0,1,,,0,,,79,123
227280,control_change,,,,,0,0,1,,,0,64,95,,
227400,note_on,,,,,0,0,1,,,0,,,67,105
227400,note_on,,,,,0,0,1,,,0,,,59,105
227400,note_off,,,,,120,0,1,,,0,,,79,64
227400,note_off,,,,,0,0,1,,,0,,,76,64
227400,note_off,,,,,0,0,1,,,0,,,47,64
227460,control_change,,,,,60,0,1,,,0,64,0,,
227490,note_off,,,,,30,0,1,,,0,,,67,64
227490,note_off,,,,,0,0,1,,,0,,,59,64
227500,set_tempo,,,,,640,1,0,410959,,,,,,
227520,note_on,,,,,30,0,1,,,0,,,79,127
227520,control_change,,,,,0,0,1,,,0,64,95,,
227598,note_off,,,,,78,0,1,,,0,,,79,64
227600,note_on,,,,,2,0,1,,,0,,,76,118
227678,note_off,,,,,78,0,1,,,0,,,76,64
227680,note_on,,,,,2,0,1,,,0,,,69,114
227758,note_off,,,,,78,0,1,,,0,,,69,64
227760,note_on,,,,,2,0,1,,,0,,,69,110
227838,note_off,,,,,78,0,1,,,0,,,69,64
227840,note_on,,,,,2,0,1,,,0,,,67,104
227880,set_tempo,,,,,380,1,0,408163,,,,,,
227918,note_off,,,,,78,0,1,,,0,,,67,64
227920,note_on,,,,,2,0,1,,,0,,,64,99
227990,control_change,,,,,70,0,1,,,0,64,0,,
228000,note_on,,,,,0,0,1,,,0,,,88,127
228000,control_change,,,,,0,0,1,,,0,64,96,,
228000,note_on,,,,,0,0,1,,,0,,,47,127
228000,note_off,,,,,10,0,1,,,0,,,64,64
228120,note_off,,,,,120,0,1,,,0,,,88,64
228120,note_off,,,,,0,0,1,,,0,,,47,64
228120,note_on,,,,,0,0,1,,,0,,,48,114
228120,note_on,,,,,0,0,1,,,0,,,76,114
228180,control_change,,,,,60,0,1,,,0,64,0,,
228210,note_off,,,,,30,0,1,,,0,,,76,64
228210,note_off,,,,,0,0,1,,,0,,,48,64
228240,note_on,,,,,0,0,1,,,0,,,48,123
228240,note_on,,,,,30,0,1,,,0,,,81,123
228240,note_on,,,,,0,0,1,,,0,,,76,123
228240,note_on,,,,,0,0,1,,,0,,,79,123
228240,control_change,,,,,0,0,1,,,0,64,95,,
228260,set_tempo,,,,,380,1,0,405405,,,,,,
228360,note_off,,,,,120,0,1,,,0,,,79,64
228360,note_off,,,,,0,0,1,,,0,,,76,64
228360,note_off,,,,,0,0,1,,,0,,,48,64
228360,note_off,,,,,0,0,1,,,0,,,81,64
228360,note_on,,,,,0,0,1,,,0,,,69,105
228360,note_on,,,,,0,0,1,,,0,,,60,105
228420,control_change,,,,,60,0,1,,,0,64,0,,
228450,note_off,,,,,0,0,1,,,0,,,69,64
228450,note_off,,,,,30,0,1,,,0,,,60,64
228480,note_on,,,,,30,0,1,,,0,,,47,127
228480,note_on,,,,,0,0,1,,,0,,,88,127
228480,control_change,,,,,0,0,1,,,0,64,96,,
228560,set_tempo,,,,,300,1,0,402685,,,,,,
228600,note_off,,,,,120,0,1,,,0,,,88,64
228600,note_off,,,,,0,0,1,,,0,,,47,64
228600,note_on,,,,,0,0,1,,,0,,,48,114
228600,note_on,,,,,0,0,1,,,0,,,76,114
228660,control_change,,,,,60,0,1,,,0,64,0,,
228690,note_off,,,,,30,0,1,,,0,,,76,64
228690,note_off,,,,,0,0,1,,,0,,,48,64
228720,control_change,,,,,0,0,1,,,0,64,95,,
228720,note_on,,,,,0,0,1,,,0,,,48,123
228720,note_on,,,,,0,0,1,,,0,,,76,123
228720,note_on,,,,,30,0,1,,,0,,,81,123
228720,note_on,,,,,0,0,1,,,0,,,79,123
228840,note_off,,,,,120,0,1,,,0,,,79,64
228840,note_off,,,,,0,0,1,,,0,,,76,64
228840,note_off,,,,,0,0,1,,,0,,,48,64
228840,note_off,,,,,0,0,1,,,0,,,81,64
228840,note_on,,,,,0,0,1,,,0,,,69,105
228840,note_on,,,,,0,0,1,,,0,,,60,105
228930,note_off,,,,,90,0,1,,,0,,,60,64
228930,note_off,,,,,0,0,1,,,0,,,69,64
228958,control_change,,,,,28,0,1,,,0,64,0,,
228960,note_on,,,,,0,0,1,,,0,,,88,127
228960,note_on,,,,,2,0,1,,,0,,,48,127
228960,control_change,,,,,0,0,1,,,0,64,96,,
229080,note_off,,,,,120,0,1,,,0,,,88,64
229080,note_off,,,,,0,0,1,,,0,,,48,64
229080,note_on,,,,,0,0,1,,,0,,,49,114
229080,note_on,,,,,0,0,1,,,0,,,76,114
229140,control_change,,,,,60,0,1,,,0,64,0,,
229170,note_off,,,,,30,0,1,,,0,,,76,64
229170,note_off,,,,,0,0,1,,,0,,,49,64
229200,note_on,,,,,0,0,1,,,0,,,79,123
229200,control_change,,,,,0,0,1,,,0,64,95,,
229200,note_on,,,,,0,0,1,,,0,,,76,123
229200,note_on,,,,,0,0,1,,,0,,,81,123
229200,note_on,,,,,30,0,1,,,0,,,49,123
229320,note_off,,,,,120,0,1,,,0,,,79,64
229320,note_off,,,,,0,0,1,,,0,,,76,64
229320,note_off,,,,,0,0,1,,,0,,,81,64
229320,note_off,,,,,0,0,1,,,0,,,49,64
229320,note_on,,,,,0,0,1,,,0,,,61,105
229320,note_on,,,,,0,0,1,,,0,,,69,105
229380,control_change,,,,,60,0,1,,,0,64,0,,
229410,note_off,,,,,30,0,1,,,0,,,69,64
229410,note_off,,,,,0,0,1,,,0,,,61,64
229440,control_change,,,,,0,0,1,,,0,64,96,,
229440,note_on,,,,,0,0,1,,,0,,,49,127
229440,control_change,,,,,30,0,1,,,0,7,80,,
229440,note_on,,,,,0,0,1,,,0,,,90,127
229528,control_change,,,,,88,0,1,,,0,7,81,,
229560,note_off,,,,,32,0,1,,,0,,,90,64
229560,note_off,,,,,0,0,1,,,0,,,49,64
229560,note_on,,,,,0,0,1,,,0,,,50,114
229560,note_on,,,,,0,0,1,,,0,,,78,114
229618,control_change,,,,,58,0,1,,,0,7,82,,
229620,control_change,,,,,2,0,1,,,0,64,0,,
229650,note_off,,,,,30,0,1,,,0,,,78,64
229650,note_off,,,,,0,0,1,,,0,,,50,64
229680,control_change,,,,,0,0,1,,,0,64,95,,
229680,note_on,,,,,0,0,1,,,0,,,81,123
229680,note_on,,,,,0,0,1,,,0,,,50,123
229680,note_on,,,,,0,0,1,,,0,,,78,123
229680,note_on,,,,,30,0,1,,,0,,,83,123
229708,control_change,,,,,28,0,1,,,0,7,83,,
229798,control_change,,,,,90,0,1,,,0,7,84,,
229800,note_on,,,,,0,0,1,,,0,,,71,105
229800,note_on,,,,,0,0,1,,,0,,,62,105
229800,note_off,,,,,0,0,1,,,0,,,83,64
229800,note_off,,,,,0,0,1,,,0,,,50,64
229800,note_off,,,,,2,0,1,,,0,,,81,64
229800,note_off,,,,,0,0,1,,,0,,,78,64
229860,set_tempo,,,,,1300,1,0,431655,,,,,,
229888,control_change,,,,,88,0,1,,,0,7,85,,
229890,note_off,,,,,2,0,1,,,0,,,62,64
229890,note_off,,,,,0,0,1,,,0,,,71,64
229918,control_change,,,,,28,0,1,,,0,64,0,,
229920,control_change,,,,,0,0,1,,,0,64,96,,
229920,note_on,,,,,0,0,1,,,0,,,46,127
229920,set_tempo,,,,,60,1,0,400000,,,,,,
229920,note_on,,,,,2,0,1,,,0,,,87,127
229978,control_change,,,,,58,0,1,,,0,7,86,,
230040,note_on,,,,,0,0,1,,,0,,,75,114
230040,note_on,,,,,0,0,1,,,0,,,47,114
230040,note_off,,,,,62,0,1,,,0,,,46,64
230040,note_off,,,,,0,0,1,,,0,,,87,64
230068,control_change,,,,,28,0,1,,,0,7,87,,
230100,control_change,,,,,32,0,1,,,0,64,0,,
230130,note_off,,,,,30,0,1,,,0,,,47,64
230130,note_off,,,,,0,0,1,,,0,,,75,64
230158,control_change,,,,,28,0,1,,,0,7,88,,
230160,note_on,,,,,2,0,1,,,0,,,75,123
230160,note_on,,,,,0,0,1,,,0,,,47,123
230160,note_on,,,,,0,0,1,,,0,,,83,123
230160,control_change,,,,,0,0,1,,,0,64,95,,
230160,note_on,,,,,0,0,1,,,0,,,78,123
230248,control_change,,,,,88,0,1,,,0,7,89,,
230280,note_off,,,,,32,0,1,,,0,,,78,64
230280,note_off,,,,,0,0,1,,,0,,,83,64
230280,note_off,,,,,0,0,1,,,0,,,47,64
230280,note_off,,,,,0,0,1,,,0,,,75,64
230280,note_on,,,,,0,0,1,,,0,,,59,105
230280,note_on,,,,,0,0,1,,,0,,,71,105
230338,control_change,,,,,58,0,1,,,0,7,90,,
230340,set_tempo,,,,,420,1,0,447761,,,,,,
230340,control_change,,,,,2,0,1,,,0,64,0,,
230370,note_off,,,,,0,0,1,,,0,,,59,64
230370,note_off,,,,,30,0,1,,,0,,,71,64
230400,control_change,,,,,0,0,1,,,0,64,96,,
230400,note_on,,,,,0,0,1,,,0,,,88,127
230400,note_on,,,,,30,0,1,,,0,,,42,127
230428,control_change,,,,,28,0,1,,,0,7,91,,
230440,set_tempo,,,,,100,1,0,397351,,,,,,
230518,control_change,,,,,90,0,1,,,0,7,92,,
230520,note_off,,,,,2,0,1,,,0,,,88,64
230520,note_off,,,,,0,0,1,,,0,,,42,64
230520,note_on,,,,,0,0,1,,,0,,,43,114
230520,note_on,,,,,0,0,1,,,0,,,76,114
230580,control_change,,,,,60,0,1,,,0,64,0,,
230608,control_change,,,,,28,0,1,,,0,7,93,,
230610,note_off,,,,,0,0,1,,,0,,,43,64
230610,note_off,,,,,2,0,1,,,0,,,76,64
230640,note_on,,,,,30,0,1,,,0,,,43,123
230640,note_on,,,,,0,0,1,,,0,,,83,123
230640,note_on,,,,,0,0,1,,,0,,,76,123
230640,note_on,,,,,0,0,1,,,0,,,79,123
230640,control_change,,,,,0,0,1,,,0,64,95,,
230698,control_change,,,,,58,0,1,,,0,7,94,,
230760,note_on,,,,,0,0,1,,,0,,,55,105
230760,note_on,,,,,0,0,1,,,0,,,71,105
230760,note_off,,,,,0,0,1,,,0,,,83,64
230760,note_off,,,,,0,0,1,,,0,,,43,64
230760,note_off,,,,,62,0,1,,,0,,,79,64
230760,note_off,,,,,0,0,1,,,0,,,76,64
230788,control_change,,,,,28,0,1,,,0,7,95,,
230820,set_tempo,,,,,380,1,0,447761,,,,,,
230850,note_off,,,,,62,0,1,,,0,,,55,64
230850,note_off,,,,,0,0,1,,,0,,,71,64
230878,control_change,,,,,28,0,1,,,0,7,96,,
230878,control_change,,,,,0,0,1,,,0,64,0,,
230880,set_tempo,,,,,60,1,0,400000,,,,,,
230880,note_on,,,,,2,0,1,,,0,,,84,125
230880,note_on,,,,,0,0,1,,,0,,,44,125
230880,control_change,,,,,0,0,1,,,0,64,96,,
230968,control_change,,,,,88,0,1,,,0,7,97,,
231000,note_on,,,,,0,0,1,,,0,,,72,114
231000,note_on,,,,,0,0,1,,,0,,,45,114
231000,note_off,,,,,32,0,1,,,0,,,44,64
231000,note_off,,,,,0,0,1,,,0,,,84,64
231058,control_change,,,,,58,0,1,,,0,7,98,,
231060,control_change,,,,,2,0,1,,,0,64,0,,
231090,note_off,,,,,0,0,1,,,0,,,72,64
231090,note_off,,,,,30,0,1,,,0,,,45,64
231120,note_on,,,,,0,0,1,,,0,,,45,127
231120,note_on,,,,,0,0,1,,,0,,,81,127
231120,control_change,,,,,0,0,1,,,0,64,95,,
231120,note_on,,,,,0,0,1,,,0,,,72,127
231120,note_on,,,,,30,0,1,,,0,,,76,127
231148,control_change,,,,,28,0,1,,,0,7,99,,
231238,control_change,,,,,90,0,1,,,0,7,100,,
231240,note_off,,,,,0,0,1,,,0,,,76,64
231240,note_off,,,,,2,0,1,,,0,,,81,64
231240,note_off,,,,,0,0,1,,,0,,,45,64
231240,note_on,,,,,0,0,1,,,0,,,57,127
231240,note_on,,,,,0,0,1,,,0,,,69,127
231240,note_off,,,,,0,0,1,,,0,,,72,64
231300,set_tempo,,,,,420,1,0,468750,,,,,,
231300,control_change,,,,,60,0,1,,,0,64,0,,
231328,control_change,,,,,28,0,1,,,0,7,101,,
231330,note_off,,,,,0,0,1,,,0,,,57,64
231330,note_off,,,,,2,0,1,,,0,,,69,64
231360,note_on,,,,,30,0,1,,,0,,,46,127
231360,set_tempo,,,,,60,1,0,400000,,,,,,
231360,control_change,,,,,0,0,1,,,0,64,96,,
231360,note_on,,,,,0,0,1,,,0,,,83,127
231418,control_change,,,,,58,0,1,,,0,7,102,,
231420,set_tempo,,,,,60,1,0,422535,,,,,,
231480,note_off,,,,,62,0,1,,,0,,,83,64
231480,note_off,,,,,0,0,1,,,0,,,46,64
231480,note_on,,,,,0,0,1,,,0,,,47,114
231480,note_on,,,,,0,0,1,,,0,,,71,114
231508,control_change,,,,,28,0,1,,,0,7,103,,
231520,set_tempo,,,,,100,1,0,437956,,,,,,
231540,control_change,,,,,32,0,1,,,0,64,0,,
231570,note_off,,,,,0,0,1,,,0,,,47,64
231570,note_off,,,,,30,0,1,,,0,,,71,64
231598,control_change,,,,,28,0,1,,,0,7,104,,
231600,control_change,,,,,0,0,1,,,0,64,95,,
231600,note_on,,,,,0,0,1,,,0,,,79,119
231600,note_on,,,,,0,0,1,,,0,,,76,119
231600,note_on,,,,,0,0,1,,,0,,,71,119
231600,note_on,,,,,2,0,1,,,0,,,47,119
231600,set_tempo,,,,,80,1,0,472441,,,,,,
231660,set_tempo,,,,,60,1,0,495868,,,,,,
231688,control_change,,,,,88,0,1,,,0,7,105,,
231720,note_off,,,,,0,0,1,,,0,,,47,64
231720,note_on,,,,,0,0,1,,,0,,,67,117
231720,note_on,,,,,0,0,1,,,0,,,59,117
231720,set_tempo,,,,,60,1,0,555556,,,,,,
231720,note_off,,,,,0,0,1,,,0,,,76,64
231720,note_off,,,,,32,0,1,,,0,,,79,64
231720,note_off,,,,,0,0,1,,,0,,,71,64
231760,set_tempo,,,,,40,1,0,550459,,,,,,
231778,control_change,,,,,58,0,1,,,0,7,106,,
231780,control_change,,,,,2,0,1,,,0,64,0,,
231780,set_tempo,,,,,20,1,0,731707,,,,,,
231800,set_tempo,,,,,20,1,0,740741,,,,,,
231810,note_off,,,,,30,0,1,,,0,,,67,64
231810,note_off,,,,,0,0,1,,,0,,,59,64
231840,set_tempo,,,,,40,1,0,566038,,,,,,
231840,note_on,,,,,0,0,1,,,0,,,83,124
231840,control_change,,,,,0,0,1,,,0,64,95,,
231840,note_on,,,,,30,0,1,,,0,,,34,124
231868,control_change,,,,,28,0,1,,,0,7,107,,
231958,control_change,,,,,90,0,1,,,0,7,108,,
231960,set_tempo,,,,,120,1,0,588235,,,,,,
231960,note_off,,,,,2,0,1,,,0,,,83,64
231960,note_off,,,,,0,0,1,,,0,,,34,64
231960,note_on,,,,,0,0,1,,,0,,,71,109
231960,note_on,,,,,0,0,1,,,0,,,35,109
231980,set_tempo,,,,,20,1,0,594059,,,,,,
232000,set_tempo,,,,,20,1,0,618557,,,,,,
232020,control_change,,,,,60,0,1,,,0,64,0,,
232048,control_change,,,,,28,0,1,,,0,7,109,,
232050,note_off,,,,,2,0,1,,,0,,,71,64
232050,note_off,,,,,0,0,1,,,0,,,35,64
232060,set_tempo,,,,,60,1,0,759494,,,,,,
232080,note_on,,,,,30,0,1,,,0,,,35,127
232080,note_on,,,,,0,0,1,,,0,,,71,127
232080,control_change,,,,,0,0,1,,,0,64,96,,
232138,control_change,,,,,58,0,1,,,0,7,110,,
232160,set_tempo,,,,,100,1,0,845070,,,,,,
232200,note_off,,,,,62,0,1,,,0,,,71,64
232200,note_off,,,,,0,0,1,,,0,,,35,64
232200,note_on,,,,,0,0,1,,,0,,,47,116
232200,note_on,,,,,0,0,1,,,0,,,59,116
232228,control_change,,,,,28,0,1,,,0,7,111,,
232260,set_tempo,,,,,100,1,0,1132075,,,,,,
232260,control_change,,,,,32,0,1,,,0,64,0,,
232318,control_change,,,,,58,0,1,,,0,7,112,,
232320,note_off,,,,,2,0,1,,,0,,,59,64
232320,note_off,,,,,0,0,1,,,0,,,47,64
232320,set_tempo,,,,,60,1,0,1500000,,,,,,
232680,note_on,,,,,6840,0,2,,,0,,,83,42
232680,control_change,,,,,360,0,1,,,0,7,79,,
232680,set_tempo,,,,,360,1,0,451128,,,,,,
232770,note_off,,,,,90,0,2,,,0,,,83,64
232800,note_on,,,,,30,0,2,,,0,,,81,48
232890,note_off,,,,,90,0,2,,,0,,,81,64
232920,note_on,,,,,30,0,2,,,0,,,80,46
233010,note_off,,,,,90,0,2,,,0,,,80,64
233040,note_on,,,,,30,0,2,,,0,,,78,41
233130,note_off,,,,,90,0,2,,,0,,,78,64
233160,note_on,,,,,30,0,2,,,0,,,76,41
233250,note_off,,,,,90,0,2,,,0,,,76,64
233280,note_on,,,,,30,0,2,,,0,,,75,46
233370,note_off,,,,,90,0,2,,,0,,,75,64
233400,note_on,,,,,30,0,2,,,0,,,76,34
233400,set_tempo,,,,,720,1,0,447761,,,,,,
233490,note_off,,,,,90,0,2,,,0,,,76,64
233520,note_on,,,,,30,0,2,,,0,,,78,32
233610,note_off,,,,,90,0,2,,,0,,,78,64
233640,note_on,,,,,30,0,2,,,0,,,76,32
233730,note_off,,,,,90,0,2,,,0,,,76,64
233760,note_on,,,,,30,0,2,,,0,,,75,43
233760,set_tempo,,,,,360,1,0,441176,,,,,,
233850,note_off,,,,,90,0,2,,,0,,,75,64
233880,note_on,,,,,30,0,2,,,0,,,73,38
233970,note_off,,,,,90,0,2,,,0,,,73,64
234000,note_on,,,,,30,0,2,,,0,,,71,43
234090,note_off,,,,,90,0,2,,,0,,,71,64
234120,note_on,,,,,30,0,2,,,0,,,70,49
234210,note_off,,,,,90,0,2,,,0,,,70,64
234240,note_on,,,,,30,0,2,,,0,,,71,58
234280,set_tempo,,,,,520,1,0,447761,,,,,,
234330,note_off,,,,,90,0,2,,,0,,,71,64
234360,note_on,,,,,30,0,2,,,0,,,72,43
234450,note_off,,,,,90,0,2,,,0,,,72,64
234480,note_on,,,,,30,0,2,,,0,,,73,37
234540,set_tempo,,,,,260,1,0,458015,,,,,,
234570,note_off,,,,,90,0,2,,,0,,,73,64
234600,note_on,,,,,30,0,2,,,0,,,71,33
234690,note_off,,,,,90,0,2,,,0,,,71,64
234720,note_on,,,,,30,0,2,,,0,,,69,33
234720,set_tempo,,,,,180,1,0,465116,,,,,,
234810,note_off,,,,,90,0,2,,,0,,,69,64
234840,note_on,,,,,30,0,2,,,0,,,68,33
234930,note_off,,,,,90,0,2,,,0,,,68,64
234940,set_tempo,,,,,220,1,0,476190,,,,,,
234960,note_on,,,,,30,0,2,,,0,,,66,36
235050,note_off,,,,,90,0,2,,,0,,,66,64
235080,note_on,,,,,30,0,2,,,0,,,64,41
235160,set_tempo,,,,,220,1,0,491803,,,,,,
235170,note_off,,,,,90,0,2,,,0,,,64,64
235200,note_on,,,,,30,0,2,,,0,,,63,46
235260,set_tempo,,,,,100,1,0,508475,,,,,,
235290,note_off,,,,,90,0,2,,,0,,,63,64
235320,note_on,,,,,30,0,2,,,0,,,64,38
235410,note_off,,,,,90,0,2,,,0,,,64,64
235440,note_on,,,,,2760,0,1,,,0,,,69,35
235440,note_on,,,,,0,0,1,,,0,,,71,35
235440,control_change,,,,,0,0,1,,,0,64,95,,
235440,note_on,,,,,30,0,2,,,0,,,66,42
235460,set_tempo,,,,,200,1,0,521739,,,,,,
235530,note_off,,,,,90,0,2,,,0,,,66,64
235560,note_on,,,,,30,0,2,,,0,,,64,46
235580,set_tempo,,,,,120,1,0,550459,,,,,,
235620,note_off,,,,,180,0,1,,,0,,,71,64
235620,note_off,,,,,0,0,1,,,0,,,69,64
235650,control_change,,,,,30,0,1,,,0,64,0,,
235650,note_off,,,,,90,0,2,,,0,,,64,64
235660,set_tempo,,,,,80,1,0,588235,,,,,,
235680,control_change,,,,,0,0,1,,,0,64,96,,
235680,note_on,,,,,30,0,2,,,0,,,63,47
235680,note_on,,,,,30,0,1,,,0,,,69,42
235680,note_on,,,,,0,0,1,,,0,,,71,42
235740,set_tempo,,,,,80,1,0,606061,,,,,,
235760,set_tempo,,,,,20,1,0,612245,,,,,,
235770,note_off,,,,,90,0,2,,,0,,,63,64
235780,set_tempo,,,,,20,1,0,618557,,,,,,
235800,note_on,,,,,30,0,2,,,0,,,61,41
235860,note_off,,,,,180,0,1,,,0,,,71,64
235860,note_off,,,,,0,0,1,,,0,,,69,64
235860,set_tempo,,,,,80,1,0,638298,,,,,,
235880,set_tempo,,,,,20,1,0,674157,,,,,,
235890,control_change,,,,,30,0,1,,,0,64,0,,
235890,note_off,,,,,90,0,2,,,0,,,61,64
235900,set_tempo,,,,,20,1,0,697674,,,,,,
235920,note_on,,,,,0,0,1,,,0,,,71,36
235920,note_on,,,,,30,0,2,,,0,,,59,36
235920,control_change,,,,,0,0,1,,,0,64,95,,
235920,note_on,,,,,30,0,1,,,0,,,68,36
235960,set_tempo,,,,,60,1,0,740741,,,,,,
235980,set_tempo,,,,,20,1,0,789474,,,,,,
236000,set_tempo,,,,,20,1,0,800000,,,,,,
236010,note_off,,,,,90,0,2,,,0,,,59,64
236040,note_off,,,,,120,0,1,,,0,,,68,64
236040,set_tempo,,,,,40,1,0,1000000,,,,,,
236040,note_on,,,,,30,0,2,,,0,,,57,32
236040,note_on,,,,,0,0,1,,,0,,,66,33
236060,set_tempo,,,,,20,1,0,1016949,,,,,,
236100,set_tempo,,,,,40,1,0,1111111,,,,,,
236100,note_off,,,,,60,0,1,,,0,,,71,64
236120,set_tempo,,,,,20,1,0,1153846,,,,,,
236130,note_off,,,,,90,0,2,,,0,,,57,64
236150,control_change,,,,,50,0,1,,,0,64,0,,
236160,set_tempo,,,,,40,1,0,1500000,,,,,,
236160,note_off,,,,,10,0,1,,,0,,,66,64
236160,note_on,,,,,0,0,1,,,0,,,71,32
236160,note_on,,,,,0,0,2,,,0,,,56,28
236160,note_on,,,,,0,0,2,,,0,,,52,28
236160,note_on,,,,,30,0,2,,,0,,,64,28
236180,set_tempo,,,,,20,1,0,461538,,,,,,
236640,note_off,,,,,480,0,1,,,0,,,71,64
236640,set_tempo,,,,,460,1,0,500000,,,,,,
236640,note_on,,,,,0,0,1,,,0,,,76,34
236640,control_change,,,,,0,0,1,,,0,64,95,,
236760,note_off,,,,,120,0,1,,,0,,,76,64
236760,note_on,,,,,0,0,1,,,0,,,75,24
236880,note_on,,,,,0,0,1,,,0,,,73,29
236880,note_off,,,,,120,0,1,,,0,,,75,64
237000,note_on,,,,,0,0,1,,,0,,,71,30
237000,note_off,,,,,120,0,1,,,0,,,73,64
237090,control_change,,,,,90,0,1,,,0,64,0,,
237100,note_off,,,,,10,0,1,,,0,,,71,64
237120,note_off,,,,,0,0,2,,,0,,,56,64
237120,note_off,,,,,0,0,2,,,0,,,64,64
237120,note_off,,,,,960,0,2,,,0,,,52,64
237120,set_tempo,,,,,480,1,0,659341,,,,,,
237120,note_on,,,,,0,0,2,,,0,,,57,30
237120,note_on,,,,,0,0,1,,,0,,,71,37
237120,note_on,,,,,0,0,2,,,0,,,54,30
237120,note_on,,,,,20,0,1,,,0,,,63,37
237180,set_tempo,,,,,60,1,0,545455,,,,,,
237330,note_off,,,,,210,0,1,,,0,,,71,64
237330,note_off,,,,,0,0,1,,,0,,,63,64
237330,note_off,,,,,0,0,2,,,0,,,57,64
237330,note_off,,,,,210,0,2,,,0,,,54,64
237360,note_on,,,,,0,0,1,,,0,,,71,34
237360,note_on,,,,,30,0,2,,,0,,,57,32
237360,note_on,,,,,30,0,1,,,0,,,63,34
237360,set_tempo,,,,,180,1,0,517241,,,,,,
237360,note_on,,,,,0,0,2,,,0,,,54,32
237540,note_off,,,,,0,0,2,,,0,,,57,64
237540,note_off,,,,,0,0,1,,,0,,,63,64
237540,note_off,,,,,180,0,2,,,0,,,54,64
237540,note_off,,,,,180,0,1,,,0,,,71,64
237600,note_on,,,,,0,0,1,,,0,,,71,32
237600,note_on,,,,,60,0,2,,,0,,,57,28
237600,note_on,,,,,0,0,2,,,0,,,54,28
237600,note_on,,,,,60,0,1,,,0,,,63,32
237620,set_tempo,,,,,260,1,0,500000,,,,,,
237780,note_off,,,,,180,0,2,,,0,,,54,64
237780,note_off,,,,,0,0,2,,,0,,,57,64
237780,note_off,,,,,0,0,1,,,0,,,63,64
237780,note_off,,,,,180,0,1,,,0,,,71,64
237840,note_on,,,,,0,0,1,,,0,,,71,28
237840,note_on,,,,,60,0,1,,,0,,,63,28
237840,note_on,,,,,60,0,2,,,0,,,57,27
237840,set_tempo,,,,,220,1,0,480000,,,,,,
237840,note_on,,,,,0,0,2,,,0,,,54,27
238020,note_off,,,,,180,0,2,,,0,,,54,64
238020,note_off,,,,,0,0,1,,,0,,,63,64
238020,note_off,,,,,180,0,1,,,0,,,71,64
238020,note_off,,,,,0,0,2,,,0,,,57,64
238080,note_on,,,,,0,0,1,,,0,,,71,35
238080,note_on,,,,,60,0,1,,,0,,,64,35
238080,set_tempo,,,,,240,1,0,500000,,,,,,
238080,note_on,,,,,60,0,2,,,0,,,59,33
238080,note_on,,,,,0,0,2,,,0,,,56,33
238320,note_off,,,,,240,0,1,,,0,,,71,64
238320,note_on,,,,,0,0,1,,,0,,,68,31
238320,note_off,,,,,240,0,2,,,0,,,56,64
238320,note_off,,,,,0,0,2,,,0,,,59,64
238320,note_on,,,,,0,0,2,,,0,,,56,29
238320,note_on,,,,,0,0,2,,,0,,,52,29
238500,set_tempo,,,,,420,1,0,759494,,,,,,
238560,note_on,,,,,0,0,2,,,0,,,57,39
238560,note_on,,,,,0,0,2,,,0,,,61,39
238560,note_off,,,,,0,0,2,,,0,,,56,64
238560,note_off,,,,,240,0,2,,,0,,,52,64
238560,control_change,,,,,0,0,1,,,0,64,96,,
238560,set_tempo,,,,,60,1,0,545455,,,,,,
238560,note_on,,,,,0,0,1,,,0,,,73,38
238560,note_on,,,,,0,0,1,,,0,,,64,38
238560,note_off,,,,,0,0,1,,,0,,,64,64
238560,note_off,,,,,240,0,1,,,0,,,68,64
238980,note_off,,,,,420,0,2,,,0,,,57,64
238980,note_off,,,,,0,0,1,,,0,,,64,64
238980,note_off,,,,,0,0,2,,,0,,,61,64
238980,note_off,,,,,420,0,1,,,0,,,73,64
239000,control_change,,,,,20,0,1,,,0,64,0,,
239040,note_on,,,,,40,0,1,,,0,,,64,31
239040,note_on,,,,,0,0,1,,,0,,,71,31
239040,set_tempo,,,,,480,1,0,495868,,,,,,
239040,note_on,,,,,0,0,2,,,0,,,56,31
239040,note_on,,,,,60,0,2,,,0,,,59,31
239280,note_off,,,,,240,0,1,,,0,,,71,64
239280,note_on,,,,,0,0,2,,,0,,,52,27
239280,note_on,,,,,0,0,2,,,0,,,56,27
239280,note_off,,,,,0,0,2,,,0,,,59,64
239280,note_off,,,,,240,0,2,,,0,,,56,64
239280,note_on,,,,,0,0,1,,,0,,,64,27
239460,set_tempo,,,,,420,1,0,857143,,,,,,
239520,set_tempo,,,,,60,1,0,600000,,,,,,
239520,note_on,,,,,0,0,1,,,0,,,66,28
239520,note_off,,,,,0,0,1,,,0,,,64,64
239520,note_on,,,,,0,0,1,,,0,,,63,28
239520,control_change,,,,,0,0,1,,,0,64,97,,
239520,note_off,,,,,0,0,2,,,0,,,56,64
239520,note_off,,,,,240,0,2,,,0,,,52,64
239520,note_on,,,,,0,0,2,,,0,,,47,27
239520,note_on,,,,,0,0,2,,,0,,,54,27
239520,note_off,,,,,240,0,1,,,0,,,64,64
239860,set_tempo,,,,,340,1,0,1500000,,,,,,
239940,note_off,,,,,420,0,1,,,0,,,66,64
239940,note_off,,,,,0,0,1,,,0,,,63,64
239940,note_off,,,,,0,0,2,,,0,,,54,64
239940,note_off,,,,,420,0,2,,,0,,,47,64
239960,control_change,,,,,20,0,1,,,0,64,0,,
240000,note_on,,,,,0,0,2,,,0,,,68,27
240000,set_tempo,,,,,140,1,0,560748,,,,,,
240000,note_on,,,,,40,0,1,,,0,,,83,27
240000,control_change,,,,,0,0,1,,,0,7,63,,
240000,note_on,,,,,60,0,2,,,0,,,71,27
240240,note_off,,,,,240,0,1,,,0,,,83,64
240240,note_on,,,,,0,0,1,,,0,,,81,30
240240,note_on,,,,,0,0,2,,,0,,,64,22
240240,note_on,,,,,0,0,2,,,0,,,68,22
240240,note_off,,,,,240,0,2,,,0,,,68,64
240240,note_off,,,,,0,0,2,,,0,,,71,64
240300,note_off,,,,,60,0,1,,,0,,,81,64
240300,note_on,,,,,0,0,1,,,0,,,80,31
240360,note_on,,,,,0,0,1,,,0,,,78,33
240360,note_off,,,,,60,0,1,,,0,,,80,64
240420,note_on,,,,,0,0,1,,,0,,,76,36
240420,set_tempo,,,,,420,1,0,857143,,,,,,
240420,note_off,,,,,60,0,1,,,0,,,78,64
240480,control_change,,,,,0,0,1,,,0,64,96,,
240480,set_tempo,,,,,60,1,0,545455,,,,,,
240480,note_on,,,,,0,0,1,,,0,,,85,41
240480,note_on,,,,,0,0,2,,,0,,,69,35
240480,note_on,,,,,0,0,2,,,0,,,73,35
240480,note_off,,,,,0,0,2,,,0,,,68,64
240480,note_off,,,,,240,0,2,,,0,,,64,64
240480,note_off,,,,,60,0,1,,,0,,,76,64
240900,note_off,,,,,420,0,2,,,0,,,69,64
240900,note_off,,,,,420,0,1,,,0,,,85,64
240900,note_off,,,,,0,0,2,,,0,,,73,64
240920,control_change,,,,,20,0,1,,,0,64,0,,
240960,note_on,,,,,60,0,2,,,0,,,71,30
240960,note_on,,,,,0,0,2,,,0,,,68,30
240960,note_on,,,,,40,0,1,,,0,,,83,31
240960,set_tempo,,,,,480,1,0,600000,,,,,,
241200,note_off,,,,,240,0,1,,,0,,,83,64
241200,note_on,,,,,0,0,2,,,0,,,64,24
241200,note_off,,,,,240,0,2,,,0,,,68,64
241200,note_off,,,,,0,0,2,,,0,,,71,64
241200,note_on,,,,,0,0,2,,,0,,,68,24
241200,note_on,,,,,0,0,1,,,0,,,81,30
241260,note_off,,,,,60,0,1,,,0,,,81,64
241260,note_on,,,,,0,0,1,,,0,,,80,33
241320,note_on,,,,,0,0,1,,,0,,,78,36
241320,note_off,,,,,60,0,1,,,0,,,80,64
241380,set_tempo,,,,,420,1,0,857143,,,,,,
241380,note_on,,,,,0,0,1,,,0,,,76,37
241380,note_off,,,,,60,0,1,,,0,,,78,64
241440,note_off,,,,,0,0,2,,,0,,,68,64
241440,note_on,,,,,0,0,2,,,0,,,66,40
241440,note_on,,,,,0,0,2,,,0,,,59,40
241440,note_on,,,,,0,0,1,,,0,,,75,39
241440,note_on,,,,,0,0,1,,,0,,,78,39
241440,control_change,,,,,0,0,1,,,0,64,97,,
241440,set_tempo,,,,,60,1,0,659341,,,,,,
241440,note_off,,,,,240,0,2,,,0,,,64,64
241440,note_off,,,,,60,0,1,,,0,,,76,64
241800,set_tempo,,,,,360,1,0,1463415,,,,,,
241900,control_change,,,,,460,0,1,,,0,64,0,,
241920,note_off,,,,,20,0,1,,,0,,,78,64
241920,note_off,,,,,0,0,1,,,0,,,75,64
241920,note_on,,,,,0,0,1,,,0,,,68,24
241920,note_on,,,,,0,0,1,,,0,,,76,24
241920,note_on,,,,,0,0,2,,,0,,,64,27
241920,note_off,,,,,0,0,2,,,0,,,66,64
241920,note_off,,,,,480,0,2,,,0,,,59,64
241920,set_tempo,,,,,120,1,0,600000,,,,,,
241920,control_change,,,,,0,0,1,,,0,7,79,,
241940,set_tempo,,,,,20,1,0,582524,,,,,,
241980,set_tempo,,,,,40,1,0,576923,,,,,,
242000,set_tempo,,,,,20,1,0,571429,,,,,,
242040,set_tempo,,,,,40,1,0,566038,,,,,,
242060,set_tempo,,,,,20,1,0,560748,,,,,,
242080,set_tempo,,,,,20,1,0,550459,,,,,,
242120,set_tempo,,,,,40,1,0,545455,,,,,,
242130,note_off,,,,,210,0,2,,,0,,,64,64
242130,note_off,,,,,210,0,1,,,0,,,76,64
242130,note_off,,,,,0,0,1,,,0,,,68,64
242140,set_tempo,,,,,20,1,0,540541,,,,,,
242160,note_on,,,,,30,0,2,,,0,,,64,30
242180,set_tempo,,,,,40,1,0,535714,,,,,,
242220,set_tempo,,,,,40,1,0,526316,,,,,,
242260,set_tempo,,,,,40,1,0,521739,,,,,,
242320,set_tempo,,,,,60,1,0,512821,,,,,,
242340,note_off,,,,,180,0,2,,,0,,,64,64
242360,set_tempo,,,,,40,1,0,508475,,,,,,
242380,set_tempo,,,,,20,1,0,504202,,,,,,
242400,note_on,,,,,60,0,2,,,0,,,69,36
242400,note_on,,,,,0,0,2,,,0,,,65,36
242420,set_tempo,,,,,40,1,0,500000,,,,,,
242460,set_tempo,,,,,40,1,0,495868,,,,,,
242480,set_tempo,,,,,20,1,0,491803,,,,,,
242540,set_tempo,,,,,60,1,0,487805,,,,,,
242580,set_tempo,,,,,40,1,0,483871,,,,,,
242610,note_off,,,,,210,0,2,,,0,,,69,64
242640,set_tempo,,,,,60,1,0,480000,,,,,,
242640,note_on,,,,,30,0,2,,,0,,,69,32
242680,set_tempo,,,,,40,1,0,472441,,,,,,
242720,set_tempo,,,,,40,1,0,468750,,,,,,
242780,set_tempo,,,,,60,1,0,465116,,,,,,
242800,set_tempo,,,,,20,1,0,461538,,,,,,
242820,note_off,,,,,180,0,2,,,0,,,69,64
242860,set_tempo,,,,,60,1,0,458015,,,,,,
242880,note_off,,,,,60,0,2,,,0,,,65,64
242880,note_on,,,,,0,0,2,,,0,,,64,33
242880,note_on,,,,,750,0,1,,,0,,,71,32
242880,note_on,,,,,0,0,2,,,0,,,68,33
243090,note_off,,,,,210,0,1,,,0,,,71,64
243120,note_on,,,,,30,0,1,,,0,,,71,27
243300,note_off,,,,,180,0,1,,,0,,,71,64
243360,note_on,,,,,0,0,2,,,0,,,59,36
243360,note_off,,,,,0,0,2,,,0,,,68,64
243360,note_on,,,,,0,0,2,,,0,,,69,36
243360,note_on,,,,,0,0,1,,,0,,,83,38
243360,note_on,,,,,60,0,1,,,0,,,71,30
243360,note_off,,,,,480,0,2,,,0,,,64,64
243440,note_on,,,,,0,0,1,,,0,,,73,31
243440,note_off,,,,,80,0,1,,,0,,,71,64
243520,note_on,,,,,0,0,1,,,0,,,75,35
243520,note_off,,,,,80,0,1,,,0,,,73,64
243570,note_off,,,,,50,0,1,,,0,,,83,64
243586,note_off,,,,,16,0,1,,,0,,,75,64
243600,note_on,,,,,14,0,1,,,0,,,75,36
243600,note_on,,,,,0,0,1,,,0,,,83,36
243680,note_off,,,,,80,0,1,,,0,,,75,64
243680,note_on,,,,,0,0,1,,,0,,,76,35
243760,note_off,,,,,80,0,1,,,0,,,76,64
243760,note_on,,,,,0,0,1,,,0,,,78,37
243780,note_off,,,,,20,0,1,,,0,,,83,64
243840,note_on,,,,,0,0,1,,,0,,,83,31
243840,note_off,,,,,0,0,2,,,0,,,69,64
243840,note_off,,,,,480,0,2,,,0,,,59,64
243840,note_on,,,,,0,0,2,,,0,,,64,37
243840,note_on,,,,,0,0,1,,,0,,,76,31
243840,note_off,,,,,60,0,1,,,0,,,78,64
243840,note_on,,,,,0,0,2,,,0,,,68,37
244050,note_off,,,,,210,0,1,,,0,,,83,64
244050,note_off,,,,,0,0,1,,,0,,,76,64
244050,note_off,,,,,0,0,2,,,0,,,68,64
244050,note_off,,,,,210,0,2,,,0,,,64,64
244080,note_on,,,,,30,0,2,,,0,,,52,30
244260,note_off,,,,,180,0,2,,,0,,,52,64
244320,note_on,,,,,0,0,2,,,0,,,53,36
244320,note_on,,,,,60,0,2,,,0,,,57,36
244530,note_off,,,,,210,0,2,,,0,,,57,64
244560,note_on,,,,,30,0,2,,,0,,,57,32
244740,note_off,,,,,180,0,2,,,0,,,57,64
244780,set_tempo,,,,,1920,1,0,465116,,,,,,
244800,note_off,,,,,60,0,2,,,0,,,53,64
244800,note_on,,,,,0,0,2,,,0,,,56,33
244800,note_on,,,,,0,0,2,,,0,,,52,33
244800,set_tempo,,,,,20,1,0,461538,,,,,,
244800,note_on,,,,,750,0,1,,,0,,,59,32
245000,set_tempo,,,,,200,1,0,465116,,,,,,
245010,note_off,,,,,210,0,1,,,0,,,59,64
245040,note_on,,,,,30,0,1,,,0,,,59,27
245160,set_tempo,,,,,160,1,0,468750,,,,,,
245180,set_tempo,,,,,20,1,0,472441,,,,,,
245220,note_off,,,,,180,0,1,,,0,,,59,64
245280,note_off,,,,,480,0,2,,,0,,,52,64
245280,note_off,,,,,0,0,2,,,0,,,56,64
245280,note_on,,,,,0,0,2,,,0,,,47,27
245280,note_on,,,,,0,0,2,,,0,,,57,27
245280,note_on,,,,,60,0,1,,,0,,,59,32
245280,note_on,,,,,0,0,1,,,0,,,71,32
245360,note_off,,,,,80,0,1,,,0,,,59,64
245360,note_on,,,,,0,0,1,,,0,,,61,26
245420,set_tempo,,,,,240,1,0,480000,,,,,,
245440,note_off,,,,,80,0,1,,,0,,,61,64
245440,note_on,,,,,0,0,1,,,0,,,63,27
245460,set_tempo,,,,,40,1,0,483871,,,,,,
245490,note_off,,,,,50,0,1,,,0,,,71,64
245506,note_off,,,,,16,0,1,,,0,,,63,64
245520,note_on,,,,,0,0,1,,,0,,,71,28
245520,note_on,,,,,14,0,1,,,0,,,63,28
245600,note_on,,,,,0,0,1,,,0,,,64,27
245600,note_off,,,,,80,0,1,,,0,,,63,64
245680,note_on,,,,,0,0,1,,,0,,,66,30
245680,note_off,,,,,80,0,1,,,0,,,64,64
245700,set_tempo,,,,,240,1,0,487805,,,,,,
245700,note_off,,,,,20,0,1,,,0,,,71,64
245720,set_tempo,,,,,20,1,0,491803,,,,,,
245760,note_on,,,,,0,0,1,,,0,,,71,34
245760,note_on,,,,,0,0,2,,,0,,,52,28
245760,note_on,,,,,0,0,2,,,0,,,56,28
245760,note_off,,,,,0,0,2,,,0,,,57,64
245760,note_off,,,,,480,0,2,,,0,,,47,64
245760,note_off,,,,,60,0,1,,,0,,,66,64
245760,note_on,,,,,0,0,1,,,0,,,64,34
245880,set_tempo,,,,,160,1,0,495868,,,,,,
245970,note_off,,,,,0,0,2,,,0,,,56,64
245970,note_off,,,,,210,0,2,,,0,,,52,64
246000,note_on,,,,,30,0,2,,,0,,,56,23
246000,note_on,,,,,0,0,2,,,0,,,52,23
246020,set_tempo,,,,,140,1,0,500000,,,,,,
246140,set_tempo,,,,,120,1,0,504202,,,,,,
246180,note_off,,,,,0,0,2,,,0,,,56,64
246180,note_off,,,,,180,0,2,,,0,,,52,64
246240,note_on,,,,,60,0,2,,,0,,,57,31
246240,note_off,,,,,480,0,1,,,0,,,71,64
246240,note_off,,,,,0,0,1,,,0,,,64,64
246240,note_on,,,,,0,0,1,,,0,,,59,26
246240,note_on,,,,,0,0,1,,,0,,,71,26
246240,note_on,,,,,0,0,2,,,0,,,47,31
246300,set_tempo,,,,,160,1,0,508475,,,,,,
246320,note_off,,,,,80,0,1,,,0,,,59,64
246320,note_on,,,,,0,0,1,,,0,,,61,24
246400,note_off,,,,,80,0,1,,,0,,,61,64
246400,note_on,,,,,0,0,1,,,0,,,63,25
246420,set_tempo,,,,,120,1,0,512821,,,,,,
246450,note_off,,,,,50,0,1,,,0,,,71,64
246466,note_off,,,,,16,0,1,,,0,,,63,64
246480,note_on,,,,,0,0,1,,,0,,,71,28
246480,note_on,,,,,14,0,1,,,0,,,63,28
246540,set_tempo,,,,,120,1,0,526316,,,,,,
246560,note_off,,,,,80,0,1,,,0,,,63,64
246560,note_on,,,,,0,0,1,,,0,,,64,22
246640,note_on,,,,,0,0,1,,,0,,,66,24
246640,note_off,,,,,80,0,1,,,0,,,64,64
246660,set_tempo,,,,,120,1,0,530973,,,,,,
246660,note_off,,,,,20,0,1,,,0,,,71,64
246720,note_off,,,,,480,0,2,,,0,,,47,64
246720,note_on,,,,,0,0,2,,,0,,,56,25
246720,note_on,,,,,0,0,2,,,0,,,52,25
246720,note_on,,,,,0,0,1,,,0,,,71,28
246720,note_on,,,,,0,0,1,,,0,,,64,28
246720,note_off,,,,,60,0,1,,,0,,,66,64
246720,note_off,,,,,0,0,2,,,0,,,57,64
246780,set_tempo,,,,,120,1,0,535714,,,,,,
246800,set_tempo,,,,,20,1,0,540541,,,,,,
246930,note_off,,,,,210,0,2,,,0,,,52,64
246930,note_off,,,,,0,0,2,,,0,,,56,64
246960,note_on,,,,,30,0,2,,,0,,,56,18
246960,note_on,,,,,0,0,2,,,0,,,52,18
246960,set_tempo,,,,,160,1,0,545455,,,,,,
247040,set_tempo,,,,,80,1,0,550459,,,,,,
247120,set_tempo,,,,,80,1,0,560748,,,,,,
247140,note_off,,,,,180,0,2,,,0,,,52,64
247140,note_off,,,,,0,0,2,,,0,,,56,64
247200,note_on,,,,,0,0,1,,,0,,,71,24
247200,set_tempo,,,,,80,1,0,566038,,,,,,
247200,note_off,,,,,480,0,1,,,0,,,71,64
247200,note_off,,,,,0,0,1,,,0,,,64,64
247200,note_on,,,,,0,0,1,,,0,,,59,24
247200,note_on,,,,,0,0,2,,,0,,,47,25
247200,note_on,,,,,60,0,2,,,0,,,57,25
247260,set_tempo,,,,,60,1,0,571429,,,,,,
247280,note_on,,,,,0,0,1,,,0,,,61,19
247280,note_off,,,,,80,0,1,,,0,,,59,64
247280,set_tempo,,,,,20,1,0,576923,,,,,,
247320,set_tempo,,,,,40,1,0,588235,,,,,,
247360,note_off,,,,,80,0,1,,,0,,,61,64
247360,set_tempo,,,,,40,1,0,600000,,,,,,
247360,note_on,,,,,0,0,1,,,0,,,63,24
247380,set_tempo,,,,,20,1,0,612245,,,,,,
247400,set_tempo,,,,,20,1,0,618557,,,,,,
247410,note_off,,,,,50,0,1,,,0,,,71,64
247420,set_tempo,,,,,20,1,0,625000,,,,,,
247426,note_off,,,,,16,0,1,,,0,,,63,64
247440,note_on,,,,,14,0,1,,,0,,,63,27
247440,note_on,,,,,0,0,1,,,0,,,71,27
247440,set_tempo,,,,,20,1,0,652174,,,,,,
247460,set_tempo,,,,,20,1,0,659341,,,,,,
247520,note_on,,,,,0,0,1,,,0,,,64,23
247520,set_tempo,,,,,60,1,0,674157,,,,,,
247520,note_off,,,,,80,0,1,,,0,,,63,64
247540,set_tempo,,,,,20,1,0,689655,,,,,,
247560,set_tempo,,,,,20,1,0,697674,,,,,,
247580,set_tempo,,,,,20,1,0,714286,,,,,,
247600,set_tempo,,,,,20,1,0,759494,,,,,,
247600,note_on,,,,,0,0,1,,,0,,,66,23
247600,note_off,,,,,80,0,1,,,0,,,64,64
247620,set_tempo,,,,,20,1,0,789474,,,,,,
247620,note_off,,,,,20,0,1,,,0,,,71,64
247640,set_tempo,,,,,20,1,0,800000,,,,,,
247660,set_tempo,,,,,20,1,0,1333333,,,,,,
247680,note_on,,,,,0,0,1,,,0,,,71,28
247680,note_on,,,,,0,0,1,,,0,,,64,28
247680,note_off,,,,,60,0,1,,,0,,,66,64
247680,note_off,,,,,480,0,2,,,0,,,47,64
247680,note_on,,,,,0,0,2,,,0,,,52,28
247680,note_on,,,,,0,0,2,,,0,,,56,28
247680,note_off,,,,,0,0,2,,,0,,,57,64
247700,set_tempo,,,,,40,1,0,800000,,,,,,
247890,note_off,,,,,0,0,2,,,0,,,56,64
247890,note_off,,,,,210,0,2,,,0,,,52,64
247920,note_on,,,,,0,0,2,,,0,,,52,32
247920,note_on,,,,,30,0,2,,,0,,,56,32
248100,note_off,,,,,0,0,2,,,0,,,56,64
248100,note_off,,,,,180,0,2,,,0,,,52,64
248160,note_on,,,,,0,0,1,,,0,,,62,35
248160,note_off,,,,,0,0,1,,,0,,,64,64
248160,note_on,,,,,60,0,2,,,0,,,55,40
248160,note_off,,,,,480,0,1,,,0,,,71,64
248160,control_change,,,,,0,0,1,,,0,64,95,,
248160,note_on,,,,,0,0,1,,,0,,,71,35
248160,note_on,,,,,0,0,2,,,0,,,43,40
248180,set_tempo,,,,,480,1,0,789474,,,,,,
248200,set_tempo,,,,,20,1,0,769231,,,,,,
248220,set_tempo,,,,,20,1,0,759494,,,,,,
248240,note_on,,,,,0,0,1,,,0,,,64,37
248240,note_off,,,,,80,0,1,,,0,,,62,64
248240,set_tempo,,,,,20,1,0,750000,,,,,,
248260,set_tempo,,,,,20,1,0,740741,,,,,,
248280,set_tempo,,,,,20,1,0,731707,,,,,,
248300,set_tempo,,,,,20,1,0,722892,,,,,,
248320,note_on,,,,,0,0,1,,,0,,,65,40
248320,note_off,,,,,80,0,1,,,0,,,64,64
248340,set_tempo,,,,,40,1,0,714286,,,,,,
248360,set_tempo,,,,,20,1,0,705882,,,,,,
248370,note_off,,,,,50,0,1,,,0,,,71,64
248380,set_tempo,,,,,20,1,0,697674,,,,,,
248386,note_off,,,,,16,0,1,,,0,,,65,64
248400,note_on,,,,,0,0,1,,,0,,,71,42
248400,note_on,,,,,14,0,1,,,0,,,65,42
248420,set_tempo,,,,,40,1,0,681818,,,,,,
248440,set_tempo,,,,,20,1,0,674157,,,,,,
248480,note_on,,,,,0,0,1,,,0,,,67,46
248480,note_off,,,,,80,0,1,,,0,,,65,64
248480,set_tempo,,,,,40,1,0,666667,,,,,,
248520,set_tempo,,,,,40,1,0,659341,,,,,,
248560,set_tempo,,,,,40,1,0,652174,,,,,,
248560,note_on,,,,,0,0,1,,,0,,,69,50
248560,note_off,,,,,80,0,1,,,0,,,67,64
248580,note_off,,,,,20,0,1,,,0,,,71,64
248580,set_tempo,,,,,20,1,0,645161,,,,,,
248600,set_tempo,,,,,20,1,0,638298,,,,,,
248620,control_change,,,,,40,0,1,,,0,64,0,,
248620,set_tempo,,,,,20,1,0,750000,,,,,,
248640,note_off,,,,,480,0,2,,,0,,,43,64
248640,note_off,,,,,0,0,2,,,0,,,55,64
248640,note_on,,,,,0,0,2,,,0,,,55,52
248640,note_on,,,,,0,0,2,,,0,,,48,52
248640,set_tempo,,,,,20,1,0,937500,,,,,,
248640,control_change,,,,,0,0,1,,,0,64,96,,
248640,note_on,,,,,0,0,1,,,0,,,64,43
248640,note_off,,,,,20,0,1,,,0,,,69,64
248640,marker,,,,,0,1,0,,,,,,,
248640,note_on,,,,,0,0,1,,,0,,,72,43
248760,set_tempo,,,,,120,1,0,759494,,,,,,
248760,note_off,,,,,120,0,2,,,0,,,48,64
248760,note_off,,,,,0,0,2,,,0,,,55,64
248760,note_on,,,,,0,0,2,,,0,,,60,42
248780,set_tempo,,,,,20,1,0,740741,,,,,,
248800,set_tempo,,,,,20,1,0,722892,,,,,,
248820,set_tempo,,,,,20,1,0,705882,,,,,,
248840,set_tempo,,,,,20,1,0,697674,,,,,,
248850,note_off,,,,,90,0,2,,,0,,,60,64
248880,set_tempo,,,,,40,1,0,689655,,,,,,
248880,note_on,,,,,30,0,2,,,0,,,60,39
248900,set_tempo,,,,,20,1,0,681818,,,,,,
248920,set_tempo,,,,,20,1,0,674157,,,,,,
248940,set_tempo,,,,,20,1,0,666667,,,,,,
248970,note_off,,,,,90,0,2,,,0,,,60,64
248980,set_tempo,,,,,40,1,0,659341,,,,,,
249000,note_on,,,,,30,0,2,,,0,,,60,36
249040,set_tempo,,,,,60,1,0,652174,,,,,,
249050,control_change,,,,,410,0,1,,,0,64,0,,
249060,set_tempo,,,,,20,1,0,638298,,,,,,
249090,note_off,,,,,90,0,2,,,0,,,60,64
249120,note_off,,,,,0,0,1,,,0,,,72,64
249120,set_tempo,,,,,60,1,0,631579,,,,,,
249120,note_on,,,,,30,0,2,,,0,,,60,42
249120,note_off,,,,,70,0,1,,,0,,,64,64
249140,set_tempo,,,,,20,1,0,625000,,,,,,
249160,set_tempo,,,,,20,1,0,618557,,,,,,
249220,set_tempo,,,,,60,1,0,606061,,,,,,
249240,set_tempo,,,,,20,1,0,600000,,,,,,
249240,note_off,,,,,120,0,2,,,0,,,60,64
249240,note_on,,,,,0,0,2,,,0,,,60,40
249240,note_on,,,,,0,0,2,,,0,,,64,40
249240,note_on,,,,,0,0,2,,,0,,,67,40
249240,control_change,,,,,120,0,1,,,0,64,97,,
249300,set_tempo,,,,,60,1,0,588235,,,,,,
249330,note_off,,,,,0,0,2,,,0,,,64,64
249330,note_off,,,,,90,0,2,,,0,,,60,64
249330,note_off,,,,,0,0,2,,,0,,,67,64
249360,set_tempo,,,,,60,1,0,582524,,,,,,
249360,note_on,,,,,0,0,2,,,0,,,64,37
249360,note_on,,,,,0,0,2,,,0,,,60,37
249360,note_on,,,,,30,0,2,,,0,,,67,37
249380,set_tempo,,,,,20,1,0,576923,,,,,,
249420,set_tempo,,,,,40,1,0,571429,,,,,,
249440,set_tempo,,,,,20,1,0,566038,,,,,,
249450,note_off,,,,,0,0,2,,,0,,,67,64
249450,note_off,,,,,0,0,2,,,0,,,64,64
249450,note_off,,,,,90,0,2,,,0,,,60,64
249480,note_on,,,,,30,0,2,,,0,,,67,34
249480,note_on,,,,,0,0,2,,,0,,,60,34
249480,note_on,,,,,0,0,2,,,0,,,64,34
249540,set_tempo,,,,,100,1,0,560748,,,,,,
249570,note_off,,,,,0,0,2,,,0,,,67,64
249570,note_off,,,,,0,0,2,,,0,,,64,64
249570,note_off,,,,,90,0,2,,,0,,,60,64
249580,set_tempo,,,,,40,1,0,555556,,,,,,
249580,control_change,,,,,340,0,1,,,0,64,0,,
249600,note_on,,,,,20,0,1,,,0,,,79,42
249600,control_change,,,,,0,0,1,,,0,64,96,,
249600,set_tempo,,,,,20,1,0,550459,,,,,,
249600,note_on,,,,,30,0,2,,,0,,,67,39
249600,note_on,,,,,0,0,2,,,0,,,64,39
249600,note_on,,,,,0,0,2,,,0,,,60,39
249640,set_tempo,,,,,40,1,0,545455,,,,,,
249700,set_tempo,,,,,60,1,0,540541,,,,,,
249720,note_on,,,,,0,0,2,,,0,,,60,33
249720,note_off,,,,,120,0,2,,,0,,,60,64
249720,note_on,,,,,0,0,2,,,0,,,64,33
249720,note_off,,,,,0,0,2,,,0,,,64,64
249720,note_off,,,,,0,0,2,,,0,,,67,64
249720,note_on,,,,,0,0,2,,,0,,,67,33
249740,set_tempo,,,,,40,1,0,535714,,,,,,
249760,set_tempo,,,,,20,1,0,530973,,,,,,
249820,set_tempo,,,,,60,1,0,526316,,,,,,
249840,note_off,,,,,120,0,2,,,0,,,60,64
249840,note_off,,,,,0,0,2,,,0,,,64,64
249840,note_on,,,,,0,0,2,,,0,,,60,34
249840,note_on,,,,,0,0,2,,,0,,,64,34
249840,note_on,,,,,0,0,2,,,0,,,67,34
249840,note_off,,,,,0,0,2,,,0,,,67,64
249840,set_tempo,,,,,20,1,0,521739,,,,,,
249840,note_off,,,,,240,0,1,,,0,,,79,64
249840,note_on,,,,,0,0,1,,,0,,,77,35
249900,set_tempo,,,,,60,1,0,517241,,,,,,
249900,note_on,,,,,0,0,1,,,0,,,76,38
249900,note_off,,,,,60,0,1,,,0,,,77,64
249940,set_tempo,,,,,40,1,0,512821,,,,,,
249960,note_on,,,,,0,0,2,,,0,,,60,38
249960,note_on,,,,,0,0,2,,,0,,,67,38
249960,note_on,,,,,0,0,1,,,0,,,74,39
249960,note_off,,,,,0,0,2,,,0,,,67,64
249960,note_off,,,,,120,0,2,,,0,,,60,64
249960,note_off,,,,,0,0,2,,,0,,,64,64
249960,note_off,,,,,60,0,1,,,0,,,76,64
249960,note_on,,,,,0,0,2,,,0,,,64,38
249980,set_tempo,,,,,40,1,0,508475,,,,,,
250020,note_on,,,,,0,0,1,,,0,,,72,44
250020,note_off,,,,,60,0,1,,,0,,,74,64
250020,set_tempo,,,,,40,1,0,504202,,,,,,
250060,control_change,,,,,40,0,1,,,0,64,0,,
250080,note_off,,,,,120,0,2,,,0,,,60,64
250080,note_off,,,,,20,0,1,,,0,,,72,64
250080,note_on,,,,,0,0,1,,,0,,,81,53
250080,set_tempo,,,,,60,1,0,588235,,,,,,
250080,note_off,,,,,0,0,2,,,0,,,64,64
250080,control_change,,,,,0,0,1,,,0,64,95,,
250080,note_on,,,,,0,0,2,,,0,,,69,41
250080,note_on,,,,,0,0,2,,,0,,,65,41
250080,note_on,,,,,0,0,2,,,0,,,60,41
250080,note_off,,,,,0,0,2,,,0,,,67,64
250200,note_off,,,,,120,0,2,,,0,,,60,64
250200,set_tempo,,,,,120,1,0,500000,,,,,,
250200,note_on,,,,,0,0,2,,,0,,,60,37
250200,note_on,,,,,0,0,2,,,0,,,65,37
250200,note_on,,,,,0,0,2,,,0,,,69,37
250200,note_off,,,,,0,0,2,,,0,,,69,64
250200,note_off,,,,,0,0,2,,,0,,,65,64
250320,note_off,,,,,120,0,2,,,0,,,60,64
250320,note_off,,,,,0,0,2,,,0,,,65,64
250320,note_off,,,,,0,0,2,,,0,,,69,64
250320,note_on,,,,,0,0,2,,,0,,,69,34
250320,note_on,,,,,0,0,2,,,0,,,65,34
250320,note_on,,,,,0,0,2,,,0,,,60,34
250440,note_off,,,,,120,0,2,,,0,,,60,64
250440,note_off,,,,,0,0,2,,,0,,,65,64
250440,note_off,,,,,0,0,2,,,0,,,69,64
250440,note_on,,,,,0,0,2,,,0,,,69,32
250440,note_on,,,,,0,0,2,,,0,,,65,32
250440,note_on,,,,,0,0,2,,,0,,,60,32
250500,note_off,,,,,420,0,1,,,0,,,81,64
250540,control_change,,,,,40,0,1,,,0,64,0,,
250560,note_on,,,,,0,0,2,,,0,,,60,39
250560,note_off,,,,,120,0,2,,,0,,,60,64
250560,note_off,,,,,0,0,2,,,0,,,65,64
250560,note_on,,,,,0,0,2,,,0,,,67,39
250560,note_on,,,,,0,0,2,,,0,,,64,39
250560,note_on,,,,,20,0,1,,,0,,,79,42
250560,control_change,,,,,0,0,1,,,0,64,96,,
250560,note_off,,,,,0,0,2,,,0,,,69,64
250680,note_on,,,,,0,0,2,,,0,,,60,33
250680,note_on,,,,,0,0,2,,,0,,,64,33
250680,note_on,,,,,0,0,2,,,0,,,67,33
250680,note_off,,,,,0,0,2,,,0,,,67,64
250680,note_off,,,,,0,0,2,,,0,,,64,64
250680,note_off,,,,,120,0,2,,,0,,,60,64
250800,note_on,,,,,0,0,2,,,0,,,67,34
250800,note_off,,,,,0,0,2,,,0,,,67,64
250800,note_off,,,,,0,0,2,,,0,,,64,64
250800,note_off,,,,,120,0,2,,,0,,,60,64
250800,note_on,,,,,0,0,2,,,0,,,64,34
250800,note_on,,,,,0,0,2,,,0,,,60,34
250800,note_off,,,,,240,0,1,,,0,,,79,64
250800,note_on,,,,,0,0,1,,,0,,,77,44
250860,note_off,,,,,60,0,1,,,0,,,77,64
250860,note_on,,,,,0,0,1,,,0,,,76,46
250920,note_off,,,,,120,0,2,,,0,,,60,64
250920,note_off,,,,,60,0,1,,,0,,,76,64
250920,note_on,,,,,0,0,1,,,0,,,74,48
250920,note_on,,,,,0,0,2,,,0,,,60,38
250920,note_on,,,,,0,0,2,,,0,,,64,38
250920,note_on,,,,,0,0,2,,,0,,,67,38
250920,note_off,,,,,0,0,2,,,0,,,67,64
250920,note_off,,,,,0,0,2,,,0,,,64,64
250960,set_tempo,,,,,760,1,0,566038,,,,,,
250980,note_off,,,,,60,0,1,,,0,,,74,64
250980,note_on,,,,,0,0,1,,,0,,,72,51
251020,set_tempo,,,,,60,1,0,504202,,,,,,
251020,control_change,,,,,40,0,1,,,0,64,0,,
251040,note_on,,,,,0,0,2,,,0,,,60,41
251040,note_on,,,,,0,0,2,,,0,,,65,41
251040,note_on,,,,,0,0,2,,,0,,,67,41
251040,note_off,,,,,0,0,2,,,0,,,67,64
251040,note_off,,,,,0,0,2,,,0,,,64,64
251040,note_on,,,,,0,0,1,,,0,,,74,54
251040,control_change,,,,,0,0,1,,,0,64,95,,
251040,note_on,,,,,0,0,1,,,0,,,71,54
251040,note_off,,,,,20,0,1,,,0,,,72,64
251040,note_off,,,,,120,0,2,,,0,,,60,64
251140,set_tempo,,,,,120,1,0,521739,,,,,,
251160,set_tempo,,,,,20,1,0,535714,,,,,,
251160,note_off,,,,,120,0,2,,,0,,,60,64
251160,note_off,,,,,0,0,2,,,0,,,65,64
251160,note_off,,,,,0,0,2,,,0,,,67,64
251160,note_on,,,,,0,0,2,,,0,,,67,37
251160,note_on,,,,,0,0,2,,,0,,,65,37
251160,note_on,,,,,0,0,2,,,0,,,60,37
251200,set_tempo,,,,,40,1,0,555556,,,,,,
251220,set_tempo,,,,,20,1,0,560748,,,,,,
251280,set_tempo,,,,,60,1,0,566038,,,,,,
251280,note_on,,,,,0,0,2,,,0,,,60,34
251280,note_off,,,,,120,0,2,,,0,,,60,64
251280,note_off,,,,,0,0,2,,,0,,,65,64
251280,note_on,,,,,0,0,2,,,0,,,65,34
251280,note_off,,,,,0,0,2,,,0,,,67,64
251280,note_on,,,,,0,0,2,,,0,,,67,34
251300,set_tempo,,,,,20,1,0,576923,,,,,,
251340,set_tempo,,,,,40,1,0,582524,,,,,,
251360,set_tempo,,,,,20,1,0,588235,,,,,,
251380,set_tempo,,,,,20,1,0,600000,,,,,,
251400,note_on,,,,,0,0,2,,,0,,,67,32
251400,note_on,,,,,0,0,2,,,0,,,60,32
251400,note_on,,,,,0,0,2,,,0,,,65,32
251400,note_off,,,,,0,0,2,,,0,,,67,64
251400,note_off,,,,,0,0,2,,,0,,,65,64
251400,note_off,,,,,120,0,2,,,0,,,60,64
251440,set_tempo,,,,,60,1,0,606061,,,,,,
251460,note_off,,,,,420,0,1,,,0,,,74,64
251460,set_tempo,,,,,20,1,0,618557,,,,,,
251460,note_off,,,,,0,0,1,,,0,,,71,64
251480,set_tempo,,,,,20,1,0,625000,,,,,,
251500,control_change,,,,,40,0,1,,,0,64,0,,
251520,set_tempo,,,,,40,1,0,750000,,,,,,
251520,note_on,,,,,0,0,2,,,0,,,60,33
251520,note_on,,,,,0,0,1,,,0,,,76,43
251520,note_off,,,,,120,0,2,,,0,,,60,64
251520,note_off,,,,,0,0,2,,,0,,,65,64
251520,note_off,,,,,0,0,2,,,0,,,67,64
251520,note_on,,,,,0,0,2,,,0,,,67,33
251520,note_on,,,,,0,0,2,,,0,,,64,33
251520,note_on,,,,,20,0,1,,,0,,,72,43
251580,set_tempo,,,,,60,1,0,638298,,,,,,
251640,note_off,,,,,120,0,2,,,0,,,60,64
251640,note_on,,,,,0,0,2,,,0,,,60,39
251640,note_off,,,,,0,0,2,,,0,,,64,64
251640,note_on,,,,,0,0,2,,,0,,,67,39
251640,set_tempo,,,,,60,1,0,625000,,,,,,
251640,note_on,,,,,0,0,2,,,0,,,64,39
251640,note_off,,,,,0,0,2,,,0,,,67,64
251740,note_off,,,,,0,0,1,,,0,,,72,64
251740,note_off,,,,,220,0,1,,,0,,,76,64
251760,note_on,,,,,20,0,1,,,0,,,74,50
251760,note_on,,,,,0,0,1,,,0,,,76,50
251760,note_on,,,,,0,0,2,,,0,,,60,43
251760,set_tempo,,,,,120,1,0,606061,,,,,,
251760,note_on,,,,,0,0,2,,,0,,,68,43
251760,note_off,,,,,120,0,2,,,0,,,60,64
251760,note_off,,,,,0,0,2,,,0,,,64,64
251760,note_on,,,,,0,0,2,,,0,,,64,43
251760,note_off,,,,,0,0,2,,,0,,,67,64
251800,set_tempo,,,,,40,1,0,600000,,,,,,
251820,note_on,,,,,0,0,1,,,0,,,72,42
251820,note_off,,,,,60,0,1,,,0,,,74,64
251880,note_on,,,,,0,0,2,,,0,,,60,37
251880,note_on,,,,,0,0,1,,,0,,,71,40
251880,note_off,,,,,0,0,2,,,0,,,68,64
251880,note_off,,,,,60,0,1,,,0,,,72,64
251880,note_off,,,,,0,0,2,,,0,,,64,64
251880,note_off,,,,,120,0,2,,,0,,,60,64
251880,note_on,,,,,0,0,2,,,0,,,68,37
251880,note_on,,,,,0,0,2,,,0,,,64,37
251940,note_on,,,,,0,0,1,,,0,,,74,37
251940,note_off,,,,,60,0,1,,,0,,,71,64
251960,set_tempo,,,,,160,1,0,576923,,,,,,
251980,note_off,,,,,40,0,1,,,0,,,76,64
252000,note_on,,,,,0,0,1,,,0,,,76,41
252000,note_on,,,,,0,0,2,,,0,,,69,36
252000,note_off,,,,,120,0,2,,,0,,,60,64
252000,note_off,,,,,0,0,2,,,0,,,64,64
252000,note_off,,,,,0,0,2,,,0,,,68,64
252000,note_on,,,,,0,0,1,,,0,,,72,41
252000,note_off,,,,,20,0,1,,,0,,,74,64
252000,note_on,,,,,0,0,2,,,0,,,64,36
252000,note_on,,,,,0,0,2,,,0,,,60,36
252120,note_on,,,,,0,0,2,,,0,,,64,42
252120,note_on,,,,,0,0,2,,,0,,,60,42
252120,note_off,,,,,0,0,2,,,0,,,69,64
252120,note_on,,,,,0,0,2,,,0,,,69,42
252120,note_off,,,,,120,0,2,,,0,,,60,64
252120,note_off,,,,,0,0,2,,,0,,,64,64
252200,set_tempo,,,,,240,1,0,550459,,,,,,
252220,note_off,,,,,220,0,1,,,0,,,76,64
252220,note_off,,,,,0,0,1,,,0,,,72,64
252240,note_on,,,,,0,0,1,,,0,,,76,48
252240,note_on,,,,,0,0,2,,,0,,,60,45
252240,note_on,,,,,0,0,2,,,0,,,64,45
252240,note_on,,,,,0,0,2,,,0,,,68,45
252240,note_off,,,,,0,0,2,,,0,,,64,64
252240,note_off,,,,,120,0,2,,,0,,,60,64
252240,note_on,,,,,20,0,1,,,0,,,74,48
252240,note_off,,,,,0,0,2,,,0,,,69,64
252300,note_off,,,,,60,0,1,,,0,,,74,64
252300,note_on,,,,,0,0,1,,,0,,,72,45
252320,set_tempo,,,,,120,1,0,540541,,,,,,
252340,set_tempo,,,,,20,1,0,535714,,,,,,
252360,note_off,,,,,0,0,2,,,0,,,64,64
252360,note_on,,,,,0,0,1,,,0,,,71,41
252360,note_off,,,,,60,0,1,,,0,,,72,64
252360,note_on,,,,,0,0,2,,,0,,,60,36
252360,note_on,,,,,0,0,2,,,0,,,64,36
252360,note_on,,,,,0,0,2,,,0,,,68,36
252360,note_off,,,,,0,0,2,,,0,,,68,64
252360,note_off,,,,,120,0,2,,,0,,,60,64
252400,set_tempo,,,,,60,1,0,530973,,,,,,
252420,note_on,,,,,0,0,1,,,0,,,74,38
252420,note_off,,,,,60,0,1,,,0,,,71,64
252420,set_tempo,,,,,20,1,0,526316,,,,,,
252440,set_tempo,,,,,20,1,0,512821,,,,,,
252460,note_off,,,,,40,0,1,,,0,,,76,64
252480,note_off,,,,,20,0,1,,,0,,,74,64
252480,note_on,,,,,0,0,1,,,0,,,76,43
252480,note_on,,,,,0,0,1,,,0,,,72,43
252480,note_off,,,,,120,0,2,,,0,,,60,64
252480,note_off,,,,,0,0,2,,,0,,,64,64
252480,note_off,,,,,0,0,2,,,0,,,68,64
252480,set_tempo,,,,,40,1,0,517241,,,,,,
252480,note_on,,,,,0,0,2,,,0,,,69,43
252480,note_on,,,,,0,0,2,,,0,,,64,43
252480,note_on,,,,,0,0,2,,,0,,,60,43
252600,note_on,,,,,0,0,2,,,0,,,64,48
252600,note_off,,,,,0,0,2,,,0,,,69,64
252600,note_on,,,,,0,0,2,,,0,,,69,48
252600,note_on,,,,,0,0,2,,,0,,,60,48
252600,note_off,,,,,120,0,2,,,0,,,60,64
252600,note_off,,,,,0,0,2,,,0,,,64,64
252700,note_off,,,,,0,0,1,,,0,,,76,64
252700,note_off,,,,,220,0,1,,,0,,,72,64
252720,set_tempo,,,,,240,1,0,545455,,,,,,
252720,note_on,,,,,20,0,1,,,0,,,76,55
252720,note_on,,,,,0,0,2,,,0,,,60,58
252720,note_on,,,,,0,0,2,,,0,,,64,58
252720,note_on,,,,,0,0,2,,,0,,,67,58
252720,note_off,,,,,0,0,2,,,0,,,69,64
252720,note_off,,,,,120,0,2,,,0,,,60,64
252720,note_on,,,,,0,0,1,,,0,,,71,55
252720,note_off,,,,,0,0,2,,,0,,,64,64
252780,note_off,,,,,60,0,1,,,0,,,76,64
252780,note_on,,,,,0,0,1,,,0,,,78,60
252840,note_off,,,,,60,0,1,,,0,,,78,64
252840,note_on,,,,,0,0,1,,,0,,,79,64
252840,note_on,,,,,0,0,2,,,0,,,64,70
252840,note_on,,,,,0,0,2,,,0,,,67,70
252840,note_off,,,,,120,0,2,,,0,,,60,64
252840,note_on,,,,,0,0,2,,,0,,,60,70
252840,note_off,,,,,0,0,2,,,0,,,64,64
252840,note_off,,,,,0,0,2,,,0,,,67,64
252880,set_tempo,,,,,160,1,0,571429,,,,,,
252900,note_on,,,,,0,0,1,,,0,,,78,66
252900,note_off,,,,,60,0,1,,,0,,,79,64
252940,note_off,,,,,40,0,1,,,0,,,71,64
252960,note_off,,,,,20,0,1,,,0,,,78,64
252960,note_on,,,,,0,0,2,,,0,,,60,77
252960,note_off,,,,,120,0,2,,,0,,,60,64
252960,note_off,,,,,0,0,2,,,0,,,64,64
252960,note_off,,,,,0,0,2,,,0,,,67,64
252960,note_on,,,,,0,0,2,,,0,,,66,77
252960,note_on,,,,,0,0,2,,,0,,,64,77
252960,note_on,,,,,0,0,1,,,0,,,76,68
252960,control_change,,,,,0,0,1,,,0,64,95,,
252960,note_on,,,,,0,0,1,,,0,,,69,68
252960,set_tempo,,,,,80,1,0,600000,,,,,,
253080,note_off,,,,,120,0,2,,,0,,,60,64
253080,note_off,,,,,0,0,2,,,0,,,64,64
253080,note_off,,,,,0,0,2,,,0,,,66,64
253080,note_on,,,,,0,0,2,,,0,,,66,62
253080,note_on,,,,,0,0,2,,,0,,,64,62
253080,note_on,,,,,0,0,2,,,0,,,60,62
253120,set_tempo,,,,,160,1,0,625000,,,,,,
253180,note_off,,,,,220,0,1,,,0,,,76,64
253180,note_off,,,,,0,0,1,,,0,,,69,64
253200,note_on,,,,,0,0,2,,,0,,,60,52
253200,note_on,,,,,0,0,2,,,0,,,64,52
253200,note_on,,,,,0,0,2,,,0,,,66,52
253200,note_on,,,,,20,0,1,,,0,,,70,49
253200,note_on,,,,,0,0,1,,,0,,,76,49
253200,note_on,,,,,0,0,1,,,0,,,78,49
253200,note_off,,,,,0,0,2,,,0,,,66,64
253200,note_off,,,,,0,0,2,,,0,,,64,64
253200,note_off,,,,,120,0,2,,,0,,,60,64
253280,set_tempo,,,,,160,1,0,659341,,,,,,
253300,set_tempo,,,,,20,1,0,681818,,,,,,
253320,note_on,,,,,0,0,2,,,0,,,64,39
253320,set_tempo,,,,,20,1,0,674157,,,,,,
253320,note_on,,,,,0,0,2,,,0,,,60,39
253320,note_on,,,,,0,0,2,,,0,,,66,39
253320,note_off,,,,,0,0,2,,,0,,,64,64
253320,note_off,,,,,120,0,2,,,0,,,60,64
253320,note_off,,,,,0,0,2,,,0,,,66,64
253340,set_tempo,,,,,20,1,0,681818,,,,,,
253360,set_tempo,,,,,20,1,0,705882,,,,,,
253380,set_tempo,,,,,20,1,0,923077,,,,,,
253410,control_change,,,,,210,0,1,,,0,64,0,,
253420,note_off,,,,,0,0,1,,,0,,,76,64
253420,note_off,,,,,0,0,1,,,0,,,70,64
253420,note_off,,,,,10,0,1,,,0,,,78,64
253440,note_on,,,,,20,0,1,,,0,,,75,43
253440,note_on,,,,,0,0,2,,,0,,,59,36
253440,control_change,,,,,0,0,1,,,0,64,96,,
253440,note_on,,,,,0,0,2,,,0,,,66,36
253440,note_off,,,,,0,0,2,,,0,,,66,64
253440,note_off,,,,,0,0,2,,,0,,,64,64
253440,note_off,,,,,120,0,2,,,0,,,60,64
253440,note_on,,,,,0,0,1,,,0,,,78,43
253440,note_on,,,,,0,0,1,,,0,,,71,43
253440,note_on,,,,,0,0,2,,,0,,,63,36
253520,set_tempo,,,,,140,1,0,594059,,,,,,
253540,set_tempo,,,,,20,1,0,588235,,,,,,
253560,note_off,,,,,0,0,2,,,0,,,66,64
253560,note_on,,,,,0,0,2,,,0,,,59,35
253560,note_on,,,,,0,0,2,,,0,,,63,35
253560,note_on,,,,,0,0,2,,,0,,,66,35
253560,note_off,,,,,0,0,2,,,0,,,63,64
253560,note_off,,,,,120,0,2,,,0,,,59,64
253620,set_tempo,,,,,80,1,0,582524,,,,,,
253650,note_off,,,,,0,0,2,,,0,,,63,64
253650,note_off,,,,,90,0,2,,,0,,,59,64
253650,note_off,,,,,0,0,2,,,0,,,66,64
253660,set_tempo,,,,,40,1,0,576923,,,,,,
253680,note_on,,,,,0,0,2,,,0,,,59,36
253680,note_on,,,,,0,0,2,,,0,,,63,36
253680,note_on,,,,,30,0,2,,,0,,,66,36
253740,set_tempo,,,,,80,1,0,571429,,,,,,
253760,set_tempo,,,,,20,1,0,566038,,,,,,
253770,note_off,,,,,0,0,2,,,0,,,66,64
253770,note_off,,,,,90,0,2,,,0,,,59,64
253770,note_off,,,,,0,0,2,,,0,,,63,64
253800,note_on,,,,,0,0,2,,,0,,,59,39
253800,note_on,,,,,30,0,2,,,0,,,66,39
253800,note_on,,,,,0,0,2,,,0,,,63,39
253890,note_off,,,,,0,0,2,,,0,,,66,64
253890,note_off,,,,,0,0,2,,,0,,,63,64
253890,note_off,,,,,90,0,2,,,0,,,59,64
253900,set_tempo,,,,,140,1,0,560748,,,,,,
253910,control_change,,,,,470,0,1,,,0,64,0,,
253920,note_off,,,,,0,0,1,,,0,,,78,64
253920,note_off,,,,,0,0,1,,,0,,,75,64
253920,control_change,,,,,0,0,1,,,0,64,96,,
253920,note_on,,,,,30,0,2,,,0,,,66,42
253920,note_on,,,,,0,0,2,,,0,,,63,42
253920,note_off,,,,,10,0,1,,,0,,,71,64
253920,note_on,,,,,0,0,2,,,0,,,59,42
254040,note_off,,,,,120,0,2,,,0,,,59,64
254040,note_off,,,,,0,0,2,,,0,,,66,64
254040,note_on,,,,,0,0,2,,,0,,,66,38
254040,note_on,,,,,0,0,2,,,0,,,63,38
254040,note_on,,,,,0,0,2,,,0,,,59,38
254040,note_off,,,,,0,0,2,,,0,,,63,64
254060,set_tempo,,,,,160,1,0,555556,,,,,,
254130,note_off,,,,,90,0,2,,,0,,,59,64
254130,note_off,,,,,0,0,2,,,0,,,63,64
254130,note_off,,,,,0,0,2,,,0,,,66,64
254160,note_on,,,,,30,0,2,,,0,,,66,31
254160,note_on,,,,,0,0,2,,,0,,,63,31
254160,note_on,,,,,0,0,2,,,0,,,59,31
254200,set_tempo,,,,,140,1,0,550459,,,,,,
254250,note_off,,,,,0,0,2,,,0,,,66,64
254250,note_off,,,,,90,0,2,,,0,,,59,64
254250,note_off,,,,,0,0,2,,,0,,,63,64
254280,note_on,,,,,30,0,2,,,0,,,66,27
254280,note_on,,,,,0,0,2,,,0,,,63,27
254280,note_on,,,,,0,0,2,,,0,,,59,27
254370,note_off,,,,,0,0,2,,,0,,,66,64
254370,note_off,,,,,90,0,2,,,0,,,59,64
254370,note_off,,,,,0,0,2,,,0,,,63,64
254380,control_change,,,,,460,0,1,,,0,64,0,,
254400,note_on,,,,,30,0,2,,,0,,,66,24
254400,note_on,,,,,0,0,2,,,0,,,63,24
254400,note_on,,,,,0,0,2,,,0,,,59,24
254400,control_change,,,,,0,0,1,,,0,64,96,,
254400,note_on,,,,,20,0,1,,,0,,,78,49
254440,set_tempo,,,,,240,1,0,545455,,,,,,
254500,set_tempo,,,,,60,1,0,540541,,,,,,
254520,note_on,,,,,0,0,2,,,0,,,59,18
254520,note_on,,,,,0,0,2,,,0,,,63,18
254520,note_on,,,,,0,0,2,,,0,,,66,18
254520,note_off,,,,,0,0,2,,,0,,,66,64
254520,note_off,,,,,0,0,2,,,0,,,63,64
254520,note_off,,,,,120,0,2,,,0,,,59,64
254540,set_tempo,,,,,40,1,0,535714,,,,,,
254560,set_tempo,,,,,20,1,0,530973,,,,,,
254620,set_tempo,,,,,60,1,0,526316,,,,,,
254640,note_off,,,,,0,0,2,,,0,,,63,64
254640,note_on,,,,,0,0,2,,,0,,,63,26
254640,note_off,,,,,120,0,2,,,0,,,59,64
254640,note_on,,,,,0,0,2,,,0,,,59,26
254640,note_off,,,,,0,0,2,,,0,,,66,64
254640,note_on,,,,,0,0,2,,,0,,,66,26
254640,note_on,,,,,0,0,1,,,0,,,76,32
254640,set_tempo,,,,,20,1,0,521739,,,,,,
254640,note_off,,,,,240,0,1,,,0,,,78,64
254700,note_on,,,,,0,0,1,,,0,,,75,36
254700,set_tempo,,,,,60,1,0,517241,,,,,,
254700,note_off,,,,,60,0,1,,,0,,,76,64
254740,set_tempo,,,,,40,1,0,512821,,,,,,
254760,note_on,,,,,0,0,1,,,0,,,73,38
254760,note_on,,,,,0,0,2,,,0,,,59,29
254760,note_off,,,,,60,0,1,,,0,,,75,64
254760,note_on,,,,,0,0,2,,,0,,,63,29
254760,note_off,,,,,120,0,2,,,0,,,59,64
254760,note_off,,,,,0,0,2,,,0,,,63,64
254760,note_off,,,,,0,0,2,,,0,,,66,64
254760,note_on,,,,,0,0,2,,,0,,,66,29
254780,set_tempo,,,,,40,1,0,508475,,,,,,
254820,note_off,,,,,60,0,1,,,0,,,73,64
254820,set_tempo,,,,,40,1,0,504202,,,,,,
254820,note_on,,,,,0,0,1,,,0,,,71,41
254860,control_change,,,,,40,0,1,,,0,64,0,,
254880,set_tempo,,,,,60,1,0,588235,,,,,,
254880,note_on,,,,,0,0,2,,,0,,,59,30
254880,note_off,,,,,20,0,1,,,0,,,71,64
254880,note_on,,,,,0,0,1,,,0,,,80,55
254880,control_change,,,,,0,0,1,,,0,64,95,,
254880,note_on,,,,,0,0,2,,,0,,,64,30
254880,note_on,,,,,0,0,2,,,0,,,68,30
254880,note_off,,,,,120,0,2,,,0,,,59,64
254880,note_off,,,,,0,0,2,,,0,,,63,64
254880,note_off,,,,,0,0,2,,,0,,,66,64
255000,note_on,,,,,0,0,2,,,0,,,64,29
255000,note_on,,,,,0,0,2,,,0,,,59,29
255000,note_off,,,,,120,0,2,,,0,,,59,64
255000,set_tempo,,,,,120,1,0,500000,,,,,,
255000,note_off,,,,,0,0,2,,,0,,,68,64
255000,note_off,,,,,0,0,2,,,0,,,64,64
255000,note_on,,,,,0,0,2,,,0,,,68,29
255120,note_on,,,,,0,0,2,,,0,,,59,25
255120,note_off,,,,,120,0,2,,,0,,,59,64
255120,note_off,,,,,0,0,2,,,0,,,64,64
255120,note_off,,,,,0,0,2,,,0,,,68,64
255120,note_on,,,,,0,0,2,,,0,,,68,25
255120,note_on,,,,,0,0,2,,,0,,,64,25
255240,note_on,,,,,0,0,2,,,0,,,59,23
255240,note_on,,,,,0,0,2,,,0,,,64,23
255240,note_on,,,,,0,0,2,,,0,,,68,23
255240,note_off,,,,,0,0,2,,,0,,,68,64
255240,note_off,,,,,0,0,2,,,0,,,64,64
255240,note_off,,,,,120,0,2,,,0,,,59,64
255300,note_off,,,,,420,0,1,,,0,,,80,64
255340,control_change,,,,,40,0,1,,,0,64,0,,
255360,note_off,,,,,120,0,2,,,0,,,59,64
255360,note_on,,,,,0,0,2,,,0,,,63,28
255360,control_change,,,,,0,0,1,,,0,64,96,,
255360,note_on,,,,,20,0,1,,,0,,,78,44
255360,note_off,,,,,0,0,2,,,0,,,68,64
255360,note_on,,,,,0,0,2,,,0,,,66,28
255360,note_on,,,,,0,0,2,,,0,,,59,28
255360,note_off,,,,,0,0,2,,,0,,,64,64
255480,note_off,,,,,0,0,2,,,0,,,63,64
255480,note_off,,,,,0,0,2,,,0,,,66,64
255480,note_on,,,,,0,0,2,,,0,,,66,24
255480,note_off,,,,,120,0,2,,,0,,,59,64
255480,note_on,,,,,0,0,2,,,0,,,63,24
255480,note_on,,,,,0,0,2,,,0,,,59,24
255600,note_off,,,,,120,0,2,,,0,,,59,64
255600,note_off,,,,,0,0,2,,,0,,,63,64
255600,note_on,,,,,0,0,2,,,0,,,66,29
255600,note_on,,,,,0,0,2,,,0,,,63,29
255600,note_off,,,,,240,0,1,,,0,,,78,64
255600,note_on,,,,,0,0,1,,,0,,,76,36
255600,note_on,,,,,0,0,2,,,0,,,59,29
255600,note_off,,,,,0,0,2,,,0,,,66,64
255660,note_off,,,,,60,0,1,,,0,,,76,64
255660,note_on,,,,,0,0,1,,,0,,,75,38
255720,note_on,,,,,0,0,1,,,0,,,73,41
255720,note_off,,,,,120,0,2,,,0,,,59,64
255720,note_off,,,,,0,0,2,,,0,,,63,64
255720,note_off,,,,,0,0,2,,,0,,,66,64
255720,note_on,,,,,0,0,2,,,0,,,63,31
255720,note_on,,,,,0,0,2,,,0,,,66,31
255720,note_off,,,,,60,0,1,,,0,,,75,64
255720,note_on,,,,,0,0,2,,,0,,,59,31
255760,set_tempo,,,,,760,1,0,566038,,,,,,
255780,note_off,,,,,60,0,1,,,0,,,73,64
255780,note_on,,,,,0,0,1,,,0,,,71,43
255820,set_tempo,,,,,60,1,0,504202,,,,,,
255820,control_change,,,,,40,0,1,,,0,64,0,,
255840,note_off,,,,,0,0,2,,,0,,,66,64
255840,note_on,,,,,0,0,2,,,0,,,66,33
255840,note_on,,,,,0,0,2,,,0,,,64,33
255840,note_on,,,,,0,0,2,,,0,,,59,33
255840,note_off,,,,,0,0,2,,,0,,,63,64
255840,note_on,,,,,0,0,1,,,0,,,73,45
255840,note_off,,,,,120,0,2,,,0,,,59,64
255840,note_off,,,,,20,0,1,,,0,,,71,64
255840,note_on,,,,,0,0,1,,,0,,,70,45
255840,control_change,,,,,0,0,1,,,0,64,95,,
255940,set_tempo,,,,,120,1,0,521739,,,,,,
255960,set_tempo,,,,,20,1,0,535714,,,,,,
255960,note_off,,,,,120,0,2,,,0,,,59,64
255960,note_off,,,,,0,0,2,,,0,,,64,64
255960,note_off,,,,,0,0,2,,,0,,,66,64
255960,note_on,,,,,0,0,2,,,0,,,66,33
255960,note_on,,,,,0,0,2,,,0,,,64,33
255960,note_on,,,,,0,0,2,,,0,,,59,33
256000,set_tempo,,,,,40,1,0,555556,,,,,,
256020,set_tempo,,,,,20,1,0,560748,,,,,,
256080,note_off,,,,,120,0,2,,,0,,,59,64
256080,note_on,,,,,0,0,2,,,0,,,66,29
256080,note_on,,,,,0,0,2,,,0,,,64,29
256080,note_on,,,,,0,0,2,,,0,,,59,29
256080,set_tempo,,,,,60,1,0,566038,,,,,,
256080,note_off,,,,,0,0,2,,,0,,,64,64
256080,note_off,,,,,0,0,2,,,0,,,66,64
256100,set_tempo,,,,,20,1,0,576923,,,,,,
256140,set_tempo,,,,,40,1,0,582524,,,,,,
256160,set_tempo,,,,,20,1,0,588235,,,,,,
256180,set_tempo,,,,,20,1,0,600000,,,,,,
256200,note_off,,,,,120,0,2,,,0,,,59,64
256200,note_off,,,,,0,0,2,,,0,,,64,64
256200,note_off,,,,,0,0,2,,,0,,,66,64
256200,note_on,,,,,0,0,2,,,0,,,66,28
256200,note_on,,,,,0,0,2,,,0,,,59,28
256200,note_on,,,,,0,0,2,,,0,,,64,28
256240,set_tempo,,,,,60,1,0,606061,,,,,,
256260,set_tempo,,,,,20,1,0,618557,,,,,,
256260,note_off,,,,,420,0,1,,,0,,,73,64
256260,note_off,,,,,0,0,1,,,0,,,70,64
256280,set_tempo,,,,,20,1,0,625000,,,,,,
256300,control_change,,,,,40,0,1,,,0,64,0,,
256320,note_off,,,,,0,0,2,,,0,,,64,64
256320,set_tempo,,,,,40,1,0,750000,,,,,,
256320,note_on,,,,,20,0,1,,,0,,,71,43
256320,note_off,,,,,120,0,2,,,0,,,59,64
256320,note_on,,,,,0,0,1,,,0,,,75,43
256320,note_on,,,,,0,0,2,,,0,,,63,33
256320,note_on,,,,,0,0,2,,,0,,,59,33
256320,note_on,,,,,0,0,2,,,0,,,66,33
256320,note_off,,,,,0,0,2,,,0,,,66,64
256380,set_tempo,,,,,60,1,0,638298,,,,,,
256440,note_on,,,,,0,0,2,,,0,,,59,39
256440,note_on,,,,,0,0,2,,,0,,,63,39
256440,note_on,,,,,0,0,2,,,0,,,66,39
256440,note_off,,,,,0,0,2,,,0,,,63,64
256440,note_off,,,,,120,0,2,,,0,,,59,64
256440,set_tempo,,,,,60,1,0,625000,,,,,,
256440,note_off,,,,,0,0,2,,,0,,,66,64
256540,note_off,,,,,220,0,1,,,0,,,75,64
256540,note_off,,,,,0,0,1,,,0,,,71,64
256560,note_on,,,,,20,0,1,,,0,,,76,50
256560,note_off,,,,,120,0,2,,,0,,,59,64
256560,set_tempo,,,,,120,1,0,606061,,,,,,
256560,note_on,,,,,0,0,1,,,0,,,71,50
256560,note_off,,,,,0,0,2,,,0,,,63,64
256560,note_on,,,,,0,0,2,,,0,,,64,43
256560,note_on,,,,,0,0,2,,,0,,,59,43
256560,note_on,,,,,0,0,2,,,0,,,67,43
256560,note_off,,,,,0,0,2,,,0,,,66,64
256600,set_tempo,,,,,40,1,0,600000,,,,,,
256620,note_on,,,,,0,0,1,,,0,,,78,42
256620,note_off,,,,,60,0,1,,,0,,,76,64
256680,note_on,,,,,0,0,1,,,0,,,79,40
256680,note_on,,,,,0,0,2,,,0,,,59,37
256680,note_on,,,,,0,0,2,,,0,,,64,37
256680,note_on,,,,,0,0,2,,,0,,,67,37
256680,note_off,,,,,0,0,2,,,0,,,67,64
256680,note_off,,,,,120,0,2,,,0,,,59,64
256680,note_off,,,,,60,0,1,,,0,,,78,64
256680,note_off,,,,,0,0,2,,,0,,,64,64
256740,note_off,,,,,60,0,1,,,0,,,79,64
256740,note_on,,,,,0,0,1,,,0,,,76,37
256760,set_tempo,,,,,160,1,0,576923,,,,,,
256780,note_off,,,,,40,0,1,,,0,,,71,64
256800,note_on,,,,,0,0,2,,,0,,,66,36
256800,note_on,,,,,0,0,2,,,0,,,69,36
256800,note_off,,,,,0,0,2,,,0,,,67,64
256800,note_on,,,,,0,0,1,,,0,,,75,41
256800,note_off,,,,,20,0,1,,,0,,,76,64
256800,note_off,,,,,120,0,2,,,0,,,59,64
256800,note_on,,,,,0,0,2,,,0,,,59,36
256800,note_on,,,,,0,0,1,,,0,,,71,41
256800,note_off,,,,,0,0,2,,,0,,,64,64
256920,note_off,,,,,0,0,2,,,0,,,66,64
256920,note_off,,,,,120,0,2,,,0,,,59,64
256920,note_off,,,,,0,0,2,,,0,,,69,64
256920,note_on,,,,,0,0,2,,,0,,,66,42
256920,note_on,,,,,0,0,2,,,0,,,69,42
256920,note_on,,,,,0,0,2,,,0,,,59,42
257000,set_tempo,,,,,240,1,0,550459,,,,,,
257020,note_off,,,,,220,0,1,,,0,,,71,64
257020,note_off,,,,,0,0,1,,,0,,,75,64
257040,note_off,,,,,0,0,2,,,0,,,69,64
257040,note_off,,,,,0,0,2,,,0,,,66,64
257040,note_off,,,,,120,0,2,,,0,,,59,64
257040,note_on,,,,,0,0,2,,,0,,,59,45
257040,note_on,,,,,0,0,1,,,0,,,71,40
257040,note_on,,,,,20,0,1,,,0,,,76,40
257040,note_on,,,,,0,0,2,,,0,,,67,45
257040,note_on,,,,,0,0,2,,,0,,,64,45
257100,note_on,,,,,0,0,1,,,0,,,78,43
257100,note_off,,,,,60,0,1,,,0,,,76,64
257120,set_tempo,,,,,120,1,0,540541,,,,,,
257140,set_tempo,,,,,20,1,0,535714,,,,,,
257160,note_off,,,,,120,0,2,,,0,,,59,64
257160,note_off,,,,,60,0,1,,,0,,,78,64
257160,note_on,,,,,0,0,2,,,0,,,59,36
257160,note_on,,,,,0,0,2,,,0,,,64,36
257160,note_on,,,,,0,0,2,,,0,,,67,36
257160,note_off,,,,,0,0,2,,,0,,,67,64
257160,note_off,,,,,0,0,2,,,0,,,64,64
257160,note_on,,,,,0,0,1,,,0,,,79,44
257200,set_tempo,,,,,60,1,0,530973,,,,,,
257220,note_on,,,,,0,0,1,,,0,,,76,46
257220,note_off,,,,,60,0,1,,,0,,,79,64
257220,set_tempo,,,,,20,1,0,526316,,,,,,
257240,set_tempo,,,,,20,1,0,512821,,,,,,
257260,note_off,,,,,40,0,1,,,0,,,71,64
257280,note_off,,,,,20,0,1,,,0,,,76,64
257280,note_on,,,,,0,0,2,,,0,,,59,39
257280,set_tempo,,,,,40,1,0,517241,,,,,,
257280,note_on,,,,,0,0,1,,,0,,,75,48
257280,note_off,,,,,120,0,2,,,0,,,59,64
257280,note_off,,,,,0,0,2,,,0,,,64,64
257280,note_off,,,,,0,0,2,,,0,,,67,64
257280,note_on,,,,,0,0,2,,,0,,,69,39
257280,note_on,,,,,0,0,2,,,0,,,66,39
257280,note_on,,,,,0,0,1,,,0,,,71,48
257400,note_off,,,,,120,0,2,,,0,,,59,64
257400,note_on,,,,,0,0,2,,,0,,,59,46
257400,note_off,,,,,0,0,2,,,0,,,69,64
257400,note_off,,,,,0,0,2,,,0,,,66,64
257400,note_on,,,,,0,0,2,,,0,,,69,46
257400,note_on,,,,,0,0,2,,,0,,,66,46
257500,note_off,,,,,220,0,1,,,0,,,71,64
257500,note_off,,,,,0,0,1,,,0,,,75,64
257520,note_off,,,,,120,0,2,,,0,,,59,64
257520,note_off,,,,,0,0,2,,,0,,,66,64
257520,note_on,,,,,0,0,2,,,0,,,59,51
257520,note_on,,,,,0,0,2,,,0,,,66,51
257520,note_on,,,,,0,0,2,,,0,,,69,51
257520,note_on,,,,,0,0,1,,,0,,,81,58
257520,note_off,,,,,0,0,2,,,0,,,69,64
257520,set_tempo,,,,,240,1,0,545455,,,,,,
257520,note_on,,,,,20,0,1,,,0,,,74,58
257580,note_on,,,,,0,0,1,,,0,,,83,59
257580,note_off,,,,,60,0,1,,,0,,,81,64
257640,note_on,,,,,0,0,2,,,0,,,59,53
257640,note_on,,,,,0,0,1,,,0,,,84,61
257640,note_on,,,,,0,0,2,,,0,,,66,53
257640,note_on,,,,,0,0,2,,,0,,,69,53
257640,note_off,,,,,0,0,2,,,0,,,69,64
257640,note_off,,,,,0,0,2,,,0,,,66,64
257640,note_off,,,,,120,0,2,,,0,,,59,64
257640,note_off,,,,,60,0,1,,,0,,,83,64
257680,set_tempo,,,,,160,1,0,571429,,,,,,
257700,note_off,,,,,60,0,1,,,0,,,84,64
257700,note_on,,,,,0,0,1,,,0,,,81,63
257740,note_off,,,,,40,0,1,,,0,,,74,64
257760,control_change,,,,,0,0,1,,,0,64,95,,
257760,note_on,,,,,0,0,1,,,0,,,76,64
257760,note_off,,,,,20,0,1,,,0,,,81,64
257760,note_on,,,,,0,0,2,,,0,,,60,56
257760,note_on,,,,,0,0,2,,,0,,,64,56
257760,note_on,,,,,0,0,2,,,0,,,67,56
257760,note_off,,,,,0,0,2,,,0,,,66,64
257760,note_off,,,,,0,0,2,,,0,,,69,64
257760,set_tempo,,,,,80,1,0,600000,,,,,,
257760,note_off,,,,,120,0,2,,,0,,,59,64
257760,note_on,,,,,0,0,1,,,0,,,79,64
257880,note_off,,,,,120,0,2,,,0,,,60,64
257880,note_off,,,,,0,0,2,,,0,,,64,64
257880,note_off,,,,,0,0,2,,,0,,,67,64
257880,note_on,,,,,0,0,2,,,0,,,67,53
257880,note_on,,,,,0,0,2,,,0,,,64,53
257880,note_on,,,,,0,0,2,,,0,,,60,53
257920,set_tempo,,,,,160,1,0,625000,,,,,,
257980,control_change,,,,,0,0,1,,,0,64,0,,
257980,note_off,,,,,0,0,1,,,0,,,76,64
257980,note_off,,,,,220,0,1,,,0,,,79,64
258000,note_on,,,,,0,0,2,,,0,,,62,42
258000,note_on,,,,,0,0,2,,,0,,,65,42
258000,note_off,,,,,0,0,2,,,0,,,67,64
258000,note_on,,,,,20,0,1,,,0,,,71,52
258000,note_on,,,,,0,0,1,,,0,,,79,52
258000,note_on,,,,,0,0,1,,,0,,,77,52
258000,control_change,,,,,0,0,1,,,0,64,95,,
258000,note_on,,,,,0,0,2,,,0,,,67,42
258000,note_off,,,,,120,0,2,,,0,,,60,64
258000,note_off,,,,,0,0,2,,,0,,,64,64
258080,set_tempo,,,,,160,1,0,659341,,,,,,
258100,set_tempo,,,,,20,1,0,681818,,,,,,
258120,note_on,,,,,0,0,2,,,0,,,62,34
258120,set_tempo,,,,,20,1,0,674157,,,,,,
258120,note_off,,,,,120,0,2,,,0,,,62,64
258120,note_off,,,,,0,0,2,,,0,,,65,64
258120,note_off,,,,,0,0,2,,,0,,,67,64
258120,note_on,,,,,0,0,2,,,0,,,65,34
258120,note_on,,,,,0,0,2,,,0,,,67,34
258140,set_tempo,,,,,20,1,0,681818,,,,,,
258160,set_tempo,,,,,20,1,0,705882,,,,,,
258180,set_tempo,,,,,20,1,0,731707,,,,,,
258210,control_change,,,,,210,0,1,,,0,64,0,,
258220,note_off,,,,,0,0,1,,,0,,,71,64
258220,note_off,,,,,0,0,1,,,0,,,79,64
258220,note_off,,,,,10,0,1,,,0,,,77,64
258240,note_on,,,,,0,0,1,,,0,,,72,51
258240,control_change,,,,,0,0,1,,,0,64,96,,
258240,note_on,,,,,0,0,1,,,0,,,79,51
258240,note_on,,,,,20,0,1,,,0,,,76,51
258240,note_on,,,,,0,0,2,,,0,,,60,30
258240,note_on,,,,,0,0,2,,,0,,,67,30
258240,note_on,,,,,0,0,2,,,0,,,64,30
258240,note_off,,,,,0,0,2,,,0,,,65,64
258240,note_off,,,,,120,0,2,,,0,,,62,64
258240,note_off,,,,,0,0,2,,,0,,,67,64
258320,set_tempo,,,,,140,1,0,594059,,,,,,
258340,set_tempo,,,,,20,1,0,588235,,,,,,
258360,note_off,,,,,0,0,2,,,0,,,67,64
258360,note_off,,,,,120,0,2,,,0,,,60,64
258360,note_on,,,,,0,0,2,,,0,,,64,30
258360,note_on,,,,,0,0,2,,,0,,,60,30
258360,note_on,,,,,0,0,2,,,0,,,67,30
258360,note_off,,,,,0,0,2,,,0,,,64,64
258420,set_tempo,,,,,80,1,0,582524,,,,,,
258450,note_off,,,,,0,0,2,,,0,,,64,64
258450,note_off,,,,,90,0,2,,,0,,,60,64
258450,note_off,,,,,0,0,2,,,0,,,67,64
258460,set_tempo,,,,,40,1,0,576923,,,,,,
258480,note_on,,,,,30,0,2,,,0,,,67,31
258480,note_on,,,,,0,0,2,,,0,,,64,31
258480,note_on,,,,,0,0,2,,,0,,,60,31
258540,set_tempo,,,,,80,1,0,571429,,,,,,
258560,set_tempo,,,,,20,1,0,566038,,,,,,
258570,note_off,,,,,90,0,2,,,0,,,60,64
258570,note_off,,,,,0,0,2,,,0,,,67,64
258570,note_off,,,,,0,0,2,,,0,,,64,64
258600,note_on,,,,,0,0,2,,,0,,,60,33
258600,note_on,,,,,0,0,2,,,0,,,64,33
258600,note_on,,,,,30,0,2,,,0,,,67,33
258690,note_off,,,,,0,0,2,,,0,,,67,64
258690,note_off,,,,,0,0,2,,,0,,,64,64
258690,note_off,,,,,90,0,2,,,0,,,60,64
258700,set_tempo,,,,,140,1,0,560748,,,,,,
258710,control_change,,,,,470,0,1,,,0,64,0,,
258720,note_off,,,,,10,0,1,,,0,,,72,64
258720,note_off,,,,,0,0,1,,,0,,,79,64
258720,note_off,,,,,0,0,1,,,0,,,76,64
258720,control_change,,,,,0,0,1,,,0,64,96,,
258720,note_on,,,,,0,0,2,,,0,,,60,38
258720,note_on,,,,,0,0,2,,,0,,,64,38
258720,note_on,,,,,30,0,2,,,0,,,67,38
258840,note_off,,,,,0,0,2,,,0,,,64,64
258840,note_on,,,,,0,0,2,,,0,,,64,34
258840,note_off,,,,,0,0,2,,,0,,,67,64
258840,note_off,,,,,120,0,2,,,0,,,60,64
258840,note_on,,,,,0,0,2,,,0,,,67,34
258840,note_on,,,,,0,0,2,,,0,,,60,34
258860,set_tempo,,,,,160,1,0,555556,,,,,,
258930,note_off,,,,,90,0,2,,,0,,,60,64
258930,note_off,,,,,0,0,2,,,0,,,64,64
258930,note_off,,,,,0,0,2,,,0,,,67,64
258960,note_on,,,,,30,0,2,,,0,,,67,30
258960,note_on,,,,,0,0,2,,,0,,,64,30
258960,note_on,,,,,0,0,2,,,0,,,60,30
259000,set_tempo,,,,,140,1,0,550459,,,,,,
259050,note_off,,,,,90,0,2,,,0,,,60,64
259050,note_off,,,,,0,0,2,,,0,,,64,64
259050,note_off,,,,,0,0,2,,,0,,,67,64
259080,note_on,,,,,0,0,2,,,0,,,64,26
259080,note_on,,,,,30,0,2,,,0,,,67,26
259080,note_on,,,,,0,0,2,,,0,,,60,26
259170,note_off,,,,,0,0,2,,,0,,,67,64
259170,note_off,,,,,90,0,2,,,0,,,60,64
259170,note_off,,,,,0,0,2,,,0,,,64,64
259200,control_change,,,,,0,0,1,,,0,64,96,,
259200,note_on,,,,,30,0,2,,,0,,,67,39
259200,note_on,,,,,0,0,2,,,0,,,64,39
259200,note_on,,,,,0,0,2,,,0,,,60,39
259200,set_tempo,,,,,200,1,0,545455,,,,,,
259200,note_on,,,,,480,0,1,,,0,,,91,60
259320,note_off,,,,,120,0,2,,,0,,,60,64
259320,note_off,,,,,0,0,2,,,0,,,64,64
259320,note_off,,,,,0,0,2,,,0,,,67,64
259320,note_on,,,,,0,0,2,,,0,,,67,33
259320,note_on,,,,,0,0,2,,,0,,,64,33
259320,note_on,,,,,0,0,2,,,0,,,60,33
259380,set_tempo,,,,,180,1,0,540541,,,,,,
259440,note_on,,,,,0,0,2,,,0,,,64,34
259440,note_off,,,,,120,0,2,,,0,,,60,64
259440,note_off,,,,,0,0,2,,,0,,,64,64
259440,note_on,,,,,0,0,2,,,0,,,67,34
259440,note_off,,,,,0,0,2,,,0,,,67,64
259440,note_on,,,,,0,0,2,,,0,,,60,34
259440,note_on,,,,,0,0,1,,,0,,,89,52
259440,note_off,,,,,240,0,1,,,0,,,91,64
259500,note_on,,,,,0,0,1,,,0,,,88,58
259500,note_off,,,,,60,0,1,,,0,,,89,64
259520,set_tempo,,,,,140,1,0,535714,,,,,,
259560,note_off,,,,,60,0,1,,,0,,,88,64
259560,note_on,,,,,0,0,1,,,0,,,86,65
259560,note_on,,,,,0,0,2,,,0,,,60,38
259560,note_on,,,,,0,0,2,,,0,,,64,38
259560,note_on,,,,,0,0,2,,,0,,,67,38
259560,note_off,,,,,0,0,2,,,0,,,67,64
259560,note_off,,,,,0,0,2,,,0,,,64,64
259560,note_off,,,,,120,0,2,,,0,,,60,64
259620,note_off,,,,,60,0,1,,,0,,,86,64
259620,note_on,,,,,0,0,1,,,0,,,84,68
259640,set_tempo,,,,,120,1,0,530973,,,,,,
259660,control_change,,,,,40,0,1,,,0,64,0,,
259680,control_change,,,,,0,0,1,,,0,64,95,,
259680,note_on,,,,,0,0,1,,,0,,,93,70
259680,note_off,,,,,20,0,1,,,0,,,84,64
259680,note_off,,,,,120,0,2,,,0,,,60,64
259680,note_off,,,,,0,0,2,,,0,,,64,64
259680,note_off,,,,,0,0,2,,,0,,,67,64
259680,note_on,,,,,0,0,2,,,0,,,60,41
259680,note_on,,,,,0,0,2,,,0,,,65,41
259680,note_on,,,,,0,0,2,,,0,,,69,41
259720,set_tempo,,,,,80,1,0,526316,,,,,,
259740,note_off,,,,,60,0,1,,,0,,,93,64
259740,note_on,,,,,0,0,1,,,0,,,91,67
259800,note_on,,,,,0,0,2,,,0,,,69,37
259800,note_off,,,,,120,0,2,,,0,,,60,64
259800,note_off,,,,,0,0,2,,,0,,,69,64
259800,note_on,,,,,0,0,1,,,0,,,89,63
259800,note_off,,,,,0,0,2,,,0,,,65,64
259800,note_off,,,,,60,0,1,,,0,,,91,64
259800,note_on,,,,,0,0,2,,,0,,,60,37
259800,note_on,,,,,0,0,2,,,0,,,65,37
259820,set_tempo,,,,,100,1,0,521739,,,,,,
259860,note_off,,,,,60,0,1,,,0,,,89,64
259860,note_on,,,,,0,0,1,,,0,,,88,59
259920,note_on,,,,,0,0,2,,,0,,,69,34
259920,note_off,,,,,0,0,2,,,0,,,65,64
259920,note_off,,,,,120,0,2,,,0,,,60,64
259920,note_on,,,,,0,0,2,,,0,,,65,34
259920,note_on,,,,,0,0,2,,,0,,,60,34
259920,note_off,,,,,60,0,1,,,0,,,88,64
259920,note_off,,,,,0,0,2,,,0,,,69,64
259920,note_on,,,,,0,0,1,,,0,,,86,55
259980,note_off,,,,,60,0,1,,,0,,,86,64
259980,note_on,,,,,0,0,1,,,0,,,84,50
260040,note_off,,,,,0,0,2,,,0,,,65,64
260040,note_off,,,,,120,0,2,,,0,,,60,64
260040,note_off,,,,,0,0,2,,,0,,,69,64
260040,note_on,,,,,0,0,2,,,0,,,65,32
260040,note_on,,,,,0,0,2,,,0,,,60,32
260040,note_on,,,,,0,0,2,,,0,,,69,32
260040,note_on,,,,,0,0,1,,,0,,,83,49
260040,set_tempo,,,,,220,1,0,517241,,,,,,
260040,note_off,,,,,60,0,1,,,0,,,84,64
260100,note_off,,,,,60,0,1,,,0,,,83,64
260100,note_on,,,,,0,0,1,,,0,,,81,47
260120,set_tempo,,,,,80,1,0,512821,,,,,,
260140,control_change,,,,,40,0,1,,,0,64,0,,
260160,note_off,,,,,0,0,2,,,0,,,69,64
260160,note_on,,,,,0,0,2,,,0,,,64,39
260160,note_off,,,,,120,0,2,,,0,,,60,64
260160,note_off,,,,,0,0,2,,,0,,,65,64
260160,note_on,,,,,0,0,2,,,0,,,60,39
260160,note_on,,,,,0,0,2,,,0,,,67,39
260160,control_change,,,,,0,0,1,,,0,64,96,,
260160,note_off,,,,,20,0,1,,,0,,,81,64
260160,note_on,,,,,0,0,1,,,0,,,79,61
260260,set_tempo,,,,,140,1,0,508475,,,,,,
260280,note_on,,,,,0,0,2,,,0,,,67,33
260280,note_off,,,,,120,0,2,,,0,,,60,64
260280,note_off,,,,,0,0,2,,,0,,,64,64
260280,note_off,,,,,0,0,2,,,0,,,67,64
260280,note_on,,,,,0,0,2,,,0,,,64,33
260280,note_on,,,,,0,0,2,,,0,,,60,33
260400,note_off,,,,,0,0,2,,,0,,,67,64
260400,note_off,,,,,0,0,2,,,0,,,64,64
260400,note_off,,,,,240,0,1,,,0,,,79,64
260400,note_on,,,,,0,0,2,,,0,,,67,34
260400,note_on,,,,,0,0,2,,,0,,,64,34
260400,note_off,,,,,120,0,2,,,0,,,60,64
260400,note_on,,,,,0,0,1,,,0,,,77,52
260400,set_tempo,,,,,140,1,0,504202,,,,,,
260400,note_on,,,,,0,0,2,,,0,,,60,34
260460,note_on,,,,,0,0,1,,,0,,,76,55
260460,note_off,,,,,60,0,1,,,0,,,77,64
260520,note_on,,,,,0,0,1,,,0,,,74,60
260520,note_off,,,,,60,0,1,,,0,,,76,64
260520,note_off,,,,,0,0,2,,,0,,,64,64
260520,note_off,,,,,0,0,2,,,0,,,67,64
260520,note_on,,,,,0,0,2,,,0,,,67,38
260520,note_on,,,,,0,0,2,,,0,,,64,38
260520,note_off,,,,,120,0,2,,,0,,,60,64
260520,note_on,,,,,0,0,2,,,0,,,60,38
260580,note_on,,,,,0,0,1,,,0,,,72,63
260580,note_off,,,,,60,0,1,,,0,,,74,64
260620,control_change,,,,,40,0,1,,,0,64,0,,
260640,note_on,,,,,0,0,2,,,0,,,60,41
260640,note_off,,,,,20,0,1,,,0,,,72,64
260640,note_on,,,,,0,0,1,,,0,,,74,69
260640,control_change,,,,,0,0,1,,,0,64,95,,
260640,note_off,,,,,120,0,2,,,0,,,60,64
260640,note_off,,,,,0,0,2,,,0,,,64,64
260640,note_off,,,,,0,0,2,,,0,,,67,64
260640,note_on,,,,,0,0,2,,,0,,,67,41
260640,note_on,,,,,0,0,2,,,0,,,65,41
260700,note_off,,,,,60,0,1,,,0,,,74,64
260700,note_on,,,,,0,0,1,,,0,,,76,67
260740,set_tempo,,,,,340,1,0,508475,,,,,,
260760,note_off,,,,,60,0,1,,,0,,,76,64
260760,note_off,,,,,0,0,2,,,0,,,65,64
260760,note_off,,,,,0,0,2,,,0,,,67,64
260760,note_on,,,,,0,0,2,,,0,,,67,37
260760,note_on,,,,,0,0,2,,,0,,,65,37
260760,note_on,,,,,0,0,1,,,0,,,77,65
260760,note_off,,,,,120,0,2,,,0,,,60,64
260760,note_on,,,,,0,0,2,,,0,,,60,37
260780,set_tempo,,,,,40,1,0,512821,,,,,,
260820,note_on,,,,,0,0,1,,,0,,,79,62
260820,note_off,,,,,60,0,1,,,0,,,77,64
260880,note_off,,,,,120,0,2,,,0,,,60,64
260880,note_off,,,,,0,0,2,,,0,,,65,64
260880,note_off,,,,,0,0,2,,,0,,,67,64
260880,note_on,,,,,0,0,2,,,0,,,67,34
260880,note_on,,,,,0,0,2,,,0,,,65,34
260880,note_on,,,,,0,0,2,,,0,,,60,34
260880,note_off,,,,,60,0,1,,,0,,,79,64
260880,note_on,,,,,0,0,1,,,0,,,81,58
260900,set_tempo,,,,,120,1,0,517241,,,,,,
260920,set_tempo,,,,,20,1,0,521739,,,,,,
260940,note_off,,,,,60,0,1,,,0,,,81,64
260940,note_on,,,,,0,0,1,,,0,,,83,55
260980,set_tempo,,,,,60,1,0,530973,,,,,,
261000,note_off,,,,,60,0,1,,,0,,,83,64
261000,note_on,,,,,0,0,1,,,0,,,84,55
261000,set_tempo,,,,,20,1,0,540541,,,,,,
261000,note_off,,,,,0,0,2,,,0,,,65,64
261000,note_off,,,,,0,0,2,,,0,,,67,64
261000,note_on,,,,,0,0,2,,,0,,,60,32
261000,note_on,,,,,0,0,2,,,0,,,65,32
261000,note_on,,,,,0,0,2,,,0,,,67,32
261000,note_off,,,,,120,0,2,,,0,,,60,64
261040,set_tempo,,,,,40,1,0,545455,,,,,,
261060,note_on,,,,,0,0,1,,,0,,,86,59
261060,note_off,,,,,60,0,1,,,0,,,84,64
261060,set_tempo,,,,,20,1,0,550459,,,,,,
261080,set_tempo,,,,,20,1,0,560748,,,,,,
261100,control_change,,,,,40,0,1,,,0,64,0,,
261100,set_tempo,,,,,20,1,0,659341,,,,,,
261120,note_on,,,,,0,0,1,,,0,,,88,62
261120,note_on,,,,,0,0,1,,,0,,,84,62
261120,note_off,,,,,20,0,1,,,0,,,86,64
261120,note_on,,,,,0,0,2,,,0,,,64,33
261120,note_off,,,,,120,0,2,,,0,,,60,64
261120,note_off,,,,,0,0,2,,,0,,,65,64
261120,note_off,,,,,0,0,2,,,0,,,67,64
261120,note_on,,,,,0,0,2,,,0,,,67,33
261120,note_on,,,,,0,0,2,,,0,,,60,33
261180,set_tempo,,,,,80,1,0,600000,,,,,,
261240,note_on,,,,,0,0,2,,,0,,,64,39
261240,note_on,,,,,0,0,2,,,0,,,67,39
261240,note_on,,,,,0,0,2,,,0,,,60,39
261240,note_off,,,,,0,0,2,,,0,,,64,64
261240,note_off,,,,,0,0,2,,,0,,,67,64
261240,note_off,,,,,120,0,2,,,0,,,60,64
261260,set_tempo,,,,,80,1,0,588235,,,,,,
261340,set_tempo,,,,,80,1,0,582524,,,,,,
261340,note_off,,,,,220,0,1,,,0,,,88,64
261340,note_off,,,,,0,0,1,,,0,,,84,64
261360,note_on,,,,,0,0,2,,,0,,,60,43
261360,note_on,,,,,0,0,2,,,0,,,68,43
261360,note_on,,,,,0,0,1,,,0,,,88,63
261360,note_off,,,,,0,0,2,,,0,,,67,64
261360,note_off,,,,,0,0,2,,,0,,,64,64
261360,note_on,,,,,20,0,1,,,0,,,86,63
261360,set_tempo,,,,,20,1,0,576923,,,,,,
261360,note_off,,,,,120,0,2,,,0,,,60,64
261360,note_on,,,,,0,0,2,,,0,,,64,43
261420,note_off,,,,,60,0,1,,,0,,,86,64
261420,set_tempo,,,,,60,1,0,571429,,,,,,
261420,note_on,,,,,0,0,1,,,0,,,84,62
261480,note_on,,,,,0,0,1,,,0,,,83,58
261480,note_off,,,,,60,0,1,,,0,,,84,64
261480,note_on,,,,,0,0,2,,,0,,,60,37
261480,note_on,,,,,0,0,2,,,0,,,64,37
261480,note_on,,,,,0,0,2,,,0,,,68,37
261480,note_off,,,,,0,0,2,,,0,,,68,64
261480,note_off,,,,,0,0,2,,,0,,,64,64
261480,note_off,,,,,120,0,2,,,0,,,60,64
261500,set_tempo,,,,,80,1,0,566038,,,,,,
261520,set_tempo,,,,,20,1,0,560748,,,,,,
261540,note_off,,,,,60,0,1,,,0,,,83,64
261540,note_on,,,,,0,0,1,,,0,,,86,54
261580,note_off,,,,,40,0,1,,,0,,,88,64
261600,note_on,,,,,0,0,2,,,0,,,60,36
261600,note_on,,,,,0,0,2,,,0,,,64,36
261600,note_on,,,,,0,0,2,,,0,,,69,36
261600,note_off,,,,,0,0,2,,,0,,,68,64
261600,note_off,,,,,0,0,2,,,0,,,64,64
261600,note_off,,,,,120,0,2,,,0,,,60,64
261600,note_off,,,,,20,0,1,,,0,,,86,64
261600,note_on,,,,,0,0,1,,,0,,,84,61
261600,note_on,,,,,0,0,1,,,0,,,88,61
261720,note_on,,,,,0,0,2,,,0,,,60,42
261720,note_on,,,,,0,0,2,,,0,,,64,42
261720,note_on,,,,,0,0,2,,,0,,,69,42
261720,note_off,,,,,0,0,2,,,0,,,69,64
261720,note_off,,,,,120,0,2,,,0,,,60,64
261720,note_off,,,,,0,0,2,,,0,,,64,64
261780,set_tempo,,,,,260,1,0,550459,,,,,,
261820,note_off,,,,,220,0,1,,,0,,,88,64
261820,note_off,,,,,0,0,1,,,0,,,84,64
261840,note_on,,,,,0,0,2,,,0,,,64,45
261840,set_tempo,,,,,60,1,0,545455,,,,,,
261840,note_on,,,,,20,0,1,,,0,,,86,60
261840,note_on,,,,,0,0,1,,,0,,,88,60
261840,note_off,,,,,120,0,2,,,0,,,60,64
261840,note_off,,,,,0,0,2,,,0,,,64,64
261840,note_off,,,,,0,0,2,,,0,,,69,64
261840,note_on,,,,,0,0,2,,,0,,,60,45
261840,note_on,,,,,0,0,2,,,0,,,68,45
261900,note_on,,,,,0,0,1,,,0,,,84,59
261900,note_off,,,,,60,0,1,,,0,,,86,64
261900,set_tempo,,,,,60,1,0,540541,,,,,,
261960,note_off,,,,,120,0,2,,,0,,,60,64
261960,note_on,,,,,0,0,1,,,0,,,83,56
261960,note_off,,,,,60,0,1,,,0,,,84,64
261960,note_on,,,,,0,0,2,,,0,,,60,36
261960,note_on,,,,,0,0,2,,,0,,,64,36
261960,note_on,,,,,0,0,2,,,0,,,68,36
261960,note_off,,,,,0,0,2,,,0,,,68,64
261960,note_off,,,,,0,0,2,,,0,,,64,64
261980,set_tempo,,,,,80,1,0,535714,,,,,,
262000,set_tempo,,,,,20,1,0,530973,,,,,,
262020,note_off,,,,,60,0,1,,,0,,,83,64
262020,note_on,,,,,0,0,1,,,0,,,86,54
262040,set_tempo,,,,,40,1,0,526316,,,,,,
262060,note_off,,,,,40,0,1,,,0,,,88,64
262080,note_off,,,,,120,0,2,,,0,,,60,64
262080,note_off,,,,,0,0,2,,,0,,,64,64
262080,note_off,,,,,0,0,2,,,0,,,68,64
262080,note_on,,,,,0,0,2,,,0,,,69,38
262080,note_on,,,,,0,0,2,,,0,,,64,38
262080,note_on,,,,,0,0,2,,,0,,,60,38
262080,note_on,,,,,0,0,1,,,0,,,88,64
262080,note_off,,,,,20,0,1,,,0,,,86,64
262080,note_on,,,,,0,0,1,,,0,,,84,64
262160,set_tempo,,,,,120,1,0,521739,,,,,,
262200,note_on,,,,,0,0,2,,,0,,,60,46
262200,note_on,,,,,0,0,2,,,0,,,64,46
262200,note_on,,,,,0,0,2,,,0,,,69,46
262200,note_off,,,,,0,0,2,,,0,,,69,64
262200,note_off,,,,,0,0,2,,,0,,,64,64
262200,note_off,,,,,120,0,2,,,0,,,60,64
262300,note_off,,,,,220,0,1,,,0,,,84,64
262300,note_off,,,,,0,0,1,,,0,,,88,64
262320,note_off,,,,,120,0,2,,,0,,,60,64
262320,note_off,,,,,0,0,2,,,0,,,64,64
262320,note_off,,,,,0,0,2,,,0,,,69,64
262320,note_on,,,,,0,0,2,,,0,,,67,52
262320,note_on,,,,,0,0,2,,,0,,,64,52
262320,note_on,,,,,0,0,2,,,0,,,60,52
262320,set_tempo,,,,,160,1,0,517241,,,,,,
262320,note_on,,,,,20,0,1,,,0,,,88,67
262320,note_on,,,,,0,0,1,,,0,,,83,67
262340,set_tempo,,,,,20,1,0,545455,,,,,,
262380,note_off,,,,,60,0,1,,,0,,,88,64
262380,note_on,,,,,0,0,1,,,0,,,90,69
262440,note_off,,,,,120,0,2,,,0,,,60,64
262440,note_off,,,,,0,0,2,,,0,,,67,64
262440,note_on,,,,,0,0,2,,,0,,,67,59
262440,note_on,,,,,0,0,2,,,0,,,64,59
262440,note_on,,,,,0,0,2,,,0,,,60,59
262440,note_off,,,,,0,0,2,,,0,,,64,64
262440,note_off,,,,,60,0,1,,,0,,,90,64
262440,note_on,,,,,0,0,1,,,0,,,91,72
262480,set_tempo,,,,,140,1,0,571429,,,,,,
262500,note_off,,,,,60,0,1,,,0,,,91,64
262500,note_on,,,,,0,0,1,,,0,,,90,74
262540,note_off,,,,,40,0,1,,,0,,,83,64
262560,note_on,,,,,0,0,2,,,0,,,60,65
262560,set_tempo,,,,,80,1,0,600000,,,,,,
262560,note_off,,,,,120,0,2,,,0,,,60,64
262560,note_on,,,,,0,0,2,,,0,,,64,65
262560,note_off,,,,,0,0,2,,,0,,,67,64
262560,note_off,,,,,0,0,2,,,0,,,64,64
262560,control_change,,,,,0,0,1,,,0,64,95,,
262560,note_on,,,,,0,0,1,,,0,,,88,76
262560,note_on,,,,,0,0,1,,,0,,,81,76
262560,note_off,,,,,20,0,1,,,0,,,90,64
262560,note_on,,,,,0,0,2,,,0,,,66,65
262680,note_off,,,,,120,0,2,,,0,,,60,64
262680,note_off,,,,,0,0,2,,,0,,,64,64
262680,note_off,,,,,0,0,2,,,0,,,66,64
262680,note_on,,,,,0,0,2,,,0,,,66,57
262680,note_on,,,,,0,0,2,,,0,,,64,57
262680,note_on,,,,,0,0,2,,,0,,,60,57
262720,set_tempo,,,,,160,1,0,625000,,,,,,
262780,note_off,,,,,220,0,1,,,0,,,88,64
262780,note_off,,,,,0,0,1,,,0,,,81,64
262800,note_on,,,,,0,0,1,,,0,,,88,59
262800,note_off,,,,,120,0,2,,,0,,,60,64
262800,note_on,,,,,20,0,1,,,0,,,82,59
262800,note_on,,,,,0,0,1,,,0,,,90,59
262800,note_off,,,,,0,0,2,,,0,,,66,64
262800,note_off,,,,,0,0,2,,,0,,,64,64
262800,note_on,,,,,0,0,2,,,0,,,64,49
262800,note_on,,,,,0,0,2,,,0,,,60,49
262800,note_on,,,,,0,0,2,,,0,,,66,49
262880,set_tempo,,,,,160,1,0,659341,,,,,,
262900,set_tempo,,,,,20,1,0,681818,,,,,,
262920,note_off,,,,,0,0,2,,,0,,,64,64
262920,note_off,,,,,120,0,2,,,0,,,60,64
262920,note_on,,,,,0,0,2,,,0,,,60,41
262920,set_tempo,,,,,20,1,0,674157,,,,,,
262920,note_on,,,,,0,0,2,,,0,,,64,41
262920,note_on,,,,,0,0,2,,,0,,,66,41
262920,note_off,,,,,0,0,2,,,0,,,66,64
262940,set_tempo,,,,,20,1,0,681818,,,,,,
262960,set_tempo,,,,,20,1,0,705882,,,,,,
262980,set_tempo,,,,,20,1,0,923077,,,,,,
263010,control_change,,,,,210,0,1,,,0,64,0,,
263020,note_off,,,,,0,0,1,,,0,,,88,64
263020,note_off,,,,,0,0,1,,,0,,,82,64
263020,note_off,,,,,10,0,1,,,0,,,90,64
263040,note_on,,,,,0,0,2,,,0,,,59,36
263040,note_on,,,,,0,0,2,,,0,,,63,36
263040,note_on,,,,,0,0,2,,,0,,,66,36
263040,note_off,,,,,0,0,2,,,0,,,66,64
263040,note_off,,,,,0,0,2,,,0,,,64,64
263040,note_off,,,,,120,0,2,,,0,,,60,64
263040,control_change,,,,,0,0,1,,,0,64,96,,
263040,note_on,,,,,0,0,1,,,0,,,83,47
263040,note_on,,,,,0,0,1,,,0,,,90,47
263040,note_on,,,,,20,0,1,,,0,,,87,47
263120,set_tempo,,,,,140,1,0,594059,,,,,,
263140,set_tempo,,,,,20,1,0,588235,,,,,,
263160,note_off,,,,,120,0,2,,,0,,,59,64
263160,note_off,,,,,0,0,2,,,0,,,63,64
263160,note_off,,,,,0,0,2,,,0,,,66,64
263160,note_on,,,,,0,0,2,,,0,,,63,35
263160,note_on,,,,,0,0,2,,,0,,,59,35
263160,note_on,,,,,0,0,2,,,0,,,66,35
263220,set_tempo,,,,,80,1,0,582524,,,,,,
263250,note_off,,,,,90,0,2,,,0,,,59,64
263250,note_off,,,,,0,0,2,,,0,,,63,64
263250,note_off,,,,,0,0,2,,,0,,,66,64
263260,set_tempo,,,,,40,1,0,576923,,,,,,
263280,note_on,,,,,30,0,2,,,0,,,66,36
263280,note_on,,,,,0,0,2,,,0,,,63,36
263280,note_on,,,,,0,0,2,,,0,,,59,36
263340,set_tempo,,,,,80,1,0,571429,,,,,,
263360,set_tempo,,,,,20,1,0,566038,,,,,,
263370,note_off,,,,,0,0,2,,,0,,,66,64
263370,note_off,,,,,0,0,2,,,0,,,63,64
263370,note_off,,,,,90,0,2,,,0,,,59,64
263400,note_on,,,,,0,0,2,,,0,,,63,39
263400,note_on,,,,,30,0,2,,,0,,,66,39
263400,note_on,,,,,0,0,2,,,0,,,59,39
263490,note_off,,,,,90,0,2,,,0,,,59,64
263490,note_off,,,,,0,0,2,,,0,,,63,64
263490,note_off,,,,,0,0,2,,,0,,,66,64
263500,set_tempo,,,,,140,1,0,560748,,,,,,
263510,control_change,,,,,470,0,1,,,0,64,0,,
263520,note_off,,,,,10,0,1,,,0,,,83,64
263520,note_off,,,,,0,0,1,,,0,,,90,64
263520,note_off,,,,,0,0,1,,,0,,,87,64
263520,control_change,,,,,0,0,1,,,0,64,96,,
263520,note_on,,,,,0,0,2,,,0,,,63,42
263520,note_on,,,,,0,0,2,,,0,,,59,42
263520,note_on,,,,,30,0,2,,,0,,,66,42
263640,note_on,,,,,0,0,2,,,0,,,63,38
263640,note_on,,,,,0,0,2,,,0,,,66,38
263640,note_off,,,,,0,0,2,,,0,,,66,64
263640,note_off,,,,,0,0,2,,,0,,,63,64
263640,note_off,,,,,120,0,2,,,0,,,59,64
263640,note_on,,,,,0,0,2,,,0,,,59,38
263660,set_tempo,,,,,160,1,0,555556,,,,,,
263730,note_off,,,,,0,0,2,,,0,,,66,64
263730,note_off,,,,,0,0,2,,,0,,,63,64
263730,note_off,,,,,90,0,2,,,0,,,59,64
263760,note_on,,,,,0,0,2,,,0,,,59,31
263760,note_on,,,,,0,0,2,,,0,,,63,31
263760,note_on,,,,,30,0,2,,,0,,,66,31
263800,set_tempo,,,,,140,1,0,550459,,,,,,
263850,note_off,,,,,0,0,2,,,0,,,63,64
263850,note_off,,,,,0,0,2,,,0,,,66,64
263850,note_off,,,,,90,0,2,,,0,,,59,64
263880,note_on,,,,,30,0,2,,,0,,,66,27
263880,note_on,,,,,0,0,2,,,0,,,63,27
263880,note_on,,,,,0,0,2,,,0,,,59,27
263970,note_off,,,,,90,0,2,,,0,,,59,64
263970,note_off,,,,,0,0,2,,,0,,,63,64
263970,note_off,,,,,0,0,2,,,0,,,66,64
263980,control_change,,,,,460,0,1,,,0,64,0,,
263980,set_tempo,,,,,180,1,0,545455,,,,,,
264000,control_change,,,,,0,0,1,,,0,64,96,,
264000,note_on,,,,,20,0,1,,,0,,,90,50
264000,note_on,,,,,0,0,2,,,0,,,59,24
264000,note_on,,,,,0,0,2,,,0,,,63,24
264000,note_on,,,,,30,0,2,,,0,,,66,24
264120,note_off,,,,,0,0,2,,,0,,,63,64
264120,note_on,,,,,0,0,2,,,0,,,59,18
264120,note_on,,,,,0,0,2,,,0,,,63,18
264120,note_on,,,,,0,0,2,,,0,,,66,18
264120,note_off,,,,,0,0,2,,,0,,,66,64
264120,note_off,,,,,120,0,2,,,0,,,59,64
264180,set_tempo,,,,,200,1,0,540541,,,,,,
264240,note_on,,,,,0,0,2,,,0,,,59,26
264240,note_on,,,,,0,0,1,,,0,,,88,44
264240,note_on,,,,,0,0,2,,,0,,,63,26
264240,note_off,,,,,240,0,1,,,0,,,90,64
264240,note_on,,,,,0,0,2,,,0,,,66,26
264240,note_off,,,,,120,0,2,,,0,,,59,64
264240,note_off,,,,,0,0,2,,,0,,,63,64
264240,note_off,,,,,0,0,2,,,0,,,66,64
264260,set_tempo,,,,,80,1,0,535714,,,,,,
264300,note_off,,,,,60,0,1,,,0,,,88,64
264300,note_on,,,,,0,0,1,,,0,,,87,49
264360,note_off,,,,,120,0,2,,,0,,,59,64
264360,note_off,,,,,0,0,2,,,0,,,63,64
264360,note_off,,,,,0,0,2,,,0,,,66,64
264360,note_on,,,,,0,0,2,,,0,,,66,29
264360,note_on,,,,,0,0,2,,,0,,,63,29
264360,note_on,,,,,0,0,2,,,0,,,59,29
264360,note_off,,,,,60,0,1,,,0,,,87,64
264360,note_on,,,,,0,0,1,,,0,,,85,52
264420,note_on,,,,,0,0,1,,,0,,,83,55
264420,set_tempo,,,,,160,1,0,530973,,,,,,
264420,note_off,,,,,60,0,1,,,0,,,85,64
264460,control_change,,,,,40,0,1,,,0,64,0,,
264480,control_change,,,,,0,0,1,,,0,64,95,,
264480,note_on,,,,,0,0,2,,,0,,,59,30
264480,note_on,,,,,0,0,2,,,0,,,64,30
264480,note_on,,,,,0,0,1,,,0,,,92,58
264480,note_off,,,,,0,0,2,,,0,,,66,64
264480,note_on,,,,,0,0,2,,,0,,,68,30
264480,note_off,,,,,120,0,2,,,0,,,59,64
264480,note_off,,,,,20,0,1,,,0,,,83,64
264480,note_off,,,,,0,0,2,,,0,,,63,64
264540,note_on,,,,,0,0,1,,,0,,,90,59
264540,note_off,,,,,60,0,1,,,0,,,92,64
264560,set_tempo,,,,,140,1,0,526316,,,,,,
264600,note_off,,,,,120,0,2,,,0,,,59,64
264600,note_off,,,,,0,0,2,,,0,,,64,64
264600,note_off,,,,,0,0,2,,,0,,,68,64
264600,note_on,,,,,0,0,2,,,0,,,68,29
264600,note_on,,,,,0,0,2,,,0,,,64,29
264600,note_on,,,,,0,0,2,,,0,,,59,29
264600,note_off,,,,,60,0,1,,,0,,,90,64
264600,note_on,,,,,0,0,1,,,0,,,88,53
264660,note_off,,,,,60,0,1,,,0,,,88,64
264660,note_on,,,,,0,0,1,,,0,,,87,47
264720,note_off,,,,,120,0,2,,,0,,,59,64
264720,note_off,,,,,60,0,1,,,0,,,87,64
264720,note_off,,,,,0,0,2,,,0,,,64,64
264720,note_on,,,,,0,0,2,,,0,,,59,25
264720,note_on,,,,,0,0,2,,,0,,,64,25
264720,note_on,,,,,0,0,2,,,0,,,68,25
264720,note_off,,,,,0,0,2,,,0,,,68,64
264720,note_on,,,,,0,0,1,,,0,,,85,42
264780,note_off,,,,,60,0,1,,,0,,,85,64
264780,note_on,,,,,0,0,1,,,0,,,83,38
264840,note_on,,,,,0,0,2,,,0,,,59,23
264840,note_on,,,,,0,0,2,,,0,,,64,23
264840,note_on,,,,,0,0,2,,,0,,,68,23
264840,note_off,,,,,0,0,2,,,0,,,68,64
264840,note_off,,,,,0,0,2,,,0,,,64,64
264840,note_off,,,,,120,0,2,,,0,,,59,64
264840,note_on,,,,,0,0,1,,,0,,,82,41
264840,set_tempo,,,,,280,1,0,521739,,,,,,
264840,note_off,,,,,60,0,1,,,0,,,83,64
264900,note_off,,,,,60,0,1,,,0,,,82,64
264900,note_on,,,,,0,0,1,,,0,,,80,45
264940,control_change,,,,,40,0,1,,,0,64,0,,
264960,note_on,,,,,0,0,2,,,0,,,59,28
264960,note_on,,,,,0,0,2,,,0,,,63,28
264960,note_on,,,,,0,0,2,,,0,,,66,28
264960,note_off,,,,,0,0,2,,,0,,,68,64
264960,note_off,,,,,120,0,2,,,0,,,59,64
264960,note_off,,,,,20,0,1,,,0,,,80,64
264960,note_on,,,,,0,0,1,,,0,,,78,50
264960,control_change,,,,,0,0,1,,,0,64,96,,
264960,note_off,,,,,0,0,2,,,0,,,64,64
264980,set_tempo,,,,,140,1,0,517241,,,,,,
265040,set_tempo,,,,,60,1,0,512821,,,,,,
265080,note_off,,,,,0,0,2,,,0,,,66,64
265080,note_on,,,,,0,0,2,,,0,,,66,24
265080,note_on,,,,,0,0,2,,,0,,,63,24
265080,note_on,,,,,0,0,2,,,0,,,59,24
265080,note_off,,,,,0,0,2,,,0,,,63,64
265080,note_off,,,,,120,0,2,,,0,,,59,64
265160,set_tempo,,,,,120,1,0,508475,,,,,,
265200,note_off,,,,,0,0,2,,,0,,,66,64
265200,note_on,,,,,0,0,2,,,0,,,66,29
265200,note_on,,,,,0,0,2,,,0,,,63,29
265200,note_on,,,,,0,0,2,,,0,,,59,29
265200,note_off,,,,,240,0,1,,,0,,,78,64
265200,note_on,,,,,0,0,1,,,0,,,76,48
265200,note_off,,,,,0,0,2,,,0,,,63,64
265200,note_off,,,,,120,0,2,,,0,,,59,64
265260,note_on,,,,,0,0,1,,,0,,,75,55
265260,note_off,,,,,60,0,1,,,0,,,76,64
265320,note_off,,,,,60,0,1,,,0,,,75,64
265320,note_off,,,,,0,0,2,,,0,,,66,64
265320,note_off,,,,,0,0,2,,,0,,,63,64
265320,note_off,,,,,120,0,2,,,0,,,59,64
265320,note_on,,,,,0,0,2,,,0,,,59,31
265320,note_on,,,,,0,0,1,,,0,,,73,59
265320,note_on,,,,,0,0,2,,,0,,,66,31
265320,note_on,,,,,0,0,2,,,0,,,63,31
265380,note_on,,,,,0,0,1,,,0,,,71,60
265380,note_off,,,,,60,0,1,,,0,,,73,64
265400,set_tempo,,,,,240,1,0,504202,,,,,,
265420,control_change,,,,,40,0,1,,,0,64,0,,
265440,note_on,,,,,0,0,1,,,0,,,73,60
265440,note_off,,,,,120,0,2,,,0,,,59,64
265440,note_off,,,,,0,0,2,,,0,,,63,64
265440,note_off,,,,,0,0,2,,,0,,,66,64
265440,note_on,,,,,0,0,2,,,0,,,66,33
265440,note_on,,,,,0,0,2,,,0,,,64,33
265440,note_on,,,,,0,0,2,,,0,,,59,33
265440,control_change,,,,,0,0,1,,,0,64,95,,
265440,note_off,,,,,20,0,1,,,0,,,71,64
265500,note_on,,,,,0,0,1,,,0,,,75,57
265500,set_tempo,,,,,100,1,0,500000,,,,,,
265500,note_off,,,,,60,0,1,,,0,,,73,64
265560,note_on,,,,,0,0,2,,,0,,,59,33
265560,note_on,,,,,0,0,2,,,0,,,64,33
265560,note_on,,,,,0,0,1,,,0,,,76,53
265560,note_off,,,,,60,0,1,,,0,,,75,64
265560,note_off,,,,,120,0,2,,,0,,,59,64
265560,note_off,,,,,0,0,2,,,0,,,64,64
265560,note_off,,,,,0,0,2,,,0,,,66,64
265560,note_on,,,,,0,0,2,,,0,,,66,33
265620,note_off,,,,,60,0,1,,,0,,,76,64
265620,note_on,,,,,0,0,1,,,0,,,78,51
265680,note_on,,,,,0,0,2,,,0,,,64,29
265680,note_off,,,,,120,0,2,,,0,,,59,64
265680,note_off,,,,,0,0,2,,,0,,,64,64
265680,note_off,,,,,0,0,2,,,0,,,66,64
265680,note_on,,,,,0,0,2,,,0,,,66,29
265680,note_on,,,,,0,0,2,,,0,,,59,29
265680,note_on,,,,,0,0,1,,,0,,,80,47
265680,note_off,,,,,60,0,1,,,0,,,78,64
265740,note_on,,,,,0,0,1,,,0,,,82,43
265740,note_off,,,,,60,0,1,,,0,,,80,64
265780,set_tempo,,,,,280,1,0,504202,,,,,,
265800,note_on,,,,,0,0,2,,,0,,,66,28
265800,note_off,,,,,60,0,1,,,0,,,82,64
265800,note_on,,,,,0,0,2,,,0,,,59,28
265800,note_on,,,,,0,0,2,,,0,,,64,28
265800,note_on,,,,,0,0,1,,,0,,,83,42
265800,note_off,,,,,0,0,2,,,0,,,66,64
265800,note_off,,,,,0,0,2,,,0,,,64,64
265800,note_off,,,,,120,0,2,,,0,,,59,64
265820,set_tempo,,,,,40,1,0,512821,,,,,,
265840,set_tempo,,,,,20,1,0,659341,,,,,,
265860,set_tempo,,,,,20,1,0,600000,,,,,,
265860,note_on,,,,,0,0,1,,,0,,,85,45
265860,note_off,,,,,60,0,1,,,0,,,83,64
265900,control_change,,,,,40,0,1,,,0,64,0,,
265920,note_on,,,,,0,0,2,,,0,,,59,33
265920,note_off,,,,,120,0,2,,,0,,,59,64
265920,note_off,,,,,0,0,2,,,0,,,64,64
265920,note_on,,,,,0,0,2,,,0,,,66,33
265920,note_on,,,,,0,0,2,,,0,,,63,33
265920,note_off,,,,,0,0,2,,,0,,,66,64
265920,note_off,,,,,20,0,1,,,0,,,85,64
265920,note_on,,,,,0,0,1,,,0,,,83,50
265920,note_on,,,,,0,0,1,,,0,,,87,50
266040,note_off,,,,,120,0,2,,,0,,,59,64
266040,note_on,,,,,0,0,2,,,0,,,59,39
266040,note_off,,,,,0,0,2,,,0,,,63,64
266040,note_off,,,,,0,0,2,,,0,,,66,64
266040,note_on,,,,,0,0,2,,,0,,,66,39
266040,note_on,,,,,0,0,2,,,0,,,63,39
266140,note_off,,,,,220,0,1,,,0,,,87,64
266140,note_off,,,,,0,0,1,,,0,,,83,64
266160,note_off,,,,,0,0,2,,,0,,,63,64
266160,note_off,,,,,120,0,2,,,0,,,59,64
266160,note_on,,,,,0,0,2,,,0,,,67,43
266160,note_on,,,,,0,0,1,,,0,,,83,50
266160,note_on,,,,,20,0,1,,,0,,,88,50
266160,note_off,,,,,0,0,2,,,0,,,66,64
266160,note_on,,,,,0,0,2,,,0,,,59,43
266160,note_on,,,,,0,0,2,,,0,,,64,43
266160,set_tempo,,,,,300,1,0,606061,,,,,,
266200,set_tempo,,,,,40,1,0,600000,,,,,,
266220,note_off,,,,,60,0,1,,,0,,,88,64
266220,note_on,,,,,0,0,1,,,0,,,90,42
266280,note_on,,,,,0,0,2,,,0,,,59,37
266280,note_on,,,,,0,0,1,,,0,,,91,40
266280,note_off,,,,,120,0,2,,,0,,,59,64
266280,note_off,,,,,0,0,2,,,0,,,64,64
266280,note_off,,,,,0,0,2,,,0,,,67,64
266280,note_on,,,,,0,0,2,,,0,,,67,37
266280,note_on,,,,,0,0,2,,,0,,,64,37
266280,note_off,,,,,60,0,1,,,0,,,90,64
266340,note_off,,,,,60,0,1,,,0,,,91,64
266340,note_on,,,,,0,0,1,,,0,,,88,37
266360,set_tempo,,,,,160,1,0,576923,,,,,,
266380,note_off,,,,,40,0,1,,,0,,,83,64
266400,note_off,,,,,20,0,1,,,0,,,88,64
266400,note_on,,,,,0,0,1,,,0,,,87,41
266400,note_off,,,,,120,0,2,,,0,,,59,64
266400,note_off,,,,,0,0,2,,,0,,,64,64
266400,note_on,,,,,0,0,1,,,0,,,83,41
266400,note_on,,,,,0,0,2,,,0,,,69,36
266400,note_off,,,,,0,0,2,,,0,,,67,64
266400,note_on,,,,,0,0,2,,,0,,,59,36
266400,note_on,,,,,0,0,2,,,0,,,66,36
266520,note_off,,,,,0,0,2,,,0,,,69,64
266520,note_off,,,,,0,0,2,,,0,,,66,64
266520,note_off,,,,,120,0,2,,,0,,,59,64
266520,note_on,,,,,0,0,2,,,0,,,69,42
266520,note_on,,,,,0,0,2,,,0,,,59,42
266520,note_on,,,,,0,0,2,,,0,,,66,42
266600,set_tempo,,,,,240,1,0,550459,,,,,,
266620,note_off,,,,,0,0,1,,,0,,,87,64
266620,note_off,,,,,220,0,1,,,0,,,83,64
266640,note_off,,,,,120,0,2,,,0,,,59,64
266640,note_on,,,,,20,0,1,,,0,,,88,40
266640,note_on,,,,,0,0,2,,,0,,,64,45
266640,note_off,,,,,0,0,2,,,0,,,66,64
266640,note_off,,,,,0,0,2,,,0,,,69,64
266640,note_on,,,,,0,0,2,,,0,,,67,45
266640,note_on,,,,,0,0,2,,,0,,,59,45
266640,note_on,,,,,0,0,1,,,0,,,83,40
266700,note_off,,,,,60,0,1,,,0,,,88,64
266700,note_on,,,,,0,0,1,,,0,,,90,43
266720,set_tempo,,,,,120,1,0,540541,,,,,,
266740,set_tempo,,,,,20,1,0,535714,,,,,,
266760,note_on,,,,,0,0,2,,,0,,,67,36
266760,note_on,,,,,0,0,2,,,0,,,64,36
266760,note_off,,,,,60,0,1,,,0,,,90,64
266760,note_on,,,,,0,0,1,,,0,,,91,44
266760,note_on,,,,,0,0,2,,,0,,,59,36
266760,note_off,,,,,120,0,2,,,0,,,59,64
266760,note_off,,,,,0,0,2,,,0,,,64,64
266760,note_off,,,,,0,0,2,,,0,,,67,64
266800,set_tempo,,,,,60,1,0,530973,,,,,,
266820,set_tempo,,,,,20,1,0,526316,,,,,,
266820,note_on,,,,,0,0,1,,,0,,,88,46
266820,note_off,,,,,60,0,1,,,0,,,91,64
266840,set_tempo,,,,,20,1,0,512821,,,,,,
266860,note_off,,,,,40,0,1,,,0,,,83,64
266880,note_on,,,,,0,0,1,,,0,,,87,48
266880,note_on,,,,,0,0,1,,,0,,,83,48
266880,note_on,,,,,0,0,2,,,0,,,59,39
266880,note_on,,,,,0,0,2,,,0,,,66,39
266880,note_off,,,,,0,0,2,,,0,,,67,64
266880,note_off,,,,,0,0,2,,,0,,,64,64
266880,note_off,,,,,120,0,2,,,0,,,59,64
266880,set_tempo,,,,,40,1,0,517241,,,,,,
266880,note_off,,,,,20,0,1,,,0,,,88,64
266880,note_on,,,,,0,0,2,,,0,,,69,39
267000,note_off,,,,,0,0,2,,,0,,,69,64
267000,note_on,,,,,0,0,2,,,0,,,66,46
267000,note_on,,,,,0,0,2,,,0,,,69,46
267000,note_off,,,,,0,0,2,,,0,,,66,64
267000,note_off,,,,,120,0,2,,,0,,,59,64
267000,note_on,,,,,0,0,2,,,0,,,59,46
267100,note_off,,,,,220,0,1,,,0,,,83,64
267100,note_off,,,,,0,0,1,,,0,,,87,64
267120,set_tempo,,,,,240,1,0,545455,,,,,,
267120,note_on,,,,,0,0,2,,,0,,,66,51
267120,note_on,,,,,20,0,1,,,0,,,86,58
267120,note_on,,,,,0,0,2,,,0,,,69,51
267120,note_off,,,,,0,0,2,,,0,,,69,64
267120,note_off,,,,,0,0,2,,,0,,,66,64
267120,note_off,,,,,120,0,2,,,0,,,59,64
267120,note_on,,,,,0,0,2,,,0,,,59,51
267120,note_on,,,,,0,0,1,,,0,,,93,58
267180,note_on,,,,,0,0,1,,,0,,,95,59
267180,note_off,,,,,60,0,1,,,0,,,93,64
267240,note_off,,,,,120,0,2,,,0,,,59,64
267240,note_off,,,,,0,0,2,,,0,,,66,64
267240,note_off,,,,,0,0,2,,,0,,,69,64
267240,note_on,,,,,0,0,2,,,0,,,66,53
267240,note_on,,,,,0,0,1,,,0,,,96,61
267240,note_off,,,,,60,0,1,,,0,,,95,64
267240,note_on,,,,,0,0,2,,,0,,,59,53
267240,note_on,,,,,0,0,2,,,0,,,69,53
267280,set_tempo,,,,,160,1,0,571429,,,,,,
267300,note_on,,,,,0,0,1,,,0,,,93,63
267300,note_off,,,,,60,0,1,,,0,,,96,64
267340,note_off,,,,,40,0,1,,,0,,,86,64
267360,control_change,,,,,0,0,1,,,0,64,95,,
267360,note_on,,,,,0,0,1,,,0,,,91,64
267360,note_on,,,,,0,0,1,,,0,,,88,64
267360,note_off,,,,,20,0,1,,,0,,,93,64
267360,set_tempo,,,,,80,1,0,600000,,,,,,
267360,note_off,,,,,120,0,2,,,0,,,59,64
267360,note_off,,,,,0,0,2,,,0,,,69,64
267360,note_on,,,,,0,0,2,,,0,,,67,56
267360,note_on,,,,,0,0,2,,,0,,,64,56
267360,note_on,,,,,0,0,2,,,0,,,60,56
267360,note_off,,,,,0,0,2,,,0,,,66,64
267480,note_off,,,,,0,0,2,,,0,,,64,64
267480,note_off,,,,,120,0,2,,,0,,,60,64
267480,note_on,,,,,0,0,2,,,0,,,64,53
267480,note_on,,,,,0,0,2,,,0,,,60,53
267480,note_on,,,,,0,0,2,,,0,,,67,53
267480,note_off,,,,,0,0,2,,,0,,,67,64
267520,set_tempo,,,,,160,1,0,625000,,,,,,
267580,control_change,,,,,0,0,1,,,0,64,0,,
267580,note_off,,,,,220,0,1,,,0,,,91,64
267580,note_off,,,,,0,0,1,,,0,,,88,64
267600,note_on,,,,,0,0,2,,,0,,,62,42
267600,note_on,,,,,0,0,2,,,0,,,65,42
267600,note_on,,,,,0,0,1,,,0,,,91,52
267600,note_on,,,,,0,0,1,,,0,,,89,52
267600,control_change,,,,,0,0,1,,,0,64,95,,
267600,note_on,,,,,20,0,1,,,0,,,83,52
267600,note_off,,,,,120,0,2,,,0,,,60,64
267600,note_off,,,,,0,0,2,,,0,,,64,64
267600,note_off,,,,,0,0,2,,,0,,,67,64
267600,note_on,,,,,0,0,2,,,0,,,67,42
267680,set_tempo,,,,,160,1,0,659341,,,,,,
267700,set_tempo,,,,,20,1,0,681818,,,,,,
267720,note_on,,,,,0,0,2,,,0,,,62,34
267720,note_on,,,,,0,0,2,,,0,,,67,34
267720,set_tempo,,,,,20,1,0,674157,,,,,,
267720,note_off,,,,,0,0,2,,,0,,,67,64
267720,note_off,,,,,0,0,2,,,0,,,65,64
267720,note_on,,,,,0,0,2,,,0,,,65,34
267720,note_off,,,,,120,0,2,,,0,,,62,64
267740,set_tempo,,,,,20,1,0,681818,,,,,,
267760,set_tempo,,,,,20,1,0,705882,,,,,,
267780,set_tempo,,,,,20,1,0,731707,,,,,,
267810,control_change,,,,,210,0,1,,,0,64,0,,
267820,note_off,,,,,0,0,1,,,0,,,91,64
267820,note_off,,,,,10,0,1,,,0,,,89,64
267820,note_off,,,,,0,0,1,,,0,,,83,64
267840,note_off,,,,,0,0,2,,,0,,,67,64
267840,note_off,,,,,0,0,2,,,0,,,65,64
267840,note_on,,,,,0,0,2,,,0,,,64,30
267840,note_on,,,,,0,0,2,,,0,,,60,30
267840,control_change,,,,,0,0,1,,,0,64,96,,
267840,note_on,,,,,0,0,1,,,0,,,84,51
267840,note_on,,,,,0,0,1,,,0,,,88,51
267840,note_on,,,,,20,0,1,,,0,,,91,51
267840,note_on,,,,,0,0,2,,,0,,,67,30
267840,note_off,,,,,120,0,2,,,0,,,62,64
267920,set_tempo,,,,,140,1,0,550459,,,,,,
267930,note_off,,,,,0,0,1,,,0,,,88,64
267930,note_off,,,,,0,0,1,,,0,,,91,64
267930,note_off,,,,,90,0,1,,,0,,,84,64
267960,note_on,,,,,0,0,1,,,0,,,72,40
267960,note_on,,,,,30,0,1,,,0,,,76,40
267960,note_on,,,,,0,0,1,,,0,,,79,40
268020,set_tempo,,,,,100,1,0,545455,,,,,,
268060,set_tempo,,,,,40,1,0,540541,,,,,,
268078,note_off,,,,,0,0,1,,,0,,,76,64
268078,note_off,,,,,118,0,1,,,0,,,72,64
268078,note_off,,,,,0,0,1,,,0,,,79,64
268080,note_on,,,,,0,0,1,,,0,,,72,45
268080,note_on,,,,,0,0,1,,,0,,,79,45
268080,note_on,,,,,2,0,1,,,0,,,76,45
268198,note_off,,,,,0,0,1,,,0,,,76,64
268198,note_off,,,,,0,0,1,,,0,,,79,64
268198,note_off,,,,,118,0,1,,,0,,,72,64
268200,note_on,,,,,0,0,1,,,0,,,79,51
268200,note_on,,,,,0,0,1,,,0,,,72,51
268200,note_on,,,,,2,0,1,,,0,,,76,51
268318,note_off,,,,,0,0,1,,,0,,,76,64
268318,note_off,,,,,118,0,1,,,0,,,72,64
268318,note_off,,,,,0,0,1,,,0,,,79,64
268320,note_on,,,,,0,0,1,,,0,,,72,57
268320,note_on,,,,,0,0,1,,,0,,,79,57
268320,note_on,,,,,2,0,1,,,0,,,76,57
268320,note_off,,,,,0,0,2,,,0,,,64,64
268320,set_tempo,,,,,260,1,0,530973,,,,,,
268320,note_off,,,,,480,0,2,,,0,,,60,64
268320,note_off,,,,,0,0,2,,,0,,,67,64
268438,note_off,,,,,0,0,1,,,0,,,79,64
268438,note_off,,,,,118,0,1,,,0,,,72,64
268438,note_off,,,,,0,0,1,,,0,,,76,64
268440,note_on,,,,,2,0,1,,,0,,,76,63
268440,note_on,,,,,0,0,1,,,0,,,79,63
268440,note_on,,,,,0,0,1,,,0,,,72,63
268460,set_tempo,,,,,140,1,0,526316,,,,,,
268558,note_off,,,,,118,0,1,,,0,,,72,64
268558,note_off,,,,,0,0,1,,,0,,,79,64
268558,note_off,,,,,0,0,1,,,0,,,76,64
268560,set_tempo,,,,,100,1,0,521739,,,,,,
268560,note_on,,,,,2,0,1,,,0,,,79,70
268560,note_on,,,,,0,0,1,,,0,,,76,70
268560,note_on,,,,,0,0,1,,,0,,,72,70
268678,note_off,,,,,118,0,1,,,0,,,72,64
268678,note_off,,,,,0,0,1,,,0,,,76,64
268678,note_off,,,,,0,0,1,,,0,,,79,64
268680,note_on,,,,,2,0,1,,,0,,,79,76
268680,note_on,,,,,0,0,1,,,0,,,72,76
268680,note_on,,,,,0,0,1,,,0,,,76,76
268740,set_tempo,,,,,180,1,0,545455,,,,,,
268770,control_change,,,,,90,0,1,,,0,64,0,,
268798,note_off,,,,,28,0,1,,,0,,,72,64
268798,note_off,,,,,0,0,1,,,0,,,79,64
268798,note_off,,,,,0,0,1,,,0,,,76,64
268800,note_on,,,,,0,0,1,,,0,,,72,80
268800,control_change,,,,,0,0,1,,,0,64,94,,
268800,note_on,,,,,480,0,2,,,0,,,60,111
268800,note_on,,,,,0,0,1,,,0,,,76,80
268800,note_on,,,,,2,0,1,,,0,,,79,80
268890,note_off,,,,,0,0,1,,,0,,,79,64
268890,note_off,,,,,90,0,1,,,0,,,72,64
268890,note_off,,,,,0,0,1,,,0,,,76,64
268900,set_tempo,,,,,160,1,0,521739,,,,,,
268920,note_on,,,,,30,0,1,,,0,,,76,73
268920,note_on,,,,,0,0,1,,,0,,,79,73
268920,note_on,,,,,0,0,1,,,0,,,72,73
269038,note_off,,,,,118,0,1,,,0,,,72,64
269038,note_off,,,,,0,0,1,,,0,,,79,64
269038,note_off,,,,,0,0,1,,,0,,,76,64
269040,note_off,,,,,240,0,2,,,0,,,60,64
269040,note_on,,,,,2,0,1,,,0,,,76,79
269040,note_on,,,,,0,0,1,,,0,,,79,79
269040,note_on,,,,,0,0,1,,,0,,,72,79
269040,note_on,,,,,0,0,2,,,0,,,59,91
269100,note_on,,,,,0,0,2,,,0,,,57,96
269100,note_off,,,,,60,0,2,,,0,,,59,64
269158,note_off,,,,,0,0,1,,,0,,,79,64
269158,note_off,,,,,0,0,1,,,0,,,76,64
269158,note_off,,,,,118,0,1,,,0,,,72,64
269160,note_on,,,,,0,0,1,,,0,,,72,96
269160,note_on,,,,,0,0,1,,,0,,,79,96
269160,note_on,,,,,2,0,1,,,0,,,76,96
269160,note_off,,,,,60,0,2,,,0,,,57,64
269160,note_on,,,,,0,0,2,,,0,,,55,100
269220,note_off,,,,,60,0,2,,,0,,,55,64
269220,note_on,,,,,0,0,2,,,0,,,53,108
269260,control_change,,,,,100,0,1,,,0,64,0,,
269278,note_off,,,,,0,0,1,,,0,,,76,64
269278,note_off,,,,,18,0,1,,,0,,,72,64
269278,note_off,,,,,0,0,1,,,0,,,79,64
269280,note_off,,,,,60,0,2,,,0,,,53,64
269280,control_change,,,,,0,0,1,,,0,64,96,,
269280,note_on,,,,,0,0,1,,,0,,,76,102
269280,note_on,,,,,0,0,1,,,0,,,80,102
269280,note_on,,,,,2,0,1,,,0,,,74,102
269280,note_on,,,,,0,0,2,,,0,,,52,121
269398,note_off,,,,,0,0,1,,,0,,,74,64
269398,note_off,,,,,0,0,1,,,0,,,80,64
269398,note_off,,,,,118,0,1,,,0,,,76,64
269400,note_on,,,,,0,0,1,,,0,,,80,90
269400,note_on,,,,,0,0,1,,,0,,,76,90
269400,set_tempo,,,,,500,1,0,508475,,,,,,
269400,note_on,,,,,2,0,1,,,0,,,74,90
269518,note_off,,,,,118,0,1,,,0,,,76,64
269518,note_off,,,,,0,0,1,,,0,,,80,64
269518,note_off,,,,,0,0,1,,,0,,,74,64
269520,note_on,,,,,0,0,1,,,0,,,76,70
269520,note_on,,,,,2,0,1,,,0,,,74,70
269520,note_on,,,,,0,0,1,,,0,,,80,70
269638,note_off,,,,,0,0,1,,,0,,,74,64
269638,note_off,,,,,0,0,1,,,0,,,80,64
269638,note_off,,,,,118,0,1,,,0,,,76,64
269640,note_on,,,,,0,0,1,,,0,,,80,58
269640,note_on,,,,,2,0,1,,,0,,,74,58
269640,note_on,,,,,0,0,1,,,0,,,76,58
269700,note_off,,,,,420,0,2,,,0,,,52,64
269740,control_change,,,,,100,0,1,,,0,64,0,,
269758,note_off,,,,,0,0,1,,,0,,,74,64
269758,note_off,,,,,0,0,1,,,0,,,80,64
269758,note_off,,,,,18,0,1,,,0,,,76,64
269760,note_on,,,,,0,0,1,,,0,,,76,80
269760,note_on,,,,,0,0,1,,,0,,,72,80
269760,note_on,,,,,60,0,2,,,0,,,52,117
269760,control_change,,,,,0,0,1,,,0,64,94,,
269760,note_on,,,,,2,0,1,,,0,,,81,80
269780,set_tempo,,,,,380,1,0,500000,,,,,,
269850,note_off,,,,,0,0,1,,,0,,,81,64
269850,note_off,,,,,0,0,1,,,0,,,76,64
269850,note_off,,,,,90,0,1,,,0,,,72,64
269880,note_on,,,,,30,0,1,,,0,,,81,86
269880,note_on,,,,,0,0,1,,,0,,,76,86
269880,note_on,,,,,0,0,1,,,0,,,72,86
269998,note_off,,,,,0,0,1,,,0,,,76,64
269998,note_off,,,,,0,0,1,,,0,,,81,64
269998,note_off,,,,,118,0,1,,,0,,,72,64
270000,note_off,,,,,240,0,2,,,0,,,52,64
270000,note_on,,,,,0,0,1,,,0,,,72,100
270000,note_on,,,,,0,0,1,,,0,,,76,100
270000,note_on,,,,,2,0,1,,,0,,,81,100
270000,note_on,,,,,0,0,2,,,0,,,50,89
270060,note_on,,,,,0,0,2,,,0,,,48,95
270060,note_off,,,,,60,0,2,,,0,,,50,64
270118,note_off,,,,,118,0,1,,,0,,,72,64
270118,note_off,,,,,0,0,1,,,0,,,76,64
270118,note_off,,,,,0,0,1,,,0,,,81,64
270120,note_on,,,,,0,0,1,,,0,,,72,110
270120,note_on,,,,,0,0,2,,,0,,,47,101
270120,note_off,,,,,60,0,2,,,0,,,48,64
270120,note_on,,,,,2,0,1,,,0,,,81,110
270120,note_on,,,,,0,0,1,,,0,,,76,110
270180,note_off,,,,,60,0,2,,,0,,,47,64
270180,note_on,,,,,0,0,2,,,0,,,45,110
270220,control_change,,,,,100,0,1,,,0,64,0,,
270238,note_off,,,,,0,0,1,,,0,,,76,64
270238,note_off,,,,,0,0,1,,,0,,,81,64
270238,note_off,,,,,18,0,1,,,0,,,72,64
270240,control_change,,,,,0,0,1,,,0,64,96,,
270240,note_on,,,,,0,0,2,,,0,,,43,119
270240,note_on,,,,,2,0,1,,,0,,,83,115
270240,note_on,,,,,0,0,1,,,0,,,77,115
270240,note_on,,,,,0,0,1,,,0,,,74,115
270240,note_off,,,,,60,0,2,,,0,,,45,64
270358,note_off,,,,,0,0,1,,,0,,,77,64
270358,note_off,,,,,0,0,1,,,0,,,83,64
270358,note_off,,,,,118,0,1,,,0,,,74,64
270360,note_on,,,,,2,0,1,,,0,,,83,94
270360,note_on,,,,,0,0,1,,,0,,,77,94
270360,note_on,,,,,0,0,1,,,0,,,74,94
270478,note_off,,,,,118,0,1,,,0,,,74,64
270478,note_off,,,,,0,0,1,,,0,,,83,64
270478,note_off,,,,,0,0,1,,,0,,,77,64
270480,note_on,,,,,2,0,1,,,0,,,83,105
270480,note_on,,,,,0,0,1,,,0,,,74,105
270480,note_on,,,,,0,0,1,,,0,,,77,105
270598,note_off,,,,,118,0,1,,,0,,,74,64
270598,note_off,,,,,0,0,1,,,0,,,83,64
270598,note_off,,,,,0,0,1,,,0,,,77,64
270600,note_on,,,,,2,0,1,,,0,,,83,116
270600,note_on,,,,,0,0,1,,,0,,,74,116
270600,note_on,,,,,0,0,1,,,0,,,77,116
270660,note_off,,,,,420,0,2,,,0,,,43,64
270700,control_change,,,,,100,0,1,,,0,64,0,,
270718,note_off,,,,,0,0,1,,,0,,,77,64
270718,note_off,,,,,18,0,1,,,0,,,74,64
270718,note_off,,,,,0,0,1,,,0,,,83,64
270720,note_on,,,,,0,0,1,,,0,,,74,114
270720,note_on,,,,,0,0,1,,,0,,,78,114
270720,note_on,,,,,2,0,1,,,0,,,83,114
270720,note_on,,,,,60,0,2,,,0,,,42,121
270720,control_change,,,,,0,0,1,,,0,64,95,,
270838,note_off,,,,,118,0,1,,,0,,,74,64
270838,note_off,,,,,0,0,1,,,0,,,78,64
270838,note_off,,,,,0,0,1,,,0,,,83,64
270840,note_on,,,,,2,0,1,,,0,,,83,120
270840,note_on,,,,,0,0,1,,,0,,,74,120
270840,note_on,,,,,0,0,1,,,0,,,78,120
270950,control_change,,,,,110,0,1,,,0,64,0,,
270958,note_off,,,,,0,0,1,,,0,,,83,64
270958,note_off,,,,,0,0,1,,,0,,,78,64
270958,note_off,,,,,8,0,1,,,0,,,74,64
270960,note_on,,,,,0,0,2,,,0,,,43,127
270960,note_off,,,,,240,0,2,,,0,,,42,64
270960,note_on,,,,,0,0,1,,,0,,,73,123
270960,note_on,,,,,0,0,1,,,0,,,76,123
270960,note_on,,,,,2,0,1,,,0,,,83,123
271020,note_off,,,,,60,0,2,,,0,,,43,64
271020,note_on,,,,,0,0,2,,,0,,,45,119
271078,note_off,,,,,0,0,1,,,0,,,83,64
271078,note_off,,,,,0,0,1,,,0,,,76,64
271078,note_off,,,,,118,0,1,,,0,,,73,64
271080,note_on,,,,,0,0,1,,,0,,,73,108
271080,note_on,,,,,0,0,1,,,0,,,76,108
271080,note_on,,,,,2,0,1,,,0,,,83,108
271080,note_on,,,,,0,0,2,,,0,,,47,111
271080,note_off,,,,,60,0,2,,,0,,,45,64
271140,note_on,,,,,0,0,2,,,0,,,43,104
271140,note_off,,,,,60,0,2,,,0,,,47,64
271198,note_off,,,,,0,0,1,,,0,,,83,64
271198,note_off,,,,,0,0,1,,,0,,,76,64
271198,note_off,,,,,118,0,1,,,0,,,73,64
271200,note_on,,,,,0,0,1,,,0,,,74,114
271200,control_change,,,,,0,0,1,,,0,64,95,,
271200,note_on,,,,,2,0,1,,,0,,,83,114
271200,note_on,,,,,0,0,1,,,0,,,78,114
271200,note_on,,,,,0,0,2,,,0,,,42,121
271200,note_off,,,,,60,0,2,,,0,,,43,64
271318,note_off,,,,,0,0,1,,,0,,,83,64
271318,note_off,,,,,0,0,1,,,0,,,78,64
271318,note_off,,,,,118,0,1,,,0,,,74,64
271320,note_on,,,,,0,0,1,,,0,,,74,119
271320,note_on,,,,,0,0,1,,,0,,,78,119
271320,note_on,,,,,2,0,1,,,0,,,83,119
271430,control_change,,,,,110,0,1,,,0,64,0,,
271438,note_off,,,,,8,0,1,,,0,,,74,64
271438,note_off,,,,,0,0,1,,,0,,,78,64
271438,note_off,,,,,0,0,1,,,0,,,83,64
271440,note_on,,,,,0,0,1,,,0,,,76,117
271440,note_on,,,,,0,0,2,,,0,,,43,127
271440,note_off,,,,,240,0,2,,,0,,,42,64
271440,note_on,,,,,2,0,1,,,0,,,83,117
271440,note_on,,,,,0,0,1,,,0,,,73,117
271500,note_on,,,,,0,0,2,,,0,,,45,119
271500,note_off,,,,,60,0,2,,,0,,,43,64
271558,note_off,,,,,0,0,1,,,0,,,76,64
271558,note_off,,,,,0,0,1,,,0,,,83,64
271558,note_off,,,,,118,0,1,,,0,,,73,64
271560,note_off,,,,,60,0,2,,,0,,,45,64
271560,note_on,,,,,2,0,1,,,0,,,83,108
271560,note_on,,,,,0,0,1,,,0,,,76,108
271560,note_on,,,,,0,0,1,,,0,,,73,108
271560,note_on,,,,,0,0,2,,,0,,,47,111
271620,note_off,,,,,60,0,2,,,0,,,47,64
271620,note_on,,,,,0,0,2,,,0,,,43,104
271678,note_off,,,,,118,0,1,,,0,,,73,64
271678,note_off,,,,,0,0,1,,,0,,,76,64
271678,note_off,,,,,0,0,1,,,0,,,83,64
271680,note_on,,,,,2,0,1,,,0,,,83,113
271680,set_tempo,,,,,1900,1,0,517241,,,,,,
271680,note_on,,,,,0,0,2,,,0,,,42,121
271680,note_off,,,,,60,0,2,,,0,,,43,64
271680,note_on,,,,,0,0,1,,,0,,,78,113
271680,note_on,,,,,0,0,1,,,0,,,74,113
271680,control_change,,,,,0,0,1,,,0,64,95,,
271700,set_tempo,,,,,20,1,0,512821,,,,,,
271798,note_off,,,,,0,0,1,,,0,,,83,64
271798,note_off,,,,,0,0,1,,,0,,,78,64
271798,note_off,,,,,118,0,1,,,0,,,74,64
271800,note_on,,,,,0,0,1,,,0,,,78,104
271800,note_on,,,,,2,0,1,,,0,,,83,104
271800,note_on,,,,,0,0,1,,,0,,,74,104
271918,note_off,,,,,118,0,1,,,0,,,74,64
271918,note_off,,,,,0,0,1,,,0,,,78,64
271918,note_off,,,,,0,0,1,,,0,,,83,64
271920,note_on,,,,,0,0,2,,,0,,,40,111
271920,note_off,,,,,240,0,2,,,0,,,42,64
271920,note_on,,,,,0,0,1,,,0,,,79,115
271920,control_change,,,,,0,0,1,,,0,64,0,,
271920,note_on,,,,,0,0,1,,,0,,,83,115
271920,note_on,,,,,2,0,1,,,0,,,85,115
271940,set_tempo,,,,,240,1,0,540541,,,,,,
271980,note_off,,,,,60,0,2,,,0,,,40,64
271980,note_on,,,,,0,0,2,,,0,,,38,114
272038,note_off,,,,,118,0,1,,,0,,,79,64
272038,note_off,,,,,0,0,1,,,0,,,83,64
272038,note_off,,,,,0,0,1,,,0,,,85,64
272040,note_on,,,,,0,0,1,,,0,,,83,123
272040,note_off,,,,,60,0,2,,,0,,,38,64
272040,note_on,,,,,0,0,2,,,0,,,37,121
272040,note_on,,,,,0,0,1,,,0,,,79,123
272040,note_on,,,,,2,0,1,,,0,,,85,123
272100,note_off,,,,,60,0,2,,,0,,,37,64
272100,note_on,,,,,0,0,2,,,0,,,38,124
272158,note_off,,,,,0,0,1,,,0,,,85,64
272158,note_off,,,,,0,0,1,,,0,,,83,64
272158,note_off,,,,,118,0,1,,,0,,,79,64
272160,note_on,,,,,2,0,1,,,0,,,86,126
272160,note_on,,,,,0,0,1,,,0,,,83,126
272160,note_on,,,,,0,0,1,,,0,,,78,126
272160,control_change,,,,,0,0,1,,,0,64,95,,
272160,note_on,,,,,0,0,2,,,0,,,35,127
272160,note_off,,,,,60,0,2,,,0,,,38,64
272180,set_tempo,,,,,240,1,0,550459,,,,,,
272278,note_off,,,,,118,0,1,,,0,,,78,64
272278,note_off,,,,,0,0,1,,,0,,,83,64
272278,note_off,,,,,0,0,1,,,0,,,86,64
272280,note_on,,,,,0,0,1,,,0,,,83,117
272280,note_on,,,,,2,0,1,,,0,,,86,117
272280,note_on,,,,,0,0,1,,,0,,,78,117
272320,set_tempo,,,,,140,1,0,606061,,,,,,
272340,note_off,,,,,180,0,2,,,0,,,35,64
272398,note_off,,,,,118,0,1,,,0,,,78,64
272398,note_off,,,,,0,0,1,,,0,,,83,64
272398,note_off,,,,,0,0,1,,,0,,,86,64
272400,note_on,,,,,0,0,1,,,0,,,83,106
272400,note_on,,,,,60,0,2,,,0,,,35,115
272400,note_on,,,,,2,0,1,,,0,,,88,106
272400,note_on,,,,,0,0,1,,,0,,,79,106
272460,set_tempo,,,,,140,1,0,652174,,,,,,
272518,note_off,,,,,118,0,1,,,0,,,79,64
272518,note_off,,,,,0,0,1,,,0,,,83,64
272518,note_off,,,,,0,0,1,,,0,,,88,64
272520,note_on,,,,,2,0,1,,,0,,,88,95
272520,note_on,,,,,0,0,1,,,0,,,83,95
272520,note_on,,,,,0,0,1,,,0,,,79,95
272540,set_tempo,,,,,80,1,0,659341,,,,,,
272580,set_tempo,,,,,40,1,0,952381,,,,,,
272580,note_off,,,,,180,0,2,,,0,,,35,64
272630,control_change,,,,,110,0,1,,,0,64,0,,
272638,note_off,,,,,8,0,1,,,0,,,79,64
272638,note_off,,,,,0,0,1,,,0,,,83,64
272638,note_off,,,,,0,0,1,,,0,,,88,64
272640,set_tempo,,,,,60,1,0,666667,,,,,,
272640,note_on,,,,,0,0,1,,,0,,,83,114
272640,note_on,,,,,60,0,2,,,0,,,35,95
272640,note_on,,,,,0,0,1,,,0,,,78,114
272640,control_change,,,,,0,0,1,,,0,64,95,,
272640,note_on,,,,,2,0,1,,,0,,,86,114
272758,note_off,,,,,0,0,1,,,0,,,86,64
272758,note_off,,,,,118,0,1,,,0,,,78,64
272758,note_off,,,,,0,0,1,,,0,,,83,64
272760,note_on,,,,,2,0,1,,,0,,,71,87
272760,note_on,,,,,0,0,1,,,0,,,74,87
272760,note_on,,,,,0,0,1,,,0,,,78,87
272800,set_tempo,,,,,160,1,0,606061,,,,,,
272878,note_off,,,,,0,0,1,,,0,,,71,64
272878,note_off,,,,,118,0,1,,,0,,,78,64
272878,note_off,,,,,0,0,1,,,0,,,74,64
272880,note_on,,,,,2,0,1,,,0,,,78,81
272880,note_on,,,,,0,0,1,,,0,,,74,81
272880,note_on,,,,,0,0,1,,,0,,,71,81
272960,set_tempo,,,,,160,1,0,588235,,,,,,
272998,note_off,,,,,118,0,1,,,0,,,71,64
272998,note_off,,,,,0,0,1,,,0,,,74,64
272998,note_off,,,,,0,0,1,,,0,,,78,64
273000,note_on,,,,,2,0,1,,,0,,,78,73
273000,note_on,,,,,0,0,1,,,0,,,74,73
273000,note_on,,,,,0,0,1,,,0,,,71,73
273100,set_tempo,,,,,140,1,0,566038,,,,,,
273100,control_change,,,,,100,0,1,,,0,64,0,,
273118,note_off,,,,,0,0,1,,,0,,,74,64
273118,note_off,,,,,0,0,1,,,0,,,78,64
273118,note_off,,,,,18,0,1,,,0,,,71,64
273120,control_change,,,,,0,0,1,,,0,64,96,,
273120,note_on,,,,,0,0,1,,,0,,,71,70
273120,note_off,,,,,480,0,2,,,0,,,35,64
273120,note_on,,,,,2,0,1,,,0,,,78,70
273120,note_on,,,,,0,0,1,,,0,,,74,70
273238,note_off,,,,,0,0,1,,,0,,,74,64
273238,note_off,,,,,0,0,1,,,0,,,78,64
273238,note_off,,,,,118,0,1,,,0,,,71,64
273240,note_on,,,,,2,0,1,,,0,,,78,69
273240,note_on,,,,,0,0,1,,,0,,,74,69
273240,note_on,,,,,0,0,1,,,0,,,71,69
273260,set_tempo,,,,,160,1,0,550459,,,,,,
273358,note_off,,,,,118,0,1,,,0,,,71,64
273358,note_off,,,,,0,0,1,,,0,,,74,64
273358,note_off,,,,,0,0,1,,,0,,,78,64
273360,note_on,,,,,0,0,1,,,0,,,74,75
273360,note_on,,,,,2,0,1,,,0,,,78,75
273360,note_on,,,,,0,0,1,,,0,,,71,75
273478,note_off,,,,,118,0,1,,,0,,,71,64
273478,note_off,,,,,0,0,1,,,0,,,78,64
273478,note_off,,,,,0,0,1,,,0,,,74,64
273480,note_on,,,,,2,0,1,,,0,,,78,83
273480,note_on,,,,,0,0,1,,,0,,,74,83
273480,set_tempo,,,,,220,1,0,535714,,,,,,
273480,note_on,,,,,0,0,1,,,0,,,71,83
273520,set_tempo,,,,,40,1,0,530973,,,,,,
273580,control_change,,,,,100,0,1,,,0,64,0,,
273598,note_off,,,,,0,0,1,,,0,,,78,64
273598,note_off,,,,,0,0,1,,,0,,,74,64
273598,note_off,,,,,18,0,1,,,0,,,71,64
273600,note_on,,,,,480,0,2,,,0,,,59,111
273600,control_change,,,,,0,0,1,,,0,64,94,,
273600,note_on,,,,,0,0,1,,,0,,,71,91
273600,note_on,,,,,0,0,1,,,0,,,78,91
273600,note_on,,,,,2,0,1,,,0,,,74,91
273690,note_off,,,,,0,0,1,,,0,,,74,64
273690,note_off,,,,,0,0,1,,,0,,,78,64
273690,note_off,,,,,90,0,1,,,0,,,71,64
273720,note_on,,,,,0,0,1,,,0,,,71,73
273720,note_on,,,,,0,0,1,,,0,,,78,73
273720,note_on,,,,,30,0,1,,,0,,,74,73
273780,set_tempo,,,,,260,1,0,526316,,,,,,
273838,note_off,,,,,0,0,1,,,0,,,74,64
273838,note_off,,,,,118,0,1,,,0,,,71,64
273838,note_off,,,,,0,0,1,,,0,,,78,64
273840,note_on,,,,,2,0,1,,,0,,,74,79
273840,note_on,,,,,0,0,1,,,0,,,71,79
273840,note_on,,,,,0,0,2,,,0,,,57,91
273840,note_off,,,,,240,0,2,,,0,,,59,64
273840,note_on,,,,,0,0,1,,,0,,,78,79
273900,note_off,,,,,60,0,2,,,0,,,57,64
273900,note_on,,,,,0,0,2,,,0,,,55,96
273958,note_off,,,,,118,0,1,,,0,,,71,64
273958,note_off,,,,,0,0,1,,,0,,,74,64
273958,note_off,,,,,0,0,1,,,0,,,78,64
273960,note_on,,,,,0,0,2,,,0,,,54,100
273960,note_on,,,,,2,0,1,,,0,,,74,96
273960,note_on,,,,,0,0,1,,,0,,,78,96
273960,note_off,,,,,60,0,2,,,0,,,55,64
273960,note_on,,,,,0,0,1,,,0,,,71,96
273980,set_tempo,,,,,200,1,0,521739,,,,,,
274020,note_off,,,,,60,0,2,,,0,,,54,64
274020,note_on,,,,,0,0,2,,,0,,,52,108
274060,control_change,,,,,100,0,1,,,0,64,0,,
274078,note_off,,,,,0,0,1,,,0,,,74,64
274078,note_off,,,,,18,0,1,,,0,,,71,64
274078,note_off,,,,,0,0,1,,,0,,,78,64
274080,note_on,,,,,0,0,2,,,0,,,50,121
274080,note_off,,,,,60,0,2,,,0,,,52,64
274080,note_on,,,,,2,0,1,,,0,,,74,102
274080,note_on,,,,,0,0,1,,,0,,,78,102
274080,note_on,,,,,0,0,1,,,0,,,72,102
274080,control_change,,,,,0,0,1,,,0,64,96,,
274140,note_off,,,,,60,0,2,,,0,,,50,64
274140,note_on,,,,,0,0,2,,,0,,,52,113
274198,note_off,,,,,118,0,1,,,0,,,72,64
274198,note_off,,,,,0,0,1,,,0,,,78,64
274198,note_off,,,,,0,0,1,,,0,,,74,64
274200,note_off,,,,,60,0,2,,,0,,,52,64
274200,note_on,,,,,0,0,2,,,0,,,54,108
274200,note_on,,,,,2,0,1,,,0,,,74,102
274200,note_on,,,,,0,0,1,,,0,,,72,102
274200,note_on,,,,,0,0,1,,,0,,,78,102
274260,note_off,,,,,60,0,2,,,0,,,54,64
274260,note_on,,,,,0,0,2,,,0,,,55,107
274318,note_off,,,,,0,0,1,,,0,,,78,64
274318,note_off,,,,,118,0,1,,,0,,,72,64
274318,note_off,,,,,0,0,1,,,0,,,74,64
274320,note_on,,,,,0,0,2,,,0,,,57,107
274320,note_on,,,,,2,0,1,,,0,,,74,109
274320,note_on,,,,,0,0,1,,,0,,,78,109
274320,note_on,,,,,0,0,1,,,0,,,72,109
274320,note_off,,,,,60,0,2,,,0,,,55,64
274380,note_off,,,,,60,0,2,,,0,,,57,64
274380,note_on,,,,,0,0,2,,,0,,,59,107
274420,set_tempo,,,,,440,1,0,517241,,,,,,
274438,note_off,,,,,118,0,1,,,0,,,72,64
274438,note_off,,,,,0,0,1,,,0,,,78,64
274438,note_off,,,,,0,0,1,,,0,,,74,64
274440,note_on,,,,,0,0,1,,,0,,,72,115
274440,note_on,,,,,2,0,1,,,0,,,74,115
274440,note_on,,,,,0,0,1,,,0,,,78,115
274440,note_off,,,,,60,0,2,,,0,,,59,64
274440,note_on,,,,,0,0,2,,,0,,,60,117
274500,note_off,,,,,60,0,2,,,0,,,60,64
274500,note_on,,,,,0,0,2,,,0,,,62,121
274540,control_change,,,,,100,0,1,,,0,64,0,,
274546,note_off,,,,,46,0,2,,,0,,,62,64
274558,note_off,,,,,0,0,1,,,0,,,78,64
274558,note_off,,,,,18,0,1,,,0,,,72,64
274558,note_off,,,,,0,0,1,,,0,,,74,64
274560,control_change,,,,,2,0,1,,,0,7,80,,
274560,control_change,,,,,0,0,1,,,0,64,94,,
274560,note_on,,,,,0,0,1,,,0,,,79,120
274560,note_on,,,,,0,0,1,,,0,,,74,120
274560,note_on,,,,,0,0,1,,,0,,,71,120
274560,note_on,,,,,0,0,2,,,0,,,62,126
274560,control_change,,,,,14,0,2,,,0,7,80,,
274580,set_tempo,,,,,160,1,0,512821,,,,,,
274588,control_change,,,,,28,0,2,,,0,7,81,,
274588,control_change,,,,,28,0,1,,,0,7,81,,
274616,control_change,,,,,28,0,2,,,0,7,82,,
274616,control_change,,,,,28,0,1,,,0,7,82,,
274644,control_change,,,,,28,0,1,,,0,7,83,,
274644,control_change,,,,,28,0,2,,,0,7,83,,
274650,note_off,,,,,6,0,1,,,0,,,79,64
274650,note_off,,,,,0,0,1,,,0,,,74,64
274650,note_off,,,,,0,0,1,,,0,,,71,64
274672,control_change,,,,,28,0,2,,,0,7,84,,
274672,control_change,,,,,22,0,1,,,0,7,84,,
274680,note_on,,,,,8,0,1,,,0,,,74,86
274680,note_on,,,,,0,0,1,,,0,,,71,86
274680,note_on,,,,,0,0,1,,,0,,,79,86
274700,control_change,,,,,28,0,2,,,0,7,85,,
274700,control_change,,,,,20,0,1,,,0,7,85,,
274728,control_change,,,,,28,0,2,,,0,7,86,,
274728,control_change,,,,,28,0,1,,,0,7,86,,
274740,set_tempo,,,,,160,1,0,508475,,,,,,
274756,control_change,,,,,28,0,2,,,0,7,87,,
274756,control_change,,,,,28,0,1,,,0,7,87,,
274784,control_change,,,,,28,0,2,,,0,7,88,,
274784,control_change,,,,,28,0,1,,,0,7,88,,
274798,note_off,,,,,14,0,1,,,0,,,79,64
274798,note_off,,,,,0,0,1,,,0,,,71,64
274798,note_off,,,,,0,0,1,,,0,,,74,64
274800,note_on,,,,,0,0,1,,,0,,,74,100
274800,note_on,,,,,0,0,1,,,0,,,71,100
274800,note_on,,,,,2,0,1,,,0,,,79,100
274800,note_on,,,,,0,0,2,,,0,,,60,89
274800,note_off,,,,,16,0,2,,,0,,,62,64
274812,control_change,,,,,12,0,1,,,0,7,89,,
274812,control_change,,,,,12,0,2,,,0,7,89,,
274840,control_change,,,,,28,0,1,,,0,7,90,,
274840,control_change,,,,,28,0,2,,,0,7,90,,
274860,note_off,,,,,20,0,2,,,0,,,60,64
274860,note_on,,,,,0,0,2,,,0,,,59,95
274868,control_change,,,,,8,0,2,,,0,7,91,,
274868,control_change,,,,,28,0,1,,,0,7,91,,
274896,control_change,,,,,28,0,2,,,0,7,92,,
274896,control_change,,,,,28,0,1,,,0,7,92,,
274900,set_tempo,,,,,160,1,0,504202,,,,,,
274918,note_off,,,,,22,0,1,,,0,,,71,64
274918,note_off,,,,,0,0,1,,,0,,,74,64
274918,note_off,,,,,0,0,1,,,0,,,79,64
274920,note_on,,,,,0,0,1,,,0,,,79,110
274920,note_on,,,,,0,0,1,,,0,,,74,110
274920,note_on,,,,,2,0,1,,,0,,,71,110
274920,note_off,,,,,24,0,2,,,0,,,59,64
274920,note_on,,,,,0,0,2,,,0,,,57,101
274924,control_change,,,,,4,0,1,,,0,7,93,,
274924,control_change,,,,,4,0,2,,,0,7,93,,
274952,control_change,,,,,28,0,1,,,0,7,94,,
274952,control_change,,,,,28,0,2,,,0,7,94,,
274980,control_change,,,,,28,0,1,,,0,7,95,,
274980,note_on,,,,,0,0,2,,,0,,,55,110
274980,control_change,,,,,0,0,2,,,0,7,95,,
274980,note_off,,,,,28,0,2,,,0,,,57,64
275010,control_change,,,,,30,0,1,,,0,7,96,,
275010,control_change,,,,,30,0,2,,,0,7,96,,
275020,control_change,,,,,10,0,1,,,0,64,0,,
275038,note_off,,,,,0,0,1,,,0,,,71,64
275038,note_off,,,,,0,0,1,,,0,,,74,64
275038,note_off,,,,,18,0,1,,,0,,,79,64
275038,control_change,,,,,0,0,1,,,0,7,97,,
275038,control_change,,,,,28,0,2,,,0,7,97,,
275040,note_off,,,,,2,0,2,,,0,,,55,64
275040,control_change,,,,,0,0,1,,,0,64,96,,
275040,note_on,,,,,0,0,2,,,0,,,53,119
275040,note_on,,,,,0,0,1,,,0,,,72,115
275040,note_on,,,,,2,0,1,,,0,,,81,115
275040,note_on,,,,,0,0,1,,,0,,,75,115
275066,control_change,,,,,26,0,2,,,0,7,98,,
275066,control_change,,,,,26,0,1,,,0,7,98,,
275094,control_change,,,,,28,0,2,,,0,7,99,,
275094,control_change,,,,,28,0,1,,,0,7,99,,
275100,note_off,,,,,6,0,2,,,0,,,53,64
275100,note_on,,,,,0,0,2,,,0,,,52,111
275122,control_change,,,,,22,0,2,,,0,7,100,,
275122,control_change,,,,,28,0,1,,,0,7,100,,
275150,control_change,,,,,28,0,2,,,0,7,101,,
275150,control_change,,,,,28,0,1,,,0,7,101,,
275158,note_off,,,,,0,0,1,,,0,,,75,64
275158,note_off,,,,,8,0,1,,,0,,,72,64
275158,note_off,,,,,0,0,1,,,0,,,81,64
275160,note_off,,,,,10,0,2,,,0,,,52,64
275160,note_on,,,,,0,0,2,,,0,,,50,107
275160,note_on,,,,,0,0,1,,,0,,,75,94
275160,note_on,,,,,0,0,1,,,0,,,72,94
275160,note_on,,,,,2,0,1,,,0,,,81,94
275178,control_change,,,,,18,0,1,,,0,7,102,,
275178,control_change,,,,,18,0,2,,,0,7,102,,
275206,control_change,,,,,28,0,1,,,0,7,103,,
275206,control_change,,,,,28,0,2,,,0,7,103,,
275220,note_off,,,,,14,0,2,,,0,,,50,64
275220,note_on,,,,,0,0,2,,,0,,,48,109
275234,control_change,,,,,28,0,1,,,0,7,104,,
275234,control_change,,,,,14,0,2,,,0,7,104,,
275262,control_change,,,,,28,0,1,,,0,7,105,,
275262,control_change,,,,,28,0,2,,,0,7,105,,
275278,note_off,,,,,16,0,1,,,0,,,75,64
275278,note_off,,,,,0,0,1,,,0,,,81,64
275278,note_off,,,,,0,0,1,,,0,,,72,64
275280,note_on,,,,,2,0,1,,,0,,,81,105
275280,note_off,,,,,18,0,2,,,0,,,48,64
275280,note_on,,,,,0,0,1,,,0,,,75,105
275280,note_on,,,,,0,0,2,,,0,,,47,111
275280,note_on,,,,,0,0,1,,,0,,,72,105
275290,control_change,,,,,10,0,1,,,0,7,106,,
275290,control_change,,,,,10,0,2,,,0,7,106,,
275318,control_change,,,,,28,0,1,,,0,7,107,,
275318,control_change,,,,,28,0,2,,,0,7,107,,
275340,set_tempo,,,,,440,1,0,500000,,,,,,
275340,note_off,,,,,22,0,2,,,0,,,47,64
275340,note_on,,,,,0,0,2,,,0,,,45,117
275346,control_change,,,,,28,0,1,,,0,7,108,,
275346,control_change,,,,,6,0,2,,,0,7,108,,
275374,control_change,,,,,28,0,2,,,0,7,109,,
275374,control_change,,,,,28,0,1,,,0,7,109,,
275398,note_off,,,,,24,0,1,,,0,,,72,64
275398,note_off,,,,,0,0,1,,,0,,,75,64
275398,note_off,,,,,0,0,1,,,0,,,81,64
275400,note_on,,,,,0,0,2,,,0,,,43,121
275400,note_on,,,,,2,0,1,,,0,,,81,116
275400,note_on,,,,,0,0,1,,,0,,,75,116
275400,note_off,,,,,26,0,2,,,0,,,45,64
275400,note_on,,,,,0,0,1,,,0,,,72,116
275402,control_change,,,,,2,0,2,,,0,7,110,,
275402,control_change,,,,,2,0,1,,,0,7,110,,
275430,control_change,,,,,28,0,2,,,0,7,111,,
275430,control_change,,,,,28,0,1,,,0,7,111,,
275440,set_tempo,,,,,100,1,0,495868,,,,,,
275460,control_change,,,,,30,0,1,,,0,7,112,,
275460,note_on,,,,,0,0,2,,,0,,,41,124
275460,note_off,,,,,30,0,2,,,0,,,43,64
275460,control_change,,,,,0,0,2,,,0,7,112,,
275500,control_change,,,,,40,0,1,,,0,64,0,,
275518,note_off,,,,,18,0,1,,,0,,,72,64
275518,note_off,,,,,0,0,1,,,0,,,75,64
275518,note_off,,,,,0,0,1,,,0,,,81,64
275520,note_off,,,,,60,0,2,,,0,,,41,64
275520,note_on,,,,,0,0,2,,,0,,,40,127
275520,note_on,,,,,2,0,1,,,0,,,81,114
275520,note_on,,,,,0,0,1,,,0,,,76,114
275520,note_on,,,,,0,0,1,,,0,,,72,114
275520,control_change,,,,,0,0,1,,,0,64,95,,
275638,note_off,,,,,0,0,1,,,0,,,76,64
275638,note_off,,,,,118,0,1,,,0,,,72,64
275638,note_off,,,,,0,0,1,,,0,,,81,64
275640,note_on,,,,,0,0,1,,,0,,,76,120
275640,note_on,,,,,0,0,1,,,0,,,72,120
275640,note_on,,,,,2,0,1,,,0,,,81,120
275720,set_tempo,,,,,280,1,0,491803,,,,,,
275750,control_change,,,,,110,0,1,,,0,64,0,,
275758,note_off,,,,,8,0,1,,,0,,,72,64
275758,note_off,,,,,0,0,1,,,0,,,76,64
275758,note_off,,,,,0,0,1,,,0,,,81,64
275760,note_off,,,,,240,0,2,,,0,,,40,64
275760,note_on,,,,,0,0,2,,,0,,,41,127
275760,note_on,,,,,0,0,1,,,0,,,74,123
275760,note_on,,,,,0,0,1,,,0,,,71,123
275760,note_on,,,,,2,0,1,,,0,,,81,123
275820,note_off,,,,,60,0,2,,,0,,,41,64
275820,note_on,,,,,0,0,2,,,0,,,43,119
275878,note_off,,,,,0,0,1,,,0,,,81,64
275878,note_off,,,,,0,0,1,,,0,,,74,64
275878,note_off,,,,,118,0,1,,,0,,,71,64
275880,note_on,,,,,0,0,2,,,0,,,45,111
275880,note_on,,,,,0,0,1,,,0,,,71,108
275880,note_on,,,,,0,0,1,,,0,,,74,108
275880,note_on,,,,,2,0,1,,,0,,,81,108
275880,note_off,,,,,60,0,2,,,0,,,43,64
275940,note_on,,,,,0,0,2,,,0,,,41,104
275940,note_off,,,,,60,0,2,,,0,,,45,64
275998,note_off,,,,,0,0,1,,,0,,,81,64
275998,note_off,,,,,0,0,1,,,0,,,74,64
275998,note_off,,,,,118,0,1,,,0,,,71,64
276000,note_on,,,,,0,0,1,,,0,,,76,114
276000,note_on,,,,,2,0,1,,,0,,,81,114
276000,note_on,,,,,0,0,1,,,0,,,72,114
276000,note_off,,,,,60,0,2,,,0,,,41,64
276000,note_on,,,,,0,0,2,,,0,,,40,121
276000,control_change,,,,,0,0,1,,,0,64,95,,
276118,note_off,,,,,0,0,1,,,0,,,76,64
276118,note_off,,,,,0,0,1,,,0,,,81,64
276118,note_off,,,,,118,0,1,,,0,,,72,64
276120,note_on,,,,,0,0,1,,,0,,,72,119
276120,note_on,,,,,0,0,1,,,0,,,76,119
276120,note_on,,,,,2,0,1,,,0,,,81,119
276200,set_tempo,,,,,480,1,0,487805,,,,,,
276230,control_change,,,,,110,0,1,,,0,64,0,,
276238,note_off,,,,,0,0,1,,,0,,,81,64
276238,note_off,,,,,0,0,1,,,0,,,76,64
276238,note_off,,,,,8,0,1,,,0,,,72,64
276240,note_on,,,,,0,0,2,,,0,,,41,127
276240,note_off,,,,,240,0,2,,,0,,,40,64
276240,note_on,,,,,0,0,1,,,0,,,71,117
276240,note_on,,,,,0,0,1,,,0,,,74,117
276240,note_on,,,,,2,0,1,,,0,,,81,117
276300,note_on,,,,,0,0,2,,,0,,,43,119
276300,note_off,,,,,60,0,2,,,0,,,41,64
276358,note_off,,,,,0,0,1,,,0,,,81,64
276358,note_off,,,,,118,0,1,,,0,,,71,64
276358,note_off,,,,,0,0,1,,,0,,,74,64
276360,note_on,,,,,0,0,1,,,0,,,71,108
276360,note_off,,,,,60,0,2,,,0,,,43,64
276360,note_on,,,,,0,0,2,,,0,,,45,111
276360,note_on,,,,,0,0,1,,,0,,,74,108
276360,note_on,,,,,2,0,1,,,0,,,81,108
276420,note_on,,,,,0,0,2,,,0,,,41,104
276420,note_off,,,,,60,0,2,,,0,,,45,64
276440,set_tempo,,,,,240,1,0,483871,,,,,,
276478,note_off,,,,,118,0,1,,,0,,,71,64
276478,note_off,,,,,0,0,1,,,0,,,74,64
276478,note_off,,,,,0,0,1,,,0,,,81,64
276480,note_on,,,,,0,0,2,,,0,,,40,121
276480,note_off,,,,,60,0,2,,,0,,,41,64
276480,control_change,,,,,0,0,1,,,0,64,95,,
276480,note_on,,,,,2,0,1,,,0,,,81,114
276480,note_on,,,,,0,0,1,,,0,,,76,114
276480,note_on,,,,,0,0,1,,,0,,,72,114
276598,note_off,,,,,0,0,1,,,0,,,81,64
276598,note_off,,,,,118,0,1,,,0,,,72,64
276598,note_off,,,,,0,0,1,,,0,,,76,64
276600,note_on,,,,,2,0,1,,,0,,,81,114
276600,note_on,,,,,0,0,1,,,0,,,76,114
276600,note_on,,,,,0,0,1,,,0,,,72,114
276600,set_tempo,,,,,160,1,0,491803,,,,,,
276640,set_tempo,,,,,40,1,0,500000,,,,,,
276660,set_tempo,,,,,20,1,0,504202,,,,,,
276680,set_tempo,,,,,20,1,0,508475,,,,,,
276700,set_tempo,,,,,20,1,0,512821,,,,,,
276718,note_off,,,,,0,0,1,,,0,,,76,64
276718,note_off,,,,,0,0,1,,,0,,,81,64
276718,note_off,,,,,118,0,1,,,0,,,72,64
276720,set_tempo,,,,,20,1,0,521739,,,,,,
276720,note_on,,,,,0,0,2,,,0,,,38,111
276720,control_change,,,,,0,0,2,,,0,7,112,,
276720,note_off,,,,,240,0,2,,,0,,,40,64
276720,control_change,,,,,0,0,1,,,0,64,0,,
276720,note_on,,,,,0,0,1,,,0,,,81,112
276720,note_on,,,,,0,0,1,,,0,,,83,112
276720,note_on,,,,,0,0,1,,,0,,,77,112
276720,control_change,,,,,2,0,1,,,0,7,112,,
276742,control_change,,,,,22,0,1,,,0,7,111,,
276742,control_change,,,,,22,0,2,,,0,7,111,,
276760,set_tempo,,,,,40,1,0,526316,,,,,,
276764,control_change,,,,,22,0,2,,,0,7,110,,
276764,control_change,,,,,22,0,1,,,0,7,110,,
276780,note_off,,,,,16,0,2,,,0,,,38,64
276780,note_on,,,,,0,0,2,,,0,,,40,114
276780,set_tempo,,,,,20,1,0,530973,,,,,,
276786,control_change,,,,,22,0,1,,,0,7,109,,
276786,control_change,,,,,6,0,2,,,0,7,109,,
276800,set_tempo,,,,,20,1,0,540541,,,,,,
276810,control_change,,,,,24,0,1,,,0,7,108,,
276810,control_change,,,,,24,0,2,,,0,7,108,,
276820,set_tempo,,,,,20,1,0,545455,,,,,,
276832,control_change,,,,,22,0,1,,,0,7,107,,
276832,control_change,,,,,22,0,2,,,0,7,107,,
276838,note_off,,,,,6,0,1,,,0,,,77,64
276838,note_off,,,,,0,0,1,,,0,,,81,64
276838,note_off,,,,,0,0,1,,,0,,,83,64
276840,note_on,,,,,0,0,2,,,0,,,41,121
276840,note_on,,,,,0,0,1,,,0,,,81,107
276840,note_on,,,,,0,0,1,,,0,,,77,107
276840,note_on,,,,,2,0,1,,,0,,,83,107
276840,note_off,,,,,8,0,2,,,0,,,40,64
276840,set_tempo,,,,,20,1,0,550459,,,,,,
276854,control_change,,,,,14,0,1,,,0,7,106,,
276854,control_change,,,,,14,0,2,,,0,7,106,,
276876,control_change,,,,,22,0,1,,,0,7,105,,
276876,control_change,,,,,22,0,2,,,0,7,105,,
276880,set_tempo,,,,,40,1,0,560748,,,,,,
276900,set_tempo,,,,,20,1,0,566038,,,,,,
276900,note_on,,,,,0,0,2,,,0,,,38,124
276900,control_change,,,,,0,0,2,,,0,7,104,,
276900,note_off,,,,,24,0,2,,,0,,,41,64
276900,control_change,,,,,24,0,1,,,0,7,104,,
276922,control_change,,,,,22,0,1,,,0,7,103,,
276922,control_change,,,,,22,0,2,,,0,7,103,,
276940,set_tempo,,,,,40,1,0,571429,,,,,,
276944,control_change,,,,,22,0,1,,,0,7,102,,
276944,control_change,,,,,22,0,2,,,0,7,102,,
276958,note_off,,,,,14,0,1,,,0,,,77,64
276958,note_off,,,,,0,0,1,,,0,,,81,64
276958,note_off,,,,,0,0,1,,,0,,,83,64
276960,note_off,,,,,16,0,2,,,0,,,38,64
276960,note_on,,,,,0,0,2,,,0,,,36,127
276960,note_on,,,,,2,0,1,,,0,,,79,100
276960,note_on,,,,,0,0,1,,,0,,,84,100
276960,note_on,,,,,0,0,1,,,0,,,76,100
276960,control_change,,,,,0,0,1,,,0,64,95,,
276960,set_tempo,,,,,20,1,0,576923,,,,,,
276966,control_change,,,,,6,0,2,,,0,7,101,,
276966,control_change,,,,,6,0,1,,,0,7,101,,
276990,control_change,,,,,24,0,2,,,0,7,100,,
276990,control_change,,,,,24,0,1,,,0,7,100,,
277000,set_tempo,,,,,40,1,0,582524,,,,,,
277012,control_change,,,,,22,0,2,,,0,7,99,,
277012,control_change,,,,,22,0,1,,,0,7,99,,
277034,control_change,,,,,22,0,1,,,0,7,98,,
277034,control_change,,,,,22,0,2,,,0,7,98,,
277040,set_tempo,,,,,40,1,0,588235,,,,,,
277056,control_change,,,,,22,0,1,,,0,7,97,,
277056,control_change,,,,,22,0,2,,,0,7,97,,
277078,note_off,,,,,0,0,1,,,0,,,79,64
277078,note_off,,,,,0,0,1,,,0,,,84,64
277078,note_off,,,,,22,0,1,,,0,,,76,64
277080,control_change,,,,,24,0,2,,,0,7,96,,
277080,note_on,,,,,0,0,1,,,0,,,84,87
277080,note_on,,,,,0,0,1,,,0,,,79,87
277080,control_change,,,,,2,0,1,,,0,7,96,,
277080,set_tempo,,,,,40,1,0,594059,,,,,,
277080,note_on,,,,,0,0,1,,,0,,,76,87
277100,set_tempo,,,,,20,1,0,600000,,,,,,
277102,control_change,,,,,22,0,2,,,0,7,95,,
277102,control_change,,,,,22,0,1,,,0,7,95,,
277124,control_change,,,,,22,0,2,,,0,7,94,,
277124,control_change,,,,,22,0,1,,,0,7,94,,
277140,note_off,,,,,16,0,2,,,0,,,36,64
277146,control_change,,,,,6,0,2,,,0,7,93,,
277146,control_change,,,,,22,0,1,,,0,7,93,,
277160,set_tempo,,,,,60,1,0,606061,,,,,,
277170,control_change,,,,,24,0,2,,,0,7,92,,
277170,control_change,,,,,24,0,1,,,0,7,92,,
277192,control_change,,,,,22,0,2,,,0,7,91,,
277192,control_change,,,,,22,0,1,,,0,7,91,,
277198,note_off,,,,,0,0,1,,,0,,,79,64
277198,note_off,,,,,0,0,1,,,0,,,84,64
277198,note_off,,,,,6,0,1,,,0,,,76,64
277200,note_on,,,,,8,0,2,,,0,,,36,104
277200,note_on,,,,,2,0,1,,,0,,,80,75
277200,note_on,,,,,0,0,1,,,0,,,84,75
277200,note_on,,,,,0,0,1,,,0,,,77,75
277214,control_change,,,,,14,0,1,,,0,7,90,,
277214,control_change,,,,,14,0,2,,,0,7,90,,
277220,set_tempo,,,,,60,1,0,612245,,,,,,
277236,control_change,,,,,22,0,1,,,0,7,89,,
277236,control_change,,,,,22,0,2,,,0,7,89,,
277260,control_change,,,,,24,0,2,,,0,7,88,,
277260,set_tempo,,,,,40,1,0,618557,,,,,,
277260,control_change,,,,,24,0,1,,,0,7,88,,
277280,set_tempo,,,,,20,1,0,625000,,,,,,
277282,control_change,,,,,22,0,1,,,0,7,87,,
277282,control_change,,,,,22,0,2,,,0,7,87,,
277304,control_change,,,,,22,0,1,,,0,7,86,,
277304,control_change,,,,,22,0,2,,,0,7,86,,
277318,note_off,,,,,14,0,1,,,0,,,77,64
277318,note_off,,,,,0,0,1,,,0,,,84,64
277318,note_off,,,,,0,0,1,,,0,,,80,64
277320,note_on,,,,,2,0,1,,,0,,,80,67
277320,note_on,,,,,0,0,1,,,0,,,84,67
277320,note_on,,,,,0,0,1,,,0,,,77,67
277326,control_change,,,,,6,0,1,,,0,7,85,,
277326,control_change,,,,,22,0,2,,,0,7,85,,
277350,control_change,,,,,24,0,1,,,0,7,84,,
277350,control_change,,,,,24,0,2,,,0,7,84,,
277360,set_tempo,,,,,80,1,0,631579,,,,,,
277372,control_change,,,,,22,0,2,,,0,7,83,,
277372,control_change,,,,,22,0,1,,,0,7,83,,
277380,set_tempo,,,,,20,1,0,952381,,,,,,
277380,note_off,,,,,8,0,2,,,0,,,36,64
277394,control_change,,,,,14,0,2,,,0,7,82,,
277394,control_change,,,,,22,0,1,,,0,7,82,,
277416,control_change,,,,,22,0,1,,,0,7,81,,
277416,control_change,,,,,22,0,2,,,0,7,81,,
277430,control_change,,,,,14,0,1,,,0,64,0,,
277438,note_off,,,,,0,0,1,,,0,,,80,64
277438,note_off,,,,,0,0,1,,,0,,,84,64
277438,note_off,,,,,8,0,1,,,0,,,77,64
277440,set_tempo,,,,,60,1,0,779221,,,,,,
277440,note_on,,,,,24,0,2,,,0,,,36,74
277440,control_change,,,,,0,0,1,,,0,64,95,,
277440,note_on,,,,,0,0,1,,,0,,,84,61
277440,note_on,,,,,0,0,1,,,0,,,79,61
277440,note_on,,,,,0,0,1,,,0,,,76,61
277440,control_change,,,,,2,0,1,,,0,7,80,,
277440,control_change,,,,,0,0,2,,,0,7,80,,
277460,set_tempo,,,,,20,1,0,545455,,,,,,
277480,set_tempo,,,,,20,1,0,594059,,,,,,
277520,set_tempo,,,,,40,1,0,588235,,,,,,
277560,note_on,,,,,0,0,2,,,0,,,67,53
277560,note_off,,,,,120,0,2,,,0,,,36,64
277560,note_on,,,,,0,0,2,,,0,,,60,53
277560,note_on,,,,,0,0,2,,,0,,,64,53
277640,set_tempo,,,,,120,1,0,582524,,,,,,
277678,note_off,,,,,118,0,2,,,0,,,60,64
277678,note_off,,,,,0,0,2,,,0,,,64,64
277678,note_off,,,,,0,0,2,,,0,,,67,64
277680,note_on,,,,,2,0,2,,,0,,,67,54
277680,note_on,,,,,0,0,2,,,0,,,64,54
277680,note_on,,,,,0,0,2,,,0,,,60,54
277798,note_off,,,,,0,0,2,,,0,,,67,64
277798,note_off,,,,,118,0,2,,,0,,,60,64
277798,note_off,,,,,0,0,2,,,0,,,64,64
277800,set_tempo,,,,,160,1,0,566038,,,,,,
277800,note_on,,,,,2,0,2,,,0,,,67,58
277800,note_on,,,,,0,0,2,,,0,,,64,58
277800,note_on,,,,,0,0,2,,,0,,,60,58
277918,note_off,,,,,118,0,2,,,0,,,60,64
277918,note_off,,,,,0,0,1,,,0,,,76,64
277918,note_off,,,,,0,0,1,,,0,,,79,64
277918,note_off,,,,,478,0,1,,,0,,,84,64
277918,note_off,,,,,0,0,2,,,0,,,64,64
277918,note_off,,,,,0,0,2,,,0,,,67,64
277920,note_on,,,,,0,0,2,,,0,,,60,54
277920,note_on,,,,,2,0,2,,,0,,,67,54
277920,note_on,,,,,0,0,2,,,0,,,64,54
278038,note_off,,,,,0,0,2,,,0,,,64,64
278038,note_off,,,,,118,0,2,,,0,,,60,64
278038,note_off,,,,,0,0,2,,,0,,,67,64
278040,note_on,,,,,0,0,2,,,0,,,60,47
278040,set_tempo,,,,,240,1,0,545455,,,,,,
278040,note_on,,,,,0,0,2,,,0,,,64,47
278040,note_on,,,,,2,0,2,,,0,,,67,47
278140,control_change,,,,,100,0,2,,,0,64,0,,
278158,note_off,,,,,18,0,2,,,0,,,60,64
278158,note_off,,,,,0,0,2,,,0,,,64,64
278158,note_off,,,,,0,0,2,,,0,,,67,64
278160,note_on,,,,,2,0,2,,,0,,,67,43
278160,note_on,,,,,0,0,2,,,0,,,64,43
278160,note_on,,,,,0,0,2,,,0,,,60,43
278160,control_change,,,,,0,0,2,,,0,64,96,,
278278,note_off,,,,,118,0,2,,,0,,,60,64
278278,note_off,,,,,0,0,2,,,0,,,64,64
278278,note_off,,,,,0,0,2,,,0,,,67,64
278280,note_on,,,,,2,0,2,,,0,,,67,37
278280,note_on,,,,,0,0,2,,,0,,,64,37
278280,note_on,,,,,0,0,2,,,0,,,60,37
278320,set_tempo,,,,,280,1,0,530973,,,,,,
278398,note_off,,,,,0,0,2,,,0,,,67,64
278398,note_off,,,,,0,0,2,,,0,,,64,64
278398,control_change,,,,,480,0,1,,,0,64,95,,
278398,note_off,,,,,118,0,2,,,0,,,60,64
278400,note_on,,,,,2,0,2,,,0,,,48,49
278400,note_on,,,,,2,0,1,,,0,,,79,53
278518,note_off,,,,,118,0,2,,,0,,,48,64
278520,set_tempo,,,,,200,1,0,526316,,,,,,
278520,note_on,,,,,2,0,2,,,0,,,67,33
278520,note_on,,,,,0,0,2,,,0,,,63,33
278520,note_on,,,,,0,0,2,,,0,,,60,33
278620,control_change,,,,,100,0,2,,,0,64,0,,
278638,note_off,,,,,18,0,2,,,0,,,60,64
278638,note_off,,,,,0,0,2,,,0,,,63,64
278638,note_off,,,,,0,0,2,,,0,,,67,64
278640,note_off,,,,,240,0,1,,,0,,,79,64
278640,note_on,,,,,0,0,1,,,0,,,77,46
278640,note_on,,,,,2,0,2,,,0,,,67,28
278640,note_on,,,,,0,0,2,,,0,,,63,28
278640,note_on,,,,,0,0,2,,,0,,,60,28
278700,note_off,,,,,60,0,1,,,0,,,77,64
278700,note_on,,,,,0,0,1,,,0,,,75,49
278720,set_tempo,,,,,200,1,0,521739,,,,,,
278758,note_off,,,,,118,0,2,,,0,,,60,64
278758,note_off,,,,,0,0,2,,,0,,,63,64
278758,note_off,,,,,0,0,2,,,0,,,67,64
278760,note_on,,,,,0,0,2,,,0,,,60,25
278760,note_on,,,,,0,0,2,,,0,,,63,25
278760,note_on,,,,,2,0,2,,,0,,,67,25
278760,note_off,,,,,60,0,1,,,0,,,75,64
278760,note_on,,,,,0,0,1,,,0,,,74,53
278820,note_off,,,,,60,0,1,,,0,,,74,64
278820,note_on,,,,,0,0,1,,,0,,,72,56
278858,control_change,,,,,38,0,1,,,0,64,0,,
278878,note_off,,,,,118,0,2,,,0,,,60,64
278878,control_change,,,,,20,0,1,,,0,64,95,,
278878,note_off,,,,,0,0,2,,,0,,,63,64
278878,note_off,,,,,0,0,2,,,0,,,67,64
278880,note_off,,,,,2,0,1,,,0,,,72,64
278880,note_on,,,,,0,0,1,,,0,,,80,58
278880,note_on,,,,,2,0,2,,,0,,,48,44
278880,note_on,,,,,0,0,1,,,0,,,74,58
278920,set_tempo,,,,,200,1,0,517241,,,,,,
278998,note_off,,,,,118,0,2,,,0,,,48,64
279000,note_on,,,,,2,0,2,,,0,,,68,33
279000,note_on,,,,,0,0,2,,,0,,,59,33
279000,note_on,,,,,0,0,2,,,0,,,65,33
279118,note_off,,,,,118,0,2,,,0,,,59,64
279118,note_off,,,,,0,0,2,,,0,,,68,64
279118,note_off,,,,,0,0,2,,,0,,,65,64
279120,note_on,,,,,0,0,2,,,0,,,65,30
279120,note_on,,,,,0,0,2,,,0,,,59,30
279120,note_on,,,,,2,0,2,,,0,,,68,30
279160,set_tempo,,,,,240,1,0,512821,,,,,,
279238,note_off,,,,,118,0,2,,,0,,,59,64
279238,note_off,,,,,0,0,2,,,0,,,65,64
279238,note_off,,,,,0,0,2,,,0,,,68,64
279240,note_on,,,,,2,0,2,,,0,,,68,27
279240,note_on,,,,,0,0,2,,,0,,,65,27
279240,note_on,,,,,0,0,2,,,0,,,59,27
279300,note_off,,,,,0,0,1,,,0,,,80,64
279300,note_off,,,,,420,0,1,,,0,,,74,64
279338,control_change,,,,,38,0,1,,,0,64,0,,
279358,note_off,,,,,0,0,2,,,0,,,68,64
279358,note_off,,,,,118,0,2,,,0,,,59,64
279358,note_off,,,,,0,0,2,,,0,,,65,64
279360,note_on,,,,,2,0,2,,,0,,,48,49
279360,control_change,,,,,0,0,1,,,0,64,95,,
279360,note_on,,,,,22,0,1,,,0,,,79,53
279478,note_off,,,,,118,0,2,,,0,,,48,64
279480,set_tempo,,,,,320,1,0,495868,,,,,,
279480,note_on,,,,,0,0,2,,,0,,,63,33
279480,note_on,,,,,2,0,2,,,0,,,67,33
279480,note_on,,,,,0,0,2,,,0,,,60,33
279580,control_change,,,,,100,0,2,,,0,64,0,,
279598,note_off,,,,,18,0,2,,,0,,,60,64
279598,note_off,,,,,0,0,2,,,0,,,63,64
279598,note_off,,,,,0,0,2,,,0,,,67,64
279600,note_on,,,,,0,0,1,,,0,,,77,58
279600,note_on,,,,,2,0,2,,,0,,,67,28
279600,note_on,,,,,0,0,2,,,0,,,60,28
279600,note_on,,,,,0,0,2,,,0,,,63,28
279600,note_off,,,,,240,0,1,,,0,,,79,64
279660,note_off,,,,,60,0,1,,,0,,,77,64
279660,note_on,,,,,0,0,1,,,0,,,75,62
279718,note_off,,,,,118,0,2,,,0,,,60,64
279718,note_off,,,,,0,0,2,,,0,,,67,64
279718,note_off,,,,,0,0,2,,,0,,,63,64
279720,note_on,,,,,0,0,2,,,0,,,63,37
279720,note_on,,,,,0,0,1,,,0,,,74,67
279720,note_off,,,,,60,0,1,,,0,,,75,64
279720,note_on,,,,,2,0,2,,,0,,,67,37
279720,note_on,,,,,0,0,2,,,0,,,60,37
279780,note_on,,,,,0,0,1,,,0,,,72,70
279780,note_off,,,,,60,0,1,,,0,,,74,64
279818,control_change,,,,,38,0,1,,,0,64,0,,
279838,note_off,,,,,0,0,2,,,0,,,63,64
279838,note_off,,,,,118,0,2,,,0,,,60,64
279838,control_change,,,,,20,0,1,,,0,64,95,,
279838,note_off,,,,,0,0,2,,,0,,,67,64
279840,note_on,,,,,2,0,2,,,0,,,48,49
279840,note_on,,,,,0,0,1,,,0,,,83,73
279840,set_tempo,,,,,360,1,0,491803,,,,,,
279840,note_off,,,,,2,0,1,,,0,,,72,64
279840,note_on,,,,,0,0,1,,,0,,,74,73
279958,note_off,,,,,118,0,2,,,0,,,48,64
279960,note_on,,,,,2,0,2,,,0,,,68,54
279960,note_on,,,,,0,0,2,,,0,,,65,54
279960,note_on,,,,,0,0,2,,,0,,,60,54
280020,set_tempo,,,,,180,1,0,487805,,,,,,
280078,note_off,,,,,0,0,2,,,0,,,68,64
280078,note_off,,,,,0,0,2,,,0,,,65,64
280078,note_off,,,,,118,0,2,,,0,,,60,64
280080,note_on,,,,,2,0,2,,,0,,,68,62
280080,note_on,,,,,0,0,2,,,0,,,60,62
280080,note_on,,,,,0,0,2,,,0,,,65,62
280198,note_off,,,,,118,0,2,,,0,,,60,64
280198,note_off,,,,,0,0,2,,,0,,,65,64
280198,note_off,,,,,0,0,2,,,0,,,68,64
280200,set_tempo,,,,,180,1,0,495868,,,,,,
280200,note_on,,,,,0,0,2,,,0,,,60,69
280200,note_on,,,,,0,0,2,,,0,,,65,69
280200,note_on,,,,,2,0,2,,,0,,,68,69
280260,note_off,,,,,0,0,1,,,0,,,83,64
280260,note_off,,,,,420,0,1,,,0,,,74,64
280298,control_change,,,,,38,0,1,,,0,64,0,,
280318,note_off,,,,,0,0,2,,,0,,,68,64
280318,note_off,,,,,118,0,2,,,0,,,60,64
280318,note_off,,,,,0,0,2,,,0,,,65,64
280320,note_on,,,,,22,0,1,,,0,,,75,73
280320,control_change,,,,,0,0,1,,,0,64,95,,
280320,note_on,,,,,0,0,1,,,0,,,84,73
280320,note_on,,,,,2,0,2,,,0,,,67,76
280320,note_on,,,,,0,0,2,,,0,,,63,76
280320,note_on,,,,,0,0,2,,,0,,,60,76
280440,note_off,,,,,120,0,2,,,0,,,60,64
280440,note_on,,,,,0,0,2,,,0,,,67,67
280440,note_off,,,,,0,0,2,,,0,,,67,64
280440,note_off,,,,,0,0,2,,,0,,,63,64
280440,note_on,,,,,0,0,2,,,0,,,63,67
280440,note_on,,,,,0,0,2,,,0,,,60,67
280560,note_off,,,,,0,0,1,,,0,,,75,64
280560,note_on,,,,,0,0,1,,,0,,,76,81
280560,note_on,,,,,0,0,2,,,0,,,58,75
280560,note_on,,,,,0,0,2,,,0,,,60,75
280560,note_on,,,,,0,0,2,,,0,,,67,75
280560,note_off,,,,,0,0,2,,,0,,,67,64
280560,note_off,,,,,0,0,2,,,0,,,63,64
280560,note_off,,,,,120,0,2,,,0,,,60,64
280560,note_off,,,,,240,0,1,,,0,,,84,64
280560,note_on,,,,,0,0,1,,,0,,,84,81
280580,set_tempo,,,,,380,1,0,512821,,,,,,
280620,note_on,,,,,0,0,1,,,0,,,77,84
280620,note_off,,,,,60,0,1,,,0,,,76,64
280680,note_off,,,,,60,0,1,,,0,,,77,64
280680,note_on,,,,,0,0,2,,,0,,,58,82
280680,note_on,,,,,0,0,2,,,0,,,67,82
280680,note_off,,,,,0,0,2,,,0,,,67,64
280680,note_off,,,,,0,0,2,,,0,,,60,64
280680,note_off,,,,,120,0,2,,,0,,,58,64
280680,note_on,,,,,0,0,2,,,0,,,60,82
280680,note_on,,,,,0,0,1,,,0,,,79,87
280740,note_on,,,,,0,0,1,,,0,,,76,90
280740,note_off,,,,,60,0,1,,,0,,,79,64
280790,control_change,,,,,50,0,1,,,0,64,0,,
280800,note_on,,,,,0,0,1,,,0,,,84,92
280800,note_on,,,,,0,0,2,,,0,,,56,89
280800,note_on,,,,,0,0,2,,,0,,,60,89
280800,note_on,,,,,0,0,2,,,0,,,65,89
280800,note_on,,,,,0,0,1,,,0,,,77,92
280800,note_off,,,,,0,0,2,,,0,,,67,64
280800,note_off,,,,,120,0,2,,,0,,,58,64
280800,note_off,,,,,10,0,1,,,0,,,76,64
280800,note_off,,,,,0,0,1,,,0,,,84,64
280800,control_change,,,,,0,0,1,,,0,64,95,,
280800,note_off,,,,,0,0,2,,,0,,,60,64
280880,set_tempo,,,,,300,1,0,535714,,,,,,
280920,note_off,,,,,120,0,2,,,0,,,56,64
280920,note_on,,,,,0,0,2,,,0,,,56,84
280920,note_on,,,,,0,0,2,,,0,,,60,84
280920,note_on,,,,,0,0,2,,,0,,,65,84
280920,note_off,,,,,0,0,2,,,0,,,65,64
280920,note_off,,,,,0,0,2,,,0,,,60,64
281040,note_off,,,,,120,0,2,,,0,,,56,64
281040,note_off,,,,,0,0,2,,,0,,,60,64
281040,note_off,,,,,0,0,2,,,0,,,65,64
281040,note_on,,,,,0,0,2,,,0,,,60,91
281040,note_on,,,,,0,0,2,,,0,,,55,91
281040,note_on,,,,,0,0,1,,,0,,,79,90
281040,note_on,,,,,0,0,1,,,0,,,84,90
281040,note_off,,,,,0,0,1,,,0,,,77,64
281040,note_off,,,,,240,0,1,,,0,,,84,64
281040,note_on,,,,,0,0,2,,,0,,,64,91
281080,set_tempo,,,,,200,1,0,550459,,,,,,
281100,note_on,,,,,0,0,1,,,0,,,80,95
281100,note_off,,,,,60,0,1,,,0,,,79,64
281160,note_on,,,,,0,0,1,,,0,,,82,97
281160,note_off,,,,,60,0,1,,,0,,,80,64
281160,note_off,,,,,0,0,2,,,0,,,60,64
281160,note_off,,,,,120,0,2,,,0,,,55,64
281160,note_on,,,,,0,0,2,,,0,,,55,98
281160,note_on,,,,,0,0,2,,,0,,,60,98
281160,note_on,,,,,0,0,2,,,0,,,64,98
281160,note_off,,,,,0,0,2,,,0,,,64,64
281220,note_on,,,,,0,0,1,,,0,,,79,101
281220,note_off,,,,,60,0,1,,,0,,,82,64
281220,set_tempo,,,,,140,1,0,594059,,,,,,
281240,set_tempo,,,,,20,1,0,952381,,,,,,
281270,control_change,,,,,50,0,1,,,0,64,0,,
281280,note_off,,,,,0,0,2,,,0,,,64,64
281280,note_off,,,,,10,0,1,,,0,,,79,64
281280,note_off,,,,,0,0,1,,,0,,,84,64
281280,note_on,,,,,0,0,1,,,0,,,82,106
281280,note_on,,,,,0,0,1,,,0,,,85,106
281280,control_change,,,,,0,0,1,,,0,64,96,,
281280,note_off,,,,,120,0,2,,,0,,,55,64
281280,note_off,,,,,0,0,2,,,0,,,60,64
281280,note_on,,,,,0,0,2,,,0,,,41,105
281280,set_tempo,,,,,40,1,0,659341,,,,,,
281300,set_tempo,,,,,20,1,0,600000,,,,,,
281400,note_on,,,,,0,0,2,,,0,,,65,88
281400,note_on,,,,,0,0,2,,,0,,,60,88
281400,note_on,,,,,0,0,2,,,0,,,53,88
281400,note_off,,,,,120,0,2,,,0,,,41,64
281520,note_on,,,,,0,0,2,,,0,,,65,74
281520,note_off,,,,,120,0,2,,,0,,,53,64
281520,note_off,,,,,0,0,2,,,0,,,60,64
281520,note_off,,,,,0,0,2,,,0,,,65,64
281520,note_on,,,,,0,0,2,,,0,,,60,74
281520,note_on,,,,,0,0,2,,,0,,,53,74
281540,set_tempo,,,,,240,1,0,540541,,,,,,
281640,note_off,,,,,120,0,2,,,0,,,53,64
281640,note_off,,,,,0,0,2,,,0,,,60,64
281640,note_on,,,,,0,0,2,,,0,,,65,68
281640,note_on,,,,,0,0,2,,,0,,,60,68
281640,note_off,,,,,0,0,2,,,0,,,65,64
281640,note_on,,,,,0,0,1,,,0,,,84,81
281640,note_on,,,,,0,0,1,,,0,,,80,81
281640,note_off,,,,,0,0,1,,,0,,,82,64
281640,note_off,,,,,360,0,1,,,0,,,85,64
281640,note_on,,,,,0,0,2,,,0,,,53,68
281660,set_tempo,,,,,120,1,0,521739,,,,,,
281750,control_change,,,,,110,0,1,,,0,64,0,,
281760,note_off,,,,,120,0,2,,,0,,,53,64
281760,note_on,,,,,0,0,1,,,0,,,79,92
281760,note_off,,,,,0,0,2,,,0,,,60,64
281760,note_off,,,,,0,0,2,,,0,,,65,64
281760,note_on,,,,,0,0,2,,,0,,,41,83
281760,control_change,,,,,0,0,1,,,0,64,95,,
281760,note_on,,,,,0,0,1,,,0,,,82,92
281760,note_off,,,,,10,0,1,,,0,,,84,64
281760,note_off,,,,,0,0,1,,,0,,,80,64
281840,set_tempo,,,,,180,1,0,504202,,,,,,
281880,note_off,,,,,120,0,1,,,0,,,82,64
281880,note_off,,,,,120,0,2,,,0,,,41,64
281880,note_on,,,,,0,0,2,,,0,,,60,72
281880,note_on,,,,,0,0,2,,,0,,,53,72
281880,note_off,,,,,0,0,1,,,0,,,79,64
281880,note_on,,,,,0,0,1,,,0,,,77,84
281880,note_on,,,,,0,0,1,,,0,,,80,84
282000,note_on,,,,,0,0,2,,,0,,,60,61
282000,note_off,,,,,120,0,1,,,0,,,80,64
282000,note_on,,,,,0,0,1,,,0,,,75,75
282000,note_on,,,,,0,0,1,,,0,,,79,75
282000,note_off,,,,,0,0,2,,,0,,,60,64
282000,note_off,,,,,0,0,1,,,0,,,77,64
282000,note_on,,,,,0,0,2,,,0,,,53,61
282000,note_off,,,,,120,0,2,,,0,,,53,64
282080,set_tempo,,,,,240,1,0,491803,,,,,,
282120,note_off,,,,,120,0,1,,,0,,,79,64
282120,note_on,,,,,0,0,2,,,0,,,53,57
282120,note_off,,,,,0,0,1,,,0,,,75,64
282120,note_on,,,,,0,0,1,,,0,,,74,62
282120,note_on,,,,,0,0,1,,,0,,,77,62
282120,note_off,,,,,120,0,2,,,0,,,53,64
282120,note_on,,,,,0,0,2,,,0,,,62,57
282120,note_off,,,,,0,0,2,,,0,,,60,64
282224,note_off,,,,,0,0,1,,,0,,,74,64
282224,note_off,,,,,104,0,1,,,0,,,77,64
282230,control_change,,,,,6,0,1,,,0,64,0,,
282240,note_on,,,,,10,0,1,,,0,,,74,72
282240,note_on,,,,,0,0,1,,,0,,,77,72
282240,note_off,,,,,120,0,2,,,0,,,53,64
282240,note_off,,,,,0,0,2,,,0,,,62,64
282240,note_on,,,,,0,0,2,,,0,,,43,80
282340,set_tempo,,,,,260,1,0,483871,,,,,,
282360,note_on,,,,,0,0,2,,,0,,,55,64
282360,note_on,,,,,0,0,2,,,0,,,60,64
282360,note_on,,,,,0,0,2,,,0,,,63,64
282360,note_off,,,,,120,0,2,,,0,,,43,64
282420,note_on,,,,,0,0,1,,,0,,,72,65
282420,note_on,,,,,0,0,1,,,0,,,75,65
282420,note_off,,,,,180,0,1,,,0,,,77,64
282420,note_off,,,,,0,0,1,,,0,,,74,64
282480,note_off,,,,,60,0,1,,,0,,,75,64
282480,note_on,,,,,0,0,1,,,0,,,74,63
282480,note_on,,,,,0,0,2,,,0,,,55,59
282480,note_on,,,,,0,0,1,,,0,,,77,63
282480,note_on,,,,,0,0,2,,,0,,,63,59
282480,note_off,,,,,0,0,2,,,0,,,60,64
282480,note_off,,,,,120,0,2,,,0,,,55,64
282480,note_on,,,,,0,0,2,,,0,,,60,59
282480,note_off,,,,,0,0,2,,,0,,,63,64
282480,note_off,,,,,0,0,1,,,0,,,72,64
282480,set_tempo,,,,,140,1,0,472441,,,,,,
282540,note_off,,,,,0,0,1,,,0,,,74,64
282540,note_on,,,,,0,0,1,,,0,,,75,58
282540,note_on,,,,,0,0,1,,,0,,,72,58
282540,note_off,,,,,60,0,1,,,0,,,77,64
282600,note_on,,,,,0,0,1,,,0,,,77,53
282600,note_on,,,,,0,0,1,,,0,,,74,53
282600,note_off,,,,,60,0,1,,,0,,,75,64
282600,note_off,,,,,0,0,1,,,0,,,72,64
282600,note_off,,,,,0,0,2,,,0,,,60,64
282600,note_off,,,,,0,0,2,,,0,,,63,64
282600,note_on,,,,,0,0,2,,,0,,,63,53
282600,note_on,,,,,0,0,2,,,0,,,60,53
282600,note_on,,,,,0,0,2,,,0,,,55,53
282600,note_off,,,,,120,0,2,,,0,,,55,64
282660,note_on,,,,,0,0,1,,,0,,,72,51
282660,note_off,,,,,60,0,1,,,0,,,77,64
282660,note_off,,,,,0,0,1,,,0,,,74,64
282660,note_on,,,,,0,0,1,,,0,,,75,51
282700,set_tempo,,,,,220,1,0,600000,,,,,,
282708,note_off,,,,,48,0,1,,,0,,,75,64
282708,note_off,,,,,0,0,1,,,0,,,72,64
282720,note_on,,,,,12,0,1,,,0,,,72,63
282720,set_tempo,,,,,20,1,0,472441,,,,,,
282720,note_on,,,,,0,0,1,,,0,,,75,63
282720,note_off,,,,,120,0,2,,,0,,,55,64
282720,note_off,,,,,0,0,2,,,0,,,60,64
282720,note_off,,,,,0,0,2,,,0,,,63,64
282720,note_on,,,,,0,0,2,,,0,,,43,60
282800,set_tempo,,,,,80,1,0,476190,,,,,,
282840,note_off,,,,,120,0,2,,,0,,,43,64
282840,note_on,,,,,0,0,2,,,0,,,65,51
282840,note_on,,,,,0,0,2,,,0,,,62,51
282840,note_on,,,,,0,0,2,,,0,,,55,51
282900,note_off,,,,,180,0,1,,,0,,,75,64
282900,note_on,,,,,0,0,1,,,0,,,71,56
282900,note_off,,,,,0,0,1,,,0,,,72,64
282900,note_on,,,,,0,0,1,,,0,,,74,56
282960,note_off,,,,,120,0,2,,,0,,,55,64
282960,note_on,,,,,0,0,2,,,0,,,65,45
282960,note_on,,,,,0,0,2,,,0,,,62,45
282960,note_on,,,,,0,0,2,,,0,,,55,45
282960,note_off,,,,,60,0,1,,,0,,,74,64
282960,note_off,,,,,0,0,1,,,0,,,71,64
282960,note_on,,,,,0,0,1,,,0,,,72,50
282960,note_on,,,,,0,0,1,,,0,,,75,50
282960,note_off,,,,,0,0,2,,,0,,,65,64
282960,note_off,,,,,0,0,2,,,0,,,62,64
283020,note_off,,,,,60,0,1,,,0,,,75,64
283020,note_off,,,,,0,0,1,,,0,,,72,64
283020,note_on,,,,,0,0,1,,,0,,,71,46
283020,note_on,,,,,0,0,1,,,0,,,74,46
283060,set_tempo,,,,,260,1,0,483871,,,,,,
283080,note_off,,,,,120,0,2,,,0,,,55,64
283080,note_off,,,,,0,0,2,,,0,,,62,64
283080,note_off,,,,,0,0,2,,,0,,,65,64
283080,note_on,,,,,0,0,2,,,0,,,65,39
283080,note_on,,,,,0,0,2,,,0,,,62,39
283080,note_on,,,,,0,0,2,,,0,,,55,39
283080,note_off,,,,,60,0,1,,,0,,,74,64
283080,note_off,,,,,0,0,1,,,0,,,71,64
283080,note_on,,,,,0,0,1,,,0,,,72,41
283080,note_on,,,,,0,0,1,,,0,,,75,41
283140,note_on,,,,,0,0,1,,,0,,,74,38
283140,note_on,,,,,0,0,1,,,0,,,71,38
283140,note_off,,,,,0,0,1,,,0,,,72,64
283140,note_off,,,,,60,0,1,,,0,,,75,64
283160,set_tempo,,,,,100,1,0,1090909,,,,,,
283184,note_off,,,,,0,0,1,,,0,,,71,64
283184,note_off,,,,,44,0,1,,,0,,,74,64
283200,note_off,,,,,0,0,2,,,0,,,65,64
283200,note_off,,,,,0,0,2,,,0,,,62,64
283200,note_off,,,,,120,0,2,,,0,,,55,64
283200,note_on,,,,,0,0,2,,,0,,,48,105
283200,set_tempo,,,,,40,1,0,659341,,,,,,
283200,note_on,,,,,0,0,1,,,0,,,87,106
283200,control_change,,,,,0,0,1,,,0,64,96,,
283200,note_on,,,,,16,0,1,,,0,,,84,88
283220,set_tempo,,,,,20,1,0,600000,,,,,,
283320,note_off,,,,,120,0,1,,,0,,,84,64
283320,note_on,,,,,120,0,2,,,0,,,55,88
283320,note_on,,,,,0,0,1,,,0,,,79,97
283440,note_off,,,,,120,0,1,,,0,,,79,64
283440,note_off,,,,,0,0,1,,,0,,,87,64
283440,note_on,,,,,0,0,1,,,0,,,77,88
283440,note_on,,,,,0,0,1,,,0,,,86,81
283440,note_off,,,,,120,0,2,,,0,,,55,64
283440,note_on,,,,,0,0,2,,,0,,,59,74
283460,set_tempo,,,,,240,1,0,540541,,,,,,
283560,note_off,,,,,120,0,2,,,0,,,59,64
283560,note_on,,,,,0,0,1,,,0,,,84,81
283560,note_on,,,,,0,0,1,,,0,,,75,81
283560,note_off,,,,,0,0,1,,,0,,,77,64
283560,note_off,,,,,120,0,1,,,0,,,86,64
283560,note_on,,,,,0,0,2,,,0,,,60,68
283580,set_tempo,,,,,120,1,0,521739,,,,,,
283620,note_off,,,,,60,0,2,,,0,,,48,64
283670,control_change,,,,,110,0,1,,,0,64,0,,
283680,note_on,,,,,0,0,2,,,0,,,53,83
283680,note_on,,,,,0,0,2,,,0,,,61,72
283680,note_off,,,,,10,0,1,,,0,,,84,64
283680,note_off,,,,,0,0,1,,,0,,,75,64
283680,note_on,,,,,0,0,1,,,0,,,76,92
283680,note_on,,,,,0,0,1,,,0,,,82,92
283680,control_change,,,,,0,0,1,,,0,64,95,,
283680,note_off,,,,,60,0,2,,,0,,,60,64
283760,set_tempo,,,,,180,1,0,504202,,,,,,
283800,note_on,,,,,0,0,2,,,0,,,60,61
283800,note_on,,,,,0,0,1,,,0,,,77,84
283800,note_off,,,,,0,0,1,,,0,,,76,64
283800,note_off,,,,,120,0,2,,,0,,,61,64
283800,note_on,,,,,0,0,1,,,0,,,80,84
283800,note_off,,,,,120,0,1,,,0,,,82,64
283920,note_off,,,,,0,0,1,,,0,,,77,64
283920,note_on,,,,,0,0,1,,,0,,,75,75
283920,note_on,,,,,0,0,1,,,0,,,79,75
283920,note_on,,,,,120,0,2,,,0,,,53,61
283920,note_off,,,,,120,0,1,,,0,,,80,64
284000,set_tempo,,,,,240,1,0,491803,,,,,,
284040,note_off,,,,,0,0,1,,,0,,,75,64
284040,note_on,,,,,0,0,1,,,0,,,77,62
284040,note_on,,,,,0,0,1,,,0,,,74,62
284040,note_off,,,,,120,0,2,,,0,,,60,64
284040,note_on,,,,,0,0,2,,,0,,,62,57
284040,note_off,,,,,0,0,2,,,0,,,53,64
284040,note_off,,,,,120,0,1,,,0,,,79,64
284100,note_off,,,,,60,0,2,,,0,,,53,64
284144,note_off,,,,,0,0,1,,,0,,,74,64
284144,note_off,,,,,104,0,1,,,0,,,77,64
284150,control_change,,,,,6,0,1,,,0,64,0,,
284160,note_on,,,,,10,0,1,,,0,,,74,72
284160,note_on,,,,,0,0,2,,,0,,,43,80
284160,note_off,,,,,60,0,2,,,0,,,62,64
284160,note_on,,,,,0,0,1,,,0,,,77,72
284260,set_tempo,,,,,260,1,0,483871,,,,,,
284280,note_on,,,,,0,0,2,,,0,,,55,64
284280,note_off,,,,,120,0,2,,,0,,,43,64
284280,note_on,,,,,0,0,2,,,0,,,63,64
284280,note_on,,,,,0,0,2,,,0,,,60,64
284340,note_on,,,,,0,0,1,,,0,,,72,65
284340,note_on,,,,,0,0,1,,,0,,,75,65
284340,note_off,,,,,0,0,1,,,0,,,74,64
284340,note_off,,,,,180,0,1,,,0,,,77,64
284400,note_off,,,,,0,0,2,,,0,,,63,64
284400,note_on,,,,,0,0,2,,,0,,,63,59
284400,note_on,,,,,0,0,2,,,0,,,60,59
284400,note_on,,,,,0,0,1,,,0,,,77,63
284400,note_on,,,,,0,0,1,,,0,,,74,63
284400,note_on,,,,,0,0,2,,,0,,,55,59
284400,note_off,,,,,60,0,1,,,0,,,75,64
284400,set_tempo,,,,,140,1,0,472441,,,,,,
284400,note_off,,,,,120,0,2,,,0,,,55,64
284400,note_off,,,,,0,0,2,,,0,,,60,64
284400,note_off,,,,,0,0,1,,,0,,,72,64
284460,note_off,,,,,60,0,1,,,0,,,77,64
284460,note_on,,,,,0,0,1,,,0,,,72,58
284460,note_on,,,,,0,0,1,,,0,,,75,58
284460,note_off,,,,,0,0,1,,,0,,,74,64
284520,note_on,,,,,0,0,2,,,0,,,63,53
284520,note_off,,,,,0,0,2,,,0,,,63,64
284520,note_off,,,,,0,0,2,,,0,,,60,64
284520,note_off,,,,,120,0,2,,,0,,,55,64
284520,note_off,,,,,60,0,1,,,0,,,75,64
284520,note_on,,,,,0,0,1,,,0,,,77,53
284520,note_on,,,,,0,0,1,,,0,,,74,53
284520,note_off,,,,,0,0,1,,,0,,,72,64
284520,note_on,,,,,0,0,2,,,0,,,55,53
284520,note_on,,,,,0,0,2,,,0,,,60,53
284580,note_off,,,,,0,0,1,,,0,,,74,64
284580,note_on,,,,,0,0,1,,,0,,,75,51
284580,note_off,,,,,60,0,1,,,0,,,77,64
284580,note_on,,,,,0,0,1,,,0,,,72,51
284620,set_tempo,,,,,220,1,0,600000,,,,,,
284628,note_off,,,,,48,0,1,,,0,,,75,64
284628,note_off,,,,,0,0,1,,,0,,,72,64
284640,note_off,,,,,120,0,2,,,0,,,55,64
284640,note_on,,,,,12,0,1,,,0,,,72,63
284640,set_tempo,,,,,20,1,0,472441,,,,,,
284640,note_off,,,,,0,0,2,,,0,,,60,64
284640,note_off,,,,,0,0,2,,,0,,,63,64
284640,note_on,,,,,0,0,2,,,0,,,43,60
284640,note_on,,,,,0,0,1,,,0,,,75,63
284720,set_tempo,,,,,80,1,0,476190,,,,,,
284760,note_off,,,,,120,0,2,,,0,,,43,64
284760,note_on,,,,,0,0,2,,,0,,,65,51
284760,note_on,,,,,0,0,2,,,0,,,62,51
284760,note_on,,,,,0,0,2,,,0,,,55,51
284780,set_tempo,,,,,60,1,0,491803,,,,,,
284820,note_off,,,,,0,0,1,,,0,,,72,64
284820,note_on,,,,,0,0,1,,,0,,,71,56
284820,note_on,,,,,0,0,1,,,0,,,74,56
284820,note_off,,,,,180,0,1,,,0,,,75,64
284860,set_tempo,,,,,80,1,0,504202,,,,,,
284880,note_off,,,,,0,0,2,,,0,,,65,64
284880,note_off,,,,,0,0,2,,,0,,,62,64
284880,note_off,,,,,60,0,1,,,0,,,74,64
284880,note_off,,,,,0,0,1,,,0,,,71,64
284880,note_on,,,,,0,0,2,,,0,,,65,45
284880,note_on,,,,,0,0,1,,,0,,,72,50
284880,note_on,,,,,0,0,1,,,0,,,75,50
284880,note_on,,,,,0,0,2,,,0,,,62,45
284880,note_on,,,,,0,0,2,,,0,,,55,45
284880,note_off,,,,,120,0,2,,,0,,,55,64
284940,note_on,,,,,0,0,1,,,0,,,71,46
284940,note_off,,,,,60,0,1,,,0,,,75,64
284940,note_off,,,,,0,0,1,,,0,,,72,64
284940,note_on,,,,,0,0,1,,,0,,,74,46
284960,set_tempo,,,,,100,1,0,526316,,,,,,
285000,note_on,,,,,0,0,2,,,0,,,62,39
285000,note_off,,,,,120,0,2,,,0,,,55,64
285000,note_off,,,,,0,0,2,,,0,,,62,64
285000,note_off,,,,,0,0,2,,,0,,,65,64
285000,note_on,,,,,0,0,2,,,0,,,65,39
285000,note_on,,,,,0,0,1,,,0,,,72,41
285000,note_off,,,,,0,0,1,,,0,,,71,64
285000,note_on,,,,,0,0,2,,,0,,,55,39
285000,note_off,,,,,60,0,1,,,0,,,74,64
285000,note_on,,,,,0,0,1,,,0,,,75,41
285060,note_off,,,,,60,0,1,,,0,,,75,64
285060,note_off,,,,,0,0,1,,,0,,,72,64
285060,note_on,,,,,0,0,1,,,0,,,71,38
285060,note_on,,,,,0,0,1,,,0,,,74,38
285080,set_tempo,,,,,120,1,0,1090909,,,,,,
285104,note_off,,,,,44,0,1,,,0,,,74,64
285104,note_off,,,,,0,0,1,,,0,,,71,64
285120,note_off,,,,,0,0,2,,,0,,,65,64
285120,note_off,,,,,0,0,2,,,0,,,62,64
285120,note_off,,,,,120,0,2,,,0,,,55,64
285120,set_tempo,,,,,40,1,0,545455,,,,,,
285120,note_on,,,,,0,0,1,,,0,,,80,45
285120,control_change,,,,,0,0,1,,,0,64,96,,
285120,note_on,,,,,0,0,1,,,0,,,83,45
285120,note_on,,,,,0,0,2,,,0,,,53,48
285120,note_on,,,,,16,0,1,,,0,,,74,45
285220,set_tempo,,,,,100,1,0,500000,,,,,,
285240,note_on,,,,,0,0,2,,,0,,,68,32
285240,note_on,,,,,0,0,2,,,0,,,62,32
285240,note_off,,,,,120,0,2,,,0,,,53,64
285240,note_on,,,,,0,0,2,,,0,,,71,32
285360,note_off,,,,,120,0,2,,,0,,,62,64
285360,note_off,,,,,0,0,2,,,0,,,68,64
285360,note_off,,,,,0,0,2,,,0,,,71,64
285360,note_on,,,,,0,0,2,,,0,,,71,37
285360,note_on,,,,,0,0,2,,,0,,,68,37
285360,note_on,,,,,0,0,2,,,0,,,62,37
285480,note_on,,,,,0,0,2,,,0,,,62,41
285480,note_on,,,,,0,0,2,,,0,,,71,41
285480,note_on,,,,,0,0,2,,,0,,,68,41
285480,note_off,,,,,0,0,2,,,0,,,68,64
285480,note_off,,,,,120,0,2,,,0,,,62,64
285480,note_off,,,,,0,0,2,,,0,,,71,64
285600,note_off,,,,,120,0,2,,,0,,,62,64
285600,note_off,,,,,0,0,2,,,0,,,68,64
285600,note_off,,,,,0,0,2,,,0,,,71,64
285600,note_on,,,,,0,0,2,,,0,,,71,42
285600,note_on,,,,,0,0,2,,,0,,,68,42
285600,note_on,,,,,0,0,2,,,0,,,62,42
285720,note_on,,,,,0,0,2,,,0,,,68,38
285720,note_off,,,,,0,0,2,,,0,,,68,64
285720,note_off,,,,,0,0,2,,,0,,,71,64
285720,note_on,,,,,0,0,2,,,0,,,71,38
285720,note_on,,,,,0,0,2,,,0,,,62,38
285720,note_off,,,,,120,0,2,,,0,,,62,64
285840,note_off,,,,,120,0,2,,,0,,,62,64
285840,note_on,,,,,0,0,2,,,0,,,62,35
285840,note_on,,,,,0,0,2,,,0,,,68,35
285840,note_off,,,,,0,0,2,,,0,,,71,64
285840,note_off,,,,,0,0,2,,,0,,,68,64
285840,note_on,,,,,0,0,2,,,0,,,71,35
285960,note_off,,,,,120,0,2,,,0,,,62,64
285960,note_off,,,,,0,0,2,,,0,,,68,64
285960,note_off,,,,,0,0,2,,,0,,,71,64
285960,note_on,,,,,0,0,2,,,0,,,71,32
285960,note_on,,,,,0,0,2,,,0,,,68,32
285960,note_on,,,,,0,0,2,,,0,,,62,32
286020,control_change,,,,,900,0,1,,,0,64,0,,
286080,control_change,,,,,0,0,1,,,0,64,95,,
286080,note_off,,,,,0,0,1,,,0,,,74,64
286080,note_on,,,,,0,0,1,,,0,,,81,70
286080,note_off,,,,,0,0,2,,,0,,,68,64
286080,note_off,,,,,60,0,1,,,0,,,83,64
286080,note_off,,,,,0,0,1,,,0,,,80,64
286080,note_off,,,,,120,0,2,,,0,,,62,64
286080,note_on,,,,,0,0,1,,,0,,,84,70
286080,note_off,,,,,0,0,2,,,0,,,71,64
286080,note_on,,,,,0,0,1,,,0,,,75,70
286080,note_on,,,,,0,0,2,,,0,,,53,48
286080,set_tempo,,,,,860,1,0,566038,,,,,,
286200,note_on,,,,,0,0,2,,,0,,,63,44
286200,note_off,,,,,120,0,2,,,0,,,53,64
286200,note_on,,,,,0,0,2,,,0,,,72,44
286200,note_on,,,,,0,0,2,,,0,,,69,44
286240,set_tempo,,,,,160,1,0,500000,,,,,,
286320,note_off,,,,,120,0,2,,,0,,,63,64
286320,note_off,,,,,0,0,2,,,0,,,69,64
286320,note_off,,,,,0,0,2,,,0,,,72,64
286320,note_on,,,,,0,0,2,,,0,,,72,52
286320,note_on,,,,,0,0,2,,,0,,,69,52
286320,note_on,,,,,0,0,2,,,0,,,63,52
286440,note_on,,,,,0,0,2,,,0,,,63,57
286440,note_off,,,,,0,0,2,,,0,,,69,64
286440,note_off,,,,,0,0,2,,,0,,,72,64
286440,note_on,,,,,0,0,2,,,0,,,69,57
286440,note_on,,,,,0,0,2,,,0,,,72,57
286440,note_off,,,,,120,0,2,,,0,,,63,64
286560,note_off,,,,,120,0,2,,,0,,,63,64
286560,note_off,,,,,0,0,2,,,0,,,69,64
286560,note_off,,,,,0,0,2,,,0,,,72,64
286560,note_on,,,,,0,0,2,,,0,,,72,62
286560,note_on,,,,,0,0,2,,,0,,,69,62
286560,note_on,,,,,0,0,2,,,0,,,63,62
286680,note_off,,,,,120,0,2,,,0,,,63,64
286680,note_off,,,,,0,0,2,,,0,,,69,64
286680,note_off,,,,,0,0,2,,,0,,,72,64
286680,note_on,,,,,0,0,2,,,0,,,72,75
286680,note_on,,,,,0,0,2,,,0,,,63,75
286680,note_on,,,,,0,0,2,,,0,,,69,75
286800,note_on,,,,,0,0,2,,,0,,,72,84
286800,note_off,,,,,0,0,2,,,0,,,69,64
286800,note_off,,,,,0,0,2,,,0,,,72,64
286800,note_off,,,,,120,0,2,,,0,,,63,64
286800,note_on,,,,,0,0,2,,,0,,,69,84
286800,note_on,,,,,0,0,2,,,0,,,63,84
286920,note_off,,,,,0,0,2,,,0,,,72,64
286920,note_off,,,,,0,0,2,,,0,,,69,64
286920,note_on,,,,,0,0,2,,,0,,,72,90
286920,note_on,,,,,0,0,2,,,0,,,63,90
286920,note_on,,,,,0,0,2,,,0,,,69,90
286920,note_off,,,,,120,0,2,,,0,,,63,64
287020,control_change,,,,,940,0,1,,,0,64,0,,
287040,note_off,,,,,0,0,1,,,0,,,75,64
287040,note_on,,,,,0,0,1,,,0,,,84,98
287040,note_off,,,,,20,0,1,,,0,,,84,64
287040,note_on,,,,,0,0,1,,,0,,,81,98
287040,note_on,,,,,0,0,1,,,0,,,76,98
287040,control_change,,,,,0,0,1,,,0,64,95,,
287040,note_off,,,,,0,0,1,,,0,,,81,64
287040,note_on,,,,,0,0,2,,,0,,,52,100
287040,note_off,,,,,0,0,2,,,0,,,72,64
287040,note_off,,,,,120,0,2,,,0,,,63,64
287040,note_off,,,,,0,0,2,,,0,,,69,64
287160,note_on,,,,,0,0,2,,,0,,,64,63
287160,note_on,,,,,0,0,2,,,0,,,72,63
287160,note_off,,,,,120,0,2,,,0,,,52,64
287160,note_on,,,,,0,0,2,,,0,,,69,63
287280,note_on,,,,,0,0,2,,,0,,,64,70
287280,note_off,,,,,0,0,2,,,0,,,69,64
287280,note_off,,,,,0,0,2,,,0,,,72,64
287280,note_on,,,,,0,0,2,,,0,,,72,70
287280,note_on,,,,,0,0,2,,,0,,,69,70
287280,note_off,,,,,120,0,2,,,0,,,64,64
287400,note_off,,,,,120,0,2,,,0,,,64,64
287400,note_on,,,,,0,0,2,,,0,,,64,78
287400,note_off,,,,,0,0,2,,,0,,,69,64
287400,note_off,,,,,0,0,2,,,0,,,72,64
287400,note_on,,,,,0,0,2,,,0,,,72,78
287400,note_on,,,,,0,0,2,,,0,,,69,78
287510,control_change,,,,,470,0,1,,,0,64,0,,
287520,note_off,,,,,0,0,2,,,0,,,72,64
287520,note_off,,,,,0,0,2,,,0,,,69,64
287520,note_on,,,,,0,0,2,,,0,,,71,81
287520,note_off,,,,,120,0,2,,,0,,,64,64
287520,note_on,,,,,0,0,2,,,0,,,68,81
287520,note_off,,,,,0,0,1,,,0,,,81,64
287520,note_on,,,,,0,0,1,,,0,,,83,76
287520,control_change,,,,,0,0,1,,,0,64,96,,
287520,note_off,,,,,10,0,1,,,0,,,76,64
287520,note_on,,,,,0,0,2,,,0,,,64,81
287520,note_on,,,,,0,0,1,,,0,,,76,76
287520,note_on,,,,,0,0,1,,,0,,,80,76
287520,note_off,,,,,0,0,1,,,0,,,84,64
287640,note_off,,,,,120,0,2,,,0,,,64,64
287640,note_on,,,,,0,0,2,,,0,,,68,63
287640,note_on,,,,,0,0,2,,,0,,,71,63
287640,note_off,,,,,0,0,2,,,0,,,68,64
287640,note_on,,,,,0,0,2,,,0,,,64,63
287640,note_off,,,,,0,0,2,,,0,,,71,64
287740,set_tempo,,,,,1500,1,0,508475,,,,,,
287750,control_change,,,,,230,0,1,,,0,64,0,,
287760,note_off,,,,,10,0,1,,,0,,,83,64
287760,note_off,,,,,0,0,1,,,0,,,76,64
287760,control_change,,,,,0,0,1,,,0,64,96,,
287760,note_on,,,,,0,0,1,,,0,,,81,59
287760,note_on,,,,,0,0,1,,,0,,,77,59
287760,note_on,,,,,0,0,1,,,0,,,76,59
287760,note_off,,,,,0,0,2,,,0,,,68,64
287760,note_off,,,,,0,0,2,,,0,,,71,64
287760,note_on,,,,,0,0,2,,,0,,,69,54
287760,note_on,,,,,0,0,2,,,0,,,65,54
287760,note_on,,,,,0,0,2,,,0,,,64,54
287760,note_off,,,,,120,0,2,,,0,,,64,64
287760,note_off,,,,,0,0,1,,,0,,,80,64
287880,note_off,,,,,120,0,2,,,0,,,64,64
287880,note_off,,,,,0,0,2,,,0,,,69,64
287880,note_on,,,,,0,0,2,,,0,,,69,44
287880,note_on,,,,,0,0,2,,,0,,,65,44
287880,note_on,,,,,0,0,2,,,0,,,64,44
287880,note_off,,,,,0,0,2,,,0,,,65,64
287990,control_change,,,,,230,0,1,,,0,64,0,,
288000,note_on,,,,,0,0,2,,,0,,,64,48
288000,note_on,,,,,0,0,2,,,0,,,68,48
288000,note_off,,,,,0,0,2,,,0,,,69,64
288000,note_off,,,,,0,0,2,,,0,,,65,64
288000,note_off,,,,,120,0,2,,,0,,,64,64
288000,set_tempo,,,,,260,1,0,517241,,,,,,
288000,note_off,,,,,10,0,1,,,0,,,81,64
288000,note_on,,,,,0,0,1,,,0,,,80,48
288000,note_on,,,,,0,0,1,,,0,,,76,48
288000,note_off,,,,,0,0,1,,,0,,,76,64
288000,note_off,,,,,0,0,1,,,0,,,77,64
288120,note_off,,,,,120,0,2,,,0,,,64,64
288120,note_off,,,,,0,0,2,,,0,,,68,64
288120,note_on,,,,,0,0,2,,,0,,,68,35
288120,note_on,,,,,0,0,2,,,0,,,64,35
288180,note_off,,,,,180,0,1,,,0,,,80,64
288180,note_off,,,,,0,0,1,,,0,,,76,64
288240,note_off,,,,,120,0,2,,,0,,,64,64
288240,note_off,,,,,0,0,2,,,0,,,68,64
288240,note_on,,,,,0,0,2,,,0,,,72,38
288240,note_on,,,,,0,0,2,,,0,,,69,38
288240,note_on,,,,,0,0,1,,,0,,,77,57
288240,note_on,,,,,60,0,1,,,0,,,74,57
288240,note_on,,,,,0,0,2,,,0,,,64,38
288300,set_tempo,,,,,300,1,0,526316,,,,,,
288360,note_off,,,,,120,0,2,,,0,,,64,64
288360,note_off,,,,,0,0,2,,,0,,,69,64
288360,note_off,,,,,0,0,2,,,0,,,72,64
288360,note_on,,,,,0,0,2,,,0,,,72,40
288360,note_on,,,,,0,0,2,,,0,,,69,40
288360,note_on,,,,,0,0,2,,,0,,,64,40
288420,note_off,,,,,0,0,1,,,0,,,74,64
288420,note_off,,,,,180,0,1,,,0,,,77,64
288480,note_off,,,,,0,0,2,,,0,,,69,64
288480,note_off,,,,,0,0,2,,,0,,,72,64
288480,note_on,,,,,0,0,2,,,0,,,71,42
288480,note_on,,,,,0,0,2,,,0,,,64,42
288480,note_on,,,,,0,0,2,,,0,,,68,42
288480,note_off,,,,,120,0,2,,,0,,,64,64
288480,note_on,,,,,0,0,1,,,0,,,76,45
288480,note_on,,,,,60,0,1,,,0,,,74,45
288500,set_tempo,,,,,200,1,0,530973,,,,,,
288600,note_off,,,,,120,0,2,,,0,,,64,64
288600,note_off,,,,,0,0,2,,,0,,,68,64
288600,note_off,,,,,0,0,2,,,0,,,71,64
288600,note_on,,,,,0,0,2,,,0,,,71,39
288600,note_on,,,,,0,0,2,,,0,,,68,39
288600,note_on,,,,,0,0,2,,,0,,,64,39
288660,note_off,,,,,0,0,1,,,0,,,74,64
288660,note_off,,,,,180,0,1,,,0,,,76,64
288720,note_off,,,,,120,0,2,,,0,,,64,64
288720,note_off,,,,,0,0,2,,,0,,,68,64
288720,note_off,,,,,0,0,2,,,0,,,71,64
288720,note_on,,,,,0,0,2,,,0,,,72,34
288720,note_on,,,,,0,0,2,,,0,,,69,34
288720,note_on,,,,,0,0,2,,,0,,,64,34
288720,note_on,,,,,60,0,1,,,0,,,74,56
288720,note_on,,,,,0,0,1,,,0,,,77,56
288740,set_tempo,,,,,240,1,0,545455,,,,,,
288840,note_off,,,,,120,0,2,,,0,,,64,64
288840,note_off,,,,,0,0,2,,,0,,,69,64
288840,note_on,,,,,0,0,2,,,0,,,72,30
288840,note_on,,,,,0,0,2,,,0,,,69,30
288840,note_on,,,,,0,0,2,,,0,,,64,30
288840,note_off,,,,,0,0,2,,,0,,,72,64
288900,note_off,,,,,0,0,1,,,0,,,74,64
288900,note_off,,,,,180,0,1,,,0,,,77,64
288960,note_on,,,,,60,0,1,,,0,,,74,39
288960,note_on,,,,,0,0,1,,,0,,,76,39
288960,note_on,,,,,0,0,2,,,0,,,64,37
288960,note_on,,,,,0,0,2,,,0,,,68,37
288960,note_on,,,,,0,0,2,,,0,,,71,37
288960,note_off,,,,,0,0,2,,,0,,,72,64
288960,note_off,,,,,0,0,2,,,0,,,69,64
288960,note_off,,,,,120,0,2,,,0,,,64,64
289000,set_tempo,,,,,260,1,0,555556,,,,,,
289080,note_on,,,,,0,0,2,,,0,,,64,27
289080,note_on,,,,,0,0,2,,,0,,,68,27
289080,note_off,,,,,0,0,2,,,0,,,71,64
289080,note_off,,,,,0,0,2,,,0,,,68,64
289080,note_off,,,,,120,0,2,,,0,,,64,64
289080,note_on,,,,,0,0,2,,,0,,,71,27
289140,note_off,,,,,0,0,1,,,0,,,74,64
289140,note_off,,,,,180,0,1,,,0,,,76,64
289160,note_on,,,,,20,0,1,,,0,,,79,43
289190,note_off,,,,,30,0,1,,,0,,,79,64
289200,note_on,,,,,10,0,1,,,0,,,74,53
289200,note_on,,,,,0,0,1,,,0,,,77,53
289200,note_off,,,,,120,0,2,,,0,,,64,64
289200,note_off,,,,,0,0,2,,,0,,,68,64
289200,note_on,,,,,0,0,2,,,0,,,72,27
289200,note_off,,,,,0,0,2,,,0,,,71,64
289200,note_on,,,,,0,0,2,,,0,,,64,27
289200,note_on,,,,,0,0,2,,,0,,,69,27
289220,set_tempo,,,,,220,1,0,560748,,,,,,
289320,note_off,,,,,0,0,2,,,0,,,69,64
289320,note_off,,,,,0,0,2,,,0,,,72,64
289320,note_on,,,,,0,0,2,,,0,,,72,31
289320,note_on,,,,,0,0,2,,,0,,,69,31
289320,note_on,,,,,0,0,2,,,0,,,64,31
289320,note_off,,,,,120,0,2,,,0,,,64,64
289380,note_off,,,,,0,0,1,,,0,,,74,64
289380,note_off,,,,,180,0,1,,,0,,,77,64
289440,note_on,,,,,60,0,1,,,0,,,74,36
289440,note_on,,,,,0,0,1,,,0,,,76,36
289440,note_on,,,,,0,0,2,,,0,,,64,29
289440,note_on,,,,,0,0,2,,,0,,,69,29
289440,note_on,,,,,0,0,2,,,0,,,71,29
289440,note_off,,,,,120,0,2,,,0,,,64,64
289440,note_off,,,,,0,0,2,,,0,,,69,64
289440,note_off,,,,,0,0,2,,,0,,,72,64
289480,set_tempo,,,,,260,1,0,571429,,,,,,
289560,note_on,,,,,0,0,2,,,0,,,71,26
289560,note_off,,,,,0,0,2,,,0,,,71,64
289560,note_off,,,,,0,0,2,,,0,,,69,64
289560,note_off,,,,,120,0,2,,,0,,,64,64
289560,note_on,,,,,0,0,2,,,0,,,64,26
289560,note_on,,,,,0,0,2,,,0,,,69,26
289620,note_off,,,,,0,0,1,,,0,,,74,64
289620,note_off,,,,,180,0,1,,,0,,,76,64
289680,note_on,,,,,0,0,2,,,0,,,71,24
289680,note_off,,,,,0,0,2,,,0,,,71,64
289680,note_off,,,,,0,0,2,,,0,,,69,64
289680,note_on,,,,,0,0,2,,,0,,,68,24
289680,note_on,,,,,0,0,2,,,0,,,64,24
289680,note_on,,,,,0,0,1,,,0,,,76,29
289680,note_on,,,,,60,0,1,,,0,,,74,29
289680,note_off,,,,,120,0,2,,,0,,,64,64
289740,set_tempo,,,,,260,1,0,582524,,,,,,
289800,note_on,,,,,0,0,2,,,0,,,64,22
289800,note_on,,,,,0,0,2,,,0,,,68,22
289800,note_on,,,,,0,0,2,,,0,,,71,22
289800,note_off,,,,,0,0,2,,,0,,,71,64
289800,note_off,,,,,0,0,2,,,0,,,68,64
289800,note_off,,,,,120,0,2,,,0,,,64,64
289820,set_tempo,,,,,80,1,0,606061,,,,,,
289860,note_off,,,,,180,0,1,,,0,,,76,64
289860,note_off,,,,,0,0,1,,,0,,,74,64
289880,set_tempo,,,,,60,1,0,1000000,,,,,,
289920,note_on,,,,,60,0,1,,,0,,,72,37
289920,note_on,,,,,0,0,1,,,0,,,76,37
289920,set_tempo,,,,,40,1,0,530973,,,,,,
289920,note_on,,,,,0,0,2,,,0,,,45,36
289920,note_off,,,,,120,0,2,,,0,,,64,64
289920,note_off,,,,,0,0,2,,,0,,,71,64
289920,note_off,,,,,0,0,2,,,0,,,68,64
290038,note_off,,,,,118,0,2,,,0,,,45,64
290040,note_on,,,,,2,0,2,,,0,,,64,30
290040,note_on,,,,,0,0,2,,,0,,,60,30
290040,note_on,,,,,0,0,2,,,0,,,57,30
290040,set_tempo,,,,,120,1,0,526316,,,,,,
290140,control_change,,,,,100,0,2,,,0,64,0,,
290158,note_off,,,,,18,0,2,,,0,,,57,64
290158,note_off,,,,,0,0,2,,,0,,,60,64
290158,note_off,,,,,0,0,2,,,0,,,64,64
290160,note_off,,,,,240,0,1,,,0,,,76,64
290160,note_off,,,,,0,0,1,,,0,,,72,64
290160,note_on,,,,,0,0,1,,,0,,,74,43
290160,note_on,,,,,0,0,2,,,0,,,60,28
290160,note_on,,,,,0,0,2,,,0,,,57,28
290160,note_on,,,,,2,0,2,,,0,,,64,28
290220,note_off,,,,,60,0,1,,,0,,,74,64
290220,note_on,,,,,0,0,1,,,0,,,72,45
290240,set_tempo,,,,,200,1,0,521739,,,,,,
290278,note_off,,,,,0,0,2,,,0,,,60,64
290278,note_off,,,,,118,0,2,,,0,,,57,64
290278,note_off,,,,,0,0,2,,,0,,,64,64
290280,note_off,,,,,60,0,1,,,0,,,72,64
290280,note_on,,,,,0,0,2,,,0,,,57,25
290280,note_on,,,,,2,0,2,,,0,,,64,25
290280,note_on,,,,,0,0,1,,,0,,,71,46
290280,note_on,,,,,0,0,2,,,0,,,60,25
290340,note_off,,,,,60,0,1,,,0,,,71,64
290340,note_on,,,,,0,0,1,,,0,,,69,48
290378,control_change,,,,,38,0,1,,,0,64,0,,
290398,control_change,,,,,20,0,1,,,0,64,95,,
290398,note_off,,,,,0,0,2,,,0,,,64,64
290398,note_off,,,,,0,0,2,,,0,,,60,64
290398,note_off,,,,,118,0,2,,,0,,,57,64
290400,note_off,,,,,2,0,1,,,0,,,69,64
290400,note_on,,,,,0,0,1,,,0,,,71,50
290400,note_on,,,,,2,0,2,,,0,,,45,44
290400,note_on,,,,,0,0,1,,,0,,,77,50
290440,set_tempo,,,,,200,1,0,517241,,,,,,
290518,note_off,,,,,118,0,2,,,0,,,45,64
290520,note_on,,,,,2,0,2,,,0,,,65,33
290520,note_on,,,,,0,0,2,,,0,,,62,33
290520,note_on,,,,,0,0,2,,,0,,,56,33
290638,note_off,,,,,0,0,2,,,0,,,65,64
290638,note_off,,,,,118,0,2,,,0,,,56,64
290638,note_off,,,,,0,0,2,,,0,,,62,64
290640,note_on,,,,,0,0,2,,,0,,,62,30
290640,note_on,,,,,0,0,2,,,0,,,56,30
290640,note_on,,,,,2,0,2,,,0,,,65,30
290680,set_tempo,,,,,240,1,0,512821,,,,,,
290758,note_off,,,,,118,0,2,,,0,,,56,64
290758,note_off,,,,,0,0,2,,,0,,,62,64
290758,note_off,,,,,0,0,2,,,0,,,65,64
290760,note_on,,,,,0,0,2,,,0,,,56,27
290760,note_on,,,,,2,0,2,,,0,,,65,27
290760,note_on,,,,,0,0,2,,,0,,,62,27
290820,note_off,,,,,0,0,1,,,0,,,77,64
290820,note_off,,,,,420,0,1,,,0,,,71,64
290858,control_change,,,,,38,0,1,,,0,64,0,,
290878,note_off,,,,,118,0,2,,,0,,,56,64
290878,note_off,,,,,0,0,2,,,0,,,62,64
290878,note_off,,,,,0,0,2,,,0,,,65,64
290880,note_on,,,,,22,0,1,,,0,,,72,53
290880,note_on,,,,,0,0,1,,,0,,,76,53
290880,control_change,,,,,0,0,1,,,0,64,95,,
290880,note_on,,,,,2,0,2,,,0,,,45,49
290998,note_off,,,,,118,0,2,,,0,,,45,64
291000,note_on,,,,,0,0,2,,,0,,,60,33
291000,note_on,,,,,2,0,2,,,0,,,64,33
291000,note_on,,,,,0,0,2,,,0,,,57,33
291000,set_tempo,,,,,320,1,0,495868,,,,,,
291100,control_change,,,,,100,0,2,,,0,64,0,,
291118,note_off,,,,,18,0,2,,,0,,,57,64
291118,note_off,,,,,0,0,2,,,0,,,60,64
291118,note_off,,,,,0,0,2,,,0,,,64,64
291120,note_on,,,,,0,0,1,,,0,,,74,58
291120,note_off,,,,,240,0,1,,,0,,,76,64
291120,note_off,,,,,0,0,1,,,0,,,72,64
291120,note_on,,,,,2,0,2,,,0,,,64,28
291120,note_on,,,,,0,0,2,,,0,,,60,28
291120,note_on,,,,,0,0,2,,,0,,,57,28
291180,note_off,,,,,60,0,1,,,0,,,74,64
291180,note_on,,,,,0,0,1,,,0,,,72,62
291238,note_off,,,,,118,0,2,,,0,,,57,64
291238,note_off,,,,,0,0,2,,,0,,,60,64
291238,note_off,,,,,0,0,2,,,0,,,64,64
291240,note_on,,,,,0,0,2,,,0,,,57,37
291240,note_off,,,,,60,0,1,,,0,,,72,64
291240,note_on,,,,,0,0,1,,,0,,,71,67
291240,note_on,,,,,0,0,2,,,0,,,60,37
291240,note_on,,,,,2,0,2,,,0,,,64,37
291300,note_off,,,,,60,0,1,,,0,,,71,64
291300,note_on,,,,,0,0,1,,,0,,,69,70
291338,control_change,,,,,38,0,1,,,0,64,0,,
291358,control_change,,,,,20,0,1,,,0,64,95,,
291358,note_off,,,,,0,0,2,,,0,,,60,64
291358,note_off,,,,,0,0,2,,,0,,,64,64
291358,note_off,,,,,118,0,2,,,0,,,57,64
291360,note_off,,,,,2,0,1,,,0,,,69,64
291360,set_tempo,,,,,360,1,0,491803,,,,,,
291360,note_on,,,,,2,0,2,,,0,,,45,49
291360,note_on,,,,,0,0,1,,,0,,,80,73
291360,note_on,,,,,0,0,1,,,0,,,71,73
291478,note_off,,,,,118,0,2,,,0,,,45,64
291480,note_on,,,,,2,0,2,,,0,,,65,54
291480,note_on,,,,,0,0,2,,,0,,,57,54
291480,note_on,,,,,0,0,2,,,0,,,62,54
291540,set_tempo,,,,,180,1,0,487805,,,,,,
291598,note_off,,,,,118,0,2,,,0,,,57,64
291598,note_off,,,,,0,0,2,,,0,,,62,64
291598,note_off,,,,,0,0,2,,,0,,,65,64
291600,note_on,,,,,0,0,2,,,0,,,62,62
291600,note_on,,,,,0,0,2,,,0,,,57,62
291600,note_on,,,,,2,0,2,,,0,,,65,62
291718,note_off,,,,,0,0,2,,,0,,,62,64
291718,note_off,,,,,0,0,2,,,0,,,65,64
291718,note_off,,,,,118,0,2,,,0,,,57,64
291720,note_on,,,,,2,0,2,,,0,,,65,69
291720,note_on,,,,,0,0,2,,,0,,,62,69
291720,note_on,,,,,0,0,2,,,0,,,57,69
291720,set_tempo,,,,,180,1,0,495868,,,,,,
291780,note_off,,,,,0,0,1,,,0,,,80,64
291780,note_off,,,,,420,0,1,,,0,,,71,64
291818,control_change,,,,,38,0,1,,,0,64,0,,
291838,note_off,,,,,0,0,2,,,0,,,65,64
291838,note_off,,,,,0,0,2,,,0,,,62,64
291838,note_off,,,,,118,0,2,,,0,,,57,64
291840,note_on,,,,,22,0,1,,,0,,,72,73
291840,note_on,,,,,0,0,2,,,0,,,60,76
291840,note_on,,,,,0,0,2,,,0,,,57,76
291840,control_change,,,,,0,0,1,,,0,64,95,,
291840,note_on,,,,,0,0,1,,,0,,,81,73
291840,note_on,,,,,2,0,2,,,0,,,64,76
291960,note_off,,,,,120,0,2,,,0,,,57,64
291960,note_off,,,,,0,0,2,,,0,,,60,64
291960,note_off,,,,,0,0,2,,,0,,,64,64
291960,note_on,,,,,0,0,2,,,0,,,64,67
291960,note_on,,,,,0,0,2,,,0,,,60,67
291960,note_on,,,,,0,0,2,,,0,,,57,67
292080,note_off,,,,,120,0,2,,,0,,,57,64
292080,note_off,,,,,0,0,2,,,0,,,60,64
292080,note_off,,,,,0,0,2,,,0,,,64,64
292080,note_off,,,,,240,0,1,,,0,,,81,64
292080,note_on,,,,,0,0,2,,,0,,,55,75
292080,note_on,,,,,0,0,1,,,0,,,81,81
292080,note_on,,,,,0,0,1,,,0,,,73,81
292080,note_off,,,,,0,0,1,,,0,,,72,64
292080,note_on,,,,,0,0,2,,,0,,,57,75
292080,note_on,,,,,0,0,2,,,0,,,64,75
292100,set_tempo,,,,,380,1,0,512821,,,,,,
292140,note_on,,,,,0,0,1,,,0,,,74,84
292140,note_off,,,,,60,0,1,,,0,,,73,64
292200,note_off,,,,,120,0,2,,,0,,,55,64
292200,note_off,,,,,0,0,2,,,0,,,57,64
292200,note_on,,,,,0,0,2,,,0,,,64,82
292200,note_on,,,,,0,0,2,,,0,,,55,82
292200,note_on,,,,,0,0,2,,,0,,,57,82
292200,note_off,,,,,0,0,2,,,0,,,64,64
292200,note_off,,,,,60,0,1,,,0,,,74,64
292200,note_on,,,,,0,0,1,,,0,,,76,87
292260,note_off,,,,,60,0,1,,,0,,,76,64
292260,note_on,,,,,0,0,1,,,0,,,73,90
292310,control_change,,,,,50,0,1,,,0,64,0,,
292320,note_on,,,,,0,0,2,,,0,,,53,89
292320,note_on,,,,,0,0,1,,,0,,,74,92
292320,note_off,,,,,0,0,1,,,0,,,81,64
292320,note_off,,,,,10,0,1,,,0,,,73,64
292320,control_change,,,,,0,0,1,,,0,64,95,,
292320,note_on,,,,,0,0,2,,,0,,,57,89
292320,note_on,,,,,0,0,2,,,0,,,62,89
292320,note_off,,,,,0,0,2,,,0,,,64,64
292320,note_off,,,,,0,0,2,,,0,,,57,64
292320,note_off,,,,,120,0,2,,,0,,,55,64
292320,note_on,,,,,0,0,1,,,0,,,81,92
292400,set_tempo,,,,,300,1,0,535714,,,,,,
292440,note_on,,,,,0,0,2,,,0,,,62,84
292440,note_on,,,,,0,0,2,,,0,,,53,84
292440,note_on,,,,,0,0,2,,,0,,,57,84
292440,note_off,,,,,0,0,2,,,0,,,62,64
292440,note_off,,,,,0,0,2,,,0,,,57,64
292440,note_off,,,,,120,0,2,,,0,,,53,64
292560,note_off,,,,,0,0,1,,,0,,,74,64
292560,note_off,,,,,240,0,1,,,0,,,81,64
292560,note_on,,,,,0,0,1,,,0,,,76,90
292560,note_on,,,,,0,0,1,,,0,,,81,90
292560,note_off,,,,,120,0,2,,,0,,,53,64
292560,note_off,,,,,0,0,2,,,0,,,57,64
292560,note_off,,,,,0,0,2,,,0,,,62,64
292560,note_on,,,,,0,0,2,,,0,,,61,91
292560,note_on,,,,,0,0,2,,,0,,,57,91
292560,note_on,,,,,0,0,2,,,0,,,52,91
292600,set_tempo,,,,,200,1,0,550459,,,,,,
292620,note_on,,,,,0,0,1,,,0,,,77,95
292620,note_off,,,,,60,0,1,,,0,,,76,64
292680,note_off,,,,,120,0,2,,,0,,,52,64
292680,note_on,,,,,0,0,2,,,0,,,57,98
292680,note_off,,,,,60,0,1,,,0,,,77,64
292680,note_on,,,,,0,0,2,,,0,,,52,98
292680,note_off,,,,,0,0,2,,,0,,,57,64
292680,note_off,,,,,0,0,2,,,0,,,61,64
292680,note_on,,,,,0,0,2,,,0,,,61,98
292680,note_on,,,,,0,0,1,,,0,,,79,97
292740,note_off,,,,,60,0,1,,,0,,,79,64
292740,note_on,,,,,0,0,1,,,0,,,76,101
292740,set_tempo,,,,,140,1,0,594059,,,,,,
292760,set_tempo,,,,,20,1,0,952381,,,,,,
292790,control_change,,,,,50,0,1,,,0,64,0,,
292800,note_on,,,,,0,0,1,,,0,,,82,106
292800,note_on,,,,,0,0,2,,,0,,,38,115
292800,note_off,,,,,0,0,2,,,0,,,61,64
292800,note_off,,,,,0,0,2,,,0,,,57,64
292800,note_off,,,,,120,0,2,,,0,,,52,64
292800,control_change,,,,,0,0,1,,,0,64,96,,
292800,note_off,,,,,10,0,1,,,0,,,76,64
292800,note_off,,,,,0,0,1,,,0,,,81,64
292800,note_on,,,,,0,0,1,,,0,,,79,106
292800,set_tempo,,,,,40,1,0,659341,,,,,,
292820,set_tempo,,,,,20,1,0,600000,,,,,,
292920,note_off,,,,,120,0,2,,,0,,,38,64
292920,note_on,,,,,0,0,2,,,0,,,62,88
292920,note_on,,,,,0,0,2,,,0,,,57,88
292920,note_on,,,,,0,0,2,,,0,,,50,88
293040,note_off,,,,,120,0,2,,,0,,,50,64
293040,note_off,,,,,0,0,2,,,0,,,57,64
293040,note_off,,,,,0,0,2,,,0,,,62,64
293040,note_on,,,,,0,0,2,,,0,,,57,74
293040,note_on,,,,,0,0,2,,,0,,,50,74
293040,note_on,,,,,0,0,2,,,0,,,62,74
293060,set_tempo,,,,,240,1,0,540541,,,,,,
293160,note_on,,,,,0,0,1,,,0,,,81,81
293160,note_off,,,,,0,0,1,,,0,,,79,64
293160,note_off,,,,,360,0,1,,,0,,,82,64
293160,note_off,,,,,120,0,2,,,0,,,50,64
293160,note_off,,,,,0,0,2,,,0,,,57,64
293160,note_off,,,,,0,0,2,,,0,,,62,64
293160,note_on,,,,,0,0,2,,,0,,,62,68
293160,note_on,,,,,0,0,2,,,0,,,57,68
293160,note_on,,,,,0,0,2,,,0,,,50,68
293160,note_on,,,,,0,0,1,,,0,,,77,81
293180,set_tempo,,,,,120,1,0,521739,,,,,,
293270,control_change,,,,,110,0,1,,,0,64,0,,
293280,note_on,,,,,0,0,2,,,0,,,38,93
293280,note_off,,,,,0,0,2,,,0,,,62,64
293280,note_off,,,,,0,0,2,,,0,,,57,64
293280,note_off,,,,,120,0,2,,,0,,,50,64
293280,control_change,,,,,0,0,1,,,0,64,95,,
293280,note_on,,,,,0,0,1,,,0,,,79,92
293280,note_on,,,,,0,0,1,,,0,,,76,92
293280,note_off,,,,,0,0,1,,,0,,,77,64
293280,note_off,,,,,10,0,1,,,0,,,81,64
293360,set_tempo,,,,,180,1,0,504202,,,,,,
293400,note_off,,,,,0,0,1,,,0,,,76,64
293400,note_off,,,,,120,0,1,,,0,,,79,64
293400,note_on,,,,,0,0,2,,,0,,,57,72
293400,note_off,,,,,120,0,2,,,0,,,38,64
293400,note_on,,,,,0,0,1,,,0,,,77,84
293400,note_on,,,,,0,0,2,,,0,,,50,72
293400,note_on,,,,,0,0,1,,,0,,,74,84
293520,note_off,,,,,0,0,1,,,0,,,74,64
293520,note_on,,,,,0,0,1,,,0,,,76,75
293520,note_on,,,,,0,0,2,,,0,,,50,61
293520,note_on,,,,,0,0,2,,,0,,,57,61
293520,note_off,,,,,0,0,2,,,0,,,57,64
293520,note_off,,,,,120,0,2,,,0,,,50,64
293520,note_off,,,,,120,0,1,,,0,,,77,64
293520,note_on,,,,,0,0,1,,,0,,,72,75
293600,set_tempo,,,,,240,1,0,491803,,,,,,
293640,note_off,,,,,120,0,1,,,0,,,76,64
293640,note_off,,,,,0,0,1,,,0,,,72,64
293640,note_off,,,,,0,0,2,,,0,,,57,64
293640,note_on,,,,,0,0,1,,,0,,,74,62
293640,note_on,,,,,0,0,2,,,0,,,59,57
293640,note_off,,,,,120,0,2,,,0,,,50,64
293640,note_on,,,,,0,0,1,,,0,,,71,62
293640,note_on,,,,,0,0,2,,,0,,,50,57
293744,note_off,,,,,104,0,1,,,0,,,74,64
293744,note_off,,,,,0,0,1,,,0,,,71,64
293750,control_change,,,,,6,0,1,,,0,64,0,,
293760,note_off,,,,,120,0,2,,,0,,,50,64
293760,note_on,,,,,0,0,1,,,0,,,74,72
293760,note_off,,,,,0,0,2,,,0,,,59,64
293760,note_on,,,,,0,0,2,,,0,,,40,90
293760,note_on,,,,,10,0,1,,,0,,,71,72
293860,set_tempo,,,,,260,1,0,483871,,,,,,
293880,note_on,,,,,0,0,2,,,0,,,52,64
293880,note_on,,,,,0,0,2,,,0,,,57,64
293880,note_off,,,,,120,0,2,,,0,,,40,64
293880,note_on,,,,,0,0,2,,,0,,,60,64
293940,note_off,,,,,180,0,1,,,0,,,74,64
293940,note_off,,,,,0,0,1,,,0,,,71,64
293940,note_on,,,,,0,0,1,,,0,,,69,65
293940,note_on,,,,,0,0,1,,,0,,,72,65
294000,note_off,,,,,0,0,2,,,0,,,60,64
294000,note_off,,,,,0,0,2,,,0,,,57,64
294000,note_off,,,,,60,0,1,,,0,,,72,64
294000,note_off,,,,,0,0,1,,,0,,,69,64
294000,note_on,,,,,0,0,1,,,0,,,71,63
294000,note_on,,,,,0,0,1,,,0,,,74,63
294000,note_off,,,,,120,0,2,,,0,,,52,64
294000,set_tempo,,,,,140,1,0,472441,,,,,,
294000,note_on,,,,,0,0,2,,,0,,,52,59
294000,note_on,,,,,0,0,2,,,0,,,57,59
294000,note_on,,,,,0,0,2,,,0,,,60,59
294060,note_on,,,,,0,0,1,,,0,,,69,58
294060,note_off,,,,,0,0,1,,,0,,,71,64
294060,note_off,,,,,60,0,1,,,0,,,74,64
294060,note_on,,,,,0,0,1,,,0,,,72,58
294120,note_on,,,,,0,0,2,,,0,,,57,53
294120,note_on,,,,,0,0,2,,,0,,,60,53
294120,note_off,,,,,0,0,2,,,0,,,60,64
294120,note_off,,,,,120,0,2,,,0,,,52,64
294120,note_on,,,,,0,0,2,,,0,,,52,53
294120,note_off,,,,,0,0,2,,,0,,,57,64
294120,note_on,,,,,0,0,1,,,0,,,71,53
294120,note_on,,,,,0,0,1,,,0,,,74,53
294120,note_off,,,,,0,0,1,,,0,,,69,64
294120,note_off,,,,,60,0,1,,,0,,,72,64
294180,note_off,,,,,60,0,1,,,0,,,74,64
294180,note_off,,,,,0,0,1,,,0,,,71,64
294180,note_on,,,,,0,0,1,,,0,,,69,51
294180,note_on,,,,,0,0,1,,,0,,,72,51
294220,set_tempo,,,,,220,1,0,600000,,,,,,
294228,note_off,,,,,48,0,1,,,0,,,72,64
294228,note_off,,,,,0,0,1,,,0,,,69,64
294240,set_tempo,,,,,20,1,0,472441,,,,,,
294240,note_on,,,,,12,0,1,,,0,,,69,63
294240,note_on,,,,,0,0,1,,,0,,,72,63
294240,note_on,,,,,0,0,2,,,0,,,40,70
294240,note_off,,,,,0,0,2,,,0,,,60,64
294240,note_off,,,,,0,0,2,,,0,,,57,64
294240,note_off,,,,,120,0,2,,,0,,,52,64
294320,set_tempo,,,,,80,1,0,476190,,,,,,
294360,note_on,,,,,0,0,2,,,0,,,52,51
294360,note_off,,,,,120,0,2,,,0,,,40,64
294360,note_on,,,,,0,0,2,,,0,,,62,51
294360,note_on,,,,,0,0,2,,,0,,,59,51
294420,note_off,,,,,180,0,1,,,0,,,72,64
294420,note_off,,,,,0,0,1,,,0,,,69,64
294420,note_on,,,,,0,0,1,,,0,,,68,56
294420,note_on,,,,,0,0,1,,,0,,,71,56
294480,note_off,,,,,120,0,2,,,0,,,52,64
294480,note_off,,,,,60,0,1,,,0,,,71,64
294480,note_on,,,,,0,0,1,,,0,,,69,50
294480,note_on,,,,,0,0,1,,,0,,,72,50
294480,note_on,,,,,0,0,2,,,0,,,52,45
294480,note_on,,,,,0,0,2,,,0,,,59,45
294480,note_on,,,,,0,0,2,,,0,,,62,45
294480,note_off,,,,,0,0,2,,,0,,,62,64
294480,note_off,,,,,0,0,1,,,0,,,68,64
294480,note_off,,,,,0,0,2,,,0,,,59,64
294540,note_on,,,,,0,0,1,,,0,,,68,46
294540,note_off,,,,,0,0,1,,,0,,,69,64
294540,note_on,,,,,0,0,1,,,0,,,71,46
294540,note_off,,,,,60,0,1,,,0,,,72,64
294580,set_tempo,,,,,260,1,0,483871,,,,,,
294600,note_on,,,,,0,0,1,,,0,,,69,41
294600,note_on,,,,,0,0,1,,,0,,,72,41
294600,note_on,,,,,0,0,2,,,0,,,52,39
294600,note_on,,,,,0,0,2,,,0,,,59,39
294600,note_on,,,,,0,0,2,,,0,,,62,39
294600,note_off,,,,,0,0,2,,,0,,,62,64
294600,note_off,,,,,0,0,2,,,0,,,59,64
294600,note_off,,,,,120,0,2,,,0,,,52,64
294600,note_off,,,,,60,0,1,,,0,,,71,64
294600,note_off,,,,,0,0,1,,,0,,,68,64
294660,note_on,,,,,0,0,1,,,0,,,71,38
294660,note_off,,,,,60,0,1,,,0,,,72,64
294660,note_off,,,,,0,0,1,,,0,,,69,64
294660,note_on,,,,,0,0,1,,,0,,,68,38
294680,set_tempo,,,,,100,1,0,1090909,,,,,,
294704,note_off,,,,,0,0,1,,,0,,,68,64
294704,note_off,,,,,44,0,1,,,0,,,71,64
294720,set_tempo,,,,,40,1,0,659341,,,,,,
294720,note_off,,,,,120,0,2,,,0,,,52,64
294720,note_off,,,,,0,0,2,,,0,,,59,64
294720,control_change,,,,,0,0,1,,,0,64,96,,
294720,note_on,,,,,0,0,1,,,0,,,84,106
294720,note_on,,,,,16,0,1,,,0,,,81,88
294720,note_off,,,,,0,0,2,,,0,,,62,64
294720,note_on,,,,,0,0,2,,,0,,,45,105
294740,set_tempo,,,,,20,1,0,600000,,,,,,
294840,note_on,,,,,120,0,2,,,0,,,52,88
294840,note_on,,,,,0,0,1,,,0,,,76,97
294840,note_off,,,,,120,0,1,,,0,,,81,64
294960,note_off,,,,,120,0,1,,,0,,,76,64
294960,note_off,,,,,0,0,1,,,0,,,84,64
294960,note_on,,,,,0,0,1,,,0,,,74,88
294960,note_on,,,,,0,0,1,,,0,,,83,81
294960,note_on,,,,,0,0,2,,,0,,,56,74
294960,note_off,,,,,120,0,2,,,0,,,52,64
294980,set_tempo,,,,,240,1,0,540541,,,,,,
295080,note_off,,,,,120,0,1,,,0,,,83,64
295080,note_off,,,,,0,0,1,,,0,,,74,64
295080,note_on,,,,,0,0,1,,,0,,,72,81
295080,note_on,,,,,0,0,1,,,0,,,81,81
295080,note_on,,,,,0,0,2,,,0,,,57,68
295080,note_off,,,,,120,0,2,,,0,,,56,64
295100,set_tempo,,,,,120,1,0,521739,,,,,,
295140,note_off,,,,,60,0,2,,,0,,,45,64
295190,control_change,,,,,110,0,1,,,0,64,0,,
295200,control_change,,,,,0,0,1,,,0,64,95,,
295200,note_off,,,,,60,0,2,,,0,,,57,64
295200,note_off,,,,,0,0,1,,,0,,,72,64
295200,note_off,,,,,10,0,1,,,0,,,81,64
295200,note_on,,,,,0,0,1,,,0,,,73,92
295200,note_on,,,,,0,0,1,,,0,,,79,92
295200,note_on,,,,,0,0,2,,,0,,,58,72
295200,note_on,,,,,0,0,2,,,0,,,50,83
295280,set_tempo,,,,,180,1,0,504202,,,,,,
295320,note_on,,,,,0,0,1,,,0,,,74,84
295320,note_on,,,,,0,0,2,,,0,,,57,61
295320,note_off,,,,,0,0,1,,,0,,,73,64
295320,note_on,,,,,0,0,1,,,0,,,77,84
295320,note_off,,,,,120,0,1,,,0,,,79,64
295320,note_off,,,,,120,0,2,,,0,,,58,64
295440,note_off,,,,,0,0,1,,,0,,,74,64
295440,note_on,,,,,120,0,2,,,0,,,50,61
295440,note_on,,,,,0,0,1,,,0,,,72,75
295440,note_on,,,,,0,0,1,,,0,,,76,75
295440,note_off,,,,,120,0,1,,,0,,,77,64
295520,set_tempo,,,,,240,1,0,491803,,,,,,
295560,note_off,,,,,0,0,2,,,0,,,50,64
295560,note_off,,,,,120,0,2,,,0,,,57,64
295560,note_off,,,,,120,0,1,,,0,,,76,64
295560,note_off,,,,,0,0,1,,,0,,,72,64
295560,note_on,,,,,0,0,1,,,0,,,71,62
295560,note_on,,,,,0,0,1,,,0,,,74,62
295560,note_on,,,,,0,0,2,,,0,,,59,57
295620,note_off,,,,,60,0,2,,,0,,,50,64
295664,note_off,,,,,104,0,1,,,0,,,74,64
295664,note_off,,,,,0,0,1,,,0,,,71,64
295670,control_change,,,,,6,0,1,,,0,64,0,,
295680,note_on,,,,,0,0,1,,,0,,,74,72
295680,note_on,,,,,10,0,1,,,0,,,71,72
295680,note_off,,,,,60,0,2,,,0,,,59,64
295680,note_on,,,,,0,0,2,,,0,,,40,80
295780,set_tempo,,,,,260,1,0,483871,,,,,,
295800,note_on,,,,,0,0,2,,,0,,,52,64
295800,note_off,,,,,120,0,2,,,0,,,40,64
295800,note_on,,,,,0,0,2,,,0,,,60,64
295800,note_on,,,,,0,0,2,,,0,,,57,64
295860,note_on,,,,,0,0,1,,,0,,,72,65
295860,note_on,,,,,0,0,1,,,0,,,69,65
295860,note_off,,,,,0,0,1,,,0,,,71,64
295860,note_off,,,,,180,0,1,,,0,,,74,64
295920,note_on,,,,,0,0,1,,,0,,,71,63
295920,note_off,,,,,0,0,1,,,0,,,69,64
295920,note_off,,,,,60,0,1,,,0,,,72,64
295920,note_off,,,,,120,0,2,,,0,,,52,64
295920,note_off,,,,,0,0,2,,,0,,,60,64
295920,note_off,,,,,0,0,2,,,0,,,57,64
295920,set_tempo,,,,,140,1,0,472441,,,,,,
295920,note_on,,,,,0,0,2,,,0,,,60,59
295920,note_on,,,,,0,0,2,,,0,,,57,59
295920,note_on,,,,,0,0,2,,,0,,,52,59
295920,note_on,,,,,0,0,1,,,0,,,74,63
295980,note_on,,,,,0,0,1,,,0,,,72,58
295980,note_on,,,,,0,0,1,,,0,,,69,58
295980,note_off,,,,,0,0,1,,,0,,,71,64
295980,note_off,,,,,60,0,1,,,0,,,74,64
296040,note_off,,,,,0,0,2,,,0,,,57,64
296040,note_off,,,,,0,0,2,,,0,,,60,64
296040,note_on,,,,,0,0,2,,,0,,,60,53
296040,note_on,,,,,0,0,2,,,0,,,57,53
296040,note_on,,,,,0,0,2,,,0,,,52,53
296040,note_on,,,,,0,0,1,,,0,,,74,53
296040,note_on,,,,,0,0,1,,,0,,,71,53
296040,note_off,,,,,0,0,1,,,0,,,69,64
296040,note_off,,,,,60,0,1,,,0,,,72,64
296040,note_off,,,,,120,0,2,,,0,,,52,64
296100,note_off,,,,,60,0,1,,,0,,,74,64
296100,note_on,,,,,0,0,1,,,0,,,69,51
296100,note_on,,,,,0,0,1,,,0,,,72,51
296100,note_off,,,,,0,0,1,,,0,,,71,64
296140,set_tempo,,,,,220,1,0,600000,,,,,,
296148,note_off,,,,,48,0,1,,,0,,,72,64
296148,note_off,,,,,0,0,1,,,0,,,69,64
296160,set_tempo,,,,,20,1,0,472441,,,,,,
296160,note_off,,,,,120,0,2,,,0,,,52,64
296160,note_off,,,,,0,0,2,,,0,,,57,64
296160,note_off,,,,,0,0,2,,,0,,,60,64
296160,note_on,,,,,0,0,2,,,0,,,39,60
296160,note_on,,,,,12,0,1,,,0,,,71,63
296160,note_on,,,,,0,0,1,,,0,,,74,63
296240,set_tempo,,,,,80,1,0,476190,,,,,,
296280,note_on,,,,,0,0,2,,,0,,,51,51
296280,note_on,,,,,0,0,2,,,0,,,57,51
296280,note_on,,,,,0,0,2,,,0,,,60,51
296280,note_off,,,,,120,0,2,,,0,,,39,64
296300,set_tempo,,,,,60,1,0,491803,,,,,,
296340,note_on,,,,,0,0,1,,,0,,,69,56
296340,note_off,,,,,0,0,1,,,0,,,71,64
296340,note_off,,,,,180,0,1,,,0,,,74,64
296340,note_on,,,,,0,0,1,,,0,,,72,56
296380,set_tempo,,,,,80,1,0,504202,,,,,,
296400,note_on,,,,,0,0,2,,,0,,,51,45
296400,note_off,,,,,120,0,2,,,0,,,51,64
296400,note_on,,,,,0,0,2,,,0,,,60,45
296400,note_on,,,,,0,0,2,,,0,,,57,45
296400,note_off,,,,,0,0,1,,,0,,,69,64
296400,note_off,,,,,0,0,2,,,0,,,60,64
296400,note_on,,,,,0,0,1,,,0,,,74,50
296400,note_on,,,,,0,0,1,,,0,,,71,50
296400,note_off,,,,,60,0,1,,,0,,,72,64
296400,note_off,,,,,0,0,2,,,0,,,57,64
296460,note_on,,,,,0,0,1,,,0,,,72,46
296460,note_on,,,,,0,0,1,,,0,,,69,46
296460,note_off,,,,,0,0,1,,,0,,,71,64
296460,note_off,,,,,60,0,1,,,0,,,74,64
296480,set_tempo,,,,,100,1,0,526316,,,,,,
296520,note_off,,,,,0,0,2,,,0,,,57,64
296520,note_off,,,,,0,0,2,,,0,,,60,64
296520,note_on,,,,,0,0,2,,,0,,,60,39
296520,note_on,,,,,0,0,2,,,0,,,57,39
296520,note_on,,,,,0,0,1,,,0,,,74,41
296520,note_on,,,,,0,0,1,,,0,,,71,41
296520,note_off,,,,,0,0,1,,,0,,,69,64
296520,note_off,,,,,60,0,1,,,0,,,72,64
296520,note_off,,,,,120,0,2,,,0,,,51,64
296520,note_on,,,,,0,0,2,,,0,,,51,39
296580,note_on,,,,,0,0,1,,,0,,,72,38
296580,note_on,,,,,0,0,1,,,0,,,69,38
296580,note_off,,,,,0,0,1,,,0,,,71,64
296580,note_off,,,,,60,0,1,,,0,,,74,64
296600,set_tempo,,,,,120,1,0,594059,,,,,,
296624,note_off,,,,,44,0,1,,,0,,,72,64
296624,note_off,,,,,0,0,1,,,0,,,69,64
296640,note_off,,,,,120,0,2,,,0,,,51,64
296640,note_on,,,,,16,0,1,,,0,,,68,43
296640,note_on,,,,,0,0,1,,,0,,,71,43
296640,note_on,,,,,0,0,2,,,0,,,40,51
296640,note_off,,,,,0,0,2,,,0,,,60,64
296640,note_off,,,,,0,0,2,,,0,,,57,64
296640,set_tempo,,,,,40,1,0,545455,,,,,,
296760,note_on,,,,,0,0,2,,,0,,,52,37
296760,note_on,,,,,0,0,2,,,0,,,56,37
296760,note_on,,,,,0,0,2,,,0,,,59,37
296760,note_off,,,,,120,0,2,,,0,,,40,64
296800,set_tempo,,,,,160,1,0,540541,,,,,,
296820,note_off,,,,,180,0,1,,,0,,,71,64
296820,note_off,,,,,0,0,1,,,0,,,68,64
296880,note_on,,,,,0,0,2,,,0,,,52,41
296880,note_on,,,,,60,0,1,,,0,,,76,54
296880,note_on,,,,,0,0,2,,,0,,,56,41
296880,note_off,,,,,120,0,2,,,0,,,52,64
296880,note_off,,,,,0,0,2,,,0,,,56,64
296880,note_off,,,,,0,0,2,,,0,,,59,64
296880,note_on,,,,,0,0,2,,,0,,,59,41
296970,note_off,,,,,90,0,1,,,0,,,76,64
297000,note_off,,,,,120,0,2,,,0,,,52,64
297000,note_off,,,,,0,0,2,,,0,,,56,64
297000,note_on,,,,,0,0,2,,,0,,,56,44
297000,note_on,,,,,0,0,2,,,0,,,59,44
297000,note_on,,,,,0,0,2,,,0,,,64,44
297000,note_off,,,,,0,0,2,,,0,,,59,64
297120,note_on,,,,,0,0,2,,,0,,,59,50
297120,note_off,,,,,0,0,2,,,0,,,59,64
297120,note_off,,,,,0,0,2,,,0,,,64,64
297120,note_on,,,,,0,0,2,,,0,,,64,50
297120,note_on,,,,,150,0,1,,,0,,,53,77
297120,note_on,,,,,0,0,2,,,0,,,56,50
297120,note_off,,,,,120,0,2,,,0,,,56,64
297240,note_on,,,,,0,0,2,,,0,,,56,44
297240,note_off,,,,,120,0,2,,,0,,,56,64
297240,note_off,,,,,0,0,2,,,0,,,59,64
297240,note_off,,,,,0,0,2,,,0,,,64,64
297240,note_on,,,,,0,0,2,,,0,,,64,44
297240,note_on,,,,,0,0,2,,,0,,,59,44
297260,set_tempo,,,,,460,1,0,526316,,,,,,
297300,note_on,,,,,0,0,1,,,0,,,52,71
297300,note_off,,,,,180,0,1,,,0,,,53,64
297360,note_on,,,,,0,0,2,,,0,,,56,36
297360,note_off,,,,,60,0,1,,,0,,,52,64
297360,note_off,,,,,120,0,2,,,0,,,56,64
297360,note_off,,,,,0,0,2,,,0,,,59,64
297360,note_off,,,,,0,0,2,,,0,,,64,64
297360,note_on,,,,,0,0,2,,,0,,,64,36
297360,note_on,,,,,0,0,2,,,0,,,59,36
297360,note_on,,,,,0,0,1,,,0,,,53,64
297420,note_on,,,,,0,0,1,,,0,,,52,60
297420,note_off,,,,,60,0,1,,,0,,,53,64
297480,note_off,,,,,0,0,2,,,0,,,59,64
297480,note_on,,,,,0,0,2,,,0,,,64,33
297480,note_on,,,,,0,0,2,,,0,,,59,33
297480,note_on,,,,,0,0,2,,,0,,,56,33
297480,note_off,,,,,0,0,2,,,0,,,64,64
297480,note_off,,,,,120,0,2,,,0,,,56,64
297480,note_off,,,,,60,0,1,,,0,,,52,64
297480,note_on,,,,,0,0,1,,,0,,,53,57
297540,note_off,,,,,60,0,1,,,0,,,53,64
297540,note_on,,,,,0,0,1,,,0,,,52,51
297560,set_tempo,,,,,300,1,0,512821,,,,,,
297600,note_off,,,,,60,0,1,,,0,,,52,64
297600,note_on,,,,,0,0,1,,,0,,,53,59
297600,note_off,,,,,120,0,2,,,0,,,56,64
297600,note_off,,,,,0,0,2,,,0,,,59,64
297600,note_off,,,,,0,0,2,,,0,,,64,64
297600,note_on,,,,,0,0,2,,,0,,,64,50
297600,note_on,,,,,0,0,2,,,0,,,60,50
297600,note_on,,,,,0,0,2,,,0,,,57,50
297660,note_off,,,,,60,0,1,,,0,,,53,64
297660,note_on,,,,,0,0,1,,,0,,,52,55
297720,note_off,,,,,0,0,2,,,0,,,60,64
297720,note_off,,,,,120,0,2,,,0,,,57,64
297720,note_on,,,,,0,0,2,,,0,,,64,43
297720,note_on,,,,,0,0,2,,,0,,,60,43
297720,note_on,,,,,0,0,2,,,0,,,57,43
297720,note_off,,,,,0,0,2,,,0,,,64,64
297720,note_on,,,,,0,0,1,,,0,,,53,53
297720,note_off,,,,,60,0,1,,,0,,,52,64
297780,note_on,,,,,0,0,1,,,0,,,52,54
297780,note_off,,,,,60,0,1,,,0,,,53,64
297840,note_on,,,,,0,0,2,,,0,,,57,36
297840,note_on,,,,,0,0,2,,,0,,,60,36
297840,note_off,,,,,60,0,1,,,0,,,52,64
297840,note_on,,,,,0,0,1,,,0,,,50,52
297840,note_on,,,,,0,0,2,,,0,,,64,36
297840,note_off,,,,,0,0,2,,,0,,,64,64
297840,note_off,,,,,0,0,2,,,0,,,60,64
297840,note_off,,,,,120,0,2,,,0,,,57,64
297880,set_tempo,,,,,320,1,0,504202,,,,,,
297900,note_on,,,,,0,0,1,,,0,,,48,51
297900,note_off,,,,,60,0,1,,,0,,,50,64
297960,note_on,,,,,0,0,2,,,0,,,64,31
297960,note_on,,,,,0,0,2,,,0,,,57,31
297960,note_on,,,,,0,0,2,,,0,,,60,31
297960,note_off,,,,,0,0,2,,,0,,,64,64
297960,note_off,,,,,60,0,1,,,0,,,48,64
297960,note_off,,,,,120,0,2,,,0,,,57,64
297960,note_on,,,,,0,0,1,,,0,,,50,48
297960,note_off,,,,,0,0,2,,,0,,,60,64
298020,note_off,,,,,60,0,1,,,0,,,50,64
298020,note_on,,,,,0,0,1,,,0,,,48,46
298080,note_off,,,,,60,0,1,,,0,,,48,64
298080,note_off,,,,,120,0,2,,,0,,,57,64
298080,note_off,,,,,0,0,2,,,0,,,60,64
298080,note_off,,,,,0,0,2,,,0,,,64,64
298080,note_on,,,,,0,0,2,,,0,,,63,42
298080,note_on,,,,,0,0,2,,,0,,,60,42
298080,note_on,,,,,0,0,2,,,0,,,57,42
298080,note_on,,,,,0,0,1,,,0,,,47,49
298140,note_on,,,,,0,0,1,,,0,,,45,42
298140,note_off,,,,,60,0,1,,,0,,,47,64
298180,set_tempo,,,,,300,1,0,500000,,,,,,
298200,note_off,,,,,0,0,2,,,0,,,60,64
298200,note_off,,,,,60,0,1,,,0,,,45,64
298200,note_off,,,,,120,0,2,,,0,,,57,64
298200,note_on,,,,,0,0,2,,,0,,,57,35
298200,note_on,,,,,0,0,2,,,0,,,60,35
298200,note_on,,,,,0,0,1,,,0,,,47,41
298200,note_on,,,,,0,0,2,,,0,,,63,35
298200,note_off,,,,,0,0,2,,,0,,,63,64
298260,note_on,,,,,0,0,1,,,0,,,45,39
298260,note_off,,,,,60,0,1,,,0,,,47,64
298320,note_on,,,,,0,0,2,,,0,,,60,31
298320,note_on,,,,,0,0,2,,,0,,,57,31
298320,note_off,,,,,120,0,2,,,0,,,57,64
298320,note_off,,,,,0,0,2,,,0,,,60,64
298320,note_off,,,,,60,0,1,,,0,,,45,64
298320,note_on,,,,,0,0,1,,,0,,,44,38
298320,note_on,,,,,0,0,2,,,0,,,63,31
298320,note_off,,,,,0,0,2,,,0,,,63,64
298380,note_off,,,,,60,0,1,,,0,,,44,64
298380,note_on,,,,,0,0,1,,,0,,,45,37
298440,note_off,,,,,60,0,1,,,0,,,45,64
298440,note_on,,,,,0,0,1,,,0,,,44,37
298440,note_off,,,,,120,0,2,,,0,,,57,64
298440,note_off,,,,,0,0,2,,,0,,,60,64
298440,note_off,,,,,0,0,2,,,0,,,63,64
298440,note_on,,,,,0,0,2,,,0,,,63,28
298440,note_on,,,,,0,0,2,,,0,,,60,28
298440,note_on,,,,,0,0,2,,,0,,,57,28
298500,note_on,,,,,0,0,1,,,0,,,45,36
298500,note_off,,,,,60,0,1,,,0,,,44,64
298560,note_on,,,,,0,0,1,,,0,,,40,33
298560,note_off,,,,,60,0,1,,,0,,,45,64
298560,note_on,,,,,0,0,2,,,0,,,56,36
298560,note_on,,,,,0,0,2,,,0,,,64,36
298560,note_off,,,,,0,0,2,,,0,,,63,64
298560,note_off,,,,,0,0,2,,,0,,,60,64
298560,note_off,,,,,120,0,2,,,0,,,57,64
298560,note_on,,,,,0,0,2,,,0,,,59,36
298680,note_on,,,,,0,0,2,,,0,,,56,37
298680,note_off,,,,,120,0,2,,,0,,,56,64
298680,note_off,,,,,0,0,2,,,0,,,59,64
298680,note_off,,,,,0,0,2,,,0,,,64,64
298680,note_on,,,,,0,0,2,,,0,,,64,37
298680,note_on,,,,,0,0,2,,,0,,,59,37
298740,note_off,,,,,180,0,1,,,0,,,40,64
298800,note_off,,,,,0,0,2,,,0,,,59,64
298800,note_off,,,,,120,0,2,,,0,,,56,64
298800,note_on,,,,,60,0,1,,,0,,,76,44
298800,note_on,,,,,0,0,2,,,0,,,64,41
298800,note_on,,,,,0,0,2,,,0,,,59,41
298800,note_on,,,,,0,0,2,,,0,,,56,41
298800,note_off,,,,,0,0,2,,,0,,,64,64
298890,note_off,,,,,90,0,1,,,0,,,76,64
298920,note_off,,,,,120,0,2,,,0,,,56,64
298920,note_off,,,,,0,0,2,,,0,,,59,64
298920,note_off,,,,,0,0,2,,,0,,,64,64
298920,note_on,,,,,0,0,2,,,0,,,59,44
298920,note_on,,,,,0,0,2,,,0,,,64,44
298920,note_on,,,,,0,0,2,,,0,,,56,44
299040,note_off,,,,,120,0,2,,,0,,,56,64
299040,note_off,,,,,0,0,2,,,0,,,59,64
299040,note_off,,,,,0,0,2,,,0,,,64,64
299040,note_on,,,,,0,0,2,,,0,,,64,50
299040,note_on,,,,,0,0,2,,,0,,,56,50
299040,note_on,,,,,0,0,2,,,0,,,59,50
299040,note_on,,,,,150,0,1,,,0,,,89,77
299160,note_off,,,,,0,0,2,,,0,,,59,64
299160,note_off,,,,,120,0,2,,,0,,,56,64
299160,note_off,,,,,0,0,2,,,0,,,64,64
299160,note_on,,,,,0,0,2,,,0,,,59,44
299160,note_on,,,,,0,0,2,,,0,,,56,44
299160,note_on,,,,,0,0,2,,,0,,,64,44
299220,note_off,,,,,180,0,1,,,0,,,89,64
299220,note_on,,,,,0,0,1,,,0,,,88,71
299280,note_off,,,,,120,0,2,,,0,,,56,64
299280,note_off,,,,,0,0,2,,,0,,,64,64
299280,note_on,,,,,0,0,2,,,0,,,64,36
299280,note_on,,,,,0,0,2,,,0,,,59,36
299280,note_on,,,,,0,0,2,,,0,,,56,36
299280,note_off,,,,,60,0,1,,,0,,,88,64
299280,note_on,,,,,0,0,1,,,0,,,89,64
299280,note_off,,,,,0,0,2,,,0,,,59,64
299340,note_off,,,,,60,0,1,,,0,,,89,64
299340,note_on,,,,,0,0,1,,,0,,,88,60
299400,note_on,,,,,0,0,2,,,0,,,64,33
299400,note_off,,,,,120,0,2,,,0,,,56,64
299400,note_on,,,,,0,0,2,,,0,,,59,33
299400,note_on,,,,,0,0,2,,,0,,,56,33
299400,note_off,,,,,60,0,1,,,0,,,88,64
299400,note_off,,,,,0,0,2,,,0,,,59,64
299400,note_off,,,,,0,0,2,,,0,,,64,64
299400,note_on,,,,,0,0,1,,,0,,,89,57
299460,note_on,,,,,0,0,1,,,0,,,88,51
299460,note_off,,,,,60,0,1,,,0,,,89,64
299520,note_on,,,,,0,0,2,,,0,,,57,50
299520,note_on,,,,,0,0,2,,,0,,,64,50
299520,note_off,,,,,0,0,2,,,0,,,59,64
299520,note_on,,,,,0,0,2,,,0,,,60,50
299520,note_on,,,,,0,0,1,,,0,,,93,59
299520,note_off,,,,,60,0,1,,,0,,,88,64
299520,note_off,,,,,120,0,2,,,0,,,56,64
299520,note_off,,,,,0,0,2,,,0,,,64,64
299580,note_on,,,,,0,0,1,,,0,,,88,55
299580,note_off,,,,,60,0,1,,,0,,,93,64
299640,note_off,,,,,120,0,2,,,0,,,57,64
299640,note_off,,,,,0,0,2,,,0,,,60,64
299640,note_off,,,,,0,0,2,,,0,,,64,64
299640,note_on,,,,,0,0,2,,,0,,,64,43
299640,note_on,,,,,0,0,2,,,0,,,60,43
299640,note_on,,,,,0,0,2,,,0,,,57,43
299640,note_on,,,,,0,0,1,,,0,,,93,53
299640,note_off,,,,,60,0,1,,,0,,,88,64
299700,note_off,,,,,60,0,1,,,0,,,93,64
299700,note_on,,,,,0,0,1,,,0,,,88,54
299760,note_on,,,,,0,0,2,,,0,,,60,36
299760,note_off,,,,,0,0,2,,,0,,,60,64
299760,note_off,,,,,120,0,2,,,0,,,57,64
299760,note_off,,,,,60,0,1,,,0,,,88,64
299760,note_on,,,,,0,0,1,,,0,,,86,52
299760,note_on,,,,,0,0,2,,,0,,,64,36
299760,note_on,,,,,0,0,2,,,0,,,57,36
299760,note_off,,,,,0,0,2,,,0,,,64,64
299820,note_off,,,,,60,0,1,,,0,,,86,64
299820,note_on,,,,,0,0,1,,,0,,,84,51
299880,note_on,,,,,0,0,2,,,0,,,60,31
299880,note_on,,,,,0,0,2,,,0,,,64,31
299880,note_off,,,,,0,0,2,,,0,,,60,64
299880,note_off,,,,,120,0,2,,,0,,,57,64
299880,note_on,,,,,0,0,2,,,0,,,57,31
299880,note_off,,,,,0,0,2,,,0,,,64,64
299880,note_on,,,,,0,0,1,,,0,,,86,48
299880,note_off,,,,,60,0,1,,,0,,,84,64
299940,note_on,,,,,0,0,1,,,0,,,84,46
299940,note_off,,,,,60,0,1,,,0,,,86,64
300000,note_on,,,,,0,0,1,,,0,,,83,49
300000,note_off,,,,,60,0,1,,,0,,,84,64
300000,note_on,,,,,0,0,2,,,0,,,60,42
300000,note_off,,,,,120,0,2,,,0,,,57,64
300000,note_off,,,,,0,0,2,,,0,,,60,64
300000,note_off,,,,,0,0,2,,,0,,,64,64
300000,note_on,,,,,0,0,2,,,0,,,63,42
300000,note_on,,,,,0,0,2,,,0,,,57,42
300060,note_off,,,,,60,0,1,,,0,,,83,64
300060,note_on,,,,,0,0,1,,,0,,,81,47
300120,note_off,,,,,120,0,2,,,0,,,57,64
300120,note_off,,,,,0,0,2,,,0,,,60,64
300120,note_off,,,,,0,0,2,,,0,,,63,64
300120,note_on,,,,,0,0,2,,,0,,,63,38
300120,note_on,,,,,0,0,2,,,0,,,60,38
300120,note_on,,,,,0,0,2,,,0,,,57,38
300120,note_off,,,,,60,0,1,,,0,,,81,64
300120,note_on,,,,,0,0,1,,,0,,,83,48
300180,note_off,,,,,60,0,1,,,0,,,83,64
300180,note_on,,,,,0,0,1,,,0,,,81,50
300240,note_on,,,,,0,0,2,,,0,,,57,49
300240,note_off,,,,,60,0,1,,,0,,,81,64
300240,note_off,,,,,0,0,2,,,0,,,63,64
300240,note_off,,,,,0,0,2,,,0,,,60,64
300240,note_on,,,,,0,0,1,,,0,,,80,53
300240,note_off,,,,,120,0,2,,,0,,,57,64
300240,note_on,,,,,0,0,2,,,0,,,60,49
300240,note_on,,,,,0,0,2,,,0,,,63,49
300300,note_on,,,,,0,0,1,,,0,,,81,56
300300,note_off,,,,,60,0,1,,,0,,,80,64
300360,note_on,,,,,0,0,1,,,0,,,80,58
300360,note_on,,,,,0,0,2,,,0,,,57,56
300360,note_on,,,,,0,0,2,,,0,,,63,56
300360,note_off,,,,,0,0,2,,,0,,,63,64
300360,note_off,,,,,60,0,1,,,0,,,81,64
300360,note_off,,,,,0,0,2,,,0,,,60,64
300360,note_off,,,,,120,0,2,,,0,,,57,64
300360,note_on,,,,,0,0,2,,,0,,,60,56
300420,note_on,,,,,0,0,1,,,0,,,81,64
300420,note_off,,,,,60,0,1,,,0,,,80,64
300480,note_on,,,,,0,0,1,,,0,,,76,81
300480,control_change,,,,,0,0,1,,,0,64,95,,
300480,note_off,,,,,60,0,1,,,0,,,81,64
300480,note_on,,,,,0,0,2,,,0,,,64,61
300480,note_on,,,,,0,0,2,,,0,,,56,61
300480,note_on,,,,,0,0,2,,,0,,,59,61
300480,note_off,,,,,0,0,2,,,0,,,63,64
300480,note_off,,,,,0,0,2,,,0,,,60,64
300480,note_off,,,,,120,0,2,,,0,,,57,64
300548,note_off,,,,,68,0,1,,,0,,,76,64
300600,note_off,,,,,0,0,2,,,0,,,59,64
300600,note_on,,,,,0,0,2,,,0,,,64,47
300600,note_off,,,,,0,0,2,,,0,,,64,64
300600,note_on,,,,,0,0,2,,,0,,,59,47
300600,note_on,,,,,0,0,2,,,0,,,56,47
300600,note_off,,,,,120,0,2,,,0,,,56,64
300720,note_on,,,,,172,0,1,,,0,,,52,86
300720,note_off,,,,,0,0,2,,,0,,,59,64
300720,note_off,,,,,0,0,2,,,0,,,64,64
300720,note_on,,,,,0,0,2,,,0,,,64,44
300720,note_on,,,,,0,0,2,,,0,,,59,44
300720,note_on,,,,,0,0,2,,,0,,,56,44
300720,note_off,,,,,120,0,2,,,0,,,56,64
300788,note_off,,,,,68,0,1,,,0,,,52,64
300840,note_off,,,,,120,0,2,,,0,,,56,64
300840,note_off,,,,,0,0,2,,,0,,,59,64
300840,note_off,,,,,0,0,2,,,0,,,64,64
300840,note_on,,,,,0,0,2,,,0,,,56,42
300840,note_on,,,,,0,0,2,,,0,,,59,42
300840,note_on,,,,,0,0,2,,,0,,,64,42
300940,control_change,,,,,152,0,1,,,0,64,0,,
300960,note_on,,,,,0,0,2,,,0,,,64,58
300960,control_change,,,,,0,0,1,,,0,64,96,,
300960,note_on,,,,,20,0,1,,,0,,,77,78
300960,note_off,,,,,120,0,2,,,0,,,56,64
300960,note_on,,,,,0,0,2,,,0,,,57,58
300960,note_on,,,,,0,0,2,,,0,,,60,58
300960,note_off,,,,,0,0,2,,,0,,,59,64
300960,note_off,,,,,0,0,2,,,0,,,64,64
301028,note_off,,,,,68,0,1,,,0,,,77,64
301080,note_on,,,,,0,0,2,,,0,,,57,48
301080,note_off,,,,,120,0,2,,,0,,,57,64
301080,note_off,,,,,0,0,2,,,0,,,60,64
301080,note_off,,,,,0,0,2,,,0,,,64,64
301080,note_on,,,,,0,0,2,,,0,,,64,48
301080,note_on,,,,,0,0,2,,,0,,,60,48
301200,note_on,,,,,172,0,1,,,0,,,51,85
301200,note_off,,,,,0,0,2,,,0,,,60,64
301200,note_off,,,,,120,0,2,,,0,,,57,64
301200,note_off,,,,,0,0,2,,,0,,,64,64
301200,note_on,,,,,0,0,2,,,0,,,64,43
301200,note_on,,,,,0,0,2,,,0,,,60,43
301200,note_on,,,,,0,0,2,,,0,,,57,43
301268,note_off,,,,,68,0,1,,,0,,,51,64
301320,note_on,,,,,0,0,2,,,0,,,64,40
301320,note_on,,,,,0,0,2,,,0,,,60,40
301320,note_on,,,,,0,0,2,,,0,,,57,40
301320,note_off,,,,,0,0,2,,,0,,,64,64
301320,note_off,,,,,120,0,2,,,0,,,57,64
301320,note_off,,,,,0,0,2,,,0,,,60,64
301420,control_change,,,,,152,0,1,,,0,64,0,,
301440,note_on,,,,,0,0,2,,,0,,,56,50
301440,note_on,,,,,0,0,2,,,0,,,59,50
301440,control_change,,,,,0,0,1,,,0,64,95,,
301440,note_on,,,,,20,0,1,,,0,,,76,76
301440,note_off,,,,,120,0,2,,,0,,,57,64
301440,note_off,,,,,0,0,2,,,0,,,60,64
301440,note_on,,,,,0,0,2,,,0,,,64,50
301440,note_off,,,,,0,0,2,,,0,,,64,64
301508,note_off,,,,,68,0,1,,,0,,,76,64
301560,note_on,,,,,0,0,2,,,0,,,56,47
301560,note_off,,,,,120,0,2,,,0,,,56,64
301560,note_off,,,,,0,0,2,,,0,,,59,64
301560,note_off,,,,,0,0,2,,,0,,,64,64
301560,note_on,,,,,0,0,2,,,0,,,64,47
301560,note_on,,,,,0,0,2,,,0,,,59,47
301680,note_on,,,,,0,0,2,,,0,,,56,36
301680,note_on,,,,,0,0,2,,,0,,,59,36
301680,note_off,,,,,0,0,2,,,0,,,64,64
301680,note_on,,,,,0,0,2,,,0,,,64,36
301680,note_off,,,,,120,0,2,,,0,,,56,64
301680,note_on,,,,,172,0,1,,,0,,,52,65
301680,note_off,,,,,0,0,2,,,0,,,59,64
301748,note_off,,,,,68,0,1,,,0,,,52,64
301800,note_off,,,,,120,0,2,,,0,,,56,64
301800,note_off,,,,,0,0,2,,,0,,,59,64
301800,note_off,,,,,0,0,2,,,0,,,64,64
301800,note_on,,,,,0,0,2,,,0,,,64,33
301800,note_on,,,,,0,0,2,,,0,,,59,33
301800,note_on,,,,,0,0,2,,,0,,,56,33
301900,control_change,,,,,152,0,1,,,0,64,0,,
301920,note_on,,,,,0,0,2,,,0,,,57,42
301920,control_change,,,,,0,0,1,,,0,64,96,,
301920,note_on,,,,,0,0,2,,,0,,,60,42
301920,note_off,,,,,120,0,2,,,0,,,56,64
301920,note_off,,,,,0,0,2,,,0,,,59,64
301920,note_off,,,,,0,0,2,,,0,,,64,64
301920,note_on,,,,,0,0,2,,,0,,,64,42
301920,note_on,,,,,20,0,1,,,0,,,77,58
301988,note_off,,,,,68,0,1,,,0,,,77,64
302040,note_on,,,,,0,0,2,,,0,,,57,37
302040,note_on,,,,,0,0,2,,,0,,,60,37
302040,note_on,,,,,0,0,2,,,0,,,64,37
302040,note_off,,,,,0,0,2,,,0,,,60,64
302040,note_off,,,,,120,0,2,,,0,,,57,64
302040,note_off,,,,,0,0,2,,,0,,,64,64
302160,note_off,,,,,0,0,2,,,0,,,60,64
302160,note_on,,,,,172,0,1,,,0,,,51,47
302160,note_on,,,,,0,0,2,,,0,,,57,31
302160,note_on,,,,,0,0,2,,,0,,,60,31
302160,note_on,,,,,0,0,2,,,0,,,64,31
302160,note_off,,,,,0,0,2,,,0,,,64,64
302160,note_off,,,,,120,0,2,,,0,,,57,64
302228,note_off,,,,,68,0,1,,,0,,,51,64
302280,note_off,,,,,0,0,2,,,0,,,60,64
302280,note_off,,,,,0,0,2,,,0,,,64,64
302280,note_on,,,,,0,0,2,,,0,,,64,28
302280,note_on,,,,,0,0,2,,,0,,,60,28
302280,note_on,,,,,0,0,2,,,0,,,57,28
302280,note_off,,,,,120,0,2,,,0,,,57,64
302380,control_change,,,,,152,0,1,,,0,64,0,,
302400,control_change,,,,,0,0,1,,,0,64,95,,
302400,note_on,,,,,20,0,1,,,0,,,76,59
302400,note_off,,,,,0,0,2,,,0,,,60,64
302400,note_off,,,,,120,0,2,,,0,,,57,64
302400,note_off,,,,,0,0,2,,,0,,,64,64
302400,note_on,,,,,0,0,2,,,0,,,64,39
302400,note_on,,,,,0,0,2,,,0,,,59,39
302400,note_on,,,,,0,0,2,,,0,,,56,39
302468,note_off,,,,,68,0,1,,,0,,,76,64
302520,note_on,,,,,0,0,2,,,0,,,56,25
302520,note_off,,,,,120,0,2,,,0,,,56,64
302520,note_on,,,,,0,0,2,,,0,,,59,25
302520,note_off,,,,,0,0,2,,,0,,,64,64
302520,note_off,,,,,0,0,2,,,0,,,59,64
302640,note_on,,,,,0,0,2,,,0,,,56,33
302640,note_on,,,,,0,0,2,,,0,,,59,33
302640,note_off,,,,,0,0,2,,,0,,,59,64
302640,note_off,,,,,120,0,2,,,0,,,56,64
302640,note_on,,,,,172,0,1,,,0,,,52,59
302708,note_off,,,,,68,0,1,,,0,,,52,64
302760,note_on,,,,,0,0,2,,,0,,,56,38
302760,note_on,,,,,0,0,2,,,0,,,59,38
302760,note_off,,,,,0,0,2,,,0,,,59,64
302760,note_off,,,,,120,0,2,,,0,,,56,64
302860,control_change,,,,,152,0,1,,,0,64,0,,
302880,note_off,,,,,120,0,2,,,0,,,56,64
302880,note_off,,,,,0,0,2,,,0,,,59,64
302880,note_on,,,,,0,0,2,,,0,,,59,42
302880,note_on,,,,,0,0,2,,,0,,,56,42
302880,note_on,,,,,20,0,1,,,0,,,80,62
302948,note_off,,,,,68,0,1,,,0,,,80,64
303000,note_on,,,,,52,0,1,,,0,,,64,61
303000,note_on,,,,,0,0,2,,,0,,,56,47
303000,note_on,,,,,0,0,2,,,0,,,59,47
303000,note_off,,,,,0,0,2,,,0,,,59,64
303000,note_off,,,,,120,0,2,,,0,,,56,64
303068,note_off,,,,,68,0,1,,,0,,,64,64
303120,note_on,,,,,0,0,2,,,0,,,56,48
303120,note_on,,,,,0,0,2,,,0,,,59,48
303120,note_off,,,,,0,0,2,,,0,,,59,64
303120,note_off,,,,,120,0,2,,,0,,,56,64
303120,note_on,,,,,52,0,1,,,0,,,83,86
303188,note_off,,,,,68,0,1,,,0,,,83,64
303240,note_off,,,,,120,0,2,,,0,,,56,64
303240,note_on,,,,,0,0,2,,,0,,,59,53
303240,note_on,,,,,0,0,2,,,0,,,56,53
303240,note_on,,,,,52,0,1,,,0,,,68,84
303240,note_off,,,,,0,0,2,,,0,,,59,64
303308,note_off,,,,,68,0,1,,,0,,,68,64
303360,note_on,,,,,52,0,1,,,0,,,88,99
303360,control_change,,,,,0,0,1,,,0,64,95,,
303360,note_off,,,,,0,0,2,,,0,,,59,64
303360,note_on,,,,,0,0,2,,,0,,,56,54
303360,note_on,,,,,0,0,2,,,0,,,59,54
303360,note_off,,,,,120,0,2,,,0,,,56,64
303428,note_off,,,,,68,0,1,,,0,,,88,64
303480,note_on,,,,,0,0,2,,,0,,,56,51
303480,note_off,,,,,0,0,2,,,0,,,59,64
303480,note_off,,,,,120,0,2,,,0,,,56,64
303480,note_on,,,,,0,0,2,,,0,,,59,51
303600,note_on,,,,,0,0,2,,,0,,,59,47
303600,note_on,,,,,0,0,2,,,0,,,56,47
303600,note_off,,,,,0,0,2,,,0,,,59,64
303600,note_off,,,,,120,0,2,,,0,,,56,64
303600,note_on,,,,,172,0,1,,,0,,,52,99
303668,note_off,,,,,68,0,1,,,0,,,52,64
303720,note_off,,,,,120,0,2,,,0,,,56,64
303720,note_off,,,,,0,0,2,,,0,,,59,64
303720,note_on,,,,,0,0,2,,,0,,,59,44
303720,note_on,,,,,0,0,2,,,0,,,56,44
303820,control_change,,,,,152,0,1,,,0,64,0,,
303840,note_on,,,,,20,0,1,,,0,,,80,62
303840,note_off,,,,,120,0,2,,,0,,,56,64
303840,note_off,,,,,0,0,2,,,0,,,59,64
303840,note_on,,,,,0,0,2,,,0,,,56,42
303840,note_on,,,,,0,0,2,,,0,,,59,42
303908,note_off,,,,,68,0,1,,,0,,,80,64
303960,note_on,,,,,0,0,2,,,0,,,59,45
303960,note_off,,,,,0,0,2,,,0,,,59,64
303960,note_off,,,,,120,0,2,,,0,,,56,64
303960,note_on,,,,,52,0,1,,,0,,,64,61
303960,note_on,,,,,0,0,2,,,0,,,56,45
304028,note_off,,,,,68,0,1,,,0,,,64,64
304080,note_off,,,,,120,0,2,,,0,,,56,64
304080,note_off,,,,,0,0,2,,,0,,,59,64
304080,note_on,,,,,0,0,2,,,0,,,59,49
304080,note_on,,,,,0,0,2,,,0,,,56,49
304080,note_on,,,,,52,0,1,,,0,,,83,74
304148,note_off,,,,,68,0,1,,,0,,,83,64
304200,note_on,,,,,52,0,1,,,0,,,68,72
304200,note_on,,,,,0,0,2,,,0,,,59,50
304200,note_off,,,,,0,0,2,,,0,,,59,64
304200,note_on,,,,,0,0,2,,,0,,,56,50
304200,note_off,,,,,120,0,2,,,0,,,56,64
304268,note_off,,,,,68,0,1,,,0,,,68,64
304320,note_off,,,,,0,0,2,,,0,,,59,64
304320,note_on,,,,,0,0,2,,,0,,,59,50
304320,note_on,,,,,0,0,2,,,0,,,56,50
304320,note_off,,,,,120,0,2,,,0,,,56,64
304320,note_on,,,,,52,0,1,,,0,,,88,80
304320,control_change,,,,,0,0,1,,,0,64,95,,
304388,note_off,,,,,68,0,1,,,0,,,88,64
304440,note_on,,,,,0,0,2,,,0,,,56,46
304440,note_on,,,,,0,0,2,,,0,,,59,46
304440,note_off,,,,,0,0,2,,,0,,,59,64
304440,note_off,,,,,120,0,2,,,0,,,56,64
304560,note_on,,,,,0,0,2,,,0,,,59,41
304560,note_on,,,,,172,0,1,,,0,,,52,65
304560,note_on,,,,,0,0,2,,,0,,,56,41
304560,note_off,,,,,0,0,2,,,0,,,59,64
304560,note_off,,,,,120,0,2,,,0,,,56,64
304628,note_off,,,,,68,0,1,,,0,,,52,64
304680,note_on,,,,,0,0,2,,,0,,,56,37
304680,note_off,,,,,0,0,2,,,0,,,59,64
304680,note_off,,,,,120,0,2,,,0,,,56,64
304680,note_on,,,,,0,0,2,,,0,,,59,37
304780,control_change,,,,,152,0,1,,,0,64,0,,
304800,note_on,,,,,0,0,2,,,0,,,64,33
304800,note_on,,,,,0,0,2,,,0,,,56,33
304800,note_on,,,,,0,0,2,,,0,,,59,33
304800,note_off,,,,,0,0,2,,,0,,,59,64
304800,note_off,,,,,120,0,2,,,0,,,56,64
304800,note_on,,,,,20,0,1,,,0,,,95,47
304868,note_off,,,,,68,0,1,,,0,,,95,64
304920,note_off,,,,,120,0,2,,,0,,,56,64
304920,note_off,,,,,0,0,2,,,0,,,64,64
304920,note_on,,,,,0,0,2,,,0,,,56,34
304920,note_on,,,,,52,0,1,,,0,,,80,54
304920,note_off,,,,,0,0,2,,,0,,,59,64
304920,note_on,,,,,0,0,2,,,0,,,64,34
304920,note_on,,,,,0,0,2,,,0,,,59,34
304988,note_off,,,,,68,0,1,,,0,,,80,64
305040,note_on,,,,,0,0,2,,,0,,,66,28
305040,note_on,,,,,0,0,2,,,0,,,57,28
305040,note_off,,,,,0,0,2,,,0,,,64,64
305040,note_on,,,,,52,0,1,,,0,,,99,59
305040,note_off,,,,,120,0,2,,,0,,,56,64
305040,note_on,,,,,0,0,2,,,0,,,59,28
305040,note_off,,,,,0,0,2,,,0,,,59,64
305108,note_off,,,,,68,0,1,,,0,,,99,64
305160,note_off,,,,,0,0,2,,,0,,,66,64
305160,note_on,,,,,0,0,2,,,0,,,66,26
305160,note_off,,,,,0,0,2,,,0,,,59,64
305160,note_off,,,,,120,0,2,,,0,,,57,64
305160,note_on,,,,,0,0,2,,,0,,,57,26
305160,note_on,,,,,52,0,1,,,0,,,83,66
305160,note_on,,,,,0,0,2,,,0,,,59,26
305228,note_off,,,,,68,0,1,,,0,,,83,64
305280,control_change,,,,,0,0,1,,,0,64,95,,
305280,note_off,,,,,0,0,2,,,0,,,59,64
305280,note_off,,,,,0,0,2,,,0,,,66,64
305280,note_on,,,,,0,0,2,,,0,,,64,32
305280,note_on,,,,,0,0,2,,,0,,,59,32
305280,note_on,,,,,0,0,2,,,0,,,56,32
305280,note_on,,,,,52,0,1,,,0,,,100,80
305280,note_off,,,,,120,0,2,,,0,,,57,64
305348,note_off,,,,,68,0,1,,,0,,,100,64
305370,note_off,,,,,90,0,2,,,0,,,56,64
305370,note_off,,,,,0,0,2,,,0,,,64,64
305370,note_off,,,,,0,0,2,,,0,,,59,64
305400,note_on,,,,,0,0,2,,,0,,,56,29
305400,note_on,,,,,30,0,2,,,0,,,64,29
305400,note_on,,,,,0,0,2,,,0,,,59,29
305490,note_off,,,,,0,0,2,,,0,,,59,64
305490,note_off,,,,,90,0,2,,,0,,,56,64
305490,note_off,,,,,0,0,2,,,0,,,64,64
305520,note_on,,,,,0,0,2,,,0,,,56,32
305520,note_on,,,,,172,0,1,,,0,,,52,65
305520,note_on,,,,,0,0,2,,,0,,,59,32
305520,note_on,,,,,30,0,2,,,0,,,64,32
305600,set_tempo,,,,,7420,1,0,491803,,,,,,
305610,note_off,,,,,0,0,2,,,0,,,59,64
305610,note_off,,,,,90,0,2,,,0,,,56,64
305610,note_off,,,,,0,0,2,,,0,,,64,64
305610,note_off,,,,,90,0,1,,,0,,,52,64
305640,note_on,,,,,30,0,2,,,0,,,64,37
305640,note_on,,,,,0,0,2,,,0,,,59,37
305640,note_on,,,,,0,0,2,,,0,,,56,37
305730,control_change,,,,,120,0,1,,,0,64,0,,
305730,note_off,,,,,90,0,2,,,0,,,56,64
305730,note_off,,,,,0,0,2,,,0,,,59,64
305730,note_off,,,,,0,0,2,,,0,,,64,64
305760,note_on,,,,,30,0,1,,,0,,,88,45
305760,note_on,,,,,0,0,2,,,0,,,56,40
305760,note_on,,,,,30,0,2,,,0,,,64,40
305760,note_on,,,,,0,0,2,,,0,,,59,40
305850,note_off,,,,,90,0,1,,,0,,,88,64
305850,note_off,,,,,90,0,2,,,0,,,56,64
305850,note_off,,,,,0,0,2,,,0,,,59,64
305850,note_off,,,,,0,0,2,,,0,,,64,64
305880,note_on,,,,,30,0,2,,,0,,,64,27
305880,note_on,,,,,0,0,2,,,0,,,59,27
305880,note_on,,,,,0,0,2,,,0,,,56,27
305880,note_on,,,,,30,0,1,,,0,,,76,34
305900,set_tempo,,,,,300,1,0,480000,,,,,,
305970,note_off,,,,,90,0,2,,,0,,,56,64
305970,note_off,,,,,0,0,2,,,0,,,59,64
305970,note_off,,,,,0,0,2,,,0,,,64,64
305970,note_off,,,,,90,0,1,,,0,,,76,64
306000,note_on,,,,,30,0,2,,,0,,,64,30
306000,note_on,,,,,0,0,2,,,0,,,59,30
306000,note_on,,,,,0,0,2,,,0,,,56,30
306000,note_on,,,,,30,0,1,,,0,,,86,38
306090,note_off,,,,,90,0,2,,,0,,,56,64
306090,note_off,,,,,90,0,1,,,0,,,86,64
306090,note_off,,,,,0,0,2,,,0,,,64,64
306090,note_off,,,,,0,0,2,,,0,,,59,64
306120,note_on,,,,,0,0,2,,,0,,,56,34
306120,note_on,,,,,30,0,2,,,0,,,64,34
306120,note_on,,,,,0,0,2,,,0,,,59,34
306120,note_on,,,,,30,0,1,,,0,,,74,39
306180,set_tempo,,,,,280,1,0,465116,,,,,,
306210,note_off,,,,,90,0,1,,,0,,,74,64
306210,note_off,,,,,90,0,2,,,0,,,56,64
306210,note_off,,,,,0,0,2,,,0,,,64,64
306210,note_off,,,,,0,0,2,,,0,,,59,64
306240,note_on,,,,,0,0,2,,,0,,,56,41
306240,note_on,,,,,0,0,2,,,0,,,59,41
306240,note_on,,,,,30,0,2,,,0,,,64,41
306240,note_on,,,,,30,0,1,,,0,,,83,46
306330,note_off,,,,,0,0,2,,,0,,,64,64
306330,note_off,,,,,90,0,2,,,0,,,56,64
306330,note_off,,,,,90,0,1,,,0,,,83,64
306330,note_off,,,,,0,0,2,,,0,,,59,64
306340,set_tempo,,,,,160,1,0,461538,,,,,,
306360,note_on,,,,,30,0,1,,,0,,,71,53
306360,note_on,,,,,30,0,2,,,0,,,64,39
306360,note_on,,,,,0,0,2,,,0,,,59,39
306360,note_on,,,,,0,0,2,,,0,,,56,39
306450,note_off,,,,,90,0,2,,,0,,,56,64
306450,note_off,,,,,0,0,2,,,0,,,59,64
306450,note_off,,,,,0,0,2,,,0,,,64,64
306450,note_off,,,,,90,0,1,,,0,,,71,64
306480,note_on,,,,,30,0,1,,,0,,,81,59
306480,note_on,,,,,30,0,2,,,0,,,64,41
306480,note_on,,,,,0,0,2,,,0,,,61,41
306480,note_on,,,,,0,0,2,,,0,,,57,41
306540,set_tempo,,,,,200,1,0,465116,,,,,,
306570,note_off,,,,,0,0,2,,,0,,,61,64
306570,note_off,,,,,90,0,2,,,0,,,57,64
306570,note_off,,,,,90,0,1,,,0,,,81,64
306570,note_off,,,,,0,0,2,,,0,,,64,64
306600,note_on,,,,,30,0,1,,,0,,,69,64
306600,note_on,,,,,0,0,2,,,0,,,61,43
306600,note_on,,,,,30,0,2,,,0,,,64,43
306600,note_on,,,,,0,0,2,,,0,,,57,43
306690,note_off,,,,,0,0,2,,,0,,,64,64
306690,note_off,,,,,0,0,2,,,0,,,61,64
306690,note_off,,,,,90,0,1,,,0,,,69,64
306690,note_off,,,,,90,0,2,,,0,,,57,64
306700,set_tempo,,,,,160,1,0,472441,,,,,,
306720,note_on,,,,,0,0,2,,,0,,,59,46
306720,note_on,,,,,0,0,2,,,0,,,62,46
306720,note_on,,,,,30,0,2,,,0,,,64,46
306720,note_on,,,,,30,0,1,,,0,,,80,69
306810,note_off,,,,,0,0,2,,,0,,,64,64
306810,note_off,,,,,90,0,2,,,0,,,59,64
306810,note_off,,,,,90,0,1,,,0,,,80,64
306810,note_off,,,,,0,0,2,,,0,,,62,64
306840,note_on,,,,,0,0,2,,,0,,,59,46
306840,note_on,,,,,0,0,2,,,0,,,62,46
306840,note_on,,,,,30,0,2,,,0,,,64,46
306840,note_on,,,,,30,0,1,,,0,,,68,59
306880,set_tempo,,,,,180,1,0,487805,,,,,,
306930,note_off,,,,,90,0,2,,,0,,,59,64
306930,note_off,,,,,90,0,1,,,0,,,68,64
306930,note_off,,,,,0,0,2,,,0,,,64,64
306930,note_off,,,,,0,0,2,,,0,,,62,64
306960,note_on,,,,,0,0,2,,,0,,,57,40
306960,note_on,,,,,0,0,2,,,0,,,61,40
306960,note_on,,,,,30,0,2,,,0,,,64,40
306960,note_on,,,,,30,0,1,,,0,,,78,49
307020,set_tempo,,,,,140,1,0,504202,,,,,,
307050,note_off,,,,,90,0,1,,,0,,,78,64
307050,note_off,,,,,90,0,2,,,0,,,57,64
307050,note_off,,,,,0,0,2,,,0,,,61,64
307050,note_off,,,,,0,0,2,,,0,,,64,64
307080,note_on,,,,,30,0,1,,,0,,,66,37
307080,note_on,,,,,30,0,2,,,0,,,64,33
307080,note_on,,,,,0,0,2,,,0,,,61,33
307080,note_on,,,,,0,0,2,,,0,,,57,33
307100,set_tempo,,,,,80,1,0,517241,,,,,,
307160,set_tempo,,,,,60,1,0,530973,,,,,,
307170,note_off,,,,,90,0,1,,,0,,,66,64
307170,note_off,,,,,90,0,2,,,0,,,57,64
307170,note_off,,,,,0,0,2,,,0,,,64,64
307170,note_off,,,,,0,0,2,,,0,,,61,64
307200,note_on,,,,,0,0,2,,,0,,,62,37
307200,note_on,,,,,30,0,1,,,0,,,76,39
307200,note_on,,,,,30,0,2,,,0,,,64,37
307200,control_change,,,,,0,0,1,,,0,64,97,,
307200,note_on,,,,,0,0,2,,,0,,,59,37
307290,note_off,,,,,90,0,2,,,0,,,59,64
307290,note_off,,,,,90,0,1,,,0,,,76,64
307290,note_off,,,,,0,0,2,,,0,,,64,64
307290,note_off,,,,,0,0,2,,,0,,,62,64
307320,note_on,,,,,30,0,2,,,0,,,64,30
307320,note_on,,,,,0,0,2,,,0,,,62,30
307320,note_on,,,,,0,0,2,,,0,,,59,30
307360,set_tempo,,,,,200,1,0,500000,,,,,,
307410,note_off,,,,,90,0,2,,,0,,,59,64
307410,note_off,,,,,0,0,2,,,0,,,62,64
307410,note_off,,,,,0,0,2,,,0,,,64,64
307440,note_on,,,,,30,0,2,,,0,,,64,33
307440,note_on,,,,,0,0,2,,,0,,,59,33
307440,note_on,,,,,0,0,2,,,0,,,62,33
307440,note_on,,,,,150,0,1,,,0,,,40,56
307530,note_off,,,,,90,0,1,,,0,,,40,64
307530,note_off,,,,,0,0,2,,,0,,,64,64
307530,note_off,,,,,0,0,2,,,0,,,62,64
307530,note_off,,,,,90,0,2,,,0,,,59,64
307560,note_on,,,,,0,0,2,,,0,,,59,36
307560,note_on,,,,,0,0,2,,,0,,,62,36
307560,note_on,,,,,30,0,2,,,0,,,64,36
307650,note_off,,,,,90,0,2,,,0,,,59,64
307650,note_off,,,,,0,0,2,,,0,,,64,64
307650,note_off,,,,,0,0,2,,,0,,,62,64
307670,control_change,,,,,140,0,1,,,0,64,0,,
307680,note_on,,,,,0,0,2,,,0,,,59,44
307680,note_on,,,,,0,0,2,,,0,,,64,44
307680,note_on,,,,,30,0,2,,,0,,,62,44
307680,set_tempo,,,,,320,1,0,491803,,,,,,
307680,note_on,,,,,10,0,1,,,0,,,89,70
307770,note_off,,,,,0,0,2,,,0,,,62,64
307770,note_off,,,,,0,0,2,,,0,,,64,64
307770,note_off,,,,,90,0,2,,,0,,,59,64
307770,note_off,,,,,90,0,1,,,0,,,89,64
307800,note_on,,,,,0,0,2,,,0,,,59,43
307800,note_on,,,,,0,0,2,,,0,,,64,43
307800,note_on,,,,,30,0,2,,,0,,,62,43
307800,note_on,,,,,30,0,1,,,0,,,77,58
307820,set_tempo,,,,,140,1,0,480000,,,,,,
307890,note_off,,,,,90,0,2,,,0,,,59,64
307890,note_off,,,,,0,0,2,,,0,,,62,64
307890,note_off,,,,,90,0,1,,,0,,,77,64
307890,note_off,,,,,0,0,2,,,0,,,64,64
307920,note_on,,,,,30,0,2,,,0,,,62,40
307920,note_on,,,,,0,0,2,,,0,,,64,40
307920,note_on,,,,,0,0,2,,,0,,,59,40
307920,note_on,,,,,30,0,1,,,0,,,86,55
308010,note_off,,,,,90,0,2,,,0,,,59,64
308010,note_off,,,,,0,0,2,,,0,,,62,64
308010,note_off,,,,,90,0,1,,,0,,,86,64
308010,note_off,,,,,0,0,2,,,0,,,64,64
308040,note_on,,,,,0,0,2,,,0,,,64,38
308040,note_on,,,,,30,0,2,,,0,,,62,38
308040,note_on,,,,,0,0,2,,,0,,,59,38
308040,note_on,,,,,30,0,1,,,0,,,74,52
308100,set_tempo,,,,,280,1,0,465116,,,,,,
308130,note_off,,,,,90,0,2,,,0,,,59,64
308130,note_off,,,,,0,0,2,,,0,,,64,64
308130,note_off,,,,,90,0,1,,,0,,,74,64
308130,note_off,,,,,0,0,2,,,0,,,62,64
308160,note_on,,,,,0,0,2,,,0,,,59,41
308160,note_on,,,,,30,0,2,,,0,,,64,41
308160,note_on,,,,,0,0,2,,,0,,,56,41
308160,note_on,,,,,30,0,1,,,0,,,83,54
308250,note_off,,,,,0,0,2,,,0,,,59,64
308250,note_off,,,,,90,0,2,,,0,,,56,64
308250,note_off,,,,,0,0,2,,,0,,,64,64
308250,note_off,,,,,90,0,1,,,0,,,83,64
308260,set_tempo,,,,,160,1,0,461538,,,,,,
308280,note_on,,,,,30,0,1,,,0,,,71,53
308280,note_on,,,,,30,0,2,,,0,,,64,39
308280,note_on,,,,,0,0,2,,,0,,,56,39
308280,note_on,,,,,0,0,2,,,0,,,59,39
308370,note_off,,,,,0,0,2,,,0,,,64,64
308370,note_off,,,,,0,0,2,,,0,,,59,64
308370,note_off,,,,,90,0,2,,,0,,,56,64
308370,note_off,,,,,90,0,1,,,0,,,71,64
308400,note_on,,,,,30,0,1,,,0,,,81,59
308400,note_on,,,,,0,0,2,,,0,,,57,41
308400,note_on,,,,,30,0,2,,,0,,,61,41
308400,note_on,,,,,0,0,2,,,0,,,64,41
308460,set_tempo,,,,,200,1,0,465116,,,,,,
308490,note_off,,,,,0,0,2,,,0,,,61,64
308490,note_off,,,,,0,0,2,,,0,,,64,64
308490,note_off,,,,,90,0,2,,,0,,,57,64
308490,note_off,,,,,90,0,1,,,0,,,81,64
308520,note_on,,,,,30,0,1,,,0,,,69,64
308520,note_on,,,,,30,0,2,,,0,,,64,43
308520,note_on,,,,,0,0,2,,,0,,,61,43
308520,note_on,,,,,0,0,2,,,0,,,57,43
308610,note_off,,,,,0,0,2,,,0,,,64,64
308610,note_off,,,,,0,0,2,,,0,,,61,64
308610,note_off,,,,,90,0,1,,,0,,,69,64
308610,note_off,,,,,90,0,2,,,0,,,57,64
308620,set_tempo,,,,,160,1,0,472441,,,,,,
308640,note_on,,,,,30,0,1,,,0,,,80,69
308640,note_on,,,,,0,0,2,,,0,,,62,46
308640,note_on,,,,,0,0,2,,,0,,,59,46
308640,note_on,,,,,30,0,2,,,0,,,64,46
308730,note_off,,,,,90,0,2,,,0,,,59,64
308730,note_off,,,,,0,0,2,,,0,,,62,64
308730,note_off,,,,,0,0,2,,,0,,,64,64
308730,note_off,,,,,90,0,1,,,0,,,80,64
308760,note_on,,,,,30,0,1,,,0,,,68,59
308760,note_on,,,,,30,0,2,,,0,,,64,46
308760,note_on,,,,,0,0,2,,,0,,,59,46
308760,note_on,,,,,0,0,2,,,0,,,62,46
308800,set_tempo,,,,,180,1,0,487805,,,,,,
308850,note_off,,,,,0,0,2,,,0,,,64,64
308850,note_off,,,,,90,0,2,,,0,,,59,64
308850,note_off,,,,,90,0,1,,,0,,,68,64
308850,note_off,,,,,0,0,2,,,0,,,62,64
308880,note_on,,,,,30,0,2,,,0,,,64,40
308880,note_on,,,,,0,0,2,,,0,,,61,40
308880,note_on,,,,,0,0,2,,,0,,,57,40
308880,note_on,,,,,30,0,1,,,0,,,78,49
308940,set_tempo,,,,,140,1,0,504202,,,,,,
308970,note_off,,,,,90,0,1,,,0,,,78,64
308970,note_off,,,,,0,0,2,,,0,,,61,64
308970,note_off,,,,,90,0,2,,,0,,,57,64
308970,note_off,,,,,0,0,2,,,0,,,64,64
309000,note_on,,,,,0,0,2,,,0,,,61,33
309000,note_on,,,,,30,0,2,,,0,,,64,33
309000,note_on,,,,,30,0,1,,,0,,,66,37
309000,note_on,,,,,0,0,2,,,0,,,57,33
309020,set_tempo,,,,,80,1,0,517241,,,,,,
309080,set_tempo,,,,,60,1,0,530973,,,,,,
309090,note_off,,,,,90,0,2,,,0,,,57,64
309090,note_off,,,,,90,0,1,,,0,,,66,64
309090,note_off,,,,,0,0,2,,,0,,,61,64
309090,note_off,,,,,0,0,2,,,0,,,64,64
309120,control_change,,,,,0,0,1,,,0,64,97,,
309120,note_on,,,,,30,0,1,,,0,,,76,39
309120,note_on,,,,,0,0,2,,,0,,,62,37
309120,note_on,,,,,30,0,2,,,0,,,64,37
309120,note_on,,,,,0,0,2,,,0,,,59,37
309210,note_off,,,,,90,0,2,,,0,,,59,64
309210,note_off,,,,,0,0,2,,,0,,,62,64
309210,note_off,,,,,0,0,2,,,0,,,64,64
309210,note_off,,,,,90,0,1,,,0,,,76,64
309240,note_on,,,,,0,0,2,,,0,,,62,30
309240,note_on,,,,,30,0,2,,,0,,,64,30
309240,note_on,,,,,0,0,2,,,0,,,59,30
309280,set_tempo,,,,,200,1,0,500000,,,,,,
309330,note_off,,,,,0,0,2,,,0,,,64,64
309330,note_off,,,,,0,0,2,,,0,,,62,64
309330,note_off,,,,,90,0,2,,,0,,,59,64
309360,note_on,,,,,150,0,1,,,0,,,40,56
309360,note_on,,,,,0,0,2,,,0,,,59,33
309360,note_on,,,,,0,0,2,,,0,,,62,33
309360,note_on,,,,,30,0,2,,,0,,,64,33
309420,set_tempo,,,,,140,1,0,487805,,,,,,
309450,note_off,,,,,0,0,2,,,0,,,64,64
309450,note_off,,,,,0,0,2,,,0,,,62,64
309450,note_off,,,,,90,0,2,,,0,,,59,64
309450,note_off,,,,,90,0,1,,,0,,,40,64
309480,note_on,,,,,30,0,2,,,0,,,64,33
309480,note_on,,,,,0,0,2,,,0,,,59,33
309480,note_on,,,,,0,0,2,,,0,,,62,33
309570,note_off,,,,,90,0,2,,,0,,,59,64
309570,note_off,,,,,0,0,2,,,0,,,62,64
309570,note_off,,,,,0,0,2,,,0,,,64,64
309580,control_change,,,,,130,0,1,,,0,64,0,,
309600,note_on,,,,,30,0,2,,,0,,,64,37
309600,note_on,,,,,0,0,2,,,0,,,62,37
309600,note_on,,,,,0,0,2,,,0,,,59,37
309600,note_on,,,,,20,0,1,,,0,,,80,62
309620,set_tempo,,,,,200,1,0,480000,,,,,,
309690,note_off,,,,,90,0,1,,,0,,,80,64
309720,note_on,,,,,0,0,2,,,0,,,59,41
309720,note_off,,,,,0,0,2,,,0,,,64,64
309720,note_on,,,,,0,0,2,,,0,,,64,41
309720,note_off,,,,,0,0,2,,,0,,,62,64
309720,note_off,,,,,120,0,2,,,0,,,59,64
309720,note_on,,,,,0,0,2,,,0,,,62,41
309720,note_on,,,,,30,0,1,,,0,,,68,54
309810,note_off,,,,,90,0,1,,,0,,,68,64
309840,note_on,,,,,30,0,1,,,0,,,78,60
309840,note_off,,,,,0,0,2,,,0,,,62,64
309840,note_on,,,,,0,0,2,,,0,,,61,47
309840,note_on,,,,,0,0,2,,,0,,,64,47
309840,note_off,,,,,0,0,2,,,0,,,64,64
309840,note_off,,,,,120,0,2,,,0,,,59,64
309840,note_on,,,,,0,0,2,,,0,,,58,47
309880,set_tempo,,,,,260,1,0,487805,,,,,,
309930,note_off,,,,,90,0,1,,,0,,,78,64
309960,note_on,,,,,30,0,1,,,0,,,66,66
309960,note_on,,,,,0,0,2,,,0,,,58,58
309960,note_on,,,,,0,0,2,,,0,,,64,58
309960,note_on,,,,,0,0,2,,,0,,,61,58
309960,note_off,,,,,0,0,2,,,0,,,64,64
309960,note_off,,,,,0,0,2,,,0,,,61,64
309960,note_off,,,,,120,0,2,,,0,,,58,64
310050,note_off,,,,,90,0,1,,,0,,,66,64
310080,note_on,,,,,0,0,2,,,0,,,62,74
310080,note_on,,,,,0,0,2,,,0,,,59,74
310080,note_on,,,,,30,0,1,,,0,,,76,70
310080,note_off,,,,,0,0,2,,,0,,,58,64
310080,note_off,,,,,0,0,2,,,0,,,61,64
310080,note_off,,,,,120,0,2,,,0,,,64,64
310080,set_tempo,,,,,200,1,0,495868,,,,,,
310080,note_on,,,,,0,0,2,,,0,,,64,74
310140,set_tempo,,,,,60,1,0,491803,,,,,,
310170,note_off,,,,,90,0,1,,,0,,,76,64
310180,set_tempo,,,,,40,1,0,495868,,,,,,
310200,note_on,,,,,0,0,2,,,0,,,59,61
310200,note_on,,,,,0,0,2,,,0,,,62,61
310200,note_on,,,,,0,0,2,,,0,,,64,61
310200,note_off,,,,,0,0,2,,,0,,,64,64
310200,note_off,,,,,0,0,2,,,0,,,62,64
310200,note_off,,,,,120,0,2,,,0,,,59,64
310200,note_on,,,,,30,0,1,,,0,,,64,68
310240,set_tempo,,,,,60,1,0,500000,,,,,,
310290,note_off,,,,,90,0,1,,,0,,,64,64
310320,note_on,,,,,30,0,1,,,0,,,74,61
310320,note_on,,,,,0,0,2,,,0,,,52,57
310320,note_off,,,,,120,0,2,,,0,,,59,64
310320,note_off,,,,,0,0,2,,,0,,,62,64
310320,note_off,,,,,0,0,2,,,0,,,64,64
310320,note_on,,,,,0,0,2,,,0,,,59,57
310320,note_on,,,,,0,0,2,,,0,,,56,57
310410,note_off,,,,,90,0,1,,,0,,,74,64
310420,set_tempo,,,,,180,1,0,512821,,,,,,
310440,note_on,,,,,30,0,1,,,0,,,62,58
310440,note_off,,,,,120,0,2,,,0,,,52,64
310440,note_off,,,,,0,0,2,,,0,,,59,64
310440,note_on,,,,,0,0,2,,,0,,,59,56
310440,note_off,,,,,0,0,2,,,0,,,56,64
310440,note_on,,,,,0,0,2,,,0,,,52,56
310440,note_on,,,,,0,0,2,,,0,,,56,56
310460,set_tempo,,,,,40,1,0,517241,,,,,,
310500,set_tempo,,,,,40,1,0,521739,,,,,,
310530,note_off,,,,,90,0,1,,,0,,,62,64
310560,note_off,,,,,120,0,2,,,0,,,52,64
310560,note_off,,,,,0,0,2,,,0,,,56,64
310560,note_off,,,,,0,0,2,,,0,,,59,64
310560,note_on,,,,,0,0,2,,,0,,,56,57
310560,note_on,,,,,0,0,2,,,0,,,52,57
310560,note_on,,,,,0,0,2,,,0,,,50,57
310560,note_on,,,,,30,0,1,,,0,,,71,67
310600,set_tempo,,,,,100,1,0,526316,,,,,,
310640,set_tempo,,,,,40,1,0,530973,,,,,,
310650,note_off,,,,,90,0,1,,,0,,,71,64
310680,note_off,,,,,0,0,2,,,0,,,52,64
310680,note_off,,,,,120,0,2,,,0,,,50,64
310680,note_on,,,,,30,0,1,,,0,,,59,73
310680,note_off,,,,,0,0,2,,,0,,,56,64
310680,note_on,,,,,0,0,2,,,0,,,56,60
310680,note_on,,,,,0,0,2,,,0,,,52,60
310680,note_on,,,,,0,0,2,,,0,,,50,60
310680,set_tempo,,,,,40,1,0,540541,,,,,,
310770,note_off,,,,,90,0,1,,,0,,,59,64
310800,note_off,,,,,0,0,2,,,0,,,52,64
310800,note_on,,,,,30,0,1,,,0,,,68,79
310800,note_on,,,,,0,0,2,,,0,,,47,64
310800,note_on,,,,,0,0,2,,,0,,,50,64
310800,note_on,,,,,0,0,2,,,0,,,52,64
310800,note_off,,,,,0,0,2,,,0,,,56,64
310800,note_off,,,,,120,0,2,,,0,,,50,64
310840,set_tempo,,,,,160,1,0,560748,,,,,,
310890,note_off,,,,,90,0,1,,,0,,,68,64
310920,note_off,,,,,0,0,2,,,0,,,50,64
310920,note_off,,,,,0,0,2,,,0,,,52,64
310920,note_on,,,,,0,0,2,,,0,,,50,66
310920,note_on,,,,,0,0,2,,,0,,,52,66
310920,note_on,,,,,30,0,1,,,0,,,56,81
310920,set_tempo,,,,,80,1,0,566038,,,,,,
310920,note_off,,,,,120,0,2,,,0,,,47,64
310920,note_on,,,,,0,0,2,,,0,,,47,66
310960,set_tempo,,,,,40,1,0,571429,,,,,,
310980,set_tempo,,,,,20,1,0,588235,,,,,,
311010,note_off,,,,,90,0,1,,,0,,,56,64
311020,set_tempo,,,,,40,1,0,594059,,,,,,
311040,control_change,,,,,0,0,1,,,0,64,95,,
311040,set_tempo,,,,,20,1,0,600000,,,,,,
311040,note_on,,,,,0,0,2,,,0,,,44,68
311040,note_on,,,,,0,0,2,,,0,,,47,68
311040,note_on,,,,,30,0,1,,,0,,,64,88
311040,note_off,,,,,0,0,2,,,0,,,47,64
311040,note_off,,,,,0,0,2,,,0,,,50,64
311040,note_off,,,,,120,0,2,,,0,,,52,64
311040,note_on,,,,,0,0,2,,,0,,,50,68
311120,set_tempo,,,,,80,1,0,606061,,,,,,
311130,note_off,,,,,90,0,1,,,0,,,64,64
311160,set_tempo,,,,,40,1,0,618557,,,,,,
311160,note_on,,,,,30,0,1,,,0,,,52,94
311160,note_off,,,,,120,0,2,,,0,,,44,64
311160,note_off,,,,,0,0,2,,,0,,,47,64
311160,note_off,,,,,0,0,2,,,0,,,50,64
311160,note_on,,,,,0,0,2,,,0,,,50,70
311160,note_on,,,,,0,0,2,,,0,,,47,70
311160,note_on,,,,,0,0,2,,,0,,,44,70
311200,set_tempo,,,,,40,1,0,625000,,,,,,
311250,note_off,,,,,90,0,1,,,0,,,52,64
311260,set_tempo,,,,,60,1,0,631579,,,,,,
311270,control_change,,,,,20,0,1,,,0,64,0,,
311280,note_off,,,,,0,0,2,,,0,,,47,64
311280,note_on,,,,,0,0,2,,,0,,,50,74
311280,note_off,,,,,0,0,2,,,0,,,50,64
311280,note_off,,,,,120,0,2,,,0,,,44,64
311280,note_on,,,,,10,0,1,,,0,,,66,96
311280,control_change,,,,,0,0,1,,,0,64,95,,
311280,note_on,,,,,0,0,2,,,0,,,47,74
311280,note_on,,,,,0,0,2,,,0,,,42,74
311300,set_tempo,,,,,40,1,0,638298,,,,,,
311340,set_tempo,,,,,40,1,0,645161,,,,,,
311360,set_tempo,,,,,20,1,0,652174,,,,,,
311370,note_off,,,,,90,0,1,,,0,,,66,64
311380,set_tempo,,,,,20,1,0,659341,,,,,,
311400,note_on,,,,,30,0,1,,,0,,,54,104
311400,note_off,,,,,0,0,2,,,0,,,50,64
311400,note_on,,,,,0,0,2,,,0,,,50,76
311400,note_off,,,,,0,0,2,,,0,,,47,64
311400,note_off,,,,,120,0,2,,,0,,,42,64
311400,note_on,,,,,0,0,2,,,0,,,42,76
311400,note_on,,,,,0,0,2,,,0,,,47,76
311420,set_tempo,,,,,40,1,0,674157,,,,,,
311460,set_tempo,,,,,40,1,0,681818,,,,,,
311490,note_off,,,,,90,0,1,,,0,,,54,64
311500,set_tempo,,,,,40,1,0,697674,,,,,,
311510,control_change,,,,,20,0,1,,,0,64,0,,
311520,note_on,,,,,10,0,1,,,0,,,67,113
311520,note_on,,,,,0,0,2,,,0,,,41,77
311520,note_on,,,,,0,0,2,,,0,,,47,77
311520,note_on,,,,,0,0,2,,,0,,,50,77
311520,note_off,,,,,0,0,2,,,0,,,50,64
311520,note_off,,,,,120,0,2,,,0,,,42,64
311520,control_change,,,,,0,0,1,,,0,64,96,,
311520,note_off,,,,,0,0,2,,,0,,,47,64
311540,set_tempo,,,,,40,1,0,705882,,,,,,
311580,set_tempo,,,,,40,1,0,714286,,,,,,
311600,set_tempo,,,,,20,1,0,722892,,,,,,
311610,note_off,,,,,90,0,1,,,0,,,67,64
311640,note_off,,,,,120,0,2,,,0,,,41,64
311640,note_off,,,,,0,0,2,,,0,,,47,64
311640,note_off,,,,,0,0,2,,,0,,,50,64
311640,note_on,,,,,0,0,2,,,0,,,50,79
311640,note_on,,,,,0,0,2,,,0,,,47,79
311640,note_on,,,,,0,0,2,,,0,,,41,79
311640,note_on,,,,,30,0,1,,,0,,,55,119
311720,set_tempo,,,,,120,1,0,731707,,,,,,
311730,note_off,,,,,90,0,1,,,0,,,55,64
311740,set_tempo,,,,,20,1,0,740741,,,,,,
311750,control_change,,,,,20,0,1,,,0,64,0,,
311760,set_tempo,,,,,20,1,0,750000,,,,,,
311760,control_change,,,,,0,0,1,,,0,64,96,,
311760,note_on,,,,,10,0,1,,,0,,,68,122
311760,note_on,,,,,0,0,2,,,0,,,40,81
311760,note_on,,,,,0,0,2,,,0,,,47,81
311760,note_on,,,,,0,0,2,,,0,,,50,81
311760,note_off,,,,,0,0,2,,,0,,,50,64
311760,note_off,,,,,0,0,2,,,0,,,47,64
311760,note_off,,,,,120,0,2,,,0,,,41,64
311850,note_off,,,,,90,0,1,,,0,,,68,64
311880,note_on,,,,,0,0,2,,,0,,,50,84
311880,note_on,,,,,30,0,1,,,0,,,56,126
311880,set_tempo,,,,,120,1,0,759494,,,,,,
311880,note_off,,,,,120,0,2,,,0,,,40,64
311880,note_off,,,,,0,0,2,,,0,,,47,64
311880,note_off,,,,,0,0,2,,,0,,,50,64
311880,note_on,,,,,0,0,2,,,0,,,40,84
311880,note_on,,,,,0,0,2,,,0,,,47,84
311900,set_tempo,,,,,20,1,0,769231,,,,,,
311920,set_tempo,,,,,20,1,0,952381,,,,,,
311970,note_off,,,,,90,0,1,,,0,,,56,64
311990,control_change,,,,,20,0,1,,,0,64,0,,
312000,marker,,,,,80,1,0,,,,,,,
312000,note_off,,,,,0,0,2,,,0,,,47,64
312000,note_on,,,,,0,0,1,,,0,,,61,112
312000,note_on,,,,,0,0,1,,,0,,,69,112
312000,note_on,,,,,10,0,1,,,0,,,57,112
312000,note_off,,,,,120,0,2,,,0,,,50,64
312000,control_change,,,,,0,0,1,,,0,91,96,,
312000,note_on,,,,,0,0,2,,,0,,,49,113
312000,note_on,,,,,0,0,2,,,0,,,45,113
312000,note_off,,,,,0,0,2,,,0,,,40,64
312040,set_tempo,,,,,40,1,0,625000,,,,,,
312180,note_off,,,,,180,0,2,,,0,,,49,64
312180,set_tempo,,,,,140,1,0,521739,,,,,,
312180,note_off,,,,,0,0,2,,,0,,,45,64
312240,note_on,,,,,60,0,2,,,0,,,33,127
312380,set_tempo,,,,,200,1,0,508475,,,,,,
312420,note_off,,,,,180,0,2,,,0,,,33,64
312660,set_tempo,,,,,280,1,0,500000,,,,,,
312840,note_on,,,,,0,0,2,,,0,,,49,103
312840,note_on,,,,,420,0,2,,,0,,,45,103
312860,set_tempo,,,,,200,1,0,491803,,,,,,
312900,note_off,,,,,900,0,1,,,0,,,69,64
312900,note_off,,,,,0,0,1,,,0,,,57,64
312900,note_off,,,,,0,0,1,,,0,,,61,64
312930,note_off,,,,,90,0,2,,,0,,,49,64
312930,note_off,,,,,0,0,2,,,0,,,45,64
312960,note_on,,,,,60,0,1,,,0,,,57,112
312960,note_on,,,,,0,0,1,,,0,,,69,112
312960,note_on,,,,,30,0,2,,,0,,,47,115
312960,note_on,,,,,0,0,2,,,0,,,50,115
312960,note_on,,,,,0,0,1,,,0,,,59,112
312960,note_on,,,,,0,0,1,,,0,,,62,112
313140,note_off,,,,,180,0,2,,,0,,,50,64
313140,note_off,,,,,0,0,2,,,0,,,47,64
313200,set_tempo,,,,,340,1,0,480000,,,,,,
313200,note_on,,,,,60,0,2,,,0,,,33,127
313380,note_off,,,,,180,0,2,,,0,,,33,64
313500,set_tempo,,,,,300,1,0,472441,,,,,,
313800,note_on,,,,,0,0,2,,,0,,,50,100
313800,note_on,,,,,420,0,2,,,0,,,47,100
313840,set_tempo,,,,,340,1,0,461538,,,,,,
313860,note_off,,,,,900,0,1,,,0,,,69,64
313860,note_off,,,,,0,0,1,,,0,,,62,64
313860,note_off,,,,,0,0,1,,,0,,,59,64
313860,note_off,,,,,0,0,1,,,0,,,57,64
313890,note_off,,,,,0,0,2,,,0,,,47,64
313890,note_off,,,,,90,0,2,,,0,,,50,64
313920,note_on,,,,,60,0,1,,,0,,,57,115
313920,note_on,,,,,0,0,1,,,0,,,61,115
313920,note_on,,,,,0,0,1,,,0,,,64,115
313920,note_on,,,,,0,0,1,,,0,,,69,115
313920,note_on,,,,,30,0,2,,,0,,,49,111
313920,note_on,,,,,0,0,2,,,0,,,52,111
314100,note_off,,,,,180,0,2,,,0,,,52,64
314100,note_off,,,,,0,0,2,,,0,,,49,64
314140,set_tempo,,,,,300,1,0,454545,,,,,,
314160,note_on,,,,,60,0,2,,,0,,,33,127
314340,note_off,,,,,180,0,2,,,0,,,33,64
314340,note_off,,,,,0,0,1,,,0,,,61,64
314340,note_off,,,,,0,0,1,,,0,,,64,64
314340,note_off,,,,,420,0,1,,,0,,,69,64
314340,note_off,,,,,0,0,1,,,0,,,57,64
314400,note_on,,,,,0,0,1,,,0,,,69,97
314400,note_on,,,,,0,0,1,,,0,,,66,97
314400,note_on,,,,,60,0,1,,,0,,,57,97
314400,note_on,,,,,60,0,2,,,0,,,54,94
314400,note_on,,,,,0,0,2,,,0,,,50,94
314400,note_on,,,,,0,0,1,,,0,,,62,97
314460,set_tempo,,,,,320,1,0,447761,,,,,,
314490,note_off,,,,,90,0,2,,,0,,,50,64
314490,note_off,,,,,0,0,2,,,0,,,54,64
314520,note_on,,,,,30,0,2,,,0,,,45,121
314610,note_off,,,,,90,0,2,,,0,,,45,64
314640,note_on,,,,,0,0,2,,,0,,,55,103
314640,note_on,,,,,30,0,2,,,0,,,52,103
314640,note_on,,,,,0,0,1,,,0,,,57,111
314640,note_on,,,,,0,0,1,,,0,,,64,111
314640,note_on,,,,,0,0,1,,,0,,,67,111
314640,note_on,,,,,0,0,1,,,0,,,69,111
314640,note_off,,,,,0,0,1,,,0,,,57,64
314640,note_off,,,,,0,0,1,,,0,,,62,64
314640,note_off,,,,,0,0,1,,,0,,,66,64
314640,note_off,,,,,240,0,1,,,0,,,69,64
314730,note_off,,,,,0,0,2,,,0,,,52,64
314730,note_off,,,,,90,0,2,,,0,,,55,64
314760,set_tempo,,,,,300,1,0,437956,,,,,,
314760,note_on,,,,,30,0,2,,,0,,,45,122
314850,note_off,,,,,90,0,2,,,0,,,45,64
314880,note_off,,,,,0,0,1,,,0,,,67,64
314880,note_off,,,,,240,0,1,,,0,,,57,64
314880,set_tempo,,,,,120,1,0,447761,,,,,,
314880,note_on,,,,,0,0,1,,,0,,,57,120
314880,note_off,,,,,0,0,1,,,0,,,64,64
314880,note_off,,,,,0,0,1,,,0,,,69,64
314880,note_on,,,,,0,0,1,,,0,,,66,120
314880,note_on,,,,,0,0,2,,,0,,,54,115
314880,note_on,,,,,30,0,2,,,0,,,50,115
314880,note_on,,,,,0,0,1,,,0,,,62,120
314880,note_on,,,,,0,0,1,,,0,,,69,120
315000,note_off,,,,,0,0,2,,,0,,,50,64
315000,note_off,,,,,120,0,2,,,0,,,54,64
315120,note_off,,,,,240,0,1,,,0,,,69,64
315120,set_tempo,,,,,240,1,0,458015,,,,,,
315120,note_on,,,,,0,0,2,,,0,,,52,96
315120,note_on,,,,,120,0,2,,,0,,,49,96
315120,note_on,,,,,0,0,1,,,0,,,64,91
315120,note_on,,,,,0,0,1,,,0,,,61,91
315120,note_off,,,,,0,0,1,,,0,,,66,64
315120,note_off,,,,,0,0,1,,,0,,,62,64
315120,note_off,,,,,0,0,1,,,0,,,57,64
315120,note_on,,,,,0,0,1,,,0,,,57,91
315120,note_on,,,,,0,0,1,,,0,,,69,91
315240,note_off,,,,,0,0,2,,,0,,,49,64
315240,note_off,,,,,120,0,2,,,0,,,52,64
315360,set_tempo,,,,,240,1,0,480000,,,,,,
315360,note_on,,,,,0,0,2,,,0,,,49,88
315360,note_on,,,,,120,0,2,,,0,,,45,88
315360,note_off,,,,,0,0,1,,,0,,,57,64
315360,note_on,,,,,0,0,1,,,0,,,57,85
315360,note_off,,,,,0,0,1,,,0,,,64,64
315360,note_off,,,,,0,0,1,,,0,,,61,64
315360,note_on,,,,,0,0,1,,,0,,,69,85
315360,note_on,,,,,0,0,1,,,0,,,61,85
315360,note_off,,,,,240,0,1,,,0,,,69,64
315464,note_off,,,,,0,0,1,,,0,,,57,64
315464,note_off,,,,,0,0,1,,,0,,,61,64
315464,note_off,,,,,104,0,1,,,0,,,69,64
315464,note_off,,,,,104,0,2,,,0,,,49,64
315464,note_off,,,,,0,0,2,,,0,,,45,64
315480,note_on,,,,,0,0,2,,,0,,,47,93
315480,note_on,,,,,0,0,1,,,0,,,69,94
315480,note_on,,,,,16,0,1,,,0,,,59,94
315480,note_on,,,,,0,0,1,,,0,,,62,94
315480,note_on,,,,,16,0,2,,,0,,,50,93
315584,note_off,,,,,104,0,2,,,0,,,47,64
315584,note_off,,,,,0,0,2,,,0,,,50,64
315584,note_off,,,,,104,0,1,,,0,,,69,64
315584,note_off,,,,,0,0,1,,,0,,,62,64
315584,note_off,,,,,0,0,1,,,0,,,59,64
315600,note_on,,,,,0,0,2,,,0,,,45,102
315600,note_on,,,,,16,0,2,,,0,,,49,102
315600,note_on,,,,,16,0,1,,,0,,,57,101
315600,note_on,,,,,0,0,1,,,0,,,69,101
315600,note_on,,,,,0,0,1,,,0,,,61,101
315600,set_tempo,,,,,240,1,0,500000,,,,,,
315704,note_off,,,,,0,0,1,,,0,,,57,64
315704,note_off,,,,,0,0,1,,,0,,,61,64
315704,note_off,,,,,104,0,1,,,0,,,69,64
315704,note_off,,,,,0,0,2,,,0,,,49,64
315704,note_off,,,,,104,0,2,,,0,,,45,64
315720,note_on,,,,,16,0,2,,,0,,,50,108
315720,note_on,,,,,16,0,1,,,0,,,59,110
315720,note_on,,,,,0,0,2,,,0,,,47,108
315720,note_on,,,,,0,0,1,,,0,,,62,110
315720,note_on,,,,,0,0,1,,,0,,,69,110
315780,set_tempo,,,,,180,1,0,550459,,,,,,
315824,note_off,,,,,104,0,1,,,0,,,69,64
315824,note_off,,,,,0,0,1,,,0,,,62,64
315824,note_off,,,,,104,0,2,,,0,,,47,64
315824,note_off,,,,,0,0,2,,,0,,,50,64
315824,note_off,,,,,0,0,1,,,0,,,59,64
315840,note_on,,,,,16,0,1,,,0,,,61,121
315840,note_on,,,,,0,0,1,,,0,,,64,121
315840,note_on,,,,,0,0,1,,,0,,,69,121
315840,note_on,,,,,0,0,2,,,0,,,49,120
315840,note_on,,,,,16,0,2,,,0,,,52,120
315860,set_tempo,,,,,80,1,0,487805,,,,,,
316320,note_on,,,,,0,0,1,,,0,,,57,121
316320,note_on,,,,,0,0,1,,,0,,,62,121
316320,note_off,,,,,0,0,2,,,0,,,52,64
316320,note_on,,,,,0,0,2,,,0,,,50,127
316320,note_on,,,,,0,0,2,,,0,,,54,127
316320,note_on,,,,,0,0,1,,,0,,,66,121
316320,note_on,,,,,0,0,1,,,0,,,69,121
316320,note_off,,,,,0,0,1,,,0,,,61,64
316320,note_off,,,,,480,0,2,,,0,,,49,64
316320,note_off,,,,,0,0,1,,,0,,,64,64
316320,note_off,,,,,480,0,1,,,0,,,69,64
316720,set_tempo,,,,,860,1,0,1224490,,,,,,
316800,note_off,,,,,480,0,2,,,0,,,54,64
316800,note_on,,,,,0,0,1,,,0,,,57,112
316800,note_on,,,,,0,0,1,,,0,,,69,112
316800,note_off,,,,,0,0,1,,,0,,,69,64
316800,note_on,,,,,0,0,2,,,0,,,52,118
316800,note_off,,,,,0,0,1,,,0,,,66,64
316800,note_off,,,,,0,0,1,,,0,,,62,64
316800,note_off,,,,,480,0,1,,,0,,,57,64
316800,note_on,,,,,0,0,2,,,0,,,50,118
316800,note_on,,,,,0,0,2,,,0,,,47,118
316800,note_on,,,,,0,0,2,,,0,,,40,118
316800,note_on,,,,,0,0,2,,,0,,,62,118
316800,note_on,,,,,0,0,2,,,0,,,64,118
316800,note_off,,,,,0,0,2,,,0,,,50,64
316820,set_tempo,,,,,100,1,0,491803,,,,,,
317020,set_tempo,,,,,200,1,0,594059,,,,,,
317040,note_off,,,,,240,0,1,,,0,,,57,64
317040,note_off,,,,,0,0,1,,,0,,,69,64
317040,note_on,,,,,0,0,1,,,0,,,68,85
317040,note_on,,,,,0,0,1,,,0,,,56,85
317140,set_tempo,,,,,120,1,0,714286,,,,,,
317160,note_on,,,,,0,0,1,,,0,,,66,78
317160,note_off,,,,,120,0,1,,,0,,,68,64
317160,note_off,,,,,0,0,1,,,0,,,56,64
317160,note_on,,,,,0,0,1,,,0,,,54,78
317280,note_off,,,,,120,0,1,,,0,,,66,64
317280,note_off,,,,,0,0,1,,,0,,,54,64
317280,note_on,,,,,0,0,1,,,0,,,56,59
317280,note_on,,,,,0,0,1,,,0,,,68,59
317320,set_tempo,,,,,180,1,0,895522,,,,,,
317700,note_off,,,,,0,0,2,,,0,,,47,64
317700,note_off,,,,,0,0,2,,,0,,,62,64
317700,note_off,,,,,0,0,2,,,0,,,64,64
317700,set_tempo,,,,,380,1,0,1463415,,,,,,
317700,note_off,,,,,0,0,2,,,0,,,50,64
317700,note_off,,,,,0,0,2,,,0,,,40,64
317700,note_off,,,,,420,0,1,,,0,,,68,64
317700,note_off,,,,,900,0,2,,,0,,,52,64
317700,note_off,,,,,0,0,1,,,0,,,56,64
317760,note_on,,,,,60,0,1,,,0,,,86,69
317760,set_tempo,,,,,60,1,0,750000,,,,,,
317780,set_tempo,,,,,20,1,0,625000,,,,,,
317800,set_tempo,,,,,20,1,0,517241,,,,,,
317832,note_off,,,,,72,0,1,,,0,,,86,64
317840,note_on,,,,,8,0,1,,,0,,,83,48
317880,set_tempo,,,,,80,1,0,483871,,,,,,
317912,note_off,,,,,72,0,1,,,0,,,83,64
317920,note_on,,,,,8,0,1,,,0,,,80,45
317980,set_tempo,,,,,100,1,0,472441,,,,,,
317992,note_off,,,,,72,0,1,,,0,,,80,64
318000,note_on,,,,,8,0,1,,,0,,,74,46
318072,note_off,,,,,72,0,1,,,0,,,74,64
318080,note_on,,,,,8,0,1,,,0,,,71,49
318152,note_off,,,,,72,0,1,,,0,,,71,64
318160,note_on,,,,,8,0,1,,,0,,,68,51
318180,set_tempo,,,,,200,1,0,465116,,,,,,
318232,note_off,,,,,72,0,1,,,0,,,68,64
318240,note_on,,,,,8,0,1,,,0,,,62,53
318312,note_off,,,,,72,0,1,,,0,,,62,64
318320,note_on,,,,,8,0,1,,,0,,,59,55
318392,note_off,,,,,72,0,1,,,0,,,59,64
318400,note_on,,,,,8,0,1,,,0,,,56,57
318472,note_off,,,,,72,0,1,,,0,,,56,64
318480,note_on,,,,,8,0,1,,,0,,,50,58
318560,note_off,,,,,80,0,1,,,0,,,50,64
318560,note_on,,,,,0,0,1,,,0,,,47,61
318560,set_tempo,,,,,380,1,0,461538,,,,,,
318640,note_off,,,,,80,0,1,,,0,,,47,64
318640,note_on,,,,,0,0,1,,,0,,,44,62
318720,set_tempo,,,,,160,1,0,447761,,,,,,
318720,note_off,,,,,80,0,1,,,0,,,44,64
318720,note_on,,,,,1020,0,2,,,0,,,40,67
318840,note_off,,,,,120,0,2,,,0,,,40,64
318960,note_on,,,,,0,0,1,,,0,,,74,63
318960,note_on,,,,,240,0,1,,,0,,,62,63
318960,note_on,,,,,0,0,1,,,0,,,68,63
318960,note_on,,,,,0,0,2,,,0,,,56,61
318960,note_on,,,,,120,0,2,,,0,,,52,61
319000,set_tempo,,,,,280,1,0,576923,,,,,,
319080,note_off,,,,,120,0,2,,,0,,,56,64
319080,note_off,,,,,0,0,2,,,0,,,52,64
319080,note_off,,,,,120,0,1,,,0,,,74,64
319080,note_off,,,,,0,0,1,,,0,,,68,64
319080,note_off,,,,,0,0,1,,,0,,,62,64
319200,note_on,,,,,120,0,1,,,0,,,62,74
319200,note_on,,,,,0,0,1,,,0,,,69,74
319200,note_on,,,,,0,0,1,,,0,,,74,74
319200,note_on,,,,,0,0,2,,,0,,,57,74
319200,note_on,,,,,120,0,2,,,0,,,53,74
319200,set_tempo,,,,,200,1,0,461538,,,,,,
319620,note_off,,,,,0,0,1,,,0,,,69,64
319620,note_off,,,,,0,0,1,,,0,,,62,64
319620,note_off,,,,,420,0,2,,,0,,,57,64
319620,note_off,,,,,420,0,1,,,0,,,74,64
319620,note_off,,,,,0,0,2,,,0,,,53,64
319680,note_on,,,,,60,0,1,,,0,,,86,70
319680,set_tempo,,,,,480,1,0,517241,,,,,,
319740,set_tempo,,,,,60,1,0,512821,,,,,,
319752,note_off,,,,,72,0,1,,,0,,,86,64
319760,note_on,,,,,8,0,1,,,0,,,81,58
319800,set_tempo,,,,,60,1,0,483871,,,,,,
319832,note_off,,,,,72,0,1,,,0,,,81,64
319840,note_on,,,,,8,0,1,,,0,,,77,52
319900,set_tempo,,,,,100,1,0,472441,,,,,,
319912,note_off,,,,,72,0,1,,,0,,,77,64
319920,note_on,,,,,8,0,1,,,0,,,74,52
319992,note_off,,,,,72,0,1,,,0,,,74,64
320000,note_on,,,,,8,0,1,,,0,,,69,53
320072,note_off,,,,,72,0,1,,,0,,,69,64
320080,note_on,,,,,8,0,1,,,0,,,65,55
320100,set_tempo,,,,,200,1,0,465116,,,,,,
320152,note_off,,,,,72,0,1,,,0,,,65,64
320160,note_on,,,,,8,0,1,,,0,,,62,58
320232,note_off,,,,,72,0,1,,,0,,,62,64
320240,note_on,,,,,8,0,1,,,0,,,57,61
320312,note_off,,,,,72,0,1,,,0,,,57,64
320320,note_on,,,,,8,0,1,,,0,,,53,63
320392,note_off,,,,,72,0,1,,,0,,,53,64
320400,note_on,,,,,8,0,1,,,0,,,50,65
320480,note_off,,,,,80,0,1,,,0,,,50,64
320480,note_on,,,,,0,0,1,,,0,,,45,68
320480,set_tempo,,,,,380,1,0,461538,,,,,,
320560,note_off,,,,,80,0,1,,,0,,,45,64
320560,note_on,,,,,0,0,1,,,0,,,40,70
320640,set_tempo,,,,,160,1,0,447761,,,,,,
320640,note_off,,,,,80,0,1,,,0,,,40,64
320640,note_on,,,,,1020,0,2,,,0,,,41,72
320760,note_off,,,,,120,0,2,,,0,,,41,64
320880,note_on,,,,,0,0,1,,,0,,,62,76
320880,note_on,,,,,120,0,2,,,0,,,53,79
320880,note_on,,,,,0,0,1,,,0,,,74,76
320880,note_on,,,,,0,0,2,,,0,,,57,79
320880,note_on,,,,,240,0,1,,,0,,,69,76
320960,set_tempo,,,,,320,1,0,659341,,,,,,
321000,note_off,,,,,0,0,1,,,0,,,69,64
321000,note_off,,,,,0,0,1,,,0,,,62,64
321000,note_off,,,,,120,0,1,,,0,,,74,64
321000,note_off,,,,,0,0,2,,,0,,,53,64
321000,note_off,,,,,120,0,2,,,0,,,57,64
321120,note_on,,,,,120,0,2,,,0,,,54,82
321120,note_on,,,,,0,0,2,,,0,,,57,82
321120,set_tempo,,,,,160,1,0,461538,,,,,,
321120,note_on,,,,,120,0,1,,,0,,,72,82
321120,note_on,,,,,0,0,1,,,0,,,62,82
321120,note_on,,,,,0,0,1,,,0,,,74,82
321540,note_off,,,,,0,0,1,,,0,,,62,64
321540,note_off,,,,,420,0,2,,,0,,,57,64
321540,set_tempo,,,,,420,1,0,458015,,,,,,
321540,note_off,,,,,420,0,1,,,0,,,74,64
321540,note_off,,,,,0,0,1,,,0,,,72,64
321540,note_off,,,,,0,0,2,,,0,,,54,64
321600,note_on,,,,,60,0,1,,,0,,,86,81
321680,note_on,,,,,0,0,1,,,0,,,83,70
321680,note_off,,,,,80,0,1,,,0,,,86,64
321760,note_on,,,,,0,0,1,,,0,,,79,76
321760,note_off,,,,,80,0,1,,,0,,,83,64
321840,note_on,,,,,300,0,2,,,0,,,43,80
321840,note_on,,,,,0,0,1,,,0,,,74,82
321840,note_off,,,,,80,0,1,,,0,,,79,64
321920,note_off,,,,,80,0,1,,,0,,,74,64
321920,note_on,,,,,0,0,1,,,0,,,71,85
322000,note_off,,,,,80,0,1,,,0,,,71,64
322000,note_on,,,,,0,0,1,,,0,,,67,91
322060,set_tempo,,,,,520,1,0,451128,,,,,,
322080,note_on,,,,,0,0,2,,,0,,,44,87
322080,note_on,,,,,0,0,2,,,0,,,50,87
322080,note_on,,,,,0,0,2,,,0,,,53,87
322080,note_off,,,,,240,0,2,,,0,,,43,64
322080,note_on,,,,,0,0,2,,,0,,,62,87
322080,note_on,,,,,0,0,1,,,0,,,62,95
322080,note_off,,,,,80,0,1,,,0,,,67,64
322320,note_on,,,,,0,0,1,,,0,,,74,80
322320,note_off,,,,,240,0,1,,,0,,,62,64
322500,note_off,,,,,420,0,2,,,0,,,44,64
322500,note_off,,,,,0,0,2,,,0,,,50,64
322500,note_off,,,,,0,0,2,,,0,,,53,64
322500,note_off,,,,,0,0,2,,,0,,,62,64
322500,set_tempo,,,,,440,1,0,545455,,,,,,
322500,note_off,,,,,180,0,1,,,0,,,74,64
322560,note_on,,,,,60,0,1,,,0,,,86,100
322560,set_tempo,,,,,60,1,0,451128,,,,,,
322640,note_off,,,,,80,0,1,,,0,,,86,64
322640,note_on,,,,,0,0,1,,,0,,,81,81
322720,note_off,,,,,80,0,1,,,0,,,81,64
322720,note_on,,,,,0,0,1,,,0,,,77,86
322800,set_tempo,,,,,240,1,0,447761,,,,,,
322800,note_off,,,,,80,0,1,,,0,,,77,64
322800,note_on,,,,,0,0,1,,,0,,,74,92
322800,note_on,,,,,0,0,2,,,0,,,53,99
322800,note_on,,,,,0,0,2,,,0,,,50,99
322800,note_on,,,,,300,0,2,,,0,,,45,99
322880,note_off,,,,,80,0,1,,,0,,,74,64
322880,note_on,,,,,0,0,1,,,0,,,69,98
322960,note_off,,,,,80,0,1,,,0,,,69,64
322960,note_on,,,,,0,0,1,,,0,,,65,103
323010,note_off,,,,,0,0,2,,,0,,,45,64
323010,note_off,,,,,210,0,2,,,0,,,53,64
323010,note_off,,,,,0,0,2,,,0,,,50,64
323020,set_tempo,,,,,220,1,0,441176,,,,,,
323040,note_on,,,,,0,0,2,,,0,,,46,104
323040,note_off,,,,,80,0,1,,,0,,,65,64
323040,note_on,,,,,30,0,2,,,0,,,53,104
323040,note_on,,,,,0,0,2,,,0,,,50,104
323040,note_on,,,,,0,0,1,,,0,,,62,110
323120,note_off,,,,,80,0,1,,,0,,,62,64
323120,note_on,,,,,0,0,1,,,0,,,74,104
323200,note_off,,,,,80,0,1,,,0,,,74,64
323200,note_on,,,,,0,0,1,,,0,,,73,99
323250,note_off,,,,,0,0,2,,,0,,,53,64
323250,note_off,,,,,0,0,2,,,0,,,50,64
323250,note_off,,,,,210,0,2,,,0,,,46,64
323280,note_off,,,,,80,0,1,,,0,,,73,64
323280,note_on,,,,,0,0,2,,,0,,,47,111
323280,set_tempo,,,,,260,1,0,437956,,,,,,
323280,note_on,,,,,30,0,2,,,0,,,53,111
323280,note_on,,,,,0,0,2,,,0,,,50,111
323280,note_on,,,,,0,0,1,,,0,,,74,102
323360,note_off,,,,,80,0,1,,,0,,,74,64
323360,note_on,,,,,0,0,1,,,0,,,86,113
323440,note_off,,,,,80,0,1,,,0,,,86,64
323440,note_on,,,,,0,0,1,,,0,,,85,122
323490,note_off,,,,,210,0,2,,,0,,,47,64
323490,note_off,,,,,0,0,2,,,0,,,50,64
323490,note_off,,,,,0,0,2,,,0,,,53,64
323494,note_off,,,,,54,0,1,,,0,,,85,64
323500,set_tempo,,,,,220,1,0,431655,,,,,,
323520,note_on,,,,,26,0,1,,,0,,,86,126
323520,note_on,,,,,0,0,2,,,0,,,50,118
323520,note_on,,,,,0,0,2,,,0,,,47,118
323520,note_on,,,,,30,0,2,,,0,,,56,118
323520,note_on,,,,,0,0,2,,,0,,,52,118
323600,note_on,,,,,0,0,1,,,0,,,85,118
323600,note_off,,,,,80,0,1,,,0,,,86,64
323680,note_on,,,,,0,0,1,,,0,,,88,106
323680,note_off,,,,,80,0,1,,,0,,,85,64
323760,note_on,,,,,0,0,1,,,0,,,86,96
323760,note_off,,,,,80,0,1,,,0,,,88,64
323840,note_on,,,,,0,0,1,,,0,,,85,88
323840,note_off,,,,,80,0,1,,,0,,,86,64
323920,note_on,,,,,0,0,1,,,0,,,83,84
323920,note_off,,,,,80,0,1,,,0,,,85,64
324000,note_on,,,,,0,0,1,,,0,,,81,80
324000,set_tempo,,,,,500,1,0,434783,,,,,,
324000,note_off,,,,,80,0,1,,,0,,,83,64
324080,note_on,,,,,0,0,1,,,0,,,80,78
324080,note_off,,,,,80,0,1,,,0,,,81,64
324160,note_on,,,,,0,0,1,,,0,,,83,75
324160,note_off,,,,,80,0,1,,,0,,,80,64
324240,note_on,,,,,0,0,1,,,0,,,81,75
324240,note_off,,,,,80,0,1,,,0,,,83,64
324260,set_tempo,,,,,260,1,0,437956,,,,,,
324320,note_on,,,,,0,0,1,,,0,,,80,73
324320,note_off,,,,,80,0,1,,,0,,,81,64
324400,note_on,,,,,0,0,1,,,0,,,78,70
324400,note_off,,,,,80,0,1,,,0,,,80,64
324480,note_off,,,,,80,0,1,,,0,,,78,64
324480,note_on,,,,,0,0,1,,,0,,,76,67
324480,set_tempo,,,,,220,1,0,447761,,,,,,
324560,note_off,,,,,80,0,1,,,0,,,76,64
324560,note_on,,,,,0,0,1,,,0,,,75,67
324640,note_off,,,,,80,0,1,,,0,,,75,64
324640,note_on,,,,,0,0,1,,,0,,,78,67
324720,note_off,,,,,0,0,2,,,0,,,52,64
324720,note_off,,,,,1200,0,2,,,0,,,47,64
324720,note_on,,,,,0,0,1,,,0,,,76,67
324720,note_off,,,,,80,0,1,,,0,,,78,64
324720,note_off,,,,,0,0,2,,,0,,,50,64
324720,note_off,,,,,0,0,2,,,0,,,56,64
324800,note_off,,,,,80,0,1,,,0,,,76,64
324800,note_on,,,,,0,0,1,,,0,,,74,67
324880,note_off,,,,,80,0,1,,,0,,,74,64
324880,note_on,,,,,0,0,1,,,0,,,73,67
324960,note_off,,,,,80,0,1,,,0,,,73,64
324960,note_on,,,,,0,0,1,,,0,,,59,70
324960,note_on,,,,,0,0,1,,,0,,,71,70
325040,note_off,,,,,80,0,1,,,0,,,71,64
325040,note_on,,,,,0,0,1,,,0,,,70,73
325040,note_off,,,,,0,0,1,,,0,,,59,64
325040,note_on,,,,,0,0,1,,,0,,,58,73
325120,note_off,,,,,80,0,1,,,0,,,70,64
325120,note_off,,,,,0,0,1,,,0,,,58,64
325120,note_on,,,,,0,0,1,,,0,,,62,79
325120,note_on,,,,,0,0,1,,,0,,,74,79
325200,note_off,,,,,80,0,1,,,0,,,74,64
325200,note_off,,,,,0,0,1,,,0,,,62,64
325200,note_on,,,,,0,0,1,,,0,,,61,81
325200,note_on,,,,,0,0,1,,,0,,,73,81
325280,note_off,,,,,80,0,1,,,0,,,73,64
325280,note_on,,,,,0,0,1,,,0,,,59,85
325280,note_on,,,,,0,0,1,,,0,,,71,85
325280,note_off,,,,,0,0,1,,,0,,,61,64
325340,set_tempo,,,,,860,1,0,441176,,,,,,
325360,note_off,,,,,80,0,1,,,0,,,71,64
325360,note_off,,,,,0,0,1,,,0,,,59,64
325360,note_on,,,,,0,0,1,,,0,,,69,89
325360,note_on,,,,,0,0,1,,,0,,,57,89
325440,note_off,,,,,80,0,1,,,0,,,57,64
325440,note_off,,,,,0,0,1,,,0,,,69,64
325440,note_on,,,,,0,0,1,,,0,,,56,89
325440,note_on,,,,,0,0,1,,,0,,,68,89
325520,note_off,,,,,80,0,1,,,0,,,68,64
325520,note_off,,,,,0,0,1,,,0,,,56,64
325520,note_on,,,,,0,0,1,,,0,,,57,92
325520,note_on,,,,,0,0,1,,,0,,,69,92
325600,note_off,,,,,80,0,1,,,0,,,69,64
325600,note_off,,,,,0,0,1,,,0,,,57,64
325600,note_on,,,,,0,0,1,,,0,,,59,94
325600,note_on,,,,,0,0,1,,,0,,,71,94
325620,set_tempo,,,,,280,1,0,437956,,,,,,
325680,note_on,,,,,0,0,1,,,0,,,69,97
325680,note_off,,,,,0,0,1,,,0,,,59,64
325680,note_off,,,,,80,0,1,,,0,,,71,64
325680,note_on,,,,,0,0,1,,,0,,,57,97
325760,note_off,,,,,80,0,1,,,0,,,69,64
325760,note_off,,,,,0,0,1,,,0,,,57,64
325760,note_on,,,,,0,0,1,,,0,,,56,100
325760,note_on,,,,,0,0,1,,,0,,,68,100
325840,note_on,,,,,0,0,1,,,0,,,66,103
325840,note_off,,,,,0,0,1,,,0,,,56,64
325840,note_off,,,,,80,0,1,,,0,,,68,64
325840,note_on,,,,,0,0,1,,,0,,,54,103
325860,set_tempo,,,,,240,1,0,434783,,,,,,
325920,note_off,,,,,80,0,1,,,0,,,66,64
325920,note_off,,,,,0,0,1,,,0,,,54,64
325920,note_on,,,,,0,0,1,,,0,,,52,106
325920,note_on,,,,,0,0,1,,,0,,,64,106
326000,note_off,,,,,80,0,1,,,0,,,64,64
326000,note_off,,,,,0,0,1,,,0,,,52,64
326000,note_on,,,,,0,0,1,,,0,,,54,109
326000,note_on,,,,,0,0,1,,,0,,,66,109
326060,set_tempo,,,,,200,1,0,431655,,,,,,
326080,note_off,,,,,80,0,1,,,0,,,66,64
326080,note_off,,,,,0,0,1,,,0,,,54,64
326080,note_on,,,,,0,0,1,,,0,,,52,111
326080,note_on,,,,,0,0,1,,,0,,,64,111
326160,note_off,,,,,0,0,1,,,0,,,52,64
326160,note_on,,,,,0,0,1,,,0,,,50,113
326160,note_off,,,,,80,0,1,,,0,,,64,64
326160,note_on,,,,,0,0,1,,,0,,,62,113
326240,note_off,,,,,80,0,1,,,0,,,62,64
326240,note_off,,,,,0,0,1,,,0,,,50,64
326240,note_on,,,,,0,0,1,,,0,,,49,116
326240,note_on,,,,,0,0,1,,,0,,,61,116
326300,set_tempo,,,,,240,1,0,425532,,,,,,
326320,note_on,,,,,0,0,1,,,0,,,59,117
326320,note_off,,,,,0,0,1,,,0,,,49,64
326320,note_off,,,,,80,0,1,,,0,,,61,64
326320,note_on,,,,,0,0,1,,,0,,,47,117
326400,note_off,,,,,80,0,1,,,0,,,47,64
326400,note_off,,,,,0,0,1,,,0,,,59,64
326400,note_on,,,,,0,0,1,,,0,,,57,121
326400,set_tempo,,,,,100,1,0,491803,,,,,,
326400,note_on,,,,,0,0,2,,,0,,,49,80
326400,note_on,,,,,1680,0,2,,,0,,,45,80
326480,set_tempo,,,,,80,1,0,461538,,,,,,
326520,note_off,,,,,120,0,1,,,0,,,57,64
326640,note_on,,,,,120,0,1,,,0,,,69,66
326760,note_off,,,,,120,0,1,,,0,,,69,64
326760,set_tempo,,,,,280,1,0,526316,,,,,,
326880,note_on,,,,,120,0,1,,,0,,,76,68
326880,note_on,,,,,0,0,1,,,0,,,64,68
326880,set_tempo,,,,,120,1,0,465116,,,,,,
327120,note_on,,,,,0,0,2,,,0,,,57,52
327120,note_on,,,,,0,0,2,,,0,,,49,52
327120,note_off,,,,,720,0,2,,,0,,,49,64
327120,note_off,,,,,0,0,2,,,0,,,45,64
327120,note_on,,,,,0,0,2,,,0,,,45,52
327240,note_off,,,,,120,0,2,,,0,,,57,64
327240,note_off,,,,,0,0,2,,,0,,,49,64
327240,note_off,,,,,0,0,2,,,0,,,45,64
327360,note_on,,,,,0,0,2,,,0,,,57,70
327360,note_on,,,,,120,0,2,,,0,,,47,70
327360,note_on,,,,,0,0,2,,,0,,,50,70
327600,note_on,,,,,0,0,1,,,0,,,78,58
327600,note_on,,,,,0,0,1,,,0,,,66,58
327600,note_off,,,,,720,0,1,,,0,,,64,64
327600,note_off,,,,,0,0,1,,,0,,,76,64
327700,set_tempo,,,,,820,1,0,521739,,,,,,
327720,note_off,,,,,0,0,1,,,0,,,66,64
327720,note_off,,,,,120,0,1,,,0,,,78,64
327840,set_tempo,,,,,140,1,0,461538,,,,,,
327840,note_on,,,,,0,0,1,,,0,,,62,68
327840,note_on,,,,,120,0,1,,,0,,,74,68
328080,note_off,,,,,720,0,2,,,0,,,57,64
328080,note_off,,,,,0,0,2,,,0,,,50,64
328080,note_off,,,,,0,0,2,,,0,,,47,64
328080,note_on,,,,,0,0,2,,,0,,,50,53
328080,note_on,,,,,0,0,2,,,0,,,57,53
328080,note_on,,,,,0,0,2,,,0,,,47,53
328200,note_off,,,,,120,0,2,,,0,,,47,64
328200,note_off,,,,,0,0,2,,,0,,,57,64
328200,note_off,,,,,0,0,2,,,0,,,50,64
328320,note_on,,,,,120,0,2,,,0,,,49,71
328320,note_on,,,,,0,0,2,,,0,,,52,71
328320,note_on,,,,,0,0,2,,,0,,,57,71
328440,note_off,,,,,0,0,1,,,0,,,74,64
328440,note_on,,,,,0,0,1,,,0,,,64,66
328440,note_off,,,,,600,0,1,,,0,,,62,64
328440,note_on,,,,,0,0,1,,,0,,,76,66
328530,note_off,,,,,90,0,1,,,0,,,76,64
328530,note_off,,,,,0,0,1,,,0,,,64,64
328560,note_on,,,,,30,0,1,,,0,,,73,69
328560,note_on,,,,,0,0,1,,,0,,,61,69
328770,note_off,,,,,0,0,2,,,0,,,49,64
328770,note_off,,,,,0,0,2,,,0,,,52,64
328770,note_off,,,,,450,0,2,,,0,,,57,64
328770,note_off,,,,,0,0,1,,,0,,,73,64
328770,note_off,,,,,210,0,1,,,0,,,61,64
328800,note_on,,,,,0,0,2,,,0,,,57,51
328800,note_on,,,,,0,0,2,,,0,,,54,51
328800,note_on,,,,,30,0,2,,,0,,,50,51
328800,note_on,,,,,30,0,1,,,0,,,71,74
328800,set_tempo,,,,,960,1,0,454545,,,,,,
328878,note_off,,,,,78,0,1,,,0,,,71,64
328880,note_on,,,,,2,0,1,,,0,,,59,64
328900,set_tempo,,,,,100,1,0,447761,,,,,,
328958,note_off,,,,,78,0,1,,,0,,,59,64
328960,note_on,,,,,2,0,1,,,0,,,71,70
328980,set_tempo,,,,,80,1,0,441176,,,,,,
329038,note_off,,,,,78,0,1,,,0,,,71,64
329040,note_off,,,,,240,0,2,,,0,,,57,64
329040,note_on,,,,,0,0,2,,,0,,,52,63
329040,note_on,,,,,0,0,2,,,0,,,55,63
329040,note_on,,,,,0,0,2,,,0,,,57,63
329040,note_off,,,,,0,0,2,,,0,,,50,64
329040,note_off,,,,,0,0,2,,,0,,,54,64
329040,note_on,,,,,2,0,1,,,0,,,70,83
329118,note_off,,,,,78,0,1,,,0,,,70,64
329120,set_tempo,,,,,140,1,0,447761,,,,,,
329120,note_on,,,,,2,0,1,,,0,,,58,79
329198,note_off,,,,,78,0,1,,,0,,,58,64
329200,note_on,,,,,2,0,1,,,0,,,70,82
329220,set_tempo,,,,,100,1,0,454545,,,,,,
329260,set_tempo,,,,,40,1,0,458015,,,,,,
329278,note_off,,,,,78,0,1,,,0,,,70,64
329280,note_off,,,,,0,0,2,,,0,,,55,64
329280,note_on,,,,,2,0,1,,,0,,,59,85
329280,note_off,,,,,240,0,2,,,0,,,52,64
329280,note_on,,,,,0,0,1,,,0,,,71,85
329280,note_off,,,,,0,0,2,,,0,,,57,64
329280,note_on,,,,,0,0,2,,,0,,,50,74
329280,note_on,,,,,0,0,2,,,0,,,54,74
329280,note_on,,,,,0,0,2,,,0,,,57,74
329300,set_tempo,,,,,40,1,0,451128,,,,,,
329500,set_tempo,,,,,200,1,0,461538,,,,,,
329520,note_off,,,,,0,0,2,,,0,,,50,64
329520,note_on,,,,,0,0,2,,,0,,,49,60
329520,note_on,,,,,0,0,2,,,0,,,52,60
329520,note_on,,,,,0,0,2,,,0,,,57,60
329520,note_off,,,,,0,0,2,,,0,,,54,64
329520,note_off,,,,,240,0,1,,,0,,,71,64
329520,note_on,,,,,0,0,1,,,0,,,73,81
329520,note_on,,,,,0,0,1,,,0,,,61,81
329520,note_off,,,,,0,0,1,,,0,,,59,64
329520,note_off,,,,,240,0,2,,,0,,,57,64
329640,note_on,,,,,0,0,1,,,0,,,62,83
329640,note_on,,,,,0,0,1,,,0,,,74,83
329640,note_off,,,,,0,0,1,,,0,,,61,64
329640,note_off,,,,,120,0,1,,,0,,,73,64
329760,note_off,,,,,0,0,2,,,0,,,52,64
329760,note_off,,,,,0,0,2,,,0,,,49,64
329760,note_on,,,,,0,0,2,,,0,,,45,76
329760,note_on,,,,,0,0,2,,,0,,,49,76
329760,note_off,,,,,0,0,1,,,0,,,62,64
329760,note_off,,,,,120,0,1,,,0,,,74,64
329760,note_on,,,,,0,0,1,,,0,,,76,96
329760,note_off,,,,,240,0,2,,,0,,,57,64
329760,note_on,,,,,0,0,1,,,0,,,64,96
329800,set_tempo,,,,,300,1,0,458015,,,,,,
329838,note_off,,,,,0,0,2,,,0,,,45,64
329838,note_off,,,,,78,0,2,,,0,,,49,64
329840,note_on,,,,,2,0,2,,,0,,,57,68
329900,set_tempo,,,,,100,1,0,454545,,,,,,
329918,note_off,,,,,78,0,2,,,0,,,57,64
329920,note_on,,,,,0,0,2,,,0,,,49,71
329920,note_on,,,,,2,0,2,,,0,,,45,71
329998,note_off,,,,,0,0,1,,,0,,,64,64
329998,note_off,,,,,0,0,2,,,0,,,45,64
329998,note_off,,,,,238,0,1,,,0,,,76,64
329998,note_off,,,,,78,0,2,,,0,,,49,64
330000,note_on,,,,,2,0,2,,,0,,,47,85
330000,note_on,,,,,0,0,2,,,0,,,50,85
330000,note_on,,,,,2,0,1,,,0,,,69,83
330000,note_on,,,,,0,0,1,,,0,,,81,83
330000,set_tempo,,,,,100,1,0,447761,,,,,,
330078,note_off,,,,,78,0,2,,,0,,,50,64
330078,note_off,,,,,0,0,2,,,0,,,47,64
330080,note_on,,,,,2,0,2,,,0,,,57,75
330080,set_tempo,,,,,80,1,0,441176,,,,,,
330140,set_tempo,,,,,60,1,0,434783,,,,,,
330158,note_off,,,,,78,0,2,,,0,,,57,64
330160,note_on,,,,,0,0,2,,,0,,,50,78
330160,note_on,,,,,2,0,2,,,0,,,47,78
330238,note_off,,,,,0,0,2,,,0,,,47,64
330238,note_off,,,,,78,0,2,,,0,,,50,64
330238,note_off,,,,,238,0,1,,,0,,,81,64
330238,note_off,,,,,0,0,1,,,0,,,69,64
330240,set_tempo,,,,,100,1,0,545455,,,,,,
330240,note_on,,,,,0,0,2,,,0,,,57,93
330240,note_on,,,,,0,0,2,,,0,,,52,93
330240,note_on,,,,,2,0,2,,,0,,,49,93
330240,note_on,,,,,2,0,1,,,0,,,61,88
330240,note_on,,,,,0,0,1,,,0,,,73,88
330240,control_change,,,,,0,0,1,,,0,64,95,,
330480,set_tempo,,,,,240,1,0,487805,,,,,,
330660,note_off,,,,,0,0,2,,,0,,,52,64
330660,note_off,,,,,420,0,2,,,0,,,57,64
330660,note_off,,,,,420,0,1,,,0,,,73,64
330660,note_off,,,,,0,0,1,,,0,,,61,64
330660,set_tempo,,,,,180,1,0,1071429,,,,,,
330660,note_off,,,,,0,0,2,,,0,,,49,64
330700,set_tempo,,,,,40,1,0,545455,,,,,,
330710,control_change,,,,,50,0,1,,,0,64,0,,
330720,note_on,,,,,60,0,2,,,0,,,50,126
330720,note_on,,,,,10,0,1,,,0,,,66,127
330720,note_on,,,,,0,0,1,,,0,,,69,127
330720,note_on,,,,,0,0,1,,,0,,,78,127
330720,control_change,,,,,0,0,1,,,0,64,95,,
330720,note_on,,,,,0,0,2,,,0,,,57,126
330720,note_on,,,,,0,0,2,,,0,,,54,126
331120,set_tempo,,,,,420,1,0,1363636,,,,,,
331140,note_off,,,,,0,0,1,,,0,,,69,64
331140,note_off,,,,,0,0,1,,,0,,,66,64
331140,note_off,,,,,420,0,1,,,0,,,78,64
331140,note_off,,,,,420,0,2,,,0,,,57,64
331140,note_off,,,,,0,0,2,,,0,,,54,64
331140,note_off,,,,,0,0,2,,,0,,,50,64
331190,control_change,,,,,50,0,1,,,0,64,0,,
331200,note_on,,,,,60,0,2,,,0,,,47,98
331200,note_on,,,,,0,0,1,,,0,,,69,117
331200,note_on,,,,,10,0,1,,,0,,,57,117
331200,note_on,,,,,0,0,2,,,0,,,74,98
331200,note_on,,,,,0,0,2,,,0,,,62,98
331200,note_on,,,,,0,0,2,,,0,,,52,98
331220,set_tempo,,,,,100,1,0,461538,,,,,,
331300,set_tempo,,,,,80,1,0,487805,,,,,,
331400,set_tempo,,,,,100,1,0,582524,,,,,,
331440,note_off,,,,,240,0,1,,,0,,,69,64
331440,note_on,,,,,0,0,1,,,0,,,56,92
331440,note_off,,,,,0,0,1,,,0,,,57,64
331440,note_on,,,,,0,0,1,,,0,,,68,92
331500,set_tempo,,,,,100,1,0,659341,,,,,,
331560,note_on,,,,,0,0,1,,,0,,,54,69
331560,note_off,,,,,120,0,1,,,0,,,68,64
331560,note_off,,,,,0,0,1,,,0,,,56,64
331560,note_on,,,,,0,0,1,,,0,,,66,69
331600,set_tempo,,,,,100,1,0,731707,,,,,,
331620,set_tempo,,,,,20,1,0,666667,,,,,,
331680,note_off,,,,,0,0,1,,,0,,,54,64
331680,note_on,,,,,0,0,1,,,0,,,56,49
331680,note_on,,,,,0,0,1,,,0,,,68,49
331680,note_off,,,,,120,0,1,,,0,,,66,64
331980,set_tempo,,,,,360,1,0,659341,,,,,,
332140,set_tempo,,,,,160,1,0,540541,,,,,,
332160,note_on,,,,,0,0,1,,,0,,,69,36
332160,note_off,,,,,960,0,2,,,0,,,52,64
332160,note_off,,,,,0,0,2,,,0,,,62,64
332160,note_off,,,,,0,0,2,,,0,,,74,64
332160,note_off,,,,,0,0,2,,,0,,,47,64
332160,note_on,,,,,0,0,2,,,0,,,57,34
332160,note_on,,,,,0,0,2,,,0,,,60,34
332160,note_off,,,,,480,0,1,,,0,,,68,64
332160,note_off,,,,,0,0,1,,,0,,,56,64
332160,note_on,,,,,0,0,1,,,0,,,72,36
332160,note_on,,,,,0,0,1,,,0,,,60,36
332280,note_off,,,,,120,0,1,,,0,,,60,64
332280,note_off,,,,,0,0,1,,,0,,,72,64
332280,note_off,,,,,0,0,1,,,0,,,69,64
332320,set_tempo,,,,,180,1,0,508475,,,,,,
332400,note_on,,,,,120,0,1,,,0,,,81,39
332520,note_off,,,,,120,0,1,,,0,,,81,64
332640,note_on,,,,,0,0,1,,,0,,,76,46
332640,note_on,,,,,120,0,1,,,0,,,88,46
332660,set_tempo,,,,,340,1,0,491803,,,,,,
332880,note_off,,,,,720,0,2,,,0,,,60,64
332880,note_off,,,,,0,0,2,,,0,,,57,64
332880,note_on,,,,,0,0,2,,,0,,,60,33
332880,note_on,,,,,0,0,2,,,0,,,57,33
332880,note_on,,,,,0,0,2,,,0,,,69,33
333000,note_off,,,,,0,0,2,,,0,,,57,64
333000,note_off,,,,,0,0,2,,,0,,,60,64
333000,note_off,,,,,120,0,2,,,0,,,69,64
333120,note_on,,,,,0,0,2,,,0,,,69,42
333120,note_on,,,,,0,0,2,,,0,,,62,42
333120,note_on,,,,,120,0,2,,,0,,,59,42
333360,note_off,,,,,0,0,1,,,0,,,88,64
333360,note_on,,,,,0,0,1,,,0,,,89,41
333360,note_on,,,,,0,0,1,,,0,,,77,41
333360,note_off,,,,,720,0,1,,,0,,,76,64
333440,set_tempo,,,,,780,1,0,521739,,,,,,
333480,note_off,,,,,0,0,1,,,0,,,77,64
333480,note_off,,,,,120,0,1,,,0,,,89,64
333600,set_tempo,,,,,160,1,0,483871,,,,,,
333600,note_on,,,,,0,0,1,,,0,,,74,48
333600,note_on,,,,,120,0,1,,,0,,,86,48
333840,note_on,,,,,0,0,2,,,0,,,69,36
333840,note_on,,,,,0,0,2,,,0,,,59,36
333840,note_on,,,,,0,0,2,,,0,,,62,36
333840,note_off,,,,,0,0,2,,,0,,,59,64
333840,note_off,,,,,0,0,2,,,0,,,62,64
333840,note_off,,,,,720,0,2,,,0,,,69,64
333960,note_off,,,,,0,0,2,,,0,,,62,64
333960,note_off,,,,,0,0,2,,,0,,,69,64
333960,note_off,,,,,120,0,2,,,0,,,59,64
334080,note_on,,,,,0,0,2,,,0,,,69,45
334080,note_on,,,,,0,0,2,,,0,,,64,45
334080,note_on,,,,,120,0,2,,,0,,,60,45
334120,set_tempo,,,,,520,1,0,487805,,,,,,
334200,note_off,,,,,600,0,1,,,0,,,74,64
334200,note_on,,,,,0,0,1,,,0,,,76,44
334200,note_on,,,,,0,0,1,,,0,,,88,44
334200,note_off,,,,,0,0,1,,,0,,,86,64
334260,set_tempo,,,,,140,1,0,483871,,,,,,
334280,set_tempo,,,,,20,1,0,480000,,,,,,
334290,note_off,,,,,90,0,1,,,0,,,88,64
334290,note_off,,,,,0,0,1,,,0,,,76,64
334320,note_on,,,,,0,0,1,,,0,,,84,48
334320,note_on,,,,,30,0,1,,,0,,,72,48
334380,set_tempo,,,,,100,1,0,472441,,,,,,
334460,set_tempo,,,,,80,1,0,468750,,,,,,
334530,note_off,,,,,450,0,2,,,0,,,69,64
334530,note_off,,,,,0,0,1,,,0,,,72,64
334530,note_off,,,,,0,0,2,,,0,,,64,64
334530,note_off,,,,,0,0,2,,,0,,,60,64
334530,note_off,,,,,210,0,1,,,0,,,84,64
334560,note_on,,,,,0,0,2,,,0,,,62,34
334560,note_on,,,,,30,0,1,,,0,,,82,49
334560,note_on,,,,,30,0,2,,,0,,,65,34
334580,set_tempo,,,,,120,1,0,465116,,,,,,
334620,set_tempo,,,,,40,1,0,461538,,,,,,
334638,note_off,,,,,78,0,1,,,0,,,82,64
334640,note_on,,,,,2,0,1,,,0,,,70,46
334718,note_off,,,,,78,0,1,,,0,,,70,64
334720,note_on,,,,,2,0,1,,,0,,,82,53
334798,note_off,,,,,78,0,1,,,0,,,82,64
334800,set_tempo,,,,,180,1,0,458015,,,,,,
334800,note_off,,,,,240,0,2,,,0,,,62,64
334800,note_off,,,,,0,0,2,,,0,,,65,64
334800,note_on,,,,,0,0,2,,,0,,,63,44
334800,note_on,,,,,0,0,2,,,0,,,65,44
334800,note_on,,,,,2,0,1,,,0,,,81,60
334878,note_off,,,,,78,0,1,,,0,,,81,64
334880,note_on,,,,,2,0,1,,,0,,,69,56
334900,set_tempo,,,,,100,1,0,454545,,,,,,
334958,note_off,,,,,78,0,1,,,0,,,69,64
334960,note_on,,,,,2,0,1,,,0,,,81,62
335020,set_tempo,,,,,120,1,0,451128,,,,,,
335038,note_off,,,,,78,0,1,,,0,,,81,64
335040,note_off,,,,,0,0,2,,,0,,,63,64
335040,note_on,,,,,0,0,2,,,0,,,65,48
335040,note_on,,,,,0,0,2,,,0,,,62,48
335040,note_off,,,,,240,0,2,,,0,,,65,64
335040,note_on,,,,,2,0,1,,,0,,,70,69
335040,note_on,,,,,0,0,1,,,0,,,82,69
335080,set_tempo,,,,,60,1,0,447761,,,,,,
335280,note_on,,,,,0,0,2,,,0,,,65,39
335280,note_on,,,,,0,0,1,,,0,,,72,54
335280,note_off,,,,,240,0,2,,,0,,,62,64
335280,note_off,,,,,0,0,1,,,0,,,70,64
335280,note_off,,,,,240,0,1,,,0,,,82,64
335280,note_on,,,,,0,0,2,,,0,,,58,39
335280,note_on,,,,,0,0,2,,,0,,,62,39
335280,note_on,,,,,0,0,1,,,0,,,84,54
335280,note_off,,,,,0,0,2,,,0,,,65,64
335300,set_tempo,,,,,220,1,0,444444,,,,,,
335340,set_tempo,,,,,40,1,0,441176,,,,,,
335400,note_on,,,,,0,0,1,,,0,,,74,64
335400,note_off,,,,,0,0,1,,,0,,,72,64
335400,note_off,,,,,120,0,1,,,0,,,84,64
335400,note_on,,,,,0,0,1,,,0,,,86,64
335440,set_tempo,,,,,100,1,0,437956,,,,,,
335520,note_off,,,,,0,0,2,,,0,,,65,64
335520,note_on,,,,,0,0,2,,,0,,,60,50
335520,note_on,,,,,0,0,2,,,0,,,57,50
335520,note_off,,,,,0,0,2,,,0,,,62,64
335520,note_on,,,,,0,0,1,,,0,,,72,69
335520,note_off,,,,,0,0,1,,,0,,,74,64
335520,note_on,,,,,0,0,1,,,0,,,84,69
335520,note_off,,,,,240,0,2,,,0,,,58,64
335520,note_off,,,,,120,0,1,,,0,,,86,64
335598,note_off,,,,,78,0,2,,,0,,,60,64
335598,note_off,,,,,0,0,2,,,0,,,57,64
335600,note_on,,,,,2,0,2,,,0,,,65,44
335678,note_off,,,,,78,0,2,,,0,,,65,64
335680,note_on,,,,,2,0,2,,,0,,,57,48
335680,note_on,,,,,0,0,2,,,0,,,60,48
335720,set_tempo,,,,,280,1,0,441176,,,,,,
335758,note_off,,,,,238,0,1,,,0,,,72,64
335758,note_off,,,,,78,0,2,,,0,,,60,64
335758,note_off,,,,,0,0,2,,,0,,,57,64
335758,note_off,,,,,0,0,1,,,0,,,84,64
335760,set_tempo,,,,,40,1,0,444444,,,,,,
335760,note_on,,,,,2,0,1,,,0,,,77,53
335760,note_on,,,,,0,0,1,,,0,,,89,53
335760,note_on,,,,,2,0,2,,,0,,,59,54
335760,note_on,,,,,0,0,2,,,0,,,56,54
335780,set_tempo,,,,,20,1,0,447761,,,,,,
335820,set_tempo,,,,,40,1,0,451128,,,,,,
335838,note_off,,,,,78,0,2,,,0,,,56,64
335838,note_off,,,,,0,0,2,,,0,,,59,64
335840,note_on,,,,,2,0,2,,,0,,,65,52
335860,set_tempo,,,,,40,1,0,454545,,,,,,
335880,set_tempo,,,,,20,1,0,458015,,,,,,
335918,note_off,,,,,78,0,2,,,0,,,65,64
335920,note_on,,,,,2,0,2,,,0,,,56,57
335920,note_on,,,,,0,0,2,,,0,,,59,57
335920,set_tempo,,,,,40,1,0,461538,,,,,,
335980,set_tempo,,,,,60,1,0,465116,,,,,,
335998,note_off,,,,,78,0,2,,,0,,,59,64
335998,note_off,,,,,0,0,2,,,0,,,56,64
335998,note_off,,,,,0,0,1,,,0,,,77,64
335998,note_off,,,,,238,0,1,,,0,,,89,64
336000,note_on,,,,,0,0,1,,,0,,,81,67
336000,control_change,,,,,0,0,1,,,0,64,95,,
336000,set_tempo,,,,,20,1,0,545455,,,,,,
336000,note_on,,,,,2,0,1,,,0,,,69,67
336000,note_on,,,,,0,0,2,,,0,,,60,62
336000,note_on,,,,,2,0,2,,,0,,,65,62
336000,note_on,,,,,0,0,2,,,0,,,57,62
336240,set_tempo,,,,,240,1,0,487805,,,,,,
336420,note_off,,,,,0,0,1,,,0,,,69,64
336420,note_off,,,,,420,0,1,,,0,,,81,64
336420,note_off,,,,,0,0,2,,,0,,,65,64
336420,note_off,,,,,0,0,2,,,0,,,60,64
336420,note_off,,,,,420,0,2,,,0,,,57,64
336420,set_tempo,,,,,180,1,0,1071429,,,,,,
336460,set_tempo,,,,,40,1,0,545455,,,,,,
336470,control_change,,,,,50,0,1,,,0,64,0,,
336480,note_on,,,,,10,0,1,,,0,,,77,74
336480,control_change,,,,,0,0,1,,,0,64,95,,
336480,note_on,,,,,60,0,2,,,0,,,58,83
336480,note_on,,,,,0,0,1,,,0,,,74,74
336480,note_on,,,,,0,0,2,,,0,,,62,83
336480,note_on,,,,,0,0,2,,,0,,,65,83
336480,note_on,,,,,0,0,1,,,0,,,86,74
336880,set_tempo,,,,,420,1,0,1363636,,,,,,
336900,note_off,,,,,0,0,1,,,0,,,77,64
336900,note_off,,,,,0,0,1,,,0,,,86,64
336900,note_off,,,,,420,0,1,,,0,,,74,64
336900,note_off,,,,,420,0,2,,,0,,,65,64
336900,note_off,,,,,0,0,2,,,0,,,58,64
336900,note_off,,,,,0,0,2,,,0,,,62,64
336950,control_change,,,,,50,0,1,,,0,64,0,,
336960,note_on,,,,,60,0,2,,,0,,,55,70
336960,note_on,,,,,0,0,2,,,0,,,60,70
336960,note_on,,,,,0,0,2,,,0,,,70,70
336960,note_on,,,,,10,0,1,,,0,,,77,61
336960,note_on,,,,,0,0,1,,,0,,,65,61
336960,note_on,,,,,0,0,2,,,0,,,82,70
336980,set_tempo,,,,,100,1,0,461538,,,,,,
337060,set_tempo,,,,,80,1,0,487805,,,,,,
337160,set_tempo,,,,,100,1,0,582524,,,,,,
337200,note_off,,,,,240,0,1,,,0,,,65,64
337200,note_on,,,,,0,0,1,,,0,,,64,51
337200,note_off,,,,,0,0,1,,,0,,,77,64
337200,note_on,,,,,0,0,1,,,0,,,76,51
337260,set_tempo,,,,,100,1,0,659341,,,,,,
337320,note_off,,,,,0,0,1,,,0,,,64,64
337320,note_off,,,,,120,0,1,,,0,,,76,64
337320,note_on,,,,,0,0,1,,,0,,,62,46
337320,note_on,,,,,0,0,1,,,0,,,74,46
337360,set_tempo,,,,,100,1,0,731707,,,,,,
337440,note_on,,,,,0,0,1,,,0,,,76,44
337440,note_on,,,,,0,0,1,,,0,,,64,44
337440,note_off,,,,,0,0,1,,,0,,,62,64
337440,note_off,,,,,120,0,1,,,0,,,74,64
337680,set_tempo,,,,,320,1,0,857143,,,,,,
337860,note_off,,,,,900,0,2,,,0,,,82,64
337860,note_off,,,,,0,0,2,,,0,,,60,64
337860,note_off,,,,,420,0,1,,,0,,,76,64
337860,note_off,,,,,0,0,2,,,0,,,70,64
337862,set_tempo,,,,,182,1,0,461538,,,,,,
337920,note_on,,,,,0,0,2,,,0,,,60,39
337920,note_on,,,,,0,0,2,,,0,,,65,39
337920,note_on,,,,,0,0,2,,,0,,,53,39
337920,note_off,,,,,60,0,1,,,0,,,64,64
337920,note_on,,,,,0,0,1,,,0,,,77,49
337920,note_on,,,,,0,0,1,,,0,,,81,49
337920,note_off,,,,,60,0,2,,,0,,,55,64
337922,note_on,,,,,2,0,1,,,0,,,69,49
338000,note_on,,,,,0,0,1,,,0,,,72,46
338000,note_off,,,,,0,0,1,,,0,,,81,64
338000,note_off,,,,,78,0,1,,,0,,,77,64
338002,note_off,,,,,2,0,1,,,0,,,69,64
338080,note_on,,,,,0,0,1,,,0,,,77,45
338080,note_off,,,,,78,0,1,,,0,,,72,64
338082,set_tempo,,,,,220,1,0,454545,,,,,,
338160,note_off,,,,,80,0,1,,,0,,,77,64
338160,note_off,,,,,0,0,2,,,0,,,60,64
338160,note_off,,,,,0,0,2,,,0,,,65,64
338160,note_off,,,,,240,0,2,,,0,,,53,64
338162,note_on,,,,,2,0,1,,,0,,,72,45
338242,note_on,,,,,0,0,1,,,0,,,69,45
338242,note_off,,,,,80,0,1,,,0,,,72,64
338262,set_tempo,,,,,180,1,0,451128,,,,,,
338322,note_on,,,,,0,0,1,,,0,,,65,46
338322,note_off,,,,,80,0,1,,,0,,,69,64
338402,note_off,,,,,80,0,1,,,0,,,65,64
338402,note_on,,,,,0,0,1,,,0,,,60,48
338442,set_tempo,,,,,180,1,0,447761,,,,,,
338482,note_off,,,,,80,0,1,,,0,,,60,64
338482,note_on,,,,,0,0,1,,,0,,,57,55
338562,note_off,,,,,80,0,1,,,0,,,57,64
338564,note_on,,,,,2,0,1,,,0,,,53,59
338622,set_tempo,,,,,180,1,0,441176,,,,,,
338640,note_on,,,,,76,0,1,,,0,,,48,64
338644,note_off,,,,,4,0,1,,,0,,,53,64
338720,note_on,,,,,0,0,1,,,0,,,45,69
338720,note_off,,,,,76,0,1,,,0,,,48,64
338782,set_tempo,,,,,160,1,0,437956,,,,,,
338800,note_on,,,,,0,0,1,,,0,,,41,76
338800,note_off,,,,,80,0,1,,,0,,,45,64
338880,note_off,,,,,80,0,1,,,0,,,41,64
338880,note_on,,,,,0,0,1,,,0,,,29,82
338882,set_tempo,,,,,100,1,0,444444,,,,,,
338942,set_tempo,,,,,60,1,0,483871,,,,,,
339000,note_off,,,,,120,0,1,,,0,,,29,64
339120,note_on,,,,,0,0,1,,,0,,,65,49
339120,note_on,,,,,0,0,1,,,0,,,72,49
339120,note_on,,,,,120,0,1,,,0,,,53,49
339120,note_on,,,,,0,0,1,,,0,,,57,49
339120,note_on,,,,,0,0,1,,,0,,,60,49
339162,set_tempo,,,,,220,1,0,576923,,,,,,
339240,note_off,,,,,120,0,1,,,0,,,72,64
339240,note_off,,,,,0,0,1,,,0,,,65,64
339240,note_off,,,,,0,0,1,,,0,,,60,64
339240,note_off,,,,,0,0,1,,,0,,,57,64
339240,note_off,,,,,0,0,1,,,0,,,53,64
339302,set_tempo,,,,,140,1,0,461538,,,,,,
339360,note_on,,,,,120,0,1,,,0,,,67,65
339360,note_on,,,,,0,0,1,,,0,,,64,65
339360,note_on,,,,,0,0,1,,,0,,,60,65
339360,note_on,,,,,0,0,1,,,0,,,58,65
339360,note_on,,,,,0,0,1,,,0,,,53,65
339360,note_on,,,,,0,0,1,,,0,,,72,65
339840,note_on,,,,,0,0,1,,,0,,,72,58
339840,note_off,,,,,0,0,1,,,0,,,67,64
339840,note_off,,,,,0,0,1,,,0,,,64,64
339840,note_on,,,,,0,0,2,,,0,,,53,39
339840,note_off,,,,,0,0,1,,,0,,,58,64
339840,note_off,,,,,0,0,1,,,0,,,53,64
339840,note_on,,,,,1680,0,2,,,0,,,57,39
339840,note_off,,,,,0,0,1,,,0,,,60,64
339840,note_off,,,,,480,0,1,,,0,,,72,64
339920,note_off,,,,,80,0,1,,,0,,,72,64
339920,note_on,,,,,0,0,1,,,0,,,77,56
340000,note_off,,,,,80,0,1,,,0,,,77,64
340000,note_on,,,,,0,0,1,,,0,,,81,53
340002,set_tempo,,,,,700,1,0,454545,,,,,,
340080,note_off,,,,,80,0,1,,,0,,,81,64
340080,note_off,,,,,240,0,2,,,0,,,53,64
340080,note_off,,,,,0,0,2,,,0,,,57,64
340080,note_on,,,,,0,0,1,,,0,,,77,52
340160,note_on,,,,,0,0,1,,,0,,,72,52
340160,note_off,,,,,80,0,1,,,0,,,77,64
340182,set_tempo,,,,,180,1,0,451128,,,,,,
340240,note_off,,,,,80,0,1,,,0,,,72,64
340240,note_on,,,,,0,0,1,,,0,,,69,55
340320,note_on,,,,,0,0,1,,,0,,,65,59
340320,note_off,,,,,80,0,1,,,0,,,69,64
340362,set_tempo,,,,,180,1,0,447761,,,,,,
340400,note_on,,,,,0,0,1,,,0,,,60,65
340400,note_off,,,,,80,0,1,,,0,,,65,64
340480,note_on,,,,,0,0,1,,,0,,,57,69
340480,note_off,,,,,80,0,1,,,0,,,60,64
340542,set_tempo,,,,,180,1,0,441176,,,,,,
340560,note_off,,,,,80,0,1,,,0,,,57,64
340560,note_on,,,,,0,0,1,,,0,,,48,74
340560,note_on,,,,,0,0,1,,,0,,,53,74
340640,note_off,,,,,0,0,1,,,0,,,48,64
340640,note_on,,,,,0,0,1,,,0,,,45,80
340640,note_off,,,,,80,0,1,,,0,,,53,64
340702,set_tempo,,,,,160,1,0,437956,,,,,,
340720,note_on,,,,,0,0,1,,,0,,,41,83
340720,note_off,,,,,80,0,1,,,0,,,45,64
340800,note_on,,,,,0,0,1,,,0,,,29,88
340800,note_off,,,,,80,0,1,,,0,,,41,64
340802,set_tempo,,,,,100,1,0,444444,,,,,,
340862,set_tempo,,,,,60,1,0,483871,,,,,,
340920,note_off,,,,,120,0,1,,,0,,,29,64
341040,note_on,,,,,0,0,1,,,0,,,77,70
341040,note_on,,,,,0,0,1,,,0,,,57,70
341040,note_on,,,,,0,0,1,,,0,,,65,70
341040,note_on,,,,,0,0,1,,,0,,,72,70
341040,note_on,,,,,120,0,1,,,0,,,60,70
341040,note_on,,,,,0,0,1,,,0,,,53,70
341082,set_tempo,,,,,220,1,0,576923,,,,,,
341160,note_off,,,,,0,0,1,,,0,,,57,64
341160,note_off,,,,,0,0,1,,,0,,,65,64
341160,note_off,,,,,120,0,1,,,0,,,72,64
341160,note_off,,,,,0,0,1,,,0,,,53,64
341160,note_off,,,,,0,0,1,,,0,,,77,64
341160,note_off,,,,,0,0,1,,,0,,,60,64
341222,set_tempo,,,,,140,1,0,461538,,,,,,
341280,note_on,,,,,0,0,1,,,0,,,60,83
341280,note_on,,,,,120,0,1,,,0,,,72,83
341280,note_on,,,,,0,0,1,,,0,,,67,83
341280,note_on,,,,,0,0,1,,,0,,,53,83
341280,note_on,,,,,0,0,1,,,0,,,58,83
341280,note_on,,,,,0,0,1,,,0,,,64,83
341280,note_on,,,,,0,0,1,,,0,,,79,83
341702,set_tempo,,,,,480,1,0,483871,,,,,,
341760,note_off,,,,,480,0,1,,,0,,,79,64
341760,note_on,,,,,1680,0,2,,,0,,,53,54
341760,note_on,,,,,0,0,1,,,0,,,77,57
341760,note_on,,,,,0,0,1,,,0,,,72,57
341760,note_off,,,,,0,0,1,,,0,,,72,64
341760,note_off,,,,,0,0,1,,,0,,,67,64
341760,note_off,,,,,0,0,1,,,0,,,64,64
341760,note_off,,,,,0,0,1,,,0,,,60,64
341760,note_off,,,,,0,0,1,,,0,,,58,64
341760,note_off,,,,,0,0,1,,,0,,,53,64
341760,note_on,,,,,0,0,1,,,0,,,65,57
341840,note_on,,,,,0,0,2,,,0,,,57,58
341840,note_off,,,,,80,0,2,,,0,,,53,64
341920,note_on,,,,,0,0,2,,,0,,,60,64
341920,note_off,,,,,80,0,2,,,0,,,57,64
341922,set_tempo,,,,,220,1,0,472441,,,,,,
341980,note_off,,,,,0,0,1,,,0,,,65,64
341980,note_off,,,,,220,0,1,,,0,,,77,64
341980,note_off,,,,,0,0,1,,,0,,,72,64
342000,note_off,,,,,80,0,2,,,0,,,60,64
342002,note_on,,,,,2,0,2,,,0,,,57,69
342082,note_off,,,,,80,0,2,,,0,,,57,64
342082,note_on,,,,,0,0,2,,,0,,,53,69
342162,note_off,,,,,80,0,2,,,0,,,53,64
342162,note_on,,,,,0,0,2,,,0,,,48,74
342242,note_on,,,,,0,0,2,,,0,,,53,79
342242,note_off,,,,,80,0,2,,,0,,,48,64
342262,set_tempo,,,,,340,1,0,465116,,,,,,
342322,note_off,,,,,80,0,2,,,0,,,53,64
342322,note_on,,,,,0,0,2,,,0,,,48,83
342402,note_off,,,,,80,0,2,,,0,,,48,64
342404,note_on,,,,,2,0,2,,,0,,,45,87
342478,note_on,,,,,74,0,2,,,0,,,41,94
342484,note_off,,,,,6,0,2,,,0,,,45,64
342542,set_tempo,,,,,280,1,0,458015,,,,,,
342558,note_off,,,,,74,0,2,,,0,,,41,64
342564,note_on,,,,,6,0,2,,,0,,,36,99
342644,note_off,,,,,80,0,2,,,0,,,36,64
342644,note_on,,,,,0,0,2,,,0,,,33,104
342718,note_on,,,,,74,0,2,,,0,,,29,109
342720,note_on,,,,,740,0,1,,,0,,,77,93
342724,note_off,,,,,6,0,2,,,0,,,33,64
342762,set_tempo,,,,,220,1,0,454545,,,,,,
342800,note_on,,,,,0,0,1,,,0,,,81,84
342800,note_off,,,,,80,0,1,,,0,,,77,64
342880,note_off,,,,,80,0,1,,,0,,,81,64
342880,note_on,,,,,0,0,1,,,0,,,84,86
342958,note_off,,,,,234,0,2,,,0,,,29,64
342960,note_off,,,,,80,0,1,,,0,,,84,64
342960,note_on,,,,,0,0,1,,,0,,,81,90
343040,note_off,,,,,80,0,1,,,0,,,81,64
343040,note_on,,,,,0,0,1,,,0,,,77,94
343062,set_tempo,,,,,300,1,0,447761,,,,,,
343120,note_off,,,,,80,0,1,,,0,,,77,64
343120,note_on,,,,,0,0,1,,,0,,,72,96
343200,note_on,,,,,0,0,1,,,0,,,77,99
343200,note_off,,,,,80,0,1,,,0,,,72,64
343280,note_off,,,,,80,0,1,,,0,,,77,64
343280,note_on,,,,,0,0,1,,,0,,,72,103
343282,set_tempo,,,,,220,1,0,441176,,,,,,
343360,note_off,,,,,80,0,1,,,0,,,72,64
343360,note_on,,,,,0,0,1,,,0,,,69,106
343440,note_on,,,,,0,0,1,,,0,,,65,110
343440,note_off,,,,,80,0,1,,,0,,,69,64
343502,set_tempo,,,,,220,1,0,434783,,,,,,
343520,note_on,,,,,0,0,1,,,0,,,60,113
343520,note_off,,,,,80,0,1,,,0,,,65,64
343600,note_on,,,,,0,0,1,,,0,,,57,117
343600,note_off,,,,,80,0,1,,,0,,,60,64
343622,set_tempo,,,,,120,1,0,461538,,,,,,
343678,note_on,,,,,78,0,1,,,0,,,53,125
343680,note_off,,,,,2,0,1,,,0,,,57,64
343742,set_tempo,,,,,120,1,0,480000,,,,,,
343798,note_off,,,,,118,0,1,,,0,,,53,64
343920,note_on,,,,,0,0,2,,,0,,,53,92
343920,note_on,,,,,0,0,2,,,0,,,57,92
343920,note_on,,,,,962,0,2,,,0,,,65,92
343982,set_tempo,,,,,240,1,0,576923,,,,,,
344040,note_off,,,,,0,0,2,,,0,,,65,64
344040,note_off,,,,,0,0,2,,,0,,,57,64
344040,note_off,,,,,120,0,2,,,0,,,53,64
344102,set_tempo,,,,,120,1,0,461538,,,,,,
344160,note_on,,,,,120,0,2,,,0,,,65,111
344160,note_on,,,,,0,0,2,,,0,,,58,111
344160,note_on,,,,,0,0,2,,,0,,,54,111
344400,note_on,,,,,602,0,1,,,0,,,77,103
344482,set_tempo,,,,,380,1,0,526316,,,,,,
344520,note_off,,,,,120,0,1,,,0,,,77,64
344582,set_tempo,,,,,100,1,0,461538,,,,,,
344640,note_on,,,,,0,0,1,,,0,,,82,121
344640,note_on,,,,,120,0,1,,,0,,,70,121
344820,note_off,,,,,660,0,2,,,0,,,54,64
344820,note_off,,,,,0,0,2,,,0,,,58,64
344820,note_off,,,,,0,0,2,,,0,,,65,64
344880,note_on,,,,,0,0,2,,,0,,,58,99
344880,note_on,,,,,0,0,2,,,0,,,55,99
344880,note_on,,,,,60,0,2,,,0,,,65,99
345022,set_tempo,,,,,440,1,0,458015,,,,,,
345120,note_on,,,,,0,0,2,,,0,,,61,116
345120,note_off,,,,,0,0,2,,,0,,,58,64
345120,note_off,,,,,0,0,2,,,0,,,65,64
345120,note_on,,,,,0,0,2,,,0,,,65,116
345120,note_on,,,,,0,0,2,,,0,,,56,116
345120,note_off,,,,,480,0,1,,,0,,,82,64
345120,note_off,,,,,0,0,1,,,0,,,70,64
345120,note_on,,,,,0,0,1,,,0,,,80,123
345120,note_off,,,,,240,0,2,,,0,,,55,64
345200,note_off,,,,,80,0,1,,,0,,,80,64
345200,note_on,,,,,0,0,1,,,0,,,82,118
345262,set_tempo,,,,,240,1,0,451128,,,,,,
345280,note_off,,,,,80,0,1,,,0,,,82,64
345280,note_on,,,,,0,0,1,,,0,,,80,103
345360,note_off,,,,,80,0,1,,,0,,,80,64
345360,note_on,,,,,0,0,2,,,0,,,60,108
345360,note_on,,,,,0,0,2,,,0,,,63,108
345360,note_on,,,,,0,0,2,,,0,,,56,108
345360,note_off,,,,,0,0,2,,,0,,,65,64
345360,note_off,,,,,0,0,2,,,0,,,61,64
345360,note_off,,,,,240,0,2,,,0,,,56,64
345362,note_on,,,,,2,0,1,,,0,,,78,116
345422,set_tempo,,,,,160,1,0,447761,,,,,,
345442,note_on,,,,,0,0,1,,,0,,,80,101
345442,note_off,,,,,80,0,1,,,0,,,78,64
345522,note_off,,,,,80,0,1,,,0,,,80,64
345522,note_on,,,,,0,0,1,,,0,,,78,93
345542,set_tempo,,,,,120,1,0,545455,,,,,,
345600,note_off,,,,,0,0,2,,,0,,,56,64
345600,note_off,,,,,0,0,2,,,0,,,60,64
345600,note_on,,,,,78,0,1,,,0,,,77,99
345600,note_on,,,,,0,0,2,,,0,,,61,94
345600,note_off,,,,,240,0,2,,,0,,,63,64
345602,note_off,,,,,2,0,1,,,0,,,78,64
345662,set_tempo,,,,,120,1,0,480000,,,,,,
345720,note_off,,,,,118,0,1,,,0,,,77,64
345720,note_off,,,,,120,0,2,,,0,,,61,64
345840,note_on,,,,,0,0,2,,,0,,,49,61
345840,note_on,,,,,0,0,2,,,0,,,53,61
345840,note_on,,,,,120,0,2,,,0,,,61,61
345902,set_tempo,,,,,240,1,0,576923,,,,,,
345960,note_off,,,,,0,0,2,,,0,,,61,64
345960,note_off,,,,,0,0,2,,,0,,,53,64
345960,note_off,,,,,120,0,2,,,0,,,49,64
346022,set_tempo,,,,,120,1,0,461538,,,,,,
346080,note_on,,,,,120,0,2,,,0,,,61,67
346080,note_on,,,,,0,0,2,,,0,,,50,67
346080,note_on,,,,,0,0,2,,,0,,,54,67
346320,note_on,,,,,600,0,1,,,0,,,73,63
346402,set_tempo,,,,,380,1,0,526316,,,,,,
346440,note_off,,,,,120,0,1,,,0,,,73,64
346502,set_tempo,,,,,100,1,0,461538,,,,,,
346560,note_on,,,,,120,0,1,,,0,,,66,77
346560,note_on,,,,,0,0,1,,,0,,,78,77
346740,note_off,,,,,0,0,2,,,0,,,61,64
346740,note_off,,,,,660,0,2,,,0,,,50,64
346740,note_off,,,,,0,0,2,,,0,,,54,64
346800,note_on,,,,,60,0,2,,,0,,,61,57
346800,note_on,,,,,0,0,2,,,0,,,54,57
346800,note_on,,,,,0,0,2,,,0,,,51,57
346942,set_tempo,,,,,440,1,0,458015,,,,,,
347040,note_on,,,,,0,0,1,,,0,,,76,61
347040,note_off,,,,,480,0,1,,,0,,,78,64
347040,note_off,,,,,240,0,2,,,0,,,51,64
347040,note_off,,,,,0,0,2,,,0,,,54,64
347040,note_on,,,,,0,0,2,,,0,,,61,51
347040,note_on,,,,,0,0,2,,,0,,,57,51
347040,note_on,,,,,0,0,2,,,0,,,52,51
347040,note_off,,,,,0,0,1,,,0,,,66,64
347040,note_off,,,,,0,0,2,,,0,,,61,64
347120,note_off,,,,,80,0,1,,,0,,,76,64
347120,note_on,,,,,0,0,1,,,0,,,78,49
347182,set_tempo,,,,,240,1,0,451128,,,,,,
347200,note_off,,,,,80,0,1,,,0,,,78,64
347200,note_on,,,,,0,0,1,,,0,,,76,49
347280,note_on,,,,,0,0,2,,,0,,,52,47
347280,note_off,,,,,240,0,2,,,0,,,52,64
347280,note_off,,,,,0,0,2,,,0,,,57,64
347280,note_off,,,,,0,0,2,,,0,,,61,64
347280,note_off,,,,,80,0,1,,,0,,,76,64
347280,note_on,,,,,0,0,2,,,0,,,56,47
347280,note_on,,,,,0,0,2,,,0,,,59,47
347282,note_on,,,,,2,0,1,,,0,,,74,55
347342,set_tempo,,,,,160,1,0,447761,,,,,,
347362,note_on,,,,,0,0,1,,,0,,,76,43
347362,note_off,,,,,80,0,1,,,0,,,74,64
347442,note_off,,,,,80,0,1,,,0,,,76,64
347442,note_on,,,,,0,0,1,,,0,,,74,41
347442,set_tempo,,,,,100,1,0,545455,,,,,,
347520,note_on,,,,,0,0,2,,,0,,,57,42
347520,note_on,,,,,78,0,1,,,0,,,73,46
347520,note_off,,,,,0,0,2,,,0,,,59,64
347520,note_off,,,,,240,0,2,,,0,,,56,64
347520,note_off,,,,,0,0,2,,,0,,,52,64
347522,note_off,,,,,2,0,1,,,0,,,74,64
347584,set_tempo,,,,,142,1,0,480000,,,,,,
347640,note_off,,,,,118,0,1,,,0,,,73,64
347760,note_off,,,,,240,0,2,,,0,,,57,64
347760,note_on,,,,,120,0,1,,,0,,,73,113
347760,note_on,,,,,0,0,1,,,0,,,69,113
347760,note_on,,,,,0,0,1,,,0,,,81,113
347824,set_tempo,,,,,240,1,0,576923,,,,,,
347880,note_off,,,,,0,0,1,,,0,,,73,64
347880,note_off,,,,,120,0,1,,,0,,,81,64
347880,note_off,,,,,0,0,1,,,0,,,69,64
347944,set_tempo,,,,,120,1,0,461538,,,,,,
348000,note_on,,,,,0,0,1,,,0,,,81,122
348000,note_on,,,,,0,0,1,,,0,,,74,122
348000,note_on,,,,,120,0,1,,,0,,,70,122
348240,note_on,,,,,480,0,2,,,0,,,65,112
348324,set_tempo,,,,,380,1,0,526316,,,,,,
348360,note_off,,,,,120,0,2,,,0,,,65,64
348424,set_tempo,,,,,100,1,0,461538,,,,,,
348480,note_on,,,,,120,0,2,,,0,,,50,121
348660,note_off,,,,,660,0,1,,,0,,,81,64
348660,note_off,,,,,0,0,1,,,0,,,74,64
348660,note_off,,,,,0,0,1,,,0,,,70,64
348720,note_on,,,,,60,0,1,,,0,,,71,113
348720,note_on,,,,,0,0,1,,,0,,,77,113
348720,note_on,,,,,0,0,1,,,0,,,81,113
348864,set_tempo,,,,,440,1,0,458015,,,,,,
348960,note_off,,,,,0,0,1,,,0,,,77,64
348960,note_on,,,,,0,0,2,,,0,,,48,122
348960,note_off,,,,,480,0,2,,,0,,,50,64
348960,note_on,,,,,0,0,1,,,0,,,81,117
348960,note_on,,,,,0,0,1,,,0,,,77,117
348960,note_on,,,,,0,0,1,,,0,,,72,117
348960,note_off,,,,,0,0,1,,,0,,,71,64
348960,note_off,,,,,240,0,1,,,0,,,81,64
349040,note_on,,,,,0,0,2,,,0,,,50,110
349040,note_off,,,,,80,0,2,,,0,,,48,64
349104,set_tempo,,,,,240,1,0,451128,,,,,,
349120,note_off,,,,,80,0,2,,,0,,,50,64
349120,note_on,,,,,0,0,2,,,0,,,48,108
349200,note_off,,,,,240,0,1,,,0,,,81,64
349200,note_off,,,,,0,0,1,,,0,,,72,64
349200,note_on,,,,,0,0,1,,,0,,,76,122
349200,note_on,,,,,0,0,1,,,0,,,72,122
349200,note_on,,,,,0,0,1,,,0,,,79,122
349200,note_off,,,,,0,0,1,,,0,,,77,64
349200,note_off,,,,,80,0,2,,,0,,,48,64
349200,note_on,,,,,0,0,2,,,0,,,46,117
349264,set_tempo,,,,,160,1,0,447761,,,,,,
349280,note_off,,,,,80,0,2,,,0,,,46,64
349280,note_on,,,,,0,0,2,,,0,,,48,108
349352,set_tempo,,,,,88,1,0,461538,,,,,,
349360,note_off,,,,,80,0,2,,,0,,,48,64
349360,note_on,,,,,0,0,2,,,0,,,46,114
349438,note_on,,,,,238,0,1,,,0,,,84,122
349440,note_off,,,,,0,0,1,,,0,,,76,64
349440,note_off,,,,,0,0,1,,,0,,,72,64
349440,note_off,,,,,2,0,1,,,0,,,79,64
349440,note_on,,,,,0,0,1,,,0,,,77,122
349440,note_on,,,,,0,0,1,,,0,,,72,122
349440,note_on,,,,,0,0,2,,,0,,,45,122
349440,note_off,,,,,80,0,2,,,0,,,46,64
349474,set_tempo,,,,,122,1,0,480000,,,,,,
349518,note_on,,,,,78,0,2,,,0,,,46,117
349520,note_off,,,,,2,0,2,,,0,,,45,64
349558,note_off,,,,,118,0,1,,,0,,,84,64
349560,note_off,,,,,0,0,1,,,0,,,77,64
349560,note_off,,,,,2,0,1,,,0,,,72,64
349598,note_off,,,,,78,0,2,,,0,,,46,64
349598,note_on,,,,,0,0,2,,,0,,,45,112
349678,note_off,,,,,80,0,2,,,0,,,45,64
349680,note_on,,,,,120,0,1,,,0,,,69,73
349680,note_on,,,,,0,0,1,,,0,,,76,73
349680,note_on,,,,,0,0,1,,,0,,,73,73
349680,note_on,,,,,2,0,2,,,0,,,43,103
349760,note_off,,,,,80,0,2,,,0,,,43,64
349760,note_on,,,,,0,0,2,,,0,,,45,93
349800,note_off,,,,,120,0,1,,,0,,,76,64
349800,note_off,,,,,0,0,1,,,0,,,73,64
349800,note_off,,,,,0,0,1,,,0,,,69,64
349840,note_on,,,,,0,0,2,,,0,,,43,85
349840,note_off,,,,,80,0,2,,,0,,,45,64
349920,note_on,,,,,0,0,1,,,0,,,81,78
349920,note_on,,,,,120,0,1,,,0,,,69,78
349920,note_off,,,,,80,0,2,,,0,,,43,64
349920,note_on,,,,,0,0,1,,,0,,,74,78
349920,note_on,,,,,0,0,2,,,0,,,41,96
350040,note_off,,,,,120,0,1,,,0,,,81,64
350040,note_off,,,,,0,0,1,,,0,,,74,64
350040,note_off,,,,,0,0,1,,,0,,,69,64
350040,note_off,,,,,120,0,2,,,0,,,41,64
350160,note_on,,,,,120,0,1,,,0,,,76,83
350160,note_on,,,,,0,0,1,,,0,,,81,83
350160,note_on,,,,,0,0,1,,,0,,,85,83
350160,note_on,,,,,120,0,2,,,0,,,55,73
350240,note_on,,,,,0,0,2,,,0,,,57,77
350240,note_off,,,,,80,0,2,,,0,,,55,64
350280,note_off,,,,,0,0,1,,,0,,,76,64
350280,note_off,,,,,120,0,1,,,0,,,85,64
350280,note_off,,,,,0,0,1,,,0,,,81,64
350320,note_on,,,,,0,0,2,,,0,,,55,80
350320,note_off,,,,,80,0,2,,,0,,,57,64
350400,note_on,,,,,0,0,1,,,0,,,81,87
350400,note_on,,,,,0,0,1,,,0,,,86,87
350400,note_off,,,,,80,0,2,,,0,,,55,64
350400,note_on,,,,,0,0,2,,,0,,,53,92
350400,note_on,,,,,120,0,1,,,0,,,74,87
350444,set_tempo,,,,,970,1,0,437956,,,,,,
350480,note_off,,,,,80,0,2,,,0,,,53,64
350480,note_on,,,,,0,0,2,,,0,,,55,84
350520,note_off,,,,,0,0,1,,,0,,,81,64
350520,note_off,,,,,120,0,1,,,0,,,86,64
350520,note_off,,,,,0,0,1,,,0,,,74,64
350560,note_on,,,,,0,0,2,,,0,,,53,87
350560,note_off,,,,,80,0,2,,,0,,,55,64
350640,note_on,,,,,0,0,1,,,0,,,79,92
350640,note_off,,,,,80,0,2,,,0,,,53,64
350640,note_on,,,,,0,0,2,,,0,,,52,91
350640,note_on,,,,,0,0,1,,,0,,,73,92
350640,note_on,,,,,120,0,1,,,0,,,69,92
350664,set_tempo,,,,,220,1,0,447761,,,,,,
350720,note_on,,,,,0,0,2,,,0,,,53,97
350720,note_off,,,,,80,0,2,,,0,,,52,64
350760,note_off,,,,,0,0,1,,,0,,,73,64
350760,note_off,,,,,0,0,1,,,0,,,69,64
350760,note_off,,,,,120,0,1,,,0,,,79,64
350800,note_on,,,,,0,0,2,,,0,,,52,100
350800,note_off,,,,,80,0,2,,,0,,,53,64
350880,note_on,,,,,120,0,1,,,0,,,69,96
350880,note_on,,,,,0,0,1,,,0,,,74,96
350880,note_on,,,,,0,0,1,,,0,,,77,96
350880,note_off,,,,,80,0,2,,,0,,,52,64
350880,note_on,,,,,0,0,2,,,0,,,50,107
350884,set_tempo,,,,,220,1,0,451128,,,,,,
350960,note_off,,,,,80,0,2,,,0,,,50,64
350960,note_on,,,,,0,0,2,,,0,,,52,102
351000,note_off,,,,,0,0,1,,,0,,,69,64
351000,note_off,,,,,0,0,1,,,0,,,74,64
351000,note_off,,,,,120,0,1,,,0,,,77,64
351040,note_off,,,,,80,0,2,,,0,,,52,64
351040,note_on,,,,,0,0,2,,,0,,,50,106
351064,set_tempo,,,,,180,1,0,458015,,,,,,
351120,note_on,,,,,0,0,2,,,0,,,48,109
351120,note_on,,,,,0,0,1,,,0,,,69,102
351120,note_on,,,,,120,0,1,,,0,,,64,102
351120,note_on,,,,,0,0,1,,,0,,,76,102
351120,note_off,,,,,80,0,2,,,0,,,50,64
351200,note_off,,,,,80,0,2,,,0,,,48,64
351200,note_on,,,,,0,0,2,,,0,,,50,111
351240,note_off,,,,,0,0,1,,,0,,,69,64
351240,note_off,,,,,0,0,1,,,0,,,64,64
351240,note_off,,,,,120,0,1,,,0,,,76,64
351280,note_on,,,,,0,0,2,,,0,,,48,114
351280,note_off,,,,,80,0,2,,,0,,,50,64
351360,note_on,,,,,0,0,1,,,0,,,74,117
351360,note_off,,,,,80,0,2,,,0,,,48,64
351360,note_on,,,,,0,0,2,,,0,,,47,119
351360,note_on,,,,,120,0,1,,,0,,,64,117
351360,note_on,,,,,0,0,1,,,0,,,68,117
351404,set_tempo,,,,,340,1,0,451128,,,,,,
351440,note_off,,,,,80,0,2,,,0,,,47,64
351440,note_on,,,,,0,0,2,,,0,,,48,114
351480,note_off,,,,,0,0,1,,,0,,,68,64
351480,note_off,,,,,0,0,1,,,0,,,64,64
351480,note_off,,,,,120,0,1,,,0,,,74,64
351520,note_on,,,,,0,0,2,,,0,,,47,117
351520,note_off,,,,,80,0,2,,,0,,,48,64
351564,set_tempo,,,,,160,1,0,441176,,,,,,
351600,note_off,,,,,80,0,2,,,0,,,47,64
351600,note_on,,,,,0,0,2,,,0,,,45,118
351600,note_on,,,,,120,0,1,,,0,,,66,98
351600,note_on,,,,,0,0,1,,,0,,,69,98
351600,note_on,,,,,0,0,1,,,0,,,74,98
351600,control_change,,,,,0,0,1,,,0,64,96,,
351680,note_on,,,,,0,0,2,,,0,,,47,121
351680,note_off,,,,,80,0,2,,,0,,,45,64
351684,set_tempo,,,,,120,1,0,434783,,,,,,
351720,note_off,,,,,0,0,1,,,0,,,69,64
351720,note_off,,,,,120,0,1,,,0,,,74,64
351720,note_off,,,,,0,0,1,,,0,,,66,64
351760,note_off,,,,,80,0,2,,,0,,,47,64
351760,note_on,,,,,0,0,2,,,0,,,45,121
351784,set_tempo,,,,,100,1,0,422535,,,,,,
351820,control_change,,,,,100,0,1,,,0,64,0,,
351840,note_on,,,,,0,0,2,,,0,,,44,126
351840,control_change,,,,,0,0,1,,,0,64,95,,
351840,note_on,,,,,0,0,1,,,0,,,74,108
351840,note_on,,,,,0,0,1,,,0,,,71,108
351840,note_on,,,,,20,0,1,,,0,,,68,108
351840,note_off,,,,,80,0,2,,,0,,,45,64
351920,note_off,,,,,80,0,2,,,0,,,44,64
351920,note_on,,,,,0,0,2,,,0,,,45,123
351960,note_off,,,,,0,0,1,,,0,,,68,64
351960,note_off,,,,,0,0,1,,,0,,,71,64
351960,note_off,,,,,120,0,1,,,0,,,74,64
352000,note_off,,,,,80,0,2,,,0,,,45,64
352000,note_on,,,,,0,0,2,,,0,,,44,123
352044,set_tempo,,,,,260,1,0,428571,,,,,,
352070,control_change,,,,,110,0,1,,,0,64,0,,
352080,control_change,,,,,0,0,1,,,0,64,95,,
352080,note_on,,,,,0,0,1,,,0,,,75,120
352080,note_on,,,,,0,0,1,,,0,,,71,120
352080,note_on,,,,,10,0,1,,,0,,,69,120
352080,note_on,,,,,0,0,2,,,0,,,42,124
352080,note_off,,,,,80,0,2,,,0,,,44,64
352084,set_tempo,,,,,40,1,0,434783,,,,,,
352104,set_tempo,,,,,20,1,0,437956,,,,,,
352160,note_off,,,,,80,0,2,,,0,,,42,64
352160,note_on,,,,,0,0,2,,,0,,,44,125
352184,set_tempo,,,,,80,1,0,441176,,,,,,
352200,note_off,,,,,120,0,1,,,0,,,75,64
352200,note_off,,,,,0,0,1,,,0,,,71,64
352200,note_off,,,,,0,0,1,,,0,,,69,64
352240,note_on,,,,,0,0,2,,,0,,,42,127
352240,note_off,,,,,80,0,2,,,0,,,44,64
352244,set_tempo,,,,,60,1,0,444444,,,,,,
352290,control_change,,,,,90,0,1,,,0,64,0,,
352320,note_on,,,,,0,0,1,,,0,,,76,127
352320,note_on,,,,,0,0,2,,,0,,,40,127
352320,note_off,,,,,80,0,2,,,0,,,42,64
352320,note_on,,,,,30,0,1,,,0,,,68,127
352320,control_change,,,,,0,0,1,,,0,64,96,,
352320,note_on,,,,,0,0,1,,,0,,,71,127
352364,set_tempo,,,,,120,1,0,500000,,,,,,
352420,control_change,,,,,100,0,1,,,0,64,0,,
352440,note_off,,,,,120,0,2,,,0,,,40,64
352440,note_off,,,,,0,0,1,,,0,,,71,64
352440,note_off,,,,,0,0,1,,,0,,,68,64
352440,note_off,,,,,20,0,1,,,0,,,76,64
352484,set_tempo,,,,,120,1,0,461538,,,,,,
352560,note_on,,,,,0,0,2,,,0,,,44,116
352560,note_on,,,,,120,0,2,,,0,,,40,116
352560,note_on,,,,,0,0,2,,,0,,,52,116
352604,set_tempo,,,,,120,1,0,566038,,,,,,
352680,note_off,,,,,120,0,2,,,0,,,52,64
352680,note_off,,,,,0,0,2,,,0,,,40,64
352680,note_off,,,,,0,0,2,,,0,,,44,64
352724,set_tempo,,,,,120,1,0,571429,,,,,,
352800,note_on,,,,,0,0,2,,,0,,,52,127
352800,note_on,,,,,0,0,2,,,0,,,45,127
352800,note_on,,,,,120,0,2,,,0,,,41,127
352824,set_tempo,,,,,100,1,0,461538,,,,,,
352880,note_on,,,,,440,0,1,,,0,,,83,90
352960,note_off,,,,,80,0,1,,,0,,,83,64
352960,note_on,,,,,0,0,1,,,0,,,84,94
353040,note_off,,,,,80,0,1,,,0,,,84,64
353040,note_on,,,,,0,0,1,,,0,,,86,100
353120,note_on,,,,,0,0,1,,,0,,,84,106
353120,note_off,,,,,80,0,1,,,0,,,86,64
353200,note_on,,,,,0,0,1,,,0,,,83,112
353200,note_off,,,,,80,0,1,,,0,,,84,64
353280,note_off,,,,,80,0,1,,,0,,,83,64
353280,note_on,,,,,0,0,1,,,0,,,84,122
353352,note_off,,,,,72,0,1,,,0,,,84,64
353360,note_on,,,,,8,0,1,,,0,,,81,116
353432,note_off,,,,,72,0,1,,,0,,,81,64
353440,note_on,,,,,8,0,1,,,0,,,79,107
353512,note_off,,,,,72,0,1,,,0,,,79,64
353520,note_on,,,,,8,0,1,,,0,,,77,101
353592,note_off,,,,,72,0,1,,,0,,,77,64
353600,note_on,,,,,8,0,1,,,0,,,76,95
353672,note_off,,,,,72,0,1,,,0,,,76,64
353680,note_on,,,,,8,0,1,,,0,,,74,81
353752,note_off,,,,,72,0,1,,,0,,,74,64
353760,note_on,,,,,0,0,2,,,0,,,51,76
353760,note_off,,,,,960,0,2,,,0,,,52,64
353760,note_on,,,,,8,0,1,,,0,,,72,77
353832,note_off,,,,,72,0,1,,,0,,,72,64
353840,note_on,,,,,8,0,1,,,0,,,71,71
353912,note_off,,,,,72,0,1,,,0,,,71,64
353920,note_on,,,,,8,0,1,,,0,,,69,65
353992,note_off,,,,,72,0,1,,,0,,,69,64
354000,note_on,,,,,8,0,1,,,0,,,68,62
354072,note_off,,,,,72,0,1,,,0,,,68,64
354080,note_on,,,,,8,0,1,,,0,,,71,61
354152,note_off,,,,,72,0,1,,,0,,,71,64
354160,note_on,,,,,8,0,1,,,0,,,69,54
354232,note_off,,,,,72,0,1,,,0,,,69,64
354240,note_on,,,,,8,0,1,,,0,,,64,51
354240,note_on,,,,,0,0,2,,,0,,,44,47
354240,note_on,,,,,0,0,2,,,0,,,40,47
354240,note_off,,,,,0,0,2,,,0,,,45,64
354240,note_off,,,,,480,0,2,,,0,,,51,64
354240,note_on,,,,,0,0,2,,,0,,,52,47
354240,note_off,,,,,0,0,2,,,0,,,41,64
354360,note_off,,,,,120,0,1,,,0,,,64,64
354360,note_off,,,,,0,0,2,,,0,,,44,64
354360,note_off,,,,,0,0,2,,,0,,,40,64
354360,note_off,,,,,120,0,2,,,0,,,52,64
354480,note_on,,,,,0,0,2,,,0,,,64,67
354480,note_on,,,,,0,0,2,,,0,,,56,67
354480,note_on,,,,,120,0,2,,,0,,,52,67
354524,set_tempo,,,,,1700,1,0,566038,,,,,,
354600,note_off,,,,,0,0,2,,,0,,,52,64
354600,note_off,,,,,0,0,2,,,0,,,56,64
354600,note_off,,,,,120,0,2,,,0,,,64,64
354644,set_tempo,,,,,120,1,0,571429,,,,,,
354720,note_on,,,,,0,0,2,,,0,,,64,83
354720,note_on,,,,,0,0,2,,,0,,,57,83
354720,note_on,,,,,120,0,2,,,0,,,53,83
354744,set_tempo,,,,,100,1,0,461538,,,,,,
354800,note_on,,,,,440,0,1,,,0,,,95,72
354880,note_off,,,,,80,0,1,,,0,,,95,64
354880,note_on,,,,,0,0,1,,,0,,,96,70
354960,note_off,,,,,80,0,1,,,0,,,96,64
354960,note_on,,,,,0,0,1,,,0,,,98,71
355040,note_on,,,,,0,0,1,,,0,,,96,77
355040,note_off,,,,,80,0,1,,,0,,,98,64
355120,note_off,,,,,80,0,1,,,0,,,96,64
355120,note_on,,,,,0,0,1,,,0,,,95,88
355200,note_off,,,,,80,0,1,,,0,,,95,64
355200,note_on,,,,,0,0,1,,,0,,,96,94
355244,set_tempo,,,,,500,1,0,472441,,,,,,
355272,note_off,,,,,72,0,1,,,0,,,96,64
355280,note_on,,,,,8,0,1,,,0,,,93,79
355352,note_off,,,,,72,0,1,,,0,,,93,64
355360,note_on,,,,,8,0,1,,,0,,,91,81
355364,set_tempo,,,,,120,1,0,480000,,,,,,
355432,note_off,,,,,72,0,1,,,0,,,91,64
355440,note_on,,,,,8,0,1,,,0,,,89,77
355484,set_tempo,,,,,120,1,0,483871,,,,,,
355512,note_off,,,,,72,0,1,,,0,,,89,64
355520,note_on,,,,,8,0,1,,,0,,,88,67
355592,note_off,,,,,72,0,1,,,0,,,88,64
355600,note_on,,,,,8,0,1,,,0,,,86,63
355624,set_tempo,,,,,140,1,0,487805,,,,,,
355672,note_off,,,,,72,0,1,,,0,,,86,64
355680,note_on,,,,,8,0,1,,,0,,,84,59
355680,note_on,,,,,0,0,2,,,0,,,63,52
355680,note_off,,,,,960,0,2,,,0,,,64,64
355684,set_tempo,,,,,60,1,0,491803,,,,,,
355752,note_off,,,,,72,0,1,,,0,,,84,64
355760,note_on,,,,,8,0,1,,,0,,,83,55
355764,set_tempo,,,,,80,1,0,500000,,,,,,
355832,note_off,,,,,72,0,1,,,0,,,83,64
355840,note_on,,,,,8,0,1,,,0,,,81,49
355912,note_off,,,,,72,0,1,,,0,,,81,64
355920,note_on,,,,,8,0,1,,,0,,,80,46
355924,set_tempo,,,,,160,1,0,508475,,,,,,
355984,set_tempo,,,,,60,1,0,535714,,,,,,
355992,note_off,,,,,72,0,1,,,0,,,80,64
356000,note_on,,,,,8,0,1,,,0,,,83,43
356044,set_tempo,,,,,60,1,0,600000,,,,,,
356072,note_off,,,,,72,0,1,,,0,,,83,64
356080,note_on,,,,,8,0,1,,,0,,,81,40
356100,set_tempo,,,,,56,1,0,625000,,,,,,
356120,set_tempo,,,,,20,1,0,652174,,,,,,
356140,set_tempo,,,,,20,1,0,659341,,,,,,
356152,note_off,,,,,72,0,1,,,0,,,81,64
356160,note_off,,,,,0,0,2,,,0,,,53,64
356160,note_off,,,,,480,0,2,,,0,,,63,64
356160,note_on,,,,,0,0,2,,,0,,,52,38
356160,note_on,,,,,8,0,1,,,0,,,76,44
356160,note_on,,,,,0,0,2,,,0,,,64,38
356160,note_on,,,,,0,0,2,,,0,,,56,38
356160,note_off,,,,,0,0,2,,,0,,,57,64
356180,set_tempo,,,,,40,1,0,789474,,,,,,
356240,note_on,,,,,0,0,1,,,0,,,80,43
356240,note_off,,,,,80,0,1,,,0,,,76,64
356244,set_tempo,,,,,64,1,0,483871,,,,,,
356284,set_tempo,,,,,40,1,0,468750,,,,,,
356320,note_off,,,,,80,0,1,,,0,,,80,64
356320,note_on,,,,,0,0,1,,,0,,,76,41
356364,set_tempo,,,,,80,1,0,461538,,,,,,
356400,note_off,,,,,0,0,2,,,0,,,52,64
356400,note_off,,,,,0,0,2,,,0,,,56,64
356400,note_off,,,,,80,0,1,,,0,,,76,64
356400,note_on,,,,,0,0,1,,,0,,,71,38
356400,note_off,,,,,240,0,2,,,0,,,64,64
356480,note_off,,,,,80,0,1,,,0,,,71,64
356480,note_on,,,,,0,0,1,,,0,,,68,35
356560,note_off,,,,,80,0,1,,,0,,,68,64
356560,note_on,,,,,0,0,1,,,0,,,64,33
356640,note_off,,,,,80,0,1,,,0,,,64,64
356640,note_on,,,,,0,0,1,,,0,,,65,48
356640,control_change,,,,,0,0,1,,,0,64,96,,
356640,note_on,,,,,240,0,2,,,0,,,53,40
356640,note_on,,,,,0,0,2,,,0,,,59,40
356640,note_on,,,,,0,0,2,,,0,,,56,40
356720,note_on,,,,,0,0,1,,,0,,,71,47
356720,note_off,,,,,80,0,1,,,0,,,65,64
356800,note_on,,,,,0,0,1,,,0,,,68,45
356800,note_off,,,,,80,0,1,,,0,,,71,64
356880,note_on,,,,,0,0,1,,,0,,,65,43
356880,note_off,,,,,80,0,1,,,0,,,68,64
356960,note_off,,,,,80,0,1,,,0,,,65,64
356960,note_on,,,,,0,0,1,,,0,,,71,42
357040,note_off,,,,,80,0,1,,,0,,,71,64
357040,note_on,,,,,0,0,1,,,0,,,68,39
357120,note_off,,,,,480,0,2,,,0,,,53,64
357120,note_on,,,,,0,0,1,,,0,,,64,41
357120,control_change,,,,,0,0,1,,,0,64,0,,
357120,note_off,,,,,80,0,1,,,0,,,68,64
357120,note_on,,,,,0,0,2,,,0,,,52,32
357200,note_off,,,,,80,0,1,,,0,,,64,64
357200,note_on,,,,,0,0,1,,,0,,,71,40
357280,note_on,,,,,0,0,1,,,0,,,68,40
357280,note_off,,,,,80,0,1,,,0,,,71,64
357360,note_off,,,,,80,0,1,,,0,,,68,64
357360,note_on,,,,,0,0,1,,,0,,,64,40
357384,set_tempo,,,,,1020,1,0,468750,,,,,,
357440,note_off,,,,,80,0,1,,,0,,,64,64
357440,note_on,,,,,0,0,1,,,0,,,71,40
357520,note_off,,,,,80,0,1,,,0,,,71,64
357520,note_on,,,,,0,0,1,,,0,,,68,39
357540,note_off,,,,,420,0,2,,,0,,,52,64
357540,note_off,,,,,0,0,2,,,0,,,59,64
357540,note_off,,,,,0,0,2,,,0,,,56,64
357600,note_on,,,,,60,0,2,,,0,,,59,33
357600,note_on,,,,,0,0,2,,,0,,,54,33
357600,note_off,,,,,80,0,1,,,0,,,68,64
357600,note_on,,,,,0,0,1,,,0,,,63,39
357600,note_on,,,,,0,0,2,,,0,,,47,33
357664,set_tempo,,,,,280,1,0,472441,,,,,,
357680,note_off,,,,,80,0,1,,,0,,,63,64
357680,note_on,,,,,0,0,1,,,0,,,71,39
357760,note_on,,,,,0,0,1,,,0,,,69,39
357760,note_off,,,,,80,0,1,,,0,,,71,64
357840,note_on,,,,,0,0,1,,,0,,,63,38
357840,note_off,,,,,80,0,1,,,0,,,69,64
357844,set_tempo,,,,,180,1,0,483871,,,,,,
357920,note_off,,,,,80,0,1,,,0,,,63,64
357920,note_on,,,,,0,0,1,,,0,,,71,38
357984,set_tempo,,,,,140,1,0,491803,,,,,,
358000,note_off,,,,,80,0,1,,,0,,,71,64
358000,note_on,,,,,0,0,1,,,0,,,69,38
358080,note_off,,,,,480,0,2,,,0,,,47,64
358080,note_off,,,,,0,0,2,,,0,,,54,64
358080,note_on,,,,,0,0,1,,,0,,,64,37
358080,note_on,,,,,0,0,2,,,0,,,52,32
358080,note_off,,,,,80,0,1,,,0,,,69,64
358080,note_off,,,,,0,0,2,,,0,,,59,64
358080,note_on,,,,,0,0,2,,,0,,,56,32
358080,note_on,,,,,0,0,2,,,0,,,59,32
358160,note_on,,,,,0,0,1,,,0,,,68,36
358160,note_off,,,,,80,0,1,,,0,,,64,64
358184,set_tempo,,,,,200,1,0,500000,,,,,,
358240,note_on,,,,,0,0,1,,,0,,,64,34
358240,note_off,,,,,80,0,1,,,0,,,68,64
358304,set_tempo,,,,,120,1,0,508475,,,,,,
358320,note_off,,,,,0,0,2,,,0,,,56,64
358320,note_off,,,,,240,0,2,,,0,,,52,64
358320,note_off,,,,,80,0,1,,,0,,,64,64
358320,note_off,,,,,0,0,2,,,0,,,59,64
358320,note_on,,,,,0,0,1,,,0,,,59,32
358400,note_on,,,,,0,0,1,,,0,,,56,30
358400,note_off,,,,,80,0,1,,,0,,,59,64
358404,set_tempo,,,,,100,1,0,517241,,,,,,
358464,set_tempo,,,,,60,1,0,540541,,,,,,
358480,note_on,,,,,0,0,1,,,0,,,52,29
358480,note_off,,,,,80,0,1,,,0,,,56,64
358504,set_tempo,,,,,40,1,0,588235,,,,,,
358560,control_change,,,,,0,0,1,,,0,64,95,,
358560,note_off,,,,,80,0,1,,,0,,,52,64
358560,note_on,,,,,0,0,1,,,0,,,53,46
358560,note_on,,,,,240,0,2,,,0,,,41,52
358564,set_tempo,,,,,60,1,0,508475,,,,,,
358604,set_tempo,,,,,40,1,0,491803,,,,,,
358640,note_on,,,,,0,0,1,,,0,,,59,45
358640,note_off,,,,,80,0,1,,,0,,,53,64
358664,set_tempo,,,,,60,1,0,487805,,,,,,
358704,set_tempo,,,,,40,1,0,476190,,,,,,
358720,note_on,,,,,0,0,1,,,0,,,56,43
358720,note_off,,,,,80,0,1,,,0,,,59,64
358764,set_tempo,,,,,60,1,0,468750,,,,,,
358790,control_change,,,,,70,0,1,,,0,64,0,,
358800,control_change,,,,,0,0,1,,,0,64,96,,
358800,note_on,,,,,0,0,1,,,0,,,53,38
358800,note_off,,,,,10,0,1,,,0,,,56,64
358880,note_off,,,,,80,0,1,,,0,,,53,64
358880,note_on,,,,,0,0,1,,,0,,,59,37
358960,note_off,,,,,80,0,1,,,0,,,59,64
358960,note_on,,,,,0,0,1,,,0,,,56,37
359004,set_tempo,,,,,240,1,0,472441,,,,,,
359030,control_change,,,,,70,0,1,,,0,64,0,,
359040,note_off,,,,,10,0,1,,,0,,,56,64
359040,note_on,,,,,0,0,1,,,0,,,52,35
359040,note_off,,,,,480,0,2,,,0,,,41,64
359040,note_on,,,,,0,0,2,,,0,,,40,48
359120,note_on,,,,,0,0,1,,,0,,,59,33
359120,note_off,,,,,80,0,1,,,0,,,52,64
359200,note_on,,,,,0,0,1,,,0,,,56,32
359200,note_off,,,,,80,0,1,,,0,,,59,64
359280,note_off,,,,,80,0,1,,,0,,,56,64
359280,note_on,,,,,0,0,1,,,0,,,52,31
359360,note_on,,,,,0,0,1,,,0,,,59,31
359360,note_off,,,,,80,0,1,,,0,,,52,64
359364,set_tempo,,,,,360,1,0,480000,,,,,,
359440,note_on,,,,,0,0,1,,,0,,,56,30
359440,note_off,,,,,80,0,1,,,0,,,59,64
359520,note_on,,,,,0,0,2,,,0,,,35,48
359520,note_off,,,,,80,0,1,,,0,,,56,64
359520,note_on,,,,,0,0,1,,,0,,,51,30
359520,note_off,,,,,480,0,2,,,0,,,40,64
359584,set_tempo,,,,,220,1,0,483871,,,,,,
359600,note_on,,,,,0,0,1,,,0,,,59,30
359600,note_off,,,,,80,0,1,,,0,,,51,64
359680,note_on,,,,,0,0,1,,,0,,,57,30
359680,note_off,,,,,80,0,1,,,0,,,59,64
359760,note_on,,,,,0,0,1,,,0,,,51,30
359760,note_off,,,,,80,0,1,,,0,,,57,64
359840,note_on,,,,,0,0,1,,,0,,,59,32
359840,note_off,,,,,80,0,1,,,0,,,51,64
359864,set_tempo,,,,,280,1,0,491803,,,,,,
359920,note_off,,,,,80,0,1,,,0,,,59,64
359920,note_on,,,,,0,0,1,,,0,,,57,32
360000,note_on,,,,,0,0,1,,,0,,,52,34
360000,note_off,,,,,80,0,1,,,0,,,57,64
360000,note_on,,,,,0,0,2,,,0,,,40,43
360000,note_off,,,,,480,0,2,,,0,,,35,64
360080,note_on,,,,,0,0,1,,,0,,,59,35
360080,note_off,,,,,80,0,1,,,0,,,52,64
360160,note_off,,,,,80,0,1,,,0,,,59,64
360160,note_on,,,,,0,0,1,,,0,,,56,36
360184,set_tempo,,,,,320,1,0,500000,,,,,,
360240,note_on,,,,,0,0,1,,,0,,,52,37
360240,note_off,,,,,80,0,1,,,0,,,56,64
360320,note_on,,,,,0,0,1,,,0,,,59,38
360320,note_off,,,,,80,0,1,,,0,,,52,64
360400,note_on,,,,,0,0,1,,,0,,,56,41
360400,note_off,,,,,80,0,1,,,0,,,59,64
360480,note_on,,,,,0,0,1,,,0,,,51,41
360480,note_off,,,,,80,0,1,,,0,,,56,64
360480,note_off,,,,,480,0,2,,,0,,,40,64
360480,note_on,,,,,0,0,2,,,0,,,35,56
360480,control_change,,,,,0,0,1,,,0,64,95,,
360484,set_tempo,,,,,300,1,0,504202,,,,,,
360560,note_off,,,,,80,0,1,,,0,,,51,64
360560,note_on,,,,,0,0,1,,,0,,,59,39
360640,note_on,,,,,0,0,1,,,0,,,57,36
360640,note_off,,,,,80,0,1,,,0,,,59,64
360704,set_tempo,,,,,220,1,0,517241,,,,,,
360710,control_change,,,,,70,0,1,,,0,64,0,,
360720,note_off,,,,,10,0,1,,,0,,,57,64
360720,note_on,,,,,0,0,1,,,0,,,51,33
360720,control_change,,,,,0,0,1,,,0,64,95,,
360780,note_on,,,,,60,0,1,,,0,,,60,31
360800,note_off,,,,,20,0,1,,,0,,,51,64
360860,note_off,,,,,60,0,1,,,0,,,60,64
360880,note_on,,,,,20,0,1,,,0,,,57,31
360904,set_tempo,,,,,200,1,0,530973,,,,,,
360960,note_off,,,,,480,0,2,,,0,,,35,64
360960,note_off,,,,,80,0,1,,,0,,,57,64
360960,note_on,,,,,0,0,1,,,0,,,52,31
360960,control_change,,,,,0,0,1,,,0,64,0,,
360960,note_on,,,,,0,0,2,,,0,,,40,50
361040,note_off,,,,,80,0,1,,,0,,,52,64
361040,note_on,,,,,0,0,1,,,0,,,59,36
361044,set_tempo,,,,,140,1,0,545455,,,,,,
361120,note_off,,,,,80,0,1,,,0,,,59,64
361120,note_on,,,,,0,0,1,,,0,,,57,33
361200,note_off,,,,,80,0,1,,,0,,,57,64
361200,note_on,,,,,0,0,1,,,0,,,52,31
361244,set_tempo,,,,,200,1,0,576923,,,,,,
361280,note_off,,,,,80,0,1,,,0,,,52,64
361280,note_on,,,,,0,0,1,,,0,,,59,32
361360,note_on,,,,,0,0,1,,,0,,,56,34
361360,note_off,,,,,80,0,1,,,0,,,59,64
361364,set_tempo,,,,,120,1,0,638298,,,,,,
361440,note_on,,,,,0,0,1,,,0,,,51,38
361440,note_off,,,,,80,0,1,,,0,,,56,64
361440,control_change,,,,,0,0,1,,,0,64,94,,
361440,note_on,,,,,0,0,2,,,0,,,35,50
361440,note_off,,,,,480,0,2,,,0,,,40,64
361520,note_off,,,,,80,0,1,,,0,,,51,64
361520,note_on,,,,,0,0,1,,,0,,,59,36
361524,set_tempo,,,,,160,1,0,714286,,,,,,
361600,note_on,,,,,0,0,1,,,0,,,57,34
361600,note_off,,,,,80,0,1,,,0,,,59,64
361624,set_tempo,,,,,100,1,0,857143,,,,,,
361680,note_on,,,,,0,0,1,,,0,,,51,34
361680,note_off,,,,,80,0,1,,,0,,,57,64
361760,note_on,,,,,0,0,1,,,0,,,60,31
361760,note_off,,,,,80,0,1,,,0,,,51,64
361840,note_on,,,,,0,0,1,,,0,,,57,26
361840,note_off,,,,,80,0,1,,,0,,,60,64
361900,control_change,,,,,60,0,1,,,0,64,0,,
361920,note_on,,,,,0,0,1,,,0,,,56,29
361920,note_on,,,,,0,0,1,,,0,,,59,29
361920,note_off,,,,,20,0,1,,,0,,,57,64
361920,note_off,,,,,480,0,2,,,0,,,35,64
361922,note_on,,,,,2,0,2,,,0,,,40,44
362000,note_off,,,,,80,0,1,,,0,,,56,64
362000,note_off,,,,,0,0,1,,,0,,,59,64
362000,note_on,,,,,0,0,1,,,0,,,52,30
362046,set_tempo,,,,,422,1,0,594059,,,,,,
362066,set_tempo,,,,,20,1,0,588235,,,,,,
362080,note_on,,,,,0,0,1,,,0,,,51,33
362080,note_off,,,,,80,0,1,,,0,,,52,64
362160,note_off,,,,,80,0,1,,,0,,,51,64
362160,note_on,,,,,0,0,1,,,0,,,52,35
362162,note_off,,,,,240,0,2,,,0,,,40,64
362206,set_tempo,,,,,140,1,0,576923,,,,,,
362240,note_off,,,,,80,0,1,,,0,,,52,64
362240,note_on,,,,,0,0,1,,,0,,,56,37
362266,set_tempo,,,,,60,1,0,571429,,,,,,
362306,set_tempo,,,,,40,1,0,566038,,,,,,
362320,note_on,,,,,0,0,1,,,0,,,55,37
362320,note_off,,,,,80,0,1,,,0,,,56,64
362326,set_tempo,,,,,20,1,0,560748,,,,,,
362400,note_on,,,,,0,0,1,,,0,,,56,39
362400,note_off,,,,,80,0,1,,,0,,,55,64
362466,set_tempo,,,,,140,1,0,550459,,,,,,
362480,note_on,,,,,0,0,1,,,0,,,59,41
362480,note_off,,,,,80,0,1,,,0,,,56,64
362526,set_tempo,,,,,60,1,0,545455,,,,,,
362560,note_on,,,,,0,0,1,,,0,,,58,43
362560,note_off,,,,,80,0,1,,,0,,,59,64
362586,set_tempo,,,,,60,1,0,540541,,,,,,
362640,note_on,,,,,0,0,1,,,0,,,59,45
362640,note_off,,,,,80,0,1,,,0,,,58,64
362720,note_on,,,,,0,0,1,,,0,,,64,47
362720,note_off,,,,,80,0,1,,,0,,,59,64
362746,set_tempo,,,,,160,1,0,530973,,,,,,
362800,note_off,,,,,80,0,1,,,0,,,64,64
362800,note_on,,,,,0,0,1,,,0,,,63,47
362866,set_tempo,,,,,120,1,0,526316,,,,,,
362880,note_on,,,,,0,0,1,,,0,,,64,49
362880,note_off,,,,,80,0,1,,,0,,,63,64
362960,note_on,,,,,0,0,1,,,0,,,68,33
362960,note_off,,,,,80,0,1,,,0,,,64,64
363026,set_tempo,,,,,160,1,0,521739,,,,,,
363040,note_on,,,,,0,0,1,,,0,,,67,35
363040,note_off,,,,,80,0,1,,,0,,,68,64
363120,note_off,,,,,80,0,1,,,0,,,67,64
363120,note_on,,,,,0,0,1,,,0,,,68,37
363200,note_off,,,,,80,0,1,,,0,,,68,64
363200,note_on,,,,,0,0,1,,,0,,,71,41
363280,note_off,,,,,80,0,1,,,0,,,71,64
363280,note_on,,,,,0,0,1,,,0,,,70,42
363360,note_off,,,,,80,0,1,,,0,,,70,64
363360,note_on,,,,,0,0,1,,,0,,,71,43
363440,note_on,,,,,0,0,1,,,0,,,76,46
363440,note_off,,,,,80,0,1,,,0,,,71,64
363466,set_tempo,,,,,440,1,0,512821,,,,,,
363520,note_off,,,,,80,0,1,,,0,,,76,64
363520,note_on,,,,,0,0,1,,,0,,,75,46
363600,note_on,,,,,0,0,1,,,0,,,76,44
363600,note_off,,,,,80,0,1,,,0,,,75,64
363626,set_tempo,,,,,160,1,0,508475,,,,,,
363680,note_off,,,,,80,0,1,,,0,,,76,64
363680,note_on,,,,,0,0,1,,,0,,,80,42
363760,note_off,,,,,80,0,1,,,0,,,80,64
363760,note_on,,,,,0,0,1,,,0,,,79,42
363806,set_tempo,,,,,180,1,0,500000,,,,,,
363840,note_on,,,,,0,0,1,,,0,,,80,40
363840,note_off,,,,,80,0,1,,,0,,,79,64
363948,note_off,,,,,108,0,1,,,0,,,80,64
363960,note_on,,,,,12,0,1,,,0,,,81,29
364050,note_off,,,,,90,0,1,,,0,,,81,64
364080,note_on,,,,,30,0,1,,,0,,,83,31
364170,note_off,,,,,90,0,1,,,0,,,83,64
364200,note_on,,,,,30,0,1,,,0,,,81,32
364290,note_off,,,,,90,0,1,,,0,,,81,64
364320,note_on,,,,,30,0,1,,,0,,,80,35
364410,note_off,,,,,90,0,1,,,0,,,80,64
364440,note_on,,,,,30,0,1,,,0,,,78,36
364530,note_off,,,,,90,0,1,,,0,,,78,64
364560,note_on,,,,,30,0,1,,,0,,,76,38
364650,note_off,,,,,90,0,1,,,0,,,76,64
364680,note_on,,,,,30,0,1,,,0,,,75,40
364770,note_off,,,,,90,0,1,,,0,,,75,64
364800,note_on,,,,,30,0,1,,,0,,,76,40
364908,note_off,,,,,108,0,1,,,0,,,76,64
364920,note_on,,,,,12,0,1,,,0,,,78,32
364986,set_tempo,,,,,1180,1,0,504202,,,,,,
365006,set_tempo,,,,,20,1,0,508475,,,,,,
365010,note_off,,,,,90,0,1,,,0,,,78,64
365026,set_tempo,,,,,20,1,0,512821,,,,,,
365040,note_on,,,,,30,0,1,,,0,,,80,27
365046,set_tempo,,,,,20,1,0,759494,,,,,,
365100,note_off,,,,,60,0,1,,,0,,,80,64
365106,set_tempo,,,,,60,1,0,540541,,,,,,
365146,set_tempo,,,,,40,1,0,618557,,,,,,
365160,note_on,,,,,0,0,1,,,0,,,80,36
365160,note_on,,,,,0,0,1,,,0,,,83,36
365160,note_on,,,,,60,0,1,,,0,,,76,36
365186,set_tempo,,,,,40,1,0,612245,,,,,,
365226,set_tempo,,,,,40,1,0,606061,,,,,,
365250,note_off,,,,,90,0,1,,,0,,,83,64
365250,note_off,,,,,0,0,1,,,0,,,76,64
365250,note_off,,,,,0,0,1,,,0,,,80,64
365266,set_tempo,,,,,40,1,0,600000,,,,,,
365280,note_on,,,,,0,0,1,,,0,,,78,36
365280,note_on,,,,,30,0,1,,,0,,,75,36
365280,note_on,,,,,0,0,1,,,0,,,83,36
365370,note_off,,,,,90,0,1,,,0,,,83,64
365370,note_off,,,,,0,0,1,,,0,,,78,64
365370,note_off,,,,,0,0,1,,,0,,,75,64
365386,set_tempo,,,,,120,1,0,594059,,,,,,
365400,note_on,,,,,30,0,1,,,0,,,73,36
365400,note_on,,,,,0,0,1,,,0,,,76,36
365400,note_on,,,,,0,0,1,,,0,,,83,36
365406,set_tempo,,,,,20,1,0,588235,,,,,,
365486,set_tempo,,,,,80,1,0,576923,,,,,,
365490,note_off,,,,,90,0,1,,,0,,,83,64
365490,note_off,,,,,0,0,1,,,0,,,76,64
365490,note_off,,,,,0,0,1,,,0,,,73,64
365520,note_on,,,,,0,0,1,,,0,,,75,32
365520,note_on,,,,,30,0,1,,,0,,,71,32
365520,note_on,,,,,0,0,1,,,0,,,83,32
365526,set_tempo,,,,,40,1,0,582524,,,,,,
365566,set_tempo,,,,,40,1,0,600000,,,,,,
365586,set_tempo,,,,,20,1,0,606061,,,,,,
365610,note_off,,,,,0,0,1,,,0,,,71,64
365610,note_off,,,,,0,0,1,,,0,,,75,64
365610,note_off,,,,,90,0,1,,,0,,,83,64
365626,set_tempo,,,,,40,1,0,631579,,,,,,
365640,note_on,,,,,0,0,1,,,0,,,78,30
365640,note_on,,,,,30,0,1,,,0,,,69,30
365640,note_on,,,,,0,0,1,,,0,,,83,30
365646,set_tempo,,,,,20,1,0,638298,,,,,,
365666,set_tempo,,,,,20,1,0,645161,,,,,,
365686,set_tempo,,,,,20,1,0,652174,,,,,,
365706,set_tempo,,,,,20,1,0,659341,,,,,,
365730,note_off,,,,,90,0,1,,,0,,,83,64
365730,note_off,,,,,0,0,1,,,0,,,69,64
365730,note_off,,,,,0,0,1,,,0,,,78,64
365760,note_on,,,,,0,0,1,,,0,,,68,30
365760,note_on,,,,,0,0,1,,,0,,,76,30
365760,note_on,,,,,30,0,1,,,0,,,83,30
365868,note_off,,,,,108,0,1,,,0,,,68,64
365880,note_on,,,,,12,0,1,,,0,,,69,28
365906,set_tempo,,,,,200,1,0,540541,,,,,,
365926,set_tempo,,,,,20,1,0,521739,,,,,,
365970,note_off,,,,,90,0,1,,,0,,,69,64
366000,note_on,,,,,0,0,1,,,0,,,71,28
366000,note_off,,,,,0,0,1,,,0,,,83,64
366000,note_off,,,,,30,0,1,,,0,,,76,64
366090,note_off,,,,,90,0,1,,,0,,,71,64
366120,note_on,,,,,30,0,1,,,0,,,69,28
366210,note_off,,,,,90,0,1,,,0,,,69,64
366240,note_on,,,,,30,0,1,,,0,,,68,28
366266,set_tempo,,,,,340,1,0,526316,,,,,,
366306,set_tempo,,,,,40,1,0,530973,,,,,,
366330,note_off,,,,,90,0,1,,,0,,,68,64
366360,note_on,,,,,30,0,1,,,0,,,66,30
366366,set_tempo,,,,,60,1,0,535714,,,,,,
366426,set_tempo,,,,,60,1,0,540541,,,,,,
366450,note_off,,,,,90,0,1,,,0,,,66,64
366480,note_on,,,,,30,0,1,,,0,,,64,33
366506,set_tempo,,,,,80,1,0,550459,,,,,,
366570,note_off,,,,,90,0,1,,,0,,,64,64
366600,note_on,,,,,30,0,1,,,0,,,63,37
366626,set_tempo,,,,,120,1,0,555556,,,,,,
366666,set_tempo,,,,,40,1,0,560748,,,,,,
366690,note_off,,,,,90,0,1,,,0,,,63,64
366720,note_on,,,,,30,0,1,,,0,,,64,37
366786,set_tempo,,,,,120,1,0,571429,,,,,,
366806,set_tempo,,,,,20,1,0,576923,,,,,,
366826,note_off,,,,,106,0,1,,,0,,,64,64
366840,note_on,,,,,14,0,1,,,0,,,65,30
366846,set_tempo,,,,,40,1,0,582524,,,,,,
366866,set_tempo,,,,,20,1,0,588235,,,,,,
366882,set_tempo,,,,,16,1,0,638298,,,,,,
366930,note_off,,,,,90,0,1,,,0,,,65,64
366940,set_tempo,,,,,58,1,0,759494,,,,,,
366960,note_on,,,,,30,0,1,,,0,,,66,26
367020,note_off,,,,,60,0,1,,,0,,,66,64
367026,set_tempo,,,,,86,1,0,540541,,,,,,
367080,note_on,,,,,0,0,1,,,0,,,64,33
367080,note_on,,,,,0,0,1,,,0,,,76,33
367080,note_on,,,,,60,0,1,,,0,,,68,33
367086,set_tempo,,,,,60,1,0,681818,,,,,,
367146,set_tempo,,,,,60,1,0,779221,,,,,,
367166,set_tempo,,,,,20,1,0,800000,,,,,,
367170,note_off,,,,,0,0,1,,,0,,,68,64
367170,note_off,,,,,0,0,1,,,0,,,76,64
367170,note_off,,,,,90,0,1,,,0,,,64,64
367186,set_tempo,,,,,20,1,0,810811,,,,,,
367200,note_on,,,,,30,0,1,,,0,,,66,38
367200,note_on,,,,,0,0,1,,,0,,,76,38
367200,note_on,,,,,0,0,1,,,0,,,63,38
367226,set_tempo,,,,,40,1,0,821918,,,,,,
367246,set_tempo,,,,,20,1,0,869565,,,,,,
367266,set_tempo,,,,,20,1,0,895522,,,,,,
367290,note_off,,,,,0,0,1,,,0,,,66,64
367290,note_off,,,,,0,0,1,,,0,,,76,64
367290,note_off,,,,,90,0,1,,,0,,,63,64
367306,set_tempo,,,,,40,1,0,952381,,,,,,
367320,note_on,,,,,30,0,1,,,0,,,68,34
367320,note_on,,,,,0,0,1,,,0,,,76,34
367320,note_on,,,,,0,0,1,,,0,,,62,34
367320,note_on,,,,,0,0,1,,,0,,,64,34
367326,set_tempo,,,,,20,1,0,983607,,,,,,
367346,set_tempo,,,,,20,1,0,1000000,,,,,,
367366,set_tempo,,,,,20,1,0,1016949,,,,,,
367386,set_tempo,,,,,20,1,0,1034483,,,,,,
367406,set_tempo,,,,,20,1,0,1071429,,,,,,
367410,note_off,,,,,0,0,1,,,0,,,62,64
367410,note_off,,,,,0,0,1,,,0,,,68,64
367410,note_off,,,,,0,0,1,,,0,,,76,64
367410,note_off,,,,,90,0,1,,,0,,,64,64
367426,set_tempo,,,,,20,1,0,1111111,,,,,,
367440,note_on,,,,,0,0,1,,,0,,,64,30
367440,note_on,,,,,0,0,1,,,0,,,61,30
367440,note_on,,,,,0,0,1,,,0,,,76,30
367440,note_on,,,,,30,0,1,,,0,,,69,30
367466,set_tempo,,,,,40,1,0,1153846,,,,,,
367486,set_tempo,,,,,20,1,0,1200000,,,,,,
367506,set_tempo,,,,,20,1,0,1276596,,,,,,
367530,note_off,,,,,0,0,1,,,0,,,61,64
367530,note_off,,,,,0,0,1,,,0,,,76,64
367530,note_off,,,,,0,0,1,,,0,,,69,64
367530,note_off,,,,,90,0,1,,,0,,,64,64
367546,set_tempo,,,,,40,1,0,1304348,,,,,,
367560,note_on,,,,,0,0,1,,,0,,,76,27
367560,note_on,,,,,0,0,1,,,0,,,68,27
367560,note_on,,,,,30,0,1,,,0,,,62,27
367560,note_on,,,,,0,0,1,,,0,,,59,27
367566,set_tempo,,,,,20,1,0,1363636,,,,,,
367586,set_tempo,,,,,20,1,0,1428571,,,,,,
367626,set_tempo,,,,,40,1,0,1463415,,,,,,
367646,set_tempo,,,,,20,1,0,1500000,,,,,,
367650,note_off,,,,,0,0,1,,,0,,,68,64
367650,note_off,,,,,0,0,1,,,0,,,76,64
367650,note_off,,,,,90,0,1,,,0,,,59,64
367650,note_off,,,,,0,0,1,,,0,,,62,64
367680,note_on,,,,,5518,0,2,,,0,,,61,29
367680,note_on,,,,,30,0,1,,,0,,,76,32
367680,note_on,,,,,0,0,2,,,0,,,69,29
367680,note_on,,,,,0,0,2,,,0,,,57,29
367706,set_tempo,,,,,60,1,0,461538,,,,,,
368160,note_off,,,,,480,0,1,,,0,,,76,64
368160,note_on,,,,,0,0,1,,,0,,,81,34
368164,control_change,,,,,4,0,1,,,0,64,95,,
368166,set_tempo,,,,,460,1,0,500000,,,,,,
368280,note_on,,,,,0,0,1,,,0,,,80,24
368280,note_off,,,,,116,0,1,,,0,,,81,64
368400,note_off,,,,,120,0,1,,,0,,,80,64
368400,note_on,,,,,0,0,1,,,0,,,78,29
368520,note_off,,,,,120,0,1,,,0,,,78,64
368520,note_on,,,,,0,0,1,,,0,,,76,30
368614,control_change,,,,,94,0,1,,,0,64,0,,
368620,note_off,,,,,6,0,1,,,0,,,76,64
368640,note_off,,,,,0,0,2,,,0,,,61,64
368640,note_on,,,,,0,0,2,,,0,,,62,30
368640,note_off,,,,,960,0,2,,,0,,,69,64
368640,note_on,,,,,20,0,1,,,0,,,68,37
368640,note_on,,,,,0,0,1,,,0,,,76,37
368640,note_off,,,,,0,0,2,,,0,,,57,64
368640,note_on,,,,,0,0,2,,,0,,,59,30
368646,set_tempo,,,,,480,1,0,659341,,,,,,
368706,set_tempo,,,,,60,1,0,545455,,,,,,
368850,note_off,,,,,0,0,2,,,0,,,59,64
368850,note_off,,,,,0,0,1,,,0,,,68,64
368850,note_off,,,,,210,0,1,,,0,,,76,64
368850,note_off,,,,,210,0,2,,,0,,,62,64
368880,note_on,,,,,0,0,1,,,0,,,76,34
368880,note_on,,,,,30,0,1,,,0,,,68,34
368880,note_on,,,,,30,0,2,,,0,,,59,32
368880,note_on,,,,,0,0,2,,,0,,,62,32
368886,set_tempo,,,,,180,1,0,517241,,,,,,
369060,note_off,,,,,0,0,1,,,0,,,68,64
369060,note_off,,,,,180,0,2,,,0,,,62,64
369060,note_off,,,,,180,0,1,,,0,,,76,64
369060,note_off,,,,,0,0,2,,,0,,,59,64
369120,note_on,,,,,0,0,2,,,0,,,62,28
369120,note_on,,,,,0,0,1,,,0,,,76,32
369120,note_on,,,,,60,0,2,,,0,,,59,28
369120,note_on,,,,,60,0,1,,,0,,,68,32
369146,set_tempo,,,,,260,1,0,500000,,,,,,
369300,note_off,,,,,0,0,1,,,0,,,68,64
369300,note_off,,,,,180,0,1,,,0,,,76,64
369300,note_off,,,,,0,0,2,,,0,,,59,64
369300,note_off,,,,,180,0,2,,,0,,,62,64
369360,note_on,,,,,60,0,1,,,0,,,68,28
369360,note_on,,,,,0,0,1,,,0,,,76,28
369360,note_on,,,,,0,0,2,,,0,,,62,27
369360,note_on,,,,,60,0,2,,,0,,,59,27
369366,set_tempo,,,,,220,1,0,480000,,,,,,
369540,note_off,,,,,0,0,1,,,0,,,68,64
369540,note_off,,,,,180,0,1,,,0,,,76,64
369540,note_off,,,,,180,0,2,,,0,,,62,64
369540,note_off,,,,,0,0,2,,,0,,,59,64
369600,note_on,,,,,60,0,2,,,0,,,61,33
369600,note_on,,,,,0,0,2,,,0,,,64,33
369600,note_on,,,,,60,0,1,,,0,,,69,35
369600,note_on,,,,,0,0,1,,,0,,,76,35
369606,set_tempo,,,,,240,1,0,500000,,,,,,
369840,note_off,,,,,0,0,2,,,0,,,61,64
369840,note_off,,,,,240,0,2,,,0,,,64,64
369840,note_on,,,,,0,0,2,,,0,,,57,29
369840,note_on,,,,,0,0,2,,,0,,,61,29
369840,note_off,,,,,240,0,1,,,0,,,76,64
369840,note_on,,,,,0,0,1,,,0,,,73,31
370026,set_tempo,,,,,420,1,0,759494,,,,,,
370080,note_on,,,,,0,0,2,,,0,,,66,39
370080,note_on,,,,,0,0,2,,,0,,,62,39
370080,note_off,,,,,0,0,2,,,0,,,57,64
370080,note_off,,,,,240,0,1,,,0,,,73,64
370080,note_on,,,,,0,0,1,,,0,,,78,38
370080,note_on,,,,,0,0,1,,,0,,,69,38
370080,note_off,,,,,0,0,1,,,0,,,69,64
370080,note_off,,,,,240,0,2,,,0,,,61,64
370084,control_change,,,,,4,0,1,,,0,64,96,,
370086,set_tempo,,,,,60,1,0,545455,,,,,,
370500,note_off,,,,,0,0,1,,,0,,,69,64
370500,note_off,,,,,0,0,2,,,0,,,62,64
370500,note_off,,,,,420,0,2,,,0,,,66,64
370500,note_off,,,,,416,0,1,,,0,,,78,64
370524,control_change,,,,,24,0,1,,,0,64,0,,
370560,note_on,,,,,36,0,1,,,0,,,69,31
370560,note_on,,,,,0,0,1,,,0,,,76,31
370560,note_on,,,,,0,0,2,,,0,,,64,31
370560,note_on,,,,,60,0,2,,,0,,,61,31
370566,set_tempo,,,,,480,1,0,495868,,,,,,
370800,note_off,,,,,240,0,2,,,0,,,64,64
370800,note_off,,,,,0,0,2,,,0,,,61,64
370800,note_off,,,,,240,0,1,,,0,,,76,64
370800,note_on,,,,,0,0,1,,,0,,,73,27
370800,note_on,,,,,0,0,2,,,0,,,61,27
370800,note_on,,,,,0,0,2,,,0,,,57,27
370986,set_tempo,,,,,420,1,0,857143,,,,,,
371040,note_off,,,,,0,0,2,,,0,,,57,64
371040,note_off,,,,,240,0,2,,,0,,,61,64
371040,note_off,,,,,0,0,1,,,0,,,69,64
371040,note_off,,,,,240,0,1,,,0,,,73,64
371040,note_on,,,,,0,0,1,,,0,,,68,28
371040,note_on,,,,,0,0,1,,,0,,,71,28
371040,note_on,,,,,0,0,2,,,0,,,52,27
371040,note_on,,,,,0,0,2,,,0,,,59,27
371044,control_change,,,,,4,0,1,,,0,64,97,,
371046,set_tempo,,,,,60,1,0,600000,,,,,,
371406,set_tempo,,,,,360,1,0,857143,,,,,,
371484,control_change,,,,,440,0,1,,,0,64,0,,
371526,set_tempo,,,,,120,1,0,500000,,,,,,
371940,note_off,,,,,0,0,2,,,0,,,59,64
371940,note_off,,,,,456,0,1,,,0,,,68,64
371940,note_off,,,,,0,0,1,,,0,,,71,64
371940,note_off,,,,,900,0,2,,,0,,,52,64
372120,note_on,,,,,180,0,1,,,0,,,71,23
372120,note_on,,,,,0,0,1,,,0,,,83,23
372240,note_on,,,,,0,0,1,,,0,,,85,26
372240,note_off,,,,,0,0,1,,,0,,,71,64
372240,note_on,,,,,0,0,1,,,0,,,73,26
372240,note_off,,,,,120,0,1,,,0,,,83,64
372360,note_off,,,,,120,0,1,,,0,,,85,64
372360,note_off,,,,,0,0,1,,,0,,,73,64
372360,note_on,,,,,0,0,1,,,0,,,86,28
372360,note_on,,,,,0,0,1,,,0,,,74,28
372480,note_on,,,,,540,0,2,,,0,,,73,38
372480,note_off,,,,,120,0,1,,,0,,,74,64
372480,note_off,,,,,0,0,1,,,0,,,86,64
372480,note_on,,,,,0,0,2,,,0,,,69,38
372480,note_on,,,,,0,0,1,,,0,,,76,32
372480,note_on,,,,,0,0,2,,,0,,,81,38
372480,note_on,,,,,0,0,1,,,0,,,88,32
372486,set_tempo,,,,,960,1,0,1500000,,,,,,
372506,set_tempo,,,,,20,1,0,461538,,,,,,
372960,note_off,,,,,480,0,1,,,0,,,76,64
372960,note_off,,,,,0,0,1,,,0,,,88,64
372960,note_on,,,,,0,0,1,,,0,,,81,34
372960,note_on,,,,,0,0,1,,,0,,,93,34
372964,control_change,,,,,4,0,1,,,0,64,95,,
372966,set_tempo,,,,,460,1,0,500000,,,,,,
373080,note_off,,,,,116,0,1,,,0,,,93,64
373080,note_off,,,,,0,0,1,,,0,,,81,64
373080,note_on,,,,,0,0,1,,,0,,,80,24
373080,note_on,,,,,0,0,1,,,0,,,92,24
373200,note_on,,,,,0,0,1,,,0,,,78,29
373200,note_off,,,,,0,0,1,,,0,,,80,64
373200,note_off,,,,,120,0,1,,,0,,,92,64
373200,note_on,,,,,0,0,1,,,0,,,90,29
373320,note_off,,,,,0,0,1,,,0,,,78,64
373320,note_on,,,,,0,0,1,,,0,,,76,30
373320,note_on,,,,,0,0,1,,,0,,,88,30
373320,note_off,,,,,120,0,1,,,0,,,90,64
373414,control_change,,,,,94,0,1,,,0,64,0,,
373420,note_off,,,,,6,0,1,,,0,,,88,64
373420,note_off,,,,,0,0,1,,,0,,,76,64
373440,note_off,,,,,0,0,2,,,0,,,69,64
373440,note_off,,,,,0,0,2,,,0,,,73,64
373440,note_on,,,,,0,0,2,,,0,,,71,36
373440,note_on,,,,,0,0,2,,,0,,,74,36
373440,note_off,,,,,960,0,2,,,0,,,81,64
373440,note_on,,,,,0,0,1,,,0,,,88,37
373440,note_on,,,,,20,0,1,,,0,,,76,37
373440,note_on,,,,,0,0,1,,,0,,,80,37
373446,set_tempo,,,,,480,1,0,600000,,,,,,
373466,set_tempo,,,,,20,1,0,594059,,,,,,
373506,set_tempo,,,,,40,1,0,545455,,,,,,
373650,note_off,,,,,0,0,1,,,0,,,76,64
373650,note_off,,,,,0,0,1,,,0,,,80,64
373650,note_off,,,,,210,0,1,,,0,,,88,64
373650,note_off,,,,,0,0,2,,,0,,,71,64
373650,note_off,,,,,210,0,2,,,0,,,74,64
373680,note_on,,,,,30,0,1,,,0,,,76,34
373680,note_on,,,,,0,0,1,,,0,,,88,34
373680,note_on,,,,,30,0,2,,,0,,,71,32
373680,note_on,,,,,0,0,1,,,0,,,80,34
373680,note_on,,,,,0,0,2,,,0,,,74,32
373686,set_tempo,,,,,180,1,0,517241,,,,,,
373860,note_off,,,,,0,0,1,,,0,,,76,64
373860,note_off,,,,,0,0,1,,,0,,,80,64
373860,note_off,,,,,180,0,1,,,0,,,88,64
373860,note_off,,,,,180,0,2,,,0,,,74,64
373860,note_off,,,,,0,0,2,,,0,,,71,64
373920,note_on,,,,,0,0,1,,,0,,,88,32
373920,note_on,,,,,0,0,2,,,0,,,74,28
373920,note_on,,,,,60,0,2,,,0,,,71,28
373920,note_on,,,,,60,0,1,,,0,,,76,32
373920,note_on,,,,,0,0,1,,,0,,,80,32
373946,set_tempo,,,,,260,1,0,500000,,,,,,
374100,note_off,,,,,180,0,2,,,0,,,74,64
374100,note_off,,,,,0,0,1,,,0,,,76,64
374100,note_off,,,,,0,0,1,,,0,,,80,64
374100,note_off,,,,,180,0,1,,,0,,,88,64
374100,note_off,,,,,0,0,2,,,0,,,71,64
374160,note_on,,,,,0,0,2,,,0,,,74,27
374160,note_on,,,,,0,0,1,,,0,,,80,28
374160,note_on,,,,,0,0,1,,,0,,,88,28
374160,note_on,,,,,60,0,1,,,0,,,76,28
374160,note_on,,,,,60,0,2,,,0,,,71,27
374166,set_tempo,,,,,220,1,0,480000,,,,,,
374340,note_off,,,,,180,0,2,,,0,,,74,64
374340,note_off,,,,,180,0,1,,,0,,,88,64
374340,note_off,,,,,0,0,1,,,0,,,80,64
374340,note_off,,,,,0,0,1,,,0,,,76,64
374340,note_off,,,,,0,0,2,,,0,,,71,64
374400,note_on,,,,,60,0,2,,,0,,,72,27
374400,note_on,,,,,0,0,2,,,0,,,76,27
374400,note_on,,,,,60,0,1,,,0,,,81,32
374400,note_on,,,,,0,0,1,,,0,,,88,32
374406,set_tempo,,,,,240,1,0,500000,,,,,,
374640,note_off,,,,,0,0,2,,,0,,,72,64
374640,note_off,,,,,240,0,2,,,0,,,76,64
374640,note_off,,,,,240,0,1,,,0,,,88,64
374640,note_on,,,,,0,0,1,,,0,,,84,40
374640,note_on,,,,,0,0,2,,,0,,,72,37
374640,note_on,,,,,0,0,2,,,0,,,69,37
374644,control_change,,,,,4,0,1,,,0,64,96,,
374826,set_tempo,,,,,420,1,0,606061,,,,,,
374880,note_on,,,,,0,0,1,,,0,,,89,46
374880,note_on,,,,,0,0,2,,,0,,,77,47
374880,note_off,,,,,0,0,2,,,0,,,72,64
374880,note_off,,,,,240,0,2,,,0,,,69,64
374880,note_off,,,,,236,0,1,,,0,,,84,64
374880,note_off,,,,,0,0,1,,,0,,,81,64
374880,note_on,,,,,0,0,2,,,0,,,74,47
374880,note_on,,,,,0,0,1,,,0,,,81,46
374886,set_tempo,,,,,60,1,0,545455,,,,,,
375120,note_on,,,,,0,0,1,,,0,,,83,43
375120,note_off,,,,,240,0,1,,,0,,,81,64
375324,control_change,,,,,204,0,1,,,0,64,0,,
375360,note_on,,,,,0,0,1,,,0,,,84,39
375360,note_on,,,,,0,0,1,,,0,,,88,39
375360,note_off,,,,,480,0,2,,,0,,,74,64
375360,note_on,,,,,0,0,2,,,0,,,72,37
375360,note_off,,,,,0,0,1,,,0,,,89,64
375360,note_off,,,,,36,0,1,,,0,,,83,64
375360,note_off,,,,,0,0,2,,,0,,,77,64
375360,note_on,,,,,0,0,2,,,0,,,76,37
375366,set_tempo,,,,,480,1,0,495868,,,,,,
375486,set_tempo,,,,,120,1,0,526316,,,,,,
375600,note_off,,,,,240,0,2,,,0,,,76,64
375600,note_on,,,,,0,0,2,,,0,,,72,30
375600,note_on,,,,,0,0,2,,,0,,,64,30
375600,note_off,,,,,240,0,1,,,0,,,88,64
375600,note_off,,,,,0,0,1,,,0,,,84,64
375600,note_on,,,,,0,0,1,,,0,,,79,32
375600,note_on,,,,,0,0,1,,,0,,,84,32
375600,note_off,,,,,0,0,2,,,0,,,72,64
375686,set_tempo,,,,,200,1,0,571429,,,,,,
375786,set_tempo,,,,,100,1,0,697674,,,,,,
375840,note_on,,,,,0,0,1,,,0,,,83,23
375840,note_on,,,,,0,0,1,,,0,,,86,23
375840,note_off,,,,,240,0,1,,,0,,,84,64
375840,note_on,,,,,0,0,2,,,0,,,74,24
375840,note_off,,,,,0,0,1,,,0,,,79,64
375840,note_off,,,,,0,0,2,,,0,,,64,64
375840,note_off,,,,,240,0,2,,,0,,,72,64
375840,note_on,,,,,0,0,2,,,0,,,67,24
375844,control_change,,,,,4,0,1,,,0,64,97,,
375846,set_tempo,,,,,60,1,0,600000,,,,,,
376284,control_change,,,,,440,0,1,,,0,64,0,,
376326,set_tempo,,,,,480,1,0,500000,,,,,,
376740,note_off,,,,,900,0,2,,,0,,,74,64
376740,note_off,,,,,0,0,2,,,0,,,67,64
376740,note_off,,,,,0,0,1,,,0,,,83,64
376740,note_off,,,,,456,0,1,,,0,,,86,64
376806,set_tempo,,,,,480,1,0,491803,,,,,,
376886,set_tempo,,,,,80,1,0,483871,,,,,,
376920,note_on,,,,,180,0,2,,,0,,,55,30
376986,set_tempo,,,,,100,1,0,468750,,,,,,
377040,note_off,,,,,120,0,2,,,0,,,55,64
377040,note_on,,,,,0,0,2,,,0,,,54,37
377086,set_tempo,,,,,100,1,0,461538,,,,,,
377160,note_on,,,,,0,0,2,,,0,,,53,42
377160,note_off,,,,,120,0,2,,,0,,,54,64
377280,note_on,,,,,540,0,1,,,0,,,67,37
377280,note_on,,,,,0,0,1,,,0,,,72,37
377280,note_off,,,,,120,0,2,,,0,,,53,64
377280,note_on,,,,,0,0,2,,,0,,,52,44
377400,note_on,,,,,120,0,2,,,0,,,55,29
377520,note_off,,,,,120,0,2,,,0,,,55,64
377520,note_on,,,,,0,0,2,,,0,,,60,30
377640,note_on,,,,,0,0,2,,,0,,,55,30
377640,note_off,,,,,120,0,2,,,0,,,60,64
377760,note_on,,,,,0,0,1,,,0,,,74,29
377760,note_off,,,,,480,0,1,,,0,,,72,64
377760,note_on,,,,,0,0,2,,,0,,,60,34
377760,note_off,,,,,120,0,2,,,0,,,55,64
377880,note_off,,,,,120,0,1,,,0,,,74,64
377880,note_on,,,,,0,0,2,,,0,,,55,35
377880,note_off,,,,,120,0,2,,,0,,,60,64
377880,note_on,,,,,0,0,1,,,0,,,72,35
378000,note_on,,,,,0,0,2,,,0,,,60,40
378000,note_off,,,,,120,0,2,,,0,,,55,64
378000,note_off,,,,,120,0,1,,,0,,,72,64
378000,note_on,,,,,0,0,1,,,0,,,74,38
378120,note_on,,,,,0,0,2,,,0,,,55,41
378120,note_off,,,,,120,0,2,,,0,,,60,64
378120,note_off,,,,,120,0,1,,,0,,,74,64
378120,note_on,,,,,0,0,1,,,0,,,72,42
378240,note_on,,,,,0,0,2,,,0,,,53,51
378240,note_off,,,,,0,0,2,,,0,,,52,64
378240,note_off,,,,,120,0,2,,,0,,,55,64
378240,note_off,,,,,120,0,1,,,0,,,72,64
378240,note_on,,,,,0,0,1,,,0,,,71,51
378346,set_tempo,,,,,1260,1,0,495868,,,,,,
378360,note_on,,,,,120,0,2,,,0,,,55,45
378480,note_off,,,,,240,0,1,,,0,,,71,64
378480,note_on,,,,,0,0,1,,,0,,,71,50
378480,note_on,,,,,0,0,1,,,0,,,67,50
378480,note_on,,,,,0,0,2,,,0,,,62,46
378480,note_on,,,,,0,0,1,,,0,,,79,50
378480,note_off,,,,,0,0,1,,,0,,,67,64
378480,note_off,,,,,120,0,2,,,0,,,55,64
378484,control_change,,,,,4,0,1,,,0,64,95,,
378486,set_tempo,,,,,140,1,0,461538,,,,,,
378566,set_tempo,,,,,80,1,0,472441,,,,,,
378600,note_off,,,,,120,0,2,,,0,,,62,64
378600,note_on,,,,,0,0,2,,,0,,,55,43
378660,note_off,,,,,176,0,1,,,0,,,79,64
378660,note_off,,,,,0,0,1,,,0,,,71,64
378660,note_off,,,,,0,0,1,,,0,,,67,64
378666,set_tempo,,,,,100,1,0,483871,,,,,,
378720,note_on,,,,,0,0,2,,,0,,,62,35
378720,note_on,,,,,60,0,1,,,0,,,67,39
378720,note_on,,,,,0,0,1,,,0,,,71,39
378720,note_on,,,,,0,0,1,,,0,,,79,39
378720,note_off,,,,,120,0,2,,,0,,,55,64
378724,control_change,,,,,4,0,1,,,0,64,0,,
378826,set_tempo,,,,,160,1,0,491803,,,,,,
378840,note_on,,,,,0,0,2,,,0,,,55,30
378840,note_off,,,,,120,0,2,,,0,,,62,64
378900,note_off,,,,,0,0,1,,,0,,,67,64
378900,note_off,,,,,0,0,1,,,0,,,71,64
378900,note_off,,,,,176,0,1,,,0,,,79,64
378946,set_tempo,,,,,120,1,0,500000,,,,,,
378960,note_on,,,,,60,0,1,,,0,,,67,32
378960,note_off,,,,,120,0,2,,,0,,,55,64
378960,note_on,,,,,0,0,2,,,0,,,62,24
378960,note_on,,,,,0,0,1,,,0,,,79,32
378960,note_on,,,,,0,0,1,,,0,,,71,32
379066,set_tempo,,,,,120,1,0,512821,,,,,,
379080,note_on,,,,,0,0,2,,,0,,,55,22
379080,note_off,,,,,120,0,2,,,0,,,62,64
379140,note_off,,,,,180,0,1,,,0,,,79,64
379140,note_off,,,,,0,0,1,,,0,,,71,64
379140,note_off,,,,,0,0,1,,,0,,,67,64
379146,set_tempo,,,,,80,1,0,521739,,,,,,
379200,note_off,,,,,120,0,2,,,0,,,55,64
379200,note_off,,,,,0,0,2,,,0,,,53,64
379200,note_on,,,,,0,0,2,,,0,,,52,38
379200,note_on,,,,,0,0,1,,,0,,,72,37
379200,note_on,,,,,60,0,1,,,0,,,67,37
379206,set_tempo,,,,,60,1,0,461538,,,,,,
379320,note_on,,,,,120,0,2,,,0,,,55,29
379440,note_on,,,,,0,0,2,,,0,,,60,30
379440,note_off,,,,,120,0,2,,,0,,,55,64
379440,note_off,,,,,240,0,1,,,0,,,72,64
379440,note_on,,,,,0,0,1,,,0,,,71,30
379446,set_tempo,,,,,240,1,0,451128,,,,,,
379560,note_on,,,,,0,0,2,,,0,,,55,30
379560,note_off,,,,,120,0,2,,,0,,,60,64
379560,note_off,,,,,120,0,1,,,0,,,71,64
379560,note_on,,,,,0,0,1,,,0,,,72,36
379586,set_tempo,,,,,140,1,0,447761,,,,,,
379680,note_off,,,,,120,0,2,,,0,,,55,64
379680,note_on,,,,,0,0,2,,,0,,,60,34
379680,note_on,,,,,0,0,1,,,0,,,77,40
379680,note_off,,,,,120,0,1,,,0,,,72,64
379786,set_tempo,,,,,200,1,0,437956,,,,,,
379800,note_on,,,,,0,0,1,,,0,,,76,39
379800,note_off,,,,,120,0,2,,,0,,,60,64
379800,note_on,,,,,0,0,2,,,0,,,55,35
379800,note_off,,,,,120,0,1,,,0,,,77,64
379920,note_off,,,,,120,0,1,,,0,,,76,64
379920,note_off,,,,,120,0,2,,,0,,,55,64
379920,note_on,,,,,0,0,2,,,0,,,60,40
379920,note_on,,,,,0,0,1,,,0,,,74,47
379926,set_tempo,,,,,140,1,0,441176,,,,,,
380040,note_off,,,,,120,0,1,,,0,,,74,64
380040,note_on,,,,,0,0,1,,,0,,,72,52
380040,note_on,,,,,0,0,2,,,0,,,55,41
380040,note_off,,,,,120,0,2,,,0,,,60,64
380046,set_tempo,,,,,120,1,0,447761,,,,,,
380146,set_tempo,,,,,100,1,0,454545,,,,,,
380160,note_on,,,,,0,0,1,,,0,,,71,52
380160,note_off,,,,,120,0,1,,,0,,,72,64
380160,note_on,,,,,0,0,2,,,0,,,53,51
380160,note_off,,,,,0,0,2,,,0,,,52,64
380160,note_off,,,,,120,0,2,,,0,,,55,64
380266,set_tempo,,,,,120,1,0,521739,,,,,,
380280,note_on,,,,,120,0,2,,,0,,,55,45
380400,note_off,,,,,0,0,1,,,0,,,67,64
380400,note_off,,,,,240,0,1,,,0,,,71,64
380400,note_on,,,,,0,0,1,,,0,,,79,50
380400,note_on,,,,,0,0,1,,,0,,,71,50
380400,note_on,,,,,0,0,1,,,0,,,67,50
380400,note_off,,,,,120,0,2,,,0,,,55,64
380400,note_on,,,,,0,0,2,,,0,,,62,46
380404,control_change,,,,,4,0,1,,,0,64,95,,
380406,set_tempo,,,,,140,1,0,461538,,,,,,
380446,set_tempo,,,,,40,1,0,508475,,,,,,
380466,set_tempo,,,,,20,1,0,521739,,,,,,
380506,set_tempo,,,,,40,1,0,566038,,,,,,
380520,note_on,,,,,0,0,2,,,0,,,55,43
380520,note_off,,,,,120,0,2,,,0,,,62,64
380580,note_off,,,,,0,0,1,,,0,,,67,64
380580,note_off,,,,,176,0,1,,,0,,,79,64
380580,note_off,,,,,0,0,1,,,0,,,71,64
380640,note_off,,,,,120,0,2,,,0,,,55,64
380640,note_on,,,,,0,0,2,,,0,,,62,35
380640,note_on,,,,,0,0,1,,,0,,,79,39
380640,note_on,,,,,0,0,1,,,0,,,71,39
380640,note_on,,,,,60,0,1,,,0,,,67,39
380644,control_change,,,,,4,0,1,,,0,64,0,,
380746,set_tempo,,,,,240,1,0,588235,,,,,,
380760,note_off,,,,,120,0,2,,,0,,,62,64
380760,note_on,,,,,0,0,2,,,0,,,55,30
380820,note_off,,,,,0,0,1,,,0,,,67,64
380820,note_off,,,,,0,0,1,,,0,,,71,64
380820,note_off,,,,,176,0,1,,,0,,,79,64
380866,set_tempo,,,,,120,1,0,618557,,,,,,
380880,note_on,,,,,0,0,1,,,0,,,79,32
380880,note_on,,,,,60,0,1,,,0,,,67,32
380880,note_on,,,,,0,0,1,,,0,,,71,32
380880,note_on,,,,,0,0,2,,,0,,,62,24
380880,note_off,,,,,120,0,2,,,0,,,55,64
380886,set_tempo,,,,,20,1,0,625000,,,,,,
381000,note_on,,,,,0,0,2,,,0,,,55,22
381000,note_off,,,,,120,0,2,,,0,,,62,64
381006,set_tempo,,,,,120,1,0,638298,,,,,,
381046,set_tempo,,,,,40,1,0,674157,,,,,,
381060,note_off,,,,,180,0,1,,,0,,,79,64
381060,note_off,,,,,0,0,1,,,0,,,71,64
381060,note_off,,,,,0,0,1,,,0,,,67,64
381120,note_off,,,,,120,0,2,,,0,,,55,64
381120,note_on,,,,,0,0,2,,,0,,,52,47
381120,note_off,,,,,0,0,2,,,0,,,53,64
381120,note_on,,,,,60,0,1,,,0,,,72,37
381120,note_on,,,,,0,0,1,,,0,,,79,37
381126,set_tempo,,,,,80,1,0,458015,,,,,,
381240,note_on,,,,,120,0,2,,,0,,,55,29
381306,set_tempo,,,,,180,1,0,454545,,,,,,
381326,set_tempo,,,,,20,1,0,451128,,,,,,
381360,note_on,,,,,0,0,2,,,0,,,60,30
381360,note_off,,,,,120,0,2,,,0,,,55,64
381480,note_off,,,,,120,0,2,,,0,,,60,64
381480,note_on,,,,,0,0,2,,,0,,,55,30
381600,note_on,,,,,0,0,1,,,0,,,78,46
381600,note_off,,,,,120,0,2,,,0,,,55,64
381600,note_on,,,,,0,0,2,,,0,,,60,34
381600,note_off,,,,,480,0,1,,,0,,,79,64
381604,control_change,,,,,4,0,1,,,0,64,95,,
381626,set_tempo,,,,,300,1,0,447761,,,,,,
381720,note_off,,,,,120,0,2,,,0,,,60,64
381720,note_on,,,,,0,0,2,,,0,,,55,35
381720,note_off,,,,,116,0,1,,,0,,,78,64
381720,note_on,,,,,0,0,1,,,0,,,79,54
381840,note_off,,,,,120,0,2,,,0,,,55,64
381840,note_off,,,,,120,0,1,,,0,,,79,64
381840,note_on,,,,,0,0,1,,,0,,,84,55
381840,note_on,,,,,0,0,2,,,0,,,60,40
381960,note_off,,,,,120,0,2,,,0,,,60,64
381960,note_on,,,,,0,0,2,,,0,,,55,41
381960,note_on,,,,,0,0,1,,,0,,,83,66
381960,note_off,,,,,120,0,1,,,0,,,84,64
381986,set_tempo,,,,,360,1,0,444444,,,,,,
382054,control_change,,,,,94,0,1,,,0,64,0,,
382080,note_off,,,,,0,0,2,,,0,,,52,64
382080,note_off,,,,,26,0,1,,,0,,,83,64
382080,note_on,,,,,0,0,1,,,0,,,81,70
382080,note_on,,,,,0,0,2,,,0,,,40,51
382080,note_off,,,,,120,0,2,,,0,,,55,64
382084,control_change,,,,,4,0,1,,,0,64,95,,
382086,set_tempo,,,,,100,1,0,461538,,,,,,
382200,note_off,,,,,120,0,2,,,0,,,40,64
382200,note_on,,,,,0,0,2,,,0,,,62,51
382306,set_tempo,,,,,220,1,0,437956,,,,,,
382320,note_on,,,,,0,0,1,,,0,,,71,60
382320,note_off,,,,,0,0,1,,,0,,,72,64
382320,note_off,,,,,236,0,1,,,0,,,81,64
382320,note_off,,,,,120,0,2,,,0,,,62,64
382320,note_on,,,,,0,0,2,,,0,,,52,55
382320,note_on,,,,,0,0,1,,,0,,,80,60
382440,note_off,,,,,120,0,2,,,0,,,52,64
382440,note_on,,,,,0,0,2,,,0,,,62,59
382500,note_off,,,,,0,0,1,,,0,,,80,64
382500,note_off,,,,,180,0,1,,,0,,,71,64
382560,note_on,,,,,60,0,1,,,0,,,80,72
382560,note_on,,,,,0,0,1,,,0,,,71,72
382560,note_on,,,,,0,0,2,,,0,,,52,61
382560,note_off,,,,,120,0,2,,,0,,,62,64
382646,set_tempo,,,,,340,1,0,431655,,,,,,
382680,note_off,,,,,120,0,2,,,0,,,52,64
382680,note_on,,,,,0,0,2,,,0,,,62,68
382740,note_off,,,,,180,0,1,,,0,,,71,64
382740,note_off,,,,,0,0,1,,,0,,,80,64
382800,note_on,,,,,0,0,2,,,0,,,53,73
382800,note_on,,,,,60,0,1,,,0,,,80,85
382800,note_on,,,,,0,0,1,,,0,,,71,85
382800,note_off,,,,,120,0,2,,,0,,,62,64
382806,set_tempo,,,,,160,1,0,422535,,,,,,
382920,note_on,,,,,0,0,2,,,0,,,62,73
382920,note_off,,,,,120,0,2,,,0,,,53,64
382980,note_off,,,,,180,0,1,,,0,,,71,64
382980,note_off,,,,,0,0,1,,,0,,,80,64
383024,control_change,,,,,44,0,1,,,0,64,0,,
383040,note_on,,,,,0,0,2,,,0,,,54,87
383040,note_off,,,,,120,0,2,,,0,,,62,64
383040,note_on,,,,,16,0,1,,,0,,,69,88
383040,note_on,,,,,0,0,1,,,0,,,81,88
383044,control_change,,,,,4,0,1,,,0,64,95,,
383160,note_on,,,,,0,0,2,,,0,,,61,77
383160,note_off,,,,,120,0,2,,,0,,,54,64
383280,note_on,,,,,0,0,2,,,0,,,57,70
383280,note_off,,,,,120,0,2,,,0,,,61,64
383400,note_off,,,,,120,0,2,,,0,,,57,64
383400,note_on,,,,,0,0,2,,,0,,,54,62
383504,control_change,,,,,460,0,1,,,0,64,0,,
383520,note_on,,,,,0,0,2,,,0,,,50,57
383520,note_off,,,,,16,0,1,,,0,,,81,64
383520,note_on,,,,,0,0,1,,,0,,,80,58
383520,note_off,,,,,120,0,2,,,0,,,54,64
383524,control_change,,,,,4,0,1,,,0,64,95,,
383640,note_off,,,,,120,0,2,,,0,,,50,64
383640,note_on,,,,,0,0,2,,,0,,,62,53
383744,control_change,,,,,220,0,1,,,0,64,0,,
383760,note_off,,,,,16,0,1,,,0,,,80,64
383760,note_off,,,,,120,0,2,,,0,,,62,64
383760,note_on,,,,,0,0,2,,,0,,,57,46
383760,note_on,,,,,0,0,1,,,0,,,78,44
383764,control_change,,,,,4,0,1,,,0,64,95,,
383880,note_off,,,,,120,0,2,,,0,,,57,64
383880,note_on,,,,,0,0,2,,,0,,,54,40
383970,note_off,,,,,206,0,1,,,0,,,78,64
383984,control_change,,,,,14,0,1,,,0,64,0,,
384000,note_on,,,,,0,0,2,,,0,,,52,44
384000,note_off,,,,,120,0,2,,,0,,,54,64
384000,note_on,,,,,0,0,1,,,0,,,76,51
384000,note_off,,,,,16,0,1,,,0,,,69,64
384004,control_change,,,,,4,0,1,,,0,64,95,,
384120,note_on,,,,,0,0,1,,,0,,,64,36
384120,note_off,,,,,116,0,1,,,0,,,76,64
384186,set_tempo,,,,,1380,1,0,416667,,,,,,
384240,note_on,,,,,240,0,2,,,0,,,57,38
384240,note_on,,,,,0,0,2,,,0,,,61,38
384240,note_on,,,,,0,0,1,,,0,,,69,48
384240,note_off,,,,,120,0,1,,,0,,,64,64
384286,set_tempo,,,,,100,1,0,410959,,,,,,
384360,note_on,,,,,0,0,1,,,0,,,73,53
384360,note_off,,,,,120,0,1,,,0,,,69,64
384466,set_tempo,,,,,180,1,0,416667,,,,,,
384480,note_off,,,,,120,0,1,,,0,,,73,64
384480,note_on,,,,,0,0,2,,,0,,,62,53
384480,note_on,,,,,0,0,2,,,0,,,59,53
384480,note_off,,,,,240,0,2,,,0,,,61,64
384480,note_off,,,,,0,0,2,,,0,,,57,64
384480,note_on,,,,,0,0,1,,,0,,,71,57
384586,set_tempo,,,,,120,1,0,422535,,,,,,
384600,note_off,,,,,120,0,1,,,0,,,71,64
384600,note_on,,,,,0,0,1,,,0,,,74,52
384686,set_tempo,,,,,100,1,0,428571,,,,,,
384720,note_on,,,,,0,0,2,,,0,,,56,44
384720,note_on,,,,,0,0,2,,,0,,,64,44
384720,note_off,,,,,240,0,2,,,0,,,62,64
384720,note_off,,,,,0,0,2,,,0,,,59,64
384720,note_on,,,,,0,0,1,,,0,,,68,46
384720,note_off,,,,,120,0,1,,,0,,,74,64
384826,set_tempo,,,,,140,1,0,437956,,,,,,
384840,note_on,,,,,0,0,1,,,0,,,76,38
384840,note_off,,,,,120,0,1,,,0,,,68,64
384934,control_change,,,,,94,0,1,,,0,64,0,,
384940,note_off,,,,,6,0,1,,,0,,,76,64
384960,note_off,,,,,240,0,2,,,0,,,56,64
384960,note_off,,,,,0,0,2,,,0,,,64,64
384960,note_off,,,,,0,0,2,,,0,,,52,64
384960,note_on,,,,,0,0,2,,,0,,,40,44
384960,note_on,,,,,20,0,1,,,0,,,64,51
384964,control_change,,,,,4,0,1,,,0,64,95,,
385046,set_tempo,,,,,220,1,0,422535,,,,,,
385080,note_off,,,,,116,0,1,,,0,,,64,64
385080,note_on,,,,,0,0,1,,,0,,,52,36
385166,set_tempo,,,,,120,1,0,416667,,,,,,
385200,note_off,,,,,120,0,1,,,0,,,52,64
385200,note_on,,,,,0,0,1,,,0,,,57,48
385320,note_on,,,,,0,0,1,,,0,,,61,53
385320,note_off,,,,,120,0,1,,,0,,,57,64
385326,set_tempo,,,,,160,1,0,410959,,,,,,
385440,note_on,,,,,0,0,1,,,0,,,54,57
385440,note_off,,,,,120,0,1,,,0,,,61,64
385526,set_tempo,,,,,200,1,0,416667,,,,,,
385560,note_off,,,,,120,0,1,,,0,,,54,64
385560,note_on,,,,,0,0,1,,,0,,,62,52
385606,set_tempo,,,,,80,1,0,422535,,,,,,
385666,set_tempo,,,,,60,1,0,437956,,,,,,
385680,note_off,,,,,120,0,1,,,0,,,62,64
385680,note_on,,,,,0,0,1,,,0,,,56,46
385746,set_tempo,,,,,80,1,0,441176,,,,,,
385800,note_off,,,,,120,0,1,,,0,,,56,64
385804,note_on,,,,,4,0,1,,,0,,,64,38
385846,set_tempo,,,,,100,1,0,447761,,,,,,
385894,control_change,,,,,90,0,1,,,0,64,0,,
385904,note_off,,,,,10,0,1,,,0,,,64,64
385920,note_on,,,,,0,0,2,,,0,,,64,44
385920,note_off,,,,,960,0,2,,,0,,,40,64
385920,note_on,,,,,16,0,1,,,0,,,76,44
385946,set_tempo,,,,,100,1,0,444444,,,,,,
385998,note_off,,,,,78,0,1,,,0,,,76,64
386000,note_on,,,,,2,0,1,,,0,,,75,35
386078,note_off,,,,,78,0,1,,,0,,,75,64
386080,note_on,,,,,2,0,1,,,0,,,76,35
386086,set_tempo,,,,,140,1,0,437956,,,,,,
386158,note_off,,,,,78,0,1,,,0,,,76,64
386160,note_on,,,,,0,0,2,,,0,,,73,38
386160,note_on,,,,,240,0,2,,,0,,,69,38
386160,note_on,,,,,2,0,1,,,0,,,77,39
386238,note_off,,,,,78,0,1,,,0,,,77,64
386240,note_on,,,,,2,0,1,,,0,,,78,40
386318,note_off,,,,,78,0,1,,,0,,,78,64
386320,note_on,,,,,2,0,1,,,0,,,79,47
386346,set_tempo,,,,,260,1,0,434783,,,,,,
386398,note_off,,,,,78,0,1,,,0,,,79,64
386400,note_on,,,,,2,0,1,,,0,,,78,47
386400,note_off,,,,,240,0,2,,,0,,,73,64
386400,note_off,,,,,0,0,2,,,0,,,69,64
386400,note_on,,,,,0,0,2,,,0,,,74,53
386400,note_on,,,,,0,0,2,,,0,,,71,53
386478,note_off,,,,,78,0,1,,,0,,,78,64
386480,note_on,,,,,2,0,1,,,0,,,80,50
386558,note_off,,,,,78,0,1,,,0,,,80,64
386560,note_on,,,,,2,0,1,,,0,,,81,55
386638,note_off,,,,,78,0,1,,,0,,,81,64
386640,note_on,,,,,0,0,2,,,0,,,76,43
386640,note_on,,,,,0,0,2,,,0,,,68,43
386640,note_on,,,,,2,0,1,,,0,,,82,55
386640,note_off,,,,,240,0,2,,,0,,,74,64
386640,note_off,,,,,0,0,2,,,0,,,71,64
386646,set_tempo,,,,,300,1,0,425532,,,,,,
386718,note_off,,,,,78,0,1,,,0,,,82,64
386720,note_on,,,,,2,0,1,,,0,,,83,62
386726,set_tempo,,,,,80,1,0,416667,,,,,,
386798,note_off,,,,,78,0,1,,,0,,,83,64
386800,note_on,,,,,2,0,1,,,0,,,84,68
386806,set_tempo,,,,,80,1,0,410959,,,,,,
386878,note_off,,,,,78,0,1,,,0,,,84,64
386880,note_on,,,,,2,0,1,,,0,,,85,77
386880,note_off,,,,,240,0,2,,,0,,,68,64
386880,note_on,,,,,0,0,2,,,0,,,52,35
386880,note_off,,,,,0,0,2,,,0,,,64,64
386880,note_off,,,,,0,0,2,,,0,,,76,64
386926,set_tempo,,,,,120,1,0,405405,,,,,,
386958,note_off,,,,,78,0,1,,,0,,,85,64
386960,note_on,,,,,2,0,1,,,0,,,83,79
387038,note_off,,,,,78,0,1,,,0,,,83,64
387040,note_on,,,,,2,0,1,,,0,,,81,75
387118,note_off,,,,,78,0,1,,,0,,,81,64
387120,note_on,,,,,0,0,2,,,0,,,61,33
387120,note_on,,,,,240,0,2,,,0,,,57,33
387120,note_on,,,,,2,0,1,,,0,,,80,69
387186,set_tempo,,,,,260,1,0,416667,,,,,,
387198,note_off,,,,,78,0,1,,,0,,,80,64
387200,note_on,,,,,2,0,1,,,0,,,81,66
387278,note_off,,,,,78,0,1,,,0,,,81,64
387280,note_on,,,,,2,0,1,,,0,,,78,60
387346,set_tempo,,,,,160,1,0,425532,,,,,,
387358,note_off,,,,,78,0,1,,,0,,,78,64
387360,note_on,,,,,2,0,1,,,0,,,77,56
387360,note_off,,,,,240,0,2,,,0,,,61,64
387360,note_off,,,,,0,0,2,,,0,,,57,64
387360,note_on,,,,,0,0,2,,,0,,,59,38
387360,note_on,,,,,0,0,2,,,0,,,62,38
387438,note_off,,,,,78,0,1,,,0,,,77,64
387440,note_on,,,,,2,0,1,,,0,,,78,52
387518,note_off,,,,,78,0,1,,,0,,,78,64
387520,note_on,,,,,2,0,1,,,0,,,74,49
387566,set_tempo,,,,,220,1,0,434783,,,,,,
387598,note_off,,,,,78,0,1,,,0,,,74,64
387600,note_off,,,,,0,0,2,,,0,,,59,64
387600,note_on,,,,,0,0,2,,,0,,,64,27
387600,note_on,,,,,2,0,1,,,0,,,73,47
387600,note_off,,,,,240,0,2,,,0,,,62,64
387600,note_on,,,,,0,0,2,,,0,,,56,27
387626,set_tempo,,,,,60,1,0,437956,,,,,,
387678,note_off,,,,,78,0,1,,,0,,,73,64
387680,note_on,,,,,2,0,1,,,0,,,74,46
387758,note_off,,,,,78,0,1,,,0,,,74,64
387760,note_on,,,,,2,0,1,,,0,,,71,45
387838,note_off,,,,,78,0,1,,,0,,,71,64
387840,note_on,,,,,2,0,1,,,0,,,70,50
387918,note_off,,,,,78,0,1,,,0,,,70,64
387920,note_on,,,,,2,0,1,,,0,,,71,44
387926,set_tempo,,,,,300,1,0,447761,,,,,,
387998,note_off,,,,,78,0,1,,,0,,,71,64
388000,note_on,,,,,2,0,1,,,0,,,68,44
388078,note_off,,,,,78,0,1,,,0,,,68,64
388080,note_off,,,,,0,0,2,,,0,,,64,64
388080,note_off,,,,,480,0,2,,,0,,,52,64
388080,note_off,,,,,0,0,2,,,0,,,56,64
388080,note_on,,,,,2,0,1,,,0,,,67,44
388158,note_off,,,,,78,0,1,,,0,,,67,64
388160,note_on,,,,,2,0,1,,,0,,,68,44
388186,set_tempo,,,,,260,1,0,458015,,,,,,
388238,note_off,,,,,78,0,1,,,0,,,68,64
388240,note_on,,,,,2,0,1,,,0,,,64,44
388318,note_off,,,,,78,0,1,,,0,,,64,64
388320,note_on,,,,,2,0,1,,,0,,,63,48
388398,note_off,,,,,78,0,1,,,0,,,63,64
388400,note_on,,,,,2,0,1,,,0,,,64,44
388426,set_tempo,,,,,240,1,0,465116,,,,,,
388478,note_off,,,,,78,0,1,,,0,,,64,64
388480,note_on,,,,,2,0,1,,,0,,,63,44
388506,set_tempo,,,,,80,1,0,468750,,,,,,
388558,note_off,,,,,78,0,1,,,0,,,63,64
388560,note_on,,,,,2,0,1,,,0,,,64,44
388638,note_off,,,,,78,0,1,,,0,,,64,64
388640,note_on,,,,,2,0,1,,,0,,,66,44
388666,set_tempo,,,,,160,1,0,472441,,,,,,
388718,note_off,,,,,78,0,1,,,0,,,66,64
388720,note_on,,,,,2,0,1,,,0,,,64,42
388786,set_tempo,,,,,120,1,0,487805,,,,,,
388798,note_off,,,,,78,0,1,,,0,,,64,64
388800,note_on,,,,,2,0,1,,,0,,,63,42
388878,note_off,,,,,78,0,1,,,0,,,63,64
388880,note_on,,,,,2,0,1,,,0,,,64,39
388958,note_off,,,,,78,0,1,,,0,,,64,64
388960,note_on,,,,,2,0,1,,,0,,,63,38
389038,note_off,,,,,78,0,1,,,0,,,63,64
389040,note_on,,,,,2,0,1,,,0,,,64,34
389066,set_tempo,,,,,280,1,0,500000,,,,,,
389118,note_off,,,,,78,0,1,,,0,,,64,64
389120,note_on,,,,,2,0,1,,,0,,,66,32
389146,set_tempo,,,,,80,1,0,517241,,,,,,
389198,note_off,,,,,78,0,1,,,0,,,66,64
389200,note_on,,,,,2,0,1,,,0,,,64,30
389226,set_tempo,,,,,80,1,0,526316,,,,,,
389278,note_off,,,,,78,0,1,,,0,,,64,64
389280,note_on,,,,,2,0,1,,,0,,,66,34
389286,set_tempo,,,,,60,1,0,545455,,,,,,
389358,note_off,,,,,78,0,1,,,0,,,66,64
389360,note_on,,,,,2,0,1,,,0,,,64,28
389386,set_tempo,,,,,100,1,0,571429,,,,,,
389438,note_off,,,,,78,0,1,,,0,,,64,64
389440,note_on,,,,,2,0,1,,,0,,,66,27
389486,set_tempo,,,,,100,1,0,582524,,,,,,
389506,set_tempo,,,,,20,1,0,606061,,,,,,
389518,note_off,,,,,78,0,1,,,0,,,66,64
389520,note_on,,,,,2,0,1,,,0,,,64,26
389598,note_off,,,,,78,0,1,,,0,,,64,64
389600,note_on,,,,,2,0,1,,,0,,,66,25
389606,set_tempo,,,,,100,1,0,645161,,,,,,
389646,set_tempo,,,,,40,1,0,779221,,,,,,
389678,note_off,,,,,78,0,1,,,0,,,66,64
389680,note_on,,,,,2,0,1,,,0,,,64,25
389686,set_tempo,,,,,40,1,0,952381,,,,,,
389740,note_off,,,,,60,0,1,,,0,,,64,64
389760,note_on,,,,,20,0,1,,,0,,,64,32
389760,note_on,,,,,0,0,2,,,0,,,45,29
389760,note_on,,,,,0,0,2,,,0,,,49,29
389760,note_on,,,,,1680,0,2,,,0,,,57,29
389766,set_tempo,,,,,80,1,0,1500000,,,,,,
389786,set_tempo,,,,,20,1,0,461538,,,,,,
390240,note_on,,,,,0,0,1,,,0,,,69,34
390240,note_off,,,,,480,0,1,,,0,,,64,64
390240,control_change,,,,,0,0,1,,,0,64,95,,
390246,set_tempo,,,,,460,1,0,500000,,,,,,
390360,note_off,,,,,120,0,1,,,0,,,69,64
390360,note_on,,,,,0,0,1,,,0,,,68,24
390480,note_off,,,,,120,0,1,,,0,,,68,64
390480,note_on,,,,,0,0,1,,,0,,,66,29
390600,note_off,,,,,120,0,1,,,0,,,66,64
390600,note_on,,,,,0,0,1,,,0,,,64,30
390690,control_change,,,,,90,0,1,,,0,64,0,,
390700,note_off,,,,,10,0,1,,,0,,,64,64
390720,note_on,,,,,0,0,2,,,0,,,50,30
390720,note_on,,,,,0,0,2,,,0,,,47,30
390720,note_off,,,,,0,0,2,,,0,,,57,64
390720,note_off,,,,,0,0,2,,,0,,,49,64
390720,note_off,,,,,960,0,2,,,0,,,45,64
390720,note_on,,,,,0,0,1,,,0,,,64,37
390720,note_on,,,,,20,0,1,,,0,,,56,37
390726,set_tempo,,,,,480,1,0,659341,,,,,,
390786,set_tempo,,,,,60,1,0,545455,,,,,,
390930,note_off,,,,,0,0,1,,,0,,,56,64
390930,note_off,,,,,0,0,2,,,0,,,47,64
390930,note_off,,,,,210,0,1,,,0,,,64,64
390930,note_off,,,,,210,0,2,,,0,,,50,64
390946,set_tempo,,,,,160,1,0,517241,,,,,,
390960,note_on,,,,,0,0,2,,,0,,,50,32
390960,note_on,,,,,30,0,2,,,0,,,47,32
390960,note_on,,,,,30,0,1,,,0,,,56,34
390960,note_on,,,,,0,0,1,,,0,,,64,34
391140,note_off,,,,,0,0,2,,,0,,,47,64
391140,note_off,,,,,180,0,2,,,0,,,50,64
391140,note_off,,,,,0,0,1,,,0,,,56,64
391140,note_off,,,,,180,0,1,,,0,,,64,64
391200,note_on,,,,,0,0,1,,,0,,,64,32
391200,note_on,,,,,60,0,2,,,0,,,47,28
391200,note_on,,,,,60,0,1,,,0,,,56,32
391200,note_on,,,,,0,0,2,,,0,,,50,28
391380,note_off,,,,,0,0,2,,,0,,,47,64
391380,note_off,,,,,0,0,1,,,0,,,56,64
391380,note_off,,,,,180,0,1,,,0,,,64,64
391380,note_off,,,,,180,0,2,,,0,,,50,64
391440,note_on,,,,,0,0,1,,,0,,,64,28
391440,note_on,,,,,60,0,1,,,0,,,56,28
391440,note_on,,,,,60,0,2,,,0,,,47,27
391440,note_on,,,,,0,0,2,,,0,,,50,27
391620,note_off,,,,,0,0,1,,,0,,,56,64
391620,note_off,,,,,180,0,1,,,0,,,64,64
391620,note_off,,,,,180,0,2,,,0,,,50,64
391620,note_off,,,,,0,0,2,,,0,,,47,64
391680,control_change,,,,,0,0,1,,,0,64,95,,
391680,note_on,,,,,60,0,2,,,0,,,45,35
391680,note_on,,,,,0,0,2,,,0,,,49,35
391680,note_on,,,,,0,0,1,,,0,,,57,33
391680,note_on,,,,,60,0,1,,,0,,,64,33
392130,note_off,,,,,0,0,2,,,0,,,45,64
392130,note_off,,,,,450,0,2,,,0,,,49,64
392130,note_off,,,,,450,0,1,,,0,,,57,64
392130,note_off,,,,,0,0,1,,,0,,,64,64
392160,note_on,,,,,0,0,2,,,0,,,50,28
392160,note_on,,,,,30,0,1,,,0,,,64,32
392160,note_on,,,,,30,0,2,,,0,,,47,28
392160,note_on,,,,,0,0,1,,,0,,,56,28
392170,control_change,,,,,10,0,1,,,0,64,0,,
392346,set_tempo,,,,,1400,1,0,540541,,,,,,
392370,note_off,,,,,0,0,2,,,0,,,47,64
392370,note_off,,,,,0,0,1,,,0,,,64,64
392370,note_off,,,,,200,0,1,,,0,,,56,64
392370,note_off,,,,,210,0,2,,,0,,,50,64
392400,note_on,,,,,30,0,2,,,0,,,47,28
392400,note_on,,,,,0,0,2,,,0,,,50,28
392400,note_on,,,,,30,0,1,,,0,,,56,28
392400,note_on,,,,,0,0,1,,,0,,,64,28
392486,set_tempo,,,,,140,1,0,545455,,,,,,
392580,note_off,,,,,0,0,1,,,0,,,56,64
392580,note_off,,,,,180,0,1,,,0,,,64,64
392580,note_off,,,,,0,0,2,,,0,,,47,64
392580,note_off,,,,,180,0,2,,,0,,,50,64
392640,note_on,,,,,60,0,2,,,0,,,45,34
392640,note_on,,,,,0,0,2,,,0,,,49,34
392640,note_on,,,,,60,0,1,,,0,,,64,30
392640,note_on,,,,,0,0,1,,,0,,,57,30
392640,control_change,,,,,0,0,1,,,0,64,96,,
393080,control_change,,,,,440,0,1,,,0,64,0,,
393090,note_off,,,,,450,0,2,,,0,,,49,64
393090,note_off,,,,,10,0,1,,,0,,,57,64
393090,note_off,,,,,0,0,1,,,0,,,64,64
393090,note_off,,,,,0,0,2,,,0,,,45,64
393106,set_tempo,,,,,620,1,0,1276596,,,,,,
393120,note_on,,,,,0,0,2,,,0,,,50,28
393120,note_on,,,,,30,0,2,,,0,,,47,28
393120,note_on,,,,,0,0,1,,,0,,,56,27
393120,note_on,,,,,30,0,1,,,0,,,64,27
393126,set_tempo,,,,,20,1,0,588235,,,,,,
393226,set_tempo,,,,,100,1,0,606061,,,,,,
393330,note_off,,,,,0,0,1,,,0,,,64,64
393330,note_off,,,,,210,0,1,,,0,,,56,64
393330,note_off,,,,,210,0,2,,,0,,,50,64
393330,note_off,,,,,0,0,2,,,0,,,47,64
393346,set_tempo,,,,,120,1,0,645161,,,,,,
393360,note_on,,,,,30,0,2,,,0,,,47,24
393360,note_on,,,,,0,0,1,,,0,,,64,23
393360,note_on,,,,,30,0,1,,,0,,,56,23
393360,note_on,,,,,0,0,2,,,0,,,50,24
393426,set_tempo,,,,,80,1,0,697674,,,,,,
393506,set_tempo,,,,,80,1,0,740741,,,,,,
393546,set_tempo,,,,,40,1,0,1090909,,,,,,
393570,note_off,,,,,0,0,1,,,0,,,56,64
393570,note_off,,,,,210,0,1,,,0,,,64,64
393570,note_off,,,,,210,0,2,,,0,,,50,64
393570,note_off,,,,,0,0,2,,,0,,,47,64
393600,note_on,,,,,0,0,1,,,0,,,64,53
393600,note_on,,,,,30,0,1,,,0,,,57,53
393600,note_on,,,,,30,0,2,,,0,,,45,81
393600,note_on,,,,,0,0,2,,,0,,,49,41
393606,set_tempo,,,,,60,1,0,666667,,,,,,
393626,set_tempo,,,,,20,1,0,483871,,,,,,
393686,set_tempo,,,,,60,1,0,472441,,,,,,
393780,note_off,,,,,180,0,2,,,0,,,45,64
393810,note_off,,,,,0,0,1,,,0,,,57,64
393810,note_off,,,,,210,0,1,,,0,,,64,64
393810,note_off,,,,,30,0,2,,,0,,,49,64
393840,note_on,,,,,30,0,2,,,0,,,45,61
394020,note_off,,,,,180,0,2,,,0,,,45,64
394080,note_on,,,,,60,0,2,,,0,,,46,97
394080,note_on,,,,,270,0,1,,,0,,,50,86
394260,note_off,,,,,180,0,1,,,0,,,50,64
394320,note_on,,,,,60,0,1,,,0,,,50,62
394500,note_off,,,,,180,0,1,,,0,,,50,64
394560,note_off,,,,,480,0,2,,,0,,,46,64
394560,note_on,,,,,0,0,2,,,0,,,47,86
394560,note_on,,,,,60,0,1,,,0,,,51,85
394620,note_off,,,,,60,0,1,,,0,,,51,64
394640,note_on,,,,,20,0,1,,,0,,,52,80
394700,note_off,,,,,60,0,1,,,0,,,52,64
394720,note_on,,,,,20,0,1,,,0,,,53,85
394740,note_off,,,,,180,0,2,,,0,,,47,64
394780,note_off,,,,,60,0,1,,,0,,,53,64
394800,note_on,,,,,60,0,2,,,0,,,47,63
394800,note_on,,,,,20,0,1,,,0,,,54,92
394860,note_off,,,,,60,0,1,,,0,,,54,64
394880,note_on,,,,,20,0,1,,,0,,,55,92
394940,note_off,,,,,60,0,1,,,0,,,55,64
394960,note_on,,,,,20,0,1,,,0,,,56,97
394980,note_off,,,,,180,0,2,,,0,,,47,64
395020,note_off,,,,,60,0,1,,,0,,,56,64
395040,note_on,,,,,20,0,1,,,0,,,57,100
395040,note_on,,,,,60,0,2,,,0,,,48,83
395040,note_on,,,,,0,0,1,,,0,,,52,100
395100,note_off,,,,,60,0,2,,,0,,,48,64
395120,note_on,,,,,20,0,2,,,0,,,47,76
395180,note_off,,,,,60,0,2,,,0,,,47,64
395200,note_on,,,,,20,0,2,,,0,,,48,86
395220,note_off,,,,,180,0,1,,,0,,,52,64
395260,note_off,,,,,60,0,2,,,0,,,48,64
395280,note_on,,,,,60,0,1,,,0,,,52,78
395280,note_on,,,,,20,0,2,,,0,,,50,91
395326,set_tempo,,,,,1640,1,0,468750,,,,,,
395340,note_off,,,,,60,0,2,,,0,,,50,64
395360,note_on,,,,,20,0,2,,,0,,,48,77
395420,note_off,,,,,60,0,2,,,0,,,48,64
395440,note_on,,,,,20,0,2,,,0,,,47,85
395460,note_off,,,,,180,0,1,,,0,,,52,64
395500,note_off,,,,,60,0,2,,,0,,,47,64
395520,note_on,,,,,0,0,1,,,0,,,58,109
395520,note_on,,,,,20,0,2,,,0,,,48,99
395520,note_off,,,,,60,0,1,,,0,,,57,64
395520,note_on,,,,,0,0,1,,,0,,,52,99
395598,note_off,,,,,78,0,1,,,0,,,52,64
395600,note_on,,,,,2,0,1,,,0,,,51,83
395678,note_off,,,,,78,0,1,,,0,,,51,64
395680,note_on,,,,,2,0,1,,,0,,,52,92
395758,note_off,,,,,78,0,1,,,0,,,52,64
395760,note_on,,,,,0,0,2,,,0,,,49,109
395760,note_off,,,,,240,0,2,,,0,,,48,64
395760,note_on,,,,,2,0,1,,,0,,,53,102
395838,note_off,,,,,78,0,1,,,0,,,53,64
395840,note_on,,,,,2,0,1,,,0,,,55,99
395918,note_off,,,,,0,0,1,,,0,,,58,64
395918,note_off,,,,,78,0,1,,,0,,,55,64
395920,note_on,,,,,2,0,1,,,0,,,53,90
395966,set_tempo,,,,,640,1,0,465116,,,,,,
395998,note_off,,,,,78,0,1,,,0,,,53,64
396000,note_on,,,,,0,0,2,,,0,,,48,99
396000,note_off,,,,,240,0,2,,,0,,,49,64
396000,note_on,,,,,2,0,1,,,0,,,58,108
396000,note_on,,,,,0,0,1,,,0,,,52,108
396078,note_off,,,,,78,0,1,,,0,,,58,64
396080,note_on,,,,,2,0,1,,,0,,,57,104
396158,note_off,,,,,78,0,1,,,0,,,57,64
396160,note_on,,,,,2,0,1,,,0,,,58,94
396238,note_off,,,,,78,0,1,,,0,,,58,64
396240,note_on,,,,,2,0,1,,,0,,,60,97
396318,note_off,,,,,78,0,1,,,0,,,60,64
396320,note_on,,,,,2,0,1,,,0,,,61,84
396398,note_off,,,,,78,0,1,,,0,,,61,64
396398,note_off,,,,,0,0,1,,,0,,,52,64
396400,note_on,,,,,2,0,1,,,0,,,58,74
396406,set_tempo,,,,,440,1,0,461538,,,,,,
396420,note_off,,,,,420,0,2,,,0,,,48,64
396478,note_off,,,,,78,0,1,,,0,,,58,64
396480,note_on,,,,,60,0,2,,,0,,,65,108
396480,note_on,,,,,2,0,1,,,0,,,53,81
396480,note_on,,,,,0,0,1,,,0,,,57,81
396606,set_tempo,,,,,200,1,0,458015,,,,,,
396660,note_off,,,,,180,0,2,,,0,,,65,64
396690,note_off,,,,,0,0,1,,,0,,,53,64
396690,note_off,,,,,210,0,1,,,0,,,57,64
396720,note_on,,,,,60,0,2,,,0,,,65,83
396900,note_off,,,,,180,0,2,,,0,,,65,64
396906,set_tempo,,,,,300,1,0,560748,,,,,,
396960,note_on,,,,,270,0,1,,,0,,,70,81
396960,note_on,,,,,60,0,2,,,0,,,66,117
396966,set_tempo,,,,,60,1,0,451128,,,,,,
397140,note_off,,,,,180,0,1,,,0,,,70,64
397200,note_on,,,,,60,0,1,,,0,,,70,66
397380,note_off,,,,,180,0,1,,,0,,,70,64
397440,note_on,,,,,0,0,2,,,0,,,67,100
397440,note_on,,,,,60,0,1,,,0,,,71,77
397440,note_off,,,,,480,0,2,,,0,,,66,64
397446,set_tempo,,,,,480,1,0,447761,,,,,,
397500,note_off,,,,,60,0,1,,,0,,,71,64
397520,note_on,,,,,20,0,1,,,0,,,72,82
397580,note_off,,,,,60,0,1,,,0,,,72,64
397600,note_on,,,,,20,0,1,,,0,,,73,84
397620,note_off,,,,,180,0,2,,,0,,,67,64
397660,note_off,,,,,60,0,1,,,0,,,73,64
397680,note_on,,,,,20,0,1,,,0,,,74,95
397680,note_on,,,,,60,0,2,,,0,,,67,77
397740,note_off,,,,,60,0,1,,,0,,,74,64
397760,note_on,,,,,20,0,1,,,0,,,75,90
397820,note_off,,,,,60,0,1,,,0,,,75,64
397840,note_on,,,,,20,0,1,,,0,,,76,94
397860,note_off,,,,,180,0,2,,,0,,,67,64
397900,note_off,,,,,60,0,1,,,0,,,76,64
397920,note_on,,,,,60,0,2,,,0,,,68,96
397920,note_on,,,,,0,0,1,,,0,,,72,100
397920,note_on,,,,,20,0,1,,,0,,,77,100
397980,note_off,,,,,60,0,2,,,0,,,68,64
398000,note_on,,,,,20,0,2,,,0,,,67,92
398026,set_tempo,,,,,580,1,0,444444,,,,,,
398060,note_off,,,,,60,0,2,,,0,,,67,64
398080,note_on,,,,,20,0,2,,,0,,,68,95
398100,note_off,,,,,180,0,1,,,0,,,72,64
398140,note_off,,,,,60,0,2,,,0,,,68,64
398160,note_on,,,,,20,0,2,,,0,,,70,100
398160,note_on,,,,,60,0,1,,,0,,,72,80
398220,note_off,,,,,60,0,2,,,0,,,70,64
398240,note_on,,,,,20,0,2,,,0,,,68,95
398300,note_off,,,,,60,0,2,,,0,,,68,64
398320,note_on,,,,,20,0,2,,,0,,,67,99
398340,note_off,,,,,180,0,1,,,0,,,72,64
398380,note_off,,,,,60,0,2,,,0,,,67,64
398400,note_off,,,,,60,0,1,,,0,,,77,64
398400,note_on,,,,,0,0,1,,,0,,,78,109
398400,note_on,,,,,0,0,1,,,0,,,72,99
398400,note_on,,,,,20,0,2,,,0,,,68,103
398478,note_off,,,,,78,0,1,,,0,,,72,64
398480,note_on,,,,,2,0,1,,,0,,,71,83
398558,note_off,,,,,78,0,1,,,0,,,71,64
398560,note_on,,,,,2,0,1,,,0,,,72,92
398638,note_off,,,,,78,0,1,,,0,,,72,64
398640,note_on,,,,,2,0,1,,,0,,,73,102
398640,note_off,,,,,240,0,2,,,0,,,68,64
398640,note_on,,,,,0,0,2,,,0,,,69,109
398718,note_off,,,,,78,0,1,,,0,,,73,64
398720,note_on,,,,,2,0,1,,,0,,,75,99
398798,note_off,,,,,0,0,1,,,0,,,78,64
398798,note_off,,,,,78,0,1,,,0,,,75,64
398800,note_on,,,,,2,0,1,,,0,,,73,90
398878,note_off,,,,,78,0,1,,,0,,,73,64
398880,note_on,,,,,2,0,1,,,0,,,78,108
398880,note_off,,,,,240,0,2,,,0,,,69,64
398880,note_on,,,,,0,0,1,,,0,,,72,108
398880,note_on,,,,,0,0,2,,,0,,,68,99
398958,note_off,,,,,78,0,1,,,0,,,78,64
398960,note_on,,,,,2,0,1,,,0,,,77,104
399038,note_off,,,,,78,0,1,,,0,,,77,64
399040,note_on,,,,,2,0,1,,,0,,,78,94
399118,note_off,,,,,78,0,1,,,0,,,78,64
399120,note_on,,,,,2,0,1,,,0,,,80,97
399166,set_tempo,,,,,1140,1,0,441176,,,,,,
399198,note_off,,,,,78,0,1,,,0,,,80,64
399200,note_on,,,,,2,0,1,,,0,,,81,84
399278,note_off,,,,,0,0,1,,,0,,,72,64
399278,note_off,,,,,78,0,1,,,0,,,81,64
399280,note_on,,,,,2,0,1,,,0,,,78,74
399300,note_off,,,,,420,0,2,,,0,,,68,64
399358,note_off,,,,,78,0,1,,,0,,,78,64
399360,note_on,,,,,0,0,1,,,0,,,77,87
399360,note_on,,,,,60,0,2,,,0,,,49,117
399360,note_on,,,,,2,0,1,,,0,,,73,87
399540,note_off,,,,,180,0,2,,,0,,,49,64
399570,note_off,,,,,210,0,1,,,0,,,77,64
399570,note_off,,,,,0,0,1,,,0,,,73,64
399600,note_on,,,,,60,0,2,,,0,,,49,102
399726,set_tempo,,,,,560,1,0,437956,,,,,,
399780,note_off,,,,,180,0,2,,,0,,,49,64
399786,set_tempo,,,,,60,1,0,508475,,,,,,
399840,note_on,,,,,270,0,1,,,0,,,54,118
399840,note_on,,,,,60,0,2,,,0,,,50,123
399846,set_tempo,,,,,60,1,0,437956,,,,,,
400020,note_off,,,,,180,0,1,,,0,,,54,64
400080,note_on,,,,,60,0,1,,,0,,,54,97
400260,note_off,,,,,180,0,1,,,0,,,54,64
400286,set_tempo,,,,,440,1,0,434783,,,,,,
400320,note_on,,,,,0,0,2,,,0,,,51,120
400320,note_off,,,,,480,0,2,,,0,,,50,64
400320,note_on,,,,,60,0,1,,,0,,,55,109
400380,note_off,,,,,60,0,1,,,0,,,55,64
400400,note_on,,,,,20,0,1,,,0,,,56,112
400460,note_off,,,,,60,0,1,,,0,,,56,64
400480,note_on,,,,,20,0,1,,,0,,,57,115
400500,note_off,,,,,180,0,2,,,0,,,51,64
400540,note_off,,,,,60,0,1,,,0,,,57,64
400560,note_on,,,,,60,0,2,,,0,,,51,97
400560,note_on,,,,,20,0,1,,,0,,,58,118
400620,note_off,,,,,60,0,1,,,0,,,58,64
400640,note_on,,,,,20,0,1,,,0,,,59,114
400700,note_off,,,,,60,0,1,,,0,,,59,64
400720,note_on,,,,,20,0,1,,,0,,,60,119
400740,note_off,,,,,180,0,2,,,0,,,51,64
400766,set_tempo,,,,,480,1,0,431655,,,,,,
400780,note_off,,,,,60,0,1,,,0,,,60,64
400800,note_on,,,,,20,0,1,,,0,,,61,122
400800,note_on,,,,,0,0,1,,,0,,,56,122
400800,note_on,,,,,60,0,2,,,0,,,52,108
400860,note_off,,,,,60,0,2,,,0,,,52,64
400880,note_on,,,,,20,0,2,,,0,,,51,113
400940,note_off,,,,,60,0,2,,,0,,,51,64
400960,note_on,,,,,20,0,2,,,0,,,52,116
400980,note_off,,,,,180,0,1,,,0,,,56,64
401020,note_off,,,,,60,0,2,,,0,,,52,64
401040,note_on,,,,,60,0,1,,,0,,,56,103
401040,note_on,,,,,20,0,2,,,0,,,54,118
401086,set_tempo,,,,,320,1,0,428571,,,,,,
401100,note_off,,,,,60,0,2,,,0,,,54,64
401120,note_on,,,,,20,0,2,,,0,,,52,114
401126,set_tempo,,,,,40,1,0,425532,,,,,,
401180,note_off,,,,,60,0,2,,,0,,,52,64
401200,note_on,,,,,20,0,2,,,0,,,51,118
401220,note_off,,,,,180,0,1,,,0,,,56,64
401260,note_off,,,,,60,0,2,,,0,,,51,64
401280,note_off,,,,,60,0,1,,,0,,,61,64
401280,note_on,,,,,0,0,1,,,0,,,62,119
401280,note_on,,,,,0,0,1,,,0,,,56,119
401280,note_on,,,,,20,0,2,,,0,,,52,122
401358,note_off,,,,,78,0,1,,,0,,,56,64
401360,note_on,,,,,2,0,1,,,0,,,55,107
401438,note_off,,,,,78,0,1,,,0,,,55,64
401440,note_on,,,,,2,0,1,,,0,,,56,113
401446,set_tempo,,,,,320,1,0,422535,,,,,,
401518,note_off,,,,,78,0,1,,,0,,,56,64
401520,note_on,,,,,0,0,2,,,0,,,53,109
401520,note_on,,,,,2,0,1,,,0,,,57,117
401520,note_off,,,,,240,0,2,,,0,,,52,64
401598,note_off,,,,,78,0,1,,,0,,,57,64
401600,note_on,,,,,2,0,1,,,0,,,59,111
401678,note_off,,,,,0,0,1,,,0,,,62,64
401678,note_off,,,,,78,0,1,,,0,,,59,64
401680,note_on,,,,,2,0,1,,,0,,,57,111
401758,note_off,,,,,78,0,1,,,0,,,57,64
401760,note_off,,,,,240,0,2,,,0,,,53,64
401760,note_on,,,,,0,0,2,,,0,,,52,99
401760,note_on,,,,,0,0,1,,,0,,,56,112
401760,note_on,,,,,2,0,1,,,0,,,62,112
401838,note_off,,,,,78,0,1,,,0,,,62,64
401840,note_on,,,,,2,0,1,,,0,,,61,104
401886,set_tempo,,,,,440,1,0,419580,,,,,,
401918,note_off,,,,,78,0,1,,,0,,,61,64
401920,note_on,,,,,2,0,1,,,0,,,62,94
401998,note_off,,,,,78,0,1,,,0,,,62,64
402000,note_on,,,,,2,0,1,,,0,,,64,97
402078,note_off,,,,,78,0,1,,,0,,,64,64
402080,note_on,,,,,2,0,1,,,0,,,65,84
402158,note_off,,,,,78,0,1,,,0,,,65,64
402158,note_off,,,,,0,0,1,,,0,,,56,64
402160,note_on,,,,,2,0,1,,,0,,,62,74
402180,note_off,,,,,420,0,2,,,0,,,52,64
402238,note_off,,,,,78,0,1,,,0,,,62,64
402240,note_on,,,,,0,0,2,,,0,,,57,117
402240,control_change,,,,,60,0,2,,,0,7,80,,
402240,note_on,,,,,0,0,1,,,0,,,61,87
402240,control_change,,,,,2,0,1,,,0,7,80,,
402358,control_change,,,,,118,0,1,,,0,7,81,,
402358,control_change,,,,,118,0,2,,,0,7,81,,
402386,set_tempo,,,,,500,1,0,416667,,,,,,
402448,note_off,,,,,90,0,2,,,0,,,57,64
402478,control_change,,,,,120,0,1,,,0,7,82,,
402478,control_change,,,,,30,0,2,,,0,7,82,,
402480,note_on,,,,,2,0,2,,,0,,,57,102
402482,note_off,,,,,4,0,1,,,0,,,61,64
402598,control_change,,,,,116,0,1,,,0,7,83,,
402598,control_change,,,,,118,0,2,,,0,7,83,,
402660,note_off,,,,,62,0,2,,,0,,,57,64
402718,control_change,,,,,120,0,1,,,0,7,84,,
402718,control_change,,,,,58,0,2,,,0,7,84,,
402720,note_on,,,,,2,0,2,,,0,,,58,123
402720,note_on,,,,,2,0,1,,,0,,,62,118
402838,control_change,,,,,118,0,1,,,0,7,85,,
402838,control_change,,,,,118,0,2,,,0,7,85,,
402928,note_off,,,,,90,0,1,,,0,,,62,64
402958,control_change,,,,,30,0,1,,,0,7,86,,
402958,control_change,,,,,120,0,2,,,0,7,86,,
402960,note_on,,,,,2,0,1,,,0,,,62,98
402986,set_tempo,,,,,600,1,0,413793,,,,,,
403078,control_change,,,,,120,0,2,,,0,7,87,,
403078,control_change,,,,,118,0,1,,,0,7,87,,
403140,note_off,,,,,62,0,1,,,0,,,62,64
403198,control_change,,,,,120,0,2,,,0,7,88,,
403198,control_change,,,,,58,0,1,,,0,7,88,,
403200,note_off,,,,,2,0,2,,,0,,,58,64
403200,note_on,,,,,0,0,2,,,0,,,58,120
403200,note_on,,,,,0,0,2,,,0,,,65,120
403200,note_on,,,,,2,0,1,,,0,,,74,90
403260,note_off,,,,,60,0,1,,,0,,,74,64
403266,set_tempo,,,,,280,1,0,410959,,,,,,
403280,note_on,,,,,20,0,1,,,0,,,75,94
403318,control_change,,,,,38,0,1,,,0,7,89,,
403318,control_change,,,,,118,0,2,,,0,7,89,,
403340,note_off,,,,,22,0,1,,,0,,,75,64
403360,note_on,,,,,20,0,1,,,0,,,76,99
403408,note_off,,,,,90,0,2,,,0,,,58,64
403408,note_off,,,,,0,0,2,,,0,,,65,64
403420,note_off,,,,,60,0,1,,,0,,,76,64
403438,control_change,,,,,18,0,1,,,0,7,90,,
403438,control_change,,,,,30,0,2,,,0,7,90,,
403440,note_on,,,,,2,0,1,,,0,,,77,103
403440,note_on,,,,,0,0,2,,,0,,,58,95
403440,note_on,,,,,2,0,2,,,0,,,65,95
403486,set_tempo,,,,,220,1,0,408163,,,,,,
403500,note_off,,,,,60,0,1,,,0,,,77,64
403520,note_on,,,,,20,0,1,,,0,,,78,108
403558,control_change,,,,,38,0,1,,,0,7,91,,
403558,control_change,,,,,118,0,2,,,0,7,91,,
403580,note_off,,,,,22,0,1,,,0,,,78,64
403600,note_on,,,,,20,0,1,,,0,,,79,112
403620,note_off,,,,,62,0,2,,,0,,,58,64
403620,note_off,,,,,0,0,2,,,0,,,65,64
403660,note_off,,,,,60,0,1,,,0,,,79,64
403678,control_change,,,,,18,0,1,,,0,7,92,,
403678,control_change,,,,,58,0,2,,,0,7,92,,
403680,note_on,,,,,2,0,1,,,0,,,74,117
403680,note_on,,,,,2,0,2,,,0,,,59,105
403680,note_on,,,,,0,0,1,,,0,,,80,117
403740,note_off,,,,,60,0,2,,,0,,,59,64
403760,note_on,,,,,20,0,2,,,0,,,60,106
403798,control_change,,,,,118,0,1,,,0,7,93,,
403798,control_change,,,,,38,0,2,,,0,7,93,,
403820,note_off,,,,,22,0,2,,,0,,,60,64
403840,note_on,,,,,20,0,2,,,0,,,61,110
403888,note_off,,,,,90,0,1,,,0,,,80,64
403888,note_off,,,,,0,0,1,,,0,,,74,64
403900,note_off,,,,,60,0,2,,,0,,,61,64
403918,control_change,,,,,30,0,1,,,0,7,94,,
403918,control_change,,,,,18,0,2,,,0,7,94,,
403920,note_on,,,,,2,0,1,,,0,,,74,92
403920,note_on,,,,,0,0,1,,,0,,,80,92
403920,note_on,,,,,2,0,2,,,0,,,62,110
403980,note_off,,,,,60,0,2,,,0,,,62,64
404000,note_on,,,,,20,0,2,,,0,,,63,112
404038,control_change,,,,,38,0,2,,,0,7,95,,
404038,control_change,,,,,118,0,1,,,0,7,95,,
404060,note_off,,,,,22,0,2,,,0,,,63,64
404080,note_on,,,,,20,0,2,,,0,,,64,114
404100,note_off,,,,,62,0,1,,,0,,,80,64
404100,note_off,,,,,0,0,1,,,0,,,74,64
404126,set_tempo,,,,,640,1,0,405405,,,,,,
404140,note_off,,,,,60,0,2,,,0,,,64,64
404158,control_change,,,,,58,0,1,,,0,7,96,,
404158,control_change,,,,,18,0,2,,,0,7,96,,
404160,note_on,,,,,0,0,2,,,0,,,65,118
404160,note_on,,,,,2,0,1,,,0,,,80,101
404160,note_on,,,,,2,0,2,,,0,,,59,118
404186,set_tempo,,,,,60,1,0,402685,,,,,,
404220,note_off,,,,,60,0,1,,,0,,,80,64
404240,note_on,,,,,20,0,1,,,0,,,81,105
404278,control_change,,,,,118,0,2,,,0,7,97,,
404278,control_change,,,,,38,0,1,,,0,7,97,,
404300,note_off,,,,,22,0,1,,,0,,,81,64
404320,note_on,,,,,20,0,1,,,0,,,82,110
404368,note_off,,,,,0,0,2,,,0,,,59,64
404368,note_off,,,,,90,0,2,,,0,,,65,64
404380,note_off,,,,,60,0,1,,,0,,,82,64
404398,control_change,,,,,30,0,2,,,0,7,98,,
404398,control_change,,,,,18,0,1,,,0,7,98,,
404400,note_on,,,,,0,0,2,,,0,,,65,94
404400,note_on,,,,,2,0,2,,,0,,,59,94
404400,note_on,,,,,2,0,1,,,0,,,83,113
404460,note_off,,,,,60,0,1,,,0,,,83,64
404480,note_on,,,,,20,0,1,,,0,,,84,115
404518,control_change,,,,,38,0,1,,,0,7,99,,
404518,control_change,,,,,118,0,2,,,0,7,99,,
404540,note_off,,,,,22,0,1,,,0,,,84,64
404560,note_on,,,,,20,0,1,,,0,,,85,120
404580,note_off,,,,,0,0,2,,,0,,,59,64
404580,note_off,,,,,62,0,2,,,0,,,65,64
404620,note_off,,,,,60,0,1,,,0,,,85,64
404638,control_change,,,,,58,0,2,,,0,7,100,,
404638,control_change,,,,,18,0,1,,,0,7,100,,
404640,note_on,,,,,2,0,1,,,0,,,80,126
404640,note_on,,,,,0,0,1,,,0,,,86,126
404640,note_on,,,,,2,0,2,,,0,,,59,113
404646,set_tempo,,,,,460,1,0,400000,,,,,,
404700,note_off,,,,,60,0,2,,,0,,,59,64
404720,note_on,,,,,20,0,2,,,0,,,60,114
404726,set_tempo,,,,,80,1,0,397351,,,,,,
404758,control_change,,,,,38,0,2,,,0,7,101,,
404758,control_change,,,,,118,0,1,,,0,7,101,,
404780,note_off,,,,,22,0,2,,,0,,,60,64
404800,note_on,,,,,20,0,2,,,0,,,61,115
404848,note_off,,,,,90,0,1,,,0,,,86,64
404848,note_off,,,,,0,0,1,,,0,,,80,64
404860,note_off,,,,,60,0,2,,,0,,,61,64
404878,control_change,,,,,30,0,1,,,0,7,102,,
404878,control_change,,,,,18,0,2,,,0,7,102,,
404880,note_on,,,,,2,0,1,,,0,,,80,98
404880,note_on,,,,,0,0,1,,,0,,,86,98
404880,note_on,,,,,2,0,2,,,0,,,62,115
404940,note_off,,,,,60,0,2,,,0,,,62,64
404960,note_on,,,,,20,0,2,,,0,,,64,122
404998,control_change,,,,,38,0,2,,,0,7,103,,
404998,control_change,,,,,118,0,1,,,0,7,103,,
405020,note_off,,,,,22,0,2,,,0,,,64,64
405040,note_on,,,,,20,0,2,,,0,,,65,124
405060,note_off,,,,,62,0,1,,,0,,,86,64
405060,note_off,,,,,0,0,1,,,0,,,80,64
405100,note_off,,,,,60,0,2,,,0,,,65,64
405118,control_change,,,,,18,0,2,,,0,7,104,,
405118,control_change,,,,,58,0,1,,,0,7,104,,
405120,note_on,,,,,2,0,2,,,0,,,64,127
405120,note_on,,,,,0,0,2,,,0,,,58,127
405120,note_on,,,,,2,0,1,,,0,,,86,108
405146,set_tempo,,,,,420,1,0,400000,,,,,,
405180,note_off,,,,,60,0,1,,,0,,,86,64
405200,note_on,,,,,20,0,1,,,0,,,87,110
405206,set_tempo,,,,,60,1,0,402685,,,,,,
405238,control_change,,,,,118,0,2,,,0,7,105,,
405238,control_change,,,,,38,0,1,,,0,7,105,,
405246,set_tempo,,,,,40,1,0,405405,,,,,,
405260,note_off,,,,,22,0,1,,,0,,,87,64
405280,note_on,,,,,20,0,1,,,0,,,88,114
405286,set_tempo,,,,,40,1,0,413793,,,,,,
405306,set_tempo,,,,,20,1,0,416667,,,,,,
405326,set_tempo,,,,,20,1,0,422535,,,,,,
405328,note_off,,,,,90,0,2,,,0,,,58,64
405328,note_off,,,,,0,0,2,,,0,,,64,64
405340,note_off,,,,,60,0,1,,,0,,,88,64
405358,control_change,,,,,18,0,1,,,0,7,106,,
405358,control_change,,,,,30,0,2,,,0,7,106,,
405360,note_on,,,,,0,0,2,,,0,,,58,104
405360,note_on,,,,,2,0,1,,,0,,,89,117
405360,note_on,,,,,2,0,2,,,0,,,64,104
405386,set_tempo,,,,,60,1,0,444444,,,,,,
405420,note_off,,,,,60,0,1,,,0,,,89,64
405440,note_on,,,,,20,0,1,,,0,,,90,121
405478,control_change,,,,,118,0,2,,,0,7,107,,
405478,control_change,,,,,38,0,1,,,0,7,107,,
405486,set_tempo,,,,,100,1,0,465116,,,,,,
405500,note_off,,,,,22,0,1,,,0,,,90,64
405520,note_on,,,,,20,0,1,,,0,,,91,124
405526,set_tempo,,,,,40,1,0,468750,,,,,,
405540,note_off,,,,,62,0,2,,,0,,,58,64
405540,note_off,,,,,0,0,2,,,0,,,64,64
405546,set_tempo,,,,,20,1,0,480000,,,,,,
405580,note_off,,,,,60,0,1,,,0,,,91,64
405586,set_tempo,,,,,40,1,0,491803,,,,,,
405598,control_change,,,,,58,0,2,,,0,7,108,,
405598,control_change,,,,,18,0,1,,,0,7,108,,
405600,note_on,,,,,2,0,1,,,0,,,86,127
405600,note_on,,,,,0,0,1,,,0,,,92,127
405600,note_on,,,,,2,0,2,,,0,,,59,111
405626,set_tempo,,,,,40,1,0,504202,,,,,,
405646,set_tempo,,,,,20,1,0,508475,,,,,,
405660,note_off,,,,,60,0,2,,,0,,,59,64
405666,set_tempo,,,,,20,1,0,521739,,,,,,
405680,note_on,,,,,20,0,2,,,0,,,60,115
405706,set_tempo,,,,,40,1,0,535714,,,,,,
405718,control_change,,,,,118,0,1,,,0,7,109,,
405718,control_change,,,,,38,0,2,,,0,7,109,,
405740,note_off,,,,,22,0,2,,,0,,,60,64
405746,set_tempo,,,,,40,1,0,540541,,,,,,
405760,note_on,,,,,20,0,2,,,0,,,61,117
405806,set_tempo,,,,,60,1,0,555556,,,,,,
405808,note_off,,,,,0,0,1,,,0,,,86,64
405808,note_off,,,,,90,0,1,,,0,,,92,64
405820,note_off,,,,,60,0,2,,,0,,,61,64
405838,control_change,,,,,30,0,1,,,0,7,110,,
405838,control_change,,,,,18,0,2,,,0,7,110,,
405840,note_on,,,,,2,0,2,,,0,,,62,119
405840,note_on,,,,,0,0,1,,,0,,,92,105
405840,note_on,,,,,2,0,1,,,0,,,86,105
405846,set_tempo,,,,,40,1,0,560748,,,,,,
405886,set_tempo,,,,,40,1,0,582524,,,,,,
405900,note_off,,,,,60,0,2,,,0,,,62,64
405906,set_tempo,,,,,20,1,0,588235,,,,,,
405920,note_on,,,,,20,0,2,,,0,,,64,122
405926,set_tempo,,,,,20,1,0,594059,,,,,,
405946,set_tempo,,,,,20,1,0,606061,,,,,,
405958,control_change,,,,,118,0,1,,,0,7,111,,
405958,control_change,,,,,38,0,2,,,0,7,111,,
405966,set_tempo,,,,,20,1,0,618557,,,,,,
405980,note_off,,,,,22,0,2,,,0,,,64,64
405986,set_tempo,,,,,20,1,0,625000,,,,,,
406000,note_on,,,,,20,0,2,,,0,,,65,125
406006,set_tempo,,,,,20,1,0,1111111,,,,,,
406020,note_off,,,,,0,0,1,,,0,,,86,64
406020,note_off,,,,,62,0,1,,,0,,,92,64
406046,set_tempo,,,,,40,1,0,1090909,,,,,,
406060,note_off,,,,,60,0,2,,,0,,,65,64
406078,control_change,,,,,58,0,1,,,0,7,112,,
406078,control_change,,,,,18,0,2,,,0,7,112,,
406080,control_change,,,,,2,0,2,,,0,7,112,,
406080,note_on,,,,,0,0,2,,,0,,,60,127
406080,note_on,,,,,0,0,2,,,0,,,64,127
406080,control_change,,,,,2,0,1,,,0,7,112,,
406080,note_on,,,,,0,0,1,,,0,,,93,120
406080,control_change,,,,,0,0,1,,,0,64,95,,
406094,control_change,,,,,14,0,2,,,0,7,111,,
406094,control_change,,,,,14,0,1,,,0,7,111,,
406106,set_tempo,,,,,60,1,0,491803,,,,,,
406110,control_change,,,,,16,0,1,,,0,7,110,,
406110,control_change,,,,,16,0,2,,,0,7,110,,
406124,control_change,,,,,14,0,1,,,0,7,109,,
406124,control_change,,,,,14,0,2,,,0,7,109,,
406126,set_tempo,,,,,20,1,0,487805,,,,,,
406140,control_change,,,,,16,0,1,,,0,7,108,,
406140,control_change,,,,,16,0,2,,,0,7,108,,
406154,control_change,,,,,14,0,1,,,0,7,107,,
406154,control_change,,,,,14,0,2,,,0,7,107,,
406158,note_off,,,,,4,0,1,,,0,,,93,64
406160,note_on,,,,,2,0,1,,,0,,,88,115
406170,control_change,,,,,10,0,1,,,0,7,106,,
406170,control_change,,,,,16,0,2,,,0,7,106,,
406184,control_change,,,,,14,0,2,,,0,7,105,,
406184,control_change,,,,,14,0,1,,,0,7,105,,
406186,set_tempo,,,,,60,1,0,468750,,,,,,
406200,control_change,,,,,16,0,1,,,0,7,104,,
406200,control_change,,,,,16,0,2,,,0,7,104,,
406214,control_change,,,,,14,0,1,,,0,7,103,,
406214,control_change,,,,,14,0,2,,,0,7,103,,
406230,control_change,,,,,16,0,2,,,0,7,102,,
406230,control_change,,,,,16,0,1,,,0,7,102,,
406238,note_off,,,,,8,0,1,,,0,,,88,64
406240,note_on,,,,,2,0,1,,,0,,,84,108
406244,control_change,,,,,4,0,1,,,0,7,101,,
406244,control_change,,,,,14,0,2,,,0,7,101,,
406260,control_change,,,,,16,0,2,,,0,7,100,,
406260,control_change,,,,,16,0,1,,,0,7,100,,
406274,control_change,,,,,14,0,1,,,0,7,99,,
406274,control_change,,,,,14,0,2,,,0,7,99,,
406290,note_off,,,,,16,0,2,,,0,,,64,64
406290,note_off,,,,,0,0,2,,,0,,,60,64
406290,control_change,,,,,0,0,2,,,0,7,98,,
406290,control_change,,,,,16,0,1,,,0,7,98,,
406304,control_change,,,,,14,0,2,,,0,7,97,,
406304,control_change,,,,,14,0,1,,,0,7,97,,
406318,note_off,,,,,14,0,1,,,0,,,84,64
406320,note_on,,,,,0,0,1,,,0,,,81,100
406320,note_on,,,,,0,0,2,,,0,,,60,87
406320,control_change,,,,,16,0,2,,,0,7,96,,
406320,note_on,,,,,0,0,2,,,0,,,64,87
406320,control_change,,,,,2,0,1,,,0,7,96,,
406334,control_change,,,,,14,0,2,,,0,7,95,,
406334,control_change,,,,,14,0,1,,,0,7,95,,
406346,set_tempo,,,,,160,1,0,465116,,,,,,
406350,control_change,,,,,16,0,1,,,0,7,94,,
406350,control_change,,,,,16,0,2,,,0,7,94,,
406364,control_change,,,,,14,0,1,,,0,7,93,,
406364,control_change,,,,,14,0,2,,,0,7,93,,
406366,set_tempo,,,,,20,1,0,461538,,,,,,
406380,control_change,,,,,16,0,1,,,0,7,92,,
406380,control_change,,,,,16,0,2,,,0,7,92,,
406394,control_change,,,,,14,0,2,,,0,7,91,,
406394,control_change,,,,,14,0,1,,,0,7,91,,
406398,note_off,,,,,4,0,1,,,0,,,81,64
406400,note_on,,,,,2,0,1,,,0,,,76,94
406410,control_change,,,,,16,0,2,,,0,7,90,,
406410,control_change,,,,,10,0,1,,,0,7,90,,
406424,control_change,,,,,14,0,2,,,0,7,89,,
406424,control_change,,,,,14,0,1,,,0,7,89,,
406440,control_change,,,,,16,0,1,,,0,7,88,,
406440,control_change,,,,,16,0,2,,,0,7,88,,
406454,control_change,,,,,14,0,1,,,0,7,87,,
406454,control_change,,,,,14,0,2,,,0,7,87,,
406470,control_change,,,,,16,0,1,,,0,7,86,,
406470,control_change,,,,,16,0,2,,,0,7,86,,
406478,note_off,,,,,8,0,1,,,0,,,76,64
406480,note_on,,,,,2,0,1,,,0,,,72,89
406484,control_change,,,,,14,0,2,,,0,7,85,,
406484,control_change,,,,,4,0,1,,,0,7,85,,
406500,control_change,,,,,0,0,2,,,0,7,84,,
406500,note_off,,,,,16,0,2,,,0,,,64,64
406500,note_off,,,,,0,0,2,,,0,,,60,64
406500,control_change,,,,,16,0,1,,,0,7,84,,
406514,control_change,,,,,14,0,2,,,0,7,83,,
406514,control_change,,,,,14,0,1,,,0,7,83,,
406520,control_change,,,,,6,0,1,,,0,64,0,,
406526,set_tempo,,,,,160,1,0,451128,,,,,,
406530,control_change,,,,,16,0,2,,,0,7,82,,
406530,control_change,,,,,10,0,1,,,0,7,82,,
406544,control_change,,,,,14,0,2,,,0,7,81,,
406544,control_change,,,,,14,0,1,,,0,7,81,,
406558,note_off,,,,,14,0,1,,,0,,,72,64
406560,control_change,,,,,16,0,2,,,0,7,80,,
406560,note_on,,,,,0,0,1,,,0,,,69,84
406560,control_change,,,,,2,0,1,,,0,7,80,,
406638,note_off,,,,,78,0,1,,,0,,,69,64
406640,note_on,,,,,2,0,1,,,0,,,68,79
406718,note_off,,,,,78,0,1,,,0,,,68,64
406720,note_on,,,,,2,0,1,,,0,,,69,75
406798,note_off,,,,,78,0,1,,,0,,,69,64
406800,note_on,,,,,0,0,2,,,0,,,62,79
406800,note_on,,,,,240,0,2,,,0,,,65,79
406800,note_on,,,,,2,0,1,,,0,,,71,72
406806,set_tempo,,,,,280,1,0,447761,,,,,,
406878,note_off,,,,,78,0,1,,,0,,,71,64
406880,note_on,,,,,2,0,1,,,0,,,72,70
406958,note_off,,,,,78,0,1,,,0,,,72,64
406960,note_on,,,,,2,0,1,,,0,,,71,68
407038,note_off,,,,,78,0,1,,,0,,,71,64
407040,note_on,,,,,2,0,1,,,0,,,69,67
407040,note_on,,,,,0,0,2,,,0,,,60,68
407040,note_off,,,,,240,0,2,,,0,,,62,64
407040,note_off,,,,,0,0,2,,,0,,,65,64
407040,note_on,,,,,0,0,2,,,0,,,64,68
407118,note_off,,,,,78,0,1,,,0,,,69,64
407120,note_on,,,,,2,0,1,,,0,,,71,62
407198,note_off,,,,,78,0,1,,,0,,,71,64
407200,note_on,,,,,2,0,1,,,0,,,69,59
407278,note_off,,,,,78,0,1,,,0,,,69,64
407280,note_off,,,,,0,0,2,,,0,,,60,64
407280,note_on,,,,,2,0,1,,,0,,,71,58
407280,note_off,,,,,240,0,2,,,0,,,64,64
407280,note_on,,,,,0,0,2,,,0,,,65,65
407280,note_on,,,,,0,0,2,,,0,,,62,65
407346,set_tempo,,,,,540,1,0,454545,,,,,,
407358,note_off,,,,,78,0,1,,,0,,,71,64
407360,note_on,,,,,2,0,1,,,0,,,72,57
407438,note_off,,,,,78,0,1,,,0,,,72,64
407440,note_on,,,,,2,0,1,,,0,,,71,57
407486,set_tempo,,,,,140,1,0,472441,,,,,,
407518,note_off,,,,,78,0,1,,,0,,,71,64
407520,note_off,,,,,0,0,2,,,0,,,62,64
407520,note_on,,,,,0,0,2,,,0,,,60,60
407520,note_on,,,,,0,0,2,,,0,,,64,60
407520,note_off,,,,,240,0,2,,,0,,,65,64
407520,note_on,,,,,2,0,1,,,0,,,69,63
407598,note_off,,,,,78,0,1,,,0,,,69,64
407600,note_on,,,,,2,0,1,,,0,,,71,58
407678,note_off,,,,,78,0,1,,,0,,,71,64
407680,note_on,,,,,2,0,1,,,0,,,69,54
407706,set_tempo,,,,,220,1,0,483871,,,,,,
407758,note_off,,,,,78,0,1,,,0,,,69,64
407760,note_off,,,,,0,0,2,,,0,,,60,64
407760,note_off,,,,,240,0,2,,,0,,,64,64
407760,note_on,,,,,0,0,2,,,0,,,62,49
407760,note_on,,,,,0,0,2,,,0,,,59,49
407760,note_on,,,,,2,0,1,,,0,,,68,51
407838,note_off,,,,,78,0,1,,,0,,,68,64
407840,note_on,,,,,2,0,1,,,0,,,69,48
407846,set_tempo,,,,,140,1,0,495868,,,,,,
407886,set_tempo,,,,,40,1,0,504202,,,,,,
407918,note_off,,,,,78,0,1,,,0,,,69,64
407920,note_on,,,,,2,0,1,,,0,,,68,46
407970,note_off,,,,,0,0,2,,,0,,,59,64
407970,note_off,,,,,210,0,2,,,0,,,62,64
407986,set_tempo,,,,,100,1,0,461538,,,,,,
407998,note_off,,,,,78,0,1,,,0,,,68,64
408000,control_change,,,,,0,0,2,,,0,7,112,,
408000,note_on,,,,,2,0,1,,,0,,,93,120
408000,note_on,,,,,30,0,2,,,0,,,61,127
408000,note_on,,,,,0,0,2,,,0,,,64,127
408000,control_change,,,,,0,0,1,,,0,64,96,,
408006,set_tempo,,,,,20,1,0,1090909,,,,,,
408014,control_change,,,,,14,0,2,,,0,7,111,,
408026,set_tempo,,,,,20,1,0,491803,,,,,,
408030,control_change,,,,,16,0,2,,,0,7,110,,
408044,control_change,,,,,14,0,2,,,0,7,109,,
408046,set_tempo,,,,,20,1,0,487805,,,,,,
408060,control_change,,,,,16,0,2,,,0,7,108,,
408074,control_change,,,,,14,0,2,,,0,7,107,,
408078,note_off,,,,,78,0,1,,,0,,,93,64
408080,note_on,,,,,2,0,1,,,0,,,88,115
408090,control_change,,,,,16,0,2,,,0,7,106,,
408104,control_change,,,,,14,0,2,,,0,7,105,,
408106,set_tempo,,,,,60,1,0,468750,,,,,,
408120,control_change,,,,,16,0,2,,,0,7,104,,
408134,control_change,,,,,14,0,2,,,0,7,103,,
408150,control_change,,,,,16,0,2,,,0,7,102,,
408158,note_off,,,,,78,0,1,,,0,,,88,64
408160,note_on,,,,,2,0,1,,,0,,,85,108
408164,control_change,,,,,14,0,2,,,0,7,101,,
408180,control_change,,,,,16,0,2,,,0,7,100,,
408194,control_change,,,,,14,0,2,,,0,7,99,,
408210,control_change,,,,,0,0,2,,,0,7,98,,
408210,note_off,,,,,16,0,2,,,0,,,64,64
408210,note_off,,,,,0,0,2,,,0,,,61,64
408224,control_change,,,,,14,0,2,,,0,7,97,,
408238,note_off,,,,,78,0,1,,,0,,,85,64
408240,note_on,,,,,16,0,2,,,0,,,61,87
408240,control_change,,,,,0,0,2,,,0,7,96,,
408240,note_on,,,,,0,0,2,,,0,,,64,87
408240,note_on,,,,,2,0,1,,,0,,,81,100
408254,control_change,,,,,14,0,2,,,0,7,95,,
408266,set_tempo,,,,,160,1,0,465116,,,,,,
408270,control_change,,,,,16,0,2,,,0,7,94,,
408284,control_change,,,,,14,0,2,,,0,7,93,,
408286,set_tempo,,,,,20,1,0,461538,,,,,,
408300,control_change,,,,,16,0,2,,,0,7,92,,
408314,control_change,,,,,14,0,2,,,0,7,91,,
408318,note_off,,,,,78,0,1,,,0,,,81,64
408320,note_on,,,,,2,0,1,,,0,,,76,94
408330,control_change,,,,,16,0,2,,,0,7,90,,
408344,control_change,,,,,14,0,2,,,0,7,89,,
408360,control_change,,,,,16,0,2,,,0,7,88,,
408374,control_change,,,,,14,0,2,,,0,7,87,,
408390,control_change,,,,,16,0,2,,,0,7,86,,
408398,note_off,,,,,78,0,1,,,0,,,76,64
408400,note_on,,,,,2,0,1,,,0,,,73,89
408404,control_change,,,,,14,0,2,,,0,7,85,,
408420,note_off,,,,,0,0,2,,,0,,,61,64
408420,control_change,,,,,0,0,2,,,0,7,84,,
408420,note_off,,,,,16,0,2,,,0,,,64,64
408434,control_change,,,,,14,0,2,,,0,7,83,,
408440,control_change,,,,,40,0,1,,,0,64,0,,
408446,set_tempo,,,,,160,1,0,451128,,,,,,
408450,control_change,,,,,16,0,2,,,0,7,82,,
408464,control_change,,,,,14,0,2,,,0,7,81,,
408478,note_off,,,,,38,0,1,,,0,,,73,64
408480,note_on,,,,,2,0,1,,,0,,,69,84
408480,control_change,,,,,16,0,2,,,0,7,80,,
408558,note_off,,,,,78,0,1,,,0,,,69,64
408560,note_on,,,,,2,0,1,,,0,,,68,79
408638,note_off,,,,,78,0,1,,,0,,,68,64
408640,note_on,,,,,2,0,1,,,0,,,69,75
408718,note_off,,,,,78,0,1,,,0,,,69,64
408720,note_on,,,,,2,0,1,,,0,,,71,72
408720,note_on,,,,,0,0,2,,,0,,,66,79
408720,note_on,,,,,240,0,2,,,0,,,62,79
408726,set_tempo,,,,,280,1,0,447761,,,,,,
408798,note_off,,,,,78,0,1,,,0,,,71,64
408800,note_on,,,,,2,0,1,,,0,,,73,70
408878,note_off,,,,,78,0,1,,,0,,,73,64
408880,note_on,,,,,2,0,1,,,0,,,71,68
408958,note_off,,,,,78,0,1,,,0,,,71,64
408960,note_on,,,,,0,0,2,,,0,,,61,68
408960,note_off,,,,,0,0,2,,,0,,,62,64
408960,note_off,,,,,240,0,2,,,0,,,66,64
408960,note_on,,,,,2,0,1,,,0,,,69,67
408960,note_on,,,,,0,0,2,,,0,,,64,68
409038,note_off,,,,,78,0,1,,,0,,,69,64
409040,note_on,,,,,2,0,1,,,0,,,71,62
409118,note_off,,,,,78,0,1,,,0,,,71,64
409120,note_on,,,,,2,0,1,,,0,,,69,59
409198,note_off,,,,,78,0,1,,,0,,,69,64
409200,note_off,,,,,240,0,2,,,0,,,64,64
409200,note_off,,,,,0,0,2,,,0,,,61,64
409200,note_on,,,,,0,0,2,,,0,,,66,65
409200,note_on,,,,,0,0,2,,,0,,,62,65
409200,note_on,,,,,2,0,1,,,0,,,71,58
409266,set_tempo,,,,,540,1,0,454545,,,,,,
409278,note_off,,,,,78,0,1,,,0,,,71,64
409280,note_on,,,,,2,0,1,,,0,,,73,57
409358,note_off,,,,,78,0,1,,,0,,,73,64
409360,note_on,,,,,2,0,1,,,0,,,71,57
409406,set_tempo,,,,,140,1,0,472441,,,,,,
409438,note_off,,,,,78,0,1,,,0,,,71,64
409440,note_on,,,,,0,0,2,,,0,,,64,60
409440,note_on,,,,,0,0,2,,,0,,,61,60
409440,note_off,,,,,0,0,2,,,0,,,66,64
409440,note_off,,,,,240,0,2,,,0,,,62,64
409440,note_on,,,,,2,0,1,,,0,,,69,63
409518,note_off,,,,,78,0,1,,,0,,,69,64
409520,note_on,,,,,2,0,1,,,0,,,71,58
409598,note_off,,,,,78,0,1,,,0,,,71,64
409600,note_on,,,,,2,0,1,,,0,,,69,54
409626,set_tempo,,,,,220,1,0,483871,,,,,,
409678,note_off,,,,,78,0,1,,,0,,,69,64
409680,note_on,,,,,2,0,1,,,0,,,68,51
409680,note_on,,,,,0,0,2,,,0,,,62,49
409680,note_on,,,,,0,0,2,,,0,,,59,49
409680,note_off,,,,,0,0,2,,,0,,,61,64
409680,note_off,,,,,240,0,2,,,0,,,64,64
409758,note_off,,,,,78,0,1,,,0,,,68,64
409760,note_on,,,,,2,0,1,,,0,,,69,48
409766,set_tempo,,,,,140,1,0,495868,,,,,,
409806,set_tempo,,,,,40,1,0,504202,,,,,,
409838,note_off,,,,,78,0,1,,,0,,,69,64
409840,note_on,,,,,2,0,1,,,0,,,68,46
409866,set_tempo,,,,,60,1,0,1090909,,,,,,
409906,set_tempo,,,,,40,1,0,483871,,,,,,
409918,note_off,,,,,238,0,2,,,0,,,62,64
409918,note_off,,,,,0,0,2,,,0,,,59,64
409918,control_change,,,,,0,0,2,,,0,7,112,,
409918,note_off,,,,,78,0,1,,,0,,,68,64
409920,note_on,,,,,2,0,1,,,0,,,93,120
409920,note_on,,,,,2,0,2,,,0,,,48,127
409920,control_change,,,,,0,0,1,,,0,7,117,,
409928,control_change,,,,,8,0,1,,,0,64,95,,
409932,control_change,,,,,12,0,2,,,0,7,111,,
409948,control_change,,,,,16,0,2,,,0,7,110,,
409950,control_change,,,,,22,0,1,,,0,7,116,,
409962,control_change,,,,,14,0,2,,,0,7,109,,
409970,control_change,,,,,20,0,1,,,0,7,115,,
409978,control_change,,,,,16,0,2,,,0,7,108,,
409990,control_change,,,,,20,0,1,,,0,7,114,,
409992,control_change,,,,,14,0,2,,,0,7,107,,
409998,note_off,,,,,8,0,1,,,0,,,93,64
410000,note_on,,,,,2,0,1,,,0,,,88,115
410008,control_change,,,,,16,0,2,,,0,7,106,,
410010,control_change,,,,,10,0,1,,,0,7,113,,
410022,control_change,,,,,14,0,2,,,0,7,105,,
410038,control_change,,,,,16,0,2,,,0,7,104,,
410040,control_change,,,,,30,0,1,,,0,7,112,,
410052,control_change,,,,,14,0,2,,,0,7,103,,
410066,set_tempo,,,,,160,1,0,480000,,,,,,
410068,control_change,,,,,16,0,2,,,0,7,102,,
410070,control_change,,,,,30,0,1,,,0,7,111,,
410078,note_off,,,,,8,0,1,,,0,,,88,64
410080,note_on,,,,,2,0,1,,,0,,,84,108
410080,control_change,,,,,0,0,1,,,0,7,110,,
410082,control_change,,,,,14,0,2,,,0,7,101,,
410098,control_change,,,,,16,0,2,,,0,7,100,,
410106,set_tempo,,,,,40,1,0,476190,,,,,,
410110,control_change,,,,,30,0,1,,,0,7,109,,
410112,control_change,,,,,14,0,2,,,0,7,99,,
410120,control_change,,,,,10,0,1,,,0,7,108,,
410128,control_change,,,,,16,0,2,,,0,7,98,,
410142,control_change,,,,,14,0,2,,,0,7,97,,
410146,set_tempo,,,,,40,1,0,472441,,,,,,
410150,control_change,,,,,30,0,1,,,0,7,106,,
410158,note_off,,,,,16,0,2,,,0,,,48,64
410158,control_change,,,,,0,0,2,,,0,7,96,,
410158,note_off,,,,,8,0,1,,,0,,,84,64
410160,note_on,,,,,0,0,2,,,0,,,57,87
410160,note_on,,,,,2,0,1,,,0,,,81,100
410160,note_on,,,,,2,0,2,,,0,,,60,87
410160,note_on,,,,,0,0,2,,,0,,,52,87
410170,control_change,,,,,10,0,1,,,0,7,105,,
410172,control_change,,,,,12,0,2,,,0,7,95,,
410188,control_change,,,,,16,0,2,,,0,7,94,,
410190,control_change,,,,,20,0,1,,,0,7,104,,
410202,control_change,,,,,14,0,2,,,0,7,93,,
410210,control_change,,,,,20,0,1,,,0,7,103,,
410218,control_change,,,,,16,0,2,,,0,7,92,,
410226,set_tempo,,,,,80,1,0,468750,,,,,,
410230,control_change,,,,,20,0,1,,,0,7,102,,
410232,control_change,,,,,14,0,2,,,0,7,91,,
410238,note_off,,,,,8,0,1,,,0,,,81,64
410240,note_on,,,,,2,0,1,,,0,,,76,94
410240,control_change,,,,,0,0,1,,,0,7,101,,
410248,control_change,,,,,16,0,2,,,0,7,90,,
410250,control_change,,,,,10,0,1,,,0,7,100,,
410262,control_change,,,,,14,0,2,,,0,7,89,,
410266,set_tempo,,,,,40,1,0,465116,,,,,,
410270,control_change,,,,,20,0,1,,,0,7,99,,
410278,control_change,,,,,16,0,2,,,0,7,88,,
410280,control_change,,,,,10,0,1,,,0,7,98,,
410292,control_change,,,,,14,0,2,,,0,7,87,,
410306,set_tempo,,,,,40,1,0,461538,,,,,,
410308,control_change,,,,,16,0,2,,,0,7,86,,
410310,control_change,,,,,30,0,1,,,0,7,97,,
410318,note_off,,,,,0,0,2,,,0,,,60,64
410318,note_off,,,,,0,0,2,,,0,,,52,64
410318,note_off,,,,,10,0,2,,,0,,,57,64
410318,note_off,,,,,8,0,1,,,0,,,76,64
410320,control_change,,,,,0,0,1,,,0,7,96,,
410320,note_on,,,,,2,0,1,,,0,,,72,89
410322,control_change,,,,,4,0,2,,,0,7,85,,
410338,control_change,,,,,16,0,2,,,0,7,84,,
410350,control_change,,,,,30,0,1,,,0,7,95,,
410352,control_change,,,,,14,0,2,,,0,7,83,,
410358,control_change,,,,,8,0,1,,,0,64,0,,
410360,control_change,,,,,2,0,1,,,0,7,94,,
410368,control_change,,,,,16,0,2,,,0,7,82,,
410382,control_change,,,,,14,0,2,,,0,7,81,,
410398,control_change,,,,,16,0,2,,,0,7,80,,
410398,note_off,,,,,38,0,1,,,0,,,72,64
410400,note_on,,,,,2,0,2,,,0,,,50,127
410400,note_on,,,,,2,0,1,,,0,,,89,84
410408,control_change,,,,,8,0,1,,,0,64,95,,
410412,control_change,,,,,4,0,1,,,0,7,111,,
410412,control_change,,,,,12,0,2,,,0,7,111,,
410426,set_tempo,,,,,120,1,0,458015,,,,,,
410428,control_change,,,,,16,0,2,,,0,7,110,,
410428,control_change,,,,,16,0,1,,,0,7,110,,
410442,control_change,,,,,14,0,1,,,0,7,109,,
410442,control_change,,,,,14,0,2,,,0,7,109,,
410458,control_change,,,,,16,0,1,,,0,7,108,,
410458,control_change,,,,,16,0,2,,,0,7,108,,
410472,control_change,,,,,14,0,1,,,0,7,107,,
410472,control_change,,,,,14,0,2,,,0,7,107,,
410478,note_off,,,,,6,0,1,,,0,,,89,64
410480,note_on,,,,,2,0,1,,,0,,,86,115
410488,control_change,,,,,16,0,2,,,0,7,106,,
410488,control_change,,,,,8,0,1,,,0,7,106,,
410502,control_change,,,,,14,0,1,,,0,7,105,,
410502,control_change,,,,,14,0,2,,,0,7,105,,
410506,set_tempo,,,,,80,1,0,451128,,,,,,
410518,control_change,,,,,16,0,2,,,0,7,104,,
410518,control_change,,,,,16,0,1,,,0,7,104,,
410532,control_change,,,,,14,0,2,,,0,7,103,,
410532,control_change,,,,,14,0,1,,,0,7,103,,
410548,control_change,,,,,16,0,2,,,0,7,102,,
410548,control_change,,,,,16,0,1,,,0,7,102,,
410558,note_off,,,,,10,0,1,,,0,,,86,64
410560,note_on,,,,,2,0,1,,,0,,,81,108
410562,control_change,,,,,14,0,2,,,0,7,101,,
410562,control_change,,,,,2,0,1,,,0,7,101,,
410578,control_change,,,,,16,0,1,,,0,7,100,,
410578,control_change,,,,,16,0,2,,,0,7,100,,
410592,control_change,,,,,14,0,1,,,0,7,99,,
410592,control_change,,,,,14,0,2,,,0,7,99,,
410606,set_tempo,,,,,100,1,0,447761,,,,,,
410608,control_change,,,,,16,0,1,,,0,7,98,,
410608,control_change,,,,,16,0,2,,,0,7,98,,
410622,control_change,,,,,14,0,1,,,0,7,97,,
410622,control_change,,,,,14,0,2,,,0,7,97,,
410638,control_change,,,,,0,0,2,,,0,7,96,,
410638,control_change,,,,,0,0,1,,,0,7,96,,
410638,note_off,,,,,16,0,2,,,0,,,50,64
410638,note_off,,,,,16,0,1,,,0,,,81,64
410640,note_on,,,,,2,0,1,,,0,,,77,100
410640,note_on,,,,,0,0,2,,,0,,,62,87
410640,note_on,,,,,0,0,2,,,0,,,57,87
410640,note_on,,,,,2,0,2,,,0,,,53,87
410652,control_change,,,,,12,0,2,,,0,7,95,,
410652,control_change,,,,,12,0,1,,,0,7,95,,
410668,control_change,,,,,16,0,2,,,0,7,94,,
410668,control_change,,,,,16,0,1,,,0,7,94,,
410682,control_change,,,,,14,0,2,,,0,7,93,,
410682,control_change,,,,,14,0,1,,,0,7,93,,
410686,set_tempo,,,,,80,1,0,444444,,,,,,
410698,control_change,,,,,16,0,1,,,0,7,92,,
410698,control_change,,,,,16,0,2,,,0,7,92,,
410712,control_change,,,,,14,0,1,,,0,7,91,,
410712,control_change,,,,,14,0,2,,,0,7,91,,
410718,note_off,,,,,6,0,1,,,0,,,77,64
410720,note_on,,,,,2,0,1,,,0,,,74,94
410728,control_change,,,,,8,0,1,,,0,7,90,,
410728,control_change,,,,,16,0,2,,,0,7,90,,
410742,control_change,,,,,14,0,1,,,0,7,89,,
410742,control_change,,,,,14,0,2,,,0,7,89,,
410758,control_change,,,,,16,0,1,,,0,7,88,,
410758,control_change,,,,,16,0,2,,,0,7,88,,
410772,control_change,,,,,14,0,2,,,0,7,87,,
410772,control_change,,,,,14,0,1,,,0,7,87,,
410788,control_change,,,,,16,0,1,,,0,7,86,,
410788,control_change,,,,,16,0,2,,,0,7,86,,
410798,note_off,,,,,10,0,1,,,0,,,74,64
410798,note_off,,,,,10,0,2,,,0,,,57,64
410798,note_off,,,,,0,0,2,,,0,,,53,64
410798,note_off,,,,,0,0,2,,,0,,,62,64
410800,note_on,,,,,2,0,1,,,0,,,69,89
410802,control_change,,,,,4,0,2,,,0,7,85,,
410802,control_change,,,,,2,0,1,,,0,7,85,,
410806,set_tempo,,,,,120,1,0,441176,,,,,,
410818,control_change,,,,,16,0,2,,,0,7,84,,
410818,control_change,,,,,16,0,1,,,0,7,84,,
410832,control_change,,,,,14,0,2,,,0,7,83,,
410832,control_change,,,,,14,0,1,,,0,7,83,,
410838,control_change,,,,,6,0,1,,,0,64,0,,
410846,set_tempo,,,,,40,1,0,437956,,,,,,
410848,control_change,,,,,16,0,2,,,0,7,82,,
410848,control_change,,,,,10,0,1,,,0,7,82,,
410862,control_change,,,,,14,0,2,,,0,7,81,,
410862,control_change,,,,,14,0,1,,,0,7,81,,
410878,control_change,,,,,0,0,1,,,0,7,80,,
410878,note_off,,,,,16,0,1,,,0,,,69,64
410878,control_change,,,,,16,0,2,,,0,7,80,,
410880,note_on,,,,,2,0,1,,,0,,,88,84
410880,note_on,,,,,2,0,2,,,0,,,52,127
410888,control_change,,,,,8,0,1,,,0,64,95,,
410892,control_change,,,,,4,0,1,,,0,7,111,,
410892,control_change,,,,,12,0,2,,,0,7,111,,
410908,control_change,,,,,16,0,1,,,0,7,110,,
410908,control_change,,,,,16,0,2,,,0,7,110,,
410922,control_change,,,,,14,0,1,,,0,7,109,,
410922,control_change,,,,,14,0,2,,,0,7,109,,
410938,control_change,,,,,16,0,1,,,0,7,108,,
410938,control_change,,,,,16,0,2,,,0,7,108,,
410952,control_change,,,,,14,0,1,,,0,7,107,,
410952,control_change,,,,,14,0,2,,,0,7,107,,
410958,note_off,,,,,6,0,1,,,0,,,88,64
410960,note_on,,,,,2,0,1,,,0,,,84,115
410968,control_change,,,,,8,0,1,,,0,7,106,,
410968,control_change,,,,,16,0,2,,,0,7,106,,
410982,control_change,,,,,14,0,1,,,0,7,105,,
410982,control_change,,,,,14,0,2,,,0,7,105,,
410998,control_change,,,,,16,0,2,,,0,7,104,,
410998,control_change,,,,,16,0,1,,,0,7,104,,
411012,control_change,,,,,14,0,2,,,0,7,103,,
411012,control_change,,,,,14,0,1,,,0,7,103,,
411026,set_tempo,,,,,180,1,0,434783,,,,,,
411028,control_change,,,,,16,0,1,,,0,7,102,,
411028,control_change,,,,,16,0,2,,,0,7,102,,
411038,note_off,,,,,10,0,1,,,0,,,84,64
411040,note_on,,,,,2,0,1,,,0,,,81,108
411042,control_change,,,,,2,0,1,,,0,7,101,,
411042,control_change,,,,,14,0,2,,,0,7,101,,
411058,control_change,,,,,16,0,1,,,0,7,100,,
411058,control_change,,,,,16,0,2,,,0,7,100,,
411072,control_change,,,,,14,0,1,,,0,7,99,,
411072,control_change,,,,,14,0,2,,,0,7,99,,
411088,control_change,,,,,16,0,2,,,0,7,98,,
411088,control_change,,,,,16,0,1,,,0,7,98,,
411102,control_change,,,,,14,0,1,,,0,7,97,,
411102,control_change,,,,,14,0,2,,,0,7,97,,
411118,control_change,,,,,0,0,2,,,0,7,96,,
411118,control_change,,,,,0,0,1,,,0,7,96,,
411118,note_off,,,,,16,0,1,,,0,,,81,64
411118,note_off,,,,,16,0,2,,,0,,,52,64
411120,note_on,,,,,0,0,2,,,0,,,57,87
411120,note_on,,,,,0,0,2,,,0,,,64,87
411120,note_on,,,,,2,0,1,,,0,,,76,100
411120,note_on,,,,,2,0,2,,,0,,,60,87
411126,set_tempo,,,,,100,1,0,431655,,,,,,
411132,control_change,,,,,12,0,1,,,0,7,95,,
411132,control_change,,,,,12,0,2,,,0,7,95,,
411148,control_change,,,,,16,0,1,,,0,7,94,,
411148,control_change,,,,,16,0,2,,,0,7,94,,
411162,control_change,,,,,14,0,1,,,0,7,93,,
411162,control_change,,,,,14,0,2,,,0,7,93,,
411178,control_change,,,,,16,0,1,,,0,7,92,,
411178,control_change,,,,,16,0,2,,,0,7,92,,
411192,control_change,,,,,14,0,1,,,0,7,91,,
411192,control_change,,,,,14,0,2,,,0,7,91,,
411198,note_off,,,,,6,0,1,,,0,,,76,64
411200,note_on,,,,,2,0,1,,,0,,,72,94
411208,control_change,,,,,16,0,2,,,0,7,90,,
411208,control_change,,,,,8,0,1,,,0,7,90,,
411222,control_change,,,,,14,0,2,,,0,7,89,,
411222,control_change,,,,,14,0,1,,,0,7,89,,
411238,control_change,,,,,16,0,2,,,0,7,88,,
411238,control_change,,,,,16,0,1,,,0,7,88,,
411246,set_tempo,,,,,120,1,0,428571,,,,,,
411252,control_change,,,,,14,0,2,,,0,7,87,,
411252,control_change,,,,,14,0,1,,,0,7,87,,
411268,control_change,,,,,16,0,1,,,0,7,86,,
411268,control_change,,,,,16,0,2,,,0,7,86,,
411278,note_off,,,,,0,0,2,,,0,,,60,64
411278,note_off,,,,,0,0,2,,,0,,,64,64
411278,note_off,,,,,10,0,2,,,0,,,57,64
411278,note_off,,,,,10,0,1,,,0,,,72,64
411280,note_on,,,,,2,0,1,,,0,,,69,89
411282,control_change,,,,,2,0,1,,,0,7,85,,
411282,control_change,,,,,4,0,2,,,0,7,85,,
411286,set_tempo,,,,,40,1,0,425532,,,,,,
411298,control_change,,,,,16,0,2,,,0,7,84,,
411298,control_change,,,,,16,0,1,,,0,7,84,,
411312,control_change,,,,,14,0,1,,,0,7,83,,
411312,control_change,,,,,14,0,2,,,0,7,83,,
411318,control_change,,,,,6,0,1,,,0,64,0,,
411328,control_change,,,,,10,0,1,,,0,7,82,,
411328,control_change,,,,,16,0,2,,,0,7,82,,
411342,control_change,,,,,14,0,1,,,0,7,81,,
411342,control_change,,,,,14,0,2,,,0,7,81,,
411358,control_change,,,,,0,0,1,,,0,7,80,,
411358,control_change,,,,,16,0,2,,,0,7,80,,
411358,note_off,,,,,16,0,1,,,0,,,69,64
411360,note_on,,,,,2,0,2,,,0,,,52,127
411360,note_on,,,,,2,0,1,,,0,,,88,84
411368,control_change,,,,,8,0,1,,,0,64,95,,
411372,control_change,,,,,12,0,2,,,0,7,111,,
411372,control_change,,,,,4,0,1,,,0,7,111,,
411386,set_tempo,,,,,100,1,0,422535,,,,,,
411388,control_change,,,,,16,0,1,,,0,7,110,,
411388,control_change,,,,,16,0,2,,,0,7,110,,
411402,control_change,,,,,14,0,2,,,0,7,109,,
411402,control_change,,,,,14,0,1,,,0,7,109,,
411418,control_change,,,,,16,0,1,,,0,7,108,,
411418,control_change,,,,,16,0,2,,,0,7,108,,
411432,control_change,,,,,14,0,1,,,0,7,107,,
411432,control_change,,,,,14,0,2,,,0,7,107,,
411438,note_off,,,,,6,0,1,,,0,,,88,64
411440,note_on,,,,,2,0,1,,,0,,,83,115
411448,control_change,,,,,8,0,1,,,0,7,106,,
411448,control_change,,,,,16,0,2,,,0,7,106,,
411462,control_change,,,,,14,0,2,,,0,7,105,,
411462,control_change,,,,,14,0,1,,,0,7,105,,
411478,control_change,,,,,16,0,1,,,0,7,104,,
411478,control_change,,,,,16,0,2,,,0,7,104,,
411492,control_change,,,,,14,0,2,,,0,7,103,,
411492,control_change,,,,,14,0,1,,,0,7,103,,
411506,set_tempo,,,,,120,1,0,425532,,,,,,
411508,control_change,,,,,16,0,1,,,0,7,102,,
411508,control_change,,,,,16,0,2,,,0,7,102,,
411518,note_off,,,,,10,0,1,,,0,,,83,64
411520,note_on,,,,,2,0,1,,,0,,,80,94
411522,control_change,,,,,14,0,2,,,0,7,101,,
411522,control_change,,,,,2,0,1,,,0,7,101,,
411526,set_tempo,,,,,20,1,0,431655,,,,,,
411538,control_change,,,,,16,0,1,,,0,7,100,,
411538,control_change,,,,,16,0,2,,,0,7,100,,
411552,control_change,,,,,14,0,1,,,0,7,99,,
411552,control_change,,,,,14,0,2,,,0,7,99,,
411568,control_change,,,,,16,0,2,,,0,7,98,,
411568,control_change,,,,,16,0,1,,,0,7,98,,
411582,control_change,,,,,14,0,1,,,0,7,97,,
411582,control_change,,,,,14,0,2,,,0,7,97,,
411586,set_tempo,,,,,60,1,0,437956,,,,,,
411598,note_off,,,,,16,0,1,,,0,,,80,64
411598,note_off,,,,,16,0,2,,,0,,,52,64
411598,control_change,,,,,0,0,2,,,0,7,96,,
411598,control_change,,,,,0,0,1,,,0,7,96,,
411600,note_on,,,,,2,0,2,,,0,,,56,87
411600,note_on,,,,,0,0,2,,,0,,,64,87
411600,note_on,,,,,0,0,2,,,0,,,59,87
411600,note_on,,,,,2,0,1,,,0,,,76,96
411606,set_tempo,,,,,20,1,0,441176,,,,,,
411612,control_change,,,,,12,0,2,,,0,7,95,,
411612,control_change,,,,,12,0,1,,,0,7,95,,
411628,control_change,,,,,16,0,2,,,0,7,94,,
411628,control_change,,,,,16,0,1,,,0,7,94,,
411642,control_change,,,,,14,0,1,,,0,7,93,,
411642,control_change,,,,,14,0,2,,,0,7,93,,
411646,set_tempo,,,,,40,1,0,447761,,,,,,
411658,control_change,,,,,16,0,1,,,0,7,92,,
411658,control_change,,,,,16,0,2,,,0,7,92,,
411666,set_tempo,,,,,20,1,0,451128,,,,,,
411672,control_change,,,,,14,0,1,,,0,7,91,,
411672,control_change,,,,,14,0,2,,,0,7,91,,
411678,note_off,,,,,6,0,1,,,0,,,76,64
411680,note_on,,,,,2,0,1,,,0,,,71,99
411686,set_tempo,,,,,20,1,0,454545,,,,,,
411688,control_change,,,,,16,0,2,,,0,7,90,,
411688,control_change,,,,,8,0,1,,,0,7,90,,
411702,control_change,,,,,14,0,2,,,0,7,89,,
411702,control_change,,,,,14,0,1,,,0,7,89,,
411706,set_tempo,,,,,20,1,0,458015,,,,,,
411718,control_change,,,,,16,0,1,,,0,7,88,,
411718,control_change,,,,,16,0,2,,,0,7,88,,
411732,control_change,,,,,14,0,2,,,0,7,87,,
411732,control_change,,,,,14,0,1,,,0,7,87,,
411748,control_change,,,,,16,0,2,,,0,7,86,,
411748,control_change,,,,,16,0,1,,,0,7,86,,
411758,note_off,,,,,10,0,2,,,0,,,64,64
411758,note_off,,,,,0,0,2,,,0,,,59,64
411758,note_off,,,,,0,0,2,,,0,,,56,64
411758,note_off,,,,,10,0,1,,,0,,,71,64
411760,note_on,,,,,2,0,1,,,0,,,68,100
411762,control_change,,,,,2,0,1,,,0,7,85,,
411762,control_change,,,,,4,0,2,,,0,7,85,,
411778,control_change,,,,,16,0,2,,,0,7,84,,
411778,control_change,,,,,16,0,1,,,0,7,84,,
411792,control_change,,,,,14,0,2,,,0,7,83,,
411792,control_change,,,,,14,0,1,,,0,7,83,,
411798,control_change,,,,,6,0,1,,,0,64,0,,
411808,control_change,,,,,16,0,2,,,0,7,82,,
411808,control_change,,,,,10,0,1,,,0,7,82,,
411822,control_change,,,,,14,0,2,,,0,7,81,,
411822,control_change,,,,,14,0,1,,,0,7,81,,
411838,control_change,,,,,16,0,2,,,0,7,80,,
411838,control_change,,,,,0,0,1,,,0,7,80,,
411838,note_off,,,,,16,0,1,,,0,,,68,64
411840,note_on,,,,,2,0,1,,,0,,,69,100
411848,control_change,,,,,8,0,1,,,0,64,95,,
411852,control_change,,,,,4,0,1,,,0,7,111,,
411852,control_change,,,,,14,0,2,,,0,7,111,,
411866,set_tempo,,,,,160,1,0,472441,,,,,,
411868,control_change,,,,,16,0,2,,,0,7,110,,
411868,control_change,,,,,16,0,1,,,0,7,110,,
411882,control_change,,,,,14,0,2,,,0,7,109,,
411882,control_change,,,,,14,0,1,,,0,7,109,,
411886,set_tempo,,,,,20,1,0,476190,,,,,,
411898,control_change,,,,,16,0,2,,,0,7,108,,
411898,control_change,,,,,16,0,1,,,0,7,108,,
411912,control_change,,,,,14,0,2,,,0,7,107,,
411912,control_change,,,,,14,0,1,,,0,7,107,,
411918,note_off,,,,,6,0,1,,,0,,,69,64
411920,note_on,,,,,2,0,1,,,0,,,64,90
411928,control_change,,,,,8,0,1,,,0,7,106,,
411928,control_change,,,,,16,0,2,,,0,7,106,,
411942,control_change,,,,,14,0,2,,,0,7,105,,
411942,control_change,,,,,14,0,1,,,0,7,105,,
411958,control_change,,,,,16,0,2,,,0,7,104,,
411958,control_change,,,,,16,0,1,,,0,7,104,,
411972,control_change,,,,,14,0,1,,,0,7,103,,
411972,control_change,,,,,14,0,2,,,0,7,103,,
411988,control_change,,,,,16,0,2,,,0,7,102,,
411988,control_change,,,,,16,0,1,,,0,7,102,,
411998,note_off,,,,,10,0,1,,,0,,,64,64
412000,note_on,,,,,2,0,1,,,0,,,60,86
412002,control_change,,,,,14,0,2,,,0,7,101,,
412002,control_change,,,,,2,0,1,,,0,7,101,,
412018,control_change,,,,,16,0,2,,,0,7,100,,
412018,control_change,,,,,16,0,1,,,0,7,100,,
412032,control_change,,,,,14,0,2,,,0,7,99,,
412032,control_change,,,,,14,0,1,,,0,7,99,,
412048,control_change,,,,,16,0,2,,,0,7,98,,
412048,control_change,,,,,16,0,1,,,0,7,98,,
412062,control_change,,,,,14,0,2,,,0,7,97,,
412062,control_change,,,,,14,0,1,,,0,7,97,,
412066,set_tempo,,,,,180,1,0,461538,,,,,,
412078,control_change,,,,,0,0,1,,,0,7,96,,
412078,control_change,,,,,16,0,2,,,0,7,96,,
412078,note_off,,,,,16,0,1,,,0,,,60,64
412080,note_on,,,,,2,0,1,,,0,,,57,77
412086,set_tempo,,,,,20,1,0,465116,,,,,,
412092,control_change,,,,,12,0,1,,,0,7,95,,
412092,control_change,,,,,14,0,2,,,0,7,95,,
412108,control_change,,,,,16,0,2,,,0,7,94,,
412108,control_change,,,,,16,0,1,,,0,7,94,,
412122,control_change,,,,,14,0,1,,,0,7,93,,
412122,control_change,,,,,14,0,2,,,0,7,93,,
412138,control_change,,,,,16,0,1,,,0,7,92,,
412138,control_change,,,,,16,0,2,,,0,7,92,,
412152,control_change,,,,,14,0,1,,,0,7,91,,
412152,control_change,,,,,14,0,2,,,0,7,91,,
412158,note_off,,,,,6,0,1,,,0,,,57,64
412160,note_on,,,,,8,0,2,,,0,,,52,77
412168,control_change,,,,,10,0,1,,,0,7,90,,
412168,control_change,,,,,8,0,2,,,0,7,90,,
412182,control_change,,,,,14,0,2,,,0,7,89,,
412182,control_change,,,,,14,0,1,,,0,7,89,,
412198,control_change,,,,,16,0,1,,,0,7,88,,
412198,control_change,,,,,16,0,2,,,0,7,88,,
412212,control_change,,,,,14,0,2,,,0,7,87,,
412212,control_change,,,,,14,0,1,,,0,7,87,,
412228,control_change,,,,,16,0,1,,,0,7,86,,
412228,control_change,,,,,16,0,2,,,0,7,86,,
412238,note_off,,,,,10,0,2,,,0,,,52,64
412240,note_on,,,,,2,0,2,,,0,,,48,72
412242,control_change,,,,,14,0,1,,,0,7,85,,
412242,control_change,,,,,2,0,2,,,0,7,85,,
412258,control_change,,,,,16,0,2,,,0,7,84,,
412258,control_change,,,,,16,0,1,,,0,7,84,,
412272,control_change,,,,,14,0,2,,,0,7,83,,
412272,control_change,,,,,14,0,1,,,0,7,83,,
412278,control_change,,,,,6,0,1,,,0,64,0,,
412288,control_change,,,,,10,0,1,,,0,7,82,,
412288,control_change,,,,,16,0,2,,,0,7,82,,
412302,control_change,,,,,14,0,1,,,0,7,81,,
412302,control_change,,,,,14,0,2,,,0,7,81,,
412318,note_off,,,,,16,0,2,,,0,,,48,64
412318,control_change,,,,,0,0,2,,,0,7,80,,
412318,control_change,,,,,16,0,1,,,0,7,80,,
412320,note_on,,,,,2,0,1,,,0,,,69,55
412320,note_on,,,,,0,0,1,,,0,,,72,55
412320,note_on,,,,,2,0,2,,,0,,,45,67
412320,note_on,,,,,0,0,1,,,0,,,76,55
412332,control_change,,,,,12,0,2,,,0,7,111,,
412348,control_change,,,,,16,0,2,,,0,7,110,,
412362,control_change,,,,,14,0,2,,,0,7,109,,
412378,control_change,,,,,16,0,2,,,0,7,108,,
412392,control_change,,,,,14,0,2,,,0,7,107,,
412398,note_off,,,,,6,0,2,,,0,,,45,64
412400,note_on,,,,,2,0,2,,,0,,,44,62
412408,control_change,,,,,8,0,2,,,0,7,106,,
412422,control_change,,,,,14,0,2,,,0,7,105,,
412438,control_change,,,,,16,0,2,,,0,7,104,,
412452,control_change,,,,,14,0,2,,,0,7,103,,
412468,control_change,,,,,16,0,2,,,0,7,102,,
412478,note_off,,,,,10,0,2,,,0,,,44,64
412480,note_on,,,,,2,0,2,,,0,,,45,59
412482,control_change,,,,,2,0,2,,,0,7,101,,
412498,control_change,,,,,16,0,2,,,0,7,100,,
412500,note_off,,,,,180,0,1,,,0,,,76,64
412500,note_off,,,,,0,0,1,,,0,,,72,64
412500,note_off,,,,,0,0,1,,,0,,,69,64
412512,control_change,,,,,14,0,2,,,0,7,99,,
412526,set_tempo,,,,,440,1,0,461538,,,,,,
412528,control_change,,,,,16,0,2,,,0,7,98,,
412542,control_change,,,,,14,0,2,,,0,7,97,,
412558,control_change,,,,,0,0,2,,,0,7,96,,
412558,note_off,,,,,16,0,2,,,0,,,45,64
412560,note_on,,,,,2,0,2,,,0,,,47,56
412560,note_on,,,,,60,0,1,,,0,,,68,51
412560,note_on,,,,,0,0,1,,,0,,,74,51
412560,note_on,,,,,0,0,1,,,0,,,76,51
412572,control_change,,,,,12,0,2,,,0,7,95,,
412588,control_change,,,,,16,0,2,,,0,7,94,,
412602,control_change,,,,,14,0,2,,,0,7,93,,
412618,control_change,,,,,16,0,2,,,0,7,92,,
412632,control_change,,,,,14,0,2,,,0,7,91,,
412638,note_off,,,,,6,0,2,,,0,,,47,64
412640,note_on,,,,,2,0,2,,,0,,,48,54
412648,control_change,,,,,8,0,2,,,0,7,90,,
412662,control_change,,,,,14,0,2,,,0,7,89,,
412678,control_change,,,,,16,0,2,,,0,7,88,,
412692,control_change,,,,,14,0,2,,,0,7,87,,
412708,control_change,,,,,16,0,2,,,0,7,86,,
412718,note_off,,,,,10,0,2,,,0,,,48,64
412720,note_on,,,,,2,0,2,,,0,,,47,58
412722,control_change,,,,,2,0,2,,,0,7,85,,
412738,control_change,,,,,16,0,2,,,0,7,84,,
412740,note_off,,,,,0,0,1,,,0,,,68,64
412740,note_off,,,,,180,0,1,,,0,,,76,64
412740,note_off,,,,,0,0,1,,,0,,,74,64
412752,control_change,,,,,14,0,2,,,0,7,83,,
412768,control_change,,,,,16,0,2,,,0,7,82,,
412782,control_change,,,,,14,0,2,,,0,7,81,,
412786,set_tempo,,,,,260,1,0,458015,,,,,,
412798,note_off,,,,,16,0,2,,,0,,,47,64
412798,control_change,,,,,0,0,2,,,0,7,80,,
412800,note_on,,,,,60,0,1,,,0,,,76,75
412800,note_on,,,,,2,0,2,,,0,,,45,59
412800,note_on,,,,,0,0,1,,,0,,,69,75
412800,note_on,,,,,0,0,1,,,0,,,72,75
412878,note_off,,,,,78,0,2,,,0,,,45,64
412880,note_on,,,,,2,0,2,,,0,,,44,53
412958,note_off,,,,,78,0,2,,,0,,,44,64
412960,note_on,,,,,2,0,2,,,0,,,45,59
412980,note_off,,,,,0,0,1,,,0,,,69,64
412980,note_off,,,,,0,0,1,,,0,,,76,64
412980,note_off,,,,,180,0,1,,,0,,,72,64
413006,set_tempo,,,,,220,1,0,454545,,,,,,
413038,note_off,,,,,78,0,2,,,0,,,45,64
413040,note_on,,,,,0,0,1,,,0,,,74,69
413040,note_on,,,,,60,0,1,,,0,,,68,69
413040,note_on,,,,,0,0,1,,,0,,,76,69
413040,note_on,,,,,2,0,2,,,0,,,47,63
413118,note_off,,,,,78,0,2,,,0,,,47,64
413120,note_on,,,,,2,0,2,,,0,,,48,67
413198,note_off,,,,,78,0,2,,,0,,,48,64
413200,note_on,,,,,2,0,2,,,0,,,47,72
413220,note_off,,,,,0,0,1,,,0,,,74,64
413220,note_off,,,,,0,0,1,,,0,,,68,64
413220,note_off,,,,,180,0,1,,,0,,,76,64
413278,note_off,,,,,78,0,2,,,0,,,47,64
413280,note_on,,,,,2,0,2,,,0,,,45,75
413280,note_on,,,,,0,0,1,,,0,,,76,87
413280,note_on,,,,,0,0,1,,,0,,,72,87
413280,note_on,,,,,60,0,1,,,0,,,69,87
413286,set_tempo,,,,,280,1,0,451128,,,,,,
413358,note_off,,,,,78,0,2,,,0,,,45,64
413360,note_on,,,,,2,0,2,,,0,,,47,75
413438,note_off,,,,,78,0,2,,,0,,,47,64
413440,note_on,,,,,2,0,2,,,0,,,45,78
413460,note_off,,,,,0,0,1,,,0,,,69,64
413460,note_off,,,,,180,0,1,,,0,,,76,64
413460,note_off,,,,,0,0,1,,,0,,,72,64
413486,set_tempo,,,,,200,1,0,447761,,,,,,
413518,note_off,,,,,78,0,2,,,0,,,45,64
413520,note_on,,,,,60,0,1,,,0,,,70,81
413520,note_on,,,,,0,0,1,,,0,,,76,81
413520,note_on,,,,,0,0,1,,,0,,,73,81
413520,note_on,,,,,2,0,2,,,0,,,43,82
413598,note_off,,,,,78,0,2,,,0,,,43,64
413600,note_on,,,,,2,0,2,,,0,,,45,86
413678,note_off,,,,,78,0,2,,,0,,,45,64
413680,note_on,,,,,2,0,2,,,0,,,43,91
413700,note_off,,,,,0,0,1,,,0,,,70,64
413700,note_off,,,,,0,0,1,,,0,,,73,64
413700,note_off,,,,,180,0,1,,,0,,,76,64
413758,note_off,,,,,78,0,2,,,0,,,43,64
413760,note_on,,,,,0,0,1,,,0,,,72,98
413760,note_on,,,,,0,0,1,,,0,,,77,98
413760,note_on,,,,,2,0,2,,,0,,,41,95
413760,note_on,,,,,60,0,1,,,0,,,69,98
413766,set_tempo,,,,,280,1,0,444444,,,,,,
413838,note_off,,,,,78,0,2,,,0,,,41,64
413840,note_on,,,,,2,0,2,,,0,,,45,89
413886,set_tempo,,,,,120,1,0,441176,,,,,,
413918,note_off,,,,,78,0,2,,,0,,,45,64
413920,note_on,,,,,2,0,2,,,0,,,48,84
413940,note_off,,,,,0,0,1,,,0,,,72,64
413940,note_off,,,,,0,0,1,,,0,,,69,64
413940,note_off,,,,,180,0,1,,,0,,,77,64
413998,note_off,,,,,78,0,2,,,0,,,48,64
414000,note_on,,,,,2,0,2,,,0,,,53,81
414046,set_tempo,,,,,160,1,0,437956,,,,,,
414078,note_off,,,,,78,0,2,,,0,,,53,64
414080,note_on,,,,,2,0,2,,,0,,,57,71
414158,note_off,,,,,78,0,2,,,0,,,57,64
414160,note_on,,,,,2,0,2,,,0,,,60,66
414238,note_off,,,,,78,0,2,,,0,,,60,64
414240,note_on,,,,,2,0,2,,,0,,,65,65
414240,note_on,,,,,0,0,1,,,0,,,81,67
414240,note_on,,,,,0,0,1,,,0,,,77,67
414240,note_on,,,,,300,0,1,,,0,,,84,67
414318,note_off,,,,,78,0,2,,,0,,,65,64
414320,note_on,,,,,2,0,2,,,0,,,67,63
414386,set_tempo,,,,,340,1,0,434783,,,,,,
414398,note_off,,,,,78,0,2,,,0,,,67,64
414400,note_on,,,,,2,0,2,,,0,,,65,63
414420,note_off,,,,,0,0,1,,,0,,,84,64
414420,note_off,,,,,0,0,1,,,0,,,77,64
414420,note_off,,,,,180,0,1,,,0,,,81,64
414478,note_off,,,,,78,0,2,,,0,,,65,64
414480,note_on,,,,,60,0,1,,,0,,,76,60
414480,note_on,,,,,0,0,1,,,0,,,84,60
414480,note_on,,,,,0,0,1,,,0,,,82,60
414480,note_on,,,,,2,0,2,,,0,,,64,63
414558,note_off,,,,,78,0,2,,,0,,,64,64
414560,note_on,,,,,2,0,2,,,0,,,62,66
414638,note_off,,,,,78,0,2,,,0,,,62,64
414640,note_on,,,,,2,0,2,,,0,,,64,70
414660,note_off,,,,,180,0,1,,,0,,,84,64
414660,note_off,,,,,0,0,1,,,0,,,82,64
414660,note_off,,,,,0,0,1,,,0,,,76,64
414666,set_tempo,,,,,280,1,0,431655,,,,,,
414718,note_off,,,,,78,0,2,,,0,,,64,64
414720,note_on,,,,,0,0,1,,,0,,,84,77
414720,note_on,,,,,0,0,1,,,0,,,81,77
414720,note_on,,,,,60,0,1,,,0,,,77,77
414720,note_on,,,,,2,0,2,,,0,,,65,72
414798,note_off,,,,,78,0,2,,,0,,,65,64
414800,note_on,,,,,2,0,2,,,0,,,67,78
414878,note_off,,,,,78,0,2,,,0,,,67,64
414880,note_on,,,,,2,0,2,,,0,,,65,82
414900,note_off,,,,,180,0,1,,,0,,,84,64
414900,note_off,,,,,0,0,1,,,0,,,77,64
414900,note_off,,,,,0,0,1,,,0,,,81,64
414958,note_off,,,,,78,0,2,,,0,,,65,64
414960,note_on,,,,,2,0,2,,,0,,,64,86
414960,note_on,,,,,60,0,1,,,0,,,79,74
414960,note_on,,,,,0,0,1,,,0,,,84,74
414960,note_on,,,,,0,0,1,,,0,,,82,74
415038,note_off,,,,,78,0,2,,,0,,,64,64
415040,note_on,,,,,2,0,2,,,0,,,62,91
415066,set_tempo,,,,,400,1,0,428571,,,,,,
415118,note_off,,,,,78,0,2,,,0,,,62,64
415120,note_on,,,,,2,0,2,,,0,,,64,96
415140,note_off,,,,,0,0,1,,,0,,,79,64
415140,note_off,,,,,0,0,1,,,0,,,82,64
415140,note_off,,,,,180,0,1,,,0,,,84,64
415198,note_off,,,,,78,0,2,,,0,,,64,64
415200,note_on,,,,,0,0,1,,,0,,,81,96
415200,note_on,,,,,60,0,1,,,0,,,77,96
415200,note_on,,,,,2,0,2,,,0,,,65,100
415200,note_on,,,,,0,0,1,,,0,,,84,96
415278,note_off,,,,,78,0,2,,,0,,,65,64
415280,note_on,,,,,2,0,2,,,0,,,67,106
415306,set_tempo,,,,,240,1,0,425532,,,,,,
415358,note_off,,,,,78,0,2,,,0,,,67,64
415360,note_on,,,,,2,0,2,,,0,,,65,109
415380,note_off,,,,,0,0,1,,,0,,,77,64
415380,note_off,,,,,0,0,1,,,0,,,81,64
415380,note_off,,,,,180,0,1,,,0,,,84,64
415438,note_off,,,,,78,0,2,,,0,,,65,64
415440,note_on,,,,,2,0,2,,,0,,,64,112
415440,note_on,,,,,0,0,1,,,0,,,84,92
415440,note_on,,,,,60,0,1,,,0,,,81,92
415518,note_off,,,,,78,0,2,,,0,,,64,64
415520,note_on,,,,,2,0,2,,,0,,,65,116
415526,set_tempo,,,,,220,1,0,431655,,,,,,
415598,note_off,,,,,78,0,2,,,0,,,65,64
415600,note_on,,,,,2,0,2,,,0,,,64,119
415620,note_off,,,,,0,0,1,,,0,,,81,64
415620,note_off,,,,,180,0,1,,,0,,,84,64
415678,note_off,,,,,78,0,2,,,0,,,64,64
415680,note_on,,,,,60,0,1,,,0,,,84,127
415680,control_change,,,,,0,0,1,,,0,64,95,,
415680,note_on,,,,,2,0,2,,,0,,,63,122
415686,set_tempo,,,,,160,1,0,500000,,,,,,
415746,set_tempo,,,,,60,1,0,425532,,,,,,
415758,note_off,,,,,78,0,1,,,0,,,84,64
415760,note_on,,,,,2,0,1,,,0,,,81,118
415838,note_off,,,,,78,0,1,,,0,,,81,64
415840,note_on,,,,,2,0,1,,,0,,,78,114
415918,note_off,,,,,78,0,1,,,0,,,78,64
415920,note_on,,,,,2,0,1,,,0,,,72,110
415920,note_off,,,,,240,0,2,,,0,,,63,64
415998,note_off,,,,,78,0,1,,,0,,,72,64
416000,note_on,,,,,2,0,1,,,0,,,69,104
416078,note_off,,,,,78,0,1,,,0,,,69,64
416080,note_on,,,,,2,0,1,,,0,,,66,98
416146,set_tempo,,,,,400,1,0,422535,,,,,,
416150,control_change,,,,,70,0,1,,,0,64,0,,
416158,note_off,,,,,8,0,1,,,0,,,66,64
416160,note_on,,,,,2,0,1,,,0,,,51,127
416160,control_change,,,,,0,0,1,,,0,64,96,,
416160,note_on,,,,,0,0,1,,,0,,,93,127
416186,set_tempo,,,,,40,1,0,500000,,,,,,
416246,set_tempo,,,,,60,1,0,422535,,,,,,
416280,note_off,,,,,0,0,1,,,0,,,51,64
416280,note_on,,,,,0,0,1,,,0,,,81,114
416280,note_on,,,,,0,0,1,,,0,,,54,114
416280,note_off,,,,,120,0,1,,,0,,,93,64
416340,control_change,,,,,60,0,1,,,0,64,0,,
416370,note_off,,,,,30,0,1,,,0,,,54,64
416370,note_off,,,,,0,0,1,,,0,,,81,64
416400,note_on,,,,,30,0,1,,,0,,,54,123
416400,note_on,,,,,0,0,1,,,0,,,81,123
416400,note_on,,,,,0,0,1,,,0,,,84,123
416400,control_change,,,,,0,0,1,,,0,64,95,,
416520,note_on,,,,,0,0,1,,,0,,,72,105
416520,note_on,,,,,0,0,1,,,0,,,66,105
416520,note_off,,,,,0,0,1,,,0,,,54,64
416520,note_off,,,,,0,0,1,,,0,,,81,64
416520,note_off,,,,,120,0,1,,,0,,,84,64
416580,control_change,,,,,60,0,1,,,0,64,0,,
416610,note_off,,,,,30,0,1,,,0,,,72,64
416610,note_off,,,,,0,0,1,,,0,,,66,64
416640,note_on,,,,,30,0,1,,,0,,,84,127
416640,control_change,,,,,0,0,1,,,0,64,95,,
416718,note_off,,,,,78,0,1,,,0,,,84,64
416720,note_on,,,,,2,0,1,,,0,,,81,118
416798,note_off,,,,,78,0,1,,,0,,,81,64
416800,note_on,,,,,2,0,1,,,0,,,76,114
416806,set_tempo,,,,,560,1,0,419580,,,,,,
416878,note_off,,,,,78,0,1,,,0,,,76,64
416880,note_on,,,,,2,0,1,,,0,,,72,110
416946,set_tempo,,,,,140,1,0,416667,,,,,,
416958,note_off,,,,,78,0,1,,,0,,,72,64
416960,note_on,,,,,2,0,1,,,0,,,69,104
417038,note_off,,,,,78,0,1,,,0,,,69,64
417040,note_on,,,,,2,0,1,,,0,,,64,99
417110,control_change,,,,,70,0,1,,,0,64,0,,
417120,control_change,,,,,0,0,1,,,0,64,96,,
417120,note_on,,,,,0,0,1,,,0,,,93,127
417120,note_off,,,,,10,0,1,,,0,,,64,64
417120,note_on,,,,,0,0,1,,,0,,,51,127
417240,note_off,,,,,120,0,1,,,0,,,93,64
417240,note_on,,,,,0,0,1,,,0,,,81,114
417240,note_off,,,,,0,0,1,,,0,,,51,64
417240,note_on,,,,,0,0,1,,,0,,,52,114
417300,control_change,,,,,60,0,1,,,0,64,0,,
417330,note_off,,,,,30,0,1,,,0,,,81,64
417330,note_off,,,,,0,0,1,,,0,,,52,64
417360,note_on,,,,,30,0,1,,,0,,,52,123
417360,note_on,,,,,0,0,1,,,0,,,81,123
417360,note_on,,,,,0,0,1,,,0,,,84,123
417360,control_change,,,,,0,0,1,,,0,64,95,,
417480,note_off,,,,,120,0,1,,,0,,,84,64
417480,note_off,,,,,0,0,1,,,0,,,81,64
417480,note_off,,,,,0,0,1,,,0,,,52,64
417480,note_on,,,,,0,0,1,,,0,,,64,105
417480,note_on,,,,,0,0,1,,,0,,,72,105
417540,control_change,,,,,60,0,1,,,0,64,0,,
417570,note_off,,,,,30,0,1,,,0,,,72,64
417570,note_off,,,,,0,0,1,,,0,,,64,64
417586,set_tempo,,,,,640,1,0,410959,,,,,,
417600,control_change,,,,,0,0,1,,,0,64,95,,
417600,note_on,,,,,30,0,1,,,0,,,84,127
417678,note_off,,,,,78,0,1,,,0,,,84,64
417680,note_on,,,,,2,0,1,,,0,,,81,118
417758,note_off,,,,,78,0,1,,,0,,,81,64
417760,note_on,,,,,2,0,1,,,0,,,74,114
417838,note_off,,,,,78,0,1,,,0,,,74,64
417840,note_on,,,,,2,0,1,,,0,,,74,110
417918,note_off,,,,,78,0,1,,,0,,,74,64
417920,note_on,,,,,2,0,1,,,0,,,72,104
417966,set_tempo,,,,,380,1,0,408163,,,,,,
417998,note_off,,,,,78,0,1,,,0,,,72,64
418000,note_on,,,,,2,0,1,,,0,,,69,99
418070,control_change,,,,,70,0,1,,,0,64,0,,
418080,note_on,,,,,0,0,1,,,0,,,52,127
418080,note_on,,,,,0,0,1,,,0,,,93,127
418080,control_change,,,,,0,0,1,,,0,64,96,,
418080,note_off,,,,,10,0,1,,,0,,,69,64
418200,note_off,,,,,120,0,1,,,0,,,93,64
418200,note_off,,,,,0,0,1,,,0,,,52,64
418200,note_on,,,,,0,0,1,,,0,,,53,114
418200,note_on,,,,,0,0,1,,,0,,,81,114
418260,control_change,,,,,60,0,1,,,0,64,0,,
418290,note_off,,,,,0,0,1,,,0,,,53,64
418290,note_off,,,,,30,0,1,,,0,,,81,64
418320,control_change,,,,,0,0,1,,,0,64,95,,
418320,note_on,,,,,30,0,1,,,0,,,86,123
418320,note_on,,,,,0,0,1,,,0,,,81,123
418320,note_on,,,,,0,0,1,,,0,,,53,123
418320,note_on,,,,,0,0,1,,,0,,,84,123
418346,set_tempo,,,,,380,1,0,405405,,,,,,
418440,note_off,,,,,120,0,1,,,0,,,84,64
418440,note_off,,,,,0,0,1,,,0,,,81,64
418440,note_off,,,,,0,0,1,,,0,,,53,64
418440,note_on,,,,,0,0,1,,,0,,,74,105
418440,note_on,,,,,0,0,1,,,0,,,65,105
418440,note_off,,,,,0,0,1,,,0,,,86,64
418500,control_change,,,,,60,0,1,,,0,64,0,,
418530,note_off,,,,,30,0,1,,,0,,,65,64
418530,note_off,,,,,0,0,1,,,0,,,74,64
418560,note_on,,,,,0,0,1,,,0,,,93,127
418560,control_change,,,,,0,0,1,,,0,64,96,,
418560,note_on,,,,,30,0,1,,,0,,,52,127
418646,set_tempo,,,,,300,1,0,402685,,,,,,
418680,note_off,,,,,0,0,1,,,0,,,52,64
418680,note_off,,,,,120,0,1,,,0,,,93,64
418680,note_on,,,,,0,0,1,,,0,,,81,114
418680,note_on,,,,,0,0,1,,,0,,,53,114
418740,control_change,,,,,60,0,1,,,0,64,0,,
418770,note_off,,,,,0,0,1,,,0,,,53,64
418770,note_off,,,,,30,0,1,,,0,,,81,64
418800,note_on,,,,,30,0,1,,,0,,,86,123
418800,note_on,,,,,0,0,1,,,0,,,53,123
418800,note_on,,,,,0,0,1,,,0,,,81,123
418800,note_on,,,,,0,0,1,,,0,,,84,123
418800,control_change,,,,,0,0,1,,,0,64,95,,
418920,note_off,,,,,120,0,1,,,0,,,84,64
418920,note_off,,,,,0,0,1,,,0,,,81,64
418920,note_off,,,,,0,0,1,,,0,,,53,64
418920,note_off,,,,,0,0,1,,,0,,,86,64
418920,note_on,,,,,0,0,1,,,0,,,74,105
418920,note_on,,,,,0,0,1,,,0,,,65,105
419010,note_off,,,,,90,0,1,,,0,,,65,64
419010,note_off,,,,,0,0,1,,,0,,,74,64
419038,control_change,,,,,28,0,1,,,0,64,0,,
419040,control_change,,,,,0,0,1,,,0,64,96,,
419040,note_on,,,,,0,0,1,,,0,,,93,127
419040,note_on,,,,,2,0,1,,,0,,,53,127
419160,note_on,,,,,0,0,1,,,0,,,81,114
419160,note_off,,,,,120,0,1,,,0,,,93,64
419160,note_off,,,,,0,0,1,,,0,,,53,64
419160,note_on,,,,,0,0,1,,,0,,,54,114
419220,control_change,,,,,60,0,1,,,0,64,0,,
419250,note_off,,,,,30,0,1,,,0,,,81,64
419250,note_off,,,,,0,0,1,,,0,,,54,64
419280,note_on,,,,,30,0,1,,,0,,,54,123
419280,note_on,,,,,0,0,1,,,0,,,86,123
419280,note_on,,,,,0,0,1,,,0,,,81,123
419280,note_on,,,,,0,0,1,,,0,,,84,123
419280,control_change,,,,,0,0,1,,,0,64,95,,
419400,note_on,,,,,0,0,1,,,0,,,74,105
419400,note_off,,,,,0,0,1,,,0,,,54,64
419400,note_off,,,,,0,0,1,,,0,,,81,64
419400,note_off,,,,,120,0,1,,,0,,,84,64
419400,note_on,,,,,0,0,1,,,0,,,66,105
419400,note_off,,,,,0,0,1,,,0,,,86,64
419460,control_change,,,,,60,0,1,,,0,64,0,,
419490,note_off,,,,,30,0,1,,,0,,,74,64
419490,note_off,,,,,0,0,1,,,0,,,66,64
419520,control_change,,,,,30,0,1,,,0,7,80,,
419520,note_on,,,,,0,0,1,,,0,,,54,127
419520,note_on,,,,,0,0,1,,,0,,,95,127
419520,control_change,,,,,0,0,1,,,0,64,96,,
419608,control_change,,,,,88,0,1,,,0,7,81,,
419640,note_on,,,,,0,0,1,,,0,,,55,114
419640,note_on,,,,,0,0,1,,,0,,,83,114
419640,note_off,,,,,0,0,1,,,0,,,54,64
419640,note_off,,,,,32,0,1,,,0,,,95,64
419698,control_change,,,,,58,0,1,,,0,7,82,,
419700,control_change,,,,,2,0,1,,,0,64,0,,
419730,note_off,,,,,30,0,1,,,0,,,83,64
419730,note_off,,,,,0,0,1,,,0,,,55,64
419760,control_change,,,,,0,0,1,,,0,64,95,,
419760,note_on,,,,,0,0,1,,,0,,,83,123
419760,note_on,,,,,0,0,1,,,0,,,86,123
419760,note_on,,,,,30,0,1,,,0,,,88,123
419760,note_on,,,,,0,0,1,,,0,,,55,123
419788,control_change,,,,,28,0,1,,,0,7,83,,
419878,control_change,,,,,90,0,1,,,0,7,84,,
419880,note_off,,,,,2,0,1,,,0,,,86,64
419880,note_off,,,,,0,0,1,,,0,,,83,64
419880,note_off,,,,,0,0,1,,,0,,,55,64
419880,note_off,,,,,0,0,1,,,0,,,88,64
419880,note_on,,,,,0,0,1,,,0,,,76,105
419880,note_on,,,,,0,0,1,,,0,,,67,105
419946,set_tempo,,,,,1300,1,0,431655,,,,,,
419968,control_change,,,,,88,0,1,,,0,7,85,,
419970,note_off,,,,,0,0,1,,,0,,,76,64
419970,note_off,,,,,2,0,1,,,0,,,67,64
419998,control_change,,,,,28,0,1,,,0,64,0,,
420000,note_on,,,,,2,0,1,,,0,,,92,127
420000,note_on,,,,,0,0,1,,,0,,,51,127
420000,control_change,,,,,0,0,1,,,0,64,96,,
420006,set_tempo,,,,,60,1,0,400000,,,,,,
420058,control_change,,,,,58,0,1,,,0,7,86,,
420120,note_off,,,,,62,0,1,,,0,,,51,64
420120,note_off,,,,,0,0,1,,,0,,,92,64
420120,note_on,,,,,0,0,1,,,0,,,80,114
420120,note_on,,,,,0,0,1,,,0,,,52,114
420148,control_change,,,,,28,0,1,,,0,7,87,,
420180,control_change,,,,,32,0,1,,,0,64,0,,
420210,note_off,,,,,30,0,1,,,0,,,52,64
420210,note_off,,,,,0,0,1,,,0,,,80,64
420238,control_change,,,,,28,0,1,,,0,7,88,,
420240,note_on,,,,,2,0,1,,,0,,,80,123
420240,note_on,,,,,0,0,1,,,0,,,52,123
420240,note_on,,,,,0,0,1,,,0,,,88,123
420240,control_change,,,,,0,0,1,,,0,64,95,,
420240,note_on,,,,,0,0,1,,,0,,,83,123
420328,control_change,,,,,88,0,1,,,0,7,89,,
420360,note_off,,,,,0,0,1,,,0,,,80,64
420360,note_on,,,,,0,0,1,,,0,,,64,105
420360,note_off,,,,,0,0,1,,,0,,,52,64
420360,note_off,,,,,32,0,1,,,0,,,83,64
420360,note_off,,,,,0,0,1,,,0,,,88,64
420360,note_on,,,,,0,0,1,,,0,,,76,105
420418,control_change,,,,,58,0,1,,,0,7,90,,
420420,control_change,,,,,2,0,1,,,0,64,0,,
420426,set_tempo,,,,,420,1,0,447761,,,,,,
420450,note_off,,,,,0,0,1,,,0,,,64,64
420450,note_off,,,,,30,0,1,,,0,,,76,64
420480,note_on,,,,,30,0,1,,,0,,,47,127
420480,note_on,,,,,0,0,1,,,0,,,93,127
420480,control_change,,,,,0,0,1,,,0,64,96,,
420508,control_change,,,,,28,0,1,,,0,7,91,,
420526,set_tempo,,,,,100,1,0,397351,,,,,,
420598,control_change,,,,,90,0,1,,,0,7,92,,
420600,note_off,,,,,2,0,1,,,0,,,93,64
420600,note_on,,,,,0,0,1,,,0,,,81,114
420600,note_on,,,,,0,0,1,,,0,,,48,114
420600,note_off,,,,,0,0,1,,,0,,,47,64
420660,control_change,,,,,60,0,1,,,0,64,0,,
420688,control_change,,,,,28,0,1,,,0,7,93,,
420690,note_off,,,,,2,0,1,,,0,,,81,64
420690,note_off,,,,,0,0,1,,,0,,,48,64
420720,note_on,,,,,30,0,1,,,0,,,88,123
420720,note_on,,,,,0,0,1,,,0,,,48,123
420720,note_on,,,,,0,0,1,,,0,,,81,123
420720,note_on,,,,,0,0,1,,,0,,,84,123
420720,control_change,,,,,0,0,1,,,0,64,95,,
420778,control_change,,,,,58,0,1,,,0,7,94,,
420840,note_off,,,,,0,0,1,,,0,,,81,64
420840,note_off,,,,,0,0,1,,,0,,,48,64
420840,note_off,,,,,0,0,1,,,0,,,88,64
420840,note_on,,,,,0,0,1,,,0,,,60,105
420840,note_off,,,,,62,0,1,,,0,,,84,64
420840,note_on,,,,,0,0,1,,,0,,,76,105
420868,control_change,,,,,28,0,1,,,0,7,95,,
420906,set_tempo,,,,,380,1,0,447761,,,,,,
420930,note_off,,,,,0,0,1,,,0,,,76,64
420930,note_off,,,,,62,0,1,,,0,,,60,64
420958,control_change,,,,,0,0,1,,,0,64,0,,
420958,control_change,,,,,28,0,1,,,0,7,96,,
420960,note_on,,,,,2,0,1,,,0,,,89,125
420960,note_on,,,,,0,0,1,,,0,,,49,125
420960,control_change,,,,,0,0,1,,,0,64,96,,
420966,set_tempo,,,,,60,1,0,400000,,,,,,
421048,control_change,,,,,88,0,1,,,0,7,97,,
421080,note_off,,,,,0,0,1,,,0,,,89,64
421080,note_off,,,,,32,0,1,,,0,,,49,64
421080,note_on,,,,,0,0,1,,,0,,,50,114
421080,note_on,,,,,0,0,1,,,0,,,77,114
421138,control_change,,,,,58,0,1,,,0,7,98,,
421140,control_change,,,,,2,0,1,,,0,64,0,,
421170,note_off,,,,,0,0,1,,,0,,,77,64
421170,note_off,,,,,30,0,1,,,0,,,50,64
421200,control_change,,,,,0,0,1,,,0,64,95,,
421200,note_on,,,,,0,0,1,,,0,,,86,127
421200,note_on,,,,,30,0,1,,,0,,,81,127
421200,note_on,,,,,0,0,1,,,0,,,77,127
421200,note_on,,,,,0,0,1,,,0,,,50,127
421228,control_change,,,,,28,0,1,,,0,7,99,,
421318,control_change,,,,,90,0,1,,,0,7,100,,
421320,note_off,,,,,2,0,1,,,0,,,86,64
421320,note_on,,,,,0,0,1,,,0,,,74,127
421320,note_off,,,,,0,0,1,,,0,,,77,64
421320,note_off,,,,,0,0,1,,,0,,,50,64
421320,note_on,,,,,0,0,1,,,0,,,62,127
421320,note_off,,,,,0,0,1,,,0,,,81,64
421380,control_change,,,,,60,0,1,,,0,64,0,,
421386,set_tempo,,,,,420,1,0,468750,,,,,,
421408,control_change,,,,,28,0,1,,,0,7,101,,
421410,note_off,,,,,0,0,1,,,0,,,62,64
421410,note_off,,,,,2,0,1,,,0,,,74,64
421440,control_change,,,,,0,0,1,,,0,64,96,,
421440,note_on,,,,,0,0,1,,,0,,,88,127
421440,note_on,,,,,30,0,1,,,0,,,51,127
421446,set_tempo,,,,,60,1,0,400000,,,,,,
421498,control_change,,,,,58,0,1,,,0,7,102,,
421506,set_tempo,,,,,60,1,0,422535,,,,,,
421560,note_off,,,,,62,0,1,,,0,,,88,64
421560,note_off,,,,,0,0,1,,,0,,,51,64
421560,note_on,,,,,0,0,1,,,0,,,52,114
421560,note_on,,,,,0,0,1,,,0,,,76,114
421588,control_change,,,,,28,0,1,,,0,7,103,,
421606,set_tempo,,,,,100,1,0,437956,,,,,,
421620,control_change,,,,,32,0,1,,,0,64,0,,
421650,note_off,,,,,0,0,1,,,0,,,52,64
421650,note_off,,,,,30,0,1,,,0,,,76,64
421678,control_change,,,,,28,0,1,,,0,7,104,,
421680,note_on,,,,,2,0,1,,,0,,,52,119
421680,note_on,,,,,0,0,1,,,0,,,76,119
421680,note_on,,,,,0,0,1,,,0,,,81,119
421680,note_on,,,,,0,0,1,,,0,,,84,119
421680,control_change,,,,,0,0,1,,,0,64,95,,
421686,set_tempo,,,,,80,1,0,472441,,,,,,
421746,set_tempo,,,,,60,1,0,495868,,,,,,
421768,control_change,,,,,88,0,1,,,0,7,105,,
421800,note_off,,,,,0,0,1,,,0,,,52,64
421800,note_on,,,,,0,0,1,,,0,,,72,117
421800,note_on,,,,,0,0,1,,,0,,,64,117
421800,note_off,,,,,0,0,1,,,0,,,76,64
421800,note_off,,,,,0,0,1,,,0,,,81,64
421800,note_off,,,,,32,0,1,,,0,,,84,64
421806,set_tempo,,,,,60,1,0,555556,,,,,,
421846,set_tempo,,,,,40,1,0,550459,,,,,,
421858,control_change,,,,,58,0,1,,,0,7,106,,
421860,control_change,,,,,2,0,1,,,0,64,0,,
421866,set_tempo,,,,,20,1,0,731707,,,,,,
421886,set_tempo,,,,,20,1,0,740741,,,,,,
421890,note_off,,,,,0,0,1,,,0,,,64,64
421890,note_off,,,,,30,0,1,,,0,,,72,64
421920,note_on,,,,,30,0,1,,,0,,,39,124
421920,note_on,,,,,0,0,1,,,0,,,88,124
421920,control_change,,,,,0,0,1,,,0,64,95,,
421926,set_tempo,,,,,40,1,0,566038,,,,,,
421948,control_change,,,,,28,0,1,,,0,7,107,,
422038,control_change,,,,,90,0,1,,,0,7,108,,
422040,note_on,,,,,0,0,1,,,0,,,76,109
422040,note_on,,,,,0,0,1,,,0,,,40,109
422040,note_off,,,,,0,0,1,,,0,,,39,64
422040,note_off,,,,,2,0,1,,,0,,,88,64
422046,set_tempo,,,,,120,1,0,588235,,,,,,
422066,set_tempo,,,,,20,1,0,594059,,,,,,
422086,set_tempo,,,,,20,1,0,618557,,,,,,
422100,control_change,,,,,60,0,1,,,0,64,0,,
422128,control_change,,,,,28,0,1,,,0,7,109,,
422130,note_off,,,,,0,0,1,,,0,,,40,64
422130,note_off,,,,,2,0,1,,,0,,,76,64
422146,set_tempo,,,,,60,1,0,759494,,,,,,
422160,note_on,,,,,30,0,1,,,0,,,40,127
422160,note_on,,,,,0,0,1,,,0,,,76,127
422160,control_change,,,,,0,0,1,,,0,64,96,,
422218,control_change,,,,,58,0,1,,,0,7,110,,
422246,set_tempo,,,,,100,1,0,845070,,,,,,
422280,note_off,,,,,62,0,1,,,0,,,76,64
422280,note_off,,,,,0,0,1,,,0,,,40,64
422280,note_on,,,,,0,0,1,,,0,,,52,116
422280,note_on,,,,,0,0,1,,,0,,,64,116
422308,control_change,,,,,28,0,1,,,0,7,111,,
422340,control_change,,,,,32,0,1,,,0,64,0,,
422346,set_tempo,,,,,100,1,0,1132075,,,,,,
422398,control_change,,,,,58,0,1,,,0,7,112,,
422400,note_off,,,,,2,0,1,,,0,,,64,64
422400,note_off,,,,,0,0,1,,,0,,,52,64
422406,set_tempo,,,,,60,1,0,1500000,,,,,,
422760,control_change,,,,,360,0,1,,,0,7,79,,
422760,note_on,,,,,6840,0,2,,,0,,,88,42
422766,set_tempo,,,,,360,1,0,451128,,,,,,
422850,note_off,,,,,90,0,2,,,0,,,88,64
422880,note_on,,,,,30,0,2,,,0,,,86,48
422970,note_off,,,,,90,0,2,,,0,,,86,64
423000,note_on,,,,,30,0,2,,,0,,,85,46
423090,note_off,,,,,90,0,2,,,0,,,85,64
423120,note_on,,,,,30,0,2,,,0,,,83,41
423210,note_off,,,,,90,0,2,,,0,,,83,64
423240,note_on,,,,,30,0,2,,,0,,,81,41
423330,note_off,,,,,90,0,2,,,0,,,81,64
423360,note_on,,,,,30,0,2,,,0,,,80,46
423450,note_off,,,,,90,0,2,,,0,,,80,64
423480,note_on,,,,,30,0,2,,,0,,,81,34
423486,set_tempo,,,,,720,1,0,447761,,,,,,
423570,note_off,,,,,90,0,2,,,0,,,81,64
423600,note_on,,,,,30,0,2,,,0,,,83,32
423690,note_off,,,,,90,0,2,,,0,,,83,64
423720,note_on,,,,,30,0,2,,,0,,,81,32
423810,note_off,,,,,90,0,2,,,0,,,81,64
423840,note_on,,,,,30,0,2,,,0,,,80,43
423846,set_tempo,,,,,360,1,0,441176,,,,,,
423930,note_off,,,,,90,0,2,,,0,,,80,64
423960,note_on,,,,,30,0,2,,,0,,,78,38
424050,note_off,,,,,90,0,2,,,0,,,78,64
424080,note_on,,,,,30,0,2,,,0,,,76,43
424170,note_off,,,,,90,0,2,,,0,,,76,64
424200,note_on,,,,,30,0,2,,,0,,,75,49
424290,note_off,,,,,90,0,2,,,0,,,75,64
424320,note_on,,,,,30,0,2,,,0,,,76,58
424366,set_tempo,,,,,520,1,0,447761,,,,,,
424410,note_off,,,,,90,0,2,,,0,,,76,64
424440,note_on,,,,,30,0,2,,,0,,,77,43
424530,note_off,,,,,90,0,2,,,0,,,77,64
424560,note_on,,,,,30,0,2,,,0,,,78,37
424626,set_tempo,,,,,260,1,0,458015,,,,,,
424650,note_off,,,,,90,0,2,,,0,,,78,64
424680,note_on,,,,,30,0,2,,,0,,,76,33
424770,note_off,,,,,90,0,2,,,0,,,76,64
424800,note_on,,,,,30,0,2,,,0,,,74,33
424806,set_tempo,,,,,180,1,0,465116,,,,,,
424890,note_off,,,,,90,0,2,,,0,,,74,64
424920,note_on,,,,,30,0,2,,,0,,,73,33
425010,note_off,,,,,90,0,2,,,0,,,73,64
425026,set_tempo,,,,,220,1,0,476190,,,,,,
425040,note_on,,,,,30,0,2,,,0,,,71,36
425130,note_off,,,,,90,0,2,,,0,,,71,64
425160,note_on,,,,,30,0,2,,,0,,,69,41
425246,set_tempo,,,,,220,1,0,491803,,,,,,
425250,note_off,,,,,90,0,2,,,0,,,69,64
425280,note_on,,,,,30,0,2,,,0,,,68,46
425346,set_tempo,,,,,100,1,0,508475,,,,,,
425370,note_off,,,,,90,0,2,,,0,,,68,64
425400,note_on,,,,,30,0,2,,,0,,,69,38
425490,note_off,,,,,90,0,2,,,0,,,69,64
425520,note_on,,,,,2760,0,1,,,0,,,74,35
425520,note_on,,,,,0,0,1,,,0,,,76,35
425520,control_change,,,,,0,0,1,,,0,64,95,,
425520,note_on,,,,,30,0,2,,,0,,,71,42
425546,set_tempo,,,,,200,1,0,521739,,,,,,
425610,note_off,,,,,90,0,2,,,0,,,71,64
425640,note_on,,,,,30,0,2,,,0,,,69,46
425666,set_tempo,,,,,120,1,0,550459,,,,,,
425700,note_off,,,,,180,0,1,,,0,,,76,64
425700,note_off,,,,,0,0,1,,,0,,,74,64
425730,note_off,,,,,90,0,2,,,0,,,69,64
425730,control_change,,,,,30,0,1,,,0,64,0,,
425746,set_tempo,,,,,80,1,0,588235,,,,,,
425760,control_change,,,,,0,0,1,,,0,64,96,,
425760,note_on,,,,,0,0,1,,,0,,,76,42
425760,note_on,,,,,30,0,1,,,0,,,74,42
425760,note_on,,,,,30,0,2,,,0,,,68,47
425826,set_tempo,,,,,80,1,0,606061,,,,,,
425846,set_tempo,,,,,20,1,0,612245,,,,,,
425850,note_off,,,,,90,0,2,,,0,,,68,64
425866,set_tempo,,,,,20,1,0,618557,,,,,,
425880,note_on,,,,,30,0,2,,,0,,,66,41
425940,note_off,,,,,0,0,1,,,0,,,74,64
425940,note_off,,,,,180,0,1,,,0,,,76,64
425946,set_tempo,,,,,80,1,0,638298,,,,,,
425966,set_tempo,,,,,20,1,0,674157,,,,,,
425970,note_off,,,,,90,0,2,,,0,,,66,64
425970,control_change,,,,,30,0,1,,,0,64,0,,
425986,set_tempo,,,,,20,1,0,697674,,,,,,
426000,note_on,,,,,30,0,2,,,0,,,64,36
426000,note_on,,,,,0,0,1,,,0,,,76,36
426000,note_on,,,,,30,0,1,,,0,,,73,36
426000,control_change,,,,,0,0,1,,,0,64,95,,
426046,set_tempo,,,,,60,1,0,740741,,,,,,
426066,set_tempo,,,,,20,1,0,789474,,,,,,
426086,set_tempo,,,,,20,1,0,800000,,,,,,
426090,note_off,,,,,90,0,2,,,0,,,64,64
426120,note_off,,,,,120,0,1,,,0,,,73,64
426120,note_on,,,,,30,0,2,,,0,,,62,32
426120,note_on,,,,,0,0,1,,,0,,,71,33
426126,set_tempo,,,,,40,1,0,1000000,,,,,,
426146,set_tempo,,,,,20,1,0,1016949,,,,,,
426180,note_off,,,,,60,0,1,,,0,,,76,64
426186,set_tempo,,,,,40,1,0,1111111,,,,,,
426206,set_tempo,,,,,20,1,0,1153846,,,,,,
426210,note_off,,,,,90,0,2,,,0,,,62,64
426230,control_change,,,,,50,0,1,,,0,64,0,,
426240,note_off,,,,,10,0,1,,,0,,,71,64
426240,note_on,,,,,0,0,1,,,0,,,76,32
426240,note_on,,,,,30,0,2,,,0,,,69,28
426240,note_on,,,,,0,0,2,,,0,,,61,28
426240,note_on,,,,,0,0,2,,,0,,,57,28
426246,set_tempo,,,,,40,1,0,1500000,,,,,,
426266,set_tempo,,,,,20,1,0,461538,,,,,,
426720,note_off,,,,,480,0,1,,,0,,,76,64
426720,note_on,,,,,0,0,1,,,0,,,81,34
426720,control_change,,,,,0,0,1,,,0,64,95,,
426726,set_tempo,,,,,460,1,0,500000,,,,,,
426840,note_off,,,,,120,0,1,,,0,,,81,64
426840,note_on,,,,,0,0,1,,,0,,,80,24
426960,note_off,,,,,120,0,1,,,0,,,80,64
426960,note_on,,,,,0,0,1,,,0,,,78,29
427080,note_off,,,,,120,0,1,,,0,,,78,64
427080,note_on,,,,,0,0,1,,,0,,,76,30
427170,control_change,,,,,90,0,1,,,0,64,0,,
427180,note_off,,,,,10,0,1,,,0,,,76,64
427200,note_on,,,,,0,0,2,,,0,,,59,30
427200,note_off,,,,,0,0,2,,,0,,,69,64
427200,note_off,,,,,0,0,2,,,0,,,61,64
427200,note_off,,,,,960,0,2,,,0,,,57,64
427200,note_on,,,,,0,0,1,,,0,,,76,37
427200,note_on,,,,,0,0,2,,,0,,,62,30
427200,note_on,,,,,20,0,1,,,0,,,68,37
427206,set_tempo,,,,,480,1,0,659341,,,,,,
427266,set_tempo,,,,,60,1,0,545455,,,,,,
427410,note_off,,,,,210,0,2,,,0,,,62,64
427410,note_off,,,,,0,0,2,,,0,,,59,64
427410,note_off,,,,,0,0,1,,,0,,,68,64
427410,note_off,,,,,210,0,1,,,0,,,76,64
427440,note_on,,,,,0,0,1,,,0,,,76,34
427440,note_on,,,,,0,0,2,,,0,,,62,32
427440,note_on,,,,,30,0,1,,,0,,,68,34
427440,note_on,,,,,30,0,2,,,0,,,59,32
427446,set_tempo,,,,,180,1,0,517241,,,,,,
427620,note_off,,,,,180,0,2,,,0,,,62,64
427620,note_off,,,,,0,0,2,,,0,,,59,64
427620,note_off,,,,,180,0,1,,,0,,,76,64
427620,note_off,,,,,0,0,1,,,0,,,68,64
427680,note_on,,,,,0,0,2,,,0,,,62,28
427680,note_on,,,,,60,0,2,,,0,,,59,28
427680,note_on,,,,,0,0,1,,,0,,,76,32
427680,note_on,,,,,60,0,1,,,0,,,68,32
427706,set_tempo,,,,,260,1,0,500000,,,,,,
427860,note_off,,,,,0,0,1,,,0,,,68,64
427860,note_off,,,,,0,0,2,,,0,,,59,64
427860,note_off,,,,,180,0,2,,,0,,,62,64
427860,note_off,,,,,180,0,1,,,0,,,76,64
427920,note_on,,,,,60,0,1,,,0,,,68,28
427920,note_on,,,,,0,0,1,,,0,,,76,28
427920,note_on,,,,,60,0,2,,,0,,,59,27
427920,note_on,,,,,0,0,2,,,0,,,62,27
427926,set_tempo,,,,,220,1,0,480000,,,,,,
428100,note_off,,,,,180,0,1,,,0,,,76,64
428100,note_off,,,,,0,0,1,,,0,,,68,64
428100,note_off,,,,,180,0,2,,,0,,,62,64
428100,note_off,,,,,0,0,2,,,0,,,59,64
428160,note_on,,,,,60,0,1,,,0,,,69,35
428160,note_on,,,,,0,0,2,,,0,,,64,33
428160,note_on,,,,,0,0,1,,,0,,,76,35
428160,note_on,,,,,60,0,2,,,0,,,61,33
428166,set_tempo,,,,,240,1,0,500000,,,,,,
428400,note_on,,,,,0,0,2,,,0,,,61,29
428400,note_on,,,,,0,0,1,,,0,,,73,31
428400,note_off,,,,,240,0,1,,,0,,,76,64
428400,note_off,,,,,240,0,2,,,0,,,64,64
428400,note_off,,,,,0,0,2,,,0,,,61,64
428400,note_on,,,,,0,0,2,,,0,,,57,29
428586,set_tempo,,,,,420,1,0,759494,,,,,,
428640,note_off,,,,,240,0,2,,,0,,,61,64
428640,note_off,,,,,0,0,2,,,0,,,57,64
428640,note_on,,,,,0,0,2,,,0,,,62,39
428640,note_off,,,,,0,0,1,,,0,,,69,64
428640,note_on,,,,,0,0,1,,,0,,,78,38
428640,note_on,,,,,0,0,1,,,0,,,69,38
428640,note_on,,,,,0,0,2,,,0,,,66,39
428640,note_off,,,,,240,0,1,,,0,,,73,64
428640,control_change,,,,,0,0,1,,,0,64,96,,
428646,set_tempo,,,,,60,1,0,545455,,,,,,
429060,note_off,,,,,420,0,1,,,0,,,78,64
429060,note_off,,,,,420,0,2,,,0,,,66,64
429060,note_off,,,,,0,0,1,,,0,,,69,64
429060,note_off,,,,,0,0,2,,,0,,,62,64
429080,control_change,,,,,20,0,1,,,0,64,0,,
429120,note_on,,,,,60,0,2,,,0,,,61,31
429120,note_on,,,,,0,0,2,,,0,,,64,31
429120,note_on,,,,,40,0,1,,,0,,,69,31
429120,note_on,,,,,0,0,1,,,0,,,76,31
429126,set_tempo,,,,,480,1,0,495868,,,,,,
429360,note_off,,,,,240,0,1,,,0,,,76,64
429360,note_on,,,,,0,0,1,,,0,,,69,27
429360,note_on,,,,,0,0,2,,,0,,,61,27
429360,note_off,,,,,240,0,2,,,0,,,64,64
429360,note_off,,,,,0,0,2,,,0,,,61,64
429360,note_on,,,,,0,0,2,,,0,,,57,27
429546,set_tempo,,,,,420,1,0,857143,,,,,,
429600,note_off,,,,,240,0,1,,,0,,,69,64
429600,note_on,,,,,0,0,2,,,0,,,59,27
429600,control_change,,,,,0,0,1,,,0,64,97,,
429600,note_on,,,,,0,0,1,,,0,,,71,28
429600,note_on,,,,,0,0,1,,,0,,,68,28
429600,note_off,,,,,0,0,1,,,0,,,69,64
429600,note_off,,,,,0,0,2,,,0,,,57,64
429600,note_on,,,,,0,0,2,,,0,,,52,27
429600,note_off,,,,,240,0,2,,,0,,,61,64
429606,set_tempo,,,,,60,1,0,600000,,,,,,
429946,set_tempo,,,,,340,1,0,1500000,,,,,,
430020,note_off,,,,,420,0,1,,,0,,,71,64
430020,note_off,,,,,0,0,1,,,0,,,68,64
430020,note_off,,,,,0,0,2,,,0,,,52,64
430020,note_off,,,,,420,0,2,,,0,,,59,64
430040,control_change,,,,,20,0,1,,,0,64,0,,
430080,control_change,,,,,0,0,1,,,0,7,63,,
430080,note_on,,,,,60,0,2,,,0,,,73,27
430080,note_on,,,,,40,0,1,,,0,,,88,27
430080,note_on,,,,,0,0,2,,,0,,,76,27
430086,set_tempo,,,,,140,1,0,560748,,,,,,
430320,note_on,,,,,0,0,2,,,0,,,73,22
430320,note_off,,,,,0,0,2,,,0,,,73,64
430320,note_off,,,,,240,0,2,,,0,,,76,64
430320,note_on,,,,,0,0,1,,,0,,,86,30
430320,note_off,,,,,240,0,1,,,0,,,88,64
430320,note_on,,,,,0,0,2,,,0,,,69,22
430380,note_on,,,,,0,0,1,,,0,,,85,31
430380,note_off,,,,,60,0,1,,,0,,,86,64
430440,note_on,,,,,0,0,1,,,0,,,83,33
430440,note_off,,,,,60,0,1,,,0,,,85,64
430500,note_off,,,,,60,0,1,,,0,,,83,64
430500,note_on,,,,,0,0,1,,,0,,,81,36
430506,set_tempo,,,,,420,1,0,857143,,,,,,
430560,note_on,,,,,0,0,2,,,0,,,74,35
430560,note_off,,,,,240,0,2,,,0,,,73,64
430560,note_off,,,,,0,0,2,,,0,,,69,64
430560,note_on,,,,,0,0,2,,,0,,,78,35
430560,control_change,,,,,0,0,1,,,0,64,96,,
430560,note_on,,,,,0,0,1,,,0,,,90,41
430560,note_off,,,,,60,0,1,,,0,,,81,64
430566,set_tempo,,,,,60,1,0,545455,,,,,,
430980,note_off,,,,,0,0,2,,,0,,,74,64
430980,note_off,,,,,420,0,2,,,0,,,78,64
430980,note_off,,,,,420,0,1,,,0,,,90,64
431000,control_change,,,,,20,0,1,,,0,64,0,,
431040,note_on,,,,,0,0,2,,,0,,,76,30
431040,note_on,,,,,40,0,1,,,0,,,88,31
431040,note_on,,,,,60,0,2,,,0,,,73,30
431046,set_tempo,,,,,480,1,0,600000,,,,,,
431280,note_on,,,,,0,0,1,,,0,,,86,30
431280,note_on,,,,,0,0,2,,,0,,,73,24
431280,note_on,,,,,0,0,2,,,0,,,69,24
431280,note_off,,,,,0,0,2,,,0,,,73,64
431280,note_off,,,,,240,0,2,,,0,,,76,64
431280,note_off,,,,,240,0,1,,,0,,,88,64
431340,note_on,,,,,0,0,1,,,0,,,85,33
431340,note_off,,,,,60,0,1,,,0,,,86,64
431400,note_off,,,,,60,0,1,,,0,,,85,64
431400,note_on,,,,,0,0,1,,,0,,,83,36
431460,note_off,,,,,60,0,1,,,0,,,83,64
431460,note_on,,,,,0,0,1,,,0,,,81,37
431466,set_tempo,,,,,420,1,0,857143,,,,,,
431520,note_on,,,,,0,0,1,,,0,,,83,39
431520,note_on,,,,,0,0,2,,,0,,,64,40
431520,note_on,,,,,0,0,2,,,0,,,71,40
431520,control_change,,,,,0,0,1,,,0,64,97,,
431520,note_off,,,,,240,0,2,,,0,,,73,64
431520,note_on,,,,,0,0,1,,,0,,,80,39
431520,note_off,,,,,60,0,1,,,0,,,81,64
431520,note_off,,,,,0,0,2,,,0,,,69,64
431526,set_tempo,,,,,60,1,0,659341,,,,,,
431886,set_tempo,,,,,360,1,0,1463415,,,,,,
431980,control_change,,,,,460,0,1,,,0,64,0,,
432000,control_change,,,,,0,0,1,,,0,7,79,,
432000,note_on,,,,,0,0,1,,,0,,,81,24
432000,note_on,,,,,0,0,1,,,0,,,73,24
432000,note_off,,,,,20,0,1,,,0,,,83,64
432000,note_on,,,,,0,0,2,,,0,,,69,27
432000,note_off,,,,,0,0,2,,,0,,,71,64
432000,note_off,,,,,480,0,2,,,0,,,64,64
432000,note_off,,,,,0,0,1,,,0,,,80,64
432006,set_tempo,,,,,120,1,0,600000,,,,,,
432026,set_tempo,,,,,20,1,0,582524,,,,,,
432066,set_tempo,,,,,40,1,0,576923,,,,,,
432086,set_tempo,,,,,20,1,0,571429,,,,,,
432126,set_tempo,,,,,40,1,0,566038,,,,,,
432146,set_tempo,,,,,20,1,0,560748,,,,,,
432166,set_tempo,,,,,20,1,0,550459,,,,,,
432206,set_tempo,,,,,40,1,0,545455,,,,,,
432210,note_off,,,,,0,0,1,,,0,,,73,64
432210,note_off,,,,,210,0,1,,,0,,,81,64
432210,note_off,,,,,210,0,2,,,0,,,69,64
432226,set_tempo,,,,,20,1,0,540541,,,,,,
432240,note_on,,,,,30,0,2,,,0,,,69,30
432266,set_tempo,,,,,40,1,0,535714,,,,,,
432306,set_tempo,,,,,40,1,0,526316,,,,,,
432346,set_tempo,,,,,40,1,0,521739,,,,,,
432406,set_tempo,,,,,60,1,0,512821,,,,,,
432420,note_off,,,,,180,0,2,,,0,,,69,64
432446,set_tempo,,,,,40,1,0,508475,,,,,,
432466,set_tempo,,,,,20,1,0,504202,,,,,,
432480,note_on,,,,,60,0,2,,,0,,,70,36
432480,note_on,,,,,0,0,2,,,0,,,74,36
432506,set_tempo,,,,,40,1,0,500000,,,,,,
432546,set_tempo,,,,,40,1,0,495868,,,,,,
432566,set_tempo,,,,,20,1,0,491803,,,,,,
432626,set_tempo,,,,,60,1,0,487805,,,,,,
432666,set_tempo,,,,,40,1,0,483871,,,,,,
432690,note_off,,,,,210,0,2,,,0,,,74,64
432720,note_on,,,,,30,0,2,,,0,,,74,32
432726,set_tempo,,,,,60,1,0,480000,,,,,,
432766,set_tempo,,,,,40,1,0,472441,,,,,,
432806,set_tempo,,,,,40,1,0,468750,,,,,,
432866,set_tempo,,,,,60,1,0,465116,,,,,,
432886,set_tempo,,,,,20,1,0,461538,,,,,,
432900,note_off,,,,,180,0,2,,,0,,,74,64
432946,set_tempo,,,,,60,1,0,458015,,,,,,
432960,note_on,,,,,750,0,1,,,0,,,76,32
432960,note_on,,,,,0,0,2,,,0,,,69,33
432960,note_off,,,,,60,0,2,,,0,,,70,64
432960,note_on,,,,,0,0,2,,,0,,,73,33
433170,note_off,,,,,210,0,1,,,0,,,76,64
433200,note_on,,,,,30,0,1,,,0,,,76,27
433380,note_off,,,,,180,0,1,,,0,,,76,64
433440,note_off,,,,,480,0,2,,,0,,,73,64
433440,note_off,,,,,0,0,2,,,0,,,69,64
433440,note_on,,,,,0,0,2,,,0,,,74,36
433440,note_on,,,,,0,0,2,,,0,,,64,36
433440,note_on,,,,,0,0,1,,,0,,,88,38
433440,note_on,,,,,60,0,1,,,0,,,76,30
433520,note_off,,,,,80,0,1,,,0,,,76,64
433520,note_on,,,,,0,0,1,,,0,,,78,31
433600,note_off,,,,,80,0,1,,,0,,,78,64
433600,note_on,,,,,0,0,1,,,0,,,80,35
433650,note_off,,,,,50,0,1,,,0,,,88,64
433660,set_tempo,,,,,714,1,0,461538,,,,,,
433666,note_off,,,,,16,0,1,,,0,,,80,64
433680,note_on,,,,,14,0,1,,,0,,,80,36
433680,note_on,,,,,0,0,1,,,0,,,88,36
433760,note_on,,,,,0,0,1,,,0,,,81,35
433760,note_off,,,,,80,0,1,,,0,,,80,64
433840,note_on,,,,,0,0,1,,,0,,,83,37
433840,note_off,,,,,80,0,1,,,0,,,81,64
433840,set_tempo,,,,,180,1,0,465116,,,,,,
433860,note_off,,,,,20,0,1,,,0,,,88,64
433920,note_on,,,,,0,0,2,,,0,,,73,37
433920,note_on,,,,,0,0,2,,,0,,,69,37
433920,note_off,,,,,60,0,1,,,0,,,83,64
433920,note_on,,,,,0,0,1,,,0,,,88,31
433920,note_on,,,,,0,0,1,,,0,,,81,31
433920,note_off,,,,,0,0,2,,,0,,,74,64
433920,note_off,,,,,480,0,2,,,0,,,64,64
433980,set_tempo,,,,,140,1,0,468750,,,,,,
434130,note_off,,,,,210,0,1,,,0,,,81,64
434130,note_off,,,,,0,0,1,,,0,,,88,64
434130,note_off,,,,,0,0,2,,,0,,,73,64
434130,note_off,,,,,210,0,2,,,0,,,69,64
434160,note_on,,,,,30,0,2,,,0,,,57,30
434340,note_off,,,,,180,0,2,,,0,,,57,64
434380,set_tempo,,,,,400,1,0,472441,,,,,,
434400,note_on,,,,,0,0,2,,,0,,,62,36
434400,note_on,,,,,60,0,2,,,0,,,58,36
434610,note_off,,,,,210,0,2,,,0,,,62,64
434640,note_on,,,,,30,0,2,,,0,,,62,32
434740,set_tempo,,,,,360,1,0,480000,,,,,,
434820,note_off,,,,,180,0,2,,,0,,,62,64
434880,note_off,,,,,60,0,2,,,0,,,58,64
434880,note_on,,,,,0,0,2,,,0,,,57,33
434880,note_on,,,,,0,0,2,,,0,,,61,33
434880,note_on,,,,,750,0,1,,,0,,,64,32
435060,set_tempo,,,,,320,1,0,483871,,,,,,
435090,note_off,,,,,210,0,1,,,0,,,64,64
435120,note_on,,,,,30,0,1,,,0,,,64,27
435300,set_tempo,,,,,240,1,0,487805,,,,,,
435300,note_off,,,,,180,0,1,,,0,,,64,64
435360,note_on,,,,,60,0,1,,,0,,,64,32
435360,note_on,,,,,0,0,2,,,0,,,62,27
435360,note_off,,,,,0,0,2,,,0,,,57,64
435360,note_on,,,,,0,0,1,,,0,,,76,32
435360,note_on,,,,,0,0,2,,,0,,,52,27
435360,note_off,,,,,480,0,2,,,0,,,61,64
435420,set_tempo,,,,,120,1,0,491803,,,,,,
435440,note_off,,,,,80,0,1,,,0,,,64,64
435440,note_on,,,,,0,0,1,,,0,,,66,26
435520,note_off,,,,,80,0,1,,,0,,,66,64
435520,note_on,,,,,0,0,1,,,0,,,68,27
435560,set_tempo,,,,,140,1,0,495868,,,,,,
435570,note_off,,,,,50,0,1,,,0,,,76,64
435586,note_off,,,,,16,0,1,,,0,,,68,64
435600,note_on,,,,,0,0,1,,,0,,,76,28
435600,note_on,,,,,14,0,1,,,0,,,68,28
435660,set_tempo,,,,,100,1,0,500000,,,,,,
435680,note_off,,,,,80,0,1,,,0,,,68,64
435680,note_on,,,,,0,0,1,,,0,,,69,27
435760,note_off,,,,,80,0,1,,,0,,,69,64
435760,note_on,,,,,0,0,1,,,0,,,71,30
435780,note_off,,,,,20,0,1,,,0,,,76,64
435820,set_tempo,,,,,160,1,0,504202,,,,,,
435840,note_on,,,,,0,0,1,,,0,,,69,34
435840,note_on,,,,,0,0,1,,,0,,,76,34
435840,note_off,,,,,60,0,1,,,0,,,71,64
435840,note_off,,,,,480,0,2,,,0,,,52,64
435840,note_off,,,,,0,0,2,,,0,,,62,64
435840,note_on,,,,,0,0,2,,,0,,,57,22
435840,note_on,,,,,0,0,2,,,0,,,61,22
435980,set_tempo,,,,,160,1,0,508475,,,,,,
436020,set_tempo,,,,,40,1,0,512821,,,,,,
436050,note_off,,,,,0,0,2,,,0,,,57,64
436050,note_off,,,,,210,0,2,,,0,,,61,64
436080,note_on,,,,,0,0,2,,,0,,,61,23
436080,note_on,,,,,30,0,2,,,0,,,57,23
436160,set_tempo,,,,,140,1,0,517241,,,,,,
436260,note_off,,,,,0,0,2,,,0,,,57,64
436260,note_off,,,,,180,0,2,,,0,,,61,64
436280,set_tempo,,,,,120,1,0,521739,,,,,,
436320,note_on,,,,,60,0,2,,,0,,,62,31
436320,note_off,,,,,480,0,1,,,0,,,76,64
436320,note_off,,,,,0,0,1,,,0,,,69,64
436320,note_on,,,,,0,0,1,,,0,,,76,26
436320,note_on,,,,,0,0,1,,,0,,,64,26
436320,note_on,,,,,0,0,2,,,0,,,52,31
436400,note_off,,,,,80,0,1,,,0,,,64,64
436400,note_on,,,,,0,0,1,,,0,,,66,24
436400,set_tempo,,,,,120,1,0,526316,,,,,,
436440,set_tempo,,,,,40,1,0,530973,,,,,,
436480,note_on,,,,,0,0,1,,,0,,,68,25
436480,note_off,,,,,80,0,1,,,0,,,66,64
436480,set_tempo,,,,,40,1,0,535714,,,,,,
436520,set_tempo,,,,,40,1,0,540541,,,,,,
436530,note_off,,,,,50,0,1,,,0,,,76,64
436546,note_off,,,,,16,0,1,,,0,,,68,64
436560,note_on,,,,,0,0,1,,,0,,,76,28
436560,set_tempo,,,,,40,1,0,545455,,,,,,
436560,note_on,,,,,14,0,1,,,0,,,68,28
436580,set_tempo,,,,,20,1,0,550459,,,,,,
436640,note_off,,,,,80,0,1,,,0,,,68,64
436640,note_on,,,,,0,0,1,,,0,,,69,22
436700,set_tempo,,,,,120,1,0,555556,,,,,,
436720,set_tempo,,,,,20,1,0,571429,,,,,,
436720,note_on,,,,,0,0,1,,,0,,,71,24
436720,note_off,,,,,80,0,1,,,0,,,69,64
436740,note_off,,,,,20,0,1,,,0,,,76,64
436800,note_off,,,,,480,0,2,,,0,,,52,64
436800,note_on,,,,,0,0,1,,,0,,,69,28
436800,note_on,,,,,0,0,2,,,0,,,57,18
436800,note_on,,,,,0,0,2,,,0,,,61,18
436800,note_on,,,,,0,0,1,,,0,,,76,28
436800,note_off,,,,,0,0,2,,,0,,,62,64
436800,note_off,,,,,60,0,1,,,0,,,71,64
436840,set_tempo,,,,,120,1,0,576923,,,,,,
436860,set_tempo,,,,,20,1,0,582524,,,,,,
436980,set_tempo,,,,,120,1,0,600000,,,,,,
437010,note_off,,,,,210,0,2,,,0,,,61,64
437010,note_off,,,,,0,0,2,,,0,,,57,64
437020,set_tempo,,,,,40,1,0,625000,,,,,,
437040,note_on,,,,,30,0,2,,,0,,,61,18
437040,note_on,,,,,0,0,2,,,0,,,57,18
437060,set_tempo,,,,,40,1,0,631579,,,,,,
437100,set_tempo,,,,,40,1,0,638298,,,,,,
437140,set_tempo,,,,,40,1,0,659341,,,,,,
437160,set_tempo,,,,,20,1,0,666667,,,,,,
437200,set_tempo,,,,,40,1,0,689655,,,,,,
437220,note_off,,,,,0,0,2,,,0,,,61,64
437220,note_off,,,,,180,0,2,,,0,,,57,64
437240,set_tempo,,,,,40,1,0,697674,,,,,,
437260,set_tempo,,,,,20,1,0,722892,,,,,,
437280,note_on,,,,,0,0,2,,,0,,,52,25
437280,note_on,,,,,60,0,2,,,0,,,62,25
437280,note_off,,,,,480,0,1,,,0,,,76,64
437280,note_off,,,,,0,0,1,,,0,,,69,64
437280,note_on,,,,,0,0,1,,,0,,,64,23
437280,note_on,,,,,0,0,1,,,0,,,76,23
437300,set_tempo,,,,,40,1,0,750000,,,,,,
437320,set_tempo,,,,,20,1,0,800000,,,,,,
437340,set_tempo,,,,,20,1,0,821918,,,,,,
437360,set_tempo,,,,,20,1,0,833333,,,,,,
437360,note_on,,,,,0,0,1,,,0,,,66,21
437360,note_off,,,,,80,0,1,,,0,,,64,64
437380,set_tempo,,,,,20,1,0,869565,,,,,,
437400,set_tempo,,,,,20,1,0,882353,,,,,,
437420,set_tempo,,,,,20,1,0,895522,,,,,,
437440,note_on,,,,,0,0,1,,,0,,,68,19
437440,note_off,,,,,80,0,1,,,0,,,66,64
437460,set_tempo,,,,,40,1,0,909091,,,,,,
437480,set_tempo,,,,,20,1,0,923077,,,,,,
437490,note_off,,,,,50,0,1,,,0,,,76,64
437506,note_off,,,,,16,0,1,,,0,,,68,64
437520,note_on,,,,,0,0,1,,,0,,,68,17
437520,set_tempo,,,,,40,1,0,967742,,,,,,
437520,note_on,,,,,14,0,1,,,0,,,76,17
437560,set_tempo,,,,,40,1,0,983607,,,,,,
437580,set_tempo,,,,,20,1,0,1034483,,,,,,
437600,note_off,,,,,80,0,1,,,0,,,68,64
437600,note_on,,,,,0,0,1,,,0,,,69,15
437640,set_tempo,,,,,60,1,0,1111111,,,,,,
437660,set_tempo,,,,,20,1,0,1132075,,,,,,
437680,note_off,,,,,80,0,1,,,0,,,69,64
437680,note_on,,,,,0,0,1,,,0,,,71,14
437700,set_tempo,,,,,40,1,0,1200000,,,,,,
437700,note_off,,,,,20,0,1,,,0,,,76,64
437720,set_tempo,,,,,20,1,0,1224490,,,,,,
437760,note_off,,,,,60,0,1,,,0,,,71,64
437760,note_off,,,,,0,0,2,,,0,,,62,64
437760,note_off,,,,,480,0,2,,,0,,,52,64
437764,marker,,,,,44,1,0,,,,,,,
437880,set_tempo,,,,,116,1,0,697674,,,,,,
438240,set_tempo,,,,,360,1,0,500000,,,,,,
438720,note_on,,,,,0,0,2,,,0,,,61,32
438720,note_on,,,,,960,0,2,,,0,,,57,32
438720,note_on,,,,,0,0,1,,,0,,,69,33
438720,note_on,,,,,0,0,1,,,0,,,73,33
438720,note_on,,,,,960,0,1,,,0,,,81,33
438900,note_off,,,,,180,0,2,,,0,,,61,64
438900,note_off,,,,,0,0,2,,,0,,,57,64
438960,note_on,,,,,60,0,2,,,0,,,45,26
439140,note_off,,,,,180,0,2,,,0,,,45,64
439560,note_on,,,,,420,0,2,,,0,,,61,29
439560,note_on,,,,,0,0,2,,,0,,,57,29
439560,set_tempo,,,,,1320,1,0,504202,,,,,,
439680,note_off,,,,,120,0,2,,,0,,,57,64
439680,note_off,,,,,0,0,2,,,0,,,61,64
439680,note_on,,,,,0,0,2,,,0,,,59,32
439680,note_on,,,,,0,0,2,,,0,,,62,32
439680,note_on,,,,,0,0,1,,,0,,,69,33
439680,note_off,,,,,960,0,1,,,0,,,69,64
439680,note_off,,,,,0,0,1,,,0,,,73,64
439680,note_off,,,,,0,0,1,,,0,,,81,64
439680,note_on,,,,,0,0,1,,,0,,,81,33
439680,note_on,,,,,0,0,1,,,0,,,74,33
439680,note_on,,,,,0,0,1,,,0,,,71,33
439680,set_tempo,,,,,120,1,0,508475,,,,,,
439720,set_tempo,,,,,40,1,0,512821,,,,,,
439860,note_off,,,,,180,0,2,,,0,,,62,64
439860,note_off,,,,,0,0,2,,,0,,,59,64
439920,note_on,,,,,60,0,2,,,0,,,45,26
439960,set_tempo,,,,,240,1,0,517241,,,,,,
439980,set_tempo,,,,,20,1,0,521739,,,,,,
440040,set_tempo,,,,,60,1,0,526316,,,,,,
440100,note_off,,,,,180,0,2,,,0,,,45,64
440180,set_tempo,,,,,140,1,0,530973,,,,,,
440380,set_tempo,,,,,200,1,0,535714,,,,,,
440420,set_tempo,,,,,40,1,0,540541,,,,,,
440520,note_on,,,,,0,0,2,,,0,,,59,38
440520,note_on,,,,,420,0,2,,,0,,,62,38
440580,set_tempo,,,,,160,1,0,545455,,,,,,
440640,note_on,,,,,0,0,1,,,0,,,81,37
440640,note_off,,,,,0,0,1,,,0,,,81,64
440640,note_off,,,,,0,0,1,,,0,,,74,64
440640,note_off,,,,,0,0,1,,,0,,,71,64
440640,note_off,,,,,960,0,1,,,0,,,69,64
440640,note_on,,,,,0,0,2,,,0,,,64,44
440640,note_on,,,,,0,0,2,,,0,,,61,44
440640,note_off,,,,,0,0,2,,,0,,,62,64
440640,note_off,,,,,120,0,2,,,0,,,59,64
440640,note_on,,,,,0,0,1,,,0,,,76,37
440640,note_on,,,,,0,0,1,,,0,,,69,37
440640,note_on,,,,,0,0,1,,,0,,,73,37
440740,set_tempo,,,,,160,1,0,550459,,,,,,
440820,note_off,,,,,180,0,2,,,0,,,64,64
440820,note_off,,,,,0,0,2,,,0,,,61,64
440880,note_on,,,,,60,0,2,,,0,,,45,37
440900,set_tempo,,,,,160,1,0,560748,,,,,,
441060,note_off,,,,,180,0,2,,,0,,,45,64
441120,note_on,,,,,0,0,1,,,0,,,69,43
441120,note_on,,,,,60,0,2,,,0,,,62,51
441120,note_on,,,,,0,0,1,,,0,,,74,43
441120,note_on,,,,,0,0,2,,,0,,,66,51
441120,note_on,,,,,0,0,1,,,0,,,78,43
441120,note_on,,,,,0,0,1,,,0,,,81,43
441120,note_off,,,,,0,0,1,,,0,,,69,64
441120,note_off,,,,,0,0,1,,,0,,,73,64
441120,note_off,,,,,0,0,1,,,0,,,76,64
441120,note_off,,,,,480,0,1,,,0,,,81,64
441140,set_tempo,,,,,240,1,0,566038,,,,,,
441300,note_off,,,,,0,0,2,,,0,,,62,64
441300,note_off,,,,,180,0,2,,,0,,,66,64
441300,set_tempo,,,,,160,1,0,571429,,,,,,
441360,note_on,,,,,60,0,2,,,0,,,45,47
441420,set_tempo,,,,,120,1,0,576923,,,,,,
441540,set_tempo,,,,,120,1,0,582524,,,,,,
441540,note_off,,,,,180,0,2,,,0,,,45,64
441600,note_on,,,,,60,0,2,,,0,,,64,58
441600,note_on,,,,,0,0,1,,,0,,,69,53
441600,note_on,,,,,0,0,1,,,0,,,79,53
441600,note_on,,,,,0,0,1,,,0,,,74,53
441600,note_on,,,,,0,0,1,,,0,,,81,53
441600,note_off,,,,,0,0,1,,,0,,,74,64
441600,note_off,,,,,0,0,1,,,0,,,78,64
441600,note_off,,,,,480,0,1,,,0,,,69,64
441600,note_on,,,,,0,0,2,,,0,,,67,58
441600,note_off,,,,,0,0,1,,,0,,,81,64
441620,set_tempo,,,,,80,1,0,588235,,,,,,
441780,note_off,,,,,180,0,2,,,0,,,67,64
441780,note_off,,,,,0,0,2,,,0,,,64,64
441780,set_tempo,,,,,160,1,0,594059,,,,,,
441840,note_on,,,,,60,0,2,,,0,,,45,35
441840,note_off,,,,,240,0,1,,,0,,,74,64
441840,note_on,,,,,0,0,1,,,0,,,73,46
441900,set_tempo,,,,,120,1,0,600000,,,,,,
441960,note_on,,,,,0,0,1,,,0,,,71,41
441960,note_off,,,,,120,0,1,,,0,,,73,64
441980,set_tempo,,,,,80,1,0,606061,,,,,,
442020,note_off,,,,,180,0,2,,,0,,,45,64
442080,note_on,,,,,0,0,1,,,0,,,73,38
442080,note_off,,,,,120,0,1,,,0,,,71,64
442080,note_off,,,,,0,0,1,,,0,,,69,64
442120,set_tempo,,,,,140,1,0,612245,,,,,,
442160,set_tempo,,,,,40,1,0,618557,,,,,,
442240,set_tempo,,,,,80,1,0,625000,,,,,,
442320,note_off,,,,,240,0,1,,,0,,,79,64
442320,note_on,,,,,0,0,1,,,0,,,81,30
442320,set_tempo,,,,,80,1,0,631579,,,,,,
442400,set_tempo,,,,,80,1,0,638298,,,,,,
442440,note_on,,,,,420,0,2,,,0,,,45,29
442480,set_tempo,,,,,80,1,0,631579,,,,,,
442560,note_off,,,,,120,0,2,,,0,,,45,64
442560,note_on,,,,,0,0,1,,,0,,,78,36
442560,note_off,,,,,240,0,1,,,0,,,81,64
442560,note_off,,,,,0,0,1,,,0,,,73,64
442560,note_on,,,,,0,0,1,,,0,,,69,36
442560,note_on,,,,,0,0,1,,,0,,,74,36
442560,note_on,,,,,0,0,2,,,0,,,50,36
442560,note_off,,,,,0,0,1,,,0,,,81,64
442680,set_tempo,,,,,200,1,0,560748,,,,,,
442740,note_off,,,,,180,0,2,,,0,,,50,64
442800,note_on,,,,,60,0,2,,,0,,,62,29
442840,set_tempo,,,,,160,1,0,545455,,,,,,
442980,note_off,,,,,180,0,2,,,0,,,62,64
443060,set_tempo,,,,,220,1,0,530973,,,,,,
443160,note_on,,,,,180,0,2,,,0,,,59,33
443220,set_tempo,,,,,160,1,0,517241,,,,,,
443280,note_off,,,,,120,0,2,,,0,,,59,64
443280,note_on,,,,,0,0,2,,,0,,,57,36
443400,note_off,,,,,120,0,2,,,0,,,57,64
443400,note_on,,,,,0,0,2,,,0,,,55,39
443440,set_tempo,,,,,220,1,0,500000,,,,,,
443520,note_on,,,,,0,0,1,,,0,,,78,42
443520,note_on,,,,,0,0,2,,,0,,,54,41
443520,note_off,,,,,120,0,2,,,0,,,55,64
443520,note_off,,,,,0,0,1,,,0,,,74,64
443520,note_off,,,,,0,0,1,,,0,,,78,64
443520,note_on,,,,,0,0,1,,,0,,,76,42
443520,note_off,,,,,960,0,1,,,0,,,69,64
443520,note_on,,,,,0,0,1,,,0,,,70,42
443580,set_tempo,,,,,140,1,0,491803,,,,,,
443700,note_off,,,,,180,0,2,,,0,,,54,64
443760,note_on,,,,,60,0,2,,,0,,,42,30
443940,note_off,,,,,180,0,2,,,0,,,42,64
443980,set_tempo,,,,,400,1,0,487805,,,,,,
444220,set_tempo,,,,,240,1,0,472441,,,,,,
444240,note_on,,,,,0,0,1,,,0,,,79,41
444240,note_off,,,,,720,0,1,,,0,,,78,64
444360,note_on,,,,,420,0,2,,,0,,,42,43
444480,note_on,,,,,0,0,1,,,0,,,76,45
444480,note_on,,,,,0,0,1,,,0,,,71,45
444480,note_off,,,,,0,0,1,,,0,,,76,64
444480,note_off,,,,,0,0,1,,,0,,,70,64
444480,note_off,,,,,240,0,1,,,0,,,79,64
444480,note_on,,,,,0,0,2,,,0,,,47,49
444480,note_off,,,,,120,0,2,,,0,,,42,64
444480,note_on,,,,,0,0,1,,,0,,,79,45
444660,note_off,,,,,180,0,2,,,0,,,47,64
444720,note_on,,,,,60,0,2,,,0,,,59,38
444720,note_on,,,,,0,0,1,,,0,,,78,37
444720,note_on,,,,,0,0,1,,,0,,,74,37
444720,note_off,,,,,0,0,1,,,0,,,76,64
444720,note_off,,,,,240,0,1,,,0,,,79,64
444760,set_tempo,,,,,540,1,0,480000,,,,,,
444900,note_off,,,,,180,0,2,,,0,,,59,64
444900,note_on,,,,,0,0,2,,,0,,,47,35
444960,note_on,,,,,0,0,1,,,0,,,76,43
444960,note_on,,,,,0,0,1,,,0,,,73,43
444960,note_on,,,,,0,0,1,,,0,,,66,43
444960,note_off,,,,,0,0,1,,,0,,,74,64
444960,note_off,,,,,240,0,1,,,0,,,78,64
444960,note_off,,,,,0,0,1,,,0,,,71,64
444960,note_on,,,,,0,0,2,,,0,,,50,44
444960,note_off,,,,,60,0,2,,,0,,,47,64
445140,note_off,,,,,180,0,2,,,0,,,50,64
445200,note_on,,,,,60,0,2,,,0,,,62,35
445200,note_off,,,,,240,0,1,,,0,,,76,64
445200,note_off,,,,,0,0,1,,,0,,,73,64
445200,note_on,,,,,0,0,1,,,0,,,71,48
445200,note_on,,,,,0,0,1,,,0,,,74,48
445340,set_tempo,,,,,580,1,0,487805,,,,,,
445380,note_on,,,,,0,0,2,,,0,,,50,29
445380,note_off,,,,,180,0,2,,,0,,,62,64
445410,note_off,,,,,0,0,1,,,0,,,66,64
445410,note_off,,,,,0,0,1,,,0,,,71,64
445410,note_off,,,,,210,0,1,,,0,,,74,64
445440,note_on,,,,,30,0,1,,,0,,,73,51
445440,note_on,,,,,0,0,1,,,0,,,64,51
445440,note_on,,,,,0,0,1,,,0,,,69,51
445440,note_off,,,,,60,0,2,,,0,,,50,64
445440,note_on,,,,,0,0,2,,,0,,,52,38
445620,note_off,,,,,180,0,2,,,0,,,52,64
445680,note_on,,,,,60,0,2,,,0,,,40,29
445700,set_tempo,,,,,360,1,0,491803,,,,,,
445800,set_tempo,,,,,100,1,0,495868,,,,,,
445860,note_off,,,,,180,0,2,,,0,,,40,64
445960,set_tempo,,,,,160,1,0,508475,,,,,,
446080,set_tempo,,,,,120,1,0,521739,,,,,,
446200,set_tempo,,,,,120,1,0,526316,,,,,,
446240,set_tempo,,,,,40,1,0,530973,,,,,,
446280,note_on,,,,,420,0,2,,,0,,,51,35
446280,set_tempo,,,,,40,1,0,540541,,,,,,
446360,set_tempo,,,,,80,1,0,545455,,,,,,
446400,note_off,,,,,0,0,1,,,0,,,69,64
446400,note_off,,,,,120,0,2,,,0,,,51,64
446400,note_on,,,,,0,0,2,,,0,,,52,29
446400,note_off,,,,,0,0,1,,,0,,,73,64
446400,note_on,,,,,0,0,1,,,0,,,62,43
446400,note_on,,,,,0,0,1,,,0,,,64,43
446400,note_on,,,,,0,0,1,,,0,,,69,43
446400,note_off,,,,,960,0,1,,,0,,,64,64
446400,note_on,,,,,0,0,1,,,0,,,71,43
446440,set_tempo,,,,,80,1,0,550459,,,,,,
446560,set_tempo,,,,,120,1,0,560748,,,,,,
446580,note_off,,,,,180,0,2,,,0,,,52,64
446640,note_off,,,,,240,0,1,,,0,,,69,64
446640,note_on,,,,,0,0,1,,,0,,,68,33
446640,note_on,,,,,60,0,2,,,0,,,40,24
446720,set_tempo,,,,,160,1,0,566038,,,,,,
446760,note_off,,,,,120,0,1,,,0,,,68,64
446760,note_on,,,,,0,0,1,,,0,,,66,28
446820,note_off,,,,,180,0,2,,,0,,,40,64
446860,set_tempo,,,,,140,1,0,576923,,,,,,
446880,note_on,,,,,0,0,1,,,0,,,68,24
446880,note_off,,,,,120,0,1,,,0,,,66,64
446940,set_tempo,,,,,80,1,0,582524,,,,,,
446960,set_tempo,,,,,20,1,0,588235,,,,,,
447040,set_tempo,,,,,80,1,0,594059,,,,,,
447080,set_tempo,,,,,40,1,0,600000,,,,,,
447140,set_tempo,,,,,60,1,0,606061,,,,,,
447180,set_tempo,,,,,40,1,0,618557,,,,,,
447240,note_on,,,,,420,0,2,,,0,,,40,25
447260,set_tempo,,,,,80,1,0,638298,,,,,,
447280,set_tempo,,,,,20,1,0,652174,,,,,,
447320,set_tempo,,,,,40,1,0,659341,,,,,,
447360,note_off,,,,,0,0,1,,,0,,,71,64
447360,note_on,,,,,0,0,1,,,0,,,69,33
447360,note_on,,,,,0,0,1,,,0,,,61,33
447360,note_on,,,,,0,0,1,,,0,,,57,33
447360,set_tempo,,,,,40,1,0,645161,,,,,,
447360,note_off,,,,,480,0,1,,,0,,,68,64
447360,note_off,,,,,0,0,1,,,0,,,64,64
447360,note_off,,,,,0,0,1,,,0,,,62,64
447360,note_off,,,,,120,0,2,,,0,,,40,64
447360,note_on,,,,,0,0,2,,,0,,,45,32
447360,note_on,,,,,0,0,2,,,0,,,49,32
447420,set_tempo,,,,,60,1,0,638298,,,,,,
447460,set_tempo,,,,,40,1,0,625000,,,,,,
447500,set_tempo,,,,,40,1,0,618557,,,,,,
447540,note_off,,,,,180,0,2,,,0,,,49,64
447540,note_off,,,,,0,0,2,,,0,,,45,64
447600,note_on,,,,,60,0,2,,,0,,,33,26
447620,set_tempo,,,,,120,1,0,600000,,,,,,
447740,set_tempo,,,,,120,1,0,576923,,,,,,
447780,note_off,,,,,180,0,2,,,0,,,33,64
447860,set_tempo,,,,,120,1,0,560748,,,,,,
447980,set_tempo,,,,,120,1,0,540541,,,,,,
448140,set_tempo,,,,,160,1,0,521739,,,,,,
448200,note_on,,,,,420,0,2,,,0,,,49,29
448200,note_on,,,,,0,0,2,,,0,,,45,29
448300,set_tempo,,,,,160,1,0,504202,,,,,,
448320,note_off,,,,,0,0,2,,,0,,,49,64
448320,note_on,,,,,0,0,2,,,0,,,50,32
448320,note_off,,,,,120,0,2,,,0,,,45,64
448320,note_on,,,,,0,0,1,,,0,,,59,33
448320,note_on,,,,,0,0,1,,,0,,,62,33
448320,note_on,,,,,0,0,1,,,0,,,69,33
448320,note_on,,,,,0,0,1,,,0,,,57,33
448320,note_off,,,,,0,0,1,,,0,,,61,64
448320,note_off,,,,,960,0,1,,,0,,,57,64
448320,note_off,,,,,0,0,1,,,0,,,69,64
448320,note_on,,,,,0,0,2,,,0,,,47,32
448340,set_tempo,,,,,40,1,0,500000,,,,,,
448380,set_tempo,,,,,40,1,0,495868,,,,,,
448500,note_off,,,,,0,0,2,,,0,,,47,64
448500,note_off,,,,,180,0,2,,,0,,,50,64
448520,set_tempo,,,,,140,1,0,491803,,,,,,
448540,set_tempo,,,,,20,1,0,487805,,,,,,
448560,note_on,,,,,60,0,2,,,0,,,33,26
448740,note_off,,,,,180,0,2,,,0,,,33,64
449160,note_on,,,,,0,0,2,,,0,,,47,38
449160,note_on,,,,,420,0,2,,,0,,,50,38
449280,note_on,,,,,0,0,1,,,0,,,64,37
449280,note_off,,,,,120,0,2,,,0,,,47,64
449280,note_on,,,,,0,0,2,,,0,,,49,44
449280,note_on,,,,,0,0,1,,,0,,,69,37
449280,note_off,,,,,0,0,2,,,0,,,50,64
449280,note_on,,,,,0,0,1,,,0,,,61,37
449280,note_on,,,,,0,0,1,,,0,,,57,37
449280,note_off,,,,,0,0,1,,,0,,,69,64
449280,note_off,,,,,0,0,1,,,0,,,62,64
449280,note_off,,,,,0,0,1,,,0,,,59,64
449280,note_off,,,,,960,0,1,,,0,,,57,64
449280,note_on,,,,,0,0,2,,,0,,,52,44
449460,note_off,,,,,0,0,2,,,0,,,49,64
449460,note_off,,,,,180,0,2,,,0,,,52,64
449500,set_tempo,,,,,960,1,0,512821,,,,,,
449520,note_on,,,,,60,0,2,,,0,,,33,37
449700,note_off,,,,,180,0,2,,,0,,,33,64
449760,note_on,,,,,0,0,1,,,0,,,69,43
449760,note_on,,,,,60,0,2,,,0,,,53,51
449760,note_on,,,,,0,0,2,,,0,,,50,51
449760,note_on,,,,,0,0,1,,,0,,,65,43
449760,note_on,,,,,0,0,1,,,0,,,62,43
449760,note_on,,,,,0,0,1,,,0,,,57,43
449760,note_off,,,,,0,0,1,,,0,,,57,64
449760,note_off,,,,,0,0,1,,,0,,,61,64
449760,note_off,,,,,0,0,1,,,0,,,64,64
449760,note_off,,,,,480,0,1,,,0,,,69,64
449900,set_tempo,,,,,400,1,0,521739,,,,,,
449940,note_off,,,,,0,0,2,,,0,,,53,64
449940,note_off,,,,,180,0,2,,,0,,,50,64
450000,note_on,,,,,0,0,1,,,0,,,65,48
450000,note_on,,,,,0,0,1,,,0,,,59,48
450000,note_on,,,,,60,0,2,,,0,,,38,47
450000,note_on,,,,,0,0,1,,,0,,,67,48
450000,note_off,,,,,240,0,1,,,0,,,69,64
450000,note_off,,,,,0,0,1,,,0,,,65,64
450000,note_off,,,,,0,0,1,,,0,,,62,64
450000,note_off,,,,,0,0,1,,,0,,,57,64
450000,note_on,,,,,0,0,1,,,0,,,71,48
450180,note_off,,,,,180,0,2,,,0,,,38,64
450220,set_tempo,,,,,320,1,0,530973,,,,,,
450240,note_on,,,,,60,0,2,,,0,,,48,58
450240,note_off,,,,,240,0,1,,,0,,,59,64
450240,note_off,,,,,0,0,1,,,0,,,65,64
450240,note_off,,,,,0,0,1,,,0,,,67,64
450240,note_off,,,,,0,0,1,,,0,,,71,64
450240,note_on,,,,,0,0,1,,,0,,,67,53
450240,note_on,,,,,0,0,1,,,0,,,60,53
450240,note_on,,,,,0,0,1,,,0,,,65,53
450240,note_on,,,,,0,0,1,,,0,,,72,53
450400,set_tempo,,,,,180,1,0,560748,,,,,,
450420,note_off,,,,,180,0,2,,,0,,,48,64
450480,note_on,,,,,60,0,2,,,0,,,36,35
450480,note_off,,,,,240,0,1,,,0,,,65,64
450480,note_off,,,,,0,0,1,,,0,,,60,64
450480,note_on,,,,,0,0,1,,,0,,,64,46
450560,set_tempo,,,,,160,1,0,594059,,,,,,
450600,note_on,,,,,0,0,1,,,0,,,62,41
450600,note_off,,,,,120,0,1,,,0,,,64,64
450660,note_off,,,,,180,0,2,,,0,,,36,64
450720,note_on,,,,,0,0,1,,,0,,,64,38
450720,note_off,,,,,120,0,1,,,0,,,62,64
450800,set_tempo,,,,,240,1,0,612245,,,,,,
450960,note_on,,,,,0,0,1,,,0,,,74,38
450960,note_off,,,,,240,0,1,,,0,,,72,64
451080,note_on,,,,,420,0,2,,,0,,,48,29
451080,note_on,,,,,0,0,1,,,0,,,70,34
451080,note_off,,,,,120,0,1,,,0,,,74,64
451120,set_tempo,,,,,320,1,0,631579,,,,,,
451200,note_on,,,,,0,0,1,,,0,,,60,30
451200,note_off,,,,,120,0,2,,,0,,,48,64
451200,note_on,,,,,0,0,1,,,0,,,65,30
451200,note_on,,,,,0,0,2,,,0,,,53,36
451200,note_off,,,,,0,0,1,,,0,,,64,64
451200,note_on,,,,,0,0,1,,,0,,,69,30
451200,note_off,,,,,0,0,1,,,0,,,67,64
451200,note_off,,,,,120,0,1,,,0,,,70,64
451320,set_tempo,,,,,200,1,0,560748,,,,,,
451380,note_off,,,,,180,0,2,,,0,,,53,64
451440,note_on,,,,,60,0,2,,,0,,,41,29
451480,set_tempo,,,,,160,1,0,545455,,,,,,
451620,note_off,,,,,180,0,2,,,0,,,41,64
451700,set_tempo,,,,,220,1,0,530973,,,,,,
451800,note_on,,,,,180,0,2,,,0,,,41,30
451860,set_tempo,,,,,160,1,0,517241,,,,,,
451920,note_on,,,,,0,0,2,,,0,,,43,35
451920,note_off,,,,,120,0,2,,,0,,,41,64
452040,note_on,,,,,0,0,2,,,0,,,45,39
452040,note_off,,,,,120,0,2,,,0,,,43,64
452080,set_tempo,,,,,220,1,0,500000,,,,,,
452160,note_off,,,,,960,0,1,,,0,,,65,64
452160,note_off,,,,,0,0,1,,,0,,,69,64
452160,note_on,,,,,0,0,1,,,0,,,64,42
452160,note_on,,,,,0,0,1,,,0,,,57,42
452160,note_off,,,,,0,0,1,,,0,,,60,64
452160,note_on,,,,,0,0,1,,,0,,,69,42
452160,note_on,,,,,0,0,2,,,0,,,37,47
452160,note_off,,,,,120,0,2,,,0,,,45,64
452220,set_tempo,,,,,140,1,0,491803,,,,,,
452340,note_off,,,,,180,0,2,,,0,,,37,64
452400,note_on,,,,,60,0,2,,,0,,,49,30
452580,note_off,,,,,180,0,2,,,0,,,49,64
452620,set_tempo,,,,,400,1,0,487805,,,,,,
452860,set_tempo,,,,,240,1,0,472441,,,,,,
452880,note_off,,,,,720,0,1,,,0,,,69,64
452880,note_on,,,,,0,0,1,,,0,,,68,41
453000,note_on,,,,,420,0,2,,,0,,,37,43
453120,note_off,,,,,120,0,2,,,0,,,37,64
453120,note_off,,,,,0,0,1,,,0,,,57,64
453120,note_off,,,,,0,0,1,,,0,,,64,64
453120,note_on,,,,,0,0,1,,,0,,,68,45
453120,note_on,,,,,0,0,1,,,0,,,57,45
453120,note_on,,,,,0,0,1,,,0,,,64,45
453120,note_on,,,,,0,0,2,,,0,,,38,49
453120,note_off,,,,,240,0,1,,,0,,,68,64
453160,set_tempo,,,,,300,1,0,476190,,,,,,
453220,set_tempo,,,,,60,1,0,480000,,,,,,
453300,set_tempo,,,,,80,1,0,483871,,,,,,
453300,note_off,,,,,180,0,2,,,0,,,38,64
453360,note_on,,,,,0,0,1,,,0,,,66,37
453360,note_on,,,,,0,0,1,,,0,,,62,37
453360,note_off,,,,,0,0,1,,,0,,,68,64
453360,note_off,,,,,240,0,1,,,0,,,64,64
453360,note_on,,,,,60,0,2,,,0,,,50,38
453380,set_tempo,,,,,80,1,0,487805,,,,,,
453520,set_tempo,,,,,140,1,0,491803,,,,,,
453540,note_off,,,,,180,0,2,,,0,,,50,64
453540,note_on,,,,,0,0,2,,,0,,,34,40
453600,note_off,,,,,0,0,1,,,0,,,57,64
453600,note_off,,,,,240,0,1,,,0,,,66,64
453600,note_on,,,,,0,0,2,,,0,,,35,48
453600,note_on,,,,,0,0,1,,,0,,,64,43
453600,note_on,,,,,0,0,1,,,0,,,61,43
453600,note_on,,,,,0,0,1,,,0,,,54,43
453600,note_off,,,,,60,0,2,,,0,,,34,64
453600,note_off,,,,,0,0,1,,,0,,,62,64
453740,set_tempo,,,,,220,1,0,495868,,,,,,
453760,set_tempo,,,,,20,1,0,500000,,,,,,
453780,note_off,,,,,180,0,2,,,0,,,35,64
453840,note_on,,,,,0,0,1,,,0,,,62,48
453840,note_on,,,,,0,0,1,,,0,,,59,48
453840,note_off,,,,,240,0,1,,,0,,,64,64
453840,note_on,,,,,60,0,2,,,0,,,47,35
453840,note_off,,,,,0,0,1,,,0,,,61,64
453880,set_tempo,,,,,120,1,0,504202,,,,,,
453920,set_tempo,,,,,40,1,0,508475,,,,,,
454020,note_on,,,,,0,0,2,,,0,,,35,37
454020,note_off,,,,,180,0,2,,,0,,,47,64
454040,set_tempo,,,,,120,1,0,521739,,,,,,
454050,note_off,,,,,0,0,1,,,0,,,54,64
454050,note_off,,,,,0,0,1,,,0,,,59,64
454050,note_off,,,,,210,0,1,,,0,,,62,64
454080,note_on,,,,,30,0,1,,,0,,,61,51
454080,note_on,,,,,0,0,1,,,0,,,57,51
454080,note_on,,,,,0,0,1,,,0,,,52,51
454080,note_off,,,,,60,0,2,,,0,,,35,64
454080,note_on,,,,,0,0,2,,,0,,,40,40
454160,set_tempo,,,,,120,1,0,526316,,,,,,
454200,set_tempo,,,,,40,1,0,594059,,,,,,
454260,note_off,,,,,180,0,2,,,0,,,40,64
454320,note_on,,,,,60,0,2,,,0,,,40,34
454560,note_off,,,,,240,0,2,,,0,,,40,64
454620,set_tempo,,,,,420,1,0,606061,,,,,,
454760,set_tempo,,,,,140,1,0,618557,,,,,,
454800,set_tempo,,,,,40,1,0,625000,,,,,,
454920,note_on,,,,,360,0,2,,,0,,,39,35
454940,set_tempo,,,,,140,1,0,638298,,,,,,
455000,set_tempo,,,,,60,1,0,645161,,,,,,
455040,note_off,,,,,960,0,1,,,0,,,52,64
455040,note_on,,,,,0,0,2,,,0,,,40,33
455040,set_tempo,,,,,40,1,0,652174,,,,,,
455040,note_off,,,,,120,0,2,,,0,,,39,64
455040,note_off,,,,,0,0,1,,,0,,,57,64
455040,note_off,,,,,0,0,1,,,0,,,61,64
455040,note_on,,,,,0,0,1,,,0,,,59,43
455040,note_on,,,,,0,0,1,,,0,,,52,43
455040,note_on,,,,,0,0,1,,,0,,,50,43
455040,note_on,,,,,0,0,1,,,0,,,57,43
455060,set_tempo,,,,,20,1,0,659341,,,,,,
455220,note_off,,,,,180,0,2,,,0,,,40,64
455220,set_tempo,,,,,160,1,0,681818,,,,,,
455280,note_off,,,,,240,0,1,,,0,,,57,64
455280,note_on,,,,,0,0,1,,,0,,,56,33
455280,note_on,,,,,60,0,2,,,0,,,40,30
455340,set_tempo,,,,,120,1,0,697674,,,,,,
455400,note_on,,,,,0,0,1,,,0,,,54,28
455400,note_off,,,,,120,0,1,,,0,,,56,64
455420,set_tempo,,,,,80,1,0,705882,,,,,,
455520,note_off,,,,,120,0,1,,,0,,,54,64
455520,note_on,,,,,0,0,1,,,0,,,56,24
455520,note_off,,,,,240,0,2,,,0,,,40,64
455540,set_tempo,,,,,120,1,0,722892,,,,,,
455560,set_tempo,,,,,20,1,0,731707,,,,,,
455620,set_tempo,,,,,60,1,0,740741,,,,,,
455740,set_tempo,,,,,120,1,0,750000,,,,,,
455760,set_tempo,,,,,20,1,0,857143,,,,,,
455880,note_on,,,,,360,0,2,,,0,,,40,25
456000,note_on,,,,,0,0,1,,,0,,,52,25
456000,note_off,,,,,0,0,1,,,0,,,50,64
456000,note_on,,,,,0,0,1,,,0,,,49,25
456000,note_off,,,,,120,0,2,,,0,,,40,64
456000,note_off,,,,,0,0,1,,,0,,,52,64
456000,note_on,,,,,0,0,2,,,0,,,33,25
456000,note_off,,,,,480,0,1,,,0,,,56,64
456000,note_on,,,,,0,0,1,,,0,,,57,25
456000,control_change,,,,,0,0,1,,,0,64,95,,
456000,note_off,,,,,0,0,1,,,0,,,59,64
456080,note_on,,,,,0,0,2,,,0,,,37,26
456080,set_tempo,,,,,320,1,0,560748,,,,,,
456080,note_off,,,,,80,0,2,,,0,,,33,64
456160,set_tempo,,,,,80,1,0,550459,,,,,,
456160,note_off,,,,,80,0,2,,,0,,,37,64
456160,note_on,,,,,0,0,2,,,0,,,40,28
456200,set_tempo,,,,,40,1,0,545455,,,,,,
456240,note_off,,,,,240,0,1,,,0,,,57,64
456240,note_off,,,,,0,0,1,,,0,,,52,64
456240,note_off,,,,,0,0,1,,,0,,,49,64
456240,note_off,,,,,80,0,2,,,0,,,40,64
456240,set_tempo,,,,,40,1,0,540541,,,,,,
456242,note_on,,,,,2,0,2,,,0,,,45,30
456320,set_tempo,,,,,80,1,0,535714,,,,,,
456322,note_on,,,,,0,0,2,,,0,,,49,30
456322,note_off,,,,,80,0,2,,,0,,,45,64
456340,set_tempo,,,,,20,1,0,530973,,,,,,
456380,set_tempo,,,,,40,1,0,526316,,,,,,
456402,note_off,,,,,80,0,2,,,0,,,49,64
456402,note_on,,,,,0,0,2,,,0,,,52,32
456420,set_tempo,,,,,40,1,0,521739,,,,,,
456482,note_off,,,,,80,0,2,,,0,,,52,64
456482,note_on,,,,,0,0,2,,,0,,,57,34
456500,set_tempo,,,,,80,1,0,517241,,,,,,
456540,set_tempo,,,,,40,1,0,512821,,,,,,
456562,note_off,,,,,80,0,2,,,0,,,57,64
456562,note_on,,,,,0,0,2,,,0,,,61,33
456600,set_tempo,,,,,60,1,0,508475,,,,,,
456640,set_tempo,,,,,40,1,0,504202,,,,,,
456642,note_off,,,,,80,0,2,,,0,,,61,64
456644,note_on,,,,,2,0,2,,,0,,,64,31
456724,note_off,,,,,80,0,2,,,0,,,64,64
456724,note_on,,,,,0,0,2,,,0,,,69,30
456780,set_tempo,,,,,140,1,0,500000,,,,,,
456800,set_tempo,,,,,20,1,0,495868,,,,,,
456804,note_off,,,,,80,0,2,,,0,,,69,64
456804,note_on,,,,,0,0,2,,,0,,,73,28
456884,note_off,,,,,80,0,2,,,0,,,73,64
456884,note_on,,,,,0,0,2,,,0,,,76,26
456920,set_tempo,,,,,120,1,0,491803,,,,,,
456964,note_off,,,,,80,0,2,,,0,,,76,64
456964,note_on,,,,,0,0,2,,,0,,,81,24
457020,set_tempo,,,,,100,1,0,487805,,,,,,
457044,note_off,,,,,80,0,2,,,0,,,81,64
457200,note_on,,,,,0,0,1,,,0,,,81,27
457200,note_on,,,,,0,0,1,,,0,,,93,27
457200,note_on,,,,,0,0,1,,,0,,,88,27
457200,note_on,,,,,0,0,1,,,0,,,85,27
457200,note_on,,,,,0,0,1,,,0,,,76,27
457200,note_on,,,,,0,0,1,,,0,,,73,27
457200,note_on,,,,,960,0,1,,,0,,,69,27
457320,note_off,,,,,0,0,1,,,0,,,85,64
457320,note_off,,,,,0,0,1,,,0,,,88,64
457320,note_off,,,,,120,0,1,,,0,,,93,64
457320,note_off,,,,,0,0,1,,,0,,,81,64
457320,note_off,,,,,0,0,1,,,0,,,73,64
457320,note_off,,,,,0,0,1,,,0,,,69,64
457320,note_off,,,,,0,0,1,,,0,,,76,64
457360,set_tempo,,,,,340,1,0,468750,,,,,,
457440,set_tempo,,,,,80,1,0,1500000,,,,,,
457680,control_change,,,,,360,0,1,,,0,64,0,,
457900,set_tempo,,,,,460,1,0,857143,,,,,,
457920,note_on,,,,,876,0,2,,,0,,,34,25
457920,control_change,,,,,240,0,1,,,0,64,93,,
458000,set_tempo,,,,,100,1,0,560748,,,,,,
458000,note_off,,,,,80,0,2,,,0,,,34,64
458000,note_on,,,,,0,0,2,,,0,,,38,26
458080,note_on,,,,,0,0,2,,,0,,,41,28
458080,set_tempo,,,,,80,1,0,550459,,,,,,
458080,note_off,,,,,80,0,2,,,0,,,38,64
458120,set_tempo,,,,,40,1,0,545455,,,,,,
458160,set_tempo,,,,,40,1,0,540541,,,,,,
458160,note_off,,,,,80,0,2,,,0,,,41,64
458162,note_on,,,,,2,0,2,,,0,,,46,30
458240,set_tempo,,,,,80,1,0,535714,,,,,,
458242,note_on,,,,,0,0,2,,,0,,,50,30
458242,note_off,,,,,80,0,2,,,0,,,46,64
458260,set_tempo,,,,,20,1,0,530973,,,,,,
458300,set_tempo,,,,,40,1,0,526316,,,,,,
458322,note_off,,,,,80,0,2,,,0,,,50,64
458322,note_on,,,,,0,0,2,,,0,,,53,32
458340,set_tempo,,,,,40,1,0,521739,,,,,,
458402,note_on,,,,,0,0,2,,,0,,,58,34
458402,note_off,,,,,80,0,2,,,0,,,53,64
458420,set_tempo,,,,,80,1,0,517241,,,,,,
458460,set_tempo,,,,,40,1,0,512821,,,,,,
458482,note_on,,,,,0,0,2,,,0,,,62,33
458482,note_off,,,,,80,0,2,,,0,,,58,64
458520,set_tempo,,,,,60,1,0,508475,,,,,,
458560,set_tempo,,,,,40,1,0,504202,,,,,,
458562,note_off,,,,,80,0,2,,,0,,,62,64
458564,note_on,,,,,2,0,2,,,0,,,65,31
458644,note_off,,,,,80,0,2,,,0,,,65,64
458644,note_on,,,,,0,0,2,,,0,,,70,30
458700,set_tempo,,,,,140,1,0,500000,,,,,,
458720,set_tempo,,,,,20,1,0,495868,,,,,,
458724,note_off,,,,,80,0,2,,,0,,,70,64
458724,note_on,,,,,0,0,2,,,0,,,74,28
458804,note_on,,,,,0,0,2,,,0,,,77,26
458804,note_off,,,,,80,0,2,,,0,,,74,64
458840,set_tempo,,,,,120,1,0,491803,,,,,,
458884,note_on,,,,,0,0,2,,,0,,,82,24
458884,note_off,,,,,80,0,2,,,0,,,77,64
458940,set_tempo,,,,,100,1,0,487805,,,,,,
458964,note_off,,,,,80,0,2,,,0,,,82,64
459020,set_tempo,,,,,80,1,0,540541,,,,,,
459120,note_on,,,,,0,0,1,,,0,,,80,31
459120,note_on,,,,,0,0,1,,,0,,,86,31
459120,note_on,,,,,0,0,1,,,0,,,92,31
459120,note_on,,,,,1200,0,1,,,0,,,98,31
459120,note_on,,,,,0,0,1,,,0,,,70,31
459120,note_on,,,,,0,0,1,,,0,,,74,31
459140,set_tempo,,,,,120,1,0,480000,,,,,,
459200,set_tempo,,,,,60,1,0,472441,,,,,,
459240,note_off,,,,,0,0,1,,,0,,,80,64
459240,note_off,,,,,0,0,1,,,0,,,92,64
459240,note_off,,,,,0,0,1,,,0,,,86,64
459240,note_off,,,,,0,0,1,,,0,,,98,64
459240,note_off,,,,,120,0,1,,,0,,,70,64
459240,note_off,,,,,0,0,1,,,0,,,74,64
459380,set_tempo,,,,,180,1,0,1500000,,,,,,
459590,control_change,,,,,350,0,1,,,0,64,0,,
459840,set_tempo,,,,,460,1,0,638298,,,,,,
459840,note_on,,,,,876,0,2,,,0,,,33,25
459840,control_change,,,,,250,0,1,,,0,64,95,,
459920,note_on,,,,,0,0,2,,,0,,,37,23
459920,set_tempo,,,,,80,1,0,560748,,,,,,
459920,note_off,,,,,80,0,2,,,0,,,33,64
459940,set_tempo,,,,,20,1,0,550459,,,,,,
459960,set_tempo,,,,,20,1,0,545455,,,,,,
460000,note_off,,,,,80,0,2,,,0,,,37,64
460000,note_on,,,,,0,0,2,,,0,,,40,25
460020,set_tempo,,,,,60,1,0,540541,,,,,,
460080,note_off,,,,,80,0,2,,,0,,,40,64
460080,set_tempo,,,,,60,1,0,535714,,,,,,
460082,note_on,,,,,2,0,2,,,0,,,45,27
460100,set_tempo,,,,,20,1,0,530973,,,,,,
460162,note_off,,,,,80,0,2,,,0,,,45,64
460162,note_on,,,,,0,0,2,,,0,,,49,27
460240,set_tempo,,,,,140,1,0,526316,,,,,,
460242,note_off,,,,,80,0,2,,,0,,,49,64
460242,note_on,,,,,0,0,2,,,0,,,52,29
460260,set_tempo,,,,,20,1,0,521739,,,,,,
460320,set_tempo,,,,,60,1,0,517241,,,,,,
460322,note_off,,,,,80,0,2,,,0,,,52,64
460322,note_on,,,,,0,0,2,,,0,,,57,30
460340,set_tempo,,,,,20,1,0,512821,,,,,,
460400,set_tempo,,,,,60,1,0,508475,,,,,,
460402,note_on,,,,,0,0,2,,,0,,,61,30
460402,note_off,,,,,80,0,2,,,0,,,57,64
460460,set_tempo,,,,,60,1,0,504202,,,,,,
460482,note_off,,,,,80,0,2,,,0,,,61,64
460484,note_on,,,,,2,0,2,,,0,,,64,31
460500,set_tempo,,,,,40,1,0,500000,,,,,,
460560,set_tempo,,,,,60,1,0,495868,,,,,,
460564,note_on,,,,,0,0,2,,,0,,,69,33
460564,note_off,,,,,80,0,2,,,0,,,64,64
460640,set_tempo,,,,,80,1,0,491803,,,,,,
460644,note_off,,,,,80,0,2,,,0,,,69,64
460644,note_on,,,,,0,0,2,,,0,,,73,34
460720,set_tempo,,,,,80,1,0,487805,,,,,,
460724,note_off,,,,,80,0,2,,,0,,,73,64
460724,note_on,,,,,0,0,2,,,0,,,76,35
460800,set_tempo,,,,,80,1,0,483871,,,,,,
460802,note_on,,,,,78,0,2,,,0,,,81,36
460804,note_off,,,,,2,0,2,,,0,,,76,64
460880,note_on,,,,,76,0,2,,,0,,,85,37
460882,note_off,,,,,2,0,2,,,0,,,81,64
460900,set_tempo,,,,,100,1,0,480000,,,,,,
460960,note_off,,,,,78,0,2,,,0,,,85,64
460960,note_on,,,,,0,0,2,,,0,,,88,38
461020,set_tempo,,,,,120,1,0,472441,,,,,,
461040,note_off,,,,,80,0,2,,,0,,,88,64
461042,note_on,,,,,2,0,2,,,0,,,85,38
461122,note_off,,,,,80,0,2,,,0,,,85,64
461122,note_on,,,,,0,0,2,,,0,,,81,38
461202,note_off,,,,,80,0,2,,,0,,,81,64
461202,note_on,,,,,0,0,2,,,0,,,76,39
461282,note_on,,,,,0,0,2,,,0,,,81,39
461282,note_off,,,,,80,0,2,,,0,,,76,64
461362,note_off,,,,,80,0,2,,,0,,,81,64
461362,note_on,,,,,0,0,2,,,0,,,76,39
461420,set_tempo,,,,,400,1,0,476190,,,,,,
461440,set_tempo,,,,,20,1,0,480000,,,,,,
461442,note_off,,,,,80,0,2,,,0,,,76,64
461444,note_on,,,,,2,0,2,,,0,,,73,39
461524,note_on,,,,,0,0,2,,,0,,,69,37
461524,note_off,,,,,80,0,2,,,0,,,73,64
461540,set_tempo,,,,,100,1,0,483871,,,,,,
461580,set_tempo,,,,,40,1,0,487805,,,,,,
461604,note_off,,,,,80,0,2,,,0,,,69,64
461604,note_on,,,,,0,0,2,,,0,,,64,35
461680,set_tempo,,,,,100,1,0,491803,,,,,,
461684,note_off,,,,,80,0,2,,,0,,,64,64
461684,note_on,,,,,0,0,2,,,0,,,61,33
461764,note_off,,,,,80,0,2,,,0,,,61,64
461764,note_on,,,,,0,0,2,,,0,,,57,32
461780,set_tempo,,,,,100,1,0,495868,,,,,,
461820,set_tempo,,,,,40,1,0,500000,,,,,,
461844,note_off,,,,,80,0,2,,,0,,,57,64
461846,note_on,,,,,2,0,2,,,0,,,61,31
461880,set_tempo,,,,,60,1,0,504202,,,,,,
461900,set_tempo,,,,,20,1,0,508475,,,,,,
461926,note_off,,,,,80,0,2,,,0,,,61,64
461926,note_on,,,,,0,0,2,,,0,,,64,30
462006,note_off,,,,,80,0,2,,,0,,,64,64
462006,note_on,,,,,0,0,2,,,0,,,61,28
462020,set_tempo,,,,,120,1,0,521739,,,,,,
462080,set_tempo,,,,,60,1,0,526316,,,,,,
462086,note_on,,,,,0,0,2,,,0,,,57,26
462086,note_off,,,,,80,0,2,,,0,,,61,64
462120,set_tempo,,,,,40,1,0,530973,,,,,,
462140,set_tempo,,,,,20,1,0,535714,,,,,,
462160,set_tempo,,,,,20,1,0,540541,,,,,,
462166,note_off,,,,,80,0,2,,,0,,,57,64
462166,note_on,,,,,0,0,2,,,0,,,52,24
462180,set_tempo,,,,,20,1,0,545455,,,,,,
462200,set_tempo,,,,,20,1,0,550459,,,,,,
462246,note_off,,,,,80,0,2,,,0,,,52,64
462248,note_on,,,,,2,0,2,,,0,,,57,23
462260,set_tempo,,,,,60,1,0,560748,,,,,,
462320,set_tempo,,,,,60,1,0,566038,,,,,,
462328,note_off,,,,,80,0,2,,,0,,,57,64
462328,note_on,,,,,0,0,2,,,0,,,52,20
462340,set_tempo,,,,,20,1,0,571429,,,,,,
462360,set_tempo,,,,,20,1,0,576923,,,,,,
462400,set_tempo,,,,,40,1,0,582524,,,,,,
462408,note_on,,,,,0,0,2,,,0,,,49,20
462408,note_off,,,,,80,0,2,,,0,,,52,64
462420,set_tempo,,,,,20,1,0,588235,,,,,,
462460,set_tempo,,,,,40,1,0,594059,,,,,,
462480,set_tempo,,,,,20,1,0,600000,,,,,,
462488,note_on,,,,,0,0,2,,,0,,,45,20
462488,note_off,,,,,80,0,2,,,0,,,49,64
462520,set_tempo,,,,,40,1,0,618557,,,,,,
462560,set_tempo,,,,,40,1,0,625000,,,,,,
462568,note_on,,,,,0,0,2,,,0,,,40,19
462568,note_off,,,,,80,0,2,,,0,,,45,64
462620,set_tempo,,,,,60,1,0,652174,,,,,,
462640,set_tempo,,,,,20,1,0,681818,,,,,,
462648,note_off,,,,,80,0,2,,,0,,,40,64
462650,note_on,,,,,2,0,2,,,0,,,37,17
462660,set_tempo,,,,,20,1,0,689655,,,,,,
462680,set_tempo,,,,,20,1,0,697674,,,,,,
462700,set_tempo,,,,,20,1,0,705882,,,,,,
462710,control_change,,,,,2870,0,1,,,0,64,0,,
462720,set_tempo,,,,,20,1,0,740741,,,,,,
462720,control_change,,,,,10,0,1,,,0,64,95,,
462730,note_off,,,,,80,0,2,,,0,,,37,64
462730,note_on,,,,,0,0,2,,,0,,,33,22
462740,set_tempo,,,,,20,1,0,769231,,,,,,
462760,set_tempo,,,,,20,1,0,789474,,,,,,
462780,set_tempo,,,,,20,1,0,821918,,,,,,
462800,set_tempo,,,,,20,1,0,937500,,,,,,
462820,set_tempo,,,,,20,1,0,1016949,,,,,,
462840,set_tempo,,,,,20,1,0,1034483,,,,,,
462860,set_tempo,,,,,20,1,0,1090909,,,,,,
462920,set_tempo,,,,,60,1,0,1111111,,,,,,
462972,note_off,,,,,242,0,2,,,0,,,33,64
462980,set_tempo,,,,,60,1,0,1132075,,,,,,
463200,note_on,,,,,228,0,2,,,0,,,52,24
463200,note_on,,,,,480,0,1,,,0,,,69,19
463200,note_on,,,,,0,0,1,,,0,,,64,19
463200,note_on,,,,,0,0,1,,,0,,,61,19
463200,note_on,,,,,0,0,1,,,0,,,57,19
463200,note_on,,,,,0,0,2,,,0,,,45,24
463200,note_on,,,,,0,0,2,,,0,,,49,24
463240,set_tempo,,,,,260,1,0,1153846,,,,,,
463440,note_off,,,,,0,0,1,,,0,,,61,64
463440,note_off,,,,,240,0,2,,,0,,,45,64
463440,note_off,,,,,0,0,1,,,0,,,64,64
463440,note_off,,,,,0,0,2,,,0,,,52,64
463440,note_off,,,,,240,0,1,,,0,,,57,64
463440,note_off,,,,,0,0,1,,,0,,,69,64
463440,note_off,,,,,0,0,2,,,0,,,49,64
463460,end_of_track,,,,,0,1,0,,,,,,,
463460,set_tempo,,,,,220,1,0,1935484,,,,,,
463680,note_on,,,,,240,0,2,,,0,,,45,24
463680,note_on,,,,,0,0,1,,,0,,,57,19
463680,note_on,,,,,0,0,1,,,0,,,61,19
463680,note_on,,,,,0,0,1,,,0,,,64,19
463680,note_on,,,,,240,0,1,,,0,,,69,19
463680,note_on,,,,,0,0,2,,,0,,,52,24
463680,note_on,,,,,0,0,2,,,0,,,49,24
464630,control_change,,,,,950,0,1,,,0,64,0,,
464640,end_of_track,,,,,0,1,2,,,,,,,
464640,end_of_track,,,,,0,1,1,,,,,,,
464640,note_off,,,,,0,0,2,,,0,,,49,64
464640,note_off,,,,,960,0,2,,,0,,,52,64
464640,note_off,,,,,10,0,1,,,0,,,57,64
464640,note_off,,,,,0,0,1,,,0,,,61,64
464640,note_off,,,,,0,0,1,,,0,,,64,64
464640,note_off,,,,,0,0,2,,,0,,,45,64
464640,note_off,,,,,0,0,1,,,0,,,69,64
