tick,type,time,meta,track,numerator,denominator,clocks_per_click,notated_32nd_notes_per_beat,key,tempo,port,program,channel,control,value,note,velocity
0,track_name,0,1,0,,,,,,,,,,,,,
0,control_change,0,0,2,,,,,,,,,1,7,127,,
0,control_change,0,0,2,,,,,,,,,1,10,97,,
0,midi_port,0,1,3,,,,,,,0,,,,,,
0,track_name,0,1,3,,,,,,,,,,,,,
0,program_change,0,0,3,,,,,,,,0,2,,,,
0,control_change,0,0,3,,,,,,,,,2,7,127,,
0,control_change,0,0,3,,,,,,,,,2,10,30,,
0,note_on,0,0,3,,,,,,,,,2,,,60,36
0,midi_port,0,1,1,,,,,,,0,,,,,,
0,track_name,0,1,1,,,,,,,,,,,,,
0,program_change,0,0,1,,,,,,,,0,0,,,,
0,control_change,0,0,1,,,,,,,,,0,7,127,,
0,control_change,0,0,1,,,,,,,,,0,10,97,,
0,note_on,0,0,1,,,,,,,,,0,,,72,36
0,midi_port,0,1,4,,,,,,,0,,,,,,
0,track_name,0,1,4,,,,,,,,,,,,,
0,program_change,0,0,4,,,,,,,,0,3,,,,
0,control_change,0,0,4,,,,,,,,,3,7,127,,
0,control_change,0,0,4,,,,,,,,,3,10,30,,
0,program_change,0,0,2,,,,,,,,0,1,,,,
0,track_name,0,1,2,,,,,,,,,,,,,
0,midi_port,0,1,2,,,,,,,0,,,,,,
0,set_tempo,0,1,0,,,,,,312500,,,,,,,
0,copyright,0,1,0,,,,,,,,,,,,,
0,text,0,1,0,,,,,,,,,,,,,
0,time_signature,0,1,0,1,4,24,8,,,,,,,,,
0,key_signature,0,1,0,,,,,C,,,,,,,,
90,note_on,90,0,1,,,,,,,,,0,,,71,36
90,note_on,90,0,3,,,,,,,,,2,,,59,36
105,note_on,0,0,1,,,,,,,,,0,,,72,36
105,note_on,15,0,1,,,,,,,,,0,,,71,0
105,note_on,0,0,3,,,,,,,,,2,,,60,36
105,note_on,15,0,3,,,,,,,,,2,,,59,0
120,note_on,0,0,1,,,,,,,,,0,,,71,36
120,note_on,0,0,1,,,,,,,,,0,,,72,0
120,note_on,15,0,1,,,,,,,,,0,,,72,0
120,time_signature,120,1,0,4,4,24,8,,,,,,,,,
120,note_on,0,0,3,,,,,,,,,2,,,59,36
120,note_on,0,0,3,,,,,,,,,2,,,60,0
120,note_on,15,0,3,,,,,,,,,2,,,60,0
240,note_on,0,0,1,,,,,,,,,0,,,69,36
240,note_on,120,0,1,,,,,,,,,0,,,71,0
240,note_on,120,0,3,,,,,,,,,2,,,59,0
240,note_on,0,0,3,,,,,,,,,2,,,57,36
360,note_on,0,0,1,,,,,,,,,0,,,76,62
360,control_change,0,0,1,,,,,,,,,0,64,127,,
360,note_on,120,0,1,,,,,,,,,0,,,69,0
360,note_on,120,0,3,,,,,,,,,2,,,57,0
360,control_change,0,0,3,,,,,,,,,2,64,127,,
360,note_on,0,0,3,,,,,,,,,2,,,64,62
540,note_on,0,0,1,,,,,,,,,0,,,72,36
540,note_on,180,0,1,,,,,,,,,0,,,76,0
540,note_on,0,0,3,,,,,,,,,2,,,60,36
540,note_on,180,0,3,,,,,,,,,2,,,64,0
570,note_on,0,0,3,,,,,,,,,2,,,57,36
570,note_on,30,0,3,,,,,,,,,2,,,60,0
570,note_on,0,0,1,,,,,,,,,0,,,69,36
570,note_on,30,0,1,,,,,,,,,0,,,72,0
600,note_on,0,0,3,,,,,,,,,2,,,52,36
600,note_on,0,0,1,,,,,,,,,0,,,64,36
600,control_change,0,0,3,,,,,,,,,2,64,0,,
600,note_on,30,0,1,,,,,,,,,0,,,69,0
600,control_change,0,0,1,,,,,,,,,0,64,0,,
600,note_on,30,0,3,,,,,,,,,2,,,57,0
960,note_on,0,0,1,,,,,,,,,0,,,57,75
960,note_on,360,0,1,,,,,,,,,0,,,64,0
960,note_on,0,0,1,,,,,,,,,0,,,64,75
960,note_on,360,0,3,,,,,,,,,2,,,52,0
960,note_on,0,0,3,,,,,,,,,2,,,48,62
960,note_on,0,0,3,,,,,,,,,2,,,52,62
972,note_on,12,0,1,,,,,,,,,0,,,64,0
972,note_on,0,0,1,,,,,,,,,0,,,57,0
972,note_on,12,0,3,,,,,,,,,2,,,52,0
972,note_on,0,0,3,,,,,,,,,2,,,48,0
1080,note_on,108,0,1,,,,,,,,,0,,,56,75
1080,note_on,0,0,1,,,,,,,,,0,,,62,75
1080,note_on,108,0,3,,,,,,,,,2,,,47,62
1080,note_on,0,0,3,,,,,,,,,2,,,52,62
1080,note_on,0,0,1,,,,,,,,,0,,,64,75
1092,note_on,12,0,1,,,,,,,,,0,,,64,0
1092,note_on,0,0,1,,,,,,,,,0,,,56,0
1092,note_on,0,0,1,,,,,,,,,0,,,62,0
1092,note_on,0,0,3,,,,,,,,,2,,,47,0
1092,note_on,12,0,3,,,,,,,,,2,,,52,0
1140,set_tempo,1020,1,0,,,,,,326087,,,,,,,
1200,set_tempo,60,1,0,,,,,,340909,,,,,,,
1200,note_on,0,0,3,,,,,,,,,2,,,52,62
1200,note_on,108,0,1,,,,,,,,,0,,,57,75
1200,note_on,0,0,1,,,,,,,,,0,,,60,75
1200,note_on,0,0,1,,,,,,,,,0,,,64,75
1200,note_on,108,0,3,,,,,,,,,2,,,45,62
1204,note_on,4,0,1,,,,,,,,,0,,,64,0
1204,note_on,0,0,1,,,,,,,,,0,,,60,0
1204,note_on,0,0,1,,,,,,,,,0,,,57,0
1212,note_on,12,0,3,,,,,,,,,2,,,52,0
1212,note_on,0,0,3,,,,,,,,,2,,,45,0
1260,set_tempo,60,1,0,,,,,,357143,,,,,,,
1320,note_on,108,0,3,,,,,,,,,2,,,43,62
1320,note_on,0,0,3,,,,,,,,,2,,,52,62
1320,note_on,116,0,1,,,,,,,,,0,,,59,75
1320,set_tempo,60,1,0,,,,,,375000,,,,,,,
1320,note_on,0,0,1,,,,,,,,,0,,,64,75
1332,note_on,12,0,1,,,,,,,,,0,,,64,0
1332,note_on,0,0,1,,,,,,,,,0,,,59,0
1332,note_on,0,0,3,,,,,,,,,2,,,43,0
1332,note_on,12,0,3,,,,,,,,,2,,,52,0
1380,set_tempo,60,1,0,,,,,,394737,,,,,,,
1440,note_on,108,0,1,,,,,,,,,0,,,57,75
1440,note_on,0,0,1,,,,,,,,,0,,,63,75
1440,note_on,0,0,3,,,,,,,,,2,,,52,62
1440,note_on,108,0,3,,,,,,,,,2,,,41,62
1440,set_tempo,60,1,0,,,,,,416667,,,,,,,
1440,note_on,0,0,1,,,,,,,,,0,,,69,75
1452,note_on,0,0,3,,,,,,,,,2,,,41,0
1452,note_on,12,0,3,,,,,,,,,2,,,52,0
1452,note_on,0,0,1,,,,,,,,,0,,,63,0
1452,note_on,0,0,1,,,,,,,,,0,,,57,0
1452,note_on,12,0,1,,,,,,,,,0,,,69,0
1500,set_tempo,60,1,0,,,,,,441176,,,,,,,
1560,note_on,108,0,1,,,,,,,,,0,,,56,75
1560,note_on,0,0,1,,,,,,,,,0,,,68,75
1560,note_on,0,0,1,,,,,,,,,0,,,64,75
1560,note_on,108,0,3,,,,,,,,,2,,,40,62
1560,set_tempo,60,1,0,,,,,,326087,,,,,,,
1560,note_on,0,0,3,,,,,,,,,2,,,52,62
1920,note_on,360,0,3,,,,,,,,,2,,,52,0
1920,note_on,0,0,1,,,,,,,,,0,,,56,0
1920,note_on,0,0,3,,,,,,,,,2,,,40,0
1920,note_on,0,0,3,,,,,,,,,2,,,62,36
1920,note_on,360,0,1,,,,,,,,,0,,,68,0
1920,note_on,0,0,1,,,,,,,,,0,,,64,0
1920,note_on,0,0,1,,,,,,,,,0,,,74,36
2010,note_on,90,0,3,,,,,,,,,2,,,60,36
2010,note_on,90,0,1,,,,,,,,,0,,,72,36
2025,note_on,15,0,3,,,,,,,,,2,,,60,0
2025,note_on,0,0,3,,,,,,,,,2,,,62,36
2025,note_on,15,0,1,,,,,,,,,0,,,72,0
2025,note_on,0,0,1,,,,,,,,,0,,,74,36
2040,note_on,0,0,1,,,,,,,,,0,,,72,36
2040,note_on,0,0,3,,,,,,,,,2,,,60,36
2040,note_on,0,0,3,,,,,,,,,2,,,62,0
2040,note_on,15,0,3,,,,,,,,,2,,,62,0
2040,note_on,15,0,1,,,,,,,,,0,,,74,0
2040,note_on,0,0,1,,,,,,,,,0,,,74,0
2160,note_on,0,0,3,,,,,,,,,2,,,59,36
2160,note_on,120,0,3,,,,,,,,,2,,,60,0
2160,note_on,120,0,1,,,,,,,,,0,,,72,0
2160,note_on,0,0,1,,,,,,,,,0,,,71,36
2280,note_on,0,0,3,,,,,,,,,2,,,65,62
2280,control_change,0,0,3,,,,,,,,,2,64,127,,
2280,note_on,120,0,3,,,,,,,,,2,,,59,0
2280,note_on,120,0,1,,,,,,,,,0,,,71,0
2280,note_on,0,0,1,,,,,,,,,0,,,77,62
2280,control_change,0,0,1,,,,,,,,,0,64,127,,
2460,note_on,0,0,1,,,,,,,,,0,,,74,36
2460,note_on,0,0,3,,,,,,,,,2,,,62,36
2460,note_on,180,0,1,,,,,,,,,0,,,77,0
2460,note_on,180,0,3,,,,,,,,,2,,,65,0
2490,note_on,0,0,3,,,,,,,,,2,,,59,36
2490,note_on,30,0,3,,,,,,,,,2,,,62,0
2490,note_on,30,0,1,,,,,,,,,0,,,74,0
2490,note_on,0,0,1,,,,,,,,,0,,,71,36
2520,note_on,30,0,3,,,,,,,,,2,,,59,0
2520,note_on,30,0,1,,,,,,,,,0,,,71,0
2520,control_change,0,0,1,,,,,,,,,0,64,0,,
2520,note_on,0,0,1,,,,,,,,,0,,,64,36
2520,control_change,0,0,3,,,,,,,,,2,64,0,,
2520,note_on,0,0,3,,,,,,,,,2,,,52,36
2880,note_on,0,0,3,,,,,,,,,2,,,50,62
2880,note_on,0,0,3,,,,,,,,,2,,,52,62
2880,note_on,0,0,1,,,,,,,,,0,,,64,75
2880,note_on,0,0,1,,,,,,,,,0,,,59,75
2880,note_on,0,0,1,,,,,,,,,0,,,68,75
2880,note_on,360,0,3,,,,,,,,,2,,,52,0
2880,note_on,360,0,1,,,,,,,,,0,,,64,0
2892,note_on,12,0,1,,,,,,,,,0,,,68,0
2892,note_on,0,0,3,,,,,,,,,2,,,50,0
2892,note_on,0,0,1,,,,,,,,,0,,,59,0
2892,note_on,0,0,1,,,,,,,,,0,,,64,0
2892,note_on,12,0,3,,,,,,,,,2,,,52,0
3000,note_on,108,0,3,,,,,,,,,2,,,48,62
3000,note_on,0,0,3,,,,,,,,,2,,,52,62
3000,note_on,108,0,1,,,,,,,,,0,,,57,75
3000,note_on,0,0,1,,,,,,,,,0,,,64,75
3000,note_on,0,0,1,,,,,,,,,0,,,69,75
3012,note_on,12,0,3,,,,,,,,,2,,,52,0
3012,note_on,0,0,3,,,,,,,,,2,,,48,0
3012,note_on,12,0,1,,,,,,,,,0,,,69,0
3012,note_on,0,0,1,,,,,,,,,0,,,64,0
3012,note_on,0,0,1,,,,,,,,,0,,,57,0
3060,set_tempo,1500,1,0,,,,,,340909,,,,,,,
3120,note_on,0,0,1,,,,,,,,,0,,,64,75
3120,note_on,0,0,3,,,,,,,,,2,,,52,62
3120,note_on,108,0,3,,,,,,,,,2,,,47,62
3120,note_on,108,0,1,,,,,,,,,0,,,59,75
3120,note_on,0,0,1,,,,,,,,,0,,,71,75
3120,set_tempo,60,1,0,,,,,,357143,,,,,,,
3132,note_on,12,0,1,,,,,,,,,0,,,71,0
3132,note_on,0,0,3,,,,,,,,,2,,,47,0
3132,note_on,12,0,3,,,,,,,,,2,,,52,0
3132,note_on,0,0,1,,,,,,,,,0,,,64,0
3132,note_on,0,0,1,,,,,,,,,0,,,59,0
3180,set_tempo,60,1,0,,,,,,375000,,,,,,,
3240,note_on,108,0,1,,,,,,,,,0,,,60,75
3240,note_on,0,0,1,,,,,,,,,0,,,64,75
3240,note_on,0,0,1,,,,,,,,,0,,,72,75
3240,note_on,108,0,3,,,,,,,,,2,,,45,62
3240,set_tempo,60,1,0,,,,,,394737,,,,,,,
3240,note_on,0,0,3,,,,,,,,,2,,,52,62
3252,note_on,0,0,1,,,,,,,,,0,,,60,0
3252,note_on,12,0,3,,,,,,,,,2,,,52,0
3252,note_on,12,0,1,,,,,,,,,0,,,72,0
3252,note_on,0,0,3,,,,,,,,,2,,,45,0
3252,note_on,0,0,1,,,,,,,,,0,,,64,0
3300,set_tempo,60,1,0,,,,,,416667,,,,,,,
3360,note_on,108,0,1,,,,,,,,,0,,,64,75
3360,note_on,108,0,3,,,,,,,,,2,,,44,62
3360,set_tempo,60,1,0,,,,,,441176,,,,,,,
3360,note_on,0,0,1,,,,,,,,,0,,,71,75
3360,note_on,0,0,3,,,,,,,,,2,,,52,62
3360,note_on,0,0,1,,,,,,,,,0,,,76,75
3372,note_on,0,0,1,,,,,,,,,0,,,71,0
3372,note_on,0,0,3,,,,,,,,,2,,,44,0
3372,note_on,12,0,3,,,,,,,,,2,,,52,0
3372,note_on,0,0,1,,,,,,,,,0,,,64,0
3372,note_on,12,0,1,,,,,,,,,0,,,76,0
3420,set_tempo,60,1,0,,,,,,468750,,,,,,,
3480,note_on,0,0,1,,,,,,,,,0,,,81,75
3480,note_on,108,0,1,,,,,,,,,0,,,69,75
3480,set_tempo,60,1,0,,,,,,500000,,,,,,,
3480,note_on,108,0,3,,,,,,,,,2,,,42,62
3480,note_on,0,0,3,,,,,,,,,2,,,54,62
3480,note_on,0,0,1,,,,,,,,,0,,,76,75
3960,note_on,0,0,2,,,,,,,,,1,,,75,62
3960,note_on,0,0,3,,,,,,,,,2,,,53,62
3960,note_on,0,0,3,,,,,,,,,2,,,41,62
3960,note_on,0,0,3,,,,,,,,,2,,,42,0
3960,note_on,480,0,3,,,,,,,,,2,,,54,0
3960,note_on,3960,0,2,,,,,,,,,1,,,69,62
3960,note_on,480,0,1,,,,,,,,,0,,,76,0
3960,note_on,0,0,1,,,,,,,,,0,,,69,0
3960,control_change,0,0,1,,,,,,,,,0,64,127,,
4020,note_on,0,0,1,,,,,,,,,0,,,83,75
4020,note_on,60,0,1,,,,,,,,,0,,,81,0
4050,note_on,0,0,1,,,,,,,,,0,,,81,75
4050,note_on,30,0,1,,,,,,,,,0,,,83,0
4080,note_on,0,0,1,,,,,,,,,0,,,80,75
4080,note_on,30,0,1,,,,,,,,,0,,,81,0
4140,note_on,0,0,1,,,,,,,,,0,,,81,75
4140,note_on,60,0,1,,,,,,,,,0,,,80,0
4200,note_on,60,0,1,,,,,,,,,0,,,81,0
4200,note_on,0,0,1,,,,,,,,,0,,,84,75
4320,note_on,120,0,1,,,,,,,,,0,,,84,0
4320,control_change,0,0,1,,,,,,,,,0,64,0,,
4320,note_on,0,0,1,,,,,,,,,0,,,83,75
4440,note_on,0,0,3,,,,,,,,,2,,,52,62
4440,control_change,0,0,3,,,,,,,,,2,64,127,,
4440,note_on,0,0,3,,,,,,,,,2,,,41,0
4440,note_on,4440,0,4,,,,,,,,,3,,,40,62
4440,note_on,480,0,3,,,,,,,,,2,,,53,0
4440,set_tempo,960,1,0,,,,,,312500,,,,,,,
4440,note_on,480,0,2,,,,,,,,,1,,,75,0
4440,note_on,0,0,2,,,,,,,,,1,,,69,0
4440,note_on,0,0,2,,,,,,,,,1,,,68,62
4440,note_on,120,0,1,,,,,,,,,0,,,83,0
4440,note_on,0,0,1,,,,,,,,,0,,,80,75
4440,note_on,0,0,1,,,,,,,,,0,,,76,75
4440,control_change,0,0,1,,,,,,,,,0,64,127,,
4500,note_on,0,0,1,,,,,,,,,0,,,76,0
4500,note_on,60,0,1,,,,,,,,,0,,,80,0
4500,note_on,60,0,2,,,,,,,,,1,,,68,0
4560,note_on,120,0,4,,,,,,,,,3,,,40,0
4560,note_on,60,0,1,,,,,,,,,0,,,64,75
4680,note_on,0,0,3,,,,,,,,,2,,,52,62
4680,note_on,240,0,3,,,,,,,,,2,,,52,0
4800,note_on,240,0,1,,,,,,,,,0,,,64,0
4800,note_on,0,0,1,,,,,,,,,0,,,64,75
4920,note_on,0,0,3,,,,,,,,,2,,,52,62
4920,note_on,240,0,3,,,,,,,,,2,,,52,0
5040,note_on,240,0,1,,,,,,,,,0,,,64,0
5040,note_on,0,0,1,,,,,,,,,0,,,64,75
5160,note_on,240,0,3,,,,,,,,,2,,,52,0
5160,control_change,0,0,3,,,,,,,,,2,64,0,,
5160,note_on,0,0,3,,,,,,,,,2,,,52,62
5280,note_on,0,0,1,,,,,,,,,0,,,64,75
5280,note_on,240,0,1,,,,,,,,,0,,,64,0
5280,control_change,0,0,1,,,,,,,,,0,64,0,,
5400,note_on,0,0,1,,,,,,,,,0,,,65,75
5400,note_on,120,0,1,,,,,,,,,0,,,64,0
5400,note_on,0,0,3,,,,,,,,,2,,,52,62
5400,note_on,0,0,3,,,,,,,,,2,,,40,62
5400,note_on,240,0,3,,,,,,,,,2,,,52,0
5460,note_on,0,0,1,,,,,,,,,0,,,57,75
5460,note_on,60,0,1,,,,,,,,,0,,,65,0
5520,note_on,0,0,3,,,,,,,,,2,,,40,62
5520,note_on,0,0,1,,,,,,,,,0,,,60,75
5520,note_on,120,0,3,,,,,,,,,2,,,52,0
5520,note_on,0,0,3,,,,,,,,,2,,,40,0
5520,note_on,0,0,3,,,,,,,,,2,,,52,62
5520,note_on,60,0,1,,,,,,,,,0,,,57,0
5580,note_on,0,0,1,,,,,,,,,0,,,64,75
5580,note_on,60,0,1,,,,,,,,,0,,,60,0
5640,note_on,0,0,3,,,,,,,,,2,,,52,62
5640,note_on,0,0,3,,,,,,,,,2,,,40,62
5640,note_on,0,0,3,,,,,,,,,2,,,40,0
5640,note_on,120,0,3,,,,,,,,,2,,,52,0
5640,note_on,0,0,1,,,,,,,,,0,,,65,75
5640,note_on,60,0,1,,,,,,,,,0,,,64,0
5700,note_on,0,0,1,,,,,,,,,0,,,57,75
5700,note_on,60,0,1,,,,,,,,,0,,,65,0
5760,note_on,0,0,3,,,,,,,,,2,,,40,0
5760,note_on,120,0,3,,,,,,,,,2,,,52,0
5760,note_on,0,0,3,,,,,,,,,2,,,40,62
5760,note_on,0,0,3,,,,,,,,,2,,,52,62
5760,note_on,0,0,1,,,,,,,,,0,,,60,75
5760,note_on,60,0,1,,,,,,,,,0,,,57,0
5820,note_on,60,0,1,,,,,,,,,0,,,60,0
5820,note_on,0,0,1,,,,,,,,,0,,,64,75
5880,note_on,0,0,3,,,,,,,,,2,,,52,62
5880,note_on,0,0,3,,,,,,,,,2,,,40,62
5880,note_on,0,0,3,,,,,,,,,2,,,40,0
5880,note_on,120,0,3,,,,,,,,,2,,,52,0
5880,note_on,60,0,1,,,,,,,,,0,,,64,0
5880,note_on,0,0,1,,,,,,,,,0,,,65,75
5940,note_on,0,0,1,,,,,,,,,0,,,59,75
5940,note_on,60,0,1,,,,,,,,,0,,,65,0
6000,note_on,60,0,1,,,,,,,,,0,,,59,0
6000,note_on,0,0,1,,,,,,,,,0,,,62,75
6000,note_on,120,0,3,,,,,,,,,2,,,52,0
6000,note_on,0,0,3,,,,,,,,,2,,,40,0
6000,note_on,0,0,3,,,,,,,,,2,,,40,62
6000,note_on,0,0,3,,,,,,,,,2,,,52,62
6060,note_on,60,0,1,,,,,,,,,0,,,62,0
6060,note_on,0,0,1,,,,,,,,,0,,,65,75
6120,note_on,120,0,3,,,,,,,,,2,,,52,0
6120,note_on,0,0,3,,,,,,,,,2,,,52,88
6120,note_on,0,0,3,,,,,,,,,2,,,40,80
6120,note_on,0,0,3,,,,,,,,,2,,,40,0
6120,note_on,60,0,1,,,,,,,,,0,,,65,0
6120,note_on,0,0,1,,,,,,,,,0,,,71,101
6180,note_on,1680,0,2,,,,,,,,,1,,,62,62
6240,note_on,0,0,2,,,,,,,,,1,,,65,62
6240,note_on,60,0,2,,,,,,,,,1,,,62,0
6240,note_on,120,0,3,,,,,,,,,2,,,52,0
6240,note_on,0,0,3,,,,,,,,,2,,,40,0
6240,note_on,0,0,3,,,,,,,,,2,,,40,62
6240,note_on,0,0,3,,,,,,,,,2,,,52,62
6300,note_on,0,0,1,,,,,,,,,0,,,71,101
6300,note_on,60,0,2,,,,,,,,,1,,,65,0
6300,note_on,180,0,1,,,,,,,,,0,,,71,0
6360,note_on,120,0,3,,,,,,,,,2,,,52,0
6360,control_change,0,0,3,,,,,,,,,2,64,127,,
6360,note_on,0,0,3,,,,,,,,,2,,,40,62
6360,note_on,0,0,3,,,,,,,,,2,,,52,62
6360,note_on,60,0,1,,,,,,,,,0,,,71,0
6360,control_change,0,0,1,,,,,,,,,0,64,127,,
6360,note_on,0,0,1,,,,,,,,,0,,,64,75
6360,note_on,0,0,1,,,,,,,,,0,,,68,75
6360,note_on,0,0,3,,,,,,,,,2,,,40,0
6420,note_on,60,0,1,,,,,,,,,0,,,68,0
6420,note_on,0,0,1,,,,,,,,,0,,,64,0
6480,note_on,60,0,1,,,,,,,,,0,,,76,75
6600,note_on,240,0,3,,,,,,,,,2,,,52,0
6600,note_on,0,0,3,,,,,,,,,2,,,40,0
6600,note_on,0,0,3,,,,,,,,,2,,,52,62
6600,note_on,0,0,3,,,,,,,,,2,,,64,62
6720,note_on,0,0,1,,,,,,,,,0,,,76,75
6720,note_on,240,0,1,,,,,,,,,0,,,76,0
6840,note_on,240,0,3,,,,,,,,,2,,,64,0
6840,note_on,0,0,3,,,,,,,,,2,,,52,0
6840,note_on,0,0,3,,,,,,,,,2,,,52,62
6840,note_on,0,0,3,,,,,,,,,2,,,64,62
6960,note_on,240,0,1,,,,,,,,,0,,,76,0
6960,note_on,0,0,1,,,,,,,,,0,,,76,75
7080,note_on,240,0,3,,,,,,,,,2,,,64,0
7080,note_on,0,0,3,,,,,,,,,2,,,52,0
7080,control_change,0,0,3,,,,,,,,,2,64,0,,
7080,note_on,0,0,3,,,,,,,,,2,,,52,62
7080,note_on,0,0,3,,,,,,,,,2,,,64,62
7200,note_on,240,0,1,,,,,,,,,0,,,76,0
7200,control_change,0,0,1,,,,,,,,,0,64,0,,
7200,note_on,0,0,1,,,,,,,,,0,,,76,75
7320,note_on,120,0,1,,,,,,,,,0,,,76,0
7320,note_on,0,0,1,,,,,,,,,0,,,77,75
7320,note_on,0,0,3,,,,,,,,,2,,,52,0
7320,note_on,0,0,3,,,,,,,,,2,,,57,62
7320,note_on,240,0,3,,,,,,,,,2,,,64,0
7320,note_on,0,0,3,,,,,,,,,2,,,52,62
7320,note_on,0,0,3,,,,,,,,,2,,,64,62
7320,note_on,0,0,3,,,,,,,,,2,,,60,62
7380,note_on,0,0,1,,,,,,,,,0,,,69,75
7380,note_on,60,0,1,,,,,,,,,0,,,77,0
7440,note_on,0,0,1,,,,,,,,,0,,,72,75
7440,note_on,60,0,1,,,,,,,,,0,,,69,0
7440,note_on,0,0,3,,,,,,,,,2,,,60,62
7440,note_on,120,0,3,,,,,,,,,2,,,64,0
7440,note_on,0,0,3,,,,,,,,,2,,,52,0
7440,note_on,0,0,3,,,,,,,,,2,,,57,0
7440,note_on,0,0,3,,,,,,,,,2,,,60,0
7440,note_on,0,0,3,,,,,,,,,2,,,52,62
7440,note_on,0,0,3,,,,,,,,,2,,,64,62
7440,note_on,0,0,3,,,,,,,,,2,,,57,62
7500,note_on,60,0,1,,,,,,,,,0,,,72,0
7500,note_on,0,0,1,,,,,,,,,0,,,76,75
7560,note_on,60,0,1,,,,,,,,,0,,,76,0
7560,note_on,0,0,1,,,,,,,,,0,,,77,75
7560,note_on,120,0,3,,,,,,,,,2,,,64,0
7560,note_on,0,0,3,,,,,,,,,2,,,52,0
7560,note_on,0,0,3,,,,,,,,,2,,,57,0
7560,note_on,0,0,3,,,,,,,,,2,,,60,0
7560,note_on,0,0,3,,,,,,,,,2,,,52,62
7560,note_on,0,0,3,,,,,,,,,2,,,57,62
7560,note_on,0,0,3,,,,,,,,,2,,,60,62
7560,note_on,0,0,3,,,,,,,,,2,,,64,62
7620,note_on,60,0,1,,,,,,,,,0,,,77,0
7620,note_on,0,0,1,,,,,,,,,0,,,69,75
7680,note_on,0,0,3,,,,,,,,,2,,,57,62
7680,note_on,0,0,1,,,,,,,,,0,,,72,75
7680,note_on,60,0,1,,,,,,,,,0,,,69,0
7680,note_on,0,0,3,,,,,,,,,2,,,64,62
7680,note_on,0,0,3,,,,,,,,,2,,,60,62
7680,note_on,0,0,3,,,,,,,,,2,,,52,62
7680,note_on,0,0,3,,,,,,,,,2,,,60,0
7680,note_on,0,0,3,,,,,,,,,2,,,57,0
7680,note_on,0,0,3,,,,,,,,,2,,,52,0
7680,note_on,120,0,3,,,,,,,,,2,,,64,0
7740,note_on,60,0,1,,,,,,,,,0,,,72,0
7740,note_on,0,0,1,,,,,,,,,0,,,76,75
7800,note_on,0,0,1,,,,,,,,,0,,,77,75
7800,note_on,120,0,3,,,,,,,,,2,,,64,0
7800,note_on,0,0,3,,,,,,,,,2,,,52,0
7800,note_on,0,0,3,,,,,,,,,2,,,57,0
7800,note_on,0,0,3,,,,,,,,,2,,,60,0
7800,note_on,0,0,3,,,,,,,,,2,,,52,62
7800,note_on,0,0,3,,,,,,,,,2,,,59,62
7800,note_on,0,0,3,,,,,,,,,2,,,62,62
7800,note_on,0,0,3,,,,,,,,,2,,,64,62
7800,note_on,60,0,1,,,,,,,,,0,,,76,0
7860,note_on,0,0,1,,,,,,,,,0,,,71,75
7860,note_on,60,0,1,,,,,,,,,0,,,77,0
7920,note_on,0,0,1,,,,,,,,,0,,,74,75
7920,note_on,0,0,3,,,,,,,,,2,,,59,62
7920,note_on,60,0,1,,,,,,,,,0,,,71,0
7920,note_on,120,0,3,,,,,,,,,2,,,64,0
7920,note_on,0,0,3,,,,,,,,,2,,,52,0
7920,note_on,0,0,3,,,,,,,,,2,,,59,0
7920,note_on,0,0,3,,,,,,,,,2,,,62,0
7920,note_on,0,0,3,,,,,,,,,2,,,52,62
7920,note_on,0,0,3,,,,,,,,,2,,,62,62
7920,note_on,0,0,3,,,,,,,,,2,,,64,62
7980,note_on,60,0,1,,,,,,,,,0,,,74,0
7980,note_on,0,0,1,,,,,,,,,0,,,77,75
8040,note_on,60,0,1,,,,,,,,,0,,,77,0
8040,note_on,0,0,1,,,,,,,,,0,,,83,101
8040,note_on,120,0,3,,,,,,,,,2,,,64,0
8040,note_on,0,0,3,,,,,,,,,2,,,52,0
8040,note_on,0,0,3,,,,,,,,,2,,,64,88
8040,note_on,0,0,3,,,,,,,,,2,,,62,84
8040,note_on,0,0,3,,,,,,,,,2,,,59,80
8040,note_on,0,0,3,,,,,,,,,2,,,52,76
8040,note_on,0,0,3,,,,,,,,,2,,,62,0
8040,note_on,0,0,3,,,,,,,,,2,,,59,0
8100,note_on,1800,0,2,,,,,,,,,1,,,74,62
8160,note_on,0,0,3,,,,,,,,,2,,,52,62
8160,note_on,0,0,3,,,,,,,,,2,,,64,62
8160,note_on,0,0,3,,,,,,,,,2,,,62,0
8160,note_on,0,0,3,,,,,,,,,2,,,59,0
8160,note_on,0,0,3,,,,,,,,,2,,,52,0
8160,note_on,120,0,3,,,,,,,,,2,,,64,0
8160,note_on,0,0,2,,,,,,,,,1,,,77,62
8160,note_on,0,0,3,,,,,,,,,2,,,59,62
8160,note_on,0,0,3,,,,,,,,,2,,,62,62
8160,note_on,60,0,2,,,,,,,,,1,,,74,0
8220,note_on,180,0,1,,,,,,,,,0,,,83,0
8220,note_on,0,0,1,,,,,,,,,0,,,83,101
8220,note_on,60,0,2,,,,,,,,,1,,,77,0
8280,control_change,0,0,3,,,,,,,,,2,64,127,,
8280,note_on,60,0,1,,,,,,,,,0,,,83,0
8280,control_change,0,0,1,,,,,,,,,0,64,127,,
8280,note_on,0,0,1,,,,,,,,,0,,,76,88
8280,note_on,0,0,3,,,,,,,,,2,,,64,75
8280,note_on,0,0,3,,,,,,,,,2,,,52,75
8280,note_on,0,0,1,,,,,,,,,0,,,80,88
8280,note_on,0,0,3,,,,,,,,,2,,,62,0
8280,note_on,0,0,3,,,,,,,,,2,,,59,0
8280,note_on,0,0,3,,,,,,,,,2,,,52,0
8280,note_on,120,0,3,,,,,,,,,2,,,64,0
8400,note_on,0,0,1,,,,,,,,,0,,,88,88
8400,note_on,0,0,1,,,,,,,,,0,,,76,0
8400,note_on,0,0,1,,,,,,,,,0,,,76,88
8400,note_on,120,0,1,,,,,,,,,0,,,80,0
8520,note_on,240,0,3,,,,,,,,,2,,,64,0
8520,note_on,0,0,3,,,,,,,,,2,,,52,75
8520,note_on,0,0,3,,,,,,,,,2,,,64,75
8520,note_on,0,0,3,,,,,,,,,2,,,52,0
8640,note_on,0,0,1,,,,,,,,,0,,,76,0
8640,note_on,240,0,1,,,,,,,,,0,,,88,0
8640,note_on,0,0,1,,,,,,,,,0,,,76,88
8640,note_on,0,0,1,,,,,,,,,0,,,88,88
8760,note_on,240,0,3,,,,,,,,,2,,,64,0
8760,note_on,0,0,3,,,,,,,,,2,,,52,0
8760,note_on,0,0,3,,,,,,,,,2,,,52,75
8760,note_on,0,0,3,,,,,,,,,2,,,64,75
8880,note_on,0,0,1,,,,,,,,,0,,,76,88
8880,note_on,0,0,1,,,,,,,,,0,,,88,88
8880,note_on,240,0,1,,,,,,,,,0,,,88,0
8880,note_on,0,0,1,,,,,,,,,0,,,76,0
9000,note_on,0,0,3,,,,,,,,,2,,,52,0
9000,control_change,0,0,3,,,,,,,,,2,64,0,,
9000,note_on,0,0,3,,,,,,,,,2,,,52,75
9000,note_on,240,0,3,,,,,,,,,2,,,64,0
9000,note_on,0,0,3,,,,,,,,,2,,,64,75
9120,note_on,0,0,1,,,,,,,,,0,,,88,88
9120,note_on,0,0,1,,,,,,,,,0,,,76,88
9120,note_on,0,0,1,,,,,,,,,0,,,76,0
9120,note_on,240,0,1,,,,,,,,,0,,,88,0
9120,control_change,0,0,1,,,,,,,,,0,64,0,,
9240,note_on,0,0,3,,,,,,,,,2,,,52,0
9240,note_on,0,0,1,,,,,,,,,0,,,81,101
9240,note_on,0,0,1,,,,,,,,,0,,,84,101
9240,note_on,0,0,1,,,,,,,,,0,,,93,101
9240,note_on,0,0,1,,,,,,,,,0,,,76,0
9240,note_on,240,0,3,,,,,,,,,2,,,64,0
9240,note_on,0,0,3,,,,,,,,,2,,,65,88
9240,note_on,0,0,3,,,,,,,,,2,,,53,88
9240,note_on,120,0,1,,,,,,,,,0,,,88,0
9252,note_on,0,0,3,,,,,,,,,2,,,53,0
9252,note_on,0,0,1,,,,,,,,,0,,,81,0
9252,note_on,0,0,1,,,,,,,,,0,,,84,0
9252,note_on,12,0,1,,,,,,,,,0,,,93,0
9252,note_on,12,0,3,,,,,,,,,2,,,65,0
9360,note_on,0,0,1,,,,,,,,,0,,,75,101
9360,note_on,0,0,1,,,,,,,,,0,,,72,101
9360,note_on,0,0,1,,,,,,,,,0,,,81,101
9360,note_on,108,0,1,,,,,,,,,0,,,69,101
9360,note_on,0,0,3,,,,,,,,,2,,,65,88
9360,note_on,108,0,3,,,,,,,,,2,,,53,88
9600,note_on,0,0,1,,,,,,,,,0,,,81,101
9600,note_on,0,0,1,,,,,,,,,0,,,75,101
9600,note_on,0,0,1,,,,,,,,,0,,,69,101
9600,note_on,0,0,1,,,,,,,,,0,,,75,0
9600,note_on,0,0,1,,,,,,,,,0,,,72,0
9600,note_on,0,0,1,,,,,,,,,0,,,69,0
9600,note_on,240,0,1,,,,,,,,,0,,,81,0
9600,note_on,240,0,3,,,,,,,,,2,,,65,0
9600,note_on,0,0,3,,,,,,,,,2,,,53,0
9600,note_on,0,0,3,,,,,,,,,2,,,53,88
9600,note_on,0,0,1,,,,,,,,,0,,,72,101
9600,note_on,0,0,3,,,,,,,,,2,,,65,88
9720,note_on,120,0,3,,,,,,,,,2,,,65,0
9720,note_on,0,0,3,,,,,,,,,2,,,53,0
9720,note_on,0,0,1,,,,,,,,,0,,,82,101
9720,note_on,0,0,3,,,,,,,,,2,,,53,88
9720,note_on,0,0,3,,,,,,,,,2,,,65,88
9720,note_on,0,0,1,,,,,,,,,0,,,74,101
9720,note_on,0,0,1,,,,,,,,,0,,,70,101
9720,note_on,0,0,1,,,,,,,,,0,,,75,0
9720,note_on,0,0,1,,,,,,,,,0,,,72,0
9720,note_on,0,0,1,,,,,,,,,0,,,69,0
9720,note_on,120,0,1,,,,,,,,,0,,,81,0
9732,note_on,0,0,3,,,,,,,,,2,,,53,0
9732,note_on,0,0,1,,,,,,,,,0,,,74,0
9732,note_on,0,0,1,,,,,,,,,0,,,70,0
9732,note_on,12,0,3,,,,,,,,,2,,,65,0
9732,note_on,12,0,1,,,,,,,,,0,,,82,0
9840,note_on,0,0,1,,,,,,,,,0,,,87,101
9840,note_on,0,0,1,,,,,,,,,0,,,84,101
9840,note_on,108,0,1,,,,,,,,,0,,,81,101
9840,note_on,0,0,1,,,,,,,,,0,,,93,101
9840,note_on,108,0,3,,,,,,,,,2,,,41,88
9840,note_on,0,0,3,,,,,,,,,2,,,53,88
10080,note_on,0,0,3,,,,,,,,,2,,,53,88
10080,note_on,0,0,3,,,,,,,,,2,,,41,88
10080,note_on,0,0,3,,,,,,,,,2,,,41,0
10080,note_on,240,0,3,,,,,,,,,2,,,53,0
10080,note_on,240,0,1,,,,,,,,,0,,,93,0
10080,note_on,0,0,1,,,,,,,,,0,,,81,0
10080,note_on,0,0,1,,,,,,,,,0,,,84,0
10080,note_on,0,0,1,,,,,,,,,0,,,87,0
10080,note_on,0,0,1,,,,,,,,,0,,,81,101
10080,note_on,0,0,1,,,,,,,,,0,,,87,101
10080,note_on,0,0,1,,,,,,,,,0,,,93,101
10080,note_on,0,0,1,,,,,,,,,0,,,84,101
10200,note_on,0,0,1,,,,,,,,,0,,,94,101
10200,note_on,120,0,1,,,,,,,,,0,,,93,0
10200,note_on,0,0,1,,,,,,,,,0,,,81,0
10200,note_on,0,0,1,,,,,,,,,0,,,84,0
10200,note_on,0,0,1,,,,,,,,,0,,,87,0
10200,note_on,0,0,1,,,,,,,,,0,,,82,101
10200,note_on,0,0,1,,,,,,,,,0,,,86,101
10200,note_on,0,0,3,,,,,,,,,2,,,41,0
10200,note_on,120,0,3,,,,,,,,,2,,,53,0
10200,note_on,0,0,3,,,,,,,,,2,,,53,88
10200,note_on,0,0,3,,,,,,,,,2,,,41,88
10212,note_on,0,0,1,,,,,,,,,0,,,82,0
10212,note_on,12,0,3,,,,,,,,,2,,,53,0
10212,note_on,12,0,1,,,,,,,,,0,,,94,0
10212,note_on,0,0,3,,,,,,,,,2,,,41,0
10212,note_on,0,0,1,,,,,,,,,0,,,86,0
10320,note_on,0,0,1,,,,,,,,,0,,,72,101
10320,note_on,0,0,1,,,,,,,,,0,,,75,101
10320,note_on,0,0,1,,,,,,,,,0,,,81,101
10320,note_on,108,0,3,,,,,,,,,2,,,53,88
10320,note_on,0,0,3,,,,,,,,,2,,,65,88
10320,note_on,108,0,1,,,,,,,,,0,,,69,101
10560,note_on,0,0,1,,,,,,,,,0,,,69,101
10560,note_on,0,0,1,,,,,,,,,0,,,72,101
10560,note_on,240,0,3,,,,,,,,,2,,,65,0
10560,note_on,0,0,3,,,,,,,,,2,,,65,88
10560,note_on,0,0,3,,,,,,,,,2,,,53,88
10560,note_on,0,0,1,,,,,,,,,0,,,75,0
10560,note_on,0,0,1,,,,,,,,,0,,,72,0
10560,note_on,0,0,1,,,,,,,,,0,,,69,0
10560,note_on,240,0,1,,,,,,,,,0,,,81,0
10560,note_on,0,0,1,,,,,,,,,0,,,75,101
10560,note_on,0,0,1,,,,,,,,,0,,,81,101
10560,note_on,0,0,3,,,,,,,,,2,,,53,0
10680,note_on,0,0,1,,,,,,,,,0,,,74,101
10680,note_on,120,0,1,,,,,,,,,0,,,81,0
10680,note_on,0,0,1,,,,,,,,,0,,,72,0
10680,note_on,0,0,1,,,,,,,,,0,,,75,0
10680,note_on,120,0,3,,,,,,,,,2,,,65,0
10680,note_on,0,0,3,,,,,,,,,2,,,53,0
10680,note_on,0,0,3,,,,,,,,,2,,,53,88
10680,note_on,0,0,3,,,,,,,,,2,,,65,88
10680,note_on,0,0,1,,,,,,,,,0,,,82,101
10680,note_on,0,0,1,,,,,,,,,0,,,70,101
10680,note_on,0,0,1,,,,,,,,,0,,,69,0
10692,note_on,12,0,3,,,,,,,,,2,,,65,0
10692,note_on,0,0,3,,,,,,,,,2,,,53,0
10692,note_on,12,0,1,,,,,,,,,0,,,82,0
10692,note_on,0,0,1,,,,,,,,,0,,,70,0
10692,note_on,0,0,1,,,,,,,,,0,,,74,0
10800,note_on,0,0,1,,,,,,,,,0,,,87,101
10800,note_on,0,0,1,,,,,,,,,0,,,84,101
10800,note_on,108,0,1,,,,,,,,,0,,,81,101
10800,note_on,108,0,3,,,,,,,,,2,,,41,88
10800,note_on,0,0,3,,,,,,,,,2,,,53,88
10800,note_on,0,0,1,,,,,,,,,0,,,93,101
11040,note_on,0,0,3,,,,,,,,,2,,,41,88
11040,note_on,240,0,3,,,,,,,,,2,,,53,0
11040,note_on,0,0,3,,,,,,,,,2,,,41,0
11040,note_on,0,0,3,,,,,,,,,2,,,53,88
11040,note_on,0,0,1,,,,,,,,,0,,,93,101
11040,note_on,240,0,1,,,,,,,,,0,,,93,0
11040,note_on,0,0,1,,,,,,,,,0,,,81,0
11040,note_on,0,0,1,,,,,,,,,0,,,84,0
11040,note_on,0,0,1,,,,,,,,,0,,,87,0
11040,note_on,0,0,1,,,,,,,,,0,,,81,101
11040,note_on,0,0,1,,,,,,,,,0,,,84,101
11040,note_on,0,0,1,,,,,,,,,0,,,87,101
11160,note_on,0,0,3,,,,,,,,,2,,,41,0
11160,note_on,120,0,1,,,,,,,,,0,,,93,0
11160,note_on,0,0,1,,,,,,,,,0,,,81,0
11160,note_on,120,0,3,,,,,,,,,2,,,53,0
11160,note_on,0,0,1,,,,,,,,,0,,,87,0
11160,note_on,0,0,1,,,,,,,,,0,,,84,0
11160,note_on,0,0,1,,,,,,,,,0,,,84,101
11160,note_on,0,0,1,,,,,,,,,0,,,88,101
11160,note_on,0,0,1,,,,,,,,,0,,,93,101
11160,note_on,0,0,3,,,,,,,,,2,,,52,88
11160,note_on,0,0,3,,,,,,,,,2,,,40,88
11160,note_on,0,0,1,,,,,,,,,0,,,81,101
11172,note_on,12,0,1,,,,,,,,,0,,,93,0
11172,note_on,0,0,1,,,,,,,,,0,,,81,0
11172,note_on,0,0,1,,,,,,,,,0,,,84,0
11172,note_on,0,0,1,,,,,,,,,0,,,88,0
11172,note_on,12,0,3,,,,,,,,,2,,,52,0
11172,note_on,0,0,3,,,,,,,,,2,,,40,0
11400,note_on,0,0,3,,,,,,,,,2,,,64,88
11400,note_on,0,0,3,,,,,,,,,2,,,60,88
11400,note_on,228,0,3,,,,,,,,,2,,,52,88
11400,note_on,228,0,1,,,,,,,,,0,,,76,101
11400,note_on,0,0,1,,,,,,,,,0,,,81,101
11400,note_on,0,0,3,,,,,,,,,2,,,57,88
11400,note_on,0,0,1,,,,,,,,,0,,,88,101
11400,note_on,0,0,1,,,,,,,,,0,,,84,101
11412,note_on,0,0,1,,,,,,,,,0,,,81,0
11412,note_on,12,0,3,,,,,,,,,2,,,64,0
11412,note_on,0,0,3,,,,,,,,,2,,,52,0
11412,note_on,0,0,3,,,,,,,,,2,,,57,0
11412,note_on,0,0,3,,,,,,,,,2,,,60,0
11412,note_on,12,0,1,,,,,,,,,0,,,88,0
11412,note_on,0,0,1,,,,,,,,,0,,,76,0
11412,note_on,0,0,1,,,,,,,,,0,,,84,0
11640,note_on,0,0,1,,,,,,,,,0,,,81,101
11640,note_on,0,0,1,,,,,,,,,0,,,83,101
11640,note_on,0,0,1,,,,,,,,,0,,,88,101
11640,note_on,228,0,1,,,,,,,,,0,,,76,101
11640,note_on,0,0,3,,,,,,,,,2,,,64,88
11640,note_on,0,0,3,,,,,,,,,2,,,59,88
11640,note_on,0,0,3,,,,,,,,,2,,,57,88
11640,note_on,228,0,3,,,,,,,,,2,,,52,88
11652,note_on,0,0,1,,,,,,,,,0,,,81,0
11652,note_on,0,0,1,,,,,,,,,0,,,76,0
11652,note_on,12,0,1,,,,,,,,,0,,,88,0
11652,note_on,0,0,3,,,,,,,,,2,,,57,0
11652,note_on,0,0,3,,,,,,,,,2,,,52,0
11652,note_on,12,0,3,,,,,,,,,2,,,64,0
11652,note_on,0,0,1,,,,,,,,,0,,,83,0
11652,note_on,0,0,3,,,,,,,,,2,,,59,0
11880,note_on,0,0,1,,,,,,,,,0,,,88,101
11880,note_on,228,0,1,,,,,,,,,0,,,76,101
11880,note_on,0,0,1,,,,,,,,,0,,,80,101
11880,note_on,0,0,3,,,,,,,,,2,,,64,88
11880,note_on,0,0,3,,,,,,,,,2,,,59,88
11880,note_on,0,0,3,,,,,,,,,2,,,56,88
11880,note_on,228,0,3,,,,,,,,,2,,,52,88
11880,note_on,0,0,1,,,,,,,,,0,,,83,101
11892,note_on,0,0,3,,,,,,,,,2,,,56,0
11892,note_on,0,0,3,,,,,,,,,2,,,52,0
11892,note_on,12,0,3,,,,,,,,,2,,,64,0
11892,note_on,0,0,1,,,,,,,,,0,,,83,0
11892,note_on,0,0,1,,,,,,,,,0,,,80,0
11892,note_on,0,0,1,,,,,,,,,0,,,76,0
11892,note_on,12,0,1,,,,,,,,,0,,,88,0
11892,note_on,0,0,3,,,,,,,,,2,,,59,0
12120,note_on,0,0,4,,,,,,,,,3,,,33,62
12120,note_on,0,0,1,,,,,,,,,0,,,69,101
12120,control_change,7560,0,4,,,,,,,,,3,64,127,,
12120,control_change,228,0,1,,,,,,,,,0,64,127,,
12180,note_on,60,0,1,,,,,,,,,0,,,69,0
12180,note_on,0,0,1,,,,,,,,,0,,,57,101
12180,note_on,60,0,4,,,,,,,,,3,,,33,0
12180,note_on,0,0,4,,,,,,,,,3,,,45,62
12186,note_on,6,0,1,,,,,,,,,0,,,57,0
12240,note_on,54,0,1,,,,,,,,,0,,,57,101
12240,note_on,0,0,4,,,,,,,,,3,,,45,62
12240,note_on,60,0,4,,,,,,,,,3,,,45,0
12246,note_on,6,0,4,,,,,,,,,3,,,45,0
12246,note_on,6,0,1,,,,,,,,,0,,,57,0
12300,note_on,54,0,4,,,,,,,,,3,,,45,62
12300,note_on,54,0,1,,,,,,,,,0,,,57,101
12306,note_on,6,0,4,,,,,,,,,3,,,45,0
12306,note_on,6,0,1,,,,,,,,,0,,,57,0
12360,control_change,54,0,4,,,,,,,,,3,64,0,,
12360,note_on,0,0,4,,,,,,,,,3,,,45,62
12360,control_change,54,0,1,,,,,,,,,0,64,0,,
12360,note_on,0,0,1,,,,,,,,,0,,,57,101
12372,note_on,12,0,1,,,,,,,,,0,,,57,0
12372,note_on,12,0,4,,,,,,,,,3,,,45,0
12480,note_on,0,0,3,,,,,,,,,2,,,59,49
12480,note_on,0,0,3,,,,,,,,,2,,,56,49
12480,note_on,588,0,3,,,,,,,,,2,,,52,49
12480,note_on,108,0,4,,,,,,,,,3,,,40,49
12492,note_on,12,0,4,,,,,,,,,3,,,40,0
12492,note_on,0,0,3,,,,,,,,,2,,,52,0
12492,note_on,0,0,3,,,,,,,,,2,,,56,0
12492,note_on,12,0,3,,,,,,,,,2,,,59,0
12600,note_on,0,0,3,,,,,,,,,2,,,57,49
12600,note_on,108,0,4,,,,,,,,,3,,,45,49
12600,note_on,0,0,3,,,,,,,,,2,,,60,49
12600,note_on,108,0,3,,,,,,,,,2,,,52,49
12612,note_on,12,0,4,,,,,,,,,3,,,45,0
12612,note_on,12,0,3,,,,,,,,,2,,,60,0
12612,note_on,0,0,3,,,,,,,,,2,,,57,0
12612,note_on,0,0,3,,,,,,,,,2,,,52,0
12720,note_on,108,0,3,,,,,,,,,2,,,52,49
12720,note_on,0,0,3,,,,,,,,,2,,,59,49
12720,note_on,108,0,4,,,,,,,,,3,,,40,49
12720,note_on,0,0,3,,,,,,,,,2,,,56,49
12732,note_on,12,0,3,,,,,,,,,2,,,59,0
12732,note_on,0,0,3,,,,,,,,,2,,,56,0
12732,note_on,12,0,4,,,,,,,,,3,,,40,0
12732,note_on,0,0,3,,,,,,,,,2,,,52,0
12840,note_on,108,0,3,,,,,,,,,2,,,52,49
12840,note_on,0,0,3,,,,,,,,,2,,,57,49
12840,note_on,108,0,4,,,,,,,,,3,,,45,49
12840,note_on,0,0,3,,,,,,,,,2,,,60,49
12852,note_on,12,0,4,,,,,,,,,3,,,45,0
12852,note_on,12,0,3,,,,,,,,,2,,,60,0
12852,note_on,0,0,3,,,,,,,,,2,,,57,0
12852,note_on,0,0,3,,,,,,,,,2,,,52,0
12960,note_on,108,0,4,,,,,,,,,3,,,40,49
12960,note_on,0,0,3,,,,,,,,,2,,,59,49
12960,note_on,0,0,3,,,,,,,,,2,,,56,49
12960,note_on,108,0,3,,,,,,,,,2,,,52,49
12972,note_on,0,0,3,,,,,,,,,2,,,52,0
12972,note_on,12,0,4,,,,,,,,,3,,,40,0
12972,note_on,0,0,3,,,,,,,,,2,,,56,0
12972,note_on,12,0,3,,,,,,,,,2,,,59,0
13080,note_on,0,0,1,,,,,,,,,0,,,69,114
13080,control_change,108,0,4,,,,,,,,,3,64,127,,
13080,note_on,0,0,4,,,,,,,,,3,,,33,101
13080,control_change,708,0,1,,,,,,,,,0,64,127,,
13140,note_on,60,0,1,,,,,,,,,0,,,69,0
13140,note_on,0,0,4,,,,,,,,,3,,,45,101
13140,note_on,60,0,4,,,,,,,,,3,,,33,0
13140,note_on,0,0,1,,,,,,,,,0,,,57,114
13146,note_on,6,0,1,,,,,,,,,0,,,57,0
13200,note_on,60,0,4,,,,,,,,,3,,,45,0
13200,note_on,0,0,4,,,,,,,,,3,,,45,101
13200,note_on,54,0,1,,,,,,,,,0,,,57,114
13206,note_on,6,0,1,,,,,,,,,0,,,57,0
13206,note_on,6,0,4,,,,,,,,,3,,,45,0
13260,note_on,54,0,1,,,,,,,,,0,,,57,114
13260,note_on,54,0,4,,,,,,,,,3,,,45,101
13266,note_on,6,0,1,,,,,,,,,0,,,57,0
13266,note_on,6,0,4,,,,,,,,,3,,,45,0
13320,note_on,0,0,4,,,,,,,,,3,,,45,101
13320,control_change,54,0,1,,,,,,,,,0,64,0,,
13320,note_on,0,0,1,,,,,,,,,0,,,57,114
13320,control_change,54,0,4,,,,,,,,,3,64,0,,
13332,note_on,12,0,1,,,,,,,,,0,,,57,0
13332,note_on,12,0,4,,,,,,,,,3,,,45,0
13440,note_on,0,0,3,,,,,,,,,2,,,59,49
13440,note_on,108,0,4,,,,,,,,,3,,,40,49
13440,note_on,468,0,3,,,,,,,,,2,,,52,49
13440,note_on,0,0,3,,,,,,,,,2,,,56,49
13452,note_on,12,0,4,,,,,,,,,3,,,40,0
13452,note_on,0,0,3,,,,,,,,,2,,,52,0
13452,note_on,0,0,3,,,,,,,,,2,,,56,0
13452,note_on,12,0,3,,,,,,,,,2,,,59,0
13560,note_on,108,0,4,,,,,,,,,3,,,45,49
13560,note_on,0,0,3,,,,,,,,,2,,,60,49
13560,note_on,0,0,3,,,,,,,,,2,,,57,49
13560,note_on,108,0,3,,,,,,,,,2,,,52,49
13572,note_on,12,0,4,,,,,,,,,3,,,45,0
13572,note_on,12,0,3,,,,,,,,,2,,,60,0
13572,note_on,0,0,3,,,,,,,,,2,,,57,0
13572,note_on,0,0,3,,,,,,,,,2,,,52,0
13680,note_on,108,0,4,,,,,,,,,3,,,40,49
13680,note_on,108,0,3,,,,,,,,,2,,,52,49
13680,note_on,0,0,3,,,,,,,,,2,,,56,49
13680,note_on,0,0,3,,,,,,,,,2,,,59,49
13692,note_on,0,0,3,,,,,,,,,2,,,52,0
13692,note_on,12,0,4,,,,,,,,,3,,,40,0
13692,note_on,0,0,3,,,,,,,,,2,,,56,0
13692,note_on,12,0,3,,,,,,,,,2,,,59,0
13800,note_on,0,0,3,,,,,,,,,2,,,60,49
13800,note_on,0,0,3,,,,,,,,,2,,,57,49
13800,note_on,108,0,3,,,,,,,,,2,,,52,49
13800,note_on,108,0,4,,,,,,,,,3,,,45,49
13812,note_on,12,0,4,,,,,,,,,3,,,45,0
13812,note_on,0,0,3,,,,,,,,,2,,,57,0
13812,note_on,0,0,3,,,,,,,,,2,,,52,0
13812,note_on,12,0,3,,,,,,,,,2,,,60,0
13920,note_on,108,0,3,,,,,,,,,2,,,56,49
13920,note_on,0,0,3,,,,,,,,,2,,,59,49
13920,note_on,0,0,3,,,,,,,,,2,,,62,49
13920,note_on,108,0,4,,,,,,,,,3,,,40,49
13932,note_on,12,0,4,,,,,,,,,3,,,40,0
13932,note_on,0,0,3,,,,,,,,,2,,,59,0
13932,note_on,0,0,3,,,,,,,,,2,,,56,0
13932,note_on,12,0,3,,,,,,,,,2,,,62,0
14040,note_on,0,0,1,,,,,,,,,0,,,72,114
14040,control_change,708,0,1,,,,,,,,,0,64,127,,
14040,note_on,0,0,4,,,,,,,,,3,,,36,101
14040,control_change,108,0,4,,,,,,,,,3,64,127,,
14100,note_on,0,0,4,,,,,,,,,3,,,48,101
14100,note_on,0,0,1,,,,,,,,,0,,,60,114
14100,note_on,60,0,1,,,,,,,,,0,,,72,0
14100,note_on,60,0,4,,,,,,,,,3,,,36,0
14160,note_on,60,0,4,,,,,,,,,3,,,48,0
14160,note_on,0,0,4,,,,,,,,,3,,,48,101
14160,note_on,0,0,1,,,,,,,,,0,,,60,114
14160,note_on,60,0,1,,,,,,,,,0,,,60,0
14166,note_on,6,0,4,,,,,,,,,3,,,48,0
14166,note_on,6,0,1,,,,,,,,,0,,,60,0
14220,note_on,54,0,4,,,,,,,,,3,,,48,101
14220,note_on,54,0,1,,,,,,,,,0,,,60,114
14226,note_on,6,0,1,,,,,,,,,0,,,60,0
14226,note_on,6,0,4,,,,,,,,,3,,,48,0
14280,control_change,54,0,4,,,,,,,,,3,64,0,,
14280,note_on,0,0,4,,,,,,,,,3,,,48,101
14280,control_change,54,0,1,,,,,,,,,0,64,0,,
14280,note_on,0,0,1,,,,,,,,,0,,,60,114
14292,note_on,12,0,1,,,,,,,,,0,,,60,0
14292,note_on,12,0,4,,,,,,,,,3,,,48,0
14400,note_on,0,0,1,,,,,,,,,0,,,59,49
14400,note_on,0,0,1,,,,,,,,,0,,,62,49
14400,note_on,108,0,4,,,,,,,,,3,,,43,49
14400,note_on,108,0,1,,,,,,,,,0,,,55,49
14412,note_on,12,0,4,,,,,,,,,3,,,43,0
14412,note_on,0,0,1,,,,,,,,,0,,,55,0
14412,note_on,0,0,1,,,,,,,,,0,,,59,0
14412,note_on,12,0,1,,,,,,,,,0,,,62,0
14520,note_on,108,0,4,,,,,,,,,3,,,48,49
14520,note_on,0,0,1,,,,,,,,,0,,,64,49
14520,note_on,0,0,1,,,,,,,,,0,,,60,49
14520,note_on,108,0,1,,,,,,,,,0,,,55,49
14532,note_on,12,0,4,,,,,,,,,3,,,48,0
14532,note_on,12,0,1,,,,,,,,,0,,,64,0
14532,note_on,0,0,1,,,,,,,,,0,,,60,0
14532,note_on,0,0,1,,,,,,,,,0,,,55,0
14640,note_on,0,0,1,,,,,,,,,0,,,62,49
14640,note_on,108,0,1,,,,,,,,,0,,,55,49
14640,note_on,108,0,4,,,,,,,,,3,,,43,49
14640,note_on,0,0,1,,,,,,,,,0,,,59,49
14652,note_on,12,0,4,,,,,,,,,3,,,43,0
14652,note_on,0,0,1,,,,,,,,,0,,,55,0
14652,note_on,12,0,1,,,,,,,,,0,,,62,0
14652,note_on,0,0,1,,,,,,,,,0,,,59,0
14760,note_on,0,0,1,,,,,,,,,0,,,64,49
14760,note_on,0,0,1,,,,,,,,,0,,,60,49
14760,note_on,108,0,1,,,,,,,,,0,,,55,49
14760,note_on,108,0,4,,,,,,,,,3,,,48,49
14772,note_on,0,0,1,,,,,,,,,0,,,55,0
14772,note_on,0,0,1,,,,,,,,,0,,,60,0
14772,note_on,12,0,1,,,,,,,,,0,,,64,0
14772,note_on,12,0,4,,,,,,,,,3,,,48,0
14880,note_on,0,0,1,,,,,,,,,0,,,62,49
14880,note_on,0,0,1,,,,,,,,,0,,,59,49
14880,note_on,108,0,1,,,,,,,,,0,,,55,49
14880,note_on,108,0,4,,,,,,,,,3,,,43,49
14892,note_on,0,0,1,,,,,,,,,0,,,59,0
14892,note_on,12,0,1,,,,,,,,,0,,,62,0
14892,note_on,0,0,1,,,,,,,,,0,,,55,0
14892,note_on,12,0,4,,,,,,,,,3,,,43,0
15000,control_change,108,0,1,,,,,,,,,0,64,127,,
15000,note_on,0,0,1,,,,,,,,,0,,,72,114
15000,control_change,108,0,4,,,,,,,,,3,64,127,,
15000,note_on,0,0,4,,,,,,,,,3,,,36,101
15060,note_on,60,0,1,,,,,,,,,0,,,72,0
15060,note_on,0,0,1,,,,,,,,,0,,,60,114
15060,note_on,60,0,4,,,,,,,,,3,,,36,0
15060,note_on,0,0,4,,,,,,,,,3,,,48,101
15120,note_on,60,0,4,,,,,,,,,3,,,48,0
15120,note_on,0,0,4,,,,,,,,,3,,,48,101
15120,note_on,60,0,1,,,,,,,,,0,,,60,0
15120,note_on,0,0,1,,,,,,,,,0,,,60,114
15126,note_on,6,0,4,,,,,,,,,3,,,48,0
15126,note_on,6,0,1,,,,,,,,,0,,,60,0
15180,note_on,54,0,4,,,,,,,,,3,,,48,101
15180,note_on,54,0,1,,,,,,,,,0,,,60,114
15186,note_on,6,0,4,,,,,,,,,3,,,48,0
15186,note_on,6,0,1,,,,,,,,,0,,,60,0
15240,note_on,54,0,4,,,,,,,,,3,,,48,101
15240,note_on,54,0,1,,,,,,,,,0,,,60,114
15252,note_on,12,0,1,,,,,,,,,0,,,60,0
15252,note_on,12,0,4,,,,,,,,,3,,,48,0
15360,note_on,0,0,1,,,,,,,,,0,,,55,49
15360,note_on,0,0,1,,,,,,,,,0,,,59,49
15360,note_on,0,0,4,,,,,,,,,3,,,43,49
15360,control_change,108,0,1,,,,,,,,,0,64,0,,
15360,control_change,108,0,4,,,,,,,,,3,64,0,,
15360,note_on,0,0,1,,,,,,,,,0,,,62,49
15372,note_on,12,0,4,,,,,,,,,3,,,43,0
15372,note_on,0,0,1,,,,,,,,,0,,,59,0
15372,note_on,0,0,1,,,,,,,,,0,,,55,0
15372,note_on,12,0,1,,,,,,,,,0,,,62,0
15480,note_on,0,0,1,,,,,,,,,0,,,64,49
15480,note_on,108,0,1,,,,,,,,,0,,,55,49
15480,note_on,0,0,1,,,,,,,,,0,,,60,49
15480,note_on,108,0,4,,,,,,,,,3,,,48,49
15492,note_on,12,0,1,,,,,,,,,0,,,64,0
15492,note_on,0,0,1,,,,,,,,,0,,,55,0
15492,note_on,0,0,1,,,,,,,,,0,,,60,0
15492,note_on,12,0,4,,,,,,,,,3,,,48,0
15600,note_on,108,0,4,,,,,,,,,3,,,43,49
15600,note_on,108,0,1,,,,,,,,,0,,,55,49
15600,note_on,0,0,1,,,,,,,,,0,,,59,49
15600,note_on,0,0,1,,,,,,,,,0,,,62,49
15612,note_on,0,0,1,,,,,,,,,0,,,55,0
15612,note_on,0,0,1,,,,,,,,,0,,,59,0
15612,note_on,12,0,1,,,,,,,,,0,,,62,0
15612,note_on,12,0,4,,,,,,,,,3,,,43,0
15720,note_on,108,0,1,,,,,,,,,0,,,55,49
15720,note_on,0,0,1,,,,,,,,,0,,,60,49
15720,note_on,0,0,1,,,,,,,,,0,,,64,49
15720,note_on,108,0,4,,,,,,,,,3,,,48,49
15732,note_on,12,0,1,,,,,,,,,0,,,64,0
15732,note_on,0,0,1,,,,,,,,,0,,,60,0
15732,note_on,0,0,1,,,,,,,,,0,,,55,0
15732,note_on,12,0,4,,,,,,,,,3,,,48,0
15840,note_on,108,0,1,,,,,,,,,0,,,59,49
15840,note_on,0,0,1,,,,,,,,,0,,,63,49
15840,note_on,0,0,1,,,,,,,,,0,,,66,49
15840,note_on,108,0,4,,,,,,,,,3,,,47,49
15852,note_on,0,0,1,,,,,,,,,0,,,63,0
15852,note_on,0,0,1,,,,,,,,,0,,,59,0
15852,note_on,12,0,1,,,,,,,,,0,,,66,0
15852,note_on,12,0,4,,,,,,,,,3,,,47,0
15960,note_on,0,0,1,,,,,,,,,0,,,67,114
15960,note_on,0,0,1,,,,,,,,,0,,,62,114
15960,note_on,0,0,3,,,,,,,,,2,,,35,101
15960,control_change,108,0,1,,,,,,,,,0,64,127,,
15960,note_on,0,0,1,,,,,,,,,0,,,65,114
15960,control_change,2028,0,3,,,,,,,,,2,64,127,,
16020,note_on,0,0,1,,,,,,,,,0,,,62,0
16020,note_on,60,0,3,,,,,,,,,2,,,35,0
16020,note_on,0,0,3,,,,,,,,,2,,,47,101
16020,note_on,60,0,1,,,,,,,,,0,,,67,0
16020,note_on,0,0,1,,,,,,,,,0,,,55,114
16020,note_on,0,0,1,,,,,,,,,0,,,65,0
16080,note_on,60,0,3,,,,,,,,,2,,,47,0
16080,note_on,0,0,3,,,,,,,,,2,,,47,101
16080,note_on,60,0,1,,,,,,,,,0,,,55,0
16080,note_on,0,0,1,,,,,,,,,0,,,62,114
16080,note_on,0,0,1,,,,,,,,,0,,,65,114
16080,note_on,0,0,1,,,,,,,,,0,,,67,114
16086,note_on,6,0,1,,,,,,,,,0,,,67,0
16086,note_on,0,0,1,,,,,,,,,0,,,62,0
16086,note_on,6,0,3,,,,,,,,,2,,,47,0
16086,note_on,0,0,1,,,,,,,,,0,,,65,0
16140,note_on,54,0,1,,,,,,,,,0,,,62,114
16140,note_on,0,0,1,,,,,,,,,0,,,65,114
16140,note_on,0,0,1,,,,,,,,,0,,,67,114
16140,note_on,54,0,3,,,,,,,,,2,,,47,101
16146,note_on,6,0,3,,,,,,,,,2,,,47,0
16146,note_on,6,0,1,,,,,,,,,0,,,67,0
16146,note_on,0,0,1,,,,,,,,,0,,,62,0
16146,note_on,0,0,1,,,,,,,,,0,,,65,0
16200,note_on,0,0,1,,,,,,,,,0,,,62,114
16200,note_on,0,0,1,,,,,,,,,0,,,65,114
16200,note_on,0,0,1,,,,,,,,,0,,,67,114
16200,note_on,0,0,3,,,,,,,,,2,,,47,101
16200,control_change,54,0,3,,,,,,,,,2,64,0,,
16200,control_change,54,0,1,,,,,,,,,0,64,0,,
16212,note_on,12,0,1,,,,,,,,,0,,,67,0
16212,note_on,0,0,1,,,,,,,,,0,,,65,0
16212,note_on,0,0,1,,,,,,,,,0,,,62,0
16212,note_on,12,0,3,,,,,,,,,2,,,47,0
16320,note_on,0,0,1,,,,,,,,,0,,,68,114
16320,note_on,108,0,3,,,,,,,,,2,,,46,101
16320,note_on,108,0,1,,,,,,,,,0,,,62,114
16320,note_on,0,0,1,,,,,,,,,0,,,65,114
16332,note_on,0,0,1,,,,,,,,,0,,,65,0
16332,note_on,12,0,3,,,,,,,,,2,,,46,0
16332,note_on,12,0,1,,,,,,,,,0,,,68,0
16332,note_on,0,0,1,,,,,,,,,0,,,62,0
16440,note_on,0,0,3,,,,,,,,,2,,,35,101
16440,control_change,108,0,3,,,,,,,,,2,64,127,,
16440,note_on,0,0,1,,,,,,,,,0,,,67,114
16440,note_on,0,0,1,,,,,,,,,0,,,65,114
16440,note_on,0,0,1,,,,,,,,,0,,,62,114
16440,control_change,108,0,1,,,,,,,,,0,64,127,,
16500,note_on,0,0,1,,,,,,,,,0,,,55,114
16500,note_on,0,0,1,,,,,,,,,0,,,62,0
16500,note_on,0,0,1,,,,,,,,,0,,,65,0
16500,note_on,60,0,1,,,,,,,,,0,,,67,0
16500,note_on,0,0,3,,,,,,,,,2,,,47,101
16500,note_on,60,0,3,,,,,,,,,2,,,35,0
16560,note_on,0,0,1,,,,,,,,,0,,,67,114
16560,note_on,60,0,3,,,,,,,,,2,,,47,0
16560,note_on,0,0,3,,,,,,,,,2,,,47,101
16560,note_on,60,0,1,,,,,,,,,0,,,55,0
16560,note_on,0,0,1,,,,,,,,,0,,,62,114
16560,note_on,0,0,1,,,,,,,,,0,,,65,114
16566,note_on,6,0,1,,,,,,,,,0,,,67,0
16566,note_on,0,0,1,,,,,,,,,0,,,65,0
16566,note_on,6,0,3,,,,,,,,,2,,,47,0
16566,note_on,0,0,1,,,,,,,,,0,,,62,0
16620,note_on,54,0,3,,,,,,,,,2,,,47,101
16620,note_on,54,0,1,,,,,,,,,0,,,62,114
16620,note_on,0,0,1,,,,,,,,,0,,,65,114
16620,note_on,0,0,1,,,,,,,,,0,,,67,114
16626,note_on,6,0,1,,,,,,,,,0,,,67,0
16626,note_on,0,0,1,,,,,,,,,0,,,65,0
16626,note_on,0,0,1,,,,,,,,,0,,,62,0
16626,note_on,6,0,3,,,,,,,,,2,,,47,0
16680,note_on,0,0,3,,,,,,,,,2,,,47,101
16680,control_change,54,0,1,,,,,,,,,0,64,0,,
16680,note_on,0,0,1,,,,,,,,,0,,,62,114
16680,note_on,0,0,1,,,,,,,,,0,,,65,114
16680,note_on,0,0,1,,,,,,,,,0,,,67,114
16680,control_change,54,0,3,,,,,,,,,2,64,0,,
16692,note_on,0,0,1,,,,,,,,,0,,,62,0
16692,note_on,0,0,1,,,,,,,,,0,,,65,0
16692,note_on,12,0,1,,,,,,,,,0,,,67,0
16692,note_on,12,0,3,,,,,,,,,2,,,47,0
16800,note_on,108,0,1,,,,,,,,,0,,,62,114
16800,note_on,0,0,1,,,,,,,,,0,,,65,114
16800,note_on,0,0,1,,,,,,,,,0,,,68,114
16800,note_on,108,0,3,,,,,,,,,2,,,46,101
16812,note_on,12,0,1,,,,,,,,,0,,,68,0
16812,note_on,0,0,1,,,,,,,,,0,,,65,0
16812,note_on,0,0,1,,,,,,,,,0,,,62,0
16812,note_on,12,0,3,,,,,,,,,2,,,46,0
16920,note_on,108,0,1,,,,,,,,,0,,,62,114
16920,note_on,0,0,1,,,,,,,,,0,,,65,114
16920,note_on,0,0,1,,,,,,,,,0,,,67,114
16920,note_on,108,0,3,,,,,,,,,2,,,47,101
16932,note_on,0,0,1,,,,,,,,,0,,,65,0
16932,note_on,0,0,1,,,,,,,,,0,,,62,0
16932,note_on,12,0,1,,,,,,,,,0,,,67,0
16932,note_on,12,0,3,,,,,,,,,2,,,47,0
17040,note_on,0,0,1,,,,,,,,,0,,,65,114
17040,note_on,108,0,1,,,,,,,,,0,,,62,114
17040,note_on,108,0,3,,,,,,,,,2,,,46,101
17040,note_on,0,0,1,,,,,,,,,0,,,68,114
17052,note_on,0,0,1,,,,,,,,,0,,,65,0
17052,note_on,12,0,3,,,,,,,,,2,,,46,0
17052,note_on,12,0,1,,,,,,,,,0,,,68,0
17052,note_on,0,0,1,,,,,,,,,0,,,62,0
17160,note_on,0,0,1,,,,,,,,,0,,,65,114
17160,note_on,0,0,1,,,,,,,,,0,,,67,114
17160,note_on,108,0,3,,,,,,,,,2,,,47,101
17160,note_on,108,0,1,,,,,,,,,0,,,62,114
17172,note_on,12,0,3,,,,,,,,,2,,,47,0
17172,note_on,0,0,1,,,,,,,,,0,,,65,0
17172,note_on,12,0,1,,,,,,,,,0,,,67,0
17172,note_on,0,0,1,,,,,,,,,0,,,62,0
17280,note_on,108,0,1,,,,,,,,,0,,,62,114
17280,note_on,0,0,1,,,,,,,,,0,,,65,114
17280,note_on,108,0,3,,,,,,,,,2,,,46,101
17280,note_on,0,0,1,,,,,,,,,0,,,68,114
17292,note_on,0,0,1,,,,,,,,,0,,,62,0
17292,note_on,0,0,1,,,,,,,,,0,,,65,0
17292,note_on,12,0,3,,,,,,,,,2,,,46,0
17292,note_on,12,0,1,,,,,,,,,0,,,68,0
17400,note_on,0,0,1,,,,,,,,,0,,,65,114
17400,note_on,108,0,1,,,,,,,,,0,,,62,114
17400,note_on,108,0,3,,,,,,,,,2,,,45,101
17400,note_on,0,0,1,,,,,,,,,0,,,69,114
17412,note_on,12,0,3,,,,,,,,,2,,,45,0
17412,note_on,0,0,1,,,,,,,,,0,,,65,0
17412,note_on,12,0,1,,,,,,,,,0,,,69,0
17412,note_on,0,0,1,,,,,,,,,0,,,62,0
17520,note_on,0,0,1,,,,,,,,,0,,,70,114
17520,note_on,0,0,1,,,,,,,,,0,,,65,114
17520,note_on,108,0,1,,,,,,,,,0,,,62,114
17520,note_on,108,0,3,,,,,,,,,2,,,44,101
17532,note_on,12,0,3,,,,,,,,,2,,,44,0
17532,note_on,12,0,1,,,,,,,,,0,,,70,0
17532,note_on,0,0,1,,,,,,,,,0,,,65,0
17532,note_on,0,0,1,,,,,,,,,0,,,62,0
17640,note_on,108,0,3,,,,,,,,,2,,,43,101
17640,note_on,0,0,1,,,,,,,,,0,,,71,114
17640,note_on,0,0,1,,,,,,,,,0,,,65,114
17640,note_on,108,0,1,,,,,,,,,0,,,62,114
17652,note_on,0,0,1,,,,,,,,,0,,,65,0
17652,note_on,12,0,1,,,,,,,,,0,,,71,0
17652,note_on,0,0,1,,,,,,,,,0,,,62,0
17652,note_on,12,0,3,,,,,,,,,2,,,43,0
17760,note_on,108,0,1,,,,,,,,,0,,,63,114
17760,note_on,0,0,1,,,,,,,,,0,,,72,114
17760,note_on,0,0,1,,,,,,,,,0,,,69,114
17760,note_on,108,0,3,,,,,,,,,2,,,42,101
17772,note_on,12,0,3,,,,,,,,,2,,,42,0
17772,note_on,0,0,1,,,,,,,,,0,,,63,0
17772,note_on,0,0,1,,,,,,,,,0,,,69,0
17772,note_on,12,0,1,,,,,,,,,0,,,72,0
17880,control_change,108,0,3,,,,,,,,,2,64,127,,
17880,note_on,0,0,2,,,,,,,,,1,,,67,101
17880,note_on,0,0,2,,,,,,,,,1,,,64,101
17880,control_change,108,0,1,,,,,,,,,0,64,127,,
17880,control_change,9660,0,2,,,,,,,,,1,64,127,,
17880,note_on,0,0,1,,,,,,,,,0,,,72,114
17880,note_on,0,0,3,,,,,,,,,2,,,31,101
17940,note_on,60,0,1,,,,,,,,,0,,,72,0
17940,note_on,0,0,3,,,,,,,,,2,,,43,101
17940,note_on,60,0,3,,,,,,,,,2,,,31,0
17940,note_on,0,0,1,,,,,,,,,0,,,76,114
18000,note_on,60,0,1,,,,,,,,,0,,,76,0
18000,note_on,0,0,3,,,,,,,,,2,,,43,101
18000,note_on,60,0,3,,,,,,,,,2,,,43,0
18000,note_on,0,0,1,,,,,,,,,0,,,72,114
18000,note_on,0,0,1,,,,,,,,,0,,,76,114
18000,note_on,120,0,2,,,,,,,,,1,,,67,0
18000,note_on,0,0,2,,,,,,,,,1,,,67,101
18000,note_on,0,0,2,,,,,,,,,1,,,64,101
18000,note_on,0,0,2,,,,,,,,,1,,,64,0
18006,note_on,6,0,3,,,,,,,,,2,,,43,0
18006,note_on,0,0,2,,,,,,,,,1,,,64,0
18006,note_on,6,0,1,,,,,,,,,0,,,76,0
18006,note_on,0,0,1,,,,,,,,,0,,,72,0
18006,note_on,6,0,2,,,,,,,,,1,,,67,0
18060,note_on,54,0,3,,,,,,,,,2,,,43,101
18060,note_on,0,0,1,,,,,,,,,0,,,76,114
18060,note_on,54,0,2,,,,,,,,,1,,,64,101
18060,note_on,0,0,2,,,,,,,,,1,,,67,101
18060,note_on,54,0,1,,,,,,,,,0,,,72,114
18066,note_on,6,0,2,,,,,,,,,1,,,67,0
18066,note_on,0,0,2,,,,,,,,,1,,,64,0
18066,note_on,6,0,1,,,,,,,,,0,,,76,0
18066,note_on,0,0,1,,,,,,,,,0,,,72,0
18066,note_on,6,0,3,,,,,,,,,2,,,43,0
18120,note_on,0,0,3,,,,,,,,,2,,,43,101
18120,control_change,54,0,1,,,,,,,,,0,64,0,,
18120,note_on,0,0,1,,,,,,,,,0,,,72,114
18120,note_on,0,0,1,,,,,,,,,0,,,76,114
18120,control_change,54,0,3,,,,,,,,,2,64,0,,
18120,control_change,54,0,2,,,,,,,,,1,64,0,,
18120,note_on,0,0,2,,,,,,,,,1,,,64,101
18120,note_on,0,0,2,,,,,,,,,1,,,67,101
18132,note_on,12,0,3,,,,,,,,,2,,,43,0
18132,note_on,0,0,1,,,,,,,,,0,,,72,0
18132,note_on,12,0,1,,,,,,,,,0,,,76,0
18132,note_on,12,0,2,,,,,,,,,1,,,67,0
18132,note_on,0,0,2,,,,,,,,,1,,,64,0
18240,note_on,108,0,2,,,,,,,,,1,,,69,101
18240,note_on,108,0,3,,,,,,,,,2,,,43,101
18240,note_on,0,0,2,,,,,,,,,1,,,72,101
18240,note_on,0,0,1,,,,,,,,,0,,,77,114
18240,note_on,108,0,1,,,,,,,,,0,,,76,114
18252,note_on,0,0,1,,,,,,,,,0,,,76,0
18252,note_on,12,0,3,,,,,,,,,2,,,43,0
18252,note_on,0,0,2,,,,,,,,,1,,,69,0
18252,note_on,12,0,1,,,,,,,,,0,,,77,0
18252,note_on,12,0,2,,,,,,,,,1,,,72,0
18360,control_change,108,0,3,,,,,,,,,2,64,127,,
18360,note_on,0,0,3,,,,,,,,,2,,,43,101
18360,note_on,0,0,1,,,,,,,,,0,,,81,114
18360,note_on,0,0,2,,,,,,,,,1,,,74,101
18360,note_on,0,0,2,,,,,,,,,1,,,71,101
18360,note_on,0,0,2,,,,,,,,,1,,,77,101
18360,control_change,108,0,2,,,,,,,,,1,64,127,,
18360,control_change,108,0,1,,,,,,,,,0,64,127,,
18360,note_on,0,0,3,,,,,,,,,2,,,55,101
18420,note_on,60,0,1,,,,,,,,,0,,,81,0
18420,note_on,0,0,1,,,,,,,,,0,,,79,114
18480,note_on,60,0,1,,,,,,,,,0,,,79,0
18480,note_on,0,0,3,,,,,,,,,2,,,43,0
18480,note_on,120,0,3,,,,,,,,,2,,,55,0
18480,note_on,0,0,3,,,,,,,,,2,,,65,101
18480,note_on,0,0,3,,,,,,,,,2,,,55,101
18480,note_on,0,0,2,,,,,,,,,1,,,77,101
18480,note_on,0,0,3,,,,,,,,,2,,,62,101
18480,note_on,0,0,2,,,,,,,,,1,,,71,101
18480,note_on,0,0,2,,,,,,,,,1,,,74,101
18480,note_on,0,0,2,,,,,,,,,1,,,74,0
18480,note_on,0,0,2,,,,,,,,,1,,,71,0
18480,note_on,0,0,1,,,,,,,,,0,,,79,114
18480,note_on,120,0,2,,,,,,,,,1,,,77,0
18486,note_on,6,0,1,,,,,,,,,0,,,79,0
18486,note_on,0,0,2,,,,,,,,,1,,,71,0
18486,note_on,0,0,2,,,,,,,,,1,,,74,0
18486,note_on,6,0,3,,,,,,,,,2,,,65,0
18486,note_on,0,0,3,,,,,,,,,2,,,62,0
18486,note_on,6,0,2,,,,,,,,,1,,,77,0
18486,note_on,0,0,3,,,,,,,,,2,,,55,0
18540,note_on,0,0,2,,,,,,,,,1,,,77,101
18540,note_on,54,0,2,,,,,,,,,1,,,71,101
18540,note_on,0,0,3,,,,,,,,,2,,,62,101
18540,note_on,54,0,1,,,,,,,,,0,,,79,114
18540,note_on,54,0,3,,,,,,,,,2,,,55,101
18540,note_on,0,0,2,,,,,,,,,1,,,74,101
18540,note_on,0,0,3,,,,,,,,,2,,,65,101
18546,note_on,6,0,1,,,,,,,,,0,,,79,0
18546,note_on,0,0,3,,,,,,,,,2,,,62,0
18546,note_on,0,0,3,,,,,,,,,2,,,55,0
18546,note_on,0,0,2,,,,,,,,,1,,,71,0
18546,note_on,0,0,2,,,,,,,,,1,,,74,0
18546,note_on,6,0,2,,,,,,,,,1,,,77,0
18546,note_on,6,0,3,,,,,,,,,2,,,65,0
18600,control_change,54,0,3,,,,,,,,,2,64,0,,
18600,note_on,0,0,3,,,,,,,,,2,,,65,101
18600,note_on,0,0,3,,,,,,,,,2,,,62,101
18600,note_on,0,0,3,,,,,,,,,2,,,55,101
18600,control_change,54,0,2,,,,,,,,,1,64,0,,
18600,note_on,0,0,2,,,,,,,,,1,,,74,101
18600,note_on,0,0,1,,,,,,,,,0,,,79,114
18600,control_change,54,0,1,,,,,,,,,0,64,0,,
18600,note_on,0,0,2,,,,,,,,,1,,,71,101
18600,note_on,0,0,2,,,,,,,,,1,,,77,101
18612,note_on,12,0,1,,,,,,,,,0,,,79,0
18612,note_on,0,0,2,,,,,,,,,1,,,71,0
18612,note_on,0,0,3,,,,,,,,,2,,,62,0
18612,note_on,0,0,3,,,,,,,,,2,,,55,0
18612,note_on,0,0,2,,,,,,,,,1,,,74,0
18612,note_on,12,0,3,,,,,,,,,2,,,65,0
18612,note_on,12,0,2,,,,,,,,,1,,,77,0
18720,note_on,0,0,1,,,,,,,,,0,,,79,114
18720,note_on,0,0,1,,,,,,,,,0,,,74,114
18720,note_on,0,0,1,,,,,,,,,0,,,71,114
18720,note_on,108,0,1,,,,,,,,,0,,,67,114
18720,note_on,0,0,3,,,,,,,,,2,,,65,101
18720,note_on,0,0,3,,,,,,,,,2,,,62,101
18720,note_on,108,0,3,,,,,,,,,2,,,55,101
18732,note_on,0,0,1,,,,,,,,,0,,,74,0
18732,note_on,0,0,1,,,,,,,,,0,,,71,0
18732,note_on,0,0,1,,,,,,,,,0,,,67,0
18732,note_on,12,0,1,,,,,,,,,0,,,79,0
18732,note_on,12,0,3,,,,,,,,,2,,,65,0
18732,note_on,0,0,3,,,,,,,,,2,,,55,0
18732,note_on,0,0,3,,,,,,,,,2,,,62,0
18840,note_on,108,0,3,,,,,,,,,2,,,48,75
18840,note_on,108,0,1,,,,,,,,,0,,,79,88
18900,note_on,60,0,1,,,,,,,,,0,,,79,0
18900,note_on,0,0,1,,,,,,,,,0,,,67,49
18960,note_on,0,0,3,,,,,,,,,2,,,64,36
18960,note_on,0,0,3,,,,,,,,,2,,,55,36
18960,note_on,120,0,3,,,,,,,,,2,,,48,0
18960,note_on,60,0,1,,,,,,,,,0,,,67,0
18960,note_on,0,0,1,,,,,,,,,0,,,67,49
18966,note_on,0,0,3,,,,,,,,,2,,,55,0
18966,note_on,6,0,3,,,,,,,,,2,,,64,0
18966,note_on,6,0,1,,,,,,,,,0,,,67,0
19020,note_on,54,0,1,,,,,,,,,0,,,67,49
19020,note_on,0,0,3,,,,,,,,,2,,,64,36
19020,note_on,54,0,3,,,,,,,,,2,,,55,36
19026,note_on,6,0,1,,,,,,,,,0,,,67,0
19026,note_on,6,0,3,,,,,,,,,2,,,64,0
19026,note_on,0,0,3,,,,,,,,,2,,,55,0
19080,note_on,54,0,1,,,,,,,,,0,,,67,49
19080,note_on,54,0,3,,,,,,,,,2,,,55,36
19080,note_on,0,0,3,,,,,,,,,2,,,64,36
19086,note_on,6,0,1,,,,,,,,,0,,,67,0
19092,note_on,0,0,3,,,,,,,,,2,,,55,0
19092,note_on,12,0,3,,,,,,,,,2,,,64,0
19140,note_on,54,0,1,,,,,,,,,0,,,67,49
19146,note_on,6,0,1,,,,,,,,,0,,,67,0
19200,note_on,0,0,3,,,,,,,,,2,,,65,36
19200,note_on,108,0,3,,,,,,,,,2,,,55,36
19200,note_on,54,0,1,,,,,,,,,0,,,71,49
19260,note_on,0,0,1,,,,,,,,,0,,,74,49
19260,note_on,60,0,1,,,,,,,,,0,,,71,0
19320,note_on,120,0,3,,,,,,,,,2,,,65,0
19320,note_on,0,0,3,,,,,,,,,2,,,55,0
19320,note_on,0,0,3,,,,,,,,,2,,,64,36
19320,note_on,0,0,3,,,,,,,,,2,,,55,36
19320,note_on,0,0,1,,,,,,,,,0,,,72,49
19320,note_on,60,0,1,,,,,,,,,0,,,74,0
19380,note_on,60,0,1,,,,,,,,,0,,,72,0
19380,note_on,0,0,1,,,,,,,,,0,,,67,49
19440,note_on,0,0,3,,,,,,,,,2,,,55,36
19440,note_on,120,0,3,,,,,,,,,2,,,64,0
19440,note_on,60,0,1,,,,,,,,,0,,,67,0
19440,note_on,0,0,1,,,,,,,,,0,,,71,49
19440,note_on,0,0,3,,,,,,,,,2,,,55,0
19440,note_on,0,0,3,,,,,,,,,2,,,65,36
19500,note_on,0,0,1,,,,,,,,,0,,,74,49
19500,note_on,60,0,1,,,,,,,,,0,,,71,0
19560,note_on,60,0,1,,,,,,,,,0,,,74,0
19560,note_on,0,0,3,,,,,,,,,2,,,64,36
19560,note_on,0,0,3,,,,,,,,,2,,,55,36
19560,note_on,0,0,3,,,,,,,,,2,,,55,0
19560,note_on,120,0,3,,,,,,,,,2,,,65,0
19560,note_on,0,0,1,,,,,,,,,0,,,72,49
19620,note_on,60,0,1,,,,,,,,,0,,,72,0
19620,note_on,0,0,1,,,,,,,,,0,,,67,49
19680,note_on,120,0,3,,,,,,,,,2,,,64,0
19680,note_on,0,0,3,,,,,,,,,2,,,55,36
19680,note_on,0,0,3,,,,,,,,,2,,,65,36
19680,note_on,60,0,1,,,,,,,,,0,,,67,0
19680,note_on,0,0,1,,,,,,,,,0,,,71,49
19680,note_on,0,0,3,,,,,,,,,2,,,55,0
19740,note_on,60,0,1,,,,,,,,,0,,,71,0
19740,note_on,0,0,1,,,,,,,,,0,,,74,49
19800,note_on,60,0,1,,,,,,,,,0,,,74,0
19800,note_on,120,0,3,,,,,,,,,2,,,65,0
19800,note_on,0,0,1,,,,,,,,,0,,,72,49
19800,note_on,0,0,3,,,,,,,,,2,,,48,36
19800,note_on,0,0,3,,,,,,,,,2,,,55,0
19860,note_on,60,0,1,,,,,,,,,0,,,72,0
19860,note_on,0,0,1,,,,,,,,,0,,,67,49
19920,note_on,60,0,1,,,,,,,,,0,,,67,0
19920,note_on,0,0,1,,,,,,,,,0,,,72,49
19920,note_on,0,0,3,,,,,,,,,2,,,64,49
19920,note_on,0,0,3,,,,,,,,,2,,,55,49
19920,note_on,120,0,3,,,,,,,,,2,,,48,0
19926,note_on,6,0,3,,,,,,,,,2,,,64,0
19926,note_on,0,0,3,,,,,,,,,2,,,55,0
19980,note_on,0,0,1,,,,,,,,,0,,,76,49
19980,note_on,60,0,1,,,,,,,,,0,,,72,0
19980,note_on,0,0,3,,,,,,,,,2,,,64,49
19980,note_on,54,0,3,,,,,,,,,2,,,55,49
19986,note_on,0,0,3,,,,,,,,,2,,,55,0
19986,note_on,6,0,3,,,,,,,,,2,,,64,0
20040,note_on,0,0,1,,,,,,,,,0,,,79,75
20040,note_on,60,0,1,,,,,,,,,0,,,76,0
20040,note_on,54,0,3,,,,,,,,,2,,,55,49
20040,note_on,0,0,3,,,,,,,,,2,,,64,49
20052,note_on,0,0,3,,,,,,,,,2,,,55,0
20052,note_on,12,0,3,,,,,,,,,2,,,64,0
20100,note_on,0,0,1,,,,,,,,,0,,,84,75
20100,note_on,60,0,1,,,,,,,,,0,,,79,0
20160,note_on,60,0,1,,,,,,,,,0,,,84,0
20160,note_on,0,0,1,,,,,,,,,0,,,88,75
20220,note_on,60,0,1,,,,,,,,,0,,,88,0
20220,note_on,0,0,1,,,,,,,,,0,,,91,75
20280,note_on,228,0,3,,,,,,,,,2,,,36,49
20280,note_on,0,0,3,,,,,,,,,2,,,48,49
20280,note_on,60,0,1,,,,,,,,,0,,,91,0
20280,note_on,0,0,1,,,,,,,,,0,,,91,75
20340,note_on,0,0,1,,,,,,,,,0,,,79,75
20340,note_on,60,0,1,,,,,,,,,0,,,91,0
20400,note_on,0,0,1,,,,,,,,,0,,,92,75
20400,note_on,0,0,3,,,,,,,,,2,,,46,49
20400,note_on,0,0,3,,,,,,,,,2,,,34,49
20400,note_on,0,0,3,,,,,,,,,2,,,36,0
20400,note_on,120,0,3,,,,,,,,,2,,,48,0
20400,note_on,60,0,1,,,,,,,,,0,,,79,0
20460,note_on,0,0,1,,,,,,,,,0,,,80,75
20460,note_on,60,0,1,,,,,,,,,0,,,92,0
20520,note_on,120,0,3,,,,,,,,,2,,,46,0
20520,note_on,0,0,3,,,,,,,,,2,,,34,0
20520,note_on,0,0,3,,,,,,,,,2,,,33,75
20520,note_on,0,0,3,,,,,,,,,2,,,45,75
20520,note_on,60,0,1,,,,,,,,,0,,,80,0
20520,note_on,0,0,1,,,,,,,,,0,,,93,88
20580,note_on,60,0,1,,,,,,,,,0,,,93,0
20580,note_on,0,0,1,,,,,,,,,0,,,81,88
20640,note_on,60,0,1,,,,,,,,,0,,,81,0
20640,note_on,0,0,1,,,,,,,,,0,,,93,88
20640,note_on,0,0,3,,,,,,,,,2,,,61,75
20640,note_on,0,0,3,,,,,,,,,2,,,67,75
20640,note_on,0,0,3,,,,,,,,,2,,,57,75
20640,note_on,0,0,3,,,,,,,,,2,,,33,0
20640,note_on,120,0,3,,,,,,,,,2,,,45,0
20700,note_on,60,0,1,,,,,,,,,0,,,93,0
20700,note_on,0,0,1,,,,,,,,,0,,,81,88
20760,note_on,0,0,3,,,,,,,,,2,,,50,75
20760,note_on,0,0,3,,,,,,,,,2,,,57,0
20760,note_on,0,0,3,,,,,,,,,2,,,61,0
20760,note_on,60,0,1,,,,,,,,,0,,,81,0
20760,note_on,120,0,3,,,,,,,,,2,,,67,0
20760,note_on,0,0,1,,,,,,,,,0,,,81,88
20820,note_on,60,0,1,,,,,,,,,0,,,81,0
20820,note_on,0,0,1,,,,,,,,,0,,,69,49
20880,note_on,0,0,3,,,,,,,,,2,,,65,36
20880,note_on,0,0,1,,,,,,,,,0,,,69,49
20880,note_on,60,0,1,,,,,,,,,0,,,69,0
20880,note_on,120,0,3,,,,,,,,,2,,,50,0
20880,note_on,0,0,3,,,,,,,,,2,,,57,36
20886,note_on,6,0,1,,,,,,,,,0,,,69,0
20886,note_on,6,0,3,,,,,,,,,2,,,65,0
20886,note_on,0,0,3,,,,,,,,,2,,,57,0
20940,note_on,54,0,3,,,,,,,,,2,,,57,36
20940,note_on,0,0,3,,,,,,,,,2,,,65,36
20940,note_on,54,0,1,,,,,,,,,0,,,69,49
20946,note_on,6,0,3,,,,,,,,,2,,,65,0
20946,note_on,0,0,3,,,,,,,,,2,,,57,0
20946,note_on,6,0,1,,,,,,,,,0,,,69,0
21000,note_on,54,0,3,,,,,,,,,2,,,57,36
21000,note_on,0,0,3,,,,,,,,,2,,,65,36
21000,note_on,54,0,1,,,,,,,,,0,,,69,49
21006,note_on,6,0,1,,,,,,,,,0,,,69,0
21012,note_on,12,0,3,,,,,,,,,2,,,65,0
21012,note_on,0,0,3,,,,,,,,,2,,,57,0
21060,note_on,54,0,1,,,,,,,,,0,,,69,49
21066,note_on,6,0,1,,,,,,,,,0,,,69,0
21120,note_on,54,0,1,,,,,,,,,0,,,73,49
21120,note_on,108,0,3,,,,,,,,,2,,,57,36
21120,note_on,0,0,3,,,,,,,,,2,,,67,36
21180,note_on,0,0,1,,,,,,,,,0,,,76,49
21180,note_on,60,0,1,,,,,,,,,0,,,73,0
21240,note_on,120,0,3,,,,,,,,,2,,,67,0
21240,note_on,0,0,3,,,,,,,,,2,,,65,36
21240,note_on,0,0,3,,,,,,,,,2,,,57,0
21240,note_on,0,0,3,,,,,,,,,2,,,57,36
21240,note_on,0,0,1,,,,,,,,,0,,,74,49
21240,note_on,60,0,1,,,,,,,,,0,,,76,0
21300,note_on,0,0,1,,,,,,,,,0,,,69,49
21300,note_on,60,0,1,,,,,,,,,0,,,74,0
21360,note_on,0,0,1,,,,,,,,,0,,,73,49
21360,note_on,60,0,1,,,,,,,,,0,,,69,0
21360,note_on,0,0,3,,,,,,,,,2,,,57,0
21360,note_on,0,0,3,,,,,,,,,2,,,57,36
21360,note_on,0,0,3,,,,,,,,,2,,,67,36
21360,note_on,120,0,3,,,,,,,,,2,,,65,0
21420,note_on,0,0,1,,,,,,,,,0,,,76,49
21420,note_on,60,0,1,,,,,,,,,0,,,73,0
21480,note_on,0,0,3,,,,,,,,,2,,,57,0
21480,note_on,0,0,3,,,,,,,,,2,,,57,36
21480,note_on,0,0,3,,,,,,,,,2,,,65,36
21480,note_on,120,0,3,,,,,,,,,2,,,67,0
21480,note_on,60,0,1,,,,,,,,,0,,,76,0
21480,note_on,0,0,1,,,,,,,,,0,,,74,49
21540,note_on,60,0,1,,,,,,,,,0,,,74,0
21540,note_on,0,0,1,,,,,,,,,0,,,69,49
21600,note_on,0,0,3,,,,,,,,,2,,,67,36
21600,note_on,0,0,3,,,,,,,,,2,,,57,36
21600,note_on,0,0,3,,,,,,,,,2,,,57,0
21600,note_on,120,0,3,,,,,,,,,2,,,65,0
21600,note_on,60,0,1,,,,,,,,,0,,,69,0
21600,note_on,0,0,1,,,,,,,,,0,,,73,49
21660,note_on,0,0,1,,,,,,,,,0,,,76,49
21660,note_on,60,0,1,,,,,,,,,0,,,73,0
21720,note_on,60,0,1,,,,,,,,,0,,,76,0
21720,note_on,0,0,3,,,,,,,,,2,,,50,36
21720,control_change,0,0,3,,,,,,,,,2,64,127,,
21720,note_on,0,0,3,,,,,,,,,2,,,57,0
21720,note_on,120,0,3,,,,,,,,,2,,,67,0
21720,note_on,0,0,1,,,,,,,,,0,,,74,49
21720,control_change,0,0,1,,,,,,,,,0,64,127,,
21780,note_on,60,0,1,,,,,,,,,0,,,74,0
21780,note_on,0,0,1,,,,,,,,,0,,,69,49
21840,note_on,0,0,3,,,,,,,,,2,,,65,49
21840,note_on,120,0,3,,,,,,,,,2,,,50,0
21840,note_on,0,0,3,,,,,,,,,2,,,57,49
21840,note_on,0,0,1,,,,,,,,,0,,,74,49
21840,note_on,60,0,1,,,,,,,,,0,,,69,0
21846,note_on,6,0,3,,,,,,,,,2,,,65,0
21846,note_on,0,0,3,,,,,,,,,2,,,57,0
21900,note_on,60,0,1,,,,,,,,,0,,,74,0
21900,note_on,0,0,3,,,,,,,,,2,,,65,49
21900,note_on,0,0,1,,,,,,,,,0,,,77,49
21900,note_on,54,0,3,,,,,,,,,2,,,57,49
21906,note_on,0,0,3,,,,,,,,,2,,,57,0
21906,note_on,6,0,3,,,,,,,,,2,,,65,0
21960,note_on,54,0,3,,,,,,,,,2,,,57,62
21960,note_on,0,0,3,,,,,,,,,2,,,65,62
21960,note_on,60,0,1,,,,,,,,,0,,,77,0
21960,note_on,0,0,1,,,,,,,,,0,,,81,75
21972,note_on,12,0,3,,,,,,,,,2,,,65,0
21972,note_on,0,0,3,,,,,,,,,2,,,57,0
22020,note_on,60,0,1,,,,,,,,,0,,,81,0
22020,note_on,0,0,1,,,,,,,,,0,,,86,75
22080,note_on,60,0,1,,,,,,,,,0,,,86,0
22080,note_on,0,0,1,,,,,,,,,0,,,89,75
22140,note_on,60,0,1,,,,,,,,,0,,,89,0
22140,note_on,0,0,1,,,,,,,,,0,,,93,75
22200,note_on,0,0,3,,,,,,,,,2,,,50,62
22200,note_on,60,0,1,,,,,,,,,0,,,93,0
22200,note_on,0,0,1,,,,,,,,,0,,,93,75
22200,note_on,228,0,3,,,,,,,,,2,,,38,62
22260,note_on,60,0,1,,,,,,,,,0,,,93,0
22260,note_on,0,0,1,,,,,,,,,0,,,81,75
22320,note_on,120,0,3,,,,,,,,,2,,,50,0
22320,note_on,0,0,3,,,,,,,,,2,,,48,62
22320,note_on,0,0,3,,,,,,,,,2,,,36,62
22320,note_on,0,0,3,,,,,,,,,2,,,38,0
22320,note_on,60,0,1,,,,,,,,,0,,,81,0
22320,note_on,0,0,1,,,,,,,,,0,,,93,75
22380,note_on,60,0,1,,,,,,,,,0,,,93,0
22380,note_on,0,0,1,,,,,,,,,0,,,81,75
22440,control_change,0,0,1,,,,,,,,,0,64,0,,
22440,note_on,0,0,3,,,,,,,,,2,,,46,62
22440,note_on,0,0,3,,,,,,,,,2,,,34,62
22440,control_change,0,0,3,,,,,,,,,2,64,0,,
22440,note_on,60,0,1,,,,,,,,,0,,,81,0
22440,note_on,120,0,3,,,,,,,,,2,,,48,0
22440,note_on,0,0,3,,,,,,,,,2,,,36,0
22440,note_on,0,0,1,,,,,,,,,0,,,94,75
22500,note_on,0,0,1,,,,,,,,,0,,,82,75
22500,note_on,60,0,1,,,,,,,,,0,,,94,0
22560,note_on,0,0,1,,,,,,,,,0,,,94,75
22560,note_on,120,0,3,,,,,,,,,2,,,46,0
22560,note_on,60,0,1,,,,,,,,,0,,,82,0
22560,note_on,0,0,3,,,,,,,,,2,,,32,62
22560,note_on,0,0,3,,,,,,,,,2,,,34,0
22560,note_on,0,0,3,,,,,,,,,2,,,44,62
22620,note_on,0,0,1,,,,,,,,,0,,,82,75
22620,note_on,60,0,1,,,,,,,,,0,,,94,0
22680,note_on,120,0,3,,,,,,,,,2,,,44,0
22680,note_on,0,0,3,,,,,,,,,2,,,32,0
22680,note_on,0,0,1,,,,,,,,,0,,,95,88
22680,control_change,0,0,3,,,,,,,,,2,64,127,,
22680,note_on,0,0,3,,,,,,,,,2,,,31,75
22680,note_on,60,0,1,,,,,,,,,0,,,82,0
22680,note_on,0,0,3,,,,,,,,,2,,,43,75
22680,control_change,0,0,1,,,,,,,,,0,64,127,,
22740,note_on,60,0,1,,,,,,,,,0,,,95,0
22740,note_on,0,0,1,,,,,,,,,0,,,83,88
22800,note_on,0,0,3,,,,,,,,,2,,,55,75
22800,note_on,0,0,3,,,,,,,,,2,,,65,75
22800,note_on,0,0,3,,,,,,,,,2,,,62,75
22800,note_on,0,0,3,,,,,,,,,2,,,31,0
22800,note_on,120,0,3,,,,,,,,,2,,,43,0
22800,note_on,0,0,1,,,,,,,,,0,,,71,88
22800,note_on,60,0,1,,,,,,,,,0,,,83,0
22800,note_on,0,0,1,,,,,,,,,0,,,83,88
22800,note_on,0,0,1,,,,,,,,,0,,,77,88
22806,note_on,0,0,3,,,,,,,,,2,,,55,0
22806,note_on,6,0,1,,,,,,,,,0,,,83,0
22806,note_on,0,0,1,,,,,,,,,0,,,77,0
22806,note_on,0,0,1,,,,,,,,,0,,,71,0
22806,note_on,6,0,3,,,,,,,,,2,,,65,0
22806,note_on,0,0,3,,,,,,,,,2,,,62,0
22860,note_on,0,0,3,,,,,,,,,2,,,65,75
22860,note_on,0,0,3,,,,,,,,,2,,,62,75
22860,note_on,0,0,1,,,,,,,,,0,,,77,88
22860,note_on,0,0,1,,,,,,,,,0,,,83,88
22860,note_on,54,0,1,,,,,,,,,0,,,71,88
22860,note_on,54,0,3,,,,,,,,,2,,,55,75
22866,note_on,6,0,3,,,,,,,,,2,,,65,0
22866,note_on,0,0,3,,,,,,,,,2,,,55,0
22866,note_on,0,0,3,,,,,,,,,2,,,62,0
22866,note_on,6,0,1,,,,,,,,,0,,,83,0
22866,note_on,0,0,1,,,,,,,,,0,,,77,0
22866,note_on,0,0,1,,,,,,,,,0,,,71,0
22920,control_change,54,0,1,,,,,,,,,0,64,0,,
22920,note_on,0,0,1,,,,,,,,,0,,,71,88
22920,note_on,0,0,1,,,,,,,,,0,,,83,88
22920,note_on,0,0,1,,,,,,,,,0,,,77,88
22920,control_change,54,0,3,,,,,,,,,2,64,0,,
22920,note_on,0,0,3,,,,,,,,,2,,,55,75
22920,note_on,0,0,3,,,,,,,,,2,,,62,75
22920,note_on,0,0,3,,,,,,,,,2,,,65,75
22932,note_on,12,0,3,,,,,,,,,2,,,65,0
22932,note_on,12,0,1,,,,,,,,,0,,,83,0
22932,note_on,0,0,1,,,,,,,,,0,,,71,0
22932,note_on,0,0,3,,,,,,,,,2,,,62,0
22932,note_on,0,0,3,,,,,,,,,2,,,55,0
22932,note_on,0,0,1,,,,,,,,,0,,,77,0
23040,note_on,0,0,1,,,,,,,,,0,,,77,114
23040,note_on,0,0,1,,,,,,,,,0,,,83,114
23040,note_on,0,0,3,,,,,,,,,2,,,65,101
23040,note_on,0,0,3,,,,,,,,,2,,,62,101
23040,note_on,108,0,3,,,,,,,,,2,,,56,101
23040,note_on,108,0,1,,,,,,,,,0,,,71,114
23052,note_on,12,0,1,,,,,,,,,0,,,83,0
23052,note_on,0,0,1,,,,,,,,,0,,,71,0
23052,note_on,0,0,3,,,,,,,,,2,,,56,0
23052,note_on,0,0,1,,,,,,,,,0,,,77,0
23052,note_on,12,0,3,,,,,,,,,2,,,65,0
23052,note_on,0,0,3,,,,,,,,,2,,,62,0
23160,control_change,108,0,1,,,,,,,,,0,64,127,,
23160,note_on,0,0,1,,,,,,,,,0,,,72,114
23160,note_on,0,0,1,,,,,,,,,0,,,84,114
23160,note_on,0,0,3,,,,,,,,,2,,,57,101
23160,note_on,0,0,3,,,,,,,,,2,,,45,101
23160,control_change,108,0,3,,,,,,,,,2,64,127,,
23220,note_on,60,0,1,,,,,,,,,0,,,84,0
23220,note_on,0,0,1,,,,,,,,,0,,,72,0
23220,note_on,0,0,1,,,,,,,,,0,,,76,114
23280,note_on,0,0,3,,,,,,,,,2,,,45,0
23280,note_on,0,0,1,,,,,,,,,0,,,72,114
23280,note_on,120,0,3,,,,,,,,,2,,,57,0
23280,note_on,0,0,3,,,,,,,,,2,,,64,101
23280,note_on,0,0,3,,,,,,,,,2,,,60,101
23280,note_on,0,0,3,,,,,,,,,2,,,57,101
23280,note_on,60,0,1,,,,,,,,,0,,,76,0
23280,note_on,0,0,1,,,,,,,,,0,,,76,114
23286,note_on,6,0,1,,,,,,,,,0,,,76,0
23286,note_on,0,0,3,,,,,,,,,2,,,57,0
23286,note_on,0,0,3,,,,,,,,,2,,,60,0
23286,note_on,6,0,3,,,,,,,,,2,,,64,0
23286,note_on,0,0,1,,,,,,,,,0,,,72,0
23340,note_on,0,0,1,,,,,,,,,0,,,76,114
23340,note_on,0,0,1,,,,,,,,,0,,,72,114
23340,control_change,54,0,3,,,,,,,,,2,64,0,,
23340,note_on,0,0,3,,,,,,,,,2,,,57,101
23340,note_on,0,0,3,,,,,,,,,2,,,60,101
23340,note_on,0,0,3,,,,,,,,,2,,,64,101
23340,control_change,54,0,1,,,,,,,,,0,64,0,,
23346,note_on,0,0,3,,,,,,,,,2,,,57,0
23346,note_on,6,0,1,,,,,,,,,0,,,76,0
23346,note_on,6,0,3,,,,,,,,,2,,,64,0
23346,note_on,0,0,1,,,,,,,,,0,,,72,0
23346,note_on,0,0,3,,,,,,,,,2,,,60,0
23400,note_on,0,0,1,,,,,,,,,0,,,76,114
23400,note_on,54,0,3,,,,,,,,,2,,,57,101
23400,note_on,0,0,3,,,,,,,,,2,,,60,101
23400,note_on,0,0,3,,,,,,,,,2,,,64,101
23400,note_on,54,0,1,,,,,,,,,0,,,72,114
23412,note_on,12,0,3,,,,,,,,,2,,,64,0
23412,note_on,0,0,3,,,,,,,,,2,,,60,0
23412,note_on,0,0,3,,,,,,,,,2,,,57,0
23412,note_on,0,0,1,,,,,,,,,0,,,72,0
23412,note_on,12,0,1,,,,,,,,,0,,,76,0
23520,note_on,0,0,1,,,,,,,,,0,,,81,114
23520,note_on,0,0,1,,,,,,,,,0,,,75,114
23520,note_on,0,0,1,,,,,,,,,0,,,72,114
23520,note_on,108,0,1,,,,,,,,,0,,,69,114
23520,note_on,108,0,3,,,,,,,,,2,,,42,101
23520,note_on,0,0,3,,,,,,,,,2,,,54,101
23532,note_on,12,0,1,,,,,,,,,0,,,81,0
23532,note_on,0,0,1,,,,,,,,,0,,,72,0
23532,note_on,0,0,1,,,,,,,,,0,,,75,0
23532,note_on,12,0,3,,,,,,,,,2,,,54,0
23532,note_on,0,0,3,,,,,,,,,2,,,42,0
23532,note_on,0,0,1,,,,,,,,,0,,,69,0
23640,note_on,108,0,3,,,,,,,,,2,,,43,101
23640,note_on,0,0,3,,,,,,,,,2,,,55,101
23652,note_on,12,0,3,,,,,,,,,2,,,55,0
23652,note_on,0,0,3,,,,,,,,,2,,,43,0
23760,note_on,0,0,1,,,,,,,,,0,,,74,114
23760,note_on,228,0,1,,,,,,,,,0,,,67,114
23760,note_on,0,0,1,,,,,,,,,0,,,72,114
23772,note_on,12,0,1,,,,,,,,,0,,,74,0
23772,note_on,0,0,1,,,,,,,,,0,,,67,0
23772,note_on,0,0,1,,,,,,,,,0,,,72,0
23880,note_on,0,0,3,,,,,,,,,2,,,65,101
23880,note_on,0,0,3,,,,,,,,,2,,,62,101
23880,note_on,228,0,3,,,,,,,,,2,,,55,101
23892,note_on,0,0,3,,,,,,,,,2,,,55,0
23892,note_on,0,0,3,,,,,,,,,2,,,62,0
23892,note_on,12,0,3,,,,,,,,,2,,,65,0
24000,note_on,228,0,1,,,,,,,,,0,,,67,114
24000,note_on,0,0,1,,,,,,,,,0,,,71,114
24000,note_on,0,0,1,,,,,,,,,0,,,74,114
24000,note_on,0,0,1,,,,,,,,,0,,,79,114
24012,note_on,12,0,1,,,,,,,,,0,,,79,0
24012,note_on,0,0,1,,,,,,,,,0,,,74,0
24012,note_on,0,0,1,,,,,,,,,0,,,71,0
24012,note_on,0,0,1,,,,,,,,,0,,,67,0
24120,control_change,228,0,3,,,,,,,,,2,64,127,,
24120,note_on,0,0,1,,,,,,,,,0,,,79,75
24120,note_on,0,0,3,,,,,,,,,2,,,48,36
24120,control_change,108,0,1,,,,,,,,,0,64,127,,
24180,note_on,60,0,1,,,,,,,,,0,,,79,0
24180,note_on,0,0,1,,,,,,,,,0,,,76,49
24180,note_on,60,0,3,,,,,,,,,2,,,48,0
24180,note_on,0,0,3,,,,,,,,,2,,,55,36
24240,note_on,60,0,3,,,,,,,,,2,,,55,0
24240,note_on,0,0,1,,,,,,,,,0,,,67,49
24240,note_on,0,0,3,,,,,,,,,2,,,64,36
24240,note_on,60,0,1,,,,,,,,,0,,,76,0
24300,note_on,0,0,1,,,,,,,,,0,,,76,49
24300,note_on,0,0,3,,,,,,,,,2,,,55,36
24300,note_on,60,0,3,,,,,,,,,2,,,64,0
24300,note_on,60,0,1,,,,,,,,,0,,,67,0
24360,control_change,0,0,1,,,,,,,,,0,64,0,,
24360,note_on,0,0,3,,,,,,,,,2,,,64,36
24360,control_change,0,0,3,,,,,,,,,2,64,0,,
24360,note_on,60,0,3,,,,,,,,,2,,,55,0
24360,note_on,0,0,1,,,,,,,,,0,,,67,49
24360,note_on,60,0,1,,,,,,,,,0,,,76,0
24420,note_on,60,0,3,,,,,,,,,2,,,64,0
24420,note_on,60,0,1,,,,,,,,,0,,,67,0
24480,note_on,60,0,1,,,,,,,,,0,,,65,49
24480,note_on,0,0,1,,,,,,,,,0,,,67,49
24480,note_on,60,0,3,,,,,,,,,2,,,47,36
24492,note_on,0,0,1,,,,,,,,,0,,,65,0
24492,note_on,12,0,1,,,,,,,,,0,,,67,0
24540,note_on,60,0,3,,,,,,,,,2,,,47,0
24540,note_on,0,0,3,,,,,,,,,2,,,55,36
24600,note_on,0,0,3,,,,,,,,,2,,,48,36
24600,note_on,60,0,3,,,,,,,,,2,,,55,0
24600,note_on,0,0,1,,,,,,,,,0,,,67,49
24600,note_on,108,0,1,,,,,,,,,0,,,64,49
24612,note_on,0,0,1,,,,,,,,,0,,,64,0
24612,note_on,12,0,1,,,,,,,,,0,,,67,0
24660,note_on,0,0,3,,,,,,,,,2,,,55,36
24660,note_on,60,0,3,,,,,,,,,2,,,48,0
24720,note_on,60,0,3,,,,,,,,,2,,,55,0
24720,note_on,0,0,3,,,,,,,,,2,,,47,36
24720,note_on,0,0,1,,,,,,,,,0,,,67,49
24720,note_on,108,0,1,,,,,,,,,0,,,65,49
24732,note_on,0,0,1,,,,,,,,,0,,,65,0
24732,note_on,12,0,1,,,,,,,,,0,,,67,0
24780,note_on,60,0,3,,,,,,,,,2,,,47,0
24780,note_on,0,0,3,,,,,,,,,2,,,55,36
24840,note_on,0,0,1,,,,,,,,,0,,,67,49
24840,note_on,0,0,3,,,,,,,,,2,,,48,36
24840,note_on,60,0,3,,,,,,,,,2,,,55,0
24840,note_on,108,0,1,,,,,,,,,0,,,64,49
24852,note_on,12,0,1,,,,,,,,,0,,,67,0
24852,note_on,0,0,1,,,,,,,,,0,,,64,0
24900,note_on,0,0,3,,,,,,,,,2,,,55,36
24900,note_on,60,0,3,,,,,,,,,2,,,48,0
24960,note_on,0,0,1,,,,,,,,,0,,,67,49
24960,note_on,0,0,3,,,,,,,,,2,,,47,36
24960,note_on,108,0,1,,,,,,,,,0,,,65,49
24960,note_on,60,0,3,,,,,,,,,2,,,55,0
24972,note_on,12,0,1,,,,,,,,,0,,,67,0
24972,note_on,0,0,1,,,,,,,,,0,,,65,0
25020,note_on,0,0,3,,,,,,,,,2,,,55,36
25020,note_on,60,0,3,,,,,,,,,2,,,47,0
25080,note_on,0,0,3,,,,,,,,,2,,,48,36
25080,note_on,0,0,1,,,,,,,,,0,,,67,49
25080,control_change,0,0,3,,,,,,,,,2,64,127,,
25080,note_on,60,0,3,,,,,,,,,2,,,55,0
25080,note_on,108,0,1,,,,,,,,,0,,,64,49
25140,note_on,60,0,3,,,,,,,,,2,,,48,0
25140,note_on,0,0,3,,,,,,,,,2,,,52,36
25200,note_on,60,0,3,,,,,,,,,2,,,52,0
25200,note_on,0,0,3,,,,,,,,,2,,,55,36
25260,note_on,60,0,3,,,,,,,,,2,,,55,0
25260,note_on,0,0,3,,,,,,,,,2,,,60,36
25320,note_on,240,0,1,,,,,,,,,0,,,67,0
25320,note_on,0,0,1,,,,,,,,,0,,,64,0
25320,note_on,60,0,3,,,,,,,,,2,,,60,0
25320,note_on,0,0,3,,,,,,,,,2,,,64,36
25380,control_change,0,0,3,,,,,,,,,2,64,0,,
25380,note_on,60,0,3,,,,,,,,,2,,,64,0
25380,note_on,0,0,3,,,,,,,,,2,,,67,36
25440,note_on,60,0,3,,,,,,,,,2,,,67,0
25440,note_on,0,0,3,,,,,,,,,2,,,56,36
25440,note_on,0,0,3,,,,,,,,,2,,,68,36
25440,note_on,0,0,1,,,,,,,,,0,,,76,49
25440,note_on,120,0,1,,,,,,,,,0,,,74,49
25452,note_on,12,0,3,,,,,,,,,2,,,68,0
25452,note_on,0,0,1,,,,,,,,,0,,,74,0
25452,note_on,12,0,1,,,,,,,,,0,,,76,0
25452,note_on,0,0,3,,,,,,,,,2,,,56,0
25560,note_on,108,0,3,,,,,,,,,2,,,57,36
25560,note_on,0,0,3,,,,,,,,,2,,,69,36
25620,note_on,0,0,1,,,,,,,,,0,,,73,49
25620,control_change,168,0,1,,,,,,,,,0,64,127,,
25680,note_on,0,0,1,,,,,,,,,0,,,76,49
25680,note_on,60,0,1,,,,,,,,,0,,,73,0
25740,note_on,60,0,1,,,,,,,,,0,,,76,0
25740,note_on,0,0,1,,,,,,,,,0,,,81,49
25800,note_on,60,0,1,,,,,,,,,0,,,81,0
25800,note_on,0,0,1,,,,,,,,,0,,,85,49
25860,control_change,0,0,1,,,,,,,,,0,64,0,,
25860,note_on,0,0,1,,,,,,,,,0,,,88,49
25860,note_on,60,0,1,,,,,,,,,0,,,85,0
25920,note_on,0,0,3,,,,,,,,,2,,,45,101
25920,note_on,0,0,3,,,,,,,,,2,,,57,0
25920,note_on,60,0,1,,,,,,,,,0,,,88,0
25920,note_on,0,0,1,,,,,,,,,0,,,81,114
25920,note_on,0,0,1,,,,,,,,,0,,,93,114
25920,note_on,360,0,3,,,,,,,,,2,,,69,0
25920,note_on,0,0,3,,,,,,,,,2,,,33,101
25932,note_on,12,0,1,,,,,,,,,0,,,93,0
25932,note_on,0,0,1,,,,,,,,,0,,,81,0
25932,note_on,12,0,3,,,,,,,,,2,,,45,0
25932,note_on,0,0,3,,,,,,,,,2,,,33,0
26040,control_change,108,0,1,,,,,,,,,0,64,127,,
26040,control_change,108,0,3,,,,,,,,,2,64,127,,
26040,note_on,0,0,1,,,,,,,,,0,,,81,75
26040,note_on,0,0,3,,,,,,,,,2,,,50,36
26100,note_on,0,0,1,,,,,,,,,0,,,77,49
26100,note_on,60,0,1,,,,,,,,,0,,,81,0
26100,note_on,60,0,3,,,,,,,,,2,,,50,0
26100,note_on,0,0,3,,,,,,,,,2,,,57,36
26160,note_on,0,0,1,,,,,,,,,0,,,69,49
26160,note_on,60,0,1,,,,,,,,,0,,,77,0
26160,note_on,0,0,3,,,,,,,,,2,,,65,36
26160,note_on,60,0,3,,,,,,,,,2,,,57,0
26220,note_on,60,0,1,,,,,,,,,0,,,69,0
26220,note_on,0,0,3,,,,,,,,,2,,,57,36
26220,note_on,60,0,3,,,,,,,,,2,,,65,0
26220,note_on,0,0,1,,,,,,,,,0,,,77,49
26280,note_on,0,0,1,,,,,,,,,0,,,69,49
26280,note_on,60,0,1,,,,,,,,,0,,,77,0
26280,control_change,0,0,1,,,,,,,,,0,64,0,,
26280,control_change,0,0,3,,,,,,,,,2,64,0,,
26280,note_on,0,0,3,,,,,,,,,2,,,65,36
26280,note_on,60,0,3,,,,,,,,,2,,,57,0
26340,note_on,60,0,3,,,,,,,,,2,,,65,0
26340,note_on,60,0,1,,,,,,,,,0,,,69,0
26400,note_on,60,0,3,,,,,,,,,2,,,49,36
26400,note_on,60,0,1,,,,,,,,,0,,,67,49
26400,note_on,0,0,1,,,,,,,,,0,,,69,49
26412,note_on,0,0,1,,,,,,,,,0,,,67,0
26412,note_on,12,0,1,,,,,,,,,0,,,69,0
26460,note_on,60,0,3,,,,,,,,,2,,,49,0
26460,note_on,0,0,3,,,,,,,,,2,,,57,36
26520,note_on,60,0,3,,,,,,,,,2,,,57,0
26520,note_on,0,0,3,,,,,,,,,2,,,50,36
26520,note_on,0,0,1,,,,,,,,,0,,,69,49
26520,note_on,108,0,1,,,,,,,,,0,,,65,49
26532,note_on,0,0,1,,,,,,,,,0,,,65,0
26532,note_on,12,0,1,,,,,,,,,0,,,69,0
26580,note_on,60,0,3,,,,,,,,,2,,,50,0
26580,note_on,0,0,3,,,,,,,,,2,,,57,36
26640,note_on,0,0,3,,,,,,,,,2,,,49,36
26640,note_on,60,0,3,,,,,,,,,2,,,57,0
26640,note_on,0,0,1,,,,,,,,,0,,,69,49
26640,note_on,108,0,1,,,,,,,,,0,,,67,49
26652,note_on,12,0,1,,,,,,,,,0,,,69,0
26652,note_on,0,0,1,,,,,,,,,0,,,67,0
26700,note_on,0,0,3,,,,,,,,,2,,,57,36
26700,note_on,60,0,3,,,,,,,,,2,,,49,0
26760,note_on,0,0,3,,,,,,,,,2,,,50,36
26760,note_on,60,0,3,,,,,,,,,2,,,57,0
26760,note_on,108,0,1,,,,,,,,,0,,,65,49
26760,note_on,0,0,1,,,,,,,,,0,,,69,49
26772,note_on,0,0,1,,,,,,,,,0,,,65,0
26772,note_on,12,0,1,,,,,,,,,0,,,69,0
26820,note_on,0,0,3,,,,,,,,,2,,,57,36
26820,note_on,60,0,3,,,,,,,,,2,,,50,0
26880,note_on,108,0,1,,,,,,,,,0,,,67,49
26880,note_on,0,0,1,,,,,,,,,0,,,69,49
26880,note_on,60,0,3,,,,,,,,,2,,,57,0
26880,note_on,0,0,3,,,,,,,,,2,,,49,36
26892,note_on,12,0,1,,,,,,,,,0,,,69,0
26892,note_on,0,0,1,,,,,,,,,0,,,67,0
26940,note_on,60,0,3,,,,,,,,,2,,,49,0
26940,note_on,0,0,3,,,,,,,,,2,,,57,36
27000,note_on,108,0,1,,,,,,,,,0,,,65,75
27000,note_on,0,0,1,,,,,,,,,0,,,69,75
27000,note_on,60,0,3,,,,,,,,,2,,,57,0
27000,control_change,0,0,3,,,,,,,,,2,64,127,,
27000,note_on,0,0,3,,,,,,,,,2,,,50,62
27060,note_on,0,0,3,,,,,,,,,2,,,53,62
27060,note_on,60,0,3,,,,,,,,,2,,,50,0
27120,note_on,0,0,3,,,,,,,,,2,,,57,62
27120,note_on,60,0,3,,,,,,,,,2,,,53,0
27180,note_on,0,0,3,,,,,,,,,2,,,62,62
27180,note_on,60,0,3,,,,,,,,,2,,,57,0
27180,control_change,0,0,3,,,,,,,,,2,64,0,,
27240,note_on,0,0,1,,,,,,,,,0,,,65,0
27240,note_on,240,0,1,,,,,,,,,0,,,69,0
27240,note_on,60,0,3,,,,,,,,,2,,,62,0
27240,note_on,8628,0,2,,,,,,,,,1,,,65,62
27300,note_on,0,0,2,,,,,,,,,1,,,69,62
27300,note_on,60,0,2,,,,,,,,,1,,,65,0
27360,note_on,0,0,2,,,,,,,,,1,,,69,62
27360,note_on,0,0,2,,,,,,,,,1,,,57,62
27360,note_on,60,0,2,,,,,,,,,1,,,69,0
27360,note_on,0,0,1,,,,,,,,,0,,,77,75
27360,note_on,120,0,1,,,,,,,,,0,,,75,75
27372,note_on,12,0,1,,,,,,,,,0,,,77,0
27372,note_on,0,0,1,,,,,,,,,0,,,75,0
27372,note_on,0,0,2,,,,,,,,,1,,,57,0
27372,note_on,12,0,2,,,,,,,,,1,,,69,0
27480,note_on,0,0,2,,,,,,,,,1,,,70,88
27480,note_on,108,0,2,,,,,,,,,1,,,58,88
27540,control_change,168,0,1,,,,,,,,,0,64,127,,
27540,note_on,0,0,1,,,,,,,,,0,,,74,88
27600,note_on,60,0,1,,,,,,,,,0,,,74,0
27600,note_on,0,0,1,,,,,,,,,0,,,77,88
27660,note_on,60,0,1,,,,,,,,,0,,,77,0
27660,note_on,0,0,1,,,,,,,,,0,,,82,88
27720,note_on,0,0,2,,,,,,,,,1,,,58,0
27720,note_on,60,0,1,,,,,,,,,0,,,82,0
27720,note_on,0,0,1,,,,,,,,,0,,,86,88
27720,note_on,240,0,2,,,,,,,,,1,,,70,0
27720,note_on,480,0,3,,,,,,,,,2,,,34,75
27720,note_on,0,0,3,,,,,,,,,2,,,46,75
27780,note_on,0,0,1,,,,,,,,,0,,,89,88
27780,note_on,60,0,1,,,,,,,,,0,,,86,0
27780,control_change,0,0,1,,,,,,,,,0,64,0,,
27840,note_on,0,0,3,,,,,,,,,2,,,44,75
27840,note_on,0,0,3,,,,,,,,,2,,,32,75
27840,note_on,0,0,3,,,,,,,,,2,,,34,0
27840,note_on,0,0,1,,,,,,,,,0,,,82,88
27840,note_on,0,0,1,,,,,,,,,0,,,94,88
27840,note_on,60,0,1,,,,,,,,,0,,,89,0
27840,note_on,120,0,3,,,,,,,,,2,,,46,0
27852,note_on,0,0,1,,,,,,,,,0,,,82,0
27852,note_on,12,0,1,,,,,,,,,0,,,94,0
27960,note_on,0,0,3,,,,,,,,,2,,,43,88
27960,note_on,0,0,3,,,,,,,,,2,,,31,88
27960,note_on,0,0,3,,,,,,,,,2,,,32,0
27960,note_on,120,0,3,,,,,,,,,2,,,44,0
27972,note_on,0,0,3,,,,,,,,,2,,,31,0
27972,note_on,12,0,3,,,,,,,,,2,,,43,0
28080,note_on,228,0,1,,,,,,,,,0,,,71,101
28080,note_on,0,0,1,,,,,,,,,0,,,83,101
28080,note_on,0,0,1,,,,,,,,,0,,,77,101
28080,note_on,0,0,1,,,,,,,,,0,,,74,101
28092,note_on,0,0,1,,,,,,,,,0,,,77,0
28092,note_on,0,0,1,,,,,,,,,0,,,74,0
28092,note_on,0,0,1,,,,,,,,,0,,,71,0
28092,note_on,12,0,1,,,,,,,,,0,,,83,0
28200,note_on,0,0,3,,,,,,,,,2,,,42,88
28200,note_on,228,0,3,,,,,,,,,2,,,30,88
28212,note_on,0,0,3,,,,,,,,,2,,,30,0
28212,note_on,12,0,3,,,,,,,,,2,,,42,0
28320,note_on,0,0,1,,,,,,,,,0,,,75,101
28320,note_on,0,0,1,,,,,,,,,0,,,81,101
28320,note_on,228,0,1,,,,,,,,,0,,,72,101
28320,note_on,0,0,1,,,,,,,,,0,,,84,101
28332,note_on,0,0,1,,,,,,,,,0,,,72,0
28332,note_on,0,0,1,,,,,,,,,0,,,75,0
28332,note_on,0,0,1,,,,,,,,,0,,,81,0
28332,note_on,12,0,1,,,,,,,,,0,,,84,0
28920,note_on,708,0,3,,,,,,,,,2,,,57,49
28920,note_on,0,0,3,,,,,,,,,2,,,60,49
28920,note_on,0,0,3,,,,,,,,,2,,,62,49
28932,note_on,0,0,3,,,,,,,,,2,,,60,0
28932,note_on,12,0,3,,,,,,,,,2,,,62,0
28932,note_on,0,0,3,,,,,,,,,2,,,57,0
29040,note_on,0,0,1,,,,,,,,,0,,,72,49
29040,note_on,0,0,1,,,,,,,,,0,,,74,49
29040,note_on,708,0,1,,,,,,,,,0,,,65,49
29052,note_on,12,0,1,,,,,,,,,0,,,74,0
29052,note_on,0,0,1,,,,,,,,,0,,,72,0
29052,note_on,0,0,1,,,,,,,,,0,,,65,0
29160,note_on,0,0,3,,,,,,,,,2,,,65,49
29160,note_on,228,0,3,,,,,,,,,2,,,55,49
29160,note_on,0,0,3,,,,,,,,,2,,,62,49
29172,note_on,0,0,3,,,,,,,,,2,,,62,0
29172,note_on,12,0,3,,,,,,,,,2,,,65,0
29172,note_on,0,0,3,,,,,,,,,2,,,55,0
29280,note_on,0,0,1,,,,,,,,,0,,,79,49
29280,note_on,228,0,1,,,,,,,,,0,,,67,49
29280,note_on,0,0,1,,,,,,,,,0,,,71,49
29280,note_on,0,0,1,,,,,,,,,0,,,74,49
29292,note_on,12,0,1,,,,,,,,,0,,,79,0
29292,note_on,0,0,1,,,,,,,,,0,,,67,0
29292,note_on,0,0,1,,,,,,,,,0,,,71,0
29292,note_on,0,0,1,,,,,,,,,0,,,74,0
30240,note_on,1068,0,3,,,,,,,,,2,,,63,36
30240,note_on,948,0,1,,,,,,,,,0,,,75,49
30330,note_on,90,0,1,,,,,,,,,0,,,74,49
30330,note_on,90,0,3,,,,,,,,,2,,,62,36
30345,note_on,0,0,3,,,,,,,,,2,,,63,36
30345,note_on,15,0,1,,,,,,,,,0,,,74,0
30345,note_on,0,0,1,,,,,,,,,0,,,75,49
30345,note_on,15,0,3,,,,,,,,,2,,,62,0
30360,note_on,15,0,3,,,,,,,,,2,,,63,0
30360,note_on,0,0,3,,,,,,,,,2,,,63,0
30360,note_on,0,0,3,,,,,,,,,2,,,62,36
30360,note_on,15,0,1,,,,,,,,,0,,,75,0
30360,note_on,0,0,1,,,,,,,,,0,,,75,0
30360,note_on,0,0,1,,,,,,,,,0,,,74,49
30480,note_on,120,0,3,,,,,,,,,2,,,62,0
30480,note_on,0,0,3,,,,,,,,,2,,,60,36
30480,note_on,120,0,1,,,,,,,,,0,,,74,0
30480,note_on,0,0,1,,,,,,,,,0,,,72,49
30600,control_change,0,0,3,,,,,,,,,2,64,127,,
30600,note_on,120,0,1,,,,,,,,,0,,,72,0
30600,control_change,0,0,1,,,,,,,,,0,64,127,,
30600,note_on,0,0,1,,,,,,,,,0,,,79,75
30600,note_on,0,0,3,,,,,,,,,2,,,67,62
30600,note_on,120,0,3,,,,,,,,,2,,,60,0
30780,note_on,180,0,1,,,,,,,,,0,,,79,0
30780,note_on,0,0,1,,,,,,,,,0,,,75,49
30780,note_on,180,0,3,,,,,,,,,2,,,67,0
30780,note_on,0,0,3,,,,,,,,,2,,,63,36
30810,note_on,30,0,3,,,,,,,,,2,,,63,0
30810,note_on,0,0,3,,,,,,,,,2,,,60,36
30810,note_on,30,0,1,,,,,,,,,0,,,75,0
30810,note_on,0,0,1,,,,,,,,,0,,,72,49
30840,note_on,0,0,1,,,,,,,,,0,,,67,49
30840,control_change,0,0,1,,,,,,,,,0,64,0,,
30840,note_on,30,0,1,,,,,,,,,0,,,72,0
30840,note_on,0,0,3,,,,,,,,,2,,,55,36
30840,note_on,30,0,3,,,,,,,,,2,,,60,0
30840,control_change,0,0,3,,,,,,,,,2,64,0,,
31200,note_on,0,0,1,,,,,,,,,0,,,67,49
31200,note_on,360,0,1,,,,,,,,,0,,,67,0
31200,note_on,360,0,3,,,,,,,,,2,,,55,0
31200,note_on,0,0,3,,,,,,,,,2,,,55,36
31200,note_on,0,0,3,,,,,,,,,2,,,63,36
31212,note_on,12,0,3,,,,,,,,,2,,,63,0
31212,note_on,0,0,3,,,,,,,,,2,,,55,0
31212,note_on,12,0,1,,,,,,,,,0,,,67,0
31320,note_on,0,0,1,,,,,,,,,0,,,67,49
31320,note_on,108,0,3,,,,,,,,,2,,,55,36
31320,note_on,0,0,3,,,,,,,,,2,,,62,36
31320,note_on,108,0,1,,,,,,,,,0,,,65,49
31332,note_on,12,0,3,,,,,,,,,2,,,62,0
31332,note_on,0,0,3,,,,,,,,,2,,,55,0
31332,note_on,0,0,1,,,,,,,,,0,,,65,0
31332,note_on,12,0,1,,,,,,,,,0,,,67,0
31440,note_on,0,0,1,,,,,,,,,0,,,67,49
31440,note_on,108,0,1,,,,,,,,,0,,,63,49
31440,note_on,108,0,3,,,,,,,,,2,,,55,36
31440,note_on,0,0,3,,,,,,,,,2,,,60,36
31452,note_on,0,0,3,,,,,,,,,2,,,55,0
31452,note_on,12,0,1,,,,,,,,,0,,,67,0
31452,note_on,0,0,1,,,,,,,,,0,,,63,0
31452,note_on,12,0,3,,,,,,,,,2,,,60,0
31560,note_on,0,0,1,,,,,,,,,0,,,67,49
31560,note_on,108,0,3,,,,,,,,,2,,,55,36
31560,note_on,108,0,1,,,,,,,,,0,,,62,49
31560,note_on,0,0,3,,,,,,,,,2,,,59,36
31572,note_on,0,0,1,,,,,,,,,0,,,62,0
31572,note_on,12,0,3,,,,,,,,,2,,,59,0
31572,note_on,12,0,1,,,,,,,,,0,,,67,0
31572,note_on,0,0,3,,,,,,,,,2,,,55,0
31680,note_on,108,0,1,,,,,,,,,0,,,66,49
31680,note_on,0,0,1,,,,,,,,,0,,,75,49
31680,note_on,0,0,3,,,,,,,,,2,,,63,36
31680,note_on,0,0,3,,,,,,,,,2,,,60,36
31680,note_on,108,0,3,,,,,,,,,2,,,55,36
31692,note_on,12,0,1,,,,,,,,,0,,,75,0
31692,note_on,0,0,1,,,,,,,,,0,,,66,0
31692,note_on,0,0,3,,,,,,,,,2,,,55,0
31692,note_on,0,0,3,,,,,,,,,2,,,60,0
31692,note_on,12,0,3,,,,,,,,,2,,,63,0
31800,note_on,108,0,1,,,,,,,,,0,,,67,49
31800,note_on,0,0,1,,,,,,,,,0,,,75,49
31800,note_on,0,0,3,,,,,,,,,2,,,63,36
31800,note_on,108,0,3,,,,,,,,,2,,,55,36
31800,note_on,0,0,3,,,,,,,,,2,,,60,36
32040,note_on,240,0,1,,,,,,,,,0,,,75,0
32040,note_on,240,0,3,,,,,,,,,2,,,63,0
32040,note_on,0,0,3,,,,,,,,,2,,,60,0
32040,note_on,0,0,3,,,,,,,,,2,,,59,36
32040,note_on,0,0,3,,,,,,,,,2,,,62,36
32040,note_on,0,0,1,,,,,,,,,0,,,74,49
32100,note_on,60,0,3,,,,,,,,,2,,,62,0
32100,note_on,0,0,3,,,,,,,,,2,,,59,0
32100,note_on,0,0,3,,,,,,,,,2,,,55,0
32100,note_on,60,0,1,,,,,,,,,0,,,74,0
32100,note_on,0,0,1,,,,,,,,,0,,,67,0
32160,note_on,60,0,3,,,,,,,,,2,,,65,36
32160,note_on,60,0,1,,,,,,,,,0,,,77,49
32250,note_on,90,0,3,,,,,,,,,2,,,63,36
32250,note_on,90,0,1,,,,,,,,,0,,,75,49
32265,note_on,15,0,1,,,,,,,,,0,,,75,0
32265,note_on,15,0,3,,,,,,,,,2,,,63,0
32265,note_on,0,0,1,,,,,,,,,0,,,77,49
32265,note_on,0,0,3,,,,,,,,,2,,,65,36
32280,note_on,15,0,1,,,,,,,,,0,,,77,0
32280,note_on,0,0,3,,,,,,,,,2,,,63,36
32280,note_on,0,0,1,,,,,,,,,0,,,75,49
32280,note_on,0,0,3,,,,,,,,,2,,,65,0
32280,note_on,15,0,3,,,,,,,,,2,,,65,0
32280,note_on,0,0,1,,,,,,,,,0,,,77,0
32400,note_on,120,0,1,,,,,,,,,0,,,75,0
32400,note_on,0,0,1,,,,,,,,,0,,,74,49
32400,note_on,120,0,3,,,,,,,,,2,,,63,0
32400,note_on,0,0,3,,,,,,,,,2,,,62,36
32520,control_change,0,0,1,,,,,,,,,0,64,127,,
32520,note_on,0,0,1,,,,,,,,,0,,,80,75
32520,note_on,120,0,1,,,,,,,,,0,,,74,0
32520,note_on,0,0,3,,,,,,,,,2,,,68,62
32520,control_change,0,0,3,,,,,,,,,2,64,127,,
32520,note_on,120,0,3,,,,,,,,,2,,,62,0
32700,note_on,180,0,1,,,,,,,,,0,,,80,0
32700,note_on,0,0,1,,,,,,,,,0,,,77,49
32700,note_on,0,0,3,,,,,,,,,2,,,65,36
32700,note_on,180,0,3,,,,,,,,,2,,,68,0
32730,note_on,0,0,3,,,,,,,,,2,,,62,36
32730,note_on,30,0,3,,,,,,,,,2,,,65,0
32730,note_on,30,0,1,,,,,,,,,0,,,77,0
32730,note_on,0,0,1,,,,,,,,,0,,,74,49
32760,note_on,0,0,3,,,,,,,,,2,,,55,36
32760,control_change,0,0,3,,,,,,,,,2,64,0,,
32760,note_on,30,0,3,,,,,,,,,2,,,62,0
32760,note_on,30,0,1,,,,,,,,,0,,,74,0
32760,control_change,0,0,1,,,,,,,,,0,64,0,,
32760,note_on,0,0,1,,,,,,,,,0,,,67,49
33120,note_on,0,0,3,,,,,,,,,2,,,55,36
33120,note_on,360,0,3,,,,,,,,,2,,,55,0
33120,note_on,360,0,1,,,,,,,,,0,,,67,0
33120,note_on,0,0,1,,,,,,,,,0,,,67,49
33132,note_on,12,0,3,,,,,,,,,2,,,55,0
33240,note_on,108,0,3,,,,,,,,,2,,,55,36
33240,note_on,120,0,1,,,,,,,,,0,,,67,0
33240,note_on,0,0,1,,,,,,,,,0,,,67,49
33240,note_on,0,0,1,,,,,,,,,0,,,68,49
33252,note_on,0,0,1,,,,,,,,,0,,,67,0
33252,note_on,12,0,1,,,,,,,,,0,,,68,0
33252,note_on,12,0,3,,,,,,,,,2,,,55,0
33360,note_on,0,0,1,,,,,,,,,0,,,71,49
33360,note_on,108,0,1,,,,,,,,,0,,,67,49
33360,note_on,108,0,3,,,,,,,,,2,,,55,36
33360,note_on,0,0,3,,,,,,,,,2,,,65,36
33372,note_on,12,0,3,,,,,,,,,2,,,65,0
33372,note_on,0,0,1,,,,,,,,,0,,,67,0
33372,note_on,12,0,1,,,,,,,,,0,,,71,0
33372,note_on,0,0,3,,,,,,,,,2,,,55,0
33480,note_on,0,0,1,,,,,,,,,0,,,72,75
33480,note_on,108,0,1,,,,,,,,,0,,,67,75
33480,note_on,108,0,3,,,,,,,,,2,,,55,62
33480,note_on,0,0,3,,,,,,,,,2,,,63,62
33492,note_on,12,0,3,,,,,,,,,2,,,63,0
33492,note_on,0,0,3,,,,,,,,,2,,,55,0
33492,note_on,0,0,1,,,,,,,,,0,,,67,0
33492,note_on,12,0,1,,,,,,,,,0,,,72,0
33600,note_on,0,0,1,,,,,,,,,0,,,74,75
33600,note_on,108,0,3,,,,,,,,,2,,,55,62
33600,note_on,0,0,3,,,,,,,,,2,,,59,62
33600,note_on,0,0,3,,,,,,,,,2,,,62,62
33600,note_on,108,0,1,,,,,,,,,0,,,67,75
33612,note_on,0,0,3,,,,,,,,,2,,,59,0
33612,note_on,0,0,3,,,,,,,,,2,,,55,0
33612,note_on,0,0,1,,,,,,,,,0,,,67,0
33612,note_on,12,0,3,,,,,,,,,2,,,62,0
33612,note_on,12,0,1,,,,,,,,,0,,,74,0
33720,note_on,0,0,3,,,,,,,,,2,,,62,62
33720,note_on,0,0,3,,,,,,,,,2,,,65,62
33720,note_on,108,0,3,,,,,,,,,2,,,60,62
33720,note_on,108,0,1,,,,,,,,,0,,,67,75
33720,note_on,0,0,1,,,,,,,,,0,,,77,75
33960,note_on,0,0,3,,,,,,,,,2,,,60,62
33960,note_on,0,0,3,,,,,,,,,2,,,60,0
33960,note_on,0,0,3,,,,,,,,,2,,,62,0
33960,note_on,240,0,3,,,,,,,,,2,,,65,0
33960,note_on,240,0,1,,,,,,,,,0,,,77,0
33960,note_on,0,0,1,,,,,,,,,0,,,75,75
33960,note_on,0,0,3,,,,,,,,,2,,,63,62
34080,note_on,0,0,3,,,,,,,,,2,,,51,62
34080,note_on,0,0,1,,,,,,,,,0,,,63,75
34080,note_on,0,0,1,,,,,,,,,0,,,67,0
34080,note_on,120,0,1,,,,,,,,,0,,,75,0
34080,note_on,0,0,3,,,,,,,,,2,,,60,0
34080,note_on,120,0,3,,,,,,,,,2,,,63,0
34170,note_on,90,0,3,,,,,,,,,2,,,50,62
34170,note_on,90,0,1,,,,,,,,,0,,,62,75
34185,note_on,15,0,1,,,,,,,,,0,,,62,0
34185,note_on,0,0,3,,,,,,,,,2,,,51,62
34185,note_on,15,0,3,,,,,,,,,2,,,50,0
34185,note_on,0,0,1,,,,,,,,,0,,,63,75
34200,note_on,0,0,3,,,,,,,,,2,,,50,62
34200,note_on,0,0,1,,,,,,,,,0,,,62,75
34200,note_on,0,0,3,,,,,,,,,2,,,51,0
34200,note_on,15,0,3,,,,,,,,,2,,,51,0
34200,note_on,0,0,1,,,,,,,,,0,,,63,0
34200,note_on,15,0,1,,,,,,,,,0,,,63,0
34320,note_on,120,0,3,,,,,,,,,2,,,50,0
34320,note_on,120,0,1,,,,,,,,,0,,,62,0
34320,note_on,0,0,3,,,,,,,,,2,,,48,62
34320,note_on,0,0,1,,,,,,,,,0,,,60,75
34440,note_on,120,0,3,,,,,,,,,2,,,48,0
34440,control_change,0,0,1,,,,,,,,,0,64,127,,
34440,note_on,0,0,1,,,,,,,,,0,,,67,101
34440,control_change,0,0,3,,,,,,,,,2,64,127,,
34440,note_on,0,0,3,,,,,,,,,2,,,55,88
34440,note_on,120,0,1,,,,,,,,,0,,,60,0
34620,note_on,180,0,3,,,,,,,,,2,,,55,0
34620,note_on,0,0,3,,,,,,,,,2,,,51,62
34620,note_on,0,0,1,,,,,,,,,0,,,63,75
34620,note_on,180,0,1,,,,,,,,,0,,,67,0
34650,note_on,0,0,1,,,,,,,,,0,,,60,75
34650,note_on,30,0,1,,,,,,,,,0,,,63,0
34650,note_on,0,0,3,,,,,,,,,2,,,48,62
34650,note_on,30,0,3,,,,,,,,,2,,,51,0
34680,note_on,0,0,1,,,,,,,,,0,,,56,75
34680,note_on,30,0,1,,,,,,,,,0,,,60,0
34680,note_on,30,0,3,,,,,,,,,2,,,48,0
34680,note_on,0,0,3,,,,,,,,,2,,,44,62
34920,note_on,7200,0,2,,,,,,,,,1,,,65,75
34920,note_on,19068,0,4,,,,,,,,,3,,,53,62
35040,note_on,120,0,2,,,,,,,,,1,,,65,0
35040,note_on,0,0,4,,,,,,,,,3,,,51,62
35040,note_on,120,0,4,,,,,,,,,3,,,53,0
35040,note_on,0,0,2,,,,,,,,,1,,,63,75
35160,control_change,480,0,1,,,,,,,,,0,64,0,,
35160,note_on,0,0,4,,,,,,,,,3,,,50,75
35160,note_on,120,0,4,,,,,,,,,3,,,51,0
35160,note_on,0,0,2,,,,,,,,,1,,,62,88
35160,control_change,480,0,3,,,,,,,,,2,64,0,,
35160,note_on,120,0,2,,,,,,,,,1,,,63,0
35280,note_on,120,0,2,,,,,,,,,1,,,62,0
35280,note_on,0,0,2,,,,,,,,,1,,,60,88
35280,note_on,0,0,2,,,,,,,,,1,,,63,88
35280,note_on,120,0,4,,,,,,,,,3,,,50,0
35280,note_on,0,0,4,,,,,,,,,3,,,48,75
35280,note_on,0,0,4,,,,,,,,,3,,,51,75
35400,note_on,240,0,1,,,,,,,,,0,,,56,0
35400,note_on,240,0,3,,,,,,,,,2,,,44,0
35400,note_on,0,0,4,,,,,,,,,3,,,44,75
35400,note_on,0,0,2,,,,,,,,,1,,,56,88
35400,note_on,0,0,2,,,,,,,,,1,,,59,88
35400,note_on,0,0,4,,,,,,,,,3,,,48,0
35400,note_on,120,0,4,,,,,,,,,3,,,51,0
35400,note_on,0,0,4,,,,,,,,,3,,,47,75
35400,note_on,0,0,4,,,,,,,,,3,,,50,75
35400,note_on,0,0,4,,,,,,,,,3,,,53,75
35400,note_on,120,0,2,,,,,,,,,1,,,63,0
35400,note_on,0,0,2,,,,,,,,,1,,,60,0
35400,note_on,0,0,2,,,,,,,,,1,,,62,88
35400,note_on,0,0,2,,,,,,,,,1,,,65,88
35520,note_on,0,0,2,,,,,,,,,1,,,60,88
35520,note_on,0,0,2,,,,,,,,,1,,,56,88
35520,note_on,0,0,2,,,,,,,,,1,,,62,0
35520,note_on,0,0,2,,,,,,,,,1,,,59,0
35520,note_on,0,0,2,,,,,,,,,1,,,56,0
35520,note_on,0,0,2,,,,,,,,,1,,,63,88
35520,note_on,0,0,2,,,,,,,,,1,,,66,88
35520,note_on,120,0,4,,,,,,,,,3,,,53,0
35520,note_on,0,0,4,,,,,,,,,3,,,44,0
35520,note_on,0,0,4,,,,,,,,,3,,,47,0
35520,note_on,0,0,4,,,,,,,,,3,,,50,0
35520,note_on,0,0,4,,,,,,,,,3,,,44,75
35520,note_on,0,0,4,,,,,,,,,3,,,51,75
35520,note_on,0,0,4,,,,,,,,,3,,,54,75
35520,note_on,120,0,2,,,,,,,,,1,,,65,0
35520,note_on,0,0,4,,,,,,,,,3,,,48,75
35640,note_on,0,0,1,,,,,,,,,0,,,63,49
35640,note_on,0,0,1,,,,,,,,,0,,,67,49
35640,note_on,240,0,3,,,,,,,,,2,,,43,36
35640,note_on,0,0,3,,,,,,,,,2,,,48,36
35640,note_on,0,0,3,,,,,,,,,2,,,51,36
35640,note_on,0,0,3,,,,,,,,,2,,,55,36
35640,note_on,120,0,4,,,,,,,,,3,,,54,0
35640,note_on,0,0,4,,,,,,,,,3,,,44,0
35640,note_on,0,0,4,,,,,,,,,3,,,48,0
35640,note_on,0,0,4,,,,,,,,,3,,,51,0
35640,note_on,120,0,2,,,,,,,,,1,,,66,0
35640,note_on,0,0,2,,,,,,,,,1,,,56,0
35640,note_on,0,0,2,,,,,,,,,1,,,60,0
35640,note_on,0,0,2,,,,,,,,,1,,,63,0
35640,note_on,240,0,1,,,,,,,,,0,,,60,49
36120,note_on,0,0,1,,,,,,,,,0,,,62,49
36120,note_on,0,0,1,,,,,,,,,0,,,67,49
36120,note_on,0,0,3,,,,,,,,,2,,,43,0
36120,note_on,0,0,3,,,,,,,,,2,,,55,36
36120,note_on,480,0,1,,,,,,,,,0,,,67,0
36120,note_on,0,0,1,,,,,,,,,0,,,63,0
36120,note_on,0,0,1,,,,,,,,,0,,,60,0
36120,note_on,0,0,1,,,,,,,,,0,,,59,49
36120,note_on,480,0,3,,,,,,,,,2,,,55,0
36120,note_on,0,0,3,,,,,,,,,2,,,50,36
36120,note_on,0,0,3,,,,,,,,,2,,,48,0
36120,note_on,0,0,3,,,,,,,,,2,,,51,0
36120,note_on,0,0,3,,,,,,,,,2,,,43,36
36120,note_on,0,0,3,,,,,,,,,2,,,47,36
36600,note_on,0,0,4,,,,,,,,,3,,,48,62
36600,note_on,0,0,1,,,,,,,,,0,,,62,0
36600,control_change,960,0,2,,,,,,,,,1,64,127,,
36600,note_on,0,0,2,,,,,,,,,1,,,60,49
36600,note_on,480,0,1,,,,,,,,,0,,,67,0
36600,note_on,0,0,3,,,,,,,,,2,,,52,36
36600,note_on,960,0,4,,,,,,,,,3,,,36,62
36600,note_on,0,0,3,,,,,,,,,2,,,47,0
36600,note_on,0,0,3,,,,,,,,,2,,,43,0
36600,note_on,480,0,3,,,,,,,,,2,,,55,0
36600,note_on,0,0,3,,,,,,,,,2,,,50,0
36600,note_on,0,0,1,,,,,,,,,0,,,59,0
36660,note_on,0,0,2,,,,,,,,,1,,,55,49
36660,note_on,60,0,2,,,,,,,,,1,,,60,0
36720,note_on,0,0,2,,,,,,,,,1,,,55,49
36720,note_on,60,0,2,,,,,,,,,1,,,55,0
36726,note_on,6,0,2,,,,,,,,,1,,,55,0
36780,note_on,54,0,2,,,,,,,,,1,,,55,49
36786,note_on,6,0,2,,,,,,,,,1,,,55,0
36840,control_change,54,0,2,,,,,,,,,1,64,0,,
36840,note_on,0,0,2,,,,,,,,,1,,,55,49
36852,note_on,12,0,2,,,,,,,,,1,,,55,0
36960,note_on,0,0,4,,,,,,,,,3,,,43,62
36960,note_on,0,0,4,,,,,,,,,3,,,31,62
36960,note_on,0,0,4,,,,,,,,,3,,,36,0
36960,note_on,360,0,4,,,,,,,,,3,,,48,0
36960,note_on,360,0,3,,,,,,,,,2,,,52,0
36960,note_on,108,0,2,,,,,,,,,1,,,53,49
36960,note_on,0,0,2,,,,,,,,,1,,,55,49
36960,note_on,0,0,2,,,,,,,,,1,,,59,49
36960,note_on,0,0,2,,,,,,,,,1,,,62,49
36972,note_on,12,0,2,,,,,,,,,1,,,62,0
36972,note_on,12,0,4,,,,,,,,,3,,,43,0
36972,note_on,0,0,2,,,,,,,,,1,,,55,0
36972,note_on,0,0,2,,,,,,,,,1,,,59,0
36972,note_on,0,0,4,,,,,,,,,3,,,31,0
36972,note_on,0,0,2,,,,,,,,,1,,,53,0
37080,note_on,0,0,4,,,,,,,,,3,,,43,62
37080,note_on,108,0,4,,,,,,,,,3,,,36,62
37080,note_on,0,0,2,,,,,,,,,1,,,60,49
37080,note_on,108,0,2,,,,,,,,,1,,,52,49
37080,note_on,0,0,2,,,,,,,,,1,,,55,49
37092,note_on,0,0,2,,,,,,,,,1,,,55,0
37092,note_on,0,0,2,,,,,,,,,1,,,52,0
37092,note_on,12,0,4,,,,,,,,,3,,,43,0
37092,note_on,12,0,2,,,,,,,,,1,,,60,0
37092,note_on,0,0,4,,,,,,,,,3,,,36,0
37200,note_on,108,0,2,,,,,,,,,1,,,53,49
37200,note_on,0,0,2,,,,,,,,,1,,,55,49
37200,note_on,0,0,2,,,,,,,,,1,,,59,49
37200,note_on,0,0,2,,,,,,,,,1,,,62,49
37200,note_on,0,0,4,,,,,,,,,3,,,43,62
37200,note_on,108,0,4,,,,,,,,,3,,,31,62
37212,note_on,0,0,2,,,,,,,,,1,,,59,0
37212,note_on,0,0,4,,,,,,,,,3,,,31,0
37212,note_on,0,0,2,,,,,,,,,1,,,55,0
37212,note_on,0,0,2,,,,,,,,,1,,,53,0
37212,note_on,12,0,4,,,,,,,,,3,,,43,0
37212,note_on,12,0,2,,,,,,,,,1,,,62,0
37320,note_on,0,0,2,,,,,,,,,1,,,64,49
37320,note_on,108,0,4,,,,,,,,,3,,,36,62
37320,note_on,0,0,2,,,,,,,,,1,,,60,49
37320,note_on,0,0,2,,,,,,,,,1,,,55,49
37320,note_on,108,0,2,,,,,,,,,1,,,52,49
37320,note_on,0,0,4,,,,,,,,,3,,,43,62
37332,note_on,0,0,2,,,,,,,,,1,,,60,0
37332,note_on,0,0,4,,,,,,,,,3,,,36,0
37332,note_on,12,0,4,,,,,,,,,3,,,43,0
37332,note_on,0,0,2,,,,,,,,,1,,,55,0
37332,note_on,0,0,2,,,,,,,,,1,,,52,0
37332,note_on,12,0,2,,,,,,,,,1,,,64,0
37440,note_on,108,0,4,,,,,,,,,3,,,31,62
37440,note_on,0,0,4,,,,,,,,,3,,,43,62
37440,note_on,108,0,2,,,,,,,,,1,,,53,49
37440,note_on,0,0,2,,,,,,,,,1,,,62,49
37440,note_on,0,0,2,,,,,,,,,1,,,59,49
37440,note_on,0,0,2,,,,,,,,,1,,,55,49
37452,note_on,0,0,2,,,,,,,,,1,,,55,0
37452,note_on,0,0,2,,,,,,,,,1,,,53,0
37452,note_on,12,0,2,,,,,,,,,1,,,62,0
37452,note_on,12,0,4,,,,,,,,,3,,,43,0
37452,note_on,0,0,2,,,,,,,,,1,,,59,0
37452,note_on,0,0,4,,,,,,,,,3,,,31,0
37560,note_on,0,0,2,,,,,,,,,1,,,60,49
37560,note_on,0,0,4,,,,,,,,,3,,,43,62
37560,control_change,108,0,2,,,,,,,,,1,64,127,,
37560,note_on,108,0,4,,,,,,,,,3,,,36,62
37620,note_on,0,0,2,,,,,,,,,1,,,55,49
37620,note_on,60,0,2,,,,,,,,,1,,,60,0
37680,note_on,0,0,2,,,,,,,,,1,,,55,49
37680,note_on,60,0,2,,,,,,,,,1,,,55,0
37686,note_on,6,0,2,,,,,,,,,1,,,55,0
37740,note_on,54,0,2,,,,,,,,,1,,,55,49
37746,note_on,6,0,2,,,,,,,,,1,,,55,0
37800,note_on,0,0,2,,,,,,,,,1,,,55,49
37800,control_change,54,0,2,,,,,,,,,1,64,0,,
37812,note_on,12,0,2,,,,,,,,,1,,,55,0
37920,note_on,0,0,4,,,,,,,,,3,,,31,62
37920,note_on,0,0,4,,,,,,,,,3,,,36,0
37920,note_on,0,0,4,,,,,,,,,3,,,43,62
37920,note_on,0,0,2,,,,,,,,,1,,,62,49
37920,note_on,0,0,2,,,,,,,,,1,,,55,49
37920,note_on,0,0,2,,,,,,,,,1,,,59,49
37920,note_on,360,0,4,,,,,,,,,3,,,43,0
37920,note_on,108,0,2,,,,,,,,,1,,,53,49
37932,note_on,12,0,4,,,,,,,,,3,,,43,0
37932,note_on,0,0,4,,,,,,,,,3,,,31,0
37932,note_on,0,0,2,,,,,,,,,1,,,53,0
37932,note_on,0,0,2,,,,,,,,,1,,,59,0
37932,note_on,0,0,2,,,,,,,,,1,,,55,0
37932,note_on,12,0,2,,,,,,,,,1,,,62,0
38040,note_on,0,0,4,,,,,,,,,3,,,43,62
38040,note_on,108,0,2,,,,,,,,,1,,,52,49
38040,note_on,0,0,2,,,,,,,,,1,,,60,49
38040,note_on,0,0,2,,,,,,,,,1,,,55,49
38040,note_on,108,0,4,,,,,,,,,3,,,36,62
38052,note_on,0,0,2,,,,,,,,,1,,,55,0
38052,note_on,12,0,2,,,,,,,,,1,,,60,0
38052,note_on,12,0,4,,,,,,,,,3,,,43,0
38052,note_on,0,0,4,,,,,,,,,3,,,36,0
38052,note_on,0,0,2,,,,,,,,,1,,,52,0
38160,note_on,108,0,2,,,,,,,,,1,,,53,49
38160,note_on,0,0,2,,,,,,,,,1,,,55,49
38160,note_on,0,0,2,,,,,,,,,1,,,59,49
38160,note_on,0,0,2,,,,,,,,,1,,,62,49
38160,note_on,108,0,4,,,,,,,,,3,,,31,62
38160,note_on,0,0,4,,,,,,,,,3,,,43,62
38172,note_on,0,0,4,,,,,,,,,3,,,31,0
38172,note_on,12,0,4,,,,,,,,,3,,,43,0
38172,note_on,0,0,2,,,,,,,,,1,,,59,0
38172,note_on,0,0,2,,,,,,,,,1,,,55,0
38172,note_on,0,0,2,,,,,,,,,1,,,53,0
38172,note_on,12,0,2,,,,,,,,,1,,,62,0
38280,note_on,0,0,4,,,,,,,,,3,,,43,62
38280,note_on,0,0,2,,,,,,,,,1,,,64,49
38280,note_on,0,0,2,,,,,,,,,1,,,55,49
38280,note_on,108,0,2,,,,,,,,,1,,,52,49
38280,note_on,108,0,4,,,,,,,,,3,,,36,62
38280,note_on,0,0,2,,,,,,,,,1,,,60,49
38292,note_on,12,0,4,,,,,,,,,3,,,43,0
38292,note_on,0,0,4,,,,,,,,,3,,,36,0
38292,note_on,0,0,2,,,,,,,,,1,,,60,0
38292,note_on,0,0,2,,,,,,,,,1,,,55,0
38292,note_on,0,0,2,,,,,,,,,1,,,52,0
38292,note_on,12,0,2,,,,,,,,,1,,,64,0
38400,note_on,0,0,2,,,,,,,,,1,,,62,49
38400,note_on,0,0,2,,,,,,,,,1,,,59,49
38400,note_on,0,0,2,,,,,,,,,1,,,55,49
38400,note_on,108,0,2,,,,,,,,,1,,,53,49
38400,note_on,108,0,4,,,,,,,,,3,,,31,62
38400,note_on,0,0,4,,,,,,,,,3,,,43,62
38412,note_on,0,0,2,,,,,,,,,1,,,59,0
38412,note_on,0,0,2,,,,,,,,,1,,,55,0
38412,note_on,0,0,2,,,,,,,,,1,,,53,0
38412,note_on,12,0,2,,,,,,,,,1,,,62,0
38412,note_on,0,0,4,,,,,,,,,3,,,31,0
38412,note_on,12,0,4,,,,,,,,,3,,,43,0
38520,note_on,0,0,3,,,,,,,,,2,,,43,36
38520,note_on,1560,0,3,,,,,,,,,2,,,36,36
38520,note_on,0,0,1,,,,,,,,,0,,,60,49
38520,control_change,1920,0,1,,,,,,,,,0,64,127,,
38520,note_on,108,0,2,,,,,,,,,1,,,52,36
38580,note_on,60,0,1,,,,,,,,,0,,,60,0
38580,note_on,0,0,1,,,,,,,,,0,,,55,49
38640,note_on,0,0,1,,,,,,,,,0,,,55,49
38640,note_on,60,0,1,,,,,,,,,0,,,55,0
38646,note_on,6,0,1,,,,,,,,,0,,,55,0
38700,note_on,54,0,1,,,,,,,,,0,,,55,49
38706,note_on,6,0,1,,,,,,,,,0,,,55,0
38760,note_on,0,0,1,,,,,,,,,0,,,55,49
38760,control_change,54,0,1,,,,,,,,,0,64,0,,
38772,note_on,12,0,1,,,,,,,,,0,,,55,0
38880,note_on,108,0,1,,,,,,,,,0,,,60,88
38880,note_on,360,0,2,,,,,,,,,1,,,52,0
38880,note_on,360,0,3,,,,,,,,,2,,,43,0
38880,note_on,0,0,3,,,,,,,,,2,,,48,75
38880,note_on,0,0,3,,,,,,,,,2,,,36,0
38970,note_on,90,0,1,,,,,,,,,0,,,59,88
38970,note_on,90,0,3,,,,,,,,,2,,,47,75
38985,note_on,15,0,3,,,,,,,,,2,,,47,0
38985,note_on,0,0,3,,,,,,,,,2,,,48,75
38985,note_on,0,0,1,,,,,,,,,0,,,60,88
38985,note_on,15,0,1,,,,,,,,,0,,,59,0
39000,note_on,0,0,3,,,,,,,,,2,,,48,0
39000,note_on,15,0,3,,,,,,,,,2,,,48,0
39000,note_on,0,0,1,,,,,,,,,0,,,59,88
39000,note_on,0,0,1,,,,,,,,,0,,,60,0
39000,note_on,15,0,1,,,,,,,,,0,,,60,0
39000,note_on,0,0,3,,,,,,,,,2,,,47,75
39120,note_on,0,0,3,,,,,,,,,2,,,45,75
39120,note_on,0,0,1,,,,,,,,,0,,,57,88
39120,note_on,120,0,3,,,,,,,,,2,,,47,0
39120,note_on,120,0,1,,,,,,,,,0,,,59,0
39240,note_on,120,0,3,,,,,,,,,2,,,45,0
39240,note_on,0,0,1,,,,,,,,,0,,,59,88
39240,note_on,120,0,1,,,,,,,,,0,,,57,0
39240,note_on,0,0,3,,,,,,,,,2,,,47,75
39360,note_on,0,0,3,,,,,,,,,2,,,48,75
39360,note_on,120,0,3,,,,,,,,,2,,,47,0
39360,note_on,120,0,1,,,,,,,,,0,,,59,0
39360,note_on,0,0,1,,,,,,,,,0,,,60,88
39450,note_on,90,0,3,,,,,,,,,2,,,47,75
39450,note_on,90,0,1,,,,,,,,,0,,,59,88
39465,note_on,15,0,3,,,,,,,,,2,,,47,0
39465,note_on,0,0,3,,,,,,,,,2,,,48,75
39465,note_on,15,0,1,,,,,,,,,0,,,59,0
39465,note_on,0,0,1,,,,,,,,,0,,,60,88
39480,note_on,0,0,1,,,,,,,,,0,,,60,0
39480,note_on,15,0,1,,,,,,,,,0,,,60,0
39480,note_on,0,0,1,,,,,,,,,0,,,59,88
39480,note_on,0,0,3,,,,,,,,,2,,,47,75
39480,note_on,0,0,3,,,,,,,,,2,,,48,0
39480,note_on,15,0,3,,,,,,,,,2,,,48,0
39600,note_on,0,0,3,,,,,,,,,2,,,45,75
39600,note_on,120,0,3,,,,,,,,,2,,,47,0
39600,note_on,120,0,1,,,,,,,,,0,,,59,0
39600,note_on,0,0,1,,,,,,,,,0,,,57,88
39660,note_on,0,0,3,,,,,,,,,2,,,47,75
39660,note_on,60,0,3,,,,,,,,,2,,,45,0
39660,note_on,60,0,1,,,,,,,,,0,,,57,0
39660,note_on,0,0,1,,,,,,,,,0,,,59,88
39720,note_on,0,0,3,,,,,,,,,2,,,48,75
39720,note_on,60,0,1,,,,,,,,,0,,,59,0
39720,note_on,60,0,3,,,,,,,,,2,,,47,0
39720,note_on,0,0,1,,,,,,,,,0,,,60,88
39780,note_on,60,0,1,,,,,,,,,0,,,60,0
39780,note_on,60,0,3,,,,,,,,,2,,,48,0
39840,note_on,0,0,1,,,,,,,,,0,,,59,88
39840,note_on,0,0,3,,,,,,,,,2,,,43,75
39840,note_on,60,0,3,,,,,,,,,2,,,31,75
39840,note_on,60,0,1,,,,,,,,,0,,,53,88
39840,note_on,0,0,1,,,,,,,,,0,,,55,88
39840,note_on,0,0,1,,,,,,,,,0,,,62,88
39852,note_on,12,0,3,,,,,,,,,2,,,43,0
39852,note_on,0,0,1,,,,,,,,,0,,,59,0
39852,note_on,12,0,1,,,,,,,,,0,,,62,0
39852,note_on,0,0,1,,,,,,,,,0,,,53,0
39852,note_on,0,0,1,,,,,,,,,0,,,55,0
39852,note_on,0,0,3,,,,,,,,,2,,,31,0
39960,note_on,0,0,3,,,,,,,,,2,,,43,36
39960,note_on,1080,0,2,,,,,,,,,1,,,52,36
39960,note_on,108,0,3,,,,,,,,,2,,,36,36
39960,note_on,0,0,1,,,,,,,,,0,,,60,49
39960,control_change,108,0,1,,,,,,,,,0,64,127,,
40020,note_on,60,0,1,,,,,,,,,0,,,60,0
40020,note_on,0,0,1,,,,,,,,,0,,,55,49
40080,note_on,60,0,1,,,,,,,,,0,,,55,0
40080,note_on,0,0,1,,,,,,,,,0,,,55,49
40086,note_on,6,0,1,,,,,,,,,0,,,55,0
40140,note_on,54,0,1,,,,,,,,,0,,,55,49
40146,note_on,6,0,1,,,,,,,,,0,,,55,0
40200,control_change,54,0,1,,,,,,,,,0,64,0,,
40200,note_on,0,0,1,,,,,,,,,0,,,55,49
40212,note_on,12,0,1,,,,,,,,,0,,,55,0
40320,note_on,360,0,3,,,,,,,,,2,,,43,0
40320,note_on,0,0,3,,,,,,,,,2,,,36,0
40320,note_on,0,0,3,,,,,,,,,2,,,48,36
40320,note_on,108,0,1,,,,,,,,,0,,,60,49
40320,note_on,360,0,2,,,,,,,,,1,,,52,0
40410,note_on,90,0,1,,,,,,,,,0,,,59,49
40410,note_on,90,0,3,,,,,,,,,2,,,47,36
40425,note_on,0,0,3,,,,,,,,,2,,,48,36
40425,note_on,15,0,3,,,,,,,,,2,,,47,0
40425,note_on,15,0,1,,,,,,,,,0,,,59,0
40425,note_on,0,0,1,,,,,,,,,0,,,60,49
40440,note_on,15,0,1,,,,,,,,,0,,,60,0
40440,note_on,0,0,3,,,,,,,,,2,,,47,36
40440,note_on,15,0,3,,,,,,,,,2,,,48,0
40440,note_on,0,0,1,,,,,,,,,0,,,60,0
40440,note_on,0,0,3,,,,,,,,,2,,,48,0
40440,note_on,0,0,1,,,,,,,,,0,,,59,49
40560,note_on,120,0,3,,,,,,,,,2,,,47,0
40560,note_on,120,0,1,,,,,,,,,0,,,59,0
40560,note_on,0,0,1,,,,,,,,,0,,,57,49
40560,note_on,0,0,3,,,,,,,,,2,,,45,36
40680,note_on,0,0,3,,,,,,,,,2,,,47,36
40680,note_on,0,0,1,,,,,,,,,0,,,59,49
40680,note_on,120,0,1,,,,,,,,,0,,,57,0
40680,note_on,120,0,3,,,,,,,,,2,,,45,0
40800,note_on,0,0,1,,,,,,,,,0,,,60,49
40800,note_on,120,0,1,,,,,,,,,0,,,59,0
40800,note_on,0,0,3,,,,,,,,,2,,,48,36
40800,note_on,120,0,3,,,,,,,,,2,,,47,0
40890,note_on,90,0,3,,,,,,,,,2,,,47,36
40890,note_on,90,0,1,,,,,,,,,0,,,59,49
40905,note_on,0,0,3,,,,,,,,,2,,,48,36
40905,note_on,15,0,1,,,,,,,,,0,,,59,0
40905,note_on,0,0,1,,,,,,,,,0,,,60,49
40905,note_on,15,0,3,,,,,,,,,2,,,47,0
40920,note_on,0,0,3,,,,,,,,,2,,,47,36
40920,note_on,0,0,3,,,,,,,,,2,,,48,0
40920,note_on,15,0,3,,,,,,,,,2,,,48,0
40920,note_on,15,0,1,,,,,,,,,0,,,60,0
40920,note_on,0,0,1,,,,,,,,,0,,,59,49
40920,note_on,0,0,1,,,,,,,,,0,,,60,0
41040,note_on,0,0,1,,,,,,,,,0,,,57,49
41040,note_on,120,0,3,,,,,,,,,2,,,47,0
41040,note_on,0,0,3,,,,,,,,,2,,,45,36
41040,note_on,120,0,1,,,,,,,,,0,,,59,0
41100,note_on,0,0,1,,,,,,,,,0,,,59,49
41100,note_on,60,0,1,,,,,,,,,0,,,57,0
41100,note_on,60,0,3,,,,,,,,,2,,,45,0
41100,note_on,0,0,3,,,,,,,,,2,,,47,36
41160,note_on,0,0,3,,,,,,,,,2,,,48,36
41160,note_on,60,0,1,,,,,,,,,0,,,59,0
41160,note_on,0,0,1,,,,,,,,,0,,,60,49
41160,note_on,60,0,3,,,,,,,,,2,,,47,0
41220,note_on,60,0,3,,,,,,,,,2,,,48,0
41220,note_on,60,0,1,,,,,,,,,0,,,60,0
41280,note_on,60,0,3,,,,,,,,,2,,,31,36
41280,note_on,60,0,1,,,,,,,,,0,,,53,49
41280,note_on,0,0,1,,,,,,,,,0,,,55,49
41280,note_on,0,0,1,,,,,,,,,0,,,62,49
41280,note_on,0,0,3,,,,,,,,,2,,,43,36
41280,note_on,0,0,1,,,,,,,,,0,,,59,49
41292,note_on,0,0,3,,,,,,,,,2,,,31,0
41292,note_on,12,0,1,,,,,,,,,0,,,62,0
41292,note_on,0,0,1,,,,,,,,,0,,,53,0
41292,note_on,12,0,3,,,,,,,,,2,,,43,0
41292,note_on,0,0,1,,,,,,,,,0,,,55,0
41292,note_on,0,0,1,,,,,,,,,0,,,59,0
41400,note_on,2988,0,4,,,,,,,,,3,,,36,36
41400,control_change,1080,0,2,,,,,,,,,1,64,127,,
41400,note_on,0,0,2,,,,,,,,,1,,,60,49
41400,note_on,0,0,4,,,,,,,,,3,,,43,36
41400,note_on,108,0,3,,,,,,,,,2,,,52,36
41460,note_on,0,0,2,,,,,,,,,1,,,55,49
41460,note_on,60,0,2,,,,,,,,,1,,,60,0
41520,note_on,60,0,2,,,,,,,,,1,,,55,0
41520,note_on,0,0,2,,,,,,,,,1,,,55,49
41526,note_on,6,0,2,,,,,,,,,1,,,55,0
41580,note_on,54,0,2,,,,,,,,,1,,,55,49
41586,note_on,6,0,2,,,,,,,,,1,,,55,0
41640,control_change,54,0,2,,,,,,,,,1,64,0,,
41640,note_on,0,0,2,,,,,,,,,1,,,55,49
41652,note_on,12,0,2,,,,,,,,,1,,,55,0
41760,note_on,360,0,3,,,,,,,,,2,,,52,0
41760,note_on,360,0,4,,,,,,,,,3,,,43,0
41760,note_on,0,0,4,,,,,,,,,3,,,36,0
41760,note_on,0,0,4,,,,,,,,,3,,,43,36
41760,note_on,108,0,2,,,,,,,,,1,,,53,49
41760,note_on,0,0,2,,,,,,,,,1,,,55,49
41760,note_on,0,0,2,,,,,,,,,1,,,59,49
41760,note_on,0,0,2,,,,,,,,,1,,,62,49
41760,note_on,0,0,4,,,,,,,,,3,,,31,36
41772,note_on,12,0,4,,,,,,,,,3,,,43,0
41772,note_on,0,0,4,,,,,,,,,3,,,31,0
41772,note_on,0,0,2,,,,,,,,,1,,,55,0
41772,note_on,12,0,2,,,,,,,,,1,,,62,0
41772,note_on,0,0,2,,,,,,,,,1,,,53,0
41772,note_on,0,0,2,,,,,,,,,1,,,59,0
41880,control_change,108,0,2,,,,,,,,,1,64,127,,
41880,note_on,120,0,3,,,,,,,,,2,,,52,36
41880,note_on,108,0,4,,,,,,,,,3,,,36,36
41880,note_on,0,0,4,,,,,,,,,3,,,43,36
41880,note_on,0,0,2,,,,,,,,,1,,,60,49
41940,note_on,0,0,2,,,,,,,,,1,,,55,49
41940,note_on,60,0,2,,,,,,,,,1,,,60,0
42000,note_on,60,0,2,,,,,,,,,1,,,55,0
42000,note_on,0,0,2,,,,,,,,,1,,,55,49
42006,note_on,6,0,2,,,,,,,,,1,,,55,0
42060,note_on,54,0,2,,,,,,,,,1,,,55,49
42066,note_on,6,0,2,,,,,,,,,1,,,55,0
42120,control_change,54,0,2,,,,,,,,,1,64,0,,
42120,note_on,0,0,2,,,,,,,,,1,,,55,49
42132,note_on,12,0,2,,,,,,,,,1,,,55,0
42240,note_on,0,0,4,,,,,,,,,3,,,43,36
42240,note_on,0,0,4,,,,,,,,,3,,,31,36
42240,note_on,360,0,3,,,,,,,,,2,,,52,0
42240,note_on,360,0,4,,,,,,,,,3,,,43,0
42240,note_on,0,0,4,,,,,,,,,3,,,36,0
42240,note_on,0,0,2,,,,,,,,,1,,,62,49
42240,note_on,108,0,2,,,,,,,,,1,,,53,49
42240,note_on,0,0,2,,,,,,,,,1,,,55,49
42240,note_on,0,0,2,,,,,,,,,1,,,59,49
42252,note_on,0,0,2,,,,,,,,,1,,,55,0
42252,note_on,0,0,2,,,,,,,,,1,,,53,0
42252,note_on,12,0,2,,,,,,,,,1,,,62,0
42252,note_on,0,0,2,,,,,,,,,1,,,59,0
42252,note_on,0,0,4,,,,,,,,,3,,,31,0
42252,note_on,12,0,4,,,,,,,,,3,,,43,0
42360,note_on,108,0,4,,,,,,,,,3,,,36,36
42360,note_on,0,0,4,,,,,,,,,3,,,43,36
42360,note_on,120,0,3,,,,,,,,,2,,,52,36
42360,control_change,108,0,2,,,,,,,,,1,64,127,,
42360,note_on,0,0,2,,,,,,,,,1,,,60,49
42420,note_on,60,0,2,,,,,,,,,1,,,60,0
42420,note_on,0,0,2,,,,,,,,,1,,,55,49
42480,note_on,60,0,2,,,,,,,,,1,,,55,0
42480,note_on,0,0,2,,,,,,,,,1,,,55,49
42486,note_on,6,0,2,,,,,,,,,1,,,55,0
42540,note_on,54,0,2,,,,,,,,,1,,,55,49
42546,note_on,6,0,2,,,,,,,,,1,,,55,0
42600,control_change,54,0,2,,,,,,,,,1,64,0,,
42600,note_on,0,0,2,,,,,,,,,1,,,55,49
42612,note_on,12,0,2,,,,,,,,,1,,,55,0
42720,note_on,108,0,2,,,,,,,,,1,,,52,49
42720,note_on,0,0,2,,,,,,,,,1,,,56,49
42720,note_on,0,0,2,,,,,,,,,1,,,64,49
42720,note_on,360,0,3,,,,,,,,,2,,,52,0
42720,note_on,0,0,4,,,,,,,,,3,,,36,0
42720,note_on,0,0,4,,,,,,,,,3,,,40,36
42720,note_on,0,0,4,,,,,,,,,3,,,28,36
42720,note_on,360,0,4,,,,,,,,,3,,,43,0
42732,note_on,12,0,4,,,,,,,,,3,,,40,0
42732,note_on,0,0,4,,,,,,,,,3,,,28,0
42732,note_on,12,0,2,,,,,,,,,1,,,64,0
42732,note_on,0,0,2,,,,,,,,,1,,,52,0
42732,note_on,0,0,2,,,,,,,,,1,,,56,0
42840,time_signature,38400,1,0,3,4,24,8,,,,,,,,,
43200,time_signature,360,1,0,1,4,24,8,,,,,,,,,
43200,note_on,480,0,3,,,,,,,,,2,,,60,36
43200,note_on,1908,0,1,,,,,,,,,0,,,72,36
43290,note_on,90,0,3,,,,,,,,,2,,,59,36
43290,note_on,90,0,1,,,,,,,,,0,,,71,36
43305,note_on,15,0,3,,,,,,,,,2,,,59,0
43305,note_on,0,0,3,,,,,,,,,2,,,60,36
43305,note_on,0,0,1,,,,,,,,,0,,,72,36
43305,note_on,15,0,1,,,,,,,,,0,,,71,0
43320,note_on,0,0,1,,,,,,,,,0,,,72,0
43320,note_on,0,0,1,,,,,,,,,0,,,71,36
43320,note_on,15,0,1,,,,,,,,,0,,,72,0
43320,note_on,0,0,3,,,,,,,,,2,,,59,36
43320,note_on,0,0,3,,,,,,,,,2,,,60,0
43320,note_on,15,0,3,,,,,,,,,2,,,60,0
43320,time_signature,120,1,0,4,4,24,8,,,,,,,,,
43440,note_on,0,0,3,,,,,,,,,2,,,57,36
43440,note_on,120,0,1,,,,,,,,,0,,,71,0
43440,note_on,0,0,1,,,,,,,,,0,,,69,36
43440,note_on,120,0,3,,,,,,,,,2,,,59,0
43560,control_change,0,0,1,,,,,,,,,0,64,127,,
43560,note_on,120,0,3,,,,,,,,,2,,,57,0
43560,control_change,0,0,3,,,,,,,,,2,64,127,,
43560,note_on,0,0,3,,,,,,,,,2,,,64,62
43560,note_on,0,0,1,,,,,,,,,0,,,76,62
43560,note_on,120,0,1,,,,,,,,,0,,,69,0
43740,note_on,0,0,1,,,,,,,,,0,,,72,36
43740,note_on,180,0,3,,,,,,,,,2,,,64,0
43740,note_on,0,0,3,,,,,,,,,2,,,60,36
43740,note_on,180,0,1,,,,,,,,,0,,,76,0
43770,note_on,0,0,3,,,,,,,,,2,,,57,36
43770,note_on,30,0,1,,,,,,,,,0,,,72,0
43770,note_on,0,0,1,,,,,,,,,0,,,69,36
43770,note_on,30,0,3,,,,,,,,,2,,,60,0
43800,note_on,30,0,3,,,,,,,,,2,,,57,0
43800,note_on,0,0,1,,,,,,,,,0,,,64,36
43800,control_change,0,0,1,,,,,,,,,0,64,0,,
43800,note_on,30,0,1,,,,,,,,,0,,,69,0
43800,note_on,0,0,3,,,,,,,,,2,,,52,36
43800,control_change,0,0,3,,,,,,,,,2,64,0,,
44160,note_on,0,0,1,,,,,,,,,0,,,57,75
44160,note_on,0,0,3,,,,,,,,,2,,,52,62
44160,note_on,0,0,3,,,,,,,,,2,,,48,62
44160,note_on,0,0,1,,,,,,,,,0,,,64,75
44160,note_on,360,0,3,,,,,,,,,2,,,52,0
44160,note_on,360,0,1,,,,,,,,,0,,,64,0
44172,note_on,0,0,1,,,,,,,,,0,,,57,0
44172,note_on,12,0,1,,,,,,,,,0,,,64,0
44172,note_on,12,0,3,,,,,,,,,2,,,52,0
44172,note_on,0,0,3,,,,,,,,,2,,,48,0
44280,note_on,108,0,1,,,,,,,,,0,,,56,75
44280,note_on,108,0,3,,,,,,,,,2,,,47,62
44280,note_on,0,0,3,,,,,,,,,2,,,52,62
44280,note_on,0,0,1,,,,,,,,,0,,,64,75
44280,note_on,0,0,1,,,,,,,,,0,,,62,75
44292,note_on,12,0,3,,,,,,,,,2,,,52,0
44292,note_on,0,0,3,,,,,,,,,2,,,47,0
44292,note_on,0,0,1,,,,,,,,,0,,,56,0
44292,note_on,0,0,1,,,,,,,,,0,,,62,0
44292,note_on,12,0,1,,,,,,,,,0,,,64,0
44340,set_tempo,1020,1,0,,,,,,326087,,,,,,,
44400,note_on,108,0,1,,,,,,,,,0,,,57,75
44400,note_on,0,0,1,,,,,,,,,0,,,60,75
44400,note_on,0,0,1,,,,,,,,,0,,,64,75
44400,note_on,108,0,3,,,,,,,,,2,,,45,62
44400,note_on,0,0,3,,,,,,,,,2,,,52,62
44400,set_tempo,60,1,0,,,,,,340909,,,,,,,
44404,note_on,4,0,1,,,,,,,,,0,,,64,0
44404,note_on,0,0,1,,,,,,,,,0,,,60,0
44404,note_on,0,0,1,,,,,,,,,0,,,57,0
44412,note_on,0,0,3,,,,,,,,,2,,,45,0
44412,note_on,12,0,3,,,,,,,,,2,,,52,0
44460,set_tempo,60,1,0,,,,,,357143,,,,,,,
44520,note_on,0,0,1,,,,,,,,,0,,,64,75
44520,note_on,116,0,1,,,,,,,,,0,,,59,75
44520,note_on,108,0,3,,,,,,,,,2,,,43,62
44520,set_tempo,60,1,0,,,,,,375000,,,,,,,
44520,note_on,0,0,3,,,,,,,,,2,,,52,62
44532,note_on,12,0,3,,,,,,,,,2,,,52,0
44532,note_on,0,0,3,,,,,,,,,2,,,43,0
44532,note_on,12,0,1,,,,,,,,,0,,,64,0
44532,note_on,0,0,1,,,,,,,,,0,,,59,0
44580,set_tempo,60,1,0,,,,,,394737,,,,,,,
44640,note_on,0,0,1,,,,,,,,,0,,,69,75
44640,note_on,0,0,1,,,,,,,,,0,,,63,75
44640,note_on,0,0,3,,,,,,,,,2,,,52,62
44640,note_on,108,0,3,,,,,,,,,2,,,41,62
44640,set_tempo,60,1,0,,,,,,416667,,,,,,,
44640,note_on,108,0,1,,,,,,,,,0,,,57,75
44652,note_on,0,0,1,,,,,,,,,0,,,57,0
44652,note_on,0,0,3,,,,,,,,,2,,,41,0
44652,note_on,12,0,3,,,,,,,,,2,,,52,0
44652,note_on,12,0,1,,,,,,,,,0,,,69,0
44652,note_on,0,0,1,,,,,,,,,0,,,63,0
44700,set_tempo,60,1,0,,,,,,441176,,,,,,,
44760,note_on,0,0,3,,,,,,,,,2,,,52,62
44760,note_on,108,0,3,,,,,,,,,2,,,40,62
44760,note_on,0,0,1,,,,,,,,,0,,,68,75
44760,note_on,0,0,1,,,,,,,,,0,,,64,75
44760,note_on,108,0,1,,,,,,,,,0,,,56,75
44760,set_tempo,60,1,0,,,,,,326087,,,,,,,
45120,note_on,0,0,1,,,,,,,,,0,,,64,0
45120,note_on,0,0,1,,,,,,,,,0,,,74,36
45120,note_on,0,0,1,,,,,,,,,0,,,56,0
45120,note_on,0,0,3,,,,,,,,,2,,,62,36
45120,note_on,0,0,3,,,,,,,,,2,,,40,0
45120,note_on,360,0,3,,,,,,,,,2,,,52,0
45120,note_on,360,0,1,,,,,,,,,0,,,68,0
45210,note_on,90,0,1,,,,,,,,,0,,,72,36
45210,note_on,90,0,3,,,,,,,,,2,,,60,36
45225,note_on,0,0,1,,,,,,,,,0,,,74,36
45225,note_on,15,0,1,,,,,,,,,0,,,72,0
45225,note_on,15,0,3,,,,,,,,,2,,,60,0
45225,note_on,0,0,3,,,,,,,,,2,,,62,36
45240,note_on,15,0,1,,,,,,,,,0,,,74,0
45240,note_on,0,0,1,,,,,,,,,0,,,72,36
45240,note_on,15,0,3,,,,,,,,,2,,,62,0
45240,note_on,0,0,3,,,,,,,,,2,,,62,0
45240,note_on,0,0,3,,,,,,,,,2,,,60,36
45240,note_on,0,0,1,,,,,,,,,0,,,74,0
45360,note_on,120,0,1,,,,,,,,,0,,,72,0
45360,note_on,0,0,1,,,,,,,,,0,,,71,36
45360,note_on,0,0,3,,,,,,,,,2,,,59,36
45360,note_on,120,0,3,,,,,,,,,2,,,60,0
45480,control_change,0,0,3,,,,,,,,,2,64,127,,
45480,note_on,120,0,1,,,,,,,,,0,,,71,0
45480,note_on,0,0,3,,,,,,,,,2,,,65,62
45480,control_change,0,0,1,,,,,,,,,0,64,127,,
45480,note_on,0,0,1,,,,,,,,,0,,,77,62
45480,note_on,120,0,3,,,,,,,,,2,,,59,0
45660,note_on,180,0,1,,,,,,,,,0,,,77,0
45660,note_on,180,0,3,,,,,,,,,2,,,65,0
45660,note_on,0,0,3,,,,,,,,,2,,,62,36
45660,note_on,0,0,1,,,,,,,,,0,,,74,36
45690,note_on,0,0,1,,,,,,,,,0,,,71,36
45690,note_on,0,0,3,,,,,,,,,2,,,59,36
45690,note_on,30,0,3,,,,,,,,,2,,,62,0
45690,note_on,30,0,1,,,,,,,,,0,,,74,0
45720,note_on,30,0,1,,,,,,,,,0,,,71,0
45720,control_change,0,0,1,,,,,,,,,0,64,0,,
45720,note_on,0,0,1,,,,,,,,,0,,,64,36
45720,note_on,0,0,3,,,,,,,,,2,,,52,36
45720,control_change,0,0,3,,,,,,,,,2,64,0,,
45720,note_on,30,0,3,,,,,,,,,2,,,59,0
46080,note_on,0,0,3,,,,,,,,,2,,,52,62
46080,note_on,360,0,1,,,,,,,,,0,,,64,0
46080,note_on,0,0,3,,,,,,,,,2,,,50,62
46080,note_on,0,0,1,,,,,,,,,0,,,64,75
46080,note_on,0,0,1,,,,,,,,,0,,,59,75
46080,note_on,0,0,1,,,,,,,,,0,,,68,75
46080,note_on,360,0,3,,,,,,,,,2,,,52,0
46092,note_on,12,0,1,,,,,,,,,0,,,68,0
46092,note_on,0,0,1,,,,,,,,,0,,,64,0
46092,note_on,0,0,1,,,,,,,,,0,,,59,0
46092,note_on,0,0,3,,,,,,,,,2,,,50,0
46092,note_on,12,0,3,,,,,,,,,2,,,52,0
46200,note_on,108,0,1,,,,,,,,,0,,,57,75
46200,note_on,0,0,1,,,,,,,,,0,,,69,75
46200,note_on,0,0,1,,,,,,,,,0,,,64,75
46200,note_on,108,0,3,,,,,,,,,2,,,48,62
46200,note_on,0,0,3,,,,,,,,,2,,,52,62
46212,note_on,12,0,3,,,,,,,,,2,,,52,0
46212,note_on,0,0,3,,,,,,,,,2,,,48,0
46212,note_on,0,0,1,,,,,,,,,0,,,57,0
46212,note_on,0,0,1,,,,,,,,,0,,,64,0
46212,note_on,12,0,1,,,,,,,,,0,,,69,0
46260,set_tempo,1500,1,0,,,,,,340909,,,,,,,
46320,note_on,0,0,1,,,,,,,,,0,,,71,75
46320,set_tempo,60,1,0,,,,,,357143,,,,,,,
46320,note_on,108,0,1,,,,,,,,,0,,,59,75
46320,note_on,108,0,3,,,,,,,,,2,,,47,62
46320,note_on,0,0,3,,,,,,,,,2,,,52,62
46320,note_on,0,0,1,,,,,,,,,0,,,64,75
46332,note_on,0,0,1,,,,,,,,,0,,,59,0
46332,note_on,0,0,1,,,,,,,,,0,,,64,0
46332,note_on,12,0,1,,,,,,,,,0,,,71,0
46332,note_on,0,0,3,,,,,,,,,2,,,47,0
46332,note_on,12,0,3,,,,,,,,,2,,,52,0
46380,set_tempo,60,1,0,,,,,,375000,,,,,,,
46440,note_on,0,0,3,,,,,,,,,2,,,52,62
46440,note_on,108,0,3,,,,,,,,,2,,,45,62
46440,note_on,108,0,1,,,,,,,,,0,,,60,75
46440,note_on,0,0,1,,,,,,,,,0,,,64,75
46440,note_on,0,0,1,,,,,,,,,0,,,72,75
46440,set_tempo,60,1,0,,,,,,394737,,,,,,,
46452,note_on,0,0,3,,,,,,,,,2,,,45,0
46452,note_on,12,0,1,,,,,,,,,0,,,72,0
46452,note_on,0,0,1,,,,,,,,,0,,,64,0
46452,note_on,0,0,1,,,,,,,,,0,,,60,0
46452,note_on,12,0,3,,,,,,,,,2,,,52,0
46500,set_tempo,60,1,0,,,,,,416667,,,,,,,
46560,note_on,0,0,3,,,,,,,,,2,,,52,62
46560,note_on,0,0,1,,,,,,,,,0,,,76,75
46560,note_on,108,0,1,,,,,,,,,0,,,64,75
46560,note_on,108,0,3,,,,,,,,,2,,,44,62
46560,set_tempo,60,1,0,,,,,,441176,,,,,,,
46560,note_on,0,0,1,,,,,,,,,0,,,71,75
46572,note_on,0,0,1,,,,,,,,,0,,,71,0
46572,note_on,12,0,1,,,,,,,,,0,,,76,0
46572,note_on,0,0,1,,,,,,,,,0,,,64,0
46572,note_on,12,0,3,,,,,,,,,2,,,52,0
46572,note_on,0,0,3,,,,,,,,,2,,,44,0
46620,set_tempo,60,1,0,,,,,,468750,,,,,,,
46680,note_on,108,0,1,,,,,,,,,0,,,69,75
46680,set_tempo,60,1,0,,,,,,500000,,,,,,,
46680,note_on,0,0,1,,,,,,,,,0,,,76,75
46680,note_on,108,0,3,,,,,,,,,2,,,42,62
46680,note_on,0,0,3,,,,,,,,,2,,,54,62
46680,note_on,0,0,1,,,,,,,,,0,,,81,75
47160,control_change,0,0,1,,,,,,,,,0,64,127,,
47160,note_on,0,0,1,,,,,,,,,0,,,69,0
47160,note_on,480,0,1,,,,,,,,,0,,,76,0
47160,note_on,0,0,3,,,,,,,,,2,,,53,62
47160,note_on,0,0,3,,,,,,,,,2,,,41,62
47160,note_on,0,0,3,,,,,,,,,2,,,42,0
47160,note_on,480,0,3,,,,,,,,,2,,,54,0
47160,note_on,4428,0,2,,,,,,,,,1,,,69,62
47160,note_on,0,0,2,,,,,,,,,1,,,75,62
47220,note_on,60,0,1,,,,,,,,,0,,,81,0
47220,note_on,0,0,1,,,,,,,,,0,,,83,75
47250,note_on,0,0,1,,,,,,,,,0,,,81,75
47250,note_on,30,0,1,,,,,,,,,0,,,83,0
47280,note_on,0,0,1,,,,,,,,,0,,,80,75
47280,note_on,30,0,1,,,,,,,,,0,,,81,0
47340,note_on,0,0,1,,,,,,,,,0,,,81,75
47340,note_on,60,0,1,,,,,,,,,0,,,80,0
47400,note_on,0,0,1,,,,,,,,,0,,,84,75
47400,note_on,60,0,1,,,,,,,,,0,,,81,0
47520,note_on,120,0,1,,,,,,,,,0,,,84,0
47520,control_change,0,0,1,,,,,,,,,0,64,0,,
47520,note_on,0,0,1,,,,,,,,,0,,,83,75
47640,set_tempo,960,1,0,,,,,,312500,,,,,,,
47640,note_on,120,0,1,,,,,,,,,0,,,83,0
47640,control_change,0,0,1,,,,,,,,,0,64,127,,
47640,note_on,0,0,1,,,,,,,,,0,,,76,75
47640,note_on,0,0,1,,,,,,,,,0,,,80,75
47640,note_on,4908,0,4,,,,,,,,,3,,,40,62
47640,note_on,0,0,2,,,,,,,,,1,,,68,62
47640,note_on,480,0,3,,,,,,,,,2,,,53,0
47640,note_on,0,0,2,,,,,,,,,1,,,69,0
47640,note_on,480,0,2,,,,,,,,,1,,,75,0
47640,note_on,0,0,3,,,,,,,,,2,,,41,0
47640,control_change,0,0,3,,,,,,,,,2,64,127,,
47640,note_on,0,0,3,,,,,,,,,2,,,52,62
47700,note_on,0,0,1,,,,,,,,,0,,,76,0
47700,note_on,60,0,1,,,,,,,,,0,,,80,0
47700,note_on,60,0,2,,,,,,,,,1,,,68,0
47760,note_on,60,0,1,,,,,,,,,0,,,64,75
47760,note_on,120,0,4,,,,,,,,,3,,,40,0
47880,note_on,240,0,3,,,,,,,,,2,,,52,0
47880,note_on,0,0,3,,,,,,,,,2,,,52,62
48000,note_on,0,0,1,,,,,,,,,0,,,64,75
48000,note_on,240,0,1,,,,,,,,,0,,,64,0
48120,note_on,0,0,3,,,,,,,,,2,,,52,62
48120,note_on,240,0,3,,,,,,,,,2,,,52,0
48240,note_on,0,0,1,,,,,,,,,0,,,64,75
48240,note_on,240,0,1,,,,,,,,,0,,,64,0
48360,note_on,0,0,3,,,,,,,,,2,,,52,62
48360,control_change,0,0,3,,,,,,,,,2,64,0,,
48360,note_on,240,0,3,,,,,,,,,2,,,52,0
48480,note_on,0,0,1,,,,,,,,,0,,,64,75
48480,control_change,0,0,1,,,,,,,,,0,64,0,,
48480,note_on,240,0,1,,,,,,,,,0,,,64,0
48600,note_on,0,0,3,,,,,,,,,2,,,52,62
48600,note_on,0,0,3,,,,,,,,,2,,,40,62
48600,note_on,240,0,3,,,,,,,,,2,,,52,0
48600,note_on,0,0,1,,,,,,,,,0,,,65,75
48600,note_on,120,0,1,,,,,,,,,0,,,64,0
48660,note_on,0,0,1,,,,,,,,,0,,,57,75
48660,note_on,60,0,1,,,,,,,,,0,,,65,0
48720,note_on,120,0,3,,,,,,,,,2,,,52,0
48720,note_on,0,0,1,,,,,,,,,0,,,60,75
48720,note_on,0,0,3,,,,,,,,,2,,,52,62
48720,note_on,0,0,3,,,,,,,,,2,,,40,62
48720,note_on,60,0,1,,,,,,,,,0,,,57,0
48720,note_on,0,0,3,,,,,,,,,2,,,40,0
48780,note_on,60,0,1,,,,,,,,,0,,,60,0
48780,note_on,0,0,1,,,,,,,,,0,,,64,75
48840,note_on,0,0,1,,,,,,,,,0,,,65,75
48840,note_on,0,0,3,,,,,,,,,2,,,40,62
48840,note_on,0,0,3,,,,,,,,,2,,,40,0
48840,note_on,120,0,3,,,,,,,,,2,,,52,0
48840,note_on,0,0,3,,,,,,,,,2,,,52,62
48840,note_on,60,0,1,,,,,,,,,0,,,64,0
48900,note_on,60,0,1,,,,,,,,,0,,,65,0
48900,note_on,0,0,1,,,,,,,,,0,,,57,75
48960,note_on,60,0,1,,,,,,,,,0,,,57,0
48960,note_on,0,0,1,,,,,,,,,0,,,60,75
48960,note_on,0,0,3,,,,,,,,,2,,,40,62
48960,note_on,0,0,3,,,,,,,,,2,,,40,0
48960,note_on,120,0,3,,,,,,,,,2,,,52,0
48960,note_on,0,0,3,,,,,,,,,2,,,52,62
49020,note_on,60,0,1,,,,,,,,,0,,,60,0
49020,note_on,0,0,1,,,,,,,,,0,,,64,75
49080,note_on,0,0,3,,,,,,,,,2,,,52,62
49080,note_on,0,0,3,,,,,,,,,2,,,40,62
49080,note_on,0,0,3,,,,,,,,,2,,,40,0
49080,note_on,120,0,3,,,,,,,,,2,,,52,0
49080,note_on,0,0,1,,,,,,,,,0,,,65,75
49080,note_on,60,0,1,,,,,,,,,0,,,64,0
49140,note_on,60,0,1,,,,,,,,,0,,,65,0
49140,note_on,0,0,1,,,,,,,,,0,,,59,75
49200,note_on,0,0,3,,,,,,,,,2,,,52,62
49200,note_on,0,0,3,,,,,,,,,2,,,40,0
49200,note_on,120,0,3,,,,,,,,,2,,,52,0
49200,note_on,0,0,3,,,,,,,,,2,,,40,62
49200,note_on,60,0,1,,,,,,,,,0,,,59,0
49200,note_on,0,0,1,,,,,,,,,0,,,62,75
49260,note_on,60,0,1,,,,,,,,,0,,,62,0
49260,note_on,0,0,1,,,,,,,,,0,,,65,75
49320,note_on,0,0,1,,,,,,,,,0,,,71,101
49320,note_on,60,0,1,,,,,,,,,0,,,65,0
49320,note_on,0,0,3,,,,,,,,,2,,,52,88
49320,note_on,0,0,3,,,,,,,,,2,,,40,80
49320,note_on,0,0,3,,,,,,,,,2,,,40,0
49320,note_on,120,0,3,,,,,,,,,2,,,52,0
49380,note_on,1680,0,2,,,,,,,,,1,,,62,62
49440,note_on,60,0,2,,,,,,,,,1,,,62,0
49440,note_on,0,0,3,,,,,,,,,2,,,40,0
49440,note_on,120,0,3,,,,,,,,,2,,,52,0
49440,note_on,0,0,3,,,,,,,,,2,,,52,62
49440,note_on,0,0,2,,,,,,,,,1,,,65,62
49440,note_on,0,0,3,,,,,,,,,2,,,40,62
49500,note_on,60,0,2,,,,,,,,,1,,,65,0
49500,note_on,180,0,1,,,,,,,,,0,,,71,0
49500,note_on,0,0,1,,,,,,,,,0,,,71,101
49560,note_on,0,0,3,,,,,,,,,2,,,40,62
49560,note_on,0,0,1,,,,,,,,,0,,,68,75
49560,note_on,60,0,1,,,,,,,,,0,,,71,0
49560,note_on,120,0,3,,,,,,,,,2,,,52,0
49560,note_on,0,0,3,,,,,,,,,2,,,40,0
49560,control_change,0,0,3,,,,,,,,,2,64,127,,
49560,note_on,0,0,1,,,,,,,,,0,,,64,75
49560,note_on,0,0,3,,,,,,,,,2,,,52,62
49560,control_change,0,0,1,,,,,,,,,0,64,127,,
49620,note_on,60,0,1,,,,,,,,,0,,,68,0
49620,note_on,0,0,1,,,,,,,,,0,,,64,0
49680,note_on,60,0,1,,,,,,,,,0,,,76,75
49800,note_on,0,0,3,,,,,,,,,2,,,52,62
49800,note_on,0,0,3,,,,,,,,,2,,,40,0
49800,note_on,240,0,3,,,,,,,,,2,,,52,0
49800,note_on,0,0,3,,,,,,,,,2,,,64,62
49920,note_on,240,0,1,,,,,,,,,0,,,76,0
49920,note_on,0,0,1,,,,,,,,,0,,,76,75
50040,note_on,0,0,3,,,,,,,,,2,,,52,0
50040,note_on,0,0,3,,,,,,,,,2,,,64,62
50040,note_on,0,0,3,,,,,,,,,2,,,52,62
50040,note_on,240,0,3,,,,,,,,,2,,,64,0
50160,note_on,240,0,1,,,,,,,,,0,,,76,0
50160,note_on,0,0,1,,,,,,,,,0,,,76,75
50280,note_on,0,0,3,,,,,,,,,2,,,52,0
50280,note_on,240,0,3,,,,,,,,,2,,,64,0
50280,note_on,0,0,3,,,,,,,,,2,,,52,62
50280,note_on,0,0,3,,,,,,,,,2,,,64,62
50280,control_change,0,0,3,,,,,,,,,2,64,0,,
50400,control_change,0,0,1,,,,,,,,,0,64,0,,
50400,note_on,0,0,1,,,,,,,,,0,,,76,75
50400,note_on,240,0,1,,,,,,,,,0,,,76,0
50520,note_on,0,0,3,,,,,,,,,2,,,60,62
50520,note_on,0,0,3,,,,,,,,,2,,,64,62
50520,note_on,0,0,3,,,,,,,,,2,,,52,62
50520,note_on,0,0,3,,,,,,,,,2,,,52,0
50520,note_on,240,0,3,,,,,,,,,2,,,64,0
50520,note_on,120,0,1,,,,,,,,,0,,,76,0
50520,note_on,0,0,1,,,,,,,,,0,,,77,75
50520,note_on,0,0,3,,,,,,,,,2,,,57,62
50580,note_on,60,0,1,,,,,,,,,0,,,77,0
50580,note_on,0,0,1,,,,,,,,,0,,,69,75
50640,note_on,0,0,3,,,,,,,,,2,,,60,0
50640,note_on,0,0,3,,,,,,,,,2,,,64,62
50640,note_on,0,0,3,,,,,,,,,2,,,60,62
50640,note_on,0,0,3,,,,,,,,,2,,,57,62
50640,note_on,0,0,3,,,,,,,,,2,,,52,62
50640,note_on,0,0,3,,,,,,,,,2,,,57,0
50640,note_on,120,0,3,,,,,,,,,2,,,64,0
50640,note_on,0,0,3,,,,,,,,,2,,,52,0
50640,note_on,0,0,1,,,,,,,,,0,,,72,75
50640,note_on,60,0,1,,,,,,,,,0,,,69,0
50700,note_on,60,0,1,,,,,,,,,0,,,72,0
50700,note_on,0,0,1,,,,,,,,,0,,,76,75
50760,note_on,0,0,3,,,,,,,,,2,,,52,62
50760,note_on,0,0,3,,,,,,,,,2,,,60,62
50760,note_on,60,0,1,,,,,,,,,0,,,76,0
50760,note_on,0,0,1,,,,,,,,,0,,,77,75
50760,note_on,0,0,3,,,,,,,,,2,,,64,62
50760,note_on,120,0,3,,,,,,,,,2,,,64,0
50760,note_on,0,0,3,,,,,,,,,2,,,52,0
50760,note_on,0,0,3,,,,,,,,,2,,,57,0
50760,note_on,0,0,3,,,,,,,,,2,,,60,0
50760,note_on,0,0,3,,,,,,,,,2,,,57,62
50820,note_on,0,0,1,,,,,,,,,0,,,69,75
50820,note_on,60,0,1,,,,,,,,,0,,,77,0
50880,note_on,120,0,3,,,,,,,,,2,,,64,0
50880,note_on,0,0,3,,,,,,,,,2,,,52,0
50880,note_on,0,0,3,,,,,,,,,2,,,60,62
50880,note_on,0,0,3,,,,,,,,,2,,,60,0
50880,note_on,0,0,3,,,,,,,,,2,,,52,62
50880,note_on,0,0,3,,,,,,,,,2,,,57,62
50880,note_on,60,0,1,,,,,,,,,0,,,69,0
50880,note_on,0,0,3,,,,,,,,,2,,,64,62
50880,note_on,0,0,1,,,,,,,,,0,,,72,75
50880,note_on,0,0,3,,,,,,,,,2,,,57,0
50940,note_on,60,0,1,,,,,,,,,0,,,72,0
50940,note_on,0,0,1,,,,,,,,,0,,,76,75
51000,note_on,60,0,1,,,,,,,,,0,,,76,0
51000,note_on,0,0,1,,,,,,,,,0,,,77,75
51000,note_on,0,0,3,,,,,,,,,2,,,64,62
51000,note_on,0,0,3,,,,,,,,,2,,,59,62
51000,note_on,0,0,3,,,,,,,,,2,,,52,62
51000,note_on,0,0,3,,,,,,,,,2,,,60,0
51000,note_on,0,0,3,,,,,,,,,2,,,52,0
51000,note_on,120,0,3,,,,,,,,,2,,,64,0
51000,note_on,0,0,3,,,,,,,,,2,,,62,62
51000,note_on,0,0,3,,,,,,,,,2,,,57,0
51060,note_on,60,0,1,,,,,,,,,0,,,77,0
51060,note_on,0,0,1,,,,,,,,,0,,,71,75
51120,note_on,0,0,3,,,,,,,,,2,,,59,0
51120,note_on,0,0,3,,,,,,,,,2,,,52,0
51120,note_on,60,0,1,,,,,,,,,0,,,71,0
51120,note_on,0,0,1,,,,,,,,,0,,,74,75
51120,note_on,120,0,3,,,,,,,,,2,,,64,0
51120,note_on,0,0,3,,,,,,,,,2,,,64,62
51120,note_on,0,0,3,,,,,,,,,2,,,62,62
51120,note_on,0,0,3,,,,,,,,,2,,,52,62
51120,note_on,0,0,3,,,,,,,,,2,,,62,0
51120,note_on,0,0,3,,,,,,,,,2,,,59,62
51180,note_on,60,0,1,,,,,,,,,0,,,74,0
51180,note_on,0,0,1,,,,,,,,,0,,,77,75
51240,note_on,120,0,3,,,,,,,,,2,,,64,0
51240,note_on,0,0,3,,,,,,,,,2,,,52,0
51240,note_on,0,0,3,,,,,,,,,2,,,59,0
51240,note_on,0,0,3,,,,,,,,,2,,,62,0
51240,note_on,0,0,3,,,,,,,,,2,,,52,76
51240,note_on,0,0,3,,,,,,,,,2,,,59,80
51240,note_on,0,0,3,,,,,,,,,2,,,62,84
51240,note_on,0,0,3,,,,,,,,,2,,,64,88
51240,note_on,0,0,1,,,,,,,,,0,,,83,101
51240,note_on,60,0,1,,,,,,,,,0,,,77,0
51300,note_on,1800,0,2,,,,,,,,,1,,,74,62
51360,note_on,0,0,2,,,,,,,,,1,,,77,62
51360,note_on,0,0,3,,,,,,,,,2,,,52,62
51360,note_on,0,0,3,,,,,,,,,2,,,64,62
51360,note_on,0,0,3,,,,,,,,,2,,,62,62
51360,note_on,0,0,3,,,,,,,,,2,,,59,62
51360,note_on,0,0,3,,,,,,,,,2,,,62,0
51360,note_on,0,0,3,,,,,,,,,2,,,59,0
51360,note_on,120,0,3,,,,,,,,,2,,,64,0
51360,note_on,60,0,2,,,,,,,,,1,,,74,0
51360,note_on,0,0,3,,,,,,,,,2,,,52,0
51420,note_on,60,0,2,,,,,,,,,1,,,77,0
51420,note_on,0,0,1,,,,,,,,,0,,,83,101
51420,note_on,180,0,1,,,,,,,,,0,,,83,0
51480,note_on,0,0,3,,,,,,,,,2,,,64,75
51480,note_on,0,0,3,,,,,,,,,2,,,52,75
51480,control_change,0,0,3,,,,,,,,,2,64,127,,
51480,note_on,0,0,3,,,,,,,,,2,,,62,0
51480,note_on,120,0,3,,,,,,,,,2,,,64,0
51480,note_on,0,0,3,,,,,,,,,2,,,59,0
51480,note_on,0,0,3,,,,,,,,,2,,,52,0
51480,note_on,60,0,1,,,,,,,,,0,,,83,0
51480,control_change,0,0,1,,,,,,,,,0,64,127,,
51480,note_on,0,0,1,,,,,,,,,0,,,76,88
51480,note_on,0,0,1,,,,,,,,,0,,,80,88
51600,note_on,120,0,1,,,,,,,,,0,,,80,0
51600,note_on,0,0,1,,,,,,,,,0,,,76,88
51600,note_on,0,0,1,,,,,,,,,0,,,88,88
51600,note_on,0,0,1,,,,,,,,,0,,,76,0
51720,note_on,240,0,3,,,,,,,,,2,,,64,0
51720,note_on,0,0,3,,,,,,,,,2,,,52,0
51720,note_on,0,0,3,,,,,,,,,2,,,52,75
51720,note_on,0,0,3,,,,,,,,,2,,,64,75
51840,note_on,240,0,1,,,,,,,,,0,,,88,0
51840,note_on,0,0,1,,,,,,,,,0,,,76,0
51840,note_on,0,0,1,,,,,,,,,0,,,76,88
51840,note_on,0,0,1,,,,,,,,,0,,,88,88
51960,note_on,0,0,3,,,,,,,,,2,,,64,75
51960,note_on,0,0,3,,,,,,,,,2,,,52,75
51960,note_on,0,0,3,,,,,,,,,2,,,52,0
51960,note_on,240,0,3,,,,,,,,,2,,,64,0
52080,note_on,0,0,1,,,,,,,,,0,,,88,88
52080,note_on,0,0,1,,,,,,,,,0,,,76,88
52080,note_on,0,0,1,,,,,,,,,0,,,76,0
52080,note_on,240,0,1,,,,,,,,,0,,,88,0
52200,control_change,0,0,3,,,,,,,,,2,64,0,,
52200,note_on,0,0,3,,,,,,,,,2,,,52,0
52200,note_on,240,0,3,,,,,,,,,2,,,64,0
52200,note_on,0,0,3,,,,,,,,,2,,,52,75
52200,note_on,0,0,3,,,,,,,,,2,,,64,75
52320,control_change,0,0,1,,,,,,,,,0,64,0,,
52320,note_on,0,0,1,,,,,,,,,0,,,88,88
52320,note_on,0,0,1,,,,,,,,,0,,,76,88
52320,note_on,0,0,1,,,,,,,,,0,,,76,0
52320,note_on,240,0,1,,,,,,,,,0,,,88,0
52440,note_on,0,0,1,,,,,,,,,0,,,93,101
52440,note_on,0,0,1,,,,,,,,,0,,,76,0
52440,note_on,120,0,1,,,,,,,,,0,,,88,0
52440,note_on,0,0,1,,,,,,,,,0,,,81,101
52440,note_on,0,0,1,,,,,,,,,0,,,84,101
52440,note_on,0,0,3,,,,,,,,,2,,,52,0
52440,note_on,0,0,3,,,,,,,,,2,,,53,88
52440,note_on,0,0,3,,,,,,,,,2,,,65,88
52440,note_on,240,0,3,,,,,,,,,2,,,64,0
52452,note_on,12,0,3,,,,,,,,,2,,,65,0
52452,note_on,0,0,1,,,,,,,,,0,,,81,0
52452,note_on,0,0,1,,,,,,,,,0,,,84,0
52452,note_on,12,0,1,,,,,,,,,0,,,93,0
52452,note_on,0,0,3,,,,,,,,,2,,,53,0
52560,note_on,0,0,3,,,,,,,,,2,,,65,88
52560,note_on,0,0,1,,,,,,,,,0,,,81,101
52560,note_on,0,0,1,,,,,,,,,0,,,75,101
52560,note_on,0,0,1,,,,,,,,,0,,,72,101
52560,note_on,108,0,1,,,,,,,,,0,,,69,101
52560,note_on,108,0,3,,,,,,,,,2,,,53,88
52800,note_on,240,0,1,,,,,,,,,0,,,81,0
52800,note_on,0,0,1,,,,,,,,,0,,,72,0
52800,note_on,0,0,1,,,,,,,,,0,,,75,0
52800,note_on,0,0,1,,,,,,,,,0,,,69,101
52800,note_on,0,0,1,,,,,,,,,0,,,72,101
52800,note_on,0,0,1,,,,,,,,,0,,,75,101
52800,note_on,0,0,1,,,,,,,,,0,,,81,101
52800,note_on,240,0,3,,,,,,,,,2,,,65,0
52800,note_on,0,0,3,,,,,,,,,2,,,53,0
52800,note_on,0,0,1,,,,,,,,,0,,,69,0
52800,note_on,0,0,3,,,,,,,,,2,,,53,88
52800,note_on,0,0,3,,,,,,,,,2,,,65,88
52920,note_on,0,0,1,,,,,,,,,0,,,70,101
52920,note_on,0,0,1,,,,,,,,,0,,,74,101
52920,note_on,0,0,1,,,,,,,,,0,,,72,0
52920,note_on,0,0,1,,,,,,,,,0,,,69,0
52920,note_on,0,0,1,,,,,,,,,0,,,82,101
52920,note_on,120,0,1,,,,,,,,,0,,,81,0
52920,note_on,0,0,1,,,,,,,,,0,,,75,0
52920,note_on,120,0,3,,,,,,,,,2,,,65,0
52920,note_on,0,0,3,,,,,,,,,2,,,65,88
52920,note_on,0,0,3,,,,,,,,,2,,,53,88
52920,note_on,0,0,3,,,,,,,,,2,,,53,0
52932,note_on,0,0,3,,,,,,,,,2,,,53,0
52932,note_on,12,0,3,,,,,,,,,2,,,65,0
52932,note_on,12,0,1,,,,,,,,,0,,,82,0
52932,note_on,0,0,1,,,,,,,,,0,,,74,0
52932,note_on,0,0,1,,,,,,,,,0,,,70,0
53040,note_on,0,0,3,,,,,,,,,2,,,53,88
53040,note_on,108,0,3,,,,,,,,,2,,,41,88
53040,note_on,108,0,1,,,,,,,,,0,,,81,101
53040,note_on,0,0,1,,,,,,,,,0,,,87,101
53040,note_on,0,0,1,,,,,,,,,0,,,93,101
53040,note_on,0,0,1,,,,,,,,,0,,,84,101
53280,note_on,0,0,1,,,,,,,,,0,,,81,0
53280,note_on,0,0,3,,,,,,,,,2,,,53,88
53280,note_on,240,0,3,,,,,,,,,2,,,53,0
53280,note_on,0,0,1,,,,,,,,,0,,,84,0
53280,note_on,0,0,1,,,,,,,,,0,,,93,101
53280,note_on,0,0,1,,,,,,,,,0,,,87,101
53280,note_on,0,0,3,,,,,,,,,2,,,41,0
53280,note_on,0,0,3,,,,,,,,,2,,,41,88
53280,note_on,240,0,1,,,,,,,,,0,,,93,0
53280,note_on,0,0,1,,,,,,,,,0,,,81,101
53280,note_on,0,0,1,,,,,,,,,0,,,87,0
53280,note_on,0,0,1,,,,,,,,,0,,,84,101
53400,note_on,120,0,3,,,,,,,,,2,,,53,0
53400,note_on,0,0,3,,,,,,,,,2,,,41,0
53400,note_on,0,0,3,,,,,,,,,2,,,41,88
53400,note_on,0,0,3,,,,,,,,,2,,,53,88
53400,note_on,0,0,1,,,,,,,,,0,,,87,0
53400,note_on,0,0,1,,,,,,,,,0,,,86,101
53400,note_on,0,0,1,,,,,,,,,0,,,82,101
53400,note_on,0,0,1,,,,,,,,,0,,,84,0
53400,note_on,0,0,1,,,,,,,,,0,,,81,0
53400,note_on,120,0,1,,,,,,,,,0,,,93,0
53400,note_on,0,0,1,,,,,,,,,0,,,94,101
53412,note_on,0,0,1,,,,,,,,,0,,,82,0
53412,note_on,12,0,1,,,,,,,,,0,,,94,0
53412,note_on,0,0,3,,,,,,,,,2,,,41,0
53412,note_on,12,0,3,,,,,,,,,2,,,53,0
53412,note_on,0,0,1,,,,,,,,,0,,,86,0
53520,note_on,0,0,1,,,,,,,,,0,,,72,101
53520,note_on,108,0,3,,,,,,,,,2,,,53,88
53520,note_on,0,0,1,,,,,,,,,0,,,75,101
53520,note_on,0,0,1,,,,,,,,,0,,,81,101
53520,note_on,108,0,1,,,,,,,,,0,,,69,101
53520,note_on,0,0,3,,,,,,,,,2,,,65,88
53760,note_on,0,0,1,,,,,,,,,0,,,81,101
53760,note_on,0,0,3,,,,,,,,,2,,,65,88
53760,note_on,0,0,3,,,,,,,,,2,,,53,88
53760,note_on,0,0,3,,,,,,,,,2,,,53,0
53760,note_on,0,0,1,,,,,,,,,0,,,75,101
53760,note_on,240,0,3,,,,,,,,,2,,,65,0
53760,note_on,0,0,1,,,,,,,,,0,,,69,101
53760,note_on,0,0,1,,,,,,,,,0,,,75,0
53760,note_on,0,0,1,,,,,,,,,0,,,72,0
53760,note_on,0,0,1,,,,,,,,,0,,,69,0
53760,note_on,240,0,1,,,,,,,,,0,,,81,0
53760,note_on,0,0,1,,,,,,,,,0,,,72,101
53880,note_on,0,0,1,,,,,,,,,0,,,74,101
53880,note_on,0,0,1,,,,,,,,,0,,,82,101
53880,note_on,120,0,1,,,,,,,,,0,,,81,0
53880,note_on,0,0,1,,,,,,,,,0,,,75,0
53880,note_on,0,0,1,,,,,,,,,0,,,70,101
53880,note_on,0,0,3,,,,,,,,,2,,,65,88
53880,note_on,0,0,1,,,,,,,,,0,,,72,0
53880,note_on,0,0,3,,,,,,,,,2,,,53,88
53880,note_on,0,0,3,,,,,,,,,2,,,53,0
53880,note_on,120,0,3,,,,,,,,,2,,,65,0
53880,note_on,0,0,1,,,,,,,,,0,,,69,0
53892,note_on,0,0,3,,,,,,,,,2,,,53,0
53892,note_on,12,0,3,,,,,,,,,2,,,65,0
53892,note_on,0,0,1,,,,,,,,,0,,,70,0
53892,note_on,0,0,1,,,,,,,,,0,,,74,0
53892,note_on,12,0,1,,,,,,,,,0,,,82,0
54000,note_on,108,0,3,,,,,,,,,2,,,41,88
54000,note_on,0,0,1,,,,,,,,,0,,,84,101
54000,note_on,108,0,1,,,,,,,,,0,,,81,101
54000,note_on,0,0,1,,,,,,,,,0,,,93,101
54000,note_on,0,0,1,,,,,,,,,0,,,87,101
54000,note_on,0,0,3,,,,,,,,,2,,,53,88
54240,note_on,0,0,3,,,,,,,,,2,,,53,88
54240,note_on,0,0,3,,,,,,,,,2,,,41,0
54240,note_on,240,0,3,,,,,,,,,2,,,53,0
54240,note_on,240,0,1,,,,,,,,,0,,,93,0
54240,note_on,0,0,1,,,,,,,,,0,,,81,0
54240,note_on,0,0,3,,,,,,,,,2,,,41,88
54240,note_on,0,0,1,,,,,,,,,0,,,84,0
54240,note_on,0,0,1,,,,,,,,,0,,,87,0
54240,note_on,0,0,1,,,,,,,,,0,,,93,101
54240,note_on,0,0,1,,,,,,,,,0,,,81,101
54240,note_on,0,0,1,,,,,,,,,0,,,84,101
54240,note_on,0,0,1,,,,,,,,,0,,,87,101
54360,note_on,0,0,3,,,,,,,,,2,,,40,88
54360,note_on,120,0,3,,,,,,,,,2,,,53,0
54360,note_on,0,0,3,,,,,,,,,2,,,41,0
54360,note_on,0,0,3,,,,,,,,,2,,,52,88
54360,note_on,120,0,1,,,,,,,,,0,,,93,0
54360,note_on,0,0,1,,,,,,,,,0,,,93,101
54360,note_on,0,0,1,,,,,,,,,0,,,88,101
54360,note_on,0,0,1,,,,,,,,,0,,,84,101
54360,note_on,0,0,1,,,,,,,,,0,,,81,101
54360,note_on,0,0,1,,,,,,,,,0,,,87,0
54360,note_on,0,0,1,,,,,,,,,0,,,84,0
54360,note_on,0,0,1,,,,,,,,,0,,,81,0
54372,note_on,12,0,3,,,,,,,,,2,,,52,0
54372,note_on,0,0,1,,,,,,,,,0,,,88,0
54372,note_on,0,0,1,,,,,,,,,0,,,84,0
54372,note_on,0,0,1,,,,,,,,,0,,,81,0
54372,note_on,12,0,1,,,,,,,,,0,,,93,0
54372,note_on,0,0,3,,,,,,,,,2,,,40,0
54600,note_on,0,0,1,,,,,,,,,0,,,84,101
54600,note_on,0,0,1,,,,,,,,,0,,,88,101
54600,note_on,0,0,3,,,,,,,,,2,,,64,88
54600,note_on,0,0,3,,,,,,,,,2,,,60,88
54600,note_on,0,0,3,,,,,,,,,2,,,57,88
54600,note_on,228,0,3,,,,,,,,,2,,,52,88
54600,note_on,228,0,1,,,,,,,,,0,,,76,101
54600,note_on,0,0,1,,,,,,,,,0,,,81,101
54612,note_on,0,0,1,,,,,,,,,0,,,76,0
54612,note_on,0,0,1,,,,,,,,,0,,,81,0
54612,note_on,0,0,1,,,,,,,,,0,,,84,0
54612,note_on,0,0,3,,,,,,,,,2,,,60,0
54612,note_on,0,0,3,,,,,,,,,2,,,57,0
54612,note_on,0,0,3,,,,,,,,,2,,,52,0
54612,note_on,12,0,3,,,,,,,,,2,,,64,0
54612,note_on,12,0,1,,,,,,,,,0,,,88,0
54840,note_on,0,0,3,,,,,,,,,2,,,64,88
54840,note_on,0,0,3,,,,,,,,,2,,,59,88
54840,note_on,228,0,3,,,,,,,,,2,,,52,88
54840,note_on,0,0,1,,,,,,,,,0,,,88,101
54840,note_on,0,0,1,,,,,,,,,0,,,83,101
54840,note_on,0,0,1,,,,,,,,,0,,,81,101
54840,note_on,0,0,3,,,,,,,,,2,,,57,88
54840,note_on,228,0,1,,,,,,,,,0,,,76,101
54852,note_on,0,0,3,,,,,,,,,2,,,59,0
54852,note_on,0,0,3,,,,,,,,,2,,,57,0
54852,note_on,0,0,3,,,,,,,,,2,,,52,0
54852,note_on,0,0,1,,,,,,,,,0,,,76,0
54852,note_on,0,0,1,,,,,,,,,0,,,81,0
54852,note_on,0,0,1,,,,,,,,,0,,,83,0
54852,note_on,12,0,3,,,,,,,,,2,,,64,0
54852,note_on,12,0,1,,,,,,,,,0,,,88,0
55080,note_on,0,0,3,,,,,,,,,2,,,64,88
55080,note_on,0,0,3,,,,,,,,,2,,,59,88
55080,note_on,0,0,3,,,,,,,,,2,,,56,88
55080,note_on,228,0,3,,,,,,,,,2,,,52,88
55080,note_on,0,0,1,,,,,,,,,0,,,88,101
55080,note_on,0,0,1,,,,,,,,,0,,,83,101
55080,note_on,0,0,1,,,,,,,,,0,,,80,101
55080,note_on,228,0,1,,,,,,,,,0,,,76,101
55092,note_on,0,0,1,,,,,,,,,0,,,80,0
55092,note_on,0,0,1,,,,,,,,,0,,,76,0
55092,note_on,12,0,1,,,,,,,,,0,,,88,0
55092,note_on,12,0,3,,,,,,,,,2,,,64,0
55092,note_on,0,0,3,,,,,,,,,2,,,52,0
55092,note_on,0,0,3,,,,,,,,,2,,,56,0
55092,note_on,0,0,3,,,,,,,,,2,,,59,0
55092,note_on,0,0,1,,,,,,,,,0,,,83,0
55320,note_on,0,0,4,,,,,,,,,3,,,33,62
55320,note_on,0,0,1,,,,,,,,,0,,,69,101
55320,control_change,7560,0,4,,,,,,,,,3,64,127,,
55320,control_change,228,0,1,,,,,,,,,0,64,127,,
55380,note_on,60,0,4,,,,,,,,,3,,,33,0
55380,note_on,0,0,4,,,,,,,,,3,,,45,62
55380,note_on,0,0,1,,,,,,,,,0,,,57,101
55380,note_on,60,0,1,,,,,,,,,0,,,69,0
55386,note_on,6,0,1,,,,,,,,,0,,,57,0
55440,note_on,60,0,4,,,,,,,,,3,,,45,0
55440,note_on,54,0,1,,,,,,,,,0,,,57,101
55440,note_on,0,0,4,,,,,,,,,3,,,45,62
55446,note_on,6,0,1,,,,,,,,,0,,,57,0
55446,note_on,6,0,4,,,,,,,,,3,,,45,0
55500,note_on,54,0,4,,,,,,,,,3,,,45,62
55500,note_on,54,0,1,,,,,,,,,0,,,57,101
55506,note_on,6,0,4,,,,,,,,,3,,,45,0
55506,note_on,6,0,1,,,,,,,,,0,,,57,0
55560,note_on,0,0,1,,,,,,,,,0,,,57,101
55560,note_on,0,0,4,,,,,,,,,3,,,45,62
55560,control_change,54,0,4,,,,,,,,,3,64,0,,
55560,control_change,54,0,1,,,,,,,,,0,64,0,,
55572,note_on,12,0,4,,,,,,,,,3,,,45,0
55572,note_on,12,0,1,,,,,,,,,0,,,57,0
55680,note_on,0,0,3,,,,,,,,,2,,,59,49
55680,note_on,588,0,3,,,,,,,,,2,,,52,49
55680,note_on,0,0,3,,,,,,,,,2,,,56,49
55680,note_on,108,0,4,,,,,,,,,3,,,40,49
55692,note_on,12,0,3,,,,,,,,,2,,,59,0
55692,note_on,0,0,3,,,,,,,,,2,,,56,0
55692,note_on,0,0,3,,,,,,,,,2,,,52,0
55692,note_on,12,0,4,,,,,,,,,3,,,40,0
55800,note_on,108,0,4,,,,,,,,,3,,,45,49
55800,note_on,108,0,3,,,,,,,,,2,,,52,49
55800,note_on,0,0,3,,,,,,,,,2,,,57,49
55800,note_on,0,0,3,,,,,,,,,2,,,60,49
55812,note_on,12,0,4,,,,,,,,,3,,,45,0
55812,note_on,12,0,3,,,,,,,,,2,,,60,0
55812,note_on,0,0,3,,,,,,,,,2,,,57,0
55812,note_on,0,0,3,,,,,,,,,2,,,52,0
55920,note_on,108,0,3,,,,,,,,,2,,,52,49
55920,note_on,0,0,3,,,,,,,,,2,,,56,49
55920,note_on,0,0,3,,,,,,,,,2,,,59,49
55920,note_on,108,0,4,,,,,,,,,3,,,40,49
55932,note_on,12,0,4,,,,,,,,,3,,,40,0
55932,note_on,0,0,3,,,,,,,,,2,,,52,0
55932,note_on,0,0,3,,,,,,,,,2,,,56,0
55932,note_on,12,0,3,,,,,,,,,2,,,59,0
56040,note_on,108,0,4,,,,,,,,,3,,,45,49
56040,note_on,0,0,3,,,,,,,,,2,,,60,49
56040,note_on,0,0,3,,,,,,,,,2,,,57,49
56040,note_on,108,0,3,,,,,,,,,2,,,52,49
56052,note_on,0,0,3,,,,,,,,,2,,,52,0
56052,note_on,0,0,3,,,,,,,,,2,,,57,0
56052,note_on,12,0,4,,,,,,,,,3,,,45,0
56052,note_on,12,0,3,,,,,,,,,2,,,60,0
56160,note_on,108,0,3,,,,,,,,,2,,,52,49
56160,note_on,0,0,3,,,,,,,,,2,,,59,49
56160,note_on,0,0,3,,,,,,,,,2,,,56,49
56160,note_on,108,0,4,,,,,,,,,3,,,40,49
56172,note_on,0,0,3,,,,,,,,,2,,,52,0
56172,note_on,0,0,3,,,,,,,,,2,,,56,0
56172,note_on,12,0,4,,,,,,,,,3,,,40,0
56172,note_on,12,0,3,,,,,,,,,2,,,59,0
56280,control_change,108,0,4,,,,,,,,,3,64,127,,
56280,note_on,0,0,4,,,,,,,,,3,,,33,101
56280,control_change,708,0,1,,,,,,,,,0,64,127,,
56280,note_on,0,0,1,,,,,,,,,0,,,69,114
56340,note_on,0,0,4,,,,,,,,,3,,,45,101
56340,note_on,60,0,1,,,,,,,,,0,,,69,0
56340,note_on,0,0,1,,,,,,,,,0,,,57,114
56340,note_on,60,0,4,,,,,,,,,3,,,33,0
56346,note_on,6,0,1,,,,,,,,,0,,,57,0
56400,note_on,60,0,4,,,,,,,,,3,,,45,0
56400,note_on,54,0,1,,,,,,,,,0,,,57,114
56400,note_on,0,0,4,,,,,,,,,3,,,45,101
56406,note_on,6,0,1,,,,,,,,,0,,,57,0
56406,note_on,6,0,4,,,,,,,,,3,,,45,0
56460,note_on,54,0,1,,,,,,,,,0,,,57,114
56460,note_on,54,0,4,,,,,,,,,3,,,45,101
56466,note_on,6,0,1,,,,,,,,,0,,,57,0
56466,note_on,6,0,4,,,,,,,,,3,,,45,0
56520,note_on,0,0,1,,,,,,,,,0,,,57,114
56520,control_change,54,0,1,,,,,,,,,0,64,0,,
56520,note_on,0,0,4,,,,,,,,,3,,,45,101
56520,control_change,54,0,4,,,,,,,,,3,64,0,,
56532,note_on,12,0,1,,,,,,,,,0,,,57,0
56532,note_on,12,0,4,,,,,,,,,3,,,45,0
56640,note_on,108,0,4,,,,,,,,,3,,,40,49
56640,note_on,468,0,3,,,,,,,,,2,,,52,49
56640,note_on,0,0,3,,,,,,,,,2,,,56,49
56640,note_on,0,0,3,,,,,,,,,2,,,59,49
56652,note_on,0,0,3,,,,,,,,,2,,,52,0
56652,note_on,12,0,4,,,,,,,,,3,,,40,0
56652,note_on,0,0,3,,,,,,,,,2,,,56,0
56652,note_on,12,0,3,,,,,,,,,2,,,59,0
56760,note_on,0,0,3,,,,,,,,,2,,,60,49
56760,note_on,0,0,3,,,,,,,,,2,,,57,49
56760,note_on,108,0,3,,,,,,,,,2,,,52,49
56760,note_on,108,0,4,,,,,,,,,3,,,45,49
56772,note_on,12,0,3,,,,,,,,,2,,,60,0
56772,note_on,0,0,3,,,,,,,,,2,,,52,0
56772,note_on,12,0,4,,,,,,,,,3,,,45,0
56772,note_on,0,0,3,,,,,,,,,2,,,57,0
56880,note_on,108,0,4,,,,,,,,,3,,,40,49
56880,note_on,0,0,3,,,,,,,,,2,,,56,49
56880,note_on,108,0,3,,,,,,,,,2,,,52,49
56880,note_on,0,0,3,,,,,,,,,2,,,59,49
56892,note_on,0,0,3,,,,,,,,,2,,,52,0
56892,note_on,0,0,3,,,,,,,,,2,,,56,0
56892,note_on,12,0,4,,,,,,,,,3,,,40,0
56892,note_on,12,0,3,,,,,,,,,2,,,59,0
57000,note_on,108,0,4,,,,,,,,,3,,,45,49
57000,note_on,108,0,3,,,,,,,,,2,,,52,49
57000,note_on,0,0,3,,,,,,,,,2,,,57,49
57000,note_on,0,0,3,,,,,,,,,2,,,60,49
57012,note_on,0,0,3,,,,,,,,,2,,,52,0
57012,note_on,12,0,3,,,,,,,,,2,,,60,0
57012,note_on,0,0,3,,,,,,,,,2,,,57,0
57012,note_on,12,0,4,,,,,,,,,3,,,45,0
57120,note_on,0,0,3,,,,,,,,,2,,,59,49
57120,note_on,0,0,3,,,,,,,,,2,,,62,49
57120,note_on,108,0,3,,,,,,,,,2,,,56,49
57120,note_on,108,0,4,,,,,,,,,3,,,40,49
57132,note_on,12,0,3,,,,,,,,,2,,,62,0
57132,note_on,0,0,3,,,,,,,,,2,,,59,0
57132,note_on,0,0,3,,,,,,,,,2,,,56,0
57132,note_on,12,0,4,,,,,,,,,3,,,40,0
57240,control_change,708,0,1,,,,,,,,,0,64,127,,
57240,control_change,108,0,4,,,,,,,,,3,64,127,,
57240,note_on,0,0,1,,,,,,,,,0,,,72,114
57240,note_on,0,0,4,,,,,,,,,3,,,36,101
57300,note_on,60,0,4,,,,,,,,,3,,,36,0
57300,note_on,0,0,4,,,,,,,,,3,,,48,101
57300,note_on,60,0,1,,,,,,,,,0,,,72,0
57300,note_on,0,0,1,,,,,,,,,0,,,60,114
57360,note_on,60,0,4,,,,,,,,,3,,,48,0
57360,note_on,0,0,4,,,,,,,,,3,,,48,101
57360,note_on,60,0,1,,,,,,,,,0,,,60,0
57360,note_on,0,0,1,,,,,,,,,0,,,60,114
57366,note_on,6,0,4,,,,,,,,,3,,,48,0
57366,note_on,6,0,1,,,,,,,,,0,,,60,0
57420,note_on,54,0,1,,,,,,,,,0,,,60,114
57420,note_on,54,0,4,,,,,,,,,3,,,48,101
57426,note_on,6,0,1,,,,,,,,,0,,,60,0
57426,note_on,6,0,4,,,,,,,,,3,,,48,0
57480,control_change,54,0,1,,,,,,,,,0,64,0,,
57480,note_on,0,0,1,,,,,,,,,0,,,60,114
57480,control_change,54,0,4,,,,,,,,,3,64,0,,
57480,note_on,0,0,4,,,,,,,,,3,,,48,101
57492,note_on,12,0,1,,,,,,,,,0,,,60,0
57492,note_on,12,0,4,,,,,,,,,3,,,48,0
57600,note_on,108,0,1,,,,,,,,,0,,,55,49
57600,note_on,108,0,4,,,,,,,,,3,,,43,49
57600,note_on,0,0,1,,,,,,,,,0,,,62,49
57600,note_on,0,0,1,,,,,,,,,0,,,59,49
57612,note_on,0,0,1,,,,,,,,,0,,,59,0
57612,note_on,0,0,1,,,,,,,,,0,,,55,0
57612,note_on,12,0,1,,,,,,,,,0,,,62,0
57612,note_on,12,0,4,,,,,,,,,3,,,43,0
57720,note_on,108,0,1,,,,,,,,,0,,,55,49
57720,note_on,0,0,1,,,,,,,,,0,,,64,49
57720,note_on,108,0,4,,,,,,,,,3,,,48,49
57720,note_on,0,0,1,,,,,,,,,0,,,60,49
57732,note_on,0,0,1,,,,,,,,,0,,,60,0
57732,note_on,12,0,1,,,,,,,,,0,,,64,0
57732,note_on,12,0,4,,,,,,,,,3,,,48,0
57732,note_on,0,0,1,,,,,,,,,0,,,55,0
57840,note_on,108,0,1,,,,,,,,,0,,,55,49
57840,note_on,108,0,4,,,,,,,,,3,,,43,49
57840,note_on,0,0,1,,,,,,,,,0,,,59,49
57840,note_on,0,0,1,,,,,,,,,0,,,62,49
57852,note_on,12,0,4,,,,,,,,,3,,,43,0
57852,note_on,0,0,1,,,,,,,,,0,,,59,0
57852,note_on,12,0,1,,,,,,,,,0,,,62,0
57852,note_on,0,0,1,,,,,,,,,0,,,55,0
57960,note_on,108,0,4,,,,,,,,,3,,,48,49
57960,note_on,0,0,1,,,,,,,,,0,,,64,49
57960,note_on,0,0,1,,,,,,,,,0,,,60,49
57960,note_on,108,0,1,,,,,,,,,0,,,55,49
57972,note_on,0,0,1,,,,,,,,,0,,,60,0
57972,note_on,12,0,1,,,,,,,,,0,,,64,0
57972,note_on,0,0,1,,,,,,,,,0,,,55,0
57972,note_on,12,0,4,,,,,,,,,3,,,48,0
58080,note_on,108,0,4,,,,,,,,,3,,,43,49
58080,note_on,108,0,1,,,,,,,,,0,,,55,49
58080,note_on,0,0,1,,,,,,,,,0,,,59,49
58080,note_on,0,0,1,,,,,,,,,0,,,62,49
58092,note_on,0,0,1,,,,,,,,,0,,,55,0
58092,note_on,12,0,4,,,,,,,,,3,,,43,0
58092,note_on,0,0,1,,,,,,,,,0,,,59,0
58092,note_on,12,0,1,,,,,,,,,0,,,62,0
58200,control_change,108,0,1,,,,,,,,,0,64,127,,
58200,note_on,0,0,1,,,,,,,,,0,,,72,114
58200,control_change,108,0,4,,,,,,,,,3,64,127,,
58200,note_on,0,0,4,,,,,,,,,3,,,36,101
58260,note_on,60,0,1,,,,,,,,,0,,,72,0
58260,note_on,0,0,1,,,,,,,,,0,,,60,114
58260,note_on,60,0,4,,,,,,,,,3,,,36,0
58260,note_on,0,0,4,,,,,,,,,3,,,48,101
58320,note_on,60,0,1,,,,,,,,,0,,,60,0
58320,note_on,0,0,4,,,,,,,,,3,,,48,101
58320,note_on,60,0,4,,,,,,,,,3,,,48,0
58320,note_on,0,0,1,,,,,,,,,0,,,60,114
58326,note_on,6,0,4,,,,,,,,,3,,,48,0
58326,note_on,6,0,1,,,,,,,,,0,,,60,0
58380,note_on,54,0,1,,,,,,,,,0,,,60,114
58380,note_on,54,0,4,,,,,,,,,3,,,48,101
58386,note_on,6,0,1,,,,,,,,,0,,,60,0
58386,note_on,6,0,4,,,,,,,,,3,,,48,0
58440,note_on,54,0,1,,,,,,,,,0,,,60,114
58440,note_on,54,0,4,,,,,,,,,3,,,48,101
58452,note_on,12,0,4,,,,,,,,,3,,,48,0
58452,note_on,12,0,1,,,,,,,,,0,,,60,0
58560,note_on,0,0,1,,,,,,,,,0,,,62,49
58560,note_on,0,0,1,,,,,,,,,0,,,59,49
58560,note_on,0,0,4,,,,,,,,,3,,,43,49
58560,control_change,108,0,4,,,,,,,,,3,64,0,,
58560,note_on,0,0,1,,,,,,,,,0,,,55,49
58560,control_change,108,0,1,,,,,,,,,0,64,0,,
58572,note_on,0,0,1,,,,,,,,,0,,,55,0
58572,note_on,0,0,1,,,,,,,,,0,,,59,0
58572,note_on,12,0,1,,,,,,,,,0,,,62,0
58572,note_on,12,0,4,,,,,,,,,3,,,43,0
58680,note_on,0,0,1,,,,,,,,,0,,,64,49
58680,note_on,108,0,4,,,,,,,,,3,,,48,49
58680,note_on,0,0,1,,,,,,,,,0,,,60,49
58680,note_on,108,0,1,,,,,,,,,0,,,55,49
58692,note_on,0,0,1,,,,,,,,,0,,,55,0
58692,note_on,0,0,1,,,,,,,,,0,,,60,0
58692,note_on,12,0,1,,,,,,,,,0,,,64,0
58692,note_on,12,0,4,,,,,,,,,3,,,48,0
58800,note_on,108,0,1,,,,,,,,,0,,,55,49
58800,note_on,0,0,1,,,,,,,,,0,,,59,49
58800,note_on,108,0,4,,,,,,,,,3,,,43,49
58800,note_on,0,0,1,,,,,,,,,0,,,62,49
58812,note_on,12,0,4,,,,,,,,,3,,,43,0
58812,note_on,12,0,1,,,,,,,,,0,,,62,0
58812,note_on,0,0,1,,,,,,,,,0,,,55,0
58812,note_on,0,0,1,,,,,,,,,0,,,59,0
58920,note_on,108,0,1,,,,,,,,,0,,,55,49
58920,note_on,0,0,1,,,,,,,,,0,,,60,49
58920,note_on,0,0,1,,,,,,,,,0,,,64,49
58920,note_on,108,0,4,,,,,,,,,3,,,48,49
58932,note_on,12,0,4,,,,,,,,,3,,,48,0
58932,note_on,12,0,1,,,,,,,,,0,,,64,0
58932,note_on,0,0,1,,,,,,,,,0,,,55,0
58932,note_on,0,0,1,,,,,,,,,0,,,60,0
59040,note_on,108,0,1,,,,,,,,,0,,,59,49
59040,note_on,108,0,4,,,,,,,,,3,,,47,49
59040,note_on,0,0,1,,,,,,,,,0,,,63,49
59040,note_on,0,0,1,,,,,,,,,0,,,66,49
59052,note_on,12,0,1,,,,,,,,,0,,,66,0
59052,note_on,12,0,4,,,,,,,,,3,,,47,0
59052,note_on,0,0,1,,,,,,,,,0,,,63,0
59052,note_on,0,0,1,,,,,,,,,0,,,59,0
59160,note_on,0,0,3,,,,,,,,,2,,,35,101
59160,note_on,0,0,1,,,,,,,,,0,,,62,114
59160,control_change,2028,0,3,,,,,,,,,2,64,127,,
59160,control_change,108,0,1,,,,,,,,,0,64,127,,
59160,note_on,0,0,1,,,,,,,,,0,,,65,114
59160,note_on,0,0,1,,,,,,,,,0,,,67,114
59220,note_on,60,0,1,,,,,,,,,0,,,67,0
59220,note_on,0,0,1,,,,,,,,,0,,,65,0
59220,note_on,0,0,1,,,,,,,,,0,,,62,0
59220,note_on,0,0,1,,,,,,,,,0,,,55,114
59220,note_on,0,0,3,,,,,,,,,2,,,47,101
59220,note_on,60,0,3,,,,,,,,,2,,,35,0
59280,note_on,0,0,3,,,,,,,,,2,,,47,101
59280,note_on,60,0,3,,,,,,,,,2,,,47,0
59280,note_on,0,0,1,,,,,,,,,0,,,67,114
59280,note_on,0,0,1,,,,,,,,,0,,,65,114
59280,note_on,0,0,1,,,,,,,,,0,,,62,114
59280,note_on,60,0,1,,,,,,,,,0,,,55,0
59286,note_on,6,0,1,,,,,,,,,0,,,67,0
59286,note_on,6,0,3,,,,,,,,,2,,,47,0
59286,note_on,0,0,1,,,,,,,,,0,,,62,0
59286,note_on,0,0,1,,,,,,,,,0,,,65,0
59340,note_on,54,0,3,,,,,,,,,2,,,47,101
59340,note_on,0,0,1,,,,,,,,,0,,,65,114
59340,note_on,54,0,1,,,,,,,,,0,,,62,114
59340,note_on,0,0,1,,,,,,,,,0,,,67,114
59346,note_on,0,0,1,,,,,,,,,0,,,65,0
59346,note_on,6,0,3,,,,,,,,,2,,,47,0
59346,note_on,6,0,1,,,,,,,,,0,,,67,0
59346,note_on,0,0,1,,,,,,,,,0,,,62,0
59400,note_on,0,0,1,,,,,,,,,0,,,62,114
59400,note_on,0,0,3,,,,,,,,,2,,,47,101
59400,control_change,54,0,3,,,,,,,,,2,64,0,,
59400,note_on,0,0,1,,,,,,,,,0,,,65,114
59400,note_on,0,0,1,,,,,,,,,0,,,67,114
59400,control_change,54,0,1,,,,,,,,,0,64,0,,
59412,note_on,12,0,3,,,,,,,,,2,,,47,0
59412,note_on,12,0,1,,,,,,,,,0,,,67,0
59412,note_on,0,0,1,,,,,,,,,0,,,62,0
59412,note_on,0,0,1,,,,,,,,,0,,,65,0
59520,note_on,0,0,1,,,,,,,,,0,,,65,114
59520,note_on,108,0,1,,,,,,,,,0,,,62,114
59520,note_on,108,0,3,,,,,,,,,2,,,46,101
59520,note_on,0,0,1,,,,,,,,,0,,,68,114
59532,note_on,12,0,3,,,,,,,,,2,,,46,0
59532,note_on,0,0,1,,,,,,,,,0,,,65,0
59532,note_on,12,0,1,,,,,,,,,0,,,68,0
59532,note_on,0,0,1,,,,,,,,,0,,,62,0
59640,note_on,0,0,3,,,,,,,,,2,,,35,101
59640,control_change,108,0,3,,,,,,,,,2,64,127,,
59640,control_change,108,0,1,,,,,,,,,0,64,127,,
59640,note_on,0,0,1,,,,,,,,,0,,,62,114
59640,note_on,0,0,1,,,,,,,,,0,,,65,114
59640,note_on,0,0,1,,,,,,,,,0,,,67,114
59700,note_on,60,0,3,,,,,,,,,2,,,35,0
59700,note_on,60,0,1,,,,,,,,,0,,,67,0
59700,note_on,0,0,1,,,,,,,,,0,,,65,0
59700,note_on,0,0,1,,,,,,,,,0,,,62,0
59700,note_on,0,0,1,,,,,,,,,0,,,55,114
59700,note_on,0,0,3,,,,,,,,,2,,,47,101
59760,note_on,60,0,1,,,,,,,,,0,,,55,0
59760,note_on,0,0,1,,,,,,,,,0,,,67,114
59760,note_on,0,0,1,,,,,,,,,0,,,65,114
59760,note_on,0,0,1,,,,,,,,,0,,,62,114
59760,note_on,60,0,3,,,,,,,,,2,,,47,0
59760,note_on,0,0,3,,,,,,,,,2,,,47,101
59766,note_on,6,0,3,,,,,,,,,2,,,47,0
59766,note_on,0,0,1,,,,,,,,,0,,,62,0
59766,note_on,0,0,1,,,,,,,,,0,,,65,0
59766,note_on,6,0,1,,,,,,,,,0,,,67,0
59820,note_on,0,0,1,,,,,,,,,0,,,67,114
59820,note_on,54,0,3,,,,,,,,,2,,,47,101
59820,note_on,54,0,1,,,,,,,,,0,,,62,114
59820,note_on,0,0,1,,,,,,,,,0,,,65,114
59826,note_on,6,0,1,,,,,,,,,0,,,67,0
59826,note_on,0,0,1,,,,,,,,,0,,,65,0
59826,note_on,0,0,1,,,,,,,,,0,,,62,0
59826,note_on,6,0,3,,,,,,,,,2,,,47,0
59880,note_on,0,0,1,,,,,,,,,0,,,67,114
59880,note_on,0,0,1,,,,,,,,,0,,,65,114
59880,note_on,0,0,1,,,,,,,,,0,,,62,114
59880,control_change,54,0,1,,,,,,,,,0,64,0,,
59880,note_on,0,0,3,,,,,,,,,2,,,47,101
59880,control_change,54,0,3,,,,,,,,,2,64,0,,
59892,note_on,0,0,1,,,,,,,,,0,,,62,0
59892,note_on,12,0,3,,,,,,,,,2,,,47,0
59892,note_on,0,0,1,,,,,,,,,0,,,65,0
59892,note_on,12,0,1,,,,,,,,,0,,,67,0
60000,note_on,0,0,1,,,,,,,,,0,,,65,114
60000,note_on,0,0,1,,,,,,,,,0,,,68,114
60000,note_on,108,0,1,,,,,,,,,0,,,62,114
60000,note_on,108,0,3,,,,,,,,,2,,,46,101
60012,note_on,12,0,1,,,,,,,,,0,,,68,0
60012,note_on,12,0,3,,,,,,,,,2,,,46,0
60012,note_on,0,0,1,,,,,,,,,0,,,65,0
60012,note_on,0,0,1,,,,,,,,,0,,,62,0
60120,note_on,108,0,1,,,,,,,,,0,,,62,114
60120,note_on,0,0,1,,,,,,,,,0,,,65,114
60120,note_on,0,0,1,,,,,,,,,0,,,67,114
60120,note_on,108,0,3,,,,,,,,,2,,,47,101
60132,note_on,12,0,3,,,,,,,,,2,,,47,0
60132,note_on,12,0,1,,,,,,,,,0,,,67,0
60132,note_on,0,0,1,,,,,,,,,0,,,65,0
60132,note_on,0,0,1,,,,,,,,,0,,,62,0
60240,note_on,108,0,1,,,,,,,,,0,,,62,114
60240,note_on,0,0,1,,,,,,,,,0,,,65,114
60240,note_on,0,0,1,,,,,,,,,0,,,68,114
60240,note_on,108,0,3,,,,,,,,,2,,,46,101
60252,note_on,12,0,1,,,,,,,,,0,,,68,0
60252,note_on,0,0,1,,,,,,,,,0,,,65,0
60252,note_on,0,0,1,,,,,,,,,0,,,62,0
60252,note_on,12,0,3,,,,,,,,,2,,,46,0
60360,note_on,108,0,1,,,,,,,,,0,,,62,114
60360,note_on,0,0,1,,,,,,,,,0,,,65,114
60360,note_on,0,0,1,,,,,,,,,0,,,67,114
60360,note_on,108,0,3,,,,,,,,,2,,,47,101
60372,note_on,12,0,1,,,,,,,,,0,,,67,0
60372,note_on,0,0,1,,,,,,,,,0,,,65,0
60372,note_on,12,0,3,,,,,,,,,2,,,47,0
60372,note_on,0,0,1,,,,,,,,,0,,,62,0
60480,note_on,0,0,1,,,,,,,,,0,,,65,114
60480,note_on,0,0,1,,,,,,,,,0,,,68,114
60480,note_on,108,0,1,,,,,,,,,0,,,62,114
60480,note_on,108,0,3,,,,,,,,,2,,,46,101
60492,note_on,12,0,3,,,,,,,,,2,,,46,0
60492,note_on,0,0,1,,,,,,,,,0,,,62,0
60492,note_on,0,0,1,,,,,,,,,0,,,65,0
60492,note_on,12,0,1,,,,,,,,,0,,,68,0
60600,note_on,0,0,1,,,,,,,,,0,,,69,114
60600,note_on,0,0,1,,,,,,,,,0,,,65,114
60600,note_on,108,0,1,,,,,,,,,0,,,62,114
60600,note_on,108,0,3,,,,,,,,,2,,,45,101
60612,note_on,0,0,1,,,,,,,,,0,,,62,0
60612,note_on,0,0,1,,,,,,,,,0,,,65,0
60612,note_on,12,0,3,,,,,,,,,2,,,45,0
60612,note_on,12,0,1,,,,,,,,,0,,,69,0
60720,note_on,108,0,3,,,,,,,,,2,,,44,101
60720,note_on,0,0,1,,,,,,,,,0,,,70,114
60720,note_on,0,0,1,,,,,,,,,0,,,65,114
60720,note_on,108,0,1,,,,,,,,,0,,,62,114
60732,note_on,0,0,1,,,,,,,,,0,,,62,0
60732,note_on,0,0,1,,,,,,,,,0,,,65,0
60732,note_on,12,0,1,,,,,,,,,0,,,70,0
60732,note_on,12,0,3,,,,,,,,,2,,,44,0
60840,note_on,0,0,1,,,,,,,,,0,,,71,114
60840,note_on,0,0,1,,,,,,,,,0,,,65,114
60840,note_on,108,0,1,,,,,,,,,0,,,62,114
60840,note_on,108,0,3,,,,,,,,,2,,,43,101
60852,note_on,0,0,1,,,,,,,,,0,,,62,0
60852,note_on,0,0,1,,,,,,,,,0,,,65,0
60852,note_on,12,0,3,,,,,,,,,2,,,43,0
60852,note_on,12,0,1,,,,,,,,,0,,,71,0
60960,note_on,108,0,1,,,,,,,,,0,,,63,114
60960,note_on,108,0,3,,,,,,,,,2,,,42,101
60960,note_on,0,0,1,,,,,,,,,0,,,69,114
60960,note_on,0,0,1,,,,,,,,,0,,,72,114
60972,note_on,12,0,1,,,,,,,,,0,,,72,0
60972,note_on,0,0,1,,,,,,,,,0,,,69,0
60972,note_on,0,0,1,,,,,,,,,0,,,63,0
60972,note_on,12,0,3,,,,,,,,,2,,,42,0
61080,control_change,108,0,3,,,,,,,,,2,64,127,,
61080,note_on,0,0,3,,,,,,,,,2,,,31,101
61080,control_change,9660,0,2,,,,,,,,,1,64,127,,
61080,note_on,0,0,2,,,,,,,,,1,,,64,101
61080,note_on,0,0,2,,,,,,,,,1,,,67,101
61080,note_on,0,0,1,,,,,,,,,0,,,72,114
61080,control_change,108,0,1,,,,,,,,,0,64,127,,
61140,note_on,60,0,3,,,,,,,,,2,,,31,0
61140,note_on,0,0,3,,,,,,,,,2,,,43,101
61140,note_on,0,0,1,,,,,,,,,0,,,76,114
61140,note_on,60,0,1,,,,,,,,,0,,,72,0
61200,note_on,0,0,3,,,,,,,,,2,,,43,101
61200,note_on,60,0,3,,,,,,,,,2,,,43,0
61200,note_on,0,0,1,,,,,,,,,0,,,72,114
61200,note_on,0,0,1,,,,,,,,,0,,,76,114
61200,note_on,120,0,2,,,,,,,,,1,,,67,0
61200,note_on,0,0,2,,,,,,,,,1,,,64,0
61200,note_on,0,0,2,,,,,,,,,1,,,64,101
61200,note_on,0,0,2,,,,,,,,,1,,,67,101
61200,note_on,60,0,1,,,,,,,,,0,,,76,0
61206,note_on,6,0,2,,,,,,,,,1,,,67,0
61206,note_on,0,0,2,,,,,,,,,1,,,64,0
61206,note_on,6,0,3,,,,,,,,,2,,,43,0
61206,note_on,6,0,1,,,,,,,,,0,,,76,0
61206,note_on,0,0,1,,,,,,,,,0,,,72,0
61260,note_on,54,0,1,,,,,,,,,0,,,72,114
61260,note_on,0,0,1,,,,,,,,,0,,,76,114
61260,note_on,54,0,2,,,,,,,,,1,,,64,101
61260,note_on,0,0,2,,,,,,,,,1,,,67,101
61260,note_on,54,0,3,,,,,,,,,2,,,43,101
61266,note_on,6,0,1,,,,,,,,,0,,,76,0
61266,note_on,0,0,1,,,,,,,,,0,,,72,0
61266,note_on,6,0,2,,,,,,,,,1,,,67,0
61266,note_on,0,0,2,,,,,,,,,1,,,64,0
61266,note_on,6,0,3,,,,,,,,,2,,,43,0
61320,note_on,0,0,3,,,,,,,,,2,,,43,101
61320,control_change,54,0,3,,,,,,,,,2,64,0,,
61320,note_on,0,0,1,,,,,,,,,0,,,72,114
61320,control_change,54,0,2,,,,,,,,,1,64,0,,
61320,note_on,0,0,2,,,,,,,,,1,,,67,101
61320,note_on,0,0,2,,,,,,,,,1,,,64,101
61320,note_on,0,0,1,,,,,,,,,0,,,76,114
61320,control_change,54,0,1,,,,,,,,,0,64,0,,
61332,note_on,0,0,2,,,,,,,,,1,,,64,0
61332,note_on,12,0,1,,,,,,,,,0,,,76,0
61332,note_on,12,0,2,,,,,,,,,1,,,67,0
61332,note_on,12,0,3,,,,,,,,,2,,,43,0
61332,note_on,0,0,1,,,,,,,,,0,,,72,0
61440,note_on,108,0,3,,,,,,,,,2,,,43,101
61440,note_on,0,0,1,,,,,,,,,0,,,77,114
61440,note_on,108,0,2,,,,,,,,,1,,,69,101
61440,note_on,0,0,2,,,,,,,,,1,,,72,101
61440,note_on,108,0,1,,,,,,,,,0,,,76,114
61452,note_on,12,0,1,,,,,,,,,0,,,77,0
61452,note_on,12,0,3,,,,,,,,,2,,,43,0
61452,note_on,12,0,2,,,,,,,,,1,,,72,0
61452,note_on,0,0,2,,,,,,,,,1,,,69,0
61452,note_on,0,0,1,,,,,,,,,0,,,76,0
61560,note_on,0,0,2,,,,,,,,,1,,,77,101
61560,note_on,0,0,2,,,,,,,,,1,,,74,101
61560,note_on,0,0,3,,,,,,,,,2,,,55,101
61560,note_on,0,0,3,,,,,,,,,2,,,43,101
61560,control_change,108,0,3,,,,,,,,,2,64,127,,
61560,control_change,108,0,1,,,,,,,,,0,64,127,,
61560,note_on,0,0,1,,,,,,,,,0,,,81,114
61560,note_on,0,0,2,,,,,,,,,1,,,71,101
61560,control_change,108,0,2,,,,,,,,,1,64,127,,
61620,note_on,60,0,1,,,,,,,,,0,,,81,0
61620,note_on,0,0,1,,,,,,,,,0,,,79,114
61680,note_on,0,0,2,,,,,,,,,1,,,74,101
61680,note_on,0,0,2,,,,,,,,,1,,,71,101
61680,note_on,120,0,2,,,,,,,,,1,,,77,0
61680,note_on,0,0,2,,,,,,,,,1,,,77,101
61680,note_on,0,0,1,,,,,,,,,0,,,79,114
61680,note_on,60,0,1,,,,,,,,,0,,,79,0
61680,note_on,0,0,2,,,,,,,,,1,,,71,0
61680,note_on,120,0,3,,,,,,,,,2,,,55,0
61680,note_on,0,0,3,,,,,,,,,2,,,43,0
61680,note_on,0,0,3,,,,,,,,,2,,,55,101
61680,note_on,0,0,3,,,,,,,,,2,,,62,101
61680,note_on,0,0,3,,,,,,,,,2,,,65,101
61680,note_on,0,0,2,,,,,,,,,1,,,74,0
61686,note_on,6,0,1,,,,,,,,,0,,,79,0
61686,note_on,0,0,3,,,,,,,,,2,,,62,0
61686,note_on,6,0,2,,,,,,,,,1,,,77,0
61686,note_on,0,0,2,,,,,,,,,1,,,74,0
61686,note_on,0,0,2,,,,,,,,,1,,,71,0
61686,note_on,6,0,3,,,,,,,,,2,,,65,0
61686,note_on,0,0,3,,,,,,,,,2,,,55,0
61740,note_on,54,0,2,,,,,,,,,1,,,71,101
61740,note_on,0,0,2,,,,,,,,,1,,,74,101
61740,note_on,0,0,2,,,,,,,,,1,,,77,101
61740,note_on,54,0,3,,,,,,,,,2,,,55,101
61740,note_on,0,0,3,,,,,,,,,2,,,62,101
61740,note_on,0,0,3,,,,,,,,,2,,,65,101
61740,note_on,54,0,1,,,,,,,,,0,,,79,114
61746,note_on,6,0,3,,,,,,,,,2,,,65,0
61746,note_on,0,0,3,,,,,,,,,2,,,62,0
61746,note_on,0,0,3,,,,,,,,,2,,,55,0
61746,note_on,0,0,2,,,,,,,,,1,,,71,0
61746,note_on,6,0,1,,,,,,,,,0,,,79,0
61746,note_on,0,0,2,,,,,,,,,1,,,74,0
61746,note_on,6,0,2,,,,,,,,,1,,,77,0
61800,note_on,0,0,2,,,,,,,,,1,,,71,101
61800,control_change,54,0,2,,,,,,,,,1,64,0,,
61800,control_change,54,0,1,,,,,,,,,0,64,0,,
61800,note_on,0,0,1,,,,,,,,,0,,,79,114
61800,note_on,0,0,2,,,,,,,,,1,,,77,101
61800,note_on,0,0,2,,,,,,,,,1,,,74,101
61800,note_on,0,0,3,,,,,,,,,2,,,62,101
61800,note_on,0,0,3,,,,,,,,,2,,,55,101
61800,note_on,0,0,3,,,,,,,,,2,,,65,101
61800,control_change,54,0,3,,,,,,,,,2,64,0,,
61812,note_on,12,0,2,,,,,,,,,1,,,77,0
61812,note_on,0,0,2,,,,,,,,,1,,,74,0
61812,note_on,12,0,1,,,,,,,,,0,,,79,0
61812,note_on,0,0,2,,,,,,,,,1,,,71,0
61812,note_on,0,0,3,,,,,,,,,2,,,55,0
61812,note_on,0,0,3,,,,,,,,,2,,,62,0
61812,note_on,12,0,3,,,,,,,,,2,,,65,0
61920,note_on,0,0,1,,,,,,,,,0,,,71,114
61920,note_on,0,0,1,,,,,,,,,0,,,74,114
61920,note_on,0,0,1,,,,,,,,,0,,,79,114
61920,note_on,108,0,1,,,,,,,,,0,,,67,114
61920,note_on,0,0,3,,,,,,,,,2,,,62,101
61920,note_on,0,0,3,,,,,,,,,2,,,65,101
61920,note_on,108,0,3,,,,,,,,,2,,,55,101
61932,note_on,12,0,3,,,,,,,,,2,,,65,0
61932,note_on,0,0,3,,,,,,,,,2,,,62,0
61932,note_on,0,0,3,,,,,,,,,2,,,55,0
61932,note_on,12,0,1,,,,,,,,,0,,,79,0
61932,note_on,0,0,1,,,,,,,,,0,,,67,0
61932,note_on,0,0,1,,,,,,,,,0,,,71,0
61932,note_on,0,0,1,,,,,,,,,0,,,74,0
62040,note_on,108,0,3,,,,,,,,,2,,,48,75
62040,note_on,108,0,1,,,,,,,,,0,,,79,88
62100,note_on,60,0,1,,,,,,,,,0,,,79,0
62100,note_on,0,0,1,,,,,,,,,0,,,67,49
62160,note_on,60,0,1,,,,,,,,,0,,,67,0
62160,note_on,0,0,1,,,,,,,,,0,,,67,49
62160,note_on,120,0,3,,,,,,,,,2,,,48,0
62160,note_on,0,0,3,,,,,,,,,2,,,55,36
62160,note_on,0,0,3,,,,,,,,,2,,,64,36
62166,note_on,6,0,1,,,,,,,,,0,,,67,0
62166,note_on,6,0,3,,,,,,,,,2,,,64,0
62166,note_on,0,0,3,,,,,,,,,2,,,55,0
62220,note_on,54,0,1,,,,,,,,,0,,,67,49
62220,note_on,0,0,3,,,,,,,,,2,,,64,36
62220,note_on,54,0,3,,,,,,,,,2,,,55,36
62226,note_on,6,0,1,,,,,,,,,0,,,67,0
62226,note_on,6,0,3,,,,,,,,,2,,,64,0
62226,note_on,0,0,3,,,,,,,,,2,,,55,0
62280,note_on,0,0,3,,,,,,,,,2,,,64,36
62280,note_on,54,0,3,,,,,,,,,2,,,55,36
62280,note_on,54,0,1,,,,,,,,,0,,,67,49
62286,note_on,6,0,1,,,,,,,,,0,,,67,0
62292,note_on,12,0,3,,,,,,,,,2,,,64,0
62292,note_on,0,0,3,,,,,,,,,2,,,55,0
62340,note_on,54,0,1,,,,,,,,,0,,,67,49
62346,note_on,6,0,1,,,,,,,,,0,,,67,0
62400,note_on,54,0,1,,,,,,,,,0,,,71,49
62400,note_on,108,0,3,,,,,,,,,2,,,55,36
62400,note_on,0,0,3,,,,,,,,,2,,,65,36
62460,note_on,0,0,1,,,,,,,,,0,,,74,49
62460,note_on,60,0,1,,,,,,,,,0,,,71,0
62520,note_on,0,0,1,,,,,,,,,0,,,72,49
62520,note_on,60,0,1,,,,,,,,,0,,,74,0
62520,note_on,120,0,3,,,,,,,,,2,,,65,0
62520,note_on,0,0,3,,,,,,,,,2,,,55,0
62520,note_on,0,0,3,,,,,,,,,2,,,55,36
62520,note_on,0,0,3,,,,,,,,,2,,,64,36
62580,note_on,0,0,1,,,,,,,,,0,,,67,49
62580,note_on,60,0,1,,,,,,,,,0,,,72,0
62640,note_on,120,0,3,,,,,,,,,2,,,64,0
62640,note_on,0,0,3,,,,,,,,,2,,,55,0
62640,note_on,0,0,3,,,,,,,,,2,,,65,36
62640,note_on,60,0,1,,,,,,,,,0,,,67,0
62640,note_on,0,0,1,,,,,,,,,0,,,71,49
62640,note_on,0,0,3,,,,,,,,,2,,,55,36
62700,note_on,0,0,1,,,,,,,,,0,,,74,49
62700,note_on,60,0,1,,,,,,,,,0,,,71,0
62760,note_on,120,0,3,,,,,,,,,2,,,65,0
62760,note_on,0,0,3,,,,,,,,,2,,,55,0
62760,note_on,0,0,3,,,,,,,,,2,,,55,36
62760,note_on,0,0,1,,,,,,,,,0,,,72,49
62760,note_on,60,0,1,,,,,,,,,0,,,74,0
62760,note_on,0,0,3,,,,,,,,,2,,,64,36
62820,note_on,60,0,1,,,,,,,,,0,,,72,0
62820,note_on,0,0,1,,,,,,,,,0,,,67,49
62880,note_on,0,0,1,,,,,,,,,0,,,71,49
62880,note_on,120,0,3,,,,,,,,,2,,,64,0
62880,note_on,60,0,1,,,,,,,,,0,,,67,0
62880,note_on,0,0,3,,,,,,,,,2,,,55,0
62880,note_on,0,0,3,,,,,,,,,2,,,65,36
62880,note_on,0,0,3,,,,,,,,,2,,,55,36
62940,note_on,0,0,1,,,,,,,,,0,,,74,49
62940,note_on,60,0,1,,,,,,,,,0,,,71,0
63000,note_on,60,0,1,,,,,,,,,0,,,74,0
63000,note_on,120,0,3,,,,,,,,,2,,,65,0
63000,note_on,0,0,3,,,,,,,,,2,,,55,0
63000,note_on,0,0,3,,,,,,,,,2,,,48,36
63000,note_on,0,0,1,,,,,,,,,0,,,72,49
63060,note_on,0,0,1,,,,,,,,,0,,,67,49
63060,note_on,60,0,1,,,,,,,,,0,,,72,0
63120,note_on,0,0,3,,,,,,,,,2,,,64,49
63120,note_on,0,0,1,,,,,,,,,0,,,72,49
63120,note_on,60,0,1,,,,,,,,,0,,,67,0
63120,note_on,0,0,3,,,,,,,,,2,,,55,49
63120,note_on,120,0,3,,,,,,,,,2,,,48,0
63126,note_on,6,0,3,,,,,,,,,2,,,64,0
63126,note_on,0,0,3,,,,,,,,,2,,,55,0
63180,note_on,0,0,3,,,,,,,,,2,,,64,49
63180,note_on,54,0,3,,,,,,,,,2,,,55,49
63180,note_on,60,0,1,,,,,,,,,0,,,72,0
63180,note_on,0,0,1,,,,,,,,,0,,,76,49
63186,note_on,0,0,3,,,,,,,,,2,,,55,0
63186,note_on,6,0,3,,,,,,,,,2,,,64,0
63240,note_on,60,0,1,,,,,,,,,0,,,76,0
63240,note_on,0,0,1,,,,,,,,,0,,,79,75
63240,note_on,0,0,3,,,,,,,,,2,,,64,49
63240,note_on,54,0,3,,,,,,,,,2,,,55,49
63252,note_on,12,0,3,,,,,,,,,2,,,64,0
63252,note_on,0,0,3,,,,,,,,,2,,,55,0
63300,note_on,60,0,1,,,,,,,,,0,,,79,0
63300,note_on,0,0,1,,,,,,,,,0,,,84,75
63360,note_on,60,0,1,,,,,,,,,0,,,84,0
63360,note_on,0,0,1,,,,,,,,,0,,,88,75
63420,note_on,60,0,1,,,,,,,,,0,,,88,0
63420,note_on,0,0,1,,,,,,,,,0,,,91,75
63480,note_on,0,0,3,,,,,,,,,2,,,48,49
63480,note_on,228,0,3,,,,,,,,,2,,,36,49
63480,note_on,0,0,1,,,,,,,,,0,,,91,75
63480,note_on,60,0,1,,,,,,,,,0,,,91,0
63540,note_on,0,0,1,,,,,,,,,0,,,79,75
63540,note_on,60,0,1,,,,,,,,,0,,,91,0
63600,note_on,120,0,3,,,,,,,,,2,,,48,0
63600,note_on,0,0,3,,,,,,,,,2,,,36,0
63600,note_on,0,0,3,,,,,,,,,2,,,34,49
63600,note_on,0,0,3,,,,,,,,,2,,,46,49
63600,note_on,60,0,1,,,,,,,,,0,,,79,0
63600,note_on,0,0,1,,,,,,,,,0,,,92,75
63660,note_on,60,0,1,,,,,,,,,0,,,92,0
63660,note_on,0,0,1,,,,,,,,,0,,,80,75
63720,note_on,60,0,1,,,,,,,,,0,,,80,0
63720,note_on,0,0,1,,,,,,,,,0,,,93,88
63720,note_on,120,0,3,,,,,,,,,2,,,46,0
63720,note_on,0,0,3,,,,,,,,,2,,,34,0
63720,note_on,0,0,3,,,,,,,,,2,,,33,75
63720,note_on,0,0,3,,,,,,,,,2,,,45,75
63780,note_on,0,0,1,,,,,,,,,0,,,81,88
63780,note_on,60,0,1,,,,,,,,,0,,,93,0
63840,note_on,0,0,1,,,,,,,,,0,,,93,88
63840,note_on,120,0,3,,,,,,,,,2,,,45,0
63840,note_on,0,0,3,,,,,,,,,2,,,33,0
63840,note_on,0,0,3,,,,,,,,,2,,,57,75
63840,note_on,0,0,3,,,,,,,,,2,,,61,75
63840,note_on,0,0,3,,,,,,,,,2,,,67,75
63840,note_on,60,0,1,,,,,,,,,0,,,81,0
63900,note_on,0,0,1,,,,,,,,,0,,,81,88
63900,note_on,60,0,1,,,,,,,,,0,,,93,0
63960,note_on,0,0,3,,,,,,,,,2,,,61,0
63960,note_on,0,0,3,,,,,,,,,2,,,57,0
63960,note_on,0,0,1,,,,,,,,,0,,,81,88
63960,note_on,60,0,1,,,,,,,,,0,,,81,0
63960,note_on,0,0,3,,,,,,,,,2,,,50,75
63960,note_on,120,0,3,,,,,,,,,2,,,67,0
64020,note_on,0,0,1,,,,,,,,,0,,,69,49
64020,note_on,60,0,1,,,,,,,,,0,,,81,0
64080,note_on,120,0,3,,,,,,,,,2,,,50,0
64080,note_on,0,0,3,,,,,,,,,2,,,65,36
64080,note_on,0,0,3,,,,,,,,,2,,,57,36
64080,note_on,60,0,1,,,,,,,,,0,,,69,0
64080,note_on,0,0,1,,,,,,,,,0,,,69,49
64086,note_on,6,0,3,,,,,,,,,2,,,65,0
64086,note_on,6,0,1,,,,,,,,,0,,,69,0
64086,note_on,0,0,3,,,,,,,,,2,,,57,0
64140,note_on,54,0,1,,,,,,,,,0,,,69,49
64140,note_on,54,0,3,,,,,,,,,2,,,57,36
64140,note_on,0,0,3,,,,,,,,,2,,,65,36
64146,note_on,6,0,3,,,,,,,,,2,,,65,0
64146,note_on,0,0,3,,,,,,,,,2,,,57,0
64146,note_on,6,0,1,,,,,,,,,0,,,69,0
64200,note_on,54,0,3,,,,,,,,,2,,,57,36
64200,note_on,0,0,3,,,,,,,,,2,,,65,36
64200,note_on,54,0,1,,,,,,,,,0,,,69,49
64206,note_on,6,0,1,,,,,,,,,0,,,69,0
64212,note_on,12,0,3,,,,,,,,,2,,,65,0
64212,note_on,0,0,3,,,,,,,,,2,,,57,0
64260,note_on,54,0,1,,,,,,,,,0,,,69,49
64266,note_on,6,0,1,,,,,,,,,0,,,69,0
64320,note_on,108,0,3,,,,,,,,,2,,,57,36
64320,note_on,54,0,1,,,,,,,,,0,,,73,49
64320,note_on,0,0,3,,,,,,,,,2,,,67,36
64380,note_on,60,0,1,,,,,,,,,0,,,73,0
64380,note_on,0,0,1,,,,,,,,,0,,,76,49
64440,note_on,0,0,3,,,,,,,,,2,,,65,36
64440,note_on,60,0,1,,,,,,,,,0,,,76,0
64440,note_on,0,0,1,,,,,,,,,0,,,74,49
64440,note_on,0,0,3,,,,,,,,,2,,,57,36
64440,note_on,0,0,3,,,,,,,,,2,,,57,0
64440,note_on,120,0,3,,,,,,,,,2,,,67,0
64500,note_on,0,0,1,,,,,,,,,0,,,69,49
64500,note_on,60,0,1,,,,,,,,,0,,,74,0
64560,note_on,60,0,1,,,,,,,,,0,,,69,0
64560,note_on,0,0,1,,,,,,,,,0,,,73,49
64560,note_on,0,0,3,,,,,,,,,2,,,57,36
64560,note_on,0,0,3,,,,,,,,,2,,,67,36
64560,note_on,0,0,3,,,,,,,,,2,,,57,0
64560,note_on,120,0,3,,,,,,,,,2,,,65,0
64620,note_on,0,0,1,,,,,,,,,0,,,76,49
64620,note_on,60,0,1,,,,,,,,,0,,,73,0
64680,note_on,60,0,1,,,,,,,,,0,,,76,0
64680,note_on,0,0,1,,,,,,,,,0,,,74,49
64680,note_on,0,0,3,,,,,,,,,2,,,65,36
64680,note_on,0,0,3,,,,,,,,,2,,,57,36
64680,note_on,0,0,3,,,,,,,,,2,,,57,0
64680,note_on,120,0,3,,,,,,,,,2,,,67,0
64740,note_on,60,0,1,,,,,,,,,0,,,74,0
64740,note_on,0,0,1,,,,,,,,,0,,,69,49
64800,note_on,0,0,3,,,,,,,,,2,,,67,36
64800,note_on,0,0,3,,,,,,,,,2,,,57,0
64800,note_on,120,0,3,,,,,,,,,2,,,65,0
64800,note_on,0,0,1,,,,,,,,,0,,,73,49
64800,note_on,60,0,1,,,,,,,,,0,,,69,0
64800,note_on,0,0,3,,,,,,,,,2,,,57,36
64860,note_on,0,0,1,,,,,,,,,0,,,76,49
64860,note_on,60,0,1,,,,,,,,,0,,,73,0
64920,note_on,0,0,3,,,,,,,,,2,,,57,0
64920,note_on,120,0,3,,,,,,,,,2,,,67,0
64920,control_change,0,0,3,,,,,,,,,2,64,127,,
64920,note_on,0,0,3,,,,,,,,,2,,,50,36
64920,control_change,0,0,1,,,,,,,,,0,64,127,,
64920,note_on,60,0,1,,,,,,,,,0,,,76,0
64920,note_on,0,0,1,,,,,,,,,0,,,74,49
64980,note_on,0,0,1,,,,,,,,,0,,,69,49
64980,note_on,60,0,1,,,,,,,,,0,,,74,0
65040,note_on,0,0,1,,,,,,,,,0,,,74,49
65040,note_on,60,0,1,,,,,,,,,0,,,69,0
65040,note_on,120,0,3,,,,,,,,,2,,,50,0
65040,note_on,0,0,3,,,,,,,,,2,,,57,49
65040,note_on,0,0,3,,,,,,,,,2,,,65,49
65046,note_on,6,0,3,,,,,,,,,2,,,65,0
65046,note_on,0,0,3,,,,,,,,,2,,,57,0
65100,note_on,60,0,1,,,,,,,,,0,,,74,0
65100,note_on,54,0,3,,,,,,,,,2,,,57,49
65100,note_on,0,0,1,,,,,,,,,0,,,77,49
65100,note_on,0,0,3,,,,,,,,,2,,,65,49
65106,note_on,6,0,3,,,,,,,,,2,,,65,0
65106,note_on,0,0,3,,,,,,,,,2,,,57,0
65160,note_on,60,0,1,,,,,,,,,0,,,77,0
65160,note_on,0,0,1,,,,,,,,,0,,,81,75
65160,note_on,0,0,3,,,,,,,,,2,,,65,62
65160,note_on,54,0,3,,,,,,,,,2,,,57,62
65172,note_on,0,0,3,,,,,,,,,2,,,57,0
65172,note_on,12,0,3,,,,,,,,,2,,,65,0
65220,note_on,0,0,1,,,,,,,,,0,,,86,75
65220,note_on,60,0,1,,,,,,,,,0,,,81,0
65280,note_on,0,0,1,,,,,,,,,0,,,89,75
65280,note_on,60,0,1,,,,,,,,,0,,,86,0
65340,note_on,0,0,1,,,,,,,,,0,,,93,75
65340,note_on,60,0,1,,,,,,,,,0,,,89,0
65400,note_on,0,0,3,,,,,,,,,2,,,50,62
65400,note_on,228,0,3,,,,,,,,,2,,,38,62
65400,note_on,0,0,1,,,,,,,,,0,,,93,75
65400,note_on,60,0,1,,,,,,,,,0,,,93,0
65460,note_on,0,0,1,,,,,,,,,0,,,81,75
65460,note_on,60,0,1,,,,,,,,,0,,,93,0
65520,note_on,0,0,3,,,,,,,,,2,,,36,62
65520,note_on,0,0,3,,,,,,,,,2,,,48,62
65520,note_on,120,0,3,,,,,,,,,2,,,50,0
65520,note_on,60,0,1,,,,,,,,,0,,,81,0
65520,note_on,0,0,3,,,,,,,,,2,,,38,0
65520,note_on,0,0,1,,,,,,,,,0,,,93,75
65580,note_on,60,0,1,,,,,,,,,0,,,93,0
65580,note_on,0,0,1,,,,,,,,,0,,,81,75
65640,note_on,120,0,3,,,,,,,,,2,,,48,0
65640,control_change,0,0,1,,,,,,,,,0,64,0,,
65640,note_on,0,0,3,,,,,,,,,2,,,36,0
65640,note_on,0,0,1,,,,,,,,,0,,,94,75
65640,note_on,0,0,3,,,,,,,,,2,,,46,62
65640,control_change,0,0,3,,,,,,,,,2,64,0,,
65640,note_on,60,0,1,,,,,,,,,0,,,81,0
65640,note_on,0,0,3,,,,,,,,,2,,,34,62
65700,note_on,60,0,1,,,,,,,,,0,,,94,0
65700,note_on,0,0,1,,,,,,,,,0,,,82,75
65760,note_on,120,0,3,,,,,,,,,2,,,46,0
65760,note_on,60,0,1,,,,,,,,,0,,,82,0
65760,note_on,0,0,3,,,,,,,,,2,,,44,62
65760,note_on,0,0,1,,,,,,,,,0,,,94,75
65760,note_on,0,0,3,,,,,,,,,2,,,32,62
65760,note_on,0,0,3,,,,,,,,,2,,,34,0
65820,note_on,0,0,1,,,,,,,,,0,,,82,75
65820,note_on,60,0,1,,,,,,,,,0,,,94,0
65880,note_on,0,0,1,,,,,,,,,0,,,95,88
65880,control_change,0,0,1,,,,,,,,,0,64,127,,
65880,note_on,60,0,1,,,,,,,,,0,,,82,0
65880,note_on,120,0,3,,,,,,,,,2,,,44,0
65880,note_on,0,0,3,,,,,,,,,2,,,32,0
65880,control_change,0,0,3,,,,,,,,,2,64,127,,
65880,note_on,0,0,3,,,,,,,,,2,,,31,75
65880,note_on,0,0,3,,,,,,,,,2,,,43,75
65940,note_on,60,0,1,,,,,,,,,0,,,95,0
65940,note_on,0,0,1,,,,,,,,,0,,,83,88
66000,note_on,60,0,1,,,,,,,,,0,,,83,0
66000,note_on,0,0,1,,,,,,,,,0,,,71,88
66000,note_on,0,0,1,,,,,,,,,0,,,77,88
66000,note_on,0,0,1,,,,,,,,,0,,,83,88
66000,note_on,0,0,3,,,,,,,,,2,,,55,75
66000,note_on,120,0,3,,,,,,,,,2,,,43,0
66000,note_on,0,0,3,,,,,,,,,2,,,31,0
66000,note_on,0,0,3,,,,,,,,,2,,,62,75
66000,note_on,0,0,3,,,,,,,,,2,,,65,75
66006,note_on,0,0,3,,,,,,,,,2,,,62,0
66006,note_on,0,0,3,,,,,,,,,2,,,55,0
66006,note_on,6,0,1,,,,,,,,,0,,,83,0
66006,note_on,0,0,1,,,,,,,,,0,,,77,0
66006,note_on,0,0,1,,,,,,,,,0,,,71,0
66006,note_on,6,0,3,,,,,,,,,2,,,65,0
66060,note_on,0,0,3,,,,,,,,,2,,,62,75
66060,note_on,54,0,1,,,,,,,,,0,,,71,88
66060,note_on,54,0,3,,,,,,,,,2,,,55,75
66060,note_on,0,0,1,,,,,,,,,0,,,83,88
66060,note_on,0,0,1,,,,,,,,,0,,,77,88
66060,note_on,0,0,3,,,,,,,,,2,,,65,75
66066,note_on,6,0,1,,,,,,,,,0,,,83,0
66066,note_on,6,0,3,,,,,,,,,2,,,65,0
66066,note_on,0,0,3,,,,,,,,,2,,,62,0
66066,note_on,0,0,3,,,,,,,,,2,,,55,0
66066,note_on,0,0,1,,,,,,,,,0,,,77,0
66066,note_on,0,0,1,,,,,,,,,0,,,71,0
66120,note_on,0,0,1,,,,,,,,,0,,,71,88
66120,control_change,54,0,3,,,,,,,,,2,64,0,,
66120,note_on,0,0,3,,,,,,,,,2,,,55,75
66120,note_on,0,0,3,,,,,,,,,2,,,62,75
66120,note_on,0,0,1,,,,,,,,,0,,,83,88
66120,note_on,0,0,1,,,,,,,,,0,,,77,88
66120,note_on,0,0,3,,,,,,,,,2,,,65,75
66120,control_change,54,0,1,,,,,,,,,0,64,0,,
66132,note_on,12,0,3,,,,,,,,,2,,,65,0
66132,note_on,0,0,3,,,,,,,,,2,,,62,0
66132,note_on,12,0,1,,,,,,,,,0,,,83,0
66132,note_on,0,0,1,,,,,,,,,0,,,77,0
66132,note_on,0,0,1,,,,,,,,,0,,,71,0
66132,note_on,0,0,3,,,,,,,,,2,,,55,0
66240,note_on,0,0,3,,,,,,,,,2,,,65,101
66240,note_on,0,0,3,,,,,,,,,2,,,62,101
66240,note_on,108,0,3,,,,,,,,,2,,,56,101
66240,note_on,0,0,1,,,,,,,,,0,,,83,114
66240,note_on,0,0,1,,,,,,,,,0,,,77,114
66240,note_on,108,0,1,,,,,,,,,0,,,71,114
66252,note_on,12,0,1,,,,,,,,,0,,,83,0
66252,note_on,0,0,3,,,,,,,,,2,,,56,0
66252,note_on,0,0,3,,,,,,,,,2,,,62,0
66252,note_on,12,0,3,,,,,,,,,2,,,65,0
66252,note_on,0,0,1,,,,,,,,,0,,,77,0
66252,note_on,0,0,1,,,,,,,,,0,,,71,0
66360,control_change,108,0,1,,,,,,,,,0,64,127,,
66360,note_on,0,0,3,,,,,,,,,2,,,57,101
66360,note_on,0,0,3,,,,,,,,,2,,,45,101
66360,note_on,0,0,1,,,,,,,,,0,,,84,114
66360,note_on,0,0,1,,,,,,,,,0,,,72,114
66360,control_change,108,0,3,,,,,,,,,2,64,127,,
66420,note_on,0,0,1,,,,,,,,,0,,,72,0
66420,note_on,60,0,1,,,,,,,,,0,,,84,0
66420,note_on,0,0,1,,,,,,,,,0,,,76,114
66480,note_on,0,0,3,,,,,,,,,2,,,60,101
66480,note_on,0,0,3,,,,,,,,,2,,,64,101
66480,note_on,120,0,3,,,,,,,,,2,,,57,0
66480,note_on,60,0,1,,,,,,,,,0,,,76,0
66480,note_on,0,0,1,,,,,,,,,0,,,76,114
66480,note_on,0,0,1,,,,,,,,,0,,,72,114
66480,note_on,0,0,3,,,,,,,,,2,,,57,101
66480,note_on,0,0,3,,,,,,,,,2,,,45,0
66486,note_on,0,0,1,,,,,,,,,0,,,72,0
66486,note_on,6,0,1,,,,,,,,,0,,,76,0
66486,note_on,0,0,3,,,,,,,,,2,,,57,0
66486,note_on,0,0,3,,,,,,,,,2,,,60,0
66486,note_on,6,0,3,,,,,,,,,2,,,64,0
66540,note_on,0,0,3,,,,,,,,,2,,,64,101
66540,note_on,0,0,3,,,,,,,,,2,,,57,101
66540,note_on,0,0,3,,,,,,,,,2,,,60,101
66540,note_on,0,0,1,,,,,,,,,0,,,72,114
66540,control_change,54,0,1,,,,,,,,,0,64,0,,
66540,control_change,54,0,3,,,,,,,,,2,64,0,,
66540,note_on,0,0,1,,,,,,,,,0,,,76,114
66546,note_on,6,0,3,,,,,,,,,2,,,64,0
66546,note_on,0,0,1,,,,,,,,,0,,,72,0
66546,note_on,6,0,1,,,,,,,,,0,,,76,0
66546,note_on,0,0,3,,,,,,,,,2,,,60,0
66546,note_on,0,0,3,,,,,,,,,2,,,57,0
66600,note_on,54,0,1,,,,,,,,,0,,,72,114
66600,note_on,54,0,3,,,,,,,,,2,,,57,101
66600,note_on,0,0,3,,,,,,,,,2,,,60,101
66600,note_on,0,0,3,,,,,,,,,2,,,64,101
66600,note_on,0,0,1,,,,,,,,,0,,,76,114
66612,note_on,0,0,1,,,,,,,,,0,,,72,0
66612,note_on,0,0,3,,,,,,,,,2,,,60,0
66612,note_on,0,0,3,,,,,,,,,2,,,57,0
66612,note_on,12,0,1,,,,,,,,,0,,,76,0
66612,note_on,12,0,3,,,,,,,,,2,,,64,0
66720,note_on,0,0,3,,,,,,,,,2,,,54,101
66720,note_on,108,0,1,,,,,,,,,0,,,69,114
66720,note_on,0,0,1,,,,,,,,,0,,,72,114
66720,note_on,0,0,1,,,,,,,,,0,,,75,114
66720,note_on,0,0,1,,,,,,,,,0,,,81,114
66720,note_on,108,0,3,,,,,,,,,2,,,42,101
66732,note_on,0,0,1,,,,,,,,,0,,,72,0
66732,note_on,12,0,3,,,,,,,,,2,,,54,0
66732,note_on,0,0,1,,,,,,,,,0,,,69,0
66732,note_on,0,0,1,,,,,,,,,0,,,75,0
66732,note_on,12,0,1,,,,,,,,,0,,,81,0
66732,note_on,0,0,3,,,,,,,,,2,,,42,0
66840,note_on,0,0,3,,,,,,,,,2,,,55,101
66840,note_on,108,0,3,,,,,,,,,2,,,43,101
66852,note_on,12,0,3,,,,,,,,,2,,,55,0
66852,note_on,0,0,3,,,,,,,,,2,,,43,0
66960,note_on,228,0,1,,,,,,,,,0,,,67,114
66960,note_on,0,0,1,,,,,,,,,0,,,72,114
66960,note_on,0,0,1,,,,,,,,,0,,,74,114
66972,note_on,12,0,1,,,,,,,,,0,,,74,0
66972,note_on,0,0,1,,,,,,,,,0,,,67,0
66972,note_on,0,0,1,,,,,,,,,0,,,72,0
67080,note_on,228,0,3,,,,,,,,,2,,,55,101
67080,note_on,0,0,3,,,,,,,,,2,,,65,101
67080,note_on,0,0,3,,,,,,,,,2,,,62,101
67092,note_on,0,0,3,,,,,,,,,2,,,55,0
67092,note_on,0,0,3,,,,,,,,,2,,,62,0
67092,note_on,12,0,3,,,,,,,,,2,,,65,0
67200,note_on,0,0,1,,,,,,,,,0,,,79,114
67200,note_on,0,0,1,,,,,,,,,0,,,74,114
67200,note_on,228,0,1,,,,,,,,,0,,,67,114
67200,note_on,0,0,1,,,,,,,,,0,,,71,114
67212,note_on,0,0,1,,,,,,,,,0,,,67,0
67212,note_on,0,0,1,,,,,,,,,0,,,71,0
67212,note_on,0,0,1,,,,,,,,,0,,,74,0
67212,note_on,12,0,1,,,,,,,,,0,,,79,0
67320,control_change,228,0,3,,,,,,,,,2,64,127,,
67320,note_on,0,0,1,,,,,,,,,0,,,79,75
67320,note_on,0,0,3,,,,,,,,,2,,,48,36
67320,control_change,108,0,1,,,,,,,,,0,64,127,,
67380,note_on,60,0,1,,,,,,,,,0,,,79,0
67380,note_on,0,0,3,,,,,,,,,2,,,55,36
67380,note_on,0,0,1,,,,,,,,,0,,,76,49
67380,note_on,60,0,3,,,,,,,,,2,,,48,0
67440,note_on,60,0,3,,,,,,,,,2,,,55,0
67440,note_on,0,0,3,,,,,,,,,2,,,64,36
67440,note_on,60,0,1,,,,,,,,,0,,,76,0
67440,note_on,0,0,1,,,,,,,,,0,,,67,49
67500,note_on,0,0,3,,,,,,,,,2,,,55,36
67500,note_on,60,0,3,,,,,,,,,2,,,64,0
67500,note_on,60,0,1,,,,,,,,,0,,,67,0
67500,note_on,0,0,1,,,,,,,,,0,,,76,49
67560,note_on,60,0,1,,,,,,,,,0,,,76,0
67560,note_on,0,0,1,,,,,,,,,0,,,67,49
67560,note_on,0,0,3,,,,,,,,,2,,,64,36
67560,control_change,0,0,3,,,,,,,,,2,64,0,,
67560,note_on,60,0,3,,,,,,,,,2,,,55,0
67560,control_change,0,0,1,,,,,,,,,0,64,0,,
67620,note_on,60,0,1,,,,,,,,,0,,,67,0
67620,note_on,60,0,3,,,,,,,,,2,,,64,0
67680,note_on,60,0,1,,,,,,,,,0,,,65,49
67680,note_on,0,0,1,,,,,,,,,0,,,67,49
67680,note_on,60,0,3,,,,,,,,,2,,,47,36
67692,note_on,12,0,1,,,,,,,,,0,,,67,0
67692,note_on,0,0,1,,,,,,,,,0,,,65,0
67740,note_on,0,0,3,,,,,,,,,2,,,55,36
67740,note_on,60,0,3,,,,,,,,,2,,,47,0
67800,note_on,108,0,1,,,,,,,,,0,,,64,49
67800,note_on,0,0,1,,,,,,,,,0,,,67,49
67800,note_on,0,0,3,,,,,,,,,2,,,48,36
67800,note_on,60,0,3,,,,,,,,,2,,,55,0
67812,note_on,12,0,1,,,,,,,,,0,,,67,0
67812,note_on,0,0,1,,,,,,,,,0,,,64,0
67860,note_on,0,0,3,,,,,,,,,2,,,55,36
67860,note_on,60,0,3,,,,,,,,,2,,,48,0
67920,note_on,0,0,1,,,,,,,,,0,,,67,49
67920,note_on,108,0,1,,,,,,,,,0,,,65,49
67920,note_on,60,0,3,,,,,,,,,2,,,55,0
67920,note_on,0,0,3,,,,,,,,,2,,,47,36
67932,note_on,12,0,1,,,,,,,,,0,,,67,0
67932,note_on,0,0,1,,,,,,,,,0,,,65,0
67980,note_on,60,0,3,,,,,,,,,2,,,47,0
67980,note_on,0,0,3,,,,,,,,,2,,,55,36
68040,note_on,0,0,1,,,,,,,,,0,,,67,49
68040,note_on,108,0,1,,,,,,,,,0,,,64,49
68040,note_on,0,0,3,,,,,,,,,2,,,48,36
68040,note_on,60,0,3,,,,,,,,,2,,,55,0
68052,note_on,0,0,1,,,,,,,,,0,,,64,0
68052,note_on,12,0,1,,,,,,,,,0,,,67,0
68100,note_on,60,0,3,,,,,,,,,2,,,48,0
68100,note_on,0,0,3,,,,,,,,,2,,,55,36
68160,note_on,60,0,3,,,,,,,,,2,,,55,0
68160,note_on,0,0,3,,,,,,,,,2,,,47,36
68160,note_on,0,0,1,,,,,,,,,0,,,67,49
68160,note_on,108,0,1,,,,,,,,,0,,,65,49
68172,note_on,12,0,1,,,,,,,,,0,,,67,0
68172,note_on,0,0,1,,,,,,,,,0,,,65,0
68220,note_on,0,0,3,,,,,,,,,2,,,55,36
68220,note_on,60,0,3,,,,,,,,,2,,,47,0
68280,note_on,108,0,1,,,,,,,,,0,,,64,49
68280,control_change,0,0,3,,,,,,,,,2,64,127,,
68280,note_on,0,0,1,,,,,,,,,0,,,67,49
68280,note_on,0,0,3,,,,,,,,,2,,,48,36
68280,note_on,60,0,3,,,,,,,,,2,,,55,0
68340,note_on,0,0,3,,,,,,,,,2,,,52,36
68340,note_on,60,0,3,,,,,,,,,2,,,48,0
68400,note_on,60,0,3,,,,,,,,,2,,,52,0
68400,note_on,0,0,3,,,,,,,,,2,,,55,36
68460,note_on,60,0,3,,,,,,,,,2,,,55,0
68460,note_on,0,0,3,,,,,,,,,2,,,60,36
68520,note_on,60,0,3,,,,,,,,,2,,,60,0
68520,note_on,0,0,3,,,,,,,,,2,,,64,36
68520,note_on,240,0,1,,,,,,,,,0,,,67,0
68520,note_on,0,0,1,,,,,,,,,0,,,64,0
68580,note_on,60,0,3,,,,,,,,,2,,,64,0
68580,control_change,0,0,3,,,,,,,,,2,64,0,,
68580,note_on,0,0,3,,,,,,,,,2,,,67,36
68640,note_on,60,0,3,,,,,,,,,2,,,67,0
68640,note_on,0,0,3,,,,,,,,,2,,,56,36
68640,note_on,0,0,3,,,,,,,,,2,,,68,36
68640,note_on,0,0,1,,,,,,,,,0,,,76,49
68640,note_on,120,0,1,,,,,,,,,0,,,74,49
68652,note_on,0,0,3,,,,,,,,,2,,,56,0
68652,note_on,12,0,3,,,,,,,,,2,,,68,0
68652,note_on,0,0,1,,,,,,,,,0,,,74,0
68652,note_on,12,0,1,,,,,,,,,0,,,76,0
68760,note_on,0,0,3,,,,,,,,,2,,,69,36
68760,note_on,108,0,3,,,,,,,,,2,,,57,36
68820,control_change,168,0,1,,,,,,,,,0,64,127,,
68820,note_on,0,0,1,,,,,,,,,0,,,73,49
68880,note_on,0,0,1,,,,,,,,,0,,,76,49
68880,note_on,60,0,1,,,,,,,,,0,,,73,0
68940,note_on,0,0,1,,,,,,,,,0,,,81,49
68940,note_on,60,0,1,,,,,,,,,0,,,76,0
69000,note_on,60,0,1,,,,,,,,,0,,,81,0
69000,note_on,0,0,1,,,,,,,,,0,,,85,49
69060,control_change,0,0,1,,,,,,,,,0,64,0,,
69060,note_on,0,0,1,,,,,,,,,0,,,88,49
69060,note_on,60,0,1,,,,,,,,,0,,,85,0
69120,note_on,0,0,1,,,,,,,,,0,,,93,114
69120,note_on,0,0,3,,,,,,,,,2,,,45,101
69120,note_on,60,0,1,,,,,,,,,0,,,88,0
69120,note_on,0,0,1,,,,,,,,,0,,,81,114
69120,note_on,360,0,3,,,,,,,,,2,,,69,0
69120,note_on,0,0,3,,,,,,,,,2,,,33,101
69120,note_on,0,0,3,,,,,,,,,2,,,57,0
69132,note_on,12,0,1,,,,,,,,,0,,,93,0
69132,note_on,0,0,1,,,,,,,,,0,,,81,0
69132,note_on,0,0,3,,,,,,,,,2,,,33,0
69132,note_on,12,0,3,,,,,,,,,2,,,45,0
69240,control_change,108,0,3,,,,,,,,,2,64,127,,
69240,note_on,0,0,1,,,,,,,,,0,,,81,75
69240,control_change,108,0,1,,,,,,,,,0,64,127,,
69240,note_on,0,0,3,,,,,,,,,2,,,50,36
69300,note_on,0,0,3,,,,,,,,,2,,,57,36
69300,note_on,60,0,3,,,,,,,,,2,,,50,0
69300,note_on,60,0,1,,,,,,,,,0,,,81,0
69300,note_on,0,0,1,,,,,,,,,0,,,77,49
69360,note_on,60,0,3,,,,,,,,,2,,,57,0
69360,note_on,0,0,1,,,,,,,,,0,,,69,49
69360,note_on,60,0,1,,,,,,,,,0,,,77,0
69360,note_on,0,0,3,,,,,,,,,2,,,65,36
69420,note_on,0,0,1,,,,,,,,,0,,,77,49
69420,note_on,60,0,3,,,,,,,,,2,,,65,0
69420,note_on,0,0,3,,,,,,,,,2,,,57,36
69420,note_on,60,0,1,,,,,,,,,0,,,69,0
69480,note_on,60,0,1,,,,,,,,,0,,,77,0
69480,control_change,0,0,3,,,,,,,,,2,64,0,,
69480,note_on,60,0,3,,,,,,,,,2,,,57,0
69480,control_change,0,0,1,,,,,,,,,0,64,0,,
69480,note_on,0,0,3,,,,,,,,,2,,,65,36
69480,note_on,0,0,1,,,,,,,,,0,,,69,49
69540,note_on,60,0,3,,,,,,,,,2,,,65,0
69540,note_on,60,0,1,,,,,,,,,0,,,69,0
69600,note_on,0,0,1,,,,,,,,,0,,,69,49
69600,note_on,60,0,3,,,,,,,,,2,,,49,36
69600,note_on,60,0,1,,,,,,,,,0,,,67,49
69612,note_on,0,0,1,,,,,,,,,0,,,67,0
69612,note_on,12,0,1,,,,,,,,,0,,,69,0
69660,note_on,60,0,3,,,,,,,,,2,,,49,0
69660,note_on,0,0,3,,,,,,,,,2,,,57,36
69720,note_on,0,0,1,,,,,,,,,0,,,69,49
69720,note_on,108,0,1,,,,,,,,,0,,,65,49
69720,note_on,60,0,3,,,,,,,,,2,,,57,0
69720,note_on,0,0,3,,,,,,,,,2,,,50,36
69732,note_on,12,0,1,,,,,,,,,0,,,69,0
69732,note_on,0,0,1,,,,,,,,,0,,,65,0
69780,note_on,0,0,3,,,,,,,,,2,,,57,36
69780,note_on,60,0,3,,,,,,,,,2,,,50,0
69840,note_on,0,0,1,,,,,,,,,0,,,69,49
69840,note_on,108,0,1,,,,,,,,,0,,,67,49
69840,note_on,60,0,3,,,,,,,,,2,,,57,0
69840,note_on,0,0,3,,,,,,,,,2,,,49,36
69852,note_on,0,0,1,,,,,,,,,0,,,67,0
69852,note_on,12,0,1,,,,,,,,,0,,,69,0
69900,note_on,0,0,3,,,,,,,,,2,,,57,36
69900,note_on,60,0,3,,,,,,,,,2,,,49,0
69960,note_on,60,0,3,,,,,,,,,2,,,57,0
69960,note_on,108,0,1,,,,,,,,,0,,,65,49
69960,note_on,0,0,1,,,,,,,,,0,,,69,49
69960,note_on,0,0,3,,,,,,,,,2,,,50,36
69972,note_on,12,0,1,,,,,,,,,0,,,69,0
69972,note_on,0,0,1,,,,,,,,,0,,,65,0
70020,note_on,60,0,3,,,,,,,,,2,,,50,0
70020,note_on,0,0,3,,,,,,,,,2,,,57,36
70080,note_on,60,0,3,,,,,,,,,2,,,57,0
70080,note_on,0,0,3,,,,,,,,,2,,,49,36
70080,note_on,108,0,1,,,,,,,,,0,,,67,49
70080,note_on,0,0,1,,,,,,,,,0,,,69,49
70092,note_on,12,0,1,,,,,,,,,0,,,69,0
70092,note_on,0,0,1,,,,,,,,,0,,,67,0
70140,note_on,60,0,3,,,,,,,,,2,,,49,0
70140,note_on,0,0,3,,,,,,,,,2,,,57,36
70200,note_on,0,0,1,,,,,,,,,0,,,69,75
70200,note_on,60,0,3,,,,,,,,,2,,,57,0
70200,control_change,0,0,3,,,,,,,,,2,64,127,,
70200,note_on,0,0,3,,,,,,,,,2,,,50,62
70200,note_on,108,0,1,,,,,,,,,0,,,65,75
70260,note_on,60,0,3,,,,,,,,,2,,,50,0
70260,note_on,0,0,3,,,,,,,,,2,,,53,62
70320,note_on,60,0,3,,,,,,,,,2,,,53,0
70320,note_on,0,0,3,,,,,,,,,2,,,57,62
70380,note_on,60,0,3,,,,,,,,,2,,,57,0
70380,note_on,0,0,3,,,,,,,,,2,,,62,62
70380,control_change,0,0,3,,,,,,,,,2,64,0,,
70440,note_on,60,0,3,,,,,,,,,2,,,62,0
70440,note_on,0,0,1,,,,,,,,,0,,,65,0
70440,note_on,240,0,1,,,,,,,,,0,,,69,0
70440,note_on,8628,0,2,,,,,,,,,1,,,65,62
70500,note_on,0,0,2,,,,,,,,,1,,,69,62
70500,note_on,60,0,2,,,,,,,,,1,,,65,0
70560,note_on,0,0,2,,,,,,,,,1,,,57,62
70560,note_on,0,0,2,,,,,,,,,1,,,69,62
70560,note_on,120,0,1,,,,,,,,,0,,,75,75
70560,note_on,0,0,1,,,,,,,,,0,,,77,75
70560,note_on,60,0,2,,,,,,,,,1,,,69,0
70572,note_on,12,0,2,,,,,,,,,1,,,69,0
70572,note_on,0,0,2,,,,,,,,,1,,,57,0
70572,note_on,12,0,1,,,,,,,,,0,,,77,0
70572,note_on,0,0,1,,,,,,,,,0,,,75,0
70680,note_on,108,0,2,,,,,,,,,1,,,58,88
70680,note_on,0,0,2,,,,,,,,,1,,,70,88
70740,control_change,168,0,1,,,,,,,,,0,64,127,,
70740,note_on,0,0,1,,,,,,,,,0,,,74,88
70800,note_on,60,0,1,,,,,,,,,0,,,74,0
70800,note_on,0,0,1,,,,,,,,,0,,,77,88
70860,note_on,0,0,1,,,,,,,,,0,,,82,88
70860,note_on,60,0,1,,,,,,,,,0,,,77,0
70920,note_on,0,0,2,,,,,,,,,1,,,58,0
70920,note_on,0,0,3,,,,,,,,,2,,,46,75
70920,note_on,0,0,1,,,,,,,,,0,,,86,88
70920,note_on,60,0,1,,,,,,,,,0,,,82,0
70920,note_on,480,0,3,,,,,,,,,2,,,34,75
70920,note_on,240,0,2,,,,,,,,,1,,,70,0
70980,note_on,0,0,1,,,,,,,,,0,,,89,88
70980,control_change,0,0,1,,,,,,,,,0,64,0,,
70980,note_on,60,0,1,,,,,,,,,0,,,86,0
71040,note_on,0,0,1,,,,,,,,,0,,,82,88
71040,note_on,0,0,3,,,,,,,,,2,,,44,75
71040,note_on,120,0,3,,,,,,,,,2,,,46,0
71040,note_on,0,0,3,,,,,,,,,2,,,34,0
71040,note_on,0,0,3,,,,,,,,,2,,,32,75
71040,note_on,60,0,1,,,,,,,,,0,,,89,0
71040,note_on,0,0,1,,,,,,,,,0,,,94,88
71052,note_on,0,0,1,,,,,,,,,0,,,82,0
71052,note_on,12,0,1,,,,,,,,,0,,,94,0
71160,note_on,0,0,3,,,,,,,,,2,,,31,88
71160,note_on,0,0,3,,,,,,,,,2,,,43,88
71160,note_on,120,0,3,,,,,,,,,2,,,44,0
71160,note_on,0,0,3,,,,,,,,,2,,,32,0
71172,note_on,0,0,3,,,,,,,,,2,,,31,0
71172,note_on,12,0,3,,,,,,,,,2,,,43,0
71280,note_on,228,0,1,,,,,,,,,0,,,71,101
71280,note_on,0,0,1,,,,,,,,,0,,,74,101
71280,note_on,0,0,1,,,,,,,,,0,,,77,101
71280,note_on,0,0,1,,,,,,,,,0,,,83,101
71292,note_on,12,0,1,,,,,,,,,0,,,83,0
71292,note_on,0,0,1,,,,,,,,,0,,,77,0
71292,note_on,0,0,1,,,,,,,,,0,,,74,0
71292,note_on,0,0,1,,,,,,,,,0,,,71,0
71400,note_on,0,0,3,,,,,,,,,2,,,42,88
71400,note_on,228,0,3,,,,,,,,,2,,,30,88
71412,note_on,0,0,3,,,,,,,,,2,,,30,0
71412,note_on,12,0,3,,,,,,,,,2,,,42,0
71520,note_on,228,0,1,,,,,,,,,0,,,72,101
71520,note_on,0,0,1,,,,,,,,,0,,,75,101
71520,note_on,0,0,1,,,,,,,,,0,,,81,101
71520,note_on,0,0,1,,,,,,,,,0,,,84,101
71532,note_on,12,0,1,,,,,,,,,0,,,84,0
71532,note_on,0,0,1,,,,,,,,,0,,,72,0
71532,note_on,0,0,1,,,,,,,,,0,,,75,0
71532,note_on,0,0,1,,,,,,,,,0,,,81,0
72120,note_on,0,0,3,,,,,,,,,2,,,62,49
72120,note_on,0,0,3,,,,,,,,,2,,,60,49
72120,note_on,708,0,3,,,,,,,,,2,,,57,49
72132,note_on,0,0,3,,,,,,,,,2,,,57,0
72132,note_on,0,0,3,,,,,,,,,2,,,60,0
72132,note_on,12,0,3,,,,,,,,,2,,,62,0
72240,note_on,708,0,1,,,,,,,,,0,,,65,49
72240,note_on,0,0,1,,,,,,,,,0,,,72,49
72240,note_on,0,0,1,,,,,,,,,0,,,74,49
72252,note_on,12,0,1,,,,,,,,,0,,,74,0
72252,note_on,0,0,1,,,,,,,,,0,,,72,0
72252,note_on,0,0,1,,,,,,,,,0,,,65,0
72360,note_on,228,0,3,,,,,,,,,2,,,55,49
72360,note_on,0,0,3,,,,,,,,,2,,,65,49
72360,note_on,0,0,3,,,,,,,,,2,,,62,49
72372,note_on,0,0,3,,,,,,,,,2,,,55,0
72372,note_on,0,0,3,,,,,,,,,2,,,62,0
72372,note_on,12,0,3,,,,,,,,,2,,,65,0
72480,note_on,0,0,1,,,,,,,,,0,,,79,49
72480,note_on,0,0,1,,,,,,,,,0,,,74,49
72480,note_on,0,0,1,,,,,,,,,0,,,71,49
72480,note_on,228,0,1,,,,,,,,,0,,,67,49
72492,note_on,0,0,1,,,,,,,,,0,,,71,0
72492,note_on,0,0,1,,,,,,,,,0,,,67,0
72492,note_on,12,0,1,,,,,,,,,0,,,79,0
72492,note_on,0,0,1,,,,,,,,,0,,,74,0
73440,note_on,1068,0,3,,,,,,,,,2,,,63,36
73440,note_on,948,0,1,,,,,,,,,0,,,75,49
73530,note_on,90,0,1,,,,,,,,,0,,,74,49
73530,note_on,90,0,3,,,,,,,,,2,,,62,36
73545,note_on,0,0,1,,,,,,,,,0,,,75,49
73545,note_on,0,0,3,,,,,,,,,2,,,63,36
73545,note_on,15,0,3,,,,,,,,,2,,,62,0
73545,note_on,15,0,1,,,,,,,,,0,,,74,0
73560,note_on,0,0,1,,,,,,,,,0,,,74,49
73560,note_on,15,0,1,,,,,,,,,0,,,75,0
73560,note_on,0,0,1,,,,,,,,,0,,,75,0
73560,note_on,0,0,3,,,,,,,,,2,,,62,36
73560,note_on,0,0,3,,,,,,,,,2,,,63,0
73560,note_on,15,0,3,,,,,,,,,2,,,63,0
73680,note_on,120,0,1,,,,,,,,,0,,,74,0
73680,note_on,0,0,1,,,,,,,,,0,,,72,49
73680,note_on,0,0,3,,,,,,,,,2,,,60,36
73680,note_on,120,0,3,,,,,,,,,2,,,62,0
73800,note_on,0,0,1,,,,,,,,,0,,,79,75
73800,note_on,120,0,1,,,,,,,,,0,,,72,0
73800,control_change,0,0,1,,,,,,,,,0,64,127,,
73800,note_on,0,0,3,,,,,,,,,2,,,67,62
73800,control_change,0,0,3,,,,,,,,,2,64,127,,
73800,note_on,120,0,3,,,,,,,,,2,,,60,0
73980,note_on,0,0,3,,,,,,,,,2,,,63,36
73980,note_on,180,0,3,,,,,,,,,2,,,67,0
73980,note_on,0,0,1,,,,,,,,,0,,,75,49
73980,note_on,180,0,1,,,,,,,,,0,,,79,0
74010,note_on,30,0,1,,,,,,,,,0,,,75,0
74010,note_on,0,0,3,,,,,,,,,2,,,60,36
74010,note_on,30,0,3,,,,,,,,,2,,,63,0
74010,note_on,0,0,1,,,,,,,,,0,,,72,49
74040,control_change,0,0,3,,,,,,,,,2,64,0,,
74040,note_on,30,0,3,,,,,,,,,2,,,60,0
74040,note_on,0,0,3,,,,,,,,,2,,,55,36
74040,control_change,0,0,1,,,,,,,,,0,64,0,,
74040,note_on,0,0,1,,,,,,,,,0,,,67,49
74040,note_on,30,0,1,,,,,,,,,0,,,72,0
74400,note_on,360,0,1,,,,,,,,,0,,,67,0
74400,note_on,0,0,3,,,,,,,,,2,,,63,36
74400,note_on,0,0,3,,,,,,,,,2,,,55,36
74400,note_on,360,0,3,,,,,,,,,2,,,55,0
74400,note_on,0,0,1,,,,,,,,,0,,,67,49
74412,note_on,0,0,3,,,,,,,,,2,,,55,0
74412,note_on,12,0,1,,,,,,,,,0,,,67,0
74412,note_on,12,0,3,,,,,,,,,2,,,63,0
74520,note_on,0,0,1,,,,,,,,,0,,,67,49
74520,note_on,0,0,3,,,,,,,,,2,,,62,36
74520,note_on,108,0,3,,,,,,,,,2,,,55,36
74520,note_on,108,0,1,,,,,,,,,0,,,65,49
74532,note_on,0,0,3,,,,,,,,,2,,,55,0
74532,note_on,12,0,3,,,,,,,,,2,,,62,0
74532,note_on,0,0,1,,,,,,,,,0,,,65,0
74532,note_on,12,0,1,,,,,,,,,0,,,67,0
74640,note_on,0,0,3,,,,,,,,,2,,,60,36
74640,note_on,108,0,1,,,,,,,,,0,,,63,49
74640,note_on,0,0,1,,,,,,,,,0,,,67,49
74640,note_on,108,0,3,,,,,,,,,2,,,55,36
74652,note_on,0,0,1,,,,,,,,,0,,,63,0
74652,note_on,12,0,1,,,,,,,,,0,,,67,0
74652,note_on,0,0,3,,,,,,,,,2,,,55,0
74652,note_on,12,0,3,,,,,,,,,2,,,60,0
74760,note_on,108,0,1,,,,,,,,,0,,,62,49
74760,note_on,0,0,3,,,,,,,,,2,,,59,36
74760,note_on,108,0,3,,,,,,,,,2,,,55,36
74760,note_on,0,0,1,,,,,,,,,0,,,67,49
74772,note_on,0,0,3,,,,,,,,,2,,,55,0
74772,note_on,12,0,3,,,,,,,,,2,,,59,0
74772,note_on,0,0,1,,,,,,,,,0,,,62,0
74772,note_on,12,0,1,,,,,,,,,0,,,67,0
74880,note_on,0,0,3,,,,,,,,,2,,,63,36
74880,note_on,0,0,3,,,,,,,,,2,,,60,36
74880,note_on,108,0,3,,,,,,,,,2,,,55,36
74880,note_on,108,0,1,,,,,,,,,0,,,66,49
74880,note_on,0,0,1,,,,,,,,,0,,,75,49
74892,note_on,0,0,1,,,,,,,,,0,,,66,0
74892,note_on,0,0,3,,,,,,,,,2,,,60,0
74892,note_on,0,0,3,,,,,,,,,2,,,55,0
74892,note_on,12,0,1,,,,,,,,,0,,,75,0
74892,note_on,12,0,3,,,,,,,,,2,,,63,0
75000,note_on,0,0,1,,,,,,,,,0,,,75,49
75000,note_on,108,0,1,,,,,,,,,0,,,67,49
75000,note_on,108,0,3,,,,,,,,,2,,,55,36
75000,note_on,0,0,3,,,,,,,,,2,,,60,36
75000,note_on,0,0,3,,,,,,,,,2,,,63,36
75240,note_on,0,0,3,,,,,,,,,2,,,62,36
75240,note_on,240,0,3,,,,,,,,,2,,,63,0
75240,note_on,0,0,3,,,,,,,,,2,,,60,0
75240,note_on,0,0,3,,,,,,,,,2,,,59,36
75240,note_on,0,0,1,,,,,,,,,0,,,74,49
75240,note_on,240,0,1,,,,,,,,,0,,,75,0
75300,note_on,60,0,3,,,,,,,,,2,,,62,0
75300,note_on,60,0,1,,,,,,,,,0,,,74,0
75300,note_on,0,0,1,,,,,,,,,0,,,67,0
75300,note_on,0,0,3,,,,,,,,,2,,,59,0
75300,note_on,0,0,3,,,,,,,,,2,,,55,0
75360,note_on,60,0,1,,,,,,,,,0,,,77,49
75360,note_on,60,0,3,,,,,,,,,2,,,65,36
75450,note_on,90,0,1,,,,,,,,,0,,,75,49
75450,note_on,90,0,3,,,,,,,,,2,,,63,36
75465,note_on,15,0,1,,,,,,,,,0,,,75,0
75465,note_on,0,0,1,,,,,,,,,0,,,77,49
75465,note_on,0,0,3,,,,,,,,,2,,,65,36
75465,note_on,15,0,3,,,,,,,,,2,,,63,0
75480,note_on,15,0,1,,,,,,,,,0,,,77,0
75480,note_on,15,0,3,,,,,,,,,2,,,65,0
75480,note_on,0,0,3,,,,,,,,,2,,,65,0
75480,note_on,0,0,3,,,,,,,,,2,,,63,36
75480,note_on,0,0,1,,,,,,,,,0,,,75,49
75480,note_on,0,0,1,,,,,,,,,0,,,77,0
75600,note_on,120,0,3,,,,,,,,,2,,,63,0
75600,note_on,0,0,3,,,,,,,,,2,,,62,36
75600,note_on,0,0,1,,,,,,,,,0,,,74,49
75600,note_on,120,0,1,,,,,,,,,0,,,75,0
75720,note_on,0,0,1,,,,,,,,,0,,,80,75
75720,control_change,0,0,1,,,,,,,,,0,64,127,,
75720,note_on,120,0,1,,,,,,,,,0,,,74,0
75720,note_on,0,0,3,,,,,,,,,2,,,68,62
75720,control_change,0,0,3,,,,,,,,,2,64,127,,
75720,note_on,120,0,3,,,,,,,,,2,,,62,0
75900,note_on,180,0,3,,,,,,,,,2,,,68,0
75900,note_on,0,0,3,,,,,,,,,2,,,65,36
75900,note_on,0,0,1,,,,,,,,,0,,,77,49
75900,note_on,180,0,1,,,,,,,,,0,,,80,0
75930,note_on,30,0,3,,,,,,,,,2,,,65,0
75930,note_on,0,0,3,,,,,,,,,2,,,62,36
75930,note_on,0,0,1,,,,,,,,,0,,,74,49
75930,note_on,30,0,1,,,,,,,,,0,,,77,0
75960,note_on,0,0,1,,,,,,,,,0,,,67,49
75960,control_change,0,0,1,,,,,,,,,0,64,0,,
75960,note_on,30,0,3,,,,,,,,,2,,,62,0
75960,control_change,0,0,3,,,,,,,,,2,64,0,,
75960,note_on,30,0,1,,,,,,,,,0,,,74,0
75960,note_on,0,0,3,,,,,,,,,2,,,55,36
76320,note_on,0,0,3,,,,,,,,,2,,,55,36
76320,note_on,360,0,3,,,,,,,,,2,,,55,0
76320,note_on,0,0,1,,,,,,,,,0,,,67,49
76320,note_on,360,0,1,,,,,,,,,0,,,67,0
76332,note_on,12,0,3,,,,,,,,,2,,,55,0
76440,note_on,0,0,1,,,,,,,,,0,,,68,49
76440,note_on,0,0,1,,,,,,,,,0,,,67,49
76440,note_on,120,0,1,,,,,,,,,0,,,67,0
76440,note_on,108,0,3,,,,,,,,,2,,,55,36
76452,note_on,0,0,1,,,,,,,,,0,,,67,0
76452,note_on,12,0,3,,,,,,,,,2,,,55,0
76452,note_on,12,0,1,,,,,,,,,0,,,68,0
76560,note_on,108,0,1,,,,,,,,,0,,,67,49
76560,note_on,0,0,1,,,,,,,,,0,,,71,49
76560,note_on,0,0,3,,,,,,,,,2,,,65,36
76560,note_on,108,0,3,,,,,,,,,2,,,55,36
76572,note_on,0,0,3,,,,,,,,,2,,,55,0
76572,note_on,12,0,1,,,,,,,,,0,,,71,0
76572,note_on,12,0,3,,,,,,,,,2,,,65,0
76572,note_on,0,0,1,,,,,,,,,0,,,67,0
76680,note_on,0,0,1,,,,,,,,,0,,,72,75
76680,note_on,108,0,1,,,,,,,,,0,,,67,75
76680,note_on,108,0,3,,,,,,,,,2,,,55,62
76680,note_on,0,0,3,,,,,,,,,2,,,63,62
76692,note_on,12,0,1,,,,,,,,,0,,,72,0
76692,note_on,0,0,1,,,,,,,,,0,,,67,0
76692,note_on,0,0,3,,,,,,,,,2,,,55,0
76692,note_on,12,0,3,,,,,,,,,2,,,63,0
76800,note_on,0,0,3,,,,,,,,,2,,,62,62
76800,note_on,0,0,3,,,,,,,,,2,,,59,62
76800,note_on,108,0,3,,,,,,,,,2,,,55,62
76800,note_on,108,0,1,,,,,,,,,0,,,67,75
76800,note_on,0,0,1,,,,,,,,,0,,,74,75
76812,note_on,0,0,3,,,,,,,,,2,,,59,0
76812,note_on,12,0,3,,,,,,,,,2,,,62,0
76812,note_on,12,0,1,,,,,,,,,0,,,74,0
76812,note_on,0,0,1,,,,,,,,,0,,,67,0
76812,note_on,0,0,3,,,,,,,,,2,,,55,0
76920,note_on,0,0,1,,,,,,,,,0,,,77,75
76920,note_on,108,0,1,,,,,,,,,0,,,67,75
76920,note_on,108,0,3,,,,,,,,,2,,,60,62
76920,note_on,0,0,3,,,,,,,,,2,,,65,62
76920,note_on,0,0,3,,,,,,,,,2,,,62,62
77160,note_on,0,0,3,,,,,,,,,2,,,63,62
77160,note_on,0,0,3,,,,,,,,,2,,,60,62
77160,note_on,0,0,3,,,,,,,,,2,,,60,0
77160,note_on,240,0,3,,,,,,,,,2,,,65,0
77160,note_on,0,0,3,,,,,,,,,2,,,62,0
77160,note_on,0,0,1,,,,,,,,,0,,,75,75
77160,note_on,240,0,1,,,,,,,,,0,,,77,0
77280,note_on,0,0,1,,,,,,,,,0,,,67,0
77280,note_on,120,0,1,,,,,,,,,0,,,75,0
77280,note_on,120,0,3,,,,,,,,,2,,,63,0
77280,note_on,0,0,3,,,,,,,,,2,,,60,0
77280,note_on,0,0,3,,,,,,,,,2,,,51,62
77280,note_on,0,0,1,,,,,,,,,0,,,63,75
77370,note_on,90,0,1,,,,,,,,,0,,,62,75
77370,note_on,90,0,3,,,,,,,,,2,,,50,62
77385,note_on,15,0,3,,,,,,,,,2,,,50,0
77385,note_on,0,0,3,,,,,,,,,2,,,51,62
77385,note_on,15,0,1,,,,,,,,,0,,,62,0
77385,note_on,0,0,1,,,,,,,,,0,,,63,75
77400,note_on,0,0,3,,,,,,,,,2,,,51,0
77400,note_on,15,0,1,,,,,,,,,0,,,63,0
77400,note_on,0,0,1,,,,,,,,,0,,,63,0
77400,note_on,0,0,1,,,,,,,,,0,,,62,75
77400,note_on,15,0,3,,,,,,,,,2,,,51,0
77400,note_on,0,0,3,,,,,,,,,2,,,50,62
77520,note_on,120,0,1,,,,,,,,,0,,,62,0
77520,note_on,0,0,3,,,,,,,,,2,,,48,62
77520,note_on,120,0,3,,,,,,,,,2,,,50,0
77520,note_on,0,0,1,,,,,,,,,0,,,60,75
77640,note_on,0,0,3,,,,,,,,,2,,,55,88
77640,note_on,120,0,3,,,,,,,,,2,,,48,0
77640,note_on,120,0,1,,,,,,,,,0,,,60,0
77640,control_change,0,0,1,,,,,,,,,0,64,127,,
77640,note_on,0,0,1,,,,,,,,,0,,,67,101
77640,control_change,0,0,3,,,,,,,,,2,64,127,,
77820,note_on,180,0,3,,,,,,,,,2,,,55,0
77820,note_on,0,0,3,,,,,,,,,2,,,51,62
77820,note_on,0,0,1,,,,,,,,,0,,,63,75
77820,note_on,180,0,1,,,,,,,,,0,,,67,0
77850,note_on,30,0,3,,,,,,,,,2,,,51,0
77850,note_on,0,0,3,,,,,,,,,2,,,48,62
77850,note_on,30,0,1,,,,,,,,,0,,,63,0
77850,note_on,0,0,1,,,,,,,,,0,,,60,75
77880,note_on,0,0,3,,,,,,,,,2,,,44,62
77880,note_on,0,0,1,,,,,,,,,0,,,56,75
77880,note_on,30,0,1,,,,,,,,,0,,,60,0
77880,note_on,30,0,3,,,,,,,,,2,,,48,0
78120,note_on,7200,0,2,,,,,,,,,1,,,65,75
78120,note_on,19068,0,4,,,,,,,,,3,,,53,62
78240,note_on,0,0,2,,,,,,,,,1,,,63,75
78240,note_on,120,0,2,,,,,,,,,1,,,65,0
78240,note_on,0,0,4,,,,,,,,,3,,,51,62
78240,note_on,120,0,4,,,,,,,,,3,,,53,0
78360,note_on,0,0,2,,,,,,,,,1,,,62,88
78360,note_on,0,0,4,,,,,,,,,3,,,50,75
78360,note_on,120,0,4,,,,,,,,,3,,,51,0
78360,control_change,480,0,3,,,,,,,,,2,64,0,,
78360,control_change,480,0,1,,,,,,,,,0,64,0,,
78360,note_on,120,0,2,,,,,,,,,1,,,63,0
78480,note_on,0,0,4,,,,,,,,,3,,,48,75
78480,note_on,0,0,2,,,,,,,,,1,,,63,88
78480,note_on,120,0,4,,,,,,,,,3,,,50,0
78480,note_on,0,0,2,,,,,,,,,1,,,60,88
78480,note_on,0,0,4,,,,,,,,,3,,,51,75
78480,note_on,120,0,2,,,,,,,,,1,,,62,0
78600,note_on,0,0,2,,,,,,,,,1,,,60,0
78600,note_on,120,0,2,,,,,,,,,1,,,63,0
78600,note_on,0,0,2,,,,,,,,,1,,,65,88
78600,note_on,240,0,3,,,,,,,,,2,,,44,0
78600,note_on,240,0,1,,,,,,,,,0,,,56,0
78600,note_on,120,0,4,,,,,,,,,3,,,51,0
78600,note_on,0,0,4,,,,,,,,,3,,,44,75
78600,note_on,0,0,4,,,,,,,,,3,,,48,0
78600,note_on,0,0,4,,,,,,,,,3,,,50,75
78600,note_on,0,0,4,,,,,,,,,3,,,53,75
78600,note_on,0,0,2,,,,,,,,,1,,,62,88
78600,note_on,0,0,2,,,,,,,,,1,,,59,88
78600,note_on,0,0,2,,,,,,,,,1,,,56,88
78600,note_on,0,0,4,,,,,,,,,3,,,47,75
78720,note_on,0,0,2,,,,,,,,,1,,,59,0
78720,note_on,120,0,2,,,,,,,,,1,,,65,0
78720,note_on,0,0,2,,,,,,,,,1,,,56,0
78720,note_on,0,0,2,,,,,,,,,1,,,62,0
78720,note_on,0,0,4,,,,,,,,,3,,,44,75
78720,note_on,0,0,4,,,,,,,,,3,,,54,75
78720,note_on,0,0,4,,,,,,,,,3,,,51,75
78720,note_on,0,0,2,,,,,,,,,1,,,60,88
78720,note_on,0,0,2,,,,,,,,,1,,,63,88
78720,note_on,0,0,2,,,,,,,,,1,,,66,88
78720,note_on,120,0,4,,,,,,,,,3,,,53,0
78720,note_on,0,0,4,,,,,,,,,3,,,44,0
78720,note_on,0,0,4,,,,,,,,,3,,,47,0
78720,note_on,0,0,4,,,,,,,,,3,,,50,0
78720,note_on,0,0,2,,,,,,,,,1,,,56,88
78720,note_on,0,0,4,,,,,,,,,3,,,48,75
78840,note_on,120,0,2,,,,,,,,,1,,,66,0
78840,note_on,0,0,2,,,,,,,,,1,,,56,0
78840,note_on,240,0,3,,,,,,,,,2,,,43,36
78840,note_on,0,0,1,,,,,,,,,0,,,63,49
78840,note_on,240,0,1,,,,,,,,,0,,,60,49
78840,note_on,0,0,4,,,,,,,,,3,,,51,0
78840,note_on,0,0,4,,,,,,,,,3,,,48,0
78840,note_on,0,0,4,,,,,,,,,3,,,44,0
78840,note_on,120,0,4,,,,,,,,,3,,,54,0
78840,note_on,0,0,2,,,,,,,,,1,,,60,0
78840,note_on,0,0,3,,,,,,,,,2,,,48,36
78840,note_on,0,0,3,,,,,,,,,2,,,51,36
78840,note_on,0,0,3,,,,,,,,,2,,,55,36
78840,note_on,0,0,1,,,,,,,,,0,,,67,49
78840,note_on,0,0,2,,,,,,,,,1,,,63,0
79320,note_on,0,0,3,,,,,,,,,2,,,48,0
79320,note_on,480,0,3,,,,,,,,,2,,,55,0
79320,note_on,0,0,3,,,,,,,,,2,,,43,0
79320,note_on,0,0,3,,,,,,,,,2,,,43,36
79320,note_on,0,0,3,,,,,,,,,2,,,51,0
79320,note_on,0,0,3,,,,,,,,,2,,,55,36
79320,note_on,0,0,1,,,,,,,,,0,,,63,0
79320,note_on,480,0,1,,,,,,,,,0,,,67,0
79320,note_on,0,0,3,,,,,,,,,2,,,50,36
79320,note_on,0,0,1,,,,,,,,,0,,,60,0
79320,note_on,0,0,3,,,,,,,,,2,,,47,36
79320,note_on,0,0,1,,,,,,,,,0,,,62,49
79320,note_on,0,0,1,,,,,,,,,0,,,67,49
79320,note_on,0,0,1,,,,,,,,,0,,,59,49
79800,note_on,960,0,4,,,,,,,,,3,,,36,62
79800,note_on,0,0,4,,,,,,,,,3,,,48,62
79800,note_on,480,0,1,,,,,,,,,0,,,67,0
79800,note_on,0,0,3,,,,,,,,,2,,,52,36
79800,note_on,0,0,3,,,,,,,,,2,,,50,0
79800,note_on,0,0,3,,,,,,,,,2,,,47,0
79800,note_on,0,0,3,,,,,,,,,2,,,43,0
79800,note_on,0,0,1,,,,,,,,,0,,,62,0
79800,note_on,480,0,3,,,,,,,,,2,,,55,0
79800,note_on,0,0,1,,,,,,,,,0,,,59,0
79800,control_change,960,0,2,,,,,,,,,1,64,127,,
79800,note_on,0,0,2,,,,,,,,,1,,,60,49
79860,note_on,60,0,2,,,,,,,,,1,,,60,0
79860,note_on,0,0,2,,,,,,,,,1,,,55,49
79920,note_on,60,0,2,,,,,,,,,1,,,55,0
79920,note_on,0,0,2,,,,,,,,,1,,,55,49
79926,note_on,6,0,2,,,,,,,,,1,,,55,0
79980,note_on,54,0,2,,,,,,,,,1,,,55,49
79986,note_on,6,0,2,,,,,,,,,1,,,55,0
80040,control_change,54,0,2,,,,,,,,,1,64,0,,
80040,note_on,0,0,2,,,,,,,,,1,,,55,49
80052,note_on,12,0,2,,,,,,,,,1,,,55,0
80160,note_on,360,0,3,,,,,,,,,2,,,52,0
80160,note_on,0,0,4,,,,,,,,,3,,,31,62
80160,note_on,0,0,4,,,,,,,,,3,,,43,62
80160,note_on,360,0,4,,,,,,,,,3,,,48,0
80160,note_on,108,0,2,,,,,,,,,1,,,53,49
80160,note_on,0,0,2,,,,,,,,,1,,,55,49
80160,note_on,0,0,2,,,,,,,,,1,,,59,49
80160,note_on,0,0,2,,,,,,,,,1,,,62,49
80160,note_on,0,0,4,,,,,,,,,3,,,36,0
80172,note_on,0,0,2,,,,,,,,,1,,,53,0
80172,note_on,0,0,2,,,,,,,,,1,,,55,0
80172,note_on,0,0,2,,,,,,,,,1,,,59,0
80172,note_on,0,0,4,,,,,,,,,3,,,31,0
80172,note_on,12,0,4,,,,,,,,,3,,,43,0
80172,note_on,12,0,2,,,,,,,,,1,,,62,0
80280,note_on,0,0,2,,,,,,,,,1,,,55,49
80280,note_on,0,0,4,,,,,,,,,3,,,43,62
80280,note_on,108,0,2,,,,,,,,,1,,,52,49
80280,note_on,0,0,2,,,,,,,,,1,,,60,49
80280,note_on,108,0,4,,,,,,,,,3,,,36,62
80292,note_on,0,0,4,,,,,,,,,3,,,36,0
80292,note_on,0,0,2,,,,,,,,,1,,,52,0
80292,note_on,0,0,2,,,,,,,,,1,,,55,0
80292,note_on,12,0,2,,,,,,,,,1,,,60,0
80292,note_on,12,0,4,,,,,,,,,3,,,43,0
80400,note_on,0,0,2,,,,,,,,,1,,,55,49
80400,note_on,108,0,4,,,,,,,,,3,,,31,62
80400,note_on,0,0,2,,,,,,,,,1,,,59,49
80400,note_on,0,0,2,,,,,,,,,1,,,62,49
80400,note_on,108,0,2,,,,,,,,,1,,,53,49
80400,note_on,0,0,4,,,,,,,,,3,,,43,62
80412,note_on,12,0,2,,,,,,,,,1,,,62,0
80412,note_on,0,0,2,,,,,,,,,1,,,53,0
80412,note_on,0,0,2,,,,,,,,,1,,,55,0
80412,note_on,0,0,2,,,,,,,,,1,,,59,0
80412,note_on,12,0,4,,,,,,,,,3,,,43,0
80412,note_on,0,0,4,,,,,,,,,3,,,31,0
80520,note_on,108,0,4,,,,,,,,,3,,,36,62
80520,note_on,0,0,2,,,,,,,,,1,,,64,49
80520,note_on,0,0,2,,,,,,,,,1,,,60,49
80520,note_on,108,0,2,,,,,,,,,1,,,52,49
80520,note_on,0,0,4,,,,,,,,,3,,,43,62
80520,note_on,0,0,2,,,,,,,,,1,,,55,49
80532,note_on,0,0,4,,,,,,,,,3,,,36,0
80532,note_on,0,0,2,,,,,,,,,1,,,60,0
80532,note_on,0,0,2,,,,,,,,,1,,,55,0
80532,note_on,0,0,2,,,,,,,,,1,,,52,0
80532,note_on,12,0,4,,,,,,,,,3,,,43,0
80532,note_on,12,0,2,,,,,,,,,1,,,64,0
80640,note_on,0,0,4,,,,,,,,,3,,,43,62
80640,note_on,108,0,4,,,,,,,,,3,,,31,62
80640,note_on,0,0,2,,,,,,,,,1,,,62,49
80640,note_on,0,0,2,,,,,,,,,1,,,59,49
80640,note_on,0,0,2,,,,,,,,,1,,,55,49
80640,note_on,108,0,2,,,,,,,,,1,,,53,49
80652,note_on,0,0,2,,,,,,,,,1,,,59,0
80652,note_on,0,0,2,,,,,,,,,1,,,55,0
80652,note_on,0,0,2,,,,,,,,,1,,,53,0
80652,note_on,0,0,4,,,,,,,,,3,,,31,0
80652,note_on,12,0,4,,,,,,,,,3,,,43,0
80652,note_on,12,0,2,,,,,,,,,1,,,62,0
80760,control_change,108,0,2,,,,,,,,,1,64,127,,
80760,note_on,0,0,4,,,,,,,,,3,,,43,62
80760,note_on,108,0,4,,,,,,,,,3,,,36,62
80760,note_on,0,0,2,,,,,,,,,1,,,60,49
80820,note_on,60,0,2,,,,,,,,,1,,,60,0
80820,note_on,0,0,2,,,,,,,,,1,,,55,49
80880,note_on,0,0,2,,,,,,,,,1,,,55,49
80880,note_on,60,0,2,,,,,,,,,1,,,55,0
80886,note_on,6,0,2,,,,,,,,,1,,,55,0
80940,note_on,54,0,2,,,,,,,,,1,,,55,49
80946,note_on,6,0,2,,,,,,,,,1,,,55,0
81000,note_on,0,0,2,,,,,,,,,1,,,55,49
81000,control_change,54,0,2,,,,,,,,,1,64,0,,
81012,note_on,12,0,2,,,,,,,,,1,,,55,0
81120,note_on,360,0,4,,,,,,,,,3,,,43,0
81120,note_on,0,0,2,,,,,,,,,1,,,55,49
81120,note_on,0,0,2,,,,,,,,,1,,,62,49
81120,note_on,0,0,4,,,,,,,,,3,,,36,0
81120,note_on,0,0,4,,,,,,,,,3,,,43,62
81120,note_on,0,0,4,,,,,,,,,3,,,31,62
81120,note_on,0,0,2,,,,,,,,,1,,,59,49
81120,note_on,108,0,2,,,,,,,,,1,,,53,49
81132,note_on,0,0,2,,,,,,,,,1,,,53,0
81132,note_on,0,0,2,,,,,,,,,1,,,55,0
81132,note_on,0,0,2,,,,,,,,,1,,,59,0
81132,note_on,12,0,2,,,,,,,,,1,,,62,0
81132,note_on,12,0,4,,,,,,,,,3,,,43,0
81132,note_on,0,0,4,,,,,,,,,3,,,31,0
81240,note_on,0,0,4,,,,,,,,,3,,,43,62
81240,note_on,108,0,4,,,,,,,,,3,,,36,62
81240,note_on,108,0,2,,,,,,,,,1,,,52,49
81240,note_on,0,0,2,,,,,,,,,1,,,55,49
81240,note_on,0,0,2,,,,,,,,,1,,,60,49
81252,note_on,0,0,4,,,,,,,,,3,,,36,0
81252,note_on,12,0,4,,,,,,,,,3,,,43,0
81252,note_on,12,0,2,,,,,,,,,1,,,60,0
81252,note_on,0,0,2,,,,,,,,,1,,,55,0
81252,note_on,0,0,2,,,,,,,,,1,,,52,0
81360,note_on,0,0,4,,,,,,,,,3,,,43,62
81360,note_on,0,0,2,,,,,,,,,1,,,62,49
81360,note_on,108,0,2,,,,,,,,,1,,,53,49
81360,note_on,0,0,2,,,,,,,,,1,,,55,49
81360,note_on,108,0,4,,,,,,,,,3,,,31,62
81360,note_on,0,0,2,,,,,,,,,1,,,59,49
81372,note_on,12,0,2,,,,,,,,,1,,,62,0
81372,note_on,0,0,2,,,,,,,,,1,,,53,0
81372,note_on,0,0,2,,,,,,,,,1,,,55,0
81372,note_on,0,0,2,,,,,,,,,1,,,59,0
81372,note_on,12,0,4,,,,,,,,,3,,,43,0
81372,note_on,0,0,4,,,,,,,,,3,,,31,0
81480,note_on,108,0,4,,,,,,,,,3,,,36,62
81480,note_on,0,0,4,,,,,,,,,3,,,43,62
81480,note_on,0,0,2,,,,,,,,,1,,,55,49
81480,note_on,0,0,2,,,,,,,,,1,,,60,49
81480,note_on,108,0,2,,,,,,,,,1,,,52,49
81480,note_on,0,0,2,,,,,,,,,1,,,64,49
81492,note_on,0,0,2,,,,,,,,,1,,,60,0
81492,note_on,12,0,4,,,,,,,,,3,,,43,0
81492,note_on,0,0,4,,,,,,,,,3,,,36,0
81492,note_on,12,0,2,,,,,,,,,1,,,64,0
81492,note_on,0,0,2,,,,,,,,,1,,,55,0
81492,note_on,0,0,2,,,,,,,,,1,,,52,0
81600,note_on,108,0,4,,,,,,,,,3,,,31,62
81600,note_on,0,0,2,,,,,,,,,1,,,62,49
81600,note_on,0,0,2,,,,,,,,,1,,,59,49
81600,note_on,0,0,2,,,,,,,,,1,,,55,49
81600,note_on,108,0,2,,,,,,,,,1,,,53,49
81600,note_on,0,0,4,,,,,,,,,3,,,43,62
81612,note_on,12,0,4,,,,,,,,,3,,,43,0
81612,note_on,0,0,4,,,,,,,,,3,,,31,0
81612,note_on,0,0,2,,,,,,,,,1,,,55,0
81612,note_on,12,0,2,,,,,,,,,1,,,62,0
81612,note_on,0,0,2,,,,,,,,,1,,,53,0
81612,note_on,0,0,2,,,,,,,,,1,,,59,0
81720,control_change,1920,0,1,,,,,,,,,0,64,127,,
81720,note_on,0,0,3,,,,,,,,,2,,,43,36
81720,note_on,1560,0,3,,,,,,,,,2,,,36,36
81720,note_on,0,0,1,,,,,,,,,0,,,60,49
81720,note_on,108,0,2,,,,,,,,,1,,,52,36
81780,note_on,0,0,1,,,,,,,,,0,,,55,49
81780,note_on,60,0,1,,,,,,,,,0,,,60,0
81840,note_on,0,0,1,,,,,,,,,0,,,55,49
81840,note_on,60,0,1,,,,,,,,,0,,,55,0
81846,note_on,6,0,1,,,,,,,,,0,,,55,0
81900,note_on,54,0,1,,,,,,,,,0,,,55,49
81906,note_on,6,0,1,,,,,,,,,0,,,55,0
81960,note_on,0,0,1,,,,,,,,,0,,,55,49
81960,control_change,54,0,1,,,,,,,,,0,64,0,,
81972,note_on,12,0,1,,,,,,,,,0,,,55,0
82080,note_on,360,0,3,,,,,,,,,2,,,43,0
82080,note_on,0,0,3,,,,,,,,,2,,,36,0
82080,note_on,360,0,2,,,,,,,,,1,,,52,0
82080,note_on,0,0,3,,,,,,,,,2,,,48,75
82080,note_on,108,0,1,,,,,,,,,0,,,60,88
82170,note_on,90,0,3,,,,,,,,,2,,,47,75
82170,note_on,90,0,1,,,,,,,,,0,,,59,88
82185,note_on,15,0,3,,,,,,,,,2,,,47,0
82185,note_on,0,0,3,,,,,,,,,2,,,48,75
82185,note_on,0,0,1,,,,,,,,,0,,,60,88
82185,note_on,15,0,1,,,,,,,,,0,,,59,0
82200,note_on,0,0,1,,,,,,,,,0,,,60,0
82200,note_on,0,0,1,,,,,,,,,0,,,59,88
82200,note_on,0,0,3,,,,,,,,,2,,,47,75
82200,note_on,0,0,3,,,,,,,,,2,,,48,0
82200,note_on,15,0,1,,,,,,,,,0,,,60,0
82200,note_on,15,0,3,,,,,,,,,2,,,48,0
82320,note_on,120,0,1,,,,,,,,,0,,,59,0
82320,note_on,0,0,1,,,,,,,,,0,,,57,88
82320,note_on,120,0,3,,,,,,,,,2,,,47,0
82320,note_on,0,0,3,,,,,,,,,2,,,45,75
82440,note_on,120,0,3,,,,,,,,,2,,,45,0
82440,note_on,120,0,1,,,,,,,,,0,,,57,0
82440,note_on,0,0,1,,,,,,,,,0,,,59,88
82440,note_on,0,0,3,,,,,,,,,2,,,47,75
82560,note_on,0,0,1,,,,,,,,,0,,,60,88
82560,note_on,120,0,1,,,,,,,,,0,,,59,0
82560,note_on,0,0,3,,,,,,,,,2,,,48,75
82560,note_on,120,0,3,,,,,,,,,2,,,47,0
82650,note_on,90,0,1,,,,,,,,,0,,,59,88
82650,note_on,90,0,3,,,,,,,,,2,,,47,75
82665,note_on,0,0,1,,,,,,,,,0,,,60,88
82665,note_on,15,0,1,,,,,,,,,0,,,59,0
82665,note_on,15,0,3,,,,,,,,,2,,,47,0
82665,note_on,0,0,3,,,,,,,,,2,,,48,75
82680,note_on,0,0,1,,,,,,,,,0,,,59,88
82680,note_on,0,0,1,,,,,,,,,0,,,60,0
82680,note_on,15,0,1,,,,,,,,,0,,,60,0
82680,note_on,15,0,3,,,,,,,,,2,,,48,0
82680,note_on,0,0,3,,,,,,,,,2,,,48,0
82680,note_on,0,0,3,,,,,,,,,2,,,47,75
82800,note_on,0,0,1,,,,,,,,,0,,,57,88
82800,note_on,120,0,1,,,,,,,,,0,,,59,0
82800,note_on,120,0,3,,,,,,,,,2,,,47,0
82800,note_on,0,0,3,,,,,,,,,2,,,45,75
82860,note_on,60,0,1,,,,,,,,,0,,,57,0
82860,note_on,0,0,3,,,,,,,,,2,,,47,75
82860,note_on,60,0,3,,,,,,,,,2,,,45,0
82860,note_on,0,0,1,,,,,,,,,0,,,59,88
82920,note_on,0,0,1,,,,,,,,,0,,,60,88
82920,note_on,60,0,1,,,,,,,,,0,,,59,0
82920,note_on,60,0,3,,,,,,,,,2,,,47,0
82920,note_on,0,0,3,,,,,,,,,2,,,48,75
82980,note_on,60,0,1,,,,,,,,,0,,,60,0
82980,note_on,60,0,3,,,,,,,,,2,,,48,0
83040,note_on,60,0,1,,,,,,,,,0,,,53,88
83040,note_on,0,0,1,,,,,,,,,0,,,55,88
83040,note_on,0,0,1,,,,,,,,,0,,,62,88
83040,note_on,60,0,3,,,,,,,,,2,,,31,75
83040,note_on,0,0,3,,,,,,,,,2,,,43,75
83040,note_on,0,0,1,,,,,,,,,0,,,59,88
83052,note_on,0,0,1,,,,,,,,,0,,,59,0
83052,note_on,12,0,3,,,,,,,,,2,,,43,0
83052,note_on,0,0,1,,,,,,,,,0,,,53,0
83052,note_on,0,0,3,,,,,,,,,2,,,31,0
83052,note_on,0,0,1,,,,,,,,,0,,,55,0
83052,note_on,12,0,1,,,,,,,,,0,,,62,0
83160,control_change,108,0,1,,,,,,,,,0,64,127,,
83160,note_on,0,0,1,,,,,,,,,0,,,60,49
83160,note_on,1080,0,2,,,,,,,,,1,,,52,36
83160,note_on,108,0,3,,,,,,,,,2,,,36,36
83160,note_on,0,0,3,,,,,,,,,2,,,43,36
83220,note_on,60,0,1,,,,,,,,,0,,,60,0
83220,note_on,0,0,1,,,,,,,,,0,,,55,49
83280,note_on,60,0,1,,,,,,,,,0,,,55,0
83280,note_on,0,0,1,,,,,,,,,0,,,55,49
83286,note_on,6,0,1,,,,,,,,,0,,,55,0
83340,note_on,54,0,1,,,,,,,,,0,,,55,49
83346,note_on,6,0,1,,,,,,,,,0,,,55,0
83400,control_change,54,0,1,,,,,,,,,0,64,0,,
83400,note_on,0,0,1,,,,,,,,,0,,,55,49
83412,note_on,12,0,1,,,,,,,,,0,,,55,0
83520,note_on,0,0,3,,,,,,,,,2,,,48,36
83520,note_on,360,0,2,,,,,,,,,1,,,52,0
83520,note_on,108,0,1,,,,,,,,,0,,,60,49
83520,note_on,0,0,3,,,,,,,,,2,,,36,0
83520,note_on,360,0,3,,,,,,,,,2,,,43,0
83610,note_on,90,0,1,,,,,,,,,0,,,59,49
83610,note_on,90,0,3,,,,,,,,,2,,,47,36
83625,note_on,15,0,1,,,,,,,,,0,,,59,0
83625,note_on,0,0,1,,,,,,,,,0,,,60,49
83625,note_on,15,0,3,,,,,,,,,2,,,47,0
83625,note_on,0,0,3,,,,,,,,,2,,,48,36
83640,note_on,0,0,1,,,,,,,,,0,,,60,0
83640,note_on,15,0,1,,,,,,,,,0,,,60,0
83640,note_on,15,0,3,,,,,,,,,2,,,48,0
83640,note_on,0,0,3,,,,,,,,,2,,,48,0
83640,note_on,0,0,3,,,,,,,,,2,,,47,36
83640,note_on,0,0,1,,,,,,,,,0,,,59,49
83760,note_on,120,0,1,,,,,,,,,0,,,59,0
83760,note_on,0,0,1,,,,,,,,,0,,,57,49
83760,note_on,0,0,3,,,,,,,,,2,,,45,36
83760,note_on,120,0,3,,,,,,,,,2,,,47,0
83880,note_on,0,0,3,,,,,,,,,2,,,47,36
83880,note_on,0,0,1,,,,,,,,,0,,,59,49
83880,note_on,120,0,1,,,,,,,,,0,,,57,0
83880,note_on,120,0,3,,,,,,,,,2,,,45,0
84000,note_on,120,0,3,,,,,,,,,2,,,47,0
84000,note_on,0,0,1,,,,,,,,,0,,,60,49
84000,note_on,120,0,1,,,,,,,,,0,,,59,0
84000,note_on,0,0,3,,,,,,,,,2,,,48,36
84090,note_on,90,0,1,,,,,,,,,0,,,59,49
84090,note_on,90,0,3,,,,,,,,,2,,,47,36
84105,note_on,15,0,3,,,,,,,,,2,,,47,0
84105,note_on,0,0,3,,,,,,,,,2,,,48,36
84105,note_on,15,0,1,,,,,,,,,0,,,59,0
84105,note_on,0,0,1,,,,,,,,,0,,,60,49
84120,note_on,15,0,1,,,,,,,,,0,,,60,0
84120,note_on,0,0,1,,,,,,,,,0,,,59,49
84120,note_on,15,0,3,,,,,,,,,2,,,48,0
84120,note_on,0,0,3,,,,,,,,,2,,,48,0
84120,note_on,0,0,3,,,,,,,,,2,,,47,36
84120,note_on,0,0,1,,,,,,,,,0,,,60,0
84240,note_on,120,0,1,,,,,,,,,0,,,59,0
84240,note_on,0,0,1,,,,,,,,,0,,,57,49
84240,note_on,120,0,3,,,,,,,,,2,,,47,0
84240,note_on,0,0,3,,,,,,,,,2,,,45,36
84300,note_on,0,0,1,,,,,,,,,0,,,59,49
84300,note_on,0,0,3,,,,,,,,,2,,,47,36
84300,note_on,60,0,3,,,,,,,,,2,,,45,0
84300,note_on,60,0,1,,,,,,,,,0,,,57,0
84360,note_on,60,0,1,,,,,,,,,0,,,59,0
84360,note_on,0,0,1,,,,,,,,,0,,,60,49
84360,note_on,60,0,3,,,,,,,,,2,,,47,0
84360,note_on,0,0,3,,,,,,,,,2,,,48,36
84420,note_on,60,0,1,,,,,,,,,0,,,60,0
84420,note_on,60,0,3,,,,,,,,,2,,,48,0
84480,note_on,0,0,1,,,,,,,,,0,,,55,49
84480,note_on,0,0,1,,,,,,,,,0,,,62,49
84480,note_on,0,0,1,,,,,,,,,0,,,59,49
84480,note_on,60,0,1,,,,,,,,,0,,,53,49
84480,note_on,60,0,3,,,,,,,,,2,,,31,36
84480,note_on,0,0,3,,,,,,,,,2,,,43,36
84492,note_on,0,0,1,,,,,,,,,0,,,59,0
84492,note_on,0,0,1,,,,,,,,,0,,,55,0
84492,note_on,0,0,1,,,,,,,,,0,,,53,0
84492,note_on,12,0,1,,,,,,,,,0,,,62,0
84492,note_on,12,0,3,,,,,,,,,2,,,43,0
84492,note_on,0,0,3,,,,,,,,,2,,,31,0
84600,note_on,2988,0,4,,,,,,,,,3,,,36,36
84600,note_on,0,0,4,,,,,,,,,3,,,43,36
84600,note_on,108,0,3,,,,,,,,,2,,,52,36
84600,control_change,1080,0,2,,,,,,,,,1,64,127,,
84600,note_on,0,0,2,,,,,,,,,1,,,60,49
84660,note_on,0,0,2,,,,,,,,,1,,,55,49
84660,note_on,60,0,2,,,,,,,,,1,,,60,0
84720,note_on,0,0,2,,,,,,,,,1,,,55,49
84720,note_on,60,0,2,,,,,,,,,1,,,55,0
84726,note_on,6,0,2,,,,,,,,,1,,,55,0
84780,note_on,54,0,2,,,,,,,,,1,,,55,49
84786,note_on,6,0,2,,,,,,,,,1,,,55,0
84840,note_on,0,0,2,,,,,,,,,1,,,55,49
84840,control_change,54,0,2,,,,,,,,,1,64,0,,
84852,note_on,12,0,2,,,,,,,,,1,,,55,0
84960,note_on,360,0,4,,,,,,,,,3,,,43,0
84960,note_on,0,0,4,,,,,,,,,3,,,36,0
84960,note_on,0,0,4,,,,,,,,,3,,,31,36
84960,note_on,0,0,4,,,,,,,,,3,,,43,36
84960,note_on,0,0,2,,,,,,,,,1,,,62,49
84960,note_on,0,0,2,,,,,,,,,1,,,59,49
84960,note_on,0,0,2,,,,,,,,,1,,,55,49
84960,note_on,108,0,2,,,,,,,,,1,,,53,49
84960,note_on,360,0,3,,,,,,,,,2,,,52,0
84972,note_on,0,0,4,,,,,,,,,3,,,31,0
84972,note_on,12,0,2,,,,,,,,,1,,,62,0
84972,note_on,0,0,2,,,,,,,,,1,,,53,0
84972,note_on,0,0,2,,,,,,,,,1,,,55,0
84972,note_on,0,0,2,,,,,,,,,1,,,59,0
84972,note_on,12,0,4,,,,,,,,,3,,,43,0
85080,note_on,120,0,3,,,,,,,,,2,,,52,36
85080,note_on,0,0,4,,,,,,,,,3,,,43,36
85080,note_on,108,0,4,,,,,,,,,3,,,36,36
85080,note_on,0,0,2,,,,,,,,,1,,,60,49
85080,control_change,108,0,2,,,,,,,,,1,64,127,,
85140,note_on,60,0,2,,,,,,,,,1,,,60,0
85140,note_on,0,0,2,,,,,,,,,1,,,55,49
85200,note_on,60,0,2,,,,,,,,,1,,,55,0
85200,note_on,0,0,2,,,,,,,,,1,,,55,49
85206,note_on,6,0,2,,,,,,,,,1,,,55,0
85260,note_on,54,0,2,,,,,,,,,1,,,55,49
85266,note_on,6,0,2,,,,,,,,,1,,,55,0
85320,note_on,0,0,2,,,,,,,,,1,,,55,49
85320,control_change,54,0,2,,,,,,,,,1,64,0,,
85332,note_on,12,0,2,,,,,,,,,1,,,55,0
85440,note_on,0,0,4,,,,,,,,,3,,,43,36
85440,note_on,0,0,4,,,,,,,,,3,,,31,36
85440,note_on,0,0,4,,,,,,,,,3,,,36,0
85440,note_on,360,0,4,,,,,,,,,3,,,43,0
85440,note_on,360,0,3,,,,,,,,,2,,,52,0
85440,note_on,108,0,2,,,,,,,,,1,,,53,49
85440,note_on,0,0,2,,,,,,,,,1,,,55,49
85440,note_on,0,0,2,,,,,,,,,1,,,59,49
85440,note_on,0,0,2,,,,,,,,,1,,,62,49
85452,note_on,12,0,4,,,,,,,,,3,,,43,0
85452,note_on,0,0,2,,,,,,,,,1,,,59,0
85452,note_on,0,0,2,,,,,,,,,1,,,55,0
85452,note_on,0,0,2,,,,,,,,,1,,,53,0
85452,note_on,12,0,2,,,,,,,,,1,,,62,0
85452,note_on,0,0,4,,,,,,,,,3,,,31,0
85560,control_change,108,0,2,,,,,,,,,1,64,127,,
85560,note_on,120,0,3,,,,,,,,,2,,,52,36
85560,note_on,0,0,4,,,,,,,,,3,,,43,36
85560,note_on,108,0,4,,,,,,,,,3,,,36,36
85560,note_on,0,0,2,,,,,,,,,1,,,60,49
85620,note_on,60,0,2,,,,,,,,,1,,,60,0
85620,note_on,0,0,2,,,,,,,,,1,,,55,49
85680,note_on,60,0,2,,,,,,,,,1,,,55,0
85680,note_on,0,0,2,,,,,,,,,1,,,55,49
85686,note_on,6,0,2,,,,,,,,,1,,,55,0
85740,note_on,54,0,2,,,,,,,,,1,,,55,49
85746,note_on,6,0,2,,,,,,,,,1,,,55,0
85800,control_change,54,0,2,,,,,,,,,1,64,0,,
85800,note_on,0,0,2,,,,,,,,,1,,,55,49
85812,note_on,12,0,2,,,,,,,,,1,,,55,0
85920,note_on,108,0,2,,,,,,,,,1,,,52,49
85920,note_on,0,0,2,,,,,,,,,1,,,56,49
85920,note_on,0,0,2,,,,,,,,,1,,,64,49
85920,note_on,0,0,4,,,,,,,,,3,,,36,0
85920,note_on,0,0,4,,,,,,,,,3,,,28,36
85920,note_on,0,0,4,,,,,,,,,3,,,40,36
85920,note_on,360,0,4,,,,,,,,,3,,,43,0
85920,note_on,360,0,3,,,,,,,,,2,,,52,0
85932,note_on,12,0,4,,,,,,,,,3,,,40,0
85932,note_on,0,0,2,,,,,,,,,1,,,56,0
85932,note_on,0,0,2,,,,,,,,,1,,,52,0
85932,note_on,0,0,4,,,,,,,,,3,,,28,0
85932,note_on,12,0,2,,,,,,,,,1,,,64,0
86040,time_signature,38400,1,0,3,4,24,8,,,,,,,,,
86400,note_on,1908,0,1,,,,,,,,,0,,,64,75
86400,time_signature,360,1,0,1,4,24,8,,,,,,,,,
86400,note_on,480,0,3,,,,,,,,,2,,,52,62
86490,note_on,90,0,1,,,,,,,,,0,,,62,75
86490,note_on,90,0,3,,,,,,,,,2,,,50,62
86505,note_on,0,0,1,,,,,,,,,0,,,64,75
86505,note_on,15,0,1,,,,,,,,,0,,,62,0
86505,note_on,0,0,3,,,,,,,,,2,,,52,62
86505,note_on,15,0,3,,,,,,,,,2,,,50,0
86520,note_on,0,0,1,,,,,,,,,0,,,62,75
86520,note_on,0,0,3,,,,,,,,,2,,,52,0
86520,note_on,15,0,1,,,,,,,,,0,,,64,0
86520,note_on,0,0,3,,,,,,,,,2,,,50,62
86520,time_signature,120,1,0,4,4,24,8,,,,,,,,,
86520,note_on,15,0,3,,,,,,,,,2,,,52,0
86520,note_on,0,0,1,,,,,,,,,0,,,64,0
86640,note_on,120,0,3,,,,,,,,,2,,,50,0
86640,note_on,0,0,3,,,,,,,,,2,,,47,62
86640,note_on,120,0,1,,,,,,,,,0,,,62,0
86640,note_on,0,0,1,,,,,,,,,0,,,59,75
86760,note_on,120,0,1,,,,,,,,,0,,,59,0
86760,note_on,0,0,1,,,,,,,,,0,,,62,75
86760,note_on,120,0,3,,,,,,,,,2,,,47,0
86760,note_on,0,0,3,,,,,,,,,2,,,50,62
86880,note_on,120,0,1,,,,,,,,,0,,,62,0
86880,note_on,0,0,1,,,,,,,,,0,,,64,75
86880,note_on,0,0,3,,,,,,,,,2,,,52,62
86880,note_on,120,0,3,,,,,,,,,2,,,50,0
86970,note_on,90,0,3,,,,,,,,,2,,,50,62
86970,note_on,90,0,1,,,,,,,,,0,,,62,75
86985,note_on,0,0,1,,,,,,,,,0,,,64,75
86985,note_on,15,0,1,,,,,,,,,0,,,62,0
86985,note_on,0,0,3,,,,,,,,,2,,,52,62
86985,note_on,15,0,3,,,,,,,,,2,,,50,0
87000,note_on,0,0,3,,,,,,,,,2,,,50,62
87000,note_on,0,0,3,,,,,,,,,2,,,52,0
87000,note_on,15,0,3,,,,,,,,,2,,,52,0
87000,note_on,0,0,1,,,,,,,,,0,,,64,0
87000,note_on,0,0,1,,,,,,,,,0,,,62,75
87000,note_on,15,0,1,,,,,,,,,0,,,64,0
87120,note_on,120,0,1,,,,,,,,,0,,,62,0
87120,note_on,0,0,3,,,,,,,,,2,,,47,62
87120,note_on,120,0,3,,,,,,,,,2,,,50,0
87120,note_on,0,0,1,,,,,,,,,0,,,59,75
87180,note_on,60,0,3,,,,,,,,,2,,,47,0
87180,note_on,60,0,1,,,,,,,,,0,,,59,0
87180,note_on,0,0,1,,,,,,,,,0,,,62,75
87180,note_on,0,0,3,,,,,,,,,2,,,50,62
87240,note_on,60,0,1,,,,,,,,,0,,,62,0
87240,note_on,0,0,1,,,,,,,,,0,,,64,75
87240,note_on,0,0,3,,,,,,,,,2,,,52,62
87240,note_on,60,0,3,,,,,,,,,2,,,50,0
87360,note_on,0,0,3,,,,,,,,,2,,,53,36
87360,note_on,120,0,3,,,,,,,,,2,,,52,0
87360,note_on,120,0,1,,,,,,,,,0,,,64,0
87360,note_on,0,0,1,,,,,,,,,0,,,65,49
87360,note_on,0,0,1,,,,,,,,,0,,,77,49
87420,note_on,60,0,3,,,,,,,,,2,,,53,0
87450,note_on,30,0,3,,,,,,,,,2,,,64,36
87450,note_on,90,0,1,,,,,,,,,0,,,76,49
87465,note_on,15,0,1,,,,,,,,,0,,,76,0
87465,note_on,0,0,3,,,,,,,,,2,,,65,36
87465,note_on,15,0,3,,,,,,,,,2,,,64,0
87465,note_on,0,0,1,,,,,,,,,0,,,77,49
87480,note_on,15,0,3,,,,,,,,,2,,,65,0
87480,note_on,15,0,1,,,,,,,,,0,,,77,0
87480,note_on,0,0,1,,,,,,,,,0,,,77,0
87480,note_on,0,0,1,,,,,,,,,0,,,76,49
87480,note_on,0,0,1,,,,,,,,,0,,,65,0
87480,note_on,0,0,3,,,,,,,,,2,,,64,36
87600,note_on,0,0,1,,,,,,,,,0,,,74,49
87600,note_on,120,0,1,,,,,,,,,0,,,76,0
87600,note_on,0,0,3,,,,,,,,,2,,,62,36
87600,note_on,120,0,3,,,,,,,,,2,,,64,0
87720,note_on,0,0,1,,,,,,,,,0,,,76,49
87720,note_on,120,0,1,,,,,,,,,0,,,74,0
87720,note_on,0,0,3,,,,,,,,,2,,,64,36
87720,note_on,120,0,3,,,,,,,,,2,,,62,0
87840,note_on,0,0,3,,,,,,,,,2,,,65,36
87840,note_on,0,0,1,,,,,,,,,0,,,77,49
87840,note_on,120,0,3,,,,,,,,,2,,,64,0
87840,note_on,120,0,1,,,,,,,,,0,,,76,0
87930,note_on,90,0,3,,,,,,,,,2,,,64,36
87930,note_on,90,0,1,,,,,,,,,0,,,76,49
87945,note_on,15,0,3,,,,,,,,,2,,,64,0
87945,note_on,0,0,3,,,,,,,,,2,,,65,36
87945,note_on,0,0,1,,,,,,,,,0,,,77,49
87945,note_on,15,0,1,,,,,,,,,0,,,76,0
87960,note_on,0,0,3,,,,,,,,,2,,,64,36
87960,note_on,15,0,3,,,,,,,,,2,,,65,0
87960,note_on,0,0,1,,,,,,,,,0,,,77,0
87960,note_on,15,0,1,,,,,,,,,0,,,77,0
87960,note_on,0,0,1,,,,,,,,,0,,,76,49
87960,note_on,0,0,3,,,,,,,,,2,,,65,0
88080,note_on,120,0,3,,,,,,,,,2,,,64,0
88080,note_on,120,0,1,,,,,,,,,0,,,76,0
88080,note_on,0,0,1,,,,,,,,,0,,,74,49
88080,note_on,0,0,3,,,,,,,,,2,,,62,36
88140,note_on,0,0,3,,,,,,,,,2,,,64,36
88140,note_on,0,0,1,,,,,,,,,0,,,76,49
88140,note_on,60,0,1,,,,,,,,,0,,,74,0
88140,note_on,60,0,3,,,,,,,,,2,,,62,0
88200,note_on,0,0,1,,,,,,,,,0,,,77,49
88200,note_on,60,0,1,,,,,,,,,0,,,76,0
88200,note_on,60,0,3,,,,,,,,,2,,,64,0
88200,note_on,0,0,3,,,,,,,,,2,,,65,36
88320,note_on,0,0,1,,,,,,,,,0,,,76,75
88320,note_on,120,0,1,,,,,,,,,0,,,77,0
88320,note_on,120,0,3,,,,,,,,,2,,,65,0
88320,note_on,0,0,3,,,,,,,,,2,,,52,62
88320,note_on,0,0,3,,,,,,,,,2,,,64,62
88380,note_on,60,0,1,,,,,,,,,0,,,76,0
88410,note_on,30,0,1,,,,,,,,,0,,,62,75
88410,note_on,90,0,3,,,,,,,,,2,,,50,62
88425,note_on,0,0,3,,,,,,,,,2,,,52,62
88425,note_on,15,0,3,,,,,,,,,2,,,50,0
88425,note_on,0,0,1,,,,,,,,,0,,,64,75
88425,note_on,15,0,1,,,,,,,,,0,,,62,0
88440,note_on,0,0,3,,,,,,,,,2,,,50,62
88440,note_on,0,0,3,,,,,,,,,2,,,52,0
88440,note_on,0,0,3,,,,,,,,,2,,,64,0
88440,note_on,15,0,3,,,,,,,,,2,,,52,0
88440,note_on,0,0,1,,,,,,,,,0,,,62,75
88440,note_on,15,0,1,,,,,,,,,0,,,64,0
88560,note_on,0,0,1,,,,,,,,,0,,,59,75
88560,note_on,120,0,1,,,,,,,,,0,,,62,0
88560,note_on,0,0,3,,,,,,,,,2,,,47,62
88560,note_on,120,0,3,,,,,,,,,2,,,50,0
88680,note_on,120,0,1,,,,,,,,,0,,,59,0
88680,note_on,0,0,3,,,,,,,,,2,,,50,62
88680,note_on,0,0,1,,,,,,,,,0,,,62,75
88680,note_on,120,0,3,,,,,,,,,2,,,47,0
88800,note_on,0,0,1,,,,,,,,,0,,,64,75
88800,note_on,0,0,3,,,,,,,,,2,,,52,62
88800,note_on,120,0,1,,,,,,,,,0,,,62,0
88800,note_on,120,0,3,,,,,,,,,2,,,50,0
88890,note_on,90,0,3,,,,,,,,,2,,,50,62
88890,note_on,90,0,1,,,,,,,,,0,,,62,75
88905,note_on,15,0,3,,,,,,,,,2,,,50,0
88905,note_on,0,0,3,,,,,,,,,2,,,52,62
88905,note_on,15,0,1,,,,,,,,,0,,,62,0
88905,note_on,0,0,1,,,,,,,,,0,,,64,75
88920,note_on,0,0,3,,,,,,,,,2,,,50,62
88920,note_on,15,0,1,,,,,,,,,0,,,64,0
88920,note_on,0,0,1,,,,,,,,,0,,,62,75
88920,note_on,0,0,1,,,,,,,,,0,,,64,0
88920,note_on,0,0,3,,,,,,,,,2,,,52,0
88920,note_on,15,0,3,,,,,,,,,2,,,52,0
89040,note_on,0,0,1,,,,,,,,,0,,,59,75
89040,note_on,120,0,3,,,,,,,,,2,,,50,0
89040,note_on,0,0,3,,,,,,,,,2,,,47,62
89040,note_on,120,0,1,,,,,,,,,0,,,62,0
89100,note_on,60,0,1,,,,,,,,,0,,,59,0
89100,note_on,0,0,1,,,,,,,,,0,,,62,75
89100,note_on,60,0,3,,,,,,,,,2,,,47,0
89100,note_on,0,0,3,,,,,,,,,2,,,50,62
89160,note_on,60,0,1,,,,,,,,,0,,,62,0
89160,note_on,0,0,1,,,,,,,,,0,,,64,75
89160,note_on,60,0,3,,,,,,,,,2,,,50,0
89160,note_on,0,0,3,,,,,,,,,2,,,52,62
89280,note_on,0,0,3,,,,,,,,,2,,,53,36
89280,note_on,120,0,3,,,,,,,,,2,,,52,0
89280,note_on,120,0,1,,,,,,,,,0,,,64,0
89280,note_on,0,0,1,,,,,,,,,0,,,65,49
89280,note_on,0,0,1,,,,,,,,,0,,,77,49
89340,note_on,60,0,3,,,,,,,,,2,,,53,0
89370,note_on,30,0,3,,,,,,,,,2,,,64,36
89370,note_on,90,0,1,,,,,,,,,0,,,76,49
89385,note_on,15,0,1,,,,,,,,,0,,,76,0
89385,note_on,0,0,1,,,,,,,,,0,,,77,49
89385,note_on,15,0,3,,,,,,,,,2,,,64,0
89385,note_on,0,0,3,,,,,,,,,2,,,65,36
89400,note_on,15,0,1,,,,,,,,,0,,,77,0
89400,note_on,0,0,1,,,,,,,,,0,,,65,0
89400,note_on,0,0,1,,,,,,,,,0,,,76,49
89400,note_on,15,0,3,,,,,,,,,2,,,65,0
89400,note_on,0,0,3,,,,,,,,,2,,,64,36
89400,note_on,0,0,1,,,,,,,,,0,,,77,0
89520,note_on,120,0,3,,,,,,,,,2,,,64,0
89520,note_on,0,0,3,,,,,,,,,2,,,62,36
89520,note_on,120,0,1,,,,,,,,,0,,,76,0
89520,note_on,0,0,1,,,,,,,,,0,,,74,49
89640,note_on,120,0,3,,,,,,,,,2,,,62,0
89640,note_on,0,0,3,,,,,,,,,2,,,64,36
89640,note_on,120,0,1,,,,,,,,,0,,,74,0
89640,note_on,0,0,1,,,,,,,,,0,,,76,49
89760,note_on,120,0,1,,,,,,,,,0,,,76,0
89760,note_on,0,0,1,,,,,,,,,0,,,77,49
89760,note_on,0,0,3,,,,,,,,,2,,,65,36
89760,note_on,120,0,3,,,,,,,,,2,,,64,0
89850,note_on,90,0,1,,,,,,,,,0,,,76,49
89850,note_on,90,0,3,,,,,,,,,2,,,64,36
89865,note_on,0,0,1,,,,,,,,,0,,,77,49
89865,note_on,0,0,3,,,,,,,,,2,,,65,36
89865,note_on,15,0,3,,,,,,,,,2,,,64,0
89865,note_on,15,0,1,,,,,,,,,0,,,76,0
89880,note_on,0,0,3,,,,,,,,,2,,,64,36
89880,note_on,0,0,3,,,,,,,,,2,,,65,0
89880,note_on,15,0,3,,,,,,,,,2,,,65,0
89880,note_on,15,0,1,,,,,,,,,0,,,77,0
89880,note_on,0,0,1,,,,,,,,,0,,,77,0
89880,note_on,0,0,1,,,,,,,,,0,,,76,49
90000,note_on,120,0,3,,,,,,,,,2,,,64,0
90000,note_on,0,0,3,,,,,,,,,2,,,62,36
90000,note_on,120,0,1,,,,,,,,,0,,,76,0
90000,note_on,0,0,1,,,,,,,,,0,,,74,49
90060,note_on,0,0,1,,,,,,,,,0,,,76,49
90060,note_on,60,0,3,,,,,,,,,2,,,62,0
90060,note_on,0,0,3,,,,,,,,,2,,,64,36
90060,note_on,60,0,1,,,,,,,,,0,,,74,0
90120,note_on,0,0,1,,,,,,,,,0,,,77,49
90120,note_on,60,0,1,,,,,,,,,0,,,76,0
90120,note_on,60,0,3,,,,,,,,,2,,,64,0
90120,note_on,0,0,3,,,,,,,,,2,,,65,36
90240,note_on,120,0,3,,,,,,,,,2,,,65,0
90240,note_on,120,0,1,,,,,,,,,0,,,77,0
90240,note_on,0,0,3,,,,,,,,,2,,,64,36
90240,note_on,0,0,3,,,,,,,,,2,,,52,36
90240,note_on,0,0,1,,,,,,,,,0,,,76,49
90300,note_on,60,0,1,,,,,,,,,0,,,76,0
90330,note_on,90,0,3,,,,,,,,,2,,,50,36
90330,note_on,30,0,1,,,,,,,,,0,,,62,49
90345,note_on,0,0,3,,,,,,,,,2,,,52,36
90345,note_on,15,0,3,,,,,,,,,2,,,50,0
90345,note_on,15,0,1,,,,,,,,,0,,,62,0
90345,note_on,0,0,1,,,,,,,,,0,,,64,49
90360,note_on,15,0,3,,,,,,,,,2,,,52,0
90360,note_on,0,0,3,,,,,,,,,2,,,64,0
90360,note_on,15,0,1,,,,,,,,,0,,,64,0
90360,note_on,0,0,1,,,,,,,,,0,,,62,75
90360,note_on,0,0,3,,,,,,,,,2,,,52,0
90360,note_on,0,0,3,,,,,,,,,2,,,50,62
90480,note_on,120,0,3,,,,,,,,,2,,,50,0
90480,note_on,120,0,1,,,,,,,,,0,,,62,0
90480,note_on,0,0,1,,,,,,,,,0,,,59,75
90480,note_on,0,0,3,,,,,,,,,2,,,47,62
90600,note_on,120,0,1,,,,,,,,,0,,,59,0
90600,note_on,120,0,3,,,,,,,,,2,,,47,0
90600,note_on,0,0,3,,,,,,,,,2,,,50,62
90600,note_on,0,0,1,,,,,,,,,0,,,62,75
90720,note_on,0,0,3,,,,,,,,,2,,,52,62
90720,note_on,0,0,1,,,,,,,,,0,,,64,75
90720,note_on,120,0,1,,,,,,,,,0,,,62,0
90720,note_on,120,0,3,,,,,,,,,2,,,50,0
90810,note_on,90,0,3,,,,,,,,,2,,,50,62
90810,note_on,90,0,1,,,,,,,,,0,,,62,75
90825,note_on,0,0,3,,,,,,,,,2,,,52,62
90825,note_on,15,0,3,,,,,,,,,2,,,50,0
90825,note_on,15,0,1,,,,,,,,,0,,,62,0
90825,note_on,0,0,1,,,,,,,,,0,,,64,75
90840,note_on,15,0,1,,,,,,,,,0,,,64,0
90840,note_on,0,0,1,,,,,,,,,0,,,64,0
90840,note_on,0,0,1,,,,,,,,,0,,,62,75
90840,note_on,0,0,3,,,,,,,,,2,,,52,0
90840,note_on,15,0,3,,,,,,,,,2,,,52,0
90840,note_on,0,0,3,,,,,,,,,2,,,50,62
90960,note_on,0,0,1,,,,,,,,,0,,,59,75
90960,note_on,120,0,1,,,,,,,,,0,,,62,0
90960,note_on,0,0,3,,,,,,,,,2,,,47,62
90960,note_on,120,0,3,,,,,,,,,2,,,50,0
91020,note_on,0,0,1,,,,,,,,,0,,,62,75
91020,note_on,60,0,1,,,,,,,,,0,,,59,0
91020,note_on,0,0,3,,,,,,,,,2,,,50,62
91020,note_on,60,0,3,,,,,,,,,2,,,47,0
91080,note_on,0,0,1,,,,,,,,,0,,,64,75
91080,note_on,0,0,3,,,,,,,,,2,,,52,62
91080,note_on,60,0,3,,,,,,,,,2,,,50,0
91080,note_on,60,0,1,,,,,,,,,0,,,62,0
91200,note_on,0,0,1,,,,,,,,,0,,,62,75
91200,note_on,120,0,3,,,,,,,,,2,,,52,0
91200,note_on,0,0,3,,,,,,,,,2,,,50,62
91200,note_on,120,0,1,,,,,,,,,0,,,64,0
91290,note_on,90,0,3,,,,,,,,,2,,,48,62
91290,note_on,90,0,1,,,,,,,,,0,,,60,75
91305,note_on,15,0,3,,,,,,,,,2,,,48,0
91305,note_on,0,0,3,,,,,,,,,2,,,50,62
91305,note_on,0,0,1,,,,,,,,,0,,,62,75
91305,note_on,15,0,1,,,,,,,,,0,,,60,0
91320,note_on,0,0,1,,,,,,,,,0,,,62,0
91320,note_on,15,0,3,,,,,,,,,2,,,50,0
91320,note_on,0,0,3,,,,,,,,,2,,,50,0
91320,note_on,0,0,3,,,,,,,,,2,,,48,62
91320,note_on,15,0,1,,,,,,,,,0,,,62,0
91320,note_on,0,0,1,,,,,,,,,0,,,60,75
91440,note_on,0,0,1,,,,,,,,,0,,,58,75
91440,note_on,120,0,1,,,,,,,,,0,,,60,0
91440,note_on,120,0,3,,,,,,,,,2,,,48,0
91440,note_on,0,0,3,,,,,,,,,2,,,46,62
91500,note_on,0,0,3,,,,,,,,,2,,,48,62
91500,note_on,0,0,1,,,,,,,,,0,,,60,75
91500,note_on,60,0,1,,,,,,,,,0,,,58,0
91500,note_on,60,0,3,,,,,,,,,2,,,46,0
91560,note_on,60,0,3,,,,,,,,,2,,,48,0
91560,note_on,0,0,1,,,,,,,,,0,,,62,75
91560,note_on,60,0,1,,,,,,,,,0,,,60,0
91560,note_on,0,0,3,,,,,,,,,2,,,50,62
91680,note_on,0,0,3,,,,,,,,,2,,,48,62
91680,note_on,120,0,3,,,,,,,,,2,,,50,0
91680,note_on,120,0,1,,,,,,,,,0,,,62,0
91680,note_on,0,0,1,,,,,,,,,0,,,60,75
91800,note_on,120,0,1,,,,,,,,,0,,,60,0
91800,note_on,0,0,3,,,,,,,,,2,,,46,62
91800,note_on,120,0,3,,,,,,,,,2,,,48,0
91800,note_on,0,0,1,,,,,,,,,0,,,58,75
91920,note_on,0,0,3,,,,,,,,,2,,,45,62
91920,note_on,120,0,3,,,,,,,,,2,,,46,0
91920,note_on,0,0,1,,,,,,,,,0,,,57,75
91920,note_on,120,0,1,,,,,,,,,0,,,58,0
92040,note_on,0,0,1,,,,,,,,,0,,,55,75
92040,note_on,120,0,1,,,,,,,,,0,,,57,0
92040,note_on,0,0,3,,,,,,,,,2,,,43,62
92040,note_on,120,0,3,,,,,,,,,2,,,45,0
92160,note_on,0,0,3,,,,,,,,,2,,,44,36
92160,note_on,120,0,1,,,,,,,,,0,,,55,0
92160,note_on,120,0,3,,,,,,,,,2,,,43,0
92160,note_on,0,0,1,,,,,,,,,0,,,53,49
92160,note_on,0,0,1,,,,,,,,,0,,,59,49
92160,note_on,0,0,1,,,,,,,,,0,,,65,49
92280,note_on,0,0,1,,,,,,,,,0,,,59,0
92280,note_on,120,0,1,,,,,,,,,0,,,65,0
92280,note_on,0,0,1,,,,,,,,,0,,,57,49
92280,note_on,0,0,1,,,,,,,,,0,,,53,0
92280,note_on,120,0,3,,,,,,,,,2,,,44,0
92280,note_on,0,0,3,,,,,,,,,2,,,45,36
92280,note_on,0,0,3,,,,,,,,,2,,,52,36
92280,note_on,0,0,1,,,,,,,,,0,,,62,49
92760,note_on,480,0,1,,,,,,,,,0,,,62,0
92760,note_on,480,0,3,,,,,,,,,2,,,52,0
92760,note_on,0,0,3,,,,,,,,,2,,,45,0
92760,note_on,0,0,3,,,,,,,,,2,,,45,36
92760,note_on,0,0,3,,,,,,,,,2,,,52,36
92760,note_on,0,0,1,,,,,,,,,0,,,61,49
92760,note_on,0,0,1,,,,,,,,,0,,,57,0
92760,note_on,0,0,1,,,,,,,,,0,,,57,49
93240,note_on,0,0,4,,,,,,,,,3,,,50,36
93240,control_change,7308,0,4,,,,,,,,,3,64,127,,
93240,note_on,480,0,1,,,,,,,,,0,,,61,0
93240,note_on,0,0,1,,,,,,,,,0,,,57,0
93240,note_on,480,0,3,,,,,,,,,2,,,52,0
93240,note_on,0,0,3,,,,,,,,,2,,,45,0
93360,control_change,120,0,3,,,,,,,,,2,64,127,,
93360,note_on,0,0,3,,,,,,,,,2,,,57,36
93480,note_on,240,0,4,,,,,,,,,3,,,50,0
93480,note_on,0,0,4,,,,,,,,,3,,,50,36
93600,control_change,360,0,1,,,,,,,,,0,64,127,,
93600,note_on,240,0,3,,,,,,,,,2,,,57,0
93600,note_on,0,0,3,,,,,,,,,2,,,57,36
93600,note_on,0,0,1,,,,,,,,,0,,,77,49
93690,note_on,90,0,1,,,,,,,,,0,,,76,49
93705,note_on,15,0,1,,,,,,,,,0,,,76,0
93705,note_on,0,0,1,,,,,,,,,0,,,77,49
93720,note_on,0,0,4,,,,,,,,,3,,,50,36
93720,note_on,240,0,4,,,,,,,,,3,,,50,0
93720,note_on,0,0,1,,,,,,,,,0,,,76,49
93720,note_on,0,0,1,,,,,,,,,0,,,77,0
93720,note_on,15,0,1,,,,,,,,,0,,,77,0
93840,note_on,0,0,1,,,,,,,,,0,,,74,49
93840,note_on,120,0,1,,,,,,,,,0,,,76,0
93840,note_on,240,0,3,,,,,,,,,2,,,57,0
93840,note_on,0,0,3,,,,,,,,,2,,,57,36
93960,note_on,0,0,1,,,,,,,,,0,,,81,75
93960,note_on,240,0,4,,,,,,,,,3,,,50,0
93960,note_on,0,0,4,,,,,,,,,3,,,50,36
93960,note_on,120,0,1,,,,,,,,,0,,,74,0
94080,note_on,0,0,1,,,,,,,,,0,,,77,49
94080,note_on,120,0,1,,,,,,,,,0,,,81,0
94080,note_on,240,0,3,,,,,,,,,2,,,57,0
94080,note_on,0,0,3,,,,,,,,,2,,,57,36
94140,note_on,0,0,1,,,,,,,,,0,,,74,49
94140,note_on,60,0,1,,,,,,,,,0,,,77,0
94200,note_on,60,0,1,,,,,,,,,0,,,74,0
94200,note_on,240,0,4,,,,,,,,,3,,,50,0
94200,control_change,0,0,4,,,,,,,,,3,64,0,,
94200,note_on,0,0,4,,,,,,,,,3,,,50,36
94200,note_on,0,0,1,,,,,,,,,0,,,69,49
94200,control_change,0,0,1,,,,,,,,,0,64,0,,
94320,note_on,240,0,3,,,,,,,,,2,,,57,0
94320,note_on,0,0,3,,,,,,,,,2,,,57,36
94320,control_change,0,0,3,,,,,,,,,2,64,0,,
94440,note_on,240,0,4,,,,,,,,,3,,,50,0
94440,note_on,0,0,1,,,,,,,,,0,,,70,49
94440,note_on,240,0,1,,,,,,,,,0,,,69,0
94440,note_on,0,0,4,,,,,,,,,3,,,50,36
94500,note_on,0,0,1,,,,,,,,,0,,,73,49
94500,note_on,60,0,1,,,,,,,,,0,,,70,0
94560,note_on,60,0,1,,,,,,,,,0,,,73,0
94560,note_on,0,0,1,,,,,,,,,0,,,67,49
94560,note_on,240,0,3,,,,,,,,,2,,,57,0
94560,note_on,0,0,3,,,,,,,,,2,,,58,36
94620,note_on,0,0,1,,,,,,,,,0,,,70,49
94620,note_on,60,0,1,,,,,,,,,0,,,67,0
94680,note_on,0,0,1,,,,,,,,,0,,,64,49
94680,note_on,60,0,1,,,,,,,,,0,,,70,0
94680,note_on,240,0,4,,,,,,,,,3,,,50,0
94680,note_on,0,0,4,,,,,,,,,3,,,50,36
94740,note_on,60,0,1,,,,,,,,,0,,,64,0
94740,note_on,0,0,1,,,,,,,,,0,,,67,49
94800,note_on,0,0,3,,,,,,,,,2,,,55,36
94800,note_on,240,0,3,,,,,,,,,2,,,58,0
94800,note_on,60,0,1,,,,,,,,,0,,,67,0
94800,note_on,0,0,1,,,,,,,,,0,,,61,49
94860,note_on,60,0,1,,,,,,,,,0,,,61,0
94860,note_on,0,0,1,,,,,,,,,0,,,64,49
94920,note_on,60,0,1,,,,,,,,,0,,,64,0
94920,note_on,0,0,1,,,,,,,,,0,,,67,49
94920,note_on,240,0,4,,,,,,,,,3,,,50,0
94920,note_on,0,0,4,,,,,,,,,3,,,50,36
94980,note_on,60,0,1,,,,,,,,,0,,,67,0
94980,note_on,0,0,1,,,,,,,,,0,,,70,49
95040,note_on,240,0,3,,,,,,,,,2,,,55,0
95040,note_on,0,0,3,,,,,,,,,2,,,58,36
95040,note_on,60,0,1,,,,,,,,,0,,,70,0
95040,note_on,0,0,1,,,,,,,,,0,,,73,49
95100,note_on,0,0,1,,,,,,,,,0,,,76,49
95100,note_on,60,0,1,,,,,,,,,0,,,73,0
95160,note_on,60,0,1,,,,,,,,,0,,,76,0
95160,note_on,120,0,3,,,,,,,,,2,,,58,0
95160,control_change,0,0,3,,,,,,,,,2,64,127,,
95160,note_on,0,0,3,,,,,,,,,2,,,53,36
95160,note_on,0,0,4,,,,,,,,,3,,,50,36
95160,control_change,0,0,4,,,,,,,,,3,64,127,,
95160,note_on,240,0,4,,,,,,,,,3,,,50,0
95160,control_change,0,0,1,,,,,,,,,0,64,127,,
95160,note_on,0,0,1,,,,,,,,,0,,,69,49
95220,note_on,60,0,3,,,,,,,,,2,,,53,0
95220,note_on,0,0,3,,,,,,,,,2,,,55,36
95280,note_on,0,0,3,,,,,,,,,2,,,57,36
95280,note_on,60,0,3,,,,,,,,,2,,,55,0
95400,note_on,240,0,4,,,,,,,,,3,,,50,0
95400,note_on,0,0,4,,,,,,,,,3,,,50,36
95520,note_on,0,0,3,,,,,,,,,2,,,57,36
95520,note_on,240,0,3,,,,,,,,,2,,,57,0
95520,note_on,0,0,1,,,,,,,,,0,,,77,49
95520,note_on,360,0,1,,,,,,,,,0,,,69,0
95610,note_on,90,0,1,,,,,,,,,0,,,76,49
95625,note_on,0,0,1,,,,,,,,,0,,,77,49
95625,note_on,15,0,1,,,,,,,,,0,,,76,0
95640,note_on,15,0,1,,,,,,,,,0,,,77,0
95640,note_on,240,0,4,,,,,,,,,3,,,50,0
95640,note_on,0,0,4,,,,,,,,,3,,,50,36
95640,note_on,0,0,1,,,,,,,,,0,,,77,0
95640,note_on,0,0,1,,,,,,,,,0,,,76,49
95760,note_on,120,0,1,,,,,,,,,0,,,76,0
95760,note_on,0,0,3,,,,,,,,,2,,,57,36
95760,note_on,0,0,1,,,,,,,,,0,,,74,49
95760,note_on,240,0,3,,,,,,,,,2,,,57,0
95880,note_on,0,0,1,,,,,,,,,0,,,81,75
95880,note_on,120,0,1,,,,,,,,,0,,,74,0
95880,note_on,0,0,4,,,,,,,,,3,,,50,36
95880,note_on,240,0,4,,,,,,,,,3,,,50,0
96000,note_on,0,0,3,,,,,,,,,2,,,57,36
96000,note_on,0,0,1,,,,,,,,,0,,,77,49
96000,note_on,120,0,1,,,,,,,,,0,,,81,0
96000,note_on,240,0,3,,,,,,,,,2,,,57,0
96060,note_on,60,0,1,,,,,,,,,0,,,77,0
96060,note_on,0,0,1,,,,,,,,,0,,,74,49
96120,note_on,0,0,4,,,,,,,,,3,,,50,36
96120,note_on,60,0,1,,,,,,,,,0,,,74,0
96120,control_change,0,0,1,,,,,,,,,0,64,0,,
96120,note_on,0,0,1,,,,,,,,,0,,,70,49
96120,note_on,240,0,4,,,,,,,,,3,,,50,0
96240,note_on,0,0,3,,,,,,,,,2,,,58,36
96240,control_change,0,0,3,,,,,,,,,2,64,0,,
96240,note_on,240,0,3,,,,,,,,,2,,,57,0
96360,control_change,0,0,4,,,,,,,,,3,64,0,,
96360,note_on,10428,0,2,,,,,,,,,1,,,68,49
96360,note_on,240,0,4,,,,,,,,,3,,,50,0
96360,note_on,0,0,4,,,,,,,,,3,,,50,36
96480,note_on,0,0,3,,,,,,,,,2,,,56,36
96480,note_on,120,0,2,,,,,,,,,1,,,68,0
96480,note_on,240,0,3,,,,,,,,,2,,,58,0
96480,note_on,0,0,2,,,,,,,,,1,,,65,49
96540,note_on,0,0,2,,,,,,,,,1,,,62,49
96540,note_on,60,0,2,,,,,,,,,1,,,65,0
96600,note_on,60,0,2,,,,,,,,,1,,,62,0
96600,note_on,240,0,4,,,,,,,,,3,,,50,0
96600,note_on,0,0,4,,,,,,,,,3,,,50,36
96600,note_on,0,0,1,,,,,,,,,0,,,58,49
96600,note_on,480,0,1,,,,,,,,,0,,,70,0
96660,note_on,60,0,1,,,,,,,,,0,,,58,0
96660,note_on,0,0,1,,,,,,,,,0,,,59,49
96720,note_on,0,0,3,,,,,,,,,2,,,53,36
96720,note_on,240,0,3,,,,,,,,,2,,,56,0
96720,note_on,60,0,1,,,,,,,,,0,,,59,0
96720,note_on,0,0,1,,,,,,,,,0,,,62,49
96780,note_on,60,0,1,,,,,,,,,0,,,62,0
96780,note_on,0,0,1,,,,,,,,,0,,,65,49
96840,note_on,240,0,4,,,,,,,,,3,,,50,0
96840,note_on,0,0,4,,,,,,,,,3,,,50,36
96840,note_on,60,0,1,,,,,,,,,0,,,65,0
96840,note_on,0,0,1,,,,,,,,,0,,,68,49
96900,note_on,0,0,1,,,,,,,,,0,,,70,49
96900,note_on,60,0,1,,,,,,,,,0,,,68,0
96960,note_on,0,0,1,,,,,,,,,0,,,71,49
96960,note_on,240,0,3,,,,,,,,,2,,,53,0
96960,note_on,60,0,1,,,,,,,,,0,,,70,0
96960,note_on,0,0,3,,,,,,,,,2,,,56,36
97020,note_on,60,0,1,,,,,,,,,0,,,71,0
97020,note_on,0,0,1,,,,,,,,,0,,,77,49
97080,note_on,60,0,1,,,,,,,,,0,,,77,0
97080,note_on,240,0,4,,,,,,,,,3,,,50,0
97080,note_on,0,0,4,,,,,,,,,3,,,51,36
97080,note_on,0,0,1,,,,,,,,,0,,,70,49
97200,note_on,240,0,3,,,,,,,,,2,,,56,0
97200,note_on,0,0,3,,,,,,,,,2,,,55,36
97320,note_on,0,0,4,,,,,,,,,3,,,51,36
97320,note_on,240,0,4,,,,,,,,,3,,,51,0
97440,note_on,360,0,1,,,,,,,,,0,,,70,0
97440,note_on,0,0,1,,,,,,,,,0,,,70,49
97440,note_on,240,0,3,,,,,,,,,2,,,55,0
97440,note_on,0,0,3,,,,,,,,,2,,,55,36
97530,note_on,90,0,1,,,,,,,,,0,,,73,49
97545,note_on,15,0,1,,,,,,,,,0,,,73,0
97545,note_on,0,0,1,,,,,,,,,0,,,75,49
97560,note_on,15,0,1,,,,,,,,,0,,,75,0
97560,note_on,0,0,1,,,,,,,,,0,,,70,0
97560,note_on,0,0,1,,,,,,,,,0,,,73,49
97560,note_on,0,0,4,,,,,,,,,3,,,52,36
97560,note_on,240,0,4,,,,,,,,,3,,,51,0
97680,note_on,120,0,1,,,,,,,,,0,,,73,0
97680,note_on,0,0,1,,,,,,,,,0,,,72,49
97680,note_on,0,0,3,,,,,,,,,2,,,55,36
97680,note_on,240,0,3,,,,,,,,,2,,,55,0
97800,note_on,0,0,4,,,,,,,,,3,,,52,36
97800,note_on,240,0,4,,,,,,,,,3,,,52,0
97800,note_on,120,0,1,,,,,,,,,0,,,72,0
97800,note_on,0,0,1,,,,,,,,,0,,,82,49
97920,note_on,240,0,3,,,,,,,,,2,,,55,0
97920,note_on,120,0,1,,,,,,,,,0,,,82,0
97920,note_on,0,0,1,,,,,,,,,0,,,79,49
97920,note_on,0,0,3,,,,,,,,,2,,,55,36
97980,note_on,0,0,1,,,,,,,,,0,,,76,49
97980,note_on,60,0,1,,,,,,,,,0,,,79,0
98040,note_on,60,0,1,,,,,,,,,0,,,76,0
98040,note_on,0,0,4,,,,,,,,,3,,,53,36
98040,note_on,240,0,4,,,,,,,,,3,,,52,0
98040,note_on,0,0,1,,,,,,,,,0,,,72,49
98100,note_on,0,0,1,,,,,,,,,0,,,73,49
98100,note_on,60,0,1,,,,,,,,,0,,,72,0
98130,note_on,30,0,1,,,,,,,,,0,,,73,49
98145,note_on,0,0,1,,,,,,,,,0,,,75,49
98145,note_on,15,0,1,,,,,,,,,0,,,73,0
98160,note_on,15,0,1,,,,,,,,,0,,,75,0
98160,note_on,0,0,1,,,,,,,,,0,,,73,0
98160,note_on,0,0,1,,,,,,,,,0,,,73,49
98160,note_on,0,0,3,,,,,,,,,2,,,55,62
98160,note_on,240,0,3,,,,,,,,,2,,,55,0
98220,note_on,0,0,1,,,,,,,,,0,,,72,49
98220,note_on,60,0,1,,,,,,,,,0,,,73,0
98250,note_on,30,0,1,,,,,,,,,0,,,73,49
98265,note_on,0,0,1,,,,,,,,,0,,,75,49
98265,note_on,15,0,1,,,,,,,,,0,,,73,0
98280,note_on,0,0,1,,,,,,,,,0,,,72,0
98280,note_on,15,0,1,,,,,,,,,0,,,75,0
98280,note_on,0,0,1,,,,,,,,,0,,,73,49
98280,note_on,0,0,3,,,,,,,,,2,,,65,88
98280,note_on,120,0,3,,,,,,,,,2,,,55,0
98340,note_on,60,0,1,,,,,,,,,0,,,73,0
98340,note_on,0,0,1,,,,,,,,,0,,,72,49
98370,note_on,30,0,1,,,,,,,,,0,,,73,49
98385,note_on,15,0,1,,,,,,,,,0,,,73,0
98385,note_on,0,0,1,,,,,,,,,0,,,75,49
98400,note_on,15,0,1,,,,,,,,,0,,,75,0
98400,note_on,0,0,1,,,,,,,,,0,,,73,49
98400,note_on,0,0,1,,,,,,,,,0,,,72,0
98400,note_on,120,0,3,,,,,,,,,2,,,65,0
98400,note_on,0,0,3,,,,,,,,,2,,,61,62
98460,note_on,0,0,1,,,,,,,,,0,,,72,49
98460,note_on,60,0,1,,,,,,,,,0,,,73,0
98460,note_on,60,0,3,,,,,,,,,2,,,61,0
98460,note_on,0,0,3,,,,,,,,,2,,,58,62
98490,note_on,30,0,1,,,,,,,,,0,,,73,49
98505,note_on,15,0,1,,,,,,,,,0,,,73,0
98505,note_on,0,0,1,,,,,,,,,0,,,75,49
98520,note_on,0,0,3,,,,,,,,,2,,,55,36
98520,note_on,480,0,4,,,,,,,,,3,,,53,0
98520,note_on,0,0,4,,,,,,,,,3,,,52,36
98520,note_on,60,0,3,,,,,,,,,2,,,58,0
98520,note_on,0,0,1,,,,,,,,,0,,,73,49
98520,note_on,0,0,1,,,,,,,,,0,,,72,0
98520,note_on,15,0,1,,,,,,,,,0,,,75,0
98520,control_change,0,0,1,,,,,,,,,0,64,127,,
98640,note_on,120,0,3,,,,,,,,,2,,,55,0
98640,note_on,0,0,3,,,,,,,,,2,,,55,36
98640,note_on,0,0,1,,,,,,,,,0,,,72,49
98640,note_on,120,0,1,,,,,,,,,0,,,73,0
98760,note_on,120,0,1,,,,,,,,,0,,,72,0
98760,note_on,240,0,4,,,,,,,,,3,,,52,0
98760,note_on,0,0,4,,,,,,,,,3,,,52,36
98760,note_on,0,0,1,,,,,,,,,0,,,82,75
98880,note_on,240,0,3,,,,,,,,,2,,,55,0
98880,control_change,0,0,1,,,,,,,,,0,64,0,,
98880,note_on,120,0,1,,,,,,,,,0,,,82,0
98880,note_on,0,0,1,,,,,,,,,0,,,79,49
98880,note_on,0,0,3,,,,,,,,,2,,,55,36
98940,note_on,0,0,1,,,,,,,,,0,,,76,49
98940,note_on,60,0,1,,,,,,,,,0,,,79,0
99000,note_on,0,0,4,,,,,,,,,3,,,53,36
99000,note_on,240,0,4,,,,,,,,,3,,,52,0
99000,note_on,0,0,1,,,,,,,,,0,,,72,49
99000,note_on,60,0,1,,,,,,,,,0,,,76,0
99060,note_on,60,0,1,,,,,,,,,0,,,72,0
99060,note_on,0,0,1,,,,,,,,,0,,,73,49
99090,note_on,30,0,1,,,,,,,,,0,,,73,49
99105,note_on,15,0,1,,,,,,,,,0,,,73,0
99105,note_on,0,0,1,,,,,,,,,0,,,75,49
99120,note_on,240,0,3,,,,,,,,,2,,,55,0
99120,note_on,0,0,3,,,,,,,,,2,,,55,62
99120,note_on,15,0,1,,,,,,,,,0,,,75,0
99120,note_on,0,0,1,,,,,,,,,0,,,73,0
99120,note_on,0,0,1,,,,,,,,,0,,,73,49
99180,note_on,60,0,1,,,,,,,,,0,,,73,0
99180,note_on,0,0,1,,,,,,,,,0,,,72,49
99210,note_on,30,0,1,,,,,,,,,0,,,73,49
99225,note_on,15,0,1,,,,,,,,,0,,,73,0
99225,note_on,0,0,1,,,,,,,,,0,,,75,49
99240,note_on,15,0,1,,,,,,,,,0,,,75,0
99240,note_on,0,0,1,,,,,,,,,0,,,72,0
99240,note_on,0,0,1,,,,,,,,,0,,,73,49
99240,note_on,0,0,3,,,,,,,,,2,,,65,88
99240,note_on,120,0,3,,,,,,,,,2,,,55,0
99300,note_on,60,0,1,,,,,,,,,0,,,73,0
99300,note_on,0,0,1,,,,,,,,,0,,,72,49
99330,note_on,30,0,1,,,,,,,,,0,,,73,49
99345,note_on,15,0,1,,,,,,,,,0,,,73,0
99345,note_on,0,0,1,,,,,,,,,0,,,75,49
99360,note_on,120,0,3,,,,,,,,,2,,,65,0
99360,note_on,0,0,3,,,,,,,,,2,,,61,62
99360,note_on,15,0,1,,,,,,,,,0,,,75,0
99360,note_on,0,0,1,,,,,,,,,0,,,73,49
99360,note_on,0,0,1,,,,,,,,,0,,,72,0
99420,note_on,0,0,3,,,,,,,,,2,,,58,62
99420,note_on,0,0,1,,,,,,,,,0,,,72,49
99420,note_on,60,0,3,,,,,,,,,2,,,61,0
99420,note_on,60,0,1,,,,,,,,,0,,,73,0
99450,note_on,30,0,1,,,,,,,,,0,,,73,49
99465,note_on,15,0,1,,,,,,,,,0,,,73,0
99465,note_on,0,0,1,,,,,,,,,0,,,75,49
99480,control_change,0,0,1,,,,,,,,,0,64,127,,
99480,note_on,0,0,1,,,,,,,,,0,,,73,49
99480,note_on,15,0,1,,,,,,,,,0,,,75,0
99480,note_on,0,0,1,,,,,,,,,0,,,72,0
99480,note_on,480,0,4,,,,,,,,,3,,,53,0
99480,note_on,60,0,3,,,,,,,,,2,,,58,0
99480,note_on,0,0,3,,,,,,,,,2,,,52,36
99480,note_on,0,0,3,,,,,,,,,2,,,55,36
99600,note_on,0,0,1,,,,,,,,,0,,,72,49
99600,note_on,120,0,1,,,,,,,,,0,,,73,0
99720,note_on,120,0,1,,,,,,,,,0,,,72,0
99720,note_on,0,0,1,,,,,,,,,0,,,85,75
99840,note_on,120,0,1,,,,,,,,,0,,,85,0
99840,note_on,0,0,1,,,,,,,,,0,,,82,49
99900,note_on,60,0,1,,,,,,,,,0,,,82,0
99900,note_on,0,0,1,,,,,,,,,0,,,79,49
99960,note_on,0,0,3,,,,,,,,,2,,,52,0
99960,note_on,0,0,3,,,,,,,,,2,,,48,36
99960,note_on,0,0,1,,,,,,,,,0,,,76,49
99960,control_change,0,0,1,,,,,,,,,0,64,0,,
99960,note_on,60,0,1,,,,,,,,,0,,,79,0
99960,note_on,0,0,3,,,,,,,,,2,,,58,36
99960,note_on,480,0,3,,,,,,,,,2,,,55,0
100020,note_on,60,0,1,,,,,,,,,0,,,76,0
100020,note_on,0,0,1,,,,,,,,,0,,,79,49
100080,note_on,60,0,1,,,,,,,,,0,,,79,0
100080,note_on,0,0,1,,,,,,,,,0,,,76,49
100140,note_on,60,0,1,,,,,,,,,0,,,76,0
100140,note_on,0,0,1,,,,,,,,,0,,,73,49
100200,note_on,60,0,1,,,,,,,,,0,,,73,0
100200,note_on,0,0,1,,,,,,,,,0,,,72,49
100260,note_on,60,0,1,,,,,,,,,0,,,72,0
100260,note_on,0,0,1,,,,,,,,,0,,,73,49
100320,note_on,60,0,1,,,,,,,,,0,,,73,0
100320,note_on,0,0,1,,,,,,,,,0,,,70,49
100320,note_on,360,0,3,,,,,,,,,2,,,58,0
100320,note_on,0,0,3,,,,,,,,,2,,,48,0
100380,note_on,60,0,1,,,,,,,,,0,,,70,0
100380,note_on,0,0,1,,,,,,,,,0,,,67,49
100440,control_change,120,0,3,,,,,,,,,2,64,127,,
100440,note_on,0,0,3,,,,,,,,,2,,,41,49
100440,note_on,0,0,1,,,,,,,,,0,,,65,36
100440,control_change,0,0,1,,,,,,,,,0,64,127,,
100440,note_on,60,0,1,,,,,,,,,0,,,67,0
100470,note_on,0,0,1,,,,,,,,,0,,,72,36
100470,note_on,30,0,1,,,,,,,,,0,,,65,0
100500,note_on,0,0,1,,,,,,,,,0,,,68,36
100500,note_on,30,0,1,,,,,,,,,0,,,72,0
100530,note_on,0,0,1,,,,,,,,,0,,,72,36
100530,note_on,30,0,1,,,,,,,,,0,,,68,0
100560,note_on,30,0,1,,,,,,,,,0,,,72,0
100560,note_on,120,0,3,,,,,,,,,2,,,41,0
100560,note_on,0,0,1,,,,,,,,,0,,,68,36
100590,note_on,30,0,1,,,,,,,,,0,,,68,0
100590,note_on,0,0,1,,,,,,,,,0,,,72,36
100620,note_on,30,0,1,,,,,,,,,0,,,72,0
100620,note_on,0,0,1,,,,,,,,,0,,,68,36
100650,note_on,30,0,1,,,,,,,,,0,,,68,0
100650,note_on,0,0,1,,,,,,,,,0,,,72,36
100680,note_on,0,0,1,,,,,,,,,0,,,68,36
100680,note_on,30,0,1,,,,,,,,,0,,,72,0
100710,note_on,30,0,1,,,,,,,,,0,,,68,0
100710,note_on,0,0,1,,,,,,,,,0,,,72,36
100740,note_on,30,0,1,,,,,,,,,0,,,72,0
100740,note_on,0,0,1,,,,,,,,,0,,,68,36
100770,note_on,30,0,1,,,,,,,,,0,,,68,0
100770,note_on,0,0,1,,,,,,,,,0,,,72,36
100800,note_on,240,0,3,,,,,,,,,2,,,56,49
100800,note_on,0,0,1,,,,,,,,,0,,,68,36
100800,note_on,30,0,1,,,,,,,,,0,,,72,0
100830,note_on,30,0,1,,,,,,,,,0,,,68,0
100830,note_on,0,0,1,,,,,,,,,0,,,72,36
100860,note_on,30,0,1,,,,,,,,,0,,,72,0
100860,note_on,0,0,1,,,,,,,,,0,,,68,36
100890,note_on,90,0,3,,,,,,,,,2,,,55,49
100890,note_on,30,0,1,,,,,,,,,0,,,68,0
100890,note_on,0,0,1,,,,,,,,,0,,,72,36
100905,note_on,0,0,3,,,,,,,,,2,,,56,49
100905,note_on,15,0,3,,,,,,,,,2,,,55,0
100920,note_on,0,0,1,,,,,,,,,0,,,68,36
100920,note_on,30,0,1,,,,,,,,,0,,,72,0
100920,note_on,0,0,3,,,,,,,,,2,,,55,49
100920,note_on,15,0,3,,,,,,,,,2,,,56,0
100920,note_on,0,0,3,,,,,,,,,2,,,56,0
100950,note_on,0,0,1,,,,,,,,,0,,,72,36
100950,note_on,30,0,1,,,,,,,,,0,,,68,0
100980,note_on,0,0,1,,,,,,,,,0,,,68,36
100980,note_on,30,0,1,,,,,,,,,0,,,72,0
101010,note_on,0,0,1,,,,,,,,,0,,,72,36
101010,note_on,30,0,1,,,,,,,,,0,,,68,0
101040,note_on,120,0,3,,,,,,,,,2,,,55,0
101040,note_on,0,0,3,,,,,,,,,2,,,53,49
101040,note_on,0,0,1,,,,,,,,,0,,,68,36
101040,note_on,30,0,1,,,,,,,,,0,,,72,0
101070,note_on,30,0,1,,,,,,,,,0,,,68,0
101070,note_on,0,0,1,,,,,,,,,0,,,72,36
101100,note_on,30,0,1,,,,,,,,,0,,,72,0
101100,note_on,0,0,1,,,,,,,,,0,,,68,36
101130,note_on,30,0,1,,,,,,,,,0,,,68,0
101130,note_on,0,0,1,,,,,,,,,0,,,72,36
101160,note_on,30,0,1,,,,,,,,,0,,,72,0
101160,note_on,0,0,1,,,,,,,,,0,,,68,36
101160,note_on,0,0,3,,,,,,,,,2,,,60,75
101160,note_on,120,0,3,,,,,,,,,2,,,53,0
101190,note_on,30,0,1,,,,,,,,,0,,,68,0
101190,note_on,0,0,1,,,,,,,,,0,,,72,36
101220,note_on,30,0,1,,,,,,,,,0,,,72,0
101220,note_on,0,0,1,,,,,,,,,0,,,68,36
101250,note_on,30,0,1,,,,,,,,,0,,,68,0
101250,note_on,0,0,1,,,,,,,,,0,,,72,36
101280,note_on,120,0,3,,,,,,,,,2,,,60,0
101280,note_on,30,0,1,,,,,,,,,0,,,72,0
101280,note_on,0,0,1,,,,,,,,,0,,,68,36
101280,note_on,0,0,3,,,,,,,,,2,,,56,49
101310,note_on,30,0,1,,,,,,,,,0,,,68,0
101310,note_on,0,0,1,,,,,,,,,0,,,72,36
101340,note_on,30,0,1,,,,,,,,,0,,,72,0
101340,note_on,0,0,1,,,,,,,,,0,,,68,36
101340,note_on,60,0,3,,,,,,,,,2,,,56,0
101340,note_on,0,0,3,,,,,,,,,2,,,53,49
101370,note_on,30,0,1,,,,,,,,,0,,,68,0
101370,note_on,0,0,1,,,,,,,,,0,,,72,36
101400,note_on,0,0,3,,,,,,,,,2,,,48,49
101400,note_on,60,0,3,,,,,,,,,2,,,53,0
101400,note_on,30,0,1,,,,,,,,,0,,,72,0
101400,note_on,0,0,1,,,,,,,,,0,,,68,36
101430,note_on,0,0,1,,,,,,,,,0,,,72,36
101430,note_on,30,0,1,,,,,,,,,0,,,68,0
101460,note_on,0,0,1,,,,,,,,,0,,,68,36
101460,note_on,30,0,1,,,,,,,,,0,,,72,0
101460,control_change,0,0,1,,,,,,,,,0,64,0,,
101490,note_on,30,0,1,,,,,,,,,0,,,68,0
101490,note_on,0,0,1,,,,,,,,,0,,,72,36
101520,note_on,30,0,1,,,,,,,,,0,,,72,0
101520,note_on,0,0,1,,,,,,,,,0,,,68,36
101520,note_on,0,0,3,,,,,,,,,2,,,44,49
101520,control_change,0,0,3,,,,,,,,,2,64,0,,
101520,note_on,120,0,3,,,,,,,,,2,,,48,0
101550,note_on,0,0,1,,,,,,,,,0,,,72,36
101550,note_on,30,0,1,,,,,,,,,0,,,68,0
101580,note_on,60,0,3,,,,,,,,,2,,,44,0
101580,note_on,0,0,3,,,,,,,,,2,,,41,49
101580,note_on,0,0,1,,,,,,,,,0,,,68,36
101580,note_on,30,0,1,,,,,,,,,0,,,72,0
101610,note_on,0,0,1,,,,,,,,,0,,,72,36
101610,note_on,30,0,1,,,,,,,,,0,,,68,0
101640,note_on,0,0,3,,,,,,,,,2,,,36,49
101640,note_on,0,0,1,,,,,,,,,0,,,68,36
101640,note_on,30,0,1,,,,,,,,,0,,,72,0
101640,note_on,60,0,3,,,,,,,,,2,,,41,0
101670,note_on,0,0,1,,,,,,,,,0,,,72,36
101670,note_on,30,0,1,,,,,,,,,0,,,68,0
101700,note_on,60,0,3,,,,,,,,,2,,,36,0
101700,note_on,30,0,1,,,,,,,,,0,,,72,0
101700,note_on,0,0,1,,,,,,,,,0,,,68,36
101700,note_on,0,0,3,,,,,,,,,2,,,41,49
101730,note_on,30,0,1,,,,,,,,,0,,,68,0
101730,note_on,0,0,1,,,,,,,,,0,,,72,36
101760,note_on,0,0,1,,,,,,,,,0,,,68,36
101760,note_on,0,0,3,,,,,,,,,2,,,43,49
101760,note_on,60,0,3,,,,,,,,,2,,,41,0
101760,note_on,30,0,1,,,,,,,,,0,,,72,0
101790,note_on,0,0,1,,,,,,,,,0,,,72,36
101790,note_on,30,0,1,,,,,,,,,0,,,68,0
101820,note_on,0,0,3,,,,,,,,,2,,,44,49
101820,note_on,60,0,3,,,,,,,,,2,,,43,0
101820,note_on,0,0,1,,,,,,,,,0,,,68,36
101820,note_on,30,0,1,,,,,,,,,0,,,72,0
101850,note_on,0,0,1,,,,,,,,,0,,,72,36
101850,note_on,30,0,1,,,,,,,,,0,,,68,0
101880,note_on,30,0,1,,,,,,,,,0,,,72,0
101880,note_on,0,0,1,,,,,,,,,0,,,68,36
101880,note_on,60,0,3,,,,,,,,,2,,,44,0
101880,note_on,0,0,3,,,,,,,,,2,,,46,49
101910,note_on,30,0,1,,,,,,,,,0,,,68,0
101910,note_on,0,0,1,,,,,,,,,0,,,72,36
101940,note_on,0,0,3,,,,,,,,,2,,,48,49
101940,note_on,60,0,3,,,,,,,,,2,,,46,0
101940,note_on,30,0,1,,,,,,,,,0,,,72,0
101940,note_on,0,0,1,,,,,,,,,0,,,68,36
101970,note_on,30,0,1,,,,,,,,,0,,,68,0
101970,note_on,0,0,1,,,,,,,,,0,,,72,36
102000,note_on,0,0,3,,,,,,,,,2,,,52,49
102000,note_on,60,0,3,,,,,,,,,2,,,48,0
102000,note_on,30,0,1,,,,,,,,,0,,,72,0
102000,note_on,0,0,1,,,,,,,,,0,,,68,36
102030,note_on,30,0,1,,,,,,,,,0,,,68,0
102030,note_on,0,0,1,,,,,,,,,0,,,72,36
102060,note_on,0,0,1,,,,,,,,,0,,,68,36
102060,note_on,60,0,3,,,,,,,,,2,,,52,0
102060,note_on,0,0,3,,,,,,,,,2,,,53,49
102060,note_on,30,0,1,,,,,,,,,0,,,72,0
102090,note_on,0,0,1,,,,,,,,,0,,,72,36
102090,note_on,30,0,1,,,,,,,,,0,,,68,0
102120,note_on,60,0,3,,,,,,,,,2,,,53,0
102120,note_on,0,0,3,,,,,,,,,2,,,55,49
102120,note_on,0,0,1,,,,,,,,,0,,,68,36
102120,note_on,30,0,1,,,,,,,,,0,,,72,0
102150,note_on,0,0,1,,,,,,,,,0,,,72,36
102150,note_on,30,0,1,,,,,,,,,0,,,68,0
102180,note_on,30,0,1,,,,,,,,,0,,,72,0
102180,note_on,60,0,3,,,,,,,,,2,,,55,0
102180,note_on,0,0,3,,,,,,,,,2,,,56,49
102180,note_on,0,0,1,,,,,,,,,0,,,68,36
102210,note_on,0,0,1,,,,,,,,,0,,,72,36
102210,note_on,30,0,1,,,,,,,,,0,,,68,0
102240,note_on,0,0,3,,,,,,,,,2,,,58,49
102240,note_on,30,0,1,,,,,,,,,0,,,72,0
102240,note_on,60,0,3,,,,,,,,,2,,,56,0
102240,note_on,0,0,1,,,,,,,,,0,,,68,36
102270,note_on,0,0,1,,,,,,,,,0,,,72,36
102270,note_on,30,0,1,,,,,,,,,0,,,68,0
102300,note_on,60,0,3,,,,,,,,,2,,,58,0
102300,note_on,0,0,3,,,,,,,,,2,,,60,49
102300,note_on,0,0,1,,,,,,,,,0,,,68,36
102300,note_on,30,0,1,,,,,,,,,0,,,72,0
102330,note_on,0,0,1,,,,,,,,,0,,,72,36
102330,note_on,30,0,1,,,,,,,,,0,,,68,0
102360,control_change,0,0,1,,,,,,,,,0,64,127,,
102360,note_on,0,0,3,,,,,,,,,2,,,49,75
102360,note_on,30,0,1,,,,,,,,,0,,,72,0
102360,note_on,60,0,3,,,,,,,,,2,,,60,0
102360,note_on,0,0,1,,,,,,,,,0,,,68,36
102390,note_on,30,0,1,,,,,,,,,0,,,68,0
102390,note_on,0,0,1,,,,,,,,,0,,,72,36
102420,note_on,30,0,1,,,,,,,,,0,,,72,0
102420,note_on,0,0,1,,,,,,,,,0,,,68,36
102450,note_on,30,0,1,,,,,,,,,0,,,68,0
102450,note_on,0,0,1,,,,,,,,,0,,,72,36
102480,note_on,30,0,1,,,,,,,,,0,,,72,0
102480,note_on,0,0,1,,,,,,,,,0,,,68,36
102510,note_on,30,0,1,,,,,,,,,0,,,68,0
102510,note_on,0,0,1,,,,,,,,,0,,,72,36
102540,note_on,30,0,1,,,,,,,,,0,,,72,0
102540,note_on,0,0,1,,,,,,,,,0,,,68,36
102570,note_on,30,0,1,,,,,,,,,0,,,68,0
102570,note_on,0,0,1,,,,,,,,,0,,,72,36
102600,note_on,0,0,1,,,,,,,,,0,,,67,36
102600,note_on,30,0,1,,,,,,,,,0,,,72,0
102630,note_on,0,0,1,,,,,,,,,0,,,70,36
102630,note_on,30,0,1,,,,,,,,,0,,,67,0
102660,note_on,30,0,1,,,,,,,,,0,,,70,0
102660,note_on,0,0,1,,,,,,,,,0,,,67,36
102690,note_on,30,0,1,,,,,,,,,0,,,67,0
102690,note_on,0,0,1,,,,,,,,,0,,,70,36
102720,note_on,30,0,1,,,,,,,,,0,,,70,0
102720,note_on,0,0,1,,,,,,,,,0,,,65,36
102750,note_on,30,0,1,,,,,,,,,0,,,65,0
102750,note_on,0,0,1,,,,,,,,,0,,,68,36
102780,note_on,0,0,1,,,,,,,,,0,,,65,36
102780,note_on,30,0,1,,,,,,,,,0,,,68,0
102810,note_on,30,0,1,,,,,,,,,0,,,65,0
102810,note_on,0,0,1,,,,,,,,,0,,,68,36
102840,note_on,0,0,1,,,,,,,,,0,,,64,36
102840,note_on,30,0,1,,,,,,,,,0,,,68,0
102870,note_on,30,0,1,,,,,,,,,0,,,64,0
102870,note_on,0,0,1,,,,,,,,,0,,,67,36
102900,note_on,0,0,1,,,,,,,,,0,,,64,36
102900,note_on,30,0,1,,,,,,,,,0,,,67,0
102930,note_on,0,0,1,,,,,,,,,0,,,67,36
102930,note_on,30,0,1,,,,,,,,,0,,,64,0
102960,note_on,30,0,1,,,,,,,,,0,,,67,0
102960,note_on,0,0,1,,,,,,,,,0,,,65,36
102990,note_on,30,0,1,,,,,,,,,0,,,65,0
102990,note_on,0,0,1,,,,,,,,,0,,,68,36
103020,note_on,0,0,1,,,,,,,,,0,,,65,36
103020,note_on,30,0,1,,,,,,,,,0,,,68,0
103050,note_on,0,0,1,,,,,,,,,0,,,68,36
103050,control_change,0,0,1,,,,,,,,,0,64,127,,
103050,note_on,30,0,1,,,,,,,,,0,,,65,0
103080,note_on,0,0,1,,,,,,,,,0,,,67,36
103080,note_on,30,0,1,,,,,,,,,0,,,68,0
103110,note_on,0,0,1,,,,,,,,,0,,,70,36
103110,note_on,30,0,1,,,,,,,,,0,,,67,0
103140,note_on,30,0,1,,,,,,,,,0,,,70,0
103140,note_on,0,0,1,,,,,,,,,0,,,67,36
103170,note_on,30,0,1,,,,,,,,,0,,,67,0
103170,note_on,0,0,1,,,,,,,,,0,,,70,36
103200,note_on,30,0,1,,,,,,,,,0,,,70,0
103200,note_on,0,0,1,,,,,,,,,0,,,65,36
103230,note_on,30,0,1,,,,,,,,,0,,,65,0
103230,note_on,0,0,1,,,,,,,,,0,,,71,36
103260,note_on,30,0,1,,,,,,,,,0,,,71,0
103260,note_on,0,0,1,,,,,,,,,0,,,65,36
103290,note_on,0,0,1,,,,,,,,,0,,,71,36
103290,note_on,30,0,1,,,,,,,,,0,,,65,0
103320,note_on,0,0,1,,,,,,,,,0,,,64,36
103320,control_change,0,0,1,,,,,,,,,0,64,127,,
103320,note_on,30,0,1,,,,,,,,,0,,,71,0
103320,note_on,0,0,3,,,,,,,,,2,,,48,49
103320,control_change,0,0,3,,,,,,,,,2,64,127,,
103320,note_on,960,0,3,,,,,,,,,2,,,49,0
103350,note_on,30,0,1,,,,,,,,,0,,,64,0
103350,note_on,0,0,1,,,,,,,,,0,,,72,36
103380,note_on,0,0,1,,,,,,,,,0,,,64,36
103380,note_on,30,0,1,,,,,,,,,0,,,72,0
103410,note_on,0,0,1,,,,,,,,,0,,,72,36
103410,note_on,30,0,1,,,,,,,,,0,,,64,0
103440,note_on,30,0,1,,,,,,,,,0,,,72,0
103440,note_on,0,0,1,,,,,,,,,0,,,64,36
103470,note_on,30,0,1,,,,,,,,,0,,,64,0
103470,note_on,0,0,1,,,,,,,,,0,,,72,36
103500,note_on,30,0,1,,,,,,,,,0,,,72,0
103500,note_on,0,0,1,,,,,,,,,0,,,64,36
103530,note_on,30,0,1,,,,,,,,,0,,,64,0
103530,note_on,0,0,1,,,,,,,,,0,,,72,36
103560,note_on,30,0,1,,,,,,,,,0,,,72,0
103560,note_on,0,0,1,,,,,,,,,0,,,64,36
103560,note_on,240,0,3,,,,,,,,,2,,,48,0
103560,note_on,0,0,3,,,,,,,,,2,,,61,49
103590,note_on,30,0,1,,,,,,,,,0,,,64,0
103590,note_on,0,0,1,,,,,,,,,0,,,70,36
103620,note_on,30,0,1,,,,,,,,,0,,,70,0
103620,note_on,0,0,1,,,,,,,,,0,,,64,36
103650,note_on,30,0,1,,,,,,,,,0,,,64,0
103650,note_on,0,0,1,,,,,,,,,0,,,70,36
103680,note_on,30,0,1,,,,,,,,,0,,,70,0
103680,note_on,0,0,3,,,,,,,,,2,,,58,49
103680,note_on,120,0,3,,,,,,,,,2,,,61,0
103680,note_on,0,0,1,,,,,,,,,0,,,64,36
103710,note_on,0,0,1,,,,,,,,,0,,,70,36
103710,note_on,30,0,1,,,,,,,,,0,,,64,0
103740,note_on,0,0,1,,,,,,,,,0,,,64,36
103740,note_on,30,0,1,,,,,,,,,0,,,70,0
103740,note_on,60,0,3,,,,,,,,,2,,,58,0
103740,note_on,0,0,3,,,,,,,,,2,,,55,49
103770,note_on,0,0,1,,,,,,,,,0,,,70,36
103770,note_on,30,0,1,,,,,,,,,0,,,64,0
103800,note_on,0,0,3,,,,,,,,,2,,,36,49
103800,note_on,60,0,3,,,,,,,,,2,,,55,0
103800,note_on,0,0,1,,,,,,,,,0,,,64,36
103800,note_on,30,0,1,,,,,,,,,0,,,70,0
103830,note_on,30,0,1,,,,,,,,,0,,,64,0
103830,note_on,0,0,1,,,,,,,,,0,,,67,36
103860,note_on,30,0,1,,,,,,,,,0,,,67,0
103860,note_on,0,0,1,,,,,,,,,0,,,64,36
103890,note_on,0,0,1,,,,,,,,,0,,,70,36
103890,note_on,30,0,1,,,,,,,,,0,,,64,0
103920,note_on,0,0,1,,,,,,,,,0,,,67,36
103920,note_on,30,0,1,,,,,,,,,0,,,70,0
103950,note_on,0,0,1,,,,,,,,,0,,,70,36
103950,note_on,30,0,1,,,,,,,,,0,,,67,0
103980,note_on,30,0,1,,,,,,,,,0,,,70,0
103980,note_on,0,0,1,,,,,,,,,0,,,67,36
104010,note_on,0,0,1,,,,,,,,,0,,,73,36
104010,note_on,30,0,1,,,,,,,,,0,,,67,0
104040,note_on,30,0,1,,,,,,,,,0,,,73,0
104040,note_on,0,0,1,,,,,,,,,0,,,70,36
104070,note_on,30,0,1,,,,,,,,,0,,,70,0
104070,note_on,0,0,1,,,,,,,,,0,,,73,36
104100,note_on,30,0,1,,,,,,,,,0,,,73,0
104100,note_on,0,0,1,,,,,,,,,0,,,70,36
104130,note_on,30,0,1,,,,,,,,,0,,,70,0
104130,note_on,0,0,1,,,,,,,,,0,,,76,36
104160,note_on,30,0,1,,,,,,,,,0,,,76,0
104160,note_on,0,0,1,,,,,,,,,0,,,73,36
104190,note_on,30,0,1,,,,,,,,,0,,,73,0
104190,note_on,0,0,1,,,,,,,,,0,,,76,36
104220,note_on,0,0,1,,,,,,,,,0,,,73,36
104220,note_on,30,0,1,,,,,,,,,0,,,76,0
104250,note_on,0,0,1,,,,,,,,,0,,,79,36
104250,note_on,30,0,1,,,,,,,,,0,,,73,0
104280,note_on,30,0,1,,,,,,,,,0,,,79,0
104280,note_on,0,0,1,,,,,,,,,0,,,76,36
104280,control_change,480,0,3,,,,,,,,,2,64,0,,
104310,note_on,30,0,1,,,,,,,,,0,,,76,0
104310,note_on,0,0,1,,,,,,,,,0,,,79,36
104340,note_on,30,0,1,,,,,,,,,0,,,79,0
104340,note_on,0,0,1,,,,,,,,,0,,,76,36
104370,note_on,0,0,1,,,,,,,,,0,,,82,36
104370,note_on,30,0,1,,,,,,,,,0,,,76,0
104400,note_on,0,0,1,,,,,,,,,0,,,80,36
104400,note_on,30,0,1,,,,,,,,,0,,,82,0
104400,control_change,0,0,1,,,,,,,,,0,64,0,,
104430,note_on,0,0,1,,,,,,,,,0,,,79,36
104430,note_on,30,0,1,,,,,,,,,0,,,80,0
104460,note_on,0,0,1,,,,,,,,,0,,,77,36
104460,note_on,30,0,1,,,,,,,,,0,,,79,0
104490,note_on,30,0,1,,,,,,,,,0,,,77,0
104490,note_on,0,0,1,,,,,,,,,0,,,76,36
104520,note_on,0,0,1,,,,,,,,,0,,,75,36
104520,note_on,30,0,1,,,,,,,,,0,,,76,0
104520,note_on,240,0,3,,,,,,,,,2,,,36,0
104520,note_on,0,0,3,,,,,,,,,2,,,36,49
104526,note_on,6,0,3,,,,,,,,,2,,,36,0
104550,note_on,30,0,1,,,,,,,,,0,,,75,0
104550,note_on,0,0,1,,,,,,,,,0,,,73,36
104580,note_on,54,0,3,,,,,,,,,2,,,36,49
104580,note_on,30,0,1,,,,,,,,,0,,,73,0
104580,note_on,0,0,1,,,,,,,,,0,,,72,36
104586,note_on,6,0,3,,,,,,,,,2,,,36,0
104610,note_on,30,0,1,,,,,,,,,0,,,72,0
104610,note_on,0,0,1,,,,,,,,,0,,,70,36
104640,note_on,0,0,1,,,,,,,,,0,,,68,36
104640,note_on,30,0,1,,,,,,,,,0,,,70,0
104640,note_on,54,0,3,,,,,,,,,2,,,36,49
104646,note_on,6,0,3,,,,,,,,,2,,,36,0
104670,note_on,0,0,1,,,,,,,,,0,,,67,36
104670,note_on,30,0,1,,,,,,,,,0,,,68,0
104700,note_on,30,0,1,,,,,,,,,0,,,67,0
104700,note_on,0,0,1,,,,,,,,,0,,,65,36
104700,note_on,54,0,3,,,,,,,,,2,,,36,49
104706,note_on,6,0,3,,,,,,,,,2,,,36,0
104730,note_on,30,0,1,,,,,,,,,0,,,65,0
104730,note_on,0,0,1,,,,,,,,,0,,,64,36
104760,note_on,30,0,1,,,,,,,,,0,,,64,0
104760,control_change,0,0,1,,,,,,,,,0,64,127,,
104760,note_on,0,0,1,,,,,,,,,0,,,65,36
104760,control_change,54,0,3,,,,,,,,,2,64,127,,
104760,note_on,0,0,3,,,,,,,,,2,,,36,49
104790,note_on,30,0,1,,,,,,,,,0,,,65,0
104790,note_on,0,0,1,,,,,,,,,0,,,68,36
104820,note_on,30,0,1,,,,,,,,,0,,,68,0
104820,note_on,0,0,1,,,,,,,,,0,,,65,36
104850,note_on,30,0,1,,,,,,,,,0,,,65,0
104850,note_on,0,0,1,,,,,,,,,0,,,68,36
104880,note_on,0,0,1,,,,,,,,,0,,,65,36
104880,note_on,30,0,1,,,,,,,,,0,,,68,0
104910,note_on,30,0,1,,,,,,,,,0,,,65,0
104910,note_on,0,0,1,,,,,,,,,0,,,68,36
104940,note_on,0,0,1,,,,,,,,,0,,,65,36
104940,note_on,30,0,1,,,,,,,,,0,,,68,0
104970,note_on,0,0,1,,,,,,,,,0,,,68,36
104970,note_on,30,0,1,,,,,,,,,0,,,65,0
105000,note_on,0,0,1,,,,,,,,,0,,,65,36
105000,note_on,240,0,3,,,,,,,,,2,,,36,0
105000,note_on,0,0,3,,,,,,,,,2,,,60,88
105000,note_on,30,0,1,,,,,,,,,0,,,68,0
105030,note_on,0,0,1,,,,,,,,,0,,,68,36
105030,note_on,30,0,1,,,,,,,,,0,,,65,0
105060,note_on,0,0,1,,,,,,,,,0,,,65,36
105060,note_on,30,0,1,,,,,,,,,0,,,68,0
105090,note_on,0,0,1,,,,,,,,,0,,,68,36
105090,note_on,30,0,1,,,,,,,,,0,,,65,0
105120,note_on,0,0,3,,,,,,,,,2,,,56,49
105120,note_on,120,0,3,,,,,,,,,2,,,60,0
105120,note_on,30,0,1,,,,,,,,,0,,,68,0
105120,note_on,0,0,1,,,,,,,,,0,,,65,36
105150,note_on,30,0,1,,,,,,,,,0,,,65,0
105150,note_on,0,0,1,,,,,,,,,0,,,68,36
105180,note_on,0,0,3,,,,,,,,,2,,,53,49
105180,note_on,30,0,1,,,,,,,,,0,,,68,0
105180,note_on,0,0,1,,,,,,,,,0,,,65,36
105180,note_on,60,0,3,,,,,,,,,2,,,56,0
105210,note_on,30,0,1,,,,,,,,,0,,,65,0
105210,note_on,0,0,1,,,,,,,,,0,,,68,36
105240,note_on,60,0,3,,,,,,,,,2,,,53,0
105240,note_on,30,0,1,,,,,,,,,0,,,68,0
105240,note_on,0,0,1,,,,,,,,,0,,,65,36
105240,note_on,0,0,3,,,,,,,,,2,,,36,49
105270,note_on,0,0,1,,,,,,,,,0,,,68,36
105270,note_on,30,0,1,,,,,,,,,0,,,65,0
105300,note_on,30,0,1,,,,,,,,,0,,,68,0
105300,note_on,0,0,1,,,,,,,,,0,,,65,36
105330,note_on,30,0,1,,,,,,,,,0,,,65,0
105330,note_on,0,0,1,,,,,,,,,0,,,72,36
105360,note_on,0,0,1,,,,,,,,,0,,,68,36
105360,note_on,30,0,1,,,,,,,,,0,,,72,0
105390,note_on,0,0,1,,,,,,,,,0,,,72,36
105390,note_on,30,0,1,,,,,,,,,0,,,68,0
105420,note_on,30,0,1,,,,,,,,,0,,,72,0
105420,note_on,0,0,1,,,,,,,,,0,,,68,36
105450,note_on,0,0,1,,,,,,,,,0,,,77,36
105450,note_on,30,0,1,,,,,,,,,0,,,68,0
105480,note_on,30,0,1,,,,,,,,,0,,,77,0
105480,note_on,0,0,1,,,,,,,,,0,,,72,36
105510,note_on,0,0,1,,,,,,,,,0,,,77,36
105510,note_on,30,0,1,,,,,,,,,0,,,72,0
105540,note_on,30,0,1,,,,,,,,,0,,,77,0
105540,note_on,0,0,1,,,,,,,,,0,,,72,36
105570,note_on,0,0,1,,,,,,,,,0,,,80,36
105570,note_on,30,0,1,,,,,,,,,0,,,72,0
105600,note_on,0,0,1,,,,,,,,,0,,,77,36
105600,note_on,30,0,1,,,,,,,,,0,,,80,0
105630,note_on,0,0,1,,,,,,,,,0,,,80,36
105630,note_on,30,0,1,,,,,,,,,0,,,77,0
105660,note_on,0,0,1,,,,,,,,,0,,,77,36
105660,note_on,30,0,1,,,,,,,,,0,,,80,0
105690,note_on,30,0,1,,,,,,,,,0,,,77,0
105690,note_on,0,0,1,,,,,,,,,0,,,84,36
105720,note_on,30,0,1,,,,,,,,,0,,,84,0
105720,note_on,0,0,1,,,,,,,,,0,,,80,36
105720,control_change,480,0,3,,,,,,,,,2,64,0,,
105750,note_on,0,0,1,,,,,,,,,0,,,84,36
105750,note_on,30,0,1,,,,,,,,,0,,,80,0
105780,note_on,0,0,1,,,,,,,,,0,,,80,36
105780,note_on,30,0,1,,,,,,,,,0,,,84,0
105810,control_change,0,0,1,,,,,,,,,0,64,0,,
105810,note_on,30,0,1,,,,,,,,,0,,,80,0
105810,note_on,0,0,1,,,,,,,,,0,,,89,62
105840,note_on,0,0,1,,,,,,,,,0,,,87,36
105840,note_on,30,0,1,,,,,,,,,0,,,89,0
105870,note_on,30,0,1,,,,,,,,,0,,,87,0
105870,note_on,0,0,1,,,,,,,,,0,,,85,36
105900,note_on,0,0,1,,,,,,,,,0,,,84,36
105900,note_on,30,0,1,,,,,,,,,0,,,85,0
105930,note_on,0,0,1,,,,,,,,,0,,,82,36
105930,note_on,30,0,1,,,,,,,,,0,,,84,0
105960,note_on,0,0,3,,,,,,,,,2,,,36,49
105960,note_on,240,0,3,,,,,,,,,2,,,36,0
105960,note_on,30,0,1,,,,,,,,,0,,,82,0
105960,note_on,0,0,1,,,,,,,,,0,,,80,36
105966,note_on,6,0,3,,,,,,,,,2,,,36,0
105990,note_on,0,0,1,,,,,,,,,0,,,79,36
105990,note_on,30,0,1,,,,,,,,,0,,,80,0
106020,note_on,0,0,1,,,,,,,,,0,,,77,36
106020,note_on,30,0,1,,,,,,,,,0,,,79,0
106020,note_on,54,0,3,,,,,,,,,2,,,36,49
106026,note_on,6,0,3,,,,,,,,,2,,,36,0
106050,note_on,0,0,1,,,,,,,,,0,,,75,36
106050,note_on,30,0,1,,,,,,,,,0,,,77,0
106080,note_on,54,0,3,,,,,,,,,2,,,36,49
106080,note_on,0,0,1,,,,,,,,,0,,,73,36
106080,note_on,30,0,1,,,,,,,,,0,,,75,0
106086,note_on,6,0,3,,,,,,,,,2,,,36,0
106110,note_on,30,0,1,,,,,,,,,0,,,73,0
106110,note_on,0,0,1,,,,,,,,,0,,,72,36
106140,note_on,0,0,1,,,,,,,,,0,,,70,36
106140,note_on,30,0,1,,,,,,,,,0,,,72,0
106140,note_on,54,0,3,,,,,,,,,2,,,36,49
106146,note_on,6,0,3,,,,,,,,,2,,,36,0
106170,note_on,0,0,1,,,,,,,,,0,,,68,36
106170,note_on,30,0,1,,,,,,,,,0,,,70,0
106200,note_on,0,0,3,,,,,,,,,2,,,37,75
106200,control_change,0,0,1,,,,,,,,,0,64,127,,
106200,note_on,30,0,1,,,,,,,,,0,,,68,0
106200,note_on,0,0,1,,,,,,,,,0,,,65,36
106200,control_change,54,0,3,,,,,,,,,2,64,127,,
106230,note_on,30,0,1,,,,,,,,,0,,,65,0
106230,note_on,0,0,1,,,,,,,,,0,,,77,36
106260,note_on,30,0,1,,,,,,,,,0,,,77,0
106260,note_on,0,0,1,,,,,,,,,0,,,68,36
106290,note_on,30,0,1,,,,,,,,,0,,,68,0
106290,note_on,0,0,1,,,,,,,,,0,,,77,36
106320,note_on,30,0,1,,,,,,,,,0,,,77,0
106320,note_on,0,0,1,,,,,,,,,0,,,65,36
106350,note_on,30,0,1,,,,,,,,,0,,,65,0
106350,note_on,0,0,1,,,,,,,,,0,,,77,36
106380,note_on,0,0,1,,,,,,,,,0,,,68,36
106380,note_on,30,0,1,,,,,,,,,0,,,77,0
106410,note_on,30,0,1,,,,,,,,,0,,,68,0
106410,note_on,0,0,1,,,,,,,,,0,,,77,36
106440,note_on,240,0,3,,,,,,,,,2,,,37,0
106440,note_on,0,0,3,,,,,,,,,2,,,61,75
106440,note_on,0,0,1,,,,,,,,,0,,,65,62
106440,note_on,30,0,1,,,,,,,,,0,,,77,0
106470,note_on,0,0,1,,,,,,,,,0,,,77,62
106470,note_on,30,0,1,,,,,,,,,0,,,65,0
106500,note_on,30,0,1,,,,,,,,,0,,,77,0
106500,note_on,0,0,1,,,,,,,,,0,,,68,62
106530,note_on,30,0,1,,,,,,,,,0,,,68,0
106530,note_on,0,0,1,,,,,,,,,0,,,77,62
106560,note_on,120,0,3,,,,,,,,,2,,,61,0
106560,note_on,30,0,1,,,,,,,,,0,,,77,0
106560,note_on,0,0,1,,,,,,,,,0,,,65,62
106560,note_on,0,0,3,,,,,,,,,2,,,56,49
106590,note_on,0,0,1,,,,,,,,,0,,,77,62
106590,note_on,30,0,1,,,,,,,,,0,,,65,0
106620,control_change,0,0,3,,,,,,,,,2,64,0,,
106620,note_on,0,0,3,,,,,,,,,2,,,53,49
106620,note_on,30,0,1,,,,,,,,,0,,,77,0
106620,note_on,0,0,1,,,,,,,,,0,,,68,62
106620,note_on,60,0,3,,,,,,,,,2,,,56,0
106650,note_on,0,0,1,,,,,,,,,0,,,77,62
106650,control_change,0,0,1,,,,,,,,,0,64,0,,
106650,note_on,30,0,1,,,,,,,,,0,,,68,0
106680,note_on,30,0,1,,,,,,,,,0,,,77,0
106680,note_on,0,0,1,,,,,,,,,0,,,66,62
106680,control_change,0,0,1,,,,,,,,,0,64,127,,
106680,note_on,60,0,3,,,,,,,,,2,,,53,0
106680,control_change,0,0,3,,,,,,,,,2,64,127,,
106680,note_on,0,0,3,,,,,,,,,2,,,37,75
106710,note_on,0,0,1,,,,,,,,,0,,,78,62
106710,note_on,30,0,1,,,,,,,,,0,,,66,0
106740,note_on,0,0,1,,,,,,,,,0,,,69,62
106740,note_on,30,0,1,,,,,,,,,0,,,78,0
106770,note_on,0,0,1,,,,,,,,,0,,,78,62
106770,note_on,30,0,1,,,,,,,,,0,,,69,0
106800,note_on,0,0,1,,,,,,,,,0,,,66,62
106800,note_on,30,0,1,,,,,,,,,0,,,78,0
106830,note_on,30,0,1,,,,,,,,,0,,,66,0
106830,note_on,0,0,1,,,,,,,,,0,,,78,62
106860,note_on,0,0,1,,,,,,,,,0,,,69,62
106860,note_on,30,0,1,,,,,,,,,0,,,78,0
106890,note_on,30,0,1,,,,,,,,,0,,,69,0
106890,note_on,0,0,1,,,,,,,,,0,,,78,62
106920,note_on,0,0,3,,,,,,,,,2,,,61,75
106920,note_on,0,0,1,,,,,,,,,0,,,66,75
106920,note_on,30,0,1,,,,,,,,,0,,,78,0
106920,note_on,240,0,3,,,,,,,,,2,,,37,0
106950,note_on,0,0,1,,,,,,,,,0,,,78,75
106950,note_on,30,0,1,,,,,,,,,0,,,66,0
106980,note_on,30,0,1,,,,,,,,,0,,,78,0
106980,note_on,0,0,1,,,,,,,,,0,,,69,75
107010,note_on,0,0,1,,,,,,,,,0,,,78,75
107010,note_on,30,0,1,,,,,,,,,0,,,69,0
107040,note_on,120,0,3,,,,,,,,,2,,,61,0
107040,note_on,30,0,1,,,,,,,,,0,,,78,0
107040,note_on,0,0,1,,,,,,,,,0,,,66,75
107040,note_on,0,0,3,,,,,,,,,2,,,57,49
107070,note_on,30,0,1,,,,,,,,,0,,,66,0
107070,note_on,0,0,1,,,,,,,,,0,,,78,75
107100,note_on,30,0,1,,,,,,,,,0,,,78,0
107100,note_on,0,0,1,,,,,,,,,0,,,69,75
107100,note_on,60,0,3,,,,,,,,,2,,,57,0
107100,note_on,0,0,3,,,,,,,,,2,,,54,49
107100,control_change,0,0,3,,,,,,,,,2,64,0,,
107130,note_on,30,0,1,,,,,,,,,0,,,69,0
107130,control_change,0,0,1,,,,,,,,,0,64,0,,
107130,note_on,0,0,1,,,,,,,,,0,,,78,75
107160,control_change,0,0,3,,,,,,,,,2,64,127,,
107160,note_on,0,0,3,,,,,,,,,2,,,33,114
107160,note_on,60,0,3,,,,,,,,,2,,,54,0
107160,note_on,30,0,1,,,,,,,,,0,,,78,0
107160,control_change,0,0,1,,,,,,,,,0,64,127,,
107160,note_on,0,0,1,,,,,,,,,0,,,67,88
107190,note_on,30,0,1,,,,,,,,,0,,,67,0
107190,note_on,0,0,1,,,,,,,,,0,,,79,88
107220,note_on,0,0,1,,,,,,,,,0,,,73,88
107220,note_on,30,0,1,,,,,,,,,0,,,79,0
107250,note_on,0,0,1,,,,,,,,,0,,,79,88
107250,note_on,30,0,1,,,,,,,,,0,,,73,0
107280,note_on,0,0,1,,,,,,,,,0,,,67,88
107280,note_on,30,0,1,,,,,,,,,0,,,79,0
107310,note_on,0,0,1,,,,,,,,,0,,,79,88
107310,note_on,30,0,1,,,,,,,,,0,,,67,0
107340,note_on,0,0,1,,,,,,,,,0,,,73,88
107340,note_on,30,0,1,,,,,,,,,0,,,79,0
107370,note_on,0,0,1,,,,,,,,,0,,,79,88
107370,note_on,30,0,1,,,,,,,,,0,,,73,0
107400,note_on,0,0,1,,,,,,,,,0,,,67,88
107400,note_on,30,0,1,,,,,,,,,0,,,79,0
107400,note_on,0,0,3,,,,,,,,,2,,,61,88
107400,note_on,240,0,3,,,,,,,,,2,,,33,0
107430,note_on,30,0,1,,,,,,,,,0,,,67,0
107430,note_on,0,0,1,,,,,,,,,0,,,79,88
107460,note_on,30,0,1,,,,,,,,,0,,,79,0
107460,note_on,0,0,1,,,,,,,,,0,,,73,88
107490,note_on,0,0,1,,,,,,,,,0,,,79,88
107490,note_on,30,0,1,,,,,,,,,0,,,73,0
107520,note_on,0,0,1,,,,,,,,,0,,,67,88
107520,note_on,30,0,1,,,,,,,,,0,,,79,0
107520,note_on,120,0,3,,,,,,,,,2,,,61,0
107520,note_on,0,0,3,,,,,,,,,2,,,57,88
107550,note_on,30,0,1,,,,,,,,,0,,,67,0
107550,note_on,0,0,1,,,,,,,,,0,,,79,88
107580,note_on,0,0,3,,,,,,,,,2,,,52,88
107580,control_change,0,0,3,,,,,,,,,2,64,0,,
107580,note_on,60,0,3,,,,,,,,,2,,,57,0
107580,note_on,30,0,1,,,,,,,,,0,,,79,0
107580,note_on,0,0,1,,,,,,,,,0,,,73,88
107610,control_change,0,0,1,,,,,,,,,0,64,0,,
107610,note_on,30,0,1,,,,,,,,,0,,,73,0
107610,note_on,0,0,1,,,,,,,,,0,,,79,88
107640,note_on,30,0,1,,,,,,,,,0,,,79,0
107640,note_on,0,0,1,,,,,,,,,0,,,67,88
107640,control_change,0,0,3,,,,,,,,,2,64,127,,
107640,note_on,60,0,3,,,,,,,,,2,,,52,0
107640,note_on,0,0,3,,,,,,,,,2,,,64,101
107640,control_change,0,0,1,,,,,,,,,0,64,127,,
107670,note_on,30,0,1,,,,,,,,,0,,,67,0
107670,note_on,0,0,1,,,,,,,,,0,,,79,88
107700,note_on,30,0,1,,,,,,,,,0,,,79,0
107700,note_on,0,0,1,,,,,,,,,0,,,73,88
107730,note_on,30,0,1,,,,,,,,,0,,,73,0
107730,note_on,0,0,1,,,,,,,,,0,,,79,88
107760,note_on,120,0,3,,,,,,,,,2,,,64,0
107760,note_on,0,0,3,,,,,,,,,2,,,61,101
107760,note_on,30,0,1,,,,,,,,,0,,,79,0
107760,note_on,0,0,1,,,,,,,,,0,,,67,88
107790,note_on,30,0,1,,,,,,,,,0,,,67,0
107790,note_on,0,0,1,,,,,,,,,0,,,79,88
107820,note_on,60,0,3,,,,,,,,,2,,,61,0
107820,control_change,0,0,3,,,,,,,,,2,64,0,,
107820,note_on,0,0,3,,,,,,,,,2,,,57,101
107820,note_on,30,0,1,,,,,,,,,0,,,79,0
107820,note_on,0,0,1,,,,,,,,,0,,,73,88
107850,note_on,30,0,1,,,,,,,,,0,,,73,0
107850,note_on,0,0,1,,,,,,,,,0,,,79,88
107880,note_on,30,0,1,,,,,,,,,0,,,79,0
107880,note_on,0,0,1,,,,,,,,,0,,,67,88
107880,note_on,60,0,3,,,,,,,,,2,,,57,0
107880,note_on,11280,0,2,,,,,,,,,1,,,69,101
107892,note_on,12,0,2,,,,,,,,,1,,,69,0
107910,note_on,30,0,1,,,,,,,,,0,,,67,0
107910,note_on,0,0,1,,,,,,,,,0,,,79,88
107940,note_on,30,0,1,,,,,,,,,0,,,79,0
107940,note_on,0,0,1,,,,,,,,,0,,,73,88
107970,note_on,0,0,1,,,,,,,,,0,,,79,88
107970,note_on,30,0,1,,,,,,,,,0,,,73,0
108000,note_on,108,0,2,,,,,,,,,1,,,69,101
108000,note_on,0,0,1,,,,,,,,,0,,,67,88
108000,note_on,30,0,1,,,,,,,,,0,,,79,0
108012,note_on,12,0,2,,,,,,,,,1,,,69,0
108030,note_on,0,0,1,,,,,,,,,0,,,79,88
108030,note_on,30,0,1,,,,,,,,,0,,,67,0
108060,note_on,0,0,1,,,,,,,,,0,,,73,88
108060,note_on,30,0,1,,,,,,,,,0,,,79,0
108090,note_on,0,0,1,,,,,,,,,0,,,79,88
108090,control_change,0,0,1,,,,,,,,,0,64,0,,
108090,note_on,30,0,1,,,,,,,,,0,,,73,0
108120,note_on,0,0,1,,,,,,,,,0,,,67,88
108120,control_change,0,0,1,,,,,,,,,0,64,127,,
108120,control_change,0,0,1,,,,,,,,,0,64,127,,
108120,note_on,30,0,1,,,,,,,,,0,,,79,0
108120,control_change,240,0,3,,,,,,,,,2,64,127,,
108120,control_change,0,0,3,,,,,,,,,2,64,127,,
108120,note_on,0,0,3,,,,,,,,,2,,,33,114
108150,note_on,0,0,1,,,,,,,,,0,,,79,88
108150,note_on,30,0,1,,,,,,,,,0,,,67,0
108180,note_on,30,0,1,,,,,,,,,0,,,79,0
108180,note_on,0,0,1,,,,,,,,,0,,,73,88
108210,note_on,30,0,1,,,,,,,,,0,,,73,0
108210,note_on,0,0,1,,,,,,,,,0,,,79,88
108240,note_on,0,0,1,,,,,,,,,0,,,67,88
108240,note_on,30,0,1,,,,,,,,,0,,,79,0
108270,note_on,0,0,1,,,,,,,,,0,,,79,88
108270,note_on,30,0,1,,,,,,,,,0,,,67,0
108300,note_on,30,0,1,,,,,,,,,0,,,79,0
108300,note_on,0,0,1,,,,,,,,,0,,,73,88
108330,note_on,0,0,1,,,,,,,,,0,,,79,88
108330,note_on,30,0,1,,,,,,,,,0,,,73,0
108360,note_on,30,0,1,,,,,,,,,0,,,79,0
108360,note_on,0,0,3,,,,,,,,,2,,,61,88
108360,note_on,240,0,3,,,,,,,,,2,,,33,0
108360,note_on,0,0,1,,,,,,,,,0,,,67,88
108390,note_on,30,0,1,,,,,,,,,0,,,67,0
108390,note_on,0,0,1,,,,,,,,,0,,,79,88
108420,note_on,0,0,1,,,,,,,,,0,,,73,88
108420,note_on,30,0,1,,,,,,,,,0,,,79,0
108450,note_on,0,0,1,,,,,,,,,0,,,79,88
108450,note_on,30,0,1,,,,,,,,,0,,,73,0
108480,note_on,120,0,3,,,,,,,,,2,,,61,0
108480,note_on,30,0,1,,,,,,,,,0,,,79,0
108480,note_on,0,0,1,,,,,,,,,0,,,67,88
108480,note_on,0,0,3,,,,,,,,,2,,,57,88
108510,note_on,30,0,1,,,,,,,,,0,,,67,0
108510,note_on,0,0,1,,,,,,,,,0,,,79,88
108540,note_on,30,0,1,,,,,,,,,0,,,79,0
108540,note_on,0,0,3,,,,,,,,,2,,,52,88
108540,note_on,0,0,1,,,,,,,,,0,,,73,88
108540,note_on,60,0,3,,,,,,,,,2,,,57,0
108570,note_on,0,0,1,,,,,,,,,0,,,79,88
108570,note_on,30,0,1,,,,,,,,,0,,,73,0
108600,note_on,30,0,1,,,,,,,,,0,,,79,0
108600,note_on,0,0,3,,,,,,,,,2,,,64,88
108600,note_on,0,0,1,,,,,,,,,0,,,67,88
108600,note_on,60,0,3,,,,,,,,,2,,,52,0
108630,note_on,30,0,1,,,,,,,,,0,,,67,0
108630,note_on,0,0,1,,,,,,,,,0,,,79,88
108660,note_on,30,0,1,,,,,,,,,0,,,79,0
108660,note_on,0,0,1,,,,,,,,,0,,,73,88
108690,note_on,0,0,1,,,,,,,,,0,,,79,88
108690,note_on,30,0,1,,,,,,,,,0,,,73,0
108720,note_on,0,0,1,,,,,,,,,0,,,67,88
108720,note_on,120,0,3,,,,,,,,,2,,,64,0
108720,note_on,30,0,1,,,,,,,,,0,,,79,0
108720,note_on,0,0,3,,,,,,,,,2,,,61,88
108750,note_on,30,0,1,,,,,,,,,0,,,67,0
108750,note_on,0,0,1,,,,,,,,,0,,,79,88
108780,note_on,60,0,3,,,,,,,,,2,,,61,0
108780,control_change,0,0,3,,,,,,,,,2,64,0,,
108780,note_on,0,0,3,,,,,,,,,2,,,57,88
108780,note_on,30,0,1,,,,,,,,,0,,,79,0
108780,note_on,0,0,1,,,,,,,,,0,,,73,88
108810,note_on,0,0,1,,,,,,,,,0,,,79,88
108810,note_on,30,0,1,,,,,,,,,0,,,73,0
108840,control_change,828,0,2,,,,,,,,,1,64,127,,
108840,note_on,60,0,3,,,,,,,,,2,,,57,0
108840,note_on,30,0,1,,,,,,,,,0,,,79,0
108840,note_on,0,0,1,,,,,,,,,0,,,67,88
108840,note_on,0,0,2,,,,,,,,,1,,,69,101
108852,note_on,12,0,2,,,,,,,,,1,,,69,0
108870,note_on,30,0,1,,,,,,,,,0,,,67,0
108870,note_on,0,0,1,,,,,,,,,0,,,79,88
108900,note_on,30,0,1,,,,,,,,,0,,,79,0
108900,note_on,0,0,1,,,,,,,,,0,,,73,88
108930,note_on,0,0,1,,,,,,,,,0,,,79,88
108930,note_on,30,0,1,,,,,,,,,0,,,73,0
108960,note_on,30,0,1,,,,,,,,,0,,,79,0
108960,note_on,0,0,1,,,,,,,,,0,,,67,88
108960,control_change,108,0,2,,,,,,,,,1,64,0,,
108960,note_on,0,0,2,,,,,,,,,1,,,69,101
108972,note_on,12,0,2,,,,,,,,,1,,,69,0
108990,note_on,0,0,1,,,,,,,,,0,,,79,88
108990,note_on,30,0,1,,,,,,,,,0,,,67,0
109020,note_on,0,0,1,,,,,,,,,0,,,73,88
109020,note_on,30,0,1,,,,,,,,,0,,,79,0
109050,note_on,0,0,1,,,,,,,,,0,,,79,88
109050,control_change,0,0,1,,,,,,,,,0,64,0,,
109050,note_on,30,0,1,,,,,,,,,0,,,73,0
109080,note_on,240,0,3,,,,,,,,,2,,,34,114
109080,note_on,0,0,1,,,,,,,,,0,,,67,88
109080,control_change,0,0,1,,,,,,,,,0,64,127,,
109080,note_on,30,0,1,,,,,,,,,0,,,79,0
109110,note_on,0,0,1,,,,,,,,,0,,,79,88
109110,note_on,30,0,1,,,,,,,,,0,,,67,0
109140,note_on,0,0,1,,,,,,,,,0,,,73,88
109140,note_on,0,0,1,,,,,,,,,0,,,76,88
109140,note_on,30,0,1,,,,,,,,,0,,,79,0
109170,note_on,30,0,1,,,,,,,,,0,,,76,0
109170,note_on,0,0,1,,,,,,,,,0,,,73,0
109170,note_on,0,0,1,,,,,,,,,0,,,79,88
109200,note_on,30,0,1,,,,,,,,,0,,,79,0
109200,note_on,0,0,1,,,,,,,,,0,,,67,88
109230,note_on,0,0,1,,,,,,,,,0,,,79,88
109230,note_on,30,0,1,,,,,,,,,0,,,67,0
109260,note_on,0,0,1,,,,,,,,,0,,,76,88
109260,note_on,30,0,1,,,,,,,,,0,,,79,0
109260,note_on,0,0,1,,,,,,,,,0,,,73,88
109290,note_on,0,0,1,,,,,,,,,0,,,79,88
109290,note_on,0,0,1,,,,,,,,,0,,,73,0
109290,note_on,30,0,1,,,,,,,,,0,,,76,0
109320,note_on,240,0,3,,,,,,,,,2,,,34,0
109320,note_on,0,0,1,,,,,,,,,0,,,67,88
109320,note_on,30,0,1,,,,,,,,,0,,,79,0
109320,note_on,0,0,2,,,,,,,,,1,,,70,101
109320,control_change,348,0,2,,,,,,,,,1,64,127,,
109332,note_on,12,0,2,,,,,,,,,1,,,70,0
109350,note_on,0,0,1,,,,,,,,,0,,,79,88
109350,note_on,30,0,1,,,,,,,,,0,,,67,0
109380,note_on,0,0,1,,,,,,,,,0,,,73,88
109380,note_on,30,0,1,,,,,,,,,0,,,79,0
109380,note_on,0,0,1,,,,,,,,,0,,,76,88
109410,note_on,30,0,1,,,,,,,,,0,,,76,0
109410,note_on,0,0,1,,,,,,,,,0,,,73,0
109410,note_on,0,0,1,,,,,,,,,0,,,79,88
109440,control_change,108,0,2,,,,,,,,,1,64,0,,
109440,note_on,0,0,2,,,,,,,,,1,,,70,101
109440,note_on,30,0,1,,,,,,,,,0,,,79,0
109440,note_on,0,0,1,,,,,,,,,0,,,67,88
109452,note_on,12,0,2,,,,,,,,,1,,,70,0
109470,note_on,30,0,1,,,,,,,,,0,,,67,0
109470,note_on,0,0,1,,,,,,,,,0,,,79,88
109500,note_on,0,0,1,,,,,,,,,0,,,73,88
109500,note_on,0,0,1,,,,,,,,,0,,,76,88
109500,note_on,30,0,1,,,,,,,,,0,,,79,0
109530,control_change,0,0,1,,,,,,,,,0,64,0,,
109530,note_on,0,0,1,,,,,,,,,0,,,79,88
109530,note_on,30,0,1,,,,,,,,,0,,,76,0
109530,note_on,0,0,1,,,,,,,,,0,,,73,0
109560,note_on,240,0,3,,,,,,,,,2,,,35,114
109560,note_on,30,0,1,,,,,,,,,0,,,79,0
109560,control_change,0,0,1,,,,,,,,,0,64,127,,
109560,note_on,0,0,1,,,,,,,,,0,,,67,88
109590,note_on,0,0,1,,,,,,,,,0,,,79,88
109590,note_on,30,0,1,,,,,,,,,0,,,67,0
109620,note_on,30,0,1,,,,,,,,,0,,,79,0
109620,note_on,0,0,1,,,,,,,,,0,,,76,88
109650,note_on,0,0,1,,,,,,,,,0,,,79,88
109650,note_on,30,0,1,,,,,,,,,0,,,76,0
109680,note_on,30,0,1,,,,,,,,,0,,,79,0
109680,note_on,0,0,1,,,,,,,,,0,,,67,88
109710,note_on,0,0,1,,,,,,,,,0,,,79,88
109710,note_on,30,0,1,,,,,,,,,0,,,67,0
109740,note_on,0,0,1,,,,,,,,,0,,,76,88
109740,note_on,30,0,1,,,,,,,,,0,,,79,0
109770,note_on,0,0,1,,,,,,,,,0,,,79,88
109770,note_on,30,0,1,,,,,,,,,0,,,76,0
109800,note_on,30,0,1,,,,,,,,,0,,,79,0
109800,note_on,0,0,1,,,,,,,,,0,,,67,88
109800,note_on,0,0,2,,,,,,,,,1,,,71,101
109800,note_on,240,0,3,,,,,,,,,2,,,35,0
109800,control_change,348,0,2,,,,,,,,,1,64,127,,
109812,note_on,12,0,2,,,,,,,,,1,,,71,0
109830,note_on,0,0,1,,,,,,,,,0,,,79,88
109830,note_on,30,0,1,,,,,,,,,0,,,67,0
109860,note_on,30,0,1,,,,,,,,,0,,,79,0
109860,note_on,0,0,1,,,,,,,,,0,,,76,88
109890,note_on,0,0,1,,,,,,,,,0,,,79,88
109890,note_on,30,0,1,,,,,,,,,0,,,76,0
109920,control_change,108,0,2,,,,,,,,,1,64,0,,
109920,note_on,0,0,2,,,,,,,,,1,,,71,101
109920,note_on,30,0,1,,,,,,,,,0,,,79,0
109920,note_on,0,0,1,,,,,,,,,0,,,67,88
109932,note_on,12,0,2,,,,,,,,,1,,,71,0
109950,note_on,30,0,1,,,,,,,,,0,,,67,0
109950,note_on,0,0,1,,,,,,,,,0,,,79,88
109980,note_on,30,0,1,,,,,,,,,0,,,79,0
109980,note_on,0,0,1,,,,,,,,,0,,,76,88
110010,note_on,30,0,1,,,,,,,,,0,,,76,0
110010,control_change,0,0,1,,,,,,,,,0,64,0,,
110010,note_on,0,0,1,,,,,,,,,0,,,79,88
110040,note_on,0,0,1,,,,,,,,,0,,,70,88
110040,note_on,30,0,1,,,,,,,,,0,,,79,0
110040,note_on,240,0,3,,,,,,,,,2,,,36,114
110070,note_on,0,0,1,,,,,,,,,0,,,79,88
110070,note_on,30,0,1,,,,,,,,,0,,,70,0
110100,note_on,30,0,1,,,,,,,,,0,,,79,0
110100,note_on,0,0,1,,,,,,,,,0,,,76,88
110130,note_on,30,0,1,,,,,,,,,0,,,76,0
110130,note_on,0,0,1,,,,,,,,,0,,,79,88
110160,note_on,30,0,1,,,,,,,,,0,,,79,0
110160,note_on,0,0,1,,,,,,,,,0,,,70,88
110190,note_on,30,0,1,,,,,,,,,0,,,70,0
110190,note_on,0,0,1,,,,,,,,,0,,,79,88
110220,note_on,30,0,1,,,,,,,,,0,,,79,0
110220,note_on,0,0,1,,,,,,,,,0,,,76,88
110250,note_on,30,0,1,,,,,,,,,0,,,76,0
110250,note_on,0,0,1,,,,,,,,,0,,,79,88
110280,note_on,30,0,1,,,,,,,,,0,,,79,0
110280,note_on,0,0,1,,,,,,,,,0,,,70,88
110280,note_on,240,0,3,,,,,,,,,2,,,36,0
110280,note_on,348,0,2,,,,,,,,,1,,,72,101
110292,note_on,12,0,2,,,,,,,,,1,,,72,0
110310,note_on,0,0,1,,,,,,,,,0,,,79,88
110310,note_on,30,0,1,,,,,,,,,0,,,70,0
110340,note_on,30,0,1,,,,,,,,,0,,,79,0
110340,note_on,0,0,1,,,,,,,,,0,,,76,88
110370,note_on,30,0,1,,,,,,,,,0,,,76,0
110370,note_on,0,0,1,,,,,,,,,0,,,79,88
110400,note_on,108,0,2,,,,,,,,,1,,,72,101
110400,note_on,30,0,1,,,,,,,,,0,,,79,0
110400,note_on,0,0,1,,,,,,,,,0,,,70,88
110412,note_on,12,0,2,,,,,,,,,1,,,72,0
110430,note_on,0,0,1,,,,,,,,,0,,,79,88
110430,note_on,30,0,1,,,,,,,,,0,,,70,0
110460,note_on,30,0,1,,,,,,,,,0,,,79,0
110460,note_on,0,0,1,,,,,,,,,0,,,76,88
110490,note_on,30,0,1,,,,,,,,,0,,,76,0
110490,note_on,0,0,1,,,,,,,,,0,,,79,88
110520,note_on,30,0,1,,,,,,,,,0,,,79,0
110520,note_on,0,0,1,,,,,,,,,0,,,70,88
110550,note_on,30,0,1,,,,,,,,,0,,,70,0
110550,note_on,0,0,1,,,,,,,,,0,,,79,88
110580,note_on,30,0,1,,,,,,,,,0,,,79,0
110580,note_on,0,0,1,,,,,,,,,0,,,76,88
110610,note_on,30,0,1,,,,,,,,,0,,,76,0
110610,note_on,0,0,1,,,,,,,,,0,,,79,88
110640,note_on,30,0,1,,,,,,,,,0,,,79,0
110640,note_on,0,0,1,,,,,,,,,0,,,70,75
110670,note_on,30,0,1,,,,,,,,,0,,,70,0
110670,note_on,0,0,1,,,,,,,,,0,,,79,75
110700,note_on,30,0,1,,,,,,,,,0,,,79,0
110700,note_on,0,0,1,,,,,,,,,0,,,76,75
110730,note_on,30,0,1,,,,,,,,,0,,,76,0
110730,note_on,0,0,1,,,,,,,,,0,,,79,75
110760,note_on,30,0,1,,,,,,,,,0,,,79,0
110760,note_on,0,0,1,,,,,,,,,0,,,70,62
110790,note_on,30,0,1,,,,,,,,,0,,,70,0
110790,note_on,0,0,1,,,,,,,,,0,,,79,62
110820,note_on,0,0,1,,,,,,,,,0,,,76,62
110820,note_on,30,0,1,,,,,,,,,0,,,79,0
110850,note_on,30,0,1,,,,,,,,,0,,,76,0
110850,note_on,0,0,1,,,,,,,,,0,,,79,62
110880,note_on,30,0,1,,,,,,,,,0,,,79,0
110880,note_on,0,0,1,,,,,,,,,0,,,70,62
110910,note_on,0,0,1,,,,,,,,,0,,,79,62
110910,note_on,30,0,1,,,,,,,,,0,,,70,0
110940,note_on,30,0,1,,,,,,,,,0,,,79,0
110940,note_on,0,0,1,,,,,,,,,0,,,76,62
110970,note_on,0,0,1,,,,,,,,,0,,,79,62
110970,note_on,30,0,1,,,,,,,,,0,,,76,0
111000,note_on,0,0,1,,,,,,,,,0,,,70,49
111000,control_change,0,0,1,,,,,,,,,0,64,127,,
111000,note_on,720,0,3,,,,,,,,,2,,,37,75
111000,note_on,30,0,1,,,,,,,,,0,,,79,0
111039,note_on,39,0,1,,,,,,,,,0,,,79,49
111040,note_on,1,0,1,,,,,,,,,0,,,70,0
111079,note_on,39,0,1,,,,,,,,,0,,,79,0
111080,note_on,1,0,1,,,,,,,,,0,,,76,49
111120,note_on,0,0,1,,,,,,,,,0,,,70,49
111120,note_on,40,0,1,,,,,,,,,0,,,76,0
111159,note_on,39,0,1,,,,,,,,,0,,,79,49
111160,note_on,1,0,1,,,,,,,,,0,,,70,0
111199,note_on,39,0,1,,,,,,,,,0,,,79,0
111200,note_on,1,0,1,,,,,,,,,0,,,76,49
111240,note_on,240,0,3,,,,,,,,,2,,,37,0
111240,control_change,828,0,2,,,,,,,,,1,64,127,,
111240,note_on,40,0,1,,,,,,,,,0,,,76,0
111240,note_on,0,0,1,,,,,,,,,0,,,70,49
111240,note_on,0,0,2,,,,,,,,,1,,,73,49
111252,note_on,12,0,2,,,,,,,,,1,,,73,0
111279,note_on,39,0,1,,,,,,,,,0,,,79,49
111280,note_on,1,0,1,,,,,,,,,0,,,70,0
111319,note_on,39,0,1,,,,,,,,,0,,,79,0
111320,note_on,1,0,1,,,,,,,,,0,,,76,49
111360,note_on,0,0,1,,,,,,,,,0,,,70,49
111360,control_change,108,0,2,,,,,,,,,1,64,0,,
111360,note_on,0,0,2,,,,,,,,,1,,,73,49
111360,note_on,40,0,1,,,,,,,,,0,,,76,0
111372,note_on,12,0,2,,,,,,,,,1,,,73,0
111399,note_on,39,0,1,,,,,,,,,0,,,79,49
111400,note_on,1,0,1,,,,,,,,,0,,,70,0
111439,note_on,39,0,1,,,,,,,,,0,,,79,0
111440,control_change,1,0,1,,,,,,,,,0,64,0,,
111440,note_on,0,0,1,,,,,,,,,0,,,76,49
111480,note_on,40,0,1,,,,,,,,,0,,,76,0
111480,note_on,0,0,1,,,,,,,,,0,,,70,49
111519,note_on,39,0,1,,,,,,,,,0,,,79,49
111520,note_on,1,0,1,,,,,,,,,0,,,70,0
111559,note_on,39,0,1,,,,,,,,,0,,,79,0
111560,note_on,1,0,1,,,,,,,,,0,,,76,49
111600,note_on,0,0,1,,,,,,,,,0,,,70,49
111600,note_on,40,0,1,,,,,,,,,0,,,76,0
111639,note_on,39,0,1,,,,,,,,,0,,,79,49
111640,note_on,1,0,1,,,,,,,,,0,,,70,0
111679,note_on,39,0,1,,,,,,,,,0,,,79,0
111680,note_on,1,0,1,,,,,,,,,0,,,76,49
111720,note_on,40,0,1,,,,,,,,,0,,,76,0
111720,note_on,0,0,1,,,,,,,,,0,,,70,49
111759,note_on,39,0,1,,,,,,,,,0,,,79,49
111760,note_on,1,0,1,,,,,,,,,0,,,70,0
111799,note_on,39,0,1,,,,,,,,,0,,,79,0
111800,note_on,1,0,1,,,,,,,,,0,,,76,49
111840,note_on,0,0,1,,,,,,,,,0,,,70,49
111840,note_on,40,0,1,,,,,,,,,0,,,76,0
111879,note_on,39,0,1,,,,,,,,,0,,,79,49
111880,note_on,1,0,1,,,,,,,,,0,,,70,0
111919,note_on,39,0,1,,,,,,,,,0,,,79,0
111920,note_on,1,0,1,,,,,,,,,0,,,76,49
111960,control_change,720,0,3,,,,,,,,,2,64,127,,
111960,note_on,0,0,3,,,,,,,,,2,,,49,49
111960,control_change,0,0,1,,,,,,,,,0,64,127,,
111960,note_on,40,0,1,,,,,,,,,0,,,76,0
111960,note_on,0,0,1,,,,,,,,,0,,,71,49
111972,note_on,12,0,3,,,,,,,,,2,,,49,0
112020,note_on,60,0,1,,,,,,,,,0,,,71,0
112020,note_on,0,0,1,,,,,,,,,0,,,77,49
112020,note_on,0,0,1,,,,,,,,,0,,,80,49
112080,note_on,0,0,3,,,,,,,,,2,,,49,49
112080,control_change,108,0,3,,,,,,,,,2,64,0,,
112080,note_on,60,0,1,,,,,,,,,0,,,80,0
112080,note_on,0,0,1,,,,,,,,,0,,,77,0
112080,note_on,0,0,1,,,,,,,,,0,,,71,49
112092,note_on,12,0,3,,,,,,,,,2,,,49,0
112140,note_on,0,0,1,,,,,,,,,0,,,80,49
112140,note_on,0,0,1,,,,,,,,,0,,,77,49
112140,note_on,60,0,1,,,,,,,,,0,,,71,0
112200,note_on,0,0,1,,,,,,,,,0,,,71,49
112200,note_on,0,0,1,,,,,,,,,0,,,77,0
112200,note_on,60,0,1,,,,,,,,,0,,,80,0
112260,note_on,0,0,1,,,,,,,,,0,,,80,49
112260,note_on,0,0,1,,,,,,,,,0,,,77,49
112260,note_on,60,0,1,,,,,,,,,0,,,71,0
112320,note_on,0,0,1,,,,,,,,,0,,,71,49
112320,note_on,0,0,1,,,,,,,,,0,,,77,0
112320,note_on,60,0,1,,,,,,,,,0,,,80,0
112380,note_on,0,0,1,,,,,,,,,0,,,80,49
112380,note_on,60,0,1,,,,,,,,,0,,,71,0
112380,control_change,0,0,1,,,,,,,,,0,64,0,,
112380,note_on,0,0,1,,,,,,,,,0,,,77,49
112440,note_on,60,0,1,,,,,,,,,0,,,80,0
112440,note_on,0,0,1,,,,,,,,,0,,,77,0
112800,note_on,360,0,1,,,,,,,,,0,,,69,49
112890,note_on,90,0,1,,,,,,,,,0,,,68,49
112905,note_on,15,0,1,,,,,,,,,0,,,68,0
112905,note_on,0,0,1,,,,,,,,,0,,,69,49
112920,note_on,0,0,1,,,,,,,,,0,,,69,0
112920,note_on,15,0,1,,,,,,,,,0,,,69,0
112920,note_on,0,0,1,,,,,,,,,0,,,68,49
113040,note_on,0,0,1,,,,,,,,,0,,,66,49
113040,note_on,120,0,1,,,,,,,,,0,,,68,0
113160,note_on,0,0,1,,,,,,,,,0,,,73,75
113160,note_on,120,0,1,,,,,,,,,0,,,66,0
113280,control_change,1188,0,3,,,,,,,,,2,64,127,,
113280,note_on,0,0,3,,,,,,,,,2,,,45,36
113340,note_on,0,0,1,,,,,,,,,0,,,69,49
113340,control_change,0,0,1,,,,,,,,,0,64,127,,
113340,note_on,180,0,1,,,,,,,,,0,,,73,0
113370,note_on,0,0,1,,,,,,,,,0,,,66,49
113370,note_on,30,0,1,,,,,,,,,0,,,69,0
113370,note_on,90,0,3,,,,,,,,,2,,,44,36
113385,note_on,15,0,3,,,,,,,,,2,,,44,0
113385,note_on,0,0,3,,,,,,,,,2,,,45,36
113400,note_on,0,0,3,,,,,,,,,2,,,44,36
113400,note_on,0,0,1,,,,,,,,,0,,,61,49
113400,note_on,30,0,1,,,,,,,,,0,,,66,0
113400,note_on,0,0,3,,,,,,,,,2,,,45,0
113400,note_on,15,0,3,,,,,,,,,2,,,45,0
113520,note_on,0,0,3,,,,,,,,,2,,,42,36
113520,note_on,120,0,3,,,,,,,,,2,,,44,0
113640,note_on,0,0,3,,,,,,,,,2,,,49,62
113640,control_change,0,0,3,,,,,,,,,2,64,0,,
113640,note_on,120,0,3,,,,,,,,,2,,,42,0
113760,note_on,0,0,1,,,,,,,,,0,,,66,49
113760,note_on,360,0,1,,,,,,,,,0,,,61,0
113760,control_change,0,0,1,,,,,,,,,0,64,0,,
113820,note_on,180,0,3,,,,,,,,,2,,,49,0
113820,note_on,0,0,3,,,,,,,,,2,,,45,36
113850,note_on,30,0,3,,,,,,,,,2,,,45,0
113850,note_on,0,0,3,,,,,,,,,2,,,42,36
113880,note_on,0,0,3,,,,,,,,,2,,,38,36
113880,note_on,120,0,1,,,,,,,,,0,,,66,0
113880,note_on,0,0,1,,,,,,,,,0,,,65,49
113880,note_on,30,0,3,,,,,,,,,2,,,42,0
114000,note_on,120,0,1,,,,,,,,,0,,,65,0
114000,note_on,0,0,1,,,,,,,,,0,,,66,49
114120,note_on,120,0,1,,,,,,,,,0,,,66,0
114120,note_on,0,0,1,,,,,,,,,0,,,68,49
114240,note_on,0,0,1,,,,,,,,,0,,,66,49
114240,note_on,120,0,1,,,,,,,,,0,,,68,0
114240,note_on,0,0,1,,,,,,,,,0,,,60,49
114240,note_on,0,0,3,,,,,,,,,2,,,38,36
114240,note_on,0,0,1,,,,,,,,,0,,,69,49
114240,note_on,360,0,3,,,,,,,,,2,,,38,0
114360,note_on,120,0,1,,,,,,,,,0,,,69,0
114360,note_on,0,0,2,,,,,,,,,1,,,69,49
114360,note_on,0,0,1,,,,,,,,,0,,,66,0
114360,note_on,0,0,1,,,,,,,,,0,,,60,0
114360,note_on,0,0,1,,,,,,,,,0,,,61,49
114360,note_on,2988,0,2,,,,,,,,,1,,,66,49
114360,note_on,120,0,3,,,,,,,,,2,,,38,0
114360,note_on,0,0,3,,,,,,,,,2,,,37,36
114480,note_on,0,0,1,,,,,,,,,0,,,60,49
114480,note_on,120,0,1,,,,,,,,,0,,,61,0
114480,note_on,120,0,3,,,,,,,,,2,,,37,0
114480,note_on,0,0,3,,,,,,,,,2,,,39,36
114600,note_on,0,0,1,,,,,,,,,0,,,64,49
114600,note_on,240,0,2,,,,,,,,,1,,,69,0
114600,note_on,0,0,2,,,,,,,,,1,,,66,0
114600,note_on,0,0,3,,,,,,,,,2,,,40,36
114600,note_on,120,0,3,,,,,,,,,2,,,39,0
114600,note_on,0,0,2,,,,,,,,,1,,,59,49
114600,note_on,120,0,1,,,,,,,,,0,,,60,0
114720,note_on,120,0,3,,,,,,,,,2,,,40,0
114720,note_on,0,0,3,,,,,,,,,2,,,41,36
114720,note_on,0,0,1,,,,,,,,,0,,,69,49
114720,note_on,0,0,1,,,,,,,,,0,,,63,49
114720,note_on,120,0,1,,,,,,,,,0,,,64,0
114840,note_on,120,0,3,,,,,,,,,2,,,41,0
114840,note_on,0,0,3,,,,,,,,,2,,,41,36
114840,note_on,0,0,1,,,,,,,,,0,,,59,49
114840,note_on,240,0,2,,,,,,,,,1,,,59,0
114840,note_on,0,0,1,,,,,,,,,0,,,63,49
114840,note_on,0,0,1,,,,,,,,,0,,,69,49
114840,note_on,120,0,1,,,,,,,,,0,,,69,0
114840,note_on,0,0,1,,,,,,,,,0,,,63,0
115080,note_on,0,0,3,,,,,,,,,2,,,40,36
115080,note_on,240,0,3,,,,,,,,,2,,,41,0
115080,note_on,0,0,1,,,,,,,,,0,,,68,49
115080,note_on,0,0,1,,,,,,,,,0,,,64,49
115080,note_on,0,0,1,,,,,,,,,0,,,63,0
115080,note_on,240,0,1,,,,,,,,,0,,,69,0
115200,note_on,0,0,1,,,,,,,,,0,,,59,0
115200,note_on,120,0,1,,,,,,,,,0,,,68,0
115200,note_on,120,0,3,,,,,,,,,2,,,40,0
115200,note_on,0,0,1,,,,,,,,,0,,,64,0
115680,note_on,480,0,1,,,,,,,,,0,,,72,49
115770,note_on,90,0,1,,,,,,,,,0,,,71,49
115785,note_on,15,0,1,,,,,,,,,0,,,71,0
115785,note_on,0,0,1,,,,,,,,,0,,,72,49
115800,note_on,15,0,1,,,,,,,,,0,,,72,0
115800,note_on,0,0,1,,,,,,,,,0,,,72,0
115800,note_on,0,0,1,,,,,,,,,0,,,71,49
115920,note_on,120,0,1,,,,,,,,,0,,,71,0
115920,note_on,0,0,1,,,,,,,,,0,,,69,49
116040,note_on,120,0,1,,,,,,,,,0,,,69,0
116040,note_on,0,0,1,,,,,,,,,0,,,76,75
116160,control_change,960,0,3,,,,,,,,,2,64,127,,
116160,note_on,0,0,3,,,,,,,,,2,,,48,36
116220,control_change,0,0,1,,,,,,,,,0,64,127,,
116220,note_on,0,0,1,,,,,,,,,0,,,72,49
116220,note_on,180,0,1,,,,,,,,,0,,,76,0
116250,note_on,0,0,1,,,,,,,,,0,,,69,49
116250,note_on,90,0,3,,,,,,,,,2,,,47,36
116250,note_on,30,0,1,,,,,,,,,0,,,72,0
116265,note_on,15,0,3,,,,,,,,,2,,,47,0
116265,note_on,0,0,3,,,,,,,,,2,,,48,36
116280,note_on,0,0,3,,,,,,,,,2,,,47,36
116280,note_on,0,0,3,,,,,,,,,2,,,48,0
116280,note_on,30,0,1,,,,,,,,,0,,,69,0
116280,note_on,0,0,1,,,,,,,,,0,,,64,49
116280,note_on,15,0,3,,,,,,,,,2,,,48,0
116400,note_on,120,0,3,,,,,,,,,2,,,47,0
116400,note_on,0,0,3,,,,,,,,,2,,,45,36
116520,note_on,120,0,3,,,,,,,,,2,,,45,0
116520,control_change,0,0,3,,,,,,,,,2,64,0,,
116520,note_on,0,0,3,,,,,,,,,2,,,52,62
116640,note_on,0,0,1,,,,,,,,,0,,,69,49
116640,control_change,0,0,1,,,,,,,,,0,64,0,,
116640,note_on,360,0,1,,,,,,,,,0,,,64,0
116700,note_on,180,0,3,,,,,,,,,2,,,52,0
116700,note_on,0,0,3,,,,,,,,,2,,,48,36
116730,note_on,30,0,3,,,,,,,,,2,,,48,0
116730,note_on,0,0,3,,,,,,,,,2,,,45,36
116760,note_on,120,0,1,,,,,,,,,0,,,69,0
116760,note_on,30,0,3,,,,,,,,,2,,,45,0
116760,note_on,0,0,3,,,,,,,,,2,,,41,36
116760,note_on,0,0,1,,,,,,,,,0,,,68,49
116880,note_on,120,0,1,,,,,,,,,0,,,68,0
116880,note_on,0,0,1,,,,,,,,,0,,,69,49
117000,note_on,120,0,1,,,,,,,,,0,,,69,0
117000,note_on,0,0,1,,,,,,,,,0,,,71,49
117120,note_on,360,0,3,,,,,,,,,2,,,41,0
117120,note_on,0,0,1,,,,,,,,,0,,,72,49
117120,note_on,0,0,3,,,,,,,,,2,,,41,36
117120,note_on,0,0,1,,,,,,,,,0,,,63,49
117120,note_on,120,0,1,,,,,,,,,0,,,71,0
117120,note_on,0,0,1,,,,,,,,,0,,,69,49
117240,note_on,120,0,1,,,,,,,,,0,,,72,0
117240,note_on,0,0,1,,,,,,,,,0,,,69,0
117240,note_on,0,0,1,,,,,,,,,0,,,63,0
117240,note_on,0,0,1,,,,,,,,,0,,,64,49
117240,note_on,0,0,3,,,,,,,,,2,,,40,36
117240,note_on,120,0,3,,,,,,,,,2,,,41,0
117240,note_on,2400,0,2,,,,,,,,,1,,,69,49
117240,note_on,0,0,2,,,,,,,,,1,,,72,49
117360,note_on,0,0,1,,,,,,,,,0,,,63,49
117360,note_on,120,0,3,,,,,,,,,2,,,40,0
117360,note_on,0,0,3,,,,,,,,,2,,,42,36
117360,note_on,120,0,1,,,,,,,,,0,,,64,0
117480,note_on,120,0,3,,,,,,,,,2,,,42,0
117480,note_on,0,0,1,,,,,,,,,0,,,67,49
117480,note_on,0,0,2,,,,,,,,,1,,,69,0
117480,note_on,240,0,2,,,,,,,,,1,,,72,0
117480,note_on,0,0,3,,,,,,,,,2,,,43,36
117480,note_on,120,0,1,,,,,,,,,0,,,63,0
117480,note_on,0,0,2,,,,,,,,,1,,,62,49
117600,note_on,120,0,3,,,,,,,,,2,,,43,0
117600,note_on,0,0,3,,,,,,,,,2,,,44,36
117600,note_on,120,0,1,,,,,,,,,0,,,67,0
117600,note_on,0,0,1,,,,,,,,,0,,,66,49
117600,note_on,0,0,1,,,,,,,,,0,,,72,49
117720,note_on,120,0,3,,,,,,,,,2,,,44,0
117720,note_on,0,0,3,,,,,,,,,2,,,44,36
117720,note_on,0,0,1,,,,,,,,,0,,,65,49
117720,note_on,240,0,2,,,,,,,,,1,,,62,0
117720,note_on,0,0,1,,,,,,,,,0,,,62,49
117720,note_on,0,0,1,,,,,,,,,0,,,72,49
117720,note_on,120,0,1,,,,,,,,,0,,,72,0
117720,note_on,0,0,1,,,,,,,,,0,,,66,0
117960,note_on,240,0,1,,,,,,,,,0,,,72,0
117960,note_on,0,0,3,,,,,,,,,2,,,43,36
117960,note_on,0,0,1,,,,,,,,,0,,,65,0
117960,note_on,0,0,1,,,,,,,,,0,,,67,49
117960,note_on,0,0,1,,,,,,,,,0,,,71,49
117960,note_on,240,0,3,,,,,,,,,2,,,44,0
118080,note_on,0,0,1,,,,,,,,,0,,,77,49
118080,note_on,120,0,3,,,,,,,,,2,,,43,0
118080,note_on,120,0,1,,,,,,,,,0,,,71,0
118080,note_on,0,0,1,,,,,,,,,0,,,67,0
118080,note_on,0,0,1,,,,,,,,,0,,,62,0
118170,note_on,90,0,1,,,,,,,,,0,,,75,49
118185,note_on,0,0,1,,,,,,,,,0,,,77,49
118185,note_on,15,0,1,,,,,,,,,0,,,75,0
118200,note_on,0,0,1,,,,,,,,,0,,,75,49
118200,note_on,0,0,1,,,,,,,,,0,,,77,0
118200,note_on,15,0,1,,,,,,,,,0,,,77,0
118320,note_on,120,0,1,,,,,,,,,0,,,75,0
118320,note_on,0,0,1,,,,,,,,,0,,,74,49
118440,note_on,120,0,1,,,,,,,,,0,,,74,0
118440,note_on,0,0,1,,,,,,,,,0,,,80,49
118560,control_change,480,0,3,,,,,,,,,2,64,127,,
118560,note_on,0,0,3,,,,,,,,,2,,,62,36
118560,note_on,0,0,3,,,,,,,,,2,,,65,36
118620,note_on,0,0,1,,,,,,,,,0,,,77,49
118620,note_on,180,0,1,,,,,,,,,0,,,80,0
118650,note_on,0,0,1,,,,,,,,,0,,,74,49
118650,note_on,30,0,1,,,,,,,,,0,,,77,0
118680,note_on,120,0,3,,,,,,,,,2,,,65,0
118680,note_on,0,0,3,,,,,,,,,2,,,60,36
118680,note_on,0,0,3,,,,,,,,,2,,,63,36
118680,note_on,0,0,1,,,,,,,,,0,,,67,49
118680,note_on,30,0,1,,,,,,,,,0,,,74,0
118680,note_on,0,0,3,,,,,,,,,2,,,62,0
118800,note_on,120,0,3,,,,,,,,,2,,,63,0
118800,note_on,0,0,3,,,,,,,,,2,,,62,36
118800,note_on,0,0,3,,,,,,,,,2,,,60,0
118800,note_on,0,0,3,,,,,,,,,2,,,59,36
118920,note_on,120,0,3,,,,,,,,,2,,,62,0
118920,note_on,0,0,3,,,,,,,,,2,,,59,0
118920,control_change,0,0,3,,,,,,,,,2,64,0,,
118920,note_on,0,0,3,,,,,,,,,2,,,60,36
118920,note_on,0,0,3,,,,,,,,,2,,,63,36
118920,note_on,240,0,1,,,,,,,,,0,,,67,0
119040,note_on,120,0,1,,,,,,,,,0,,,77,49
119040,note_on,120,0,3,,,,,,,,,2,,,63,0
119040,note_on,0,0,3,,,,,,,,,2,,,60,0
119040,note_on,0,0,3,,,,,,,,,2,,,62,36
119040,note_on,0,0,3,,,,,,,,,2,,,65,36
119100,note_on,0,0,3,,,,,,,,,2,,,62,0
119100,note_on,0,0,3,,,,,,,,,2,,,63,36
119100,note_on,0,0,3,,,,,,,,,2,,,67,36
119100,note_on,60,0,3,,,,,,,,,2,,,65,0
119130,note_on,90,0,1,,,,,,,,,0,,,75,49
119145,note_on,15,0,1,,,,,,,,,0,,,75,0
119145,note_on,0,0,1,,,,,,,,,0,,,77,49
119160,note_on,0,0,3,,,,,,,,,2,,,68,88
119160,note_on,60,0,3,,,,,,,,,2,,,67,0
119160,note_on,0,0,3,,,,,,,,,2,,,63,0
119160,control_change,0,0,3,,,,,,,,,2,64,127,,
119160,note_on,0,0,3,,,,,,,,,2,,,55,88
119160,note_on,0,0,3,,,,,,,,,2,,,65,88
119160,control_change,0,0,1,,,,,,,,,0,64,127,,
119160,note_on,1440,0,2,,,,,,,,,1,,,71,49
119160,note_on,0,0,1,,,,,,,,,0,,,75,49
119160,note_on,0,0,1,,,,,,,,,0,,,77,0
119160,note_on,15,0,1,,,,,,,,,0,,,77,0
119280,note_on,0,0,1,,,,,,,,,0,,,74,49
119280,note_on,120,0,1,,,,,,,,,0,,,75,0
119400,note_on,0,0,1,,,,,,,,,0,,,80,49
119400,note_on,120,0,1,,,,,,,,,0,,,74,0
119520,note_on,360,0,2,,,,,,,,,1,,,71,0
119520,note_on,0,0,3,,,,,,,,,2,,,65,0
119520,note_on,360,0,3,,,,,,,,,2,,,68,0
119520,note_on,0,0,3,,,,,,,,,2,,,55,0
119520,note_on,0,0,3,,,,,,,,,2,,,62,62
119520,note_on,0,0,3,,,,,,,,,2,,,65,62
119580,note_on,180,0,1,,,,,,,,,0,,,80,0
119580,note_on,0,0,1,,,,,,,,,0,,,77,49
119610,note_on,0,0,1,,,,,,,,,0,,,74,49
119610,note_on,30,0,1,,,,,,,,,0,,,77,0
119640,note_on,30,0,1,,,,,,,,,0,,,74,0
119640,note_on,0,0,1,,,,,,,,,0,,,67,49
119640,control_change,0,0,1,,,,,,,,,0,64,0,,
119640,note_on,120,0,3,,,,,,,,,2,,,65,0
119640,note_on,0,0,3,,,,,,,,,2,,,62,0
119640,control_change,0,0,3,,,,,,,,,2,64,0,,
119640,note_on,0,0,3,,,,,,,,,2,,,60,62
119640,note_on,0,0,3,,,,,,,,,2,,,63,62
119760,note_on,120,0,3,,,,,,,,,2,,,63,0
119760,note_on,0,0,3,,,,,,,,,2,,,60,0
119760,note_on,0,0,3,,,,,,,,,2,,,59,62
119760,note_on,0,0,3,,,,,,,,,2,,,62,62
119880,note_on,240,0,1,,,,,,,,,0,,,67,0
119880,note_on,0,0,3,,,,,,,,,2,,,63,62
119880,note_on,0,0,3,,,,,,,,,2,,,60,62
119880,note_on,120,0,3,,,,,,,,,2,,,62,0
119880,note_on,0,0,3,,,,,,,,,2,,,59,0
120000,note_on,120,0,3,,,,,,,,,2,,,63,0
120000,note_on,0,0,3,,,,,,,,,2,,,60,0
120000,note_on,0,0,3,,,,,,,,,2,,,62,62
120000,note_on,0,0,3,,,,,,,,,2,,,65,62
120000,note_on,120,0,1,,,,,,,,,0,,,77,49
120060,note_on,0,0,3,,,,,,,,,2,,,67,62
120060,note_on,0,0,3,,,,,,,,,2,,,63,62
120060,note_on,60,0,3,,,,,,,,,2,,,65,0
120060,note_on,0,0,3,,,,,,,,,2,,,62,0
120090,note_on,90,0,1,,,,,,,,,0,,,75,49
120105,note_on,15,0,1,,,,,,,,,0,,,75,0
120105,note_on,0,0,1,,,,,,,,,0,,,77,49
120120,note_on,15,0,1,,,,,,,,,0,,,77,0
120120,note_on,0,0,1,,,,,,,,,0,,,77,0
120120,note_on,0,0,1,,,,,,,,,0,,,75,49
120120,control_change,0,0,1,,,,,,,,,0,64,127,,
120120,note_on,600,0,2,,,,,,,,,1,,,71,49
120120,note_on,0,0,3,,,,,,,,,2,,,68,88
120120,note_on,0,0,3,,,,,,,,,2,,,65,88
120120,note_on,0,0,3,,,,,,,,,2,,,55,88
120120,control_change,0,0,3,,,,,,,,,2,64,127,,
120120,note_on,0,0,3,,,,,,,,,2,,,63,0
120120,note_on,60,0,3,,,,,,,,,2,,,67,0
120240,note_on,120,0,1,,,,,,,,,0,,,75,0
120240,note_on,0,0,1,,,,,,,,,0,,,74,49
120360,note_on,0,0,1,,,,,,,,,0,,,80,49
120360,note_on,120,0,1,,,,,,,,,0,,,74,0
120480,note_on,0,0,3,,,,,,,,,2,,,55,62
120480,note_on,360,0,2,,,,,,,,,1,,,71,0
120480,note_on,360,0,3,,,,,,,,,2,,,68,0
120480,note_on,0,0,3,,,,,,,,,2,,,65,0
120480,note_on,0,0,3,,,,,,,,,2,,,55,0
120480,note_on,0,0,3,,,,,,,,,2,,,62,62
120480,note_on,0,0,3,,,,,,,,,2,,,65,62
120540,note_on,180,0,1,,,,,,,,,0,,,80,0
120540,note_on,0,0,1,,,,,,,,,0,,,77,49
120570,note_on,0,0,1,,,,,,,,,0,,,74,49
120570,note_on,30,0,1,,,,,,,,,0,,,77,0
120600,control_change,0,0,1,,,,,,,,,0,64,0,,
120600,note_on,0,0,1,,,,,,,,,0,,,83,75
120600,control_change,120,0,3,,,,,,,,,2,64,0,,
120600,note_on,30,0,1,,,,,,,,,0,,,74,0
120720,note_on,0,0,3,,,,,,,,,2,,,55,0
120720,note_on,120,0,3,,,,,,,,,2,,,65,0
120720,note_on,0,0,3,,,,,,,,,2,,,62,0
120720,note_on,0,0,3,,,,,,,,,2,,,62,62
120720,note_on,0,0,3,,,,,,,,,2,,,59,62
120720,note_on,0,0,3,,,,,,,,,2,,,55,62
120780,note_on,180,0,1,,,,,,,,,0,,,83,0
120780,note_on,0,0,1,,,,,,,,,0,,,80,49
120810,note_on,0,0,1,,,,,,,,,0,,,77,49
120810,note_on,30,0,1,,,,,,,,,0,,,80,0
120840,note_on,0,0,3,,,,,,,,,2,,,62,88
120840,note_on,0,0,1,,,,,,,,,0,,,86,75
120840,note_on,30,0,1,,,,,,,,,0,,,77,0
120840,note_on,0,0,3,,,,,,,,,2,,,56,80
120840,note_on,0,0,3,,,,,,,,,2,,,59,0
120840,note_on,360,0,2,,,,,,,,,1,,,78,49
120840,note_on,120,0,3,,,,,,,,,2,,,62,0
120840,note_on,0,0,3,,,,,,,,,2,,,55,0
121050,note_on,210,0,1,,,,,,,,,0,,,86,0
121050,note_on,0,0,1,,,,,,,,,0,,,84,49
121080,note_on,240,0,2,,,,,,,,,1,,,78,0
121080,note_on,30,0,1,,,,,,,,,0,,,84,0
121080,note_on,0,0,1,,,,,,,,,0,,,79,49
121080,note_on,0,0,1,,,,,,,,,0,,,83,49
121080,note_on,240,0,3,,,,,,,,,2,,,56,0
121080,note_on,0,0,3,,,,,,,,,2,,,55,62
121200,note_on,0,0,3,,,,,,,,,2,,,47,62
121200,note_on,0,0,3,,,,,,,,,2,,,43,62
121200,note_on,0,0,3,,,,,,,,,2,,,62,0
121200,note_on,0,0,1,,,,,,,,,0,,,79,0
121200,note_on,120,0,1,,,,,,,,,0,,,83,0
121200,note_on,120,0,3,,,,,,,,,2,,,55,0
121260,note_on,60,0,3,,,,,,,,,2,,,47,0
121260,note_on,0,0,3,,,,,,,,,2,,,43,0
121260,note_on,0,0,3,,,,,,,,,2,,,45,62
121260,note_on,0,0,3,,,,,,,,,2,,,48,62
121320,note_on,60,0,3,,,,,,,,,2,,,48,0
121320,note_on,0,0,3,,,,,,,,,2,,,45,0
121320,note_on,0,0,3,,,,,,,,,2,,,47,62
121320,note_on,0,0,3,,,,,,,,,2,,,50,62
121380,note_on,60,0,3,,,,,,,,,2,,,50,0
121380,note_on,0,0,3,,,,,,,,,2,,,47,0
121380,note_on,0,0,3,,,,,,,,,2,,,51,62
121380,note_on,0,0,3,,,,,,,,,2,,,48,62
121440,note_on,0,0,3,,,,,,,,,2,,,53,62
121440,note_on,60,0,3,,,,,,,,,2,,,51,0
121440,note_on,240,0,1,,,,,,,,,0,,,65,75
121440,note_on,0,0,3,,,,,,,,,2,,,50,62
121440,note_on,0,0,3,,,,,,,,,2,,,48,0
121500,note_on,0,0,3,,,,,,,,,2,,,55,62
121500,note_on,0,0,3,,,,,,,,,2,,,51,62
121500,note_on,0,0,3,,,,,,,,,2,,,50,0
121500,note_on,60,0,3,,,,,,,,,2,,,53,0
121530,note_on,90,0,1,,,,,,,,,0,,,63,49
121545,note_on,15,0,1,,,,,,,,,0,,,63,0
121545,control_change,0,0,1,,,,,,,,,0,64,127,,
121545,note_on,0,0,1,,,,,,,,,0,,,65,49
121560,note_on,15,0,1,,,,,,,,,0,,,65,0
121560,note_on,0,0,1,,,,,,,,,0,,,65,0
121560,note_on,0,0,1,,,,,,,,,0,,,63,49
121560,note_on,480,0,2,,,,,,,,,1,,,59,49
121560,note_on,60,0,3,,,,,,,,,2,,,55,0
121560,note_on,0,0,3,,,,,,,,,2,,,51,0
121560,control_change,0,0,3,,,,,,,,,2,64,127,,
121560,note_on,0,0,3,,,,,,,,,2,,,53,80
121560,note_on,0,0,3,,,,,,,,,2,,,56,88
121680,note_on,0,0,1,,,,,,,,,0,,,62,49
121680,note_on,120,0,1,,,,,,,,,0,,,63,0
121800,note_on,0,0,1,,,,,,,,,0,,,68,75
121800,note_on,120,0,1,,,,,,,,,0,,,62,0
121920,note_on,0,0,3,,,,,,,,,2,,,50,62
121920,note_on,0,0,3,,,,,,,,,2,,,43,62
121920,note_on,360,0,2,,,,,,,,,1,,,59,0
121920,note_on,0,0,3,,,,,,,,,2,,,53,0
121920,note_on,360,0,3,,,,,,,,,2,,,56,0
121920,note_on,0,0,3,,,,,,,,,2,,,53,62
121980,note_on,0,0,1,,,,,,,,,0,,,65,49
121980,note_on,180,0,1,,,,,,,,,0,,,68,0
122010,note_on,30,0,1,,,,,,,,,0,,,65,0
122010,note_on,0,0,1,,,,,,,,,0,,,62,49
122040,control_change,0,0,1,,,,,,,,,0,64,0,,
122040,control_change,120,0,3,,,,,,,,,2,64,0,,
122040,note_on,0,0,1,,,,,,,,,0,,,71,114
122040,note_on,30,0,1,,,,,,,,,0,,,62,0
122160,note_on,0,0,3,,,,,,,,,2,,,47,75
122160,note_on,0,0,3,,,,,,,,,2,,,50,0
122160,note_on,120,0,3,,,,,,,,,2,,,53,0
122160,note_on,0,0,3,,,,,,,,,2,,,50,75
122160,note_on,0,0,3,,,,,,,,,2,,,43,75
122160,note_on,0,0,3,,,,,,,,,2,,,43,0
122220,note_on,180,0,1,,,,,,,,,0,,,71,0
122220,note_on,0,0,1,,,,,,,,,0,,,68,88
122250,note_on,30,0,1,,,,,,,,,0,,,68,0
122250,note_on,0,0,1,,,,,,,,,0,,,65,88
122280,note_on,30,0,1,,,,,,,,,0,,,65,0
122280,note_on,0,0,1,,,,,,,,,0,,,74,114
122280,note_on,0,0,3,,,,,,,,,2,,,50,101
122280,note_on,120,0,3,,,,,,,,,2,,,50,0
122280,note_on,0,0,3,,,,,,,,,2,,,47,0
122280,note_on,0,0,3,,,,,,,,,2,,,43,0
122280,note_on,360,0,2,,,,,,,,,1,,,66,49
122280,note_on,0,0,3,,,,,,,,,2,,,44,93
122490,note_on,210,0,1,,,,,,,,,0,,,74,0
122490,note_on,0,0,1,,,,,,,,,0,,,72,88
122520,note_on,240,0,2,,,,,,,,,1,,,66,0
122520,note_on,0,0,3,,,,,,,,,2,,,43,75
122520,note_on,30,0,1,,,,,,,,,0,,,72,0
122520,note_on,0,0,1,,,,,,,,,0,,,67,88
122520,note_on,0,0,1,,,,,,,,,0,,,71,88
122520,note_on,240,0,3,,,,,,,,,2,,,44,0
122640,note_on,0,0,1,,,,,,,,,0,,,67,0
122640,note_on,0,0,1,,,,,,,,,0,,,67,88
122640,note_on,120,0,1,,,,,,,,,0,,,71,0
122640,note_on,120,0,3,,,,,,,,,2,,,43,0
122640,note_on,0,0,3,,,,,,,,,2,,,50,0
122760,note_on,120,0,3,,,,,,,,,2,,,43,75
122760,note_on,0,0,3,,,,,,,,,2,,,55,75
122880,note_on,0,0,1,,,,,,,,,0,,,67,88
122880,note_on,240,0,1,,,,,,,,,0,,,67,0
123120,note_on,240,0,1,,,,,,,,,0,,,67,0
123120,note_on,0,0,1,,,,,,,,,0,,,67,88
123240,note_on,0,0,3,,,,,,,,,2,,,55,75
123240,control_change,0,0,3,,,,,,,,,2,64,127,,
123240,note_on,0,0,3,,,,,,,,,2,,,43,0
123240,note_on,480,0,3,,,,,,,,,2,,,55,0
123240,note_on,0,0,3,,,,,,,,,2,,,43,75
123360,note_on,240,0,1,,,,,,,,,0,,,67,0
123360,control_change,0,0,1,,,,,,,,,0,64,127,,
123360,note_on,0,0,1,,,,,,,,,0,,,67,88
123480,note_on,0,0,1,,,,,,,,,0,,,68,88
123480,note_on,120,0,1,,,,,,,,,0,,,67,0
123540,note_on,60,0,1,,,,,,,,,0,,,68,0
123540,note_on,0,0,1,,,,,,,,,0,,,56,88
123600,note_on,0,0,3,,,,,,,,,2,,,55,75
123600,note_on,360,0,3,,,,,,,,,2,,,55,0
123600,note_on,0,0,3,,,,,,,,,2,,,43,0
123600,note_on,60,0,1,,,,,,,,,0,,,56,0
123600,note_on,0,0,1,,,,,,,,,0,,,60,88
123600,note_on,0,0,3,,,,,,,,,2,,,43,75
123660,note_on,0,0,1,,,,,,,,,0,,,63,88
123660,note_on,60,0,1,,,,,,,,,0,,,60,0
123720,note_on,60,0,1,,,,,,,,,0,,,63,0
123720,note_on,0,0,1,,,,,,,,,0,,,68,88
123780,note_on,60,0,1,,,,,,,,,0,,,68,0
123780,note_on,0,0,1,,,,,,,,,0,,,56,88
123840,note_on,0,0,3,,,,,,,,,2,,,43,0
123840,note_on,0,0,3,,,,,,,,,2,,,53,75
123840,note_on,0,0,1,,,,,,,,,0,,,62,88
123840,note_on,60,0,1,,,,,,,,,0,,,56,0
123840,note_on,0,0,3,,,,,,,,,2,,,41,75
123840,note_on,240,0,3,,,,,,,,,2,,,55,0
123900,note_on,0,0,1,,,,,,,,,0,,,65,88
123900,note_on,60,0,1,,,,,,,,,0,,,62,0
123960,note_on,0,0,1,,,,,,,,,0,,,68,88
123960,note_on,60,0,1,,,,,,,,,0,,,65,0
124020,note_on,0,0,1,,,,,,,,,0,,,56,88
124020,note_on,60,0,1,,,,,,,,,0,,,68,0
124080,note_on,60,0,1,,,,,,,,,0,,,56,0
124080,note_on,240,0,3,,,,,,,,,2,,,53,0
124080,note_on,0,0,3,,,,,,,,,2,,,41,0
124080,note_on,0,0,3,,,,,,,,,2,,,38,75
124080,note_on,0,0,3,,,,,,,,,2,,,50,75
124080,note_on,0,0,1,,,,,,,,,0,,,62,88
124140,note_on,0,0,1,,,,,,,,,0,,,65,88
124140,note_on,60,0,1,,,,,,,,,0,,,62,0
124200,note_on,60,0,1,,,,,,,,,0,,,65,0
124200,note_on,0,0,1,,,,,,,,,0,,,68,88
124260,note_on,60,0,1,,,,,,,,,0,,,68,0
124260,note_on,0,0,1,,,,,,,,,0,,,65,88
124320,note_on,240,0,3,,,,,,,,,2,,,50,0
124320,note_on,0,0,3,,,,,,,,,2,,,38,0
124320,note_on,0,0,1,,,,,,,,,0,,,63,88
124320,note_on,0,0,3,,,,,,,,,2,,,48,75
124320,note_on,0,0,1,,,,,,,,,0,,,69,88
124320,note_on,60,0,1,,,,,,,,,0,,,65,0
124320,note_on,0,0,3,,,,,,,,,2,,,36,75
124380,note_on,0,0,1,,,,,,,,,0,,,65,88
124380,note_on,0,0,1,,,,,,,,,0,,,63,0
124380,note_on,60,0,1,,,,,,,,,0,,,69,0
124440,note_on,0,0,3,,,,,,,,,2,,,34,75
124440,note_on,0,0,3,,,,,,,,,2,,,46,75
124440,control_change,0,0,3,,,,,,,,,2,64,0,,
124440,note_on,120,0,3,,,,,,,,,2,,,48,0
124440,note_on,60,0,1,,,,,,,,,0,,,65,0
124440,control_change,0,0,1,,,,,,,,,0,64,0,,
124440,note_on,0,0,1,,,,,,,,,0,,,62,88
124440,note_on,0,0,1,,,,,,,,,0,,,70,88
124440,note_on,0,0,3,,,,,,,,,2,,,36,0
124560,note_on,0,0,3,,,,,,,,,2,,,46,36
124560,note_on,120,0,3,,,,,,,,,2,,,46,0
124560,note_on,0,0,3,,,,,,,,,2,,,34,0
124560,note_on,0,0,3,,,,,,,,,2,,,58,36
124560,note_on,120,0,1,,,,,,,,,0,,,70,0
124560,note_on,0,0,1,,,,,,,,,0,,,62,0
124680,note_on,120,0,1,,,,,,,,,0,,,70,49
124800,note_on,0,0,3,,,,,,,,,2,,,58,36
124800,note_on,0,0,3,,,,,,,,,2,,,46,36
124800,note_on,0,0,3,,,,,,,,,2,,,46,0
124800,note_on,240,0,3,,,,,,,,,2,,,58,0
124920,note_on,0,0,1,,,,,,,,,0,,,70,49
124920,note_on,240,0,1,,,,,,,,,0,,,70,0
125040,note_on,0,0,3,,,,,,,,,2,,,46,0
125040,note_on,0,0,3,,,,,,,,,2,,,46,36
125040,note_on,0,0,3,,,,,,,,,2,,,58,36
125040,note_on,240,0,3,,,,,,,,,2,,,58,0
125160,note_on,240,0,1,,,,,,,,,0,,,70,0
125160,note_on,0,0,1,,,,,,,,,0,,,70,49
125280,note_on,0,0,3,,,,,,,,,2,,,58,36
125280,note_on,240,0,3,,,,,,,,,2,,,58,0
125280,note_on,0,0,3,,,,,,,,,2,,,46,36
125280,note_on,0,0,3,,,,,,,,,2,,,46,0
125400,note_on,0,0,3,,,,,,,,,2,,,46,0
125400,note_on,0,0,3,,,,,,,,,2,,,59,62
125400,note_on,120,0,3,,,,,,,,,2,,,58,0
125460,note_on,60,0,3,,,,,,,,,2,,,59,0
125460,note_on,0,0,3,,,,,,,,,2,,,47,62
125520,note_on,60,0,3,,,,,,,,,2,,,47,0
125520,note_on,0,0,3,,,,,,,,,2,,,51,62
125520,note_on,0,0,1,,,,,,,,,0,,,82,75
125520,note_on,360,0,1,,,,,,,,,0,,,70,0
125520,note_on,0,0,1,,,,,,,,,0,,,70,75
125580,note_on,60,0,3,,,,,,,,,2,,,51,0
125580,note_on,0,0,3,,,,,,,,,2,,,54,62
125640,note_on,60,0,3,,,,,,,,,2,,,54,0
125640,note_on,0,0,3,,,,,,,,,2,,,59,62
125700,note_on,0,0,3,,,,,,,,,2,,,47,62
125700,note_on,60,0,3,,,,,,,,,2,,,59,0
125760,note_on,60,0,3,,,,,,,,,2,,,47,0
125760,note_on,0,0,3,,,,,,,,,2,,,53,62
125760,note_on,0,0,1,,,,,,,,,0,,,80,75
125760,note_on,240,0,1,,,,,,,,,0,,,82,0
125760,note_on,0,0,1,,,,,,,,,0,,,68,75
125760,note_on,0,0,1,,,,,,,,,0,,,70,0
125820,note_on,0,0,3,,,,,,,,,2,,,56,62
125820,note_on,60,0,3,,,,,,,,,2,,,53,0
125880,note_on,0,0,3,,,,,,,,,2,,,59,62
125880,note_on,60,0,3,,,,,,,,,2,,,56,0
125940,note_on,0,0,3,,,,,,,,,2,,,47,62
125940,note_on,60,0,3,,,,,,,,,2,,,59,0
126000,note_on,0,0,3,,,,,,,,,2,,,53,62
126000,note_on,240,0,1,,,,,,,,,0,,,80,0
126000,note_on,0,0,1,,,,,,,,,0,,,68,0
126000,note_on,0,0,1,,,,,,,,,0,,,65,75
126000,note_on,0,0,1,,,,,,,,,0,,,77,75
126000,note_on,60,0,3,,,,,,,,,2,,,47,0
126060,note_on,60,0,3,,,,,,,,,2,,,53,0
126060,note_on,0,0,3,,,,,,,,,2,,,56,62
126120,note_on,0,0,3,,,,,,,,,2,,,59,62
126120,note_on,60,0,3,,,,,,,,,2,,,56,0
126180,note_on,0,0,3,,,,,,,,,2,,,47,62
126180,note_on,60,0,3,,,,,,,,,2,,,59,0
126240,note_on,0,0,1,,,,,,,,,0,,,75,75
126240,note_on,0,0,1,,,,,,,,,0,,,68,75
126240,note_on,0,0,1,,,,,,,,,0,,,66,75
126240,note_on,0,0,1,,,,,,,,,0,,,65,0
126240,note_on,240,0,1,,,,,,,,,0,,,77,0
126240,note_on,60,0,3,,,,,,,,,2,,,47,0
126240,note_on,0,0,3,,,,,,,,,2,,,60,62
126300,note_on,0,0,3,,,,,,,,,2,,,48,62
126300,note_on,60,0,3,,,,,,,,,2,,,60,0
126360,note_on,0,0,3,,,,,,,,,2,,,61,62
126360,note_on,0,0,3,,,,,,,,,2,,,49,62
126360,control_change,0,0,3,,,,,,,,,2,64,127,,
126360,note_on,60,0,3,,,,,,,,,2,,,48,0
126360,note_on,0,0,1,,,,,,,,,0,,,68,75
126360,note_on,120,0,1,,,,,,,,,0,,,75,0
126360,note_on,0,0,1,,,,,,,,,0,,,68,0
126360,note_on,0,0,1,,,,,,,,,0,,,66,0
126360,note_on,0,0,1,,,,,,,,,0,,,65,75
126360,note_on,0,0,1,,,,,,,,,0,,,73,75
126360,control_change,0,0,1,,,,,,,,,0,64,127,,
126480,note_on,120,0,3,,,,,,,,,2,,,61,0
126480,note_on,0,0,3,,,,,,,,,2,,,49,0
126480,note_on,0,0,1,,,,,,,,,0,,,65,0
126480,note_on,0,0,1,,,,,,,,,0,,,68,0
126480,note_on,0,0,1,,,,,,,,,0,,,73,88
126480,note_on,120,0,1,,,,,,,,,0,,,73,0
126600,note_on,0,0,3,,,,,,,,,2,,,61,75
126600,note_on,120,0,3,,,,,,,,,2,,,49,75
126720,note_on,240,0,1,,,,,,,,,0,,,73,0
126720,note_on,0,0,1,,,,,,,,,0,,,73,88
126840,note_on,0,0,3,,,,,,,,,2,,,61,75
126840,note_on,0,0,3,,,,,,,,,2,,,49,75
126840,note_on,0,0,3,,,,,,,,,2,,,49,0
126840,note_on,240,0,3,,,,,,,,,2,,,61,0
126960,note_on,240,0,1,,,,,,,,,0,,,73,0
126960,note_on,0,0,1,,,,,,,,,0,,,73,88
127080,note_on,240,0,3,,,,,,,,,2,,,61,0
127080,note_on,0,0,3,,,,,,,,,2,,,61,75
127080,note_on,0,0,3,,,,,,,,,2,,,49,75
127080,note_on,0,0,3,,,,,,,,,2,,,49,0
127200,note_on,0,0,1,,,,,,,,,0,,,73,88
127200,control_change,0,0,1,,,,,,,,,0,64,0,,
127200,note_on,240,0,1,,,,,,,,,0,,,73,0
127320,note_on,0,0,1,,,,,,,,,0,,,74,88
127320,note_on,120,0,1,,,,,,,,,0,,,73,0
127320,control_change,240,0,3,,,,,,,,,2,64,0,,
127380,note_on,0,0,1,,,,,,,,,0,,,62,88
127380,note_on,60,0,1,,,,,,,,,0,,,74,0
127440,note_on,60,0,1,,,,,,,,,0,,,62,0
127440,note_on,120,0,3,,,,,,,,,2,,,61,0
127440,note_on,0,0,3,,,,,,,,,2,,,49,75
127440,note_on,0,0,3,,,,,,,,,2,,,61,75
127440,note_on,0,0,3,,,,,,,,,2,,,49,0
127440,note_on,0,0,1,,,,,,,,,0,,,66,88
127500,note_on,60,0,1,,,,,,,,,0,,,66,0
127500,note_on,0,0,1,,,,,,,,,0,,,69,88
127560,note_on,60,0,1,,,,,,,,,0,,,69,0
127560,note_on,0,0,1,,,,,,,,,0,,,74,88
127620,note_on,60,0,1,,,,,,,,,0,,,74,0
127620,note_on,0,0,1,,,,,,,,,0,,,62,88
127680,note_on,0,0,3,,,,,,,,,2,,,47,75
127680,note_on,0,0,3,,,,,,,,,2,,,59,75
127680,note_on,0,0,3,,,,,,,,,2,,,49,0
127680,note_on,240,0,3,,,,,,,,,2,,,61,0
127680,note_on,60,0,1,,,,,,,,,0,,,62,0
127680,note_on,0,0,1,,,,,,,,,0,,,68,88
127740,note_on,60,0,1,,,,,,,,,0,,,68,0
127740,note_on,0,0,1,,,,,,,,,0,,,71,88
127800,note_on,60,0,1,,,,,,,,,0,,,71,0
127800,note_on,0,0,1,,,,,,,,,0,,,74,88
127860,note_on,60,0,1,,,,,,,,,0,,,74,0
127860,note_on,0,0,1,,,,,,,,,0,,,62,88
127920,note_on,240,0,3,,,,,,,,,2,,,59,0
127920,note_on,0,0,3,,,,,,,,,2,,,47,0
127920,note_on,0,0,3,,,,,,,,,2,,,44,75
127920,note_on,60,0,1,,,,,,,,,0,,,62,0
127920,note_on,0,0,1,,,,,,,,,0,,,68,88
127920,note_on,0,0,3,,,,,,,,,2,,,56,75
127980,note_on,0,0,1,,,,,,,,,0,,,71,88
127980,note_on,60,0,1,,,,,,,,,0,,,68,0
128040,note_on,0,0,1,,,,,,,,,0,,,74,88
128040,note_on,60,0,1,,,,,,,,,0,,,71,0
128100,note_on,0,0,1,,,,,,,,,0,,,71,88
128100,note_on,60,0,1,,,,,,,,,0,,,74,0
128160,note_on,0,0,1,,,,,,,,,0,,,75,88
128160,note_on,0,0,1,,,,,,,,,0,,,69,88
128160,note_on,60,0,1,,,,,,,,,0,,,71,0
128160,note_on,240,0,3,,,,,,,,,2,,,56,0
128160,note_on,0,0,3,,,,,,,,,2,,,44,0
128160,note_on,0,0,3,,,,,,,,,2,,,42,75
128160,note_on,0,0,3,,,,,,,,,2,,,54,75
128220,note_on,0,0,1,,,,,,,,,0,,,71,88
128220,note_on,0,0,1,,,,,,,,,0,,,69,0
128220,note_on,60,0,1,,,,,,,,,0,,,75,0
128280,note_on,0,0,3,,,,,,,,,2,,,40,75
128280,note_on,0,0,3,,,,,,,,,2,,,52,75
128280,note_on,120,0,3,,,,,,,,,2,,,54,0
128280,note_on,0,0,3,,,,,,,,,2,,,42,0
128280,note_on,0,0,1,,,,,,,,,0,,,68,88
128280,note_on,60,0,1,,,,,,,,,0,,,71,0
128280,note_on,0,0,1,,,,,,,,,0,,,76,88
128400,note_on,0,0,1,,,,,,,,,0,,,76,88
128400,note_on,0,0,1,,,,,,,,,0,,,68,0
128400,note_on,0,0,3,,,,,,,,,2,,,40,0
128400,note_on,120,0,1,,,,,,,,,0,,,76,0
128400,note_on,120,0,3,,,,,,,,,2,,,52,0
128400,note_on,0,0,1,,,,,,,,,0,,,88,88
128520,note_on,120,0,3,,,,,,,,,2,,,52,75
128520,note_on,0,0,3,,,,,,,,,2,,,64,75
128640,note_on,0,0,1,,,,,,,,,0,,,76,88
128640,note_on,240,0,1,,,,,,,,,0,,,88,0
128640,note_on,0,0,1,,,,,,,,,0,,,88,88
128640,note_on,0,0,1,,,,,,,,,0,,,76,0
128760,note_on,0,0,3,,,,,,,,,2,,,52,0
128760,note_on,0,0,3,,,,,,,,,2,,,52,75
128760,note_on,0,0,3,,,,,,,,,2,,,64,75
128760,note_on,240,0,3,,,,,,,,,2,,,64,0
128880,note_on,0,0,1,,,,,,,,,0,,,76,88
128880,note_on,0,0,1,,,,,,,,,0,,,76,0
128880,note_on,240,0,1,,,,,,,,,0,,,88,0
128880,note_on,0,0,1,,,,,,,,,0,,,88,88
129000,note_on,240,0,3,,,,,,,,,2,,,64,0
129000,note_on,0,0,3,,,,,,,,,2,,,52,0
129000,note_on,0,0,3,,,,,,,,,2,,,52,75
129000,note_on,0,0,3,,,,,,,,,2,,,64,75
129120,note_on,240,0,1,,,,,,,,,0,,,88,0
129120,note_on,0,0,1,,,,,,,,,0,,,76,0
129120,note_on,0,0,1,,,,,,,,,0,,,76,88
129120,note_on,0,0,1,,,,,,,,,0,,,88,88
129240,note_on,0,0,3,,,,,,,,,2,,,52,0
129240,note_on,120,0,1,,,,,,,,,0,,,88,0
129240,note_on,0,0,1,,,,,,,,,0,,,76,0
129240,note_on,0,0,1,,,,,,,,,0,,,81,101
129240,note_on,0,0,1,,,,,,,,,0,,,84,101
129240,note_on,0,0,1,,,,,,,,,0,,,93,101
129240,note_on,0,0,3,,,,,,,,,2,,,65,88
129240,note_on,0,0,3,,,,,,,,,2,,,53,88
129240,note_on,240,0,3,,,,,,,,,2,,,64,0
129252,note_on,12,0,3,,,,,,,,,2,,,65,0
129252,note_on,0,0,3,,,,,,,,,2,,,53,0
129252,note_on,0,0,1,,,,,,,,,0,,,81,0
129252,note_on,0,0,1,,,,,,,,,0,,,84,0
129252,note_on,12,0,1,,,,,,,,,0,,,93,0
129360,note_on,0,0,1,,,,,,,,,0,,,75,101
129360,note_on,0,0,1,,,,,,,,,0,,,81,101
129360,note_on,108,0,1,,,,,,,,,0,,,69,101
129360,note_on,0,0,3,,,,,,,,,2,,,53,88
129360,note_on,108,0,3,,,,,,,,,2,,,41,88
129360,note_on,0,0,1,,,,,,,,,0,,,72,101
129600,note_on,0,0,1,,,,,,,,,0,,,72,101
129600,note_on,0,0,1,,,,,,,,,0,,,69,101
129600,note_on,0,0,1,,,,,,,,,0,,,75,0
129600,note_on,0,0,1,,,,,,,,,0,,,69,0
129600,note_on,240,0,3,,,,,,,,,2,,,53,0
129600,note_on,0,0,3,,,,,,,,,2,,,41,0
129600,note_on,0,0,3,,,,,,,,,2,,,41,88
129600,note_on,0,0,3,,,,,,,,,2,,,53,88
129600,note_on,0,0,1,,,,,,,,,0,,,81,101
129600,note_on,240,0,1,,,,,,,,,0,,,81,0
129600,note_on,0,0,1,,,,,,,,,0,,,72,0
129600,note_on,0,0,1,,,,,,,,,0,,,75,101
129720,note_on,0,0,1,,,,,,,,,0,,,74,101
129720,note_on,0,0,1,,,,,,,,,0,,,69,0
129720,note_on,0,0,1,,,,,,,,,0,,,82,101
129720,note_on,120,0,1,,,,,,,,,0,,,81,0
129720,note_on,0,0,3,,,,,,,,,2,,,53,88
129720,note_on,0,0,1,,,,,,,,,0,,,75,0
129720,note_on,0,0,3,,,,,,,,,2,,,41,88
129720,note_on,120,0,3,,,,,,,,,2,,,53,0
129720,note_on,0,0,1,,,,,,,,,0,,,70,101
129720,note_on,0,0,1,,,,,,,,,0,,,72,0
129720,note_on,0,0,3,,,,,,,,,2,,,41,0
129732,note_on,12,0,3,,,,,,,,,2,,,53,0
129732,note_on,0,0,3,,,,,,,,,2,,,41,0
129732,note_on,12,0,1,,,,,,,,,0,,,82,0
129732,note_on,0,0,1,,,,,,,,,0,,,74,0
129732,note_on,0,0,1,,,,,,,,,0,,,70,0
129840,note_on,108,0,1,,,,,,,,,0,,,81,101
129840,note_on,0,0,1,,,,,,,,,0,,,87,101
129840,note_on,0,0,1,,,,,,,,,0,,,93,101
129840,note_on,0,0,3,,,,,,,,,2,,,41,88
129840,note_on,0,0,1,,,,,,,,,0,,,84,101
129840,note_on,108,0,3,,,,,,,,,2,,,29,88
130080,note_on,0,0,3,,,,,,,,,2,,,41,88
130080,note_on,0,0,3,,,,,,,,,2,,,29,88
130080,note_on,0,0,3,,,,,,,,,2,,,29,0
130080,note_on,240,0,1,,,,,,,,,0,,,93,0
130080,note_on,0,0,1,,,,,,,,,0,,,81,0
130080,note_on,0,0,1,,,,,,,,,0,,,84,0
130080,note_on,0,0,1,,,,,,,,,0,,,87,0
130080,note_on,0,0,1,,,,,,,,,0,,,81,101
130080,note_on,0,0,1,,,,,,,,,0,,,84,101
130080,note_on,0,0,1,,,,,,,,,0,,,87,101
130080,note_on,0,0,1,,,,,,,,,0,,,93,101
130080,note_on,240,0,3,,,,,,,,,2,,,41,0
130200,note_on,120,0,3,,,,,,,,,2,,,41,0
130200,note_on,120,0,1,,,,,,,,,0,,,93,0
130200,note_on,0,0,1,,,,,,,,,0,,,81,0
130200,note_on,0,0,1,,,,,,,,,0,,,84,0
130200,note_on,0,0,1,,,,,,,,,0,,,87,0
130200,note_on,0,0,3,,,,,,,,,2,,,29,88
130200,note_on,0,0,3,,,,,,,,,2,,,29,0
130200,note_on,0,0,1,,,,,,,,,0,,,94,101
130200,note_on,0,0,1,,,,,,,,,0,,,86,101
130200,note_on,0,0,3,,,,,,,,,2,,,41,88
130200,note_on,0,0,1,,,,,,,,,0,,,82,101
130212,note_on,0,0,3,,,,,,,,,2,,,29,0
130212,note_on,12,0,3,,,,,,,,,2,,,41,0
130212,note_on,0,0,1,,,,,,,,,0,,,82,0
130212,note_on,12,0,1,,,,,,,,,0,,,94,0
130212,note_on,0,0,1,,,,,,,,,0,,,86,0
130320,note_on,0,0,3,,,,,,,,,2,,,53,88
130320,note_on,0,0,1,,,,,,,,,0,,,81,101
130320,note_on,0,0,1,,,,,,,,,0,,,72,101
130320,note_on,108,0,1,,,,,,,,,0,,,69,101
130320,note_on,0,0,1,,,,,,,,,0,,,75,101
130320,note_on,108,0,3,,,,,,,,,2,,,41,88
130560,note_on,0,0,3,,,,,,,,,2,,,41,88
130560,note_on,0,0,3,,,,,,,,,2,,,41,0
130560,note_on,240,0,1,,,,,,,,,0,,,81,0
130560,note_on,0,0,1,,,,,,,,,0,,,69,0
130560,note_on,0,0,1,,,,,,,,,0,,,72,0
130560,note_on,0,0,1,,,,,,,,,0,,,75,0
130560,note_on,0,0,1,,,,,,,,,0,,,69,101
130560,note_on,0,0,1,,,,,,,,,0,,,72,101
130560,note_on,0,0,1,,,,,,,,,0,,,75,101
130560,note_on,0,0,1,,,,,,,,,0,,,81,101
130560,note_on,240,0,3,,,,,,,,,2,,,53,0
130560,note_on,0,0,3,,,,,,,,,2,,,53,88
130680,note_on,120,0,1,,,,,,,,,0,,,81,0
130680,note_on,0,0,1,,,,,,,,,0,,,69,0
130680,note_on,0,0,1,,,,,,,,,0,,,70,101
130680,note_on,0,0,1,,,,,,,,,0,,,75,0
130680,note_on,0,0,1,,,,,,,,,0,,,74,101
130680,note_on,0,0,1,,,,,,,,,0,,,82,101
130680,note_on,0,0,1,,,,,,,,,0,,,72,0
130680,note_on,0,0,3,,,,,,,,,2,,,53,88
130680,note_on,120,0,3,,,,,,,,,2,,,53,0
130680,note_on,0,0,3,,,,,,,,,2,,,41,0
130680,note_on,0,0,3,,,,,,,,,2,,,41,88
130692,note_on,0,0,3,,,,,,,,,2,,,41,0
130692,note_on,12,0,3,,,,,,,,,2,,,53,0
130692,note_on,12,0,1,,,,,,,,,0,,,82,0
130692,note_on,0,0,1,,,,,,,,,0,,,74,0
130692,note_on,0,0,1,,,,,,,,,0,,,70,0
130800,note_on,0,0,3,,,,,,,,,2,,,41,88
130800,note_on,108,0,1,,,,,,,,,0,,,81,101
130800,note_on,0,0,1,,,,,,,,,0,,,87,101
130800,note_on,108,0,3,,,,,,,,,2,,,29,88
130800,note_on,0,0,1,,,,,,,,,0,,,93,101
130800,note_on,0,0,1,,,,,,,,,0,,,84,101
131040,note_on,0,0,1,,,,,,,,,0,,,87,101
131040,note_on,240,0,1,,,,,,,,,0,,,93,0
131040,note_on,0,0,1,,,,,,,,,0,,,84,0
131040,note_on,0,0,1,,,,,,,,,0,,,87,0
131040,note_on,0,0,1,,,,,,,,,0,,,81,101
131040,note_on,240,0,3,,,,,,,,,2,,,41,0
131040,note_on,0,0,3,,,,,,,,,2,,,29,0
131040,note_on,0,0,3,,,,,,,,,2,,,29,88
131040,note_on,0,0,3,,,,,,,,,2,,,41,88
131040,note_on,0,0,1,,,,,,,,,0,,,93,101
131040,note_on,0,0,1,,,,,,,,,0,,,84,101
131040,note_on,0,0,1,,,,,,,,,0,,,81,0
131160,note_on,120,0,3,,,,,,,,,2,,,41,0
131160,note_on,0,0,3,,,,,,,,,2,,,29,0
131160,note_on,0,0,3,,,,,,,,,2,,,28,88
131160,note_on,0,0,1,,,,,,,,,0,,,87,0
131160,note_on,0,0,1,,,,,,,,,0,,,93,101
131160,note_on,0,0,3,,,,,,,,,2,,,40,88
131160,note_on,0,0,1,,,,,,,,,0,,,84,101
131160,note_on,0,0,1,,,,,,,,,0,,,81,101
131160,note_on,0,0,1,,,,,,,,,0,,,88,101
131160,note_on,0,0,1,,,,,,,,,0,,,81,0
131160,note_on,120,0,1,,,,,,,,,0,,,93,0
131160,note_on,0,0,1,,,,,,,,,0,,,84,0
131172,note_on,0,0,3,,,,,,,,,2,,,28,0
131172,note_on,12,0,3,,,,,,,,,2,,,40,0
131280,note_on,120,0,1,,,,,,,,,0,,,93,0
131280,note_on,0,0,1,,,,,,,,,0,,,81,0
131280,note_on,0,0,1,,,,,,,,,0,,,84,0
131280,note_on,0,0,1,,,,,,,,,0,,,88,0
131400,note_on,0,0,1,,,,,,,,,0,,,81,101
131400,note_on,120,0,1,,,,,,,,,0,,,76,101
131400,note_on,0,0,1,,,,,,,,,0,,,88,101
131400,note_on,0,0,1,,,,,,,,,0,,,84,101
131400,note_on,228,0,3,,,,,,,,,2,,,52,88
131400,note_on,0,0,3,,,,,,,,,2,,,57,88
131400,note_on,0,0,3,,,,,,,,,2,,,60,88
131400,note_on,0,0,3,,,,,,,,,2,,,64,88
131412,note_on,12,0,3,,,,,,,,,2,,,64,0
131412,note_on,0,0,3,,,,,,,,,2,,,60,0
131412,note_on,0,0,3,,,,,,,,,2,,,52,0
131412,note_on,0,0,3,,,,,,,,,2,,,57,0
131520,note_on,0,0,1,,,,,,,,,0,,,84,0
131520,note_on,0,0,1,,,,,,,,,0,,,81,0
131520,note_on,120,0,1,,,,,,,,,0,,,88,0
131520,note_on,0,0,1,,,,,,,,,0,,,76,0
131640,note_on,0,0,1,,,,,,,,,0,,,88,101
131640,note_on,0,0,1,,,,,,,,,0,,,83,101
131640,note_on,120,0,1,,,,,,,,,0,,,76,101
131640,note_on,0,0,1,,,,,,,,,0,,,81,101
131640,note_on,228,0,3,,,,,,,,,2,,,52,88
131640,note_on,0,0,3,,,,,,,,,2,,,57,88
131640,note_on,0,0,3,,,,,,,,,2,,,59,88
131640,note_on,0,0,3,,,,,,,,,2,,,64,88
131760,note_on,0,0,3,,,,,,,,,2,,,59,0
131760,note_on,0,0,3,,,,,,,,,2,,,57,0
131760,note_on,0,0,3,,,,,,,,,2,,,52,0
131760,note_on,120,0,3,,,,,,,,,2,,,64,0
131760,note_on,0,0,1,,,,,,,,,0,,,76,0
131760,note_on,0,0,1,,,,,,,,,0,,,83,0
131760,note_on,0,0,1,,,,,,,,,0,,,81,0
131760,note_on,120,0,1,,,,,,,,,0,,,88,0
131880,note_on,120,0,3,,,,,,,,,2,,,52,88
131880,note_on,0,0,3,,,,,,,,,2,,,56,88
131880,note_on,0,0,1,,,,,,,,,0,,,80,101
131880,note_on,0,0,3,,,,,,,,,2,,,64,88
131880,note_on,0,0,1,,,,,,,,,0,,,88,101
131880,note_on,0,0,1,,,,,,,,,0,,,83,101
131880,note_on,0,0,3,,,,,,,,,2,,,59,88
131880,note_on,120,0,1,,,,,,,,,0,,,76,101
132000,note_on,0,0,3,,,,,,,,,2,,,56,0
132000,note_on,0,0,3,,,,,,,,,2,,,52,0
132000,note_on,120,0,3,,,,,,,,,2,,,64,0
132000,note_on,120,0,1,,,,,,,,,0,,,88,0
132000,note_on,0,0,1,,,,,,,,,0,,,76,0
132000,note_on,0,0,1,,,,,,,,,0,,,80,0
132000,note_on,0,0,1,,,,,,,,,0,,,83,0
132000,note_on,0,0,3,,,,,,,,,2,,,59,0
132120,control_change,120,0,3,,,,,,,,,2,64,127,,
132120,note_on,0,0,3,,,,,,,,,2,,,33,88
132120,control_change,120,0,1,,,,,,,,,0,64,127,,
132120,note_on,0,0,1,,,,,,,,,0,,,69,101
132180,note_on,60,0,3,,,,,,,,,2,,,33,0
132180,note_on,0,0,3,,,,,,,,,2,,,45,88
132180,note_on,0,0,1,,,,,,,,,0,,,57,101
132180,note_on,60,0,1,,,,,,,,,0,,,69,0
132240,note_on,60,0,1,,,,,,,,,0,,,57,0
132240,note_on,0,0,3,,,,,,,,,2,,,45,88
132240,note_on,60,0,3,,,,,,,,,2,,,45,0
132240,note_on,0,0,1,,,,,,,,,0,,,57,101
132246,note_on,6,0,3,,,,,,,,,2,,,45,0
132246,note_on,6,0,1,,,,,,,,,0,,,57,0
132300,note_on,54,0,3,,,,,,,,,2,,,45,88
132300,note_on,54,0,1,,,,,,,,,0,,,57,101
132306,note_on,6,0,3,,,,,,,,,2,,,45,0
132306,note_on,6,0,1,,,,,,,,,0,,,57,0
132360,note_on,54,0,3,,,,,,,,,2,,,45,88
132360,note_on,54,0,1,,,,,,,,,0,,,57,101
132372,note_on,12,0,1,,,,,,,,,0,,,57,0
132372,note_on,12,0,3,,,,,,,,,2,,,45,0
132480,note_on,0,0,3,,,,,,,,,2,,,40,36
132480,control_change,108,0,3,,,,,,,,,2,64,0,,
132480,control_change,108,0,1,,,,,,,,,0,64,0,,
132480,note_on,0,0,1,,,,,,,,,0,,,52,49
132480,note_on,0,0,1,,,,,,,,,0,,,56,49
132480,note_on,0,0,1,,,,,,,,,0,,,59,49
132492,note_on,0,0,1,,,,,,,,,0,,,56,0
132492,note_on,12,0,3,,,,,,,,,2,,,40,0
132492,note_on,12,0,1,,,,,,,,,0,,,59,0
132492,note_on,0,0,1,,,,,,,,,0,,,52,0
132600,note_on,0,0,1,,,,,,,,,0,,,60,49
132600,note_on,0,0,1,,,,,,,,,0,,,57,49
132600,note_on,108,0,3,,,,,,,,,2,,,45,36
132600,note_on,108,0,1,,,,,,,,,0,,,52,49
132612,note_on,12,0,3,,,,,,,,,2,,,45,0
132612,note_on,12,0,1,,,,,,,,,0,,,60,0
132612,note_on,0,0,1,,,,,,,,,0,,,57,0
132612,note_on,0,0,1,,,,,,,,,0,,,52,0
132720,note_on,108,0,1,,,,,,,,,0,,,52,49
132720,note_on,0,0,1,,,,,,,,,0,,,59,49
132720,note_on,0,0,1,,,,,,,,,0,,,56,49
132720,note_on,108,0,3,,,,,,,,,2,,,40,36
132732,note_on,0,0,1,,,,,,,,,0,,,52,0
132732,note_on,0,0,1,,,,,,,,,0,,,56,0
132732,note_on,12,0,1,,,,,,,,,0,,,59,0
132732,note_on,12,0,3,,,,,,,,,2,,,40,0
132840,note_on,0,0,1,,,,,,,,,0,,,60,49
132840,note_on,0,0,1,,,,,,,,,0,,,57,49
132840,note_on,108,0,1,,,,,,,,,0,,,52,49
132840,note_on,108,0,3,,,,,,,,,2,,,45,36
132852,note_on,12,0,1,,,,,,,,,0,,,60,0
132852,note_on,0,0,1,,,,,,,,,0,,,52,0
132852,note_on,12,0,3,,,,,,,,,2,,,45,0
132852,note_on,0,0,1,,,,,,,,,0,,,57,0
132960,note_on,108,0,3,,,,,,,,,2,,,40,36
132960,note_on,108,0,1,,,,,,,,,0,,,52,49
132960,note_on,0,0,1,,,,,,,,,0,,,59,49
132960,note_on,0,0,1,,,,,,,,,0,,,56,49
132972,note_on,12,0,3,,,,,,,,,2,,,40,0
132972,note_on,0,0,1,,,,,,,,,0,,,52,0
132972,note_on,0,0,1,,,,,,,,,0,,,56,0
132972,note_on,12,0,1,,,,,,,,,0,,,59,0
133080,note_on,0,0,3,,,,,,,,,2,,,33,101
133080,control_change,108,0,3,,,,,,,,,2,64,127,,
133080,control_change,108,0,1,,,,,,,,,0,64,127,,
133080,note_on,0,0,1,,,,,,,,,0,,,69,114
133140,note_on,60,0,1,,,,,,,,,0,,,69,0
133140,note_on,0,0,1,,,,,,,,,0,,,57,114
133140,note_on,0,0,3,,,,,,,,,2,,,45,101
133140,note_on,60,0,3,,,,,,,,,2,,,33,0
133200,note_on,60,0,3,,,,,,,,,2,,,45,0
133200,note_on,0,0,3,,,,,,,,,2,,,45,101
133200,note_on,60,0,1,,,,,,,,,0,,,57,0
133200,note_on,0,0,1,,,,,,,,,0,,,57,114
133206,note_on,6,0,1,,,,,,,,,0,,,57,0
133206,note_on,6,0,3,,,,,,,,,2,,,45,0
133260,note_on,54,0,1,,,,,,,,,0,,,57,114
133260,note_on,54,0,3,,,,,,,,,2,,,45,101
133266,note_on,6,0,3,,,,,,,,,2,,,45,0
133266,note_on,6,0,1,,,,,,,,,0,,,57,0
133320,note_on,54,0,1,,,,,,,,,0,,,57,114
133320,note_on,54,0,3,,,,,,,,,2,,,45,101
133332,note_on,12,0,1,,,,,,,,,0,,,57,0
133332,note_on,12,0,3,,,,,,,,,2,,,45,0
133440,control_change,108,0,1,,,,,,,,,0,64,0,,
133440,note_on,0,0,1,,,,,,,,,0,,,52,49
133440,note_on,0,0,1,,,,,,,,,0,,,56,49
133440,note_on,0,0,1,,,,,,,,,0,,,59,49
133440,note_on,0,0,3,,,,,,,,,2,,,40,36
133440,control_change,108,0,3,,,,,,,,,2,64,0,,
133452,note_on,12,0,1,,,,,,,,,0,,,59,0
133452,note_on,0,0,1,,,,,,,,,0,,,56,0
133452,note_on,0,0,1,,,,,,,,,0,,,52,0
133452,note_on,12,0,3,,,,,,,,,2,,,40,0
133560,note_on,0,0,1,,,,,,,,,0,,,60,49
133560,note_on,108,0,1,,,,,,,,,0,,,52,49
133560,note_on,0,0,1,,,,,,,,,0,,,57,49
133560,note_on,108,0,3,,,,,,,,,2,,,45,36
133572,note_on,12,0,1,,,,,,,,,0,,,60,0
133572,note_on,0,0,1,,,,,,,,,0,,,52,0
133572,note_on,0,0,1,,,,,,,,,0,,,57,0
133572,note_on,12,0,3,,,,,,,,,2,,,45,0
133680,note_on,108,0,3,,,,,,,,,2,,,40,36
133680,note_on,0,0,1,,,,,,,,,0,,,59,49
133680,note_on,0,0,1,,,,,,,,,0,,,56,49
133680,note_on,108,0,1,,,,,,,,,0,,,52,49
133692,note_on,12,0,3,,,,,,,,,2,,,40,0
133692,note_on,12,0,1,,,,,,,,,0,,,59,0
133692,note_on,0,0,1,,,,,,,,,0,,,52,0
133692,note_on,0,0,1,,,,,,,,,0,,,56,0
133800,note_on,0,0,1,,,,,,,,,0,,,60,49
133800,note_on,0,0,1,,,,,,,,,0,,,57,49
133800,note_on,108,0,1,,,,,,,,,0,,,52,49
133800,note_on,108,0,3,,,,,,,,,2,,,45,36
133812,note_on,0,0,1,,,,,,,,,0,,,57,0
133812,note_on,12,0,1,,,,,,,,,0,,,60,0
133812,note_on,12,0,3,,,,,,,,,2,,,45,0
133812,note_on,0,0,1,,,,,,,,,0,,,52,0
133920,note_on,108,0,3,,,,,,,,,2,,,43,36
133920,note_on,108,0,1,,,,,,,,,0,,,56,49
133920,note_on,0,0,1,,,,,,,,,0,,,59,49
133920,note_on,0,0,1,,,,,,,,,0,,,62,49
133932,note_on,12,0,3,,,,,,,,,2,,,43,0
133932,note_on,12,0,1,,,,,,,,,0,,,62,0
133932,note_on,0,0,1,,,,,,,,,0,,,59,0
133932,note_on,0,0,1,,,,,,,,,0,,,56,0
134040,control_change,108,0,3,,,,,,,,,2,64,127,,
134040,control_change,108,0,1,,,,,,,,,0,64,127,,
134040,note_on,0,0,3,,,,,,,,,2,,,36,101
134040,note_on,0,0,1,,,,,,,,,0,,,72,114
134100,note_on,60,0,1,,,,,,,,,0,,,72,0
134100,note_on,0,0,3,,,,,,,,,2,,,48,101
134100,note_on,60,0,3,,,,,,,,,2,,,36,0
134100,note_on,0,0,1,,,,,,,,,0,,,60,114
134160,note_on,60,0,1,,,,,,,,,0,,,60,0
134160,note_on,0,0,1,,,,,,,,,0,,,60,114
134160,note_on,60,0,3,,,,,,,,,2,,,48,0
134160,note_on,0,0,3,,,,,,,,,2,,,48,101
134166,note_on,6,0,3,,,,,,,,,2,,,48,0
134166,note_on,6,0,1,,,,,,,,,0,,,60,0
134220,note_on,54,0,3,,,,,,,,,2,,,48,101
134220,note_on,54,0,1,,,,,,,,,0,,,60,114
134226,note_on,6,0,3,,,,,,,,,2,,,48,0
134226,note_on,6,0,1,,,,,,,,,0,,,60,0
134280,note_on,54,0,1,,,,,,,,,0,,,60,114
134280,note_on,54,0,3,,,,,,,,,2,,,48,101
134292,note_on,12,0,1,,,,,,,,,0,,,60,0
134292,note_on,12,0,3,,,,,,,,,2,,,48,0
134400,note_on,0,0,1,,,,,,,,,0,,,55,49
134400,control_change,108,0,1,,,,,,,,,0,64,0,,
134400,note_on,0,0,1,,,,,,,,,0,,,62,49
134400,note_on,0,0,3,,,,,,,,,2,,,43,36
134400,control_change,108,0,3,,,,,,,,,2,64,0,,
134400,note_on,0,0,1,,,,,,,,,0,,,59,49
134412,note_on,12,0,1,,,,,,,,,0,,,62,0
134412,note_on,0,0,1,,,,,,,,,0,,,59,0
134412,note_on,12,0,3,,,,,,,,,2,,,43,0
134412,note_on,0,0,1,,,,,,,,,0,,,55,0
134520,note_on,108,0,3,,,,,,,,,2,,,48,36
134520,note_on,108,0,1,,,,,,,,,0,,,55,49
134520,note_on,0,0,1,,,,,,,,,0,,,64,49
134520,note_on,0,0,1,,,,,,,,,0,,,60,49
134532,note_on,0,0,1,,,,,,,,,0,,,55,0
134532,note_on,12,0,1,,,,,,,,,0,,,64,0
134532,note_on,12,0,3,,,,,,,,,2,,,48,0
134532,note_on,0,0,1,,,,,,,,,0,,,60,0
134640,note_on,0,0,1,,,,,,,,,0,,,59,49
134640,note_on,108,0,1,,,,,,,,,0,,,55,49
134640,note_on,108,0,3,,,,,,,,,2,,,43,36
134640,note_on,0,0,1,,,,,,,,,0,,,62,49
134652,note_on,0,0,1,,,,,,,,,0,,,59,0
134652,note_on,12,0,1,,,,,,,,,0,,,62,0
134652,note_on,12,0,3,,,,,,,,,2,,,43,0
134652,note_on,0,0,1,,,,,,,,,0,,,55,0
134760,note_on,108,0,3,,,,,,,,,2,,,48,36
134760,note_on,108,0,1,,,,,,,,,0,,,55,49
134760,note_on,0,0,1,,,,,,,,,0,,,60,49
134760,note_on,0,0,1,,,,,,,,,0,,,64,49
134772,note_on,0,0,1,,,,,,,,,0,,,55,0
134772,note_on,12,0,3,,,,,,,,,2,,,48,0
134772,note_on,12,0,1,,,,,,,,,0,,,64,0
134772,note_on,0,0,1,,,,,,,,,0,,,60,0
134880,note_on,108,0,1,,,,,,,,,0,,,55,49
134880,note_on,0,0,1,,,,,,,,,0,,,59,49
134880,note_on,0,0,1,,,,,,,,,0,,,62,49
134880,note_on,108,0,3,,,,,,,,,2,,,43,36
134892,note_on,12,0,1,,,,,,,,,0,,,62,0
134892,note_on,0,0,1,,,,,,,,,0,,,59,0
134892,note_on,0,0,1,,,,,,,,,0,,,55,0
134892,note_on,12,0,3,,,,,,,,,2,,,43,0
135000,note_on,0,0,3,,,,,,,,,2,,,36,101
135000,control_change,108,0,3,,,,,,,,,2,64,127,,
135000,control_change,108,0,1,,,,,,,,,0,64,127,,
135000,note_on,0,0,1,,,,,,,,,0,,,72,114
135060,note_on,60,0,1,,,,,,,,,0,,,72,0
135060,note_on,60,0,3,,,,,,,,,2,,,36,0
135060,note_on,0,0,3,,,,,,,,,2,,,48,101
135060,note_on,0,0,1,,,,,,,,,0,,,60,114
135120,note_on,60,0,1,,,,,,,,,0,,,60,0
135120,note_on,60,0,3,,,,,,,,,2,,,48,0
135120,note_on,0,0,3,,,,,,,,,2,,,48,101
135120,note_on,0,0,1,,,,,,,,,0,,,60,114
135126,note_on,6,0,3,,,,,,,,,2,,,48,0
135126,note_on,6,0,1,,,,,,,,,0,,,60,0
135180,note_on,54,0,1,,,,,,,,,0,,,60,114
135180,note_on,54,0,3,,,,,,,,,2,,,48,101
135186,note_on,6,0,3,,,,,,,,,2,,,48,0
135186,note_on,6,0,1,,,,,,,,,0,,,60,0
135240,control_change,54,0,1,,,,,,,,,0,64,0,,
135240,note_on,0,0,1,,,,,,,,,0,,,60,114
135240,note_on,0,0,3,,,,,,,,,2,,,48,101
135240,control_change,54,0,3,,,,,,,,,2,64,0,,
135252,note_on,12,0,1,,,,,,,,,0,,,60,0
135252,note_on,12,0,3,,,,,,,,,2,,,48,0
135360,note_on,108,0,3,,,,,,,,,2,,,43,36
135360,note_on,0,0,1,,,,,,,,,0,,,62,49
135360,note_on,0,0,1,,,,,,,,,0,,,59,49
135360,note_on,108,0,1,,,,,,,,,0,,,55,49
135372,note_on,12,0,1,,,,,,,,,0,,,62,0
135372,note_on,12,0,3,,,,,,,,,2,,,43,0
135372,note_on,0,0,1,,,,,,,,,0,,,55,0
135372,note_on,0,0,1,,,,,,,,,0,,,59,0
135480,note_on,108,0,3,,,,,,,,,2,,,48,36
135480,note_on,108,0,1,,,,,,,,,0,,,55,49
135480,note_on,0,0,1,,,,,,,,,0,,,60,49
135480,note_on,0,0,1,,,,,,,,,0,,,64,49
135492,note_on,0,0,1,,,,,,,,,0,,,60,0
135492,note_on,12,0,3,,,,,,,,,2,,,48,0
135492,note_on,12,0,1,,,,,,,,,0,,,64,0
135492,note_on,0,0,1,,,,,,,,,0,,,55,0
135600,note_on,108,0,3,,,,,,,,,2,,,43,36
135600,note_on,108,0,1,,,,,,,,,0,,,55,49
135600,note_on,0,0,1,,,,,,,,,0,,,59,49
135600,note_on,0,0,1,,,,,,,,,0,,,62,49
135612,note_on,0,0,1,,,,,,,,,0,,,55,0
135612,note_on,0,0,1,,,,,,,,,0,,,59,0
135612,note_on,12,0,1,,,,,,,,,0,,,62,0
135612,note_on,12,0,3,,,,,,,,,2,,,43,0
135720,note_on,108,0,3,,,,,,,,,2,,,48,36
135720,note_on,108,0,1,,,,,,,,,0,,,55,49
135720,note_on,0,0,1,,,,,,,,,0,,,60,49
135720,note_on,0,0,1,,,,,,,,,0,,,64,49
135732,note_on,12,0,3,,,,,,,,,2,,,48,0
135732,note_on,12,0,1,,,,,,,,,0,,,64,0
135732,note_on,0,0,1,,,,,,,,,0,,,60,0
135732,note_on,0,0,1,,,,,,,,,0,,,55,0
135840,note_on,0,0,1,,,,,,,,,0,,,63,49
135840,note_on,0,0,1,,,,,,,,,0,,,66,49
135840,note_on,108,0,3,,,,,,,,,2,,,43,36
135840,note_on,108,0,1,,,,,,,,,0,,,59,49
135852,note_on,12,0,1,,,,,,,,,0,,,66,0
135852,note_on,0,0,1,,,,,,,,,0,,,63,0
135852,note_on,0,0,1,,,,,,,,,0,,,59,0
135852,note_on,12,0,3,,,,,,,,,2,,,43,0
135960,control_change,108,0,1,,,,,,,,,0,64,127,,
135960,note_on,0,0,1,,,,,,,,,0,,,62,114
135960,note_on,0,0,1,,,,,,,,,0,,,65,114
135960,note_on,0,0,1,,,,,,,,,0,,,67,114
135960,note_on,0,0,3,,,,,,,,,2,,,35,101
135960,control_change,108,0,3,,,,,,,,,2,64,127,,
136020,note_on,0,0,3,,,,,,,,,2,,,47,101
136020,note_on,0,0,1,,,,,,,,,0,,,55,114
136020,note_on,60,0,3,,,,,,,,,2,,,35,0
136020,note_on,60,0,1,,,,,,,,,0,,,67,0
136020,note_on,0,0,1,,,,,,,,,0,,,65,0
136020,note_on,0,0,1,,,,,,,,,0,,,62,0
136080,note_on,0,0,3,,,,,,,,,2,,,47,101
136080,note_on,60,0,3,,,,,,,,,2,,,47,0
136080,note_on,0,0,1,,,,,,,,,0,,,67,114
136080,note_on,0,0,1,,,,,,,,,0,,,65,114
136080,note_on,60,0,1,,,,,,,,,0,,,55,0
136080,note_on,0,0,1,,,,,,,,,0,,,62,114
136086,note_on,0,0,1,,,,,,,,,0,,,62,0
136086,note_on,6,0,1,,,,,,,,,0,,,67,0
136086,note_on,0,0,1,,,,,,,,,0,,,65,0
136086,note_on,6,0,3,,,,,,,,,2,,,47,0
136140,note_on,54,0,3,,,,,,,,,2,,,47,101
136140,note_on,54,0,1,,,,,,,,,0,,,62,114
136140,note_on,0,0,1,,,,,,,,,0,,,65,114
136140,note_on,0,0,1,,,,,,,,,0,,,67,114
136146,note_on,0,0,1,,,,,,,,,0,,,62,0
136146,note_on,0,0,1,,,,,,,,,0,,,65,0
136146,note_on,6,0,3,,,,,,,,,2,,,47,0
136146,note_on,6,0,1,,,,,,,,,0,,,67,0
136200,note_on,0,0,3,,,,,,,,,2,,,47,101
136200,control_change,54,0,1,,,,,,,,,0,64,0,,
136200,note_on,0,0,1,,,,,,,,,0,,,62,114
136200,control_change,54,0,3,,,,,,,,,2,64,0,,
136200,note_on,0,0,1,,,,,,,,,0,,,65,114
136200,note_on,0,0,1,,,,,,,,,0,,,67,114
136212,note_on,12,0,1,,,,,,,,,0,,,67,0
136212,note_on,12,0,3,,,,,,,,,2,,,47,0
136212,note_on,0,0,1,,,,,,,,,0,,,62,0
136212,note_on,0,0,1,,,,,,,,,0,,,65,0
136320,note_on,0,0,1,,,,,,,,,0,,,65,114
136320,note_on,0,0,1,,,,,,,,,0,,,68,114
136320,note_on,108,0,3,,,,,,,,,2,,,46,101
136320,note_on,108,0,1,,,,,,,,,0,,,62,114
136332,note_on,12,0,3,,,,,,,,,2,,,46,0
136332,note_on,0,0,1,,,,,,,,,0,,,62,0
136332,note_on,0,0,1,,,,,,,,,0,,,65,0
136332,note_on,12,0,1,,,,,,,,,0,,,68,0
136440,note_on,0,0,1,,,,,,,,,0,,,65,114
136440,note_on,0,0,1,,,,,,,,,0,,,67,114
136440,control_change,108,0,1,,,,,,,,,0,64,127,,
136440,note_on,0,0,3,,,,,,,,,2,,,47,101
136440,control_change,108,0,3,,,,,,,,,2,64,127,,
136440,note_on,0,0,1,,,,,,,,,0,,,62,114
136500,note_on,60,0,1,,,,,,,,,0,,,67,0
136500,note_on,0,0,1,,,,,,,,,0,,,65,0
136500,note_on,0,0,1,,,,,,,,,0,,,62,0
136500,note_on,0,0,3,,,,,,,,,2,,,35,101
136500,note_on,60,0,3,,,,,,,,,2,,,47,0
136500,note_on,0,0,1,,,,,,,,,0,,,55,114
136560,note_on,0,0,3,,,,,,,,,2,,,47,101
136560,note_on,60,0,3,,,,,,,,,2,,,35,0
136560,note_on,0,0,1,,,,,,,,,0,,,62,114
136560,note_on,0,0,1,,,,,,,,,0,,,67,114
136560,note_on,0,0,1,,,,,,,,,0,,,65,114
136560,note_on,60,0,1,,,,,,,,,0,,,55,0
136566,note_on,0,0,1,,,,,,,,,0,,,65,0
136566,note_on,0,0,1,,,,,,,,,0,,,62,0
136566,note_on,6,0,1,,,,,,,,,0,,,67,0
136566,note_on,6,0,3,,,,,,,,,2,,,47,0
136620,note_on,0,0,1,,,,,,,,,0,,,67,114
136620,note_on,0,0,1,,,,,,,,,0,,,65,114
136620,note_on,54,0,1,,,,,,,,,0,,,62,114
136620,note_on,54,0,3,,,,,,,,,2,,,47,101
136626,note_on,6,0,3,,,,,,,,,2,,,47,0
136626,note_on,0,0,1,,,,,,,,,0,,,62,0
136626,note_on,0,0,1,,,,,,,,,0,,,65,0
136626,note_on,6,0,1,,,,,,,,,0,,,67,0
136680,note_on,0,0,1,,,,,,,,,0,,,65,114
136680,note_on,0,0,1,,,,,,,,,0,,,67,114
136680,note_on,54,0,1,,,,,,,,,0,,,62,114
136680,note_on,54,0,3,,,,,,,,,2,,,47,101
136692,note_on,12,0,3,,,,,,,,,2,,,47,0
136692,note_on,0,0,1,,,,,,,,,0,,,62,0
136692,note_on,12,0,1,,,,,,,,,0,,,67,0
136692,note_on,0,0,1,,,,,,,,,0,,,65,0
136800,control_change,108,0,3,,,,,,,,,2,64,0,,
136800,control_change,108,0,1,,,,,,,,,0,64,0,,
136800,note_on,0,0,1,,,,,,,,,0,,,62,114
136800,note_on,0,0,1,,,,,,,,,0,,,65,114
136800,note_on,0,0,1,,,,,,,,,0,,,68,114
136800,note_on,0,0,3,,,,,,,,,2,,,46,101
136812,note_on,12,0,1,,,,,,,,,0,,,68,0
136812,note_on,0,0,1,,,,,,,,,0,,,65,0
136812,note_on,0,0,1,,,,,,,,,0,,,62,0
136812,note_on,12,0,3,,,,,,,,,2,,,46,0
136920,note_on,108,0,3,,,,,,,,,2,,,47,101
136920,note_on,0,0,1,,,,,,,,,0,,,65,114
136920,note_on,0,0,1,,,,,,,,,0,,,67,114
136920,note_on,108,0,1,,,,,,,,,0,,,62,114
136932,note_on,0,0,1,,,,,,,,,0,,,65,0
136932,note_on,0,0,1,,,,,,,,,0,,,62,0
136932,note_on,12,0,3,,,,,,,,,2,,,47,0
136932,note_on,12,0,1,,,,,,,,,0,,,67,0
137040,note_on,108,0,1,,,,,,,,,0,,,62,114
137040,note_on,0,0,1,,,,,,,,,0,,,65,114
137040,note_on,108,0,3,,,,,,,,,2,,,46,101
137040,note_on,0,0,1,,,,,,,,,0,,,68,114
137052,note_on,12,0,3,,,,,,,,,2,,,46,0
137052,note_on,0,0,1,,,,,,,,,0,,,62,0
137052,note_on,0,0,1,,,,,,,,,0,,,65,0
137052,note_on,12,0,1,,,,,,,,,0,,,68,0
137160,note_on,108,0,1,,,,,,,,,0,,,62,114
137160,note_on,108,0,3,,,,,,,,,2,,,47,101
137160,note_on,0,0,1,,,,,,,,,0,,,67,114
137160,note_on,0,0,1,,,,,,,,,0,,,65,114
137172,note_on,12,0,1,,,,,,,,,0,,,67,0
137172,note_on,0,0,1,,,,,,,,,0,,,65,0
137172,note_on,0,0,1,,,,,,,,,0,,,62,0
137172,note_on,12,0,3,,,,,,,,,2,,,47,0
137280,note_on,108,0,1,,,,,,,,,0,,,62,114
137280,note_on,0,0,1,,,,,,,,,0,,,68,114
137280,note_on,0,0,1,,,,,,,,,0,,,65,114
137280,note_on,108,0,3,,,,,,,,,2,,,46,101
137292,note_on,12,0,3,,,,,,,,,2,,,46,0
137292,note_on,12,0,1,,,,,,,,,0,,,68,0
137292,note_on,0,0,1,,,,,,,,,0,,,65,0
137292,note_on,0,0,1,,,,,,,,,0,,,62,0
137400,note_on,108,0,1,,,,,,,,,0,,,62,114
137400,note_on,0,0,1,,,,,,,,,0,,,65,114
137400,note_on,0,0,1,,,,,,,,,0,,,69,114
137400,note_on,108,0,3,,,,,,,,,2,,,45,101
137412,note_on,12,0,3,,,,,,,,,2,,,45,0
137412,note_on,12,0,1,,,,,,,,,0,,,69,0
137412,note_on,0,0,1,,,,,,,,,0,,,65,0
137412,note_on,0,0,1,,,,,,,,,0,,,62,0
137520,note_on,108,0,3,,,,,,,,,2,,,44,101
137520,note_on,108,0,1,,,,,,,,,0,,,62,114
137520,note_on,0,0,1,,,,,,,,,0,,,65,114
137520,note_on,0,0,1,,,,,,,,,0,,,70,114
137532,note_on,12,0,3,,,,,,,,,2,,,44,0
137532,note_on,12,0,1,,,,,,,,,0,,,70,0
137532,note_on,0,0,1,,,,,,,,,0,,,65,0
137532,note_on,0,0,1,,,,,,,,,0,,,62,0
137640,note_on,108,0,3,,,,,,,,,2,,,43,101
137640,note_on,108,0,1,,,,,,,,,0,,,62,114
137640,note_on,0,0,1,,,,,,,,,0,,,65,114
137640,note_on,0,0,1,,,,,,,,,0,,,71,114
137652,note_on,0,0,1,,,,,,,,,0,,,65,0
137652,note_on,12,0,1,,,,,,,,,0,,,71,0
137652,note_on,12,0,3,,,,,,,,,2,,,43,0
137652,note_on,0,0,1,,,,,,,,,0,,,62,0
137760,note_on,108,0,1,,,,,,,,,0,,,63,114
137760,note_on,0,0,1,,,,,,,,,0,,,69,114
137760,note_on,0,0,1,,,,,,,,,0,,,72,114
137760,note_on,108,0,3,,,,,,,,,2,,,42,101
137772,note_on,12,0,1,,,,,,,,,0,,,72,0
137772,note_on,0,0,1,,,,,,,,,0,,,69,0
137772,note_on,0,0,1,,,,,,,,,0,,,63,0
137772,note_on,12,0,3,,,,,,,,,2,,,42,0
137880,note_on,0,0,1,,,,,,,,,0,,,61,114
137880,note_on,0,0,1,,,,,,,,,0,,,64,114
137880,note_on,0,0,1,,,,,,,,,0,,,69,114
137880,note_on,0,0,3,,,,,,,,,2,,,40,101
137880,control_change,108,0,3,,,,,,,,,2,64,127,,
137880,control_change,108,0,1,,,,,,,,,0,64,127,,
137940,note_on,0,0,1,,,,,,,,,0,,,61,0
137940,note_on,0,0,1,,,,,,,,,0,,,73,114
137940,note_on,0,0,1,,,,,,,,,0,,,64,0
137940,note_on,60,0,1,,,,,,,,,0,,,69,0
138000,note_on,0,0,1,,,,,,,,,0,,,69,114
138000,note_on,0,0,1,,,,,,,,,0,,,73,114
138000,note_on,60,0,1,,,,,,,,,0,,,73,0
138000,note_on,0,0,3,,,,,,,,,2,,,52,101
138000,note_on,120,0,3,,,,,,,,,2,,,40,0
138000,note_on,0,0,3,,,,,,,,,2,,,40,101
138000,note_on,0,0,1,,,,,,,,,0,,,64,114
138006,note_on,0,0,3,,,,,,,,,2,,,40,0
138006,note_on,0,0,1,,,,,,,,,0,,,69,0
138006,note_on,0,0,1,,,,,,,,,0,,,64,0
138006,note_on,6,0,3,,,,,,,,,2,,,52,0
138006,note_on,6,0,1,,,,,,,,,0,,,73,0
138060,note_on,0,0,3,,,,,,,,,2,,,52,101
138060,note_on,54,0,3,,,,,,,,,2,,,40,101
138060,note_on,0,0,1,,,,,,,,,0,,,69,114
138060,note_on,0,0,1,,,,,,,,,0,,,73,114
138060,note_on,54,0,1,,,,,,,,,0,,,64,114
138066,note_on,6,0,3,,,,,,,,,2,,,52,0
138066,note_on,0,0,1,,,,,,,,,0,,,64,0
138066,note_on,0,0,1,,,,,,,,,0,,,69,0
138066,note_on,6,0,1,,,,,,,,,0,,,73,0
138066,note_on,0,0,3,,,,,,,,,2,,,40,0
138120,note_on,0,0,3,,,,,,,,,2,,,52,101
138120,note_on,54,0,3,,,,,,,,,2,,,40,101
138120,note_on,0,0,1,,,,,,,,,0,,,73,114
138120,note_on,54,0,1,,,,,,,,,0,,,64,114
138120,note_on,0,0,1,,,,,,,,,0,,,69,114
138132,note_on,12,0,3,,,,,,,,,2,,,52,0
138132,note_on,12,0,1,,,,,,,,,0,,,73,0
138132,note_on,0,0,1,,,,,,,,,0,,,69,0
138132,note_on,0,0,1,,,,,,,,,0,,,64,0
138132,note_on,0,0,3,,,,,,,,,2,,,40,0
138240,note_on,0,0,3,,,,,,,,,2,,,52,101
138240,note_on,0,0,3,,,,,,,,,2,,,40,101
138240,control_change,108,0,3,,,,,,,,,2,64,0,,
138240,note_on,0,0,1,,,,,,,,,0,,,75,114
138240,note_on,0,0,1,,,,,,,,,0,,,66,114
138240,control_change,108,0,1,,,,,,,,,0,64,0,,
138240,note_on,0,0,1,,,,,,,,,0,,,69,114
138240,note_on,0,0,1,,,,,,,,,0,,,72,114
138252,note_on,12,0,3,,,,,,,,,2,,,52,0
138252,note_on,0,0,3,,,,,,,,,2,,,40,0
138252,note_on,0,0,1,,,,,,,,,0,,,72,0
138252,note_on,0,0,1,,,,,,,,,0,,,69,0
138252,note_on,0,0,1,,,,,,,,,0,,,66,0
138252,note_on,12,0,1,,,,,,,,,0,,,75,0
138360,note_on,0,0,2,,,,,,,,,1,,,71,49
138360,note_on,0,0,1,,,,,,,,,0,,,78,114
138360,note_on,0,0,1,,,,,,,,,0,,,74,114
138360,control_change,108,0,1,,,,,,,,,0,64,127,,
138360,control_change,15840,0,2,,,,,,,,,1,64,127,,
138360,note_on,0,0,2,,,,,,,,,1,,,68,49
138360,note_on,0,0,3,,,,,,,,,2,,,40,101
138360,note_on,0,0,3,,,,,,,,,2,,,52,101
138360,control_change,108,0,3,,,,,,,,,2,64,127,,
138420,note_on,0,0,1,,,,,,,,,0,,,76,114
138420,note_on,0,0,1,,,,,,,,,0,,,74,0
138420,note_on,60,0,1,,,,,,,,,0,,,78,0
138480,note_on,0,0,2,,,,,,,,,1,,,71,49
138480,note_on,60,0,1,,,,,,,,,0,,,76,0
138480,note_on,0,0,3,,,,,,,,,2,,,62,101
138480,note_on,0,0,3,,,,,,,,,2,,,52,101
138480,note_on,0,0,3,,,,,,,,,2,,,40,0
138480,note_on,120,0,3,,,,,,,,,2,,,52,0
138480,note_on,0,0,1,,,,,,,,,0,,,74,114
138480,note_on,120,0,2,,,,,,,,,1,,,71,0
138480,note_on,0,0,2,,,,,,,,,1,,,68,49
138480,note_on,0,0,3,,,,,,,,,2,,,59,101
138480,note_on,0,0,1,,,,,,,,,0,,,76,114
138480,note_on,0,0,2,,,,,,,,,1,,,68,0
138486,note_on,0,0,2,,,,,,,,,1,,,68,0
138486,note_on,6,0,3,,,,,,,,,2,,,62,0
138486,note_on,0,0,3,,,,,,,,,2,,,59,0
138486,note_on,0,0,3,,,,,,,,,2,,,52,0
138486,note_on,0,0,1,,,,,,,,,0,,,74,0
138486,note_on,6,0,1,,,,,,,,,0,,,76,0
138486,note_on,6,0,2,,,,,,,,,1,,,71,0
138540,note_on,54,0,3,,,,,,,,,2,,,52,101
138540,note_on,0,0,3,,,,,,,,,2,,,59,101
138540,note_on,0,0,3,,,,,,,,,2,,,62,101
138540,control_change,54,0,2,,,,,,,,,1,64,0,,
138540,note_on,0,0,2,,,,,,,,,1,,,71,49
138540,note_on,54,0,1,,,,,,,,,0,,,74,114
138540,note_on,0,0,1,,,,,,,,,0,,,76,114
138540,note_on,0,0,2,,,,,,,,,1,,,68,49
138546,note_on,6,0,1,,,,,,,,,0,,,76,0
138546,note_on,0,0,1,,,,,,,,,0,,,74,0
138546,note_on,0,0,2,,,,,,,,,1,,,68,0
138546,note_on,6,0,2,,,,,,,,,1,,,71,0
138546,note_on,6,0,3,,,,,,,,,2,,,62,0
138546,note_on,0,0,3,,,,,,,,,2,,,59,0
138546,note_on,0,0,3,,,,,,,,,2,,,52,0
138600,note_on,0,0,1,,,,,,,,,0,,,74,114
138600,note_on,0,0,1,,,,,,,,,0,,,76,114
138600,note_on,54,0,1,,,,,,,,,0,,,68,114
138600,note_on,0,0,3,,,,,,,,,2,,,62,101
138600,note_on,0,0,1,,,,,,,,,0,,,71,114
138600,note_on,54,0,3,,,,,,,,,2,,,52,101
138600,note_on,0,0,3,,,,,,,,,2,,,59,101
138612,note_on,0,0,3,,,,,,,,,2,,,59,0
138612,note_on,0,0,3,,,,,,,,,2,,,52,0
138612,note_on,0,0,1,,,,,,,,,0,,,74,0
138612,note_on,0,0,1,,,,,,,,,0,,,71,0
138612,note_on,0,0,1,,,,,,,,,0,,,68,0
138612,note_on,12,0,1,,,,,,,,,0,,,76,0
138612,note_on,12,0,3,,,,,,,,,2,,,62,0
138720,note_on,0,0,3,,,,,,,,,2,,,62,101
138720,control_change,108,0,3,,,,,,,,,2,64,0,,
138720,note_on,0,0,3,,,,,,,,,2,,,59,101
138720,note_on,0,0,3,,,,,,,,,2,,,52,101
138720,note_on,0,0,1,,,,,,,,,0,,,68,114
138720,note_on,0,0,1,,,,,,,,,0,,,71,114
138720,note_on,0,0,1,,,,,,,,,0,,,74,114
138720,note_on,0,0,1,,,,,,,,,0,,,76,114
138720,control_change,108,0,1,,,,,,,,,0,64,0,,
138732,note_on,12,0,1,,,,,,,,,0,,,76,0
138732,note_on,0,0,1,,,,,,,,,0,,,68,0
138732,note_on,12,0,3,,,,,,,,,2,,,62,0
138732,note_on,0,0,3,,,,,,,,,2,,,59,0
138732,note_on,0,0,1,,,,,,,,,0,,,71,0
138732,note_on,0,0,3,,,,,,,,,2,,,52,0
138732,note_on,0,0,1,,,,,,,,,0,,,74,0
138840,note_on,108,0,1,,,,,,,,,0,,,76,88
138840,note_on,108,0,3,,,,,,,,,2,,,45,75
138840,key_signature,52320,1,0,,,,,A,,,,,,,,
138900,note_on,0,0,1,,,,,,,,,0,,,64,49
138900,note_on,60,0,1,,,,,,,,,0,,,76,0
138960,note_on,60,0,1,,,,,,,,,0,,,64,0
138960,note_on,0,0,3,,,,,,,,,2,,,52,36
138960,note_on,120,0,3,,,,,,,,,2,,,45,0
138960,note_on,0,0,1,,,,,,,,,0,,,64,49
138960,note_on,0,0,3,,,,,,,,,2,,,61,36
138966,note_on,6,0,1,,,,,,,,,0,,,64,0
138966,note_on,0,0,3,,,,,,,,,2,,,52,0
138966,note_on,6,0,3,,,,,,,,,2,,,61,0
139020,note_on,54,0,1,,,,,,,,,0,,,64,49
139020,note_on,0,0,3,,,,,,,,,2,,,61,36
139020,note_on,54,0,3,,,,,,,,,2,,,52,36
139026,note_on,6,0,1,,,,,,,,,0,,,64,0
139026,note_on,6,0,3,,,,,,,,,2,,,61,0
139026,note_on,0,0,3,,,,,,,,,2,,,52,0
139080,note_on,0,0,3,,,,,,,,,2,,,61,36
139080,note_on,54,0,3,,,,,,,,,2,,,52,36
139080,note_on,54,0,1,,,,,,,,,0,,,64,49
139086,note_on,6,0,1,,,,,,,,,0,,,64,0
139140,note_on,54,0,1,,,,,,,,,0,,,64,49
139146,note_on,6,0,1,,,,,,,,,0,,,64,0
139200,note_on,0,0,3,,,,,,,,,2,,,62,36
139200,note_on,0,0,3,,,,,,,,,2,,,52,36
139200,note_on,0,0,3,,,,,,,,,2,,,52,0
139200,note_on,120,0,3,,,,,,,,,2,,,61,0
139200,note_on,54,0,1,,,,,,,,,0,,,68,49
139260,note_on,0,0,1,,,,,,,,,0,,,71,49
139260,note_on,60,0,1,,,,,,,,,0,,,68,0
139320,note_on,0,0,1,,,,,,,,,0,,,69,49
139320,note_on,60,0,1,,,,,,,,,0,,,71,0
139320,note_on,0,0,3,,,,,,,,,2,,,52,0
139320,note_on,0,0,3,,,,,,,,,2,,,61,36
139320,note_on,0,0,3,,,,,,,,,2,,,52,36
139320,note_on,120,0,3,,,,,,,,,2,,,62,0
139380,note_on,60,0,1,,,,,,,,,0,,,69,0
139380,note_on,0,0,1,,,,,,,,,0,,,64,49
139440,note_on,0,0,3,,,,,,,,,2,,,52,36
139440,note_on,0,0,3,,,,,,,,,2,,,52,0
139440,note_on,60,0,1,,,,,,,,,0,,,64,0
139440,note_on,0,0,1,,,,,,,,,0,,,68,49
139440,note_on,0,0,3,,,,,,,,,2,,,62,36
139440,note_on,120,0,3,,,,,,,,,2,,,61,0
139500,note_on,0,0,1,,,,,,,,,0,,,71,49
139500,note_on,60,0,1,,,,,,,,,0,,,68,0
139560,note_on,0,0,3,,,,,,,,,2,,,52,0
139560,note_on,60,0,1,,,,,,,,,0,,,71,0
139560,note_on,0,0,3,,,,,,,,,2,,,61,36
139560,note_on,0,0,3,,,,,,,,,2,,,52,36
139560,note_on,120,0,3,,,,,,,,,2,,,62,0
139560,note_on,0,0,1,,,,,,,,,0,,,69,49
139620,note_on,60,0,1,,,,,,,,,0,,,69,0
139620,note_on,0,0,1,,,,,,,,,0,,,64,49
139680,note_on,0,0,1,,,,,,,,,0,,,68,49
139680,note_on,0,0,3,,,,,,,,,2,,,62,36
139680,note_on,0,0,3,,,,,,,,,2,,,52,36
139680,note_on,0,0,3,,,,,,,,,2,,,52,0
139680,note_on,120,0,3,,,,,,,,,2,,,61,0
139680,note_on,60,0,1,,,,,,,,,0,,,64,0
139740,note_on,0,0,1,,,,,,,,,0,,,71,49
139740,note_on,60,0,1,,,,,,,,,0,,,68,0
139800,note_on,120,0,3,,,,,,,,,2,,,62,0
139800,note_on,60,0,1,,,,,,,,,0,,,71,0
139800,control_change,0,0,3,,,,,,,,,2,64,127,,
139800,control_change,0,0,1,,,,,,,,,0,64,127,,
139800,note_on,0,0,1,,,,,,,,,0,,,69,49
139800,note_on,0,0,3,,,,,,,,,2,,,52,0
139800,note_on,0,0,3,,,,,,,,,2,,,45,75
139860,note_on,60,0,1,,,,,,,,,0,,,69,0
139860,note_on,0,0,1,,,,,,,,,0,,,64,49
139920,note_on,0,0,3,,,,,,,,,2,,,52,49
139920,note_on,0,0,3,,,,,,,,,2,,,61,49
139920,note_on,120,0,3,,,,,,,,,2,,,45,0
139920,note_on,0,0,1,,,,,,,,,0,,,69,49
139920,note_on,60,0,1,,,,,,,,,0,,,64,0
139926,note_on,0,0,3,,,,,,,,,2,,,52,0
139926,note_on,6,0,3,,,,,,,,,2,,,61,0
139980,note_on,0,0,3,,,,,,,,,2,,,61,49
139980,note_on,54,0,3,,,,,,,,,2,,,52,49
139980,note_on,60,0,1,,,,,,,,,0,,,69,0
139980,note_on,0,0,1,,,,,,,,,0,,,73,49
139986,note_on,6,0,3,,,,,,,,,2,,,61,0
139986,note_on,0,0,3,,,,,,,,,2,,,52,0
140040,note_on,0,0,3,,,,,,,,,2,,,61,49
140040,note_on,0,0,1,,,,,,,,,0,,,76,49
140040,note_on,60,0,1,,,,,,,,,0,,,73,0
140040,note_on,54,0,3,,,,,,,,,2,,,52,49
140100,note_on,0,0,1,,,,,,,,,0,,,81,49
140100,note_on,60,0,1,,,,,,,,,0,,,76,0
140160,note_on,0,0,1,,,,,,,,,0,,,85,49
140160,note_on,60,0,1,,,,,,,,,0,,,81,0
140160,note_on,120,0,3,,,,,,,,,2,,,61,0
140160,note_on,0,0,3,,,,,,,,,2,,,52,0
140220,note_on,0,0,1,,,,,,,,,0,,,88,49
140220,note_on,60,0,1,,,,,,,,,0,,,85,0
140280,note_on,0,0,1,,,,,,,,,0,,,88,75
140280,note_on,60,0,1,,,,,,,,,0,,,88,0
140280,note_on,120,0,3,,,,,,,,,2,,,33,75
140280,note_on,0,0,3,,,,,,,,,2,,,45,75
140340,note_on,0,0,1,,,,,,,,,0,,,76,75
140340,note_on,60,0,1,,,,,,,,,0,,,88,0
140400,note_on,0,0,1,,,,,,,,,0,,,89,75
140400,note_on,120,0,3,,,,,,,,,2,,,45,0
140400,note_on,0,0,3,,,,,,,,,2,,,33,0
140400,control_change,0,0,3,,,,,,,,,2,64,0,,
140400,note_on,0,0,3,,,,,,,,,2,,,31,75
140400,note_on,0,0,3,,,,,,,,,2,,,43,75
140400,control_change,0,0,1,,,,,,,,,0,64,0,,
140400,note_on,60,0,1,,,,,,,,,0,,,76,0
140460,note_on,0,0,1,,,,,,,,,0,,,77,75
140460,note_on,60,0,1,,,,,,,,,0,,,89,0
140520,note_on,120,0,3,,,,,,,,,2,,,43,0
140520,note_on,60,0,1,,,,,,,,,0,,,77,0
140520,note_on,0,0,1,,,,,,,,,0,,,90,88
140520,note_on,0,0,3,,,,,,,,,2,,,42,75
140520,note_on,0,0,3,,,,,,,,,2,,,30,75
140520,note_on,0,0,3,,,,,,,,,2,,,31,0
140580,note_on,60,0,1,,,,,,,,,0,,,90,0
140580,note_on,0,0,1,,,,,,,,,0,,,78,88
140640,note_on,0,0,3,,,,,,,,,2,,,54,75
140640,note_on,0,0,3,,,,,,,,,2,,,58,75
140640,note_on,0,0,3,,,,,,,,,2,,,64,75
140640,note_on,120,0,3,,,,,,,,,2,,,42,0
140640,note_on,0,0,1,,,,,,,,,0,,,90,88
140640,note_on,60,0,1,,,,,,,,,0,,,78,0
140640,note_on,0,0,3,,,,,,,,,2,,,30,0
140652,note_on,0,0,3,,,,,,,,,2,,,54,0
140652,note_on,0,0,3,,,,,,,,,2,,,58,0
140652,note_on,12,0,3,,,,,,,,,2,,,64,0
140700,note_on,0,0,1,,,,,,,,,0,,,78,88
140700,note_on,60,0,1,,,,,,,,,0,,,90,0
140760,note_on,60,0,1,,,,,,,,,0,,,78,0
140760,note_on,108,0,3,,,,,,,,,2,,,47,75
140760,note_on,0,0,1,,,,,,,,,0,,,78,88
140820,note_on,0,0,1,,,,,,,,,0,,,66,49
140820,note_on,60,0,1,,,,,,,,,0,,,78,0
140880,note_on,120,0,3,,,,,,,,,2,,,47,0
140880,note_on,0,0,3,,,,,,,,,2,,,54,36
140880,note_on,60,0,1,,,,,,,,,0,,,66,0
140880,note_on,0,0,1,,,,,,,,,0,,,66,49
140880,note_on,0,0,3,,,,,,,,,2,,,62,36
140886,note_on,6,0,1,,,,,,,,,0,,,66,0
140886,note_on,6,0,3,,,,,,,,,2,,,62,0
140886,note_on,0,0,3,,,,,,,,,2,,,54,0
140940,note_on,54,0,1,,,,,,,,,0,,,66,49
140940,note_on,0,0,3,,,,,,,,,2,,,62,36
140940,note_on,54,0,3,,,,,,,,,2,,,54,36
140946,note_on,0,0,3,,,,,,,,,2,,,54,0
140946,note_on,6,0,3,,,,,,,,,2,,,62,0
140946,note_on,6,0,1,,,,,,,,,0,,,66,0
141000,note_on,0,0,3,,,,,,,,,2,,,62,36
141000,note_on,54,0,3,,,,,,,,,2,,,54,36
141000,note_on,54,0,1,,,,,,,,,0,,,66,49
141006,note_on,6,0,1,,,,,,,,,0,,,66,0
141060,note_on,54,0,1,,,,,,,,,0,,,66,49
141066,note_on,6,0,1,,,,,,,,,0,,,66,0
141120,note_on,0,0,3,,,,,,,,,2,,,64,36
141120,note_on,0,0,3,,,,,,,,,2,,,54,36
141120,note_on,0,0,3,,,,,,,,,2,,,54,0
141120,note_on,120,0,3,,,,,,,,,2,,,62,0
141120,note_on,54,0,1,,,,,,,,,0,,,70,49
141180,note_on,60,0,1,,,,,,,,,0,,,70,0
141180,note_on,0,0,1,,,,,,,,,0,,,73,49
141240,note_on,120,0,3,,,,,,,,,2,,,64,0
141240,note_on,0,0,3,,,,,,,,,2,,,54,36
141240,note_on,0,0,3,,,,,,,,,2,,,54,0
141240,note_on,0,0,1,,,,,,,,,0,,,71,49
141240,note_on,60,0,1,,,,,,,,,0,,,73,0
141240,note_on,0,0,3,,,,,,,,,2,,,62,36
141300,note_on,0,0,1,,,,,,,,,0,,,66,49
141300,note_on,60,0,1,,,,,,,,,0,,,71,0
141360,note_on,0,0,3,,,,,,,,,2,,,54,36
141360,note_on,120,0,3,,,,,,,,,2,,,62,0
141360,note_on,0,0,3,,,,,,,,,2,,,54,0
141360,note_on,0,0,1,,,,,,,,,0,,,70,49
141360,note_on,0,0,3,,,,,,,,,2,,,64,36
141360,note_on,60,0,1,,,,,,,,,0,,,66,0
141420,note_on,60,0,1,,,,,,,,,0,,,70,0
141420,note_on,0,0,1,,,,,,,,,0,,,73,49
141480,note_on,60,0,1,,,,,,,,,0,,,73,0
141480,note_on,0,0,1,,,,,,,,,0,,,71,49
141480,note_on,120,0,3,,,,,,,,,2,,,64,0
141480,note_on,0,0,3,,,,,,,,,2,,,54,0
141480,note_on,0,0,3,,,,,,,,,2,,,54,36
141480,note_on,0,0,3,,,,,,,,,2,,,62,36
141540,note_on,0,0,1,,,,,,,,,0,,,66,49
141540,note_on,60,0,1,,,,,,,,,0,,,71,0
141600,note_on,120,0,3,,,,,,,,,2,,,62,0
141600,note_on,0,0,3,,,,,,,,,2,,,54,36
141600,note_on,0,0,3,,,,,,,,,2,,,64,36
141600,note_on,60,0,1,,,,,,,,,0,,,66,0
141600,note_on,0,0,1,,,,,,,,,0,,,70,49
141600,note_on,0,0,3,,,,,,,,,2,,,54,0
141660,note_on,60,0,1,,,,,,,,,0,,,70,0
141660,note_on,0,0,1,,,,,,,,,0,,,73,49
141720,note_on,0,0,3,,,,,,,,,2,,,47,36
141720,control_change,0,0,3,,,,,,,,,2,64,127,,
141720,note_on,0,0,1,,,,,,,,,0,,,71,49
141720,note_on,60,0,1,,,,,,,,,0,,,73,0
141720,note_on,0,0,3,,,,,,,,,2,,,54,0
141720,control_change,0,0,1,,,,,,,,,0,64,127,,
141720,note_on,120,0,3,,,,,,,,,2,,,64,0
141780,note_on,60,0,1,,,,,,,,,0,,,71,0
141780,note_on,0,0,1,,,,,,,,,0,,,66,49
141840,note_on,60,0,1,,,,,,,,,0,,,66,0
141840,note_on,0,0,1,,,,,,,,,0,,,71,49
141840,note_on,0,0,3,,,,,,,,,2,,,62,36
141840,note_on,0,0,3,,,,,,,,,2,,,54,36
141840,note_on,120,0,3,,,,,,,,,2,,,47,0
141846,note_on,0,0,3,,,,,,,,,2,,,54,0
141846,note_on,6,0,3,,,,,,,,,2,,,62,0
141900,note_on,0,0,1,,,,,,,,,0,,,74,49
141900,note_on,60,0,1,,,,,,,,,0,,,71,0
141900,note_on,54,0,3,,,,,,,,,2,,,54,36
141900,note_on,0,0,3,,,,,,,,,2,,,62,36
141906,note_on,0,0,3,,,,,,,,,2,,,54,0
141906,note_on,6,0,3,,,,,,,,,2,,,62,0
141960,note_on,60,0,1,,,,,,,,,0,,,74,0
141960,note_on,0,0,3,,,,,,,,,2,,,62,36
141960,note_on,54,0,3,,,,,,,,,2,,,54,36
141960,note_on,0,0,1,,,,,,,,,0,,,78,49
142020,note_on,0,0,1,,,,,,,,,0,,,83,49
142020,note_on,60,0,1,,,,,,,,,0,,,78,0
142080,note_on,0,0,3,,,,,,,,,2,,,54,0
142080,note_on,0,0,1,,,,,,,,,0,,,86,49
142080,note_on,60,0,1,,,,,,,,,0,,,83,0
142080,note_on,120,0,3,,,,,,,,,2,,,62,0
142140,note_on,60,0,1,,,,,,,,,0,,,86,0
142140,note_on,0,0,1,,,,,,,,,0,,,90,49
142200,note_on,120,0,3,,,,,,,,,2,,,35,62
142200,note_on,0,0,3,,,,,,,,,2,,,47,62
142200,note_on,60,0,1,,,,,,,,,0,,,90,0
142200,note_on,0,0,1,,,,,,,,,0,,,90,75
142260,note_on,0,0,1,,,,,,,,,0,,,78,75
142260,note_on,60,0,1,,,,,,,,,0,,,90,0
142320,note_on,60,0,1,,,,,,,,,0,,,78,0
142320,note_on,0,0,3,,,,,,,,,2,,,45,62
142320,note_on,0,0,3,,,,,,,,,2,,,33,62
142320,note_on,0,0,3,,,,,,,,,2,,,35,0
142320,note_on,120,0,3,,,,,,,,,2,,,47,0
142320,note_on,0,0,1,,,,,,,,,0,,,90,75
142380,note_on,60,0,1,,,,,,,,,0,,,90,0
142380,note_on,0,0,1,,,,,,,,,0,,,78,75
142440,note_on,0,0,3,,,,,,,,,2,,,31,62
142440,note_on,0,0,3,,,,,,,,,2,,,33,0
142440,control_change,0,0,3,,,,,,,,,2,64,0,,
142440,note_on,60,0,1,,,,,,,,,0,,,78,0
142440,note_on,0,0,3,,,,,,,,,2,,,43,62
142440,control_change,0,0,1,,,,,,,,,0,64,0,,
142440,note_on,0,0,1,,,,,,,,,0,,,91,75
142440,note_on,120,0,3,,,,,,,,,2,,,45,0
142500,note_on,60,0,1,,,,,,,,,0,,,91,0
142500,note_on,0,0,1,,,,,,,,,0,,,79,75
142560,note_on,0,0,1,,,,,,,,,0,,,91,75
142560,note_on,0,0,3,,,,,,,,,2,,,29,62
142560,note_on,0,0,3,,,,,,,,,2,,,31,0
142560,note_on,120,0,3,,,,,,,,,2,,,43,0
142560,note_on,60,0,1,,,,,,,,,0,,,79,0
142560,note_on,0,0,3,,,,,,,,,2,,,41,62
142620,note_on,60,0,1,,,,,,,,,0,,,91,0
142620,note_on,0,0,1,,,,,,,,,0,,,79,75
142680,note_on,120,0,3,,,,,,,,,2,,,41,0
142680,note_on,0,0,3,,,,,,,,,2,,,29,0
142680,control_change,0,0,3,,,,,,,,,2,64,127,,
142680,note_on,0,0,3,,,,,,,,,2,,,28,75
142680,note_on,0,0,3,,,,,,,,,2,,,40,75
142680,control_change,0,0,1,,,,,,,,,0,64,127,,
142680,note_on,0,0,1,,,,,,,,,0,,,92,88
142680,note_on,60,0,1,,,,,,,,,0,,,79,0
142740,note_on,60,0,1,,,,,,,,,0,,,92,0
142740,note_on,0,0,1,,,,,,,,,0,,,80,88
142800,note_on,0,0,1,,,,,,,,,0,,,80,88
142800,note_on,60,0,1,,,,,,,,,0,,,80,0
142800,note_on,0,0,3,,,,,,,,,2,,,62,75
142800,note_on,0,0,1,,,,,,,,,0,,,74,88
142800,note_on,0,0,3,,,,,,,,,2,,,59,75
142800,note_on,0,0,3,,,,,,,,,2,,,52,75
142800,note_on,0,0,3,,,,,,,,,2,,,28,0
142800,note_on,120,0,3,,,,,,,,,2,,,40,0
142800,note_on,0,0,1,,,,,,,,,0,,,68,88
142806,note_on,0,0,1,,,,,,,,,0,,,74,0
142806,note_on,0,0,1,,,,,,,,,0,,,68,0
142806,note_on,6,0,3,,,,,,,,,2,,,62,0
142806,note_on,0,0,3,,,,,,,,,2,,,59,0
142806,note_on,0,0,3,,,,,,,,,2,,,52,0
142806,note_on,6,0,1,,,,,,,,,0,,,80,0
142860,note_on,0,0,3,,,,,,,,,2,,,62,75
142860,note_on,54,0,3,,,,,,,,,2,,,52,75
142860,note_on,0,0,3,,,,,,,,,2,,,59,75
142860,note_on,54,0,1,,,,,,,,,0,,,68,88
142860,note_on,0,0,1,,,,,,,,,0,,,80,88
142860,note_on,0,0,1,,,,,,,,,0,,,74,88
142866,note_on,6,0,1,,,,,,,,,0,,,80,0
142866,note_on,0,0,3,,,,,,,,,2,,,52,0
142866,note_on,0,0,3,,,,,,,,,2,,,59,0
142866,note_on,6,0,3,,,,,,,,,2,,,62,0
142866,note_on,0,0,1,,,,,,,,,0,,,68,0
142866,note_on,0,0,1,,,,,,,,,0,,,74,0
142920,note_on,0,0,1,,,,,,,,,0,,,80,88
142920,control_change,54,0,1,,,,,,,,,0,64,0,,
142920,note_on,0,0,1,,,,,,,,,0,,,74,88
142920,note_on,0,0,1,,,,,,,,,0,,,68,88
142920,control_change,54,0,3,,,,,,,,,2,64,0,,
142920,note_on,0,0,3,,,,,,,,,2,,,52,75
142920,note_on,0,0,3,,,,,,,,,2,,,59,75
142920,note_on,0,0,3,,,,,,,,,2,,,62,75
143040,note_on,0,0,3,,,,,,,,,2,,,59,101
143040,note_on,0,0,3,,,,,,,,,2,,,53,101
143040,note_on,0,0,3,,,,,,,,,2,,,52,0
143040,note_on,0,0,3,,,,,,,,,2,,,59,0
143040,note_on,120,0,3,,,,,,,,,2,,,62,0
143040,note_on,0,0,1,,,,,,,,,0,,,80,114
143040,note_on,0,0,1,,,,,,,,,0,,,74,114
143040,note_on,0,0,1,,,,,,,,,0,,,68,114
143040,note_on,0,0,3,,,,,,,,,2,,,62,101
143040,note_on,120,0,1,,,,,,,,,0,,,80,0
143040,note_on,0,0,1,,,,,,,,,0,,,74,0
143040,note_on,0,0,1,,,,,,,,,0,,,68,0
143052,note_on,0,0,3,,,,,,,,,2,,,53,0
143052,note_on,12,0,3,,,,,,,,,2,,,62,0
143052,note_on,12,0,1,,,,,,,,,0,,,80,0
143052,note_on,0,0,3,,,,,,,,,2,,,59,0
143052,note_on,0,0,1,,,,,,,,,0,,,68,0
143052,note_on,0,0,1,,,,,,,,,0,,,74,0
143160,note_on,0,0,3,,,,,,,,,2,,,42,101
143160,control_change,108,0,1,,,,,,,,,0,64,127,,
143160,note_on,0,0,1,,,,,,,,,0,,,69,114
143160,note_on,0,0,1,,,,,,,,,0,,,81,114
143160,control_change,108,0,3,,,,,,,,,2,64,127,,
143220,note_on,60,0,1,,,,,,,,,0,,,81,0
143220,note_on,0,0,1,,,,,,,,,0,,,69,0
143220,note_on,0,0,1,,,,,,,,,0,,,73,114
143280,note_on,0,0,1,,,,,,,,,0,,,69,114
143280,note_on,0,0,3,,,,,,,,,2,,,57,101
143280,note_on,0,0,3,,,,,,,,,2,,,61,101
143280,note_on,60,0,1,,,,,,,,,0,,,73,0
143280,note_on,0,0,1,,,,,,,,,0,,,73,114
143280,note_on,0,0,3,,,,,,,,,2,,,54,101
143280,note_on,120,0,3,,,,,,,,,2,,,42,0
143286,note_on,6,0,1,,,,,,,,,0,,,73,0
143286,note_on,0,0,3,,,,,,,,,2,,,54,0
143286,note_on,6,0,3,,,,,,,,,2,,,61,0
143286,note_on,0,0,1,,,,,,,,,0,,,69,0
143286,note_on,0,0,3,,,,,,,,,2,,,57,0
143340,note_on,0,0,1,,,,,,,,,0,,,73,114
143340,note_on,54,0,1,,,,,,,,,0,,,69,114
143340,note_on,0,0,3,,,,,,,,,2,,,61,101
143340,note_on,54,0,3,,,,,,,,,2,,,54,101
143340,note_on,0,0,3,,,,,,,,,2,,,57,101
143346,note_on,0,0,1,,,,,,,,,0,,,69,0
143346,note_on,6,0,1,,,,,,,,,0,,,73,0
143346,note_on,0,0,3,,,,,,,,,2,,,54,0
143346,note_on,0,0,3,,,,,,,,,2,,,57,0
143346,note_on,6,0,3,,,,,,,,,2,,,61,0
143400,note_on,0,0,3,,,,,,,,,2,,,57,101
143400,note_on,0,0,3,,,,,,,,,2,,,54,101
143400,note_on,0,0,3,,,,,,,,,2,,,61,101
143400,control_change,54,0,3,,,,,,,,,2,64,0,,
143400,note_on,0,0,1,,,,,,,,,0,,,73,114
143400,note_on,0,0,1,,,,,,,,,0,,,69,114
143400,control_change,54,0,1,,,,,,,,,0,64,0,,
143520,note_on,0,0,3,,,,,,,,,2,,,51,101
143520,note_on,0,0,1,,,,,,,,,0,,,69,0
143520,note_on,0,0,1,,,,,,,,,0,,,66,114
143520,note_on,0,0,3,,,,,,,,,2,,,39,101
143520,note_on,0,0,3,,,,,,,,,2,,,54,0
143520,note_on,0,0,3,,,,,,,,,2,,,57,0
143520,note_on,0,0,1,,,,,,,,,0,,,78,114
143520,note_on,120,0,3,,,,,,,,,2,,,61,0
143520,note_on,0,0,1,,,,,,,,,0,,,72,114
143520,note_on,0,0,1,,,,,,,,,0,,,69,114
143520,note_on,120,0,1,,,,,,,,,0,,,73,0
143532,note_on,0,0,1,,,,,,,,,0,,,66,0
143532,note_on,0,0,1,,,,,,,,,0,,,72,0
143532,note_on,0,0,1,,,,,,,,,0,,,69,0
143532,note_on,12,0,1,,,,,,,,,0,,,78,0
143640,note_on,0,0,3,,,,,,,,,2,,,39,0
143640,note_on,0,0,3,,,,,,,,,2,,,40,101
143640,note_on,120,0,3,,,,,,,,,2,,,51,0
143640,note_on,0,0,3,,,,,,,,,2,,,52,101
143760,note_on,0,0,1,,,,,,,,,0,,,69,114
143760,note_on,0,0,3,,,,,,,,,2,,,40,0
143760,note_on,228,0,1,,,,,,,,,0,,,64,114
143760,note_on,120,0,3,,,,,,,,,2,,,52,0
143760,note_on,0,0,1,,,,,,,,,0,,,71,114
143880,note_on,120,0,1,,,,,,,,,0,,,71,0
143880,note_on,0,0,1,,,,,,,,,0,,,69,0
143880,note_on,0,0,1,,,,,,,,,0,,,64,0
143880,note_on,120,0,3,,,,,,,,,2,,,52,101
143880,note_on,0,0,3,,,,,,,,,2,,,59,101
143880,note_on,0,0,3,,,,,,,,,2,,,62,101
144000,note_on,0,0,3,,,,,,,,,2,,,52,0
144000,note_on,120,0,1,,,,,,,,,0,,,64,114
144000,note_on,0,0,1,,,,,,,,,0,,,68,114
144000,note_on,0,0,1,,,,,,,,,0,,,71,114
144000,note_on,0,0,1,,,,,,,,,0,,,76,114
144000,note_on,120,0,3,,,,,,,,,2,,,62,0
144000,note_on,0,0,3,,,,,,,,,2,,,59,0
144120,note_on,0,0,1,,,,,,,,,0,,,64,0
144120,note_on,120,0,1,,,,,,,,,0,,,76,0
144120,note_on,0,0,1,,,,,,,,,0,,,71,0
144120,note_on,0,0,1,,,,,,,,,0,,,76,75
144120,note_on,0,0,1,,,,,,,,,0,,,68,0
144120,control_change,0,0,1,,,,,,,,,0,64,127,,
144120,control_change,120,0,3,,,,,,,,,2,64,127,,
144120,note_on,0,0,3,,,,,,,,,2,,,45,36
144180,note_on,0,0,3,,,,,,,,,2,,,52,36
144180,note_on,60,0,1,,,,,,,,,0,,,76,0
144180,note_on,60,0,3,,,,,,,,,2,,,45,0
144180,note_on,0,0,1,,,,,,,,,0,,,73,49
144240,note_on,0,0,1,,,,,,,,,0,,,64,49
144240,note_on,60,0,1,,,,,,,,,0,,,73,0
144240,note_on,60,0,3,,,,,,,,,2,,,52,0
144240,note_on,0,0,3,,,,,,,,,2,,,61,36
144300,note_on,0,0,1,,,,,,,,,0,,,73,49
144300,note_on,60,0,1,,,,,,,,,0,,,64,0
144300,note_on,60,0,3,,,,,,,,,2,,,61,0
144300,note_on,0,0,3,,,,,,,,,2,,,52,36
144360,control_change,0,0,3,,,,,,,,,2,64,0,,
144360,note_on,60,0,3,,,,,,,,,2,,,52,0
144360,note_on,0,0,3,,,,,,,,,2,,,61,36
144360,note_on,0,0,1,,,,,,,,,0,,,64,49
144360,control_change,0,0,1,,,,,,,,,0,64,0,,
144360,note_on,60,0,1,,,,,,,,,0,,,73,0
144420,note_on,60,0,3,,,,,,,,,2,,,61,0
144420,note_on,60,0,1,,,,,,,,,0,,,64,0
144480,note_on,60,0,3,,,,,,,,,2,,,44,36
144480,note_on,0,0,1,,,,,,,,,0,,,64,49
144480,note_on,60,0,1,,,,,,,,,0,,,62,49
144492,note_on,0,0,1,,,,,,,,,0,,,62,0
144492,note_on,12,0,1,,,,,,,,,0,,,64,0
144540,note_on,0,0,3,,,,,,,,,2,,,52,36
144540,note_on,60,0,3,,,,,,,,,2,,,44,0
144600,note_on,0,0,1,,,,,,,,,0,,,64,49
144600,note_on,108,0,1,,,,,,,,,0,,,61,49
144600,note_on,0,0,3,,,,,,,,,2,,,45,36
144600,note_on,60,0,3,,,,,,,,,2,,,52,0
144612,note_on,0,0,1,,,,,,,,,0,,,61,0
144612,note_on,12,0,1,,,,,,,,,0,,,64,0
144660,note_on,60,0,3,,,,,,,,,2,,,45,0
144660,note_on,0,0,3,,,,,,,,,2,,,52,36
144720,note_on,0,0,1,,,,,,,,,0,,,64,49
144720,note_on,108,0,1,,,,,,,,,0,,,62,49
144720,note_on,0,0,3,,,,,,,,,2,,,44,36
144720,note_on,60,0,3,,,,,,,,,2,,,52,0
144732,note_on,12,0,1,,,,,,,,,0,,,64,0
144732,note_on,0,0,1,,,,,,,,,0,,,62,0
144780,note_on,0,0,3,,,,,,,,,2,,,52,36
144780,note_on,60,0,3,,,,,,,,,2,,,44,0
144840,note_on,60,0,3,,,,,,,,,2,,,52,0
144840,note_on,0,0,1,,,,,,,,,0,,,64,49
144840,note_on,0,0,3,,,,,,,,,2,,,45,36
144840,note_on,108,0,1,,,,,,,,,0,,,61,49
144852,note_on,0,0,1,,,,,,,,,0,,,61,0
144852,note_on,12,0,1,,,,,,,,,0,,,64,0
144900,note_on,0,0,3,,,,,,,,,2,,,52,36
144900,note_on,60,0,3,,,,,,,,,2,,,45,0
144960,note_on,0,0,3,,,,,,,,,2,,,44,36
144960,note_on,0,0,1,,,,,,,,,0,,,64,49
144960,note_on,108,0,1,,,,,,,,,0,,,62,49
144960,note_on,60,0,3,,,,,,,,,2,,,52,0
144972,note_on,0,0,1,,,,,,,,,0,,,62,0
144972,note_on,12,0,1,,,,,,,,,0,,,64,0
145020,note_on,0,0,3,,,,,,,,,2,,,52,36
145020,note_on,60,0,3,,,,,,,,,2,,,44,0
145080,control_change,0,0,3,,,,,,,,,2,64,127,,
145080,note_on,60,0,3,,,,,,,,,2,,,52,0
145080,note_on,0,0,3,,,,,,,,,2,,,45,36
145080,note_on,108,0,1,,,,,,,,,0,,,61,49
145080,note_on,0,0,1,,,,,,,,,0,,,64,49
145140,note_on,60,0,3,,,,,,,,,2,,,45,0
145140,note_on,0,0,3,,,,,,,,,2,,,49,36
145200,note_on,60,0,3,,,,,,,,,2,,,49,0
145200,note_on,0,0,3,,,,,,,,,2,,,52,36
145260,note_on,60,0,3,,,,,,,,,2,,,52,0
145260,note_on,0,0,3,,,,,,,,,2,,,57,36
145320,note_on,0,0,3,,,,,,,,,2,,,61,36
145320,note_on,240,0,1,,,,,,,,,0,,,64,0
145320,note_on,60,0,3,,,,,,,,,2,,,57,0
145320,note_on,0,0,1,,,,,,,,,0,,,61,0
145380,note_on,0,0,3,,,,,,,,,2,,,64,36
145380,control_change,0,0,3,,,,,,,,,2,64,0,,
145380,note_on,60,0,3,,,,,,,,,2,,,61,0
145440,note_on,120,0,1,,,,,,,,,0,,,71,49
145440,note_on,0,0,1,,,,,,,,,0,,,73,49
145440,note_on,0,0,3,,,,,,,,,2,,,53,36
145440,note_on,60,0,3,,,,,,,,,2,,,64,0
145440,note_on,0,0,3,,,,,,,,,2,,,65,36
145452,note_on,12,0,3,,,,,,,,,2,,,65,0
145452,note_on,12,0,1,,,,,,,,,0,,,73,0
145452,note_on,0,0,1,,,,,,,,,0,,,71,0
145452,note_on,0,0,3,,,,,,,,,2,,,53,0
145560,note_on,0,0,3,,,,,,,,,2,,,66,36
145560,note_on,108,0,3,,,,,,,,,2,,,54,36
145620,control_change,168,0,1,,,,,,,,,0,64,127,,
145620,note_on,0,0,1,,,,,,,,,0,,,70,49
145680,note_on,0,0,1,,,,,,,,,0,,,73,49
145680,note_on,60,0,1,,,,,,,,,0,,,70,0
145740,note_on,0,0,1,,,,,,,,,0,,,78,49
145740,note_on,60,0,1,,,,,,,,,0,,,73,0
145800,note_on,0,0,3,,,,,,,,,2,,,54,0
145800,note_on,0,0,1,,,,,,,,,0,,,82,49
145800,note_on,60,0,1,,,,,,,,,0,,,78,0
145800,note_on,240,0,3,,,,,,,,,2,,,66,0
145860,note_on,0,0,1,,,,,,,,,0,,,85,49
145860,note_on,60,0,1,,,,,,,,,0,,,82,0
145860,control_change,0,0,1,,,,,,,,,0,64,0,,
145920,note_on,120,0,3,,,,,,,,,2,,,30,101
145920,note_on,0,0,3,,,,,,,,,2,,,42,101
145920,note_on,60,0,1,,,,,,,,,0,,,85,0
145920,note_on,0,0,1,,,,,,,,,0,,,78,114
145920,note_on,0,0,1,,,,,,,,,0,,,90,114
145932,note_on,0,0,3,,,,,,,,,2,,,30,0
145932,note_on,12,0,3,,,,,,,,,2,,,42,0
146040,note_on,0,0,1,,,,,,,,,0,,,78,0
146040,note_on,0,0,3,,,,,,,,,2,,,47,36
146040,control_change,108,0,3,,,,,,,,,2,64,127,,
146040,note_on,120,0,1,,,,,,,,,0,,,90,0
146040,note_on,0,0,1,,,,,,,,,0,,,78,75
146040,control_change,0,0,1,,,,,,,,,0,64,127,,
146100,note_on,0,0,1,,,,,,,,,0,,,74,49
146100,note_on,0,0,3,,,,,,,,,2,,,54,36
146100,note_on,60,0,3,,,,,,,,,2,,,47,0
146100,note_on,60,0,1,,,,,,,,,0,,,78,0
146160,note_on,0,0,1,,,,,,,,,0,,,66,49
146160,note_on,60,0,1,,,,,,,,,0,,,74,0
146160,note_on,60,0,3,,,,,,,,,2,,,54,0
146160,note_on,0,0,3,,,,,,,,,2,,,62,36
146220,note_on,60,0,3,,,,,,,,,2,,,62,0
146220,note_on,0,0,3,,,,,,,,,2,,,54,36
146220,note_on,60,0,1,,,,,,,,,0,,,66,0
146220,note_on,0,0,1,,,,,,,,,0,,,74,49
146280,note_on,60,0,1,,,,,,,,,0,,,74,0
146280,control_change,0,0,1,,,,,,,,,0,64,0,,
146280,note_on,0,0,1,,,,,,,,,0,,,66,49
146280,control_change,0,0,3,,,,,,,,,2,64,0,,
146280,note_on,60,0,3,,,,,,,,,2,,,54,0
146280,note_on,0,0,3,,,,,,,,,2,,,62,36
146340,note_on,60,0,1,,,,,,,,,0,,,66,0
146340,note_on,60,0,3,,,,,,,,,2,,,62,0
146400,note_on,0,0,1,,,,,,,,,0,,,66,49
146400,note_on,60,0,3,,,,,,,,,2,,,46,36
146400,note_on,60,0,1,,,,,,,,,0,,,64,49
146412,note_on,0,0,1,,,,,,,,,0,,,64,0
146412,note_on,12,0,1,,,,,,,,,0,,,66,0
146460,note_on,0,0,3,,,,,,,,,2,,,54,36
146460,note_on,60,0,3,,,,,,,,,2,,,46,0
146520,note_on,0,0,3,,,,,,,,,2,,,47,36
146520,note_on,60,0,3,,,,,,,,,2,,,54,0
146520,note_on,0,0,1,,,,,,,,,0,,,66,49
146520,note_on,108,0,1,,,,,,,,,0,,,62,49
146532,note_on,12,0,1,,,,,,,,,0,,,66,0
146532,note_on,0,0,1,,,,,,,,,0,,,62,0
146580,note_on,0,0,3,,,,,,,,,2,,,54,36
146580,note_on,60,0,3,,,,,,,,,2,,,47,0
146640,note_on,108,0,1,,,,,,,,,0,,,64,49
146640,note_on,0,0,1,,,,,,,,,0,,,66,49
146640,note_on,0,0,3,,,,,,,,,2,,,46,36
146640,note_on,60,0,3,,,,,,,,,2,,,54,0
146652,note_on,0,0,1,,,,,,,,,0,,,64,0
146652,note_on,12,0,1,,,,,,,,,0,,,66,0
146700,note_on,0,0,3,,,,,,,,,2,,,54,36
146700,note_on,60,0,3,,,,,,,,,2,,,46,0
146760,note_on,108,0,1,,,,,,,,,0,,,62,49
146760,note_on,0,0,1,,,,,,,,,0,,,66,49
146760,note_on,0,0,3,,,,,,,,,2,,,47,36
146760,note_on,60,0,3,,,,,,,,,2,,,54,0
146772,note_on,12,0,1,,,,,,,,,0,,,66,0
146772,note_on,0,0,1,,,,,,,,,0,,,62,0
146820,note_on,0,0,3,,,,,,,,,2,,,54,36
146820,note_on,60,0,3,,,,,,,,,2,,,47,0
146880,note_on,108,0,1,,,,,,,,,0,,,64,49
146880,note_on,0,0,3,,,,,,,,,2,,,46,36
146880,note_on,60,0,3,,,,,,,,,2,,,54,0
146880,note_on,0,0,1,,,,,,,,,0,,,66,49
146892,note_on,0,0,1,,,,,,,,,0,,,64,0
146892,note_on,12,0,1,,,,,,,,,0,,,66,0
146940,note_on,60,0,3,,,,,,,,,2,,,46,0
146940,note_on,0,0,3,,,,,,,,,2,,,54,36
147000,note_on,108,0,1,,,,,,,,,0,,,62,49
147000,note_on,60,0,3,,,,,,,,,2,,,54,0
147000,control_change,0,0,3,,,,,,,,,2,64,127,,
147000,note_on,0,0,3,,,,,,,,,2,,,47,36
147000,note_on,0,0,1,,,,,,,,,0,,,66,49
147060,note_on,60,0,3,,,,,,,,,2,,,47,0
147060,note_on,0,0,3,,,,,,,,,2,,,50,36
147120,note_on,60,0,3,,,,,,,,,2,,,50,0
147120,note_on,0,0,3,,,,,,,,,2,,,54,36
147180,note_on,60,0,3,,,,,,,,,2,,,54,0
147180,note_on,0,0,3,,,,,,,,,2,,,59,36
147240,note_on,60,0,3,,,,,,,,,2,,,59,0
147240,note_on,0,0,3,,,,,,,,,2,,,62,36
147240,note_on,0,0,1,,,,,,,,,0,,,62,0
147240,note_on,240,0,1,,,,,,,,,0,,,66,0
147300,note_on,60,0,3,,,,,,,,,2,,,62,0
147300,control_change,0,0,3,,,,,,,,,2,64,0,,
147300,note_on,0,0,3,,,,,,,,,2,,,66,36
147360,note_on,0,0,1,,,,,,,,,0,,,74,49
147360,note_on,120,0,1,,,,,,,,,0,,,72,49
147360,note_on,0,0,3,,,,,,,,,2,,,66,36
147360,note_on,0,0,3,,,,,,,,,2,,,54,36
147360,note_on,60,0,3,,,,,,,,,2,,,66,0
147372,note_on,12,0,1,,,,,,,,,0,,,74,0
147372,note_on,0,0,3,,,,,,,,,2,,,54,0
147372,note_on,12,0,3,,,,,,,,,2,,,66,0
147372,note_on,0,0,1,,,,,,,,,0,,,72,0
147480,note_on,0,0,3,,,,,,,,,2,,,67,36
147480,note_on,108,0,3,,,,,,,,,2,,,55,36
147540,control_change,168,0,1,,,,,,,,,0,64,127,,
147540,note_on,0,0,1,,,,,,,,,0,,,71,49
147600,note_on,60,0,1,,,,,,,,,0,,,71,0
147600,note_on,0,0,1,,,,,,,,,0,,,74,49
147660,note_on,0,0,1,,,,,,,,,0,,,79,49
147660,note_on,60,0,1,,,,,,,,,0,,,74,0
147720,note_on,0,0,1,,,,,,,,,0,,,83,49
147720,note_on,60,0,1,,,,,,,,,0,,,79,0
147720,note_on,0,0,3,,,,,,,,,2,,,43,36
147720,note_on,240,0,3,,,,,,,,,2,,,67,0
147720,note_on,0,0,3,,,,,,,,,2,,,55,0
147720,note_on,0,0,3,,,,,,,,,2,,,55,36
147780,control_change,0,0,1,,,,,,,,,0,64,0,,
147780,note_on,0,0,1,,,,,,,,,0,,,86,49
147780,note_on,60,0,1,,,,,,,,,0,,,83,0
147840,note_on,60,0,1,,,,,,,,,0,,,86,0
147840,note_on,0,0,1,,,,,,,,,0,,,91,114
147840,note_on,0,0,1,,,,,,,,,0,,,79,114
147840,note_on,0,0,3,,,,,,,,,2,,,43,0
147840,note_on,120,0,3,,,,,,,,,2,,,55,0
147840,note_on,0,0,3,,,,,,,,,2,,,53,101
147840,note_on,0,0,3,,,,,,,,,2,,,41,101
147960,note_on,0,0,3,,,,,,,,,2,,,41,0
147960,note_on,0,0,3,,,,,,,,,2,,,40,101
147960,note_on,0,0,3,,,,,,,,,2,,,52,101
147960,note_on,120,0,1,,,,,,,,,0,,,91,0
147960,note_on,0,0,1,,,,,,,,,0,,,79,0
147960,note_on,120,0,3,,,,,,,,,2,,,53,0
147972,note_on,0,0,3,,,,,,,,,2,,,40,0
147972,note_on,12,0,3,,,,,,,,,2,,,52,0
148080,note_on,120,0,1,,,,,,,,,0,,,68,101
148080,note_on,0,0,1,,,,,,,,,0,,,74,101
148080,note_on,0,0,1,,,,,,,,,0,,,80,101
148092,note_on,0,0,1,,,,,,,,,0,,,68,0
148092,note_on,0,0,1,,,,,,,,,0,,,74,0
148092,note_on,12,0,1,,,,,,,,,0,,,80,0
148200,note_on,0,0,3,,,,,,,,,2,,,51,101
148200,note_on,228,0,3,,,,,,,,,2,,,39,101
148212,note_on,0,0,3,,,,,,,,,2,,,39,0
148212,note_on,12,0,3,,,,,,,,,2,,,51,0
148320,note_on,0,0,1,,,,,,,,,0,,,81,101
148320,note_on,0,0,1,,,,,,,,,0,,,78,101
148320,note_on,228,0,1,,,,,,,,,0,,,69,101
148320,note_on,0,0,1,,,,,,,,,0,,,72,101
148332,note_on,0,0,1,,,,,,,,,0,,,78,0
148332,note_on,0,0,1,,,,,,,,,0,,,72,0
148332,note_on,0,0,1,,,,,,,,,0,,,69,0
148332,note_on,12,0,1,,,,,,,,,0,,,81,0
148920,note_on,0,0,3,,,,,,,,,2,,,57,49
148920,note_on,708,0,3,,,,,,,,,2,,,53,49
148920,note_on,0,0,3,,,,,,,,,2,,,59,49
148932,note_on,0,0,3,,,,,,,,,2,,,57,0
148932,note_on,12,0,3,,,,,,,,,2,,,59,0
148932,note_on,0,0,3,,,,,,,,,2,,,53,0
149040,note_on,0,0,1,,,,,,,,,0,,,71,49
149040,note_on,0,0,1,,,,,,,,,0,,,69,49
149040,note_on,708,0,1,,,,,,,,,0,,,62,49
149052,note_on,0,0,1,,,,,,,,,0,,,62,0
149052,note_on,0,0,1,,,,,,,,,0,,,69,0
149052,note_on,12,0,1,,,,,,,,,0,,,71,0
149400,note_on,0,0,3,,,,,,,,,2,,,62,36
149400,note_on,0,0,3,,,,,,,,,2,,,59,36
149400,note_on,468,0,3,,,,,,,,,2,,,52,36
149412,note_on,0,0,3,,,,,,,,,2,,,52,0
149412,note_on,0,0,3,,,,,,,,,2,,,59,0
149412,note_on,12,0,3,,,,,,,,,2,,,62,0
149520,note_on,0,0,1,,,,,,,,,0,,,76,49
149520,note_on,0,0,1,,,,,,,,,0,,,71,49
149520,note_on,0,0,1,,,,,,,,,0,,,68,49
149520,note_on,468,0,1,,,,,,,,,0,,,64,49
149532,note_on,12,0,1,,,,,,,,,0,,,76,0
149532,note_on,0,0,1,,,,,,,,,0,,,64,0
149532,note_on,0,0,1,,,,,,,,,0,,,68,0
149532,note_on,0,0,1,,,,,,,,,0,,,71,0
150240,note_on,828,0,3,,,,,,,,,2,,,60,36
150240,note_on,708,0,1,,,,,,,,,0,,,72,49
150330,note_on,90,0,3,,,,,,,,,2,,,59,36
150330,note_on,90,0,1,,,,,,,,,0,,,71,49
150345,note_on,15,0,1,,,,,,,,,0,,,71,0
150345,note_on,0,0,3,,,,,,,,,2,,,60,36
150345,note_on,15,0,3,,,,,,,,,2,,,59,0
150345,note_on,0,0,1,,,,,,,,,0,,,72,49
150360,note_on,0,0,1,,,,,,,,,0,,,71,49
150360,note_on,0,0,3,,,,,,,,,2,,,59,36
150360,note_on,0,0,3,,,,,,,,,2,,,60,0
150360,key_signature,11520,1,0,,,,,C,,,,,,,,
150360,note_on,15,0,3,,,,,,,,,2,,,60,0
150360,note_on,0,0,1,,,,,,,,,0,,,72,0
150360,note_on,15,0,1,,,,,,,,,0,,,72,0
150480,note_on,120,0,3,,,,,,,,,2,,,59,0
150480,note_on,0,0,3,,,,,,,,,2,,,57,36
150480,note_on,0,0,1,,,,,,,,,0,,,69,49
150480,note_on,120,0,1,,,,,,,,,0,,,71,0
150600,note_on,0,0,1,,,,,,,,,0,,,76,75
150600,control_change,0,0,1,,,,,,,,,0,64,127,,
150600,note_on,120,0,1,,,,,,,,,0,,,69,0
150600,note_on,120,0,3,,,,,,,,,2,,,57,0
150600,control_change,0,0,3,,,,,,,,,2,64,127,,
150600,note_on,0,0,3,,,,,,,,,2,,,64,62
150780,note_on,0,0,1,,,,,,,,,0,,,72,49
150780,note_on,180,0,3,,,,,,,,,2,,,64,0
150780,note_on,0,0,3,,,,,,,,,2,,,60,36
150780,note_on,180,0,1,,,,,,,,,0,,,76,0
150810,note_on,30,0,1,,,,,,,,,0,,,72,0
150810,note_on,30,0,3,,,,,,,,,2,,,60,0
150810,note_on,0,0,1,,,,,,,,,0,,,69,49
150810,note_on,0,0,3,,,,,,,,,2,,,57,36
150840,note_on,0,0,3,,,,,,,,,2,,,52,36
150840,control_change,0,0,3,,,,,,,,,2,64,0,,
150840,control_change,0,0,1,,,,,,,,,0,64,0,,
150840,note_on,0,0,1,,,,,,,,,0,,,64,49
150840,note_on,30,0,3,,,,,,,,,2,,,57,0
150840,note_on,30,0,1,,,,,,,,,0,,,69,0
151200,note_on,0,0,3,,,,,,,,,2,,,60,62
151200,note_on,360,0,1,,,,,,,,,0,,,64,0
151200,note_on,0,0,3,,,,,,,,,2,,,52,62
151200,note_on,0,0,1,,,,,,,,,0,,,64,75
151200,note_on,360,0,3,,,,,,,,,2,,,52,0
151212,note_on,12,0,1,,,,,,,,,0,,,64,0
151212,note_on,12,0,3,,,,,,,,,2,,,60,0
151212,note_on,0,0,3,,,,,,,,,2,,,52,0
151320,note_on,108,0,3,,,,,,,,,2,,,52,62
151320,note_on,108,0,1,,,,,,,,,0,,,62,75
151320,note_on,0,0,1,,,,,,,,,0,,,64,75
151320,note_on,0,0,3,,,,,,,,,2,,,59,62
151332,note_on,0,0,3,,,,,,,,,2,,,52,0
151332,note_on,12,0,1,,,,,,,,,0,,,64,0
151332,note_on,0,0,1,,,,,,,,,0,,,62,0
151332,note_on,12,0,3,,,,,,,,,2,,,59,0
151380,set_tempo,1020,1,0,,,,,,326087,,,,,,,
151440,note_on,0,0,1,,,,,,,,,0,,,64,75
151440,note_on,0,0,3,,,,,,,,,2,,,57,62
151440,note_on,108,0,3,,,,,,,,,2,,,52,62
151440,note_on,108,0,1,,,,,,,,,0,,,60,75
151440,set_tempo,60,1,0,,,,,,340909,,,,,,,
151452,note_on,12,0,1,,,,,,,,,0,,,64,0
151452,note_on,0,0,1,,,,,,,,,0,,,60,0
151452,note_on,0,0,3,,,,,,,,,2,,,52,0
151452,note_on,12,0,3,,,,,,,,,2,,,57,0
151500,set_tempo,60,1,0,,,,,,357143,,,,,,,
151560,set_tempo,60,1,0,,,,,,375000,,,,,,,
151560,note_on,108,0,1,,,,,,,,,0,,,59,75
151560,note_on,0,0,1,,,,,,,,,0,,,64,75
151560,note_on,0,0,3,,,,,,,,,2,,,56,62
151560,note_on,108,0,3,,,,,,,,,2,,,52,62
151572,note_on,0,0,3,,,,,,,,,2,,,52,0
151572,note_on,12,0,3,,,,,,,,,2,,,56,0
151572,note_on,12,0,1,,,,,,,,,0,,,64,0
151572,note_on,0,0,1,,,,,,,,,0,,,59,0
151620,set_tempo,60,1,0,,,,,,394737,,,,,,,
151680,note_on,0,0,3,,,,,,,,,2,,,57,62
151680,set_tempo,60,1,0,,,,,,416667,,,,,,,
151680,note_on,0,0,3,,,,,,,,,2,,,60,62
151680,note_on,0,0,1,,,,,,,,,0,,,72,75
151680,note_on,108,0,3,,,,,,,,,2,,,52,62
151680,note_on,108,0,1,,,,,,,,,0,,,63,75
151692,note_on,0,0,3,,,,,,,,,2,,,52,0
151692,note_on,12,0,3,,,,,,,,,2,,,60,0
151692,note_on,12,0,1,,,,,,,,,0,,,72,0
151692,note_on,0,0,3,,,,,,,,,2,,,57,0
151692,note_on,0,0,1,,,,,,,,,0,,,63,0
151740,set_tempo,60,1,0,,,,,,441176,,,,,,,
151800,note_on,0,0,1,,,,,,,,,0,,,72,75
151800,note_on,108,0,1,,,,,,,,,0,,,64,75
151800,note_on,108,0,3,,,,,,,,,2,,,52,62
151800,note_on,0,0,3,,,,,,,,,2,,,57,62
151800,end_of_track,0,1,0,,,,,,,,,,,,,
151800,set_tempo,60,1,0,,,,,,326087,,,,,,,
151800,note_on,0,0,3,,,,,,,,,2,,,60,62
152040,note_on,240,0,3,,,,,,,,,2,,,60,0
152040,note_on,0,0,1,,,,,,,,,0,,,71,75
152040,note_on,240,0,1,,,,,,,,,0,,,72,0
152040,note_on,0,0,3,,,,,,,,,2,,,57,0
152040,note_on,0,0,3,,,,,,,,,2,,,56,62
152040,note_on,0,0,3,,,,,,,,,2,,,59,62
152100,note_on,0,0,1,,,,,,,,,0,,,64,0
152100,note_on,60,0,3,,,,,,,,,2,,,59,0
152100,note_on,0,0,3,,,,,,,,,2,,,56,0
152100,note_on,0,0,3,,,,,,,,,2,,,52,0
152100,note_on,60,0,1,,,,,,,,,0,,,71,0
152160,note_on,60,0,1,,,,,,,,,0,,,74,75
152160,note_on,60,0,3,,,,,,,,,2,,,62,36
152250,note_on,90,0,1,,,,,,,,,0,,,72,75
152250,note_on,90,0,3,,,,,,,,,2,,,60,36
152265,note_on,15,0,3,,,,,,,,,2,,,60,0
152265,note_on,0,0,3,,,,,,,,,2,,,62,36
152265,note_on,15,0,1,,,,,,,,,0,,,72,0
152265,note_on,0,0,1,,,,,,,,,0,,,74,75
152280,note_on,15,0,3,,,,,,,,,2,,,62,0
152280,note_on,0,0,3,,,,,,,,,2,,,62,0
152280,note_on,0,0,3,,,,,,,,,2,,,60,36
152280,note_on,0,0,1,,,,,,,,,0,,,72,75
152280,note_on,0,0,1,,,,,,,,,0,,,74,0
152280,note_on,15,0,1,,,,,,,,,0,,,74,0
152400,note_on,120,0,3,,,,,,,,,2,,,60,0
152400,note_on,0,0,3,,,,,,,,,2,,,59,36
152400,note_on,0,0,1,,,,,,,,,0,,,71,75
152400,note_on,120,0,1,,,,,,,,,0,,,72,0
152520,note_on,120,0,3,,,,,,,,,2,,,59,0
152520,note_on,0,0,3,,,,,,,,,2,,,65,62
152520,control_change,0,0,3,,,,,,,,,2,64,127,,
152520,note_on,120,0,1,,,,,,,,,0,,,71,0
152520,control_change,0,0,1,,,,,,,,,0,64,127,,
152520,note_on,0,0,1,,,,,,,,,0,,,77,101
152700,note_on,180,0,1,,,,,,,,,0,,,77,0
152700,note_on,180,0,3,,,,,,,,,2,,,65,0
152700,note_on,0,0,1,,,,,,,,,0,,,74,75
152700,note_on,0,0,3,,,,,,,,,2,,,62,36
152730,note_on,30,0,1,,,,,,,,,0,,,74,0
152730,note_on,30,0,3,,,,,,,,,2,,,62,0
152730,note_on,0,0,3,,,,,,,,,2,,,59,36
152730,note_on,0,0,1,,,,,,,,,0,,,71,75
152760,note_on,30,0,1,,,,,,,,,0,,,71,0
152760,control_change,0,0,1,,,,,,,,,0,64,0,,
152760,note_on,0,0,1,,,,,,,,,0,,,64,75
152760,note_on,30,0,3,,,,,,,,,2,,,59,0
152760,control_change,0,0,3,,,,,,,,,2,64,0,,
152760,note_on,0,0,3,,,,,,,,,2,,,52,36
153120,note_on,360,0,3,,,,,,,,,2,,,52,0
153120,note_on,360,0,1,,,,,,,,,0,,,64,0
153120,note_on,0,0,1,,,,,,,,,0,,,64,75
153120,note_on,0,0,3,,,,,,,,,2,,,52,36
153240,note_on,120,0,1,,,,,,,,,0,,,64,0
153240,note_on,0,0,1,,,,,,,,,0,,,64,75
153240,note_on,0,0,1,,,,,,,,,0,,,65,75
153240,note_on,0,0,3,,,,,,,,,2,,,52,36
153240,note_on,120,0,3,,,,,,,,,2,,,52,0
153252,note_on,0,0,1,,,,,,,,,0,,,64,0
153252,note_on,12,0,1,,,,,,,,,0,,,65,0
153252,note_on,12,0,3,,,,,,,,,2,,,52,0
153360,note_on,108,0,1,,,,,,,,,0,,,64,75
153360,note_on,0,0,3,,,,,,,,,2,,,62,36
153360,note_on,0,0,1,,,,,,,,,0,,,68,75
153360,note_on,108,0,3,,,,,,,,,2,,,52,36
153372,note_on,0,0,1,,,,,,,,,0,,,64,0
153372,note_on,12,0,1,,,,,,,,,0,,,68,0
153372,note_on,12,0,3,,,,,,,,,2,,,62,0
153372,note_on,0,0,3,,,,,,,,,2,,,52,0
153480,note_on,0,0,1,,,,,,,,,0,,,69,75
153480,note_on,108,0,1,,,,,,,,,0,,,64,75
153480,note_on,108,0,3,,,,,,,,,2,,,52,36
153480,note_on,0,0,3,,,,,,,,,2,,,60,36
153492,note_on,0,0,3,,,,,,,,,2,,,52,0
153492,note_on,0,0,1,,,,,,,,,0,,,64,0
153492,note_on,12,0,1,,,,,,,,,0,,,69,0
153492,note_on,12,0,3,,,,,,,,,2,,,60,0
153600,note_on,108,0,3,,,,,,,,,2,,,52,36
153600,note_on,0,0,3,,,,,,,,,2,,,59,36
153600,note_on,0,0,1,,,,,,,,,0,,,71,75
153600,note_on,108,0,1,,,,,,,,,0,,,64,75
153612,note_on,0,0,1,,,,,,,,,0,,,64,0
153612,note_on,0,0,3,,,,,,,,,2,,,52,0
153612,note_on,12,0,3,,,,,,,,,2,,,59,0
153612,note_on,12,0,1,,,,,,,,,0,,,71,0
153720,note_on,0,0,1,,,,,,,,,0,,,74,75
153720,note_on,108,0,1,,,,,,,,,0,,,64,75
153720,note_on,0,0,3,,,,,,,,,2,,,62,36
153720,note_on,0,0,3,,,,,,,,,2,,,59,36
153720,note_on,108,0,3,,,,,,,,,2,,,57,36
153960,note_on,0,0,1,,,,,,,,,0,,,72,75
153960,note_on,0,0,3,,,,,,,,,2,,,60,36
153960,note_on,0,0,3,,,,,,,,,2,,,59,0
153960,note_on,240,0,3,,,,,,,,,2,,,62,0
153960,note_on,240,0,1,,,,,,,,,0,,,74,0
154020,note_on,60,0,1,,,,,,,,,0,,,72,0
154020,note_on,0,0,1,,,,,,,,,0,,,64,0
154020,note_on,0,0,3,,,,,,,,,2,,,57,0
154020,note_on,60,0,3,,,,,,,,,2,,,60,0
154080,note_on,60,0,3,,,,,,,,,2,,,48,75
154080,note_on,60,0,1,,,,,,,,,0,,,60,88
154170,note_on,90,0,3,,,,,,,,,2,,,47,75
154170,note_on,90,0,1,,,,,,,,,0,,,59,88
154185,note_on,15,0,3,,,,,,,,,2,,,47,0
154185,note_on,0,0,1,,,,,,,,,0,,,60,88
154185,note_on,0,0,3,,,,,,,,,2,,,48,75
154185,note_on,15,0,1,,,,,,,,,0,,,59,0
154200,note_on,15,0,1,,,,,,,,,0,,,60,0
154200,note_on,0,0,1,,,,,,,,,0,,,59,88
154200,note_on,0,0,1,,,,,,,,,0,,,60,0
154200,note_on,0,0,3,,,,,,,,,2,,,48,0
154200,note_on,0,0,3,,,,,,,,,2,,,47,75
154200,note_on,15,0,3,,,,,,,,,2,,,48,0
154320,note_on,0,0,1,,,,,,,,,0,,,57,88
154320,note_on,0,0,3,,,,,,,,,2,,,45,75
154320,note_on,120,0,3,,,,,,,,,2,,,47,0
154320,note_on,120,0,1,,,,,,,,,0,,,59,0
154440,note_on,0,0,3,,,,,,,,,2,,,52,75
154440,control_change,0,0,3,,,,,,,,,2,64,127,,
154440,note_on,120,0,3,,,,,,,,,2,,,45,0
154440,control_change,0,0,1,,,,,,,,,0,64,127,,
154440,note_on,120,0,1,,,,,,,,,0,,,57,0
154440,note_on,0,0,1,,,,,,,,,0,,,64,88
154620,note_on,16074,0,2,,,,,,,,,1,,,60,88
154620,note_on,55140,0,4,,,,,,,,,3,,,48,75
154650,note_on,30,0,2,,,,,,,,,1,,,60,0
154650,note_on,0,0,2,,,,,,,,,1,,,57,88
154650,note_on,0,0,4,,,,,,,,,3,,,45,75
154650,note_on,30,0,4,,,,,,,,,3,,,48,0
154680,note_on,30,0,4,,,,,,,,,3,,,45,0
154680,note_on,0,0,2,,,,,,,,,1,,,53,88
154680,note_on,30,0,2,,,,,,,,,1,,,57,0
154680,note_on,0,0,4,,,,,,,,,3,,,41,75
154920,note_on,0,0,3,,,,,,,,,2,,,50,75
154920,note_on,480,0,3,,,,,,,,,2,,,52,0
154920,note_on,0,0,1,,,,,,,,,0,,,62,88
154920,note_on,480,0,1,,,,,,,,,0,,,64,0
155040,note_on,0,0,3,,,,,,,,,2,,,48,75
155040,note_on,120,0,3,,,,,,,,,2,,,50,0
155040,note_on,0,0,1,,,,,,,,,0,,,60,88
155040,note_on,120,0,1,,,,,,,,,0,,,62,0
155160,note_on,0,0,1,,,,,,,,,0,,,59,88
155160,control_change,0,0,1,,,,,,,,,0,64,0,,
155160,note_on,0,0,3,,,,,,,,,2,,,47,75
155160,control_change,0,0,3,,,,,,,,,2,64,0,,
155160,note_on,120,0,1,,,,,,,,,0,,,60,0
155160,note_on,120,0,3,,,,,,,,,2,,,48,0
155280,note_on,0,0,1,,,,,,,,,0,,,60,88
155280,note_on,0,0,1,,,,,,,,,0,,,57,88
155280,note_on,120,0,1,,,,,,,,,0,,,59,0
155280,note_on,0,0,3,,,,,,,,,2,,,48,75
155280,note_on,120,0,3,,,,,,,,,2,,,47,0
155280,note_on,0,0,3,,,,,,,,,2,,,45,75
155292,note_on,12,0,1,,,,,,,,,0,,,60,0
155292,note_on,0,0,3,,,,,,,,,2,,,45,0
155292,note_on,12,0,3,,,,,,,,,2,,,48,0
155292,note_on,0,0,1,,,,,,,,,0,,,57,0
155400,note_on,720,0,2,,,,,,,,,1,,,53,0
155400,note_on,720,0,4,,,,,,,,,3,,,41,0
155400,note_on,0,0,1,,,,,,,,,0,,,59,88
155400,note_on,0,0,3,,,,,,,,,2,,,44,75
155400,note_on,0,0,3,,,,,,,,,2,,,47,75
155400,note_on,0,0,3,,,,,,,,,2,,,50,75
155400,note_on,108,0,1,,,,,,,,,0,,,53,88
155400,note_on,0,0,1,,,,,,,,,0,,,56,88
155400,note_on,0,0,1,,,,,,,,,0,,,62,88
155400,note_on,108,0,3,,,,,,,,,2,,,41,75
155412,note_on,12,0,3,,,,,,,,,2,,,50,0
155412,note_on,0,0,3,,,,,,,,,2,,,44,0
155412,note_on,0,0,3,,,,,,,,,2,,,47,0
155412,note_on,0,0,3,,,,,,,,,2,,,41,0
155412,note_on,0,0,1,,,,,,,,,0,,,59,0
155412,note_on,0,0,1,,,,,,,,,0,,,56,0
155412,note_on,0,0,1,,,,,,,,,0,,,53,0
155412,note_on,12,0,1,,,,,,,,,0,,,62,0
155520,note_on,0,0,1,,,,,,,,,0,,,63,88
155520,note_on,0,0,1,,,,,,,,,0,,,60,88
155520,note_on,0,0,1,,,,,,,,,0,,,57,88
155520,note_on,108,0,1,,,,,,,,,0,,,53,88
155520,note_on,108,0,3,,,,,,,,,2,,,41,75
155520,note_on,0,0,3,,,,,,,,,2,,,51,75
155520,note_on,0,0,3,,,,,,,,,2,,,48,75
155520,note_on,0,0,3,,,,,,,,,2,,,45,75
155532,note_on,0,0,1,,,,,,,,,0,,,60,0
155532,note_on,0,0,3,,,,,,,,,2,,,48,0
155532,note_on,0,0,3,,,,,,,,,2,,,45,0
155532,note_on,0,0,3,,,,,,,,,2,,,41,0
155532,note_on,12,0,3,,,,,,,,,2,,,51,0
155532,note_on,12,0,1,,,,,,,,,0,,,63,0
155532,note_on,0,0,1,,,,,,,,,0,,,53,0
155532,note_on,0,0,1,,,,,,,,,0,,,57,0
155640,note_on,0,0,3,,,,,,,,,2,,,52,36
155640,note_on,108,0,1,,,,,,,,,0,,,57,49
155640,note_on,0,0,1,,,,,,,,,0,,,60,49
155640,note_on,0,0,1,,,,,,,,,0,,,64,49
155640,note_on,0,0,3,,,,,,,,,2,,,48,36
155640,note_on,108,0,3,,,,,,,,,2,,,40,36
155640,note_on,0,0,3,,,,,,,,,2,,,45,36
156120,note_on,0,0,1,,,,,,,,,0,,,60,0
156120,note_on,0,0,1,,,,,,,,,0,,,57,0
156120,note_on,0,0,1,,,,,,,,,0,,,56,49
156120,note_on,0,0,1,,,,,,,,,0,,,59,49
156120,note_on,0,0,1,,,,,,,,,0,,,64,49
156120,note_on,480,0,1,,,,,,,,,0,,,64,0
156120,note_on,480,0,3,,,,,,,,,2,,,52,0
156120,note_on,0,0,3,,,,,,,,,2,,,52,36
156120,note_on,0,0,3,,,,,,,,,2,,,47,36
156120,note_on,0,0,3,,,,,,,,,2,,,44,36
156120,note_on,0,0,3,,,,,,,,,2,,,40,36
156120,note_on,0,0,3,,,,,,,,,2,,,48,0
156120,note_on,0,0,3,,,,,,,,,2,,,45,0
156120,note_on,0,0,3,,,,,,,,,2,,,40,0
156600,note_on,0,0,3,,,,,,,,,2,,,47,0
156600,note_on,0,0,3,,,,,,,,,2,,,44,0
156600,note_on,0,0,3,,,,,,,,,2,,,40,0
156600,note_on,480,0,3,,,,,,,,,2,,,52,0
156600,note_on,1200,0,2,,,,,,,,,1,,,57,49
156600,note_on,480,0,1,,,,,,,,,0,,,64,0
156600,note_on,0,0,1,,,,,,,,,0,,,59,0
156600,note_on,0,0,1,,,,,,,,,0,,,56,0
156600,note_on,0,0,1,,,,,,,,,0,,,65,49
156600,control_change,0,0,1,,,,,,,,,0,64,127,,
156600,note_on,0,0,3,,,,,,,,,2,,,41,36
156600,note_on,0,0,3,,,,,,,,,2,,,48,36
156660,note_on,60,0,1,,,,,,,,,0,,,65,0
156660,note_on,0,0,1,,,,,,,,,0,,,60,49
156720,note_on,60,0,1,,,,,,,,,0,,,60,0
156720,note_on,0,0,1,,,,,,,,,0,,,60,49
156726,note_on,6,0,1,,,,,,,,,0,,,60,0
156780,note_on,54,0,1,,,,,,,,,0,,,60,49
156786,note_on,6,0,1,,,,,,,,,0,,,60,0
156840,note_on,0,0,1,,,,,,,,,0,,,60,49
156840,control_change,54,0,1,,,,,,,,,0,64,0,,
156960,note_on,0,0,3,,,,,,,,,2,,,41,0
156960,note_on,0,0,3,,,,,,,,,2,,,36,36
156960,note_on,0,0,3,,,,,,,,,2,,,48,36
156960,note_on,0,0,1,,,,,,,,,0,,,58,49
156960,note_on,0,0,1,,,,,,,,,0,,,60,49
156960,note_on,360,0,2,,,,,,,,,1,,,57,0
156960,note_on,0,0,1,,,,,,,,,0,,,64,49
156960,note_on,0,0,1,,,,,,,,,0,,,67,49
156960,note_on,360,0,3,,,,,,,,,2,,,48,0
156960,note_on,120,0,1,,,,,,,,,0,,,60,0
156972,note_on,12,0,3,,,,,,,,,2,,,48,0
156972,note_on,0,0,3,,,,,,,,,2,,,36,0
156972,note_on,12,0,1,,,,,,,,,0,,,67,0
156972,note_on,0,0,1,,,,,,,,,0,,,58,0
156972,note_on,0,0,1,,,,,,,,,0,,,64,0
156972,note_on,0,0,1,,,,,,,,,0,,,60,0
157080,note_on,0,0,1,,,,,,,,,0,,,65,49
157080,note_on,0,0,1,,,,,,,,,0,,,60,49
157080,note_on,0,0,3,,,,,,,,,2,,,48,36
157080,note_on,108,0,3,,,,,,,,,2,,,41,36
157080,note_on,108,0,1,,,,,,,,,0,,,57,49
157092,note_on,0,0,1,,,,,,,,,0,,,60,0
157092,note_on,0,0,1,,,,,,,,,0,,,57,0
157092,note_on,12,0,3,,,,,,,,,2,,,48,0
157092,note_on,12,0,1,,,,,,,,,0,,,65,0
157092,note_on,0,0,3,,,,,,,,,2,,,41,0
157200,note_on,108,0,3,,,,,,,,,2,,,36,36
157200,note_on,0,0,3,,,,,,,,,2,,,48,36
157200,note_on,0,0,1,,,,,,,,,0,,,67,49
157200,note_on,0,0,1,,,,,,,,,0,,,64,49
157200,note_on,0,0,1,,,,,,,,,0,,,60,49
157200,note_on,108,0,1,,,,,,,,,0,,,58,49
157212,note_on,0,0,1,,,,,,,,,0,,,64,0
157212,note_on,0,0,1,,,,,,,,,0,,,60,0
157212,note_on,0,0,1,,,,,,,,,0,,,58,0
157212,note_on,12,0,1,,,,,,,,,0,,,67,0
157212,note_on,12,0,3,,,,,,,,,2,,,48,0
157212,note_on,0,0,3,,,,,,,,,2,,,36,0
157320,note_on,0,0,1,,,,,,,,,0,,,65,49
157320,note_on,0,0,1,,,,,,,,,0,,,69,49
157320,note_on,0,0,3,,,,,,,,,2,,,48,36
157320,note_on,108,0,3,,,,,,,,,2,,,41,36
157320,note_on,108,0,1,,,,,,,,,0,,,57,49
157320,note_on,0,0,1,,,,,,,,,0,,,60,49
157332,note_on,0,0,1,,,,,,,,,0,,,65,0
157332,note_on,0,0,1,,,,,,,,,0,,,60,0
157332,note_on,0,0,1,,,,,,,,,0,,,57,0
157332,note_on,12,0,1,,,,,,,,,0,,,69,0
157332,note_on,0,0,3,,,,,,,,,2,,,41,0
157332,note_on,12,0,3,,,,,,,,,2,,,48,0
157440,note_on,0,0,1,,,,,,,,,0,,,67,49
157440,note_on,0,0,1,,,,,,,,,0,,,64,49
157440,note_on,0,0,1,,,,,,,,,0,,,60,49
157440,note_on,108,0,1,,,,,,,,,0,,,58,49
157440,note_on,0,0,3,,,,,,,,,2,,,48,36
157440,note_on,108,0,3,,,,,,,,,2,,,36,36
157452,note_on,12,0,3,,,,,,,,,2,,,48,0
157452,note_on,0,0,3,,,,,,,,,2,,,36,0
157452,note_on,0,0,1,,,,,,,,,0,,,64,0
157452,note_on,0,0,1,,,,,,,,,0,,,60,0
157452,note_on,0,0,1,,,,,,,,,0,,,58,0
157452,note_on,12,0,1,,,,,,,,,0,,,67,0
157560,note_on,0,0,1,,,,,,,,,0,,,65,49
157560,control_change,108,0,1,,,,,,,,,0,64,127,,
157560,note_on,108,0,3,,,,,,,,,2,,,41,36
157560,note_on,600,0,2,,,,,,,,,1,,,57,49
157560,note_on,0,0,3,,,,,,,,,2,,,48,36
157620,note_on,60,0,1,,,,,,,,,0,,,65,0
157620,note_on,0,0,1,,,,,,,,,0,,,60,49
157680,note_on,60,0,1,,,,,,,,,0,,,60,0
157680,note_on,0,0,1,,,,,,,,,0,,,60,49
157686,note_on,6,0,1,,,,,,,,,0,,,60,0
157740,note_on,54,0,1,,,,,,,,,0,,,60,49
157746,note_on,6,0,1,,,,,,,,,0,,,60,0
157800,control_change,54,0,1,,,,,,,,,0,64,0,,
157800,note_on,0,0,1,,,,,,,,,0,,,60,49
157860,note_on,0,0,3,,,,,,,,,2,,,41,0
157860,note_on,60,0,1,,,,,,,,,0,,,60,0
157860,note_on,300,0,3,,,,,,,,,2,,,48,0
157920,note_on,360,0,2,,,,,,,,,1,,,57,0
157920,note_on,60,0,1,,,,,,,,,0,,,65,88
157920,note_on,60,0,3,,,,,,,,,2,,,53,75
158010,note_on,90,0,3,,,,,,,,,2,,,52,75
158010,note_on,90,0,1,,,,,,,,,0,,,64,88
158025,note_on,15,0,1,,,,,,,,,0,,,64,0
158025,note_on,0,0,1,,,,,,,,,0,,,65,88
158025,note_on,15,0,3,,,,,,,,,2,,,52,0
158025,note_on,0,0,3,,,,,,,,,2,,,53,75
158040,note_on,0,0,1,,,,,,,,,0,,,65,0
158040,note_on,0,0,1,,,,,,,,,0,,,64,88
158040,note_on,15,0,3,,,,,,,,,2,,,53,0
158040,note_on,0,0,3,,,,,,,,,2,,,53,0
158040,note_on,0,0,3,,,,,,,,,2,,,52,75
158040,note_on,15,0,1,,,,,,,,,0,,,65,0
158160,note_on,120,0,1,,,,,,,,,0,,,64,0
158160,note_on,0,0,1,,,,,,,,,0,,,62,88
158160,note_on,0,0,3,,,,,,,,,2,,,50,75
158160,note_on,120,0,3,,,,,,,,,2,,,52,0
158280,note_on,0,0,3,,,,,,,,,2,,,52,75
158280,note_on,120,0,3,,,,,,,,,2,,,50,0
158280,note_on,120,0,1,,,,,,,,,0,,,62,0
158280,note_on,0,0,1,,,,,,,,,0,,,64,88
158400,note_on,120,0,1,,,,,,,,,0,,,64,0
158400,note_on,0,0,3,,,,,,,,,2,,,53,75
158400,note_on,120,0,3,,,,,,,,,2,,,52,0
158400,note_on,0,0,1,,,,,,,,,0,,,65,88
158490,note_on,90,0,3,,,,,,,,,2,,,48,75
158490,note_on,90,0,1,,,,,,,,,0,,,60,88
158505,note_on,0,0,1,,,,,,,,,0,,,62,88
158505,note_on,15,0,1,,,,,,,,,0,,,60,0
158505,note_on,0,0,3,,,,,,,,,2,,,50,75
158505,note_on,15,0,3,,,,,,,,,2,,,48,0
158520,note_on,15,0,1,,,,,,,,,0,,,62,0
158520,note_on,0,0,3,,,,,,,,,2,,,48,75
158520,note_on,0,0,3,,,,,,,,,2,,,53,0
158520,note_on,15,0,3,,,,,,,,,2,,,50,0
158520,note_on,0,0,1,,,,,,,,,0,,,65,0
158520,note_on,0,0,1,,,,,,,,,0,,,60,88
158640,note_on,0,0,3,,,,,,,,,2,,,47,75
158640,note_on,120,0,3,,,,,,,,,2,,,48,0
158640,note_on,120,0,1,,,,,,,,,0,,,60,0
158640,note_on,0,0,1,,,,,,,,,0,,,59,88
158700,note_on,60,0,3,,,,,,,,,2,,,47,0
158700,note_on,0,0,1,,,,,,,,,0,,,60,88
158700,note_on,0,0,3,,,,,,,,,2,,,48,75
158700,note_on,60,0,1,,,,,,,,,0,,,59,0
158760,note_on,60,0,1,,,,,,,,,0,,,60,0
158760,note_on,60,0,3,,,,,,,,,2,,,48,0
158760,note_on,0,0,3,,,,,,,,,2,,,50,75
158760,note_on,0,0,1,,,,,,,,,0,,,62,88
158880,note_on,120,0,1,,,,,,,,,0,,,62,0
158880,note_on,0,0,3,,,,,,,,,2,,,52,75
158880,note_on,0,0,1,,,,,,,,,0,,,59,88
158880,note_on,0,0,1,,,,,,,,,0,,,64,88
158880,note_on,0,0,3,,,,,,,,,2,,,47,75
158880,note_on,0,0,3,,,,,,,,,2,,,40,75
158880,note_on,120,0,3,,,,,,,,,2,,,50,0
158880,note_on,0,0,1,,,,,,,,,0,,,56,88
159000,note_on,0,0,3,,,,,,,,,2,,,47,0
159000,note_on,120,0,3,,,,,,,,,2,,,52,0
159000,note_on,1080,0,2,,,,,,,,,1,,,57,49
159000,note_on,0,0,3,,,,,,,,,2,,,48,36
159000,note_on,0,0,3,,,,,,,,,2,,,41,36
159000,control_change,0,0,1,,,,,,,,,0,64,127,,
159000,note_on,0,0,1,,,,,,,,,0,,,65,49
159000,note_on,0,0,1,,,,,,,,,0,,,56,0
159000,note_on,0,0,1,,,,,,,,,0,,,59,0
159000,note_on,120,0,1,,,,,,,,,0,,,64,0
159000,note_on,0,0,3,,,,,,,,,2,,,40,0
159060,note_on,0,0,1,,,,,,,,,0,,,60,49
159060,note_on,60,0,1,,,,,,,,,0,,,65,0
159120,note_on,60,0,1,,,,,,,,,0,,,60,0
159120,note_on,0,0,1,,,,,,,,,0,,,60,49
159126,note_on,6,0,1,,,,,,,,,0,,,60,0
159180,note_on,54,0,1,,,,,,,,,0,,,60,49
159186,note_on,6,0,1,,,,,,,,,0,,,60,0
159240,control_change,54,0,1,,,,,,,,,0,64,0,,
159240,note_on,0,0,1,,,,,,,,,0,,,60,49
159360,note_on,360,0,3,,,,,,,,,2,,,48,0
159360,note_on,0,0,1,,,,,,,,,0,,,67,49
159360,note_on,0,0,1,,,,,,,,,0,,,64,49
159360,note_on,0,0,1,,,,,,,,,0,,,60,49
159360,note_on,0,0,1,,,,,,,,,0,,,58,49
159360,note_on,120,0,1,,,,,,,,,0,,,60,0
159360,note_on,360,0,2,,,,,,,,,1,,,57,0
159360,note_on,0,0,3,,,,,,,,,2,,,48,36
159360,note_on,0,0,3,,,,,,,,,2,,,36,36
159360,note_on,0,0,3,,,,,,,,,2,,,41,0
159372,note_on,12,0,1,,,,,,,,,0,,,67,0
159372,note_on,0,0,3,,,,,,,,,2,,,36,0
159372,note_on,12,0,3,,,,,,,,,2,,,48,0
159372,note_on,0,0,1,,,,,,,,,0,,,58,0
159372,note_on,0,0,1,,,,,,,,,0,,,64,0
159372,note_on,0,0,1,,,,,,,,,0,,,60,0
159480,note_on,0,0,1,,,,,,,,,0,,,65,49
159480,note_on,0,0,1,,,,,,,,,0,,,60,49
159480,note_on,108,0,1,,,,,,,,,0,,,57,49
159480,note_on,108,0,3,,,,,,,,,2,,,41,36
159480,note_on,0,0,3,,,,,,,,,2,,,48,36
159492,note_on,0,0,1,,,,,,,,,0,,,57,0
159492,note_on,12,0,1,,,,,,,,,0,,,65,0
159492,note_on,12,0,3,,,,,,,,,2,,,48,0
159492,note_on,0,0,3,,,,,,,,,2,,,41,0
159492,note_on,0,0,1,,,,,,,,,0,,,60,0
159600,note_on,0,0,1,,,,,,,,,0,,,60,49
159600,note_on,108,0,1,,,,,,,,,0,,,58,49
159600,note_on,0,0,1,,,,,,,,,0,,,64,49
159600,note_on,108,0,3,,,,,,,,,2,,,36,36
159600,note_on,0,0,3,,,,,,,,,2,,,48,36
159600,note_on,0,0,1,,,,,,,,,0,,,67,49
159612,note_on,0,0,1,,,,,,,,,0,,,64,0
159612,note_on,0,0,3,,,,,,,,,2,,,36,0
159612,note_on,12,0,3,,,,,,,,,2,,,48,0
159612,note_on,12,0,1,,,,,,,,,0,,,67,0
159612,note_on,0,0,1,,,,,,,,,0,,,58,0
159612,note_on,0,0,1,,,,,,,,,0,,,60,0
159720,note_on,0,0,1,,,,,,,,,0,,,69,49
159720,note_on,0,0,1,,,,,,,,,0,,,65,49
159720,note_on,108,0,1,,,,,,,,,0,,,57,49
159720,note_on,0,0,3,,,,,,,,,2,,,48,36
159720,note_on,108,0,3,,,,,,,,,2,,,41,36
159720,note_on,0,0,1,,,,,,,,,0,,,60,49
159732,note_on,0,0,3,,,,,,,,,2,,,41,0
159732,note_on,12,0,3,,,,,,,,,2,,,48,0
159732,note_on,12,0,1,,,,,,,,,0,,,69,0
159732,note_on,0,0,1,,,,,,,,,0,,,57,0
159732,note_on,0,0,1,,,,,,,,,0,,,60,0
159732,note_on,0,0,1,,,,,,,,,0,,,65,0
159840,note_on,108,0,1,,,,,,,,,0,,,58,49
159840,note_on,0,0,1,,,,,,,,,0,,,60,49
159840,note_on,0,0,1,,,,,,,,,0,,,67,49
159840,note_on,0,0,1,,,,,,,,,0,,,64,49
159840,note_on,0,0,3,,,,,,,,,2,,,48,36
159840,note_on,108,0,3,,,,,,,,,2,,,36,36
159852,note_on,0,0,1,,,,,,,,,0,,,60,0
159852,note_on,12,0,1,,,,,,,,,0,,,67,0
159852,note_on,0,0,1,,,,,,,,,0,,,58,0
159852,note_on,0,0,3,,,,,,,,,2,,,36,0
159852,note_on,12,0,3,,,,,,,,,2,,,48,0
159852,note_on,0,0,1,,,,,,,,,0,,,64,0
159960,note_on,0,0,1,,,,,,,,,0,,,65,49
159960,control_change,108,0,1,,,,,,,,,0,64,127,,
159960,note_on,600,0,2,,,,,,,,,1,,,57,49
159960,note_on,0,0,3,,,,,,,,,2,,,48,36
159960,note_on,108,0,3,,,,,,,,,2,,,41,36
160020,note_on,0,0,1,,,,,,,,,0,,,60,49
160020,note_on,60,0,1,,,,,,,,,0,,,65,0
160080,note_on,60,0,1,,,,,,,,,0,,,60,0
160080,note_on,0,0,1,,,,,,,,,0,,,60,49
160086,note_on,6,0,1,,,,,,,,,0,,,60,0
160140,note_on,54,0,1,,,,,,,,,0,,,60,49
160146,note_on,6,0,1,,,,,,,,,0,,,60,0
160200,control_change,54,0,1,,,,,,,,,0,64,0,,
160200,note_on,0,0,1,,,,,,,,,0,,,60,49
160260,note_on,300,0,3,,,,,,,,,2,,,48,0
160260,note_on,0,0,3,,,,,,,,,2,,,41,0
160260,note_on,60,0,1,,,,,,,,,0,,,60,0
160320,note_on,60,0,1,,,,,,,,,0,,,65,49
160320,note_on,360,0,2,,,,,,,,,1,,,57,0
160320,note_on,60,0,3,,,,,,,,,2,,,53,36
160410,note_on,90,0,3,,,,,,,,,2,,,52,36
160410,note_on,90,0,1,,,,,,,,,0,,,64,49
160425,note_on,0,0,1,,,,,,,,,0,,,65,49
160425,note_on,15,0,1,,,,,,,,,0,,,64,0
160425,note_on,15,0,3,,,,,,,,,2,,,52,0
160425,note_on,0,0,3,,,,,,,,,2,,,53,36
160440,note_on,0,0,1,,,,,,,,,0,,,64,49
160440,note_on,0,0,1,,,,,,,,,0,,,65,0
160440,note_on,15,0,1,,,,,,,,,0,,,65,0
160440,note_on,15,0,3,,,,,,,,,2,,,53,0
160440,note_on,0,0,3,,,,,,,,,2,,,53,0
160440,note_on,0,0,3,,,,,,,,,2,,,52,36
160560,note_on,0,0,1,,,,,,,,,0,,,62,49
160560,note_on,120,0,1,,,,,,,,,0,,,64,0
160560,note_on,120,0,3,,,,,,,,,2,,,52,0
160560,note_on,0,0,3,,,,,,,,,2,,,50,36
160680,note_on,0,0,3,,,,,,,,,2,,,52,36
160680,note_on,120,0,3,,,,,,,,,2,,,50,0
160680,note_on,120,0,1,,,,,,,,,0,,,62,0
160680,note_on,0,0,1,,,,,,,,,0,,,64,49
160800,note_on,0,0,3,,,,,,,,,2,,,53,36
160800,note_on,120,0,1,,,,,,,,,0,,,64,0
160800,note_on,0,0,1,,,,,,,,,0,,,65,49
160800,note_on,120,0,3,,,,,,,,,2,,,52,0
160890,note_on,90,0,1,,,,,,,,,0,,,60,49
160890,note_on,90,0,3,,,,,,,,,2,,,48,36
160905,note_on,0,0,1,,,,,,,,,0,,,62,49
160905,note_on,15,0,1,,,,,,,,,0,,,60,0
160905,note_on,15,0,3,,,,,,,,,2,,,48,0
160905,note_on,0,0,3,,,,,,,,,2,,,50,36
160920,note_on,0,0,1,,,,,,,,,0,,,60,49
160920,note_on,0,0,1,,,,,,,,,0,,,65,0
160920,note_on,15,0,1,,,,,,,,,0,,,62,0
160920,note_on,15,0,3,,,,,,,,,2,,,50,0
160920,note_on,0,0,3,,,,,,,,,2,,,48,36
160920,note_on,0,0,3,,,,,,,,,2,,,53,0
161040,note_on,0,0,3,,,,,,,,,2,,,47,36
161040,note_on,120,0,1,,,,,,,,,0,,,60,0
161040,note_on,0,0,1,,,,,,,,,0,,,59,49
161040,note_on,120,0,3,,,,,,,,,2,,,48,0
161100,note_on,60,0,1,,,,,,,,,0,,,59,0
161100,note_on,60,0,3,,,,,,,,,2,,,47,0
161100,note_on,0,0,3,,,,,,,,,2,,,48,36
161100,note_on,0,0,1,,,,,,,,,0,,,60,49
161160,note_on,0,0,1,,,,,,,,,0,,,62,49
161160,note_on,60,0,1,,,,,,,,,0,,,60,0
161160,note_on,0,0,3,,,,,,,,,2,,,50,36
161160,note_on,60,0,3,,,,,,,,,2,,,48,0
161280,note_on,0,0,3,,,,,,,,,2,,,52,36
161280,note_on,120,0,1,,,,,,,,,0,,,62,0
161280,note_on,0,0,1,,,,,,,,,0,,,56,49
161280,note_on,0,0,1,,,,,,,,,0,,,59,49
161280,note_on,0,0,1,,,,,,,,,0,,,64,49
161280,note_on,0,0,3,,,,,,,,,2,,,47,36
161280,note_on,120,0,3,,,,,,,,,2,,,50,0
161280,note_on,0,0,3,,,,,,,,,2,,,40,36
161400,note_on,120,0,1,,,,,,,,,0,,,64,0
161400,note_on,0,0,1,,,,,,,,,0,,,56,0
161400,note_on,0,0,3,,,,,,,,,2,,,40,0
161400,note_on,0,0,3,,,,,,,,,2,,,47,0
161400,note_on,120,0,3,,,,,,,,,2,,,52,0
161400,note_on,0,0,1,,,,,,,,,0,,,59,0
161760,note_on,0,0,3,,,,,,,,,2,,,48,36
161760,note_on,360,0,3,,,,,,,,,2,,,36,36
161850,note_on,90,0,3,,,,,,,,,2,,,47,36
161850,note_on,6450,0,4,,,,,,,,,3,,,35,75
161865,note_on,0,0,3,,,,,,,,,2,,,48,49
161865,note_on,15,0,4,,,,,,,,,3,,,35,0
161865,note_on,0,0,4,,,,,,,,,3,,,36,75
161865,note_on,15,0,3,,,,,,,,,2,,,47,0
161880,note_on,15,0,4,,,,,,,,,3,,,36,0
161880,note_on,15,0,3,,,,,,,,,2,,,48,0
161880,note_on,0,0,4,,,,,,,,,3,,,35,36
161880,note_on,0,0,3,,,,,,,,,2,,,36,0
161880,note_on,0,0,3,,,,,,,,,2,,,47,49
161880,note_on,0,0,3,,,,,,,,,2,,,48,0
162000,note_on,0,0,3,,,,,,,,,2,,,45,49
162000,note_on,120,0,3,,,,,,,,,2,,,47,0
162000,note_on,120,0,4,,,,,,,,,3,,,35,0
162000,note_on,0,0,4,,,,,,,,,3,,,33,36
162120,note_on,0,0,3,,,,,,,,,2,,,47,49
162120,note_on,120,0,3,,,,,,,,,2,,,45,0
162120,note_on,0,0,4,,,,,,,,,3,,,35,36
162120,note_on,120,0,4,,,,,,,,,3,,,33,0
162240,note_on,120,0,4,,,,,,,,,3,,,35,0
162240,note_on,120,0,3,,,,,,,,,2,,,47,0
162240,note_on,0,0,4,,,,,,,,,3,,,36,36
162240,note_on,0,0,3,,,,,,,,,2,,,48,49
162330,note_on,90,0,4,,,,,,,,,3,,,35,36
162330,note_on,90,0,3,,,,,,,,,2,,,47,49
162345,note_on,0,0,4,,,,,,,,,3,,,36,36
162345,note_on,15,0,4,,,,,,,,,3,,,35,0
162345,note_on,15,0,3,,,,,,,,,2,,,47,0
162345,note_on,0,0,3,,,,,,,,,2,,,48,49
162360,note_on,0,0,4,,,,,,,,,3,,,35,36
162360,note_on,0,0,4,,,,,,,,,3,,,36,0
162360,note_on,15,0,4,,,,,,,,,3,,,36,0
162360,note_on,0,0,3,,,,,,,,,2,,,48,0
162360,note_on,0,0,3,,,,,,,,,2,,,47,49
162360,note_on,15,0,3,,,,,,,,,2,,,48,0
162480,note_on,0,0,3,,,,,,,,,2,,,45,49
162480,note_on,120,0,3,,,,,,,,,2,,,47,0
162480,note_on,0,0,4,,,,,,,,,3,,,33,36
162480,note_on,120,0,4,,,,,,,,,3,,,35,0
162540,note_on,0,0,3,,,,,,,,,2,,,47,49
162540,note_on,0,0,4,,,,,,,,,3,,,35,36
162540,note_on,60,0,4,,,,,,,,,3,,,33,0
162540,note_on,60,0,3,,,,,,,,,2,,,45,0
162600,note_on,60,0,4,,,,,,,,,3,,,35,0
162600,note_on,0,0,4,,,,,,,,,3,,,36,36
162600,note_on,0,0,3,,,,,,,,,2,,,48,49
162600,note_on,60,0,3,,,,,,,,,2,,,47,0
162720,note_on,0,0,3,,,,,,,,,2,,,50,49
162720,note_on,120,0,3,,,,,,,,,2,,,48,0
162720,note_on,120,0,4,,,,,,,,,3,,,36,0
162720,note_on,0,0,4,,,,,,,,,3,,,38,36
162810,note_on,90,0,3,,,,,,,,,2,,,48,49
162810,note_on,90,0,4,,,,,,,,,3,,,36,36
162825,note_on,0,0,3,,,,,,,,,2,,,50,49
162825,note_on,15,0,4,,,,,,,,,3,,,36,0
162825,note_on,0,0,4,,,,,,,,,3,,,38,36
162825,note_on,15,0,3,,,,,,,,,2,,,48,0
162840,note_on,0,0,3,,,,,,,,,2,,,50,0
162840,note_on,15,0,3,,,,,,,,,2,,,50,0
162840,note_on,15,0,4,,,,,,,,,3,,,38,0
162840,note_on,0,0,4,,,,,,,,,3,,,38,0
162840,note_on,0,0,4,,,,,,,,,3,,,36,36
162840,note_on,0,0,3,,,,,,,,,2,,,48,49
162960,note_on,0,0,3,,,,,,,,,2,,,47,49
162960,note_on,120,0,4,,,,,,,,,3,,,36,0
162960,note_on,0,0,4,,,,,,,,,3,,,35,36
162960,note_on,120,0,3,,,,,,,,,2,,,48,0
163080,note_on,0,0,3,,,,,,,,,2,,,48,49
163080,note_on,120,0,3,,,,,,,,,2,,,47,0
163080,note_on,120,0,4,,,,,,,,,3,,,35,0
163080,note_on,0,0,4,,,,,,,,,3,,,36,36
163200,note_on,120,0,3,,,,,,,,,2,,,48,0
163200,note_on,0,0,4,,,,,,,,,3,,,38,36
163200,note_on,120,0,4,,,,,,,,,3,,,36,0
163200,note_on,0,0,3,,,,,,,,,2,,,50,49
163290,note_on,90,0,3,,,,,,,,,2,,,48,49
163290,note_on,90,0,4,,,,,,,,,3,,,36,36
163305,note_on,0,0,4,,,,,,,,,3,,,38,36
163305,note_on,15,0,4,,,,,,,,,3,,,36,0
163305,note_on,0,0,3,,,,,,,,,2,,,50,49
163305,note_on,15,0,3,,,,,,,,,2,,,48,0
163320,note_on,0,0,3,,,,,,,,,2,,,48,75
163320,note_on,0,0,3,,,,,,,,,2,,,50,0
163320,note_on,0,0,4,,,,,,,,,3,,,36,62
163320,note_on,0,0,4,,,,,,,,,3,,,38,0
163320,note_on,15,0,4,,,,,,,,,3,,,38,0
163320,note_on,15,0,3,,,,,,,,,2,,,50,0
163440,note_on,120,0,3,,,,,,,,,2,,,48,0
163440,note_on,0,0,3,,,,,,,,,2,,,47,75
163440,note_on,0,0,4,,,,,,,,,3,,,35,62
163440,note_on,120,0,4,,,,,,,,,3,,,36,0
163500,note_on,60,0,4,,,,,,,,,3,,,35,0
163500,note_on,0,0,3,,,,,,,,,2,,,48,75
163500,note_on,60,0,3,,,,,,,,,2,,,47,0
163500,note_on,0,0,4,,,,,,,,,3,,,36,62
163560,note_on,0,0,4,,,,,,,,,3,,,38,62
163560,note_on,60,0,4,,,,,,,,,3,,,36,0
163560,note_on,0,0,3,,,,,,,,,2,,,50,75
163560,note_on,60,0,3,,,,,,,,,2,,,48,0
163680,note_on,0,0,4,,,,,,,,,3,,,40,62
163680,note_on,0,0,3,,,,,,,,,2,,,52,75
163680,note_on,120,0,3,,,,,,,,,2,,,50,0
163680,note_on,120,0,4,,,,,,,,,3,,,38,0
163770,note_on,90,0,4,,,,,,,,,3,,,38,62
163770,note_on,90,0,3,,,,,,,,,2,,,50,75
163785,note_on,0,0,3,,,,,,,,,2,,,52,75
163785,note_on,15,0,3,,,,,,,,,2,,,50,0
163785,note_on,0,0,4,,,,,,,,,3,,,40,62
163785,note_on,15,0,4,,,,,,,,,3,,,38,0
163800,note_on,0,0,4,,,,,,,,,3,,,38,62
163800,note_on,0,0,3,,,,,,,,,2,,,52,0
163800,note_on,0,0,3,,,,,,,,,2,,,50,75
163800,note_on,15,0,4,,,,,,,,,3,,,40,0
163800,note_on,0,0,4,,,,,,,,,3,,,40,0
163800,note_on,15,0,3,,,,,,,,,2,,,52,0
163920,note_on,120,0,3,,,,,,,,,2,,,50,0
163920,note_on,0,0,3,,,,,,,,,2,,,48,75
163920,note_on,120,0,4,,,,,,,,,3,,,38,0
163920,note_on,0,0,4,,,,,,,,,3,,,36,62
163980,note_on,0,0,3,,,,,,,,,2,,,50,75
163980,note_on,0,0,4,,,,,,,,,3,,,38,62
163980,note_on,60,0,3,,,,,,,,,2,,,48,0
163980,note_on,60,0,4,,,,,,,,,3,,,36,0
164040,control_change,0,0,3,,,,,,,,,2,64,127,,
164040,note_on,60,0,4,,,,,,,,,3,,,38,0
164040,note_on,0,0,3,,,,,,,,,2,,,52,75
164040,note_on,60,0,3,,,,,,,,,2,,,50,0
164040,note_on,0,0,4,,,,,,,,,3,,,40,62
164040,control_change,0,0,4,,,,,,,,,3,64,127,,
164160,note_on,120,0,3,,,,,,,,,2,,,52,0
164160,note_on,0,0,3,,,,,,,,,2,,,53,75
164160,control_change,0,0,4,,,,,,,,,3,64,0,,
164160,note_on,120,0,4,,,,,,,,,3,,,40,0
164160,note_on,0,0,4,,,,,,,,,3,,,41,62
164280,note_on,120,0,4,,,,,,,,,3,,,41,0
164280,note_on,0,0,3,,,,,,,,,2,,,55,75
164280,note_on,0,0,3,,,,,,,,,2,,,43,75
164280,note_on,120,0,3,,,,,,,,,2,,,53,0
164400,note_on,0,0,3,,,,,,,,,2,,,41,75
164400,note_on,0,0,3,,,,,,,,,2,,,43,0
164400,note_on,120,0,3,,,,,,,,,2,,,55,0
164400,note_on,0,0,3,,,,,,,,,2,,,53,75
164520,note_on,0,0,3,,,,,,,,,2,,,41,0
164520,control_change,0,0,3,,,,,,,,,2,64,0,,
164520,note_on,0,0,3,,,,,,,,,2,,,40,75
164520,note_on,0,0,3,,,,,,,,,2,,,52,75
164520,note_on,120,0,3,,,,,,,,,2,,,53,0
164640,note_on,0,0,3,,,,,,,,,2,,,38,75
164640,note_on,0,0,3,,,,,,,,,2,,,50,75
164640,note_on,0,0,3,,,,,,,,,2,,,40,0
164640,note_on,120,0,3,,,,,,,,,2,,,52,0
164760,note_on,0,0,2,,,,,,,,,1,,,60,36
164760,note_on,4440,0,2,,,,,,,,,1,,,57,36
164760,note_on,0,0,3,,,,,,,,,2,,,40,36
164760,note_on,0,0,3,,,,,,,,,2,,,38,0
164760,note_on,120,0,3,,,,,,,,,2,,,50,0
164760,note_on,0,0,3,,,,,,,,,2,,,52,36
164820,control_change,3420,0,1,,,,,,,,,0,64,127,,
164820,note_on,0,0,1,,,,,,,,,0,,,64,49
164880,note_on,60,0,1,,,,,,,,,0,,,64,0
164880,note_on,0,0,1,,,,,,,,,0,,,64,49
164940,note_on,0,0,1,,,,,,,,,0,,,64,49
164940,note_on,60,0,1,,,,,,,,,0,,,64,0
165000,note_on,0,0,1,,,,,,,,,0,,,64,49
165000,note_on,60,0,1,,,,,,,,,0,,,64,0
165000,control_change,0,0,1,,,,,,,,,0,64,0,,
165120,note_on,120,0,1,,,,,,,,,0,,,64,0
165120,note_on,0,0,1,,,,,,,,,0,,,64,49
165240,note_on,0,0,2,,,,,,,,,1,,,57,0
165240,note_on,480,0,2,,,,,,,,,1,,,60,0
165240,note_on,480,0,3,,,,,,,,,2,,,52,0
165240,note_on,0,0,3,,,,,,,,,2,,,40,0
165240,note_on,0,0,3,,,,,,,,,2,,,40,36
165240,note_on,0,0,3,,,,,,,,,2,,,52,36
165240,note_on,0,0,2,,,,,,,,,1,,,56,36
165240,note_on,120,0,1,,,,,,,,,0,,,64,0
165240,note_on,0,0,2,,,,,,,,,1,,,59,36
165300,note_on,0,0,1,,,,,,,,,0,,,64,49
165300,control_change,60,0,1,,,,,,,,,0,64,127,,
165360,note_on,0,0,1,,,,,,,,,0,,,64,49
165360,note_on,60,0,1,,,,,,,,,0,,,64,0
165420,note_on,0,0,1,,,,,,,,,0,,,64,49
165420,note_on,60,0,1,,,,,,,,,0,,,64,0
165480,note_on,0,0,1,,,,,,,,,0,,,64,49
165480,note_on,60,0,1,,,,,,,,,0,,,64,0
165600,note_on,0,0,1,,,,,,,,,0,,,64,49
165600,control_change,0,0,1,,,,,,,,,0,64,0,,
165600,note_on,120,0,1,,,,,,,,,0,,,64,0
165720,note_on,0,0,2,,,,,,,,,1,,,56,0
165720,note_on,480,0,3,,,,,,,,,2,,,52,0
165720,note_on,0,0,3,,,,,,,,,2,,,40,0
165720,note_on,480,0,2,,,,,,,,,1,,,59,0
165720,note_on,120,0,1,,,,,,,,,0,,,64,0
166080,note_on,360,0,1,,,,,,,,,0,,,60,49
166080,note_on,360,0,3,,,,,,,,,2,,,48,36
166170,note_on,90,0,3,,,,,,,,,2,,,47,36
166170,note_on,90,0,1,,,,,,,,,0,,,59,49
166185,note_on,15,0,1,,,,,,,,,0,,,59,0
166185,note_on,0,0,1,,,,,,,,,0,,,60,49
166185,note_on,0,0,3,,,,,,,,,2,,,48,36
166185,note_on,15,0,3,,,,,,,,,2,,,47,0
166200,note_on,0,0,3,,,,,,,,,2,,,47,36
166200,note_on,15,0,1,,,,,,,,,0,,,60,0
166200,note_on,0,0,1,,,,,,,,,0,,,60,0
166200,note_on,0,0,1,,,,,,,,,0,,,59,49
166200,note_on,0,0,3,,,,,,,,,2,,,48,0
166200,note_on,15,0,3,,,,,,,,,2,,,48,0
166320,note_on,120,0,1,,,,,,,,,0,,,59,0
166320,note_on,0,0,1,,,,,,,,,0,,,57,49
166320,note_on,0,0,3,,,,,,,,,2,,,45,36
166320,note_on,120,0,3,,,,,,,,,2,,,47,0
166440,note_on,120,0,1,,,,,,,,,0,,,57,0
166440,note_on,0,0,1,,,,,,,,,0,,,59,49
166440,note_on,0,0,3,,,,,,,,,2,,,47,36
166440,note_on,120,0,3,,,,,,,,,2,,,45,0
166560,note_on,0,0,3,,,,,,,,,2,,,48,36
166560,note_on,120,0,3,,,,,,,,,2,,,47,0
166560,note_on,0,0,1,,,,,,,,,0,,,60,49
166560,note_on,120,0,1,,,,,,,,,0,,,59,0
166650,note_on,90,0,3,,,,,,,,,2,,,47,36
166650,note_on,90,0,1,,,,,,,,,0,,,59,49
166665,note_on,15,0,1,,,,,,,,,0,,,59,0
166665,note_on,0,0,3,,,,,,,,,2,,,48,36
166665,note_on,15,0,3,,,,,,,,,2,,,47,0
166665,note_on,0,0,1,,,,,,,,,0,,,60,49
166680,note_on,15,0,1,,,,,,,,,0,,,60,0
166680,note_on,0,0,3,,,,,,,,,2,,,48,0
166680,note_on,0,0,3,,,,,,,,,2,,,47,36
166680,note_on,0,0,1,,,,,,,,,0,,,60,0
166680,note_on,15,0,3,,,,,,,,,2,,,48,0
166680,note_on,0,0,1,,,,,,,,,0,,,59,49
166800,note_on,120,0,3,,,,,,,,,2,,,47,0
166800,note_on,0,0,3,,,,,,,,,2,,,45,36
166800,note_on,0,0,1,,,,,,,,,0,,,57,49
166800,note_on,120,0,1,,,,,,,,,0,,,59,0
166860,note_on,60,0,1,,,,,,,,,0,,,57,0
166860,note_on,0,0,1,,,,,,,,,0,,,59,49
166860,note_on,0,0,3,,,,,,,,,2,,,47,36
166860,note_on,60,0,3,,,,,,,,,2,,,45,0
166920,note_on,60,0,3,,,,,,,,,2,,,47,0
166920,note_on,0,0,1,,,,,,,,,0,,,60,49
166920,note_on,60,0,1,,,,,,,,,0,,,59,0
166920,note_on,0,0,3,,,,,,,,,2,,,48,36
167040,note_on,0,0,1,,,,,,,,,0,,,62,49
167040,note_on,0,0,3,,,,,,,,,2,,,50,36
167040,note_on,120,0,3,,,,,,,,,2,,,48,0
167040,note_on,120,0,1,,,,,,,,,0,,,60,0
167130,note_on,90,0,3,,,,,,,,,2,,,48,36
167130,note_on,90,0,1,,,,,,,,,0,,,60,49
167145,note_on,15,0,3,,,,,,,,,2,,,48,0
167145,note_on,0,0,3,,,,,,,,,2,,,50,36
167145,note_on,15,0,1,,,,,,,,,0,,,60,0
167145,note_on,0,0,1,,,,,,,,,0,,,62,49
167160,note_on,15,0,1,,,,,,,,,0,,,62,0
167160,note_on,0,0,3,,,,,,,,,2,,,48,36
167160,note_on,0,0,3,,,,,,,,,2,,,50,0
167160,note_on,15,0,3,,,,,,,,,2,,,50,0
167160,note_on,0,0,1,,,,,,,,,0,,,62,0
167160,note_on,0,0,1,,,,,,,,,0,,,60,49
167280,note_on,0,0,3,,,,,,,,,2,,,47,36
167280,note_on,120,0,1,,,,,,,,,0,,,60,0
167280,note_on,0,0,1,,,,,,,,,0,,,59,49
167280,note_on,120,0,3,,,,,,,,,2,,,48,0
167400,note_on,120,0,1,,,,,,,,,0,,,59,0
167400,note_on,0,0,1,,,,,,,,,0,,,60,49
167400,note_on,120,0,3,,,,,,,,,2,,,47,0
167400,note_on,0,0,3,,,,,,,,,2,,,48,36
167520,note_on,120,0,1,,,,,,,,,0,,,60,0
167520,note_on,0,0,1,,,,,,,,,0,,,62,49
167520,note_on,0,0,3,,,,,,,,,2,,,50,36
167520,note_on,120,0,3,,,,,,,,,2,,,48,0
167610,note_on,90,0,1,,,,,,,,,0,,,60,49
167610,note_on,90,0,3,,,,,,,,,2,,,48,36
167625,note_on,15,0,1,,,,,,,,,0,,,60,0
167625,note_on,0,0,1,,,,,,,,,0,,,62,49
167625,note_on,0,0,3,,,,,,,,,2,,,50,36
167625,note_on,15,0,3,,,,,,,,,2,,,48,0
167640,note_on,15,0,3,,,,,,,,,2,,,50,0
167640,note_on,0,0,1,,,,,,,,,0,,,60,75
167640,note_on,0,0,1,,,,,,,,,0,,,62,0
167640,note_on,15,0,1,,,,,,,,,0,,,62,0
167640,note_on,0,0,3,,,,,,,,,2,,,50,0
167640,note_on,0,0,3,,,,,,,,,2,,,48,62
167760,note_on,120,0,3,,,,,,,,,2,,,48,0
167760,note_on,0,0,3,,,,,,,,,2,,,47,62
167760,note_on,0,0,1,,,,,,,,,0,,,59,75
167760,note_on,120,0,1,,,,,,,,,0,,,60,0
167820,note_on,60,0,3,,,,,,,,,2,,,47,0
167820,note_on,0,0,3,,,,,,,,,2,,,48,62
167820,note_on,0,0,1,,,,,,,,,0,,,60,75
167820,note_on,60,0,1,,,,,,,,,0,,,59,0
167880,note_on,60,0,1,,,,,,,,,0,,,60,0
167880,note_on,0,0,1,,,,,,,,,0,,,62,75
167880,note_on,0,0,3,,,,,,,,,2,,,50,62
167880,note_on,60,0,3,,,,,,,,,2,,,48,0
168000,note_on,120,0,1,,,,,,,,,0,,,62,0
168000,note_on,0,0,1,,,,,,,,,0,,,64,75
168000,note_on,0,0,3,,,,,,,,,2,,,52,62
168000,note_on,120,0,3,,,,,,,,,2,,,50,0
168090,note_on,90,0,1,,,,,,,,,0,,,62,75
168090,note_on,90,0,3,,,,,,,,,2,,,50,62
168105,note_on,0,0,3,,,,,,,,,2,,,52,62
168105,note_on,15,0,3,,,,,,,,,2,,,50,0
168105,note_on,0,0,1,,,,,,,,,0,,,64,75
168105,note_on,15,0,1,,,,,,,,,0,,,62,0
168120,note_on,0,0,1,,,,,,,,,0,,,64,0
168120,note_on,15,0,1,,,,,,,,,0,,,64,0
168120,note_on,0,0,3,,,,,,,,,2,,,50,62
168120,note_on,0,0,3,,,,,,,,,2,,,52,0
168120,note_on,15,0,3,,,,,,,,,2,,,52,0
168120,note_on,0,0,1,,,,,,,,,0,,,62,75
168240,note_on,120,0,1,,,,,,,,,0,,,62,0
168240,note_on,0,0,1,,,,,,,,,0,,,60,75
168240,note_on,120,0,3,,,,,,,,,2,,,50,0
168240,note_on,0,0,3,,,,,,,,,2,,,48,62
168300,note_on,60,0,3,,,,,,,,,2,,,48,0
168300,note_on,0,0,3,,,,,,,,,2,,,50,62
168300,note_on,0,0,1,,,,,,,,,0,,,62,75
168300,note_on,60,0,1,,,,,,,,,0,,,60,0
168360,note_on,0,0,3,,,,,,,,,2,,,52,62
168360,note_on,60,0,3,,,,,,,,,2,,,50,0
168360,note_on,60,0,1,,,,,,,,,0,,,62,0
168360,note_on,0,0,1,,,,,,,,,0,,,64,75
168480,note_on,120,0,1,,,,,,,,,0,,,64,0
168480,note_on,120,0,3,,,,,,,,,2,,,52,0
168480,note_on,0,0,3,,,,,,,,,2,,,53,62
168480,note_on,0,0,1,,,,,,,,,0,,,65,75
168600,note_on,0,0,3,,,,,,,,,2,,,43,75
168600,note_on,120,0,1,,,,,,,,,0,,,65,0
168600,control_change,0,0,1,,,,,,,,,0,64,127,,
168600,note_on,0,0,1,,,,,,,,,0,,,67,88
168600,note_on,120,0,3,,,,,,,,,2,,,53,0
168600,control_change,0,0,3,,,,,,,,,2,64,127,,
168600,note_on,0,0,3,,,,,,,,,2,,,55,75
168720,note_on,0,0,3,,,,,,,,,2,,,41,75
168720,note_on,0,0,3,,,,,,,,,2,,,43,0
168720,note_on,120,0,1,,,,,,,,,0,,,67,0
168720,note_on,0,0,1,,,,,,,,,0,,,65,88
168720,note_on,0,0,3,,,,,,,,,2,,,53,75
168720,note_on,120,0,3,,,,,,,,,2,,,55,0
168840,note_on,0,0,3,,,,,,,,,2,,,41,0
168840,note_on,0,0,1,,,,,,,,,0,,,64,88
168840,note_on,120,0,1,,,,,,,,,0,,,65,0
168840,note_on,120,0,3,,,,,,,,,2,,,53,0
168840,note_on,0,0,3,,,,,,,,,2,,,40,75
168840,note_on,0,0,3,,,,,,,,,2,,,52,75
168960,note_on,120,0,3,,,,,,,,,2,,,52,0
168960,note_on,120,0,1,,,,,,,,,0,,,64,0
168960,note_on,0,0,3,,,,,,,,,2,,,40,0
168960,note_on,0,0,3,,,,,,,,,2,,,38,75
168960,note_on,0,0,1,,,,,,,,,0,,,62,88
168960,note_on,0,0,1,,,,,,,,,0,,,50,88
169080,note_on,0,0,3,,,,,,,,,2,,,48,75
169080,note_on,120,0,1,,,,,,,,,0,,,62,0
169080,note_on,0,0,1,,,,,,,,,0,,,50,0
169080,note_on,0,0,1,,,,,,,,,0,,,60,88
169080,note_on,120,0,3,,,,,,,,,2,,,38,0
169080,note_on,0,0,3,,,,,,,,,2,,,36,75
169200,note_on,120,0,1,,,,,,,,,0,,,60,0
169200,control_change,0,0,1,,,,,,,,,0,64,0,,
169200,note_on,0,0,1,,,,,,,,,0,,,58,88
169200,control_change,0,0,3,,,,,,,,,2,64,0,,
169200,note_on,0,0,3,,,,,,,,,2,,,36,0
169200,note_on,0,0,3,,,,,,,,,2,,,46,75
169200,note_on,120,0,3,,,,,,,,,2,,,48,0
169200,note_on,0,0,3,,,,,,,,,2,,,34,75
169212,note_on,12,0,1,,,,,,,,,0,,,58,0
169212,note_on,0,0,3,,,,,,,,,2,,,34,0
169212,note_on,12,0,3,,,,,,,,,2,,,46,0
169320,note_on,108,0,1,,,,,,,,,0,,,57,88
169320,note_on,108,0,3,,,,,,,,,2,,,33,75
169320,note_on,0,0,3,,,,,,,,,2,,,45,75
169332,note_on,12,0,1,,,,,,,,,0,,,57,0
169332,note_on,0,0,3,,,,,,,,,2,,,33,0
169332,note_on,12,0,3,,,,,,,,,2,,,45,0
169440,note_on,0,0,3,,,,,,,,,2,,,43,75
169440,note_on,108,0,3,,,,,,,,,2,,,31,75
169440,note_on,108,0,1,,,,,,,,,0,,,55,88
169452,note_on,12,0,1,,,,,,,,,0,,,55,0
169452,note_on,12,0,3,,,,,,,,,2,,,43,0
169452,note_on,0,0,3,,,,,,,,,2,,,31,0
169560,note_on,0,0,3,,,,,,,,,2,,,41,88
169560,note_on,0,0,3,,,,,,,,,2,,,29,88
169560,control_change,108,0,3,,,,,,,,,2,64,127,,
169560,note_on,0,0,1,,,,,,,,,0,,,65,101
169560,note_on,0,0,1,,,,,,,,,0,,,60,101
169560,note_on,108,0,1,,,,,,,,,0,,,57,101
169560,note_on,0,0,1,,,,,,,,,0,,,69,101
169620,note_on,0,0,3,,,,,,,,,2,,,29,0
169620,note_on,60,0,3,,,,,,,,,2,,,41,0
169620,note_on,0,0,3,,,,,,,,,2,,,36,88
169680,note_on,60,0,3,,,,,,,,,2,,,36,0
169680,note_on,0,0,3,,,,,,,,,2,,,36,88
169686,note_on,6,0,3,,,,,,,,,2,,,36,0
169740,note_on,54,0,3,,,,,,,,,2,,,36,88
169746,note_on,6,0,3,,,,,,,,,2,,,36,0
169800,control_change,54,0,3,,,,,,,,,2,64,0,,
169800,note_on,0,0,3,,,,,,,,,2,,,36,88
169812,note_on,12,0,3,,,,,,,,,2,,,36,0
169920,note_on,0,0,1,,,,,,,,,0,,,60,101
169920,note_on,0,0,1,,,,,,,,,0,,,65,0
169920,note_on,0,0,1,,,,,,,,,0,,,60,0
169920,note_on,0,0,1,,,,,,,,,0,,,57,0
169920,note_on,360,0,1,,,,,,,,,0,,,69,0
169920,note_on,0,0,1,,,,,,,,,0,,,67,101
169920,note_on,0,0,1,,,,,,,,,0,,,64,101
169920,note_on,108,0,3,,,,,,,,,2,,,36,88
169932,note_on,12,0,3,,,,,,,,,2,,,36,0
170040,note_on,0,0,1,,,,,,,,,0,,,60,0
170040,note_on,108,0,3,,,,,,,,,2,,,29,88
170040,note_on,0,0,3,,,,,,,,,2,,,41,88
170040,note_on,0,0,1,,,,,,,,,0,,,69,101
170040,note_on,0,0,1,,,,,,,,,0,,,65,101
170040,note_on,0,0,1,,,,,,,,,0,,,60,101
170040,note_on,0,0,1,,,,,,,,,0,,,64,0
170040,note_on,120,0,1,,,,,,,,,0,,,67,0
170100,note_on,60,0,3,,,,,,,,,2,,,41,0
170100,note_on,0,0,3,,,,,,,,,2,,,29,0
170100,note_on,0,0,3,,,,,,,,,2,,,36,88
170160,note_on,0,0,1,,,,,,,,,0,,,65,0
170160,note_on,120,0,1,,,,,,,,,0,,,69,0
170160,note_on,0,0,1,,,,,,,,,0,,,64,101
170160,note_on,0,0,1,,,,,,,,,0,,,60,0
170160,note_on,0,0,3,,,,,,,,,2,,,36,88
170160,note_on,60,0,3,,,,,,,,,2,,,36,0
170160,note_on,0,0,1,,,,,,,,,0,,,67,101
170160,note_on,0,0,1,,,,,,,,,0,,,60,101
170166,note_on,6,0,3,,,,,,,,,2,,,36,0
170220,note_on,54,0,3,,,,,,,,,2,,,36,88
170226,note_on,6,0,3,,,,,,,,,2,,,36,0
170280,note_on,0,0,1,,,,,,,,,0,,,60,101
170280,note_on,0,0,1,,,,,,,,,0,,,60,0
170280,note_on,0,0,1,,,,,,,,,0,,,65,101
170280,note_on,0,0,1,,,,,,,,,0,,,64,0
170280,note_on,54,0,3,,,,,,,,,2,,,36,88
170280,note_on,0,0,1,,,,,,,,,0,,,69,101
170280,note_on,120,0,1,,,,,,,,,0,,,67,0
170292,note_on,12,0,3,,,,,,,,,2,,,36,0
170400,note_on,0,0,1,,,,,,,,,0,,,60,0
170400,note_on,0,0,1,,,,,,,,,0,,,65,0
170400,note_on,108,0,3,,,,,,,,,2,,,36,88
170400,note_on,0,0,1,,,,,,,,,0,,,60,101
170400,note_on,0,0,1,,,,,,,,,0,,,64,101
170400,note_on,0,0,1,,,,,,,,,0,,,67,101
170400,note_on,0,0,1,,,,,,,,,0,,,70,101
170400,note_on,0,0,1,,,,,,,,,0,,,72,101
170400,note_on,120,0,1,,,,,,,,,0,,,69,0
170412,note_on,12,0,3,,,,,,,,,2,,,36,0
170520,note_on,0,0,1,,,,,,,,,0,,,60,0
170520,note_on,0,0,3,,,,,,,,,2,,,29,88
170520,note_on,0,0,3,,,,,,,,,2,,,41,88
170520,note_on,0,0,1,,,,,,,,,0,,,67,0
170520,note_on,120,0,1,,,,,,,,,0,,,72,0
170520,note_on,0,0,1,,,,,,,,,0,,,65,101
170520,control_change,108,0,3,,,,,,,,,2,64,127,,
170520,note_on,0,0,1,,,,,,,,,0,,,60,101
170520,note_on,0,0,1,,,,,,,,,0,,,70,0
170520,note_on,0,0,1,,,,,,,,,0,,,64,0
170520,note_on,0,0,1,,,,,,,,,0,,,69,101
170580,note_on,0,0,3,,,,,,,,,2,,,36,88
170580,note_on,0,0,3,,,,,,,,,2,,,29,0
170580,note_on,60,0,3,,,,,,,,,2,,,41,0
170640,note_on,0,0,3,,,,,,,,,2,,,36,88
170640,note_on,60,0,3,,,,,,,,,2,,,36,0
170646,note_on,6,0,3,,,,,,,,,2,,,36,0
170700,note_on,54,0,3,,,,,,,,,2,,,36,88
170706,note_on,6,0,3,,,,,,,,,2,,,36,0
170760,note_on,54,0,3,,,,,,,,,2,,,36,88
170772,note_on,12,0,3,,,,,,,,,2,,,36,0
170880,control_change,108,0,3,,,,,,,,,2,64,0,,
170880,note_on,0,0,3,,,,,,,,,2,,,36,88
170880,note_on,0,0,1,,,,,,,,,0,,,67,101
170880,note_on,0,0,1,,,,,,,,,0,,,64,101
170880,note_on,0,0,1,,,,,,,,,0,,,60,101
170880,note_on,0,0,1,,,,,,,,,0,,,60,0
170880,note_on,0,0,1,,,,,,,,,0,,,65,0
170880,note_on,360,0,1,,,,,,,,,0,,,69,0
170892,note_on,12,0,3,,,,,,,,,2,,,36,0
171000,note_on,0,0,1,,,,,,,,,0,,,64,0
171000,note_on,120,0,1,,,,,,,,,0,,,67,0
171000,note_on,0,0,1,,,,,,,,,0,,,65,101
171000,note_on,0,0,1,,,,,,,,,0,,,69,101
171000,note_on,0,0,1,,,,,,,,,0,,,60,0
171000,note_on,108,0,3,,,,,,,,,2,,,29,88
171000,note_on,0,0,3,,,,,,,,,2,,,41,88
171000,note_on,0,0,1,,,,,,,,,0,,,60,101
171060,note_on,60,0,3,,,,,,,,,2,,,41,0
171060,note_on,0,0,3,,,,,,,,,2,,,29,0
171060,note_on,0,0,3,,,,,,,,,2,,,36,88
171120,note_on,120,0,1,,,,,,,,,0,,,69,0
171120,note_on,60,0,3,,,,,,,,,2,,,36,0
171120,note_on,0,0,3,,,,,,,,,2,,,36,88
171120,note_on,0,0,1,,,,,,,,,0,,,64,101
171120,note_on,0,0,1,,,,,,,,,0,,,60,0
171120,note_on,0,0,1,,,,,,,,,0,,,65,0
171120,note_on,0,0,1,,,,,,,,,0,,,67,101
171120,note_on,0,0,1,,,,,,,,,0,,,60,101
171126,note_on,6,0,3,,,,,,,,,2,,,36,0
171180,note_on,54,0,3,,,,,,,,,2,,,36,88
171186,note_on,6,0,3,,,,,,,,,2,,,36,0
171240,note_on,54,0,3,,,,,,,,,2,,,36,88
171240,note_on,120,0,1,,,,,,,,,0,,,67,0
171240,note_on,0,0,1,,,,,,,,,0,,,64,0
171240,note_on,0,0,1,,,,,,,,,0,,,60,0
171240,note_on,0,0,1,,,,,,,,,0,,,60,101
171240,note_on,0,0,1,,,,,,,,,0,,,65,101
171240,note_on,0,0,1,,,,,,,,,0,,,69,101
171252,note_on,12,0,3,,,,,,,,,2,,,36,0
171360,note_on,108,0,3,,,,,,,,,2,,,36,88
171360,note_on,120,0,1,,,,,,,,,0,,,69,0
171360,note_on,0,0,1,,,,,,,,,0,,,65,0
171360,note_on,0,0,1,,,,,,,,,0,,,60,0
171360,note_on,0,0,1,,,,,,,,,0,,,60,101
171360,note_on,0,0,1,,,,,,,,,0,,,64,101
171360,note_on,0,0,1,,,,,,,,,0,,,67,101
171360,note_on,0,0,1,,,,,,,,,0,,,70,101
171360,note_on,0,0,1,,,,,,,,,0,,,72,101
171372,note_on,12,0,3,,,,,,,,,2,,,36,0
171480,note_on,0,0,1,,,,,,,,,0,,,69,101
171480,note_on,0,0,3,,,,,,,,,2,,,29,88
171480,note_on,0,0,3,,,,,,,,,2,,,41,88
171480,note_on,120,0,1,,,,,,,,,0,,,72,0
171480,note_on,0,0,1,,,,,,,,,0,,,67,0
171480,note_on,0,0,1,,,,,,,,,0,,,60,0
171480,note_on,0,0,1,,,,,,,,,0,,,64,0
171480,note_on,0,0,1,,,,,,,,,0,,,70,0
171480,note_on,0,0,1,,,,,,,,,0,,,60,101
171480,note_on,0,0,1,,,,,,,,,0,,,65,101
171480,control_change,108,0,3,,,,,,,,,2,64,127,,
171540,note_on,0,0,3,,,,,,,,,2,,,36,88
171540,note_on,60,0,3,,,,,,,,,2,,,41,0
171540,note_on,0,0,3,,,,,,,,,2,,,29,0
171600,note_on,60,0,3,,,,,,,,,2,,,36,0
171600,note_on,0,0,3,,,,,,,,,2,,,36,88
171606,note_on,6,0,3,,,,,,,,,2,,,36,0
171660,note_on,54,0,3,,,,,,,,,2,,,36,88
171666,note_on,6,0,3,,,,,,,,,2,,,36,0
171720,note_on,54,0,3,,,,,,,,,2,,,36,88
171732,note_on,12,0,3,,,,,,,,,2,,,36,0
171840,control_change,108,0,3,,,,,,,,,2,64,0,,
171840,note_on,0,0,1,,,,,,,,,0,,,65,0
171840,note_on,0,0,1,,,,,,,,,0,,,60,0
171840,note_on,0,0,1,,,,,,,,,0,,,60,101
171840,note_on,0,0,1,,,,,,,,,0,,,69,101
171840,note_on,0,0,3,,,,,,,,,2,,,36,88
171840,note_on,360,0,1,,,,,,,,,0,,,69,0
171840,note_on,0,0,1,,,,,,,,,0,,,65,101
171852,note_on,12,0,3,,,,,,,,,2,,,36,0
171960,note_on,0,0,3,,,,,,,,,2,,,29,88
171960,control_change,108,0,3,,,,,,,,,2,64,127,,
171960,note_on,0,0,1,,,,,,,,,0,,,72,101
171960,note_on,0,0,1,,,,,,,,,0,,,69,101
171960,note_on,0,0,3,,,,,,,,,2,,,41,88
171960,note_on,0,0,1,,,,,,,,,0,,,63,101
171960,note_on,0,0,1,,,,,,,,,0,,,60,101
171960,note_on,0,0,1,,,,,,,,,0,,,60,0
171960,note_on,0,0,1,,,,,,,,,0,,,65,0
171960,note_on,120,0,1,,,,,,,,,0,,,69,0
172020,note_on,60,0,3,,,,,,,,,2,,,41,0
172020,note_on,0,0,3,,,,,,,,,2,,,36,88
172020,note_on,0,0,3,,,,,,,,,2,,,29,0
172080,note_on,0,0,3,,,,,,,,,2,,,36,88
172080,note_on,60,0,3,,,,,,,,,2,,,36,0
172086,note_on,6,0,3,,,,,,,,,2,,,36,0
172140,note_on,54,0,3,,,,,,,,,2,,,36,88
172146,note_on,6,0,3,,,,,,,,,2,,,36,0
172200,note_on,54,0,3,,,,,,,,,2,,,36,88
172212,note_on,12,0,3,,,,,,,,,2,,,36,0
172320,note_on,360,0,1,,,,,,,,,0,,,72,0
172320,note_on,0,0,1,,,,,,,,,0,,,69,101
172320,note_on,0,0,1,,,,,,,,,0,,,69,0
172320,note_on,0,0,1,,,,,,,,,0,,,60,101
172320,note_on,0,0,1,,,,,,,,,0,,,63,101
172320,note_on,0,0,1,,,,,,,,,0,,,72,101
172320,note_on,0,0,3,,,,,,,,,2,,,36,88
172320,control_change,108,0,3,,,,,,,,,2,64,0,,
172320,note_on,0,0,1,,,,,,,,,0,,,60,0
172320,note_on,0,0,1,,,,,,,,,0,,,63,0
172332,note_on,12,0,3,,,,,,,,,2,,,36,0
172440,control_change,108,0,3,,,,,,,,,2,64,127,,
172440,note_on,0,0,3,,,,,,,,,2,,,29,88
172440,note_on,0,0,1,,,,,,,,,0,,,75,101
172440,note_on,0,0,1,,,,,,,,,0,,,60,0
172440,note_on,0,0,1,,,,,,,,,0,,,72,101
172440,note_on,0,0,1,,,,,,,,,0,,,69,101
172440,note_on,0,0,1,,,,,,,,,0,,,63,101
172440,note_on,0,0,1,,,,,,,,,0,,,69,0
172440,note_on,0,0,1,,,,,,,,,0,,,63,0
172440,note_on,120,0,1,,,,,,,,,0,,,72,0
172500,note_on,0,0,3,,,,,,,,,2,,,41,88
172500,note_on,60,0,3,,,,,,,,,2,,,29,0
172560,note_on,0,0,3,,,,,,,,,2,,,41,88
172560,note_on,60,0,3,,,,,,,,,2,,,41,0
172566,note_on,6,0,3,,,,,,,,,2,,,41,0
172620,note_on,54,0,3,,,,,,,,,2,,,41,88
172626,note_on,6,0,3,,,,,,,,,2,,,41,0
172680,control_change,54,0,3,,,,,,,,,2,64,0,,
172680,note_on,0,0,3,,,,,,,,,2,,,41,88
172800,note_on,360,0,1,,,,,,,,,0,,,75,0
172800,note_on,0,0,1,,,,,,,,,0,,,63,0
172800,note_on,0,0,1,,,,,,,,,0,,,69,0
172800,note_on,0,0,1,,,,,,,,,0,,,72,0
172800,note_on,120,0,3,,,,,,,,,2,,,41,0
173280,note_on,480,0,1,,,,,,,,,0,,,72,49
173370,note_on,90,0,1,,,,,,,,,0,,,71,49
173385,note_on,0,0,1,,,,,,,,,0,,,72,49
173385,note_on,15,0,1,,,,,,,,,0,,,71,0
173400,note_on,0,0,1,,,,,,,,,0,,,71,49
173400,note_on,15,0,1,,,,,,,,,0,,,72,0
173400,note_on,0,0,1,,,,,,,,,0,,,72,0
173520,note_on,120,0,1,,,,,,,,,0,,,71,0
173520,note_on,0,0,1,,,,,,,,,0,,,69,49
173640,note_on,120,0,1,,,,,,,,,0,,,69,0
173640,note_on,0,0,1,,,,,,,,,0,,,75,49
173760,note_on,960,0,3,,,,,,,,,2,,,48,36
173820,note_on,0,0,1,,,,,,,,,0,,,72,49
173820,note_on,180,0,1,,,,,,,,,0,,,75,0
173850,note_on,30,0,1,,,,,,,,,0,,,72,0
173850,note_on,90,0,3,,,,,,,,,2,,,47,36
173850,note_on,0,0,1,,,,,,,,,0,,,69,49
173865,note_on,0,0,3,,,,,,,,,2,,,48,36
173865,note_on,15,0,3,,,,,,,,,2,,,47,0
173880,note_on,0,0,1,,,,,,,,,0,,,60,49
173880,note_on,0,0,3,,,,,,,,,2,,,48,0
173880,note_on,15,0,3,,,,,,,,,2,,,48,0
173880,note_on,0,0,1,,,,,,,,,0,,,57,49
173880,note_on,30,0,1,,,,,,,,,0,,,69,0
173880,note_on,0,0,1,,,,,,,,,0,,,64,49
173880,note_on,0,0,3,,,,,,,,,2,,,47,36
174000,note_on,120,0,3,,,,,,,,,2,,,47,0
174000,note_on,0,0,3,,,,,,,,,2,,,45,36
174120,note_on,120,0,3,,,,,,,,,2,,,45,0
174120,control_change,0,0,3,,,,,,,,,2,64,127,,
174120,note_on,0,0,3,,,,,,,,,2,,,52,62
174300,note_on,180,0,3,,,,,,,,,2,,,52,0
174300,note_on,0,0,3,,,,,,,,,2,,,48,36
174330,note_on,30,0,3,,,,,,,,,2,,,48,0
174330,control_change,0,0,3,,,,,,,,,2,64,0,,
174330,note_on,0,0,3,,,,,,,,,2,,,45,36
174360,note_on,0,0,1,,,,,,,,,0,,,57,49
174360,note_on,0,0,1,,,,,,,,,0,,,57,0
174360,note_on,0,0,1,,,,,,,,,0,,,60,0
174360,note_on,480,0,1,,,,,,,,,0,,,64,0
174360,note_on,0,0,1,,,,,,,,,0,,,64,49
174360,note_on,30,0,3,,,,,,,,,2,,,45,0
174360,note_on,0,0,3,,,,,,,,,2,,,40,36
174360,note_on,0,0,1,,,,,,,,,0,,,59,49
174600,note_on,0,0,3,,,,,,,,,2,,,40,36
174600,note_on,240,0,3,,,,,,,,,2,,,40,0
174600,note_on,0,0,1,,,,,,,,,0,,,59,0
174600,note_on,0,0,1,,,,,,,,,0,,,57,0
174600,note_on,240,0,1,,,,,,,,,0,,,64,0
174600,note_on,0,0,1,,,,,,,,,0,,,56,49
174600,note_on,0,0,1,,,,,,,,,0,,,59,49
174600,note_on,0,0,1,,,,,,,,,0,,,64,49
174840,note_on,0,0,1,,,,,,,,,0,,,59,0
174840,note_on,240,0,3,,,,,,,,,2,,,40,0
174840,note_on,240,0,1,,,,,,,,,0,,,64,0
174840,note_on,0,0,1,,,,,,,,,0,,,56,0
175200,note_on,360,0,1,,,,,,,,,0,,,60,49
175200,note_on,360,0,3,,,,,,,,,2,,,48,36
175290,note_on,90,0,1,,,,,,,,,0,,,59,49
175290,note_on,90,0,3,,,,,,,,,2,,,47,36
175305,note_on,15,0,1,,,,,,,,,0,,,59,0
175305,note_on,0,0,3,,,,,,,,,2,,,48,36
175305,note_on,15,0,3,,,,,,,,,2,,,47,0
175305,note_on,0,0,1,,,,,,,,,0,,,60,49
175320,note_on,15,0,3,,,,,,,,,2,,,48,0
175320,note_on,0,0,3,,,,,,,,,2,,,47,36
175320,note_on,0,0,3,,,,,,,,,2,,,48,0
175320,note_on,15,0,1,,,,,,,,,0,,,60,0
175320,note_on,0,0,1,,,,,,,,,0,,,60,0
175320,note_on,0,0,1,,,,,,,,,0,,,59,49
175440,note_on,120,0,3,,,,,,,,,2,,,47,0
175440,note_on,120,0,1,,,,,,,,,0,,,59,0
175440,note_on,0,0,3,,,,,,,,,2,,,45,36
175440,note_on,0,0,1,,,,,,,,,0,,,57,49
175560,note_on,0,0,3,,,,,,,,,2,,,47,36
175560,note_on,120,0,3,,,,,,,,,2,,,45,0
175560,note_on,120,0,1,,,,,,,,,0,,,57,0
175560,note_on,0,0,1,,,,,,,,,0,,,59,49
175680,note_on,0,0,1,,,,,,,,,0,,,60,49
175680,note_on,120,0,3,,,,,,,,,2,,,47,0
175680,note_on,0,0,3,,,,,,,,,2,,,48,36
175680,note_on,120,0,1,,,,,,,,,0,,,59,0
175770,note_on,90,0,1,,,,,,,,,0,,,59,49
175770,note_on,90,0,3,,,,,,,,,2,,,47,36
175785,note_on,15,0,1,,,,,,,,,0,,,59,0
175785,note_on,0,0,3,,,,,,,,,2,,,48,36
175785,note_on,0,0,1,,,,,,,,,0,,,60,49
175785,note_on,15,0,3,,,,,,,,,2,,,47,0
175800,note_on,15,0,3,,,,,,,,,2,,,48,0
175800,note_on,0,0,3,,,,,,,,,2,,,48,0
175800,note_on,0,0,3,,,,,,,,,2,,,47,36
175800,note_on,15,0,1,,,,,,,,,0,,,60,0
175800,note_on,0,0,1,,,,,,,,,0,,,60,0
175800,note_on,0,0,1,,,,,,,,,0,,,59,49
175920,note_on,0,0,3,,,,,,,,,2,,,45,36
175920,note_on,120,0,3,,,,,,,,,2,,,47,0
175920,note_on,0,0,1,,,,,,,,,0,,,57,49
175920,note_on,120,0,1,,,,,,,,,0,,,59,0
175980,note_on,0,0,1,,,,,,,,,0,,,59,49
175980,note_on,0,0,3,,,,,,,,,2,,,47,36
175980,note_on,60,0,3,,,,,,,,,2,,,45,0
175980,note_on,60,0,1,,,,,,,,,0,,,57,0
176040,note_on,60,0,1,,,,,,,,,0,,,59,0
176040,note_on,0,0,1,,,,,,,,,0,,,60,49
176040,note_on,60,0,3,,,,,,,,,2,,,47,0
176040,note_on,0,0,3,,,,,,,,,2,,,48,36
176160,note_on,120,0,3,,,,,,,,,2,,,48,0
176160,note_on,0,0,3,,,,,,,,,2,,,50,36
176160,note_on,120,0,1,,,,,,,,,0,,,60,0
176160,note_on,0,0,1,,,,,,,,,0,,,62,49
176250,note_on,90,0,1,,,,,,,,,0,,,60,49
176250,note_on,90,0,3,,,,,,,,,2,,,48,36
176265,note_on,15,0,3,,,,,,,,,2,,,48,0
176265,note_on,0,0,3,,,,,,,,,2,,,50,36
176265,note_on,15,0,1,,,,,,,,,0,,,60,0
176265,note_on,0,0,1,,,,,,,,,0,,,62,49
176280,note_on,15,0,3,,,,,,,,,2,,,50,0
176280,note_on,0,0,3,,,,,,,,,2,,,50,0
176280,note_on,15,0,1,,,,,,,,,0,,,62,0
176280,note_on,0,0,1,,,,,,,,,0,,,62,0
176280,note_on,0,0,1,,,,,,,,,0,,,60,62
176280,note_on,0,0,3,,,,,,,,,2,,,48,36
176400,note_on,0,0,1,,,,,,,,,0,,,59,62
176400,note_on,120,0,3,,,,,,,,,2,,,48,0
176400,note_on,120,0,1,,,,,,,,,0,,,60,0
176400,note_on,0,0,3,,,,,,,,,2,,,47,36
176520,note_on,120,0,1,,,,,,,,,0,,,59,0
176520,note_on,0,0,3,,,,,,,,,2,,,48,36
176520,note_on,120,0,3,,,,,,,,,2,,,47,0
176520,note_on,0,0,1,,,,,,,,,0,,,60,62
176640,note_on,120,0,3,,,,,,,,,2,,,48,0
176640,note_on,0,0,3,,,,,,,,,2,,,50,36
176640,note_on,120,0,1,,,,,,,,,0,,,60,0
176640,note_on,0,0,1,,,,,,,,,0,,,62,62
176730,note_on,90,0,1,,,,,,,,,0,,,60,62
176730,note_on,90,0,3,,,,,,,,,2,,,48,36
176745,note_on,0,0,3,,,,,,,,,2,,,50,36
176745,note_on,15,0,1,,,,,,,,,0,,,60,0
176745,note_on,0,0,1,,,,,,,,,0,,,62,62
176745,note_on,15,0,3,,,,,,,,,2,,,48,0
176760,note_on,15,0,3,,,,,,,,,2,,,50,0
176760,note_on,0,0,3,,,,,,,,,2,,,50,0
176760,note_on,0,0,1,,,,,,,,,0,,,62,0
176760,note_on,15,0,1,,,,,,,,,0,,,62,0
176760,note_on,0,0,1,,,,,,,,,0,,,60,75
176760,note_on,0,0,3,,,,,,,,,2,,,48,62
176880,note_on,0,0,3,,,,,,,,,2,,,47,62
176880,note_on,120,0,1,,,,,,,,,0,,,60,0
176880,note_on,0,0,1,,,,,,,,,0,,,59,75
176880,note_on,120,0,3,,,,,,,,,2,,,48,0
176940,note_on,60,0,3,,,,,,,,,2,,,47,0
176940,note_on,60,0,1,,,,,,,,,0,,,59,0
176940,note_on,0,0,1,,,,,,,,,0,,,60,75
176940,note_on,0,0,3,,,,,,,,,2,,,48,62
177000,note_on,0,0,3,,,,,,,,,2,,,50,62
177000,note_on,60,0,3,,,,,,,,,2,,,48,0
177000,note_on,60,0,1,,,,,,,,,0,,,60,0
177000,note_on,0,0,1,,,,,,,,,0,,,62,75
177120,note_on,120,0,1,,,,,,,,,0,,,62,0
177120,note_on,120,0,3,,,,,,,,,2,,,50,0
177120,note_on,0,0,3,,,,,,,,,2,,,52,62
177120,note_on,0,0,1,,,,,,,,,0,,,64,75
177210,note_on,90,0,1,,,,,,,,,0,,,62,75
177210,note_on,90,0,3,,,,,,,,,2,,,50,62
177225,note_on,0,0,3,,,,,,,,,2,,,52,62
177225,note_on,0,0,1,,,,,,,,,0,,,64,75
177225,note_on,15,0,1,,,,,,,,,0,,,62,0
177225,note_on,15,0,3,,,,,,,,,2,,,50,0
177240,note_on,0,0,3,,,,,,,,,2,,,50,62
177240,note_on,0,0,3,,,,,,,,,2,,,52,0
177240,note_on,0,0,1,,,,,,,,,0,,,64,0
177240,note_on,0,0,1,,,,,,,,,0,,,62,75
177240,note_on,15,0,1,,,,,,,,,0,,,64,0
177240,note_on,15,0,3,,,,,,,,,2,,,52,0
177360,note_on,120,0,3,,,,,,,,,2,,,50,0
177360,note_on,0,0,3,,,,,,,,,2,,,48,62
177360,note_on,120,0,1,,,,,,,,,0,,,62,0
177360,note_on,0,0,1,,,,,,,,,0,,,60,75
177420,note_on,60,0,1,,,,,,,,,0,,,60,0
177420,note_on,0,0,1,,,,,,,,,0,,,62,75
177420,note_on,60,0,3,,,,,,,,,2,,,48,0
177420,note_on,0,0,3,,,,,,,,,2,,,50,62
177480,note_on,60,0,3,,,,,,,,,2,,,50,0
177480,note_on,0,0,3,,,,,,,,,2,,,52,62
177480,note_on,60,0,1,,,,,,,,,0,,,62,0
177480,note_on,0,0,1,,,,,,,,,0,,,64,75
177600,note_on,0,0,3,,,,,,,,,2,,,53,62
177600,note_on,120,0,1,,,,,,,,,0,,,64,0
177600,note_on,120,0,3,,,,,,,,,2,,,52,0
177600,note_on,0,0,1,,,,,,,,,0,,,65,75
177720,note_on,120,0,1,,,,,,,,,0,,,65,0
177720,control_change,0,0,1,,,,,,,,,0,64,127,,
177720,note_on,0,0,1,,,,,,,,,0,,,67,88
177720,note_on,0,0,3,,,,,,,,,2,,,55,75
177720,note_on,0,0,3,,,,,,,,,2,,,43,75
177720,control_change,0,0,3,,,,,,,,,2,64,127,,
177720,note_on,120,0,3,,,,,,,,,2,,,53,0
177840,note_on,0,0,1,,,,,,,,,0,,,65,88
177840,note_on,0,0,3,,,,,,,,,2,,,53,75
177840,note_on,0,0,3,,,,,,,,,2,,,41,75
177840,note_on,0,0,3,,,,,,,,,2,,,43,0
177840,note_on,120,0,3,,,,,,,,,2,,,55,0
177840,note_on,120,0,1,,,,,,,,,0,,,67,0
177960,note_on,0,0,1,,,,,,,,,0,,,64,88
177960,note_on,120,0,1,,,,,,,,,0,,,65,0
177960,note_on,0,0,3,,,,,,,,,2,,,52,75
177960,note_on,0,0,3,,,,,,,,,2,,,40,75
177960,note_on,120,0,3,,,,,,,,,2,,,53,0
177960,note_on,0,0,3,,,,,,,,,2,,,41,0
178080,note_on,0,0,1,,,,,,,,,0,,,50,88
178080,note_on,120,0,1,,,,,,,,,0,,,64,0
178080,note_on,120,0,3,,,,,,,,,2,,,52,0
178080,note_on,0,0,3,,,,,,,,,2,,,40,0
178080,note_on,0,0,1,,,,,,,,,0,,,62,88
178080,note_on,0,0,3,,,,,,,,,2,,,38,75
178200,note_on,120,0,1,,,,,,,,,0,,,62,0
178200,note_on,0,0,1,,,,,,,,,0,,,50,0
178200,note_on,0,0,1,,,,,,,,,0,,,60,88
178200,note_on,120,0,3,,,,,,,,,2,,,38,0
178200,note_on,0,0,3,,,,,,,,,2,,,48,75
178200,note_on,0,0,3,,,,,,,,,2,,,36,75
178320,note_on,0,0,3,,,,,,,,,2,,,46,75
178320,note_on,120,0,3,,,,,,,,,2,,,48,0
178320,note_on,0,0,3,,,,,,,,,2,,,36,0
178320,control_change,0,0,3,,,,,,,,,2,64,0,,
178320,control_change,0,0,1,,,,,,,,,0,64,0,,
178320,note_on,120,0,1,,,,,,,,,0,,,60,0
178320,note_on,0,0,3,,,,,,,,,2,,,34,75
178320,note_on,0,0,1,,,,,,,,,0,,,58,88
178332,note_on,12,0,1,,,,,,,,,0,,,58,0
178332,note_on,12,0,3,,,,,,,,,2,,,46,0
178332,note_on,0,0,3,,,,,,,,,2,,,34,0
178440,note_on,108,0,1,,,,,,,,,0,,,57,88
178440,note_on,0,0,3,,,,,,,,,2,,,45,75
178440,note_on,108,0,3,,,,,,,,,2,,,33,75
178452,note_on,0,0,3,,,,,,,,,2,,,33,0
178452,note_on,12,0,3,,,,,,,,,2,,,45,0
178452,note_on,12,0,1,,,,,,,,,0,,,57,0
178560,note_on,108,0,1,,,,,,,,,0,,,55,88
178560,note_on,108,0,3,,,,,,,,,2,,,31,75
178560,note_on,0,0,3,,,,,,,,,2,,,43,75
178572,note_on,12,0,1,,,,,,,,,0,,,55,0
178572,note_on,0,0,3,,,,,,,,,2,,,31,0
178572,note_on,12,0,3,,,,,,,,,2,,,43,0
178680,control_change,108,0,3,,,,,,,,,2,64,127,,
178680,note_on,0,0,1,,,,,,,,,0,,,63,88
178680,note_on,0,0,1,,,,,,,,,0,,,69,88
178680,note_on,0,0,3,,,,,,,,,2,,,30,75
178680,note_on,108,0,1,,,,,,,,,0,,,60,88
178740,note_on,0,0,3,,,,,,,,,2,,,42,75
178740,note_on,60,0,3,,,,,,,,,2,,,30,0
178800,note_on,60,0,3,,,,,,,,,2,,,42,0
178800,note_on,0,0,3,,,,,,,,,2,,,42,75
178806,note_on,6,0,3,,,,,,,,,2,,,42,0
178860,note_on,54,0,3,,,,,,,,,2,,,42,75
178866,note_on,6,0,3,,,,,,,,,2,,,42,0
178920,note_on,54,0,3,,,,,,,,,2,,,42,75
178932,note_on,12,0,3,,,,,,,,,2,,,42,0
179040,note_on,0,0,1,,,,,,,,,0,,,70,88
179040,note_on,0,0,1,,,,,,,,,0,,,63,0
179040,note_on,0,0,1,,,,,,,,,0,,,60,0
179040,note_on,0,0,1,,,,,,,,,0,,,61,88
179040,note_on,0,0,1,,,,,,,,,0,,,64,88
179040,note_on,360,0,1,,,,,,,,,0,,,69,0
179040,control_change,108,0,3,,,,,,,,,2,64,0,,
179040,note_on,0,0,3,,,,,,,,,2,,,42,75
179052,note_on,12,0,3,,,,,,,,,2,,,42,0
179160,note_on,0,0,1,,,,,,,,,0,,,61,0
179160,note_on,0,0,1,,,,,,,,,0,,,60,88
179160,note_on,0,0,1,,,,,,,,,0,,,63,88
179160,note_on,0,0,1,,,,,,,,,0,,,69,88
179160,note_on,0,0,1,,,,,,,,,0,,,64,0
179160,note_on,120,0,1,,,,,,,,,0,,,70,0
179160,note_on,0,0,3,,,,,,,,,2,,,30,75
179160,control_change,108,0,3,,,,,,,,,2,64,127,,
179220,note_on,60,0,3,,,,,,,,,2,,,30,0
179220,note_on,0,0,3,,,,,,,,,2,,,42,75
179280,note_on,60,0,3,,,,,,,,,2,,,42,0
179280,note_on,0,0,3,,,,,,,,,2,,,42,75
179286,note_on,6,0,3,,,,,,,,,2,,,42,0
179340,note_on,54,0,3,,,,,,,,,2,,,42,75
179346,note_on,6,0,3,,,,,,,,,2,,,42,0
179400,note_on,54,0,3,,,,,,,,,2,,,42,75
179412,note_on,12,0,3,,,,,,,,,2,,,42,0
179520,control_change,108,0,3,,,,,,,,,2,64,0,,
179520,note_on,0,0,3,,,,,,,,,2,,,42,75
179520,note_on,0,0,1,,,,,,,,,0,,,60,0
179520,note_on,360,0,1,,,,,,,,,0,,,69,0
179520,note_on,0,0,1,,,,,,,,,0,,,63,0
179520,note_on,0,0,1,,,,,,,,,0,,,70,88
179520,note_on,0,0,1,,,,,,,,,0,,,64,88
179520,note_on,0,0,1,,,,,,,,,0,,,61,88
179532,note_on,12,0,3,,,,,,,,,2,,,42,0
179640,note_on,0,0,1,,,,,,,,,0,,,66,88
179640,note_on,0,0,1,,,,,,,,,0,,,61,0
179640,note_on,120,0,1,,,,,,,,,0,,,70,0
179640,note_on,0,0,1,,,,,,,,,0,,,64,0
179640,note_on,0,0,1,,,,,,,,,0,,,62,88
179640,note_on,0,0,1,,,,,,,,,0,,,71,88
179640,note_on,108,0,3,,,,,,,,,2,,,30,75
179700,note_on,0,0,3,,,,,,,,,2,,,42,75
179700,note_on,60,0,3,,,,,,,,,2,,,30,0
179760,note_on,0,0,1,,,,,,,,,0,,,66,0
179760,note_on,120,0,1,,,,,,,,,0,,,71,0
179760,note_on,0,0,1,,,,,,,,,0,,,61,88
179760,note_on,0,0,1,,,,,,,,,0,,,66,88
179760,note_on,0,0,1,,,,,,,,,0,,,70,88
179760,note_on,60,0,3,,,,,,,,,2,,,42,0
179760,note_on,0,0,3,,,,,,,,,2,,,42,75
179760,note_on,0,0,1,,,,,,,,,0,,,62,0
179766,note_on,6,0,3,,,,,,,,,2,,,42,0
179820,note_on,54,0,3,,,,,,,,,2,,,42,75
179826,note_on,6,0,3,,,,,,,,,2,,,42,0
179880,note_on,0,0,1,,,,,,,,,0,,,71,88
179880,note_on,54,0,3,,,,,,,,,2,,,42,75
179880,note_on,0,0,1,,,,,,,,,0,,,62,88
179880,note_on,0,0,1,,,,,,,,,0,,,61,0
179880,note_on,0,0,1,,,,,,,,,0,,,66,0
179880,note_on,120,0,1,,,,,,,,,0,,,70,0
179880,note_on,0,0,1,,,,,,,,,0,,,66,88
179892,note_on,12,0,3,,,,,,,,,2,,,42,0
180000,note_on,0,0,1,,,,,,,,,0,,,66,0
180000,note_on,0,0,1,,,,,,,,,0,,,64,88
180000,note_on,0,0,1,,,,,,,,,0,,,66,88
180000,note_on,0,0,1,,,,,,,,,0,,,73,88
180000,note_on,120,0,1,,,,,,,,,0,,,71,0
180000,note_on,108,0,3,,,,,,,,,2,,,42,75
180000,note_on,0,0,1,,,,,,,,,0,,,62,0
180012,note_on,12,0,3,,,,,,,,,2,,,42,0
180120,note_on,0,0,1,,,,,,,,,0,,,66,0
180120,note_on,0,0,1,,,,,,,,,0,,,64,0
180120,note_on,0,0,1,,,,,,,,,0,,,62,88
180120,note_on,0,0,1,,,,,,,,,0,,,66,88
180120,note_on,120,0,1,,,,,,,,,0,,,73,0
180120,note_on,0,0,1,,,,,,,,,0,,,71,88
180120,note_on,0,0,3,,,,,,,,,2,,,30,75
180120,control_change,108,0,3,,,,,,,,,2,64,127,,
180180,note_on,0,0,3,,,,,,,,,2,,,42,75
180180,note_on,60,0,3,,,,,,,,,2,,,30,0
180240,note_on,0,0,3,,,,,,,,,2,,,42,75
180240,note_on,60,0,3,,,,,,,,,2,,,42,0
180246,note_on,6,0,3,,,,,,,,,2,,,42,0
180300,note_on,54,0,3,,,,,,,,,2,,,42,75
180306,note_on,6,0,3,,,,,,,,,2,,,42,0
180360,note_on,54,0,3,,,,,,,,,2,,,42,75
180372,note_on,12,0,3,,,,,,,,,2,,,42,0
180480,note_on,0,0,1,,,,,,,,,0,,,66,0
180480,note_on,0,0,1,,,,,,,,,0,,,62,0
180480,note_on,0,0,1,,,,,,,,,0,,,64,88
180480,note_on,0,0,1,,,,,,,,,0,,,66,88
180480,note_on,0,0,1,,,,,,,,,0,,,73,88
180480,control_change,108,0,3,,,,,,,,,2,64,0,,
180480,note_on,0,0,3,,,,,,,,,2,,,42,75
180480,note_on,360,0,1,,,,,,,,,0,,,71,0
180492,note_on,12,0,3,,,,,,,,,2,,,42,0
180492,note_on,0,0,1,,,,,,,,,0,,,64,0
180492,note_on,0,0,1,,,,,,,,,0,,,66,0
180492,note_on,12,0,1,,,,,,,,,0,,,73,0
180600,control_change,108,0,3,,,,,,,,,2,64,127,,
180600,note_on,108,0,1,,,,,,,,,0,,,62,88
180600,note_on,0,0,1,,,,,,,,,0,,,66,88
180600,note_on,0,0,1,,,,,,,,,0,,,71,88
180600,note_on,0,0,3,,,,,,,,,2,,,30,75
180660,note_on,60,0,3,,,,,,,,,2,,,30,0
180660,note_on,0,0,3,,,,,,,,,2,,,42,75
180720,note_on,0,0,3,,,,,,,,,2,,,42,75
180720,note_on,60,0,3,,,,,,,,,2,,,42,0
180726,note_on,6,0,3,,,,,,,,,2,,,42,0
180780,note_on,54,0,3,,,,,,,,,2,,,42,75
180786,note_on,6,0,3,,,,,,,,,2,,,42,0
180840,note_on,54,0,3,,,,,,,,,2,,,42,75
180852,note_on,12,0,3,,,,,,,,,2,,,42,0
180960,note_on,0,0,1,,,,,,,,,0,,,73,88
180960,note_on,0,0,1,,,,,,,,,0,,,66,88
180960,note_on,0,0,1,,,,,,,,,0,,,64,88
180960,note_on,0,0,1,,,,,,,,,0,,,62,0
180960,note_on,0,0,1,,,,,,,,,0,,,66,0
180960,note_on,360,0,1,,,,,,,,,0,,,71,0
180960,control_change,108,0,3,,,,,,,,,2,64,0,,
180960,note_on,0,0,3,,,,,,,,,2,,,42,75
180972,note_on,12,0,3,,,,,,,,,2,,,42,0
180972,note_on,0,0,1,,,,,,,,,0,,,64,0
180972,note_on,0,0,1,,,,,,,,,0,,,66,0
180972,note_on,12,0,1,,,,,,,,,0,,,73,0
181080,note_on,108,0,3,,,,,,,,,2,,,30,75
181080,note_on,0,0,1,,,,,,,,,0,,,74,88
181080,note_on,108,0,1,,,,,,,,,0,,,66,88
181140,note_on,60,0,3,,,,,,,,,2,,,30,0
181140,note_on,0,0,3,,,,,,,,,2,,,42,75
181200,note_on,0,0,1,,,,,,,,,0,,,66,0
181200,note_on,0,0,1,,,,,,,,,0,,,64,88
181200,note_on,0,0,1,,,,,,,,,0,,,66,88
181200,note_on,120,0,1,,,,,,,,,0,,,74,0
181200,note_on,0,0,1,,,,,,,,,0,,,73,88
181200,note_on,60,0,3,,,,,,,,,2,,,42,0
181200,note_on,0,0,3,,,,,,,,,2,,,42,75
181206,note_on,6,0,3,,,,,,,,,2,,,42,0
181260,note_on,54,0,3,,,,,,,,,2,,,42,75
181266,note_on,6,0,3,,,,,,,,,2,,,42,0
181320,note_on,0,0,1,,,,,,,,,0,,,66,88
181320,note_on,0,0,1,,,,,,,,,0,,,66,0
181320,note_on,120,0,1,,,,,,,,,0,,,73,0
181320,note_on,0,0,1,,,,,,,,,0,,,74,88
181320,note_on,54,0,3,,,,,,,,,2,,,42,75
181320,note_on,0,0,1,,,,,,,,,0,,,64,0
181332,note_on,12,0,3,,,,,,,,,2,,,42,0
181440,note_on,108,0,3,,,,,,,,,2,,,42,75
181440,note_on,0,0,1,,,,,,,,,0,,,76,88
181440,note_on,0,0,1,,,,,,,,,0,,,67,88
181440,note_on,0,0,1,,,,,,,,,0,,,66,0
181440,note_on,120,0,1,,,,,,,,,0,,,74,0
181452,note_on,12,0,3,,,,,,,,,2,,,42,0
181560,note_on,120,0,1,,,,,,,,,0,,,76,0
181560,note_on,0,0,3,,,,,,,,,2,,,30,75
181560,note_on,0,0,1,,,,,,,,,0,,,67,0
181560,note_on,0,0,1,,,,,,,,,0,,,74,88
181560,note_on,0,0,1,,,,,,,,,0,,,66,88
181560,control_change,108,0,3,,,,,,,,,2,64,127,,
181620,note_on,60,0,3,,,,,,,,,2,,,30,0
181620,note_on,0,0,3,,,,,,,,,2,,,42,75
181680,note_on,60,0,3,,,,,,,,,2,,,42,0
181680,note_on,0,0,3,,,,,,,,,2,,,42,75
181686,note_on,6,0,3,,,,,,,,,2,,,42,0
181740,note_on,54,0,3,,,,,,,,,2,,,42,75
181746,note_on,6,0,3,,,,,,,,,2,,,42,0
181800,note_on,54,0,3,,,,,,,,,2,,,42,75
181812,note_on,12,0,3,,,,,,,,,2,,,42,0
181920,note_on,0,0,1,,,,,,,,,0,,,66,88
181920,control_change,108,0,3,,,,,,,,,2,64,0,,
181920,note_on,0,0,3,,,,,,,,,2,,,42,75
181920,note_on,0,0,1,,,,,,,,,0,,,74,88
181920,note_on,0,0,1,,,,,,,,,0,,,71,88
181920,note_on,360,0,1,,,,,,,,,0,,,74,0
181920,note_on,0,0,1,,,,,,,,,0,,,66,0
181932,note_on,12,0,1,,,,,,,,,0,,,74,0
181932,note_on,0,0,1,,,,,,,,,0,,,66,0
181932,note_on,0,0,1,,,,,,,,,0,,,71,0
181932,note_on,12,0,3,,,,,,,,,2,,,42,0
182040,note_on,108,0,1,,,,,,,,,0,,,70,88
182040,note_on,0,0,1,,,,,,,,,0,,,73,88
182040,note_on,0,0,1,,,,,,,,,0,,,76,88
182040,control_change,108,0,3,,,,,,,,,2,64,127,,
182040,note_on,0,0,3,,,,,,,,,2,,,30,75
182100,note_on,60,0,3,,,,,,,,,2,,,30,0
182100,note_on,0,0,3,,,,,,,,,2,,,42,75
182160,note_on,0,0,3,,,,,,,,,2,,,42,75
182160,note_on,60,0,3,,,,,,,,,2,,,42,0
182166,note_on,6,0,3,,,,,,,,,2,,,42,0
182220,note_on,54,0,3,,,,,,,,,2,,,42,75
182226,note_on,6,0,3,,,,,,,,,2,,,42,0
182280,control_change,54,0,3,,,,,,,,,2,64,0,,
182280,note_on,0,0,3,,,,,,,,,2,,,42,75
182292,note_on,12,0,3,,,,,,,,,2,,,42,0
182400,note_on,0,0,1,,,,,,,,,0,,,73,88
182400,note_on,0,0,1,,,,,,,,,0,,,76,88
182400,note_on,0,0,1,,,,,,,,,0,,,70,0
182400,note_on,0,0,1,,,,,,,,,0,,,70,88
182400,note_on,108,0,3,,,,,,,,,2,,,42,75
182400,note_on,0,0,1,,,,,,,,,0,,,73,0
182400,note_on,360,0,1,,,,,,,,,0,,,76,0
182412,note_on,0,0,1,,,,,,,,,0,,,73,0
182412,note_on,12,0,1,,,,,,,,,0,,,76,0
182412,note_on,12,0,3,,,,,,,,,2,,,42,0
182412,note_on,0,0,1,,,,,,,,,0,,,70,0
182520,control_change,108,0,3,,,,,,,,,2,64,127,,
182520,note_on,0,0,1,,,,,,,,,0,,,77,88
182520,note_on,0,0,1,,,,,,,,,0,,,73,88
182520,note_on,108,0,1,,,,,,,,,0,,,70,88
182520,note_on,0,0,3,,,,,,,,,2,,,29,75
182580,note_on,0,0,3,,,,,,,,,2,,,41,75
182580,note_on,60,0,3,,,,,,,,,2,,,29,0
182640,note_on,0,0,3,,,,,,,,,2,,,41,75
182640,note_on,60,0,3,,,,,,,,,2,,,41,0
182646,note_on,6,0,3,,,,,,,,,2,,,41,0
182700,note_on,54,0,3,,,,,,,,,2,,,41,75
182706,note_on,6,0,3,,,,,,,,,2,,,41,0
182760,note_on,0,0,3,,,,,,,,,2,,,41,75
182760,control_change,54,0,3,,,,,,,,,2,64,0,,
182772,note_on,12,0,3,,,,,,,,,2,,,41,0
182880,note_on,0,0,1,,,,,,,,,0,,,70,0
182880,note_on,0,0,1,,,,,,,,,0,,,73,88
182880,note_on,108,0,3,,,,,,,,,2,,,41,75
182880,note_on,360,0,1,,,,,,,,,0,,,77,0
182880,note_on,0,0,1,,,,,,,,,0,,,73,0
182880,note_on,0,0,1,,,,,,,,,0,,,77,88
182880,note_on,0,0,1,,,,,,,,,0,,,70,88
182892,note_on,0,0,1,,,,,,,,,0,,,73,0
182892,note_on,12,0,3,,,,,,,,,2,,,41,0
182892,note_on,0,0,1,,,,,,,,,0,,,70,0
182892,note_on,12,0,1,,,,,,,,,0,,,77,0
183000,note_on,108,0,1,,,,,,,,,0,,,69,88
183000,control_change,108,0,3,,,,,,,,,2,64,127,,
183000,note_on,0,0,1,,,,,,,,,0,,,81,88
183000,note_on,0,0,1,,,,,,,,,0,,,75,88
183000,note_on,0,0,1,,,,,,,,,0,,,72,88
183000,note_on,0,0,3,,,,,,,,,2,,,29,75
183060,note_on,0,0,3,,,,,,,,,2,,,41,75
183060,note_on,60,0,3,,,,,,,,,2,,,29,0
183120,note_on,0,0,3,,,,,,,,,2,,,41,75
183120,note_on,60,0,3,,,,,,,,,2,,,41,0
183126,note_on,6,0,3,,,,,,,,,2,,,41,0
183180,note_on,54,0,3,,,,,,,,,2,,,41,75
183186,note_on,6,0,3,,,,,,,,,2,,,41,0
183240,note_on,54,0,3,,,,,,,,,2,,,41,75
183252,note_on,12,0,3,,,,,,,,,2,,,41,0
183360,note_on,360,0,1,,,,,,,,,0,,,81,0
183360,note_on,0,0,1,,,,,,,,,0,,,81,88
183360,note_on,0,0,1,,,,,,,,,0,,,75,88
183360,note_on,0,0,1,,,,,,,,,0,,,72,88
183360,note_on,0,0,1,,,,,,,,,0,,,69,88
183360,note_on,0,0,1,,,,,,,,,0,,,69,0
183360,control_change,108,0,3,,,,,,,,,2,64,0,,
183360,note_on,0,0,1,,,,,,,,,0,,,75,0
183360,note_on,0,0,1,,,,,,,,,0,,,72,0
183360,note_on,0,0,3,,,,,,,,,2,,,41,75
183372,note_on,12,0,1,,,,,,,,,0,,,81,0
183372,note_on,0,0,1,,,,,,,,,0,,,69,0
183372,note_on,0,0,1,,,,,,,,,0,,,72,0
183372,note_on,0,0,1,,,,,,,,,0,,,75,0
183372,note_on,12,0,3,,,,,,,,,2,,,41,0
183480,control_change,108,0,3,,,,,,,,,2,64,127,,
183480,note_on,0,0,1,,,,,,,,,0,,,76,88
183480,note_on,108,0,1,,,,,,,,,0,,,72,88
183480,note_on,0,0,3,,,,,,,,,2,,,28,75
183480,note_on,0,0,1,,,,,,,,,0,,,84,88
183480,note_on,0,0,1,,,,,,,,,0,,,81,88
183540,note_on,0,0,3,,,,,,,,,2,,,40,75
183540,note_on,60,0,3,,,,,,,,,2,,,28,0
183600,note_on,0,0,3,,,,,,,,,2,,,40,75
183600,note_on,60,0,3,,,,,,,,,2,,,40,0
183606,note_on,6,0,3,,,,,,,,,2,,,40,0
183660,note_on,54,0,3,,,,,,,,,2,,,40,75
183666,note_on,6,0,3,,,,,,,,,2,,,40,0
183720,note_on,54,0,3,,,,,,,,,2,,,40,75
183732,note_on,12,0,3,,,,,,,,,2,,,40,0
183840,note_on,0,0,1,,,,,,,,,0,,,72,88
183840,note_on,0,0,1,,,,,,,,,0,,,72,0
183840,note_on,0,0,1,,,,,,,,,0,,,76,0
183840,note_on,0,0,1,,,,,,,,,0,,,81,0
183840,control_change,108,0,3,,,,,,,,,2,64,0,,
183840,note_on,0,0,1,,,,,,,,,0,,,76,88
183840,note_on,0,0,1,,,,,,,,,0,,,81,88
183840,note_on,0,0,1,,,,,,,,,0,,,84,88
183840,note_on,0,0,3,,,,,,,,,2,,,40,75
183840,note_on,360,0,1,,,,,,,,,0,,,84,0
183852,note_on,12,0,3,,,,,,,,,2,,,40,0
183852,note_on,0,0,1,,,,,,,,,0,,,81,0
183852,note_on,0,0,1,,,,,,,,,0,,,72,0
183852,note_on,12,0,1,,,,,,,,,0,,,84,0
183852,note_on,0,0,1,,,,,,,,,0,,,76,0
183960,note_on,108,0,1,,,,,,,,,0,,,76,88
183960,note_on,0,0,1,,,,,,,,,0,,,81,88
183960,note_on,0,0,1,,,,,,,,,0,,,83,88
183960,note_on,0,0,1,,,,,,,,,0,,,88,88
183960,control_change,108,0,3,,,,,,,,,2,64,127,,
183960,note_on,0,0,3,,,,,,,,,2,,,40,75
184020,note_on,60,0,3,,,,,,,,,2,,,40,0
184020,note_on,0,0,3,,,,,,,,,2,,,52,75
184080,note_on,60,0,3,,,,,,,,,2,,,52,0
184080,note_on,0,0,3,,,,,,,,,2,,,52,75
184086,note_on,6,0,3,,,,,,,,,2,,,52,0
184140,note_on,54,0,3,,,,,,,,,2,,,52,75
184146,note_on,6,0,3,,,,,,,,,2,,,52,0
184200,note_on,54,0,3,,,,,,,,,2,,,52,75
184212,note_on,12,0,3,,,,,,,,,2,,,52,0
184320,note_on,360,0,1,,,,,,,,,0,,,88,0
184320,note_on,0,0,1,,,,,,,,,0,,,76,0
184320,note_on,0,0,1,,,,,,,,,0,,,81,0
184320,note_on,0,0,1,,,,,,,,,0,,,83,0
184320,note_on,0,0,1,,,,,,,,,0,,,76,88
184320,note_on,0,0,1,,,,,,,,,0,,,80,88
184320,control_change,108,0,3,,,,,,,,,2,64,0,,
184320,note_on,0,0,3,,,,,,,,,2,,,52,75
184320,note_on,0,0,1,,,,,,,,,0,,,83,88
184320,note_on,0,0,1,,,,,,,,,0,,,88,88
184332,note_on,12,0,3,,,,,,,,,2,,,52,0
184332,note_on,0,0,1,,,,,,,,,0,,,83,0
184332,note_on,0,0,1,,,,,,,,,0,,,80,0
184332,note_on,0,0,1,,,,,,,,,0,,,76,0
184332,note_on,12,0,1,,,,,,,,,0,,,88,0
184440,control_change,108,0,3,,,,,,,,,2,64,127,,
184440,note_on,0,0,3,,,,,,,,,2,,,45,88
184440,note_on,0,0,1,,,,,,,,,0,,,88,101
184440,note_on,0,0,1,,,,,,,,,0,,,93,101
184440,note_on,0,0,1,,,,,,,,,0,,,84,101
184440,note_on,108,0,1,,,,,,,,,0,,,81,101
184500,note_on,60,0,3,,,,,,,,,2,,,45,0
184500,note_on,0,0,3,,,,,,,,,2,,,52,88
184560,note_on,0,0,3,,,,,,,,,2,,,52,88
184560,note_on,60,0,3,,,,,,,,,2,,,52,0
184566,note_on,6,0,3,,,,,,,,,2,,,52,0
184620,note_on,54,0,3,,,,,,,,,2,,,52,88
184626,note_on,6,0,3,,,,,,,,,2,,,52,0
184680,control_change,54,0,3,,,,,,,,,2,64,0,,
184680,note_on,0,0,3,,,,,,,,,2,,,52,88
184692,note_on,12,0,3,,,,,,,,,2,,,52,0
184800,note_on,0,0,1,,,,,,,,,0,,,88,0
184800,note_on,0,0,1,,,,,,,,,0,,,88,101
184800,note_on,0,0,1,,,,,,,,,0,,,83,101
184800,note_on,0,0,1,,,,,,,,,0,,,80,101
184800,note_on,0,0,1,,,,,,,,,0,,,84,0
184800,note_on,0,0,1,,,,,,,,,0,,,81,0
184800,note_on,360,0,1,,,,,,,,,0,,,93,0
184800,note_on,0,0,3,,,,,,,,,2,,,52,88
184800,note_on,0,0,1,,,,,,,,,0,,,92,101
184800,note_on,108,0,3,,,,,,,,,2,,,40,88
184812,note_on,12,0,3,,,,,,,,,2,,,52,0
184812,note_on,0,0,1,,,,,,,,,0,,,80,0
184812,note_on,0,0,1,,,,,,,,,0,,,83,0
184812,note_on,0,0,1,,,,,,,,,0,,,88,0
184812,note_on,0,0,3,,,,,,,,,2,,,40,0
184812,note_on,12,0,1,,,,,,,,,0,,,92,0
184920,note_on,108,0,1,,,,,,,,,0,,,81,101
184920,note_on,0,0,1,,,,,,,,,0,,,84,101
184920,note_on,0,0,1,,,,,,,,,0,,,88,101
184920,note_on,0,0,1,,,,,,,,,0,,,93,101
184920,note_on,108,0,3,,,,,,,,,2,,,45,88
184920,note_on,0,0,3,,,,,,,,,2,,,52,88
184932,note_on,0,0,3,,,,,,,,,2,,,45,0
184932,note_on,12,0,3,,,,,,,,,2,,,52,0
184932,note_on,12,0,1,,,,,,,,,0,,,93,0
184932,note_on,0,0,1,,,,,,,,,0,,,81,0
184932,note_on,0,0,1,,,,,,,,,0,,,84,0
184932,note_on,0,0,1,,,,,,,,,0,,,88,0
185040,note_on,0,0,1,,,,,,,,,0,,,88,101
185040,note_on,0,0,1,,,,,,,,,0,,,92,101
185040,note_on,108,0,1,,,,,,,,,0,,,80,101
185040,note_on,108,0,3,,,,,,,,,2,,,40,88
185040,note_on,0,0,1,,,,,,,,,0,,,83,101
185040,note_on,0,0,3,,,,,,,,,2,,,52,88
185052,note_on,0,0,3,,,,,,,,,2,,,40,0
185052,note_on,0,0,1,,,,,,,,,0,,,88,0
185052,note_on,0,0,1,,,,,,,,,0,,,83,0
185052,note_on,0,0,1,,,,,,,,,0,,,80,0
185052,note_on,12,0,3,,,,,,,,,2,,,52,0
185052,note_on,12,0,1,,,,,,,,,0,,,92,0
185160,note_on,108,0,3,,,,,,,,,2,,,45,88
185160,note_on,0,0,3,,,,,,,,,2,,,52,88
185160,note_on,108,0,1,,,,,,,,,0,,,81,101
185160,note_on,0,0,1,,,,,,,,,0,,,93,101
185160,note_on,0,0,1,,,,,,,,,0,,,88,101
185160,note_on,0,0,1,,,,,,,,,0,,,84,101
185172,note_on,0,0,1,,,,,,,,,0,,,84,0
185172,note_on,0,0,1,,,,,,,,,0,,,88,0
185172,note_on,12,0,3,,,,,,,,,2,,,52,0
185172,note_on,12,0,1,,,,,,,,,0,,,93,0
185172,note_on,0,0,3,,,,,,,,,2,,,45,0
185172,note_on,0,0,1,,,,,,,,,0,,,81,0
185280,note_on,0,0,1,,,,,,,,,0,,,86,101
185280,note_on,0,0,1,,,,,,,,,0,,,88,101
185280,note_on,0,0,1,,,,,,,,,0,,,95,101
185280,note_on,108,0,1,,,,,,,,,0,,,83,101
185280,note_on,108,0,3,,,,,,,,,2,,,40,88
185280,note_on,0,0,3,,,,,,,,,2,,,52,88
185292,note_on,12,0,1,,,,,,,,,0,,,95,0
185292,note_on,0,0,1,,,,,,,,,0,,,83,0
185292,note_on,0,0,1,,,,,,,,,0,,,86,0
185292,note_on,0,0,1,,,,,,,,,0,,,88,0
185292,note_on,0,0,3,,,,,,,,,2,,,40,0
185292,note_on,12,0,3,,,,,,,,,2,,,52,0
185400,note_on,0,0,3,,,,,,,,,2,,,45,88
185400,control_change,108,0,3,,,,,,,,,2,64,127,,
185400,note_on,0,0,1,,,,,,,,,0,,,88,101
185400,note_on,0,0,1,,,,,,,,,0,,,84,101
185400,note_on,108,0,1,,,,,,,,,0,,,81,101
185400,note_on,0,0,1,,,,,,,,,0,,,93,101
185460,note_on,0,0,3,,,,,,,,,2,,,52,88
185460,note_on,60,0,3,,,,,,,,,2,,,45,0
185520,note_on,0,0,3,,,,,,,,,2,,,52,88
185520,note_on,60,0,3,,,,,,,,,2,,,52,0
185526,note_on,6,0,3,,,,,,,,,2,,,52,0
185580,note_on,54,0,3,,,,,,,,,2,,,52,88
185586,note_on,6,0,3,,,,,,,,,2,,,52,0
185640,note_on,54,0,3,,,,,,,,,2,,,52,88
185652,note_on,12,0,3,,,,,,,,,2,,,52,0
185760,note_on,0,0,1,,,,,,,,,0,,,92,101
185760,note_on,0,0,1,,,,,,,,,0,,,88,101
185760,note_on,360,0,1,,,,,,,,,0,,,93,0
185760,note_on,0,0,1,,,,,,,,,0,,,81,0
185760,note_on,0,0,1,,,,,,,,,0,,,88,0
185760,note_on,0,0,1,,,,,,,,,0,,,80,101
185760,note_on,0,0,1,,,,,,,,,0,,,84,0
185760,note_on,0,0,1,,,,,,,,,0,,,83,101
185760,note_on,0,0,3,,,,,,,,,2,,,52,88
185760,control_change,108,0,3,,,,,,,,,2,64,0,,
185760,note_on,0,0,3,,,,,,,,,2,,,40,88
185772,note_on,0,0,1,,,,,,,,,0,,,88,0
185772,note_on,0,0,1,,,,,,,,,0,,,83,0
185772,note_on,0,0,1,,,,,,,,,0,,,80,0
185772,note_on,12,0,1,,,,,,,,,0,,,92,0
185772,note_on,12,0,3,,,,,,,,,2,,,52,0
185772,note_on,0,0,3,,,,,,,,,2,,,40,0
185880,note_on,0,0,1,,,,,,,,,0,,,93,101
185880,note_on,108,0,1,,,,,,,,,0,,,81,101
185880,note_on,0,0,1,,,,,,,,,0,,,84,101
185880,note_on,0,0,1,,,,,,,,,0,,,88,101
185880,note_on,0,0,3,,,,,,,,,2,,,52,88
185880,note_on,108,0,3,,,,,,,,,2,,,45,88
185892,note_on,0,0,1,,,,,,,,,0,,,81,0
185892,note_on,12,0,1,,,,,,,,,0,,,93,0
185892,note_on,0,0,1,,,,,,,,,0,,,88,0
185892,note_on,12,0,3,,,,,,,,,2,,,52,0
185892,note_on,0,0,1,,,,,,,,,0,,,84,0
185892,note_on,0,0,3,,,,,,,,,2,,,45,0
186000,note_on,0,0,3,,,,,,,,,2,,,52,88
186000,note_on,108,0,3,,,,,,,,,2,,,40,88
186000,note_on,0,0,1,,,,,,,,,0,,,92,101
186000,note_on,0,0,1,,,,,,,,,0,,,88,101
186000,note_on,0,0,1,,,,,,,,,0,,,83,101
186000,note_on,108,0,1,,,,,,,,,0,,,80,101
186012,note_on,0,0,1,,,,,,,,,0,,,80,0
186012,note_on,0,0,1,,,,,,,,,0,,,83,0
186012,note_on,0,0,3,,,,,,,,,2,,,40,0
186012,note_on,12,0,3,,,,,,,,,2,,,52,0
186012,note_on,12,0,1,,,,,,,,,0,,,92,0
186012,note_on,0,0,1,,,,,,,,,0,,,88,0
186120,note_on,0,0,3,,,,,,,,,2,,,52,88
186120,note_on,108,0,3,,,,,,,,,2,,,45,88
186120,note_on,108,0,1,,,,,,,,,0,,,81,101
186120,note_on,0,0,1,,,,,,,,,0,,,93,101
186120,note_on,0,0,1,,,,,,,,,0,,,88,101
186120,note_on,0,0,1,,,,,,,,,0,,,84,101
186132,note_on,0,0,1,,,,,,,,,0,,,81,0
186132,note_on,0,0,1,,,,,,,,,0,,,88,0
186132,note_on,0,0,1,,,,,,,,,0,,,84,0
186132,note_on,12,0,1,,,,,,,,,0,,,93,0
186132,note_on,0,0,3,,,,,,,,,2,,,45,0
186132,note_on,12,0,3,,,,,,,,,2,,,52,0
186240,note_on,108,0,3,,,,,,,,,2,,,40,88
186240,note_on,0,0,1,,,,,,,,,0,,,95,101
186240,note_on,0,0,1,,,,,,,,,0,,,88,101
186240,note_on,0,0,1,,,,,,,,,0,,,86,101
186240,note_on,108,0,1,,,,,,,,,0,,,83,101
186240,note_on,0,0,3,,,,,,,,,2,,,52,88
186252,note_on,0,0,1,,,,,,,,,0,,,83,0
186252,note_on,0,0,1,,,,,,,,,0,,,88,0
186252,note_on,0,0,1,,,,,,,,,0,,,86,0
186252,note_on,12,0,1,,,,,,,,,0,,,95,0
186252,note_on,0,0,3,,,,,,,,,2,,,40,0
186252,note_on,12,0,3,,,,,,,,,2,,,52,0
186360,note_on,0,0,1,,,,,,,,,0,,,93,101
186360,note_on,0,0,1,,,,,,,,,0,,,88,101
186360,note_on,108,0,1,,,,,,,,,0,,,81,101
186360,note_on,0,0,1,,,,,,,,,0,,,84,101
186360,note_on,0,0,3,,,,,,,,,2,,,52,88
186360,note_on,108,0,3,,,,,,,,,2,,,45,88
186480,note_on,0,0,1,,,,,,,,,0,,,95,101
186480,note_on,0,0,1,,,,,,,,,0,,,92,101
186480,note_on,0,0,1,,,,,,,,,0,,,88,101
186480,note_on,0,0,1,,,,,,,,,0,,,83,101
186480,note_on,0,0,1,,,,,,,,,0,,,88,0
186480,note_on,0,0,1,,,,,,,,,0,,,81,0
186480,note_on,120,0,1,,,,,,,,,0,,,93,0
186480,note_on,0,0,1,,,,,,,,,0,,,84,0
186480,note_on,120,0,3,,,,,,,,,2,,,52,0
186480,note_on,0,0,3,,,,,,,,,2,,,52,88
186480,note_on,0,0,3,,,,,,,,,2,,,40,88
186480,note_on,0,0,3,,,,,,,,,2,,,45,0
186600,note_on,0,0,1,,,,,,,,,0,,,96,101
186600,note_on,0,0,1,,,,,,,,,0,,,93,101
186600,note_on,0,0,3,,,,,,,,,2,,,45,88
186600,note_on,0,0,3,,,,,,,,,2,,,40,0
186600,note_on,0,0,1,,,,,,,,,0,,,88,101
186600,note_on,120,0,3,,,,,,,,,2,,,52,0
186600,note_on,0,0,3,,,,,,,,,2,,,52,88
186600,note_on,120,0,1,,,,,,,,,0,,,95,0
186600,note_on,0,0,1,,,,,,,,,0,,,83,0
186600,note_on,0,0,1,,,,,,,,,0,,,88,0
186600,note_on,0,0,1,,,,,,,,,0,,,92,0
186600,note_on,0,0,1,,,,,,,,,0,,,84,101
186720,note_on,0,0,1,,,,,,,,,0,,,83,101
186720,note_on,0,0,1,,,,,,,,,0,,,92,101
186720,note_on,0,0,1,,,,,,,,,0,,,88,101
186720,note_on,0,0,1,,,,,,,,,0,,,93,0
186720,note_on,0,0,1,,,,,,,,,0,,,88,0
186720,note_on,0,0,3,,,,,,,,,2,,,52,88
186720,note_on,120,0,1,,,,,,,,,0,,,96,0
186720,note_on,120,0,3,,,,,,,,,2,,,52,0
186720,note_on,0,0,3,,,,,,,,,2,,,45,0
186720,note_on,0,0,3,,,,,,,,,2,,,40,88
186720,note_on,0,0,1,,,,,,,,,0,,,84,0
186720,note_on,0,0,1,,,,,,,,,0,,,95,101
186840,note_on,0,0,1,,,,,,,,,0,,,84,101
186840,note_on,0,0,1,,,,,,,,,0,,,88,101
186840,note_on,0,0,1,,,,,,,,,0,,,92,0
186840,note_on,0,0,1,,,,,,,,,0,,,93,101
186840,note_on,0,0,1,,,,,,,,,0,,,88,0
186840,note_on,0,0,1,,,,,,,,,0,,,83,0
186840,note_on,120,0,1,,,,,,,,,0,,,95,0
186840,note_on,120,0,3,,,,,,,,,2,,,52,0
186840,note_on,0,0,3,,,,,,,,,2,,,40,0
186840,note_on,0,0,3,,,,,,,,,2,,,45,88
186840,note_on,0,0,3,,,,,,,,,2,,,52,88
186840,note_on,0,0,1,,,,,,,,,0,,,96,101
186960,note_on,0,0,1,,,,,,,,,0,,,93,0
186960,note_on,0,0,3,,,,,,,,,2,,,52,88
186960,note_on,0,0,3,,,,,,,,,2,,,40,88
186960,note_on,0,0,3,,,,,,,,,2,,,45,0
186960,note_on,120,0,3,,,,,,,,,2,,,52,0
186960,note_on,0,0,1,,,,,,,,,0,,,92,101
186960,note_on,0,0,1,,,,,,,,,0,,,88,101
186960,note_on,0,0,1,,,,,,,,,0,,,83,101
186960,note_on,0,0,1,,,,,,,,,0,,,88,0
186960,note_on,0,0,1,,,,,,,,,0,,,84,0
186960,note_on,120,0,1,,,,,,,,,0,,,96,0
186960,note_on,0,0,1,,,,,,,,,0,,,95,101
187080,note_on,0,0,1,,,,,,,,,0,,,84,101
187080,note_on,0,0,3,,,,,,,,,2,,,45,88
187080,note_on,0,0,1,,,,,,,,,0,,,88,101
187080,note_on,0,0,1,,,,,,,,,0,,,93,101
187080,note_on,0,0,1,,,,,,,,,0,,,96,101
187080,note_on,120,0,3,,,,,,,,,2,,,52,0
187080,note_on,0,0,3,,,,,,,,,2,,,40,0
187080,note_on,0,0,3,,,,,,,,,2,,,52,88
187080,note_on,120,0,1,,,,,,,,,0,,,95,0
187080,note_on,0,0,1,,,,,,,,,0,,,88,0
187080,note_on,0,0,1,,,,,,,,,0,,,92,0
187080,note_on,0,0,1,,,,,,,,,0,,,83,0
187200,note_on,0,0,3,,,,,,,,,2,,,52,88
187200,note_on,0,0,3,,,,,,,,,2,,,40,88
187200,note_on,0,0,3,,,,,,,,,2,,,45,0
187200,note_on,120,0,3,,,,,,,,,2,,,52,0
187200,note_on,120,0,1,,,,,,,,,0,,,96,0
187200,note_on,0,0,1,,,,,,,,,0,,,84,0
187200,note_on,0,0,1,,,,,,,,,0,,,88,0
187200,note_on,0,0,1,,,,,,,,,0,,,93,0
187200,note_on,0,0,1,,,,,,,,,0,,,83,101
187200,note_on,0,0,1,,,,,,,,,0,,,92,101
187200,note_on,0,0,1,,,,,,,,,0,,,95,101
187200,note_on,0,0,1,,,,,,,,,0,,,88,101
187320,note_on,0,0,3,,,,,,,,,2,,,45,88
187320,note_on,120,0,1,,,,,,,,,0,,,95,0
187320,note_on,0,0,1,,,,,,,,,0,,,93,101
187320,note_on,0,0,1,,,,,,,,,0,,,88,0
187320,note_on,0,0,1,,,,,,,,,0,,,88,101
187320,note_on,0,0,1,,,,,,,,,0,,,84,101
187320,note_on,0,0,1,,,,,,,,,0,,,81,101
187320,note_on,0,0,1,,,,,,,,,0,,,92,0
187320,note_on,120,0,3,,,,,,,,,2,,,52,0
187320,note_on,0,0,3,,,,,,,,,2,,,40,0
187320,note_on,0,0,3,,,,,,,,,2,,,52,88
187320,note_on,0,0,1,,,,,,,,,0,,,83,0
187440,note_on,0,0,1,,,,,,,,,0,,,84,0
187440,note_on,0,0,1,,,,,,,,,0,,,88,0
187440,note_on,0,0,1,,,,,,,,,0,,,81,0
187440,note_on,120,0,3,,,,,,,,,2,,,52,0
187440,note_on,0,0,3,,,,,,,,,2,,,45,0
187440,note_on,120,0,1,,,,,,,,,0,,,93,0
187560,note_on,120,0,3,,,,,,,,,2,,,52,88
187560,note_on,0,0,3,,,,,,,,,2,,,59,88
187560,note_on,0,0,3,,,,,,,,,2,,,64,88
187560,note_on,120,0,1,,,,,,,,,0,,,76,101
187560,note_on,0,0,1,,,,,,,,,0,,,80,101
187560,note_on,0,0,1,,,,,,,,,0,,,83,101
187560,note_on,0,0,1,,,,,,,,,0,,,88,101
187560,note_on,0,0,3,,,,,,,,,2,,,56,88
187680,note_on,0,0,1,,,,,,,,,0,,,76,0
187680,note_on,120,0,3,,,,,,,,,2,,,64,0
187680,note_on,0,0,3,,,,,,,,,2,,,59,0
187680,note_on,0,0,3,,,,,,,,,2,,,52,0
187680,note_on,120,0,1,,,,,,,,,0,,,88,0
187680,note_on,0,0,1,,,,,,,,,0,,,80,0
187680,note_on,0,0,1,,,,,,,,,0,,,83,0
187680,note_on,0,0,3,,,,,,,,,2,,,56,0
187800,note_on,120,0,3,,,,,,,,,2,,,52,88
187800,note_on,0,0,3,,,,,,,,,2,,,57,88
187800,note_on,0,0,3,,,,,,,,,2,,,60,88
187800,note_on,0,0,3,,,,,,,,,2,,,64,88
187800,note_on,0,0,1,,,,,,,,,0,,,88,101
187800,note_on,120,0,1,,,,,,,,,0,,,76,101
187800,note_on,0,0,1,,,,,,,,,0,,,81,101
187800,note_on,0,0,1,,,,,,,,,0,,,84,101
187920,note_on,0,0,1,,,,,,,,,0,,,81,0
187920,note_on,0,0,1,,,,,,,,,0,,,76,0
187920,note_on,0,0,3,,,,,,,,,2,,,60,0
187920,note_on,0,0,3,,,,,,,,,2,,,57,0
187920,note_on,120,0,1,,,,,,,,,0,,,88,0
187920,note_on,0,0,3,,,,,,,,,2,,,52,0
187920,note_on,120,0,3,,,,,,,,,2,,,64,0
187920,note_on,0,0,1,,,,,,,,,0,,,84,0
188040,note_on,0,0,3,,,,,,,,,2,,,64,88
188040,note_on,120,0,3,,,,,,,,,2,,,52,88
188040,note_on,120,0,1,,,,,,,,,0,,,76,101
188040,note_on,0,0,1,,,,,,,,,0,,,80,101
188040,note_on,0,0,1,,,,,,,,,0,,,83,101
188040,note_on,0,0,3,,,,,,,,,2,,,56,88
188040,note_on,0,0,3,,,,,,,,,2,,,59,88
188040,note_on,0,0,1,,,,,,,,,0,,,88,101
188160,note_on,120,0,1,,,,,,,,,0,,,88,0
188160,note_on,0,0,1,,,,,,,,,0,,,76,0
188160,note_on,0,0,1,,,,,,,,,0,,,83,0
188160,note_on,0,0,1,,,,,,,,,0,,,80,0
188160,note_on,0,0,3,,,,,,,,,2,,,59,0
188160,note_on,0,0,3,,,,,,,,,2,,,56,0
188160,note_on,0,0,3,,,,,,,,,2,,,52,0
188160,note_on,120,0,3,,,,,,,,,2,,,64,0
188280,note_on,0,0,3,,,,,,,,,2,,,45,101
188280,note_on,120,0,3,,,,,,,,,2,,,33,101
188280,note_on,0,0,1,,,,,,,,,0,,,69,114
188280,note_on,120,0,1,,,,,,,,,0,,,57,114
188640,note_on,0,0,3,,,,,,,,,2,,,33,0
188640,note_on,0,0,3,,,,,,,,,2,,,32,101
188640,note_on,0,0,3,,,,,,,,,2,,,44,101
188640,note_on,0,0,1,,,,,,,,,0,,,68,114
188640,note_on,0,0,1,,,,,,,,,0,,,56,114
188640,note_on,0,0,1,,,,,,,,,0,,,57,0
188640,note_on,360,0,1,,,,,,,,,0,,,69,0
188640,note_on,360,0,3,,,,,,,,,2,,,45,0
188760,note_on,0,0,1,,,,,,,,,0,,,69,114
188760,note_on,0,0,1,,,,,,,,,0,,,56,0
188760,note_on,0,0,1,,,,,,,,,0,,,57,114
188760,note_on,120,0,1,,,,,,,,,0,,,68,0
188760,note_on,0,0,3,,,,,,,,,2,,,32,0
188760,note_on,0,0,3,,,,,,,,,2,,,33,101
188760,note_on,0,0,3,,,,,,,,,2,,,45,101
188760,note_on,120,0,3,,,,,,,,,2,,,44,0
188880,note_on,0,0,1,,,,,,,,,0,,,68,114
188880,note_on,0,0,1,,,,,,,,,0,,,57,0
188880,note_on,120,0,1,,,,,,,,,0,,,69,0
188880,note_on,0,0,1,,,,,,,,,0,,,56,114
188880,note_on,0,0,3,,,,,,,,,2,,,32,101
188880,note_on,0,0,3,,,,,,,,,2,,,33,0
188880,note_on,120,0,3,,,,,,,,,2,,,45,0
188880,note_on,0,0,3,,,,,,,,,2,,,44,101
189000,note_on,0,0,3,,,,,,,,,2,,,33,101
189000,note_on,120,0,1,,,,,,,,,0,,,68,0
189000,note_on,0,0,1,,,,,,,,,0,,,56,0
189000,note_on,0,0,1,,,,,,,,,0,,,57,114
189000,note_on,0,0,1,,,,,,,,,0,,,69,114
189000,note_on,120,0,3,,,,,,,,,2,,,44,0
189000,note_on,0,0,3,,,,,,,,,2,,,32,0
189000,note_on,0,0,3,,,,,,,,,2,,,45,101
189120,note_on,0,0,3,,,,,,,,,2,,,47,101
189120,note_on,0,0,3,,,,,,,,,2,,,35,101
189120,note_on,0,0,3,,,,,,,,,2,,,33,0
189120,note_on,120,0,3,,,,,,,,,2,,,45,0
189120,note_on,0,0,1,,,,,,,,,0,,,71,114
189120,note_on,0,0,1,,,,,,,,,0,,,59,114
189120,note_on,0,0,1,,,,,,,,,0,,,57,0
189120,note_on,120,0,1,,,,,,,,,0,,,69,0
189240,note_on,0,0,1,,,,,,,,,0,,,57,114
189240,note_on,0,0,1,,,,,,,,,0,,,59,0
189240,note_on,120,0,1,,,,,,,,,0,,,71,0
189240,note_on,0,0,3,,,,,,,,,2,,,45,101
189240,note_on,0,0,1,,,,,,,,,0,,,69,114
189240,note_on,0,0,3,,,,,,,,,2,,,35,0
189240,note_on,120,0,3,,,,,,,,,2,,,47,0
189240,note_on,0,0,3,,,,,,,,,2,,,33,101
189360,note_on,0,0,3,,,,,,,,,2,,,32,101
189360,note_on,120,0,1,,,,,,,,,0,,,69,0
189360,note_on,0,0,1,,,,,,,,,0,,,57,0
189360,note_on,120,0,3,,,,,,,,,2,,,45,0
189360,note_on,0,0,1,,,,,,,,,0,,,56,114
189360,note_on,0,0,1,,,,,,,,,0,,,68,114
189360,note_on,0,0,3,,,,,,,,,2,,,33,0
189360,note_on,0,0,3,,,,,,,,,2,,,44,101
189420,note_on,0,0,1,,,,,,,,,0,,,69,114
189420,note_on,0,0,3,,,,,,,,,2,,,45,101
189420,note_on,0,0,3,,,,,,,,,2,,,33,101
189420,note_on,0,0,3,,,,,,,,,2,,,32,0
189420,note_on,0,0,1,,,,,,,,,0,,,56,0
189420,note_on,0,0,1,,,,,,,,,0,,,57,114
189420,note_on,60,0,3,,,,,,,,,2,,,44,0
189420,note_on,60,0,1,,,,,,,,,0,,,68,0
189480,note_on,0,0,1,,,,,,,,,0,,,59,114
189480,note_on,0,0,1,,,,,,,,,0,,,71,114
189480,note_on,60,0,1,,,,,,,,,0,,,69,0
189480,note_on,0,0,3,,,,,,,,,2,,,47,101
189480,note_on,0,0,1,,,,,,,,,0,,,57,0
189480,note_on,0,0,3,,,,,,,,,2,,,33,0
189480,note_on,60,0,3,,,,,,,,,2,,,45,0
189480,note_on,0,0,3,,,,,,,,,2,,,35,101
189600,note_on,120,0,3,,,,,,,,,2,,,47,0
189600,note_on,0,0,3,,,,,,,,,2,,,35,0
189600,note_on,0,0,3,,,,,,,,,2,,,48,101
189600,note_on,0,0,1,,,,,,,,,0,,,72,114
189600,note_on,0,0,1,,,,,,,,,0,,,60,114
189600,note_on,0,0,1,,,,,,,,,0,,,59,0
189600,note_on,120,0,1,,,,,,,,,0,,,71,0
189600,note_on,0,0,3,,,,,,,,,2,,,36,101
189720,note_on,120,0,1,,,,,,,,,0,,,72,0
189720,note_on,0,0,1,,,,,,,,,0,,,60,0
189720,note_on,0,0,3,,,,,,,,,2,,,45,114
189720,note_on,0,0,1,,,,,,,,,0,,,57,114
189720,note_on,0,0,3,,,,,,,,,2,,,33,114
189720,note_on,0,0,3,,,,,,,,,2,,,36,0
189720,note_on,120,0,3,,,,,,,,,2,,,48,0
189720,note_on,0,0,1,,,,,,,,,0,,,69,114
190080,note_on,0,0,1,,,,,,,,,0,,,57,0
190080,note_on,0,0,1,,,,,,,,,0,,,56,114
190080,note_on,0,0,1,,,,,,,,,0,,,68,114
190080,note_on,360,0,1,,,,,,,,,0,,,69,0
190080,note_on,0,0,3,,,,,,,,,2,,,44,114
190080,note_on,360,0,3,,,,,,,,,2,,,45,0
190080,note_on,0,0,3,,,,,,,,,2,,,32,114
190080,note_on,0,0,3,,,,,,,,,2,,,33,0
190200,note_on,0,0,1,,,,,,,,,0,,,56,0
190200,note_on,120,0,1,,,,,,,,,0,,,68,0
190200,note_on,0,0,1,,,,,,,,,0,,,57,114
190200,note_on,120,0,3,,,,,,,,,2,,,44,0
190200,note_on,0,0,3,,,,,,,,,2,,,45,114
190200,note_on,0,0,1,,,,,,,,,0,,,69,114
190200,note_on,0,0,3,,,,,,,,,2,,,32,0
190200,note_on,0,0,3,,,,,,,,,2,,,33,114
190320,note_on,0,0,3,,,,,,,,,2,,,44,114
190320,note_on,0,0,3,,,,,,,,,2,,,32,114
190320,note_on,0,0,3,,,,,,,,,2,,,33,0
190320,note_on,120,0,3,,,,,,,,,2,,,45,0
190320,note_on,120,0,1,,,,,,,,,0,,,69,0
190320,note_on,0,0,1,,,,,,,,,0,,,57,0
190320,note_on,0,0,1,,,,,,,,,0,,,68,114
190320,note_on,0,0,1,,,,,,,,,0,,,56,114
190440,note_on,120,0,3,,,,,,,,,2,,,44,0
190440,note_on,0,0,1,,,,,,,,,0,,,69,114
190440,note_on,0,0,1,,,,,,,,,0,,,57,114
190440,note_on,0,0,1,,,,,,,,,0,,,56,0
190440,note_on,120,0,1,,,,,,,,,0,,,68,0
190440,note_on,0,0,3,,,,,,,,,2,,,45,114
190440,note_on,0,0,3,,,,,,,,,2,,,32,0
190440,note_on,0,0,3,,,,,,,,,2,,,33,114
190560,note_on,0,0,3,,,,,,,,,2,,,33,0
190560,note_on,120,0,3,,,,,,,,,2,,,45,0
190560,note_on,0,0,1,,,,,,,,,0,,,57,0
190560,note_on,0,0,3,,,,,,,,,2,,,47,114
190560,note_on,0,0,1,,,,,,,,,0,,,71,114
190560,note_on,0,0,1,,,,,,,,,0,,,59,114
190560,note_on,120,0,1,,,,,,,,,0,,,69,0
190560,note_on,0,0,3,,,,,,,,,2,,,35,114
190680,note_on,0,0,3,,,,,,,,,2,,,33,114
190680,note_on,0,0,3,,,,,,,,,2,,,35,0
190680,note_on,0,0,3,,,,,,,,,2,,,45,114
190680,note_on,120,0,1,,,,,,,,,0,,,71,0
190680,note_on,0,0,1,,,,,,,,,0,,,59,0
190680,note_on,0,0,1,,,,,,,,,0,,,57,114
190680,note_on,0,0,1,,,,,,,,,0,,,69,114
190680,note_on,120,0,3,,,,,,,,,2,,,47,0
190800,note_on,120,0,1,,,,,,,,,0,,,69,0
190800,note_on,0,0,1,,,,,,,,,0,,,57,0
190800,note_on,0,0,3,,,,,,,,,2,,,33,0
190800,note_on,0,0,3,,,,,,,,,2,,,44,114
190800,note_on,0,0,3,,,,,,,,,2,,,32,114
190800,note_on,120,0,3,,,,,,,,,2,,,45,0
190800,note_on,0,0,1,,,,,,,,,0,,,56,114
190800,note_on,0,0,1,,,,,,,,,0,,,68,114
190860,note_on,0,0,3,,,,,,,,,2,,,33,114
190860,note_on,0,0,3,,,,,,,,,2,,,32,0
190860,note_on,60,0,3,,,,,,,,,2,,,44,0
190860,note_on,0,0,3,,,,,,,,,2,,,45,114
190860,note_on,0,0,1,,,,,,,,,0,,,56,0
190860,note_on,0,0,1,,,,,,,,,0,,,57,114
190860,note_on,0,0,1,,,,,,,,,0,,,69,114
190860,note_on,60,0,1,,,,,,,,,0,,,68,0
190920,note_on,60,0,3,,,,,,,,,2,,,45,0
190920,note_on,0,0,3,,,,,,,,,2,,,47,114
190920,note_on,0,0,3,,,,,,,,,2,,,35,114
190920,note_on,0,0,3,,,,,,,,,2,,,33,0
190920,note_on,0,0,1,,,,,,,,,0,,,71,114
190920,note_on,0,0,1,,,,,,,,,0,,,59,114
190920,note_on,0,0,1,,,,,,,,,0,,,57,0
190920,note_on,60,0,1,,,,,,,,,0,,,69,0
191040,note_on,0,0,1,,,,,,,,,0,,,59,0
191040,note_on,0,0,1,,,,,,,,,0,,,60,114
191040,note_on,0,0,1,,,,,,,,,0,,,72,114
191040,note_on,120,0,3,,,,,,,,,2,,,47,0
191040,note_on,0,0,3,,,,,,,,,2,,,35,0
191040,note_on,0,0,3,,,,,,,,,2,,,36,114
191040,note_on,0,0,3,,,,,,,,,2,,,48,114
191040,note_on,120,0,1,,,,,,,,,0,,,71,0
191160,note_on,0,0,3,,,,,,,,,2,,,33,114
191160,note_on,120,0,3,,,,,,,,,2,,,48,0
191160,note_on,0,0,3,,,,,,,,,2,,,36,0
191160,note_on,0,0,3,,,,,,,,,2,,,45,114
191160,note_on,0,0,1,,,,,,,,,0,,,57,114
191160,note_on,0,0,1,,,,,,,,,0,,,69,114
191160,note_on,0,0,1,,,,,,,,,0,,,60,0
191160,note_on,120,0,1,,,,,,,,,0,,,72,0
191280,note_on,0,0,3,,,,,,,,,2,,,33,0
191280,note_on,120,0,3,,,,,,,,,2,,,45,0
191280,note_on,0,0,1,,,,,,,,,0,,,57,0
191280,note_on,120,0,1,,,,,,,,,0,,,69,0
191640,note_on,0,0,3,,,,,,,,,2,,,44,114
191640,note_on,0,0,3,,,,,,,,,2,,,47,114
191640,note_on,0,0,3,,,,,,,,,2,,,52,114
191640,note_on,0,0,1,,,,,,,,,0,,,71,114
191640,note_on,0,0,1,,,,,,,,,0,,,68,114
191640,note_on,360,0,1,,,,,,,,,0,,,64,114
191640,note_on,360,0,3,,,,,,,,,2,,,40,114
191640,note_on,0,0,1,,,,,,,,,0,,,76,114
191880,note_on,0,0,1,,,,,,,,,0,,,71,0
191880,note_on,0,0,1,,,,,,,,,0,,,64,0
191880,note_on,0,0,3,,,,,,,,,2,,,47,0
191880,note_on,0,0,3,,,,,,,,,2,,,44,0
191880,note_on,240,0,1,,,,,,,,,0,,,76,0
191880,note_on,240,0,3,,,,,,,,,2,,,52,0
191880,note_on,0,0,3,,,,,,,,,2,,,40,0
191880,note_on,0,0,1,,,,,,,,,0,,,68,0
192120,note_on,240,0,3,,,,,,,,,2,,,33,114
192120,note_on,0,0,3,,,,,,,,,2,,,45,114
192120,note_on,0,0,3,,,,,,,,,2,,,40,114
192120,note_on,0,0,3,,,,,,,,,2,,,36,114
192120,note_on,240,0,1,,,,,,,,,0,,,69,114
192120,note_on,0,0,1,,,,,,,,,0,,,72,114
192120,note_on,0,0,1,,,,,,,,,0,,,81,114
192120,note_on,0,0,1,,,,,,,,,0,,,76,114
192360,note_on,240,0,1,,,,,,,,,0,,,81,0
192360,note_on,0,0,1,,,,,,,,,0,,,76,0
192360,note_on,0,0,1,,,,,,,,,0,,,72,0
192360,note_on,240,0,3,,,,,,,,,2,,,45,0
192360,note_on,0,0,3,,,,,,,,,2,,,33,0
192360,note_on,0,0,3,,,,,,,,,2,,,36,0
192360,note_on,0,0,3,,,,,,,,,2,,,40,0
192360,note_on,0,0,1,,,,,,,,,0,,,69,0
192600,control_change,28320,0,4,,,,,,,,,3,7,0,,
192600,control_change,26880,0,2,,,,,,,,,1,7,0,,
192600,control_change,240,0,1,,,,,,,,,0,7,0,,
192600,control_change,240,0,3,,,,,,,,,2,7,0,,
193080,control_change,480,0,3,,,,,,,,,2,64,0,,
193080,end_of_track,0,1,3,,,,,,,,,,,,,
193080,control_change,480,0,1,,,,,,,,,0,64,0,,
193080,end_of_track,0,1,1,,,,,,,,,,,,,
193080,control_change,480,0,2,,,,,,,,,1,64,0,,
193080,end_of_track,0,1,2,,,,,,,,,,,,,
193080,control_change,480,0,4,,,,,,,,,3,64,0,,
193080,end_of_track,0,1,4,,,,,,,,,,,,,
