tick,type,time,meta,track,numerator,denominator,clocks_per_click,notated_32nd_notes_per_beat,key,tempo,port,program,channel,control,value,note,velocity
0,track_name,0,1,0,,,,,,,,,,,,,
0,program_change,0,0,4,,,,,,,,0,3,,,,
0,track_name,0,1,4,,,,,,,,,,,,,
0,midi_port,0,1,4,,,,,,,0,,,,,,
0,midi_port,0,1,1,,,,,,,0,,,,,,
0,track_name,0,1,1,,,,,,,,,,,,,
0,program_change,0,0,1,,,,,,,,0,0,,,,
0,control_change,0,0,1,,,,,,,,,0,7,127,,
0,control_change,0,0,1,,,,,,,,,0,10,97,,
0,control_change,0,0,1,,,,,,,,,0,64,127,,
0,note_on,0,0,1,,,,,,,,,0,,,59,88
0,control_change,0,0,4,,,,,,,,,3,7,127,,
0,track_name,0,1,2,,,,,,,,,,,,,
0,note_on,0,0,3,,,,,,,,,2,,,35,75
0,control_change,0,0,3,,,,,,,,,2,64,127,,
0,control_change,0,0,3,,,,,,,,,2,10,30,,
0,control_change,0,0,3,,,,,,,,,2,7,127,,
0,program_change,0,0,3,,,,,,,,0,2,,,,
0,track_name,0,1,3,,,,,,,,,,,,,
0,midi_port,0,1,3,,,,,,,0,,,,,,
0,control_change,0,0,2,,,,,,,,,1,10,97,,
0,control_change,0,0,2,,,,,,,,,1,7,127,,
0,program_change,0,0,2,,,,,,,,0,1,,,,
0,note_on,0,0,3,,,,,,,,,2,,,47,75
0,control_change,0,0,4,,,,,,,,,3,10,30,,
0,midi_port,0,1,2,,,,,,,0,,,,,,
0,text,0,1,0,,,,,,,,,,,,,
0,time_signature,0,1,0,1,4,24,8,,,,,,,,,
0,key_signature,0,1,0,,,,,B,,,,,,,,
0,set_tempo,0,1,0,,,,,,500000,,,,,,,
0,copyright,0,1,0,,,,,,,,,,,,,
90,note_on,0,0,3,,,,,,,,,2,,,51,75
90,note_on,0,0,1,,,,,,,,,0,,,63,88
90,note_on,90,0,1,,,,,,,,,0,,,59,0
90,note_on,0,0,3,,,,,,,,,2,,,39,75
90,note_on,0,0,3,,,,,,,,,2,,,35,0
90,note_on,90,0,3,,,,,,,,,2,,,47,0
94,note_on,4,0,1,,,,,,,,,0,,,63,0
94,note_on,4,0,3,,,,,,,,,2,,,51,0
94,note_on,0,0,3,,,,,,,,,2,,,39,0
120,control_change,26,0,3,,,,,,,,,2,64,0,,
120,note_on,0,0,3,,,,,,,,,2,,,42,75
120,note_on,0,0,3,,,,,,,,,2,,,54,75
120,control_change,26,0,1,,,,,,,,,0,64,0,,
120,time_signature,120,1,0,4,4,24,8,,,,,,,,,
120,note_on,0,0,1,,,,,,,,,0,,,66,114
480,note_on,0,0,1,,,,,,,,,0,,,71,49
480,note_on,360,0,3,,,,,,,,,2,,,54,0
480,note_on,0,0,3,,,,,,,,,2,,,42,0
480,note_on,360,0,1,,,,,,,,,0,,,66,0
489,note_on,9,0,1,,,,,,,,,0,,,71,0
570,note_on,0,0,1,,,,,,,,,0,,,66,49
570,note_on,81,0,1,,,,,,,,,0,,,63,49
570,note_on,90,0,3,,,,,,,,,2,,,47,36
570,note_on,0,0,3,,,,,,,,,2,,,54,36
570,note_on,0,0,3,,,,,,,,,2,,,59,36
600,control_change,0,0,1,,,,,,,,,0,64,127,,
600,note_on,0,0,1,,,,,,,,,0,,,66,49
600,note_on,0,0,3,,,,,,,,,2,,,59,36
600,note_on,0,0,3,,,,,,,,,2,,,54,36
600,control_change,0,0,3,,,,,,,,,2,64,127,,
600,note_on,30,0,1,,,,,,,,,0,,,66,0
600,note_on,0,0,1,,,,,,,,,0,,,63,49
600,note_on,0,0,1,,,,,,,,,0,,,63,0
600,note_on,0,0,3,,,,,,,,,2,,,47,0
600,note_on,0,0,3,,,,,,,,,2,,,54,0
600,note_on,30,0,3,,,,,,,,,2,,,59,0
600,note_on,0,0,3,,,,,,,,,2,,,47,36
720,note_on,0,0,1,,,,,,,,,0,,,63,0
720,note_on,0,0,1,,,,,,,,,0,,,75,49
720,note_on,120,0,1,,,,,,,,,0,,,66,0
720,note_on,0,0,3,,,,,,,,,2,,,47,0
720,note_on,0,0,3,,,,,,,,,2,,,54,0
720,note_on,120,0,3,,,,,,,,,2,,,59,0
729,note_on,9,0,1,,,,,,,,,0,,,75,0
810,note_on,0,0,3,,,,,,,,,2,,,54,36
810,note_on,0,0,3,,,,,,,,,2,,,59,36
810,note_on,0,0,1,,,,,,,,,0,,,66,49
810,note_on,81,0,1,,,,,,,,,0,,,63,49
810,note_on,90,0,3,,,,,,,,,2,,,47,36
840,note_on,0,0,1,,,,,,,,,0,,,63,0
840,note_on,30,0,1,,,,,,,,,0,,,66,0
840,note_on,0,0,3,,,,,,,,,2,,,47,0
840,note_on,0,0,3,,,,,,,,,2,,,54,0
840,note_on,0,0,3,,,,,,,,,2,,,54,36
840,note_on,0,0,3,,,,,,,,,2,,,47,36
840,note_on,0,0,1,,,,,,,,,0,,,63,49
840,note_on,30,0,3,,,,,,,,,2,,,59,0
840,note_on,0,0,3,,,,,,,,,2,,,59,36
840,note_on,0,0,1,,,,,,,,,0,,,66,49
960,note_on,0,0,1,,,,,,,,,0,,,78,49
960,note_on,120,0,1,,,,,,,,,0,,,66,0
960,control_change,0,0,1,,,,,,,,,0,64,0,,
960,note_on,0,0,1,,,,,,,,,0,,,63,0
960,note_on,0,0,3,,,,,,,,,2,,,47,0
960,note_on,120,0,3,,,,,,,,,2,,,59,0
960,note_on,0,0,3,,,,,,,,,2,,,54,0
960,control_change,0,0,3,,,,,,,,,2,64,0,,
969,note_on,9,0,1,,,,,,,,,0,,,78,0
1050,note_on,90,0,3,,,,,,,,,2,,,32,75
1050,note_on,0,0,3,,,,,,,,,2,,,44,75
1050,note_on,81,0,1,,,,,,,,,0,,,51,88
1050,note_on,0,0,1,,,,,,,,,0,,,54,88
1050,note_on,0,0,1,,,,,,,,,0,,,60,88
1050,note_on,0,0,1,,,,,,,,,0,,,56,88
1080,note_on,0,0,1,,,,,,,,,0,,,60,114
1080,note_on,30,0,3,,,,,,,,,2,,,44,0
1080,note_on,0,0,3,,,,,,,,,2,,,32,0
1080,note_on,0,0,3,,,,,,,,,2,,,44,101
1080,note_on,0,0,3,,,,,,,,,2,,,32,93
1080,note_on,0,0,1,,,,,,,,,0,,,51,0
1080,note_on,30,0,1,,,,,,,,,0,,,60,0
1080,note_on,0,0,1,,,,,,,,,0,,,54,106
1080,note_on,0,0,1,,,,,,,,,0,,,51,102
1080,note_on,0,0,1,,,,,,,,,0,,,56,0
1080,note_on,0,0,1,,,,,,,,,0,,,56,110
1080,note_on,0,0,1,,,,,,,,,0,,,54,0
1440,note_on,0,0,3,,,,,,,,,2,,,60,36
1440,note_on,0,0,3,,,,,,,,,2,,,32,0
1440,note_on,0,0,3,,,,,,,,,2,,,51,36
1440,note_on,0,0,1,,,,,,,,,0,,,54,0
1440,note_on,0,0,1,,,,,,,,,0,,,81,36
1440,note_on,0,0,1,,,,,,,,,0,,,69,36
1440,note_on,360,0,1,,,,,,,,,0,,,60,0
1440,note_on,0,0,1,,,,,,,,,0,,,51,0
1440,note_on,360,0,3,,,,,,,,,2,,,44,0
1440,note_on,0,0,1,,,,,,,,,0,,,56,0
1449,note_on,0,0,1,,,,,,,,,0,,,69,0
1449,note_on,9,0,1,,,,,,,,,0,,,81,0
1449,note_on,0,0,3,,,,,,,,,2,,,51,0
1449,note_on,9,0,3,,,,,,,,,2,,,60,0
1530,note_on,0,0,3,,,,,,,,,2,,,61,36
1530,note_on,81,0,1,,,,,,,,,0,,,68,36
1530,note_on,0,0,1,,,,,,,,,0,,,80,36
1530,note_on,81,0,3,,,,,,,,,2,,,52,36
1534,note_on,4,0,3,,,,,,,,,2,,,61,0
1534,note_on,0,0,3,,,,,,,,,2,,,52,0
1534,note_on,4,0,1,,,,,,,,,0,,,80,0
1534,note_on,0,0,1,,,,,,,,,0,,,68,0
1560,note_on,0,0,1,,,,,,,,,0,,,80,36
1560,note_on,26,0,1,,,,,,,,,0,,,68,36
1560,note_on,26,0,3,,,,,,,,,2,,,52,36
1560,note_on,0,0,3,,,,,,,,,2,,,61,36
1680,note_on,0,0,3,,,,,,,,,2,,,58,36
1680,note_on,120,0,3,,,,,,,,,2,,,61,0
1680,note_on,0,0,1,,,,,,,,,0,,,68,0
1680,note_on,0,0,1,,,,,,,,,0,,,79,36
1680,note_on,0,0,1,,,,,,,,,0,,,67,36
1680,note_on,120,0,1,,,,,,,,,0,,,80,0
1770,note_on,0,0,1,,,,,,,,,0,,,66,36
1770,note_on,0,0,1,,,,,,,,,0,,,78,36
1770,note_on,90,0,1,,,,,,,,,0,,,79,0
1770,note_on,90,0,3,,,,,,,,,2,,,58,0
1770,note_on,0,0,3,,,,,,,,,2,,,52,0
1770,note_on,0,0,3,,,,,,,,,2,,,51,36
1770,note_on,0,0,3,,,,,,,,,2,,,59,36
1770,note_on,0,0,1,,,,,,,,,0,,,67,0
1774,note_on,4,0,1,,,,,,,,,0,,,78,0
1774,note_on,0,0,1,,,,,,,,,0,,,66,0
1774,note_on,4,0,3,,,,,,,,,2,,,59,0
1774,note_on,0,0,3,,,,,,,,,2,,,51,0
1800,note_on,26,0,1,,,,,,,,,0,,,66,36
1800,note_on,0,0,1,,,,,,,,,0,,,78,36
1800,note_on,0,0,3,,,,,,,,,2,,,59,36
1800,note_on,26,0,3,,,,,,,,,2,,,51,36
1920,note_on,0,0,3,,,,,,,,,2,,,59,36
1920,note_on,0,0,3,,,,,,,,,2,,,56,36
1920,note_on,0,0,1,,,,,,,,,0,,,65,36
1920,note_on,0,0,3,,,,,,,,,2,,,51,0
1920,note_on,0,0,1,,,,,,,,,0,,,66,0
1920,note_on,120,0,1,,,,,,,,,0,,,78,0
1920,note_on,120,0,3,,,,,,,,,2,,,59,0
1920,note_on,0,0,1,,,,,,,,,0,,,77,36
2010,note_on,0,0,1,,,,,,,,,0,,,64,36
2010,note_on,0,0,3,,,,,,,,,2,,,55,36
2010,note_on,0,0,3,,,,,,,,,2,,,59,36
2010,note_on,0,0,1,,,,,,,,,0,,,65,0
2010,note_on,90,0,3,,,,,,,,,2,,,59,0
2010,note_on,0,0,3,,,,,,,,,2,,,56,0
2010,note_on,0,0,1,,,,,,,,,0,,,76,36
2010,note_on,90,0,1,,,,,,,,,0,,,77,0
2014,note_on,0,0,1,,,,,,,,,0,,,64,0
2014,note_on,0,0,3,,,,,,,,,2,,,55,0
2014,note_on,4,0,3,,,,,,,,,2,,,59,0
2014,note_on,4,0,1,,,,,,,,,0,,,76,0
2040,note_on,0,0,1,,,,,,,,,0,,,64,36
2040,control_change,26,0,1,,,,,,,,,0,64,127,,
2040,note_on,0,0,1,,,,,,,,,0,,,76,36
2040,note_on,0,0,3,,,,,,,,,2,,,59,36
2040,control_change,26,0,3,,,,,,,,,2,64,127,,
2040,note_on,0,0,3,,,,,,,,,2,,,55,36
2160,note_on,120,0,1,,,,,,,,,0,,,76,0
2160,note_on,0,0,1,,,,,,,,,0,,,64,0
2160,note_on,0,0,1,,,,,,,,,0,,,75,36
2160,note_on,0,0,1,,,,,,,,,0,,,66,36
2160,note_on,0,0,3,,,,,,,,,2,,,54,36
2160,note_on,120,0,3,,,,,,,,,2,,,59,0
2160,note_on,0,0,3,,,,,,,,,2,,,55,0
2160,note_on,0,0,3,,,,,,,,,2,,,59,36
2250,note_on,0,0,3,,,,,,,,,2,,,58,36
2250,note_on,0,0,1,,,,,,,,,0,,,73,36
2250,note_on,0,0,1,,,,,,,,,0,,,64,36
2250,note_on,0,0,1,,,,,,,,,0,,,66,0
2250,note_on,0,0,3,,,,,,,,,2,,,54,36
2250,note_on,90,0,1,,,,,,,,,0,,,75,0
2250,note_on,90,0,3,,,,,,,,,2,,,59,0
2250,note_on,0,0,3,,,,,,,,,2,,,54,0
2254,note_on,4,0,3,,,,,,,,,2,,,58,0
2254,note_on,0,0,3,,,,,,,,,2,,,54,0
2254,note_on,4,0,1,,,,,,,,,0,,,73,0
2254,note_on,0,0,1,,,,,,,,,0,,,64,0
2280,note_on,0,0,1,,,,,,,,,0,,,63,36
2280,note_on,0,0,3,,,,,,,,,2,,,59,36
2280,control_change,26,0,1,,,,,,,,,0,64,0,,
2280,note_on,0,0,1,,,,,,,,,0,,,71,36
2280,control_change,26,0,3,,,,,,,,,2,64,0,,
2400,note_on,120,0,3,,,,,,,,,2,,,59,0
2400,control_change,0,0,3,,,,,,,,,2,64,127,,
2400,control_change,0,0,3,,,,,,,,,2,64,127,,
2400,note_on,0,0,3,,,,,,,,,2,,,35,75
2400,note_on,0,0,3,,,,,,,,,2,,,47,75
2400,control_change,0,0,1,,,,,,,,,0,64,127,,
2400,note_on,0,0,1,,,,,,,,,0,,,59,88
2400,note_on,0,0,1,,,,,,,,,0,,,63,0
2400,note_on,120,0,1,,,,,,,,,0,,,71,0
2490,note_on,0,0,3,,,,,,,,,2,,,51,75
2490,note_on,0,0,1,,,,,,,,,0,,,63,88
2490,note_on,90,0,1,,,,,,,,,0,,,59,0
2490,note_on,0,0,3,,,,,,,,,2,,,35,0
2490,note_on,90,0,3,,,,,,,,,2,,,47,0
2490,note_on,0,0,3,,,,,,,,,2,,,39,75
2494,note_on,0,0,3,,,,,,,,,2,,,39,0
2494,note_on,4,0,3,,,,,,,,,2,,,51,0
2520,note_on,2520,0,2,,,,,,,,,1,,,66,75
2520,note_on,26,0,3,,,,,,,,,2,,,42,75
2520,note_on,0,0,3,,,,,,,,,2,,,54,75
2520,note_on,30,0,1,,,,,,,,,0,,,63,0
2520,note_on,0,0,1,,,,,,,,,0,,,66,88
2520,note_on,2520,0,4,,,,,,,,,3,,,54,75
2880,control_change,0,0,3,,,,,,,,,2,64,0,,
2880,note_on,0,0,3,,,,,,,,,2,,,59,36
2880,note_on,0,0,3,,,,,,,,,2,,,42,0
2880,note_on,360,0,3,,,,,,,,,2,,,54,0
2880,note_on,0,0,1,,,,,,,,,0,,,75,36
2880,control_change,0,0,1,,,,,,,,,0,64,0,,
2880,note_on,360,0,1,,,,,,,,,0,,,66,0
2889,note_on,9,0,1,,,,,,,,,0,,,75,0
2970,note_on,81,0,1,,,,,,,,,0,,,76,36
2974,note_on,4,0,1,,,,,,,,,0,,,76,0
3000,control_change,26,0,1,,,,,,,,,0,64,127,,
3000,control_change,120,0,3,,,,,,,,,2,64,127,,
3000,note_on,0,0,1,,,,,,,,,0,,,78,36
3120,note_on,120,0,1,,,,,,,,,0,,,78,0
3120,note_on,0,0,1,,,,,,,,,0,,,73,36
3120,note_on,120,0,3,,,,,,,,,2,,,59,0
3120,note_on,0,0,3,,,,,,,,,2,,,56,36
3129,note_on,9,0,1,,,,,,,,,0,,,73,0
3210,note_on,81,0,1,,,,,,,,,0,,,75,36
3214,note_on,4,0,1,,,,,,,,,0,,,75,0
3240,note_on,26,0,1,,,,,,,,,0,,,76,36
3360,note_on,0,0,1,,,,,,,,,0,,,75,36
3360,note_on,120,0,1,,,,,,,,,0,,,76,0
3360,note_on,840,0,2,,,,,,,,,1,,,66,0
3360,note_on,240,0,3,,,,,,,,,2,,,56,0
3360,note_on,0,0,3,,,,,,,,,2,,,58,36
3360,note_on,0,0,1,,,,,,,,,0,,,66,36
3369,note_on,0,0,1,,,,,,,,,0,,,66,0
3369,note_on,9,0,1,,,,,,,,,0,,,75,0
3450,note_on,0,0,1,,,,,,,,,0,,,73,36
3450,note_on,81,0,1,,,,,,,,,0,,,64,36
3454,note_on,0,0,1,,,,,,,,,0,,,64,0
3454,note_on,4,0,1,,,,,,,,,0,,,73,0
3480,note_on,0,0,3,,,,,,,,,2,,,59,36
3480,note_on,120,0,3,,,,,,,,,2,,,58,0
3480,control_change,0,0,3,,,,,,,,,2,64,0,,
3480,note_on,0,0,1,,,,,,,,,0,,,71,36
3480,note_on,960,0,4,,,,,,,,,3,,,54,0
3480,control_change,26,0,1,,,,,,,,,0,64,0,,
3480,note_on,0,0,1,,,,,,,,,0,,,63,36
3600,note_on,0,0,3,,,,,,,,,2,,,47,36
3600,note_on,120,0,3,,,,,,,,,2,,,59,0
3600,note_on,120,0,1,,,,,,,,,0,,,71,0
3600,note_on,0,0,1,,,,,,,,,0,,,59,49
3600,note_on,0,0,1,,,,,,,,,0,,,63,0
3609,note_on,9,0,3,,,,,,,,,2,,,47,0
3609,note_on,9,0,1,,,,,,,,,0,,,59,0
3690,note_on,81,0,3,,,,,,,,,2,,,51,36
3690,note_on,81,0,1,,,,,,,,,0,,,63,49
3694,note_on,4,0,1,,,,,,,,,0,,,63,0
3694,note_on,4,0,3,,,,,,,,,2,,,51,0
3720,note_on,26,0,3,,,,,,,,,2,,,54,36
3720,note_on,26,0,1,,,,,,,,,0,,,66,49
3840,note_on,120,0,3,,,,,,,,,2,,,54,0
3840,note_on,120,0,1,,,,,,,,,0,,,66,0
3840,note_on,0,0,1,,,,,,,,,0,,,59,62
3840,note_on,0,0,3,,,,,,,,,2,,,47,49
3849,note_on,9,0,1,,,,,,,,,0,,,59,0
3849,note_on,9,0,3,,,,,,,,,2,,,47,0
3930,note_on,81,0,3,,,,,,,,,2,,,51,49
3930,note_on,81,0,1,,,,,,,,,0,,,63,62
3934,note_on,4,0,3,,,,,,,,,2,,,51,0
3934,note_on,4,0,1,,,,,,,,,0,,,63,0
3960,control_change,26,0,1,,,,,,,,,0,64,127,,
3960,note_on,0,0,3,,,,,,,,,2,,,56,49
3960,control_change,26,0,3,,,,,,,,,2,64,127,,
3960,note_on,0,0,1,,,,,,,,,0,,,68,62
4080,note_on,0,0,3,,,,,,,,,2,,,47,62
4080,note_on,120,0,3,,,,,,,,,2,,,56,0
4080,note_on,120,0,1,,,,,,,,,0,,,68,0
4080,note_on,0,0,1,,,,,,,,,0,,,59,75
4089,note_on,9,0,3,,,,,,,,,2,,,47,0
4089,note_on,9,0,1,,,,,,,,,0,,,59,0
4170,note_on,81,0,3,,,,,,,,,2,,,51,62
4170,note_on,81,0,1,,,,,,,,,0,,,63,75
4174,note_on,4,0,1,,,,,,,,,0,,,63,0
4174,note_on,4,0,3,,,,,,,,,2,,,51,0
4200,note_on,26,0,1,,,,,,,,,0,,,69,75
4200,note_on,26,0,3,,,,,,,,,2,,,57,62
4320,note_on,0,0,1,,,,,,,,,0,,,59,88
4320,note_on,120,0,1,,,,,,,,,0,,,69,0
4320,note_on,0,0,3,,,,,,,,,2,,,47,75
4320,note_on,120,0,3,,,,,,,,,2,,,57,0
4329,note_on,9,0,1,,,,,,,,,0,,,59,0
4329,note_on,9,0,3,,,,,,,,,2,,,47,0
4410,note_on,81,0,1,,,,,,,,,0,,,63,88
4410,note_on,81,0,3,,,,,,,,,2,,,51,75
4414,note_on,4,0,3,,,,,,,,,2,,,51,0
4414,note_on,4,0,1,,,,,,,,,0,,,63,0
4440,note_on,26,0,3,,,,,,,,,2,,,60,75
4440,note_on,26,0,1,,,,,,,,,0,,,72,88
4560,control_change,0,0,3,,,,,,,,,2,64,0,,
4560,control_change,0,0,1,,,,,,,,,0,64,0,,
4560,note_on,120,0,1,,,,,,,,,0,,,72,0
4560,note_on,120,0,3,,,,,,,,,2,,,60,0
4800,note_on,0,0,1,,,,,,,,,0,,,84,123
4800,note_on,0,0,1,,,,,,,,,0,,,88,127
4800,control_change,240,0,3,,,,,,,,,2,64,127,,
4800,note_on,0,0,3,,,,,,,,,2,,,36,106
4800,note_on,0,0,3,,,,,,,,,2,,,48,114
4800,note_on,0,0,1,,,,,,,,,0,,,79,119
4800,note_on,0,0,1,,,,,,,,,0,,,76,115
4800,control_change,240,0,1,,,,,,,,,0,64,127,,
4890,note_on,90,0,3,,,,,,,,,2,,,48,0
4890,note_on,0,0,3,,,,,,,,,2,,,36,0
4890,note_on,0,0,3,,,,,,,,,2,,,40,88
4890,note_on,0,0,1,,,,,,,,,0,,,84,0
4890,note_on,0,0,3,,,,,,,,,2,,,52,88
4890,note_on,0,0,1,,,,,,,,,0,,,79,0
4890,note_on,90,0,1,,,,,,,,,0,,,88,0
4890,note_on,0,0,1,,,,,,,,,0,,,76,0
4890,note_on,0,0,1,,,,,,,,,0,,,88,101
4890,note_on,0,0,1,,,,,,,,,0,,,84,101
4890,note_on,0,0,1,,,,,,,,,0,,,79,101
4890,note_on,0,0,1,,,,,,,,,0,,,76,101
4920,control_change,0,0,3,,,,,,,,,2,64,0,,
4920,note_on,30,0,3,,,,,,,,,2,,,52,0
4920,note_on,0,0,3,,,,,,,,,2,,,40,0
4920,note_on,0,0,3,,,,,,,,,2,,,55,88
4920,note_on,0,0,1,,,,,,,,,0,,,84,101
4920,note_on,0,0,1,,,,,,,,,0,,,79,101
4920,note_on,0,0,3,,,,,,,,,2,,,43,88
4920,note_on,0,0,1,,,,,,,,,0,,,76,101
4920,note_on,0,0,1,,,,,,,,,0,,,84,0
4920,note_on,0,0,1,,,,,,,,,0,,,79,0
4920,note_on,0,0,1,,,,,,,,,0,,,76,0
4920,note_on,30,0,1,,,,,,,,,0,,,88,0
4920,control_change,0,0,1,,,,,,,,,0,64,0,,
4920,note_on,0,0,1,,,,,,,,,0,,,88,101
5280,note_on,0,0,1,,,,,,,,,0,,,76,0
5280,note_on,0,0,1,,,,,,,,,0,,,79,0
5280,note_on,0,0,1,,,,,,,,,0,,,84,0
5280,note_on,0,0,1,,,,,,,,,0,,,74,115
5280,note_on,0,0,1,,,,,,,,,0,,,79,119
5280,note_on,0,0,1,,,,,,,,,0,,,83,123
5280,note_on,0,0,1,,,,,,,,,0,,,86,127
5280,control_change,0,0,1,,,,,,,,,0,64,127,,
5280,note_on,360,0,1,,,,,,,,,0,,,88,0
5280,note_on,0,0,3,,,,,,,,,2,,,43,0
5280,control_change,0,0,3,,,,,,,,,2,64,127,,
5280,note_on,0,0,3,,,,,,,,,2,,,31,106
5280,note_on,0,0,3,,,,,,,,,2,,,43,114
5280,note_on,360,0,3,,,,,,,,,2,,,55,0
5370,note_on,0,0,1,,,,,,,,,0,,,86,101
5370,note_on,0,0,1,,,,,,,,,0,,,74,101
5370,note_on,0,0,1,,,,,,,,,0,,,83,0
5370,note_on,0,0,1,,,,,,,,,0,,,79,0
5370,note_on,0,0,1,,,,,,,,,0,,,74,0
5370,note_on,90,0,1,,,,,,,,,0,,,86,0
5370,note_on,0,0,3,,,,,,,,,2,,,47,88
5370,note_on,0,0,3,,,,,,,,,2,,,35,88
5370,note_on,0,0,3,,,,,,,,,2,,,31,0
5370,note_on,90,0,3,,,,,,,,,2,,,43,0
5370,note_on,0,0,1,,,,,,,,,0,,,79,101
5370,note_on,0,0,1,,,,,,,,,0,,,83,101
5400,note_on,30,0,1,,,,,,,,,0,,,86,0
5400,note_on,0,0,1,,,,,,,,,0,,,74,0
5400,note_on,0,0,3,,,,,,,,,2,,,50,88
5400,note_on,0,0,3,,,,,,,,,2,,,38,88
5400,control_change,0,0,3,,,,,,,,,2,64,0,,
5400,note_on,0,0,1,,,,,,,,,0,,,79,0
5400,note_on,0,0,1,,,,,,,,,0,,,83,0
5400,note_on,0,0,1,,,,,,,,,0,,,79,101
5400,note_on,0,0,3,,,,,,,,,2,,,35,0
5400,note_on,0,0,1,,,,,,,,,0,,,74,101
5400,control_change,0,0,1,,,,,,,,,0,64,0,,
5400,note_on,30,0,3,,,,,,,,,2,,,47,0
5400,note_on,0,0,1,,,,,,,,,0,,,86,101
5400,note_on,0,0,1,,,,,,,,,0,,,83,101
5760,note_on,360,0,1,,,,,,,,,0,,,86,0
5760,note_on,0,0,3,,,,,,,,,2,,,50,36
5760,control_change,0,0,3,,,,,,,,,2,64,127,,
5760,note_on,0,0,3,,,,,,,,,2,,,38,0
5760,note_on,360,0,3,,,,,,,,,2,,,50,0
5760,note_on,0,0,1,,,,,,,,,0,,,74,0
5760,note_on,0,0,1,,,,,,,,,0,,,79,0
5760,note_on,0,0,1,,,,,,,,,0,,,83,0
5760,note_on,0,0,1,,,,,,,,,0,,,84,36
5760,control_change,0,0,1,,,,,,,,,0,64,127,,
5769,note_on,9,0,3,,,,,,,,,2,,,50,0
5769,note_on,9,0,1,,,,,,,,,0,,,84,0
5850,note_on,81,0,3,,,,,,,,,2,,,54,36
5850,note_on,81,0,1,,,,,,,,,0,,,81,36
5854,note_on,4,0,1,,,,,,,,,0,,,81,0
5854,note_on,4,0,3,,,,,,,,,2,,,54,0
5880,note_on,0,0,3,,,,,,,,,2,,,60,36
5880,note_on,0,0,1,,,,,,,,,0,,,75,36
5880,control_change,26,0,1,,,,,,,,,0,64,0,,
5880,control_change,26,0,3,,,,,,,,,2,64,0,,
5892,note_on,12,0,1,,,,,,,,,0,,,75,0
5892,note_on,12,0,3,,,,,,,,,2,,,60,0
6000,note_on,0,0,1,,,,,,,,,0,,,83,36
6000,control_change,108,0,1,,,,,,,,,0,64,127,,
6000,note_on,0,0,3,,,,,,,,,2,,,50,36
6000,control_change,108,0,3,,,,,,,,,2,64,127,,
6009,note_on,9,0,3,,,,,,,,,2,,,50,0
6009,note_on,9,0,1,,,,,,,,,0,,,83,0
6060,set_tempo,5940,1,0,,,,,,512821,,,,,,,
6090,note_on,81,0,3,,,,,,,,,2,,,55,36
6090,note_on,81,0,1,,,,,,,,,0,,,79,36
6094,note_on,4,0,3,,,,,,,,,2,,,55,0
6094,note_on,4,0,1,,,,,,,,,0,,,79,0
6120,control_change,26,0,3,,,,,,,,,2,64,0,,
6120,note_on,0,0,3,,,,,,,,,2,,,59,36
6120,set_tempo,60,1,0,,,,,,526316,,,,,,,
6120,control_change,26,0,1,,,,,,,,,0,64,0,,
6120,note_on,0,0,1,,,,,,,,,0,,,74,36
6132,note_on,12,0,3,,,,,,,,,2,,,59,0
6132,note_on,12,0,1,,,,,,,,,0,,,74,0
6180,set_tempo,60,1,0,,,,,,540541,,,,,,,
6240,note_on,0,0,1,,,,,,,,,0,,,81,36
6240,note_on,0,0,3,,,,,,,,,2,,,50,36
6240,control_change,108,0,3,,,,,,,,,2,64,127,,
6240,set_tempo,60,1,0,,,,,,560748,,,,,,,
6240,control_change,108,0,1,,,,,,,,,0,64,127,,
6249,note_on,9,0,1,,,,,,,,,0,,,81,0
6249,note_on,9,0,3,,,,,,,,,2,,,50,0
6300,set_tempo,60,1,0,,,,,,576923,,,,,,,
6330,note_on,81,0,3,,,,,,,,,2,,,57,36
6330,note_on,81,0,1,,,,,,,,,0,,,78,36
6334,note_on,4,0,3,,,,,,,,,2,,,57,0
6334,note_on,4,0,1,,,,,,,,,0,,,78,0
6360,note_on,26,0,3,,,,,,,,,2,,,63,62
6360,note_on,0,0,1,,,,,,,,,0,,,66,54
6360,control_change,26,0,1,,,,,,,,,0,64,0,,
6360,time_signature,60,1,0,5,4,24,8,,,,,,,,,
6360,set_tempo,0,1,0,,,,,,594059,,,,,,,
6360,note_on,0,0,1,,,,,,,,,0,,,72,62
6420,set_tempo,60,1,0,,,,,,612245,,,,,,,
6480,set_tempo,60,1,0,,,,,,638298,,,,,,,
6600,note_on,240,0,3,,,,,,,,,2,,,63,0
6600,note_on,0,0,3,,,,,,,,,2,,,62,36
6600,control_change,0,0,3,,,,,,,,,2,64,0,,
6720,note_on,360,0,1,,,,,,,,,0,,,72,0
6720,note_on,0,0,1,,,,,,,,,0,,,66,0
6720,note_on,120,0,3,,,,,,,,,2,,,62,0
6960,set_tempo,0,1,0,,,,,,500000,,,,,,,
6960,key_signature,0,1,0,,,,,G,,,,,,,,
6960,time_signature,480,1,0,4,4,24,8,,,,,,,,,
6960,note_on,0,0,3,,,,,,,,,2,,,43,36
6960,control_change,240,0,3,,,,,,,,,2,64,127,,
6999,note_on,39,0,3,,,,,,,,,2,,,55,36
7000,note_on,1,0,3,,,,,,,,,2,,,43,0
7039,note_on,39,0,3,,,,,,,,,2,,,55,0
7040,note_on,1,0,3,,,,,,,,,2,,,43,36
7080,note_on,40,0,3,,,,,,,,,2,,,43,0
7080,note_on,0,0,3,,,,,,,,,2,,,47,36
7119,note_on,39,0,3,,,,,,,,,2,,,55,36
7120,note_on,1,0,3,,,,,,,,,2,,,47,0
7159,note_on,39,0,3,,,,,,,,,2,,,55,0
7160,note_on,1,0,3,,,,,,,,,2,,,47,36
7200,note_on,40,0,3,,,,,,,,,2,,,47,0
7200,note_on,0,0,3,,,,,,,,,2,,,50,36
7239,note_on,39,0,3,,,,,,,,,2,,,55,36
7240,note_on,1,0,3,,,,,,,,,2,,,50,0
7279,note_on,39,0,3,,,,,,,,,2,,,55,0
7280,note_on,1,0,3,,,,,,,,,2,,,50,36
7320,note_on,600,0,1,,,,,,,,,0,,,58,67
7320,note_on,0,0,1,,,,,,,,,0,,,70,75
7320,note_on,40,0,3,,,,,,,,,2,,,50,0
7320,control_change,0,0,3,,,,,,,,,2,64,0,,
7320,note_on,0,0,3,,,,,,,,,2,,,51,36
7359,note_on,39,0,3,,,,,,,,,2,,,55,36
7360,note_on,1,0,3,,,,,,,,,2,,,51,0
7399,note_on,39,0,3,,,,,,,,,2,,,55,0
7400,note_on,1,0,3,,,,,,,,,2,,,51,36
7410,note_on,90,0,1,,,,,,,,,0,,,70,0
7410,note_on,0,0,1,,,,,,,,,0,,,58,49
7410,note_on,0,0,1,,,,,,,,,0,,,58,0
7410,note_on,0,0,1,,,,,,,,,0,,,70,49
7440,control_change,0,0,1,,,,,,,,,0,64,127,,
7440,note_on,0,0,1,,,,,,,,,0,,,71,49
7440,note_on,0,0,1,,,,,,,,,0,,,59,49
7440,note_on,0,0,1,,,,,,,,,0,,,58,0
7440,note_on,30,0,1,,,,,,,,,0,,,70,0
7440,control_change,0,0,3,,,,,,,,,2,64,127,,
7440,note_on,0,0,3,,,,,,,,,2,,,50,36
7440,note_on,40,0,3,,,,,,,,,2,,,51,0
7479,note_on,39,0,3,,,,,,,,,2,,,55,36
7480,note_on,1,0,3,,,,,,,,,2,,,50,0
7519,note_on,39,0,3,,,,,,,,,2,,,55,0
7520,note_on,1,0,3,,,,,,,,,2,,,50,36
7560,note_on,0,0,3,,,,,,,,,2,,,47,36
7560,note_on,40,0,3,,,,,,,,,2,,,50,0
7560,note_on,0,0,1,,,,,,,,,0,,,62,49
7560,note_on,120,0,1,,,,,,,,,0,,,71,0
7560,note_on,0,0,1,,,,,,,,,0,,,59,0
7560,note_on,0,0,1,,,,,,,,,0,,,74,49
7599,note_on,39,0,3,,,,,,,,,2,,,55,36
7600,note_on,1,0,3,,,,,,,,,2,,,47,0
7639,note_on,39,0,3,,,,,,,,,2,,,55,0
7640,note_on,1,0,3,,,,,,,,,2,,,47,36
7680,note_on,120,0,1,,,,,,,,,0,,,74,0
7680,note_on,0,0,1,,,,,,,,,0,,,62,0
7680,note_on,0,0,1,,,,,,,,,0,,,67,49
7680,note_on,0,0,1,,,,,,,,,0,,,79,49
7680,note_on,0,0,3,,,,,,,,,2,,,43,36
7680,note_on,40,0,3,,,,,,,,,2,,,47,0
7719,note_on,39,0,3,,,,,,,,,2,,,55,36
7720,note_on,1,0,3,,,,,,,,,2,,,43,0
7759,note_on,39,0,3,,,,,,,,,2,,,55,0
7760,note_on,1,0,3,,,,,,,,,2,,,43,36
7800,note_on,0,0,1,,,,,,,,,0,,,75,75
7800,note_on,40,0,3,,,,,,,,,2,,,43,0
7800,control_change,0,0,3,,,,,,,,,2,64,0,,
7800,control_change,0,0,1,,,,,,,,,0,64,0,,
7800,note_on,0,0,1,,,,,,,,,0,,,63,67
7800,note_on,0,0,1,,,,,,,,,0,,,67,0
7800,note_on,120,0,1,,,,,,,,,0,,,79,0
7800,note_on,0,0,3,,,,,,,,,2,,,46,36
7839,note_on,39,0,3,,,,,,,,,2,,,55,36
7840,note_on,1,0,3,,,,,,,,,2,,,46,0
7879,note_on,39,0,3,,,,,,,,,2,,,55,0
7880,note_on,1,0,3,,,,,,,,,2,,,46,36
7890,note_on,0,0,1,,,,,,,,,0,,,63,49
7890,note_on,0,0,1,,,,,,,,,0,,,63,0
7890,note_on,90,0,1,,,,,,,,,0,,,75,0
7890,note_on,0,0,1,,,,,,,,,0,,,75,49
7920,note_on,30,0,1,,,,,,,,,0,,,75,0
7920,note_on,40,0,3,,,,,,,,,2,,,46,0
7920,control_change,0,0,3,,,,,,,,,2,64,127,,
7920,note_on,0,0,3,,,,,,,,,2,,,47,36
7920,note_on,0,0,1,,,,,,,,,0,,,63,0
7920,control_change,0,0,1,,,,,,,,,0,64,127,,
7920,note_on,0,0,1,,,,,,,,,0,,,74,49
7920,note_on,0,0,1,,,,,,,,,0,,,62,49
7959,note_on,39,0,3,,,,,,,,,2,,,55,36
7960,note_on,1,0,3,,,,,,,,,2,,,47,0
7999,note_on,39,0,3,,,,,,,,,2,,,55,0
8000,note_on,1,0,3,,,,,,,,,2,,,47,36
8040,note_on,0,0,3,,,,,,,,,2,,,50,36
8040,note_on,40,0,3,,,,,,,,,2,,,47,0
8040,note_on,0,0,1,,,,,,,,,0,,,62,0
8040,note_on,0,0,1,,,,,,,,,0,,,71,49
8040,note_on,120,0,1,,,,,,,,,0,,,74,0
8079,note_on,39,0,3,,,,,,,,,2,,,55,36
8080,note_on,1,0,3,,,,,,,,,2,,,50,0
8119,note_on,39,0,3,,,,,,,,,2,,,55,0
8120,note_on,1,0,3,,,,,,,,,2,,,50,36
8160,note_on,40,0,3,,,,,,,,,2,,,50,0
8160,note_on,0,0,3,,,,,,,,,2,,,55,36
8160,note_on,120,0,1,,,,,,,,,0,,,71,0
8160,note_on,0,0,1,,,,,,,,,0,,,67,49
8199,note_on,39,0,3,,,,,,,,,2,,,43,36
8200,note_on,1,0,3,,,,,,,,,2,,,55,0
8239,note_on,39,0,3,,,,,,,,,2,,,43,0
8240,note_on,1,0,3,,,,,,,,,2,,,55,36
8280,note_on,0,0,1,,,,,,,,,0,,,58,67
8280,control_change,0,0,1,,,,,,,,,0,64,0,,
8280,note_on,120,0,1,,,,,,,,,0,,,67,0
8280,control_change,0,0,3,,,,,,,,,2,64,0,,
8280,note_on,0,0,1,,,,,,,,,0,,,70,75
8280,note_on,40,0,3,,,,,,,,,2,,,55,0
8280,note_on,0,0,3,,,,,,,,,2,,,51,36
8319,note_on,39,0,3,,,,,,,,,2,,,55,36
8320,note_on,1,0,3,,,,,,,,,2,,,51,0
8359,note_on,39,0,3,,,,,,,,,2,,,55,0
8360,note_on,1,0,3,,,,,,,,,2,,,51,36
8370,note_on,0,0,1,,,,,,,,,0,,,70,49
8370,note_on,90,0,1,,,,,,,,,0,,,70,0
8370,note_on,0,0,1,,,,,,,,,0,,,58,0
8370,note_on,0,0,1,,,,,,,,,0,,,58,49
8400,note_on,0,0,3,,,,,,,,,2,,,50,36
8400,note_on,0,0,1,,,,,,,,,0,,,58,0
8400,note_on,0,0,1,,,,,,,,,0,,,59,49
8400,note_on,0,0,1,,,,,,,,,0,,,71,49
8400,note_on,30,0,1,,,,,,,,,0,,,70,0
8400,control_change,0,0,3,,,,,,,,,2,64,127,,
8400,note_on,40,0,3,,,,,,,,,2,,,51,0
8400,control_change,0,0,1,,,,,,,,,0,64,127,,
8439,note_on,39,0,3,,,,,,,,,2,,,55,36
8440,note_on,1,0,3,,,,,,,,,2,,,50,0
8479,note_on,39,0,3,,,,,,,,,2,,,55,0
8480,note_on,1,0,3,,,,,,,,,2,,,50,36
8520,note_on,0,0,3,,,,,,,,,2,,,47,36
8520,note_on,40,0,3,,,,,,,,,2,,,50,0
8520,note_on,120,0,1,,,,,,,,,0,,,71,0
8520,note_on,0,0,1,,,,,,,,,0,,,62,49
8520,note_on,0,0,1,,,,,,,,,0,,,59,0
8520,note_on,0,0,1,,,,,,,,,0,,,74,49
8559,note_on,39,0,3,,,,,,,,,2,,,55,36
8560,note_on,1,0,3,,,,,,,,,2,,,47,0
8599,note_on,39,0,3,,,,,,,,,2,,,55,0
8600,note_on,1,0,3,,,,,,,,,2,,,47,36
8640,note_on,40,0,3,,,,,,,,,2,,,47,0
8640,note_on,0,0,3,,,,,,,,,2,,,43,36
8640,note_on,0,0,1,,,,,,,,,0,,,67,49
8640,note_on,0,0,1,,,,,,,,,0,,,79,49
8640,note_on,0,0,1,,,,,,,,,0,,,62,0
8640,note_on,120,0,1,,,,,,,,,0,,,74,0
8679,note_on,39,0,3,,,,,,,,,2,,,55,36
8680,note_on,1,0,3,,,,,,,,,2,,,43,0
8719,note_on,39,0,3,,,,,,,,,2,,,55,0
8720,note_on,1,0,3,,,,,,,,,2,,,43,36
8760,note_on,0,0,3,,,,,,,,,2,,,46,36
8760,control_change,0,0,3,,,,,,,,,2,64,0,,
8760,note_on,40,0,3,,,,,,,,,2,,,43,0
8760,note_on,0,0,1,,,,,,,,,0,,,67,0
8760,note_on,0,0,1,,,,,,,,,0,,,75,67
8760,note_on,120,0,1,,,,,,,,,0,,,79,0
8760,control_change,0,0,1,,,,,,,,,0,64,0,,
8760,note_on,0,0,1,,,,,,,,,0,,,87,75
8799,note_on,39,0,3,,,,,,,,,2,,,55,36
8800,note_on,1,0,3,,,,,,,,,2,,,46,0
8839,note_on,39,0,3,,,,,,,,,2,,,55,0
8840,note_on,1,0,3,,,,,,,,,2,,,46,36
8850,note_on,0,0,1,,,,,,,,,0,,,87,49
8850,note_on,90,0,1,,,,,,,,,0,,,87,0
8850,note_on,0,0,1,,,,,,,,,0,,,75,0
8850,note_on,0,0,1,,,,,,,,,0,,,75,49
8880,note_on,0,0,1,,,,,,,,,0,,,74,49
8880,note_on,30,0,1,,,,,,,,,0,,,87,0
8880,note_on,0,0,1,,,,,,,,,0,,,86,49
8880,control_change,0,0,1,,,,,,,,,0,64,127,,
8880,note_on,40,0,3,,,,,,,,,2,,,46,0
8880,control_change,0,0,3,,,,,,,,,2,64,127,,
8880,note_on,0,0,3,,,,,,,,,2,,,47,36
8880,note_on,0,0,1,,,,,,,,,0,,,75,0
8919,note_on,39,0,3,,,,,,,,,2,,,55,36
8920,note_on,1,0,3,,,,,,,,,2,,,47,0
8959,note_on,39,0,3,,,,,,,,,2,,,55,0
8960,note_on,1,0,3,,,,,,,,,2,,,47,36
9000,note_on,40,0,3,,,,,,,,,2,,,47,0
9000,note_on,0,0,1,,,,,,,,,0,,,74,0
9000,note_on,0,0,1,,,,,,,,,0,,,83,49
9000,note_on,0,0,1,,,,,,,,,0,,,71,49
9000,note_on,0,0,3,,,,,,,,,2,,,50,36
9000,note_on,120,0,1,,,,,,,,,0,,,86,0
9039,note_on,39,0,3,,,,,,,,,2,,,55,36
9040,note_on,1,0,3,,,,,,,,,2,,,50,0
9079,note_on,39,0,3,,,,,,,,,2,,,55,0
9080,note_on,1,0,3,,,,,,,,,2,,,50,36
9120,note_on,120,0,1,,,,,,,,,0,,,83,0
9120,note_on,0,0,1,,,,,,,,,0,,,79,49
9120,note_on,0,0,1,,,,,,,,,0,,,67,49
9120,note_on,0,0,1,,,,,,,,,0,,,71,0
9120,note_on,0,0,3,,,,,,,,,2,,,55,36
9120,note_on,40,0,3,,,,,,,,,2,,,50,0
9159,note_on,39,0,3,,,,,,,,,2,,,43,36
9160,note_on,1,0,3,,,,,,,,,2,,,55,0
9199,note_on,39,0,3,,,,,,,,,2,,,43,0
9200,note_on,1,0,3,,,,,,,,,2,,,55,36
9240,note_on,0,0,1,,,,,,,,,0,,,67,0
9240,note_on,0,0,3,,,,,,,,,2,,,48,36
9240,control_change,0,0,3,,,,,,,,,2,64,0,,
9240,note_on,40,0,3,,,,,,,,,2,,,55,0
9240,control_change,0,0,1,,,,,,,,,0,64,0,,
9240,note_on,120,0,1,,,,,,,,,0,,,79,0
9240,note_on,0,0,1,,,,,,,,,0,,,81,75
9240,note_on,0,0,1,,,,,,,,,0,,,69,67
9279,note_on,39,0,3,,,,,,,,,2,,,57,36
9280,note_on,1,0,3,,,,,,,,,2,,,48,0
9319,note_on,39,0,3,,,,,,,,,2,,,57,0
9320,note_on,1,0,3,,,,,,,,,2,,,48,36
9330,note_on,90,0,1,,,,,,,,,0,,,81,0
9330,note_on,0,0,1,,,,,,,,,0,,,69,0
9330,note_on,0,0,1,,,,,,,,,0,,,69,49
9330,note_on,0,0,1,,,,,,,,,0,,,81,49
9360,note_on,0,0,1,,,,,,,,,0,,,69,0
9360,note_on,40,0,3,,,,,,,,,2,,,48,0
9360,control_change,0,0,3,,,,,,,,,2,64,127,,
9360,note_on,0,0,3,,,,,,,,,2,,,49,49
9360,note_on,0,0,1,,,,,,,,,0,,,67,62
9360,note_on,30,0,1,,,,,,,,,0,,,81,0
9360,note_on,0,0,1,,,,,,,,,0,,,79,62
9360,control_change,0,0,1,,,,,,,,,0,64,127,,
9399,note_on,39,0,3,,,,,,,,,2,,,57,49
9400,note_on,1,0,3,,,,,,,,,2,,,49,0
9439,note_on,39,0,3,,,,,,,,,2,,,57,0
9440,note_on,1,0,3,,,,,,,,,2,,,49,49
9480,note_on,40,0,3,,,,,,,,,2,,,49,0
9480,note_on,0,0,1,,,,,,,,,0,,,67,0
9480,note_on,0,0,1,,,,,,,,,0,,,66,62
9480,note_on,0,0,3,,,,,,,,,2,,,50,49
9480,note_on,120,0,1,,,,,,,,,0,,,79,0
9480,note_on,0,0,1,,,,,,,,,0,,,78,62
9519,note_on,39,0,3,,,,,,,,,2,,,57,49
9520,note_on,1,0,3,,,,,,,,,2,,,50,0
9559,note_on,39,0,3,,,,,,,,,2,,,57,0
9560,note_on,1,0,3,,,,,,,,,2,,,50,49
9600,note_on,0,0,1,,,,,,,,,0,,,84,62
9600,note_on,0,0,1,,,,,,,,,0,,,72,62
9600,note_on,0,0,1,,,,,,,,,0,,,66,0
9600,note_on,120,0,1,,,,,,,,,0,,,78,0
9600,note_on,40,0,3,,,,,,,,,2,,,50,0
9600,note_on,0,0,3,,,,,,,,,2,,,51,49
9639,note_on,39,0,3,,,,,,,,,2,,,57,49
9640,note_on,1,0,3,,,,,,,,,2,,,51,0
9679,note_on,39,0,3,,,,,,,,,2,,,57,0
9680,note_on,1,0,3,,,,,,,,,2,,,51,49
9720,note_on,40,0,3,,,,,,,,,2,,,51,0
9720,control_change,0,0,3,,,,,,,,,2,64,0,,
9720,note_on,0,0,1,,,,,,,,,0,,,83,88
9720,control_change,0,0,1,,,,,,,,,0,64,0,,
9720,note_on,120,0,1,,,,,,,,,0,,,84,0
9720,note_on,0,0,1,,,,,,,,,0,,,72,0
9720,note_on,0,0,1,,,,,,,,,0,,,71,80
9720,note_on,0,0,3,,,,,,,,,2,,,50,49
9759,note_on,39,0,3,,,,,,,,,2,,,59,49
9760,note_on,1,0,3,,,,,,,,,2,,,50,0
9799,note_on,39,0,3,,,,,,,,,2,,,59,0
9800,note_on,1,0,3,,,,,,,,,2,,,50,49
9810,note_on,0,0,1,,,,,,,,,0,,,83,62
9810,note_on,0,0,1,,,,,,,,,0,,,71,62
9810,note_on,0,0,1,,,,,,,,,0,,,71,0
9810,note_on,90,0,1,,,,,,,,,0,,,83,0
9840,control_change,0,0,3,,,,,,,,,2,64,127,,
9840,note_on,0,0,1,,,,,,,,,0,,,69,62
9840,note_on,0,0,1,,,,,,,,,0,,,81,62
9840,note_on,40,0,3,,,,,,,,,2,,,50,0
9840,note_on,0,0,1,,,,,,,,,0,,,71,0
9840,note_on,30,0,1,,,,,,,,,0,,,83,0
9840,note_on,0,0,3,,,,,,,,,2,,,51,49
9879,note_on,39,0,3,,,,,,,,,2,,,59,49
9880,note_on,1,0,3,,,,,,,,,2,,,51,0
9919,note_on,39,0,3,,,,,,,,,2,,,59,0
9920,note_on,1,0,3,,,,,,,,,2,,,51,49
9960,note_on,120,0,1,,,,,,,,,0,,,81,0
9960,note_on,0,0,1,,,,,,,,,0,,,69,0
9960,note_on,0,0,1,,,,,,,,,0,,,68,62
9960,note_on,0,0,1,,,,,,,,,0,,,80,62
9960,control_change,0,0,3,,,,,,,,,2,64,0,,
9960,note_on,0,0,3,,,,,,,,,2,,,52,49
9960,note_on,40,0,3,,,,,,,,,2,,,51,0
9999,note_on,39,0,3,,,,,,,,,2,,,59,49
10000,note_on,1,0,3,,,,,,,,,2,,,52,0
10039,note_on,39,0,3,,,,,,,,,2,,,59,0
10040,note_on,1,0,3,,,,,,,,,2,,,52,49
10080,note_on,0,0,1,,,,,,,,,0,,,86,62
10080,note_on,0,0,1,,,,,,,,,0,,,74,62
10080,note_on,0,0,1,,,,,,,,,0,,,68,0
10080,note_on,120,0,1,,,,,,,,,0,,,80,0
10080,note_on,0,0,3,,,,,,,,,2,,,53,49
10080,note_on,40,0,3,,,,,,,,,2,,,52,0
10119,note_on,39,0,3,,,,,,,,,2,,,59,49
10120,note_on,1,0,3,,,,,,,,,2,,,53,0
10159,note_on,39,0,3,,,,,,,,,2,,,59,0
10160,note_on,1,0,3,,,,,,,,,2,,,53,49
10200,note_on,0,0,1,,,,,,,,,0,,,72,88
10200,note_on,0,0,1,,,,,,,,,0,,,84,88
10200,control_change,0,0,1,,,,,,,,,0,64,127,,
10200,note_on,0,0,1,,,,,,,,,0,,,74,0
10200,note_on,120,0,1,,,,,,,,,0,,,86,0
10200,note_on,40,0,3,,,,,,,,,2,,,53,0
10200,control_change,0,0,3,,,,,,,,,2,64,127,,
10200,note_on,0,0,3,,,,,,,,,2,,,52,75
10239,note_on,39,0,3,,,,,,,,,2,,,60,75
10240,note_on,1,0,3,,,,,,,,,2,,,52,0
10279,note_on,39,0,3,,,,,,,,,2,,,60,0
10280,note_on,1,0,3,,,,,,,,,2,,,56,75
10290,note_on,0,0,1,,,,,,,,,0,,,84,88
10290,note_on,0,0,1,,,,,,,,,0,,,72,0
10290,note_on,90,0,1,,,,,,,,,0,,,84,0
10290,note_on,0,0,1,,,,,,,,,0,,,72,88
10320,note_on,30,0,1,,,,,,,,,0,,,84,0
10320,note_on,0,0,1,,,,,,,,,0,,,72,0
10320,note_on,0,0,1,,,,,,,,,0,,,83,88
10320,control_change,0,0,1,,,,,,,,,0,64,0,,
10320,note_on,0,0,3,,,,,,,,,2,,,50,75
10320,control_change,0,0,3,,,,,,,,,2,64,0,,
10320,note_on,40,0,3,,,,,,,,,2,,,56,0
10320,note_on,0,0,1,,,,,,,,,0,,,71,88
10359,note_on,39,0,3,,,,,,,,,2,,,56,75
10360,note_on,1,0,3,,,,,,,,,2,,,50,0
10399,note_on,39,0,3,,,,,,,,,2,,,56,0
10400,note_on,1,0,3,,,,,,,,,2,,,53,75
10440,note_on,0,0,3,,,,,,,,,2,,,48,75
10440,note_on,40,0,3,,,,,,,,,2,,,53,0
10440,note_on,0,0,1,,,,,,,,,0,,,81,88
10440,note_on,0,0,1,,,,,,,,,0,,,71,0
10440,note_on,120,0,1,,,,,,,,,0,,,83,0
10440,control_change,0,0,3,,,,,,,,,2,64,127,,
10440,note_on,0,0,1,,,,,,,,,0,,,69,88
10479,note_on,39,0,3,,,,,,,,,2,,,57,75
10480,note_on,1,0,3,,,,,,,,,2,,,48,0
10519,note_on,39,0,3,,,,,,,,,2,,,57,0
10520,note_on,1,0,3,,,,,,,,,2,,,52,75
10560,note_on,0,0,1,,,,,,,,,0,,,88,88
10560,note_on,0,0,1,,,,,,,,,0,,,76,88
10560,note_on,120,0,1,,,,,,,,,0,,,81,0
10560,note_on,0,0,1,,,,,,,,,0,,,69,0
10560,note_on,40,0,3,,,,,,,,,2,,,52,0
10560,note_on,0,0,3,,,,,,,,,2,,,45,75
10599,note_on,39,0,3,,,,,,,,,2,,,60,75
10600,note_on,1,0,3,,,,,,,,,2,,,45,0
10639,note_on,39,0,3,,,,,,,,,2,,,60,0
10640,control_change,1,0,3,,,,,,,,,2,64,0,,
10640,note_on,0,0,3,,,,,,,,,2,,,52,75
10680,note_on,40,0,3,,,,,,,,,2,,,52,0
10680,control_change,0,0,1,,,,,,,,,0,64,127,,
10680,note_on,0,0,1,,,,,,,,,0,,,83,88
10680,note_on,0,0,1,,,,,,,,,0,,,71,88
10680,note_on,0,0,3,,,,,,,,,2,,,43,75
10680,control_change,0,0,3,,,,,,,,,2,64,127,,
10680,note_on,120,0,1,,,,,,,,,0,,,88,0
10680,note_on,0,0,1,,,,,,,,,0,,,76,0
10719,note_on,39,0,3,,,,,,,,,2,,,55,75
10720,note_on,1,0,3,,,,,,,,,2,,,43,0
10759,note_on,39,0,3,,,,,,,,,2,,,55,0
10760,note_on,1,0,3,,,,,,,,,2,,,52,75
10770,note_on,90,0,1,,,,,,,,,0,,,83,0
10770,note_on,0,0,1,,,,,,,,,0,,,83,88
10770,note_on,0,0,1,,,,,,,,,0,,,71,88
10770,note_on,0,0,1,,,,,,,,,0,,,71,0
10800,note_on,0,0,1,,,,,,,,,0,,,71,0
10800,note_on,0,0,1,,,,,,,,,0,,,69,88
10800,note_on,0,0,1,,,,,,,,,0,,,81,88
10800,note_on,0,0,3,,,,,,,,,2,,,45,75
10800,note_on,40,0,3,,,,,,,,,2,,,52,0
10800,note_on,30,0,1,,,,,,,,,0,,,83,0
10839,note_on,39,0,3,,,,,,,,,2,,,54,75
10840,note_on,1,0,3,,,,,,,,,2,,,45,0
10879,note_on,39,0,3,,,,,,,,,2,,,54,0
10880,control_change,1,0,3,,,,,,,,,2,64,0,,
10880,note_on,0,0,3,,,,,,,,,2,,,52,75
10920,note_on,0,0,3,,,,,,,,,2,,,47,75
10920,note_on,120,0,1,,,,,,,,,0,,,81,0
10920,control_change,0,0,3,,,,,,,,,2,64,127,,
10920,note_on,0,0,1,,,,,,,,,0,,,67,88
10920,note_on,0,0,1,,,,,,,,,0,,,79,88
10920,control_change,0,0,1,,,,,,,,,0,64,0,,
10920,note_on,0,0,1,,,,,,,,,0,,,69,0
10920,note_on,40,0,3,,,,,,,,,2,,,52,0
10959,note_on,39,0,3,,,,,,,,,2,,,55,75
10960,note_on,1,0,3,,,,,,,,,2,,,47,0
10999,note_on,39,0,3,,,,,,,,,2,,,55,0
11000,note_on,1,0,3,,,,,,,,,2,,,52,75
11040,note_on,0,0,1,,,,,,,,,0,,,88,88
11040,note_on,0,0,3,,,,,,,,,2,,,43,75
11040,note_on,40,0,3,,,,,,,,,2,,,52,0
11040,note_on,0,0,1,,,,,,,,,0,,,76,88
11040,note_on,120,0,1,,,,,,,,,0,,,79,0
11040,note_on,0,0,1,,,,,,,,,0,,,67,0
11079,note_on,39,0,3,,,,,,,,,2,,,55,75
11080,note_on,1,0,3,,,,,,,,,2,,,43,0
11119,note_on,39,0,3,,,,,,,,,2,,,55,0
11120,control_change,1,0,3,,,,,,,,,2,64,0,,
11120,note_on,0,0,3,,,,,,,,,2,,,52,75
11160,note_on,0,0,1,,,,,,,,,0,,,76,0
11160,note_on,0,0,1,,,,,,,,,0,,,67,88
11160,control_change,0,0,1,,,,,,,,,0,64,127,,
11160,note_on,40,0,3,,,,,,,,,2,,,52,0
11160,control_change,0,0,3,,,,,,,,,2,64,127,,
11160,note_on,0,0,3,,,,,,,,,2,,,47,75
11160,note_on,120,0,1,,,,,,,,,0,,,88,0
11160,note_on,0,0,1,,,,,,,,,0,,,79,88
11199,note_on,39,0,3,,,,,,,,,2,,,55,75
11200,note_on,1,0,3,,,,,,,,,2,,,47,0
11239,note_on,39,0,3,,,,,,,,,2,,,55,0
11240,note_on,1,0,3,,,,,,,,,2,,,52,75
11250,note_on,90,0,1,,,,,,,,,0,,,79,0
11250,note_on,0,0,1,,,,,,,,,0,,,67,0
11250,note_on,0,0,1,,,,,,,,,0,,,79,88
11250,note_on,0,0,1,,,,,,,,,0,,,67,88
11280,note_on,0,0,1,,,,,,,,,0,,,67,0
11280,note_on,0,0,1,,,,,,,,,0,,,66,88
11280,note_on,0,0,1,,,,,,,,,0,,,78,88
11280,control_change,0,0,1,,,,,,,,,0,64,0,,
11280,note_on,0,0,3,,,,,,,,,2,,,48,75
11280,control_change,0,0,3,,,,,,,,,2,64,0,,
11280,note_on,40,0,3,,,,,,,,,2,,,52,0
11280,note_on,30,0,1,,,,,,,,,0,,,79,0
11319,note_on,39,0,3,,,,,,,,,2,,,55,75
11320,note_on,1,0,3,,,,,,,,,2,,,48,0
11359,note_on,39,0,3,,,,,,,,,2,,,55,0
11360,note_on,1,0,3,,,,,,,,,2,,,52,75
11400,note_on,0,0,3,,,,,,,,,2,,,49,75
11400,note_on,120,0,1,,,,,,,,,0,,,78,0
11400,note_on,0,0,1,,,,,,,,,0,,,66,0
11400,note_on,0,0,1,,,,,,,,,0,,,64,88
11400,note_on,0,0,1,,,,,,,,,0,,,76,88
11400,control_change,0,0,1,,,,,,,,,0,64,127,,
11400,note_on,40,0,3,,,,,,,,,2,,,52,0
11400,control_change,0,0,3,,,,,,,,,2,64,127,,
11439,note_on,39,0,3,,,,,,,,,2,,,58,75
11440,note_on,1,0,3,,,,,,,,,2,,,49,0
11479,note_on,39,0,3,,,,,,,,,2,,,58,0
11480,note_on,1,0,3,,,,,,,,,2,,,55,75
11520,note_on,40,0,3,,,,,,,,,2,,,55,0
11520,note_on,0,0,3,,,,,,,,,2,,,48,75
11520,note_on,0,0,1,,,,,,,,,0,,,64,0
11520,note_on,0,0,1,,,,,,,,,0,,,82,88
11520,note_on,0,0,1,,,,,,,,,0,,,70,88
11520,note_on,120,0,1,,,,,,,,,0,,,76,0
11559,note_on,39,0,3,,,,,,,,,2,,,55,75
11560,note_on,1,0,3,,,,,,,,,2,,,48,0
11599,note_on,39,0,3,,,,,,,,,2,,,55,0
11600,note_on,1,0,3,,,,,,,,,2,,,52,75
11640,note_on,0,0,1,,,,,,,,,0,,,60,88
11640,note_on,0,0,3,,,,,,,,,2,,,46,75
11640,note_on,40,0,3,,,,,,,,,2,,,52,0
11640,note_on,0,0,1,,,,,,,,,0,,,72,88
11640,note_on,0,0,1,,,,,,,,,0,,,70,0
11640,note_on,120,0,1,,,,,,,,,0,,,82,0
11679,note_on,39,0,3,,,,,,,,,2,,,55,75
11680,note_on,1,0,3,,,,,,,,,2,,,46,0
11719,note_on,39,0,3,,,,,,,,,2,,,55,0
11720,note_on,0,0,3,,,,,,,,,2,,,52,75
11720,control_change,1,0,3,,,,,,,,,2,64,0,,
11730,note_on,0,0,1,,,,,,,,,0,,,60,88
11730,control_change,0,0,1,,,,,,,,,0,64,0,,
11730,note_on,90,0,1,,,,,,,,,0,,,72,0
11730,note_on,0,0,1,,,,,,,,,0,,,60,0
11730,note_on,0,0,1,,,,,,,,,0,,,72,88
11760,note_on,0,0,2,,,,,,,,,1,,,59,49
11760,note_on,0,0,1,,,,,,,,,0,,,71,114
11760,note_on,0,0,1,,,,,,,,,0,,,60,0
11760,note_on,30,0,1,,,,,,,,,0,,,72,0
11760,note_on,0,0,3,,,,,,,,,2,,,47,36
11760,control_change,0,0,3,,,,,,,,,2,64,127,,
11760,note_on,40,0,3,,,,,,,,,2,,,52,0
11760,control_change,8400,0,2,,,,,,,,,1,64,127,,
11799,note_on,39,0,3,,,,,,,,,2,,,54,36
11800,note_on,1,0,3,,,,,,,,,2,,,47,0
11839,note_on,39,0,3,,,,,,,,,2,,,54,0
11840,note_on,1,0,3,,,,,,,,,2,,,52,36
11880,note_on,0,0,3,,,,,,,,,2,,,48,36
11880,note_on,40,0,3,,,,,,,,,2,,,52,0
11880,note_on,0,0,2,,,,,,,,,1,,,57,49
11880,note_on,120,0,2,,,,,,,,,1,,,59,0
11919,note_on,39,0,3,,,,,,,,,2,,,54,36
11920,note_on,1,0,3,,,,,,,,,2,,,48,0
11959,note_on,39,0,3,,,,,,,,,2,,,54,0
11960,note_on,1,0,3,,,,,,,,,2,,,52,36
12000,note_on,120,0,2,,,,,,,,,1,,,57,0
12000,note_on,0,0,2,,,,,,,,,1,,,66,49
12000,note_on,0,0,3,,,,,,,,,2,,,47,36
12000,note_on,40,0,3,,,,,,,,,2,,,52,0
12039,note_on,39,0,3,,,,,,,,,2,,,54,36
12040,note_on,1,0,3,,,,,,,,,2,,,47,0
12079,note_on,39,0,3,,,,,,,,,2,,,54,0
12080,note_on,1,0,3,,,,,,,,,2,,,52,36
12120,note_on,0,0,2,,,,,,,,,1,,,60,49
12120,control_change,0,0,2,,,,,,,,,1,64,0,,
12120,note_on,120,0,2,,,,,,,,,1,,,66,0
12120,note_on,40,0,3,,,,,,,,,2,,,52,0
12120,note_on,0,0,3,,,,,,,,,2,,,46,36
12120,control_change,0,0,3,,,,,,,,,2,64,0,,
12159,note_on,39,0,3,,,,,,,,,2,,,55,36
12160,note_on,1,0,3,,,,,,,,,2,,,46,0
12199,note_on,39,0,3,,,,,,,,,2,,,55,0
12200,note_on,1,0,3,,,,,,,,,2,,,52,36
12210,note_on,0,0,2,,,,,,,,,1,,,60,49
12210,note_on,90,0,2,,,,,,,,,1,,,60,0
12240,note_on,40,0,3,,,,,,,,,2,,,52,0
12240,note_on,0,0,2,,,,,,,,,1,,,59,49
12240,control_change,0,0,2,,,,,,,,,1,64,127,,
12240,note_on,30,0,2,,,,,,,,,1,,,60,0
12240,control_change,0,0,3,,,,,,,,,2,64,127,,
12240,note_on,0,0,1,,,,,,,,,0,,,71,114
12240,note_on,480,0,1,,,,,,,,,0,,,71,0
12240,note_on,0,0,3,,,,,,,,,2,,,47,36
12279,note_on,39,0,3,,,,,,,,,2,,,54,36
12280,note_on,1,0,3,,,,,,,,,2,,,47,0
12319,note_on,39,0,3,,,,,,,,,2,,,54,0
12320,note_on,1,0,3,,,,,,,,,2,,,52,36
12360,note_on,0,0,3,,,,,,,,,2,,,48,36
12360,note_on,120,0,2,,,,,,,,,1,,,59,0
12360,note_on,0,0,2,,,,,,,,,1,,,57,49
12360,note_on,40,0,3,,,,,,,,,2,,,52,0
12399,note_on,39,0,3,,,,,,,,,2,,,54,36
12400,note_on,1,0,3,,,,,,,,,2,,,48,0
12439,note_on,39,0,3,,,,,,,,,2,,,54,0
12440,note_on,1,0,3,,,,,,,,,2,,,52,36
12480,note_on,0,0,2,,,,,,,,,1,,,66,49
12480,note_on,40,0,3,,,,,,,,,2,,,52,0
12480,note_on,0,0,3,,,,,,,,,2,,,47,36
12480,note_on,120,0,2,,,,,,,,,1,,,57,0
12519,note_on,39,0,3,,,,,,,,,2,,,54,36
12520,note_on,1,0,3,,,,,,,,,2,,,47,0
12559,note_on,39,0,3,,,,,,,,,2,,,54,0
12560,note_on,1,0,3,,,,,,,,,2,,,52,36
12600,control_change,0,0,2,,,,,,,,,1,64,0,,
12600,note_on,120,0,2,,,,,,,,,1,,,66,0
12600,control_change,0,0,3,,,,,,,,,2,64,0,,
12600,note_on,40,0,3,,,,,,,,,2,,,52,0
12600,note_on,0,0,3,,,,,,,,,2,,,45,36
12600,note_on,0,0,2,,,,,,,,,1,,,60,49
12639,note_on,39,0,3,,,,,,,,,2,,,54,36
12640,note_on,1,0,3,,,,,,,,,2,,,45,0
12679,note_on,39,0,3,,,,,,,,,2,,,54,0
12680,note_on,1,0,3,,,,,,,,,2,,,51,36
12690,note_on,90,0,2,,,,,,,,,1,,,60,0
12690,note_on,0,0,2,,,,,,,,,1,,,60,49
12720,note_on,30,0,2,,,,,,,,,1,,,60,0
12720,note_on,40,0,3,,,,,,,,,2,,,51,0
12720,control_change,0,0,2,,,,,,,,,1,64,127,,
12720,note_on,0,0,2,,,,,,,,,1,,,59,49
12720,key_signature,5760,1,0,,,,,E,,,,,,,,
12720,note_on,0,0,1,,,,,,,,,0,,,71,49
12720,note_on,480,0,1,,,,,,,,,0,,,71,0
12720,control_change,0,0,3,,,,,,,,,2,64,127,,
12720,note_on,0,0,3,,,,,,,,,2,,,44,36
12759,note_on,39,0,3,,,,,,,,,2,,,52,36
12760,note_on,1,0,3,,,,,,,,,2,,,44,0
12799,note_on,39,0,3,,,,,,,,,2,,,52,0
12800,note_on,1,0,3,,,,,,,,,2,,,47,36
12840,note_on,40,0,3,,,,,,,,,2,,,47,0
12840,note_on,0,0,3,,,,,,,,,2,,,42,36
12840,note_on,0,0,2,,,,,,,,,1,,,63,49
12840,note_on,120,0,2,,,,,,,,,1,,,59,0
12879,note_on,39,0,3,,,,,,,,,2,,,52,36
12880,note_on,1,0,3,,,,,,,,,2,,,42,0
12919,note_on,39,0,3,,,,,,,,,2,,,52,0
12920,note_on,1,0,3,,,,,,,,,2,,,45,36
12960,note_on,0,0,2,,,,,,,,,1,,,64,49
12960,note_on,0,0,3,,,,,,,,,2,,,40,36
12960,note_on,40,0,3,,,,,,,,,2,,,45,0
12960,note_on,120,0,2,,,,,,,,,1,,,63,0
12999,note_on,39,0,3,,,,,,,,,2,,,52,36
13000,note_on,1,0,3,,,,,,,,,2,,,40,0
13039,note_on,39,0,3,,,,,,,,,2,,,52,0
13040,note_on,1,0,3,,,,,,,,,2,,,44,36
13080,note_on,40,0,3,,,,,,,,,2,,,44,0
13080,note_on,120,0,2,,,,,,,,,1,,,64,0
13080,control_change,0,0,2,,,,,,,,,1,64,0,,
13080,note_on,0,0,2,,,,,,,,,1,,,61,49
13080,note_on,0,0,3,,,,,,,,,2,,,45,36
13080,control_change,0,0,3,,,,,,,,,2,64,0,,
13119,note_on,39,0,3,,,,,,,,,2,,,52,36
13120,note_on,1,0,3,,,,,,,,,2,,,45,0
13159,note_on,39,0,3,,,,,,,,,2,,,52,0
13160,note_on,1,0,3,,,,,,,,,2,,,49,36
13170,note_on,0,0,2,,,,,,,,,1,,,61,49
13170,note_on,90,0,2,,,,,,,,,1,,,61,0
13200,note_on,0,0,3,,,,,,,,,2,,,44,36
13200,control_change,0,0,3,,,,,,,,,2,64,127,,
13200,note_on,30,0,2,,,,,,,,,1,,,61,0
13200,control_change,0,0,2,,,,,,,,,1,64,127,,
13200,note_on,0,0,1,,,,,,,,,0,,,71,49
13200,note_on,480,0,1,,,,,,,,,0,,,71,0
13200,note_on,0,0,2,,,,,,,,,1,,,59,49
13200,note_on,40,0,3,,,,,,,,,2,,,49,0
13239,note_on,39,0,3,,,,,,,,,2,,,52,36
13240,note_on,1,0,3,,,,,,,,,2,,,44,0
13260,set_tempo,540,1,0,,,,,,512821,,,,,,,
13279,note_on,39,0,3,,,,,,,,,2,,,52,0
13280,note_on,1,0,3,,,,,,,,,2,,,47,36
13320,note_on,40,0,3,,,,,,,,,2,,,47,0
13320,note_on,0,0,2,,,,,,,,,1,,,63,49
13320,note_on,120,0,2,,,,,,,,,1,,,59,0
13320,set_tempo,60,1,0,,,,,,526316,,,,,,,
13320,note_on,0,0,3,,,,,,,,,2,,,42,36
13359,note_on,39,0,3,,,,,,,,,2,,,52,36
13360,note_on,1,0,3,,,,,,,,,2,,,42,0
13380,set_tempo,60,1,0,,,,,,540541,,,,,,,
13399,note_on,39,0,3,,,,,,,,,2,,,52,0
13400,note_on,1,0,3,,,,,,,,,2,,,45,36
13440,set_tempo,60,1,0,,,,,,560748,,,,,,,
13440,note_on,40,0,3,,,,,,,,,2,,,45,0
13440,note_on,0,0,2,,,,,,,,,1,,,64,49
13440,note_on,120,0,2,,,,,,,,,1,,,63,0
13440,note_on,0,0,3,,,,,,,,,2,,,40,36
13479,note_on,39,0,3,,,,,,,,,2,,,52,36
13480,note_on,1,0,3,,,,,,,,,2,,,40,0
13500,set_tempo,60,1,0,,,,,,576923,,,,,,,
13519,note_on,39,0,3,,,,,,,,,2,,,52,0
13520,note_on,1,0,3,,,,,,,,,2,,,44,36
13560,note_on,0,0,3,,,,,,,,,2,,,42,36
13560,control_change,0,0,3,,,,,,,,,2,64,0,,
13560,note_on,40,0,3,,,,,,,,,2,,,44,0
13560,control_change,0,0,2,,,,,,,,,1,64,0,,
13560,note_on,120,0,2,,,,,,,,,1,,,64,0
13560,note_on,0,0,2,,,,,,,,,1,,,59,49
13560,note_on,360,0,1,,,,,,,,,0,,,71,0
13560,note_on,0,0,1,,,,,,,,,0,,,63,49
13560,note_on,0,0,1,,,,,,,,,0,,,69,49
13560,set_tempo,60,1,0,,,,,,594059,,,,,,,
13599,note_on,39,0,3,,,,,,,,,2,,,51,36
13600,note_on,1,0,3,,,,,,,,,2,,,42,0
13620,set_tempo,60,1,0,,,,,,612245,,,,,,,
13639,note_on,39,0,3,,,,,,,,,2,,,51,0
13640,note_on,1,0,3,,,,,,,,,2,,,47,36
13650,note_on,90,0,2,,,,,,,,,1,,,59,0
13650,note_on,0,0,2,,,,,,,,,1,,,59,49
13680,note_on,0,0,1,,,,,,,,,0,,,63,0
13680,note_on,0,0,1,,,,,,,,,0,,,59,36
13680,note_on,0,0,1,,,,,,,,,0,,,64,36
13680,note_on,0,0,1,,,,,,,,,0,,,68,36
13680,note_on,30,0,2,,,,,,,,,1,,,59,0
13680,note_on,120,0,1,,,,,,,,,0,,,69,0
13680,note_on,40,0,3,,,,,,,,,2,,,47,0
13680,control_change,0,0,3,,,,,,,,,2,64,127,,
13680,note_on,0,0,3,,,,,,,,,2,,,44,36
13680,set_tempo,60,1,0,,,,,,638298,,,,,,,
13719,note_on,39,0,3,,,,,,,,,2,,,52,36
13720,note_on,1,0,3,,,,,,,,,2,,,44,0
13759,note_on,39,0,3,,,,,,,,,2,,,52,0
13760,note_on,1,0,3,,,,,,,,,2,,,47,36
13800,note_on,120,0,1,,,,,,,,,0,,,68,0
13800,note_on,0,0,3,,,,,,,,,2,,,45,36
13800,control_change,0,0,3,,,,,,,,,2,64,0,,
13800,note_on,40,0,3,,,,,,,,,2,,,47,0
13800,note_on,0,0,1,,,,,,,,,0,,,59,0
13800,note_on,0,0,1,,,,,,,,,0,,,57,36
13800,note_on,0,0,1,,,,,,,,,0,,,66,36
13800,note_on,0,0,1,,,,,,,,,0,,,64,0
13800,note_on,120,0,2,,,,,,,,,1,,,61,36
13839,note_on,39,0,3,,,,,,,,,2,,,54,36
13840,note_on,1,0,3,,,,,,,,,2,,,45,0
13879,note_on,39,0,3,,,,,,,,,2,,,54,0
13880,note_on,1,0,3,,,,,,,,,2,,,49,36
13890,note_on,90,0,2,,,,,,,,,1,,,61,0
13890,note_on,0,0,2,,,,,,,,,1,,,61,36
13920,note_on,0,0,3,,,,,,,,,2,,,47,36
13920,control_change,0,0,3,,,,,,,,,2,64,127,,
13920,note_on,30,0,2,,,,,,,,,1,,,61,0
13920,note_on,40,0,3,,,,,,,,,2,,,49,0
13920,note_on,120,0,1,,,,,,,,,0,,,66,0
13920,note_on,0,0,1,,,,,,,,,0,,,64,36
13920,note_on,0,0,1,,,,,,,,,0,,,59,36
13920,note_on,0,0,1,,,,,,,,,0,,,56,36
13920,note_on,0,0,1,,,,,,,,,0,,,57,0
13959,note_on,39,0,3,,,,,,,,,2,,,52,36
13960,note_on,1,0,3,,,,,,,,,2,,,47,0
13999,note_on,39,0,3,,,,,,,,,2,,,52,0
14000,note_on,1,0,3,,,,,,,,,2,,,46,36
14040,control_change,0,0,3,,,,,,,,,2,64,0,,
14040,note_on,0,0,3,,,,,,,,,2,,,47,36
14040,note_on,40,0,3,,,,,,,,,2,,,46,0
14040,note_on,0,0,1,,,,,,,,,0,,,63,36
14040,note_on,0,0,1,,,,,,,,,0,,,59,0
14040,note_on,0,0,1,,,,,,,,,0,,,56,0
14040,note_on,0,0,1,,,,,,,,,0,,,57,36
14040,note_on,120,0,1,,,,,,,,,0,,,64,0
14040,note_on,120,0,2,,,,,,,,,1,,,59,36
14079,note_on,39,0,3,,,,,,,,,2,,,49,36
14080,note_on,1,0,3,,,,,,,,,2,,,47,0
14119,note_on,39,0,3,,,,,,,,,2,,,49,0
14120,note_on,1,0,3,,,,,,,,,2,,,47,36
14130,note_on,0,0,2,,,,,,,,,1,,,59,36
14130,note_on,90,0,2,,,,,,,,,1,,,59,0
14160,note_on,0,0,1,,,,,,,,,0,,,56,36
14160,set_tempo,480,1,0,,,,,,500000,,,,,,,
14160,control_change,0,0,1,,,,,,,,,0,64,127,,
14160,note_on,0,0,1,,,,,,,,,0,,,64,36
14160,note_on,0,0,1,,,,,,,,,0,,,59,36
14160,note_on,30,0,2,,,,,,,,,1,,,59,0
14160,note_on,120,0,1,,,,,,,,,0,,,63,0
14160,note_on,0,0,1,,,,,,,,,0,,,57,0
14160,control_change,0,0,3,,,,,,,,,2,64,127,,
14160,note_on,40,0,3,,,,,,,,,2,,,47,0
14160,note_on,0,0,3,,,,,,,,,2,,,40,36
14166,note_on,6,0,3,,,,,,,,,2,,,40,0
14220,note_on,60,0,1,,,,,,,,,0,,,64,0
14220,note_on,0,0,1,,,,,,,,,0,,,59,0
14220,note_on,0,0,1,,,,,,,,,0,,,56,0
14220,note_on,54,0,3,,,,,,,,,2,,,47,36
14226,note_on,6,0,3,,,,,,,,,2,,,47,0
14265,note_on,45,0,1,,,,,,,,,0,,,64,36
14280,note_on,0,0,3,,,,,,,,,2,,,59,36
14280,note_on,54,0,3,,,,,,,,,2,,,52,36
14280,note_on,0,0,1,,,,,,,,,0,,,68,49
14280,note_on,15,0,1,,,,,,,,,0,,,64,0
14286,note_on,6,0,3,,,,,,,,,2,,,59,0
14286,note_on,0,0,3,,,,,,,,,2,,,52,0
14289,note_on,9,0,1,,,,,,,,,0,,,68,0
14370,note_on,81,0,1,,,,,,,,,0,,,68,49
14400,note_on,30,0,1,,,,,,,,,0,,,68,0
14400,note_on,114,0,3,,,,,,,,,2,,,40,36
14400,note_on,0,0,1,,,,,,,,,0,,,64,49
14406,note_on,6,0,3,,,,,,,,,2,,,40,0
14460,note_on,60,0,1,,,,,,,,,0,,,64,0
14460,note_on,54,0,3,,,,,,,,,2,,,47,36
14466,note_on,6,0,3,,,,,,,,,2,,,47,0
14505,note_on,45,0,1,,,,,,,,,0,,,64,49
14520,note_on,54,0,3,,,,,,,,,2,,,52,36
14520,note_on,0,0,3,,,,,,,,,2,,,59,36
14520,note_on,0,0,1,,,,,,,,,0,,,68,49
14520,note_on,15,0,1,,,,,,,,,0,,,64,0
14526,note_on,6,0,3,,,,,,,,,2,,,59,0
14526,note_on,0,0,3,,,,,,,,,2,,,52,0
14529,note_on,9,0,1,,,,,,,,,0,,,68,0
14580,control_change,54,0,3,,,,,,,,,2,64,0,,
14610,note_on,0,0,1,,,,,,,,,0,,,68,49
14610,control_change,81,0,1,,,,,,,,,0,64,0,,
14640,note_on,0,0,3,,,,,,,,,2,,,35,36
14640,note_on,0,0,1,,,,,,,,,0,,,71,49
14640,note_on,30,0,1,,,,,,,,,0,,,68,0
14640,control_change,60,0,3,,,,,,,,,2,64,127,,
14646,note_on,6,0,3,,,,,,,,,2,,,35,0
14700,note_on,54,0,3,,,,,,,,,2,,,47,36
14706,note_on,6,0,3,,,,,,,,,2,,,47,0
14760,note_on,54,0,3,,,,,,,,,2,,,47,36
14760,note_on,0,0,3,,,,,,,,,2,,,59,36
14760,note_on,0,0,3,,,,,,,,,2,,,57,36
14766,note_on,0,0,3,,,,,,,,,2,,,47,0
14766,note_on,0,0,3,,,,,,,,,2,,,57,0
14766,note_on,6,0,3,,,,,,,,,2,,,59,0
14820,control_change,54,0,3,,,,,,,,,2,64,0,,
14850,note_on,210,0,1,,,,,,,,,0,,,71,0
14850,note_on,0,0,1,,,,,,,,,0,,,73,49
14880,control_change,60,0,3,,,,,,,,,2,64,127,,
14880,control_change,0,0,1,,,,,,,,,0,64,127,,
14880,note_on,30,0,1,,,,,,,,,0,,,73,0
14880,note_on,0,0,3,,,,,,,,,2,,,40,36
14880,note_on,0,0,1,,,,,,,,,0,,,71,49
14886,note_on,6,0,3,,,,,,,,,2,,,40,0
14940,note_on,54,0,3,,,,,,,,,2,,,47,36
14946,note_on,6,0,3,,,,,,,,,2,,,47,0
15000,note_on,0,0,1,,,,,,,,,0,,,68,49
15000,note_on,120,0,1,,,,,,,,,0,,,71,0
15000,note_on,54,0,3,,,,,,,,,2,,,52,36
15000,note_on,0,0,3,,,,,,,,,2,,,56,36
15000,note_on,0,0,3,,,,,,,,,2,,,59,36
15006,note_on,0,0,3,,,,,,,,,2,,,52,0
15006,note_on,6,0,3,,,,,,,,,2,,,59,0
15006,note_on,0,0,3,,,,,,,,,2,,,56,0
15060,control_change,54,0,3,,,,,,,,,2,64,0,,
15090,note_on,0,0,1,,,,,,,,,0,,,69,49
15090,note_on,90,0,1,,,,,,,,,0,,,68,0
15090,control_change,0,0,1,,,,,,,,,0,64,0,,
15120,note_on,0,0,1,,,,,,,,,0,,,71,49
15120,note_on,30,0,1,,,,,,,,,0,,,69,0
15120,control_change,0,0,1,,,,,,,,,0,64,127,,
15120,note_on,960,0,2,,,,,,,,,1,,,59,36
15120,control_change,60,0,3,,,,,,,,,2,64,127,,
15120,note_on,0,0,3,,,,,,,,,2,,,35,36
15126,note_on,6,0,3,,,,,,,,,2,,,35,0
15180,note_on,54,0,3,,,,,,,,,2,,,47,36
15186,note_on,6,0,3,,,,,,,,,2,,,47,0
15240,note_on,120,0,1,,,,,,,,,0,,,71,0
15240,note_on,0,0,3,,,,,,,,,2,,,57,36
15240,note_on,54,0,3,,,,,,,,,2,,,51,36
15240,note_on,0,0,1,,,,,,,,,0,,,66,49
15246,note_on,6,0,3,,,,,,,,,2,,,57,0
15246,note_on,0,0,3,,,,,,,,,2,,,51,0
15330,note_on,90,0,1,,,,,,,,,0,,,66,0
15330,note_on,0,0,1,,,,,,,,,0,,,68,49
15360,note_on,30,0,1,,,,,,,,,0,,,68,0
15360,note_on,0,0,1,,,,,,,,,0,,,69,49
15360,note_on,114,0,3,,,,,,,,,2,,,35,36
15366,note_on,6,0,3,,,,,,,,,2,,,35,0
15420,note_on,54,0,3,,,,,,,,,2,,,47,36
15426,note_on,6,0,3,,,,,,,,,2,,,47,0
15480,note_on,0,0,1,,,,,,,,,0,,,59,49
15480,note_on,54,0,3,,,,,,,,,2,,,51,36
15480,note_on,0,0,1,,,,,,,,,0,,,68,49
15480,note_on,120,0,1,,,,,,,,,0,,,69,0
15480,note_on,360,0,2,,,,,,,,,1,,,59,0
15486,note_on,6,0,3,,,,,,,,,2,,,51,0
15489,note_on,0,0,1,,,,,,,,,0,,,59,0
15489,note_on,9,0,1,,,,,,,,,0,,,68,0
15540,control_change,54,0,3,,,,,,,,,2,64,0,,
15570,note_on,0,0,1,,,,,,,,,0,,,66,49
15570,note_on,0,0,1,,,,,,,,,0,,,57,49
15570,control_change,81,0,1,,,,,,,,,0,64,0,,
15574,note_on,0,0,1,,,,,,,,,0,,,57,0
15574,note_on,4,0,1,,,,,,,,,0,,,66,0
15600,note_on,0,0,1,,,,,,,,,0,,,64,49
15600,note_on,0,0,1,,,,,,,,,0,,,56,49
15600,control_change,26,0,1,,,,,,,,,0,64,127,,
15600,control_change,60,0,3,,,,,,,,,2,64,127,,
15600,note_on,0,0,3,,,,,,,,,2,,,40,36
15606,note_on,6,0,3,,,,,,,,,2,,,40,0
15660,note_on,54,0,3,,,,,,,,,2,,,44,36
15666,note_on,6,0,3,,,,,,,,,2,,,44,0
15720,note_on,0,0,1,,,,,,,,,0,,,56,0
15720,note_on,0,0,1,,,,,,,,,0,,,66,49
15720,note_on,0,0,1,,,,,,,,,0,,,61,49
15720,note_on,0,0,1,,,,,,,,,0,,,57,49
15720,note_on,120,0,1,,,,,,,,,0,,,64,0
15720,note_on,54,0,3,,,,,,,,,2,,,47,36
15726,note_on,6,0,3,,,,,,,,,2,,,47,0
15810,note_on,90,0,1,,,,,,,,,0,,,66,0
15810,note_on,0,0,1,,,,,,,,,0,,,59,49
15810,note_on,0,0,1,,,,,,,,,0,,,61,0
15810,note_on,0,0,1,,,,,,,,,0,,,63,49
15810,note_on,0,0,1,,,,,,,,,0,,,57,0
15814,note_on,0,0,1,,,,,,,,,0,,,59,0
15814,note_on,4,0,1,,,,,,,,,0,,,63,0
15840,note_on,26,0,1,,,,,,,,,0,,,56,49
15840,note_on,114,0,3,,,,,,,,,2,,,40,36
15840,note_on,0,0,1,,,,,,,,,0,,,64,49
15846,note_on,6,0,3,,,,,,,,,2,,,40,0
15900,note_on,54,0,3,,,,,,,,,2,,,44,36
15906,note_on,6,0,3,,,,,,,,,2,,,44,0
15960,control_change,0,0,1,,,,,,,,,0,64,0,,
15960,note_on,0,0,1,,,,,,,,,0,,,56,0
15960,note_on,54,0,3,,,,,,,,,2,,,47,36
15960,note_on,120,0,1,,,,,,,,,0,,,64,0
15966,note_on,6,0,3,,,,,,,,,2,,,47,0
16020,control_change,54,0,3,,,,,,,,,2,64,0,,
16020,note_on,0,0,3,,,,,,,,,2,,,52,36
16026,note_on,6,0,3,,,,,,,,,2,,,52,0
16080,control_change,120,0,1,,,,,,,,,0,64,127,,
16080,note_on,0,0,1,,,,,,,,,0,,,64,49
16080,note_on,0,0,1,,,,,,,,,0,,,76,49
16080,note_on,0,0,3,,,,,,,,,2,,,40,36
16080,set_tempo,1920,1,0,,,,,,500000,,,,,,,
16080,control_change,54,0,3,,,,,,,,,2,64,127,,
16086,note_on,6,0,3,,,,,,,,,2,,,40,0
16140,note_on,54,0,3,,,,,,,,,2,,,47,36
16146,note_on,6,0,3,,,,,,,,,2,,,47,0
16185,note_on,105,0,1,,,,,,,,,0,,,76,49
16200,note_on,0,0,1,,,,,,,,,0,,,80,49
16200,note_on,0,0,1,,,,,,,,,0,,,68,49
16200,note_on,0,0,3,,,,,,,,,2,,,59,36
16200,note_on,54,0,3,,,,,,,,,2,,,52,36
16200,note_on,15,0,1,,,,,,,,,0,,,76,0
16200,note_on,0,0,1,,,,,,,,,0,,,76,0
16200,note_on,0,0,1,,,,,,,,,0,,,64,0
16206,note_on,0,0,3,,,,,,,,,2,,,52,0
16206,note_on,6,0,3,,,,,,,,,2,,,59,0
16209,note_on,0,0,1,,,,,,,,,0,,,68,0
16209,note_on,9,0,1,,,,,,,,,0,,,80,0
16290,note_on,81,0,1,,,,,,,,,0,,,68,49
16290,note_on,0,0,1,,,,,,,,,0,,,80,49
16320,note_on,114,0,3,,,,,,,,,2,,,40,36
16320,note_on,0,0,1,,,,,,,,,0,,,76,49
16320,note_on,0,0,1,,,,,,,,,0,,,68,0
16320,note_on,0,0,1,,,,,,,,,0,,,64,49
16320,note_on,30,0,1,,,,,,,,,0,,,80,0
16326,note_on,6,0,3,,,,,,,,,2,,,40,0
16380,note_on,54,0,3,,,,,,,,,2,,,47,36
16386,note_on,6,0,3,,,,,,,,,2,,,47,0
16425,note_on,105,0,1,,,,,,,,,0,,,76,49
16440,note_on,0,0,1,,,,,,,,,0,,,80,49
16440,note_on,15,0,1,,,,,,,,,0,,,76,0
16440,note_on,0,0,1,,,,,,,,,0,,,76,0
16440,note_on,0,0,3,,,,,,,,,2,,,59,36
16440,note_on,54,0,3,,,,,,,,,2,,,52,36
16440,note_on,0,0,1,,,,,,,,,0,,,64,0
16440,note_on,0,0,1,,,,,,,,,0,,,68,49
16446,note_on,6,0,3,,,,,,,,,2,,,59,0
16446,note_on,0,0,3,,,,,,,,,2,,,52,0
16449,note_on,9,0,1,,,,,,,,,0,,,80,0
16449,note_on,0,0,1,,,,,,,,,0,,,68,0
16500,control_change,54,0,3,,,,,,,,,2,64,0,,
16530,control_change,81,0,1,,,,,,,,,0,64,0,,
16530,note_on,0,0,1,,,,,,,,,0,,,68,49
16530,note_on,0,0,1,,,,,,,,,0,,,80,49
16560,control_change,60,0,3,,,,,,,,,2,64,127,,
16560,note_on,30,0,1,,,,,,,,,0,,,80,0
16560,note_on,0,0,1,,,,,,,,,0,,,71,49
16560,note_on,0,0,1,,,,,,,,,0,,,68,0
16560,note_on,0,0,3,,,,,,,,,2,,,35,36
16560,note_on,0,0,1,,,,,,,,,0,,,83,49
16566,note_on,6,0,3,,,,,,,,,2,,,35,0
16620,note_on,54,0,3,,,,,,,,,2,,,47,36
16626,note_on,6,0,3,,,,,,,,,2,,,47,0
16680,note_on,0,0,3,,,,,,,,,2,,,59,36
16680,note_on,0,0,3,,,,,,,,,2,,,57,36
16680,note_on,54,0,3,,,,,,,,,2,,,47,36
16686,note_on,6,0,3,,,,,,,,,2,,,59,0
16686,note_on,0,0,3,,,,,,,,,2,,,47,0
16686,note_on,0,0,3,,,,,,,,,2,,,57,0
16740,control_change,54,0,3,,,,,,,,,2,64,0,,
16770,note_on,210,0,1,,,,,,,,,0,,,83,0
16770,note_on,0,0,1,,,,,,,,,0,,,85,49
16770,note_on,0,0,1,,,,,,,,,0,,,73,49
16770,note_on,0,0,1,,,,,,,,,0,,,71,0
16800,note_on,0,0,1,,,,,,,,,0,,,83,49
16800,control_change,0,0,1,,,,,,,,,0,64,127,,
16800,note_on,0,0,1,,,,,,,,,0,,,73,0
16800,control_change,60,0,3,,,,,,,,,2,64,127,,
16800,note_on,0,0,1,,,,,,,,,0,,,71,49
16800,note_on,30,0,1,,,,,,,,,0,,,85,0
16800,note_on,0,0,3,,,,,,,,,2,,,40,36
16806,note_on,6,0,3,,,,,,,,,2,,,40,0
16860,note_on,54,0,3,,,,,,,,,2,,,47,36
16866,note_on,6,0,3,,,,,,,,,2,,,47,0
16920,note_on,0,0,1,,,,,,,,,0,,,71,0
16920,note_on,0,0,1,,,,,,,,,0,,,80,49
16920,note_on,0,0,3,,,,,,,,,2,,,59,36
16920,note_on,0,0,3,,,,,,,,,2,,,56,36
16920,note_on,54,0,3,,,,,,,,,2,,,52,36
16920,note_on,120,0,1,,,,,,,,,0,,,83,0
16926,note_on,0,0,3,,,,,,,,,2,,,52,0
16926,note_on,6,0,3,,,,,,,,,2,,,59,0
16926,note_on,0,0,3,,,,,,,,,2,,,56,0
16980,control_change,54,0,3,,,,,,,,,2,64,0,,
17010,note_on,90,0,1,,,,,,,,,0,,,80,0
17010,control_change,0,0,1,,,,,,,,,0,64,0,,
17010,note_on,0,0,1,,,,,,,,,0,,,81,49
17040,note_on,30,0,1,,,,,,,,,0,,,81,0
17040,note_on,0,0,1,,,,,,,,,0,,,83,49
17040,note_on,0,0,3,,,,,,,,,2,,,47,36
17040,control_change,60,0,3,,,,,,,,,2,64,127,,
17040,note_on,1560,0,2,,,,,,,,,1,,,71,36
17040,control_change,0,0,1,,,,,,,,,0,64,127,,
17046,note_on,6,0,3,,,,,,,,,2,,,47,0
17100,note_on,54,0,3,,,,,,,,,2,,,59,36
17106,note_on,6,0,3,,,,,,,,,2,,,59,0
17160,note_on,54,0,3,,,,,,,,,2,,,63,36
17160,note_on,0,0,1,,,,,,,,,0,,,78,49
17160,note_on,0,0,3,,,,,,,,,2,,,69,36
17160,note_on,120,0,1,,,,,,,,,0,,,83,0
17166,note_on,6,0,3,,,,,,,,,2,,,69,0
17166,note_on,0,0,3,,,,,,,,,2,,,63,0
17250,note_on,90,0,1,,,,,,,,,0,,,78,0
17250,note_on,0,0,1,,,,,,,,,0,,,80,49
17280,note_on,30,0,1,,,,,,,,,0,,,80,0
17280,note_on,0,0,1,,,,,,,,,0,,,81,49
17280,note_on,240,0,2,,,,,,,,,1,,,71,0
17280,note_on,114,0,3,,,,,,,,,2,,,47,36
17286,note_on,6,0,3,,,,,,,,,2,,,47,0
17340,note_on,54,0,3,,,,,,,,,2,,,59,36
17346,note_on,6,0,3,,,,,,,,,2,,,59,0
17400,note_on,120,0,1,,,,,,,,,0,,,81,0
17400,note_on,0,0,1,,,,,,,,,0,,,80,49
17400,note_on,0,0,1,,,,,,,,,0,,,71,49
17400,note_on,54,0,3,,,,,,,,,2,,,63,36
17406,note_on,6,0,3,,,,,,,,,2,,,63,0
17409,note_on,0,0,1,,,,,,,,,0,,,71,0
17409,note_on,9,0,1,,,,,,,,,0,,,80,0
17460,control_change,54,0,3,,,,,,,,,2,64,0,,
17490,note_on,0,0,1,,,,,,,,,0,,,78,49
17490,control_change,81,0,1,,,,,,,,,0,64,0,,
17490,note_on,0,0,1,,,,,,,,,0,,,69,49
17494,note_on,0,0,1,,,,,,,,,0,,,69,0
17494,note_on,4,0,1,,,,,,,,,0,,,78,0
17520,note_on,0,0,3,,,,,,,,,2,,,52,36
17520,control_change,60,0,3,,,,,,,,,2,64,127,,
17520,note_on,0,0,1,,,,,,,,,0,,,76,49
17520,note_on,0,0,1,,,,,,,,,0,,,68,49
17520,control_change,26,0,1,,,,,,,,,0,64,127,,
17526,note_on,6,0,3,,,,,,,,,2,,,52,0
17580,note_on,54,0,3,,,,,,,,,2,,,56,36
17586,note_on,6,0,3,,,,,,,,,2,,,56,0
17640,note_on,120,0,1,,,,,,,,,0,,,76,0
17640,note_on,0,0,1,,,,,,,,,0,,,78,49
17640,note_on,54,0,3,,,,,,,,,2,,,59,36
17640,note_on,0,0,1,,,,,,,,,0,,,69,49
17640,note_on,0,0,1,,,,,,,,,0,,,68,0
17646,note_on,6,0,3,,,,,,,,,2,,,59,0
17730,note_on,0,0,1,,,,,,,,,0,,,75,49
17730,note_on,0,0,1,,,,,,,,,0,,,71,49
17730,note_on,0,0,1,,,,,,,,,0,,,69,0
17730,note_on,90,0,1,,,,,,,,,0,,,78,0
17734,note_on,0,0,1,,,,,,,,,0,,,71,0
17734,note_on,4,0,1,,,,,,,,,0,,,75,0
17760,note_on,0,0,1,,,,,,,,,0,,,68,49
17760,control_change,26,0,1,,,,,,,,,0,64,0,,
17760,note_on,0,0,1,,,,,,,,,0,,,76,49
17760,note_on,114,0,3,,,,,,,,,2,,,52,36
17766,note_on,6,0,3,,,,,,,,,2,,,52,0
17820,note_on,54,0,3,,,,,,,,,2,,,59,36
17826,note_on,6,0,3,,,,,,,,,2,,,59,0
17880,note_on,54,0,3,,,,,,,,,2,,,64,36
17880,note_on,120,0,1,,,,,,,,,0,,,76,0
17880,note_on,0,0,1,,,,,,,,,0,,,68,0
17886,note_on,6,0,3,,,,,,,,,2,,,64,0
17940,note_on,0,0,3,,,,,,,,,2,,,68,36
17940,control_change,54,0,3,,,,,,,,,2,64,0,,
17946,note_on,6,0,3,,,,,,,,,2,,,68,0
18000,control_change,54,0,3,,,,,,,,,2,64,127,,
18000,note_on,0,0,3,,,,,,,,,2,,,44,36
18000,note_on,0,0,1,,,,,,,,,0,,,73,36
18000,note_on,120,0,1,,,,,,,,,0,,,64,36
18006,note_on,6,0,3,,,,,,,,,2,,,44,0
18060,note_on,54,0,3,,,,,,,,,2,,,57,36
18066,note_on,6,0,3,,,,,,,,,2,,,57,0
18120,note_on,120,0,1,,,,,,,,,0,,,73,0
18120,note_on,0,0,1,,,,,,,,,0,,,64,0
18120,note_on,0,0,1,,,,,,,,,0,,,66,36
18120,note_on,0,0,1,,,,,,,,,0,,,75,36
18120,note_on,0,0,3,,,,,,,,,2,,,56,36
18120,control_change,54,0,3,,,,,,,,,2,64,0,,
18126,note_on,6,0,3,,,,,,,,,2,,,56,0
18210,note_on,90,0,1,,,,,,,,,0,,,75,0
18210,note_on,0,0,1,,,,,,,,,0,,,66,0
18210,note_on,0,0,1,,,,,,,,,0,,,68,36
18210,note_on,0,0,1,,,,,,,,,0,,,72,36
18214,note_on,4,0,1,,,,,,,,,0,,,72,0
18214,note_on,0,0,1,,,,,,,,,0,,,68,0
18240,note_on,0,0,3,,,,,,,,,2,,,37,36
18240,control_change,114,0,3,,,,,,,,,2,64,127,,
18240,note_on,0,0,1,,,,,,,,,0,,,73,36
18240,note_on,26,0,1,,,,,,,,,0,,,64,36
18246,note_on,6,0,3,,,,,,,,,2,,,37,0
18300,note_on,54,0,3,,,,,,,,,2,,,61,36
18360,note_on,60,0,3,,,,,,,,,2,,,61,0
18360,note_on,0,0,1,,,,,,,,,0,,,76,36
18360,note_on,120,0,1,,,,,,,,,0,,,73,0
18360,note_on,0,0,3,,,,,,,,,2,,,56,36
18360,note_on,0,0,1,,,,,,,,,0,,,64,0
18420,note_on,60,0,3,,,,,,,,,2,,,56,0
18420,note_on,0,0,3,,,,,,,,,2,,,55,36
18420,control_change,0,0,3,,,,,,,,,2,64,0,,
18420,note_on,60,0,1,,,,,,,,,0,,,76,0
18480,control_change,0,0,3,,,,,,,,,2,64,127,,
18480,note_on,0,0,3,,,,,,,,,2,,,42,36
18480,note_on,60,0,1,,,,,,,,,0,,,63,36
18480,note_on,60,0,3,,,,,,,,,2,,,55,0
18480,note_on,0,0,1,,,,,,,,,0,,,71,36
18486,note_on,6,0,3,,,,,,,,,2,,,42,0
18540,note_on,54,0,3,,,,,,,,,2,,,56,36
18546,note_on,6,0,3,,,,,,,,,2,,,56,0
18600,note_on,0,0,1,,,,,,,,,0,,,73,36
18600,note_on,0,0,3,,,,,,,,,2,,,54,36
18600,note_on,0,0,1,,,,,,,,,0,,,64,36
18600,note_on,120,0,1,,,,,,,,,0,,,71,0
18600,note_on,0,0,1,,,,,,,,,0,,,63,0
18600,control_change,54,0,3,,,,,,,,,2,64,0,,
18606,note_on,6,0,3,,,,,,,,,2,,,54,0
18690,note_on,90,0,1,,,,,,,,,0,,,73,0
18690,note_on,0,0,1,,,,,,,,,0,,,64,0
18690,note_on,0,0,1,,,,,,,,,0,,,66,36
18690,note_on,0,0,1,,,,,,,,,0,,,70,36
18694,note_on,4,0,1,,,,,,,,,0,,,70,0
18694,note_on,0,0,1,,,,,,,,,0,,,66,0
18720,note_on,26,0,1,,,,,,,,,0,,,63,36
18720,note_on,0,0,1,,,,,,,,,0,,,71,36
18720,note_on,0,0,3,,,,,,,,,2,,,35,36
18720,control_change,114,0,3,,,,,,,,,2,64,127,,
18726,note_on,6,0,3,,,,,,,,,2,,,35,0
18780,note_on,54,0,3,,,,,,,,,2,,,59,36
18786,note_on,6,0,3,,,,,,,,,2,,,59,0
18840,note_on,54,0,3,,,,,,,,,2,,,54,36
18840,note_on,0,0,1,,,,,,,,,0,,,75,36
18840,note_on,0,0,1,,,,,,,,,0,,,63,0
18840,note_on,120,0,1,,,,,,,,,0,,,71,0
18846,note_on,6,0,3,,,,,,,,,2,,,54,0
18900,control_change,54,0,3,,,,,,,,,2,64,0,,
18900,note_on,60,0,1,,,,,,,,,0,,,75,0
18960,control_change,60,0,1,,,,,,,,,0,64,127,,
18960,note_on,0,0,3,,,,,,,,,2,,,37,36
18960,control_change,60,0,3,,,,,,,,,2,64,127,,
18960,note_on,0,0,1,,,,,,,,,0,,,70,36
18960,note_on,0,0,1,,,,,,,,,0,,,66,36
18966,note_on,6,0,3,,,,,,,,,2,,,37,0
19020,note_on,54,0,3,,,,,,,,,2,,,49,36
19026,note_on,6,0,3,,,,,,,,,2,,,49,0
19080,note_on,54,0,3,,,,,,,,,2,,,58,36
19080,note_on,0,0,1,,,,,,,,,0,,,61,36
19080,note_on,0,0,1,,,,,,,,,0,,,73,36
19080,note_on,0,0,1,,,,,,,,,0,,,66,0
19080,note_on,120,0,1,,,,,,,,,0,,,70,0
19086,note_on,6,0,3,,,,,,,,,2,,,58,0
19140,control_change,54,0,3,,,,,,,,,2,64,0,,
19170,note_on,0,0,1,,,,,,,,,0,,,70,36
19170,note_on,0,0,1,,,,,,,,,0,,,66,36
19170,note_on,0,0,1,,,,,,,,,0,,,61,0
19170,note_on,90,0,1,,,,,,,,,0,,,73,0
19170,control_change,0,0,1,,,,,,,,,0,64,0,,
19174,note_on,4,0,1,,,,,,,,,0,,,70,0
19174,note_on,0,0,1,,,,,,,,,0,,,66,0
19200,note_on,0,0,3,,,,,,,,,2,,,37,36
19200,control_change,60,0,3,,,,,,,,,2,64,127,,
19200,note_on,26,0,1,,,,,,,,,0,,,65,36
19200,note_on,0,0,1,,,,,,,,,0,,,68,36
19206,note_on,6,0,3,,,,,,,,,2,,,37,0
19260,note_on,54,0,3,,,,,,,,,2,,,49,36
19266,note_on,6,0,3,,,,,,,,,2,,,49,0
19320,note_on,0,0,1,,,,,,,,,0,,,71,36
19320,note_on,0,0,1,,,,,,,,,0,,,63,36
19320,note_on,0,0,1,,,,,,,,,0,,,65,0
19320,note_on,120,0,1,,,,,,,,,0,,,68,0
19320,note_on,54,0,3,,,,,,,,,2,,,56,36
19326,note_on,6,0,3,,,,,,,,,2,,,56,0
19380,control_change,54,0,3,,,,,,,,,2,64,0,,
19410,note_on,90,0,1,,,,,,,,,0,,,71,0
19410,note_on,0,0,1,,,,,,,,,0,,,63,0
19410,note_on,0,0,1,,,,,,,,,0,,,59,36
19410,note_on,0,0,1,,,,,,,,,0,,,65,36
19410,note_on,0,0,1,,,,,,,,,0,,,68,36
19414,note_on,4,0,1,,,,,,,,,0,,,68,0
19414,note_on,0,0,1,,,,,,,,,0,,,59,0
19414,note_on,0,0,1,,,,,,,,,0,,,65,0
19440,note_on,0,0,1,,,,,,,,,0,,,66,36
19440,key_signature,3360,1,0,,,,,B,,,,,,,,
19440,note_on,0,0,3,,,,,,,,,2,,,42,36
19440,control_change,60,0,3,,,,,,,,,2,64,127,,
19440,note_on,26,0,1,,,,,,,,,0,,,58,36
19446,note_on,6,0,3,,,,,,,,,2,,,42,0
19500,note_on,54,0,3,,,,,,,,,2,,,46,36
19506,note_on,6,0,3,,,,,,,,,2,,,46,0
19560,note_on,120,0,1,,,,,,,,,0,,,66,0
19560,note_on,0,0,1,,,,,,,,,0,,,58,0
19560,note_on,0,0,1,,,,,,,,,0,,,68,36
19560,note_on,0,0,3,,,,,,,,,2,,,49,36
19560,control_change,54,0,3,,,,,,,,,2,64,0,,
19560,note_on,0,0,1,,,,,,,,,0,,,59,36
19566,note_on,6,0,3,,,,,,,,,2,,,49,0
19650,note_on,0,0,1,,,,,,,,,0,,,65,36
19650,note_on,90,0,1,,,,,,,,,0,,,68,0
19650,note_on,0,0,1,,,,,,,,,0,,,59,0
19650,note_on,0,0,1,,,,,,,,,0,,,61,36
19654,note_on,4,0,1,,,,,,,,,0,,,65,0
19654,note_on,0,0,1,,,,,,,,,0,,,61,0
19680,note_on,26,0,1,,,,,,,,,0,,,58,36
19680,note_on,0,0,1,,,,,,,,,0,,,66,36
19680,note_on,114,0,3,,,,,,,,,2,,,42,36
19686,note_on,6,0,3,,,,,,,,,2,,,42,0
19740,note_on,54,0,3,,,,,,,,,2,,,49,62
19746,note_on,6,0,3,,,,,,,,,2,,,49,0
19800,note_on,0,0,1,,,,,,,,,0,,,58,0
19800,note_on,120,0,1,,,,,,,,,0,,,66,0
19800,note_on,54,0,3,,,,,,,,,2,,,46,62
19806,note_on,6,0,3,,,,,,,,,2,,,46,0
19860,note_on,54,0,3,,,,,,,,,2,,,42,62
19866,note_on,6,0,3,,,,,,,,,2,,,42,0
19920,control_change,54,0,3,,,,,,,,,2,64,127,,
19920,note_on,0,0,1,,,,,,,,,0,,,75,62
19920,control_change,120,0,1,,,,,,,,,0,64,127,,
19920,note_on,0,0,3,,,,,,,,,2,,,47,101
19950,note_on,0,0,1,,,,,,,,,0,,,65,62
19950,note_on,30,0,1,,,,,,,,,0,,,75,0
19980,note_on,0,0,1,,,,,,,,,0,,,73,62
19980,note_on,30,0,1,,,,,,,,,0,,,65,0
20010,note_on,30,0,1,,,,,,,,,0,,,73,0
20010,note_on,0,0,1,,,,,,,,,0,,,65,62
20040,note_on,30,0,1,,,,,,,,,0,,,65,0
20040,note_on,0,0,1,,,,,,,,,0,,,68,62
20040,note_on,120,0,3,,,,,,,,,2,,,47,0
20040,note_on,0,0,3,,,,,,,,,2,,,49,75
20070,note_on,30,0,1,,,,,,,,,0,,,68,0
20070,note_on,0,0,1,,,,,,,,,0,,,65,62
20100,note_on,30,0,1,,,,,,,,,0,,,65,0
20100,note_on,0,0,1,,,,,,,,,0,,,73,62
20130,note_on,90,0,3,,,,,,,,,2,,,49,0
20130,control_change,0,0,3,,,,,,,,,2,64,0,,
20130,note_on,0,0,3,,,,,,,,,2,,,47,75
20130,note_on,30,0,1,,,,,,,,,0,,,73,0
20130,note_on,0,0,1,,,,,,,,,0,,,65,62
20130,control_change,0,0,1,,,,,,,,,0,64,0,,
20160,note_on,30,0,3,,,,,,,,,2,,,47,0
20160,note_on,0,0,3,,,,,,,,,2,,,46,101
20160,note_on,0,0,1,,,,,,,,,0,,,75,62
20160,control_change,0,0,1,,,,,,,,,0,64,127,,
20160,note_on,30,0,1,,,,,,,,,0,,,65,0
20160,control_change,0,0,3,,,,,,,,,2,64,127,,
20190,note_on,0,0,1,,,,,,,,,0,,,66,62
20190,note_on,30,0,1,,,,,,,,,0,,,75,0
20220,note_on,30,0,1,,,,,,,,,0,,,66,0
20220,note_on,0,0,1,,,,,,,,,0,,,73,62
20250,note_on,0,0,1,,,,,,,,,0,,,66,62
20250,note_on,30,0,1,,,,,,,,,0,,,73,0
20280,note_on,0,0,1,,,,,,,,,0,,,70,62
20280,note_on,30,0,1,,,,,,,,,0,,,66,0
20280,note_on,0,0,3,,,,,,,,,2,,,54,75
20280,note_on,120,0,3,,,,,,,,,2,,,46,0
20310,note_on,0,0,1,,,,,,,,,0,,,66,62
20310,note_on,30,0,1,,,,,,,,,0,,,70,0
20340,note_on,30,0,1,,,,,,,,,0,,,66,0
20340,note_on,0,0,1,,,,,,,,,0,,,73,62
20370,note_on,0,0,3,,,,,,,,,2,,,46,75
20370,control_change,0,0,3,,,,,,,,,2,64,0,,
20370,note_on,0,0,1,,,,,,,,,0,,,66,62
20370,control_change,0,0,1,,,,,,,,,0,64,0,,
20370,note_on,30,0,1,,,,,,,,,0,,,73,0
20370,note_on,90,0,3,,,,,,,,,2,,,54,0
20374,note_on,4,0,3,,,,,,,,,2,,,46,0
20400,note_on,0,0,3,,,,,,,,,2,,,44,75
20400,note_on,30,0,1,,,,,,,,,0,,,66,0
20400,control_change,26,0,3,,,,,,,,,2,64,127,,
20400,note_on,0,0,1,,,,,,,,,0,,,71,62
20400,control_change,0,0,1,,,,,,,,,0,64,127,,
20406,note_on,6,0,3,,,,,,,,,2,,,44,0
20430,note_on,0,0,1,,,,,,,,,0,,,61,62
20430,note_on,30,0,1,,,,,,,,,0,,,71,0
20460,note_on,0,0,1,,,,,,,,,0,,,68,62
20460,note_on,30,0,1,,,,,,,,,0,,,61,0
20460,note_on,54,0,3,,,,,,,,,2,,,47,75
20466,note_on,6,0,3,,,,,,,,,2,,,47,0
20490,note_on,30,0,1,,,,,,,,,0,,,68,0
20490,note_on,0,0,1,,,,,,,,,0,,,61,62
20520,note_on,0,0,1,,,,,,,,,0,,,66,62
20520,note_on,30,0,1,,,,,,,,,0,,,61,0
20520,note_on,3240,0,2,,,,,,,,,1,,,73,88
20520,note_on,54,0,3,,,,,,,,,2,,,39,75
20526,note_on,6,0,3,,,,,,,,,2,,,39,0
20550,note_on,0,0,1,,,,,,,,,0,,,61,62
20550,note_on,30,0,1,,,,,,,,,0,,,66,0
20580,note_on,30,0,1,,,,,,,,,0,,,61,0
20580,note_on,0,0,1,,,,,,,,,0,,,68,62
20580,note_on,0,0,3,,,,,,,,,2,,,41,75
20580,control_change,54,0,3,,,,,,,,,2,64,0,,
20586,note_on,6,0,3,,,,,,,,,2,,,41,0
20610,control_change,0,0,1,,,,,,,,,0,64,0,,
20610,note_on,0,0,1,,,,,,,,,0,,,61,62
20610,note_on,30,0,1,,,,,,,,,0,,,68,0
20640,note_on,0,0,1,,,,,,,,,0,,,70,62
20640,control_change,0,0,1,,,,,,,,,0,64,127,,
20640,note_on,0,0,3,,,,,,,,,2,,,42,75
20640,control_change,54,0,3,,,,,,,,,2,64,127,,
20640,note_on,30,0,1,,,,,,,,,0,,,61,0
20649,note_on,9,0,3,,,,,,,,,2,,,42,0
20670,note_on,150,0,2,,,,,,,,,1,,,73,0
20670,note_on,0,0,1,,,,,,,,,0,,,61,62
20670,note_on,30,0,1,,,,,,,,,0,,,70,0
20700,note_on,0,0,1,,,,,,,,,0,,,66,62
20700,note_on,30,0,1,,,,,,,,,0,,,61,0
20730,note_on,81,0,3,,,,,,,,,2,,,44,75
20730,note_on,0,0,1,,,,,,,,,0,,,70,62
20730,note_on,30,0,1,,,,,,,,,0,,,66,0
20734,note_on,4,0,3,,,,,,,,,2,,,44,0
20760,note_on,26,0,3,,,,,,,,,2,,,46,75
20760,note_on,0,0,1,,,,,,,,,0,,,72,62
20760,note_on,30,0,1,,,,,,,,,0,,,70,0
20766,note_on,6,0,3,,,,,,,,,2,,,46,0
20790,note_on,30,0,1,,,,,,,,,0,,,72,0
20790,note_on,0,0,1,,,,,,,,,0,,,73,62
20820,note_on,30,0,1,,,,,,,,,0,,,73,0
20820,control_change,54,0,3,,,,,,,,,2,64,0,,
20820,note_on,0,0,1,,,,,,,,,0,,,70,62
20850,note_on,30,0,1,,,,,,,,,0,,,70,0
20850,control_change,0,0,1,,,,,,,,,0,64,0,,
20850,note_on,0,0,1,,,,,,,,,0,,,66,62
20880,note_on,30,0,1,,,,,,,,,0,,,66,0
20880,control_change,0,0,1,,,,,,,,,0,64,127,,
20880,note_on,0,0,3,,,,,,,,,2,,,47,101
20880,control_change,60,0,3,,,,,,,,,2,64,127,,
20880,note_on,0,0,1,,,,,,,,,0,,,75,62
20910,note_on,30,0,1,,,,,,,,,0,,,75,0
20910,note_on,0,0,1,,,,,,,,,0,,,65,62
20940,note_on,30,0,1,,,,,,,,,0,,,65,0
20940,note_on,0,0,1,,,,,,,,,0,,,73,62
20970,note_on,30,0,1,,,,,,,,,0,,,73,0
20970,note_on,0,0,1,,,,,,,,,0,,,65,62
21000,note_on,0,0,3,,,,,,,,,2,,,49,75
21000,note_on,120,0,3,,,,,,,,,2,,,47,0
21000,note_on,30,0,1,,,,,,,,,0,,,65,0
21000,note_on,0,0,1,,,,,,,,,0,,,68,62
21030,note_on,30,0,1,,,,,,,,,0,,,68,0
21030,note_on,0,0,1,,,,,,,,,0,,,65,62
21060,note_on,0,0,1,,,,,,,,,0,,,73,62
21060,note_on,30,0,1,,,,,,,,,0,,,65,0
21090,note_on,0,0,1,,,,,,,,,0,,,65,62
21090,note_on,30,0,1,,,,,,,,,0,,,73,0
21090,control_change,0,0,1,,,,,,,,,0,64,0,,
21090,note_on,90,0,3,,,,,,,,,2,,,49,0
21090,control_change,0,0,3,,,,,,,,,2,64,0,,
21090,note_on,0,0,3,,,,,,,,,2,,,47,75
21120,control_change,0,0,3,,,,,,,,,2,64,127,,
21120,note_on,30,0,1,,,,,,,,,0,,,65,0
21120,control_change,0,0,1,,,,,,,,,0,64,127,,
21120,note_on,30,0,3,,,,,,,,,2,,,47,0
21120,note_on,0,0,3,,,,,,,,,2,,,46,101
21120,note_on,0,0,1,,,,,,,,,0,,,75,62
21150,note_on,0,0,1,,,,,,,,,0,,,66,62
21150,note_on,30,0,1,,,,,,,,,0,,,75,0
21180,note_on,0,0,1,,,,,,,,,0,,,73,62
21180,note_on,30,0,1,,,,,,,,,0,,,66,0
21210,note_on,0,0,1,,,,,,,,,0,,,66,62
21210,note_on,30,0,1,,,,,,,,,0,,,73,0
21240,note_on,30,0,1,,,,,,,,,0,,,66,0
21240,note_on,0,0,1,,,,,,,,,0,,,70,62
21240,note_on,120,0,3,,,,,,,,,2,,,46,0
21240,note_on,0,0,3,,,,,,,,,2,,,54,75
21270,note_on,30,0,1,,,,,,,,,0,,,70,0
21270,note_on,0,0,1,,,,,,,,,0,,,66,62
21300,note_on,30,0,1,,,,,,,,,0,,,66,0
21300,note_on,0,0,1,,,,,,,,,0,,,73,62
21330,control_change,0,0,3,,,,,,,,,2,64,0,,
21330,note_on,0,0,3,,,,,,,,,2,,,46,75
21330,note_on,90,0,3,,,,,,,,,2,,,54,0
21330,note_on,30,0,1,,,,,,,,,0,,,73,0
21330,control_change,0,0,1,,,,,,,,,0,64,0,,
21330,note_on,0,0,1,,,,,,,,,0,,,66,62
21334,note_on,4,0,3,,,,,,,,,2,,,46,0
21360,note_on,30,0,1,,,,,,,,,0,,,66,0
21360,control_change,0,0,1,,,,,,,,,0,64,127,,
21360,control_change,26,0,3,,,,,,,,,2,64,127,,
21360,note_on,0,0,3,,,,,,,,,2,,,44,75
21360,note_on,0,0,1,,,,,,,,,0,,,71,62
21366,note_on,6,0,3,,,,,,,,,2,,,44,0
21390,note_on,30,0,1,,,,,,,,,0,,,71,0
21390,note_on,0,0,1,,,,,,,,,0,,,61,62
21420,note_on,0,0,1,,,,,,,,,0,,,68,62
21420,note_on,54,0,3,,,,,,,,,2,,,47,75
21420,note_on,30,0,1,,,,,,,,,0,,,61,0
21426,note_on,6,0,3,,,,,,,,,2,,,47,0
21450,note_on,0,0,1,,,,,,,,,0,,,61,62
21450,note_on,30,0,1,,,,,,,,,0,,,68,0
21480,note_on,810,0,2,,,,,,,,,1,,,73,88
21480,note_on,0,0,1,,,,,,,,,0,,,66,62
21480,note_on,30,0,1,,,,,,,,,0,,,61,0
21480,note_on,54,0,3,,,,,,,,,2,,,39,75
21486,note_on,6,0,3,,,,,,,,,2,,,39,0
21510,note_on,0,0,1,,,,,,,,,0,,,61,62
21510,note_on,30,0,1,,,,,,,,,0,,,66,0
21540,control_change,54,0,3,,,,,,,,,2,64,0,,
21540,note_on,0,0,3,,,,,,,,,2,,,41,75
21540,note_on,0,0,1,,,,,,,,,0,,,68,62
21540,note_on,30,0,1,,,,,,,,,0,,,61,0
21546,note_on,6,0,3,,,,,,,,,2,,,41,0
21570,note_on,0,0,1,,,,,,,,,0,,,61,62
21570,note_on,30,0,1,,,,,,,,,0,,,68,0
21570,control_change,0,0,1,,,,,,,,,0,64,0,,
21600,control_change,54,0,3,,,,,,,,,2,64,127,,
21600,control_change,0,0,1,,,,,,,,,0,64,127,,
21600,note_on,0,0,1,,,,,,,,,0,,,70,62
21600,note_on,30,0,1,,,,,,,,,0,,,61,0
21600,note_on,0,0,3,,,,,,,,,2,,,42,75
21609,note_on,9,0,3,,,,,,,,,2,,,42,0
21630,note_on,150,0,2,,,,,,,,,1,,,73,0
21630,note_on,30,0,1,,,,,,,,,0,,,70,0
21630,note_on,0,0,1,,,,,,,,,0,,,61,62
21660,note_on,0,0,1,,,,,,,,,0,,,66,62
21660,note_on,30,0,1,,,,,,,,,0,,,61,0
21690,note_on,30,0,1,,,,,,,,,0,,,66,0
21690,note_on,81,0,3,,,,,,,,,2,,,44,75
21690,note_on,0,0,1,,,,,,,,,0,,,70,62
21694,note_on,4,0,3,,,,,,,,,2,,,44,0
21720,note_on,26,0,3,,,,,,,,,2,,,46,75
21720,note_on,30,0,1,,,,,,,,,0,,,70,0
21720,note_on,0,0,1,,,,,,,,,0,,,72,62
21726,note_on,6,0,3,,,,,,,,,2,,,46,0
21750,note_on,30,0,1,,,,,,,,,0,,,72,0
21750,note_on,0,0,1,,,,,,,,,0,,,73,62
21780,control_change,54,0,3,,,,,,,,,2,64,0,,
21780,note_on,30,0,1,,,,,,,,,0,,,73,0
21780,note_on,0,0,1,,,,,,,,,0,,,70,62
21810,note_on,30,0,1,,,,,,,,,0,,,70,0
21810,control_change,0,0,1,,,,,,,,,0,64,0,,
21810,note_on,0,0,1,,,,,,,,,0,,,66,62
21840,note_on,0,0,1,,,,,,,,,0,,,68,62
21840,note_on,30,0,1,,,,,,,,,0,,,66,0
21840,control_change,0,0,1,,,,,,,,,0,64,127,,
21840,control_change,60,0,3,,,,,,,,,2,64,127,,
21840,note_on,0,0,3,,,,,,,,,2,,,53,75
21846,note_on,6,0,3,,,,,,,,,2,,,53,0
21870,note_on,0,0,1,,,,,,,,,0,,,58,62
21870,note_on,30,0,1,,,,,,,,,0,,,68,0
21900,note_on,30,0,1,,,,,,,,,0,,,58,0
21900,note_on,0,0,1,,,,,,,,,0,,,65,62
21900,note_on,54,0,3,,,,,,,,,2,,,56,75
21906,note_on,6,0,3,,,,,,,,,2,,,56,0
21930,note_on,0,0,1,,,,,,,,,0,,,58,62
21930,note_on,30,0,1,,,,,,,,,0,,,65,0
21960,note_on,0,0,1,,,,,,,,,0,,,63,62
21960,note_on,54,0,3,,,,,,,,,2,,,48,75
21960,note_on,330,0,2,,,,,,,,,1,,,70,88
21960,note_on,30,0,1,,,,,,,,,0,,,58,0
21966,note_on,6,0,3,,,,,,,,,2,,,48,0
21990,note_on,30,0,1,,,,,,,,,0,,,63,0
21990,note_on,0,0,1,,,,,,,,,0,,,58,62
22020,note_on,0,0,1,,,,,,,,,0,,,65,62
22020,note_on,30,0,1,,,,,,,,,0,,,58,0
22020,note_on,0,0,3,,,,,,,,,2,,,50,75
22020,control_change,54,0,3,,,,,,,,,2,64,0,,
22026,note_on,6,0,3,,,,,,,,,2,,,50,0
22050,note_on,30,0,1,,,,,,,,,0,,,65,0
22050,control_change,0,0,1,,,,,,,,,0,64,0,,
22050,note_on,0,0,1,,,,,,,,,0,,,58,62
22080,note_on,30,0,1,,,,,,,,,0,,,58,0
22080,control_change,0,0,1,,,,,,,,,0,64,127,,
22080,note_on,0,0,1,,,,,,,,,0,,,66,62
22080,note_on,0,0,3,,,,,,,,,2,,,51,75
22080,control_change,54,0,3,,,,,,,,,2,64,127,,
22089,note_on,9,0,3,,,,,,,,,2,,,51,0
22110,note_on,30,0,1,,,,,,,,,0,,,66,0
22110,note_on,0,0,1,,,,,,,,,0,,,58,62
22110,note_on,150,0,2,,,,,,,,,1,,,70,0
22140,note_on,0,0,1,,,,,,,,,0,,,63,62
22140,note_on,30,0,1,,,,,,,,,0,,,58,0
22170,note_on,81,0,3,,,,,,,,,2,,,53,75
22170,note_on,0,0,1,,,,,,,,,0,,,66,62
22170,note_on,30,0,1,,,,,,,,,0,,,63,0
22174,note_on,4,0,3,,,,,,,,,2,,,53,0
22200,note_on,0,0,1,,,,,,,,,0,,,69,62
22200,note_on,30,0,1,,,,,,,,,0,,,66,0
22200,note_on,26,0,3,,,,,,,,,2,,,54,75
22206,note_on,6,0,3,,,,,,,,,2,,,54,0
22230,note_on,0,0,1,,,,,,,,,0,,,70,62
22230,note_on,30,0,1,,,,,,,,,0,,,69,0
22260,note_on,0,0,1,,,,,,,,,0,,,66,62
22260,control_change,54,0,3,,,,,,,,,2,64,0,,
22260,note_on,30,0,1,,,,,,,,,0,,,70,0
22290,control_change,0,0,1,,,,,,,,,0,64,0,,
22290,note_on,0,0,1,,,,,,,,,0,,,63,62
22290,note_on,30,0,1,,,,,,,,,0,,,66,0
22320,note_on,0,0,1,,,,,,,,,0,,,64,62
22320,control_change,0,0,1,,,,,,,,,0,64,127,,
22320,note_on,30,0,1,,,,,,,,,0,,,63,0
22320,note_on,0,0,3,,,,,,,,,2,,,49,75
22320,control_change,60,0,3,,,,,,,,,2,64,127,,
22326,note_on,6,0,3,,,,,,,,,2,,,49,0
22350,note_on,30,0,1,,,,,,,,,0,,,64,0
22350,note_on,0,0,1,,,,,,,,,0,,,54,62
22380,control_change,0,0,1,,,,,,,,,0,64,0,,
22380,note_on,0,0,3,,,,,,,,,2,,,52,75
22380,control_change,54,0,3,,,,,,,,,2,64,0,,
22380,note_on,30,0,1,,,,,,,,,0,,,54,0
22380,note_on,0,0,1,,,,,,,,,0,,,61,62
22386,note_on,6,0,3,,,,,,,,,2,,,52,0
22410,note_on,30,0,1,,,,,,,,,0,,,61,0
22410,note_on,0,0,1,,,,,,,,,0,,,54,62
22440,note_on,54,0,3,,,,,,,,,2,,,44,75
22440,note_on,330,0,2,,,,,,,,,1,,,66,88
22440,note_on,30,0,1,,,,,,,,,0,,,54,0
22440,note_on,0,0,1,,,,,,,,,0,,,59,62
22446,note_on,6,0,3,,,,,,,,,2,,,44,0
22470,note_on,30,0,1,,,,,,,,,0,,,59,0
22470,note_on,0,0,1,,,,,,,,,0,,,54,62
22500,note_on,30,0,1,,,,,,,,,0,,,54,0
22500,note_on,0,0,1,,,,,,,,,0,,,61,62
22500,note_on,54,0,3,,,,,,,,,2,,,46,75
22506,note_on,6,0,3,,,,,,,,,2,,,46,0
22530,note_on,30,0,1,,,,,,,,,0,,,61,0
22530,note_on,0,0,1,,,,,,,,,0,,,54,62
22560,note_on,0,0,3,,,,,,,,,2,,,47,75
22560,control_change,54,0,3,,,,,,,,,2,64,127,,
22560,note_on,0,0,1,,,,,,,,,0,,,63,62
22560,note_on,30,0,1,,,,,,,,,0,,,54,0
22560,control_change,0,0,1,,,,,,,,,0,64,127,,
22569,note_on,9,0,3,,,,,,,,,2,,,47,0
22590,note_on,150,0,2,,,,,,,,,1,,,66,0
22590,note_on,0,0,1,,,,,,,,,0,,,54,62
22590,note_on,30,0,1,,,,,,,,,0,,,63,0
22620,note_on,30,0,1,,,,,,,,,0,,,54,0
22620,note_on,0,0,1,,,,,,,,,0,,,59,62
22650,note_on,0,0,1,,,,,,,,,0,,,63,62
22650,note_on,30,0,1,,,,,,,,,0,,,59,0
22650,note_on,81,0,3,,,,,,,,,2,,,49,75
22654,note_on,4,0,3,,,,,,,,,2,,,49,0
22680,note_on,30,0,1,,,,,,,,,0,,,63,0
22680,note_on,26,0,3,,,,,,,,,2,,,51,75
22680,note_on,0,0,1,,,,,,,,,0,,,65,62
22686,note_on,6,0,3,,,,,,,,,2,,,51,0
22710,note_on,0,0,1,,,,,,,,,0,,,66,62
22710,note_on,30,0,1,,,,,,,,,0,,,65,0
22740,note_on,0,0,1,,,,,,,,,0,,,63,62
22740,control_change,54,0,3,,,,,,,,,2,64,0,,
22740,note_on,30,0,1,,,,,,,,,0,,,66,0
22770,note_on,0,0,1,,,,,,,,,0,,,59,62
22770,control_change,0,0,1,,,,,,,,,0,64,0,,
22770,note_on,30,0,1,,,,,,,,,0,,,63,0
22800,control_change,0,0,1,,,,,,,,,0,64,127,,
22800,note_on,0,0,1,,,,,,,,,0,,,58,62
22800,note_on,0,0,3,,,,,,,,,2,,,49,75
22800,control_change,60,0,3,,,,,,,,,2,64,127,,
22800,note_on,30,0,1,,,,,,,,,0,,,59,0
22806,note_on,6,0,3,,,,,,,,,2,,,49,0
22830,note_on,30,0,1,,,,,,,,,0,,,58,0
22830,note_on,0,0,1,,,,,,,,,0,,,61,62
22860,note_on,54,0,3,,,,,,,,,2,,,54,114
22860,note_on,0,0,1,,,,,,,,,0,,,70,62
22860,note_on,30,0,1,,,,,,,,,0,,,61,0
22866,note_on,6,0,3,,,,,,,,,2,,,54,0
22890,note_on,30,0,1,,,,,,,,,0,,,70,0
22890,note_on,0,0,1,,,,,,,,,0,,,66,62
22920,note_on,0,0,1,,,,,,,,,0,,,59,62
22920,note_on,54,0,3,,,,,,,,,2,,,49,75
22920,note_on,30,0,1,,,,,,,,,0,,,66,0
22926,note_on,6,0,3,,,,,,,,,2,,,49,0
22950,note_on,0,0,1,,,,,,,,,0,,,61,62
22950,note_on,30,0,1,,,,,,,,,0,,,59,0
22980,control_change,54,0,3,,,,,,,,,2,64,0,,
22980,note_on,0,0,3,,,,,,,,,2,,,56,114
22980,note_on,0,0,1,,,,,,,,,0,,,71,62
22980,note_on,30,0,1,,,,,,,,,0,,,61,0
22986,note_on,6,0,3,,,,,,,,,2,,,56,0
23010,control_change,0,0,1,,,,,,,,,0,64,0,,
23010,note_on,0,0,1,,,,,,,,,0,,,65,62
23010,note_on,30,0,1,,,,,,,,,0,,,71,0
23040,note_on,0,0,1,,,,,,,,,0,,,58,62
23040,control_change,0,0,1,,,,,,,,,0,64,127,,
23040,note_on,30,0,1,,,,,,,,,0,,,65,0
23040,control_change,54,0,3,,,,,,,,,2,64,127,,
23040,note_on,0,0,3,,,,,,,,,2,,,54,75
23046,note_on,6,0,3,,,,,,,,,2,,,54,0
23070,note_on,0,0,1,,,,,,,,,0,,,66,62
23070,note_on,30,0,1,,,,,,,,,0,,,58,0
23100,note_on,30,0,1,,,,,,,,,0,,,66,0
23100,control_change,54,0,3,,,,,,,,,2,64,0,,
23100,note_on,0,0,1,,,,,,,,,0,,,61,62
23130,note_on,30,0,1,,,,,,,,,0,,,61,0
23130,note_on,0,0,1,,,,,,,,,0,,,70,62
23160,note_on,30,0,1,,,,,,,,,0,,,70,0
23160,note_on,0,0,1,,,,,,,,,0,,,66,62
23190,note_on,30,0,1,,,,,,,,,0,,,66,0
23190,note_on,0,0,1,,,,,,,,,0,,,73,62
23220,note_on,30,0,1,,,,,,,,,0,,,73,0
23220,note_on,0,0,1,,,,,,,,,0,,,70,62
23250,note_on,30,0,1,,,,,,,,,0,,,70,0
23250,note_on,0,0,1,,,,,,,,,0,,,78,62
23250,control_change,0,0,1,,,,,,,,,0,64,0,,
23280,note_on,30,0,1,,,,,,,,,0,,,78,0
23280,control_change,0,0,1,,,,,,,,,0,64,127,,
23280,note_on,0,0,1,,,,,,,,,0,,,70,62
23280,control_change,180,0,3,,,,,,,,,2,64,127,,
23280,note_on,0,0,3,,,,,,,,,2,,,61,75
23286,note_on,6,0,3,,,,,,,,,2,,,61,0
23310,note_on,30,0,1,,,,,,,,,0,,,70,0
23310,note_on,0,0,1,,,,,,,,,0,,,73,62
23340,note_on,0,0,1,,,,,,,,,0,,,82,62
23340,note_on,30,0,1,,,,,,,,,0,,,73,0
23340,note_on,54,0,3,,,,,,,,,2,,,66,114
23346,note_on,6,0,3,,,,,,,,,2,,,66,0
23370,note_on,0,0,1,,,,,,,,,0,,,78,62
23370,note_on,30,0,1,,,,,,,,,0,,,82,0
23400,note_on,30,0,1,,,,,,,,,0,,,78,0
23400,note_on,0,0,1,,,,,,,,,0,,,71,62
23400,note_on,54,0,3,,,,,,,,,2,,,61,75
23406,note_on,6,0,3,,,,,,,,,2,,,61,0
23430,note_on,0,0,1,,,,,,,,,0,,,73,62
23430,note_on,30,0,1,,,,,,,,,0,,,71,0
23460,control_change,54,0,3,,,,,,,,,2,64,0,,
23460,note_on,0,0,3,,,,,,,,,2,,,68,114
23460,note_on,30,0,1,,,,,,,,,0,,,73,0
23460,note_on,0,0,1,,,,,,,,,0,,,83,62
23466,note_on,6,0,3,,,,,,,,,2,,,68,0
23490,control_change,0,0,1,,,,,,,,,0,64,0,,
23490,note_on,0,0,1,,,,,,,,,0,,,77,62
23490,note_on,30,0,1,,,,,,,,,0,,,83,0
23520,control_change,0,0,1,,,,,,,,,0,64,127,,
23520,note_on,0,0,1,,,,,,,,,0,,,70,62
23520,note_on,0,0,3,,,,,,,,,2,,,66,75
23520,control_change,54,0,3,,,,,,,,,2,64,127,,
23520,note_on,30,0,1,,,,,,,,,0,,,77,0
23526,note_on,6,0,3,,,,,,,,,2,,,66,0
23550,note_on,30,0,1,,,,,,,,,0,,,70,0
23550,note_on,0,0,1,,,,,,,,,0,,,78,62
23580,note_on,0,0,1,,,,,,,,,0,,,73,62
23580,control_change,54,0,3,,,,,,,,,2,64,0,,
23580,note_on,30,0,1,,,,,,,,,0,,,78,0
23610,note_on,0,0,1,,,,,,,,,0,,,82,62
23610,note_on,30,0,1,,,,,,,,,0,,,73,0
23640,note_on,30,0,1,,,,,,,,,0,,,82,0
23640,note_on,0,0,1,,,,,,,,,0,,,78,62
23670,note_on,30,0,1,,,,,,,,,0,,,78,0
23670,note_on,0,0,1,,,,,,,,,0,,,85,62
23700,note_on,30,0,1,,,,,,,,,0,,,85,0
23700,note_on,0,0,1,,,,,,,,,0,,,82,62
23730,note_on,0,0,1,,,,,,,,,0,,,78,62
23730,control_change,0,0,1,,,,,,,,,0,64,0,,
23730,note_on,30,0,1,,,,,,,,,0,,,82,0
23760,note_on,0,0,2,,,,,,,,,1,,,71,36
23760,control_change,1170,0,2,,,,,,,,,1,64,127,,
23760,control_change,180,0,3,,,,,,,,,2,64,127,,
23760,note_on,0,0,3,,,,,,,,,2,,,49,75
23760,control_change,0,0,1,,,,,,,,,0,64,127,,
23760,note_on,0,0,1,,,,,,,,,0,,,80,75
23760,note_on,30,0,1,,,,,,,,,0,,,78,0
23790,note_on,30,0,2,,,,,,,,,1,,,71,0
23790,note_on,0,0,2,,,,,,,,,1,,,73,36
23820,note_on,60,0,1,,,,,,,,,0,,,80,0
23820,note_on,30,0,2,,,,,,,,,1,,,73,0
23820,note_on,0,0,2,,,,,,,,,1,,,71,36
23820,note_on,0,0,1,,,,,,,,,0,,,83,75
23850,note_on,30,0,2,,,,,,,,,1,,,71,0
23850,note_on,0,0,2,,,,,,,,,1,,,73,36
23880,note_on,120,0,3,,,,,,,,,2,,,49,0
23880,note_on,60,0,1,,,,,,,,,0,,,83,0
23880,note_on,30,0,2,,,,,,,,,1,,,73,0
23880,note_on,0,0,2,,,,,,,,,1,,,71,36
23880,note_on,0,0,1,,,,,,,,,0,,,75,75
23910,note_on,30,0,2,,,,,,,,,1,,,71,0
23910,note_on,0,0,2,,,,,,,,,1,,,73,36
23940,note_on,0,0,3,,,,,,,,,2,,,61,101
23940,control_change,60,0,3,,,,,,,,,2,64,0,,
23940,note_on,60,0,1,,,,,,,,,0,,,75,0
23940,note_on,0,0,2,,,,,,,,,1,,,71,36
23940,note_on,30,0,2,,,,,,,,,1,,,73,0
23940,control_change,0,0,1,,,,,,,,,0,64,0,,
23940,note_on,0,0,1,,,,,,,,,0,,,77,75
23970,note_on,30,0,2,,,,,,,,,1,,,71,0
23970,control_change,0,0,2,,,,,,,,,1,64,0,,
23970,note_on,0,0,2,,,,,,,,,1,,,73,36
24000,control_change,0,0,2,,,,,,,,,1,64,127,,
24000,note_on,0,0,2,,,,,,,,,1,,,70,36
24000,note_on,0,0,1,,,,,,,,,0,,,80,75
24000,note_on,60,0,1,,,,,,,,,0,,,77,0
24000,note_on,60,0,3,,,,,,,,,2,,,61,0
24000,control_change,0,0,3,,,,,,,,,2,64,127,,
24000,note_on,0,0,3,,,,,,,,,2,,,54,75
24000,control_change,0,0,1,,,,,,,,,0,64,127,,
24000,note_on,30,0,2,,,,,,,,,1,,,73,0
24030,note_on,30,0,2,,,,,,,,,1,,,70,0
24030,note_on,0,0,2,,,,,,,,,1,,,73,36
24060,note_on,30,0,2,,,,,,,,,1,,,73,0
24060,note_on,60,0,1,,,,,,,,,0,,,80,0
24060,note_on,0,0,2,,,,,,,,,1,,,70,36
24060,note_on,60,0,3,,,,,,,,,2,,,54,0
24060,note_on,0,0,3,,,,,,,,,2,,,58,75
24060,note_on,0,0,1,,,,,,,,,0,,,78,75
24066,note_on,6,0,3,,,,,,,,,2,,,58,0
24090,note_on,30,0,2,,,,,,,,,1,,,70,0
24090,note_on,0,0,2,,,,,,,,,1,,,73,36
24120,note_on,54,0,3,,,,,,,,,2,,,46,75
24120,note_on,0,0,2,,,,,,,,,1,,,73,36
24120,note_on,30,0,2,,,,,,,,,1,,,73,0
24120,note_on,60,0,1,,,,,,,,,0,,,78,0
24126,note_on,6,0,3,,,,,,,,,2,,,46,0
24150,note_on,0,0,2,,,,,,,,,1,,,78,36
24150,note_on,30,0,2,,,,,,,,,1,,,73,0
24180,note_on,30,0,2,,,,,,,,,1,,,78,0
24180,control_change,60,0,1,,,,,,,,,0,64,0,,
24180,note_on,0,0,2,,,,,,,,,1,,,75,36
24180,control_change,54,0,3,,,,,,,,,2,64,0,,
24180,note_on,0,0,3,,,,,,,,,2,,,48,75
24180,note_on,0,0,1,,,,,,,,,0,,,82,75
24186,note_on,6,0,3,,,,,,,,,2,,,48,0
24210,note_on,30,0,2,,,,,,,,,1,,,75,0
24210,control_change,0,0,2,,,,,,,,,1,64,0,,
24210,note_on,0,0,2,,,,,,,,,1,,,78,36
24240,note_on,60,0,1,,,,,,,,,0,,,82,0
24240,control_change,0,0,1,,,,,,,,,0,64,127,,
24240,control_change,0,0,2,,,,,,,,,1,64,127,,
24240,note_on,0,0,3,,,,,,,,,2,,,49,75
24240,note_on,0,0,1,,,,,,,,,0,,,80,75
24240,control_change,54,0,3,,,,,,,,,2,64,127,,
24240,note_on,30,0,2,,,,,,,,,1,,,78,0
24240,note_on,0,0,2,,,,,,,,,1,,,77,36
24246,note_on,6,0,3,,,,,,,,,2,,,49,0
24270,note_on,0,0,2,,,,,,,,,1,,,73,36
24270,note_on,30,0,2,,,,,,,,,1,,,77,0
24300,note_on,54,0,3,,,,,,,,,2,,,37,75
24300,note_on,60,0,1,,,,,,,,,0,,,80,0
24300,note_on,0,0,1,,,,,,,,,0,,,83,75
24300,note_on,30,0,2,,,,,,,,,1,,,73,0
24300,note_on,0,0,2,,,,,,,,,1,,,71,36
24306,note_on,6,0,3,,,,,,,,,2,,,37,0
24330,note_on,30,0,2,,,,,,,,,1,,,71,0
24330,note_on,0,0,2,,,,,,,,,1,,,73,36
24360,note_on,30,0,2,,,,,,,,,1,,,73,0
24360,note_on,0,0,2,,,,,,,,,1,,,71,36
24360,note_on,60,0,1,,,,,,,,,0,,,83,0
24360,note_on,0,0,1,,,,,,,,,0,,,75,75
24390,note_on,30,0,2,,,,,,,,,1,,,71,0
24390,note_on,0,0,2,,,,,,,,,1,,,73,36
24420,note_on,0,0,3,,,,,,,,,2,,,61,101
24420,control_change,0,0,1,,,,,,,,,0,64,0,,
24420,control_change,114,0,3,,,,,,,,,2,64,0,,
24420,note_on,60,0,1,,,,,,,,,0,,,75,0
24420,note_on,30,0,2,,,,,,,,,1,,,73,0
24420,note_on,0,0,1,,,,,,,,,0,,,77,75
24420,note_on,0,0,2,,,,,,,,,1,,,71,36
24450,control_change,0,0,2,,,,,,,,,1,64,0,,
24450,note_on,0,0,2,,,,,,,,,1,,,73,36
24450,note_on,30,0,2,,,,,,,,,1,,,71,0
24480,note_on,60,0,3,,,,,,,,,2,,,61,0
24480,control_change,0,0,3,,,,,,,,,2,64,127,,
24480,control_change,0,0,2,,,,,,,,,1,64,127,,
24480,control_change,0,0,1,,,,,,,,,0,64,127,,
24480,note_on,0,0,2,,,,,,,,,1,,,70,36
24480,note_on,30,0,2,,,,,,,,,1,,,73,0
24480,note_on,0,0,1,,,,,,,,,0,,,80,75
24480,note_on,0,0,3,,,,,,,,,2,,,54,75
24480,note_on,60,0,1,,,,,,,,,0,,,77,0
24510,note_on,30,0,2,,,,,,,,,1,,,70,0
24510,note_on,0,0,2,,,,,,,,,1,,,73,36
24540,note_on,60,0,1,,,,,,,,,0,,,80,0
24540,note_on,0,0,1,,,,,,,,,0,,,78,75
24540,note_on,60,0,3,,,,,,,,,2,,,54,0
24540,note_on,0,0,2,,,,,,,,,1,,,70,36
24540,note_on,30,0,2,,,,,,,,,1,,,73,0
24540,note_on,0,0,3,,,,,,,,,2,,,58,75
24546,note_on,6,0,3,,,,,,,,,2,,,58,0
24570,note_on,0,0,2,,,,,,,,,1,,,73,36
24570,note_on,30,0,2,,,,,,,,,1,,,70,0
24600,note_on,0,0,2,,,,,,,,,1,,,73,36
24600,note_on,30,0,2,,,,,,,,,1,,,73,0
24600,note_on,54,0,3,,,,,,,,,2,,,46,75
24600,note_on,60,0,1,,,,,,,,,0,,,78,0
24606,note_on,6,0,3,,,,,,,,,2,,,46,0
24630,note_on,30,0,2,,,,,,,,,1,,,73,0
24630,note_on,0,0,2,,,,,,,,,1,,,78,36
24660,note_on,0,0,3,,,,,,,,,2,,,48,75
24660,note_on,30,0,2,,,,,,,,,1,,,78,0
24660,control_change,54,0,3,,,,,,,,,2,64,0,,
24660,control_change,60,0,1,,,,,,,,,0,64,0,,
24660,note_on,0,0,1,,,,,,,,,0,,,82,75
24660,note_on,0,0,2,,,,,,,,,1,,,75,36
24666,note_on,6,0,3,,,,,,,,,2,,,48,0
24690,note_on,30,0,2,,,,,,,,,1,,,75,0
24690,control_change,0,0,2,,,,,,,,,1,64,0,,
24690,note_on,0,0,2,,,,,,,,,1,,,78,36
24720,control_change,54,0,3,,,,,,,,,2,64,127,,
24720,note_on,30,0,2,,,,,,,,,1,,,78,0
24720,control_change,0,0,2,,,,,,,,,1,64,127,,
24720,note_on,0,0,2,,,,,,,,,1,,,77,36
24720,note_on,0,0,3,,,,,,,,,2,,,49,75
24720,note_on,60,0,1,,,,,,,,,0,,,82,0
24720,control_change,0,0,1,,,,,,,,,0,64,127,,
24720,note_on,0,0,1,,,,,,,,,0,,,80,75
24750,note_on,30,0,2,,,,,,,,,1,,,77,0
24750,note_on,0,0,2,,,,,,,,,1,,,73,36
24780,note_on,0,0,2,,,,,,,,,1,,,72,36
24780,note_on,0,0,3,,,,,,,,,2,,,53,75
24780,note_on,60,0,3,,,,,,,,,2,,,49,0
24780,note_on,30,0,2,,,,,,,,,1,,,73,0
24810,note_on,30,0,2,,,,,,,,,1,,,72,0
24810,note_on,0,0,2,,,,,,,,,1,,,73,36
24840,note_on,0,0,3,,,,,,,,,2,,,54,75
24840,note_on,120,0,1,,,,,,,,,0,,,80,0
24840,note_on,30,0,2,,,,,,,,,1,,,73,0
24840,note_on,60,0,3,,,,,,,,,2,,,53,0
24840,note_on,0,0,2,,,,,,,,,1,,,70,36
24840,note_on,0,0,1,,,,,,,,,0,,,75,75
24870,note_on,30,0,2,,,,,,,,,1,,,70,0
24870,note_on,0,0,2,,,,,,,,,1,,,73,36
24900,note_on,0,0,1,,,,,,,,,0,,,78,75
24900,control_change,0,0,3,,,,,,,,,2,64,0,,
24900,note_on,0,0,3,,,,,,,,,2,,,56,75
24900,note_on,60,0,1,,,,,,,,,0,,,75,0
24900,note_on,60,0,3,,,,,,,,,2,,,54,0
24900,note_on,30,0,2,,,,,,,,,1,,,73,0
24900,note_on,0,0,2,,,,,,,,,1,,,72,36
24900,control_change,0,0,1,,,,,,,,,0,64,0,,
24930,note_on,30,0,2,,,,,,,,,1,,,72,0
24930,control_change,0,0,2,,,,,,,,,1,64,0,,
24930,note_on,0,0,2,,,,,,,,,1,,,75,36
24960,note_on,60,0,3,,,,,,,,,2,,,56,0
24960,control_change,0,0,2,,,,,,,,,1,64,127,,
24960,note_on,0,0,1,,,,,,,,,0,,,77,75
24960,note_on,60,0,1,,,,,,,,,0,,,78,0
24960,note_on,0,0,2,,,,,,,,,1,,,73,36
24960,note_on,30,0,2,,,,,,,,,1,,,75,0
24960,control_change,0,0,3,,,,,,,,,2,64,127,,
24960,note_on,0,0,3,,,,,,,,,2,,,61,75
24990,note_on,0,0,2,,,,,,,,,1,,,68,36
24990,note_on,30,0,2,,,,,,,,,1,,,73,0
25020,note_on,0,0,2,,,,,,,,,1,,,65,36
25020,note_on,60,0,3,,,,,,,,,2,,,61,0
25020,note_on,0,0,3,,,,,,,,,2,,,49,75
25020,note_on,30,0,2,,,,,,,,,1,,,68,0
25050,note_on,30,0,2,,,,,,,,,1,,,65,0
25050,note_on,0,0,2,,,,,,,,,1,,,68,36
25080,note_on,0,0,2,,,,,,,,,1,,,66,36
25080,note_on,120,0,1,,,,,,,,,0,,,77,0
25080,note_on,60,0,3,,,,,,,,,2,,,49,0
25080,note_on,0,0,3,,,,,,,,,2,,,51,75
25080,note_on,30,0,2,,,,,,,,,1,,,68,0
25110,note_on,30,0,2,,,,,,,,,1,,,66,0
25110,note_on,0,0,2,,,,,,,,,1,,,71,36
25140,note_on,30,0,2,,,,,,,,,1,,,71,0
25140,note_on,0,0,2,,,,,,,,,1,,,68,36
25140,note_on,60,0,1,,,,,,,,,0,,,75,75
25140,note_on,60,0,3,,,,,,,,,2,,,51,0
25140,control_change,0,0,3,,,,,,,,,2,64,0,,
25140,note_on,0,0,3,,,,,,,,,2,,,53,75
25170,note_on,30,0,2,,,,,,,,,1,,,68,0
25170,control_change,0,0,2,,,,,,,,,1,64,0,,
25170,note_on,0,0,2,,,,,,,,,1,,,71,36
25200,note_on,60,0,3,,,,,,,,,2,,,53,0
25200,note_on,0,0,1,,,,,,,,,0,,,73,49
25200,control_change,0,0,1,,,,,,,,,0,64,127,,
25200,note_on,60,0,1,,,,,,,,,0,,,75,0
25200,note_on,0,0,3,,,,,,,,,2,,,54,49
25200,control_change,0,0,3,,,,,,,,,2,64,127,,
25200,control_change,0,0,2,,,,,,,,,1,64,127,,
25200,note_on,30,0,2,,,,,,,,,1,,,71,0
25200,note_on,0,0,2,,,,,,,,,1,,,70,36
25230,note_on,30,0,2,,,,,,,,,1,,,70,0
25230,note_on,0,0,2,,,,,,,,,1,,,66,36
25260,note_on,30,0,2,,,,,,,,,1,,,66,0
25260,note_on,0,0,2,,,,,,,,,1,,,65,36
25260,note_on,60,0,3,,,,,,,,,2,,,54,0
25260,note_on,0,0,3,,,,,,,,,2,,,46,49
25290,note_on,30,0,2,,,,,,,,,1,,,65,0
25290,note_on,0,0,2,,,,,,,,,1,,,66,36
25320,note_on,0,0,3,,,,,,,,,2,,,47,49
25320,note_on,60,0,3,,,,,,,,,2,,,46,0
25320,note_on,120,0,1,,,,,,,,,0,,,73,0
25320,note_on,0,0,1,,,,,,,,,0,,,68,49
25320,note_on,0,0,2,,,,,,,,,1,,,63,36
25320,note_on,30,0,2,,,,,,,,,1,,,66,0
25350,note_on,30,0,2,,,,,,,,,1,,,63,0
25350,note_on,0,0,2,,,,,,,,,1,,,66,36
25380,control_change,0,0,3,,,,,,,,,2,64,0,,
25380,control_change,0,0,1,,,,,,,,,0,64,0,,
25380,note_on,0,0,3,,,,,,,,,2,,,49,49
25380,note_on,60,0,3,,,,,,,,,2,,,47,0
25380,note_on,0,0,1,,,,,,,,,0,,,71,49
25380,note_on,60,0,1,,,,,,,,,0,,,68,0
25380,note_on,30,0,2,,,,,,,,,1,,,66,0
25380,note_on,0,0,2,,,,,,,,,1,,,65,36
25410,note_on,30,0,2,,,,,,,,,1,,,65,0
25410,control_change,0,0,2,,,,,,,,,1,64,0,,
25410,note_on,0,0,2,,,,,,,,,1,,,68,36
25440,note_on,30,0,2,,,,,,,,,1,,,68,0
25440,note_on,60,0,3,,,,,,,,,2,,,49,0
25440,control_change,0,0,3,,,,,,,,,2,64,127,,
25440,note_on,0,0,3,,,,,,,,,2,,,54,49
25440,note_on,0,0,1,,,,,,,,,0,,,70,49
25440,control_change,0,0,1,,,,,,,,,0,64,127,,
25440,note_on,60,0,1,,,,,,,,,0,,,71,0
25440,control_change,0,0,2,,,,,,,,,1,64,127,,
25440,note_on,0,0,2,,,,,,,,,1,,,66,36
25470,note_on,30,0,2,,,,,,,,,1,,,66,0
25470,note_on,0,0,2,,,,,,,,,1,,,61,36
25500,note_on,60,0,3,,,,,,,,,2,,,54,0
25500,note_on,0,0,3,,,,,,,,,2,,,42,49
25500,note_on,30,0,2,,,,,,,,,1,,,61,0
25500,note_on,0,0,2,,,,,,,,,1,,,58,36
25530,note_on,0,0,2,,,,,,,,,1,,,61,36
25530,note_on,30,0,2,,,,,,,,,1,,,58,0
25560,note_on,60,0,3,,,,,,,,,2,,,42,0
25560,note_on,0,0,3,,,,,,,,,2,,,46,49
25560,note_on,120,0,1,,,,,,,,,0,,,70,0
25560,note_on,0,0,2,,,,,,,,,1,,,65,36
25560,note_on,30,0,2,,,,,,,,,1,,,61,0
25590,note_on,30,0,2,,,,,,,,,1,,,65,0
25590,note_on,0,0,2,,,,,,,,,1,,,66,36
25620,note_on,60,0,3,,,,,,,,,2,,,46,0
25620,note_on,30,0,2,,,,,,,,,1,,,66,0
25620,control_change,0,0,3,,,,,,,,,2,64,0,,
25620,control_change,60,0,1,,,,,,,,,0,64,0,,
25620,note_on,0,0,3,,,,,,,,,2,,,48,49
25620,note_on,0,0,1,,,,,,,,,0,,,70,49
25620,note_on,0,0,2,,,,,,,,,1,,,63,36
25650,note_on,30,0,2,,,,,,,,,1,,,63,0
25650,control_change,0,0,2,,,,,,,,,1,64,0,,
25650,note_on,0,0,2,,,,,,,,,1,,,66,36
25680,note_on,60,0,1,,,,,,,,,0,,,70,0
25680,control_change,0,0,1,,,,,,,,,0,64,127,,
25680,note_on,0,0,1,,,,,,,,,0,,,68,49
25680,note_on,60,0,3,,,,,,,,,2,,,48,0
25680,control_change,0,0,3,,,,,,,,,2,64,127,,
25680,note_on,30,0,2,,,,,,,,,1,,,66,0
25680,note_on,0,0,2,,,,,,,,,1,,,65,36
25680,control_change,0,0,2,,,,,,,,,1,64,127,,
25680,note_on,0,0,3,,,,,,,,,2,,,49,49
25710,note_on,30,0,2,,,,,,,,,1,,,65,0
25710,note_on,0,0,2,,,,,,,,,1,,,61,36
25740,note_on,0,0,2,,,,,,,,,1,,,60,36
25740,note_on,0,0,3,,,,,,,,,2,,,41,49
25740,note_on,30,0,2,,,,,,,,,1,,,61,0
25740,note_on,60,0,3,,,,,,,,,2,,,49,0
25770,note_on,30,0,2,,,,,,,,,1,,,60,0
25770,note_on,0,0,2,,,,,,,,,1,,,61,36
25800,note_on,0,0,2,,,,,,,,,1,,,58,36
25800,note_on,60,0,3,,,,,,,,,2,,,41,0
25800,note_on,0,0,3,,,,,,,,,2,,,42,49
25800,note_on,120,0,1,,,,,,,,,0,,,68,0
25800,note_on,0,0,1,,,,,,,,,0,,,63,49
25800,note_on,30,0,2,,,,,,,,,1,,,61,0
25830,note_on,0,0,2,,,,,,,,,1,,,61,36
25830,note_on,30,0,2,,,,,,,,,1,,,58,0
25860,note_on,0,0,3,,,,,,,,,2,,,44,49
25860,control_change,0,0,3,,,,,,,,,2,64,0,,
25860,note_on,60,0,3,,,,,,,,,2,,,42,0
25860,note_on,30,0,2,,,,,,,,,1,,,61,0
25860,note_on,0,0,2,,,,,,,,,1,,,60,36
25860,control_change,0,0,1,,,,,,,,,0,64,0,,
25860,note_on,0,0,1,,,,,,,,,0,,,66,49
25860,note_on,60,0,1,,,,,,,,,0,,,63,0
25890,note_on,30,0,2,,,,,,,,,1,,,60,0
25890,control_change,0,0,2,,,,,,,,,1,64,0,,
25890,note_on,0,0,2,,,,,,,,,1,,,63,36
25920,note_on,0,0,2,,,,,,,,,1,,,61,36
25920,note_on,60,0,3,,,,,,,,,2,,,44,0
25920,note_on,0,0,1,,,,,,,,,0,,,65,49
25920,control_change,0,0,3,,,,,,,,,2,64,127,,
25920,note_on,0,0,3,,,,,,,,,2,,,49,49
25920,note_on,30,0,2,,,,,,,,,1,,,63,0
25920,control_change,0,0,2,,,,,,,,,1,64,127,,
25920,note_on,60,0,1,,,,,,,,,0,,,66,0
25920,control_change,0,0,1,,,,,,,,,0,64,127,,
25950,note_on,0,0,2,,,,,,,,,1,,,56,36
25950,note_on,30,0,2,,,,,,,,,1,,,61,0
25980,note_on,30,0,2,,,,,,,,,1,,,56,0
25980,note_on,0,0,3,,,,,,,,,2,,,37,49
25980,note_on,60,0,3,,,,,,,,,2,,,49,0
25980,note_on,0,0,2,,,,,,,,,1,,,53,36
26010,note_on,30,0,2,,,,,,,,,1,,,53,0
26010,note_on,0,0,2,,,,,,,,,1,,,56,36
26040,note_on,0,0,2,,,,,,,,,1,,,54,36
26040,note_on,60,0,3,,,,,,,,,2,,,37,0
26040,note_on,0,0,3,,,,,,,,,2,,,39,49
26040,note_on,30,0,2,,,,,,,,,1,,,56,0
26040,note_on,120,0,1,,,,,,,,,0,,,65,0
26070,note_on,30,0,2,,,,,,,,,1,,,54,0
26070,note_on,0,0,2,,,,,,,,,1,,,59,36
26100,note_on,30,0,2,,,,,,,,,1,,,59,0
26100,note_on,0,0,1,,,,,,,,,0,,,63,49
26100,control_change,60,0,1,,,,,,,,,0,64,0,,
26100,note_on,60,0,3,,,,,,,,,2,,,39,0
26100,control_change,0,0,3,,,,,,,,,2,64,0,,
26100,note_on,0,0,3,,,,,,,,,2,,,41,49
26100,note_on,0,0,2,,,,,,,,,1,,,56,36
26130,note_on,0,0,2,,,,,,,,,1,,,59,36
26130,control_change,0,0,2,,,,,,,,,1,64,0,,
26130,note_on,30,0,2,,,,,,,,,1,,,56,0
26160,note_on,0,0,3,,,,,,,,,2,,,42,49
26160,control_change,0,0,1,,,,,,,,,0,64,127,,
26160,note_on,60,0,3,,,,,,,,,2,,,41,0
26160,control_change,0,0,2,,,,,,,,,1,64,127,,
26160,note_on,30,0,2,,,,,,,,,1,,,59,0
26160,note_on,60,0,1,,,,,,,,,0,,,63,0
26160,note_on,0,0,2,,,,,,,,,1,,,58,36
26160,control_change,0,0,3,,,,,,,,,2,64,127,,
26160,note_on,0,0,1,,,,,,,,,0,,,61,49
26190,note_on,0,0,2,,,,,,,,,1,,,54,36
26190,note_on,30,0,2,,,,,,,,,1,,,58,0
26220,note_on,0,0,2,,,,,,,,,1,,,53,36
26220,note_on,0,0,3,,,,,,,,,2,,,34,49
26220,note_on,60,0,3,,,,,,,,,2,,,42,0
26220,note_on,30,0,2,,,,,,,,,1,,,54,0
26250,note_on,0,0,2,,,,,,,,,1,,,54,36
26250,note_on,30,0,2,,,,,,,,,1,,,53,0
26280,note_on,120,0,1,,,,,,,,,0,,,61,0
26280,note_on,0,0,1,,,,,,,,,0,,,56,49
26280,note_on,60,0,3,,,,,,,,,2,,,34,0
26280,note_on,0,0,2,,,,,,,,,1,,,51,36
26280,note_on,30,0,2,,,,,,,,,1,,,54,0
26280,note_on,0,0,3,,,,,,,,,2,,,35,49
26310,note_on,30,0,2,,,,,,,,,1,,,51,0
26310,note_on,0,0,2,,,,,,,,,1,,,54,36
26340,note_on,0,0,3,,,,,,,,,2,,,37,49
26340,note_on,0,0,2,,,,,,,,,1,,,53,36
26340,note_on,30,0,2,,,,,,,,,1,,,54,0
26340,control_change,0,0,3,,,,,,,,,2,64,0,,
26340,note_on,60,0,3,,,,,,,,,2,,,35,0
26340,note_on,60,0,1,,,,,,,,,0,,,56,0
26340,note_on,0,0,1,,,,,,,,,0,,,59,49
26340,control_change,0,0,1,,,,,,,,,0,64,0,,
26370,control_change,0,0,2,,,,,,,,,1,64,0,,
26370,note_on,0,0,2,,,,,,,,,1,,,56,36
26370,note_on,30,0,2,,,,,,,,,1,,,53,0
26400,note_on,0,0,3,,,,,,,,,2,,,42,49
26400,note_on,60,0,1,,,,,,,,,0,,,59,0
26400,control_change,0,0,1,,,,,,,,,0,64,127,,
26400,note_on,0,0,1,,,,,,,,,0,,,58,49
26400,note_on,0,0,2,,,,,,,,,1,,,54,36
26400,control_change,0,0,2,,,,,,,,,1,64,127,,
26400,note_on,30,0,2,,,,,,,,,1,,,56,0
26400,note_on,60,0,3,,,,,,,,,2,,,37,0
26400,control_change,0,0,3,,,,,,,,,2,64,127,,
26406,note_on,6,0,3,,,,,,,,,2,,,42,0
26430,note_on,30,0,2,,,,,,,,,1,,,54,0
26430,note_on,0,0,2,,,,,,,,,1,,,53,36
26460,note_on,54,0,3,,,,,,,,,2,,,49,49
26460,note_on,0,0,2,,,,,,,,,1,,,54,36
26460,note_on,30,0,2,,,,,,,,,1,,,53,0
26466,note_on,6,0,3,,,,,,,,,2,,,49,0
26490,note_on,30,0,2,,,,,,,,,1,,,54,0
26490,note_on,0,0,2,,,,,,,,,1,,,58,36
26520,note_on,54,0,3,,,,,,,,,2,,,46,49
26520,note_on,0,0,2,,,,,,,,,1,,,63,36
26520,note_on,30,0,2,,,,,,,,,1,,,58,0
26520,note_on,120,0,1,,,,,,,,,0,,,58,0
26526,note_on,6,0,3,,,,,,,,,2,,,46,0
26550,note_on,0,0,2,,,,,,,,,1,,,61,36
26550,note_on,30,0,2,,,,,,,,,1,,,63,0
26580,note_on,0,0,3,,,,,,,,,2,,,42,49
26580,note_on,0,0,1,,,,,,,,,0,,,70,49
26580,control_change,60,0,1,,,,,,,,,0,64,0,,
26580,note_on,0,0,2,,,,,,,,,1,,,60,36
26580,note_on,30,0,2,,,,,,,,,1,,,61,0
26580,control_change,54,0,3,,,,,,,,,2,64,0,,
26586,note_on,6,0,3,,,,,,,,,2,,,42,0
26610,control_change,0,0,2,,,,,,,,,1,64,0,,
26610,note_on,0,0,2,,,,,,,,,1,,,61,36
26610,note_on,30,0,2,,,,,,,,,1,,,60,0
26640,control_change,54,0,3,,,,,,,,,2,64,127,,
26640,note_on,0,0,3,,,,,,,,,2,,,37,49
26640,note_on,0,0,3,,,,,,,,,2,,,49,49
26640,note_on,30,0,2,,,,,,,,,1,,,61,0
26640,note_on,60,0,1,,,,,,,,,0,,,70,0
26640,control_change,0,0,1,,,,,,,,,0,64,127,,
26640,note_on,0,0,1,,,,,,,,,0,,,68,49
26640,control_change,0,0,2,,,,,,,,,1,64,127,,
26640,note_on,0,0,2,,,,,,,,,1,,,59,36
26670,note_on,30,0,2,,,,,,,,,1,,,59,0
26670,note_on,0,0,2,,,,,,,,,1,,,61,36
26700,note_on,60,0,1,,,,,,,,,0,,,68,0
26700,note_on,0,0,1,,,,,,,,,0,,,71,49
26700,note_on,30,0,2,,,,,,,,,1,,,61,0
26700,note_on,0,0,2,,,,,,,,,1,,,59,36
26730,note_on,30,0,2,,,,,,,,,1,,,59,0
26730,note_on,0,0,2,,,,,,,,,1,,,61,36
26760,note_on,30,0,2,,,,,,,,,1,,,61,0
26760,note_on,0,0,2,,,,,,,,,1,,,59,36
26760,note_on,60,0,1,,,,,,,,,0,,,71,0
26760,note_on,0,0,1,,,,,,,,,0,,,63,49
26760,note_on,0,0,3,,,,,,,,,2,,,37,0
26760,note_on,120,0,3,,,,,,,,,2,,,49,0
26790,note_on,30,0,2,,,,,,,,,1,,,59,0
26790,note_on,0,0,2,,,,,,,,,1,,,61,36
26820,note_on,60,0,1,,,,,,,,,0,,,63,0
26820,note_on,0,0,3,,,,,,,,,2,,,49,75
26820,control_change,60,0,3,,,,,,,,,2,64,0,,
26820,note_on,0,0,1,,,,,,,,,0,,,65,49
26820,control_change,0,0,1,,,,,,,,,0,64,0,,
26820,note_on,0,0,2,,,,,,,,,1,,,59,36
26820,note_on,30,0,2,,,,,,,,,1,,,61,0
26850,control_change,0,0,2,,,,,,,,,1,64,0,,
26850,note_on,30,0,2,,,,,,,,,1,,,59,0
26850,note_on,0,0,2,,,,,,,,,1,,,61,36
26880,note_on,0,0,3,,,,,,,,,2,,,42,49
26880,control_change,0,0,2,,,,,,,,,1,64,127,,
26880,control_change,0,0,3,,,,,,,,,2,64,127,,
26880,note_on,0,0,2,,,,,,,,,1,,,58,36
26880,note_on,60,0,1,,,,,,,,,0,,,65,0
26880,control_change,0,0,1,,,,,,,,,0,64,127,,
26880,note_on,0,0,1,,,,,,,,,0,,,68,49
26880,note_on,30,0,2,,,,,,,,,1,,,61,0
26880,note_on,60,0,3,,,,,,,,,2,,,49,0
26910,note_on,30,0,2,,,,,,,,,1,,,58,0
26910,note_on,0,0,2,,,,,,,,,1,,,61,36
26940,note_on,60,0,1,,,,,,,,,0,,,68,0
26940,note_on,0,0,1,,,,,,,,,0,,,66,49
26940,note_on,60,0,3,,,,,,,,,2,,,42,0
26940,note_on,0,0,3,,,,,,,,,2,,,46,49
26940,note_on,0,0,2,,,,,,,,,1,,,58,36
26940,note_on,30,0,2,,,,,,,,,1,,,61,0
26946,note_on,6,0,3,,,,,,,,,2,,,46,0
26970,note_on,0,0,2,,,,,,,,,1,,,61,36
26970,note_on,30,0,2,,,,,,,,,1,,,58,0
27000,note_on,54,0,3,,,,,,,,,2,,,34,49
27000,note_on,30,0,2,,,,,,,,,1,,,61,0
27000,note_on,0,0,2,,,,,,,,,1,,,58,36
27000,note_on,60,0,1,,,,,,,,,0,,,66,0
27006,note_on,6,0,3,,,,,,,,,2,,,34,0
27030,note_on,30,0,2,,,,,,,,,1,,,58,0
27030,note_on,0,0,2,,,,,,,,,1,,,61,36
27060,control_change,54,0,3,,,,,,,,,2,64,0,,
27060,control_change,60,0,1,,,,,,,,,0,64,0,,
27060,note_on,0,0,2,,,,,,,,,1,,,63,36
27060,note_on,30,0,2,,,,,,,,,1,,,61,0
27060,note_on,0,0,3,,,,,,,,,2,,,36,49
27060,note_on,0,0,1,,,,,,,,,0,,,70,49
27066,note_on,6,0,3,,,,,,,,,2,,,36,0
27090,note_on,30,0,2,,,,,,,,,1,,,63,0
27090,control_change,0,0,2,,,,,,,,,1,64,0,,
27090,note_on,0,0,2,,,,,,,,,1,,,66,36
27120,note_on,0,0,1,,,,,,,,,0,,,68,49
27120,control_change,0,0,1,,,,,,,,,0,64,127,,
27120,note_on,60,0,1,,,,,,,,,0,,,70,0
27120,note_on,0,0,3,,,,,,,,,2,,,37,49
27120,control_change,54,0,3,,,,,,,,,2,64,127,,
27120,note_on,30,0,2,,,,,,,,,1,,,66,0
27120,control_change,0,0,2,,,,,,,,,1,64,127,,
27120,note_on,0,0,2,,,,,,,,,1,,,65,36
27150,note_on,30,0,2,,,,,,,,,1,,,65,0
27150,note_on,0,0,2,,,,,,,,,1,,,61,36
27180,note_on,0,0,2,,,,,,,,,1,,,59,36
27180,note_on,60,0,1,,,,,,,,,0,,,68,0
27180,note_on,0,0,1,,,,,,,,,0,,,71,49
27180,note_on,30,0,2,,,,,,,,,1,,,61,0
27210,note_on,0,0,2,,,,,,,,,1,,,61,36
27210,note_on,30,0,2,,,,,,,,,1,,,59,0
27240,note_on,30,0,2,,,,,,,,,1,,,61,0
27240,note_on,0,0,1,,,,,,,,,0,,,63,49
27240,note_on,60,0,1,,,,,,,,,0,,,71,0
27240,note_on,120,0,3,,,,,,,,,2,,,37,0
27240,note_on,0,0,2,,,,,,,,,1,,,59,36
27270,note_on,0,0,2,,,,,,,,,1,,,61,36
27270,note_on,30,0,2,,,,,,,,,1,,,59,0
27300,note_on,0,0,2,,,,,,,,,1,,,59,36
27300,note_on,30,0,2,,,,,,,,,1,,,61,0
27300,control_change,0,0,1,,,,,,,,,0,64,0,,
27300,control_change,60,0,3,,,,,,,,,2,64,0,,
27300,note_on,60,0,1,,,,,,,,,0,,,63,0
27300,note_on,0,0,3,,,,,,,,,2,,,49,75
27300,note_on,0,0,1,,,,,,,,,0,,,65,49
27330,note_on,30,0,2,,,,,,,,,1,,,59,0
27330,control_change,0,0,2,,,,,,,,,1,64,0,,
27330,note_on,0,0,2,,,,,,,,,1,,,61,36
27360,note_on,30,0,2,,,,,,,,,1,,,61,0
27360,control_change,0,0,2,,,,,,,,,1,64,127,,
27360,note_on,0,0,2,,,,,,,,,1,,,58,36
27360,note_on,60,0,3,,,,,,,,,2,,,49,0
27360,control_change,0,0,1,,,,,,,,,0,64,127,,
27360,note_on,0,0,1,,,,,,,,,0,,,68,49
27360,control_change,0,0,3,,,,,,,,,2,64,127,,
27360,note_on,0,0,3,,,,,,,,,2,,,42,49
27360,note_on,60,0,1,,,,,,,,,0,,,65,0
27390,note_on,0,0,2,,,,,,,,,1,,,61,36
27390,note_on,30,0,2,,,,,,,,,1,,,58,0
27420,note_on,0,0,2,,,,,,,,,1,,,58,36
27420,note_on,30,0,2,,,,,,,,,1,,,61,0
27420,note_on,0,0,3,,,,,,,,,2,,,46,49
27420,note_on,60,0,3,,,,,,,,,2,,,42,0
27420,note_on,60,0,1,,,,,,,,,0,,,68,0
27420,note_on,0,0,1,,,,,,,,,0,,,66,49
27426,note_on,6,0,3,,,,,,,,,2,,,46,0
27450,note_on,0,0,2,,,,,,,,,1,,,61,36
27450,note_on,30,0,2,,,,,,,,,1,,,58,0
27480,note_on,0,0,2,,,,,,,,,1,,,59,36
27480,note_on,54,0,3,,,,,,,,,2,,,37,49
27480,note_on,30,0,2,,,,,,,,,1,,,61,0
27480,note_on,60,0,1,,,,,,,,,0,,,66,0
27486,note_on,6,0,3,,,,,,,,,2,,,37,0
27510,note_on,0,0,2,,,,,,,,,1,,,62,36
27510,note_on,30,0,2,,,,,,,,,1,,,59,0
27540,control_change,60,0,1,,,,,,,,,0,64,0,,
27540,note_on,0,0,1,,,,,,,,,0,,,65,49
27540,control_change,54,0,3,,,,,,,,,2,64,0,,
27540,note_on,0,0,3,,,,,,,,,2,,,49,49
27540,note_on,30,0,2,,,,,,,,,1,,,62,0
27540,note_on,0,0,2,,,,,,,,,1,,,61,36
27546,note_on,6,0,3,,,,,,,,,2,,,49,0
27570,note_on,30,0,2,,,,,,,,,1,,,61,0
27570,control_change,0,0,2,,,,,,,,,1,64,0,,
27570,note_on,0,0,2,,,,,,,,,1,,,59,36
27600,note_on,30,0,2,,,,,,,,,1,,,59,0
27600,note_on,0,0,3,,,,,,,,,2,,,42,49
27600,note_on,60,0,1,,,,,,,,,0,,,65,0
27600,control_change,0,0,1,,,,,,,,,0,64,127,,
27600,note_on,0,0,1,,,,,,,,,0,,,68,49
27600,control_change,0,0,2,,,,,,,,,1,64,127,,
27600,note_on,0,0,2,,,,,,,,,1,,,58,36
27600,control_change,54,0,3,,,,,,,,,2,64,127,,
27630,note_on,30,0,2,,,,,,,,,1,,,58,0
27630,note_on,0,0,2,,,,,,,,,1,,,61,36
27660,note_on,0,0,1,,,,,,,,,0,,,66,49
27660,note_on,30,0,2,,,,,,,,,1,,,61,0
27660,note_on,0,0,2,,,,,,,,,1,,,58,36
27660,set_tempo,8220,1,0,,,,,,512821,,,,,,,
27660,note_on,60,0,1,,,,,,,,,0,,,68,0
27660,note_on,0,0,3,,,,,,,,,2,,,46,49
27660,note_on,60,0,3,,,,,,,,,2,,,42,0
27666,note_on,6,0,3,,,,,,,,,2,,,46,0
27690,note_on,30,0,2,,,,,,,,,1,,,58,0
27690,note_on,0,0,2,,,,,,,,,1,,,61,36
27720,note_on,30,0,2,,,,,,,,,1,,,61,0
27720,note_on,0,0,2,,,,,,,,,1,,,59,36
27720,note_on,60,0,1,,,,,,,,,0,,,66,0
27720,set_tempo,60,1,0,,,,,,526316,,,,,,,
27720,note_on,54,0,3,,,,,,,,,2,,,37,49
27726,note_on,6,0,3,,,,,,,,,2,,,37,0
27750,note_on,30,0,2,,,,,,,,,1,,,59,0
27750,note_on,0,0,2,,,,,,,,,1,,,62,36
27780,note_on,0,0,3,,,,,,,,,2,,,49,49
27780,set_tempo,60,1,0,,,,,,540541,,,,,,,
27780,note_on,0,0,2,,,,,,,,,1,,,61,36
27780,note_on,30,0,2,,,,,,,,,1,,,62,0
27780,note_on,0,0,1,,,,,,,,,0,,,65,49
27780,control_change,60,0,1,,,,,,,,,0,64,0,,
27780,control_change,54,0,3,,,,,,,,,2,64,0,,
27786,note_on,6,0,3,,,,,,,,,2,,,49,0
27810,note_on,0,0,2,,,,,,,,,1,,,59,36
27810,control_change,0,0,2,,,,,,,,,1,64,0,,
27810,note_on,30,0,2,,,,,,,,,1,,,61,0
27840,set_tempo,60,1,0,,,,,,560748,,,,,,,
27840,note_on,60,0,1,,,,,,,,,0,,,65,0
27840,note_on,0,0,3,,,,,,,,,2,,,42,49
27840,note_on,30,0,2,,,,,,,,,1,,,59,0
27840,note_on,0,0,1,,,,,,,,,0,,,68,49
27840,control_change,0,0,1,,,,,,,,,0,64,127,,
27840,control_change,0,0,2,,,,,,,,,1,64,127,,
27840,note_on,0,0,2,,,,,,,,,1,,,58,36
27840,control_change,54,0,3,,,,,,,,,2,64,127,,
27870,note_on,30,0,2,,,,,,,,,1,,,58,0
27870,note_on,0,0,2,,,,,,,,,1,,,61,36
27900,note_on,60,0,1,,,,,,,,,0,,,68,0
27900,note_on,0,0,3,,,,,,,,,2,,,46,49
27900,note_on,0,0,2,,,,,,,,,1,,,58,36
27900,note_on,30,0,2,,,,,,,,,1,,,61,0
27900,note_on,60,0,3,,,,,,,,,2,,,42,0
27900,note_on,0,0,1,,,,,,,,,0,,,66,49
27900,set_tempo,60,1,0,,,,,,576923,,,,,,,
27906,note_on,6,0,3,,,,,,,,,2,,,46,0
27930,note_on,0,0,2,,,,,,,,,1,,,61,36
27930,note_on,30,0,2,,,,,,,,,1,,,58,0
27960,note_on,54,0,3,,,,,,,,,2,,,37,49
27960,note_on,60,0,1,,,,,,,,,0,,,66,0
27960,set_tempo,60,1,0,,,,,,594059,,,,,,,
27960,note_on,30,0,2,,,,,,,,,1,,,61,0
27960,note_on,0,0,2,,,,,,,,,1,,,59,36
27966,note_on,6,0,3,,,,,,,,,2,,,37,0
27990,note_on,30,0,2,,,,,,,,,1,,,59,0
27990,note_on,0,0,2,,,,,,,,,1,,,62,36
28020,note_on,30,0,2,,,,,,,,,1,,,62,0
28020,note_on,0,0,2,,,,,,,,,1,,,61,36
28020,note_on,0,0,1,,,,,,,,,0,,,65,49
28020,control_change,60,0,1,,,,,,,,,0,64,0,,
28020,set_tempo,60,1,0,,,,,,612245,,,,,,,
28020,control_change,54,0,3,,,,,,,,,2,64,0,,
28020,note_on,0,0,3,,,,,,,,,2,,,49,49
28026,note_on,6,0,3,,,,,,,,,2,,,49,0
28050,note_on,0,0,2,,,,,,,,,1,,,59,36
28050,note_on,30,0,2,,,,,,,,,1,,,61,0
28050,control_change,0,0,2,,,,,,,,,1,64,0,,
28080,note_on,60,0,1,,,,,,,,,0,,,65,0
28080,note_on,0,0,1,,,,,,,,,0,,,68,49
28080,control_change,0,0,1,,,,,,,,,0,64,127,,
28080,note_on,0,0,2,,,,,,,,,1,,,58,36
28080,note_on,30,0,2,,,,,,,,,1,,,59,0
28080,set_tempo,60,1,0,,,,,,638298,,,,,,,
28080,control_change,54,0,3,,,,,,,,,2,64,127,,
28080,note_on,0,0,3,,,,,,,,,2,,,42,49
28086,note_on,6,0,3,,,,,,,,,2,,,42,0
28110,note_on,30,0,1,,,,,,,,,0,,,68,0
28110,note_on,0,0,1,,,,,,,,,0,,,66,49
28140,note_on,0,0,1,,,,,,,,,0,,,65,49
28140,note_on,30,0,1,,,,,,,,,0,,,66,0
28140,note_on,54,0,3,,,,,,,,,2,,,30,49
28146,note_on,6,0,3,,,,,,,,,2,,,30,0
28170,note_on,30,0,1,,,,,,,,,0,,,65,0
28170,note_on,0,0,1,,,,,,,,,0,,,66,49
28200,note_on,30,0,1,,,,,,,,,0,,,66,0
28200,note_on,0,0,1,,,,,,,,,0,,,65,49
28200,note_on,54,0,3,,,,,,,,,2,,,34,49
28206,note_on,6,0,3,,,,,,,,,2,,,34,0
28230,note_on,30,0,1,,,,,,,,,0,,,65,0
28230,note_on,0,0,1,,,,,,,,,0,,,66,49
28260,note_on,54,0,3,,,,,,,,,2,,,37,49
28260,note_on,30,0,1,,,,,,,,,0,,,66,0
28260,note_on,0,0,1,,,,,,,,,0,,,68,49
28266,note_on,6,0,3,,,,,,,,,2,,,37,0
28290,note_on,30,0,1,,,,,,,,,0,,,68,0
28290,note_on,0,0,1,,,,,,,,,0,,,66,49
28320,control_change,54,0,3,,,,,,,,,2,64,0,,
28320,note_on,0,0,3,,,,,,,,,2,,,42,49
28320,note_on,30,0,1,,,,,,,,,0,,,66,0
28320,control_change,0,0,1,,,,,,,,,0,64,0,,
28320,note_on,0,0,1,,,,,,,,,0,,,66,49
28440,note_on,360,0,2,,,,,,,,,1,,,58,0
28440,note_on,120,0,3,,,,,,,,,2,,,42,0
28440,note_on,120,0,1,,,,,,,,,0,,,66,0
28560,note_on,0,0,3,,,,,,,,,2,,,47,75
28560,control_change,120,0,1,,,,,,,,,0,64,127,,
28560,note_on,0,0,3,,,,,,,,,2,,,35,75
28560,set_tempo,0,1,0,,,,,,500000,,,,,,,
28560,time_signature,480,1,0,1,4,24,8,,,,,,,,,
28560,control_change,120,0,3,,,,,,,,,2,64,127,,
28560,note_on,0,0,1,,,,,,,,,0,,,59,88
28650,note_on,0,0,1,,,,,,,,,0,,,63,88
28650,note_on,0,0,3,,,,,,,,,2,,,35,0
28650,note_on,90,0,1,,,,,,,,,0,,,59,0
28650,note_on,0,0,3,,,,,,,,,2,,,51,75
28650,note_on,0,0,3,,,,,,,,,2,,,39,75
28650,note_on,90,0,3,,,,,,,,,2,,,47,0
28654,note_on,0,0,3,,,,,,,,,2,,,39,0
28654,note_on,4,0,3,,,,,,,,,2,,,51,0
28654,note_on,4,0,1,,,,,,,,,0,,,63,0
28680,time_signature,120,1,0,4,4,24,8,,,,,,,,,
28680,note_on,0,0,3,,,,,,,,,2,,,42,75
28680,note_on,0,0,3,,,,,,,,,2,,,54,75
28680,control_change,26,0,1,,,,,,,,,0,64,0,,
28680,note_on,0,0,1,,,,,,,,,0,,,66,114
28680,control_change,26,0,3,,,,,,,,,2,64,0,,
29040,note_on,0,0,3,,,,,,,,,2,,,42,0
29040,note_on,360,0,1,,,,,,,,,0,,,66,0
29040,note_on,360,0,3,,,,,,,,,2,,,54,0
29040,note_on,0,0,1,,,,,,,,,0,,,71,49
29049,note_on,9,0,1,,,,,,,,,0,,,71,0
29130,note_on,0,0,1,,,,,,,,,0,,,66,49
29130,note_on,0,0,3,,,,,,,,,2,,,59,36
29130,note_on,0,0,3,,,,,,,,,2,,,54,36
29130,note_on,90,0,3,,,,,,,,,2,,,47,36
29130,note_on,81,0,1,,,,,,,,,0,,,63,49
29160,note_on,0,0,1,,,,,,,,,0,,,63,0
29160,control_change,0,0,1,,,,,,,,,0,64,127,,
29160,note_on,0,0,1,,,,,,,,,0,,,66,49
29160,note_on,30,0,1,,,,,,,,,0,,,66,0
29160,note_on,0,0,1,,,,,,,,,0,,,63,49
29160,note_on,30,0,3,,,,,,,,,2,,,59,0
29160,note_on,0,0,3,,,,,,,,,2,,,54,0
29160,note_on,0,0,3,,,,,,,,,2,,,47,0
29160,control_change,0,0,3,,,,,,,,,2,64,127,,
29160,note_on,0,0,3,,,,,,,,,2,,,47,36
29160,note_on,0,0,3,,,,,,,,,2,,,54,36
29160,note_on,0,0,3,,,,,,,,,2,,,59,36
29280,note_on,0,0,1,,,,,,,,,0,,,75,49
29280,note_on,120,0,1,,,,,,,,,0,,,66,0
29280,note_on,0,0,3,,,,,,,,,2,,,47,0
29280,note_on,0,0,3,,,,,,,,,2,,,54,0
29280,note_on,120,0,3,,,,,,,,,2,,,59,0
29280,note_on,0,0,1,,,,,,,,,0,,,63,0
29289,note_on,9,0,1,,,,,,,,,0,,,75,0
29370,note_on,90,0,3,,,,,,,,,2,,,47,36
29370,note_on,0,0,3,,,,,,,,,2,,,54,36
29370,note_on,0,0,3,,,,,,,,,2,,,59,36
29370,note_on,81,0,1,,,,,,,,,0,,,63,49
29370,note_on,0,0,1,,,,,,,,,0,,,66,49
29400,note_on,30,0,1,,,,,,,,,0,,,66,0
29400,note_on,0,0,1,,,,,,,,,0,,,63,0
29400,note_on,0,0,1,,,,,,,,,0,,,63,49
29400,note_on,30,0,3,,,,,,,,,2,,,59,0
29400,note_on,0,0,3,,,,,,,,,2,,,59,36
29400,note_on,0,0,3,,,,,,,,,2,,,54,36
29400,note_on,0,0,3,,,,,,,,,2,,,47,36
29400,note_on,0,0,3,,,,,,,,,2,,,47,0
29400,note_on,0,0,3,,,,,,,,,2,,,54,0
29400,note_on,0,0,1,,,,,,,,,0,,,66,49
29520,note_on,120,0,1,,,,,,,,,0,,,66,0
29520,note_on,0,0,1,,,,,,,,,0,,,63,0
29520,control_change,0,0,1,,,,,,,,,0,64,0,,
29520,note_on,0,0,1,,,,,,,,,0,,,78,49
29520,control_change,0,0,3,,,,,,,,,2,64,0,,
29520,note_on,0,0,3,,,,,,,,,2,,,47,0
29520,note_on,0,0,3,,,,,,,,,2,,,54,0
29520,note_on,120,0,3,,,,,,,,,2,,,59,0
29529,note_on,9,0,1,,,,,,,,,0,,,78,0
29610,note_on,0,0,3,,,,,,,,,2,,,44,75
29610,note_on,90,0,3,,,,,,,,,2,,,32,75
29610,note_on,81,0,1,,,,,,,,,0,,,51,88
29610,note_on,0,0,1,,,,,,,,,0,,,54,88
29610,note_on,0,0,1,,,,,,,,,0,,,56,88
29610,note_on,0,0,1,,,,,,,,,0,,,60,88
29640,note_on,0,0,1,,,,,,,,,0,,,51,102
29640,note_on,0,0,1,,,,,,,,,0,,,54,106
29640,note_on,0,0,1,,,,,,,,,0,,,56,110
29640,note_on,0,0,1,,,,,,,,,0,,,60,114
29640,note_on,0,0,1,,,,,,,,,0,,,51,0
29640,note_on,0,0,1,,,,,,,,,0,,,54,0
29640,note_on,0,0,1,,,,,,,,,0,,,56,0
29640,note_on,30,0,3,,,,,,,,,2,,,44,0
29640,note_on,0,0,3,,,,,,,,,2,,,32,0
29640,note_on,0,0,3,,,,,,,,,2,,,32,93
29640,note_on,0,0,3,,,,,,,,,2,,,44,101
29640,note_on,30,0,1,,,,,,,,,0,,,60,0
30000,note_on,0,0,3,,,,,,,,,2,,,51,36
30000,note_on,0,0,1,,,,,,,,,0,,,51,0
30000,note_on,360,0,3,,,,,,,,,2,,,44,0
30000,note_on,0,0,1,,,,,,,,,0,,,54,0
30000,note_on,0,0,1,,,,,,,,,0,,,56,0
30000,note_on,0,0,1,,,,,,,,,0,,,69,36
30000,note_on,0,0,1,,,,,,,,,0,,,81,36
30000,note_on,0,0,3,,,,,,,,,2,,,60,36
30000,note_on,360,0,1,,,,,,,,,0,,,60,0
30000,note_on,0,0,3,,,,,,,,,2,,,32,0
30009,note_on,0,0,3,,,,,,,,,2,,,51,0
30009,note_on,0,0,1,,,,,,,,,0,,,69,0
30009,note_on,9,0,1,,,,,,,,,0,,,81,0
30009,note_on,9,0,3,,,,,,,,,2,,,60,0
30090,note_on,81,0,3,,,,,,,,,2,,,52,36
30090,note_on,0,0,1,,,,,,,,,0,,,80,36
30090,note_on,81,0,1,,,,,,,,,0,,,68,36
30090,note_on,0,0,3,,,,,,,,,2,,,61,36
30094,note_on,4,0,1,,,,,,,,,0,,,80,0
30094,note_on,0,0,1,,,,,,,,,0,,,68,0
30094,note_on,0,0,3,,,,,,,,,2,,,52,0
30094,note_on,4,0,3,,,,,,,,,2,,,61,0
30120,note_on,26,0,1,,,,,,,,,0,,,68,36
30120,note_on,0,0,1,,,,,,,,,0,,,80,36
30120,note_on,0,0,3,,,,,,,,,2,,,61,36
30120,note_on,26,0,3,,,,,,,,,2,,,52,36
30240,note_on,0,0,3,,,,,,,,,2,,,58,36
30240,note_on,0,0,1,,,,,,,,,0,,,79,36
30240,note_on,120,0,3,,,,,,,,,2,,,61,0
30240,note_on,0,0,1,,,,,,,,,0,,,67,36
30240,note_on,0,0,1,,,,,,,,,0,,,68,0
30240,note_on,120,0,1,,,,,,,,,0,,,80,0
30330,note_on,0,0,3,,,,,,,,,2,,,52,0
30330,note_on,0,0,3,,,,,,,,,2,,,51,36
30330,note_on,0,0,1,,,,,,,,,0,,,66,36
30330,note_on,0,0,1,,,,,,,,,0,,,67,0
30330,note_on,0,0,1,,,,,,,,,0,,,78,36
30330,note_on,90,0,1,,,,,,,,,0,,,79,0
30330,note_on,0,0,3,,,,,,,,,2,,,59,36
30330,note_on,90,0,3,,,,,,,,,2,,,58,0
30334,note_on,4,0,1,,,,,,,,,0,,,78,0
30334,note_on,0,0,1,,,,,,,,,0,,,66,0
30334,note_on,4,0,3,,,,,,,,,2,,,59,0
30334,note_on,0,0,3,,,,,,,,,2,,,51,0
30360,note_on,26,0,1,,,,,,,,,0,,,66,36
30360,note_on,26,0,3,,,,,,,,,2,,,51,36
30360,note_on,0,0,1,,,,,,,,,0,,,78,36
30360,note_on,0,0,3,,,,,,,,,2,,,59,36
30480,note_on,120,0,3,,,,,,,,,2,,,59,0
30480,note_on,0,0,3,,,,,,,,,2,,,51,0
30480,note_on,0,0,3,,,,,,,,,2,,,56,36
30480,note_on,0,0,1,,,,,,,,,0,,,77,36
30480,note_on,0,0,1,,,,,,,,,0,,,65,36
30480,note_on,0,0,1,,,,,,,,,0,,,66,0
30480,note_on,120,0,1,,,,,,,,,0,,,78,0
30480,note_on,0,0,3,,,,,,,,,2,,,59,36
30570,note_on,0,0,1,,,,,,,,,0,,,76,36
30570,note_on,0,0,1,,,,,,,,,0,,,65,0
30570,note_on,90,0,1,,,,,,,,,0,,,77,0
30570,note_on,0,0,3,,,,,,,,,2,,,56,0
30570,note_on,0,0,1,,,,,,,,,0,,,64,36
30570,note_on,90,0,3,,,,,,,,,2,,,59,0
30570,note_on,0,0,3,,,,,,,,,2,,,59,36
30570,note_on,0,0,3,,,,,,,,,2,,,55,36
30574,note_on,0,0,1,,,,,,,,,0,,,64,0
30574,note_on,4,0,1,,,,,,,,,0,,,76,0
30574,note_on,4,0,3,,,,,,,,,2,,,59,0
30574,note_on,0,0,3,,,,,,,,,2,,,55,0
30600,note_on,0,0,1,,,,,,,,,0,,,76,36
30600,note_on,0,0,1,,,,,,,,,0,,,64,36
30600,control_change,26,0,3,,,,,,,,,2,64,127,,
30600,control_change,26,0,1,,,,,,,,,0,64,127,,
30600,note_on,0,0,3,,,,,,,,,2,,,59,36
30600,note_on,0,0,3,,,,,,,,,2,,,55,36
30720,note_on,0,0,1,,,,,,,,,0,,,75,36
30720,note_on,0,0,1,,,,,,,,,0,,,64,0
30720,note_on,120,0,1,,,,,,,,,0,,,76,0
30720,note_on,0,0,1,,,,,,,,,0,,,66,36
30720,note_on,0,0,3,,,,,,,,,2,,,59,36
30720,note_on,0,0,3,,,,,,,,,2,,,54,36
30720,note_on,0,0,3,,,,,,,,,2,,,55,0
30720,note_on,120,0,3,,,,,,,,,2,,,59,0
30810,note_on,0,0,3,,,,,,,,,2,,,54,36
30810,note_on,0,0,1,,,,,,,,,0,,,73,36
30810,note_on,0,0,1,,,,,,,,,0,,,64,36
30810,note_on,90,0,3,,,,,,,,,2,,,59,0
30810,note_on,0,0,1,,,,,,,,,0,,,66,0
30810,note_on,0,0,3,,,,,,,,,2,,,54,0
30810,note_on,90,0,1,,,,,,,,,0,,,75,0
30810,note_on,0,0,3,,,,,,,,,2,,,58,36
30814,note_on,4,0,3,,,,,,,,,2,,,58,0
30814,note_on,4,0,1,,,,,,,,,0,,,73,0
30814,note_on,0,0,3,,,,,,,,,2,,,54,0
30814,note_on,0,0,1,,,,,,,,,0,,,64,0
30840,note_on,0,0,1,,,,,,,,,0,,,71,36
30840,control_change,26,0,1,,,,,,,,,0,64,0,,
30840,note_on,0,0,1,,,,,,,,,0,,,63,36
30840,control_change,26,0,3,,,,,,,,,2,64,0,,
30840,note_on,0,0,3,,,,,,,,,2,,,59,36
30960,control_change,0,0,1,,,,,,,,,0,64,127,,
30960,note_on,0,0,1,,,,,,,,,0,,,59,88
30960,note_on,120,0,1,,,,,,,,,0,,,71,0
30960,note_on,0,0,3,,,,,,,,,2,,,47,75
30960,note_on,0,0,1,,,,,,,,,0,,,63,0
30960,note_on,0,0,3,,,,,,,,,2,,,35,75
30960,note_on,120,0,3,,,,,,,,,2,,,59,0
30960,control_change,0,0,3,,,,,,,,,2,64,127,,
30960,control_change,0,0,3,,,,,,,,,2,64,127,,
31050,note_on,90,0,3,,,,,,,,,2,,,47,0
31050,note_on,90,0,1,,,,,,,,,0,,,59,0
31050,note_on,0,0,1,,,,,,,,,0,,,63,88
31050,note_on,0,0,3,,,,,,,,,2,,,35,0
31050,note_on,0,0,3,,,,,,,,,2,,,39,75
31050,note_on,0,0,3,,,,,,,,,2,,,51,75
31054,note_on,4,0,3,,,,,,,,,2,,,51,0
31054,note_on,0,0,3,,,,,,,,,2,,,39,0
31080,note_on,0,0,3,,,,,,,,,2,,,54,75
31080,note_on,26,0,3,,,,,,,,,2,,,42,75
31080,note_on,0,0,1,,,,,,,,,0,,,66,88
31080,note_on,30,0,1,,,,,,,,,0,,,63,0
31080,note_on,27600,0,4,,,,,,,,,3,,,54,75
31080,note_on,2640,0,2,,,,,,,,,1,,,66,75
31440,control_change,0,0,1,,,,,,,,,0,64,0,,
31440,note_on,0,0,3,,,,,,,,,2,,,59,36
31440,control_change,0,0,3,,,,,,,,,2,64,0,,
31440,note_on,0,0,3,,,,,,,,,2,,,42,0
31440,note_on,360,0,1,,,,,,,,,0,,,66,0
31440,note_on,360,0,3,,,,,,,,,2,,,54,0
31440,note_on,0,0,1,,,,,,,,,0,,,75,36
31449,note_on,9,0,1,,,,,,,,,0,,,75,0
31530,note_on,81,0,1,,,,,,,,,0,,,76,36
31534,note_on,4,0,1,,,,,,,,,0,,,76,0
31560,note_on,0,0,1,,,,,,,,,0,,,78,36
31560,control_change,26,0,1,,,,,,,,,0,64,127,,
31560,control_change,120,0,3,,,,,,,,,2,64,127,,
31680,note_on,120,0,3,,,,,,,,,2,,,59,0
31680,note_on,120,0,1,,,,,,,,,0,,,78,0
31680,note_on,0,0,1,,,,,,,,,0,,,73,36
31680,note_on,0,0,3,,,,,,,,,2,,,56,36
31689,note_on,9,0,1,,,,,,,,,0,,,73,0
31770,note_on,81,0,1,,,,,,,,,0,,,75,36
31774,note_on,4,0,1,,,,,,,,,0,,,75,0
31800,note_on,26,0,1,,,,,,,,,0,,,76,36
31920,note_on,120,0,1,,,,,,,,,0,,,76,0
31920,note_on,0,0,1,,,,,,,,,0,,,66,36
31920,note_on,0,0,1,,,,,,,,,0,,,75,36
31920,note_on,840,0,2,,,,,,,,,1,,,66,0
31920,note_on,0,0,3,,,,,,,,,2,,,58,36
31920,note_on,240,0,3,,,,,,,,,2,,,56,0
31929,note_on,9,0,1,,,,,,,,,0,,,75,0
31929,note_on,0,0,1,,,,,,,,,0,,,66,0
32010,note_on,0,0,1,,,,,,,,,0,,,73,36
32010,note_on,81,0,1,,,,,,,,,0,,,64,36
32014,note_on,4,0,1,,,,,,,,,0,,,73,0
32014,note_on,0,0,1,,,,,,,,,0,,,64,0
32040,note_on,960,0,4,,,,,,,,,3,,,54,0
32040,note_on,0,0,1,,,,,,,,,0,,,63,36
32040,control_change,26,0,1,,,,,,,,,0,64,0,,
32040,note_on,0,0,1,,,,,,,,,0,,,71,36
32040,note_on,0,0,3,,,,,,,,,2,,,59,36
32040,control_change,0,0,3,,,,,,,,,2,64,0,,
32040,note_on,120,0,3,,,,,,,,,2,,,58,0
32160,note_on,120,0,1,,,,,,,,,0,,,71,0
32160,note_on,120,0,3,,,,,,,,,2,,,59,0
32160,note_on,0,0,1,,,,,,,,,0,,,59,49
32160,note_on,0,0,1,,,,,,,,,0,,,63,0
32160,note_on,0,0,3,,,,,,,,,2,,,47,36
32169,note_on,9,0,3,,,,,,,,,2,,,47,0
32169,note_on,9,0,1,,,,,,,,,0,,,59,0
32250,note_on,81,0,3,,,,,,,,,2,,,51,36
32250,note_on,81,0,1,,,,,,,,,0,,,63,49
32254,note_on,4,0,3,,,,,,,,,2,,,51,0
32254,note_on,4,0,1,,,,,,,,,0,,,63,0
32280,note_on,26,0,1,,,,,,,,,0,,,66,49
32280,note_on,26,0,3,,,,,,,,,2,,,54,36
32400,note_on,0,0,3,,,,,,,,,2,,,47,49
32400,note_on,120,0,1,,,,,,,,,0,,,66,0
32400,note_on,0,0,1,,,,,,,,,0,,,59,62
32400,note_on,120,0,3,,,,,,,,,2,,,54,0
32409,note_on,9,0,3,,,,,,,,,2,,,47,0
32409,note_on,9,0,1,,,,,,,,,0,,,59,0
32490,note_on,81,0,1,,,,,,,,,0,,,63,62
32490,note_on,81,0,3,,,,,,,,,2,,,51,49
32494,note_on,4,0,1,,,,,,,,,0,,,63,0
32494,note_on,4,0,3,,,,,,,,,2,,,51,0
32520,note_on,0,0,3,,,,,,,,,2,,,56,49
32520,note_on,0,0,1,,,,,,,,,0,,,68,62
32520,control_change,26,0,3,,,,,,,,,2,64,127,,
32520,control_change,26,0,1,,,,,,,,,0,64,127,,
32640,note_on,0,0,1,,,,,,,,,0,,,59,75
32640,note_on,120,0,1,,,,,,,,,0,,,68,0
32640,note_on,0,0,3,,,,,,,,,2,,,47,62
32640,note_on,120,0,3,,,,,,,,,2,,,56,0
32649,note_on,9,0,3,,,,,,,,,2,,,47,0
32649,note_on,9,0,1,,,,,,,,,0,,,59,0
32730,note_on,81,0,3,,,,,,,,,2,,,51,62
32730,note_on,81,0,1,,,,,,,,,0,,,63,75
32734,note_on,4,0,3,,,,,,,,,2,,,51,0
32734,note_on,4,0,1,,,,,,,,,0,,,63,0
32760,note_on,26,0,1,,,,,,,,,0,,,69,75
32760,note_on,26,0,3,,,,,,,,,2,,,57,62
32880,note_on,120,0,1,,,,,,,,,0,,,69,0
32880,note_on,0,0,1,,,,,,,,,0,,,59,88
32880,note_on,0,0,3,,,,,,,,,2,,,47,75
32880,note_on,120,0,3,,,,,,,,,2,,,57,0
32889,note_on,9,0,3,,,,,,,,,2,,,47,0
32889,note_on,9,0,1,,,,,,,,,0,,,59,0
32970,note_on,81,0,3,,,,,,,,,2,,,51,75
32970,note_on,81,0,1,,,,,,,,,0,,,63,88
32974,note_on,4,0,1,,,,,,,,,0,,,63,0
32974,note_on,4,0,3,,,,,,,,,2,,,51,0
33000,note_on,26,0,3,,,,,,,,,2,,,60,75
33000,note_on,26,0,1,,,,,,,,,0,,,72,88
33120,control_change,0,0,3,,,,,,,,,2,64,0,,
33120,note_on,120,0,3,,,,,,,,,2,,,60,0
33120,control_change,0,0,1,,,,,,,,,0,64,0,,
33120,note_on,120,0,1,,,,,,,,,0,,,72,0
33360,control_change,240,0,1,,,,,,,,,0,64,127,,
33360,note_on,0,0,1,,,,,,,,,0,,,79,119
33360,note_on,0,0,1,,,,,,,,,0,,,84,123
33360,note_on,0,0,1,,,,,,,,,0,,,88,127
33360,note_on,0,0,3,,,,,,,,,2,,,36,106
33360,control_change,240,0,3,,,,,,,,,2,64,127,,
33360,note_on,0,0,1,,,,,,,,,0,,,76,115
33360,note_on,0,0,3,,,,,,,,,2,,,48,114
33450,note_on,0,0,3,,,,,,,,,2,,,36,0
33450,note_on,0,0,3,,,,,,,,,2,,,40,88
33450,note_on,0,0,3,,,,,,,,,2,,,52,88
33450,note_on,90,0,3,,,,,,,,,2,,,48,0
33450,note_on,0,0,1,,,,,,,,,0,,,84,101
33450,note_on,0,0,1,,,,,,,,,0,,,79,101
33450,note_on,0,0,1,,,,,,,,,0,,,76,101
33450,note_on,0,0,1,,,,,,,,,0,,,84,0
33450,note_on,0,0,1,,,,,,,,,0,,,79,0
33450,note_on,0,0,1,,,,,,,,,0,,,76,0
33450,note_on,90,0,1,,,,,,,,,0,,,88,0
33450,note_on,0,0,1,,,,,,,,,0,,,88,101
33480,note_on,0,0,3,,,,,,,,,2,,,43,88
33480,control_change,0,0,3,,,,,,,,,2,64,0,,
33480,note_on,0,0,3,,,,,,,,,2,,,40,0
33480,note_on,30,0,3,,,,,,,,,2,,,52,0
33480,note_on,0,0,3,,,,,,,,,2,,,55,88
33480,note_on,0,0,1,,,,,,,,,0,,,88,101
33480,note_on,0,0,1,,,,,,,,,0,,,84,101
33480,note_on,0,0,1,,,,,,,,,0,,,79,101
33480,note_on,0,0,1,,,,,,,,,0,,,76,101
33480,note_on,0,0,1,,,,,,,,,0,,,84,0
33480,note_on,0,0,1,,,,,,,,,0,,,79,0
33480,note_on,0,0,1,,,,,,,,,0,,,76,0
33480,note_on,30,0,1,,,,,,,,,0,,,88,0
33480,control_change,0,0,1,,,,,,,,,0,64,0,,
33840,note_on,0,0,3,,,,,,,,,2,,,31,106
33840,note_on,360,0,3,,,,,,,,,2,,,55,0
33840,note_on,0,0,3,,,,,,,,,2,,,43,0
33840,control_change,0,0,3,,,,,,,,,2,64,127,,
33840,note_on,0,0,3,,,,,,,,,2,,,43,114
33840,note_on,0,0,1,,,,,,,,,0,,,84,0
33840,note_on,360,0,1,,,,,,,,,0,,,88,0
33840,note_on,0,0,1,,,,,,,,,0,,,76,0
33840,note_on,0,0,1,,,,,,,,,0,,,79,0
33840,note_on,0,0,1,,,,,,,,,0,,,74,115
33840,note_on,0,0,1,,,,,,,,,0,,,79,119
33840,note_on,0,0,1,,,,,,,,,0,,,83,123
33840,note_on,0,0,1,,,,,,,,,0,,,86,127
33840,control_change,0,0,1,,,,,,,,,0,64,127,,
33930,note_on,90,0,3,,,,,,,,,2,,,43,0
33930,note_on,90,0,1,,,,,,,,,0,,,86,0
33930,note_on,0,0,1,,,,,,,,,0,,,79,0
33930,note_on,0,0,1,,,,,,,,,0,,,83,0
33930,note_on,0,0,1,,,,,,,,,0,,,74,101
33930,note_on,0,0,1,,,,,,,,,0,,,79,101
33930,note_on,0,0,1,,,,,,,,,0,,,83,101
33930,note_on,0,0,1,,,,,,,,,0,,,86,101
33930,note_on,0,0,3,,,,,,,,,2,,,47,88
33930,note_on,0,0,3,,,,,,,,,2,,,35,88
33930,note_on,0,0,3,,,,,,,,,2,,,31,0
33930,note_on,0,0,1,,,,,,,,,0,,,74,0
33960,note_on,0,0,1,,,,,,,,,0,,,74,0
33960,note_on,0,0,3,,,,,,,,,2,,,50,88
33960,control_change,0,0,3,,,,,,,,,2,64,0,,
33960,note_on,0,0,3,,,,,,,,,2,,,38,88
33960,note_on,30,0,1,,,,,,,,,0,,,86,0
33960,note_on,0,0,3,,,,,,,,,2,,,35,0
33960,control_change,0,0,1,,,,,,,,,0,64,0,,
33960,note_on,30,0,3,,,,,,,,,2,,,47,0
33960,note_on,0,0,1,,,,,,,,,0,,,83,101
33960,note_on,0,0,1,,,,,,,,,0,,,79,0
33960,note_on,0,0,1,,,,,,,,,0,,,83,0
33960,note_on,0,0,1,,,,,,,,,0,,,86,101
33960,note_on,0,0,1,,,,,,,,,0,,,79,101
33960,note_on,0,0,1,,,,,,,,,0,,,74,101
34320,control_change,0,0,1,,,,,,,,,0,64,127,,
34320,note_on,360,0,1,,,,,,,,,0,,,86,0
34320,note_on,0,0,1,,,,,,,,,0,,,83,0
34320,note_on,0,0,1,,,,,,,,,0,,,74,0
34320,note_on,360,0,3,,,,,,,,,2,,,50,0
34320,note_on,0,0,3,,,,,,,,,2,,,38,0
34320,note_on,0,0,1,,,,,,,,,0,,,79,0
34320,control_change,0,0,3,,,,,,,,,2,64,127,,
34320,note_on,0,0,3,,,,,,,,,2,,,50,36
34320,note_on,0,0,1,,,,,,,,,0,,,84,36
34329,note_on,9,0,1,,,,,,,,,0,,,84,0
34329,note_on,9,0,3,,,,,,,,,2,,,50,0
34410,note_on,81,0,1,,,,,,,,,0,,,81,36
34410,note_on,81,0,3,,,,,,,,,2,,,54,36
34414,note_on,4,0,3,,,,,,,,,2,,,54,0
34414,note_on,4,0,1,,,,,,,,,0,,,81,0
34440,note_on,0,0,3,,,,,,,,,2,,,60,36
34440,note_on,0,0,1,,,,,,,,,0,,,75,36
34440,control_change,26,0,3,,,,,,,,,2,64,0,,
34440,control_change,26,0,1,,,,,,,,,0,64,0,,
34452,note_on,12,0,3,,,,,,,,,2,,,60,0
34452,note_on,12,0,1,,,,,,,,,0,,,75,0
34560,note_on,0,0,3,,,,,,,,,2,,,50,36
34560,control_change,108,0,3,,,,,,,,,2,64,127,,
34560,control_change,108,0,1,,,,,,,,,0,64,127,,
34560,note_on,0,0,1,,,,,,,,,0,,,83,36
34569,note_on,9,0,3,,,,,,,,,2,,,50,0
34569,note_on,9,0,1,,,,,,,,,0,,,83,0
34620,set_tempo,5940,1,0,,,,,,512821,,,,,,,
34650,note_on,81,0,3,,,,,,,,,2,,,55,36
34650,note_on,81,0,1,,,,,,,,,0,,,79,36
34654,note_on,4,0,1,,,,,,,,,0,,,79,0
34654,note_on,4,0,3,,,,,,,,,2,,,55,0
34680,set_tempo,60,1,0,,,,,,526316,,,,,,,
34680,control_change,26,0,1,,,,,,,,,0,64,0,,
34680,note_on,0,0,3,,,,,,,,,2,,,59,36
34680,control_change,26,0,3,,,,,,,,,2,64,0,,
34680,note_on,0,0,1,,,,,,,,,0,,,74,36
34692,note_on,12,0,1,,,,,,,,,0,,,74,0
34692,note_on,12,0,3,,,,,,,,,2,,,59,0
34740,set_tempo,60,1,0,,,,,,540541,,,,,,,
34800,note_on,0,0,3,,,,,,,,,2,,,50,36
34800,control_change,108,0,1,,,,,,,,,0,64,127,,
34800,set_tempo,60,1,0,,,,,,560748,,,,,,,
34800,note_on,0,0,1,,,,,,,,,0,,,81,36
34800,control_change,108,0,3,,,,,,,,,2,64,127,,
34809,note_on,9,0,1,,,,,,,,,0,,,81,0
34809,note_on,9,0,3,,,,,,,,,2,,,50,0
34860,set_tempo,60,1,0,,,,,,576923,,,,,,,
34890,note_on,81,0,3,,,,,,,,,2,,,57,36
34890,note_on,81,0,1,,,,,,,,,0,,,78,36
34894,note_on,4,0,3,,,,,,,,,2,,,57,0
34894,note_on,4,0,1,,,,,,,,,0,,,78,0
34920,note_on,26,0,3,,,,,,,,,2,,,63,62
34920,note_on,0,0,1,,,,,,,,,0,,,72,62
34920,note_on,0,0,1,,,,,,,,,0,,,66,54
34920,control_change,26,0,1,,,,,,,,,0,64,0,,
34920,set_tempo,0,1,0,,,,,,594059,,,,,,,
34920,time_signature,60,1,0,5,4,24,8,,,,,,,,,
34980,set_tempo,60,1,0,,,,,,612245,,,,,,,
35040,set_tempo,60,1,0,,,,,,638298,,,,,,,
35160,note_on,0,0,3,,,,,,,,,2,,,62,36
35160,control_change,0,0,3,,,,,,,,,2,64,0,,
35160,note_on,240,0,3,,,,,,,,,2,,,63,0
35280,note_on,360,0,1,,,,,,,,,0,,,72,0
35280,note_on,120,0,3,,,,,,,,,2,,,62,0
35280,note_on,0,0,1,,,,,,,,,0,,,66,0
35520,note_on,0,0,3,,,,,,,,,2,,,43,36
35520,time_signature,480,1,0,4,4,24,8,,,,,,,,,
35520,key_signature,0,1,0,,,,,G,,,,,,,,
35520,set_tempo,0,1,0,,,,,,500000,,,,,,,
35520,control_change,240,0,3,,,,,,,,,2,64,127,,
35559,note_on,39,0,3,,,,,,,,,2,,,55,36
35560,note_on,1,0,3,,,,,,,,,2,,,43,0
35599,note_on,39,0,3,,,,,,,,,2,,,55,0
35600,note_on,1,0,3,,,,,,,,,2,,,43,36
35640,note_on,40,0,3,,,,,,,,,2,,,43,0
35640,note_on,0,0,3,,,,,,,,,2,,,47,36
35679,note_on,39,0,3,,,,,,,,,2,,,55,36
35680,note_on,1,0,3,,,,,,,,,2,,,47,0
35719,note_on,39,0,3,,,,,,,,,2,,,55,0
35720,note_on,1,0,3,,,,,,,,,2,,,47,36
35760,note_on,40,0,3,,,,,,,,,2,,,47,0
35760,note_on,0,0,3,,,,,,,,,2,,,50,36
35799,note_on,39,0,3,,,,,,,,,2,,,55,36
35800,note_on,1,0,3,,,,,,,,,2,,,50,0
35839,note_on,39,0,3,,,,,,,,,2,,,55,0
35840,note_on,1,0,3,,,,,,,,,2,,,50,36
35880,control_change,0,0,3,,,,,,,,,2,64,0,,
35880,note_on,0,0,3,,,,,,,,,2,,,51,36
35880,note_on,40,0,3,,,,,,,,,2,,,50,0
35880,note_on,0,0,1,,,,,,,,,0,,,70,75
35880,note_on,600,0,1,,,,,,,,,0,,,58,67
35919,note_on,39,0,3,,,,,,,,,2,,,55,36
35920,note_on,1,0,3,,,,,,,,,2,,,51,0
35959,note_on,39,0,3,,,,,,,,,2,,,55,0
35960,note_on,1,0,3,,,,,,,,,2,,,51,36
35970,note_on,0,0,1,,,,,,,,,0,,,70,49
35970,note_on,0,0,1,,,,,,,,,0,,,58,49
35970,note_on,0,0,1,,,,,,,,,0,,,58,0
35970,note_on,90,0,1,,,,,,,,,0,,,70,0
36000,note_on,40,0,3,,,,,,,,,2,,,51,0
36000,note_on,0,0,1,,,,,,,,,0,,,59,49
36000,note_on,0,0,1,,,,,,,,,0,,,71,49
36000,control_change,0,0,1,,,,,,,,,0,64,127,,
36000,control_change,0,0,3,,,,,,,,,2,64,127,,
36000,note_on,0,0,1,,,,,,,,,0,,,58,0
36000,note_on,30,0,1,,,,,,,,,0,,,70,0
36000,note_on,0,0,3,,,,,,,,,2,,,50,36
36039,note_on,39,0,3,,,,,,,,,2,,,55,36
36040,note_on,1,0,3,,,,,,,,,2,,,50,0
36079,note_on,39,0,3,,,,,,,,,2,,,55,0
36080,note_on,1,0,3,,,,,,,,,2,,,50,36
36120,note_on,0,0,3,,,,,,,,,2,,,47,36
36120,note_on,40,0,3,,,,,,,,,2,,,50,0
36120,note_on,0,0,1,,,,,,,,,0,,,59,0
36120,note_on,120,0,1,,,,,,,,,0,,,71,0
36120,note_on,0,0,1,,,,,,,,,0,,,74,49
36120,note_on,0,0,1,,,,,,,,,0,,,62,49
36159,note_on,39,0,3,,,,,,,,,2,,,55,36
36160,note_on,1,0,3,,,,,,,,,2,,,47,0
36199,note_on,39,0,3,,,,,,,,,2,,,55,0
36200,note_on,1,0,3,,,,,,,,,2,,,47,36
36240,note_on,0,0,1,,,,,,,,,0,,,79,49
36240,note_on,0,0,1,,,,,,,,,0,,,67,49
36240,note_on,0,0,3,,,,,,,,,2,,,43,36
36240,note_on,0,0,1,,,,,,,,,0,,,62,0
36240,note_on,40,0,3,,,,,,,,,2,,,47,0
36240,note_on,120,0,1,,,,,,,,,0,,,74,0
36279,note_on,39,0,3,,,,,,,,,2,,,55,36
36280,note_on,1,0,3,,,,,,,,,2,,,43,0
36319,note_on,39,0,3,,,,,,,,,2,,,55,0
36320,note_on,1,0,3,,,,,,,,,2,,,43,36
36360,control_change,0,0,1,,,,,,,,,0,64,0,,
36360,note_on,0,0,1,,,,,,,,,0,,,67,0
36360,note_on,0,0,1,,,,,,,,,0,,,63,67
36360,note_on,0,0,1,,,,,,,,,0,,,75,75
36360,note_on,0,0,3,,,,,,,,,2,,,46,36
36360,control_change,0,0,3,,,,,,,,,2,64,0,,
36360,note_on,40,0,3,,,,,,,,,2,,,43,0
36360,note_on,120,0,1,,,,,,,,,0,,,79,0
36399,note_on,39,0,3,,,,,,,,,2,,,55,36
36400,note_on,1,0,3,,,,,,,,,2,,,46,0
36439,note_on,39,0,3,,,,,,,,,2,,,55,0
36440,note_on,1,0,3,,,,,,,,,2,,,46,36
36450,note_on,0,0,1,,,,,,,,,0,,,63,0
36450,note_on,0,0,1,,,,,,,,,0,,,63,49
36450,note_on,90,0,1,,,,,,,,,0,,,75,0
36450,note_on,0,0,1,,,,,,,,,0,,,75,49
36480,note_on,0,0,3,,,,,,,,,2,,,47,36
36480,note_on,40,0,3,,,,,,,,,2,,,46,0
36480,control_change,0,0,3,,,,,,,,,2,64,127,,
36480,note_on,0,0,1,,,,,,,,,0,,,63,0
36480,control_change,0,0,1,,,,,,,,,0,64,127,,
36480,note_on,0,0,1,,,,,,,,,0,,,62,49
36480,note_on,0,0,1,,,,,,,,,0,,,74,49
36480,note_on,30,0,1,,,,,,,,,0,,,75,0
36519,note_on,39,0,3,,,,,,,,,2,,,55,36
36520,note_on,1,0,3,,,,,,,,,2,,,47,0
36559,note_on,39,0,3,,,,,,,,,2,,,55,0
36560,note_on,1,0,3,,,,,,,,,2,,,47,36
36600,note_on,40,0,3,,,,,,,,,2,,,47,0
36600,note_on,0,0,3,,,,,,,,,2,,,50,36
36600,note_on,0,0,1,,,,,,,,,0,,,71,49
36600,note_on,0,0,1,,,,,,,,,0,,,62,0
36600,note_on,120,0,1,,,,,,,,,0,,,74,0
36639,note_on,39,0,3,,,,,,,,,2,,,55,36
36640,note_on,1,0,3,,,,,,,,,2,,,50,0
36679,note_on,39,0,3,,,,,,,,,2,,,55,0
36680,note_on,1,0,3,,,,,,,,,2,,,50,36
36720,note_on,40,0,3,,,,,,,,,2,,,50,0
36720,note_on,0,0,3,,,,,,,,,2,,,55,36
36720,note_on,120,0,1,,,,,,,,,0,,,71,0
36720,note_on,0,0,1,,,,,,,,,0,,,67,49
36759,note_on,39,0,3,,,,,,,,,2,,,43,36
36760,note_on,1,0,3,,,,,,,,,2,,,55,0
36799,note_on,39,0,3,,,,,,,,,2,,,43,0
36800,note_on,1,0,3,,,,,,,,,2,,,55,36
36840,note_on,0,0,3,,,,,,,,,2,,,51,36
36840,control_change,0,0,3,,,,,,,,,2,64,0,,
36840,note_on,40,0,3,,,,,,,,,2,,,55,0
36840,control_change,0,0,1,,,,,,,,,0,64,0,,
36840,note_on,0,0,1,,,,,,,,,0,,,58,67
36840,note_on,0,0,1,,,,,,,,,0,,,70,75
36840,note_on,120,0,1,,,,,,,,,0,,,67,0
36879,note_on,39,0,3,,,,,,,,,2,,,55,36
36880,note_on,1,0,3,,,,,,,,,2,,,51,0
36919,note_on,39,0,3,,,,,,,,,2,,,55,0
36920,note_on,1,0,3,,,,,,,,,2,,,51,36
36930,note_on,90,0,1,,,,,,,,,0,,,70,0
36930,note_on,0,0,1,,,,,,,,,0,,,58,0
36930,note_on,0,0,1,,,,,,,,,0,,,58,49
36930,note_on,0,0,1,,,,,,,,,0,,,70,49
36960,control_change,0,0,1,,,,,,,,,0,64,127,,
36960,note_on,0,0,1,,,,,,,,,0,,,71,49
36960,note_on,0,0,1,,,,,,,,,0,,,59,49
36960,note_on,40,0,3,,,,,,,,,2,,,51,0
36960,control_change,0,0,3,,,,,,,,,2,64,127,,
36960,note_on,0,0,1,,,,,,,,,0,,,58,0
36960,note_on,30,0,1,,,,,,,,,0,,,70,0
36960,note_on,0,0,3,,,,,,,,,2,,,50,36
36999,note_on,39,0,3,,,,,,,,,2,,,55,36
37000,note_on,1,0,3,,,,,,,,,2,,,50,0
37039,note_on,39,0,3,,,,,,,,,2,,,55,0
37040,note_on,1,0,3,,,,,,,,,2,,,50,36
37080,note_on,0,0,3,,,,,,,,,2,,,47,36
37080,note_on,40,0,3,,,,,,,,,2,,,50,0
37080,note_on,0,0,1,,,,,,,,,0,,,74,49
37080,note_on,0,0,1,,,,,,,,,0,,,59,0
37080,note_on,120,0,1,,,,,,,,,0,,,71,0
37080,note_on,0,0,1,,,,,,,,,0,,,62,49
37119,note_on,39,0,3,,,,,,,,,2,,,55,36
37120,note_on,1,0,3,,,,,,,,,2,,,47,0
37159,note_on,39,0,3,,,,,,,,,2,,,55,0
37160,note_on,1,0,3,,,,,,,,,2,,,47,36
37200,note_on,0,0,1,,,,,,,,,0,,,79,49
37200,note_on,40,0,3,,,,,,,,,2,,,47,0
37200,note_on,0,0,1,,,,,,,,,0,,,67,49
37200,note_on,0,0,1,,,,,,,,,0,,,62,0
37200,note_on,120,0,1,,,,,,,,,0,,,74,0
37200,note_on,0,0,3,,,,,,,,,2,,,43,36
37239,note_on,39,0,3,,,,,,,,,2,,,55,36
37240,note_on,1,0,3,,,,,,,,,2,,,43,0
37279,note_on,39,0,3,,,,,,,,,2,,,55,0
37280,note_on,1,0,3,,,,,,,,,2,,,43,36
37320,note_on,0,0,1,,,,,,,,,0,,,75,67
37320,note_on,0,0,1,,,,,,,,,0,,,67,0
37320,note_on,120,0,1,,,,,,,,,0,,,79,0
37320,note_on,0,0,1,,,,,,,,,0,,,87,75
37320,control_change,0,0,1,,,,,,,,,0,64,0,,
37320,note_on,0,0,3,,,,,,,,,2,,,46,36
37320,control_change,0,0,3,,,,,,,,,2,64,0,,
37320,note_on,40,0,3,,,,,,,,,2,,,43,0
37359,note_on,39,0,3,,,,,,,,,2,,,55,36
37360,note_on,1,0,3,,,,,,,,,2,,,46,0
37399,note_on,39,0,3,,,,,,,,,2,,,55,0
37400,note_on,1,0,3,,,,,,,,,2,,,46,36
37410,note_on,0,0,1,,,,,,,,,0,,,87,49
37410,note_on,0,0,1,,,,,,,,,0,,,75,49
37410,note_on,0,0,1,,,,,,,,,0,,,75,0
37410,note_on,90,0,1,,,,,,,,,0,,,87,0
37440,note_on,0,0,1,,,,,,,,,0,,,75,0
37440,note_on,30,0,1,,,,,,,,,0,,,87,0
37440,note_on,0,0,1,,,,,,,,,0,,,74,49
37440,note_on,0,0,3,,,,,,,,,2,,,47,36
37440,control_change,0,0,3,,,,,,,,,2,64,127,,
37440,note_on,40,0,3,,,,,,,,,2,,,46,0
37440,control_change,0,0,1,,,,,,,,,0,64,127,,
37440,note_on,0,0,1,,,,,,,,,0,,,86,49
37479,note_on,39,0,3,,,,,,,,,2,,,55,36
37480,note_on,1,0,3,,,,,,,,,2,,,47,0
37519,note_on,39,0,3,,,,,,,,,2,,,55,0
37520,note_on,1,0,3,,,,,,,,,2,,,47,36
37560,note_on,40,0,3,,,,,,,,,2,,,47,0
37560,note_on,0,0,3,,,,,,,,,2,,,50,36
37560,note_on,120,0,1,,,,,,,,,0,,,86,0
37560,note_on,0,0,1,,,,,,,,,0,,,74,0
37560,note_on,0,0,1,,,,,,,,,0,,,71,49
37560,note_on,0,0,1,,,,,,,,,0,,,83,49
37599,note_on,39,0,3,,,,,,,,,2,,,55,36
37600,note_on,1,0,3,,,,,,,,,2,,,50,0
37639,note_on,39,0,3,,,,,,,,,2,,,55,0
37640,note_on,1,0,3,,,,,,,,,2,,,50,36
37680,note_on,40,0,3,,,,,,,,,2,,,50,0
37680,note_on,0,0,3,,,,,,,,,2,,,55,36
37680,note_on,0,0,1,,,,,,,,,0,,,79,49
37680,note_on,0,0,1,,,,,,,,,0,,,67,49
37680,note_on,0,0,1,,,,,,,,,0,,,71,0
37680,note_on,120,0,1,,,,,,,,,0,,,83,0
37719,note_on,39,0,3,,,,,,,,,2,,,43,36
37720,note_on,1,0,3,,,,,,,,,2,,,55,0
37759,note_on,39,0,3,,,,,,,,,2,,,43,0
37760,note_on,1,0,3,,,,,,,,,2,,,55,36
37800,note_on,40,0,3,,,,,,,,,2,,,55,0
37800,control_change,0,0,3,,,,,,,,,2,64,0,,
37800,note_on,0,0,3,,,,,,,,,2,,,48,36
37800,note_on,120,0,1,,,,,,,,,0,,,79,0
37800,note_on,0,0,1,,,,,,,,,0,,,69,67
37800,note_on,0,0,1,,,,,,,,,0,,,81,75
37800,control_change,0,0,1,,,,,,,,,0,64,0,,
37800,note_on,0,0,1,,,,,,,,,0,,,67,0
37839,note_on,39,0,3,,,,,,,,,2,,,57,36
37840,note_on,1,0,3,,,,,,,,,2,,,48,0
37879,note_on,39,0,3,,,,,,,,,2,,,57,0
37880,note_on,1,0,3,,,,,,,,,2,,,48,36
37890,note_on,0,0,1,,,,,,,,,0,,,81,49
37890,note_on,0,0,1,,,,,,,,,0,,,69,49
37890,note_on,0,0,1,,,,,,,,,0,,,69,0
37890,note_on,90,0,1,,,,,,,,,0,,,81,0
37920,control_change,0,0,3,,,,,,,,,2,64,127,,
37920,note_on,40,0,3,,,,,,,,,2,,,48,0
37920,note_on,30,0,1,,,,,,,,,0,,,81,0
37920,note_on,0,0,1,,,,,,,,,0,,,69,0
37920,control_change,0,0,1,,,,,,,,,0,64,127,,
37920,note_on,0,0,1,,,,,,,,,0,,,79,62
37920,note_on,0,0,3,,,,,,,,,2,,,49,49
37920,note_on,0,0,1,,,,,,,,,0,,,67,62
37959,note_on,39,0,3,,,,,,,,,2,,,57,49
37960,note_on,1,0,3,,,,,,,,,2,,,49,0
37999,note_on,39,0,3,,,,,,,,,2,,,57,0
38000,note_on,1,0,3,,,,,,,,,2,,,49,49
38040,note_on,0,0,1,,,,,,,,,0,,,67,0
38040,note_on,0,0,3,,,,,,,,,2,,,50,49
38040,note_on,40,0,3,,,,,,,,,2,,,49,0
38040,note_on,120,0,1,,,,,,,,,0,,,79,0
38040,note_on,0,0,1,,,,,,,,,0,,,66,62
38040,note_on,0,0,1,,,,,,,,,0,,,78,62
38079,note_on,39,0,3,,,,,,,,,2,,,57,49
38080,note_on,1,0,3,,,,,,,,,2,,,50,0
38119,note_on,39,0,3,,,,,,,,,2,,,57,0
38120,note_on,1,0,3,,,,,,,,,2,,,50,49
38160,note_on,0,0,1,,,,,,,,,0,,,72,62
38160,note_on,0,0,1,,,,,,,,,0,,,84,62
38160,note_on,40,0,3,,,,,,,,,2,,,50,0
38160,note_on,0,0,3,,,,,,,,,2,,,51,49
38160,note_on,0,0,1,,,,,,,,,0,,,66,0
38160,note_on,120,0,1,,,,,,,,,0,,,78,0
38199,note_on,39,0,3,,,,,,,,,2,,,57,49
38200,note_on,1,0,3,,,,,,,,,2,,,51,0
38239,note_on,39,0,3,,,,,,,,,2,,,57,0
38240,note_on,1,0,3,,,,,,,,,2,,,51,49
38280,note_on,40,0,3,,,,,,,,,2,,,51,0
38280,control_change,0,0,3,,,,,,,,,2,64,0,,
38280,note_on,0,0,3,,,,,,,,,2,,,50,49
38280,note_on,0,0,1,,,,,,,,,0,,,83,88
38280,note_on,0,0,1,,,,,,,,,0,,,72,0
38280,note_on,0,0,1,,,,,,,,,0,,,71,80
38280,control_change,0,0,1,,,,,,,,,0,64,0,,
38280,note_on,120,0,1,,,,,,,,,0,,,84,0
38319,note_on,39,0,3,,,,,,,,,2,,,59,49
38320,note_on,1,0,3,,,,,,,,,2,,,50,0
38359,note_on,39,0,3,,,,,,,,,2,,,59,0
38360,note_on,1,0,3,,,,,,,,,2,,,50,49
38370,note_on,0,0,1,,,,,,,,,0,,,71,0
38370,note_on,90,0,1,,,,,,,,,0,,,83,0
38370,note_on,0,0,1,,,,,,,,,0,,,71,62
38370,note_on,0,0,1,,,,,,,,,0,,,83,62
38400,note_on,0,0,1,,,,,,,,,0,,,81,62
38400,note_on,30,0,1,,,,,,,,,0,,,83,0
38400,control_change,0,0,3,,,,,,,,,2,64,127,,
38400,note_on,0,0,1,,,,,,,,,0,,,69,62
38400,note_on,40,0,3,,,,,,,,,2,,,50,0
38400,note_on,0,0,3,,,,,,,,,2,,,51,49
38400,note_on,0,0,1,,,,,,,,,0,,,71,0
38439,note_on,39,0,3,,,,,,,,,2,,,59,49
38440,note_on,1,0,3,,,,,,,,,2,,,51,0
38479,note_on,39,0,3,,,,,,,,,2,,,59,0
38480,note_on,1,0,3,,,,,,,,,2,,,51,49
38520,note_on,0,0,1,,,,,,,,,0,,,69,0
38520,note_on,120,0,1,,,,,,,,,0,,,81,0
38520,note_on,0,0,1,,,,,,,,,0,,,68,62
38520,note_on,0,0,1,,,,,,,,,0,,,80,62
38520,note_on,0,0,3,,,,,,,,,2,,,52,49
38520,control_change,0,0,3,,,,,,,,,2,64,0,,
38520,note_on,40,0,3,,,,,,,,,2,,,51,0
38559,note_on,39,0,3,,,,,,,,,2,,,59,49
38560,note_on,1,0,3,,,,,,,,,2,,,52,0
38599,note_on,39,0,3,,,,,,,,,2,,,59,0
38600,note_on,1,0,3,,,,,,,,,2,,,52,49
38640,note_on,40,0,3,,,,,,,,,2,,,52,0
38640,note_on,0,0,3,,,,,,,,,2,,,53,49
38640,note_on,0,0,1,,,,,,,,,0,,,74,62
38640,note_on,0,0,1,,,,,,,,,0,,,68,0
38640,note_on,120,0,1,,,,,,,,,0,,,80,0
38640,note_on,0,0,1,,,,,,,,,0,,,86,62
38679,note_on,39,0,3,,,,,,,,,2,,,59,49
38680,note_on,1,0,3,,,,,,,,,2,,,53,0
38719,note_on,39,0,3,,,,,,,,,2,,,59,0
38720,note_on,1,0,3,,,,,,,,,2,,,53,49
38760,note_on,0,0,1,,,,,,,,,0,,,72,88
38760,note_on,0,0,1,,,,,,,,,0,,,84,88
38760,control_change,0,0,1,,,,,,,,,0,64,127,,
38760,note_on,0,0,1,,,,,,,,,0,,,74,0
38760,note_on,120,0,1,,,,,,,,,0,,,86,0
38760,note_on,0,0,3,,,,,,,,,2,,,52,75
38760,control_change,0,0,3,,,,,,,,,2,64,127,,
38760,note_on,40,0,3,,,,,,,,,2,,,53,0
38799,note_on,39,0,3,,,,,,,,,2,,,60,75
38800,note_on,1,0,3,,,,,,,,,2,,,52,0
38839,note_on,39,0,3,,,,,,,,,2,,,60,0
38840,note_on,1,0,3,,,,,,,,,2,,,56,75
38850,note_on,0,0,1,,,,,,,,,0,,,84,88
38850,note_on,0,0,1,,,,,,,,,0,,,72,88
38850,note_on,90,0,1,,,,,,,,,0,,,84,0
38850,note_on,0,0,1,,,,,,,,,0,,,72,0
38880,control_change,0,0,1,,,,,,,,,0,64,0,,
38880,note_on,40,0,3,,,,,,,,,2,,,56,0
38880,note_on,30,0,1,,,,,,,,,0,,,84,0
38880,note_on,0,0,1,,,,,,,,,0,,,72,0
38880,note_on,0,0,1,,,,,,,,,0,,,71,88
38880,note_on,0,0,1,,,,,,,,,0,,,83,88
38880,note_on,0,0,3,,,,,,,,,2,,,50,75
38880,control_change,0,0,3,,,,,,,,,2,64,0,,
38919,note_on,39,0,3,,,,,,,,,2,,,56,75
38920,note_on,1,0,3,,,,,,,,,2,,,50,0
38959,note_on,39,0,3,,,,,,,,,2,,,56,0
38960,note_on,1,0,3,,,,,,,,,2,,,53,75
39000,note_on,0,0,1,,,,,,,,,0,,,71,0
39000,note_on,0,0,1,,,,,,,,,0,,,81,88
39000,note_on,0,0,3,,,,,,,,,2,,,48,75
39000,control_change,0,0,3,,,,,,,,,2,64,127,,
39000,note_on,40,0,3,,,,,,,,,2,,,53,0
39000,note_on,120,0,1,,,,,,,,,0,,,83,0
39000,note_on,0,0,1,,,,,,,,,0,,,69,88
39039,note_on,39,0,3,,,,,,,,,2,,,57,75
39040,note_on,1,0,3,,,,,,,,,2,,,48,0
39079,note_on,39,0,3,,,,,,,,,2,,,57,0
39080,note_on,1,0,3,,,,,,,,,2,,,52,75
39120,note_on,0,0,1,,,,,,,,,0,,,76,88
39120,note_on,0,0,1,,,,,,,,,0,,,88,88
39120,note_on,0,0,3,,,,,,,,,2,,,45,75
39120,note_on,40,0,3,,,,,,,,,2,,,52,0
39120,note_on,120,0,1,,,,,,,,,0,,,81,0
39120,note_on,0,0,1,,,,,,,,,0,,,69,0
39159,note_on,39,0,3,,,,,,,,,2,,,60,75
39160,note_on,1,0,3,,,,,,,,,2,,,45,0
39199,note_on,39,0,3,,,,,,,,,2,,,60,0
39200,control_change,1,0,3,,,,,,,,,2,64,0,,
39200,note_on,0,0,3,,,,,,,,,2,,,52,75
39240,control_change,0,0,1,,,,,,,,,0,64,127,,
39240,note_on,0,0,1,,,,,,,,,0,,,71,88
39240,note_on,0,0,1,,,,,,,,,0,,,76,0
39240,note_on,120,0,1,,,,,,,,,0,,,88,0
39240,note_on,0,0,3,,,,,,,,,2,,,43,75
39240,note_on,0,0,1,,,,,,,,,0,,,83,88
39240,control_change,0,0,3,,,,,,,,,2,64,127,,
39240,note_on,40,0,3,,,,,,,,,2,,,52,0
39279,note_on,39,0,3,,,,,,,,,2,,,55,75
39280,note_on,1,0,3,,,,,,,,,2,,,43,0
39319,note_on,39,0,3,,,,,,,,,2,,,55,0
39320,note_on,1,0,3,,,,,,,,,2,,,52,75
39330,note_on,90,0,1,,,,,,,,,0,,,83,0
39330,note_on,0,0,1,,,,,,,,,0,,,71,0
39330,note_on,0,0,1,,,,,,,,,0,,,71,88
39330,note_on,0,0,1,,,,,,,,,0,,,83,88
39360,note_on,0,0,1,,,,,,,,,0,,,69,88
39360,note_on,0,0,3,,,,,,,,,2,,,45,75
39360,note_on,30,0,1,,,,,,,,,0,,,83,0
39360,note_on,0,0,1,,,,,,,,,0,,,71,0
39360,note_on,0,0,1,,,,,,,,,0,,,81,88
39360,note_on,40,0,3,,,,,,,,,2,,,52,0
39399,note_on,39,0,3,,,,,,,,,2,,,54,75
39400,note_on,1,0,3,,,,,,,,,2,,,45,0
39439,note_on,39,0,3,,,,,,,,,2,,,54,0
39440,note_on,0,0,3,,,,,,,,,2,,,52,75
39440,control_change,1,0,3,,,,,,,,,2,64,0,,
39480,note_on,0,0,1,,,,,,,,,0,,,79,88
39480,note_on,0,0,1,,,,,,,,,0,,,69,0
39480,note_on,0,0,3,,,,,,,,,2,,,47,75
39480,control_change,0,0,3,,,,,,,,,2,64,127,,
39480,note_on,40,0,3,,,,,,,,,2,,,52,0
39480,control_change,0,0,1,,,,,,,,,0,64,0,,
39480,note_on,0,0,1,,,,,,,,,0,,,67,88
39480,note_on,120,0,1,,,,,,,,,0,,,81,0
39519,note_on,39,0,3,,,,,,,,,2,,,55,75
39520,note_on,1,0,3,,,,,,,,,2,,,47,0
39559,note_on,39,0,3,,,,,,,,,2,,,55,0
39560,note_on,1,0,3,,,,,,,,,2,,,52,75
39600,note_on,120,0,1,,,,,,,,,0,,,79,0
39600,note_on,0,0,3,,,,,,,,,2,,,43,75
39600,note_on,0,0,1,,,,,,,,,0,,,76,88
39600,note_on,0,0,1,,,,,,,,,0,,,88,88
39600,note_on,0,0,1,,,,,,,,,0,,,67,0
39600,note_on,40,0,3,,,,,,,,,2,,,52,0
39639,note_on,39,0,3,,,,,,,,,2,,,55,75
39640,note_on,1,0,3,,,,,,,,,2,,,43,0
39679,note_on,39,0,3,,,,,,,,,2,,,55,0
39680,control_change,1,0,3,,,,,,,,,2,64,0,,
39680,note_on,0,0,3,,,,,,,,,2,,,52,75
39720,note_on,0,0,3,,,,,,,,,2,,,47,75
39720,note_on,120,0,1,,,,,,,,,0,,,88,0
39720,note_on,0,0,1,,,,,,,,,0,,,76,0
39720,note_on,0,0,1,,,,,,,,,0,,,79,88
39720,control_change,0,0,1,,,,,,,,,0,64,127,,
39720,note_on,0,0,1,,,,,,,,,0,,,67,88
39720,note_on,40,0,3,,,,,,,,,2,,,52,0
39720,control_change,0,0,3,,,,,,,,,2,64,127,,
39759,note_on,39,0,3,,,,,,,,,2,,,55,75
39760,note_on,1,0,3,,,,,,,,,2,,,47,0
39799,note_on,39,0,3,,,,,,,,,2,,,55,0
39800,note_on,1,0,3,,,,,,,,,2,,,52,75
39810,note_on,90,0,1,,,,,,,,,0,,,79,0
39810,note_on,0,0,1,,,,,,,,,0,,,67,0
39810,note_on,0,0,1,,,,,,,,,0,,,67,88
39810,note_on,0,0,1,,,,,,,,,0,,,79,88
39840,control_change,0,0,3,,,,,,,,,2,64,0,,
39840,note_on,40,0,3,,,,,,,,,2,,,52,0
39840,note_on,30,0,1,,,,,,,,,0,,,79,0
39840,note_on,0,0,3,,,,,,,,,2,,,48,75
39840,note_on,0,0,1,,,,,,,,,0,,,66,88
39840,note_on,0,0,1,,,,,,,,,0,,,78,88
39840,control_change,0,0,1,,,,,,,,,0,64,0,,
39840,note_on,0,0,1,,,,,,,,,0,,,67,0
39879,note_on,39,0,3,,,,,,,,,2,,,55,75
39880,note_on,1,0,3,,,,,,,,,2,,,48,0
39919,note_on,39,0,3,,,,,,,,,2,,,55,0
39920,note_on,1,0,3,,,,,,,,,2,,,52,75
39960,note_on,0,0,3,,,,,,,,,2,,,49,75
39960,control_change,0,0,3,,,,,,,,,2,64,127,,
39960,note_on,40,0,3,,,,,,,,,2,,,52,0
39960,note_on,0,0,1,,,,,,,,,0,,,76,88
39960,note_on,0,0,1,,,,,,,,,0,,,64,88
39960,note_on,0,0,1,,,,,,,,,0,,,66,0
39960,note_on,120,0,1,,,,,,,,,0,,,78,0
39960,control_change,0,0,1,,,,,,,,,0,64,127,,
39999,note_on,39,0,3,,,,,,,,,2,,,58,75
40000,note_on,1,0,3,,,,,,,,,2,,,49,0
40039,note_on,39,0,3,,,,,,,,,2,,,58,0
40040,note_on,1,0,3,,,,,,,,,2,,,55,75
40080,note_on,40,0,3,,,,,,,,,2,,,55,0
40080,note_on,0,0,3,,,,,,,,,2,,,48,75
40080,note_on,0,0,1,,,,,,,,,0,,,82,88
40080,note_on,0,0,1,,,,,,,,,0,,,70,88
40080,note_on,0,0,1,,,,,,,,,0,,,64,0
40080,note_on,120,0,1,,,,,,,,,0,,,76,0
40119,note_on,39,0,3,,,,,,,,,2,,,55,75
40120,note_on,1,0,3,,,,,,,,,2,,,48,0
40159,note_on,39,0,3,,,,,,,,,2,,,55,0
40160,note_on,1,0,3,,,,,,,,,2,,,52,75
40200,note_on,40,0,3,,,,,,,,,2,,,52,0
40200,note_on,120,0,1,,,,,,,,,0,,,82,0
40200,note_on,0,0,1,,,,,,,,,0,,,72,88
40200,note_on,0,0,1,,,,,,,,,0,,,60,88
40200,note_on,0,0,1,,,,,,,,,0,,,70,0
40200,note_on,0,0,3,,,,,,,,,2,,,46,75
40239,note_on,39,0,3,,,,,,,,,2,,,55,75
40240,note_on,1,0,3,,,,,,,,,2,,,46,0
40279,note_on,39,0,3,,,,,,,,,2,,,55,0
40280,note_on,0,0,3,,,,,,,,,2,,,52,75
40280,control_change,1,0,3,,,,,,,,,2,64,0,,
40290,note_on,90,0,1,,,,,,,,,0,,,72,0
40290,note_on,0,0,1,,,,,,,,,0,,,60,0
40290,note_on,0,0,1,,,,,,,,,0,,,60,88
40290,note_on,0,0,1,,,,,,,,,0,,,72,88
40290,control_change,0,0,1,,,,,,,,,0,64,0,,
40320,note_on,0,0,2,,,,,,,,,1,,,59,49
40320,note_on,40,0,3,,,,,,,,,2,,,52,0
40320,note_on,0,0,3,,,,,,,,,2,,,47,36
40320,control_change,0,0,3,,,,,,,,,2,64,127,,
40320,control_change,8400,0,2,,,,,,,,,1,64,127,,
40320,note_on,30,0,1,,,,,,,,,0,,,72,0
40320,note_on,0,0,1,,,,,,,,,0,,,60,0
40320,note_on,0,0,1,,,,,,,,,0,,,71,114
40359,note_on,39,0,3,,,,,,,,,2,,,54,36
40360,note_on,1,0,3,,,,,,,,,2,,,47,0
40399,note_on,39,0,3,,,,,,,,,2,,,54,0
40400,note_on,1,0,3,,,,,,,,,2,,,52,36
40440,note_on,0,0,2,,,,,,,,,1,,,57,49
40440,note_on,0,0,3,,,,,,,,,2,,,48,36
40440,note_on,120,0,2,,,,,,,,,1,,,59,0
40440,note_on,40,0,3,,,,,,,,,2,,,52,0
40479,note_on,39,0,3,,,,,,,,,2,,,54,36
40480,note_on,1,0,3,,,,,,,,,2,,,48,0
40519,note_on,39,0,3,,,,,,,,,2,,,54,0
40520,note_on,1,0,3,,,,,,,,,2,,,52,36
40560,note_on,0,0,2,,,,,,,,,1,,,66,49
40560,note_on,0,0,3,,,,,,,,,2,,,47,36
40560,note_on,120,0,2,,,,,,,,,1,,,57,0
40560,note_on,40,0,3,,,,,,,,,2,,,52,0
40599,note_on,39,0,3,,,,,,,,,2,,,54,36
40600,note_on,1,0,3,,,,,,,,,2,,,47,0
40639,note_on,39,0,3,,,,,,,,,2,,,54,0
40640,note_on,1,0,3,,,,,,,,,2,,,52,36
40680,note_on,40,0,3,,,,,,,,,2,,,52,0
40680,note_on,120,0,2,,,,,,,,,1,,,66,0
40680,control_change,0,0,2,,,,,,,,,1,64,0,,
40680,note_on,0,0,2,,,,,,,,,1,,,60,49
40680,note_on,0,0,3,,,,,,,,,2,,,46,36
40680,control_change,0,0,3,,,,,,,,,2,64,0,,
40719,note_on,39,0,3,,,,,,,,,2,,,55,36
40720,note_on,1,0,3,,,,,,,,,2,,,46,0
40759,note_on,39,0,3,,,,,,,,,2,,,55,0
40760,note_on,1,0,3,,,,,,,,,2,,,52,36
40770,note_on,90,0,2,,,,,,,,,1,,,60,0
40770,note_on,0,0,2,,,,,,,,,1,,,60,49
40800,note_on,40,0,3,,,,,,,,,2,,,52,0
40800,note_on,480,0,1,,,,,,,,,0,,,71,0
40800,note_on,0,0,3,,,,,,,,,2,,,47,36
40800,note_on,30,0,2,,,,,,,,,1,,,60,0
40800,control_change,0,0,2,,,,,,,,,1,64,127,,
40800,note_on,0,0,2,,,,,,,,,1,,,59,49
40800,note_on,0,0,1,,,,,,,,,0,,,71,114
40800,control_change,0,0,3,,,,,,,,,2,64,127,,
40839,note_on,39,0,3,,,,,,,,,2,,,54,36
40840,note_on,1,0,3,,,,,,,,,2,,,47,0
40879,note_on,39,0,3,,,,,,,,,2,,,54,0
40880,note_on,1,0,3,,,,,,,,,2,,,52,36
40920,note_on,0,0,2,,,,,,,,,1,,,57,49
40920,note_on,0,0,3,,,,,,,,,2,,,48,36
40920,note_on,40,0,3,,,,,,,,,2,,,52,0
40920,note_on,120,0,2,,,,,,,,,1,,,59,0
40959,note_on,39,0,3,,,,,,,,,2,,,54,36
40960,note_on,1,0,3,,,,,,,,,2,,,48,0
40999,note_on,39,0,3,,,,,,,,,2,,,54,0
41000,note_on,1,0,3,,,,,,,,,2,,,52,36
41040,note_on,0,0,3,,,,,,,,,2,,,47,36
41040,note_on,0,0,2,,,,,,,,,1,,,66,49
41040,note_on,120,0,2,,,,,,,,,1,,,57,0
41040,note_on,40,0,3,,,,,,,,,2,,,52,0
41079,note_on,39,0,3,,,,,,,,,2,,,54,36
41080,note_on,1,0,3,,,,,,,,,2,,,47,0
41119,note_on,39,0,3,,,,,,,,,2,,,54,0
41120,note_on,1,0,3,,,,,,,,,2,,,52,36
41160,note_on,40,0,3,,,,,,,,,2,,,52,0
41160,control_change,0,0,3,,,,,,,,,2,64,0,,
41160,note_on,0,0,3,,,,,,,,,2,,,45,36
41160,note_on,120,0,2,,,,,,,,,1,,,66,0
41160,control_change,0,0,2,,,,,,,,,1,64,0,,
41160,note_on,0,0,2,,,,,,,,,1,,,60,49
41199,note_on,39,0,3,,,,,,,,,2,,,54,36
41200,note_on,1,0,3,,,,,,,,,2,,,45,0
41239,note_on,39,0,3,,,,,,,,,2,,,54,0
41240,note_on,1,0,3,,,,,,,,,2,,,51,36
41250,note_on,0,0,2,,,,,,,,,1,,,60,49
41250,note_on,90,0,2,,,,,,,,,1,,,60,0
41280,key_signature,5760,1,0,,,,,E,,,,,,,,
41280,note_on,0,0,3,,,,,,,,,2,,,44,36
41280,control_change,0,0,3,,,,,,,,,2,64,127,,
41280,note_on,40,0,3,,,,,,,,,2,,,51,0
41280,note_on,30,0,2,,,,,,,,,1,,,60,0
41280,note_on,0,0,2,,,,,,,,,1,,,59,49
41280,control_change,0,0,2,,,,,,,,,1,64,127,,
41280,note_on,480,0,1,,,,,,,,,0,,,71,0
41280,note_on,0,0,1,,,,,,,,,0,,,71,49
41319,note_on,39,0,3,,,,,,,,,2,,,52,36
41320,note_on,1,0,3,,,,,,,,,2,,,44,0
41359,note_on,39,0,3,,,,,,,,,2,,,52,0
41360,note_on,1,0,3,,,,,,,,,2,,,47,36
41400,note_on,0,0,3,,,,,,,,,2,,,42,36
41400,note_on,40,0,3,,,,,,,,,2,,,47,0
41400,note_on,0,0,2,,,,,,,,,1,,,63,49
41400,note_on,120,0,2,,,,,,,,,1,,,59,0
41439,note_on,39,0,3,,,,,,,,,2,,,52,36
41440,note_on,1,0,3,,,,,,,,,2,,,42,0
41479,note_on,39,0,3,,,,,,,,,2,,,52,0
41480,note_on,1,0,3,,,,,,,,,2,,,45,36
41520,note_on,0,0,3,,,,,,,,,2,,,40,36
41520,note_on,40,0,3,,,,,,,,,2,,,45,0
41520,note_on,120,0,2,,,,,,,,,1,,,63,0
41520,note_on,0,0,2,,,,,,,,,1,,,64,49
41559,note_on,39,0,3,,,,,,,,,2,,,52,36
41560,note_on,1,0,3,,,,,,,,,2,,,40,0
41599,note_on,39,0,3,,,,,,,,,2,,,52,0
41600,note_on,1,0,3,,,,,,,,,2,,,44,36
41640,control_change,0,0,2,,,,,,,,,1,64,0,,
41640,note_on,0,0,2,,,,,,,,,1,,,61,49
41640,note_on,120,0,2,,,,,,,,,1,,,64,0
41640,note_on,0,0,3,,,,,,,,,2,,,45,36
41640,note_on,40,0,3,,,,,,,,,2,,,44,0
41640,control_change,0,0,3,,,,,,,,,2,64,0,,
41679,note_on,39,0,3,,,,,,,,,2,,,52,36
41680,note_on,1,0,3,,,,,,,,,2,,,45,0
41719,note_on,39,0,3,,,,,,,,,2,,,52,0
41720,note_on,1,0,3,,,,,,,,,2,,,49,36
41730,note_on,90,0,2,,,,,,,,,1,,,61,0
41730,note_on,0,0,2,,,,,,,,,1,,,61,49
41760,note_on,40,0,3,,,,,,,,,2,,,49,0
41760,control_change,0,0,3,,,,,,,,,2,64,127,,
41760,note_on,0,0,3,,,,,,,,,2,,,44,36
41760,note_on,30,0,2,,,,,,,,,1,,,61,0
41760,control_change,0,0,2,,,,,,,,,1,64,127,,
41760,note_on,0,0,2,,,,,,,,,1,,,59,49
41760,note_on,0,0,1,,,,,,,,,0,,,71,49
41760,note_on,480,0,1,,,,,,,,,0,,,71,0
41799,note_on,39,0,3,,,,,,,,,2,,,52,36
41800,note_on,1,0,3,,,,,,,,,2,,,44,0
41820,set_tempo,540,1,0,,,,,,512821,,,,,,,
41839,note_on,39,0,3,,,,,,,,,2,,,52,0
41840,note_on,1,0,3,,,,,,,,,2,,,47,36
41880,set_tempo,60,1,0,,,,,,526316,,,,,,,
41880,note_on,0,0,2,,,,,,,,,1,,,63,49
41880,note_on,120,0,2,,,,,,,,,1,,,59,0
41880,note_on,40,0,3,,,,,,,,,2,,,47,0
41880,note_on,0,0,3,,,,,,,,,2,,,42,36
41919,note_on,39,0,3,,,,,,,,,2,,,52,36
41920,note_on,1,0,3,,,,,,,,,2,,,42,0
41940,set_tempo,60,1,0,,,,,,540541,,,,,,,
41959,note_on,39,0,3,,,,,,,,,2,,,52,0
41960,note_on,1,0,3,,,,,,,,,2,,,45,36
42000,set_tempo,60,1,0,,,,,,560748,,,,,,,
42000,note_on,0,0,2,,,,,,,,,1,,,64,49
42000,note_on,0,0,3,,,,,,,,,2,,,40,36
42000,note_on,120,0,2,,,,,,,,,1,,,63,0
42000,note_on,40,0,3,,,,,,,,,2,,,45,0
42039,note_on,39,0,3,,,,,,,,,2,,,52,36
42040,note_on,1,0,3,,,,,,,,,2,,,40,0
42060,set_tempo,60,1,0,,,,,,576923,,,,,,,
42079,note_on,39,0,3,,,,,,,,,2,,,52,0
42080,note_on,1,0,3,,,,,,,,,2,,,44,36
42120,note_on,0,0,2,,,,,,,,,1,,,59,49
42120,note_on,360,0,1,,,,,,,,,0,,,71,0
42120,note_on,0,0,1,,,,,,,,,0,,,63,49
42120,note_on,120,0,2,,,,,,,,,1,,,64,0
42120,control_change,0,0,2,,,,,,,,,1,64,0,,
42120,note_on,0,0,1,,,,,,,,,0,,,69,49
42120,note_on,40,0,3,,,,,,,,,2,,,44,0
42120,control_change,0,0,3,,,,,,,,,2,64,0,,
42120,note_on,0,0,3,,,,,,,,,2,,,42,36
42120,set_tempo,60,1,0,,,,,,594059,,,,,,,
42159,note_on,39,0,3,,,,,,,,,2,,,51,36
42160,note_on,1,0,3,,,,,,,,,2,,,42,0
42180,set_tempo,60,1,0,,,,,,612245,,,,,,,
42199,note_on,39,0,3,,,,,,,,,2,,,51,0
42200,note_on,1,0,3,,,,,,,,,2,,,47,36
42210,note_on,90,0,2,,,,,,,,,1,,,59,0
42210,note_on,0,0,2,,,,,,,,,1,,,59,49
42240,note_on,120,0,1,,,,,,,,,0,,,69,0
42240,note_on,0,0,1,,,,,,,,,0,,,63,0
42240,note_on,0,0,1,,,,,,,,,0,,,59,36
42240,note_on,0,0,1,,,,,,,,,0,,,68,36
42240,note_on,30,0,2,,,,,,,,,1,,,59,0
42240,note_on,0,0,1,,,,,,,,,0,,,64,36
42240,set_tempo,60,1,0,,,,,,638298,,,,,,,
42240,note_on,40,0,3,,,,,,,,,2,,,47,0
42240,control_change,0,0,3,,,,,,,,,2,64,127,,
42240,note_on,0,0,3,,,,,,,,,2,,,44,36
42279,note_on,39,0,3,,,,,,,,,2,,,52,36
42280,note_on,1,0,3,,,,,,,,,2,,,44,0
42319,note_on,39,0,3,,,,,,,,,2,,,52,0
42320,note_on,1,0,3,,,,,,,,,2,,,47,36
42360,note_on,40,0,3,,,,,,,,,2,,,47,0
42360,note_on,0,0,1,,,,,,,,,0,,,66,36
42360,note_on,0,0,1,,,,,,,,,0,,,57,36
42360,note_on,0,0,1,,,,,,,,,0,,,64,0
42360,note_on,0,0,3,,,,,,,,,2,,,45,36
42360,note_on,0,0,1,,,,,,,,,0,,,59,0
42360,note_on,120,0,1,,,,,,,,,0,,,68,0
42360,note_on,120,0,2,,,,,,,,,1,,,61,36
42360,control_change,0,0,3,,,,,,,,,2,64,0,,
42399,note_on,39,0,3,,,,,,,,,2,,,54,36
42400,note_on,1,0,3,,,,,,,,,2,,,45,0
42439,note_on,39,0,3,,,,,,,,,2,,,54,0
42440,note_on,1,0,3,,,,,,,,,2,,,49,36
42450,note_on,90,0,2,,,,,,,,,1,,,61,0
42450,note_on,0,0,2,,,,,,,,,1,,,61,36
42480,note_on,120,0,1,,,,,,,,,0,,,66,0
42480,note_on,0,0,1,,,,,,,,,0,,,57,0
42480,note_on,0,0,1,,,,,,,,,0,,,56,36
42480,note_on,30,0,2,,,,,,,,,1,,,61,0
42480,note_on,40,0,3,,,,,,,,,2,,,49,0
42480,control_change,0,0,3,,,,,,,,,2,64,127,,
42480,note_on,0,0,3,,,,,,,,,2,,,47,36
42480,note_on,0,0,1,,,,,,,,,0,,,59,36
42480,note_on,0,0,1,,,,,,,,,0,,,64,36
42519,note_on,39,0,3,,,,,,,,,2,,,52,36
42520,note_on,1,0,3,,,,,,,,,2,,,47,0
42559,note_on,39,0,3,,,,,,,,,2,,,52,0
42560,note_on,1,0,3,,,,,,,,,2,,,46,36
42600,note_on,0,0,1,,,,,,,,,0,,,63,36
42600,note_on,0,0,1,,,,,,,,,0,,,57,36
42600,note_on,0,0,1,,,,,,,,,0,,,56,0
42600,note_on,0,0,1,,,,,,,,,0,,,59,0
42600,note_on,120,0,1,,,,,,,,,0,,,64,0
42600,note_on,0,0,3,,,,,,,,,2,,,47,36
42600,control_change,0,0,3,,,,,,,,,2,64,0,,
42600,note_on,40,0,3,,,,,,,,,2,,,46,0
42600,note_on,120,0,2,,,,,,,,,1,,,59,36
42639,note_on,39,0,3,,,,,,,,,2,,,49,36
42640,note_on,1,0,3,,,,,,,,,2,,,47,0
42679,note_on,39,0,3,,,,,,,,,2,,,49,0
42680,note_on,1,0,3,,,,,,,,,2,,,47,36
42690,note_on,0,0,2,,,,,,,,,1,,,59,36
42690,note_on,90,0,2,,,,,,,,,1,,,59,0
42720,note_on,40,0,3,,,,,,,,,2,,,47,0
42720,control_change,0,0,3,,,,,,,,,2,64,127,,
42720,note_on,0,0,3,,,,,,,,,2,,,40,36
42720,set_tempo,480,1,0,,,,,,500000,,,,,,,
42720,note_on,0,0,1,,,,,,,,,0,,,64,36
42720,note_on,30,0,2,,,,,,,,,1,,,59,0
42720,note_on,0,0,1,,,,,,,,,0,,,59,36
42720,note_on,0,0,1,,,,,,,,,0,,,56,36
42720,note_on,120,0,1,,,,,,,,,0,,,63,0
42720,control_change,0,0,1,,,,,,,,,0,64,127,,
42720,note_on,0,0,1,,,,,,,,,0,,,57,0
42726,note_on,6,0,3,,,,,,,,,2,,,40,0
42780,note_on,0,0,1,,,,,,,,,0,,,56,0
42780,note_on,0,0,1,,,,,,,,,0,,,59,0
42780,note_on,60,0,1,,,,,,,,,0,,,64,0
42780,note_on,54,0,3,,,,,,,,,2,,,47,36
42786,note_on,6,0,3,,,,,,,,,2,,,47,0
42825,note_on,45,0,1,,,,,,,,,0,,,64,36
42840,note_on,0,0,1,,,,,,,,,0,,,68,49
42840,note_on,15,0,1,,,,,,,,,0,,,64,0
42840,note_on,0,0,3,,,,,,,,,2,,,59,36
42840,note_on,54,0,3,,,,,,,,,2,,,52,36
42846,note_on,0,0,3,,,,,,,,,2,,,52,0
42846,note_on,6,0,3,,,,,,,,,2,,,59,0
42849,note_on,9,0,1,,,,,,,,,0,,,68,0
42930,note_on,81,0,1,,,,,,,,,0,,,68,49
42960,note_on,30,0,1,,,,,,,,,0,,,68,0
42960,note_on,114,0,3,,,,,,,,,2,,,40,36
42960,note_on,0,0,1,,,,,,,,,0,,,64,49
42966,note_on,6,0,3,,,,,,,,,2,,,40,0
43020,note_on,60,0,1,,,,,,,,,0,,,64,0
43020,note_on,54,0,3,,,,,,,,,2,,,47,36
43026,note_on,6,0,3,,,,,,,,,2,,,47,0
43065,note_on,45,0,1,,,,,,,,,0,,,64,49
43080,note_on,15,0,1,,,,,,,,,0,,,64,0
43080,note_on,0,0,1,,,,,,,,,0,,,68,49
43080,note_on,54,0,3,,,,,,,,,2,,,52,36
43080,note_on,0,0,3,,,,,,,,,2,,,59,36
43086,note_on,0,0,3,,,,,,,,,2,,,52,0
43086,note_on,6,0,3,,,,,,,,,2,,,59,0
43089,note_on,9,0,1,,,,,,,,,0,,,68,0
43140,control_change,54,0,3,,,,,,,,,2,64,0,,
43170,note_on,0,0,1,,,,,,,,,0,,,68,49
43170,control_change,81,0,1,,,,,,,,,0,64,0,,
43200,note_on,0,0,3,,,,,,,,,2,,,35,36
43200,control_change,60,0,3,,,,,,,,,2,64,127,,
43200,note_on,0,0,1,,,,,,,,,0,,,71,49
43200,note_on,30,0,1,,,,,,,,,0,,,68,0
43206,note_on,6,0,3,,,,,,,,,2,,,35,0
43260,note_on,54,0,3,,,,,,,,,2,,,47,36
43266,note_on,6,0,3,,,,,,,,,2,,,47,0
43320,note_on,0,0,3,,,,,,,,,2,,,57,36
43320,note_on,0,0,3,,,,,,,,,2,,,59,36
43320,note_on,54,0,3,,,,,,,,,2,,,47,36
43326,note_on,0,0,3,,,,,,,,,2,,,57,0
43326,note_on,6,0,3,,,,,,,,,2,,,59,0
43326,note_on,0,0,3,,,,,,,,,2,,,47,0
43380,control_change,54,0,3,,,,,,,,,2,64,0,,
43410,note_on,210,0,1,,,,,,,,,0,,,71,0
43410,note_on,0,0,1,,,,,,,,,0,,,73,49
43440,note_on,0,0,1,,,,,,,,,0,,,71,49
43440,control_change,0,0,1,,,,,,,,,0,64,127,,
43440,note_on,30,0,1,,,,,,,,,0,,,73,0
43440,note_on,0,0,3,,,,,,,,,2,,,40,36
43440,control_change,60,0,3,,,,,,,,,2,64,127,,
43446,note_on,6,0,3,,,,,,,,,2,,,40,0
43500,note_on,54,0,3,,,,,,,,,2,,,47,36
43506,note_on,6,0,3,,,,,,,,,2,,,47,0
43560,note_on,0,0,3,,,,,,,,,2,,,59,36
43560,note_on,0,0,3,,,,,,,,,2,,,56,36
43560,note_on,54,0,3,,,,,,,,,2,,,52,36
43560,note_on,120,0,1,,,,,,,,,0,,,71,0
43560,note_on,0,0,1,,,,,,,,,0,,,68,49
43566,note_on,0,0,3,,,,,,,,,2,,,52,0
43566,note_on,6,0,3,,,,,,,,,2,,,59,0
43566,note_on,0,0,3,,,,,,,,,2,,,56,0
43620,control_change,54,0,3,,,,,,,,,2,64,0,,
43650,note_on,90,0,1,,,,,,,,,0,,,68,0
43650,control_change,0,0,1,,,,,,,,,0,64,0,,
43650,note_on,0,0,1,,,,,,,,,0,,,69,49
43680,note_on,30,0,1,,,,,,,,,0,,,69,0
43680,control_change,0,0,1,,,,,,,,,0,64,127,,
43680,note_on,0,0,1,,,,,,,,,0,,,71,49
43680,note_on,960,0,2,,,,,,,,,1,,,59,36
43680,control_change,60,0,3,,,,,,,,,2,64,127,,
43680,note_on,0,0,3,,,,,,,,,2,,,35,36
43686,note_on,6,0,3,,,,,,,,,2,,,35,0
43740,note_on,54,0,3,,,,,,,,,2,,,47,36
43746,note_on,6,0,3,,,,,,,,,2,,,47,0
43800,note_on,120,0,1,,,,,,,,,0,,,71,0
43800,note_on,0,0,3,,,,,,,,,2,,,57,36
43800,note_on,0,0,1,,,,,,,,,0,,,66,49
43800,note_on,54,0,3,,,,,,,,,2,,,51,36
43806,note_on,6,0,3,,,,,,,,,2,,,57,0
43806,note_on,0,0,3,,,,,,,,,2,,,51,0
43890,note_on,90,0,1,,,,,,,,,0,,,66,0
43890,note_on,0,0,1,,,,,,,,,0,,,68,49
43920,note_on,114,0,3,,,,,,,,,2,,,35,36
43920,note_on,0,0,1,,,,,,,,,0,,,69,49
43920,note_on,30,0,1,,,,,,,,,0,,,68,0
43926,note_on,6,0,3,,,,,,,,,2,,,35,0
43980,note_on,54,0,3,,,,,,,,,2,,,47,36
43986,note_on,6,0,3,,,,,,,,,2,,,47,0
44040,note_on,0,0,1,,,,,,,,,0,,,68,49
44040,note_on,0,0,1,,,,,,,,,0,,,59,49
44040,note_on,120,0,1,,,,,,,,,0,,,69,0
44040,note_on,360,0,2,,,,,,,,,1,,,59,0
44040,note_on,54,0,3,,,,,,,,,2,,,51,36
44046,note_on,6,0,3,,,,,,,,,2,,,51,0
44049,note_on,0,0,1,,,,,,,,,0,,,59,0
44049,note_on,9,0,1,,,,,,,,,0,,,68,0
44100,control_change,54,0,3,,,,,,,,,2,64,0,,
44130,note_on,0,0,1,,,,,,,,,0,,,57,49
44130,control_change,81,0,1,,,,,,,,,0,64,0,,
44130,note_on,0,0,1,,,,,,,,,0,,,66,49
44134,note_on,0,0,1,,,,,,,,,0,,,57,0
44134,note_on,4,0,1,,,,,,,,,0,,,66,0
44160,note_on,0,0,1,,,,,,,,,0,,,56,49
44160,control_change,26,0,1,,,,,,,,,0,64,127,,
44160,note_on,0,0,3,,,,,,,,,2,,,40,36
44160,control_change,60,0,3,,,,,,,,,2,64,127,,
44160,note_on,0,0,1,,,,,,,,,0,,,64,49
44166,note_on,6,0,3,,,,,,,,,2,,,40,0
44220,note_on,54,0,3,,,,,,,,,2,,,44,36
44226,note_on,6,0,3,,,,,,,,,2,,,44,0
44280,note_on,120,0,1,,,,,,,,,0,,,64,0
44280,note_on,0,0,1,,,,,,,,,0,,,56,0
44280,note_on,0,0,1,,,,,,,,,0,,,57,49
44280,note_on,0,0,1,,,,,,,,,0,,,61,49
44280,note_on,0,0,1,,,,,,,,,0,,,66,49
44280,note_on,54,0,3,,,,,,,,,2,,,47,36
44286,note_on,6,0,3,,,,,,,,,2,,,47,0
44370,note_on,0,0,1,,,,,,,,,0,,,63,49
44370,note_on,0,0,1,,,,,,,,,0,,,59,49
44370,note_on,90,0,1,,,,,,,,,0,,,66,0
44370,note_on,0,0,1,,,,,,,,,0,,,61,0
44370,note_on,0,0,1,,,,,,,,,0,,,57,0
44374,note_on,0,0,1,,,,,,,,,0,,,59,0
44374,note_on,4,0,1,,,,,,,,,0,,,63,0
44400,note_on,0,0,1,,,,,,,,,0,,,64,49
44400,note_on,26,0,1,,,,,,,,,0,,,56,49
44400,note_on,114,0,3,,,,,,,,,2,,,40,36
44406,note_on,6,0,3,,,,,,,,,2,,,40,0
44460,note_on,54,0,3,,,,,,,,,2,,,44,36
44466,note_on,6,0,3,,,,,,,,,2,,,44,0
44520,note_on,120,0,1,,,,,,,,,0,,,64,0
44520,control_change,0,0,1,,,,,,,,,0,64,0,,
44520,note_on,54,0,3,,,,,,,,,2,,,47,36
44520,note_on,0,0,1,,,,,,,,,0,,,56,0
44526,note_on,6,0,3,,,,,,,,,2,,,47,0
44580,control_change,54,0,3,,,,,,,,,2,64,0,,
44580,note_on,0,0,3,,,,,,,,,2,,,52,36
44586,note_on,6,0,3,,,,,,,,,2,,,52,0
44640,control_change,54,0,3,,,,,,,,,2,64,127,,
44640,set_tempo,1920,1,0,,,,,,500000,,,,,,,
44640,note_on,0,0,3,,,,,,,,,2,,,40,36
44640,note_on,0,0,1,,,,,,,,,0,,,64,49
44640,note_on,0,0,1,,,,,,,,,0,,,76,49
44640,control_change,120,0,1,,,,,,,,,0,64,127,,
44646,note_on,6,0,3,,,,,,,,,2,,,40,0
44700,note_on,54,0,3,,,,,,,,,2,,,47,36
44706,note_on,6,0,3,,,,,,,,,2,,,47,0
44745,note_on,105,0,1,,,,,,,,,0,,,76,49
44760,note_on,0,0,1,,,,,,,,,0,,,68,49
44760,note_on,0,0,1,,,,,,,,,0,,,80,49
44760,note_on,0,0,1,,,,,,,,,0,,,76,0
44760,note_on,15,0,1,,,,,,,,,0,,,76,0
44760,note_on,0,0,3,,,,,,,,,2,,,59,36
44760,note_on,54,0,3,,,,,,,,,2,,,52,36
44760,note_on,0,0,1,,,,,,,,,0,,,64,0
44766,note_on,0,0,3,,,,,,,,,2,,,52,0
44766,note_on,6,0,3,,,,,,,,,2,,,59,0
44769,note_on,9,0,1,,,,,,,,,0,,,80,0
44769,note_on,0,0,1,,,,,,,,,0,,,68,0
44850,note_on,81,0,1,,,,,,,,,0,,,68,49
44850,note_on,0,0,1,,,,,,,,,0,,,80,49
44880,note_on,0,0,1,,,,,,,,,0,,,64,49
44880,note_on,0,0,1,,,,,,,,,0,,,76,49
44880,note_on,0,0,1,,,,,,,,,0,,,68,0
44880,note_on,30,0,1,,,,,,,,,0,,,80,0
44880,note_on,114,0,3,,,,,,,,,2,,,40,36
44886,note_on,6,0,3,,,,,,,,,2,,,40,0
44940,note_on,54,0,3,,,,,,,,,2,,,47,36
44946,note_on,6,0,3,,,,,,,,,2,,,47,0
44985,note_on,105,0,1,,,,,,,,,0,,,76,49
45000,note_on,0,0,1,,,,,,,,,0,,,76,0
45000,note_on,0,0,3,,,,,,,,,2,,,59,36
45000,note_on,0,0,1,,,,,,,,,0,,,80,49
45000,note_on,0,0,1,,,,,,,,,0,,,68,49
45000,note_on,0,0,1,,,,,,,,,0,,,64,0
45000,note_on,15,0,1,,,,,,,,,0,,,76,0
45000,note_on,54,0,3,,,,,,,,,2,,,52,36
45006,note_on,6,0,3,,,,,,,,,2,,,59,0
45006,note_on,0,0,3,,,,,,,,,2,,,52,0
45009,note_on,9,0,1,,,,,,,,,0,,,80,0
45009,note_on,0,0,1,,,,,,,,,0,,,68,0
45060,control_change,54,0,3,,,,,,,,,2,64,0,,
45090,control_change,81,0,1,,,,,,,,,0,64,0,,
45090,note_on,0,0,1,,,,,,,,,0,,,68,49
45090,note_on,0,0,1,,,,,,,,,0,,,80,49
45120,note_on,0,0,1,,,,,,,,,0,,,71,49
45120,note_on,30,0,1,,,,,,,,,0,,,80,0
45120,note_on,0,0,1,,,,,,,,,0,,,68,0
45120,note_on,0,0,3,,,,,,,,,2,,,35,36
45120,note_on,0,0,1,,,,,,,,,0,,,83,49
45120,control_change,60,0,3,,,,,,,,,2,64,127,,
45126,note_on,6,0,3,,,,,,,,,2,,,35,0
45180,note_on,54,0,3,,,,,,,,,2,,,47,36
45186,note_on,6,0,3,,,,,,,,,2,,,47,0
45240,note_on,54,0,3,,,,,,,,,2,,,47,36
45240,note_on,0,0,3,,,,,,,,,2,,,59,36
45240,note_on,0,0,3,,,,,,,,,2,,,57,36
45246,note_on,0,0,3,,,,,,,,,2,,,57,0
45246,note_on,6,0,3,,,,,,,,,2,,,59,0
45246,note_on,0,0,3,,,,,,,,,2,,,47,0
45300,control_change,54,0,3,,,,,,,,,2,64,0,,
45330,note_on,0,0,1,,,,,,,,,0,,,85,49
45330,note_on,0,0,1,,,,,,,,,0,,,71,0
45330,note_on,210,0,1,,,,,,,,,0,,,83,0
45330,note_on,0,0,1,,,,,,,,,0,,,73,49
45360,note_on,0,0,1,,,,,,,,,0,,,71,49
45360,note_on,0,0,1,,,,,,,,,0,,,83,49
45360,note_on,0,0,3,,,,,,,,,2,,,40,36
45360,note_on,30,0,1,,,,,,,,,0,,,85,0
45360,control_change,60,0,3,,,,,,,,,2,64,127,,
45360,control_change,0,0,1,,,,,,,,,0,64,127,,
45360,note_on,0,0,1,,,,,,,,,0,,,73,0
45366,note_on,6,0,3,,,,,,,,,2,,,40,0
45420,note_on,54,0,3,,,,,,,,,2,,,47,36
45426,note_on,6,0,3,,,,,,,,,2,,,47,0
45480,note_on,120,0,1,,,,,,,,,0,,,83,0
45480,note_on,0,0,1,,,,,,,,,0,,,80,49
45480,note_on,0,0,1,,,,,,,,,0,,,71,0
45480,note_on,0,0,3,,,,,,,,,2,,,59,36
45480,note_on,0,0,3,,,,,,,,,2,,,56,36
45480,note_on,54,0,3,,,,,,,,,2,,,52,36
45486,note_on,6,0,3,,,,,,,,,2,,,59,0
45486,note_on,0,0,3,,,,,,,,,2,,,52,0
45486,note_on,0,0,3,,,,,,,,,2,,,56,0
45540,control_change,54,0,3,,,,,,,,,2,64,0,,
45570,note_on,0,0,1,,,,,,,,,0,,,81,49
45570,control_change,0,0,1,,,,,,,,,0,64,0,,
45570,note_on,90,0,1,,,,,,,,,0,,,80,0
45600,note_on,1560,0,2,,,,,,,,,1,,,71,36
45600,note_on,0,0,1,,,,,,,,,0,,,83,49
45600,note_on,0,0,3,,,,,,,,,2,,,47,36
45600,control_change,60,0,3,,,,,,,,,2,64,127,,
45600,control_change,0,0,1,,,,,,,,,0,64,127,,
45600,note_on,30,0,1,,,,,,,,,0,,,81,0
45606,note_on,6,0,3,,,,,,,,,2,,,47,0
45660,note_on,54,0,3,,,,,,,,,2,,,59,36
45666,note_on,6,0,3,,,,,,,,,2,,,59,0
45720,note_on,54,0,3,,,,,,,,,2,,,63,36
45720,note_on,120,0,1,,,,,,,,,0,,,83,0
45720,note_on,0,0,3,,,,,,,,,2,,,69,36
45720,note_on,0,0,1,,,,,,,,,0,,,78,49
45726,note_on,0,0,3,,,,,,,,,2,,,63,0
45726,note_on,6,0,3,,,,,,,,,2,,,69,0
45810,note_on,0,0,1,,,,,,,,,0,,,80,49
45810,note_on,90,0,1,,,,,,,,,0,,,78,0
45840,note_on,30,0,1,,,,,,,,,0,,,80,0
45840,note_on,114,0,3,,,,,,,,,2,,,47,36
45840,note_on,240,0,2,,,,,,,,,1,,,71,0
45840,note_on,0,0,1,,,,,,,,,0,,,81,49
45846,note_on,6,0,3,,,,,,,,,2,,,47,0
45900,note_on,54,0,3,,,,,,,,,2,,,59,36
45906,note_on,6,0,3,,,,,,,,,2,,,59,0
45960,note_on,120,0,1,,,,,,,,,0,,,81,0
45960,note_on,54,0,3,,,,,,,,,2,,,63,36
45960,note_on,0,0,1,,,,,,,,,0,,,80,49
45960,note_on,0,0,1,,,,,,,,,0,,,71,49
45966,note_on,6,0,3,,,,,,,,,2,,,63,0
45969,note_on,0,0,1,,,,,,,,,0,,,71,0
45969,note_on,9,0,1,,,,,,,,,0,,,80,0
46020,control_change,54,0,3,,,,,,,,,2,64,0,,
46050,note_on,0,0,1,,,,,,,,,0,,,69,49
46050,note_on,0,0,1,,,,,,,,,0,,,78,49
46050,control_change,81,0,1,,,,,,,,,0,64,0,,
46054,note_on,4,0,1,,,,,,,,,0,,,78,0
46054,note_on,0,0,1,,,,,,,,,0,,,69,0
46080,control_change,26,0,1,,,,,,,,,0,64,127,,
46080,note_on,0,0,1,,,,,,,,,0,,,68,49
46080,note_on,0,0,1,,,,,,,,,0,,,76,49
46080,control_change,60,0,3,,,,,,,,,2,64,127,,
46080,note_on,0,0,3,,,,,,,,,2,,,52,36
46086,note_on,6,0,3,,,,,,,,,2,,,52,0
46140,note_on,54,0,3,,,,,,,,,2,,,56,36
46146,note_on,6,0,3,,,,,,,,,2,,,56,0
46200,note_on,0,0,1,,,,,,,,,0,,,68,0
46200,note_on,54,0,3,,,,,,,,,2,,,59,36
46200,note_on,0,0,1,,,,,,,,,0,,,69,49
46200,note_on,0,0,1,,,,,,,,,0,,,78,49
46200,note_on,120,0,1,,,,,,,,,0,,,76,0
46206,note_on,6,0,3,,,,,,,,,2,,,59,0
46290,note_on,90,0,1,,,,,,,,,0,,,78,0
46290,note_on,0,0,1,,,,,,,,,0,,,69,0
46290,note_on,0,0,1,,,,,,,,,0,,,71,49
46290,note_on,0,0,1,,,,,,,,,0,,,75,49
46294,note_on,4,0,1,,,,,,,,,0,,,75,0
46294,note_on,0,0,1,,,,,,,,,0,,,71,0
46320,note_on,0,0,1,,,,,,,,,0,,,76,49
46320,note_on,0,0,1,,,,,,,,,0,,,68,49
46320,control_change,26,0,1,,,,,,,,,0,64,0,,
46320,note_on,114,0,3,,,,,,,,,2,,,52,36
46326,note_on,6,0,3,,,,,,,,,2,,,52,0
46380,note_on,54,0,3,,,,,,,,,2,,,59,36
46386,note_on,6,0,3,,,,,,,,,2,,,59,0
46440,note_on,120,0,1,,,,,,,,,0,,,76,0
46440,note_on,0,0,1,,,,,,,,,0,,,68,0
46440,note_on,54,0,3,,,,,,,,,2,,,64,36
46446,note_on,6,0,3,,,,,,,,,2,,,64,0
46500,control_change,54,0,3,,,,,,,,,2,64,0,,
46500,note_on,0,0,3,,,,,,,,,2,,,68,36
46506,note_on,6,0,3,,,,,,,,,2,,,68,0
46560,note_on,0,0,1,,,,,,,,,0,,,73,36
46560,control_change,54,0,3,,,,,,,,,2,64,127,,
46560,note_on,0,0,3,,,,,,,,,2,,,44,36
46560,note_on,120,0,1,,,,,,,,,0,,,64,36
46566,note_on,6,0,3,,,,,,,,,2,,,44,0
46620,note_on,54,0,3,,,,,,,,,2,,,57,36
46626,note_on,6,0,3,,,,,,,,,2,,,57,0
46680,note_on,0,0,1,,,,,,,,,0,,,75,36
46680,note_on,0,0,1,,,,,,,,,0,,,66,36
46680,note_on,0,0,1,,,,,,,,,0,,,64,0
46680,note_on,120,0,1,,,,,,,,,0,,,73,0
46680,note_on,0,0,3,,,,,,,,,2,,,56,36
46680,control_change,54,0,3,,,,,,,,,2,64,0,,
46686,note_on,6,0,3,,,,,,,,,2,,,56,0
46770,note_on,90,0,1,,,,,,,,,0,,,75,0
46770,note_on,0,0,1,,,,,,,,,0,,,66,0
46770,note_on,0,0,1,,,,,,,,,0,,,68,36
46770,note_on,0,0,1,,,,,,,,,0,,,72,36
46774,note_on,4,0,1,,,,,,,,,0,,,72,0
46774,note_on,0,0,1,,,,,,,,,0,,,68,0
46800,note_on,26,0,1,,,,,,,,,0,,,64,36
46800,note_on,0,0,1,,,,,,,,,0,,,73,36
46800,note_on,0,0,3,,,,,,,,,2,,,37,36
46800,control_change,114,0,3,,,,,,,,,2,64,127,,
46806,note_on,6,0,3,,,,,,,,,2,,,37,0
46860,note_on,54,0,3,,,,,,,,,2,,,61,36
46920,note_on,60,0,3,,,,,,,,,2,,,61,0
46920,note_on,0,0,3,,,,,,,,,2,,,56,36
46920,note_on,120,0,1,,,,,,,,,0,,,73,0
46920,note_on,0,0,1,,,,,,,,,0,,,64,0
46920,note_on,0,0,1,,,,,,,,,0,,,76,36
46980,note_on,60,0,3,,,,,,,,,2,,,56,0
46980,control_change,0,0,3,,,,,,,,,2,64,0,,
46980,note_on,0,0,3,,,,,,,,,2,,,55,36
46980,note_on,60,0,1,,,,,,,,,0,,,76,0
47040,note_on,60,0,1,,,,,,,,,0,,,63,36
47040,note_on,60,0,3,,,,,,,,,2,,,55,0
47040,control_change,0,0,3,,,,,,,,,2,64,127,,
47040,note_on,0,0,3,,,,,,,,,2,,,42,36
47040,note_on,0,0,1,,,,,,,,,0,,,71,36
47046,note_on,6,0,3,,,,,,,,,2,,,42,0
47100,note_on,54,0,3,,,,,,,,,2,,,56,36
47106,note_on,6,0,3,,,,,,,,,2,,,56,0
47160,note_on,120,0,1,,,,,,,,,0,,,71,0
47160,control_change,54,0,3,,,,,,,,,2,64,0,,
47160,note_on,0,0,3,,,,,,,,,2,,,54,36
47160,note_on,0,0,1,,,,,,,,,0,,,73,36
47160,note_on,0,0,1,,,,,,,,,0,,,64,36
47160,note_on,0,0,1,,,,,,,,,0,,,63,0
47166,note_on,6,0,3,,,,,,,,,2,,,54,0
47250,note_on,0,0,1,,,,,,,,,0,,,70,36
47250,note_on,0,0,1,,,,,,,,,0,,,66,36
47250,note_on,90,0,1,,,,,,,,,0,,,73,0
47250,note_on,0,0,1,,,,,,,,,0,,,64,0
47254,note_on,0,0,1,,,,,,,,,0,,,66,0
47254,note_on,4,0,1,,,,,,,,,0,,,70,0
47280,control_change,114,0,3,,,,,,,,,2,64,127,,
47280,note_on,0,0,1,,,,,,,,,0,,,71,36
47280,note_on,26,0,1,,,,,,,,,0,,,63,36
47280,note_on,0,0,3,,,,,,,,,2,,,35,36
47286,note_on,6,0,3,,,,,,,,,2,,,35,0
47340,note_on,54,0,3,,,,,,,,,2,,,59,36
47346,note_on,6,0,3,,,,,,,,,2,,,59,0
47400,note_on,54,0,3,,,,,,,,,2,,,54,36
47400,note_on,0,0,1,,,,,,,,,0,,,75,36
47400,note_on,0,0,1,,,,,,,,,0,,,63,0
47400,note_on,120,0,1,,,,,,,,,0,,,71,0
47406,note_on,6,0,3,,,,,,,,,2,,,54,0
47460,control_change,54,0,3,,,,,,,,,2,64,0,,
47460,note_on,60,0,1,,,,,,,,,0,,,75,0
47520,control_change,60,0,1,,,,,,,,,0,64,127,,
47520,note_on,0,0,1,,,,,,,,,0,,,70,36
47520,note_on,0,0,1,,,,,,,,,0,,,66,36
47520,control_change,60,0,3,,,,,,,,,2,64,127,,
47520,note_on,0,0,3,,,,,,,,,2,,,37,36
47526,note_on,6,0,3,,,,,,,,,2,,,37,0
47580,note_on,54,0,3,,,,,,,,,2,,,49,36
47586,note_on,6,0,3,,,,,,,,,2,,,49,0
47640,note_on,54,0,3,,,,,,,,,2,,,58,36
47640,note_on,120,0,1,,,,,,,,,0,,,70,0
47640,note_on,0,0,1,,,,,,,,,0,,,73,36
47640,note_on,0,0,1,,,,,,,,,0,,,61,36
47640,note_on,0,0,1,,,,,,,,,0,,,66,0
47646,note_on,6,0,3,,,,,,,,,2,,,58,0
47700,control_change,54,0,3,,,,,,,,,2,64,0,,
47730,control_change,0,0,1,,,,,,,,,0,64,0,,
47730,note_on,90,0,1,,,,,,,,,0,,,73,0
47730,note_on,0,0,1,,,,,,,,,0,,,61,0
47730,note_on,0,0,1,,,,,,,,,0,,,66,36
47730,note_on,0,0,1,,,,,,,,,0,,,70,36
47734,note_on,4,0,1,,,,,,,,,0,,,70,0
47734,note_on,0,0,1,,,,,,,,,0,,,66,0
47760,note_on,0,0,3,,,,,,,,,2,,,37,36
47760,note_on,26,0,1,,,,,,,,,0,,,65,36
47760,note_on,0,0,1,,,,,,,,,0,,,68,36
47760,control_change,60,0,3,,,,,,,,,2,64,127,,
47766,note_on,6,0,3,,,,,,,,,2,,,37,0
47820,note_on,54,0,3,,,,,,,,,2,,,49,36
47826,note_on,6,0,3,,,,,,,,,2,,,49,0
47880,note_on,54,0,3,,,,,,,,,2,,,56,36
47880,note_on,0,0,1,,,,,,,,,0,,,63,36
47880,note_on,120,0,1,,,,,,,,,0,,,68,0
47880,note_on,0,0,1,,,,,,,,,0,,,65,0
47880,note_on,0,0,1,,,,,,,,,0,,,71,36
47886,note_on,6,0,3,,,,,,,,,2,,,56,0
47940,control_change,54,0,3,,,,,,,,,2,64,0,,
47970,note_on,0,0,1,,,,,,,,,0,,,63,0
47970,note_on,90,0,1,,,,,,,,,0,,,71,0
47970,note_on,0,0,1,,,,,,,,,0,,,68,36
47970,note_on,0,0,1,,,,,,,,,0,,,65,36
47970,note_on,0,0,1,,,,,,,,,0,,,59,36
47974,note_on,0,0,1,,,,,,,,,0,,,59,0
47974,note_on,0,0,1,,,,,,,,,0,,,65,0
47974,note_on,4,0,1,,,,,,,,,0,,,68,0
48000,note_on,0,0,1,,,,,,,,,0,,,66,36
48000,note_on,0,0,3,,,,,,,,,2,,,42,36
48000,control_change,60,0,3,,,,,,,,,2,64,127,,
48000,key_signature,3360,1,0,,,,,B,,,,,,,,
48000,note_on,26,0,1,,,,,,,,,0,,,58,36
48006,note_on,6,0,3,,,,,,,,,2,,,42,0
48060,note_on,54,0,3,,,,,,,,,2,,,46,36
48066,note_on,6,0,3,,,,,,,,,2,,,46,0
48120,control_change,54,0,3,,,,,,,,,2,64,0,,
48120,note_on,0,0,1,,,,,,,,,0,,,68,36
48120,note_on,0,0,1,,,,,,,,,0,,,58,0
48120,note_on,120,0,1,,,,,,,,,0,,,66,0
48120,note_on,0,0,1,,,,,,,,,0,,,59,36
48120,note_on,0,0,3,,,,,,,,,2,,,49,36
48126,note_on,6,0,3,,,,,,,,,2,,,49,0
48210,note_on,0,0,1,,,,,,,,,0,,,59,0
48210,note_on,90,0,1,,,,,,,,,0,,,68,0
48210,note_on,0,0,1,,,,,,,,,0,,,65,36
48210,note_on,0,0,1,,,,,,,,,0,,,61,36
48214,note_on,4,0,1,,,,,,,,,0,,,65,0
48214,note_on,0,0,1,,,,,,,,,0,,,61,0
48240,note_on,26,0,1,,,,,,,,,0,,,58,36
48240,note_on,0,0,1,,,,,,,,,0,,,66,36
48240,note_on,114,0,3,,,,,,,,,2,,,42,36
48246,note_on,6,0,3,,,,,,,,,2,,,42,0
48300,note_on,54,0,3,,,,,,,,,2,,,49,62
48306,note_on,6,0,3,,,,,,,,,2,,,49,0
48360,note_on,120,0,1,,,,,,,,,0,,,66,0
48360,note_on,0,0,1,,,,,,,,,0,,,58,0
48360,note_on,54,0,3,,,,,,,,,2,,,46,62
48366,note_on,6,0,3,,,,,,,,,2,,,46,0
48420,note_on,54,0,3,,,,,,,,,2,,,42,62
48426,note_on,6,0,3,,,,,,,,,2,,,42,0
48480,control_change,54,0,3,,,,,,,,,2,64,127,,
48480,note_on,0,0,3,,,,,,,,,2,,,47,101
48480,control_change,120,0,1,,,,,,,,,0,64,127,,
48480,note_on,0,0,1,,,,,,,,,0,,,75,62
48510,note_on,30,0,1,,,,,,,,,0,,,75,0
48510,note_on,0,0,1,,,,,,,,,0,,,65,62
48540,note_on,30,0,1,,,,,,,,,0,,,65,0
48540,note_on,0,0,1,,,,,,,,,0,,,73,62
48570,note_on,30,0,1,,,,,,,,,0,,,73,0
48570,note_on,0,0,1,,,,,,,,,0,,,65,62
48600,note_on,0,0,3,,,,,,,,,2,,,49,75
48600,note_on,120,0,3,,,,,,,,,2,,,47,0
48600,note_on,0,0,1,,,,,,,,,0,,,68,62
48600,note_on,30,0,1,,,,,,,,,0,,,65,0
48630,note_on,0,0,1,,,,,,,,,0,,,65,62
48630,note_on,30,0,1,,,,,,,,,0,,,68,0
48660,note_on,0,0,1,,,,,,,,,0,,,73,62
48660,note_on,30,0,1,,,,,,,,,0,,,65,0
48690,control_change,0,0,3,,,,,,,,,2,64,0,,
48690,note_on,0,0,3,,,,,,,,,2,,,47,75
48690,note_on,90,0,3,,,,,,,,,2,,,49,0
48690,note_on,30,0,1,,,,,,,,,0,,,73,0
48690,control_change,0,0,1,,,,,,,,,0,64,0,,
48690,note_on,0,0,1,,,,,,,,,0,,,65,62
48720,note_on,30,0,1,,,,,,,,,0,,,65,0
48720,note_on,30,0,3,,,,,,,,,2,,,47,0
48720,control_change,0,0,1,,,,,,,,,0,64,127,,
48720,note_on,0,0,1,,,,,,,,,0,,,75,62
48720,note_on,0,0,3,,,,,,,,,2,,,46,101
48720,control_change,0,0,3,,,,,,,,,2,64,127,,
48750,note_on,30,0,1,,,,,,,,,0,,,75,0
48750,note_on,0,0,1,,,,,,,,,0,,,66,62
48780,note_on,30,0,1,,,,,,,,,0,,,66,0
48780,note_on,0,0,1,,,,,,,,,0,,,73,62
48810,note_on,30,0,1,,,,,,,,,0,,,73,0
48810,note_on,0,0,1,,,,,,,,,0,,,66,62
48840,note_on,30,0,1,,,,,,,,,0,,,66,0
48840,note_on,0,0,1,,,,,,,,,0,,,70,62
48840,note_on,120,0,3,,,,,,,,,2,,,46,0
48840,note_on,0,0,3,,,,,,,,,2,,,54,75
48870,note_on,30,0,1,,,,,,,,,0,,,70,0
48870,note_on,0,0,1,,,,,,,,,0,,,66,62
48900,note_on,30,0,1,,,,,,,,,0,,,66,0
48900,note_on,0,0,1,,,,,,,,,0,,,73,62
48930,note_on,0,0,3,,,,,,,,,2,,,46,75
48930,note_on,30,0,1,,,,,,,,,0,,,73,0
48930,control_change,0,0,3,,,,,,,,,2,64,0,,
48930,note_on,0,0,1,,,,,,,,,0,,,66,62
48930,note_on,90,0,3,,,,,,,,,2,,,54,0
48930,control_change,0,0,1,,,,,,,,,0,64,0,,
48934,note_on,4,0,3,,,,,,,,,2,,,46,0
48960,note_on,30,0,1,,,,,,,,,0,,,66,0
48960,note_on,0,0,3,,,,,,,,,2,,,44,75
48960,control_change,26,0,3,,,,,,,,,2,64,127,,
48960,note_on,0,0,1,,,,,,,,,0,,,71,62
48960,control_change,0,0,1,,,,,,,,,0,64,127,,
48966,note_on,6,0,3,,,,,,,,,2,,,44,0
48990,note_on,30,0,1,,,,,,,,,0,,,71,0
48990,note_on,0,0,1,,,,,,,,,0,,,61,62
49020,note_on,54,0,3,,,,,,,,,2,,,47,75
49020,note_on,0,0,1,,,,,,,,,0,,,68,62
49020,note_on,30,0,1,,,,,,,,,0,,,61,0
49026,note_on,6,0,3,,,,,,,,,2,,,47,0
49050,note_on,0,0,1,,,,,,,,,0,,,61,62
49050,note_on,30,0,1,,,,,,,,,0,,,68,0
49080,note_on,30,0,1,,,,,,,,,0,,,61,0
49080,note_on,0,0,1,,,,,,,,,0,,,66,62
49080,note_on,54,0,3,,,,,,,,,2,,,39,75
49080,note_on,3240,0,2,,,,,,,,,1,,,73,88
49086,note_on,6,0,3,,,,,,,,,2,,,39,0
49110,note_on,30,0,1,,,,,,,,,0,,,66,0
49110,note_on,0,0,1,,,,,,,,,0,,,61,62
49140,control_change,54,0,3,,,,,,,,,2,64,0,,
49140,note_on,30,0,1,,,,,,,,,0,,,61,0
49140,note_on,0,0,1,,,,,,,,,0,,,68,62
49140,note_on,0,0,3,,,,,,,,,2,,,41,75
49146,note_on,6,0,3,,,,,,,,,2,,,41,0
49170,note_on,30,0,1,,,,,,,,,0,,,68,0
49170,control_change,0,0,1,,,,,,,,,0,64,0,,
49170,note_on,0,0,1,,,,,,,,,0,,,61,62
49200,control_change,54,0,3,,,,,,,,,2,64,127,,
49200,note_on,30,0,1,,,,,,,,,0,,,61,0
49200,control_change,0,0,1,,,,,,,,,0,64,127,,
49200,note_on,0,0,1,,,,,,,,,0,,,70,62
49200,note_on,0,0,3,,,,,,,,,2,,,42,75
49209,note_on,9,0,3,,,,,,,,,2,,,42,0
49230,note_on,30,0,1,,,,,,,,,0,,,70,0
49230,note_on,0,0,1,,,,,,,,,0,,,61,62
49230,note_on,150,0,2,,,,,,,,,1,,,73,0
49260,note_on,30,0,1,,,,,,,,,0,,,61,0
49260,note_on,0,0,1,,,,,,,,,0,,,66,62
49290,note_on,30,0,1,,,,,,,,,0,,,66,0
49290,note_on,0,0,1,,,,,,,,,0,,,70,62
49290,note_on,81,0,3,,,,,,,,,2,,,44,75
49294,note_on,4,0,3,,,,,,,,,2,,,44,0
49320,note_on,30,0,1,,,,,,,,,0,,,70,0
49320,note_on,0,0,1,,,,,,,,,0,,,72,62
49320,note_on,26,0,3,,,,,,,,,2,,,46,75
49326,note_on,6,0,3,,,,,,,,,2,,,46,0
49350,note_on,0,0,1,,,,,,,,,0,,,73,62
49350,note_on,30,0,1,,,,,,,,,0,,,72,0
49380,note_on,30,0,1,,,,,,,,,0,,,73,0
49380,note_on,0,0,1,,,,,,,,,0,,,70,62
49380,control_change,54,0,3,,,,,,,,,2,64,0,,
49410,control_change,0,0,1,,,,,,,,,0,64,0,,
49410,note_on,30,0,1,,,,,,,,,0,,,70,0
49410,note_on,0,0,1,,,,,,,,,0,,,66,62
49440,note_on,30,0,1,,,,,,,,,0,,,66,0
49440,control_change,0,0,1,,,,,,,,,0,64,127,,
49440,note_on,0,0,1,,,,,,,,,0,,,75,62
49440,control_change,60,0,3,,,,,,,,,2,64,127,,
49440,note_on,0,0,3,,,,,,,,,2,,,47,101
49470,note_on,30,0,1,,,,,,,,,0,,,75,0
49470,note_on,0,0,1,,,,,,,,,0,,,65,62
49500,note_on,0,0,1,,,,,,,,,0,,,73,62
49500,note_on,30,0,1,,,,,,,,,0,,,65,0
49530,note_on,0,0,1,,,,,,,,,0,,,65,62
49530,note_on,30,0,1,,,,,,,,,0,,,73,0
49560,note_on,0,0,3,,,,,,,,,2,,,49,75
49560,note_on,0,0,1,,,,,,,,,0,,,68,62
49560,note_on,30,0,1,,,,,,,,,0,,,65,0
49560,note_on,120,0,3,,,,,,,,,2,,,47,0
49590,note_on,30,0,1,,,,,,,,,0,,,68,0
49590,note_on,0,0,1,,,,,,,,,0,,,65,62
49620,note_on,30,0,1,,,,,,,,,0,,,65,0
49620,note_on,0,0,1,,,,,,,,,0,,,73,62
49650,note_on,30,0,1,,,,,,,,,0,,,73,0
49650,control_change,0,0,1,,,,,,,,,0,64,0,,
49650,note_on,0,0,1,,,,,,,,,0,,,65,62
49650,control_change,0,0,3,,,,,,,,,2,64,0,,
49650,note_on,0,0,3,,,,,,,,,2,,,47,75
49650,note_on,90,0,3,,,,,,,,,2,,,49,0
49680,note_on,0,0,3,,,,,,,,,2,,,46,101
49680,note_on,0,0,1,,,,,,,,,0,,,75,62
49680,control_change,0,0,1,,,,,,,,,0,64,127,,
49680,note_on,30,0,1,,,,,,,,,0,,,65,0
49680,control_change,0,0,3,,,,,,,,,2,64,127,,
49680,note_on,30,0,3,,,,,,,,,2,,,47,0
49710,note_on,0,0,1,,,,,,,,,0,,,66,62
49710,note_on,30,0,1,,,,,,,,,0,,,75,0
49740,note_on,0,0,1,,,,,,,,,0,,,73,62
49740,note_on,30,0,1,,,,,,,,,0,,,66,0
49770,note_on,0,0,1,,,,,,,,,0,,,66,62
49770,note_on,30,0,1,,,,,,,,,0,,,73,0
49800,note_on,0,0,1,,,,,,,,,0,,,70,62
49800,note_on,30,0,1,,,,,,,,,0,,,66,0
49800,note_on,120,0,3,,,,,,,,,2,,,46,0
49800,note_on,0,0,3,,,,,,,,,2,,,54,75
49830,note_on,0,0,1,,,,,,,,,0,,,66,62
49830,note_on,30,0,1,,,,,,,,,0,,,70,0
49860,note_on,0,0,1,,,,,,,,,0,,,73,62
49860,note_on,30,0,1,,,,,,,,,0,,,66,0
49890,note_on,0,0,1,,,,,,,,,0,,,66,62
49890,note_on,30,0,1,,,,,,,,,0,,,73,0
49890,note_on,90,0,3,,,,,,,,,2,,,54,0
49890,control_change,0,0,3,,,,,,,,,2,64,0,,
49890,note_on,0,0,3,,,,,,,,,2,,,46,75
49890,control_change,0,0,1,,,,,,,,,0,64,0,,
49894,note_on,4,0,3,,,,,,,,,2,,,46,0
49920,note_on,30,0,1,,,,,,,,,0,,,66,0
49920,control_change,26,0,3,,,,,,,,,2,64,127,,
49920,note_on,0,0,1,,,,,,,,,0,,,71,62
49920,control_change,0,0,1,,,,,,,,,0,64,127,,
49920,note_on,0,0,3,,,,,,,,,2,,,44,75
49926,note_on,6,0,3,,,,,,,,,2,,,44,0
49950,note_on,30,0,1,,,,,,,,,0,,,71,0
49950,note_on,0,0,1,,,,,,,,,0,,,61,62
49980,note_on,54,0,3,,,,,,,,,2,,,47,75
49980,note_on,30,0,1,,,,,,,,,0,,,61,0
49980,note_on,0,0,1,,,,,,,,,0,,,68,62
49986,note_on,6,0,3,,,,,,,,,2,,,47,0
50010,note_on,30,0,1,,,,,,,,,0,,,68,0
50010,note_on,0,0,1,,,,,,,,,0,,,61,62
50040,note_on,30,0,1,,,,,,,,,0,,,61,0
50040,note_on,0,0,1,,,,,,,,,0,,,66,62
50040,note_on,810,0,2,,,,,,,,,1,,,73,88
50040,note_on,54,0,3,,,,,,,,,2,,,39,75
50046,note_on,6,0,3,,,,,,,,,2,,,39,0
50070,note_on,0,0,1,,,,,,,,,0,,,61,62
50070,note_on,30,0,1,,,,,,,,,0,,,66,0
50100,control_change,54,0,3,,,,,,,,,2,64,0,,
50100,note_on,0,0,3,,,,,,,,,2,,,41,75
50100,note_on,0,0,1,,,,,,,,,0,,,68,62
50100,note_on,30,0,1,,,,,,,,,0,,,61,0
50106,note_on,6,0,3,,,,,,,,,2,,,41,0
50130,control_change,0,0,1,,,,,,,,,0,64,0,,
50130,note_on,30,0,1,,,,,,,,,0,,,68,0
50130,note_on,0,0,1,,,,,,,,,0,,,61,62
50160,note_on,0,0,3,,,,,,,,,2,,,42,75
50160,control_change,54,0,3,,,,,,,,,2,64,127,,
50160,note_on,30,0,1,,,,,,,,,0,,,61,0
50160,control_change,0,0,1,,,,,,,,,0,64,127,,
50160,note_on,0,0,1,,,,,,,,,0,,,70,62
50169,note_on,9,0,3,,,,,,,,,2,,,42,0
50190,note_on,150,0,2,,,,,,,,,1,,,73,0
50190,note_on,30,0,1,,,,,,,,,0,,,70,0
50190,note_on,0,0,1,,,,,,,,,0,,,61,62
50220,note_on,0,0,1,,,,,,,,,0,,,66,62
50220,note_on,30,0,1,,,,,,,,,0,,,61,0
50250,note_on,30,0,1,,,,,,,,,0,,,66,0
50250,note_on,0,0,1,,,,,,,,,0,,,70,62
50250,note_on,81,0,3,,,,,,,,,2,,,44,75
50254,note_on,4,0,3,,,,,,,,,2,,,44,0
50280,note_on,30,0,1,,,,,,,,,0,,,70,0
50280,note_on,0,0,1,,,,,,,,,0,,,72,62
50280,note_on,26,0,3,,,,,,,,,2,,,46,75
50286,note_on,6,0,3,,,,,,,,,2,,,46,0
50310,note_on,30,0,1,,,,,,,,,0,,,72,0
50310,note_on,0,0,1,,,,,,,,,0,,,73,62
50340,note_on,0,0,1,,,,,,,,,0,,,70,62
50340,note_on,30,0,1,,,,,,,,,0,,,73,0
50340,control_change,54,0,3,,,,,,,,,2,64,0,,
50370,control_change,0,0,1,,,,,,,,,0,64,0,,
50370,note_on,0,0,1,,,,,,,,,0,,,66,62
50370,note_on,30,0,1,,,,,,,,,0,,,70,0
50400,note_on,0,0,1,,,,,,,,,0,,,68,62
50400,control_change,0,0,1,,,,,,,,,0,64,127,,
50400,note_on,30,0,1,,,,,,,,,0,,,66,0
50400,control_change,60,0,3,,,,,,,,,2,64,127,,
50400,note_on,0,0,3,,,,,,,,,2,,,53,75
50406,note_on,6,0,3,,,,,,,,,2,,,53,0
50430,note_on,0,0,1,,,,,,,,,0,,,58,62
50430,note_on,30,0,1,,,,,,,,,0,,,68,0
50460,note_on,30,0,1,,,,,,,,,0,,,58,0
50460,note_on,54,0,3,,,,,,,,,2,,,56,75
50460,note_on,0,0,1,,,,,,,,,0,,,65,62
50466,note_on,6,0,3,,,,,,,,,2,,,56,0
50490,note_on,30,0,1,,,,,,,,,0,,,65,0
50490,note_on,0,0,1,,,,,,,,,0,,,58,62
50520,note_on,54,0,3,,,,,,,,,2,,,48,75
50520,note_on,330,0,2,,,,,,,,,1,,,70,88
50520,note_on,30,0,1,,,,,,,,,0,,,58,0
50520,note_on,0,0,1,,,,,,,,,0,,,63,62
50526,note_on,6,0,3,,,,,,,,,2,,,48,0
50550,note_on,0,0,1,,,,,,,,,0,,,58,62
50550,note_on,30,0,1,,,,,,,,,0,,,63,0
50580,note_on,0,0,3,,,,,,,,,2,,,50,75
50580,control_change,54,0,3,,,,,,,,,2,64,0,,
50580,note_on,0,0,1,,,,,,,,,0,,,65,62
50580,note_on,30,0,1,,,,,,,,,0,,,58,0
50586,note_on,6,0,3,,,,,,,,,2,,,50,0
50610,control_change,0,0,1,,,,,,,,,0,64,0,,
50610,note_on,30,0,1,,,,,,,,,0,,,65,0
50610,note_on,0,0,1,,,,,,,,,0,,,58,62
50640,note_on,0,0,1,,,,,,,,,0,,,66,62
50640,note_on,0,0,3,,,,,,,,,2,,,51,75
50640,control_change,54,0,3,,,,,,,,,2,64,127,,
50640,note_on,30,0,1,,,,,,,,,0,,,58,0
50640,control_change,0,0,1,,,,,,,,,0,64,127,,
50649,note_on,9,0,3,,,,,,,,,2,,,51,0
50670,note_on,30,0,1,,,,,,,,,0,,,66,0
50670,note_on,150,0,2,,,,,,,,,1,,,70,0
50670,note_on,0,0,1,,,,,,,,,0,,,58,62
50700,note_on,30,0,1,,,,,,,,,0,,,58,0
50700,note_on,0,0,1,,,,,,,,,0,,,63,62
50730,note_on,81,0,3,,,,,,,,,2,,,53,75
50730,note_on,30,0,1,,,,,,,,,0,,,63,0
50730,note_on,0,0,1,,,,,,,,,0,,,66,62
50734,note_on,4,0,3,,,,,,,,,2,,,53,0
50760,note_on,26,0,3,,,,,,,,,2,,,54,75
50760,note_on,0,0,1,,,,,,,,,0,,,69,62
50760,note_on,30,0,1,,,,,,,,,0,,,66,0
50766,note_on,6,0,3,,,,,,,,,2,,,54,0
50790,note_on,30,0,1,,,,,,,,,0,,,69,0
50790,note_on,0,0,1,,,,,,,,,0,,,70,62
50820,note_on,30,0,1,,,,,,,,,0,,,70,0
50820,note_on,0,0,1,,,,,,,,,0,,,66,62
50820,control_change,54,0,3,,,,,,,,,2,64,0,,
50850,note_on,30,0,1,,,,,,,,,0,,,66,0
50850,note_on,0,0,1,,,,,,,,,0,,,63,62
50850,control_change,0,0,1,,,,,,,,,0,64,0,,
50880,control_change,0,0,1,,,,,,,,,0,64,127,,
50880,control_change,60,0,3,,,,,,,,,2,64,127,,
50880,note_on,0,0,3,,,,,,,,,2,,,49,75
50880,note_on,30,0,1,,,,,,,,,0,,,63,0
50880,note_on,0,0,1,,,,,,,,,0,,,64,62
50886,note_on,6,0,3,,,,,,,,,2,,,49,0
50910,note_on,30,0,1,,,,,,,,,0,,,64,0
50910,note_on,0,0,1,,,,,,,,,0,,,54,62
50940,control_change,54,0,3,,,,,,,,,2,64,0,,
50940,note_on,0,0,3,,,,,,,,,2,,,52,75
50940,note_on,0,0,1,,,,,,,,,0,,,61,62
50940,note_on,30,0,1,,,,,,,,,0,,,54,0
50940,control_change,0,0,1,,,,,,,,,0,64,0,,
50946,note_on,6,0,3,,,,,,,,,2,,,52,0
50970,note_on,0,0,1,,,,,,,,,0,,,54,62
50970,note_on,30,0,1,,,,,,,,,0,,,61,0
51000,note_on,330,0,2,,,,,,,,,1,,,66,88
51000,note_on,54,0,3,,,,,,,,,2,,,44,75
51000,note_on,30,0,1,,,,,,,,,0,,,54,0
51000,note_on,0,0,1,,,,,,,,,0,,,59,62
51006,note_on,6,0,3,,,,,,,,,2,,,44,0
51030,note_on,0,0,1,,,,,,,,,0,,,54,62
51030,note_on,30,0,1,,,,,,,,,0,,,59,0
51060,note_on,30,0,1,,,,,,,,,0,,,54,0
51060,note_on,0,0,1,,,,,,,,,0,,,61,62
51060,note_on,54,0,3,,,,,,,,,2,,,46,75
51066,note_on,6,0,3,,,,,,,,,2,,,46,0
51090,note_on,30,0,1,,,,,,,,,0,,,61,0
51090,note_on,0,0,1,,,,,,,,,0,,,54,62
51120,note_on,30,0,1,,,,,,,,,0,,,54,0
51120,control_change,0,0,1,,,,,,,,,0,64,127,,
51120,note_on,0,0,1,,,,,,,,,0,,,63,62
51120,note_on,0,0,3,,,,,,,,,2,,,47,75
51120,control_change,54,0,3,,,,,,,,,2,64,127,,
51129,note_on,9,0,3,,,,,,,,,2,,,47,0
51150,note_on,30,0,1,,,,,,,,,0,,,63,0
51150,note_on,0,0,1,,,,,,,,,0,,,54,62
51150,note_on,150,0,2,,,,,,,,,1,,,66,0
51180,note_on,30,0,1,,,,,,,,,0,,,54,0
51180,note_on,0,0,1,,,,,,,,,0,,,59,62
51210,note_on,81,0,3,,,,,,,,,2,,,49,75
51210,note_on,0,0,1,,,,,,,,,0,,,63,62
51210,note_on,30,0,1,,,,,,,,,0,,,59,0
51214,note_on,4,0,3,,,,,,,,,2,,,49,0
51240,note_on,30,0,1,,,,,,,,,0,,,63,0
51240,note_on,26,0,3,,,,,,,,,2,,,51,75
51240,note_on,0,0,1,,,,,,,,,0,,,65,62
51246,note_on,6,0,3,,,,,,,,,2,,,51,0
51270,note_on,30,0,1,,,,,,,,,0,,,65,0
51270,note_on,0,0,1,,,,,,,,,0,,,66,62
51300,note_on,30,0,1,,,,,,,,,0,,,66,0
51300,control_change,54,0,3,,,,,,,,,2,64,0,,
51300,note_on,0,0,1,,,,,,,,,0,,,63,62
51330,control_change,0,0,1,,,,,,,,,0,64,0,,
51330,note_on,0,0,1,,,,,,,,,0,,,59,62
51330,note_on,30,0,1,,,,,,,,,0,,,63,0
51360,note_on,0,0,3,,,,,,,,,2,,,49,75
51360,control_change,60,0,3,,,,,,,,,2,64,127,,
51360,note_on,30,0,1,,,,,,,,,0,,,59,0
51360,control_change,0,0,1,,,,,,,,,0,64,127,,
51360,note_on,0,0,1,,,,,,,,,0,,,58,62
51366,note_on,6,0,3,,,,,,,,,2,,,49,0
51390,note_on,30,0,1,,,,,,,,,0,,,58,0
51390,note_on,0,0,1,,,,,,,,,0,,,61,62
51420,note_on,54,0,3,,,,,,,,,2,,,54,114
51420,note_on,30,0,1,,,,,,,,,0,,,61,0
51420,note_on,0,0,1,,,,,,,,,0,,,70,62
51426,note_on,6,0,3,,,,,,,,,2,,,54,0
51450,note_on,30,0,1,,,,,,,,,0,,,70,0
51450,note_on,0,0,1,,,,,,,,,0,,,66,62
51480,note_on,54,0,3,,,,,,,,,2,,,49,75
51480,note_on,30,0,1,,,,,,,,,0,,,66,0
51480,note_on,0,0,1,,,,,,,,,0,,,59,62
51486,note_on,6,0,3,,,,,,,,,2,,,49,0
51510,note_on,30,0,1,,,,,,,,,0,,,59,0
51510,note_on,0,0,1,,,,,,,,,0,,,61,62
51540,note_on,0,0,3,,,,,,,,,2,,,56,114
51540,control_change,54,0,3,,,,,,,,,2,64,0,,
51540,note_on,30,0,1,,,,,,,,,0,,,61,0
51540,note_on,0,0,1,,,,,,,,,0,,,71,62
51546,note_on,6,0,3,,,,,,,,,2,,,56,0
51570,note_on,30,0,1,,,,,,,,,0,,,71,0
51570,note_on,0,0,1,,,,,,,,,0,,,65,62
51570,control_change,0,0,1,,,,,,,,,0,64,0,,
51600,control_change,54,0,3,,,,,,,,,2,64,127,,
51600,note_on,30,0,1,,,,,,,,,0,,,65,0
51600,control_change,0,0,1,,,,,,,,,0,64,127,,
51600,note_on,0,0,1,,,,,,,,,0,,,58,62
51600,note_on,0,0,3,,,,,,,,,2,,,54,75
51606,note_on,6,0,3,,,,,,,,,2,,,54,0
51630,note_on,30,0,1,,,,,,,,,0,,,58,0
51630,note_on,0,0,1,,,,,,,,,0,,,66,62
51660,control_change,54,0,3,,,,,,,,,2,64,0,,
51660,note_on,30,0,1,,,,,,,,,0,,,66,0
51660,note_on,0,0,1,,,,,,,,,0,,,61,62
51690,note_on,30,0,1,,,,,,,,,0,,,61,0
51690,note_on,0,0,1,,,,,,,,,0,,,70,62
51720,note_on,0,0,1,,,,,,,,,0,,,66,62
51720,note_on,30,0,1,,,,,,,,,0,,,70,0
51750,note_on,0,0,1,,,,,,,,,0,,,73,62
51750,note_on,30,0,1,,,,,,,,,0,,,66,0
51780,note_on,30,0,1,,,,,,,,,0,,,73,0
51780,note_on,0,0,1,,,,,,,,,0,,,70,62
51810,note_on,0,0,1,,,,,,,,,0,,,78,62
51810,control_change,0,0,1,,,,,,,,,0,64,0,,
51810,note_on,30,0,1,,,,,,,,,0,,,70,0
51840,control_change,180,0,3,,,,,,,,,2,64,127,,
51840,note_on,0,0,1,,,,,,,,,0,,,70,62
51840,control_change,0,0,1,,,,,,,,,0,64,127,,
51840,note_on,30,0,1,,,,,,,,,0,,,78,0
51840,note_on,0,0,3,,,,,,,,,2,,,61,75
51846,note_on,6,0,3,,,,,,,,,2,,,61,0
51870,note_on,0,0,1,,,,,,,,,0,,,73,62
51870,note_on,30,0,1,,,,,,,,,0,,,70,0
51900,note_on,54,0,3,,,,,,,,,2,,,66,114
51900,note_on,0,0,1,,,,,,,,,0,,,82,62
51900,note_on,30,0,1,,,,,,,,,0,,,73,0
51906,note_on,6,0,3,,,,,,,,,2,,,66,0
51930,note_on,30,0,1,,,,,,,,,0,,,82,0
51930,note_on,0,0,1,,,,,,,,,0,,,78,62
51960,note_on,30,0,1,,,,,,,,,0,,,78,0
51960,note_on,0,0,1,,,,,,,,,0,,,71,62
51960,note_on,54,0,3,,,,,,,,,2,,,61,75
51966,note_on,6,0,3,,,,,,,,,2,,,61,0
51990,note_on,30,0,1,,,,,,,,,0,,,71,0
51990,note_on,0,0,1,,,,,,,,,0,,,73,62
52020,note_on,30,0,1,,,,,,,,,0,,,73,0
52020,note_on,0,0,1,,,,,,,,,0,,,83,62
52020,control_change,54,0,3,,,,,,,,,2,64,0,,
52020,note_on,0,0,3,,,,,,,,,2,,,68,114
52026,note_on,6,0,3,,,,,,,,,2,,,68,0
52050,note_on,0,0,1,,,,,,,,,0,,,77,62
52050,note_on,30,0,1,,,,,,,,,0,,,83,0
52050,control_change,0,0,1,,,,,,,,,0,64,0,,
52080,note_on,30,0,1,,,,,,,,,0,,,77,0
52080,control_change,54,0,3,,,,,,,,,2,64,127,,
52080,note_on,0,0,3,,,,,,,,,2,,,66,75
52080,note_on,0,0,1,,,,,,,,,0,,,70,62
52080,control_change,0,0,1,,,,,,,,,0,64,127,,
52086,note_on,6,0,3,,,,,,,,,2,,,66,0
52110,note_on,30,0,1,,,,,,,,,0,,,70,0
52110,note_on,0,0,1,,,,,,,,,0,,,78,62
52140,control_change,54,0,3,,,,,,,,,2,64,0,,
52140,note_on,30,0,1,,,,,,,,,0,,,78,0
52140,note_on,0,0,1,,,,,,,,,0,,,73,62
52170,note_on,0,0,1,,,,,,,,,0,,,82,62
52170,note_on,30,0,1,,,,,,,,,0,,,73,0
52200,note_on,30,0,1,,,,,,,,,0,,,82,0
52200,note_on,0,0,1,,,,,,,,,0,,,78,62
52230,note_on,30,0,1,,,,,,,,,0,,,78,0
52230,note_on,0,0,1,,,,,,,,,0,,,85,62
52260,note_on,0,0,1,,,,,,,,,0,,,82,62
52260,note_on,30,0,1,,,,,,,,,0,,,85,0
52290,note_on,30,0,1,,,,,,,,,0,,,82,0
52290,control_change,0,0,1,,,,,,,,,0,64,0,,
52290,note_on,0,0,1,,,,,,,,,0,,,78,62
52320,control_change,0,0,1,,,,,,,,,0,64,127,,
52320,note_on,30,0,1,,,,,,,,,0,,,78,0
52320,control_change,180,0,3,,,,,,,,,2,64,127,,
52320,note_on,0,0,3,,,,,,,,,2,,,49,75
52320,note_on,0,0,1,,,,,,,,,0,,,80,75
52320,note_on,0,0,2,,,,,,,,,1,,,71,36
52320,control_change,1170,0,2,,,,,,,,,1,64,127,,
52350,note_on,0,0,2,,,,,,,,,1,,,73,36
52350,note_on,30,0,2,,,,,,,,,1,,,71,0
52380,note_on,60,0,1,,,,,,,,,0,,,80,0
52380,note_on,0,0,2,,,,,,,,,1,,,71,36
52380,note_on,30,0,2,,,,,,,,,1,,,73,0
52380,note_on,0,0,1,,,,,,,,,0,,,83,75
52410,note_on,30,0,2,,,,,,,,,1,,,71,0
52410,note_on,0,0,2,,,,,,,,,1,,,73,36
52440,note_on,120,0,3,,,,,,,,,2,,,49,0
52440,note_on,30,0,2,,,,,,,,,1,,,73,0
52440,note_on,0,0,2,,,,,,,,,1,,,71,36
52440,note_on,0,0,1,,,,,,,,,0,,,75,75
52440,note_on,60,0,1,,,,,,,,,0,,,83,0
52470,note_on,0,0,2,,,,,,,,,1,,,73,36
52470,note_on,30,0,2,,,,,,,,,1,,,71,0
52500,control_change,60,0,3,,,,,,,,,2,64,0,,
52500,note_on,0,0,3,,,,,,,,,2,,,61,101
52500,note_on,30,0,2,,,,,,,,,1,,,73,0
52500,note_on,60,0,1,,,,,,,,,0,,,75,0
52500,control_change,0,0,1,,,,,,,,,0,64,0,,
52500,note_on,0,0,1,,,,,,,,,0,,,77,75
52500,note_on,0,0,2,,,,,,,,,1,,,71,36
52530,note_on,30,0,2,,,,,,,,,1,,,71,0
52530,control_change,0,0,2,,,,,,,,,1,64,0,,
52530,note_on,0,0,2,,,,,,,,,1,,,73,36
52560,control_change,0,0,3,,,,,,,,,2,64,127,,
52560,note_on,0,0,3,,,,,,,,,2,,,54,75
52560,control_change,0,0,1,,,,,,,,,0,64,127,,
52560,note_on,60,0,3,,,,,,,,,2,,,61,0
52560,note_on,0,0,2,,,,,,,,,1,,,70,36
52560,note_on,60,0,1,,,,,,,,,0,,,77,0
52560,note_on,30,0,2,,,,,,,,,1,,,73,0
52560,note_on,0,0,1,,,,,,,,,0,,,80,75
52560,control_change,0,0,2,,,,,,,,,1,64,127,,
52590,note_on,0,0,2,,,,,,,,,1,,,73,36
52590,note_on,30,0,2,,,,,,,,,1,,,70,0
52620,note_on,30,0,2,,,,,,,,,1,,,73,0
52620,note_on,0,0,2,,,,,,,,,1,,,70,36
52620,note_on,0,0,1,,,,,,,,,0,,,78,75
52620,note_on,0,0,3,,,,,,,,,2,,,58,75
52620,note_on,60,0,3,,,,,,,,,2,,,54,0
52620,note_on,60,0,1,,,,,,,,,0,,,80,0
52626,note_on,6,0,3,,,,,,,,,2,,,58,0
52650,note_on,0,0,2,,,,,,,,,1,,,73,36
52650,note_on,30,0,2,,,,,,,,,1,,,70,0
52680,note_on,60,0,1,,,,,,,,,0,,,78,0
52680,note_on,0,0,2,,,,,,,,,1,,,73,36
52680,note_on,30,0,2,,,,,,,,,1,,,73,0
52680,note_on,54,0,3,,,,,,,,,2,,,46,75
52686,note_on,6,0,3,,,,,,,,,2,,,46,0
52710,note_on,0,0,2,,,,,,,,,1,,,78,36
52710,note_on,30,0,2,,,,,,,,,1,,,73,0
52740,note_on,30,0,2,,,,,,,,,1,,,78,0
52740,control_change,54,0,3,,,,,,,,,2,64,0,,
52740,note_on,0,0,2,,,,,,,,,1,,,75,36
52740,note_on,0,0,1,,,,,,,,,0,,,82,75
52740,control_change,60,0,1,,,,,,,,,0,64,0,,
52740,note_on,0,0,3,,,,,,,,,2,,,48,75
52746,note_on,6,0,3,,,,,,,,,2,,,48,0
52770,note_on,0,0,2,,,,,,,,,1,,,78,36
52770,control_change,0,0,2,,,,,,,,,1,64,0,,
52770,note_on,30,0,2,,,,,,,,,1,,,75,0
52800,note_on,0,0,3,,,,,,,,,2,,,49,75
52800,note_on,30,0,2,,,,,,,,,1,,,78,0
52800,control_change,0,0,2,,,,,,,,,1,64,127,,
52800,note_on,0,0,2,,,,,,,,,1,,,77,36
52800,control_change,54,0,3,,,,,,,,,2,64,127,,
52800,note_on,60,0,1,,,,,,,,,0,,,82,0
52800,control_change,0,0,1,,,,,,,,,0,64,127,,
52800,note_on,0,0,1,,,,,,,,,0,,,80,75
52806,note_on,6,0,3,,,,,,,,,2,,,49,0
52830,note_on,0,0,2,,,,,,,,,1,,,73,36
52830,note_on,30,0,2,,,,,,,,,1,,,77,0
52860,note_on,54,0,3,,,,,,,,,2,,,37,75
52860,note_on,0,0,1,,,,,,,,,0,,,83,75
52860,note_on,30,0,2,,,,,,,,,1,,,73,0
52860,note_on,0,0,2,,,,,,,,,1,,,71,36
52860,note_on,60,0,1,,,,,,,,,0,,,80,0
52866,note_on,6,0,3,,,,,,,,,2,,,37,0
52890,note_on,0,0,2,,,,,,,,,1,,,73,36
52890,note_on,30,0,2,,,,,,,,,1,,,71,0
52920,note_on,0,0,2,,,,,,,,,1,,,71,36
52920,note_on,30,0,2,,,,,,,,,1,,,73,0
52920,note_on,0,0,1,,,,,,,,,0,,,75,75
52920,note_on,60,0,1,,,,,,,,,0,,,83,0
52950,note_on,30,0,2,,,,,,,,,1,,,71,0
52950,note_on,0,0,2,,,,,,,,,1,,,73,36
52980,note_on,0,0,3,,,,,,,,,2,,,61,101
52980,control_change,114,0,3,,,,,,,,,2,64,0,,
52980,note_on,30,0,2,,,,,,,,,1,,,73,0
52980,note_on,60,0,1,,,,,,,,,0,,,75,0
52980,control_change,0,0,1,,,,,,,,,0,64,0,,
52980,note_on,0,0,1,,,,,,,,,0,,,77,75
52980,note_on,0,0,2,,,,,,,,,1,,,71,36
53010,note_on,30,0,2,,,,,,,,,1,,,71,0
53010,control_change,0,0,2,,,,,,,,,1,64,0,,
53010,note_on,0,0,2,,,,,,,,,1,,,73,36
53040,control_change,0,0,3,,,,,,,,,2,64,127,,
53040,note_on,0,0,1,,,,,,,,,0,,,80,75
53040,note_on,30,0,2,,,,,,,,,1,,,73,0
53040,note_on,60,0,3,,,,,,,,,2,,,61,0
53040,note_on,0,0,2,,,,,,,,,1,,,70,36
53040,note_on,0,0,3,,,,,,,,,2,,,54,75
53040,control_change,0,0,1,,,,,,,,,0,64,127,,
53040,note_on,60,0,1,,,,,,,,,0,,,77,0
53040,control_change,0,0,2,,,,,,,,,1,64,127,,
53070,note_on,0,0,2,,,,,,,,,1,,,73,36
53070,note_on,30,0,2,,,,,,,,,1,,,70,0
53100,note_on,0,0,1,,,,,,,,,0,,,78,75
53100,note_on,0,0,3,,,,,,,,,2,,,58,75
53100,note_on,60,0,3,,,,,,,,,2,,,54,0
53100,note_on,0,0,2,,,,,,,,,1,,,70,36
53100,note_on,30,0,2,,,,,,,,,1,,,73,0
53100,note_on,60,0,1,,,,,,,,,0,,,80,0
53106,note_on,6,0,3,,,,,,,,,2,,,58,0
53130,note_on,0,0,2,,,,,,,,,1,,,73,36
53130,note_on,30,0,2,,,,,,,,,1,,,70,0
53160,note_on,0,0,2,,,,,,,,,1,,,73,36
53160,note_on,54,0,3,,,,,,,,,2,,,46,75
53160,note_on,60,0,1,,,,,,,,,0,,,78,0
53160,note_on,30,0,2,,,,,,,,,1,,,73,0
53166,note_on,6,0,3,,,,,,,,,2,,,46,0
53190,note_on,0,0,2,,,,,,,,,1,,,78,36
53190,note_on,30,0,2,,,,,,,,,1,,,73,0
53220,note_on,30,0,2,,,,,,,,,1,,,78,0
53220,note_on,0,0,2,,,,,,,,,1,,,75,36
53220,control_change,54,0,3,,,,,,,,,2,64,0,,
53220,note_on,0,0,1,,,,,,,,,0,,,82,75
53220,control_change,60,0,1,,,,,,,,,0,64,0,,
53220,note_on,0,0,3,,,,,,,,,2,,,48,75
53226,note_on,6,0,3,,,,,,,,,2,,,48,0
53250,note_on,30,0,2,,,,,,,,,1,,,75,0
53250,control_change,0,0,2,,,,,,,,,1,64,0,,
53250,note_on,0,0,2,,,,,,,,,1,,,78,36
53280,note_on,0,0,2,,,,,,,,,1,,,77,36
53280,note_on,0,0,3,,,,,,,,,2,,,49,75
53280,control_change,54,0,3,,,,,,,,,2,64,127,,
53280,note_on,0,0,1,,,,,,,,,0,,,80,75
53280,control_change,0,0,1,,,,,,,,,0,64,127,,
53280,note_on,60,0,1,,,,,,,,,0,,,82,0
53280,control_change,0,0,2,,,,,,,,,1,64,127,,
53280,note_on,30,0,2,,,,,,,,,1,,,78,0
53310,note_on,0,0,2,,,,,,,,,1,,,73,36
53310,note_on,30,0,2,,,,,,,,,1,,,77,0
53340,note_on,30,0,2,,,,,,,,,1,,,73,0
53340,note_on,0,0,2,,,,,,,,,1,,,72,36
53340,note_on,60,0,3,,,,,,,,,2,,,49,0
53340,note_on,0,0,3,,,,,,,,,2,,,53,75
53370,note_on,30,0,2,,,,,,,,,1,,,72,0
53370,note_on,0,0,2,,,,,,,,,1,,,73,36
53400,note_on,120,0,1,,,,,,,,,0,,,80,0
53400,note_on,0,0,1,,,,,,,,,0,,,75,75
53400,note_on,60,0,3,,,,,,,,,2,,,53,0
53400,note_on,0,0,3,,,,,,,,,2,,,54,75
53400,note_on,0,0,2,,,,,,,,,1,,,70,36
53400,note_on,30,0,2,,,,,,,,,1,,,73,0
53430,note_on,0,0,2,,,,,,,,,1,,,73,36
53430,note_on,30,0,2,,,,,,,,,1,,,70,0
53460,note_on,0,0,2,,,,,,,,,1,,,72,36
53460,note_on,30,0,2,,,,,,,,,1,,,73,0
53460,note_on,0,0,3,,,,,,,,,2,,,56,75
53460,control_change,0,0,3,,,,,,,,,2,64,0,,
53460,note_on,60,0,3,,,,,,,,,2,,,54,0
53460,note_on,0,0,1,,,,,,,,,0,,,78,75
53460,control_change,0,0,1,,,,,,,,,0,64,0,,
53460,note_on,60,0,1,,,,,,,,,0,,,75,0
53490,note_on,30,0,2,,,,,,,,,1,,,72,0
53490,control_change,0,0,2,,,,,,,,,1,64,0,,
53490,note_on,0,0,2,,,,,,,,,1,,,75,36
53520,note_on,30,0,2,,,,,,,,,1,,,75,0
53520,control_change,0,0,2,,,,,,,,,1,64,127,,
53520,note_on,0,0,2,,,,,,,,,1,,,73,36
53520,control_change,0,0,3,,,,,,,,,2,64,127,,
53520,note_on,60,0,3,,,,,,,,,2,,,56,0
53520,note_on,60,0,1,,,,,,,,,0,,,78,0
53520,note_on,0,0,1,,,,,,,,,0,,,77,75
53520,note_on,0,0,3,,,,,,,,,2,,,61,75
53550,note_on,0,0,2,,,,,,,,,1,,,68,36
53550,note_on,30,0,2,,,,,,,,,1,,,73,0
53580,note_on,0,0,2,,,,,,,,,1,,,65,36
53580,note_on,30,0,2,,,,,,,,,1,,,68,0
53580,note_on,60,0,3,,,,,,,,,2,,,61,0
53580,note_on,0,0,3,,,,,,,,,2,,,49,75
53610,note_on,0,0,2,,,,,,,,,1,,,68,36
53610,note_on,30,0,2,,,,,,,,,1,,,65,0
53640,note_on,60,0,3,,,,,,,,,2,,,49,0
53640,note_on,30,0,2,,,,,,,,,1,,,68,0
53640,note_on,0,0,2,,,,,,,,,1,,,66,36
53640,note_on,120,0,1,,,,,,,,,0,,,77,0
53640,note_on,0,0,3,,,,,,,,,2,,,51,75
53670,note_on,0,0,2,,,,,,,,,1,,,71,36
53670,note_on,30,0,2,,,,,,,,,1,,,66,0
53700,note_on,0,0,2,,,,,,,,,1,,,68,36
53700,note_on,60,0,1,,,,,,,,,0,,,75,75
53700,note_on,30,0,2,,,,,,,,,1,,,71,0
53700,control_change,0,0,3,,,,,,,,,2,64,0,,
53700,note_on,0,0,3,,,,,,,,,2,,,53,75
53700,note_on,60,0,3,,,,,,,,,2,,,51,0
53730,note_on,30,0,2,,,,,,,,,1,,,68,0
53730,control_change,0,0,2,,,,,,,,,1,64,0,,
53730,note_on,0,0,2,,,,,,,,,1,,,71,36
53760,note_on,0,0,2,,,,,,,,,1,,,70,36
53760,note_on,0,0,3,,,,,,,,,2,,,54,49
53760,note_on,30,0,2,,,,,,,,,1,,,71,0
53760,control_change,0,0,3,,,,,,,,,2,64,127,,
53760,note_on,60,0,1,,,,,,,,,0,,,75,0
53760,control_change,0,0,1,,,,,,,,,0,64,127,,
53760,control_change,0,0,2,,,,,,,,,1,64,127,,
53760,note_on,60,0,3,,,,,,,,,2,,,53,0
53760,note_on,0,0,1,,,,,,,,,0,,,73,49
53790,note_on,0,0,2,,,,,,,,,1,,,66,36
53790,note_on,30,0,2,,,,,,,,,1,,,70,0
53820,note_on,30,0,2,,,,,,,,,1,,,66,0
53820,note_on,0,0,3,,,,,,,,,2,,,46,49
53820,note_on,60,0,3,,,,,,,,,2,,,54,0
53820,note_on,0,0,2,,,,,,,,,1,,,65,36
53850,note_on,0,0,2,,,,,,,,,1,,,66,36
53850,note_on,30,0,2,,,,,,,,,1,,,65,0
53880,note_on,30,0,2,,,,,,,,,1,,,66,0
53880,note_on,0,0,2,,,,,,,,,1,,,63,36
53880,note_on,120,0,1,,,,,,,,,0,,,73,0
53880,note_on,0,0,1,,,,,,,,,0,,,68,49
53880,note_on,60,0,3,,,,,,,,,2,,,46,0
53880,note_on,0,0,3,,,,,,,,,2,,,47,49
53910,note_on,30,0,2,,,,,,,,,1,,,63,0
53910,note_on,0,0,2,,,,,,,,,1,,,66,36
53940,note_on,0,0,1,,,,,,,,,0,,,71,49
53940,note_on,0,0,3,,,,,,,,,2,,,49,49
53940,control_change,0,0,3,,,,,,,,,2,64,0,,
53940,note_on,0,0,2,,,,,,,,,1,,,65,36
53940,control_change,0,0,1,,,,,,,,,0,64,0,,
53940,note_on,60,0,3,,,,,,,,,2,,,47,0
53940,note_on,60,0,1,,,,,,,,,0,,,68,0
53940,note_on,30,0,2,,,,,,,,,1,,,66,0
53970,note_on,30,0,2,,,,,,,,,1,,,65,0
53970,note_on,0,0,2,,,,,,,,,1,,,68,36
53970,control_change,0,0,2,,,,,,,,,1,64,0,,
54000,note_on,0,0,1,,,,,,,,,0,,,70,49
54000,note_on,60,0,3,,,,,,,,,2,,,49,0
54000,control_change,0,0,3,,,,,,,,,2,64,127,,
54000,note_on,0,0,3,,,,,,,,,2,,,54,49
54000,note_on,60,0,1,,,,,,,,,0,,,71,0
54000,control_change,0,0,1,,,,,,,,,0,64,127,,
54000,note_on,30,0,2,,,,,,,,,1,,,68,0
54000,control_change,0,0,2,,,,,,,,,1,64,127,,
54000,note_on,0,0,2,,,,,,,,,1,,,66,36
54030,note_on,0,0,2,,,,,,,,,1,,,61,36
54030,note_on,30,0,2,,,,,,,,,1,,,66,0
54060,note_on,30,0,2,,,,,,,,,1,,,61,0
54060,note_on,0,0,2,,,,,,,,,1,,,58,36
54060,note_on,0,0,3,,,,,,,,,2,,,42,49
54060,note_on,60,0,3,,,,,,,,,2,,,54,0
54090,note_on,0,0,2,,,,,,,,,1,,,61,36
54090,note_on,30,0,2,,,,,,,,,1,,,58,0
54120,note_on,0,0,3,,,,,,,,,2,,,46,49
54120,note_on,60,0,3,,,,,,,,,2,,,42,0
54120,note_on,30,0,2,,,,,,,,,1,,,61,0
54120,note_on,120,0,1,,,,,,,,,0,,,70,0
54120,note_on,0,0,2,,,,,,,,,1,,,65,36
54150,note_on,0,0,2,,,,,,,,,1,,,66,36
54150,note_on,30,0,2,,,,,,,,,1,,,65,0
54180,control_change,60,0,1,,,,,,,,,0,64,0,,
54180,note_on,0,0,1,,,,,,,,,0,,,70,49
54180,control_change,0,0,3,,,,,,,,,2,64,0,,
54180,note_on,0,0,3,,,,,,,,,2,,,48,49
54180,note_on,0,0,2,,,,,,,,,1,,,63,36
54180,note_on,30,0,2,,,,,,,,,1,,,66,0
54180,note_on,60,0,3,,,,,,,,,2,,,46,0
54210,control_change,0,0,2,,,,,,,,,1,64,0,,
54210,note_on,0,0,2,,,,,,,,,1,,,66,36
54210,note_on,30,0,2,,,,,,,,,1,,,63,0
54240,note_on,60,0,1,,,,,,,,,0,,,70,0
54240,control_change,0,0,1,,,,,,,,,0,64,127,,
54240,note_on,0,0,1,,,,,,,,,0,,,68,49
54240,control_change,0,0,2,,,,,,,,,1,64,127,,
54240,note_on,0,0,3,,,,,,,,,2,,,49,49
54240,control_change,0,0,3,,,,,,,,,2,64,127,,
54240,note_on,60,0,3,,,,,,,,,2,,,48,0
54240,note_on,30,0,2,,,,,,,,,1,,,66,0
54240,note_on,0,0,2,,,,,,,,,1,,,65,36
54270,note_on,30,0,2,,,,,,,,,1,,,65,0
54270,note_on,0,0,2,,,,,,,,,1,,,61,36
54300,note_on,0,0,3,,,,,,,,,2,,,41,49
54300,note_on,60,0,3,,,,,,,,,2,,,49,0
54300,note_on,30,0,2,,,,,,,,,1,,,61,0
54300,note_on,0,0,2,,,,,,,,,1,,,60,36
54330,note_on,0,0,2,,,,,,,,,1,,,61,36
54330,note_on,30,0,2,,,,,,,,,1,,,60,0
54360,note_on,120,0,1,,,,,,,,,0,,,68,0
54360,note_on,0,0,3,,,,,,,,,2,,,42,49
54360,note_on,60,0,3,,,,,,,,,2,,,41,0
54360,note_on,0,0,1,,,,,,,,,0,,,63,49
54360,note_on,0,0,2,,,,,,,,,1,,,58,36
54360,note_on,30,0,2,,,,,,,,,1,,,61,0
54390,note_on,30,0,2,,,,,,,,,1,,,58,0
54390,note_on,0,0,2,,,,,,,,,1,,,61,36
54420,note_on,30,0,2,,,,,,,,,1,,,61,0
54420,note_on,0,0,3,,,,,,,,,2,,,44,49
54420,control_change,0,0,3,,,,,,,,,2,64,0,,
54420,note_on,60,0,1,,,,,,,,,0,,,63,0
54420,control_change,0,0,1,,,,,,,,,0,64,0,,
54420,note_on,0,0,2,,,,,,,,,1,,,60,36
54420,note_on,60,0,3,,,,,,,,,2,,,42,0
54420,note_on,0,0,1,,,,,,,,,0,,,66,49
54450,note_on,0,0,2,,,,,,,,,1,,,63,36
54450,control_change,0,0,2,,,,,,,,,1,64,0,,
54450,note_on,30,0,2,,,,,,,,,1,,,60,0
54480,control_change,0,0,1,,,,,,,,,0,64,127,,
54480,note_on,60,0,1,,,,,,,,,0,,,66,0
54480,note_on,30,0,2,,,,,,,,,1,,,63,0
54480,control_change,0,0,2,,,,,,,,,1,64,127,,
54480,note_on,0,0,2,,,,,,,,,1,,,61,36
54480,note_on,0,0,1,,,,,,,,,0,,,65,49
54480,note_on,60,0,3,,,,,,,,,2,,,44,0
54480,control_change,0,0,3,,,,,,,,,2,64,127,,
54480,note_on,0,0,3,,,,,,,,,2,,,49,49
54510,note_on,30,0,2,,,,,,,,,1,,,61,0
54510,note_on,0,0,2,,,,,,,,,1,,,56,36
54540,note_on,0,0,3,,,,,,,,,2,,,37,49
54540,note_on,0,0,2,,,,,,,,,1,,,53,36
54540,note_on,60,0,3,,,,,,,,,2,,,49,0
54540,note_on,30,0,2,,,,,,,,,1,,,56,0
54570,note_on,0,0,2,,,,,,,,,1,,,56,36
54570,note_on,30,0,2,,,,,,,,,1,,,53,0
54600,note_on,120,0,1,,,,,,,,,0,,,65,0
54600,note_on,30,0,2,,,,,,,,,1,,,56,0
54600,note_on,0,0,3,,,,,,,,,2,,,39,49
54600,note_on,60,0,3,,,,,,,,,2,,,37,0
54600,note_on,0,0,2,,,,,,,,,1,,,54,36
54630,note_on,0,0,2,,,,,,,,,1,,,59,36
54630,note_on,30,0,2,,,,,,,,,1,,,54,0
54660,note_on,60,0,3,,,,,,,,,2,,,39,0
54660,note_on,0,0,3,,,,,,,,,2,,,41,49
54660,note_on,30,0,2,,,,,,,,,1,,,59,0
54660,note_on,0,0,1,,,,,,,,,0,,,63,49
54660,control_change,60,0,1,,,,,,,,,0,64,0,,
54660,note_on,0,0,2,,,,,,,,,1,,,56,36
54660,control_change,0,0,3,,,,,,,,,2,64,0,,
54690,note_on,30,0,2,,,,,,,,,1,,,56,0
54690,note_on,0,0,2,,,,,,,,,1,,,59,36
54690,control_change,0,0,2,,,,,,,,,1,64,0,,
54720,note_on,60,0,1,,,,,,,,,0,,,63,0
54720,control_change,0,0,1,,,,,,,,,0,64,127,,
54720,note_on,0,0,1,,,,,,,,,0,,,61,49
54720,control_change,0,0,2,,,,,,,,,1,64,127,,
54720,note_on,0,0,2,,,,,,,,,1,,,58,36
54720,control_change,0,0,3,,,,,,,,,2,64,127,,
54720,note_on,30,0,2,,,,,,,,,1,,,59,0
54720,note_on,60,0,3,,,,,,,,,2,,,41,0
54720,note_on,0,0,3,,,,,,,,,2,,,42,49
54750,note_on,30,0,2,,,,,,,,,1,,,58,0
54750,note_on,0,0,2,,,,,,,,,1,,,54,36
54780,note_on,0,0,2,,,,,,,,,1,,,53,36
54780,note_on,30,0,2,,,,,,,,,1,,,54,0
54780,note_on,60,0,3,,,,,,,,,2,,,42,0
54780,note_on,0,0,3,,,,,,,,,2,,,34,49
54810,note_on,30,0,2,,,,,,,,,1,,,53,0
54810,note_on,0,0,2,,,,,,,,,1,,,54,36
54840,note_on,0,0,2,,,,,,,,,1,,,51,36
54840,note_on,30,0,2,,,,,,,,,1,,,54,0
54840,note_on,60,0,3,,,,,,,,,2,,,34,0
54840,note_on,120,0,1,,,,,,,,,0,,,61,0
54840,note_on,0,0,3,,,,,,,,,2,,,35,49
54840,note_on,0,0,1,,,,,,,,,0,,,56,49
54870,note_on,30,0,2,,,,,,,,,1,,,51,0
54870,note_on,0,0,2,,,,,,,,,1,,,54,36
54900,control_change,0,0,3,,,,,,,,,2,64,0,,
54900,note_on,0,0,1,,,,,,,,,0,,,59,49
54900,control_change,0,0,1,,,,,,,,,0,64,0,,
54900,note_on,60,0,1,,,,,,,,,0,,,56,0
54900,note_on,30,0,2,,,,,,,,,1,,,54,0
54900,note_on,0,0,2,,,,,,,,,1,,,53,36
54900,note_on,60,0,3,,,,,,,,,2,,,35,0
54900,note_on,0,0,3,,,,,,,,,2,,,37,49
54930,note_on,30,0,2,,,,,,,,,1,,,53,0
54930,control_change,0,0,2,,,,,,,,,1,64,0,,
54930,note_on,0,0,2,,,,,,,,,1,,,56,36
54960,note_on,60,0,3,,,,,,,,,2,,,37,0
54960,control_change,0,0,3,,,,,,,,,2,64,127,,
54960,note_on,0,0,3,,,,,,,,,2,,,42,49
54960,note_on,0,0,1,,,,,,,,,0,,,58,49
54960,control_change,0,0,1,,,,,,,,,0,64,127,,
54960,note_on,60,0,1,,,,,,,,,0,,,59,0
54960,note_on,0,0,2,,,,,,,,,1,,,54,36
54960,control_change,0,0,2,,,,,,,,,1,64,127,,
54960,note_on,30,0,2,,,,,,,,,1,,,56,0
54966,note_on,6,0,3,,,,,,,,,2,,,42,0
54990,note_on,30,0,2,,,,,,,,,1,,,54,0
54990,note_on,0,0,2,,,,,,,,,1,,,53,36
55020,note_on,54,0,3,,,,,,,,,2,,,49,49
55020,note_on,0,0,2,,,,,,,,,1,,,54,36
55020,note_on,30,0,2,,,,,,,,,1,,,53,0
55026,note_on,6,0,3,,,,,,,,,2,,,49,0
55050,note_on,0,0,2,,,,,,,,,1,,,58,36
55050,note_on,30,0,2,,,,,,,,,1,,,54,0
55080,note_on,30,0,2,,,,,,,,,1,,,58,0
55080,note_on,0,0,2,,,,,,,,,1,,,63,36
55080,note_on,120,0,1,,,,,,,,,0,,,58,0
55080,note_on,54,0,3,,,,,,,,,2,,,46,49
55086,note_on,6,0,3,,,,,,,,,2,,,46,0
55110,note_on,30,0,2,,,,,,,,,1,,,63,0
55110,note_on,0,0,2,,,,,,,,,1,,,61,36
55140,control_change,60,0,1,,,,,,,,,0,64,0,,
55140,note_on,0,0,3,,,,,,,,,2,,,42,49
55140,control_change,54,0,3,,,,,,,,,2,64,0,,
55140,note_on,30,0,2,,,,,,,,,1,,,61,0
55140,note_on,0,0,2,,,,,,,,,1,,,60,36
55140,note_on,0,0,1,,,,,,,,,0,,,70,49
55146,note_on,6,0,3,,,,,,,,,2,,,42,0
55170,control_change,0,0,2,,,,,,,,,1,64,0,,
55170,note_on,30,0,2,,,,,,,,,1,,,60,0
55170,note_on,0,0,2,,,,,,,,,1,,,61,36
55200,note_on,0,0,2,,,,,,,,,1,,,59,36
55200,control_change,0,0,2,,,,,,,,,1,64,127,,
55200,control_change,54,0,3,,,,,,,,,2,64,127,,
55200,note_on,0,0,3,,,,,,,,,2,,,37,49
55200,note_on,0,0,3,,,,,,,,,2,,,49,49
55200,note_on,60,0,1,,,,,,,,,0,,,70,0
55200,control_change,0,0,1,,,,,,,,,0,64,127,,
55200,note_on,30,0,2,,,,,,,,,1,,,61,0
55200,note_on,0,0,1,,,,,,,,,0,,,68,49
55230,note_on,30,0,2,,,,,,,,,1,,,59,0
55230,note_on,0,0,2,,,,,,,,,1,,,61,36
55260,note_on,0,0,1,,,,,,,,,0,,,71,49
55260,note_on,0,0,2,,,,,,,,,1,,,59,36
55260,note_on,30,0,2,,,,,,,,,1,,,61,0
55260,note_on,60,0,1,,,,,,,,,0,,,68,0
55290,note_on,0,0,2,,,,,,,,,1,,,61,36
55290,note_on,30,0,2,,,,,,,,,1,,,59,0
55320,note_on,60,0,1,,,,,,,,,0,,,71,0
55320,note_on,0,0,1,,,,,,,,,0,,,63,49
55320,note_on,0,0,3,,,,,,,,,2,,,37,0
55320,note_on,30,0,2,,,,,,,,,1,,,61,0
55320,note_on,0,0,2,,,,,,,,,1,,,59,36
55320,note_on,120,0,3,,,,,,,,,2,,,49,0
55350,note_on,30,0,2,,,,,,,,,1,,,59,0
55350,note_on,0,0,2,,,,,,,,,1,,,61,36
55380,note_on,60,0,1,,,,,,,,,0,,,63,0
55380,note_on,0,0,3,,,,,,,,,2,,,49,75
55380,control_change,60,0,3,,,,,,,,,2,64,0,,
55380,control_change,0,0,1,,,,,,,,,0,64,0,,
55380,note_on,0,0,2,,,,,,,,,1,,,59,36
55380,note_on,30,0,2,,,,,,,,,1,,,61,0
55380,note_on,0,0,1,,,,,,,,,0,,,65,49
55410,control_change,0,0,2,,,,,,,,,1,64,0,,
55410,note_on,30,0,2,,,,,,,,,1,,,59,0
55410,note_on,0,0,2,,,,,,,,,1,,,61,36
55440,note_on,60,0,3,,,,,,,,,2,,,49,0
55440,control_change,0,0,3,,,,,,,,,2,64,127,,
55440,note_on,0,0,3,,,,,,,,,2,,,42,49
55440,control_change,0,0,1,,,,,,,,,0,64,127,,
55440,note_on,0,0,2,,,,,,,,,1,,,58,36
55440,control_change,0,0,2,,,,,,,,,1,64,127,,
55440,note_on,30,0,2,,,,,,,,,1,,,61,0
55440,note_on,60,0,1,,,,,,,,,0,,,65,0
55440,note_on,0,0,1,,,,,,,,,0,,,68,49
55470,note_on,0,0,2,,,,,,,,,1,,,61,36
55470,note_on,30,0,2,,,,,,,,,1,,,58,0
55500,note_on,0,0,1,,,,,,,,,0,,,66,49
55500,note_on,0,0,3,,,,,,,,,2,,,46,49
55500,note_on,60,0,3,,,,,,,,,2,,,42,0
55500,note_on,60,0,1,,,,,,,,,0,,,68,0
55500,note_on,30,0,2,,,,,,,,,1,,,61,0
55500,note_on,0,0,2,,,,,,,,,1,,,58,36
55506,note_on,6,0,3,,,,,,,,,2,,,46,0
55530,note_on,30,0,2,,,,,,,,,1,,,58,0
55530,note_on,0,0,2,,,,,,,,,1,,,61,36
55560,note_on,30,0,2,,,,,,,,,1,,,61,0
55560,note_on,0,0,2,,,,,,,,,1,,,58,36
55560,note_on,60,0,1,,,,,,,,,0,,,66,0
55560,note_on,54,0,3,,,,,,,,,2,,,34,49
55566,note_on,6,0,3,,,,,,,,,2,,,34,0
55590,note_on,0,0,2,,,,,,,,,1,,,61,36
55590,note_on,30,0,2,,,,,,,,,1,,,58,0
55620,control_change,60,0,1,,,,,,,,,0,64,0,,
55620,note_on,0,0,2,,,,,,,,,1,,,63,36
55620,note_on,30,0,2,,,,,,,,,1,,,61,0
55620,note_on,0,0,3,,,,,,,,,2,,,36,49
55620,control_change,54,0,3,,,,,,,,,2,64,0,,
55620,note_on,0,0,1,,,,,,,,,0,,,70,49
55626,note_on,6,0,3,,,,,,,,,2,,,36,0
55650,control_change,0,0,2,,,,,,,,,1,64,0,,
55650,note_on,0,0,2,,,,,,,,,1,,,66,36
55650,note_on,30,0,2,,,,,,,,,1,,,63,0
55680,control_change,0,0,2,,,,,,,,,1,64,127,,
55680,note_on,0,0,3,,,,,,,,,2,,,37,49
55680,control_change,0,0,1,,,,,,,,,0,64,127,,
55680,note_on,0,0,1,,,,,,,,,0,,,68,49
55680,note_on,30,0,2,,,,,,,,,1,,,66,0
55680,note_on,60,0,1,,,,,,,,,0,,,70,0
55680,note_on,0,0,2,,,,,,,,,1,,,65,36
55680,control_change,54,0,3,,,,,,,,,2,64,127,,
55710,note_on,30,0,2,,,,,,,,,1,,,65,0
55710,note_on,0,0,2,,,,,,,,,1,,,61,36
55740,note_on,0,0,1,,,,,,,,,0,,,71,49
55740,note_on,30,0,2,,,,,,,,,1,,,61,0
55740,note_on,0,0,2,,,,,,,,,1,,,59,36
55740,note_on,60,0,1,,,,,,,,,0,,,68,0
55770,note_on,30,0,2,,,,,,,,,1,,,59,0
55770,note_on,0,0,2,,,,,,,,,1,,,61,36
55800,note_on,60,0,1,,,,,,,,,0,,,71,0
55800,note_on,0,0,1,,,,,,,,,0,,,63,49
55800,note_on,30,0,2,,,,,,,,,1,,,61,0
55800,note_on,0,0,2,,,,,,,,,1,,,59,36
55800,note_on,120,0,3,,,,,,,,,2,,,37,0
55830,note_on,30,0,2,,,,,,,,,1,,,59,0
55830,note_on,0,0,2,,,,,,,,,1,,,61,36
55860,note_on,30,0,2,,,,,,,,,1,,,61,0
55860,note_on,0,0,3,,,,,,,,,2,,,49,75
55860,control_change,60,0,3,,,,,,,,,2,64,0,,
55860,note_on,0,0,1,,,,,,,,,0,,,65,49
55860,control_change,0,0,1,,,,,,,,,0,64,0,,
55860,note_on,60,0,1,,,,,,,,,0,,,63,0
55860,note_on,0,0,2,,,,,,,,,1,,,59,36
55890,note_on,30,0,2,,,,,,,,,1,,,59,0
55890,note_on,0,0,2,,,,,,,,,1,,,61,36
55890,control_change,0,0,2,,,,,,,,,1,64,0,,
55920,note_on,0,0,1,,,,,,,,,0,,,68,49
55920,control_change,0,0,1,,,,,,,,,0,64,127,,
55920,note_on,60,0,1,,,,,,,,,0,,,65,0
55920,note_on,0,0,3,,,,,,,,,2,,,42,49
55920,note_on,30,0,2,,,,,,,,,1,,,61,0
55920,note_on,60,0,3,,,,,,,,,2,,,49,0
55920,control_change,0,0,2,,,,,,,,,1,64,127,,
55920,control_change,0,0,3,,,,,,,,,2,64,127,,
55920,note_on,0,0,2,,,,,,,,,1,,,58,36
55950,note_on,30,0,2,,,,,,,,,1,,,58,0
55950,note_on,0,0,2,,,,,,,,,1,,,61,36
55980,note_on,0,0,3,,,,,,,,,2,,,46,49
55980,note_on,0,0,1,,,,,,,,,0,,,66,49
55980,note_on,60,0,1,,,,,,,,,0,,,68,0
55980,note_on,30,0,2,,,,,,,,,1,,,61,0
55980,note_on,0,0,2,,,,,,,,,1,,,58,36
55980,note_on,60,0,3,,,,,,,,,2,,,42,0
55986,note_on,6,0,3,,,,,,,,,2,,,46,0
56010,note_on,30,0,2,,,,,,,,,1,,,58,0
56010,note_on,0,0,2,,,,,,,,,1,,,61,36
56040,note_on,0,0,2,,,,,,,,,1,,,59,36
56040,note_on,54,0,3,,,,,,,,,2,,,37,49
56040,note_on,60,0,1,,,,,,,,,0,,,66,0
56040,note_on,30,0,2,,,,,,,,,1,,,61,0
56046,note_on,6,0,3,,,,,,,,,2,,,37,0
56070,note_on,0,0,2,,,,,,,,,1,,,62,36
56070,note_on,30,0,2,,,,,,,,,1,,,59,0
56100,note_on,30,0,2,,,,,,,,,1,,,62,0
56100,control_change,60,0,1,,,,,,,,,0,64,0,,
56100,note_on,0,0,1,,,,,,,,,0,,,65,49
56100,control_change,54,0,3,,,,,,,,,2,64,0,,
56100,note_on,0,0,3,,,,,,,,,2,,,49,49
56100,note_on,0,0,2,,,,,,,,,1,,,61,36
56106,note_on,6,0,3,,,,,,,,,2,,,49,0
56130,note_on,30,0,2,,,,,,,,,1,,,61,0
56130,control_change,0,0,2,,,,,,,,,1,64,0,,
56130,note_on,0,0,2,,,,,,,,,1,,,59,36
56160,control_change,0,0,1,,,,,,,,,0,64,127,,
56160,note_on,30,0,2,,,,,,,,,1,,,59,0
56160,control_change,0,0,2,,,,,,,,,1,64,127,,
56160,note_on,0,0,2,,,,,,,,,1,,,58,36
56160,note_on,0,0,3,,,,,,,,,2,,,42,49
56160,control_change,54,0,3,,,,,,,,,2,64,127,,
56160,note_on,0,0,1,,,,,,,,,0,,,68,49
56160,note_on,60,0,1,,,,,,,,,0,,,65,0
56190,note_on,30,0,2,,,,,,,,,1,,,58,0
56190,note_on,0,0,2,,,,,,,,,1,,,61,36
56220,note_on,60,0,1,,,,,,,,,0,,,68,0
56220,note_on,0,0,1,,,,,,,,,0,,,66,49
56220,set_tempo,8220,1,0,,,,,,512821,,,,,,,
56220,note_on,0,0,3,,,,,,,,,2,,,46,49
56220,note_on,30,0,2,,,,,,,,,1,,,61,0
56220,note_on,0,0,2,,,,,,,,,1,,,58,36
56220,note_on,60,0,3,,,,,,,,,2,,,42,0
56226,note_on,6,0,3,,,,,,,,,2,,,46,0
56250,note_on,30,0,2,,,,,,,,,1,,,58,0
56250,note_on,0,0,2,,,,,,,,,1,,,61,36
56280,note_on,0,0,2,,,,,,,,,1,,,59,36
56280,note_on,30,0,2,,,,,,,,,1,,,61,0
56280,set_tempo,60,1,0,,,,,,526316,,,,,,,
56280,note_on,54,0,3,,,,,,,,,2,,,37,49
56280,note_on,60,0,1,,,,,,,,,0,,,66,0
56286,note_on,6,0,3,,,,,,,,,2,,,37,0
56310,note_on,30,0,2,,,,,,,,,1,,,59,0
56310,note_on,0,0,2,,,,,,,,,1,,,62,36
56340,note_on,30,0,2,,,,,,,,,1,,,62,0
56340,note_on,0,0,2,,,,,,,,,1,,,61,36
56340,control_change,60,0,1,,,,,,,,,0,64,0,,
56340,note_on,0,0,1,,,,,,,,,0,,,65,49
56340,set_tempo,60,1,0,,,,,,540541,,,,,,,
56340,note_on,0,0,3,,,,,,,,,2,,,49,49
56340,control_change,54,0,3,,,,,,,,,2,64,0,,
56346,note_on,6,0,3,,,,,,,,,2,,,49,0
56370,note_on,0,0,2,,,,,,,,,1,,,59,36
56370,control_change,0,0,2,,,,,,,,,1,64,0,,
56370,note_on,30,0,2,,,,,,,,,1,,,61,0
56400,note_on,0,0,2,,,,,,,,,1,,,58,36
56400,control_change,0,0,2,,,,,,,,,1,64,127,,
56400,note_on,30,0,2,,,,,,,,,1,,,59,0
56400,set_tempo,60,1,0,,,,,,560748,,,,,,,
56400,note_on,0,0,3,,,,,,,,,2,,,42,49
56400,note_on,60,0,1,,,,,,,,,0,,,65,0
56400,control_change,0,0,1,,,,,,,,,0,64,127,,
56400,note_on,0,0,1,,,,,,,,,0,,,68,49
56400,control_change,54,0,3,,,,,,,,,2,64,127,,
56430,note_on,30,0,2,,,,,,,,,1,,,58,0
56430,note_on,0,0,2,,,,,,,,,1,,,61,36
56460,note_on,0,0,3,,,,,,,,,2,,,46,49
56460,note_on,60,0,1,,,,,,,,,0,,,68,0
56460,note_on,0,0,1,,,,,,,,,0,,,66,49
56460,note_on,60,0,3,,,,,,,,,2,,,42,0
56460,note_on,0,0,2,,,,,,,,,1,,,58,36
56460,set_tempo,60,1,0,,,,,,576923,,,,,,,
56460,note_on,30,0,2,,,,,,,,,1,,,61,0
56466,note_on,6,0,3,,,,,,,,,2,,,46,0
56490,note_on,0,0,2,,,,,,,,,1,,,61,36
56490,note_on,30,0,2,,,,,,,,,1,,,58,0
56520,note_on,30,0,2,,,,,,,,,1,,,61,0
56520,note_on,0,0,2,,,,,,,,,1,,,59,36
56520,note_on,60,0,1,,,,,,,,,0,,,66,0
56520,note_on,54,0,3,,,,,,,,,2,,,37,49
56520,set_tempo,60,1,0,,,,,,594059,,,,,,,
56526,note_on,6,0,3,,,,,,,,,2,,,37,0
56550,note_on,30,0,2,,,,,,,,,1,,,59,0
56550,note_on,0,0,2,,,,,,,,,1,,,62,36
56580,control_change,54,0,3,,,,,,,,,2,64,0,,
56580,note_on,0,0,1,,,,,,,,,0,,,65,49
56580,note_on,0,0,3,,,,,,,,,2,,,49,49
56580,note_on,30,0,2,,,,,,,,,1,,,62,0
56580,set_tempo,60,1,0,,,,,,612245,,,,,,,
56580,control_change,60,0,1,,,,,,,,,0,64,0,,
56580,note_on,0,0,2,,,,,,,,,1,,,61,36
56586,note_on,6,0,3,,,,,,,,,2,,,49,0
56610,note_on,30,0,2,,,,,,,,,1,,,61,0
56610,control_change,0,0,2,,,,,,,,,1,64,0,,
56610,note_on,0,0,2,,,,,,,,,1,,,59,36
56640,control_change,0,0,1,,,,,,,,,0,64,127,,
56640,set_tempo,60,1,0,,,,,,638298,,,,,,,
56640,note_on,60,0,1,,,,,,,,,0,,,65,0
56640,note_on,0,0,1,,,,,,,,,0,,,68,49
56640,note_on,30,0,2,,,,,,,,,1,,,59,0
56640,note_on,0,0,3,,,,,,,,,2,,,42,49
56640,control_change,54,0,3,,,,,,,,,2,64,127,,
56640,note_on,0,0,2,,,,,,,,,1,,,58,36
56646,note_on,6,0,3,,,,,,,,,2,,,42,0
56670,note_on,0,0,1,,,,,,,,,0,,,66,49
56670,note_on,30,0,1,,,,,,,,,0,,,68,0
56700,note_on,54,0,3,,,,,,,,,2,,,30,49
56700,note_on,0,0,1,,,,,,,,,0,,,65,49
56700,note_on,30,0,1,,,,,,,,,0,,,66,0
56706,note_on,6,0,3,,,,,,,,,2,,,30,0
56730,note_on,0,0,1,,,,,,,,,0,,,66,49
56730,note_on,30,0,1,,,,,,,,,0,,,65,0
56760,note_on,30,0,1,,,,,,,,,0,,,66,0
56760,note_on,54,0,3,,,,,,,,,2,,,34,49
56760,note_on,0,0,1,,,,,,,,,0,,,65,49
56766,note_on,6,0,3,,,,,,,,,2,,,34,0
56790,note_on,30,0,1,,,,,,,,,0,,,65,0
56790,note_on,0,0,1,,,,,,,,,0,,,66,49
56820,note_on,54,0,3,,,,,,,,,2,,,37,49
56820,note_on,0,0,1,,,,,,,,,0,,,68,49
56820,note_on,30,0,1,,,,,,,,,0,,,66,0
56826,note_on,6,0,3,,,,,,,,,2,,,37,0
56850,note_on,30,0,1,,,,,,,,,0,,,68,0
56850,note_on,0,0,1,,,,,,,,,0,,,66,49
56880,note_on,0,0,1,,,,,,,,,0,,,66,49
56880,control_change,0,0,1,,,,,,,,,0,64,0,,
56880,note_on,30,0,1,,,,,,,,,0,,,66,0
56880,control_change,54,0,3,,,,,,,,,2,64,0,,
56880,note_on,0,0,3,,,,,,,,,2,,,42,49
57000,note_on,120,0,1,,,,,,,,,0,,,66,0
57000,note_on,360,0,2,,,,,,,,,1,,,58,0
57000,note_on,120,0,3,,,,,,,,,2,,,42,0
57120,control_change,120,0,1,,,,,,,,,0,64,127,,
57120,note_on,0,0,1,,,,,,,,,0,,,59,101
57120,note_on,0,0,3,,,,,,,,,2,,,35,88
57120,set_tempo,0,1,0,,,,,,500000,,,,,,,
57120,note_on,0,0,3,,,,,,,,,2,,,47,88
57120,control_change,120,0,3,,,,,,,,,2,64,127,,
57120,time_signature,480,1,0,1,4,24,8,,,,,,,,,
57129,note_on,9,0,1,,,,,,,,,0,,,59,0
57129,note_on,0,0,3,,,,,,,,,2,,,35,0
57129,note_on,9,0,3,,,,,,,,,2,,,47,0
57210,note_on,81,0,1,,,,,,,,,0,,,62,101
57210,note_on,81,0,3,,,,,,,,,2,,,38,88
57210,note_on,0,0,3,,,,,,,,,2,,,50,88
57214,note_on,4,0,1,,,,,,,,,0,,,62,0
57214,note_on,0,0,3,,,,,,,,,2,,,38,0
57214,note_on,4,0,3,,,,,,,,,2,,,50,0
57240,note_on,26,0,1,,,,,,,,,0,,,66,127
57240,note_on,0,0,3,,,,,,,,,2,,,54,114
57240,note_on,26,0,3,,,,,,,,,2,,,42,106
57240,time_signature,120,1,0,4,4,24,8,,,,,,,,,
57600,note_on,360,0,1,,,,,,,,,0,,,66,0
57600,control_change,0,0,1,,,,,,,,,0,64,0,,
57600,note_on,0,0,1,,,,,,,,,0,,,71,49
57600,control_change,0,0,3,,,,,,,,,2,64,0,,
57600,note_on,0,0,3,,,,,,,,,2,,,42,0
57600,note_on,360,0,3,,,,,,,,,2,,,54,0
57609,note_on,9,0,1,,,,,,,,,0,,,71,0
57690,note_on,0,0,3,,,,,,,,,2,,,54,36
57690,note_on,90,0,3,,,,,,,,,2,,,47,36
57690,note_on,81,0,1,,,,,,,,,0,,,62,49
57690,note_on,0,0,1,,,,,,,,,0,,,66,49
57690,note_on,0,0,3,,,,,,,,,2,,,59,36
57720,note_on,0,0,1,,,,,,,,,0,,,66,49
57720,note_on,30,0,1,,,,,,,,,0,,,66,0
57720,note_on,0,0,1,,,,,,,,,0,,,62,0
57720,note_on,0,0,1,,,,,,,,,0,,,62,49
57720,control_change,0,0,1,,,,,,,,,0,64,127,,
57720,note_on,0,0,3,,,,,,,,,2,,,59,36
57720,note_on,30,0,3,,,,,,,,,2,,,59,0
57720,note_on,0,0,3,,,,,,,,,2,,,54,0
57720,note_on,0,0,3,,,,,,,,,2,,,47,0
57720,control_change,0,0,3,,,,,,,,,2,64,127,,
57720,note_on,0,0,3,,,,,,,,,2,,,47,36
57720,note_on,0,0,3,,,,,,,,,2,,,54,36
57840,note_on,0,0,3,,,,,,,,,2,,,47,0
57840,note_on,0,0,3,,,,,,,,,2,,,54,0
57840,note_on,120,0,3,,,,,,,,,2,,,59,0
57840,note_on,0,0,1,,,,,,,,,0,,,74,49
57840,note_on,0,0,1,,,,,,,,,0,,,62,0
57840,note_on,120,0,1,,,,,,,,,0,,,66,0
57849,note_on,9,0,1,,,,,,,,,0,,,74,0
57930,note_on,0,0,3,,,,,,,,,2,,,54,36
57930,note_on,81,0,1,,,,,,,,,0,,,62,49
57930,note_on,0,0,1,,,,,,,,,0,,,66,49
57930,note_on,90,0,3,,,,,,,,,2,,,47,36
57930,note_on,0,0,3,,,,,,,,,2,,,59,36
57960,note_on,0,0,3,,,,,,,,,2,,,47,36
57960,note_on,0,0,3,,,,,,,,,2,,,59,36
57960,note_on,0,0,3,,,,,,,,,2,,,54,0
57960,note_on,30,0,3,,,,,,,,,2,,,59,0
57960,note_on,0,0,3,,,,,,,,,2,,,47,0
57960,note_on,0,0,3,,,,,,,,,2,,,54,36
57960,note_on,0,0,1,,,,,,,,,0,,,62,0
57960,note_on,0,0,1,,,,,,,,,0,,,62,49
57960,note_on,0,0,1,,,,,,,,,0,,,66,49
57960,note_on,30,0,1,,,,,,,,,0,,,66,0
58080,note_on,120,0,1,,,,,,,,,0,,,66,0
58080,note_on,0,0,1,,,,,,,,,0,,,62,0
58080,note_on,0,0,1,,,,,,,,,0,,,78,49
58080,control_change,0,0,1,,,,,,,,,0,64,0,,
58080,control_change,0,0,3,,,,,,,,,2,64,0,,
58080,note_on,120,0,3,,,,,,,,,2,,,59,0
58080,note_on,0,0,3,,,,,,,,,2,,,54,0
58080,note_on,0,0,3,,,,,,,,,2,,,47,0
58089,note_on,9,0,1,,,,,,,,,0,,,78,0
58170,note_on,0,0,3,,,,,,,,,2,,,38,88
58170,control_change,90,0,3,,,,,,,,,2,64,127,,
58170,note_on,0,0,1,,,,,,,,,0,,,57,101
58170,note_on,0,0,3,,,,,,,,,2,,,50,88
58170,note_on,0,0,1,,,,,,,,,0,,,54,101
58170,control_change,81,0,1,,,,,,,,,0,64,127,,
58170,note_on,0,0,1,,,,,,,,,0,,,62,101
58200,note_on,30,0,3,,,,,,,,,2,,,50,0
58200,note_on,0,0,1,,,,,,,,,0,,,54,117
58200,note_on,0,0,3,,,,,,,,,2,,,38,106
58200,note_on,0,0,3,,,,,,,,,2,,,50,114
58200,key_signature,960,1,0,,,,,D,,,,,,,,
58200,note_on,0,0,1,,,,,,,,,0,,,62,127
58200,note_on,0,0,1,,,,,,,,,0,,,57,122
58200,note_on,0,0,1,,,,,,,,,0,,,54,0
58200,note_on,0,0,1,,,,,,,,,0,,,57,0
58200,note_on,30,0,1,,,,,,,,,0,,,62,0
58200,note_on,0,0,3,,,,,,,,,2,,,38,0
58560,note_on,0,0,1,,,,,,,,,0,,,57,0
58560,note_on,360,0,3,,,,,,,,,2,,,50,0
58560,note_on,0,0,3,,,,,,,,,2,,,38,0
58560,control_change,0,0,3,,,,,,,,,2,64,0,,
58560,note_on,360,0,1,,,,,,,,,0,,,62,0
58560,note_on,0,0,1,,,,,,,,,0,,,81,49
58560,control_change,0,0,1,,,,,,,,,0,64,0,,
58560,note_on,0,0,1,,,,,,,,,0,,,54,0
58571,note_on,11,0,1,,,,,,,,,0,,,81,0
58665,note_on,105,0,3,,,,,,,,,2,,,33,88
58665,note_on,0,0,1,,,,,,,,,0,,,61,101
58665,note_on,0,0,1,,,,,,,,,0,,,57,101
58665,note_on,0,0,1,,,,,,,,,0,,,55,101
58665,note_on,94,0,1,,,,,,,,,0,,,52,101
58665,note_on,0,0,3,,,,,,,,,2,,,45,88
58680,note_on,0,0,1,,,,,,,,,0,,,61,127
58680,note_on,0,0,1,,,,,,,,,0,,,57,123
58680,note_on,0,0,1,,,,,,,,,0,,,55,119
58680,note_on,0,0,1,,,,,,,,,0,,,52,115
58680,note_on,0,0,1,,,,,,,,,0,,,57,0
58680,note_on,0,0,1,,,,,,,,,0,,,55,0
58680,note_on,0,0,3,,,,,,,,,2,,,45,114
58680,note_on,0,0,1,,,,,,,,,0,,,52,0
58680,note_on,0,0,3,,,,,,,,,2,,,33,106
58680,note_on,15,0,1,,,,,,,,,0,,,61,0
58680,note_on,15,0,3,,,,,,,,,2,,,45,0
58680,note_on,0,0,3,,,,,,,,,2,,,33,0
59040,note_on,0,0,1,,,,,,,,,0,,,57,0
59040,note_on,0,0,1,,,,,,,,,0,,,55,0
59040,note_on,0,0,1,,,,,,,,,0,,,86,101
59040,note_on,0,0,1,,,,,,,,,0,,,52,0
59040,note_on,360,0,1,,,,,,,,,0,,,61,0
59040,note_on,0,0,3,,,,,,,,,2,,,33,0
59040,note_on,360,0,3,,,,,,,,,2,,,45,0
59145,note_on,0,0,1,,,,,,,,,0,,,55,101
59145,note_on,0,0,3,,,,,,,,,2,,,47,88
59145,note_on,105,0,3,,,,,,,,,2,,,35,88
59145,note_on,105,0,1,,,,,,,,,0,,,86,0
59145,note_on,0,0,1,,,,,,,,,0,,,50,101
59145,note_on,0,0,1,,,,,,,,,0,,,59,101
59145,note_on,0,0,1,,,,,,,,,0,,,62,101
59160,note_on,0,0,1,,,,,,,,,0,,,59,123
59160,note_on,0,0,1,,,,,,,,,0,,,55,119
59160,note_on,0,0,1,,,,,,,,,0,,,50,115
59160,note_on,0,0,1,,,,,,,,,0,,,59,0
59160,note_on,0,0,1,,,,,,,,,0,,,50,0
59160,note_on,15,0,1,,,,,,,,,0,,,62,0
59160,note_on,0,0,1,,,,,,,,,0,,,62,127
59160,note_on,15,0,3,,,,,,,,,2,,,47,0
59160,note_on,0,0,3,,,,,,,,,2,,,35,0
59160,note_on,0,0,1,,,,,,,,,0,,,55,0
59160,note_on,0,0,3,,,,,,,,,2,,,35,106
59160,note_on,0,0,3,,,,,,,,,2,,,47,114
59520,note_on,0,0,1,,,,,,,,,0,,,59,0
59520,note_on,360,0,3,,,,,,,,,2,,,47,0
59520,note_on,0,0,3,,,,,,,,,2,,,35,0
59520,note_on,0,0,1,,,,,,,,,0,,,90,101
59520,note_on,0,0,1,,,,,,,,,0,,,55,0
59520,note_on,0,0,1,,,,,,,,,0,,,50,0
59520,note_on,360,0,1,,,,,,,,,0,,,62,0
59625,note_on,0,0,1,,,,,,,,,0,,,62,101
59625,note_on,0,0,1,,,,,,,,,0,,,57,101
59625,note_on,105,0,1,,,,,,,,,0,,,90,0
59625,note_on,0,0,1,,,,,,,,,0,,,54,101
59625,note_on,0,0,3,,,,,,,,,2,,,50,88
59625,note_on,105,0,3,,,,,,,,,2,,,38,88
59640,note_on,0,0,1,,,,,,,,,0,,,57,122
59640,note_on,15,0,3,,,,,,,,,2,,,50,0
59640,note_on,0,0,3,,,,,,,,,2,,,38,0
59640,note_on,15,0,1,,,,,,,,,0,,,62,0
59640,note_on,0,0,3,,,,,,,,,2,,,38,106
59640,note_on,0,0,1,,,,,,,,,0,,,57,0
59640,note_on,0,0,1,,,,,,,,,0,,,54,0
59640,note_on,0,0,1,,,,,,,,,0,,,62,127
59640,note_on,0,0,3,,,,,,,,,2,,,50,114
59640,note_on,0,0,1,,,,,,,,,0,,,54,117
60000,note_on,360,0,3,,,,,,,,,2,,,50,0
60000,note_on,0,0,3,,,,,,,,,2,,,38,0
60000,note_on,0,0,1,,,,,,,,,0,,,54,0
60000,note_on,0,0,1,,,,,,,,,0,,,57,0
60000,note_on,0,0,1,,,,,,,,,0,,,81,36
60000,note_on,360,0,1,,,,,,,,,0,,,62,0
60011,note_on,11,0,1,,,,,,,,,0,,,81,0
60105,note_on,94,0,1,,,,,,,,,0,,,67,36
60105,note_on,0,0,1,,,,,,,,,0,,,73,36
60105,note_on,105,0,3,,,,,,,,,2,,,57,36
60105,note_on,0,0,3,,,,,,,,,2,,,64,36
60120,note_on,0,0,3,,,,,,,,,2,,,57,0
60120,note_on,0,0,3,,,,,,,,,2,,,57,36
60120,note_on,0,0,1,,,,,,,,,0,,,73,36
60120,note_on,0,0,1,,,,,,,,,0,,,67,36
60120,note_on,0,0,1,,,,,,,,,0,,,67,0
60120,note_on,15,0,1,,,,,,,,,0,,,73,0
60120,note_on,0,0,3,,,,,,,,,2,,,64,36
60120,note_on,15,0,3,,,,,,,,,2,,,64,0
60240,note_on,120,0,3,,,,,,,,,2,,,64,0
60240,note_on,0,0,1,,,,,,,,,0,,,81,36
60240,note_on,0,0,3,,,,,,,,,2,,,57,0
60240,note_on,0,0,1,,,,,,,,,0,,,67,0
60240,note_on,120,0,1,,,,,,,,,0,,,73,0
60251,note_on,11,0,1,,,,,,,,,0,,,81,0
60345,note_on,0,0,3,,,,,,,,,2,,,65,36
60345,note_on,0,0,3,,,,,,,,,2,,,57,36
60345,note_on,0,0,1,,,,,,,,,0,,,68,36
60345,control_change,105,0,3,,,,,,,,,2,64,127,,
60345,control_change,94,0,1,,,,,,,,,0,64,127,,
60345,note_on,0,0,1,,,,,,,,,0,,,73,36
60360,note_on,15,0,1,,,,,,,,,0,,,73,0
60360,note_on,0,0,1,,,,,,,,,0,,,68,0
60360,note_on,0,0,1,,,,,,,,,0,,,68,36
60360,note_on,15,0,3,,,,,,,,,2,,,65,0
60360,note_on,0,0,3,,,,,,,,,2,,,57,0
60360,note_on,0,0,3,,,,,,,,,2,,,57,36
60360,note_on,0,0,3,,,,,,,,,2,,,65,36
60360,note_on,0,0,1,,,,,,,,,0,,,73,36
60480,note_on,120,0,3,,,,,,,,,2,,,65,0
60480,note_on,0,0,3,,,,,,,,,2,,,57,0
60480,note_on,120,0,1,,,,,,,,,0,,,73,0
60480,note_on,0,0,1,,,,,,,,,0,,,68,0
60480,note_on,0,0,1,,,,,,,,,0,,,81,36
60491,note_on,11,0,1,,,,,,,,,0,,,81,0
60585,note_on,0,0,1,,,,,,,,,0,,,69,36
60585,control_change,105,0,3,,,,,,,,,2,64,0,,
60585,note_on,0,0,3,,,,,,,,,2,,,57,36
60585,control_change,94,0,1,,,,,,,,,0,64,0,,
60585,note_on,0,0,1,,,,,,,,,0,,,66,36
60585,note_on,0,0,1,,,,,,,,,0,,,74,36
60600,note_on,0,0,1,,,,,,,,,0,,,69,36
60600,note_on,0,0,1,,,,,,,,,0,,,66,36
60600,note_on,0,0,1,,,,,,,,,0,,,66,0
60600,note_on,0,0,1,,,,,,,,,0,,,74,36
60600,note_on,15,0,1,,,,,,,,,0,,,74,0
60600,note_on,0,0,3,,,,,,,,,2,,,57,36
60600,note_on,15,0,3,,,,,,,,,2,,,57,0
60600,note_on,0,0,1,,,,,,,,,0,,,69,0
60600,control_change,0,0,3,,,,,,,,,2,64,127,,
60720,note_on,0,0,3,,,,,,,,,2,,,78,36
60720,note_on,120,0,3,,,,,,,,,2,,,57,0
60825,note_on,105,0,3,,,,,,,,,2,,,78,0
60825,note_on,0,0,3,,,,,,,,,2,,,38,36
60840,note_on,15,0,3,,,,,,,,,2,,,38,0
60840,note_on,0,0,3,,,,,,,,,2,,,38,36
60960,note_on,0,0,1,,,,,,,,,0,,,66,0
60960,note_on,0,0,1,,,,,,,,,0,,,69,0
60960,note_on,360,0,1,,,,,,,,,0,,,74,0
60960,control_change,0,0,3,,,,,,,,,2,64,0,,
60960,note_on,120,0,3,,,,,,,,,2,,,38,0
60960,note_on,0,0,1,,,,,,,,,0,,,81,36
60971,note_on,11,0,1,,,,,,,,,0,,,81,0
61065,note_on,94,0,1,,,,,,,,,0,,,67,36
61065,note_on,0,0,1,,,,,,,,,0,,,73,36
61065,note_on,0,0,3,,,,,,,,,2,,,64,36
61065,note_on,105,0,3,,,,,,,,,2,,,57,36
61080,note_on,15,0,1,,,,,,,,,0,,,73,0
61080,note_on,0,0,3,,,,,,,,,2,,,57,0
61080,note_on,0,0,3,,,,,,,,,2,,,57,36
61080,note_on,0,0,3,,,,,,,,,2,,,64,36
61080,note_on,0,0,1,,,,,,,,,0,,,67,36
61080,note_on,0,0,1,,,,,,,,,0,,,67,0
61080,note_on,0,0,1,,,,,,,,,0,,,73,36
61080,note_on,15,0,3,,,,,,,,,2,,,64,0
61140,set_tempo,2940,1,0,,,,,,512821,,,,,,,
61200,set_tempo,60,1,0,,,,,,526316,,,,,,,
61200,note_on,0,0,3,,,,,,,,,2,,,57,0
61200,note_on,120,0,1,,,,,,,,,0,,,73,0
61200,note_on,120,0,3,,,,,,,,,2,,,64,0
61200,note_on,0,0,1,,,,,,,,,0,,,81,36
61200,note_on,0,0,1,,,,,,,,,0,,,67,0
61211,note_on,11,0,1,,,,,,,,,0,,,81,0
61260,set_tempo,60,1,0,,,,,,540541,,,,,,,
61305,note_on,0,0,1,,,,,,,,,0,,,73,36
61305,note_on,0,0,1,,,,,,,,,0,,,68,36
61305,control_change,94,0,1,,,,,,,,,0,64,127,,
61305,control_change,105,0,3,,,,,,,,,2,64,127,,
61305,note_on,0,0,3,,,,,,,,,2,,,65,36
61305,note_on,0,0,3,,,,,,,,,2,,,57,36
61320,note_on,0,0,1,,,,,,,,,0,,,68,36
61320,note_on,0,0,3,,,,,,,,,2,,,65,36
61320,note_on,0,0,3,,,,,,,,,2,,,57,36
61320,note_on,0,0,3,,,,,,,,,2,,,57,0
61320,note_on,15,0,3,,,,,,,,,2,,,65,0
61320,note_on,15,0,1,,,,,,,,,0,,,73,0
61320,note_on,0,0,1,,,,,,,,,0,,,68,0
61320,set_tempo,60,1,0,,,,,,560748,,,,,,,
61320,note_on,0,0,1,,,,,,,,,0,,,73,36
61380,set_tempo,60,1,0,,,,,,576923,,,,,,,
61440,set_tempo,60,1,0,,,,,,594059,,,,,,,
61440,note_on,0,0,1,,,,,,,,,0,,,81,36
61440,note_on,0,0,1,,,,,,,,,0,,,68,0
61440,note_on,120,0,3,,,,,,,,,2,,,65,0
61440,note_on,0,0,3,,,,,,,,,2,,,57,0
61440,note_on,120,0,1,,,,,,,,,0,,,73,0
61451,note_on,11,0,1,,,,,,,,,0,,,81,0
61500,set_tempo,60,1,0,,,,,,612245,,,,,,,
61545,note_on,0,0,1,,,,,,,,,0,,,69,36
61545,note_on,0,0,3,,,,,,,,,2,,,53,36
61545,control_change,105,0,3,,,,,,,,,2,64,0,,
61545,note_on,0,0,1,,,,,,,,,0,,,65,36
61545,control_change,94,0,1,,,,,,,,,0,64,0,,
61545,note_on,0,0,1,,,,,,,,,0,,,72,36
61560,note_on,15,0,1,,,,,,,,,0,,,72,0
61560,note_on,0,0,1,,,,,,,,,0,,,69,0
61560,note_on,0,0,1,,,,,,,,,0,,,65,0
61560,note_on,0,0,1,,,,,,,,,0,,,65,36
61560,note_on,0,0,1,,,,,,,,,0,,,69,36
61560,note_on,0,0,1,,,,,,,,,0,,,72,36
61560,set_tempo,60,1,0,,,,,,638298,,,,,,,
61560,control_change,0,0,3,,,,,,,,,2,64,127,,
61560,note_on,15,0,3,,,,,,,,,2,,,53,0
61560,note_on,0,0,3,,,,,,,,,2,,,53,36
61680,note_on,120,0,3,,,,,,,,,2,,,53,0
61680,note_on,0,0,3,,,,,,,,,2,,,77,36
61785,note_on,0,0,3,,,,,,,,,2,,,41,36
61785,note_on,105,0,3,,,,,,,,,2,,,77,0
61800,note_on,15,0,3,,,,,,,,,2,,,41,0
61800,note_on,0,0,3,,,,,,,,,2,,,41,36
61920,note_on,0,0,1,,,,,,,,,0,,,65,0
61920,note_on,120,0,3,,,,,,,,,2,,,41,0
61920,control_change,0,0,3,,,,,,,,,2,64,0,,
61920,note_on,360,0,1,,,,,,,,,0,,,72,0
61920,note_on,0,0,1,,,,,,,,,0,,,84,36
61920,note_on,0,0,1,,,,,,,,,0,,,69,0
61931,note_on,11,0,1,,,,,,,,,0,,,84,0
62025,note_on,105,0,3,,,,,,,,,2,,,60,36
62025,note_on,0,0,3,,,,,,,,,2,,,67,36
62025,note_on,0,0,1,,,,,,,,,0,,,76,36
62025,note_on,94,0,1,,,,,,,,,0,,,70,36
62040,note_on,0,0,3,,,,,,,,,2,,,60,36
62040,note_on,15,0,1,,,,,,,,,0,,,76,0
62040,note_on,0,0,1,,,,,,,,,0,,,70,0
62040,note_on,0,0,1,,,,,,,,,0,,,70,36
62040,note_on,0,0,1,,,,,,,,,0,,,76,36
62040,note_on,0,0,3,,,,,,,,,2,,,60,0
62040,note_on,15,0,3,,,,,,,,,2,,,67,0
62040,note_on,0,0,3,,,,,,,,,2,,,67,36
62160,note_on,0,0,3,,,,,,,,,2,,,60,0
62160,note_on,0,0,1,,,,,,,,,0,,,84,36
62160,note_on,0,0,1,,,,,,,,,0,,,70,0
62160,note_on,120,0,1,,,,,,,,,0,,,76,0
62160,note_on,120,0,3,,,,,,,,,2,,,67,0
62171,note_on,11,0,1,,,,,,,,,0,,,84,0
62265,control_change,105,0,3,,,,,,,,,2,64,127,,
62265,note_on,0,0,1,,,,,,,,,0,,,71,36
62265,note_on,0,0,3,,,,,,,,,2,,,60,36
62265,note_on,0,0,1,,,,,,,,,0,,,76,36
62265,note_on,0,0,3,,,,,,,,,2,,,68,36
62265,control_change,94,0,1,,,,,,,,,0,64,127,,
62280,note_on,0,0,1,,,,,,,,,0,,,71,0
62280,note_on,0,0,1,,,,,,,,,0,,,71,36
62280,note_on,0,0,1,,,,,,,,,0,,,76,36
62280,note_on,15,0,1,,,,,,,,,0,,,76,0
62280,note_on,15,0,3,,,,,,,,,2,,,68,0
62280,note_on,0,0,3,,,,,,,,,2,,,60,0
62280,note_on,0,0,3,,,,,,,,,2,,,60,36
62280,note_on,0,0,3,,,,,,,,,2,,,68,36
62400,note_on,120,0,1,,,,,,,,,0,,,76,0
62400,note_on,0,0,1,,,,,,,,,0,,,71,0
62400,note_on,0,0,1,,,,,,,,,0,,,84,36
62400,note_on,0,0,3,,,,,,,,,2,,,60,0
62400,note_on,120,0,3,,,,,,,,,2,,,68,0
62411,note_on,11,0,1,,,,,,,,,0,,,84,0
62505,note_on,0,0,1,,,,,,,,,0,,,69,36
62505,control_change,105,0,3,,,,,,,,,2,64,0,,
62505,note_on,0,0,3,,,,,,,,,2,,,60,36
62505,control_change,94,0,1,,,,,,,,,0,64,0,,
62505,note_on,0,0,1,,,,,,,,,0,,,72,36
62505,note_on,0,0,1,,,,,,,,,0,,,77,36
62520,control_change,0,0,1,,,,,,,,,0,64,127,,
62520,note_on,0,0,1,,,,,,,,,0,,,77,36
62520,note_on,0,0,1,,,,,,,,,0,,,72,36
62520,note_on,15,0,1,,,,,,,,,0,,,77,0
62520,note_on,15,0,3,,,,,,,,,2,,,60,0
62520,control_change,0,0,3,,,,,,,,,2,64,127,,
62520,note_on,0,0,3,,,,,,,,,2,,,60,36
62520,note_on,0,0,1,,,,,,,,,0,,,72,0
62520,note_on,0,0,1,,,,,,,,,0,,,69,36
62520,note_on,0,0,1,,,,,,,,,0,,,69,0
62640,note_on,120,0,3,,,,,,,,,2,,,60,0
62640,note_on,0,0,3,,,,,,,,,2,,,81,36
62651,note_on,11,0,3,,,,,,,,,2,,,81,0
62745,note_on,94,0,3,,,,,,,,,2,,,41,36
62760,note_on,0,0,3,,,,,,,,,2,,,41,36
62760,note_on,15,0,3,,,,,,,,,2,,,41,0
62880,note_on,120,0,3,,,,,,,,,2,,,41,0
62880,control_change,0,0,3,,,,,,,,,2,64,0,,
62880,note_on,360,0,1,,,,,,,,,0,,,77,0
62880,note_on,0,0,1,,,,,,,,,0,,,69,0
62880,note_on,0,0,1,,,,,,,,,0,,,84,36
62880,note_on,0,0,1,,,,,,,,,0,,,72,0
62891,note_on,11,0,1,,,,,,,,,0,,,84,0
62985,control_change,94,0,1,,,,,,,,,0,64,0,,
62985,note_on,0,0,1,,,,,,,,,0,,,70,36
62985,note_on,0,0,1,,,,,,,,,0,,,76,36
62985,note_on,0,0,3,,,,,,,,,2,,,67,36
62985,note_on,105,0,3,,,,,,,,,2,,,60,36
63000,note_on,0,0,1,,,,,,,,,0,,,70,36
63000,note_on,15,0,3,,,,,,,,,2,,,67,0
63000,note_on,0,0,3,,,,,,,,,2,,,60,0
63000,note_on,0,0,3,,,,,,,,,2,,,60,36
63000,note_on,15,0,1,,,,,,,,,0,,,76,0
63000,note_on,0,0,1,,,,,,,,,0,,,70,0
63000,note_on,0,0,3,,,,,,,,,2,,,67,36
63000,note_on,0,0,1,,,,,,,,,0,,,76,36
63120,note_on,120,0,1,,,,,,,,,0,,,76,0
63120,note_on,0,0,3,,,,,,,,,2,,,60,0
63120,note_on,0,0,1,,,,,,,,,0,,,84,36
63120,note_on,0,0,1,,,,,,,,,0,,,70,0
63120,note_on,120,0,3,,,,,,,,,2,,,67,0
63131,note_on,11,0,1,,,,,,,,,0,,,84,0
63225,control_change,94,0,1,,,,,,,,,0,64,127,,
63225,note_on,0,0,1,,,,,,,,,0,,,71,36
63225,note_on,0,0,1,,,,,,,,,0,,,76,36
63225,note_on,0,0,3,,,,,,,,,2,,,68,36
63225,note_on,0,0,3,,,,,,,,,2,,,60,36
63225,control_change,105,0,3,,,,,,,,,2,64,127,,
63240,note_on,15,0,1,,,,,,,,,0,,,76,0
63240,note_on,0,0,1,,,,,,,,,0,,,71,0
63240,note_on,0,0,1,,,,,,,,,0,,,71,36
63240,note_on,0,0,1,,,,,,,,,0,,,76,36
63240,note_on,0,0,3,,,,,,,,,2,,,68,36
63240,note_on,0,0,3,,,,,,,,,2,,,60,36
63240,note_on,0,0,3,,,,,,,,,2,,,60,0
63240,note_on,15,0,3,,,,,,,,,2,,,68,0
63360,note_on,120,0,3,,,,,,,,,2,,,68,0
63360,note_on,120,0,1,,,,,,,,,0,,,76,0
63360,note_on,0,0,1,,,,,,,,,0,,,71,0
63360,note_on,0,0,3,,,,,,,,,2,,,60,0
63360,note_on,0,0,1,,,,,,,,,0,,,84,36
63371,note_on,11,0,1,,,,,,,,,0,,,84,0
63465,note_on,0,0,1,,,,,,,,,0,,,68,36
63465,note_on,0,0,1,,,,,,,,,0,,,72,36
63465,note_on,0,0,1,,,,,,,,,0,,,75,36
63465,control_change,105,0,3,,,,,,,,,2,64,0,,
63465,note_on,0,0,3,,,,,,,,,2,,,56,36
63465,control_change,94,0,1,,,,,,,,,0,64,0,,
63480,note_on,15,0,1,,,,,,,,,0,,,75,0
63480,note_on,0,0,1,,,,,,,,,0,,,72,0
63480,note_on,0,0,1,,,,,,,,,0,,,68,0
63480,note_on,0,0,1,,,,,,,,,0,,,68,36
63480,note_on,0,0,1,,,,,,,,,0,,,72,36
63480,note_on,15,0,3,,,,,,,,,2,,,56,0
63480,control_change,0,0,1,,,,,,,,,0,64,127,,
63480,control_change,0,0,3,,,,,,,,,2,64,127,,
63480,key_signature,1920,1,0,,,,,C,,,,,,,,
63480,note_on,0,0,3,,,,,,,,,2,,,56,36
63480,note_on,0,0,1,,,,,,,,,0,,,75,36
63600,note_on,120,0,3,,,,,,,,,2,,,56,0
63600,note_on,0,0,3,,,,,,,,,2,,,80,36
63611,note_on,11,0,3,,,,,,,,,2,,,80,0
63705,note_on,94,0,3,,,,,,,,,2,,,44,36
63720,note_on,15,0,3,,,,,,,,,2,,,44,0
63720,control_change,0,0,3,,,,,,,,,2,64,0,,
63720,note_on,0,0,3,,,,,,,,,2,,,44,36
63840,note_on,360,0,1,,,,,,,,,0,,,75,0
63840,note_on,0,0,1,,,,,,,,,0,,,68,0
63840,note_on,0,0,1,,,,,,,,,0,,,87,88
63840,note_on,120,0,3,,,,,,,,,2,,,44,0
63840,note_on,0,0,1,,,,,,,,,0,,,72,0
63851,note_on,11,0,1,,,,,,,,,0,,,87,0
63945,note_on,0,0,1,,,,,,,,,0,,,79,88
63945,note_on,0,0,1,,,,,,,,,0,,,73,88
63945,control_change,94,0,1,,,,,,,,,0,64,0,,
63945,note_on,0,0,1,,,,,,,,,0,,,70,88
63960,note_on,0,0,1,,,,,,,,,0,,,73,88
63960,note_on,15,0,1,,,,,,,,,0,,,79,0
63960,note_on,0,0,1,,,,,,,,,0,,,79,88
63960,note_on,0,0,1,,,,,,,,,0,,,70,0
63960,note_on,0,0,1,,,,,,,,,0,,,70,88
63960,note_on,0,0,1,,,,,,,,,0,,,73,0
64080,note_on,240,0,3,,,,,,,,,2,,,76,88
64091,note_on,11,0,3,,,,,,,,,2,,,76,0
64185,note_on,94,0,3,,,,,,,,,2,,,39,88
64200,note_on,15,0,3,,,,,,,,,2,,,39,0
64200,note_on,0,0,3,,,,,,,,,2,,,39,114
64200,control_change,0,0,3,,,,,,,,,2,64,127,,
64320,note_on,360,0,1,,,,,,,,,0,,,79,0
64320,note_on,0,0,1,,,,,,,,,0,,,73,0
64320,note_on,0,0,1,,,,,,,,,0,,,70,0
64320,note_on,0,0,1,,,,,,,,,0,,,87,88
64331,note_on,11,0,1,,,,,,,,,0,,,87,0
64425,control_change,94,0,1,,,,,,,,,0,64,127,,
64425,note_on,0,0,1,,,,,,,,,0,,,71,88
64425,note_on,0,0,1,,,,,,,,,0,,,80,88
64440,note_on,15,0,1,,,,,,,,,0,,,80,0
64440,note_on,0,0,1,,,,,,,,,0,,,80,88
64440,note_on,0,0,1,,,,,,,,,0,,,71,88
64440,note_on,0,0,1,,,,,,,,,0,,,71,0
64440,control_change,0,0,1,,,,,,,,,0,64,0,,
64560,note_on,360,0,3,,,,,,,,,2,,,39,0
64560,note_on,0,0,3,,,,,,,,,2,,,76,88
64571,note_on,11,0,3,,,,,,,,,2,,,76,0
64665,note_on,0,0,3,,,,,,,,,2,,,39,88
64665,control_change,94,0,3,,,,,,,,,2,64,0,,
64680,note_on,15,0,3,,,,,,,,,2,,,39,0
64680,control_change,0,0,3,,,,,,,,,2,64,127,,
64680,note_on,0,0,3,,,,,,,,,2,,,39,114
64800,control_change,0,0,1,,,,,,,,,0,64,127,,
64800,note_on,0,0,1,,,,,,,,,0,,,71,0
64800,note_on,360,0,1,,,,,,,,,0,,,80,0
64800,note_on,0,0,1,,,,,,,,,0,,,83,75
64811,note_on,11,0,1,,,,,,,,,0,,,83,0
64905,note_on,0,0,1,,,,,,,,,0,,,71,75
64905,note_on,0,0,1,,,,,,,,,0,,,74,75
64905,note_on,94,0,1,,,,,,,,,0,,,68,75
64920,note_on,15,0,1,,,,,,,,,0,,,74,0
64920,note_on,0,0,1,,,,,,,,,0,,,71,0
64920,note_on,0,0,1,,,,,,,,,0,,,68,0
64920,note_on,0,0,1,,,,,,,,,0,,,68,75
64920,note_on,0,0,1,,,,,,,,,0,,,71,75
64920,note_on,0,0,1,,,,,,,,,0,,,74,75
64920,control_change,0,0,1,,,,,,,,,0,64,0,,
65040,note_on,360,0,3,,,,,,,,,2,,,39,0
65040,note_on,0,0,3,,,,,,,,,2,,,76,75
65051,note_on,11,0,3,,,,,,,,,2,,,76,0
65145,control_change,94,0,3,,,,,,,,,2,64,0,,
65145,note_on,0,0,3,,,,,,,,,2,,,39,75
65160,note_on,15,0,3,,,,,,,,,2,,,39,0
65160,control_change,0,0,3,,,,,,,,,2,64,127,,
65160,note_on,0,0,3,,,,,,,,,2,,,39,101
65280,note_on,360,0,1,,,,,,,,,0,,,74,0
65280,control_change,0,0,1,,,,,,,,,0,64,127,,
65280,note_on,0,0,1,,,,,,,,,0,,,68,0
65280,note_on,0,0,1,,,,,,,,,0,,,71,0
65280,note_on,0,0,1,,,,,,,,,0,,,87,62
65291,note_on,11,0,1,,,,,,,,,0,,,87,0
65385,note_on,94,0,1,,,,,,,,,0,,,67,62
65385,note_on,0,0,1,,,,,,,,,0,,,70,62
65385,note_on,0,0,1,,,,,,,,,0,,,75,62
65400,note_on,15,0,1,,,,,,,,,0,,,75,0
65400,note_on,0,0,1,,,,,,,,,0,,,70,0
65400,control_change,0,0,1,,,,,,,,,0,64,0,,
65400,note_on,0,0,1,,,,,,,,,0,,,67,62
65400,note_on,0,0,1,,,,,,,,,0,,,70,62
65400,note_on,0,0,1,,,,,,,,,0,,,75,62
65400,note_on,0,0,1,,,,,,,,,0,,,67,0
65520,note_on,0,0,3,,,,,,,,,2,,,63,62
65520,note_on,360,0,3,,,,,,,,,2,,,39,0
65531,note_on,11,0,3,,,,,,,,,2,,,63,0
65625,note_on,0,0,3,,,,,,,,,2,,,39,62
65625,control_change,94,0,3,,,,,,,,,2,64,0,,
65640,control_change,0,0,3,,,,,,,,,2,64,127,,
65640,note_on,15,0,3,,,,,,,,,2,,,39,0
65640,note_on,0,0,3,,,,,,,,,2,,,39,62
65760,note_on,0,0,1,,,,,,,,,0,,,70,0
65760,note_on,360,0,1,,,,,,,,,0,,,75,0
65760,note_on,0,0,1,,,,,,,,,0,,,67,0
65760,note_on,0,0,1,,,,,,,,,0,,,68,49
65760,control_change,0,0,1,,,,,,,,,0,64,127,,
65799,note_on,39,0,1,,,,,,,,,0,,,76,49
65800,note_on,1,0,1,,,,,,,,,0,,,68,0
65839,note_on,39,0,1,,,,,,,,,0,,,76,0
65840,note_on,1,0,1,,,,,,,,,0,,,68,49
65880,control_change,240,0,3,,,,,,,,,2,64,0,,
65880,note_on,0,0,1,,,,,,,,,0,,,67,49
65880,note_on,40,0,1,,,,,,,,,0,,,68,0
65919,note_on,39,0,1,,,,,,,,,0,,,75,49
65920,note_on,1,0,1,,,,,,,,,0,,,67,0
65959,note_on,39,0,1,,,,,,,,,0,,,75,0
65960,control_change,1,0,1,,,,,,,,,0,64,0,,
65960,note_on,0,0,1,,,,,,,,,0,,,67,49
66000,note_on,120,0,3,,,,,,,,,2,,,39,0
66000,control_change,0,0,3,,,,,,,,,2,64,127,,
66000,note_on,0,0,3,,,,,,,,,2,,,61,62
66000,note_on,0,0,1,,,,,,,,,0,,,68,49
66000,control_change,0,0,1,,,,,,,,,0,64,127,,
66000,note_on,40,0,1,,,,,,,,,0,,,67,0
66011,note_on,11,0,3,,,,,,,,,2,,,61,0
66039,note_on,39,0,1,,,,,,,,,0,,,76,49
66040,note_on,1,0,1,,,,,,,,,0,,,68,0
66079,note_on,39,0,1,,,,,,,,,0,,,76,0
66080,note_on,1,0,1,,,,,,,,,0,,,68,49
66105,note_on,94,0,3,,,,,,,,,2,,,49,62
66120,note_on,40,0,1,,,,,,,,,0,,,68,0
66120,note_on,0,0,1,,,,,,,,,0,,,67,49
66120,note_on,15,0,3,,,,,,,,,2,,,49,0
66120,note_on,0,0,3,,,,,,,,,2,,,49,62
66159,note_on,39,0,1,,,,,,,,,0,,,75,49
66160,note_on,1,0,1,,,,,,,,,0,,,67,0
66199,note_on,39,0,1,,,,,,,,,0,,,75,0
66200,note_on,1,0,1,,,,,,,,,0,,,67,49
66240,note_on,40,0,1,,,,,,,,,0,,,67,0
66240,note_on,0,0,1,,,,,,,,,0,,,68,49
66240,note_on,120,0,3,,,,,,,,,2,,,49,0
66240,note_on,0,0,3,,,,,,,,,2,,,61,62
66251,note_on,11,0,3,,,,,,,,,2,,,61,0
66279,note_on,39,0,1,,,,,,,,,0,,,76,49
66280,note_on,1,0,1,,,,,,,,,0,,,68,0
66319,note_on,39,0,1,,,,,,,,,0,,,76,0
66320,note_on,1,0,1,,,,,,,,,0,,,68,49
66345,note_on,94,0,3,,,,,,,,,2,,,49,62
66360,note_on,0,0,3,,,,,,,,,2,,,49,62
66360,note_on,40,0,1,,,,,,,,,0,,,68,0
66360,note_on,0,0,1,,,,,,,,,0,,,67,49
66360,note_on,15,0,3,,,,,,,,,2,,,49,0
66399,note_on,39,0,1,,,,,,,,,0,,,75,49
66400,note_on,1,0,1,,,,,,,,,0,,,67,0
66439,note_on,39,0,1,,,,,,,,,0,,,75,0
66440,note_on,1,0,1,,,,,,,,,0,,,67,49
66480,note_on,0,0,3,,,,,,,,,2,,,64,62
66480,note_on,0,0,3,,,,,,,,,2,,,61,62
66480,note_on,120,0,3,,,,,,,,,2,,,49,0
66480,note_on,0,0,1,,,,,,,,,0,,,71,49
66480,note_on,40,0,1,,,,,,,,,0,,,67,0
66491,note_on,11,0,3,,,,,,,,,2,,,64,0
66491,note_on,0,0,3,,,,,,,,,2,,,61,0
66519,note_on,39,0,1,,,,,,,,,0,,,80,49
66520,note_on,1,0,1,,,,,,,,,0,,,71,0
66559,note_on,39,0,1,,,,,,,,,0,,,80,0
66560,note_on,1,0,1,,,,,,,,,0,,,71,49
66585,note_on,94,0,3,,,,,,,,,2,,,49,62
66585,note_on,0,0,3,,,,,,,,,2,,,52,62
66600,note_on,0,0,3,,,,,,,,,2,,,49,0
66600,note_on,15,0,3,,,,,,,,,2,,,52,0
66600,note_on,0,0,3,,,,,,,,,2,,,49,62
66600,note_on,0,0,1,,,,,,,,,0,,,70,49
66600,note_on,40,0,1,,,,,,,,,0,,,71,0
66600,note_on,0,0,3,,,,,,,,,2,,,52,62
66639,note_on,39,0,1,,,,,,,,,0,,,79,49
66640,note_on,1,0,1,,,,,,,,,0,,,70,0
66679,note_on,39,0,1,,,,,,,,,0,,,79,0
66680,note_on,1,0,1,,,,,,,,,0,,,70,49
66720,note_on,120,0,3,,,,,,,,,2,,,52,0
66720,note_on,40,0,1,,,,,,,,,0,,,70,0
66720,note_on,0,0,1,,,,,,,,,0,,,71,49
66720,note_on,0,0,3,,,,,,,,,2,,,61,62
66720,note_on,0,0,3,,,,,,,,,2,,,49,0
66720,note_on,0,0,3,,,,,,,,,2,,,64,62
66731,note_on,11,0,3,,,,,,,,,2,,,64,0
66731,note_on,0,0,3,,,,,,,,,2,,,61,0
66759,note_on,39,0,1,,,,,,,,,0,,,80,49
66760,note_on,1,0,1,,,,,,,,,0,,,71,0
66799,note_on,39,0,1,,,,,,,,,0,,,80,0
66800,note_on,1,0,1,,,,,,,,,0,,,71,49
66825,note_on,94,0,3,,,,,,,,,2,,,49,62
66825,note_on,0,0,3,,,,,,,,,2,,,52,62
66840,note_on,15,0,3,,,,,,,,,2,,,52,0
66840,note_on,0,0,3,,,,,,,,,2,,,49,0
66840,note_on,0,0,3,,,,,,,,,2,,,49,62
66840,note_on,0,0,3,,,,,,,,,2,,,52,62
66840,note_on,0,0,1,,,,,,,,,0,,,70,49
66840,note_on,40,0,1,,,,,,,,,0,,,71,0
66879,note_on,39,0,1,,,,,,,,,0,,,79,49
66880,note_on,1,0,1,,,,,,,,,0,,,70,0
66919,note_on,39,0,1,,,,,,,,,0,,,79,0
66920,note_on,1,0,1,,,,,,,,,0,,,70,49
66960,note_on,0,0,1,,,,,,,,,0,,,71,49
66960,note_on,40,0,1,,,,,,,,,0,,,70,0
66999,note_on,39,0,1,,,,,,,,,0,,,80,49
67000,note_on,1,0,1,,,,,,,,,0,,,71,0
67039,note_on,39,0,1,,,,,,,,,0,,,80,0
67040,note_on,1,0,1,,,,,,,,,0,,,71,49
67080,note_on,0,0,1,,,,,,,,,0,,,70,49
67080,note_on,40,0,1,,,,,,,,,0,,,71,0
67119,note_on,39,0,1,,,,,,,,,0,,,79,49
67120,note_on,1,0,1,,,,,,,,,0,,,70,0
67159,note_on,39,0,1,,,,,,,,,0,,,79,0
67160,note_on,1,0,1,,,,,,,,,0,,,70,49
67200,note_on,0,0,1,,,,,,,,,0,,,70,36
67200,note_on,0,0,3,,,,,,,,,2,,,61,49
67200,note_on,0,0,3,,,,,,,,,2,,,49,0
67200,note_on,40,0,1,,,,,,,,,0,,,70,0
67200,note_on,360,0,3,,,,,,,,,2,,,52,0
67200,note_on,0,0,3,,,,,,,,,2,,,64,49
67209,note_on,0,0,3,,,,,,,,,2,,,61,0
67209,note_on,9,0,3,,,,,,,,,2,,,64,0
67239,note_on,39,0,1,,,,,,,,,0,,,78,36
67240,note_on,1,0,1,,,,,,,,,0,,,70,0
67279,note_on,39,0,1,,,,,,,,,0,,,78,0
67280,note_on,0,0,1,,,,,,,,,0,,,70,36
67280,control_change,1,0,1,,,,,,,,,0,64,0,,
67290,note_on,0,0,3,,,,,,,,,2,,,64,49
67290,note_on,0,0,3,,,,,,,,,2,,,61,49
67290,control_change,81,0,3,,,,,,,,,2,64,0,,
67320,control_change,0,0,1,,,,,,,,,0,64,127,,
67320,note_on,40,0,1,,,,,,,,,0,,,70,0
67320,key_signature,3840,1,0,,,,,B,,,,,,,,
67320,note_on,0,0,1,,,,,,,,,0,,,71,36
67320,note_on,30,0,3,,,,,,,,,2,,,64,0
67320,note_on,0,0,3,,,,,,,,,2,,,61,0
67320,note_on,0,0,3,,,,,,,,,2,,,59,49
67320,note_on,0,0,3,,,,,,,,,2,,,63,49
67320,set_tempo,0,1,0,,,,,,500000,,,,,,,
67359,note_on,39,0,1,,,,,,,,,0,,,78,36
67360,note_on,1,0,1,,,,,,,,,0,,,71,0
67399,note_on,39,0,1,,,,,,,,,0,,,78,0
67400,note_on,1,0,1,,,,,,,,,0,,,71,36
67440,note_on,40,0,1,,,,,,,,,0,,,71,0
67440,control_change,0,0,1,,,,,,,,,0,64,0,,
67440,note_on,0,0,1,,,,,,,,,0,,,70,36
67440,note_on,0,0,3,,,,,,,,,2,,,64,49
67440,note_on,0,0,3,,,,,,,,,2,,,61,49
67440,note_on,0,0,3,,,,,,,,,2,,,59,0
67440,note_on,120,0,3,,,,,,,,,2,,,63,0
67449,note_on,0,0,3,,,,,,,,,2,,,61,0
67449,note_on,9,0,3,,,,,,,,,2,,,64,0
67479,note_on,39,0,1,,,,,,,,,0,,,78,36
67480,note_on,1,0,1,,,,,,,,,0,,,70,0
67519,note_on,39,0,1,,,,,,,,,0,,,78,0
67520,note_on,1,0,1,,,,,,,,,0,,,70,36
67530,note_on,0,0,3,,,,,,,,,2,,,64,49
67530,note_on,81,0,3,,,,,,,,,2,,,61,49
67560,note_on,0,0,3,,,,,,,,,2,,,61,0
67560,note_on,30,0,3,,,,,,,,,2,,,64,0
67560,control_change,0,0,1,,,,,,,,,0,64,127,,
67560,note_on,40,0,1,,,,,,,,,0,,,70,0
67560,note_on,0,0,3,,,,,,,,,2,,,59,49
67560,note_on,0,0,3,,,,,,,,,2,,,63,49
67560,note_on,0,0,1,,,,,,,,,0,,,71,36
67599,note_on,39,0,1,,,,,,,,,0,,,78,36
67600,note_on,1,0,1,,,,,,,,,0,,,71,0
67639,note_on,39,0,1,,,,,,,,,0,,,78,0
67640,note_on,1,0,1,,,,,,,,,0,,,71,36
67680,note_on,0,0,3,,,,,,,,,2,,,64,49
67680,note_on,0,0,1,,,,,,,,,0,,,70,36
67680,note_on,120,0,3,,,,,,,,,2,,,63,0
67680,note_on,0,0,3,,,,,,,,,2,,,59,0
67680,note_on,0,0,3,,,,,,,,,2,,,61,49
67680,note_on,40,0,1,,,,,,,,,0,,,71,0
67680,control_change,0,0,1,,,,,,,,,0,64,0,,
67689,note_on,0,0,3,,,,,,,,,2,,,61,0
67689,note_on,9,0,3,,,,,,,,,2,,,64,0
67719,note_on,39,0,1,,,,,,,,,0,,,78,36
67720,note_on,1,0,1,,,,,,,,,0,,,70,0
67759,note_on,39,0,1,,,,,,,,,0,,,78,0
67760,note_on,1,0,1,,,,,,,,,0,,,70,36
67770,note_on,81,0,3,,,,,,,,,2,,,61,49
67770,note_on,0,0,3,,,,,,,,,2,,,64,49
67800,note_on,0,0,3,,,,,,,,,2,,,59,49
67800,note_on,0,0,3,,,,,,,,,2,,,63,49
67800,note_on,0,0,3,,,,,,,,,2,,,61,0
67800,note_on,30,0,3,,,,,,,,,2,,,64,0
67800,note_on,40,0,1,,,,,,,,,0,,,70,0
67800,control_change,0,0,1,,,,,,,,,0,64,127,,
67800,note_on,0,0,1,,,,,,,,,0,,,71,36
67839,note_on,39,0,1,,,,,,,,,0,,,78,36
67840,note_on,1,0,1,,,,,,,,,0,,,71,0
67879,note_on,39,0,1,,,,,,,,,0,,,78,0
67880,note_on,1,0,1,,,,,,,,,0,,,71,36
67920,note_on,120,0,3,,,,,,,,,2,,,63,0
67920,note_on,0,0,3,,,,,,,,,2,,,59,0
67920,note_on,0,0,3,,,,,,,,,2,,,58,49
67920,note_on,0,0,3,,,,,,,,,2,,,61,49
67920,note_on,0,0,1,,,,,,,,,0,,,66,36
67920,control_change,0,0,1,,,,,,,,,0,64,0,,
67920,note_on,40,0,1,,,,,,,,,0,,,71,0
67929,note_on,9,0,3,,,,,,,,,2,,,61,0
67929,note_on,0,0,3,,,,,,,,,2,,,58,0
67959,note_on,39,0,1,,,,,,,,,0,,,78,36
67960,note_on,1,0,1,,,,,,,,,0,,,66,0
67999,note_on,39,0,1,,,,,,,,,0,,,78,0
68000,note_on,1,0,1,,,,,,,,,0,,,66,36
68010,note_on,0,0,3,,,,,,,,,2,,,61,49
68010,note_on,81,0,3,,,,,,,,,2,,,58,49
68040,note_on,40,0,1,,,,,,,,,0,,,66,0
68040,note_on,0,0,1,,,,,,,,,0,,,71,36
68040,note_on,0,0,3,,,,,,,,,2,,,59,49
68040,note_on,0,0,3,,,,,,,,,2,,,56,49
68040,note_on,0,0,3,,,,,,,,,2,,,58,0
68040,note_on,30,0,3,,,,,,,,,2,,,61,0
68079,note_on,39,0,1,,,,,,,,,0,,,75,36
68080,note_on,1,0,1,,,,,,,,,0,,,71,0
68119,note_on,39,0,1,,,,,,,,,0,,,75,0
68120,note_on,1,0,1,,,,,,,,,0,,,70,36
68160,note_on,0,0,1,,,,,,,,,0,,,71,49
68160,note_on,40,0,1,,,,,,,,,0,,,70,0
68160,note_on,0,0,3,,,,,,,,,2,,,59,62
68160,note_on,120,0,3,,,,,,,,,2,,,59,0
68160,note_on,0,0,3,,,,,,,,,2,,,56,0
68160,control_change,0,0,3,,,,,,,,,2,64,127,,
68160,note_on,0,0,3,,,,,,,,,2,,,51,62
68160,control_change,0,0,1,,,,,,,,,0,64,127,,
68169,note_on,9,0,3,,,,,,,,,2,,,59,0
68169,note_on,0,0,3,,,,,,,,,2,,,51,0
68199,note_on,39,0,1,,,,,,,,,0,,,83,49
68200,note_on,1,0,1,,,,,,,,,0,,,71,0
68239,note_on,39,0,1,,,,,,,,,0,,,83,0
68240,note_on,0,0,1,,,,,,,,,0,,,71,49
68240,control_change,1,0,1,,,,,,,,,0,64,0,,
68250,note_on,0,0,3,,,,,,,,,2,,,51,62
68250,note_on,0,0,3,,,,,,,,,2,,,59,62
68250,control_change,81,0,3,,,,,,,,,2,64,0,,
68280,note_on,30,0,3,,,,,,,,,2,,,59,0
68280,note_on,0,0,3,,,,,,,,,2,,,51,0
68280,note_on,0,0,3,,,,,,,,,2,,,58,62
68280,note_on,0,0,1,,,,,,,,,0,,,73,49
68280,note_on,40,0,1,,,,,,,,,0,,,71,0
68280,control_change,0,0,1,,,,,,,,,0,64,127,,
68280,note_on,36240,0,4,,,,,,,,,3,,,52,75
68319,note_on,39,0,1,,,,,,,,,0,,,78,49
68320,note_on,1,0,1,,,,,,,,,0,,,73,0
68359,note_on,39,0,1,,,,,,,,,0,,,78,0
68360,note_on,1,0,1,,,,,,,,,0,,,73,49
68400,note_on,0,0,4,,,,,,,,,3,,,54,75
68400,note_on,0,0,1,,,,,,,,,0,,,74,49
68400,control_change,0,0,1,,,,,,,,,0,64,0,,
68400,note_on,120,0,4,,,,,,,,,3,,,52,0
68400,note_on,40,0,1,,,,,,,,,0,,,73,0
68439,note_on,39,0,1,,,,,,,,,0,,,78,49
68440,note_on,1,0,1,,,,,,,,,0,,,74,0
68479,note_on,39,0,1,,,,,,,,,0,,,78,0
68480,note_on,1,0,1,,,,,,,,,0,,,74,49
68490,note_on,90,0,4,,,,,,,,,3,,,54,0
68490,note_on,0,0,4,,,,,,,,,3,,,54,75
68520,note_on,0,0,3,,,,,,,,,2,,,59,62
68520,note_on,0,0,1,,,,,,,,,0,,,75,49
68520,note_on,0,0,4,,,,,,,,,3,,,51,75
68520,note_on,240,0,3,,,,,,,,,2,,,58,0
68520,note_on,30,0,4,,,,,,,,,3,,,54,0
68520,note_on,40,0,1,,,,,,,,,0,,,74,0
68520,control_change,0,0,1,,,,,,,,,0,64,127,,
68559,note_on,39,0,1,,,,,,,,,0,,,83,49
68560,note_on,1,0,1,,,,,,,,,0,,,75,0
68599,note_on,39,0,1,,,,,,,,,0,,,83,0
68600,note_on,1,0,1,,,,,,,,,0,,,71,49
68640,control_change,0,0,1,,,,,,,,,0,64,0,,
68640,note_on,40,0,1,,,,,,,,,0,,,71,0
68640,note_on,120,0,4,,,,,,,,,3,,,51,0
68640,note_on,0,0,4,,,,,,,,,3,,,54,75
68640,note_on,0,0,1,,,,,,,,,0,,,75,62
68679,note_on,39,0,1,,,,,,,,,0,,,78,62
68680,note_on,1,0,1,,,,,,,,,0,,,75,0
68719,note_on,39,0,1,,,,,,,,,0,,,78,0
68720,note_on,1,0,1,,,,,,,,,0,,,75,62
68730,note_on,90,0,4,,,,,,,,,3,,,54,0
68730,note_on,0,0,4,,,,,,,,,3,,,54,75
68760,note_on,40,0,1,,,,,,,,,0,,,75,0
68760,control_change,0,0,1,,,,,,,,,0,64,127,,
68760,note_on,0,0,1,,,,,,,,,0,,,73,62
68760,note_on,0,0,3,,,,,,,,,2,,,58,75
68760,note_on,240,0,3,,,,,,,,,2,,,59,0
68760,note_on,30,0,4,,,,,,,,,3,,,54,0
68760,note_on,0,0,4,,,,,,,,,3,,,52,75
68799,note_on,39,0,1,,,,,,,,,0,,,78,62
68800,note_on,1,0,1,,,,,,,,,0,,,73,0
68839,note_on,39,0,1,,,,,,,,,0,,,78,0
68840,note_on,1,0,1,,,,,,,,,0,,,73,62
68880,note_on,120,0,4,,,,,,,,,3,,,52,0
68880,note_on,0,0,4,,,,,,,,,3,,,54,75
68880,note_on,0,0,1,,,,,,,,,0,,,74,62
68880,control_change,0,0,1,,,,,,,,,0,64,0,,
68880,note_on,40,0,1,,,,,,,,,0,,,73,0
68919,note_on,39,0,1,,,,,,,,,0,,,78,62
68920,note_on,1,0,1,,,,,,,,,0,,,74,0
68959,note_on,39,0,1,,,,,,,,,0,,,78,0
68960,note_on,1,0,1,,,,,,,,,0,,,74,62
68970,note_on,0,0,4,,,,,,,,,3,,,54,75
68970,note_on,90,0,4,,,,,,,,,3,,,54,0
69000,note_on,0,0,4,,,,,,,,,3,,,51,75
69000,note_on,40,0,1,,,,,,,,,0,,,74,0
69000,control_change,0,0,1,,,,,,,,,0,64,127,,
69000,note_on,0,0,1,,,,,,,,,0,,,75,62
69000,note_on,30,0,4,,,,,,,,,3,,,54,0
69000,note_on,0,0,3,,,,,,,,,2,,,59,75
69000,note_on,240,0,3,,,,,,,,,2,,,58,0
69039,note_on,39,0,1,,,,,,,,,0,,,83,62
69040,note_on,1,0,1,,,,,,,,,0,,,75,0
69079,note_on,39,0,1,,,,,,,,,0,,,83,0
69080,note_on,1,0,1,,,,,,,,,0,,,71,62
69120,note_on,120,0,4,,,,,,,,,3,,,51,0
69120,note_on,0,0,4,,,,,,,,,3,,,50,75
69120,note_on,0,0,1,,,,,,,,,0,,,80,62
69120,control_change,0,0,1,,,,,,,,,0,64,0,,
69120,note_on,40,0,1,,,,,,,,,0,,,71,0
69120,note_on,120,0,3,,,,,,,,,2,,,59,0
69129,note_on,9,0,4,,,,,,,,,3,,,50,0
69159,note_on,39,0,1,,,,,,,,,0,,,71,62
69160,note_on,1,0,1,,,,,,,,,0,,,80,0
69199,note_on,39,0,1,,,,,,,,,0,,,71,0
69200,note_on,1,0,1,,,,,,,,,0,,,80,62
69210,note_on,81,0,4,,,,,,,,,3,,,50,75
69240,note_on,40,0,1,,,,,,,,,0,,,80,0
69240,note_on,0,0,1,,,,,,,,,0,,,77,75
69240,control_change,0,0,1,,,,,,,,,0,64,127,,
69240,note_on,120,0,3,,,,,,,,,2,,,49,88
69240,note_on,30,0,4,,,,,,,,,3,,,50,0
69279,note_on,39,0,1,,,,,,,,,0,,,71,75
69280,note_on,1,0,1,,,,,,,,,0,,,77,0
69319,note_on,39,0,1,,,,,,,,,0,,,71,0
69320,note_on,1,0,1,,,,,,,,,0,,,77,75
69360,note_on,120,0,3,,,,,,,,,2,,,49,0
69360,note_on,0,0,3,,,,,,,,,2,,,54,88
69360,note_on,40,0,1,,,,,,,,,0,,,77,0
69360,note_on,0,0,1,,,,,,,,,0,,,76,75
69360,control_change,0,0,1,,,,,,,,,0,64,0,,
69369,note_on,9,0,3,,,,,,,,,2,,,54,0
69399,note_on,39,0,1,,,,,,,,,0,,,70,75
69400,note_on,1,0,1,,,,,,,,,0,,,76,0
69439,note_on,39,0,1,,,,,,,,,0,,,70,0
69440,note_on,1,0,1,,,,,,,,,0,,,76,75
69450,note_on,81,0,3,,,,,,,,,2,,,54,88
69480,note_on,40,0,1,,,,,,,,,0,,,76,0
69480,control_change,0,0,1,,,,,,,,,0,64,127,,
69480,note_on,0,0,1,,,,,,,,,0,,,75,75
69480,note_on,30,0,3,,,,,,,,,2,,,54,0
69480,note_on,0,0,3,,,,,,,,,2,,,48,88
69519,note_on,39,0,1,,,,,,,,,0,,,69,75
69520,note_on,1,0,1,,,,,,,,,0,,,75,0
69559,note_on,39,0,1,,,,,,,,,0,,,69,0
69560,note_on,1,0,1,,,,,,,,,0,,,75,75
69600,note_on,0,0,3,,,,,,,,,2,,,49,88
69600,note_on,120,0,3,,,,,,,,,2,,,48,0
69600,note_on,40,0,1,,,,,,,,,0,,,75,0
69600,control_change,0,0,1,,,,,,,,,0,64,0,,
69600,note_on,0,0,1,,,,,,,,,0,,,76,75
69639,note_on,39,0,1,,,,,,,,,0,,,68,75
69640,note_on,1,0,1,,,,,,,,,0,,,76,0
69679,note_on,39,0,1,,,,,,,,,0,,,68,0
69680,note_on,1,0,1,,,,,,,,,0,,,76,75
69690,note_on,0,0,3,,,,,,,,,2,,,49,88
69690,note_on,90,0,3,,,,,,,,,2,,,49,0
69720,note_on,40,0,1,,,,,,,,,0,,,76,0
69720,control_change,0,0,1,,,,,,,,,0,64,127,,
69720,note_on,0,0,1,,,,,,,,,0,,,75,75
69720,note_on,30,0,3,,,,,,,,,2,,,49,0
69720,note_on,0,0,3,,,,,,,,,2,,,43,88
69759,note_on,39,0,1,,,,,,,,,0,,,70,75
69760,note_on,1,0,1,,,,,,,,,0,,,75,0
69799,note_on,39,0,1,,,,,,,,,0,,,70,0
69800,note_on,1,0,1,,,,,,,,,0,,,75,75
69840,note_on,0,0,3,,,,,,,,,2,,,44,75
69840,note_on,40,0,1,,,,,,,,,0,,,75,0
69840,control_change,0,0,1,,,,,,,,,0,64,0,,
69840,note_on,0,0,1,,,,,,,,,0,,,71,62
69840,note_on,120,0,3,,,,,,,,,2,,,43,0
69849,note_on,9,0,3,,,,,,,,,2,,,44,0
69879,note_on,39,0,1,,,,,,,,,0,,,63,62
69880,note_on,1,0,1,,,,,,,,,0,,,71,0
69919,note_on,39,0,1,,,,,,,,,0,,,63,0
69920,note_on,1,0,1,,,,,,,,,0,,,71,62
69930,note_on,81,0,3,,,,,,,,,2,,,44,75
69960,note_on,0,0,1,,,,,,,,,0,,,73,49
69960,note_on,0,0,3,,,,,,,,,2,,,40,62
69960,note_on,30,0,3,,,,,,,,,2,,,44,0
69960,control_change,0,0,1,,,,,,,,,0,64,127,,
69960,note_on,40,0,1,,,,,,,,,0,,,71,0
69999,note_on,39,0,1,,,,,,,,,0,,,68,49
70000,note_on,1,0,1,,,,,,,,,0,,,73,0
70039,note_on,39,0,1,,,,,,,,,0,,,68,0
70040,note_on,1,0,1,,,,,,,,,0,,,73,49
70080,note_on,0,0,3,,,,,,,,,2,,,42,49
70080,note_on,0,0,1,,,,,,,,,0,,,70,36
70080,note_on,120,0,3,,,,,,,,,2,,,40,0
70080,control_change,0,0,1,,,,,,,,,0,64,0,,
70080,note_on,40,0,1,,,,,,,,,0,,,73,0
70089,note_on,9,0,3,,,,,,,,,2,,,42,0
70119,note_on,39,0,1,,,,,,,,,0,,,64,36
70120,note_on,1,0,1,,,,,,,,,0,,,70,0
70159,note_on,39,0,1,,,,,,,,,0,,,64,0
70160,note_on,1,0,1,,,,,,,,,0,,,70,36
70170,note_on,81,0,3,,,,,,,,,2,,,42,49
70200,note_on,0,0,3,,,,,,,,,2,,,35,36
70200,note_on,0,0,1,,,,,,,,,0,,,71,36
70200,control_change,0,0,1,,,,,,,,,0,64,127,,
70200,note_on,40,0,1,,,,,,,,,0,,,70,0
70200,note_on,30,0,3,,,,,,,,,2,,,42,0
70239,note_on,39,0,1,,,,,,,,,0,,,63,36
70240,note_on,1,0,1,,,,,,,,,0,,,71,0
70279,note_on,39,0,1,,,,,,,,,0,,,63,0
70280,note_on,1,0,1,,,,,,,,,0,,,71,36
70320,note_on,120,0,3,,,,,,,,,2,,,35,0
70320,note_on,0,0,3,,,,,,,,,2,,,42,36
70320,control_change,0,0,1,,,,,,,,,0,64,0,,
70320,note_on,0,0,1,,,,,,,,,0,,,70,36
70320,note_on,40,0,1,,,,,,,,,0,,,71,0
70329,note_on,9,0,3,,,,,,,,,2,,,42,0
70359,note_on,39,0,1,,,,,,,,,0,,,64,36
70360,note_on,1,0,1,,,,,,,,,0,,,70,0
70399,note_on,39,0,1,,,,,,,,,0,,,64,0
70400,note_on,1,0,1,,,,,,,,,0,,,70,36
70410,note_on,81,0,3,,,,,,,,,2,,,42,36
70440,note_on,40,0,1,,,,,,,,,0,,,70,0
70440,note_on,30,0,3,,,,,,,,,2,,,42,0
70440,note_on,0,0,3,,,,,,,,,2,,,35,36
70440,control_change,0,0,1,,,,,,,,,0,64,127,,
70440,note_on,0,0,1,,,,,,,,,0,,,71,36
70479,note_on,39,0,1,,,,,,,,,0,,,63,36
70480,note_on,1,0,1,,,,,,,,,0,,,71,0
70519,note_on,39,0,1,,,,,,,,,0,,,63,0
70520,control_change,1,0,1,,,,,,,,,0,64,0,,
70520,note_on,0,0,1,,,,,,,,,0,,,71,36
70560,note_on,40,0,1,,,,,,,,,0,,,71,0
70560,note_on,0,0,1,,,,,,,,,0,,,64,101
70560,note_on,120,0,3,,,,,,,,,2,,,35,0
70560,control_change,0,0,1,,,,,,,,,0,64,127,,
70560,control_change,0,0,3,,,,,,,,,2,64,127,,
70560,note_on,0,0,3,,,,,,,,,2,,,40,88
70560,note_on,0,0,3,,,,,,,,,2,,,52,88
70569,note_on,9,0,1,,,,,,,,,0,,,64,0
70569,note_on,0,0,3,,,,,,,,,2,,,40,0
70569,note_on,9,0,3,,,,,,,,,2,,,52,0
70650,note_on,0,0,3,,,,,,,,,2,,,56,88
70650,note_on,81,0,1,,,,,,,,,0,,,68,101
70650,note_on,81,0,3,,,,,,,,,2,,,44,88
70654,note_on,4,0,1,,,,,,,,,0,,,68,0
70654,note_on,0,0,3,,,,,,,,,2,,,44,0
70654,note_on,4,0,3,,,,,,,,,2,,,56,0
70680,note_on,26,0,3,,,,,,,,,2,,,47,106
70680,note_on,26,0,1,,,,,,,,,0,,,71,127
70680,note_on,0,0,3,,,,,,,,,2,,,59,114
71040,note_on,360,0,3,,,,,,,,,2,,,59,0
71040,note_on,0,0,3,,,,,,,,,2,,,47,0
71040,control_change,0,0,3,,,,,,,,,2,64,0,,
71040,note_on,360,0,1,,,,,,,,,0,,,71,0
71040,control_change,0,0,1,,,,,,,,,0,64,0,,
71040,note_on,0,0,1,,,,,,,,,0,,,76,49
71049,note_on,9,0,1,,,,,,,,,0,,,76,0
71130,note_on,81,0,1,,,,,,,,,0,,,68,49
71130,note_on,0,0,3,,,,,,,,,2,,,64,36
71130,note_on,0,0,3,,,,,,,,,2,,,59,36
71130,note_on,90,0,3,,,,,,,,,2,,,52,36
71130,note_on,0,0,1,,,,,,,,,0,,,71,49
71160,note_on,0,0,3,,,,,,,,,2,,,59,0
71160,note_on,30,0,3,,,,,,,,,2,,,64,0
71160,control_change,0,0,3,,,,,,,,,2,64,127,,
71160,note_on,0,0,3,,,,,,,,,2,,,59,36
71160,note_on,30,0,1,,,,,,,,,0,,,71,0
71160,note_on,0,0,1,,,,,,,,,0,,,68,0
71160,note_on,0,0,1,,,,,,,,,0,,,68,49
71160,note_on,0,0,1,,,,,,,,,0,,,71,49
71160,control_change,0,0,1,,,,,,,,,0,64,127,,
71160,note_on,0,0,3,,,,,,,,,2,,,64,36
71160,note_on,0,0,3,,,,,,,,,2,,,52,36
71160,note_on,0,0,3,,,,,,,,,2,,,52,0
71280,note_on,0,0,3,,,,,,,,,2,,,52,0
71280,note_on,0,0,3,,,,,,,,,2,,,59,0
71280,note_on,120,0,3,,,,,,,,,2,,,64,0
71280,note_on,0,0,1,,,,,,,,,0,,,68,0
71280,note_on,0,0,1,,,,,,,,,0,,,80,49
71280,note_on,120,0,1,,,,,,,,,0,,,71,0
71289,note_on,9,0,1,,,,,,,,,0,,,80,0
71370,note_on,81,0,1,,,,,,,,,0,,,68,49
71370,note_on,0,0,1,,,,,,,,,0,,,71,49
71370,note_on,0,0,3,,,,,,,,,2,,,59,36
71370,note_on,0,0,3,,,,,,,,,2,,,64,36
71370,note_on,90,0,3,,,,,,,,,2,,,52,36
71400,note_on,0,0,3,,,,,,,,,2,,,52,0
71400,note_on,0,0,3,,,,,,,,,2,,,59,0
71400,note_on,30,0,3,,,,,,,,,2,,,64,0
71400,note_on,0,0,3,,,,,,,,,2,,,59,36
71400,note_on,0,0,3,,,,,,,,,2,,,64,36
71400,note_on,0,0,1,,,,,,,,,0,,,71,49
71400,note_on,0,0,3,,,,,,,,,2,,,52,36
71400,note_on,0,0,1,,,,,,,,,0,,,68,49
71400,note_on,30,0,1,,,,,,,,,0,,,71,0
71400,note_on,0,0,1,,,,,,,,,0,,,68,0
71520,note_on,0,0,1,,,,,,,,,0,,,83,49
71520,note_on,0,0,1,,,,,,,,,0,,,68,0
71520,note_on,120,0,1,,,,,,,,,0,,,71,0
71520,note_on,0,0,3,,,,,,,,,2,,,52,0
71520,note_on,0,0,3,,,,,,,,,2,,,59,0
71520,note_on,120,0,3,,,,,,,,,2,,,64,0
71520,control_change,0,0,1,,,,,,,,,0,64,0,,
71520,control_change,0,0,3,,,,,,,,,2,64,0,,
71529,note_on,9,0,1,,,,,,,,,0,,,83,0
71610,note_on,0,0,1,,,,,,,,,0,,,59,88
71610,note_on,0,0,3,,,,,,,,,2,,,49,75
71610,note_on,0,0,1,,,,,,,,,0,,,61,88
71610,note_on,81,0,1,,,,,,,,,0,,,56,88
71610,note_on,0,0,1,,,,,,,,,0,,,65,88
71610,note_on,90,0,3,,,,,,,,,2,,,37,75
71640,note_on,0,0,1,,,,,,,,,0,,,61,0
71640,note_on,0,0,1,,,,,,,,,0,,,59,0
71640,note_on,0,0,1,,,,,,,,,0,,,56,0
71640,note_on,30,0,1,,,,,,,,,0,,,65,0
71640,note_on,0,0,1,,,,,,,,,0,,,59,106
71640,note_on,0,0,1,,,,,,,,,0,,,61,110
71640,note_on,0,0,1,,,,,,,,,0,,,65,114
71640,note_on,0,0,3,,,,,,,,,2,,,49,101
71640,note_on,0,0,3,,,,,,,,,2,,,37,93
71640,note_on,0,0,3,,,,,,,,,2,,,37,0
71640,note_on,0,0,1,,,,,,,,,0,,,56,102
71640,note_on,30,0,3,,,,,,,,,2,,,49,0
72000,note_on,0,0,3,,,,,,,,,2,,,37,0
72000,note_on,360,0,3,,,,,,,,,2,,,49,0
72000,note_on,0,0,3,,,,,,,,,2,,,65,36
72000,note_on,0,0,3,,,,,,,,,2,,,56,36
72000,note_on,0,0,1,,,,,,,,,0,,,56,0
72000,note_on,360,0,1,,,,,,,,,0,,,65,0
72000,note_on,0,0,1,,,,,,,,,0,,,59,0
72000,note_on,0,0,1,,,,,,,,,0,,,61,0
72000,note_on,0,0,1,,,,,,,,,0,,,74,49
72000,note_on,0,0,1,,,,,,,,,0,,,86,49
72009,note_on,9,0,3,,,,,,,,,2,,,65,0
72009,note_on,0,0,1,,,,,,,,,0,,,74,0
72009,note_on,0,0,3,,,,,,,,,2,,,56,0
72009,note_on,9,0,1,,,,,,,,,0,,,86,0
72090,note_on,81,0,3,,,,,,,,,2,,,56,36
72090,note_on,0,0,3,,,,,,,,,2,,,65,36
72090,note_on,81,0,1,,,,,,,,,0,,,74,49
72090,note_on,0,0,1,,,,,,,,,0,,,86,49
72120,note_on,0,0,1,,,,,,,,,0,,,85,49
72120,note_on,30,0,1,,,,,,,,,0,,,86,0
72120,note_on,0,0,1,,,,,,,,,0,,,74,0
72120,note_on,0,0,1,,,,,,,,,0,,,73,49
72120,note_on,0,0,3,,,,,,,,,2,,,66,36
72120,note_on,0,0,3,,,,,,,,,2,,,57,36
72120,note_on,0,0,3,,,,,,,,,2,,,56,0
72120,note_on,30,0,3,,,,,,,,,2,,,65,0
72240,note_on,0,0,3,,,,,,,,,2,,,63,36
72240,note_on,120,0,3,,,,,,,,,2,,,66,0
72240,note_on,0,0,3,,,,,,,,,2,,,57,0
72240,note_on,120,0,1,,,,,,,,,0,,,85,0
72240,note_on,0,0,1,,,,,,,,,0,,,73,0
72240,note_on,0,0,1,,,,,,,,,0,,,72,49
72240,note_on,0,0,1,,,,,,,,,0,,,84,49
72240,note_on,0,0,3,,,,,,,,,2,,,57,36
72249,note_on,9,0,1,,,,,,,,,0,,,84,0
72249,note_on,0,0,3,,,,,,,,,2,,,57,0
72249,note_on,9,0,3,,,,,,,,,2,,,63,0
72249,note_on,0,0,1,,,,,,,,,0,,,72,0
72330,note_on,81,0,1,,,,,,,,,0,,,72,49
72330,note_on,81,0,3,,,,,,,,,2,,,57,36
72330,note_on,0,0,3,,,,,,,,,2,,,63,36
72330,note_on,0,0,1,,,,,,,,,0,,,84,49
72360,note_on,30,0,3,,,,,,,,,2,,,63,0
72360,note_on,0,0,3,,,,,,,,,2,,,57,0
72360,note_on,0,0,3,,,,,,,,,2,,,56,36
72360,note_on,0,0,3,,,,,,,,,2,,,64,36
72360,note_on,0,0,1,,,,,,,,,0,,,83,49
72360,note_on,0,0,1,,,,,,,,,0,,,71,49
72360,note_on,0,0,1,,,,,,,,,0,,,72,0
72360,note_on,30,0,1,,,,,,,,,0,,,84,0
72480,note_on,120,0,1,,,,,,,,,0,,,83,0
72480,note_on,0,0,3,,,,,,,,,2,,,56,0
72480,note_on,0,0,3,,,,,,,,,2,,,61,36
72480,note_on,0,0,3,,,,,,,,,2,,,64,36
72480,note_on,0,0,1,,,,,,,,,0,,,71,0
72480,note_on,0,0,1,,,,,,,,,0,,,82,36
72480,note_on,120,0,3,,,,,,,,,2,,,64,0
72480,note_on,0,0,1,,,,,,,,,0,,,70,36
72489,note_on,9,0,1,,,,,,,,,0,,,82,0
72489,note_on,0,0,3,,,,,,,,,2,,,61,0
72489,note_on,0,0,1,,,,,,,,,0,,,70,0
72489,note_on,9,0,3,,,,,,,,,2,,,64,0
72570,note_on,81,0,1,,,,,,,,,0,,,70,36
72570,note_on,0,0,3,,,,,,,,,2,,,64,36
72570,note_on,0,0,1,,,,,,,,,0,,,82,36
72570,note_on,81,0,3,,,,,,,,,2,,,61,36
72600,note_on,0,0,1,,,,,,,,,0,,,81,36
72600,note_on,0,0,1,,,,,,,,,0,,,69,36
72600,note_on,0,0,1,,,,,,,,,0,,,70,0
72600,note_on,30,0,3,,,,,,,,,2,,,64,0
72600,note_on,30,0,1,,,,,,,,,0,,,82,0
72600,note_on,0,0,3,,,,,,,,,2,,,61,0
72600,note_on,0,0,3,,,,,,,,,2,,,60,36
72600,note_on,0,0,3,,,,,,,,,2,,,64,36
72720,note_on,0,0,1,,,,,,,,,0,,,80,36
72720,note_on,0,0,1,,,,,,,,,0,,,68,36
72720,note_on,0,0,1,,,,,,,,,0,,,69,0
72720,note_on,120,0,3,,,,,,,,,2,,,60,0
72720,note_on,0,0,3,,,,,,,,,2,,,59,36
72720,note_on,120,0,1,,,,,,,,,0,,,81,0
72810,note_on,0,0,1,,,,,,,,,0,,,68,0
72810,control_change,0,0,1,,,,,,,,,0,64,127,,
72810,note_on,0,0,1,,,,,,,,,0,,,78,36
72810,note_on,0,0,1,,,,,,,,,0,,,69,36
72810,note_on,90,0,1,,,,,,,,,0,,,80,0
72810,note_on,0,0,3,,,,,,,,,2,,,59,36
72810,note_on,0,0,3,,,,,,,,,2,,,63,36
72810,note_on,0,0,3,,,,,,,,,2,,,64,0
72810,control_change,0,0,3,,,,,,,,,2,64,127,,
72810,note_on,90,0,3,,,,,,,,,2,,,59,0
72814,note_on,0,0,3,,,,,,,,,2,,,59,0
72814,note_on,0,0,1,,,,,,,,,0,,,69,0
72814,note_on,4,0,1,,,,,,,,,0,,,78,0
72814,note_on,4,0,3,,,,,,,,,2,,,63,0
72840,note_on,26,0,1,,,,,,,,,0,,,68,36
72840,note_on,0,0,1,,,,,,,,,0,,,76,36
72840,note_on,26,0,3,,,,,,,,,2,,,64,36
72960,note_on,0,0,1,,,,,,,,,0,,,64,101
72960,note_on,0,0,1,,,,,,,,,0,,,68,0
72960,note_on,120,0,1,,,,,,,,,0,,,76,0
72960,note_on,0,0,3,,,,,,,,,2,,,40,88
72960,note_on,0,0,3,,,,,,,,,2,,,52,88
72960,note_on,120,0,3,,,,,,,,,2,,,64,0
73050,note_on,0,0,3,,,,,,,,,2,,,44,88
73050,note_on,0,0,3,,,,,,,,,2,,,56,88
73050,note_on,90,0,3,,,,,,,,,2,,,52,0
73050,note_on,90,0,1,,,,,,,,,0,,,64,0
73050,note_on,0,0,1,,,,,,,,,0,,,68,101
73050,note_on,0,0,3,,,,,,,,,2,,,40,0
73080,note_on,0,0,1,,,,,,,,,0,,,71,127
73080,note_on,30,0,1,,,,,,,,,0,,,68,0
73080,note_on,16080,0,2,,,,,,,,,1,,,71,88
73080,note_on,30,0,3,,,,,,,,,2,,,56,0
73080,note_on,0,0,3,,,,,,,,,2,,,44,0
73080,note_on,0,0,3,,,,,,,,,2,,,47,88
73080,note_on,0,0,3,,,,,,,,,2,,,59,88
73080,note_on,3840,0,4,,,,,,,,,3,,,59,88
73440,note_on,360,0,1,,,,,,,,,0,,,71,0
73440,note_on,360,0,3,,,,,,,,,2,,,59,0
73440,note_on,0,0,3,,,,,,,,,2,,,47,0
73440,note_on,0,0,3,,,,,,,,,2,,,64,36
73440,note_on,0,0,1,,,,,,,,,0,,,80,36
73449,note_on,9,0,1,,,,,,,,,0,,,80,0
73530,note_on,0,0,1,,,,,,,,,0,,,81,36
73530,control_change,81,0,1,,,,,,,,,0,64,0,,
73534,note_on,4,0,1,,,,,,,,,0,,,81,0
73560,control_change,120,0,3,,,,,,,,,2,64,0,,
73560,control_change,26,0,1,,,,,,,,,0,64,127,,
73560,note_on,0,0,1,,,,,,,,,0,,,83,36
73680,control_change,0,0,3,,,,,,,,,2,64,127,,
73680,note_on,0,0,3,,,,,,,,,2,,,61,36
73680,note_on,120,0,3,,,,,,,,,2,,,64,0
73680,note_on,120,0,1,,,,,,,,,0,,,83,0
73680,note_on,0,0,1,,,,,,,,,0,,,78,36
73689,note_on,9,0,1,,,,,,,,,0,,,78,0
73770,note_on,81,0,1,,,,,,,,,0,,,80,36
73774,note_on,4,0,1,,,,,,,,,0,,,80,0
73800,note_on,26,0,1,,,,,,,,,0,,,81,36
73920,note_on,0,0,3,,,,,,,,,2,,,63,36
73920,note_on,240,0,3,,,,,,,,,2,,,61,0
73920,note_on,840,0,2,,,,,,,,,1,,,71,0
73920,control_change,0,0,2,,,,,,,,,1,64,127,,
73920,note_on,0,0,2,,,,,,,,,1,,,71,36
73920,note_on,0,0,1,,,,,,,,,0,,,80,36
73920,note_on,120,0,1,,,,,,,,,0,,,81,0
73929,note_on,9,0,2,,,,,,,,,1,,,71,0
73929,note_on,9,0,1,,,,,,,,,0,,,80,0
74010,note_on,81,0,1,,,,,,,,,0,,,78,36
74010,note_on,81,0,2,,,,,,,,,1,,,69,36
74014,note_on,4,0,2,,,,,,,,,1,,,69,0
74014,note_on,4,0,1,,,,,,,,,0,,,78,0
74040,note_on,120,0,3,,,,,,,,,2,,,63,0
74040,control_change,0,0,3,,,,,,,,,2,64,0,,
74040,control_change,26,0,2,,,,,,,,,1,64,0,,
74040,note_on,960,0,4,,,,,,,,,3,,,59,0
74040,control_change,26,0,1,,,,,,,,,0,64,0,,
74040,note_on,0,0,1,,,,,,,,,0,,,76,36
74040,note_on,0,0,2,,,,,,,,,1,,,68,36
74040,note_on,0,0,3,,,,,,,,,2,,,64,36
74160,note_on,120,0,3,,,,,,,,,2,,,64,0
74160,control_change,0,0,3,,,,,,,,,2,64,127,,
74160,note_on,0,0,3,,,,,,,,,2,,,52,36
74160,note_on,120,0,1,,,,,,,,,0,,,76,0
74160,control_change,0,0,1,,,,,,,,,0,64,127,,
74160,note_on,0,0,1,,,,,,,,,0,,,64,36
74160,note_on,120,0,2,,,,,,,,,1,,,68,0
74169,note_on,9,0,3,,,,,,,,,2,,,52,0
74169,note_on,9,0,1,,,,,,,,,0,,,64,0
74250,note_on,81,0,3,,,,,,,,,2,,,56,36
74250,note_on,81,0,1,,,,,,,,,0,,,68,36
74254,note_on,4,0,1,,,,,,,,,0,,,68,0
74254,note_on,4,0,3,,,,,,,,,2,,,56,0
74280,note_on,26,0,3,,,,,,,,,2,,,59,36
74280,note_on,26,0,1,,,,,,,,,0,,,71,36
74400,note_on,120,0,3,,,,,,,,,2,,,59,0
74400,note_on,0,0,3,,,,,,,,,2,,,52,36
74400,note_on,0,0,1,,,,,,,,,0,,,64,36
74400,note_on,120,0,1,,,,,,,,,0,,,71,0
74409,note_on,9,0,3,,,,,,,,,2,,,52,0
74409,note_on,9,0,1,,,,,,,,,0,,,64,0
74490,note_on,81,0,3,,,,,,,,,2,,,56,36
74490,note_on,81,0,1,,,,,,,,,0,,,68,36
74494,note_on,4,0,1,,,,,,,,,0,,,68,0
74494,note_on,4,0,3,,,,,,,,,2,,,56,0
74520,note_on,26,0,1,,,,,,,,,0,,,73,49
74520,note_on,26,0,3,,,,,,,,,2,,,61,36
74640,note_on,0,0,1,,,,,,,,,0,,,64,62
74640,note_on,120,0,1,,,,,,,,,0,,,73,0
74640,note_on,120,0,3,,,,,,,,,2,,,61,0
74640,note_on,0,0,3,,,,,,,,,2,,,52,49
74649,note_on,9,0,1,,,,,,,,,0,,,64,0
74649,note_on,9,0,3,,,,,,,,,2,,,52,0
74730,note_on,81,0,1,,,,,,,,,0,,,68,62
74730,note_on,81,0,3,,,,,,,,,2,,,56,49
74734,note_on,4,0,1,,,,,,,,,0,,,68,0
74734,note_on,4,0,3,,,,,,,,,2,,,56,0
74760,note_on,26,0,1,,,,,,,,,0,,,74,62
74760,note_on,26,0,3,,,,,,,,,2,,,62,49
74880,note_on,120,0,1,,,,,,,,,0,,,74,0
74880,note_on,0,0,1,,,,,,,,,0,,,64,75
74880,note_on,0,0,3,,,,,,,,,2,,,52,62
74880,note_on,120,0,3,,,,,,,,,2,,,62,0
74889,note_on,9,0,3,,,,,,,,,2,,,52,0
74889,note_on,9,0,1,,,,,,,,,0,,,64,0
74970,note_on,81,0,3,,,,,,,,,2,,,56,62
74970,note_on,81,0,1,,,,,,,,,0,,,68,75
74974,note_on,4,0,1,,,,,,,,,0,,,68,0
74974,note_on,4,0,3,,,,,,,,,2,,,56,0
75000,note_on,26,0,3,,,,,,,,,2,,,65,75
75000,note_on,26,0,1,,,,,,,,,0,,,77,88
75120,control_change,0,0,1,,,,,,,,,0,64,0,,
75120,control_change,0,0,3,,,,,,,,,2,64,0,,
75120,note_on,120,0,3,,,,,,,,,2,,,65,0
75120,note_on,120,0,1,,,,,,,,,0,,,77,0
75360,control_change,240,0,1,,,,,,,,,0,64,127,,
75360,note_on,0,0,1,,,,,,,,,0,,,69,115
75360,note_on,0,0,1,,,,,,,,,0,,,72,119
75360,note_on,0,0,1,,,,,,,,,0,,,77,123
75360,note_on,0,0,1,,,,,,,,,0,,,81,127
75360,control_change,240,0,3,,,,,,,,,2,64,127,,
75360,note_on,0,0,3,,,,,,,,,2,,,41,106
75360,note_on,0,0,3,,,,,,,,,2,,,53,114
75450,note_on,0,0,1,,,,,,,,,0,,,69,0
75450,note_on,0,0,1,,,,,,,,,0,,,72,0
75450,note_on,0,0,1,,,,,,,,,0,,,77,0
75450,note_on,0,0,1,,,,,,,,,0,,,69,101
75450,note_on,0,0,1,,,,,,,,,0,,,72,101
75450,note_on,0,0,1,,,,,,,,,0,,,77,101
75450,note_on,0,0,1,,,,,,,,,0,,,81,101
75450,note_on,90,0,1,,,,,,,,,0,,,81,0
75450,note_on,0,0,3,,,,,,,,,2,,,57,88
75450,note_on,0,0,3,,,,,,,,,2,,,45,88
75450,note_on,90,0,3,,,,,,,,,2,,,53,0
75450,note_on,0,0,3,,,,,,,,,2,,,41,0
75480,note_on,0,0,1,,,,,,,,,0,,,81,101
75480,note_on,0,0,3,,,,,,,,,2,,,60,88
75480,note_on,0,0,3,,,,,,,,,2,,,48,88
75480,control_change,0,0,3,,,,,,,,,2,64,0,,
75480,control_change,0,0,1,,,,,,,,,0,64,0,,
75480,note_on,0,0,3,,,,,,,,,2,,,45,0
75480,note_on,0,0,1,,,,,,,,,0,,,69,0
75480,note_on,0,0,1,,,,,,,,,0,,,72,0
75480,note_on,0,0,1,,,,,,,,,0,,,77,0
75480,note_on,0,0,1,,,,,,,,,0,,,69,101
75480,note_on,30,0,3,,,,,,,,,2,,,57,0
75480,note_on,0,0,1,,,,,,,,,0,,,77,101
75480,note_on,30,0,1,,,,,,,,,0,,,81,0
75480,note_on,0,0,1,,,,,,,,,0,,,72,101
75840,note_on,0,0,1,,,,,,,,,0,,,76,123
75840,note_on,0,0,1,,,,,,,,,0,,,69,0
75840,note_on,0,0,1,,,,,,,,,0,,,72,0
75840,note_on,0,0,1,,,,,,,,,0,,,77,0
75840,note_on,0,0,1,,,,,,,,,0,,,67,115
75840,note_on,0,0,1,,,,,,,,,0,,,72,119
75840,note_on,0,0,1,,,,,,,,,0,,,79,127
75840,control_change,0,0,1,,,,,,,,,0,64,127,,
75840,note_on,360,0,3,,,,,,,,,2,,,60,0
75840,note_on,0,0,3,,,,,,,,,2,,,48,0
75840,control_change,0,0,3,,,,,,,,,2,64,127,,
75840,note_on,0,0,3,,,,,,,,,2,,,36,106
75840,note_on,0,0,3,,,,,,,,,2,,,48,114
75840,note_on,360,0,1,,,,,,,,,0,,,81,0
75930,note_on,90,0,3,,,,,,,,,2,,,48,0
75930,note_on,0,0,3,,,,,,,,,2,,,36,0
75930,note_on,0,0,3,,,,,,,,,2,,,40,88
75930,note_on,0,0,1,,,,,,,,,0,,,76,101
75930,note_on,0,0,1,,,,,,,,,0,,,79,101
75930,note_on,0,0,1,,,,,,,,,0,,,72,101
75930,note_on,0,0,1,,,,,,,,,0,,,67,101
75930,note_on,0,0,1,,,,,,,,,0,,,76,0
75930,note_on,0,0,1,,,,,,,,,0,,,72,0
75930,note_on,0,0,1,,,,,,,,,0,,,67,0
75930,note_on,90,0,1,,,,,,,,,0,,,79,0
75930,note_on,0,0,3,,,,,,,,,2,,,52,88
75960,note_on,0,0,3,,,,,,,,,2,,,43,88
75960,control_change,0,0,3,,,,,,,,,2,64,0,,
75960,note_on,0,0,3,,,,,,,,,2,,,55,88
75960,note_on,30,0,3,,,,,,,,,2,,,52,0
75960,note_on,0,0,3,,,,,,,,,2,,,40,0
75960,note_on,30,0,1,,,,,,,,,0,,,79,0
75960,note_on,0,0,1,,,,,,,,,0,,,67,0
75960,note_on,0,0,1,,,,,,,,,0,,,72,0
75960,note_on,0,0,1,,,,,,,,,0,,,76,0
75960,note_on,0,0,1,,,,,,,,,0,,,67,101
75960,note_on,0,0,1,,,,,,,,,0,,,72,101
75960,note_on,0,0,1,,,,,,,,,0,,,76,101
75960,note_on,0,0,1,,,,,,,,,0,,,79,101
75960,control_change,0,0,1,,,,,,,,,0,64,0,,
76320,control_change,0,0,3,,,,,,,,,2,64,127,,
76320,note_on,0,0,3,,,,,,,,,2,,,55,36
76320,control_change,0,0,1,,,,,,,,,0,64,127,,
76320,note_on,0,0,1,,,,,,,,,0,,,77,36
76320,note_on,0,0,1,,,,,,,,,0,,,72,0
76320,note_on,0,0,3,,,,,,,,,2,,,43,0
76320,note_on,0,0,1,,,,,,,,,0,,,67,0
76320,note_on,360,0,1,,,,,,,,,0,,,79,0
76320,note_on,0,0,1,,,,,,,,,0,,,76,0
76320,note_on,360,0,3,,,,,,,,,2,,,55,0
76329,note_on,9,0,1,,,,,,,,,0,,,77,0
76329,note_on,9,0,3,,,,,,,,,2,,,55,0
76410,note_on,81,0,1,,,,,,,,,0,,,74,36
76410,note_on,81,0,3,,,,,,,,,2,,,59,36
76414,note_on,4,0,3,,,,,,,,,2,,,59,0
76414,note_on,4,0,1,,,,,,,,,0,,,74,0
76440,note_on,0,0,1,,,,,,,,,0,,,68,36
76440,control_change,26,0,1,,,,,,,,,0,64,0,,
76440,control_change,26,0,3,,,,,,,,,2,64,0,,
76440,note_on,0,0,3,,,,,,,,,2,,,65,36
76560,note_on,0,0,1,,,,,,,,,0,,,76,36
76560,control_change,0,0,1,,,,,,,,,0,64,127,,
76560,note_on,120,0,1,,,,,,,,,0,,,68,0
76560,control_change,0,0,3,,,,,,,,,2,64,127,,
76560,note_on,0,0,3,,,,,,,,,2,,,55,36
76560,note_on,120,0,3,,,,,,,,,2,,,65,0
76569,note_on,9,0,3,,,,,,,,,2,,,55,0
76569,note_on,9,0,1,,,,,,,,,0,,,76,0
76620,set_tempo,9300,1,0,,,,,,512821,,,,,,,
76650,note_on,81,0,3,,,,,,,,,2,,,60,36
76650,note_on,81,0,1,,,,,,,,,0,,,72,36
76654,note_on,4,0,3,,,,,,,,,2,,,60,0
76654,note_on,4,0,1,,,,,,,,,0,,,72,0
76680,control_change,26,0,3,,,,,,,,,2,64,0,,
76680,note_on,0,0,3,,,,,,,,,2,,,64,36
76680,note_on,0,0,1,,,,,,,,,0,,,67,36
76680,control_change,26,0,1,,,,,,,,,0,64,0,,
76680,set_tempo,60,1,0,,,,,,526316,,,,,,,
76740,set_tempo,60,1,0,,,,,,540541,,,,,,,
76800,note_on,120,0,3,,,,,,,,,2,,,64,0
76800,set_tempo,60,1,0,,,,,,560748,,,,,,,
76800,note_on,0,0,3,,,,,,,,,2,,,55,36
76800,control_change,0,0,3,,,,,,,,,2,64,127,,
76800,note_on,120,0,1,,,,,,,,,0,,,67,0
76800,control_change,0,0,1,,,,,,,,,0,64,127,,
76800,note_on,0,0,1,,,,,,,,,0,,,74,36
76809,note_on,9,0,1,,,,,,,,,0,,,74,0
76809,note_on,9,0,3,,,,,,,,,2,,,55,0
76860,set_tempo,60,1,0,,,,,,576923,,,,,,,
76890,note_on,81,0,1,,,,,,,,,0,,,71,36
76890,note_on,81,0,3,,,,,,,,,2,,,62,36
76894,note_on,4,0,3,,,,,,,,,2,,,62,0
76894,note_on,4,0,1,,,,,,,,,0,,,71,0
76920,note_on,0,0,1,,,,,,,,,0,,,65,62
76920,note_on,0,0,1,,,,,,,,,0,,,59,54
76920,control_change,26,0,1,,,,,,,,,0,64,0,,
76920,note_on,26,0,3,,,,,,,,,2,,,68,62
76920,set_tempo,0,1,0,,,,,,594059,,,,,,,
76920,time_signature,60,1,0,5,4,24,8,,,,,,,,,
76980,set_tempo,60,1,0,,,,,,612245,,,,,,,
77040,set_tempo,60,1,0,,,,,,638298,,,,,,,
77160,note_on,0,0,3,,,,,,,,,2,,,67,36
77160,control_change,0,0,3,,,,,,,,,2,64,0,,
77160,note_on,240,0,3,,,,,,,,,2,,,68,0
77280,note_on,360,0,1,,,,,,,,,0,,,65,0
77280,note_on,120,0,3,,,,,,,,,2,,,67,0
77280,note_on,0,0,1,,,,,,,,,0,,,59,0
77520,control_change,240,0,3,,,,,,,,,2,64,127,,
77520,note_on,0,0,3,,,,,,,,,2,,,48,36
77520,key_signature,0,1,0,,,,,C,,,,,,,,
77520,set_tempo,0,1,0,,,,,,500000,,,,,,,
77520,time_signature,480,1,0,4,4,24,8,,,,,,,,,
77559,note_on,39,0,3,,,,,,,,,2,,,60,36
77560,note_on,1,0,3,,,,,,,,,2,,,48,0
77599,note_on,39,0,3,,,,,,,,,2,,,60,0
77600,note_on,1,0,3,,,,,,,,,2,,,48,36
77640,note_on,0,0,3,,,,,,,,,2,,,52,36
77640,note_on,40,0,3,,,,,,,,,2,,,48,0
77679,note_on,39,0,3,,,,,,,,,2,,,60,36
77680,note_on,1,0,3,,,,,,,,,2,,,52,0
77719,note_on,39,0,3,,,,,,,,,2,,,60,0
77720,note_on,1,0,3,,,,,,,,,2,,,52,36
77760,note_on,0,0,3,,,,,,,,,2,,,55,36
77760,note_on,40,0,3,,,,,,,,,2,,,52,0
77799,note_on,39,0,3,,,,,,,,,2,,,60,36
77800,note_on,1,0,3,,,,,,,,,2,,,55,0
77839,note_on,39,0,3,,,,,,,,,2,,,60,0
77840,note_on,1,0,3,,,,,,,,,2,,,55,36
77880,control_change,0,0,3,,,,,,,,,2,64,0,,
77880,note_on,40,0,3,,,,,,,,,2,,,55,0
77880,note_on,0,0,3,,,,,,,,,2,,,56,36
77880,note_on,0,0,1,,,,,,,,,0,,,75,75
77880,note_on,600,0,1,,,,,,,,,0,,,63,67
77919,note_on,39,0,3,,,,,,,,,2,,,60,36
77920,note_on,1,0,3,,,,,,,,,2,,,56,0
77959,note_on,39,0,3,,,,,,,,,2,,,60,0
77960,note_on,1,0,3,,,,,,,,,2,,,56,36
77970,note_on,0,0,1,,,,,,,,,0,,,75,49
77970,note_on,0,0,1,,,,,,,,,0,,,63,49
77970,note_on,0,0,1,,,,,,,,,0,,,63,0
77970,note_on,90,0,1,,,,,,,,,0,,,75,0
78000,note_on,0,0,3,,,,,,,,,2,,,55,36
78000,control_change,0,0,1,,,,,,,,,0,64,127,,
78000,note_on,0,0,1,,,,,,,,,0,,,76,49
78000,note_on,40,0,3,,,,,,,,,2,,,56,0
78000,note_on,0,0,1,,,,,,,,,0,,,63,0
78000,note_on,30,0,1,,,,,,,,,0,,,75,0
78000,control_change,0,0,3,,,,,,,,,2,64,127,,
78000,note_on,0,0,1,,,,,,,,,0,,,64,49
78039,note_on,39,0,3,,,,,,,,,2,,,60,36
78040,note_on,1,0,3,,,,,,,,,2,,,55,0
78079,note_on,39,0,3,,,,,,,,,2,,,60,0
78080,note_on,1,0,3,,,,,,,,,2,,,55,36
78120,note_on,0,0,1,,,,,,,,,0,,,79,49
78120,note_on,120,0,1,,,,,,,,,0,,,76,0
78120,note_on,0,0,1,,,,,,,,,0,,,64,0
78120,note_on,0,0,1,,,,,,,,,0,,,67,49
78120,note_on,0,0,3,,,,,,,,,2,,,52,36
78120,note_on,40,0,3,,,,,,,,,2,,,55,0
78159,note_on,39,0,3,,,,,,,,,2,,,60,36
78160,note_on,1,0,3,,,,,,,,,2,,,52,0
78199,note_on,39,0,3,,,,,,,,,2,,,60,0
78200,note_on,1,0,3,,,,,,,,,2,,,52,36
78240,note_on,0,0,3,,,,,,,,,2,,,48,36
78240,note_on,0,0,1,,,,,,,,,0,,,84,49
78240,note_on,0,0,1,,,,,,,,,0,,,72,49
78240,note_on,0,0,1,,,,,,,,,0,,,67,0
78240,note_on,120,0,1,,,,,,,,,0,,,79,0
78240,note_on,40,0,3,,,,,,,,,2,,,52,0
78279,note_on,39,0,3,,,,,,,,,2,,,60,36
78280,note_on,1,0,3,,,,,,,,,2,,,48,0
78319,note_on,39,0,3,,,,,,,,,2,,,60,0
78320,note_on,1,0,3,,,,,,,,,2,,,48,36
78360,note_on,120,0,1,,,,,,,,,0,,,84,0
78360,note_on,0,0,3,,,,,,,,,2,,,51,36
78360,control_change,0,0,3,,,,,,,,,2,64,0,,
78360,note_on,40,0,3,,,,,,,,,2,,,48,0
78360,note_on,0,0,1,,,,,,,,,0,,,68,67
78360,note_on,0,0,1,,,,,,,,,0,,,72,0
78360,note_on,0,0,1,,,,,,,,,0,,,80,75
78360,control_change,0,0,1,,,,,,,,,0,64,0,,
78399,note_on,39,0,3,,,,,,,,,2,,,60,36
78400,note_on,1,0,3,,,,,,,,,2,,,51,0
78439,note_on,39,0,3,,,,,,,,,2,,,60,0
78440,note_on,1,0,3,,,,,,,,,2,,,51,36
78450,note_on,0,0,1,,,,,,,,,0,,,80,49
78450,note_on,0,0,1,,,,,,,,,0,,,68,0
78450,note_on,0,0,1,,,,,,,,,0,,,68,49
78450,note_on,90,0,1,,,,,,,,,0,,,80,0
78480,note_on,0,0,1,,,,,,,,,0,,,68,0
78480,note_on,30,0,1,,,,,,,,,0,,,80,0
78480,control_change,0,0,1,,,,,,,,,0,64,127,,
78480,note_on,0,0,1,,,,,,,,,0,,,79,49
78480,note_on,0,0,1,,,,,,,,,0,,,67,49
78480,note_on,40,0,3,,,,,,,,,2,,,51,0
78480,note_on,0,0,3,,,,,,,,,2,,,52,36
78480,control_change,0,0,3,,,,,,,,,2,64,127,,
78519,note_on,39,0,3,,,,,,,,,2,,,60,36
78520,note_on,1,0,3,,,,,,,,,2,,,52,0
78559,note_on,39,0,3,,,,,,,,,2,,,60,0
78560,note_on,1,0,3,,,,,,,,,2,,,52,36
78600,note_on,40,0,3,,,,,,,,,2,,,52,0
78600,note_on,0,0,3,,,,,,,,,2,,,55,36
78600,note_on,120,0,1,,,,,,,,,0,,,79,0
78600,note_on,0,0,1,,,,,,,,,0,,,67,0
78600,note_on,0,0,1,,,,,,,,,0,,,76,49
78639,note_on,39,0,3,,,,,,,,,2,,,60,36
78640,note_on,1,0,3,,,,,,,,,2,,,55,0
78679,note_on,39,0,3,,,,,,,,,2,,,60,0
78680,note_on,1,0,3,,,,,,,,,2,,,55,36
78720,note_on,0,0,1,,,,,,,,,0,,,72,49
78720,note_on,120,0,1,,,,,,,,,0,,,76,0
78720,note_on,0,0,3,,,,,,,,,2,,,60,36
78720,note_on,40,0,3,,,,,,,,,2,,,55,0
78759,note_on,39,0,3,,,,,,,,,2,,,48,36
78760,note_on,1,0,3,,,,,,,,,2,,,60,0
78799,note_on,39,0,3,,,,,,,,,2,,,48,0
78800,note_on,1,0,3,,,,,,,,,2,,,60,36
78840,note_on,40,0,3,,,,,,,,,2,,,60,0
78840,note_on,0,0,1,,,,,,,,,0,,,75,75
78840,note_on,0,0,1,,,,,,,,,0,,,63,67
78840,control_change,0,0,1,,,,,,,,,0,64,0,,
78840,note_on,120,0,1,,,,,,,,,0,,,72,0
78840,note_on,0,0,3,,,,,,,,,2,,,56,36
78840,control_change,0,0,3,,,,,,,,,2,64,0,,
78879,note_on,39,0,3,,,,,,,,,2,,,60,36
78880,note_on,1,0,3,,,,,,,,,2,,,56,0
78919,note_on,39,0,3,,,,,,,,,2,,,60,0
78920,note_on,1,0,3,,,,,,,,,2,,,56,36
78930,note_on,90,0,1,,,,,,,,,0,,,75,0
78930,note_on,0,0,1,,,,,,,,,0,,,63,0
78930,note_on,0,0,1,,,,,,,,,0,,,63,49
78930,note_on,0,0,1,,,,,,,,,0,,,75,49
78960,note_on,0,0,3,,,,,,,,,2,,,55,36
78960,note_on,40,0,3,,,,,,,,,2,,,56,0
78960,control_change,0,0,3,,,,,,,,,2,64,127,,
78960,note_on,0,0,1,,,,,,,,,0,,,63,0
78960,control_change,0,0,1,,,,,,,,,0,64,127,,
78960,note_on,0,0,1,,,,,,,,,0,,,76,49
78960,note_on,0,0,1,,,,,,,,,0,,,64,49
78960,note_on,30,0,1,,,,,,,,,0,,,75,0
78999,note_on,39,0,3,,,,,,,,,2,,,60,36
79000,note_on,1,0,3,,,,,,,,,2,,,55,0
79039,note_on,39,0,3,,,,,,,,,2,,,60,0
79040,note_on,1,0,3,,,,,,,,,2,,,55,36
79080,note_on,40,0,3,,,,,,,,,2,,,55,0
79080,note_on,120,0,1,,,,,,,,,0,,,76,0
79080,note_on,0,0,1,,,,,,,,,0,,,64,0
79080,note_on,0,0,1,,,,,,,,,0,,,67,49
79080,note_on,0,0,3,,,,,,,,,2,,,52,36
79080,note_on,0,0,1,,,,,,,,,0,,,79,49
79119,note_on,39,0,3,,,,,,,,,2,,,60,36
79120,note_on,1,0,3,,,,,,,,,2,,,52,0
79159,note_on,39,0,3,,,,,,,,,2,,,60,0
79160,note_on,1,0,3,,,,,,,,,2,,,52,36
79200,note_on,0,0,1,,,,,,,,,0,,,84,49
79200,note_on,0,0,1,,,,,,,,,0,,,72,49
79200,note_on,0,0,1,,,,,,,,,0,,,67,0
79200,note_on,120,0,1,,,,,,,,,0,,,79,0
79200,note_on,40,0,3,,,,,,,,,2,,,52,0
79200,note_on,0,0,3,,,,,,,,,2,,,48,36
79239,note_on,39,0,3,,,,,,,,,2,,,60,36
79240,note_on,1,0,3,,,,,,,,,2,,,48,0
79279,note_on,39,0,3,,,,,,,,,2,,,60,0
79280,note_on,1,0,3,,,,,,,,,2,,,48,36
79320,note_on,40,0,3,,,,,,,,,2,,,48,0
79320,note_on,0,0,3,,,,,,,,,2,,,51,36
79320,control_change,0,0,3,,,,,,,,,2,64,0,,
79320,note_on,0,0,1,,,,,,,,,0,,,72,0
79320,control_change,0,0,1,,,,,,,,,0,64,0,,
79320,note_on,0,0,1,,,,,,,,,0,,,92,75
79320,note_on,0,0,1,,,,,,,,,0,,,80,67
79320,note_on,120,0,1,,,,,,,,,0,,,84,0
79359,note_on,39,0,3,,,,,,,,,2,,,60,36
79360,note_on,1,0,3,,,,,,,,,2,,,51,0
79399,note_on,39,0,3,,,,,,,,,2,,,60,0
79400,note_on,1,0,3,,,,,,,,,2,,,51,36
79410,note_on,0,0,1,,,,,,,,,0,,,92,49
79410,note_on,90,0,1,,,,,,,,,0,,,92,0
79410,note_on,0,0,1,,,,,,,,,0,,,80,0
79410,note_on,0,0,1,,,,,,,,,0,,,80,49
79440,note_on,40,0,3,,,,,,,,,2,,,51,0
79440,control_change,0,0,3,,,,,,,,,2,64,127,,
79440,note_on,0,0,3,,,,,,,,,2,,,52,36
79440,note_on,30,0,1,,,,,,,,,0,,,92,0
79440,note_on,0,0,1,,,,,,,,,0,,,80,0
79440,note_on,0,0,1,,,,,,,,,0,,,79,49
79440,note_on,0,0,1,,,,,,,,,0,,,91,49
79440,control_change,0,0,1,,,,,,,,,0,64,127,,
79479,note_on,39,0,3,,,,,,,,,2,,,60,36
79480,note_on,1,0,3,,,,,,,,,2,,,52,0
79519,note_on,39,0,3,,,,,,,,,2,,,60,0
79520,note_on,1,0,3,,,,,,,,,2,,,52,36
79560,note_on,120,0,1,,,,,,,,,0,,,91,0
79560,note_on,40,0,3,,,,,,,,,2,,,52,0
79560,note_on,0,0,3,,,,,,,,,2,,,55,36
79560,note_on,0,0,1,,,,,,,,,0,,,79,0
79560,note_on,0,0,1,,,,,,,,,0,,,76,49
79560,note_on,0,0,1,,,,,,,,,0,,,88,49
79599,note_on,39,0,3,,,,,,,,,2,,,60,36
79600,note_on,1,0,3,,,,,,,,,2,,,55,0
79639,note_on,39,0,3,,,,,,,,,2,,,60,0
79640,note_on,1,0,3,,,,,,,,,2,,,55,36
79680,note_on,40,0,3,,,,,,,,,2,,,55,0
79680,note_on,120,0,1,,,,,,,,,0,,,88,0
79680,note_on,0,0,1,,,,,,,,,0,,,76,0
79680,note_on,0,0,1,,,,,,,,,0,,,72,49
79680,note_on,0,0,1,,,,,,,,,0,,,84,49
79680,note_on,0,0,3,,,,,,,,,2,,,60,36
79719,note_on,39,0,3,,,,,,,,,2,,,48,36
79720,note_on,1,0,3,,,,,,,,,2,,,60,0
79759,note_on,39,0,3,,,,,,,,,2,,,48,0
79760,note_on,1,0,3,,,,,,,,,2,,,60,36
79800,note_on,0,0,1,,,,,,,,,0,,,74,67
79800,note_on,40,0,3,,,,,,,,,2,,,60,0
79800,control_change,0,0,3,,,,,,,,,2,64,0,,
79800,note_on,0,0,3,,,,,,,,,2,,,53,36
79800,note_on,120,0,1,,,,,,,,,0,,,84,0
79800,note_on,0,0,1,,,,,,,,,0,,,72,0
79800,control_change,0,0,1,,,,,,,,,0,64,0,,
79800,note_on,0,0,1,,,,,,,,,0,,,86,75
79839,note_on,39,0,3,,,,,,,,,2,,,62,36
79840,note_on,1,0,3,,,,,,,,,2,,,53,0
79879,note_on,39,0,3,,,,,,,,,2,,,62,0
79880,note_on,1,0,3,,,,,,,,,2,,,53,36
79890,note_on,0,0,1,,,,,,,,,0,,,86,49
79890,note_on,0,0,1,,,,,,,,,0,,,74,0
79890,note_on,90,0,1,,,,,,,,,0,,,86,0
79890,note_on,0,0,1,,,,,,,,,0,,,74,49
79920,control_change,0,0,3,,,,,,,,,2,64,127,,
79920,note_on,40,0,3,,,,,,,,,2,,,53,0
79920,note_on,0,0,3,,,,,,,,,2,,,54,49
79920,note_on,0,0,1,,,,,,,,,0,,,74,0
79920,note_on,0,0,1,,,,,,,,,0,,,84,62
79920,note_on,0,0,1,,,,,,,,,0,,,72,62
79920,note_on,30,0,1,,,,,,,,,0,,,86,0
79959,note_on,39,0,3,,,,,,,,,2,,,62,49
79960,note_on,1,0,3,,,,,,,,,2,,,54,0
79999,note_on,39,0,3,,,,,,,,,2,,,62,0
80000,note_on,1,0,3,,,,,,,,,2,,,54,49
80040,note_on,0,0,1,,,,,,,,,0,,,83,62
80040,note_on,0,0,1,,,,,,,,,0,,,71,62
80040,note_on,120,0,1,,,,,,,,,0,,,84,0
80040,note_on,40,0,3,,,,,,,,,2,,,54,0
80040,control_change,0,0,3,,,,,,,,,2,64,0,,
80040,note_on,0,0,1,,,,,,,,,0,,,72,0
80040,note_on,0,0,3,,,,,,,,,2,,,55,49
80079,note_on,39,0,3,,,,,,,,,2,,,62,49
80080,note_on,1,0,3,,,,,,,,,2,,,55,0
80119,note_on,39,0,3,,,,,,,,,2,,,62,0
80120,note_on,1,0,3,,,,,,,,,2,,,55,49
80160,note_on,0,0,1,,,,,,,,,0,,,77,62
80160,note_on,0,0,1,,,,,,,,,0,,,71,0
80160,note_on,120,0,1,,,,,,,,,0,,,83,0
80160,note_on,0,0,3,,,,,,,,,2,,,56,49
80160,note_on,40,0,3,,,,,,,,,2,,,55,0
80160,note_on,0,0,1,,,,,,,,,0,,,89,62
80160,control_change,0,0,3,,,,,,,,,2,64,127,,
80199,note_on,39,0,3,,,,,,,,,2,,,62,49
80200,note_on,1,0,3,,,,,,,,,2,,,56,0
80239,note_on,39,0,3,,,,,,,,,2,,,62,0
80240,note_on,1,0,3,,,,,,,,,2,,,56,49
80280,note_on,120,0,1,,,,,,,,,0,,,89,0
80280,note_on,40,0,3,,,,,,,,,2,,,56,0
80280,note_on,0,0,1,,,,,,,,,0,,,76,80
80280,note_on,0,0,1,,,,,,,,,0,,,88,88
80280,note_on,0,0,3,,,,,,,,,2,,,55,49
80280,control_change,0,0,3,,,,,,,,,2,64,0,,
80280,note_on,0,0,1,,,,,,,,,0,,,77,0
80319,note_on,39,0,3,,,,,,,,,2,,,64,49
80320,note_on,1,0,3,,,,,,,,,2,,,55,0
80359,note_on,39,0,3,,,,,,,,,2,,,64,0
80360,note_on,1,0,3,,,,,,,,,2,,,55,49
80370,note_on,90,0,1,,,,,,,,,0,,,88,0
80370,note_on,0,0,1,,,,,,,,,0,,,76,0
80370,note_on,0,0,1,,,,,,,,,0,,,76,62
80370,note_on,0,0,1,,,,,,,,,0,,,88,62
80400,control_change,0,0,3,,,,,,,,,2,64,127,,
80400,note_on,0,0,3,,,,,,,,,2,,,56,62
80400,note_on,40,0,3,,,,,,,,,2,,,55,0
80400,note_on,0,0,1,,,,,,,,,0,,,86,75
80400,note_on,0,0,1,,,,,,,,,0,,,74,75
80400,note_on,0,0,1,,,,,,,,,0,,,76,0
80400,note_on,30,0,1,,,,,,,,,0,,,88,0
80439,note_on,39,0,3,,,,,,,,,2,,,64,62
80440,note_on,1,0,3,,,,,,,,,2,,,56,0
80479,note_on,39,0,3,,,,,,,,,2,,,64,0
80480,note_on,1,0,3,,,,,,,,,2,,,56,62
80520,note_on,120,0,1,,,,,,,,,0,,,86,0
80520,note_on,0,0,3,,,,,,,,,2,,,57,62
80520,control_change,0,0,3,,,,,,,,,2,64,0,,
80520,note_on,0,0,1,,,,,,,,,0,,,74,0
80520,note_on,0,0,1,,,,,,,,,0,,,73,75
80520,note_on,0,0,1,,,,,,,,,0,,,85,75
80520,note_on,40,0,3,,,,,,,,,2,,,56,0
80559,note_on,39,0,3,,,,,,,,,2,,,64,62
80560,note_on,1,0,3,,,,,,,,,2,,,57,0
80599,note_on,39,0,3,,,,,,,,,2,,,64,0
80600,note_on,1,0,3,,,,,,,,,2,,,57,62
80640,note_on,0,0,1,,,,,,,,,0,,,79,75
80640,note_on,0,0,1,,,,,,,,,0,,,91,75
80640,note_on,0,0,1,,,,,,,,,0,,,73,0
80640,note_on,0,0,3,,,,,,,,,2,,,58,62
80640,control_change,0,0,3,,,,,,,,,2,64,127,,
80640,note_on,40,0,3,,,,,,,,,2,,,57,0
80640,note_on,120,0,1,,,,,,,,,0,,,85,0
80679,note_on,39,0,3,,,,,,,,,2,,,64,62
80680,note_on,1,0,3,,,,,,,,,2,,,58,0
80719,note_on,39,0,3,,,,,,,,,2,,,64,0
80720,control_change,1,0,3,,,,,,,,,2,64,0,,
80720,note_on,0,0,3,,,,,,,,,2,,,58,62
80760,control_change,0,0,3,,,,,,,,,2,64,127,,
80760,note_on,0,0,3,,,,,,,,,2,,,57,75
80760,note_on,40,0,3,,,,,,,,,2,,,58,0
80760,note_on,120,0,1,,,,,,,,,0,,,91,0
80760,note_on,0,0,1,,,,,,,,,0,,,79,0
80760,note_on,0,0,1,,,,,,,,,0,,,77,88
80760,note_on,0,0,1,,,,,,,,,0,,,89,88
80799,note_on,39,0,3,,,,,,,,,2,,,65,75
80800,note_on,1,0,3,,,,,,,,,2,,,57,0
80839,note_on,39,0,3,,,,,,,,,2,,,65,0
80840,note_on,0,0,3,,,,,,,,,2,,,61,75
80840,control_change,1,0,3,,,,,,,,,2,64,0,,
80850,note_on,0,0,1,,,,,,,,,0,,,77,0
80850,note_on,90,0,1,,,,,,,,,0,,,89,0
80850,note_on,0,0,1,,,,,,,,,0,,,89,88
80850,note_on,0,0,1,,,,,,,,,0,,,77,88
80880,note_on,40,0,3,,,,,,,,,2,,,61,0
80880,control_change,0,0,3,,,,,,,,,2,64,127,,
80880,note_on,0,0,3,,,,,,,,,2,,,55,75
80880,note_on,0,0,1,,,,,,,,,0,,,88,88
80880,note_on,30,0,1,,,,,,,,,0,,,89,0
80880,note_on,0,0,1,,,,,,,,,0,,,77,0
80880,note_on,0,0,1,,,,,,,,,0,,,76,88
80880,control_change,0,0,1,,,,,,,,,0,64,127,,
80919,note_on,39,0,3,,,,,,,,,2,,,61,75
80920,note_on,1,0,3,,,,,,,,,2,,,55,0
80959,note_on,39,0,3,,,,,,,,,2,,,61,0
80960,note_on,1,0,3,,,,,,,,,2,,,58,75
81000,note_on,40,0,3,,,,,,,,,2,,,58,0
81000,note_on,0,0,3,,,,,,,,,2,,,53,75
81000,note_on,0,0,1,,,,,,,,,0,,,86,88
81000,note_on,0,0,1,,,,,,,,,0,,,74,88
81000,note_on,0,0,1,,,,,,,,,0,,,76,0
81000,note_on,120,0,1,,,,,,,,,0,,,88,0
81039,note_on,39,0,3,,,,,,,,,2,,,62,75
81040,note_on,1,0,3,,,,,,,,,2,,,53,0
81079,note_on,39,0,3,,,,,,,,,2,,,62,0
81080,note_on,1,0,3,,,,,,,,,2,,,57,75
81120,note_on,0,0,1,,,,,,,,,0,,,81,88
81120,note_on,0,0,1,,,,,,,,,0,,,74,0
81120,note_on,120,0,1,,,,,,,,,0,,,86,0
81120,note_on,40,0,3,,,,,,,,,2,,,57,0
81120,note_on,0,0,3,,,,,,,,,2,,,50,75
81120,note_on,0,0,1,,,,,,,,,0,,,93,88
81120,control_change,0,0,1,,,,,,,,,0,64,0,,
81159,note_on,39,0,3,,,,,,,,,2,,,65,75
81160,note_on,1,0,3,,,,,,,,,2,,,50,0
81199,note_on,39,0,3,,,,,,,,,2,,,65,0
81200,note_on,0,0,3,,,,,,,,,2,,,57,75
81200,control_change,1,0,3,,,,,,,,,2,64,0,,
81240,note_on,0,0,3,,,,,,,,,2,,,48,75
81240,note_on,40,0,3,,,,,,,,,2,,,57,0
81240,note_on,120,0,1,,,,,,,,,0,,,93,0
81240,note_on,0,0,1,,,,,,,,,0,,,81,0
81240,note_on,0,0,1,,,,,,,,,0,,,76,88
81240,note_on,0,0,1,,,,,,,,,0,,,88,88
81240,control_change,0,0,1,,,,,,,,,0,64,127,,
81240,control_change,0,0,3,,,,,,,,,2,64,127,,
81279,note_on,39,0,3,,,,,,,,,2,,,60,75
81280,note_on,1,0,3,,,,,,,,,2,,,48,0
81319,note_on,39,0,3,,,,,,,,,2,,,60,0
81320,note_on,1,0,3,,,,,,,,,2,,,57,75
81330,note_on,90,0,1,,,,,,,,,0,,,88,0
81330,note_on,0,0,1,,,,,,,,,0,,,76,88
81330,note_on,0,0,1,,,,,,,,,0,,,88,88
81330,note_on,0,0,1,,,,,,,,,0,,,76,0
81360,note_on,40,0,3,,,,,,,,,2,,,57,0
81360,note_on,0,0,3,,,,,,,,,2,,,50,75
81360,note_on,30,0,1,,,,,,,,,0,,,88,0
81360,note_on,0,0,1,,,,,,,,,0,,,76,0
81360,note_on,0,0,1,,,,,,,,,0,,,74,88
81360,note_on,0,0,1,,,,,,,,,0,,,86,88
81399,note_on,39,0,3,,,,,,,,,2,,,59,75
81400,note_on,1,0,3,,,,,,,,,2,,,50,0
81439,note_on,39,0,3,,,,,,,,,2,,,59,0
81440,note_on,1,0,3,,,,,,,,,2,,,57,75
81480,note_on,0,0,3,,,,,,,,,2,,,52,75
81480,note_on,120,0,1,,,,,,,,,0,,,86,0
81480,note_on,0,0,1,,,,,,,,,0,,,74,0
81480,note_on,0,0,1,,,,,,,,,0,,,72,88
81480,note_on,0,0,1,,,,,,,,,0,,,84,88
81480,note_on,40,0,3,,,,,,,,,2,,,57,0
81519,note_on,39,0,3,,,,,,,,,2,,,60,75
81520,note_on,1,0,3,,,,,,,,,2,,,52,0
81559,note_on,39,0,3,,,,,,,,,2,,,60,0
81560,note_on,1,0,3,,,,,,,,,2,,,57,75
81600,note_on,40,0,3,,,,,,,,,2,,,57,0
81600,note_on,0,0,3,,,,,,,,,2,,,48,75
81600,control_change,0,0,1,,,,,,,,,0,64,0,,
81600,note_on,0,0,1,,,,,,,,,0,,,93,88
81600,note_on,0,0,1,,,,,,,,,0,,,81,88
81600,note_on,0,0,1,,,,,,,,,0,,,72,0
81600,note_on,120,0,1,,,,,,,,,0,,,84,0
81639,note_on,39,0,3,,,,,,,,,2,,,60,75
81640,note_on,1,0,3,,,,,,,,,2,,,48,0
81679,note_on,39,0,3,,,,,,,,,2,,,60,0
81680,control_change,1,0,3,,,,,,,,,2,64,0,,
81680,note_on,0,0,3,,,,,,,,,2,,,57,75
81720,control_change,0,0,3,,,,,,,,,2,64,127,,
81720,note_on,120,0,1,,,,,,,,,0,,,93,0
81720,note_on,0,0,1,,,,,,,,,0,,,81,0
81720,note_on,0,0,1,,,,,,,,,0,,,72,88
81720,note_on,0,0,1,,,,,,,,,0,,,84,88
81720,control_change,0,0,1,,,,,,,,,0,64,127,,
81720,note_on,40,0,3,,,,,,,,,2,,,57,0
81720,note_on,0,0,3,,,,,,,,,2,,,52,75
81759,note_on,39,0,3,,,,,,,,,2,,,60,75
81760,note_on,1,0,3,,,,,,,,,2,,,52,0
81799,note_on,39,0,3,,,,,,,,,2,,,60,0
81800,note_on,1,0,3,,,,,,,,,2,,,57,75
81810,note_on,0,0,1,,,,,,,,,0,,,72,0
81810,note_on,90,0,1,,,,,,,,,0,,,84,0
81810,note_on,0,0,1,,,,,,,,,0,,,72,88
81810,note_on,0,0,1,,,,,,,,,0,,,84,88
81840,note_on,40,0,3,,,,,,,,,2,,,57,0
81840,note_on,30,0,1,,,,,,,,,0,,,84,0
81840,note_on,0,0,1,,,,,,,,,0,,,72,0
81840,note_on,0,0,1,,,,,,,,,0,,,71,88
81840,note_on,0,0,1,,,,,,,,,0,,,83,88
81840,note_on,0,0,3,,,,,,,,,2,,,53,75
81879,note_on,39,0,3,,,,,,,,,2,,,60,75
81880,note_on,1,0,3,,,,,,,,,2,,,53,0
81919,note_on,39,0,3,,,,,,,,,2,,,60,0
81920,note_on,1,0,3,,,,,,,,,2,,,57,75
81960,note_on,0,0,3,,,,,,,,,2,,,54,75
81960,note_on,40,0,3,,,,,,,,,2,,,57,0
81960,note_on,0,0,1,,,,,,,,,0,,,69,88
81960,note_on,0,0,1,,,,,,,,,0,,,71,0
81960,note_on,120,0,1,,,,,,,,,0,,,83,0
81960,note_on,0,0,1,,,,,,,,,0,,,81,88
81999,note_on,39,0,3,,,,,,,,,2,,,63,75
82000,note_on,1,0,3,,,,,,,,,2,,,54,0
82039,note_on,39,0,3,,,,,,,,,2,,,63,0
82040,note_on,1,0,3,,,,,,,,,2,,,60,75
82080,control_change,0,0,1,,,,,,,,,0,64,0,,
82080,note_on,0,0,3,,,,,,,,,2,,,53,75
82080,note_on,40,0,3,,,,,,,,,2,,,60,0
82080,note_on,0,0,1,,,,,,,,,0,,,75,88
82080,note_on,0,0,1,,,,,,,,,0,,,69,0
82080,note_on,0,0,1,,,,,,,,,0,,,87,88
82080,note_on,120,0,1,,,,,,,,,0,,,81,0
82119,note_on,39,0,3,,,,,,,,,2,,,60,75
82120,note_on,1,0,3,,,,,,,,,2,,,53,0
82159,note_on,39,0,3,,,,,,,,,2,,,60,0
82160,control_change,1,0,3,,,,,,,,,2,64,0,,
82160,note_on,0,0,3,,,,,,,,,2,,,57,75
82200,note_on,120,0,1,,,,,,,,,0,,,87,0
82200,note_on,0,0,1,,,,,,,,,0,,,77,88
82200,note_on,40,0,3,,,,,,,,,2,,,57,0
82200,control_change,0,0,1,,,,,,,,,0,64,127,,
82200,note_on,0,0,1,,,,,,,,,0,,,75,0
82200,note_on,0,0,1,,,,,,,,,0,,,65,88
82200,control_change,0,0,3,,,,,,,,,2,64,127,,
82200,note_on,0,0,3,,,,,,,,,2,,,51,75
82239,note_on,39,0,3,,,,,,,,,2,,,60,75
82240,note_on,1,0,3,,,,,,,,,2,,,51,0
82279,note_on,39,0,3,,,,,,,,,2,,,60,0
82280,note_on,1,0,3,,,,,,,,,2,,,57,75
82290,note_on,0,0,1,,,,,,,,,0,,,65,88
82290,note_on,90,0,1,,,,,,,,,0,,,77,0
82290,note_on,0,0,1,,,,,,,,,0,,,65,0
82290,note_on,0,0,1,,,,,,,,,0,,,77,88
82320,note_on,30,0,1,,,,,,,,,0,,,77,0
82320,control_change,8160,0,2,,,,,,,,,1,64,127,,
82320,note_on,0,0,2,,,,,,,,,1,,,64,49
82320,control_change,0,0,1,,,,,,,,,0,64,0,,
82320,note_on,40,0,3,,,,,,,,,2,,,57,0
82320,note_on,0,0,3,,,,,,,,,2,,,52,36
82320,note_on,0,0,1,,,,,,,,,0,,,76,114
82320,note_on,0,0,1,,,,,,,,,0,,,65,0
82359,note_on,39,0,3,,,,,,,,,2,,,59,36
82360,note_on,1,0,3,,,,,,,,,2,,,52,0
82399,note_on,39,0,3,,,,,,,,,2,,,59,0
82400,note_on,1,0,3,,,,,,,,,2,,,57,36
82440,note_on,0,0,3,,,,,,,,,2,,,53,36
82440,note_on,40,0,3,,,,,,,,,2,,,57,0
82440,note_on,120,0,2,,,,,,,,,1,,,64,0
82440,note_on,0,0,2,,,,,,,,,1,,,62,49
82479,note_on,39,0,3,,,,,,,,,2,,,59,36
82480,note_on,1,0,3,,,,,,,,,2,,,53,0
82519,note_on,39,0,3,,,,,,,,,2,,,59,0
82520,note_on,1,0,3,,,,,,,,,2,,,57,36
82560,note_on,40,0,3,,,,,,,,,2,,,57,0
82560,note_on,0,0,3,,,,,,,,,2,,,52,36
82560,note_on,120,0,2,,,,,,,,,1,,,62,0
82560,control_change,0,0,2,,,,,,,,,1,64,0,,
82560,note_on,0,0,2,,,,,,,,,1,,,71,49
82599,note_on,39,0,3,,,,,,,,,2,,,59,36
82600,note_on,1,0,3,,,,,,,,,2,,,52,0
82639,note_on,39,0,3,,,,,,,,,2,,,59,0
82640,control_change,1,0,3,,,,,,,,,2,64,0,,
82640,note_on,0,0,3,,,,,,,,,2,,,57,36
82680,control_change,0,0,2,,,,,,,,,1,64,127,,
82680,note_on,0,0,2,,,,,,,,,1,,,65,49
82680,note_on,40,0,3,,,,,,,,,2,,,57,0
82680,note_on,0,0,3,,,,,,,,,2,,,51,36
82680,control_change,0,0,3,,,,,,,,,2,64,127,,
82680,note_on,120,0,2,,,,,,,,,1,,,71,0
82689,note_on,9,0,2,,,,,,,,,1,,,65,0
82719,note_on,39,0,3,,,,,,,,,2,,,60,36
82720,note_on,1,0,3,,,,,,,,,2,,,51,0
82759,note_on,39,0,3,,,,,,,,,2,,,60,0
82760,note_on,1,0,3,,,,,,,,,2,,,57,36
82770,note_on,81,0,2,,,,,,,,,1,,,65,49
82800,note_on,0,0,3,,,,,,,,,2,,,52,36
82800,note_on,0,0,1,,,,,,,,,0,,,76,114
82800,note_on,480,0,1,,,,,,,,,0,,,76,0
82800,note_on,30,0,2,,,,,,,,,1,,,65,0
82800,note_on,40,0,3,,,,,,,,,2,,,57,0
82800,note_on,0,0,2,,,,,,,,,1,,,64,49
82839,note_on,39,0,3,,,,,,,,,2,,,59,36
82840,note_on,1,0,3,,,,,,,,,2,,,52,0
82879,note_on,39,0,3,,,,,,,,,2,,,59,0
82880,note_on,1,0,3,,,,,,,,,2,,,57,36
82920,note_on,120,0,2,,,,,,,,,1,,,64,0
82920,note_on,0,0,3,,,,,,,,,2,,,53,36
82920,note_on,40,0,3,,,,,,,,,2,,,57,0
82920,note_on,0,0,2,,,,,,,,,1,,,62,49
82959,note_on,39,0,3,,,,,,,,,2,,,59,36
82960,note_on,1,0,3,,,,,,,,,2,,,53,0
82999,note_on,39,0,3,,,,,,,,,2,,,59,0
83000,note_on,1,0,3,,,,,,,,,2,,,57,36
83040,note_on,120,0,2,,,,,,,,,1,,,62,0
83040,note_on,40,0,3,,,,,,,,,2,,,57,0
83040,note_on,0,0,3,,,,,,,,,2,,,52,36
83040,note_on,0,0,2,,,,,,,,,1,,,71,49
83079,note_on,39,0,3,,,,,,,,,2,,,59,36
83080,note_on,1,0,3,,,,,,,,,2,,,52,0
83119,note_on,39,0,3,,,,,,,,,2,,,59,0
83120,note_on,1,0,3,,,,,,,,,2,,,57,36
83160,note_on,0,0,3,,,,,,,,,2,,,50,36
83160,note_on,120,0,2,,,,,,,,,1,,,71,0
83160,note_on,0,0,2,,,,,,,,,1,,,64,49
83160,note_on,40,0,3,,,,,,,,,2,,,57,0
83169,note_on,9,0,2,,,,,,,,,1,,,64,0
83199,note_on,39,0,3,,,,,,,,,2,,,59,36
83200,note_on,1,0,3,,,,,,,,,2,,,50,0
83239,note_on,39,0,3,,,,,,,,,2,,,59,0
83240,control_change,1,0,3,,,,,,,,,2,64,0,,
83240,note_on,0,0,3,,,,,,,,,2,,,56,36
83250,control_change,81,0,2,,,,,,,,,1,64,0,,
83250,note_on,0,0,2,,,,,,,,,1,,,64,49
83280,note_on,0,0,3,,,,,,,,,2,,,49,36
83280,note_on,480,0,1,,,,,,,,,0,,,76,0
83280,note_on,0,0,1,,,,,,,,,0,,,76,75
83280,key_signature,5760,1,0,,,,,A,,,,,,,,
83280,control_change,0,0,3,,,,,,,,,2,64,127,,
83280,note_on,30,0,2,,,,,,,,,1,,,64,0
83280,note_on,40,0,3,,,,,,,,,2,,,56,0
83280,control_change,0,0,2,,,,,,,,,1,64,127,,
83280,note_on,0,0,2,,,,,,,,,1,,,64,49
83319,note_on,39,0,3,,,,,,,,,2,,,57,36
83320,note_on,1,0,3,,,,,,,,,2,,,49,0
83359,note_on,39,0,3,,,,,,,,,2,,,57,0
83360,note_on,1,0,3,,,,,,,,,2,,,52,36
83400,note_on,120,0,2,,,,,,,,,1,,,64,0
83400,note_on,40,0,3,,,,,,,,,2,,,52,0
83400,note_on,0,0,3,,,,,,,,,2,,,47,36
83400,note_on,0,0,2,,,,,,,,,1,,,68,49
83439,note_on,39,0,3,,,,,,,,,2,,,57,36
83440,note_on,1,0,3,,,,,,,,,2,,,47,0
83479,note_on,39,0,3,,,,,,,,,2,,,57,0
83480,note_on,1,0,3,,,,,,,,,2,,,50,36
83520,note_on,120,0,2,,,,,,,,,1,,,68,0
83520,note_on,0,0,2,,,,,,,,,1,,,69,49
83520,note_on,40,0,3,,,,,,,,,2,,,50,0
83520,note_on,0,0,3,,,,,,,,,2,,,45,36
83559,note_on,39,0,3,,,,,,,,,2,,,57,36
83560,note_on,1,0,3,,,,,,,,,2,,,45,0
83599,note_on,39,0,3,,,,,,,,,2,,,57,0
83600,note_on,1,0,3,,,,,,,,,2,,,52,36
83640,note_on,40,0,3,,,,,,,,,2,,,52,0
83640,note_on,0,0,3,,,,,,,,,2,,,50,36
83640,control_change,0,0,3,,,,,,,,,2,64,0,,
83640,note_on,120,0,2,,,,,,,,,1,,,69,0
83640,control_change,0,0,2,,,,,,,,,1,64,0,,
83640,note_on,0,0,2,,,,,,,,,1,,,66,49
83649,note_on,9,0,2,,,,,,,,,1,,,66,0
83679,note_on,39,0,3,,,,,,,,,2,,,57,36
83680,note_on,1,0,3,,,,,,,,,2,,,50,0
83719,note_on,39,0,3,,,,,,,,,2,,,57,0
83720,note_on,1,0,3,,,,,,,,,2,,,54,36
83730,note_on,81,0,2,,,,,,,,,1,,,66,49
83760,note_on,0,0,3,,,,,,,,,2,,,49,36
83760,note_on,40,0,3,,,,,,,,,2,,,54,0
83760,control_change,0,0,3,,,,,,,,,2,64,127,,
83760,control_change,0,0,2,,,,,,,,,1,64,127,,
83760,note_on,0,0,2,,,,,,,,,1,,,64,49
83760,note_on,30,0,2,,,,,,,,,1,,,66,0
83760,note_on,480,0,1,,,,,,,,,0,,,76,0
83760,note_on,0,0,1,,,,,,,,,0,,,76,49
83799,note_on,39,0,3,,,,,,,,,2,,,57,36
83800,note_on,1,0,3,,,,,,,,,2,,,49,0
83820,set_tempo,540,1,0,,,,,,512821,,,,,,,
83839,note_on,39,0,3,,,,,,,,,2,,,57,0
83840,note_on,1,0,3,,,,,,,,,2,,,52,36
83880,set_tempo,60,1,0,,,,,,526316,,,,,,,
83880,note_on,120,0,2,,,,,,,,,1,,,64,0
83880,note_on,0,0,3,,,,,,,,,2,,,47,36
83880,note_on,40,0,3,,,,,,,,,2,,,52,0
83880,note_on,0,0,2,,,,,,,,,1,,,68,49
83919,note_on,39,0,3,,,,,,,,,2,,,57,36
83920,note_on,1,0,3,,,,,,,,,2,,,47,0
83940,set_tempo,60,1,0,,,,,,540541,,,,,,,
83959,note_on,39,0,3,,,,,,,,,2,,,57,0
83960,note_on,1,0,3,,,,,,,,,2,,,50,36
84000,set_tempo,60,1,0,,,,,,560748,,,,,,,
84000,note_on,40,0,3,,,,,,,,,2,,,50,0
84000,note_on,0,0,3,,,,,,,,,2,,,45,36
84000,note_on,120,0,2,,,,,,,,,1,,,68,0
84000,note_on,0,0,2,,,,,,,,,1,,,69,49
84039,note_on,39,0,3,,,,,,,,,2,,,57,36
84040,note_on,1,0,3,,,,,,,,,2,,,45,0
84060,set_tempo,60,1,0,,,,,,576923,,,,,,,
84079,note_on,39,0,3,,,,,,,,,2,,,57,0
84080,note_on,1,0,3,,,,,,,,,2,,,52,36
84120,note_on,360,0,1,,,,,,,,,0,,,76,0
84120,note_on,0,0,2,,,,,,,,,1,,,64,49
84120,control_change,0,0,2,,,,,,,,,1,64,0,,
84120,note_on,120,0,2,,,,,,,,,1,,,69,0
84120,note_on,0,0,1,,,,,,,,,0,,,74,49
84120,note_on,0,0,3,,,,,,,,,2,,,47,36
84120,control_change,0,0,3,,,,,,,,,2,64,0,,
84120,note_on,40,0,3,,,,,,,,,2,,,52,0
84120,set_tempo,60,1,0,,,,,,594059,,,,,,,
84120,note_on,0,0,1,,,,,,,,,0,,,68,49
84159,note_on,39,0,3,,,,,,,,,2,,,56,36
84160,note_on,1,0,3,,,,,,,,,2,,,47,0
84180,set_tempo,60,1,0,,,,,,612245,,,,,,,
84199,note_on,39,0,3,,,,,,,,,2,,,56,0
84200,note_on,1,0,3,,,,,,,,,2,,,52,36
84210,note_on,0,0,2,,,,,,,,,1,,,64,49
84210,note_on,90,0,2,,,,,,,,,1,,,64,0
84240,note_on,120,0,1,,,,,,,,,0,,,74,0
84240,note_on,0,0,2,,,,,,,,,1,,,69,36
84240,note_on,0,0,2,,,,,,,,,1,,,64,36
84240,set_tempo,60,1,0,,,,,,638298,,,,,,,
84240,note_on,0,0,3,,,,,,,,,2,,,49,36
84240,note_on,30,0,2,,,,,,,,,1,,,64,0
84240,note_on,40,0,3,,,,,,,,,2,,,52,0
84240,control_change,0,0,3,,,,,,,,,2,64,127,,
84240,note_on,0,0,1,,,,,,,,,0,,,68,0
84240,note_on,0,0,1,,,,,,,,,0,,,73,36
84279,note_on,39,0,3,,,,,,,,,2,,,57,36
84280,note_on,1,0,3,,,,,,,,,2,,,49,0
84319,note_on,39,0,3,,,,,,,,,2,,,57,0
84320,note_on,1,0,3,,,,,,,,,2,,,52,36
84360,note_on,120,0,1,,,,,,,,,0,,,73,0
84360,note_on,0,0,3,,,,,,,,,2,,,50,36
84360,note_on,0,0,1,,,,,,,,,0,,,71,36
84360,note_on,0,0,2,,,,,,,,,1,,,64,0
84360,note_on,0,0,2,,,,,,,,,1,,,66,36
84360,note_on,40,0,3,,,,,,,,,2,,,52,0
84360,control_change,0,0,3,,,,,,,,,2,64,0,,
84360,note_on,0,0,1,,,,,,,,,0,,,62,36
84360,note_on,120,0,2,,,,,,,,,1,,,69,0
84399,note_on,39,0,3,,,,,,,,,2,,,59,36
84400,note_on,1,0,3,,,,,,,,,2,,,50,0
84439,note_on,39,0,3,,,,,,,,,2,,,59,0
84440,note_on,1,0,3,,,,,,,,,2,,,54,36
84450,note_on,0,0,2,,,,,,,,,1,,,66,36
84450,note_on,90,0,2,,,,,,,,,1,,,66,0
84480,note_on,0,0,2,,,,,,,,,1,,,61,36
84480,note_on,30,0,2,,,,,,,,,1,,,66,0
84480,note_on,0,0,2,,,,,,,,,1,,,64,36
84480,control_change,0,0,3,,,,,,,,,2,64,127,,
84480,note_on,120,0,1,,,,,,,,,0,,,71,0
84480,note_on,0,0,1,,,,,,,,,0,,,62,0
84480,note_on,0,0,1,,,,,,,,,0,,,69,36
84480,note_on,40,0,3,,,,,,,,,2,,,54,0
84480,note_on,0,0,3,,,,,,,,,2,,,52,36
84519,note_on,39,0,3,,,,,,,,,2,,,57,36
84520,note_on,1,0,3,,,,,,,,,2,,,52,0
84559,note_on,39,0,3,,,,,,,,,2,,,57,0
84560,note_on,1,0,3,,,,,,,,,2,,,51,36
84600,note_on,40,0,3,,,,,,,,,2,,,51,0
84600,control_change,0,0,3,,,,,,,,,2,64,0,,
84600,note_on,0,0,3,,,,,,,,,2,,,52,36
84600,note_on,0,0,1,,,,,,,,,0,,,62,36
84600,note_on,0,0,1,,,,,,,,,0,,,68,36
84600,note_on,120,0,2,,,,,,,,,1,,,64,0
84600,note_on,120,0,1,,,,,,,,,0,,,69,0
84600,note_on,0,0,2,,,,,,,,,1,,,64,36
84600,note_on,0,0,2,,,,,,,,,1,,,61,0
84639,note_on,39,0,3,,,,,,,,,2,,,54,36
84640,note_on,1,0,3,,,,,,,,,2,,,52,0
84679,note_on,39,0,3,,,,,,,,,2,,,54,0
84680,note_on,1,0,3,,,,,,,,,2,,,52,36
84690,note_on,0,0,2,,,,,,,,,1,,,64,36
84690,note_on,90,0,2,,,,,,,,,1,,,64,0
84720,note_on,0,0,1,,,,,,,,,0,,,69,75
84720,note_on,40,0,3,,,,,,,,,2,,,52,0
84720,control_change,0,0,3,,,,,,,,,2,64,127,,
84720,note_on,0,0,3,,,,,,,,,2,,,45,36
84720,note_on,120,0,1,,,,,,,,,0,,,68,0
84720,control_change,0,0,1,,,,,,,,,0,64,127,,
84720,set_tempo,480,1,0,,,,,,500000,,,,,,,
84720,note_on,0,0,1,,,,,,,,,0,,,62,0
84720,note_on,30,0,2,,,,,,,,,1,,,64,0
84720,note_on,0,0,1,,,,,,,,,0,,,64,70
84720,note_on,0,0,1,,,,,,,,,0,,,61,65
84726,note_on,6,0,3,,,,,,,,,2,,,45,0
84780,note_on,54,0,3,,,,,,,,,2,,,52,36
84780,note_on,0,0,1,,,,,,,,,0,,,61,0
84780,note_on,0,0,1,,,,,,,,,0,,,64,0
84780,note_on,60,0,1,,,,,,,,,0,,,69,0
84786,note_on,6,0,3,,,,,,,,,2,,,52,0
84825,note_on,45,0,1,,,,,,,,,0,,,69,49
84840,note_on,0,0,1,,,,,,,,,0,,,73,49
84840,note_on,15,0,1,,,,,,,,,0,,,69,0
84840,note_on,54,0,3,,,,,,,,,2,,,57,36
84840,note_on,0,0,3,,,,,,,,,2,,,64,36
84846,note_on,0,0,3,,,,,,,,,2,,,57,0
84846,note_on,6,0,3,,,,,,,,,2,,,64,0
84849,note_on,9,0,1,,,,,,,,,0,,,73,0
84930,note_on,81,0,1,,,,,,,,,0,,,73,49
84960,note_on,30,0,1,,,,,,,,,0,,,73,0
84960,note_on,114,0,3,,,,,,,,,2,,,45,36
84960,note_on,0,0,1,,,,,,,,,0,,,69,49
84966,note_on,6,0,3,,,,,,,,,2,,,45,0
85020,note_on,60,0,1,,,,,,,,,0,,,69,0
85020,note_on,54,0,3,,,,,,,,,2,,,52,36
85026,note_on,6,0,3,,,,,,,,,2,,,52,0
85065,note_on,45,0,1,,,,,,,,,0,,,69,49
85080,note_on,15,0,1,,,,,,,,,0,,,69,0
85080,note_on,0,0,1,,,,,,,,,0,,,73,49
85080,note_on,0,0,3,,,,,,,,,2,,,64,36
85080,note_on,54,0,3,,,,,,,,,2,,,57,36
85086,note_on,6,0,3,,,,,,,,,2,,,64,0
85086,note_on,0,0,3,,,,,,,,,2,,,57,0
85089,note_on,9,0,1,,,,,,,,,0,,,73,0
85140,control_change,54,0,3,,,,,,,,,2,64,0,,
85170,control_change,81,0,1,,,,,,,,,0,64,0,,
85170,note_on,0,0,1,,,,,,,,,0,,,73,49
85200,note_on,0,0,3,,,,,,,,,2,,,40,36
85200,note_on,30,0,1,,,,,,,,,0,,,73,0
85200,control_change,0,0,1,,,,,,,,,0,64,127,,
85200,note_on,0,0,1,,,,,,,,,0,,,76,75
85200,control_change,60,0,3,,,,,,,,,2,64,127,,
85206,note_on,6,0,3,,,,,,,,,2,,,40,0
85260,note_on,54,0,3,,,,,,,,,2,,,52,36
85266,note_on,6,0,3,,,,,,,,,2,,,52,0
85320,note_on,0,0,3,,,,,,,,,2,,,62,36
85320,note_on,0,0,3,,,,,,,,,2,,,64,36
85320,note_on,54,0,3,,,,,,,,,2,,,56,36
85326,note_on,6,0,3,,,,,,,,,2,,,64,0
85326,note_on,0,0,3,,,,,,,,,2,,,62,0
85326,note_on,0,0,3,,,,,,,,,2,,,56,0
85410,note_on,0,0,1,,,,,,,,,0,,,78,49
85410,note_on,210,0,1,,,,,,,,,0,,,76,0
85440,note_on,114,0,3,,,,,,,,,2,,,45,36
85440,note_on,0,0,1,,,,,,,,,0,,,76,49
85440,note_on,30,0,1,,,,,,,,,0,,,78,0
85446,note_on,6,0,3,,,,,,,,,2,,,45,0
85500,note_on,54,0,3,,,,,,,,,2,,,52,36
85506,note_on,6,0,3,,,,,,,,,2,,,52,0
85560,note_on,0,0,1,,,,,,,,,0,,,73,49
85560,control_change,0,0,1,,,,,,,,,0,64,0,,
85560,note_on,120,0,1,,,,,,,,,0,,,76,0
85560,control_change,54,0,3,,,,,,,,,2,64,0,,
85560,note_on,0,0,3,,,,,,,,,2,,,64,36
85560,note_on,0,0,3,,,,,,,,,2,,,57,36
85560,note_on,0,0,3,,,,,,,,,2,,,61,36
85560,control_change,0,0,3,,,,,,,,,2,64,0,,
85566,note_on,0,0,3,,,,,,,,,2,,,61,0
85566,note_on,6,0,3,,,,,,,,,2,,,64,0
85566,note_on,0,0,3,,,,,,,,,2,,,57,0
85650,note_on,0,0,1,,,,,,,,,0,,,74,49
85650,note_on,90,0,1,,,,,,,,,0,,,73,0
85680,note_on,0,0,3,,,,,,,,,2,,,40,36
85680,control_change,114,0,3,,,,,,,,,2,64,127,,
85680,note_on,30,0,1,,,,,,,,,0,,,74,0
85680,note_on,0,0,2,,,,,,,,,1,,,64,36
85680,note_on,0,0,1,,,,,,,,,0,,,76,75
85680,control_change,960,0,2,,,,,,,,,1,64,127,,
85680,control_change,0,0,1,,,,,,,,,0,64,127,,
85686,note_on,6,0,3,,,,,,,,,2,,,40,0
85740,note_on,54,0,3,,,,,,,,,2,,,52,36
85746,note_on,6,0,3,,,,,,,,,2,,,52,0
85800,note_on,120,0,1,,,,,,,,,0,,,76,0
85800,note_on,0,0,1,,,,,,,,,0,,,71,49
85800,note_on,0,0,3,,,,,,,,,2,,,62,36
85800,note_on,54,0,3,,,,,,,,,2,,,56,36
85806,note_on,0,0,3,,,,,,,,,2,,,56,0
85806,note_on,6,0,3,,,,,,,,,2,,,62,0
85890,note_on,90,0,1,,,,,,,,,0,,,71,0
85890,note_on,0,0,1,,,,,,,,,0,,,73,49
85920,note_on,30,0,1,,,,,,,,,0,,,73,0
85920,note_on,0,0,1,,,,,,,,,0,,,74,49
85920,note_on,114,0,3,,,,,,,,,2,,,40,36
85926,note_on,6,0,3,,,,,,,,,2,,,40,0
85980,note_on,54,0,3,,,,,,,,,2,,,52,36
85986,note_on,6,0,3,,,,,,,,,2,,,52,0
86040,note_on,0,0,2,,,,,,,,,1,,,64,36
86040,note_on,120,0,1,,,,,,,,,0,,,74,0
86040,note_on,0,0,1,,,,,,,,,0,,,73,49
86040,note_on,360,0,2,,,,,,,,,1,,,64,0
86040,note_on,54,0,3,,,,,,,,,2,,,56,36
86046,note_on,6,0,3,,,,,,,,,2,,,56,0
86049,note_on,9,0,2,,,,,,,,,1,,,64,0
86049,note_on,9,0,1,,,,,,,,,0,,,73,0
86100,control_change,54,0,3,,,,,,,,,2,64,0,,
86130,note_on,0,0,1,,,,,,,,,0,,,71,49
86130,note_on,0,0,2,,,,,,,,,1,,,62,36
86130,control_change,81,0,2,,,,,,,,,1,64,0,,
86130,control_change,81,0,1,,,,,,,,,0,64,0,,
86134,note_on,4,0,2,,,,,,,,,1,,,62,0
86134,note_on,4,0,1,,,,,,,,,0,,,71,0
86160,note_on,0,0,1,,,,,,,,,0,,,69,49
86160,note_on,0,0,3,,,,,,,,,2,,,45,36
86160,control_change,60,0,3,,,,,,,,,2,64,127,,
86160,control_change,26,0,1,,,,,,,,,0,64,127,,
86160,note_on,0,0,1,,,,,,,,,0,,,61,49
86166,note_on,6,0,3,,,,,,,,,2,,,45,0
86220,note_on,54,0,3,,,,,,,,,2,,,49,36
86226,note_on,6,0,3,,,,,,,,,2,,,49,0
86280,note_on,0,0,1,,,,,,,,,0,,,71,49
86280,note_on,0,0,1,,,,,,,,,0,,,62,49
86280,note_on,0,0,1,,,,,,,,,0,,,61,0
86280,note_on,54,0,3,,,,,,,,,2,,,52,36
86280,note_on,120,0,1,,,,,,,,,0,,,69,0
86286,note_on,6,0,3,,,,,,,,,2,,,52,0
86370,note_on,90,0,1,,,,,,,,,0,,,71,0
86370,note_on,0,0,1,,,,,,,,,0,,,62,0
86370,note_on,0,0,1,,,,,,,,,0,,,64,49
86370,note_on,0,0,1,,,,,,,,,0,,,68,49
86374,note_on,4,0,1,,,,,,,,,0,,,68,0
86374,note_on,0,0,1,,,,,,,,,0,,,64,0
86400,control_change,26,0,1,,,,,,,,,0,64,0,,
86400,note_on,114,0,3,,,,,,,,,2,,,45,36
86400,note_on,0,0,1,,,,,,,,,0,,,69,49
86400,note_on,0,0,1,,,,,,,,,0,,,61,49
86406,note_on,6,0,3,,,,,,,,,2,,,45,0
86460,note_on,54,0,3,,,,,,,,,2,,,52,36
86466,note_on,6,0,3,,,,,,,,,2,,,52,0
86520,note_on,120,0,1,,,,,,,,,0,,,69,0
86520,note_on,0,0,1,,,,,,,,,0,,,61,0
86520,note_on,54,0,3,,,,,,,,,2,,,57,36
86526,note_on,6,0,3,,,,,,,,,2,,,57,0
86580,note_on,0,0,3,,,,,,,,,2,,,61,36
86580,control_change,54,0,3,,,,,,,,,2,64,0,,
86586,note_on,6,0,3,,,,,,,,,2,,,61,0
86640,note_on,0,0,3,,,,,,,,,2,,,45,36
86640,control_change,54,0,3,,,,,,,,,2,64,127,,
86640,control_change,120,0,1,,,,,,,,,0,64,127,,
86640,note_on,0,0,1,,,,,,,,,0,,,81,75
86640,note_on,0,0,1,,,,,,,,,0,,,69,67
86640,set_tempo,1920,1,0,,,,,,500000,,,,,,,
86646,note_on,6,0,3,,,,,,,,,2,,,45,0
86700,note_on,54,0,3,,,,,,,,,2,,,52,36
86706,note_on,6,0,3,,,,,,,,,2,,,52,0
86745,note_on,105,0,1,,,,,,,,,0,,,81,49
86760,note_on,0,0,1,,,,,,,,,0,,,81,0
86760,note_on,15,0,1,,,,,,,,,0,,,81,0
86760,note_on,0,0,1,,,,,,,,,0,,,73,49
86760,note_on,0,0,3,,,,,,,,,2,,,64,36
86760,note_on,0,0,1,,,,,,,,,0,,,85,49
86760,note_on,54,0,3,,,,,,,,,2,,,57,36
86760,note_on,0,0,1,,,,,,,,,0,,,69,0
86766,note_on,0,0,3,,,,,,,,,2,,,57,0
86766,note_on,6,0,3,,,,,,,,,2,,,64,0
86769,note_on,0,0,1,,,,,,,,,0,,,73,0
86769,note_on,9,0,1,,,,,,,,,0,,,85,0
86850,note_on,81,0,1,,,,,,,,,0,,,73,49
86850,note_on,0,0,1,,,,,,,,,0,,,85,49
86880,note_on,114,0,3,,,,,,,,,2,,,45,36
86880,note_on,0,0,1,,,,,,,,,0,,,69,49
86880,note_on,30,0,1,,,,,,,,,0,,,85,0
86880,note_on,0,0,1,,,,,,,,,0,,,73,0
86880,note_on,0,0,1,,,,,,,,,0,,,81,49
86886,note_on,6,0,3,,,,,,,,,2,,,45,0
86940,note_on,54,0,3,,,,,,,,,2,,,52,36
86946,note_on,6,0,3,,,,,,,,,2,,,52,0
86985,note_on,105,0,1,,,,,,,,,0,,,81,49
87000,note_on,54,0,3,,,,,,,,,2,,,57,36
87000,note_on,0,0,3,,,,,,,,,2,,,64,36
87000,note_on,0,0,1,,,,,,,,,0,,,69,0
87000,note_on,0,0,1,,,,,,,,,0,,,81,0
87000,note_on,0,0,1,,,,,,,,,0,,,73,49
87000,note_on,15,0,1,,,,,,,,,0,,,81,0
87000,note_on,0,0,1,,,,,,,,,0,,,85,49
87006,note_on,0,0,3,,,,,,,,,2,,,57,0
87006,note_on,6,0,3,,,,,,,,,2,,,64,0
87009,note_on,9,0,1,,,,,,,,,0,,,85,0
87009,note_on,0,0,1,,,,,,,,,0,,,73,0
87060,control_change,54,0,3,,,,,,,,,2,64,0,,
87090,control_change,81,0,1,,,,,,,,,0,64,0,,
87090,note_on,0,0,1,,,,,,,,,0,,,73,49
87090,note_on,0,0,1,,,,,,,,,0,,,85,49
87120,control_change,60,0,3,,,,,,,,,2,64,127,,
87120,note_on,30,0,1,,,,,,,,,0,,,85,0
87120,note_on,0,0,1,,,,,,,,,0,,,76,67
87120,note_on,0,0,3,,,,,,,,,2,,,40,36
87120,note_on,0,0,1,,,,,,,,,0,,,88,75
87120,control_change,0,0,1,,,,,,,,,0,64,127,,
87120,note_on,0,0,1,,,,,,,,,0,,,73,0
87126,note_on,6,0,3,,,,,,,,,2,,,40,0
87180,note_on,54,0,3,,,,,,,,,2,,,52,36
87186,note_on,6,0,3,,,,,,,,,2,,,52,0
87240,note_on,0,0,3,,,,,,,,,2,,,62,36
87240,note_on,54,0,3,,,,,,,,,2,,,56,36
87240,note_on,0,0,3,,,,,,,,,2,,,64,36
87246,note_on,6,0,3,,,,,,,,,2,,,64,0
87246,note_on,0,0,3,,,,,,,,,2,,,56,0
87246,note_on,0,0,3,,,,,,,,,2,,,62,0
87330,note_on,0,0,1,,,,,,,,,0,,,90,49
87330,note_on,0,0,1,,,,,,,,,0,,,78,49
87330,note_on,0,0,1,,,,,,,,,0,,,76,0
87330,note_on,210,0,1,,,,,,,,,0,,,88,0
87360,note_on,0,0,1,,,,,,,,,0,,,78,0
87360,note_on,30,0,1,,,,,,,,,0,,,90,0
87360,note_on,114,0,3,,,,,,,,,2,,,45,36
87360,note_on,0,0,1,,,,,,,,,0,,,76,49
87360,note_on,0,0,1,,,,,,,,,0,,,88,49
87366,note_on,6,0,3,,,,,,,,,2,,,45,0
87420,note_on,54,0,3,,,,,,,,,2,,,52,36
87426,note_on,6,0,3,,,,,,,,,2,,,52,0
87480,control_change,0,0,3,,,,,,,,,2,64,0,,
87480,note_on,0,0,1,,,,,,,,,0,,,76,0
87480,control_change,54,0,3,,,,,,,,,2,64,0,,
87480,note_on,0,0,3,,,,,,,,,2,,,57,36
87480,note_on,0,0,3,,,,,,,,,2,,,61,36
87480,note_on,0,0,3,,,,,,,,,2,,,64,36
87480,control_change,0,0,1,,,,,,,,,0,64,0,,
87480,note_on,0,0,1,,,,,,,,,0,,,85,49
87480,note_on,120,0,1,,,,,,,,,0,,,88,0
87486,note_on,0,0,3,,,,,,,,,2,,,57,0
87486,note_on,0,0,3,,,,,,,,,2,,,61,0
87486,note_on,6,0,3,,,,,,,,,2,,,64,0
87570,note_on,90,0,1,,,,,,,,,0,,,85,0
87570,note_on,0,0,1,,,,,,,,,0,,,86,49
87600,note_on,0,0,2,,,,,,,,,1,,,76,36
87600,control_change,1466,0,2,,,,,,,,,1,64,127,,
87600,control_change,114,0,3,,,,,,,,,2,64,127,,
87600,note_on,30,0,1,,,,,,,,,0,,,86,0
87600,control_change,0,0,1,,,,,,,,,0,64,127,,
87600,note_on,0,0,1,,,,,,,,,0,,,88,75
87600,note_on,0,0,3,,,,,,,,,2,,,52,36
87606,note_on,6,0,3,,,,,,,,,2,,,52,0
87660,note_on,54,0,3,,,,,,,,,2,,,64,36
87666,note_on,6,0,3,,,,,,,,,2,,,64,0
87720,note_on,0,0,3,,,,,,,,,2,,,74,36
87720,note_on,54,0,3,,,,,,,,,2,,,68,36
87720,note_on,120,0,1,,,,,,,,,0,,,88,0
87720,note_on,0,0,1,,,,,,,,,0,,,83,49
87726,note_on,0,0,3,,,,,,,,,2,,,68,0
87726,note_on,6,0,3,,,,,,,,,2,,,74,0
87810,note_on,0,0,1,,,,,,,,,0,,,85,49
87810,note_on,90,0,1,,,,,,,,,0,,,83,0
87840,note_on,30,0,1,,,,,,,,,0,,,85,0
87840,note_on,114,0,3,,,,,,,,,2,,,52,36
87840,note_on,0,0,1,,,,,,,,,0,,,86,49
87846,note_on,6,0,3,,,,,,,,,2,,,52,0
87900,note_on,54,0,3,,,,,,,,,2,,,64,36
87906,note_on,6,0,3,,,,,,,,,2,,,64,0
87960,note_on,120,0,1,,,,,,,,,0,,,86,0
87960,note_on,54,0,3,,,,,,,,,2,,,68,36
87960,note_on,360,0,2,,,,,,,,,1,,,76,0
87960,note_on,0,0,2,,,,,,,,,1,,,76,36
87960,note_on,0,0,1,,,,,,,,,0,,,85,49
87966,note_on,6,0,3,,,,,,,,,2,,,68,0
87966,note_on,6,0,1,,,,,,,,,0,,,85,0
87969,note_on,9,0,2,,,,,,,,,1,,,76,0
88020,note_on,0,0,1,,,,,,,,,0,,,83,49
88020,control_change,54,0,1,,,,,,,,,0,64,0,,
88020,control_change,54,0,3,,,,,,,,,2,64,0,,
88024,note_on,4,0,1,,,,,,,,,0,,,83,0
88050,control_change,81,0,2,,,,,,,,,1,64,0,,
88050,note_on,0,0,2,,,,,,,,,1,,,74,36
88054,note_on,4,0,2,,,,,,,,,1,,,74,0
88080,note_on,0,0,1,,,,,,,,,0,,,73,49
88080,note_on,0,0,3,,,,,,,,,2,,,57,36
88080,control_change,60,0,3,,,,,,,,,2,64,127,,
88080,control_change,56,0,1,,,,,,,,,0,64,127,,
88080,note_on,0,0,1,,,,,,,,,0,,,81,49
88086,note_on,6,0,3,,,,,,,,,2,,,57,0
88140,note_on,54,0,3,,,,,,,,,2,,,61,36
88146,note_on,6,0,3,,,,,,,,,2,,,61,0
88200,note_on,120,0,1,,,,,,,,,0,,,81,0
88200,note_on,0,0,1,,,,,,,,,0,,,83,49
88200,note_on,0,0,1,,,,,,,,,0,,,74,49
88200,note_on,0,0,1,,,,,,,,,0,,,73,0
88200,note_on,54,0,3,,,,,,,,,2,,,64,36
88206,note_on,6,0,3,,,,,,,,,2,,,64,0
88290,note_on,0,0,1,,,,,,,,,0,,,74,0
88290,note_on,90,0,1,,,,,,,,,0,,,83,0
88290,note_on,0,0,1,,,,,,,,,0,,,80,49
88290,note_on,0,0,1,,,,,,,,,0,,,76,49
88294,note_on,0,0,1,,,,,,,,,0,,,76,0
88294,note_on,4,0,1,,,,,,,,,0,,,80,0
88320,note_on,0,0,1,,,,,,,,,0,,,73,49
88320,control_change,26,0,1,,,,,,,,,0,64,0,,
88320,note_on,114,0,3,,,,,,,,,2,,,57,36
88320,note_on,0,0,1,,,,,,,,,0,,,81,49
88326,note_on,6,0,3,,,,,,,,,2,,,57,0
88380,note_on,54,0,3,,,,,,,,,2,,,64,36
88386,note_on,6,0,3,,,,,,,,,2,,,64,0
88440,note_on,120,0,1,,,,,,,,,0,,,81,0
88440,note_on,54,0,3,,,,,,,,,2,,,69,36
88440,note_on,0,0,1,,,,,,,,,0,,,73,0
88446,note_on,6,0,3,,,,,,,,,2,,,69,0
88500,note_on,0,0,3,,,,,,,,,2,,,73,36
88500,control_change,54,0,3,,,,,,,,,2,64,0,,
88506,note_on,6,0,3,,,,,,,,,2,,,73,0
88560,control_change,54,0,3,,,,,,,,,2,64,127,,
88560,note_on,120,0,1,,,,,,,,,0,,,69,36
88560,note_on,0,0,3,,,,,,,,,2,,,49,36
88560,note_on,0,0,1,,,,,,,,,0,,,78,36
88566,note_on,6,0,3,,,,,,,,,2,,,49,0
88620,note_on,54,0,3,,,,,,,,,2,,,62,36
88626,note_on,6,0,3,,,,,,,,,2,,,62,0
88680,note_on,54,0,3,,,,,,,,,2,,,61,36
88680,note_on,0,0,1,,,,,,,,,0,,,80,36
88680,note_on,0,0,1,,,,,,,,,0,,,71,36
88680,note_on,0,0,1,,,,,,,,,0,,,69,0
88680,note_on,120,0,1,,,,,,,,,0,,,78,0
88686,note_on,6,0,3,,,,,,,,,2,,,61,0
88740,control_change,54,0,3,,,,,,,,,2,64,0,,
88770,note_on,0,0,1,,,,,,,,,0,,,77,36
88770,note_on,90,0,1,,,,,,,,,0,,,80,0
88770,note_on,0,0,1,,,,,,,,,0,,,73,36
88770,note_on,0,0,1,,,,,,,,,0,,,71,0
88774,note_on,4,0,1,,,,,,,,,0,,,77,0
88774,note_on,0,0,1,,,,,,,,,0,,,73,0
88800,note_on,0,0,3,,,,,,,,,2,,,42,36
88800,note_on,0,0,1,,,,,,,,,0,,,78,36
88800,note_on,26,0,1,,,,,,,,,0,,,69,36
88800,control_change,60,0,3,,,,,,,,,2,64,127,,
88806,note_on,6,0,3,,,,,,,,,2,,,42,0
88860,note_on,54,0,3,,,,,,,,,2,,,66,36
88920,note_on,60,0,3,,,,,,,,,2,,,66,0
88920,note_on,0,0,3,,,,,,,,,2,,,61,36
88920,note_on,0,0,1,,,,,,,,,0,,,81,36
88920,note_on,0,0,1,,,,,,,,,0,,,69,0
88920,note_on,120,0,1,,,,,,,,,0,,,78,0
88980,note_on,60,0,3,,,,,,,,,2,,,61,0
88980,note_on,0,0,3,,,,,,,,,2,,,60,36
88980,note_on,60,0,1,,,,,,,,,0,,,81,0
88980,control_change,0,0,3,,,,,,,,,2,64,0,,
89040,note_on,0,0,1,,,,,,,,,0,,,76,36
89040,control_change,60,0,1,,,,,,,,,0,64,127,,
89040,note_on,0,0,1,,,,,,,,,0,,,68,36
89040,control_change,0,0,3,,,,,,,,,2,64,127,,
89040,note_on,0,0,3,,,,,,,,,2,,,47,36
89040,note_on,60,0,3,,,,,,,,,2,,,60,0
89046,note_on,6,0,3,,,,,,,,,2,,,47,0
89100,note_on,54,0,3,,,,,,,,,2,,,60,36
89106,note_on,6,0,3,,,,,,,,,2,,,60,0
89160,note_on,0,0,1,,,,,,,,,0,,,69,36
89160,note_on,0,0,1,,,,,,,,,0,,,78,36
89160,note_on,0,0,1,,,,,,,,,0,,,68,0
89160,note_on,120,0,1,,,,,,,,,0,,,76,0
89160,note_on,54,0,3,,,,,,,,,2,,,59,36
89166,note_on,6,0,3,,,,,,,,,2,,,59,0
89220,control_change,54,0,3,,,,,,,,,2,64,0,,
89250,control_change,0,0,1,,,,,,,,,0,64,0,,
89250,note_on,0,0,1,,,,,,,,,0,,,75,36
89250,note_on,0,0,1,,,,,,,,,0,,,71,36
89250,note_on,0,0,1,,,,,,,,,0,,,69,0
89250,note_on,90,0,1,,,,,,,,,0,,,78,0
89254,note_on,4,0,1,,,,,,,,,0,,,75,0
89254,note_on,0,0,1,,,,,,,,,0,,,71,0
89280,control_change,60,0,3,,,,,,,,,2,64,127,,
89280,note_on,0,0,3,,,,,,,,,2,,,40,36
89280,note_on,26,0,1,,,,,,,,,0,,,68,36
89280,note_on,0,0,1,,,,,,,,,0,,,76,36
89286,note_on,6,0,3,,,,,,,,,2,,,40,0
89340,note_on,54,0,3,,,,,,,,,2,,,64,36
89346,note_on,6,0,3,,,,,,,,,2,,,64,0
89400,note_on,0,0,1,,,,,,,,,0,,,68,0
89400,note_on,0,0,1,,,,,,,,,0,,,80,36
89400,note_on,120,0,1,,,,,,,,,0,,,76,0
89400,note_on,54,0,3,,,,,,,,,2,,,59,36
89406,note_on,6,0,3,,,,,,,,,2,,,59,0
89460,control_change,54,0,3,,,,,,,,,2,64,0,,
89460,note_on,60,0,1,,,,,,,,,0,,,80,0
89520,note_on,0,0,1,,,,,,,,,0,,,71,36
89520,note_on,0,0,1,,,,,,,,,0,,,75,36
89520,note_on,0,0,3,,,,,,,,,2,,,42,36
89520,control_change,60,0,3,,,,,,,,,2,64,127,,
89520,control_change,60,0,1,,,,,,,,,0,64,127,,
89526,note_on,6,0,3,,,,,,,,,2,,,42,0
89580,note_on,54,0,3,,,,,,,,,2,,,54,36
89586,note_on,6,0,3,,,,,,,,,2,,,54,0
89640,note_on,0,0,1,,,,,,,,,0,,,71,0
89640,note_on,0,0,1,,,,,,,,,0,,,66,36
89640,note_on,0,0,1,,,,,,,,,0,,,78,36
89640,note_on,120,0,1,,,,,,,,,0,,,75,0
89640,note_on,54,0,3,,,,,,,,,2,,,63,36
89646,note_on,6,0,3,,,,,,,,,2,,,63,0
89700,control_change,54,0,3,,,,,,,,,2,64,0,,
89730,control_change,0,0,1,,,,,,,,,0,64,0,,
89730,note_on,0,0,1,,,,,,,,,0,,,75,36
89730,note_on,0,0,1,,,,,,,,,0,,,71,36
89730,note_on,0,0,1,,,,,,,,,0,,,66,0
89730,note_on,90,0,1,,,,,,,,,0,,,78,0
89734,note_on,0,0,1,,,,,,,,,0,,,71,0
89734,note_on,4,0,1,,,,,,,,,0,,,75,0
89760,note_on,0,0,1,,,,,,,,,0,,,70,36
89760,control_change,26,0,1,,,,,,,,,0,64,127,,
89760,control_change,60,0,3,,,,,,,,,2,64,127,,
89760,note_on,0,0,3,,,,,,,,,2,,,42,36
89760,note_on,0,0,1,,,,,,,,,0,,,73,36
89766,note_on,6,0,3,,,,,,,,,2,,,42,0
89820,note_on,54,0,3,,,,,,,,,2,,,54,36
89826,note_on,6,0,3,,,,,,,,,2,,,54,0
89880,note_on,120,0,1,,,,,,,,,0,,,73,0
89880,note_on,0,0,1,,,,,,,,,0,,,70,0
89880,note_on,0,0,1,,,,,,,,,0,,,68,36
89880,note_on,0,0,1,,,,,,,,,0,,,76,36
89880,note_on,54,0,3,,,,,,,,,2,,,61,36
89886,note_on,6,0,3,,,,,,,,,2,,,61,0
89940,control_change,54,0,3,,,,,,,,,2,64,0,,
89970,note_on,0,0,1,,,,,,,,,0,,,64,36
89970,note_on,90,0,1,,,,,,,,,0,,,76,0
89970,note_on,0,0,1,,,,,,,,,0,,,68,0
89970,note_on,0,0,1,,,,,,,,,0,,,70,36
89970,note_on,0,0,1,,,,,,,,,0,,,73,36
89970,control_change,0,0,1,,,,,,,,,0,64,0,,
89974,note_on,0,0,1,,,,,,,,,0,,,70,0
89974,note_on,4,0,1,,,,,,,,,0,,,73,0
89974,note_on,0,0,1,,,,,,,,,0,,,64,0
90000,note_on,26,0,1,,,,,,,,,0,,,63,36
90000,note_on,0,0,1,,,,,,,,,0,,,71,36
90000,key_signature,3360,1,0,,,,,B,,,,,,,,
90000,note_on,0,0,3,,,,,,,,,2,,,47,36
90000,control_change,60,0,3,,,,,,,,,2,64,127,,
90006,note_on,6,0,3,,,,,,,,,2,,,47,0
90060,note_on,54,0,3,,,,,,,,,2,,,51,36
90066,note_on,6,0,3,,,,,,,,,2,,,51,0
90120,note_on,0,0,3,,,,,,,,,2,,,54,36
90120,control_change,54,0,3,,,,,,,,,2,64,0,,
90120,note_on,0,0,1,,,,,,,,,0,,,64,36
90120,note_on,0,0,1,,,,,,,,,0,,,73,36
90120,note_on,120,0,1,,,,,,,,,0,,,71,0
90120,note_on,0,0,1,,,,,,,,,0,,,63,0
90126,note_on,6,0,3,,,,,,,,,2,,,54,0
90210,note_on,0,0,1,,,,,,,,,0,,,64,0
90210,note_on,0,0,1,,,,,,,,,0,,,70,36
90210,note_on,90,0,1,,,,,,,,,0,,,73,0
90210,note_on,0,0,1,,,,,,,,,0,,,66,36
90214,note_on,4,0,1,,,,,,,,,0,,,70,0
90214,note_on,0,0,1,,,,,,,,,0,,,66,0
90240,note_on,26,0,1,,,,,,,,,0,,,63,36
90240,control_change,114,0,3,,,,,,,,,2,64,127,,
90240,note_on,0,0,3,,,,,,,,,2,,,47,36
90240,note_on,0,0,1,,,,,,,,,0,,,71,36
90246,note_on,6,0,3,,,,,,,,,2,,,47,0
90300,note_on,54,0,3,,,,,,,,,2,,,54,36
90306,note_on,6,0,3,,,,,,,,,2,,,54,0
90360,note_on,120,0,1,,,,,,,,,0,,,71,0
90360,note_on,54,0,3,,,,,,,,,2,,,51,36
90360,note_on,0,0,1,,,,,,,,,0,,,63,0
90366,note_on,6,0,3,,,,,,,,,2,,,51,0
90420,note_on,0,0,3,,,,,,,,,2,,,47,36
90420,control_change,54,0,3,,,,,,,,,2,64,0,,
90426,note_on,6,0,3,,,,,,,,,2,,,47,0
90480,control_change,120,0,1,,,,,,,,,0,64,127,,
90480,control_change,54,0,3,,,,,,,,,2,64,127,,
90480,note_on,0,0,3,,,,,,,,,2,,,52,101
90480,note_on,0,0,1,,,,,,,,,0,,,80,62
90510,note_on,0,0,1,,,,,,,,,0,,,70,62
90510,note_on,30,0,1,,,,,,,,,0,,,80,0
90540,note_on,0,0,1,,,,,,,,,0,,,78,62
90540,note_on,30,0,1,,,,,,,,,0,,,70,0
90570,note_on,30,0,1,,,,,,,,,0,,,78,0
90570,note_on,0,0,1,,,,,,,,,0,,,70,62
90600,note_on,30,0,1,,,,,,,,,0,,,70,0
90600,note_on,0,0,1,,,,,,,,,0,,,73,62
90600,note_on,120,0,3,,,,,,,,,2,,,52,0
90600,note_on,0,0,3,,,,,,,,,2,,,54,75
90630,note_on,30,0,1,,,,,,,,,0,,,73,0
90630,note_on,0,0,1,,,,,,,,,0,,,70,62
90660,note_on,30,0,1,,,,,,,,,0,,,70,0
90660,note_on,0,0,1,,,,,,,,,0,,,78,62
90690,note_on,30,0,1,,,,,,,,,0,,,78,0
90690,note_on,90,0,3,,,,,,,,,2,,,54,0
90690,control_change,0,0,3,,,,,,,,,2,64,0,,
90690,note_on,0,0,3,,,,,,,,,2,,,52,75
90690,control_change,0,0,1,,,,,,,,,0,64,0,,
90690,note_on,0,0,1,,,,,,,,,0,,,70,62
90694,note_on,4,0,3,,,,,,,,,2,,,52,0
90720,control_change,26,0,3,,,,,,,,,2,64,127,,
90720,note_on,0,0,3,,,,,,,,,2,,,51,101
90720,note_on,30,0,1,,,,,,,,,0,,,70,0
90720,note_on,0,0,1,,,,,,,,,0,,,80,62
90720,control_change,0,0,1,,,,,,,,,0,64,127,,
90750,note_on,0,0,1,,,,,,,,,0,,,71,62
90750,note_on,30,0,1,,,,,,,,,0,,,80,0
90780,note_on,0,0,1,,,,,,,,,0,,,78,62
90780,note_on,30,0,1,,,,,,,,,0,,,71,0
90810,note_on,30,0,1,,,,,,,,,0,,,78,0
90810,note_on,0,0,1,,,,,,,,,0,,,71,62
90840,note_on,0,0,3,,,,,,,,,2,,,59,75
90840,note_on,120,0,3,,,,,,,,,2,,,51,0
90840,note_on,30,0,1,,,,,,,,,0,,,71,0
90840,note_on,0,0,1,,,,,,,,,0,,,75,62
90870,note_on,30,0,1,,,,,,,,,0,,,75,0
90870,note_on,0,0,1,,,,,,,,,0,,,71,62
90900,note_on,30,0,1,,,,,,,,,0,,,71,0
90900,note_on,0,0,1,,,,,,,,,0,,,78,62
90930,note_on,0,0,1,,,,,,,,,0,,,71,62
90930,control_change,0,0,1,,,,,,,,,0,64,0,,
90930,note_on,30,0,1,,,,,,,,,0,,,78,0
90930,control_change,0,0,3,,,,,,,,,2,64,0,,
90930,note_on,90,0,3,,,,,,,,,2,,,59,0
90930,note_on,0,0,3,,,,,,,,,2,,,51,75
90934,note_on,4,0,3,,,,,,,,,2,,,51,0
90960,control_change,26,0,3,,,,,,,,,2,64,127,,
90960,note_on,30,0,1,,,,,,,,,0,,,71,0
90960,control_change,0,0,1,,,,,,,,,0,64,127,,
90960,note_on,0,0,1,,,,,,,,,0,,,76,62
90960,note_on,0,0,3,,,,,,,,,2,,,49,75
90966,note_on,6,0,3,,,,,,,,,2,,,49,0
90990,note_on,30,0,1,,,,,,,,,0,,,76,0
90990,note_on,0,0,1,,,,,,,,,0,,,66,62
91020,note_on,30,0,1,,,,,,,,,0,,,66,0
91020,note_on,0,0,1,,,,,,,,,0,,,73,62
91020,note_on,54,0,3,,,,,,,,,2,,,52,75
91026,note_on,6,0,3,,,,,,,,,2,,,52,0
91050,note_on,30,0,1,,,,,,,,,0,,,73,0
91050,note_on,0,0,1,,,,,,,,,0,,,66,62
91080,note_on,3026,0,2,,,,,,,,,1,,,78,62
91080,note_on,54,0,3,,,,,,,,,2,,,44,75
91080,note_on,30,0,1,,,,,,,,,0,,,66,0
91080,note_on,0,0,1,,,,,,,,,0,,,71,62
91086,note_on,6,0,3,,,,,,,,,2,,,44,0
91110,note_on,0,0,1,,,,,,,,,0,,,66,62
91110,note_on,30,0,1,,,,,,,,,0,,,71,0
91140,note_on,0,0,1,,,,,,,,,0,,,73,62
91140,note_on,0,0,3,,,,,,,,,2,,,46,75
91140,note_on,30,0,1,,,,,,,,,0,,,66,0
91140,control_change,54,0,3,,,,,,,,,2,64,0,,
91146,note_on,6,0,3,,,,,,,,,2,,,46,0
91170,note_on,30,0,1,,,,,,,,,0,,,73,0
91170,control_change,0,0,1,,,,,,,,,0,64,0,,
91170,note_on,0,0,1,,,,,,,,,0,,,66,62
91200,control_change,54,0,3,,,,,,,,,2,64,127,,
91200,note_on,0,0,3,,,,,,,,,2,,,47,75
91200,note_on,0,0,1,,,,,,,,,0,,,75,62
91200,control_change,0,0,1,,,,,,,,,0,64,127,,
91200,note_on,30,0,1,,,,,,,,,0,,,66,0
91209,note_on,9,0,3,,,,,,,,,2,,,47,0
91230,note_on,150,0,2,,,,,,,,,1,,,78,0
91230,note_on,0,0,1,,,,,,,,,0,,,66,62
91230,note_on,30,0,1,,,,,,,,,0,,,75,0
91260,note_on,0,0,1,,,,,,,,,0,,,71,62
91260,note_on,30,0,1,,,,,,,,,0,,,66,0
91290,note_on,0,0,1,,,,,,,,,0,,,75,62
91290,note_on,81,0,3,,,,,,,,,2,,,49,75
91290,note_on,30,0,1,,,,,,,,,0,,,71,0
91294,note_on,4,0,3,,,,,,,,,2,,,49,0
91320,note_on,26,0,3,,,,,,,,,2,,,51,75
91320,note_on,30,0,1,,,,,,,,,0,,,75,0
91320,note_on,0,0,1,,,,,,,,,0,,,77,62
91326,note_on,6,0,3,,,,,,,,,2,,,51,0
91350,note_on,0,0,1,,,,,,,,,0,,,78,62
91350,note_on,30,0,1,,,,,,,,,0,,,77,0
91380,control_change,54,0,3,,,,,,,,,2,64,0,,
91380,note_on,0,0,1,,,,,,,,,0,,,75,62
91380,note_on,30,0,1,,,,,,,,,0,,,78,0
91410,note_on,0,0,1,,,,,,,,,0,,,71,62
91410,control_change,0,0,1,,,,,,,,,0,64,0,,
91410,note_on,30,0,1,,,,,,,,,0,,,75,0
91440,control_change,60,0,3,,,,,,,,,2,64,127,,
91440,note_on,0,0,3,,,,,,,,,2,,,52,101
91440,note_on,0,0,1,,,,,,,,,0,,,79,62
91440,control_change,0,0,1,,,,,,,,,0,64,127,,
91440,note_on,30,0,1,,,,,,,,,0,,,71,0
91470,note_on,0,0,1,,,,,,,,,0,,,70,62
91470,note_on,30,0,1,,,,,,,,,0,,,79,0
91500,note_on,0,0,1,,,,,,,,,0,,,78,62
91500,note_on,30,0,1,,,,,,,,,0,,,70,0
91530,note_on,30,0,1,,,,,,,,,0,,,78,0
91530,note_on,0,0,1,,,,,,,,,0,,,70,62
91560,note_on,120,0,3,,,,,,,,,2,,,52,0
91560,note_on,0,0,3,,,,,,,,,2,,,54,75
91560,note_on,30,0,1,,,,,,,,,0,,,70,0
91560,note_on,0,0,1,,,,,,,,,0,,,73,62
91590,note_on,30,0,1,,,,,,,,,0,,,73,0
91590,note_on,0,0,1,,,,,,,,,0,,,70,62
91620,note_on,0,0,1,,,,,,,,,0,,,78,62
91620,note_on,30,0,1,,,,,,,,,0,,,70,0
91650,control_change,0,0,3,,,,,,,,,2,64,0,,
91650,note_on,90,0,3,,,,,,,,,2,,,54,0
91650,note_on,0,0,3,,,,,,,,,2,,,52,75
91650,note_on,0,0,1,,,,,,,,,0,,,70,62
91650,note_on,30,0,1,,,,,,,,,0,,,78,0
91650,control_change,0,0,1,,,,,,,,,0,64,0,,
91654,note_on,4,0,3,,,,,,,,,2,,,52,0
91680,note_on,0,0,1,,,,,,,,,0,,,80,62
91680,note_on,30,0,1,,,,,,,,,0,,,70,0
91680,control_change,0,0,1,,,,,,,,,0,64,127,,
91680,control_change,26,0,3,,,,,,,,,2,64,127,,
91680,note_on,0,0,3,,,,,,,,,2,,,51,101
91710,note_on,30,0,1,,,,,,,,,0,,,80,0
91710,note_on,0,0,1,,,,,,,,,0,,,71,62
91740,note_on,30,0,1,,,,,,,,,0,,,71,0
91740,note_on,0,0,1,,,,,,,,,0,,,78,62
91770,note_on,30,0,1,,,,,,,,,0,,,78,0
91770,note_on,0,0,1,,,,,,,,,0,,,71,62
91800,note_on,0,0,1,,,,,,,,,0,,,75,62
91800,note_on,0,0,3,,,,,,,,,2,,,59,75
91800,note_on,120,0,3,,,,,,,,,2,,,51,0
91800,note_on,30,0,1,,,,,,,,,0,,,71,0
91830,note_on,30,0,1,,,,,,,,,0,,,75,0
91830,note_on,0,0,1,,,,,,,,,0,,,71,62
91860,note_on,30,0,1,,,,,,,,,0,,,71,0
91860,note_on,0,0,1,,,,,,,,,0,,,78,62
91890,note_on,90,0,3,,,,,,,,,2,,,59,0
91890,control_change,0,0,3,,,,,,,,,2,64,0,,
91890,note_on,0,0,3,,,,,,,,,2,,,51,75
91890,note_on,30,0,1,,,,,,,,,0,,,78,0
91890,note_on,0,0,1,,,,,,,,,0,,,71,62
91890,control_change,0,0,1,,,,,,,,,0,64,0,,
91894,note_on,4,0,3,,,,,,,,,2,,,51,0
91920,control_change,0,0,1,,,,,,,,,0,64,127,,
91920,note_on,0,0,1,,,,,,,,,0,,,76,62
91920,note_on,30,0,1,,,,,,,,,0,,,71,0
91920,control_change,26,0,3,,,,,,,,,2,64,127,,
91920,note_on,0,0,3,,,,,,,,,2,,,49,75
91926,note_on,6,0,3,,,,,,,,,2,,,49,0
91950,note_on,30,0,1,,,,,,,,,0,,,76,0
91950,note_on,0,0,1,,,,,,,,,0,,,66,62
91980,note_on,30,0,1,,,,,,,,,0,,,66,0
91980,note_on,0,0,1,,,,,,,,,0,,,73,62
91980,note_on,54,0,3,,,,,,,,,2,,,52,75
91986,note_on,6,0,3,,,,,,,,,2,,,52,0
92010,note_on,0,0,1,,,,,,,,,0,,,66,62
92010,note_on,30,0,1,,,,,,,,,0,,,73,0
92040,note_on,810,0,2,,,,,,,,,1,,,78,62
92040,note_on,30,0,1,,,,,,,,,0,,,66,0
92040,note_on,0,0,1,,,,,,,,,0,,,71,62
92040,note_on,54,0,3,,,,,,,,,2,,,44,75
92046,note_on,6,0,3,,,,,,,,,2,,,44,0
92070,note_on,30,0,1,,,,,,,,,0,,,71,0
92070,note_on,0,0,1,,,,,,,,,0,,,66,62
92100,control_change,54,0,3,,,,,,,,,2,64,0,,
92100,note_on,0,0,3,,,,,,,,,2,,,46,75
92100,note_on,30,0,1,,,,,,,,,0,,,66,0
92100,note_on,0,0,1,,,,,,,,,0,,,73,62
92106,note_on,6,0,3,,,,,,,,,2,,,46,0
92130,control_change,0,0,1,,,,,,,,,0,64,0,,
92130,note_on,30,0,1,,,,,,,,,0,,,73,0
92130,note_on,0,0,1,,,,,,,,,0,,,66,62
92160,note_on,30,0,1,,,,,,,,,0,,,66,0
92160,control_change,0,0,1,,,,,,,,,0,64,127,,
92160,note_on,0,0,1,,,,,,,,,0,,,75,62
92160,control_change,54,0,3,,,,,,,,,2,64,127,,
92160,note_on,0,0,3,,,,,,,,,2,,,47,75
92169,note_on,9,0,3,,,,,,,,,2,,,47,0
92190,note_on,30,0,1,,,,,,,,,0,,,75,0
92190,note_on,0,0,1,,,,,,,,,0,,,66,62
92190,note_on,150,0,2,,,,,,,,,1,,,78,0
92220,note_on,30,0,1,,,,,,,,,0,,,66,0
92220,note_on,0,0,1,,,,,,,,,0,,,71,62
92250,note_on,81,0,3,,,,,,,,,2,,,49,75
92250,note_on,0,0,1,,,,,,,,,0,,,75,62
92250,note_on,30,0,1,,,,,,,,,0,,,71,0
92254,note_on,4,0,3,,,,,,,,,2,,,49,0
92280,note_on,26,0,3,,,,,,,,,2,,,51,75
92280,note_on,0,0,1,,,,,,,,,0,,,77,62
92280,note_on,30,0,1,,,,,,,,,0,,,75,0
92286,note_on,6,0,3,,,,,,,,,2,,,51,0
92310,note_on,30,0,1,,,,,,,,,0,,,77,0
92310,note_on,0,0,1,,,,,,,,,0,,,78,62
92340,control_change,54,0,3,,,,,,,,,2,64,0,,
92340,note_on,30,0,1,,,,,,,,,0,,,78,0
92340,note_on,0,0,1,,,,,,,,,0,,,75,62
92370,note_on,30,0,1,,,,,,,,,0,,,75,0
92370,control_change,0,0,1,,,,,,,,,0,64,0,,
92370,note_on,0,0,1,,,,,,,,,0,,,71,62
92400,control_change,60,0,3,,,,,,,,,2,64,127,,
92400,note_on,0,0,3,,,,,,,,,2,,,58,75
92400,note_on,30,0,1,,,,,,,,,0,,,71,0
92400,note_on,0,0,1,,,,,,,,,0,,,73,62
92400,control_change,0,0,1,,,,,,,,,0,64,127,,
92406,note_on,6,0,3,,,,,,,,,2,,,58,0
92430,note_on,0,0,1,,,,,,,,,0,,,63,62
92430,note_on,30,0,1,,,,,,,,,0,,,73,0
92460,note_on,54,0,3,,,,,,,,,2,,,61,75
92460,note_on,0,0,1,,,,,,,,,0,,,70,62
92460,note_on,30,0,1,,,,,,,,,0,,,63,0
92466,note_on,6,0,3,,,,,,,,,2,,,61,0
92490,note_on,0,0,1,,,,,,,,,0,,,63,62
92490,note_on,30,0,1,,,,,,,,,0,,,70,0
92520,note_on,54,0,3,,,,,,,,,2,,,53,75
92520,note_on,0,0,1,,,,,,,,,0,,,68,62
92520,note_on,30,0,1,,,,,,,,,0,,,63,0
92520,note_on,330,0,2,,,,,,,,,1,,,75,62
92526,note_on,6,0,3,,,,,,,,,2,,,53,0
92550,note_on,0,0,1,,,,,,,,,0,,,63,62
92550,note_on,30,0,1,,,,,,,,,0,,,68,0
92580,note_on,0,0,3,,,,,,,,,2,,,55,75
92580,note_on,0,0,1,,,,,,,,,0,,,70,62
92580,note_on,30,0,1,,,,,,,,,0,,,63,0
92580,control_change,54,0,3,,,,,,,,,2,64,0,,
92586,note_on,6,0,3,,,,,,,,,2,,,55,0
92610,note_on,0,0,1,,,,,,,,,0,,,63,62
92610,note_on,30,0,1,,,,,,,,,0,,,70,0
92610,control_change,0,0,1,,,,,,,,,0,64,0,,
92640,note_on,0,0,1,,,,,,,,,0,,,71,62
92640,note_on,30,0,1,,,,,,,,,0,,,63,0
92640,control_change,0,0,1,,,,,,,,,0,64,127,,
92640,note_on,0,0,3,,,,,,,,,2,,,56,75
92640,control_change,54,0,3,,,,,,,,,2,64,127,,
92649,note_on,9,0,3,,,,,,,,,2,,,56,0
92670,note_on,30,0,1,,,,,,,,,0,,,71,0
92670,note_on,0,0,1,,,,,,,,,0,,,63,62
92670,note_on,150,0,2,,,,,,,,,1,,,75,0
92700,note_on,30,0,1,,,,,,,,,0,,,63,0
92700,note_on,0,0,1,,,,,,,,,0,,,68,62
92730,note_on,81,0,3,,,,,,,,,2,,,58,75
92730,note_on,30,0,1,,,,,,,,,0,,,68,0
92730,note_on,0,0,1,,,,,,,,,0,,,71,62
92734,note_on,4,0,3,,,,,,,,,2,,,58,0
92760,note_on,0,0,1,,,,,,,,,0,,,74,62
92760,note_on,26,0,3,,,,,,,,,2,,,59,75
92760,note_on,30,0,1,,,,,,,,,0,,,71,0
92766,note_on,6,0,3,,,,,,,,,2,,,59,0
92790,note_on,0,0,1,,,,,,,,,0,,,75,62
92790,note_on,30,0,1,,,,,,,,,0,,,74,0
92820,control_change,54,0,3,,,,,,,,,2,64,0,,
92820,note_on,0,0,1,,,,,,,,,0,,,71,62
92820,note_on,30,0,1,,,,,,,,,0,,,75,0
92850,control_change,0,0,1,,,,,,,,,0,64,0,,
92850,note_on,0,0,1,,,,,,,,,0,,,68,62
92850,note_on,30,0,1,,,,,,,,,0,,,71,0
92880,note_on,30,0,1,,,,,,,,,0,,,68,0
92880,note_on,0,0,1,,,,,,,,,0,,,69,36
92880,note_on,0,0,3,,,,,,,,,2,,,54,49
92880,control_change,60,0,3,,,,,,,,,2,64,127,,
92880,control_change,0,0,1,,,,,,,,,0,64,127,,
92886,note_on,6,0,3,,,,,,,,,2,,,54,0
92910,note_on,30,0,1,,,,,,,,,0,,,69,0
92910,note_on,0,0,1,,,,,,,,,0,,,59,36
92940,note_on,54,0,3,,,,,,,,,2,,,57,49
92940,note_on,0,0,1,,,,,,,,,0,,,66,36
92940,note_on,30,0,1,,,,,,,,,0,,,59,0
92946,note_on,6,0,3,,,,,,,,,2,,,57,0
92970,note_on,0,0,1,,,,,,,,,0,,,59,36
92970,note_on,30,0,1,,,,,,,,,0,,,66,0
93000,note_on,30,0,1,,,,,,,,,0,,,59,0
93000,note_on,54,0,3,,,,,,,,,2,,,49,49
93000,note_on,330,0,2,,,,,,,,,1,,,71,62
93000,note_on,0,0,1,,,,,,,,,0,,,64,36
93006,note_on,6,0,3,,,,,,,,,2,,,49,0
93030,note_on,30,0,1,,,,,,,,,0,,,64,0
93030,note_on,0,0,1,,,,,,,,,0,,,59,36
93060,note_on,30,0,1,,,,,,,,,0,,,59,0
93060,note_on,0,0,3,,,,,,,,,2,,,51,49
93060,control_change,54,0,3,,,,,,,,,2,64,0,,
93060,note_on,0,0,1,,,,,,,,,0,,,66,36
93066,note_on,6,0,3,,,,,,,,,2,,,51,0
93090,note_on,30,0,1,,,,,,,,,0,,,66,0
93090,control_change,0,0,1,,,,,,,,,0,64,0,,
93090,note_on,0,0,1,,,,,,,,,0,,,59,36
93120,note_on,30,0,1,,,,,,,,,0,,,59,0
93120,note_on,0,0,3,,,,,,,,,2,,,52,49
93120,note_on,0,0,1,,,,,,,,,0,,,68,36
93120,control_change,0,0,1,,,,,,,,,0,64,127,,
93120,control_change,54,0,3,,,,,,,,,2,64,127,,
93129,note_on,9,0,3,,,,,,,,,2,,,52,0
93150,note_on,0,0,1,,,,,,,,,0,,,59,36
93150,note_on,30,0,1,,,,,,,,,0,,,68,0
93150,note_on,150,0,2,,,,,,,,,1,,,71,0
93180,note_on,0,0,1,,,,,,,,,0,,,64,36
93180,note_on,30,0,1,,,,,,,,,0,,,59,0
93210,note_on,0,0,1,,,,,,,,,0,,,68,36
93210,note_on,30,0,1,,,,,,,,,0,,,64,0
93210,note_on,81,0,3,,,,,,,,,2,,,54,49
93214,note_on,4,0,3,,,,,,,,,2,,,54,0
93240,note_on,26,0,3,,,,,,,,,2,,,56,49
93240,note_on,0,0,1,,,,,,,,,0,,,70,36
93240,note_on,30,0,1,,,,,,,,,0,,,68,0
93246,note_on,6,0,3,,,,,,,,,2,,,56,0
93270,note_on,30,0,1,,,,,,,,,0,,,70,0
93270,note_on,0,0,1,,,,,,,,,0,,,71,36
93300,note_on,30,0,1,,,,,,,,,0,,,71,0
93300,note_on,0,0,1,,,,,,,,,0,,,68,36
93300,control_change,54,0,3,,,,,,,,,2,64,0,,
93330,note_on,0,0,1,,,,,,,,,0,,,64,36
93330,note_on,30,0,1,,,,,,,,,0,,,68,0
93330,control_change,0,0,1,,,,,,,,,0,64,0,,
93360,control_change,60,0,3,,,,,,,,,2,64,127,,
93360,note_on,0,0,1,,,,,,,,,0,,,63,36
93360,control_change,0,0,1,,,,,,,,,0,64,127,,
93360,note_on,30,0,1,,,,,,,,,0,,,64,0
93360,note_on,0,0,3,,,,,,,,,2,,,54,49
93366,note_on,6,0,3,,,,,,,,,2,,,54,0
93390,note_on,0,0,1,,,,,,,,,0,,,66,36
93390,note_on,30,0,1,,,,,,,,,0,,,63,0
93420,note_on,0,0,1,,,,,,,,,0,,,71,36
93420,note_on,30,0,1,,,,,,,,,0,,,66,0
93420,note_on,54,0,3,,,,,,,,,2,,,59,114
93426,note_on,6,0,3,,,,,,,,,2,,,59,0
93450,note_on,0,0,1,,,,,,,,,0,,,66,36
93450,note_on,30,0,1,,,,,,,,,0,,,71,0
93480,note_on,54,0,3,,,,,,,,,2,,,54,49
93480,note_on,0,0,1,,,,,,,,,0,,,64,36
93480,note_on,30,0,1,,,,,,,,,0,,,66,0
93486,note_on,6,0,3,,,,,,,,,2,,,54,0
93510,note_on,0,0,1,,,,,,,,,0,,,66,36
93510,note_on,30,0,1,,,,,,,,,0,,,64,0
93540,note_on,0,0,1,,,,,,,,,0,,,76,36
93540,note_on,30,0,1,,,,,,,,,0,,,66,0
93540,note_on,0,0,3,,,,,,,,,2,,,61,114
93540,control_change,54,0,3,,,,,,,,,2,64,0,,
93546,note_on,6,0,3,,,,,,,,,2,,,61,0
93570,note_on,30,0,1,,,,,,,,,0,,,76,0
93570,control_change,0,0,1,,,,,,,,,0,64,0,,
93570,note_on,0,0,1,,,,,,,,,0,,,70,36
93600,control_change,0,0,1,,,,,,,,,0,64,127,,
93600,note_on,0,0,3,,,,,,,,,2,,,59,49
93600,control_change,54,0,3,,,,,,,,,2,64,127,,
93600,note_on,30,0,1,,,,,,,,,0,,,70,0
93600,note_on,0,0,1,,,,,,,,,0,,,63,36
93606,note_on,6,0,3,,,,,,,,,2,,,59,0
93630,note_on,30,0,1,,,,,,,,,0,,,63,0
93630,note_on,0,0,1,,,,,,,,,0,,,71,36
93660,note_on,30,0,1,,,,,,,,,0,,,71,0
93660,note_on,0,0,1,,,,,,,,,0,,,66,36
93660,control_change,54,0,3,,,,,,,,,2,64,0,,
93690,note_on,30,0,1,,,,,,,,,0,,,66,0
93690,note_on,0,0,1,,,,,,,,,0,,,75,36
93720,note_on,30,0,1,,,,,,,,,0,,,75,0
93720,note_on,0,0,1,,,,,,,,,0,,,71,36
93750,note_on,30,0,1,,,,,,,,,0,,,71,0
93750,note_on,0,0,1,,,,,,,,,0,,,78,36
93780,note_on,30,0,1,,,,,,,,,0,,,78,0
93780,note_on,0,0,1,,,,,,,,,0,,,75,36
93810,note_on,0,0,1,,,,,,,,,0,,,83,36
93810,note_on,30,0,1,,,,,,,,,0,,,75,0
93810,control_change,0,0,1,,,,,,,,,0,64,0,,
93840,control_change,180,0,3,,,,,,,,,2,64,127,,
93840,note_on,0,0,1,,,,,,,,,0,,,75,36
93840,note_on,30,0,1,,,,,,,,,0,,,83,0
93840,control_change,0,0,1,,,,,,,,,0,64,127,,
93840,note_on,0,0,3,,,,,,,,,2,,,66,49
93846,note_on,6,0,3,,,,,,,,,2,,,66,0
93870,note_on,30,0,1,,,,,,,,,0,,,75,0
93870,note_on,0,0,1,,,,,,,,,0,,,78,36
93900,note_on,54,0,3,,,,,,,,,2,,,71,114
93900,note_on,30,0,1,,,,,,,,,0,,,78,0
93900,set_tempo,3900,1,0,,,,,,512821,,,,,,,
93900,note_on,0,0,1,,,,,,,,,0,,,87,36
93906,note_on,6,0,3,,,,,,,,,2,,,71,0
93930,note_on,0,0,1,,,,,,,,,0,,,83,36
93930,note_on,30,0,1,,,,,,,,,0,,,87,0
93960,note_on,0,0,1,,,,,,,,,0,,,76,36
93960,note_on,30,0,1,,,,,,,,,0,,,83,0
93960,set_tempo,60,1,0,,,,,,526316,,,,,,,
93960,note_on,54,0,3,,,,,,,,,2,,,66,49
93966,note_on,6,0,3,,,,,,,,,2,,,66,0
93990,note_on,0,0,1,,,,,,,,,0,,,78,36
93990,note_on,30,0,1,,,,,,,,,0,,,76,0
94020,control_change,54,0,3,,,,,,,,,2,64,0,,
94020,note_on,0,0,3,,,,,,,,,2,,,73,114
94020,note_on,0,0,1,,,,,,,,,0,,,88,36
94020,note_on,30,0,1,,,,,,,,,0,,,78,0
94020,set_tempo,60,1,0,,,,,,540541,,,,,,,
94026,note_on,6,0,3,,,,,,,,,2,,,73,0
94050,note_on,0,0,1,,,,,,,,,0,,,82,36
94050,note_on,30,0,1,,,,,,,,,0,,,88,0
94050,control_change,0,0,1,,,,,,,,,0,64,0,,
94080,set_tempo,60,1,0,,,,,,560748,,,,,,,
94080,note_on,0,0,1,,,,,,,,,0,,,75,36
94080,note_on,0,0,3,,,,,,,,,2,,,71,49
94080,control_change,0,0,1,,,,,,,,,0,64,127,,
94080,control_change,54,0,3,,,,,,,,,2,64,127,,
94080,note_on,30,0,1,,,,,,,,,0,,,82,0
94086,note_on,6,0,3,,,,,,,,,2,,,71,0
94110,note_on,0,0,1,,,,,,,,,0,,,83,36
94110,note_on,30,0,1,,,,,,,,,0,,,75,0
94140,note_on,0,0,1,,,,,,,,,0,,,78,36
94140,note_on,30,0,1,,,,,,,,,0,,,83,0
94140,set_tempo,60,1,0,,,,,,576923,,,,,,,
94140,control_change,54,0,3,,,,,,,,,2,64,0,,
94170,note_on,0,0,1,,,,,,,,,0,,,87,36
94170,note_on,30,0,1,,,,,,,,,0,,,78,0
94200,note_on,30,0,1,,,,,,,,,0,,,87,0
94200,note_on,0,0,1,,,,,,,,,0,,,83,36
94200,set_tempo,60,1,0,,,,,,594059,,,,,,,
94230,note_on,30,0,1,,,,,,,,,0,,,83,0
94230,note_on,0,0,1,,,,,,,,,0,,,90,36
94260,set_tempo,60,1,0,,,,,,612245,,,,,,,
94260,note_on,30,0,1,,,,,,,,,0,,,90,0
94260,note_on,0,0,1,,,,,,,,,0,,,87,36
94290,note_on,30,0,1,,,,,,,,,0,,,87,0
94290,control_change,0,0,1,,,,,,,,,0,64,0,,
94290,note_on,0,0,1,,,,,,,,,0,,,83,36
94320,control_change,1170,0,2,,,,,,,,,1,64,127,,
94320,note_on,0,0,2,,,,,,,,,1,,,76,36
94320,set_tempo,60,1,0,,,,,,517241,,,,,,,
94320,note_on,0,0,1,,,,,,,,,0,,,85,49
94320,note_on,30,0,1,,,,,,,,,0,,,83,0
94320,note_on,180,0,3,,,,,,,,,2,,,54,49
94320,control_change,0,0,1,,,,,,,,,0,64,127,,
94350,note_on,30,0,2,,,,,,,,,1,,,76,0
94350,note_on,0,0,2,,,,,,,,,1,,,78,36
94380,note_on,60,0,1,,,,,,,,,0,,,85,0
94380,note_on,0,0,2,,,,,,,,,1,,,76,36
94380,note_on,30,0,2,,,,,,,,,1,,,78,0
94380,note_on,0,0,1,,,,,,,,,0,,,88,49
94410,note_on,30,0,2,,,,,,,,,1,,,76,0
94410,note_on,0,0,2,,,,,,,,,1,,,78,36
94440,note_on,30,0,2,,,,,,,,,1,,,78,0
94440,note_on,0,0,2,,,,,,,,,1,,,76,36
94440,note_on,0,0,1,,,,,,,,,0,,,80,49
94440,note_on,60,0,1,,,,,,,,,0,,,88,0
94440,note_on,120,0,3,,,,,,,,,2,,,54,0
94470,note_on,30,0,2,,,,,,,,,1,,,76,0
94470,note_on,0,0,2,,,,,,,,,1,,,78,36
94500,note_on,30,0,2,,,,,,,,,1,,,78,0
94500,note_on,0,0,2,,,,,,,,,1,,,76,36
94500,note_on,60,0,1,,,,,,,,,0,,,80,0
94500,control_change,0,0,1,,,,,,,,,0,64,0,,
94500,note_on,0,0,1,,,,,,,,,0,,,82,49
94500,note_on,60,0,3,,,,,,,,,2,,,66,75
94530,note_on,0,0,2,,,,,,,,,1,,,78,36
94530,control_change,0,0,2,,,,,,,,,1,64,0,,
94530,note_on,30,0,2,,,,,,,,,1,,,76,0
94560,note_on,60,0,3,,,,,,,,,2,,,66,0
94560,note_on,60,0,1,,,,,,,,,0,,,82,0
94560,control_change,0,0,1,,,,,,,,,0,64,127,,
94560,note_on,0,0,1,,,,,,,,,0,,,85,49
94560,note_on,0,0,3,,,,,,,,,2,,,59,49
94560,note_on,30,0,2,,,,,,,,,1,,,78,0
94560,control_change,0,0,2,,,,,,,,,1,64,127,,
94560,note_on,0,0,2,,,,,,,,,1,,,75,36
94560,control_change,0,0,3,,,,,,,,,2,64,127,,
94566,note_on,6,0,3,,,,,,,,,2,,,59,0
94590,note_on,30,0,2,,,,,,,,,1,,,75,0
94590,note_on,0,0,2,,,,,,,,,1,,,78,36
94620,note_on,0,0,1,,,,,,,,,0,,,83,49
94620,note_on,54,0,3,,,,,,,,,2,,,63,49
94620,note_on,60,0,1,,,,,,,,,0,,,85,0
94620,note_on,0,0,2,,,,,,,,,1,,,75,36
94620,note_on,30,0,2,,,,,,,,,1,,,78,0
94626,note_on,6,0,3,,,,,,,,,2,,,63,0
94650,note_on,0,0,2,,,,,,,,,1,,,78,36
94650,note_on,30,0,2,,,,,,,,,1,,,75,0
94680,note_on,30,0,2,,,,,,,,,1,,,78,0
94680,note_on,60,0,1,,,,,,,,,0,,,83,0
94680,note_on,54,0,3,,,,,,,,,2,,,51,49
94680,note_on,0,0,2,,,,,,,,,1,,,75,36
94686,note_on,6,0,3,,,,,,,,,2,,,51,0
94710,note_on,30,0,2,,,,,,,,,1,,,75,0
94710,note_on,0,0,2,,,,,,,,,1,,,78,36
94740,note_on,0,0,3,,,,,,,,,2,,,53,49
94740,note_on,0,0,2,,,,,,,,,1,,,80,36
94740,control_change,54,0,3,,,,,,,,,2,64,0,,
94740,control_change,60,0,1,,,,,,,,,0,64,0,,
94740,note_on,0,0,1,,,,,,,,,0,,,87,49
94740,note_on,30,0,2,,,,,,,,,1,,,78,0
94746,note_on,6,0,3,,,,,,,,,2,,,53,0
94770,note_on,0,0,2,,,,,,,,,1,,,83,36
94770,control_change,0,0,2,,,,,,,,,1,64,0,,
94770,note_on,30,0,2,,,,,,,,,1,,,80,0
94800,note_on,0,0,2,,,,,,,,,1,,,82,36
94800,control_change,0,0,2,,,,,,,,,1,64,127,,
94800,note_on,30,0,2,,,,,,,,,1,,,83,0
94800,note_on,60,0,1,,,,,,,,,0,,,87,0
94800,note_on,0,0,1,,,,,,,,,0,,,85,49
94800,control_change,0,0,1,,,,,,,,,0,64,127,,
94800,note_on,0,0,3,,,,,,,,,2,,,54,49
94800,control_change,54,0,3,,,,,,,,,2,64,127,,
94806,note_on,6,0,3,,,,,,,,,2,,,54,0
94830,note_on,0,0,2,,,,,,,,,1,,,78,36
94830,note_on,30,0,2,,,,,,,,,1,,,82,0
94860,note_on,0,0,2,,,,,,,,,1,,,76,36
94860,note_on,0,0,1,,,,,,,,,0,,,88,49
94860,note_on,30,0,2,,,,,,,,,1,,,78,0
94860,note_on,60,0,1,,,,,,,,,0,,,85,0
94860,note_on,54,0,3,,,,,,,,,2,,,42,49
94866,note_on,6,0,3,,,,,,,,,2,,,42,0
94890,note_on,30,0,2,,,,,,,,,1,,,76,0
94890,note_on,0,0,2,,,,,,,,,1,,,78,36
94920,note_on,0,0,1,,,,,,,,,0,,,80,49
94920,note_on,0,0,2,,,,,,,,,1,,,76,36
94920,note_on,60,0,1,,,,,,,,,0,,,88,0
94920,note_on,30,0,2,,,,,,,,,1,,,78,0
94950,note_on,30,0,2,,,,,,,,,1,,,76,0
94950,note_on,0,0,2,,,,,,,,,1,,,78,36
94980,note_on,30,0,2,,,,,,,,,1,,,78,0
94980,note_on,0,0,2,,,,,,,,,1,,,76,36
94980,note_on,0,0,1,,,,,,,,,0,,,82,49
94980,note_on,60,0,1,,,,,,,,,0,,,80,0
94980,control_change,0,0,1,,,,,,,,,0,64,0,,
94980,control_change,114,0,3,,,,,,,,,2,64,0,,
94980,note_on,0,0,3,,,,,,,,,2,,,66,75
95010,note_on,0,0,2,,,,,,,,,1,,,78,36
95010,control_change,0,0,2,,,,,,,,,1,64,0,,
95010,note_on,30,0,2,,,,,,,,,1,,,76,0
95040,control_change,0,0,1,,,,,,,,,0,64,127,,
95040,control_change,0,0,3,,,,,,,,,2,64,127,,
95040,note_on,0,0,2,,,,,,,,,1,,,75,36
95040,control_change,0,0,2,,,,,,,,,1,64,127,,
95040,note_on,30,0,2,,,,,,,,,1,,,78,0
95040,note_on,0,0,1,,,,,,,,,0,,,85,49
95040,note_on,0,0,3,,,,,,,,,2,,,59,49
95040,note_on,60,0,1,,,,,,,,,0,,,82,0
95040,note_on,60,0,3,,,,,,,,,2,,,66,0
95046,note_on,6,0,3,,,,,,,,,2,,,59,0
95070,note_on,0,0,2,,,,,,,,,1,,,78,36
95070,note_on,30,0,2,,,,,,,,,1,,,75,0
95100,note_on,60,0,1,,,,,,,,,0,,,85,0
95100,note_on,30,0,2,,,,,,,,,1,,,78,0
95100,note_on,0,0,2,,,,,,,,,1,,,75,36
95100,note_on,0,0,1,,,,,,,,,0,,,83,49
95100,note_on,54,0,3,,,,,,,,,2,,,63,49
95106,note_on,6,0,3,,,,,,,,,2,,,63,0
95130,note_on,0,0,2,,,,,,,,,1,,,78,36
95130,note_on,30,0,2,,,,,,,,,1,,,75,0
95160,note_on,54,0,3,,,,,,,,,2,,,51,49
95160,note_on,30,0,2,,,,,,,,,1,,,78,0
95160,note_on,60,0,1,,,,,,,,,0,,,83,0
95160,note_on,0,0,2,,,,,,,,,1,,,75,36
95166,note_on,6,0,3,,,,,,,,,2,,,51,0
95190,note_on,30,0,2,,,,,,,,,1,,,75,0
95190,note_on,0,0,2,,,,,,,,,1,,,78,36
95220,note_on,30,0,2,,,,,,,,,1,,,78,0
95220,note_on,0,0,2,,,,,,,,,1,,,80,36
95220,note_on,0,0,3,,,,,,,,,2,,,53,49
95220,note_on,0,0,1,,,,,,,,,0,,,87,49
95220,control_change,60,0,1,,,,,,,,,0,64,0,,
95220,control_change,54,0,3,,,,,,,,,2,64,0,,
95226,note_on,6,0,3,,,,,,,,,2,,,53,0
95250,note_on,0,0,2,,,,,,,,,1,,,83,36
95250,control_change,0,0,2,,,,,,,,,1,64,0,,
95250,note_on,30,0,2,,,,,,,,,1,,,80,0
95280,note_on,60,0,1,,,,,,,,,0,,,87,0
95280,control_change,0,0,1,,,,,,,,,0,64,127,,
95280,note_on,0,0,1,,,,,,,,,0,,,85,49
95280,note_on,0,0,3,,,,,,,,,2,,,54,49
95280,note_on,0,0,2,,,,,,,,,1,,,82,36
95280,control_change,0,0,2,,,,,,,,,1,64,127,,
95280,note_on,30,0,2,,,,,,,,,1,,,83,0
95280,control_change,54,0,3,,,,,,,,,2,64,127,,
95310,note_on,30,0,2,,,,,,,,,1,,,82,0
95310,note_on,0,0,2,,,,,,,,,1,,,78,36
95340,note_on,30,0,2,,,,,,,,,1,,,78,0
95340,note_on,0,0,3,,,,,,,,,2,,,58,49
95340,note_on,0,0,2,,,,,,,,,1,,,77,36
95340,note_on,60,0,3,,,,,,,,,2,,,54,0
95370,note_on,0,0,2,,,,,,,,,1,,,78,36
95370,note_on,30,0,2,,,,,,,,,1,,,77,0
95400,note_on,0,0,1,,,,,,,,,0,,,80,49
95400,note_on,120,0,1,,,,,,,,,0,,,85,0
95400,note_on,60,0,3,,,,,,,,,2,,,58,0
95400,note_on,0,0,3,,,,,,,,,2,,,59,49
95400,note_on,0,0,2,,,,,,,,,1,,,75,36
95400,note_on,30,0,2,,,,,,,,,1,,,78,0
95430,note_on,30,0,2,,,,,,,,,1,,,75,0
95430,note_on,0,0,2,,,,,,,,,1,,,78,36
95460,note_on,0,0,3,,,,,,,,,2,,,61,49
95460,control_change,0,0,3,,,,,,,,,2,64,0,,
95460,note_on,0,0,1,,,,,,,,,0,,,83,49
95460,note_on,60,0,3,,,,,,,,,2,,,59,0
95460,note_on,60,0,1,,,,,,,,,0,,,80,0
95460,note_on,0,0,2,,,,,,,,,1,,,77,36
95460,note_on,30,0,2,,,,,,,,,1,,,78,0
95460,control_change,0,0,1,,,,,,,,,0,64,0,,
95490,note_on,0,0,2,,,,,,,,,1,,,80,36
95490,control_change,0,0,2,,,,,,,,,1,64,0,,
95490,note_on,30,0,2,,,,,,,,,1,,,77,0
95520,note_on,0,0,2,,,,,,,,,1,,,78,36
95520,control_change,0,0,2,,,,,,,,,1,64,127,,
95520,control_change,0,0,3,,,,,,,,,2,64,127,,
95520,note_on,60,0,3,,,,,,,,,2,,,61,0
95520,note_on,30,0,2,,,,,,,,,1,,,80,0
95520,note_on,0,0,3,,,,,,,,,2,,,66,49
95520,note_on,0,0,1,,,,,,,,,0,,,82,49
95520,note_on,60,0,1,,,,,,,,,0,,,83,0
95550,note_on,0,0,2,,,,,,,,,1,,,73,36
95550,note_on,30,0,2,,,,,,,,,1,,,78,0
95580,note_on,30,0,2,,,,,,,,,1,,,73,0
95580,note_on,0,0,2,,,,,,,,,1,,,70,36
95580,note_on,0,0,3,,,,,,,,,2,,,54,49
95580,note_on,60,0,3,,,,,,,,,2,,,66,0
95610,note_on,30,0,2,,,,,,,,,1,,,70,0
95610,note_on,0,0,2,,,,,,,,,1,,,73,36
95640,note_on,0,0,3,,,,,,,,,2,,,56,49
95640,note_on,60,0,3,,,,,,,,,2,,,54,0
95640,note_on,120,0,1,,,,,,,,,0,,,82,0
95640,note_on,30,0,2,,,,,,,,,1,,,73,0
95640,note_on,0,0,2,,,,,,,,,1,,,71,36
95670,note_on,30,0,2,,,,,,,,,1,,,71,0
95670,note_on,0,0,2,,,,,,,,,1,,,76,36
95700,note_on,60,0,3,,,,,,,,,2,,,56,0
95700,note_on,60,0,1,,,,,,,,,0,,,80,49
95700,note_on,0,0,3,,,,,,,,,2,,,58,49
95700,control_change,0,0,3,,,,,,,,,2,64,0,,
95700,note_on,30,0,2,,,,,,,,,1,,,76,0
95700,note_on,0,0,2,,,,,,,,,1,,,73,36
95730,note_on,0,0,2,,,,,,,,,1,,,76,36
95730,control_change,0,0,2,,,,,,,,,1,64,0,,
95730,note_on,30,0,2,,,,,,,,,1,,,73,0
95760,note_on,30,0,2,,,,,,,,,1,,,76,0
95760,control_change,0,0,2,,,,,,,,,1,64,127,,
95760,note_on,0,0,2,,,,,,,,,1,,,75,36
95760,note_on,60,0,3,,,,,,,,,2,,,58,0
95760,note_on,0,0,1,,,,,,,,,0,,,78,49
95760,control_change,0,0,1,,,,,,,,,0,64,127,,
95760,note_on,0,0,3,,,,,,,,,2,,,59,49
95760,control_change,0,0,3,,,,,,,,,2,64,127,,
95760,note_on,60,0,1,,,,,,,,,0,,,80,0
95790,note_on,0,0,2,,,,,,,,,1,,,71,36
95790,note_on,30,0,2,,,,,,,,,1,,,75,0
95820,note_on,0,0,2,,,,,,,,,1,,,70,36
95820,note_on,30,0,2,,,,,,,,,1,,,71,0
95820,note_on,0,0,3,,,,,,,,,2,,,51,49
95820,note_on,60,0,3,,,,,,,,,2,,,59,0
95850,note_on,30,0,2,,,,,,,,,1,,,70,0
95850,note_on,0,0,2,,,,,,,,,1,,,71,36
95880,note_on,0,0,1,,,,,,,,,0,,,73,49
95880,note_on,30,0,2,,,,,,,,,1,,,71,0
95880,note_on,0,0,2,,,,,,,,,1,,,68,36
95880,note_on,60,0,3,,,,,,,,,2,,,51,0
95880,note_on,0,0,3,,,,,,,,,2,,,52,49
95880,note_on,120,0,1,,,,,,,,,0,,,78,0
95910,note_on,30,0,2,,,,,,,,,1,,,68,0
95910,note_on,0,0,2,,,,,,,,,1,,,71,36
95940,note_on,60,0,1,,,,,,,,,0,,,73,0
95940,control_change,0,0,1,,,,,,,,,0,64,0,,
95940,note_on,0,0,1,,,,,,,,,0,,,76,49
95940,note_on,60,0,3,,,,,,,,,2,,,52,0
95940,note_on,0,0,3,,,,,,,,,2,,,54,49
95940,note_on,0,0,2,,,,,,,,,1,,,70,36
95940,note_on,30,0,2,,,,,,,,,1,,,71,0
95940,control_change,0,0,3,,,,,,,,,2,64,0,,
95970,note_on,0,0,2,,,,,,,,,1,,,73,36
95970,control_change,0,0,2,,,,,,,,,1,64,0,,
95970,note_on,30,0,2,,,,,,,,,1,,,70,0
96000,note_on,0,0,2,,,,,,,,,1,,,71,36
96000,control_change,0,0,2,,,,,,,,,1,64,127,,
96000,note_on,0,0,1,,,,,,,,,0,,,75,49
96000,note_on,60,0,3,,,,,,,,,2,,,54,0
96000,control_change,0,0,3,,,,,,,,,2,64,127,,
96000,note_on,0,0,3,,,,,,,,,2,,,59,49
96000,note_on,30,0,2,,,,,,,,,1,,,73,0
96000,note_on,60,0,1,,,,,,,,,0,,,76,0
96030,note_on,30,0,2,,,,,,,,,1,,,71,0
96030,note_on,0,0,2,,,,,,,,,1,,,66,36
96060,note_on,30,0,2,,,,,,,,,1,,,66,0
96060,note_on,0,0,2,,,,,,,,,1,,,63,36
96060,note_on,60,0,3,,,,,,,,,2,,,59,0
96060,note_on,0,0,3,,,,,,,,,2,,,47,49
96090,note_on,30,0,2,,,,,,,,,1,,,63,0
96090,note_on,0,0,2,,,,,,,,,1,,,66,36
96120,note_on,60,0,3,,,,,,,,,2,,,47,0
96120,note_on,0,0,3,,,,,,,,,2,,,51,49
96120,note_on,0,0,2,,,,,,,,,1,,,70,36
96120,note_on,30,0,2,,,,,,,,,1,,,66,0
96120,note_on,120,0,1,,,,,,,,,0,,,75,0
96150,note_on,0,0,2,,,,,,,,,1,,,71,36
96150,note_on,30,0,2,,,,,,,,,1,,,70,0
96180,note_on,0,0,3,,,,,,,,,2,,,53,49
96180,control_change,0,0,3,,,,,,,,,2,64,0,,
96180,note_on,60,0,3,,,,,,,,,2,,,51,0
96180,note_on,0,0,2,,,,,,,,,1,,,68,36
96180,note_on,30,0,2,,,,,,,,,1,,,71,0
96180,note_on,60,0,1,,,,,,,,,0,,,75,49
96210,note_on,0,0,2,,,,,,,,,1,,,71,36
96210,control_change,0,0,2,,,,,,,,,1,64,0,,
96210,note_on,30,0,2,,,,,,,,,1,,,68,0
96240,control_change,0,0,2,,,,,,,,,1,64,127,,
96240,note_on,0,0,2,,,,,,,,,1,,,70,49
96240,note_on,30,0,2,,,,,,,,,1,,,71,0
96240,control_change,0,0,1,,,,,,,,,0,64,127,,
96240,control_change,0,0,3,,,,,,,,,2,64,127,,
96240,note_on,0,0,3,,,,,,,,,2,,,54,62
96240,note_on,60,0,1,,,,,,,,,0,,,75,0
96240,note_on,60,0,3,,,,,,,,,2,,,53,0
96240,note_on,0,0,1,,,,,,,,,0,,,73,62
96270,note_on,0,0,2,,,,,,,,,1,,,66,49
96270,note_on,30,0,2,,,,,,,,,1,,,70,0
96300,note_on,0,0,3,,,,,,,,,2,,,46,62
96300,note_on,60,0,3,,,,,,,,,2,,,54,0
96300,note_on,0,0,2,,,,,,,,,1,,,65,49
96300,note_on,30,0,2,,,,,,,,,1,,,66,0
96330,note_on,0,0,2,,,,,,,,,1,,,66,49
96330,note_on,30,0,2,,,,,,,,,1,,,65,0
96360,note_on,30,0,2,,,,,,,,,1,,,66,0
96360,note_on,0,0,2,,,,,,,,,1,,,63,49
96360,note_on,60,0,3,,,,,,,,,2,,,46,0
96360,note_on,0,0,3,,,,,,,,,2,,,47,62
96360,note_on,120,0,1,,,,,,,,,0,,,73,0
96360,note_on,0,0,1,,,,,,,,,0,,,68,62
96390,note_on,30,0,2,,,,,,,,,1,,,63,0
96390,note_on,0,0,2,,,,,,,,,1,,,66,49
96420,note_on,30,0,2,,,,,,,,,1,,,66,0
96420,note_on,0,0,2,,,,,,,,,1,,,65,49
96420,note_on,60,0,3,,,,,,,,,2,,,47,0
96420,note_on,0,0,3,,,,,,,,,2,,,49,62
96420,note_on,60,0,1,,,,,,,,,0,,,68,0
96420,control_change,0,0,1,,,,,,,,,0,64,0,,
96420,note_on,0,0,1,,,,,,,,,0,,,71,62
96420,control_change,0,0,3,,,,,,,,,2,64,0,,
96450,note_on,30,0,2,,,,,,,,,1,,,65,0
96450,control_change,0,0,2,,,,,,,,,1,64,0,,
96450,note_on,0,0,2,,,,,,,,,1,,,68,49
96480,note_on,60,0,1,,,,,,,,,0,,,71,0
96480,note_on,0,0,1,,,,,,,,,0,,,70,62
96480,control_change,0,0,2,,,,,,,,,1,64,127,,
96480,note_on,0,0,2,,,,,,,,,1,,,66,49
96480,note_on,30,0,2,,,,,,,,,1,,,68,0
96480,note_on,0,0,3,,,,,,,,,2,,,54,62
96480,note_on,60,0,3,,,,,,,,,2,,,49,0
96480,control_change,0,0,3,,,,,,,,,2,64,127,,
96510,note_on,30,0,2,,,,,,,,,1,,,66,0
96510,note_on,0,0,2,,,,,,,,,1,,,61,49
96540,note_on,30,0,2,,,,,,,,,1,,,61,0
96540,note_on,0,0,2,,,,,,,,,1,,,58,49
96540,note_on,0,0,3,,,,,,,,,2,,,42,62
96540,note_on,60,0,3,,,,,,,,,2,,,54,0
96570,note_on,30,0,2,,,,,,,,,1,,,58,0
96570,note_on,0,0,2,,,,,,,,,1,,,61,49
96600,note_on,120,0,1,,,,,,,,,0,,,70,0
96600,note_on,0,0,3,,,,,,,,,2,,,44,62
96600,note_on,0,0,2,,,,,,,,,1,,,59,49
96600,note_on,30,0,2,,,,,,,,,1,,,61,0
96600,note_on,60,0,3,,,,,,,,,2,,,42,0
96630,note_on,0,0,2,,,,,,,,,1,,,64,49
96630,note_on,30,0,2,,,,,,,,,1,,,59,0
96660,note_on,60,0,1,,,,,,,,,0,,,68,62
96660,note_on,0,0,2,,,,,,,,,1,,,61,49
96660,control_change,0,0,3,,,,,,,,,2,64,0,,
96660,note_on,0,0,3,,,,,,,,,2,,,46,62
96660,note_on,30,0,2,,,,,,,,,1,,,64,0
96660,note_on,60,0,3,,,,,,,,,2,,,44,0
96690,note_on,0,0,2,,,,,,,,,1,,,64,49
96690,control_change,0,0,2,,,,,,,,,1,64,0,,
96690,note_on,30,0,2,,,,,,,,,1,,,61,0
96720,control_change,0,0,1,,,,,,,,,0,64,127,,
96720,note_on,0,0,1,,,,,,,,,0,,,66,49
96720,note_on,60,0,3,,,,,,,,,2,,,46,0
96720,note_on,0,0,3,,,,,,,,,2,,,47,49
96720,control_change,0,0,3,,,,,,,,,2,64,127,,
96720,note_on,60,0,1,,,,,,,,,0,,,68,0
96720,note_on,30,0,2,,,,,,,,,1,,,64,0
96720,control_change,0,0,2,,,,,,,,,1,64,127,,
96720,note_on,0,0,2,,,,,,,,,1,,,63,36
96750,note_on,30,0,2,,,,,,,,,1,,,63,0
96750,note_on,0,0,2,,,,,,,,,1,,,59,36
96780,note_on,0,0,3,,,,,,,,,2,,,39,49
96780,note_on,60,0,3,,,,,,,,,2,,,47,0
96780,note_on,30,0,2,,,,,,,,,1,,,59,0
96780,note_on,0,0,2,,,,,,,,,1,,,58,36
96810,note_on,0,0,2,,,,,,,,,1,,,59,36
96810,note_on,30,0,2,,,,,,,,,1,,,58,0
96840,note_on,0,0,1,,,,,,,,,0,,,61,49
96840,note_on,120,0,1,,,,,,,,,0,,,66,0
96840,note_on,60,0,3,,,,,,,,,2,,,39,0
96840,note_on,0,0,3,,,,,,,,,2,,,40,49
96840,note_on,30,0,2,,,,,,,,,1,,,59,0
96840,note_on,0,0,2,,,,,,,,,1,,,56,36
96870,note_on,0,0,2,,,,,,,,,1,,,59,36
96870,note_on,30,0,2,,,,,,,,,1,,,56,0
96900,note_on,30,0,2,,,,,,,,,1,,,59,0
96900,note_on,0,0,2,,,,,,,,,1,,,58,36
96900,note_on,0,0,3,,,,,,,,,2,,,42,49
96900,note_on,0,0,1,,,,,,,,,0,,,64,49
96900,note_on,60,0,1,,,,,,,,,0,,,61,0
96900,control_change,0,0,3,,,,,,,,,2,64,0,,
96900,note_on,60,0,3,,,,,,,,,2,,,40,0
96930,note_on,30,0,2,,,,,,,,,1,,,58,0
96930,control_change,0,0,2,,,,,,,,,1,64,0,,
96930,note_on,0,0,2,,,,,,,,,1,,,61,36
96960,note_on,0,0,3,,,,,,,,,2,,,47,49
96960,control_change,0,0,3,,,,,,,,,2,64,127,,
96960,note_on,60,0,3,,,,,,,,,2,,,42,0
96960,note_on,0,0,2,,,,,,,,,1,,,59,36
96960,control_change,0,0,1,,,,,,,,,0,64,0,,
96960,note_on,30,0,2,,,,,,,,,1,,,61,0
96960,control_change,0,0,2,,,,,,,,,1,64,127,,
96960,note_on,60,0,1,,,,,,,,,0,,,64,0
96960,note_on,0,0,1,,,,,,,,,0,,,63,49
96990,note_on,0,0,2,,,,,,,,,1,,,58,36
96990,note_on,30,0,2,,,,,,,,,1,,,59,0
97020,note_on,0,0,3,,,,,,,,,2,,,42,49
97020,note_on,60,0,3,,,,,,,,,2,,,47,0
97020,note_on,0,0,2,,,,,,,,,1,,,59,36
97020,note_on,30,0,2,,,,,,,,,1,,,58,0
97026,note_on,6,0,3,,,,,,,,,2,,,42,0
97050,note_on,30,0,2,,,,,,,,,1,,,59,0
97050,note_on,0,0,2,,,,,,,,,1,,,63,36
97080,note_on,120,0,1,,,,,,,,,0,,,63,0
97080,note_on,30,0,2,,,,,,,,,1,,,63,0
97080,note_on,54,0,3,,,,,,,,,2,,,39,49
97080,note_on,0,0,2,,,,,,,,,1,,,68,36
97086,note_on,6,0,3,,,,,,,,,2,,,39,0
97110,note_on,0,0,2,,,,,,,,,1,,,66,36
97110,note_on,30,0,2,,,,,,,,,1,,,68,0
97140,control_change,54,0,3,,,,,,,,,2,64,0,,
97140,note_on,0,0,3,,,,,,,,,2,,,35,36
97140,note_on,0,0,2,,,,,,,,,1,,,65,36
97140,note_on,60,0,1,,,,,,,,,0,,,75,36
97140,note_on,30,0,2,,,,,,,,,1,,,66,0
97146,note_on,6,0,3,,,,,,,,,2,,,35,0
97170,control_change,0,0,2,,,,,,,,,1,64,0,,
97170,note_on,0,0,2,,,,,,,,,1,,,66,36
97170,note_on,30,0,2,,,,,,,,,1,,,65,0
97200,note_on,60,0,1,,,,,,,,,0,,,75,0
97200,control_change,54,0,3,,,,,,,,,2,64,127,,
97200,note_on,0,0,3,,,,,,,,,2,,,42,36
97200,note_on,30,0,2,,,,,,,,,1,,,66,0
97200,note_on,0,0,1,,,,,,,,,0,,,73,36
97200,control_change,0,0,1,,,,,,,,,0,64,127,,
97200,control_change,0,0,2,,,,,,,,,1,64,127,,
97200,note_on,0,0,2,,,,,,,,,1,,,64,36
97230,note_on,0,0,2,,,,,,,,,1,,,66,36
97230,note_on,30,0,2,,,,,,,,,1,,,64,0
97260,note_on,0,0,1,,,,,,,,,0,,,76,36
97260,note_on,60,0,1,,,,,,,,,0,,,73,0
97260,note_on,30,0,2,,,,,,,,,1,,,66,0
97260,note_on,0,0,2,,,,,,,,,1,,,64,36
97290,note_on,0,0,2,,,,,,,,,1,,,66,36
97290,note_on,30,0,2,,,,,,,,,1,,,64,0
97320,note_on,0,0,2,,,,,,,,,1,,,64,36
97320,note_on,30,0,2,,,,,,,,,1,,,66,0
97320,note_on,60,0,1,,,,,,,,,0,,,76,0
97320,note_on,0,0,1,,,,,,,,,0,,,68,36
97320,note_on,120,0,3,,,,,,,,,2,,,42,0
97350,note_on,0,0,2,,,,,,,,,1,,,66,36
97350,note_on,30,0,2,,,,,,,,,1,,,64,0
97380,note_on,30,0,2,,,,,,,,,1,,,66,0
97380,control_change,0,0,1,,,,,,,,,0,64,0,,
97380,note_on,0,0,2,,,,,,,,,1,,,64,36
97380,note_on,0,0,1,,,,,,,,,0,,,70,36
97380,note_on,60,0,1,,,,,,,,,0,,,68,0
97380,note_on,0,0,3,,,,,,,,,2,,,54,62
97380,control_change,60,0,3,,,,,,,,,2,64,0,,
97410,control_change,0,0,2,,,,,,,,,1,64,0,,
97410,note_on,0,0,2,,,,,,,,,1,,,66,36
97410,note_on,30,0,2,,,,,,,,,1,,,64,0
97440,note_on,0,0,3,,,,,,,,,2,,,47,36
97440,control_change,0,0,3,,,,,,,,,2,64,127,,
97440,note_on,60,0,3,,,,,,,,,2,,,54,0
97440,control_change,0,0,1,,,,,,,,,0,64,127,,
97440,note_on,0,0,1,,,,,,,,,0,,,73,36
97440,note_on,60,0,1,,,,,,,,,0,,,70,0
97440,control_change,0,0,2,,,,,,,,,1,64,127,,
97440,note_on,30,0,2,,,,,,,,,1,,,66,0
97440,note_on,0,0,2,,,,,,,,,1,,,63,36
97446,note_on,6,0,3,,,,,,,,,2,,,47,0
97470,note_on,0,0,2,,,,,,,,,1,,,66,36
97470,note_on,30,0,2,,,,,,,,,1,,,63,0
97500,note_on,0,0,2,,,,,,,,,1,,,63,36
97500,note_on,54,0,3,,,,,,,,,2,,,51,36
97500,note_on,0,0,1,,,,,,,,,0,,,71,36
97500,note_on,30,0,2,,,,,,,,,1,,,66,0
97500,note_on,60,0,1,,,,,,,,,0,,,73,0
97504,note_on,4,0,3,,,,,,,,,2,,,51,0
97530,note_on,30,0,2,,,,,,,,,1,,,63,0
97530,note_on,0,0,2,,,,,,,,,1,,,66,36
97560,note_on,60,0,1,,,,,,,,,0,,,71,0
97560,note_on,56,0,3,,,,,,,,,2,,,39,36
97560,note_on,30,0,2,,,,,,,,,1,,,66,0
97560,note_on,0,0,2,,,,,,,,,1,,,63,36
97566,note_on,6,0,3,,,,,,,,,2,,,39,0
97590,note_on,0,0,2,,,,,,,,,1,,,66,36
97590,note_on,30,0,2,,,,,,,,,1,,,63,0
97620,control_change,54,0,3,,,,,,,,,2,64,0,,
97620,note_on,0,0,2,,,,,,,,,1,,,68,36
97620,control_change,60,0,1,,,,,,,,,0,64,0,,
97620,note_on,0,0,1,,,,,,,,,0,,,75,36
97620,note_on,0,0,3,,,,,,,,,2,,,41,36
97620,note_on,30,0,2,,,,,,,,,1,,,66,0
97626,note_on,6,0,3,,,,,,,,,2,,,41,0
97650,control_change,0,0,2,,,,,,,,,1,64,0,,
97650,note_on,0,0,2,,,,,,,,,1,,,71,36
97650,note_on,30,0,2,,,,,,,,,1,,,68,0
97680,note_on,30,0,2,,,,,,,,,1,,,71,0
97680,control_change,0,0,2,,,,,,,,,1,64,127,,
97680,note_on,0,0,2,,,,,,,,,1,,,70,36
97680,note_on,60,0,1,,,,,,,,,0,,,75,0
97680,control_change,0,0,1,,,,,,,,,0,64,127,,
97680,note_on,0,0,1,,,,,,,,,0,,,73,36
97680,note_on,0,0,3,,,,,,,,,2,,,42,36
97680,control_change,54,0,3,,,,,,,,,2,64,127,,
97684,note_on,4,0,3,,,,,,,,,2,,,42,0
97710,note_on,30,0,2,,,,,,,,,1,,,70,0
97710,note_on,0,0,2,,,,,,,,,1,,,66,36
97740,note_on,56,0,3,,,,,,,,,2,,,30,36
97740,note_on,0,0,2,,,,,,,,,1,,,64,36
97740,note_on,30,0,2,,,,,,,,,1,,,66,0
97740,note_on,60,0,1,,,,,,,,,0,,,73,0
97740,note_on,0,0,1,,,,,,,,,0,,,76,36
97746,note_on,6,0,3,,,,,,,,,2,,,30,0
97770,note_on,0,0,2,,,,,,,,,1,,,66,36
97770,note_on,30,0,2,,,,,,,,,1,,,64,0
97800,note_on,60,0,1,,,,,,,,,0,,,76,0
97800,note_on,0,0,2,,,,,,,,,1,,,64,36
97800,note_on,30,0,2,,,,,,,,,1,,,66,0
97800,note_on,0,0,1,,,,,,,,,0,,,68,36
97830,note_on,0,0,2,,,,,,,,,1,,,66,36
97830,note_on,30,0,2,,,,,,,,,1,,,64,0
97860,control_change,114,0,3,,,,,,,,,2,64,0,,
97860,note_on,0,0,3,,,,,,,,,2,,,54,62
97860,control_change,0,0,1,,,,,,,,,0,64,0,,
97860,note_on,60,0,1,,,,,,,,,0,,,68,0
97860,note_on,0,0,1,,,,,,,,,0,,,70,36
97860,note_on,0,0,2,,,,,,,,,1,,,64,36
97860,note_on,30,0,2,,,,,,,,,1,,,66,0
97890,note_on,30,0,2,,,,,,,,,1,,,64,0
97890,note_on,0,0,2,,,,,,,,,1,,,66,36
97890,control_change,0,0,2,,,,,,,,,1,64,0,,
97920,note_on,60,0,3,,,,,,,,,2,,,54,0
97920,note_on,0,0,1,,,,,,,,,0,,,73,36
97920,note_on,0,0,3,,,,,,,,,2,,,47,36
97920,control_change,0,0,3,,,,,,,,,2,64,127,,
97920,control_change,0,0,1,,,,,,,,,0,64,127,,
97920,note_on,60,0,1,,,,,,,,,0,,,70,0
97920,control_change,0,0,2,,,,,,,,,1,64,127,,
97920,note_on,0,0,2,,,,,,,,,1,,,63,36
97920,note_on,30,0,2,,,,,,,,,1,,,66,0
97950,note_on,30,0,2,,,,,,,,,1,,,63,0
97950,note_on,0,0,2,,,,,,,,,1,,,66,36
97980,note_on,0,0,2,,,,,,,,,1,,,63,36
97980,note_on,60,0,3,,,,,,,,,2,,,47,0
97980,note_on,0,0,3,,,,,,,,,2,,,51,36
97980,note_on,0,0,1,,,,,,,,,0,,,71,36
97980,note_on,60,0,1,,,,,,,,,0,,,73,0
97980,note_on,30,0,2,,,,,,,,,1,,,66,0
97984,note_on,4,0,3,,,,,,,,,2,,,51,0
98010,note_on,0,0,2,,,,,,,,,1,,,66,36
98010,note_on,30,0,2,,,,,,,,,1,,,63,0
98040,note_on,60,0,1,,,,,,,,,0,,,71,0
98040,note_on,30,0,2,,,,,,,,,1,,,66,0
98040,note_on,0,0,2,,,,,,,,,1,,,64,36
98040,note_on,56,0,3,,,,,,,,,2,,,42,36
98046,note_on,6,0,3,,,,,,,,,2,,,42,0
98070,note_on,30,0,2,,,,,,,,,1,,,64,0
98070,note_on,0,0,2,,,,,,,,,1,,,67,36
98100,note_on,30,0,2,,,,,,,,,1,,,67,0
98100,note_on,0,0,2,,,,,,,,,1,,,66,36
98100,note_on,0,0,3,,,,,,,,,2,,,54,36
98100,control_change,54,0,3,,,,,,,,,2,64,0,,
98100,control_change,60,0,1,,,,,,,,,0,64,0,,
98100,note_on,0,0,1,,,,,,,,,0,,,70,36
98106,note_on,6,0,3,,,,,,,,,2,,,54,0
98130,note_on,30,0,2,,,,,,,,,1,,,66,0
98130,control_change,0,0,2,,,,,,,,,1,64,0,,
98130,note_on,0,0,2,,,,,,,,,1,,,64,36
98160,control_change,0,0,1,,,,,,,,,0,64,127,,
98160,note_on,0,0,1,,,,,,,,,0,,,73,36
98160,note_on,0,0,2,,,,,,,,,1,,,63,36
98160,control_change,0,0,2,,,,,,,,,1,64,127,,
98160,note_on,30,0,2,,,,,,,,,1,,,64,0
98160,control_change,54,0,3,,,,,,,,,2,64,127,,
98160,note_on,0,0,3,,,,,,,,,2,,,47,36
98160,note_on,60,0,1,,,,,,,,,0,,,70,0
98166,note_on,6,0,3,,,,,,,,,2,,,47,0
98190,note_on,0,0,2,,,,,,,,,1,,,66,36
98190,note_on,30,0,2,,,,,,,,,1,,,63,0
98220,set_tempo,3900,1,0,,,,,,530973,,,,,,,
98220,note_on,30,0,2,,,,,,,,,1,,,66,0
98220,note_on,54,0,3,,,,,,,,,2,,,51,36
98220,note_on,60,0,1,,,,,,,,,0,,,73,0
98220,note_on,0,0,1,,,,,,,,,0,,,71,36
98220,note_on,0,0,2,,,,,,,,,1,,,63,36
98226,note_on,6,0,3,,,,,,,,,2,,,51,0
98250,note_on,30,0,2,,,,,,,,,1,,,63,0
98250,note_on,0,0,2,,,,,,,,,1,,,66,36
98280,note_on,60,0,1,,,,,,,,,0,,,71,0
98280,note_on,54,0,3,,,,,,,,,2,,,42,36
98280,note_on,30,0,2,,,,,,,,,1,,,66,0
98280,set_tempo,60,1,0,,,,,,545455,,,,,,,
98280,note_on,0,0,2,,,,,,,,,1,,,64,36
98286,note_on,6,0,3,,,,,,,,,2,,,42,0
98310,note_on,0,0,2,,,,,,,,,1,,,67,36
98310,note_on,30,0,2,,,,,,,,,1,,,64,0
98340,note_on,0,0,3,,,,,,,,,2,,,54,36
98340,control_change,54,0,3,,,,,,,,,2,64,0,,
98340,set_tempo,60,1,0,,,,,,560748,,,,,,,
98340,note_on,0,0,2,,,,,,,,,1,,,66,36
98340,control_change,60,0,1,,,,,,,,,0,64,0,,
98340,note_on,0,0,1,,,,,,,,,0,,,70,36
98340,note_on,30,0,2,,,,,,,,,1,,,67,0
98346,note_on,6,0,3,,,,,,,,,2,,,54,0
98370,control_change,0,0,2,,,,,,,,,1,64,0,,
98370,note_on,30,0,2,,,,,,,,,1,,,66,0
98370,note_on,0,0,2,,,,,,,,,1,,,64,36
98400,note_on,30,0,2,,,,,,,,,1,,,64,0
98400,note_on,0,0,3,,,,,,,,,2,,,47,36
98400,set_tempo,60,1,0,,,,,,582524,,,,,,,
98400,note_on,0,0,1,,,,,,,,,0,,,73,36
98400,control_change,0,0,1,,,,,,,,,0,64,127,,
98400,note_on,60,0,1,,,,,,,,,0,,,70,0
98400,note_on,0,0,2,,,,,,,,,1,,,63,36
98400,control_change,54,0,3,,,,,,,,,2,64,127,,
98400,control_change,0,0,2,,,,,,,,,1,64,127,,
98406,note_on,6,0,3,,,,,,,,,2,,,47,0
98430,note_on,0,0,2,,,,,,,,,1,,,66,36
98430,note_on,30,0,2,,,,,,,,,1,,,63,0
98460,note_on,54,0,3,,,,,,,,,2,,,51,36
98460,note_on,30,0,2,,,,,,,,,1,,,66,0
98460,note_on,0,0,2,,,,,,,,,1,,,63,36
98460,note_on,0,0,1,,,,,,,,,0,,,71,36
98460,note_on,60,0,1,,,,,,,,,0,,,73,0
98460,set_tempo,60,1,0,,,,,,600000,,,,,,,
98466,note_on,6,0,3,,,,,,,,,2,,,51,0
98490,note_on,30,0,2,,,,,,,,,1,,,63,0
98490,note_on,0,0,2,,,,,,,,,1,,,66,36
98520,note_on,60,0,1,,,,,,,,,0,,,71,0
98520,note_on,30,0,2,,,,,,,,,1,,,66,0
98520,note_on,0,0,2,,,,,,,,,1,,,64,36
98520,set_tempo,60,1,0,,,,,,618557,,,,,,,
98520,note_on,54,0,3,,,,,,,,,2,,,42,36
98526,note_on,6,0,3,,,,,,,,,2,,,42,0
98550,note_on,0,0,2,,,,,,,,,1,,,67,36
98550,note_on,30,0,2,,,,,,,,,1,,,64,0
98580,set_tempo,60,1,0,,,,,,638298,,,,,,,
98580,note_on,0,0,2,,,,,,,,,1,,,66,36
98580,end_of_track,0,1,0,,,,,,,,,,,,,
98580,note_on,30,0,2,,,,,,,,,1,,,67,0
98580,note_on,0,0,1,,,,,,,,,0,,,70,36
98580,note_on,0,0,3,,,,,,,,,2,,,54,36
98580,control_change,54,0,3,,,,,,,,,2,64,0,,
98580,control_change,60,0,1,,,,,,,,,0,64,0,,
98586,note_on,6,0,3,,,,,,,,,2,,,54,0
98610,note_on,0,0,2,,,,,,,,,1,,,64,36
98610,control_change,0,0,2,,,,,,,,,1,64,0,,
98610,note_on,30,0,2,,,,,,,,,1,,,66,0
98640,note_on,0,0,1,,,,,,,,,0,,,63,36
98640,note_on,60,0,1,,,,,,,,,0,,,70,0
98640,control_change,0,0,2,,,,,,,,,1,64,127,,
98640,note_on,0,0,2,,,,,,,,,1,,,73,36
98640,note_on,30,0,2,,,,,,,,,1,,,64,0
98640,control_change,54,0,3,,,,,,,,,2,64,127,,
98640,note_on,0,0,3,,,,,,,,,2,,,47,36
98646,note_on,6,0,3,,,,,,,,,2,,,47,0
98670,note_on,0,0,2,,,,,,,,,1,,,71,36
98670,note_on,30,0,2,,,,,,,,,1,,,73,0
98700,note_on,0,0,2,,,,,,,,,1,,,70,36
98700,note_on,54,0,3,,,,,,,,,2,,,35,36
98700,note_on,30,0,2,,,,,,,,,1,,,71,0
98706,note_on,6,0,3,,,,,,,,,2,,,35,0
98730,note_on,0,0,2,,,,,,,,,1,,,71,36
98730,note_on,30,0,2,,,,,,,,,1,,,70,0
98760,note_on,0,0,2,,,,,,,,,1,,,70,36
98760,note_on,30,0,2,,,,,,,,,1,,,71,0
98760,note_on,54,0,3,,,,,,,,,2,,,39,36
98766,note_on,6,0,3,,,,,,,,,2,,,39,0
98790,note_on,30,0,2,,,,,,,,,1,,,70,0
98790,note_on,0,0,2,,,,,,,,,1,,,71,36
98820,note_on,54,0,3,,,,,,,,,2,,,42,36
98820,note_on,30,0,2,,,,,,,,,1,,,71,0
98820,note_on,0,0,2,,,,,,,,,1,,,73,36
98826,note_on,6,0,3,,,,,,,,,2,,,42,0
98850,note_on,0,0,2,,,,,,,,,1,,,71,36
98850,note_on,30,0,2,,,,,,,,,1,,,73,0
98880,note_on,30,0,2,,,,,,,,,1,,,71,0
98880,note_on,0,0,2,,,,,,,,,1,,,71,36
98880,note_on,54,0,3,,,,,,,,,2,,,47,36
99000,note_on,120,0,2,,,,,,,,,1,,,71,0
99000,control_change,0,0,2,,,,,,,,,1,64,0,,
99000,note_on,360,0,1,,,,,,,,,0,,,63,0
99000,control_change,0,0,3,,,,,,,,,2,64,0,,
99000,note_on,120,0,3,,,,,,,,,2,,,47,0
99600,control_change,25560,0,4,,,,,,,,,3,64,0,,
99600,control_change,600,0,2,,,,,,,,,1,64,0,,
99600,end_of_track,0,1,3,,,,,,,,,,,,,
99600,control_change,600,0,3,,,,,,,,,2,64,0,,
99600,control_change,600,0,1,,,,,,,,,0,64,0,,
99600,end_of_track,0,1,1,,,,,,,,,,,,,
99600,end_of_track,0,1,2,,,,,,,,,,,,,
99600,end_of_track,0,1,4,,,,,,,,,,,,,
